0, 0, Header, 1, 6, 96
1, 0, Start_track
1, 0, Copyright_t, "Copyright  2000 <copyright holder>"
1, 0, Text_t, "Sonata I\015\012"
1, 0, Text_t, "Haydn\015\012"
1, 0, Sequencer_specific, 16, 68, 87, 77, 90, 86, 82, 83, 78, 32, 55, 46, 49, 46, 50, 46, 48
1, 0, Time_signature, 6, 3, 24, 8
1, 0, Tempo, 1090909
1, 0, Key_signature, 0, "major"
1, 3696, Tempo, 545454
1, 3744, Tempo, 1090909
1, 4032, Tempo, 1500000
1, 4128, Tempo, 1090909
1, 4608, Tempo, 1200000
1, 4704, Tempo, 1090909
1, 4896, Time_signature, 5, 3, 24, 8
1, 8832, Tempo, 545454
1, 8880, Tempo, 1090909
1, 9168, Tempo, 1500000
1, 9264, Tempo, 1090909
1, 9744, Tempo, 1200000
1, 9840, Tempo, 1090909
1, 10032, Time_signature, 5, 3, 24, 8
1, 10272, Time_signature, 6, 3, 24, 8
1, 10368, Tempo, 1200000
1, 10416, Tempo, 1333333
1, 10464, Tempo, 2000000
1, 10536, Tempo, 3000000
1, 10560, Tempo, 1090909
1, 12864, Tempo, 1200000
1, 12948, Tempo, 1500000
1, 13104, Tempo, 3000000
1, 13152, Tempo, 1090909
1, 14544, Tempo, 1200000
1, 14592, Tempo, 1090909
1, 15984, Tempo, 428571
1, 16080, Tempo, 1090909
1, 16608, Tempo, 1200000
1, 16704, Tempo, 1090909
1, 16896, Time_signature, 5, 3, 24, 8
1, 17136, Time_signature, 6, 3, 24, 8
1, 17232, Tempo, 1200000
1, 17280, Tempo, 1333333
1, 17328, Tempo, 2000000
1, 17400, Tempo, 3000000
1, 17424, Tempo, 1090909
1, 19728, Tempo, 1200000
1, 19812, Tempo, 1500000
1, 19968, Tempo, 3000000
1, 20016, Tempo, 1090909
1, 21408, Tempo, 1200000
1, 21456, Tempo, 1090909
1, 22848, Tempo, 428571
1, 22944, Tempo, 1090909
1, 23472, Tempo, 1200000
1, 23568, Tempo, 1090909
1, 23760, Time_signature, 5, 3, 24, 8
1, 24000, End_track
2, 0, Start_track
2, 0, Program_c, 0, 0
2, 0, Control_c, 0, 7, 127
2, 0, Control_c, 0, 10, 64
2, 0, Note_on_c, 0, 84, 80
2, 96, Note_on_c, 0, 84, 0
2, 96, Note_on_c, 0, 72, 75
2, 102, Note_on_c, 0, 72, 0
2, 102, Note_on_c, 0, 71, 75
2, 108, Note_on_c, 0, 71, 0
2, 108, Note_on_c, 0, 72, 75
2, 215, Note_on_c, 0, 72, 0
2, 216, Note_on_c, 0, 74, 78
2, 228, Note_on_c, 0, 74, 0
2, 228, Note_on_c, 0, 76, 78
2, 240, Note_on_c, 0, 76, 0
2, 240, Note_on_c, 0, 77, 78
2, 252, Note_on_c, 0, 77, 0
2, 252, Note_on_c, 0, 79, 79
2, 264, Note_on_c, 0, 79, 0
2, 264, Note_on_c, 0, 81, 79
2, 276, Note_on_c, 0, 81, 0
2, 276, Note_on_c, 0, 83, 79
2, 288, Note_on_c, 0, 83, 0
2, 288, Note_on_c, 0, 84, 96
2, 384, Note_on_c, 0, 84, 0
2, 384, Note_on_c, 0, 72, 75
2, 390, Note_on_c, 0, 72, 0
2, 390, Note_on_c, 0, 71, 75
2, 396, Note_on_c, 0, 71, 0
2, 396, Note_on_c, 0, 72, 75
2, 503, Note_on_c, 0, 72, 0
2, 504, Note_on_c, 0, 74, 78
2, 516, Note_on_c, 0, 74, 0
2, 516, Note_on_c, 0, 76, 78
2, 528, Note_on_c, 0, 76, 0
2, 528, Note_on_c, 0, 77, 78
2, 540, Note_on_c, 0, 77, 0
2, 540, Note_on_c, 0, 79, 79
2, 552, Note_on_c, 0, 79, 0
2, 552, Note_on_c, 0, 81, 79
2, 564, Note_on_c, 0, 81, 0
2, 564, Note_on_c, 0, 83, 79
2, 576, Note_on_c, 0, 83, 0
2, 576, Note_on_c, 0, 84, 96
2, 592, Note_on_c, 0, 84, 0
2, 592, Note_on_c, 0, 79, 70
2, 607, Note_on_c, 0, 79, 0
2, 608, Note_on_c, 0, 79, 70
2, 623, Note_on_c, 0, 79, 0
2, 624, Note_on_c, 0, 79, 70
2, 630, Note_on_c, 0, 79, 0
2, 630, Note_on_c, 0, 81, 70
2, 636, Note_on_c, 0, 81, 0
2, 636, Note_on_c, 0, 79, 70
2, 640, Note_on_c, 0, 79, 0
2, 640, Note_on_c, 0, 77, 70
2, 655, Note_on_c, 0, 77, 0
2, 656, Note_on_c, 0, 77, 70
2, 671, Note_on_c, 0, 77, 0
2, 672, Note_on_c, 0, 77, 70
2, 678, Note_on_c, 0, 77, 0
2, 678, Note_on_c, 0, 79, 70
2, 684, Note_on_c, 0, 79, 0
2, 684, Note_on_c, 0, 77, 70
2, 688, Note_on_c, 0, 77, 0
2, 688, Note_on_c, 0, 76, 70
2, 703, Note_on_c, 0, 76, 0
2, 704, Note_on_c, 0, 76, 70
2, 719, Note_on_c, 0, 76, 0
2, 720, Note_on_c, 0, 76, 70
2, 736, Note_on_c, 0, 76, 0
2, 736, Note_on_c, 0, 74, 70
2, 751, Note_on_c, 0, 74, 0
2, 752, Note_on_c, 0, 74, 70
2, 767, Note_on_c, 0, 74, 0
2, 768, Note_on_c, 0, 74, 70
2, 774, Note_on_c, 0, 74, 0
2, 774, Note_on_c, 0, 76, 70
2, 780, Note_on_c, 0, 76, 0
2, 780, Note_on_c, 0, 74, 70
2, 784, Note_on_c, 0, 74, 0
2, 784, Note_on_c, 0, 72, 70
2, 799, Note_on_c, 0, 72, 0
2, 800, Note_on_c, 0, 72, 70
2, 815, Note_on_c, 0, 72, 0
2, 816, Note_on_c, 0, 67, 86
2, 832, Note_on_c, 0, 67, 0
2, 832, Note_on_c, 0, 64, 70
2, 847, Note_on_c, 0, 64, 0
2, 848, Note_on_c, 0, 65, 86
2, 879, Note_on_c, 0, 65, 0
2, 880, Note_on_c, 0, 63, 70
2, 895, Note_on_c, 0, 63, 0
2, 896, Note_on_c, 0, 64, 86
2, 927, Note_on_c, 0, 64, 0
2, 928, Note_on_c, 0, 61, 70
2, 943, Note_on_c, 0, 61, 0
2, 944, Note_on_c, 0, 62, 86
2, 975, Note_on_c, 0, 62, 0
2, 976, Note_on_c, 0, 59, 70
2, 991, Note_on_c, 0, 59, 0
2, 992, Note_on_c, 0, 60, 70
2, 1007, Note_on_c, 0, 60, 0
2, 1008, Note_on_c, 0, 65, 80
2, 1008, Note_on_c, 0, 62, 80
2, 1042, Note_on_c, 0, 65, 0
2, 1042, Note_on_c, 0, 62, 0
2, 1044, Note_on_c, 0, 64, 80
2, 1044, Note_on_c, 0, 60, 80
2, 1056, Note_on_c, 0, 64, 0
2, 1056, Note_on_c, 0, 60, 0
2, 1056, Note_on_c, 0, 69, 80
2, 1056, Note_on_c, 0, 65, 80
2, 1056, Note_on_c, 0, 60, 80
2, 1066, Note_on_c, 0, 69, 0
2, 1066, Note_on_c, 0, 65, 0
2, 1066, Note_on_c, 0, 60, 0
2, 1104, Note_on_c, 0, 59, 80
2, 1104, Note_on_c, 0, 55, 80
2, 1104, Note_on_c, 0, 50, 80
2, 1114, Note_on_c, 0, 59, 0
2, 1114, Note_on_c, 0, 55, 0
2, 1114, Note_on_c, 0, 50, 0
2, 1184, Note_on_c, 0, 84, 80
2, 1191, Note_on_c, 0, 84, 0
2, 1200, Note_on_c, 0, 76, 70
2, 1216, Note_on_c, 0, 76, 0
2, 1216, Note_on_c, 0, 77, 70
2, 1231, Note_on_c, 0, 77, 0
2, 1232, Note_on_c, 0, 81, 70
2, 1239, Note_on_c, 0, 81, 0
2, 1248, Note_on_c, 0, 75, 70
2, 1264, Note_on_c, 0, 75, 0
2, 1264, Note_on_c, 0, 76, 70
2, 1279, Note_on_c, 0, 76, 0
2, 1280, Note_on_c, 0, 79, 70
2, 1287, Note_on_c, 0, 79, 0
2, 1296, Note_on_c, 0, 73, 70
2, 1312, Note_on_c, 0, 73, 0
2, 1312, Note_on_c, 0, 74, 70
2, 1327, Note_on_c, 0, 74, 0
2, 1328, Note_on_c, 0, 77, 70
2, 1335, Note_on_c, 0, 77, 0
2, 1344, Note_on_c, 0, 71, 70
2, 1360, Note_on_c, 0, 71, 0
2, 1360, Note_on_c, 0, 72, 70
2, 1375, Note_on_c, 0, 72, 0
2, 1376, Note_on_c, 0, 76, 70
2, 1383, Note_on_c, 0, 76, 0
2, 1392, Note_on_c, 0, 68, 70
2, 1408, Note_on_c, 0, 68, 0
2, 1408, Note_on_c, 0, 69, 70
2, 1423, Note_on_c, 0, 69, 0
2, 1424, Note_on_c, 0, 64, 71
2, 1439, Note_on_c, 0, 64, 0
2, 1440, Note_on_c, 0, 65, 71
2, 1470, Note_on_c, 0, 65, 0
2, 1472, Note_on_c, 0, 64, 71
2, 1487, Note_on_c, 0, 64, 0
2, 1488, Note_on_c, 0, 65, 71
2, 1518, Note_on_c, 0, 65, 0
2, 1520, Note_on_c, 0, 61, 72
2, 1535, Note_on_c, 0, 61, 0
2, 1536, Note_on_c, 0, 62, 72
2, 1548, Note_on_c, 0, 62, 0
2, 1548, Note_on_c, 0, 64, 72
2, 1560, Note_on_c, 0, 64, 0
2, 1560, Note_on_c, 0, 65, 73
2, 1572, Note_on_c, 0, 65, 0
2, 1572, Note_on_c, 0, 64, 73
2, 1584, Note_on_c, 0, 64, 0
2, 1584, Note_on_c, 0, 62, 73
2, 1596, Note_on_c, 0, 62, 0
2, 1596, Note_on_c, 0, 60, 73
2, 1608, Note_on_c, 0, 60, 0
2, 1608, Note_on_c, 0, 59, 73
2, 1620, Note_on_c, 0, 59, 0
2, 1620, Note_on_c, 0, 57, 74
2, 1632, Note_on_c, 0, 57, 0
2, 1632, Note_on_c, 0, 59, 75
2, 1648, Note_on_c, 0, 59, 0
2, 1648, Note_on_c, 0, 69, 76
2, 1663, Note_on_c, 0, 69, 0
2, 1664, Note_on_c, 0, 72, 77
2, 1679, Note_on_c, 0, 72, 0
2, 1680, Note_on_c, 0, 71, 78
2, 1695, Note_on_c, 0, 71, 0
2, 1696, Note_on_c, 0, 69, 80
2, 1711, Note_on_c, 0, 69, 0
2, 1712, Note_on_c, 0, 67, 78
2, 1727, Note_on_c, 0, 67, 0
2, 1728, Note_on_c, 0, 66, 75
2, 1743, Note_on_c, 0, 66, 0
2, 1744, Note_on_c, 0, 57, 75
2, 1759, Note_on_c, 0, 57, 0
2, 1760, Note_on_c, 0, 60, 76
2, 1775, Note_on_c, 0, 60, 0
2, 1776, Note_on_c, 0, 59, 78
2, 1791, Note_on_c, 0, 59, 0
2, 1792, Note_on_c, 0, 57, 80
2, 1807, Note_on_c, 0, 57, 0
2, 1808, Note_on_c, 0, 55, 79
2, 1823, Note_on_c, 0, 55, 0
2, 1824, Note_on_c, 0, 62, 78
2, 1824, Note_on_c, 0, 57, 78
2, 1824, Note_on_c, 0, 54, 78
2, 1847, Note_on_c, 0, 62, 0
2, 1847, Note_on_c, 0, 57, 0
2, 1847, Note_on_c, 0, 54, 0
2, 1872, Note_on_c, 0, 62, 75
2, 1872, Note_on_c, 0, 57, 75
2, 1872, Note_on_c, 0, 54, 75
2, 1917, Note_on_c, 0, 62, 0
2, 1917, Note_on_c, 0, 57, 0
2, 1917, Note_on_c, 0, 54, 0
2, 2016, Note_on_c, 0, 71, 70
2, 2031, Note_on_c, 0, 71, 0
2, 2032, Note_on_c, 0, 74, 70
2, 2047, Note_on_c, 0, 74, 0
2, 2048, Note_on_c, 0, 79, 70
2, 2063, Note_on_c, 0, 79, 0
2, 2064, Note_on_c, 0, 71, 71
2, 2079, Note_on_c, 0, 71, 0
2, 2080, Note_on_c, 0, 74, 71
2, 2095, Note_on_c, 0, 74, 0
2, 2096, Note_on_c, 0, 79, 72
2, 2111, Note_on_c, 0, 79, 0
2, 2112, Note_on_c, 0, 72, 72
2, 2127, Note_on_c, 0, 72, 0
2, 2128, Note_on_c, 0, 76, 73
2, 2143, Note_on_c, 0, 76, 0
2, 2144, Note_on_c, 0, 79, 73
2, 2159, Note_on_c, 0, 79, 0
2, 2160, Note_on_c, 0, 72, 74
2, 2175, Note_on_c, 0, 72, 0
2, 2176, Note_on_c, 0, 76, 74
2, 2191, Note_on_c, 0, 76, 0
2, 2192, Note_on_c, 0, 79, 74
2, 2207, Note_on_c, 0, 79, 0
2, 2208, Note_on_c, 0, 71, 74
2, 2223, Note_on_c, 0, 71, 0
2, 2224, Note_on_c, 0, 74, 74
2, 2239, Note_on_c, 0, 74, 0
2, 2240, Note_on_c, 0, 79, 73
2, 2255, Note_on_c, 0, 79, 0
2, 2256, Note_on_c, 0, 69, 73
2, 2271, Note_on_c, 0, 69, 0
2, 2272, Note_on_c, 0, 72, 72
2, 2287, Note_on_c, 0, 72, 0
2, 2288, Note_on_c, 0, 81, 72
2, 2303, Note_on_c, 0, 81, 0
2, 2320, Note_on_c, 0, 78, 70
2, 2336, Note_on_c, 0, 78, 0
2, 2336, Note_on_c, 0, 79, 70
2, 2351, Note_on_c, 0, 79, 0
2, 2368, Note_on_c, 0, 79, 70
2, 2384, Note_on_c, 0, 79, 0
2, 2384, Note_on_c, 0, 77, 70
2, 2399, Note_on_c, 0, 77, 0
2, 2400, Note_on_c, 0, 76, 70
2, 2415, Note_on_c, 0, 76, 0
2, 2416, Note_on_c, 0, 84, 70
2, 2432, Note_on_c, 0, 84, 0
2, 2432, Note_on_c, 0, 83, 70
2, 2447, Note_on_c, 0, 83, 0
2, 2464, Note_on_c, 0, 81, 71
2, 2480, Note_on_c, 0, 81, 0
2, 2480, Note_on_c, 0, 79, 72
2, 2495, Note_on_c, 0, 79, 0
2, 2496, Note_on_c, 0, 78, 72
2, 2511, Note_on_c, 0, 78, 0
2, 2512, Note_on_c, 0, 86, 72
2, 2528, Note_on_c, 0, 86, 0
2, 2528, Note_on_c, 0, 84, 73
2, 2543, Note_on_c, 0, 84, 0
2, 2560, Note_on_c, 0, 83, 74
2, 2576, Note_on_c, 0, 83, 0
2, 2576, Note_on_c, 0, 81, 74
2, 2591, Note_on_c, 0, 81, 0
2, 2592, Note_on_c, 0, 79, 75
2, 2607, Note_on_c, 0, 79, 0
2, 2608, Note_on_c, 0, 88, 75
2, 2624, Note_on_c, 0, 88, 0
2, 2624, Note_on_c, 0, 86, 75
2, 2639, Note_on_c, 0, 86, 0
2, 2656, Note_on_c, 0, 84, 76
2, 2672, Note_on_c, 0, 84, 0
2, 2672, Note_on_c, 0, 83, 77
2, 2687, Note_on_c, 0, 83, 0
2, 2688, Note_on_c, 0, 81, 80
2, 2700, Note_on_c, 0, 81, 0
2, 2700, Note_on_c, 0, 83, 80
2, 2712, Note_on_c, 0, 83, 0
2, 2712, Note_on_c, 0, 84, 80
2, 2724, Note_on_c, 0, 84, 0
2, 2724, Note_on_c, 0, 83, 80
2, 2736, Note_on_c, 0, 83, 0
2, 2736, Note_on_c, 0, 81, 80
2, 2748, Note_on_c, 0, 81, 0
2, 2748, Note_on_c, 0, 79, 80
2, 2760, Note_on_c, 0, 79, 0
2, 2760, Note_on_c, 0, 78, 80
2, 2772, Note_on_c, 0, 78, 0
2, 2772, Note_on_c, 0, 76, 80
2, 2784, Note_on_c, 0, 76, 0
2, 2784, Note_on_c, 0, 74, 80
2, 2796, Note_on_c, 0, 74, 0
2, 2796, Note_on_c, 0, 78, 80
2, 2808, Note_on_c, 0, 78, 0
2, 2808, Note_on_c, 0, 81, 80
2, 2820, Note_on_c, 0, 81, 0
2, 2820, Note_on_c, 0, 79, 80
2, 2832, Note_on_c, 0, 79, 0
2, 2832, Note_on_c, 0, 78, 80
2, 2844, Note_on_c, 0, 78, 0
2, 2844, Note_on_c, 0, 76, 80
2, 2856, Note_on_c, 0, 76, 0
2, 2856, Note_on_c, 0, 74, 80
2, 2868, Note_on_c, 0, 74, 0
2, 2868, Note_on_c, 0, 72, 80
2, 2880, Note_on_c, 0, 72, 0
2, 2880, Note_on_c, 0, 79, 80
2, 2892, Note_on_c, 0, 79, 0
2, 2892, Note_on_c, 0, 81, 80
2, 2904, Note_on_c, 0, 81, 0
2, 2904, Note_on_c, 0, 83, 80
2, 2916, Note_on_c, 0, 83, 0
2, 2916, Note_on_c, 0, 81, 80
2, 2928, Note_on_c, 0, 81, 0
2, 2928, Note_on_c, 0, 79, 80
2, 2940, Note_on_c, 0, 79, 0
2, 2940, Note_on_c, 0, 78, 80
2, 2952, Note_on_c, 0, 78, 0
2, 2952, Note_on_c, 0, 76, 80
2, 2964, Note_on_c, 0, 76, 0
2, 2964, Note_on_c, 0, 74, 80
2, 2976, Note_on_c, 0, 74, 0
2, 2976, Note_on_c, 0, 76, 80
2, 2988, Note_on_c, 0, 76, 0
2, 2988, Note_on_c, 0, 78, 80
2, 3000, Note_on_c, 0, 78, 0
2, 3000, Note_on_c, 0, 79, 80
2, 3012, Note_on_c, 0, 79, 0
2, 3012, Note_on_c, 0, 78, 80
2, 3024, Note_on_c, 0, 78, 0
2, 3024, Note_on_c, 0, 76, 80
2, 3036, Note_on_c, 0, 76, 0
2, 3036, Note_on_c, 0, 74, 80
2, 3048, Note_on_c, 0, 74, 0
2, 3048, Note_on_c, 0, 72, 80
2, 3060, Note_on_c, 0, 72, 0
2, 3060, Note_on_c, 0, 71, 80
2, 3072, Note_on_c, 0, 71, 0
2, 3072, Note_on_c, 0, 69, 80
2, 3084, Note_on_c, 0, 69, 0
2, 3084, Note_on_c, 0, 71, 80
2, 3096, Note_on_c, 0, 71, 0
2, 3096, Note_on_c, 0, 72, 80
2, 3108, Note_on_c, 0, 72, 0
2, 3108, Note_on_c, 0, 71, 80
2, 3120, Note_on_c, 0, 71, 0
2, 3120, Note_on_c, 0, 69, 80
2, 3132, Note_on_c, 0, 69, 0
2, 3132, Note_on_c, 0, 67, 80
2, 3144, Note_on_c, 0, 67, 0
2, 3144, Note_on_c, 0, 66, 80
2, 3156, Note_on_c, 0, 66, 0
2, 3156, Note_on_c, 0, 64, 80
2, 3168, Note_on_c, 0, 64, 0
2, 3168, Note_on_c, 0, 66, 96
2, 3216, Note_on_c, 0, 66, 0
2, 3216, Note_on_c, 0, 81, 81
2, 3216, Note_on_c, 0, 78, 81
2, 3236, Note_on_c, 0, 81, 0
2, 3236, Note_on_c, 0, 78, 0
2, 3264, Note_on_c, 0, 67, 82
2, 3270, Note_on_c, 0, 67, 0
2, 3270, Note_on_c, 0, 66, 82
2, 3276, Note_on_c, 0, 66, 0
2, 3276, Note_on_c, 0, 67, 98
2, 3312, Note_on_c, 0, 67, 0
2, 3312, Note_on_c, 0, 83, 83
2, 3312, Note_on_c, 0, 79, 83
2, 3332, Note_on_c, 0, 83, 0
2, 3332, Note_on_c, 0, 79, 0
2, 3360, Note_on_c, 0, 69, 84
2, 3366, Note_on_c, 0, 69, 0
2, 3366, Note_on_c, 0, 67, 84
2, 3372, Note_on_c, 0, 67, 0
2, 3372, Note_on_c, 0, 69, 100
2, 3408, Note_on_c, 0, 69, 0
2, 3408, Note_on_c, 0, 84, 86
2, 3408, Note_on_c, 0, 81, 86
2, 3428, Note_on_c, 0, 84, 0
2, 3428, Note_on_c, 0, 81, 0
2, 3456, Note_on_c, 0, 85, 80
2, 3479, Note_on_c, 0, 85, 0
2, 3480, Note_on_c, 0, 86, 80
2, 3503, Note_on_c, 0, 86, 0
2, 3504, Note_on_c, 0, 88, 80
2, 3527, Note_on_c, 0, 88, 0
2, 3528, Note_on_c, 0, 86, 80
2, 3551, Note_on_c, 0, 86, 0
2, 3552, Note_on_c, 0, 84, 80
2, 3641, Note_on_c, 0, 84, 0
2, 3744, Note_on_c, 0, 69, 80
2, 3744, Note_on_c, 0, 66, 80
2, 3791, Note_on_c, 0, 69, 0
2, 3791, Note_on_c, 0, 66, 0
2, 3792, Note_on_c, 0, 38, 80
2, 3837, Note_on_c, 0, 38, 0
2, 3840, Note_on_c, 0, 70, 80
2, 3840, Note_on_c, 0, 67, 80
2, 3885, Note_on_c, 0, 70, 0
2, 3885, Note_on_c, 0, 67, 0
2, 3888, Note_on_c, 0, 38, 80
2, 3933, Note_on_c, 0, 38, 0
2, 3936, Note_on_c, 0, 72, 80
2, 3936, Note_on_c, 0, 69, 80
2, 3981, Note_on_c, 0, 72, 0
2, 3981, Note_on_c, 0, 69, 0
2, 3984, Note_on_c, 0, 38, 80
2, 4029, Note_on_c, 0, 38, 0
2, 4032, Note_on_c, 0, 75, 80
2, 4032, Note_on_c, 0, 72, 80
2, 4128, Note_on_c, 0, 75, 0
2, 4128, Note_on_c, 0, 72, 0
2, 4128, Note_on_c, 0, 74, 96
2, 4144, Note_on_c, 0, 74, 0
2, 4144, Note_on_c, 0, 79, 79
2, 4159, Note_on_c, 0, 79, 0
2, 4160, Note_on_c, 0, 71, 78
2, 4175, Note_on_c, 0, 71, 0
2, 4176, Note_on_c, 0, 72, 78
2, 4191, Note_on_c, 0, 72, 0
2, 4192, Note_on_c, 0, 76, 77
2, 4207, Note_on_c, 0, 76, 0
2, 4208, Note_on_c, 0, 68, 76
2, 4223, Note_on_c, 0, 68, 0
2, 4224, Note_on_c, 0, 69, 76
2, 4239, Note_on_c, 0, 69, 0
2, 4240, Note_on_c, 0, 71, 75
2, 4255, Note_on_c, 0, 71, 0
2, 4256, Note_on_c, 0, 72, 75
2, 4271, Note_on_c, 0, 72, 0
2, 4272, Note_on_c, 0, 74, 74
2, 4287, Note_on_c, 0, 74, 0
2, 4288, Note_on_c, 0, 72, 73
2, 4303, Note_on_c, 0, 72, 0
2, 4304, Note_on_c, 0, 71, 73
2, 4319, Note_on_c, 0, 71, 0
2, 4320, Note_on_c, 0, 69, 70
2, 4320, Note_on_c, 0, 67, 70
2, 4330, Note_on_c, 0, 69, 0
2, 4330, Note_on_c, 0, 67, 0
2, 4344, Note_on_c, 0, 69, 86
2, 4344, Note_on_c, 0, 67, 86
2, 4392, Note_on_c, 0, 69, 0
2, 4392, Note_on_c, 0, 67, 0
2, 4392, Note_on_c, 0, 69, 70
2, 4392, Note_on_c, 0, 67, 70
2, 4415, Note_on_c, 0, 69, 0
2, 4415, Note_on_c, 0, 67, 0
2, 4416, Note_on_c, 0, 70, 70
2, 4416, Note_on_c, 0, 67, 70
2, 4426, Note_on_c, 0, 70, 0
2, 4426, Note_on_c, 0, 67, 0
2, 4440, Note_on_c, 0, 70, 86
2, 4440, Note_on_c, 0, 67, 86
2, 4488, Note_on_c, 0, 70, 0
2, 4488, Note_on_c, 0, 67, 0
2, 4488, Note_on_c, 0, 70, 70
2, 4488, Note_on_c, 0, 67, 70
2, 4511, Note_on_c, 0, 70, 0
2, 4511, Note_on_c, 0, 67, 0
2, 4512, Note_on_c, 0, 76, 70
2, 4512, Note_on_c, 0, 70, 70
2, 4512, Note_on_c, 0, 67, 70
2, 4522, Note_on_c, 0, 76, 0
2, 4522, Note_on_c, 0, 70, 0
2, 4522, Note_on_c, 0, 67, 0
2, 4536, Note_on_c, 0, 76, 86
2, 4536, Note_on_c, 0, 70, 86
2, 4536, Note_on_c, 0, 67, 86
2, 4584, Note_on_c, 0, 76, 0
2, 4584, Note_on_c, 0, 70, 0
2, 4584, Note_on_c, 0, 67, 0
2, 4584, Note_on_c, 0, 76, 70
2, 4584, Note_on_c, 0, 70, 70
2, 4584, Note_on_c, 0, 67, 70
2, 4607, Note_on_c, 0, 76, 0
2, 4607, Note_on_c, 0, 70, 0
2, 4607, Note_on_c, 0, 67, 0
2, 4608, Note_on_c, 0, 79, 87
2, 4620, Note_on_c, 0, 79, 0
2, 4620, Note_on_c, 0, 81, 87
2, 4632, Note_on_c, 0, 81, 0
2, 4632, Note_on_c, 0, 82, 103
2, 4704, Note_on_c, 0, 82, 0
2, 4752, Note_on_c, 0, 79, 64
2, 4752, Note_on_c, 0, 74, 64
2, 4772, Note_on_c, 0, 79, 0
2, 4772, Note_on_c, 0, 74, 0
2, 4848, Note_on_c, 0, 81, 64
2, 4848, Note_on_c, 0, 78, 64
2, 4893, Note_on_c, 0, 81, 0
2, 4893, Note_on_c, 0, 78, 0
2, 4896, Note_on_c, 0, 79, 64
2, 4896, Note_on_c, 0, 74, 64
2, 4896, Note_on_c, 0, 71, 64
2, 4941, Note_on_c, 0, 79, 0
2, 4941, Note_on_c, 0, 74, 0
2, 4941, Note_on_c, 0, 71, 0
2, 4944, Note_on_c, 0, 47, 58
2, 4944, Note_on_c, 0, 43, 58
2, 4989, Note_on_c, 0, 47, 0
2, 4989, Note_on_c, 0, 43, 0
2, 4992, Note_on_c, 0, 47, 58
2, 4992, Note_on_c, 0, 43, 58
2, 5081, Note_on_c, 0, 47, 0
2, 5081, Note_on_c, 0, 43, 0
2, 5136, Note_on_c, 0, 84, 80
2, 5232, Note_on_c, 0, 84, 0
2, 5232, Note_on_c, 0, 72, 75
2, 5238, Note_on_c, 0, 72, 0
2, 5238, Note_on_c, 0, 71, 75
2, 5244, Note_on_c, 0, 71, 0
2, 5244, Note_on_c, 0, 72, 75
2, 5351, Note_on_c, 0, 72, 0
2, 5352, Note_on_c, 0, 74, 78
2, 5364, Note_on_c, 0, 74, 0
2, 5364, Note_on_c, 0, 76, 78
2, 5376, Note_on_c, 0, 76, 0
2, 5376, Note_on_c, 0, 77, 78
2, 5388, Note_on_c, 0, 77, 0
2, 5388, Note_on_c, 0, 79, 79
2, 5400, Note_on_c, 0, 79, 0
2, 5400, Note_on_c, 0, 81, 79
2, 5412, Note_on_c, 0, 81, 0
2, 5412, Note_on_c, 0, 83, 79
2, 5424, Note_on_c, 0, 83, 0
2, 5424, Note_on_c, 0, 84, 96
2, 5520, Note_on_c, 0, 84, 0
2, 5520, Note_on_c, 0, 72, 75
2, 5526, Note_on_c, 0, 72, 0
2, 5526, Note_on_c, 0, 71, 75
2, 5532, Note_on_c, 0, 71, 0
2, 5532, Note_on_c, 0, 72, 75
2, 5639, Note_on_c, 0, 72, 0
2, 5640, Note_on_c, 0, 74, 78
2, 5652, Note_on_c, 0, 74, 0
2, 5652, Note_on_c, 0, 76, 78
2, 5664, Note_on_c, 0, 76, 0
2, 5664, Note_on_c, 0, 77, 78
2, 5676, Note_on_c, 0, 77, 0
2, 5676, Note_on_c, 0, 79, 79
2, 5688, Note_on_c, 0, 79, 0
2, 5688, Note_on_c, 0, 81, 79
2, 5700, Note_on_c, 0, 81, 0
2, 5700, Note_on_c, 0, 83, 79
2, 5712, Note_on_c, 0, 83, 0
2, 5712, Note_on_c, 0, 84, 96
2, 5728, Note_on_c, 0, 84, 0
2, 5728, Note_on_c, 0, 79, 70
2, 5743, Note_on_c, 0, 79, 0
2, 5744, Note_on_c, 0, 79, 70
2, 5759, Note_on_c, 0, 79, 0
2, 5760, Note_on_c, 0, 79, 70
2, 5766, Note_on_c, 0, 79, 0
2, 5766, Note_on_c, 0, 81, 70
2, 5772, Note_on_c, 0, 81, 0
2, 5772, Note_on_c, 0, 79, 70
2, 5776, Note_on_c, 0, 79, 0
2, 5776, Note_on_c, 0, 77, 70
2, 5791, Note_on_c, 0, 77, 0
2, 5792, Note_on_c, 0, 77, 70
2, 5807, Note_on_c, 0, 77, 0
2, 5808, Note_on_c, 0, 77, 70
2, 5814, Note_on_c, 0, 77, 0
2, 5814, Note_on_c, 0, 79, 70
2, 5820, Note_on_c, 0, 79, 0
2, 5820, Note_on_c, 0, 77, 70
2, 5824, Note_on_c, 0, 77, 0
2, 5824, Note_on_c, 0, 76, 70
2, 5839, Note_on_c, 0, 76, 0
2, 5840, Note_on_c, 0, 76, 70
2, 5855, Note_on_c, 0, 76, 0
2, 5856, Note_on_c, 0, 76, 70
2, 5872, Note_on_c, 0, 76, 0
2, 5872, Note_on_c, 0, 74, 70
2, 5887, Note_on_c, 0, 74, 0
2, 5888, Note_on_c, 0, 74, 70
2, 5903, Note_on_c, 0, 74, 0
2, 5904, Note_on_c, 0, 74, 70
2, 5910, Note_on_c, 0, 74, 0
2, 5910, Note_on_c, 0, 76, 70
2, 5916, Note_on_c, 0, 76, 0
2, 5916, Note_on_c, 0, 74, 70
2, 5920, Note_on_c, 0, 74, 0
2, 5920, Note_on_c, 0, 72, 70
2, 5935, Note_on_c, 0, 72, 0
2, 5936, Note_on_c, 0, 72, 70
2, 5951, Note_on_c, 0, 72, 0
2, 5952, Note_on_c, 0, 67, 86
2, 5968, Note_on_c, 0, 67, 0
2, 5968, Note_on_c, 0, 64, 70
2, 5983, Note_on_c, 0, 64, 0
2, 5984, Note_on_c, 0, 65, 86
2, 6015, Note_on_c, 0, 65, 0
2, 6016, Note_on_c, 0, 63, 70
2, 6031, Note_on_c, 0, 63, 0
2, 6032, Note_on_c, 0, 64, 86
2, 6063, Note_on_c, 0, 64, 0
2, 6064, Note_on_c, 0, 61, 70
2, 6079, Note_on_c, 0, 61, 0
2, 6080, Note_on_c, 0, 62, 86
2, 6111, Note_on_c, 0, 62, 0
2, 6112, Note_on_c, 0, 59, 70
2, 6127, Note_on_c, 0, 59, 0
2, 6128, Note_on_c, 0, 60, 70
2, 6143, Note_on_c, 0, 60, 0
2, 6144, Note_on_c, 0, 65, 80
2, 6144, Note_on_c, 0, 62, 80
2, 6178, Note_on_c, 0, 65, 0
2, 6178, Note_on_c, 0, 62, 0
2, 6180, Note_on_c, 0, 64, 80
2, 6180, Note_on_c, 0, 60, 80
2, 6192, Note_on_c, 0, 64, 0
2, 6192, Note_on_c, 0, 60, 0
2, 6192, Note_on_c, 0, 69, 80
2, 6192, Note_on_c, 0, 65, 80
2, 6192, Note_on_c, 0, 60, 80
2, 6202, Note_on_c, 0, 69, 0
2, 6202, Note_on_c, 0, 65, 0
2, 6202, Note_on_c, 0, 60, 0
2, 6240, Note_on_c, 0, 59, 80
2, 6240, Note_on_c, 0, 55, 80
2, 6240, Note_on_c, 0, 50, 80
2, 6250, Note_on_c, 0, 59, 0
2, 6250, Note_on_c, 0, 55, 0
2, 6250, Note_on_c, 0, 50, 0
2, 6320, Note_on_c, 0, 84, 80
2, 6327, Note_on_c, 0, 84, 0
2, 6336, Note_on_c, 0, 76, 70
2, 6352, Note_on_c, 0, 76, 0
2, 6352, Note_on_c, 0, 77, 70
2, 6367, Note_on_c, 0, 77, 0
2, 6368, Note_on_c, 0, 81, 70
2, 6375, Note_on_c, 0, 81, 0
2, 6384, Note_on_c, 0, 75, 70
2, 6400, Note_on_c, 0, 75, 0
2, 6400, Note_on_c, 0, 76, 70
2, 6415, Note_on_c, 0, 76, 0
2, 6416, Note_on_c, 0, 79, 70
2, 6423, Note_on_c, 0, 79, 0
2, 6432, Note_on_c, 0, 73, 70
2, 6448, Note_on_c, 0, 73, 0
2, 6448, Note_on_c, 0, 74, 70
2, 6463, Note_on_c, 0, 74, 0
2, 6464, Note_on_c, 0, 77, 70
2, 6471, Note_on_c, 0, 77, 0
2, 6480, Note_on_c, 0, 71, 70
2, 6496, Note_on_c, 0, 71, 0
2, 6496, Note_on_c, 0, 72, 70
2, 6511, Note_on_c, 0, 72, 0
2, 6512, Note_on_c, 0, 76, 70
2, 6519, Note_on_c, 0, 76, 0
2, 6528, Note_on_c, 0, 68, 70
2, 6544, Note_on_c, 0, 68, 0
2, 6544, Note_on_c, 0, 69, 70
2, 6559, Note_on_c, 0, 69, 0
2, 6560, Note_on_c, 0, 64, 71
2, 6575, Note_on_c, 0, 64, 0
2, 6576, Note_on_c, 0, 65, 71
2, 6606, Note_on_c, 0, 65, 0
2, 6608, Note_on_c, 0, 64, 71
2, 6623, Note_on_c, 0, 64, 0
2, 6624, Note_on_c, 0, 65, 71
2, 6654, Note_on_c, 0, 65, 0
2, 6656, Note_on_c, 0, 61, 72
2, 6671, Note_on_c, 0, 61, 0
2, 6672, Note_on_c, 0, 62, 72
2, 6684, Note_on_c, 0, 62, 0
2, 6684, Note_on_c, 0, 64, 72
2, 6696, Note_on_c, 0, 64, 0
2, 6696, Note_on_c, 0, 65, 73
2, 6708, Note_on_c, 0, 65, 0
2, 6708, Note_on_c, 0, 64, 73
2, 6720, Note_on_c, 0, 64, 0
2, 6720, Note_on_c, 0, 62, 73
2, 6732, Note_on_c, 0, 62, 0
2, 6732, Note_on_c, 0, 60, 73
2, 6744, Note_on_c, 0, 60, 0
2, 6744, Note_on_c, 0, 59, 73
2, 6756, Note_on_c, 0, 59, 0
2, 6756, Note_on_c, 0, 57, 74
2, 6768, Note_on_c, 0, 57, 0
2, 6768, Note_on_c, 0, 59, 75
2, 6784, Note_on_c, 0, 59, 0
2, 6784, Note_on_c, 0, 69, 76
2, 6799, Note_on_c, 0, 69, 0
2, 6800, Note_on_c, 0, 72, 77
2, 6815, Note_on_c, 0, 72, 0
2, 6816, Note_on_c, 0, 71, 78
2, 6831, Note_on_c, 0, 71, 0
2, 6832, Note_on_c, 0, 69, 80
2, 6847, Note_on_c, 0, 69, 0
2, 6848, Note_on_c, 0, 67, 78
2, 6863, Note_on_c, 0, 67, 0
2, 6864, Note_on_c, 0, 66, 75
2, 6879, Note_on_c, 0, 66, 0
2, 6880, Note_on_c, 0, 57, 75
2, 6895, Note_on_c, 0, 57, 0
2, 6896, Note_on_c, 0, 60, 76
2, 6911, Note_on_c, 0, 60, 0
2, 6912, Note_on_c, 0, 59, 78
2, 6927, Note_on_c, 0, 59, 0
2, 6928, Note_on_c, 0, 57, 80
2, 6943, Note_on_c, 0, 57, 0
2, 6944, Note_on_c, 0, 55, 79
2, 6959, Note_on_c, 0, 55, 0
2, 6960, Note_on_c, 0, 62, 78
2, 6960, Note_on_c, 0, 57, 78
2, 6960, Note_on_c, 0, 54, 78
2, 6983, Note_on_c, 0, 62, 0
2, 6983, Note_on_c, 0, 57, 0
2, 6983, Note_on_c, 0, 54, 0
2, 7008, Note_on_c, 0, 62, 75
2, 7008, Note_on_c, 0, 57, 75
2, 7008, Note_on_c, 0, 54, 75
2, 7053, Note_on_c, 0, 62, 0
2, 7053, Note_on_c, 0, 57, 0
2, 7053, Note_on_c, 0, 54, 0
2, 7152, Note_on_c, 0, 71, 70
2, 7167, Note_on_c, 0, 71, 0
2, 7168, Note_on_c, 0, 74, 70
2, 7183, Note_on_c, 0, 74, 0
2, 7184, Note_on_c, 0, 79, 70
2, 7199, Note_on_c, 0, 79, 0
2, 7200, Note_on_c, 0, 71, 71
2, 7215, Note_on_c, 0, 71, 0
2, 7216, Note_on_c, 0, 74, 71
2, 7231, Note_on_c, 0, 74, 0
2, 7232, Note_on_c, 0, 79, 72
2, 7247, Note_on_c, 0, 79, 0
2, 7248, Note_on_c, 0, 72, 72
2, 7263, Note_on_c, 0, 72, 0
2, 7264, Note_on_c, 0, 76, 73
2, 7279, Note_on_c, 0, 76, 0
2, 7280, Note_on_c, 0, 79, 73
2, 7295, Note_on_c, 0, 79, 0
2, 7296, Note_on_c, 0, 72, 74
2, 7311, Note_on_c, 0, 72, 0
2, 7312, Note_on_c, 0, 76, 74
2, 7327, Note_on_c, 0, 76, 0
2, 7328, Note_on_c, 0, 79, 74
2, 7343, Note_on_c, 0, 79, 0
2, 7344, Note_on_c, 0, 71, 74
2, 7359, Note_on_c, 0, 71, 0
2, 7360, Note_on_c, 0, 74, 74
2, 7375, Note_on_c, 0, 74, 0
2, 7376, Note_on_c, 0, 79, 73
2, 7391, Note_on_c, 0, 79, 0
2, 7392, Note_on_c, 0, 69, 73
2, 7407, Note_on_c, 0, 69, 0
2, 7408, Note_on_c, 0, 72, 72
2, 7423, Note_on_c, 0, 72, 0
2, 7424, Note_on_c, 0, 81, 72
2, 7439, Note_on_c, 0, 81, 0
2, 7456, Note_on_c, 0, 78, 70
2, 7472, Note_on_c, 0, 78, 0
2, 7472, Note_on_c, 0, 79, 70
2, 7487, Note_on_c, 0, 79, 0
2, 7504, Note_on_c, 0, 79, 70
2, 7520, Note_on_c, 0, 79, 0
2, 7520, Note_on_c, 0, 77, 70
2, 7535, Note_on_c, 0, 77, 0
2, 7536, Note_on_c, 0, 76, 70
2, 7551, Note_on_c, 0, 76, 0
2, 7552, Note_on_c, 0, 84, 70
2, 7568, Note_on_c, 0, 84, 0
2, 7568, Note_on_c, 0, 83, 70
2, 7583, Note_on_c, 0, 83, 0
2, 7600, Note_on_c, 0, 81, 71
2, 7616, Note_on_c, 0, 81, 0
2, 7616, Note_on_c, 0, 79, 72
2, 7631, Note_on_c, 0, 79, 0
2, 7632, Note_on_c, 0, 78, 72
2, 7647, Note_on_c, 0, 78, 0
2, 7648, Note_on_c, 0, 86, 72
2, 7664, Note_on_c, 0, 86, 0
2, 7664, Note_on_c, 0, 84, 73
2, 7679, Note_on_c, 0, 84, 0
2, 7696, Note_on_c, 0, 83, 74
2, 7712, Note_on_c, 0, 83, 0
2, 7712, Note_on_c, 0, 81, 74
2, 7727, Note_on_c, 0, 81, 0
2, 7728, Note_on_c, 0, 79, 75
2, 7743, Note_on_c, 0, 79, 0
2, 7744, Note_on_c, 0, 88, 75
2, 7760, Note_on_c, 0, 88, 0
2, 7760, Note_on_c, 0, 86, 75
2, 7775, Note_on_c, 0, 86, 0
2, 7792, Note_on_c, 0, 84, 76
2, 7808, Note_on_c, 0, 84, 0
2, 7808, Note_on_c, 0, 83, 77
2, 7823, Note_on_c, 0, 83, 0
2, 7824, Note_on_c, 0, 81, 80
2, 7836, Note_on_c, 0, 81, 0
2, 7836, Note_on_c, 0, 83, 80
2, 7848, Note_on_c, 0, 83, 0
2, 7848, Note_on_c, 0, 84, 80
2, 7860, Note_on_c, 0, 84, 0
2, 7860, Note_on_c, 0, 83, 80
2, 7872, Note_on_c, 0, 83, 0
2, 7872, Note_on_c, 0, 81, 80
2, 7884, Note_on_c, 0, 81, 0
2, 7884, Note_on_c, 0, 79, 80
2, 7896, Note_on_c, 0, 79, 0
2, 7896, Note_on_c, 0, 78, 80
2, 7908, Note_on_c, 0, 78, 0
2, 7908, Note_on_c, 0, 76, 80
2, 7920, Note_on_c, 0, 76, 0
2, 7920, Note_on_c, 0, 74, 80
2, 7932, Note_on_c, 0, 74, 0
2, 7932, Note_on_c, 0, 78, 80
2, 7944, Note_on_c, 0, 78, 0
2, 7944, Note_on_c, 0, 81, 80
2, 7956, Note_on_c, 0, 81, 0
2, 7956, Note_on_c, 0, 79, 80
2, 7968, Note_on_c, 0, 79, 0
2, 7968, Note_on_c, 0, 78, 80
2, 7980, Note_on_c, 0, 78, 0
2, 7980, Note_on_c, 0, 76, 80
2, 7992, Note_on_c, 0, 76, 0
2, 7992, Note_on_c, 0, 74, 80
2, 8004, Note_on_c, 0, 74, 0
2, 8004, Note_on_c, 0, 72, 80
2, 8016, Note_on_c, 0, 72, 0
2, 8016, Note_on_c, 0, 79, 80
2, 8028, Note_on_c, 0, 79, 0
2, 8028, Note_on_c, 0, 81, 80
2, 8040, Note_on_c, 0, 81, 0
2, 8040, Note_on_c, 0, 83, 80
2, 8052, Note_on_c, 0, 83, 0
2, 8052, Note_on_c, 0, 81, 80
2, 8064, Note_on_c, 0, 81, 0
2, 8064, Note_on_c, 0, 79, 80
2, 8076, Note_on_c, 0, 79, 0
2, 8076, Note_on_c, 0, 78, 80
2, 8088, Note_on_c, 0, 78, 0
2, 8088, Note_on_c, 0, 76, 80
2, 8100, Note_on_c, 0, 76, 0
2, 8100, Note_on_c, 0, 74, 80
2, 8112, Note_on_c, 0, 74, 0
2, 8112, Note_on_c, 0, 76, 80
2, 8124, Note_on_c, 0, 76, 0
2, 8124, Note_on_c, 0, 78, 80
2, 8136, Note_on_c, 0, 78, 0
2, 8136, Note_on_c, 0, 79, 80
2, 8148, Note_on_c, 0, 79, 0
2, 8148, Note_on_c, 0, 78, 80
2, 8160, Note_on_c, 0, 78, 0
2, 8160, Note_on_c, 0, 76, 80
2, 8172, Note_on_c, 0, 76, 0
2, 8172, Note_on_c, 0, 74, 80
2, 8184, Note_on_c, 0, 74, 0
2, 8184, Note_on_c, 0, 72, 80
2, 8196, Note_on_c, 0, 72, 0
2, 8196, Note_on_c, 0, 71, 80
2, 8208, Note_on_c, 0, 71, 0
2, 8208, Note_on_c, 0, 69, 80
2, 8220, Note_on_c, 0, 69, 0
2, 8220, Note_on_c, 0, 71, 80
2, 8232, Note_on_c, 0, 71, 0
2, 8232, Note_on_c, 0, 72, 80
2, 8244, Note_on_c, 0, 72, 0
2, 8244, Note_on_c, 0, 71, 80
2, 8256, Note_on_c, 0, 71, 0
2, 8256, Note_on_c, 0, 69, 80
2, 8268, Note_on_c, 0, 69, 0
2, 8268, Note_on_c, 0, 67, 80
2, 8280, Note_on_c, 0, 67, 0
2, 8280, Note_on_c, 0, 66, 80
2, 8292, Note_on_c, 0, 66, 0
2, 8292, Note_on_c, 0, 64, 80
2, 8304, Note_on_c, 0, 64, 0
2, 8304, Note_on_c, 0, 66, 96
2, 8352, Note_on_c, 0, 66, 0
2, 8352, Note_on_c, 0, 81, 81
2, 8352, Note_on_c, 0, 78, 81
2, 8372, Note_on_c, 0, 81, 0
2, 8372, Note_on_c, 0, 78, 0
2, 8400, Note_on_c, 0, 67, 82
2, 8406, Note_on_c, 0, 67, 0
2, 8406, Note_on_c, 0, 66, 82
2, 8412, Note_on_c, 0, 66, 0
2, 8412, Note_on_c, 0, 67, 98
2, 8448, Note_on_c, 0, 67, 0
2, 8448, Note_on_c, 0, 83, 83
2, 8448, Note_on_c, 0, 79, 83
2, 8468, Note_on_c, 0, 83, 0
2, 8468, Note_on_c, 0, 79, 0
2, 8496, Note_on_c, 0, 69, 84
2, 8502, Note_on_c, 0, 69, 0
2, 8502, Note_on_c, 0, 67, 84
2, 8508, Note_on_c, 0, 67, 0
2, 8508, Note_on_c, 0, 69, 100
2, 8544, Note_on_c, 0, 69, 0
2, 8544, Note_on_c, 0, 84, 86
2, 8544, Note_on_c, 0, 81, 86
2, 8564, Note_on_c, 0, 84, 0
2, 8564, Note_on_c, 0, 81, 0
2, 8592, Note_on_c, 0, 85, 80
2, 8615, Note_on_c, 0, 85, 0
2, 8616, Note_on_c, 0, 86, 80
2, 8639, Note_on_c, 0, 86, 0
2, 8640, Note_on_c, 0, 88, 80
2, 8663, Note_on_c, 0, 88, 0
2, 8664, Note_on_c, 0, 86, 80
2, 8687, Note_on_c, 0, 86, 0
2, 8688, Note_on_c, 0, 84, 80
2, 8777, Note_on_c, 0, 84, 0
2, 8880, Note_on_c, 0, 69, 80
2, 8880, Note_on_c, 0, 66, 80
2, 8927, Note_on_c, 0, 69, 0
2, 8927, Note_on_c, 0, 66, 0
2, 8928, Note_on_c, 0, 38, 80
2, 8973, Note_on_c, 0, 38, 0
2, 8976, Note_on_c, 0, 70, 80
2, 8976, Note_on_c, 0, 67, 80
2, 9021, Note_on_c, 0, 70, 0
2, 9021, Note_on_c, 0, 67, 0
2, 9024, Note_on_c, 0, 38, 80
2, 9069, Note_on_c, 0, 38, 0
2, 9072, Note_on_c, 0, 72, 80
2, 9072, Note_on_c, 0, 69, 80
2, 9117, Note_on_c, 0, 72, 0
2, 9117, Note_on_c, 0, 69, 0
2, 9120, Note_on_c, 0, 38, 80
2, 9165, Note_on_c, 0, 38, 0
2, 9168, Note_on_c, 0, 75, 80
2, 9168, Note_on_c, 0, 72, 80
2, 9264, Note_on_c, 0, 75, 0
2, 9264, Note_on_c, 0, 72, 0
2, 9264, Note_on_c, 0, 74, 96
2, 9280, Note_on_c, 0, 74, 0
2, 9280, Note_on_c, 0, 79, 79
2, 9295, Note_on_c, 0, 79, 0
2, 9296, Note_on_c, 0, 71, 78
2, 9311, Note_on_c, 0, 71, 0
2, 9312, Note_on_c, 0, 72, 78
2, 9327, Note_on_c, 0, 72, 0
2, 9328, Note_on_c, 0, 76, 77
2, 9343, Note_on_c, 0, 76, 0
2, 9344, Note_on_c, 0, 68, 76
2, 9359, Note_on_c, 0, 68, 0
2, 9360, Note_on_c, 0, 69, 76
2, 9375, Note_on_c, 0, 69, 0
2, 9376, Note_on_c, 0, 71, 75
2, 9391, Note_on_c, 0, 71, 0
2, 9392, Note_on_c, 0, 72, 75
2, 9407, Note_on_c, 0, 72, 0
2, 9408, Note_on_c, 0, 74, 74
2, 9423, Note_on_c, 0, 74, 0
2, 9424, Note_on_c, 0, 72, 73
2, 9439, Note_on_c, 0, 72, 0
2, 9440, Note_on_c, 0, 71, 73
2, 9455, Note_on_c, 0, 71, 0
2, 9456, Note_on_c, 0, 69, 70
2, 9456, Note_on_c, 0, 67, 70
2, 9466, Note_on_c, 0, 69, 0
2, 9466, Note_on_c, 0, 67, 0
2, 9480, Note_on_c, 0, 69, 86
2, 9480, Note_on_c, 0, 67, 86
2, 9528, Note_on_c, 0, 69, 0
2, 9528, Note_on_c, 0, 67, 0
2, 9528, Note_on_c, 0, 69, 70
2, 9528, Note_on_c, 0, 67, 70
2, 9551, Note_on_c, 0, 69, 0
2, 9551, Note_on_c, 0, 67, 0
2, 9552, Note_on_c, 0, 70, 70
2, 9552, Note_on_c, 0, 67, 70
2, 9562, Note_on_c, 0, 70, 0
2, 9562, Note_on_c, 0, 67, 0
2, 9576, Note_on_c, 0, 70, 86
2, 9576, Note_on_c, 0, 67, 86
2, 9624, Note_on_c, 0, 70, 0
2, 9624, Note_on_c, 0, 67, 0
2, 9624, Note_on_c, 0, 70, 70
2, 9624, Note_on_c, 0, 67, 70
2, 9647, Note_on_c, 0, 70, 0
2, 9647, Note_on_c, 0, 67, 0
2, 9648, Note_on_c, 0, 76, 70
2, 9648, Note_on_c, 0, 70, 70
2, 9648, Note_on_c, 0, 67, 70
2, 9658, Note_on_c, 0, 76, 0
2, 9658, Note_on_c, 0, 70, 0
2, 9658, Note_on_c, 0, 67, 0
2, 9672, Note_on_c, 0, 76, 86
2, 9672, Note_on_c, 0, 70, 86
2, 9672, Note_on_c, 0, 67, 86
2, 9720, Note_on_c, 0, 76, 0
2, 9720, Note_on_c, 0, 70, 0
2, 9720, Note_on_c, 0, 67, 0
2, 9720, Note_on_c, 0, 76, 70
2, 9720, Note_on_c, 0, 70, 70
2, 9720, Note_on_c, 0, 67, 70
2, 9743, Note_on_c, 0, 76, 0
2, 9743, Note_on_c, 0, 70, 0
2, 9743, Note_on_c, 0, 67, 0
2, 9744, Note_on_c, 0, 79, 87
2, 9756, Note_on_c, 0, 79, 0
2, 9756, Note_on_c, 0, 81, 87
2, 9768, Note_on_c, 0, 81, 0
2, 9768, Note_on_c, 0, 82, 103
2, 9840, Note_on_c, 0, 82, 0
2, 9888, Note_on_c, 0, 79, 64
2, 9888, Note_on_c, 0, 74, 64
2, 9908, Note_on_c, 0, 79, 0
2, 9908, Note_on_c, 0, 74, 0
2, 9984, Note_on_c, 0, 81, 64
2, 9984, Note_on_c, 0, 78, 64
2, 10029, Note_on_c, 0, 81, 0
2, 10029, Note_on_c, 0, 78, 0
2, 10032, Note_on_c, 0, 79, 64
2, 10032, Note_on_c, 0, 74, 64
2, 10032, Note_on_c, 0, 71, 64
2, 10077, Note_on_c, 0, 79, 0
2, 10077, Note_on_c, 0, 74, 0
2, 10077, Note_on_c, 0, 71, 0
2, 10080, Note_on_c, 0, 47, 58
2, 10080, Note_on_c, 0, 43, 58
2, 10125, Note_on_c, 0, 47, 0
2, 10125, Note_on_c, 0, 43, 0
2, 10128, Note_on_c, 0, 47, 58
2, 10128, Note_on_c, 0, 43, 58
2, 10217, Note_on_c, 0, 47, 0
2, 10217, Note_on_c, 0, 43, 0
2, 10272, Note_on_c, 0, 53, 75
2, 10287, Note_on_c, 0, 53, 0
2, 10288, Note_on_c, 0, 59, 76
2, 10303, Note_on_c, 0, 59, 0
2, 10304, Note_on_c, 0, 62, 77
2, 10319, Note_on_c, 0, 62, 0
2, 10320, Note_on_c, 0, 65, 78
2, 10335, Note_on_c, 0, 65, 0
2, 10336, Note_on_c, 0, 62, 80
2, 10351, Note_on_c, 0, 62, 0
2, 10352, Note_on_c, 0, 59, 78
2, 10367, Note_on_c, 0, 59, 0
2, 10368, Note_on_c, 0, 53, 75
2, 10413, Note_on_c, 0, 53, 0
2, 10416, Note_on_c, 0, 52, 75
2, 10439, Note_on_c, 0, 52, 0
2, 10440, Note_on_c, 0, 51, 75
2, 10463, Note_on_c, 0, 51, 0
2, 10464, Note_on_c, 0, 52, 75
2, 10470, Note_on_c, 0, 52, 0
2, 10470, Note_on_c, 0, 60, 91
2, 10536, Note_on_c, 0, 60, 0
2, 10608, Note_on_c, 0, 88, 91
2, 10656, Note_on_c, 0, 88, 0
2, 10656, Note_on_c, 0, 76, 75
2, 10775, Note_on_c, 0, 76, 0
2, 10776, Note_on_c, 0, 78, 75
2, 10788, Note_on_c, 0, 78, 0
2, 10788, Note_on_c, 0, 79, 76
2, 10800, Note_on_c, 0, 79, 0
2, 10800, Note_on_c, 0, 81, 76
2, 10812, Note_on_c, 0, 81, 0
2, 10812, Note_on_c, 0, 83, 77
2, 10824, Note_on_c, 0, 83, 0
2, 10824, Note_on_c, 0, 85, 77
2, 10836, Note_on_c, 0, 85, 0
2, 10836, Note_on_c, 0, 87, 77
2, 10848, Note_on_c, 0, 87, 0
2, 10848, Note_on_c, 0, 88, 94
2, 10896, Note_on_c, 0, 88, 0
2, 10896, Note_on_c, 0, 40, 80
2, 10985, Note_on_c, 0, 40, 0
2, 10992, Note_on_c, 0, 89, 80
2, 10998, Note_on_c, 0, 89, 0
2, 10998, Note_on_c, 0, 88, 80
2, 11004, Note_on_c, 0, 88, 0
2, 11004, Note_on_c, 0, 87, 80
2, 11010, Note_on_c, 0, 87, 0
2, 11010, Note_on_c, 0, 88, 96
2, 11040, Note_on_c, 0, 88, 0
2, 11040, Note_on_c, 0, 76, 80
2, 11063, Note_on_c, 0, 76, 0
2, 11064, Note_on_c, 0, 78, 80
2, 11076, Note_on_c, 0, 78, 0
2, 11076, Note_on_c, 0, 79, 80
2, 11088, Note_on_c, 0, 79, 0
2, 11088, Note_on_c, 0, 81, 80
2, 11100, Note_on_c, 0, 81, 0
2, 11100, Note_on_c, 0, 83, 80
2, 11112, Note_on_c, 0, 83, 0
2, 11112, Note_on_c, 0, 85, 80
2, 11124, Note_on_c, 0, 85, 0
2, 11124, Note_on_c, 0, 87, 80
2, 11136, Note_on_c, 0, 87, 0
2, 11136, Note_on_c, 0, 88, 96
2, 11184, Note_on_c, 0, 88, 0
2, 11184, Note_on_c, 0, 88, 80
2, 11184, Note_on_c, 0, 76, 80
2, 11273, Note_on_c, 0, 88, 0
2, 11273, Note_on_c, 0, 76, 0
2, 11280, Note_on_c, 0, 88, 84
2, 11280, Note_on_c, 0, 76, 84
2, 11325, Note_on_c, 0, 88, 0
2, 11325, Note_on_c, 0, 76, 0
2, 11328, Note_on_c, 0, 89, 86
2, 11351, Note_on_c, 0, 89, 0
2, 11352, Note_on_c, 0, 88, 85
2, 11375, Note_on_c, 0, 88, 0
2, 11376, Note_on_c, 0, 87, 84
2, 11399, Note_on_c, 0, 87, 0
2, 11400, Note_on_c, 0, 88, 83
2, 11423, Note_on_c, 0, 88, 0
2, 11424, Note_on_c, 0, 87, 82
2, 11469, Note_on_c, 0, 87, 0
2, 11616, Note_on_c, 0, 72, 70
2, 11616, Note_on_c, 0, 67, 70
2, 11616, Note_on_c, 0, 64, 70
2, 11705, Note_on_c, 0, 72, 0
2, 11705, Note_on_c, 0, 67, 0
2, 11705, Note_on_c, 0, 64, 0
2, 11796, Note_on_c, 0, 75, 70
2, 11808, Note_on_c, 0, 75, 0
2, 11808, Note_on_c, 0, 76, 86
2, 11808, Note_on_c, 0, 71, 86
2, 11808, Note_on_c, 0, 67, 86
2, 11880, Note_on_c, 0, 76, 0
2, 11880, Note_on_c, 0, 71, 0
2, 11880, Note_on_c, 0, 67, 0
2, 11892, Note_on_c, 0, 76, 71
2, 11904, Note_on_c, 0, 76, 0
2, 11904, Note_on_c, 0, 78, 87
2, 11904, Note_on_c, 0, 72, 87
2, 11904, Note_on_c, 0, 69, 87
2, 11976, Note_on_c, 0, 78, 0
2, 11976, Note_on_c, 0, 72, 0
2, 11976, Note_on_c, 0, 69, 0
2, 11988, Note_on_c, 0, 78, 73
2, 12000, Note_on_c, 0, 78, 0
2, 12000, Note_on_c, 0, 79, 89
2, 12000, Note_on_c, 0, 76, 89
2, 12000, Note_on_c, 0, 71, 89
2, 12072, Note_on_c, 0, 79, 0
2, 12072, Note_on_c, 0, 76, 0
2, 12072, Note_on_c, 0, 71, 0
2, 12084, Note_on_c, 0, 79, 75
2, 12096, Note_on_c, 0, 79, 0
2, 12096, Note_on_c, 0, 77, 91
2, 12096, Note_on_c, 0, 72, 91
2, 12096, Note_on_c, 0, 69, 91
2, 12168, Note_on_c, 0, 77, 0
2, 12168, Note_on_c, 0, 72, 0
2, 12168, Note_on_c, 0, 69, 0
2, 12180, Note_on_c, 0, 77, 75
2, 12192, Note_on_c, 0, 77, 0
2, 12192, Note_on_c, 0, 75, 91
2, 12192, Note_on_c, 0, 71, 91
2, 12192, Note_on_c, 0, 69, 91
2, 12264, Note_on_c, 0, 75, 0
2, 12264, Note_on_c, 0, 71, 0
2, 12264, Note_on_c, 0, 69, 0
2, 12276, Note_on_c, 0, 75, 75
2, 12288, Note_on_c, 0, 75, 0
2, 12288, Note_on_c, 0, 76, 91
2, 12288, Note_on_c, 0, 71, 91
2, 12288, Note_on_c, 0, 67, 91
2, 12360, Note_on_c, 0, 76, 0
2, 12360, Note_on_c, 0, 71, 0
2, 12360, Note_on_c, 0, 67, 0
2, 12372, Note_on_c, 0, 76, 75
2, 12384, Note_on_c, 0, 76, 0
2, 12384, Note_on_c, 0, 75, 91
2, 12384, Note_on_c, 0, 70, 91
2, 12384, Note_on_c, 0, 67, 91
2, 12456, Note_on_c, 0, 75, 0
2, 12456, Note_on_c, 0, 70, 0
2, 12456, Note_on_c, 0, 67, 0
2, 12468, Note_on_c, 0, 75, 75
2, 12480, Note_on_c, 0, 75, 0
2, 12480, Note_on_c, 0, 75, 91
2, 12480, Note_on_c, 0, 68, 91
2, 12480, Note_on_c, 0, 65, 91
2, 12504, Note_on_c, 0, 75, 0
2, 12504, Note_on_c, 0, 74, 74
2, 12538, Note_on_c, 0, 74, 0
2, 12538, Note_on_c, 0, 68, 0
2, 12538, Note_on_c, 0, 65, 0
2, 12564, Note_on_c, 0, 74, 73
2, 12576, Note_on_c, 0, 74, 0
2, 12576, Note_on_c, 0, 74, 73
2, 12576, Note_on_c, 0, 70, 73
2, 12576, Note_on_c, 0, 67, 73
2, 12600, Note_on_c, 0, 74, 0
2, 12600, Note_on_c, 0, 73, 72
2, 12634, Note_on_c, 0, 73, 0
2, 12634, Note_on_c, 0, 70, 0
2, 12634, Note_on_c, 0, 67, 0
2, 12660, Note_on_c, 0, 73, 71
2, 12672, Note_on_c, 0, 73, 0
2, 12672, Note_on_c, 0, 74, 87
2, 12672, Note_on_c, 0, 69, 87
2, 12672, Note_on_c, 0, 66, 87
2, 12744, Note_on_c, 0, 74, 0
2, 12744, Note_on_c, 0, 69, 0
2, 12744, Note_on_c, 0, 66, 0
2, 12756, Note_on_c, 0, 69, 69
2, 12768, Note_on_c, 0, 69, 0
2, 12768, Note_on_c, 0, 70, 85
2, 12768, Note_on_c, 0, 67, 85
2, 12768, Note_on_c, 0, 64, 85
2, 12840, Note_on_c, 0, 70, 0
2, 12840, Note_on_c, 0, 67, 0
2, 12840, Note_on_c, 0, 64, 0
2, 12852, Note_on_c, 0, 70, 67
2, 12864, Note_on_c, 0, 70, 0
2, 12864, Note_on_c, 0, 69, 83
2, 12864, Note_on_c, 0, 67, 83
2, 12864, Note_on_c, 0, 64, 83
2, 12936, Note_on_c, 0, 69, 0
2, 12936, Note_on_c, 0, 67, 0
2, 12936, Note_on_c, 0, 64, 0
2, 12948, Note_on_c, 0, 69, 65
2, 12960, Note_on_c, 0, 69, 0
2, 12960, Note_on_c, 0, 68, 65
2, 12960, Note_on_c, 0, 62, 65
2, 12960, Note_on_c, 0, 59, 65
2, 13008, Note_on_c, 0, 68, 0
2, 13008, Note_on_c, 0, 62, 0
2, 13008, Note_on_c, 0, 59, 0
2, 13008, Note_on_c, 0, 86, 97
2, 13056, Note_on_c, 0, 86, 0
2, 13056, Note_on_c, 0, 84, 64
2, 13079, Note_on_c, 0, 84, 0
2, 13080, Note_on_c, 0, 83, 64
2, 13088, Note_on_c, 0, 83, 0
2, 13088, Note_on_c, 0, 82, 64
2, 13096, Note_on_c, 0, 82, 0
2, 13096, Note_on_c, 0, 81, 64
2, 13104, Note_on_c, 0, 81, 0
2, 13104, Note_on_c, 0, 80, 64
2, 13138, Note_on_c, 0, 80, 0
2, 13152, Control_c, 0, 64, 127
2, 13152, Note_on_c, 0, 53, 75
2, 13167, Note_on_c, 0, 53, 0
2, 13168, Note_on_c, 0, 59, 76
2, 13183, Note_on_c, 0, 59, 0
2, 13184, Note_on_c, 0, 62, 77
2, 13199, Note_on_c, 0, 62, 0
2, 13200, Note_on_c, 0, 65, 78
2, 13215, Note_on_c, 0, 65, 0
2, 13216, Note_on_c, 0, 62, 80
2, 13231, Note_on_c, 0, 62, 0
2, 13232, Note_on_c, 0, 59, 78
2, 13247, Note_on_c, 0, 59, 0
2, 13248, Note_on_c, 0, 53, 75
2, 13258, Note_on_c, 0, 53, 0
2, 13272, Note_on_c, 0, 59, 91
2, 13320, Note_on_c, 0, 59, 0
2, 13320, Note_on_c, 0, 62, 92
2, 13320, Note_on_c, 0, 59, 92
2, 13368, Note_on_c, 0, 62, 0
2, 13368, Note_on_c, 0, 59, 0
2, 13368, Note_on_c, 0, 65, 94
2, 13368, Note_on_c, 0, 62, 94
2, 13416, Note_on_c, 0, 65, 0
2, 13416, Note_on_c, 0, 62, 0
2, 13416, Control_c, 0, 64, 0
2, 13416, Note_on_c, 0, 68, 79
2, 13416, Note_on_c, 0, 65, 79
2, 13439, Note_on_c, 0, 68, 0
2, 13439, Note_on_c, 0, 65, 0
2, 13440, Note_on_c, 0, 67, 80
2, 13440, Note_on_c, 0, 64, 80
2, 13463, Note_on_c, 0, 67, 0
2, 13463, Note_on_c, 0, 64, 0
2, 13464, Note_on_c, 0, 72, 78
2, 13487, Note_on_c, 0, 72, 0
2, 13488, Note_on_c, 0, 60, 93
2, 13536, Note_on_c, 0, 60, 0
2, 13536, Note_on_c, 0, 60, 75
2, 13542, Note_on_c, 0, 60, 0
2, 13542, Note_on_c, 0, 59, 75
2, 13548, Note_on_c, 0, 59, 0
2, 13548, Note_on_c, 0, 60, 75
2, 13655, Note_on_c, 0, 60, 0
2, 13656, Note_on_c, 0, 62, 78
2, 13668, Note_on_c, 0, 62, 0
2, 13668, Note_on_c, 0, 64, 78
2, 13680, Note_on_c, 0, 64, 0
2, 13680, Note_on_c, 0, 65, 78
2, 13692, Note_on_c, 0, 65, 0
2, 13692, Note_on_c, 0, 67, 79
2, 13704, Note_on_c, 0, 67, 0
2, 13704, Note_on_c, 0, 69, 79
2, 13716, Note_on_c, 0, 69, 0
2, 13716, Note_on_c, 0, 71, 79
2, 13728, Note_on_c, 0, 71, 0
2, 13728, Note_on_c, 0, 72, 80
2, 13773, Note_on_c, 0, 72, 0
2, 13776, Note_on_c, 0, 70, 75
2, 13776, Note_on_c, 0, 67, 75
2, 13776, Note_on_c, 0, 60, 75
2, 13824, Note_on_c, 0, 70, 0
2, 13824, Note_on_c, 0, 67, 0
2, 13824, Note_on_c, 0, 69, 75
2, 13824, Note_on_c, 0, 65, 75
2, 13869, Note_on_c, 0, 69, 0
2, 13869, Note_on_c, 0, 65, 0
2, 13869, Note_on_c, 0, 60, 0
2, 13872, Note_on_c, 0, 72, 76
2, 13872, Note_on_c, 0, 69, 76
2, 13872, Note_on_c, 0, 62, 76
2, 13920, Note_on_c, 0, 72, 0
2, 13920, Note_on_c, 0, 69, 0
2, 13920, Note_on_c, 0, 71, 77
2, 13920, Note_on_c, 0, 67, 77
2, 13965, Note_on_c, 0, 71, 0
2, 13965, Note_on_c, 0, 67, 0
2, 13965, Note_on_c, 0, 62, 0
2, 13968, Note_on_c, 0, 77, 77
2, 13968, Note_on_c, 0, 74, 77
2, 13968, Note_on_c, 0, 67, 77
2, 14016, Note_on_c, 0, 77, 0
2, 14016, Note_on_c, 0, 74, 0
2, 14016, Note_on_c, 0, 76, 78
2, 14016, Note_on_c, 0, 72, 78
2, 14061, Note_on_c, 0, 76, 0
2, 14061, Note_on_c, 0, 72, 0
2, 14061, Note_on_c, 0, 67, 0
2, 14064, Note_on_c, 0, 82, 79
2, 14064, Note_on_c, 0, 79, 79
2, 14064, Note_on_c, 0, 72, 79
2, 14112, Note_on_c, 0, 82, 0
2, 14112, Note_on_c, 0, 79, 0
2, 14112, Note_on_c, 0, 72, 0
2, 14112, Note_on_c, 0, 80, 80
2, 14112, Note_on_c, 0, 77, 80
2, 14157, Note_on_c, 0, 80, 0
2, 14157, Note_on_c, 0, 77, 0
2, 14160, Note_on_c, 0, 80, 76
2, 14160, Note_on_c, 0, 77, 76
2, 14205, Note_on_c, 0, 80, 0
2, 14205, Note_on_c, 0, 77, 0
2, 14208, Note_on_c, 0, 80, 72
2, 14208, Note_on_c, 0, 77, 72
2, 14253, Note_on_c, 0, 80, 0
2, 14253, Note_on_c, 0, 77, 0
2, 14256, Note_on_c, 0, 80, 68
2, 14256, Note_on_c, 0, 77, 68
2, 14301, Note_on_c, 0, 80, 0
2, 14301, Note_on_c, 0, 77, 0
2, 14304, Note_on_c, 0, 79, 80
2, 14304, Note_on_c, 0, 77, 80
2, 14320, Note_on_c, 0, 79, 0
2, 14320, Note_on_c, 0, 77, 0
2, 14320, Note_on_c, 0, 74, 64
2, 14335, Note_on_c, 0, 74, 0
2, 14336, Note_on_c, 0, 77, 64
2, 14351, Note_on_c, 0, 77, 0
2, 14352, Note_on_c, 0, 75, 64
2, 14367, Note_on_c, 0, 75, 0
2, 14368, Note_on_c, 0, 74, 64
2, 14383, Note_on_c, 0, 74, 0
2, 14384, Note_on_c, 0, 72, 64
2, 14399, Note_on_c, 0, 72, 0
2, 14400, Note_on_c, 0, 79, 64
2, 14415, Note_on_c, 0, 79, 0
2, 14416, Note_on_c, 0, 62, 70
2, 14431, Note_on_c, 0, 62, 0
2, 14432, Note_on_c, 0, 65, 70
2, 14447, Note_on_c, 0, 65, 0
2, 14448, Note_on_c, 0, 63, 70
2, 14463, Note_on_c, 0, 63, 0
2, 14464, Note_on_c, 0, 62, 70
2, 14479, Note_on_c, 0, 62, 0
2, 14480, Note_on_c, 0, 60, 70
2, 14495, Note_on_c, 0, 60, 0
2, 14496, Note_on_c, 0, 67, 70
2, 14541, Note_on_c, 0, 67, 0
2, 14592, Note_on_c, 0, 76, 70
2, 14607, Note_on_c, 0, 76, 0
2, 14608, Note_on_c, 0, 79, 70
2, 14623, Note_on_c, 0, 79, 0
2, 14624, Note_on_c, 0, 84, 70
2, 14639, Note_on_c, 0, 84, 0
2, 14640, Note_on_c, 0, 76, 70
2, 14655, Note_on_c, 0, 76, 0
2, 14656, Note_on_c, 0, 79, 71
2, 14671, Note_on_c, 0, 79, 0
2, 14672, Note_on_c, 0, 84, 71
2, 14687, Note_on_c, 0, 84, 0
2, 14688, Note_on_c, 0, 77, 72
2, 14703, Note_on_c, 0, 77, 0
2, 14704, Note_on_c, 0, 81, 72
2, 14719, Note_on_c, 0, 81, 0
2, 14720, Note_on_c, 0, 84, 73
2, 14735, Note_on_c, 0, 84, 0
2, 14736, Note_on_c, 0, 77, 73
2, 14751, Note_on_c, 0, 77, 0
2, 14752, Note_on_c, 0, 81, 74
2, 14767, Note_on_c, 0, 81, 0
2, 14768, Note_on_c, 0, 84, 74
2, 14783, Note_on_c, 0, 84, 0
2, 14784, Note_on_c, 0, 76, 75
2, 14799, Note_on_c, 0, 76, 0
2, 14800, Note_on_c, 0, 79, 74
2, 14815, Note_on_c, 0, 79, 0
2, 14816, Note_on_c, 0, 84, 74
2, 14831, Note_on_c, 0, 84, 0
2, 14832, Note_on_c, 0, 74, 73
2, 14847, Note_on_c, 0, 74, 0
2, 14848, Note_on_c, 0, 77, 73
2, 14863, Note_on_c, 0, 77, 0
2, 14864, Note_on_c, 0, 86, 72
2, 14879, Note_on_c, 0, 86, 0
2, 14896, Note_on_c, 0, 83, 70
2, 14912, Note_on_c, 0, 83, 0
2, 14912, Note_on_c, 0, 84, 70
2, 14927, Note_on_c, 0, 84, 0
2, 14944, Note_on_c, 0, 72, 70
2, 14960, Note_on_c, 0, 72, 0
2, 14960, Note_on_c, 0, 70, 70
2, 14975, Note_on_c, 0, 70, 0
2, 14976, Note_on_c, 0, 69, 70
2, 14991, Note_on_c, 0, 69, 0
2, 14992, Note_on_c, 0, 77, 70
2, 15008, Note_on_c, 0, 77, 0
2, 15008, Note_on_c, 0, 76, 70
2, 15023, Note_on_c, 0, 76, 0
2, 15040, Note_on_c, 0, 74, 71
2, 15056, Note_on_c, 0, 74, 0
2, 15056, Note_on_c, 0, 72, 71
2, 15071, Note_on_c, 0, 72, 0
2, 15072, Note_on_c, 0, 71, 71
2, 15087, Note_on_c, 0, 71, 0
2, 15088, Note_on_c, 0, 79, 71
2, 15104, Note_on_c, 0, 79, 0
2, 15104, Note_on_c, 0, 77, 71
2, 15119, Note_on_c, 0, 77, 0
2, 15136, Note_on_c, 0, 76, 72
2, 15152, Note_on_c, 0, 76, 0
2, 15152, Note_on_c, 0, 74, 72
2, 15167, Note_on_c, 0, 74, 0
2, 15168, Note_on_c, 0, 72, 72
2, 15183, Note_on_c, 0, 72, 0
2, 15184, Note_on_c, 0, 81, 72
2, 15199, Note_on_c, 0, 81, 0
2, 15200, Note_on_c, 0, 79, 72
2, 15215, Note_on_c, 0, 79, 0
2, 15232, Note_on_c, 0, 77, 73
2, 15248, Note_on_c, 0, 77, 0
2, 15248, Note_on_c, 0, 76, 73
2, 15263, Note_on_c, 0, 76, 0
2, 15264, Note_on_c, 0, 74, 73
2, 15276, Note_on_c, 0, 74, 0
2, 15276, Note_on_c, 0, 84, 75
2, 15288, Note_on_c, 0, 84, 0
2, 15288, Note_on_c, 0, 83, 75
2, 15300, Note_on_c, 0, 83, 0
2, 15300, Note_on_c, 0, 81, 75
2, 15312, Note_on_c, 0, 81, 0
2, 15312, Note_on_c, 0, 79, 75
2, 15324, Note_on_c, 0, 79, 0
2, 15324, Note_on_c, 0, 77, 75
2, 15336, Note_on_c, 0, 77, 0
2, 15336, Note_on_c, 0, 76, 75
2, 15348, Note_on_c, 0, 76, 0
2, 15348, Note_on_c, 0, 74, 75
2, 15360, Note_on_c, 0, 74, 0
2, 15360, Note_on_c, 0, 72, 75
2, 15372, Note_on_c, 0, 72, 0
2, 15372, Note_on_c, 0, 71, 75
2, 15384, Note_on_c, 0, 71, 0
2, 15384, Note_on_c, 0, 69, 75
2, 15396, Note_on_c, 0, 69, 0
2, 15396, Note_on_c, 0, 67, 75
2, 15408, Note_on_c, 0, 67, 0
2, 15408, Note_on_c, 0, 65, 75
2, 15420, Note_on_c, 0, 65, 0
2, 15420, Note_on_c, 0, 64, 75
2, 15432, Note_on_c, 0, 64, 0
2, 15432, Note_on_c, 0, 62, 75
2, 15444, Note_on_c, 0, 62, 0
2, 15444, Note_on_c, 0, 60, 75
2, 15456, Note_on_c, 0, 60, 0
2, 15456, Note_on_c, 0, 59, 91
2, 15504, Note_on_c, 0, 59, 0
2, 15504, Note_on_c, 0, 74, 75
2, 15504, Note_on_c, 0, 71, 75
2, 15524, Note_on_c, 0, 74, 0
2, 15524, Note_on_c, 0, 71, 0
2, 15552, Note_on_c, 0, 60, 76
2, 15558, Note_on_c, 0, 60, 0
2, 15558, Note_on_c, 0, 62, 76
2, 15564, Note_on_c, 0, 62, 0
2, 15564, Note_on_c, 0, 60, 92
2, 15600, Note_on_c, 0, 60, 0
2, 15600, Note_on_c, 0, 76, 77
2, 15600, Note_on_c, 0, 72, 77
2, 15620, Note_on_c, 0, 76, 0
2, 15620, Note_on_c, 0, 72, 0
2, 15648, Note_on_c, 0, 62, 78
2, 15654, Note_on_c, 0, 62, 0
2, 15654, Note_on_c, 0, 64, 78
2, 15660, Note_on_c, 0, 64, 0
2, 15660, Note_on_c, 0, 62, 94
2, 15696, Note_on_c, 0, 62, 0
2, 15696, Note_on_c, 0, 77, 79
2, 15696, Note_on_c, 0, 74, 79
2, 15716, Note_on_c, 0, 77, 0
2, 15716, Note_on_c, 0, 74, 0
2, 15744, Note_on_c, 0, 78, 96
2, 15768, Note_on_c, 0, 78, 0
2, 15768, Note_on_c, 0, 79, 79
2, 15791, Note_on_c, 0, 79, 0
2, 15792, Note_on_c, 0, 81, 78
2, 15815, Note_on_c, 0, 81, 0
2, 15816, Note_on_c, 0, 79, 78
2, 15839, Note_on_c, 0, 79, 0
2, 15840, Note_on_c, 0, 77, 77
2, 15929, Note_on_c, 0, 77, 0
2, 16080, Note_on_c, 0, 72, 91
2, 16112, Note_on_c, 0, 72, 0
2, 16112, Note_on_c, 0, 64, 75
2, 16127, Note_on_c, 0, 64, 0
2, 16128, Note_on_c, 0, 65, 75
2, 16143, Note_on_c, 0, 65, 0
2, 16144, Note_on_c, 0, 69, 75
2, 16159, Note_on_c, 0, 69, 0
2, 16160, Note_on_c, 0, 64, 75
2, 16175, Note_on_c, 0, 64, 0
2, 16176, Note_on_c, 0, 65, 75
2, 16191, Note_on_c, 0, 65, 0
2, 16192, Note_on_c, 0, 69, 75
2, 16207, Note_on_c, 0, 69, 0
2, 16208, Note_on_c, 0, 61, 75
2, 16223, Note_on_c, 0, 61, 0
2, 16224, Note_on_c, 0, 62, 75
2, 16239, Note_on_c, 0, 62, 0
2, 16240, Note_on_c, 0, 64, 75
2, 16255, Note_on_c, 0, 64, 0
2, 16256, Note_on_c, 0, 65, 75
2, 16271, Note_on_c, 0, 65, 0
2, 16272, Note_on_c, 0, 67, 75
2, 16287, Note_on_c, 0, 67, 0
2, 16288, Note_on_c, 0, 65, 75
2, 16303, Note_on_c, 0, 65, 0
2, 16304, Note_on_c, 0, 64, 75
2, 16319, Note_on_c, 0, 64, 0
2, 16320, Note_on_c, 0, 62, 75
2, 16320, Note_on_c, 0, 60, 75
2, 16330, Note_on_c, 0, 62, 0
2, 16330, Note_on_c, 0, 60, 0
2, 16344, Note_on_c, 0, 62, 86
2, 16344, Note_on_c, 0, 60, 86
2, 16392, Note_on_c, 0, 62, 0
2, 16392, Note_on_c, 0, 60, 0
2, 16392, Note_on_c, 0, 62, 70
2, 16392, Note_on_c, 0, 60, 70
2, 16415, Note_on_c, 0, 62, 0
2, 16415, Note_on_c, 0, 60, 0
2, 16416, Note_on_c, 0, 63, 70
2, 16416, Note_on_c, 0, 60, 70
2, 16426, Note_on_c, 0, 63, 0
2, 16426, Note_on_c, 0, 60, 0
2, 16440, Note_on_c, 0, 63, 86
2, 16440, Note_on_c, 0, 60, 86
2, 16488, Note_on_c, 0, 63, 0
2, 16488, Note_on_c, 0, 60, 0
2, 16488, Note_on_c, 0, 63, 70
2, 16488, Note_on_c, 0, 60, 70
2, 16511, Note_on_c, 0, 63, 0
2, 16511, Note_on_c, 0, 60, 0
2, 16512, Note_on_c, 0, 69, 70
2, 16512, Note_on_c, 0, 63, 70
2, 16512, Note_on_c, 0, 60, 70
2, 16522, Note_on_c, 0, 69, 0
2, 16522, Note_on_c, 0, 63, 0
2, 16522, Note_on_c, 0, 60, 0
2, 16536, Note_on_c, 0, 69, 86
2, 16536, Note_on_c, 0, 63, 86
2, 16536, Note_on_c, 0, 60, 86
2, 16584, Note_on_c, 0, 69, 0
2, 16584, Note_on_c, 0, 63, 0
2, 16584, Note_on_c, 0, 60, 0
2, 16584, Note_on_c, 0, 69, 70
2, 16584, Note_on_c, 0, 63, 70
2, 16584, Note_on_c, 0, 60, 70
2, 16607, Note_on_c, 0, 69, 0
2, 16607, Note_on_c, 0, 63, 0
2, 16607, Note_on_c, 0, 60, 0
2, 16608, Note_on_c, 0, 84, 70
2, 16620, Note_on_c, 0, 84, 0
2, 16620, Note_on_c, 0, 86, 70
2, 16632, Note_on_c, 0, 86, 0
2, 16632, Note_on_c, 0, 87, 86
2, 16704, Note_on_c, 0, 87, 0
2, 16752, Note_on_c, 0, 72, 64
2, 16752, Note_on_c, 0, 67, 64
2, 16752, Note_on_c, 0, 64, 64
2, 16772, Note_on_c, 0, 72, 0
2, 16772, Note_on_c, 0, 67, 0
2, 16772, Note_on_c, 0, 64, 0
2, 16848, Note_on_c, 0, 74, 64
2, 16848, Note_on_c, 0, 71, 64
2, 16848, Note_on_c, 0, 65, 64
2, 16893, Note_on_c, 0, 74, 0
2, 16893, Note_on_c, 0, 71, 0
2, 16893, Note_on_c, 0, 65, 0
2, 16896, Note_on_c, 0, 72, 64
2, 16896, Note_on_c, 0, 67, 64
2, 16896, Note_on_c, 0, 64, 64
2, 16941, Note_on_c, 0, 72, 0
2, 16941, Note_on_c, 0, 67, 0
2, 16941, Note_on_c, 0, 64, 0
2, 16944, Note_on_c, 0, 40, 58
2, 16944, Note_on_c, 0, 36, 58
2, 16989, Note_on_c, 0, 40, 0
2, 16989, Note_on_c, 0, 36, 0
2, 16992, Note_on_c, 0, 40, 58
2, 16992, Note_on_c, 0, 36, 58
2, 17081, Note_on_c, 0, 40, 0
2, 17081, Note_on_c, 0, 36, 0
2, 17136, Note_on_c, 0, 53, 75
2, 17151, Note_on_c, 0, 53, 0
2, 17152, Note_on_c, 0, 59, 76
2, 17167, Note_on_c, 0, 59, 0
2, 17168, Note_on_c, 0, 62, 77
2, 17183, Note_on_c, 0, 62, 0
2, 17184, Note_on_c, 0, 65, 78
2, 17199, Note_on_c, 0, 65, 0
2, 17200, Note_on_c, 0, 62, 80
2, 17215, Note_on_c, 0, 62, 0
2, 17216, Note_on_c, 0, 59, 78
2, 17231, Note_on_c, 0, 59, 0
2, 17232, Note_on_c, 0, 53, 75
2, 17277, Note_on_c, 0, 53, 0
2, 17280, Note_on_c, 0, 52, 75
2, 17303, Note_on_c, 0, 52, 0
2, 17304, Note_on_c, 0, 51, 75
2, 17327, Note_on_c, 0, 51, 0
2, 17328, Note_on_c, 0, 52, 75
2, 17334, Note_on_c, 0, 52, 0
2, 17334, Note_on_c, 0, 60, 91
2, 17400, Note_on_c, 0, 60, 0
2, 17472, Note_on_c, 0, 88, 91
2, 17520, Note_on_c, 0, 88, 0
2, 17520, Note_on_c, 0, 76, 75
2, 17639, Note_on_c, 0, 76, 0
2, 17640, Note_on_c, 0, 78, 75
2, 17652, Note_on_c, 0, 78, 0
2, 17652, Note_on_c, 0, 79, 76
2, 17664, Note_on_c, 0, 79, 0
2, 17664, Note_on_c, 0, 81, 76
2, 17676, Note_on_c, 0, 81, 0
2, 17676, Note_on_c, 0, 83, 77
2, 17688, Note_on_c, 0, 83, 0
2, 17688, Note_on_c, 0, 85, 77
2, 17700, Note_on_c, 0, 85, 0
2, 17700, Note_on_c, 0, 87, 77
2, 17712, Note_on_c, 0, 87, 0
2, 17712, Note_on_c, 0, 88, 94
2, 17760, Note_on_c, 0, 88, 0
2, 17760, Note_on_c, 0, 40, 80
2, 17849, Note_on_c, 0, 40, 0
2, 17856, Note_on_c, 0, 89, 80
2, 17862, Note_on_c, 0, 89, 0
2, 17862, Note_on_c, 0, 88, 80
2, 17868, Note_on_c, 0, 88, 0
2, 17868, Note_on_c, 0, 87, 80
2, 17874, Note_on_c, 0, 87, 0
2, 17874, Note_on_c, 0, 88, 96
2, 17904, Note_on_c, 0, 88, 0
2, 17904, Note_on_c, 0, 76, 80
2, 17927, Note_on_c, 0, 76, 0
2, 17928, Note_on_c, 0, 78, 80
2, 17940, Note_on_c, 0, 78, 0
2, 17940, Note_on_c, 0, 79, 80
2, 17952, Note_on_c, 0, 79, 0
2, 17952, Note_on_c, 0, 81, 80
2, 17964, Note_on_c, 0, 81, 0
2, 17964, Note_on_c, 0, 83, 80
2, 17976, Note_on_c, 0, 83, 0
2, 17976, Note_on_c, 0, 85, 80
2, 17988, Note_on_c, 0, 85, 0
2, 17988, Note_on_c, 0, 87, 80
2, 18000, Note_on_c, 0, 87, 0
2, 18000, Note_on_c, 0, 88, 96
2, 18048, Note_on_c, 0, 88, 0
2, 18048, Note_on_c, 0, 88, 80
2, 18048, Note_on_c, 0, 76, 80
2, 18137, Note_on_c, 0, 88, 0
2, 18137, Note_on_c, 0, 76, 0
2, 18144, Note_on_c, 0, 88, 84
2, 18144, Note_on_c, 0, 76, 84
2, 18189, Note_on_c, 0, 88, 0
2, 18189, Note_on_c, 0, 76, 0
2, 18192, Note_on_c, 0, 89, 86
2, 18215, Note_on_c, 0, 89, 0
2, 18216, Note_on_c, 0, 88, 85
2, 18239, Note_on_c, 0, 88, 0
2, 18240, Note_on_c, 0, 87, 84
2, 18263, Note_on_c, 0, 87, 0
2, 18264, Note_on_c, 0, 88, 83
2, 18287, Note_on_c, 0, 88, 0
2, 18288, Note_on_c, 0, 87, 82
2, 18333, Note_on_c, 0, 87, 0
2, 18480, Note_on_c, 0, 72, 70
2, 18480, Note_on_c, 0, 67, 70
2, 18480, Note_on_c, 0, 64, 70
2, 18569, Note_on_c, 0, 72, 0
2, 18569, Note_on_c, 0, 67, 0
2, 18569, Note_on_c, 0, 64, 0
2, 18660, Note_on_c, 0, 75, 70
2, 18672, Note_on_c, 0, 75, 0
2, 18672, Note_on_c, 0, 76, 86
2, 18672, Note_on_c, 0, 71, 86
2, 18672, Note_on_c, 0, 67, 86
2, 18744, Note_on_c, 0, 76, 0
2, 18744, Note_on_c, 0, 71, 0
2, 18744, Note_on_c, 0, 67, 0
2, 18756, Note_on_c, 0, 76, 71
2, 18768, Note_on_c, 0, 76, 0
2, 18768, Note_on_c, 0, 78, 87
2, 18768, Note_on_c, 0, 72, 87
2, 18768, Note_on_c, 0, 69, 87
2, 18840, Note_on_c, 0, 78, 0
2, 18840, Note_on_c, 0, 72, 0
2, 18840, Note_on_c, 0, 69, 0
2, 18852, Note_on_c, 0, 78, 73
2, 18864, Note_on_c, 0, 78, 0
2, 18864, Note_on_c, 0, 79, 89
2, 18864, Note_on_c, 0, 76, 89
2, 18864, Note_on_c, 0, 71, 89
2, 18936, Note_on_c, 0, 79, 0
2, 18936, Note_on_c, 0, 76, 0
2, 18936, Note_on_c, 0, 71, 0
2, 18948, Note_on_c, 0, 79, 75
2, 18960, Note_on_c, 0, 79, 0
2, 18960, Note_on_c, 0, 77, 91
2, 18960, Note_on_c, 0, 72, 91
2, 18960, Note_on_c, 0, 69, 91
2, 19032, Note_on_c, 0, 77, 0
2, 19032, Note_on_c, 0, 72, 0
2, 19032, Note_on_c, 0, 69, 0
2, 19044, Note_on_c, 0, 77, 75
2, 19056, Note_on_c, 0, 77, 0
2, 19056, Note_on_c, 0, 75, 91
2, 19056, Note_on_c, 0, 71, 91
2, 19056, Note_on_c, 0, 69, 91
2, 19128, Note_on_c, 0, 75, 0
2, 19128, Note_on_c, 0, 71, 0
2, 19128, Note_on_c, 0, 69, 0
2, 19140, Note_on_c, 0, 75, 75
2, 19152, Note_on_c, 0, 75, 0
2, 19152, Note_on_c, 0, 76, 91
2, 19152, Note_on_c, 0, 71, 91
2, 19152, Note_on_c, 0, 67, 91
2, 19224, Note_on_c, 0, 76, 0
2, 19224, Note_on_c, 0, 71, 0
2, 19224, Note_on_c, 0, 67, 0
2, 19236, Note_on_c, 0, 76, 75
2, 19248, Note_on_c, 0, 76, 0
2, 19248, Note_on_c, 0, 75, 91
2, 19248, Note_on_c, 0, 70, 91
2, 19248, Note_on_c, 0, 67, 91
2, 19320, Note_on_c, 0, 75, 0
2, 19320, Note_on_c, 0, 70, 0
2, 19320, Note_on_c, 0, 67, 0
2, 19332, Note_on_c, 0, 75, 75
2, 19344, Note_on_c, 0, 75, 0
2, 19344, Note_on_c, 0, 75, 91
2, 19344, Note_on_c, 0, 68, 91
2, 19344, Note_on_c, 0, 65, 91
2, 19368, Note_on_c, 0, 75, 0
2, 19368, Note_on_c, 0, 74, 74
2, 19402, Note_on_c, 0, 74, 0
2, 19402, Note_on_c, 0, 68, 0
2, 19402, Note_on_c, 0, 65, 0
2, 19428, Note_on_c, 0, 74, 73
2, 19440, Note_on_c, 0, 74, 0
2, 19440, Note_on_c, 0, 74, 73
2, 19440, Note_on_c, 0, 70, 73
2, 19440, Note_on_c, 0, 67, 73
2, 19464, Note_on_c, 0, 74, 0
2, 19464, Note_on_c, 0, 73, 72
2, 19498, Note_on_c, 0, 73, 0
2, 19498, Note_on_c, 0, 70, 0
2, 19498, Note_on_c, 0, 67, 0
2, 19524, Note_on_c, 0, 73, 71
2, 19536, Note_on_c, 0, 73, 0
2, 19536, Note_on_c, 0, 74, 87
2, 19536, Note_on_c, 0, 69, 87
2, 19536, Note_on_c, 0, 66, 87
2, 19608, Note_on_c, 0, 74, 0
2, 19608, Note_on_c, 0, 69, 0
2, 19608, Note_on_c, 0, 66, 0
2, 19620, Note_on_c, 0, 69, 69
2, 19632, Note_on_c, 0, 69, 0
2, 19632, Note_on_c, 0, 70, 85
2, 19632, Note_on_c, 0, 67, 85
2, 19632, Note_on_c, 0, 64, 85
2, 19704, Note_on_c, 0, 70, 0
2, 19704, Note_on_c, 0, 67, 0
2, 19704, Note_on_c, 0, 64, 0
2, 19716, Note_on_c, 0, 70, 67
2, 19728, Note_on_c, 0, 70, 0
2, 19728, Note_on_c, 0, 69, 83
2, 19728, Note_on_c, 0, 67, 83
2, 19728, Note_on_c, 0, 64, 83
2, 19800, Note_on_c, 0, 69, 0
2, 19800, Note_on_c, 0, 67, 0
2, 19800, Note_on_c, 0, 64, 0
2, 19812, Note_on_c, 0, 69, 65
2, 19824, Note_on_c, 0, 69, 0
2, 19824, Note_on_c, 0, 68, 65
2, 19824, Note_on_c, 0, 62, 65
2, 19824, Note_on_c, 0, 59, 65
2, 19872, Note_on_c, 0, 68, 0
2, 19872, Note_on_c, 0, 62, 0
2, 19872, Note_on_c, 0, 59, 0
2, 19872, Note_on_c, 0, 86, 97
2, 19920, Note_on_c, 0, 86, 0
2, 19920, Note_on_c, 0, 84, 64
2, 19943, Note_on_c, 0, 84, 0
2, 19944, Note_on_c, 0, 83, 64
2, 19952, Note_on_c, 0, 83, 0
2, 19952, Note_on_c, 0, 82, 64
2, 19960, Note_on_c, 0, 82, 0
2, 19960, Note_on_c, 0, 81, 64
2, 19968, Note_on_c, 0, 81, 0
2, 19968, Note_on_c, 0, 80, 64
2, 20002, Note_on_c, 0, 80, 0
2, 20016, Control_c, 0, 64, 127
2, 20016, Note_on_c, 0, 53, 75
2, 20031, Note_on_c, 0, 53, 0
2, 20032, Note_on_c, 0, 59, 76
2, 20047, Note_on_c, 0, 59, 0
2, 20048, Note_on_c, 0, 62, 77
2, 20063, Note_on_c, 0, 62, 0
2, 20064, Note_on_c, 0, 65, 78
2, 20079, Note_on_c, 0, 65, 0
2, 20080, Note_on_c, 0, 62, 80
2, 20095, Note_on_c, 0, 62, 0
2, 20096, Note_on_c, 0, 59, 78
2, 20111, Note_on_c, 0, 59, 0
2, 20112, Note_on_c, 0, 53, 75
2, 20122, Note_on_c, 0, 53, 0
2, 20136, Note_on_c, 0, 59, 91
2, 20184, Note_on_c, 0, 59, 0
2, 20184, Note_on_c, 0, 62, 92
2, 20184, Note_on_c, 0, 59, 92
2, 20232, Note_on_c, 0, 62, 0
2, 20232, Note_on_c, 0, 59, 0
2, 20232, Note_on_c, 0, 65, 94
2, 20232, Note_on_c, 0, 62, 94
2, 20280, Note_on_c, 0, 65, 0
2, 20280, Note_on_c, 0, 62, 0
2, 20280, Control_c, 0, 64, 0
2, 20280, Note_on_c, 0, 68, 79
2, 20280, Note_on_c, 0, 65, 79
2, 20303, Note_on_c, 0, 68, 0
2, 20303, Note_on_c, 0, 65, 0
2, 20304, Note_on_c, 0, 67, 80
2, 20304, Note_on_c, 0, 64, 80
2, 20327, Note_on_c, 0, 67, 0
2, 20327, Note_on_c, 0, 64, 0
2, 20328, Note_on_c, 0, 72, 78
2, 20351, Note_on_c, 0, 72, 0
2, 20352, Note_on_c, 0, 60, 93
2, 20400, Note_on_c, 0, 60, 0
2, 20400, Note_on_c, 0, 60, 75
2, 20406, Note_on_c, 0, 60, 0
2, 20406, Note_on_c, 0, 59, 75
2, 20412, Note_on_c, 0, 59, 0
2, 20412, Note_on_c, 0, 60, 75
2, 20519, Note_on_c, 0, 60, 0
2, 20520, Note_on_c, 0, 62, 78
2, 20532, Note_on_c, 0, 62, 0
2, 20532, Note_on_c, 0, 64, 78
2, 20544, Note_on_c, 0, 64, 0
2, 20544, Note_on_c, 0, 65, 78
2, 20556, Note_on_c, 0, 65, 0
2, 20556, Note_on_c, 0, 67, 79
2, 20568, Note_on_c, 0, 67, 0
2, 20568, Note_on_c, 0, 69, 79
2, 20580, Note_on_c, 0, 69, 0
2, 20580, Note_on_c, 0, 71, 79
2, 20592, Note_on_c, 0, 71, 0
2, 20592, Note_on_c, 0, 72, 80
2, 20637, Note_on_c, 0, 72, 0
2, 20640, Note_on_c, 0, 70, 75
2, 20640, Note_on_c, 0, 67, 75
2, 20640, Note_on_c, 0, 60, 75
2, 20688, Note_on_c, 0, 70, 0
2, 20688, Note_on_c, 0, 67, 0
2, 20688, Note_on_c, 0, 69, 75
2, 20688, Note_on_c, 0, 65, 75
2, 20733, Note_on_c, 0, 69, 0
2, 20733, Note_on_c, 0, 65, 0
2, 20733, Note_on_c, 0, 60, 0
2, 20736, Note_on_c, 0, 72, 76
2, 20736, Note_on_c, 0, 69, 76
2, 20736, Note_on_c, 0, 62, 76
2, 20784, Note_on_c, 0, 72, 0
2, 20784, Note_on_c, 0, 69, 0
2, 20784, Note_on_c, 0, 71, 77
2, 20784, Note_on_c, 0, 67, 77
2, 20829, Note_on_c, 0, 71, 0
2, 20829, Note_on_c, 0, 67, 0
2, 20829, Note_on_c, 0, 62, 0
2, 20832, Note_on_c, 0, 77, 77
2, 20832, Note_on_c, 0, 74, 77
2, 20832, Note_on_c, 0, 67, 77
2, 20880, Note_on_c, 0, 77, 0
2, 20880, Note_on_c, 0, 74, 0
2, 20880, Note_on_c, 0, 76, 78
2, 20880, Note_on_c, 0, 72, 78
2, 20925, Note_on_c, 0, 76, 0
2, 20925, Note_on_c, 0, 72, 0
2, 20925, Note_on_c, 0, 67, 0
2, 20928, Note_on_c, 0, 82, 79
2, 20928, Note_on_c, 0, 79, 79
2, 20928, Note_on_c, 0, 72, 79
2, 20976, Note_on_c, 0, 82, 0
2, 20976, Note_on_c, 0, 79, 0
2, 20976, Note_on_c, 0, 72, 0
2, 20976, Note_on_c, 0, 80, 80
2, 20976, Note_on_c, 0, 77, 80
2, 21021, Note_on_c, 0, 80, 0
2, 21021, Note_on_c, 0, 77, 0
2, 21024, Note_on_c, 0, 80, 76
2, 21024, Note_on_c, 0, 77, 76
2, 21069, Note_on_c, 0, 80, 0
2, 21069, Note_on_c, 0, 77, 0
2, 21072, Note_on_c, 0, 80, 72
2, 21072, Note_on_c, 0, 77, 72
2, 21117, Note_on_c, 0, 80, 0
2, 21117, Note_on_c, 0, 77, 0
2, 21120, Note_on_c, 0, 80, 68
2, 21120, Note_on_c, 0, 77, 68
2, 21165, Note_on_c, 0, 80, 0
2, 21165, Note_on_c, 0, 77, 0
2, 21168, Note_on_c, 0, 79, 80
2, 21168, Note_on_c, 0, 77, 80
2, 21184, Note_on_c, 0, 79, 0
2, 21184, Note_on_c, 0, 77, 0
2, 21184, Note_on_c, 0, 74, 64
2, 21199, Note_on_c, 0, 74, 0
2, 21200, Note_on_c, 0, 77, 64
2, 21215, Note_on_c, 0, 77, 0
2, 21216, Note_on_c, 0, 75, 64
2, 21231, Note_on_c, 0, 75, 0
2, 21232, Note_on_c, 0, 74, 64
2, 21247, Note_on_c, 0, 74, 0
2, 21248, Note_on_c, 0, 72, 64
2, 21263, Note_on_c, 0, 72, 0
2, 21264, Note_on_c, 0, 79, 64
2, 21279, Note_on_c, 0, 79, 0
2, 21280, Note_on_c, 0, 62, 70
2, 21295, Note_on_c, 0, 62, 0
2, 21296, Note_on_c, 0, 65, 70
2, 21311, Note_on_c, 0, 65, 0
2, 21312, Note_on_c, 0, 63, 70
2, 21327, Note_on_c, 0, 63, 0
2, 21328, Note_on_c, 0, 62, 70
2, 21343, Note_on_c, 0, 62, 0
2, 21344, Note_on_c, 0, 60, 70
2, 21359, Note_on_c, 0, 60, 0
2, 21360, Note_on_c, 0, 67, 70
2, 21405, Note_on_c, 0, 67, 0
2, 21456, Note_on_c, 0, 76, 70
2, 21471, Note_on_c, 0, 76, 0
2, 21472, Note_on_c, 0, 79, 70
2, 21487, Note_on_c, 0, 79, 0
2, 21488, Note_on_c, 0, 84, 70
2, 21503, Note_on_c, 0, 84, 0
2, 21504, Note_on_c, 0, 76, 70
2, 21519, Note_on_c, 0, 76, 0
2, 21520, Note_on_c, 0, 79, 71
2, 21535, Note_on_c, 0, 79, 0
2, 21536, Note_on_c, 0, 84, 71
2, 21551, Note_on_c, 0, 84, 0
2, 21552, Note_on_c, 0, 77, 72
2, 21567, Note_on_c, 0, 77, 0
2, 21568, Note_on_c, 0, 81, 72
2, 21583, Note_on_c, 0, 81, 0
2, 21584, Note_on_c, 0, 84, 73
2, 21599, Note_on_c, 0, 84, 0
2, 21600, Note_on_c, 0, 77, 73
2, 21615, Note_on_c, 0, 77, 0
2, 21616, Note_on_c, 0, 81, 74
2, 21631, Note_on_c, 0, 81, 0
2, 21632, Note_on_c, 0, 84, 74
2, 21647, Note_on_c, 0, 84, 0
2, 21648, Note_on_c, 0, 76, 75
2, 21663, Note_on_c, 0, 76, 0
2, 21664, Note_on_c, 0, 79, 74
2, 21679, Note_on_c, 0, 79, 0
2, 21680, Note_on_c, 0, 84, 74
2, 21695, Note_on_c, 0, 84, 0
2, 21696, Note_on_c, 0, 74, 73
2, 21711, Note_on_c, 0, 74, 0
2, 21712, Note_on_c, 0, 77, 73
2, 21727, Note_on_c, 0, 77, 0
2, 21728, Note_on_c, 0, 86, 72
2, 21743, Note_on_c, 0, 86, 0
2, 21760, Note_on_c, 0, 83, 70
2, 21776, Note_on_c, 0, 83, 0
2, 21776, Note_on_c, 0, 84, 70
2, 21791, Note_on_c, 0, 84, 0
2, 21808, Note_on_c, 0, 72, 70
2, 21824, Note_on_c, 0, 72, 0
2, 21824, Note_on_c, 0, 70, 70
2, 21839, Note_on_c, 0, 70, 0
2, 21840, Note_on_c, 0, 69, 70
2, 21855, Note_on_c, 0, 69, 0
2, 21856, Note_on_c, 0, 77, 70
2, 21872, Note_on_c, 0, 77, 0
2, 21872, Note_on_c, 0, 76, 70
2, 21887, Note_on_c, 0, 76, 0
2, 21904, Note_on_c, 0, 74, 71
2, 21920, Note_on_c, 0, 74, 0
2, 21920, Note_on_c, 0, 72, 71
2, 21935, Note_on_c, 0, 72, 0
2, 21936, Note_on_c, 0, 71, 71
2, 21951, Note_on_c, 0, 71, 0
2, 21952, Note_on_c, 0, 79, 71
2, 21968, Note_on_c, 0, 79, 0
2, 21968, Note_on_c, 0, 77, 71
2, 21983, Note_on_c, 0, 77, 0
2, 22000, Note_on_c, 0, 76, 72
2, 22016, Note_on_c, 0, 76, 0
2, 22016, Note_on_c, 0, 74, 72
2, 22031, Note_on_c, 0, 74, 0
2, 22032, Note_on_c, 0, 72, 72
2, 22047, Note_on_c, 0, 72, 0
2, 22048, Note_on_c, 0, 81, 72
2, 22063, Note_on_c, 0, 81, 0
2, 22064, Note_on_c, 0, 79, 72
2, 22079, Note_on_c, 0, 79, 0
2, 22096, Note_on_c, 0, 77, 73
2, 22112, Note_on_c, 0, 77, 0
2, 22112, Note_on_c, 0, 76, 73
2, 22127, Note_on_c, 0, 76, 0
2, 22128, Note_on_c, 0, 74, 73
2, 22140, Note_on_c, 0, 74, 0
2, 22140, Note_on_c, 0, 84, 75
2, 22152, Note_on_c, 0, 84, 0
2, 22152, Note_on_c, 0, 83, 75
2, 22164, Note_on_c, 0, 83, 0
2, 22164, Note_on_c, 0, 81, 75
2, 22176, Note_on_c, 0, 81, 0
2, 22176, Note_on_c, 0, 79, 75
2, 22188, Note_on_c, 0, 79, 0
2, 22188, Note_on_c, 0, 77, 75
2, 22200, Note_on_c, 0, 77, 0
2, 22200, Note_on_c, 0, 76, 75
2, 22212, Note_on_c, 0, 76, 0
2, 22212, Note_on_c, 0, 74, 75
2, 22224, Note_on_c, 0, 74, 0
2, 22224, Note_on_c, 0, 72, 75
2, 22236, Note_on_c, 0, 72, 0
2, 22236, Note_on_c, 0, 71, 75
2, 22248, Note_on_c, 0, 71, 0
2, 22248, Note_on_c, 0, 69, 75
2, 22260, Note_on_c, 0, 69, 0
2, 22260, Note_on_c, 0, 67, 75
2, 22272, Note_on_c, 0, 67, 0
2, 22272, Note_on_c, 0, 65, 75
2, 22284, Note_on_c, 0, 65, 0
2, 22284, Note_on_c, 0, 64, 75
2, 22296, Note_on_c, 0, 64, 0
2, 22296, Note_on_c, 0, 62, 75
2, 22308, Note_on_c, 0, 62, 0
2, 22308, Note_on_c, 0, 60, 75
2, 22320, Note_on_c, 0, 60, 0
2, 22320, Note_on_c, 0, 59, 91
2, 22368, Note_on_c, 0, 59, 0
2, 22368, Note_on_c, 0, 74, 75
2, 22368, Note_on_c, 0, 71, 75
2, 22388, Note_on_c, 0, 74, 0
2, 22388, Note_on_c, 0, 71, 0
2, 22416, Note_on_c, 0, 60, 76
2, 22422, Note_on_c, 0, 60, 0
2, 22422, Note_on_c, 0, 62, 76
2, 22428, Note_on_c, 0, 62, 0
2, 22428, Note_on_c, 0, 60, 92
2, 22464, Note_on_c, 0, 60, 0
2, 22464, Note_on_c, 0, 76, 77
2, 22464, Note_on_c, 0, 72, 77
2, 22484, Note_on_c, 0, 76, 0
2, 22484, Note_on_c, 0, 72, 0
2, 22512, Note_on_c, 0, 62, 78
2, 22518, Note_on_c, 0, 62, 0
2, 22518, Note_on_c, 0, 64, 78
2, 22524, Note_on_c, 0, 64, 0
2, 22524, Note_on_c, 0, 62, 94
2, 22560, Note_on_c, 0, 62, 0
2, 22560, Note_on_c, 0, 77, 79
2, 22560, Note_on_c, 0, 74, 79
2, 22580, Note_on_c, 0, 77, 0
2, 22580, Note_on_c, 0, 74, 0
2, 22608, Note_on_c, 0, 78, 96
2, 22632, Note_on_c, 0, 78, 0
2, 22632, Note_on_c, 0, 79, 79
2, 22655, Note_on_c, 0, 79, 0
2, 22656, Note_on_c, 0, 81, 78
2, 22679, Note_on_c, 0, 81, 0
2, 22680, Note_on_c, 0, 79, 78
2, 22703, Note_on_c, 0, 79, 0
2, 22704, Note_on_c, 0, 77, 77
2, 22793, Note_on_c, 0, 77, 0
2, 22944, Note_on_c, 0, 72, 91
2, 22976, Note_on_c, 0, 72, 0
2, 22976, Note_on_c, 0, 64, 75
2, 22991, Note_on_c, 0, 64, 0
2, 22992, Note_on_c, 0, 65, 75
2, 23007, Note_on_c, 0, 65, 0
2, 23008, Note_on_c, 0, 69, 75
2, 23023, Note_on_c, 0, 69, 0
2, 23024, Note_on_c, 0, 64, 75
2, 23039, Note_on_c, 0, 64, 0
2, 23040, Note_on_c, 0, 65, 75
2, 23055, Note_on_c, 0, 65, 0
2, 23056, Note_on_c, 0, 69, 75
2, 23071, Note_on_c, 0, 69, 0
2, 23072, Note_on_c, 0, 61, 75
2, 23087, Note_on_c, 0, 61, 0
2, 23088, Note_on_c, 0, 62, 75
2, 23103, Note_on_c, 0, 62, 0
2, 23104, Note_on_c, 0, 64, 75
2, 23119, Note_on_c, 0, 64, 0
2, 23120, Note_on_c, 0, 65, 75
2, 23135, Note_on_c, 0, 65, 0
2, 23136, Note_on_c, 0, 67, 75
2, 23151, Note_on_c, 0, 67, 0
2, 23152, Note_on_c, 0, 65, 75
2, 23167, Note_on_c, 0, 65, 0
2, 23168, Note_on_c, 0, 64, 75
2, 23183, Note_on_c, 0, 64, 0
2, 23184, Note_on_c, 0, 62, 75
2, 23184, Note_on_c, 0, 60, 75
2, 23194, Note_on_c, 0, 62, 0
2, 23194, Note_on_c, 0, 60, 0
2, 23208, Note_on_c, 0, 62, 86
2, 23208, Note_on_c, 0, 60, 86
2, 23256, Note_on_c, 0, 62, 0
2, 23256, Note_on_c, 0, 60, 0
2, 23256, Note_on_c, 0, 62, 70
2, 23256, Note_on_c, 0, 60, 70
2, 23279, Note_on_c, 0, 62, 0
2, 23279, Note_on_c, 0, 60, 0
2, 23280, Note_on_c, 0, 63, 70
2, 23280, Note_on_c, 0, 60, 70
2, 23290, Note_on_c, 0, 63, 0
2, 23290, Note_on_c, 0, 60, 0
2, 23304, Note_on_c, 0, 63, 86
2, 23304, Note_on_c, 0, 60, 86
2, 23352, Note_on_c, 0, 63, 0
2, 23352, Note_on_c, 0, 60, 0
2, 23352, Note_on_c, 0, 63, 70
2, 23352, Note_on_c, 0, 60, 70
2, 23375, Note_on_c, 0, 63, 0
2, 23375, Note_on_c, 0, 60, 0
2, 23376, Note_on_c, 0, 69, 70
2, 23376, Note_on_c, 0, 63, 70
2, 23376, Note_on_c, 0, 60, 70
2, 23386, Note_on_c, 0, 69, 0
2, 23386, Note_on_c, 0, 63, 0
2, 23386, Note_on_c, 0, 60, 0
2, 23400, Note_on_c, 0, 69, 86
2, 23400, Note_on_c, 0, 63, 86
2, 23400, Note_on_c, 0, 60, 86
2, 23448, Note_on_c, 0, 69, 0
2, 23448, Note_on_c, 0, 63, 0
2, 23448, Note_on_c, 0, 60, 0
2, 23448, Note_on_c, 0, 69, 70
2, 23448, Note_on_c, 0, 63, 70
2, 23448, Note_on_c, 0, 60, 70
2, 23471, Note_on_c, 0, 69, 0
2, 23471, Note_on_c, 0, 63, 0
2, 23471, Note_on_c, 0, 60, 0
2, 23472, Note_on_c, 0, 84, 70
2, 23484, Note_on_c, 0, 84, 0
2, 23484, Note_on_c, 0, 86, 70
2, 23496, Note_on_c, 0, 86, 0
2, 23496, Note_on_c, 0, 87, 86
2, 23568, Note_on_c, 0, 87, 0
2, 23616, Note_on_c, 0, 72, 64
2, 23616, Note_on_c, 0, 67, 64
2, 23616, Note_on_c, 0, 64, 64
2, 23636, Note_on_c, 0, 72, 0
2, 23636, Note_on_c, 0, 67, 0
2, 23636, Note_on_c, 0, 64, 0
2, 23712, Note_on_c, 0, 74, 64
2, 23712, Note_on_c, 0, 71, 64
2, 23712, Note_on_c, 0, 65, 64
2, 23757, Note_on_c, 0, 74, 0
2, 23757, Note_on_c, 0, 71, 0
2, 23757, Note_on_c, 0, 65, 0
2, 23760, Note_on_c, 0, 72, 64
2, 23760, Note_on_c, 0, 67, 64
2, 23760, Note_on_c, 0, 64, 64
2, 23805, Note_on_c, 0, 72, 0
2, 23805, Note_on_c, 0, 67, 0
2, 23805, Note_on_c, 0, 64, 0
2, 23808, Note_on_c, 0, 40, 58
2, 23808, Note_on_c, 0, 36, 58
2, 23853, Note_on_c, 0, 40, 0
2, 23853, Note_on_c, 0, 36, 0
2, 23856, Note_on_c, 0, 40, 58
2, 23856, Note_on_c, 0, 36, 58
2, 23945, Note_on_c, 0, 40, 0
2, 23945, Note_on_c, 0, 36, 0
2, 24000, End_track
3, 0, Start_track
3, 0, Program_c, 0, 0
3, 0, Control_c, 0, 7, 127
3, 0, Control_c, 0, 10, 64
3, 1456, Note_on_c, 0, 69, 58
3, 1471, Note_on_c, 0, 69, 0
3, 1504, Note_on_c, 0, 69, 58
3, 1519, Note_on_c, 0, 69, 0
3, 6592, Note_on_c, 0, 69, 58
3, 6607, Note_on_c, 0, 69, 0
3, 6640, Note_on_c, 0, 69, 58
3, 6655, Note_on_c, 0, 69, 0
3, 11328, Note_on_c, 0, 84, 58
3, 11424, Note_on_c, 0, 84, 0
3, 11424, Note_on_c, 0, 83, 58
3, 11469, Note_on_c, 0, 83, 0
3, 15744, Note_on_c, 0, 74, 58
3, 15885, Note_on_c, 0, 74, 0
3, 18192, Note_on_c, 0, 84, 58
3, 18288, Note_on_c, 0, 84, 0
3, 18288, Note_on_c, 0, 83, 58
3, 18333, Note_on_c, 0, 83, 0
3, 22608, Note_on_c, 0, 74, 58
3, 22749, Note_on_c, 0, 74, 0
3, 24000, End_track
4, 0, Start_track
4, 0, Program_c, 1, 0
4, 0, Control_c, 1, 7, 127
4, 0, Control_c, 1, 10, 64
4, 0, Note_on_c, 1, 48, 70
4, 15, Note_on_c, 1, 48, 0
4, 16, Note_on_c, 1, 52, 70
4, 31, Note_on_c, 1, 52, 0
4, 32, Note_on_c, 1, 48, 70
4, 47, Note_on_c, 1, 48, 0
4, 48, Note_on_c, 1, 50, 71
4, 63, Note_on_c, 1, 50, 0
4, 64, Note_on_c, 1, 53, 71
4, 79, Note_on_c, 1, 53, 0
4, 80, Note_on_c, 1, 50, 72
4, 95, Note_on_c, 1, 50, 0
4, 96, Note_on_c, 1, 52, 72
4, 111, Note_on_c, 1, 52, 0
4, 112, Note_on_c, 1, 55, 72
4, 127, Note_on_c, 1, 55, 0
4, 128, Note_on_c, 1, 52, 73
4, 143, Note_on_c, 1, 52, 0
4, 144, Note_on_c, 1, 53, 73
4, 159, Note_on_c, 1, 53, 0
4, 160, Note_on_c, 1, 57, 74
4, 175, Note_on_c, 1, 57, 0
4, 176, Note_on_c, 1, 53, 74
4, 191, Note_on_c, 1, 53, 0
4, 192, Note_on_c, 1, 52, 75
4, 207, Note_on_c, 1, 52, 0
4, 208, Note_on_c, 1, 55, 74
4, 223, Note_on_c, 1, 55, 0
4, 224, Note_on_c, 1, 52, 74
4, 239, Note_on_c, 1, 52, 0
4, 240, Note_on_c, 1, 50, 73
4, 255, Note_on_c, 1, 50, 0
4, 256, Note_on_c, 1, 53, 73
4, 271, Note_on_c, 1, 53, 0
4, 272, Note_on_c, 1, 50, 72
4, 287, Note_on_c, 1, 50, 0
4, 288, Note_on_c, 1, 48, 70
4, 303, Note_on_c, 1, 48, 0
4, 304, Note_on_c, 1, 52, 70
4, 319, Note_on_c, 1, 52, 0
4, 320, Note_on_c, 1, 48, 70
4, 335, Note_on_c, 1, 48, 0
4, 336, Note_on_c, 1, 50, 71
4, 351, Note_on_c, 1, 50, 0
4, 352, Note_on_c, 1, 53, 71
4, 367, Note_on_c, 1, 53, 0
4, 368, Note_on_c, 1, 50, 71
4, 383, Note_on_c, 1, 50, 0
4, 384, Note_on_c, 1, 52, 72
4, 399, Note_on_c, 1, 52, 0
4, 400, Note_on_c, 1, 55, 72
4, 415, Note_on_c, 1, 55, 0
4, 416, Note_on_c, 1, 52, 73
4, 431, Note_on_c, 1, 52, 0
4, 432, Note_on_c, 1, 53, 73
4, 447, Note_on_c, 1, 53, 0
4, 448, Note_on_c, 1, 57, 73
4, 463, Note_on_c, 1, 57, 0
4, 464, Note_on_c, 1, 53, 74
4, 479, Note_on_c, 1, 53, 0
4, 480, Note_on_c, 1, 52, 74
4, 495, Note_on_c, 1, 52, 0
4, 496, Note_on_c, 1, 55, 75
4, 511, Note_on_c, 1, 55, 0
4, 512, Note_on_c, 1, 52, 74
4, 527, Note_on_c, 1, 52, 0
4, 528, Note_on_c, 1, 50, 74
4, 543, Note_on_c, 1, 50, 0
4, 544, Note_on_c, 1, 53, 73
4, 559, Note_on_c, 1, 53, 0
4, 560, Note_on_c, 1, 50, 73
4, 575, Note_on_c, 1, 50, 0
4, 576, Note_on_c, 1, 48, 70
4, 599, Note_on_c, 1, 48, 0
4, 624, Note_on_c, 1, 72, 64
4, 624, Note_on_c, 1, 69, 64
4, 644, Note_on_c, 1, 72, 0
4, 644, Note_on_c, 1, 69, 0
4, 672, Note_on_c, 1, 71, 64
4, 672, Note_on_c, 1, 67, 64
4, 692, Note_on_c, 1, 71, 0
4, 692, Note_on_c, 1, 67, 0
4, 720, Note_on_c, 1, 69, 64
4, 720, Note_on_c, 1, 65, 64
4, 768, Note_on_c, 1, 69, 0
4, 768, Note_on_c, 1, 65, 0
4, 768, Note_on_c, 1, 67, 64
4, 768, Note_on_c, 1, 64, 64
4, 788, Note_on_c, 1, 67, 0
4, 788, Note_on_c, 1, 64, 0
4, 816, Note_on_c, 1, 60, 64
4, 816, Note_on_c, 1, 57, 64
4, 836, Note_on_c, 1, 60, 0
4, 836, Note_on_c, 1, 57, 0
4, 864, Note_on_c, 1, 59, 64
4, 864, Note_on_c, 1, 55, 64
4, 884, Note_on_c, 1, 59, 0
4, 884, Note_on_c, 1, 55, 0
4, 912, Note_on_c, 1, 57, 64
4, 912, Note_on_c, 1, 53, 64
4, 960, Note_on_c, 1, 57, 0
4, 960, Note_on_c, 1, 53, 0
4, 960, Note_on_c, 1, 55, 64
4, 960, Note_on_c, 1, 52, 64
4, 980, Note_on_c, 1, 55, 0
4, 980, Note_on_c, 1, 52, 0
4, 1008, Note_on_c, 1, 47, 80
4, 1008, Note_on_c, 1, 35, 80
4, 1042, Note_on_c, 1, 47, 0
4, 1042, Note_on_c, 1, 35, 0
4, 1044, Note_on_c, 1, 48, 80
4, 1044, Note_on_c, 1, 36, 80
4, 1056, Note_on_c, 1, 48, 0
4, 1056, Note_on_c, 1, 36, 0
4, 1056, Note_on_c, 1, 41, 80
4, 1056, Note_on_c, 1, 29, 80
4, 1066, Note_on_c, 1, 41, 0
4, 1066, Note_on_c, 1, 29, 0
4, 1104, Note_on_c, 1, 43, 80
4, 1104, Note_on_c, 1, 31, 80
4, 1114, Note_on_c, 1, 43, 0
4, 1114, Note_on_c, 1, 31, 0
4, 1152, Note_on_c, 1, 48, 80
4, 1152, Note_on_c, 1, 36, 80
4, 1241, Note_on_c, 1, 48, 0
4, 1241, Note_on_c, 1, 36, 0
4, 1344, Note_on_c, 1, 59, 70
4, 1360, Note_on_c, 1, 59, 0
4, 1360, Note_on_c, 1, 60, 70
4, 1375, Note_on_c, 1, 60, 0
4, 1376, Note_on_c, 1, 64, 70
4, 1383, Note_on_c, 1, 64, 0
4, 1392, Note_on_c, 1, 56, 70
4, 1408, Note_on_c, 1, 56, 0
4, 1408, Note_on_c, 1, 57, 70
4, 1423, Note_on_c, 1, 57, 0
4, 1424, Note_on_c, 1, 52, 71
4, 1439, Note_on_c, 1, 52, 0
4, 1440, Note_on_c, 1, 53, 71
4, 1470, Note_on_c, 1, 53, 0
4, 1472, Note_on_c, 1, 52, 71
4, 1487, Note_on_c, 1, 52, 0
4, 1488, Note_on_c, 1, 53, 71
4, 1518, Note_on_c, 1, 53, 0
4, 1520, Note_on_c, 1, 49, 72
4, 1535, Note_on_c, 1, 49, 0
4, 1536, Note_on_c, 1, 50, 72
4, 1546, Note_on_c, 1, 50, 0
4, 1560, Note_on_c, 1, 38, 73
4, 1570, Note_on_c, 1, 38, 0
4, 1584, Note_on_c, 1, 42, 73
4, 1594, Note_on_c, 1, 42, 0
4, 1608, Note_on_c, 1, 45, 73
4, 1618, Note_on_c, 1, 45, 0
4, 1632, Note_on_c, 1, 43, 75
4, 1667, Note_on_c, 1, 43, 0
4, 1680, Note_on_c, 1, 49, 75
4, 1728, Note_on_c, 1, 49, 0
4, 1728, Note_on_c, 1, 50, 75
4, 1743, Note_on_c, 1, 50, 0
4, 1744, Note_on_c, 1, 45, 75
4, 1759, Note_on_c, 1, 45, 0
4, 1760, Note_on_c, 1, 48, 76
4, 1775, Note_on_c, 1, 48, 0
4, 1776, Note_on_c, 1, 47, 78
4, 1791, Note_on_c, 1, 47, 0
4, 1792, Note_on_c, 1, 45, 80
4, 1807, Note_on_c, 1, 45, 0
4, 1808, Note_on_c, 1, 43, 78
4, 1823, Note_on_c, 1, 43, 0
4, 1824, Note_on_c, 1, 50, 75
4, 1834, Note_on_c, 1, 50, 0
4, 1872, Note_on_c, 1, 38, 70
4, 1917, Note_on_c, 1, 38, 0
4, 2016, Note_on_c, 1, 55, 64
4, 2017, Note_on_c, 1, 59, 64
4, 2018, Note_on_c, 1, 62, 64
4, 2019, Note_on_c, 1, 67, 64
4, 2106, Note_on_c, 1, 67, 0
4, 2106, Note_on_c, 1, 62, 0
4, 2106, Note_on_c, 1, 59, 0
4, 2106, Note_on_c, 1, 55, 0
4, 2160, Note_on_c, 1, 67, 64
4, 2160, Note_on_c, 1, 64, 64
4, 2205, Note_on_c, 1, 67, 0
4, 2205, Note_on_c, 1, 64, 0
4, 2208, Note_on_c, 1, 67, 62
4, 2208, Note_on_c, 1, 62, 62
4, 2253, Note_on_c, 1, 67, 0
4, 2253, Note_on_c, 1, 62, 0
4, 2256, Note_on_c, 1, 66, 60
4, 2256, Note_on_c, 1, 62, 60
4, 2301, Note_on_c, 1, 66, 0
4, 2301, Note_on_c, 1, 62, 0
4, 2304, Note_on_c, 1, 59, 64
4, 2319, Note_on_c, 1, 59, 0
4, 2320, Note_on_c, 1, 62, 64
4, 2335, Note_on_c, 1, 62, 0
4, 2336, Note_on_c, 1, 67, 64
4, 2351, Note_on_c, 1, 67, 0
4, 2352, Note_on_c, 1, 59, 64
4, 2367, Note_on_c, 1, 59, 0
4, 2368, Note_on_c, 1, 62, 64
4, 2383, Note_on_c, 1, 62, 0
4, 2384, Note_on_c, 1, 67, 64
4, 2399, Note_on_c, 1, 67, 0
4, 2400, Note_on_c, 1, 60, 64
4, 2415, Note_on_c, 1, 60, 0
4, 2416, Note_on_c, 1, 64, 64
4, 2431, Note_on_c, 1, 64, 0
4, 2432, Note_on_c, 1, 67, 64
4, 2447, Note_on_c, 1, 67, 0
4, 2448, Note_on_c, 1, 61, 65
4, 2463, Note_on_c, 1, 61, 0
4, 2464, Note_on_c, 1, 64, 65
4, 2479, Note_on_c, 1, 64, 0
4, 2480, Note_on_c, 1, 67, 66
4, 2495, Note_on_c, 1, 67, 0
4, 2496, Note_on_c, 1, 62, 66
4, 2511, Note_on_c, 1, 62, 0
4, 2512, Note_on_c, 1, 66, 67
4, 2527, Note_on_c, 1, 66, 0
4, 2528, Note_on_c, 1, 69, 67
4, 2543, Note_on_c, 1, 69, 0
4, 2544, Note_on_c, 1, 63, 68
4, 2559, Note_on_c, 1, 63, 0
4, 2560, Note_on_c, 1, 66, 68
4, 2575, Note_on_c, 1, 66, 0
4, 2576, Note_on_c, 1, 69, 69
4, 2591, Note_on_c, 1, 69, 0
4, 2592, Note_on_c, 1, 64, 69
4, 2607, Note_on_c, 1, 64, 0
4, 2608, Note_on_c, 1, 67, 69
4, 2623, Note_on_c, 1, 67, 0
4, 2624, Note_on_c, 1, 71, 70
4, 2639, Note_on_c, 1, 71, 0
4, 2640, Note_on_c, 1, 64, 70
4, 2655, Note_on_c, 1, 64, 0
4, 2656, Note_on_c, 1, 67, 71
4, 2671, Note_on_c, 1, 67, 0
4, 2672, Note_on_c, 1, 71, 71
4, 2687, Note_on_c, 1, 71, 0
4, 2688, Note_on_c, 1, 66, 75
4, 2733, Note_on_c, 1, 66, 0
4, 2880, Note_on_c, 1, 71, 75
4, 2925, Note_on_c, 1, 71, 0
4, 2976, Note_on_c, 1, 60, 80
4, 2988, Note_on_c, 1, 60, 0
4, 2988, Note_on_c, 1, 62, 80
4, 3000, Note_on_c, 1, 62, 0
4, 3000, Note_on_c, 1, 64, 80
4, 3012, Note_on_c, 1, 64, 0
4, 3012, Note_on_c, 1, 62, 80
4, 3024, Note_on_c, 1, 62, 0
4, 3024, Note_on_c, 1, 60, 80
4, 3036, Note_on_c, 1, 60, 0
4, 3036, Note_on_c, 1, 59, 80
4, 3048, Note_on_c, 1, 59, 0
4, 3048, Note_on_c, 1, 57, 80
4, 3060, Note_on_c, 1, 57, 0
4, 3060, Note_on_c, 1, 55, 80
4, 3072, Note_on_c, 1, 55, 0
4, 3072, Note_on_c, 1, 54, 80
4, 3084, Note_on_c, 1, 54, 0
4, 3084, Note_on_c, 1, 55, 80
4, 3096, Note_on_c, 1, 55, 0
4, 3096, Note_on_c, 1, 57, 80
4, 3108, Note_on_c, 1, 57, 0
4, 3108, Note_on_c, 1, 55, 80
4, 3120, Note_on_c, 1, 55, 0
4, 3120, Note_on_c, 1, 54, 80
4, 3132, Note_on_c, 1, 54, 0
4, 3132, Note_on_c, 1, 52, 80
4, 3144, Note_on_c, 1, 52, 0
4, 3144, Note_on_c, 1, 50, 80
4, 3156, Note_on_c, 1, 50, 0
4, 3156, Note_on_c, 1, 48, 80
4, 3168, Note_on_c, 1, 48, 0
4, 3168, Note_on_c, 1, 50, 80
4, 3183, Note_on_c, 1, 50, 0
4, 3184, Note_on_c, 1, 54, 80
4, 3199, Note_on_c, 1, 54, 0
4, 3200, Note_on_c, 1, 57, 80
4, 3215, Note_on_c, 1, 57, 0
4, 3216, Note_on_c, 1, 50, 80
4, 3231, Note_on_c, 1, 50, 0
4, 3232, Note_on_c, 1, 54, 80
4, 3247, Note_on_c, 1, 54, 0
4, 3248, Note_on_c, 1, 57, 80
4, 3263, Note_on_c, 1, 57, 0
4, 3264, Note_on_c, 1, 50, 80
4, 3279, Note_on_c, 1, 50, 0
4, 3280, Note_on_c, 1, 55, 80
4, 3295, Note_on_c, 1, 55, 0
4, 3296, Note_on_c, 1, 59, 80
4, 3311, Note_on_c, 1, 59, 0
4, 3312, Note_on_c, 1, 50, 80
4, 3327, Note_on_c, 1, 50, 0
4, 3328, Note_on_c, 1, 55, 80
4, 3343, Note_on_c, 1, 55, 0
4, 3344, Note_on_c, 1, 59, 80
4, 3359, Note_on_c, 1, 59, 0
4, 3360, Note_on_c, 1, 50, 80
4, 3375, Note_on_c, 1, 50, 0
4, 3376, Note_on_c, 1, 57, 80
4, 3391, Note_on_c, 1, 57, 0
4, 3392, Note_on_c, 1, 60, 80
4, 3407, Note_on_c, 1, 60, 0
4, 3408, Note_on_c, 1, 50, 80
4, 3423, Note_on_c, 1, 50, 0
4, 3424, Note_on_c, 1, 57, 78
4, 3439, Note_on_c, 1, 57, 0
4, 3440, Note_on_c, 1, 60, 77
4, 3455, Note_on_c, 1, 60, 0
4, 3456, Note_on_c, 1, 69, 75
4, 3545, Note_on_c, 1, 69, 0
4, 3744, Note_on_c, 1, 50, 75
4, 3760, Note_on_c, 1, 50, 0
4, 3760, Note_on_c, 1, 54, 75
4, 3775, Note_on_c, 1, 54, 0
4, 3776, Note_on_c, 1, 57, 75
4, 3791, Note_on_c, 1, 57, 0
4, 3792, Note_on_c, 1, 50, 75
4, 3807, Note_on_c, 1, 50, 0
4, 3808, Note_on_c, 1, 54, 75
4, 3823, Note_on_c, 1, 54, 0
4, 3824, Note_on_c, 1, 57, 75
4, 3839, Note_on_c, 1, 57, 0
4, 3840, Note_on_c, 1, 50, 75
4, 3855, Note_on_c, 1, 50, 0
4, 3856, Note_on_c, 1, 55, 75
4, 3871, Note_on_c, 1, 55, 0
4, 3872, Note_on_c, 1, 58, 75
4, 3887, Note_on_c, 1, 58, 0
4, 3888, Note_on_c, 1, 50, 75
4, 3903, Note_on_c, 1, 50, 0
4, 3904, Note_on_c, 1, 55, 75
4, 3919, Note_on_c, 1, 55, 0
4, 3920, Note_on_c, 1, 58, 75
4, 3935, Note_on_c, 1, 58, 0
4, 3936, Note_on_c, 1, 50, 75
4, 3951, Note_on_c, 1, 50, 0
4, 3952, Note_on_c, 1, 57, 75
4, 3967, Note_on_c, 1, 57, 0
4, 3968, Note_on_c, 1, 60, 75
4, 3983, Note_on_c, 1, 60, 0
4, 3984, Note_on_c, 1, 50, 75
4, 3999, Note_on_c, 1, 50, 0
4, 4000, Note_on_c, 1, 57, 75
4, 4015, Note_on_c, 1, 57, 0
4, 4016, Note_on_c, 1, 60, 75
4, 4031, Note_on_c, 1, 60, 0
4, 4032, Note_on_c, 1, 69, 75
4, 4032, Note_on_c, 1, 66, 75
4, 4121, Note_on_c, 1, 69, 0
4, 4121, Note_on_c, 1, 66, 0
4, 4320, Note_on_c, 1, 61, 70
4, 4368, Note_on_c, 1, 61, 0
4, 4368, Note_on_c, 1, 64, 70
4, 4413, Note_on_c, 1, 64, 0
4, 4416, Note_on_c, 1, 61, 70
4, 4464, Note_on_c, 1, 61, 0
4, 4464, Note_on_c, 1, 64, 70
4, 4509, Note_on_c, 1, 64, 0
4, 4512, Note_on_c, 1, 61, 70
4, 4560, Note_on_c, 1, 61, 0
4, 4560, Note_on_c, 1, 64, 70
4, 4605, Note_on_c, 1, 64, 0
4, 4704, Note_on_c, 1, 50, 64
4, 4719, Note_on_c, 1, 50, 0
4, 4720, Note_on_c, 1, 55, 64
4, 4735, Note_on_c, 1, 55, 0
4, 4736, Note_on_c, 1, 59, 64
4, 4751, Note_on_c, 1, 59, 0
4, 4752, Note_on_c, 1, 62, 64
4, 4767, Note_on_c, 1, 62, 0
4, 4768, Note_on_c, 1, 59, 64
4, 4783, Note_on_c, 1, 59, 0
4, 4784, Note_on_c, 1, 55, 64
4, 4799, Note_on_c, 1, 55, 0
4, 4800, Note_on_c, 1, 50, 64
4, 4815, Note_on_c, 1, 50, 0
4, 4816, Note_on_c, 1, 54, 64
4, 4831, Note_on_c, 1, 54, 0
4, 4832, Note_on_c, 1, 57, 64
4, 4847, Note_on_c, 1, 57, 0
4, 4848, Note_on_c, 1, 62, 64
4, 4863, Note_on_c, 1, 62, 0
4, 4864, Note_on_c, 1, 57, 64
4, 4879, Note_on_c, 1, 57, 0
4, 4880, Note_on_c, 1, 54, 64
4, 4895, Note_on_c, 1, 54, 0
4, 4896, Note_on_c, 1, 55, 64
4, 4911, Note_on_c, 1, 55, 0
4, 4912, Note_on_c, 1, 59, 64
4, 4927, Note_on_c, 1, 59, 0
4, 4928, Note_on_c, 1, 62, 64
4, 4943, Note_on_c, 1, 62, 0
4, 4944, Note_on_c, 1, 67, 64
4, 4959, Note_on_c, 1, 67, 0
4, 4960, Note_on_c, 1, 62, 64
4, 4975, Note_on_c, 1, 62, 0
4, 4976, Note_on_c, 1, 59, 64
4, 4991, Note_on_c, 1, 59, 0
4, 4992, Note_on_c, 1, 55, 64
4, 5081, Note_on_c, 1, 55, 0
4, 5136, Note_on_c, 1, 48, 70
4, 5151, Note_on_c, 1, 48, 0
4, 5152, Note_on_c, 1, 52, 70
4, 5167, Note_on_c, 1, 52, 0
4, 5168, Note_on_c, 1, 48, 70
4, 5183, Note_on_c, 1, 48, 0
4, 5184, Note_on_c, 1, 50, 71
4, 5199, Note_on_c, 1, 50, 0
4, 5200, Note_on_c, 1, 53, 71
4, 5215, Note_on_c, 1, 53, 0
4, 5216, Note_on_c, 1, 50, 72
4, 5231, Note_on_c, 1, 50, 0
4, 5232, Note_on_c, 1, 52, 72
4, 5247, Note_on_c, 1, 52, 0
4, 5248, Note_on_c, 1, 55, 72
4, 5263, Note_on_c, 1, 55, 0
4, 5264, Note_on_c, 1, 52, 73
4, 5279, Note_on_c, 1, 52, 0
4, 5280, Note_on_c, 1, 53, 73
4, 5295, Note_on_c, 1, 53, 0
4, 5296, Note_on_c, 1, 57, 74
4, 5311, Note_on_c, 1, 57, 0
4, 5312, Note_on_c, 1, 53, 74
4, 5327, Note_on_c, 1, 53, 0
4, 5328, Note_on_c, 1, 52, 75
4, 5343, Note_on_c, 1, 52, 0
4, 5344, Note_on_c, 1, 55, 74
4, 5359, Note_on_c, 1, 55, 0
4, 5360, Note_on_c, 1, 52, 74
4, 5375, Note_on_c, 1, 52, 0
4, 5376, Note_on_c, 1, 50, 73
4, 5391, Note_on_c, 1, 50, 0
4, 5392, Note_on_c, 1, 53, 73
4, 5407, Note_on_c, 1, 53, 0
4, 5408, Note_on_c, 1, 50, 72
4, 5423, Note_on_c, 1, 50, 0
4, 5424, Note_on_c, 1, 48, 70
4, 5439, Note_on_c, 1, 48, 0
4, 5440, Note_on_c, 1, 52, 70
4, 5455, Note_on_c, 1, 52, 0
4, 5456, Note_on_c, 1, 48, 70
4, 5471, Note_on_c, 1, 48, 0
4, 5472, Note_on_c, 1, 50, 71
4, 5487, Note_on_c, 1, 50, 0
4, 5488, Note_on_c, 1, 53, 71
4, 5503, Note_on_c, 1, 53, 0
4, 5504, Note_on_c, 1, 50, 71
4, 5519, Note_on_c, 1, 50, 0
4, 5520, Note_on_c, 1, 52, 72
4, 5535, Note_on_c, 1, 52, 0
4, 5536, Note_on_c, 1, 55, 72
4, 5551, Note_on_c, 1, 55, 0
4, 5552, Note_on_c, 1, 52, 73
4, 5567, Note_on_c, 1, 52, 0
4, 5568, Note_on_c, 1, 53, 73
4, 5583, Note_on_c, 1, 53, 0
4, 5584, Note_on_c, 1, 57, 73
4, 5599, Note_on_c, 1, 57, 0
4, 5600, Note_on_c, 1, 53, 74
4, 5615, Note_on_c, 1, 53, 0
4, 5616, Note_on_c, 1, 52, 74
4, 5631, Note_on_c, 1, 52, 0
4, 5632, Note_on_c, 1, 55, 75
4, 5647, Note_on_c, 1, 55, 0
4, 5648, Note_on_c, 1, 52, 74
4, 5663, Note_on_c, 1, 52, 0
4, 5664, Note_on_c, 1, 50, 74
4, 5679, Note_on_c, 1, 50, 0
4, 5680, Note_on_c, 1, 53, 73
4, 5695, Note_on_c, 1, 53, 0
4, 5696, Note_on_c, 1, 50, 73
4, 5711, Note_on_c, 1, 50, 0
4, 5712, Note_on_c, 1, 48, 70
4, 5735, Note_on_c, 1, 48, 0
4, 5760, Note_on_c, 1, 72, 64
4, 5760, Note_on_c, 1, 69, 64
4, 5780, Note_on_c, 1, 72, 0
4, 5780, Note_on_c, 1, 69, 0
4, 5808, Note_on_c, 1, 71, 64
4, 5808, Note_on_c, 1, 67, 64
4, 5828, Note_on_c, 1, 71, 0
4, 5828, Note_on_c, 1, 67, 0
4, 5856, Note_on_c, 1, 69, 64
4, 5856, Note_on_c, 1, 65, 64
4, 5904, Note_on_c, 1, 69, 0
4, 5904, Note_on_c, 1, 65, 0
4, 5904, Note_on_c, 1, 67, 64
4, 5904, Note_on_c, 1, 64, 64
4, 5924, Note_on_c, 1, 67, 0
4, 5924, Note_on_c, 1, 64, 0
4, 5952, Note_on_c, 1, 60, 64
4, 5952, Note_on_c, 1, 57, 64
4, 5972, Note_on_c, 1, 60, 0
4, 5972, Note_on_c, 1, 57, 0
4, 6000, Note_on_c, 1, 59, 64
4, 6000, Note_on_c, 1, 55, 64
4, 6020, Note_on_c, 1, 59, 0
4, 6020, Note_on_c, 1, 55, 0
4, 6048, Note_on_c, 1, 57, 64
4, 6048, Note_on_c, 1, 53, 64
4, 6096, Note_on_c, 1, 57, 0
4, 6096, Note_on_c, 1, 53, 0
4, 6096, Note_on_c, 1, 55, 64
4, 6096, Note_on_c, 1, 52, 64
4, 6116, Note_on_c, 1, 55, 0
4, 6116, Note_on_c, 1, 52, 0
4, 6144, Note_on_c, 1, 47, 80
4, 6144, Note_on_c, 1, 35, 80
4, 6178, Note_on_c, 1, 47, 0
4, 6178, Note_on_c, 1, 35, 0
4, 6180, Note_on_c, 1, 48, 80
4, 6180, Note_on_c, 1, 36, 80
4, 6192, Note_on_c, 1, 48, 0
4, 6192, Note_on_c, 1, 36, 0
4, 6192, Note_on_c, 1, 41, 80
4, 6192, Note_on_c, 1, 29, 80
4, 6202, Note_on_c, 1, 41, 0
4, 6202, Note_on_c, 1, 29, 0
4, 6240, Note_on_c, 1, 43, 80
4, 6240, Note_on_c, 1, 31, 80
4, 6250, Note_on_c, 1, 43, 0
4, 6250, Note_on_c, 1, 31, 0
4, 6288, Note_on_c, 1, 48, 80
4, 6288, Note_on_c, 1, 36, 80
4, 6377, Note_on_c, 1, 48, 0
4, 6377, Note_on_c, 1, 36, 0
4, 6480, Note_on_c, 1, 59, 70
4, 6496, Note_on_c, 1, 59, 0
4, 6496, Note_on_c, 1, 60, 70
4, 6511, Note_on_c, 1, 60, 0
4, 6512, Note_on_c, 1, 64, 70
4, 6519, Note_on_c, 1, 64, 0
4, 6528, Note_on_c, 1, 56, 70
4, 6544, Note_on_c, 1, 56, 0
4, 6544, Note_on_c, 1, 57, 70
4, 6559, Note_on_c, 1, 57, 0
4, 6560, Note_on_c, 1, 52, 71
4, 6575, Note_on_c, 1, 52, 0
4, 6576, Note_on_c, 1, 53, 71
4, 6606, Note_on_c, 1, 53, 0
4, 6608, Note_on_c, 1, 52, 71
4, 6623, Note_on_c, 1, 52, 0
4, 6624, Note_on_c, 1, 53, 71
4, 6654, Note_on_c, 1, 53, 0
4, 6656, Note_on_c, 1, 49, 72
4, 6671, Note_on_c, 1, 49, 0
4, 6672, Note_on_c, 1, 50, 72
4, 6682, Note_on_c, 1, 50, 0
4, 6696, Note_on_c, 1, 38, 73
4, 6706, Note_on_c, 1, 38, 0
4, 6720, Note_on_c, 1, 42, 73
4, 6730, Note_on_c, 1, 42, 0
4, 6744, Note_on_c, 1, 45, 73
4, 6754, Note_on_c, 1, 45, 0
4, 6768, Note_on_c, 1, 43, 75
4, 6803, Note_on_c, 1, 43, 0
4, 6816, Note_on_c, 1, 49, 75
4, 6864, Note_on_c, 1, 49, 0
4, 6864, Note_on_c, 1, 50, 75
4, 6879, Note_on_c, 1, 50, 0
4, 6880, Note_on_c, 1, 45, 75
4, 6895, Note_on_c, 1, 45, 0
4, 6896, Note_on_c, 1, 48, 76
4, 6911, Note_on_c, 1, 48, 0
4, 6912, Note_on_c, 1, 47, 78
4, 6927, Note_on_c, 1, 47, 0
4, 6928, Note_on_c, 1, 45, 80
4, 6943, Note_on_c, 1, 45, 0
4, 6944, Note_on_c, 1, 43, 78
4, 6959, Note_on_c, 1, 43, 0
4, 6960, Note_on_c, 1, 50, 75
4, 6970, Note_on_c, 1, 50, 0
4, 7008, Note_on_c, 1, 38, 70
4, 7053, Note_on_c, 1, 38, 0
4, 7152, Note_on_c, 1, 55, 64
4, 7153, Note_on_c, 1, 59, 64
4, 7154, Note_on_c, 1, 62, 64
4, 7155, Note_on_c, 1, 67, 64
4, 7242, Note_on_c, 1, 67, 0
4, 7242, Note_on_c, 1, 62, 0
4, 7242, Note_on_c, 1, 59, 0
4, 7242, Note_on_c, 1, 55, 0
4, 7296, Note_on_c, 1, 67, 64
4, 7296, Note_on_c, 1, 64, 64
4, 7341, Note_on_c, 1, 67, 0
4, 7341, Note_on_c, 1, 64, 0
4, 7344, Note_on_c, 1, 67, 62
4, 7344, Note_on_c, 1, 62, 62
4, 7389, Note_on_c, 1, 67, 0
4, 7389, Note_on_c, 1, 62, 0
4, 7392, Note_on_c, 1, 66, 60
4, 7392, Note_on_c, 1, 62, 60
4, 7437, Note_on_c, 1, 66, 0
4, 7437, Note_on_c, 1, 62, 0
4, 7440, Note_on_c, 1, 59, 64
4, 7455, Note_on_c, 1, 59, 0
4, 7456, Note_on_c, 1, 62, 64
4, 7471, Note_on_c, 1, 62, 0
4, 7472, Note_on_c, 1, 67, 64
4, 7487, Note_on_c, 1, 67, 0
4, 7488, Note_on_c, 1, 59, 64
4, 7503, Note_on_c, 1, 59, 0
4, 7504, Note_on_c, 1, 62, 64
4, 7519, Note_on_c, 1, 62, 0
4, 7520, Note_on_c, 1, 67, 64
4, 7535, Note_on_c, 1, 67, 0
4, 7536, Note_on_c, 1, 60, 64
4, 7551, Note_on_c, 1, 60, 0
4, 7552, Note_on_c, 1, 64, 64
4, 7567, Note_on_c, 1, 64, 0
4, 7568, Note_on_c, 1, 67, 64
4, 7583, Note_on_c, 1, 67, 0
4, 7584, Note_on_c, 1, 61, 65
4, 7599, Note_on_c, 1, 61, 0
4, 7600, Note_on_c, 1, 64, 65
4, 7615, Note_on_c, 1, 64, 0
4, 7616, Note_on_c, 1, 67, 66
4, 7631, Note_on_c, 1, 67, 0
4, 7632, Note_on_c, 1, 62, 66
4, 7647, Note_on_c, 1, 62, 0
4, 7648, Note_on_c, 1, 66, 67
4, 7663, Note_on_c, 1, 66, 0
4, 7664, Note_on_c, 1, 69, 67
4, 7679, Note_on_c, 1, 69, 0
4, 7680, Note_on_c, 1, 63, 68
4, 7695, Note_on_c, 1, 63, 0
4, 7696, Note_on_c, 1, 66, 68
4, 7711, Note_on_c, 1, 66, 0
4, 7712, Note_on_c, 1, 69, 69
4, 7727, Note_on_c, 1, 69, 0
4, 7728, Note_on_c, 1, 64, 69
4, 7743, Note_on_c, 1, 64, 0
4, 7744, Note_on_c, 1, 67, 69
4, 7759, Note_on_c, 1, 67, 0
4, 7760, Note_on_c, 1, 71, 70
4, 7775, Note_on_c, 1, 71, 0
4, 7776, Note_on_c, 1, 64, 70
4, 7791, Note_on_c, 1, 64, 0
4, 7792, Note_on_c, 1, 67, 71
4, 7807, Note_on_c, 1, 67, 0
4, 7808, Note_on_c, 1, 71, 71
4, 7823, Note_on_c, 1, 71, 0
4, 7824, Note_on_c, 1, 66, 75
4, 7869, Note_on_c, 1, 66, 0
4, 8016, Note_on_c, 1, 71, 75
4, 8061, Note_on_c, 1, 71, 0
4, 8112, Note_on_c, 1, 60, 80
4, 8124, Note_on_c, 1, 60, 0
4, 8124, Note_on_c, 1, 62, 80
4, 8136, Note_on_c, 1, 62, 0
4, 8136, Note_on_c, 1, 64, 80
4, 8148, Note_on_c, 1, 64, 0
4, 8148, Note_on_c, 1, 62, 80
4, 8160, Note_on_c, 1, 62, 0
4, 8160, Note_on_c, 1, 60, 80
4, 8172, Note_on_c, 1, 60, 0
4, 8172, Note_on_c, 1, 59, 80
4, 8184, Note_on_c, 1, 59, 0
4, 8184, Note_on_c, 1, 57, 80
4, 8196, Note_on_c, 1, 57, 0
4, 8196, Note_on_c, 1, 55, 80
4, 8208, Note_on_c, 1, 55, 0
4, 8208, Note_on_c, 1, 54, 80
4, 8220, Note_on_c, 1, 54, 0
4, 8220, Note_on_c, 1, 55, 80
4, 8232, Note_on_c, 1, 55, 0
4, 8232, Note_on_c, 1, 57, 80
4, 8244, Note_on_c, 1, 57, 0
4, 8244, Note_on_c, 1, 55, 80
4, 8256, Note_on_c, 1, 55, 0
4, 8256, Note_on_c, 1, 54, 80
4, 8268, Note_on_c, 1, 54, 0
4, 8268, Note_on_c, 1, 52, 80
4, 8280, Note_on_c, 1, 52, 0
4, 8280, Note_on_c, 1, 50, 80
4, 8292, Note_on_c, 1, 50, 0
4, 8292, Note_on_c, 1, 48, 80
4, 8304, Note_on_c, 1, 48, 0
4, 8304, Note_on_c, 1, 50, 80
4, 8319, Note_on_c, 1, 50, 0
4, 8320, Note_on_c, 1, 54, 80
4, 8335, Note_on_c, 1, 54, 0
4, 8336, Note_on_c, 1, 57, 80
4, 8351, Note_on_c, 1, 57, 0
4, 8352, Note_on_c, 1, 50, 80
4, 8367, Note_on_c, 1, 50, 0
4, 8368, Note_on_c, 1, 54, 80
4, 8383, Note_on_c, 1, 54, 0
4, 8384, Note_on_c, 1, 57, 80
4, 8399, Note_on_c, 1, 57, 0
4, 8400, Note_on_c, 1, 50, 80
4, 8415, Note_on_c, 1, 50, 0
4, 8416, Note_on_c, 1, 55, 80
4, 8431, Note_on_c, 1, 55, 0
4, 8432, Note_on_c, 1, 59, 80
4, 8447, Note_on_c, 1, 59, 0
4, 8448, Note_on_c, 1, 50, 80
4, 8463, Note_on_c, 1, 50, 0
4, 8464, Note_on_c, 1, 55, 80
4, 8479, Note_on_c, 1, 55, 0
4, 8480, Note_on_c, 1, 59, 80
4, 8495, Note_on_c, 1, 59, 0
4, 8496, Note_on_c, 1, 50, 80
4, 8511, Note_on_c, 1, 50, 0
4, 8512, Note_on_c, 1, 57, 80
4, 8527, Note_on_c, 1, 57, 0
4, 8528, Note_on_c, 1, 60, 80
4, 8543, Note_on_c, 1, 60, 0
4, 8544, Note_on_c, 1, 50, 80
4, 8559, Note_on_c, 1, 50, 0
4, 8560, Note_on_c, 1, 57, 78
4, 8575, Note_on_c, 1, 57, 0
4, 8576, Note_on_c, 1, 60, 77
4, 8591, Note_on_c, 1, 60, 0
4, 8592, Note_on_c, 1, 69, 75
4, 8681, Note_on_c, 1, 69, 0
4, 8880, Note_on_c, 1, 50, 75
4, 8896, Note_on_c, 1, 50, 0
4, 8896, Note_on_c, 1, 54, 75
4, 8911, Note_on_c, 1, 54, 0
4, 8912, Note_on_c, 1, 57, 75
4, 8927, Note_on_c, 1, 57, 0
4, 8928, Note_on_c, 1, 50, 75
4, 8943, Note_on_c, 1, 50, 0
4, 8944, Note_on_c, 1, 54, 75
4, 8959, Note_on_c, 1, 54, 0
4, 8960, Note_on_c, 1, 57, 75
4, 8975, Note_on_c, 1, 57, 0
4, 8976, Note_on_c, 1, 50, 75
4, 8991, Note_on_c, 1, 50, 0
4, 8992, Note_on_c, 1, 55, 75
4, 9007, Note_on_c, 1, 55, 0
4, 9008, Note_on_c, 1, 58, 75
4, 9023, Note_on_c, 1, 58, 0
4, 9024, Note_on_c, 1, 50, 75
4, 9039, Note_on_c, 1, 50, 0
4, 9040, Note_on_c, 1, 55, 75
4, 9055, Note_on_c, 1, 55, 0
4, 9056, Note_on_c, 1, 58, 75
4, 9071, Note_on_c, 1, 58, 0
4, 9072, Note_on_c, 1, 50, 75
4, 9087, Note_on_c, 1, 50, 0
4, 9088, Note_on_c, 1, 57, 75
4, 9103, Note_on_c, 1, 57, 0
4, 9104, Note_on_c, 1, 60, 75
4, 9119, Note_on_c, 1, 60, 0
4, 9120, Note_on_c, 1, 50, 75
4, 9135, Note_on_c, 1, 50, 0
4, 9136, Note_on_c, 1, 57, 75
4, 9151, Note_on_c, 1, 57, 0
4, 9152, Note_on_c, 1, 60, 75
4, 9167, Note_on_c, 1, 60, 0
4, 9168, Note_on_c, 1, 69, 75
4, 9168, Note_on_c, 1, 66, 75
4, 9257, Note_on_c, 1, 69, 0
4, 9257, Note_on_c, 1, 66, 0
4, 9456, Note_on_c, 1, 61, 70
4, 9504, Note_on_c, 1, 61, 0
4, 9504, Note_on_c, 1, 64, 70
4, 9549, Note_on_c, 1, 64, 0
4, 9552, Note_on_c, 1, 61, 70
4, 9600, Note_on_c, 1, 61, 0
4, 9600, Note_on_c, 1, 64, 70
4, 9645, Note_on_c, 1, 64, 0
4, 9648, Note_on_c, 1, 61, 70
4, 9696, Note_on_c, 1, 61, 0
4, 9696, Note_on_c, 1, 64, 70
4, 9741, Note_on_c, 1, 64, 0
4, 9840, Note_on_c, 1, 50, 64
4, 9855, Note_on_c, 1, 50, 0
4, 9856, Note_on_c, 1, 55, 64
4, 9871, Note_on_c, 1, 55, 0
4, 9872, Note_on_c, 1, 59, 64
4, 9887, Note_on_c, 1, 59, 0
4, 9888, Note_on_c, 1, 62, 64
4, 9903, Note_on_c, 1, 62, 0
4, 9904, Note_on_c, 1, 59, 64
4, 9919, Note_on_c, 1, 59, 0
4, 9920, Note_on_c, 1, 55, 64
4, 9935, Note_on_c, 1, 55, 0
4, 9936, Note_on_c, 1, 50, 64
4, 9951, Note_on_c, 1, 50, 0
4, 9952, Note_on_c, 1, 54, 64
4, 9967, Note_on_c, 1, 54, 0
4, 9968, Note_on_c, 1, 57, 64
4, 9983, Note_on_c, 1, 57, 0
4, 9984, Note_on_c, 1, 62, 64
4, 9999, Note_on_c, 1, 62, 0
4, 10000, Note_on_c, 1, 57, 64
4, 10015, Note_on_c, 1, 57, 0
4, 10016, Note_on_c, 1, 54, 64
4, 10031, Note_on_c, 1, 54, 0
4, 10032, Note_on_c, 1, 55, 64
4, 10047, Note_on_c, 1, 55, 0
4, 10048, Note_on_c, 1, 59, 64
4, 10063, Note_on_c, 1, 59, 0
4, 10064, Note_on_c, 1, 62, 64
4, 10079, Note_on_c, 1, 62, 0
4, 10080, Note_on_c, 1, 67, 64
4, 10095, Note_on_c, 1, 67, 0
4, 10096, Note_on_c, 1, 62, 64
4, 10111, Note_on_c, 1, 62, 0
4, 10112, Note_on_c, 1, 59, 64
4, 10127, Note_on_c, 1, 59, 0
4, 10128, Note_on_c, 1, 55, 64
4, 10217, Note_on_c, 1, 55, 0
4, 10272, Note_on_c, 1, 41, 75
4, 10287, Note_on_c, 1, 41, 0
4, 10288, Note_on_c, 1, 47, 77
4, 10303, Note_on_c, 1, 47, 0
4, 10304, Note_on_c, 1, 50, 79
4, 10319, Note_on_c, 1, 50, 0
4, 10320, Note_on_c, 1, 53, 79
4, 10335, Note_on_c, 1, 53, 0
4, 10336, Note_on_c, 1, 50, 78
4, 10351, Note_on_c, 1, 50, 0
4, 10352, Note_on_c, 1, 47, 77
4, 10367, Note_on_c, 1, 47, 0
4, 10368, Note_on_c, 1, 41, 75
4, 10413, Note_on_c, 1, 41, 0
4, 10416, Note_on_c, 1, 40, 75
4, 10439, Note_on_c, 1, 40, 0
4, 10440, Note_on_c, 1, 39, 75
4, 10463, Note_on_c, 1, 39, 0
4, 10464, Note_on_c, 1, 40, 75
4, 10470, Note_on_c, 1, 40, 0
4, 10470, Note_on_c, 1, 54, 75
4, 10470, Note_on_c, 1, 51, 75
4, 10470, Note_on_c, 1, 48, 75
4, 10531, Note_on_c, 1, 54, 0
4, 10531, Note_on_c, 1, 51, 0
4, 10531, Note_on_c, 1, 48, 0
4, 10560, Note_on_c, 1, 52, 70
4, 10575, Note_on_c, 1, 52, 0
4, 10576, Note_on_c, 1, 55, 70
4, 10591, Note_on_c, 1, 55, 0
4, 10592, Note_on_c, 1, 52, 70
4, 10607, Note_on_c, 1, 52, 0
4, 10608, Note_on_c, 1, 54, 71
4, 10623, Note_on_c, 1, 54, 0
4, 10624, Note_on_c, 1, 57, 71
4, 10639, Note_on_c, 1, 57, 0
4, 10640, Note_on_c, 1, 54, 72
4, 10655, Note_on_c, 1, 54, 0
4, 10656, Note_on_c, 1, 55, 72
4, 10671, Note_on_c, 1, 55, 0
4, 10672, Note_on_c, 1, 59, 72
4, 10687, Note_on_c, 1, 59, 0
4, 10688, Note_on_c, 1, 55, 73
4, 10703, Note_on_c, 1, 55, 0
4, 10704, Note_on_c, 1, 57, 73
4, 10719, Note_on_c, 1, 57, 0
4, 10720, Note_on_c, 1, 60, 74
4, 10735, Note_on_c, 1, 60, 0
4, 10736, Note_on_c, 1, 57, 74
4, 10751, Note_on_c, 1, 57, 0
4, 10752, Note_on_c, 1, 55, 75
4, 10767, Note_on_c, 1, 55, 0
4, 10768, Note_on_c, 1, 59, 74
4, 10783, Note_on_c, 1, 59, 0
4, 10784, Note_on_c, 1, 55, 74
4, 10799, Note_on_c, 1, 55, 0
4, 10800, Note_on_c, 1, 54, 73
4, 10815, Note_on_c, 1, 54, 0
4, 10816, Note_on_c, 1, 57, 73
4, 10831, Note_on_c, 1, 57, 0
4, 10832, Note_on_c, 1, 54, 72
4, 10847, Note_on_c, 1, 54, 0
4, 10848, Note_on_c, 1, 52, 70
4, 10863, Note_on_c, 1, 52, 0
4, 10864, Note_on_c, 1, 55, 70
4, 10879, Note_on_c, 1, 55, 0
4, 10880, Note_on_c, 1, 52, 70
4, 10895, Note_on_c, 1, 52, 0
4, 10896, Note_on_c, 1, 54, 71
4, 10911, Note_on_c, 1, 54, 0
4, 10912, Note_on_c, 1, 57, 71
4, 10927, Note_on_c, 1, 57, 0
4, 10928, Note_on_c, 1, 54, 71
4, 10943, Note_on_c, 1, 54, 0
4, 10944, Note_on_c, 1, 55, 72
4, 10959, Note_on_c, 1, 55, 0
4, 10960, Note_on_c, 1, 59, 72
4, 10975, Note_on_c, 1, 59, 0
4, 10976, Note_on_c, 1, 55, 73
4, 10991, Note_on_c, 1, 55, 0
4, 10992, Note_on_c, 1, 57, 73
4, 11007, Note_on_c, 1, 57, 0
4, 11008, Note_on_c, 1, 60, 73
4, 11023, Note_on_c, 1, 60, 0
4, 11024, Note_on_c, 1, 57, 74
4, 11039, Note_on_c, 1, 57, 0
4, 11040, Note_on_c, 1, 55, 74
4, 11055, Note_on_c, 1, 55, 0
4, 11056, Note_on_c, 1, 59, 75
4, 11071, Note_on_c, 1, 59, 0
4, 11072, Note_on_c, 1, 55, 74
4, 11087, Note_on_c, 1, 55, 0
4, 11088, Note_on_c, 1, 54, 74
4, 11103, Note_on_c, 1, 54, 0
4, 11104, Note_on_c, 1, 57, 73
4, 11119, Note_on_c, 1, 57, 0
4, 11120, Note_on_c, 1, 54, 73
4, 11135, Note_on_c, 1, 54, 0
4, 11136, Note_on_c, 1, 52, 70
4, 11151, Note_on_c, 1, 52, 0
4, 11152, Note_on_c, 1, 55, 70
4, 11167, Note_on_c, 1, 55, 0
4, 11168, Note_on_c, 1, 52, 70
4, 11183, Note_on_c, 1, 52, 0
4, 11184, Note_on_c, 1, 50, 70
4, 11199, Note_on_c, 1, 50, 0
4, 11200, Note_on_c, 1, 54, 70
4, 11215, Note_on_c, 1, 54, 0
4, 11216, Note_on_c, 1, 50, 70
4, 11231, Note_on_c, 1, 50, 0
4, 11232, Note_on_c, 1, 48, 70
4, 11247, Note_on_c, 1, 48, 0
4, 11248, Note_on_c, 1, 52, 70
4, 11263, Note_on_c, 1, 52, 0
4, 11264, Note_on_c, 1, 48, 70
4, 11279, Note_on_c, 1, 48, 0
4, 11280, Note_on_c, 1, 47, 70
4, 11295, Note_on_c, 1, 47, 0
4, 11296, Note_on_c, 1, 50, 70
4, 11311, Note_on_c, 1, 50, 0
4, 11312, Note_on_c, 1, 47, 70
4, 11327, Note_on_c, 1, 47, 0
4, 11328, Note_on_c, 1, 45, 75
4, 11417, Note_on_c, 1, 45, 0
4, 11424, Note_on_c, 1, 47, 71
4, 11447, Note_on_c, 1, 47, 0
4, 11448, Note_on_c, 1, 59, 70
4, 11471, Note_on_c, 1, 59, 0
4, 11472, Note_on_c, 1, 47, 70
4, 11495, Note_on_c, 1, 47, 0
4, 11496, Note_on_c, 1, 47, 70
4, 11519, Note_on_c, 1, 47, 0
4, 11520, Note_on_c, 1, 47, 70
4, 11543, Note_on_c, 1, 47, 0
4, 11544, Note_on_c, 1, 59, 70
4, 11567, Note_on_c, 1, 59, 0
4, 11568, Note_on_c, 1, 47, 70
4, 11591, Note_on_c, 1, 47, 0
4, 11592, Note_on_c, 1, 47, 70
4, 11615, Note_on_c, 1, 47, 0
4, 11616, Note_on_c, 1, 47, 70
4, 11639, Note_on_c, 1, 47, 0
4, 11640, Note_on_c, 1, 59, 70
4, 11663, Note_on_c, 1, 59, 0
4, 11664, Note_on_c, 1, 47, 70
4, 11687, Note_on_c, 1, 47, 0
4, 11688, Note_on_c, 1, 47, 70
4, 11711, Note_on_c, 1, 47, 0
4, 11712, Note_on_c, 1, 47, 70
4, 11735, Note_on_c, 1, 47, 0
4, 11736, Note_on_c, 1, 59, 70
4, 11759, Note_on_c, 1, 59, 0
4, 11760, Note_on_c, 1, 47, 70
4, 11783, Note_on_c, 1, 47, 0
4, 11784, Note_on_c, 1, 47, 70
4, 11807, Note_on_c, 1, 47, 0
4, 11808, Note_on_c, 1, 47, 70
4, 11831, Note_on_c, 1, 47, 0
4, 11832, Note_on_c, 1, 59, 70
4, 11855, Note_on_c, 1, 59, 0
4, 11856, Note_on_c, 1, 47, 70
4, 11879, Note_on_c, 1, 47, 0
4, 11880, Note_on_c, 1, 47, 71
4, 11903, Note_on_c, 1, 47, 0
4, 11904, Note_on_c, 1, 47, 71
4, 11927, Note_on_c, 1, 47, 0
4, 11928, Note_on_c, 1, 59, 72
4, 11951, Note_on_c, 1, 59, 0
4, 11952, Note_on_c, 1, 47, 72
4, 11975, Note_on_c, 1, 47, 0
4, 11976, Note_on_c, 1, 47, 72
4, 11999, Note_on_c, 1, 47, 0
4, 12000, Note_on_c, 1, 47, 73
4, 12023, Note_on_c, 1, 47, 0
4, 12024, Note_on_c, 1, 59, 73
4, 12047, Note_on_c, 1, 59, 0
4, 12048, Note_on_c, 1, 47, 74
4, 12071, Note_on_c, 1, 47, 0
4, 12072, Note_on_c, 1, 47, 74
4, 12095, Note_on_c, 1, 47, 0
4, 12096, Note_on_c, 1, 45, 75
4, 12119, Note_on_c, 1, 45, 0
4, 12120, Note_on_c, 1, 57, 75
4, 12143, Note_on_c, 1, 57, 0
4, 12144, Note_on_c, 1, 45, 75
4, 12167, Note_on_c, 1, 45, 0
4, 12168, Note_on_c, 1, 45, 75
4, 12191, Note_on_c, 1, 45, 0
4, 12192, Note_on_c, 1, 45, 75
4, 12215, Note_on_c, 1, 45, 0
4, 12216, Note_on_c, 1, 57, 75
4, 12239, Note_on_c, 1, 57, 0
4, 12240, Note_on_c, 1, 45, 75
4, 12263, Note_on_c, 1, 45, 0
4, 12264, Note_on_c, 1, 45, 75
4, 12287, Note_on_c, 1, 45, 0
4, 12288, Note_on_c, 1, 43, 75
4, 12311, Note_on_c, 1, 43, 0
4, 12312, Note_on_c, 1, 55, 75
4, 12335, Note_on_c, 1, 55, 0
4, 12336, Note_on_c, 1, 43, 75
4, 12359, Note_on_c, 1, 43, 0
4, 12360, Note_on_c, 1, 43, 75
4, 12383, Note_on_c, 1, 43, 0
4, 12384, Note_on_c, 1, 43, 75
4, 12407, Note_on_c, 1, 43, 0
4, 12408, Note_on_c, 1, 55, 75
4, 12431, Note_on_c, 1, 55, 0
4, 12432, Note_on_c, 1, 43, 75
4, 12455, Note_on_c, 1, 43, 0
4, 12456, Note_on_c, 1, 43, 75
4, 12479, Note_on_c, 1, 43, 0
4, 12480, Note_on_c, 1, 41, 75
4, 12503, Note_on_c, 1, 41, 0
4, 12504, Note_on_c, 1, 53, 74
4, 12527, Note_on_c, 1, 53, 0
4, 12528, Note_on_c, 1, 41, 74
4, 12551, Note_on_c, 1, 41, 0
4, 12552, Note_on_c, 1, 41, 73
4, 12575, Note_on_c, 1, 41, 0
4, 12576, Note_on_c, 1, 39, 73
4, 12599, Note_on_c, 1, 39, 0
4, 12600, Note_on_c, 1, 51, 72
4, 12623, Note_on_c, 1, 51, 0
4, 12624, Note_on_c, 1, 39, 72
4, 12647, Note_on_c, 1, 39, 0
4, 12648, Note_on_c, 1, 39, 71
4, 12671, Note_on_c, 1, 39, 0
4, 12672, Note_on_c, 1, 38, 71
4, 12695, Note_on_c, 1, 38, 0
4, 12696, Note_on_c, 1, 50, 70
4, 12719, Note_on_c, 1, 50, 0
4, 12720, Note_on_c, 1, 38, 70
4, 12743, Note_on_c, 1, 38, 0
4, 12744, Note_on_c, 1, 38, 69
4, 12767, Note_on_c, 1, 38, 0
4, 12768, Note_on_c, 1, 37, 69
4, 12791, Note_on_c, 1, 37, 0
4, 12792, Note_on_c, 1, 49, 69
4, 12815, Note_on_c, 1, 49, 0
4, 12816, Note_on_c, 1, 37, 68
4, 12839, Note_on_c, 1, 37, 0
4, 12840, Note_on_c, 1, 37, 68
4, 12863, Note_on_c, 1, 37, 0
4, 12864, Note_on_c, 1, 36, 67
4, 12887, Note_on_c, 1, 36, 0
4, 12888, Note_on_c, 1, 48, 67
4, 12911, Note_on_c, 1, 48, 0
4, 12912, Note_on_c, 1, 36, 66
4, 12935, Note_on_c, 1, 36, 0
4, 12936, Note_on_c, 1, 36, 66
4, 12960, Note_on_c, 1, 36, 0
4, 12960, Note_on_c, 1, 35, 65
4, 13049, Note_on_c, 1, 35, 0
4, 13152, Control_c, 1, 64, 127
4, 13152, Note_on_c, 1, 50, 75
4, 13152, Note_on_c, 1, 47, 75
4, 13152, Note_on_c, 1, 43, 75
4, 13241, Note_on_c, 1, 50, 0
4, 13241, Note_on_c, 1, 47, 0
4, 13241, Note_on_c, 1, 43, 0
4, 13248, Note_on_c, 1, 50, 75
4, 13248, Note_on_c, 1, 47, 75
4, 13248, Note_on_c, 1, 43, 75
4, 13293, Note_on_c, 1, 50, 0
4, 13293, Note_on_c, 1, 47, 0
4, 13293, Note_on_c, 1, 43, 0
4, 13296, Note_on_c, 1, 50, 76
4, 13296, Note_on_c, 1, 47, 76
4, 13296, Note_on_c, 1, 43, 76
4, 13341, Note_on_c, 1, 50, 0
4, 13341, Note_on_c, 1, 47, 0
4, 13341, Note_on_c, 1, 43, 0
4, 13344, Note_on_c, 1, 50, 77
4, 13344, Note_on_c, 1, 47, 77
4, 13344, Note_on_c, 1, 43, 77
4, 13389, Note_on_c, 1, 50, 0
4, 13389, Note_on_c, 1, 47, 0
4, 13389, Note_on_c, 1, 43, 0
4, 13392, Note_on_c, 1, 50, 78
4, 13392, Note_on_c, 1, 47, 78
4, 13392, Note_on_c, 1, 43, 78
4, 13437, Note_on_c, 1, 50, 0
4, 13437, Note_on_c, 1, 47, 0
4, 13437, Note_on_c, 1, 43, 0
4, 13440, Control_c, 1, 64, 0
4, 13440, Note_on_c, 1, 36, 70
4, 13455, Note_on_c, 1, 36, 0
4, 13456, Note_on_c, 1, 40, 70
4, 13471, Note_on_c, 1, 40, 0
4, 13472, Note_on_c, 1, 36, 70
4, 13487, Note_on_c, 1, 36, 0
4, 13488, Note_on_c, 1, 38, 71
4, 13503, Note_on_c, 1, 38, 0
4, 13504, Note_on_c, 1, 41, 71
4, 13519, Note_on_c, 1, 41, 0
4, 13520, Note_on_c, 1, 38, 72
4, 13535, Note_on_c, 1, 38, 0
4, 13536, Note_on_c, 1, 40, 72
4, 13551, Note_on_c, 1, 40, 0
4, 13552, Note_on_c, 1, 43, 72
4, 13567, Note_on_c, 1, 43, 0
4, 13568, Note_on_c, 1, 40, 73
4, 13583, Note_on_c, 1, 40, 0
4, 13584, Note_on_c, 1, 41, 73
4, 13599, Note_on_c, 1, 41, 0
4, 13600, Note_on_c, 1, 45, 74
4, 13615, Note_on_c, 1, 45, 0
4, 13616, Note_on_c, 1, 41, 74
4, 13631, Note_on_c, 1, 41, 0
4, 13632, Note_on_c, 1, 40, 75
4, 13647, Note_on_c, 1, 40, 0
4, 13648, Note_on_c, 1, 43, 74
4, 13663, Note_on_c, 1, 43, 0
4, 13664, Note_on_c, 1, 40, 74
4, 13679, Note_on_c, 1, 40, 0
4, 13680, Note_on_c, 1, 38, 73
4, 13695, Note_on_c, 1, 38, 0
4, 13696, Note_on_c, 1, 41, 73
4, 13711, Note_on_c, 1, 41, 0
4, 13712, Note_on_c, 1, 38, 72
4, 13727, Note_on_c, 1, 38, 0
4, 13728, Note_on_c, 1, 36, 70
4, 13743, Note_on_c, 1, 36, 0
4, 13744, Note_on_c, 1, 40, 70
4, 13759, Note_on_c, 1, 40, 0
4, 13760, Note_on_c, 1, 36, 70
4, 13775, Note_on_c, 1, 36, 0
4, 13776, Note_on_c, 1, 40, 70
4, 13791, Note_on_c, 1, 40, 0
4, 13792, Note_on_c, 1, 43, 70
4, 13807, Note_on_c, 1, 43, 0
4, 13808, Note_on_c, 1, 40, 70
4, 13823, Note_on_c, 1, 40, 0
4, 13824, Note_on_c, 1, 41, 70
4, 13839, Note_on_c, 1, 41, 0
4, 13840, Note_on_c, 1, 45, 70
4, 13855, Note_on_c, 1, 45, 0
4, 13856, Note_on_c, 1, 41, 71
4, 13871, Note_on_c, 1, 41, 0
4, 13872, Note_on_c, 1, 42, 71
4, 13887, Note_on_c, 1, 42, 0
4, 13888, Note_on_c, 1, 45, 71
4, 13903, Note_on_c, 1, 45, 0
4, 13904, Note_on_c, 1, 42, 71
4, 13919, Note_on_c, 1, 42, 0
4, 13920, Note_on_c, 1, 43, 71
4, 13935, Note_on_c, 1, 43, 0
4, 13936, Note_on_c, 1, 47, 72
4, 13951, Note_on_c, 1, 47, 0
4, 13952, Note_on_c, 1, 43, 72
4, 13967, Note_on_c, 1, 43, 0
4, 13968, Note_on_c, 1, 47, 72
4, 13983, Note_on_c, 1, 47, 0
4, 13984, Note_on_c, 1, 50, 72
4, 13999, Note_on_c, 1, 50, 0
4, 14000, Note_on_c, 1, 47, 72
4, 14015, Note_on_c, 1, 47, 0
4, 14016, Note_on_c, 1, 48, 73
4, 14031, Note_on_c, 1, 48, 0
4, 14032, Note_on_c, 1, 52, 73
4, 14047, Note_on_c, 1, 52, 0
4, 14048, Note_on_c, 1, 55, 73
4, 14063, Note_on_c, 1, 55, 0
4, 14064, Note_on_c, 1, 52, 75
4, 14079, Note_on_c, 1, 52, 0
4, 14080, Note_on_c, 1, 55, 75
4, 14095, Note_on_c, 1, 55, 0
4, 14096, Note_on_c, 1, 60, 75
4, 14111, Note_on_c, 1, 60, 0
4, 14112, Note_on_c, 1, 53, 75
4, 14127, Note_on_c, 1, 53, 0
4, 14128, Note_on_c, 1, 56, 74
4, 14143, Note_on_c, 1, 56, 0
4, 14144, Note_on_c, 1, 60, 73
4, 14159, Note_on_c, 1, 60, 0
4, 14160, Note_on_c, 1, 51, 73
4, 14175, Note_on_c, 1, 51, 0
4, 14176, Note_on_c, 1, 56, 72
4, 14191, Note_on_c, 1, 56, 0
4, 14192, Note_on_c, 1, 60, 72
4, 14207, Note_on_c, 1, 60, 0
4, 14208, Note_on_c, 1, 49, 71
4, 14223, Note_on_c, 1, 49, 0
4, 14224, Note_on_c, 1, 56, 71
4, 14239, Note_on_c, 1, 56, 0
4, 14240, Note_on_c, 1, 60, 70
4, 14255, Note_on_c, 1, 60, 0
4, 14256, Note_on_c, 1, 48, 70
4, 14271, Note_on_c, 1, 48, 0
4, 14272, Note_on_c, 1, 56, 69
4, 14287, Note_on_c, 1, 56, 0
4, 14288, Note_on_c, 1, 60, 68
4, 14303, Note_on_c, 1, 60, 0
4, 14304, Note_on_c, 1, 47, 68
4, 14349, Note_on_c, 1, 47, 0
4, 14416, Note_on_c, 1, 50, 70
4, 14431, Note_on_c, 1, 50, 0
4, 14432, Note_on_c, 1, 53, 70
4, 14447, Note_on_c, 1, 53, 0
4, 14448, Note_on_c, 1, 51, 70
4, 14463, Note_on_c, 1, 51, 0
4, 14464, Note_on_c, 1, 50, 70
4, 14479, Note_on_c, 1, 50, 0
4, 14480, Note_on_c, 1, 48, 70
4, 14495, Note_on_c, 1, 48, 0
4, 14496, Note_on_c, 1, 55, 70
4, 14541, Note_on_c, 1, 55, 0
4, 14592, Note_on_c, 1, 60, 64
4, 14593, Note_on_c, 1, 64, 64
4, 14594, Note_on_c, 1, 67, 64
4, 14595, Note_on_c, 1, 72, 64
4, 14682, Note_on_c, 1, 72, 0
4, 14682, Note_on_c, 1, 67, 0
4, 14682, Note_on_c, 1, 64, 0
4, 14682, Note_on_c, 1, 60, 0
4, 14736, Note_on_c, 1, 72, 64
4, 14736, Note_on_c, 1, 69, 64
4, 14781, Note_on_c, 1, 72, 0
4, 14781, Note_on_c, 1, 69, 0
4, 14784, Note_on_c, 1, 72, 62
4, 14784, Note_on_c, 1, 67, 62
4, 14829, Note_on_c, 1, 72, 0
4, 14829, Note_on_c, 1, 67, 0
4, 14832, Note_on_c, 1, 71, 60
4, 14832, Note_on_c, 1, 65, 60
4, 14877, Note_on_c, 1, 71, 0
4, 14877, Note_on_c, 1, 65, 0
4, 14880, Note_on_c, 1, 64, 64
4, 14895, Note_on_c, 1, 64, 0
4, 14896, Note_on_c, 1, 67, 64
4, 14911, Note_on_c, 1, 67, 0
4, 14912, Note_on_c, 1, 72, 64
4, 14927, Note_on_c, 1, 72, 0
4, 14928, Note_on_c, 1, 52, 64
4, 14943, Note_on_c, 1, 52, 0
4, 14944, Note_on_c, 1, 55, 64
4, 14959, Note_on_c, 1, 55, 0
4, 14960, Note_on_c, 1, 60, 64
4, 14975, Note_on_c, 1, 60, 0
4, 14976, Note_on_c, 1, 53, 64
4, 14991, Note_on_c, 1, 53, 0
4, 14992, Note_on_c, 1, 57, 65
4, 15007, Note_on_c, 1, 57, 0
4, 15008, Note_on_c, 1, 60, 65
4, 15023, Note_on_c, 1, 60, 0
4, 15024, Note_on_c, 1, 54, 65
4, 15039, Note_on_c, 1, 54, 0
4, 15040, Note_on_c, 1, 57, 66
4, 15055, Note_on_c, 1, 57, 0
4, 15056, Note_on_c, 1, 60, 66
4, 15071, Note_on_c, 1, 60, 0
4, 15072, Note_on_c, 1, 55, 66
4, 15087, Note_on_c, 1, 55, 0
4, 15088, Note_on_c, 1, 59, 67
4, 15103, Note_on_c, 1, 59, 0
4, 15104, Note_on_c, 1, 62, 67
4, 15119, Note_on_c, 1, 62, 0
4, 15120, Note_on_c, 1, 56, 67
4, 15135, Note_on_c, 1, 56, 0
4, 15136, Note_on_c, 1, 59, 68
4, 15151, Note_on_c, 1, 59, 0
4, 15152, Note_on_c, 1, 62, 68
4, 15167, Note_on_c, 1, 62, 0
4, 15168, Note_on_c, 1, 57, 68
4, 15183, Note_on_c, 1, 57, 0
4, 15184, Note_on_c, 1, 60, 69
4, 15199, Note_on_c, 1, 60, 0
4, 15200, Note_on_c, 1, 64, 69
4, 15215, Note_on_c, 1, 64, 0
4, 15216, Note_on_c, 1, 57, 70
4, 15231, Note_on_c, 1, 57, 0
4, 15232, Note_on_c, 1, 60, 70
4, 15247, Note_on_c, 1, 60, 0
4, 15248, Note_on_c, 1, 64, 70
4, 15263, Note_on_c, 1, 64, 0
4, 15264, Note_on_c, 1, 59, 71
4, 15309, Note_on_c, 1, 59, 0
4, 15456, Note_on_c, 1, 43, 75
4, 15471, Note_on_c, 1, 43, 0
4, 15472, Note_on_c, 1, 50, 75
4, 15487, Note_on_c, 1, 50, 0
4, 15488, Note_on_c, 1, 55, 75
4, 15503, Note_on_c, 1, 55, 0
4, 15504, Note_on_c, 1, 43, 75
4, 15519, Note_on_c, 1, 43, 0
4, 15520, Note_on_c, 1, 50, 76
4, 15535, Note_on_c, 1, 50, 0
4, 15536, Note_on_c, 1, 55, 76
4, 15551, Note_on_c, 1, 55, 0
4, 15552, Note_on_c, 1, 43, 76
4, 15567, Note_on_c, 1, 43, 0
4, 15568, Note_on_c, 1, 52, 76
4, 15583, Note_on_c, 1, 52, 0
4, 15584, Note_on_c, 1, 55, 77
4, 15599, Note_on_c, 1, 55, 0
4, 15600, Note_on_c, 1, 43, 77
4, 15615, Note_on_c, 1, 43, 0
4, 15616, Note_on_c, 1, 52, 77
4, 15631, Note_on_c, 1, 52, 0
4, 15632, Note_on_c, 1, 55, 77
4, 15647, Note_on_c, 1, 55, 0
4, 15648, Note_on_c, 1, 43, 78
4, 15663, Note_on_c, 1, 43, 0
4, 15664, Note_on_c, 1, 53, 78
4, 15679, Note_on_c, 1, 53, 0
4, 15680, Note_on_c, 1, 55, 78
4, 15695, Note_on_c, 1, 55, 0
4, 15696, Note_on_c, 1, 43, 80
4, 15711, Note_on_c, 1, 43, 0
4, 15712, Note_on_c, 1, 53, 80
4, 15727, Note_on_c, 1, 53, 0
4, 15728, Note_on_c, 1, 55, 80
4, 15743, Note_on_c, 1, 55, 0
4, 15744, Note_on_c, 1, 43, 80
4, 15833, Note_on_c, 1, 43, 0
4, 16320, Note_on_c, 1, 54, 70
4, 16368, Note_on_c, 1, 54, 0
4, 16368, Note_on_c, 1, 57, 70
4, 16413, Note_on_c, 1, 57, 0
4, 16416, Note_on_c, 1, 54, 70
4, 16464, Note_on_c, 1, 54, 0
4, 16464, Note_on_c, 1, 57, 70
4, 16509, Note_on_c, 1, 57, 0
4, 16512, Note_on_c, 1, 54, 70
4, 16560, Note_on_c, 1, 54, 0
4, 16560, Note_on_c, 1, 57, 70
4, 16605, Note_on_c, 1, 57, 0
4, 16704, Note_on_c, 1, 43, 64
4, 16719, Note_on_c, 1, 43, 0
4, 16720, Note_on_c, 1, 48, 64
4, 16735, Note_on_c, 1, 48, 0
4, 16736, Note_on_c, 1, 52, 64
4, 16751, Note_on_c, 1, 52, 0
4, 16752, Note_on_c, 1, 55, 64
4, 16767, Note_on_c, 1, 55, 0
4, 16768, Note_on_c, 1, 52, 64
4, 16783, Note_on_c, 1, 52, 0
4, 16784, Note_on_c, 1, 48, 64
4, 16799, Note_on_c, 1, 48, 0
4, 16800, Note_on_c, 1, 43, 64
4, 16815, Note_on_c, 1, 43, 0
4, 16816, Note_on_c, 1, 47, 64
4, 16831, Note_on_c, 1, 47, 0
4, 16832, Note_on_c, 1, 50, 64
4, 16847, Note_on_c, 1, 50, 0
4, 16848, Note_on_c, 1, 53, 64
4, 16863, Note_on_c, 1, 53, 0
4, 16864, Note_on_c, 1, 50, 64
4, 16879, Note_on_c, 1, 50, 0
4, 16880, Note_on_c, 1, 47, 64
4, 16895, Note_on_c, 1, 47, 0
4, 16896, Note_on_c, 1, 48, 64
4, 16911, Note_on_c, 1, 48, 0
4, 16912, Note_on_c, 1, 52, 64
4, 16927, Note_on_c, 1, 52, 0
4, 16928, Note_on_c, 1, 55, 64
4, 16943, Note_on_c, 1, 55, 0
4, 16944, Note_on_c, 1, 60, 64
4, 16959, Note_on_c, 1, 60, 0
4, 16960, Note_on_c, 1, 55, 64
4, 16975, Note_on_c, 1, 55, 0
4, 16976, Note_on_c, 1, 52, 64
4, 16991, Note_on_c, 1, 52, 0
4, 16992, Note_on_c, 1, 48, 64
4, 17081, Note_on_c, 1, 48, 0
4, 17136, Note_on_c, 1, 41, 75
4, 17151, Note_on_c, 1, 41, 0
4, 17152, Note_on_c, 1, 47, 77
4, 17167, Note_on_c, 1, 47, 0
4, 17168, Note_on_c, 1, 50, 79
4, 17183, Note_on_c, 1, 50, 0
4, 17184, Note_on_c, 1, 53, 79
4, 17199, Note_on_c, 1, 53, 0
4, 17200, Note_on_c, 1, 50, 78
4, 17215, Note_on_c, 1, 50, 0
4, 17216, Note_on_c, 1, 47, 77
4, 17231, Note_on_c, 1, 47, 0
4, 17232, Note_on_c, 1, 41, 75
4, 17277, Note_on_c, 1, 41, 0
4, 17280, Note_on_c, 1, 40, 75
4, 17303, Note_on_c, 1, 40, 0
4, 17304, Note_on_c, 1, 39, 75
4, 17327, Note_on_c, 1, 39, 0
4, 17328, Note_on_c, 1, 40, 75
4, 17334, Note_on_c, 1, 40, 0
4, 17334, Note_on_c, 1, 54, 75
4, 17334, Note_on_c, 1, 51, 75
4, 17334, Note_on_c, 1, 48, 75
4, 17395, Note_on_c, 1, 54, 0
4, 17395, Note_on_c, 1, 51, 0
4, 17395, Note_on_c, 1, 48, 0
4, 17424, Note_on_c, 1, 52, 70
4, 17439, Note_on_c, 1, 52, 0
4, 17440, Note_on_c, 1, 55, 70
4, 17455, Note_on_c, 1, 55, 0
4, 17456, Note_on_c, 1, 52, 70
4, 17471, Note_on_c, 1, 52, 0
4, 17472, Note_on_c, 1, 54, 71
4, 17487, Note_on_c, 1, 54, 0
4, 17488, Note_on_c, 1, 57, 71
4, 17503, Note_on_c, 1, 57, 0
4, 17504, Note_on_c, 1, 54, 72
4, 17519, Note_on_c, 1, 54, 0
4, 17520, Note_on_c, 1, 55, 72
4, 17535, Note_on_c, 1, 55, 0
4, 17536, Note_on_c, 1, 59, 72
4, 17551, Note_on_c, 1, 59, 0
4, 17552, Note_on_c, 1, 55, 73
4, 17567, Note_on_c, 1, 55, 0
4, 17568, Note_on_c, 1, 57, 73
4, 17583, Note_on_c, 1, 57, 0
4, 17584, Note_on_c, 1, 60, 74
4, 17599, Note_on_c, 1, 60, 0
4, 17600, Note_on_c, 1, 57, 74
4, 17615, Note_on_c, 1, 57, 0
4, 17616, Note_on_c, 1, 55, 75
4, 17631, Note_on_c, 1, 55, 0
4, 17632, Note_on_c, 1, 59, 74
4, 17647, Note_on_c, 1, 59, 0
4, 17648, Note_on_c, 1, 55, 74
4, 17663, Note_on_c, 1, 55, 0
4, 17664, Note_on_c, 1, 54, 73
4, 17679, Note_on_c, 1, 54, 0
4, 17680, Note_on_c, 1, 57, 73
4, 17695, Note_on_c, 1, 57, 0
4, 17696, Note_on_c, 1, 54, 72
4, 17711, Note_on_c, 1, 54, 0
4, 17712, Note_on_c, 1, 52, 70
4, 17727, Note_on_c, 1, 52, 0
4, 17728, Note_on_c, 1, 55, 70
4, 17743, Note_on_c, 1, 55, 0
4, 17744, Note_on_c, 1, 52, 70
4, 17759, Note_on_c, 1, 52, 0
4, 17760, Note_on_c, 1, 54, 71
4, 17775, Note_on_c, 1, 54, 0
4, 17776, Note_on_c, 1, 57, 71
4, 17791, Note_on_c, 1, 57, 0
4, 17792, Note_on_c, 1, 54, 71
4, 17807, Note_on_c, 1, 54, 0
4, 17808, Note_on_c, 1, 55, 72
4, 17823, Note_on_c, 1, 55, 0
4, 17824, Note_on_c, 1, 59, 72
4, 17839, Note_on_c, 1, 59, 0
4, 17840, Note_on_c, 1, 55, 73
4, 17855, Note_on_c, 1, 55, 0
4, 17856, Note_on_c, 1, 57, 73
4, 17871, Note_on_c, 1, 57, 0
4, 17872, Note_on_c, 1, 60, 73
4, 17887, Note_on_c, 1, 60, 0
4, 17888, Note_on_c, 1, 57, 74
4, 17903, Note_on_c, 1, 57, 0
4, 17904, Note_on_c, 1, 55, 74
4, 17919, Note_on_c, 1, 55, 0
4, 17920, Note_on_c, 1, 59, 75
4, 17935, Note_on_c, 1, 59, 0
4, 17936, Note_on_c, 1, 55, 74
4, 17951, Note_on_c, 1, 55, 0
4, 17952, Note_on_c, 1, 54, 74
4, 17967, Note_on_c, 1, 54, 0
4, 17968, Note_on_c, 1, 57, 73
4, 17983, Note_on_c, 1, 57, 0
4, 17984, Note_on_c, 1, 54, 73
4, 17999, Note_on_c, 1, 54, 0
4, 18000, Note_on_c, 1, 52, 70
4, 18015, Note_on_c, 1, 52, 0
4, 18016, Note_on_c, 1, 55, 70
4, 18031, Note_on_c, 1, 55, 0
4, 18032, Note_on_c, 1, 52, 70
4, 18047, Note_on_c, 1, 52, 0
4, 18048, Note_on_c, 1, 50, 70
4, 18063, Note_on_c, 1, 50, 0
4, 18064, Note_on_c, 1, 54, 70
4, 18079, Note_on_c, 1, 54, 0
4, 18080, Note_on_c, 1, 50, 70
4, 18095, Note_on_c, 1, 50, 0
4, 18096, Note_on_c, 1, 48, 70
4, 18111, Note_on_c, 1, 48, 0
4, 18112, Note_on_c, 1, 52, 70
4, 18127, Note_on_c, 1, 52, 0
4, 18128, Note_on_c, 1, 48, 70
4, 18143, Note_on_c, 1, 48, 0
4, 18144, Note_on_c, 1, 47, 70
4, 18159, Note_on_c, 1, 47, 0
4, 18160, Note_on_c, 1, 50, 70
4, 18175, Note_on_c, 1, 50, 0
4, 18176, Note_on_c, 1, 47, 70
4, 18191, Note_on_c, 1, 47, 0
4, 18192, Note_on_c, 1, 45, 75
4, 18281, Note_on_c, 1, 45, 0
4, 18288, Note_on_c, 1, 47, 71
4, 18311, Note_on_c, 1, 47, 0
4, 18312, Note_on_c, 1, 59, 70
4, 18335, Note_on_c, 1, 59, 0
4, 18336, Note_on_c, 1, 47, 70
4, 18359, Note_on_c, 1, 47, 0
4, 18360, Note_on_c, 1, 47, 70
4, 18383, Note_on_c, 1, 47, 0
4, 18384, Note_on_c, 1, 47, 70
4, 18407, Note_on_c, 1, 47, 0
4, 18408, Note_on_c, 1, 59, 70
4, 18431, Note_on_c, 1, 59, 0
4, 18432, Note_on_c, 1, 47, 70
4, 18455, Note_on_c, 1, 47, 0
4, 18456, Note_on_c, 1, 47, 70
4, 18479, Note_on_c, 1, 47, 0
4, 18480, Note_on_c, 1, 47, 70
4, 18503, Note_on_c, 1, 47, 0
4, 18504, Note_on_c, 1, 59, 70
4, 18527, Note_on_c, 1, 59, 0
4, 18528, Note_on_c, 1, 47, 70
4, 18551, Note_on_c, 1, 47, 0
4, 18552, Note_on_c, 1, 47, 70
4, 18575, Note_on_c, 1, 47, 0
4, 18576, Note_on_c, 1, 47, 70
4, 18599, Note_on_c, 1, 47, 0
4, 18600, Note_on_c, 1, 59, 70
4, 18623, Note_on_c, 1, 59, 0
4, 18624, Note_on_c, 1, 47, 70
4, 18647, Note_on_c, 1, 47, 0
4, 18648, Note_on_c, 1, 47, 70
4, 18671, Note_on_c, 1, 47, 0
4, 18672, Note_on_c, 1, 47, 70
4, 18695, Note_on_c, 1, 47, 0
4, 18696, Note_on_c, 1, 59, 70
4, 18719, Note_on_c, 1, 59, 0
4, 18720, Note_on_c, 1, 47, 70
4, 18743, Note_on_c, 1, 47, 0
4, 18744, Note_on_c, 1, 47, 71
4, 18767, Note_on_c, 1, 47, 0
4, 18768, Note_on_c, 1, 47, 71
4, 18791, Note_on_c, 1, 47, 0
4, 18792, Note_on_c, 1, 59, 72
4, 18815, Note_on_c, 1, 59, 0
4, 18816, Note_on_c, 1, 47, 72
4, 18839, Note_on_c, 1, 47, 0
4, 18840, Note_on_c, 1, 47, 72
4, 18863, Note_on_c, 1, 47, 0
4, 18864, Note_on_c, 1, 47, 73
4, 18887, Note_on_c, 1, 47, 0
4, 18888, Note_on_c, 1, 59, 73
4, 18911, Note_on_c, 1, 59, 0
4, 18912, Note_on_c, 1, 47, 74
4, 18935, Note_on_c, 1, 47, 0
4, 18936, Note_on_c, 1, 47, 74
4, 18959, Note_on_c, 1, 47, 0
4, 18960, Note_on_c, 1, 45, 75
4, 18983, Note_on_c, 1, 45, 0
4, 18984, Note_on_c, 1, 57, 75
4, 19007, Note_on_c, 1, 57, 0
4, 19008, Note_on_c, 1, 45, 75
4, 19031, Note_on_c, 1, 45, 0
4, 19032, Note_on_c, 1, 45, 75
4, 19055, Note_on_c, 1, 45, 0
4, 19056, Note_on_c, 1, 45, 75
4, 19079, Note_on_c, 1, 45, 0
4, 19080, Note_on_c, 1, 57, 75
4, 19103, Note_on_c, 1, 57, 0
4, 19104, Note_on_c, 1, 45, 75
4, 19127, Note_on_c, 1, 45, 0
4, 19128, Note_on_c, 1, 45, 75
4, 19151, Note_on_c, 1, 45, 0
4, 19152, Note_on_c, 1, 43, 75
4, 19175, Note_on_c, 1, 43, 0
4, 19176, Note_on_c, 1, 55, 75
4, 19199, Note_on_c, 1, 55, 0
4, 19200, Note_on_c, 1, 43, 75
4, 19223, Note_on_c, 1, 43, 0
4, 19224, Note_on_c, 1, 43, 75
4, 19247, Note_on_c, 1, 43, 0
4, 19248, Note_on_c, 1, 43, 75
4, 19271, Note_on_c, 1, 43, 0
4, 19272, Note_on_c, 1, 55, 75
4, 19295, Note_on_c, 1, 55, 0
4, 19296, Note_on_c, 1, 43, 75
4, 19319, Note_on_c, 1, 43, 0
4, 19320, Note_on_c, 1, 43, 75
4, 19343, Note_on_c, 1, 43, 0
4, 19344, Note_on_c, 1, 41, 75
4, 19367, Note_on_c, 1, 41, 0
4, 19368, Note_on_c, 1, 53, 74
4, 19391, Note_on_c, 1, 53, 0
4, 19392, Note_on_c, 1, 41, 74
4, 19415, Note_on_c, 1, 41, 0
4, 19416, Note_on_c, 1, 41, 73
4, 19439, Note_on_c, 1, 41, 0
4, 19440, Note_on_c, 1, 39, 73
4, 19463, Note_on_c, 1, 39, 0
4, 19464, Note_on_c, 1, 51, 72
4, 19487, Note_on_c, 1, 51, 0
4, 19488, Note_on_c, 1, 39, 72
4, 19511, Note_on_c, 1, 39, 0
4, 19512, Note_on_c, 1, 39, 71
4, 19535, Note_on_c, 1, 39, 0
4, 19536, Note_on_c, 1, 38, 71
4, 19559, Note_on_c, 1, 38, 0
4, 19560, Note_on_c, 1, 50, 70
4, 19583, Note_on_c, 1, 50, 0
4, 19584, Note_on_c, 1, 38, 70
4, 19607, Note_on_c, 1, 38, 0
4, 19608, Note_on_c, 1, 38, 69
4, 19631, Note_on_c, 1, 38, 0
4, 19632, Note_on_c, 1, 37, 69
4, 19655, Note_on_c, 1, 37, 0
4, 19656, Note_on_c, 1, 49, 69
4, 19679, Note_on_c, 1, 49, 0
4, 19680, Note_on_c, 1, 37, 68
4, 19703, Note_on_c, 1, 37, 0
4, 19704, Note_on_c, 1, 37, 68
4, 19727, Note_on_c, 1, 37, 0
4, 19728, Note_on_c, 1, 36, 67
4, 19751, Note_on_c, 1, 36, 0
4, 19752, Note_on_c, 1, 48, 67
4, 19775, Note_on_c, 1, 48, 0
4, 19776, Note_on_c, 1, 36, 66
4, 19799, Note_on_c, 1, 36, 0
4, 19800, Note_on_c, 1, 36, 66
4, 19824, Note_on_c, 1, 36, 0
4, 19824, Note_on_c, 1, 35, 65
4, 19913, Note_on_c, 1, 35, 0
4, 20016, Control_c, 1, 64, 127
4, 20016, Note_on_c, 1, 50, 75
4, 20016, Note_on_c, 1, 47, 75
4, 20016, Note_on_c, 1, 43, 75
4, 20105, Note_on_c, 1, 50, 0
4, 20105, Note_on_c, 1, 47, 0
4, 20105, Note_on_c, 1, 43, 0
4, 20112, Note_on_c, 1, 50, 75
4, 20112, Note_on_c, 1, 47, 75
4, 20112, Note_on_c, 1, 43, 75
4, 20157, Note_on_c, 1, 50, 0
4, 20157, Note_on_c, 1, 47, 0
4, 20157, Note_on_c, 1, 43, 0
4, 20160, Note_on_c, 1, 50, 76
4, 20160, Note_on_c, 1, 47, 76
4, 20160, Note_on_c, 1, 43, 76
4, 20205, Note_on_c, 1, 50, 0
4, 20205, Note_on_c, 1, 47, 0
4, 20205, Note_on_c, 1, 43, 0
4, 20208, Note_on_c, 1, 50, 77
4, 20208, Note_on_c, 1, 47, 77
4, 20208, Note_on_c, 1, 43, 77
4, 20253, Note_on_c, 1, 50, 0
4, 20253, Note_on_c, 1, 47, 0
4, 20253, Note_on_c, 1, 43, 0
4, 20256, Note_on_c, 1, 50, 78
4, 20256, Note_on_c, 1, 47, 78
4, 20256, Note_on_c, 1, 43, 78
4, 20301, Note_on_c, 1, 50, 0
4, 20301, Note_on_c, 1, 47, 0
4, 20301, Note_on_c, 1, 43, 0
4, 20304, Control_c, 1, 64, 0
4, 20304, Note_on_c, 1, 36, 70
4, 20319, Note_on_c, 1, 36, 0
4, 20320, Note_on_c, 1, 40, 70
4, 20335, Note_on_c, 1, 40, 0
4, 20336, Note_on_c, 1, 36, 70
4, 20351, Note_on_c, 1, 36, 0
4, 20352, Note_on_c, 1, 38, 71
4, 20367, Note_on_c, 1, 38, 0
4, 20368, Note_on_c, 1, 41, 71
4, 20383, Note_on_c, 1, 41, 0
4, 20384, Note_on_c, 1, 38, 72
4, 20399, Note_on_c, 1, 38, 0
4, 20400, Note_on_c, 1, 40, 72
4, 20415, Note_on_c, 1, 40, 0
4, 20416, Note_on_c, 1, 43, 72
4, 20431, Note_on_c, 1, 43, 0
4, 20432, Note_on_c, 1, 40, 73
4, 20447, Note_on_c, 1, 40, 0
4, 20448, Note_on_c, 1, 41, 73
4, 20463, Note_on_c, 1, 41, 0
4, 20464, Note_on_c, 1, 45, 74
4, 20479, Note_on_c, 1, 45, 0
4, 20480, Note_on_c, 1, 41, 74
4, 20495, Note_on_c, 1, 41, 0
4, 20496, Note_on_c, 1, 40, 75
4, 20511, Note_on_c, 1, 40, 0
4, 20512, Note_on_c, 1, 43, 74
4, 20527, Note_on_c, 1, 43, 0
4, 20528, Note_on_c, 1, 40, 74
4, 20543, Note_on_c, 1, 40, 0
4, 20544, Note_on_c, 1, 38, 73
4, 20559, Note_on_c, 1, 38, 0
4, 20560, Note_on_c, 1, 41, 73
4, 20575, Note_on_c, 1, 41, 0
4, 20576, Note_on_c, 1, 38, 72
4, 20591, Note_on_c, 1, 38, 0
4, 20592, Note_on_c, 1, 36, 70
4, 20607, Note_on_c, 1, 36, 0
4, 20608, Note_on_c, 1, 40, 70
4, 20623, Note_on_c, 1, 40, 0
4, 20624, Note_on_c, 1, 36, 70
4, 20639, Note_on_c, 1, 36, 0
4, 20640, Note_on_c, 1, 40, 70
4, 20655, Note_on_c, 1, 40, 0
4, 20656, Note_on_c, 1, 43, 70
4, 20671, Note_on_c, 1, 43, 0
4, 20672, Note_on_c, 1, 40, 70
4, 20687, Note_on_c, 1, 40, 0
4, 20688, Note_on_c, 1, 41, 70
4, 20703, Note_on_c, 1, 41, 0
4, 20704, Note_on_c, 1, 45, 70
4, 20719, Note_on_c, 1, 45, 0
4, 20720, Note_on_c, 1, 41, 71
4, 20735, Note_on_c, 1, 41, 0
4, 20736, Note_on_c, 1, 42, 71
4, 20751, Note_on_c, 1, 42, 0
4, 20752, Note_on_c, 1, 45, 71
4, 20767, Note_on_c, 1, 45, 0
4, 20768, Note_on_c, 1, 42, 71
4, 20783, Note_on_c, 1, 42, 0
4, 20784, Note_on_c, 1, 43, 71
4, 20799, Note_on_c, 1, 43, 0
4, 20800, Note_on_c, 1, 47, 72
4, 20815, Note_on_c, 1, 47, 0
4, 20816, Note_on_c, 1, 43, 72
4, 20831, Note_on_c, 1, 43, 0
4, 20832, Note_on_c, 1, 47, 72
4, 20847, Note_on_c, 1, 47, 0
4, 20848, Note_on_c, 1, 50, 72
4, 20863, Note_on_c, 1, 50, 0
4, 20864, Note_on_c, 1, 47, 72
4, 20879, Note_on_c, 1, 47, 0
4, 20880, Note_on_c, 1, 48, 73
4, 20895, Note_on_c, 1, 48, 0
4, 20896, Note_on_c, 1, 52, 73
4, 20911, Note_on_c, 1, 52, 0
4, 20912, Note_on_c, 1, 55, 73
4, 20927, Note_on_c, 1, 55, 0
4, 20928, Note_on_c, 1, 52, 75
4, 20943, Note_on_c, 1, 52, 0
4, 20944, Note_on_c, 1, 55, 75
4, 20959, Note_on_c, 1, 55, 0
4, 20960, Note_on_c, 1, 60, 75
4, 20975, Note_on_c, 1, 60, 0
4, 20976, Note_on_c, 1, 53, 75
4, 20991, Note_on_c, 1, 53, 0
4, 20992, Note_on_c, 1, 56, 74
4, 21007, Note_on_c, 1, 56, 0
4, 21008, Note_on_c, 1, 60, 73
4, 21023, Note_on_c, 1, 60, 0
4, 21024, Note_on_c, 1, 51, 73
4, 21039, Note_on_c, 1, 51, 0
4, 21040, Note_on_c, 1, 56, 72
4, 21055, Note_on_c, 1, 56, 0
4, 21056, Note_on_c, 1, 60, 72
4, 21071, Note_on_c, 1, 60, 0
4, 21072, Note_on_c, 1, 49, 71
4, 21087, Note_on_c, 1, 49, 0
4, 21088, Note_on_c, 1, 56, 71
4, 21103, Note_on_c, 1, 56, 0
4, 21104, Note_on_c, 1, 60, 70
4, 21119, Note_on_c, 1, 60, 0
4, 21120, Note_on_c, 1, 48, 70
4, 21135, Note_on_c, 1, 48, 0
4, 21136, Note_on_c, 1, 56, 69
4, 21151, Note_on_c, 1, 56, 0
4, 21152, Note_on_c, 1, 60, 68
4, 21167, Note_on_c, 1, 60, 0
4, 21168, Note_on_c, 1, 47, 68
4, 21213, Note_on_c, 1, 47, 0
4, 21280, Note_on_c, 1, 50, 70
4, 21295, Note_on_c, 1, 50, 0
4, 21296, Note_on_c, 1, 53, 70
4, 21311, Note_on_c, 1, 53, 0
4, 21312, Note_on_c, 1, 51, 70
4, 21327, Note_on_c, 1, 51, 0
4, 21328, Note_on_c, 1, 50, 70
4, 21343, Note_on_c, 1, 50, 0
4, 21344, Note_on_c, 1, 48, 70
4, 21359, Note_on_c, 1, 48, 0
4, 21360, Note_on_c, 1, 55, 70
4, 21405, Note_on_c, 1, 55, 0
4, 21456, Note_on_c, 1, 60, 64
4, 21457, Note_on_c, 1, 64, 64
4, 21458, Note_on_c, 1, 67, 64
4, 21459, Note_on_c, 1, 72, 64
4, 21546, Note_on_c, 1, 72, 0
4, 21546, Note_on_c, 1, 67, 0
4, 21546, Note_on_c, 1, 64, 0
4, 21546, Note_on_c, 1, 60, 0
4, 21600, Note_on_c, 1, 72, 64
4, 21600, Note_on_c, 1, 69, 64
4, 21645, Note_on_c, 1, 72, 0
4, 21645, Note_on_c, 1, 69, 0
4, 21648, Note_on_c, 1, 72, 62
4, 21648, Note_on_c, 1, 67, 62
4, 21693, Note_on_c, 1, 72, 0
4, 21693, Note_on_c, 1, 67, 0
4, 21696, Note_on_c, 1, 71, 60
4, 21696, Note_on_c, 1, 65, 60
4, 21741, Note_on_c, 1, 71, 0
4, 21741, Note_on_c, 1, 65, 0
4, 21744, Note_on_c, 1, 64, 64
4, 21759, Note_on_c, 1, 64, 0
4, 21760, Note_on_c, 1, 67, 64
4, 21775, Note_on_c, 1, 67, 0
4, 21776, Note_on_c, 1, 72, 64
4, 21791, Note_on_c, 1, 72, 0
4, 21792, Note_on_c, 1, 52, 64
4, 21807, Note_on_c, 1, 52, 0
4, 21808, Note_on_c, 1, 55, 64
4, 21823, Note_on_c, 1, 55, 0
4, 21824, Note_on_c, 1, 60, 64
4, 21839, Note_on_c, 1, 60, 0
4, 21840, Note_on_c, 1, 53, 64
4, 21855, Note_on_c, 1, 53, 0
4, 21856, Note_on_c, 1, 57, 65
4, 21871, Note_on_c, 1, 57, 0
4, 21872, Note_on_c, 1, 60, 65
4, 21887, Note_on_c, 1, 60, 0
4, 21888, Note_on_c, 1, 54, 65
4, 21903, Note_on_c, 1, 54, 0
4, 21904, Note_on_c, 1, 57, 66
4, 21919, Note_on_c, 1, 57, 0
4, 21920, Note_on_c, 1, 60, 66
4, 21935, Note_on_c, 1, 60, 0
4, 21936, Note_on_c, 1, 55, 66
4, 21951, Note_on_c, 1, 55, 0
4, 21952, Note_on_c, 1, 59, 67
4, 21967, Note_on_c, 1, 59, 0
4, 21968, Note_on_c, 1, 62, 67
4, 21983, Note_on_c, 1, 62, 0
4, 21984, Note_on_c, 1, 56, 67
4, 21999, Note_on_c, 1, 56, 0
4, 22000, Note_on_c, 1, 59, 68
4, 22015, Note_on_c, 1, 59, 0
4, 22016, Note_on_c, 1, 62, 68
4, 22031, Note_on_c, 1, 62, 0
4, 22032, Note_on_c, 1, 57, 68
4, 22047, Note_on_c, 1, 57, 0
4, 22048, Note_on_c, 1, 60, 69
4, 22063, Note_on_c, 1, 60, 0
4, 22064, Note_on_c, 1, 64, 69
4, 22079, Note_on_c, 1, 64, 0
4, 22080, Note_on_c, 1, 57, 70
4, 22095, Note_on_c, 1, 57, 0
4, 22096, Note_on_c, 1, 60, 70
4, 22111, Note_on_c, 1, 60, 0
4, 22112, Note_on_c, 1, 64, 70
4, 22127, Note_on_c, 1, 64, 0
4, 22128, Note_on_c, 1, 59, 71
4, 22173, Note_on_c, 1, 59, 0
4, 22320, Note_on_c, 1, 43, 75
4, 22335, Note_on_c, 1, 43, 0
4, 22336, Note_on_c, 1, 50, 75
4, 22351, Note_on_c, 1, 50, 0
4, 22352, Note_on_c, 1, 55, 75
4, 22367, Note_on_c, 1, 55, 0
4, 22368, Note_on_c, 1, 43, 75
4, 22383, Note_on_c, 1, 43, 0
4, 22384, Note_on_c, 1, 50, 76
4, 22399, Note_on_c, 1, 50, 0
4, 22400, Note_on_c, 1, 55, 76
4, 22415, Note_on_c, 1, 55, 0
4, 22416, Note_on_c, 1, 43, 76
4, 22431, Note_on_c, 1, 43, 0
4, 22432, Note_on_c, 1, 52, 76
4, 22447, Note_on_c, 1, 52, 0
4, 22448, Note_on_c, 1, 55, 77
4, 22463, Note_on_c, 1, 55, 0
4, 22464, Note_on_c, 1, 43, 77
4, 22479, Note_on_c, 1, 43, 0
4, 22480, Note_on_c, 1, 52, 77
4, 22495, Note_on_c, 1, 52, 0
4, 22496, Note_on_c, 1, 55, 77
4, 22511, Note_on_c, 1, 55, 0
4, 22512, Note_on_c, 1, 43, 78
4, 22527, Note_on_c, 1, 43, 0
4, 22528, Note_on_c, 1, 53, 78
4, 22543, Note_on_c, 1, 53, 0
4, 22544, Note_on_c, 1, 55, 78
4, 22559, Note_on_c, 1, 55, 0
4, 22560, Note_on_c, 1, 43, 80
4, 22575, Note_on_c, 1, 43, 0
4, 22576, Note_on_c, 1, 53, 80
4, 22591, Note_on_c, 1, 53, 0
4, 22592, Note_on_c, 1, 55, 80
4, 22607, Note_on_c, 1, 55, 0
4, 22608, Note_on_c, 1, 43, 80
4, 22697, Note_on_c, 1, 43, 0
4, 23184, Note_on_c, 1, 54, 70
4, 23232, Note_on_c, 1, 54, 0
4, 23232, Note_on_c, 1, 57, 70
4, 23277, Note_on_c, 1, 57, 0
4, 23280, Note_on_c, 1, 54, 70
4, 23328, Note_on_c, 1, 54, 0
4, 23328, Note_on_c, 1, 57, 70
4, 23373, Note_on_c, 1, 57, 0
4, 23376, Note_on_c, 1, 54, 70
4, 23424, Note_on_c, 1, 54, 0
4, 23424, Note_on_c, 1, 57, 70
4, 23469, Note_on_c, 1, 57, 0
4, 23568, Note_on_c, 1, 43, 64
4, 23583, Note_on_c, 1, 43, 0
4, 23584, Note_on_c, 1, 48, 64
4, 23599, Note_on_c, 1, 48, 0
4, 23600, Note_on_c, 1, 52, 64
4, 23615, Note_on_c, 1, 52, 0
4, 23616, Note_on_c, 1, 55, 64
4, 23631, Note_on_c, 1, 55, 0
4, 23632, Note_on_c, 1, 52, 64
4, 23647, Note_on_c, 1, 52, 0
4, 23648, Note_on_c, 1, 48, 64
4, 23663, Note_on_c, 1, 48, 0
4, 23664, Note_on_c, 1, 43, 64
4, 23679, Note_on_c, 1, 43, 0
4, 23680, Note_on_c, 1, 47, 64
4, 23695, Note_on_c, 1, 47, 0
4, 23696, Note_on_c, 1, 50, 64
4, 23711, Note_on_c, 1, 50, 0
4, 23712, Note_on_c, 1, 53, 64
4, 23727, Note_on_c, 1, 53, 0
4, 23728, Note_on_c, 1, 50, 64
4, 23743, Note_on_c, 1, 50, 0
4, 23744, Note_on_c, 1, 47, 64
4, 23759, Note_on_c, 1, 47, 0
4, 23760, Note_on_c, 1, 48, 64
4, 23775, Note_on_c, 1, 48, 0
4, 23776, Note_on_c, 1, 52, 64
4, 23791, Note_on_c, 1, 52, 0
4, 23792, Note_on_c, 1, 55, 64
4, 23807, Note_on_c, 1, 55, 0
4, 23808, Note_on_c, 1, 60, 64
4, 23823, Note_on_c, 1, 60, 0
4, 23824, Note_on_c, 1, 55, 64
4, 23839, Note_on_c, 1, 55, 0
4, 23840, Note_on_c, 1, 52, 64
4, 23855, Note_on_c, 1, 52, 0
4, 23856, Note_on_c, 1, 48, 64
4, 23945, Note_on_c, 1, 48, 0
4, 24000, Note_on_c, 1, 48, 0
4, 24089, Note_on_c, 1, 48, 0
4, 24096, End_track
5, 0, Start_track
5, 0, Program_c, 1, 0
5, 0, Control_c, 1, 7, 127
5, 0, Control_c, 1, 10, 64
5, 11136, Note_on_c, 1, 52, 64
5, 11181, Note_on_c, 1, 52, 0
5, 11184, Note_on_c, 1, 50, 64
5, 11229, Note_on_c, 1, 50, 0
5, 11232, Note_on_c, 1, 48, 64
5, 11277, Note_on_c, 1, 48, 0
5, 11280, Note_on_c, 1, 47, 64
5, 11325, Note_on_c, 1, 47, 0
5, 18000, Note_on_c, 1, 52, 64
5, 18045, Note_on_c, 1, 52, 0
5, 18048, Note_on_c, 1, 50, 64
5, 18093, Note_on_c, 1, 50, 0
5, 18096, Note_on_c, 1, 48, 64
5, 18141, Note_on_c, 1, 48, 0
5, 18144, Note_on_c, 1, 47, 64
5, 18189, Note_on_c, 1, 47, 0
5, 24000, End_track
6, 0, Start_track
6, 0, Title_t, "Sonata I   Haydn  "
6, 0, End_track
0, 0, End_of_file
