0, 0, Header, 1, 6, 96
1, 0, Start_track
1, 0, Copyright_t, "Copyright  2000 <copyright holder>"
1, 0, Text_t, "Sonata I\015\012"
1, 0, Text_t, "Haydn\015\012"
1, 0, Sequencer_specific, 17, 68, 87, 77, 90, 86, 82, 83, 78, 32, 55, 46, 48, 46, 49, 48, 46, 48
1, 0, Time_signature, 3, 2, 24, 8
1, 0, Tempo, 100000
1, 0, Key_signature, -3, "major"
1, 168, Tempo, 444444
1, 4032, Tempo, 461538
1, 4200, Tempo, 444444
1, 8064, Tempo, 461538
1, 25632, End_track
2, 0, Start_track
2, 0, Program_c, 0, 0
2, 0, Control_c, 0, 7, 127
2, 0, Control_c, 0, 10, 64
2, 168, Note_on_c, 0, 70, 75
2, 191, Note_on_c, 0, 70, 0
2, 192, Note_on_c, 0, 72, 75
2, 207, Note_on_c, 0, 72, 0
2, 208, Note_on_c, 0, 70, 75
2, 223, Note_on_c, 0, 70, 0
2, 224, Note_on_c, 0, 72, 75
2, 239, Note_on_c, 0, 72, 0
2, 240, Note_on_c, 0, 70, 75
2, 255, Note_on_c, 0, 70, 0
2, 256, Note_on_c, 0, 68, 75
2, 271, Note_on_c, 0, 68, 0
2, 272, Note_on_c, 0, 70, 75
2, 287, Note_on_c, 0, 70, 0
2, 288, Note_on_c, 0, 75, 75
2, 377, Note_on_c, 0, 75, 0
2, 384, Note_on_c, 0, 70, 75
2, 473, Note_on_c, 0, 70, 0
2, 480, Note_on_c, 0, 68, 75
2, 569, Note_on_c, 0, 68, 0
2, 576, Note_on_c, 0, 68, 75
2, 665, Note_on_c, 0, 68, 0
2, 672, Note_on_c, 0, 67, 75
2, 761, Note_on_c, 0, 67, 0
2, 768, Note_on_c, 0, 67, 75
2, 783, Note_on_c, 0, 67, 0
2, 784, Note_on_c, 0, 65, 75
2, 799, Note_on_c, 0, 65, 0
2, 800, Note_on_c, 0, 67, 75
2, 815, Note_on_c, 0, 67, 0
2, 816, Note_on_c, 0, 65, 75
2, 831, Note_on_c, 0, 65, 0
2, 832, Note_on_c, 0, 63, 75
2, 847, Note_on_c, 0, 63, 0
2, 848, Note_on_c, 0, 65, 75
2, 863, Note_on_c, 0, 65, 0
2, 864, Note_on_c, 0, 65, 75
2, 953, Note_on_c, 0, 65, 0
2, 960, Note_on_c, 0, 63, 75
2, 1049, Note_on_c, 0, 63, 0
2, 1056, Note_on_c, 0, 80, 75
2, 1056, Note_on_c, 0, 74, 75
2, 1145, Note_on_c, 0, 80, 0
2, 1145, Note_on_c, 0, 74, 0
2, 1152, Note_on_c, 0, 80, 75
2, 1152, Note_on_c, 0, 74, 75
2, 1248, Note_on_c, 0, 80, 0
2, 1248, Note_on_c, 0, 74, 0
2, 1248, Note_on_c, 0, 79, 75
2, 1248, Note_on_c, 0, 75, 75
2, 1337, Note_on_c, 0, 79, 0
2, 1337, Note_on_c, 0, 75, 0
2, 1512, Note_on_c, 0, 70, 75
2, 1535, Note_on_c, 0, 70, 0
2, 1536, Note_on_c, 0, 82, 75
2, 1603, Note_on_c, 0, 82, 0
2, 1608, Note_on_c, 0, 82, 75
2, 1631, Note_on_c, 0, 82, 0
2, 1632, Note_on_c, 0, 82, 75
2, 1699, Note_on_c, 0, 82, 0
2, 1704, Note_on_c, 0, 82, 75
2, 1727, Note_on_c, 0, 82, 0
2, 1728, Note_on_c, 0, 82, 91
2, 1891, Note_on_c, 0, 82, 0
2, 1896, Note_on_c, 0, 80, 75
2, 1896, Note_on_c, 0, 77, 75
2, 1919, Note_on_c, 0, 80, 0
2, 1919, Note_on_c, 0, 77, 0
2, 1920, Note_on_c, 0, 79, 75
2, 1920, Note_on_c, 0, 75, 75
2, 1987, Note_on_c, 0, 79, 0
2, 1987, Note_on_c, 0, 75, 0
2, 1992, Note_on_c, 0, 77, 75
2, 1992, Note_on_c, 0, 74, 75
2, 2015, Note_on_c, 0, 77, 0
2, 2015, Note_on_c, 0, 74, 0
2, 2016, Note_on_c, 0, 77, 75
2, 2016, Note_on_c, 0, 74, 75
2, 2105, Note_on_c, 0, 77, 0
2, 2105, Note_on_c, 0, 74, 0
2, 2112, Note_on_c, 0, 79, 75
2, 2112, Note_on_c, 0, 75, 75
2, 2201, Note_on_c, 0, 79, 0
2, 2201, Note_on_c, 0, 75, 0
2, 2208, Note_on_c, 0, 80, 75
2, 2208, Note_on_c, 0, 77, 75
2, 2297, Note_on_c, 0, 80, 0
2, 2297, Note_on_c, 0, 77, 0
2, 2304, Note_on_c, 0, 80, 75
2, 2304, Note_on_c, 0, 77, 75
2, 2393, Note_on_c, 0, 80, 0
2, 2393, Note_on_c, 0, 77, 0
2, 2400, Note_on_c, 0, 79, 75
2, 2400, Note_on_c, 0, 75, 75
2, 2489, Note_on_c, 0, 79, 0
2, 2489, Note_on_c, 0, 75, 0
2, 2616, Note_on_c, 0, 70, 75
2, 2639, Note_on_c, 0, 70, 0
2, 2640, Note_on_c, 0, 72, 75
2, 2663, Note_on_c, 0, 72, 0
2, 2664, Note_on_c, 0, 74, 75
2, 2687, Note_on_c, 0, 74, 0
2, 2688, Note_on_c, 0, 75, 76
2, 2711, Note_on_c, 0, 75, 0
2, 2712, Note_on_c, 0, 77, 76
2, 2735, Note_on_c, 0, 77, 0
2, 2736, Note_on_c, 0, 79, 77
2, 2759, Note_on_c, 0, 79, 0
2, 2760, Note_on_c, 0, 81, 77
2, 2783, Note_on_c, 0, 81, 0
2, 2784, Note_on_c, 0, 82, 78
2, 2829, Note_on_c, 0, 82, 0
2, 2832, Note_on_c, 0, 79, 79
2, 2832, Note_on_c, 0, 75, 79
2, 2877, Note_on_c, 0, 79, 0
2, 2877, Note_on_c, 0, 75, 0
2, 2880, Note_on_c, 0, 77, 80
2, 2880, Note_on_c, 0, 74, 80
2, 3013, Note_on_c, 0, 77, 0
2, 3013, Note_on_c, 0, 74, 0
2, 3024, Note_on_c, 0, 75, 77
2, 3024, Note_on_c, 0, 72, 77
2, 3069, Note_on_c, 0, 75, 0
2, 3069, Note_on_c, 0, 72, 0
2, 3072, Note_on_c, 0, 74, 76
2, 3072, Note_on_c, 0, 70, 76
2, 3117, Note_on_c, 0, 74, 0
2, 3117, Note_on_c, 0, 70, 0
2, 3192, Note_on_c, 0, 70, 75
2, 3215, Note_on_c, 0, 70, 0
2, 3216, Note_on_c, 0, 72, 75
2, 3239, Note_on_c, 0, 72, 0
2, 3240, Note_on_c, 0, 74, 76
2, 3263, Note_on_c, 0, 74, 0
2, 3264, Note_on_c, 0, 75, 77
2, 3287, Note_on_c, 0, 75, 0
2, 3288, Note_on_c, 0, 77, 77
2, 3311, Note_on_c, 0, 77, 0
2, 3312, Note_on_c, 0, 79, 78
2, 3335, Note_on_c, 0, 79, 0
2, 3336, Note_on_c, 0, 81, 79
2, 3359, Note_on_c, 0, 81, 0
2, 3360, Note_on_c, 0, 82, 80
2, 3405, Note_on_c, 0, 82, 0
2, 3408, Note_on_c, 0, 79, 78
2, 3408, Note_on_c, 0, 75, 78
2, 3453, Note_on_c, 0, 79, 0
2, 3453, Note_on_c, 0, 75, 0
2, 3456, Note_on_c, 0, 77, 76
2, 3456, Note_on_c, 0, 74, 76
2, 3479, Note_on_c, 0, 77, 0
2, 3479, Note_on_c, 0, 74, 0
2, 3480, Note_on_c, 0, 74, 75
2, 3503, Note_on_c, 0, 74, 0
2, 3504, Note_on_c, 0, 75, 75
2, 3527, Note_on_c, 0, 75, 0
2, 3528, Note_on_c, 0, 77, 76
2, 3551, Note_on_c, 0, 77, 0
2, 3552, Note_on_c, 0, 79, 76
2, 3575, Note_on_c, 0, 79, 0
2, 3576, Note_on_c, 0, 81, 77
2, 3599, Note_on_c, 0, 81, 0
2, 3600, Note_on_c, 0, 82, 78
2, 3623, Note_on_c, 0, 82, 0
2, 3624, Note_on_c, 0, 84, 78
2, 3647, Note_on_c, 0, 84, 0
2, 3648, Note_on_c, 0, 86, 79
2, 3671, Note_on_c, 0, 86, 0
2, 3672, Note_on_c, 0, 81, 80
2, 3695, Note_on_c, 0, 81, 0
2, 3696, Note_on_c, 0, 82, 80
2, 3719, Note_on_c, 0, 82, 0
2, 3720, Note_on_c, 0, 78, 80
2, 3743, Note_on_c, 0, 78, 0
2, 3744, Note_on_c, 0, 79, 80
2, 3767, Note_on_c, 0, 79, 0
2, 3768, Note_on_c, 0, 74, 79
2, 3791, Note_on_c, 0, 74, 0
2, 3792, Note_on_c, 0, 75, 78
2, 3815, Note_on_c, 0, 75, 0
2, 3816, Note_on_c, 0, 72, 78
2, 3839, Note_on_c, 0, 72, 0
2, 3840, Note_on_c, 0, 70, 77
2, 3929, Note_on_c, 0, 70, 0
2, 3936, Note_on_c, 0, 69, 75
2, 3949, Note_on_c, 0, 69, 0
2, 3950, Note_on_c, 0, 70, 75
2, 3963, Note_on_c, 0, 70, 0
2, 3964, Note_on_c, 0, 69, 75
2, 3977, Note_on_c, 0, 69, 0
2, 3978, Note_on_c, 0, 70, 75
2, 3991, Note_on_c, 0, 70, 0
2, 3992, Note_on_c, 0, 69, 75
2, 4005, Note_on_c, 0, 69, 0
2, 4006, Note_on_c, 0, 67, 75
2, 4018, Note_on_c, 0, 67, 0
2, 4019, Note_on_c, 0, 69, 75
2, 4031, Note_on_c, 0, 69, 0
2, 4032, Note_on_c, 0, 70, 75
2, 4121, Note_on_c, 0, 70, 0
2, 4200, Note_on_c, 0, 70, 75
2, 4223, Note_on_c, 0, 70, 0
2, 4224, Note_on_c, 0, 72, 75
2, 4239, Note_on_c, 0, 72, 0
2, 4240, Note_on_c, 0, 70, 75
2, 4255, Note_on_c, 0, 70, 0
2, 4256, Note_on_c, 0, 72, 75
2, 4271, Note_on_c, 0, 72, 0
2, 4272, Note_on_c, 0, 70, 75
2, 4287, Note_on_c, 0, 70, 0
2, 4288, Note_on_c, 0, 68, 75
2, 4303, Note_on_c, 0, 68, 0
2, 4304, Note_on_c, 0, 70, 75
2, 4319, Note_on_c, 0, 70, 0
2, 4320, Note_on_c, 0, 75, 75
2, 4409, Note_on_c, 0, 75, 0
2, 4416, Note_on_c, 0, 70, 75
2, 4505, Note_on_c, 0, 70, 0
2, 4512, Note_on_c, 0, 68, 75
2, 4601, Note_on_c, 0, 68, 0
2, 4608, Note_on_c, 0, 68, 75
2, 4697, Note_on_c, 0, 68, 0
2, 4704, Note_on_c, 0, 67, 75
2, 4793, Note_on_c, 0, 67, 0
2, 4800, Note_on_c, 0, 67, 75
2, 4815, Note_on_c, 0, 67, 0
2, 4816, Note_on_c, 0, 65, 75
2, 4831, Note_on_c, 0, 65, 0
2, 4832, Note_on_c, 0, 67, 75
2, 4847, Note_on_c, 0, 67, 0
2, 4848, Note_on_c, 0, 65, 75
2, 4863, Note_on_c, 0, 65, 0
2, 4864, Note_on_c, 0, 63, 75
2, 4879, Note_on_c, 0, 63, 0
2, 4880, Note_on_c, 0, 65, 75
2, 4895, Note_on_c, 0, 65, 0
2, 4896, Note_on_c, 0, 65, 75
2, 4985, Note_on_c, 0, 65, 0
2, 4992, Note_on_c, 0, 63, 75
2, 5081, Note_on_c, 0, 63, 0
2, 5088, Note_on_c, 0, 80, 75
2, 5088, Note_on_c, 0, 74, 75
2, 5177, Note_on_c, 0, 80, 0
2, 5177, Note_on_c, 0, 74, 0
2, 5184, Note_on_c, 0, 80, 75
2, 5184, Note_on_c, 0, 74, 75
2, 5280, Note_on_c, 0, 80, 0
2, 5280, Note_on_c, 0, 74, 0
2, 5280, Note_on_c, 0, 79, 75
2, 5280, Note_on_c, 0, 75, 75
2, 5369, Note_on_c, 0, 79, 0
2, 5369, Note_on_c, 0, 75, 0
2, 5544, Note_on_c, 0, 70, 75
2, 5567, Note_on_c, 0, 70, 0
2, 5568, Note_on_c, 0, 82, 75
2, 5635, Note_on_c, 0, 82, 0
2, 5640, Note_on_c, 0, 82, 75
2, 5663, Note_on_c, 0, 82, 0
2, 5664, Note_on_c, 0, 82, 75
2, 5731, Note_on_c, 0, 82, 0
2, 5736, Note_on_c, 0, 82, 75
2, 5759, Note_on_c, 0, 82, 0
2, 5760, Note_on_c, 0, 82, 91
2, 5923, Note_on_c, 0, 82, 0
2, 5928, Note_on_c, 0, 80, 75
2, 5928, Note_on_c, 0, 77, 75
2, 5951, Note_on_c, 0, 80, 0
2, 5951, Note_on_c, 0, 77, 0
2, 5952, Note_on_c, 0, 79, 75
2, 5952, Note_on_c, 0, 75, 75
2, 6019, Note_on_c, 0, 79, 0
2, 6019, Note_on_c, 0, 75, 0
2, 6024, Note_on_c, 0, 77, 75
2, 6024, Note_on_c, 0, 74, 75
2, 6047, Note_on_c, 0, 77, 0
2, 6047, Note_on_c, 0, 74, 0
2, 6048, Note_on_c, 0, 77, 75
2, 6048, Note_on_c, 0, 74, 75
2, 6137, Note_on_c, 0, 77, 0
2, 6137, Note_on_c, 0, 74, 0
2, 6144, Note_on_c, 0, 79, 75
2, 6144, Note_on_c, 0, 75, 75
2, 6233, Note_on_c, 0, 79, 0
2, 6233, Note_on_c, 0, 75, 0
2, 6240, Note_on_c, 0, 80, 75
2, 6240, Note_on_c, 0, 77, 75
2, 6329, Note_on_c, 0, 80, 0
2, 6329, Note_on_c, 0, 77, 0
2, 6336, Note_on_c, 0, 80, 75
2, 6336, Note_on_c, 0, 77, 75
2, 6425, Note_on_c, 0, 80, 0
2, 6425, Note_on_c, 0, 77, 0
2, 6432, Note_on_c, 0, 79, 75
2, 6432, Note_on_c, 0, 75, 75
2, 6521, Note_on_c, 0, 79, 0
2, 6521, Note_on_c, 0, 75, 0
2, 6648, Note_on_c, 0, 70, 75
2, 6671, Note_on_c, 0, 70, 0
2, 6672, Note_on_c, 0, 72, 75
2, 6695, Note_on_c, 0, 72, 0
2, 6696, Note_on_c, 0, 74, 75
2, 6719, Note_on_c, 0, 74, 0
2, 6720, Note_on_c, 0, 75, 76
2, 6743, Note_on_c, 0, 75, 0
2, 6744, Note_on_c, 0, 77, 76
2, 6767, Note_on_c, 0, 77, 0
2, 6768, Note_on_c, 0, 79, 77
2, 6791, Note_on_c, 0, 79, 0
2, 6792, Note_on_c, 0, 81, 77
2, 6815, Note_on_c, 0, 81, 0
2, 6816, Note_on_c, 0, 82, 78
2, 6861, Note_on_c, 0, 82, 0
2, 6864, Note_on_c, 0, 79, 79
2, 6864, Note_on_c, 0, 75, 79
2, 6909, Note_on_c, 0, 79, 0
2, 6909, Note_on_c, 0, 75, 0
2, 6912, Note_on_c, 0, 77, 80
2, 6912, Note_on_c, 0, 74, 80
2, 7045, Note_on_c, 0, 77, 0
2, 7045, Note_on_c, 0, 74, 0
2, 7056, Note_on_c, 0, 75, 77
2, 7056, Note_on_c, 0, 72, 77
2, 7101, Note_on_c, 0, 75, 0
2, 7101, Note_on_c, 0, 72, 0
2, 7104, Note_on_c, 0, 74, 76
2, 7104, Note_on_c, 0, 70, 76
2, 7149, Note_on_c, 0, 74, 0
2, 7149, Note_on_c, 0, 70, 0
2, 7224, Note_on_c, 0, 70, 75
2, 7247, Note_on_c, 0, 70, 0
2, 7248, Note_on_c, 0, 72, 75
2, 7271, Note_on_c, 0, 72, 0
2, 7272, Note_on_c, 0, 74, 76
2, 7295, Note_on_c, 0, 74, 0
2, 7296, Note_on_c, 0, 75, 77
2, 7319, Note_on_c, 0, 75, 0
2, 7320, Note_on_c, 0, 77, 77
2, 7343, Note_on_c, 0, 77, 0
2, 7344, Note_on_c, 0, 79, 78
2, 7367, Note_on_c, 0, 79, 0
2, 7368, Note_on_c, 0, 81, 79
2, 7391, Note_on_c, 0, 81, 0
2, 7392, Note_on_c, 0, 82, 80
2, 7437, Note_on_c, 0, 82, 0
2, 7440, Note_on_c, 0, 79, 78
2, 7440, Note_on_c, 0, 75, 78
2, 7485, Note_on_c, 0, 79, 0
2, 7485, Note_on_c, 0, 75, 0
2, 7488, Note_on_c, 0, 77, 76
2, 7488, Note_on_c, 0, 74, 76
2, 7511, Note_on_c, 0, 77, 0
2, 7511, Note_on_c, 0, 74, 0
2, 7512, Note_on_c, 0, 74, 75
2, 7535, Note_on_c, 0, 74, 0
2, 7536, Note_on_c, 0, 75, 75
2, 7559, Note_on_c, 0, 75, 0
2, 7560, Note_on_c, 0, 77, 76
2, 7583, Note_on_c, 0, 77, 0
2, 7584, Note_on_c, 0, 79, 76
2, 7607, Note_on_c, 0, 79, 0
2, 7608, Note_on_c, 0, 81, 77
2, 7631, Note_on_c, 0, 81, 0
2, 7632, Note_on_c, 0, 82, 78
2, 7655, Note_on_c, 0, 82, 0
2, 7656, Note_on_c, 0, 84, 78
2, 7679, Note_on_c, 0, 84, 0
2, 7680, Note_on_c, 0, 86, 79
2, 7703, Note_on_c, 0, 86, 0
2, 7704, Note_on_c, 0, 81, 80
2, 7727, Note_on_c, 0, 81, 0
2, 7728, Note_on_c, 0, 82, 80
2, 7751, Note_on_c, 0, 82, 0
2, 7752, Note_on_c, 0, 78, 80
2, 7775, Note_on_c, 0, 78, 0
2, 7776, Note_on_c, 0, 79, 80
2, 7799, Note_on_c, 0, 79, 0
2, 7800, Note_on_c, 0, 74, 79
2, 7823, Note_on_c, 0, 74, 0
2, 7824, Note_on_c, 0, 75, 78
2, 7847, Note_on_c, 0, 75, 0
2, 7848, Note_on_c, 0, 72, 78
2, 7871, Note_on_c, 0, 72, 0
2, 7872, Note_on_c, 0, 70, 77
2, 7961, Note_on_c, 0, 70, 0
2, 7968, Note_on_c, 0, 69, 75
2, 7981, Note_on_c, 0, 69, 0
2, 7982, Note_on_c, 0, 70, 75
2, 7995, Note_on_c, 0, 70, 0
2, 7996, Note_on_c, 0, 69, 75
2, 8009, Note_on_c, 0, 69, 0
2, 8010, Note_on_c, 0, 70, 75
2, 8023, Note_on_c, 0, 70, 0
2, 8024, Note_on_c, 0, 69, 75
2, 8037, Note_on_c, 0, 69, 0
2, 8038, Note_on_c, 0, 67, 75
2, 8050, Note_on_c, 0, 67, 0
2, 8051, Note_on_c, 0, 69, 75
2, 8063, Note_on_c, 0, 69, 0
2, 8064, Note_on_c, 0, 70, 75
2, 8153, Note_on_c, 0, 70, 0
2, 8520, Note_on_c, 0, 70, 75
2, 8543, Note_on_c, 0, 70, 0
2, 8544, Note_on_c, 0, 72, 75
2, 8559, Note_on_c, 0, 72, 0
2, 8560, Note_on_c, 0, 70, 75
2, 8575, Note_on_c, 0, 70, 0
2, 8576, Note_on_c, 0, 72, 75
2, 8591, Note_on_c, 0, 72, 0
2, 8592, Note_on_c, 0, 70, 75
2, 8607, Note_on_c, 0, 70, 0
2, 8608, Note_on_c, 0, 68, 75
2, 8623, Note_on_c, 0, 68, 0
2, 8624, Note_on_c, 0, 70, 75
2, 8639, Note_on_c, 0, 70, 0
2, 8640, Note_on_c, 0, 77, 75
2, 8729, Note_on_c, 0, 77, 0
2, 8736, Note_on_c, 0, 74, 75
2, 8825, Note_on_c, 0, 74, 0
2, 8832, Note_on_c, 0, 70, 75
2, 8921, Note_on_c, 0, 70, 0
2, 8928, Note_on_c, 0, 68, 75
2, 9017, Note_on_c, 0, 68, 0
2, 9096, Note_on_c, 0, 74, 75
2, 9119, Note_on_c, 0, 74, 0
2, 9120, Note_on_c, 0, 75, 75
2, 9135, Note_on_c, 0, 75, 0
2, 9136, Note_on_c, 0, 74, 75
2, 9151, Note_on_c, 0, 74, 0
2, 9152, Note_on_c, 0, 75, 75
2, 9167, Note_on_c, 0, 75, 0
2, 9168, Note_on_c, 0, 74, 75
2, 9183, Note_on_c, 0, 74, 0
2, 9184, Note_on_c, 0, 72, 75
2, 9199, Note_on_c, 0, 72, 0
2, 9200, Note_on_c, 0, 74, 75
2, 9215, Note_on_c, 0, 74, 0
2, 9216, Note_on_c, 0, 77, 75
2, 9305, Note_on_c, 0, 77, 0
2, 9312, Note_on_c, 0, 74, 75
2, 9401, Note_on_c, 0, 74, 0
2, 9408, Note_on_c, 0, 71, 75
2, 9497, Note_on_c, 0, 71, 0
2, 9504, Note_on_c, 0, 67, 75
2, 9593, Note_on_c, 0, 67, 0
2, 9672, Note_on_c, 0, 74, 75
2, 9695, Note_on_c, 0, 74, 0
2, 9696, Note_on_c, 0, 75, 75
2, 9711, Note_on_c, 0, 75, 0
2, 9712, Note_on_c, 0, 74, 75
2, 9727, Note_on_c, 0, 74, 0
2, 9728, Note_on_c, 0, 75, 75
2, 9743, Note_on_c, 0, 75, 0
2, 9744, Note_on_c, 0, 74, 75
2, 9759, Note_on_c, 0, 74, 0
2, 9760, Note_on_c, 0, 72, 75
2, 9775, Note_on_c, 0, 72, 0
2, 9776, Note_on_c, 0, 74, 75
2, 9791, Note_on_c, 0, 74, 0
2, 9792, Note_on_c, 0, 75, 75
2, 9881, Note_on_c, 0, 75, 0
2, 9888, Note_on_c, 0, 79, 75
2, 9977, Note_on_c, 0, 79, 0
2, 9984, Note_on_c, 0, 71, 75
2, 10073, Note_on_c, 0, 71, 0
2, 10080, Note_on_c, 0, 72, 75
2, 10169, Note_on_c, 0, 72, 0
2, 10248, Note_on_c, 0, 79, 75
2, 10271, Note_on_c, 0, 79, 0
2, 10272, Note_on_c, 0, 80, 75
2, 10287, Note_on_c, 0, 80, 0
2, 10288, Note_on_c, 0, 79, 75
2, 10303, Note_on_c, 0, 79, 0
2, 10304, Note_on_c, 0, 80, 75
2, 10319, Note_on_c, 0, 80, 0
2, 10320, Note_on_c, 0, 79, 75
2, 10335, Note_on_c, 0, 79, 0
2, 10336, Note_on_c, 0, 77, 75
2, 10351, Note_on_c, 0, 77, 0
2, 10352, Note_on_c, 0, 79, 75
2, 10367, Note_on_c, 0, 79, 0
2, 10368, Note_on_c, 0, 80, 75
2, 10457, Note_on_c, 0, 80, 0
2, 10464, Note_on_c, 0, 84, 75
2, 10553, Note_on_c, 0, 84, 0
2, 10560, Note_on_c, 0, 76, 75
2, 10649, Note_on_c, 0, 76, 0
2, 10656, Note_on_c, 0, 77, 75
2, 10745, Note_on_c, 0, 77, 0
2, 10824, Note_on_c, 0, 79, 75
2, 10847, Note_on_c, 0, 79, 0
2, 10848, Note_on_c, 0, 80, 76
2, 10863, Note_on_c, 0, 80, 0
2, 10864, Note_on_c, 0, 79, 76
2, 10879, Note_on_c, 0, 79, 0
2, 10880, Note_on_c, 0, 80, 76
2, 10895, Note_on_c, 0, 80, 0
2, 10896, Note_on_c, 0, 79, 76
2, 10911, Note_on_c, 0, 79, 0
2, 10912, Note_on_c, 0, 77, 76
2, 10927, Note_on_c, 0, 77, 0
2, 10928, Note_on_c, 0, 79, 76
2, 10943, Note_on_c, 0, 79, 0
2, 10944, Note_on_c, 0, 80, 76
2, 11033, Note_on_c, 0, 80, 0
2, 11040, Note_on_c, 0, 84, 77
2, 11040, Note_on_c, 0, 80, 77
2, 11107, Note_on_c, 0, 84, 0
2, 11107, Note_on_c, 0, 80, 0
2, 11112, Note_on_c, 0, 82, 77
2, 11112, Note_on_c, 0, 79, 77
2, 11135, Note_on_c, 0, 82, 0
2, 11135, Note_on_c, 0, 79, 0
2, 11136, Note_on_c, 0, 80, 77
2, 11136, Note_on_c, 0, 77, 77
2, 11203, Note_on_c, 0, 80, 0
2, 11203, Note_on_c, 0, 77, 0
2, 11208, Note_on_c, 0, 79, 78
2, 11208, Note_on_c, 0, 75, 78
2, 11231, Note_on_c, 0, 79, 0
2, 11231, Note_on_c, 0, 75, 0
2, 11232, Note_on_c, 0, 77, 78
2, 11232, Note_on_c, 0, 74, 78
2, 11271, Note_on_c, 0, 77, 0
2, 11271, Note_on_c, 0, 74, 0
2, 11328, Note_on_c, 0, 77, 78
2, 11328, Note_on_c, 0, 74, 78
2, 11417, Note_on_c, 0, 77, 0
2, 11417, Note_on_c, 0, 74, 0
2, 11424, Note_on_c, 0, 79, 79
2, 11424, Note_on_c, 0, 75, 79
2, 11513, Note_on_c, 0, 79, 0
2, 11513, Note_on_c, 0, 75, 0
2, 11520, Note_on_c, 0, 80, 80
2, 11520, Note_on_c, 0, 77, 80
2, 11578, Note_on_c, 0, 80, 0
2, 11578, Note_on_c, 0, 77, 0
2, 11976, Note_on_c, 0, 70, 75
2, 11999, Note_on_c, 0, 70, 0
2, 12000, Note_on_c, 0, 72, 75
2, 12015, Note_on_c, 0, 72, 0
2, 12016, Note_on_c, 0, 70, 75
2, 12031, Note_on_c, 0, 70, 0
2, 12032, Note_on_c, 0, 72, 75
2, 12047, Note_on_c, 0, 72, 0
2, 12048, Note_on_c, 0, 70, 75
2, 12063, Note_on_c, 0, 70, 0
2, 12064, Note_on_c, 0, 68, 75
2, 12079, Note_on_c, 0, 68, 0
2, 12080, Note_on_c, 0, 70, 75
2, 12095, Note_on_c, 0, 70, 0
2, 12096, Note_on_c, 0, 75, 75
2, 12185, Note_on_c, 0, 75, 0
2, 12192, Note_on_c, 0, 70, 75
2, 12281, Note_on_c, 0, 70, 0
2, 12288, Note_on_c, 0, 68, 75
2, 12377, Note_on_c, 0, 68, 0
2, 12384, Note_on_c, 0, 68, 75
2, 12473, Note_on_c, 0, 68, 0
2, 12480, Note_on_c, 0, 67, 75
2, 12569, Note_on_c, 0, 67, 0
2, 12576, Note_on_c, 0, 67, 75
2, 12591, Note_on_c, 0, 67, 0
2, 12592, Note_on_c, 0, 65, 75
2, 12607, Note_on_c, 0, 65, 0
2, 12608, Note_on_c, 0, 67, 75
2, 12623, Note_on_c, 0, 67, 0
2, 12624, Note_on_c, 0, 65, 75
2, 12639, Note_on_c, 0, 65, 0
2, 12640, Note_on_c, 0, 63, 75
2, 12655, Note_on_c, 0, 63, 0
2, 12656, Note_on_c, 0, 65, 75
2, 12671, Note_on_c, 0, 65, 0
2, 12672, Note_on_c, 0, 65, 75
2, 12761, Note_on_c, 0, 65, 0
2, 12768, Note_on_c, 0, 63, 75
2, 12857, Note_on_c, 0, 63, 0
2, 12864, Note_on_c, 0, 80, 75
2, 12864, Note_on_c, 0, 74, 75
2, 12953, Note_on_c, 0, 80, 0
2, 12953, Note_on_c, 0, 74, 0
2, 12960, Note_on_c, 0, 80, 75
2, 12960, Note_on_c, 0, 74, 75
2, 13056, Note_on_c, 0, 80, 0
2, 13056, Note_on_c, 0, 74, 0
2, 13056, Note_on_c, 0, 79, 75
2, 13056, Note_on_c, 0, 75, 75
2, 13145, Note_on_c, 0, 79, 0
2, 13145, Note_on_c, 0, 75, 0
2, 13320, Note_on_c, 0, 63, 75
2, 13343, Note_on_c, 0, 63, 0
2, 13344, Note_on_c, 0, 75, 75
2, 13411, Note_on_c, 0, 75, 0
2, 13416, Note_on_c, 0, 75, 75
2, 13439, Note_on_c, 0, 75, 0
2, 13440, Note_on_c, 0, 75, 75
2, 13507, Note_on_c, 0, 75, 0
2, 13512, Note_on_c, 0, 75, 75
2, 13535, Note_on_c, 0, 75, 0
2, 13536, Note_on_c, 0, 75, 91
2, 13699, Note_on_c, 0, 75, 0
2, 13704, Note_on_c, 0, 73, 75
2, 13704, Note_on_c, 0, 70, 75
2, 13727, Note_on_c, 0, 73, 0
2, 13727, Note_on_c, 0, 70, 0
2, 13728, Note_on_c, 0, 72, 75
2, 13728, Note_on_c, 0, 68, 75
2, 13795, Note_on_c, 0, 72, 0
2, 13795, Note_on_c, 0, 68, 0
2, 13800, Note_on_c, 0, 70, 75
2, 13800, Note_on_c, 0, 67, 75
2, 13823, Note_on_c, 0, 70, 0
2, 13823, Note_on_c, 0, 67, 0
2, 13824, Note_on_c, 0, 70, 75
2, 13824, Note_on_c, 0, 67, 75
2, 13920, Note_on_c, 0, 70, 0
2, 13920, Note_on_c, 0, 67, 0
2, 13920, Note_on_c, 0, 72, 75
2, 13920, Note_on_c, 0, 68, 75
2, 14009, Note_on_c, 0, 72, 0
2, 14009, Note_on_c, 0, 68, 0
2, 14184, Note_on_c, 0, 68, 75
2, 14207, Note_on_c, 0, 68, 0
2, 14208, Note_on_c, 0, 84, 75
2, 14208, Note_on_c, 0, 80, 75
2, 14275, Note_on_c, 0, 84, 0
2, 14275, Note_on_c, 0, 80, 0
2, 14280, Note_on_c, 0, 82, 75
2, 14280, Note_on_c, 0, 79, 75
2, 14303, Note_on_c, 0, 82, 0
2, 14303, Note_on_c, 0, 79, 0
2, 14304, Note_on_c, 0, 80, 75
2, 14304, Note_on_c, 0, 77, 75
2, 14371, Note_on_c, 0, 80, 0
2, 14371, Note_on_c, 0, 77, 0
2, 14376, Note_on_c, 0, 79, 75
2, 14376, Note_on_c, 0, 75, 75
2, 14399, Note_on_c, 0, 79, 0
2, 14399, Note_on_c, 0, 75, 0
2, 14400, Note_on_c, 0, 77, 75
2, 14400, Note_on_c, 0, 74, 75
2, 14489, Note_on_c, 0, 77, 0
2, 14489, Note_on_c, 0, 74, 0
2, 14712, Note_on_c, 0, 70, 75
2, 14735, Note_on_c, 0, 70, 0
2, 14736, Note_on_c, 0, 72, 75
2, 14759, Note_on_c, 0, 72, 0
2, 14760, Note_on_c, 0, 74, 76
2, 14783, Note_on_c, 0, 74, 0
2, 14784, Note_on_c, 0, 75, 77
2, 14807, Note_on_c, 0, 75, 0
2, 14808, Note_on_c, 0, 77, 77
2, 14831, Note_on_c, 0, 77, 0
2, 14832, Note_on_c, 0, 79, 78
2, 14855, Note_on_c, 0, 79, 0
2, 14856, Note_on_c, 0, 80, 79
2, 14879, Note_on_c, 0, 80, 0
2, 14880, Note_on_c, 0, 82, 80
2, 14925, Note_on_c, 0, 82, 0
2, 14928, Note_on_c, 0, 80, 78
2, 14928, Note_on_c, 0, 77, 78
2, 14973, Note_on_c, 0, 80, 0
2, 14973, Note_on_c, 0, 77, 0
2, 14976, Note_on_c, 0, 79, 77
2, 14976, Note_on_c, 0, 75, 77
2, 15065, Note_on_c, 0, 79, 0
2, 15065, Note_on_c, 0, 75, 0
2, 15288, Note_on_c, 0, 63, 75
2, 15311, Note_on_c, 0, 63, 0
2, 15312, Note_on_c, 0, 65, 75
2, 15335, Note_on_c, 0, 65, 0
2, 15336, Note_on_c, 0, 67, 75
2, 15359, Note_on_c, 0, 67, 0
2, 15360, Note_on_c, 0, 68, 76
2, 15383, Note_on_c, 0, 68, 0
2, 15384, Note_on_c, 0, 70, 77
2, 15407, Note_on_c, 0, 70, 0
2, 15408, Note_on_c, 0, 72, 78
2, 15431, Note_on_c, 0, 72, 0
2, 15432, Note_on_c, 0, 74, 79
2, 15455, Note_on_c, 0, 74, 0
2, 15456, Note_on_c, 0, 75, 80
2, 15501, Note_on_c, 0, 75, 0
2, 15504, Note_on_c, 0, 72, 79
2, 15504, Note_on_c, 0, 68, 79
2, 15549, Note_on_c, 0, 72, 0
2, 15549, Note_on_c, 0, 68, 0
2, 15552, Note_on_c, 0, 70, 78
2, 15552, Note_on_c, 0, 67, 78
2, 15685, Note_on_c, 0, 70, 0
2, 15685, Note_on_c, 0, 67, 0
2, 15696, Note_on_c, 0, 68, 75
2, 15696, Note_on_c, 0, 65, 75
2, 15741, Note_on_c, 0, 68, 0
2, 15741, Note_on_c, 0, 65, 0
2, 15744, Note_on_c, 0, 67, 75
2, 15744, Note_on_c, 0, 63, 75
2, 15789, Note_on_c, 0, 67, 0
2, 15789, Note_on_c, 0, 63, 0
2, 15864, Note_on_c, 0, 63, 75
2, 15887, Note_on_c, 0, 63, 0
2, 15888, Note_on_c, 0, 65, 75
2, 15911, Note_on_c, 0, 65, 0
2, 15912, Note_on_c, 0, 67, 76
2, 15935, Note_on_c, 0, 67, 0
2, 15936, Note_on_c, 0, 68, 77
2, 15959, Note_on_c, 0, 68, 0
2, 15960, Note_on_c, 0, 70, 77
2, 15983, Note_on_c, 0, 70, 0
2, 15984, Note_on_c, 0, 72, 78
2, 16007, Note_on_c, 0, 72, 0
2, 16008, Note_on_c, 0, 74, 79
2, 16031, Note_on_c, 0, 74, 0
2, 16032, Note_on_c, 0, 75, 80
2, 16077, Note_on_c, 0, 75, 0
2, 16080, Note_on_c, 0, 72, 82
2, 16080, Note_on_c, 0, 68, 82
2, 16125, Note_on_c, 0, 72, 0
2, 16125, Note_on_c, 0, 68, 0
2, 16128, Note_on_c, 0, 67, 84
2, 16128, Note_on_c, 0, 63, 84
2, 16151, Note_on_c, 0, 67, 0
2, 16151, Note_on_c, 0, 63, 0
2, 16152, Note_on_c, 0, 67, 86
2, 16175, Note_on_c, 0, 67, 0
2, 16176, Note_on_c, 0, 68, 91
2, 16199, Note_on_c, 0, 68, 0
2, 16200, Note_on_c, 0, 70, 96
2, 16223, Note_on_c, 0, 70, 0
2, 16224, Note_on_c, 0, 72, 101
2, 16247, Note_on_c, 0, 72, 0
2, 16248, Note_on_c, 0, 74, 106
2, 16271, Note_on_c, 0, 74, 0
2, 16272, Note_on_c, 0, 75, 111
2, 16295, Note_on_c, 0, 75, 0
2, 16296, Note_on_c, 0, 77, 116
2, 16319, Note_on_c, 0, 77, 0
2, 16320, Note_on_c, 0, 79, 121
2, 16343, Note_on_c, 0, 79, 0
2, 16344, Note_on_c, 0, 74, 126
2, 16367, Note_on_c, 0, 74, 0
2, 16368, Note_on_c, 0, 75, 126
2, 16391, Note_on_c, 0, 75, 0
2, 16392, Note_on_c, 0, 71, 126
2, 16415, Note_on_c, 0, 71, 0
2, 16416, Note_on_c, 0, 72, 126
2, 16439, Note_on_c, 0, 72, 0
2, 16440, Note_on_c, 0, 67, 121
2, 16463, Note_on_c, 0, 67, 0
2, 16464, Note_on_c, 0, 68, 116
2, 16487, Note_on_c, 0, 68, 0
2, 16488, Note_on_c, 0, 65, 111
2, 16511, Note_on_c, 0, 65, 0
2, 16512, Note_on_c, 0, 63, 106
2, 16601, Note_on_c, 0, 63, 0
2, 16608, Note_on_c, 0, 62, 86
2, 16621, Note_on_c, 0, 62, 0
2, 16622, Note_on_c, 0, 63, 86
2, 16635, Note_on_c, 0, 63, 0
2, 16636, Note_on_c, 0, 62, 86
2, 16649, Note_on_c, 0, 62, 0
2, 16650, Note_on_c, 0, 63, 86
2, 16663, Note_on_c, 0, 63, 0
2, 16664, Note_on_c, 0, 62, 86
2, 16677, Note_on_c, 0, 62, 0
2, 16678, Note_on_c, 0, 60, 86
2, 16690, Note_on_c, 0, 60, 0
2, 16691, Note_on_c, 0, 62, 86
2, 16703, Note_on_c, 0, 62, 0
2, 16704, Note_on_c, 0, 63, 86
2, 16793, Note_on_c, 0, 63, 0
2, 17160, Note_on_c, 0, 70, 75
2, 17183, Note_on_c, 0, 70, 0
2, 17184, Note_on_c, 0, 72, 75
2, 17199, Note_on_c, 0, 72, 0
2, 17200, Note_on_c, 0, 70, 75
2, 17215, Note_on_c, 0, 70, 0
2, 17216, Note_on_c, 0, 72, 75
2, 17231, Note_on_c, 0, 72, 0
2, 17232, Note_on_c, 0, 70, 75
2, 17247, Note_on_c, 0, 70, 0
2, 17248, Note_on_c, 0, 68, 75
2, 17263, Note_on_c, 0, 68, 0
2, 17264, Note_on_c, 0, 70, 75
2, 17279, Note_on_c, 0, 70, 0
2, 17280, Note_on_c, 0, 77, 75
2, 17369, Note_on_c, 0, 77, 0
2, 17376, Note_on_c, 0, 74, 75
2, 17465, Note_on_c, 0, 74, 0
2, 17472, Note_on_c, 0, 70, 75
2, 17561, Note_on_c, 0, 70, 0
2, 17568, Note_on_c, 0, 68, 75
2, 17657, Note_on_c, 0, 68, 0
2, 17736, Note_on_c, 0, 74, 75
2, 17759, Note_on_c, 0, 74, 0
2, 17760, Note_on_c, 0, 75, 75
2, 17775, Note_on_c, 0, 75, 0
2, 17776, Note_on_c, 0, 74, 75
2, 17791, Note_on_c, 0, 74, 0
2, 17792, Note_on_c, 0, 75, 75
2, 17807, Note_on_c, 0, 75, 0
2, 17808, Note_on_c, 0, 74, 75
2, 17823, Note_on_c, 0, 74, 0
2, 17824, Note_on_c, 0, 72, 75
2, 17839, Note_on_c, 0, 72, 0
2, 17840, Note_on_c, 0, 74, 75
2, 17855, Note_on_c, 0, 74, 0
2, 17856, Note_on_c, 0, 77, 75
2, 17945, Note_on_c, 0, 77, 0
2, 17952, Note_on_c, 0, 74, 75
2, 18041, Note_on_c, 0, 74, 0
2, 18048, Note_on_c, 0, 71, 75
2, 18137, Note_on_c, 0, 71, 0
2, 18144, Note_on_c, 0, 67, 75
2, 18233, Note_on_c, 0, 67, 0
2, 18312, Note_on_c, 0, 74, 75
2, 18335, Note_on_c, 0, 74, 0
2, 18336, Note_on_c, 0, 75, 75
2, 18351, Note_on_c, 0, 75, 0
2, 18352, Note_on_c, 0, 74, 75
2, 18367, Note_on_c, 0, 74, 0
2, 18368, Note_on_c, 0, 75, 75
2, 18383, Note_on_c, 0, 75, 0
2, 18384, Note_on_c, 0, 74, 75
2, 18399, Note_on_c, 0, 74, 0
2, 18400, Note_on_c, 0, 72, 75
2, 18415, Note_on_c, 0, 72, 0
2, 18416, Note_on_c, 0, 74, 75
2, 18431, Note_on_c, 0, 74, 0
2, 18432, Note_on_c, 0, 75, 75
2, 18521, Note_on_c, 0, 75, 0
2, 18528, Note_on_c, 0, 79, 75
2, 18617, Note_on_c, 0, 79, 0
2, 18624, Note_on_c, 0, 71, 75
2, 18713, Note_on_c, 0, 71, 0
2, 18720, Note_on_c, 0, 72, 75
2, 18809, Note_on_c, 0, 72, 0
2, 18888, Note_on_c, 0, 79, 75
2, 18911, Note_on_c, 0, 79, 0
2, 18912, Note_on_c, 0, 80, 75
2, 18927, Note_on_c, 0, 80, 0
2, 18928, Note_on_c, 0, 79, 75
2, 18943, Note_on_c, 0, 79, 0
2, 18944, Note_on_c, 0, 80, 75
2, 18959, Note_on_c, 0, 80, 0
2, 18960, Note_on_c, 0, 79, 75
2, 18975, Note_on_c, 0, 79, 0
2, 18976, Note_on_c, 0, 77, 75
2, 18991, Note_on_c, 0, 77, 0
2, 18992, Note_on_c, 0, 79, 75
2, 19007, Note_on_c, 0, 79, 0
2, 19008, Note_on_c, 0, 80, 75
2, 19097, Note_on_c, 0, 80, 0
2, 19104, Note_on_c, 0, 84, 75
2, 19193, Note_on_c, 0, 84, 0
2, 19200, Note_on_c, 0, 76, 75
2, 19289, Note_on_c, 0, 76, 0
2, 19296, Note_on_c, 0, 77, 75
2, 19385, Note_on_c, 0, 77, 0
2, 19464, Note_on_c, 0, 79, 75
2, 19487, Note_on_c, 0, 79, 0
2, 19488, Note_on_c, 0, 80, 76
2, 19503, Note_on_c, 0, 80, 0
2, 19504, Note_on_c, 0, 79, 76
2, 19519, Note_on_c, 0, 79, 0
2, 19520, Note_on_c, 0, 80, 76
2, 19535, Note_on_c, 0, 80, 0
2, 19536, Note_on_c, 0, 79, 76
2, 19551, Note_on_c, 0, 79, 0
2, 19552, Note_on_c, 0, 77, 76
2, 19567, Note_on_c, 0, 77, 0
2, 19568, Note_on_c, 0, 79, 76
2, 19583, Note_on_c, 0, 79, 0
2, 19584, Note_on_c, 0, 80, 76
2, 19673, Note_on_c, 0, 80, 0
2, 19680, Note_on_c, 0, 84, 77
2, 19680, Note_on_c, 0, 80, 77
2, 19747, Note_on_c, 0, 84, 0
2, 19747, Note_on_c, 0, 80, 0
2, 19752, Note_on_c, 0, 82, 77
2, 19752, Note_on_c, 0, 79, 77
2, 19775, Note_on_c, 0, 82, 0
2, 19775, Note_on_c, 0, 79, 0
2, 19776, Note_on_c, 0, 80, 77
2, 19776, Note_on_c, 0, 77, 77
2, 19843, Note_on_c, 0, 80, 0
2, 19843, Note_on_c, 0, 77, 0
2, 19848, Note_on_c, 0, 79, 78
2, 19848, Note_on_c, 0, 75, 78
2, 19871, Note_on_c, 0, 79, 0
2, 19871, Note_on_c, 0, 75, 0
2, 19872, Note_on_c, 0, 77, 78
2, 19872, Note_on_c, 0, 74, 78
2, 19911, Note_on_c, 0, 77, 0
2, 19911, Note_on_c, 0, 74, 0
2, 19968, Note_on_c, 0, 77, 78
2, 19968, Note_on_c, 0, 74, 78
2, 20057, Note_on_c, 0, 77, 0
2, 20057, Note_on_c, 0, 74, 0
2, 20064, Note_on_c, 0, 79, 79
2, 20064, Note_on_c, 0, 75, 79
2, 20153, Note_on_c, 0, 79, 0
2, 20153, Note_on_c, 0, 75, 0
2, 20160, Note_on_c, 0, 80, 80
2, 20160, Note_on_c, 0, 77, 80
2, 20218, Note_on_c, 0, 80, 0
2, 20218, Note_on_c, 0, 77, 0
2, 20616, Note_on_c, 0, 70, 75
2, 20639, Note_on_c, 0, 70, 0
2, 20640, Note_on_c, 0, 72, 75
2, 20655, Note_on_c, 0, 72, 0
2, 20656, Note_on_c, 0, 70, 75
2, 20671, Note_on_c, 0, 70, 0
2, 20672, Note_on_c, 0, 72, 75
2, 20687, Note_on_c, 0, 72, 0
2, 20688, Note_on_c, 0, 70, 75
2, 20703, Note_on_c, 0, 70, 0
2, 20704, Note_on_c, 0, 68, 75
2, 20719, Note_on_c, 0, 68, 0
2, 20720, Note_on_c, 0, 70, 75
2, 20735, Note_on_c, 0, 70, 0
2, 20736, Note_on_c, 0, 75, 75
2, 20825, Note_on_c, 0, 75, 0
2, 20832, Note_on_c, 0, 70, 75
2, 20921, Note_on_c, 0, 70, 0
2, 20928, Note_on_c, 0, 68, 75
2, 21017, Note_on_c, 0, 68, 0
2, 21024, Note_on_c, 0, 68, 75
2, 21113, Note_on_c, 0, 68, 0
2, 21120, Note_on_c, 0, 67, 75
2, 21209, Note_on_c, 0, 67, 0
2, 21216, Note_on_c, 0, 67, 75
2, 21231, Note_on_c, 0, 67, 0
2, 21232, Note_on_c, 0, 65, 75
2, 21247, Note_on_c, 0, 65, 0
2, 21248, Note_on_c, 0, 67, 75
2, 21263, Note_on_c, 0, 67, 0
2, 21264, Note_on_c, 0, 65, 75
2, 21279, Note_on_c, 0, 65, 0
2, 21280, Note_on_c, 0, 63, 75
2, 21295, Note_on_c, 0, 63, 0
2, 21296, Note_on_c, 0, 65, 75
2, 21311, Note_on_c, 0, 65, 0
2, 21312, Note_on_c, 0, 65, 75
2, 21401, Note_on_c, 0, 65, 0
2, 21408, Note_on_c, 0, 63, 75
2, 21497, Note_on_c, 0, 63, 0
2, 21504, Note_on_c, 0, 80, 75
2, 21504, Note_on_c, 0, 74, 75
2, 21593, Note_on_c, 0, 80, 0
2, 21593, Note_on_c, 0, 74, 0
2, 21600, Note_on_c, 0, 80, 75
2, 21600, Note_on_c, 0, 74, 75
2, 21696, Note_on_c, 0, 80, 0
2, 21696, Note_on_c, 0, 74, 0
2, 21696, Note_on_c, 0, 79, 75
2, 21696, Note_on_c, 0, 75, 75
2, 21785, Note_on_c, 0, 79, 0
2, 21785, Note_on_c, 0, 75, 0
2, 21960, Note_on_c, 0, 63, 75
2, 21983, Note_on_c, 0, 63, 0
2, 21984, Note_on_c, 0, 75, 75
2, 22051, Note_on_c, 0, 75, 0
2, 22056, Note_on_c, 0, 75, 75
2, 22079, Note_on_c, 0, 75, 0
2, 22080, Note_on_c, 0, 75, 75
2, 22147, Note_on_c, 0, 75, 0
2, 22152, Note_on_c, 0, 75, 75
2, 22175, Note_on_c, 0, 75, 0
2, 22176, Note_on_c, 0, 75, 91
2, 22339, Note_on_c, 0, 75, 0
2, 22344, Note_on_c, 0, 73, 75
2, 22344, Note_on_c, 0, 70, 75
2, 22367, Note_on_c, 0, 73, 0
2, 22367, Note_on_c, 0, 70, 0
2, 22368, Note_on_c, 0, 72, 75
2, 22368, Note_on_c, 0, 68, 75
2, 22435, Note_on_c, 0, 72, 0
2, 22435, Note_on_c, 0, 68, 0
2, 22440, Note_on_c, 0, 70, 75
2, 22440, Note_on_c, 0, 67, 75
2, 22463, Note_on_c, 0, 70, 0
2, 22463, Note_on_c, 0, 67, 0
2, 22464, Note_on_c, 0, 70, 75
2, 22464, Note_on_c, 0, 67, 75
2, 22560, Note_on_c, 0, 70, 0
2, 22560, Note_on_c, 0, 67, 0
2, 22560, Note_on_c, 0, 72, 75
2, 22560, Note_on_c, 0, 68, 75
2, 22649, Note_on_c, 0, 72, 0
2, 22649, Note_on_c, 0, 68, 0
2, 22824, Note_on_c, 0, 68, 75
2, 22847, Note_on_c, 0, 68, 0
2, 22848, Note_on_c, 0, 84, 75
2, 22848, Note_on_c, 0, 80, 75
2, 22915, Note_on_c, 0, 84, 0
2, 22915, Note_on_c, 0, 80, 0
2, 22920, Note_on_c, 0, 82, 75
2, 22920, Note_on_c, 0, 79, 75
2, 22943, Note_on_c, 0, 82, 0
2, 22943, Note_on_c, 0, 79, 0
2, 22944, Note_on_c, 0, 80, 75
2, 22944, Note_on_c, 0, 77, 75
2, 23011, Note_on_c, 0, 80, 0
2, 23011, Note_on_c, 0, 77, 0
2, 23016, Note_on_c, 0, 79, 75
2, 23016, Note_on_c, 0, 75, 75
2, 23039, Note_on_c, 0, 79, 0
2, 23039, Note_on_c, 0, 75, 0
2, 23040, Note_on_c, 0, 77, 75
2, 23040, Note_on_c, 0, 74, 75
2, 23129, Note_on_c, 0, 77, 0
2, 23129, Note_on_c, 0, 74, 0
2, 23352, Note_on_c, 0, 70, 75
2, 23375, Note_on_c, 0, 70, 0
2, 23376, Note_on_c, 0, 72, 75
2, 23399, Note_on_c, 0, 72, 0
2, 23400, Note_on_c, 0, 74, 76
2, 23423, Note_on_c, 0, 74, 0
2, 23424, Note_on_c, 0, 75, 77
2, 23447, Note_on_c, 0, 75, 0
2, 23448, Note_on_c, 0, 77, 77
2, 23471, Note_on_c, 0, 77, 0
2, 23472, Note_on_c, 0, 79, 78
2, 23495, Note_on_c, 0, 79, 0
2, 23496, Note_on_c, 0, 80, 79
2, 23519, Note_on_c, 0, 80, 0
2, 23520, Note_on_c, 0, 82, 80
2, 23565, Note_on_c, 0, 82, 0
2, 23568, Note_on_c, 0, 80, 78
2, 23568, Note_on_c, 0, 77, 78
2, 23613, Note_on_c, 0, 80, 0
2, 23613, Note_on_c, 0, 77, 0
2, 23616, Note_on_c, 0, 79, 77
2, 23616, Note_on_c, 0, 75, 77
2, 23705, Note_on_c, 0, 79, 0
2, 23705, Note_on_c, 0, 75, 0
2, 23928, Note_on_c, 0, 63, 75
2, 23951, Note_on_c, 0, 63, 0
2, 23952, Note_on_c, 0, 65, 75
2, 23975, Note_on_c, 0, 65, 0
2, 23976, Note_on_c, 0, 67, 75
2, 23999, Note_on_c, 0, 67, 0
2, 24000, Note_on_c, 0, 68, 76
2, 24023, Note_on_c, 0, 68, 0
2, 24024, Note_on_c, 0, 70, 77
2, 24047, Note_on_c, 0, 70, 0
2, 24048, Note_on_c, 0, 72, 78
2, 24071, Note_on_c, 0, 72, 0
2, 24072, Note_on_c, 0, 74, 79
2, 24095, Note_on_c, 0, 74, 0
2, 24096, Note_on_c, 0, 75, 80
2, 24141, Note_on_c, 0, 75, 0
2, 24144, Note_on_c, 0, 72, 79
2, 24144, Note_on_c, 0, 68, 79
2, 24189, Note_on_c, 0, 72, 0
2, 24189, Note_on_c, 0, 68, 0
2, 24192, Note_on_c, 0, 70, 78
2, 24192, Note_on_c, 0, 67, 78
2, 24325, Note_on_c, 0, 70, 0
2, 24325, Note_on_c, 0, 67, 0
2, 24336, Note_on_c, 0, 68, 75
2, 24336, Note_on_c, 0, 65, 75
2, 24381, Note_on_c, 0, 68, 0
2, 24381, Note_on_c, 0, 65, 0
2, 24384, Note_on_c, 0, 67, 75
2, 24384, Note_on_c, 0, 63, 75
2, 24429, Note_on_c, 0, 67, 0
2, 24429, Note_on_c, 0, 63, 0
2, 24504, Note_on_c, 0, 63, 75
2, 24527, Note_on_c, 0, 63, 0
2, 24528, Note_on_c, 0, 65, 75
2, 24551, Note_on_c, 0, 65, 0
2, 24552, Note_on_c, 0, 67, 76
2, 24575, Note_on_c, 0, 67, 0
2, 24576, Note_on_c, 0, 68, 77
2, 24599, Note_on_c, 0, 68, 0
2, 24600, Note_on_c, 0, 70, 77
2, 24623, Note_on_c, 0, 70, 0
2, 24624, Note_on_c, 0, 72, 78
2, 24647, Note_on_c, 0, 72, 0
2, 24648, Note_on_c, 0, 74, 79
2, 24671, Note_on_c, 0, 74, 0
2, 24672, Note_on_c, 0, 75, 80
2, 24717, Note_on_c, 0, 75, 0
2, 24720, Note_on_c, 0, 72, 82
2, 24720, Note_on_c, 0, 68, 82
2, 24765, Note_on_c, 0, 72, 0
2, 24765, Note_on_c, 0, 68, 0
2, 24768, Note_on_c, 0, 67, 84
2, 24768, Note_on_c, 0, 63, 84
2, 24791, Note_on_c, 0, 67, 0
2, 24791, Note_on_c, 0, 63, 0
2, 24792, Note_on_c, 0, 67, 86
2, 24815, Note_on_c, 0, 67, 0
2, 24816, Note_on_c, 0, 68, 91
2, 24839, Note_on_c, 0, 68, 0
2, 24840, Note_on_c, 0, 70, 96
2, 24863, Note_on_c, 0, 70, 0
2, 24864, Note_on_c, 0, 72, 101
2, 24887, Note_on_c, 0, 72, 0
2, 24888, Note_on_c, 0, 74, 106
2, 24911, Note_on_c, 0, 74, 0
2, 24912, Note_on_c, 0, 75, 111
2, 24935, Note_on_c, 0, 75, 0
2, 24936, Note_on_c, 0, 77, 116
2, 24959, Note_on_c, 0, 77, 0
2, 24960, Note_on_c, 0, 79, 121
2, 24983, Note_on_c, 0, 79, 0
2, 24984, Note_on_c, 0, 74, 126
2, 25007, Note_on_c, 0, 74, 0
2, 25008, Note_on_c, 0, 75, 126
2, 25031, Note_on_c, 0, 75, 0
2, 25032, Note_on_c, 0, 71, 126
2, 25055, Note_on_c, 0, 71, 0
2, 25056, Note_on_c, 0, 72, 126
2, 25079, Note_on_c, 0, 72, 0
2, 25080, Note_on_c, 0, 67, 121
2, 25103, Note_on_c, 0, 67, 0
2, 25104, Note_on_c, 0, 68, 116
2, 25127, Note_on_c, 0, 68, 0
2, 25128, Note_on_c, 0, 65, 111
2, 25151, Note_on_c, 0, 65, 0
2, 25152, Note_on_c, 0, 63, 106
2, 25241, Note_on_c, 0, 63, 0
2, 25248, Note_on_c, 0, 62, 86
2, 25261, Note_on_c, 0, 62, 0
2, 25262, Note_on_c, 0, 63, 86
2, 25275, Note_on_c, 0, 63, 0
2, 25276, Note_on_c, 0, 62, 86
2, 25289, Note_on_c, 0, 62, 0
2, 25290, Note_on_c, 0, 63, 86
2, 25303, Note_on_c, 0, 63, 0
2, 25304, Note_on_c, 0, 62, 86
2, 25317, Note_on_c, 0, 62, 0
2, 25318, Note_on_c, 0, 60, 86
2, 25330, Note_on_c, 0, 60, 0
2, 25331, Note_on_c, 0, 62, 86
2, 25343, Note_on_c, 0, 62, 0
2, 25344, Note_on_c, 0, 63, 86
2, 25433, Note_on_c, 0, 63, 0
2, 25632, End_track
3, 0, Start_track
3, 0, Program_c, 0, 0
3, 0, Control_c, 0, 7, 127
3, 0, Control_c, 0, 10, 64
3, 25632, End_track
4, 0, Start_track
4, 0, Program_c, 1, 0
4, 0, Control_c, 1, 7, 127
4, 0, Control_c, 1, 10, 64
4, 456, Note_on_c, 1, 58, 75
4, 479, Note_on_c, 1, 58, 0
4, 480, Note_on_c, 1, 60, 75
4, 495, Note_on_c, 1, 60, 0
4, 496, Note_on_c, 1, 58, 75
4, 511, Note_on_c, 1, 58, 0
4, 512, Note_on_c, 1, 60, 75
4, 527, Note_on_c, 1, 60, 0
4, 528, Note_on_c, 1, 58, 75
4, 543, Note_on_c, 1, 58, 0
4, 544, Note_on_c, 1, 56, 75
4, 559, Note_on_c, 1, 56, 0
4, 560, Note_on_c, 1, 58, 75
4, 575, Note_on_c, 1, 58, 0
4, 576, Note_on_c, 1, 63, 75
4, 665, Note_on_c, 1, 63, 0
4, 672, Note_on_c, 1, 58, 75
4, 761, Note_on_c, 1, 58, 0
4, 768, Note_on_c, 1, 56, 75
4, 857, Note_on_c, 1, 56, 0
4, 864, Note_on_c, 1, 56, 75
4, 953, Note_on_c, 1, 56, 0
4, 960, Note_on_c, 1, 55, 75
4, 1049, Note_on_c, 1, 55, 0
4, 1056, Note_on_c, 1, 55, 75
4, 1071, Note_on_c, 1, 55, 0
4, 1072, Note_on_c, 1, 53, 75
4, 1087, Note_on_c, 1, 53, 0
4, 1088, Note_on_c, 1, 55, 75
4, 1103, Note_on_c, 1, 55, 0
4, 1104, Note_on_c, 1, 53, 75
4, 1119, Note_on_c, 1, 53, 0
4, 1120, Note_on_c, 1, 51, 75
4, 1135, Note_on_c, 1, 51, 0
4, 1136, Note_on_c, 1, 53, 75
4, 1151, Note_on_c, 1, 53, 0
4, 1152, Note_on_c, 1, 53, 75
4, 1241, Note_on_c, 1, 53, 0
4, 1248, Note_on_c, 1, 51, 75
4, 1337, Note_on_c, 1, 51, 0
4, 1344, Note_on_c, 1, 68, 75
4, 1344, Note_on_c, 1, 62, 75
4, 1433, Note_on_c, 1, 68, 0
4, 1433, Note_on_c, 1, 62, 0
4, 1440, Note_on_c, 1, 68, 75
4, 1440, Note_on_c, 1, 62, 75
4, 1536, Note_on_c, 1, 68, 0
4, 1536, Note_on_c, 1, 62, 0
4, 1536, Note_on_c, 1, 67, 75
4, 1536, Note_on_c, 1, 63, 75
4, 1625, Note_on_c, 1, 67, 0
4, 1625, Note_on_c, 1, 63, 0
4, 1800, Note_on_c, 1, 58, 75
4, 1823, Note_on_c, 1, 58, 0
4, 1824, Note_on_c, 1, 70, 75
4, 1891, Note_on_c, 1, 70, 0
4, 1896, Note_on_c, 1, 70, 75
4, 1919, Note_on_c, 1, 70, 0
4, 1920, Note_on_c, 1, 70, 75
4, 1987, Note_on_c, 1, 70, 0
4, 1992, Note_on_c, 1, 70, 75
4, 2015, Note_on_c, 1, 70, 0
4, 2016, Note_on_c, 1, 70, 91
4, 2179, Note_on_c, 1, 70, 0
4, 2184, Note_on_c, 1, 68, 75
4, 2184, Note_on_c, 1, 65, 75
4, 2207, Note_on_c, 1, 68, 0
4, 2207, Note_on_c, 1, 65, 0
4, 2208, Note_on_c, 1, 67, 75
4, 2208, Note_on_c, 1, 63, 75
4, 2275, Note_on_c, 1, 67, 0
4, 2275, Note_on_c, 1, 63, 0
4, 2280, Note_on_c, 1, 65, 75
4, 2280, Note_on_c, 1, 62, 75
4, 2303, Note_on_c, 1, 65, 0
4, 2303, Note_on_c, 1, 62, 0
4, 2304, Note_on_c, 1, 65, 75
4, 2304, Note_on_c, 1, 62, 75
4, 2393, Note_on_c, 1, 65, 0
4, 2393, Note_on_c, 1, 62, 0
4, 2400, Note_on_c, 1, 67, 75
4, 2400, Note_on_c, 1, 63, 75
4, 2489, Note_on_c, 1, 67, 0
4, 2489, Note_on_c, 1, 63, 0
4, 2496, Note_on_c, 1, 68, 75
4, 2496, Note_on_c, 1, 65, 75
4, 2585, Note_on_c, 1, 68, 0
4, 2585, Note_on_c, 1, 65, 0
4, 2592, Note_on_c, 1, 68, 75
4, 2592, Note_on_c, 1, 65, 75
4, 2681, Note_on_c, 1, 68, 0
4, 2681, Note_on_c, 1, 65, 0
4, 2688, Note_on_c, 1, 67, 75
4, 2688, Note_on_c, 1, 63, 75
4, 2777, Note_on_c, 1, 67, 0
4, 2777, Note_on_c, 1, 63, 0
4, 2904, Note_on_c, 1, 58, 75
4, 2927, Note_on_c, 1, 58, 0
4, 2928, Note_on_c, 1, 60, 75
4, 2951, Note_on_c, 1, 60, 0
4, 2952, Note_on_c, 1, 62, 75
4, 2975, Note_on_c, 1, 62, 0
4, 2976, Note_on_c, 1, 63, 76
4, 2999, Note_on_c, 1, 63, 0
4, 3000, Note_on_c, 1, 65, 76
4, 3023, Note_on_c, 1, 65, 0
4, 3024, Note_on_c, 1, 67, 77
4, 3047, Note_on_c, 1, 67, 0
4, 3048, Note_on_c, 1, 69, 77
4, 3071, Note_on_c, 1, 69, 0
4, 3072, Note_on_c, 1, 70, 78
4, 3117, Note_on_c, 1, 70, 0
4, 3120, Note_on_c, 1, 67, 79
4, 3120, Note_on_c, 1, 63, 79
4, 3165, Note_on_c, 1, 67, 0
4, 3165, Note_on_c, 1, 63, 0
4, 3168, Note_on_c, 1, 65, 80
4, 3168, Note_on_c, 1, 62, 80
4, 3301, Note_on_c, 1, 65, 0
4, 3301, Note_on_c, 1, 62, 0
4, 3312, Note_on_c, 1, 63, 77
4, 3312, Note_on_c, 1, 60, 77
4, 3357, Note_on_c, 1, 63, 0
4, 3357, Note_on_c, 1, 60, 0
4, 3360, Note_on_c, 1, 62, 76
4, 3360, Note_on_c, 1, 58, 76
4, 3405, Note_on_c, 1, 62, 0
4, 3405, Note_on_c, 1, 58, 0
4, 3480, Note_on_c, 1, 58, 75
4, 3503, Note_on_c, 1, 58, 0
4, 3504, Note_on_c, 1, 60, 75
4, 3527, Note_on_c, 1, 60, 0
4, 3528, Note_on_c, 1, 62, 76
4, 3551, Note_on_c, 1, 62, 0
4, 3552, Note_on_c, 1, 63, 77
4, 3575, Note_on_c, 1, 63, 0
4, 3576, Note_on_c, 1, 65, 77
4, 3599, Note_on_c, 1, 65, 0
4, 3600, Note_on_c, 1, 67, 78
4, 3623, Note_on_c, 1, 67, 0
4, 3624, Note_on_c, 1, 69, 79
4, 3647, Note_on_c, 1, 69, 0
4, 3648, Note_on_c, 1, 70, 80
4, 3693, Note_on_c, 1, 70, 0
4, 3696, Note_on_c, 1, 62, 78
4, 3741, Note_on_c, 1, 62, 0
4, 3744, Note_on_c, 1, 63, 76
4, 3789, Note_on_c, 1, 63, 0
4, 3840, Note_on_c, 1, 62, 75
4, 3929, Note_on_c, 1, 62, 0
4, 3936, Note_on_c, 1, 60, 75
4, 4025, Note_on_c, 1, 60, 0
4, 4032, Note_on_c, 1, 58, 75
4, 4121, Note_on_c, 1, 58, 0
4, 4128, Note_on_c, 1, 46, 75
4, 4195, Note_on_c, 1, 46, 0
4, 4488, Note_on_c, 1, 58, 75
4, 4511, Note_on_c, 1, 58, 0
4, 4512, Note_on_c, 1, 60, 75
4, 4527, Note_on_c, 1, 60, 0
4, 4528, Note_on_c, 1, 58, 75
4, 4543, Note_on_c, 1, 58, 0
4, 4544, Note_on_c, 1, 60, 75
4, 4559, Note_on_c, 1, 60, 0
4, 4560, Note_on_c, 1, 58, 75
4, 4575, Note_on_c, 1, 58, 0
4, 4576, Note_on_c, 1, 56, 75
4, 4591, Note_on_c, 1, 56, 0
4, 4592, Note_on_c, 1, 58, 75
4, 4607, Note_on_c, 1, 58, 0
4, 4608, Note_on_c, 1, 63, 75
4, 4697, Note_on_c, 1, 63, 0
4, 4704, Note_on_c, 1, 58, 75
4, 4793, Note_on_c, 1, 58, 0
4, 4800, Note_on_c, 1, 56, 75
4, 4889, Note_on_c, 1, 56, 0
4, 4896, Note_on_c, 1, 56, 75
4, 4985, Note_on_c, 1, 56, 0
4, 4992, Note_on_c, 1, 55, 75
4, 5081, Note_on_c, 1, 55, 0
4, 5088, Note_on_c, 1, 55, 75
4, 5103, Note_on_c, 1, 55, 0
4, 5104, Note_on_c, 1, 53, 75
4, 5119, Note_on_c, 1, 53, 0
4, 5120, Note_on_c, 1, 55, 75
4, 5135, Note_on_c, 1, 55, 0
4, 5136, Note_on_c, 1, 53, 75
4, 5151, Note_on_c, 1, 53, 0
4, 5152, Note_on_c, 1, 51, 75
4, 5167, Note_on_c, 1, 51, 0
4, 5168, Note_on_c, 1, 53, 75
4, 5183, Note_on_c, 1, 53, 0
4, 5184, Note_on_c, 1, 53, 75
4, 5273, Note_on_c, 1, 53, 0
4, 5280, Note_on_c, 1, 51, 75
4, 5369, Note_on_c, 1, 51, 0
4, 5376, Note_on_c, 1, 68, 75
4, 5376, Note_on_c, 1, 62, 75
4, 5465, Note_on_c, 1, 68, 0
4, 5465, Note_on_c, 1, 62, 0
4, 5472, Note_on_c, 1, 68, 75
4, 5472, Note_on_c, 1, 62, 75
4, 5568, Note_on_c, 1, 68, 0
4, 5568, Note_on_c, 1, 62, 0
4, 5568, Note_on_c, 1, 67, 75
4, 5568, Note_on_c, 1, 63, 75
4, 5657, Note_on_c, 1, 67, 0
4, 5657, Note_on_c, 1, 63, 0
4, 5832, Note_on_c, 1, 58, 75
4, 5855, Note_on_c, 1, 58, 0
4, 5856, Note_on_c, 1, 70, 75
4, 5923, Note_on_c, 1, 70, 0
4, 5928, Note_on_c, 1, 70, 75
4, 5951, Note_on_c, 1, 70, 0
4, 5952, Note_on_c, 1, 70, 75
4, 6019, Note_on_c, 1, 70, 0
4, 6024, Note_on_c, 1, 70, 75
4, 6047, Note_on_c, 1, 70, 0
4, 6048, Note_on_c, 1, 70, 91
4, 6211, Note_on_c, 1, 70, 0
4, 6216, Note_on_c, 1, 68, 75
4, 6216, Note_on_c, 1, 65, 75
4, 6239, Note_on_c, 1, 68, 0
4, 6239, Note_on_c, 1, 65, 0
4, 6240, Note_on_c, 1, 67, 75
4, 6240, Note_on_c, 1, 63, 75
4, 6307, Note_on_c, 1, 67, 0
4, 6307, Note_on_c, 1, 63, 0
4, 6312, Note_on_c, 1, 65, 75
4, 6312, Note_on_c, 1, 62, 75
4, 6335, Note_on_c, 1, 65, 0
4, 6335, Note_on_c, 1, 62, 0
4, 6336, Note_on_c, 1, 65, 75
4, 6336, Note_on_c, 1, 62, 75
4, 6425, Note_on_c, 1, 65, 0
4, 6425, Note_on_c, 1, 62, 0
4, 6432, Note_on_c, 1, 67, 75
4, 6432, Note_on_c, 1, 63, 75
4, 6521, Note_on_c, 1, 67, 0
4, 6521, Note_on_c, 1, 63, 0
4, 6528, Note_on_c, 1, 68, 75
4, 6528, Note_on_c, 1, 65, 75
4, 6617, Note_on_c, 1, 68, 0
4, 6617, Note_on_c, 1, 65, 0
4, 6624, Note_on_c, 1, 68, 75
4, 6624, Note_on_c, 1, 65, 75
4, 6713, Note_on_c, 1, 68, 0
4, 6713, Note_on_c, 1, 65, 0
4, 6720, Note_on_c, 1, 67, 75
4, 6720, Note_on_c, 1, 63, 75
4, 6809, Note_on_c, 1, 67, 0
4, 6809, Note_on_c, 1, 63, 0
4, 6936, Note_on_c, 1, 58, 75
4, 6959, Note_on_c, 1, 58, 0
4, 6960, Note_on_c, 1, 60, 75
4, 6983, Note_on_c, 1, 60, 0
4, 6984, Note_on_c, 1, 62, 75
4, 7007, Note_on_c, 1, 62, 0
4, 7008, Note_on_c, 1, 63, 76
4, 7031, Note_on_c, 1, 63, 0
4, 7032, Note_on_c, 1, 65, 76
4, 7055, Note_on_c, 1, 65, 0
4, 7056, Note_on_c, 1, 67, 77
4, 7079, Note_on_c, 1, 67, 0
4, 7080, Note_on_c, 1, 69, 77
4, 7103, Note_on_c, 1, 69, 0
4, 7104, Note_on_c, 1, 70, 78
4, 7149, Note_on_c, 1, 70, 0
4, 7152, Note_on_c, 1, 67, 79
4, 7152, Note_on_c, 1, 63, 79
4, 7197, Note_on_c, 1, 67, 0
4, 7197, Note_on_c, 1, 63, 0
4, 7200, Note_on_c, 1, 65, 80
4, 7200, Note_on_c, 1, 62, 80
4, 7333, Note_on_c, 1, 65, 0
4, 7333, Note_on_c, 1, 62, 0
4, 7344, Note_on_c, 1, 63, 77
4, 7344, Note_on_c, 1, 60, 77
4, 7389, Note_on_c, 1, 63, 0
4, 7389, Note_on_c, 1, 60, 0
4, 7392, Note_on_c, 1, 62, 76
4, 7392, Note_on_c, 1, 58, 76
4, 7437, Note_on_c, 1, 62, 0
4, 7437, Note_on_c, 1, 58, 0
4, 7512, Note_on_c, 1, 58, 75
4, 7535, Note_on_c, 1, 58, 0
4, 7536, Note_on_c, 1, 60, 75
4, 7559, Note_on_c, 1, 60, 0
4, 7560, Note_on_c, 1, 62, 76
4, 7583, Note_on_c, 1, 62, 0
4, 7584, Note_on_c, 1, 63, 77
4, 7607, Note_on_c, 1, 63, 0
4, 7608, Note_on_c, 1, 65, 77
4, 7631, Note_on_c, 1, 65, 0
4, 7632, Note_on_c, 1, 67, 78
4, 7655, Note_on_c, 1, 67, 0
4, 7656, Note_on_c, 1, 69, 79
4, 7679, Note_on_c, 1, 69, 0
4, 7680, Note_on_c, 1, 70, 80
4, 7725, Note_on_c, 1, 70, 0
4, 7728, Note_on_c, 1, 62, 78
4, 7773, Note_on_c, 1, 62, 0
4, 7776, Note_on_c, 1, 63, 76
4, 7821, Note_on_c, 1, 63, 0
4, 7872, Note_on_c, 1, 62, 75
4, 7961, Note_on_c, 1, 62, 0
4, 7968, Note_on_c, 1, 60, 75
4, 8057, Note_on_c, 1, 60, 0
4, 8064, Note_on_c, 1, 58, 75
4, 8153, Note_on_c, 1, 58, 0
4, 8160, Note_on_c, 1, 46, 75
4, 8227, Note_on_c, 1, 46, 0
4, 8232, Note_on_c, 1, 58, 75
4, 8255, Note_on_c, 1, 58, 0
4, 8256, Note_on_c, 1, 60, 75
4, 8271, Note_on_c, 1, 60, 0
4, 8272, Note_on_c, 1, 58, 75
4, 8287, Note_on_c, 1, 58, 0
4, 8288, Note_on_c, 1, 60, 75
4, 8303, Note_on_c, 1, 60, 0
4, 8304, Note_on_c, 1, 58, 75
4, 8319, Note_on_c, 1, 58, 0
4, 8320, Note_on_c, 1, 57, 75
4, 8335, Note_on_c, 1, 57, 0
4, 8336, Note_on_c, 1, 58, 75
4, 8351, Note_on_c, 1, 58, 0
4, 8352, Note_on_c, 1, 65, 75
4, 8441, Note_on_c, 1, 65, 0
4, 8448, Note_on_c, 1, 62, 75
4, 8537, Note_on_c, 1, 62, 0
4, 8544, Note_on_c, 1, 58, 75
4, 8633, Note_on_c, 1, 58, 0
4, 8640, Note_on_c, 1, 56, 75
4, 8729, Note_on_c, 1, 56, 0
4, 8808, Note_on_c, 1, 62, 75
4, 8831, Note_on_c, 1, 62, 0
4, 8832, Note_on_c, 1, 63, 75
4, 8847, Note_on_c, 1, 63, 0
4, 8848, Note_on_c, 1, 62, 75
4, 8863, Note_on_c, 1, 62, 0
4, 8864, Note_on_c, 1, 63, 75
4, 8879, Note_on_c, 1, 63, 0
4, 8880, Note_on_c, 1, 62, 75
4, 8895, Note_on_c, 1, 62, 0
4, 8896, Note_on_c, 1, 60, 75
4, 8911, Note_on_c, 1, 60, 0
4, 8912, Note_on_c, 1, 62, 75
4, 8927, Note_on_c, 1, 62, 0
4, 8928, Note_on_c, 1, 65, 75
4, 9017, Note_on_c, 1, 65, 0
4, 9024, Note_on_c, 1, 62, 75
4, 9113, Note_on_c, 1, 62, 0
4, 9120, Note_on_c, 1, 59, 75
4, 9209, Note_on_c, 1, 59, 0
4, 9216, Note_on_c, 1, 55, 75
4, 9305, Note_on_c, 1, 55, 0
4, 9384, Note_on_c, 1, 62, 75
4, 9407, Note_on_c, 1, 62, 0
4, 9408, Note_on_c, 1, 63, 75
4, 9423, Note_on_c, 1, 63, 0
4, 9424, Note_on_c, 1, 62, 75
4, 9439, Note_on_c, 1, 62, 0
4, 9440, Note_on_c, 1, 63, 75
4, 9455, Note_on_c, 1, 63, 0
4, 9456, Note_on_c, 1, 62, 75
4, 9471, Note_on_c, 1, 62, 0
4, 9472, Note_on_c, 1, 60, 75
4, 9487, Note_on_c, 1, 60, 0
4, 9488, Note_on_c, 1, 62, 75
4, 9503, Note_on_c, 1, 62, 0
4, 9504, Note_on_c, 1, 63, 75
4, 9593, Note_on_c, 1, 63, 0
4, 9600, Note_on_c, 1, 67, 75
4, 9689, Note_on_c, 1, 67, 0
4, 9696, Note_on_c, 1, 59, 75
4, 9785, Note_on_c, 1, 59, 0
4, 9792, Note_on_c, 1, 60, 75
4, 9881, Note_on_c, 1, 60, 0
4, 9960, Note_on_c, 1, 67, 75
4, 9983, Note_on_c, 1, 67, 0
4, 9984, Note_on_c, 1, 68, 75
4, 9999, Note_on_c, 1, 68, 0
4, 10000, Note_on_c, 1, 67, 75
4, 10015, Note_on_c, 1, 67, 0
4, 10016, Note_on_c, 1, 68, 75
4, 10031, Note_on_c, 1, 68, 0
4, 10032, Note_on_c, 1, 67, 75
4, 10047, Note_on_c, 1, 67, 0
4, 10048, Note_on_c, 1, 65, 75
4, 10063, Note_on_c, 1, 65, 0
4, 10064, Note_on_c, 1, 67, 75
4, 10079, Note_on_c, 1, 67, 0
4, 10080, Note_on_c, 1, 68, 75
4, 10169, Note_on_c, 1, 68, 0
4, 10176, Note_on_c, 1, 72, 75
4, 10265, Note_on_c, 1, 72, 0
4, 10272, Note_on_c, 1, 64, 75
4, 10361, Note_on_c, 1, 64, 0
4, 10368, Note_on_c, 1, 65, 75
4, 10457, Note_on_c, 1, 65, 0
4, 10536, Note_on_c, 1, 67, 75
4, 10559, Note_on_c, 1, 67, 0
4, 10560, Note_on_c, 1, 68, 75
4, 10575, Note_on_c, 1, 68, 0
4, 10576, Note_on_c, 1, 67, 75
4, 10591, Note_on_c, 1, 67, 0
4, 10592, Note_on_c, 1, 68, 75
4, 10607, Note_on_c, 1, 68, 0
4, 10608, Note_on_c, 1, 67, 75
4, 10623, Note_on_c, 1, 67, 0
4, 10624, Note_on_c, 1, 65, 75
4, 10639, Note_on_c, 1, 65, 0
4, 10640, Note_on_c, 1, 67, 75
4, 10655, Note_on_c, 1, 67, 0
4, 10656, Note_on_c, 1, 68, 75
4, 10745, Note_on_c, 1, 68, 0
4, 10752, Note_on_c, 1, 72, 75
4, 10752, Note_on_c, 1, 68, 75
4, 10819, Note_on_c, 1, 72, 0
4, 10819, Note_on_c, 1, 68, 0
4, 10824, Note_on_c, 1, 70, 75
4, 10824, Note_on_c, 1, 67, 75
4, 10847, Note_on_c, 1, 70, 0
4, 10847, Note_on_c, 1, 67, 0
4, 10848, Note_on_c, 1, 68, 76
4, 10848, Note_on_c, 1, 65, 76
4, 10915, Note_on_c, 1, 68, 0
4, 10915, Note_on_c, 1, 65, 0
4, 10920, Note_on_c, 1, 67, 76
4, 10920, Note_on_c, 1, 63, 76
4, 10943, Note_on_c, 1, 67, 0
4, 10943, Note_on_c, 1, 63, 0
4, 10944, Note_on_c, 1, 65, 76
4, 10944, Note_on_c, 1, 62, 76
4, 10983, Note_on_c, 1, 65, 0
4, 10983, Note_on_c, 1, 62, 0
4, 11040, Note_on_c, 1, 65, 77
4, 11040, Note_on_c, 1, 62, 77
4, 11129, Note_on_c, 1, 65, 0
4, 11129, Note_on_c, 1, 62, 0
4, 11136, Note_on_c, 1, 67, 77
4, 11136, Note_on_c, 1, 63, 77
4, 11225, Note_on_c, 1, 67, 0
4, 11225, Note_on_c, 1, 63, 0
4, 11232, Note_on_c, 1, 68, 78
4, 11232, Note_on_c, 1, 65, 78
4, 11271, Note_on_c, 1, 68, 0
4, 11271, Note_on_c, 1, 65, 0
4, 11328, Note_on_c, 1, 68, 78
4, 11328, Note_on_c, 1, 65, 78
4, 11417, Note_on_c, 1, 68, 0
4, 11417, Note_on_c, 1, 65, 0
4, 11424, Note_on_c, 1, 67, 79
4, 11424, Note_on_c, 1, 63, 79
4, 11513, Note_on_c, 1, 67, 0
4, 11513, Note_on_c, 1, 63, 0
4, 11520, Note_on_c, 1, 65, 80
4, 11520, Note_on_c, 1, 62, 80
4, 11578, Note_on_c, 1, 65, 0
4, 11578, Note_on_c, 1, 62, 0
4, 11688, Note_on_c, 1, 58, 75
4, 11711, Note_on_c, 1, 58, 0
4, 11712, Note_on_c, 1, 60, 75
4, 11727, Note_on_c, 1, 60, 0
4, 11728, Note_on_c, 1, 58, 75
4, 11743, Note_on_c, 1, 58, 0
4, 11744, Note_on_c, 1, 60, 75
4, 11759, Note_on_c, 1, 60, 0
4, 11760, Note_on_c, 1, 58, 75
4, 11775, Note_on_c, 1, 58, 0
4, 11776, Note_on_c, 1, 56, 75
4, 11791, Note_on_c, 1, 56, 0
4, 11792, Note_on_c, 1, 58, 75
4, 11807, Note_on_c, 1, 58, 0
4, 11808, Note_on_c, 1, 63, 75
4, 11897, Note_on_c, 1, 63, 0
4, 11904, Note_on_c, 1, 58, 75
4, 11993, Note_on_c, 1, 58, 0
4, 12000, Note_on_c, 1, 56, 75
4, 12089, Note_on_c, 1, 56, 0
4, 12096, Note_on_c, 1, 56, 75
4, 12185, Note_on_c, 1, 56, 0
4, 12192, Note_on_c, 1, 55, 75
4, 12281, Note_on_c, 1, 55, 0
4, 12288, Note_on_c, 1, 55, 75
4, 12303, Note_on_c, 1, 55, 0
4, 12304, Note_on_c, 1, 53, 75
4, 12319, Note_on_c, 1, 53, 0
4, 12320, Note_on_c, 1, 55, 75
4, 12335, Note_on_c, 1, 55, 0
4, 12336, Note_on_c, 1, 53, 75
4, 12351, Note_on_c, 1, 53, 0
4, 12352, Note_on_c, 1, 51, 75
4, 12367, Note_on_c, 1, 51, 0
4, 12368, Note_on_c, 1, 53, 75
4, 12383, Note_on_c, 1, 53, 0
4, 12384, Note_on_c, 1, 53, 75
4, 12473, Note_on_c, 1, 53, 0
4, 12480, Note_on_c, 1, 51, 75
4, 12569, Note_on_c, 1, 51, 0
4, 12576, Note_on_c, 1, 68, 75
4, 12576, Note_on_c, 1, 62, 75
4, 12665, Note_on_c, 1, 68, 0
4, 12665, Note_on_c, 1, 62, 0
4, 12672, Note_on_c, 1, 68, 75
4, 12672, Note_on_c, 1, 62, 75
4, 12768, Note_on_c, 1, 68, 0
4, 12768, Note_on_c, 1, 62, 0
4, 12768, Note_on_c, 1, 67, 75
4, 12768, Note_on_c, 1, 63, 75
4, 12857, Note_on_c, 1, 67, 0
4, 12857, Note_on_c, 1, 63, 0
4, 13032, Note_on_c, 1, 51, 75
4, 13055, Note_on_c, 1, 51, 0
4, 13056, Note_on_c, 1, 63, 75
4, 13123, Note_on_c, 1, 63, 0
4, 13128, Note_on_c, 1, 63, 75
4, 13151, Note_on_c, 1, 63, 0
4, 13152, Note_on_c, 1, 63, 75
4, 13219, Note_on_c, 1, 63, 0
4, 13224, Note_on_c, 1, 63, 75
4, 13247, Note_on_c, 1, 63, 0
4, 13248, Note_on_c, 1, 63, 91
4, 13411, Note_on_c, 1, 63, 0
4, 13416, Note_on_c, 1, 61, 75
4, 13416, Note_on_c, 1, 58, 75
4, 13439, Note_on_c, 1, 61, 0
4, 13439, Note_on_c, 1, 58, 0
4, 13440, Note_on_c, 1, 60, 75
4, 13440, Note_on_c, 1, 56, 75
4, 13507, Note_on_c, 1, 60, 0
4, 13507, Note_on_c, 1, 56, 0
4, 13512, Note_on_c, 1, 58, 75
4, 13512, Note_on_c, 1, 55, 75
4, 13535, Note_on_c, 1, 58, 0
4, 13535, Note_on_c, 1, 55, 0
4, 13536, Note_on_c, 1, 58, 75
4, 13536, Note_on_c, 1, 55, 75
4, 13632, Note_on_c, 1, 58, 0
4, 13632, Note_on_c, 1, 55, 0
4, 13632, Note_on_c, 1, 60, 75
4, 13632, Note_on_c, 1, 56, 75
4, 13721, Note_on_c, 1, 60, 0
4, 13721, Note_on_c, 1, 56, 0
4, 13896, Note_on_c, 1, 44, 75
4, 13919, Note_on_c, 1, 44, 0
4, 13920, Note_on_c, 1, 60, 75
4, 13920, Note_on_c, 1, 56, 75
4, 13987, Note_on_c, 1, 60, 0
4, 13987, Note_on_c, 1, 56, 0
4, 13992, Note_on_c, 1, 58, 75
4, 13992, Note_on_c, 1, 55, 75
4, 14015, Note_on_c, 1, 58, 0
4, 14015, Note_on_c, 1, 55, 0
4, 14016, Note_on_c, 1, 56, 75
4, 14016, Note_on_c, 1, 53, 75
4, 14083, Note_on_c, 1, 56, 0
4, 14083, Note_on_c, 1, 53, 0
4, 14088, Note_on_c, 1, 55, 75
4, 14088, Note_on_c, 1, 51, 75
4, 14111, Note_on_c, 1, 55, 0
4, 14111, Note_on_c, 1, 51, 0
4, 14112, Note_on_c, 1, 53, 75
4, 14112, Note_on_c, 1, 50, 75
4, 14201, Note_on_c, 1, 53, 0
4, 14201, Note_on_c, 1, 50, 0
4, 14424, Note_on_c, 1, 58, 75
4, 14447, Note_on_c, 1, 58, 0
4, 14448, Note_on_c, 1, 60, 75
4, 14471, Note_on_c, 1, 60, 0
4, 14472, Note_on_c, 1, 62, 76
4, 14495, Note_on_c, 1, 62, 0
4, 14496, Note_on_c, 1, 63, 77
4, 14519, Note_on_c, 1, 63, 0
4, 14520, Note_on_c, 1, 65, 77
4, 14543, Note_on_c, 1, 65, 0
4, 14544, Note_on_c, 1, 67, 78
4, 14567, Note_on_c, 1, 67, 0
4, 14568, Note_on_c, 1, 68, 79
4, 14591, Note_on_c, 1, 68, 0
4, 14592, Note_on_c, 1, 70, 80
4, 14637, Note_on_c, 1, 70, 0
4, 14640, Note_on_c, 1, 68, 78
4, 14640, Note_on_c, 1, 65, 78
4, 14685, Note_on_c, 1, 68, 0
4, 14685, Note_on_c, 1, 65, 0
4, 14688, Note_on_c, 1, 67, 77
4, 14688, Note_on_c, 1, 63, 77
4, 14777, Note_on_c, 1, 67, 0
4, 14777, Note_on_c, 1, 63, 0
4, 15000, Note_on_c, 1, 51, 75
4, 15023, Note_on_c, 1, 51, 0
4, 15024, Note_on_c, 1, 53, 74
4, 15047, Note_on_c, 1, 53, 0
4, 15048, Note_on_c, 1, 55, 73
4, 15071, Note_on_c, 1, 55, 0
4, 15072, Note_on_c, 1, 56, 72
4, 15095, Note_on_c, 1, 56, 0
4, 15096, Note_on_c, 1, 58, 72
4, 15119, Note_on_c, 1, 58, 0
4, 15120, Note_on_c, 1, 60, 71
4, 15143, Note_on_c, 1, 60, 0
4, 15144, Note_on_c, 1, 62, 70
4, 15167, Note_on_c, 1, 62, 0
4, 15168, Note_on_c, 1, 63, 70
4, 15213, Note_on_c, 1, 63, 0
4, 15216, Note_on_c, 1, 60, 68
4, 15216, Note_on_c, 1, 56, 68
4, 15261, Note_on_c, 1, 60, 0
4, 15261, Note_on_c, 1, 56, 0
4, 15264, Note_on_c, 1, 58, 67
4, 15264, Note_on_c, 1, 55, 67
4, 15397, Note_on_c, 1, 58, 0
4, 15397, Note_on_c, 1, 55, 0
4, 15408, Note_on_c, 1, 56, 64
4, 15408, Note_on_c, 1, 53, 64
4, 15453, Note_on_c, 1, 56, 0
4, 15453, Note_on_c, 1, 53, 0
4, 15456, Note_on_c, 1, 55, 64
4, 15456, Note_on_c, 1, 51, 64
4, 15501, Note_on_c, 1, 55, 0
4, 15501, Note_on_c, 1, 51, 0
4, 15576, Note_on_c, 1, 51, 64
4, 15599, Note_on_c, 1, 51, 0
4, 15600, Note_on_c, 1, 53, 64
4, 15623, Note_on_c, 1, 53, 0
4, 15624, Note_on_c, 1, 55, 65
4, 15647, Note_on_c, 1, 55, 0
4, 15648, Note_on_c, 1, 56, 66
4, 15671, Note_on_c, 1, 56, 0
4, 15672, Note_on_c, 1, 58, 67
4, 15695, Note_on_c, 1, 58, 0
4, 15696, Note_on_c, 1, 60, 68
4, 15719, Note_on_c, 1, 60, 0
4, 15720, Note_on_c, 1, 62, 69
4, 15743, Note_on_c, 1, 62, 0
4, 15744, Note_on_c, 1, 63, 70
4, 15789, Note_on_c, 1, 63, 0
4, 15792, Note_on_c, 1, 60, 68
4, 15792, Note_on_c, 1, 56, 68
4, 15837, Note_on_c, 1, 60, 0
4, 15837, Note_on_c, 1, 56, 0
4, 15840, Note_on_c, 1, 58, 67
4, 15840, Note_on_c, 1, 55, 67
4, 15973, Note_on_c, 1, 58, 0
4, 15973, Note_on_c, 1, 55, 0
4, 15984, Note_on_c, 1, 56, 64
4, 15984, Note_on_c, 1, 53, 64
4, 16029, Note_on_c, 1, 56, 0
4, 16029, Note_on_c, 1, 53, 0
4, 16032, Note_on_c, 1, 55, 64
4, 16032, Note_on_c, 1, 51, 64
4, 16077, Note_on_c, 1, 55, 0
4, 16077, Note_on_c, 1, 51, 0
4, 16152, Note_on_c, 1, 51, 64
4, 16175, Note_on_c, 1, 51, 0
4, 16176, Note_on_c, 1, 53, 64
4, 16199, Note_on_c, 1, 53, 0
4, 16200, Note_on_c, 1, 55, 65
4, 16223, Note_on_c, 1, 55, 0
4, 16224, Note_on_c, 1, 56, 66
4, 16247, Note_on_c, 1, 56, 0
4, 16248, Note_on_c, 1, 58, 66
4, 16271, Note_on_c, 1, 58, 0
4, 16272, Note_on_c, 1, 60, 67
4, 16295, Note_on_c, 1, 60, 0
4, 16296, Note_on_c, 1, 62, 68
4, 16319, Note_on_c, 1, 62, 0
4, 16320, Note_on_c, 1, 63, 68
4, 16365, Note_on_c, 1, 63, 0
4, 16368, Note_on_c, 1, 55, 70
4, 16413, Note_on_c, 1, 55, 0
4, 16416, Note_on_c, 1, 56, 68
4, 16505, Note_on_c, 1, 56, 0
4, 16512, Note_on_c, 1, 55, 64
4, 16601, Note_on_c, 1, 55, 0
4, 16608, Note_on_c, 1, 53, 64
4, 16697, Note_on_c, 1, 53, 0
4, 16704, Note_on_c, 1, 51, 64
4, 16793, Note_on_c, 1, 51, 0
4, 16800, Note_on_c, 1, 39, 64
4, 16867, Note_on_c, 1, 39, 0
4, 16872, Note_on_c, 1, 58, 75
4, 16895, Note_on_c, 1, 58, 0
4, 16896, Note_on_c, 1, 60, 75
4, 16911, Note_on_c, 1, 60, 0
4, 16912, Note_on_c, 1, 58, 75
4, 16927, Note_on_c, 1, 58, 0
4, 16928, Note_on_c, 1, 60, 75
4, 16943, Note_on_c, 1, 60, 0
4, 16944, Note_on_c, 1, 58, 75
4, 16959, Note_on_c, 1, 58, 0
4, 16960, Note_on_c, 1, 57, 75
4, 16975, Note_on_c, 1, 57, 0
4, 16976, Note_on_c, 1, 58, 75
4, 16991, Note_on_c, 1, 58, 0
4, 16992, Note_on_c, 1, 65, 75
4, 17081, Note_on_c, 1, 65, 0
4, 17088, Note_on_c, 1, 62, 75
4, 17177, Note_on_c, 1, 62, 0
4, 17184, Note_on_c, 1, 58, 75
4, 17273, Note_on_c, 1, 58, 0
4, 17280, Note_on_c, 1, 56, 75
4, 17369, Note_on_c, 1, 56, 0
4, 17448, Note_on_c, 1, 62, 75
4, 17471, Note_on_c, 1, 62, 0
4, 17472, Note_on_c, 1, 63, 75
4, 17487, Note_on_c, 1, 63, 0
4, 17488, Note_on_c, 1, 62, 75
4, 17503, Note_on_c, 1, 62, 0
4, 17504, Note_on_c, 1, 63, 75
4, 17519, Note_on_c, 1, 63, 0
4, 17520, Note_on_c, 1, 62, 75
4, 17535, Note_on_c, 1, 62, 0
4, 17536, Note_on_c, 1, 60, 75
4, 17551, Note_on_c, 1, 60, 0
4, 17552, Note_on_c, 1, 62, 75
4, 17567, Note_on_c, 1, 62, 0
4, 17568, Note_on_c, 1, 65, 75
4, 17657, Note_on_c, 1, 65, 0
4, 17664, Note_on_c, 1, 62, 75
4, 17753, Note_on_c, 1, 62, 0
4, 17760, Note_on_c, 1, 59, 75
4, 17849, Note_on_c, 1, 59, 0
4, 17856, Note_on_c, 1, 55, 75
4, 17945, Note_on_c, 1, 55, 0
4, 18024, Note_on_c, 1, 62, 75
4, 18047, Note_on_c, 1, 62, 0
4, 18048, Note_on_c, 1, 63, 75
4, 18063, Note_on_c, 1, 63, 0
4, 18064, Note_on_c, 1, 62, 75
4, 18079, Note_on_c, 1, 62, 0
4, 18080, Note_on_c, 1, 63, 75
4, 18095, Note_on_c, 1, 63, 0
4, 18096, Note_on_c, 1, 62, 75
4, 18111, Note_on_c, 1, 62, 0
4, 18112, Note_on_c, 1, 60, 75
4, 18127, Note_on_c, 1, 60, 0
4, 18128, Note_on_c, 1, 62, 75
4, 18143, Note_on_c, 1, 62, 0
4, 18144, Note_on_c, 1, 63, 75
4, 18233, Note_on_c, 1, 63, 0
4, 18240, Note_on_c, 1, 67, 75
4, 18329, Note_on_c, 1, 67, 0
4, 18336, Note_on_c, 1, 59, 75
4, 18425, Note_on_c, 1, 59, 0
4, 18432, Note_on_c, 1, 60, 75
4, 18521, Note_on_c, 1, 60, 0
4, 18600, Note_on_c, 1, 67, 75
4, 18623, Note_on_c, 1, 67, 0
4, 18624, Note_on_c, 1, 68, 75
4, 18639, Note_on_c, 1, 68, 0
4, 18640, Note_on_c, 1, 67, 75
4, 18655, Note_on_c, 1, 67, 0
4, 18656, Note_on_c, 1, 68, 75
4, 18671, Note_on_c, 1, 68, 0
4, 18672, Note_on_c, 1, 67, 75
4, 18687, Note_on_c, 1, 67, 0
4, 18688, Note_on_c, 1, 65, 75
4, 18703, Note_on_c, 1, 65, 0
4, 18704, Note_on_c, 1, 67, 75
4, 18719, Note_on_c, 1, 67, 0
4, 18720, Note_on_c, 1, 68, 75
4, 18809, Note_on_c, 1, 68, 0
4, 18816, Note_on_c, 1, 72, 75
4, 18905, Note_on_c, 1, 72, 0
4, 18912, Note_on_c, 1, 64, 75
4, 19001, Note_on_c, 1, 64, 0
4, 19008, Note_on_c, 1, 65, 75
4, 19097, Note_on_c, 1, 65, 0
4, 19176, Note_on_c, 1, 67, 75
4, 19199, Note_on_c, 1, 67, 0
4, 19200, Note_on_c, 1, 68, 75
4, 19215, Note_on_c, 1, 68, 0
4, 19216, Note_on_c, 1, 67, 75
4, 19231, Note_on_c, 1, 67, 0
4, 19232, Note_on_c, 1, 68, 75
4, 19247, Note_on_c, 1, 68, 0
4, 19248, Note_on_c, 1, 67, 75
4, 19263, Note_on_c, 1, 67, 0
4, 19264, Note_on_c, 1, 65, 75
4, 19279, Note_on_c, 1, 65, 0
4, 19280, Note_on_c, 1, 67, 75
4, 19295, Note_on_c, 1, 67, 0
4, 19296, Note_on_c, 1, 68, 75
4, 19385, Note_on_c, 1, 68, 0
4, 19392, Note_on_c, 1, 72, 75
4, 19392, Note_on_c, 1, 68, 75
4, 19459, Note_on_c, 1, 72, 0
4, 19459, Note_on_c, 1, 68, 0
4, 19464, Note_on_c, 1, 70, 75
4, 19464, Note_on_c, 1, 67, 75
4, 19487, Note_on_c, 1, 70, 0
4, 19487, Note_on_c, 1, 67, 0
4, 19488, Note_on_c, 1, 68, 76
4, 19488, Note_on_c, 1, 65, 76
4, 19555, Note_on_c, 1, 68, 0
4, 19555, Note_on_c, 1, 65, 0
4, 19560, Note_on_c, 1, 67, 76
4, 19560, Note_on_c, 1, 63, 76
4, 19583, Note_on_c, 1, 67, 0
4, 19583, Note_on_c, 1, 63, 0
4, 19584, Note_on_c, 1, 65, 76
4, 19584, Note_on_c, 1, 62, 76
4, 19623, Note_on_c, 1, 65, 0
4, 19623, Note_on_c, 1, 62, 0
4, 19680, Note_on_c, 1, 65, 77
4, 19680, Note_on_c, 1, 62, 77
4, 19769, Note_on_c, 1, 65, 0
4, 19769, Note_on_c, 1, 62, 0
4, 19776, Note_on_c, 1, 67, 77
4, 19776, Note_on_c, 1, 63, 77
4, 19865, Note_on_c, 1, 67, 0
4, 19865, Note_on_c, 1, 63, 0
4, 19872, Note_on_c, 1, 68, 78
4, 19872, Note_on_c, 1, 65, 78
4, 19911, Note_on_c, 1, 68, 0
4, 19911, Note_on_c, 1, 65, 0
4, 19968, Note_on_c, 1, 68, 78
4, 19968, Note_on_c, 1, 65, 78
4, 20057, Note_on_c, 1, 68, 0
4, 20057, Note_on_c, 1, 65, 0
4, 20064, Note_on_c, 1, 67, 79
4, 20064, Note_on_c, 1, 63, 79
4, 20153, Note_on_c, 1, 67, 0
4, 20153, Note_on_c, 1, 63, 0
4, 20160, Note_on_c, 1, 65, 80
4, 20160, Note_on_c, 1, 62, 80
4, 20218, Note_on_c, 1, 65, 0
4, 20218, Note_on_c, 1, 62, 0
4, 20328, Note_on_c, 1, 58, 75
4, 20351, Note_on_c, 1, 58, 0
4, 20352, Note_on_c, 1, 60, 75
4, 20367, Note_on_c, 1, 60, 0
4, 20368, Note_on_c, 1, 58, 75
4, 20383, Note_on_c, 1, 58, 0
4, 20384, Note_on_c, 1, 60, 75
4, 20399, Note_on_c, 1, 60, 0
4, 20400, Note_on_c, 1, 58, 75
4, 20415, Note_on_c, 1, 58, 0
4, 20416, Note_on_c, 1, 56, 75
4, 20431, Note_on_c, 1, 56, 0
4, 20432, Note_on_c, 1, 58, 75
4, 20447, Note_on_c, 1, 58, 0
4, 20448, Note_on_c, 1, 63, 75
4, 20537, Note_on_c, 1, 63, 0
4, 20544, Note_on_c, 1, 58, 75
4, 20633, Note_on_c, 1, 58, 0
4, 20640, Note_on_c, 1, 56, 75
4, 20729, Note_on_c, 1, 56, 0
4, 20736, Note_on_c, 1, 56, 75
4, 20825, Note_on_c, 1, 56, 0
4, 20832, Note_on_c, 1, 55, 75
4, 20921, Note_on_c, 1, 55, 0
4, 20928, Note_on_c, 1, 55, 75
4, 20943, Note_on_c, 1, 55, 0
4, 20944, Note_on_c, 1, 53, 75
4, 20959, Note_on_c, 1, 53, 0
4, 20960, Note_on_c, 1, 55, 75
4, 20975, Note_on_c, 1, 55, 0
4, 20976, Note_on_c, 1, 53, 75
4, 20991, Note_on_c, 1, 53, 0
4, 20992, Note_on_c, 1, 51, 75
4, 21007, Note_on_c, 1, 51, 0
4, 21008, Note_on_c, 1, 53, 75
4, 21023, Note_on_c, 1, 53, 0
4, 21024, Note_on_c, 1, 53, 75
4, 21113, Note_on_c, 1, 53, 0
4, 21120, Note_on_c, 1, 51, 75
4, 21209, Note_on_c, 1, 51, 0
4, 21216, Note_on_c, 1, 68, 75
4, 21216, Note_on_c, 1, 62, 75
4, 21305, Note_on_c, 1, 68, 0
4, 21305, Note_on_c, 1, 62, 0
4, 21312, Note_on_c, 1, 68, 75
4, 21312, Note_on_c, 1, 62, 75
4, 21408, Note_on_c, 1, 68, 0
4, 21408, Note_on_c, 1, 62, 0
4, 21408, Note_on_c, 1, 67, 75
4, 21408, Note_on_c, 1, 63, 75
4, 21497, Note_on_c, 1, 67, 0
4, 21497, Note_on_c, 1, 63, 0
4, 21672, Note_on_c, 1, 51, 75
4, 21695, Note_on_c, 1, 51, 0
4, 21696, Note_on_c, 1, 63, 75
4, 21763, Note_on_c, 1, 63, 0
4, 21768, Note_on_c, 1, 63, 75
4, 21791, Note_on_c, 1, 63, 0
4, 21792, Note_on_c, 1, 63, 75
4, 21859, Note_on_c, 1, 63, 0
4, 21864, Note_on_c, 1, 63, 75
4, 21887, Note_on_c, 1, 63, 0
4, 21888, Note_on_c, 1, 63, 91
4, 22051, Note_on_c, 1, 63, 0
4, 22056, Note_on_c, 1, 61, 75
4, 22056, Note_on_c, 1, 58, 75
4, 22079, Note_on_c, 1, 61, 0
4, 22079, Note_on_c, 1, 58, 0
4, 22080, Note_on_c, 1, 60, 75
4, 22080, Note_on_c, 1, 56, 75
4, 22147, Note_on_c, 1, 60, 0
4, 22147, Note_on_c, 1, 56, 0
4, 22152, Note_on_c, 1, 58, 75
4, 22152, Note_on_c, 1, 55, 75
4, 22175, Note_on_c, 1, 58, 0
4, 22175, Note_on_c, 1, 55, 0
4, 22176, Note_on_c, 1, 58, 75
4, 22176, Note_on_c, 1, 55, 75
4, 22272, Note_on_c, 1, 58, 0
4, 22272, Note_on_c, 1, 55, 0
4, 22272, Note_on_c, 1, 60, 75
4, 22272, Note_on_c, 1, 56, 75
4, 22361, Note_on_c, 1, 60, 0
4, 22361, Note_on_c, 1, 56, 0
4, 22536, Note_on_c, 1, 44, 75
4, 22559, Note_on_c, 1, 44, 0
4, 22560, Note_on_c, 1, 60, 75
4, 22560, Note_on_c, 1, 56, 75
4, 22627, Note_on_c, 1, 60, 0
4, 22627, Note_on_c, 1, 56, 0
4, 22632, Note_on_c, 1, 58, 75
4, 22632, Note_on_c, 1, 55, 75
4, 22655, Note_on_c, 1, 58, 0
4, 22655, Note_on_c, 1, 55, 0
4, 22656, Note_on_c, 1, 56, 75
4, 22656, Note_on_c, 1, 53, 75
4, 22723, Note_on_c, 1, 56, 0
4, 22723, Note_on_c, 1, 53, 0
4, 22728, Note_on_c, 1, 55, 75
4, 22728, Note_on_c, 1, 51, 75
4, 22751, Note_on_c, 1, 55, 0
4, 22751, Note_on_c, 1, 51, 0
4, 22752, Note_on_c, 1, 53, 75
4, 22752, Note_on_c, 1, 50, 75
4, 22841, Note_on_c, 1, 53, 0
4, 22841, Note_on_c, 1, 50, 0
4, 23064, Note_on_c, 1, 58, 75
4, 23087, Note_on_c, 1, 58, 0
4, 23088, Note_on_c, 1, 60, 75
4, 23111, Note_on_c, 1, 60, 0
4, 23112, Note_on_c, 1, 62, 76
4, 23135, Note_on_c, 1, 62, 0
4, 23136, Note_on_c, 1, 63, 77
4, 23159, Note_on_c, 1, 63, 0
4, 23160, Note_on_c, 1, 65, 77
4, 23183, Note_on_c, 1, 65, 0
4, 23184, Note_on_c, 1, 67, 78
4, 23207, Note_on_c, 1, 67, 0
4, 23208, Note_on_c, 1, 68, 79
4, 23231, Note_on_c, 1, 68, 0
4, 23232, Note_on_c, 1, 70, 80
4, 23277, Note_on_c, 1, 70, 0
4, 23280, Note_on_c, 1, 68, 78
4, 23280, Note_on_c, 1, 65, 78
4, 23325, Note_on_c, 1, 68, 0
4, 23325, Note_on_c, 1, 65, 0
4, 23328, Note_on_c, 1, 67, 77
4, 23328, Note_on_c, 1, 63, 77
4, 23417, Note_on_c, 1, 67, 0
4, 23417, Note_on_c, 1, 63, 0
4, 23640, Note_on_c, 1, 51, 75
4, 23663, Note_on_c, 1, 51, 0
4, 23664, Note_on_c, 1, 53, 74
4, 23687, Note_on_c, 1, 53, 0
4, 23688, Note_on_c, 1, 55, 73
4, 23711, Note_on_c, 1, 55, 0
4, 23712, Note_on_c, 1, 56, 72
4, 23735, Note_on_c, 1, 56, 0
4, 23736, Note_on_c, 1, 58, 72
4, 23759, Note_on_c, 1, 58, 0
4, 23760, Note_on_c, 1, 60, 71
4, 23783, Note_on_c, 1, 60, 0
4, 23784, Note_on_c, 1, 62, 70
4, 23807, Note_on_c, 1, 62, 0
4, 23808, Note_on_c, 1, 63, 70
4, 23853, Note_on_c, 1, 63, 0
4, 23856, Note_on_c, 1, 60, 68
4, 23856, Note_on_c, 1, 56, 68
4, 23901, Note_on_c, 1, 60, 0
4, 23901, Note_on_c, 1, 56, 0
4, 23904, Note_on_c, 1, 58, 67
4, 23904, Note_on_c, 1, 55, 67
4, 24037, Note_on_c, 1, 58, 0
4, 24037, Note_on_c, 1, 55, 0
4, 24048, Note_on_c, 1, 56, 64
4, 24048, Note_on_c, 1, 53, 64
4, 24093, Note_on_c, 1, 56, 0
4, 24093, Note_on_c, 1, 53, 0
4, 24096, Note_on_c, 1, 55, 64
4, 24096, Note_on_c, 1, 51, 64
4, 24141, Note_on_c, 1, 55, 0
4, 24141, Note_on_c, 1, 51, 0
4, 24216, Note_on_c, 1, 51, 64
4, 24239, Note_on_c, 1, 51, 0
4, 24240, Note_on_c, 1, 53, 64
4, 24263, Note_on_c, 1, 53, 0
4, 24264, Note_on_c, 1, 55, 65
4, 24287, Note_on_c, 1, 55, 0
4, 24288, Note_on_c, 1, 56, 66
4, 24311, Note_on_c, 1, 56, 0
4, 24312, Note_on_c, 1, 58, 67
4, 24335, Note_on_c, 1, 58, 0
4, 24336, Note_on_c, 1, 60, 68
4, 24359, Note_on_c, 1, 60, 0
4, 24360, Note_on_c, 1, 62, 69
4, 24383, Note_on_c, 1, 62, 0
4, 24384, Note_on_c, 1, 63, 70
4, 24429, Note_on_c, 1, 63, 0
4, 24432, Note_on_c, 1, 60, 68
4, 24432, Note_on_c, 1, 56, 68
4, 24477, Note_on_c, 1, 60, 0
4, 24477, Note_on_c, 1, 56, 0
4, 24480, Note_on_c, 1, 58, 67
4, 24480, Note_on_c, 1, 55, 67
4, 24613, Note_on_c, 1, 58, 0
4, 24613, Note_on_c, 1, 55, 0
4, 24624, Note_on_c, 1, 56, 64
4, 24624, Note_on_c, 1, 53, 64
4, 24669, Note_on_c, 1, 56, 0
4, 24669, Note_on_c, 1, 53, 0
4, 24672, Note_on_c, 1, 55, 64
4, 24672, Note_on_c, 1, 51, 64
4, 24717, Note_on_c, 1, 55, 0
4, 24717, Note_on_c, 1, 51, 0
4, 24792, Note_on_c, 1, 51, 64
4, 24815, Note_on_c, 1, 51, 0
4, 24816, Note_on_c, 1, 53, 64
4, 24839, Note_on_c, 1, 53, 0
4, 24840, Note_on_c, 1, 55, 65
4, 24863, Note_on_c, 1, 55, 0
4, 24864, Note_on_c, 1, 56, 66
4, 24887, Note_on_c, 1, 56, 0
4, 24888, Note_on_c, 1, 58, 66
4, 24911, Note_on_c, 1, 58, 0
4, 24912, Note_on_c, 1, 60, 67
4, 24935, Note_on_c, 1, 60, 0
4, 24936, Note_on_c, 1, 62, 68
4, 24959, Note_on_c, 1, 62, 0
4, 24960, Note_on_c, 1, 63, 68
4, 25005, Note_on_c, 1, 63, 0
4, 25008, Note_on_c, 1, 55, 70
4, 25053, Note_on_c, 1, 55, 0
4, 25056, Note_on_c, 1, 56, 68
4, 25145, Note_on_c, 1, 56, 0
4, 25152, Note_on_c, 1, 55, 64
4, 25241, Note_on_c, 1, 55, 0
4, 25248, Note_on_c, 1, 53, 64
4, 25337, Note_on_c, 1, 53, 0
4, 25344, Note_on_c, 1, 51, 64
4, 25433, Note_on_c, 1, 51, 0
4, 25440, Note_on_c, 1, 39, 64
4, 25507, Note_on_c, 1, 39, 0
4, 25512, Note_on_c, 1, 39, 0
4, 25601, Note_on_c, 1, 39, 0
4, 25632, End_track
5, 0, Start_track
5, 0, Program_c, 1, 0
5, 0, Control_c, 1, 7, 127
5, 0, Control_c, 1, 10, 64
5, 3840, Note_on_c, 1, 53, 64
5, 4017, Note_on_c, 1, 53, 0
5, 7872, Note_on_c, 1, 53, 64
5, 8049, Note_on_c, 1, 53, 0
5, 16416, Note_on_c, 1, 56, 64
5, 16505, Note_on_c, 1, 56, 0
5, 16512, Note_on_c, 1, 46, 64
5, 16689, Note_on_c, 1, 46, 0
5, 25056, Note_on_c, 1, 56, 64
5, 25145, Note_on_c, 1, 56, 0
5, 25152, Note_on_c, 1, 46, 64
5, 25329, Note_on_c, 1, 46, 0
5, 25632, End_track
6, 0, Start_track
6, 0, Title_t, "Sonata I   Haydn  "
6, 0, End_track
0, 0, End_of_file
