0, 0, Header, 1, 6, 96
1, 0, Start_track
1, 0, Copyright_t, "Copyright  2000 <copyright holder>"
1, 0, Text_t, "Sonata I\015\012"
1, 0, Text_t, "Haydn\015\012"
1, 0, Sequencer_specific, 16, 68, 87, 77, 90, 86, 82, 83, 78, 32, 55, 46, 49, 46, 51, 46, 48
1, 0, Time_signature, 3, 2, 24, 8
1, 0, Tempo, 952380
1, 0, Key_signature, -2, "major"
1, 38592, End_track
2, 0, Start_track
2, 0, Program_c, 0, 0
2, 0, Control_c, 0, 7, 127
2, 0, Control_c, 0, 10, 64
2, 0, Note_on_c, 0, 74, 64
2, 89, Note_on_c, 0, 74, 0
2, 96, Note_on_c, 0, 75, 64
2, 102, Note_on_c, 0, 75, 0
2, 102, Note_on_c, 0, 74, 64
2, 108, Note_on_c, 0, 74, 0
2, 108, Note_on_c, 0, 72, 64
2, 114, Note_on_c, 0, 72, 0
2, 114, Note_on_c, 0, 74, 64
2, 168, Note_on_c, 0, 74, 0
2, 168, Note_on_c, 0, 75, 64
2, 191, Note_on_c, 0, 75, 0
2, 192, Note_on_c, 0, 72, 64
2, 264, Note_on_c, 0, 72, 0
2, 264, Note_on_c, 0, 69, 64
2, 287, Note_on_c, 0, 69, 0
2, 288, Note_on_c, 0, 70, 64
2, 315, Note_on_c, 0, 70, 0
2, 318, Note_on_c, 0, 72, 64
2, 324, Note_on_c, 0, 72, 0
2, 324, Note_on_c, 0, 70, 64
2, 330, Note_on_c, 0, 70, 0
2, 330, Note_on_c, 0, 69, 64
2, 336, Note_on_c, 0, 69, 0
2, 336, Note_on_c, 0, 70, 64
2, 370, Note_on_c, 0, 70, 0
2, 372, Note_on_c, 0, 74, 64
2, 384, Note_on_c, 0, 74, 0
2, 384, Note_on_c, 0, 77, 64
2, 404, Note_on_c, 0, 77, 0
2, 576, Note_on_c, 0, 65, 64
2, 624, Note_on_c, 0, 65, 0
2, 624, Note_on_c, 0, 70, 64
2, 669, Note_on_c, 0, 70, 0
2, 672, Note_on_c, 0, 67, 64
2, 720, Note_on_c, 0, 67, 0
2, 720, Note_on_c, 0, 75, 77
2, 765, Note_on_c, 0, 75, 0
2, 768, Note_on_c, 0, 72, 64
2, 816, Note_on_c, 0, 72, 0
2, 816, Note_on_c, 0, 79, 77
2, 861, Note_on_c, 0, 79, 0
2, 864, Note_on_c, 0, 70, 64
2, 997, Note_on_c, 0, 70, 0
2, 1008, Note_on_c, 0, 69, 64
2, 1053, Note_on_c, 0, 69, 0
2, 1056, Note_on_c, 0, 70, 64
2, 1079, Note_on_c, 0, 70, 0
2, 1080, Note_on_c, 0, 71, 64
2, 1103, Note_on_c, 0, 71, 0
2, 1104, Note_on_c, 0, 72, 64
2, 1127, Note_on_c, 0, 72, 0
2, 1128, Note_on_c, 0, 73, 64
2, 1151, Note_on_c, 0, 73, 0
2, 1152, Note_on_c, 0, 74, 64
2, 1241, Note_on_c, 0, 74, 0
2, 1248, Note_on_c, 0, 75, 64
2, 1254, Note_on_c, 0, 75, 0
2, 1254, Note_on_c, 0, 74, 64
2, 1260, Note_on_c, 0, 74, 0
2, 1260, Note_on_c, 0, 72, 64
2, 1266, Note_on_c, 0, 72, 0
2, 1266, Note_on_c, 0, 74, 64
2, 1320, Note_on_c, 0, 74, 0
2, 1320, Note_on_c, 0, 75, 64
2, 1343, Note_on_c, 0, 75, 0
2, 1344, Note_on_c, 0, 72, 64
2, 1416, Note_on_c, 0, 72, 0
2, 1416, Note_on_c, 0, 69, 64
2, 1439, Note_on_c, 0, 69, 0
2, 1440, Note_on_c, 0, 70, 64
2, 1467, Note_on_c, 0, 70, 0
2, 1470, Note_on_c, 0, 72, 64
2, 1476, Note_on_c, 0, 72, 0
2, 1476, Note_on_c, 0, 70, 64
2, 1482, Note_on_c, 0, 70, 0
2, 1482, Note_on_c, 0, 69, 64
2, 1488, Note_on_c, 0, 69, 0
2, 1488, Note_on_c, 0, 70, 64
2, 1522, Note_on_c, 0, 70, 0
2, 1524, Note_on_c, 0, 74, 64
2, 1536, Note_on_c, 0, 74, 0
2, 1536, Note_on_c, 0, 77, 64
2, 1556, Note_on_c, 0, 77, 0
2, 1728, Note_on_c, 0, 76, 64
2, 1776, Note_on_c, 0, 76, 0
2, 1776, Note_on_c, 0, 82, 77
2, 1821, Note_on_c, 0, 82, 0
2, 1824, Note_on_c, 0, 79, 64
2, 1872, Note_on_c, 0, 79, 0
2, 1872, Note_on_c, 0, 86, 77
2, 1917, Note_on_c, 0, 86, 0
2, 1920, Note_on_c, 0, 84, 64
2, 1968, Note_on_c, 0, 84, 0
2, 1968, Note_on_c, 0, 76, 64
2, 2013, Note_on_c, 0, 76, 0
2, 2016, Note_on_c, 0, 79, 64
2, 2149, Note_on_c, 0, 79, 0
2, 2160, Note_on_c, 0, 77, 64
2, 2205, Note_on_c, 0, 77, 0
2, 2208, Note_on_c, 0, 76, 64
2, 2253, Note_on_c, 0, 76, 0
2, 2256, Note_on_c, 0, 75, 64
2, 2301, Note_on_c, 0, 75, 0
2, 2304, Note_on_c, 0, 74, 64
2, 2398, Note_on_c, 0, 74, 0
2, 2400, Note_on_c, 0, 75, 64
2, 2406, Note_on_c, 0, 75, 0
2, 2406, Note_on_c, 0, 74, 64
2, 2412, Note_on_c, 0, 74, 0
2, 2412, Note_on_c, 0, 72, 64
2, 2418, Note_on_c, 0, 72, 0
2, 2418, Note_on_c, 0, 74, 64
2, 2445, Note_on_c, 0, 74, 0
2, 2448, Note_on_c, 0, 77, 64
2, 2466, Note_on_c, 0, 77, 0
2, 2466, Note_on_c, 0, 75, 64
2, 2493, Note_on_c, 0, 75, 0
2, 2496, Note_on_c, 0, 74, 64
2, 2514, Note_on_c, 0, 74, 0
2, 2514, Note_on_c, 0, 72, 64
2, 2541, Note_on_c, 0, 72, 0
2, 2544, Note_on_c, 0, 70, 64
2, 2562, Note_on_c, 0, 70, 0
2, 2562, Note_on_c, 0, 69, 64
2, 2589, Note_on_c, 0, 69, 0
2, 2592, Note_on_c, 0, 70, 64
2, 2619, Note_on_c, 0, 70, 0
2, 2622, Note_on_c, 0, 72, 64
2, 2628, Note_on_c, 0, 72, 0
2, 2628, Note_on_c, 0, 70, 64
2, 2634, Note_on_c, 0, 70, 0
2, 2634, Note_on_c, 0, 69, 64
2, 2640, Note_on_c, 0, 69, 0
2, 2640, Note_on_c, 0, 70, 64
2, 2674, Note_on_c, 0, 70, 0
2, 2676, Note_on_c, 0, 74, 64
2, 2688, Note_on_c, 0, 74, 0
2, 2688, Note_on_c, 0, 77, 64
2, 2708, Note_on_c, 0, 77, 0
2, 2880, Note_on_c, 0, 65, 64
2, 2900, Note_on_c, 0, 65, 0
2, 2928, Note_on_c, 0, 72, 64
2, 2940, Note_on_c, 0, 72, 0
2, 2940, Note_on_c, 0, 70, 64
2, 2952, Note_on_c, 0, 70, 0
2, 2952, Note_on_c, 0, 69, 64
2, 2964, Note_on_c, 0, 69, 0
2, 2964, Note_on_c, 0, 70, 64
2, 2976, Note_on_c, 0, 70, 0
2, 2976, Note_on_c, 0, 67, 64
2, 2996, Note_on_c, 0, 67, 0
2, 3024, Note_on_c, 0, 77, 64
2, 3036, Note_on_c, 0, 77, 0
2, 3036, Note_on_c, 0, 75, 64
2, 3048, Note_on_c, 0, 75, 0
2, 3048, Note_on_c, 0, 74, 64
2, 3060, Note_on_c, 0, 74, 0
2, 3060, Note_on_c, 0, 75, 64
2, 3072, Note_on_c, 0, 75, 0
2, 3072, Note_on_c, 0, 72, 64
2, 3092, Note_on_c, 0, 72, 0
2, 3120, Note_on_c, 0, 78, 64
2, 3132, Note_on_c, 0, 78, 0
2, 3132, Note_on_c, 0, 79, 64
2, 3144, Note_on_c, 0, 79, 0
2, 3144, Note_on_c, 0, 75, 64
2, 3156, Note_on_c, 0, 75, 0
2, 3156, Note_on_c, 0, 72, 64
2, 3168, Note_on_c, 0, 72, 0
2, 3168, Note_on_c, 0, 70, 64
2, 3287, Note_on_c, 0, 70, 0
2, 3288, Note_on_c, 0, 69, 65
2, 3311, Note_on_c, 0, 69, 0
2, 3312, Note_on_c, 0, 72, 66
2, 3335, Note_on_c, 0, 72, 0
2, 3336, Note_on_c, 0, 70, 68
2, 3359, Note_on_c, 0, 70, 0
2, 3360, Note_on_c, 0, 74, 69
2, 3383, Note_on_c, 0, 74, 0
2, 3384, Note_on_c, 0, 72, 70
2, 3407, Note_on_c, 0, 72, 0
2, 3408, Note_on_c, 0, 75, 72
2, 3431, Note_on_c, 0, 75, 0
2, 3432, Note_on_c, 0, 73, 73
2, 3455, Note_on_c, 0, 73, 0
2, 3456, Note_on_c, 0, 74, 75
2, 3545, Note_on_c, 0, 74, 0
2, 3552, Note_on_c, 0, 75, 75
2, 3558, Note_on_c, 0, 75, 0
2, 3558, Note_on_c, 0, 74, 75
2, 3564, Note_on_c, 0, 74, 0
2, 3564, Note_on_c, 0, 72, 75
2, 3570, Note_on_c, 0, 72, 0
2, 3570, Note_on_c, 0, 74, 75
2, 3619, Note_on_c, 0, 74, 0
2, 3624, Note_on_c, 0, 72, 75
2, 3636, Note_on_c, 0, 72, 0
2, 3636, Note_on_c, 0, 74, 75
2, 3648, Note_on_c, 0, 74, 0
2, 3648, Note_on_c, 0, 77, 75
2, 3660, Note_on_c, 0, 77, 0
2, 3660, Note_on_c, 0, 75, 75
2, 3672, Note_on_c, 0, 75, 0
2, 3672, Note_on_c, 0, 74, 75
2, 3684, Note_on_c, 0, 74, 0
2, 3684, Note_on_c, 0, 72, 75
2, 3696, Note_on_c, 0, 72, 0
2, 3696, Note_on_c, 0, 74, 75
2, 3708, Note_on_c, 0, 74, 0
2, 3708, Note_on_c, 0, 72, 75
2, 3720, Note_on_c, 0, 72, 0
2, 3720, Note_on_c, 0, 70, 75
2, 3732, Note_on_c, 0, 70, 0
2, 3732, Note_on_c, 0, 69, 75
2, 3744, Note_on_c, 0, 69, 0
2, 3744, Note_on_c, 0, 70, 75
2, 3756, Note_on_c, 0, 70, 0
2, 3756, Note_on_c, 0, 69, 75
2, 3768, Note_on_c, 0, 69, 0
2, 3768, Note_on_c, 0, 72, 75
2, 3780, Note_on_c, 0, 72, 0
2, 3780, Note_on_c, 0, 70, 75
2, 3792, Note_on_c, 0, 70, 0
2, 3792, Note_on_c, 0, 74, 75
2, 3804, Note_on_c, 0, 74, 0
2, 3804, Note_on_c, 0, 72, 75
2, 3816, Note_on_c, 0, 72, 0
2, 3816, Note_on_c, 0, 75, 75
2, 3828, Note_on_c, 0, 75, 0
2, 3828, Note_on_c, 0, 74, 75
2, 3840, Note_on_c, 0, 74, 0
2, 3840, Note_on_c, 0, 77, 75
2, 3885, Note_on_c, 0, 77, 0
2, 4032, Note_on_c, 0, 76, 75
2, 4077, Note_on_c, 0, 76, 0
2, 4080, Note_on_c, 0, 77, 75
2, 4086, Note_on_c, 0, 77, 0
2, 4086, Note_on_c, 0, 76, 75
2, 4092, Note_on_c, 0, 76, 0
2, 4092, Note_on_c, 0, 74, 75
2, 4098, Note_on_c, 0, 74, 0
2, 4098, Note_on_c, 0, 76, 75
2, 4114, Note_on_c, 0, 76, 0
2, 4116, Note_on_c, 0, 77, 75
2, 4128, Note_on_c, 0, 77, 0
2, 4128, Note_on_c, 0, 79, 88
2, 4138, Note_on_c, 0, 79, 0
2, 4152, Note_on_c, 0, 81, 75
2, 4162, Note_on_c, 0, 81, 0
2, 4176, Note_on_c, 0, 82, 75
2, 4186, Note_on_c, 0, 82, 0
2, 4200, Note_on_c, 0, 83, 75
2, 4210, Note_on_c, 0, 83, 0
2, 4224, Note_on_c, 0, 84, 75
2, 4234, Note_on_c, 0, 84, 0
2, 4248, Note_on_c, 0, 85, 75
2, 4258, Note_on_c, 0, 85, 0
2, 4272, Note_on_c, 0, 86, 75
2, 4295, Note_on_c, 0, 86, 0
2, 4296, Note_on_c, 0, 76, 75
2, 4319, Note_on_c, 0, 76, 0
2, 4320, Note_on_c, 0, 79, 75
2, 4416, Note_on_c, 0, 79, 0
2, 4416, Note_on_c, 0, 77, 75
2, 4436, Note_on_c, 0, 77, 0
2, 4608, Note_on_c, 0, 57, 75
2, 4620, Note_on_c, 0, 57, 0
2, 4620, Note_on_c, 0, 65, 91
2, 4752, Note_on_c, 0, 65, 0
2, 4752, Note_on_c, 0, 67, 75
2, 4758, Note_on_c, 0, 67, 0
2, 4758, Note_on_c, 0, 65, 75
2, 4764, Note_on_c, 0, 65, 0
2, 4764, Note_on_c, 0, 63, 75
2, 4770, Note_on_c, 0, 63, 0
2, 4770, Note_on_c, 0, 65, 75
2, 4797, Note_on_c, 0, 65, 0
2, 4800, Note_on_c, 0, 67, 75
2, 4848, Note_on_c, 0, 67, 0
2, 4848, Note_on_c, 0, 69, 75
2, 4893, Note_on_c, 0, 69, 0
2, 4896, Note_on_c, 0, 69, 75
2, 4923, Note_on_c, 0, 69, 0
2, 4926, Note_on_c, 0, 70, 75
2, 4932, Note_on_c, 0, 70, 0
2, 4932, Note_on_c, 0, 69, 75
2, 4938, Note_on_c, 0, 69, 0
2, 4938, Note_on_c, 0, 67, 75
2, 4944, Note_on_c, 0, 67, 0
2, 4944, Note_on_c, 0, 69, 75
2, 4978, Note_on_c, 0, 69, 0
2, 4980, Note_on_c, 0, 70, 75
2, 4992, Note_on_c, 0, 70, 0
2, 4992, Note_on_c, 0, 65, 75
2, 5037, Note_on_c, 0, 65, 0
2, 5184, Note_on_c, 0, 75, 75
2, 5184, Note_on_c, 0, 72, 75
2, 5204, Note_on_c, 0, 75, 0
2, 5204, Note_on_c, 0, 72, 0
2, 5280, Note_on_c, 0, 74, 75
2, 5280, Note_on_c, 0, 70, 75
2, 5300, Note_on_c, 0, 74, 0
2, 5300, Note_on_c, 0, 70, 0
2, 5376, Note_on_c, 0, 79, 75
2, 5376, Note_on_c, 0, 70, 75
2, 5396, Note_on_c, 0, 79, 0
2, 5396, Note_on_c, 0, 70, 0
2, 5472, Note_on_c, 0, 70, 75
2, 5472, Note_on_c, 0, 62, 75
2, 5568, Note_on_c, 0, 70, 0
2, 5568, Note_on_c, 0, 62, 0
2, 5568, Note_on_c, 0, 69, 75
2, 5568, Note_on_c, 0, 60, 75
2, 5588, Note_on_c, 0, 69, 0
2, 5588, Note_on_c, 0, 60, 0
2, 5760, Note_on_c, 0, 58, 96
2, 5904, Note_on_c, 0, 58, 0
2, 5904, Note_on_c, 0, 60, 64
2, 5910, Note_on_c, 0, 60, 0
2, 5910, Note_on_c, 0, 58, 64
2, 5916, Note_on_c, 0, 58, 0
2, 5916, Note_on_c, 0, 57, 64
2, 5922, Note_on_c, 0, 57, 0
2, 5922, Note_on_c, 0, 58, 64
2, 5949, Note_on_c, 0, 58, 0
2, 5952, Note_on_c, 0, 65, 64
2, 6019, Note_on_c, 0, 65, 0
2, 6024, Note_on_c, 0, 61, 64
2, 6047, Note_on_c, 0, 61, 0
2, 6048, Note_on_c, 0, 61, 80
2, 6144, Note_on_c, 0, 61, 0
2, 6144, Note_on_c, 0, 60, 64
2, 6233, Note_on_c, 0, 60, 0
2, 6312, Note_on_c, 0, 63, 64
2, 6335, Note_on_c, 0, 63, 0
2, 6336, Note_on_c, 0, 63, 64
2, 6469, Note_on_c, 0, 63, 0
2, 6480, Note_on_c, 0, 62, 68
2, 6525, Note_on_c, 0, 62, 0
2, 6528, Note_on_c, 0, 71, 69
2, 6595, Note_on_c, 0, 71, 0
2, 6600, Note_on_c, 0, 62, 71
2, 6623, Note_on_c, 0, 62, 0
2, 6624, Note_on_c, 0, 65, 88
2, 6720, Note_on_c, 0, 65, 0
2, 6720, Note_on_c, 0, 63, 74
2, 6809, Note_on_c, 0, 63, 0
2, 6888, Note_on_c, 0, 70, 79
2, 6911, Note_on_c, 0, 70, 0
2, 6912, Note_on_c, 0, 69, 80
2, 6918, Note_on_c, 0, 69, 0
2, 6918, Note_on_c, 0, 70, 80
2, 6924, Note_on_c, 0, 70, 0
2, 6924, Note_on_c, 0, 72, 80
2, 6930, Note_on_c, 0, 72, 0
2, 6930, Note_on_c, 0, 70, 80
2, 7039, Note_on_c, 0, 70, 0
2, 7050, Note_on_c, 0, 72, 80
2, 7056, Note_on_c, 0, 72, 0
2, 7056, Note_on_c, 0, 70, 80
2, 7068, Note_on_c, 0, 70, 0
2, 7068, Note_on_c, 0, 69, 80
2, 7080, Note_on_c, 0, 69, 0
2, 7080, Note_on_c, 0, 70, 80
2, 7092, Note_on_c, 0, 70, 0
2, 7092, Note_on_c, 0, 72, 80
2, 7104, Note_on_c, 0, 72, 0
2, 7104, Note_on_c, 0, 73, 80
2, 7149, Note_on_c, 0, 73, 0
2, 7152, Note_on_c, 0, 64, 96
2, 7200, Note_on_c, 0, 64, 0
2, 7200, Note_on_c, 0, 67, 80
2, 7319, Note_on_c, 0, 67, 0
2, 7320, Note_on_c, 0, 65, 75
2, 7343, Note_on_c, 0, 65, 0
2, 7344, Note_on_c, 0, 69, 74
2, 7367, Note_on_c, 0, 69, 0
2, 7368, Note_on_c, 0, 67, 73
2, 7391, Note_on_c, 0, 67, 0
2, 7392, Note_on_c, 0, 70, 72
2, 7415, Note_on_c, 0, 70, 0
2, 7416, Note_on_c, 0, 69, 71
2, 7439, Note_on_c, 0, 69, 0
2, 7440, Note_on_c, 0, 72, 70
2, 7452, Note_on_c, 0, 72, 0
2, 7452, Note_on_c, 0, 70, 69
2, 7464, Note_on_c, 0, 70, 0
2, 7464, Note_on_c, 0, 74, 69
2, 7476, Note_on_c, 0, 74, 0
2, 7476, Note_on_c, 0, 72, 68
2, 7488, Note_on_c, 0, 72, 0
2, 7488, Note_on_c, 0, 74, 68
2, 7577, Note_on_c, 0, 74, 0
2, 7584, Note_on_c, 0, 75, 64
2, 7590, Note_on_c, 0, 75, 0
2, 7590, Note_on_c, 0, 74, 64
2, 7596, Note_on_c, 0, 74, 0
2, 7596, Note_on_c, 0, 72, 64
2, 7602, Note_on_c, 0, 72, 0
2, 7602, Note_on_c, 0, 74, 64
2, 7629, Note_on_c, 0, 74, 0
2, 7632, Note_on_c, 0, 77, 64
2, 7655, Note_on_c, 0, 77, 0
2, 7656, Note_on_c, 0, 75, 64
2, 7679, Note_on_c, 0, 75, 0
2, 7680, Note_on_c, 0, 74, 64
2, 7703, Note_on_c, 0, 74, 0
2, 7704, Note_on_c, 0, 72, 64
2, 7727, Note_on_c, 0, 72, 0
2, 7728, Note_on_c, 0, 70, 64
2, 7751, Note_on_c, 0, 70, 0
2, 7752, Note_on_c, 0, 69, 64
2, 7775, Note_on_c, 0, 69, 0
2, 7776, Note_on_c, 0, 70, 64
2, 7803, Note_on_c, 0, 70, 0
2, 7806, Note_on_c, 0, 72, 64
2, 7812, Note_on_c, 0, 72, 0
2, 7812, Note_on_c, 0, 70, 64
2, 7818, Note_on_c, 0, 70, 0
2, 7818, Note_on_c, 0, 69, 64
2, 7824, Note_on_c, 0, 69, 0
2, 7824, Note_on_c, 0, 70, 64
2, 7858, Note_on_c, 0, 70, 0
2, 7860, Note_on_c, 0, 74, 64
2, 7872, Note_on_c, 0, 74, 0
2, 7872, Note_on_c, 0, 77, 64
2, 7892, Note_on_c, 0, 77, 0
2, 8064, Note_on_c, 0, 65, 64
2, 8087, Note_on_c, 0, 65, 0
2, 8088, Note_on_c, 0, 74, 64
2, 8111, Note_on_c, 0, 74, 0
2, 8112, Note_on_c, 0, 69, 64
2, 8135, Note_on_c, 0, 69, 0
2, 8136, Note_on_c, 0, 70, 64
2, 8159, Note_on_c, 0, 70, 0
2, 8160, Note_on_c, 0, 67, 64
2, 8183, Note_on_c, 0, 67, 0
2, 8184, Note_on_c, 0, 75, 64
2, 8207, Note_on_c, 0, 75, 0
2, 8208, Note_on_c, 0, 71, 64
2, 8231, Note_on_c, 0, 71, 0
2, 8232, Note_on_c, 0, 72, 64
2, 8255, Note_on_c, 0, 72, 0
2, 8256, Note_on_c, 0, 67, 64
2, 8279, Note_on_c, 0, 67, 0
2, 8280, Note_on_c, 0, 79, 64
2, 8303, Note_on_c, 0, 79, 0
2, 8304, Note_on_c, 0, 75, 64
2, 8327, Note_on_c, 0, 75, 0
2, 8328, Note_on_c, 0, 72, 64
2, 8351, Note_on_c, 0, 72, 0
2, 8352, Note_on_c, 0, 70, 64
2, 8463, Note_on_c, 0, 70, 0
2, 8464, Note_on_c, 0, 69, 64
2, 8479, Note_on_c, 0, 69, 0
2, 8480, Note_on_c, 0, 67, 64
2, 8495, Note_on_c, 0, 67, 0
2, 8496, Note_on_c, 0, 65, 64
2, 8511, Note_on_c, 0, 65, 0
2, 8512, Note_on_c, 0, 64, 64
2, 8527, Note_on_c, 0, 64, 0
2, 8528, Note_on_c, 0, 65, 64
2, 8543, Note_on_c, 0, 65, 0
2, 8544, Note_on_c, 0, 66, 64
2, 8556, Note_on_c, 0, 66, 0
2, 8556, Note_on_c, 0, 67, 64
2, 8568, Note_on_c, 0, 67, 0
2, 8568, Note_on_c, 0, 68, 64
2, 8580, Note_on_c, 0, 68, 0
2, 8580, Note_on_c, 0, 69, 64
2, 8592, Note_on_c, 0, 69, 0
2, 8592, Note_on_c, 0, 70, 64
2, 8604, Note_on_c, 0, 70, 0
2, 8604, Note_on_c, 0, 71, 64
2, 8616, Note_on_c, 0, 71, 0
2, 8616, Note_on_c, 0, 72, 64
2, 8628, Note_on_c, 0, 72, 0
2, 8628, Note_on_c, 0, 73, 64
2, 8640, Note_on_c, 0, 73, 0
2, 8640, Note_on_c, 0, 74, 64
2, 8759, Note_on_c, 0, 74, 0
2, 8760, Note_on_c, 0, 75, 64
2, 8766, Note_on_c, 0, 75, 0
2, 8766, Note_on_c, 0, 74, 64
2, 8772, Note_on_c, 0, 74, 0
2, 8772, Note_on_c, 0, 72, 64
2, 8778, Note_on_c, 0, 72, 0
2, 8778, Note_on_c, 0, 74, 64
2, 8784, Note_on_c, 0, 74, 0
2, 8784, Note_on_c, 0, 77, 64
2, 8807, Note_on_c, 0, 77, 0
2, 8808, Note_on_c, 0, 75, 64
2, 8831, Note_on_c, 0, 75, 0
2, 8832, Note_on_c, 0, 74, 64
2, 8855, Note_on_c, 0, 74, 0
2, 8856, Note_on_c, 0, 72, 64
2, 8879, Note_on_c, 0, 72, 0
2, 8880, Note_on_c, 0, 70, 64
2, 8903, Note_on_c, 0, 70, 0
2, 8904, Note_on_c, 0, 69, 64
2, 8927, Note_on_c, 0, 69, 0
2, 8928, Note_on_c, 0, 70, 64
2, 8955, Note_on_c, 0, 70, 0
2, 8958, Note_on_c, 0, 72, 64
2, 8964, Note_on_c, 0, 72, 0
2, 8964, Note_on_c, 0, 70, 64
2, 8970, Note_on_c, 0, 70, 0
2, 8970, Note_on_c, 0, 69, 64
2, 8976, Note_on_c, 0, 69, 0
2, 8976, Note_on_c, 0, 70, 64
2, 9010, Note_on_c, 0, 70, 0
2, 9012, Note_on_c, 0, 74, 64
2, 9024, Note_on_c, 0, 74, 0
2, 9024, Note_on_c, 0, 77, 64
2, 9044, Note_on_c, 0, 77, 0
2, 9216, Note_on_c, 0, 75, 64
2, 9243, Note_on_c, 0, 75, 0
2, 9246, Note_on_c, 0, 77, 64
2, 9252, Note_on_c, 0, 77, 0
2, 9252, Note_on_c, 0, 75, 64
2, 9258, Note_on_c, 0, 75, 0
2, 9258, Note_on_c, 0, 74, 64
2, 9264, Note_on_c, 0, 74, 0
2, 9264, Note_on_c, 0, 75, 64
2, 9298, Note_on_c, 0, 75, 0
2, 9300, Note_on_c, 0, 79, 64
2, 9312, Note_on_c, 0, 79, 0
2, 9312, Note_on_c, 0, 82, 64
2, 9357, Note_on_c, 0, 82, 0
2, 9360, Note_on_c, 0, 82, 64
2, 9405, Note_on_c, 0, 82, 0
2, 9408, Note_on_c, 0, 82, 64
2, 9453, Note_on_c, 0, 82, 0
2, 9456, Note_on_c, 0, 82, 64
2, 9501, Note_on_c, 0, 82, 0
2, 9504, Note_on_c, 0, 82, 64
2, 9549, Note_on_c, 0, 82, 0
2, 9552, Note_on_c, 0, 84, 64
2, 9558, Note_on_c, 0, 84, 0
2, 9558, Note_on_c, 0, 82, 64
2, 9564, Note_on_c, 0, 82, 0
2, 9564, Note_on_c, 0, 81, 64
2, 9570, Note_on_c, 0, 81, 0
2, 9570, Note_on_c, 0, 82, 64
2, 9576, Note_on_c, 0, 82, 0
2, 9576, Note_on_c, 0, 82, 64
2, 9586, Note_on_c, 0, 82, 0
2, 9588, Note_on_c, 0, 84, 64
2, 9600, Note_on_c, 0, 84, 0
2, 9600, Note_on_c, 0, 86, 64
2, 9623, Note_on_c, 0, 86, 0
2, 9624, Note_on_c, 0, 84, 64
2, 9634, Note_on_c, 0, 84, 0
2, 9648, Note_on_c, 0, 82, 64
2, 9658, Note_on_c, 0, 82, 0
2, 9672, Note_on_c, 0, 81, 64
2, 9682, Note_on_c, 0, 81, 0
2, 9696, Note_on_c, 0, 79, 64
2, 9706, Note_on_c, 0, 79, 0
2, 9720, Note_on_c, 0, 77, 64
2, 9730, Note_on_c, 0, 77, 0
2, 9744, Note_on_c, 0, 75, 64
2, 9754, Note_on_c, 0, 75, 0
2, 9768, Note_on_c, 0, 74, 64
2, 9778, Note_on_c, 0, 74, 0
2, 9792, Note_on_c, 0, 72, 64
2, 9815, Note_on_c, 0, 72, 0
2, 9816, Note_on_c, 0, 79, 64
2, 9839, Note_on_c, 0, 79, 0
2, 9840, Note_on_c, 0, 75, 64
2, 9863, Note_on_c, 0, 75, 0
2, 9864, Note_on_c, 0, 72, 64
2, 9887, Note_on_c, 0, 72, 0
2, 9888, Note_on_c, 0, 70, 64
2, 9937, Note_on_c, 0, 70, 0
2, 9942, Note_on_c, 0, 72, 64
2, 9948, Note_on_c, 0, 72, 0
2, 9948, Note_on_c, 0, 70, 64
2, 9954, Note_on_c, 0, 70, 0
2, 9954, Note_on_c, 0, 69, 64
2, 9960, Note_on_c, 0, 69, 0
2, 9960, Note_on_c, 0, 70, 64
2, 9983, Note_on_c, 0, 70, 0
2, 9984, Note_on_c, 0, 74, 77
2, 10051, Note_on_c, 0, 74, 0
2, 10056, Note_on_c, 0, 72, 64
2, 10079, Note_on_c, 0, 72, 0
2, 10080, Note_on_c, 0, 72, 64
2, 10272, Note_on_c, 0, 72, 0
2, 10272, Note_on_c, 0, 70, 64
2, 10292, Note_on_c, 0, 70, 0
2, 10368, Note_on_c, 0, 57, 75
2, 10380, Note_on_c, 0, 57, 0
2, 10380, Note_on_c, 0, 65, 91
2, 10512, Note_on_c, 0, 65, 0
2, 10512, Note_on_c, 0, 67, 75
2, 10518, Note_on_c, 0, 67, 0
2, 10518, Note_on_c, 0, 65, 75
2, 10524, Note_on_c, 0, 65, 0
2, 10524, Note_on_c, 0, 63, 75
2, 10530, Note_on_c, 0, 63, 0
2, 10530, Note_on_c, 0, 65, 75
2, 10557, Note_on_c, 0, 65, 0
2, 10560, Note_on_c, 0, 66, 75
2, 10583, Note_on_c, 0, 66, 0
2, 10584, Note_on_c, 0, 67, 75
2, 10607, Note_on_c, 0, 67, 0
2, 10608, Note_on_c, 0, 68, 75
2, 10631, Note_on_c, 0, 68, 0
2, 10632, Note_on_c, 0, 69, 75
2, 10655, Note_on_c, 0, 69, 0
2, 10656, Note_on_c, 0, 72, 75
2, 10680, Note_on_c, 0, 72, 0
2, 10680, Note_on_c, 0, 70, 75
2, 10703, Note_on_c, 0, 70, 0
2, 10704, Note_on_c, 0, 69, 75
2, 10727, Note_on_c, 0, 69, 0
2, 10728, Note_on_c, 0, 67, 75
2, 10751, Note_on_c, 0, 67, 0
2, 10752, Note_on_c, 0, 65, 75
2, 10797, Note_on_c, 0, 65, 0
2, 10944, Note_on_c, 0, 65, 75
2, 10956, Note_on_c, 0, 65, 0
2, 10956, Note_on_c, 0, 69, 75
2, 10968, Note_on_c, 0, 69, 0
2, 10968, Note_on_c, 0, 72, 75
2, 10980, Note_on_c, 0, 72, 0
2, 10980, Note_on_c, 0, 75, 91
2, 10992, Note_on_c, 0, 75, 0
2, 11040, Note_on_c, 0, 65, 75
2, 11052, Note_on_c, 0, 65, 0
2, 11052, Note_on_c, 0, 69, 75
2, 11064, Note_on_c, 0, 69, 0
2, 11064, Note_on_c, 0, 70, 75
2, 11076, Note_on_c, 0, 70, 0
2, 11076, Note_on_c, 0, 74, 91
2, 11088, Note_on_c, 0, 74, 0
2, 11136, Note_on_c, 0, 67, 75
2, 11148, Note_on_c, 0, 67, 0
2, 11148, Note_on_c, 0, 72, 75
2, 11160, Note_on_c, 0, 72, 0
2, 11160, Note_on_c, 0, 75, 75
2, 11172, Note_on_c, 0, 75, 0
2, 11172, Note_on_c, 0, 79, 91
2, 11184, Note_on_c, 0, 79, 0
2, 11232, Note_on_c, 0, 70, 75
2, 11232, Note_on_c, 0, 62, 75
2, 11328, Note_on_c, 0, 70, 0
2, 11328, Note_on_c, 0, 62, 0
2, 11328, Note_on_c, 0, 69, 75
2, 11328, Note_on_c, 0, 60, 75
2, 11375, Note_on_c, 0, 69, 0
2, 11375, Note_on_c, 0, 60, 0
2, 11520, Note_on_c, 0, 58, 80
2, 11653, Note_on_c, 0, 58, 0
2, 11664, Note_on_c, 0, 60, 64
2, 11670, Note_on_c, 0, 60, 0
2, 11670, Note_on_c, 0, 58, 64
2, 11676, Note_on_c, 0, 58, 0
2, 11676, Note_on_c, 0, 57, 64
2, 11682, Note_on_c, 0, 57, 0
2, 11682, Note_on_c, 0, 58, 64
2, 11709, Note_on_c, 0, 58, 0
2, 11712, Note_on_c, 0, 65, 64
2, 11779, Note_on_c, 0, 65, 0
2, 11784, Note_on_c, 0, 61, 64
2, 11807, Note_on_c, 0, 61, 0
2, 11808, Note_on_c, 0, 61, 80
2, 11904, Note_on_c, 0, 61, 0
2, 11904, Note_on_c, 0, 60, 64
2, 11993, Note_on_c, 0, 60, 0
2, 12072, Note_on_c, 0, 63, 64
2, 12095, Note_on_c, 0, 63, 0
2, 12096, Note_on_c, 0, 63, 80
2, 12215, Note_on_c, 0, 63, 0
2, 12216, Note_on_c, 0, 62, 67
2, 12239, Note_on_c, 0, 62, 0
2, 12264, Note_on_c, 0, 83, 68
2, 12287, Note_on_c, 0, 83, 0
2, 12312, Note_on_c, 0, 80, 70
2, 12335, Note_on_c, 0, 80, 0
2, 12360, Note_on_c, 0, 62, 71
2, 12383, Note_on_c, 0, 62, 0
2, 12384, Note_on_c, 0, 65, 88
2, 12503, Note_on_c, 0, 65, 0
2, 12504, Note_on_c, 0, 63, 75
2, 12527, Note_on_c, 0, 63, 0
2, 12552, Note_on_c, 0, 82, 76
2, 12575, Note_on_c, 0, 82, 0
2, 12600, Note_on_c, 0, 78, 78
2, 12623, Note_on_c, 0, 78, 0
2, 12648, Note_on_c, 0, 77, 79
2, 12671, Note_on_c, 0, 77, 0
2, 12672, Note_on_c, 0, 77, 96
2, 12791, Note_on_c, 0, 77, 0
2, 12792, Note_on_c, 0, 76, 80
2, 12815, Note_on_c, 0, 76, 0
2, 12840, Note_on_c, 0, 73, 80
2, 12863, Note_on_c, 0, 73, 0
2, 12888, Note_on_c, 0, 72, 80
2, 12911, Note_on_c, 0, 72, 0
2, 12936, Note_on_c, 0, 70, 80
2, 12959, Note_on_c, 0, 70, 0
2, 12960, Note_on_c, 0, 70, 80
2, 13079, Note_on_c, 0, 70, 0
2, 13080, Note_on_c, 0, 69, 75
2, 13103, Note_on_c, 0, 69, 0
2, 13104, Note_on_c, 0, 67, 74
2, 13127, Note_on_c, 0, 67, 0
2, 13128, Note_on_c, 0, 65, 73
2, 13151, Note_on_c, 0, 65, 0
2, 13152, Note_on_c, 0, 64, 72
2, 13175, Note_on_c, 0, 64, 0
2, 13176, Note_on_c, 0, 63, 71
2, 13199, Note_on_c, 0, 63, 0
2, 13200, Note_on_c, 0, 62, 70
2, 13223, Note_on_c, 0, 62, 0
2, 13224, Note_on_c, 0, 60, 69
2, 13247, Note_on_c, 0, 60, 0
2, 13344, Note_on_c, 0, 74, 64
2, 13367, Note_on_c, 0, 74, 0
2, 13368, Note_on_c, 0, 65, 64
2, 13391, Note_on_c, 0, 65, 0
2, 13392, Note_on_c, 0, 70, 64
2, 13415, Note_on_c, 0, 70, 0
2, 13416, Note_on_c, 0, 74, 64
2, 13439, Note_on_c, 0, 74, 0
2, 13440, Note_on_c, 0, 77, 64
2, 13463, Note_on_c, 0, 77, 0
2, 13464, Note_on_c, 0, 75, 64
2, 13487, Note_on_c, 0, 75, 0
2, 13488, Note_on_c, 0, 72, 64
2, 13511, Note_on_c, 0, 72, 0
2, 13512, Note_on_c, 0, 69, 64
2, 13535, Note_on_c, 0, 69, 0
2, 13536, Note_on_c, 0, 70, 64
2, 13559, Note_on_c, 0, 70, 0
2, 13560, Note_on_c, 0, 72, 64
2, 13572, Note_on_c, 0, 72, 0
2, 13572, Note_on_c, 0, 74, 64
2, 13584, Note_on_c, 0, 74, 0
2, 13584, Note_on_c, 0, 75, 64
2, 13596, Note_on_c, 0, 75, 0
2, 13596, Note_on_c, 0, 77, 64
2, 13608, Note_on_c, 0, 77, 0
2, 13608, Note_on_c, 0, 79, 64
2, 13620, Note_on_c, 0, 79, 0
2, 13620, Note_on_c, 0, 81, 64
2, 13632, Note_on_c, 0, 81, 0
2, 13632, Note_on_c, 0, 82, 64
2, 13642, Note_on_c, 0, 82, 0
2, 13656, Note_on_c, 0, 84, 64
2, 13666, Note_on_c, 0, 84, 0
2, 13680, Note_on_c, 0, 86, 64
2, 13690, Note_on_c, 0, 86, 0
2, 13704, Note_on_c, 0, 87, 64
2, 13714, Note_on_c, 0, 87, 0
2, 13728, Note_on_c, 0, 89, 64
2, 13773, Note_on_c, 0, 89, 0
2, 13848, Note_on_c, 0, 89, 64
2, 13871, Note_on_c, 0, 89, 0
2, 13872, Note_on_c, 0, 86, 64
2, 13895, Note_on_c, 0, 86, 0
2, 13896, Note_on_c, 0, 82, 64
2, 13919, Note_on_c, 0, 82, 0
2, 13944, Note_on_c, 0, 84, 64
2, 13956, Note_on_c, 0, 84, 0
2, 13956, Note_on_c, 0, 82, 64
2, 13961, Note_on_c, 0, 82, 0
2, 13968, Note_on_c, 0, 81, 64
2, 13980, Note_on_c, 0, 81, 0
2, 13980, Note_on_c, 0, 79, 64
2, 13985, Note_on_c, 0, 79, 0
2, 13992, Note_on_c, 0, 77, 64
2, 14004, Note_on_c, 0, 77, 0
2, 14004, Note_on_c, 0, 75, 64
2, 14009, Note_on_c, 0, 75, 0
2, 14040, Note_on_c, 0, 81, 64
2, 14052, Note_on_c, 0, 81, 0
2, 14052, Note_on_c, 0, 79, 64
2, 14057, Note_on_c, 0, 79, 0
2, 14064, Note_on_c, 0, 77, 64
2, 14076, Note_on_c, 0, 77, 0
2, 14076, Note_on_c, 0, 75, 64
2, 14081, Note_on_c, 0, 75, 0
2, 14088, Note_on_c, 0, 74, 64
2, 14100, Note_on_c, 0, 74, 0
2, 14100, Note_on_c, 0, 72, 64
2, 14105, Note_on_c, 0, 72, 0
2, 14112, Note_on_c, 0, 70, 64
2, 14231, Note_on_c, 0, 70, 0
2, 14232, Note_on_c, 0, 69, 64
2, 14255, Note_on_c, 0, 69, 0
2, 14256, Note_on_c, 0, 67, 64
2, 14262, Note_on_c, 0, 67, 0
2, 14262, Note_on_c, 0, 69, 64
2, 14268, Note_on_c, 0, 69, 0
2, 14268, Note_on_c, 0, 67, 64
2, 14279, Note_on_c, 0, 67, 0
2, 14280, Note_on_c, 0, 65, 64
2, 14303, Note_on_c, 0, 65, 0
2, 14304, Note_on_c, 0, 77, 64
2, 14327, Note_on_c, 0, 77, 0
2, 14328, Note_on_c, 0, 76, 64
2, 14351, Note_on_c, 0, 76, 0
2, 14352, Note_on_c, 0, 75, 64
2, 14375, Note_on_c, 0, 75, 0
2, 14376, Note_on_c, 0, 72, 64
2, 14399, Note_on_c, 0, 72, 0
2, 14400, Note_on_c, 0, 73, 64
2, 14445, Note_on_c, 0, 73, 0
2, 14448, Note_on_c, 0, 74, 64
2, 14519, Note_on_c, 0, 74, 0
2, 14520, Note_on_c, 0, 75, 64
2, 14526, Note_on_c, 0, 75, 0
2, 14526, Note_on_c, 0, 74, 64
2, 14532, Note_on_c, 0, 74, 0
2, 14532, Note_on_c, 0, 72, 64
2, 14538, Note_on_c, 0, 72, 0
2, 14538, Note_on_c, 0, 74, 64
2, 14544, Note_on_c, 0, 74, 0
2, 14544, Note_on_c, 0, 77, 64
2, 14567, Note_on_c, 0, 77, 0
2, 14568, Note_on_c, 0, 75, 64
2, 14591, Note_on_c, 0, 75, 0
2, 14592, Note_on_c, 0, 74, 64
2, 14615, Note_on_c, 0, 74, 0
2, 14616, Note_on_c, 0, 72, 64
2, 14639, Note_on_c, 0, 72, 0
2, 14640, Note_on_c, 0, 70, 64
2, 14663, Note_on_c, 0, 70, 0
2, 14664, Note_on_c, 0, 69, 64
2, 14687, Note_on_c, 0, 69, 0
2, 14688, Note_on_c, 0, 70, 64
2, 14715, Note_on_c, 0, 70, 0
2, 14718, Note_on_c, 0, 72, 64
2, 14724, Note_on_c, 0, 72, 0
2, 14724, Note_on_c, 0, 70, 64
2, 14730, Note_on_c, 0, 70, 0
2, 14730, Note_on_c, 0, 69, 64
2, 14736, Note_on_c, 0, 69, 0
2, 14736, Note_on_c, 0, 70, 64
2, 14770, Note_on_c, 0, 70, 0
2, 14772, Note_on_c, 0, 74, 64
2, 14784, Note_on_c, 0, 74, 0
2, 14784, Note_on_c, 0, 77, 64
2, 14804, Note_on_c, 0, 77, 0
2, 14976, Note_on_c, 0, 75, 64
2, 15003, Note_on_c, 0, 75, 0
2, 15006, Note_on_c, 0, 77, 64
2, 15012, Note_on_c, 0, 77, 0
2, 15012, Note_on_c, 0, 75, 64
2, 15018, Note_on_c, 0, 75, 0
2, 15018, Note_on_c, 0, 74, 64
2, 15024, Note_on_c, 0, 74, 0
2, 15024, Note_on_c, 0, 75, 66
2, 15058, Note_on_c, 0, 75, 0
2, 15060, Note_on_c, 0, 79, 68
2, 15072, Note_on_c, 0, 79, 0
2, 15072, Note_on_c, 0, 82, 69
2, 15095, Note_on_c, 0, 82, 0
2, 15096, Note_on_c, 0, 82, 70
2, 15119, Note_on_c, 0, 82, 0
2, 15144, Note_on_c, 0, 82, 73
2, 15167, Note_on_c, 0, 82, 0
2, 15192, Note_on_c, 0, 82, 76
2, 15215, Note_on_c, 0, 82, 0
2, 15240, Note_on_c, 0, 82, 78
2, 15263, Note_on_c, 0, 82, 0
2, 15288, Note_on_c, 0, 82, 80
2, 15311, Note_on_c, 0, 82, 0
2, 15312, Note_on_c, 0, 84, 80
2, 15318, Note_on_c, 0, 84, 0
2, 15318, Note_on_c, 0, 82, 80
2, 15324, Note_on_c, 0, 82, 0
2, 15324, Note_on_c, 0, 81, 80
2, 15336, Note_on_c, 0, 81, 0
2, 15336, Note_on_c, 0, 82, 80
2, 15348, Note_on_c, 0, 82, 0
2, 15348, Note_on_c, 0, 84, 80
2, 15360, Note_on_c, 0, 84, 0
2, 15360, Note_on_c, 0, 86, 80
2, 15370, Note_on_c, 0, 86, 0
2, 15396, Note_on_c, 0, 84, 77
2, 15401, Note_on_c, 0, 84, 0
2, 15408, Note_on_c, 0, 84, 76
2, 15420, Note_on_c, 0, 84, 0
2, 15420, Note_on_c, 0, 82, 75
2, 15432, Note_on_c, 0, 82, 0
2, 15444, Note_on_c, 0, 81, 73
2, 15449, Note_on_c, 0, 81, 0
2, 15456, Note_on_c, 0, 81, 72
2, 15468, Note_on_c, 0, 81, 0
2, 15468, Note_on_c, 0, 79, 71
2, 15480, Note_on_c, 0, 79, 0
2, 15492, Note_on_c, 0, 77, 69
2, 15497, Note_on_c, 0, 77, 0
2, 15504, Note_on_c, 0, 77, 68
2, 15516, Note_on_c, 0, 77, 0
2, 15516, Note_on_c, 0, 75, 67
2, 15528, Note_on_c, 0, 75, 0
2, 15540, Note_on_c, 0, 74, 65
2, 15545, Note_on_c, 0, 74, 0
2, 15552, Note_on_c, 0, 72, 64
2, 15567, Note_on_c, 0, 72, 0
2, 15568, Note_on_c, 0, 78, 64
2, 15583, Note_on_c, 0, 78, 0
2, 15584, Note_on_c, 0, 81, 64
2, 15599, Note_on_c, 0, 81, 0
2, 15600, Note_on_c, 0, 79, 64
2, 15615, Note_on_c, 0, 79, 0
2, 15616, Note_on_c, 0, 75, 64
2, 15631, Note_on_c, 0, 75, 0
2, 15632, Note_on_c, 0, 72, 64
2, 15647, Note_on_c, 0, 72, 0
2, 15648, Note_on_c, 0, 70, 64
2, 15697, Note_on_c, 0, 70, 0
2, 15702, Note_on_c, 0, 72, 64
2, 15708, Note_on_c, 0, 72, 0
2, 15708, Note_on_c, 0, 70, 64
2, 15714, Note_on_c, 0, 70, 0
2, 15714, Note_on_c, 0, 69, 64
2, 15720, Note_on_c, 0, 69, 0
2, 15720, Note_on_c, 0, 70, 64
2, 15743, Note_on_c, 0, 70, 0
2, 15744, Note_on_c, 0, 74, 64
2, 15811, Note_on_c, 0, 74, 0
2, 15816, Note_on_c, 0, 72, 64
2, 15839, Note_on_c, 0, 72, 0
2, 15840, Note_on_c, 0, 72, 64
2, 16032, Note_on_c, 0, 72, 0
2, 16032, Note_on_c, 0, 70, 64
2, 16061, Note_on_c, 0, 70, 0
2, 16128, Control_c, 0, 64, 127
2, 16128, Note_on_c, 0, 53, 70
2, 16143, Note_on_c, 0, 53, 0
2, 16144, Note_on_c, 0, 58, 70
2, 16159, Note_on_c, 0, 58, 0
2, 16160, Note_on_c, 0, 61, 70
2, 16175, Note_on_c, 0, 61, 0
2, 16176, Note_on_c, 0, 65, 70
2, 16191, Note_on_c, 0, 65, 0
2, 16192, Note_on_c, 0, 61, 70
2, 16207, Note_on_c, 0, 61, 0
2, 16208, Note_on_c, 0, 58, 70
2, 16223, Note_on_c, 0, 58, 0
2, 16224, Note_on_c, 0, 53, 70
2, 16239, Note_on_c, 0, 53, 0
2, 16240, Note_on_c, 0, 58, 70
2, 16255, Note_on_c, 0, 58, 0
2, 16256, Note_on_c, 0, 61, 70
2, 16271, Note_on_c, 0, 61, 0
2, 16272, Note_on_c, 0, 65, 70
2, 16287, Note_on_c, 0, 65, 0
2, 16288, Note_on_c, 0, 61, 70
2, 16303, Note_on_c, 0, 61, 0
2, 16304, Note_on_c, 0, 58, 70
2, 16319, Note_on_c, 0, 58, 0
2, 16320, Note_on_c, 0, 53, 70
2, 16335, Note_on_c, 0, 53, 0
2, 16336, Note_on_c, 0, 58, 70
2, 16351, Note_on_c, 0, 58, 0
2, 16352, Note_on_c, 0, 61, 70
2, 16367, Note_on_c, 0, 61, 0
2, 16368, Note_on_c, 0, 65, 70
2, 16383, Note_on_c, 0, 65, 0
2, 16384, Note_on_c, 0, 61, 70
2, 16399, Note_on_c, 0, 61, 0
2, 16400, Note_on_c, 0, 58, 70
2, 16415, Note_on_c, 0, 58, 0
2, 16416, Control_c, 0, 64, 0
2, 16416, Control_c, 0, 64, 127
2, 16416, Note_on_c, 0, 53, 70
2, 16431, Note_on_c, 0, 53, 0
2, 16432, Note_on_c, 0, 60, 70
2, 16447, Note_on_c, 0, 60, 0
2, 16448, Note_on_c, 0, 63, 70
2, 16463, Note_on_c, 0, 63, 0
2, 16464, Note_on_c, 0, 65, 70
2, 16479, Note_on_c, 0, 65, 0
2, 16480, Note_on_c, 0, 63, 70
2, 16495, Note_on_c, 0, 63, 0
2, 16496, Note_on_c, 0, 60, 70
2, 16511, Note_on_c, 0, 60, 0
2, 16512, Note_on_c, 0, 53, 70
2, 16527, Note_on_c, 0, 53, 0
2, 16528, Note_on_c, 0, 60, 70
2, 16543, Note_on_c, 0, 60, 0
2, 16544, Note_on_c, 0, 63, 70
2, 16559, Note_on_c, 0, 63, 0
2, 16560, Note_on_c, 0, 65, 70
2, 16575, Note_on_c, 0, 65, 0
2, 16576, Note_on_c, 0, 63, 70
2, 16591, Note_on_c, 0, 63, 0
2, 16592, Note_on_c, 0, 60, 70
2, 16607, Note_on_c, 0, 60, 0
2, 16608, Note_on_c, 0, 53, 70
2, 16623, Note_on_c, 0, 53, 0
2, 16624, Note_on_c, 0, 60, 70
2, 16639, Note_on_c, 0, 60, 0
2, 16640, Note_on_c, 0, 63, 70
2, 16655, Note_on_c, 0, 63, 0
2, 16656, Note_on_c, 0, 65, 70
2, 16671, Note_on_c, 0, 65, 0
2, 16672, Note_on_c, 0, 63, 70
2, 16687, Note_on_c, 0, 63, 0
2, 16688, Note_on_c, 0, 60, 70
2, 16703, Note_on_c, 0, 60, 0
2, 16704, Note_on_c, 0, 57, 70
2, 16719, Note_on_c, 0, 57, 0
2, 16720, Note_on_c, 0, 60, 70
2, 16735, Note_on_c, 0, 60, 0
2, 16736, Note_on_c, 0, 63, 70
2, 16751, Note_on_c, 0, 63, 0
2, 16752, Note_on_c, 0, 65, 70
2, 16767, Note_on_c, 0, 65, 0
2, 16768, Note_on_c, 0, 63, 70
2, 16783, Note_on_c, 0, 63, 0
2, 16784, Note_on_c, 0, 60, 70
2, 16799, Note_on_c, 0, 60, 0
2, 16800, Note_on_c, 0, 57, 70
2, 16815, Note_on_c, 0, 57, 0
2, 16816, Note_on_c, 0, 60, 70
2, 16831, Note_on_c, 0, 60, 0
2, 16832, Note_on_c, 0, 63, 70
2, 16847, Note_on_c, 0, 63, 0
2, 16848, Note_on_c, 0, 65, 70
2, 16863, Note_on_c, 0, 65, 0
2, 16864, Note_on_c, 0, 63, 70
2, 16879, Note_on_c, 0, 63, 0
2, 16880, Note_on_c, 0, 60, 70
2, 16895, Note_on_c, 0, 60, 0
2, 16896, Note_on_c, 0, 57, 70
2, 16911, Note_on_c, 0, 57, 0
2, 16912, Note_on_c, 0, 60, 70
2, 16927, Note_on_c, 0, 60, 0
2, 16928, Note_on_c, 0, 63, 70
2, 16943, Note_on_c, 0, 63, 0
2, 16944, Note_on_c, 0, 65, 70
2, 16959, Note_on_c, 0, 65, 0
2, 16960, Note_on_c, 0, 63, 70
2, 16975, Note_on_c, 0, 63, 0
2, 16976, Note_on_c, 0, 60, 70
2, 16991, Note_on_c, 0, 60, 0
2, 16992, Control_c, 0, 64, 0
2, 16992, Control_c, 0, 64, 127
2, 16992, Note_on_c, 0, 53, 70
2, 17007, Note_on_c, 0, 53, 0
2, 17008, Note_on_c, 0, 58, 70
2, 17023, Note_on_c, 0, 58, 0
2, 17024, Note_on_c, 0, 61, 70
2, 17039, Note_on_c, 0, 61, 0
2, 17040, Note_on_c, 0, 65, 70
2, 17055, Note_on_c, 0, 65, 0
2, 17056, Note_on_c, 0, 61, 70
2, 17071, Note_on_c, 0, 61, 0
2, 17072, Note_on_c, 0, 58, 70
2, 17087, Note_on_c, 0, 58, 0
2, 17088, Note_on_c, 0, 53, 70
2, 17103, Note_on_c, 0, 53, 0
2, 17104, Note_on_c, 0, 58, 70
2, 17119, Note_on_c, 0, 58, 0
2, 17120, Note_on_c, 0, 61, 70
2, 17135, Note_on_c, 0, 61, 0
2, 17136, Note_on_c, 0, 65, 70
2, 17151, Note_on_c, 0, 65, 0
2, 17152, Note_on_c, 0, 61, 70
2, 17167, Note_on_c, 0, 61, 0
2, 17168, Note_on_c, 0, 58, 70
2, 17183, Note_on_c, 0, 58, 0
2, 17184, Note_on_c, 0, 53, 70
2, 17199, Note_on_c, 0, 53, 0
2, 17200, Note_on_c, 0, 58, 70
2, 17215, Note_on_c, 0, 58, 0
2, 17216, Note_on_c, 0, 61, 70
2, 17231, Note_on_c, 0, 61, 0
2, 17232, Note_on_c, 0, 65, 70
2, 17247, Note_on_c, 0, 65, 0
2, 17248, Note_on_c, 0, 61, 70
2, 17263, Note_on_c, 0, 61, 0
2, 17264, Note_on_c, 0, 58, 70
2, 17279, Note_on_c, 0, 58, 0
2, 17280, Control_c, 0, 64, 0
2, 17280, Control_c, 0, 64, 127
2, 17280, Note_on_c, 0, 54, 70
2, 17295, Note_on_c, 0, 54, 0
2, 17296, Note_on_c, 0, 58, 70
2, 17311, Note_on_c, 0, 58, 0
2, 17312, Note_on_c, 0, 61, 70
2, 17327, Note_on_c, 0, 61, 0
2, 17328, Note_on_c, 0, 66, 70
2, 17343, Note_on_c, 0, 66, 0
2, 17344, Note_on_c, 0, 61, 70
2, 17359, Note_on_c, 0, 61, 0
2, 17360, Note_on_c, 0, 58, 70
2, 17375, Note_on_c, 0, 58, 0
2, 17376, Note_on_c, 0, 54, 70
2, 17391, Note_on_c, 0, 54, 0
2, 17392, Note_on_c, 0, 58, 70
2, 17407, Note_on_c, 0, 58, 0
2, 17408, Note_on_c, 0, 61, 70
2, 17423, Note_on_c, 0, 61, 0
2, 17424, Note_on_c, 0, 66, 70
2, 17439, Note_on_c, 0, 66, 0
2, 17440, Note_on_c, 0, 61, 70
2, 17455, Note_on_c, 0, 61, 0
2, 17456, Note_on_c, 0, 58, 70
2, 17471, Note_on_c, 0, 58, 0
2, 17472, Note_on_c, 0, 54, 70
2, 17487, Note_on_c, 0, 54, 0
2, 17488, Note_on_c, 0, 58, 70
2, 17503, Note_on_c, 0, 58, 0
2, 17504, Note_on_c, 0, 61, 70
2, 17519, Note_on_c, 0, 61, 0
2, 17520, Note_on_c, 0, 66, 70
2, 17535, Note_on_c, 0, 66, 0
2, 17536, Note_on_c, 0, 61, 70
2, 17551, Note_on_c, 0, 61, 0
2, 17552, Control_c, 0, 64, 0
2, 17552, Note_on_c, 0, 58, 70
2, 17567, Note_on_c, 0, 58, 0
2, 17568, Control_c, 0, 64, 127
2, 17568, Note_on_c, 0, 56, 70
2, 17583, Note_on_c, 0, 56, 0
2, 17584, Note_on_c, 0, 60, 70
2, 17599, Note_on_c, 0, 60, 0
2, 17600, Note_on_c, 0, 63, 70
2, 17615, Note_on_c, 0, 63, 0
2, 17616, Note_on_c, 0, 66, 70
2, 17631, Note_on_c, 0, 66, 0
2, 17632, Note_on_c, 0, 63, 70
2, 17647, Note_on_c, 0, 63, 0
2, 17648, Note_on_c, 0, 60, 70
2, 17663, Note_on_c, 0, 60, 0
2, 17664, Note_on_c, 0, 56, 70
2, 17679, Note_on_c, 0, 56, 0
2, 17680, Note_on_c, 0, 60, 70
2, 17695, Note_on_c, 0, 60, 0
2, 17696, Note_on_c, 0, 63, 70
2, 17711, Note_on_c, 0, 63, 0
2, 17712, Note_on_c, 0, 66, 70
2, 17727, Note_on_c, 0, 66, 0
2, 17728, Note_on_c, 0, 63, 70
2, 17743, Note_on_c, 0, 63, 0
2, 17744, Note_on_c, 0, 60, 70
2, 17759, Note_on_c, 0, 60, 0
2, 17760, Note_on_c, 0, 56, 70
2, 17775, Note_on_c, 0, 56, 0
2, 17776, Note_on_c, 0, 60, 70
2, 17791, Note_on_c, 0, 60, 0
2, 17792, Note_on_c, 0, 63, 70
2, 17807, Note_on_c, 0, 63, 0
2, 17808, Note_on_c, 0, 66, 70
2, 17823, Note_on_c, 0, 66, 0
2, 17824, Note_on_c, 0, 63, 70
2, 17839, Note_on_c, 0, 63, 0
2, 17840, Note_on_c, 0, 60, 70
2, 17855, Note_on_c, 0, 60, 0
2, 17856, Control_c, 0, 64, 0
2, 17856, Control_c, 0, 64, 127
2, 17856, Note_on_c, 0, 56, 70
2, 17871, Note_on_c, 0, 56, 0
2, 17872, Note_on_c, 0, 61, 70
2, 17887, Note_on_c, 0, 61, 0
2, 17888, Note_on_c, 0, 65, 70
2, 17903, Note_on_c, 0, 65, 0
2, 17904, Note_on_c, 0, 68, 70
2, 17919, Note_on_c, 0, 68, 0
2, 17920, Note_on_c, 0, 65, 70
2, 17935, Note_on_c, 0, 65, 0
2, 17936, Note_on_c, 0, 61, 70
2, 17951, Note_on_c, 0, 61, 0
2, 17952, Note_on_c, 0, 56, 70
2, 17967, Note_on_c, 0, 56, 0
2, 17968, Note_on_c, 0, 61, 70
2, 17983, Note_on_c, 0, 61, 0
2, 17984, Note_on_c, 0, 65, 70
2, 17999, Note_on_c, 0, 65, 0
2, 18000, Note_on_c, 0, 68, 70
2, 18015, Note_on_c, 0, 68, 0
2, 18016, Note_on_c, 0, 65, 70
2, 18031, Note_on_c, 0, 65, 0
2, 18032, Note_on_c, 0, 61, 70
2, 18047, Note_on_c, 0, 61, 0
2, 18048, Note_on_c, 0, 56, 70
2, 18063, Note_on_c, 0, 56, 0
2, 18064, Note_on_c, 0, 61, 70
2, 18079, Note_on_c, 0, 61, 0
2, 18080, Note_on_c, 0, 65, 70
2, 18095, Note_on_c, 0, 65, 0
2, 18096, Note_on_c, 0, 68, 70
2, 18111, Note_on_c, 0, 68, 0
2, 18112, Note_on_c, 0, 65, 70
2, 18127, Note_on_c, 0, 65, 0
2, 18128, Note_on_c, 0, 61, 70
2, 18143, Note_on_c, 0, 61, 0
2, 18144, Control_c, 0, 64, 0
2, 18144, Control_c, 0, 64, 127
2, 18144, Note_on_c, 0, 58, 70
2, 18159, Note_on_c, 0, 58, 0
2, 18160, Note_on_c, 0, 61, 70
2, 18175, Note_on_c, 0, 61, 0
2, 18176, Note_on_c, 0, 64, 70
2, 18191, Note_on_c, 0, 64, 0
2, 18192, Note_on_c, 0, 67, 70
2, 18207, Note_on_c, 0, 67, 0
2, 18208, Note_on_c, 0, 64, 70
2, 18223, Note_on_c, 0, 64, 0
2, 18224, Note_on_c, 0, 61, 71
2, 18239, Note_on_c, 0, 61, 0
2, 18240, Note_on_c, 0, 58, 71
2, 18255, Note_on_c, 0, 58, 0
2, 18256, Note_on_c, 0, 61, 71
2, 18271, Note_on_c, 0, 61, 0
2, 18272, Note_on_c, 0, 64, 71
2, 18287, Note_on_c, 0, 64, 0
2, 18288, Note_on_c, 0, 67, 71
2, 18303, Note_on_c, 0, 67, 0
2, 18304, Note_on_c, 0, 64, 72
2, 18319, Note_on_c, 0, 64, 0
2, 18320, Note_on_c, 0, 61, 72
2, 18335, Note_on_c, 0, 61, 0
2, 18336, Note_on_c, 0, 58, 72
2, 18351, Note_on_c, 0, 58, 0
2, 18352, Note_on_c, 0, 61, 72
2, 18367, Note_on_c, 0, 61, 0
2, 18368, Note_on_c, 0, 64, 72
2, 18383, Note_on_c, 0, 64, 0
2, 18384, Note_on_c, 0, 67, 73
2, 18399, Note_on_c, 0, 67, 0
2, 18400, Note_on_c, 0, 64, 73
2, 18415, Note_on_c, 0, 64, 0
2, 18416, Note_on_c, 0, 61, 73
2, 18431, Note_on_c, 0, 61, 0
2, 18432, Control_c, 0, 64, 0
2, 18432, Control_c, 0, 64, 127
2, 18432, Note_on_c, 0, 56, 80
2, 18447, Note_on_c, 0, 56, 0
2, 18448, Note_on_c, 0, 61, 80
2, 18463, Note_on_c, 0, 61, 0
2, 18464, Note_on_c, 0, 65, 80
2, 18479, Note_on_c, 0, 65, 0
2, 18480, Note_on_c, 0, 68, 80
2, 18495, Note_on_c, 0, 68, 0
2, 18496, Note_on_c, 0, 65, 80
2, 18511, Note_on_c, 0, 65, 0
2, 18512, Note_on_c, 0, 61, 80
2, 18527, Note_on_c, 0, 61, 0
2, 18528, Note_on_c, 0, 56, 80
2, 18543, Note_on_c, 0, 56, 0
2, 18544, Note_on_c, 0, 61, 80
2, 18559, Note_on_c, 0, 61, 0
2, 18560, Note_on_c, 0, 65, 80
2, 18575, Note_on_c, 0, 65, 0
2, 18576, Note_on_c, 0, 68, 80
2, 18591, Note_on_c, 0, 68, 0
2, 18592, Note_on_c, 0, 65, 80
2, 18607, Note_on_c, 0, 65, 0
2, 18608, Note_on_c, 0, 61, 80
2, 18623, Note_on_c, 0, 61, 0
2, 18624, Control_c, 0, 64, 0
2, 18624, Control_c, 0, 64, 127
2, 18624, Note_on_c, 0, 66, 80
2, 18639, Note_on_c, 0, 66, 0
2, 18640, Note_on_c, 0, 63, 80
2, 18655, Note_on_c, 0, 63, 0
2, 18656, Note_on_c, 0, 60, 80
2, 18671, Note_on_c, 0, 60, 0
2, 18672, Note_on_c, 0, 66, 80
2, 18687, Note_on_c, 0, 66, 0
2, 18688, Note_on_c, 0, 63, 80
2, 18703, Note_on_c, 0, 63, 0
2, 18704, Note_on_c, 0, 60, 80
2, 18719, Note_on_c, 0, 60, 0
2, 18720, Control_c, 0, 64, 0
2, 18720, Note_on_c, 0, 61, 80
2, 18809, Note_on_c, 0, 61, 0
2, 19008, Control_c, 0, 64, 127
2, 19008, Note_on_c, 0, 53, 70
2, 19023, Note_on_c, 0, 53, 0
2, 19024, Note_on_c, 0, 58, 70
2, 19039, Note_on_c, 0, 58, 0
2, 19040, Note_on_c, 0, 61, 70
2, 19055, Note_on_c, 0, 61, 0
2, 19056, Note_on_c, 0, 65, 70
2, 19071, Note_on_c, 0, 65, 0
2, 19072, Note_on_c, 0, 61, 70
2, 19087, Note_on_c, 0, 61, 0
2, 19088, Note_on_c, 0, 58, 70
2, 19103, Note_on_c, 0, 58, 0
2, 19104, Note_on_c, 0, 53, 70
2, 19119, Note_on_c, 0, 53, 0
2, 19120, Note_on_c, 0, 58, 70
2, 19135, Note_on_c, 0, 58, 0
2, 19136, Note_on_c, 0, 61, 70
2, 19151, Note_on_c, 0, 61, 0
2, 19152, Note_on_c, 0, 65, 70
2, 19167, Note_on_c, 0, 65, 0
2, 19168, Note_on_c, 0, 61, 70
2, 19183, Note_on_c, 0, 61, 0
2, 19184, Note_on_c, 0, 58, 70
2, 19199, Note_on_c, 0, 58, 0
2, 19200, Note_on_c, 0, 53, 70
2, 19215, Note_on_c, 0, 53, 0
2, 19216, Note_on_c, 0, 58, 70
2, 19231, Note_on_c, 0, 58, 0
2, 19232, Note_on_c, 0, 61, 70
2, 19247, Note_on_c, 0, 61, 0
2, 19248, Note_on_c, 0, 65, 70
2, 19263, Note_on_c, 0, 65, 0
2, 19264, Note_on_c, 0, 61, 70
2, 19279, Note_on_c, 0, 61, 0
2, 19280, Note_on_c, 0, 58, 70
2, 19295, Note_on_c, 0, 58, 0
2, 19296, Control_c, 0, 64, 0
2, 19296, Control_c, 0, 64, 127
2, 19296, Note_on_c, 0, 53, 70
2, 19311, Note_on_c, 0, 53, 0
2, 19312, Note_on_c, 0, 60, 70
2, 19327, Note_on_c, 0, 60, 0
2, 19328, Note_on_c, 0, 63, 70
2, 19343, Note_on_c, 0, 63, 0
2, 19344, Note_on_c, 0, 65, 70
2, 19359, Note_on_c, 0, 65, 0
2, 19360, Note_on_c, 0, 63, 70
2, 19375, Note_on_c, 0, 63, 0
2, 19376, Note_on_c, 0, 60, 70
2, 19391, Note_on_c, 0, 60, 0
2, 19392, Note_on_c, 0, 53, 70
2, 19407, Note_on_c, 0, 53, 0
2, 19408, Note_on_c, 0, 60, 70
2, 19423, Note_on_c, 0, 60, 0
2, 19424, Note_on_c, 0, 63, 70
2, 19439, Note_on_c, 0, 63, 0
2, 19440, Note_on_c, 0, 65, 70
2, 19455, Note_on_c, 0, 65, 0
2, 19456, Note_on_c, 0, 63, 70
2, 19471, Note_on_c, 0, 63, 0
2, 19472, Note_on_c, 0, 60, 70
2, 19487, Note_on_c, 0, 60, 0
2, 19488, Note_on_c, 0, 53, 70
2, 19503, Note_on_c, 0, 53, 0
2, 19504, Note_on_c, 0, 60, 70
2, 19519, Note_on_c, 0, 60, 0
2, 19520, Note_on_c, 0, 63, 70
2, 19535, Note_on_c, 0, 63, 0
2, 19536, Note_on_c, 0, 65, 70
2, 19551, Note_on_c, 0, 65, 0
2, 19552, Note_on_c, 0, 63, 70
2, 19567, Note_on_c, 0, 63, 0
2, 19568, Note_on_c, 0, 60, 70
2, 19583, Note_on_c, 0, 60, 0
2, 19584, Note_on_c, 0, 57, 70
2, 19599, Note_on_c, 0, 57, 0
2, 19600, Note_on_c, 0, 60, 70
2, 19615, Note_on_c, 0, 60, 0
2, 19616, Note_on_c, 0, 63, 70
2, 19631, Note_on_c, 0, 63, 0
2, 19632, Note_on_c, 0, 65, 70
2, 19647, Note_on_c, 0, 65, 0
2, 19648, Note_on_c, 0, 63, 70
2, 19663, Note_on_c, 0, 63, 0
2, 19664, Note_on_c, 0, 60, 70
2, 19679, Note_on_c, 0, 60, 0
2, 19680, Note_on_c, 0, 57, 70
2, 19695, Note_on_c, 0, 57, 0
2, 19696, Note_on_c, 0, 60, 70
2, 19711, Note_on_c, 0, 60, 0
2, 19712, Note_on_c, 0, 63, 70
2, 19727, Note_on_c, 0, 63, 0
2, 19728, Note_on_c, 0, 65, 70
2, 19743, Note_on_c, 0, 65, 0
2, 19744, Note_on_c, 0, 63, 70
2, 19759, Note_on_c, 0, 63, 0
2, 19760, Note_on_c, 0, 60, 70
2, 19775, Note_on_c, 0, 60, 0
2, 19776, Note_on_c, 0, 57, 70
2, 19791, Note_on_c, 0, 57, 0
2, 19792, Note_on_c, 0, 60, 70
2, 19807, Note_on_c, 0, 60, 0
2, 19808, Note_on_c, 0, 63, 70
2, 19823, Note_on_c, 0, 63, 0
2, 19824, Note_on_c, 0, 65, 70
2, 19839, Note_on_c, 0, 65, 0
2, 19840, Note_on_c, 0, 63, 70
2, 19855, Note_on_c, 0, 63, 0
2, 19856, Note_on_c, 0, 60, 70
2, 19871, Note_on_c, 0, 60, 0
2, 19872, Control_c, 0, 64, 0
2, 19872, Control_c, 0, 64, 127
2, 19872, Note_on_c, 0, 53, 70
2, 19887, Note_on_c, 0, 53, 0
2, 19888, Note_on_c, 0, 58, 70
2, 19903, Note_on_c, 0, 58, 0
2, 19904, Note_on_c, 0, 61, 70
2, 19919, Note_on_c, 0, 61, 0
2, 19920, Note_on_c, 0, 65, 70
2, 19935, Note_on_c, 0, 65, 0
2, 19936, Note_on_c, 0, 61, 70
2, 19951, Note_on_c, 0, 61, 0
2, 19952, Note_on_c, 0, 58, 70
2, 19967, Note_on_c, 0, 58, 0
2, 19968, Note_on_c, 0, 53, 70
2, 19983, Note_on_c, 0, 53, 0
2, 19984, Note_on_c, 0, 58, 70
2, 19999, Note_on_c, 0, 58, 0
2, 20000, Note_on_c, 0, 61, 70
2, 20015, Note_on_c, 0, 61, 0
2, 20016, Note_on_c, 0, 65, 70
2, 20031, Note_on_c, 0, 65, 0
2, 20032, Note_on_c, 0, 61, 70
2, 20047, Note_on_c, 0, 61, 0
2, 20048, Note_on_c, 0, 58, 70
2, 20063, Note_on_c, 0, 58, 0
2, 20064, Note_on_c, 0, 53, 70
2, 20079, Note_on_c, 0, 53, 0
2, 20080, Note_on_c, 0, 58, 70
2, 20095, Note_on_c, 0, 58, 0
2, 20096, Note_on_c, 0, 61, 70
2, 20111, Note_on_c, 0, 61, 0
2, 20112, Note_on_c, 0, 65, 70
2, 20127, Note_on_c, 0, 65, 0
2, 20128, Note_on_c, 0, 61, 70
2, 20143, Note_on_c, 0, 61, 0
2, 20144, Note_on_c, 0, 58, 70
2, 20159, Note_on_c, 0, 58, 0
2, 20160, Control_c, 0, 64, 0
2, 20160, Control_c, 0, 64, 127
2, 20160, Note_on_c, 0, 54, 70
2, 20175, Note_on_c, 0, 54, 0
2, 20176, Note_on_c, 0, 58, 70
2, 20191, Note_on_c, 0, 58, 0
2, 20192, Note_on_c, 0, 61, 70
2, 20207, Note_on_c, 0, 61, 0
2, 20208, Note_on_c, 0, 66, 70
2, 20223, Note_on_c, 0, 66, 0
2, 20224, Note_on_c, 0, 61, 70
2, 20239, Note_on_c, 0, 61, 0
2, 20240, Note_on_c, 0, 58, 70
2, 20255, Note_on_c, 0, 58, 0
2, 20256, Note_on_c, 0, 54, 70
2, 20271, Note_on_c, 0, 54, 0
2, 20272, Note_on_c, 0, 58, 70
2, 20287, Note_on_c, 0, 58, 0
2, 20288, Note_on_c, 0, 61, 70
2, 20303, Note_on_c, 0, 61, 0
2, 20304, Note_on_c, 0, 66, 70
2, 20319, Note_on_c, 0, 66, 0
2, 20320, Note_on_c, 0, 61, 70
2, 20335, Note_on_c, 0, 61, 0
2, 20336, Note_on_c, 0, 58, 70
2, 20351, Note_on_c, 0, 58, 0
2, 20352, Note_on_c, 0, 54, 70
2, 20367, Note_on_c, 0, 54, 0
2, 20368, Note_on_c, 0, 58, 70
2, 20383, Note_on_c, 0, 58, 0
2, 20384, Note_on_c, 0, 61, 70
2, 20399, Note_on_c, 0, 61, 0
2, 20400, Note_on_c, 0, 66, 70
2, 20415, Note_on_c, 0, 66, 0
2, 20416, Note_on_c, 0, 61, 70
2, 20431, Note_on_c, 0, 61, 0
2, 20432, Control_c, 0, 64, 0
2, 20432, Note_on_c, 0, 58, 70
2, 20447, Note_on_c, 0, 58, 0
2, 20448, Control_c, 0, 64, 127
2, 20448, Note_on_c, 0, 56, 70
2, 20463, Note_on_c, 0, 56, 0
2, 20464, Note_on_c, 0, 60, 70
2, 20479, Note_on_c, 0, 60, 0
2, 20480, Note_on_c, 0, 63, 70
2, 20495, Note_on_c, 0, 63, 0
2, 20496, Note_on_c, 0, 66, 70
2, 20511, Note_on_c, 0, 66, 0
2, 20512, Note_on_c, 0, 63, 70
2, 20527, Note_on_c, 0, 63, 0
2, 20528, Note_on_c, 0, 60, 70
2, 20543, Note_on_c, 0, 60, 0
2, 20544, Note_on_c, 0, 56, 70
2, 20559, Note_on_c, 0, 56, 0
2, 20560, Note_on_c, 0, 60, 70
2, 20575, Note_on_c, 0, 60, 0
2, 20576, Note_on_c, 0, 63, 70
2, 20591, Note_on_c, 0, 63, 0
2, 20592, Note_on_c, 0, 66, 70
2, 20607, Note_on_c, 0, 66, 0
2, 20608, Note_on_c, 0, 63, 70
2, 20623, Note_on_c, 0, 63, 0
2, 20624, Note_on_c, 0, 60, 70
2, 20639, Note_on_c, 0, 60, 0
2, 20640, Note_on_c, 0, 56, 70
2, 20655, Note_on_c, 0, 56, 0
2, 20656, Note_on_c, 0, 60, 70
2, 20671, Note_on_c, 0, 60, 0
2, 20672, Note_on_c, 0, 63, 70
2, 20687, Note_on_c, 0, 63, 0
2, 20688, Note_on_c, 0, 66, 70
2, 20703, Note_on_c, 0, 66, 0
2, 20704, Note_on_c, 0, 63, 70
2, 20719, Note_on_c, 0, 63, 0
2, 20720, Note_on_c, 0, 60, 70
2, 20735, Note_on_c, 0, 60, 0
2, 20736, Control_c, 0, 64, 0
2, 20736, Control_c, 0, 64, 127
2, 20736, Note_on_c, 0, 56, 70
2, 20751, Note_on_c, 0, 56, 0
2, 20752, Note_on_c, 0, 61, 70
2, 20767, Note_on_c, 0, 61, 0
2, 20768, Note_on_c, 0, 65, 70
2, 20783, Note_on_c, 0, 65, 0
2, 20784, Note_on_c, 0, 68, 70
2, 20799, Note_on_c, 0, 68, 0
2, 20800, Note_on_c, 0, 65, 70
2, 20815, Note_on_c, 0, 65, 0
2, 20816, Note_on_c, 0, 61, 70
2, 20831, Note_on_c, 0, 61, 0
2, 20832, Note_on_c, 0, 56, 70
2, 20847, Note_on_c, 0, 56, 0
2, 20848, Note_on_c, 0, 61, 70
2, 20863, Note_on_c, 0, 61, 0
2, 20864, Note_on_c, 0, 65, 70
2, 20879, Note_on_c, 0, 65, 0
2, 20880, Note_on_c, 0, 68, 70
2, 20895, Note_on_c, 0, 68, 0
2, 20896, Note_on_c, 0, 65, 70
2, 20911, Note_on_c, 0, 65, 0
2, 20912, Note_on_c, 0, 61, 70
2, 20927, Note_on_c, 0, 61, 0
2, 20928, Note_on_c, 0, 56, 70
2, 20943, Note_on_c, 0, 56, 0
2, 20944, Note_on_c, 0, 61, 70
2, 20959, Note_on_c, 0, 61, 0
2, 20960, Note_on_c, 0, 65, 70
2, 20975, Note_on_c, 0, 65, 0
2, 20976, Note_on_c, 0, 68, 70
2, 20991, Note_on_c, 0, 68, 0
2, 20992, Note_on_c, 0, 65, 70
2, 21007, Note_on_c, 0, 65, 0
2, 21008, Note_on_c, 0, 61, 70
2, 21023, Note_on_c, 0, 61, 0
2, 21024, Control_c, 0, 64, 0
2, 21024, Control_c, 0, 64, 127
2, 21024, Note_on_c, 0, 58, 70
2, 21039, Note_on_c, 0, 58, 0
2, 21040, Note_on_c, 0, 61, 70
2, 21055, Note_on_c, 0, 61, 0
2, 21056, Note_on_c, 0, 64, 70
2, 21071, Note_on_c, 0, 64, 0
2, 21072, Note_on_c, 0, 67, 70
2, 21087, Note_on_c, 0, 67, 0
2, 21088, Note_on_c, 0, 64, 70
2, 21103, Note_on_c, 0, 64, 0
2, 21104, Note_on_c, 0, 61, 71
2, 21119, Note_on_c, 0, 61, 0
2, 21120, Note_on_c, 0, 58, 71
2, 21135, Note_on_c, 0, 58, 0
2, 21136, Note_on_c, 0, 61, 71
2, 21151, Note_on_c, 0, 61, 0
2, 21152, Note_on_c, 0, 64, 71
2, 21167, Note_on_c, 0, 64, 0
2, 21168, Note_on_c, 0, 67, 71
2, 21183, Note_on_c, 0, 67, 0
2, 21184, Note_on_c, 0, 64, 72
2, 21199, Note_on_c, 0, 64, 0
2, 21200, Note_on_c, 0, 61, 72
2, 21215, Note_on_c, 0, 61, 0
2, 21216, Note_on_c, 0, 58, 72
2, 21231, Note_on_c, 0, 58, 0
2, 21232, Note_on_c, 0, 61, 72
2, 21247, Note_on_c, 0, 61, 0
2, 21248, Note_on_c, 0, 64, 72
2, 21263, Note_on_c, 0, 64, 0
2, 21264, Note_on_c, 0, 67, 73
2, 21279, Note_on_c, 0, 67, 0
2, 21280, Note_on_c, 0, 64, 73
2, 21295, Note_on_c, 0, 64, 0
2, 21296, Note_on_c, 0, 61, 73
2, 21311, Note_on_c, 0, 61, 0
2, 21312, Control_c, 0, 64, 0
2, 21312, Control_c, 0, 64, 127
2, 21312, Note_on_c, 0, 56, 80
2, 21327, Note_on_c, 0, 56, 0
2, 21328, Note_on_c, 0, 61, 80
2, 21343, Note_on_c, 0, 61, 0
2, 21344, Note_on_c, 0, 65, 80
2, 21359, Note_on_c, 0, 65, 0
2, 21360, Note_on_c, 0, 68, 80
2, 21375, Note_on_c, 0, 68, 0
2, 21376, Note_on_c, 0, 65, 80
2, 21391, Note_on_c, 0, 65, 0
2, 21392, Note_on_c, 0, 61, 80
2, 21407, Note_on_c, 0, 61, 0
2, 21408, Note_on_c, 0, 56, 80
2, 21423, Note_on_c, 0, 56, 0
2, 21424, Note_on_c, 0, 61, 80
2, 21439, Note_on_c, 0, 61, 0
2, 21440, Note_on_c, 0, 65, 80
2, 21455, Note_on_c, 0, 65, 0
2, 21456, Note_on_c, 0, 68, 80
2, 21471, Note_on_c, 0, 68, 0
2, 21472, Note_on_c, 0, 65, 80
2, 21487, Note_on_c, 0, 65, 0
2, 21488, Note_on_c, 0, 61, 80
2, 21503, Note_on_c, 0, 61, 0
2, 21504, Control_c, 0, 64, 0
2, 21504, Control_c, 0, 64, 127
2, 21504, Note_on_c, 0, 66, 80
2, 21519, Note_on_c, 0, 66, 0
2, 21520, Note_on_c, 0, 63, 80
2, 21535, Note_on_c, 0, 63, 0
2, 21536, Note_on_c, 0, 60, 80
2, 21551, Note_on_c, 0, 60, 0
2, 21552, Note_on_c, 0, 66, 80
2, 21567, Note_on_c, 0, 66, 0
2, 21568, Note_on_c, 0, 63, 80
2, 21583, Note_on_c, 0, 63, 0
2, 21584, Note_on_c, 0, 60, 80
2, 21599, Note_on_c, 0, 60, 0
2, 21600, Control_c, 0, 64, 0
2, 21600, Control_c, 0, 64, 127
2, 21600, Note_on_c, 0, 61, 80
2, 21689, Note_on_c, 0, 61, 0
2, 21696, Note_on_c, 0, 68, 74
2, 21745, Note_on_c, 0, 68, 0
2, 21750, Note_on_c, 0, 70, 74
2, 21756, Note_on_c, 0, 70, 0
2, 21756, Note_on_c, 0, 68, 74
2, 21762, Note_on_c, 0, 68, 0
2, 21762, Note_on_c, 0, 67, 74
2, 21768, Note_on_c, 0, 67, 0
2, 21768, Note_on_c, 0, 68, 70
2, 21791, Note_on_c, 0, 68, 0
2, 21792, Note_on_c, 0, 77, 70
2, 21859, Note_on_c, 0, 77, 0
2, 21864, Control_c, 0, 64, 0
2, 21864, Note_on_c, 0, 73, 70
2, 21887, Note_on_c, 0, 73, 0
2, 21888, Control_c, 0, 64, 127
2, 21888, Note_on_c, 0, 72, 70
2, 21955, Note_on_c, 0, 72, 0
2, 21960, Note_on_c, 0, 75, 70
2, 21983, Note_on_c, 0, 75, 0
2, 21984, Note_on_c, 0, 78, 86
2, 22125, Note_on_c, 0, 78, 0
2, 22128, Control_c, 0, 64, 0
2, 22128, Note_on_c, 0, 77, 70
2, 22140, Note_on_c, 0, 77, 0
2, 22140, Note_on_c, 0, 75, 70
2, 22152, Note_on_c, 0, 75, 0
2, 22152, Note_on_c, 0, 73, 70
2, 22164, Note_on_c, 0, 73, 0
2, 22164, Note_on_c, 0, 72, 70
2, 22176, Note_on_c, 0, 72, 0
2, 22176, Control_c, 0, 64, 127
2, 22176, Note_on_c, 0, 73, 70
2, 22221, Note_on_c, 0, 73, 0
2, 22224, Note_on_c, 0, 75, 70
2, 22230, Note_on_c, 0, 75, 0
2, 22230, Note_on_c, 0, 73, 70
2, 22236, Note_on_c, 0, 73, 0
2, 22236, Note_on_c, 0, 72, 70
2, 22242, Note_on_c, 0, 72, 0
2, 22242, Note_on_c, 0, 73, 70
2, 22258, Note_on_c, 0, 73, 0
2, 22260, Note_on_c, 0, 77, 70
2, 22272, Note_on_c, 0, 77, 0
2, 22272, Note_on_c, 0, 80, 86
2, 22440, Note_on_c, 0, 80, 0
2, 22440, Control_c, 0, 64, 0
2, 22440, Note_on_c, 0, 78, 71
2, 22448, Note_on_c, 0, 78, 0
2, 22448, Note_on_c, 0, 77, 71
2, 22456, Note_on_c, 0, 77, 0
2, 22456, Note_on_c, 0, 75, 71
2, 22464, Note_on_c, 0, 75, 0
2, 22464, Control_c, 0, 64, 127
2, 22464, Note_on_c, 0, 74, 71
2, 22531, Note_on_c, 0, 74, 0
2, 22536, Note_on_c, 0, 77, 72
2, 22559, Note_on_c, 0, 77, 0
2, 22560, Note_on_c, 0, 80, 88
2, 22704, Note_on_c, 0, 80, 0
2, 22704, Control_c, 0, 64, 0
2, 22704, Note_on_c, 0, 78, 74
2, 22716, Note_on_c, 0, 78, 0
2, 22716, Note_on_c, 0, 77, 74
2, 22728, Note_on_c, 0, 77, 0
2, 22728, Note_on_c, 0, 75, 74
2, 22740, Note_on_c, 0, 75, 0
2, 22740, Note_on_c, 0, 74, 74
2, 22752, Note_on_c, 0, 74, 0
2, 22752, Control_c, 0, 64, 127
2, 22752, Note_on_c, 0, 75, 74
2, 22779, Note_on_c, 0, 75, 0
2, 22782, Note_on_c, 0, 77, 74
2, 22788, Note_on_c, 0, 77, 0
2, 22788, Note_on_c, 0, 75, 74
2, 22794, Note_on_c, 0, 75, 0
2, 22794, Note_on_c, 0, 74, 74
2, 22800, Note_on_c, 0, 74, 0
2, 22800, Note_on_c, 0, 75, 75
2, 22834, Note_on_c, 0, 75, 0
2, 22836, Note_on_c, 0, 78, 75
2, 22848, Note_on_c, 0, 78, 0
2, 22848, Note_on_c, 0, 82, 91
2, 23011, Note_on_c, 0, 82, 0
2, 23016, Control_c, 0, 64, 0
2, 23016, Note_on_c, 0, 80, 77
2, 23024, Note_on_c, 0, 80, 0
2, 23024, Note_on_c, 0, 78, 77
2, 23032, Note_on_c, 0, 78, 0
2, 23032, Note_on_c, 0, 77, 77
2, 23040, Note_on_c, 0, 77, 0
2, 23040, Control_c, 0, 64, 127
2, 23040, Note_on_c, 0, 76, 77
2, 23107, Note_on_c, 0, 76, 0
2, 23112, Note_on_c, 0, 79, 78
2, 23124, Note_on_c, 0, 79, 0
2, 23124, Note_on_c, 0, 82, 78
2, 23136, Note_on_c, 0, 82, 0
2, 23136, Note_on_c, 0, 85, 94
2, 23266, Note_on_c, 0, 85, 0
2, 23268, Control_c, 0, 64, 0
2, 23268, Note_on_c, 0, 76, 80
2, 23292, Note_on_c, 0, 77, 80
2, 23298, Note_on_c, 0, 77, 0
2, 23298, Note_on_c, 0, 76, 80
2, 23304, Note_on_c, 0, 76, 0
2, 23304, Note_on_c, 0, 74, 80
2, 23310, Note_on_c, 0, 74, 0
2, 23310, Note_on_c, 0, 76, 80
2, 23316, Note_on_c, 0, 76, 0
2, 23316, Note_on_c, 0, 76, 80
2, 23326, Note_on_c, 0, 76, 0
2, 23328, Control_c, 0, 64, 127
2, 23328, Note_on_c, 0, 77, 80
2, 23417, Note_on_c, 0, 77, 0
2, 23424, Note_on_c, 0, 76, 80
2, 23469, Note_on_c, 0, 76, 0
2, 23472, Note_on_c, 0, 75, 80
2, 23517, Note_on_c, 0, 75, 0
2, 23520, Control_c, 0, 64, 0
2, 23520, Control_c, 0, 64, 127
2, 23520, Note_on_c, 0, 73, 80
2, 23565, Note_on_c, 0, 73, 0
2, 23568, Note_on_c, 0, 72, 80
2, 23580, Note_on_c, 0, 72, 0
2, 23580, Note_on_c, 0, 70, 80
2, 23592, Note_on_c, 0, 70, 0
2, 23592, Note_on_c, 0, 69, 80
2, 23604, Note_on_c, 0, 69, 0
2, 23604, Control_c, 0, 64, 0
2, 23604, Note_on_c, 0, 70, 80
2, 23616, Note_on_c, 0, 70, 0
2, 23616, Control_c, 0, 64, 127
2, 23616, Note_on_c, 0, 69, 80
2, 23661, Note_on_c, 0, 69, 0
2, 23664, Note_on_c, 0, 77, 96
2, 23712, Note_on_c, 0, 77, 0
2, 23712, Note_on_c, 0, 76, 80
2, 23757, Note_on_c, 0, 76, 0
2, 23760, Control_c, 0, 64, 0
2, 23760, Note_on_c, 0, 75, 80
2, 23805, Note_on_c, 0, 75, 0
2, 23808, Control_c, 0, 64, 127
2, 23808, Note_on_c, 0, 73, 80
2, 23853, Note_on_c, 0, 73, 0
2, 23856, Note_on_c, 0, 72, 80
2, 23868, Note_on_c, 0, 72, 0
2, 23868, Note_on_c, 0, 70, 80
2, 23880, Note_on_c, 0, 70, 0
2, 23880, Note_on_c, 0, 69, 80
2, 23892, Note_on_c, 0, 69, 0
2, 23892, Control_c, 0, 64, 0
2, 23892, Note_on_c, 0, 70, 80
2, 23904, Note_on_c, 0, 70, 0
2, 23904, Control_c, 0, 64, 127
2, 23904, Note_on_c, 0, 69, 80
2, 23949, Note_on_c, 0, 69, 0
2, 23952, Note_on_c, 0, 77, 96
2, 24000, Note_on_c, 0, 77, 0
2, 24000, Note_on_c, 0, 76, 80
2, 24045, Note_on_c, 0, 76, 0
2, 24048, Control_c, 0, 64, 0
2, 24048, Note_on_c, 0, 75, 76
2, 24093, Note_on_c, 0, 75, 0
2, 24096, Control_c, 0, 64, 127
2, 24096, Note_on_c, 0, 73, 72
2, 24141, Note_on_c, 0, 73, 0
2, 24144, Note_on_c, 0, 72, 68
2, 24156, Note_on_c, 0, 72, 0
2, 24156, Note_on_c, 0, 70, 67
2, 24168, Note_on_c, 0, 70, 0
2, 24168, Note_on_c, 0, 69, 66
2, 24180, Note_on_c, 0, 69, 0
2, 24180, Control_c, 0, 64, 0
2, 24180, Note_on_c, 0, 70, 65
2, 24192, Note_on_c, 0, 70, 0
2, 24192, Note_on_c, 0, 69, 64
2, 24207, Note_on_c, 0, 69, 0
2, 24208, Control_c, 0, 64, 127
2, 24208, Note_on_c, 0, 72, 64
2, 24223, Note_on_c, 0, 72, 0
2, 24224, Note_on_c, 0, 76, 64
2, 24239, Note_on_c, 0, 76, 0
2, 24240, Note_on_c, 0, 77, 64
2, 24247, Note_on_c, 0, 77, 0
2, 24256, Note_on_c, 0, 72, 64
2, 24272, Note_on_c, 0, 72, 0
2, 24272, Note_on_c, 0, 77, 64
2, 24287, Note_on_c, 0, 77, 0
2, 24288, Note_on_c, 0, 81, 64
2, 24295, Note_on_c, 0, 81, 0
2, 24304, Note_on_c, 0, 77, 64
2, 24320, Note_on_c, 0, 77, 0
2, 24320, Note_on_c, 0, 81, 64
2, 24335, Note_on_c, 0, 81, 0
2, 24336, Note_on_c, 0, 84, 64
2, 24343, Note_on_c, 0, 84, 0
2, 24352, Note_on_c, 0, 81, 64
2, 24368, Note_on_c, 0, 81, 0
2, 24368, Note_on_c, 0, 84, 64
2, 24383, Note_on_c, 0, 84, 0
2, 24384, Note_on_c, 0, 89, 58
2, 24404, Note_on_c, 0, 89, 0
2, 24672, Control_c, 0, 64, 0
2, 24672, Note_on_c, 0, 53, 64
2, 24692, Note_on_c, 0, 53, 0
2, 24720, Note_on_c, 0, 55, 65
2, 24726, Note_on_c, 0, 55, 0
2, 24726, Note_on_c, 0, 53, 65
2, 24732, Note_on_c, 0, 53, 0
2, 24732, Note_on_c, 0, 52, 65
2, 24744, Note_on_c, 0, 52, 0
2, 24744, Note_on_c, 0, 53, 65
2, 24756, Note_on_c, 0, 53, 0
2, 24756, Note_on_c, 0, 55, 66
2, 24768, Note_on_c, 0, 55, 0
2, 24768, Note_on_c, 0, 57, 66
2, 24788, Note_on_c, 0, 57, 0
2, 24816, Note_on_c, 0, 58, 67
2, 24822, Note_on_c, 0, 58, 0
2, 24822, Note_on_c, 0, 57, 67
2, 24828, Note_on_c, 0, 57, 0
2, 24828, Note_on_c, 0, 55, 67
2, 24840, Note_on_c, 0, 55, 0
2, 24840, Note_on_c, 0, 57, 68
2, 24852, Note_on_c, 0, 57, 0
2, 24852, Note_on_c, 0, 58, 68
2, 24864, Note_on_c, 0, 58, 0
2, 24864, Note_on_c, 0, 60, 68
2, 24884, Note_on_c, 0, 60, 0
2, 24912, Note_on_c, 0, 62, 69
2, 24918, Note_on_c, 0, 62, 0
2, 24918, Note_on_c, 0, 60, 69
2, 24924, Note_on_c, 0, 60, 0
2, 24924, Note_on_c, 0, 59, 70
2, 24936, Note_on_c, 0, 59, 0
2, 24936, Note_on_c, 0, 60, 70
2, 24948, Note_on_c, 0, 60, 0
2, 24948, Note_on_c, 0, 62, 70
2, 24960, Note_on_c, 0, 62, 0
2, 24960, Note_on_c, 0, 63, 70
2, 24980, Note_on_c, 0, 63, 0
2, 25008, Note_on_c, 0, 65, 72
2, 25014, Note_on_c, 0, 65, 0
2, 25014, Note_on_c, 0, 63, 72
2, 25020, Note_on_c, 0, 63, 0
2, 25020, Note_on_c, 0, 62, 72
2, 25032, Note_on_c, 0, 62, 0
2, 25032, Note_on_c, 0, 63, 72
2, 25044, Note_on_c, 0, 63, 0
2, 25044, Note_on_c, 0, 65, 72
2, 25056, Note_on_c, 0, 65, 0
2, 25056, Control_c, 0, 64, 127
2, 25056, Note_on_c, 0, 67, 73
2, 25175, Note_on_c, 0, 67, 0
2, 25176, Note_on_c, 0, 65, 76
2, 25199, Note_on_c, 0, 65, 0
2, 25200, Note_on_c, 0, 69, 76
2, 25223, Note_on_c, 0, 69, 0
2, 25224, Note_on_c, 0, 72, 77
2, 25247, Note_on_c, 0, 72, 0
2, 25248, Note_on_c, 0, 75, 77
2, 25271, Note_on_c, 0, 75, 0
2, 25272, Note_on_c, 0, 77, 78
2, 25295, Note_on_c, 0, 77, 0
2, 25296, Note_on_c, 0, 81, 78
2, 25319, Note_on_c, 0, 81, 0
2, 25320, Note_on_c, 0, 84, 79
2, 25343, Note_on_c, 0, 84, 0
2, 25344, Note_on_c, 0, 77, 80
2, 25353, Note_on_c, 0, 81, 80
2, 25362, Note_on_c, 0, 84, 80
2, 25371, Note_on_c, 0, 87, 80
2, 25485, Note_on_c, 0, 87, 0
2, 25485, Note_on_c, 0, 84, 0
2, 25485, Note_on_c, 0, 81, 0
2, 25485, Note_on_c, 0, 77, 0
2, 25488, Control_c, 0, 64, 0
2, 25488, Control_c, 0, 64, 0
2, 25488, Note_on_c, 0, 86, 80
2, 25533, Note_on_c, 0, 86, 0
2, 25536, Note_on_c, 0, 84, 76
2, 25581, Note_on_c, 0, 84, 0
2, 25584, Note_on_c, 0, 82, 72
2, 25629, Note_on_c, 0, 82, 0
2, 25632, Note_on_c, 0, 81, 68
2, 25677, Note_on_c, 0, 81, 0
2, 25680, Note_on_c, 0, 79, 64
2, 25725, Note_on_c, 0, 79, 0
2, 25728, Note_on_c, 0, 78, 64
2, 25773, Note_on_c, 0, 78, 0
2, 25776, Note_on_c, 0, 77, 64
2, 25821, Note_on_c, 0, 77, 0
2, 25824, Note_on_c, 0, 76, 64
2, 25869, Note_on_c, 0, 76, 0
2, 25872, Note_on_c, 0, 75, 64
2, 25917, Note_on_c, 0, 75, 0
2, 25920, Note_on_c, 0, 74, 64
2, 26009, Note_on_c, 0, 74, 0
2, 26016, Note_on_c, 0, 75, 64
2, 26022, Note_on_c, 0, 75, 0
2, 26022, Note_on_c, 0, 74, 64
2, 26028, Note_on_c, 0, 74, 0
2, 26028, Note_on_c, 0, 72, 64
2, 26034, Note_on_c, 0, 72, 0
2, 26034, Note_on_c, 0, 74, 64
2, 26088, Note_on_c, 0, 74, 0
2, 26088, Note_on_c, 0, 75, 64
2, 26111, Note_on_c, 0, 75, 0
2, 26112, Note_on_c, 0, 72, 64
2, 26184, Note_on_c, 0, 72, 0
2, 26184, Note_on_c, 0, 69, 64
2, 26207, Note_on_c, 0, 69, 0
2, 26208, Note_on_c, 0, 70, 64
2, 26235, Note_on_c, 0, 70, 0
2, 26238, Note_on_c, 0, 72, 64
2, 26244, Note_on_c, 0, 72, 0
2, 26244, Note_on_c, 0, 70, 64
2, 26250, Note_on_c, 0, 70, 0
2, 26250, Note_on_c, 0, 69, 64
2, 26256, Note_on_c, 0, 69, 0
2, 26256, Note_on_c, 0, 70, 64
2, 26290, Note_on_c, 0, 70, 0
2, 26292, Note_on_c, 0, 74, 64
2, 26304, Note_on_c, 0, 74, 0
2, 26304, Note_on_c, 0, 77, 64
2, 26324, Note_on_c, 0, 77, 0
2, 26496, Note_on_c, 0, 65, 64
2, 26512, Note_on_c, 0, 65, 0
2, 26512, Note_on_c, 0, 69, 64
2, 26527, Note_on_c, 0, 69, 0
2, 26528, Note_on_c, 0, 70, 64
2, 26543, Note_on_c, 0, 70, 0
2, 26544, Note_on_c, 0, 74, 64
2, 26559, Note_on_c, 0, 74, 0
2, 26560, Note_on_c, 0, 69, 64
2, 26575, Note_on_c, 0, 69, 0
2, 26576, Note_on_c, 0, 70, 65
2, 26591, Note_on_c, 0, 70, 0
2, 26592, Note_on_c, 0, 67, 65
2, 26608, Note_on_c, 0, 67, 0
2, 26608, Note_on_c, 0, 71, 65
2, 26623, Note_on_c, 0, 71, 0
2, 26624, Note_on_c, 0, 72, 65
2, 26639, Note_on_c, 0, 72, 0
2, 26640, Note_on_c, 0, 75, 66
2, 26655, Note_on_c, 0, 75, 0
2, 26656, Note_on_c, 0, 71, 66
2, 26671, Note_on_c, 0, 71, 0
2, 26672, Note_on_c, 0, 72, 66
2, 26687, Note_on_c, 0, 72, 0
2, 26688, Note_on_c, 0, 67, 66
2, 26703, Note_on_c, 0, 67, 0
2, 26704, Note_on_c, 0, 78, 67
2, 26720, Note_on_c, 0, 78, 0
2, 26720, Note_on_c, 0, 81, 67
2, 26735, Note_on_c, 0, 81, 0
2, 26736, Note_on_c, 0, 79, 67
2, 26751, Note_on_c, 0, 79, 0
2, 26752, Note_on_c, 0, 75, 67
2, 26767, Note_on_c, 0, 75, 0
2, 26768, Note_on_c, 0, 72, 68
2, 26783, Note_on_c, 0, 72, 0
2, 26784, Note_on_c, 0, 70, 70
2, 26895, Note_on_c, 0, 70, 0
2, 26896, Note_on_c, 0, 69, 68
2, 26911, Note_on_c, 0, 69, 0
2, 26912, Note_on_c, 0, 67, 67
2, 26927, Note_on_c, 0, 67, 0
2, 26928, Note_on_c, 0, 65, 66
2, 26943, Note_on_c, 0, 65, 0
2, 26944, Note_on_c, 0, 66, 64
2, 26959, Note_on_c, 0, 66, 0
2, 26960, Note_on_c, 0, 67, 64
2, 26975, Note_on_c, 0, 67, 0
2, 26976, Note_on_c, 0, 68, 64
2, 26991, Note_on_c, 0, 68, 0
2, 26992, Note_on_c, 0, 69, 64
2, 27007, Note_on_c, 0, 69, 0
2, 27008, Note_on_c, 0, 70, 64
2, 27023, Note_on_c, 0, 70, 0
2, 27024, Note_on_c, 0, 71, 64
2, 27039, Note_on_c, 0, 71, 0
2, 27040, Note_on_c, 0, 72, 64
2, 27055, Note_on_c, 0, 72, 0
2, 27056, Note_on_c, 0, 73, 64
2, 27071, Note_on_c, 0, 73, 0
2, 27072, Note_on_c, 0, 74, 64
2, 27143, Note_on_c, 0, 74, 0
2, 27150, Note_on_c, 0, 75, 64
2, 27156, Note_on_c, 0, 75, 0
2, 27156, Note_on_c, 0, 74, 64
2, 27162, Note_on_c, 0, 74, 0
2, 27162, Note_on_c, 0, 72, 64
2, 27168, Note_on_c, 0, 72, 0
2, 27168, Note_on_c, 0, 74, 64
2, 27183, Note_on_c, 0, 74, 0
2, 27184, Note_on_c, 0, 75, 64
2, 27199, Note_on_c, 0, 75, 0
2, 27200, Note_on_c, 0, 76, 64
2, 27215, Note_on_c, 0, 76, 0
2, 27216, Note_on_c, 0, 77, 64
2, 27231, Note_on_c, 0, 77, 0
2, 27232, Note_on_c, 0, 74, 64
2, 27247, Note_on_c, 0, 74, 0
2, 27248, Note_on_c, 0, 70, 64
2, 27263, Note_on_c, 0, 70, 0
2, 27264, Note_on_c, 0, 71, 64
2, 27279, Note_on_c, 0, 71, 0
2, 27280, Note_on_c, 0, 72, 64
2, 27295, Note_on_c, 0, 72, 0
2, 27296, Note_on_c, 0, 74, 64
2, 27311, Note_on_c, 0, 74, 0
2, 27312, Note_on_c, 0, 75, 64
2, 27327, Note_on_c, 0, 75, 0
2, 27328, Note_on_c, 0, 72, 64
2, 27343, Note_on_c, 0, 72, 0
2, 27344, Note_on_c, 0, 69, 64
2, 27351, Note_on_c, 0, 69, 0
2, 27360, Note_on_c, 0, 69, 64
2, 27375, Note_on_c, 0, 69, 0
2, 27376, Note_on_c, 0, 70, 64
2, 27391, Note_on_c, 0, 70, 0
2, 27392, Note_on_c, 0, 65, 65
2, 27407, Note_on_c, 0, 65, 0
2, 27408, Note_on_c, 0, 67, 66
2, 27423, Note_on_c, 0, 67, 0
2, 27424, Note_on_c, 0, 69, 66
2, 27439, Note_on_c, 0, 69, 0
2, 27440, Note_on_c, 0, 70, 67
2, 27455, Note_on_c, 0, 70, 0
2, 27456, Note_on_c, 0, 72, 68
2, 27471, Note_on_c, 0, 72, 0
2, 27472, Note_on_c, 0, 74, 68
2, 27487, Note_on_c, 0, 74, 0
2, 27488, Note_on_c, 0, 75, 69
2, 27503, Note_on_c, 0, 75, 0
2, 27504, Note_on_c, 0, 77, 70
2, 27519, Note_on_c, 0, 77, 0
2, 27520, Note_on_c, 0, 79, 70
2, 27535, Note_on_c, 0, 79, 0
2, 27536, Note_on_c, 0, 81, 71
2, 27551, Note_on_c, 0, 81, 0
2, 27552, Note_on_c, 0, 82, 88
2, 27559, Note_on_c, 0, 82, 0
2, 27568, Note_on_c, 0, 82, 72
2, 27575, Note_on_c, 0, 82, 0
2, 27584, Note_on_c, 0, 82, 73
2, 27591, Note_on_c, 0, 82, 0
2, 27600, Note_on_c, 0, 82, 74
2, 27607, Note_on_c, 0, 82, 0
2, 27616, Note_on_c, 0, 82, 74
2, 27623, Note_on_c, 0, 82, 0
2, 27632, Note_on_c, 0, 82, 75
2, 27639, Note_on_c, 0, 82, 0
2, 27648, Note_on_c, 0, 76, 76
2, 27663, Note_on_c, 0, 76, 0
2, 27664, Note_on_c, 0, 82, 76
2, 27679, Note_on_c, 0, 82, 0
2, 27680, Note_on_c, 0, 81, 77
2, 27695, Note_on_c, 0, 81, 0
2, 27696, Note_on_c, 0, 79, 78
2, 27711, Note_on_c, 0, 79, 0
2, 27712, Note_on_c, 0, 86, 78
2, 27727, Note_on_c, 0, 86, 0
2, 27728, Note_on_c, 0, 84, 79
2, 27743, Note_on_c, 0, 84, 0
2, 27744, Note_on_c, 0, 82, 80
2, 27759, Note_on_c, 0, 82, 0
2, 27760, Note_on_c, 0, 81, 79
2, 27775, Note_on_c, 0, 81, 0
2, 27776, Note_on_c, 0, 79, 78
2, 27791, Note_on_c, 0, 79, 0
2, 27792, Note_on_c, 0, 77, 78
2, 27807, Note_on_c, 0, 77, 0
2, 27808, Note_on_c, 0, 76, 77
2, 27823, Note_on_c, 0, 76, 0
2, 27824, Note_on_c, 0, 74, 76
2, 27839, Note_on_c, 0, 74, 0
2, 27840, Note_on_c, 0, 72, 76
2, 27855, Note_on_c, 0, 72, 0
2, 27856, Note_on_c, 0, 70, 75
2, 27871, Note_on_c, 0, 70, 0
2, 27872, Note_on_c, 0, 69, 74
2, 27887, Note_on_c, 0, 69, 0
2, 27888, Note_on_c, 0, 67, 74
2, 27903, Note_on_c, 0, 67, 0
2, 27904, Note_on_c, 0, 65, 73
2, 27919, Note_on_c, 0, 65, 0
2, 27920, Note_on_c, 0, 64, 72
2, 27935, Note_on_c, 0, 64, 0
2, 27936, Note_on_c, 0, 67, 64
2, 28032, Note_on_c, 0, 67, 0
2, 28032, Note_on_c, 0, 65, 64
2, 28121, Note_on_c, 0, 65, 0
2, 28224, Note_on_c, 0, 57, 75
2, 28230, Note_on_c, 0, 57, 0
2, 28230, Note_on_c, 0, 60, 75
2, 28236, Note_on_c, 0, 60, 0
2, 28236, Note_on_c, 0, 65, 91
2, 28284, Note_on_c, 0, 65, 0
2, 28284, Note_on_c, 0, 67, 75
2, 28296, Note_on_c, 0, 67, 0
2, 28296, Note_on_c, 0, 65, 75
2, 28308, Note_on_c, 0, 65, 0
2, 28308, Note_on_c, 0, 64, 75
2, 28320, Note_on_c, 0, 64, 0
2, 28320, Note_on_c, 0, 65, 75
2, 28343, Note_on_c, 0, 65, 0
2, 28344, Note_on_c, 0, 65, 75
2, 28367, Note_on_c, 0, 65, 0
2, 28368, Note_on_c, 0, 77, 75
2, 28392, Note_on_c, 0, 77, 0
2, 28392, Note_on_c, 0, 65, 75
2, 28415, Note_on_c, 0, 65, 0
2, 28416, Note_on_c, 0, 77, 75
2, 28440, Note_on_c, 0, 77, 0
2, 28440, Note_on_c, 0, 67, 75
2, 28463, Note_on_c, 0, 67, 0
2, 28464, Note_on_c, 0, 77, 75
2, 28488, Note_on_c, 0, 77, 0
2, 28488, Note_on_c, 0, 69, 75
2, 28511, Note_on_c, 0, 69, 0
2, 28512, Note_on_c, 0, 77, 75
2, 28524, Note_on_c, 0, 77, 0
2, 28524, Note_on_c, 0, 70, 91
2, 28572, Note_on_c, 0, 70, 0
2, 28572, Note_on_c, 0, 72, 75
2, 28584, Note_on_c, 0, 72, 0
2, 28584, Note_on_c, 0, 70, 75
2, 28596, Note_on_c, 0, 70, 0
2, 28596, Note_on_c, 0, 69, 75
2, 28608, Note_on_c, 0, 69, 0
2, 28608, Note_on_c, 0, 70, 75
2, 28620, Note_on_c, 0, 70, 0
2, 28620, Note_on_c, 0, 72, 75
2, 28632, Note_on_c, 0, 72, 0
2, 28632, Note_on_c, 0, 74, 75
2, 28644, Note_on_c, 0, 74, 0
2, 28644, Note_on_c, 0, 75, 75
2, 28656, Note_on_c, 0, 75, 0
2, 28656, Note_on_c, 0, 77, 75
2, 28668, Note_on_c, 0, 77, 0
2, 28668, Note_on_c, 0, 79, 75
2, 28680, Note_on_c, 0, 79, 0
2, 28680, Note_on_c, 0, 81, 75
2, 28692, Note_on_c, 0, 81, 0
2, 28692, Note_on_c, 0, 82, 75
2, 28704, Note_on_c, 0, 82, 0
2, 28704, Note_on_c, 0, 84, 75
2, 28727, Note_on_c, 0, 84, 0
2, 28728, Note_on_c, 0, 82, 75
2, 28751, Note_on_c, 0, 82, 0
2, 28752, Note_on_c, 0, 81, 75
2, 28775, Note_on_c, 0, 81, 0
2, 28776, Note_on_c, 0, 79, 75
2, 28799, Note_on_c, 0, 79, 0
2, 28800, Note_on_c, 0, 77, 75
2, 28845, Note_on_c, 0, 77, 0
2, 28848, Note_on_c, 0, 76, 75
2, 28893, Note_on_c, 0, 76, 0
2, 28896, Note_on_c, 0, 75, 75
2, 28896, Note_on_c, 0, 72, 75
2, 29029, Note_on_c, 0, 75, 0
2, 29029, Note_on_c, 0, 72, 0
2, 29040, Note_on_c, 0, 74, 75
2, 29040, Note_on_c, 0, 70, 75
2, 29133, Note_on_c, 0, 74, 0
2, 29133, Note_on_c, 0, 70, 0
2, 29136, Note_on_c, 0, 71, 75
2, 29136, Note_on_c, 0, 68, 75
2, 29181, Note_on_c, 0, 71, 0
2, 29181, Note_on_c, 0, 68, 0
2, 29184, Note_on_c, 0, 72, 75
2, 29184, Note_on_c, 0, 69, 75
2, 29231, Note_on_c, 0, 72, 0
2, 29231, Note_on_c, 0, 69, 0
2, 29376, Note_on_c, 0, 58, 96
2, 29520, Note_on_c, 0, 58, 0
2, 29520, Note_on_c, 0, 60, 64
2, 29526, Note_on_c, 0, 60, 0
2, 29526, Note_on_c, 0, 58, 64
2, 29532, Note_on_c, 0, 58, 0
2, 29532, Note_on_c, 0, 57, 64
2, 29538, Note_on_c, 0, 57, 0
2, 29538, Note_on_c, 0, 58, 64
2, 29565, Note_on_c, 0, 58, 0
2, 29568, Note_on_c, 0, 65, 64
2, 29635, Note_on_c, 0, 65, 0
2, 29640, Note_on_c, 0, 61, 64
2, 29663, Note_on_c, 0, 61, 0
2, 29664, Note_on_c, 0, 61, 80
2, 29760, Note_on_c, 0, 61, 0
2, 29760, Note_on_c, 0, 60, 64
2, 29849, Note_on_c, 0, 60, 0
2, 29928, Note_on_c, 0, 63, 64
2, 29951, Note_on_c, 0, 63, 0
2, 29952, Note_on_c, 0, 63, 80
2, 30060, Note_on_c, 0, 63, 0
2, 30060, Note_on_c, 0, 62, 67
2, 30072, Note_on_c, 0, 62, 0
2, 30072, Note_on_c, 0, 65, 67
2, 30084, Note_on_c, 0, 65, 0
2, 30084, Note_on_c, 0, 68, 67
2, 30096, Note_on_c, 0, 68, 0
2, 30096, Note_on_c, 0, 71, 68
2, 30108, Note_on_c, 0, 71, 0
2, 30108, Note_on_c, 0, 74, 68
2, 30120, Note_on_c, 0, 74, 0
2, 30120, Note_on_c, 0, 77, 68
2, 30132, Note_on_c, 0, 77, 0
2, 30132, Note_on_c, 0, 80, 69
2, 30144, Note_on_c, 0, 80, 0
2, 30144, Note_on_c, 0, 83, 69
2, 30189, Note_on_c, 0, 83, 0
2, 30216, Note_on_c, 0, 62, 71
2, 30239, Note_on_c, 0, 62, 0
2, 30240, Note_on_c, 0, 65, 88
2, 30336, Note_on_c, 0, 65, 0
2, 30336, Note_on_c, 0, 63, 74
2, 30425, Note_on_c, 0, 63, 0
2, 30456, Note_on_c, 0, 70, 78
2, 30479, Note_on_c, 0, 70, 0
2, 30480, Note_on_c, 0, 72, 78
2, 30486, Note_on_c, 0, 72, 0
2, 30486, Note_on_c, 0, 70, 78
2, 30492, Note_on_c, 0, 70, 0
2, 30492, Note_on_c, 0, 69, 78
2, 30498, Note_on_c, 0, 69, 0
2, 30498, Note_on_c, 0, 70, 78
2, 30525, Note_on_c, 0, 70, 0
2, 30528, Note_on_c, 0, 85, 96
2, 30669, Note_on_c, 0, 85, 0
2, 30672, Note_on_c, 0, 84, 80
2, 30695, Note_on_c, 0, 84, 0
2, 30696, Note_on_c, 0, 82, 80
2, 30719, Note_on_c, 0, 82, 0
2, 30720, Note_on_c, 0, 80, 80
2, 30743, Note_on_c, 0, 80, 0
2, 30744, Note_on_c, 0, 78, 80
2, 30767, Note_on_c, 0, 78, 0
2, 30768, Note_on_c, 0, 77, 80
2, 30791, Note_on_c, 0, 77, 0
2, 30792, Note_on_c, 0, 76, 80
2, 30815, Note_on_c, 0, 76, 0
2, 30816, Note_on_c, 0, 76, 80
2, 30839, Note_on_c, 0, 76, 0
2, 30840, Note_on_c, 0, 77, 80
2, 30846, Note_on_c, 0, 77, 0
2, 30846, Note_on_c, 0, 76, 80
2, 30852, Note_on_c, 0, 76, 0
2, 30852, Note_on_c, 0, 74, 80
2, 30858, Note_on_c, 0, 74, 0
2, 30858, Note_on_c, 0, 76, 80
2, 30864, Note_on_c, 0, 76, 0
2, 30864, Note_on_c, 0, 79, 80
2, 30887, Note_on_c, 0, 79, 0
2, 30888, Note_on_c, 0, 77, 80
2, 30911, Note_on_c, 0, 77, 0
2, 30912, Note_on_c, 0, 77, 80
2, 31008, Note_on_c, 0, 77, 0
2, 31008, Note_on_c, 0, 76, 72
2, 31053, Note_on_c, 0, 76, 0
2, 31056, Note_on_c, 0, 75, 68
2, 31101, Note_on_c, 0, 75, 0
2, 31104, Note_on_c, 0, 74, 64
2, 31193, Note_on_c, 0, 74, 0
2, 31200, Note_on_c, 0, 75, 64
2, 31206, Note_on_c, 0, 75, 0
2, 31206, Note_on_c, 0, 74, 64
2, 31212, Note_on_c, 0, 74, 0
2, 31212, Note_on_c, 0, 72, 64
2, 31218, Note_on_c, 0, 72, 0
2, 31218, Note_on_c, 0, 74, 64
2, 31245, Note_on_c, 0, 74, 0
2, 31248, Note_on_c, 0, 77, 64
2, 31271, Note_on_c, 0, 77, 0
2, 31272, Note_on_c, 0, 75, 64
2, 31295, Note_on_c, 0, 75, 0
2, 31296, Note_on_c, 0, 74, 64
2, 31319, Note_on_c, 0, 74, 0
2, 31320, Note_on_c, 0, 72, 64
2, 31343, Note_on_c, 0, 72, 0
2, 31344, Note_on_c, 0, 70, 64
2, 31367, Note_on_c, 0, 70, 0
2, 31368, Note_on_c, 0, 69, 64
2, 31391, Note_on_c, 0, 69, 0
2, 31392, Note_on_c, 0, 70, 64
2, 31419, Note_on_c, 0, 70, 0
2, 31422, Note_on_c, 0, 72, 64
2, 31428, Note_on_c, 0, 72, 0
2, 31428, Note_on_c, 0, 70, 64
2, 31434, Note_on_c, 0, 70, 0
2, 31434, Note_on_c, 0, 69, 64
2, 31440, Note_on_c, 0, 69, 0
2, 31440, Note_on_c, 0, 70, 64
2, 31474, Note_on_c, 0, 70, 0
2, 31476, Note_on_c, 0, 74, 64
2, 31488, Note_on_c, 0, 74, 0
2, 31488, Note_on_c, 0, 77, 64
2, 31533, Note_on_c, 0, 77, 0
2, 31536, Note_on_c, 0, 77, 64
2, 31556, Note_on_c, 0, 77, 0
2, 31584, Note_on_c, 0, 77, 75
2, 31604, Note_on_c, 0, 77, 0
2, 31632, Note_on_c, 0, 77, 69
2, 31652, Note_on_c, 0, 77, 0
2, 31689, Note_on_c, 0, 67, 64
2, 31698, Note_on_c, 0, 67, 0
2, 31698, Note_on_c, 0, 69, 64
2, 31707, Note_on_c, 0, 69, 0
2, 31707, Note_on_c, 0, 70, 64
2, 31716, Note_on_c, 0, 70, 0
2, 31716, Note_on_c, 0, 72, 65
2, 31725, Note_on_c, 0, 72, 0
2, 31725, Note_on_c, 0, 74, 65
2, 31734, Note_on_c, 0, 74, 0
2, 31734, Note_on_c, 0, 75, 65
2, 31743, Note_on_c, 0, 75, 0
2, 31743, Note_on_c, 0, 77, 66
2, 31752, Note_on_c, 0, 77, 0
2, 31752, Note_on_c, 0, 79, 66
2, 31760, Note_on_c, 0, 79, 0
2, 31760, Note_on_c, 0, 81, 66
2, 31768, Note_on_c, 0, 81, 0
2, 31768, Note_on_c, 0, 82, 67
2, 31776, Note_on_c, 0, 82, 0
2, 31776, Note_on_c, 0, 81, 67
2, 31799, Note_on_c, 0, 81, 0
2, 31800, Note_on_c, 0, 79, 68
2, 31823, Note_on_c, 0, 79, 0
2, 31824, Note_on_c, 0, 77, 70
2, 31847, Note_on_c, 0, 77, 0
2, 31848, Note_on_c, 0, 75, 71
2, 31871, Note_on_c, 0, 75, 0
2, 31872, Note_on_c, 0, 74, 75
2, 31895, Note_on_c, 0, 74, 0
2, 31896, Note_on_c, 0, 72, 75
2, 31919, Note_on_c, 0, 72, 0
2, 31920, Note_on_c, 0, 87, 75
2, 31944, Note_on_c, 0, 87, 0
2, 31944, Note_on_c, 0, 84, 75
2, 31967, Note_on_c, 0, 84, 0
2, 31968, Note_on_c, 0, 82, 91
2, 32087, Note_on_c, 0, 82, 0
2, 32088, Note_on_c, 0, 81, 73
2, 32133, Note_on_c, 0, 81, 0
2, 32136, Note_on_c, 0, 79, 70
2, 32181, Note_on_c, 0, 79, 0
2, 32184, Note_on_c, 0, 77, 68
2, 32229, Note_on_c, 0, 77, 0
2, 32232, Note_on_c, 0, 75, 65
2, 32255, Note_on_c, 0, 75, 0
2, 32256, Note_on_c, 0, 74, 80
2, 32423, Note_on_c, 0, 74, 0
2, 32424, Note_on_c, 0, 77, 64
2, 32430, Note_on_c, 0, 77, 0
2, 32430, Note_on_c, 0, 75, 64
2, 32436, Note_on_c, 0, 75, 0
2, 32436, Note_on_c, 0, 74, 64
2, 32442, Note_on_c, 0, 74, 0
2, 32442, Note_on_c, 0, 75, 64
2, 32448, Note_on_c, 0, 75, 0
2, 32448, Note_on_c, 0, 74, 64
2, 32471, Note_on_c, 0, 74, 0
2, 32472, Note_on_c, 0, 72, 64
2, 32495, Note_on_c, 0, 72, 0
2, 32496, Note_on_c, 0, 70, 64
2, 32519, Note_on_c, 0, 70, 0
2, 32520, Note_on_c, 0, 69, 64
2, 32543, Note_on_c, 0, 69, 0
2, 32544, Note_on_c, 0, 70, 64
2, 32556, Note_on_c, 0, 70, 0
2, 32556, Note_on_c, 0, 72, 64
2, 32568, Note_on_c, 0, 72, 0
2, 32568, Note_on_c, 0, 70, 64
2, 32580, Note_on_c, 0, 70, 0
2, 32580, Note_on_c, 0, 69, 64
2, 32592, Note_on_c, 0, 69, 0
2, 32592, Note_on_c, 0, 70, 64
2, 32604, Note_on_c, 0, 70, 0
2, 32604, Note_on_c, 0, 72, 64
2, 32616, Note_on_c, 0, 72, 0
2, 32616, Note_on_c, 0, 74, 64
2, 32628, Note_on_c, 0, 74, 0
2, 32628, Note_on_c, 0, 75, 64
2, 32640, Note_on_c, 0, 75, 0
2, 32640, Note_on_c, 0, 77, 64
2, 32660, Note_on_c, 0, 77, 0
2, 32832, Note_on_c, 0, 75, 64
2, 32844, Note_on_c, 0, 75, 0
2, 32844, Note_on_c, 0, 77, 64
2, 32856, Note_on_c, 0, 77, 0
2, 32856, Note_on_c, 0, 75, 64
2, 32868, Note_on_c, 0, 75, 0
2, 32868, Note_on_c, 0, 74, 64
2, 32880, Note_on_c, 0, 74, 0
2, 32880, Note_on_c, 0, 75, 64
2, 32892, Note_on_c, 0, 75, 0
2, 32892, Note_on_c, 0, 77, 64
2, 32904, Note_on_c, 0, 77, 0
2, 32904, Note_on_c, 0, 79, 64
2, 32916, Note_on_c, 0, 79, 0
2, 32916, Note_on_c, 0, 81, 64
2, 32928, Note_on_c, 0, 81, 0
2, 32928, Note_on_c, 0, 82, 64
2, 32951, Note_on_c, 0, 82, 0
2, 32952, Note_on_c, 0, 82, 66
2, 32962, Note_on_c, 0, 82, 0
2, 32976, Note_on_c, 0, 82, 68
2, 32986, Note_on_c, 0, 82, 0
2, 33000, Note_on_c, 0, 82, 70
2, 33010, Note_on_c, 0, 82, 0
2, 33024, Note_on_c, 0, 82, 72
2, 33034, Note_on_c, 0, 82, 0
2, 33048, Note_on_c, 0, 82, 74
2, 33058, Note_on_c, 0, 82, 0
2, 33072, Note_on_c, 0, 82, 76
2, 33082, Note_on_c, 0, 82, 0
2, 33096, Note_on_c, 0, 82, 78
2, 33106, Note_on_c, 0, 82, 0
2, 33120, Note_on_c, 0, 82, 80
2, 33147, Note_on_c, 0, 82, 0
2, 33150, Note_on_c, 0, 84, 80
2, 33156, Note_on_c, 0, 84, 0
2, 33156, Note_on_c, 0, 82, 80
2, 33162, Note_on_c, 0, 82, 0
2, 33162, Note_on_c, 0, 81, 80
2, 33168, Note_on_c, 0, 81, 0
2, 33168, Note_on_c, 0, 82, 80
2, 33202, Note_on_c, 0, 82, 0
2, 33204, Note_on_c, 0, 84, 80
2, 33216, Note_on_c, 0, 84, 0
2, 33216, Note_on_c, 0, 86, 80
2, 33228, Note_on_c, 0, 86, 0
2, 33228, Note_on_c, 0, 77, 80
2, 33240, Note_on_c, 0, 77, 0
2, 33240, Note_on_c, 0, 82, 80
2, 33252, Note_on_c, 0, 82, 0
2, 33252, Note_on_c, 0, 86, 80
2, 33264, Note_on_c, 0, 86, 0
2, 33264, Note_on_c, 0, 89, 80
2, 33276, Note_on_c, 0, 89, 0
2, 33276, Note_on_c, 0, 87, 78
2, 33288, Note_on_c, 0, 87, 0
2, 33288, Note_on_c, 0, 86, 77
2, 33300, Note_on_c, 0, 86, 0
2, 33300, Note_on_c, 0, 84, 76
2, 33312, Note_on_c, 0, 84, 0
2, 33312, Note_on_c, 0, 82, 75
2, 33324, Note_on_c, 0, 82, 0
2, 33324, Note_on_c, 0, 81, 73
2, 33336, Note_on_c, 0, 81, 0
2, 33336, Note_on_c, 0, 79, 72
2, 33348, Note_on_c, 0, 79, 0
2, 33348, Note_on_c, 0, 77, 71
2, 33360, Note_on_c, 0, 77, 0
2, 33360, Note_on_c, 0, 75, 70
2, 33372, Note_on_c, 0, 75, 0
2, 33372, Note_on_c, 0, 74, 68
2, 33384, Note_on_c, 0, 74, 0
2, 33384, Note_on_c, 0, 72, 67
2, 33396, Note_on_c, 0, 72, 0
2, 33396, Note_on_c, 0, 71, 66
2, 33408, Note_on_c, 0, 71, 0
2, 33408, Note_on_c, 0, 72, 65
2, 33420, Note_on_c, 0, 72, 0
2, 33420, Note_on_c, 0, 79, 64
2, 33432, Note_on_c, 0, 79, 0
2, 33432, Note_on_c, 0, 75, 64
2, 33444, Note_on_c, 0, 75, 0
2, 33444, Note_on_c, 0, 72, 64
2, 33456, Note_on_c, 0, 72, 0
2, 33456, Note_on_c, 0, 82, 64
2, 33468, Note_on_c, 0, 82, 0
2, 33468, Note_on_c, 0, 79, 64
2, 33480, Note_on_c, 0, 79, 0
2, 33480, Note_on_c, 0, 75, 64
2, 33492, Note_on_c, 0, 75, 0
2, 33492, Note_on_c, 0, 72, 64
2, 33504, Note_on_c, 0, 72, 0
2, 33504, Note_on_c, 0, 70, 64
2, 33571, Note_on_c, 0, 70, 0
2, 33576, Note_on_c, 0, 72, 64
2, 33582, Note_on_c, 0, 72, 0
2, 33582, Note_on_c, 0, 70, 64
2, 33588, Note_on_c, 0, 70, 0
2, 33588, Note_on_c, 0, 69, 64
2, 33594, Note_on_c, 0, 69, 0
2, 33594, Note_on_c, 0, 70, 64
2, 33600, Note_on_c, 0, 70, 0
2, 33600, Note_on_c, 0, 74, 64
2, 33667, Note_on_c, 0, 74, 0
2, 33672, Note_on_c, 0, 72, 64
2, 33695, Note_on_c, 0, 72, 0
2, 33696, Note_on_c, 0, 70, 64
2, 33883, Note_on_c, 0, 70, 0
2, 33960, Control_c, 0, 64, 127
2, 33960, Note_on_c, 0, 75, 96
2, 33960, Note_on_c, 0, 72, 96
2, 33960, Note_on_c, 0, 69, 96
2, 33960, Note_on_c, 0, 65, 96
2, 33970, Note_on_c, 0, 75, 0
2, 33970, Note_on_c, 0, 72, 0
2, 33970, Note_on_c, 0, 69, 0
2, 33970, Note_on_c, 0, 65, 0
2, 33984, Note_on_c, 0, 75, 96
2, 33984, Note_on_c, 0, 72, 96
2, 33984, Note_on_c, 0, 69, 96
2, 33984, Note_on_c, 0, 65, 96
2, 34176, Note_on_c, 0, 75, 0
2, 34176, Note_on_c, 0, 72, 0
2, 34176, Note_on_c, 0, 69, 0
2, 34176, Note_on_c, 0, 65, 0
2, 34176, Control_c, 0, 64, 0
2, 34296, Note_on_c, 0, 57, 64
2, 34319, Note_on_c, 0, 57, 0
2, 34320, Note_on_c, 0, 60, 64
2, 34343, Note_on_c, 0, 60, 0
2, 34344, Note_on_c, 0, 57, 64
2, 34367, Note_on_c, 0, 57, 0
2, 34368, Note_on_c, 0, 67, 64
2, 34464, Note_on_c, 0, 67, 0
2, 34464, Note_on_c, 0, 65, 64
2, 34509, Note_on_c, 0, 65, 0
2, 34512, Note_on_c, 0, 57, 64
2, 34557, Note_on_c, 0, 57, 0
2, 34584, Note_on_c, 0, 58, 64
2, 34607, Note_on_c, 0, 58, 0
2, 34608, Note_on_c, 0, 62, 64
2, 34631, Note_on_c, 0, 62, 0
2, 34632, Note_on_c, 0, 58, 64
2, 34655, Note_on_c, 0, 58, 0
2, 34656, Note_on_c, 0, 70, 64
2, 34775, Note_on_c, 0, 70, 0
2, 34776, Note_on_c, 0, 69, 64
2, 34799, Note_on_c, 0, 69, 0
2, 34800, Note_on_c, 0, 67, 64
2, 34823, Note_on_c, 0, 67, 0
2, 34824, Note_on_c, 0, 65, 64
2, 34847, Note_on_c, 0, 65, 0
2, 34872, Note_on_c, 0, 69, 64
2, 34884, Note_on_c, 0, 69, 0
2, 34884, Note_on_c, 0, 70, 64
2, 34896, Note_on_c, 0, 70, 0
2, 34896, Note_on_c, 0, 74, 64
2, 34908, Note_on_c, 0, 74, 0
2, 34908, Note_on_c, 0, 72, 64
2, 34920, Note_on_c, 0, 72, 0
2, 34920, Note_on_c, 0, 70, 64
2, 34932, Note_on_c, 0, 70, 0
2, 34932, Note_on_c, 0, 69, 64
2, 34944, Note_on_c, 0, 69, 0
2, 34944, Note_on_c, 0, 79, 64
2, 35040, Note_on_c, 0, 79, 0
2, 35040, Note_on_c, 0, 77, 64
2, 35085, Note_on_c, 0, 77, 0
2, 35088, Note_on_c, 0, 69, 64
2, 35133, Note_on_c, 0, 69, 0
2, 35148, Note_on_c, 0, 70, 64
2, 35160, Note_on_c, 0, 70, 0
2, 35160, Note_on_c, 0, 72, 64
2, 35172, Note_on_c, 0, 72, 0
2, 35172, Note_on_c, 0, 74, 65
2, 35184, Note_on_c, 0, 74, 0
2, 35184, Note_on_c, 0, 75, 65
2, 35196, Note_on_c, 0, 75, 0
2, 35196, Note_on_c, 0, 77, 66
2, 35208, Note_on_c, 0, 77, 0
2, 35208, Note_on_c, 0, 79, 67
2, 35220, Note_on_c, 0, 79, 0
2, 35220, Note_on_c, 0, 81, 67
2, 35232, Note_on_c, 0, 81, 0
2, 35232, Note_on_c, 0, 82, 68
2, 35351, Note_on_c, 0, 82, 0
2, 35352, Note_on_c, 0, 81, 74
2, 35375, Note_on_c, 0, 81, 0
2, 35376, Note_on_c, 0, 79, 76
2, 35399, Note_on_c, 0, 79, 0
2, 35400, Note_on_c, 0, 77, 77
2, 35423, Note_on_c, 0, 77, 0
2, 35448, Note_on_c, 0, 77, 80
2, 35471, Note_on_c, 0, 77, 0
2, 35472, Note_on_c, 0, 84, 80
2, 35495, Note_on_c, 0, 84, 0
2, 35496, Note_on_c, 0, 81, 80
2, 35519, Note_on_c, 0, 81, 0
2, 35520, Note_on_c, 0, 87, 80
2, 35639, Note_on_c, 0, 87, 0
2, 35640, Note_on_c, 0, 87, 80
2, 35646, Note_on_c, 0, 87, 0
2, 35646, Note_on_c, 0, 86, 80
2, 35652, Note_on_c, 0, 86, 0
2, 35652, Note_on_c, 0, 84, 80
2, 35658, Note_on_c, 0, 84, 0
2, 35658, Note_on_c, 0, 86, 80
2, 35664, Note_on_c, 0, 86, 0
2, 35664, Note_on_c, 0, 89, 80
2, 35687, Note_on_c, 0, 89, 0
2, 35688, Note_on_c, 0, 87, 80
2, 35711, Note_on_c, 0, 87, 0
2, 35712, Note_on_c, 0, 86, 80
2, 35735, Note_on_c, 0, 86, 0
2, 35736, Note_on_c, 0, 84, 80
2, 35759, Note_on_c, 0, 84, 0
2, 35760, Note_on_c, 0, 87, 80
2, 35783, Note_on_c, 0, 87, 0
2, 35784, Note_on_c, 0, 86, 79
2, 35807, Note_on_c, 0, 86, 0
2, 35808, Note_on_c, 0, 84, 78
2, 35831, Note_on_c, 0, 84, 0
2, 35832, Note_on_c, 0, 82, 77
2, 35855, Note_on_c, 0, 82, 0
2, 35856, Note_on_c, 0, 86, 76
2, 35879, Note_on_c, 0, 86, 0
2, 35880, Note_on_c, 0, 84, 75
2, 35903, Note_on_c, 0, 84, 0
2, 35904, Note_on_c, 0, 82, 74
2, 35927, Note_on_c, 0, 82, 0
2, 35928, Note_on_c, 0, 81, 73
2, 35951, Note_on_c, 0, 81, 0
2, 35952, Note_on_c, 0, 84, 72
2, 35975, Note_on_c, 0, 84, 0
2, 35976, Note_on_c, 0, 82, 71
2, 35999, Note_on_c, 0, 82, 0
2, 36000, Note_on_c, 0, 81, 70
2, 36023, Note_on_c, 0, 81, 0
2, 36024, Note_on_c, 0, 79, 69
2, 36047, Note_on_c, 0, 79, 0
2, 36048, Note_on_c, 0, 82, 68
2, 36071, Note_on_c, 0, 82, 0
2, 36072, Note_on_c, 0, 81, 67
2, 36095, Note_on_c, 0, 81, 0
2, 36096, Note_on_c, 0, 79, 66
2, 36141, Note_on_c, 0, 79, 0
2, 36144, Note_on_c, 0, 78, 64
2, 36189, Note_on_c, 0, 78, 0
2, 36192, Note_on_c, 0, 77, 64
2, 36237, Note_on_c, 0, 77, 0
2, 36240, Note_on_c, 0, 76, 64
2, 36285, Note_on_c, 0, 76, 0
2, 36288, Note_on_c, 0, 75, 64
2, 36288, Note_on_c, 0, 72, 64
2, 36576, Note_on_c, 0, 75, 0
2, 36576, Note_on_c, 0, 72, 0
2, 36576, Note_on_c, 0, 74, 58
2, 36576, Note_on_c, 0, 70, 58
2, 36763, Note_on_c, 0, 74, 0
2, 36763, Note_on_c, 0, 70, 0
2, 36864, Note_on_c, 0, 67, 74
2, 36870, Note_on_c, 0, 72, 74
2, 36876, Note_on_c, 0, 75, 74
2, 36882, Note_on_c, 0, 79, 74
2, 36946, Note_on_c, 0, 79, 0
2, 36946, Note_on_c, 0, 75, 0
2, 36946, Note_on_c, 0, 72, 0
2, 36946, Note_on_c, 0, 67, 0
2, 36948, Note_on_c, 0, 77, 58
2, 36960, Note_on_c, 0, 77, 0
2, 36960, Note_on_c, 0, 75, 58
2, 36968, Note_on_c, 0, 75, 0
2, 36968, Note_on_c, 0, 74, 58
2, 36976, Note_on_c, 0, 74, 0
2, 36976, Note_on_c, 0, 72, 58
2, 36984, Note_on_c, 0, 72, 0
2, 36984, Note_on_c, 0, 70, 58
2, 36992, Note_on_c, 0, 70, 0
2, 36992, Note_on_c, 0, 69, 58
2, 37000, Note_on_c, 0, 69, 0
2, 37000, Note_on_c, 0, 67, 58
2, 37007, Note_on_c, 0, 67, 0
2, 37007, Note_on_c, 0, 65, 58
2, 37014, Note_on_c, 0, 65, 0
2, 37014, Note_on_c, 0, 63, 58
2, 37021, Note_on_c, 0, 63, 0
2, 37021, Note_on_c, 0, 62, 58
2, 37028, Note_on_c, 0, 62, 0
2, 37028, Note_on_c, 0, 60, 58
2, 37035, Note_on_c, 0, 60, 0
2, 37035, Note_on_c, 0, 58, 58
2, 37042, Note_on_c, 0, 58, 0
2, 37042, Note_on_c, 0, 57, 58
2, 37049, Note_on_c, 0, 57, 0
2, 37049, Note_on_c, 0, 55, 58
2, 37056, Note_on_c, 0, 55, 0
2, 37056, Note_on_c, 0, 53, 58
2, 37076, Note_on_c, 0, 53, 0
2, 37104, Note_on_c, 0, 69, 58
2, 37104, Note_on_c, 0, 63, 58
2, 37124, Note_on_c, 0, 69, 0
2, 37124, Note_on_c, 0, 63, 0
2, 37152, Note_on_c, 0, 70, 58
2, 37152, Note_on_c, 0, 62, 58
2, 37197, Note_on_c, 0, 70, 0
2, 37197, Note_on_c, 0, 62, 0
2, 37344, Note_on_c, 0, 67, 64
2, 37416, Note_on_c, 0, 67, 0
2, 37416, Note_on_c, 0, 66, 64
2, 37439, Note_on_c, 0, 66, 0
2, 37440, Note_on_c, 0, 65, 64
2, 37485, Note_on_c, 0, 65, 0
2, 37632, Note_on_c, 0, 63, 64
2, 37728, Note_on_c, 0, 63, 0
2, 37728, Note_on_c, 0, 62, 64
2, 37773, Note_on_c, 0, 62, 0
2, 37920, Note_on_c, 0, 60, 64
2, 37992, Note_on_c, 0, 60, 0
2, 37992, Note_on_c, 0, 57, 64
2, 38015, Note_on_c, 0, 57, 0
2, 38016, Note_on_c, 0, 58, 64
2, 38016, Note_on_c, 0, 50, 64
2, 38061, Note_on_c, 0, 58, 0
2, 38061, Note_on_c, 0, 50, 0
2, 38208, Note_on_c, 0, 58, 58
2, 38208, Note_on_c, 0, 50, 58
2, 38255, Note_on_c, 0, 58, 0
2, 38255, Note_on_c, 0, 50, 0
2, 38304, Note_on_c, 0, 58, 58
2, 38304, Note_on_c, 0, 50, 58
2, 38374, Note_on_c, 0, 58, 0
2, 38374, Note_on_c, 0, 50, 0
2, 38592, End_track
3, 0, Start_track
3, 0, Program_c, 0, 0
3, 0, Control_c, 0, 7, 127
3, 0, Control_c, 0, 10, 64
3, 9984, Note_on_c, 0, 69, 77
3, 9984, Note_on_c, 0, 65, 77
3, 10272, Note_on_c, 0, 69, 0
3, 10272, Note_on_c, 0, 65, 0
3, 10272, Note_on_c, 0, 70, 64
3, 10317, Note_on_c, 0, 70, 0
3, 15744, Note_on_c, 0, 69, 64
3, 15744, Note_on_c, 0, 65, 64
3, 16032, Note_on_c, 0, 69, 0
3, 16032, Note_on_c, 0, 65, 0
3, 16032, Note_on_c, 0, 70, 64
3, 16077, Note_on_c, 0, 70, 0
3, 33600, Note_on_c, 0, 69, 64
3, 33689, Note_on_c, 0, 69, 0
3, 33696, Note_on_c, 0, 70, 64
3, 33873, Note_on_c, 0, 70, 0
3, 37344, Note_on_c, 0, 63, 64
3, 37440, Note_on_c, 0, 63, 0
3, 37440, Note_on_c, 0, 62, 64
3, 37485, Note_on_c, 0, 62, 0
3, 37632, Note_on_c, 0, 55, 64
3, 37704, Note_on_c, 0, 55, 0
3, 37704, Note_on_c, 0, 54, 64
3, 37727, Note_on_c, 0, 54, 0
3, 37728, Note_on_c, 0, 53, 64
3, 37773, Note_on_c, 0, 53, 0
3, 37920, Note_on_c, 0, 51, 64
3, 37992, Note_on_c, 0, 51, 0
3, 37992, Note_on_c, 0, 54, 64
3, 38015, Note_on_c, 0, 54, 0
3, 38016, Note_on_c, 0, 58, 64
3, 38016, Note_on_c, 0, 50, 64
3, 38061, Note_on_c, 0, 58, 0
3, 38061, Note_on_c, 0, 50, 0
3, 38208, Note_on_c, 0, 50, 64
3, 38255, Note_on_c, 0, 50, 0
3, 38304, Note_on_c, 0, 50, 64
3, 38374, Note_on_c, 0, 50, 0
3, 38592, End_track
4, 0, Start_track
4, 0, Program_c, 1, 0
4, 0, Control_c, 1, 7, 127
4, 0, Control_c, 1, 10, 64
4, 0, Note_on_c, 1, 65, 64
4, 177, Note_on_c, 1, 65, 0
4, 192, Note_on_c, 1, 63, 64
4, 281, Note_on_c, 1, 63, 0
4, 288, Note_on_c, 1, 62, 64
4, 421, Note_on_c, 1, 62, 0
4, 576, Note_on_c, 1, 58, 64
4, 753, Note_on_c, 1, 58, 0
4, 768, Note_on_c, 1, 60, 64
4, 857, Note_on_c, 1, 60, 0
4, 864, Note_on_c, 1, 62, 64
4, 953, Note_on_c, 1, 62, 0
4, 960, Note_on_c, 1, 60, 64
4, 1049, Note_on_c, 1, 60, 0
4, 1152, Note_on_c, 1, 65, 64
4, 1329, Note_on_c, 1, 65, 0
4, 1344, Note_on_c, 1, 63, 64
4, 1433, Note_on_c, 1, 63, 0
4, 1440, Note_on_c, 1, 62, 64
4, 1573, Note_on_c, 1, 62, 0
4, 1728, Note_on_c, 1, 58, 64
4, 1728, Note_on_c, 1, 55, 64
4, 1728, Note_on_c, 1, 48, 64
4, 1993, Note_on_c, 1, 58, 0
4, 1993, Note_on_c, 1, 55, 0
4, 1993, Note_on_c, 1, 48, 0
4, 2016, Note_on_c, 1, 58, 64
4, 2112, Note_on_c, 1, 58, 0
4, 2112, Note_on_c, 1, 57, 64
4, 2201, Note_on_c, 1, 57, 0
4, 2304, Note_on_c, 1, 65, 64
4, 2491, Note_on_c, 1, 65, 0
4, 2496, Note_on_c, 1, 63, 64
4, 2585, Note_on_c, 1, 63, 0
4, 2592, Note_on_c, 1, 62, 64
4, 2725, Note_on_c, 1, 62, 0
4, 2880, Note_on_c, 1, 58, 64
4, 3057, Note_on_c, 1, 58, 0
4, 3072, Note_on_c, 1, 60, 64
4, 3161, Note_on_c, 1, 60, 0
4, 3168, Note_on_c, 1, 62, 64
4, 3264, Note_on_c, 1, 62, 0
4, 3264, Note_on_c, 1, 60, 64
4, 3353, Note_on_c, 1, 60, 0
4, 3456, Note_on_c, 1, 65, 70
4, 3633, Note_on_c, 1, 65, 0
4, 3648, Note_on_c, 1, 63, 70
4, 3737, Note_on_c, 1, 63, 0
4, 3744, Note_on_c, 1, 62, 70
4, 3877, Note_on_c, 1, 62, 0
4, 4032, Note_on_c, 1, 58, 75
4, 4032, Note_on_c, 1, 55, 75
4, 4032, Note_on_c, 1, 48, 75
4, 4297, Note_on_c, 1, 58, 0
4, 4297, Note_on_c, 1, 55, 0
4, 4297, Note_on_c, 1, 48, 0
4, 4320, Note_on_c, 1, 58, 75
4, 4416, Note_on_c, 1, 58, 0
4, 4416, Note_on_c, 1, 57, 75
4, 4455, Note_on_c, 1, 57, 0
4, 4656, Note_on_c, 1, 51, 75
4, 4701, Note_on_c, 1, 51, 0
4, 4704, Note_on_c, 1, 51, 75
4, 4749, Note_on_c, 1, 51, 0
4, 4752, Note_on_c, 1, 51, 75
4, 4797, Note_on_c, 1, 51, 0
4, 4800, Note_on_c, 1, 51, 75
4, 4845, Note_on_c, 1, 51, 0
4, 4848, Note_on_c, 1, 51, 75
4, 4893, Note_on_c, 1, 51, 0
4, 4944, Note_on_c, 1, 50, 75
4, 4989, Note_on_c, 1, 50, 0
4, 4992, Note_on_c, 1, 50, 75
4, 5037, Note_on_c, 1, 50, 0
4, 5040, Note_on_c, 1, 50, 75
4, 5085, Note_on_c, 1, 50, 0
4, 5088, Note_on_c, 1, 50, 75
4, 5133, Note_on_c, 1, 50, 0
4, 5136, Note_on_c, 1, 50, 75
4, 5181, Note_on_c, 1, 50, 0
4, 5232, Note_on_c, 1, 45, 75
4, 5252, Note_on_c, 1, 45, 0
4, 5328, Note_on_c, 1, 46, 75
4, 5348, Note_on_c, 1, 46, 0
4, 5424, Note_on_c, 1, 39, 75
4, 5444, Note_on_c, 1, 39, 0
4, 5520, Note_on_c, 1, 40, 75
4, 5565, Note_on_c, 1, 40, 0
4, 5568, Note_on_c, 1, 41, 72
4, 5613, Note_on_c, 1, 41, 0
4, 5616, Note_on_c, 1, 43, 70
4, 5661, Note_on_c, 1, 43, 0
4, 5664, Note_on_c, 1, 41, 73
4, 5709, Note_on_c, 1, 41, 0
4, 5712, Note_on_c, 1, 39, 76
4, 5757, Note_on_c, 1, 39, 0
4, 5760, Note_on_c, 1, 37, 80
4, 5805, Note_on_c, 1, 37, 0
4, 5808, Note_on_c, 1, 53, 64
4, 5808, Note_on_c, 1, 49, 64
4, 5853, Note_on_c, 1, 53, 0
4, 5853, Note_on_c, 1, 49, 0
4, 5856, Note_on_c, 1, 53, 64
4, 5856, Note_on_c, 1, 49, 64
4, 5901, Note_on_c, 1, 53, 0
4, 5901, Note_on_c, 1, 49, 0
4, 5904, Note_on_c, 1, 53, 64
4, 5904, Note_on_c, 1, 49, 64
4, 5949, Note_on_c, 1, 53, 0
4, 5949, Note_on_c, 1, 49, 0
4, 5952, Note_on_c, 1, 53, 64
4, 5952, Note_on_c, 1, 49, 64
4, 5997, Note_on_c, 1, 53, 0
4, 5997, Note_on_c, 1, 49, 0
4, 6000, Note_on_c, 1, 53, 64
4, 6000, Note_on_c, 1, 49, 64
4, 6045, Note_on_c, 1, 53, 0
4, 6045, Note_on_c, 1, 49, 0
4, 6096, Note_on_c, 1, 54, 64
4, 6096, Note_on_c, 1, 51, 64
4, 6141, Note_on_c, 1, 54, 0
4, 6141, Note_on_c, 1, 51, 0
4, 6144, Note_on_c, 1, 54, 64
4, 6144, Note_on_c, 1, 51, 64
4, 6189, Note_on_c, 1, 54, 0
4, 6189, Note_on_c, 1, 51, 0
4, 6192, Note_on_c, 1, 54, 64
4, 6192, Note_on_c, 1, 51, 64
4, 6237, Note_on_c, 1, 54, 0
4, 6237, Note_on_c, 1, 51, 0
4, 6240, Note_on_c, 1, 54, 64
4, 6240, Note_on_c, 1, 51, 64
4, 6285, Note_on_c, 1, 54, 0
4, 6285, Note_on_c, 1, 51, 0
4, 6288, Note_on_c, 1, 54, 64
4, 6288, Note_on_c, 1, 51, 64
4, 6333, Note_on_c, 1, 54, 0
4, 6333, Note_on_c, 1, 51, 0
4, 6384, Note_on_c, 1, 56, 64
4, 6384, Note_on_c, 1, 53, 64
4, 6429, Note_on_c, 1, 56, 0
4, 6429, Note_on_c, 1, 53, 0
4, 6432, Note_on_c, 1, 56, 65
4, 6432, Note_on_c, 1, 53, 65
4, 6477, Note_on_c, 1, 56, 0
4, 6477, Note_on_c, 1, 53, 0
4, 6480, Note_on_c, 1, 56, 65
4, 6480, Note_on_c, 1, 53, 65
4, 6525, Note_on_c, 1, 56, 0
4, 6525, Note_on_c, 1, 53, 0
4, 6528, Note_on_c, 1, 56, 66
4, 6528, Note_on_c, 1, 53, 66
4, 6573, Note_on_c, 1, 56, 0
4, 6573, Note_on_c, 1, 53, 0
4, 6576, Note_on_c, 1, 56, 66
4, 6576, Note_on_c, 1, 53, 66
4, 6621, Note_on_c, 1, 56, 0
4, 6621, Note_on_c, 1, 53, 0
4, 6672, Note_on_c, 1, 58, 67
4, 6672, Note_on_c, 1, 54, 67
4, 6717, Note_on_c, 1, 58, 0
4, 6717, Note_on_c, 1, 54, 0
4, 6720, Note_on_c, 1, 58, 68
4, 6720, Note_on_c, 1, 54, 68
4, 6765, Note_on_c, 1, 58, 0
4, 6765, Note_on_c, 1, 54, 0
4, 6768, Note_on_c, 1, 58, 68
4, 6768, Note_on_c, 1, 54, 68
4, 6813, Note_on_c, 1, 58, 0
4, 6813, Note_on_c, 1, 54, 0
4, 6816, Note_on_c, 1, 58, 69
4, 6816, Note_on_c, 1, 54, 69
4, 6861, Note_on_c, 1, 58, 0
4, 6861, Note_on_c, 1, 54, 0
4, 6864, Note_on_c, 1, 58, 69
4, 6864, Note_on_c, 1, 54, 69
4, 6909, Note_on_c, 1, 58, 0
4, 6909, Note_on_c, 1, 54, 0
4, 6960, Note_on_c, 1, 64, 70
4, 6960, Note_on_c, 1, 58, 70
4, 6960, Note_on_c, 1, 54, 70
4, 7005, Note_on_c, 1, 64, 0
4, 7005, Note_on_c, 1, 58, 0
4, 7005, Note_on_c, 1, 54, 0
4, 7008, Note_on_c, 1, 64, 70
4, 7008, Note_on_c, 1, 58, 70
4, 7008, Note_on_c, 1, 54, 70
4, 7053, Note_on_c, 1, 64, 0
4, 7053, Note_on_c, 1, 58, 0
4, 7053, Note_on_c, 1, 54, 0
4, 7056, Note_on_c, 1, 64, 70
4, 7056, Note_on_c, 1, 58, 70
4, 7056, Note_on_c, 1, 54, 70
4, 7101, Note_on_c, 1, 64, 0
4, 7101, Note_on_c, 1, 58, 0
4, 7101, Note_on_c, 1, 54, 0
4, 7104, Note_on_c, 1, 64, 70
4, 7104, Note_on_c, 1, 58, 70
4, 7104, Note_on_c, 1, 54, 70
4, 7149, Note_on_c, 1, 64, 0
4, 7149, Note_on_c, 1, 58, 0
4, 7149, Note_on_c, 1, 54, 0
4, 7152, Note_on_c, 1, 58, 70
4, 7152, Note_on_c, 1, 54, 70
4, 7197, Note_on_c, 1, 58, 0
4, 7197, Note_on_c, 1, 54, 0
4, 7200, Note_on_c, 1, 58, 70
4, 7296, Note_on_c, 1, 58, 0
4, 7296, Note_on_c, 1, 57, 70
4, 7385, Note_on_c, 1, 57, 0
4, 7488, Note_on_c, 1, 65, 64
4, 7665, Note_on_c, 1, 65, 0
4, 7680, Note_on_c, 1, 63, 64
4, 7769, Note_on_c, 1, 63, 0
4, 7776, Note_on_c, 1, 62, 64
4, 7909, Note_on_c, 1, 62, 0
4, 8064, Note_on_c, 1, 58, 64
4, 8241, Note_on_c, 1, 58, 0
4, 8256, Note_on_c, 1, 60, 64
4, 8345, Note_on_c, 1, 60, 0
4, 8352, Note_on_c, 1, 62, 64
4, 8441, Note_on_c, 1, 62, 0
4, 8448, Note_on_c, 1, 60, 64
4, 8537, Note_on_c, 1, 60, 0
4, 8640, Note_on_c, 1, 65, 64
4, 8685, Note_on_c, 1, 65, 0
4, 8688, Note_on_c, 1, 66, 64
4, 8733, Note_on_c, 1, 66, 0
4, 8736, Note_on_c, 1, 67, 64
4, 8825, Note_on_c, 1, 67, 0
4, 8832, Note_on_c, 1, 65, 64
4, 8855, Note_on_c, 1, 65, 0
4, 8856, Note_on_c, 1, 63, 64
4, 8879, Note_on_c, 1, 63, 0
4, 8880, Note_on_c, 1, 62, 64
4, 8903, Note_on_c, 1, 62, 0
4, 8904, Note_on_c, 1, 60, 64
4, 8927, Note_on_c, 1, 60, 0
4, 8928, Note_on_c, 1, 62, 64
4, 8928, Note_on_c, 1, 58, 64
4, 9017, Note_on_c, 1, 62, 0
4, 9017, Note_on_c, 1, 58, 0
4, 9072, Note_on_c, 1, 62, 64
4, 9072, Note_on_c, 1, 58, 64
4, 9117, Note_on_c, 1, 62, 0
4, 9117, Note_on_c, 1, 58, 0
4, 9120, Note_on_c, 1, 60, 65
4, 9120, Note_on_c, 1, 57, 65
4, 9165, Note_on_c, 1, 60, 0
4, 9165, Note_on_c, 1, 57, 0
4, 9168, Note_on_c, 1, 62, 66
4, 9168, Note_on_c, 1, 58, 66
4, 9168, Note_on_c, 1, 56, 66
4, 9213, Note_on_c, 1, 62, 0
4, 9213, Note_on_c, 1, 58, 0
4, 9213, Note_on_c, 1, 56, 0
4, 9216, Note_on_c, 1, 63, 67
4, 9216, Note_on_c, 1, 58, 67
4, 9216, Note_on_c, 1, 55, 67
4, 9305, Note_on_c, 1, 63, 0
4, 9305, Note_on_c, 1, 58, 0
4, 9305, Note_on_c, 1, 55, 0
4, 9360, Note_on_c, 1, 58, 70
4, 9360, Note_on_c, 1, 55, 70
4, 9380, Note_on_c, 1, 58, 0
4, 9380, Note_on_c, 1, 55, 0
4, 9408, Note_on_c, 1, 57, 69
4, 9408, Note_on_c, 1, 53, 69
4, 9428, Note_on_c, 1, 57, 0
4, 9428, Note_on_c, 1, 53, 0
4, 9456, Note_on_c, 1, 55, 68
4, 9456, Note_on_c, 1, 51, 68
4, 9476, Note_on_c, 1, 55, 0
4, 9476, Note_on_c, 1, 51, 0
4, 9504, Note_on_c, 1, 53, 67
4, 9504, Note_on_c, 1, 50, 67
4, 9552, Note_on_c, 1, 53, 0
4, 9552, Note_on_c, 1, 50, 0
4, 9552, Note_on_c, 1, 51, 66
4, 9552, Note_on_c, 1, 48, 66
4, 9597, Note_on_c, 1, 51, 0
4, 9597, Note_on_c, 1, 48, 0
4, 9600, Note_on_c, 1, 50, 65
4, 9600, Note_on_c, 1, 46, 65
4, 9620, Note_on_c, 1, 50, 0
4, 9620, Note_on_c, 1, 46, 0
4, 9792, Note_on_c, 1, 63, 64
4, 9792, Note_on_c, 1, 51, 64
4, 9881, Note_on_c, 1, 63, 0
4, 9881, Note_on_c, 1, 51, 0
4, 9888, Note_on_c, 1, 62, 64
4, 9888, Note_on_c, 1, 53, 64
4, 9977, Note_on_c, 1, 62, 0
4, 9977, Note_on_c, 1, 53, 0
4, 9984, Note_on_c, 1, 63, 64
4, 9984, Note_on_c, 1, 53, 64
4, 10080, Note_on_c, 1, 53, 0
4, 10080, Note_on_c, 1, 58, 64
4, 10272, Note_on_c, 1, 63, 0
4, 10272, Note_on_c, 1, 62, 64
4, 10317, Note_on_c, 1, 62, 0
4, 10317, Note_on_c, 1, 58, 0
4, 10416, Note_on_c, 1, 51, 64
4, 10461, Note_on_c, 1, 51, 0
4, 10464, Note_on_c, 1, 51, 64
4, 10509, Note_on_c, 1, 51, 0
4, 10512, Note_on_c, 1, 51, 64
4, 10557, Note_on_c, 1, 51, 0
4, 10560, Note_on_c, 1, 51, 64
4, 10605, Note_on_c, 1, 51, 0
4, 10608, Note_on_c, 1, 51, 64
4, 10653, Note_on_c, 1, 51, 0
4, 10704, Note_on_c, 1, 50, 64
4, 10749, Note_on_c, 1, 50, 0
4, 10752, Note_on_c, 1, 50, 64
4, 10797, Note_on_c, 1, 50, 0
4, 10800, Note_on_c, 1, 50, 64
4, 10845, Note_on_c, 1, 50, 0
4, 10848, Note_on_c, 1, 50, 64
4, 10893, Note_on_c, 1, 50, 0
4, 10896, Note_on_c, 1, 50, 64
4, 10941, Note_on_c, 1, 50, 0
4, 10992, Note_on_c, 1, 45, 64
4, 11037, Note_on_c, 1, 45, 0
4, 11088, Note_on_c, 1, 46, 64
4, 11133, Note_on_c, 1, 46, 0
4, 11184, Note_on_c, 1, 39, 64
4, 11229, Note_on_c, 1, 39, 0
4, 11280, Note_on_c, 1, 40, 75
4, 11325, Note_on_c, 1, 40, 0
4, 11328, Note_on_c, 1, 41, 72
4, 11373, Note_on_c, 1, 41, 0
4, 11376, Note_on_c, 1, 43, 70
4, 11421, Note_on_c, 1, 43, 0
4, 11424, Note_on_c, 1, 41, 73
4, 11469, Note_on_c, 1, 41, 0
4, 11472, Note_on_c, 1, 39, 76
4, 11517, Note_on_c, 1, 39, 0
4, 11520, Note_on_c, 1, 37, 80
4, 11565, Note_on_c, 1, 37, 0
4, 11568, Note_on_c, 1, 53, 64
4, 11568, Note_on_c, 1, 49, 64
4, 11613, Note_on_c, 1, 53, 0
4, 11613, Note_on_c, 1, 49, 0
4, 11616, Note_on_c, 1, 53, 64
4, 11616, Note_on_c, 1, 49, 64
4, 11661, Note_on_c, 1, 53, 0
4, 11661, Note_on_c, 1, 49, 0
4, 11664, Note_on_c, 1, 53, 64
4, 11664, Note_on_c, 1, 49, 64
4, 11709, Note_on_c, 1, 53, 0
4, 11709, Note_on_c, 1, 49, 0
4, 11712, Note_on_c, 1, 53, 64
4, 11712, Note_on_c, 1, 49, 64
4, 11757, Note_on_c, 1, 53, 0
4, 11757, Note_on_c, 1, 49, 0
4, 11760, Note_on_c, 1, 53, 64
4, 11760, Note_on_c, 1, 49, 64
4, 11805, Note_on_c, 1, 53, 0
4, 11805, Note_on_c, 1, 49, 0
4, 11856, Note_on_c, 1, 54, 64
4, 11856, Note_on_c, 1, 51, 64
4, 11901, Note_on_c, 1, 54, 0
4, 11901, Note_on_c, 1, 51, 0
4, 11904, Note_on_c, 1, 54, 64
4, 11904, Note_on_c, 1, 51, 64
4, 11949, Note_on_c, 1, 54, 0
4, 11949, Note_on_c, 1, 51, 0
4, 11952, Note_on_c, 1, 54, 64
4, 11952, Note_on_c, 1, 51, 64
4, 11997, Note_on_c, 1, 54, 0
4, 11997, Note_on_c, 1, 51, 0
4, 12000, Note_on_c, 1, 54, 64
4, 12000, Note_on_c, 1, 51, 64
4, 12045, Note_on_c, 1, 54, 0
4, 12045, Note_on_c, 1, 51, 0
4, 12048, Note_on_c, 1, 54, 64
4, 12048, Note_on_c, 1, 51, 64
4, 12093, Note_on_c, 1, 54, 0
4, 12093, Note_on_c, 1, 51, 0
4, 12144, Note_on_c, 1, 56, 64
4, 12144, Note_on_c, 1, 53, 64
4, 12189, Note_on_c, 1, 56, 0
4, 12189, Note_on_c, 1, 53, 0
4, 12192, Note_on_c, 1, 56, 65
4, 12192, Note_on_c, 1, 53, 65
4, 12237, Note_on_c, 1, 56, 0
4, 12237, Note_on_c, 1, 53, 0
4, 12240, Note_on_c, 1, 56, 65
4, 12240, Note_on_c, 1, 53, 65
4, 12285, Note_on_c, 1, 56, 0
4, 12285, Note_on_c, 1, 53, 0
4, 12288, Note_on_c, 1, 56, 66
4, 12288, Note_on_c, 1, 53, 66
4, 12333, Note_on_c, 1, 56, 0
4, 12333, Note_on_c, 1, 53, 0
4, 12336, Note_on_c, 1, 56, 66
4, 12336, Note_on_c, 1, 53, 66
4, 12381, Note_on_c, 1, 56, 0
4, 12381, Note_on_c, 1, 53, 0
4, 12432, Note_on_c, 1, 58, 67
4, 12432, Note_on_c, 1, 54, 67
4, 12477, Note_on_c, 1, 58, 0
4, 12477, Note_on_c, 1, 54, 0
4, 12480, Note_on_c, 1, 58, 68
4, 12480, Note_on_c, 1, 54, 68
4, 12525, Note_on_c, 1, 58, 0
4, 12525, Note_on_c, 1, 54, 0
4, 12528, Note_on_c, 1, 58, 68
4, 12528, Note_on_c, 1, 54, 68
4, 12573, Note_on_c, 1, 58, 0
4, 12573, Note_on_c, 1, 54, 0
4, 12576, Note_on_c, 1, 58, 69
4, 12576, Note_on_c, 1, 54, 69
4, 12621, Note_on_c, 1, 58, 0
4, 12621, Note_on_c, 1, 54, 0
4, 12624, Note_on_c, 1, 58, 69
4, 12624, Note_on_c, 1, 54, 69
4, 12669, Note_on_c, 1, 58, 0
4, 12669, Note_on_c, 1, 54, 0
4, 12720, Note_on_c, 1, 58, 70
4, 12720, Note_on_c, 1, 54, 70
4, 12765, Note_on_c, 1, 58, 0
4, 12765, Note_on_c, 1, 54, 0
4, 12768, Note_on_c, 1, 58, 70
4, 12768, Note_on_c, 1, 54, 70
4, 12813, Note_on_c, 1, 58, 0
4, 12813, Note_on_c, 1, 54, 0
4, 12816, Note_on_c, 1, 64, 70
4, 12816, Note_on_c, 1, 54, 70
4, 12861, Note_on_c, 1, 64, 0
4, 12861, Note_on_c, 1, 54, 0
4, 12864, Note_on_c, 1, 64, 70
4, 12864, Note_on_c, 1, 54, 70
4, 12909, Note_on_c, 1, 64, 0
4, 12909, Note_on_c, 1, 54, 0
4, 12912, Note_on_c, 1, 64, 70
4, 12912, Note_on_c, 1, 54, 70
4, 12957, Note_on_c, 1, 64, 0
4, 12957, Note_on_c, 1, 54, 0
4, 12960, Note_on_c, 1, 53, 70
4, 13005, Note_on_c, 1, 53, 0
4, 13008, Note_on_c, 1, 64, 70
4, 13031, Note_on_c, 1, 64, 0
4, 13032, Note_on_c, 1, 65, 70
4, 13056, Note_on_c, 1, 65, 0
4, 13056, Note_on_c, 1, 53, 70
4, 13101, Note_on_c, 1, 53, 0
4, 13248, Note_on_c, 1, 58, 75
4, 13260, Note_on_c, 1, 58, 0
4, 13260, Note_on_c, 1, 46, 73
4, 13272, Note_on_c, 1, 46, 0
4, 13272, Note_on_c, 1, 50, 72
4, 13284, Note_on_c, 1, 50, 0
4, 13284, Note_on_c, 1, 53, 70
4, 13296, Note_on_c, 1, 53, 0
4, 13296, Note_on_c, 1, 58, 69
4, 13308, Note_on_c, 1, 58, 0
4, 13308, Note_on_c, 1, 62, 68
4, 13320, Note_on_c, 1, 62, 0
4, 13320, Note_on_c, 1, 65, 66
4, 13332, Note_on_c, 1, 65, 0
4, 13332, Note_on_c, 1, 70, 65
4, 13344, Note_on_c, 1, 70, 0
4, 13440, Note_on_c, 1, 63, 64
4, 13440, Note_on_c, 1, 58, 64
4, 13529, Note_on_c, 1, 63, 0
4, 13529, Note_on_c, 1, 58, 0
4, 13536, Note_on_c, 1, 62, 64
4, 13536, Note_on_c, 1, 58, 64
4, 13625, Note_on_c, 1, 62, 0
4, 13625, Note_on_c, 1, 58, 0
4, 13824, Note_on_c, 1, 58, 64
4, 13824, Note_on_c, 1, 53, 64
4, 13824, Note_on_c, 1, 50, 64
4, 13869, Note_on_c, 1, 58, 0
4, 13869, Note_on_c, 1, 53, 0
4, 13869, Note_on_c, 1, 50, 0
4, 13920, Note_on_c, 1, 58, 64
4, 13920, Note_on_c, 1, 55, 64
4, 13920, Note_on_c, 1, 51, 64
4, 13965, Note_on_c, 1, 58, 0
4, 13965, Note_on_c, 1, 55, 0
4, 13965, Note_on_c, 1, 51, 0
4, 14016, Note_on_c, 1, 60, 64
4, 14016, Note_on_c, 1, 55, 64
4, 14016, Note_on_c, 1, 51, 64
4, 14061, Note_on_c, 1, 60, 0
4, 14061, Note_on_c, 1, 55, 0
4, 14061, Note_on_c, 1, 51, 0
4, 14112, Note_on_c, 1, 62, 64
4, 14208, Note_on_c, 1, 62, 0
4, 14208, Note_on_c, 1, 60, 64
4, 14297, Note_on_c, 1, 60, 0
4, 14448, Note_on_c, 1, 65, 64
4, 14493, Note_on_c, 1, 65, 0
4, 14496, Note_on_c, 1, 68, 64
4, 14541, Note_on_c, 1, 68, 0
4, 14544, Note_on_c, 1, 67, 64
4, 14589, Note_on_c, 1, 67, 0
4, 14592, Note_on_c, 1, 65, 64
4, 14615, Note_on_c, 1, 65, 0
4, 14616, Note_on_c, 1, 63, 64
4, 14639, Note_on_c, 1, 63, 0
4, 14640, Note_on_c, 1, 62, 64
4, 14663, Note_on_c, 1, 62, 0
4, 14664, Note_on_c, 1, 60, 64
4, 14687, Note_on_c, 1, 60, 0
4, 14688, Note_on_c, 1, 62, 64
4, 14688, Note_on_c, 1, 58, 64
4, 14777, Note_on_c, 1, 62, 0
4, 14777, Note_on_c, 1, 58, 0
4, 14832, Note_on_c, 1, 58, 64
4, 14856, Note_on_c, 1, 58, 0
4, 14856, Note_on_c, 1, 62, 64
4, 14879, Note_on_c, 1, 62, 0
4, 14880, Note_on_c, 1, 57, 64
4, 14904, Note_on_c, 1, 57, 0
4, 14904, Note_on_c, 1, 60, 64
4, 14927, Note_on_c, 1, 60, 0
4, 14928, Note_on_c, 1, 56, 64
4, 14952, Note_on_c, 1, 56, 0
4, 14952, Note_on_c, 1, 62, 64
4, 14975, Note_on_c, 1, 62, 0
4, 14976, Note_on_c, 1, 55, 64
4, 14999, Note_on_c, 1, 55, 0
4, 15000, Note_on_c, 1, 63, 65
4, 15023, Note_on_c, 1, 63, 0
4, 15120, Note_on_c, 1, 58, 72
4, 15120, Note_on_c, 1, 55, 72
4, 15165, Note_on_c, 1, 58, 0
4, 15165, Note_on_c, 1, 55, 0
4, 15168, Note_on_c, 1, 57, 74
4, 15168, Note_on_c, 1, 53, 74
4, 15213, Note_on_c, 1, 57, 0
4, 15213, Note_on_c, 1, 53, 0
4, 15216, Note_on_c, 1, 55, 77
4, 15216, Note_on_c, 1, 51, 77
4, 15261, Note_on_c, 1, 55, 0
4, 15261, Note_on_c, 1, 51, 0
4, 15264, Note_on_c, 1, 53, 80
4, 15264, Note_on_c, 1, 50, 80
4, 15309, Note_on_c, 1, 53, 0
4, 15309, Note_on_c, 1, 50, 0
4, 15312, Note_on_c, 1, 51, 80
4, 15312, Note_on_c, 1, 48, 80
4, 15357, Note_on_c, 1, 51, 0
4, 15357, Note_on_c, 1, 48, 0
4, 15360, Note_on_c, 1, 50, 80
4, 15360, Note_on_c, 1, 46, 80
4, 15405, Note_on_c, 1, 50, 0
4, 15405, Note_on_c, 1, 46, 0
4, 15552, Note_on_c, 1, 63, 64
4, 15552, Note_on_c, 1, 51, 64
4, 15641, Note_on_c, 1, 63, 0
4, 15641, Note_on_c, 1, 51, 0
4, 15648, Note_on_c, 1, 62, 64
4, 15648, Note_on_c, 1, 53, 64
4, 15737, Note_on_c, 1, 62, 0
4, 15737, Note_on_c, 1, 53, 0
4, 15744, Note_on_c, 1, 63, 64
4, 15744, Note_on_c, 1, 53, 64
4, 15840, Note_on_c, 1, 53, 0
4, 15840, Note_on_c, 1, 58, 64
4, 16032, Note_on_c, 1, 63, 0
4, 16032, Note_on_c, 1, 62, 64
4, 16099, Note_on_c, 1, 62, 0
4, 16099, Note_on_c, 1, 58, 0
4, 16128, Control_c, 1, 64, 127
4, 16128, Note_on_c, 1, 46, 93
4, 16128, Note_on_c, 1, 34, 93
4, 16217, Note_on_c, 1, 46, 0
4, 16217, Note_on_c, 1, 34, 0
4, 16320, Note_on_c, 1, 85, 80
4, 16392, Note_on_c, 1, 85, 0
4, 16392, Note_on_c, 1, 82, 80
4, 16415, Note_on_c, 1, 82, 0
4, 16416, Control_c, 1, 64, 0
4, 16416, Control_c, 1, 64, 127
4, 16416, Note_on_c, 1, 81, 80
4, 16512, Note_on_c, 1, 81, 0
4, 16512, Note_on_c, 1, 87, 80
4, 16557, Note_on_c, 1, 87, 0
4, 16704, Note_on_c, 1, 41, 93
4, 16704, Note_on_c, 1, 29, 93
4, 16793, Note_on_c, 1, 41, 0
4, 16793, Note_on_c, 1, 29, 0
4, 16896, Note_on_c, 1, 87, 80
4, 16968, Note_on_c, 1, 87, 0
4, 16968, Note_on_c, 1, 81, 80
4, 16991, Note_on_c, 1, 81, 0
4, 16992, Control_c, 1, 64, 0
4, 16992, Control_c, 1, 64, 127
4, 16992, Note_on_c, 1, 82, 80
4, 17088, Note_on_c, 1, 82, 0
4, 17088, Note_on_c, 1, 85, 80
4, 17133, Note_on_c, 1, 85, 0
4, 17280, Control_c, 1, 64, 0
4, 17280, Control_c, 1, 64, 127
4, 17280, Note_on_c, 1, 42, 93
4, 17280, Note_on_c, 1, 30, 93
4, 17369, Note_on_c, 1, 42, 0
4, 17369, Note_on_c, 1, 30, 0
4, 17472, Note_on_c, 1, 82, 80
4, 17544, Note_on_c, 1, 82, 0
4, 17544, Control_c, 1, 64, 0
4, 17544, Note_on_c, 1, 78, 80
4, 17567, Note_on_c, 1, 78, 0
4, 17568, Control_c, 1, 64, 127
4, 17568, Note_on_c, 1, 75, 80
4, 17664, Note_on_c, 1, 75, 0
4, 17664, Note_on_c, 1, 80, 80
4, 17753, Note_on_c, 1, 80, 0
4, 17856, Control_c, 1, 64, 0
4, 17856, Control_c, 1, 64, 127
4, 17856, Note_on_c, 1, 77, 80
4, 17952, Note_on_c, 1, 77, 0
4, 17952, Note_on_c, 1, 85, 80
4, 18041, Note_on_c, 1, 85, 0
4, 18144, Control_c, 1, 64, 0
4, 18144, Control_c, 1, 64, 127
4, 18144, Note_on_c, 1, 79, 80
4, 18240, Note_on_c, 1, 79, 0
4, 18240, Note_on_c, 1, 85, 80
4, 18329, Note_on_c, 1, 85, 0
4, 18432, Control_c, 1, 64, 0
4, 18432, Control_c, 1, 64, 127
4, 18432, Note_on_c, 1, 44, 93
4, 18432, Note_on_c, 1, 32, 93
4, 18697, Note_on_c, 1, 44, 0
4, 18697, Note_on_c, 1, 32, 0
4, 18720, Control_c, 1, 64, 0
4, 18720, Control_c, 1, 64, 127
4, 18720, Note_on_c, 1, 37, 80
4, 18735, Note_on_c, 1, 37, 0
4, 18736, Note_on_c, 1, 41, 80
4, 18751, Note_on_c, 1, 41, 0
4, 18752, Note_on_c, 1, 44, 80
4, 18767, Note_on_c, 1, 44, 0
4, 18768, Note_on_c, 1, 49, 80
4, 18783, Note_on_c, 1, 49, 0
4, 18784, Note_on_c, 1, 44, 80
4, 18799, Note_on_c, 1, 44, 0
4, 18800, Note_on_c, 1, 41, 80
4, 18815, Note_on_c, 1, 41, 0
4, 18816, Note_on_c, 1, 37, 80
4, 18831, Note_on_c, 1, 37, 0
4, 18832, Note_on_c, 1, 41, 79
4, 18847, Note_on_c, 1, 41, 0
4, 18848, Note_on_c, 1, 44, 78
4, 18863, Note_on_c, 1, 44, 0
4, 18864, Note_on_c, 1, 49, 78
4, 18879, Note_on_c, 1, 49, 0
4, 18880, Note_on_c, 1, 44, 77
4, 18895, Note_on_c, 1, 44, 0
4, 18896, Note_on_c, 1, 41, 76
4, 18911, Note_on_c, 1, 41, 0
4, 18912, Control_c, 1, 64, 0
4, 18912, Note_on_c, 1, 37, 76
4, 18935, Note_on_c, 1, 37, 0
4, 18936, Note_on_c, 1, 49, 75
4, 18959, Note_on_c, 1, 49, 0
4, 18960, Note_on_c, 1, 36, 73
4, 18983, Note_on_c, 1, 36, 0
4, 18984, Note_on_c, 1, 48, 72
4, 19007, Note_on_c, 1, 48, 0
4, 19008, Control_c, 1, 64, 127
4, 19008, Note_on_c, 1, 46, 93
4, 19008, Note_on_c, 1, 34, 93
4, 19097, Note_on_c, 1, 46, 0
4, 19097, Note_on_c, 1, 34, 0
4, 19200, Note_on_c, 1, 85, 80
4, 19272, Note_on_c, 1, 85, 0
4, 19272, Note_on_c, 1, 82, 80
4, 19295, Note_on_c, 1, 82, 0
4, 19296, Control_c, 1, 64, 0
4, 19296, Control_c, 1, 64, 127
4, 19296, Note_on_c, 1, 81, 80
4, 19392, Note_on_c, 1, 81, 0
4, 19392, Note_on_c, 1, 87, 80
4, 19437, Note_on_c, 1, 87, 0
4, 19584, Note_on_c, 1, 41, 93
4, 19584, Note_on_c, 1, 29, 93
4, 19673, Note_on_c, 1, 41, 0
4, 19673, Note_on_c, 1, 29, 0
4, 19776, Note_on_c, 1, 87, 80
4, 19848, Note_on_c, 1, 87, 0
4, 19848, Note_on_c, 1, 81, 80
4, 19871, Note_on_c, 1, 81, 0
4, 19872, Control_c, 1, 64, 0
4, 19872, Control_c, 1, 64, 127
4, 19872, Note_on_c, 1, 82, 80
4, 19968, Note_on_c, 1, 82, 0
4, 19968, Note_on_c, 1, 85, 80
4, 20013, Note_on_c, 1, 85, 0
4, 20160, Control_c, 1, 64, 0
4, 20160, Control_c, 1, 64, 127
4, 20160, Note_on_c, 1, 42, 93
4, 20160, Note_on_c, 1, 30, 93
4, 20249, Note_on_c, 1, 42, 0
4, 20249, Note_on_c, 1, 30, 0
4, 20352, Note_on_c, 1, 82, 80
4, 20424, Note_on_c, 1, 82, 0
4, 20424, Control_c, 1, 64, 0
4, 20424, Note_on_c, 1, 78, 80
4, 20447, Note_on_c, 1, 78, 0
4, 20448, Control_c, 1, 64, 127
4, 20448, Note_on_c, 1, 75, 80
4, 20544, Note_on_c, 1, 75, 0
4, 20544, Note_on_c, 1, 80, 80
4, 20633, Note_on_c, 1, 80, 0
4, 20736, Control_c, 1, 64, 0
4, 20736, Control_c, 1, 64, 127
4, 20736, Note_on_c, 1, 77, 80
4, 20832, Note_on_c, 1, 77, 0
4, 20832, Note_on_c, 1, 85, 80
4, 20921, Note_on_c, 1, 85, 0
4, 21024, Control_c, 1, 64, 0
4, 21024, Control_c, 1, 64, 127
4, 21024, Note_on_c, 1, 79, 80
4, 21120, Note_on_c, 1, 79, 0
4, 21120, Note_on_c, 1, 85, 80
4, 21209, Note_on_c, 1, 85, 0
4, 21312, Control_c, 1, 64, 0
4, 21312, Control_c, 1, 64, 127
4, 21312, Note_on_c, 1, 44, 93
4, 21312, Note_on_c, 1, 32, 93
4, 21577, Note_on_c, 1, 44, 0
4, 21577, Note_on_c, 1, 32, 0
4, 21600, Control_c, 1, 64, 0
4, 21600, Control_c, 1, 64, 127
4, 21600, Note_on_c, 1, 49, 70
4, 21615, Note_on_c, 1, 49, 0
4, 21616, Note_on_c, 1, 53, 69
4, 21631, Note_on_c, 1, 53, 0
4, 21632, Note_on_c, 1, 56, 68
4, 21647, Note_on_c, 1, 56, 0
4, 21648, Note_on_c, 1, 61, 67
4, 21663, Note_on_c, 1, 61, 0
4, 21664, Note_on_c, 1, 56, 67
4, 21679, Note_on_c, 1, 56, 0
4, 21680, Note_on_c, 1, 53, 66
4, 21695, Note_on_c, 1, 53, 0
4, 21696, Note_on_c, 1, 49, 64
4, 21711, Note_on_c, 1, 49, 0
4, 21712, Note_on_c, 1, 53, 64
4, 21727, Note_on_c, 1, 53, 0
4, 21728, Note_on_c, 1, 56, 64
4, 21743, Note_on_c, 1, 56, 0
4, 21744, Note_on_c, 1, 61, 64
4, 21759, Note_on_c, 1, 61, 0
4, 21760, Note_on_c, 1, 56, 64
4, 21775, Note_on_c, 1, 56, 0
4, 21776, Note_on_c, 1, 53, 64
4, 21791, Note_on_c, 1, 53, 0
4, 21792, Note_on_c, 1, 49, 64
4, 21807, Note_on_c, 1, 49, 0
4, 21808, Note_on_c, 1, 53, 64
4, 21823, Note_on_c, 1, 53, 0
4, 21824, Note_on_c, 1, 56, 64
4, 21839, Note_on_c, 1, 56, 0
4, 21840, Note_on_c, 1, 61, 64
4, 21855, Note_on_c, 1, 61, 0
4, 21856, Note_on_c, 1, 56, 64
4, 21871, Note_on_c, 1, 56, 0
4, 21872, Note_on_c, 1, 53, 64
4, 21887, Note_on_c, 1, 53, 0
4, 21888, Control_c, 1, 64, 0
4, 21888, Control_c, 1, 64, 127
4, 21888, Note_on_c, 1, 51, 64
4, 21903, Note_on_c, 1, 51, 0
4, 21904, Note_on_c, 1, 54, 64
4, 21919, Note_on_c, 1, 54, 0
4, 21920, Note_on_c, 1, 56, 64
4, 21935, Note_on_c, 1, 56, 0
4, 21936, Note_on_c, 1, 60, 64
4, 21951, Note_on_c, 1, 60, 0
4, 21952, Note_on_c, 1, 56, 64
4, 21967, Note_on_c, 1, 56, 0
4, 21968, Note_on_c, 1, 54, 64
4, 21983, Note_on_c, 1, 54, 0
4, 21984, Note_on_c, 1, 51, 64
4, 21999, Note_on_c, 1, 51, 0
4, 22000, Note_on_c, 1, 54, 64
4, 22015, Note_on_c, 1, 54, 0
4, 22016, Note_on_c, 1, 56, 64
4, 22031, Note_on_c, 1, 56, 0
4, 22032, Note_on_c, 1, 60, 64
4, 22047, Note_on_c, 1, 60, 0
4, 22048, Note_on_c, 1, 56, 64
4, 22063, Note_on_c, 1, 56, 0
4, 22064, Note_on_c, 1, 54, 64
4, 22079, Note_on_c, 1, 54, 0
4, 22080, Note_on_c, 1, 51, 64
4, 22095, Note_on_c, 1, 51, 0
4, 22096, Note_on_c, 1, 54, 64
4, 22111, Note_on_c, 1, 54, 0
4, 22112, Note_on_c, 1, 56, 64
4, 22127, Note_on_c, 1, 56, 0
4, 22128, Note_on_c, 1, 60, 64
4, 22143, Note_on_c, 1, 60, 0
4, 22144, Note_on_c, 1, 56, 64
4, 22159, Note_on_c, 1, 56, 0
4, 22160, Note_on_c, 1, 54, 64
4, 22175, Note_on_c, 1, 54, 0
4, 22176, Control_c, 1, 64, 0
4, 22176, Control_c, 1, 64, 127
4, 22176, Note_on_c, 1, 53, 64
4, 22191, Note_on_c, 1, 53, 0
4, 22192, Note_on_c, 1, 56, 64
4, 22207, Note_on_c, 1, 56, 0
4, 22208, Note_on_c, 1, 61, 64
4, 22223, Note_on_c, 1, 61, 0
4, 22224, Note_on_c, 1, 65, 64
4, 22239, Note_on_c, 1, 65, 0
4, 22240, Note_on_c, 1, 61, 64
4, 22255, Note_on_c, 1, 61, 0
4, 22256, Note_on_c, 1, 56, 64
4, 22271, Note_on_c, 1, 56, 0
4, 22272, Note_on_c, 1, 53, 64
4, 22287, Note_on_c, 1, 53, 0
4, 22288, Note_on_c, 1, 56, 64
4, 22303, Note_on_c, 1, 56, 0
4, 22304, Note_on_c, 1, 61, 64
4, 22319, Note_on_c, 1, 61, 0
4, 22320, Note_on_c, 1, 65, 64
4, 22335, Note_on_c, 1, 65, 0
4, 22336, Note_on_c, 1, 61, 64
4, 22351, Note_on_c, 1, 61, 0
4, 22352, Note_on_c, 1, 56, 64
4, 22367, Note_on_c, 1, 56, 0
4, 22368, Note_on_c, 1, 53, 64
4, 22383, Note_on_c, 1, 53, 0
4, 22384, Note_on_c, 1, 56, 65
4, 22399, Note_on_c, 1, 56, 0
4, 22400, Note_on_c, 1, 61, 65
4, 22415, Note_on_c, 1, 61, 0
4, 22416, Note_on_c, 1, 65, 65
4, 22431, Note_on_c, 1, 65, 0
4, 22432, Note_on_c, 1, 61, 65
4, 22447, Note_on_c, 1, 61, 0
4, 22448, Note_on_c, 1, 56, 65
4, 22463, Note_on_c, 1, 56, 0
4, 22464, Control_c, 1, 64, 0
4, 22464, Control_c, 1, 64, 127
4, 22464, Note_on_c, 1, 53, 65
4, 22479, Note_on_c, 1, 53, 0
4, 22480, Note_on_c, 1, 56, 65
4, 22495, Note_on_c, 1, 56, 0
4, 22496, Note_on_c, 1, 59, 66
4, 22511, Note_on_c, 1, 59, 0
4, 22512, Note_on_c, 1, 62, 66
4, 22527, Note_on_c, 1, 62, 0
4, 22528, Note_on_c, 1, 59, 66
4, 22543, Note_on_c, 1, 59, 0
4, 22544, Note_on_c, 1, 56, 66
4, 22559, Note_on_c, 1, 56, 0
4, 22560, Note_on_c, 1, 53, 66
4, 22575, Note_on_c, 1, 53, 0
4, 22576, Note_on_c, 1, 56, 66
4, 22591, Note_on_c, 1, 56, 0
4, 22592, Note_on_c, 1, 59, 67
4, 22607, Note_on_c, 1, 59, 0
4, 22608, Note_on_c, 1, 62, 67
4, 22623, Note_on_c, 1, 62, 0
4, 22624, Note_on_c, 1, 59, 67
4, 22639, Note_on_c, 1, 59, 0
4, 22640, Note_on_c, 1, 56, 67
4, 22655, Note_on_c, 1, 56, 0
4, 22656, Note_on_c, 1, 53, 67
4, 22671, Note_on_c, 1, 53, 0
4, 22672, Note_on_c, 1, 56, 67
4, 22687, Note_on_c, 1, 56, 0
4, 22688, Note_on_c, 1, 59, 67
4, 22703, Note_on_c, 1, 59, 0
4, 22704, Note_on_c, 1, 62, 68
4, 22719, Note_on_c, 1, 62, 0
4, 22720, Note_on_c, 1, 59, 68
4, 22735, Note_on_c, 1, 59, 0
4, 22736, Note_on_c, 1, 56, 68
4, 22751, Note_on_c, 1, 56, 0
4, 22752, Control_c, 1, 64, 0
4, 22752, Control_c, 1, 64, 127
4, 22752, Note_on_c, 1, 54, 68
4, 22767, Note_on_c, 1, 54, 0
4, 22768, Note_on_c, 1, 58, 68
4, 22783, Note_on_c, 1, 58, 0
4, 22784, Note_on_c, 1, 63, 68
4, 22799, Note_on_c, 1, 63, 0
4, 22800, Note_on_c, 1, 66, 69
4, 22815, Note_on_c, 1, 66, 0
4, 22816, Note_on_c, 1, 63, 69
4, 22831, Note_on_c, 1, 63, 0
4, 22832, Note_on_c, 1, 58, 69
4, 22847, Note_on_c, 1, 58, 0
4, 22848, Note_on_c, 1, 54, 69
4, 22863, Note_on_c, 1, 54, 0
4, 22864, Note_on_c, 1, 58, 69
4, 22879, Note_on_c, 1, 58, 0
4, 22880, Note_on_c, 1, 63, 69
4, 22895, Note_on_c, 1, 63, 0
4, 22896, Note_on_c, 1, 66, 69
4, 22911, Note_on_c, 1, 66, 0
4, 22912, Note_on_c, 1, 63, 70
4, 22927, Note_on_c, 1, 63, 0
4, 22928, Note_on_c, 1, 58, 70
4, 22943, Note_on_c, 1, 58, 0
4, 22944, Note_on_c, 1, 54, 70
4, 22959, Note_on_c, 1, 54, 0
4, 22960, Note_on_c, 1, 58, 70
4, 22975, Note_on_c, 1, 58, 0
4, 22976, Note_on_c, 1, 63, 70
4, 22991, Note_on_c, 1, 63, 0
4, 22992, Note_on_c, 1, 66, 70
4, 23007, Note_on_c, 1, 66, 0
4, 23008, Note_on_c, 1, 63, 71
4, 23023, Note_on_c, 1, 63, 0
4, 23024, Note_on_c, 1, 58, 71
4, 23039, Note_on_c, 1, 58, 0
4, 23040, Control_c, 1, 64, 0
4, 23040, Control_c, 1, 64, 127
4, 23040, Note_on_c, 1, 55, 71
4, 23055, Note_on_c, 1, 55, 0
4, 23056, Note_on_c, 1, 58, 71
4, 23071, Note_on_c, 1, 58, 0
4, 23072, Note_on_c, 1, 61, 71
4, 23087, Note_on_c, 1, 61, 0
4, 23088, Note_on_c, 1, 64, 71
4, 23103, Note_on_c, 1, 64, 0
4, 23104, Note_on_c, 1, 61, 71
4, 23119, Note_on_c, 1, 61, 0
4, 23120, Note_on_c, 1, 58, 72
4, 23135, Note_on_c, 1, 58, 0
4, 23136, Note_on_c, 1, 55, 75
4, 23151, Note_on_c, 1, 55, 0
4, 23152, Note_on_c, 1, 58, 75
4, 23167, Note_on_c, 1, 58, 0
4, 23168, Note_on_c, 1, 61, 75
4, 23183, Note_on_c, 1, 61, 0
4, 23184, Note_on_c, 1, 64, 75
4, 23199, Note_on_c, 1, 64, 0
4, 23200, Note_on_c, 1, 61, 75
4, 23215, Note_on_c, 1, 61, 0
4, 23216, Note_on_c, 1, 58, 75
4, 23231, Note_on_c, 1, 58, 0
4, 23232, Note_on_c, 1, 55, 75
4, 23247, Note_on_c, 1, 55, 0
4, 23248, Note_on_c, 1, 58, 75
4, 23263, Note_on_c, 1, 58, 0
4, 23264, Note_on_c, 1, 61, 75
4, 23279, Note_on_c, 1, 61, 0
4, 23280, Note_on_c, 1, 64, 75
4, 23295, Note_on_c, 1, 64, 0
4, 23296, Note_on_c, 1, 61, 75
4, 23311, Note_on_c, 1, 61, 0
4, 23312, Note_on_c, 1, 58, 75
4, 23327, Note_on_c, 1, 58, 0
4, 23328, Control_c, 1, 64, 0
4, 23328, Control_c, 1, 64, 127
4, 23328, Note_on_c, 1, 53, 75
4, 23343, Note_on_c, 1, 53, 0
4, 23344, Note_on_c, 1, 57, 75
4, 23359, Note_on_c, 1, 57, 0
4, 23360, Note_on_c, 1, 60, 75
4, 23375, Note_on_c, 1, 60, 0
4, 23376, Note_on_c, 1, 65, 75
4, 23391, Note_on_c, 1, 65, 0
4, 23392, Note_on_c, 1, 60, 75
4, 23407, Note_on_c, 1, 60, 0
4, 23408, Note_on_c, 1, 57, 75
4, 23423, Note_on_c, 1, 57, 0
4, 23424, Note_on_c, 1, 53, 75
4, 23439, Note_on_c, 1, 53, 0
4, 23440, Note_on_c, 1, 57, 75
4, 23455, Note_on_c, 1, 57, 0
4, 23456, Note_on_c, 1, 60, 75
4, 23471, Note_on_c, 1, 60, 0
4, 23472, Note_on_c, 1, 65, 75
4, 23487, Note_on_c, 1, 65, 0
4, 23488, Note_on_c, 1, 60, 75
4, 23503, Note_on_c, 1, 60, 0
4, 23504, Note_on_c, 1, 57, 75
4, 23519, Note_on_c, 1, 57, 0
4, 23520, Control_c, 1, 64, 0
4, 23520, Control_c, 1, 64, 127
4, 23520, Control_c, 1, 64, 127
4, 23520, Note_on_c, 1, 53, 75
4, 23535, Note_on_c, 1, 53, 0
4, 23536, Note_on_c, 1, 58, 75
4, 23551, Note_on_c, 1, 58, 0
4, 23552, Note_on_c, 1, 61, 75
4, 23567, Note_on_c, 1, 61, 0
4, 23568, Note_on_c, 1, 64, 75
4, 23583, Note_on_c, 1, 64, 0
4, 23584, Note_on_c, 1, 61, 75
4, 23599, Note_on_c, 1, 61, 0
4, 23600, Note_on_c, 1, 58, 75
4, 23615, Note_on_c, 1, 58, 0
4, 23616, Control_c, 1, 64, 0
4, 23616, Control_c, 1, 64, 0
4, 23616, Control_c, 1, 64, 127
4, 23616, Note_on_c, 1, 53, 75
4, 23631, Note_on_c, 1, 53, 0
4, 23632, Note_on_c, 1, 57, 75
4, 23647, Note_on_c, 1, 57, 0
4, 23648, Note_on_c, 1, 60, 75
4, 23663, Note_on_c, 1, 60, 0
4, 23664, Note_on_c, 1, 65, 75
4, 23679, Note_on_c, 1, 65, 0
4, 23680, Note_on_c, 1, 60, 75
4, 23695, Note_on_c, 1, 60, 0
4, 23696, Note_on_c, 1, 57, 75
4, 23711, Note_on_c, 1, 57, 0
4, 23712, Note_on_c, 1, 53, 75
4, 23727, Note_on_c, 1, 53, 0
4, 23728, Note_on_c, 1, 57, 75
4, 23743, Note_on_c, 1, 57, 0
4, 23744, Note_on_c, 1, 60, 75
4, 23759, Note_on_c, 1, 60, 0
4, 23760, Note_on_c, 1, 65, 75
4, 23775, Note_on_c, 1, 65, 0
4, 23776, Note_on_c, 1, 60, 75
4, 23791, Note_on_c, 1, 60, 0
4, 23792, Note_on_c, 1, 57, 75
4, 23807, Note_on_c, 1, 57, 0
4, 23808, Control_c, 1, 64, 0
4, 23808, Control_c, 1, 64, 127
4, 23808, Note_on_c, 1, 53, 75
4, 23823, Note_on_c, 1, 53, 0
4, 23824, Note_on_c, 1, 58, 75
4, 23839, Note_on_c, 1, 58, 0
4, 23840, Note_on_c, 1, 61, 75
4, 23855, Note_on_c, 1, 61, 0
4, 23856, Note_on_c, 1, 64, 75
4, 23871, Note_on_c, 1, 64, 0
4, 23872, Note_on_c, 1, 61, 75
4, 23887, Note_on_c, 1, 61, 0
4, 23888, Note_on_c, 1, 58, 75
4, 23903, Note_on_c, 1, 58, 0
4, 23904, Control_c, 1, 64, 0
4, 23904, Control_c, 1, 64, 127
4, 23904, Note_on_c, 1, 53, 75
4, 23919, Note_on_c, 1, 53, 0
4, 23920, Note_on_c, 1, 57, 75
4, 23935, Note_on_c, 1, 57, 0
4, 23936, Note_on_c, 1, 60, 75
4, 23951, Note_on_c, 1, 60, 0
4, 23952, Note_on_c, 1, 65, 75
4, 23967, Note_on_c, 1, 65, 0
4, 23968, Note_on_c, 1, 60, 75
4, 23983, Note_on_c, 1, 60, 0
4, 23984, Note_on_c, 1, 57, 75
4, 23999, Note_on_c, 1, 57, 0
4, 24000, Note_on_c, 1, 53, 75
4, 24015, Note_on_c, 1, 53, 0
4, 24016, Note_on_c, 1, 57, 74
4, 24031, Note_on_c, 1, 57, 0
4, 24032, Note_on_c, 1, 60, 73
4, 24047, Note_on_c, 1, 60, 0
4, 24048, Note_on_c, 1, 65, 72
4, 24063, Note_on_c, 1, 65, 0
4, 24064, Note_on_c, 1, 60, 72
4, 24079, Note_on_c, 1, 60, 0
4, 24080, Note_on_c, 1, 57, 71
4, 24095, Note_on_c, 1, 57, 0
4, 24096, Control_c, 1, 64, 0
4, 24096, Control_c, 1, 64, 127
4, 24096, Note_on_c, 1, 53, 70
4, 24111, Note_on_c, 1, 53, 0
4, 24112, Note_on_c, 1, 58, 70
4, 24127, Note_on_c, 1, 58, 0
4, 24128, Note_on_c, 1, 61, 69
4, 24143, Note_on_c, 1, 61, 0
4, 24144, Note_on_c, 1, 64, 68
4, 24159, Note_on_c, 1, 64, 0
4, 24160, Note_on_c, 1, 61, 68
4, 24175, Note_on_c, 1, 61, 0
4, 24176, Note_on_c, 1, 58, 67
4, 24191, Note_on_c, 1, 58, 0
4, 24192, Control_c, 1, 64, 0
4, 24192, Control_c, 1, 64, 127
4, 24192, Note_on_c, 1, 53, 64
4, 24281, Note_on_c, 1, 53, 0
4, 24480, Note_on_c, 1, 29, 80
4, 24657, Note_on_c, 1, 29, 0
4, 24672, Control_c, 1, 64, 0
4, 25056, Control_c, 1, 64, 127
4, 25056, Note_on_c, 1, 63, 80
4, 25056, Note_on_c, 1, 60, 80
4, 25056, Note_on_c, 1, 57, 80
4, 25233, Note_on_c, 1, 63, 0
4, 25233, Note_on_c, 1, 60, 0
4, 25233, Note_on_c, 1, 57, 0
4, 25344, Note_on_c, 1, 57, 93
4, 25356, Note_on_c, 1, 60, 93
4, 25368, Note_on_c, 1, 63, 93
4, 25809, Note_on_c, 1, 63, 0
4, 25809, Note_on_c, 1, 60, 0
4, 25809, Note_on_c, 1, 57, 0
4, 25824, Control_c, 1, 64, 0
4, 25920, Note_on_c, 1, 65, 64
4, 26097, Note_on_c, 1, 65, 0
4, 26112, Note_on_c, 1, 63, 64
4, 26201, Note_on_c, 1, 63, 0
4, 26208, Note_on_c, 1, 62, 64
4, 26341, Note_on_c, 1, 62, 0
4, 26496, Note_on_c, 1, 58, 64
4, 26673, Note_on_c, 1, 58, 0
4, 26688, Note_on_c, 1, 60, 64
4, 26777, Note_on_c, 1, 60, 0
4, 26784, Note_on_c, 1, 62, 64
4, 26873, Note_on_c, 1, 62, 0
4, 26880, Note_on_c, 1, 60, 64
4, 26969, Note_on_c, 1, 60, 0
4, 27072, Note_on_c, 1, 65, 64
4, 27249, Note_on_c, 1, 65, 0
4, 27264, Note_on_c, 1, 63, 64
4, 27353, Note_on_c, 1, 63, 0
4, 27360, Note_on_c, 1, 62, 64
4, 27493, Note_on_c, 1, 62, 0
4, 27648, Note_on_c, 1, 58, 64
4, 27648, Note_on_c, 1, 55, 64
4, 27648, Note_on_c, 1, 48, 64
4, 27913, Note_on_c, 1, 58, 0
4, 27913, Note_on_c, 1, 55, 0
4, 27913, Note_on_c, 1, 48, 0
4, 27936, Note_on_c, 1, 58, 64
4, 28032, Note_on_c, 1, 58, 0
4, 28032, Note_on_c, 1, 57, 64
4, 28121, Note_on_c, 1, 57, 0
4, 28272, Note_on_c, 1, 51, 64
4, 28317, Note_on_c, 1, 51, 0
4, 28320, Note_on_c, 1, 51, 64
4, 28365, Note_on_c, 1, 51, 0
4, 28368, Note_on_c, 1, 51, 64
4, 28413, Note_on_c, 1, 51, 0
4, 28416, Note_on_c, 1, 51, 64
4, 28461, Note_on_c, 1, 51, 0
4, 28464, Note_on_c, 1, 51, 64
4, 28509, Note_on_c, 1, 51, 0
4, 28560, Note_on_c, 1, 50, 64
4, 28605, Note_on_c, 1, 50, 0
4, 28608, Note_on_c, 1, 50, 64
4, 28653, Note_on_c, 1, 50, 0
4, 28656, Note_on_c, 1, 50, 64
4, 28701, Note_on_c, 1, 50, 0
4, 28704, Note_on_c, 1, 50, 64
4, 28749, Note_on_c, 1, 50, 0
4, 28752, Note_on_c, 1, 50, 64
4, 28797, Note_on_c, 1, 50, 0
4, 28800, Note_on_c, 1, 45, 64
4, 28800, Note_on_c, 1, 41, 64
4, 28889, Note_on_c, 1, 45, 0
4, 28889, Note_on_c, 1, 41, 0
4, 28944, Note_on_c, 1, 57, 64
4, 28989, Note_on_c, 1, 57, 0
4, 28992, Note_on_c, 1, 58, 64
4, 29037, Note_on_c, 1, 58, 0
4, 29040, Note_on_c, 1, 64, 64
4, 29085, Note_on_c, 1, 64, 0
4, 29088, Note_on_c, 1, 65, 64
4, 29177, Note_on_c, 1, 65, 0
4, 29232, Note_on_c, 1, 43, 64
4, 29277, Note_on_c, 1, 43, 0
4, 29280, Note_on_c, 1, 41, 67
4, 29325, Note_on_c, 1, 41, 0
4, 29328, Note_on_c, 1, 39, 71
4, 29373, Note_on_c, 1, 39, 0
4, 29376, Note_on_c, 1, 37, 80
4, 29421, Note_on_c, 1, 37, 0
4, 29424, Note_on_c, 1, 53, 64
4, 29424, Note_on_c, 1, 49, 64
4, 29469, Note_on_c, 1, 53, 0
4, 29469, Note_on_c, 1, 49, 0
4, 29472, Note_on_c, 1, 53, 64
4, 29472, Note_on_c, 1, 49, 64
4, 29517, Note_on_c, 1, 53, 0
4, 29517, Note_on_c, 1, 49, 0
4, 29520, Note_on_c, 1, 53, 64
4, 29520, Note_on_c, 1, 49, 64
4, 29565, Note_on_c, 1, 53, 0
4, 29565, Note_on_c, 1, 49, 0
4, 29568, Note_on_c, 1, 53, 64
4, 29568, Note_on_c, 1, 49, 64
4, 29613, Note_on_c, 1, 53, 0
4, 29613, Note_on_c, 1, 49, 0
4, 29616, Note_on_c, 1, 53, 64
4, 29616, Note_on_c, 1, 49, 64
4, 29661, Note_on_c, 1, 53, 0
4, 29661, Note_on_c, 1, 49, 0
4, 29712, Note_on_c, 1, 54, 64
4, 29712, Note_on_c, 1, 51, 64
4, 29757, Note_on_c, 1, 54, 0
4, 29757, Note_on_c, 1, 51, 0
4, 29760, Note_on_c, 1, 54, 64
4, 29760, Note_on_c, 1, 51, 64
4, 29805, Note_on_c, 1, 54, 0
4, 29805, Note_on_c, 1, 51, 0
4, 29808, Note_on_c, 1, 54, 64
4, 29808, Note_on_c, 1, 51, 64
4, 29853, Note_on_c, 1, 54, 0
4, 29853, Note_on_c, 1, 51, 0
4, 29856, Note_on_c, 1, 54, 64
4, 29856, Note_on_c, 1, 51, 64
4, 29901, Note_on_c, 1, 54, 0
4, 29901, Note_on_c, 1, 51, 0
4, 29904, Note_on_c, 1, 54, 64
4, 29904, Note_on_c, 1, 51, 64
4, 29949, Note_on_c, 1, 54, 0
4, 29949, Note_on_c, 1, 51, 0
4, 30000, Note_on_c, 1, 56, 65
4, 30000, Note_on_c, 1, 53, 65
4, 30045, Note_on_c, 1, 56, 0
4, 30045, Note_on_c, 1, 53, 0
4, 30048, Note_on_c, 1, 56, 66
4, 30048, Note_on_c, 1, 53, 66
4, 30093, Note_on_c, 1, 56, 0
4, 30093, Note_on_c, 1, 53, 0
4, 30096, Note_on_c, 1, 56, 68
4, 30096, Note_on_c, 1, 53, 68
4, 30141, Note_on_c, 1, 56, 0
4, 30141, Note_on_c, 1, 53, 0
4, 30144, Note_on_c, 1, 56, 69
4, 30144, Note_on_c, 1, 53, 69
4, 30189, Note_on_c, 1, 56, 0
4, 30189, Note_on_c, 1, 53, 0
4, 30192, Note_on_c, 1, 56, 70
4, 30192, Note_on_c, 1, 53, 70
4, 30237, Note_on_c, 1, 56, 0
4, 30237, Note_on_c, 1, 53, 0
4, 30288, Note_on_c, 1, 58, 73
4, 30288, Note_on_c, 1, 54, 73
4, 30333, Note_on_c, 1, 58, 0
4, 30333, Note_on_c, 1, 54, 0
4, 30336, Note_on_c, 1, 58, 74
4, 30336, Note_on_c, 1, 54, 74
4, 30381, Note_on_c, 1, 58, 0
4, 30381, Note_on_c, 1, 54, 0
4, 30384, Note_on_c, 1, 58, 76
4, 30384, Note_on_c, 1, 54, 76
4, 30429, Note_on_c, 1, 58, 0
4, 30429, Note_on_c, 1, 54, 0
4, 30432, Note_on_c, 1, 58, 77
4, 30432, Note_on_c, 1, 54, 77
4, 30477, Note_on_c, 1, 58, 0
4, 30477, Note_on_c, 1, 54, 0
4, 30480, Note_on_c, 1, 58, 78
4, 30480, Note_on_c, 1, 54, 78
4, 30525, Note_on_c, 1, 58, 0
4, 30525, Note_on_c, 1, 54, 0
4, 30576, Note_on_c, 1, 64, 80
4, 30576, Note_on_c, 1, 58, 80
4, 30576, Note_on_c, 1, 54, 80
4, 30621, Note_on_c, 1, 64, 0
4, 30621, Note_on_c, 1, 58, 0
4, 30621, Note_on_c, 1, 54, 0
4, 30624, Note_on_c, 1, 64, 80
4, 30624, Note_on_c, 1, 58, 80
4, 30624, Note_on_c, 1, 54, 80
4, 30669, Note_on_c, 1, 64, 0
4, 30669, Note_on_c, 1, 58, 0
4, 30669, Note_on_c, 1, 54, 0
4, 30672, Note_on_c, 1, 64, 80
4, 30672, Note_on_c, 1, 58, 80
4, 30672, Note_on_c, 1, 54, 80
4, 30717, Note_on_c, 1, 64, 0
4, 30717, Note_on_c, 1, 58, 0
4, 30717, Note_on_c, 1, 54, 0
4, 30720, Note_on_c, 1, 64, 80
4, 30720, Note_on_c, 1, 58, 80
4, 30720, Note_on_c, 1, 54, 80
4, 30765, Note_on_c, 1, 64, 0
4, 30765, Note_on_c, 1, 58, 0
4, 30765, Note_on_c, 1, 54, 0
4, 30768, Note_on_c, 1, 58, 80
4, 30768, Note_on_c, 1, 54, 80
4, 30813, Note_on_c, 1, 58, 0
4, 30813, Note_on_c, 1, 54, 0
4, 30816, Note_on_c, 1, 58, 80
4, 30912, Note_on_c, 1, 58, 0
4, 30912, Note_on_c, 1, 57, 80
4, 31001, Note_on_c, 1, 57, 0
4, 31104, Note_on_c, 1, 65, 64
4, 31281, Note_on_c, 1, 65, 0
4, 31296, Note_on_c, 1, 63, 64
4, 31385, Note_on_c, 1, 63, 0
4, 31392, Note_on_c, 1, 62, 64
4, 31525, Note_on_c, 1, 62, 0
4, 31680, Note_on_c, 1, 65, 64
4, 31680, Note_on_c, 1, 62, 64
4, 31725, Note_on_c, 1, 65, 0
4, 31725, Note_on_c, 1, 62, 0
4, 31776, Note_on_c, 1, 67, 64
4, 31776, Note_on_c, 1, 63, 64
4, 31821, Note_on_c, 1, 67, 0
4, 31821, Note_on_c, 1, 63, 0
4, 31968, Note_on_c, 1, 62, 75
4, 32057, Note_on_c, 1, 62, 0
4, 32064, Note_on_c, 1, 60, 71
4, 32109, Note_on_c, 1, 60, 0
4, 32112, Note_on_c, 1, 58, 69
4, 32157, Note_on_c, 1, 58, 0
4, 32160, Note_on_c, 1, 57, 67
4, 32205, Note_on_c, 1, 57, 0
4, 32208, Note_on_c, 1, 60, 65
4, 32253, Note_on_c, 1, 60, 0
4, 32280, Note_on_c, 1, 46, 64
4, 32303, Note_on_c, 1, 46, 0
4, 32304, Note_on_c, 1, 50, 64
4, 32327, Note_on_c, 1, 50, 0
4, 32328, Note_on_c, 1, 53, 64
4, 32351, Note_on_c, 1, 53, 0
4, 32352, Note_on_c, 1, 58, 64
4, 32375, Note_on_c, 1, 58, 0
4, 32376, Note_on_c, 1, 62, 64
4, 32399, Note_on_c, 1, 62, 0
4, 32400, Note_on_c, 1, 65, 64
4, 32423, Note_on_c, 1, 65, 0
4, 32424, Note_on_c, 1, 67, 64
4, 32447, Note_on_c, 1, 67, 0
4, 32448, Note_on_c, 1, 65, 64
4, 32471, Note_on_c, 1, 65, 0
4, 32472, Note_on_c, 1, 63, 64
4, 32495, Note_on_c, 1, 63, 0
4, 32496, Note_on_c, 1, 62, 64
4, 32519, Note_on_c, 1, 62, 0
4, 32520, Note_on_c, 1, 60, 64
4, 32543, Note_on_c, 1, 60, 0
4, 32544, Note_on_c, 1, 58, 64
4, 32633, Note_on_c, 1, 58, 0
4, 32664, Note_on_c, 1, 58, 64
4, 32687, Note_on_c, 1, 58, 0
4, 32688, Note_on_c, 1, 57, 64
4, 32711, Note_on_c, 1, 57, 0
4, 32712, Note_on_c, 1, 58, 64
4, 32735, Note_on_c, 1, 58, 0
4, 32736, Note_on_c, 1, 57, 64
4, 32759, Note_on_c, 1, 57, 0
4, 32760, Note_on_c, 1, 58, 64
4, 32783, Note_on_c, 1, 58, 0
4, 32784, Note_on_c, 1, 56, 64
4, 32807, Note_on_c, 1, 56, 0
4, 32808, Note_on_c, 1, 58, 64
4, 32831, Note_on_c, 1, 58, 0
4, 32832, Note_on_c, 1, 55, 64
4, 32855, Note_on_c, 1, 55, 0
4, 32856, Note_on_c, 1, 58, 64
4, 32879, Note_on_c, 1, 58, 0
4, 32880, Note_on_c, 1, 55, 64
4, 32903, Note_on_c, 1, 55, 0
4, 32904, Note_on_c, 1, 58, 64
4, 32927, Note_on_c, 1, 58, 0
4, 32928, Note_on_c, 1, 51, 64
4, 32951, Note_on_c, 1, 51, 0
4, 32952, Note_on_c, 1, 55, 64
4, 32975, Note_on_c, 1, 55, 0
4, 32976, Note_on_c, 1, 51, 64
4, 32999, Note_on_c, 1, 51, 0
4, 33000, Note_on_c, 1, 55, 64
4, 33023, Note_on_c, 1, 55, 0
4, 33024, Note_on_c, 1, 50, 64
4, 33047, Note_on_c, 1, 50, 0
4, 33048, Note_on_c, 1, 53, 64
4, 33071, Note_on_c, 1, 53, 0
4, 33072, Note_on_c, 1, 48, 64
4, 33095, Note_on_c, 1, 48, 0
4, 33096, Note_on_c, 1, 51, 64
4, 33119, Note_on_c, 1, 51, 0
4, 33120, Note_on_c, 1, 46, 64
4, 33143, Note_on_c, 1, 46, 0
4, 33144, Note_on_c, 1, 50, 64
4, 33167, Note_on_c, 1, 50, 0
4, 33168, Note_on_c, 1, 46, 64
4, 33213, Note_on_c, 1, 46, 0
4, 33408, Note_on_c, 1, 60, 64
4, 33408, Note_on_c, 1, 51, 64
4, 33497, Note_on_c, 1, 60, 0
4, 33497, Note_on_c, 1, 51, 0
4, 33504, Note_on_c, 1, 62, 64
4, 33504, Note_on_c, 1, 53, 64
4, 33593, Note_on_c, 1, 62, 0
4, 33593, Note_on_c, 1, 53, 0
4, 33600, Note_on_c, 1, 63, 64
4, 33600, Note_on_c, 1, 53, 64
4, 33689, Note_on_c, 1, 63, 0
4, 33689, Note_on_c, 1, 53, 0
4, 33696, Note_on_c, 1, 62, 64
4, 33696, Note_on_c, 1, 55, 64
4, 33883, Note_on_c, 1, 62, 0
4, 33883, Note_on_c, 1, 55, 0
4, 33960, Control_c, 1, 64, 127
4, 33960, Note_on_c, 1, 53, 80
4, 33960, Note_on_c, 1, 51, 80
4, 33960, Note_on_c, 1, 48, 80
4, 33960, Note_on_c, 1, 45, 80
4, 33970, Note_on_c, 1, 53, 0
4, 33970, Note_on_c, 1, 51, 0
4, 33970, Note_on_c, 1, 48, 0
4, 33970, Note_on_c, 1, 45, 0
4, 33984, Note_on_c, 1, 53, 80
4, 33984, Note_on_c, 1, 51, 80
4, 33984, Note_on_c, 1, 48, 80
4, 33984, Note_on_c, 1, 45, 80
4, 34161, Note_on_c, 1, 53, 0
4, 34161, Note_on_c, 1, 51, 0
4, 34161, Note_on_c, 1, 48, 0
4, 34161, Note_on_c, 1, 45, 0
4, 34176, Control_c, 1, 64, 0
4, 34320, Note_on_c, 1, 51, 64
4, 34365, Note_on_c, 1, 51, 0
4, 34368, Note_on_c, 1, 51, 64
4, 34413, Note_on_c, 1, 51, 0
4, 34416, Note_on_c, 1, 51, 64
4, 34461, Note_on_c, 1, 51, 0
4, 34464, Note_on_c, 1, 51, 64
4, 34509, Note_on_c, 1, 51, 0
4, 34512, Note_on_c, 1, 51, 64
4, 34557, Note_on_c, 1, 51, 0
4, 34560, Note_on_c, 1, 50, 64
4, 34605, Note_on_c, 1, 50, 0
4, 34608, Note_on_c, 1, 50, 64
4, 34653, Note_on_c, 1, 50, 0
4, 34656, Note_on_c, 1, 50, 64
4, 34701, Note_on_c, 1, 50, 0
4, 34704, Note_on_c, 1, 50, 64
4, 34749, Note_on_c, 1, 50, 0
4, 34752, Note_on_c, 1, 50, 64
4, 34797, Note_on_c, 1, 50, 0
4, 34800, Note_on_c, 1, 50, 64
4, 34845, Note_on_c, 1, 50, 0
4, 34896, Note_on_c, 1, 51, 64
4, 34941, Note_on_c, 1, 51, 0
4, 34944, Note_on_c, 1, 51, 64
4, 34989, Note_on_c, 1, 51, 0
4, 34992, Note_on_c, 1, 51, 64
4, 35037, Note_on_c, 1, 51, 0
4, 35040, Note_on_c, 1, 51, 64
4, 35085, Note_on_c, 1, 51, 0
4, 35088, Note_on_c, 1, 51, 64
4, 35133, Note_on_c, 1, 51, 0
4, 35136, Note_on_c, 1, 50, 64
4, 35181, Note_on_c, 1, 50, 0
4, 35184, Note_on_c, 1, 50, 64
4, 35229, Note_on_c, 1, 50, 0
4, 35232, Note_on_c, 1, 50, 66
4, 35277, Note_on_c, 1, 50, 0
4, 35280, Note_on_c, 1, 50, 69
4, 35325, Note_on_c, 1, 50, 0
4, 35328, Note_on_c, 1, 50, 72
4, 35373, Note_on_c, 1, 50, 0
4, 35376, Note_on_c, 1, 50, 74
4, 35421, Note_on_c, 1, 50, 0
4, 35424, Note_on_c, 1, 45, 77
4, 35430, Note_on_c, 1, 48, 77
4, 35436, Note_on_c, 1, 51, 77
4, 35442, Note_on_c, 1, 53, 77
4, 36089, Note_on_c, 1, 53, 0
4, 36089, Note_on_c, 1, 51, 0
4, 36089, Note_on_c, 1, 48, 0
4, 36089, Note_on_c, 1, 45, 0
4, 36336, Note_on_c, 1, 53, 80
4, 36381, Note_on_c, 1, 53, 0
4, 36384, Note_on_c, 1, 54, 76
4, 36429, Note_on_c, 1, 54, 0
4, 36432, Note_on_c, 1, 53, 73
4, 36477, Note_on_c, 1, 53, 0
4, 36480, Note_on_c, 1, 65, 70
4, 36528, Note_on_c, 1, 65, 0
4, 36528, Note_on_c, 1, 66, 67
4, 36576, Note_on_c, 1, 66, 0
4, 36576, Note_on_c, 1, 67, 64
4, 36763, Note_on_c, 1, 67, 0
4, 36864, Note_on_c, 1, 60, 80
4, 36864, Note_on_c, 1, 55, 80
4, 36864, Note_on_c, 1, 51, 80
4, 36960, Note_on_c, 1, 60, 0
4, 36960, Note_on_c, 1, 55, 0
4, 36960, Note_on_c, 1, 51, 0
4, 37056, Note_on_c, 1, 51, 64
4, 37056, Note_on_c, 1, 48, 64
4, 37056, Note_on_c, 1, 45, 64
4, 37056, Note_on_c, 1, 41, 64
4, 37150, Note_on_c, 1, 51, 0
4, 37150, Note_on_c, 1, 48, 0
4, 37150, Note_on_c, 1, 45, 0
4, 37150, Note_on_c, 1, 41, 0
4, 37200, Note_on_c, 1, 46, 64
4, 37245, Note_on_c, 1, 46, 0
4, 37248, Note_on_c, 1, 46, 64
4, 37293, Note_on_c, 1, 46, 0
4, 37296, Note_on_c, 1, 46, 64
4, 37341, Note_on_c, 1, 46, 0
4, 37344, Note_on_c, 1, 46, 64
4, 37389, Note_on_c, 1, 46, 0
4, 37392, Note_on_c, 1, 46, 64
4, 37437, Note_on_c, 1, 46, 0
4, 37488, Note_on_c, 1, 46, 64
4, 37533, Note_on_c, 1, 46, 0
4, 37536, Note_on_c, 1, 46, 64
4, 37581, Note_on_c, 1, 46, 0
4, 37584, Note_on_c, 1, 46, 64
4, 37629, Note_on_c, 1, 46, 0
4, 37632, Note_on_c, 1, 46, 64
4, 37677, Note_on_c, 1, 46, 0
4, 37680, Note_on_c, 1, 46, 64
4, 37725, Note_on_c, 1, 46, 0
4, 37776, Note_on_c, 1, 46, 64
4, 37821, Note_on_c, 1, 46, 0
4, 37824, Note_on_c, 1, 46, 64
4, 37869, Note_on_c, 1, 46, 0
4, 37872, Note_on_c, 1, 46, 64
4, 37917, Note_on_c, 1, 46, 0
4, 37920, Note_on_c, 1, 46, 64
4, 37965, Note_on_c, 1, 46, 0
4, 37968, Note_on_c, 1, 46, 64
4, 38013, Note_on_c, 1, 46, 0
4, 38016, Note_on_c, 1, 46, 64
4, 38016, Note_on_c, 1, 34, 64
4, 38061, Note_on_c, 1, 46, 0
4, 38061, Note_on_c, 1, 34, 0
4, 38208, Note_on_c, 1, 46, 58
4, 38208, Note_on_c, 1, 34, 58
4, 38255, Note_on_c, 1, 46, 0
4, 38255, Note_on_c, 1, 34, 0
4, 38304, Note_on_c, 1, 46, 58
4, 38304, Note_on_c, 1, 34, 58
4, 38374, Note_on_c, 1, 46, 0
4, 38374, Note_on_c, 1, 34, 0
4, 38592, Note_on_c, 1, 34, 0
4, 38681, Note_on_c, 1, 34, 0
4, 38688, End_track
5, 0, Start_track
5, 0, Program_c, 1, 0
5, 0, Control_c, 1, 7, 127
5, 0, Control_c, 1, 10, 64
5, 0, Note_on_c, 1, 58, 64
5, 421, Note_on_c, 1, 58, 0
5, 576, Note_on_c, 1, 50, 64
5, 665, Note_on_c, 1, 50, 0
5, 672, Note_on_c, 1, 51, 64
5, 849, Note_on_c, 1, 51, 0
5, 864, Note_on_c, 1, 53, 64
5, 1041, Note_on_c, 1, 53, 0
5, 1152, Note_on_c, 1, 58, 64
5, 1573, Note_on_c, 1, 58, 0
5, 2016, Note_on_c, 1, 53, 64
5, 2193, Note_on_c, 1, 53, 0
5, 2304, Note_on_c, 1, 58, 64
5, 2725, Note_on_c, 1, 58, 0
5, 2880, Note_on_c, 1, 50, 64
5, 2969, Note_on_c, 1, 50, 0
5, 2976, Note_on_c, 1, 51, 64
5, 3153, Note_on_c, 1, 51, 0
5, 3168, Note_on_c, 1, 53, 64
5, 3345, Note_on_c, 1, 53, 0
5, 3456, Note_on_c, 1, 58, 64
5, 3877, Note_on_c, 1, 58, 0
5, 4320, Note_on_c, 1, 53, 64
5, 4497, Note_on_c, 1, 53, 0
5, 4608, Note_on_c, 1, 41, 64
5, 4873, Note_on_c, 1, 41, 0
5, 4896, Note_on_c, 1, 41, 64
5, 5161, Note_on_c, 1, 41, 0
5, 7200, Note_on_c, 1, 53, 64
5, 7377, Note_on_c, 1, 53, 0
5, 7488, Note_on_c, 1, 58, 64
5, 7909, Note_on_c, 1, 58, 0
5, 8064, Note_on_c, 1, 50, 64
5, 8153, Note_on_c, 1, 50, 0
5, 8160, Note_on_c, 1, 51, 64
5, 8337, Note_on_c, 1, 51, 0
5, 8352, Note_on_c, 1, 53, 64
5, 8529, Note_on_c, 1, 53, 0
5, 8640, Note_on_c, 1, 58, 64
5, 9017, Note_on_c, 1, 58, 0
5, 10368, Note_on_c, 1, 41, 75
5, 10633, Note_on_c, 1, 41, 0
5, 10656, Note_on_c, 1, 41, 75
5, 10921, Note_on_c, 1, 41, 0
5, 14112, Note_on_c, 1, 53, 64
5, 14289, Note_on_c, 1, 53, 0
5, 14400, Note_on_c, 1, 58, 64
5, 14777, Note_on_c, 1, 58, 0
5, 25920, Note_on_c, 1, 58, 64
5, 26341, Note_on_c, 1, 58, 0
5, 26496, Note_on_c, 1, 50, 64
5, 26585, Note_on_c, 1, 50, 0
5, 26592, Note_on_c, 1, 51, 64
5, 26769, Note_on_c, 1, 51, 0
5, 26784, Note_on_c, 1, 53, 64
5, 26961, Note_on_c, 1, 53, 0
5, 27072, Note_on_c, 1, 58, 64
5, 27493, Note_on_c, 1, 58, 0
5, 27936, Note_on_c, 1, 53, 64
5, 28113, Note_on_c, 1, 53, 0
5, 28224, Note_on_c, 1, 41, 75
5, 28489, Note_on_c, 1, 41, 0
5, 28512, Note_on_c, 1, 41, 75
5, 28777, Note_on_c, 1, 41, 0
5, 30816, Note_on_c, 1, 53, 75
5, 30993, Note_on_c, 1, 53, 0
5, 31104, Note_on_c, 1, 58, 64
5, 31525, Note_on_c, 1, 58, 0
5, 31968, Note_on_c, 1, 53, 64
5, 32233, Note_on_c, 1, 53, 0
5, 34272, Note_on_c, 1, 41, 64
5, 34537, Note_on_c, 1, 41, 0
5, 34560, Note_on_c, 1, 41, 64
5, 34825, Note_on_c, 1, 41, 0
5, 34848, Note_on_c, 1, 41, 64
5, 35113, Note_on_c, 1, 41, 0
5, 35136, Note_on_c, 1, 41, 64
5, 35401, Note_on_c, 1, 41, 0
5, 37152, Note_on_c, 1, 34, 64
5, 37417, Note_on_c, 1, 34, 0
5, 37440, Note_on_c, 1, 34, 64
5, 37705, Note_on_c, 1, 34, 0
5, 37728, Note_on_c, 1, 34, 64
5, 37993, Note_on_c, 1, 34, 0
5, 38592, End_track
6, 0, Start_track
6, 0, Title_t, "Sonata I   Haydn  "
6, 0, End_track
0, 0, End_of_file
