0, 0, Header, 1, 6, 96
1, 0, Start_track
1, 0, Copyright_t, "Copyright  2000 <copyright holder>"
1, 0, Text_t, "Piano Solo\015\012"
1, 0, Text_t, "<composer>\015\012"
1, 0, Sequencer_specific, 16, 68, 87, 77, 90, 86, 82, 83, 78, 32, 55, 46, 48, 46, 56, 46, 48
1, 0, Time_signature, 2, 2, 24, 8
1, 0, Tempo, 100000
1, 0, Key_signature, -1, "major"
1, 144, Tempo, 750000
1, 25200, Tempo, 1500000
1, 25248, Tempo, 750000
1, 40752, Tempo, 1500000
1, 40800, Tempo, 750000
1, 48960, End_track
2, 0, Start_track
2, 0, Program_c, 0, 0
2, 0, Control_c, 0, 7, 127
2, 0, Control_c, 0, 10, 64
2, 144, Note_on_c, 0, 72, 75
2, 178, Note_on_c, 0, 72, 0
2, 180, Note_on_c, 0, 69, 75
2, 192, Note_on_c, 0, 69, 0
2, 192, Note_on_c, 0, 65, 75
2, 212, Note_on_c, 0, 65, 0
2, 240, Note_on_c, 0, 69, 75
2, 274, Note_on_c, 0, 69, 0
2, 276, Note_on_c, 0, 65, 75
2, 288, Note_on_c, 0, 65, 0
2, 288, Note_on_c, 0, 64, 75
2, 308, Note_on_c, 0, 64, 0
2, 336, Note_on_c, 0, 67, 75
2, 370, Note_on_c, 0, 67, 0
2, 372, Note_on_c, 0, 64, 75
2, 384, Note_on_c, 0, 64, 0
2, 384, Note_on_c, 0, 65, 75
2, 429, Note_on_c, 0, 65, 0
2, 432, Note_on_c, 0, 74, 75
2, 432, Note_on_c, 0, 70, 75
2, 480, Note_on_c, 0, 74, 0
2, 480, Note_on_c, 0, 70, 0
2, 480, Note_on_c, 0, 72, 75
2, 480, Note_on_c, 0, 69, 75
2, 500, Note_on_c, 0, 72, 0
2, 500, Note_on_c, 0, 69, 0
2, 528, Note_on_c, 0, 79, 75
2, 540, Note_on_c, 0, 79, 0
2, 540, Note_on_c, 0, 77, 75
2, 552, Note_on_c, 0, 77, 0
2, 552, Note_on_c, 0, 76, 75
2, 564, Note_on_c, 0, 76, 0
2, 564, Note_on_c, 0, 74, 75
2, 576, Note_on_c, 0, 74, 0
2, 576, Note_on_c, 0, 72, 75
2, 621, Note_on_c, 0, 72, 0
2, 624, Note_on_c, 0, 81, 75
2, 639, Note_on_c, 0, 81, 0
2, 640, Note_on_c, 0, 69, 75
2, 655, Note_on_c, 0, 69, 0
2, 656, Note_on_c, 0, 74, 75
2, 671, Note_on_c, 0, 74, 0
2, 672, Note_on_c, 0, 72, 75
2, 717, Note_on_c, 0, 72, 0
2, 720, Note_on_c, 0, 70, 75
2, 730, Note_on_c, 0, 70, 0
2, 730, Note_on_c, 0, 72, 75
2, 740, Note_on_c, 0, 72, 0
2, 740, Note_on_c, 0, 70, 75
2, 750, Note_on_c, 0, 70, 0
2, 750, Note_on_c, 0, 69, 75
2, 759, Note_on_c, 0, 69, 0
2, 759, Note_on_c, 0, 70, 75
2, 768, Note_on_c, 0, 70, 0
2, 768, Note_on_c, 0, 70, 75
2, 864, Note_on_c, 0, 70, 0
2, 864, Note_on_c, 0, 69, 75
2, 884, Note_on_c, 0, 69, 0
2, 912, Note_on_c, 0, 72, 75
2, 924, Note_on_c, 0, 72, 0
2, 924, Note_on_c, 0, 69, 75
2, 936, Note_on_c, 0, 69, 0
2, 936, Note_on_c, 0, 72, 75
2, 948, Note_on_c, 0, 72, 0
2, 948, Note_on_c, 0, 69, 75
2, 960, Note_on_c, 0, 69, 0
2, 960, Note_on_c, 0, 65, 75
2, 980, Note_on_c, 0, 65, 0
2, 1008, Note_on_c, 0, 70, 75
2, 1020, Note_on_c, 0, 70, 0
2, 1020, Note_on_c, 0, 69, 75
2, 1032, Note_on_c, 0, 69, 0
2, 1032, Note_on_c, 0, 67, 75
2, 1044, Note_on_c, 0, 67, 0
2, 1044, Note_on_c, 0, 65, 75
2, 1056, Note_on_c, 0, 65, 0
2, 1056, Note_on_c, 0, 64, 75
2, 1076, Note_on_c, 0, 64, 0
2, 1104, Note_on_c, 0, 69, 75
2, 1116, Note_on_c, 0, 69, 0
2, 1116, Note_on_c, 0, 67, 75
2, 1128, Note_on_c, 0, 67, 0
2, 1128, Note_on_c, 0, 65, 75
2, 1140, Note_on_c, 0, 65, 0
2, 1140, Note_on_c, 0, 64, 75
2, 1152, Note_on_c, 0, 64, 0
2, 1152, Note_on_c, 0, 65, 75
2, 1162, Note_on_c, 0, 65, 0
2, 1176, Note_on_c, 0, 74, 75
2, 1188, Note_on_c, 0, 74, 0
2, 1188, Note_on_c, 0, 76, 75
2, 1200, Note_on_c, 0, 76, 0
2, 1200, Note_on_c, 0, 79, 75
2, 1212, Note_on_c, 0, 79, 0
2, 1212, Note_on_c, 0, 77, 75
2, 1224, Note_on_c, 0, 77, 0
2, 1224, Note_on_c, 0, 76, 75
2, 1236, Note_on_c, 0, 76, 0
2, 1236, Note_on_c, 0, 74, 75
2, 1248, Note_on_c, 0, 74, 0
2, 1248, Note_on_c, 0, 72, 75
2, 1268, Note_on_c, 0, 72, 0
2, 1296, Note_on_c, 0, 84, 75
2, 1308, Note_on_c, 0, 84, 0
2, 1308, Note_on_c, 0, 81, 75
2, 1320, Note_on_c, 0, 81, 0
2, 1320, Note_on_c, 0, 77, 75
2, 1332, Note_on_c, 0, 77, 0
2, 1332, Note_on_c, 0, 72, 75
2, 1344, Note_on_c, 0, 72, 0
2, 1344, Note_on_c, 0, 69, 75
2, 1440, Note_on_c, 0, 69, 0
2, 1440, Note_on_c, 0, 70, 75
2, 1460, Note_on_c, 0, 70, 0
2, 1488, Note_on_c, 0, 82, 75
2, 1500, Note_on_c, 0, 82, 0
2, 1500, Note_on_c, 0, 79, 75
2, 1512, Note_on_c, 0, 79, 0
2, 1512, Note_on_c, 0, 76, 75
2, 1524, Note_on_c, 0, 76, 0
2, 1524, Note_on_c, 0, 72, 75
2, 1536, Note_on_c, 0, 72, 0
2, 1536, Note_on_c, 0, 70, 75
2, 1632, Note_on_c, 0, 70, 0
2, 1632, Note_on_c, 0, 69, 65
2, 1652, Note_on_c, 0, 69, 0
2, 1680, Note_on_c, 0, 77, 60
2, 1692, Note_on_c, 0, 77, 0
2, 1692, Note_on_c, 0, 72, 60
2, 1704, Note_on_c, 0, 72, 0
2, 1704, Note_on_c, 0, 69, 62
2, 1716, Note_on_c, 0, 69, 0
2, 1716, Note_on_c, 0, 65, 65
2, 1728, Note_on_c, 0, 65, 0
2, 1728, Note_on_c, 0, 63, 84
2, 1943, Note_on_c, 0, 63, 0
2, 1944, Note_on_c, 0, 61, 75
2, 1968, Note_on_c, 0, 61, 0
2, 1968, Note_on_c, 0, 62, 76
2, 1978, Note_on_c, 0, 62, 0
2, 1992, Note_on_c, 0, 66, 77
2, 2016, Note_on_c, 0, 66, 0
2, 2016, Note_on_c, 0, 67, 78
2, 2026, Note_on_c, 0, 67, 0
2, 2040, Note_on_c, 0, 69, 80
2, 2064, Note_on_c, 0, 69, 0
2, 2064, Note_on_c, 0, 70, 81
2, 2074, Note_on_c, 0, 70, 0
2, 2088, Note_on_c, 0, 74, 82
2, 2088, Note_on_c, 0, 70, 82
2, 2098, Note_on_c, 0, 74, 0
2, 2098, Note_on_c, 0, 70, 0
2, 2112, Note_on_c, 0, 74, 84
2, 2112, Note_on_c, 0, 70, 84
2, 2136, Note_on_c, 0, 74, 0
2, 2136, Note_on_c, 0, 70, 0
2, 2136, Note_on_c, 0, 72, 83
2, 2136, Note_on_c, 0, 69, 83
2, 2159, Note_on_c, 0, 72, 0
2, 2159, Note_on_c, 0, 69, 0
2, 2160, Note_on_c, 0, 70, 82
2, 2160, Note_on_c, 0, 67, 82
2, 2170, Note_on_c, 0, 70, 0
2, 2170, Note_on_c, 0, 67, 0
2, 2184, Note_on_c, 0, 69, 82
2, 2184, Note_on_c, 0, 65, 82
2, 2194, Note_on_c, 0, 69, 0
2, 2194, Note_on_c, 0, 65, 0
2, 2208, Note_on_c, 0, 72, 81
2, 2208, Note_on_c, 0, 69, 81
2, 2232, Note_on_c, 0, 72, 0
2, 2232, Note_on_c, 0, 69, 0
2, 2232, Note_on_c, 0, 70, 80
2, 2232, Note_on_c, 0, 67, 80
2, 2255, Note_on_c, 0, 70, 0
2, 2255, Note_on_c, 0, 67, 0
2, 2256, Note_on_c, 0, 69, 80
2, 2256, Note_on_c, 0, 65, 80
2, 2266, Note_on_c, 0, 69, 0
2, 2266, Note_on_c, 0, 65, 0
2, 2280, Note_on_c, 0, 67, 79
2, 2280, Note_on_c, 0, 64, 79
2, 2290, Note_on_c, 0, 67, 0
2, 2290, Note_on_c, 0, 64, 0
2, 2304, Note_on_c, 0, 67, 78
2, 2304, Note_on_c, 0, 64, 78
2, 2400, Note_on_c, 0, 67, 0
2, 2400, Note_on_c, 0, 64, 0
2, 2400, Note_on_c, 0, 65, 76
2, 2420, Note_on_c, 0, 65, 0
2, 2448, Note_on_c, 0, 84, 75
2, 2460, Note_on_c, 0, 84, 0
2, 2460, Note_on_c, 0, 81, 75
2, 2472, Note_on_c, 0, 81, 0
2, 2472, Note_on_c, 0, 84, 75
2, 2484, Note_on_c, 0, 84, 0
2, 2484, Note_on_c, 0, 81, 75
2, 2496, Note_on_c, 0, 81, 0
2, 2496, Note_on_c, 0, 77, 75
2, 2516, Note_on_c, 0, 77, 0
2, 2568, Note_on_c, 0, 81, 75
2, 2578, Note_on_c, 0, 81, 0
2, 2592, Note_on_c, 0, 79, 75
2, 2602, Note_on_c, 0, 79, 0
2, 2616, Note_on_c, 0, 77, 75
2, 2626, Note_on_c, 0, 77, 0
2, 2640, Note_on_c, 0, 76, 75
2, 2650, Note_on_c, 0, 76, 0
2, 2664, Note_on_c, 0, 74, 75
2, 2674, Note_on_c, 0, 74, 0
2, 2688, Note_on_c, 0, 74, 91
2, 2760, Note_on_c, 0, 74, 0
2, 2760, Note_on_c, 0, 76, 84
2, 2772, Note_on_c, 0, 76, 0
2, 2772, Note_on_c, 0, 74, 82
2, 2784, Note_on_c, 0, 74, 0
2, 2784, Note_on_c, 0, 73, 81
2, 2804, Note_on_c, 0, 73, 0
2, 2832, Note_on_c, 0, 76, 75
2, 2844, Note_on_c, 0, 76, 0
2, 2844, Note_on_c, 0, 73, 75
2, 2856, Note_on_c, 0, 73, 0
2, 2856, Note_on_c, 0, 76, 75
2, 2868, Note_on_c, 0, 76, 0
2, 2868, Note_on_c, 0, 73, 75
2, 2880, Note_on_c, 0, 73, 0
2, 2880, Note_on_c, 0, 69, 75
2, 2900, Note_on_c, 0, 69, 0
2, 2952, Note_on_c, 0, 82, 75
2, 2962, Note_on_c, 0, 82, 0
2, 2976, Note_on_c, 0, 81, 75
2, 2986, Note_on_c, 0, 81, 0
2, 3000, Note_on_c, 0, 79, 75
2, 3010, Note_on_c, 0, 79, 0
2, 3024, Note_on_c, 0, 77, 75
2, 3034, Note_on_c, 0, 77, 0
2, 3048, Note_on_c, 0, 76, 75
2, 3058, Note_on_c, 0, 76, 0
2, 3072, Note_on_c, 0, 79, 91
2, 3144, Note_on_c, 0, 79, 0
2, 3144, Note_on_c, 0, 76, 84
2, 3167, Note_on_c, 0, 76, 0
2, 3168, Note_on_c, 0, 77, 81
2, 3188, Note_on_c, 0, 77, 0
2, 3216, Note_on_c, 0, 81, 75
2, 3228, Note_on_c, 0, 81, 0
2, 3228, Note_on_c, 0, 77, 75
2, 3240, Note_on_c, 0, 77, 0
2, 3240, Note_on_c, 0, 81, 75
2, 3252, Note_on_c, 0, 81, 0
2, 3252, Note_on_c, 0, 77, 75
2, 3264, Note_on_c, 0, 77, 0
2, 3264, Note_on_c, 0, 74, 75
2, 3284, Note_on_c, 0, 74, 0
2, 3336, Note_on_c, 0, 86, 75
2, 3346, Note_on_c, 0, 86, 0
2, 3360, Note_on_c, 0, 84, 75
2, 3370, Note_on_c, 0, 84, 0
2, 3384, Note_on_c, 0, 83, 75
2, 3394, Note_on_c, 0, 83, 0
2, 3408, Note_on_c, 0, 81, 75
2, 3418, Note_on_c, 0, 81, 0
2, 3432, Note_on_c, 0, 79, 75
2, 3442, Note_on_c, 0, 79, 0
2, 3456, Note_on_c, 0, 77, 91
2, 3504, Note_on_c, 0, 77, 0
2, 3504, Note_on_c, 0, 76, 75
2, 3527, Note_on_c, 0, 76, 0
2, 3528, Note_on_c, 0, 79, 75
2, 3538, Note_on_c, 0, 79, 0
2, 3552, Note_on_c, 0, 77, 75
2, 3562, Note_on_c, 0, 77, 0
2, 3576, Note_on_c, 0, 76, 75
2, 3586, Note_on_c, 0, 76, 0
2, 3600, Note_on_c, 0, 74, 75
2, 3610, Note_on_c, 0, 74, 0
2, 3624, Note_on_c, 0, 72, 75
2, 3634, Note_on_c, 0, 72, 0
2, 3648, Note_on_c, 0, 71, 91
2, 3696, Note_on_c, 0, 71, 0
2, 3696, Note_on_c, 0, 69, 75
2, 3708, Note_on_c, 0, 69, 0
2, 3708, Note_on_c, 0, 74, 75
2, 3720, Note_on_c, 0, 74, 0
2, 3720, Note_on_c, 0, 77, 76
2, 3732, Note_on_c, 0, 77, 0
2, 3732, Note_on_c, 0, 81, 77
2, 3744, Note_on_c, 0, 81, 0
2, 3744, Note_on_c, 0, 79, 78
2, 3754, Note_on_c, 0, 79, 0
2, 3768, Note_on_c, 0, 77, 79
2, 3778, Note_on_c, 0, 77, 0
2, 3792, Note_on_c, 0, 76, 81
2, 3802, Note_on_c, 0, 76, 0
2, 3816, Note_on_c, 0, 74, 82
2, 3826, Note_on_c, 0, 74, 0
2, 3840, Note_on_c, 0, 72, 84
2, 3888, Note_on_c, 0, 72, 0
2, 3888, Note_on_c, 0, 71, 84
2, 3933, Note_on_c, 0, 71, 0
2, 4044, Note_on_c, 0, 79, 84
2, 4056, Note_on_c, 0, 79, 0
2, 4056, Note_on_c, 0, 81, 84
2, 4068, Note_on_c, 0, 81, 0
2, 4068, Note_on_c, 0, 79, 84
2, 4080, Note_on_c, 0, 79, 0
2, 4080, Note_on_c, 0, 84, 84
2, 4092, Note_on_c, 0, 84, 0
2, 4092, Note_on_c, 0, 83, 84
2, 4104, Note_on_c, 0, 83, 0
2, 4104, Note_on_c, 0, 81, 84
2, 4116, Note_on_c, 0, 81, 0
2, 4116, Note_on_c, 0, 79, 84
2, 4128, Note_on_c, 0, 79, 0
2, 4128, Note_on_c, 0, 77, 84
2, 4140, Note_on_c, 0, 77, 0
2, 4140, Note_on_c, 0, 76, 84
2, 4152, Note_on_c, 0, 76, 0
2, 4152, Note_on_c, 0, 74, 84
2, 4164, Note_on_c, 0, 74, 0
2, 4164, Note_on_c, 0, 72, 84
2, 4176, Note_on_c, 0, 72, 0
2, 4176, Note_on_c, 0, 71, 84
2, 4188, Note_on_c, 0, 71, 0
2, 4188, Note_on_c, 0, 72, 84
2, 4200, Note_on_c, 0, 72, 0
2, 4200, Note_on_c, 0, 74, 84
2, 4212, Note_on_c, 0, 74, 0
2, 4212, Note_on_c, 0, 72, 84
2, 4224, Note_on_c, 0, 72, 0
2, 4224, Note_on_c, 0, 69, 84
2, 4236, Note_on_c, 0, 69, 0
2, 4236, Note_on_c, 0, 72, 84
2, 4248, Note_on_c, 0, 72, 0
2, 4248, Note_on_c, 0, 74, 84
2, 4260, Note_on_c, 0, 74, 0
2, 4260, Note_on_c, 0, 72, 84
2, 4272, Note_on_c, 0, 72, 0
2, 4272, Note_on_c, 0, 67, 84
2, 4284, Note_on_c, 0, 67, 0
2, 4284, Note_on_c, 0, 72, 84
2, 4296, Note_on_c, 0, 72, 0
2, 4296, Note_on_c, 0, 74, 84
2, 4308, Note_on_c, 0, 74, 0
2, 4308, Note_on_c, 0, 72, 84
2, 4320, Note_on_c, 0, 72, 0
2, 4320, Note_on_c, 0, 65, 84
2, 4330, Note_on_c, 0, 65, 0
2, 4344, Note_on_c, 0, 77, 84
2, 4354, Note_on_c, 0, 77, 0
2, 4392, Note_on_c, 0, 77, 84
2, 4402, Note_on_c, 0, 77, 0
2, 4416, Note_on_c, 0, 76, 84
2, 4428, Note_on_c, 0, 76, 0
2, 4428, Note_on_c, 0, 79, 84
2, 4440, Note_on_c, 0, 79, 0
2, 4440, Note_on_c, 0, 81, 84
2, 4452, Note_on_c, 0, 81, 0
2, 4452, Note_on_c, 0, 79, 84
2, 4464, Note_on_c, 0, 79, 0
2, 4464, Note_on_c, 0, 84, 84
2, 4476, Note_on_c, 0, 84, 0
2, 4476, Note_on_c, 0, 83, 84
2, 4488, Note_on_c, 0, 83, 0
2, 4488, Note_on_c, 0, 81, 84
2, 4500, Note_on_c, 0, 81, 0
2, 4500, Note_on_c, 0, 79, 84
2, 4512, Note_on_c, 0, 79, 0
2, 4512, Note_on_c, 0, 77, 84
2, 4524, Note_on_c, 0, 77, 0
2, 4524, Note_on_c, 0, 76, 84
2, 4536, Note_on_c, 0, 76, 0
2, 4536, Note_on_c, 0, 74, 84
2, 4548, Note_on_c, 0, 74, 0
2, 4548, Note_on_c, 0, 72, 84
2, 4560, Note_on_c, 0, 72, 0
2, 4560, Note_on_c, 0, 71, 84
2, 4572, Note_on_c, 0, 71, 0
2, 4572, Note_on_c, 0, 72, 84
2, 4584, Note_on_c, 0, 72, 0
2, 4584, Note_on_c, 0, 74, 84
2, 4596, Note_on_c, 0, 74, 0
2, 4596, Note_on_c, 0, 72, 84
2, 4608, Note_on_c, 0, 72, 0
2, 4608, Note_on_c, 0, 69, 84
2, 4620, Note_on_c, 0, 69, 0
2, 4620, Note_on_c, 0, 72, 84
2, 4632, Note_on_c, 0, 72, 0
2, 4632, Note_on_c, 0, 74, 84
2, 4644, Note_on_c, 0, 74, 0
2, 4644, Note_on_c, 0, 72, 84
2, 4656, Note_on_c, 0, 72, 0
2, 4656, Note_on_c, 0, 67, 84
2, 4668, Note_on_c, 0, 67, 0
2, 4668, Note_on_c, 0, 72, 84
2, 4680, Note_on_c, 0, 72, 0
2, 4680, Note_on_c, 0, 74, 84
2, 4692, Note_on_c, 0, 74, 0
2, 4692, Note_on_c, 0, 72, 84
2, 4704, Note_on_c, 0, 72, 0
2, 4704, Note_on_c, 0, 65, 84
2, 4714, Note_on_c, 0, 65, 0
2, 4728, Note_on_c, 0, 77, 84
2, 4738, Note_on_c, 0, 77, 0
2, 4776, Note_on_c, 0, 77, 84
2, 4786, Note_on_c, 0, 77, 0
2, 4800, Note_on_c, 0, 76, 84
2, 4812, Note_on_c, 0, 76, 0
2, 4812, Note_on_c, 0, 77, 84
2, 4824, Note_on_c, 0, 77, 0
2, 4824, Note_on_c, 0, 79, 84
2, 4836, Note_on_c, 0, 79, 0
2, 4836, Note_on_c, 0, 77, 84
2, 4848, Note_on_c, 0, 77, 0
2, 4848, Note_on_c, 0, 76, 84
2, 4860, Note_on_c, 0, 76, 0
2, 4860, Note_on_c, 0, 74, 84
2, 4872, Note_on_c, 0, 74, 0
2, 4872, Note_on_c, 0, 72, 84
2, 4884, Note_on_c, 0, 72, 0
2, 4884, Note_on_c, 0, 71, 84
2, 4896, Note_on_c, 0, 71, 0
2, 4896, Note_on_c, 0, 72, 84
2, 4908, Note_on_c, 0, 72, 0
2, 4908, Note_on_c, 0, 74, 84
2, 4920, Note_on_c, 0, 74, 0
2, 4920, Note_on_c, 0, 76, 84
2, 4932, Note_on_c, 0, 76, 0
2, 4932, Note_on_c, 0, 74, 84
2, 4944, Note_on_c, 0, 74, 0
2, 4944, Note_on_c, 0, 72, 84
2, 4956, Note_on_c, 0, 72, 0
2, 4956, Note_on_c, 0, 71, 84
2, 4968, Note_on_c, 0, 71, 0
2, 4968, Note_on_c, 0, 69, 84
2, 4980, Note_on_c, 0, 69, 0
2, 4980, Note_on_c, 0, 68, 84
2, 4992, Note_on_c, 0, 68, 0
2, 5004, Note_on_c, 0, 69, 84
2, 5016, Note_on_c, 0, 69, 0
2, 5016, Note_on_c, 0, 71, 84
2, 5028, Note_on_c, 0, 71, 0
2, 5028, Note_on_c, 0, 73, 84
2, 5040, Note_on_c, 0, 73, 0
2, 5040, Note_on_c, 0, 74, 84
2, 5052, Note_on_c, 0, 74, 0
2, 5052, Note_on_c, 0, 76, 84
2, 5064, Note_on_c, 0, 76, 0
2, 5064, Note_on_c, 0, 77, 84
2, 5076, Note_on_c, 0, 77, 0
2, 5076, Note_on_c, 0, 79, 84
2, 5088, Note_on_c, 0, 79, 0
2, 5088, Note_on_c, 0, 81, 84
2, 5100, Note_on_c, 0, 81, 0
2, 5100, Note_on_c, 0, 77, 84
2, 5112, Note_on_c, 0, 77, 0
2, 5112, Note_on_c, 0, 74, 84
2, 5124, Note_on_c, 0, 74, 0
2, 5124, Note_on_c, 0, 69, 84
2, 5136, Note_on_c, 0, 69, 0
2, 5136, Note_on_c, 0, 79, 84
2, 5148, Note_on_c, 0, 79, 0
2, 5148, Note_on_c, 0, 76, 84
2, 5160, Note_on_c, 0, 76, 0
2, 5160, Note_on_c, 0, 73, 84
2, 5172, Note_on_c, 0, 73, 0
2, 5172, Note_on_c, 0, 67, 84
2, 5184, Note_on_c, 0, 67, 0
2, 5196, Note_on_c, 0, 77, 84
2, 5208, Note_on_c, 0, 77, 0
2, 5208, Note_on_c, 0, 79, 85
2, 5220, Note_on_c, 0, 79, 0
2, 5220, Note_on_c, 0, 81, 86
2, 5232, Note_on_c, 0, 81, 0
2, 5232, Note_on_c, 0, 83, 87
2, 5244, Note_on_c, 0, 83, 0
2, 5244, Note_on_c, 0, 84, 88
2, 5256, Note_on_c, 0, 84, 0
2, 5256, Note_on_c, 0, 86, 89
2, 5268, Note_on_c, 0, 86, 0
2, 5268, Note_on_c, 0, 88, 90
2, 5280, Note_on_c, 0, 88, 0
2, 5280, Note_on_c, 0, 89, 89
2, 5292, Note_on_c, 0, 89, 0
2, 5292, Note_on_c, 0, 86, 88
2, 5304, Note_on_c, 0, 86, 0
2, 5304, Note_on_c, 0, 83, 88
2, 5316, Note_on_c, 0, 83, 0
2, 5316, Note_on_c, 0, 77, 87
2, 5328, Note_on_c, 0, 77, 0
2, 5328, Note_on_c, 0, 76, 86
2, 5351, Note_on_c, 0, 76, 0
2, 5352, Note_on_c, 0, 84, 85
2, 5375, Note_on_c, 0, 84, 0
2, 5400, Note_on_c, 0, 81, 84
2, 5400, Note_on_c, 0, 77, 84
2, 5423, Note_on_c, 0, 81, 0
2, 5423, Note_on_c, 0, 77, 0
2, 5424, Note_on_c, 0, 79, 82
2, 5424, Note_on_c, 0, 76, 82
2, 5447, Note_on_c, 0, 79, 0
2, 5447, Note_on_c, 0, 76, 0
2, 5448, Note_on_c, 0, 77, 80
2, 5448, Note_on_c, 0, 74, 80
2, 5471, Note_on_c, 0, 77, 0
2, 5471, Note_on_c, 0, 74, 0
2, 5472, Note_on_c, 0, 76, 78
2, 5472, Note_on_c, 0, 72, 78
2, 5495, Note_on_c, 0, 76, 0
2, 5495, Note_on_c, 0, 72, 0
2, 5496, Note_on_c, 0, 79, 76
2, 5496, Note_on_c, 0, 76, 76
2, 5519, Note_on_c, 0, 79, 0
2, 5519, Note_on_c, 0, 76, 0
2, 5544, Note_on_c, 0, 71, 75
2, 5544, Note_on_c, 0, 65, 75
2, 5554, Note_on_c, 0, 71, 0
2, 5554, Note_on_c, 0, 65, 0
2, 5592, Note_on_c, 0, 72, 68
2, 5592, Note_on_c, 0, 63, 68
2, 5602, Note_on_c, 0, 72, 0
2, 5602, Note_on_c, 0, 63, 0
2, 5640, Note_on_c, 0, 75, 68
2, 5663, Note_on_c, 0, 75, 0
2, 5676, Note_on_c, 0, 75, 68
2, 5688, Note_on_c, 0, 75, 0
2, 5688, Note_on_c, 0, 74, 68
2, 5700, Note_on_c, 0, 74, 0
2, 5700, Note_on_c, 0, 75, 68
2, 5712, Note_on_c, 0, 75, 0
2, 5712, Note_on_c, 0, 77, 68
2, 5724, Note_on_c, 0, 77, 0
2, 5724, Note_on_c, 0, 75, 68
2, 5736, Note_on_c, 0, 75, 0
2, 5736, Note_on_c, 0, 74, 68
2, 5748, Note_on_c, 0, 74, 0
2, 5748, Note_on_c, 0, 75, 68
2, 5760, Note_on_c, 0, 75, 0
2, 5760, Note_on_c, 0, 84, 84
2, 5784, Note_on_c, 0, 84, 0
2, 5784, Note_on_c, 0, 75, 68
2, 5807, Note_on_c, 0, 75, 0
2, 5832, Note_on_c, 0, 75, 69
2, 5855, Note_on_c, 0, 75, 0
2, 5868, Note_on_c, 0, 75, 70
2, 5880, Note_on_c, 0, 75, 0
2, 5880, Note_on_c, 0, 74, 71
2, 5892, Note_on_c, 0, 74, 0
2, 5892, Note_on_c, 0, 75, 71
2, 5904, Note_on_c, 0, 75, 0
2, 5904, Note_on_c, 0, 77, 71
2, 5916, Note_on_c, 0, 77, 0
2, 5916, Note_on_c, 0, 75, 72
2, 5928, Note_on_c, 0, 75, 0
2, 5928, Note_on_c, 0, 74, 72
2, 5940, Note_on_c, 0, 74, 0
2, 5940, Note_on_c, 0, 75, 72
2, 5952, Note_on_c, 0, 75, 0
2, 5952, Note_on_c, 0, 84, 89
2, 5976, Note_on_c, 0, 84, 0
2, 5976, Note_on_c, 0, 75, 73
2, 5999, Note_on_c, 0, 75, 0
2, 6024, Note_on_c, 0, 75, 75
2, 6047, Note_on_c, 0, 75, 0
2, 6060, Note_on_c, 0, 75, 76
2, 6072, Note_on_c, 0, 75, 0
2, 6072, Note_on_c, 0, 74, 76
2, 6084, Note_on_c, 0, 74, 0
2, 6084, Note_on_c, 0, 75, 76
2, 6096, Note_on_c, 0, 75, 0
2, 6096, Note_on_c, 0, 77, 77
2, 6108, Note_on_c, 0, 77, 0
2, 6108, Note_on_c, 0, 75, 77
2, 6120, Note_on_c, 0, 75, 0
2, 6120, Note_on_c, 0, 74, 77
2, 6132, Note_on_c, 0, 74, 0
2, 6132, Note_on_c, 0, 72, 78
2, 6144, Note_on_c, 0, 72, 0
2, 6144, Note_on_c, 0, 71, 78
2, 6156, Note_on_c, 0, 71, 0
2, 6156, Note_on_c, 0, 72, 78
2, 6168, Note_on_c, 0, 72, 0
2, 6168, Note_on_c, 0, 74, 79
2, 6180, Note_on_c, 0, 74, 0
2, 6180, Note_on_c, 0, 72, 79
2, 6192, Note_on_c, 0, 72, 0
2, 6192, Note_on_c, 0, 71, 79
2, 6204, Note_on_c, 0, 71, 0
2, 6204, Note_on_c, 0, 69, 80
2, 6216, Note_on_c, 0, 69, 0
2, 6216, Note_on_c, 0, 67, 80
2, 6228, Note_on_c, 0, 67, 0
2, 6228, Note_on_c, 0, 66, 80
2, 6240, Note_on_c, 0, 66, 0
2, 6240, Note_on_c, 0, 67, 81
2, 6263, Note_on_c, 0, 67, 0
2, 6264, Note_on_c, 0, 74, 81
2, 6276, Note_on_c, 0, 74, 0
2, 6276, Note_on_c, 0, 72, 82
2, 6288, Note_on_c, 0, 72, 0
2, 6288, Note_on_c, 0, 71, 82
2, 6300, Note_on_c, 0, 71, 0
2, 6300, Note_on_c, 0, 69, 82
2, 6312, Note_on_c, 0, 69, 0
2, 6312, Note_on_c, 0, 67, 83
2, 6324, Note_on_c, 0, 67, 0
2, 6324, Note_on_c, 0, 65, 83
2, 6336, Note_on_c, 0, 65, 0
2, 6336, Note_on_c, 0, 64, 83
2, 6348, Note_on_c, 0, 64, 0
2, 6348, Note_on_c, 0, 72, 84
2, 6360, Note_on_c, 0, 72, 0
2, 6360, Note_on_c, 0, 71, 84
2, 6372, Note_on_c, 0, 71, 0
2, 6372, Note_on_c, 0, 72, 84
2, 6384, Note_on_c, 0, 72, 0
2, 6384, Note_on_c, 0, 76, 84
2, 6396, Note_on_c, 0, 76, 0
2, 6396, Note_on_c, 0, 72, 84
2, 6408, Note_on_c, 0, 72, 0
2, 6408, Note_on_c, 0, 71, 84
2, 6420, Note_on_c, 0, 71, 0
2, 6420, Note_on_c, 0, 72, 84
2, 6432, Note_on_c, 0, 72, 0
2, 6432, Note_on_c, 0, 67, 84
2, 6444, Note_on_c, 0, 67, 0
2, 6444, Note_on_c, 0, 72, 84
2, 6456, Note_on_c, 0, 72, 0
2, 6456, Note_on_c, 0, 71, 84
2, 6468, Note_on_c, 0, 71, 0
2, 6468, Note_on_c, 0, 72, 84
2, 6480, Note_on_c, 0, 72, 0
2, 6480, Note_on_c, 0, 69, 84
2, 6492, Note_on_c, 0, 69, 0
2, 6492, Note_on_c, 0, 72, 84
2, 6504, Note_on_c, 0, 72, 0
2, 6504, Note_on_c, 0, 71, 84
2, 6516, Note_on_c, 0, 71, 0
2, 6516, Note_on_c, 0, 72, 84
2, 6528, Note_on_c, 0, 72, 0
2, 6528, Note_on_c, 0, 67, 84
2, 6540, Note_on_c, 0, 67, 0
2, 6540, Note_on_c, 0, 72, 84
2, 6552, Note_on_c, 0, 72, 0
2, 6552, Note_on_c, 0, 71, 84
2, 6564, Note_on_c, 0, 71, 0
2, 6564, Note_on_c, 0, 72, 84
2, 6576, Note_on_c, 0, 72, 0
2, 6576, Note_on_c, 0, 76, 84
2, 6588, Note_on_c, 0, 76, 0
2, 6588, Note_on_c, 0, 72, 84
2, 6600, Note_on_c, 0, 72, 0
2, 6600, Note_on_c, 0, 71, 84
2, 6612, Note_on_c, 0, 71, 0
2, 6612, Note_on_c, 0, 72, 84
2, 6624, Note_on_c, 0, 72, 0
2, 6624, Note_on_c, 0, 79, 84
2, 6636, Note_on_c, 0, 79, 0
2, 6636, Note_on_c, 0, 72, 84
2, 6648, Note_on_c, 0, 72, 0
2, 6648, Note_on_c, 0, 71, 84
2, 6660, Note_on_c, 0, 71, 0
2, 6660, Note_on_c, 0, 72, 84
2, 6672, Note_on_c, 0, 72, 0
2, 6672, Note_on_c, 0, 81, 84
2, 6684, Note_on_c, 0, 81, 0
2, 6684, Note_on_c, 0, 72, 84
2, 6696, Note_on_c, 0, 72, 0
2, 6696, Note_on_c, 0, 71, 84
2, 6708, Note_on_c, 0, 71, 0
2, 6708, Note_on_c, 0, 72, 84
2, 6720, Note_on_c, 0, 72, 0
2, 6720, Note_on_c, 0, 79, 84
2, 6732, Note_on_c, 0, 79, 0
2, 6732, Note_on_c, 0, 72, 84
2, 6744, Note_on_c, 0, 72, 0
2, 6744, Note_on_c, 0, 71, 84
2, 6756, Note_on_c, 0, 71, 0
2, 6756, Note_on_c, 0, 72, 84
2, 6768, Note_on_c, 0, 72, 0
2, 6768, Note_on_c, 0, 76, 84
2, 6780, Note_on_c, 0, 76, 0
2, 6780, Note_on_c, 0, 72, 84
2, 6792, Note_on_c, 0, 72, 0
2, 6792, Note_on_c, 0, 71, 84
2, 6804, Note_on_c, 0, 71, 0
2, 6804, Note_on_c, 0, 72, 84
2, 6816, Note_on_c, 0, 72, 0
2, 6816, Note_on_c, 0, 67, 84
2, 6828, Note_on_c, 0, 67, 0
2, 6828, Note_on_c, 0, 72, 84
2, 6840, Note_on_c, 0, 72, 0
2, 6840, Note_on_c, 0, 71, 84
2, 6852, Note_on_c, 0, 71, 0
2, 6852, Note_on_c, 0, 72, 84
2, 6864, Note_on_c, 0, 72, 0
2, 6864, Note_on_c, 0, 69, 84
2, 6876, Note_on_c, 0, 69, 0
2, 6876, Note_on_c, 0, 72, 84
2, 6888, Note_on_c, 0, 72, 0
2, 6888, Note_on_c, 0, 71, 84
2, 6900, Note_on_c, 0, 71, 0
2, 6900, Note_on_c, 0, 72, 84
2, 6912, Note_on_c, 0, 72, 0
2, 6912, Note_on_c, 0, 67, 84
2, 6924, Note_on_c, 0, 67, 0
2, 6924, Note_on_c, 0, 72, 84
2, 6936, Note_on_c, 0, 72, 0
2, 6936, Note_on_c, 0, 71, 84
2, 6948, Note_on_c, 0, 71, 0
2, 6948, Note_on_c, 0, 72, 84
2, 6960, Note_on_c, 0, 72, 0
2, 6960, Note_on_c, 0, 76, 84
2, 6972, Note_on_c, 0, 76, 0
2, 6972, Note_on_c, 0, 72, 84
2, 6984, Note_on_c, 0, 72, 0
2, 6984, Note_on_c, 0, 71, 84
2, 6996, Note_on_c, 0, 71, 0
2, 6996, Note_on_c, 0, 72, 84
2, 7008, Note_on_c, 0, 72, 0
2, 7008, Note_on_c, 0, 79, 84
2, 7020, Note_on_c, 0, 79, 0
2, 7020, Note_on_c, 0, 72, 84
2, 7032, Note_on_c, 0, 72, 0
2, 7032, Note_on_c, 0, 71, 84
2, 7044, Note_on_c, 0, 71, 0
2, 7044, Note_on_c, 0, 72, 84
2, 7056, Note_on_c, 0, 72, 0
2, 7056, Note_on_c, 0, 81, 84
2, 7068, Note_on_c, 0, 81, 0
2, 7068, Note_on_c, 0, 72, 84
2, 7080, Note_on_c, 0, 72, 0
2, 7080, Note_on_c, 0, 71, 84
2, 7092, Note_on_c, 0, 71, 0
2, 7092, Note_on_c, 0, 72, 84
2, 7104, Note_on_c, 0, 72, 0
2, 7104, Note_on_c, 0, 79, 84
2, 7116, Note_on_c, 0, 79, 0
2, 7116, Note_on_c, 0, 72, 84
2, 7128, Note_on_c, 0, 72, 0
2, 7128, Note_on_c, 0, 71, 84
2, 7140, Note_on_c, 0, 71, 0
2, 7140, Note_on_c, 0, 72, 84
2, 7152, Note_on_c, 0, 72, 0
2, 7152, Note_on_c, 0, 81, 84
2, 7164, Note_on_c, 0, 81, 0
2, 7164, Note_on_c, 0, 72, 84
2, 7176, Note_on_c, 0, 72, 0
2, 7176, Note_on_c, 0, 71, 84
2, 7188, Note_on_c, 0, 71, 0
2, 7188, Note_on_c, 0, 72, 84
2, 7200, Note_on_c, 0, 72, 0
2, 7200, Note_on_c, 0, 79, 84
2, 7212, Note_on_c, 0, 79, 0
2, 7212, Note_on_c, 0, 72, 84
2, 7224, Note_on_c, 0, 72, 0
2, 7224, Note_on_c, 0, 71, 84
2, 7236, Note_on_c, 0, 71, 0
2, 7236, Note_on_c, 0, 72, 84
2, 7248, Note_on_c, 0, 72, 0
2, 7248, Note_on_c, 0, 81, 84
2, 7260, Note_on_c, 0, 81, 0
2, 7260, Note_on_c, 0, 72, 84
2, 7272, Note_on_c, 0, 72, 0
2, 7272, Note_on_c, 0, 71, 84
2, 7284, Note_on_c, 0, 71, 0
2, 7284, Note_on_c, 0, 72, 84
2, 7296, Note_on_c, 0, 72, 0
2, 7296, Note_on_c, 0, 79, 84
2, 7308, Note_on_c, 0, 79, 0
2, 7308, Note_on_c, 0, 72, 84
2, 7320, Note_on_c, 0, 72, 0
2, 7320, Note_on_c, 0, 71, 84
2, 7332, Note_on_c, 0, 71, 0
2, 7332, Note_on_c, 0, 72, 84
2, 7344, Note_on_c, 0, 72, 0
2, 7344, Note_on_c, 0, 79, 84
2, 7356, Note_on_c, 0, 79, 0
2, 7356, Note_on_c, 0, 72, 84
2, 7368, Note_on_c, 0, 72, 0
2, 7368, Note_on_c, 0, 71, 84
2, 7380, Note_on_c, 0, 71, 0
2, 7380, Note_on_c, 0, 72, 84
2, 7392, Note_on_c, 0, 72, 0
2, 7392, Note_on_c, 0, 79, 84
2, 7404, Note_on_c, 0, 79, 0
2, 7404, Note_on_c, 0, 72, 84
2, 7416, Note_on_c, 0, 72, 0
2, 7416, Note_on_c, 0, 71, 84
2, 7428, Note_on_c, 0, 71, 0
2, 7428, Note_on_c, 0, 72, 84
2, 7440, Note_on_c, 0, 72, 0
2, 7440, Note_on_c, 0, 79, 84
2, 7452, Note_on_c, 0, 79, 0
2, 7452, Note_on_c, 0, 72, 84
2, 7464, Note_on_c, 0, 72, 0
2, 7464, Note_on_c, 0, 71, 84
2, 7476, Note_on_c, 0, 71, 0
2, 7476, Note_on_c, 0, 72, 84
2, 7488, Note_on_c, 0, 72, 0
2, 7488, Note_on_c, 0, 78, 84
2, 7500, Note_on_c, 0, 78, 0
2, 7500, Note_on_c, 0, 72, 84
2, 7512, Note_on_c, 0, 72, 0
2, 7512, Note_on_c, 0, 71, 84
2, 7524, Note_on_c, 0, 71, 0
2, 7524, Note_on_c, 0, 72, 84
2, 7536, Note_on_c, 0, 72, 0
2, 7536, Note_on_c, 0, 78, 84
2, 7548, Note_on_c, 0, 78, 0
2, 7548, Note_on_c, 0, 72, 84
2, 7560, Note_on_c, 0, 72, 0
2, 7560, Note_on_c, 0, 71, 84
2, 7572, Note_on_c, 0, 71, 0
2, 7572, Note_on_c, 0, 72, 84
2, 7584, Note_on_c, 0, 72, 0
2, 7584, Note_on_c, 0, 77, 84
2, 7596, Note_on_c, 0, 77, 0
2, 7596, Note_on_c, 0, 74, 84
2, 7608, Note_on_c, 0, 74, 0
2, 7608, Note_on_c, 0, 73, 84
2, 7620, Note_on_c, 0, 73, 0
2, 7620, Note_on_c, 0, 74, 84
2, 7632, Note_on_c, 0, 74, 0
2, 7632, Note_on_c, 0, 77, 84
2, 7644, Note_on_c, 0, 77, 0
2, 7644, Note_on_c, 0, 74, 84
2, 7656, Note_on_c, 0, 74, 0
2, 7656, Note_on_c, 0, 73, 84
2, 7668, Note_on_c, 0, 73, 0
2, 7668, Note_on_c, 0, 74, 84
2, 7680, Note_on_c, 0, 74, 0
2, 7680, Note_on_c, 0, 76, 75
2, 7703, Note_on_c, 0, 76, 0
2, 7704, Note_on_c, 0, 84, 75
2, 7714, Note_on_c, 0, 84, 0
2, 7728, Note_on_c, 0, 86, 75
2, 7740, Note_on_c, 0, 86, 0
2, 7740, Note_on_c, 0, 84, 75
2, 7752, Note_on_c, 0, 84, 0
2, 7752, Note_on_c, 0, 83, 75
2, 7764, Note_on_c, 0, 83, 0
2, 7764, Note_on_c, 0, 81, 75
2, 7776, Note_on_c, 0, 81, 0
2, 7776, Note_on_c, 0, 81, 75
2, 7788, Note_on_c, 0, 81, 0
2, 7788, Note_on_c, 0, 79, 75
2, 7800, Note_on_c, 0, 79, 0
2, 7800, Note_on_c, 0, 77, 75
2, 7812, Note_on_c, 0, 77, 0
2, 7812, Note_on_c, 0, 76, 75
2, 7824, Note_on_c, 0, 76, 0
2, 7824, Note_on_c, 0, 76, 75
2, 7836, Note_on_c, 0, 76, 0
2, 7836, Note_on_c, 0, 74, 75
2, 7848, Note_on_c, 0, 74, 0
2, 7848, Note_on_c, 0, 72, 75
2, 7860, Note_on_c, 0, 72, 0
2, 7860, Note_on_c, 0, 71, 75
2, 7872, Note_on_c, 0, 71, 0
2, 7872, Note_on_c, 0, 69, 75
2, 7895, Note_on_c, 0, 69, 0
2, 7896, Note_on_c, 0, 80, 79
2, 7908, Note_on_c, 0, 80, 0
2, 7908, Note_on_c, 0, 81, 81
2, 7920, Note_on_c, 0, 81, 0
2, 7920, Note_on_c, 0, 79, 84
2, 7932, Note_on_c, 0, 79, 0
2, 7932, Note_on_c, 0, 77, 81
2, 7944, Note_on_c, 0, 77, 0
2, 7944, Note_on_c, 0, 76, 79
2, 7956, Note_on_c, 0, 76, 0
2, 7956, Note_on_c, 0, 74, 77
2, 7968, Note_on_c, 0, 74, 0
2, 7968, Note_on_c, 0, 72, 75
2, 8013, Note_on_c, 0, 72, 0
2, 8016, Note_on_c, 0, 71, 75
2, 8026, Note_on_c, 0, 71, 0
2, 8026, Note_on_c, 0, 72, 75
2, 8036, Note_on_c, 0, 72, 0
2, 8036, Note_on_c, 0, 71, 75
2, 8046, Note_on_c, 0, 71, 0
2, 8046, Note_on_c, 0, 69, 75
2, 8055, Note_on_c, 0, 69, 0
2, 8055, Note_on_c, 0, 71, 75
2, 8064, Note_on_c, 0, 71, 0
2, 8064, Note_on_c, 0, 72, 75
2, 8076, Note_on_c, 0, 72, 0
2, 8076, Note_on_c, 0, 84, 78
2, 8088, Note_on_c, 0, 84, 0
2, 8088, Note_on_c, 0, 83, 81
2, 8100, Note_on_c, 0, 83, 0
2, 8100, Note_on_c, 0, 84, 84
2, 8112, Note_on_c, 0, 84, 0
2, 8112, Note_on_c, 0, 86, 82
2, 8124, Note_on_c, 0, 86, 0
2, 8124, Note_on_c, 0, 84, 80
2, 8136, Note_on_c, 0, 84, 0
2, 8136, Note_on_c, 0, 83, 78
2, 8148, Note_on_c, 0, 83, 0
2, 8148, Note_on_c, 0, 81, 76
2, 8160, Note_on_c, 0, 81, 0
2, 8160, Note_on_c, 0, 81, 75
2, 8172, Note_on_c, 0, 81, 0
2, 8172, Note_on_c, 0, 79, 75
2, 8184, Note_on_c, 0, 79, 0
2, 8184, Note_on_c, 0, 77, 75
2, 8196, Note_on_c, 0, 77, 0
2, 8196, Note_on_c, 0, 76, 75
2, 8208, Note_on_c, 0, 76, 0
2, 8208, Note_on_c, 0, 76, 75
2, 8220, Note_on_c, 0, 76, 0
2, 8220, Note_on_c, 0, 74, 75
2, 8232, Note_on_c, 0, 74, 0
2, 8232, Note_on_c, 0, 72, 75
2, 8244, Note_on_c, 0, 72, 0
2, 8244, Note_on_c, 0, 71, 75
2, 8256, Note_on_c, 0, 71, 0
2, 8256, Note_on_c, 0, 69, 75
2, 8279, Note_on_c, 0, 69, 0
2, 8280, Note_on_c, 0, 80, 79
2, 8292, Note_on_c, 0, 80, 0
2, 8292, Note_on_c, 0, 81, 81
2, 8304, Note_on_c, 0, 81, 0
2, 8304, Note_on_c, 0, 79, 84
2, 8316, Note_on_c, 0, 79, 0
2, 8316, Note_on_c, 0, 77, 81
2, 8328, Note_on_c, 0, 77, 0
2, 8328, Note_on_c, 0, 76, 79
2, 8340, Note_on_c, 0, 76, 0
2, 8340, Note_on_c, 0, 74, 77
2, 8352, Note_on_c, 0, 74, 0
2, 8352, Note_on_c, 0, 72, 75
2, 8397, Note_on_c, 0, 72, 0
2, 8400, Note_on_c, 0, 71, 75
2, 8410, Note_on_c, 0, 71, 0
2, 8410, Note_on_c, 0, 72, 75
2, 8420, Note_on_c, 0, 72, 0
2, 8420, Note_on_c, 0, 71, 75
2, 8430, Note_on_c, 0, 71, 0
2, 8430, Note_on_c, 0, 69, 75
2, 8439, Note_on_c, 0, 69, 0
2, 8439, Note_on_c, 0, 71, 75
2, 8448, Note_on_c, 0, 71, 0
2, 8448, Note_on_c, 0, 72, 75
2, 8468, Note_on_c, 0, 72, 0
2, 8496, Note_on_c, 0, 69, 75
2, 8496, Note_on_c, 0, 65, 75
2, 8516, Note_on_c, 0, 69, 0
2, 8516, Note_on_c, 0, 65, 0
2, 8544, Note_on_c, 0, 67, 75
2, 8544, Note_on_c, 0, 64, 75
2, 8564, Note_on_c, 0, 67, 0
2, 8564, Note_on_c, 0, 64, 0
2, 8592, Note_on_c, 0, 71, 75
2, 8592, Note_on_c, 0, 65, 75
2, 8592, Note_on_c, 0, 62, 75
2, 8612, Note_on_c, 0, 71, 0
2, 8612, Note_on_c, 0, 65, 0
2, 8612, Note_on_c, 0, 62, 0
2, 8640, Note_on_c, 0, 72, 75
2, 8640, Note_on_c, 0, 67, 75
2, 8640, Note_on_c, 0, 64, 75
2, 8660, Note_on_c, 0, 72, 0
2, 8660, Note_on_c, 0, 67, 0
2, 8660, Note_on_c, 0, 64, 0
2, 8688, Note_on_c, 0, 81, 75
2, 8688, Note_on_c, 0, 77, 75
2, 8708, Note_on_c, 0, 81, 0
2, 8708, Note_on_c, 0, 77, 0
2, 8736, Note_on_c, 0, 79, 75
2, 8736, Note_on_c, 0, 76, 75
2, 8756, Note_on_c, 0, 79, 0
2, 8756, Note_on_c, 0, 76, 0
2, 8784, Note_on_c, 0, 83, 75
2, 8784, Note_on_c, 0, 77, 75
2, 8784, Note_on_c, 0, 74, 75
2, 8804, Note_on_c, 0, 83, 0
2, 8804, Note_on_c, 0, 77, 0
2, 8804, Note_on_c, 0, 74, 0
2, 8832, Note_on_c, 0, 84, 75
2, 8832, Note_on_c, 0, 79, 75
2, 8832, Note_on_c, 0, 76, 75
2, 8921, Note_on_c, 0, 84, 0
2, 8921, Note_on_c, 0, 79, 0
2, 8921, Note_on_c, 0, 76, 0
2, 8976, Note_on_c, 0, 72, 75
2, 9010, Note_on_c, 0, 72, 0
2, 9012, Note_on_c, 0, 69, 75
2, 9024, Note_on_c, 0, 69, 0
2, 9024, Note_on_c, 0, 65, 75
2, 9044, Note_on_c, 0, 65, 0
2, 9072, Note_on_c, 0, 69, 75
2, 9106, Note_on_c, 0, 69, 0
2, 9108, Note_on_c, 0, 65, 75
2, 9120, Note_on_c, 0, 65, 0
2, 9120, Note_on_c, 0, 64, 75
2, 9140, Note_on_c, 0, 64, 0
2, 9168, Note_on_c, 0, 67, 75
2, 9202, Note_on_c, 0, 67, 0
2, 9204, Note_on_c, 0, 64, 75
2, 9216, Note_on_c, 0, 64, 0
2, 9216, Note_on_c, 0, 65, 75
2, 9261, Note_on_c, 0, 65, 0
2, 9264, Note_on_c, 0, 74, 75
2, 9264, Note_on_c, 0, 70, 75
2, 9312, Note_on_c, 0, 74, 0
2, 9312, Note_on_c, 0, 70, 0
2, 9312, Note_on_c, 0, 72, 75
2, 9312, Note_on_c, 0, 69, 75
2, 9332, Note_on_c, 0, 72, 0
2, 9332, Note_on_c, 0, 69, 0
2, 9360, Note_on_c, 0, 79, 75
2, 9372, Note_on_c, 0, 79, 0
2, 9372, Note_on_c, 0, 77, 75
2, 9384, Note_on_c, 0, 77, 0
2, 9384, Note_on_c, 0, 76, 75
2, 9396, Note_on_c, 0, 76, 0
2, 9396, Note_on_c, 0, 74, 75
2, 9408, Note_on_c, 0, 74, 0
2, 9408, Note_on_c, 0, 72, 75
2, 9453, Note_on_c, 0, 72, 0
2, 9456, Note_on_c, 0, 81, 75
2, 9471, Note_on_c, 0, 81, 0
2, 9472, Note_on_c, 0, 69, 75
2, 9487, Note_on_c, 0, 69, 0
2, 9488, Note_on_c, 0, 74, 75
2, 9503, Note_on_c, 0, 74, 0
2, 9504, Note_on_c, 0, 72, 75
2, 9549, Note_on_c, 0, 72, 0
2, 9552, Note_on_c, 0, 70, 75
2, 9562, Note_on_c, 0, 70, 0
2, 9562, Note_on_c, 0, 72, 75
2, 9572, Note_on_c, 0, 72, 0
2, 9572, Note_on_c, 0, 70, 75
2, 9582, Note_on_c, 0, 70, 0
2, 9582, Note_on_c, 0, 69, 75
2, 9591, Note_on_c, 0, 69, 0
2, 9591, Note_on_c, 0, 70, 75
2, 9600, Note_on_c, 0, 70, 0
2, 9600, Note_on_c, 0, 70, 75
2, 9696, Note_on_c, 0, 70, 0
2, 9696, Note_on_c, 0, 69, 75
2, 9716, Note_on_c, 0, 69, 0
2, 9744, Note_on_c, 0, 72, 75
2, 9756, Note_on_c, 0, 72, 0
2, 9756, Note_on_c, 0, 69, 75
2, 9768, Note_on_c, 0, 69, 0
2, 9768, Note_on_c, 0, 72, 75
2, 9780, Note_on_c, 0, 72, 0
2, 9780, Note_on_c, 0, 69, 75
2, 9792, Note_on_c, 0, 69, 0
2, 9792, Note_on_c, 0, 65, 75
2, 9812, Note_on_c, 0, 65, 0
2, 9840, Note_on_c, 0, 70, 75
2, 9852, Note_on_c, 0, 70, 0
2, 9852, Note_on_c, 0, 69, 75
2, 9864, Note_on_c, 0, 69, 0
2, 9864, Note_on_c, 0, 67, 75
2, 9876, Note_on_c, 0, 67, 0
2, 9876, Note_on_c, 0, 65, 75
2, 9888, Note_on_c, 0, 65, 0
2, 9888, Note_on_c, 0, 64, 75
2, 9908, Note_on_c, 0, 64, 0
2, 9936, Note_on_c, 0, 69, 75
2, 9948, Note_on_c, 0, 69, 0
2, 9948, Note_on_c, 0, 67, 75
2, 9960, Note_on_c, 0, 67, 0
2, 9960, Note_on_c, 0, 65, 75
2, 9972, Note_on_c, 0, 65, 0
2, 9972, Note_on_c, 0, 64, 75
2, 9984, Note_on_c, 0, 64, 0
2, 9984, Note_on_c, 0, 65, 75
2, 9994, Note_on_c, 0, 65, 0
2, 10008, Note_on_c, 0, 74, 75
2, 10020, Note_on_c, 0, 74, 0
2, 10020, Note_on_c, 0, 76, 75
2, 10032, Note_on_c, 0, 76, 0
2, 10032, Note_on_c, 0, 79, 75
2, 10044, Note_on_c, 0, 79, 0
2, 10044, Note_on_c, 0, 77, 75
2, 10056, Note_on_c, 0, 77, 0
2, 10056, Note_on_c, 0, 76, 75
2, 10068, Note_on_c, 0, 76, 0
2, 10068, Note_on_c, 0, 74, 75
2, 10080, Note_on_c, 0, 74, 0
2, 10080, Note_on_c, 0, 72, 75
2, 10100, Note_on_c, 0, 72, 0
2, 10128, Note_on_c, 0, 84, 75
2, 10140, Note_on_c, 0, 84, 0
2, 10140, Note_on_c, 0, 81, 75
2, 10152, Note_on_c, 0, 81, 0
2, 10152, Note_on_c, 0, 77, 75
2, 10164, Note_on_c, 0, 77, 0
2, 10164, Note_on_c, 0, 72, 75
2, 10176, Note_on_c, 0, 72, 0
2, 10176, Note_on_c, 0, 69, 75
2, 10272, Note_on_c, 0, 69, 0
2, 10272, Note_on_c, 0, 70, 75
2, 10292, Note_on_c, 0, 70, 0
2, 10320, Note_on_c, 0, 82, 75
2, 10332, Note_on_c, 0, 82, 0
2, 10332, Note_on_c, 0, 79, 75
2, 10344, Note_on_c, 0, 79, 0
2, 10344, Note_on_c, 0, 76, 75
2, 10356, Note_on_c, 0, 76, 0
2, 10356, Note_on_c, 0, 72, 75
2, 10368, Note_on_c, 0, 72, 0
2, 10368, Note_on_c, 0, 70, 75
2, 10464, Note_on_c, 0, 70, 0
2, 10464, Note_on_c, 0, 69, 65
2, 10484, Note_on_c, 0, 69, 0
2, 10512, Note_on_c, 0, 77, 60
2, 10524, Note_on_c, 0, 77, 0
2, 10524, Note_on_c, 0, 72, 60
2, 10536, Note_on_c, 0, 72, 0
2, 10536, Note_on_c, 0, 69, 62
2, 10548, Note_on_c, 0, 69, 0
2, 10548, Note_on_c, 0, 65, 65
2, 10560, Note_on_c, 0, 65, 0
2, 10560, Note_on_c, 0, 63, 84
2, 10775, Note_on_c, 0, 63, 0
2, 10776, Note_on_c, 0, 61, 75
2, 10800, Note_on_c, 0, 61, 0
2, 10800, Note_on_c, 0, 62, 76
2, 10810, Note_on_c, 0, 62, 0
2, 10824, Note_on_c, 0, 66, 77
2, 10848, Note_on_c, 0, 66, 0
2, 10848, Note_on_c, 0, 67, 78
2, 10858, Note_on_c, 0, 67, 0
2, 10872, Note_on_c, 0, 69, 80
2, 10896, Note_on_c, 0, 69, 0
2, 10896, Note_on_c, 0, 70, 81
2, 10906, Note_on_c, 0, 70, 0
2, 10920, Note_on_c, 0, 74, 82
2, 10920, Note_on_c, 0, 70, 82
2, 10930, Note_on_c, 0, 74, 0
2, 10930, Note_on_c, 0, 70, 0
2, 10944, Note_on_c, 0, 74, 84
2, 10944, Note_on_c, 0, 70, 84
2, 10968, Note_on_c, 0, 74, 0
2, 10968, Note_on_c, 0, 70, 0
2, 10968, Note_on_c, 0, 72, 83
2, 10968, Note_on_c, 0, 69, 83
2, 10991, Note_on_c, 0, 72, 0
2, 10991, Note_on_c, 0, 69, 0
2, 10992, Note_on_c, 0, 70, 82
2, 10992, Note_on_c, 0, 67, 82
2, 11002, Note_on_c, 0, 70, 0
2, 11002, Note_on_c, 0, 67, 0
2, 11016, Note_on_c, 0, 69, 82
2, 11016, Note_on_c, 0, 65, 82
2, 11026, Note_on_c, 0, 69, 0
2, 11026, Note_on_c, 0, 65, 0
2, 11040, Note_on_c, 0, 72, 81
2, 11040, Note_on_c, 0, 69, 81
2, 11064, Note_on_c, 0, 72, 0
2, 11064, Note_on_c, 0, 69, 0
2, 11064, Note_on_c, 0, 70, 80
2, 11064, Note_on_c, 0, 67, 80
2, 11087, Note_on_c, 0, 70, 0
2, 11087, Note_on_c, 0, 67, 0
2, 11088, Note_on_c, 0, 69, 80
2, 11088, Note_on_c, 0, 65, 80
2, 11098, Note_on_c, 0, 69, 0
2, 11098, Note_on_c, 0, 65, 0
2, 11112, Note_on_c, 0, 67, 79
2, 11112, Note_on_c, 0, 64, 79
2, 11122, Note_on_c, 0, 67, 0
2, 11122, Note_on_c, 0, 64, 0
2, 11136, Note_on_c, 0, 67, 78
2, 11136, Note_on_c, 0, 64, 78
2, 11232, Note_on_c, 0, 67, 0
2, 11232, Note_on_c, 0, 64, 0
2, 11232, Note_on_c, 0, 65, 76
2, 11252, Note_on_c, 0, 65, 0
2, 11280, Note_on_c, 0, 84, 75
2, 11292, Note_on_c, 0, 84, 0
2, 11292, Note_on_c, 0, 81, 75
2, 11304, Note_on_c, 0, 81, 0
2, 11304, Note_on_c, 0, 84, 75
2, 11316, Note_on_c, 0, 84, 0
2, 11316, Note_on_c, 0, 81, 75
2, 11328, Note_on_c, 0, 81, 0
2, 11328, Note_on_c, 0, 77, 75
2, 11348, Note_on_c, 0, 77, 0
2, 11400, Note_on_c, 0, 81, 75
2, 11410, Note_on_c, 0, 81, 0
2, 11424, Note_on_c, 0, 79, 75
2, 11434, Note_on_c, 0, 79, 0
2, 11448, Note_on_c, 0, 77, 75
2, 11458, Note_on_c, 0, 77, 0
2, 11472, Note_on_c, 0, 76, 75
2, 11482, Note_on_c, 0, 76, 0
2, 11496, Note_on_c, 0, 74, 75
2, 11506, Note_on_c, 0, 74, 0
2, 11520, Note_on_c, 0, 74, 91
2, 11592, Note_on_c, 0, 74, 0
2, 11592, Note_on_c, 0, 76, 84
2, 11604, Note_on_c, 0, 76, 0
2, 11604, Note_on_c, 0, 74, 82
2, 11616, Note_on_c, 0, 74, 0
2, 11616, Note_on_c, 0, 73, 81
2, 11636, Note_on_c, 0, 73, 0
2, 11664, Note_on_c, 0, 76, 75
2, 11676, Note_on_c, 0, 76, 0
2, 11676, Note_on_c, 0, 73, 75
2, 11688, Note_on_c, 0, 73, 0
2, 11688, Note_on_c, 0, 76, 75
2, 11700, Note_on_c, 0, 76, 0
2, 11700, Note_on_c, 0, 73, 75
2, 11712, Note_on_c, 0, 73, 0
2, 11712, Note_on_c, 0, 69, 75
2, 11732, Note_on_c, 0, 69, 0
2, 11784, Note_on_c, 0, 82, 75
2, 11794, Note_on_c, 0, 82, 0
2, 11808, Note_on_c, 0, 81, 75
2, 11818, Note_on_c, 0, 81, 0
2, 11832, Note_on_c, 0, 79, 75
2, 11842, Note_on_c, 0, 79, 0
2, 11856, Note_on_c, 0, 77, 75
2, 11866, Note_on_c, 0, 77, 0
2, 11880, Note_on_c, 0, 76, 75
2, 11890, Note_on_c, 0, 76, 0
2, 11904, Note_on_c, 0, 79, 91
2, 11976, Note_on_c, 0, 79, 0
2, 11976, Note_on_c, 0, 76, 84
2, 11999, Note_on_c, 0, 76, 0
2, 12000, Note_on_c, 0, 77, 81
2, 12020, Note_on_c, 0, 77, 0
2, 12048, Note_on_c, 0, 81, 75
2, 12060, Note_on_c, 0, 81, 0
2, 12060, Note_on_c, 0, 77, 75
2, 12072, Note_on_c, 0, 77, 0
2, 12072, Note_on_c, 0, 81, 75
2, 12084, Note_on_c, 0, 81, 0
2, 12084, Note_on_c, 0, 77, 75
2, 12096, Note_on_c, 0, 77, 0
2, 12096, Note_on_c, 0, 74, 75
2, 12116, Note_on_c, 0, 74, 0
2, 12168, Note_on_c, 0, 86, 75
2, 12178, Note_on_c, 0, 86, 0
2, 12192, Note_on_c, 0, 84, 75
2, 12202, Note_on_c, 0, 84, 0
2, 12216, Note_on_c, 0, 83, 75
2, 12226, Note_on_c, 0, 83, 0
2, 12240, Note_on_c, 0, 81, 75
2, 12250, Note_on_c, 0, 81, 0
2, 12264, Note_on_c, 0, 79, 75
2, 12274, Note_on_c, 0, 79, 0
2, 12288, Note_on_c, 0, 77, 91
2, 12336, Note_on_c, 0, 77, 0
2, 12336, Note_on_c, 0, 76, 75
2, 12359, Note_on_c, 0, 76, 0
2, 12360, Note_on_c, 0, 79, 75
2, 12370, Note_on_c, 0, 79, 0
2, 12384, Note_on_c, 0, 77, 75
2, 12394, Note_on_c, 0, 77, 0
2, 12408, Note_on_c, 0, 76, 75
2, 12418, Note_on_c, 0, 76, 0
2, 12432, Note_on_c, 0, 74, 75
2, 12442, Note_on_c, 0, 74, 0
2, 12456, Note_on_c, 0, 72, 75
2, 12466, Note_on_c, 0, 72, 0
2, 12480, Note_on_c, 0, 71, 91
2, 12528, Note_on_c, 0, 71, 0
2, 12528, Note_on_c, 0, 69, 75
2, 12540, Note_on_c, 0, 69, 0
2, 12540, Note_on_c, 0, 74, 75
2, 12552, Note_on_c, 0, 74, 0
2, 12552, Note_on_c, 0, 77, 76
2, 12564, Note_on_c, 0, 77, 0
2, 12564, Note_on_c, 0, 81, 77
2, 12576, Note_on_c, 0, 81, 0
2, 12576, Note_on_c, 0, 79, 78
2, 12586, Note_on_c, 0, 79, 0
2, 12600, Note_on_c, 0, 77, 79
2, 12610, Note_on_c, 0, 77, 0
2, 12624, Note_on_c, 0, 76, 81
2, 12634, Note_on_c, 0, 76, 0
2, 12648, Note_on_c, 0, 74, 82
2, 12658, Note_on_c, 0, 74, 0
2, 12672, Note_on_c, 0, 72, 84
2, 12720, Note_on_c, 0, 72, 0
2, 12720, Note_on_c, 0, 71, 84
2, 12765, Note_on_c, 0, 71, 0
2, 12876, Note_on_c, 0, 79, 84
2, 12888, Note_on_c, 0, 79, 0
2, 12888, Note_on_c, 0, 81, 84
2, 12900, Note_on_c, 0, 81, 0
2, 12900, Note_on_c, 0, 79, 84
2, 12912, Note_on_c, 0, 79, 0
2, 12912, Note_on_c, 0, 84, 84
2, 12924, Note_on_c, 0, 84, 0
2, 12924, Note_on_c, 0, 83, 84
2, 12936, Note_on_c, 0, 83, 0
2, 12936, Note_on_c, 0, 81, 84
2, 12948, Note_on_c, 0, 81, 0
2, 12948, Note_on_c, 0, 79, 84
2, 12960, Note_on_c, 0, 79, 0
2, 12960, Note_on_c, 0, 77, 84
2, 12972, Note_on_c, 0, 77, 0
2, 12972, Note_on_c, 0, 76, 84
2, 12984, Note_on_c, 0, 76, 0
2, 12984, Note_on_c, 0, 74, 84
2, 12996, Note_on_c, 0, 74, 0
2, 12996, Note_on_c, 0, 72, 84
2, 13008, Note_on_c, 0, 72, 0
2, 13008, Note_on_c, 0, 71, 84
2, 13020, Note_on_c, 0, 71, 0
2, 13020, Note_on_c, 0, 72, 84
2, 13032, Note_on_c, 0, 72, 0
2, 13032, Note_on_c, 0, 74, 84
2, 13044, Note_on_c, 0, 74, 0
2, 13044, Note_on_c, 0, 72, 84
2, 13056, Note_on_c, 0, 72, 0
2, 13056, Note_on_c, 0, 69, 84
2, 13068, Note_on_c, 0, 69, 0
2, 13068, Note_on_c, 0, 72, 84
2, 13080, Note_on_c, 0, 72, 0
2, 13080, Note_on_c, 0, 74, 84
2, 13092, Note_on_c, 0, 74, 0
2, 13092, Note_on_c, 0, 72, 84
2, 13104, Note_on_c, 0, 72, 0
2, 13104, Note_on_c, 0, 67, 84
2, 13116, Note_on_c, 0, 67, 0
2, 13116, Note_on_c, 0, 72, 84
2, 13128, Note_on_c, 0, 72, 0
2, 13128, Note_on_c, 0, 74, 84
2, 13140, Note_on_c, 0, 74, 0
2, 13140, Note_on_c, 0, 72, 84
2, 13152, Note_on_c, 0, 72, 0
2, 13152, Note_on_c, 0, 65, 84
2, 13162, Note_on_c, 0, 65, 0
2, 13176, Note_on_c, 0, 77, 84
2, 13186, Note_on_c, 0, 77, 0
2, 13224, Note_on_c, 0, 77, 84
2, 13234, Note_on_c, 0, 77, 0
2, 13248, Note_on_c, 0, 76, 84
2, 13260, Note_on_c, 0, 76, 0
2, 13260, Note_on_c, 0, 79, 84
2, 13272, Note_on_c, 0, 79, 0
2, 13272, Note_on_c, 0, 81, 84
2, 13284, Note_on_c, 0, 81, 0
2, 13284, Note_on_c, 0, 79, 84
2, 13296, Note_on_c, 0, 79, 0
2, 13296, Note_on_c, 0, 84, 84
2, 13308, Note_on_c, 0, 84, 0
2, 13308, Note_on_c, 0, 83, 84
2, 13320, Note_on_c, 0, 83, 0
2, 13320, Note_on_c, 0, 81, 84
2, 13332, Note_on_c, 0, 81, 0
2, 13332, Note_on_c, 0, 79, 84
2, 13344, Note_on_c, 0, 79, 0
2, 13344, Note_on_c, 0, 77, 84
2, 13356, Note_on_c, 0, 77, 0
2, 13356, Note_on_c, 0, 76, 84
2, 13368, Note_on_c, 0, 76, 0
2, 13368, Note_on_c, 0, 74, 84
2, 13380, Note_on_c, 0, 74, 0
2, 13380, Note_on_c, 0, 72, 84
2, 13392, Note_on_c, 0, 72, 0
2, 13392, Note_on_c, 0, 71, 84
2, 13404, Note_on_c, 0, 71, 0
2, 13404, Note_on_c, 0, 72, 84
2, 13416, Note_on_c, 0, 72, 0
2, 13416, Note_on_c, 0, 74, 84
2, 13428, Note_on_c, 0, 74, 0
2, 13428, Note_on_c, 0, 72, 84
2, 13440, Note_on_c, 0, 72, 0
2, 13440, Note_on_c, 0, 69, 84
2, 13452, Note_on_c, 0, 69, 0
2, 13452, Note_on_c, 0, 72, 84
2, 13464, Note_on_c, 0, 72, 0
2, 13464, Note_on_c, 0, 74, 84
2, 13476, Note_on_c, 0, 74, 0
2, 13476, Note_on_c, 0, 72, 84
2, 13488, Note_on_c, 0, 72, 0
2, 13488, Note_on_c, 0, 67, 84
2, 13500, Note_on_c, 0, 67, 0
2, 13500, Note_on_c, 0, 72, 84
2, 13512, Note_on_c, 0, 72, 0
2, 13512, Note_on_c, 0, 74, 84
2, 13524, Note_on_c, 0, 74, 0
2, 13524, Note_on_c, 0, 72, 84
2, 13536, Note_on_c, 0, 72, 0
2, 13536, Note_on_c, 0, 65, 84
2, 13546, Note_on_c, 0, 65, 0
2, 13560, Note_on_c, 0, 77, 84
2, 13570, Note_on_c, 0, 77, 0
2, 13608, Note_on_c, 0, 77, 84
2, 13618, Note_on_c, 0, 77, 0
2, 13632, Note_on_c, 0, 76, 84
2, 13644, Note_on_c, 0, 76, 0
2, 13644, Note_on_c, 0, 77, 84
2, 13656, Note_on_c, 0, 77, 0
2, 13656, Note_on_c, 0, 79, 84
2, 13668, Note_on_c, 0, 79, 0
2, 13668, Note_on_c, 0, 77, 84
2, 13680, Note_on_c, 0, 77, 0
2, 13680, Note_on_c, 0, 76, 84
2, 13692, Note_on_c, 0, 76, 0
2, 13692, Note_on_c, 0, 74, 84
2, 13704, Note_on_c, 0, 74, 0
2, 13704, Note_on_c, 0, 72, 84
2, 13716, Note_on_c, 0, 72, 0
2, 13716, Note_on_c, 0, 71, 84
2, 13728, Note_on_c, 0, 71, 0
2, 13728, Note_on_c, 0, 72, 84
2, 13740, Note_on_c, 0, 72, 0
2, 13740, Note_on_c, 0, 74, 84
2, 13752, Note_on_c, 0, 74, 0
2, 13752, Note_on_c, 0, 76, 84
2, 13764, Note_on_c, 0, 76, 0
2, 13764, Note_on_c, 0, 74, 84
2, 13776, Note_on_c, 0, 74, 0
2, 13776, Note_on_c, 0, 72, 84
2, 13788, Note_on_c, 0, 72, 0
2, 13788, Note_on_c, 0, 71, 84
2, 13800, Note_on_c, 0, 71, 0
2, 13800, Note_on_c, 0, 69, 84
2, 13812, Note_on_c, 0, 69, 0
2, 13812, Note_on_c, 0, 68, 84
2, 13824, Note_on_c, 0, 68, 0
2, 13836, Note_on_c, 0, 69, 84
2, 13848, Note_on_c, 0, 69, 0
2, 13848, Note_on_c, 0, 71, 84
2, 13860, Note_on_c, 0, 71, 0
2, 13860, Note_on_c, 0, 73, 84
2, 13872, Note_on_c, 0, 73, 0
2, 13872, Note_on_c, 0, 74, 84
2, 13884, Note_on_c, 0, 74, 0
2, 13884, Note_on_c, 0, 76, 84
2, 13896, Note_on_c, 0, 76, 0
2, 13896, Note_on_c, 0, 77, 84
2, 13908, Note_on_c, 0, 77, 0
2, 13908, Note_on_c, 0, 79, 84
2, 13920, Note_on_c, 0, 79, 0
2, 13920, Note_on_c, 0, 81, 84
2, 13932, Note_on_c, 0, 81, 0
2, 13932, Note_on_c, 0, 77, 84
2, 13944, Note_on_c, 0, 77, 0
2, 13944, Note_on_c, 0, 74, 84
2, 13956, Note_on_c, 0, 74, 0
2, 13956, Note_on_c, 0, 69, 84
2, 13968, Note_on_c, 0, 69, 0
2, 13968, Note_on_c, 0, 79, 84
2, 13980, Note_on_c, 0, 79, 0
2, 13980, Note_on_c, 0, 76, 84
2, 13992, Note_on_c, 0, 76, 0
2, 13992, Note_on_c, 0, 73, 84
2, 14004, Note_on_c, 0, 73, 0
2, 14004, Note_on_c, 0, 67, 84
2, 14016, Note_on_c, 0, 67, 0
2, 14028, Note_on_c, 0, 77, 84
2, 14040, Note_on_c, 0, 77, 0
2, 14040, Note_on_c, 0, 79, 85
2, 14052, Note_on_c, 0, 79, 0
2, 14052, Note_on_c, 0, 81, 86
2, 14064, Note_on_c, 0, 81, 0
2, 14064, Note_on_c, 0, 83, 87
2, 14076, Note_on_c, 0, 83, 0
2, 14076, Note_on_c, 0, 84, 88
2, 14088, Note_on_c, 0, 84, 0
2, 14088, Note_on_c, 0, 86, 89
2, 14100, Note_on_c, 0, 86, 0
2, 14100, Note_on_c, 0, 88, 90
2, 14112, Note_on_c, 0, 88, 0
2, 14112, Note_on_c, 0, 89, 89
2, 14124, Note_on_c, 0, 89, 0
2, 14124, Note_on_c, 0, 86, 88
2, 14136, Note_on_c, 0, 86, 0
2, 14136, Note_on_c, 0, 83, 88
2, 14148, Note_on_c, 0, 83, 0
2, 14148, Note_on_c, 0, 77, 87
2, 14160, Note_on_c, 0, 77, 0
2, 14160, Note_on_c, 0, 76, 86
2, 14183, Note_on_c, 0, 76, 0
2, 14184, Note_on_c, 0, 84, 85
2, 14207, Note_on_c, 0, 84, 0
2, 14232, Note_on_c, 0, 81, 84
2, 14232, Note_on_c, 0, 77, 84
2, 14255, Note_on_c, 0, 81, 0
2, 14255, Note_on_c, 0, 77, 0
2, 14256, Note_on_c, 0, 79, 82
2, 14256, Note_on_c, 0, 76, 82
2, 14279, Note_on_c, 0, 79, 0
2, 14279, Note_on_c, 0, 76, 0
2, 14280, Note_on_c, 0, 77, 80
2, 14280, Note_on_c, 0, 74, 80
2, 14303, Note_on_c, 0, 77, 0
2, 14303, Note_on_c, 0, 74, 0
2, 14304, Note_on_c, 0, 76, 78
2, 14304, Note_on_c, 0, 72, 78
2, 14327, Note_on_c, 0, 76, 0
2, 14327, Note_on_c, 0, 72, 0
2, 14328, Note_on_c, 0, 79, 76
2, 14328, Note_on_c, 0, 76, 76
2, 14351, Note_on_c, 0, 79, 0
2, 14351, Note_on_c, 0, 76, 0
2, 14376, Note_on_c, 0, 71, 75
2, 14376, Note_on_c, 0, 65, 75
2, 14386, Note_on_c, 0, 71, 0
2, 14386, Note_on_c, 0, 65, 0
2, 14424, Note_on_c, 0, 72, 68
2, 14424, Note_on_c, 0, 63, 68
2, 14434, Note_on_c, 0, 72, 0
2, 14434, Note_on_c, 0, 63, 0
2, 14472, Note_on_c, 0, 75, 68
2, 14495, Note_on_c, 0, 75, 0
2, 14508, Note_on_c, 0, 75, 68
2, 14520, Note_on_c, 0, 75, 0
2, 14520, Note_on_c, 0, 74, 68
2, 14532, Note_on_c, 0, 74, 0
2, 14532, Note_on_c, 0, 75, 68
2, 14544, Note_on_c, 0, 75, 0
2, 14544, Note_on_c, 0, 77, 68
2, 14556, Note_on_c, 0, 77, 0
2, 14556, Note_on_c, 0, 75, 68
2, 14568, Note_on_c, 0, 75, 0
2, 14568, Note_on_c, 0, 74, 68
2, 14580, Note_on_c, 0, 74, 0
2, 14580, Note_on_c, 0, 75, 68
2, 14592, Note_on_c, 0, 75, 0
2, 14592, Note_on_c, 0, 84, 84
2, 14616, Note_on_c, 0, 84, 0
2, 14616, Note_on_c, 0, 75, 68
2, 14639, Note_on_c, 0, 75, 0
2, 14664, Note_on_c, 0, 75, 69
2, 14687, Note_on_c, 0, 75, 0
2, 14700, Note_on_c, 0, 75, 70
2, 14712, Note_on_c, 0, 75, 0
2, 14712, Note_on_c, 0, 74, 71
2, 14724, Note_on_c, 0, 74, 0
2, 14724, Note_on_c, 0, 75, 71
2, 14736, Note_on_c, 0, 75, 0
2, 14736, Note_on_c, 0, 77, 71
2, 14748, Note_on_c, 0, 77, 0
2, 14748, Note_on_c, 0, 75, 72
2, 14760, Note_on_c, 0, 75, 0
2, 14760, Note_on_c, 0, 74, 72
2, 14772, Note_on_c, 0, 74, 0
2, 14772, Note_on_c, 0, 75, 72
2, 14784, Note_on_c, 0, 75, 0
2, 14784, Note_on_c, 0, 84, 89
2, 14808, Note_on_c, 0, 84, 0
2, 14808, Note_on_c, 0, 75, 73
2, 14831, Note_on_c, 0, 75, 0
2, 14856, Note_on_c, 0, 75, 75
2, 14879, Note_on_c, 0, 75, 0
2, 14892, Note_on_c, 0, 75, 76
2, 14904, Note_on_c, 0, 75, 0
2, 14904, Note_on_c, 0, 74, 76
2, 14916, Note_on_c, 0, 74, 0
2, 14916, Note_on_c, 0, 75, 76
2, 14928, Note_on_c, 0, 75, 0
2, 14928, Note_on_c, 0, 77, 77
2, 14940, Note_on_c, 0, 77, 0
2, 14940, Note_on_c, 0, 75, 77
2, 14952, Note_on_c, 0, 75, 0
2, 14952, Note_on_c, 0, 74, 77
2, 14964, Note_on_c, 0, 74, 0
2, 14964, Note_on_c, 0, 72, 78
2, 14976, Note_on_c, 0, 72, 0
2, 14976, Note_on_c, 0, 71, 78
2, 14988, Note_on_c, 0, 71, 0
2, 14988, Note_on_c, 0, 72, 78
2, 15000, Note_on_c, 0, 72, 0
2, 15000, Note_on_c, 0, 74, 79
2, 15012, Note_on_c, 0, 74, 0
2, 15012, Note_on_c, 0, 72, 79
2, 15024, Note_on_c, 0, 72, 0
2, 15024, Note_on_c, 0, 71, 79
2, 15036, Note_on_c, 0, 71, 0
2, 15036, Note_on_c, 0, 69, 80
2, 15048, Note_on_c, 0, 69, 0
2, 15048, Note_on_c, 0, 67, 80
2, 15060, Note_on_c, 0, 67, 0
2, 15060, Note_on_c, 0, 66, 80
2, 15072, Note_on_c, 0, 66, 0
2, 15072, Note_on_c, 0, 67, 81
2, 15095, Note_on_c, 0, 67, 0
2, 15096, Note_on_c, 0, 74, 81
2, 15108, Note_on_c, 0, 74, 0
2, 15108, Note_on_c, 0, 72, 82
2, 15120, Note_on_c, 0, 72, 0
2, 15120, Note_on_c, 0, 71, 82
2, 15132, Note_on_c, 0, 71, 0
2, 15132, Note_on_c, 0, 69, 82
2, 15144, Note_on_c, 0, 69, 0
2, 15144, Note_on_c, 0, 67, 83
2, 15156, Note_on_c, 0, 67, 0
2, 15156, Note_on_c, 0, 65, 83
2, 15168, Note_on_c, 0, 65, 0
2, 15168, Note_on_c, 0, 64, 83
2, 15180, Note_on_c, 0, 64, 0
2, 15180, Note_on_c, 0, 72, 84
2, 15192, Note_on_c, 0, 72, 0
2, 15192, Note_on_c, 0, 71, 84
2, 15204, Note_on_c, 0, 71, 0
2, 15204, Note_on_c, 0, 72, 84
2, 15216, Note_on_c, 0, 72, 0
2, 15216, Note_on_c, 0, 76, 84
2, 15228, Note_on_c, 0, 76, 0
2, 15228, Note_on_c, 0, 72, 84
2, 15240, Note_on_c, 0, 72, 0
2, 15240, Note_on_c, 0, 71, 84
2, 15252, Note_on_c, 0, 71, 0
2, 15252, Note_on_c, 0, 72, 84
2, 15264, Note_on_c, 0, 72, 0
2, 15264, Note_on_c, 0, 67, 84
2, 15276, Note_on_c, 0, 67, 0
2, 15276, Note_on_c, 0, 72, 84
2, 15288, Note_on_c, 0, 72, 0
2, 15288, Note_on_c, 0, 71, 84
2, 15300, Note_on_c, 0, 71, 0
2, 15300, Note_on_c, 0, 72, 84
2, 15312, Note_on_c, 0, 72, 0
2, 15312, Note_on_c, 0, 69, 84
2, 15324, Note_on_c, 0, 69, 0
2, 15324, Note_on_c, 0, 72, 84
2, 15336, Note_on_c, 0, 72, 0
2, 15336, Note_on_c, 0, 71, 84
2, 15348, Note_on_c, 0, 71, 0
2, 15348, Note_on_c, 0, 72, 84
2, 15360, Note_on_c, 0, 72, 0
2, 15360, Note_on_c, 0, 67, 84
2, 15372, Note_on_c, 0, 67, 0
2, 15372, Note_on_c, 0, 72, 84
2, 15384, Note_on_c, 0, 72, 0
2, 15384, Note_on_c, 0, 71, 84
2, 15396, Note_on_c, 0, 71, 0
2, 15396, Note_on_c, 0, 72, 84
2, 15408, Note_on_c, 0, 72, 0
2, 15408, Note_on_c, 0, 76, 84
2, 15420, Note_on_c, 0, 76, 0
2, 15420, Note_on_c, 0, 72, 84
2, 15432, Note_on_c, 0, 72, 0
2, 15432, Note_on_c, 0, 71, 84
2, 15444, Note_on_c, 0, 71, 0
2, 15444, Note_on_c, 0, 72, 84
2, 15456, Note_on_c, 0, 72, 0
2, 15456, Note_on_c, 0, 79, 84
2, 15468, Note_on_c, 0, 79, 0
2, 15468, Note_on_c, 0, 72, 84
2, 15480, Note_on_c, 0, 72, 0
2, 15480, Note_on_c, 0, 71, 84
2, 15492, Note_on_c, 0, 71, 0
2, 15492, Note_on_c, 0, 72, 84
2, 15504, Note_on_c, 0, 72, 0
2, 15504, Note_on_c, 0, 81, 84
2, 15516, Note_on_c, 0, 81, 0
2, 15516, Note_on_c, 0, 72, 84
2, 15528, Note_on_c, 0, 72, 0
2, 15528, Note_on_c, 0, 71, 84
2, 15540, Note_on_c, 0, 71, 0
2, 15540, Note_on_c, 0, 72, 84
2, 15552, Note_on_c, 0, 72, 0
2, 15552, Note_on_c, 0, 79, 84
2, 15564, Note_on_c, 0, 79, 0
2, 15564, Note_on_c, 0, 72, 84
2, 15576, Note_on_c, 0, 72, 0
2, 15576, Note_on_c, 0, 71, 84
2, 15588, Note_on_c, 0, 71, 0
2, 15588, Note_on_c, 0, 72, 84
2, 15600, Note_on_c, 0, 72, 0
2, 15600, Note_on_c, 0, 76, 84
2, 15612, Note_on_c, 0, 76, 0
2, 15612, Note_on_c, 0, 72, 84
2, 15624, Note_on_c, 0, 72, 0
2, 15624, Note_on_c, 0, 71, 84
2, 15636, Note_on_c, 0, 71, 0
2, 15636, Note_on_c, 0, 72, 84
2, 15648, Note_on_c, 0, 72, 0
2, 15648, Note_on_c, 0, 67, 84
2, 15660, Note_on_c, 0, 67, 0
2, 15660, Note_on_c, 0, 72, 84
2, 15672, Note_on_c, 0, 72, 0
2, 15672, Note_on_c, 0, 71, 84
2, 15684, Note_on_c, 0, 71, 0
2, 15684, Note_on_c, 0, 72, 84
2, 15696, Note_on_c, 0, 72, 0
2, 15696, Note_on_c, 0, 69, 84
2, 15708, Note_on_c, 0, 69, 0
2, 15708, Note_on_c, 0, 72, 84
2, 15720, Note_on_c, 0, 72, 0
2, 15720, Note_on_c, 0, 71, 84
2, 15732, Note_on_c, 0, 71, 0
2, 15732, Note_on_c, 0, 72, 84
2, 15744, Note_on_c, 0, 72, 0
2, 15744, Note_on_c, 0, 67, 84
2, 15756, Note_on_c, 0, 67, 0
2, 15756, Note_on_c, 0, 72, 84
2, 15768, Note_on_c, 0, 72, 0
2, 15768, Note_on_c, 0, 71, 84
2, 15780, Note_on_c, 0, 71, 0
2, 15780, Note_on_c, 0, 72, 84
2, 15792, Note_on_c, 0, 72, 0
2, 15792, Note_on_c, 0, 76, 84
2, 15804, Note_on_c, 0, 76, 0
2, 15804, Note_on_c, 0, 72, 84
2, 15816, Note_on_c, 0, 72, 0
2, 15816, Note_on_c, 0, 71, 84
2, 15828, Note_on_c, 0, 71, 0
2, 15828, Note_on_c, 0, 72, 84
2, 15840, Note_on_c, 0, 72, 0
2, 15840, Note_on_c, 0, 79, 84
2, 15852, Note_on_c, 0, 79, 0
2, 15852, Note_on_c, 0, 72, 84
2, 15864, Note_on_c, 0, 72, 0
2, 15864, Note_on_c, 0, 71, 84
2, 15876, Note_on_c, 0, 71, 0
2, 15876, Note_on_c, 0, 72, 84
2, 15888, Note_on_c, 0, 72, 0
2, 15888, Note_on_c, 0, 81, 84
2, 15900, Note_on_c, 0, 81, 0
2, 15900, Note_on_c, 0, 72, 84
2, 15912, Note_on_c, 0, 72, 0
2, 15912, Note_on_c, 0, 71, 84
2, 15924, Note_on_c, 0, 71, 0
2, 15924, Note_on_c, 0, 72, 84
2, 15936, Note_on_c, 0, 72, 0
2, 15936, Note_on_c, 0, 79, 84
2, 15948, Note_on_c, 0, 79, 0
2, 15948, Note_on_c, 0, 72, 84
2, 15960, Note_on_c, 0, 72, 0
2, 15960, Note_on_c, 0, 71, 84
2, 15972, Note_on_c, 0, 71, 0
2, 15972, Note_on_c, 0, 72, 84
2, 15984, Note_on_c, 0, 72, 0
2, 15984, Note_on_c, 0, 81, 84
2, 15996, Note_on_c, 0, 81, 0
2, 15996, Note_on_c, 0, 72, 84
2, 16008, Note_on_c, 0, 72, 0
2, 16008, Note_on_c, 0, 71, 84
2, 16020, Note_on_c, 0, 71, 0
2, 16020, Note_on_c, 0, 72, 84
2, 16032, Note_on_c, 0, 72, 0
2, 16032, Note_on_c, 0, 79, 84
2, 16044, Note_on_c, 0, 79, 0
2, 16044, Note_on_c, 0, 72, 84
2, 16056, Note_on_c, 0, 72, 0
2, 16056, Note_on_c, 0, 71, 84
2, 16068, Note_on_c, 0, 71, 0
2, 16068, Note_on_c, 0, 72, 84
2, 16080, Note_on_c, 0, 72, 0
2, 16080, Note_on_c, 0, 81, 84
2, 16092, Note_on_c, 0, 81, 0
2, 16092, Note_on_c, 0, 72, 84
2, 16104, Note_on_c, 0, 72, 0
2, 16104, Note_on_c, 0, 71, 84
2, 16116, Note_on_c, 0, 71, 0
2, 16116, Note_on_c, 0, 72, 84
2, 16128, Note_on_c, 0, 72, 0
2, 16128, Note_on_c, 0, 79, 84
2, 16140, Note_on_c, 0, 79, 0
2, 16140, Note_on_c, 0, 72, 84
2, 16152, Note_on_c, 0, 72, 0
2, 16152, Note_on_c, 0, 71, 84
2, 16164, Note_on_c, 0, 71, 0
2, 16164, Note_on_c, 0, 72, 84
2, 16176, Note_on_c, 0, 72, 0
2, 16176, Note_on_c, 0, 79, 84
2, 16188, Note_on_c, 0, 79, 0
2, 16188, Note_on_c, 0, 72, 84
2, 16200, Note_on_c, 0, 72, 0
2, 16200, Note_on_c, 0, 71, 84
2, 16212, Note_on_c, 0, 71, 0
2, 16212, Note_on_c, 0, 72, 84
2, 16224, Note_on_c, 0, 72, 0
2, 16224, Note_on_c, 0, 79, 84
2, 16236, Note_on_c, 0, 79, 0
2, 16236, Note_on_c, 0, 72, 84
2, 16248, Note_on_c, 0, 72, 0
2, 16248, Note_on_c, 0, 71, 84
2, 16260, Note_on_c, 0, 71, 0
2, 16260, Note_on_c, 0, 72, 84
2, 16272, Note_on_c, 0, 72, 0
2, 16272, Note_on_c, 0, 79, 84
2, 16284, Note_on_c, 0, 79, 0
2, 16284, Note_on_c, 0, 72, 84
2, 16296, Note_on_c, 0, 72, 0
2, 16296, Note_on_c, 0, 71, 84
2, 16308, Note_on_c, 0, 71, 0
2, 16308, Note_on_c, 0, 72, 84
2, 16320, Note_on_c, 0, 72, 0
2, 16320, Note_on_c, 0, 78, 84
2, 16332, Note_on_c, 0, 78, 0
2, 16332, Note_on_c, 0, 72, 84
2, 16344, Note_on_c, 0, 72, 0
2, 16344, Note_on_c, 0, 71, 84
2, 16356, Note_on_c, 0, 71, 0
2, 16356, Note_on_c, 0, 72, 84
2, 16368, Note_on_c, 0, 72, 0
2, 16368, Note_on_c, 0, 78, 84
2, 16380, Note_on_c, 0, 78, 0
2, 16380, Note_on_c, 0, 72, 84
2, 16392, Note_on_c, 0, 72, 0
2, 16392, Note_on_c, 0, 71, 84
2, 16404, Note_on_c, 0, 71, 0
2, 16404, Note_on_c, 0, 72, 84
2, 16416, Note_on_c, 0, 72, 0
2, 16416, Note_on_c, 0, 77, 84
2, 16428, Note_on_c, 0, 77, 0
2, 16428, Note_on_c, 0, 74, 84
2, 16440, Note_on_c, 0, 74, 0
2, 16440, Note_on_c, 0, 73, 84
2, 16452, Note_on_c, 0, 73, 0
2, 16452, Note_on_c, 0, 74, 84
2, 16464, Note_on_c, 0, 74, 0
2, 16464, Note_on_c, 0, 77, 84
2, 16476, Note_on_c, 0, 77, 0
2, 16476, Note_on_c, 0, 74, 84
2, 16488, Note_on_c, 0, 74, 0
2, 16488, Note_on_c, 0, 73, 84
2, 16500, Note_on_c, 0, 73, 0
2, 16500, Note_on_c, 0, 74, 84
2, 16512, Note_on_c, 0, 74, 0
2, 16512, Note_on_c, 0, 76, 75
2, 16535, Note_on_c, 0, 76, 0
2, 16536, Note_on_c, 0, 84, 75
2, 16546, Note_on_c, 0, 84, 0
2, 16560, Note_on_c, 0, 86, 75
2, 16572, Note_on_c, 0, 86, 0
2, 16572, Note_on_c, 0, 84, 75
2, 16584, Note_on_c, 0, 84, 0
2, 16584, Note_on_c, 0, 83, 75
2, 16596, Note_on_c, 0, 83, 0
2, 16596, Note_on_c, 0, 81, 75
2, 16608, Note_on_c, 0, 81, 0
2, 16608, Note_on_c, 0, 81, 75
2, 16620, Note_on_c, 0, 81, 0
2, 16620, Note_on_c, 0, 79, 75
2, 16632, Note_on_c, 0, 79, 0
2, 16632, Note_on_c, 0, 77, 75
2, 16644, Note_on_c, 0, 77, 0
2, 16644, Note_on_c, 0, 76, 75
2, 16656, Note_on_c, 0, 76, 0
2, 16656, Note_on_c, 0, 76, 75
2, 16668, Note_on_c, 0, 76, 0
2, 16668, Note_on_c, 0, 74, 75
2, 16680, Note_on_c, 0, 74, 0
2, 16680, Note_on_c, 0, 72, 75
2, 16692, Note_on_c, 0, 72, 0
2, 16692, Note_on_c, 0, 71, 75
2, 16704, Note_on_c, 0, 71, 0
2, 16704, Note_on_c, 0, 69, 75
2, 16727, Note_on_c, 0, 69, 0
2, 16728, Note_on_c, 0, 80, 79
2, 16740, Note_on_c, 0, 80, 0
2, 16740, Note_on_c, 0, 81, 81
2, 16752, Note_on_c, 0, 81, 0
2, 16752, Note_on_c, 0, 79, 84
2, 16764, Note_on_c, 0, 79, 0
2, 16764, Note_on_c, 0, 77, 81
2, 16776, Note_on_c, 0, 77, 0
2, 16776, Note_on_c, 0, 76, 79
2, 16788, Note_on_c, 0, 76, 0
2, 16788, Note_on_c, 0, 74, 77
2, 16800, Note_on_c, 0, 74, 0
2, 16800, Note_on_c, 0, 72, 75
2, 16845, Note_on_c, 0, 72, 0
2, 16848, Note_on_c, 0, 71, 75
2, 16858, Note_on_c, 0, 71, 0
2, 16858, Note_on_c, 0, 72, 75
2, 16868, Note_on_c, 0, 72, 0
2, 16868, Note_on_c, 0, 71, 75
2, 16878, Note_on_c, 0, 71, 0
2, 16878, Note_on_c, 0, 69, 75
2, 16887, Note_on_c, 0, 69, 0
2, 16887, Note_on_c, 0, 71, 75
2, 16896, Note_on_c, 0, 71, 0
2, 16896, Note_on_c, 0, 72, 75
2, 16908, Note_on_c, 0, 72, 0
2, 16908, Note_on_c, 0, 84, 78
2, 16920, Note_on_c, 0, 84, 0
2, 16920, Note_on_c, 0, 83, 81
2, 16932, Note_on_c, 0, 83, 0
2, 16932, Note_on_c, 0, 84, 84
2, 16944, Note_on_c, 0, 84, 0
2, 16944, Note_on_c, 0, 86, 82
2, 16956, Note_on_c, 0, 86, 0
2, 16956, Note_on_c, 0, 84, 80
2, 16968, Note_on_c, 0, 84, 0
2, 16968, Note_on_c, 0, 83, 78
2, 16980, Note_on_c, 0, 83, 0
2, 16980, Note_on_c, 0, 81, 76
2, 16992, Note_on_c, 0, 81, 0
2, 16992, Note_on_c, 0, 81, 75
2, 17004, Note_on_c, 0, 81, 0
2, 17004, Note_on_c, 0, 79, 75
2, 17016, Note_on_c, 0, 79, 0
2, 17016, Note_on_c, 0, 77, 75
2, 17028, Note_on_c, 0, 77, 0
2, 17028, Note_on_c, 0, 76, 75
2, 17040, Note_on_c, 0, 76, 0
2, 17040, Note_on_c, 0, 76, 75
2, 17052, Note_on_c, 0, 76, 0
2, 17052, Note_on_c, 0, 74, 75
2, 17064, Note_on_c, 0, 74, 0
2, 17064, Note_on_c, 0, 72, 75
2, 17076, Note_on_c, 0, 72, 0
2, 17076, Note_on_c, 0, 71, 75
2, 17088, Note_on_c, 0, 71, 0
2, 17088, Note_on_c, 0, 69, 75
2, 17111, Note_on_c, 0, 69, 0
2, 17112, Note_on_c, 0, 80, 79
2, 17124, Note_on_c, 0, 80, 0
2, 17124, Note_on_c, 0, 81, 81
2, 17136, Note_on_c, 0, 81, 0
2, 17136, Note_on_c, 0, 79, 84
2, 17148, Note_on_c, 0, 79, 0
2, 17148, Note_on_c, 0, 77, 81
2, 17160, Note_on_c, 0, 77, 0
2, 17160, Note_on_c, 0, 76, 79
2, 17172, Note_on_c, 0, 76, 0
2, 17172, Note_on_c, 0, 74, 77
2, 17184, Note_on_c, 0, 74, 0
2, 17184, Note_on_c, 0, 72, 75
2, 17229, Note_on_c, 0, 72, 0
2, 17232, Note_on_c, 0, 71, 75
2, 17242, Note_on_c, 0, 71, 0
2, 17242, Note_on_c, 0, 72, 75
2, 17252, Note_on_c, 0, 72, 0
2, 17252, Note_on_c, 0, 71, 75
2, 17262, Note_on_c, 0, 71, 0
2, 17262, Note_on_c, 0, 69, 75
2, 17271, Note_on_c, 0, 69, 0
2, 17271, Note_on_c, 0, 71, 75
2, 17280, Note_on_c, 0, 71, 0
2, 17280, Note_on_c, 0, 72, 75
2, 17300, Note_on_c, 0, 72, 0
2, 17328, Note_on_c, 0, 69, 75
2, 17328, Note_on_c, 0, 65, 75
2, 17348, Note_on_c, 0, 69, 0
2, 17348, Note_on_c, 0, 65, 0
2, 17376, Note_on_c, 0, 67, 75
2, 17376, Note_on_c, 0, 64, 75
2, 17396, Note_on_c, 0, 67, 0
2, 17396, Note_on_c, 0, 64, 0
2, 17424, Note_on_c, 0, 71, 75
2, 17424, Note_on_c, 0, 65, 75
2, 17424, Note_on_c, 0, 62, 75
2, 17444, Note_on_c, 0, 71, 0
2, 17444, Note_on_c, 0, 65, 0
2, 17444, Note_on_c, 0, 62, 0
2, 17472, Note_on_c, 0, 72, 75
2, 17472, Note_on_c, 0, 67, 75
2, 17472, Note_on_c, 0, 64, 75
2, 17492, Note_on_c, 0, 72, 0
2, 17492, Note_on_c, 0, 67, 0
2, 17492, Note_on_c, 0, 64, 0
2, 17520, Note_on_c, 0, 81, 75
2, 17520, Note_on_c, 0, 77, 75
2, 17540, Note_on_c, 0, 81, 0
2, 17540, Note_on_c, 0, 77, 0
2, 17568, Note_on_c, 0, 79, 75
2, 17568, Note_on_c, 0, 76, 75
2, 17588, Note_on_c, 0, 79, 0
2, 17588, Note_on_c, 0, 76, 0
2, 17616, Note_on_c, 0, 83, 75
2, 17616, Note_on_c, 0, 77, 75
2, 17616, Note_on_c, 0, 74, 75
2, 17636, Note_on_c, 0, 83, 0
2, 17636, Note_on_c, 0, 77, 0
2, 17636, Note_on_c, 0, 74, 0
2, 17664, Note_on_c, 0, 84, 75
2, 17664, Note_on_c, 0, 79, 75
2, 17664, Note_on_c, 0, 76, 75
2, 17753, Note_on_c, 0, 84, 0
2, 17753, Note_on_c, 0, 79, 0
2, 17753, Note_on_c, 0, 76, 0
2, 17808, Note_on_c, 0, 67, 75
2, 17842, Note_on_c, 0, 67, 0
2, 17844, Note_on_c, 0, 64, 75
2, 17856, Note_on_c, 0, 64, 0
2, 17856, Note_on_c, 0, 60, 75
2, 17876, Note_on_c, 0, 60, 0
2, 17904, Note_on_c, 0, 64, 75
2, 17938, Note_on_c, 0, 64, 0
2, 17940, Note_on_c, 0, 60, 75
2, 17952, Note_on_c, 0, 60, 0
2, 17952, Note_on_c, 0, 59, 75
2, 17972, Note_on_c, 0, 59, 0
2, 18000, Note_on_c, 0, 62, 75
2, 18034, Note_on_c, 0, 62, 0
2, 18036, Note_on_c, 0, 59, 75
2, 18048, Note_on_c, 0, 59, 0
2, 18048, Note_on_c, 0, 60, 75
2, 18093, Note_on_c, 0, 60, 0
2, 18096, Note_on_c, 0, 69, 75
2, 18096, Note_on_c, 0, 65, 75
2, 18144, Note_on_c, 0, 69, 0
2, 18144, Note_on_c, 0, 65, 0
2, 18144, Note_on_c, 0, 67, 75
2, 18144, Note_on_c, 0, 64, 75
2, 18164, Note_on_c, 0, 67, 0
2, 18164, Note_on_c, 0, 64, 0
2, 18192, Note_on_c, 0, 74, 75
2, 18204, Note_on_c, 0, 74, 0
2, 18204, Note_on_c, 0, 72, 75
2, 18216, Note_on_c, 0, 72, 0
2, 18216, Note_on_c, 0, 71, 75
2, 18228, Note_on_c, 0, 71, 0
2, 18228, Note_on_c, 0, 69, 75
2, 18240, Note_on_c, 0, 69, 0
2, 18240, Note_on_c, 0, 67, 75
2, 18285, Note_on_c, 0, 67, 0
2, 18288, Note_on_c, 0, 76, 75
2, 18303, Note_on_c, 0, 76, 0
2, 18304, Note_on_c, 0, 64, 75
2, 18319, Note_on_c, 0, 64, 0
2, 18320, Note_on_c, 0, 69, 75
2, 18335, Note_on_c, 0, 69, 0
2, 18336, Note_on_c, 0, 67, 75
2, 18381, Note_on_c, 0, 67, 0
2, 18384, Note_on_c, 0, 65, 75
2, 18394, Note_on_c, 0, 65, 0
2, 18394, Note_on_c, 0, 67, 75
2, 18404, Note_on_c, 0, 67, 0
2, 18404, Note_on_c, 0, 65, 75
2, 18414, Note_on_c, 0, 65, 0
2, 18414, Note_on_c, 0, 64, 75
2, 18423, Note_on_c, 0, 64, 0
2, 18423, Note_on_c, 0, 65, 75
2, 18432, Note_on_c, 0, 65, 0
2, 18432, Note_on_c, 0, 65, 75
2, 18528, Note_on_c, 0, 65, 0
2, 18528, Note_on_c, 0, 64, 75
2, 18548, Note_on_c, 0, 64, 0
2, 18576, Note_on_c, 0, 67, 75
2, 18588, Note_on_c, 0, 67, 0
2, 18588, Note_on_c, 0, 64, 75
2, 18600, Note_on_c, 0, 64, 0
2, 18600, Note_on_c, 0, 67, 75
2, 18612, Note_on_c, 0, 67, 0
2, 18612, Note_on_c, 0, 64, 75
2, 18624, Note_on_c, 0, 64, 0
2, 18624, Note_on_c, 0, 60, 75
2, 18669, Note_on_c, 0, 60, 0
2, 18672, Note_on_c, 0, 79, 75
2, 18717, Note_on_c, 0, 79, 0
2, 18768, Note_on_c, 0, 77, 75
2, 18780, Note_on_c, 0, 77, 0
2, 18780, Note_on_c, 0, 76, 75
2, 18792, Note_on_c, 0, 76, 0
2, 18792, Note_on_c, 0, 74, 75
2, 18804, Note_on_c, 0, 74, 0
2, 18804, Note_on_c, 0, 72, 75
2, 18816, Note_on_c, 0, 72, 0
2, 18816, Note_on_c, 0, 77, 75
2, 18861, Note_on_c, 0, 77, 0
2, 18960, Note_on_c, 0, 72, 75
2, 18972, Note_on_c, 0, 72, 0
2, 18972, Note_on_c, 0, 69, 75
2, 18984, Note_on_c, 0, 69, 0
2, 18984, Note_on_c, 0, 72, 75
2, 18996, Note_on_c, 0, 72, 0
2, 18996, Note_on_c, 0, 69, 75
2, 19008, Note_on_c, 0, 69, 0
2, 19008, Note_on_c, 0, 65, 75
2, 19053, Note_on_c, 0, 65, 0
2, 19056, Note_on_c, 0, 84, 75
2, 19101, Note_on_c, 0, 84, 0
2, 19152, Note_on_c, 0, 82, 75
2, 19164, Note_on_c, 0, 82, 0
2, 19164, Note_on_c, 0, 81, 75
2, 19176, Note_on_c, 0, 81, 0
2, 19176, Note_on_c, 0, 79, 75
2, 19188, Note_on_c, 0, 79, 0
2, 19188, Note_on_c, 0, 77, 75
2, 19200, Note_on_c, 0, 77, 0
2, 19200, Note_on_c, 0, 82, 75
2, 19223, Note_on_c, 0, 82, 0
2, 19224, Note_on_c, 0, 86, 75
2, 19236, Note_on_c, 0, 86, 0
2, 19236, Note_on_c, 0, 84, 75
2, 19248, Note_on_c, 0, 84, 0
2, 19248, Note_on_c, 0, 82, 75
2, 19260, Note_on_c, 0, 82, 0
2, 19260, Note_on_c, 0, 81, 75
2, 19272, Note_on_c, 0, 81, 0
2, 19272, Note_on_c, 0, 79, 75
2, 19284, Note_on_c, 0, 79, 0
2, 19284, Note_on_c, 0, 77, 75
2, 19296, Note_on_c, 0, 77, 0
2, 19296, Note_on_c, 0, 75, 75
2, 19306, Note_on_c, 0, 75, 0
2, 19320, Note_on_c, 0, 84, 75
2, 19330, Note_on_c, 0, 84, 0
2, 19368, Note_on_c, 0, 75, 75
2, 19391, Note_on_c, 0, 75, 0
2, 19392, Note_on_c, 0, 74, 75
2, 19415, Note_on_c, 0, 74, 0
2, 19416, Note_on_c, 0, 82, 75
2, 19428, Note_on_c, 0, 82, 0
2, 19428, Note_on_c, 0, 81, 75
2, 19440, Note_on_c, 0, 81, 0
2, 19440, Note_on_c, 0, 79, 75
2, 19452, Note_on_c, 0, 79, 0
2, 19452, Note_on_c, 0, 77, 75
2, 19464, Note_on_c, 0, 77, 0
2, 19464, Note_on_c, 0, 75, 75
2, 19476, Note_on_c, 0, 75, 0
2, 19476, Note_on_c, 0, 74, 75
2, 19488, Note_on_c, 0, 74, 0
2, 19488, Note_on_c, 0, 72, 75
2, 19498, Note_on_c, 0, 72, 0
2, 19512, Note_on_c, 0, 81, 75
2, 19522, Note_on_c, 0, 81, 0
2, 19560, Note_on_c, 0, 72, 75
2, 19583, Note_on_c, 0, 72, 0
2, 19584, Note_on_c, 0, 70, 75
2, 19607, Note_on_c, 0, 70, 0
2, 19608, Note_on_c, 0, 79, 75
2, 19620, Note_on_c, 0, 79, 0
2, 19620, Note_on_c, 0, 77, 75
2, 19632, Note_on_c, 0, 77, 0
2, 19632, Note_on_c, 0, 76, 75
2, 19644, Note_on_c, 0, 76, 0
2, 19644, Note_on_c, 0, 74, 75
2, 19656, Note_on_c, 0, 74, 0
2, 19656, Note_on_c, 0, 72, 75
2, 19668, Note_on_c, 0, 72, 0
2, 19668, Note_on_c, 0, 70, 75
2, 19680, Note_on_c, 0, 70, 0
2, 19680, Note_on_c, 0, 69, 75
2, 19690, Note_on_c, 0, 69, 0
2, 19704, Note_on_c, 0, 77, 75
2, 19714, Note_on_c, 0, 77, 0
2, 19752, Note_on_c, 0, 69, 75
2, 19775, Note_on_c, 0, 69, 0
2, 19776, Note_on_c, 0, 67, 75
2, 19799, Note_on_c, 0, 67, 0
2, 19800, Note_on_c, 0, 76, 76
2, 19812, Note_on_c, 0, 76, 0
2, 19812, Note_on_c, 0, 74, 76
2, 19824, Note_on_c, 0, 74, 0
2, 19824, Note_on_c, 0, 73, 77
2, 19836, Note_on_c, 0, 73, 0
2, 19836, Note_on_c, 0, 71, 77
2, 19848, Note_on_c, 0, 71, 0
2, 19848, Note_on_c, 0, 69, 78
2, 19860, Note_on_c, 0, 69, 0
2, 19860, Note_on_c, 0, 67, 78
2, 19872, Note_on_c, 0, 67, 0
2, 19872, Note_on_c, 0, 65, 79
2, 19882, Note_on_c, 0, 65, 0
2, 19896, Note_on_c, 0, 74, 80
2, 19906, Note_on_c, 0, 74, 0
2, 19944, Note_on_c, 0, 65, 82
2, 19944, Note_on_c, 0, 62, 82
2, 19967, Note_on_c, 0, 65, 0
2, 19967, Note_on_c, 0, 62, 0
2, 19968, Note_on_c, 0, 64, 84
2, 19968, Note_on_c, 0, 61, 84
2, 19988, Note_on_c, 0, 64, 0
2, 19988, Note_on_c, 0, 61, 0
2, 20016, Note_on_c, 0, 69, 84
2, 20016, Note_on_c, 0, 65, 84
2, 20036, Note_on_c, 0, 69, 0
2, 20036, Note_on_c, 0, 65, 0
2, 20064, Note_on_c, 0, 67, 84
2, 20064, Note_on_c, 0, 64, 84
2, 20084, Note_on_c, 0, 67, 0
2, 20084, Note_on_c, 0, 64, 0
2, 20112, Note_on_c, 0, 65, 84
2, 20112, Note_on_c, 0, 62, 84
2, 20132, Note_on_c, 0, 65, 0
2, 20132, Note_on_c, 0, 62, 0
2, 20160, Note_on_c, 0, 64, 84
2, 20160, Note_on_c, 0, 61, 84
2, 20180, Note_on_c, 0, 64, 0
2, 20180, Note_on_c, 0, 61, 0
2, 20208, Note_on_c, 0, 81, 84
2, 20220, Note_on_c, 0, 81, 0
2, 20220, Note_on_c, 0, 69, 84
2, 20232, Note_on_c, 0, 69, 0
2, 20232, Note_on_c, 0, 68, 85
2, 20244, Note_on_c, 0, 68, 0
2, 20244, Note_on_c, 0, 69, 86
2, 20256, Note_on_c, 0, 69, 0
2, 20256, Note_on_c, 0, 79, 87
2, 20268, Note_on_c, 0, 79, 0
2, 20268, Note_on_c, 0, 69, 87
2, 20280, Note_on_c, 0, 69, 0
2, 20280, Note_on_c, 0, 68, 88
2, 20292, Note_on_c, 0, 68, 0
2, 20292, Note_on_c, 0, 69, 89
2, 20304, Note_on_c, 0, 69, 0
2, 20304, Note_on_c, 0, 77, 90
2, 20316, Note_on_c, 0, 77, 0
2, 20316, Note_on_c, 0, 69, 90
2, 20328, Note_on_c, 0, 69, 0
2, 20328, Note_on_c, 0, 68, 90
2, 20340, Note_on_c, 0, 68, 0
2, 20340, Note_on_c, 0, 69, 90
2, 20352, Note_on_c, 0, 69, 0
2, 20352, Note_on_c, 0, 76, 90
2, 20391, Note_on_c, 0, 76, 0
2, 20496, Note_on_c, 0, 69, 68
2, 20508, Note_on_c, 0, 69, 0
2, 20508, Note_on_c, 0, 65, 68
2, 20520, Note_on_c, 0, 65, 0
2, 20520, Note_on_c, 0, 69, 68
2, 20532, Note_on_c, 0, 69, 0
2, 20532, Note_on_c, 0, 65, 68
2, 20544, Note_on_c, 0, 65, 0
2, 20544, Note_on_c, 0, 62, 68
2, 20589, Note_on_c, 0, 62, 0
2, 20616, Note_on_c, 0, 81, 68
2, 20626, Note_on_c, 0, 81, 0
2, 20640, Note_on_c, 0, 79, 68
2, 20650, Note_on_c, 0, 79, 0
2, 20664, Note_on_c, 0, 77, 68
2, 20674, Note_on_c, 0, 77, 0
2, 20688, Note_on_c, 0, 76, 68
2, 20698, Note_on_c, 0, 76, 0
2, 20712, Note_on_c, 0, 74, 68
2, 20722, Note_on_c, 0, 74, 0
2, 20736, Note_on_c, 0, 74, 84
2, 20808, Note_on_c, 0, 74, 0
2, 20808, Note_on_c, 0, 76, 75
2, 20820, Note_on_c, 0, 76, 0
2, 20820, Note_on_c, 0, 74, 71
2, 20832, Note_on_c, 0, 74, 0
2, 20832, Note_on_c, 0, 73, 68
2, 20852, Note_on_c, 0, 73, 0
2, 20880, Note_on_c, 0, 70, 68
2, 20892, Note_on_c, 0, 70, 0
2, 20892, Note_on_c, 0, 67, 68
2, 20904, Note_on_c, 0, 67, 0
2, 20904, Note_on_c, 0, 70, 68
2, 20916, Note_on_c, 0, 70, 0
2, 20916, Note_on_c, 0, 67, 68
2, 20928, Note_on_c, 0, 67, 0
2, 20928, Note_on_c, 0, 61, 68
2, 20973, Note_on_c, 0, 61, 0
2, 21000, Note_on_c, 0, 82, 68
2, 21010, Note_on_c, 0, 82, 0
2, 21024, Note_on_c, 0, 81, 68
2, 21034, Note_on_c, 0, 81, 0
2, 21048, Note_on_c, 0, 79, 68
2, 21058, Note_on_c, 0, 79, 0
2, 21072, Note_on_c, 0, 77, 68
2, 21082, Note_on_c, 0, 77, 0
2, 21096, Note_on_c, 0, 76, 68
2, 21106, Note_on_c, 0, 76, 0
2, 21120, Note_on_c, 0, 76, 84
2, 21192, Note_on_c, 0, 76, 0
2, 21192, Note_on_c, 0, 77, 75
2, 21204, Note_on_c, 0, 77, 0
2, 21204, Note_on_c, 0, 76, 71
2, 21216, Note_on_c, 0, 76, 0
2, 21216, Note_on_c, 0, 74, 68
2, 21236, Note_on_c, 0, 74, 0
2, 21264, Note_on_c, 0, 74, 68
2, 21276, Note_on_c, 0, 74, 0
2, 21276, Note_on_c, 0, 69, 68
2, 21288, Note_on_c, 0, 69, 0
2, 21288, Note_on_c, 0, 74, 68
2, 21300, Note_on_c, 0, 74, 0
2, 21300, Note_on_c, 0, 69, 68
2, 21312, Note_on_c, 0, 69, 0
2, 21312, Note_on_c, 0, 62, 68
2, 21357, Note_on_c, 0, 62, 0
2, 21384, Note_on_c, 0, 75, 69
2, 21394, Note_on_c, 0, 75, 0
2, 21408, Note_on_c, 0, 74, 70
2, 21418, Note_on_c, 0, 74, 0
2, 21432, Note_on_c, 0, 72, 71
2, 21442, Note_on_c, 0, 72, 0
2, 21456, Note_on_c, 0, 70, 71
2, 21466, Note_on_c, 0, 70, 0
2, 21480, Note_on_c, 0, 69, 72
2, 21490, Note_on_c, 0, 69, 0
2, 21504, Note_on_c, 0, 72, 73
2, 21528, Note_on_c, 0, 72, 0
2, 21528, Note_on_c, 0, 70, 73
2, 21551, Note_on_c, 0, 70, 0
2, 21576, Note_on_c, 0, 77, 75
2, 21586, Note_on_c, 0, 77, 0
2, 21600, Note_on_c, 0, 76, 75
2, 21610, Note_on_c, 0, 76, 0
2, 21624, Note_on_c, 0, 74, 76
2, 21634, Note_on_c, 0, 74, 0
2, 21648, Note_on_c, 0, 73, 77
2, 21658, Note_on_c, 0, 73, 0
2, 21672, Note_on_c, 0, 71, 77
2, 21682, Note_on_c, 0, 71, 0
2, 21696, Note_on_c, 0, 74, 78
2, 21720, Note_on_c, 0, 74, 0
2, 21720, Note_on_c, 0, 73, 79
2, 21743, Note_on_c, 0, 73, 0
2, 21768, Note_on_c, 0, 82, 80
2, 21778, Note_on_c, 0, 82, 0
2, 21792, Note_on_c, 0, 81, 81
2, 21802, Note_on_c, 0, 81, 0
2, 21816, Note_on_c, 0, 79, 81
2, 21826, Note_on_c, 0, 79, 0
2, 21840, Note_on_c, 0, 77, 82
2, 21850, Note_on_c, 0, 77, 0
2, 21864, Note_on_c, 0, 76, 83
2, 21874, Note_on_c, 0, 76, 0
2, 21888, Control_c, 0, 64, 127
2, 21888, Note_on_c, 0, 77, 83
2, 21900, Note_on_c, 0, 77, 0
2, 21900, Note_on_c, 0, 74, 84
2, 21912, Note_on_c, 0, 74, 0
2, 21912, Note_on_c, 0, 69, 84
2, 21924, Note_on_c, 0, 69, 0
2, 21924, Note_on_c, 0, 65, 84
2, 21936, Note_on_c, 0, 65, 0
2, 21936, Note_on_c, 0, 62, 84
2, 21948, Note_on_c, 0, 62, 0
2, 21948, Note_on_c, 0, 77, 84
2, 21960, Note_on_c, 0, 77, 0
2, 21960, Note_on_c, 0, 74, 84
2, 21972, Note_on_c, 0, 74, 0
2, 21972, Control_c, 0, 64, 0
2, 21972, Note_on_c, 0, 69, 84
2, 21984, Note_on_c, 0, 69, 0
2, 21984, Control_c, 0, 64, 127
2, 21984, Note_on_c, 0, 79, 84
2, 21996, Note_on_c, 0, 79, 0
2, 21996, Note_on_c, 0, 76, 84
2, 22008, Note_on_c, 0, 76, 0
2, 22008, Note_on_c, 0, 73, 84
2, 22020, Note_on_c, 0, 73, 0
2, 22020, Note_on_c, 0, 67, 84
2, 22032, Note_on_c, 0, 67, 0
2, 22032, Note_on_c, 0, 64, 84
2, 22044, Note_on_c, 0, 64, 0
2, 22044, Note_on_c, 0, 79, 84
2, 22056, Note_on_c, 0, 79, 0
2, 22056, Note_on_c, 0, 76, 84
2, 22068, Note_on_c, 0, 76, 0
2, 22068, Control_c, 0, 64, 0
2, 22068, Note_on_c, 0, 73, 84
2, 22080, Note_on_c, 0, 73, 0
2, 22080, Control_c, 0, 64, 127
2, 22080, Note_on_c, 0, 81, 84
2, 22092, Note_on_c, 0, 81, 0
2, 22092, Note_on_c, 0, 77, 84
2, 22104, Note_on_c, 0, 77, 0
2, 22104, Note_on_c, 0, 74, 84
2, 22116, Note_on_c, 0, 74, 0
2, 22116, Note_on_c, 0, 69, 84
2, 22128, Note_on_c, 0, 69, 0
2, 22128, Note_on_c, 0, 65, 84
2, 22140, Note_on_c, 0, 65, 0
2, 22140, Note_on_c, 0, 81, 84
2, 22152, Note_on_c, 0, 81, 0
2, 22152, Note_on_c, 0, 77, 84
2, 22164, Note_on_c, 0, 77, 0
2, 22164, Control_c, 0, 64, 0
2, 22164, Note_on_c, 0, 74, 84
2, 22176, Note_on_c, 0, 74, 0
2, 22176, Control_c, 0, 64, 127
2, 22176, Note_on_c, 0, 82, 84
2, 22188, Note_on_c, 0, 82, 0
2, 22188, Note_on_c, 0, 79, 84
2, 22200, Note_on_c, 0, 79, 0
2, 22200, Note_on_c, 0, 74, 84
2, 22212, Note_on_c, 0, 74, 0
2, 22212, Note_on_c, 0, 70, 84
2, 22224, Note_on_c, 0, 70, 0
2, 22224, Note_on_c, 0, 67, 84
2, 22236, Note_on_c, 0, 67, 0
2, 22236, Note_on_c, 0, 82, 84
2, 22248, Note_on_c, 0, 82, 0
2, 22248, Note_on_c, 0, 79, 84
2, 22260, Note_on_c, 0, 79, 0
2, 22260, Control_c, 0, 64, 0
2, 22260, Note_on_c, 0, 74, 84
2, 22272, Note_on_c, 0, 74, 0
2, 22272, Control_c, 0, 64, 127
2, 22272, Note_on_c, 0, 81, 84
2, 22284, Note_on_c, 0, 81, 0
2, 22284, Note_on_c, 0, 77, 84
2, 22296, Note_on_c, 0, 77, 0
2, 22296, Note_on_c, 0, 74, 84
2, 22308, Note_on_c, 0, 74, 0
2, 22308, Note_on_c, 0, 69, 84
2, 22320, Note_on_c, 0, 69, 0
2, 22320, Note_on_c, 0, 65, 84
2, 22332, Note_on_c, 0, 65, 0
2, 22332, Note_on_c, 0, 81, 84
2, 22344, Note_on_c, 0, 81, 0
2, 22344, Note_on_c, 0, 77, 84
2, 22356, Note_on_c, 0, 77, 0
2, 22356, Control_c, 0, 64, 0
2, 22356, Note_on_c, 0, 74, 84
2, 22368, Note_on_c, 0, 74, 0
2, 22368, Control_c, 0, 64, 127
2, 22368, Note_on_c, 0, 83, 84
2, 22380, Note_on_c, 0, 83, 0
2, 22380, Note_on_c, 0, 77, 84
2, 22392, Note_on_c, 0, 77, 0
2, 22392, Note_on_c, 0, 74, 84
2, 22404, Note_on_c, 0, 74, 0
2, 22404, Note_on_c, 0, 71, 84
2, 22416, Note_on_c, 0, 71, 0
2, 22416, Note_on_c, 0, 68, 84
2, 22428, Note_on_c, 0, 68, 0
2, 22428, Note_on_c, 0, 86, 84
2, 22440, Note_on_c, 0, 86, 0
2, 22440, Note_on_c, 0, 83, 84
2, 22452, Note_on_c, 0, 83, 0
2, 22452, Control_c, 0, 64, 0
2, 22452, Note_on_c, 0, 77, 84
2, 22464, Note_on_c, 0, 77, 0
2, 22464, Control_c, 0, 64, 127
2, 22464, Note_on_c, 0, 85, 84
2, 22476, Note_on_c, 0, 85, 0
2, 22476, Note_on_c, 0, 81, 84
2, 22488, Note_on_c, 0, 81, 0
2, 22488, Note_on_c, 0, 76, 84
2, 22500, Note_on_c, 0, 76, 0
2, 22500, Note_on_c, 0, 73, 84
2, 22512, Note_on_c, 0, 73, 0
2, 22512, Note_on_c, 0, 69, 84
2, 22524, Note_on_c, 0, 69, 0
2, 22524, Note_on_c, 0, 85, 84
2, 22536, Note_on_c, 0, 85, 0
2, 22536, Note_on_c, 0, 81, 84
2, 22548, Note_on_c, 0, 81, 0
2, 22548, Control_c, 0, 64, 0
2, 22548, Note_on_c, 0, 76, 84
2, 22560, Note_on_c, 0, 76, 0
2, 22560, Control_c, 0, 64, 127
2, 22560, Note_on_c, 0, 86, 84
2, 22572, Note_on_c, 0, 86, 0
2, 22572, Note_on_c, 0, 80, 84
2, 22584, Note_on_c, 0, 80, 0
2, 22584, Note_on_c, 0, 77, 84
2, 22596, Note_on_c, 0, 77, 0
2, 22596, Note_on_c, 0, 74, 84
2, 22608, Note_on_c, 0, 74, 0
2, 22608, Note_on_c, 0, 71, 84
2, 22620, Note_on_c, 0, 71, 0
2, 22620, Note_on_c, 0, 86, 84
2, 22632, Note_on_c, 0, 86, 0
2, 22632, Note_on_c, 0, 80, 84
2, 22644, Note_on_c, 0, 80, 0
2, 22644, Control_c, 0, 64, 0
2, 22644, Note_on_c, 0, 77, 84
2, 22656, Note_on_c, 0, 77, 0
2, 22656, Control_c, 0, 64, 127
2, 22656, Note_on_c, 0, 85, 84
2, 22668, Note_on_c, 0, 85, 0
2, 22668, Note_on_c, 0, 81, 84
2, 22680, Note_on_c, 0, 81, 0
2, 22680, Note_on_c, 0, 76, 84
2, 22692, Note_on_c, 0, 76, 0
2, 22692, Note_on_c, 0, 73, 84
2, 22704, Note_on_c, 0, 73, 0
2, 22704, Note_on_c, 0, 69, 84
2, 22716, Note_on_c, 0, 69, 0
2, 22716, Note_on_c, 0, 88, 84
2, 22728, Note_on_c, 0, 88, 0
2, 22728, Note_on_c, 0, 85, 84
2, 22740, Note_on_c, 0, 85, 0
2, 22740, Note_on_c, 0, 81, 84
2, 22752, Note_on_c, 0, 81, 0
2, 22752, Note_on_c, 0, 85, 84
2, 22764, Note_on_c, 0, 85, 0
2, 22764, Note_on_c, 0, 81, 84
2, 22776, Note_on_c, 0, 81, 0
2, 22776, Note_on_c, 0, 76, 84
2, 22788, Note_on_c, 0, 76, 0
2, 22788, Note_on_c, 0, 73, 84
2, 22800, Note_on_c, 0, 73, 0
2, 22800, Note_on_c, 0, 69, 84
2, 22812, Note_on_c, 0, 69, 0
2, 22812, Note_on_c, 0, 85, 84
2, 22824, Note_on_c, 0, 85, 0
2, 22824, Note_on_c, 0, 81, 84
2, 22836, Note_on_c, 0, 81, 0
2, 22836, Note_on_c, 0, 76, 84
2, 22848, Note_on_c, 0, 76, 0
2, 22848, Control_c, 0, 64, 0
2, 22848, Control_c, 0, 64, 127
2, 22848, Note_on_c, 0, 82, 84
2, 22860, Note_on_c, 0, 82, 0
2, 22860, Note_on_c, 0, 79, 84
2, 22872, Note_on_c, 0, 79, 0
2, 22872, Note_on_c, 0, 76, 84
2, 22884, Note_on_c, 0, 76, 0
2, 22884, Control_c, 0, 64, 0
2, 22884, Note_on_c, 0, 73, 84
2, 22896, Note_on_c, 0, 73, 0
2, 22896, Control_c, 0, 64, 127
2, 22896, Note_on_c, 0, 81, 84
2, 22908, Note_on_c, 0, 81, 0
2, 22908, Note_on_c, 0, 78, 84
2, 22920, Note_on_c, 0, 78, 0
2, 22920, Note_on_c, 0, 75, 84
2, 22932, Note_on_c, 0, 75, 0
2, 22932, Control_c, 0, 64, 0
2, 22932, Note_on_c, 0, 72, 84
2, 22944, Note_on_c, 0, 72, 0
2, 22944, Control_c, 0, 64, 127
2, 22944, Note_on_c, 0, 80, 84
2, 22956, Note_on_c, 0, 80, 0
2, 22956, Note_on_c, 0, 77, 84
2, 22968, Note_on_c, 0, 77, 0
2, 22968, Note_on_c, 0, 74, 84
2, 22980, Note_on_c, 0, 74, 0
2, 22980, Control_c, 0, 64, 0
2, 22980, Note_on_c, 0, 71, 84
2, 22992, Note_on_c, 0, 71, 0
2, 22992, Control_c, 0, 64, 127
2, 22992, Note_on_c, 0, 79, 84
2, 23004, Note_on_c, 0, 79, 0
2, 23004, Note_on_c, 0, 76, 84
2, 23016, Note_on_c, 0, 76, 0
2, 23016, Note_on_c, 0, 73, 84
2, 23028, Note_on_c, 0, 73, 0
2, 23028, Control_c, 0, 64, 0
2, 23028, Note_on_c, 0, 70, 84
2, 23040, Note_on_c, 0, 70, 0
2, 23040, Control_c, 0, 64, 127
2, 23040, Note_on_c, 0, 77, 84
2, 23052, Note_on_c, 0, 77, 0
2, 23052, Note_on_c, 0, 74, 84
2, 23064, Note_on_c, 0, 74, 0
2, 23064, Note_on_c, 0, 71, 84
2, 23076, Note_on_c, 0, 71, 0
2, 23076, Note_on_c, 0, 68, 84
2, 23088, Note_on_c, 0, 68, 0
2, 23088, Note_on_c, 0, 56, 84
2, 23100, Note_on_c, 0, 56, 0
2, 23100, Note_on_c, 0, 71, 84
2, 23112, Note_on_c, 0, 71, 0
2, 23112, Note_on_c, 0, 74, 84
2, 23124, Note_on_c, 0, 74, 0
2, 23124, Note_on_c, 0, 77, 84
2, 23136, Note_on_c, 0, 77, 0
2, 23136, Control_c, 0, 64, 0
2, 23148, Control_c, 0, 64, 127
2, 23148, Note_on_c, 0, 69, 84
2, 23160, Note_on_c, 0, 69, 0
2, 23160, Note_on_c, 0, 74, 84
2, 23172, Note_on_c, 0, 74, 0
2, 23172, Control_c, 0, 64, 0
2, 23172, Note_on_c, 0, 77, 84
2, 23184, Note_on_c, 0, 77, 0
2, 23196, Control_c, 0, 64, 127
2, 23196, Note_on_c, 0, 67, 84
2, 23208, Note_on_c, 0, 67, 0
2, 23208, Note_on_c, 0, 73, 84
2, 23220, Note_on_c, 0, 73, 0
2, 23220, Control_c, 0, 64, 0
2, 23220, Note_on_c, 0, 76, 84
2, 23232, Note_on_c, 0, 76, 0
2, 23232, Control_c, 0, 64, 127
2, 23232, Note_on_c, 0, 73, 84
2, 23244, Note_on_c, 0, 73, 0
2, 23244, Note_on_c, 0, 76, 84
2, 23256, Note_on_c, 0, 76, 0
2, 23256, Note_on_c, 0, 79, 84
2, 23268, Note_on_c, 0, 79, 0
2, 23268, Control_c, 0, 64, 0
2, 23268, Note_on_c, 0, 82, 84
2, 23280, Note_on_c, 0, 82, 0
2, 23280, Control_c, 0, 64, 127
2, 23280, Note_on_c, 0, 72, 84
2, 23292, Note_on_c, 0, 72, 0
2, 23292, Note_on_c, 0, 75, 84
2, 23304, Note_on_c, 0, 75, 0
2, 23304, Note_on_c, 0, 78, 84
2, 23316, Note_on_c, 0, 78, 0
2, 23316, Control_c, 0, 64, 0
2, 23316, Note_on_c, 0, 81, 84
2, 23328, Note_on_c, 0, 81, 0
2, 23328, Control_c, 0, 64, 127
2, 23328, Note_on_c, 0, 71, 84
2, 23340, Note_on_c, 0, 71, 0
2, 23340, Note_on_c, 0, 74, 84
2, 23352, Note_on_c, 0, 74, 0
2, 23352, Note_on_c, 0, 77, 84
2, 23364, Note_on_c, 0, 77, 0
2, 23364, Control_c, 0, 64, 0
2, 23364, Note_on_c, 0, 80, 84
2, 23376, Note_on_c, 0, 80, 0
2, 23376, Control_c, 0, 64, 127
2, 23376, Note_on_c, 0, 70, 84
2, 23388, Note_on_c, 0, 70, 0
2, 23388, Note_on_c, 0, 73, 84
2, 23400, Note_on_c, 0, 73, 0
2, 23400, Note_on_c, 0, 76, 84
2, 23412, Note_on_c, 0, 76, 0
2, 23412, Control_c, 0, 64, 0
2, 23412, Note_on_c, 0, 79, 84
2, 23424, Note_on_c, 0, 79, 0
2, 23424, Control_c, 0, 64, 127
2, 23424, Note_on_c, 0, 68, 84
2, 23436, Note_on_c, 0, 68, 0
2, 23436, Note_on_c, 0, 71, 84
2, 23448, Note_on_c, 0, 71, 0
2, 23448, Note_on_c, 0, 74, 84
2, 23460, Note_on_c, 0, 74, 0
2, 23460, Note_on_c, 0, 77, 84
2, 23472, Note_on_c, 0, 77, 0
2, 23472, Note_on_c, 0, 56, 84
2, 23484, Note_on_c, 0, 56, 0
2, 23484, Note_on_c, 0, 71, 84
2, 23496, Note_on_c, 0, 71, 0
2, 23496, Note_on_c, 0, 74, 84
2, 23508, Note_on_c, 0, 74, 0
2, 23508, Control_c, 0, 64, 0
2, 23508, Note_on_c, 0, 77, 84
2, 23520, Note_on_c, 0, 77, 0
2, 23532, Control_c, 0, 64, 127
2, 23532, Note_on_c, 0, 69, 84
2, 23544, Note_on_c, 0, 69, 0
2, 23544, Note_on_c, 0, 74, 84
2, 23556, Note_on_c, 0, 74, 0
2, 23556, Control_c, 0, 64, 0
2, 23556, Note_on_c, 0, 77, 84
2, 23568, Note_on_c, 0, 77, 0
2, 23580, Control_c, 0, 64, 127
2, 23580, Note_on_c, 0, 67, 84
2, 23592, Note_on_c, 0, 67, 0
2, 23592, Note_on_c, 0, 73, 84
2, 23604, Note_on_c, 0, 73, 0
2, 23604, Control_c, 0, 64, 0
2, 23604, Note_on_c, 0, 76, 84
2, 23616, Note_on_c, 0, 76, 0
2, 23616, Note_on_c, 0, 74, 90
2, 23661, Note_on_c, 0, 74, 0
2, 23712, Note_on_c, 0, 75, 106
2, 23712, Note_on_c, 0, 72, 106
2, 23712, Note_on_c, 0, 66, 106
2, 23808, Note_on_c, 0, 75, 0
2, 23808, Note_on_c, 0, 72, 0
2, 23808, Note_on_c, 0, 66, 0
2, 23808, Note_on_c, 0, 74, 90
2, 23808, Note_on_c, 0, 70, 90
2, 23808, Note_on_c, 0, 67, 90
2, 23828, Note_on_c, 0, 74, 0
2, 23828, Note_on_c, 0, 70, 0
2, 23828, Note_on_c, 0, 67, 0
2, 23856, Note_on_c, 0, 82, 90
2, 23856, Note_on_c, 0, 79, 90
2, 23876, Note_on_c, 0, 82, 0
2, 23876, Note_on_c, 0, 79, 0
2, 23904, Note_on_c, 0, 72, 106
2, 23904, Note_on_c, 0, 69, 106
2, 23904, Note_on_c, 0, 66, 106
2, 24000, Note_on_c, 0, 72, 0
2, 24000, Note_on_c, 0, 69, 0
2, 24000, Note_on_c, 0, 66, 0
2, 24000, Note_on_c, 0, 70, 90
2, 24012, Note_on_c, 0, 70, 0
2, 24012, Note_on_c, 0, 67, 90
2, 24024, Note_on_c, 0, 67, 0
2, 24024, Note_on_c, 0, 69, 90
2, 24036, Note_on_c, 0, 69, 0
2, 24036, Note_on_c, 0, 70, 90
2, 24048, Note_on_c, 0, 70, 0
2, 24048, Note_on_c, 0, 72, 90
2, 24060, Note_on_c, 0, 72, 0
2, 24060, Note_on_c, 0, 74, 90
2, 24072, Note_on_c, 0, 74, 0
2, 24072, Note_on_c, 0, 76, 90
2, 24084, Note_on_c, 0, 76, 0
2, 24084, Note_on_c, 0, 78, 90
2, 24096, Note_on_c, 0, 78, 0
2, 24096, Note_on_c, 0, 79, 90
2, 24108, Note_on_c, 0, 79, 0
2, 24108, Note_on_c, 0, 81, 90
2, 24120, Note_on_c, 0, 81, 0
2, 24120, Note_on_c, 0, 82, 90
2, 24132, Note_on_c, 0, 82, 0
2, 24132, Note_on_c, 0, 81, 90
2, 24144, Note_on_c, 0, 81, 0
2, 24144, Note_on_c, 0, 79, 90
2, 24156, Note_on_c, 0, 79, 0
2, 24156, Note_on_c, 0, 77, 90
2, 24168, Note_on_c, 0, 77, 0
2, 24168, Note_on_c, 0, 76, 90
2, 24180, Note_on_c, 0, 76, 0
2, 24180, Note_on_c, 0, 74, 90
2, 24192, Note_on_c, 0, 74, 0
2, 24192, Note_on_c, 0, 72, 90
2, 24237, Note_on_c, 0, 72, 0
2, 24288, Note_on_c, 0, 73, 106
2, 24288, Note_on_c, 0, 70, 106
2, 24288, Note_on_c, 0, 64, 106
2, 24384, Note_on_c, 0, 73, 0
2, 24384, Note_on_c, 0, 70, 0
2, 24384, Note_on_c, 0, 64, 0
2, 24384, Note_on_c, 0, 72, 90
2, 24384, Note_on_c, 0, 69, 90
2, 24384, Note_on_c, 0, 65, 90
2, 24404, Note_on_c, 0, 72, 0
2, 24404, Note_on_c, 0, 69, 0
2, 24404, Note_on_c, 0, 65, 0
2, 24432, Note_on_c, 0, 81, 90
2, 24432, Note_on_c, 0, 77, 90
2, 24452, Note_on_c, 0, 81, 0
2, 24452, Note_on_c, 0, 77, 0
2, 24480, Note_on_c, 0, 70, 106
2, 24480, Note_on_c, 0, 67, 106
2, 24480, Note_on_c, 0, 64, 106
2, 24576, Note_on_c, 0, 70, 0
2, 24576, Note_on_c, 0, 67, 0
2, 24576, Note_on_c, 0, 64, 0
2, 24576, Note_on_c, 0, 69, 90
2, 24576, Note_on_c, 0, 65, 90
2, 24596, Note_on_c, 0, 69, 0
2, 24596, Note_on_c, 0, 65, 0
2, 24624, Note_on_c, 0, 77, 90
2, 24644, Note_on_c, 0, 77, 0
2, 24672, Note_on_c, 0, 71, 106
2, 24672, Note_on_c, 0, 65, 106
2, 24672, Note_on_c, 0, 62, 106
2, 24768, Note_on_c, 0, 71, 0
2, 24768, Note_on_c, 0, 65, 0
2, 24768, Note_on_c, 0, 62, 0
2, 24768, Note_on_c, 0, 72, 90
2, 24768, Note_on_c, 0, 67, 90
2, 24768, Note_on_c, 0, 64, 90
2, 24788, Note_on_c, 0, 72, 0
2, 24788, Note_on_c, 0, 67, 0
2, 24788, Note_on_c, 0, 64, 0
2, 24840, Note_on_c, 0, 60, 75
2, 24852, Note_on_c, 0, 60, 0
2, 24852, Note_on_c, 0, 64, 75
2, 24864, Note_on_c, 0, 64, 0
2, 24864, Note_on_c, 0, 67, 75
2, 24874, Note_on_c, 0, 67, 0
2, 24888, Note_on_c, 0, 64, 75
2, 24900, Note_on_c, 0, 64, 0
2, 24900, Note_on_c, 0, 67, 75
2, 24912, Note_on_c, 0, 67, 0
2, 24912, Note_on_c, 0, 70, 75
2, 24922, Note_on_c, 0, 70, 0
2, 24936, Note_on_c, 0, 67, 75
2, 24948, Note_on_c, 0, 67, 0
2, 24948, Note_on_c, 0, 70, 75
2, 24960, Note_on_c, 0, 70, 0
2, 24960, Note_on_c, 0, 76, 75
2, 24980, Note_on_c, 0, 76, 0
2, 25032, Note_on_c, 0, 86, 60
2, 25044, Note_on_c, 0, 86, 0
2, 25044, Note_on_c, 0, 82, 60
2, 25056, Note_on_c, 0, 82, 0
2, 25056, Note_on_c, 0, 79, 60
2, 25066, Note_on_c, 0, 79, 0
2, 25080, Note_on_c, 0, 82, 60
2, 25092, Note_on_c, 0, 82, 0
2, 25092, Note_on_c, 0, 79, 60
2, 25104, Note_on_c, 0, 79, 0
2, 25104, Note_on_c, 0, 76, 60
2, 25114, Note_on_c, 0, 76, 0
2, 25128, Note_on_c, 0, 79, 60
2, 25140, Note_on_c, 0, 79, 0
2, 25140, Note_on_c, 0, 76, 60
2, 25152, Note_on_c, 0, 76, 0
2, 25152, Note_on_c, 0, 72, 60
2, 25172, Note_on_c, 0, 72, 0
2, 25296, Note_on_c, 0, 72, 75
2, 25330, Note_on_c, 0, 72, 0
2, 25332, Note_on_c, 0, 69, 75
2, 25344, Note_on_c, 0, 69, 0
2, 25344, Note_on_c, 0, 65, 75
2, 25364, Note_on_c, 0, 65, 0
2, 25392, Note_on_c, 0, 69, 75
2, 25426, Note_on_c, 0, 69, 0
2, 25428, Note_on_c, 0, 65, 75
2, 25440, Note_on_c, 0, 65, 0
2, 25440, Note_on_c, 0, 64, 75
2, 25460, Note_on_c, 0, 64, 0
2, 25488, Note_on_c, 0, 67, 75
2, 25522, Note_on_c, 0, 67, 0
2, 25524, Note_on_c, 0, 64, 75
2, 25536, Note_on_c, 0, 64, 0
2, 25536, Note_on_c, 0, 65, 75
2, 25581, Note_on_c, 0, 65, 0
2, 25584, Note_on_c, 0, 74, 75
2, 25584, Note_on_c, 0, 70, 75
2, 25632, Note_on_c, 0, 74, 0
2, 25632, Note_on_c, 0, 70, 0
2, 25632, Note_on_c, 0, 72, 75
2, 25632, Note_on_c, 0, 69, 75
2, 25652, Note_on_c, 0, 72, 0
2, 25652, Note_on_c, 0, 69, 0
2, 25680, Note_on_c, 0, 79, 75
2, 25692, Note_on_c, 0, 79, 0
2, 25692, Note_on_c, 0, 77, 75
2, 25704, Note_on_c, 0, 77, 0
2, 25704, Note_on_c, 0, 76, 75
2, 25716, Note_on_c, 0, 76, 0
2, 25716, Note_on_c, 0, 74, 75
2, 25728, Note_on_c, 0, 74, 0
2, 25728, Note_on_c, 0, 72, 75
2, 25773, Note_on_c, 0, 72, 0
2, 25776, Note_on_c, 0, 81, 75
2, 25791, Note_on_c, 0, 81, 0
2, 25792, Note_on_c, 0, 69, 75
2, 25807, Note_on_c, 0, 69, 0
2, 25808, Note_on_c, 0, 74, 75
2, 25823, Note_on_c, 0, 74, 0
2, 25824, Note_on_c, 0, 72, 75
2, 25869, Note_on_c, 0, 72, 0
2, 25872, Note_on_c, 0, 70, 75
2, 25882, Note_on_c, 0, 70, 0
2, 25882, Note_on_c, 0, 72, 75
2, 25892, Note_on_c, 0, 72, 0
2, 25892, Note_on_c, 0, 70, 75
2, 25902, Note_on_c, 0, 70, 0
2, 25902, Note_on_c, 0, 69, 75
2, 25911, Note_on_c, 0, 69, 0
2, 25911, Note_on_c, 0, 70, 75
2, 25920, Note_on_c, 0, 70, 0
2, 25920, Note_on_c, 0, 70, 75
2, 26016, Note_on_c, 0, 70, 0
2, 26016, Note_on_c, 0, 69, 75
2, 26061, Note_on_c, 0, 69, 0
2, 26064, Note_on_c, 0, 72, 75
2, 26076, Note_on_c, 0, 72, 0
2, 26076, Note_on_c, 0, 69, 75
2, 26088, Note_on_c, 0, 69, 0
2, 26088, Note_on_c, 0, 72, 75
2, 26100, Note_on_c, 0, 72, 0
2, 26100, Note_on_c, 0, 69, 75
2, 26112, Note_on_c, 0, 69, 0
2, 26112, Note_on_c, 0, 65, 75
2, 26132, Note_on_c, 0, 65, 0
2, 26160, Note_on_c, 0, 70, 75
2, 26172, Note_on_c, 0, 70, 0
2, 26172, Note_on_c, 0, 69, 75
2, 26184, Note_on_c, 0, 69, 0
2, 26184, Note_on_c, 0, 67, 75
2, 26196, Note_on_c, 0, 67, 0
2, 26196, Note_on_c, 0, 65, 75
2, 26208, Note_on_c, 0, 65, 0
2, 26208, Note_on_c, 0, 64, 75
2, 26228, Note_on_c, 0, 64, 0
2, 26256, Note_on_c, 0, 69, 75
2, 26268, Note_on_c, 0, 69, 0
2, 26268, Note_on_c, 0, 67, 75
2, 26280, Note_on_c, 0, 67, 0
2, 26280, Note_on_c, 0, 65, 75
2, 26292, Note_on_c, 0, 65, 0
2, 26292, Note_on_c, 0, 64, 75
2, 26304, Note_on_c, 0, 64, 0
2, 26304, Note_on_c, 0, 65, 75
2, 26314, Note_on_c, 0, 65, 0
2, 26328, Note_on_c, 0, 74, 75
2, 26340, Note_on_c, 0, 74, 0
2, 26340, Note_on_c, 0, 76, 75
2, 26352, Note_on_c, 0, 76, 0
2, 26352, Note_on_c, 0, 79, 75
2, 26364, Note_on_c, 0, 79, 0
2, 26364, Note_on_c, 0, 77, 75
2, 26376, Note_on_c, 0, 77, 0
2, 26376, Note_on_c, 0, 76, 75
2, 26388, Note_on_c, 0, 76, 0
2, 26388, Note_on_c, 0, 74, 75
2, 26400, Note_on_c, 0, 74, 0
2, 26400, Note_on_c, 0, 72, 75
2, 26420, Note_on_c, 0, 72, 0
2, 26448, Note_on_c, 0, 84, 75
2, 26460, Note_on_c, 0, 84, 0
2, 26460, Note_on_c, 0, 81, 75
2, 26472, Note_on_c, 0, 81, 0
2, 26472, Note_on_c, 0, 77, 75
2, 26484, Note_on_c, 0, 77, 0
2, 26484, Note_on_c, 0, 72, 75
2, 26496, Note_on_c, 0, 72, 0
2, 26496, Note_on_c, 0, 69, 75
2, 26592, Note_on_c, 0, 69, 0
2, 26592, Note_on_c, 0, 70, 75
2, 26612, Note_on_c, 0, 70, 0
2, 26640, Note_on_c, 0, 82, 75
2, 26652, Note_on_c, 0, 82, 0
2, 26652, Note_on_c, 0, 79, 75
2, 26664, Note_on_c, 0, 79, 0
2, 26664, Note_on_c, 0, 76, 75
2, 26676, Note_on_c, 0, 76, 0
2, 26676, Note_on_c, 0, 72, 75
2, 26688, Note_on_c, 0, 72, 0
2, 26688, Note_on_c, 0, 70, 75
2, 26784, Note_on_c, 0, 70, 0
2, 26784, Note_on_c, 0, 69, 65
2, 26804, Note_on_c, 0, 69, 0
2, 26832, Note_on_c, 0, 77, 60
2, 26844, Note_on_c, 0, 77, 0
2, 26844, Note_on_c, 0, 72, 58
2, 26856, Note_on_c, 0, 72, 0
2, 26856, Note_on_c, 0, 69, 56
2, 26868, Note_on_c, 0, 69, 0
2, 26868, Note_on_c, 0, 65, 54
2, 26880, Note_on_c, 0, 65, 0
2, 26880, Note_on_c, 0, 63, 68
2, 27095, Note_on_c, 0, 63, 0
2, 27096, Note_on_c, 0, 61, 52
2, 27120, Note_on_c, 0, 61, 0
2, 27120, Note_on_c, 0, 62, 53
2, 27130, Note_on_c, 0, 62, 0
2, 27144, Note_on_c, 0, 66, 54
2, 27168, Note_on_c, 0, 66, 0
2, 27168, Note_on_c, 0, 67, 55
2, 27178, Note_on_c, 0, 67, 0
2, 27192, Note_on_c, 0, 69, 56
2, 27216, Note_on_c, 0, 69, 0
2, 27216, Note_on_c, 0, 70, 57
2, 27226, Note_on_c, 0, 70, 0
2, 27240, Note_on_c, 0, 74, 58
2, 27263, Note_on_c, 0, 74, 0
2, 27264, Note_on_c, 0, 69, 76
2, 27264, Note_on_c, 0, 65, 76
2, 27312, Note_on_c, 0, 69, 0
2, 27312, Note_on_c, 0, 65, 0
2, 27312, Note_on_c, 0, 67, 56
2, 27312, Note_on_c, 0, 64, 56
2, 27357, Note_on_c, 0, 67, 0
2, 27357, Note_on_c, 0, 64, 0
2, 27468, Note_on_c, 0, 72, 84
2, 27480, Note_on_c, 0, 72, 0
2, 27480, Note_on_c, 0, 74, 84
2, 27492, Note_on_c, 0, 74, 0
2, 27492, Note_on_c, 0, 72, 84
2, 27504, Note_on_c, 0, 72, 0
2, 27504, Note_on_c, 0, 77, 84
2, 27516, Note_on_c, 0, 77, 0
2, 27516, Note_on_c, 0, 76, 84
2, 27528, Note_on_c, 0, 76, 0
2, 27528, Note_on_c, 0, 74, 84
2, 27540, Note_on_c, 0, 74, 0
2, 27540, Note_on_c, 0, 72, 84
2, 27552, Note_on_c, 0, 72, 0
2, 27552, Note_on_c, 0, 70, 84
2, 27564, Note_on_c, 0, 70, 0
2, 27564, Note_on_c, 0, 69, 84
2, 27576, Note_on_c, 0, 69, 0
2, 27576, Note_on_c, 0, 67, 84
2, 27588, Note_on_c, 0, 67, 0
2, 27588, Note_on_c, 0, 65, 84
2, 27600, Note_on_c, 0, 65, 0
2, 27600, Note_on_c, 0, 64, 84
2, 27612, Note_on_c, 0, 64, 0
2, 27612, Note_on_c, 0, 65, 84
2, 27624, Note_on_c, 0, 65, 0
2, 27624, Note_on_c, 0, 67, 84
2, 27636, Note_on_c, 0, 67, 0
2, 27636, Note_on_c, 0, 65, 84
2, 27648, Note_on_c, 0, 65, 0
2, 27648, Note_on_c, 0, 62, 84
2, 27660, Note_on_c, 0, 62, 0
2, 27660, Note_on_c, 0, 65, 84
2, 27672, Note_on_c, 0, 65, 0
2, 27672, Note_on_c, 0, 67, 84
2, 27684, Note_on_c, 0, 67, 0
2, 27684, Note_on_c, 0, 65, 84
2, 27696, Note_on_c, 0, 65, 0
2, 27696, Note_on_c, 0, 60, 84
2, 27708, Note_on_c, 0, 60, 0
2, 27708, Note_on_c, 0, 65, 84
2, 27720, Note_on_c, 0, 65, 0
2, 27720, Note_on_c, 0, 67, 84
2, 27732, Note_on_c, 0, 67, 0
2, 27732, Note_on_c, 0, 65, 84
2, 27744, Note_on_c, 0, 65, 0
2, 27744, Note_on_c, 0, 58, 84
2, 27754, Note_on_c, 0, 58, 0
2, 27768, Note_on_c, 0, 70, 84
2, 27778, Note_on_c, 0, 70, 0
2, 27816, Note_on_c, 0, 70, 84
2, 27826, Note_on_c, 0, 70, 0
2, 27840, Note_on_c, 0, 69, 84
2, 27852, Note_on_c, 0, 69, 0
2, 27852, Note_on_c, 0, 72, 84
2, 27864, Note_on_c, 0, 72, 0
2, 27864, Note_on_c, 0, 74, 84
2, 27876, Note_on_c, 0, 74, 0
2, 27876, Note_on_c, 0, 72, 84
2, 27888, Note_on_c, 0, 72, 0
2, 27888, Note_on_c, 0, 77, 84
2, 27900, Note_on_c, 0, 77, 0
2, 27900, Note_on_c, 0, 76, 84
2, 27912, Note_on_c, 0, 76, 0
2, 27912, Note_on_c, 0, 74, 84
2, 27924, Note_on_c, 0, 74, 0
2, 27924, Note_on_c, 0, 72, 84
2, 27936, Note_on_c, 0, 72, 0
2, 27936, Note_on_c, 0, 70, 84
2, 27948, Note_on_c, 0, 70, 0
2, 27948, Note_on_c, 0, 69, 84
2, 27960, Note_on_c, 0, 69, 0
2, 27960, Note_on_c, 0, 67, 84
2, 27972, Note_on_c, 0, 67, 0
2, 27972, Note_on_c, 0, 65, 84
2, 27984, Note_on_c, 0, 65, 0
2, 27984, Note_on_c, 0, 64, 84
2, 27996, Note_on_c, 0, 64, 0
2, 27996, Note_on_c, 0, 65, 84
2, 28008, Note_on_c, 0, 65, 0
2, 28008, Note_on_c, 0, 67, 84
2, 28020, Note_on_c, 0, 67, 0
2, 28020, Note_on_c, 0, 65, 84
2, 28032, Note_on_c, 0, 65, 0
2, 28032, Note_on_c, 0, 62, 84
2, 28044, Note_on_c, 0, 62, 0
2, 28044, Note_on_c, 0, 65, 84
2, 28056, Note_on_c, 0, 65, 0
2, 28056, Note_on_c, 0, 67, 84
2, 28068, Note_on_c, 0, 67, 0
2, 28068, Note_on_c, 0, 65, 84
2, 28080, Note_on_c, 0, 65, 0
2, 28080, Note_on_c, 0, 60, 84
2, 28092, Note_on_c, 0, 60, 0
2, 28092, Note_on_c, 0, 65, 84
2, 28104, Note_on_c, 0, 65, 0
2, 28104, Note_on_c, 0, 67, 84
2, 28116, Note_on_c, 0, 67, 0
2, 28116, Note_on_c, 0, 65, 84
2, 28128, Note_on_c, 0, 65, 0
2, 28128, Note_on_c, 0, 58, 84
2, 28138, Note_on_c, 0, 58, 0
2, 28152, Note_on_c, 0, 70, 84
2, 28162, Note_on_c, 0, 70, 0
2, 28200, Note_on_c, 0, 70, 84
2, 28210, Note_on_c, 0, 70, 0
2, 28224, Note_on_c, 0, 69, 84
2, 28236, Note_on_c, 0, 69, 0
2, 28236, Note_on_c, 0, 74, 84
2, 28248, Note_on_c, 0, 74, 0
2, 28248, Note_on_c, 0, 76, 84
2, 28260, Note_on_c, 0, 76, 0
2, 28260, Note_on_c, 0, 74, 84
2, 28272, Note_on_c, 0, 74, 0
2, 28272, Note_on_c, 0, 81, 84
2, 28284, Note_on_c, 0, 81, 0
2, 28284, Note_on_c, 0, 77, 84
2, 28296, Note_on_c, 0, 77, 0
2, 28296, Note_on_c, 0, 76, 84
2, 28308, Note_on_c, 0, 76, 0
2, 28308, Note_on_c, 0, 74, 84
2, 28320, Note_on_c, 0, 74, 0
2, 28320, Note_on_c, 0, 79, 84
2, 28332, Note_on_c, 0, 79, 0
2, 28332, Note_on_c, 0, 76, 84
2, 28344, Note_on_c, 0, 76, 0
2, 28344, Note_on_c, 0, 74, 84
2, 28356, Note_on_c, 0, 74, 0
2, 28356, Note_on_c, 0, 72, 84
2, 28368, Note_on_c, 0, 72, 0
2, 28368, Note_on_c, 0, 71, 84
2, 28380, Note_on_c, 0, 71, 0
2, 28380, Note_on_c, 0, 72, 84
2, 28392, Note_on_c, 0, 72, 0
2, 28392, Note_on_c, 0, 71, 84
2, 28404, Note_on_c, 0, 71, 0
2, 28404, Note_on_c, 0, 72, 84
2, 28416, Note_on_c, 0, 72, 0
2, 28416, Note_on_c, 0, 65, 84
2, 28428, Note_on_c, 0, 65, 0
2, 28428, Note_on_c, 0, 70, 84
2, 28440, Note_on_c, 0, 70, 0
2, 28440, Note_on_c, 0, 72, 84
2, 28452, Note_on_c, 0, 72, 0
2, 28452, Note_on_c, 0, 70, 84
2, 28464, Note_on_c, 0, 70, 0
2, 28464, Note_on_c, 0, 77, 84
2, 28476, Note_on_c, 0, 77, 0
2, 28476, Note_on_c, 0, 74, 84
2, 28488, Note_on_c, 0, 74, 0
2, 28488, Note_on_c, 0, 72, 84
2, 28500, Note_on_c, 0, 72, 0
2, 28500, Note_on_c, 0, 70, 84
2, 28512, Note_on_c, 0, 70, 0
2, 28512, Note_on_c, 0, 76, 84
2, 28524, Note_on_c, 0, 76, 0
2, 28524, Note_on_c, 0, 72, 84
2, 28536, Note_on_c, 0, 72, 0
2, 28536, Note_on_c, 0, 70, 84
2, 28548, Note_on_c, 0, 70, 0
2, 28548, Note_on_c, 0, 69, 84
2, 28560, Note_on_c, 0, 69, 0
2, 28560, Note_on_c, 0, 68, 84
2, 28572, Note_on_c, 0, 68, 0
2, 28572, Note_on_c, 0, 69, 84
2, 28584, Note_on_c, 0, 69, 0
2, 28584, Note_on_c, 0, 68, 84
2, 28596, Note_on_c, 0, 68, 0
2, 28596, Note_on_c, 0, 69, 84
2, 28608, Note_on_c, 0, 69, 0
2, 28608, Note_on_c, 0, 62, 84
2, 28620, Note_on_c, 0, 62, 0
2, 28620, Note_on_c, 0, 67, 84
2, 28632, Note_on_c, 0, 67, 0
2, 28632, Note_on_c, 0, 69, 84
2, 28644, Note_on_c, 0, 69, 0
2, 28644, Note_on_c, 0, 67, 84
2, 28656, Note_on_c, 0, 67, 0
2, 28656, Note_on_c, 0, 74, 84
2, 28668, Note_on_c, 0, 74, 0
2, 28668, Note_on_c, 0, 70, 84
2, 28680, Note_on_c, 0, 70, 0
2, 28680, Note_on_c, 0, 69, 84
2, 28692, Note_on_c, 0, 69, 0
2, 28692, Note_on_c, 0, 67, 84
2, 28704, Note_on_c, 0, 67, 0
2, 28704, Note_on_c, 0, 72, 84
2, 28716, Note_on_c, 0, 72, 0
2, 28716, Note_on_c, 0, 69, 84
2, 28728, Note_on_c, 0, 69, 0
2, 28728, Note_on_c, 0, 67, 84
2, 28740, Note_on_c, 0, 67, 0
2, 28740, Note_on_c, 0, 65, 84
2, 28752, Note_on_c, 0, 65, 0
2, 28752, Note_on_c, 0, 64, 84
2, 28764, Note_on_c, 0, 64, 0
2, 28764, Note_on_c, 0, 65, 84
2, 28776, Note_on_c, 0, 65, 0
2, 28776, Note_on_c, 0, 64, 84
2, 28788, Note_on_c, 0, 64, 0
2, 28788, Note_on_c, 0, 65, 84
2, 28800, Note_on_c, 0, 65, 0
2, 28800, Control_c, 0, 64, 127
2, 28800, Note_on_c, 0, 55, 75
2, 28812, Note_on_c, 0, 55, 0
2, 28812, Note_on_c, 0, 59, 75
2, 28824, Note_on_c, 0, 59, 0
2, 28824, Note_on_c, 0, 62, 75
2, 28836, Note_on_c, 0, 62, 0
2, 28836, Note_on_c, 0, 65, 75
2, 28848, Note_on_c, 0, 65, 0
2, 28848, Note_on_c, 0, 71, 75
2, 28860, Note_on_c, 0, 71, 0
2, 28860, Note_on_c, 0, 65, 75
2, 28872, Note_on_c, 0, 65, 0
2, 28872, Note_on_c, 0, 62, 75
2, 28884, Note_on_c, 0, 62, 0
2, 28884, Note_on_c, 0, 59, 75
2, 28896, Note_on_c, 0, 59, 0
2, 28896, Note_on_c, 0, 55, 75
2, 28908, Note_on_c, 0, 55, 0
2, 28908, Note_on_c, 0, 59, 75
2, 28920, Note_on_c, 0, 59, 0
2, 28920, Note_on_c, 0, 62, 75
2, 28932, Note_on_c, 0, 62, 0
2, 28932, Note_on_c, 0, 65, 75
2, 28944, Note_on_c, 0, 65, 0
2, 28944, Note_on_c, 0, 71, 75
2, 28956, Note_on_c, 0, 71, 0
2, 28956, Note_on_c, 0, 65, 75
2, 28968, Note_on_c, 0, 65, 0
2, 28968, Note_on_c, 0, 62, 75
2, 28980, Note_on_c, 0, 62, 0
2, 28980, Control_c, 0, 64, 0
2, 28980, Note_on_c, 0, 55, 75
2, 28992, Note_on_c, 0, 55, 0
2, 29136, Note_on_c, 0, 70, 84
2, 29148, Note_on_c, 0, 70, 0
2, 29148, Note_on_c, 0, 67, 84
2, 29160, Note_on_c, 0, 67, 0
2, 29160, Note_on_c, 0, 70, 84
2, 29172, Note_on_c, 0, 70, 0
2, 29172, Note_on_c, 0, 67, 84
2, 29184, Note_on_c, 0, 67, 0
2, 29184, Note_on_c, 0, 64, 84
2, 29229, Note_on_c, 0, 64, 0
2, 29232, Note_on_c, 0, 76, 84
2, 29232, Note_on_c, 0, 70, 84
2, 29252, Note_on_c, 0, 76, 0
2, 29252, Note_on_c, 0, 70, 0
2, 29280, Note_on_c, 0, 79, 84
2, 29280, Note_on_c, 0, 76, 84
2, 29300, Note_on_c, 0, 79, 0
2, 29300, Note_on_c, 0, 76, 0
2, 29328, Note_on_c, 0, 82, 84
2, 29328, Note_on_c, 0, 79, 84
2, 29348, Note_on_c, 0, 82, 0
2, 29348, Note_on_c, 0, 79, 0
2, 29376, Note_on_c, 0, 81, 84
2, 29376, Note_on_c, 0, 77, 84
2, 29415, Note_on_c, 0, 81, 0
2, 29415, Note_on_c, 0, 77, 0
2, 29520, Note_on_c, 0, 72, 84
2, 29532, Note_on_c, 0, 72, 0
2, 29532, Note_on_c, 0, 69, 84
2, 29544, Note_on_c, 0, 69, 0
2, 29544, Note_on_c, 0, 72, 84
2, 29556, Note_on_c, 0, 72, 0
2, 29556, Note_on_c, 0, 69, 84
2, 29568, Note_on_c, 0, 69, 0
2, 29568, Note_on_c, 0, 65, 84
2, 29613, Note_on_c, 0, 65, 0
2, 29616, Note_on_c, 0, 77, 84
2, 29616, Note_on_c, 0, 69, 84
2, 29636, Note_on_c, 0, 77, 0
2, 29636, Note_on_c, 0, 69, 0
2, 29664, Note_on_c, 0, 81, 84
2, 29664, Note_on_c, 0, 77, 84
2, 29684, Note_on_c, 0, 81, 0
2, 29684, Note_on_c, 0, 77, 0
2, 29712, Note_on_c, 0, 84, 84
2, 29712, Note_on_c, 0, 81, 84
2, 29732, Note_on_c, 0, 84, 0
2, 29732, Note_on_c, 0, 81, 0
2, 29760, Note_on_c, 0, 82, 84
2, 29760, Note_on_c, 0, 79, 84
2, 29799, Note_on_c, 0, 82, 0
2, 29799, Note_on_c, 0, 79, 0
2, 29904, Note_on_c, 0, 70, 84
2, 29916, Note_on_c, 0, 70, 0
2, 29916, Note_on_c, 0, 67, 84
2, 29928, Note_on_c, 0, 67, 0
2, 29928, Note_on_c, 0, 70, 84
2, 29940, Note_on_c, 0, 70, 0
2, 29940, Note_on_c, 0, 67, 84
2, 29952, Note_on_c, 0, 67, 0
2, 29952, Note_on_c, 0, 64, 84
2, 29997, Note_on_c, 0, 64, 0
2, 30000, Note_on_c, 0, 76, 84
2, 30000, Note_on_c, 0, 70, 84
2, 30020, Note_on_c, 0, 76, 0
2, 30020, Note_on_c, 0, 70, 0
2, 30048, Note_on_c, 0, 79, 84
2, 30048, Note_on_c, 0, 76, 84
2, 30068, Note_on_c, 0, 79, 0
2, 30068, Note_on_c, 0, 76, 0
2, 30096, Note_on_c, 0, 82, 84
2, 30096, Note_on_c, 0, 79, 84
2, 30116, Note_on_c, 0, 82, 0
2, 30116, Note_on_c, 0, 79, 0
2, 30144, Note_on_c, 0, 81, 84
2, 30156, Note_on_c, 0, 81, 0
2, 30156, Note_on_c, 0, 82, 84
2, 30168, Note_on_c, 0, 82, 0
2, 30168, Note_on_c, 0, 84, 84
2, 30180, Note_on_c, 0, 84, 0
2, 30180, Note_on_c, 0, 82, 84
2, 30192, Note_on_c, 0, 82, 0
2, 30192, Note_on_c, 0, 81, 84
2, 30204, Note_on_c, 0, 81, 0
2, 30204, Note_on_c, 0, 79, 84
2, 30216, Note_on_c, 0, 79, 0
2, 30216, Note_on_c, 0, 77, 84
2, 30228, Note_on_c, 0, 77, 0
2, 30228, Note_on_c, 0, 76, 84
2, 30240, Note_on_c, 0, 76, 0
2, 30240, Note_on_c, 0, 77, 84
2, 30252, Note_on_c, 0, 77, 0
2, 30252, Note_on_c, 0, 79, 84
2, 30264, Note_on_c, 0, 79, 0
2, 30264, Note_on_c, 0, 81, 84
2, 30276, Note_on_c, 0, 81, 0
2, 30276, Note_on_c, 0, 79, 84
2, 30288, Note_on_c, 0, 79, 0
2, 30288, Note_on_c, 0, 77, 84
2, 30300, Note_on_c, 0, 77, 0
2, 30300, Note_on_c, 0, 76, 84
2, 30312, Note_on_c, 0, 76, 0
2, 30312, Note_on_c, 0, 74, 84
2, 30324, Note_on_c, 0, 74, 0
2, 30324, Note_on_c, 0, 73, 84
2, 30336, Note_on_c, 0, 73, 0
2, 30336, Note_on_c, 0, 74, 84
2, 30348, Note_on_c, 0, 74, 0
2, 30348, Note_on_c, 0, 76, 84
2, 30360, Note_on_c, 0, 76, 0
2, 30360, Note_on_c, 0, 77, 84
2, 30372, Note_on_c, 0, 77, 0
2, 30372, Note_on_c, 0, 76, 84
2, 30384, Note_on_c, 0, 76, 0
2, 30384, Note_on_c, 0, 74, 84
2, 30396, Note_on_c, 0, 74, 0
2, 30396, Note_on_c, 0, 72, 84
2, 30408, Note_on_c, 0, 72, 0
2, 30408, Note_on_c, 0, 70, 84
2, 30420, Note_on_c, 0, 70, 0
2, 30420, Note_on_c, 0, 69, 84
2, 30432, Note_on_c, 0, 69, 0
2, 30432, Note_on_c, 0, 70, 84
2, 30444, Note_on_c, 0, 70, 0
2, 30444, Note_on_c, 0, 72, 84
2, 30456, Note_on_c, 0, 72, 0
2, 30456, Note_on_c, 0, 74, 84
2, 30468, Note_on_c, 0, 74, 0
2, 30468, Note_on_c, 0, 72, 84
2, 30480, Note_on_c, 0, 72, 0
2, 30480, Note_on_c, 0, 70, 84
2, 30492, Note_on_c, 0, 70, 0
2, 30492, Note_on_c, 0, 69, 84
2, 30504, Note_on_c, 0, 69, 0
2, 30504, Note_on_c, 0, 67, 84
2, 30516, Note_on_c, 0, 67, 0
2, 30516, Note_on_c, 0, 66, 84
2, 30528, Note_on_c, 0, 66, 0
2, 30528, Note_on_c, 0, 67, 84
2, 30540, Note_on_c, 0, 67, 0
2, 30540, Note_on_c, 0, 70, 84
2, 30552, Note_on_c, 0, 70, 0
2, 30552, Note_on_c, 0, 74, 84
2, 30564, Note_on_c, 0, 74, 0
2, 30564, Note_on_c, 0, 72, 84
2, 30576, Note_on_c, 0, 72, 0
2, 30576, Note_on_c, 0, 70, 84
2, 30588, Note_on_c, 0, 70, 0
2, 30588, Note_on_c, 0, 69, 84
2, 30600, Note_on_c, 0, 69, 0
2, 30600, Note_on_c, 0, 67, 84
2, 30612, Note_on_c, 0, 67, 0
2, 30612, Note_on_c, 0, 65, 84
2, 30624, Note_on_c, 0, 65, 0
2, 30624, Note_on_c, 0, 64, 84
2, 30636, Note_on_c, 0, 64, 0
2, 30636, Note_on_c, 0, 65, 84
2, 30648, Note_on_c, 0, 65, 0
2, 30648, Note_on_c, 0, 67, 84
2, 30660, Note_on_c, 0, 67, 0
2, 30660, Note_on_c, 0, 65, 84
2, 30672, Note_on_c, 0, 65, 0
2, 30672, Note_on_c, 0, 64, 84
2, 30684, Note_on_c, 0, 64, 0
2, 30684, Note_on_c, 0, 62, 84
2, 30696, Note_on_c, 0, 62, 0
2, 30696, Note_on_c, 0, 60, 84
2, 30708, Note_on_c, 0, 60, 0
2, 30708, Note_on_c, 0, 58, 84
2, 30720, Note_on_c, 0, 58, 0
2, 30720, Note_on_c, 0, 57, 84
2, 30732, Note_on_c, 0, 57, 0
2, 30732, Note_on_c, 0, 65, 84
2, 30744, Note_on_c, 0, 65, 0
2, 30744, Note_on_c, 0, 64, 84
2, 30756, Note_on_c, 0, 64, 0
2, 30756, Note_on_c, 0, 65, 84
2, 30768, Note_on_c, 0, 65, 0
2, 30768, Note_on_c, 0, 69, 84
2, 30780, Note_on_c, 0, 69, 0
2, 30780, Note_on_c, 0, 65, 84
2, 30792, Note_on_c, 0, 65, 0
2, 30792, Note_on_c, 0, 64, 84
2, 30804, Note_on_c, 0, 64, 0
2, 30804, Note_on_c, 0, 65, 84
2, 30816, Note_on_c, 0, 65, 0
2, 30816, Note_on_c, 0, 60, 84
2, 30828, Note_on_c, 0, 60, 0
2, 30828, Note_on_c, 0, 65, 84
2, 30840, Note_on_c, 0, 65, 0
2, 30840, Note_on_c, 0, 64, 84
2, 30852, Note_on_c, 0, 64, 0
2, 30852, Note_on_c, 0, 65, 84
2, 30864, Note_on_c, 0, 65, 0
2, 30864, Note_on_c, 0, 62, 84
2, 30876, Note_on_c, 0, 62, 0
2, 30876, Note_on_c, 0, 65, 84
2, 30888, Note_on_c, 0, 65, 0
2, 30888, Note_on_c, 0, 64, 84
2, 30900, Note_on_c, 0, 64, 0
2, 30900, Note_on_c, 0, 65, 84
2, 30912, Note_on_c, 0, 65, 0
2, 30912, Note_on_c, 0, 60, 84
2, 30924, Note_on_c, 0, 60, 0
2, 30924, Note_on_c, 0, 65, 84
2, 30936, Note_on_c, 0, 65, 0
2, 30936, Note_on_c, 0, 64, 84
2, 30948, Note_on_c, 0, 64, 0
2, 30948, Note_on_c, 0, 65, 84
2, 30960, Note_on_c, 0, 65, 0
2, 30960, Note_on_c, 0, 69, 84
2, 30972, Note_on_c, 0, 69, 0
2, 30972, Note_on_c, 0, 65, 84
2, 30984, Note_on_c, 0, 65, 0
2, 30984, Note_on_c, 0, 64, 84
2, 30996, Note_on_c, 0, 64, 0
2, 30996, Note_on_c, 0, 65, 84
2, 31008, Note_on_c, 0, 65, 0
2, 31008, Note_on_c, 0, 72, 84
2, 31020, Note_on_c, 0, 72, 0
2, 31020, Note_on_c, 0, 65, 84
2, 31032, Note_on_c, 0, 65, 0
2, 31032, Note_on_c, 0, 64, 84
2, 31044, Note_on_c, 0, 64, 0
2, 31044, Note_on_c, 0, 65, 84
2, 31056, Note_on_c, 0, 65, 0
2, 31056, Note_on_c, 0, 74, 84
2, 31068, Note_on_c, 0, 74, 0
2, 31068, Note_on_c, 0, 65, 84
2, 31080, Note_on_c, 0, 65, 0
2, 31080, Note_on_c, 0, 64, 84
2, 31092, Note_on_c, 0, 64, 0
2, 31092, Note_on_c, 0, 65, 84
2, 31104, Note_on_c, 0, 65, 0
2, 31104, Note_on_c, 0, 72, 84
2, 31116, Note_on_c, 0, 72, 0
2, 31116, Note_on_c, 0, 65, 84
2, 31128, Note_on_c, 0, 65, 0
2, 31128, Note_on_c, 0, 64, 84
2, 31140, Note_on_c, 0, 64, 0
2, 31140, Note_on_c, 0, 65, 84
2, 31152, Note_on_c, 0, 65, 0
2, 31152, Note_on_c, 0, 69, 84
2, 31164, Note_on_c, 0, 69, 0
2, 31164, Note_on_c, 0, 65, 84
2, 31176, Note_on_c, 0, 65, 0
2, 31176, Note_on_c, 0, 64, 84
2, 31188, Note_on_c, 0, 64, 0
2, 31188, Note_on_c, 0, 65, 84
2, 31200, Note_on_c, 0, 65, 0
2, 31200, Note_on_c, 0, 60, 84
2, 31212, Note_on_c, 0, 60, 0
2, 31212, Note_on_c, 0, 65, 84
2, 31224, Note_on_c, 0, 65, 0
2, 31224, Note_on_c, 0, 64, 84
2, 31236, Note_on_c, 0, 64, 0
2, 31236, Note_on_c, 0, 65, 84
2, 31248, Note_on_c, 0, 65, 0
2, 31248, Note_on_c, 0, 62, 84
2, 31260, Note_on_c, 0, 62, 0
2, 31260, Note_on_c, 0, 65, 84
2, 31272, Note_on_c, 0, 65, 0
2, 31272, Note_on_c, 0, 64, 84
2, 31284, Note_on_c, 0, 64, 0
2, 31284, Note_on_c, 0, 65, 84
2, 31296, Note_on_c, 0, 65, 0
2, 31296, Note_on_c, 0, 60, 84
2, 31308, Note_on_c, 0, 60, 0
2, 31308, Note_on_c, 0, 65, 84
2, 31320, Note_on_c, 0, 65, 0
2, 31320, Note_on_c, 0, 64, 84
2, 31332, Note_on_c, 0, 64, 0
2, 31332, Note_on_c, 0, 65, 84
2, 31344, Note_on_c, 0, 65, 0
2, 31344, Note_on_c, 0, 69, 84
2, 31356, Note_on_c, 0, 69, 0
2, 31356, Note_on_c, 0, 65, 84
2, 31368, Note_on_c, 0, 65, 0
2, 31368, Note_on_c, 0, 64, 84
2, 31380, Note_on_c, 0, 64, 0
2, 31380, Note_on_c, 0, 65, 84
2, 31392, Note_on_c, 0, 65, 0
2, 31392, Note_on_c, 0, 72, 84
2, 31404, Note_on_c, 0, 72, 0
2, 31404, Note_on_c, 0, 65, 84
2, 31416, Note_on_c, 0, 65, 0
2, 31416, Note_on_c, 0, 64, 84
2, 31428, Note_on_c, 0, 64, 0
2, 31428, Note_on_c, 0, 65, 84
2, 31440, Note_on_c, 0, 65, 0
2, 31440, Note_on_c, 0, 74, 84
2, 31452, Note_on_c, 0, 74, 0
2, 31452, Note_on_c, 0, 65, 84
2, 31464, Note_on_c, 0, 65, 0
2, 31464, Note_on_c, 0, 64, 84
2, 31476, Note_on_c, 0, 64, 0
2, 31476, Note_on_c, 0, 65, 84
2, 31488, Note_on_c, 0, 65, 0
2, 31488, Note_on_c, 0, 72, 84
2, 31500, Note_on_c, 0, 72, 0
2, 31500, Note_on_c, 0, 65, 84
2, 31512, Note_on_c, 0, 65, 0
2, 31512, Note_on_c, 0, 64, 84
2, 31524, Note_on_c, 0, 64, 0
2, 31524, Note_on_c, 0, 65, 84
2, 31536, Note_on_c, 0, 65, 0
2, 31536, Note_on_c, 0, 74, 84
2, 31548, Note_on_c, 0, 74, 0
2, 31548, Note_on_c, 0, 65, 84
2, 31560, Note_on_c, 0, 65, 0
2, 31560, Note_on_c, 0, 64, 84
2, 31572, Note_on_c, 0, 64, 0
2, 31572, Note_on_c, 0, 65, 84
2, 31584, Note_on_c, 0, 65, 0
2, 31584, Note_on_c, 0, 72, 84
2, 31596, Note_on_c, 0, 72, 0
2, 31596, Note_on_c, 0, 65, 84
2, 31608, Note_on_c, 0, 65, 0
2, 31608, Note_on_c, 0, 64, 84
2, 31620, Note_on_c, 0, 64, 0
2, 31620, Note_on_c, 0, 65, 84
2, 31632, Note_on_c, 0, 65, 0
2, 31632, Note_on_c, 0, 74, 84
2, 31644, Note_on_c, 0, 74, 0
2, 31644, Note_on_c, 0, 65, 84
2, 31656, Note_on_c, 0, 65, 0
2, 31656, Note_on_c, 0, 64, 84
2, 31668, Note_on_c, 0, 64, 0
2, 31668, Note_on_c, 0, 65, 84
2, 31680, Note_on_c, 0, 65, 0
2, 31680, Note_on_c, 0, 72, 84
2, 31692, Note_on_c, 0, 72, 0
2, 31692, Note_on_c, 0, 65, 84
2, 31704, Note_on_c, 0, 65, 0
2, 31704, Note_on_c, 0, 64, 84
2, 31716, Note_on_c, 0, 64, 0
2, 31716, Note_on_c, 0, 65, 84
2, 31728, Note_on_c, 0, 65, 0
2, 31728, Note_on_c, 0, 72, 84
2, 31740, Note_on_c, 0, 72, 0
2, 31740, Note_on_c, 0, 65, 84
2, 31752, Note_on_c, 0, 65, 0
2, 31752, Note_on_c, 0, 64, 84
2, 31764, Note_on_c, 0, 64, 0
2, 31764, Note_on_c, 0, 65, 84
2, 31776, Note_on_c, 0, 65, 0
2, 31776, Note_on_c, 0, 72, 84
2, 31788, Note_on_c, 0, 72, 0
2, 31788, Note_on_c, 0, 65, 84
2, 31800, Note_on_c, 0, 65, 0
2, 31800, Note_on_c, 0, 64, 84
2, 31812, Note_on_c, 0, 64, 0
2, 31812, Note_on_c, 0, 65, 84
2, 31824, Note_on_c, 0, 65, 0
2, 31824, Note_on_c, 0, 72, 84
2, 31836, Note_on_c, 0, 72, 0
2, 31836, Note_on_c, 0, 65, 84
2, 31848, Note_on_c, 0, 65, 0
2, 31848, Note_on_c, 0, 64, 84
2, 31860, Note_on_c, 0, 64, 0
2, 31860, Note_on_c, 0, 65, 84
2, 31872, Note_on_c, 0, 65, 0
2, 31872, Note_on_c, 0, 71, 84
2, 31884, Note_on_c, 0, 71, 0
2, 31884, Note_on_c, 0, 65, 84
2, 31896, Note_on_c, 0, 65, 0
2, 31896, Note_on_c, 0, 64, 84
2, 31908, Note_on_c, 0, 64, 0
2, 31908, Note_on_c, 0, 65, 84
2, 31920, Note_on_c, 0, 65, 0
2, 31920, Note_on_c, 0, 71, 84
2, 31932, Note_on_c, 0, 71, 0
2, 31932, Note_on_c, 0, 65, 84
2, 31944, Note_on_c, 0, 65, 0
2, 31944, Note_on_c, 0, 64, 84
2, 31956, Note_on_c, 0, 64, 0
2, 31956, Note_on_c, 0, 65, 84
2, 31968, Note_on_c, 0, 65, 0
2, 31968, Note_on_c, 0, 70, 84
2, 31980, Note_on_c, 0, 70, 0
2, 31980, Note_on_c, 0, 67, 84
2, 31992, Note_on_c, 0, 67, 0
2, 31992, Note_on_c, 0, 66, 84
2, 32004, Note_on_c, 0, 66, 0
2, 32004, Note_on_c, 0, 67, 84
2, 32016, Note_on_c, 0, 67, 0
2, 32016, Note_on_c, 0, 70, 84
2, 32028, Note_on_c, 0, 70, 0
2, 32028, Note_on_c, 0, 67, 84
2, 32040, Note_on_c, 0, 67, 0
2, 32040, Note_on_c, 0, 66, 84
2, 32052, Note_on_c, 0, 66, 0
2, 32052, Note_on_c, 0, 67, 84
2, 32064, Note_on_c, 0, 67, 0
2, 32064, Note_on_c, 0, 69, 84
2, 32087, Note_on_c, 0, 69, 0
2, 32088, Note_on_c, 0, 77, 84
2, 32111, Note_on_c, 0, 77, 0
2, 32112, Note_on_c, 0, 79, 84
2, 32124, Note_on_c, 0, 79, 0
2, 32124, Note_on_c, 0, 77, 84
2, 32136, Note_on_c, 0, 77, 0
2, 32136, Note_on_c, 0, 76, 84
2, 32148, Note_on_c, 0, 76, 0
2, 32148, Note_on_c, 0, 74, 84
2, 32160, Note_on_c, 0, 74, 0
2, 32160, Note_on_c, 0, 74, 84
2, 32172, Note_on_c, 0, 74, 0
2, 32172, Note_on_c, 0, 72, 84
2, 32184, Note_on_c, 0, 72, 0
2, 32184, Note_on_c, 0, 70, 84
2, 32196, Note_on_c, 0, 70, 0
2, 32196, Note_on_c, 0, 69, 84
2, 32208, Note_on_c, 0, 69, 0
2, 32208, Note_on_c, 0, 69, 84
2, 32220, Note_on_c, 0, 69, 0
2, 32220, Note_on_c, 0, 67, 84
2, 32232, Note_on_c, 0, 67, 0
2, 32232, Note_on_c, 0, 65, 84
2, 32244, Note_on_c, 0, 65, 0
2, 32244, Note_on_c, 0, 64, 84
2, 32256, Note_on_c, 0, 64, 0
2, 32256, Note_on_c, 0, 62, 84
2, 32279, Note_on_c, 0, 62, 0
2, 32280, Note_on_c, 0, 73, 87
2, 32292, Note_on_c, 0, 73, 0
2, 32292, Note_on_c, 0, 74, 88
2, 32304, Note_on_c, 0, 74, 0
2, 32304, Note_on_c, 0, 72, 90
2, 32316, Note_on_c, 0, 72, 0
2, 32316, Note_on_c, 0, 70, 88
2, 32328, Note_on_c, 0, 70, 0
2, 32328, Note_on_c, 0, 69, 87
2, 32340, Note_on_c, 0, 69, 0
2, 32340, Note_on_c, 0, 67, 85
2, 32352, Note_on_c, 0, 67, 0
2, 32352, Note_on_c, 0, 65, 84
2, 32397, Note_on_c, 0, 65, 0
2, 32400, Note_on_c, 0, 64, 84
2, 32410, Note_on_c, 0, 64, 0
2, 32410, Note_on_c, 0, 65, 84
2, 32420, Note_on_c, 0, 65, 0
2, 32420, Note_on_c, 0, 64, 84
2, 32430, Note_on_c, 0, 64, 0
2, 32430, Note_on_c, 0, 62, 84
2, 32439, Note_on_c, 0, 62, 0
2, 32439, Note_on_c, 0, 64, 84
2, 32448, Note_on_c, 0, 64, 0
2, 32448, Note_on_c, 0, 65, 84
2, 32460, Note_on_c, 0, 65, 0
2, 32460, Note_on_c, 0, 77, 84
2, 32472, Note_on_c, 0, 77, 0
2, 32472, Note_on_c, 0, 76, 84
2, 32484, Note_on_c, 0, 76, 0
2, 32484, Note_on_c, 0, 77, 84
2, 32496, Note_on_c, 0, 77, 0
2, 32496, Note_on_c, 0, 79, 84
2, 32508, Note_on_c, 0, 79, 0
2, 32508, Note_on_c, 0, 77, 84
2, 32520, Note_on_c, 0, 77, 0
2, 32520, Note_on_c, 0, 76, 84
2, 32532, Note_on_c, 0, 76, 0
2, 32532, Note_on_c, 0, 74, 84
2, 32544, Note_on_c, 0, 74, 0
2, 32544, Note_on_c, 0, 74, 84
2, 32556, Note_on_c, 0, 74, 0
2, 32556, Note_on_c, 0, 72, 84
2, 32568, Note_on_c, 0, 72, 0
2, 32568, Note_on_c, 0, 70, 84
2, 32580, Note_on_c, 0, 70, 0
2, 32580, Note_on_c, 0, 69, 84
2, 32592, Note_on_c, 0, 69, 0
2, 32592, Note_on_c, 0, 69, 84
2, 32604, Note_on_c, 0, 69, 0
2, 32604, Note_on_c, 0, 67, 84
2, 32616, Note_on_c, 0, 67, 0
2, 32616, Note_on_c, 0, 65, 84
2, 32628, Note_on_c, 0, 65, 0
2, 32628, Note_on_c, 0, 64, 84
2, 32640, Note_on_c, 0, 64, 0
2, 32640, Note_on_c, 0, 62, 84
2, 32663, Note_on_c, 0, 62, 0
2, 32664, Note_on_c, 0, 73, 87
2, 32676, Note_on_c, 0, 73, 0
2, 32676, Note_on_c, 0, 74, 88
2, 32688, Note_on_c, 0, 74, 0
2, 32688, Note_on_c, 0, 72, 90
2, 32700, Note_on_c, 0, 72, 0
2, 32700, Note_on_c, 0, 70, 88
2, 32712, Note_on_c, 0, 70, 0
2, 32712, Note_on_c, 0, 69, 87
2, 32724, Note_on_c, 0, 69, 0
2, 32724, Note_on_c, 0, 67, 85
2, 32736, Note_on_c, 0, 67, 0
2, 32736, Note_on_c, 0, 65, 84
2, 32781, Note_on_c, 0, 65, 0
2, 32784, Note_on_c, 0, 64, 84
2, 32794, Note_on_c, 0, 64, 0
2, 32794, Note_on_c, 0, 65, 84
2, 32804, Note_on_c, 0, 65, 0
2, 32804, Note_on_c, 0, 64, 84
2, 32814, Note_on_c, 0, 64, 0
2, 32814, Note_on_c, 0, 62, 84
2, 32823, Note_on_c, 0, 62, 0
2, 32823, Note_on_c, 0, 64, 84
2, 32832, Note_on_c, 0, 64, 0
2, 32832, Note_on_c, 0, 65, 84
2, 32852, Note_on_c, 0, 65, 0
2, 32880, Note_on_c, 0, 62, 84
2, 32880, Note_on_c, 0, 58, 84
2, 32900, Note_on_c, 0, 62, 0
2, 32900, Note_on_c, 0, 58, 0
2, 32928, Note_on_c, 0, 60, 84
2, 32928, Note_on_c, 0, 57, 84
2, 32948, Note_on_c, 0, 60, 0
2, 32948, Note_on_c, 0, 57, 0
2, 32976, Note_on_c, 0, 64, 84
2, 32976, Note_on_c, 0, 58, 84
2, 32976, Note_on_c, 0, 55, 84
2, 32996, Note_on_c, 0, 64, 0
2, 32996, Note_on_c, 0, 58, 0
2, 32996, Note_on_c, 0, 55, 0
2, 33024, Note_on_c, 0, 65, 84
2, 33024, Note_on_c, 0, 60, 84
2, 33024, Note_on_c, 0, 57, 84
2, 33044, Note_on_c, 0, 65, 0
2, 33044, Note_on_c, 0, 60, 0
2, 33044, Note_on_c, 0, 57, 0
2, 33072, Note_on_c, 0, 74, 84
2, 33072, Note_on_c, 0, 70, 84
2, 33092, Note_on_c, 0, 74, 0
2, 33092, Note_on_c, 0, 70, 0
2, 33120, Note_on_c, 0, 72, 84
2, 33120, Note_on_c, 0, 69, 84
2, 33140, Note_on_c, 0, 72, 0
2, 33140, Note_on_c, 0, 69, 0
2, 33168, Note_on_c, 0, 76, 84
2, 33168, Note_on_c, 0, 70, 84
2, 33168, Note_on_c, 0, 67, 84
2, 33188, Note_on_c, 0, 76, 0
2, 33188, Note_on_c, 0, 70, 0
2, 33188, Note_on_c, 0, 67, 0
2, 33216, Note_on_c, 0, 77, 84
2, 33216, Note_on_c, 0, 72, 84
2, 33216, Note_on_c, 0, 69, 84
2, 33305, Note_on_c, 0, 77, 0
2, 33305, Note_on_c, 0, 72, 0
2, 33305, Note_on_c, 0, 69, 0
2, 33360, Note_on_c, 0, 67, 75
2, 33394, Note_on_c, 0, 67, 0
2, 33396, Note_on_c, 0, 64, 75
2, 33408, Note_on_c, 0, 64, 0
2, 33408, Note_on_c, 0, 60, 75
2, 33428, Note_on_c, 0, 60, 0
2, 33456, Note_on_c, 0, 64, 75
2, 33490, Note_on_c, 0, 64, 0
2, 33492, Note_on_c, 0, 60, 75
2, 33504, Note_on_c, 0, 60, 0
2, 33504, Note_on_c, 0, 59, 75
2, 33524, Note_on_c, 0, 59, 0
2, 33552, Note_on_c, 0, 62, 75
2, 33586, Note_on_c, 0, 62, 0
2, 33588, Note_on_c, 0, 59, 75
2, 33600, Note_on_c, 0, 59, 0
2, 33600, Note_on_c, 0, 60, 75
2, 33645, Note_on_c, 0, 60, 0
2, 33648, Note_on_c, 0, 69, 75
2, 33648, Note_on_c, 0, 65, 75
2, 33696, Note_on_c, 0, 69, 0
2, 33696, Note_on_c, 0, 65, 0
2, 33696, Note_on_c, 0, 67, 75
2, 33696, Note_on_c, 0, 64, 75
2, 33716, Note_on_c, 0, 67, 0
2, 33716, Note_on_c, 0, 64, 0
2, 33744, Note_on_c, 0, 74, 75
2, 33756, Note_on_c, 0, 74, 0
2, 33756, Note_on_c, 0, 72, 75
2, 33768, Note_on_c, 0, 72, 0
2, 33768, Note_on_c, 0, 71, 75
2, 33780, Note_on_c, 0, 71, 0
2, 33780, Note_on_c, 0, 69, 75
2, 33792, Note_on_c, 0, 69, 0
2, 33792, Note_on_c, 0, 67, 75
2, 33837, Note_on_c, 0, 67, 0
2, 33840, Note_on_c, 0, 76, 75
2, 33855, Note_on_c, 0, 76, 0
2, 33856, Note_on_c, 0, 64, 75
2, 33871, Note_on_c, 0, 64, 0
2, 33872, Note_on_c, 0, 69, 75
2, 33887, Note_on_c, 0, 69, 0
2, 33888, Note_on_c, 0, 67, 75
2, 33933, Note_on_c, 0, 67, 0
2, 33936, Note_on_c, 0, 65, 75
2, 33946, Note_on_c, 0, 65, 0
2, 33946, Note_on_c, 0, 67, 75
2, 33956, Note_on_c, 0, 67, 0
2, 33956, Note_on_c, 0, 65, 75
2, 33966, Note_on_c, 0, 65, 0
2, 33966, Note_on_c, 0, 64, 75
2, 33975, Note_on_c, 0, 64, 0
2, 33975, Note_on_c, 0, 65, 75
2, 33984, Note_on_c, 0, 65, 0
2, 33984, Note_on_c, 0, 65, 75
2, 34080, Note_on_c, 0, 65, 0
2, 34080, Note_on_c, 0, 64, 75
2, 34100, Note_on_c, 0, 64, 0
2, 34128, Note_on_c, 0, 67, 75
2, 34140, Note_on_c, 0, 67, 0
2, 34140, Note_on_c, 0, 64, 75
2, 34152, Note_on_c, 0, 64, 0
2, 34152, Note_on_c, 0, 67, 75
2, 34164, Note_on_c, 0, 67, 0
2, 34164, Note_on_c, 0, 64, 75
2, 34176, Note_on_c, 0, 64, 0
2, 34176, Note_on_c, 0, 60, 75
2, 34221, Note_on_c, 0, 60, 0
2, 34224, Note_on_c, 0, 79, 75
2, 34269, Note_on_c, 0, 79, 0
2, 34320, Note_on_c, 0, 77, 75
2, 34332, Note_on_c, 0, 77, 0
2, 34332, Note_on_c, 0, 76, 75
2, 34344, Note_on_c, 0, 76, 0
2, 34344, Note_on_c, 0, 74, 75
2, 34356, Note_on_c, 0, 74, 0
2, 34356, Note_on_c, 0, 72, 75
2, 34368, Note_on_c, 0, 72, 0
2, 34368, Note_on_c, 0, 77, 75
2, 34413, Note_on_c, 0, 77, 0
2, 34512, Note_on_c, 0, 72, 75
2, 34524, Note_on_c, 0, 72, 0
2, 34524, Note_on_c, 0, 69, 75
2, 34536, Note_on_c, 0, 69, 0
2, 34536, Note_on_c, 0, 72, 75
2, 34548, Note_on_c, 0, 72, 0
2, 34548, Note_on_c, 0, 69, 75
2, 34560, Note_on_c, 0, 69, 0
2, 34560, Note_on_c, 0, 65, 75
2, 34605, Note_on_c, 0, 65, 0
2, 34608, Note_on_c, 0, 84, 75
2, 34653, Note_on_c, 0, 84, 0
2, 34704, Note_on_c, 0, 82, 75
2, 34716, Note_on_c, 0, 82, 0
2, 34716, Note_on_c, 0, 81, 75
2, 34728, Note_on_c, 0, 81, 0
2, 34728, Note_on_c, 0, 79, 75
2, 34740, Note_on_c, 0, 79, 0
2, 34740, Note_on_c, 0, 77, 75
2, 34752, Note_on_c, 0, 77, 0
2, 34752, Note_on_c, 0, 82, 75
2, 34775, Note_on_c, 0, 82, 0
2, 34776, Note_on_c, 0, 86, 75
2, 34788, Note_on_c, 0, 86, 0
2, 34788, Note_on_c, 0, 84, 75
2, 34800, Note_on_c, 0, 84, 0
2, 34800, Note_on_c, 0, 82, 75
2, 34812, Note_on_c, 0, 82, 0
2, 34812, Note_on_c, 0, 81, 75
2, 34824, Note_on_c, 0, 81, 0
2, 34824, Note_on_c, 0, 79, 75
2, 34836, Note_on_c, 0, 79, 0
2, 34836, Note_on_c, 0, 77, 75
2, 34848, Note_on_c, 0, 77, 0
2, 34848, Note_on_c, 0, 75, 75
2, 34858, Note_on_c, 0, 75, 0
2, 34872, Note_on_c, 0, 84, 75
2, 34882, Note_on_c, 0, 84, 0
2, 34920, Note_on_c, 0, 75, 75
2, 34943, Note_on_c, 0, 75, 0
2, 34944, Note_on_c, 0, 74, 75
2, 34967, Note_on_c, 0, 74, 0
2, 34968, Note_on_c, 0, 82, 75
2, 34980, Note_on_c, 0, 82, 0
2, 34980, Note_on_c, 0, 81, 75
2, 34992, Note_on_c, 0, 81, 0
2, 34992, Note_on_c, 0, 79, 75
2, 35004, Note_on_c, 0, 79, 0
2, 35004, Note_on_c, 0, 77, 75
2, 35016, Note_on_c, 0, 77, 0
2, 35016, Note_on_c, 0, 75, 75
2, 35028, Note_on_c, 0, 75, 0
2, 35028, Note_on_c, 0, 74, 75
2, 35040, Note_on_c, 0, 74, 0
2, 35040, Note_on_c, 0, 72, 75
2, 35050, Note_on_c, 0, 72, 0
2, 35064, Note_on_c, 0, 81, 75
2, 35074, Note_on_c, 0, 81, 0
2, 35112, Note_on_c, 0, 72, 75
2, 35135, Note_on_c, 0, 72, 0
2, 35136, Note_on_c, 0, 70, 75
2, 35159, Note_on_c, 0, 70, 0
2, 35160, Note_on_c, 0, 79, 75
2, 35172, Note_on_c, 0, 79, 0
2, 35172, Note_on_c, 0, 77, 75
2, 35184, Note_on_c, 0, 77, 0
2, 35184, Note_on_c, 0, 76, 75
2, 35196, Note_on_c, 0, 76, 0
2, 35196, Note_on_c, 0, 74, 75
2, 35208, Note_on_c, 0, 74, 0
2, 35208, Note_on_c, 0, 72, 75
2, 35220, Note_on_c, 0, 72, 0
2, 35220, Note_on_c, 0, 70, 75
2, 35232, Note_on_c, 0, 70, 0
2, 35232, Note_on_c, 0, 69, 75
2, 35242, Note_on_c, 0, 69, 0
2, 35256, Note_on_c, 0, 77, 75
2, 35266, Note_on_c, 0, 77, 0
2, 35304, Note_on_c, 0, 69, 75
2, 35327, Note_on_c, 0, 69, 0
2, 35328, Note_on_c, 0, 67, 75
2, 35351, Note_on_c, 0, 67, 0
2, 35352, Note_on_c, 0, 76, 76
2, 35364, Note_on_c, 0, 76, 0
2, 35364, Note_on_c, 0, 74, 76
2, 35376, Note_on_c, 0, 74, 0
2, 35376, Note_on_c, 0, 73, 77
2, 35388, Note_on_c, 0, 73, 0
2, 35388, Note_on_c, 0, 71, 77
2, 35400, Note_on_c, 0, 71, 0
2, 35400, Note_on_c, 0, 69, 78
2, 35412, Note_on_c, 0, 69, 0
2, 35412, Note_on_c, 0, 67, 78
2, 35424, Note_on_c, 0, 67, 0
2, 35424, Note_on_c, 0, 65, 79
2, 35434, Note_on_c, 0, 65, 0
2, 35448, Note_on_c, 0, 74, 80
2, 35458, Note_on_c, 0, 74, 0
2, 35496, Note_on_c, 0, 65, 82
2, 35496, Note_on_c, 0, 62, 82
2, 35519, Note_on_c, 0, 65, 0
2, 35519, Note_on_c, 0, 62, 0
2, 35520, Note_on_c, 0, 64, 84
2, 35520, Note_on_c, 0, 61, 84
2, 35540, Note_on_c, 0, 64, 0
2, 35540, Note_on_c, 0, 61, 0
2, 35568, Note_on_c, 0, 69, 84
2, 35568, Note_on_c, 0, 65, 84
2, 35588, Note_on_c, 0, 69, 0
2, 35588, Note_on_c, 0, 65, 0
2, 35616, Note_on_c, 0, 67, 84
2, 35616, Note_on_c, 0, 64, 84
2, 35636, Note_on_c, 0, 67, 0
2, 35636, Note_on_c, 0, 64, 0
2, 35664, Note_on_c, 0, 65, 84
2, 35664, Note_on_c, 0, 62, 84
2, 35684, Note_on_c, 0, 65, 0
2, 35684, Note_on_c, 0, 62, 0
2, 35712, Note_on_c, 0, 64, 84
2, 35712, Note_on_c, 0, 61, 84
2, 35732, Note_on_c, 0, 64, 0
2, 35732, Note_on_c, 0, 61, 0
2, 35760, Note_on_c, 0, 81, 84
2, 35772, Note_on_c, 0, 81, 0
2, 35772, Note_on_c, 0, 69, 84
2, 35784, Note_on_c, 0, 69, 0
2, 35784, Note_on_c, 0, 68, 85
2, 35796, Note_on_c, 0, 68, 0
2, 35796, Note_on_c, 0, 69, 86
2, 35808, Note_on_c, 0, 69, 0
2, 35808, Note_on_c, 0, 79, 87
2, 35820, Note_on_c, 0, 79, 0
2, 35820, Note_on_c, 0, 69, 87
2, 35832, Note_on_c, 0, 69, 0
2, 35832, Note_on_c, 0, 68, 88
2, 35844, Note_on_c, 0, 68, 0
2, 35844, Note_on_c, 0, 69, 89
2, 35856, Note_on_c, 0, 69, 0
2, 35856, Note_on_c, 0, 77, 90
2, 35868, Note_on_c, 0, 77, 0
2, 35868, Note_on_c, 0, 69, 90
2, 35880, Note_on_c, 0, 69, 0
2, 35880, Note_on_c, 0, 68, 90
2, 35892, Note_on_c, 0, 68, 0
2, 35892, Note_on_c, 0, 69, 90
2, 35904, Note_on_c, 0, 69, 0
2, 35904, Note_on_c, 0, 76, 90
2, 35943, Note_on_c, 0, 76, 0
2, 36048, Note_on_c, 0, 69, 68
2, 36060, Note_on_c, 0, 69, 0
2, 36060, Note_on_c, 0, 65, 68
2, 36072, Note_on_c, 0, 65, 0
2, 36072, Note_on_c, 0, 69, 68
2, 36084, Note_on_c, 0, 69, 0
2, 36084, Note_on_c, 0, 65, 68
2, 36096, Note_on_c, 0, 65, 0
2, 36096, Note_on_c, 0, 62, 68
2, 36141, Note_on_c, 0, 62, 0
2, 36168, Note_on_c, 0, 81, 68
2, 36178, Note_on_c, 0, 81, 0
2, 36192, Note_on_c, 0, 79, 68
2, 36202, Note_on_c, 0, 79, 0
2, 36216, Note_on_c, 0, 77, 68
2, 36226, Note_on_c, 0, 77, 0
2, 36240, Note_on_c, 0, 76, 68
2, 36250, Note_on_c, 0, 76, 0
2, 36264, Note_on_c, 0, 74, 68
2, 36274, Note_on_c, 0, 74, 0
2, 36288, Note_on_c, 0, 74, 84
2, 36360, Note_on_c, 0, 74, 0
2, 36360, Note_on_c, 0, 76, 75
2, 36372, Note_on_c, 0, 76, 0
2, 36372, Note_on_c, 0, 74, 71
2, 36384, Note_on_c, 0, 74, 0
2, 36384, Note_on_c, 0, 73, 68
2, 36404, Note_on_c, 0, 73, 0
2, 36432, Note_on_c, 0, 70, 68
2, 36444, Note_on_c, 0, 70, 0
2, 36444, Note_on_c, 0, 67, 68
2, 36456, Note_on_c, 0, 67, 0
2, 36456, Note_on_c, 0, 70, 68
2, 36468, Note_on_c, 0, 70, 0
2, 36468, Note_on_c, 0, 67, 68
2, 36480, Note_on_c, 0, 67, 0
2, 36480, Note_on_c, 0, 61, 68
2, 36525, Note_on_c, 0, 61, 0
2, 36552, Note_on_c, 0, 82, 68
2, 36562, Note_on_c, 0, 82, 0
2, 36576, Note_on_c, 0, 81, 68
2, 36586, Note_on_c, 0, 81, 0
2, 36600, Note_on_c, 0, 79, 68
2, 36610, Note_on_c, 0, 79, 0
2, 36624, Note_on_c, 0, 77, 68
2, 36634, Note_on_c, 0, 77, 0
2, 36648, Note_on_c, 0, 76, 68
2, 36658, Note_on_c, 0, 76, 0
2, 36672, Note_on_c, 0, 76, 84
2, 36744, Note_on_c, 0, 76, 0
2, 36744, Note_on_c, 0, 77, 75
2, 36756, Note_on_c, 0, 77, 0
2, 36756, Note_on_c, 0, 76, 71
2, 36768, Note_on_c, 0, 76, 0
2, 36768, Note_on_c, 0, 74, 68
2, 36788, Note_on_c, 0, 74, 0
2, 36816, Note_on_c, 0, 74, 68
2, 36828, Note_on_c, 0, 74, 0
2, 36828, Note_on_c, 0, 69, 68
2, 36840, Note_on_c, 0, 69, 0
2, 36840, Note_on_c, 0, 74, 68
2, 36852, Note_on_c, 0, 74, 0
2, 36852, Note_on_c, 0, 69, 68
2, 36864, Note_on_c, 0, 69, 0
2, 36864, Note_on_c, 0, 62, 68
2, 36909, Note_on_c, 0, 62, 0
2, 36936, Note_on_c, 0, 75, 69
2, 36946, Note_on_c, 0, 75, 0
2, 36960, Note_on_c, 0, 74, 70
2, 36970, Note_on_c, 0, 74, 0
2, 36984, Note_on_c, 0, 72, 71
2, 36994, Note_on_c, 0, 72, 0
2, 37008, Note_on_c, 0, 70, 71
2, 37018, Note_on_c, 0, 70, 0
2, 37032, Note_on_c, 0, 69, 72
2, 37042, Note_on_c, 0, 69, 0
2, 37056, Note_on_c, 0, 72, 73
2, 37080, Note_on_c, 0, 72, 0
2, 37080, Note_on_c, 0, 70, 73
2, 37103, Note_on_c, 0, 70, 0
2, 37128, Note_on_c, 0, 77, 75
2, 37138, Note_on_c, 0, 77, 0
2, 37152, Note_on_c, 0, 76, 75
2, 37162, Note_on_c, 0, 76, 0
2, 37176, Note_on_c, 0, 74, 76
2, 37186, Note_on_c, 0, 74, 0
2, 37200, Note_on_c, 0, 73, 77
2, 37210, Note_on_c, 0, 73, 0
2, 37224, Note_on_c, 0, 71, 77
2, 37234, Note_on_c, 0, 71, 0
2, 37248, Note_on_c, 0, 74, 78
2, 37272, Note_on_c, 0, 74, 0
2, 37272, Note_on_c, 0, 73, 79
2, 37295, Note_on_c, 0, 73, 0
2, 37320, Note_on_c, 0, 82, 80
2, 37330, Note_on_c, 0, 82, 0
2, 37344, Note_on_c, 0, 81, 81
2, 37354, Note_on_c, 0, 81, 0
2, 37368, Note_on_c, 0, 79, 81
2, 37378, Note_on_c, 0, 79, 0
2, 37392, Note_on_c, 0, 77, 82
2, 37402, Note_on_c, 0, 77, 0
2, 37416, Note_on_c, 0, 76, 83
2, 37426, Note_on_c, 0, 76, 0
2, 37440, Control_c, 0, 64, 127
2, 37440, Note_on_c, 0, 77, 83
2, 37452, Note_on_c, 0, 77, 0
2, 37452, Note_on_c, 0, 74, 84
2, 37464, Note_on_c, 0, 74, 0
2, 37464, Note_on_c, 0, 69, 84
2, 37476, Note_on_c, 0, 69, 0
2, 37476, Note_on_c, 0, 65, 84
2, 37488, Note_on_c, 0, 65, 0
2, 37488, Note_on_c, 0, 62, 84
2, 37500, Note_on_c, 0, 62, 0
2, 37500, Note_on_c, 0, 77, 84
2, 37512, Note_on_c, 0, 77, 0
2, 37512, Note_on_c, 0, 74, 84
2, 37524, Note_on_c, 0, 74, 0
2, 37524, Control_c, 0, 64, 0
2, 37524, Note_on_c, 0, 69, 84
2, 37536, Note_on_c, 0, 69, 0
2, 37536, Control_c, 0, 64, 127
2, 37536, Note_on_c, 0, 79, 84
2, 37548, Note_on_c, 0, 79, 0
2, 37548, Note_on_c, 0, 76, 84
2, 37560, Note_on_c, 0, 76, 0
2, 37560, Note_on_c, 0, 73, 84
2, 37572, Note_on_c, 0, 73, 0
2, 37572, Note_on_c, 0, 67, 84
2, 37584, Note_on_c, 0, 67, 0
2, 37584, Note_on_c, 0, 64, 84
2, 37596, Note_on_c, 0, 64, 0
2, 37596, Note_on_c, 0, 79, 84
2, 37608, Note_on_c, 0, 79, 0
2, 37608, Note_on_c, 0, 76, 84
2, 37620, Note_on_c, 0, 76, 0
2, 37620, Control_c, 0, 64, 0
2, 37620, Note_on_c, 0, 73, 84
2, 37632, Note_on_c, 0, 73, 0
2, 37632, Control_c, 0, 64, 127
2, 37632, Note_on_c, 0, 81, 84
2, 37644, Note_on_c, 0, 81, 0
2, 37644, Note_on_c, 0, 77, 84
2, 37656, Note_on_c, 0, 77, 0
2, 37656, Note_on_c, 0, 74, 84
2, 37668, Note_on_c, 0, 74, 0
2, 37668, Note_on_c, 0, 69, 84
2, 37680, Note_on_c, 0, 69, 0
2, 37680, Note_on_c, 0, 65, 84
2, 37692, Note_on_c, 0, 65, 0
2, 37692, Note_on_c, 0, 81, 84
2, 37704, Note_on_c, 0, 81, 0
2, 37704, Note_on_c, 0, 77, 84
2, 37716, Note_on_c, 0, 77, 0
2, 37716, Control_c, 0, 64, 0
2, 37716, Note_on_c, 0, 74, 84
2, 37728, Note_on_c, 0, 74, 0
2, 37728, Control_c, 0, 64, 127
2, 37728, Note_on_c, 0, 82, 84
2, 37740, Note_on_c, 0, 82, 0
2, 37740, Note_on_c, 0, 79, 84
2, 37752, Note_on_c, 0, 79, 0
2, 37752, Note_on_c, 0, 74, 84
2, 37764, Note_on_c, 0, 74, 0
2, 37764, Note_on_c, 0, 70, 84
2, 37776, Note_on_c, 0, 70, 0
2, 37776, Note_on_c, 0, 67, 84
2, 37788, Note_on_c, 0, 67, 0
2, 37788, Note_on_c, 0, 82, 84
2, 37800, Note_on_c, 0, 82, 0
2, 37800, Note_on_c, 0, 79, 84
2, 37812, Note_on_c, 0, 79, 0
2, 37812, Control_c, 0, 64, 0
2, 37812, Note_on_c, 0, 74, 84
2, 37824, Note_on_c, 0, 74, 0
2, 37824, Control_c, 0, 64, 127
2, 37824, Note_on_c, 0, 81, 84
2, 37836, Note_on_c, 0, 81, 0
2, 37836, Note_on_c, 0, 77, 84
2, 37848, Note_on_c, 0, 77, 0
2, 37848, Note_on_c, 0, 74, 84
2, 37860, Note_on_c, 0, 74, 0
2, 37860, Note_on_c, 0, 69, 84
2, 37872, Note_on_c, 0, 69, 0
2, 37872, Note_on_c, 0, 65, 84
2, 37884, Note_on_c, 0, 65, 0
2, 37884, Note_on_c, 0, 81, 84
2, 37896, Note_on_c, 0, 81, 0
2, 37896, Note_on_c, 0, 77, 84
2, 37908, Note_on_c, 0, 77, 0
2, 37908, Control_c, 0, 64, 0
2, 37908, Note_on_c, 0, 74, 84
2, 37920, Note_on_c, 0, 74, 0
2, 37920, Control_c, 0, 64, 127
2, 37920, Note_on_c, 0, 83, 84
2, 37932, Note_on_c, 0, 83, 0
2, 37932, Note_on_c, 0, 77, 84
2, 37944, Note_on_c, 0, 77, 0
2, 37944, Note_on_c, 0, 74, 84
2, 37956, Note_on_c, 0, 74, 0
2, 37956, Note_on_c, 0, 71, 84
2, 37968, Note_on_c, 0, 71, 0
2, 37968, Note_on_c, 0, 68, 84
2, 37980, Note_on_c, 0, 68, 0
2, 37980, Note_on_c, 0, 86, 84
2, 37992, Note_on_c, 0, 86, 0
2, 37992, Note_on_c, 0, 83, 84
2, 38004, Note_on_c, 0, 83, 0
2, 38004, Control_c, 0, 64, 0
2, 38004, Note_on_c, 0, 77, 84
2, 38016, Note_on_c, 0, 77, 0
2, 38016, Control_c, 0, 64, 127
2, 38016, Note_on_c, 0, 85, 84
2, 38028, Note_on_c, 0, 85, 0
2, 38028, Note_on_c, 0, 81, 84
2, 38040, Note_on_c, 0, 81, 0
2, 38040, Note_on_c, 0, 76, 84
2, 38052, Note_on_c, 0, 76, 0
2, 38052, Note_on_c, 0, 73, 84
2, 38064, Note_on_c, 0, 73, 0
2, 38064, Note_on_c, 0, 69, 84
2, 38076, Note_on_c, 0, 69, 0
2, 38076, Note_on_c, 0, 85, 84
2, 38088, Note_on_c, 0, 85, 0
2, 38088, Note_on_c, 0, 81, 84
2, 38100, Note_on_c, 0, 81, 0
2, 38100, Control_c, 0, 64, 0
2, 38100, Note_on_c, 0, 76, 84
2, 38112, Note_on_c, 0, 76, 0
2, 38112, Control_c, 0, 64, 127
2, 38112, Note_on_c, 0, 86, 84
2, 38124, Note_on_c, 0, 86, 0
2, 38124, Note_on_c, 0, 80, 84
2, 38136, Note_on_c, 0, 80, 0
2, 38136, Note_on_c, 0, 77, 84
2, 38148, Note_on_c, 0, 77, 0
2, 38148, Note_on_c, 0, 74, 84
2, 38160, Note_on_c, 0, 74, 0
2, 38160, Note_on_c, 0, 71, 84
2, 38172, Note_on_c, 0, 71, 0
2, 38172, Note_on_c, 0, 86, 84
2, 38184, Note_on_c, 0, 86, 0
2, 38184, Note_on_c, 0, 80, 84
2, 38196, Note_on_c, 0, 80, 0
2, 38196, Control_c, 0, 64, 0
2, 38196, Note_on_c, 0, 77, 84
2, 38208, Note_on_c, 0, 77, 0
2, 38208, Control_c, 0, 64, 127
2, 38208, Note_on_c, 0, 85, 84
2, 38220, Note_on_c, 0, 85, 0
2, 38220, Note_on_c, 0, 81, 84
2, 38232, Note_on_c, 0, 81, 0
2, 38232, Note_on_c, 0, 76, 84
2, 38244, Note_on_c, 0, 76, 0
2, 38244, Note_on_c, 0, 73, 84
2, 38256, Note_on_c, 0, 73, 0
2, 38256, Note_on_c, 0, 69, 84
2, 38268, Note_on_c, 0, 69, 0
2, 38268, Note_on_c, 0, 88, 84
2, 38280, Note_on_c, 0, 88, 0
2, 38280, Note_on_c, 0, 85, 84
2, 38292, Note_on_c, 0, 85, 0
2, 38292, Note_on_c, 0, 81, 84
2, 38304, Note_on_c, 0, 81, 0
2, 38304, Note_on_c, 0, 85, 84
2, 38316, Note_on_c, 0, 85, 0
2, 38316, Note_on_c, 0, 81, 84
2, 38328, Note_on_c, 0, 81, 0
2, 38328, Note_on_c, 0, 76, 84
2, 38340, Note_on_c, 0, 76, 0
2, 38340, Note_on_c, 0, 73, 84
2, 38352, Note_on_c, 0, 73, 0
2, 38352, Note_on_c, 0, 69, 84
2, 38364, Note_on_c, 0, 69, 0
2, 38364, Note_on_c, 0, 85, 84
2, 38376, Note_on_c, 0, 85, 0
2, 38376, Note_on_c, 0, 81, 84
2, 38388, Note_on_c, 0, 81, 0
2, 38388, Note_on_c, 0, 76, 84
2, 38400, Note_on_c, 0, 76, 0
2, 38400, Control_c, 0, 64, 0
2, 38400, Control_c, 0, 64, 127
2, 38400, Note_on_c, 0, 82, 84
2, 38412, Note_on_c, 0, 82, 0
2, 38412, Note_on_c, 0, 79, 84
2, 38424, Note_on_c, 0, 79, 0
2, 38424, Note_on_c, 0, 76, 84
2, 38436, Note_on_c, 0, 76, 0
2, 38436, Control_c, 0, 64, 0
2, 38436, Note_on_c, 0, 73, 84
2, 38448, Note_on_c, 0, 73, 0
2, 38448, Control_c, 0, 64, 127
2, 38448, Note_on_c, 0, 81, 84
2, 38460, Note_on_c, 0, 81, 0
2, 38460, Note_on_c, 0, 78, 84
2, 38472, Note_on_c, 0, 78, 0
2, 38472, Note_on_c, 0, 75, 84
2, 38484, Note_on_c, 0, 75, 0
2, 38484, Control_c, 0, 64, 0
2, 38484, Note_on_c, 0, 72, 84
2, 38496, Note_on_c, 0, 72, 0
2, 38496, Control_c, 0, 64, 127
2, 38496, Note_on_c, 0, 80, 84
2, 38508, Note_on_c, 0, 80, 0
2, 38508, Note_on_c, 0, 77, 84
2, 38520, Note_on_c, 0, 77, 0
2, 38520, Note_on_c, 0, 74, 84
2, 38532, Note_on_c, 0, 74, 0
2, 38532, Control_c, 0, 64, 0
2, 38532, Note_on_c, 0, 71, 84
2, 38544, Note_on_c, 0, 71, 0
2, 38544, Control_c, 0, 64, 127
2, 38544, Note_on_c, 0, 79, 84
2, 38556, Note_on_c, 0, 79, 0
2, 38556, Note_on_c, 0, 76, 84
2, 38568, Note_on_c, 0, 76, 0
2, 38568, Note_on_c, 0, 73, 84
2, 38580, Note_on_c, 0, 73, 0
2, 38580, Control_c, 0, 64, 0
2, 38580, Note_on_c, 0, 70, 84
2, 38592, Note_on_c, 0, 70, 0
2, 38592, Control_c, 0, 64, 127
2, 38592, Note_on_c, 0, 77, 84
2, 38604, Note_on_c, 0, 77, 0
2, 38604, Note_on_c, 0, 74, 84
2, 38616, Note_on_c, 0, 74, 0
2, 38616, Note_on_c, 0, 71, 84
2, 38628, Note_on_c, 0, 71, 0
2, 38628, Note_on_c, 0, 68, 84
2, 38640, Note_on_c, 0, 68, 0
2, 38640, Note_on_c, 0, 56, 84
2, 38652, Note_on_c, 0, 56, 0
2, 38652, Note_on_c, 0, 71, 84
2, 38664, Note_on_c, 0, 71, 0
2, 38664, Note_on_c, 0, 74, 84
2, 38676, Note_on_c, 0, 74, 0
2, 38676, Note_on_c, 0, 77, 84
2, 38688, Note_on_c, 0, 77, 0
2, 38688, Control_c, 0, 64, 0
2, 38700, Control_c, 0, 64, 127
2, 38700, Note_on_c, 0, 69, 84
2, 38712, Note_on_c, 0, 69, 0
2, 38712, Note_on_c, 0, 74, 84
2, 38724, Note_on_c, 0, 74, 0
2, 38724, Control_c, 0, 64, 0
2, 38724, Note_on_c, 0, 77, 84
2, 38736, Note_on_c, 0, 77, 0
2, 38748, Control_c, 0, 64, 127
2, 38748, Note_on_c, 0, 67, 84
2, 38760, Note_on_c, 0, 67, 0
2, 38760, Note_on_c, 0, 73, 84
2, 38772, Note_on_c, 0, 73, 0
2, 38772, Control_c, 0, 64, 0
2, 38772, Note_on_c, 0, 76, 84
2, 38784, Note_on_c, 0, 76, 0
2, 38784, Control_c, 0, 64, 127
2, 38784, Note_on_c, 0, 73, 84
2, 38796, Note_on_c, 0, 73, 0
2, 38796, Note_on_c, 0, 76, 84
2, 38808, Note_on_c, 0, 76, 0
2, 38808, Note_on_c, 0, 79, 84
2, 38820, Note_on_c, 0, 79, 0
2, 38820, Control_c, 0, 64, 0
2, 38820, Note_on_c, 0, 82, 84
2, 38832, Note_on_c, 0, 82, 0
2, 38832, Control_c, 0, 64, 127
2, 38832, Note_on_c, 0, 72, 84
2, 38844, Note_on_c, 0, 72, 0
2, 38844, Note_on_c, 0, 75, 84
2, 38856, Note_on_c, 0, 75, 0
2, 38856, Note_on_c, 0, 78, 84
2, 38868, Note_on_c, 0, 78, 0
2, 38868, Control_c, 0, 64, 0
2, 38868, Note_on_c, 0, 81, 84
2, 38880, Note_on_c, 0, 81, 0
2, 38880, Control_c, 0, 64, 127
2, 38880, Note_on_c, 0, 71, 84
2, 38892, Note_on_c, 0, 71, 0
2, 38892, Note_on_c, 0, 74, 84
2, 38904, Note_on_c, 0, 74, 0
2, 38904, Note_on_c, 0, 77, 84
2, 38916, Note_on_c, 0, 77, 0
2, 38916, Control_c, 0, 64, 0
2, 38916, Note_on_c, 0, 80, 84
2, 38928, Note_on_c, 0, 80, 0
2, 38928, Control_c, 0, 64, 127
2, 38928, Note_on_c, 0, 70, 84
2, 38940, Note_on_c, 0, 70, 0
2, 38940, Note_on_c, 0, 73, 84
2, 38952, Note_on_c, 0, 73, 0
2, 38952, Note_on_c, 0, 76, 84
2, 38964, Note_on_c, 0, 76, 0
2, 38964, Control_c, 0, 64, 0
2, 38964, Note_on_c, 0, 79, 84
2, 38976, Note_on_c, 0, 79, 0
2, 38976, Control_c, 0, 64, 127
2, 38976, Note_on_c, 0, 68, 84
2, 38988, Note_on_c, 0, 68, 0
2, 38988, Note_on_c, 0, 71, 84
2, 39000, Note_on_c, 0, 71, 0
2, 39000, Note_on_c, 0, 74, 84
2, 39012, Note_on_c, 0, 74, 0
2, 39012, Note_on_c, 0, 77, 84
2, 39024, Note_on_c, 0, 77, 0
2, 39024, Note_on_c, 0, 56, 84
2, 39036, Note_on_c, 0, 56, 0
2, 39036, Note_on_c, 0, 71, 84
2, 39048, Note_on_c, 0, 71, 0
2, 39048, Note_on_c, 0, 74, 84
2, 39060, Note_on_c, 0, 74, 0
2, 39060, Control_c, 0, 64, 0
2, 39060, Note_on_c, 0, 77, 84
2, 39072, Note_on_c, 0, 77, 0
2, 39084, Control_c, 0, 64, 127
2, 39084, Note_on_c, 0, 69, 84
2, 39096, Note_on_c, 0, 69, 0
2, 39096, Note_on_c, 0, 74, 84
2, 39108, Note_on_c, 0, 74, 0
2, 39108, Control_c, 0, 64, 0
2, 39108, Note_on_c, 0, 77, 84
2, 39120, Note_on_c, 0, 77, 0
2, 39132, Control_c, 0, 64, 127
2, 39132, Note_on_c, 0, 67, 84
2, 39144, Note_on_c, 0, 67, 0
2, 39144, Note_on_c, 0, 73, 84
2, 39156, Note_on_c, 0, 73, 0
2, 39156, Control_c, 0, 64, 0
2, 39156, Note_on_c, 0, 76, 84
2, 39168, Note_on_c, 0, 76, 0
2, 39168, Note_on_c, 0, 74, 90
2, 39213, Note_on_c, 0, 74, 0
2, 39264, Note_on_c, 0, 75, 106
2, 39264, Note_on_c, 0, 72, 106
2, 39264, Note_on_c, 0, 66, 106
2, 39360, Note_on_c, 0, 75, 0
2, 39360, Note_on_c, 0, 72, 0
2, 39360, Note_on_c, 0, 66, 0
2, 39360, Note_on_c, 0, 74, 90
2, 39360, Note_on_c, 0, 70, 90
2, 39360, Note_on_c, 0, 67, 90
2, 39380, Note_on_c, 0, 74, 0
2, 39380, Note_on_c, 0, 70, 0
2, 39380, Note_on_c, 0, 67, 0
2, 39408, Note_on_c, 0, 82, 90
2, 39408, Note_on_c, 0, 79, 90
2, 39428, Note_on_c, 0, 82, 0
2, 39428, Note_on_c, 0, 79, 0
2, 39456, Note_on_c, 0, 72, 106
2, 39456, Note_on_c, 0, 69, 106
2, 39456, Note_on_c, 0, 66, 106
2, 39552, Note_on_c, 0, 72, 0
2, 39552, Note_on_c, 0, 69, 0
2, 39552, Note_on_c, 0, 66, 0
2, 39552, Note_on_c, 0, 70, 90
2, 39564, Note_on_c, 0, 70, 0
2, 39564, Note_on_c, 0, 67, 90
2, 39576, Note_on_c, 0, 67, 0
2, 39576, Note_on_c, 0, 69, 90
2, 39588, Note_on_c, 0, 69, 0
2, 39588, Note_on_c, 0, 70, 90
2, 39600, Note_on_c, 0, 70, 0
2, 39600, Note_on_c, 0, 72, 90
2, 39612, Note_on_c, 0, 72, 0
2, 39612, Note_on_c, 0, 74, 90
2, 39624, Note_on_c, 0, 74, 0
2, 39624, Note_on_c, 0, 76, 90
2, 39636, Note_on_c, 0, 76, 0
2, 39636, Note_on_c, 0, 78, 90
2, 39648, Note_on_c, 0, 78, 0
2, 39648, Note_on_c, 0, 79, 90
2, 39660, Note_on_c, 0, 79, 0
2, 39660, Note_on_c, 0, 81, 90
2, 39672, Note_on_c, 0, 81, 0
2, 39672, Note_on_c, 0, 82, 90
2, 39684, Note_on_c, 0, 82, 0
2, 39684, Note_on_c, 0, 81, 90
2, 39696, Note_on_c, 0, 81, 0
2, 39696, Note_on_c, 0, 79, 90
2, 39708, Note_on_c, 0, 79, 0
2, 39708, Note_on_c, 0, 77, 90
2, 39720, Note_on_c, 0, 77, 0
2, 39720, Note_on_c, 0, 76, 90
2, 39732, Note_on_c, 0, 76, 0
2, 39732, Note_on_c, 0, 74, 90
2, 39744, Note_on_c, 0, 74, 0
2, 39744, Note_on_c, 0, 72, 90
2, 39789, Note_on_c, 0, 72, 0
2, 39840, Note_on_c, 0, 73, 106
2, 39840, Note_on_c, 0, 70, 106
2, 39840, Note_on_c, 0, 64, 106
2, 39936, Note_on_c, 0, 73, 0
2, 39936, Note_on_c, 0, 70, 0
2, 39936, Note_on_c, 0, 64, 0
2, 39936, Note_on_c, 0, 72, 90
2, 39936, Note_on_c, 0, 69, 90
2, 39936, Note_on_c, 0, 65, 90
2, 39956, Note_on_c, 0, 72, 0
2, 39956, Note_on_c, 0, 69, 0
2, 39956, Note_on_c, 0, 65, 0
2, 39984, Note_on_c, 0, 81, 90
2, 39984, Note_on_c, 0, 77, 90
2, 40004, Note_on_c, 0, 81, 0
2, 40004, Note_on_c, 0, 77, 0
2, 40032, Note_on_c, 0, 70, 106
2, 40032, Note_on_c, 0, 67, 106
2, 40032, Note_on_c, 0, 64, 106
2, 40128, Note_on_c, 0, 70, 0
2, 40128, Note_on_c, 0, 67, 0
2, 40128, Note_on_c, 0, 64, 0
2, 40128, Note_on_c, 0, 69, 90
2, 40128, Note_on_c, 0, 65, 90
2, 40148, Note_on_c, 0, 69, 0
2, 40148, Note_on_c, 0, 65, 0
2, 40176, Note_on_c, 0, 77, 90
2, 40196, Note_on_c, 0, 77, 0
2, 40224, Note_on_c, 0, 71, 106
2, 40224, Note_on_c, 0, 65, 106
2, 40224, Note_on_c, 0, 62, 106
2, 40320, Note_on_c, 0, 71, 0
2, 40320, Note_on_c, 0, 65, 0
2, 40320, Note_on_c, 0, 62, 0
2, 40320, Note_on_c, 0, 72, 90
2, 40320, Note_on_c, 0, 67, 90
2, 40320, Note_on_c, 0, 64, 90
2, 40340, Note_on_c, 0, 72, 0
2, 40340, Note_on_c, 0, 67, 0
2, 40340, Note_on_c, 0, 64, 0
2, 40392, Note_on_c, 0, 60, 75
2, 40404, Note_on_c, 0, 60, 0
2, 40404, Note_on_c, 0, 64, 75
2, 40416, Note_on_c, 0, 64, 0
2, 40416, Note_on_c, 0, 67, 75
2, 40426, Note_on_c, 0, 67, 0
2, 40440, Note_on_c, 0, 64, 75
2, 40452, Note_on_c, 0, 64, 0
2, 40452, Note_on_c, 0, 67, 75
2, 40464, Note_on_c, 0, 67, 0
2, 40464, Note_on_c, 0, 70, 75
2, 40474, Note_on_c, 0, 70, 0
2, 40488, Note_on_c, 0, 67, 75
2, 40500, Note_on_c, 0, 67, 0
2, 40500, Note_on_c, 0, 70, 75
2, 40512, Note_on_c, 0, 70, 0
2, 40512, Note_on_c, 0, 76, 75
2, 40532, Note_on_c, 0, 76, 0
2, 40584, Note_on_c, 0, 86, 60
2, 40596, Note_on_c, 0, 86, 0
2, 40596, Note_on_c, 0, 82, 60
2, 40608, Note_on_c, 0, 82, 0
2, 40608, Note_on_c, 0, 79, 60
2, 40618, Note_on_c, 0, 79, 0
2, 40632, Note_on_c, 0, 82, 60
2, 40644, Note_on_c, 0, 82, 0
2, 40644, Note_on_c, 0, 79, 60
2, 40656, Note_on_c, 0, 79, 0
2, 40656, Note_on_c, 0, 76, 60
2, 40666, Note_on_c, 0, 76, 0
2, 40680, Note_on_c, 0, 79, 60
2, 40692, Note_on_c, 0, 79, 0
2, 40692, Note_on_c, 0, 76, 60
2, 40704, Note_on_c, 0, 76, 0
2, 40704, Note_on_c, 0, 72, 60
2, 40724, Note_on_c, 0, 72, 0
2, 40848, Note_on_c, 0, 72, 75
2, 40882, Note_on_c, 0, 72, 0
2, 40884, Note_on_c, 0, 69, 75
2, 40896, Note_on_c, 0, 69, 0
2, 40896, Note_on_c, 0, 65, 75
2, 40916, Note_on_c, 0, 65, 0
2, 40944, Note_on_c, 0, 69, 75
2, 40978, Note_on_c, 0, 69, 0
2, 40980, Note_on_c, 0, 65, 75
2, 40992, Note_on_c, 0, 65, 0
2, 40992, Note_on_c, 0, 64, 75
2, 41012, Note_on_c, 0, 64, 0
2, 41040, Note_on_c, 0, 67, 75
2, 41074, Note_on_c, 0, 67, 0
2, 41076, Note_on_c, 0, 64, 75
2, 41088, Note_on_c, 0, 64, 0
2, 41088, Note_on_c, 0, 65, 75
2, 41133, Note_on_c, 0, 65, 0
2, 41136, Note_on_c, 0, 74, 75
2, 41136, Note_on_c, 0, 70, 75
2, 41184, Note_on_c, 0, 74, 0
2, 41184, Note_on_c, 0, 70, 0
2, 41184, Note_on_c, 0, 72, 75
2, 41184, Note_on_c, 0, 69, 75
2, 41204, Note_on_c, 0, 72, 0
2, 41204, Note_on_c, 0, 69, 0
2, 41232, Note_on_c, 0, 79, 75
2, 41244, Note_on_c, 0, 79, 0
2, 41244, Note_on_c, 0, 77, 75
2, 41256, Note_on_c, 0, 77, 0
2, 41256, Note_on_c, 0, 76, 75
2, 41268, Note_on_c, 0, 76, 0
2, 41268, Note_on_c, 0, 74, 75
2, 41280, Note_on_c, 0, 74, 0
2, 41280, Note_on_c, 0, 72, 75
2, 41325, Note_on_c, 0, 72, 0
2, 41328, Note_on_c, 0, 81, 75
2, 41343, Note_on_c, 0, 81, 0
2, 41344, Note_on_c, 0, 69, 75
2, 41359, Note_on_c, 0, 69, 0
2, 41360, Note_on_c, 0, 74, 75
2, 41375, Note_on_c, 0, 74, 0
2, 41376, Note_on_c, 0, 72, 75
2, 41421, Note_on_c, 0, 72, 0
2, 41424, Note_on_c, 0, 70, 75
2, 41434, Note_on_c, 0, 70, 0
2, 41434, Note_on_c, 0, 72, 75
2, 41444, Note_on_c, 0, 72, 0
2, 41444, Note_on_c, 0, 70, 75
2, 41454, Note_on_c, 0, 70, 0
2, 41454, Note_on_c, 0, 69, 75
2, 41463, Note_on_c, 0, 69, 0
2, 41463, Note_on_c, 0, 70, 75
2, 41472, Note_on_c, 0, 70, 0
2, 41472, Note_on_c, 0, 70, 75
2, 41568, Note_on_c, 0, 70, 0
2, 41568, Note_on_c, 0, 69, 75
2, 41613, Note_on_c, 0, 69, 0
2, 41616, Note_on_c, 0, 72, 75
2, 41628, Note_on_c, 0, 72, 0
2, 41628, Note_on_c, 0, 69, 75
2, 41640, Note_on_c, 0, 69, 0
2, 41640, Note_on_c, 0, 72, 75
2, 41652, Note_on_c, 0, 72, 0
2, 41652, Note_on_c, 0, 69, 75
2, 41664, Note_on_c, 0, 69, 0
2, 41664, Note_on_c, 0, 65, 75
2, 41684, Note_on_c, 0, 65, 0
2, 41712, Note_on_c, 0, 70, 75
2, 41724, Note_on_c, 0, 70, 0
2, 41724, Note_on_c, 0, 69, 75
2, 41736, Note_on_c, 0, 69, 0
2, 41736, Note_on_c, 0, 67, 75
2, 41748, Note_on_c, 0, 67, 0
2, 41748, Note_on_c, 0, 65, 75
2, 41760, Note_on_c, 0, 65, 0
2, 41760, Note_on_c, 0, 64, 75
2, 41780, Note_on_c, 0, 64, 0
2, 41808, Note_on_c, 0, 69, 75
2, 41820, Note_on_c, 0, 69, 0
2, 41820, Note_on_c, 0, 67, 75
2, 41832, Note_on_c, 0, 67, 0
2, 41832, Note_on_c, 0, 65, 75
2, 41844, Note_on_c, 0, 65, 0
2, 41844, Note_on_c, 0, 64, 75
2, 41856, Note_on_c, 0, 64, 0
2, 41856, Note_on_c, 0, 65, 75
2, 41866, Note_on_c, 0, 65, 0
2, 41880, Note_on_c, 0, 74, 75
2, 41892, Note_on_c, 0, 74, 0
2, 41892, Note_on_c, 0, 76, 75
2, 41904, Note_on_c, 0, 76, 0
2, 41904, Note_on_c, 0, 79, 75
2, 41916, Note_on_c, 0, 79, 0
2, 41916, Note_on_c, 0, 77, 75
2, 41928, Note_on_c, 0, 77, 0
2, 41928, Note_on_c, 0, 76, 75
2, 41940, Note_on_c, 0, 76, 0
2, 41940, Note_on_c, 0, 74, 75
2, 41952, Note_on_c, 0, 74, 0
2, 41952, Note_on_c, 0, 72, 75
2, 41972, Note_on_c, 0, 72, 0
2, 42000, Note_on_c, 0, 84, 75
2, 42012, Note_on_c, 0, 84, 0
2, 42012, Note_on_c, 0, 81, 75
2, 42024, Note_on_c, 0, 81, 0
2, 42024, Note_on_c, 0, 77, 75
2, 42036, Note_on_c, 0, 77, 0
2, 42036, Note_on_c, 0, 72, 75
2, 42048, Note_on_c, 0, 72, 0
2, 42048, Note_on_c, 0, 69, 75
2, 42144, Note_on_c, 0, 69, 0
2, 42144, Note_on_c, 0, 70, 75
2, 42164, Note_on_c, 0, 70, 0
2, 42192, Note_on_c, 0, 82, 75
2, 42204, Note_on_c, 0, 82, 0
2, 42204, Note_on_c, 0, 79, 75
2, 42216, Note_on_c, 0, 79, 0
2, 42216, Note_on_c, 0, 76, 75
2, 42228, Note_on_c, 0, 76, 0
2, 42228, Note_on_c, 0, 72, 75
2, 42240, Note_on_c, 0, 72, 0
2, 42240, Note_on_c, 0, 70, 75
2, 42336, Note_on_c, 0, 70, 0
2, 42336, Note_on_c, 0, 69, 65
2, 42356, Note_on_c, 0, 69, 0
2, 42384, Note_on_c, 0, 77, 60
2, 42396, Note_on_c, 0, 77, 0
2, 42396, Note_on_c, 0, 72, 58
2, 42408, Note_on_c, 0, 72, 0
2, 42408, Note_on_c, 0, 69, 56
2, 42420, Note_on_c, 0, 69, 0
2, 42420, Note_on_c, 0, 65, 54
2, 42432, Note_on_c, 0, 65, 0
2, 42432, Note_on_c, 0, 63, 68
2, 42647, Note_on_c, 0, 63, 0
2, 42648, Note_on_c, 0, 61, 52
2, 42672, Note_on_c, 0, 61, 0
2, 42672, Note_on_c, 0, 62, 53
2, 42682, Note_on_c, 0, 62, 0
2, 42696, Note_on_c, 0, 66, 54
2, 42720, Note_on_c, 0, 66, 0
2, 42720, Note_on_c, 0, 67, 55
2, 42730, Note_on_c, 0, 67, 0
2, 42744, Note_on_c, 0, 69, 56
2, 42768, Note_on_c, 0, 69, 0
2, 42768, Note_on_c, 0, 70, 57
2, 42778, Note_on_c, 0, 70, 0
2, 42792, Note_on_c, 0, 74, 58
2, 42815, Note_on_c, 0, 74, 0
2, 42816, Note_on_c, 0, 69, 76
2, 42816, Note_on_c, 0, 65, 76
2, 42864, Note_on_c, 0, 69, 0
2, 42864, Note_on_c, 0, 65, 0
2, 42864, Note_on_c, 0, 67, 56
2, 42864, Note_on_c, 0, 64, 56
2, 42909, Note_on_c, 0, 67, 0
2, 42909, Note_on_c, 0, 64, 0
2, 43020, Note_on_c, 0, 72, 84
2, 43032, Note_on_c, 0, 72, 0
2, 43032, Note_on_c, 0, 74, 84
2, 43044, Note_on_c, 0, 74, 0
2, 43044, Note_on_c, 0, 72, 84
2, 43056, Note_on_c, 0, 72, 0
2, 43056, Note_on_c, 0, 77, 84
2, 43068, Note_on_c, 0, 77, 0
2, 43068, Note_on_c, 0, 76, 84
2, 43080, Note_on_c, 0, 76, 0
2, 43080, Note_on_c, 0, 74, 84
2, 43092, Note_on_c, 0, 74, 0
2, 43092, Note_on_c, 0, 72, 84
2, 43104, Note_on_c, 0, 72, 0
2, 43104, Note_on_c, 0, 70, 84
2, 43116, Note_on_c, 0, 70, 0
2, 43116, Note_on_c, 0, 69, 84
2, 43128, Note_on_c, 0, 69, 0
2, 43128, Note_on_c, 0, 67, 84
2, 43140, Note_on_c, 0, 67, 0
2, 43140, Note_on_c, 0, 65, 84
2, 43152, Note_on_c, 0, 65, 0
2, 43152, Note_on_c, 0, 64, 84
2, 43164, Note_on_c, 0, 64, 0
2, 43164, Note_on_c, 0, 65, 84
2, 43176, Note_on_c, 0, 65, 0
2, 43176, Note_on_c, 0, 67, 84
2, 43188, Note_on_c, 0, 67, 0
2, 43188, Note_on_c, 0, 65, 84
2, 43200, Note_on_c, 0, 65, 0
2, 43200, Note_on_c, 0, 62, 84
2, 43212, Note_on_c, 0, 62, 0
2, 43212, Note_on_c, 0, 65, 84
2, 43224, Note_on_c, 0, 65, 0
2, 43224, Note_on_c, 0, 67, 84
2, 43236, Note_on_c, 0, 67, 0
2, 43236, Note_on_c, 0, 65, 84
2, 43248, Note_on_c, 0, 65, 0
2, 43248, Note_on_c, 0, 60, 84
2, 43260, Note_on_c, 0, 60, 0
2, 43260, Note_on_c, 0, 65, 84
2, 43272, Note_on_c, 0, 65, 0
2, 43272, Note_on_c, 0, 67, 84
2, 43284, Note_on_c, 0, 67, 0
2, 43284, Note_on_c, 0, 65, 84
2, 43296, Note_on_c, 0, 65, 0
2, 43296, Note_on_c, 0, 58, 84
2, 43306, Note_on_c, 0, 58, 0
2, 43320, Note_on_c, 0, 70, 84
2, 43330, Note_on_c, 0, 70, 0
2, 43368, Note_on_c, 0, 70, 84
2, 43378, Note_on_c, 0, 70, 0
2, 43392, Note_on_c, 0, 69, 84
2, 43404, Note_on_c, 0, 69, 0
2, 43404, Note_on_c, 0, 72, 84
2, 43416, Note_on_c, 0, 72, 0
2, 43416, Note_on_c, 0, 74, 84
2, 43428, Note_on_c, 0, 74, 0
2, 43428, Note_on_c, 0, 72, 84
2, 43440, Note_on_c, 0, 72, 0
2, 43440, Note_on_c, 0, 77, 84
2, 43452, Note_on_c, 0, 77, 0
2, 43452, Note_on_c, 0, 76, 84
2, 43464, Note_on_c, 0, 76, 0
2, 43464, Note_on_c, 0, 74, 84
2, 43476, Note_on_c, 0, 74, 0
2, 43476, Note_on_c, 0, 72, 84
2, 43488, Note_on_c, 0, 72, 0
2, 43488, Note_on_c, 0, 70, 84
2, 43500, Note_on_c, 0, 70, 0
2, 43500, Note_on_c, 0, 69, 84
2, 43512, Note_on_c, 0, 69, 0
2, 43512, Note_on_c, 0, 67, 84
2, 43524, Note_on_c, 0, 67, 0
2, 43524, Note_on_c, 0, 65, 84
2, 43536, Note_on_c, 0, 65, 0
2, 43536, Note_on_c, 0, 64, 84
2, 43548, Note_on_c, 0, 64, 0
2, 43548, Note_on_c, 0, 65, 84
2, 43560, Note_on_c, 0, 65, 0
2, 43560, Note_on_c, 0, 67, 84
2, 43572, Note_on_c, 0, 67, 0
2, 43572, Note_on_c, 0, 65, 84
2, 43584, Note_on_c, 0, 65, 0
2, 43584, Note_on_c, 0, 62, 84
2, 43596, Note_on_c, 0, 62, 0
2, 43596, Note_on_c, 0, 65, 84
2, 43608, Note_on_c, 0, 65, 0
2, 43608, Note_on_c, 0, 67, 84
2, 43620, Note_on_c, 0, 67, 0
2, 43620, Note_on_c, 0, 65, 84
2, 43632, Note_on_c, 0, 65, 0
2, 43632, Note_on_c, 0, 60, 84
2, 43644, Note_on_c, 0, 60, 0
2, 43644, Note_on_c, 0, 65, 84
2, 43656, Note_on_c, 0, 65, 0
2, 43656, Note_on_c, 0, 67, 84
2, 43668, Note_on_c, 0, 67, 0
2, 43668, Note_on_c, 0, 65, 84
2, 43680, Note_on_c, 0, 65, 0
2, 43680, Note_on_c, 0, 58, 84
2, 43690, Note_on_c, 0, 58, 0
2, 43704, Note_on_c, 0, 70, 84
2, 43714, Note_on_c, 0, 70, 0
2, 43752, Note_on_c, 0, 70, 84
2, 43762, Note_on_c, 0, 70, 0
2, 43776, Note_on_c, 0, 69, 84
2, 43788, Note_on_c, 0, 69, 0
2, 43788, Note_on_c, 0, 74, 84
2, 43800, Note_on_c, 0, 74, 0
2, 43800, Note_on_c, 0, 76, 84
2, 43812, Note_on_c, 0, 76, 0
2, 43812, Note_on_c, 0, 74, 84
2, 43824, Note_on_c, 0, 74, 0
2, 43824, Note_on_c, 0, 81, 84
2, 43836, Note_on_c, 0, 81, 0
2, 43836, Note_on_c, 0, 77, 84
2, 43848, Note_on_c, 0, 77, 0
2, 43848, Note_on_c, 0, 76, 84
2, 43860, Note_on_c, 0, 76, 0
2, 43860, Note_on_c, 0, 74, 84
2, 43872, Note_on_c, 0, 74, 0
2, 43872, Note_on_c, 0, 79, 84
2, 43884, Note_on_c, 0, 79, 0
2, 43884, Note_on_c, 0, 76, 84
2, 43896, Note_on_c, 0, 76, 0
2, 43896, Note_on_c, 0, 74, 84
2, 43908, Note_on_c, 0, 74, 0
2, 43908, Note_on_c, 0, 72, 84
2, 43920, Note_on_c, 0, 72, 0
2, 43920, Note_on_c, 0, 71, 84
2, 43932, Note_on_c, 0, 71, 0
2, 43932, Note_on_c, 0, 72, 84
2, 43944, Note_on_c, 0, 72, 0
2, 43944, Note_on_c, 0, 71, 84
2, 43956, Note_on_c, 0, 71, 0
2, 43956, Note_on_c, 0, 72, 84
2, 43968, Note_on_c, 0, 72, 0
2, 43968, Note_on_c, 0, 65, 84
2, 43980, Note_on_c, 0, 65, 0
2, 43980, Note_on_c, 0, 70, 84
2, 43992, Note_on_c, 0, 70, 0
2, 43992, Note_on_c, 0, 72, 84
2, 44004, Note_on_c, 0, 72, 0
2, 44004, Note_on_c, 0, 70, 84
2, 44016, Note_on_c, 0, 70, 0
2, 44016, Note_on_c, 0, 77, 84
2, 44028, Note_on_c, 0, 77, 0
2, 44028, Note_on_c, 0, 74, 84
2, 44040, Note_on_c, 0, 74, 0
2, 44040, Note_on_c, 0, 72, 84
2, 44052, Note_on_c, 0, 72, 0
2, 44052, Note_on_c, 0, 70, 84
2, 44064, Note_on_c, 0, 70, 0
2, 44064, Note_on_c, 0, 76, 84
2, 44076, Note_on_c, 0, 76, 0
2, 44076, Note_on_c, 0, 72, 84
2, 44088, Note_on_c, 0, 72, 0
2, 44088, Note_on_c, 0, 70, 84
2, 44100, Note_on_c, 0, 70, 0
2, 44100, Note_on_c, 0, 69, 84
2, 44112, Note_on_c, 0, 69, 0
2, 44112, Note_on_c, 0, 68, 84
2, 44124, Note_on_c, 0, 68, 0
2, 44124, Note_on_c, 0, 69, 84
2, 44136, Note_on_c, 0, 69, 0
2, 44136, Note_on_c, 0, 68, 84
2, 44148, Note_on_c, 0, 68, 0
2, 44148, Note_on_c, 0, 69, 84
2, 44160, Note_on_c, 0, 69, 0
2, 44160, Note_on_c, 0, 62, 84
2, 44172, Note_on_c, 0, 62, 0
2, 44172, Note_on_c, 0, 67, 84
2, 44184, Note_on_c, 0, 67, 0
2, 44184, Note_on_c, 0, 69, 84
2, 44196, Note_on_c, 0, 69, 0
2, 44196, Note_on_c, 0, 67, 84
2, 44208, Note_on_c, 0, 67, 0
2, 44208, Note_on_c, 0, 74, 84
2, 44220, Note_on_c, 0, 74, 0
2, 44220, Note_on_c, 0, 70, 84
2, 44232, Note_on_c, 0, 70, 0
2, 44232, Note_on_c, 0, 69, 84
2, 44244, Note_on_c, 0, 69, 0
2, 44244, Note_on_c, 0, 67, 84
2, 44256, Note_on_c, 0, 67, 0
2, 44256, Note_on_c, 0, 72, 84
2, 44268, Note_on_c, 0, 72, 0
2, 44268, Note_on_c, 0, 69, 84
2, 44280, Note_on_c, 0, 69, 0
2, 44280, Note_on_c, 0, 67, 84
2, 44292, Note_on_c, 0, 67, 0
2, 44292, Note_on_c, 0, 65, 84
2, 44304, Note_on_c, 0, 65, 0
2, 44304, Note_on_c, 0, 64, 84
2, 44316, Note_on_c, 0, 64, 0
2, 44316, Note_on_c, 0, 65, 84
2, 44328, Note_on_c, 0, 65, 0
2, 44328, Note_on_c, 0, 64, 84
2, 44340, Note_on_c, 0, 64, 0
2, 44340, Note_on_c, 0, 65, 84
2, 44352, Note_on_c, 0, 65, 0
2, 44352, Control_c, 0, 64, 127
2, 44352, Note_on_c, 0, 55, 75
2, 44364, Note_on_c, 0, 55, 0
2, 44364, Note_on_c, 0, 59, 75
2, 44376, Note_on_c, 0, 59, 0
2, 44376, Note_on_c, 0, 62, 75
2, 44388, Note_on_c, 0, 62, 0
2, 44388, Note_on_c, 0, 65, 75
2, 44400, Note_on_c, 0, 65, 0
2, 44400, Note_on_c, 0, 71, 75
2, 44412, Note_on_c, 0, 71, 0
2, 44412, Note_on_c, 0, 65, 75
2, 44424, Note_on_c, 0, 65, 0
2, 44424, Note_on_c, 0, 62, 75
2, 44436, Note_on_c, 0, 62, 0
2, 44436, Note_on_c, 0, 59, 75
2, 44448, Note_on_c, 0, 59, 0
2, 44448, Note_on_c, 0, 55, 75
2, 44460, Note_on_c, 0, 55, 0
2, 44460, Note_on_c, 0, 59, 75
2, 44472, Note_on_c, 0, 59, 0
2, 44472, Note_on_c, 0, 62, 75
2, 44484, Note_on_c, 0, 62, 0
2, 44484, Note_on_c, 0, 65, 75
2, 44496, Note_on_c, 0, 65, 0
2, 44496, Note_on_c, 0, 71, 75
2, 44508, Note_on_c, 0, 71, 0
2, 44508, Note_on_c, 0, 65, 75
2, 44520, Note_on_c, 0, 65, 0
2, 44520, Note_on_c, 0, 62, 75
2, 44532, Note_on_c, 0, 62, 0
2, 44532, Control_c, 0, 64, 0
2, 44532, Note_on_c, 0, 55, 75
2, 44544, Note_on_c, 0, 55, 0
2, 44688, Note_on_c, 0, 70, 84
2, 44700, Note_on_c, 0, 70, 0
2, 44700, Note_on_c, 0, 67, 84
2, 44712, Note_on_c, 0, 67, 0
2, 44712, Note_on_c, 0, 70, 84
2, 44724, Note_on_c, 0, 70, 0
2, 44724, Note_on_c, 0, 67, 84
2, 44736, Note_on_c, 0, 67, 0
2, 44736, Note_on_c, 0, 64, 84
2, 44781, Note_on_c, 0, 64, 0
2, 44784, Note_on_c, 0, 76, 84
2, 44784, Note_on_c, 0, 70, 84
2, 44804, Note_on_c, 0, 76, 0
2, 44804, Note_on_c, 0, 70, 0
2, 44832, Note_on_c, 0, 79, 84
2, 44832, Note_on_c, 0, 76, 84
2, 44852, Note_on_c, 0, 79, 0
2, 44852, Note_on_c, 0, 76, 0
2, 44880, Note_on_c, 0, 82, 84
2, 44880, Note_on_c, 0, 79, 84
2, 44900, Note_on_c, 0, 82, 0
2, 44900, Note_on_c, 0, 79, 0
2, 44928, Note_on_c, 0, 81, 84
2, 44928, Note_on_c, 0, 77, 84
2, 44967, Note_on_c, 0, 81, 0
2, 44967, Note_on_c, 0, 77, 0
2, 45072, Note_on_c, 0, 72, 84
2, 45084, Note_on_c, 0, 72, 0
2, 45084, Note_on_c, 0, 69, 84
2, 45096, Note_on_c, 0, 69, 0
2, 45096, Note_on_c, 0, 72, 84
2, 45108, Note_on_c, 0, 72, 0
2, 45108, Note_on_c, 0, 69, 84
2, 45120, Note_on_c, 0, 69, 0
2, 45120, Note_on_c, 0, 65, 84
2, 45165, Note_on_c, 0, 65, 0
2, 45168, Note_on_c, 0, 77, 84
2, 45168, Note_on_c, 0, 69, 84
2, 45188, Note_on_c, 0, 77, 0
2, 45188, Note_on_c, 0, 69, 0
2, 45216, Note_on_c, 0, 81, 84
2, 45216, Note_on_c, 0, 77, 84
2, 45236, Note_on_c, 0, 81, 0
2, 45236, Note_on_c, 0, 77, 0
2, 45264, Note_on_c, 0, 84, 84
2, 45264, Note_on_c, 0, 81, 84
2, 45284, Note_on_c, 0, 84, 0
2, 45284, Note_on_c, 0, 81, 0
2, 45312, Note_on_c, 0, 82, 84
2, 45312, Note_on_c, 0, 79, 84
2, 45351, Note_on_c, 0, 82, 0
2, 45351, Note_on_c, 0, 79, 0
2, 45456, Note_on_c, 0, 70, 84
2, 45468, Note_on_c, 0, 70, 0
2, 45468, Note_on_c, 0, 67, 84
2, 45480, Note_on_c, 0, 67, 0
2, 45480, Note_on_c, 0, 70, 84
2, 45492, Note_on_c, 0, 70, 0
2, 45492, Note_on_c, 0, 67, 84
2, 45504, Note_on_c, 0, 67, 0
2, 45504, Note_on_c, 0, 64, 84
2, 45549, Note_on_c, 0, 64, 0
2, 45552, Note_on_c, 0, 76, 84
2, 45552, Note_on_c, 0, 70, 84
2, 45572, Note_on_c, 0, 76, 0
2, 45572, Note_on_c, 0, 70, 0
2, 45600, Note_on_c, 0, 79, 84
2, 45600, Note_on_c, 0, 76, 84
2, 45620, Note_on_c, 0, 79, 0
2, 45620, Note_on_c, 0, 76, 0
2, 45648, Note_on_c, 0, 82, 84
2, 45648, Note_on_c, 0, 79, 84
2, 45668, Note_on_c, 0, 82, 0
2, 45668, Note_on_c, 0, 79, 0
2, 45696, Note_on_c, 0, 81, 84
2, 45708, Note_on_c, 0, 81, 0
2, 45708, Note_on_c, 0, 82, 84
2, 45720, Note_on_c, 0, 82, 0
2, 45720, Note_on_c, 0, 84, 84
2, 45732, Note_on_c, 0, 84, 0
2, 45732, Note_on_c, 0, 82, 84
2, 45744, Note_on_c, 0, 82, 0
2, 45744, Note_on_c, 0, 81, 84
2, 45756, Note_on_c, 0, 81, 0
2, 45756, Note_on_c, 0, 79, 84
2, 45768, Note_on_c, 0, 79, 0
2, 45768, Note_on_c, 0, 77, 84
2, 45780, Note_on_c, 0, 77, 0
2, 45780, Note_on_c, 0, 76, 84
2, 45792, Note_on_c, 0, 76, 0
2, 45792, Note_on_c, 0, 77, 84
2, 45804, Note_on_c, 0, 77, 0
2, 45804, Note_on_c, 0, 79, 84
2, 45816, Note_on_c, 0, 79, 0
2, 45816, Note_on_c, 0, 81, 84
2, 45828, Note_on_c, 0, 81, 0
2, 45828, Note_on_c, 0, 79, 84
2, 45840, Note_on_c, 0, 79, 0
2, 45840, Note_on_c, 0, 77, 84
2, 45852, Note_on_c, 0, 77, 0
2, 45852, Note_on_c, 0, 76, 84
2, 45864, Note_on_c, 0, 76, 0
2, 45864, Note_on_c, 0, 74, 84
2, 45876, Note_on_c, 0, 74, 0
2, 45876, Note_on_c, 0, 73, 84
2, 45888, Note_on_c, 0, 73, 0
2, 45888, Note_on_c, 0, 74, 84
2, 45900, Note_on_c, 0, 74, 0
2, 45900, Note_on_c, 0, 76, 84
2, 45912, Note_on_c, 0, 76, 0
2, 45912, Note_on_c, 0, 77, 84
2, 45924, Note_on_c, 0, 77, 0
2, 45924, Note_on_c, 0, 76, 84
2, 45936, Note_on_c, 0, 76, 0
2, 45936, Note_on_c, 0, 74, 84
2, 45948, Note_on_c, 0, 74, 0
2, 45948, Note_on_c, 0, 72, 84
2, 45960, Note_on_c, 0, 72, 0
2, 45960, Note_on_c, 0, 70, 84
2, 45972, Note_on_c, 0, 70, 0
2, 45972, Note_on_c, 0, 69, 84
2, 45984, Note_on_c, 0, 69, 0
2, 45984, Note_on_c, 0, 70, 84
2, 45996, Note_on_c, 0, 70, 0
2, 45996, Note_on_c, 0, 72, 84
2, 46008, Note_on_c, 0, 72, 0
2, 46008, Note_on_c, 0, 74, 84
2, 46020, Note_on_c, 0, 74, 0
2, 46020, Note_on_c, 0, 72, 84
2, 46032, Note_on_c, 0, 72, 0
2, 46032, Note_on_c, 0, 70, 84
2, 46044, Note_on_c, 0, 70, 0
2, 46044, Note_on_c, 0, 69, 84
2, 46056, Note_on_c, 0, 69, 0
2, 46056, Note_on_c, 0, 67, 84
2, 46068, Note_on_c, 0, 67, 0
2, 46068, Note_on_c, 0, 66, 84
2, 46080, Note_on_c, 0, 66, 0
2, 46080, Note_on_c, 0, 67, 84
2, 46092, Note_on_c, 0, 67, 0
2, 46092, Note_on_c, 0, 70, 84
2, 46104, Note_on_c, 0, 70, 0
2, 46104, Note_on_c, 0, 74, 84
2, 46116, Note_on_c, 0, 74, 0
2, 46116, Note_on_c, 0, 72, 84
2, 46128, Note_on_c, 0, 72, 0
2, 46128, Note_on_c, 0, 70, 84
2, 46140, Note_on_c, 0, 70, 0
2, 46140, Note_on_c, 0, 69, 84
2, 46152, Note_on_c, 0, 69, 0
2, 46152, Note_on_c, 0, 67, 84
2, 46164, Note_on_c, 0, 67, 0
2, 46164, Note_on_c, 0, 65, 84
2, 46176, Note_on_c, 0, 65, 0
2, 46176, Note_on_c, 0, 64, 84
2, 46188, Note_on_c, 0, 64, 0
2, 46188, Note_on_c, 0, 65, 84
2, 46200, Note_on_c, 0, 65, 0
2, 46200, Note_on_c, 0, 67, 84
2, 46212, Note_on_c, 0, 67, 0
2, 46212, Note_on_c, 0, 65, 84
2, 46224, Note_on_c, 0, 65, 0
2, 46224, Note_on_c, 0, 64, 84
2, 46236, Note_on_c, 0, 64, 0
2, 46236, Note_on_c, 0, 62, 84
2, 46248, Note_on_c, 0, 62, 0
2, 46248, Note_on_c, 0, 60, 84
2, 46260, Note_on_c, 0, 60, 0
2, 46260, Note_on_c, 0, 58, 84
2, 46272, Note_on_c, 0, 58, 0
2, 46272, Note_on_c, 0, 57, 84
2, 46284, Note_on_c, 0, 57, 0
2, 46284, Note_on_c, 0, 65, 84
2, 46296, Note_on_c, 0, 65, 0
2, 46296, Note_on_c, 0, 64, 84
2, 46308, Note_on_c, 0, 64, 0
2, 46308, Note_on_c, 0, 65, 84
2, 46320, Note_on_c, 0, 65, 0
2, 46320, Note_on_c, 0, 69, 84
2, 46332, Note_on_c, 0, 69, 0
2, 46332, Note_on_c, 0, 65, 84
2, 46344, Note_on_c, 0, 65, 0
2, 46344, Note_on_c, 0, 64, 84
2, 46356, Note_on_c, 0, 64, 0
2, 46356, Note_on_c, 0, 65, 84
2, 46368, Note_on_c, 0, 65, 0
2, 46368, Note_on_c, 0, 60, 84
2, 46380, Note_on_c, 0, 60, 0
2, 46380, Note_on_c, 0, 65, 84
2, 46392, Note_on_c, 0, 65, 0
2, 46392, Note_on_c, 0, 64, 84
2, 46404, Note_on_c, 0, 64, 0
2, 46404, Note_on_c, 0, 65, 84
2, 46416, Note_on_c, 0, 65, 0
2, 46416, Note_on_c, 0, 62, 84
2, 46428, Note_on_c, 0, 62, 0
2, 46428, Note_on_c, 0, 65, 84
2, 46440, Note_on_c, 0, 65, 0
2, 46440, Note_on_c, 0, 64, 84
2, 46452, Note_on_c, 0, 64, 0
2, 46452, Note_on_c, 0, 65, 84
2, 46464, Note_on_c, 0, 65, 0
2, 46464, Note_on_c, 0, 60, 84
2, 46476, Note_on_c, 0, 60, 0
2, 46476, Note_on_c, 0, 65, 84
2, 46488, Note_on_c, 0, 65, 0
2, 46488, Note_on_c, 0, 64, 84
2, 46500, Note_on_c, 0, 64, 0
2, 46500, Note_on_c, 0, 65, 84
2, 46512, Note_on_c, 0, 65, 0
2, 46512, Note_on_c, 0, 69, 84
2, 46524, Note_on_c, 0, 69, 0
2, 46524, Note_on_c, 0, 65, 84
2, 46536, Note_on_c, 0, 65, 0
2, 46536, Note_on_c, 0, 64, 84
2, 46548, Note_on_c, 0, 64, 0
2, 46548, Note_on_c, 0, 65, 84
2, 46560, Note_on_c, 0, 65, 0
2, 46560, Note_on_c, 0, 72, 84
2, 46572, Note_on_c, 0, 72, 0
2, 46572, Note_on_c, 0, 65, 84
2, 46584, Note_on_c, 0, 65, 0
2, 46584, Note_on_c, 0, 64, 84
2, 46596, Note_on_c, 0, 64, 0
2, 46596, Note_on_c, 0, 65, 84
2, 46608, Note_on_c, 0, 65, 0
2, 46608, Note_on_c, 0, 74, 84
2, 46620, Note_on_c, 0, 74, 0
2, 46620, Note_on_c, 0, 65, 84
2, 46632, Note_on_c, 0, 65, 0
2, 46632, Note_on_c, 0, 64, 84
2, 46644, Note_on_c, 0, 64, 0
2, 46644, Note_on_c, 0, 65, 84
2, 46656, Note_on_c, 0, 65, 0
2, 46656, Note_on_c, 0, 72, 84
2, 46668, Note_on_c, 0, 72, 0
2, 46668, Note_on_c, 0, 65, 84
2, 46680, Note_on_c, 0, 65, 0
2, 46680, Note_on_c, 0, 64, 84
2, 46692, Note_on_c, 0, 64, 0
2, 46692, Note_on_c, 0, 65, 84
2, 46704, Note_on_c, 0, 65, 0
2, 46704, Note_on_c, 0, 69, 84
2, 46716, Note_on_c, 0, 69, 0
2, 46716, Note_on_c, 0, 65, 84
2, 46728, Note_on_c, 0, 65, 0
2, 46728, Note_on_c, 0, 64, 84
2, 46740, Note_on_c, 0, 64, 0
2, 46740, Note_on_c, 0, 65, 84
2, 46752, Note_on_c, 0, 65, 0
2, 46752, Note_on_c, 0, 60, 84
2, 46764, Note_on_c, 0, 60, 0
2, 46764, Note_on_c, 0, 65, 84
2, 46776, Note_on_c, 0, 65, 0
2, 46776, Note_on_c, 0, 64, 84
2, 46788, Note_on_c, 0, 64, 0
2, 46788, Note_on_c, 0, 65, 84
2, 46800, Note_on_c, 0, 65, 0
2, 46800, Note_on_c, 0, 62, 84
2, 46812, Note_on_c, 0, 62, 0
2, 46812, Note_on_c, 0, 65, 84
2, 46824, Note_on_c, 0, 65, 0
2, 46824, Note_on_c, 0, 64, 84
2, 46836, Note_on_c, 0, 64, 0
2, 46836, Note_on_c, 0, 65, 84
2, 46848, Note_on_c, 0, 65, 0
2, 46848, Note_on_c, 0, 60, 84
2, 46860, Note_on_c, 0, 60, 0
2, 46860, Note_on_c, 0, 65, 84
2, 46872, Note_on_c, 0, 65, 0
2, 46872, Note_on_c, 0, 64, 84
2, 46884, Note_on_c, 0, 64, 0
2, 46884, Note_on_c, 0, 65, 84
2, 46896, Note_on_c, 0, 65, 0
2, 46896, Note_on_c, 0, 69, 84
2, 46908, Note_on_c, 0, 69, 0
2, 46908, Note_on_c, 0, 65, 84
2, 46920, Note_on_c, 0, 65, 0
2, 46920, Note_on_c, 0, 64, 84
2, 46932, Note_on_c, 0, 64, 0
2, 46932, Note_on_c, 0, 65, 84
2, 46944, Note_on_c, 0, 65, 0
2, 46944, Note_on_c, 0, 72, 84
2, 46956, Note_on_c, 0, 72, 0
2, 46956, Note_on_c, 0, 65, 84
2, 46968, Note_on_c, 0, 65, 0
2, 46968, Note_on_c, 0, 64, 84
2, 46980, Note_on_c, 0, 64, 0
2, 46980, Note_on_c, 0, 65, 84
2, 46992, Note_on_c, 0, 65, 0
2, 46992, Note_on_c, 0, 74, 84
2, 47004, Note_on_c, 0, 74, 0
2, 47004, Note_on_c, 0, 65, 84
2, 47016, Note_on_c, 0, 65, 0
2, 47016, Note_on_c, 0, 64, 84
2, 47028, Note_on_c, 0, 64, 0
2, 47028, Note_on_c, 0, 65, 84
2, 47040, Note_on_c, 0, 65, 0
2, 47040, Note_on_c, 0, 72, 84
2, 47052, Note_on_c, 0, 72, 0
2, 47052, Note_on_c, 0, 65, 84
2, 47064, Note_on_c, 0, 65, 0
2, 47064, Note_on_c, 0, 64, 84
2, 47076, Note_on_c, 0, 64, 0
2, 47076, Note_on_c, 0, 65, 84
2, 47088, Note_on_c, 0, 65, 0
2, 47088, Note_on_c, 0, 74, 84
2, 47100, Note_on_c, 0, 74, 0
2, 47100, Note_on_c, 0, 65, 84
2, 47112, Note_on_c, 0, 65, 0
2, 47112, Note_on_c, 0, 64, 84
2, 47124, Note_on_c, 0, 64, 0
2, 47124, Note_on_c, 0, 65, 84
2, 47136, Note_on_c, 0, 65, 0
2, 47136, Note_on_c, 0, 72, 84
2, 47148, Note_on_c, 0, 72, 0
2, 47148, Note_on_c, 0, 65, 84
2, 47160, Note_on_c, 0, 65, 0
2, 47160, Note_on_c, 0, 64, 84
2, 47172, Note_on_c, 0, 64, 0
2, 47172, Note_on_c, 0, 65, 84
2, 47184, Note_on_c, 0, 65, 0
2, 47184, Note_on_c, 0, 74, 84
2, 47196, Note_on_c, 0, 74, 0
2, 47196, Note_on_c, 0, 65, 84
2, 47208, Note_on_c, 0, 65, 0
2, 47208, Note_on_c, 0, 64, 84
2, 47220, Note_on_c, 0, 64, 0
2, 47220, Note_on_c, 0, 65, 84
2, 47232, Note_on_c, 0, 65, 0
2, 47232, Note_on_c, 0, 72, 84
2, 47244, Note_on_c, 0, 72, 0
2, 47244, Note_on_c, 0, 65, 84
2, 47256, Note_on_c, 0, 65, 0
2, 47256, Note_on_c, 0, 64, 84
2, 47268, Note_on_c, 0, 64, 0
2, 47268, Note_on_c, 0, 65, 84
2, 47280, Note_on_c, 0, 65, 0
2, 47280, Note_on_c, 0, 72, 84
2, 47292, Note_on_c, 0, 72, 0
2, 47292, Note_on_c, 0, 65, 84
2, 47304, Note_on_c, 0, 65, 0
2, 47304, Note_on_c, 0, 64, 84
2, 47316, Note_on_c, 0, 64, 0
2, 47316, Note_on_c, 0, 65, 84
2, 47328, Note_on_c, 0, 65, 0
2, 47328, Note_on_c, 0, 72, 84
2, 47340, Note_on_c, 0, 72, 0
2, 47340, Note_on_c, 0, 65, 84
2, 47352, Note_on_c, 0, 65, 0
2, 47352, Note_on_c, 0, 64, 84
2, 47364, Note_on_c, 0, 64, 0
2, 47364, Note_on_c, 0, 65, 84
2, 47376, Note_on_c, 0, 65, 0
2, 47376, Note_on_c, 0, 72, 84
2, 47388, Note_on_c, 0, 72, 0
2, 47388, Note_on_c, 0, 65, 84
2, 47400, Note_on_c, 0, 65, 0
2, 47400, Note_on_c, 0, 64, 84
2, 47412, Note_on_c, 0, 64, 0
2, 47412, Note_on_c, 0, 65, 84
2, 47424, Note_on_c, 0, 65, 0
2, 47424, Note_on_c, 0, 71, 84
2, 47436, Note_on_c, 0, 71, 0
2, 47436, Note_on_c, 0, 65, 84
2, 47448, Note_on_c, 0, 65, 0
2, 47448, Note_on_c, 0, 64, 84
2, 47460, Note_on_c, 0, 64, 0
2, 47460, Note_on_c, 0, 65, 84
2, 47472, Note_on_c, 0, 65, 0
2, 47472, Note_on_c, 0, 71, 84
2, 47484, Note_on_c, 0, 71, 0
2, 47484, Note_on_c, 0, 65, 84
2, 47496, Note_on_c, 0, 65, 0
2, 47496, Note_on_c, 0, 64, 84
2, 47508, Note_on_c, 0, 64, 0
2, 47508, Note_on_c, 0, 65, 84
2, 47520, Note_on_c, 0, 65, 0
2, 47520, Note_on_c, 0, 70, 84
2, 47532, Note_on_c, 0, 70, 0
2, 47532, Note_on_c, 0, 67, 84
2, 47544, Note_on_c, 0, 67, 0
2, 47544, Note_on_c, 0, 66, 84
2, 47556, Note_on_c, 0, 66, 0
2, 47556, Note_on_c, 0, 67, 84
2, 47568, Note_on_c, 0, 67, 0
2, 47568, Note_on_c, 0, 70, 84
2, 47580, Note_on_c, 0, 70, 0
2, 47580, Note_on_c, 0, 67, 84
2, 47592, Note_on_c, 0, 67, 0
2, 47592, Note_on_c, 0, 66, 84
2, 47604, Note_on_c, 0, 66, 0
2, 47604, Note_on_c, 0, 67, 84
2, 47616, Note_on_c, 0, 67, 0
2, 47616, Note_on_c, 0, 69, 84
2, 47639, Note_on_c, 0, 69, 0
2, 47640, Note_on_c, 0, 77, 84
2, 47663, Note_on_c, 0, 77, 0
2, 47664, Note_on_c, 0, 79, 84
2, 47676, Note_on_c, 0, 79, 0
2, 47676, Note_on_c, 0, 77, 84
2, 47688, Note_on_c, 0, 77, 0
2, 47688, Note_on_c, 0, 76, 84
2, 47700, Note_on_c, 0, 76, 0
2, 47700, Note_on_c, 0, 74, 84
2, 47712, Note_on_c, 0, 74, 0
2, 47712, Note_on_c, 0, 74, 84
2, 47724, Note_on_c, 0, 74, 0
2, 47724, Note_on_c, 0, 72, 84
2, 47736, Note_on_c, 0, 72, 0
2, 47736, Note_on_c, 0, 70, 84
2, 47748, Note_on_c, 0, 70, 0
2, 47748, Note_on_c, 0, 69, 84
2, 47760, Note_on_c, 0, 69, 0
2, 47760, Note_on_c, 0, 69, 84
2, 47772, Note_on_c, 0, 69, 0
2, 47772, Note_on_c, 0, 67, 84
2, 47784, Note_on_c, 0, 67, 0
2, 47784, Note_on_c, 0, 65, 84
2, 47796, Note_on_c, 0, 65, 0
2, 47796, Note_on_c, 0, 64, 84
2, 47808, Note_on_c, 0, 64, 0
2, 47808, Note_on_c, 0, 62, 84
2, 47831, Note_on_c, 0, 62, 0
2, 47832, Note_on_c, 0, 73, 87
2, 47844, Note_on_c, 0, 73, 0
2, 47844, Note_on_c, 0, 74, 88
2, 47856, Note_on_c, 0, 74, 0
2, 47856, Note_on_c, 0, 72, 90
2, 47868, Note_on_c, 0, 72, 0
2, 47868, Note_on_c, 0, 70, 88
2, 47880, Note_on_c, 0, 70, 0
2, 47880, Note_on_c, 0, 69, 87
2, 47892, Note_on_c, 0, 69, 0
2, 47892, Note_on_c, 0, 67, 85
2, 47904, Note_on_c, 0, 67, 0
2, 47904, Note_on_c, 0, 65, 84
2, 47949, Note_on_c, 0, 65, 0
2, 47952, Note_on_c, 0, 64, 84
2, 47962, Note_on_c, 0, 64, 0
2, 47962, Note_on_c, 0, 65, 84
2, 47972, Note_on_c, 0, 65, 0
2, 47972, Note_on_c, 0, 64, 84
2, 47982, Note_on_c, 0, 64, 0
2, 47982, Note_on_c, 0, 62, 84
2, 47991, Note_on_c, 0, 62, 0
2, 47991, Note_on_c, 0, 64, 84
2, 48000, Note_on_c, 0, 64, 0
2, 48000, Note_on_c, 0, 65, 84
2, 48012, Note_on_c, 0, 65, 0
2, 48012, Note_on_c, 0, 77, 84
2, 48024, Note_on_c, 0, 77, 0
2, 48024, Note_on_c, 0, 76, 84
2, 48036, Note_on_c, 0, 76, 0
2, 48036, Note_on_c, 0, 77, 84
2, 48048, Note_on_c, 0, 77, 0
2, 48048, Note_on_c, 0, 79, 84
2, 48060, Note_on_c, 0, 79, 0
2, 48060, Note_on_c, 0, 77, 84
2, 48072, Note_on_c, 0, 77, 0
2, 48072, Note_on_c, 0, 76, 84
2, 48084, Note_on_c, 0, 76, 0
2, 48084, Note_on_c, 0, 74, 84
2, 48096, Note_on_c, 0, 74, 0
2, 48096, Note_on_c, 0, 74, 84
2, 48108, Note_on_c, 0, 74, 0
2, 48108, Note_on_c, 0, 72, 84
2, 48120, Note_on_c, 0, 72, 0
2, 48120, Note_on_c, 0, 70, 84
2, 48132, Note_on_c, 0, 70, 0
2, 48132, Note_on_c, 0, 69, 84
2, 48144, Note_on_c, 0, 69, 0
2, 48144, Note_on_c, 0, 69, 84
2, 48156, Note_on_c, 0, 69, 0
2, 48156, Note_on_c, 0, 67, 84
2, 48168, Note_on_c, 0, 67, 0
2, 48168, Note_on_c, 0, 65, 84
2, 48180, Note_on_c, 0, 65, 0
2, 48180, Note_on_c, 0, 64, 84
2, 48192, Note_on_c, 0, 64, 0
2, 48192, Note_on_c, 0, 62, 84
2, 48215, Note_on_c, 0, 62, 0
2, 48216, Note_on_c, 0, 73, 87
2, 48228, Note_on_c, 0, 73, 0
2, 48228, Note_on_c, 0, 74, 88
2, 48240, Note_on_c, 0, 74, 0
2, 48240, Note_on_c, 0, 72, 90
2, 48252, Note_on_c, 0, 72, 0
2, 48252, Note_on_c, 0, 70, 88
2, 48264, Note_on_c, 0, 70, 0
2, 48264, Note_on_c, 0, 69, 87
2, 48276, Note_on_c, 0, 69, 0
2, 48276, Note_on_c, 0, 67, 85
2, 48288, Note_on_c, 0, 67, 0
2, 48288, Note_on_c, 0, 65, 84
2, 48333, Note_on_c, 0, 65, 0
2, 48336, Note_on_c, 0, 64, 84
2, 48346, Note_on_c, 0, 64, 0
2, 48346, Note_on_c, 0, 65, 84
2, 48356, Note_on_c, 0, 65, 0
2, 48356, Note_on_c, 0, 64, 84
2, 48366, Note_on_c, 0, 64, 0
2, 48366, Note_on_c, 0, 62, 84
2, 48375, Note_on_c, 0, 62, 0
2, 48375, Note_on_c, 0, 64, 84
2, 48384, Note_on_c, 0, 64, 0
2, 48384, Note_on_c, 0, 65, 84
2, 48404, Note_on_c, 0, 65, 0
2, 48432, Note_on_c, 0, 62, 84
2, 48432, Note_on_c, 0, 58, 84
2, 48452, Note_on_c, 0, 62, 0
2, 48452, Note_on_c, 0, 58, 0
2, 48480, Note_on_c, 0, 60, 84
2, 48480, Note_on_c, 0, 57, 84
2, 48500, Note_on_c, 0, 60, 0
2, 48500, Note_on_c, 0, 57, 0
2, 48528, Note_on_c, 0, 64, 84
2, 48528, Note_on_c, 0, 58, 84
2, 48528, Note_on_c, 0, 55, 84
2, 48548, Note_on_c, 0, 64, 0
2, 48548, Note_on_c, 0, 58, 0
2, 48548, Note_on_c, 0, 55, 0
2, 48576, Note_on_c, 0, 65, 84
2, 48576, Note_on_c, 0, 60, 84
2, 48576, Note_on_c, 0, 57, 84
2, 48596, Note_on_c, 0, 65, 0
2, 48596, Note_on_c, 0, 60, 0
2, 48596, Note_on_c, 0, 57, 0
2, 48624, Note_on_c, 0, 74, 84
2, 48624, Note_on_c, 0, 70, 84
2, 48644, Note_on_c, 0, 74, 0
2, 48644, Note_on_c, 0, 70, 0
2, 48672, Note_on_c, 0, 72, 84
2, 48672, Note_on_c, 0, 69, 84
2, 48692, Note_on_c, 0, 72, 0
2, 48692, Note_on_c, 0, 69, 0
2, 48720, Note_on_c, 0, 76, 84
2, 48720, Note_on_c, 0, 70, 84
2, 48720, Note_on_c, 0, 67, 84
2, 48740, Note_on_c, 0, 76, 0
2, 48740, Note_on_c, 0, 70, 0
2, 48740, Note_on_c, 0, 67, 0
2, 48768, Note_on_c, 0, 69, 84
2, 48776, Note_on_c, 0, 72, 84
2, 48784, Note_on_c, 0, 77, 84
2, 48861, Note_on_c, 0, 77, 0
2, 48861, Note_on_c, 0, 72, 0
2, 48861, Note_on_c, 0, 69, 0
2, 48960, End_track
3, 0, Start_track
3, 0, Program_c, 0, 0
3, 0, Control_c, 0, 7, 127
3, 0, Control_c, 0, 10, 64
3, 23136, Control_c, 0, 64, 127
3, 23136, Note_on_c, 0, 62, 64
3, 23136, Note_on_c, 0, 57, 64
3, 23181, Note_on_c, 0, 62, 0
3, 23181, Note_on_c, 0, 57, 0
3, 23184, Note_on_c, 0, 61, 64
3, 23184, Note_on_c, 0, 57, 64
3, 23229, Note_on_c, 0, 61, 0
3, 23229, Note_on_c, 0, 57, 0
3, 23232, Control_c, 0, 64, 0
3, 23520, Control_c, 0, 64, 127
3, 23520, Note_on_c, 0, 62, 64
3, 23520, Note_on_c, 0, 57, 64
3, 23565, Note_on_c, 0, 62, 0
3, 23565, Note_on_c, 0, 57, 0
3, 23568, Note_on_c, 0, 61, 64
3, 23568, Note_on_c, 0, 57, 64
3, 23613, Note_on_c, 0, 61, 0
3, 23613, Note_on_c, 0, 57, 0
3, 23616, Control_c, 0, 64, 0
3, 38688, Control_c, 0, 64, 127
3, 38688, Note_on_c, 0, 62, 64
3, 38688, Note_on_c, 0, 57, 64
3, 38733, Note_on_c, 0, 62, 0
3, 38733, Note_on_c, 0, 57, 0
3, 38736, Note_on_c, 0, 61, 64
3, 38736, Note_on_c, 0, 57, 64
3, 38781, Note_on_c, 0, 61, 0
3, 38781, Note_on_c, 0, 57, 0
3, 38784, Control_c, 0, 64, 0
3, 39072, Control_c, 0, 64, 127
3, 39072, Note_on_c, 0, 62, 64
3, 39072, Note_on_c, 0, 57, 64
3, 39117, Note_on_c, 0, 62, 0
3, 39117, Note_on_c, 0, 57, 0
3, 39120, Note_on_c, 0, 61, 64
3, 39120, Note_on_c, 0, 57, 64
3, 39165, Note_on_c, 0, 61, 0
3, 39165, Note_on_c, 0, 57, 0
3, 39168, Control_c, 0, 64, 0
3, 48960, End_track
4, 0, Start_track
4, 0, Program_c, 1, 0
4, 0, Control_c, 1, 7, 127
4, 0, Control_c, 1, 10, 64
4, 192, Note_on_c, 1, 57, 75
4, 192, Note_on_c, 1, 53, 75
4, 237, Note_on_c, 1, 57, 0
4, 237, Note_on_c, 1, 53, 0
4, 288, Note_on_c, 1, 58, 75
4, 288, Note_on_c, 1, 48, 75
4, 333, Note_on_c, 1, 58, 0
4, 333, Note_on_c, 1, 48, 0
4, 384, Note_on_c, 1, 57, 75
4, 384, Note_on_c, 1, 53, 75
4, 429, Note_on_c, 1, 57, 0
4, 429, Note_on_c, 1, 53, 0
4, 624, Note_on_c, 1, 65, 75
4, 669, Note_on_c, 1, 65, 0
4, 672, Note_on_c, 1, 67, 75
4, 717, Note_on_c, 1, 67, 0
4, 720, Note_on_c, 1, 60, 75
4, 765, Note_on_c, 1, 60, 0
4, 768, Note_on_c, 1, 65, 75
4, 813, Note_on_c, 1, 65, 0
4, 816, Note_on_c, 1, 60, 75
4, 861, Note_on_c, 1, 60, 0
4, 864, Note_on_c, 1, 53, 75
4, 909, Note_on_c, 1, 53, 0
4, 960, Note_on_c, 1, 57, 75
4, 960, Note_on_c, 1, 53, 75
4, 1005, Note_on_c, 1, 57, 0
4, 1005, Note_on_c, 1, 53, 0
4, 1056, Note_on_c, 1, 58, 75
4, 1056, Note_on_c, 1, 48, 75
4, 1101, Note_on_c, 1, 58, 0
4, 1101, Note_on_c, 1, 48, 0
4, 1152, Note_on_c, 1, 57, 75
4, 1152, Note_on_c, 1, 53, 75
4, 1197, Note_on_c, 1, 57, 0
4, 1197, Note_on_c, 1, 53, 0
4, 1200, Note_on_c, 1, 70, 75
4, 1245, Note_on_c, 1, 70, 0
4, 1248, Note_on_c, 1, 69, 75
4, 1293, Note_on_c, 1, 69, 0
4, 1392, Note_on_c, 1, 65, 75
4, 1440, Note_on_c, 1, 65, 0
4, 1440, Note_on_c, 1, 67, 75
4, 1487, Note_on_c, 1, 67, 0
4, 1584, Note_on_c, 1, 64, 70
4, 1584, Note_on_c, 1, 60, 70
4, 1632, Note_on_c, 1, 64, 0
4, 1632, Note_on_c, 1, 60, 0
4, 1632, Note_on_c, 1, 65, 65
4, 1632, Note_on_c, 1, 62, 65
4, 1679, Note_on_c, 1, 65, 0
4, 1679, Note_on_c, 1, 62, 0
4, 1776, Note_on_c, 1, 57, 60
4, 1776, Note_on_c, 1, 53, 60
4, 1821, Note_on_c, 1, 57, 0
4, 1821, Note_on_c, 1, 53, 0
4, 1824, Note_on_c, 1, 58, 62
4, 1824, Note_on_c, 1, 55, 62
4, 1869, Note_on_c, 1, 58, 0
4, 1869, Note_on_c, 1, 55, 0
4, 1872, Note_on_c, 1, 60, 65
4, 1872, Note_on_c, 1, 57, 65
4, 1917, Note_on_c, 1, 60, 0
4, 1917, Note_on_c, 1, 57, 0
4, 1920, Note_on_c, 1, 58, 68
4, 2009, Note_on_c, 1, 58, 0
4, 2088, Note_on_c, 1, 46, 68
4, 2111, Note_on_c, 1, 46, 0
4, 2112, Note_on_c, 1, 48, 68
4, 2201, Note_on_c, 1, 48, 0
4, 2280, Note_on_c, 1, 58, 64
4, 2280, Note_on_c, 1, 48, 64
4, 2303, Note_on_c, 1, 58, 0
4, 2303, Note_on_c, 1, 48, 0
4, 2304, Note_on_c, 1, 58, 63
4, 2304, Note_on_c, 1, 53, 63
4, 2400, Note_on_c, 1, 58, 0
4, 2400, Note_on_c, 1, 57, 61
4, 2445, Note_on_c, 1, 57, 0
4, 2445, Note_on_c, 1, 53, 0
4, 2496, Note_on_c, 1, 65, 60
4, 2519, Note_on_c, 1, 65, 0
4, 2520, Note_on_c, 1, 69, 60
4, 2543, Note_on_c, 1, 69, 0
4, 2544, Note_on_c, 1, 65, 60
4, 2567, Note_on_c, 1, 65, 0
4, 2568, Note_on_c, 1, 69, 60
4, 2591, Note_on_c, 1, 69, 0
4, 2592, Note_on_c, 1, 65, 60
4, 2615, Note_on_c, 1, 65, 0
4, 2616, Note_on_c, 1, 69, 60
4, 2639, Note_on_c, 1, 69, 0
4, 2640, Note_on_c, 1, 65, 60
4, 2663, Note_on_c, 1, 65, 0
4, 2664, Note_on_c, 1, 69, 60
4, 2687, Note_on_c, 1, 69, 0
4, 2688, Note_on_c, 1, 64, 60
4, 2711, Note_on_c, 1, 64, 0
4, 2712, Note_on_c, 1, 67, 60
4, 2735, Note_on_c, 1, 67, 0
4, 2736, Note_on_c, 1, 64, 60
4, 2759, Note_on_c, 1, 64, 0
4, 2760, Note_on_c, 1, 67, 60
4, 2783, Note_on_c, 1, 67, 0
4, 2784, Note_on_c, 1, 64, 60
4, 2807, Note_on_c, 1, 64, 0
4, 2808, Note_on_c, 1, 67, 60
4, 2831, Note_on_c, 1, 67, 0
4, 2832, Note_on_c, 1, 64, 60
4, 2855, Note_on_c, 1, 64, 0
4, 2856, Note_on_c, 1, 67, 60
4, 2879, Note_on_c, 1, 67, 0
4, 2880, Note_on_c, 1, 61, 60
4, 2903, Note_on_c, 1, 61, 0
4, 2904, Note_on_c, 1, 64, 60
4, 2927, Note_on_c, 1, 64, 0
4, 2928, Note_on_c, 1, 61, 60
4, 2951, Note_on_c, 1, 61, 0
4, 2952, Note_on_c, 1, 64, 60
4, 2975, Note_on_c, 1, 64, 0
4, 2976, Note_on_c, 1, 61, 60
4, 2999, Note_on_c, 1, 61, 0
4, 3000, Note_on_c, 1, 69, 60
4, 3023, Note_on_c, 1, 69, 0
4, 3024, Note_on_c, 1, 61, 60
4, 3047, Note_on_c, 1, 61, 0
4, 3048, Note_on_c, 1, 69, 60
4, 3071, Note_on_c, 1, 69, 0
4, 3072, Note_on_c, 1, 62, 60
4, 3095, Note_on_c, 1, 62, 0
4, 3096, Note_on_c, 1, 69, 60
4, 3119, Note_on_c, 1, 69, 0
4, 3120, Note_on_c, 1, 62, 60
4, 3143, Note_on_c, 1, 62, 0
4, 3144, Note_on_c, 1, 69, 60
4, 3167, Note_on_c, 1, 69, 0
4, 3168, Note_on_c, 1, 62, 60
4, 3191, Note_on_c, 1, 62, 0
4, 3192, Note_on_c, 1, 69, 60
4, 3215, Note_on_c, 1, 69, 0
4, 3216, Note_on_c, 1, 62, 60
4, 3239, Note_on_c, 1, 62, 0
4, 3240, Note_on_c, 1, 69, 60
4, 3263, Note_on_c, 1, 69, 0
4, 3264, Note_on_c, 1, 59, 60
4, 3287, Note_on_c, 1, 59, 0
4, 3288, Note_on_c, 1, 67, 60
4, 3311, Note_on_c, 1, 67, 0
4, 3312, Note_on_c, 1, 59, 60
4, 3335, Note_on_c, 1, 59, 0
4, 3336, Note_on_c, 1, 67, 60
4, 3359, Note_on_c, 1, 67, 0
4, 3360, Note_on_c, 1, 59, 60
4, 3383, Note_on_c, 1, 59, 0
4, 3384, Note_on_c, 1, 67, 60
4, 3407, Note_on_c, 1, 67, 0
4, 3408, Note_on_c, 1, 59, 60
4, 3431, Note_on_c, 1, 59, 0
4, 3432, Note_on_c, 1, 67, 60
4, 3455, Note_on_c, 1, 67, 0
4, 3456, Note_on_c, 1, 60, 60
4, 3479, Note_on_c, 1, 60, 0
4, 3480, Note_on_c, 1, 67, 60
4, 3503, Note_on_c, 1, 67, 0
4, 3504, Note_on_c, 1, 60, 60
4, 3527, Note_on_c, 1, 60, 0
4, 3528, Note_on_c, 1, 67, 60
4, 3551, Note_on_c, 1, 67, 0
4, 3552, Note_on_c, 1, 52, 60
4, 3575, Note_on_c, 1, 52, 0
4, 3576, Note_on_c, 1, 60, 60
4, 3599, Note_on_c, 1, 60, 0
4, 3600, Note_on_c, 1, 52, 60
4, 3623, Note_on_c, 1, 52, 0
4, 3624, Note_on_c, 1, 60, 60
4, 3647, Note_on_c, 1, 60, 0
4, 3648, Note_on_c, 1, 53, 60
4, 3671, Note_on_c, 1, 53, 0
4, 3672, Note_on_c, 1, 60, 60
4, 3695, Note_on_c, 1, 60, 0
4, 3696, Note_on_c, 1, 53, 61
4, 3719, Note_on_c, 1, 53, 0
4, 3720, Note_on_c, 1, 60, 62
4, 3743, Note_on_c, 1, 60, 0
4, 3744, Note_on_c, 1, 53, 63
4, 3767, Note_on_c, 1, 53, 0
4, 3768, Note_on_c, 1, 62, 64
4, 3791, Note_on_c, 1, 62, 0
4, 3792, Note_on_c, 1, 54, 65
4, 3815, Note_on_c, 1, 54, 0
4, 3816, Note_on_c, 1, 62, 66
4, 3839, Note_on_c, 1, 62, 0
4, 4032, Note_on_c, 1, 64, 75
4, 4032, Note_on_c, 1, 60, 75
4, 4121, Note_on_c, 1, 64, 0
4, 4121, Note_on_c, 1, 60, 0
4, 4176, Note_on_c, 1, 64, 75
4, 4196, Note_on_c, 1, 64, 0
4, 4224, Note_on_c, 1, 65, 75
4, 4244, Note_on_c, 1, 65, 0
4, 4272, Note_on_c, 1, 64, 75
4, 4292, Note_on_c, 1, 64, 0
4, 4320, Note_on_c, 1, 62, 75
4, 4368, Note_on_c, 1, 62, 0
4, 4368, Note_on_c, 1, 55, 75
4, 4413, Note_on_c, 1, 55, 0
4, 4416, Note_on_c, 1, 60, 75
4, 4464, Note_on_c, 1, 60, 0
4, 4464, Note_on_c, 1, 64, 75
4, 4509, Note_on_c, 1, 64, 0
4, 4560, Note_on_c, 1, 64, 75
4, 4580, Note_on_c, 1, 64, 0
4, 4608, Note_on_c, 1, 65, 75
4, 4628, Note_on_c, 1, 65, 0
4, 4656, Note_on_c, 1, 64, 75
4, 4676, Note_on_c, 1, 64, 0
4, 4704, Note_on_c, 1, 62, 75
4, 4752, Note_on_c, 1, 62, 0
4, 4752, Note_on_c, 1, 55, 75
4, 4797, Note_on_c, 1, 55, 0
4, 4800, Note_on_c, 1, 60, 75
4, 4848, Note_on_c, 1, 60, 0
4, 4848, Note_on_c, 1, 62, 75
4, 4893, Note_on_c, 1, 62, 0
4, 4896, Note_on_c, 1, 64, 75
4, 4941, Note_on_c, 1, 64, 0
4, 4944, Note_on_c, 1, 52, 84
4, 4989, Note_on_c, 1, 52, 0
4, 4992, Note_on_c, 1, 53, 84
4, 5081, Note_on_c, 1, 53, 0
4, 5136, Note_on_c, 1, 52, 84
4, 5181, Note_on_c, 1, 52, 0
4, 5184, Note_on_c, 1, 59, 84
4, 5184, Note_on_c, 1, 50, 84
4, 5317, Note_on_c, 1, 59, 0
4, 5317, Note_on_c, 1, 50, 0
4, 5328, Note_on_c, 1, 60, 84
4, 5328, Note_on_c, 1, 48, 84
4, 5373, Note_on_c, 1, 60, 0
4, 5373, Note_on_c, 1, 48, 0
4, 5376, Note_on_c, 1, 53, 84
4, 5415, Note_on_c, 1, 53, 0
4, 5520, Note_on_c, 1, 55, 75
4, 5520, Note_on_c, 1, 43, 75
4, 5565, Note_on_c, 1, 55, 0
4, 5565, Note_on_c, 1, 43, 0
4, 5568, Note_on_c, 1, 56, 91
4, 5568, Note_on_c, 1, 44, 91
4, 5616, Note_on_c, 1, 56, 0
4, 5616, Note_on_c, 1, 44, 0
4, 5616, Note_on_c, 1, 60, 60
4, 5616, Note_on_c, 1, 56, 60
4, 5661, Note_on_c, 1, 60, 0
4, 5661, Note_on_c, 1, 56, 0
4, 5664, Note_on_c, 1, 60, 60
4, 5664, Note_on_c, 1, 56, 60
4, 5709, Note_on_c, 1, 60, 0
4, 5709, Note_on_c, 1, 56, 0
4, 5712, Note_on_c, 1, 60, 60
4, 5712, Note_on_c, 1, 56, 60
4, 5757, Note_on_c, 1, 60, 0
4, 5757, Note_on_c, 1, 56, 0
4, 5760, Note_on_c, 1, 60, 76
4, 5760, Note_on_c, 1, 55, 76
4, 5808, Note_on_c, 1, 60, 0
4, 5808, Note_on_c, 1, 55, 0
4, 5808, Note_on_c, 1, 60, 61
4, 5808, Note_on_c, 1, 55, 61
4, 5853, Note_on_c, 1, 60, 0
4, 5853, Note_on_c, 1, 55, 0
4, 5856, Note_on_c, 1, 60, 63
4, 5856, Note_on_c, 1, 55, 63
4, 5901, Note_on_c, 1, 60, 0
4, 5901, Note_on_c, 1, 55, 0
4, 5904, Note_on_c, 1, 60, 65
4, 5904, Note_on_c, 1, 55, 65
4, 5949, Note_on_c, 1, 60, 0
4, 5949, Note_on_c, 1, 55, 0
4, 5952, Note_on_c, 1, 60, 83
4, 5952, Note_on_c, 1, 54, 83
4, 6000, Note_on_c, 1, 60, 0
4, 6000, Note_on_c, 1, 54, 0
4, 6000, Note_on_c, 1, 60, 69
4, 6000, Note_on_c, 1, 54, 69
4, 6045, Note_on_c, 1, 60, 0
4, 6045, Note_on_c, 1, 54, 0
4, 6048, Note_on_c, 1, 60, 71
4, 6048, Note_on_c, 1, 54, 71
4, 6093, Note_on_c, 1, 60, 0
4, 6093, Note_on_c, 1, 54, 0
4, 6096, Note_on_c, 1, 57, 72
4, 6096, Note_on_c, 1, 54, 72
4, 6141, Note_on_c, 1, 57, 0
4, 6141, Note_on_c, 1, 54, 0
4, 6144, Note_on_c, 1, 59, 74
4, 6144, Note_on_c, 1, 55, 74
4, 6189, Note_on_c, 1, 59, 0
4, 6189, Note_on_c, 1, 55, 0
4, 6192, Note_on_c, 1, 60, 76
4, 6192, Note_on_c, 1, 57, 76
4, 6237, Note_on_c, 1, 60, 0
4, 6237, Note_on_c, 1, 57, 0
4, 6240, Note_on_c, 1, 62, 78
4, 6240, Note_on_c, 1, 59, 78
4, 6285, Note_on_c, 1, 62, 0
4, 6285, Note_on_c, 1, 59, 0
4, 6336, Note_on_c, 1, 60, 82
4, 6381, Note_on_c, 1, 60, 0
4, 6432, Note_on_c, 1, 64, 84
4, 6452, Note_on_c, 1, 64, 0
4, 6480, Note_on_c, 1, 65, 84
4, 6500, Note_on_c, 1, 65, 0
4, 6528, Note_on_c, 1, 64, 84
4, 6573, Note_on_c, 1, 64, 0
4, 6624, Note_on_c, 1, 64, 68
4, 6644, Note_on_c, 1, 64, 0
4, 6672, Note_on_c, 1, 65, 68
4, 6692, Note_on_c, 1, 65, 0
4, 6720, Note_on_c, 1, 64, 68
4, 6767, Note_on_c, 1, 64, 0
4, 6816, Note_on_c, 1, 64, 75
4, 6836, Note_on_c, 1, 64, 0
4, 6864, Note_on_c, 1, 65, 75
4, 6884, Note_on_c, 1, 65, 0
4, 6912, Note_on_c, 1, 64, 75
4, 6957, Note_on_c, 1, 64, 0
4, 7008, Note_on_c, 1, 64, 68
4, 7028, Note_on_c, 1, 64, 0
4, 7056, Note_on_c, 1, 65, 68
4, 7076, Note_on_c, 1, 65, 0
4, 7104, Note_on_c, 1, 64, 68
4, 7124, Note_on_c, 1, 64, 0
4, 7152, Note_on_c, 1, 65, 68
4, 7172, Note_on_c, 1, 65, 0
4, 7200, Note_on_c, 1, 64, 68
4, 7220, Note_on_c, 1, 64, 0
4, 7248, Note_on_c, 1, 65, 68
4, 7268, Note_on_c, 1, 65, 0
4, 7296, Note_on_c, 1, 64, 75
4, 7390, Note_on_c, 1, 64, 0
4, 7392, Note_on_c, 1, 67, 75
4, 7392, Note_on_c, 1, 63, 75
4, 7486, Note_on_c, 1, 67, 0
4, 7486, Note_on_c, 1, 63, 0
4, 7488, Note_on_c, 1, 69, 75
4, 7488, Note_on_c, 1, 62, 75
4, 7582, Note_on_c, 1, 69, 0
4, 7582, Note_on_c, 1, 62, 0
4, 7584, Note_on_c, 1, 67, 75
4, 7584, Note_on_c, 1, 59, 75
4, 7678, Note_on_c, 1, 67, 0
4, 7678, Note_on_c, 1, 59, 0
4, 7680, Note_on_c, 1, 67, 75
4, 7680, Note_on_c, 1, 60, 75
4, 7774, Note_on_c, 1, 67, 0
4, 7774, Note_on_c, 1, 60, 0
4, 7824, Note_on_c, 1, 60, 75
4, 7824, Note_on_c, 1, 52, 75
4, 7872, Note_on_c, 1, 52, 0
4, 7917, Note_on_c, 1, 60, 0
4, 7920, Note_on_c, 1, 65, 75
4, 7965, Note_on_c, 1, 65, 0
4, 7968, Note_on_c, 1, 64, 75
4, 8013, Note_on_c, 1, 64, 0
4, 8016, Note_on_c, 1, 62, 75
4, 8061, Note_on_c, 1, 62, 0
4, 8064, Note_on_c, 1, 64, 75
4, 8153, Note_on_c, 1, 64, 0
4, 8208, Note_on_c, 1, 60, 75
4, 8208, Note_on_c, 1, 52, 75
4, 8256, Note_on_c, 1, 52, 0
4, 8301, Note_on_c, 1, 60, 0
4, 8304, Note_on_c, 1, 65, 75
4, 8349, Note_on_c, 1, 65, 0
4, 8352, Note_on_c, 1, 64, 75
4, 8397, Note_on_c, 1, 64, 0
4, 8400, Note_on_c, 1, 62, 75
4, 8445, Note_on_c, 1, 62, 0
4, 8448, Note_on_c, 1, 48, 75
4, 8460, Note_on_c, 1, 48, 0
4, 8460, Note_on_c, 1, 60, 75
4, 8472, Note_on_c, 1, 60, 0
4, 8472, Note_on_c, 1, 59, 75
4, 8484, Note_on_c, 1, 59, 0
4, 8484, Note_on_c, 1, 60, 75
4, 8496, Note_on_c, 1, 60, 0
4, 8496, Note_on_c, 1, 48, 75
4, 8508, Note_on_c, 1, 48, 0
4, 8508, Note_on_c, 1, 60, 75
4, 8520, Note_on_c, 1, 60, 0
4, 8520, Note_on_c, 1, 59, 75
4, 8532, Note_on_c, 1, 59, 0
4, 8532, Note_on_c, 1, 60, 75
4, 8544, Note_on_c, 1, 60, 0
4, 8544, Note_on_c, 1, 48, 75
4, 8556, Note_on_c, 1, 48, 0
4, 8556, Note_on_c, 1, 60, 75
4, 8568, Note_on_c, 1, 60, 0
4, 8568, Note_on_c, 1, 59, 75
4, 8580, Note_on_c, 1, 59, 0
4, 8580, Note_on_c, 1, 60, 75
4, 8592, Note_on_c, 1, 60, 0
4, 8592, Note_on_c, 1, 48, 75
4, 8604, Note_on_c, 1, 48, 0
4, 8604, Note_on_c, 1, 60, 75
4, 8616, Note_on_c, 1, 60, 0
4, 8616, Note_on_c, 1, 59, 75
4, 8628, Note_on_c, 1, 59, 0
4, 8628, Note_on_c, 1, 60, 75
4, 8640, Note_on_c, 1, 60, 0
4, 8640, Note_on_c, 1, 48, 75
4, 8652, Note_on_c, 1, 48, 0
4, 8652, Note_on_c, 1, 60, 75
4, 8664, Note_on_c, 1, 60, 0
4, 8664, Note_on_c, 1, 59, 75
4, 8676, Note_on_c, 1, 59, 0
4, 8676, Note_on_c, 1, 60, 75
4, 8688, Note_on_c, 1, 60, 0
4, 8688, Note_on_c, 1, 48, 75
4, 8700, Note_on_c, 1, 48, 0
4, 8700, Note_on_c, 1, 60, 75
4, 8712, Note_on_c, 1, 60, 0
4, 8712, Note_on_c, 1, 59, 75
4, 8724, Note_on_c, 1, 59, 0
4, 8724, Note_on_c, 1, 60, 75
4, 8736, Note_on_c, 1, 60, 0
4, 8736, Note_on_c, 1, 48, 75
4, 8748, Note_on_c, 1, 48, 0
4, 8748, Note_on_c, 1, 60, 75
4, 8760, Note_on_c, 1, 60, 0
4, 8760, Note_on_c, 1, 59, 75
4, 8772, Note_on_c, 1, 59, 0
4, 8772, Note_on_c, 1, 60, 75
4, 8784, Note_on_c, 1, 60, 0
4, 8784, Note_on_c, 1, 48, 75
4, 8796, Note_on_c, 1, 48, 0
4, 8796, Note_on_c, 1, 60, 75
4, 8808, Note_on_c, 1, 60, 0
4, 8808, Note_on_c, 1, 59, 75
4, 8820, Note_on_c, 1, 59, 0
4, 8820, Note_on_c, 1, 60, 75
4, 8832, Note_on_c, 1, 60, 0
4, 8832, Note_on_c, 1, 48, 75
4, 8921, Note_on_c, 1, 48, 0
4, 9024, Note_on_c, 1, 57, 75
4, 9024, Note_on_c, 1, 53, 75
4, 9069, Note_on_c, 1, 57, 0
4, 9069, Note_on_c, 1, 53, 0
4, 9120, Note_on_c, 1, 58, 75
4, 9120, Note_on_c, 1, 48, 75
4, 9165, Note_on_c, 1, 58, 0
4, 9165, Note_on_c, 1, 48, 0
4, 9216, Note_on_c, 1, 57, 75
4, 9216, Note_on_c, 1, 53, 75
4, 9261, Note_on_c, 1, 57, 0
4, 9261, Note_on_c, 1, 53, 0
4, 9456, Note_on_c, 1, 65, 75
4, 9501, Note_on_c, 1, 65, 0
4, 9504, Note_on_c, 1, 67, 75
4, 9549, Note_on_c, 1, 67, 0
4, 9552, Note_on_c, 1, 60, 75
4, 9597, Note_on_c, 1, 60, 0
4, 9600, Note_on_c, 1, 65, 75
4, 9645, Note_on_c, 1, 65, 0
4, 9648, Note_on_c, 1, 60, 75
4, 9693, Note_on_c, 1, 60, 0
4, 9696, Note_on_c, 1, 53, 75
4, 9741, Note_on_c, 1, 53, 0
4, 9792, Note_on_c, 1, 57, 75
4, 9792, Note_on_c, 1, 53, 75
4, 9837, Note_on_c, 1, 57, 0
4, 9837, Note_on_c, 1, 53, 0
4, 9888, Note_on_c, 1, 58, 75
4, 9888, Note_on_c, 1, 48, 75
4, 9933, Note_on_c, 1, 58, 0
4, 9933, Note_on_c, 1, 48, 0
4, 9984, Note_on_c, 1, 57, 75
4, 9984, Note_on_c, 1, 53, 75
4, 10029, Note_on_c, 1, 57, 0
4, 10029, Note_on_c, 1, 53, 0
4, 10032, Note_on_c, 1, 70, 75
4, 10077, Note_on_c, 1, 70, 0
4, 10080, Note_on_c, 1, 69, 75
4, 10125, Note_on_c, 1, 69, 0
4, 10224, Note_on_c, 1, 65, 75
4, 10272, Note_on_c, 1, 65, 0
4, 10272, Note_on_c, 1, 67, 75
4, 10319, Note_on_c, 1, 67, 0
4, 10416, Note_on_c, 1, 64, 70
4, 10416, Note_on_c, 1, 60, 70
4, 10464, Note_on_c, 1, 64, 0
4, 10464, Note_on_c, 1, 60, 0
4, 10464, Note_on_c, 1, 65, 65
4, 10464, Note_on_c, 1, 62, 65
4, 10511, Note_on_c, 1, 65, 0
4, 10511, Note_on_c, 1, 62, 0
4, 10608, Note_on_c, 1, 57, 60
4, 10608, Note_on_c, 1, 53, 60
4, 10653, Note_on_c, 1, 57, 0
4, 10653, Note_on_c, 1, 53, 0
4, 10656, Note_on_c, 1, 58, 62
4, 10656, Note_on_c, 1, 55, 62
4, 10701, Note_on_c, 1, 58, 0
4, 10701, Note_on_c, 1, 55, 0
4, 10704, Note_on_c, 1, 60, 65
4, 10704, Note_on_c, 1, 57, 65
4, 10749, Note_on_c, 1, 60, 0
4, 10749, Note_on_c, 1, 57, 0
4, 10752, Note_on_c, 1, 58, 68
4, 10841, Note_on_c, 1, 58, 0
4, 10920, Note_on_c, 1, 46, 68
4, 10943, Note_on_c, 1, 46, 0
4, 10944, Note_on_c, 1, 48, 68
4, 11033, Note_on_c, 1, 48, 0
4, 11112, Note_on_c, 1, 58, 64
4, 11112, Note_on_c, 1, 48, 64
4, 11135, Note_on_c, 1, 58, 0
4, 11135, Note_on_c, 1, 48, 0
4, 11136, Note_on_c, 1, 58, 63
4, 11136, Note_on_c, 1, 53, 63
4, 11232, Note_on_c, 1, 58, 0
4, 11232, Note_on_c, 1, 57, 61
4, 11277, Note_on_c, 1, 57, 0
4, 11277, Note_on_c, 1, 53, 0
4, 11328, Note_on_c, 1, 65, 60
4, 11351, Note_on_c, 1, 65, 0
4, 11352, Note_on_c, 1, 69, 60
4, 11375, Note_on_c, 1, 69, 0
4, 11376, Note_on_c, 1, 65, 60
4, 11399, Note_on_c, 1, 65, 0
4, 11400, Note_on_c, 1, 69, 60
4, 11423, Note_on_c, 1, 69, 0
4, 11424, Note_on_c, 1, 65, 60
4, 11447, Note_on_c, 1, 65, 0
4, 11448, Note_on_c, 1, 69, 60
4, 11471, Note_on_c, 1, 69, 0
4, 11472, Note_on_c, 1, 65, 60
4, 11495, Note_on_c, 1, 65, 0
4, 11496, Note_on_c, 1, 69, 60
4, 11519, Note_on_c, 1, 69, 0
4, 11520, Note_on_c, 1, 64, 60
4, 11543, Note_on_c, 1, 64, 0
4, 11544, Note_on_c, 1, 67, 60
4, 11567, Note_on_c, 1, 67, 0
4, 11568, Note_on_c, 1, 64, 60
4, 11591, Note_on_c, 1, 64, 0
4, 11592, Note_on_c, 1, 67, 60
4, 11615, Note_on_c, 1, 67, 0
4, 11616, Note_on_c, 1, 64, 60
4, 11639, Note_on_c, 1, 64, 0
4, 11640, Note_on_c, 1, 67, 60
4, 11663, Note_on_c, 1, 67, 0
4, 11664, Note_on_c, 1, 64, 60
4, 11687, Note_on_c, 1, 64, 0
4, 11688, Note_on_c, 1, 67, 60
4, 11711, Note_on_c, 1, 67, 0
4, 11712, Note_on_c, 1, 61, 60
4, 11735, Note_on_c, 1, 61, 0
4, 11736, Note_on_c, 1, 64, 60
4, 11759, Note_on_c, 1, 64, 0
4, 11760, Note_on_c, 1, 61, 60
4, 11783, Note_on_c, 1, 61, 0
4, 11784, Note_on_c, 1, 64, 60
4, 11807, Note_on_c, 1, 64, 0
4, 11808, Note_on_c, 1, 61, 60
4, 11831, Note_on_c, 1, 61, 0
4, 11832, Note_on_c, 1, 69, 60
4, 11855, Note_on_c, 1, 69, 0
4, 11856, Note_on_c, 1, 61, 60
4, 11879, Note_on_c, 1, 61, 0
4, 11880, Note_on_c, 1, 69, 60
4, 11903, Note_on_c, 1, 69, 0
4, 11904, Note_on_c, 1, 62, 60
4, 11927, Note_on_c, 1, 62, 0
4, 11928, Note_on_c, 1, 69, 60
4, 11951, Note_on_c, 1, 69, 0
4, 11952, Note_on_c, 1, 62, 60
4, 11975, Note_on_c, 1, 62, 0
4, 11976, Note_on_c, 1, 69, 60
4, 11999, Note_on_c, 1, 69, 0
4, 12000, Note_on_c, 1, 62, 60
4, 12023, Note_on_c, 1, 62, 0
4, 12024, Note_on_c, 1, 69, 60
4, 12047, Note_on_c, 1, 69, 0
4, 12048, Note_on_c, 1, 62, 60
4, 12071, Note_on_c, 1, 62, 0
4, 12072, Note_on_c, 1, 69, 60
4, 12095, Note_on_c, 1, 69, 0
4, 12096, Note_on_c, 1, 59, 60
4, 12119, Note_on_c, 1, 59, 0
4, 12120, Note_on_c, 1, 67, 60
4, 12143, Note_on_c, 1, 67, 0
4, 12144, Note_on_c, 1, 59, 60
4, 12167, Note_on_c, 1, 59, 0
4, 12168, Note_on_c, 1, 67, 60
4, 12191, Note_on_c, 1, 67, 0
4, 12192, Note_on_c, 1, 59, 60
4, 12215, Note_on_c, 1, 59, 0
4, 12216, Note_on_c, 1, 67, 60
4, 12239, Note_on_c, 1, 67, 0
4, 12240, Note_on_c, 1, 59, 60
4, 12263, Note_on_c, 1, 59, 0
4, 12264, Note_on_c, 1, 67, 60
4, 12287, Note_on_c, 1, 67, 0
4, 12288, Note_on_c, 1, 60, 60
4, 12311, Note_on_c, 1, 60, 0
4, 12312, Note_on_c, 1, 67, 60
4, 12335, Note_on_c, 1, 67, 0
4, 12336, Note_on_c, 1, 60, 60
4, 12359, Note_on_c, 1, 60, 0
4, 12360, Note_on_c, 1, 67, 60
4, 12383, Note_on_c, 1, 67, 0
4, 12384, Note_on_c, 1, 52, 60
4, 12407, Note_on_c, 1, 52, 0
4, 12408, Note_on_c, 1, 60, 60
4, 12431, Note_on_c, 1, 60, 0
4, 12432, Note_on_c, 1, 52, 60
4, 12455, Note_on_c, 1, 52, 0
4, 12456, Note_on_c, 1, 60, 60
4, 12479, Note_on_c, 1, 60, 0
4, 12480, Note_on_c, 1, 53, 60
4, 12503, Note_on_c, 1, 53, 0
4, 12504, Note_on_c, 1, 60, 60
4, 12527, Note_on_c, 1, 60, 0
4, 12528, Note_on_c, 1, 53, 61
4, 12551, Note_on_c, 1, 53, 0
4, 12552, Note_on_c, 1, 60, 62
4, 12575, Note_on_c, 1, 60, 0
4, 12576, Note_on_c, 1, 53, 63
4, 12599, Note_on_c, 1, 53, 0
4, 12600, Note_on_c, 1, 62, 64
4, 12623, Note_on_c, 1, 62, 0
4, 12624, Note_on_c, 1, 54, 65
4, 12647, Note_on_c, 1, 54, 0
4, 12648, Note_on_c, 1, 62, 66
4, 12671, Note_on_c, 1, 62, 0
4, 12864, Note_on_c, 1, 64, 75
4, 12864, Note_on_c, 1, 60, 75
4, 12953, Note_on_c, 1, 64, 0
4, 12953, Note_on_c, 1, 60, 0
4, 13008, Note_on_c, 1, 64, 75
4, 13028, Note_on_c, 1, 64, 0
4, 13056, Note_on_c, 1, 65, 75
4, 13076, Note_on_c, 1, 65, 0
4, 13104, Note_on_c, 1, 64, 75
4, 13124, Note_on_c, 1, 64, 0
4, 13152, Note_on_c, 1, 62, 75
4, 13200, Note_on_c, 1, 62, 0
4, 13200, Note_on_c, 1, 55, 75
4, 13245, Note_on_c, 1, 55, 0
4, 13248, Note_on_c, 1, 60, 75
4, 13296, Note_on_c, 1, 60, 0
4, 13296, Note_on_c, 1, 64, 75
4, 13341, Note_on_c, 1, 64, 0
4, 13392, Note_on_c, 1, 64, 75
4, 13412, Note_on_c, 1, 64, 0
4, 13440, Note_on_c, 1, 65, 75
4, 13460, Note_on_c, 1, 65, 0
4, 13488, Note_on_c, 1, 64, 75
4, 13508, Note_on_c, 1, 64, 0
4, 13536, Note_on_c, 1, 62, 75
4, 13584, Note_on_c, 1, 62, 0
4, 13584, Note_on_c, 1, 55, 75
4, 13629, Note_on_c, 1, 55, 0
4, 13632, Note_on_c, 1, 60, 75
4, 13680, Note_on_c, 1, 60, 0
4, 13680, Note_on_c, 1, 62, 75
4, 13725, Note_on_c, 1, 62, 0
4, 13728, Note_on_c, 1, 64, 75
4, 13773, Note_on_c, 1, 64, 0
4, 13776, Note_on_c, 1, 52, 84
4, 13821, Note_on_c, 1, 52, 0
4, 13824, Note_on_c, 1, 53, 84
4, 13913, Note_on_c, 1, 53, 0
4, 13968, Note_on_c, 1, 52, 84
4, 14013, Note_on_c, 1, 52, 0
4, 14016, Note_on_c, 1, 59, 84
4, 14016, Note_on_c, 1, 50, 84
4, 14149, Note_on_c, 1, 59, 0
4, 14149, Note_on_c, 1, 50, 0
4, 14160, Note_on_c, 1, 60, 84
4, 14160, Note_on_c, 1, 48, 84
4, 14205, Note_on_c, 1, 60, 0
4, 14205, Note_on_c, 1, 48, 0
4, 14208, Note_on_c, 1, 53, 84
4, 14247, Note_on_c, 1, 53, 0
4, 14352, Note_on_c, 1, 55, 75
4, 14352, Note_on_c, 1, 43, 75
4, 14397, Note_on_c, 1, 55, 0
4, 14397, Note_on_c, 1, 43, 0
4, 14400, Note_on_c, 1, 56, 91
4, 14400, Note_on_c, 1, 44, 91
4, 14448, Note_on_c, 1, 56, 0
4, 14448, Note_on_c, 1, 44, 0
4, 14448, Note_on_c, 1, 60, 60
4, 14448, Note_on_c, 1, 56, 60
4, 14493, Note_on_c, 1, 60, 0
4, 14493, Note_on_c, 1, 56, 0
4, 14496, Note_on_c, 1, 60, 60
4, 14496, Note_on_c, 1, 56, 60
4, 14541, Note_on_c, 1, 60, 0
4, 14541, Note_on_c, 1, 56, 0
4, 14544, Note_on_c, 1, 60, 60
4, 14544, Note_on_c, 1, 56, 60
4, 14589, Note_on_c, 1, 60, 0
4, 14589, Note_on_c, 1, 56, 0
4, 14592, Note_on_c, 1, 60, 76
4, 14592, Note_on_c, 1, 55, 76
4, 14640, Note_on_c, 1, 60, 0
4, 14640, Note_on_c, 1, 55, 0
4, 14640, Note_on_c, 1, 60, 61
4, 14640, Note_on_c, 1, 55, 61
4, 14685, Note_on_c, 1, 60, 0
4, 14685, Note_on_c, 1, 55, 0
4, 14688, Note_on_c, 1, 60, 63
4, 14688, Note_on_c, 1, 55, 63
4, 14733, Note_on_c, 1, 60, 0
4, 14733, Note_on_c, 1, 55, 0
4, 14736, Note_on_c, 1, 60, 65
4, 14736, Note_on_c, 1, 55, 65
4, 14781, Note_on_c, 1, 60, 0
4, 14781, Note_on_c, 1, 55, 0
4, 14784, Note_on_c, 1, 60, 83
4, 14784, Note_on_c, 1, 54, 83
4, 14832, Note_on_c, 1, 60, 0
4, 14832, Note_on_c, 1, 54, 0
4, 14832, Note_on_c, 1, 60, 69
4, 14832, Note_on_c, 1, 54, 69
4, 14877, Note_on_c, 1, 60, 0
4, 14877, Note_on_c, 1, 54, 0
4, 14880, Note_on_c, 1, 60, 71
4, 14880, Note_on_c, 1, 54, 71
4, 14925, Note_on_c, 1, 60, 0
4, 14925, Note_on_c, 1, 54, 0
4, 14928, Note_on_c, 1, 57, 72
4, 14928, Note_on_c, 1, 54, 72
4, 14973, Note_on_c, 1, 57, 0
4, 14973, Note_on_c, 1, 54, 0
4, 14976, Note_on_c, 1, 59, 74
4, 14976, Note_on_c, 1, 55, 74
4, 15021, Note_on_c, 1, 59, 0
4, 15021, Note_on_c, 1, 55, 0
4, 15024, Note_on_c, 1, 60, 76
4, 15024, Note_on_c, 1, 57, 76
4, 15069, Note_on_c, 1, 60, 0
4, 15069, Note_on_c, 1, 57, 0
4, 15072, Note_on_c, 1, 62, 78
4, 15072, Note_on_c, 1, 59, 78
4, 15117, Note_on_c, 1, 62, 0
4, 15117, Note_on_c, 1, 59, 0
4, 15168, Note_on_c, 1, 60, 82
4, 15213, Note_on_c, 1, 60, 0
4, 15264, Note_on_c, 1, 64, 84
4, 15284, Note_on_c, 1, 64, 0
4, 15312, Note_on_c, 1, 65, 84
4, 15332, Note_on_c, 1, 65, 0
4, 15360, Note_on_c, 1, 64, 84
4, 15405, Note_on_c, 1, 64, 0
4, 15456, Note_on_c, 1, 64, 68
4, 15476, Note_on_c, 1, 64, 0
4, 15504, Note_on_c, 1, 65, 68
4, 15524, Note_on_c, 1, 65, 0
4, 15552, Note_on_c, 1, 64, 68
4, 15599, Note_on_c, 1, 64, 0
4, 15648, Note_on_c, 1, 64, 75
4, 15668, Note_on_c, 1, 64, 0
4, 15696, Note_on_c, 1, 65, 75
4, 15716, Note_on_c, 1, 65, 0
4, 15744, Note_on_c, 1, 64, 75
4, 15789, Note_on_c, 1, 64, 0
4, 15840, Note_on_c, 1, 64, 68
4, 15860, Note_on_c, 1, 64, 0
4, 15888, Note_on_c, 1, 65, 68
4, 15908, Note_on_c, 1, 65, 0
4, 15936, Note_on_c, 1, 64, 68
4, 15956, Note_on_c, 1, 64, 0
4, 15984, Note_on_c, 1, 65, 68
4, 16004, Note_on_c, 1, 65, 0
4, 16032, Note_on_c, 1, 64, 68
4, 16052, Note_on_c, 1, 64, 0
4, 16080, Note_on_c, 1, 65, 68
4, 16100, Note_on_c, 1, 65, 0
4, 16128, Note_on_c, 1, 64, 75
4, 16222, Note_on_c, 1, 64, 0
4, 16224, Note_on_c, 1, 67, 75
4, 16224, Note_on_c, 1, 63, 75
4, 16318, Note_on_c, 1, 67, 0
4, 16318, Note_on_c, 1, 63, 0
4, 16320, Note_on_c, 1, 69, 75
4, 16320, Note_on_c, 1, 62, 75
4, 16414, Note_on_c, 1, 69, 0
4, 16414, Note_on_c, 1, 62, 0
4, 16416, Note_on_c, 1, 67, 75
4, 16416, Note_on_c, 1, 59, 75
4, 16510, Note_on_c, 1, 67, 0
4, 16510, Note_on_c, 1, 59, 0
4, 16512, Note_on_c, 1, 67, 75
4, 16512, Note_on_c, 1, 60, 75
4, 16606, Note_on_c, 1, 67, 0
4, 16606, Note_on_c, 1, 60, 0
4, 16656, Note_on_c, 1, 60, 75
4, 16656, Note_on_c, 1, 52, 75
4, 16704, Note_on_c, 1, 52, 0
4, 16749, Note_on_c, 1, 60, 0
4, 16752, Note_on_c, 1, 65, 75
4, 16797, Note_on_c, 1, 65, 0
4, 16800, Note_on_c, 1, 64, 75
4, 16845, Note_on_c, 1, 64, 0
4, 16848, Note_on_c, 1, 62, 75
4, 16893, Note_on_c, 1, 62, 0
4, 16896, Note_on_c, 1, 64, 75
4, 16985, Note_on_c, 1, 64, 0
4, 17040, Note_on_c, 1, 60, 75
4, 17040, Note_on_c, 1, 52, 75
4, 17088, Note_on_c, 1, 52, 0
4, 17133, Note_on_c, 1, 60, 0
4, 17136, Note_on_c, 1, 65, 75
4, 17181, Note_on_c, 1, 65, 0
4, 17184, Note_on_c, 1, 64, 75
4, 17229, Note_on_c, 1, 64, 0
4, 17232, Note_on_c, 1, 62, 75
4, 17277, Note_on_c, 1, 62, 0
4, 17280, Note_on_c, 1, 48, 75
4, 17292, Note_on_c, 1, 48, 0
4, 17292, Note_on_c, 1, 60, 75
4, 17304, Note_on_c, 1, 60, 0
4, 17304, Note_on_c, 1, 59, 75
4, 17316, Note_on_c, 1, 59, 0
4, 17316, Note_on_c, 1, 60, 75
4, 17328, Note_on_c, 1, 60, 0
4, 17328, Note_on_c, 1, 48, 75
4, 17340, Note_on_c, 1, 48, 0
4, 17340, Note_on_c, 1, 60, 75
4, 17352, Note_on_c, 1, 60, 0
4, 17352, Note_on_c, 1, 59, 75
4, 17364, Note_on_c, 1, 59, 0
4, 17364, Note_on_c, 1, 60, 75
4, 17376, Note_on_c, 1, 60, 0
4, 17376, Note_on_c, 1, 48, 75
4, 17388, Note_on_c, 1, 48, 0
4, 17388, Note_on_c, 1, 60, 75
4, 17400, Note_on_c, 1, 60, 0
4, 17400, Note_on_c, 1, 59, 75
4, 17412, Note_on_c, 1, 59, 0
4, 17412, Note_on_c, 1, 60, 75
4, 17424, Note_on_c, 1, 60, 0
4, 17424, Note_on_c, 1, 48, 75
4, 17436, Note_on_c, 1, 48, 0
4, 17436, Note_on_c, 1, 60, 75
4, 17448, Note_on_c, 1, 60, 0
4, 17448, Note_on_c, 1, 59, 75
4, 17460, Note_on_c, 1, 59, 0
4, 17460, Note_on_c, 1, 60, 75
4, 17472, Note_on_c, 1, 60, 0
4, 17472, Note_on_c, 1, 48, 75
4, 17484, Note_on_c, 1, 48, 0
4, 17484, Note_on_c, 1, 60, 75
4, 17496, Note_on_c, 1, 60, 0
4, 17496, Note_on_c, 1, 59, 75
4, 17508, Note_on_c, 1, 59, 0
4, 17508, Note_on_c, 1, 60, 75
4, 17520, Note_on_c, 1, 60, 0
4, 17520, Note_on_c, 1, 48, 75
4, 17532, Note_on_c, 1, 48, 0
4, 17532, Note_on_c, 1, 60, 75
4, 17544, Note_on_c, 1, 60, 0
4, 17544, Note_on_c, 1, 59, 75
4, 17556, Note_on_c, 1, 59, 0
4, 17556, Note_on_c, 1, 60, 75
4, 17568, Note_on_c, 1, 60, 0
4, 17568, Note_on_c, 1, 48, 75
4, 17580, Note_on_c, 1, 48, 0
4, 17580, Note_on_c, 1, 60, 75
4, 17592, Note_on_c, 1, 60, 0
4, 17592, Note_on_c, 1, 59, 75
4, 17604, Note_on_c, 1, 59, 0
4, 17604, Note_on_c, 1, 60, 75
4, 17616, Note_on_c, 1, 60, 0
4, 17616, Note_on_c, 1, 48, 75
4, 17628, Note_on_c, 1, 48, 0
4, 17628, Note_on_c, 1, 60, 75
4, 17640, Note_on_c, 1, 60, 0
4, 17640, Note_on_c, 1, 59, 75
4, 17652, Note_on_c, 1, 59, 0
4, 17652, Note_on_c, 1, 60, 75
4, 17664, Note_on_c, 1, 60, 0
4, 17664, Note_on_c, 1, 48, 75
4, 17753, Note_on_c, 1, 48, 0
4, 17856, Note_on_c, 1, 52, 75
4, 17856, Note_on_c, 1, 48, 75
4, 17901, Note_on_c, 1, 52, 0
4, 17901, Note_on_c, 1, 48, 0
4, 17952, Note_on_c, 1, 53, 75
4, 17952, Note_on_c, 1, 43, 75
4, 17997, Note_on_c, 1, 53, 0
4, 17997, Note_on_c, 1, 43, 0
4, 18048, Note_on_c, 1, 52, 75
4, 18048, Note_on_c, 1, 48, 75
4, 18093, Note_on_c, 1, 52, 0
4, 18093, Note_on_c, 1, 48, 0
4, 18288, Note_on_c, 1, 60, 75
4, 18333, Note_on_c, 1, 60, 0
4, 18336, Note_on_c, 1, 62, 75
4, 18381, Note_on_c, 1, 62, 0
4, 18384, Note_on_c, 1, 55, 75
4, 18429, Note_on_c, 1, 55, 0
4, 18432, Note_on_c, 1, 60, 75
4, 18477, Note_on_c, 1, 60, 0
4, 18480, Note_on_c, 1, 55, 75
4, 18525, Note_on_c, 1, 55, 0
4, 18528, Note_on_c, 1, 48, 75
4, 18573, Note_on_c, 1, 48, 0
4, 18672, Note_on_c, 1, 58, 75
4, 18684, Note_on_c, 1, 58, 0
4, 18684, Note_on_c, 1, 55, 75
4, 18696, Note_on_c, 1, 55, 0
4, 18696, Note_on_c, 1, 58, 75
4, 18708, Note_on_c, 1, 58, 0
4, 18708, Note_on_c, 1, 55, 75
4, 18720, Note_on_c, 1, 55, 0
4, 18720, Note_on_c, 1, 52, 75
4, 18765, Note_on_c, 1, 52, 0
4, 18768, Note_on_c, 1, 70, 75
4, 18813, Note_on_c, 1, 70, 0
4, 18816, Note_on_c, 1, 69, 75
4, 18861, Note_on_c, 1, 69, 0
4, 18864, Note_on_c, 1, 48, 75
4, 18876, Note_on_c, 1, 48, 0
4, 18876, Note_on_c, 1, 45, 75
4, 18888, Note_on_c, 1, 45, 0
4, 18888, Note_on_c, 1, 48, 75
4, 18900, Note_on_c, 1, 48, 0
4, 18900, Note_on_c, 1, 45, 75
4, 18912, Note_on_c, 1, 45, 0
4, 18912, Note_on_c, 1, 41, 75
4, 18957, Note_on_c, 1, 41, 0
4, 19056, Note_on_c, 1, 63, 75
4, 19068, Note_on_c, 1, 63, 0
4, 19068, Note_on_c, 1, 60, 75
4, 19080, Note_on_c, 1, 60, 0
4, 19080, Note_on_c, 1, 63, 75
4, 19092, Note_on_c, 1, 63, 0
4, 19092, Note_on_c, 1, 60, 75
4, 19104, Note_on_c, 1, 60, 0
4, 19104, Note_on_c, 1, 57, 75
4, 19149, Note_on_c, 1, 57, 0
4, 19152, Note_on_c, 1, 75, 75
4, 19197, Note_on_c, 1, 75, 0
4, 19200, Note_on_c, 1, 74, 75
4, 19245, Note_on_c, 1, 74, 0
4, 19272, Note_on_c, 1, 70, 75
4, 19295, Note_on_c, 1, 70, 0
4, 19296, Note_on_c, 1, 72, 75
4, 19341, Note_on_c, 1, 72, 0
4, 19344, Note_on_c, 1, 69, 75
4, 19389, Note_on_c, 1, 69, 0
4, 19392, Note_on_c, 1, 70, 75
4, 19437, Note_on_c, 1, 70, 0
4, 19464, Note_on_c, 1, 67, 75
4, 19487, Note_on_c, 1, 67, 0
4, 19488, Note_on_c, 1, 69, 75
4, 19533, Note_on_c, 1, 69, 0
4, 19536, Note_on_c, 1, 66, 75
4, 19581, Note_on_c, 1, 66, 0
4, 19584, Note_on_c, 1, 67, 75
4, 19629, Note_on_c, 1, 67, 0
4, 19656, Note_on_c, 1, 64, 75
4, 19679, Note_on_c, 1, 64, 0
4, 19680, Note_on_c, 1, 65, 75
4, 19725, Note_on_c, 1, 65, 0
4, 19728, Note_on_c, 1, 62, 75
4, 19773, Note_on_c, 1, 62, 0
4, 19776, Note_on_c, 1, 64, 75
4, 19821, Note_on_c, 1, 64, 0
4, 19848, Note_on_c, 1, 61, 78
4, 19871, Note_on_c, 1, 61, 0
4, 19872, Note_on_c, 1, 62, 79
4, 19917, Note_on_c, 1, 62, 0
4, 19920, Note_on_c, 1, 56, 81
4, 19965, Note_on_c, 1, 56, 0
4, 19968, Note_on_c, 1, 45, 84
4, 19980, Note_on_c, 1, 45, 0
4, 19980, Note_on_c, 1, 57, 84
4, 19992, Note_on_c, 1, 57, 0
4, 19992, Note_on_c, 1, 56, 84
4, 20004, Note_on_c, 1, 56, 0
4, 20004, Note_on_c, 1, 57, 84
4, 20016, Note_on_c, 1, 57, 0
4, 20016, Note_on_c, 1, 45, 84
4, 20028, Note_on_c, 1, 45, 0
4, 20028, Note_on_c, 1, 57, 84
4, 20040, Note_on_c, 1, 57, 0
4, 20040, Note_on_c, 1, 56, 84
4, 20052, Note_on_c, 1, 56, 0
4, 20052, Note_on_c, 1, 57, 84
4, 20064, Note_on_c, 1, 57, 0
4, 20064, Note_on_c, 1, 45, 84
4, 20076, Note_on_c, 1, 45, 0
4, 20076, Note_on_c, 1, 57, 84
4, 20088, Note_on_c, 1, 57, 0
4, 20088, Note_on_c, 1, 56, 84
4, 20100, Note_on_c, 1, 56, 0
4, 20100, Note_on_c, 1, 57, 84
4, 20112, Note_on_c, 1, 57, 0
4, 20112, Note_on_c, 1, 45, 84
4, 20124, Note_on_c, 1, 45, 0
4, 20124, Note_on_c, 1, 57, 84
4, 20136, Note_on_c, 1, 57, 0
4, 20136, Note_on_c, 1, 56, 84
4, 20148, Note_on_c, 1, 56, 0
4, 20148, Note_on_c, 1, 57, 84
4, 20160, Note_on_c, 1, 57, 0
4, 20160, Note_on_c, 1, 45, 84
4, 20205, Note_on_c, 1, 45, 0
4, 20208, Note_on_c, 1, 65, 84
4, 20253, Note_on_c, 1, 65, 0
4, 20256, Note_on_c, 1, 64, 87
4, 20301, Note_on_c, 1, 64, 0
4, 20304, Note_on_c, 1, 62, 90
4, 20349, Note_on_c, 1, 62, 0
4, 20352, Note_on_c, 1, 61, 90
4, 20441, Note_on_c, 1, 61, 0
4, 20544, Note_on_c, 1, 50, 60
4, 20567, Note_on_c, 1, 50, 0
4, 20568, Note_on_c, 1, 53, 60
4, 20591, Note_on_c, 1, 53, 0
4, 20592, Note_on_c, 1, 50, 60
4, 20615, Note_on_c, 1, 50, 0
4, 20616, Note_on_c, 1, 53, 60
4, 20639, Note_on_c, 1, 53, 0
4, 20640, Note_on_c, 1, 50, 60
4, 20663, Note_on_c, 1, 50, 0
4, 20664, Note_on_c, 1, 53, 60
4, 20687, Note_on_c, 1, 53, 0
4, 20688, Note_on_c, 1, 50, 60
4, 20711, Note_on_c, 1, 50, 0
4, 20712, Note_on_c, 1, 53, 60
4, 20735, Note_on_c, 1, 53, 0
4, 20736, Note_on_c, 1, 52, 60
4, 20759, Note_on_c, 1, 52, 0
4, 20760, Note_on_c, 1, 55, 60
4, 20783, Note_on_c, 1, 55, 0
4, 20784, Note_on_c, 1, 52, 60
4, 20807, Note_on_c, 1, 52, 0
4, 20808, Note_on_c, 1, 55, 60
4, 20831, Note_on_c, 1, 55, 0
4, 20832, Note_on_c, 1, 52, 60
4, 20855, Note_on_c, 1, 52, 0
4, 20856, Note_on_c, 1, 55, 60
4, 20879, Note_on_c, 1, 55, 0
4, 20880, Note_on_c, 1, 52, 60
4, 20903, Note_on_c, 1, 52, 0
4, 20904, Note_on_c, 1, 55, 60
4, 20927, Note_on_c, 1, 55, 0
4, 20928, Note_on_c, 1, 52, 60
4, 20951, Note_on_c, 1, 52, 0
4, 20952, Note_on_c, 1, 55, 60
4, 20975, Note_on_c, 1, 55, 0
4, 20976, Note_on_c, 1, 52, 60
4, 20999, Note_on_c, 1, 52, 0
4, 21000, Note_on_c, 1, 55, 60
4, 21023, Note_on_c, 1, 55, 0
4, 21024, Note_on_c, 1, 52, 60
4, 21047, Note_on_c, 1, 52, 0
4, 21048, Note_on_c, 1, 55, 60
4, 21071, Note_on_c, 1, 55, 0
4, 21072, Note_on_c, 1, 52, 60
4, 21095, Note_on_c, 1, 52, 0
4, 21096, Note_on_c, 1, 55, 60
4, 21119, Note_on_c, 1, 55, 0
4, 21120, Note_on_c, 1, 53, 60
4, 21143, Note_on_c, 1, 53, 0
4, 21144, Note_on_c, 1, 57, 60
4, 21167, Note_on_c, 1, 57, 0
4, 21168, Note_on_c, 1, 53, 60
4, 21191, Note_on_c, 1, 53, 0
4, 21192, Note_on_c, 1, 57, 60
4, 21215, Note_on_c, 1, 57, 0
4, 21216, Note_on_c, 1, 53, 60
4, 21239, Note_on_c, 1, 53, 0
4, 21240, Note_on_c, 1, 57, 60
4, 21263, Note_on_c, 1, 57, 0
4, 21264, Note_on_c, 1, 53, 60
4, 21287, Note_on_c, 1, 53, 0
4, 21288, Note_on_c, 1, 57, 60
4, 21311, Note_on_c, 1, 57, 0
4, 21312, Note_on_c, 1, 53, 60
4, 21335, Note_on_c, 1, 53, 0
4, 21336, Note_on_c, 1, 57, 60
4, 21359, Note_on_c, 1, 57, 0
4, 21360, Note_on_c, 1, 53, 61
4, 21383, Note_on_c, 1, 53, 0
4, 21384, Note_on_c, 1, 57, 62
4, 21407, Note_on_c, 1, 57, 0
4, 21408, Note_on_c, 1, 54, 63
4, 21431, Note_on_c, 1, 54, 0
4, 21432, Note_on_c, 1, 62, 63
4, 21455, Note_on_c, 1, 62, 0
4, 21456, Note_on_c, 1, 54, 64
4, 21479, Note_on_c, 1, 54, 0
4, 21480, Note_on_c, 1, 62, 65
4, 21503, Note_on_c, 1, 62, 0
4, 21504, Note_on_c, 1, 55, 66
4, 21527, Note_on_c, 1, 55, 0
4, 21528, Note_on_c, 1, 62, 66
4, 21551, Note_on_c, 1, 62, 0
4, 21552, Note_on_c, 1, 55, 67
4, 21575, Note_on_c, 1, 55, 0
4, 21576, Note_on_c, 1, 62, 68
4, 21599, Note_on_c, 1, 62, 0
4, 21600, Note_on_c, 1, 56, 69
4, 21623, Note_on_c, 1, 56, 0
4, 21624, Note_on_c, 1, 64, 69
4, 21647, Note_on_c, 1, 64, 0
4, 21648, Note_on_c, 1, 56, 70
4, 21671, Note_on_c, 1, 56, 0
4, 21672, Note_on_c, 1, 64, 71
4, 21695, Note_on_c, 1, 64, 0
4, 21696, Note_on_c, 1, 57, 72
4, 21719, Note_on_c, 1, 57, 0
4, 21720, Note_on_c, 1, 64, 72
4, 21743, Note_on_c, 1, 64, 0
4, 21744, Note_on_c, 1, 57, 73
4, 21767, Note_on_c, 1, 57, 0
4, 21768, Note_on_c, 1, 64, 74
4, 21791, Note_on_c, 1, 64, 0
4, 21792, Note_on_c, 1, 61, 75
4, 21815, Note_on_c, 1, 61, 0
4, 21816, Note_on_c, 1, 69, 75
4, 21839, Note_on_c, 1, 69, 0
4, 21840, Note_on_c, 1, 61, 76
4, 21863, Note_on_c, 1, 61, 0
4, 21864, Note_on_c, 1, 69, 77
4, 21887, Note_on_c, 1, 69, 0
4, 23616, Note_on_c, 1, 50, 90
4, 23628, Note_on_c, 1, 50, 0
4, 23628, Note_on_c, 1, 62, 90
4, 23640, Note_on_c, 1, 62, 0
4, 23640, Note_on_c, 1, 61, 90
4, 23652, Note_on_c, 1, 61, 0
4, 23652, Note_on_c, 1, 62, 90
4, 23664, Note_on_c, 1, 62, 0
4, 23664, Note_on_c, 1, 50, 90
4, 23676, Note_on_c, 1, 50, 0
4, 23676, Note_on_c, 1, 62, 90
4, 23688, Note_on_c, 1, 62, 0
4, 23688, Note_on_c, 1, 61, 90
4, 23700, Note_on_c, 1, 61, 0
4, 23700, Note_on_c, 1, 62, 90
4, 23712, Note_on_c, 1, 62, 0
4, 23712, Note_on_c, 1, 50, 90
4, 23724, Note_on_c, 1, 50, 0
4, 23724, Note_on_c, 1, 62, 90
4, 23736, Note_on_c, 1, 62, 0
4, 23736, Note_on_c, 1, 61, 90
4, 23748, Note_on_c, 1, 61, 0
4, 23748, Note_on_c, 1, 62, 90
4, 23760, Note_on_c, 1, 62, 0
4, 23760, Note_on_c, 1, 50, 90
4, 23772, Note_on_c, 1, 50, 0
4, 23772, Note_on_c, 1, 62, 90
4, 23784, Note_on_c, 1, 62, 0
4, 23784, Note_on_c, 1, 61, 90
4, 23796, Note_on_c, 1, 61, 0
4, 23796, Note_on_c, 1, 62, 90
4, 23808, Note_on_c, 1, 62, 0
4, 23808, Note_on_c, 1, 50, 90
4, 23820, Note_on_c, 1, 50, 0
4, 23820, Note_on_c, 1, 62, 90
4, 23832, Note_on_c, 1, 62, 0
4, 23832, Note_on_c, 1, 61, 90
4, 23844, Note_on_c, 1, 61, 0
4, 23844, Note_on_c, 1, 62, 90
4, 23856, Note_on_c, 1, 62, 0
4, 23856, Note_on_c, 1, 50, 90
4, 23868, Note_on_c, 1, 50, 0
4, 23868, Note_on_c, 1, 62, 90
4, 23880, Note_on_c, 1, 62, 0
4, 23880, Note_on_c, 1, 61, 90
4, 23892, Note_on_c, 1, 61, 0
4, 23892, Note_on_c, 1, 62, 90
4, 23904, Note_on_c, 1, 62, 0
4, 23904, Note_on_c, 1, 50, 90
4, 23916, Note_on_c, 1, 50, 0
4, 23916, Note_on_c, 1, 62, 90
4, 23928, Note_on_c, 1, 62, 0
4, 23928, Note_on_c, 1, 61, 90
4, 23940, Note_on_c, 1, 61, 0
4, 23940, Note_on_c, 1, 62, 90
4, 23952, Note_on_c, 1, 62, 0
4, 23952, Note_on_c, 1, 50, 90
4, 23964, Note_on_c, 1, 50, 0
4, 23964, Note_on_c, 1, 62, 90
4, 23976, Note_on_c, 1, 62, 0
4, 23976, Note_on_c, 1, 61, 90
4, 23988, Note_on_c, 1, 61, 0
4, 23988, Note_on_c, 1, 62, 90
4, 24000, Note_on_c, 1, 62, 0
4, 24000, Note_on_c, 1, 55, 90
4, 24089, Note_on_c, 1, 55, 0
4, 24192, Note_on_c, 1, 48, 90
4, 24204, Note_on_c, 1, 48, 0
4, 24204, Note_on_c, 1, 60, 90
4, 24216, Note_on_c, 1, 60, 0
4, 24216, Note_on_c, 1, 59, 90
4, 24228, Note_on_c, 1, 59, 0
4, 24228, Note_on_c, 1, 60, 90
4, 24240, Note_on_c, 1, 60, 0
4, 24240, Note_on_c, 1, 48, 90
4, 24252, Note_on_c, 1, 48, 0
4, 24252, Note_on_c, 1, 60, 90
4, 24264, Note_on_c, 1, 60, 0
4, 24264, Note_on_c, 1, 59, 90
4, 24276, Note_on_c, 1, 59, 0
4, 24276, Note_on_c, 1, 60, 90
4, 24288, Note_on_c, 1, 60, 0
4, 24288, Note_on_c, 1, 48, 90
4, 24300, Note_on_c, 1, 48, 0
4, 24300, Note_on_c, 1, 60, 90
4, 24312, Note_on_c, 1, 60, 0
4, 24312, Note_on_c, 1, 59, 90
4, 24324, Note_on_c, 1, 59, 0
4, 24324, Note_on_c, 1, 60, 90
4, 24336, Note_on_c, 1, 60, 0
4, 24336, Note_on_c, 1, 48, 90
4, 24348, Note_on_c, 1, 48, 0
4, 24348, Note_on_c, 1, 60, 90
4, 24360, Note_on_c, 1, 60, 0
4, 24360, Note_on_c, 1, 59, 90
4, 24372, Note_on_c, 1, 59, 0
4, 24372, Note_on_c, 1, 60, 90
4, 24384, Note_on_c, 1, 60, 0
4, 24384, Note_on_c, 1, 48, 90
4, 24396, Note_on_c, 1, 48, 0
4, 24396, Note_on_c, 1, 60, 90
4, 24408, Note_on_c, 1, 60, 0
4, 24408, Note_on_c, 1, 59, 90
4, 24420, Note_on_c, 1, 59, 0
4, 24420, Note_on_c, 1, 60, 90
4, 24432, Note_on_c, 1, 60, 0
4, 24432, Note_on_c, 1, 48, 90
4, 24444, Note_on_c, 1, 48, 0
4, 24444, Note_on_c, 1, 60, 90
4, 24456, Note_on_c, 1, 60, 0
4, 24456, Note_on_c, 1, 59, 90
4, 24468, Note_on_c, 1, 59, 0
4, 24468, Note_on_c, 1, 60, 90
4, 24480, Note_on_c, 1, 60, 0
4, 24480, Note_on_c, 1, 48, 90
4, 24492, Note_on_c, 1, 48, 0
4, 24492, Note_on_c, 1, 60, 90
4, 24504, Note_on_c, 1, 60, 0
4, 24504, Note_on_c, 1, 59, 90
4, 24516, Note_on_c, 1, 59, 0
4, 24516, Note_on_c, 1, 60, 90
4, 24528, Note_on_c, 1, 60, 0
4, 24528, Note_on_c, 1, 48, 90
4, 24540, Note_on_c, 1, 48, 0
4, 24540, Note_on_c, 1, 60, 90
4, 24552, Note_on_c, 1, 60, 0
4, 24552, Note_on_c, 1, 59, 90
4, 24564, Note_on_c, 1, 59, 0
4, 24564, Note_on_c, 1, 60, 90
4, 24576, Note_on_c, 1, 60, 0
4, 24576, Note_on_c, 1, 48, 90
4, 24588, Note_on_c, 1, 48, 0
4, 24588, Note_on_c, 1, 60, 90
4, 24600, Note_on_c, 1, 60, 0
4, 24600, Note_on_c, 1, 59, 90
4, 24612, Note_on_c, 1, 59, 0
4, 24612, Note_on_c, 1, 60, 90
4, 24624, Note_on_c, 1, 60, 0
4, 24624, Note_on_c, 1, 48, 90
4, 24636, Note_on_c, 1, 48, 0
4, 24636, Note_on_c, 1, 60, 90
4, 24648, Note_on_c, 1, 60, 0
4, 24648, Note_on_c, 1, 59, 90
4, 24660, Note_on_c, 1, 59, 0
4, 24660, Note_on_c, 1, 60, 90
4, 24672, Note_on_c, 1, 60, 0
4, 24672, Note_on_c, 1, 48, 90
4, 24684, Note_on_c, 1, 48, 0
4, 24684, Note_on_c, 1, 60, 90
4, 24696, Note_on_c, 1, 60, 0
4, 24696, Note_on_c, 1, 59, 90
4, 24708, Note_on_c, 1, 59, 0
4, 24708, Note_on_c, 1, 60, 90
4, 24720, Note_on_c, 1, 60, 0
4, 24720, Note_on_c, 1, 48, 90
4, 24732, Note_on_c, 1, 48, 0
4, 24732, Note_on_c, 1, 60, 90
4, 24744, Note_on_c, 1, 60, 0
4, 24744, Note_on_c, 1, 59, 90
4, 24756, Note_on_c, 1, 59, 0
4, 24756, Note_on_c, 1, 60, 90
4, 24768, Note_on_c, 1, 60, 0
4, 24768, Note_on_c, 1, 48, 90
4, 24813, Note_on_c, 1, 48, 0
4, 24960, Note_on_c, 1, 48, 75
4, 24960, Note_on_c, 1, 36, 75
4, 24980, Note_on_c, 1, 48, 0
4, 24980, Note_on_c, 1, 36, 0
4, 25032, Note_on_c, 1, 58, 60
4, 25044, Note_on_c, 1, 58, 0
4, 25044, Note_on_c, 1, 60, 60
4, 25056, Note_on_c, 1, 60, 0
4, 25056, Note_on_c, 1, 64, 60
4, 25066, Note_on_c, 1, 64, 0
4, 25080, Note_on_c, 1, 60, 60
4, 25092, Note_on_c, 1, 60, 0
4, 25092, Note_on_c, 1, 64, 60
4, 25104, Note_on_c, 1, 64, 0
4, 25104, Note_on_c, 1, 67, 60
4, 25114, Note_on_c, 1, 67, 0
4, 25128, Note_on_c, 1, 64, 60
4, 25140, Note_on_c, 1, 64, 0
4, 25140, Note_on_c, 1, 67, 60
4, 25152, Note_on_c, 1, 67, 0
4, 25152, Note_on_c, 1, 70, 60
4, 25172, Note_on_c, 1, 70, 0
4, 25344, Note_on_c, 1, 57, 75
4, 25344, Note_on_c, 1, 53, 75
4, 25389, Note_on_c, 1, 57, 0
4, 25389, Note_on_c, 1, 53, 0
4, 25440, Note_on_c, 1, 58, 75
4, 25440, Note_on_c, 1, 48, 75
4, 25485, Note_on_c, 1, 58, 0
4, 25485, Note_on_c, 1, 48, 0
4, 25536, Note_on_c, 1, 57, 75
4, 25536, Note_on_c, 1, 53, 75
4, 25581, Note_on_c, 1, 57, 0
4, 25581, Note_on_c, 1, 53, 0
4, 25776, Note_on_c, 1, 65, 75
4, 25821, Note_on_c, 1, 65, 0
4, 25824, Note_on_c, 1, 67, 75
4, 25869, Note_on_c, 1, 67, 0
4, 25872, Note_on_c, 1, 60, 75
4, 25917, Note_on_c, 1, 60, 0
4, 25920, Note_on_c, 1, 65, 75
4, 25965, Note_on_c, 1, 65, 0
4, 25968, Note_on_c, 1, 60, 75
4, 26013, Note_on_c, 1, 60, 0
4, 26016, Note_on_c, 1, 53, 75
4, 26061, Note_on_c, 1, 53, 0
4, 26112, Note_on_c, 1, 57, 75
4, 26112, Note_on_c, 1, 53, 75
4, 26157, Note_on_c, 1, 57, 0
4, 26157, Note_on_c, 1, 53, 0
4, 26208, Note_on_c, 1, 58, 75
4, 26208, Note_on_c, 1, 48, 75
4, 26253, Note_on_c, 1, 58, 0
4, 26253, Note_on_c, 1, 48, 0
4, 26304, Note_on_c, 1, 57, 75
4, 26304, Note_on_c, 1, 53, 75
4, 26349, Note_on_c, 1, 57, 0
4, 26349, Note_on_c, 1, 53, 0
4, 26352, Note_on_c, 1, 70, 75
4, 26397, Note_on_c, 1, 70, 0
4, 26400, Note_on_c, 1, 69, 75
4, 26445, Note_on_c, 1, 69, 0
4, 26544, Note_on_c, 1, 65, 75
4, 26592, Note_on_c, 1, 65, 0
4, 26592, Note_on_c, 1, 67, 75
4, 26639, Note_on_c, 1, 67, 0
4, 26736, Note_on_c, 1, 64, 70
4, 26736, Note_on_c, 1, 60, 70
4, 26784, Note_on_c, 1, 64, 0
4, 26784, Note_on_c, 1, 60, 0
4, 26784, Note_on_c, 1, 65, 65
4, 26784, Note_on_c, 1, 62, 65
4, 26831, Note_on_c, 1, 65, 0
4, 26831, Note_on_c, 1, 62, 0
4, 26928, Note_on_c, 1, 57, 60
4, 26928, Note_on_c, 1, 53, 60
4, 26973, Note_on_c, 1, 57, 0
4, 26973, Note_on_c, 1, 53, 0
4, 26976, Note_on_c, 1, 58, 60
4, 26976, Note_on_c, 1, 55, 60
4, 27021, Note_on_c, 1, 58, 0
4, 27021, Note_on_c, 1, 55, 0
4, 27024, Note_on_c, 1, 60, 60
4, 27024, Note_on_c, 1, 57, 60
4, 27069, Note_on_c, 1, 60, 0
4, 27069, Note_on_c, 1, 57, 0
4, 27072, Note_on_c, 1, 58, 60
4, 27161, Note_on_c, 1, 58, 0
4, 27240, Note_on_c, 1, 46, 75
4, 27263, Note_on_c, 1, 46, 0
4, 27264, Note_on_c, 1, 48, 75
4, 27331, Note_on_c, 1, 48, 0
4, 27336, Note_on_c, 1, 55, 75
4, 27348, Note_on_c, 1, 55, 0
4, 27348, Note_on_c, 1, 52, 75
4, 27360, Note_on_c, 1, 52, 0
4, 27360, Note_on_c, 1, 48, 75
4, 27383, Note_on_c, 1, 48, 0
4, 27384, Note_on_c, 1, 62, 75
4, 27384, Note_on_c, 1, 58, 75
4, 27407, Note_on_c, 1, 62, 0
4, 27407, Note_on_c, 1, 58, 0
4, 27408, Note_on_c, 1, 60, 75
4, 27408, Note_on_c, 1, 57, 75
4, 27431, Note_on_c, 1, 60, 0
4, 27431, Note_on_c, 1, 57, 0
4, 27432, Note_on_c, 1, 58, 75
4, 27432, Note_on_c, 1, 55, 75
4, 27455, Note_on_c, 1, 58, 0
4, 27455, Note_on_c, 1, 55, 0
4, 27456, Note_on_c, 1, 57, 75
4, 27456, Note_on_c, 1, 53, 75
4, 27545, Note_on_c, 1, 57, 0
4, 27545, Note_on_c, 1, 53, 0
4, 27600, Note_on_c, 1, 57, 75
4, 27645, Note_on_c, 1, 57, 0
4, 27648, Note_on_c, 1, 58, 75
4, 27668, Note_on_c, 1, 58, 0
4, 27696, Note_on_c, 1, 57, 75
4, 27716, Note_on_c, 1, 57, 0
4, 27744, Note_on_c, 1, 55, 75
4, 27792, Note_on_c, 1, 55, 0
4, 27792, Note_on_c, 1, 48, 75
4, 27837, Note_on_c, 1, 48, 0
4, 27840, Note_on_c, 1, 53, 75
4, 27888, Note_on_c, 1, 53, 0
4, 27888, Note_on_c, 1, 57, 75
4, 27933, Note_on_c, 1, 57, 0
4, 27984, Note_on_c, 1, 57, 75
4, 28029, Note_on_c, 1, 57, 0
4, 28032, Note_on_c, 1, 58, 75
4, 28052, Note_on_c, 1, 58, 0
4, 28080, Note_on_c, 1, 57, 75
4, 28100, Note_on_c, 1, 57, 0
4, 28128, Note_on_c, 1, 55, 75
4, 28176, Note_on_c, 1, 55, 0
4, 28176, Note_on_c, 1, 48, 75
4, 28221, Note_on_c, 1, 48, 0
4, 28224, Note_on_c, 1, 53, 75
4, 28269, Note_on_c, 1, 53, 0
4, 28272, Note_on_c, 1, 65, 75
4, 28317, Note_on_c, 1, 65, 0
4, 28320, Note_on_c, 1, 64, 75
4, 28365, Note_on_c, 1, 64, 0
4, 28368, Note_on_c, 1, 52, 75
4, 28413, Note_on_c, 1, 52, 0
4, 28416, Note_on_c, 1, 50, 75
4, 28461, Note_on_c, 1, 50, 0
4, 28464, Note_on_c, 1, 62, 75
4, 28509, Note_on_c, 1, 62, 0
4, 28512, Note_on_c, 1, 60, 75
4, 28557, Note_on_c, 1, 60, 0
4, 28560, Note_on_c, 1, 48, 75
4, 28605, Note_on_c, 1, 48, 0
4, 28608, Note_on_c, 1, 46, 75
4, 28653, Note_on_c, 1, 46, 0
4, 28656, Note_on_c, 1, 58, 75
4, 28701, Note_on_c, 1, 58, 0
4, 28704, Note_on_c, 1, 57, 75
4, 28749, Note_on_c, 1, 57, 0
4, 28752, Note_on_c, 1, 45, 75
4, 28797, Note_on_c, 1, 45, 0
4, 28992, Note_on_c, 1, 60, 75
4, 29014, Note_on_c, 1, 60, 0
4, 29014, Note_on_c, 1, 62, 73
4, 29024, Note_on_c, 1, 62, 0
4, 29024, Note_on_c, 1, 60, 73
4, 29034, Note_on_c, 1, 60, 0
4, 29034, Note_on_c, 1, 62, 72
4, 29044, Note_on_c, 1, 62, 0
4, 29044, Note_on_c, 1, 60, 72
4, 29054, Note_on_c, 1, 60, 0
4, 29054, Note_on_c, 1, 62, 71
4, 29064, Note_on_c, 1, 62, 0
4, 29064, Note_on_c, 1, 60, 70
4, 29074, Note_on_c, 1, 60, 0
4, 29074, Note_on_c, 1, 62, 70
4, 29084, Note_on_c, 1, 62, 0
4, 29084, Note_on_c, 1, 60, 69
4, 29094, Note_on_c, 1, 60, 0
4, 29094, Note_on_c, 1, 62, 69
4, 29104, Note_on_c, 1, 62, 0
4, 29104, Note_on_c, 1, 60, 68
4, 29114, Note_on_c, 1, 60, 0
4, 29114, Note_on_c, 1, 62, 67
4, 29124, Note_on_c, 1, 62, 0
4, 29124, Note_on_c, 1, 60, 67
4, 29134, Note_on_c, 1, 60, 0
4, 29134, Note_on_c, 1, 62, 66
4, 29144, Note_on_c, 1, 62, 0
4, 29144, Note_on_c, 1, 60, 60
4, 29154, Note_on_c, 1, 60, 0
4, 29154, Note_on_c, 1, 62, 60
4, 29164, Note_on_c, 1, 62, 0
4, 29164, Note_on_c, 1, 60, 60
4, 29174, Note_on_c, 1, 60, 0
4, 29174, Note_on_c, 1, 62, 60
4, 29184, Note_on_c, 1, 62, 0
4, 29184, Note_on_c, 1, 60, 60
4, 29195, Note_on_c, 1, 60, 0
4, 29195, Note_on_c, 1, 62, 60
4, 29206, Note_on_c, 1, 62, 0
4, 29206, Note_on_c, 1, 60, 60
4, 29216, Note_on_c, 1, 60, 0
4, 29216, Note_on_c, 1, 62, 60
4, 29226, Note_on_c, 1, 62, 0
4, 29226, Note_on_c, 1, 60, 60
4, 29236, Note_on_c, 1, 60, 0
4, 29236, Note_on_c, 1, 62, 60
4, 29246, Note_on_c, 1, 62, 0
4, 29246, Note_on_c, 1, 60, 60
4, 29256, Note_on_c, 1, 60, 0
4, 29256, Note_on_c, 1, 62, 60
4, 29266, Note_on_c, 1, 62, 0
4, 29266, Note_on_c, 1, 60, 60
4, 29276, Note_on_c, 1, 60, 0
4, 29276, Note_on_c, 1, 62, 60
4, 29286, Note_on_c, 1, 62, 0
4, 29286, Note_on_c, 1, 60, 60
4, 29296, Note_on_c, 1, 60, 0
4, 29296, Note_on_c, 1, 62, 60
4, 29306, Note_on_c, 1, 62, 0
4, 29306, Note_on_c, 1, 60, 60
4, 29316, Note_on_c, 1, 60, 0
4, 29316, Note_on_c, 1, 62, 60
4, 29326, Note_on_c, 1, 62, 0
4, 29326, Note_on_c, 1, 60, 60
4, 29336, Note_on_c, 1, 60, 0
4, 29336, Note_on_c, 1, 62, 60
4, 29346, Note_on_c, 1, 62, 0
4, 29346, Note_on_c, 1, 60, 60
4, 29356, Note_on_c, 1, 60, 0
4, 29356, Note_on_c, 1, 62, 60
4, 29366, Note_on_c, 1, 62, 0
4, 29366, Note_on_c, 1, 60, 60
4, 29376, Note_on_c, 1, 60, 0
4, 29376, Note_on_c, 1, 62, 60
4, 29387, Note_on_c, 1, 62, 0
4, 29387, Note_on_c, 1, 60, 60
4, 29398, Note_on_c, 1, 60, 0
4, 29398, Note_on_c, 1, 62, 60
4, 29408, Note_on_c, 1, 62, 0
4, 29408, Note_on_c, 1, 60, 60
4, 29418, Note_on_c, 1, 60, 0
4, 29418, Note_on_c, 1, 62, 60
4, 29428, Note_on_c, 1, 62, 0
4, 29428, Note_on_c, 1, 60, 60
4, 29438, Note_on_c, 1, 60, 0
4, 29438, Note_on_c, 1, 62, 60
4, 29448, Note_on_c, 1, 62, 0
4, 29448, Note_on_c, 1, 60, 60
4, 29458, Note_on_c, 1, 60, 0
4, 29458, Note_on_c, 1, 62, 60
4, 29468, Note_on_c, 1, 62, 0
4, 29468, Note_on_c, 1, 60, 60
4, 29478, Note_on_c, 1, 60, 0
4, 29478, Note_on_c, 1, 62, 60
4, 29488, Note_on_c, 1, 62, 0
4, 29488, Note_on_c, 1, 60, 60
4, 29498, Note_on_c, 1, 60, 0
4, 29498, Note_on_c, 1, 62, 60
4, 29508, Note_on_c, 1, 62, 0
4, 29508, Note_on_c, 1, 60, 60
4, 29518, Note_on_c, 1, 60, 0
4, 29518, Note_on_c, 1, 62, 60
4, 29528, Note_on_c, 1, 62, 0
4, 29528, Note_on_c, 1, 60, 60
4, 29538, Note_on_c, 1, 60, 0
4, 29538, Note_on_c, 1, 62, 60
4, 29548, Note_on_c, 1, 62, 0
4, 29548, Note_on_c, 1, 60, 60
4, 29558, Note_on_c, 1, 60, 0
4, 29558, Note_on_c, 1, 62, 60
4, 29568, Note_on_c, 1, 62, 0
4, 29568, Note_on_c, 1, 60, 60
4, 29579, Note_on_c, 1, 60, 0
4, 29579, Note_on_c, 1, 62, 60
4, 29590, Note_on_c, 1, 62, 0
4, 29590, Note_on_c, 1, 60, 60
4, 29600, Note_on_c, 1, 60, 0
4, 29600, Note_on_c, 1, 62, 60
4, 29610, Note_on_c, 1, 62, 0
4, 29610, Note_on_c, 1, 60, 60
4, 29620, Note_on_c, 1, 60, 0
4, 29620, Note_on_c, 1, 62, 60
4, 29630, Note_on_c, 1, 62, 0
4, 29630, Note_on_c, 1, 60, 60
4, 29640, Note_on_c, 1, 60, 0
4, 29640, Note_on_c, 1, 62, 60
4, 29650, Note_on_c, 1, 62, 0
4, 29650, Note_on_c, 1, 60, 60
4, 29660, Note_on_c, 1, 60, 0
4, 29660, Note_on_c, 1, 62, 60
4, 29670, Note_on_c, 1, 62, 0
4, 29670, Note_on_c, 1, 60, 60
4, 29680, Note_on_c, 1, 60, 0
4, 29680, Note_on_c, 1, 62, 60
4, 29690, Note_on_c, 1, 62, 0
4, 29690, Note_on_c, 1, 60, 60
4, 29700, Note_on_c, 1, 60, 0
4, 29700, Note_on_c, 1, 62, 60
4, 29710, Note_on_c, 1, 62, 0
4, 29710, Note_on_c, 1, 60, 60
4, 29720, Note_on_c, 1, 60, 0
4, 29720, Note_on_c, 1, 62, 60
4, 29730, Note_on_c, 1, 62, 0
4, 29730, Note_on_c, 1, 60, 60
4, 29740, Note_on_c, 1, 60, 0
4, 29740, Note_on_c, 1, 62, 60
4, 29750, Note_on_c, 1, 62, 0
4, 29750, Note_on_c, 1, 60, 60
4, 29760, Note_on_c, 1, 60, 0
4, 29760, Note_on_c, 1, 62, 60
4, 29771, Note_on_c, 1, 62, 0
4, 29771, Note_on_c, 1, 60, 60
4, 29782, Note_on_c, 1, 60, 0
4, 29782, Note_on_c, 1, 62, 60
4, 29792, Note_on_c, 1, 62, 0
4, 29792, Note_on_c, 1, 60, 60
4, 29802, Note_on_c, 1, 60, 0
4, 29802, Note_on_c, 1, 62, 60
4, 29812, Note_on_c, 1, 62, 0
4, 29812, Note_on_c, 1, 60, 60
4, 29822, Note_on_c, 1, 60, 0
4, 29822, Note_on_c, 1, 62, 60
4, 29832, Note_on_c, 1, 62, 0
4, 29832, Note_on_c, 1, 60, 60
4, 29842, Note_on_c, 1, 60, 0
4, 29842, Note_on_c, 1, 62, 60
4, 29852, Note_on_c, 1, 62, 0
4, 29852, Note_on_c, 1, 60, 60
4, 29862, Note_on_c, 1, 60, 0
4, 29862, Note_on_c, 1, 62, 60
4, 29872, Note_on_c, 1, 62, 0
4, 29872, Note_on_c, 1, 60, 60
4, 29882, Note_on_c, 1, 60, 0
4, 29882, Note_on_c, 1, 62, 60
4, 29892, Note_on_c, 1, 62, 0
4, 29892, Note_on_c, 1, 60, 60
4, 29902, Note_on_c, 1, 60, 0
4, 29902, Note_on_c, 1, 62, 60
4, 29912, Note_on_c, 1, 62, 0
4, 29912, Note_on_c, 1, 60, 60
4, 29922, Note_on_c, 1, 60, 0
4, 29922, Note_on_c, 1, 62, 60
4, 29932, Note_on_c, 1, 62, 0
4, 29932, Note_on_c, 1, 60, 60
4, 29942, Note_on_c, 1, 60, 0
4, 29942, Note_on_c, 1, 62, 60
4, 29952, Note_on_c, 1, 62, 0
4, 29952, Note_on_c, 1, 60, 60
4, 29963, Note_on_c, 1, 60, 0
4, 29963, Note_on_c, 1, 62, 60
4, 29974, Note_on_c, 1, 62, 0
4, 29974, Note_on_c, 1, 60, 60
4, 29984, Note_on_c, 1, 60, 0
4, 29984, Note_on_c, 1, 62, 60
4, 29994, Note_on_c, 1, 62, 0
4, 29994, Note_on_c, 1, 60, 60
4, 30004, Note_on_c, 1, 60, 0
4, 30004, Note_on_c, 1, 62, 60
4, 30014, Note_on_c, 1, 62, 0
4, 30014, Note_on_c, 1, 60, 60
4, 30024, Note_on_c, 1, 60, 0
4, 30024, Note_on_c, 1, 62, 60
4, 30034, Note_on_c, 1, 62, 0
4, 30034, Note_on_c, 1, 60, 60
4, 30044, Note_on_c, 1, 60, 0
4, 30044, Note_on_c, 1, 62, 60
4, 30054, Note_on_c, 1, 62, 0
4, 30054, Note_on_c, 1, 60, 60
4, 30064, Note_on_c, 1, 60, 0
4, 30064, Note_on_c, 1, 62, 60
4, 30074, Note_on_c, 1, 62, 0
4, 30074, Note_on_c, 1, 60, 60
4, 30084, Note_on_c, 1, 60, 0
4, 30084, Note_on_c, 1, 62, 60
4, 30094, Note_on_c, 1, 62, 0
4, 30094, Note_on_c, 1, 60, 60
4, 30104, Note_on_c, 1, 60, 0
4, 30104, Note_on_c, 1, 62, 60
4, 30114, Note_on_c, 1, 62, 0
4, 30114, Note_on_c, 1, 60, 60
4, 30124, Note_on_c, 1, 60, 0
4, 30124, Note_on_c, 1, 58, 60
4, 30134, Note_on_c, 1, 58, 0
4, 30134, Note_on_c, 1, 60, 60
4, 30144, Note_on_c, 1, 60, 0
4, 30144, Note_on_c, 1, 65, 75
4, 30189, Note_on_c, 1, 65, 0
4, 30192, Note_on_c, 1, 67, 75
4, 30237, Note_on_c, 1, 67, 0
4, 30240, Note_on_c, 1, 69, 75
4, 30285, Note_on_c, 1, 69, 0
4, 30288, Note_on_c, 1, 57, 75
4, 30333, Note_on_c, 1, 57, 0
4, 30336, Note_on_c, 1, 58, 75
4, 30381, Note_on_c, 1, 58, 0
4, 30384, Note_on_c, 1, 60, 75
4, 30429, Note_on_c, 1, 60, 0
4, 30432, Note_on_c, 1, 62, 75
4, 30477, Note_on_c, 1, 62, 0
4, 30504, Note_on_c, 1, 45, 84
4, 30527, Note_on_c, 1, 45, 0
4, 30528, Note_on_c, 1, 46, 84
4, 30595, Note_on_c, 1, 46, 0
4, 30600, Note_on_c, 1, 47, 84
4, 30623, Note_on_c, 1, 47, 0
4, 30624, Note_on_c, 1, 48, 84
4, 30669, Note_on_c, 1, 48, 0
4, 30672, Note_on_c, 1, 52, 84
4, 30717, Note_on_c, 1, 52, 0
4, 30720, Note_on_c, 1, 53, 84
4, 30720, Note_on_c, 1, 41, 84
4, 30809, Note_on_c, 1, 53, 0
4, 30809, Note_on_c, 1, 41, 0
4, 30816, Note_on_c, 1, 57, 84
4, 30836, Note_on_c, 1, 57, 0
4, 30864, Note_on_c, 1, 58, 84
4, 30884, Note_on_c, 1, 58, 0
4, 30912, Note_on_c, 1, 57, 84
4, 30957, Note_on_c, 1, 57, 0
4, 31008, Note_on_c, 1, 57, 68
4, 31028, Note_on_c, 1, 57, 0
4, 31056, Note_on_c, 1, 58, 68
4, 31076, Note_on_c, 1, 58, 0
4, 31104, Note_on_c, 1, 57, 68
4, 31149, Note_on_c, 1, 57, 0
4, 31200, Note_on_c, 1, 57, 75
4, 31220, Note_on_c, 1, 57, 0
4, 31248, Note_on_c, 1, 58, 75
4, 31268, Note_on_c, 1, 58, 0
4, 31296, Note_on_c, 1, 57, 75
4, 31341, Note_on_c, 1, 57, 0
4, 31392, Note_on_c, 1, 57, 68
4, 31412, Note_on_c, 1, 57, 0
4, 31440, Note_on_c, 1, 58, 68
4, 31460, Note_on_c, 1, 58, 0
4, 31488, Note_on_c, 1, 57, 68
4, 31508, Note_on_c, 1, 57, 0
4, 31536, Note_on_c, 1, 58, 68
4, 31556, Note_on_c, 1, 58, 0
4, 31584, Note_on_c, 1, 57, 68
4, 31604, Note_on_c, 1, 57, 0
4, 31632, Note_on_c, 1, 58, 68
4, 31652, Note_on_c, 1, 58, 0
4, 31680, Note_on_c, 1, 57, 75
4, 31774, Note_on_c, 1, 57, 0
4, 31776, Note_on_c, 1, 60, 75
4, 31776, Note_on_c, 1, 56, 75
4, 31870, Note_on_c, 1, 60, 0
4, 31870, Note_on_c, 1, 56, 0
4, 31872, Note_on_c, 1, 62, 75
4, 31872, Note_on_c, 1, 55, 75
4, 31966, Note_on_c, 1, 62, 0
4, 31966, Note_on_c, 1, 55, 0
4, 31968, Note_on_c, 1, 60, 75
4, 31968, Note_on_c, 1, 52, 75
4, 32062, Note_on_c, 1, 60, 0
4, 32062, Note_on_c, 1, 52, 0
4, 32064, Note_on_c, 1, 60, 75
4, 32064, Note_on_c, 1, 53, 75
4, 32158, Note_on_c, 1, 60, 0
4, 32158, Note_on_c, 1, 53, 0
4, 32208, Note_on_c, 1, 53, 75
4, 32208, Note_on_c, 1, 45, 75
4, 32256, Note_on_c, 1, 45, 0
4, 32301, Note_on_c, 1, 53, 0
4, 32304, Note_on_c, 1, 58, 75
4, 32349, Note_on_c, 1, 58, 0
4, 32352, Note_on_c, 1, 57, 75
4, 32397, Note_on_c, 1, 57, 0
4, 32400, Note_on_c, 1, 55, 75
4, 32445, Note_on_c, 1, 55, 0
4, 32448, Note_on_c, 1, 57, 75
4, 32448, Note_on_c, 1, 53, 75
4, 32537, Note_on_c, 1, 57, 0
4, 32537, Note_on_c, 1, 53, 0
4, 32592, Note_on_c, 1, 53, 75
4, 32592, Note_on_c, 1, 45, 75
4, 32640, Note_on_c, 1, 45, 0
4, 32685, Note_on_c, 1, 53, 0
4, 32688, Note_on_c, 1, 58, 75
4, 32733, Note_on_c, 1, 58, 0
4, 32736, Note_on_c, 1, 57, 75
4, 32781, Note_on_c, 1, 57, 0
4, 32784, Note_on_c, 1, 55, 75
4, 32829, Note_on_c, 1, 55, 0
4, 32832, Note_on_c, 1, 41, 75
4, 32844, Note_on_c, 1, 41, 0
4, 32844, Note_on_c, 1, 53, 75
4, 32856, Note_on_c, 1, 53, 0
4, 32856, Note_on_c, 1, 52, 75
4, 32868, Note_on_c, 1, 52, 0
4, 32868, Note_on_c, 1, 53, 75
4, 32880, Note_on_c, 1, 53, 0
4, 32880, Note_on_c, 1, 41, 75
4, 32892, Note_on_c, 1, 41, 0
4, 32892, Note_on_c, 1, 53, 75
4, 32904, Note_on_c, 1, 53, 0
4, 32904, Note_on_c, 1, 52, 75
4, 32916, Note_on_c, 1, 52, 0
4, 32916, Note_on_c, 1, 53, 75
4, 32928, Note_on_c, 1, 53, 0
4, 32928, Note_on_c, 1, 41, 75
4, 32940, Note_on_c, 1, 41, 0
4, 32940, Note_on_c, 1, 53, 75
4, 32952, Note_on_c, 1, 53, 0
4, 32952, Note_on_c, 1, 52, 75
4, 32964, Note_on_c, 1, 52, 0
4, 32964, Note_on_c, 1, 53, 75
4, 32976, Note_on_c, 1, 53, 0
4, 32976, Note_on_c, 1, 41, 75
4, 32988, Note_on_c, 1, 41, 0
4, 32988, Note_on_c, 1, 53, 75
4, 33000, Note_on_c, 1, 53, 0
4, 33000, Note_on_c, 1, 52, 75
4, 33012, Note_on_c, 1, 52, 0
4, 33012, Note_on_c, 1, 53, 75
4, 33024, Note_on_c, 1, 53, 0
4, 33024, Note_on_c, 1, 41, 75
4, 33036, Note_on_c, 1, 41, 0
4, 33036, Note_on_c, 1, 53, 75
4, 33048, Note_on_c, 1, 53, 0
4, 33048, Note_on_c, 1, 52, 75
4, 33060, Note_on_c, 1, 52, 0
4, 33060, Note_on_c, 1, 53, 75
4, 33072, Note_on_c, 1, 53, 0
4, 33072, Note_on_c, 1, 41, 75
4, 33084, Note_on_c, 1, 41, 0
4, 33084, Note_on_c, 1, 53, 75
4, 33096, Note_on_c, 1, 53, 0
4, 33096, Note_on_c, 1, 52, 75
4, 33108, Note_on_c, 1, 52, 0
4, 33108, Note_on_c, 1, 53, 75
4, 33120, Note_on_c, 1, 53, 0
4, 33120, Note_on_c, 1, 41, 75
4, 33132, Note_on_c, 1, 41, 0
4, 33132, Note_on_c, 1, 53, 75
4, 33144, Note_on_c, 1, 53, 0
4, 33144, Note_on_c, 1, 52, 75
4, 33156, Note_on_c, 1, 52, 0
4, 33156, Note_on_c, 1, 53, 75
4, 33168, Note_on_c, 1, 53, 0
4, 33168, Note_on_c, 1, 41, 75
4, 33180, Note_on_c, 1, 41, 0
4, 33180, Note_on_c, 1, 53, 75
4, 33192, Note_on_c, 1, 53, 0
4, 33192, Note_on_c, 1, 52, 75
4, 33204, Note_on_c, 1, 52, 0
4, 33204, Note_on_c, 1, 53, 75
4, 33216, Note_on_c, 1, 53, 0
4, 33216, Note_on_c, 1, 41, 75
4, 33305, Note_on_c, 1, 41, 0
4, 33408, Note_on_c, 1, 52, 75
4, 33408, Note_on_c, 1, 48, 75
4, 33453, Note_on_c, 1, 52, 0
4, 33453, Note_on_c, 1, 48, 0
4, 33504, Note_on_c, 1, 53, 75
4, 33504, Note_on_c, 1, 43, 75
4, 33549, Note_on_c, 1, 53, 0
4, 33549, Note_on_c, 1, 43, 0
4, 33600, Note_on_c, 1, 52, 75
4, 33600, Note_on_c, 1, 48, 75
4, 33645, Note_on_c, 1, 52, 0
4, 33645, Note_on_c, 1, 48, 0
4, 33840, Note_on_c, 1, 60, 75
4, 33885, Note_on_c, 1, 60, 0
4, 33888, Note_on_c, 1, 62, 75
4, 33933, Note_on_c, 1, 62, 0
4, 33936, Note_on_c, 1, 55, 75
4, 33981, Note_on_c, 1, 55, 0
4, 33984, Note_on_c, 1, 60, 75
4, 34029, Note_on_c, 1, 60, 0
4, 34032, Note_on_c, 1, 55, 75
4, 34077, Note_on_c, 1, 55, 0
4, 34080, Note_on_c, 1, 48, 75
4, 34125, Note_on_c, 1, 48, 0
4, 34224, Note_on_c, 1, 58, 75
4, 34236, Note_on_c, 1, 58, 0
4, 34236, Note_on_c, 1, 55, 75
4, 34248, Note_on_c, 1, 55, 0
4, 34248, Note_on_c, 1, 58, 75
4, 34260, Note_on_c, 1, 58, 0
4, 34260, Note_on_c, 1, 55, 75
4, 34272, Note_on_c, 1, 55, 0
4, 34272, Note_on_c, 1, 52, 75
4, 34317, Note_on_c, 1, 52, 0
4, 34320, Note_on_c, 1, 70, 75
4, 34365, Note_on_c, 1, 70, 0
4, 34368, Note_on_c, 1, 69, 75
4, 34413, Note_on_c, 1, 69, 0
4, 34416, Note_on_c, 1, 48, 75
4, 34428, Note_on_c, 1, 48, 0
4, 34428, Note_on_c, 1, 45, 75
4, 34440, Note_on_c, 1, 45, 0
4, 34440, Note_on_c, 1, 48, 75
4, 34452, Note_on_c, 1, 48, 0
4, 34452, Note_on_c, 1, 45, 75
4, 34464, Note_on_c, 1, 45, 0
4, 34464, Note_on_c, 1, 41, 75
4, 34509, Note_on_c, 1, 41, 0
4, 34608, Note_on_c, 1, 63, 75
4, 34620, Note_on_c, 1, 63, 0
4, 34620, Note_on_c, 1, 60, 75
4, 34632, Note_on_c, 1, 60, 0
4, 34632, Note_on_c, 1, 63, 75
4, 34644, Note_on_c, 1, 63, 0
4, 34644, Note_on_c, 1, 60, 75
4, 34656, Note_on_c, 1, 60, 0
4, 34656, Note_on_c, 1, 57, 75
4, 34701, Note_on_c, 1, 57, 0
4, 34704, Note_on_c, 1, 75, 75
4, 34749, Note_on_c, 1, 75, 0
4, 34752, Note_on_c, 1, 74, 75
4, 34797, Note_on_c, 1, 74, 0
4, 34824, Note_on_c, 1, 70, 75
4, 34847, Note_on_c, 1, 70, 0
4, 34848, Note_on_c, 1, 72, 75
4, 34893, Note_on_c, 1, 72, 0
4, 34896, Note_on_c, 1, 69, 75
4, 34941, Note_on_c, 1, 69, 0
4, 34944, Note_on_c, 1, 70, 75
4, 34989, Note_on_c, 1, 70, 0
4, 35016, Note_on_c, 1, 67, 75
4, 35039, Note_on_c, 1, 67, 0
4, 35040, Note_on_c, 1, 69, 75
4, 35085, Note_on_c, 1, 69, 0
4, 35088, Note_on_c, 1, 66, 75
4, 35133, Note_on_c, 1, 66, 0
4, 35136, Note_on_c, 1, 67, 75
4, 35181, Note_on_c, 1, 67, 0
4, 35208, Note_on_c, 1, 64, 75
4, 35231, Note_on_c, 1, 64, 0
4, 35232, Note_on_c, 1, 65, 75
4, 35277, Note_on_c, 1, 65, 0
4, 35280, Note_on_c, 1, 62, 75
4, 35325, Note_on_c, 1, 62, 0
4, 35328, Note_on_c, 1, 64, 75
4, 35373, Note_on_c, 1, 64, 0
4, 35400, Note_on_c, 1, 61, 78
4, 35423, Note_on_c, 1, 61, 0
4, 35424, Note_on_c, 1, 62, 79
4, 35469, Note_on_c, 1, 62, 0
4, 35472, Note_on_c, 1, 56, 81
4, 35517, Note_on_c, 1, 56, 0
4, 35520, Note_on_c, 1, 45, 84
4, 35532, Note_on_c, 1, 45, 0
4, 35532, Note_on_c, 1, 57, 84
4, 35544, Note_on_c, 1, 57, 0
4, 35544, Note_on_c, 1, 56, 84
4, 35556, Note_on_c, 1, 56, 0
4, 35556, Note_on_c, 1, 57, 84
4, 35568, Note_on_c, 1, 57, 0
4, 35568, Note_on_c, 1, 45, 84
4, 35580, Note_on_c, 1, 45, 0
4, 35580, Note_on_c, 1, 57, 84
4, 35592, Note_on_c, 1, 57, 0
4, 35592, Note_on_c, 1, 56, 84
4, 35604, Note_on_c, 1, 56, 0
4, 35604, Note_on_c, 1, 57, 84
4, 35616, Note_on_c, 1, 57, 0
4, 35616, Note_on_c, 1, 45, 84
4, 35628, Note_on_c, 1, 45, 0
4, 35628, Note_on_c, 1, 57, 84
4, 35640, Note_on_c, 1, 57, 0
4, 35640, Note_on_c, 1, 56, 84
4, 35652, Note_on_c, 1, 56, 0
4, 35652, Note_on_c, 1, 57, 84
4, 35664, Note_on_c, 1, 57, 0
4, 35664, Note_on_c, 1, 45, 84
4, 35676, Note_on_c, 1, 45, 0
4, 35676, Note_on_c, 1, 57, 84
4, 35688, Note_on_c, 1, 57, 0
4, 35688, Note_on_c, 1, 56, 84
4, 35700, Note_on_c, 1, 56, 0
4, 35700, Note_on_c, 1, 57, 84
4, 35712, Note_on_c, 1, 57, 0
4, 35712, Note_on_c, 1, 45, 84
4, 35757, Note_on_c, 1, 45, 0
4, 35760, Note_on_c, 1, 65, 84
4, 35805, Note_on_c, 1, 65, 0
4, 35808, Note_on_c, 1, 64, 87
4, 35853, Note_on_c, 1, 64, 0
4, 35856, Note_on_c, 1, 62, 90
4, 35901, Note_on_c, 1, 62, 0
4, 35904, Note_on_c, 1, 61, 90
4, 35993, Note_on_c, 1, 61, 0
4, 36096, Note_on_c, 1, 50, 60
4, 36119, Note_on_c, 1, 50, 0
4, 36120, Note_on_c, 1, 53, 60
4, 36143, Note_on_c, 1, 53, 0
4, 36144, Note_on_c, 1, 50, 60
4, 36167, Note_on_c, 1, 50, 0
4, 36168, Note_on_c, 1, 53, 60
4, 36191, Note_on_c, 1, 53, 0
4, 36192, Note_on_c, 1, 50, 60
4, 36215, Note_on_c, 1, 50, 0
4, 36216, Note_on_c, 1, 53, 60
4, 36239, Note_on_c, 1, 53, 0
4, 36240, Note_on_c, 1, 50, 60
4, 36263, Note_on_c, 1, 50, 0
4, 36264, Note_on_c, 1, 53, 60
4, 36287, Note_on_c, 1, 53, 0
4, 36288, Note_on_c, 1, 52, 60
4, 36311, Note_on_c, 1, 52, 0
4, 36312, Note_on_c, 1, 55, 60
4, 36335, Note_on_c, 1, 55, 0
4, 36336, Note_on_c, 1, 52, 60
4, 36359, Note_on_c, 1, 52, 0
4, 36360, Note_on_c, 1, 55, 60
4, 36383, Note_on_c, 1, 55, 0
4, 36384, Note_on_c, 1, 52, 60
4, 36407, Note_on_c, 1, 52, 0
4, 36408, Note_on_c, 1, 55, 60
4, 36431, Note_on_c, 1, 55, 0
4, 36432, Note_on_c, 1, 52, 60
4, 36455, Note_on_c, 1, 52, 0
4, 36456, Note_on_c, 1, 55, 60
4, 36479, Note_on_c, 1, 55, 0
4, 36480, Note_on_c, 1, 52, 60
4, 36503, Note_on_c, 1, 52, 0
4, 36504, Note_on_c, 1, 55, 60
4, 36527, Note_on_c, 1, 55, 0
4, 36528, Note_on_c, 1, 52, 60
4, 36551, Note_on_c, 1, 52, 0
4, 36552, Note_on_c, 1, 55, 60
4, 36575, Note_on_c, 1, 55, 0
4, 36576, Note_on_c, 1, 52, 60
4, 36599, Note_on_c, 1, 52, 0
4, 36600, Note_on_c, 1, 55, 60
4, 36623, Note_on_c, 1, 55, 0
4, 36624, Note_on_c, 1, 52, 60
4, 36647, Note_on_c, 1, 52, 0
4, 36648, Note_on_c, 1, 55, 60
4, 36671, Note_on_c, 1, 55, 0
4, 36672, Note_on_c, 1, 53, 60
4, 36695, Note_on_c, 1, 53, 0
4, 36696, Note_on_c, 1, 57, 60
4, 36719, Note_on_c, 1, 57, 0
4, 36720, Note_on_c, 1, 53, 60
4, 36743, Note_on_c, 1, 53, 0
4, 36744, Note_on_c, 1, 57, 60
4, 36767, Note_on_c, 1, 57, 0
4, 36768, Note_on_c, 1, 53, 60
4, 36791, Note_on_c, 1, 53, 0
4, 36792, Note_on_c, 1, 57, 60
4, 36815, Note_on_c, 1, 57, 0
4, 36816, Note_on_c, 1, 53, 60
4, 36839, Note_on_c, 1, 53, 0
4, 36840, Note_on_c, 1, 57, 60
4, 36863, Note_on_c, 1, 57, 0
4, 36864, Note_on_c, 1, 53, 60
4, 36887, Note_on_c, 1, 53, 0
4, 36888, Note_on_c, 1, 57, 60
4, 36911, Note_on_c, 1, 57, 0
4, 36912, Note_on_c, 1, 53, 61
4, 36935, Note_on_c, 1, 53, 0
4, 36936, Note_on_c, 1, 57, 62
4, 36959, Note_on_c, 1, 57, 0
4, 36960, Note_on_c, 1, 54, 63
4, 36983, Note_on_c, 1, 54, 0
4, 36984, Note_on_c, 1, 62, 63
4, 37007, Note_on_c, 1, 62, 0
4, 37008, Note_on_c, 1, 54, 64
4, 37031, Note_on_c, 1, 54, 0
4, 37032, Note_on_c, 1, 62, 65
4, 37055, Note_on_c, 1, 62, 0
4, 37056, Note_on_c, 1, 55, 66
4, 37079, Note_on_c, 1, 55, 0
4, 37080, Note_on_c, 1, 62, 66
4, 37103, Note_on_c, 1, 62, 0
4, 37104, Note_on_c, 1, 55, 67
4, 37127, Note_on_c, 1, 55, 0
4, 37128, Note_on_c, 1, 62, 68
4, 37151, Note_on_c, 1, 62, 0
4, 37152, Note_on_c, 1, 56, 69
4, 37175, Note_on_c, 1, 56, 0
4, 37176, Note_on_c, 1, 64, 69
4, 37199, Note_on_c, 1, 64, 0
4, 37200, Note_on_c, 1, 56, 70
4, 37223, Note_on_c, 1, 56, 0
4, 37224, Note_on_c, 1, 64, 71
4, 37247, Note_on_c, 1, 64, 0
4, 37248, Note_on_c, 1, 57, 72
4, 37271, Note_on_c, 1, 57, 0
4, 37272, Note_on_c, 1, 64, 72
4, 37295, Note_on_c, 1, 64, 0
4, 37296, Note_on_c, 1, 57, 73
4, 37319, Note_on_c, 1, 57, 0
4, 37320, Note_on_c, 1, 64, 74
4, 37343, Note_on_c, 1, 64, 0
4, 37344, Note_on_c, 1, 61, 75
4, 37367, Note_on_c, 1, 61, 0
4, 37368, Note_on_c, 1, 69, 75
4, 37391, Note_on_c, 1, 69, 0
4, 37392, Note_on_c, 1, 61, 76
4, 37415, Note_on_c, 1, 61, 0
4, 37416, Note_on_c, 1, 69, 77
4, 37439, Note_on_c, 1, 69, 0
4, 39168, Note_on_c, 1, 50, 90
4, 39180, Note_on_c, 1, 50, 0
4, 39180, Note_on_c, 1, 62, 90
4, 39192, Note_on_c, 1, 62, 0
4, 39192, Note_on_c, 1, 61, 90
4, 39204, Note_on_c, 1, 61, 0
4, 39204, Note_on_c, 1, 62, 90
4, 39216, Note_on_c, 1, 62, 0
4, 39216, Note_on_c, 1, 50, 90
4, 39228, Note_on_c, 1, 50, 0
4, 39228, Note_on_c, 1, 62, 90
4, 39240, Note_on_c, 1, 62, 0
4, 39240, Note_on_c, 1, 61, 90
4, 39252, Note_on_c, 1, 61, 0
4, 39252, Note_on_c, 1, 62, 90
4, 39264, Note_on_c, 1, 62, 0
4, 39264, Note_on_c, 1, 50, 90
4, 39276, Note_on_c, 1, 50, 0
4, 39276, Note_on_c, 1, 62, 90
4, 39288, Note_on_c, 1, 62, 0
4, 39288, Note_on_c, 1, 61, 90
4, 39300, Note_on_c, 1, 61, 0
4, 39300, Note_on_c, 1, 62, 90
4, 39312, Note_on_c, 1, 62, 0
4, 39312, Note_on_c, 1, 50, 90
4, 39324, Note_on_c, 1, 50, 0
4, 39324, Note_on_c, 1, 62, 90
4, 39336, Note_on_c, 1, 62, 0
4, 39336, Note_on_c, 1, 61, 90
4, 39348, Note_on_c, 1, 61, 0
4, 39348, Note_on_c, 1, 62, 90
4, 39360, Note_on_c, 1, 62, 0
4, 39360, Note_on_c, 1, 50, 90
4, 39372, Note_on_c, 1, 50, 0
4, 39372, Note_on_c, 1, 62, 90
4, 39384, Note_on_c, 1, 62, 0
4, 39384, Note_on_c, 1, 61, 90
4, 39396, Note_on_c, 1, 61, 0
4, 39396, Note_on_c, 1, 62, 90
4, 39408, Note_on_c, 1, 62, 0
4, 39408, Note_on_c, 1, 50, 90
4, 39420, Note_on_c, 1, 50, 0
4, 39420, Note_on_c, 1, 62, 90
4, 39432, Note_on_c, 1, 62, 0
4, 39432, Note_on_c, 1, 61, 90
4, 39444, Note_on_c, 1, 61, 0
4, 39444, Note_on_c, 1, 62, 90
4, 39456, Note_on_c, 1, 62, 0
4, 39456, Note_on_c, 1, 50, 90
4, 39468, Note_on_c, 1, 50, 0
4, 39468, Note_on_c, 1, 62, 90
4, 39480, Note_on_c, 1, 62, 0
4, 39480, Note_on_c, 1, 61, 90
4, 39492, Note_on_c, 1, 61, 0
4, 39492, Note_on_c, 1, 62, 90
4, 39504, Note_on_c, 1, 62, 0
4, 39504, Note_on_c, 1, 50, 90
4, 39516, Note_on_c, 1, 50, 0
4, 39516, Note_on_c, 1, 62, 90
4, 39528, Note_on_c, 1, 62, 0
4, 39528, Note_on_c, 1, 61, 90
4, 39540, Note_on_c, 1, 61, 0
4, 39540, Note_on_c, 1, 62, 90
4, 39552, Note_on_c, 1, 62, 0
4, 39552, Note_on_c, 1, 55, 90
4, 39641, Note_on_c, 1, 55, 0
4, 39744, Note_on_c, 1, 48, 90
4, 39756, Note_on_c, 1, 48, 0
4, 39756, Note_on_c, 1, 60, 90
4, 39768, Note_on_c, 1, 60, 0
4, 39768, Note_on_c, 1, 59, 90
4, 39780, Note_on_c, 1, 59, 0
4, 39780, Note_on_c, 1, 60, 90
4, 39792, Note_on_c, 1, 60, 0
4, 39792, Note_on_c, 1, 48, 90
4, 39804, Note_on_c, 1, 48, 0
4, 39804, Note_on_c, 1, 60, 90
4, 39816, Note_on_c, 1, 60, 0
4, 39816, Note_on_c, 1, 59, 90
4, 39828, Note_on_c, 1, 59, 0
4, 39828, Note_on_c, 1, 60, 90
4, 39840, Note_on_c, 1, 60, 0
4, 39840, Note_on_c, 1, 48, 90
4, 39852, Note_on_c, 1, 48, 0
4, 39852, Note_on_c, 1, 60, 90
4, 39864, Note_on_c, 1, 60, 0
4, 39864, Note_on_c, 1, 59, 90
4, 39876, Note_on_c, 1, 59, 0
4, 39876, Note_on_c, 1, 60, 90
4, 39888, Note_on_c, 1, 60, 0
4, 39888, Note_on_c, 1, 48, 90
4, 39900, Note_on_c, 1, 48, 0
4, 39900, Note_on_c, 1, 60, 90
4, 39912, Note_on_c, 1, 60, 0
4, 39912, Note_on_c, 1, 59, 90
4, 39924, Note_on_c, 1, 59, 0
4, 39924, Note_on_c, 1, 60, 90
4, 39936, Note_on_c, 1, 60, 0
4, 39936, Note_on_c, 1, 48, 90
4, 39948, Note_on_c, 1, 48, 0
4, 39948, Note_on_c, 1, 60, 90
4, 39960, Note_on_c, 1, 60, 0
4, 39960, Note_on_c, 1, 59, 90
4, 39972, Note_on_c, 1, 59, 0
4, 39972, Note_on_c, 1, 60, 90
4, 39984, Note_on_c, 1, 60, 0
4, 39984, Note_on_c, 1, 48, 90
4, 39996, Note_on_c, 1, 48, 0
4, 39996, Note_on_c, 1, 60, 90
4, 40008, Note_on_c, 1, 60, 0
4, 40008, Note_on_c, 1, 59, 90
4, 40020, Note_on_c, 1, 59, 0
4, 40020, Note_on_c, 1, 60, 90
4, 40032, Note_on_c, 1, 60, 0
4, 40032, Note_on_c, 1, 48, 90
4, 40044, Note_on_c, 1, 48, 0
4, 40044, Note_on_c, 1, 60, 90
4, 40056, Note_on_c, 1, 60, 0
4, 40056, Note_on_c, 1, 59, 90
4, 40068, Note_on_c, 1, 59, 0
4, 40068, Note_on_c, 1, 60, 90
4, 40080, Note_on_c, 1, 60, 0
4, 40080, Note_on_c, 1, 48, 90
4, 40092, Note_on_c, 1, 48, 0
4, 40092, Note_on_c, 1, 60, 90
4, 40104, Note_on_c, 1, 60, 0
4, 40104, Note_on_c, 1, 59, 90
4, 40116, Note_on_c, 1, 59, 0
4, 40116, Note_on_c, 1, 60, 90
4, 40128, Note_on_c, 1, 60, 0
4, 40128, Note_on_c, 1, 48, 90
4, 40140, Note_on_c, 1, 48, 0
4, 40140, Note_on_c, 1, 60, 90
4, 40152, Note_on_c, 1, 60, 0
4, 40152, Note_on_c, 1, 59, 90
4, 40164, Note_on_c, 1, 59, 0
4, 40164, Note_on_c, 1, 60, 90
4, 40176, Note_on_c, 1, 60, 0
4, 40176, Note_on_c, 1, 48, 90
4, 40188, Note_on_c, 1, 48, 0
4, 40188, Note_on_c, 1, 60, 90
4, 40200, Note_on_c, 1, 60, 0
4, 40200, Note_on_c, 1, 59, 90
4, 40212, Note_on_c, 1, 59, 0
4, 40212, Note_on_c, 1, 60, 90
4, 40224, Note_on_c, 1, 60, 0
4, 40224, Note_on_c, 1, 48, 90
4, 40236, Note_on_c, 1, 48, 0
4, 40236, Note_on_c, 1, 60, 90
4, 40248, Note_on_c, 1, 60, 0
4, 40248, Note_on_c, 1, 59, 90
4, 40260, Note_on_c, 1, 59, 0
4, 40260, Note_on_c, 1, 60, 90
4, 40272, Note_on_c, 1, 60, 0
4, 40272, Note_on_c, 1, 48, 90
4, 40284, Note_on_c, 1, 48, 0
4, 40284, Note_on_c, 1, 60, 90
4, 40296, Note_on_c, 1, 60, 0
4, 40296, Note_on_c, 1, 59, 90
4, 40308, Note_on_c, 1, 59, 0
4, 40308, Note_on_c, 1, 60, 90
4, 40320, Note_on_c, 1, 60, 0
4, 40320, Note_on_c, 1, 48, 90
4, 40365, Note_on_c, 1, 48, 0
4, 40512, Note_on_c, 1, 48, 75
4, 40512, Note_on_c, 1, 36, 75
4, 40532, Note_on_c, 1, 48, 0
4, 40532, Note_on_c, 1, 36, 0
4, 40584, Note_on_c, 1, 58, 60
4, 40596, Note_on_c, 1, 58, 0
4, 40596, Note_on_c, 1, 60, 60
4, 40608, Note_on_c, 1, 60, 0
4, 40608, Note_on_c, 1, 64, 60
4, 40618, Note_on_c, 1, 64, 0
4, 40632, Note_on_c, 1, 60, 60
4, 40644, Note_on_c, 1, 60, 0
4, 40644, Note_on_c, 1, 64, 60
4, 40656, Note_on_c, 1, 64, 0
4, 40656, Note_on_c, 1, 67, 60
4, 40666, Note_on_c, 1, 67, 0
4, 40680, Note_on_c, 1, 64, 60
4, 40692, Note_on_c, 1, 64, 0
4, 40692, Note_on_c, 1, 67, 60
4, 40704, Note_on_c, 1, 67, 0
4, 40704, Note_on_c, 1, 70, 60
4, 40724, Note_on_c, 1, 70, 0
4, 40896, Note_on_c, 1, 57, 75
4, 40896, Note_on_c, 1, 53, 75
4, 40941, Note_on_c, 1, 57, 0
4, 40941, Note_on_c, 1, 53, 0
4, 40992, Note_on_c, 1, 58, 75
4, 40992, Note_on_c, 1, 48, 75
4, 41037, Note_on_c, 1, 58, 0
4, 41037, Note_on_c, 1, 48, 0
4, 41088, Note_on_c, 1, 57, 75
4, 41088, Note_on_c, 1, 53, 75
4, 41133, Note_on_c, 1, 57, 0
4, 41133, Note_on_c, 1, 53, 0
4, 41328, Note_on_c, 1, 65, 75
4, 41373, Note_on_c, 1, 65, 0
4, 41376, Note_on_c, 1, 67, 75
4, 41421, Note_on_c, 1, 67, 0
4, 41424, Note_on_c, 1, 60, 75
4, 41469, Note_on_c, 1, 60, 0
4, 41472, Note_on_c, 1, 65, 75
4, 41517, Note_on_c, 1, 65, 0
4, 41520, Note_on_c, 1, 60, 75
4, 41565, Note_on_c, 1, 60, 0
4, 41568, Note_on_c, 1, 53, 75
4, 41613, Note_on_c, 1, 53, 0
4, 41664, Note_on_c, 1, 57, 75
4, 41664, Note_on_c, 1, 53, 75
4, 41709, Note_on_c, 1, 57, 0
4, 41709, Note_on_c, 1, 53, 0
4, 41760, Note_on_c, 1, 58, 75
4, 41760, Note_on_c, 1, 48, 75
4, 41805, Note_on_c, 1, 58, 0
4, 41805, Note_on_c, 1, 48, 0
4, 41856, Note_on_c, 1, 57, 75
4, 41856, Note_on_c, 1, 53, 75
4, 41901, Note_on_c, 1, 57, 0
4, 41901, Note_on_c, 1, 53, 0
4, 41904, Note_on_c, 1, 70, 75
4, 41949, Note_on_c, 1, 70, 0
4, 41952, Note_on_c, 1, 69, 75
4, 41997, Note_on_c, 1, 69, 0
4, 42096, Note_on_c, 1, 65, 75
4, 42144, Note_on_c, 1, 65, 0
4, 42144, Note_on_c, 1, 67, 75
4, 42191, Note_on_c, 1, 67, 0
4, 42288, Note_on_c, 1, 64, 70
4, 42288, Note_on_c, 1, 60, 70
4, 42336, Note_on_c, 1, 64, 0
4, 42336, Note_on_c, 1, 60, 0
4, 42336, Note_on_c, 1, 65, 65
4, 42336, Note_on_c, 1, 62, 65
4, 42383, Note_on_c, 1, 65, 0
4, 42383, Note_on_c, 1, 62, 0
4, 42480, Note_on_c, 1, 57, 60
4, 42480, Note_on_c, 1, 53, 60
4, 42525, Note_on_c, 1, 57, 0
4, 42525, Note_on_c, 1, 53, 0
4, 42528, Note_on_c, 1, 58, 60
4, 42528, Note_on_c, 1, 55, 60
4, 42573, Note_on_c, 1, 58, 0
4, 42573, Note_on_c, 1, 55, 0
4, 42576, Note_on_c, 1, 60, 60
4, 42576, Note_on_c, 1, 57, 60
4, 42621, Note_on_c, 1, 60, 0
4, 42621, Note_on_c, 1, 57, 0
4, 42624, Note_on_c, 1, 58, 60
4, 42713, Note_on_c, 1, 58, 0
4, 42792, Note_on_c, 1, 46, 75
4, 42815, Note_on_c, 1, 46, 0
4, 42816, Note_on_c, 1, 48, 75
4, 42883, Note_on_c, 1, 48, 0
4, 42888, Note_on_c, 1, 55, 75
4, 42900, Note_on_c, 1, 55, 0
4, 42900, Note_on_c, 1, 52, 75
4, 42912, Note_on_c, 1, 52, 0
4, 42912, Note_on_c, 1, 48, 75
4, 42935, Note_on_c, 1, 48, 0
4, 42936, Note_on_c, 1, 62, 75
4, 42936, Note_on_c, 1, 58, 75
4, 42959, Note_on_c, 1, 62, 0
4, 42959, Note_on_c, 1, 58, 0
4, 42960, Note_on_c, 1, 60, 75
4, 42960, Note_on_c, 1, 57, 75
4, 42983, Note_on_c, 1, 60, 0
4, 42983, Note_on_c, 1, 57, 0
4, 42984, Note_on_c, 1, 58, 75
4, 42984, Note_on_c, 1, 55, 75
4, 43007, Note_on_c, 1, 58, 0
4, 43007, Note_on_c, 1, 55, 0
4, 43008, Note_on_c, 1, 57, 75
4, 43008, Note_on_c, 1, 53, 75
4, 43097, Note_on_c, 1, 57, 0
4, 43097, Note_on_c, 1, 53, 0
4, 43152, Note_on_c, 1, 57, 75
4, 43197, Note_on_c, 1, 57, 0
4, 43200, Note_on_c, 1, 58, 75
4, 43220, Note_on_c, 1, 58, 0
4, 43248, Note_on_c, 1, 57, 75
4, 43268, Note_on_c, 1, 57, 0
4, 43296, Note_on_c, 1, 55, 75
4, 43344, Note_on_c, 1, 55, 0
4, 43344, Note_on_c, 1, 48, 75
4, 43389, Note_on_c, 1, 48, 0
4, 43392, Note_on_c, 1, 53, 75
4, 43440, Note_on_c, 1, 53, 0
4, 43440, Note_on_c, 1, 57, 75
4, 43485, Note_on_c, 1, 57, 0
4, 43536, Note_on_c, 1, 57, 75
4, 43581, Note_on_c, 1, 57, 0
4, 43584, Note_on_c, 1, 58, 75
4, 43604, Note_on_c, 1, 58, 0
4, 43632, Note_on_c, 1, 57, 75
4, 43652, Note_on_c, 1, 57, 0
4, 43680, Note_on_c, 1, 55, 75
4, 43728, Note_on_c, 1, 55, 0
4, 43728, Note_on_c, 1, 48, 75
4, 43773, Note_on_c, 1, 48, 0
4, 43776, Note_on_c, 1, 53, 75
4, 43821, Note_on_c, 1, 53, 0
4, 43824, Note_on_c, 1, 65, 75
4, 43869, Note_on_c, 1, 65, 0
4, 43872, Note_on_c, 1, 64, 75
4, 43917, Note_on_c, 1, 64, 0
4, 43920, Note_on_c, 1, 52, 75
4, 43965, Note_on_c, 1, 52, 0
4, 43968, Note_on_c, 1, 50, 75
4, 44013, Note_on_c, 1, 50, 0
4, 44016, Note_on_c, 1, 62, 75
4, 44061, Note_on_c, 1, 62, 0
4, 44064, Note_on_c, 1, 60, 75
4, 44109, Note_on_c, 1, 60, 0
4, 44112, Note_on_c, 1, 48, 75
4, 44157, Note_on_c, 1, 48, 0
4, 44160, Note_on_c, 1, 46, 75
4, 44205, Note_on_c, 1, 46, 0
4, 44208, Note_on_c, 1, 58, 75
4, 44253, Note_on_c, 1, 58, 0
4, 44256, Note_on_c, 1, 57, 75
4, 44301, Note_on_c, 1, 57, 0
4, 44304, Note_on_c, 1, 45, 75
4, 44349, Note_on_c, 1, 45, 0
4, 44544, Note_on_c, 1, 60, 75
4, 44566, Note_on_c, 1, 60, 0
4, 44566, Note_on_c, 1, 62, 73
4, 44576, Note_on_c, 1, 62, 0
4, 44576, Note_on_c, 1, 60, 73
4, 44586, Note_on_c, 1, 60, 0
4, 44586, Note_on_c, 1, 62, 72
4, 44596, Note_on_c, 1, 62, 0
4, 44596, Note_on_c, 1, 60, 72
4, 44606, Note_on_c, 1, 60, 0
4, 44606, Note_on_c, 1, 62, 71
4, 44616, Note_on_c, 1, 62, 0
4, 44616, Note_on_c, 1, 60, 70
4, 44626, Note_on_c, 1, 60, 0
4, 44626, Note_on_c, 1, 62, 70
4, 44636, Note_on_c, 1, 62, 0
4, 44636, Note_on_c, 1, 60, 69
4, 44646, Note_on_c, 1, 60, 0
4, 44646, Note_on_c, 1, 62, 69
4, 44656, Note_on_c, 1, 62, 0
4, 44656, Note_on_c, 1, 60, 68
4, 44666, Note_on_c, 1, 60, 0
4, 44666, Note_on_c, 1, 62, 67
4, 44676, Note_on_c, 1, 62, 0
4, 44676, Note_on_c, 1, 60, 67
4, 44686, Note_on_c, 1, 60, 0
4, 44686, Note_on_c, 1, 62, 66
4, 44696, Note_on_c, 1, 62, 0
4, 44696, Note_on_c, 1, 60, 60
4, 44706, Note_on_c, 1, 60, 0
4, 44706, Note_on_c, 1, 62, 60
4, 44716, Note_on_c, 1, 62, 0
4, 44716, Note_on_c, 1, 60, 60
4, 44726, Note_on_c, 1, 60, 0
4, 44726, Note_on_c, 1, 62, 60
4, 44736, Note_on_c, 1, 62, 0
4, 44736, Note_on_c, 1, 60, 60
4, 44747, Note_on_c, 1, 60, 0
4, 44747, Note_on_c, 1, 62, 60
4, 44758, Note_on_c, 1, 62, 0
4, 44758, Note_on_c, 1, 60, 60
4, 44768, Note_on_c, 1, 60, 0
4, 44768, Note_on_c, 1, 62, 60
4, 44778, Note_on_c, 1, 62, 0
4, 44778, Note_on_c, 1, 60, 60
4, 44788, Note_on_c, 1, 60, 0
4, 44788, Note_on_c, 1, 62, 60
4, 44798, Note_on_c, 1, 62, 0
4, 44798, Note_on_c, 1, 60, 60
4, 44808, Note_on_c, 1, 60, 0
4, 44808, Note_on_c, 1, 62, 60
4, 44818, Note_on_c, 1, 62, 0
4, 44818, Note_on_c, 1, 60, 60
4, 44828, Note_on_c, 1, 60, 0
4, 44828, Note_on_c, 1, 62, 60
4, 44838, Note_on_c, 1, 62, 0
4, 44838, Note_on_c, 1, 60, 60
4, 44848, Note_on_c, 1, 60, 0
4, 44848, Note_on_c, 1, 62, 60
4, 44858, Note_on_c, 1, 62, 0
4, 44858, Note_on_c, 1, 60, 60
4, 44868, Note_on_c, 1, 60, 0
4, 44868, Note_on_c, 1, 62, 60
4, 44878, Note_on_c, 1, 62, 0
4, 44878, Note_on_c, 1, 60, 60
4, 44888, Note_on_c, 1, 60, 0
4, 44888, Note_on_c, 1, 62, 60
4, 44898, Note_on_c, 1, 62, 0
4, 44898, Note_on_c, 1, 60, 60
4, 44908, Note_on_c, 1, 60, 0
4, 44908, Note_on_c, 1, 62, 60
4, 44918, Note_on_c, 1, 62, 0
4, 44918, Note_on_c, 1, 60, 60
4, 44928, Note_on_c, 1, 60, 0
4, 44928, Note_on_c, 1, 62, 60
4, 44939, Note_on_c, 1, 62, 0
4, 44939, Note_on_c, 1, 60, 60
4, 44950, Note_on_c, 1, 60, 0
4, 44950, Note_on_c, 1, 62, 60
4, 44960, Note_on_c, 1, 62, 0
4, 44960, Note_on_c, 1, 60, 60
4, 44970, Note_on_c, 1, 60, 0
4, 44970, Note_on_c, 1, 62, 60
4, 44980, Note_on_c, 1, 62, 0
4, 44980, Note_on_c, 1, 60, 60
4, 44990, Note_on_c, 1, 60, 0
4, 44990, Note_on_c, 1, 62, 60
4, 45000, Note_on_c, 1, 62, 0
4, 45000, Note_on_c, 1, 60, 60
4, 45010, Note_on_c, 1, 60, 0
4, 45010, Note_on_c, 1, 62, 60
4, 45020, Note_on_c, 1, 62, 0
4, 45020, Note_on_c, 1, 60, 60
4, 45030, Note_on_c, 1, 60, 0
4, 45030, Note_on_c, 1, 62, 60
4, 45040, Note_on_c, 1, 62, 0
4, 45040, Note_on_c, 1, 60, 60
4, 45050, Note_on_c, 1, 60, 0
4, 45050, Note_on_c, 1, 62, 60
4, 45060, Note_on_c, 1, 62, 0
4, 45060, Note_on_c, 1, 60, 60
4, 45070, Note_on_c, 1, 60, 0
4, 45070, Note_on_c, 1, 62, 60
4, 45080, Note_on_c, 1, 62, 0
4, 45080, Note_on_c, 1, 60, 60
4, 45090, Note_on_c, 1, 60, 0
4, 45090, Note_on_c, 1, 62, 60
4, 45100, Note_on_c, 1, 62, 0
4, 45100, Note_on_c, 1, 60, 60
4, 45110, Note_on_c, 1, 60, 0
4, 45110, Note_on_c, 1, 62, 60
4, 45120, Note_on_c, 1, 62, 0
4, 45120, Note_on_c, 1, 60, 60
4, 45131, Note_on_c, 1, 60, 0
4, 45131, Note_on_c, 1, 62, 60
4, 45142, Note_on_c, 1, 62, 0
4, 45142, Note_on_c, 1, 60, 60
4, 45152, Note_on_c, 1, 60, 0
4, 45152, Note_on_c, 1, 62, 60
4, 45162, Note_on_c, 1, 62, 0
4, 45162, Note_on_c, 1, 60, 60
4, 45172, Note_on_c, 1, 60, 0
4, 45172, Note_on_c, 1, 62, 60
4, 45182, Note_on_c, 1, 62, 0
4, 45182, Note_on_c, 1, 60, 60
4, 45192, Note_on_c, 1, 60, 0
4, 45192, Note_on_c, 1, 62, 60
4, 45202, Note_on_c, 1, 62, 0
4, 45202, Note_on_c, 1, 60, 60
4, 45212, Note_on_c, 1, 60, 0
4, 45212, Note_on_c, 1, 62, 60
4, 45222, Note_on_c, 1, 62, 0
4, 45222, Note_on_c, 1, 60, 60
4, 45232, Note_on_c, 1, 60, 0
4, 45232, Note_on_c, 1, 62, 60
4, 45242, Note_on_c, 1, 62, 0
4, 45242, Note_on_c, 1, 60, 60
4, 45252, Note_on_c, 1, 60, 0
4, 45252, Note_on_c, 1, 62, 60
4, 45262, Note_on_c, 1, 62, 0
4, 45262, Note_on_c, 1, 60, 60
4, 45272, Note_on_c, 1, 60, 0
4, 45272, Note_on_c, 1, 62, 60
4, 45282, Note_on_c, 1, 62, 0
4, 45282, Note_on_c, 1, 60, 60
4, 45292, Note_on_c, 1, 60, 0
4, 45292, Note_on_c, 1, 62, 60
4, 45302, Note_on_c, 1, 62, 0
4, 45302, Note_on_c, 1, 60, 60
4, 45312, Note_on_c, 1, 60, 0
4, 45312, Note_on_c, 1, 62, 60
4, 45323, Note_on_c, 1, 62, 0
4, 45323, Note_on_c, 1, 60, 60
4, 45334, Note_on_c, 1, 60, 0
4, 45334, Note_on_c, 1, 62, 60
4, 45344, Note_on_c, 1, 62, 0
4, 45344, Note_on_c, 1, 60, 60
4, 45354, Note_on_c, 1, 60, 0
4, 45354, Note_on_c, 1, 62, 60
4, 45364, Note_on_c, 1, 62, 0
4, 45364, Note_on_c, 1, 60, 60
4, 45374, Note_on_c, 1, 60, 0
4, 45374, Note_on_c, 1, 62, 60
4, 45384, Note_on_c, 1, 62, 0
4, 45384, Note_on_c, 1, 60, 60
4, 45394, Note_on_c, 1, 60, 0
4, 45394, Note_on_c, 1, 62, 60
4, 45404, Note_on_c, 1, 62, 0
4, 45404, Note_on_c, 1, 60, 60
4, 45414, Note_on_c, 1, 60, 0
4, 45414, Note_on_c, 1, 62, 60
4, 45424, Note_on_c, 1, 62, 0
4, 45424, Note_on_c, 1, 60, 60
4, 45434, Note_on_c, 1, 60, 0
4, 45434, Note_on_c, 1, 62, 60
4, 45444, Note_on_c, 1, 62, 0
4, 45444, Note_on_c, 1, 60, 60
4, 45454, Note_on_c, 1, 60, 0
4, 45454, Note_on_c, 1, 62, 60
4, 45464, Note_on_c, 1, 62, 0
4, 45464, Note_on_c, 1, 60, 60
4, 45474, Note_on_c, 1, 60, 0
4, 45474, Note_on_c, 1, 62, 60
4, 45484, Note_on_c, 1, 62, 0
4, 45484, Note_on_c, 1, 60, 60
4, 45494, Note_on_c, 1, 60, 0
4, 45494, Note_on_c, 1, 62, 60
4, 45504, Note_on_c, 1, 62, 0
4, 45504, Note_on_c, 1, 60, 60
4, 45515, Note_on_c, 1, 60, 0
4, 45515, Note_on_c, 1, 62, 60
4, 45526, Note_on_c, 1, 62, 0
4, 45526, Note_on_c, 1, 60, 60
4, 45536, Note_on_c, 1, 60, 0
4, 45536, Note_on_c, 1, 62, 60
4, 45546, Note_on_c, 1, 62, 0
4, 45546, Note_on_c, 1, 60, 60
4, 45556, Note_on_c, 1, 60, 0
4, 45556, Note_on_c, 1, 62, 60
4, 45566, Note_on_c, 1, 62, 0
4, 45566, Note_on_c, 1, 60, 60
4, 45576, Note_on_c, 1, 60, 0
4, 45576, Note_on_c, 1, 62, 60
4, 45586, Note_on_c, 1, 62, 0
4, 45586, Note_on_c, 1, 60, 60
4, 45596, Note_on_c, 1, 60, 0
4, 45596, Note_on_c, 1, 62, 60
4, 45606, Note_on_c, 1, 62, 0
4, 45606, Note_on_c, 1, 60, 60
4, 45616, Note_on_c, 1, 60, 0
4, 45616, Note_on_c, 1, 62, 60
4, 45626, Note_on_c, 1, 62, 0
4, 45626, Note_on_c, 1, 60, 60
4, 45636, Note_on_c, 1, 60, 0
4, 45636, Note_on_c, 1, 62, 60
4, 45646, Note_on_c, 1, 62, 0
4, 45646, Note_on_c, 1, 60, 60
4, 45656, Note_on_c, 1, 60, 0
4, 45656, Note_on_c, 1, 62, 60
4, 45666, Note_on_c, 1, 62, 0
4, 45666, Note_on_c, 1, 60, 60
4, 45676, Note_on_c, 1, 60, 0
4, 45676, Note_on_c, 1, 58, 60
4, 45686, Note_on_c, 1, 58, 0
4, 45686, Note_on_c, 1, 60, 60
4, 45696, Note_on_c, 1, 60, 0
4, 45696, Note_on_c, 1, 65, 75
4, 45741, Note_on_c, 1, 65, 0
4, 45744, Note_on_c, 1, 67, 75
4, 45789, Note_on_c, 1, 67, 0
4, 45792, Note_on_c, 1, 69, 75
4, 45837, Note_on_c, 1, 69, 0
4, 45840, Note_on_c, 1, 57, 75
4, 45885, Note_on_c, 1, 57, 0
4, 45888, Note_on_c, 1, 58, 75
4, 45933, Note_on_c, 1, 58, 0
4, 45936, Note_on_c, 1, 60, 75
4, 45981, Note_on_c, 1, 60, 0
4, 45984, Note_on_c, 1, 62, 75
4, 46029, Note_on_c, 1, 62, 0
4, 46056, Note_on_c, 1, 45, 84
4, 46079, Note_on_c, 1, 45, 0
4, 46080, Note_on_c, 1, 46, 84
4, 46147, Note_on_c, 1, 46, 0
4, 46152, Note_on_c, 1, 47, 84
4, 46175, Note_on_c, 1, 47, 0
4, 46176, Note_on_c, 1, 48, 84
4, 46221, Note_on_c, 1, 48, 0
4, 46224, Note_on_c, 1, 52, 84
4, 46269, Note_on_c, 1, 52, 0
4, 46272, Note_on_c, 1, 53, 84
4, 46272, Note_on_c, 1, 41, 84
4, 46361, Note_on_c, 1, 53, 0
4, 46361, Note_on_c, 1, 41, 0
4, 46368, Note_on_c, 1, 57, 84
4, 46388, Note_on_c, 1, 57, 0
4, 46416, Note_on_c, 1, 58, 84
4, 46436, Note_on_c, 1, 58, 0
4, 46464, Note_on_c, 1, 57, 84
4, 46509, Note_on_c, 1, 57, 0
4, 46560, Note_on_c, 1, 57, 68
4, 46580, Note_on_c, 1, 57, 0
4, 46608, Note_on_c, 1, 58, 68
4, 46628, Note_on_c, 1, 58, 0
4, 46656, Note_on_c, 1, 57, 68
4, 46701, Note_on_c, 1, 57, 0
4, 46752, Note_on_c, 1, 57, 75
4, 46772, Note_on_c, 1, 57, 0
4, 46800, Note_on_c, 1, 58, 75
4, 46820, Note_on_c, 1, 58, 0
4, 46848, Note_on_c, 1, 57, 75
4, 46893, Note_on_c, 1, 57, 0
4, 46944, Note_on_c, 1, 57, 68
4, 46964, Note_on_c, 1, 57, 0
4, 46992, Note_on_c, 1, 58, 68
4, 47012, Note_on_c, 1, 58, 0
4, 47040, Note_on_c, 1, 57, 68
4, 47060, Note_on_c, 1, 57, 0
4, 47088, Note_on_c, 1, 58, 68
4, 47108, Note_on_c, 1, 58, 0
4, 47136, Note_on_c, 1, 57, 68
4, 47156, Note_on_c, 1, 57, 0
4, 47184, Note_on_c, 1, 58, 68
4, 47204, Note_on_c, 1, 58, 0
4, 47232, Note_on_c, 1, 57, 75
4, 47326, Note_on_c, 1, 57, 0
4, 47328, Note_on_c, 1, 60, 75
4, 47328, Note_on_c, 1, 56, 75
4, 47422, Note_on_c, 1, 60, 0
4, 47422, Note_on_c, 1, 56, 0
4, 47424, Note_on_c, 1, 62, 75
4, 47424, Note_on_c, 1, 55, 75
4, 47518, Note_on_c, 1, 62, 0
4, 47518, Note_on_c, 1, 55, 0
4, 47520, Note_on_c, 1, 60, 75
4, 47520, Note_on_c, 1, 52, 75
4, 47614, Note_on_c, 1, 60, 0
4, 47614, Note_on_c, 1, 52, 0
4, 47616, Note_on_c, 1, 60, 75
4, 47616, Note_on_c, 1, 53, 75
4, 47710, Note_on_c, 1, 60, 0
4, 47710, Note_on_c, 1, 53, 0
4, 47760, Note_on_c, 1, 53, 75
4, 47760, Note_on_c, 1, 45, 75
4, 47808, Note_on_c, 1, 45, 0
4, 47853, Note_on_c, 1, 53, 0
4, 47856, Note_on_c, 1, 58, 75
4, 47901, Note_on_c, 1, 58, 0
4, 47904, Note_on_c, 1, 57, 75
4, 47949, Note_on_c, 1, 57, 0
4, 47952, Note_on_c, 1, 55, 75
4, 47997, Note_on_c, 1, 55, 0
4, 48000, Note_on_c, 1, 57, 75
4, 48000, Note_on_c, 1, 53, 75
4, 48089, Note_on_c, 1, 57, 0
4, 48089, Note_on_c, 1, 53, 0
4, 48144, Note_on_c, 1, 53, 75
4, 48144, Note_on_c, 1, 45, 75
4, 48192, Note_on_c, 1, 45, 0
4, 48237, Note_on_c, 1, 53, 0
4, 48240, Note_on_c, 1, 58, 75
4, 48285, Note_on_c, 1, 58, 0
4, 48288, Note_on_c, 1, 57, 75
4, 48333, Note_on_c, 1, 57, 0
4, 48336, Note_on_c, 1, 55, 75
4, 48381, Note_on_c, 1, 55, 0
4, 48384, Note_on_c, 1, 41, 75
4, 48396, Note_on_c, 1, 41, 0
4, 48396, Note_on_c, 1, 53, 75
4, 48408, Note_on_c, 1, 53, 0
4, 48408, Note_on_c, 1, 52, 75
4, 48420, Note_on_c, 1, 52, 0
4, 48420, Note_on_c, 1, 53, 75
4, 48432, Note_on_c, 1, 53, 0
4, 48432, Note_on_c, 1, 41, 75
4, 48444, Note_on_c, 1, 41, 0
4, 48444, Note_on_c, 1, 53, 75
4, 48456, Note_on_c, 1, 53, 0
4, 48456, Note_on_c, 1, 52, 75
4, 48468, Note_on_c, 1, 52, 0
4, 48468, Note_on_c, 1, 53, 75
4, 48480, Note_on_c, 1, 53, 0
4, 48480, Note_on_c, 1, 41, 75
4, 48492, Note_on_c, 1, 41, 0
4, 48492, Note_on_c, 1, 53, 75
4, 48504, Note_on_c, 1, 53, 0
4, 48504, Note_on_c, 1, 52, 75
4, 48516, Note_on_c, 1, 52, 0
4, 48516, Note_on_c, 1, 53, 75
4, 48528, Note_on_c, 1, 53, 0
4, 48528, Note_on_c, 1, 41, 75
4, 48540, Note_on_c, 1, 41, 0
4, 48540, Note_on_c, 1, 53, 75
4, 48552, Note_on_c, 1, 53, 0
4, 48552, Note_on_c, 1, 52, 75
4, 48564, Note_on_c, 1, 52, 0
4, 48564, Note_on_c, 1, 53, 75
4, 48576, Note_on_c, 1, 53, 0
4, 48576, Note_on_c, 1, 41, 75
4, 48588, Note_on_c, 1, 41, 0
4, 48588, Note_on_c, 1, 53, 75
4, 48600, Note_on_c, 1, 53, 0
4, 48600, Note_on_c, 1, 52, 75
4, 48612, Note_on_c, 1, 52, 0
4, 48612, Note_on_c, 1, 53, 75
4, 48624, Note_on_c, 1, 53, 0
4, 48624, Note_on_c, 1, 41, 75
4, 48636, Note_on_c, 1, 41, 0
4, 48636, Note_on_c, 1, 53, 75
4, 48648, Note_on_c, 1, 53, 0
4, 48648, Note_on_c, 1, 52, 75
4, 48660, Note_on_c, 1, 52, 0
4, 48660, Note_on_c, 1, 53, 75
4, 48672, Note_on_c, 1, 53, 0
4, 48672, Note_on_c, 1, 41, 75
4, 48684, Note_on_c, 1, 41, 0
4, 48684, Note_on_c, 1, 53, 75
4, 48696, Note_on_c, 1, 53, 0
4, 48696, Note_on_c, 1, 52, 75
4, 48708, Note_on_c, 1, 52, 0
4, 48708, Note_on_c, 1, 53, 75
4, 48720, Note_on_c, 1, 53, 0
4, 48720, Note_on_c, 1, 41, 75
4, 48732, Note_on_c, 1, 41, 0
4, 48732, Note_on_c, 1, 53, 75
4, 48744, Note_on_c, 1, 53, 0
4, 48744, Note_on_c, 1, 52, 75
4, 48756, Note_on_c, 1, 52, 0
4, 48756, Note_on_c, 1, 53, 75
4, 48768, Note_on_c, 1, 53, 0
4, 48768, Note_on_c, 1, 41, 75
4, 48857, Note_on_c, 1, 41, 0
4, 48960, Note_on_c, 1, 41, 0
4, 49049, Note_on_c, 1, 41, 0
4, 49056, End_track
5, 0, Start_track
5, 0, Program_c, 1, 0
5, 0, Control_c, 1, 7, 127
5, 0, Control_c, 1, 10, 64
5, 1392, Note_on_c, 1, 60, 64
5, 1486, Note_on_c, 1, 60, 0
5, 3840, Note_on_c, 1, 55, 64
5, 3907, Note_on_c, 1, 55, 0
5, 3912, Note_on_c, 1, 62, 64
5, 3924, Note_on_c, 1, 62, 0
5, 3924, Note_on_c, 1, 59, 64
5, 3936, Note_on_c, 1, 59, 0
5, 3936, Note_on_c, 1, 55, 64
5, 3959, Note_on_c, 1, 55, 0
5, 3960, Note_on_c, 1, 69, 64
5, 3960, Note_on_c, 1, 65, 64
5, 3970, Note_on_c, 1, 69, 0
5, 3970, Note_on_c, 1, 65, 0
5, 3984, Note_on_c, 1, 67, 64
5, 3984, Note_on_c, 1, 64, 64
5, 3994, Note_on_c, 1, 67, 0
5, 3994, Note_on_c, 1, 64, 0
5, 4008, Note_on_c, 1, 65, 64
5, 4008, Note_on_c, 1, 62, 64
5, 4018, Note_on_c, 1, 65, 0
5, 4018, Note_on_c, 1, 62, 0
5, 7872, Note_on_c, 1, 53, 64
5, 7961, Note_on_c, 1, 53, 0
5, 7968, Note_on_c, 1, 55, 64
5, 8057, Note_on_c, 1, 55, 0
5, 8064, Note_on_c, 1, 60, 64
5, 8153, Note_on_c, 1, 60, 0
5, 8256, Note_on_c, 1, 53, 64
5, 8345, Note_on_c, 1, 53, 0
5, 8352, Note_on_c, 1, 55, 64
5, 8441, Note_on_c, 1, 55, 0
5, 10224, Note_on_c, 1, 60, 64
5, 10318, Note_on_c, 1, 60, 0
5, 12672, Note_on_c, 1, 55, 64
5, 12739, Note_on_c, 1, 55, 0
5, 12744, Note_on_c, 1, 62, 64
5, 12756, Note_on_c, 1, 62, 0
5, 12756, Note_on_c, 1, 59, 64
5, 12768, Note_on_c, 1, 59, 0
5, 12768, Note_on_c, 1, 55, 64
5, 12791, Note_on_c, 1, 55, 0
5, 12792, Note_on_c, 1, 69, 64
5, 12792, Note_on_c, 1, 65, 64
5, 12802, Note_on_c, 1, 69, 0
5, 12802, Note_on_c, 1, 65, 0
5, 12816, Note_on_c, 1, 67, 64
5, 12816, Note_on_c, 1, 64, 64
5, 12826, Note_on_c, 1, 67, 0
5, 12826, Note_on_c, 1, 64, 0
5, 12840, Note_on_c, 1, 65, 64
5, 12840, Note_on_c, 1, 62, 64
5, 12850, Note_on_c, 1, 65, 0
5, 12850, Note_on_c, 1, 62, 0
5, 16704, Note_on_c, 1, 53, 64
5, 16793, Note_on_c, 1, 53, 0
5, 16800, Note_on_c, 1, 55, 64
5, 16889, Note_on_c, 1, 55, 0
5, 16896, Note_on_c, 1, 60, 64
5, 16985, Note_on_c, 1, 60, 0
5, 17088, Note_on_c, 1, 53, 64
5, 17177, Note_on_c, 1, 53, 0
5, 17184, Note_on_c, 1, 55, 64
5, 17273, Note_on_c, 1, 55, 0
5, 20208, Note_on_c, 1, 57, 90
5, 20441, Note_on_c, 1, 57, 0
5, 26544, Note_on_c, 1, 60, 60
5, 26638, Note_on_c, 1, 60, 0
5, 32256, Note_on_c, 1, 46, 60
5, 32345, Note_on_c, 1, 46, 0
5, 32352, Note_on_c, 1, 48, 60
5, 32441, Note_on_c, 1, 48, 0
5, 32640, Note_on_c, 1, 46, 60
5, 32729, Note_on_c, 1, 46, 0
5, 32736, Note_on_c, 1, 48, 60
5, 32825, Note_on_c, 1, 48, 0
5, 35760, Note_on_c, 1, 57, 90
5, 35993, Note_on_c, 1, 57, 0
5, 42096, Note_on_c, 1, 60, 60
5, 42190, Note_on_c, 1, 60, 0
5, 47808, Note_on_c, 1, 46, 60
5, 47897, Note_on_c, 1, 46, 0
5, 47904, Note_on_c, 1, 48, 60
5, 47993, Note_on_c, 1, 48, 0
5, 48192, Note_on_c, 1, 46, 60
5, 48281, Note_on_c, 1, 46, 0
5, 48288, Note_on_c, 1, 48, 60
5, 48377, Note_on_c, 1, 48, 0
5, 48960, End_track
6, 0, Start_track
6, 0, Title_t, "Piano Solo   <composer>  "
6, 0, End_track
0, 0, End_of_file
