0, 0, Header, 1, 4, 96
1, 0, Start_track
1, 0, Copyright_t, "Copyright  1994-2002 Mozart Music Software"
1, 0, Sequencer_specific, 16, 68, 87, 77, 90, 86, 82, 83, 78, 32, 55, 46, 48, 46, 55, 46, 48
1, 0, Time_signature, 3, 2, 24, 8
1, 0, Tempo, 461538
1, 0, Key_signature, 2, "major"
1, 5664, Tempo, 521739
1, 5760, Tempo, 461538
1, 9696, Tempo, 521739
1, 9792, Tempo, 461538
1, 31008, Tempo, 521739
1, 31104, Tempo, 461538
1, 35040, Tempo, 521739
1, 35136, Tempo, 461538
1, 38304, End_track
2, 0, Start_track
2, 0, Program_c, 0, 0
2, 0, Control_c, 0, 7, 127
2, 0, Control_c, 0, 10, 64
2, 0, Note_on_c, 0, 74, 77
2, 89, Note_on_c, 0, 74, 0
2, 96, Note_on_c, 0, 78, 77
2, 185, Note_on_c, 0, 78, 0
2, 192, Note_on_c, 0, 81, 77
2, 222, Note_on_c, 0, 81, 0
2, 224, Note_on_c, 0, 78, 77
2, 254, Note_on_c, 0, 78, 0
2, 256, Note_on_c, 0, 74, 77
2, 286, Note_on_c, 0, 74, 0
2, 288, Note_on_c, 0, 74, 77
2, 377, Note_on_c, 0, 74, 0
2, 384, Note_on_c, 0, 73, 77
2, 473, Note_on_c, 0, 73, 0
2, 480, Note_on_c, 0, 71, 77
2, 665, Note_on_c, 0, 71, 0
2, 672, Note_on_c, 0, 69, 77
2, 761, Note_on_c, 0, 69, 0
2, 768, Note_on_c, 0, 67, 77
2, 857, Note_on_c, 0, 67, 0
2, 864, Note_on_c, 0, 69, 77
2, 887, Note_on_c, 0, 69, 0
2, 888, Note_on_c, 0, 67, 77
2, 911, Note_on_c, 0, 67, 0
2, 912, Note_on_c, 0, 66, 77
2, 935, Note_on_c, 0, 66, 0
2, 936, Note_on_c, 0, 67, 77
2, 959, Note_on_c, 0, 67, 0
2, 960, Note_on_c, 0, 66, 77
2, 1049, Note_on_c, 0, 66, 0
2, 1152, Note_on_c, 0, 64, 77
2, 1241, Note_on_c, 0, 64, 0
2, 1248, Note_on_c, 0, 67, 77
2, 1337, Note_on_c, 0, 67, 0
2, 1344, Note_on_c, 0, 71, 77
2, 1374, Note_on_c, 0, 71, 0
2, 1376, Note_on_c, 0, 67, 77
2, 1406, Note_on_c, 0, 67, 0
2, 1408, Note_on_c, 0, 64, 77
2, 1438, Note_on_c, 0, 64, 0
2, 1440, Note_on_c, 0, 62, 77
2, 1529, Note_on_c, 0, 62, 0
2, 1536, Note_on_c, 0, 61, 77
2, 1549, Note_on_c, 0, 61, 0
2, 1550, Note_on_c, 0, 62, 77
2, 1563, Note_on_c, 0, 62, 0
2, 1564, Note_on_c, 0, 61, 77
2, 1577, Note_on_c, 0, 61, 0
2, 1578, Note_on_c, 0, 62, 77
2, 1591, Note_on_c, 0, 62, 0
2, 1592, Note_on_c, 0, 61, 77
2, 1605, Note_on_c, 0, 61, 0
2, 1606, Note_on_c, 0, 59, 77
2, 1618, Note_on_c, 0, 59, 0
2, 1619, Note_on_c, 0, 61, 77
2, 1631, Note_on_c, 0, 61, 0
2, 1632, Note_on_c, 0, 62, 77
2, 1721, Note_on_c, 0, 62, 0
2, 1728, Note_on_c, 0, 57, 77
2, 1817, Note_on_c, 0, 57, 0
2, 1824, Note_on_c, 0, 67, 77
2, 1824, Note_on_c, 0, 64, 77
2, 1913, Note_on_c, 0, 67, 0
2, 1913, Note_on_c, 0, 64, 0
2, 1920, Note_on_c, 0, 66, 77
2, 1920, Note_on_c, 0, 62, 77
2, 2009, Note_on_c, 0, 66, 0
2, 2009, Note_on_c, 0, 62, 0
2, 2016, Note_on_c, 0, 66, 77
2, 2016, Note_on_c, 0, 62, 77
2, 2112, Note_on_c, 0, 66, 0
2, 2112, Note_on_c, 0, 62, 0
2, 2112, Note_on_c, 0, 64, 77
2, 2112, Note_on_c, 0, 61, 77
2, 2201, Note_on_c, 0, 64, 0
2, 2201, Note_on_c, 0, 61, 0
2, 2304, Note_on_c, 0, 74, 77
2, 2393, Note_on_c, 0, 74, 0
2, 2400, Note_on_c, 0, 78, 77
2, 2489, Note_on_c, 0, 78, 0
2, 2496, Note_on_c, 0, 81, 77
2, 2526, Note_on_c, 0, 81, 0
2, 2528, Note_on_c, 0, 78, 77
2, 2558, Note_on_c, 0, 78, 0
2, 2560, Note_on_c, 0, 74, 77
2, 2590, Note_on_c, 0, 74, 0
2, 2592, Note_on_c, 0, 74, 77
2, 2681, Note_on_c, 0, 74, 0
2, 2688, Note_on_c, 0, 73, 77
2, 2777, Note_on_c, 0, 73, 0
2, 2784, Note_on_c, 0, 71, 77
2, 2969, Note_on_c, 0, 71, 0
2, 2976, Note_on_c, 0, 69, 77
2, 3065, Note_on_c, 0, 69, 0
2, 3072, Note_on_c, 0, 67, 77
2, 3161, Note_on_c, 0, 67, 0
2, 3168, Note_on_c, 0, 69, 77
2, 3191, Note_on_c, 0, 69, 0
2, 3192, Note_on_c, 0, 67, 77
2, 3215, Note_on_c, 0, 67, 0
2, 3216, Note_on_c, 0, 66, 77
2, 3239, Note_on_c, 0, 66, 0
2, 3240, Note_on_c, 0, 67, 77
2, 3263, Note_on_c, 0, 67, 0
2, 3264, Note_on_c, 0, 66, 77
2, 3353, Note_on_c, 0, 66, 0
2, 3456, Note_on_c, 0, 64, 77
2, 3545, Note_on_c, 0, 64, 0
2, 3552, Note_on_c, 0, 67, 77
2, 3641, Note_on_c, 0, 67, 0
2, 3648, Note_on_c, 0, 71, 77
2, 3678, Note_on_c, 0, 71, 0
2, 3680, Note_on_c, 0, 67, 77
2, 3710, Note_on_c, 0, 67, 0
2, 3712, Note_on_c, 0, 64, 77
2, 3742, Note_on_c, 0, 64, 0
2, 3744, Note_on_c, 0, 62, 77
2, 3833, Note_on_c, 0, 62, 0
2, 3840, Note_on_c, 0, 61, 77
2, 3853, Note_on_c, 0, 61, 0
2, 3854, Note_on_c, 0, 62, 77
2, 3867, Note_on_c, 0, 62, 0
2, 3868, Note_on_c, 0, 61, 77
2, 3881, Note_on_c, 0, 61, 0
2, 3882, Note_on_c, 0, 62, 77
2, 3895, Note_on_c, 0, 62, 0
2, 3896, Note_on_c, 0, 61, 77
2, 3909, Note_on_c, 0, 61, 0
2, 3910, Note_on_c, 0, 59, 77
2, 3922, Note_on_c, 0, 59, 0
2, 3923, Note_on_c, 0, 61, 77
2, 3935, Note_on_c, 0, 61, 0
2, 3936, Note_on_c, 0, 62, 77
2, 4025, Note_on_c, 0, 62, 0
2, 4032, Note_on_c, 0, 57, 77
2, 4121, Note_on_c, 0, 57, 0
2, 4128, Note_on_c, 0, 67, 77
2, 4128, Note_on_c, 0, 64, 77
2, 4217, Note_on_c, 0, 67, 0
2, 4217, Note_on_c, 0, 64, 0
2, 4224, Note_on_c, 0, 66, 77
2, 4224, Note_on_c, 0, 62, 77
2, 4313, Note_on_c, 0, 66, 0
2, 4313, Note_on_c, 0, 62, 0
2, 4320, Note_on_c, 0, 66, 77
2, 4320, Note_on_c, 0, 62, 77
2, 4416, Note_on_c, 0, 66, 0
2, 4416, Note_on_c, 0, 62, 0
2, 4416, Note_on_c, 0, 64, 77
2, 4416, Note_on_c, 0, 61, 77
2, 4505, Note_on_c, 0, 64, 0
2, 4505, Note_on_c, 0, 61, 0
2, 4704, Note_on_c, 0, 76, 77
2, 4734, Note_on_c, 0, 76, 0
2, 4736, Note_on_c, 0, 73, 77
2, 4766, Note_on_c, 0, 73, 0
2, 4768, Note_on_c, 0, 69, 77
2, 4798, Note_on_c, 0, 69, 0
2, 4800, Note_on_c, 0, 69, 77
2, 4889, Note_on_c, 0, 69, 0
2, 4992, Note_on_c, 0, 74, 77
2, 5022, Note_on_c, 0, 74, 0
2, 5024, Note_on_c, 0, 71, 77
2, 5054, Note_on_c, 0, 71, 0
2, 5056, Note_on_c, 0, 68, 77
2, 5086, Note_on_c, 0, 68, 0
2, 5088, Note_on_c, 0, 68, 77
2, 5177, Note_on_c, 0, 68, 0
2, 5280, Note_on_c, 0, 86, 77
2, 5310, Note_on_c, 0, 86, 0
2, 5312, Note_on_c, 0, 83, 76
2, 5342, Note_on_c, 0, 83, 0
2, 5344, Note_on_c, 0, 80, 76
2, 5374, Note_on_c, 0, 80, 0
2, 5376, Note_on_c, 0, 80, 75
2, 5465, Note_on_c, 0, 80, 0
2, 5568, Note_on_c, 0, 81, 72
2, 5598, Note_on_c, 0, 81, 0
2, 5600, Note_on_c, 0, 83, 72
2, 5630, Note_on_c, 0, 83, 0
2, 5632, Note_on_c, 0, 79, 72
2, 5662, Note_on_c, 0, 79, 0
2, 5664, Note_on_c, 0, 76, 71
2, 5753, Note_on_c, 0, 76, 0
2, 5856, Note_on_c, 0, 78, 77
2, 5945, Note_on_c, 0, 78, 0
2, 5952, Note_on_c, 0, 81, 77
2, 5982, Note_on_c, 0, 81, 0
2, 5984, Note_on_c, 0, 78, 77
2, 6014, Note_on_c, 0, 78, 0
2, 6016, Note_on_c, 0, 74, 77
2, 6046, Note_on_c, 0, 74, 0
2, 6048, Note_on_c, 0, 74, 77
2, 6137, Note_on_c, 0, 74, 0
2, 6144, Note_on_c, 0, 73, 77
2, 6233, Note_on_c, 0, 73, 0
2, 6240, Note_on_c, 0, 71, 77
2, 6425, Note_on_c, 0, 71, 0
2, 6432, Note_on_c, 0, 69, 77
2, 6521, Note_on_c, 0, 69, 0
2, 6528, Note_on_c, 0, 67, 77
2, 6617, Note_on_c, 0, 67, 0
2, 6624, Note_on_c, 0, 69, 77
2, 6647, Note_on_c, 0, 69, 0
2, 6648, Note_on_c, 0, 67, 77
2, 6671, Note_on_c, 0, 67, 0
2, 6672, Note_on_c, 0, 66, 77
2, 6695, Note_on_c, 0, 66, 0
2, 6696, Note_on_c, 0, 67, 77
2, 6719, Note_on_c, 0, 67, 0
2, 6720, Note_on_c, 0, 66, 77
2, 6809, Note_on_c, 0, 66, 0
2, 6912, Note_on_c, 0, 64, 77
2, 7001, Note_on_c, 0, 64, 0
2, 7008, Note_on_c, 0, 67, 77
2, 7097, Note_on_c, 0, 67, 0
2, 7104, Note_on_c, 0, 71, 77
2, 7134, Note_on_c, 0, 71, 0
2, 7136, Note_on_c, 0, 67, 77
2, 7166, Note_on_c, 0, 67, 0
2, 7168, Note_on_c, 0, 64, 77
2, 7198, Note_on_c, 0, 64, 0
2, 7200, Note_on_c, 0, 62, 77
2, 7289, Note_on_c, 0, 62, 0
2, 7296, Note_on_c, 0, 61, 77
2, 7309, Note_on_c, 0, 61, 0
2, 7310, Note_on_c, 0, 62, 77
2, 7323, Note_on_c, 0, 62, 0
2, 7324, Note_on_c, 0, 61, 77
2, 7337, Note_on_c, 0, 61, 0
2, 7338, Note_on_c, 0, 62, 77
2, 7351, Note_on_c, 0, 62, 0
2, 7352, Note_on_c, 0, 61, 77
2, 7365, Note_on_c, 0, 61, 0
2, 7366, Note_on_c, 0, 59, 77
2, 7378, Note_on_c, 0, 59, 0
2, 7379, Note_on_c, 0, 61, 77
2, 7391, Note_on_c, 0, 61, 0
2, 7392, Note_on_c, 0, 62, 77
2, 7481, Note_on_c, 0, 62, 0
2, 7488, Note_on_c, 0, 76, 77
2, 7577, Note_on_c, 0, 76, 0
2, 7584, Note_on_c, 0, 83, 77
2, 7614, Note_on_c, 0, 83, 0
2, 7616, Note_on_c, 0, 79, 77
2, 7646, Note_on_c, 0, 79, 0
2, 7648, Note_on_c, 0, 76, 77
2, 7678, Note_on_c, 0, 76, 0
2, 7680, Note_on_c, 0, 85, 77
2, 7710, Note_on_c, 0, 85, 0
2, 7712, Note_on_c, 0, 79, 77
2, 7742, Note_on_c, 0, 79, 0
2, 7744, Note_on_c, 0, 76, 77
2, 7774, Note_on_c, 0, 76, 0
2, 7776, Note_on_c, 0, 86, 77
2, 7865, Note_on_c, 0, 86, 0
2, 7872, Note_on_c, 0, 74, 77
2, 7902, Note_on_c, 0, 74, 0
2, 7904, Note_on_c, 0, 78, 77
2, 7934, Note_on_c, 0, 78, 0
2, 7936, Note_on_c, 0, 81, 77
2, 7966, Note_on_c, 0, 81, 0
2, 7968, Note_on_c, 0, 86, 77
2, 8057, Note_on_c, 0, 86, 0
2, 8064, Note_on_c, 0, 83, 77
2, 8094, Note_on_c, 0, 83, 0
2, 8096, Note_on_c, 0, 81, 77
2, 8126, Note_on_c, 0, 81, 0
2, 8128, Note_on_c, 0, 79, 77
2, 8158, Note_on_c, 0, 79, 0
2, 8160, Note_on_c, 0, 78, 77
2, 8249, Note_on_c, 0, 78, 0
2, 8256, Note_on_c, 0, 76, 77
2, 8269, Note_on_c, 0, 76, 0
2, 8270, Note_on_c, 0, 78, 77
2, 8283, Note_on_c, 0, 78, 0
2, 8284, Note_on_c, 0, 76, 77
2, 8297, Note_on_c, 0, 76, 0
2, 8298, Note_on_c, 0, 78, 77
2, 8311, Note_on_c, 0, 78, 0
2, 8312, Note_on_c, 0, 76, 77
2, 8325, Note_on_c, 0, 76, 0
2, 8326, Note_on_c, 0, 74, 77
2, 8338, Note_on_c, 0, 74, 0
2, 8339, Note_on_c, 0, 76, 77
2, 8351, Note_on_c, 0, 76, 0
2, 8352, Note_on_c, 0, 74, 77
2, 8529, Note_on_c, 0, 74, 0
2, 8736, Note_on_c, 0, 76, 77
2, 8766, Note_on_c, 0, 76, 0
2, 8768, Note_on_c, 0, 73, 77
2, 8798, Note_on_c, 0, 73, 0
2, 8800, Note_on_c, 0, 69, 77
2, 8830, Note_on_c, 0, 69, 0
2, 8832, Note_on_c, 0, 69, 77
2, 8921, Note_on_c, 0, 69, 0
2, 9024, Note_on_c, 0, 74, 77
2, 9054, Note_on_c, 0, 74, 0
2, 9056, Note_on_c, 0, 71, 77
2, 9086, Note_on_c, 0, 71, 0
2, 9088, Note_on_c, 0, 68, 77
2, 9118, Note_on_c, 0, 68, 0
2, 9120, Note_on_c, 0, 68, 77
2, 9209, Note_on_c, 0, 68, 0
2, 9312, Note_on_c, 0, 86, 77
2, 9342, Note_on_c, 0, 86, 0
2, 9344, Note_on_c, 0, 83, 76
2, 9374, Note_on_c, 0, 83, 0
2, 9376, Note_on_c, 0, 80, 76
2, 9406, Note_on_c, 0, 80, 0
2, 9408, Note_on_c, 0, 80, 75
2, 9497, Note_on_c, 0, 80, 0
2, 9600, Note_on_c, 0, 81, 72
2, 9630, Note_on_c, 0, 81, 0
2, 9632, Note_on_c, 0, 83, 72
2, 9662, Note_on_c, 0, 83, 0
2, 9664, Note_on_c, 0, 79, 72
2, 9694, Note_on_c, 0, 79, 0
2, 9696, Note_on_c, 0, 76, 71
2, 9785, Note_on_c, 0, 76, 0
2, 9888, Note_on_c, 0, 78, 77
2, 9977, Note_on_c, 0, 78, 0
2, 9984, Note_on_c, 0, 81, 77
2, 10014, Note_on_c, 0, 81, 0
2, 10016, Note_on_c, 0, 78, 77
2, 10046, Note_on_c, 0, 78, 0
2, 10048, Note_on_c, 0, 74, 77
2, 10078, Note_on_c, 0, 74, 0
2, 10080, Note_on_c, 0, 74, 77
2, 10169, Note_on_c, 0, 74, 0
2, 10176, Note_on_c, 0, 73, 77
2, 10265, Note_on_c, 0, 73, 0
2, 10272, Note_on_c, 0, 71, 77
2, 10457, Note_on_c, 0, 71, 0
2, 10464, Note_on_c, 0, 69, 77
2, 10553, Note_on_c, 0, 69, 0
2, 10560, Note_on_c, 0, 67, 77
2, 10649, Note_on_c, 0, 67, 0
2, 10656, Note_on_c, 0, 69, 77
2, 10679, Note_on_c, 0, 69, 0
2, 10680, Note_on_c, 0, 67, 77
2, 10703, Note_on_c, 0, 67, 0
2, 10704, Note_on_c, 0, 66, 77
2, 10727, Note_on_c, 0, 66, 0
2, 10728, Note_on_c, 0, 67, 77
2, 10751, Note_on_c, 0, 67, 0
2, 10752, Note_on_c, 0, 66, 77
2, 10841, Note_on_c, 0, 66, 0
2, 10944, Note_on_c, 0, 64, 77
2, 11033, Note_on_c, 0, 64, 0
2, 11040, Note_on_c, 0, 67, 77
2, 11129, Note_on_c, 0, 67, 0
2, 11136, Note_on_c, 0, 71, 77
2, 11166, Note_on_c, 0, 71, 0
2, 11168, Note_on_c, 0, 67, 77
2, 11198, Note_on_c, 0, 67, 0
2, 11200, Note_on_c, 0, 64, 77
2, 11230, Note_on_c, 0, 64, 0
2, 11232, Note_on_c, 0, 62, 77
2, 11321, Note_on_c, 0, 62, 0
2, 11328, Note_on_c, 0, 61, 77
2, 11341, Note_on_c, 0, 61, 0
2, 11342, Note_on_c, 0, 62, 77
2, 11355, Note_on_c, 0, 62, 0
2, 11356, Note_on_c, 0, 61, 77
2, 11369, Note_on_c, 0, 61, 0
2, 11370, Note_on_c, 0, 62, 77
2, 11383, Note_on_c, 0, 62, 0
2, 11384, Note_on_c, 0, 61, 77
2, 11397, Note_on_c, 0, 61, 0
2, 11398, Note_on_c, 0, 59, 77
2, 11410, Note_on_c, 0, 59, 0
2, 11411, Note_on_c, 0, 61, 77
2, 11423, Note_on_c, 0, 61, 0
2, 11424, Note_on_c, 0, 62, 77
2, 11513, Note_on_c, 0, 62, 0
2, 11520, Note_on_c, 0, 76, 77
2, 11609, Note_on_c, 0, 76, 0
2, 11616, Note_on_c, 0, 83, 77
2, 11646, Note_on_c, 0, 83, 0
2, 11648, Note_on_c, 0, 79, 77
2, 11678, Note_on_c, 0, 79, 0
2, 11680, Note_on_c, 0, 76, 77
2, 11710, Note_on_c, 0, 76, 0
2, 11712, Note_on_c, 0, 85, 77
2, 11742, Note_on_c, 0, 85, 0
2, 11744, Note_on_c, 0, 79, 77
2, 11774, Note_on_c, 0, 79, 0
2, 11776, Note_on_c, 0, 76, 77
2, 11806, Note_on_c, 0, 76, 0
2, 11808, Note_on_c, 0, 86, 77
2, 11897, Note_on_c, 0, 86, 0
2, 11904, Note_on_c, 0, 74, 77
2, 11934, Note_on_c, 0, 74, 0
2, 11936, Note_on_c, 0, 78, 77
2, 11966, Note_on_c, 0, 78, 0
2, 11968, Note_on_c, 0, 81, 77
2, 11998, Note_on_c, 0, 81, 0
2, 12000, Note_on_c, 0, 86, 77
2, 12089, Note_on_c, 0, 86, 0
2, 12096, Note_on_c, 0, 83, 77
2, 12126, Note_on_c, 0, 83, 0
2, 12128, Note_on_c, 0, 81, 77
2, 12158, Note_on_c, 0, 81, 0
2, 12160, Note_on_c, 0, 79, 77
2, 12190, Note_on_c, 0, 79, 0
2, 12192, Note_on_c, 0, 78, 77
2, 12281, Note_on_c, 0, 78, 0
2, 12288, Note_on_c, 0, 76, 77
2, 12301, Note_on_c, 0, 76, 0
2, 12302, Note_on_c, 0, 78, 77
2, 12315, Note_on_c, 0, 78, 0
2, 12316, Note_on_c, 0, 76, 77
2, 12329, Note_on_c, 0, 76, 0
2, 12330, Note_on_c, 0, 78, 77
2, 12343, Note_on_c, 0, 78, 0
2, 12344, Note_on_c, 0, 76, 77
2, 12357, Note_on_c, 0, 76, 0
2, 12358, Note_on_c, 0, 74, 77
2, 12370, Note_on_c, 0, 74, 0
2, 12371, Note_on_c, 0, 76, 77
2, 12383, Note_on_c, 0, 76, 0
2, 12384, Note_on_c, 0, 74, 77
2, 12561, Note_on_c, 0, 74, 0
2, 12672, Note_on_c, 0, 74, 77
2, 12744, Note_on_c, 0, 74, 0
2, 12744, Note_on_c, 0, 76, 77
2, 12767, Note_on_c, 0, 76, 0
2, 12768, Note_on_c, 0, 74, 77
2, 12816, Note_on_c, 0, 74, 0
2, 12816, Note_on_c, 0, 73, 77
2, 12861, Note_on_c, 0, 73, 0
2, 12864, Note_on_c, 0, 74, 77
2, 12912, Note_on_c, 0, 74, 0
2, 12912, Note_on_c, 0, 72, 77
2, 12957, Note_on_c, 0, 72, 0
2, 12960, Note_on_c, 0, 72, 77
2, 13008, Note_on_c, 0, 72, 0
2, 13008, Note_on_c, 0, 71, 77
2, 13053, Note_on_c, 0, 71, 0
2, 13056, Note_on_c, 0, 71, 77
2, 13189, Note_on_c, 0, 71, 0
2, 13200, Note_on_c, 0, 69, 77
2, 13245, Note_on_c, 0, 69, 0
2, 13248, Note_on_c, 0, 67, 77
2, 13296, Note_on_c, 0, 67, 0
2, 13296, Note_on_c, 0, 69, 77
2, 13341, Note_on_c, 0, 69, 0
2, 13344, Note_on_c, 0, 67, 77
2, 13392, Note_on_c, 0, 67, 0
2, 13392, Note_on_c, 0, 64, 77
2, 13437, Note_on_c, 0, 64, 0
2, 13440, Note_on_c, 0, 66, 77
2, 13488, Note_on_c, 0, 66, 0
2, 13488, Note_on_c, 0, 62, 77
2, 13533, Note_on_c, 0, 62, 0
2, 13536, Note_on_c, 0, 66, 77
2, 13625, Note_on_c, 0, 66, 0
2, 13632, Note_on_c, 0, 64, 77
2, 13645, Note_on_c, 0, 64, 0
2, 13646, Note_on_c, 0, 66, 77
2, 13659, Note_on_c, 0, 66, 0
2, 13660, Note_on_c, 0, 64, 77
2, 13673, Note_on_c, 0, 64, 0
2, 13674, Note_on_c, 0, 66, 77
2, 13687, Note_on_c, 0, 66, 0
2, 13688, Note_on_c, 0, 64, 77
2, 13701, Note_on_c, 0, 64, 0
2, 13702, Note_on_c, 0, 62, 77
2, 13714, Note_on_c, 0, 62, 0
2, 13715, Note_on_c, 0, 64, 77
2, 13727, Note_on_c, 0, 64, 0
2, 13728, Note_on_c, 0, 62, 77
2, 13817, Note_on_c, 0, 62, 0
2, 13824, Note_on_c, 0, 66, 77
2, 13872, Note_on_c, 0, 66, 0
2, 13872, Note_on_c, 0, 69, 77
2, 13917, Note_on_c, 0, 69, 0
2, 13920, Note_on_c, 0, 68, 78
2, 13968, Note_on_c, 0, 68, 0
2, 13968, Note_on_c, 0, 71, 79
2, 14013, Note_on_c, 0, 71, 0
2, 14016, Note_on_c, 0, 69, 79
2, 14064, Note_on_c, 0, 69, 0
2, 14064, Note_on_c, 0, 73, 80
2, 14109, Note_on_c, 0, 73, 0
2, 14112, Note_on_c, 0, 71, 81
2, 14160, Note_on_c, 0, 71, 0
2, 14160, Note_on_c, 0, 74, 81
2, 14205, Note_on_c, 0, 74, 0
2, 14208, Note_on_c, 0, 73, 82
2, 14256, Note_on_c, 0, 73, 0
2, 14256, Note_on_c, 0, 76, 83
2, 14301, Note_on_c, 0, 76, 0
2, 14304, Note_on_c, 0, 74, 83
2, 14352, Note_on_c, 0, 74, 0
2, 14352, Note_on_c, 0, 78, 84
2, 14397, Note_on_c, 0, 78, 0
2, 14400, Note_on_c, 0, 76, 85
2, 14448, Note_on_c, 0, 76, 0
2, 14448, Note_on_c, 0, 73, 84
2, 14493, Note_on_c, 0, 73, 0
2, 14496, Note_on_c, 0, 69, 83
2, 14585, Note_on_c, 0, 69, 0
2, 14592, Note_on_c, 0, 68, 81
2, 14605, Note_on_c, 0, 68, 0
2, 14606, Note_on_c, 0, 69, 81
2, 14619, Note_on_c, 0, 69, 0
2, 14620, Note_on_c, 0, 68, 81
2, 14633, Note_on_c, 0, 68, 0
2, 14634, Note_on_c, 0, 69, 81
2, 14647, Note_on_c, 0, 69, 0
2, 14648, Note_on_c, 0, 68, 81
2, 14661, Note_on_c, 0, 68, 0
2, 14662, Note_on_c, 0, 66, 80
2, 14674, Note_on_c, 0, 66, 0
2, 14675, Note_on_c, 0, 68, 80
2, 14687, Note_on_c, 0, 68, 0
2, 14688, Note_on_c, 0, 69, 80
2, 14865, Note_on_c, 0, 69, 0
2, 14976, Note_on_c, 0, 74, 77
2, 15048, Note_on_c, 0, 74, 0
2, 15048, Note_on_c, 0, 76, 77
2, 15071, Note_on_c, 0, 76, 0
2, 15072, Note_on_c, 0, 74, 77
2, 15120, Note_on_c, 0, 74, 0
2, 15120, Note_on_c, 0, 73, 77
2, 15165, Note_on_c, 0, 73, 0
2, 15168, Note_on_c, 0, 74, 77
2, 15216, Note_on_c, 0, 74, 0
2, 15216, Note_on_c, 0, 72, 77
2, 15261, Note_on_c, 0, 72, 0
2, 15264, Note_on_c, 0, 72, 77
2, 15312, Note_on_c, 0, 72, 0
2, 15312, Note_on_c, 0, 71, 77
2, 15357, Note_on_c, 0, 71, 0
2, 15360, Note_on_c, 0, 71, 77
2, 15493, Note_on_c, 0, 71, 0
2, 15504, Note_on_c, 0, 69, 77
2, 15549, Note_on_c, 0, 69, 0
2, 15552, Note_on_c, 0, 67, 77
2, 15600, Note_on_c, 0, 67, 0
2, 15600, Note_on_c, 0, 69, 77
2, 15645, Note_on_c, 0, 69, 0
2, 15648, Note_on_c, 0, 67, 77
2, 15696, Note_on_c, 0, 67, 0
2, 15696, Note_on_c, 0, 64, 77
2, 15741, Note_on_c, 0, 64, 0
2, 15744, Note_on_c, 0, 66, 77
2, 15792, Note_on_c, 0, 66, 0
2, 15792, Note_on_c, 0, 62, 77
2, 15837, Note_on_c, 0, 62, 0
2, 15840, Note_on_c, 0, 66, 77
2, 15929, Note_on_c, 0, 66, 0
2, 15936, Note_on_c, 0, 64, 77
2, 15949, Note_on_c, 0, 64, 0
2, 15950, Note_on_c, 0, 66, 77
2, 15963, Note_on_c, 0, 66, 0
2, 15964, Note_on_c, 0, 64, 77
2, 15977, Note_on_c, 0, 64, 0
2, 15978, Note_on_c, 0, 66, 77
2, 15991, Note_on_c, 0, 66, 0
2, 15992, Note_on_c, 0, 64, 77
2, 16005, Note_on_c, 0, 64, 0
2, 16006, Note_on_c, 0, 62, 77
2, 16018, Note_on_c, 0, 62, 0
2, 16019, Note_on_c, 0, 64, 77
2, 16031, Note_on_c, 0, 64, 0
2, 16032, Note_on_c, 0, 62, 77
2, 16121, Note_on_c, 0, 62, 0
2, 16128, Note_on_c, 0, 66, 77
2, 16176, Note_on_c, 0, 66, 0
2, 16176, Note_on_c, 0, 69, 77
2, 16221, Note_on_c, 0, 69, 0
2, 16224, Note_on_c, 0, 68, 78
2, 16272, Note_on_c, 0, 68, 0
2, 16272, Note_on_c, 0, 71, 79
2, 16317, Note_on_c, 0, 71, 0
2, 16320, Note_on_c, 0, 69, 79
2, 16368, Note_on_c, 0, 69, 0
2, 16368, Note_on_c, 0, 73, 80
2, 16413, Note_on_c, 0, 73, 0
2, 16416, Note_on_c, 0, 71, 81
2, 16464, Note_on_c, 0, 71, 0
2, 16464, Note_on_c, 0, 74, 81
2, 16509, Note_on_c, 0, 74, 0
2, 16512, Note_on_c, 0, 73, 82
2, 16560, Note_on_c, 0, 73, 0
2, 16560, Note_on_c, 0, 76, 83
2, 16605, Note_on_c, 0, 76, 0
2, 16608, Note_on_c, 0, 74, 83
2, 16656, Note_on_c, 0, 74, 0
2, 16656, Note_on_c, 0, 78, 84
2, 16701, Note_on_c, 0, 78, 0
2, 16704, Note_on_c, 0, 76, 85
2, 16752, Note_on_c, 0, 76, 0
2, 16752, Note_on_c, 0, 73, 84
2, 16797, Note_on_c, 0, 73, 0
2, 16800, Note_on_c, 0, 69, 83
2, 16889, Note_on_c, 0, 69, 0
2, 16896, Note_on_c, 0, 68, 81
2, 16909, Note_on_c, 0, 68, 0
2, 16910, Note_on_c, 0, 69, 81
2, 16923, Note_on_c, 0, 69, 0
2, 16924, Note_on_c, 0, 68, 81
2, 16937, Note_on_c, 0, 68, 0
2, 16938, Note_on_c, 0, 69, 81
2, 16951, Note_on_c, 0, 69, 0
2, 16952, Note_on_c, 0, 68, 81
2, 16965, Note_on_c, 0, 68, 0
2, 16966, Note_on_c, 0, 66, 80
2, 16978, Note_on_c, 0, 66, 0
2, 16979, Note_on_c, 0, 68, 80
2, 16991, Note_on_c, 0, 68, 0
2, 16992, Note_on_c, 0, 69, 80
2, 17169, Note_on_c, 0, 69, 0
2, 17280, Note_on_c, 0, 69, 77
2, 17369, Note_on_c, 0, 69, 0
2, 17376, Note_on_c, 0, 73, 77
2, 17406, Note_on_c, 0, 73, 0
2, 17408, Note_on_c, 0, 71, 77
2, 17438, Note_on_c, 0, 71, 0
2, 17440, Note_on_c, 0, 69, 77
2, 17470, Note_on_c, 0, 69, 0
2, 17472, Note_on_c, 0, 81, 77
2, 17517, Note_on_c, 0, 81, 0
2, 17520, Note_on_c, 0, 73, 77
2, 17565, Note_on_c, 0, 73, 0
2, 17568, Note_on_c, 0, 74, 77
2, 17657, Note_on_c, 0, 74, 0
2, 17664, Note_on_c, 0, 76, 77
2, 17677, Note_on_c, 0, 76, 0
2, 17678, Note_on_c, 0, 78, 77
2, 17691, Note_on_c, 0, 78, 0
2, 17692, Note_on_c, 0, 76, 77
2, 17705, Note_on_c, 0, 76, 0
2, 17706, Note_on_c, 0, 78, 77
2, 17719, Note_on_c, 0, 78, 0
2, 17720, Note_on_c, 0, 76, 77
2, 17733, Note_on_c, 0, 76, 0
2, 17734, Note_on_c, 0, 74, 77
2, 17746, Note_on_c, 0, 74, 0
2, 17747, Note_on_c, 0, 76, 77
2, 17759, Note_on_c, 0, 76, 0
2, 17760, Note_on_c, 0, 78, 77
2, 17849, Note_on_c, 0, 78, 0
2, 17856, Note_on_c, 0, 79, 77
2, 17886, Note_on_c, 0, 79, 0
2, 17888, Note_on_c, 0, 78, 78
2, 17918, Note_on_c, 0, 78, 0
2, 17920, Note_on_c, 0, 76, 79
2, 17950, Note_on_c, 0, 76, 0
2, 17952, Note_on_c, 0, 83, 80
2, 17982, Note_on_c, 0, 83, 0
2, 17984, Note_on_c, 0, 81, 81
2, 18014, Note_on_c, 0, 81, 0
2, 18016, Note_on_c, 0, 79, 82
2, 18046, Note_on_c, 0, 79, 0
2, 18048, Note_on_c, 0, 78, 83
2, 18078, Note_on_c, 0, 78, 0
2, 18080, Note_on_c, 0, 76, 85
2, 18110, Note_on_c, 0, 76, 0
2, 18112, Note_on_c, 0, 74, 85
2, 18142, Note_on_c, 0, 74, 0
2, 18144, Note_on_c, 0, 76, 85
2, 18159, Note_on_c, 0, 76, 0
2, 18160, Note_on_c, 0, 74, 84
2, 18175, Note_on_c, 0, 74, 0
2, 18176, Note_on_c, 0, 76, 84
2, 18191, Note_on_c, 0, 76, 0
2, 18192, Note_on_c, 0, 74, 83
2, 18207, Note_on_c, 0, 74, 0
2, 18208, Note_on_c, 0, 73, 83
2, 18223, Note_on_c, 0, 73, 0
2, 18224, Note_on_c, 0, 74, 82
2, 18239, Note_on_c, 0, 74, 0
2, 18240, Note_on_c, 0, 73, 82
2, 18329, Note_on_c, 0, 73, 0
2, 18432, Note_on_c, 0, 74, 77
2, 18504, Note_on_c, 0, 74, 0
2, 18504, Note_on_c, 0, 76, 77
2, 18527, Note_on_c, 0, 76, 0
2, 18528, Note_on_c, 0, 74, 77
2, 18576, Note_on_c, 0, 74, 0
2, 18576, Note_on_c, 0, 73, 77
2, 18621, Note_on_c, 0, 73, 0
2, 18624, Note_on_c, 0, 74, 77
2, 18672, Note_on_c, 0, 74, 0
2, 18672, Note_on_c, 0, 72, 77
2, 18717, Note_on_c, 0, 72, 0
2, 18720, Note_on_c, 0, 72, 77
2, 18768, Note_on_c, 0, 72, 0
2, 18768, Note_on_c, 0, 71, 77
2, 18813, Note_on_c, 0, 71, 0
2, 18816, Note_on_c, 0, 71, 77
2, 18949, Note_on_c, 0, 71, 0
2, 18960, Note_on_c, 0, 69, 77
2, 19005, Note_on_c, 0, 69, 0
2, 19008, Note_on_c, 0, 67, 77
2, 19053, Note_on_c, 0, 67, 0
2, 19056, Note_on_c, 0, 69, 77
2, 19101, Note_on_c, 0, 69, 0
2, 19104, Note_on_c, 0, 67, 77
2, 19149, Note_on_c, 0, 67, 0
2, 19152, Note_on_c, 0, 64, 77
2, 19197, Note_on_c, 0, 64, 0
2, 19200, Note_on_c, 0, 66, 77
2, 19289, Note_on_c, 0, 66, 0
2, 19296, Note_on_c, 0, 71, 70
2, 19341, Note_on_c, 0, 71, 0
2, 19344, Note_on_c, 0, 73, 70
2, 19389, Note_on_c, 0, 73, 0
2, 19392, Note_on_c, 0, 71, 71
2, 19437, Note_on_c, 0, 71, 0
2, 19440, Note_on_c, 0, 68, 72
2, 19485, Note_on_c, 0, 68, 0
2, 19488, Note_on_c, 0, 69, 73
2, 19577, Note_on_c, 0, 69, 0
2, 19584, Note_on_c, 0, 74, 74
2, 19629, Note_on_c, 0, 74, 0
2, 19632, Note_on_c, 0, 76, 75
2, 19677, Note_on_c, 0, 76, 0
2, 19680, Note_on_c, 0, 74, 76
2, 19725, Note_on_c, 0, 74, 0
2, 19728, Note_on_c, 0, 71, 77
2, 19773, Note_on_c, 0, 71, 0
2, 19776, Note_on_c, 0, 73, 78
2, 19865, Note_on_c, 0, 73, 0
2, 19872, Note_on_c, 0, 79, 79
2, 19917, Note_on_c, 0, 79, 0
2, 19920, Note_on_c, 0, 81, 80
2, 19965, Note_on_c, 0, 81, 0
2, 19968, Note_on_c, 0, 79, 81
2, 20013, Note_on_c, 0, 79, 0
2, 20016, Note_on_c, 0, 76, 82
2, 20061, Note_on_c, 0, 76, 0
2, 20064, Note_on_c, 0, 78, 82
2, 20109, Note_on_c, 0, 78, 0
2, 20112, Note_on_c, 0, 86, 83
2, 20157, Note_on_c, 0, 86, 0
2, 20160, Note_on_c, 0, 85, 84
2, 20183, Note_on_c, 0, 85, 0
2, 20184, Note_on_c, 0, 83, 85
2, 20207, Note_on_c, 0, 83, 0
2, 20208, Note_on_c, 0, 81, 85
2, 20231, Note_on_c, 0, 81, 0
2, 20232, Note_on_c, 0, 79, 85
2, 20255, Note_on_c, 0, 79, 0
2, 20256, Note_on_c, 0, 78, 85
2, 20345, Note_on_c, 0, 78, 0
2, 20352, Note_on_c, 0, 76, 85
2, 20441, Note_on_c, 0, 76, 0
2, 20448, Note_on_c, 0, 69, 85
2, 20537, Note_on_c, 0, 69, 0
2, 20544, Note_on_c, 0, 67, 85
2, 20557, Note_on_c, 0, 67, 0
2, 20558, Note_on_c, 0, 69, 85
2, 20571, Note_on_c, 0, 69, 0
2, 20572, Note_on_c, 0, 67, 85
2, 20585, Note_on_c, 0, 67, 0
2, 20586, Note_on_c, 0, 69, 85
2, 20599, Note_on_c, 0, 69, 0
2, 20600, Note_on_c, 0, 67, 85
2, 20613, Note_on_c, 0, 67, 0
2, 20614, Note_on_c, 0, 66, 85
2, 20626, Note_on_c, 0, 66, 0
2, 20627, Note_on_c, 0, 67, 85
2, 20639, Note_on_c, 0, 67, 0
2, 20640, Note_on_c, 0, 66, 85
2, 20729, Note_on_c, 0, 66, 0
2, 20736, Note_on_c, 0, 64, 85
2, 20766, Note_on_c, 0, 64, 0
2, 20768, Note_on_c, 0, 67, 84
2, 20798, Note_on_c, 0, 67, 0
2, 20800, Note_on_c, 0, 71, 83
2, 20830, Note_on_c, 0, 71, 0
2, 20832, Note_on_c, 0, 62, 82
2, 20921, Note_on_c, 0, 62, 0
2, 20928, Note_on_c, 0, 61, 79
2, 20941, Note_on_c, 0, 61, 0
2, 20942, Note_on_c, 0, 62, 79
2, 20955, Note_on_c, 0, 62, 0
2, 20956, Note_on_c, 0, 61, 79
2, 20969, Note_on_c, 0, 61, 0
2, 20970, Note_on_c, 0, 62, 78
2, 20983, Note_on_c, 0, 62, 0
2, 20984, Note_on_c, 0, 61, 78
2, 20997, Note_on_c, 0, 61, 0
2, 20998, Note_on_c, 0, 59, 78
2, 21010, Note_on_c, 0, 59, 0
2, 21011, Note_on_c, 0, 61, 77
2, 21023, Note_on_c, 0, 61, 0
2, 21024, Note_on_c, 0, 62, 77
2, 21201, Note_on_c, 0, 62, 0
2, 21312, Note_on_c, 0, 69, 77
2, 21401, Note_on_c, 0, 69, 0
2, 21408, Note_on_c, 0, 73, 77
2, 21438, Note_on_c, 0, 73, 0
2, 21440, Note_on_c, 0, 71, 77
2, 21470, Note_on_c, 0, 71, 0
2, 21472, Note_on_c, 0, 69, 77
2, 21502, Note_on_c, 0, 69, 0
2, 21504, Note_on_c, 0, 81, 77
2, 21549, Note_on_c, 0, 81, 0
2, 21552, Note_on_c, 0, 73, 77
2, 21597, Note_on_c, 0, 73, 0
2, 21600, Note_on_c, 0, 74, 77
2, 21689, Note_on_c, 0, 74, 0
2, 21696, Note_on_c, 0, 76, 77
2, 21709, Note_on_c, 0, 76, 0
2, 21710, Note_on_c, 0, 78, 77
2, 21723, Note_on_c, 0, 78, 0
2, 21724, Note_on_c, 0, 76, 77
2, 21737, Note_on_c, 0, 76, 0
2, 21738, Note_on_c, 0, 78, 77
2, 21751, Note_on_c, 0, 78, 0
2, 21752, Note_on_c, 0, 76, 77
2, 21765, Note_on_c, 0, 76, 0
2, 21766, Note_on_c, 0, 74, 77
2, 21778, Note_on_c, 0, 74, 0
2, 21779, Note_on_c, 0, 76, 77
2, 21791, Note_on_c, 0, 76, 0
2, 21792, Note_on_c, 0, 78, 77
2, 21881, Note_on_c, 0, 78, 0
2, 21888, Note_on_c, 0, 79, 77
2, 21918, Note_on_c, 0, 79, 0
2, 21920, Note_on_c, 0, 78, 78
2, 21950, Note_on_c, 0, 78, 0
2, 21952, Note_on_c, 0, 76, 79
2, 21982, Note_on_c, 0, 76, 0
2, 21984, Note_on_c, 0, 83, 80
2, 22014, Note_on_c, 0, 83, 0
2, 22016, Note_on_c, 0, 81, 81
2, 22046, Note_on_c, 0, 81, 0
2, 22048, Note_on_c, 0, 79, 82
2, 22078, Note_on_c, 0, 79, 0
2, 22080, Note_on_c, 0, 78, 83
2, 22110, Note_on_c, 0, 78, 0
2, 22112, Note_on_c, 0, 76, 85
2, 22142, Note_on_c, 0, 76, 0
2, 22144, Note_on_c, 0, 74, 85
2, 22174, Note_on_c, 0, 74, 0
2, 22176, Note_on_c, 0, 76, 85
2, 22191, Note_on_c, 0, 76, 0
2, 22192, Note_on_c, 0, 74, 84
2, 22207, Note_on_c, 0, 74, 0
2, 22208, Note_on_c, 0, 76, 84
2, 22223, Note_on_c, 0, 76, 0
2, 22224, Note_on_c, 0, 74, 83
2, 22239, Note_on_c, 0, 74, 0
2, 22240, Note_on_c, 0, 73, 83
2, 22255, Note_on_c, 0, 73, 0
2, 22256, Note_on_c, 0, 74, 82
2, 22271, Note_on_c, 0, 74, 0
2, 22272, Note_on_c, 0, 73, 82
2, 22361, Note_on_c, 0, 73, 0
2, 22464, Note_on_c, 0, 74, 77
2, 22536, Note_on_c, 0, 74, 0
2, 22536, Note_on_c, 0, 76, 77
2, 22559, Note_on_c, 0, 76, 0
2, 22560, Note_on_c, 0, 74, 77
2, 22608, Note_on_c, 0, 74, 0
2, 22608, Note_on_c, 0, 73, 77
2, 22653, Note_on_c, 0, 73, 0
2, 22656, Note_on_c, 0, 74, 77
2, 22704, Note_on_c, 0, 74, 0
2, 22704, Note_on_c, 0, 72, 77
2, 22749, Note_on_c, 0, 72, 0
2, 22752, Note_on_c, 0, 72, 77
2, 22800, Note_on_c, 0, 72, 0
2, 22800, Note_on_c, 0, 71, 77
2, 22845, Note_on_c, 0, 71, 0
2, 22848, Note_on_c, 0, 71, 77
2, 22981, Note_on_c, 0, 71, 0
2, 22992, Note_on_c, 0, 69, 77
2, 23037, Note_on_c, 0, 69, 0
2, 23040, Note_on_c, 0, 67, 77
2, 23085, Note_on_c, 0, 67, 0
2, 23088, Note_on_c, 0, 69, 77
2, 23133, Note_on_c, 0, 69, 0
2, 23136, Note_on_c, 0, 67, 77
2, 23181, Note_on_c, 0, 67, 0
2, 23184, Note_on_c, 0, 64, 77
2, 23229, Note_on_c, 0, 64, 0
2, 23232, Note_on_c, 0, 66, 77
2, 23321, Note_on_c, 0, 66, 0
2, 23328, Note_on_c, 0, 71, 70
2, 23373, Note_on_c, 0, 71, 0
2, 23376, Note_on_c, 0, 73, 70
2, 23421, Note_on_c, 0, 73, 0
2, 23424, Note_on_c, 0, 71, 71
2, 23469, Note_on_c, 0, 71, 0
2, 23472, Note_on_c, 0, 68, 72
2, 23517, Note_on_c, 0, 68, 0
2, 23520, Note_on_c, 0, 69, 73
2, 23609, Note_on_c, 0, 69, 0
2, 23616, Note_on_c, 0, 74, 74
2, 23661, Note_on_c, 0, 74, 0
2, 23664, Note_on_c, 0, 76, 75
2, 23709, Note_on_c, 0, 76, 0
2, 23712, Note_on_c, 0, 74, 76
2, 23757, Note_on_c, 0, 74, 0
2, 23760, Note_on_c, 0, 71, 77
2, 23805, Note_on_c, 0, 71, 0
2, 23808, Note_on_c, 0, 73, 78
2, 23897, Note_on_c, 0, 73, 0
2, 23904, Note_on_c, 0, 79, 79
2, 23949, Note_on_c, 0, 79, 0
2, 23952, Note_on_c, 0, 81, 80
2, 23997, Note_on_c, 0, 81, 0
2, 24000, Note_on_c, 0, 79, 81
2, 24045, Note_on_c, 0, 79, 0
2, 24048, Note_on_c, 0, 76, 82
2, 24093, Note_on_c, 0, 76, 0
2, 24096, Note_on_c, 0, 78, 82
2, 24141, Note_on_c, 0, 78, 0
2, 24144, Note_on_c, 0, 86, 83
2, 24189, Note_on_c, 0, 86, 0
2, 24192, Note_on_c, 0, 85, 84
2, 24215, Note_on_c, 0, 85, 0
2, 24216, Note_on_c, 0, 83, 85
2, 24239, Note_on_c, 0, 83, 0
2, 24240, Note_on_c, 0, 81, 85
2, 24263, Note_on_c, 0, 81, 0
2, 24264, Note_on_c, 0, 79, 85
2, 24287, Note_on_c, 0, 79, 0
2, 24288, Note_on_c, 0, 78, 85
2, 24377, Note_on_c, 0, 78, 0
2, 24384, Note_on_c, 0, 76, 85
2, 24473, Note_on_c, 0, 76, 0
2, 24480, Note_on_c, 0, 69, 85
2, 24569, Note_on_c, 0, 69, 0
2, 24576, Note_on_c, 0, 67, 85
2, 24589, Note_on_c, 0, 67, 0
2, 24590, Note_on_c, 0, 69, 85
2, 24603, Note_on_c, 0, 69, 0
2, 24604, Note_on_c, 0, 67, 85
2, 24617, Note_on_c, 0, 67, 0
2, 24618, Note_on_c, 0, 69, 85
2, 24631, Note_on_c, 0, 69, 0
2, 24632, Note_on_c, 0, 67, 85
2, 24645, Note_on_c, 0, 67, 0
2, 24646, Note_on_c, 0, 66, 85
2, 24658, Note_on_c, 0, 66, 0
2, 24659, Note_on_c, 0, 67, 85
2, 24671, Note_on_c, 0, 67, 0
2, 24672, Note_on_c, 0, 66, 85
2, 24761, Note_on_c, 0, 66, 0
2, 24768, Note_on_c, 0, 64, 85
2, 24798, Note_on_c, 0, 64, 0
2, 24800, Note_on_c, 0, 67, 84
2, 24830, Note_on_c, 0, 67, 0
2, 24832, Note_on_c, 0, 71, 83
2, 24862, Note_on_c, 0, 71, 0
2, 24864, Note_on_c, 0, 62, 82
2, 24953, Note_on_c, 0, 62, 0
2, 24960, Note_on_c, 0, 61, 79
2, 24973, Note_on_c, 0, 61, 0
2, 24974, Note_on_c, 0, 62, 79
2, 24987, Note_on_c, 0, 62, 0
2, 24988, Note_on_c, 0, 61, 79
2, 25001, Note_on_c, 0, 61, 0
2, 25002, Note_on_c, 0, 62, 78
2, 25015, Note_on_c, 0, 62, 0
2, 25016, Note_on_c, 0, 61, 78
2, 25029, Note_on_c, 0, 61, 0
2, 25030, Note_on_c, 0, 59, 78
2, 25042, Note_on_c, 0, 59, 0
2, 25043, Note_on_c, 0, 61, 77
2, 25055, Note_on_c, 0, 61, 0
2, 25056, Note_on_c, 0, 62, 77
2, 25233, Note_on_c, 0, 62, 0
2, 25344, Note_on_c, 0, 74, 77
2, 25433, Note_on_c, 0, 74, 0
2, 25440, Note_on_c, 0, 78, 77
2, 25529, Note_on_c, 0, 78, 0
2, 25536, Note_on_c, 0, 81, 77
2, 25566, Note_on_c, 0, 81, 0
2, 25568, Note_on_c, 0, 78, 77
2, 25598, Note_on_c, 0, 78, 0
2, 25600, Note_on_c, 0, 74, 77
2, 25630, Note_on_c, 0, 74, 0
2, 25632, Note_on_c, 0, 74, 77
2, 25721, Note_on_c, 0, 74, 0
2, 25728, Note_on_c, 0, 73, 77
2, 25817, Note_on_c, 0, 73, 0
2, 25824, Note_on_c, 0, 71, 77
2, 26009, Note_on_c, 0, 71, 0
2, 26016, Note_on_c, 0, 69, 77
2, 26105, Note_on_c, 0, 69, 0
2, 26112, Note_on_c, 0, 67, 77
2, 26201, Note_on_c, 0, 67, 0
2, 26208, Note_on_c, 0, 69, 77
2, 26231, Note_on_c, 0, 69, 0
2, 26232, Note_on_c, 0, 67, 77
2, 26255, Note_on_c, 0, 67, 0
2, 26256, Note_on_c, 0, 66, 77
2, 26279, Note_on_c, 0, 66, 0
2, 26280, Note_on_c, 0, 67, 77
2, 26303, Note_on_c, 0, 67, 0
2, 26304, Note_on_c, 0, 66, 77
2, 26393, Note_on_c, 0, 66, 0
2, 26496, Note_on_c, 0, 64, 77
2, 26585, Note_on_c, 0, 64, 0
2, 26592, Note_on_c, 0, 67, 77
2, 26681, Note_on_c, 0, 67, 0
2, 26688, Note_on_c, 0, 71, 77
2, 26718, Note_on_c, 0, 71, 0
2, 26720, Note_on_c, 0, 67, 77
2, 26750, Note_on_c, 0, 67, 0
2, 26752, Note_on_c, 0, 64, 77
2, 26782, Note_on_c, 0, 64, 0
2, 26784, Note_on_c, 0, 62, 77
2, 26873, Note_on_c, 0, 62, 0
2, 26880, Note_on_c, 0, 61, 77
2, 26893, Note_on_c, 0, 61, 0
2, 26894, Note_on_c, 0, 62, 77
2, 26907, Note_on_c, 0, 62, 0
2, 26908, Note_on_c, 0, 61, 77
2, 26921, Note_on_c, 0, 61, 0
2, 26922, Note_on_c, 0, 62, 77
2, 26935, Note_on_c, 0, 62, 0
2, 26936, Note_on_c, 0, 61, 77
2, 26949, Note_on_c, 0, 61, 0
2, 26950, Note_on_c, 0, 59, 77
2, 26962, Note_on_c, 0, 59, 0
2, 26963, Note_on_c, 0, 61, 77
2, 26975, Note_on_c, 0, 61, 0
2, 26976, Note_on_c, 0, 62, 77
2, 27065, Note_on_c, 0, 62, 0
2, 27072, Note_on_c, 0, 57, 77
2, 27161, Note_on_c, 0, 57, 0
2, 27168, Note_on_c, 0, 67, 77
2, 27168, Note_on_c, 0, 64, 77
2, 27257, Note_on_c, 0, 67, 0
2, 27257, Note_on_c, 0, 64, 0
2, 27264, Note_on_c, 0, 66, 77
2, 27264, Note_on_c, 0, 62, 77
2, 27353, Note_on_c, 0, 66, 0
2, 27353, Note_on_c, 0, 62, 0
2, 27360, Note_on_c, 0, 66, 77
2, 27360, Note_on_c, 0, 62, 77
2, 27449, Note_on_c, 0, 66, 0
2, 27449, Note_on_c, 0, 62, 0
2, 27456, Note_on_c, 0, 64, 77
2, 27456, Note_on_c, 0, 61, 77
2, 27545, Note_on_c, 0, 64, 0
2, 27545, Note_on_c, 0, 61, 0
2, 27648, Note_on_c, 0, 74, 77
2, 27737, Note_on_c, 0, 74, 0
2, 27744, Note_on_c, 0, 78, 77
2, 27833, Note_on_c, 0, 78, 0
2, 27840, Note_on_c, 0, 81, 77
2, 27870, Note_on_c, 0, 81, 0
2, 27872, Note_on_c, 0, 78, 77
2, 27902, Note_on_c, 0, 78, 0
2, 27904, Note_on_c, 0, 74, 77
2, 27934, Note_on_c, 0, 74, 0
2, 27936, Note_on_c, 0, 74, 77
2, 28025, Note_on_c, 0, 74, 0
2, 28032, Note_on_c, 0, 73, 77
2, 28121, Note_on_c, 0, 73, 0
2, 28128, Note_on_c, 0, 71, 77
2, 28313, Note_on_c, 0, 71, 0
2, 28320, Note_on_c, 0, 69, 77
2, 28409, Note_on_c, 0, 69, 0
2, 28416, Note_on_c, 0, 67, 77
2, 28505, Note_on_c, 0, 67, 0
2, 28512, Note_on_c, 0, 69, 77
2, 28535, Note_on_c, 0, 69, 0
2, 28536, Note_on_c, 0, 67, 77
2, 28559, Note_on_c, 0, 67, 0
2, 28560, Note_on_c, 0, 66, 77
2, 28583, Note_on_c, 0, 66, 0
2, 28584, Note_on_c, 0, 67, 77
2, 28607, Note_on_c, 0, 67, 0
2, 28608, Note_on_c, 0, 66, 77
2, 28697, Note_on_c, 0, 66, 0
2, 28800, Note_on_c, 0, 64, 77
2, 28889, Note_on_c, 0, 64, 0
2, 28896, Note_on_c, 0, 67, 77
2, 28985, Note_on_c, 0, 67, 0
2, 28992, Note_on_c, 0, 71, 77
2, 29022, Note_on_c, 0, 71, 0
2, 29024, Note_on_c, 0, 67, 77
2, 29054, Note_on_c, 0, 67, 0
2, 29056, Note_on_c, 0, 64, 77
2, 29086, Note_on_c, 0, 64, 0
2, 29088, Note_on_c, 0, 62, 77
2, 29177, Note_on_c, 0, 62, 0
2, 29184, Note_on_c, 0, 61, 77
2, 29197, Note_on_c, 0, 61, 0
2, 29198, Note_on_c, 0, 62, 77
2, 29211, Note_on_c, 0, 62, 0
2, 29212, Note_on_c, 0, 61, 77
2, 29225, Note_on_c, 0, 61, 0
2, 29226, Note_on_c, 0, 62, 77
2, 29239, Note_on_c, 0, 62, 0
2, 29240, Note_on_c, 0, 61, 77
2, 29253, Note_on_c, 0, 61, 0
2, 29254, Note_on_c, 0, 59, 77
2, 29266, Note_on_c, 0, 59, 0
2, 29267, Note_on_c, 0, 61, 77
2, 29279, Note_on_c, 0, 61, 0
2, 29280, Note_on_c, 0, 62, 77
2, 29369, Note_on_c, 0, 62, 0
2, 29376, Note_on_c, 0, 57, 77
2, 29465, Note_on_c, 0, 57, 0
2, 29472, Note_on_c, 0, 67, 77
2, 29472, Note_on_c, 0, 64, 77
2, 29561, Note_on_c, 0, 67, 0
2, 29561, Note_on_c, 0, 64, 0
2, 29568, Note_on_c, 0, 66, 77
2, 29568, Note_on_c, 0, 62, 77
2, 29657, Note_on_c, 0, 66, 0
2, 29657, Note_on_c, 0, 62, 0
2, 29664, Note_on_c, 0, 66, 77
2, 29664, Note_on_c, 0, 62, 77
2, 29753, Note_on_c, 0, 66, 0
2, 29753, Note_on_c, 0, 62, 0
2, 29760, Note_on_c, 0, 64, 77
2, 29760, Note_on_c, 0, 61, 77
2, 29849, Note_on_c, 0, 64, 0
2, 29849, Note_on_c, 0, 61, 0
2, 30048, Note_on_c, 0, 76, 77
2, 30078, Note_on_c, 0, 76, 0
2, 30080, Note_on_c, 0, 73, 77
2, 30110, Note_on_c, 0, 73, 0
2, 30112, Note_on_c, 0, 69, 77
2, 30142, Note_on_c, 0, 69, 0
2, 30144, Note_on_c, 0, 69, 77
2, 30233, Note_on_c, 0, 69, 0
2, 30336, Note_on_c, 0, 74, 77
2, 30366, Note_on_c, 0, 74, 0
2, 30368, Note_on_c, 0, 71, 77
2, 30398, Note_on_c, 0, 71, 0
2, 30400, Note_on_c, 0, 68, 77
2, 30430, Note_on_c, 0, 68, 0
2, 30432, Note_on_c, 0, 68, 77
2, 30521, Note_on_c, 0, 68, 0
2, 30624, Note_on_c, 0, 86, 77
2, 30654, Note_on_c, 0, 86, 0
2, 30656, Note_on_c, 0, 83, 76
2, 30686, Note_on_c, 0, 83, 0
2, 30688, Note_on_c, 0, 80, 76
2, 30718, Note_on_c, 0, 80, 0
2, 30720, Note_on_c, 0, 80, 75
2, 30809, Note_on_c, 0, 80, 0
2, 30912, Note_on_c, 0, 81, 72
2, 30942, Note_on_c, 0, 81, 0
2, 30944, Note_on_c, 0, 83, 72
2, 30974, Note_on_c, 0, 83, 0
2, 30976, Note_on_c, 0, 79, 72
2, 31006, Note_on_c, 0, 79, 0
2, 31008, Note_on_c, 0, 76, 71
2, 31097, Note_on_c, 0, 76, 0
2, 31200, Note_on_c, 0, 78, 77
2, 31289, Note_on_c, 0, 78, 0
2, 31296, Note_on_c, 0, 81, 77
2, 31326, Note_on_c, 0, 81, 0
2, 31328, Note_on_c, 0, 78, 77
2, 31358, Note_on_c, 0, 78, 0
2, 31360, Note_on_c, 0, 74, 77
2, 31390, Note_on_c, 0, 74, 0
2, 31392, Note_on_c, 0, 74, 77
2, 31481, Note_on_c, 0, 74, 0
2, 31488, Note_on_c, 0, 73, 77
2, 31577, Note_on_c, 0, 73, 0
2, 31584, Note_on_c, 0, 71, 77
2, 31769, Note_on_c, 0, 71, 0
2, 31776, Note_on_c, 0, 69, 77
2, 31865, Note_on_c, 0, 69, 0
2, 31872, Note_on_c, 0, 67, 77
2, 31961, Note_on_c, 0, 67, 0
2, 31968, Note_on_c, 0, 69, 77
2, 31991, Note_on_c, 0, 69, 0
2, 31992, Note_on_c, 0, 67, 77
2, 32015, Note_on_c, 0, 67, 0
2, 32016, Note_on_c, 0, 66, 77
2, 32039, Note_on_c, 0, 66, 0
2, 32040, Note_on_c, 0, 67, 77
2, 32063, Note_on_c, 0, 67, 0
2, 32064, Note_on_c, 0, 66, 77
2, 32153, Note_on_c, 0, 66, 0
2, 32256, Note_on_c, 0, 64, 77
2, 32345, Note_on_c, 0, 64, 0
2, 32352, Note_on_c, 0, 67, 77
2, 32441, Note_on_c, 0, 67, 0
2, 32448, Note_on_c, 0, 71, 77
2, 32478, Note_on_c, 0, 71, 0
2, 32480, Note_on_c, 0, 67, 77
2, 32510, Note_on_c, 0, 67, 0
2, 32512, Note_on_c, 0, 64, 77
2, 32542, Note_on_c, 0, 64, 0
2, 32544, Note_on_c, 0, 62, 77
2, 32633, Note_on_c, 0, 62, 0
2, 32640, Note_on_c, 0, 61, 77
2, 32653, Note_on_c, 0, 61, 0
2, 32654, Note_on_c, 0, 62, 77
2, 32667, Note_on_c, 0, 62, 0
2, 32668, Note_on_c, 0, 61, 77
2, 32681, Note_on_c, 0, 61, 0
2, 32682, Note_on_c, 0, 62, 77
2, 32695, Note_on_c, 0, 62, 0
2, 32696, Note_on_c, 0, 61, 77
2, 32709, Note_on_c, 0, 61, 0
2, 32710, Note_on_c, 0, 59, 77
2, 32722, Note_on_c, 0, 59, 0
2, 32723, Note_on_c, 0, 61, 77
2, 32735, Note_on_c, 0, 61, 0
2, 32736, Note_on_c, 0, 62, 77
2, 32825, Note_on_c, 0, 62, 0
2, 32832, Note_on_c, 0, 76, 77
2, 32921, Note_on_c, 0, 76, 0
2, 32928, Note_on_c, 0, 83, 77
2, 32958, Note_on_c, 0, 83, 0
2, 32960, Note_on_c, 0, 79, 77
2, 32990, Note_on_c, 0, 79, 0
2, 32992, Note_on_c, 0, 76, 77
2, 33022, Note_on_c, 0, 76, 0
2, 33024, Note_on_c, 0, 85, 77
2, 33054, Note_on_c, 0, 85, 0
2, 33056, Note_on_c, 0, 79, 77
2, 33086, Note_on_c, 0, 79, 0
2, 33088, Note_on_c, 0, 76, 77
2, 33118, Note_on_c, 0, 76, 0
2, 33120, Note_on_c, 0, 86, 77
2, 33209, Note_on_c, 0, 86, 0
2, 33216, Note_on_c, 0, 74, 77
2, 33246, Note_on_c, 0, 74, 0
2, 33248, Note_on_c, 0, 78, 77
2, 33278, Note_on_c, 0, 78, 0
2, 33280, Note_on_c, 0, 81, 77
2, 33310, Note_on_c, 0, 81, 0
2, 33312, Note_on_c, 0, 86, 77
2, 33401, Note_on_c, 0, 86, 0
2, 33408, Note_on_c, 0, 83, 77
2, 33438, Note_on_c, 0, 83, 0
2, 33440, Note_on_c, 0, 81, 77
2, 33470, Note_on_c, 0, 81, 0
2, 33472, Note_on_c, 0, 79, 77
2, 33502, Note_on_c, 0, 79, 0
2, 33504, Note_on_c, 0, 78, 77
2, 33593, Note_on_c, 0, 78, 0
2, 33600, Note_on_c, 0, 76, 77
2, 33613, Note_on_c, 0, 76, 0
2, 33614, Note_on_c, 0, 78, 77
2, 33627, Note_on_c, 0, 78, 0
2, 33628, Note_on_c, 0, 76, 77
2, 33641, Note_on_c, 0, 76, 0
2, 33642, Note_on_c, 0, 78, 77
2, 33655, Note_on_c, 0, 78, 0
2, 33656, Note_on_c, 0, 76, 77
2, 33669, Note_on_c, 0, 76, 0
2, 33670, Note_on_c, 0, 74, 77
2, 33682, Note_on_c, 0, 74, 0
2, 33683, Note_on_c, 0, 76, 77
2, 33695, Note_on_c, 0, 76, 0
2, 33696, Note_on_c, 0, 74, 77
2, 33873, Note_on_c, 0, 74, 0
2, 34080, Note_on_c, 0, 76, 77
2, 34110, Note_on_c, 0, 76, 0
2, 34112, Note_on_c, 0, 73, 77
2, 34142, Note_on_c, 0, 73, 0
2, 34144, Note_on_c, 0, 69, 77
2, 34174, Note_on_c, 0, 69, 0
2, 34176, Note_on_c, 0, 69, 77
2, 34265, Note_on_c, 0, 69, 0
2, 34368, Note_on_c, 0, 74, 77
2, 34398, Note_on_c, 0, 74, 0
2, 34400, Note_on_c, 0, 71, 77
2, 34430, Note_on_c, 0, 71, 0
2, 34432, Note_on_c, 0, 68, 77
2, 34462, Note_on_c, 0, 68, 0
2, 34464, Note_on_c, 0, 68, 77
2, 34553, Note_on_c, 0, 68, 0
2, 34656, Note_on_c, 0, 86, 77
2, 34686, Note_on_c, 0, 86, 0
2, 34688, Note_on_c, 0, 83, 76
2, 34718, Note_on_c, 0, 83, 0
2, 34720, Note_on_c, 0, 80, 76
2, 34750, Note_on_c, 0, 80, 0
2, 34752, Note_on_c, 0, 80, 75
2, 34841, Note_on_c, 0, 80, 0
2, 34944, Note_on_c, 0, 81, 72
2, 34974, Note_on_c, 0, 81, 0
2, 34976, Note_on_c, 0, 83, 72
2, 35006, Note_on_c, 0, 83, 0
2, 35008, Note_on_c, 0, 79, 72
2, 35038, Note_on_c, 0, 79, 0
2, 35040, Note_on_c, 0, 76, 71
2, 35129, Note_on_c, 0, 76, 0
2, 35232, Note_on_c, 0, 78, 77
2, 35321, Note_on_c, 0, 78, 0
2, 35328, Note_on_c, 0, 81, 77
2, 35358, Note_on_c, 0, 81, 0
2, 35360, Note_on_c, 0, 78, 77
2, 35390, Note_on_c, 0, 78, 0
2, 35392, Note_on_c, 0, 74, 77
2, 35422, Note_on_c, 0, 74, 0
2, 35424, Note_on_c, 0, 74, 77
2, 35513, Note_on_c, 0, 74, 0
2, 35520, Note_on_c, 0, 73, 77
2, 35609, Note_on_c, 0, 73, 0
2, 35616, Note_on_c, 0, 71, 77
2, 35801, Note_on_c, 0, 71, 0
2, 35808, Note_on_c, 0, 69, 77
2, 35897, Note_on_c, 0, 69, 0
2, 35904, Note_on_c, 0, 67, 77
2, 35993, Note_on_c, 0, 67, 0
2, 36000, Note_on_c, 0, 69, 77
2, 36023, Note_on_c, 0, 69, 0
2, 36024, Note_on_c, 0, 67, 77
2, 36047, Note_on_c, 0, 67, 0
2, 36048, Note_on_c, 0, 66, 77
2, 36071, Note_on_c, 0, 66, 0
2, 36072, Note_on_c, 0, 67, 77
2, 36095, Note_on_c, 0, 67, 0
2, 36096, Note_on_c, 0, 66, 77
2, 36185, Note_on_c, 0, 66, 0
2, 36288, Note_on_c, 0, 64, 77
2, 36377, Note_on_c, 0, 64, 0
2, 36384, Note_on_c, 0, 67, 77
2, 36473, Note_on_c, 0, 67, 0
2, 36480, Note_on_c, 0, 71, 77
2, 36510, Note_on_c, 0, 71, 0
2, 36512, Note_on_c, 0, 67, 77
2, 36542, Note_on_c, 0, 67, 0
2, 36544, Note_on_c, 0, 64, 77
2, 36574, Note_on_c, 0, 64, 0
2, 36576, Note_on_c, 0, 62, 77
2, 36665, Note_on_c, 0, 62, 0
2, 36672, Note_on_c, 0, 61, 77
2, 36685, Note_on_c, 0, 61, 0
2, 36686, Note_on_c, 0, 62, 77
2, 36699, Note_on_c, 0, 62, 0
2, 36700, Note_on_c, 0, 61, 77
2, 36713, Note_on_c, 0, 61, 0
2, 36714, Note_on_c, 0, 62, 77
2, 36727, Note_on_c, 0, 62, 0
2, 36728, Note_on_c, 0, 61, 77
2, 36741, Note_on_c, 0, 61, 0
2, 36742, Note_on_c, 0, 59, 77
2, 36754, Note_on_c, 0, 59, 0
2, 36755, Note_on_c, 0, 61, 77
2, 36767, Note_on_c, 0, 61, 0
2, 36768, Note_on_c, 0, 62, 77
2, 36857, Note_on_c, 0, 62, 0
2, 36864, Note_on_c, 0, 76, 77
2, 36953, Note_on_c, 0, 76, 0
2, 36960, Note_on_c, 0, 83, 77
2, 36990, Note_on_c, 0, 83, 0
2, 36992, Note_on_c, 0, 79, 77
2, 37022, Note_on_c, 0, 79, 0
2, 37024, Note_on_c, 0, 76, 77
2, 37054, Note_on_c, 0, 76, 0
2, 37056, Note_on_c, 0, 85, 77
2, 37086, Note_on_c, 0, 85, 0
2, 37088, Note_on_c, 0, 79, 77
2, 37118, Note_on_c, 0, 79, 0
2, 37120, Note_on_c, 0, 76, 77
2, 37150, Note_on_c, 0, 76, 0
2, 37152, Note_on_c, 0, 86, 77
2, 37241, Note_on_c, 0, 86, 0
2, 37248, Note_on_c, 0, 74, 77
2, 37278, Note_on_c, 0, 74, 0
2, 37280, Note_on_c, 0, 78, 77
2, 37310, Note_on_c, 0, 78, 0
2, 37312, Note_on_c, 0, 81, 77
2, 37342, Note_on_c, 0, 81, 0
2, 37344, Note_on_c, 0, 86, 77
2, 37433, Note_on_c, 0, 86, 0
2, 37440, Note_on_c, 0, 83, 77
2, 37470, Note_on_c, 0, 83, 0
2, 37472, Note_on_c, 0, 81, 77
2, 37502, Note_on_c, 0, 81, 0
2, 37504, Note_on_c, 0, 79, 77
2, 37534, Note_on_c, 0, 79, 0
2, 37536, Note_on_c, 0, 78, 77
2, 37625, Note_on_c, 0, 78, 0
2, 37632, Note_on_c, 0, 76, 77
2, 37645, Note_on_c, 0, 76, 0
2, 37646, Note_on_c, 0, 78, 77
2, 37659, Note_on_c, 0, 78, 0
2, 37660, Note_on_c, 0, 76, 77
2, 37673, Note_on_c, 0, 76, 0
2, 37674, Note_on_c, 0, 78, 77
2, 37687, Note_on_c, 0, 78, 0
2, 37688, Note_on_c, 0, 76, 77
2, 37701, Note_on_c, 0, 76, 0
2, 37702, Note_on_c, 0, 74, 77
2, 37714, Note_on_c, 0, 74, 0
2, 37715, Note_on_c, 0, 76, 77
2, 37727, Note_on_c, 0, 76, 0
2, 37728, Note_on_c, 0, 74, 77
2, 37905, Note_on_c, 0, 74, 0
2, 38304, End_track
3, 0, Start_track
3, 0, Program_c, 1, 0
3, 0, Control_c, 1, 7, 127
3, 0, Control_c, 1, 10, 64
3, 0, Note_on_c, 1, 66, 70
3, 0, Note_on_c, 1, 62, 70
3, 177, Note_on_c, 1, 66, 0
3, 177, Note_on_c, 1, 62, 0
3, 192, Note_on_c, 1, 66, 70
3, 192, Note_on_c, 1, 62, 70
3, 281, Note_on_c, 1, 66, 0
3, 281, Note_on_c, 1, 62, 0
3, 288, Note_on_c, 1, 67, 70
3, 288, Note_on_c, 1, 64, 70
3, 480, Note_on_c, 1, 67, 0
3, 480, Note_on_c, 1, 64, 0
3, 480, Note_on_c, 1, 66, 70
3, 480, Note_on_c, 1, 62, 70
3, 569, Note_on_c, 1, 66, 0
3, 569, Note_on_c, 1, 62, 0
3, 576, Note_on_c, 1, 64, 70
3, 576, Note_on_c, 1, 61, 70
3, 768, Note_on_c, 1, 64, 0
3, 768, Note_on_c, 1, 57, 70
3, 857, Note_on_c, 1, 61, 0
3, 857, Note_on_c, 1, 57, 0
3, 864, Note_on_c, 1, 62, 70
3, 864, Note_on_c, 1, 59, 70
3, 1041, Note_on_c, 1, 62, 0
3, 1041, Note_on_c, 1, 59, 0
3, 1152, Note_on_c, 1, 43, 85
3, 1152, Note_on_c, 1, 31, 85
3, 1329, Note_on_c, 1, 43, 0
3, 1329, Note_on_c, 1, 31, 0
3, 1440, Note_on_c, 1, 57, 77
3, 1440, Note_on_c, 1, 55, 77
3, 1617, Note_on_c, 1, 57, 0
3, 1617, Note_on_c, 1, 55, 0
3, 1632, Note_on_c, 1, 57, 77
3, 1632, Note_on_c, 1, 54, 77
3, 1721, Note_on_c, 1, 57, 0
3, 1721, Note_on_c, 1, 54, 0
3, 1728, Note_on_c, 1, 49, 77
3, 1905, Note_on_c, 1, 49, 0
3, 1920, Note_on_c, 1, 50, 77
3, 2009, Note_on_c, 1, 50, 0
3, 2016, Note_on_c, 1, 45, 77
3, 2105, Note_on_c, 1, 45, 0
3, 2112, Note_on_c, 1, 57, 77
3, 2201, Note_on_c, 1, 57, 0
3, 2208, Note_on_c, 1, 45, 77
3, 2297, Note_on_c, 1, 45, 0
3, 2304, Note_on_c, 1, 66, 70
3, 2304, Note_on_c, 1, 62, 70
3, 2481, Note_on_c, 1, 66, 0
3, 2481, Note_on_c, 1, 62, 0
3, 2496, Note_on_c, 1, 66, 70
3, 2496, Note_on_c, 1, 62, 70
3, 2585, Note_on_c, 1, 66, 0
3, 2585, Note_on_c, 1, 62, 0
3, 2592, Note_on_c, 1, 67, 70
3, 2592, Note_on_c, 1, 64, 70
3, 2784, Note_on_c, 1, 67, 0
3, 2784, Note_on_c, 1, 64, 0
3, 2784, Note_on_c, 1, 66, 70
3, 2784, Note_on_c, 1, 62, 70
3, 2873, Note_on_c, 1, 66, 0
3, 2873, Note_on_c, 1, 62, 0
3, 2880, Note_on_c, 1, 64, 70
3, 2880, Note_on_c, 1, 61, 70
3, 3072, Note_on_c, 1, 64, 0
3, 3072, Note_on_c, 1, 57, 70
3, 3161, Note_on_c, 1, 61, 0
3, 3161, Note_on_c, 1, 57, 0
3, 3168, Note_on_c, 1, 62, 70
3, 3168, Note_on_c, 1, 59, 70
3, 3345, Note_on_c, 1, 62, 0
3, 3345, Note_on_c, 1, 59, 0
3, 3456, Note_on_c, 1, 43, 85
3, 3456, Note_on_c, 1, 31, 85
3, 3633, Note_on_c, 1, 43, 0
3, 3633, Note_on_c, 1, 31, 0
3, 3744, Note_on_c, 1, 57, 77
3, 3744, Note_on_c, 1, 55, 77
3, 3921, Note_on_c, 1, 57, 0
3, 3921, Note_on_c, 1, 55, 0
3, 3936, Note_on_c, 1, 57, 77
3, 3936, Note_on_c, 1, 54, 77
3, 4025, Note_on_c, 1, 57, 0
3, 4025, Note_on_c, 1, 54, 0
3, 4032, Note_on_c, 1, 49, 77
3, 4209, Note_on_c, 1, 49, 0
3, 4224, Note_on_c, 1, 50, 77
3, 4313, Note_on_c, 1, 50, 0
3, 4320, Note_on_c, 1, 45, 77
3, 4409, Note_on_c, 1, 45, 0
3, 4416, Note_on_c, 1, 57, 77
3, 4505, Note_on_c, 1, 57, 0
3, 4512, Note_on_c, 1, 45, 77
3, 4601, Note_on_c, 1, 45, 0
3, 4608, Note_on_c, 1, 61, 77
3, 4608, Note_on_c, 1, 57, 77
3, 4697, Note_on_c, 1, 61, 0
3, 4697, Note_on_c, 1, 57, 0
3, 4896, Note_on_c, 1, 62, 77
3, 4896, Note_on_c, 1, 59, 77
3, 4985, Note_on_c, 1, 62, 0
3, 4985, Note_on_c, 1, 59, 0
3, 5184, Note_on_c, 1, 62, 77
3, 5184, Note_on_c, 1, 59, 77
3, 5273, Note_on_c, 1, 62, 0
3, 5273, Note_on_c, 1, 59, 0
3, 5472, Note_on_c, 1, 64, 77
3, 5472, Note_on_c, 1, 61, 77
3, 5561, Note_on_c, 1, 64, 0
3, 5561, Note_on_c, 1, 61, 0
3, 5760, Note_on_c, 1, 66, 70
3, 5760, Note_on_c, 1, 62, 70
3, 5937, Note_on_c, 1, 66, 0
3, 5937, Note_on_c, 1, 62, 0
3, 5952, Note_on_c, 1, 66, 70
3, 5952, Note_on_c, 1, 62, 70
3, 6041, Note_on_c, 1, 66, 0
3, 6041, Note_on_c, 1, 62, 0
3, 6048, Note_on_c, 1, 67, 70
3, 6048, Note_on_c, 1, 64, 70
3, 6240, Note_on_c, 1, 67, 0
3, 6240, Note_on_c, 1, 64, 0
3, 6240, Note_on_c, 1, 66, 70
3, 6240, Note_on_c, 1, 62, 70
3, 6329, Note_on_c, 1, 66, 0
3, 6329, Note_on_c, 1, 62, 0
3, 6336, Note_on_c, 1, 64, 70
3, 6336, Note_on_c, 1, 61, 70
3, 6528, Note_on_c, 1, 64, 0
3, 6528, Note_on_c, 1, 57, 70
3, 6617, Note_on_c, 1, 61, 0
3, 6617, Note_on_c, 1, 57, 0
3, 6624, Note_on_c, 1, 62, 70
3, 6624, Note_on_c, 1, 59, 70
3, 6801, Note_on_c, 1, 62, 0
3, 6801, Note_on_c, 1, 59, 0
3, 6912, Note_on_c, 1, 43, 85
3, 6912, Note_on_c, 1, 31, 85
3, 7089, Note_on_c, 1, 43, 0
3, 7089, Note_on_c, 1, 31, 0
3, 7200, Note_on_c, 1, 57, 77
3, 7200, Note_on_c, 1, 55, 77
3, 7377, Note_on_c, 1, 57, 0
3, 7377, Note_on_c, 1, 55, 0
3, 7392, Note_on_c, 1, 57, 77
3, 7392, Note_on_c, 1, 54, 77
3, 7481, Note_on_c, 1, 57, 0
3, 7481, Note_on_c, 1, 54, 0
3, 7488, Note_on_c, 1, 71, 77
3, 7488, Note_on_c, 1, 67, 77
3, 7577, Note_on_c, 1, 71, 0
3, 7577, Note_on_c, 1, 67, 0
3, 7680, Note_on_c, 1, 69, 77
3, 7680, Note_on_c, 1, 67, 77
3, 7769, Note_on_c, 1, 69, 0
3, 7769, Note_on_c, 1, 67, 0
3, 7776, Note_on_c, 1, 69, 77
3, 7776, Note_on_c, 1, 66, 77
3, 7865, Note_on_c, 1, 69, 0
3, 7865, Note_on_c, 1, 66, 0
3, 8064, Note_on_c, 1, 67, 77
3, 8153, Note_on_c, 1, 67, 0
3, 8160, Note_on_c, 1, 69, 77
3, 8249, Note_on_c, 1, 69, 0
3, 8256, Note_on_c, 1, 57, 77
3, 8345, Note_on_c, 1, 57, 0
3, 8352, Note_on_c, 1, 62, 77
3, 8441, Note_on_c, 1, 62, 0
3, 8448, Note_on_c, 1, 57, 77
3, 8537, Note_on_c, 1, 57, 0
3, 8544, Note_on_c, 1, 50, 77
3, 8633, Note_on_c, 1, 50, 0
3, 8640, Note_on_c, 1, 61, 77
3, 8640, Note_on_c, 1, 57, 77
3, 8729, Note_on_c, 1, 61, 0
3, 8729, Note_on_c, 1, 57, 0
3, 8928, Note_on_c, 1, 62, 77
3, 8928, Note_on_c, 1, 59, 77
3, 9017, Note_on_c, 1, 62, 0
3, 9017, Note_on_c, 1, 59, 0
3, 9216, Note_on_c, 1, 62, 77
3, 9216, Note_on_c, 1, 59, 77
3, 9305, Note_on_c, 1, 62, 0
3, 9305, Note_on_c, 1, 59, 0
3, 9504, Note_on_c, 1, 64, 77
3, 9504, Note_on_c, 1, 61, 77
3, 9593, Note_on_c, 1, 64, 0
3, 9593, Note_on_c, 1, 61, 0
3, 9792, Note_on_c, 1, 66, 70
3, 9792, Note_on_c, 1, 62, 70
3, 9969, Note_on_c, 1, 66, 0
3, 9969, Note_on_c, 1, 62, 0
3, 9984, Note_on_c, 1, 66, 70
3, 9984, Note_on_c, 1, 62, 70
3, 10073, Note_on_c, 1, 66, 0
3, 10073, Note_on_c, 1, 62, 0
3, 10080, Note_on_c, 1, 67, 70
3, 10080, Note_on_c, 1, 64, 70
3, 10272, Note_on_c, 1, 67, 0
3, 10272, Note_on_c, 1, 64, 0
3, 10272, Note_on_c, 1, 66, 70
3, 10272, Note_on_c, 1, 62, 70
3, 10361, Note_on_c, 1, 66, 0
3, 10361, Note_on_c, 1, 62, 0
3, 10368, Note_on_c, 1, 64, 70
3, 10368, Note_on_c, 1, 61, 70
3, 10560, Note_on_c, 1, 64, 0
3, 10560, Note_on_c, 1, 57, 70
3, 10649, Note_on_c, 1, 61, 0
3, 10649, Note_on_c, 1, 57, 0
3, 10656, Note_on_c, 1, 62, 70
3, 10656, Note_on_c, 1, 59, 70
3, 10833, Note_on_c, 1, 62, 0
3, 10833, Note_on_c, 1, 59, 0
3, 10944, Note_on_c, 1, 43, 85
3, 10944, Note_on_c, 1, 31, 85
3, 11121, Note_on_c, 1, 43, 0
3, 11121, Note_on_c, 1, 31, 0
3, 11232, Note_on_c, 1, 57, 77
3, 11232, Note_on_c, 1, 55, 77
3, 11409, Note_on_c, 1, 57, 0
3, 11409, Note_on_c, 1, 55, 0
3, 11424, Note_on_c, 1, 57, 77
3, 11424, Note_on_c, 1, 54, 77
3, 11513, Note_on_c, 1, 57, 0
3, 11513, Note_on_c, 1, 54, 0
3, 11520, Note_on_c, 1, 71, 77
3, 11520, Note_on_c, 1, 67, 77
3, 11609, Note_on_c, 1, 71, 0
3, 11609, Note_on_c, 1, 67, 0
3, 11712, Note_on_c, 1, 69, 77
3, 11712, Note_on_c, 1, 67, 77
3, 11801, Note_on_c, 1, 69, 0
3, 11801, Note_on_c, 1, 67, 0
3, 11808, Note_on_c, 1, 69, 77
3, 11808, Note_on_c, 1, 66, 77
3, 11897, Note_on_c, 1, 69, 0
3, 11897, Note_on_c, 1, 66, 0
3, 12096, Note_on_c, 1, 67, 77
3, 12185, Note_on_c, 1, 67, 0
3, 12192, Note_on_c, 1, 69, 77
3, 12281, Note_on_c, 1, 69, 0
3, 12288, Note_on_c, 1, 57, 77
3, 12377, Note_on_c, 1, 57, 0
3, 12384, Note_on_c, 1, 62, 77
3, 12473, Note_on_c, 1, 62, 0
3, 12480, Note_on_c, 1, 57, 77
3, 12569, Note_on_c, 1, 57, 0
3, 12576, Note_on_c, 1, 50, 77
3, 12665, Note_on_c, 1, 50, 0
3, 12672, Note_on_c, 1, 50, 77
3, 12761, Note_on_c, 1, 50, 0
3, 12768, Note_on_c, 1, 52, 77
3, 12857, Note_on_c, 1, 52, 0
3, 12864, Note_on_c, 1, 54, 77
3, 12953, Note_on_c, 1, 54, 0
3, 12960, Note_on_c, 1, 55, 77
3, 13049, Note_on_c, 1, 55, 0
3, 13056, Note_on_c, 1, 43, 77
3, 13145, Note_on_c, 1, 43, 0
3, 13152, Note_on_c, 1, 54, 77
3, 13241, Note_on_c, 1, 54, 0
3, 13248, Note_on_c, 1, 52, 77
3, 13337, Note_on_c, 1, 52, 0
3, 13344, Note_on_c, 1, 49, 77
3, 13433, Note_on_c, 1, 49, 0
3, 13440, Note_on_c, 1, 50, 77
3, 13529, Note_on_c, 1, 50, 0
3, 13536, Note_on_c, 1, 57, 77
3, 13625, Note_on_c, 1, 57, 0
3, 13632, Note_on_c, 1, 55, 77
3, 13721, Note_on_c, 1, 55, 0
3, 13728, Note_on_c, 1, 54, 77
3, 13817, Note_on_c, 1, 54, 0
3, 13824, Note_on_c, 1, 50, 77
3, 13913, Note_on_c, 1, 50, 0
3, 13920, Note_on_c, 1, 62, 78
3, 14009, Note_on_c, 1, 62, 0
3, 14016, Note_on_c, 1, 61, 79
3, 14105, Note_on_c, 1, 61, 0
3, 14112, Note_on_c, 1, 56, 81
3, 14201, Note_on_c, 1, 56, 0
3, 14208, Note_on_c, 1, 57, 82
3, 14297, Note_on_c, 1, 57, 0
3, 14304, Note_on_c, 1, 59, 83
3, 14393, Note_on_c, 1, 59, 0
3, 14400, Note_on_c, 1, 49, 85
3, 14489, Note_on_c, 1, 49, 0
3, 14496, Note_on_c, 1, 52, 83
3, 14585, Note_on_c, 1, 52, 0
3, 14592, Note_on_c, 1, 40, 81
3, 14681, Note_on_c, 1, 40, 0
3, 14688, Note_on_c, 1, 45, 79
3, 14777, Note_on_c, 1, 45, 0
3, 14784, Note_on_c, 1, 52, 77
3, 14873, Note_on_c, 1, 52, 0
3, 14880, Note_on_c, 1, 57, 77
3, 14969, Note_on_c, 1, 57, 0
3, 14976, Note_on_c, 1, 50, 77
3, 15065, Note_on_c, 1, 50, 0
3, 15072, Note_on_c, 1, 52, 77
3, 15161, Note_on_c, 1, 52, 0
3, 15168, Note_on_c, 1, 54, 77
3, 15257, Note_on_c, 1, 54, 0
3, 15264, Note_on_c, 1, 55, 77
3, 15353, Note_on_c, 1, 55, 0
3, 15360, Note_on_c, 1, 43, 77
3, 15449, Note_on_c, 1, 43, 0
3, 15456, Note_on_c, 1, 54, 77
3, 15545, Note_on_c, 1, 54, 0
3, 15552, Note_on_c, 1, 52, 77
3, 15641, Note_on_c, 1, 52, 0
3, 15648, Note_on_c, 1, 49, 77
3, 15737, Note_on_c, 1, 49, 0
3, 15744, Note_on_c, 1, 50, 77
3, 15833, Note_on_c, 1, 50, 0
3, 15840, Note_on_c, 1, 57, 77
3, 15929, Note_on_c, 1, 57, 0
3, 15936, Note_on_c, 1, 55, 77
3, 16025, Note_on_c, 1, 55, 0
3, 16032, Note_on_c, 1, 54, 77
3, 16121, Note_on_c, 1, 54, 0
3, 16128, Note_on_c, 1, 50, 77
3, 16217, Note_on_c, 1, 50, 0
3, 16224, Note_on_c, 1, 62, 78
3, 16313, Note_on_c, 1, 62, 0
3, 16320, Note_on_c, 1, 61, 79
3, 16409, Note_on_c, 1, 61, 0
3, 16416, Note_on_c, 1, 56, 81
3, 16505, Note_on_c, 1, 56, 0
3, 16512, Note_on_c, 1, 57, 82
3, 16601, Note_on_c, 1, 57, 0
3, 16608, Note_on_c, 1, 59, 83
3, 16697, Note_on_c, 1, 59, 0
3, 16704, Note_on_c, 1, 49, 85
3, 16793, Note_on_c, 1, 49, 0
3, 16800, Note_on_c, 1, 52, 83
3, 16889, Note_on_c, 1, 52, 0
3, 16896, Note_on_c, 1, 40, 81
3, 16985, Note_on_c, 1, 40, 0
3, 16992, Note_on_c, 1, 45, 79
3, 17081, Note_on_c, 1, 45, 0
3, 17088, Note_on_c, 1, 52, 77
3, 17177, Note_on_c, 1, 52, 0
3, 17184, Note_on_c, 1, 57, 77
3, 17273, Note_on_c, 1, 57, 0
3, 17280, Note_on_c, 1, 57, 77
3, 17369, Note_on_c, 1, 57, 0
3, 17376, Note_on_c, 1, 45, 77
3, 17465, Note_on_c, 1, 45, 0
3, 17472, Note_on_c, 1, 55, 77
3, 17561, Note_on_c, 1, 55, 0
3, 17568, Note_on_c, 1, 54, 77
3, 17657, Note_on_c, 1, 54, 0
3, 17664, Note_on_c, 1, 52, 77
3, 17753, Note_on_c, 1, 52, 0
3, 17760, Note_on_c, 1, 50, 77
3, 17849, Note_on_c, 1, 50, 0
3, 17856, Note_on_c, 1, 55, 77
3, 17945, Note_on_c, 1, 55, 0
3, 17952, Note_on_c, 1, 52, 79
3, 18041, Note_on_c, 1, 52, 0
3, 18048, Note_on_c, 1, 56, 82
3, 18137, Note_on_c, 1, 56, 0
3, 18144, Note_on_c, 1, 57, 85
3, 18189, Note_on_c, 1, 57, 0
3, 18192, Note_on_c, 1, 45, 82
3, 18237, Note_on_c, 1, 45, 0
3, 18240, Note_on_c, 1, 57, 79
3, 18285, Note_on_c, 1, 57, 0
3, 18288, Note_on_c, 1, 55, 77
3, 18333, Note_on_c, 1, 55, 0
3, 18336, Note_on_c, 1, 54, 77
3, 18381, Note_on_c, 1, 54, 0
3, 18384, Note_on_c, 1, 52, 77
3, 18429, Note_on_c, 1, 52, 0
3, 18432, Note_on_c, 1, 50, 77
3, 18521, Note_on_c, 1, 50, 0
3, 18528, Note_on_c, 1, 52, 77
3, 18617, Note_on_c, 1, 52, 0
3, 18624, Note_on_c, 1, 54, 77
3, 18713, Note_on_c, 1, 54, 0
3, 18720, Note_on_c, 1, 55, 77
3, 18809, Note_on_c, 1, 55, 0
3, 18816, Note_on_c, 1, 43, 77
3, 18905, Note_on_c, 1, 43, 0
3, 18912, Note_on_c, 1, 54, 77
3, 19001, Note_on_c, 1, 54, 0
3, 19008, Note_on_c, 1, 52, 77
3, 19097, Note_on_c, 1, 52, 0
3, 19104, Note_on_c, 1, 49, 77
3, 19193, Note_on_c, 1, 49, 0
3, 19200, Note_on_c, 1, 50, 77
3, 19289, Note_on_c, 1, 50, 0
3, 19392, Note_on_c, 1, 62, 71
3, 19488, Note_on_c, 1, 62, 0
3, 19488, Note_on_c, 1, 61, 73
3, 19577, Note_on_c, 1, 61, 0
3, 19680, Note_on_c, 1, 56, 76
3, 19776, Note_on_c, 1, 56, 0
3, 19776, Note_on_c, 1, 57, 77
3, 19865, Note_on_c, 1, 57, 0
3, 19968, Note_on_c, 1, 49, 80
3, 20057, Note_on_c, 1, 49, 0
3, 20064, Note_on_c, 1, 50, 82
3, 20153, Note_on_c, 1, 50, 0
3, 20160, Note_on_c, 1, 55, 83
3, 20249, Note_on_c, 1, 55, 0
3, 20256, Note_on_c, 1, 57, 85
3, 20345, Note_on_c, 1, 57, 0
3, 20352, Note_on_c, 1, 45, 85
3, 20441, Note_on_c, 1, 45, 0
3, 20448, Note_on_c, 1, 47, 85
3, 20537, Note_on_c, 1, 47, 0
3, 20544, Note_on_c, 1, 49, 85
3, 20633, Note_on_c, 1, 49, 0
3, 20640, Note_on_c, 1, 50, 85
3, 20729, Note_on_c, 1, 50, 0
3, 20736, Note_on_c, 1, 55, 85
3, 20825, Note_on_c, 1, 55, 0
3, 20832, Note_on_c, 1, 57, 82
3, 20921, Note_on_c, 1, 57, 0
3, 20928, Note_on_c, 1, 45, 79
3, 21017, Note_on_c, 1, 45, 0
3, 21024, Note_on_c, 1, 50, 77
3, 21113, Note_on_c, 1, 50, 0
3, 21120, Note_on_c, 1, 45, 77
3, 21209, Note_on_c, 1, 45, 0
3, 21216, Note_on_c, 1, 38, 77
3, 21305, Note_on_c, 1, 38, 0
3, 21312, Note_on_c, 1, 57, 77
3, 21401, Note_on_c, 1, 57, 0
3, 21408, Note_on_c, 1, 45, 77
3, 21497, Note_on_c, 1, 45, 0
3, 21504, Note_on_c, 1, 55, 77
3, 21593, Note_on_c, 1, 55, 0
3, 21600, Note_on_c, 1, 54, 77
3, 21689, Note_on_c, 1, 54, 0
3, 21696, Note_on_c, 1, 52, 77
3, 21785, Note_on_c, 1, 52, 0
3, 21792, Note_on_c, 1, 50, 77
3, 21881, Note_on_c, 1, 50, 0
3, 21888, Note_on_c, 1, 55, 77
3, 21977, Note_on_c, 1, 55, 0
3, 21984, Note_on_c, 1, 52, 79
3, 22073, Note_on_c, 1, 52, 0
3, 22080, Note_on_c, 1, 56, 82
3, 22169, Note_on_c, 1, 56, 0
3, 22176, Note_on_c, 1, 57, 85
3, 22221, Note_on_c, 1, 57, 0
3, 22224, Note_on_c, 1, 45, 82
3, 22269, Note_on_c, 1, 45, 0
3, 22272, Note_on_c, 1, 57, 79
3, 22317, Note_on_c, 1, 57, 0
3, 22320, Note_on_c, 1, 55, 77
3, 22365, Note_on_c, 1, 55, 0
3, 22368, Note_on_c, 1, 54, 77
3, 22413, Note_on_c, 1, 54, 0
3, 22416, Note_on_c, 1, 52, 77
3, 22461, Note_on_c, 1, 52, 0
3, 22464, Note_on_c, 1, 50, 77
3, 22553, Note_on_c, 1, 50, 0
3, 22560, Note_on_c, 1, 52, 77
3, 22649, Note_on_c, 1, 52, 0
3, 22656, Note_on_c, 1, 54, 77
3, 22745, Note_on_c, 1, 54, 0
3, 22752, Note_on_c, 1, 55, 77
3, 22841, Note_on_c, 1, 55, 0
3, 22848, Note_on_c, 1, 43, 77
3, 22937, Note_on_c, 1, 43, 0
3, 22944, Note_on_c, 1, 54, 77
3, 23033, Note_on_c, 1, 54, 0
3, 23040, Note_on_c, 1, 52, 77
3, 23129, Note_on_c, 1, 52, 0
3, 23136, Note_on_c, 1, 49, 77
3, 23225, Note_on_c, 1, 49, 0
3, 23232, Note_on_c, 1, 50, 77
3, 23321, Note_on_c, 1, 50, 0
3, 23424, Note_on_c, 1, 62, 71
3, 23520, Note_on_c, 1, 62, 0
3, 23520, Note_on_c, 1, 61, 73
3, 23609, Note_on_c, 1, 61, 0
3, 23712, Note_on_c, 1, 56, 76
3, 23808, Note_on_c, 1, 56, 0
3, 23808, Note_on_c, 1, 57, 77
3, 23897, Note_on_c, 1, 57, 0
3, 24000, Note_on_c, 1, 49, 80
3, 24089, Note_on_c, 1, 49, 0
3, 24096, Note_on_c, 1, 50, 82
3, 24185, Note_on_c, 1, 50, 0
3, 24192, Note_on_c, 1, 55, 83
3, 24281, Note_on_c, 1, 55, 0
3, 24288, Note_on_c, 1, 57, 85
3, 24377, Note_on_c, 1, 57, 0
3, 24384, Note_on_c, 1, 45, 85
3, 24473, Note_on_c, 1, 45, 0
3, 24480, Note_on_c, 1, 47, 85
3, 24569, Note_on_c, 1, 47, 0
3, 24576, Note_on_c, 1, 49, 85
3, 24665, Note_on_c, 1, 49, 0
3, 24672, Note_on_c, 1, 50, 85
3, 24761, Note_on_c, 1, 50, 0
3, 24768, Note_on_c, 1, 55, 85
3, 24857, Note_on_c, 1, 55, 0
3, 24864, Note_on_c, 1, 57, 82
3, 24953, Note_on_c, 1, 57, 0
3, 24960, Note_on_c, 1, 45, 79
3, 25049, Note_on_c, 1, 45, 0
3, 25056, Note_on_c, 1, 50, 77
3, 25145, Note_on_c, 1, 50, 0
3, 25152, Note_on_c, 1, 45, 77
3, 25241, Note_on_c, 1, 45, 0
3, 25248, Note_on_c, 1, 38, 77
3, 25337, Note_on_c, 1, 38, 0
3, 25344, Note_on_c, 1, 66, 70
3, 25344, Note_on_c, 1, 62, 70
3, 25521, Note_on_c, 1, 66, 0
3, 25521, Note_on_c, 1, 62, 0
3, 25536, Note_on_c, 1, 66, 70
3, 25536, Note_on_c, 1, 62, 70
3, 25625, Note_on_c, 1, 66, 0
3, 25625, Note_on_c, 1, 62, 0
3, 25632, Note_on_c, 1, 67, 70
3, 25632, Note_on_c, 1, 64, 70
3, 25824, Note_on_c, 1, 67, 0
3, 25824, Note_on_c, 1, 64, 0
3, 25824, Note_on_c, 1, 66, 70
3, 25824, Note_on_c, 1, 62, 70
3, 25913, Note_on_c, 1, 66, 0
3, 25913, Note_on_c, 1, 62, 0
3, 25920, Note_on_c, 1, 64, 70
3, 25920, Note_on_c, 1, 61, 70
3, 26112, Note_on_c, 1, 64, 0
3, 26112, Note_on_c, 1, 57, 70
3, 26201, Note_on_c, 1, 61, 0
3, 26201, Note_on_c, 1, 57, 0
3, 26208, Note_on_c, 1, 62, 70
3, 26208, Note_on_c, 1, 59, 70
3, 26385, Note_on_c, 1, 62, 0
3, 26385, Note_on_c, 1, 59, 0
3, 26496, Note_on_c, 1, 43, 85
3, 26496, Note_on_c, 1, 31, 85
3, 26673, Note_on_c, 1, 43, 0
3, 26673, Note_on_c, 1, 31, 0
3, 26784, Note_on_c, 1, 57, 77
3, 26784, Note_on_c, 1, 55, 77
3, 26961, Note_on_c, 1, 57, 0
3, 26961, Note_on_c, 1, 55, 0
3, 26976, Note_on_c, 1, 57, 77
3, 26976, Note_on_c, 1, 54, 77
3, 27065, Note_on_c, 1, 57, 0
3, 27065, Note_on_c, 1, 54, 0
3, 27072, Note_on_c, 1, 49, 77
3, 27249, Note_on_c, 1, 49, 0
3, 27264, Note_on_c, 1, 50, 77
3, 27353, Note_on_c, 1, 50, 0
3, 27360, Note_on_c, 1, 45, 77
3, 27449, Note_on_c, 1, 45, 0
3, 27456, Note_on_c, 1, 57, 77
3, 27545, Note_on_c, 1, 57, 0
3, 27552, Note_on_c, 1, 45, 77
3, 27641, Note_on_c, 1, 45, 0
3, 27648, Note_on_c, 1, 66, 70
3, 27648, Note_on_c, 1, 62, 70
3, 27825, Note_on_c, 1, 66, 0
3, 27825, Note_on_c, 1, 62, 0
3, 27840, Note_on_c, 1, 66, 70
3, 27840, Note_on_c, 1, 62, 70
3, 27929, Note_on_c, 1, 66, 0
3, 27929, Note_on_c, 1, 62, 0
3, 27936, Note_on_c, 1, 67, 70
3, 27936, Note_on_c, 1, 64, 70
3, 28128, Note_on_c, 1, 67, 0
3, 28128, Note_on_c, 1, 64, 0
3, 28128, Note_on_c, 1, 66, 70
3, 28128, Note_on_c, 1, 62, 70
3, 28217, Note_on_c, 1, 66, 0
3, 28217, Note_on_c, 1, 62, 0
3, 28224, Note_on_c, 1, 64, 70
3, 28224, Note_on_c, 1, 61, 70
3, 28416, Note_on_c, 1, 64, 0
3, 28416, Note_on_c, 1, 57, 70
3, 28505, Note_on_c, 1, 61, 0
3, 28505, Note_on_c, 1, 57, 0
3, 28512, Note_on_c, 1, 62, 70
3, 28512, Note_on_c, 1, 59, 70
3, 28689, Note_on_c, 1, 62, 0
3, 28689, Note_on_c, 1, 59, 0
3, 28800, Note_on_c, 1, 43, 85
3, 28800, Note_on_c, 1, 31, 85
3, 28977, Note_on_c, 1, 43, 0
3, 28977, Note_on_c, 1, 31, 0
3, 29088, Note_on_c, 1, 57, 77
3, 29088, Note_on_c, 1, 55, 77
3, 29265, Note_on_c, 1, 57, 0
3, 29265, Note_on_c, 1, 55, 0
3, 29280, Note_on_c, 1, 57, 77
3, 29280, Note_on_c, 1, 54, 77
3, 29369, Note_on_c, 1, 57, 0
3, 29369, Note_on_c, 1, 54, 0
3, 29376, Note_on_c, 1, 49, 77
3, 29553, Note_on_c, 1, 49, 0
3, 29568, Note_on_c, 1, 50, 77
3, 29657, Note_on_c, 1, 50, 0
3, 29664, Note_on_c, 1, 45, 77
3, 29753, Note_on_c, 1, 45, 0
3, 29760, Note_on_c, 1, 57, 77
3, 29849, Note_on_c, 1, 57, 0
3, 29856, Note_on_c, 1, 45, 77
3, 29945, Note_on_c, 1, 45, 0
3, 29952, Note_on_c, 1, 61, 77
3, 29952, Note_on_c, 1, 57, 77
3, 30041, Note_on_c, 1, 61, 0
3, 30041, Note_on_c, 1, 57, 0
3, 30240, Note_on_c, 1, 62, 77
3, 30240, Note_on_c, 1, 59, 77
3, 30329, Note_on_c, 1, 62, 0
3, 30329, Note_on_c, 1, 59, 0
3, 30528, Note_on_c, 1, 62, 77
3, 30528, Note_on_c, 1, 59, 77
3, 30617, Note_on_c, 1, 62, 0
3, 30617, Note_on_c, 1, 59, 0
3, 30816, Note_on_c, 1, 64, 77
3, 30816, Note_on_c, 1, 61, 77
3, 30905, Note_on_c, 1, 64, 0
3, 30905, Note_on_c, 1, 61, 0
3, 31104, Note_on_c, 1, 66, 70
3, 31104, Note_on_c, 1, 62, 70
3, 31281, Note_on_c, 1, 66, 0
3, 31281, Note_on_c, 1, 62, 0
3, 31296, Note_on_c, 1, 66, 70
3, 31296, Note_on_c, 1, 62, 70
3, 31385, Note_on_c, 1, 66, 0
3, 31385, Note_on_c, 1, 62, 0
3, 31392, Note_on_c, 1, 67, 70
3, 31392, Note_on_c, 1, 64, 70
3, 31584, Note_on_c, 1, 67, 0
3, 31584, Note_on_c, 1, 64, 0
3, 31584, Note_on_c, 1, 66, 70
3, 31584, Note_on_c, 1, 62, 70
3, 31673, Note_on_c, 1, 66, 0
3, 31673, Note_on_c, 1, 62, 0
3, 31680, Note_on_c, 1, 64, 70
3, 31680, Note_on_c, 1, 61, 70
3, 31872, Note_on_c, 1, 64, 0
3, 31872, Note_on_c, 1, 57, 70
3, 31961, Note_on_c, 1, 61, 0
3, 31961, Note_on_c, 1, 57, 0
3, 31968, Note_on_c, 1, 62, 70
3, 31968, Note_on_c, 1, 59, 70
3, 32145, Note_on_c, 1, 62, 0
3, 32145, Note_on_c, 1, 59, 0
3, 32256, Note_on_c, 1, 43, 85
3, 32256, Note_on_c, 1, 31, 85
3, 32433, Note_on_c, 1, 43, 0
3, 32433, Note_on_c, 1, 31, 0
3, 32544, Note_on_c, 1, 57, 77
3, 32544, Note_on_c, 1, 55, 77
3, 32721, Note_on_c, 1, 57, 0
3, 32721, Note_on_c, 1, 55, 0
3, 32736, Note_on_c, 1, 57, 77
3, 32736, Note_on_c, 1, 54, 77
3, 32825, Note_on_c, 1, 57, 0
3, 32825, Note_on_c, 1, 54, 0
3, 32832, Note_on_c, 1, 71, 77
3, 32832, Note_on_c, 1, 67, 77
3, 32921, Note_on_c, 1, 71, 0
3, 32921, Note_on_c, 1, 67, 0
3, 33024, Note_on_c, 1, 69, 77
3, 33024, Note_on_c, 1, 67, 77
3, 33113, Note_on_c, 1, 69, 0
3, 33113, Note_on_c, 1, 67, 0
3, 33120, Note_on_c, 1, 69, 77
3, 33120, Note_on_c, 1, 66, 77
3, 33209, Note_on_c, 1, 69, 0
3, 33209, Note_on_c, 1, 66, 0
3, 33408, Note_on_c, 1, 67, 77
3, 33497, Note_on_c, 1, 67, 0
3, 33504, Note_on_c, 1, 69, 77
3, 33593, Note_on_c, 1, 69, 0
3, 33600, Note_on_c, 1, 57, 77
3, 33689, Note_on_c, 1, 57, 0
3, 33696, Note_on_c, 1, 62, 77
3, 33785, Note_on_c, 1, 62, 0
3, 33792, Note_on_c, 1, 57, 77
3, 33881, Note_on_c, 1, 57, 0
3, 33888, Note_on_c, 1, 50, 77
3, 33977, Note_on_c, 1, 50, 0
3, 33984, Note_on_c, 1, 61, 77
3, 33984, Note_on_c, 1, 57, 77
3, 34073, Note_on_c, 1, 61, 0
3, 34073, Note_on_c, 1, 57, 0
3, 34272, Note_on_c, 1, 62, 77
3, 34272, Note_on_c, 1, 59, 77
3, 34361, Note_on_c, 1, 62, 0
3, 34361, Note_on_c, 1, 59, 0
3, 34560, Note_on_c, 1, 62, 77
3, 34560, Note_on_c, 1, 59, 77
3, 34649, Note_on_c, 1, 62, 0
3, 34649, Note_on_c, 1, 59, 0
3, 34848, Note_on_c, 1, 64, 77
3, 34848, Note_on_c, 1, 61, 77
3, 34937, Note_on_c, 1, 64, 0
3, 34937, Note_on_c, 1, 61, 0
3, 35136, Note_on_c, 1, 66, 70
3, 35136, Note_on_c, 1, 62, 70
3, 35313, Note_on_c, 1, 66, 0
3, 35313, Note_on_c, 1, 62, 0
3, 35328, Note_on_c, 1, 66, 70
3, 35328, Note_on_c, 1, 62, 70
3, 35417, Note_on_c, 1, 66, 0
3, 35417, Note_on_c, 1, 62, 0
3, 35424, Note_on_c, 1, 67, 70
3, 35424, Note_on_c, 1, 64, 70
3, 35616, Note_on_c, 1, 67, 0
3, 35616, Note_on_c, 1, 64, 0
3, 35616, Note_on_c, 1, 66, 70
3, 35616, Note_on_c, 1, 62, 70
3, 35705, Note_on_c, 1, 66, 0
3, 35705, Note_on_c, 1, 62, 0
3, 35712, Note_on_c, 1, 64, 70
3, 35712, Note_on_c, 1, 61, 70
3, 35904, Note_on_c, 1, 64, 0
3, 35904, Note_on_c, 1, 57, 70
3, 35993, Note_on_c, 1, 61, 0
3, 35993, Note_on_c, 1, 57, 0
3, 36000, Note_on_c, 1, 62, 70
3, 36000, Note_on_c, 1, 59, 70
3, 36177, Note_on_c, 1, 62, 0
3, 36177, Note_on_c, 1, 59, 0
3, 36288, Note_on_c, 1, 43, 85
3, 36288, Note_on_c, 1, 31, 85
3, 36465, Note_on_c, 1, 43, 0
3, 36465, Note_on_c, 1, 31, 0
3, 36576, Note_on_c, 1, 57, 77
3, 36576, Note_on_c, 1, 55, 77
3, 36753, Note_on_c, 1, 57, 0
3, 36753, Note_on_c, 1, 55, 0
3, 36768, Note_on_c, 1, 57, 77
3, 36768, Note_on_c, 1, 54, 77
3, 36857, Note_on_c, 1, 57, 0
3, 36857, Note_on_c, 1, 54, 0
3, 36864, Note_on_c, 1, 71, 77
3, 36864, Note_on_c, 1, 67, 77
3, 36953, Note_on_c, 1, 71, 0
3, 36953, Note_on_c, 1, 67, 0
3, 37056, Note_on_c, 1, 69, 77
3, 37056, Note_on_c, 1, 67, 77
3, 37145, Note_on_c, 1, 69, 0
3, 37145, Note_on_c, 1, 67, 0
3, 37152, Note_on_c, 1, 69, 77
3, 37152, Note_on_c, 1, 66, 77
3, 37241, Note_on_c, 1, 69, 0
3, 37241, Note_on_c, 1, 66, 0
3, 37440, Note_on_c, 1, 67, 77
3, 37529, Note_on_c, 1, 67, 0
3, 37536, Note_on_c, 1, 69, 77
3, 37625, Note_on_c, 1, 69, 0
3, 37632, Note_on_c, 1, 57, 77
3, 37721, Note_on_c, 1, 57, 0
3, 37728, Note_on_c, 1, 62, 77
3, 37817, Note_on_c, 1, 62, 0
3, 37824, Note_on_c, 1, 57, 77
3, 37913, Note_on_c, 1, 57, 0
3, 37920, Note_on_c, 1, 50, 77
3, 38009, Note_on_c, 1, 50, 0
3, 38016, Note_on_c, 1, 50, 0
3, 38193, Note_on_c, 1, 50, 0
3, 38304, End_track
4, 0, Start_track
4, 0, Title_t, "<No Title>"
4, 0, End_track
0, 0, End_of_file
