0, 0, Header, 1, 6, 96
1, 0, Start_track
1, 0, Copyright_t, "Copyright  2000 <copyright holder>"
1, 0, Text_t, "Sonata I\015\012"
1, 0, Text_t, "Haydn\015\012"
1, 0, Sequencer_specific, 16, 68, 87, 77, 90, 86, 82, 83, 78, 32, 54, 46, 48, 46, 57, 46, 48
1, 0, Time_signature, 3, 2, 24, 8
1, 0, Tempo, 461538
1, 0, Key_signature, 3, "major"
1, 13824, Key_signature, 0, "major"
1, 17856, Key_signature, 0, "major"
1, 31104, Key_signature, 3, "major"
1, 33984, Key_signature, 3, "major"
1, 44928, End_track
2, 0, Start_track
2, 0, Program_c, 0, 0
2, 0, Control_c, 0, 7, 127
2, 0, Control_c, 0, 10, 64
2, 0, Note_on_c, 0, 69, 91
2, 96, Note_on_c, 0, 69, 0
2, 96, Note_on_c, 0, 73, 75
2, 126, Note_on_c, 0, 73, 0
2, 128, Note_on_c, 0, 71, 75
2, 158, Note_on_c, 0, 71, 0
2, 160, Note_on_c, 0, 69, 75
2, 190, Note_on_c, 0, 69, 0
2, 192, Note_on_c, 0, 76, 75
2, 281, Note_on_c, 0, 76, 0
2, 288, Note_on_c, 0, 74, 75
2, 318, Note_on_c, 0, 74, 0
2, 320, Note_on_c, 0, 76, 75
2, 350, Note_on_c, 0, 76, 0
2, 352, Note_on_c, 0, 78, 75
2, 382, Note_on_c, 0, 78, 0
2, 384, Note_on_c, 0, 71, 75
2, 473, Note_on_c, 0, 71, 0
2, 480, Note_on_c, 0, 74, 75
2, 569, Note_on_c, 0, 74, 0
2, 576, Note_on_c, 0, 73, 75
2, 606, Note_on_c, 0, 73, 0
2, 608, Note_on_c, 0, 74, 75
2, 638, Note_on_c, 0, 74, 0
2, 640, Note_on_c, 0, 76, 75
2, 670, Note_on_c, 0, 76, 0
2, 672, Note_on_c, 0, 69, 75
2, 761, Note_on_c, 0, 69, 0
2, 768, Note_on_c, 0, 83, 75
2, 791, Note_on_c, 0, 83, 0
2, 792, Note_on_c, 0, 81, 75
2, 815, Note_on_c, 0, 81, 0
2, 816, Note_on_c, 0, 80, 75
2, 839, Note_on_c, 0, 80, 0
2, 840, Note_on_c, 0, 78, 75
2, 863, Note_on_c, 0, 78, 0
2, 864, Note_on_c, 0, 76, 75
2, 953, Note_on_c, 0, 76, 0
2, 960, Note_on_c, 0, 74, 75
2, 973, Note_on_c, 0, 74, 0
2, 974, Note_on_c, 0, 76, 75
2, 987, Note_on_c, 0, 76, 0
2, 988, Note_on_c, 0, 74, 75
2, 1001, Note_on_c, 0, 74, 0
2, 1002, Note_on_c, 0, 76, 75
2, 1015, Note_on_c, 0, 76, 0
2, 1016, Note_on_c, 0, 74, 75
2, 1029, Note_on_c, 0, 74, 0
2, 1030, Note_on_c, 0, 73, 75
2, 1042, Note_on_c, 0, 73, 0
2, 1043, Note_on_c, 0, 74, 75
2, 1055, Note_on_c, 0, 74, 0
2, 1056, Note_on_c, 0, 73, 75
2, 1145, Note_on_c, 0, 73, 0
2, 1152, Note_on_c, 0, 81, 75
2, 1182, Note_on_c, 0, 81, 0
2, 1184, Note_on_c, 0, 83, 75
2, 1214, Note_on_c, 0, 83, 0
2, 1216, Note_on_c, 0, 85, 75
2, 1246, Note_on_c, 0, 85, 0
2, 1248, Note_on_c, 0, 83, 75
2, 1278, Note_on_c, 0, 83, 0
2, 1280, Note_on_c, 0, 81, 75
2, 1310, Note_on_c, 0, 81, 0
2, 1312, Note_on_c, 0, 80, 75
2, 1342, Note_on_c, 0, 80, 0
2, 1344, Note_on_c, 0, 78, 75
2, 1374, Note_on_c, 0, 78, 0
2, 1376, Note_on_c, 0, 80, 75
2, 1406, Note_on_c, 0, 80, 0
2, 1408, Note_on_c, 0, 81, 75
2, 1438, Note_on_c, 0, 81, 0
2, 1440, Note_on_c, 0, 80, 75
2, 1470, Note_on_c, 0, 80, 0
2, 1472, Note_on_c, 0, 78, 75
2, 1502, Note_on_c, 0, 78, 0
2, 1504, Note_on_c, 0, 76, 75
2, 1534, Note_on_c, 0, 76, 0
2, 1536, Note_on_c, 0, 75, 75
2, 1566, Note_on_c, 0, 75, 0
2, 1568, Note_on_c, 0, 73, 75
2, 1598, Note_on_c, 0, 73, 0
2, 1600, Note_on_c, 0, 71, 75
2, 1630, Note_on_c, 0, 71, 0
2, 1632, Note_on_c, 0, 76, 75
2, 1721, Note_on_c, 0, 76, 0
2, 1728, Note_on_c, 0, 81, 64
2, 1758, Note_on_c, 0, 81, 0
2, 1760, Note_on_c, 0, 83, 64
2, 1790, Note_on_c, 0, 83, 0
2, 1792, Note_on_c, 0, 85, 64
2, 1822, Note_on_c, 0, 85, 0
2, 1824, Note_on_c, 0, 83, 64
2, 1854, Note_on_c, 0, 83, 0
2, 1856, Note_on_c, 0, 81, 64
2, 1886, Note_on_c, 0, 81, 0
2, 1888, Note_on_c, 0, 80, 64
2, 1918, Note_on_c, 0, 80, 0
2, 1920, Note_on_c, 0, 78, 64
2, 1950, Note_on_c, 0, 78, 0
2, 1952, Note_on_c, 0, 80, 65
2, 1982, Note_on_c, 0, 80, 0
2, 1984, Note_on_c, 0, 81, 66
2, 2014, Note_on_c, 0, 81, 0
2, 2016, Note_on_c, 0, 80, 67
2, 2046, Note_on_c, 0, 80, 0
2, 2048, Note_on_c, 0, 81, 69
2, 2078, Note_on_c, 0, 81, 0
2, 2080, Note_on_c, 0, 83, 70
2, 2110, Note_on_c, 0, 83, 0
2, 2112, Note_on_c, 0, 75, 71
2, 2142, Note_on_c, 0, 75, 0
2, 2144, Note_on_c, 0, 76, 72
2, 2174, Note_on_c, 0, 76, 0
2, 2176, Note_on_c, 0, 78, 74
2, 2206, Note_on_c, 0, 78, 0
2, 2208, Note_on_c, 0, 76, 75
2, 2275, Note_on_c, 0, 76, 0
2, 2280, Note_on_c, 0, 76, 78
2, 2303, Note_on_c, 0, 76, 0
2, 2304, Note_on_c, 0, 75, 80
2, 2327, Note_on_c, 0, 75, 0
2, 2328, Note_on_c, 0, 73, 80
2, 2351, Note_on_c, 0, 73, 0
2, 2352, Note_on_c, 0, 71, 80
2, 2375, Note_on_c, 0, 71, 0
2, 2376, Note_on_c, 0, 69, 80
2, 2399, Note_on_c, 0, 69, 0
2, 2400, Note_on_c, 0, 68, 80
2, 2489, Note_on_c, 0, 68, 0
2, 2496, Note_on_c, 0, 66, 80
2, 2509, Note_on_c, 0, 66, 0
2, 2510, Note_on_c, 0, 68, 80
2, 2523, Note_on_c, 0, 68, 0
2, 2524, Note_on_c, 0, 66, 80
2, 2537, Note_on_c, 0, 66, 0
2, 2538, Note_on_c, 0, 68, 80
2, 2551, Note_on_c, 0, 68, 0
2, 2552, Note_on_c, 0, 66, 80
2, 2565, Note_on_c, 0, 66, 0
2, 2566, Note_on_c, 0, 64, 80
2, 2578, Note_on_c, 0, 64, 0
2, 2579, Note_on_c, 0, 66, 80
2, 2591, Note_on_c, 0, 66, 0
2, 2592, Note_on_c, 0, 64, 80
2, 2769, Note_on_c, 0, 64, 0
2, 2880, Note_on_c, 0, 69, 91
2, 2976, Note_on_c, 0, 69, 0
2, 2976, Note_on_c, 0, 73, 75
2, 3006, Note_on_c, 0, 73, 0
2, 3008, Note_on_c, 0, 71, 75
2, 3038, Note_on_c, 0, 71, 0
2, 3040, Note_on_c, 0, 69, 75
2, 3070, Note_on_c, 0, 69, 0
2, 3072, Note_on_c, 0, 76, 75
2, 3161, Note_on_c, 0, 76, 0
2, 3168, Note_on_c, 0, 74, 75
2, 3198, Note_on_c, 0, 74, 0
2, 3200, Note_on_c, 0, 76, 75
2, 3230, Note_on_c, 0, 76, 0
2, 3232, Note_on_c, 0, 78, 75
2, 3262, Note_on_c, 0, 78, 0
2, 3264, Note_on_c, 0, 71, 75
2, 3353, Note_on_c, 0, 71, 0
2, 3360, Note_on_c, 0, 74, 75
2, 3449, Note_on_c, 0, 74, 0
2, 3456, Note_on_c, 0, 73, 75
2, 3486, Note_on_c, 0, 73, 0
2, 3488, Note_on_c, 0, 74, 75
2, 3518, Note_on_c, 0, 74, 0
2, 3520, Note_on_c, 0, 76, 75
2, 3550, Note_on_c, 0, 76, 0
2, 3552, Note_on_c, 0, 69, 75
2, 3641, Note_on_c, 0, 69, 0
2, 3648, Note_on_c, 0, 83, 75
2, 3671, Note_on_c, 0, 83, 0
2, 3672, Note_on_c, 0, 81, 75
2, 3695, Note_on_c, 0, 81, 0
2, 3696, Note_on_c, 0, 80, 75
2, 3719, Note_on_c, 0, 80, 0
2, 3720, Note_on_c, 0, 78, 75
2, 3743, Note_on_c, 0, 78, 0
2, 3744, Note_on_c, 0, 76, 75
2, 3833, Note_on_c, 0, 76, 0
2, 3840, Note_on_c, 0, 74, 75
2, 3853, Note_on_c, 0, 74, 0
2, 3854, Note_on_c, 0, 76, 75
2, 3867, Note_on_c, 0, 76, 0
2, 3868, Note_on_c, 0, 74, 75
2, 3881, Note_on_c, 0, 74, 0
2, 3882, Note_on_c, 0, 76, 75
2, 3895, Note_on_c, 0, 76, 0
2, 3896, Note_on_c, 0, 74, 75
2, 3909, Note_on_c, 0, 74, 0
2, 3910, Note_on_c, 0, 73, 75
2, 3922, Note_on_c, 0, 73, 0
2, 3923, Note_on_c, 0, 74, 75
2, 3935, Note_on_c, 0, 74, 0
2, 3936, Note_on_c, 0, 73, 75
2, 4025, Note_on_c, 0, 73, 0
2, 4032, Note_on_c, 0, 81, 75
2, 4062, Note_on_c, 0, 81, 0
2, 4064, Note_on_c, 0, 83, 75
2, 4094, Note_on_c, 0, 83, 0
2, 4096, Note_on_c, 0, 85, 75
2, 4126, Note_on_c, 0, 85, 0
2, 4128, Note_on_c, 0, 83, 75
2, 4158, Note_on_c, 0, 83, 0
2, 4160, Note_on_c, 0, 81, 75
2, 4190, Note_on_c, 0, 81, 0
2, 4192, Note_on_c, 0, 80, 75
2, 4222, Note_on_c, 0, 80, 0
2, 4224, Note_on_c, 0, 78, 75
2, 4254, Note_on_c, 0, 78, 0
2, 4256, Note_on_c, 0, 80, 75
2, 4286, Note_on_c, 0, 80, 0
2, 4288, Note_on_c, 0, 81, 75
2, 4318, Note_on_c, 0, 81, 0
2, 4320, Note_on_c, 0, 80, 75
2, 4350, Note_on_c, 0, 80, 0
2, 4352, Note_on_c, 0, 78, 75
2, 4382, Note_on_c, 0, 78, 0
2, 4384, Note_on_c, 0, 76, 75
2, 4414, Note_on_c, 0, 76, 0
2, 4416, Note_on_c, 0, 75, 75
2, 4446, Note_on_c, 0, 75, 0
2, 4448, Note_on_c, 0, 73, 75
2, 4478, Note_on_c, 0, 73, 0
2, 4480, Note_on_c, 0, 71, 75
2, 4510, Note_on_c, 0, 71, 0
2, 4512, Note_on_c, 0, 76, 75
2, 4601, Note_on_c, 0, 76, 0
2, 4608, Note_on_c, 0, 81, 64
2, 4638, Note_on_c, 0, 81, 0
2, 4640, Note_on_c, 0, 83, 64
2, 4670, Note_on_c, 0, 83, 0
2, 4672, Note_on_c, 0, 85, 64
2, 4702, Note_on_c, 0, 85, 0
2, 4704, Note_on_c, 0, 83, 64
2, 4734, Note_on_c, 0, 83, 0
2, 4736, Note_on_c, 0, 81, 64
2, 4766, Note_on_c, 0, 81, 0
2, 4768, Note_on_c, 0, 80, 64
2, 4798, Note_on_c, 0, 80, 0
2, 4800, Note_on_c, 0, 78, 64
2, 4830, Note_on_c, 0, 78, 0
2, 4832, Note_on_c, 0, 80, 65
2, 4862, Note_on_c, 0, 80, 0
2, 4864, Note_on_c, 0, 81, 66
2, 4894, Note_on_c, 0, 81, 0
2, 4896, Note_on_c, 0, 80, 67
2, 4926, Note_on_c, 0, 80, 0
2, 4928, Note_on_c, 0, 81, 69
2, 4958, Note_on_c, 0, 81, 0
2, 4960, Note_on_c, 0, 83, 70
2, 4990, Note_on_c, 0, 83, 0
2, 4992, Note_on_c, 0, 75, 71
2, 5022, Note_on_c, 0, 75, 0
2, 5024, Note_on_c, 0, 76, 72
2, 5054, Note_on_c, 0, 76, 0
2, 5056, Note_on_c, 0, 78, 74
2, 5086, Note_on_c, 0, 78, 0
2, 5088, Note_on_c, 0, 76, 75
2, 5155, Note_on_c, 0, 76, 0
2, 5160, Note_on_c, 0, 76, 78
2, 5183, Note_on_c, 0, 76, 0
2, 5184, Note_on_c, 0, 75, 80
2, 5207, Note_on_c, 0, 75, 0
2, 5208, Note_on_c, 0, 73, 80
2, 5231, Note_on_c, 0, 73, 0
2, 5232, Note_on_c, 0, 71, 80
2, 5255, Note_on_c, 0, 71, 0
2, 5256, Note_on_c, 0, 69, 80
2, 5279, Note_on_c, 0, 69, 0
2, 5280, Note_on_c, 0, 68, 80
2, 5369, Note_on_c, 0, 68, 0
2, 5376, Note_on_c, 0, 66, 80
2, 5389, Note_on_c, 0, 66, 0
2, 5390, Note_on_c, 0, 68, 80
2, 5403, Note_on_c, 0, 68, 0
2, 5404, Note_on_c, 0, 66, 80
2, 5417, Note_on_c, 0, 66, 0
2, 5418, Note_on_c, 0, 68, 80
2, 5431, Note_on_c, 0, 68, 0
2, 5432, Note_on_c, 0, 66, 80
2, 5445, Note_on_c, 0, 66, 0
2, 5446, Note_on_c, 0, 64, 80
2, 5458, Note_on_c, 0, 64, 0
2, 5459, Note_on_c, 0, 66, 80
2, 5471, Note_on_c, 0, 66, 0
2, 5472, Note_on_c, 0, 64, 80
2, 5649, Note_on_c, 0, 64, 0
2, 5760, Note_on_c, 0, 64, 91
2, 5856, Note_on_c, 0, 64, 0
2, 5856, Note_on_c, 0, 68, 75
2, 5886, Note_on_c, 0, 68, 0
2, 5888, Note_on_c, 0, 66, 75
2, 5918, Note_on_c, 0, 66, 0
2, 5920, Note_on_c, 0, 64, 75
2, 5950, Note_on_c, 0, 64, 0
2, 5952, Note_on_c, 0, 74, 75
2, 6041, Note_on_c, 0, 74, 0
2, 6048, Note_on_c, 0, 73, 75
2, 6078, Note_on_c, 0, 73, 0
2, 6080, Note_on_c, 0, 74, 75
2, 6110, Note_on_c, 0, 74, 0
2, 6112, Note_on_c, 0, 76, 75
2, 6142, Note_on_c, 0, 76, 0
2, 6144, Note_on_c, 0, 68, 75
2, 6233, Note_on_c, 0, 68, 0
2, 6240, Note_on_c, 0, 69, 75
2, 6329, Note_on_c, 0, 69, 0
2, 6336, Note_on_c, 0, 78, 75
2, 6366, Note_on_c, 0, 78, 0
2, 6368, Note_on_c, 0, 80, 75
2, 6398, Note_on_c, 0, 80, 0
2, 6400, Note_on_c, 0, 81, 75
2, 6430, Note_on_c, 0, 81, 0
2, 6432, Note_on_c, 0, 76, 75
2, 6521, Note_on_c, 0, 76, 0
2, 6528, Note_on_c, 0, 73, 75
2, 6617, Note_on_c, 0, 73, 0
2, 6624, Note_on_c, 0, 74, 75
2, 6654, Note_on_c, 0, 74, 0
2, 6656, Note_on_c, 0, 76, 75
2, 6686, Note_on_c, 0, 76, 0
2, 6688, Note_on_c, 0, 78, 75
2, 6718, Note_on_c, 0, 78, 0
2, 6720, Note_on_c, 0, 74, 75
2, 6809, Note_on_c, 0, 74, 0
2, 6816, Note_on_c, 0, 73, 75
2, 6905, Note_on_c, 0, 73, 0
2, 6912, Note_on_c, 0, 73, 75
2, 6957, Note_on_c, 0, 73, 0
2, 6960, Note_on_c, 0, 71, 76
2, 7005, Note_on_c, 0, 71, 0
2, 7008, Note_on_c, 0, 78, 77
2, 7038, Note_on_c, 0, 78, 0
2, 7040, Note_on_c, 0, 76, 77
2, 7070, Note_on_c, 0, 76, 0
2, 7072, Note_on_c, 0, 74, 78
2, 7102, Note_on_c, 0, 74, 0
2, 7104, Note_on_c, 0, 73, 79
2, 7134, Note_on_c, 0, 73, 0
2, 7136, Note_on_c, 0, 71, 79
2, 7166, Note_on_c, 0, 71, 0
2, 7168, Note_on_c, 0, 69, 79
2, 7198, Note_on_c, 0, 69, 0
2, 7200, Note_on_c, 0, 69, 79
2, 7392, Note_on_c, 0, 69, 0
2, 7392, Note_on_c, 0, 68, 79
2, 7465, Note_on_c, 0, 68, 0
2, 7488, Note_on_c, 0, 69, 91
2, 7584, Note_on_c, 0, 69, 0
2, 7584, Note_on_c, 0, 73, 75
2, 7614, Note_on_c, 0, 73, 0
2, 7616, Note_on_c, 0, 71, 75
2, 7646, Note_on_c, 0, 71, 0
2, 7648, Note_on_c, 0, 69, 75
2, 7678, Note_on_c, 0, 69, 0
2, 7680, Note_on_c, 0, 76, 75
2, 7769, Note_on_c, 0, 76, 0
2, 7776, Note_on_c, 0, 74, 75
2, 7806, Note_on_c, 0, 74, 0
2, 7808, Note_on_c, 0, 76, 75
2, 7838, Note_on_c, 0, 76, 0
2, 7840, Note_on_c, 0, 78, 75
2, 7870, Note_on_c, 0, 78, 0
2, 7872, Note_on_c, 0, 71, 75
2, 7961, Note_on_c, 0, 71, 0
2, 7968, Note_on_c, 0, 74, 75
2, 8057, Note_on_c, 0, 74, 0
2, 8064, Note_on_c, 0, 73, 75
2, 8094, Note_on_c, 0, 73, 0
2, 8096, Note_on_c, 0, 74, 75
2, 8126, Note_on_c, 0, 74, 0
2, 8128, Note_on_c, 0, 76, 75
2, 8158, Note_on_c, 0, 76, 0
2, 8160, Note_on_c, 0, 69, 75
2, 8249, Note_on_c, 0, 69, 0
2, 8256, Note_on_c, 0, 83, 75
2, 8279, Note_on_c, 0, 83, 0
2, 8280, Note_on_c, 0, 81, 75
2, 8303, Note_on_c, 0, 81, 0
2, 8304, Note_on_c, 0, 80, 75
2, 8327, Note_on_c, 0, 80, 0
2, 8328, Note_on_c, 0, 78, 75
2, 8351, Note_on_c, 0, 78, 0
2, 8352, Note_on_c, 0, 76, 75
2, 8441, Note_on_c, 0, 76, 0
2, 8448, Note_on_c, 0, 74, 75
2, 8461, Note_on_c, 0, 74, 0
2, 8462, Note_on_c, 0, 76, 75
2, 8475, Note_on_c, 0, 76, 0
2, 8476, Note_on_c, 0, 74, 75
2, 8489, Note_on_c, 0, 74, 0
2, 8490, Note_on_c, 0, 76, 75
2, 8503, Note_on_c, 0, 76, 0
2, 8504, Note_on_c, 0, 74, 75
2, 8517, Note_on_c, 0, 74, 0
2, 8518, Note_on_c, 0, 73, 75
2, 8530, Note_on_c, 0, 73, 0
2, 8531, Note_on_c, 0, 74, 75
2, 8543, Note_on_c, 0, 74, 0
2, 8544, Note_on_c, 0, 73, 75
2, 8633, Note_on_c, 0, 73, 0
2, 8640, Note_on_c, 0, 78, 91
2, 8736, Note_on_c, 0, 78, 0
2, 8736, Note_on_c, 0, 86, 75
2, 8766, Note_on_c, 0, 86, 0
2, 8768, Note_on_c, 0, 85, 75
2, 8798, Note_on_c, 0, 85, 0
2, 8800, Note_on_c, 0, 83, 75
2, 8830, Note_on_c, 0, 83, 0
2, 8832, Note_on_c, 0, 81, 75
2, 8862, Note_on_c, 0, 81, 0
2, 8864, Note_on_c, 0, 80, 75
2, 8894, Note_on_c, 0, 80, 0
2, 8896, Note_on_c, 0, 78, 75
2, 8926, Note_on_c, 0, 78, 0
2, 8928, Note_on_c, 0, 76, 91
2, 8960, Note_on_c, 0, 76, 0
2, 8960, Note_on_c, 0, 78, 75
2, 8990, Note_on_c, 0, 78, 0
2, 8992, Note_on_c, 0, 80, 75
2, 9022, Note_on_c, 0, 80, 0
2, 9024, Note_on_c, 0, 81, 75
2, 9054, Note_on_c, 0, 81, 0
2, 9056, Note_on_c, 0, 80, 75
2, 9086, Note_on_c, 0, 80, 0
2, 9088, Note_on_c, 0, 78, 75
2, 9118, Note_on_c, 0, 78, 0
2, 9120, Note_on_c, 0, 76, 75
2, 9150, Note_on_c, 0, 76, 0
2, 9152, Note_on_c, 0, 74, 75
2, 9182, Note_on_c, 0, 74, 0
2, 9184, Note_on_c, 0, 73, 75
2, 9214, Note_on_c, 0, 73, 0
2, 9216, Note_on_c, 0, 71, 75
2, 9246, Note_on_c, 0, 71, 0
2, 9248, Note_on_c, 0, 74, 75
2, 9278, Note_on_c, 0, 74, 0
2, 9280, Note_on_c, 0, 78, 75
2, 9310, Note_on_c, 0, 78, 0
2, 9312, Note_on_c, 0, 69, 75
2, 9401, Note_on_c, 0, 69, 0
2, 9408, Note_on_c, 0, 68, 75
2, 9421, Note_on_c, 0, 68, 0
2, 9422, Note_on_c, 0, 69, 75
2, 9435, Note_on_c, 0, 69, 0
2, 9436, Note_on_c, 0, 68, 75
2, 9449, Note_on_c, 0, 68, 0
2, 9450, Note_on_c, 0, 69, 75
2, 9463, Note_on_c, 0, 69, 0
2, 9464, Note_on_c, 0, 68, 75
2, 9477, Note_on_c, 0, 68, 0
2, 9478, Note_on_c, 0, 66, 75
2, 9490, Note_on_c, 0, 66, 0
2, 9491, Note_on_c, 0, 68, 75
2, 9503, Note_on_c, 0, 68, 0
2, 9504, Note_on_c, 0, 69, 75
2, 9681, Note_on_c, 0, 69, 0
2, 9792, Note_on_c, 0, 64, 91
2, 9888, Note_on_c, 0, 64, 0
2, 9888, Note_on_c, 0, 68, 75
2, 9918, Note_on_c, 0, 68, 0
2, 9920, Note_on_c, 0, 66, 75
2, 9950, Note_on_c, 0, 66, 0
2, 9952, Note_on_c, 0, 64, 75
2, 9982, Note_on_c, 0, 64, 0
2, 9984, Note_on_c, 0, 74, 75
2, 10073, Note_on_c, 0, 74, 0
2, 10080, Note_on_c, 0, 73, 75
2, 10110, Note_on_c, 0, 73, 0
2, 10112, Note_on_c, 0, 74, 75
2, 10142, Note_on_c, 0, 74, 0
2, 10144, Note_on_c, 0, 76, 75
2, 10174, Note_on_c, 0, 76, 0
2, 10176, Note_on_c, 0, 68, 75
2, 10265, Note_on_c, 0, 68, 0
2, 10272, Note_on_c, 0, 69, 75
2, 10361, Note_on_c, 0, 69, 0
2, 10368, Note_on_c, 0, 78, 75
2, 10398, Note_on_c, 0, 78, 0
2, 10400, Note_on_c, 0, 80, 75
2, 10430, Note_on_c, 0, 80, 0
2, 10432, Note_on_c, 0, 81, 75
2, 10462, Note_on_c, 0, 81, 0
2, 10464, Note_on_c, 0, 76, 75
2, 10553, Note_on_c, 0, 76, 0
2, 10560, Note_on_c, 0, 73, 75
2, 10649, Note_on_c, 0, 73, 0
2, 10656, Note_on_c, 0, 74, 75
2, 10686, Note_on_c, 0, 74, 0
2, 10688, Note_on_c, 0, 76, 75
2, 10718, Note_on_c, 0, 76, 0
2, 10720, Note_on_c, 0, 78, 75
2, 10750, Note_on_c, 0, 78, 0
2, 10752, Note_on_c, 0, 74, 75
2, 10841, Note_on_c, 0, 74, 0
2, 10848, Note_on_c, 0, 73, 75
2, 10937, Note_on_c, 0, 73, 0
2, 10944, Note_on_c, 0, 73, 75
2, 10989, Note_on_c, 0, 73, 0
2, 10992, Note_on_c, 0, 71, 76
2, 11037, Note_on_c, 0, 71, 0
2, 11040, Note_on_c, 0, 78, 77
2, 11070, Note_on_c, 0, 78, 0
2, 11072, Note_on_c, 0, 76, 77
2, 11102, Note_on_c, 0, 76, 0
2, 11104, Note_on_c, 0, 74, 78
2, 11134, Note_on_c, 0, 74, 0
2, 11136, Note_on_c, 0, 73, 79
2, 11166, Note_on_c, 0, 73, 0
2, 11168, Note_on_c, 0, 71, 79
2, 11198, Note_on_c, 0, 71, 0
2, 11200, Note_on_c, 0, 69, 79
2, 11230, Note_on_c, 0, 69, 0
2, 11232, Note_on_c, 0, 69, 79
2, 11424, Note_on_c, 0, 69, 0
2, 11424, Note_on_c, 0, 68, 79
2, 11497, Note_on_c, 0, 68, 0
2, 11520, Note_on_c, 0, 69, 91
2, 11616, Note_on_c, 0, 69, 0
2, 11616, Note_on_c, 0, 73, 75
2, 11646, Note_on_c, 0, 73, 0
2, 11648, Note_on_c, 0, 71, 75
2, 11678, Note_on_c, 0, 71, 0
2, 11680, Note_on_c, 0, 69, 75
2, 11710, Note_on_c, 0, 69, 0
2, 11712, Note_on_c, 0, 76, 75
2, 11801, Note_on_c, 0, 76, 0
2, 11808, Note_on_c, 0, 74, 75
2, 11838, Note_on_c, 0, 74, 0
2, 11840, Note_on_c, 0, 76, 75
2, 11870, Note_on_c, 0, 76, 0
2, 11872, Note_on_c, 0, 78, 75
2, 11902, Note_on_c, 0, 78, 0
2, 11904, Note_on_c, 0, 71, 75
2, 11993, Note_on_c, 0, 71, 0
2, 12000, Note_on_c, 0, 74, 75
2, 12089, Note_on_c, 0, 74, 0
2, 12096, Note_on_c, 0, 73, 75
2, 12126, Note_on_c, 0, 73, 0
2, 12128, Note_on_c, 0, 74, 75
2, 12158, Note_on_c, 0, 74, 0
2, 12160, Note_on_c, 0, 76, 75
2, 12190, Note_on_c, 0, 76, 0
2, 12192, Note_on_c, 0, 69, 75
2, 12281, Note_on_c, 0, 69, 0
2, 12288, Note_on_c, 0, 83, 75
2, 12311, Note_on_c, 0, 83, 0
2, 12312, Note_on_c, 0, 81, 75
2, 12335, Note_on_c, 0, 81, 0
2, 12336, Note_on_c, 0, 80, 75
2, 12359, Note_on_c, 0, 80, 0
2, 12360, Note_on_c, 0, 78, 75
2, 12383, Note_on_c, 0, 78, 0
2, 12384, Note_on_c, 0, 76, 75
2, 12473, Note_on_c, 0, 76, 0
2, 12480, Note_on_c, 0, 74, 75
2, 12493, Note_on_c, 0, 74, 0
2, 12494, Note_on_c, 0, 76, 75
2, 12507, Note_on_c, 0, 76, 0
2, 12508, Note_on_c, 0, 74, 75
2, 12521, Note_on_c, 0, 74, 0
2, 12522, Note_on_c, 0, 76, 75
2, 12535, Note_on_c, 0, 76, 0
2, 12536, Note_on_c, 0, 74, 75
2, 12549, Note_on_c, 0, 74, 0
2, 12550, Note_on_c, 0, 73, 75
2, 12562, Note_on_c, 0, 73, 0
2, 12563, Note_on_c, 0, 74, 75
2, 12575, Note_on_c, 0, 74, 0
2, 12576, Note_on_c, 0, 73, 75
2, 12665, Note_on_c, 0, 73, 0
2, 12672, Note_on_c, 0, 78, 91
2, 12768, Note_on_c, 0, 78, 0
2, 12768, Note_on_c, 0, 86, 75
2, 12798, Note_on_c, 0, 86, 0
2, 12800, Note_on_c, 0, 85, 75
2, 12830, Note_on_c, 0, 85, 0
2, 12832, Note_on_c, 0, 83, 75
2, 12862, Note_on_c, 0, 83, 0
2, 12864, Note_on_c, 0, 81, 75
2, 12894, Note_on_c, 0, 81, 0
2, 12896, Note_on_c, 0, 80, 75
2, 12926, Note_on_c, 0, 80, 0
2, 12928, Note_on_c, 0, 78, 75
2, 12958, Note_on_c, 0, 78, 0
2, 12960, Note_on_c, 0, 76, 91
2, 12992, Note_on_c, 0, 76, 0
2, 12992, Note_on_c, 0, 78, 75
2, 13022, Note_on_c, 0, 78, 0
2, 13024, Note_on_c, 0, 80, 75
2, 13054, Note_on_c, 0, 80, 0
2, 13056, Note_on_c, 0, 81, 75
2, 13086, Note_on_c, 0, 81, 0
2, 13088, Note_on_c, 0, 80, 75
2, 13118, Note_on_c, 0, 80, 0
2, 13120, Note_on_c, 0, 78, 75
2, 13150, Note_on_c, 0, 78, 0
2, 13152, Note_on_c, 0, 76, 75
2, 13182, Note_on_c, 0, 76, 0
2, 13184, Note_on_c, 0, 74, 75
2, 13214, Note_on_c, 0, 74, 0
2, 13216, Note_on_c, 0, 73, 75
2, 13246, Note_on_c, 0, 73, 0
2, 13248, Note_on_c, 0, 71, 75
2, 13278, Note_on_c, 0, 71, 0
2, 13280, Note_on_c, 0, 74, 75
2, 13310, Note_on_c, 0, 74, 0
2, 13312, Note_on_c, 0, 78, 75
2, 13342, Note_on_c, 0, 78, 0
2, 13344, Note_on_c, 0, 69, 75
2, 13433, Note_on_c, 0, 69, 0
2, 13440, Note_on_c, 0, 68, 75
2, 13453, Note_on_c, 0, 68, 0
2, 13454, Note_on_c, 0, 69, 75
2, 13467, Note_on_c, 0, 69, 0
2, 13468, Note_on_c, 0, 68, 75
2, 13481, Note_on_c, 0, 68, 0
2, 13482, Note_on_c, 0, 69, 75
2, 13495, Note_on_c, 0, 69, 0
2, 13496, Note_on_c, 0, 68, 75
2, 13509, Note_on_c, 0, 68, 0
2, 13510, Note_on_c, 0, 66, 75
2, 13522, Note_on_c, 0, 66, 0
2, 13523, Note_on_c, 0, 68, 75
2, 13535, Note_on_c, 0, 68, 0
2, 13536, Note_on_c, 0, 69, 75
2, 13713, Note_on_c, 0, 69, 0
2, 13872, Note_on_c, 0, 72, 64
2, 13961, Note_on_c, 0, 72, 0
2, 13968, Note_on_c, 0, 71, 64
2, 14057, Note_on_c, 0, 71, 0
2, 14064, Note_on_c, 0, 69, 64
2, 14109, Note_on_c, 0, 69, 0
2, 14160, Note_on_c, 0, 71, 64
2, 14249, Note_on_c, 0, 71, 0
2, 14256, Note_on_c, 0, 83, 64
2, 14345, Note_on_c, 0, 83, 0
2, 14352, Note_on_c, 0, 76, 64
2, 14397, Note_on_c, 0, 76, 0
2, 14448, Note_on_c, 0, 71, 64
2, 14537, Note_on_c, 0, 71, 0
2, 14544, Note_on_c, 0, 69, 64
2, 14633, Note_on_c, 0, 69, 0
2, 14640, Note_on_c, 0, 67, 64
2, 14685, Note_on_c, 0, 67, 0
2, 14736, Note_on_c, 0, 69, 64
2, 14825, Note_on_c, 0, 69, 0
2, 14832, Note_on_c, 0, 81, 64
2, 14921, Note_on_c, 0, 81, 0
2, 14928, Note_on_c, 0, 74, 64
2, 14973, Note_on_c, 0, 74, 0
2, 15024, Note_on_c, 0, 69, 64
2, 15113, Note_on_c, 0, 69, 0
2, 15120, Note_on_c, 0, 67, 64
2, 15209, Note_on_c, 0, 67, 0
2, 15216, Note_on_c, 0, 65, 64
2, 15261, Note_on_c, 0, 65, 0
2, 15312, Note_on_c, 0, 67, 64
2, 15401, Note_on_c, 0, 67, 0
2, 15408, Note_on_c, 0, 79, 64
2, 15497, Note_on_c, 0, 79, 0
2, 15504, Note_on_c, 0, 72, 64
2, 15549, Note_on_c, 0, 72, 0
2, 15600, Note_on_c, 0, 79, 64
2, 15689, Note_on_c, 0, 79, 0
2, 15696, Note_on_c, 0, 67, 65
2, 15785, Note_on_c, 0, 67, 0
2, 15792, Note_on_c, 0, 70, 66
2, 15837, Note_on_c, 0, 70, 0
2, 15840, Note_on_c, 0, 69, 67
2, 15885, Note_on_c, 0, 69, 0
2, 15888, Note_on_c, 0, 81, 68
2, 15977, Note_on_c, 0, 81, 0
2, 15984, Note_on_c, 0, 69, 69
2, 16073, Note_on_c, 0, 69, 0
2, 16080, Note_on_c, 0, 72, 70
2, 16125, Note_on_c, 0, 72, 0
2, 16128, Note_on_c, 0, 71, 71
2, 16173, Note_on_c, 0, 71, 0
2, 16176, Note_on_c, 0, 83, 72
2, 16265, Note_on_c, 0, 83, 0
2, 16272, Note_on_c, 0, 71, 73
2, 16361, Note_on_c, 0, 71, 0
2, 16368, Note_on_c, 0, 74, 75
2, 16413, Note_on_c, 0, 74, 0
2, 16416, Note_on_c, 0, 72, 75
2, 16461, Note_on_c, 0, 72, 0
2, 16464, Note_on_c, 0, 84, 76
2, 16553, Note_on_c, 0, 84, 0
2, 16560, Note_on_c, 0, 72, 77
2, 16649, Note_on_c, 0, 72, 0
2, 16656, Note_on_c, 0, 76, 79
2, 16701, Note_on_c, 0, 76, 0
2, 16704, Note_on_c, 0, 74, 80
2, 16749, Note_on_c, 0, 74, 0
2, 16752, Note_on_c, 0, 86, 80
2, 16841, Note_on_c, 0, 86, 0
2, 16848, Note_on_c, 0, 74, 80
2, 16937, Note_on_c, 0, 74, 0
2, 16944, Note_on_c, 0, 77, 80
2, 17037, Note_on_c, 0, 77, 0
2, 17040, Note_on_c, 0, 76, 80
2, 17129, Note_on_c, 0, 76, 0
2, 17136, Note_on_c, 0, 71, 80
2, 17225, Note_on_c, 0, 71, 0
2, 17232, Note_on_c, 0, 72, 80
2, 17325, Note_on_c, 0, 72, 0
2, 17328, Note_on_c, 0, 74, 80
2, 17417, Note_on_c, 0, 74, 0
2, 17424, Note_on_c, 0, 72, 80
2, 17513, Note_on_c, 0, 72, 0
2, 17520, Note_on_c, 0, 71, 80
2, 17565, Note_on_c, 0, 71, 0
2, 17568, Note_on_c, 0, 71, 80
2, 17664, Note_on_c, 0, 71, 0
2, 17664, Note_on_c, 0, 72, 80
2, 17745, Note_on_c, 0, 72, 0
2, 17904, Note_on_c, 0, 72, 64
2, 17993, Note_on_c, 0, 72, 0
2, 18000, Note_on_c, 0, 71, 64
2, 18089, Note_on_c, 0, 71, 0
2, 18096, Note_on_c, 0, 69, 64
2, 18141, Note_on_c, 0, 69, 0
2, 18192, Note_on_c, 0, 71, 64
2, 18281, Note_on_c, 0, 71, 0
2, 18288, Note_on_c, 0, 83, 64
2, 18377, Note_on_c, 0, 83, 0
2, 18384, Note_on_c, 0, 76, 64
2, 18429, Note_on_c, 0, 76, 0
2, 18480, Note_on_c, 0, 71, 64
2, 18569, Note_on_c, 0, 71, 0
2, 18576, Note_on_c, 0, 69, 64
2, 18665, Note_on_c, 0, 69, 0
2, 18672, Note_on_c, 0, 67, 64
2, 18717, Note_on_c, 0, 67, 0
2, 18768, Note_on_c, 0, 69, 64
2, 18857, Note_on_c, 0, 69, 0
2, 18864, Note_on_c, 0, 81, 64
2, 18953, Note_on_c, 0, 81, 0
2, 18960, Note_on_c, 0, 74, 64
2, 19005, Note_on_c, 0, 74, 0
2, 19056, Note_on_c, 0, 69, 64
2, 19145, Note_on_c, 0, 69, 0
2, 19152, Note_on_c, 0, 67, 64
2, 19241, Note_on_c, 0, 67, 0
2, 19248, Note_on_c, 0, 65, 64
2, 19293, Note_on_c, 0, 65, 0
2, 19344, Note_on_c, 0, 67, 64
2, 19433, Note_on_c, 0, 67, 0
2, 19440, Note_on_c, 0, 79, 64
2, 19529, Note_on_c, 0, 79, 0
2, 19536, Note_on_c, 0, 72, 64
2, 19581, Note_on_c, 0, 72, 0
2, 19632, Note_on_c, 0, 79, 64
2, 19721, Note_on_c, 0, 79, 0
2, 19728, Note_on_c, 0, 67, 65
2, 19817, Note_on_c, 0, 67, 0
2, 19824, Note_on_c, 0, 70, 66
2, 19869, Note_on_c, 0, 70, 0
2, 19872, Note_on_c, 0, 69, 67
2, 19917, Note_on_c, 0, 69, 0
2, 19920, Note_on_c, 0, 81, 68
2, 20009, Note_on_c, 0, 81, 0
2, 20016, Note_on_c, 0, 69, 69
2, 20105, Note_on_c, 0, 69, 0
2, 20112, Note_on_c, 0, 72, 70
2, 20157, Note_on_c, 0, 72, 0
2, 20160, Note_on_c, 0, 71, 71
2, 20205, Note_on_c, 0, 71, 0
2, 20208, Note_on_c, 0, 83, 72
2, 20297, Note_on_c, 0, 83, 0
2, 20304, Note_on_c, 0, 71, 73
2, 20393, Note_on_c, 0, 71, 0
2, 20400, Note_on_c, 0, 74, 75
2, 20445, Note_on_c, 0, 74, 0
2, 20448, Note_on_c, 0, 72, 75
2, 20493, Note_on_c, 0, 72, 0
2, 20496, Note_on_c, 0, 84, 76
2, 20585, Note_on_c, 0, 84, 0
2, 20592, Note_on_c, 0, 72, 77
2, 20681, Note_on_c, 0, 72, 0
2, 20688, Note_on_c, 0, 76, 79
2, 20733, Note_on_c, 0, 76, 0
2, 20736, Note_on_c, 0, 74, 80
2, 20781, Note_on_c, 0, 74, 0
2, 20784, Note_on_c, 0, 86, 80
2, 20873, Note_on_c, 0, 86, 0
2, 20880, Note_on_c, 0, 74, 80
2, 20969, Note_on_c, 0, 74, 0
2, 20976, Note_on_c, 0, 77, 80
2, 21069, Note_on_c, 0, 77, 0
2, 21072, Note_on_c, 0, 76, 80
2, 21161, Note_on_c, 0, 76, 0
2, 21168, Note_on_c, 0, 71, 80
2, 21257, Note_on_c, 0, 71, 0
2, 21264, Note_on_c, 0, 72, 80
2, 21357, Note_on_c, 0, 72, 0
2, 21360, Note_on_c, 0, 74, 80
2, 21449, Note_on_c, 0, 74, 0
2, 21456, Note_on_c, 0, 72, 80
2, 21545, Note_on_c, 0, 72, 0
2, 21552, Note_on_c, 0, 71, 80
2, 21597, Note_on_c, 0, 71, 0
2, 21600, Note_on_c, 0, 71, 80
2, 21696, Note_on_c, 0, 71, 0
2, 21696, Note_on_c, 0, 72, 80
2, 21777, Note_on_c, 0, 72, 0
2, 21936, Note_on_c, 0, 76, 75
2, 22025, Note_on_c, 0, 76, 0
2, 22032, Note_on_c, 0, 79, 75
2, 22121, Note_on_c, 0, 79, 0
2, 22128, Note_on_c, 0, 74, 75
2, 22221, Note_on_c, 0, 74, 0
2, 22224, Note_on_c, 0, 73, 75
2, 22313, Note_on_c, 0, 73, 0
2, 22320, Note_on_c, 0, 70, 75
2, 22409, Note_on_c, 0, 70, 0
2, 22416, Note_on_c, 0, 69, 75
2, 22509, Note_on_c, 0, 69, 0
2, 22512, Note_on_c, 0, 67, 75
2, 22601, Note_on_c, 0, 67, 0
2, 22608, Note_on_c, 0, 65, 75
2, 22697, Note_on_c, 0, 65, 0
2, 22704, Note_on_c, 0, 64, 75
2, 22797, Note_on_c, 0, 64, 0
2, 22800, Note_on_c, 0, 65, 75
2, 22889, Note_on_c, 0, 65, 0
2, 22896, Note_on_c, 0, 64, 75
2, 22985, Note_on_c, 0, 64, 0
2, 22992, Note_on_c, 0, 62, 75
2, 23037, Note_on_c, 0, 62, 0
2, 23088, Note_on_c, 0, 65, 75
2, 23177, Note_on_c, 0, 65, 0
2, 23184, Note_on_c, 0, 64, 75
2, 23273, Note_on_c, 0, 64, 0
2, 23280, Note_on_c, 0, 62, 76
2, 23325, Note_on_c, 0, 62, 0
2, 23376, Note_on_c, 0, 64, 76
2, 23465, Note_on_c, 0, 64, 0
2, 23472, Note_on_c, 0, 62, 77
2, 23561, Note_on_c, 0, 62, 0
2, 23568, Note_on_c, 0, 60, 77
2, 23613, Note_on_c, 0, 60, 0
2, 23664, Note_on_c, 0, 62, 78
2, 23753, Note_on_c, 0, 62, 0
2, 23760, Note_on_c, 0, 59, 79
2, 23805, Note_on_c, 0, 59, 0
2, 23808, Note_on_c, 0, 60, 79
2, 23853, Note_on_c, 0, 60, 0
2, 23856, Note_on_c, 0, 62, 79
2, 23901, Note_on_c, 0, 62, 0
2, 23904, Note_on_c, 0, 60, 80
2, 24000, Note_on_c, 0, 60, 0
2, 24000, Note_on_c, 0, 59, 80
2, 24081, Note_on_c, 0, 59, 0
2, 24240, Note_on_c, 0, 72, 64
2, 24329, Note_on_c, 0, 72, 0
2, 24336, Note_on_c, 0, 71, 64
2, 24425, Note_on_c, 0, 71, 0
2, 24432, Note_on_c, 0, 69, 64
2, 24477, Note_on_c, 0, 69, 0
2, 24528, Note_on_c, 0, 71, 64
2, 24617, Note_on_c, 0, 71, 0
2, 24624, Note_on_c, 0, 83, 64
2, 24713, Note_on_c, 0, 83, 0
2, 24720, Note_on_c, 0, 76, 64
2, 24765, Note_on_c, 0, 76, 0
2, 24816, Note_on_c, 0, 82, 64
2, 24905, Note_on_c, 0, 82, 0
2, 24912, Note_on_c, 0, 79, 64
2, 25001, Note_on_c, 0, 79, 0
2, 25008, Note_on_c, 0, 73, 64
2, 25053, Note_on_c, 0, 73, 0
2, 25104, Note_on_c, 0, 81, 64
2, 25193, Note_on_c, 0, 81, 0
2, 25200, Note_on_c, 0, 77, 64
2, 25289, Note_on_c, 0, 77, 0
2, 25296, Note_on_c, 0, 74, 64
2, 25341, Note_on_c, 0, 74, 0
2, 25392, Note_on_c, 0, 80, 64
2, 25481, Note_on_c, 0, 80, 0
2, 25488, Note_on_c, 0, 83, 64
2, 25577, Note_on_c, 0, 83, 0
2, 25584, Note_on_c, 0, 74, 64
2, 25677, Note_on_c, 0, 74, 0
2, 25680, Note_on_c, 0, 72, 64
2, 25769, Note_on_c, 0, 72, 0
2, 25776, Note_on_c, 0, 68, 64
2, 25865, Note_on_c, 0, 68, 0
2, 25872, Note_on_c, 0, 69, 64
2, 25965, Note_on_c, 0, 69, 0
2, 25968, Note_on_c, 0, 71, 64
2, 26057, Note_on_c, 0, 71, 0
2, 26064, Note_on_c, 0, 69, 64
2, 26153, Note_on_c, 0, 69, 0
2, 26160, Note_on_c, 0, 68, 64
2, 26205, Note_on_c, 0, 68, 0
2, 26208, Note_on_c, 0, 69, 64
2, 26385, Note_on_c, 0, 69, 0
2, 26544, Note_on_c, 0, 76, 75
2, 26633, Note_on_c, 0, 76, 0
2, 26640, Note_on_c, 0, 79, 75
2, 26729, Note_on_c, 0, 79, 0
2, 26736, Note_on_c, 0, 74, 75
2, 26829, Note_on_c, 0, 74, 0
2, 26832, Note_on_c, 0, 73, 75
2, 26921, Note_on_c, 0, 73, 0
2, 26928, Note_on_c, 0, 70, 75
2, 27017, Note_on_c, 0, 70, 0
2, 27024, Note_on_c, 0, 69, 75
2, 27117, Note_on_c, 0, 69, 0
2, 27120, Note_on_c, 0, 67, 75
2, 27209, Note_on_c, 0, 67, 0
2, 27216, Note_on_c, 0, 65, 75
2, 27305, Note_on_c, 0, 65, 0
2, 27312, Note_on_c, 0, 64, 75
2, 27405, Note_on_c, 0, 64, 0
2, 27408, Note_on_c, 0, 65, 75
2, 27497, Note_on_c, 0, 65, 0
2, 27504, Note_on_c, 0, 64, 75
2, 27593, Note_on_c, 0, 64, 0
2, 27600, Note_on_c, 0, 62, 75
2, 27645, Note_on_c, 0, 62, 0
2, 27696, Note_on_c, 0, 65, 75
2, 27785, Note_on_c, 0, 65, 0
2, 27792, Note_on_c, 0, 64, 75
2, 27881, Note_on_c, 0, 64, 0
2, 27888, Note_on_c, 0, 62, 76
2, 27933, Note_on_c, 0, 62, 0
2, 27984, Note_on_c, 0, 64, 76
2, 28073, Note_on_c, 0, 64, 0
2, 28080, Note_on_c, 0, 62, 77
2, 28169, Note_on_c, 0, 62, 0
2, 28176, Note_on_c, 0, 60, 77
2, 28221, Note_on_c, 0, 60, 0
2, 28272, Note_on_c, 0, 62, 78
2, 28361, Note_on_c, 0, 62, 0
2, 28368, Note_on_c, 0, 59, 79
2, 28413, Note_on_c, 0, 59, 0
2, 28416, Note_on_c, 0, 60, 79
2, 28461, Note_on_c, 0, 60, 0
2, 28464, Note_on_c, 0, 62, 79
2, 28509, Note_on_c, 0, 62, 0
2, 28512, Note_on_c, 0, 60, 80
2, 28608, Note_on_c, 0, 60, 0
2, 28608, Note_on_c, 0, 59, 80
2, 28689, Note_on_c, 0, 59, 0
2, 28848, Note_on_c, 0, 72, 64
2, 28937, Note_on_c, 0, 72, 0
2, 28944, Note_on_c, 0, 71, 64
2, 29033, Note_on_c, 0, 71, 0
2, 29040, Note_on_c, 0, 69, 64
2, 29085, Note_on_c, 0, 69, 0
2, 29136, Note_on_c, 0, 71, 64
2, 29225, Note_on_c, 0, 71, 0
2, 29232, Note_on_c, 0, 83, 64
2, 29321, Note_on_c, 0, 83, 0
2, 29328, Note_on_c, 0, 76, 64
2, 29373, Note_on_c, 0, 76, 0
2, 29424, Note_on_c, 0, 82, 64
2, 29513, Note_on_c, 0, 82, 0
2, 29520, Note_on_c, 0, 79, 64
2, 29609, Note_on_c, 0, 79, 0
2, 29616, Note_on_c, 0, 73, 64
2, 29661, Note_on_c, 0, 73, 0
2, 29712, Note_on_c, 0, 81, 64
2, 29801, Note_on_c, 0, 81, 0
2, 29808, Note_on_c, 0, 77, 64
2, 29897, Note_on_c, 0, 77, 0
2, 29904, Note_on_c, 0, 74, 64
2, 29949, Note_on_c, 0, 74, 0
2, 30000, Note_on_c, 0, 80, 64
2, 30089, Note_on_c, 0, 80, 0
2, 30096, Note_on_c, 0, 83, 64
2, 30185, Note_on_c, 0, 83, 0
2, 30192, Note_on_c, 0, 74, 64
2, 30285, Note_on_c, 0, 74, 0
2, 30288, Note_on_c, 0, 72, 64
2, 30377, Note_on_c, 0, 72, 0
2, 30384, Note_on_c, 0, 68, 64
2, 30473, Note_on_c, 0, 68, 0
2, 30480, Note_on_c, 0, 69, 64
2, 30573, Note_on_c, 0, 69, 0
2, 30576, Note_on_c, 0, 71, 64
2, 30665, Note_on_c, 0, 71, 0
2, 30672, Note_on_c, 0, 69, 64
2, 30761, Note_on_c, 0, 69, 0
2, 30768, Note_on_c, 0, 68, 64
2, 30813, Note_on_c, 0, 68, 0
2, 30816, Note_on_c, 0, 69, 64
2, 30993, Note_on_c, 0, 69, 0
2, 31104, Note_on_c, 0, 69, 91
2, 31200, Note_on_c, 0, 69, 0
2, 31200, Note_on_c, 0, 73, 75
2, 31230, Note_on_c, 0, 73, 0
2, 31232, Note_on_c, 0, 71, 75
2, 31262, Note_on_c, 0, 71, 0
2, 31264, Note_on_c, 0, 69, 75
2, 31294, Note_on_c, 0, 69, 0
2, 31296, Note_on_c, 0, 76, 75
2, 31385, Note_on_c, 0, 76, 0
2, 31392, Note_on_c, 0, 74, 75
2, 31422, Note_on_c, 0, 74, 0
2, 31424, Note_on_c, 0, 76, 75
2, 31454, Note_on_c, 0, 76, 0
2, 31456, Note_on_c, 0, 78, 75
2, 31486, Note_on_c, 0, 78, 0
2, 31488, Note_on_c, 0, 71, 75
2, 31577, Note_on_c, 0, 71, 0
2, 31584, Note_on_c, 0, 74, 75
2, 31673, Note_on_c, 0, 74, 0
2, 31680, Note_on_c, 0, 73, 75
2, 31710, Note_on_c, 0, 73, 0
2, 31712, Note_on_c, 0, 74, 75
2, 31742, Note_on_c, 0, 74, 0
2, 31744, Note_on_c, 0, 76, 75
2, 31774, Note_on_c, 0, 76, 0
2, 31776, Note_on_c, 0, 69, 75
2, 31865, Note_on_c, 0, 69, 0
2, 31872, Note_on_c, 0, 83, 75
2, 31895, Note_on_c, 0, 83, 0
2, 31896, Note_on_c, 0, 81, 75
2, 31919, Note_on_c, 0, 81, 0
2, 31920, Note_on_c, 0, 80, 75
2, 31943, Note_on_c, 0, 80, 0
2, 31944, Note_on_c, 0, 78, 75
2, 31967, Note_on_c, 0, 78, 0
2, 31968, Note_on_c, 0, 76, 75
2, 32057, Note_on_c, 0, 76, 0
2, 32064, Note_on_c, 0, 74, 75
2, 32077, Note_on_c, 0, 74, 0
2, 32078, Note_on_c, 0, 76, 75
2, 32091, Note_on_c, 0, 76, 0
2, 32092, Note_on_c, 0, 74, 75
2, 32105, Note_on_c, 0, 74, 0
2, 32106, Note_on_c, 0, 76, 75
2, 32119, Note_on_c, 0, 76, 0
2, 32120, Note_on_c, 0, 74, 75
2, 32133, Note_on_c, 0, 74, 0
2, 32134, Note_on_c, 0, 73, 75
2, 32146, Note_on_c, 0, 73, 0
2, 32147, Note_on_c, 0, 74, 75
2, 32159, Note_on_c, 0, 74, 0
2, 32160, Note_on_c, 0, 73, 75
2, 32249, Note_on_c, 0, 73, 0
2, 32256, Note_on_c, 0, 81, 75
2, 32286, Note_on_c, 0, 81, 0
2, 32288, Note_on_c, 0, 83, 75
2, 32318, Note_on_c, 0, 83, 0
2, 32320, Note_on_c, 0, 85, 75
2, 32350, Note_on_c, 0, 85, 0
2, 32352, Note_on_c, 0, 83, 75
2, 32382, Note_on_c, 0, 83, 0
2, 32384, Note_on_c, 0, 81, 75
2, 32414, Note_on_c, 0, 81, 0
2, 32416, Note_on_c, 0, 80, 75
2, 32446, Note_on_c, 0, 80, 0
2, 32448, Note_on_c, 0, 78, 75
2, 32478, Note_on_c, 0, 78, 0
2, 32480, Note_on_c, 0, 80, 75
2, 32510, Note_on_c, 0, 80, 0
2, 32512, Note_on_c, 0, 81, 75
2, 32542, Note_on_c, 0, 81, 0
2, 32544, Note_on_c, 0, 80, 75
2, 32574, Note_on_c, 0, 80, 0
2, 32576, Note_on_c, 0, 78, 75
2, 32606, Note_on_c, 0, 78, 0
2, 32608, Note_on_c, 0, 76, 75
2, 32638, Note_on_c, 0, 76, 0
2, 32640, Note_on_c, 0, 75, 75
2, 32670, Note_on_c, 0, 75, 0
2, 32672, Note_on_c, 0, 73, 75
2, 32702, Note_on_c, 0, 73, 0
2, 32704, Note_on_c, 0, 71, 75
2, 32734, Note_on_c, 0, 71, 0
2, 32736, Note_on_c, 0, 76, 75
2, 32825, Note_on_c, 0, 76, 0
2, 32832, Note_on_c, 0, 81, 64
2, 32862, Note_on_c, 0, 81, 0
2, 32864, Note_on_c, 0, 83, 64
2, 32894, Note_on_c, 0, 83, 0
2, 32896, Note_on_c, 0, 85, 64
2, 32926, Note_on_c, 0, 85, 0
2, 32928, Note_on_c, 0, 83, 64
2, 32958, Note_on_c, 0, 83, 0
2, 32960, Note_on_c, 0, 81, 64
2, 32990, Note_on_c, 0, 81, 0
2, 32992, Note_on_c, 0, 80, 64
2, 33022, Note_on_c, 0, 80, 0
2, 33024, Note_on_c, 0, 78, 64
2, 33054, Note_on_c, 0, 78, 0
2, 33056, Note_on_c, 0, 80, 65
2, 33086, Note_on_c, 0, 80, 0
2, 33088, Note_on_c, 0, 81, 66
2, 33118, Note_on_c, 0, 81, 0
2, 33120, Note_on_c, 0, 80, 67
2, 33150, Note_on_c, 0, 80, 0
2, 33152, Note_on_c, 0, 81, 69
2, 33182, Note_on_c, 0, 81, 0
2, 33184, Note_on_c, 0, 83, 70
2, 33214, Note_on_c, 0, 83, 0
2, 33216, Note_on_c, 0, 75, 71
2, 33246, Note_on_c, 0, 75, 0
2, 33248, Note_on_c, 0, 76, 72
2, 33278, Note_on_c, 0, 76, 0
2, 33280, Note_on_c, 0, 78, 74
2, 33310, Note_on_c, 0, 78, 0
2, 33312, Note_on_c, 0, 76, 75
2, 33379, Note_on_c, 0, 76, 0
2, 33384, Note_on_c, 0, 76, 78
2, 33407, Note_on_c, 0, 76, 0
2, 33408, Note_on_c, 0, 75, 80
2, 33431, Note_on_c, 0, 75, 0
2, 33432, Note_on_c, 0, 73, 80
2, 33455, Note_on_c, 0, 73, 0
2, 33456, Note_on_c, 0, 71, 80
2, 33479, Note_on_c, 0, 71, 0
2, 33480, Note_on_c, 0, 69, 80
2, 33503, Note_on_c, 0, 69, 0
2, 33504, Note_on_c, 0, 68, 80
2, 33593, Note_on_c, 0, 68, 0
2, 33600, Note_on_c, 0, 66, 80
2, 33613, Note_on_c, 0, 66, 0
2, 33614, Note_on_c, 0, 68, 80
2, 33627, Note_on_c, 0, 68, 0
2, 33628, Note_on_c, 0, 66, 80
2, 33641, Note_on_c, 0, 66, 0
2, 33642, Note_on_c, 0, 68, 80
2, 33655, Note_on_c, 0, 68, 0
2, 33656, Note_on_c, 0, 66, 80
2, 33669, Note_on_c, 0, 66, 0
2, 33670, Note_on_c, 0, 64, 80
2, 33682, Note_on_c, 0, 64, 0
2, 33683, Note_on_c, 0, 66, 80
2, 33695, Note_on_c, 0, 66, 0
2, 33696, Note_on_c, 0, 64, 80
2, 33873, Note_on_c, 0, 64, 0
2, 33984, Note_on_c, 0, 69, 91
2, 34080, Note_on_c, 0, 69, 0
2, 34080, Note_on_c, 0, 73, 75
2, 34110, Note_on_c, 0, 73, 0
2, 34112, Note_on_c, 0, 71, 75
2, 34142, Note_on_c, 0, 71, 0
2, 34144, Note_on_c, 0, 69, 75
2, 34174, Note_on_c, 0, 69, 0
2, 34176, Note_on_c, 0, 76, 75
2, 34265, Note_on_c, 0, 76, 0
2, 34272, Note_on_c, 0, 74, 75
2, 34302, Note_on_c, 0, 74, 0
2, 34304, Note_on_c, 0, 76, 75
2, 34334, Note_on_c, 0, 76, 0
2, 34336, Note_on_c, 0, 78, 75
2, 34366, Note_on_c, 0, 78, 0
2, 34368, Note_on_c, 0, 71, 75
2, 34457, Note_on_c, 0, 71, 0
2, 34464, Note_on_c, 0, 74, 75
2, 34553, Note_on_c, 0, 74, 0
2, 34560, Note_on_c, 0, 73, 75
2, 34590, Note_on_c, 0, 73, 0
2, 34592, Note_on_c, 0, 74, 75
2, 34622, Note_on_c, 0, 74, 0
2, 34624, Note_on_c, 0, 76, 75
2, 34654, Note_on_c, 0, 76, 0
2, 34656, Note_on_c, 0, 69, 75
2, 34745, Note_on_c, 0, 69, 0
2, 34752, Note_on_c, 0, 83, 75
2, 34775, Note_on_c, 0, 83, 0
2, 34776, Note_on_c, 0, 81, 75
2, 34799, Note_on_c, 0, 81, 0
2, 34800, Note_on_c, 0, 80, 75
2, 34823, Note_on_c, 0, 80, 0
2, 34824, Note_on_c, 0, 78, 75
2, 34847, Note_on_c, 0, 78, 0
2, 34848, Note_on_c, 0, 76, 75
2, 34937, Note_on_c, 0, 76, 0
2, 34944, Note_on_c, 0, 74, 75
2, 34957, Note_on_c, 0, 74, 0
2, 34958, Note_on_c, 0, 76, 75
2, 34971, Note_on_c, 0, 76, 0
2, 34972, Note_on_c, 0, 74, 75
2, 34985, Note_on_c, 0, 74, 0
2, 34986, Note_on_c, 0, 76, 75
2, 34999, Note_on_c, 0, 76, 0
2, 35000, Note_on_c, 0, 74, 75
2, 35013, Note_on_c, 0, 74, 0
2, 35014, Note_on_c, 0, 73, 75
2, 35026, Note_on_c, 0, 73, 0
2, 35027, Note_on_c, 0, 74, 75
2, 35039, Note_on_c, 0, 74, 0
2, 35040, Note_on_c, 0, 73, 75
2, 35129, Note_on_c, 0, 73, 0
2, 35136, Note_on_c, 0, 81, 75
2, 35166, Note_on_c, 0, 81, 0
2, 35168, Note_on_c, 0, 83, 75
2, 35198, Note_on_c, 0, 83, 0
2, 35200, Note_on_c, 0, 85, 75
2, 35230, Note_on_c, 0, 85, 0
2, 35232, Note_on_c, 0, 83, 75
2, 35262, Note_on_c, 0, 83, 0
2, 35264, Note_on_c, 0, 81, 75
2, 35294, Note_on_c, 0, 81, 0
2, 35296, Note_on_c, 0, 80, 75
2, 35326, Note_on_c, 0, 80, 0
2, 35328, Note_on_c, 0, 78, 75
2, 35358, Note_on_c, 0, 78, 0
2, 35360, Note_on_c, 0, 80, 75
2, 35390, Note_on_c, 0, 80, 0
2, 35392, Note_on_c, 0, 81, 75
2, 35422, Note_on_c, 0, 81, 0
2, 35424, Note_on_c, 0, 80, 75
2, 35454, Note_on_c, 0, 80, 0
2, 35456, Note_on_c, 0, 78, 75
2, 35486, Note_on_c, 0, 78, 0
2, 35488, Note_on_c, 0, 76, 75
2, 35518, Note_on_c, 0, 76, 0
2, 35520, Note_on_c, 0, 75, 75
2, 35550, Note_on_c, 0, 75, 0
2, 35552, Note_on_c, 0, 73, 75
2, 35582, Note_on_c, 0, 73, 0
2, 35584, Note_on_c, 0, 71, 75
2, 35614, Note_on_c, 0, 71, 0
2, 35616, Note_on_c, 0, 76, 75
2, 35705, Note_on_c, 0, 76, 0
2, 35712, Note_on_c, 0, 81, 64
2, 35742, Note_on_c, 0, 81, 0
2, 35744, Note_on_c, 0, 83, 64
2, 35774, Note_on_c, 0, 83, 0
2, 35776, Note_on_c, 0, 85, 64
2, 35806, Note_on_c, 0, 85, 0
2, 35808, Note_on_c, 0, 83, 64
2, 35838, Note_on_c, 0, 83, 0
2, 35840, Note_on_c, 0, 81, 64
2, 35870, Note_on_c, 0, 81, 0
2, 35872, Note_on_c, 0, 80, 64
2, 35902, Note_on_c, 0, 80, 0
2, 35904, Note_on_c, 0, 78, 64
2, 35934, Note_on_c, 0, 78, 0
2, 35936, Note_on_c, 0, 80, 65
2, 35966, Note_on_c, 0, 80, 0
2, 35968, Note_on_c, 0, 81, 66
2, 35998, Note_on_c, 0, 81, 0
2, 36000, Note_on_c, 0, 80, 67
2, 36030, Note_on_c, 0, 80, 0
2, 36032, Note_on_c, 0, 81, 69
2, 36062, Note_on_c, 0, 81, 0
2, 36064, Note_on_c, 0, 83, 70
2, 36094, Note_on_c, 0, 83, 0
2, 36096, Note_on_c, 0, 75, 71
2, 36126, Note_on_c, 0, 75, 0
2, 36128, Note_on_c, 0, 76, 72
2, 36158, Note_on_c, 0, 76, 0
2, 36160, Note_on_c, 0, 78, 74
2, 36190, Note_on_c, 0, 78, 0
2, 36192, Note_on_c, 0, 76, 75
2, 36259, Note_on_c, 0, 76, 0
2, 36264, Note_on_c, 0, 76, 78
2, 36287, Note_on_c, 0, 76, 0
2, 36288, Note_on_c, 0, 75, 80
2, 36311, Note_on_c, 0, 75, 0
2, 36312, Note_on_c, 0, 73, 80
2, 36335, Note_on_c, 0, 73, 0
2, 36336, Note_on_c, 0, 71, 80
2, 36359, Note_on_c, 0, 71, 0
2, 36360, Note_on_c, 0, 69, 80
2, 36383, Note_on_c, 0, 69, 0
2, 36384, Note_on_c, 0, 68, 80
2, 36473, Note_on_c, 0, 68, 0
2, 36480, Note_on_c, 0, 66, 80
2, 36493, Note_on_c, 0, 66, 0
2, 36494, Note_on_c, 0, 68, 80
2, 36507, Note_on_c, 0, 68, 0
2, 36508, Note_on_c, 0, 66, 80
2, 36521, Note_on_c, 0, 66, 0
2, 36522, Note_on_c, 0, 68, 80
2, 36535, Note_on_c, 0, 68, 0
2, 36536, Note_on_c, 0, 66, 80
2, 36549, Note_on_c, 0, 66, 0
2, 36550, Note_on_c, 0, 64, 80
2, 36562, Note_on_c, 0, 64, 0
2, 36563, Note_on_c, 0, 66, 80
2, 36575, Note_on_c, 0, 66, 0
2, 36576, Note_on_c, 0, 64, 80
2, 36753, Note_on_c, 0, 64, 0
2, 36864, Note_on_c, 0, 64, 91
2, 36960, Note_on_c, 0, 64, 0
2, 36960, Note_on_c, 0, 68, 75
2, 36990, Note_on_c, 0, 68, 0
2, 36992, Note_on_c, 0, 66, 75
2, 37022, Note_on_c, 0, 66, 0
2, 37024, Note_on_c, 0, 64, 75
2, 37054, Note_on_c, 0, 64, 0
2, 37056, Note_on_c, 0, 74, 75
2, 37145, Note_on_c, 0, 74, 0
2, 37152, Note_on_c, 0, 73, 75
2, 37182, Note_on_c, 0, 73, 0
2, 37184, Note_on_c, 0, 74, 75
2, 37214, Note_on_c, 0, 74, 0
2, 37216, Note_on_c, 0, 76, 75
2, 37246, Note_on_c, 0, 76, 0
2, 37248, Note_on_c, 0, 68, 75
2, 37337, Note_on_c, 0, 68, 0
2, 37344, Note_on_c, 0, 69, 75
2, 37433, Note_on_c, 0, 69, 0
2, 37440, Note_on_c, 0, 78, 75
2, 37470, Note_on_c, 0, 78, 0
2, 37472, Note_on_c, 0, 80, 75
2, 37502, Note_on_c, 0, 80, 0
2, 37504, Note_on_c, 0, 81, 75
2, 37534, Note_on_c, 0, 81, 0
2, 37536, Note_on_c, 0, 76, 75
2, 37625, Note_on_c, 0, 76, 0
2, 37632, Note_on_c, 0, 73, 75
2, 37721, Note_on_c, 0, 73, 0
2, 37728, Note_on_c, 0, 74, 75
2, 37758, Note_on_c, 0, 74, 0
2, 37760, Note_on_c, 0, 76, 75
2, 37790, Note_on_c, 0, 76, 0
2, 37792, Note_on_c, 0, 78, 75
2, 37822, Note_on_c, 0, 78, 0
2, 37824, Note_on_c, 0, 74, 75
2, 37913, Note_on_c, 0, 74, 0
2, 37920, Note_on_c, 0, 73, 75
2, 38009, Note_on_c, 0, 73, 0
2, 38016, Note_on_c, 0, 73, 75
2, 38061, Note_on_c, 0, 73, 0
2, 38064, Note_on_c, 0, 71, 76
2, 38109, Note_on_c, 0, 71, 0
2, 38112, Note_on_c, 0, 78, 77
2, 38142, Note_on_c, 0, 78, 0
2, 38144, Note_on_c, 0, 76, 77
2, 38174, Note_on_c, 0, 76, 0
2, 38176, Note_on_c, 0, 74, 78
2, 38206, Note_on_c, 0, 74, 0
2, 38208, Note_on_c, 0, 73, 79
2, 38238, Note_on_c, 0, 73, 0
2, 38240, Note_on_c, 0, 71, 79
2, 38270, Note_on_c, 0, 71, 0
2, 38272, Note_on_c, 0, 69, 79
2, 38302, Note_on_c, 0, 69, 0
2, 38304, Note_on_c, 0, 69, 79
2, 38496, Note_on_c, 0, 69, 0
2, 38496, Note_on_c, 0, 68, 79
2, 38569, Note_on_c, 0, 68, 0
2, 38592, Note_on_c, 0, 69, 91
2, 38688, Note_on_c, 0, 69, 0
2, 38688, Note_on_c, 0, 73, 75
2, 38718, Note_on_c, 0, 73, 0
2, 38720, Note_on_c, 0, 71, 75
2, 38750, Note_on_c, 0, 71, 0
2, 38752, Note_on_c, 0, 69, 75
2, 38782, Note_on_c, 0, 69, 0
2, 38784, Note_on_c, 0, 76, 75
2, 38873, Note_on_c, 0, 76, 0
2, 38880, Note_on_c, 0, 74, 75
2, 38910, Note_on_c, 0, 74, 0
2, 38912, Note_on_c, 0, 76, 75
2, 38942, Note_on_c, 0, 76, 0
2, 38944, Note_on_c, 0, 78, 75
2, 38974, Note_on_c, 0, 78, 0
2, 38976, Note_on_c, 0, 71, 75
2, 39065, Note_on_c, 0, 71, 0
2, 39072, Note_on_c, 0, 74, 75
2, 39161, Note_on_c, 0, 74, 0
2, 39168, Note_on_c, 0, 73, 75
2, 39198, Note_on_c, 0, 73, 0
2, 39200, Note_on_c, 0, 74, 75
2, 39230, Note_on_c, 0, 74, 0
2, 39232, Note_on_c, 0, 76, 75
2, 39262, Note_on_c, 0, 76, 0
2, 39264, Note_on_c, 0, 69, 75
2, 39353, Note_on_c, 0, 69, 0
2, 39360, Note_on_c, 0, 83, 75
2, 39383, Note_on_c, 0, 83, 0
2, 39384, Note_on_c, 0, 81, 75
2, 39407, Note_on_c, 0, 81, 0
2, 39408, Note_on_c, 0, 80, 75
2, 39431, Note_on_c, 0, 80, 0
2, 39432, Note_on_c, 0, 78, 75
2, 39455, Note_on_c, 0, 78, 0
2, 39456, Note_on_c, 0, 76, 75
2, 39545, Note_on_c, 0, 76, 0
2, 39552, Note_on_c, 0, 74, 75
2, 39565, Note_on_c, 0, 74, 0
2, 39566, Note_on_c, 0, 76, 75
2, 39579, Note_on_c, 0, 76, 0
2, 39580, Note_on_c, 0, 74, 75
2, 39593, Note_on_c, 0, 74, 0
2, 39594, Note_on_c, 0, 76, 75
2, 39607, Note_on_c, 0, 76, 0
2, 39608, Note_on_c, 0, 74, 75
2, 39621, Note_on_c, 0, 74, 0
2, 39622, Note_on_c, 0, 73, 75
2, 39634, Note_on_c, 0, 73, 0
2, 39635, Note_on_c, 0, 74, 75
2, 39647, Note_on_c, 0, 74, 0
2, 39648, Note_on_c, 0, 73, 75
2, 39737, Note_on_c, 0, 73, 0
2, 39744, Note_on_c, 0, 78, 91
2, 39840, Note_on_c, 0, 78, 0
2, 39840, Note_on_c, 0, 86, 75
2, 39870, Note_on_c, 0, 86, 0
2, 39872, Note_on_c, 0, 85, 75
2, 39902, Note_on_c, 0, 85, 0
2, 39904, Note_on_c, 0, 83, 75
2, 39934, Note_on_c, 0, 83, 0
2, 39936, Note_on_c, 0, 81, 75
2, 39966, Note_on_c, 0, 81, 0
2, 39968, Note_on_c, 0, 80, 75
2, 39998, Note_on_c, 0, 80, 0
2, 40000, Note_on_c, 0, 78, 75
2, 40030, Note_on_c, 0, 78, 0
2, 40032, Note_on_c, 0, 76, 91
2, 40064, Note_on_c, 0, 76, 0
2, 40064, Note_on_c, 0, 78, 75
2, 40094, Note_on_c, 0, 78, 0
2, 40096, Note_on_c, 0, 80, 75
2, 40126, Note_on_c, 0, 80, 0
2, 40128, Note_on_c, 0, 81, 75
2, 40158, Note_on_c, 0, 81, 0
2, 40160, Note_on_c, 0, 80, 75
2, 40190, Note_on_c, 0, 80, 0
2, 40192, Note_on_c, 0, 78, 75
2, 40222, Note_on_c, 0, 78, 0
2, 40224, Note_on_c, 0, 76, 75
2, 40254, Note_on_c, 0, 76, 0
2, 40256, Note_on_c, 0, 74, 75
2, 40286, Note_on_c, 0, 74, 0
2, 40288, Note_on_c, 0, 73, 75
2, 40318, Note_on_c, 0, 73, 0
2, 40320, Note_on_c, 0, 71, 75
2, 40350, Note_on_c, 0, 71, 0
2, 40352, Note_on_c, 0, 74, 75
2, 40382, Note_on_c, 0, 74, 0
2, 40384, Note_on_c, 0, 78, 75
2, 40414, Note_on_c, 0, 78, 0
2, 40416, Note_on_c, 0, 69, 75
2, 40505, Note_on_c, 0, 69, 0
2, 40512, Note_on_c, 0, 68, 75
2, 40525, Note_on_c, 0, 68, 0
2, 40526, Note_on_c, 0, 69, 75
2, 40539, Note_on_c, 0, 69, 0
2, 40540, Note_on_c, 0, 68, 75
2, 40553, Note_on_c, 0, 68, 0
2, 40554, Note_on_c, 0, 69, 75
2, 40567, Note_on_c, 0, 69, 0
2, 40568, Note_on_c, 0, 68, 75
2, 40581, Note_on_c, 0, 68, 0
2, 40582, Note_on_c, 0, 66, 75
2, 40594, Note_on_c, 0, 66, 0
2, 40595, Note_on_c, 0, 68, 75
2, 40607, Note_on_c, 0, 68, 0
2, 40608, Note_on_c, 0, 69, 75
2, 40785, Note_on_c, 0, 69, 0
2, 40896, Note_on_c, 0, 64, 91
2, 40992, Note_on_c, 0, 64, 0
2, 40992, Note_on_c, 0, 68, 75
2, 41022, Note_on_c, 0, 68, 0
2, 41024, Note_on_c, 0, 66, 75
2, 41054, Note_on_c, 0, 66, 0
2, 41056, Note_on_c, 0, 64, 75
2, 41086, Note_on_c, 0, 64, 0
2, 41088, Note_on_c, 0, 74, 75
2, 41177, Note_on_c, 0, 74, 0
2, 41184, Note_on_c, 0, 73, 75
2, 41214, Note_on_c, 0, 73, 0
2, 41216, Note_on_c, 0, 74, 75
2, 41246, Note_on_c, 0, 74, 0
2, 41248, Note_on_c, 0, 76, 75
2, 41278, Note_on_c, 0, 76, 0
2, 41280, Note_on_c, 0, 68, 75
2, 41369, Note_on_c, 0, 68, 0
2, 41376, Note_on_c, 0, 69, 75
2, 41465, Note_on_c, 0, 69, 0
2, 41472, Note_on_c, 0, 78, 75
2, 41502, Note_on_c, 0, 78, 0
2, 41504, Note_on_c, 0, 80, 75
2, 41534, Note_on_c, 0, 80, 0
2, 41536, Note_on_c, 0, 81, 75
2, 41566, Note_on_c, 0, 81, 0
2, 41568, Note_on_c, 0, 76, 75
2, 41657, Note_on_c, 0, 76, 0
2, 41664, Note_on_c, 0, 73, 75
2, 41753, Note_on_c, 0, 73, 0
2, 41760, Note_on_c, 0, 74, 75
2, 41790, Note_on_c, 0, 74, 0
2, 41792, Note_on_c, 0, 76, 75
2, 41822, Note_on_c, 0, 76, 0
2, 41824, Note_on_c, 0, 78, 75
2, 41854, Note_on_c, 0, 78, 0
2, 41856, Note_on_c, 0, 74, 75
2, 41945, Note_on_c, 0, 74, 0
2, 41952, Note_on_c, 0, 73, 75
2, 42041, Note_on_c, 0, 73, 0
2, 42048, Note_on_c, 0, 73, 75
2, 42093, Note_on_c, 0, 73, 0
2, 42096, Note_on_c, 0, 71, 76
2, 42141, Note_on_c, 0, 71, 0
2, 42144, Note_on_c, 0, 78, 77
2, 42174, Note_on_c, 0, 78, 0
2, 42176, Note_on_c, 0, 76, 77
2, 42206, Note_on_c, 0, 76, 0
2, 42208, Note_on_c, 0, 74, 78
2, 42238, Note_on_c, 0, 74, 0
2, 42240, Note_on_c, 0, 73, 79
2, 42270, Note_on_c, 0, 73, 0
2, 42272, Note_on_c, 0, 71, 79
2, 42302, Note_on_c, 0, 71, 0
2, 42304, Note_on_c, 0, 69, 79
2, 42334, Note_on_c, 0, 69, 0
2, 42336, Note_on_c, 0, 69, 79
2, 42528, Note_on_c, 0, 69, 0
2, 42528, Note_on_c, 0, 68, 79
2, 42601, Note_on_c, 0, 68, 0
2, 42624, Note_on_c, 0, 69, 91
2, 42720, Note_on_c, 0, 69, 0
2, 42720, Note_on_c, 0, 73, 75
2, 42750, Note_on_c, 0, 73, 0
2, 42752, Note_on_c, 0, 71, 75
2, 42782, Note_on_c, 0, 71, 0
2, 42784, Note_on_c, 0, 69, 75
2, 42814, Note_on_c, 0, 69, 0
2, 42816, Note_on_c, 0, 76, 75
2, 42905, Note_on_c, 0, 76, 0
2, 42912, Note_on_c, 0, 74, 75
2, 42942, Note_on_c, 0, 74, 0
2, 42944, Note_on_c, 0, 76, 75
2, 42974, Note_on_c, 0, 76, 0
2, 42976, Note_on_c, 0, 78, 75
2, 43006, Note_on_c, 0, 78, 0
2, 43008, Note_on_c, 0, 71, 75
2, 43097, Note_on_c, 0, 71, 0
2, 43104, Note_on_c, 0, 74, 75
2, 43193, Note_on_c, 0, 74, 0
2, 43200, Note_on_c, 0, 73, 75
2, 43230, Note_on_c, 0, 73, 0
2, 43232, Note_on_c, 0, 74, 75
2, 43262, Note_on_c, 0, 74, 0
2, 43264, Note_on_c, 0, 76, 75
2, 43294, Note_on_c, 0, 76, 0
2, 43296, Note_on_c, 0, 69, 75
2, 43385, Note_on_c, 0, 69, 0
2, 43392, Note_on_c, 0, 83, 75
2, 43415, Note_on_c, 0, 83, 0
2, 43416, Note_on_c, 0, 81, 75
2, 43439, Note_on_c, 0, 81, 0
2, 43440, Note_on_c, 0, 80, 75
2, 43463, Note_on_c, 0, 80, 0
2, 43464, Note_on_c, 0, 78, 75
2, 43487, Note_on_c, 0, 78, 0
2, 43488, Note_on_c, 0, 76, 75
2, 43577, Note_on_c, 0, 76, 0
2, 43584, Note_on_c, 0, 74, 75
2, 43597, Note_on_c, 0, 74, 0
2, 43598, Note_on_c, 0, 76, 75
2, 43611, Note_on_c, 0, 76, 0
2, 43612, Note_on_c, 0, 74, 75
2, 43625, Note_on_c, 0, 74, 0
2, 43626, Note_on_c, 0, 76, 75
2, 43639, Note_on_c, 0, 76, 0
2, 43640, Note_on_c, 0, 74, 75
2, 43653, Note_on_c, 0, 74, 0
2, 43654, Note_on_c, 0, 73, 75
2, 43666, Note_on_c, 0, 73, 0
2, 43667, Note_on_c, 0, 74, 75
2, 43679, Note_on_c, 0, 74, 0
2, 43680, Note_on_c, 0, 73, 75
2, 43769, Note_on_c, 0, 73, 0
2, 43776, Note_on_c, 0, 78, 91
2, 43872, Note_on_c, 0, 78, 0
2, 43872, Note_on_c, 0, 86, 75
2, 43902, Note_on_c, 0, 86, 0
2, 43904, Note_on_c, 0, 85, 75
2, 43934, Note_on_c, 0, 85, 0
2, 43936, Note_on_c, 0, 83, 75
2, 43966, Note_on_c, 0, 83, 0
2, 43968, Note_on_c, 0, 81, 75
2, 43998, Note_on_c, 0, 81, 0
2, 44000, Note_on_c, 0, 80, 75
2, 44030, Note_on_c, 0, 80, 0
2, 44032, Note_on_c, 0, 78, 75
2, 44062, Note_on_c, 0, 78, 0
2, 44064, Note_on_c, 0, 76, 91
2, 44096, Note_on_c, 0, 76, 0
2, 44096, Note_on_c, 0, 78, 75
2, 44126, Note_on_c, 0, 78, 0
2, 44128, Note_on_c, 0, 80, 75
2, 44158, Note_on_c, 0, 80, 0
2, 44160, Note_on_c, 0, 81, 75
2, 44190, Note_on_c, 0, 81, 0
2, 44192, Note_on_c, 0, 80, 75
2, 44222, Note_on_c, 0, 80, 0
2, 44224, Note_on_c, 0, 78, 75
2, 44254, Note_on_c, 0, 78, 0
2, 44256, Note_on_c, 0, 76, 75
2, 44286, Note_on_c, 0, 76, 0
2, 44288, Note_on_c, 0, 74, 75
2, 44318, Note_on_c, 0, 74, 0
2, 44320, Note_on_c, 0, 73, 75
2, 44350, Note_on_c, 0, 73, 0
2, 44352, Note_on_c, 0, 71, 75
2, 44382, Note_on_c, 0, 71, 0
2, 44384, Note_on_c, 0, 74, 75
2, 44414, Note_on_c, 0, 74, 0
2, 44416, Note_on_c, 0, 78, 75
2, 44446, Note_on_c, 0, 78, 0
2, 44448, Note_on_c, 0, 69, 75
2, 44537, Note_on_c, 0, 69, 0
2, 44544, Note_on_c, 0, 68, 75
2, 44557, Note_on_c, 0, 68, 0
2, 44558, Note_on_c, 0, 69, 75
2, 44571, Note_on_c, 0, 69, 0
2, 44572, Note_on_c, 0, 68, 75
2, 44585, Note_on_c, 0, 68, 0
2, 44586, Note_on_c, 0, 69, 75
2, 44599, Note_on_c, 0, 69, 0
2, 44600, Note_on_c, 0, 68, 75
2, 44613, Note_on_c, 0, 68, 0
2, 44614, Note_on_c, 0, 66, 75
2, 44626, Note_on_c, 0, 66, 0
2, 44627, Note_on_c, 0, 68, 75
2, 44639, Note_on_c, 0, 68, 0
2, 44640, Note_on_c, 0, 69, 75
2, 44817, Note_on_c, 0, 69, 0
2, 44928, End_track
3, 0, Start_track
3, 0, Program_c, 0, 0
3, 0, Control_c, 0, 7, 127
3, 0, Control_c, 0, 10, 64
3, 44928, End_track
4, 0, Start_track
4, 0, Program_c, 1, 0
4, 0, Control_c, 1, 7, 127
4, 0, Control_c, 1, 10, 64
4, 0, Note_on_c, 1, 57, 91
4, 0, Note_on_c, 1, 45, 91
4, 96, Note_on_c, 1, 57, 0
4, 96, Note_on_c, 1, 45, 0
4, 192, Note_on_c, 1, 61, 75
4, 281, Note_on_c, 1, 61, 0
4, 288, Note_on_c, 1, 59, 75
4, 377, Note_on_c, 1, 59, 0
4, 384, Note_on_c, 1, 56, 75
4, 473, Note_on_c, 1, 56, 0
4, 480, Note_on_c, 1, 52, 75
4, 569, Note_on_c, 1, 52, 0
4, 576, Note_on_c, 1, 57, 75
4, 665, Note_on_c, 1, 57, 0
4, 672, Note_on_c, 1, 61, 75
4, 761, Note_on_c, 1, 61, 0
4, 768, Note_on_c, 1, 57, 75
4, 857, Note_on_c, 1, 57, 0
4, 864, Note_on_c, 1, 59, 75
4, 953, Note_on_c, 1, 59, 0
4, 960, Note_on_c, 1, 52, 75
4, 1049, Note_on_c, 1, 52, 0
4, 1056, Note_on_c, 1, 57, 75
4, 1145, Note_on_c, 1, 57, 0
4, 1344, Note_on_c, 1, 63, 75
4, 1433, Note_on_c, 1, 63, 0
4, 1440, Note_on_c, 1, 64, 75
4, 1529, Note_on_c, 1, 64, 0
4, 1536, Note_on_c, 1, 66, 75
4, 1625, Note_on_c, 1, 66, 0
4, 1632, Note_on_c, 1, 68, 75
4, 1721, Note_on_c, 1, 68, 0
4, 1920, Note_on_c, 1, 51, 70
4, 2009, Note_on_c, 1, 51, 0
4, 2016, Note_on_c, 1, 52, 72
4, 2105, Note_on_c, 1, 52, 0
4, 2112, Note_on_c, 1, 54, 75
4, 2201, Note_on_c, 1, 54, 0
4, 2208, Note_on_c, 1, 56, 77
4, 2297, Note_on_c, 1, 56, 0
4, 2304, Note_on_c, 1, 57, 80
4, 2393, Note_on_c, 1, 57, 0
4, 2400, Note_on_c, 1, 59, 80
4, 2489, Note_on_c, 1, 59, 0
4, 2496, Note_on_c, 1, 47, 80
4, 2585, Note_on_c, 1, 47, 0
4, 2592, Note_on_c, 1, 52, 80
4, 2681, Note_on_c, 1, 52, 0
4, 2688, Note_on_c, 1, 47, 80
4, 2777, Note_on_c, 1, 47, 0
4, 2784, Note_on_c, 1, 40, 80
4, 2873, Note_on_c, 1, 40, 0
4, 2880, Note_on_c, 1, 57, 91
4, 2880, Note_on_c, 1, 45, 91
4, 2976, Note_on_c, 1, 57, 0
4, 2976, Note_on_c, 1, 45, 0
4, 3072, Note_on_c, 1, 61, 75
4, 3161, Note_on_c, 1, 61, 0
4, 3168, Note_on_c, 1, 59, 75
4, 3257, Note_on_c, 1, 59, 0
4, 3264, Note_on_c, 1, 56, 75
4, 3353, Note_on_c, 1, 56, 0
4, 3360, Note_on_c, 1, 52, 75
4, 3449, Note_on_c, 1, 52, 0
4, 3456, Note_on_c, 1, 57, 75
4, 3545, Note_on_c, 1, 57, 0
4, 3552, Note_on_c, 1, 61, 75
4, 3641, Note_on_c, 1, 61, 0
4, 3648, Note_on_c, 1, 57, 75
4, 3737, Note_on_c, 1, 57, 0
4, 3744, Note_on_c, 1, 59, 75
4, 3833, Note_on_c, 1, 59, 0
4, 3840, Note_on_c, 1, 52, 75
4, 3929, Note_on_c, 1, 52, 0
4, 3936, Note_on_c, 1, 57, 75
4, 4025, Note_on_c, 1, 57, 0
4, 4224, Note_on_c, 1, 63, 75
4, 4313, Note_on_c, 1, 63, 0
4, 4320, Note_on_c, 1, 64, 75
4, 4409, Note_on_c, 1, 64, 0
4, 4416, Note_on_c, 1, 66, 75
4, 4505, Note_on_c, 1, 66, 0
4, 4512, Note_on_c, 1, 68, 75
4, 4601, Note_on_c, 1, 68, 0
4, 4800, Note_on_c, 1, 51, 70
4, 4889, Note_on_c, 1, 51, 0
4, 4896, Note_on_c, 1, 52, 72
4, 4985, Note_on_c, 1, 52, 0
4, 4992, Note_on_c, 1, 54, 75
4, 5081, Note_on_c, 1, 54, 0
4, 5088, Note_on_c, 1, 56, 77
4, 5177, Note_on_c, 1, 56, 0
4, 5184, Note_on_c, 1, 57, 80
4, 5273, Note_on_c, 1, 57, 0
4, 5280, Note_on_c, 1, 59, 80
4, 5369, Note_on_c, 1, 59, 0
4, 5376, Note_on_c, 1, 47, 80
4, 5465, Note_on_c, 1, 47, 0
4, 5472, Note_on_c, 1, 52, 80
4, 5561, Note_on_c, 1, 52, 0
4, 5568, Note_on_c, 1, 47, 80
4, 5657, Note_on_c, 1, 47, 0
4, 5664, Note_on_c, 1, 40, 80
4, 5753, Note_on_c, 1, 40, 0
4, 5760, Note_on_c, 1, 52, 91
4, 5760, Note_on_c, 1, 40, 91
4, 5952, Note_on_c, 1, 52, 0
4, 5952, Note_on_c, 1, 40, 0
4, 5952, Note_on_c, 1, 56, 75
4, 6041, Note_on_c, 1, 56, 0
4, 6048, Note_on_c, 1, 57, 75
4, 6137, Note_on_c, 1, 57, 0
4, 6144, Note_on_c, 1, 59, 75
4, 6233, Note_on_c, 1, 59, 0
4, 6240, Note_on_c, 1, 61, 75
4, 6329, Note_on_c, 1, 61, 0
4, 6432, Note_on_c, 1, 73, 75
4, 6521, Note_on_c, 1, 73, 0
4, 6528, Note_on_c, 1, 69, 75
4, 6617, Note_on_c, 1, 69, 0
4, 6624, Note_on_c, 1, 71, 75
4, 6713, Note_on_c, 1, 71, 0
4, 6720, Note_on_c, 1, 68, 75
4, 6809, Note_on_c, 1, 68, 0
4, 6816, Note_on_c, 1, 69, 75
4, 6905, Note_on_c, 1, 69, 0
4, 6912, Note_on_c, 1, 66, 75
4, 7177, Note_on_c, 1, 66, 0
4, 7200, Note_on_c, 1, 64, 80
4, 7289, Note_on_c, 1, 64, 0
4, 7296, Note_on_c, 1, 59, 78
4, 7385, Note_on_c, 1, 59, 0
4, 7392, Note_on_c, 1, 52, 76
4, 7481, Note_on_c, 1, 52, 0
4, 7488, Note_on_c, 1, 57, 91
4, 7488, Note_on_c, 1, 45, 91
4, 7584, Note_on_c, 1, 57, 0
4, 7584, Note_on_c, 1, 45, 0
4, 7680, Note_on_c, 1, 61, 75
4, 7769, Note_on_c, 1, 61, 0
4, 7776, Note_on_c, 1, 59, 75
4, 7865, Note_on_c, 1, 59, 0
4, 7872, Note_on_c, 1, 56, 75
4, 7961, Note_on_c, 1, 56, 0
4, 7968, Note_on_c, 1, 52, 75
4, 8057, Note_on_c, 1, 52, 0
4, 8064, Note_on_c, 1, 57, 75
4, 8153, Note_on_c, 1, 57, 0
4, 8160, Note_on_c, 1, 61, 75
4, 8249, Note_on_c, 1, 61, 0
4, 8256, Note_on_c, 1, 57, 75
4, 8345, Note_on_c, 1, 57, 0
4, 8352, Note_on_c, 1, 59, 75
4, 8441, Note_on_c, 1, 59, 0
4, 8448, Note_on_c, 1, 52, 75
4, 8537, Note_on_c, 1, 52, 0
4, 8544, Note_on_c, 1, 57, 75
4, 8633, Note_on_c, 1, 57, 0
4, 8640, Note_on_c, 1, 62, 91
4, 8640, Note_on_c, 1, 50, 91
4, 8832, Note_on_c, 1, 62, 0
4, 8832, Note_on_c, 1, 50, 0
4, 8928, Note_on_c, 1, 61, 75
4, 8928, Note_on_c, 1, 57, 75
4, 9105, Note_on_c, 1, 61, 0
4, 9105, Note_on_c, 1, 57, 0
4, 9216, Note_on_c, 1, 62, 75
4, 9216, Note_on_c, 1, 50, 75
4, 9305, Note_on_c, 1, 62, 0
4, 9305, Note_on_c, 1, 50, 0
4, 9312, Note_on_c, 1, 61, 75
4, 9312, Note_on_c, 1, 52, 75
4, 9401, Note_on_c, 1, 61, 0
4, 9401, Note_on_c, 1, 52, 0
4, 9408, Note_on_c, 1, 59, 75
4, 9408, Note_on_c, 1, 52, 75
4, 9497, Note_on_c, 1, 59, 0
4, 9497, Note_on_c, 1, 52, 0
4, 9504, Note_on_c, 1, 57, 75
4, 9593, Note_on_c, 1, 57, 0
4, 9600, Note_on_c, 1, 52, 75
4, 9689, Note_on_c, 1, 52, 0
4, 9696, Note_on_c, 1, 45, 75
4, 9785, Note_on_c, 1, 45, 0
4, 9792, Note_on_c, 1, 52, 91
4, 9792, Note_on_c, 1, 40, 91
4, 9984, Note_on_c, 1, 52, 0
4, 9984, Note_on_c, 1, 40, 0
4, 9984, Note_on_c, 1, 56, 75
4, 10073, Note_on_c, 1, 56, 0
4, 10080, Note_on_c, 1, 57, 75
4, 10169, Note_on_c, 1, 57, 0
4, 10176, Note_on_c, 1, 59, 75
4, 10265, Note_on_c, 1, 59, 0
4, 10272, Note_on_c, 1, 61, 75
4, 10361, Note_on_c, 1, 61, 0
4, 10464, Note_on_c, 1, 73, 75
4, 10553, Note_on_c, 1, 73, 0
4, 10560, Note_on_c, 1, 69, 75
4, 10649, Note_on_c, 1, 69, 0
4, 10656, Note_on_c, 1, 71, 75
4, 10745, Note_on_c, 1, 71, 0
4, 10752, Note_on_c, 1, 68, 75
4, 10841, Note_on_c, 1, 68, 0
4, 10848, Note_on_c, 1, 69, 75
4, 10937, Note_on_c, 1, 69, 0
4, 10944, Note_on_c, 1, 66, 75
4, 11209, Note_on_c, 1, 66, 0
4, 11232, Note_on_c, 1, 64, 80
4, 11321, Note_on_c, 1, 64, 0
4, 11328, Note_on_c, 1, 59, 78
4, 11417, Note_on_c, 1, 59, 0
4, 11424, Note_on_c, 1, 52, 76
4, 11513, Note_on_c, 1, 52, 0
4, 11520, Note_on_c, 1, 57, 91
4, 11520, Note_on_c, 1, 45, 91
4, 11616, Note_on_c, 1, 57, 0
4, 11616, Note_on_c, 1, 45, 0
4, 11712, Note_on_c, 1, 61, 75
4, 11801, Note_on_c, 1, 61, 0
4, 11808, Note_on_c, 1, 59, 75
4, 11897, Note_on_c, 1, 59, 0
4, 11904, Note_on_c, 1, 56, 75
4, 11993, Note_on_c, 1, 56, 0
4, 12000, Note_on_c, 1, 52, 75
4, 12089, Note_on_c, 1, 52, 0
4, 12096, Note_on_c, 1, 57, 75
4, 12185, Note_on_c, 1, 57, 0
4, 12192, Note_on_c, 1, 61, 75
4, 12281, Note_on_c, 1, 61, 0
4, 12288, Note_on_c, 1, 57, 75
4, 12377, Note_on_c, 1, 57, 0
4, 12384, Note_on_c, 1, 59, 75
4, 12473, Note_on_c, 1, 59, 0
4, 12480, Note_on_c, 1, 52, 75
4, 12569, Note_on_c, 1, 52, 0
4, 12576, Note_on_c, 1, 57, 75
4, 12665, Note_on_c, 1, 57, 0
4, 12672, Note_on_c, 1, 62, 91
4, 12672, Note_on_c, 1, 50, 91
4, 12864, Note_on_c, 1, 62, 0
4, 12864, Note_on_c, 1, 50, 0
4, 12960, Note_on_c, 1, 61, 75
4, 12960, Note_on_c, 1, 57, 75
4, 13137, Note_on_c, 1, 61, 0
4, 13137, Note_on_c, 1, 57, 0
4, 13248, Note_on_c, 1, 62, 75
4, 13248, Note_on_c, 1, 50, 75
4, 13337, Note_on_c, 1, 62, 0
4, 13337, Note_on_c, 1, 50, 0
4, 13344, Note_on_c, 1, 61, 75
4, 13344, Note_on_c, 1, 52, 75
4, 13433, Note_on_c, 1, 61, 0
4, 13433, Note_on_c, 1, 52, 0
4, 13440, Note_on_c, 1, 59, 75
4, 13440, Note_on_c, 1, 52, 75
4, 13529, Note_on_c, 1, 59, 0
4, 13529, Note_on_c, 1, 52, 0
4, 13536, Note_on_c, 1, 57, 75
4, 13625, Note_on_c, 1, 57, 0
4, 13632, Note_on_c, 1, 52, 75
4, 13721, Note_on_c, 1, 52, 0
4, 13728, Note_on_c, 1, 45, 75
4, 13817, Note_on_c, 1, 45, 0
4, 13920, Note_on_c, 1, 64, 64
4, 14009, Note_on_c, 1, 64, 0
4, 14016, Note_on_c, 1, 65, 64
4, 14201, Note_on_c, 1, 65, 0
4, 14208, Note_on_c, 1, 63, 64
4, 14304, Note_on_c, 1, 63, 0
4, 14304, Note_on_c, 1, 64, 64
4, 14393, Note_on_c, 1, 64, 0
4, 14496, Note_on_c, 1, 63, 64
4, 14585, Note_on_c, 1, 63, 0
4, 14592, Note_on_c, 1, 64, 64
4, 14777, Note_on_c, 1, 64, 0
4, 14784, Note_on_c, 1, 61, 64
4, 14880, Note_on_c, 1, 61, 0
4, 14880, Note_on_c, 1, 62, 64
4, 14969, Note_on_c, 1, 62, 0
4, 15072, Note_on_c, 1, 61, 64
4, 15168, Note_on_c, 1, 61, 0
4, 15168, Note_on_c, 1, 62, 64
4, 15257, Note_on_c, 1, 62, 0
4, 15360, Note_on_c, 1, 59, 64
4, 15456, Note_on_c, 1, 59, 0
4, 15456, Note_on_c, 1, 60, 64
4, 15545, Note_on_c, 1, 60, 0
4, 15648, Note_on_c, 1, 59, 64
4, 15737, Note_on_c, 1, 59, 0
4, 15744, Note_on_c, 1, 60, 65
4, 15929, Note_on_c, 1, 60, 0
4, 15936, Note_on_c, 1, 61, 68
4, 16025, Note_on_c, 1, 61, 0
4, 16032, Note_on_c, 1, 62, 69
4, 16217, Note_on_c, 1, 62, 0
4, 16224, Note_on_c, 1, 63, 72
4, 16313, Note_on_c, 1, 63, 0
4, 16320, Note_on_c, 1, 64, 74
4, 16505, Note_on_c, 1, 64, 0
4, 16512, Note_on_c, 1, 64, 77
4, 16601, Note_on_c, 1, 64, 0
4, 16608, Note_on_c, 1, 65, 78
4, 16793, Note_on_c, 1, 65, 0
4, 16800, Note_on_c, 1, 66, 80
4, 16889, Note_on_c, 1, 66, 0
4, 16896, Note_on_c, 1, 67, 80
4, 16985, Note_on_c, 1, 67, 0
4, 16992, Note_on_c, 1, 60, 80
4, 17081, Note_on_c, 1, 60, 0
4, 17088, Note_on_c, 1, 62, 80
4, 17177, Note_on_c, 1, 62, 0
4, 17184, Note_on_c, 1, 64, 80
4, 17273, Note_on_c, 1, 64, 0
4, 17280, Note_on_c, 1, 65, 80
4, 17280, Note_on_c, 1, 53, 80
4, 17369, Note_on_c, 1, 65, 0
4, 17369, Note_on_c, 1, 53, 0
4, 17376, Note_on_c, 1, 64, 80
4, 17376, Note_on_c, 1, 55, 80
4, 17465, Note_on_c, 1, 64, 0
4, 17465, Note_on_c, 1, 55, 0
4, 17472, Note_on_c, 1, 62, 80
4, 17472, Note_on_c, 1, 55, 80
4, 17561, Note_on_c, 1, 62, 0
4, 17561, Note_on_c, 1, 55, 0
4, 17568, Note_on_c, 1, 60, 80
4, 17657, Note_on_c, 1, 60, 0
4, 17664, Note_on_c, 1, 55, 80
4, 17753, Note_on_c, 1, 55, 0
4, 17760, Note_on_c, 1, 48, 80
4, 17849, Note_on_c, 1, 48, 0
4, 17952, Note_on_c, 1, 64, 64
4, 18041, Note_on_c, 1, 64, 0
4, 18048, Note_on_c, 1, 65, 64
4, 18233, Note_on_c, 1, 65, 0
4, 18240, Note_on_c, 1, 63, 64
4, 18336, Note_on_c, 1, 63, 0
4, 18336, Note_on_c, 1, 64, 64
4, 18425, Note_on_c, 1, 64, 0
4, 18528, Note_on_c, 1, 63, 64
4, 18617, Note_on_c, 1, 63, 0
4, 18624, Note_on_c, 1, 64, 64
4, 18809, Note_on_c, 1, 64, 0
4, 18816, Note_on_c, 1, 61, 64
4, 18912, Note_on_c, 1, 61, 0
4, 18912, Note_on_c, 1, 62, 64
4, 19001, Note_on_c, 1, 62, 0
4, 19104, Note_on_c, 1, 61, 64
4, 19200, Note_on_c, 1, 61, 0
4, 19200, Note_on_c, 1, 62, 64
4, 19289, Note_on_c, 1, 62, 0
4, 19392, Note_on_c, 1, 59, 64
4, 19488, Note_on_c, 1, 59, 0
4, 19488, Note_on_c, 1, 60, 64
4, 19577, Note_on_c, 1, 60, 0
4, 19680, Note_on_c, 1, 59, 64
4, 19769, Note_on_c, 1, 59, 0
4, 19776, Note_on_c, 1, 60, 65
4, 19961, Note_on_c, 1, 60, 0
4, 19968, Note_on_c, 1, 61, 68
4, 20057, Note_on_c, 1, 61, 0
4, 20064, Note_on_c, 1, 62, 69
4, 20249, Note_on_c, 1, 62, 0
4, 20256, Note_on_c, 1, 63, 72
4, 20345, Note_on_c, 1, 63, 0
4, 20352, Note_on_c, 1, 64, 74
4, 20537, Note_on_c, 1, 64, 0
4, 20544, Note_on_c, 1, 64, 77
4, 20633, Note_on_c, 1, 64, 0
4, 20640, Note_on_c, 1, 65, 78
4, 20825, Note_on_c, 1, 65, 0
4, 20832, Note_on_c, 1, 66, 80
4, 20921, Note_on_c, 1, 66, 0
4, 20928, Note_on_c, 1, 67, 80
4, 21017, Note_on_c, 1, 67, 0
4, 21024, Note_on_c, 1, 60, 80
4, 21113, Note_on_c, 1, 60, 0
4, 21120, Note_on_c, 1, 62, 80
4, 21209, Note_on_c, 1, 62, 0
4, 21216, Note_on_c, 1, 64, 80
4, 21305, Note_on_c, 1, 64, 0
4, 21312, Note_on_c, 1, 65, 80
4, 21312, Note_on_c, 1, 53, 80
4, 21401, Note_on_c, 1, 65, 0
4, 21401, Note_on_c, 1, 53, 0
4, 21408, Note_on_c, 1, 64, 80
4, 21408, Note_on_c, 1, 55, 80
4, 21497, Note_on_c, 1, 64, 0
4, 21497, Note_on_c, 1, 55, 0
4, 21504, Note_on_c, 1, 62, 80
4, 21504, Note_on_c, 1, 55, 80
4, 21593, Note_on_c, 1, 62, 0
4, 21593, Note_on_c, 1, 55, 0
4, 21600, Note_on_c, 1, 60, 80
4, 21689, Note_on_c, 1, 60, 0
4, 21696, Note_on_c, 1, 55, 80
4, 21785, Note_on_c, 1, 55, 0
4, 21792, Note_on_c, 1, 48, 80
4, 21881, Note_on_c, 1, 48, 0
4, 21888, Note_on_c, 1, 60, 75
4, 21977, Note_on_c, 1, 60, 0
4, 21984, Note_on_c, 1, 64, 75
4, 22073, Note_on_c, 1, 64, 0
4, 22080, Note_on_c, 1, 58, 75
4, 22169, Note_on_c, 1, 58, 0
4, 22176, Note_on_c, 1, 57, 75
4, 22265, Note_on_c, 1, 57, 0
4, 22272, Note_on_c, 1, 67, 75
4, 22361, Note_on_c, 1, 67, 0
4, 22368, Note_on_c, 1, 65, 75
4, 22457, Note_on_c, 1, 65, 0
4, 22464, Note_on_c, 1, 64, 75
4, 22553, Note_on_c, 1, 64, 0
4, 22560, Note_on_c, 1, 62, 75
4, 22649, Note_on_c, 1, 62, 0
4, 22656, Note_on_c, 1, 61, 75
4, 22745, Note_on_c, 1, 61, 0
4, 22752, Note_on_c, 1, 62, 75
4, 22841, Note_on_c, 1, 62, 0
4, 22848, Note_on_c, 1, 57, 75
4, 22937, Note_on_c, 1, 57, 0
4, 22944, Note_on_c, 1, 53, 75
4, 23033, Note_on_c, 1, 53, 0
4, 23136, Note_on_c, 1, 56, 75
4, 23232, Note_on_c, 1, 56, 0
4, 23232, Note_on_c, 1, 57, 75
4, 23321, Note_on_c, 1, 57, 0
4, 23424, Note_on_c, 1, 56, 76
4, 23520, Note_on_c, 1, 56, 0
4, 23520, Note_on_c, 1, 57, 77
4, 23609, Note_on_c, 1, 57, 0
4, 23712, Note_on_c, 1, 56, 78
4, 23808, Note_on_c, 1, 56, 0
4, 23808, Note_on_c, 1, 57, 79
4, 23897, Note_on_c, 1, 57, 0
4, 23904, Note_on_c, 1, 52, 80
4, 23993, Note_on_c, 1, 52, 0
4, 24000, Note_on_c, 1, 40, 64
4, 24089, Note_on_c, 1, 40, 0
4, 24288, Note_on_c, 1, 64, 64
4, 24377, Note_on_c, 1, 64, 0
4, 24384, Note_on_c, 1, 65, 64
4, 24569, Note_on_c, 1, 65, 0
4, 24576, Note_on_c, 1, 63, 64
4, 24672, Note_on_c, 1, 63, 0
4, 24672, Note_on_c, 1, 64, 64
4, 24761, Note_on_c, 1, 64, 0
4, 24864, Note_on_c, 1, 61, 64
4, 24960, Note_on_c, 1, 61, 0
4, 24960, Note_on_c, 1, 64, 64
4, 25049, Note_on_c, 1, 64, 0
4, 25152, Note_on_c, 1, 57, 64
4, 25241, Note_on_c, 1, 57, 0
4, 25248, Note_on_c, 1, 62, 64
4, 25337, Note_on_c, 1, 62, 0
4, 25440, Note_on_c, 1, 59, 64
4, 25529, Note_on_c, 1, 59, 0
4, 25536, Note_on_c, 1, 56, 64
4, 25625, Note_on_c, 1, 56, 0
4, 25632, Note_on_c, 1, 57, 64
4, 25721, Note_on_c, 1, 57, 0
4, 25728, Note_on_c, 1, 59, 64
4, 25817, Note_on_c, 1, 59, 0
4, 25824, Note_on_c, 1, 60, 64
4, 25913, Note_on_c, 1, 60, 0
4, 25920, Note_on_c, 1, 62, 64
4, 25920, Note_on_c, 1, 50, 64
4, 26009, Note_on_c, 1, 62, 0
4, 26009, Note_on_c, 1, 50, 0
4, 26016, Note_on_c, 1, 60, 64
4, 26016, Note_on_c, 1, 52, 64
4, 26105, Note_on_c, 1, 60, 0
4, 26105, Note_on_c, 1, 52, 0
4, 26112, Note_on_c, 1, 59, 64
4, 26112, Note_on_c, 1, 52, 64
4, 26201, Note_on_c, 1, 59, 0
4, 26201, Note_on_c, 1, 52, 0
4, 26208, Note_on_c, 1, 57, 64
4, 26297, Note_on_c, 1, 57, 0
4, 26304, Note_on_c, 1, 52, 64
4, 26393, Note_on_c, 1, 52, 0
4, 26400, Note_on_c, 1, 45, 64
4, 26489, Note_on_c, 1, 45, 0
4, 26496, Note_on_c, 1, 60, 75
4, 26585, Note_on_c, 1, 60, 0
4, 26592, Note_on_c, 1, 64, 75
4, 26681, Note_on_c, 1, 64, 0
4, 26688, Note_on_c, 1, 58, 75
4, 26777, Note_on_c, 1, 58, 0
4, 26784, Note_on_c, 1, 57, 75
4, 26873, Note_on_c, 1, 57, 0
4, 26880, Note_on_c, 1, 67, 75
4, 26969, Note_on_c, 1, 67, 0
4, 26976, Note_on_c, 1, 65, 75
4, 27065, Note_on_c, 1, 65, 0
4, 27072, Note_on_c, 1, 64, 75
4, 27161, Note_on_c, 1, 64, 0
4, 27168, Note_on_c, 1, 62, 75
4, 27257, Note_on_c, 1, 62, 0
4, 27264, Note_on_c, 1, 61, 75
4, 27353, Note_on_c, 1, 61, 0
4, 27360, Note_on_c, 1, 62, 75
4, 27449, Note_on_c, 1, 62, 0
4, 27456, Note_on_c, 1, 57, 75
4, 27545, Note_on_c, 1, 57, 0
4, 27552, Note_on_c, 1, 53, 75
4, 27641, Note_on_c, 1, 53, 0
4, 27744, Note_on_c, 1, 56, 75
4, 27840, Note_on_c, 1, 56, 0
4, 27840, Note_on_c, 1, 57, 75
4, 27929, Note_on_c, 1, 57, 0
4, 28032, Note_on_c, 1, 56, 76
4, 28128, Note_on_c, 1, 56, 0
4, 28128, Note_on_c, 1, 57, 77
4, 28217, Note_on_c, 1, 57, 0
4, 28320, Note_on_c, 1, 56, 78
4, 28416, Note_on_c, 1, 56, 0
4, 28416, Note_on_c, 1, 57, 79
4, 28505, Note_on_c, 1, 57, 0
4, 28512, Note_on_c, 1, 52, 80
4, 28601, Note_on_c, 1, 52, 0
4, 28608, Note_on_c, 1, 40, 64
4, 28697, Note_on_c, 1, 40, 0
4, 28896, Note_on_c, 1, 64, 64
4, 28985, Note_on_c, 1, 64, 0
4, 28992, Note_on_c, 1, 65, 64
4, 29177, Note_on_c, 1, 65, 0
4, 29184, Note_on_c, 1, 63, 64
4, 29280, Note_on_c, 1, 63, 0
4, 29280, Note_on_c, 1, 64, 64
4, 29369, Note_on_c, 1, 64, 0
4, 29472, Note_on_c, 1, 61, 64
4, 29568, Note_on_c, 1, 61, 0
4, 29568, Note_on_c, 1, 64, 64
4, 29657, Note_on_c, 1, 64, 0
4, 29760, Note_on_c, 1, 57, 64
4, 29849, Note_on_c, 1, 57, 0
4, 29856, Note_on_c, 1, 62, 64
4, 29945, Note_on_c, 1, 62, 0
4, 30048, Note_on_c, 1, 59, 64
4, 30137, Note_on_c, 1, 59, 0
4, 30144, Note_on_c, 1, 56, 64
4, 30233, Note_on_c, 1, 56, 0
4, 30240, Note_on_c, 1, 57, 64
4, 30329, Note_on_c, 1, 57, 0
4, 30336, Note_on_c, 1, 59, 64
4, 30425, Note_on_c, 1, 59, 0
4, 30432, Note_on_c, 1, 60, 64
4, 30521, Note_on_c, 1, 60, 0
4, 30528, Note_on_c, 1, 62, 64
4, 30528, Note_on_c, 1, 50, 64
4, 30617, Note_on_c, 1, 62, 0
4, 30617, Note_on_c, 1, 50, 0
4, 30624, Note_on_c, 1, 60, 64
4, 30624, Note_on_c, 1, 52, 64
4, 30713, Note_on_c, 1, 60, 0
4, 30713, Note_on_c, 1, 52, 0
4, 30720, Note_on_c, 1, 59, 64
4, 30720, Note_on_c, 1, 52, 64
4, 30809, Note_on_c, 1, 59, 0
4, 30809, Note_on_c, 1, 52, 0
4, 30816, Note_on_c, 1, 57, 64
4, 30905, Note_on_c, 1, 57, 0
4, 30912, Note_on_c, 1, 52, 64
4, 31001, Note_on_c, 1, 52, 0
4, 31008, Note_on_c, 1, 45, 64
4, 31097, Note_on_c, 1, 45, 0
4, 31104, Note_on_c, 1, 57, 91
4, 31104, Note_on_c, 1, 45, 91
4, 31200, Note_on_c, 1, 57, 0
4, 31200, Note_on_c, 1, 45, 0
4, 31296, Note_on_c, 1, 61, 75
4, 31385, Note_on_c, 1, 61, 0
4, 31392, Note_on_c, 1, 59, 75
4, 31481, Note_on_c, 1, 59, 0
4, 31488, Note_on_c, 1, 56, 75
4, 31577, Note_on_c, 1, 56, 0
4, 31584, Note_on_c, 1, 52, 75
4, 31673, Note_on_c, 1, 52, 0
4, 31680, Note_on_c, 1, 57, 75
4, 31769, Note_on_c, 1, 57, 0
4, 31776, Note_on_c, 1, 61, 75
4, 31865, Note_on_c, 1, 61, 0
4, 31872, Note_on_c, 1, 57, 75
4, 31961, Note_on_c, 1, 57, 0
4, 31968, Note_on_c, 1, 59, 75
4, 32057, Note_on_c, 1, 59, 0
4, 32064, Note_on_c, 1, 52, 75
4, 32153, Note_on_c, 1, 52, 0
4, 32160, Note_on_c, 1, 57, 75
4, 32249, Note_on_c, 1, 57, 0
4, 32448, Note_on_c, 1, 63, 75
4, 32537, Note_on_c, 1, 63, 0
4, 32544, Note_on_c, 1, 64, 75
4, 32633, Note_on_c, 1, 64, 0
4, 32640, Note_on_c, 1, 66, 75
4, 32729, Note_on_c, 1, 66, 0
4, 32736, Note_on_c, 1, 68, 75
4, 32825, Note_on_c, 1, 68, 0
4, 33024, Note_on_c, 1, 51, 70
4, 33113, Note_on_c, 1, 51, 0
4, 33120, Note_on_c, 1, 52, 72
4, 33209, Note_on_c, 1, 52, 0
4, 33216, Note_on_c, 1, 54, 75
4, 33305, Note_on_c, 1, 54, 0
4, 33312, Note_on_c, 1, 56, 77
4, 33401, Note_on_c, 1, 56, 0
4, 33408, Note_on_c, 1, 57, 80
4, 33497, Note_on_c, 1, 57, 0
4, 33504, Note_on_c, 1, 59, 80
4, 33593, Note_on_c, 1, 59, 0
4, 33600, Note_on_c, 1, 47, 80
4, 33689, Note_on_c, 1, 47, 0
4, 33696, Note_on_c, 1, 52, 80
4, 33785, Note_on_c, 1, 52, 0
4, 33792, Note_on_c, 1, 47, 80
4, 33881, Note_on_c, 1, 47, 0
4, 33888, Note_on_c, 1, 40, 80
4, 33977, Note_on_c, 1, 40, 0
4, 33984, Note_on_c, 1, 57, 91
4, 33984, Note_on_c, 1, 45, 91
4, 34080, Note_on_c, 1, 57, 0
4, 34080, Note_on_c, 1, 45, 0
4, 34176, Note_on_c, 1, 61, 75
4, 34265, Note_on_c, 1, 61, 0
4, 34272, Note_on_c, 1, 59, 75
4, 34361, Note_on_c, 1, 59, 0
4, 34368, Note_on_c, 1, 56, 75
4, 34457, Note_on_c, 1, 56, 0
4, 34464, Note_on_c, 1, 52, 75
4, 34553, Note_on_c, 1, 52, 0
4, 34560, Note_on_c, 1, 57, 75
4, 34649, Note_on_c, 1, 57, 0
4, 34656, Note_on_c, 1, 61, 75
4, 34745, Note_on_c, 1, 61, 0
4, 34752, Note_on_c, 1, 57, 75
4, 34841, Note_on_c, 1, 57, 0
4, 34848, Note_on_c, 1, 59, 75
4, 34937, Note_on_c, 1, 59, 0
4, 34944, Note_on_c, 1, 52, 75
4, 35033, Note_on_c, 1, 52, 0
4, 35040, Note_on_c, 1, 57, 75
4, 35129, Note_on_c, 1, 57, 0
4, 35328, Note_on_c, 1, 63, 75
4, 35417, Note_on_c, 1, 63, 0
4, 35424, Note_on_c, 1, 64, 75
4, 35513, Note_on_c, 1, 64, 0
4, 35520, Note_on_c, 1, 66, 75
4, 35609, Note_on_c, 1, 66, 0
4, 35616, Note_on_c, 1, 68, 75
4, 35705, Note_on_c, 1, 68, 0
4, 35904, Note_on_c, 1, 51, 70
4, 35993, Note_on_c, 1, 51, 0
4, 36000, Note_on_c, 1, 52, 72
4, 36089, Note_on_c, 1, 52, 0
4, 36096, Note_on_c, 1, 54, 75
4, 36185, Note_on_c, 1, 54, 0
4, 36192, Note_on_c, 1, 56, 77
4, 36281, Note_on_c, 1, 56, 0
4, 36288, Note_on_c, 1, 57, 80
4, 36377, Note_on_c, 1, 57, 0
4, 36384, Note_on_c, 1, 59, 80
4, 36473, Note_on_c, 1, 59, 0
4, 36480, Note_on_c, 1, 47, 80
4, 36569, Note_on_c, 1, 47, 0
4, 36576, Note_on_c, 1, 52, 80
4, 36665, Note_on_c, 1, 52, 0
4, 36672, Note_on_c, 1, 47, 80
4, 36761, Note_on_c, 1, 47, 0
4, 36768, Note_on_c, 1, 40, 80
4, 36857, Note_on_c, 1, 40, 0
4, 36864, Note_on_c, 1, 52, 91
4, 36864, Note_on_c, 1, 40, 91
4, 37056, Note_on_c, 1, 52, 0
4, 37056, Note_on_c, 1, 40, 0
4, 37056, Note_on_c, 1, 56, 75
4, 37145, Note_on_c, 1, 56, 0
4, 37152, Note_on_c, 1, 57, 75
4, 37241, Note_on_c, 1, 57, 0
4, 37248, Note_on_c, 1, 59, 75
4, 37337, Note_on_c, 1, 59, 0
4, 37344, Note_on_c, 1, 61, 75
4, 37433, Note_on_c, 1, 61, 0
4, 37536, Note_on_c, 1, 73, 75
4, 37625, Note_on_c, 1, 73, 0
4, 37632, Note_on_c, 1, 69, 75
4, 37721, Note_on_c, 1, 69, 0
4, 37728, Note_on_c, 1, 71, 75
4, 37817, Note_on_c, 1, 71, 0
4, 37824, Note_on_c, 1, 68, 75
4, 37913, Note_on_c, 1, 68, 0
4, 37920, Note_on_c, 1, 69, 75
4, 38009, Note_on_c, 1, 69, 0
4, 38016, Note_on_c, 1, 66, 75
4, 38281, Note_on_c, 1, 66, 0
4, 38304, Note_on_c, 1, 64, 80
4, 38393, Note_on_c, 1, 64, 0
4, 38400, Note_on_c, 1, 59, 78
4, 38489, Note_on_c, 1, 59, 0
4, 38496, Note_on_c, 1, 52, 76
4, 38585, Note_on_c, 1, 52, 0
4, 38592, Note_on_c, 1, 57, 91
4, 38592, Note_on_c, 1, 45, 91
4, 38688, Note_on_c, 1, 57, 0
4, 38688, Note_on_c, 1, 45, 0
4, 38784, Note_on_c, 1, 61, 75
4, 38873, Note_on_c, 1, 61, 0
4, 38880, Note_on_c, 1, 59, 75
4, 38969, Note_on_c, 1, 59, 0
4, 38976, Note_on_c, 1, 56, 75
4, 39065, Note_on_c, 1, 56, 0
4, 39072, Note_on_c, 1, 52, 75
4, 39161, Note_on_c, 1, 52, 0
4, 39168, Note_on_c, 1, 57, 75
4, 39257, Note_on_c, 1, 57, 0
4, 39264, Note_on_c, 1, 61, 75
4, 39353, Note_on_c, 1, 61, 0
4, 39360, Note_on_c, 1, 57, 75
4, 39449, Note_on_c, 1, 57, 0
4, 39456, Note_on_c, 1, 59, 75
4, 39545, Note_on_c, 1, 59, 0
4, 39552, Note_on_c, 1, 52, 75
4, 39641, Note_on_c, 1, 52, 0
4, 39648, Note_on_c, 1, 57, 75
4, 39737, Note_on_c, 1, 57, 0
4, 39744, Note_on_c, 1, 62, 91
4, 39744, Note_on_c, 1, 50, 91
4, 39936, Note_on_c, 1, 62, 0
4, 39936, Note_on_c, 1, 50, 0
4, 40032, Note_on_c, 1, 61, 75
4, 40032, Note_on_c, 1, 57, 75
4, 40209, Note_on_c, 1, 61, 0
4, 40209, Note_on_c, 1, 57, 0
4, 40320, Note_on_c, 1, 62, 75
4, 40320, Note_on_c, 1, 50, 75
4, 40409, Note_on_c, 1, 62, 0
4, 40409, Note_on_c, 1, 50, 0
4, 40416, Note_on_c, 1, 61, 75
4, 40416, Note_on_c, 1, 52, 75
4, 40505, Note_on_c, 1, 61, 0
4, 40505, Note_on_c, 1, 52, 0
4, 40512, Note_on_c, 1, 59, 75
4, 40512, Note_on_c, 1, 52, 75
4, 40601, Note_on_c, 1, 59, 0
4, 40601, Note_on_c, 1, 52, 0
4, 40608, Note_on_c, 1, 57, 75
4, 40697, Note_on_c, 1, 57, 0
4, 40704, Note_on_c, 1, 52, 75
4, 40793, Note_on_c, 1, 52, 0
4, 40800, Note_on_c, 1, 45, 75
4, 40889, Note_on_c, 1, 45, 0
4, 40896, Note_on_c, 1, 52, 91
4, 40896, Note_on_c, 1, 40, 91
4, 41088, Note_on_c, 1, 52, 0
4, 41088, Note_on_c, 1, 40, 0
4, 41088, Note_on_c, 1, 56, 75
4, 41177, Note_on_c, 1, 56, 0
4, 41184, Note_on_c, 1, 57, 75
4, 41273, Note_on_c, 1, 57, 0
4, 41280, Note_on_c, 1, 59, 75
4, 41369, Note_on_c, 1, 59, 0
4, 41376, Note_on_c, 1, 61, 75
4, 41465, Note_on_c, 1, 61, 0
4, 41568, Note_on_c, 1, 73, 75
4, 41657, Note_on_c, 1, 73, 0
4, 41664, Note_on_c, 1, 69, 75
4, 41753, Note_on_c, 1, 69, 0
4, 41760, Note_on_c, 1, 71, 75
4, 41849, Note_on_c, 1, 71, 0
4, 41856, Note_on_c, 1, 68, 75
4, 41945, Note_on_c, 1, 68, 0
4, 41952, Note_on_c, 1, 69, 75
4, 42041, Note_on_c, 1, 69, 0
4, 42048, Note_on_c, 1, 66, 75
4, 42313, Note_on_c, 1, 66, 0
4, 42336, Note_on_c, 1, 64, 80
4, 42425, Note_on_c, 1, 64, 0
4, 42432, Note_on_c, 1, 59, 78
4, 42521, Note_on_c, 1, 59, 0
4, 42528, Note_on_c, 1, 52, 76
4, 42617, Note_on_c, 1, 52, 0
4, 42624, Note_on_c, 1, 57, 91
4, 42624, Note_on_c, 1, 45, 91
4, 42720, Note_on_c, 1, 57, 0
4, 42720, Note_on_c, 1, 45, 0
4, 42816, Note_on_c, 1, 61, 75
4, 42905, Note_on_c, 1, 61, 0
4, 42912, Note_on_c, 1, 59, 75
4, 43001, Note_on_c, 1, 59, 0
4, 43008, Note_on_c, 1, 56, 75
4, 43097, Note_on_c, 1, 56, 0
4, 43104, Note_on_c, 1, 52, 75
4, 43193, Note_on_c, 1, 52, 0
4, 43200, Note_on_c, 1, 57, 75
4, 43289, Note_on_c, 1, 57, 0
4, 43296, Note_on_c, 1, 61, 75
4, 43385, Note_on_c, 1, 61, 0
4, 43392, Note_on_c, 1, 57, 75
4, 43481, Note_on_c, 1, 57, 0
4, 43488, Note_on_c, 1, 59, 75
4, 43577, Note_on_c, 1, 59, 0
4, 43584, Note_on_c, 1, 52, 75
4, 43673, Note_on_c, 1, 52, 0
4, 43680, Note_on_c, 1, 57, 75
4, 43769, Note_on_c, 1, 57, 0
4, 43776, Note_on_c, 1, 62, 91
4, 43776, Note_on_c, 1, 50, 91
4, 43968, Note_on_c, 1, 62, 0
4, 43968, Note_on_c, 1, 50, 0
4, 44064, Note_on_c, 1, 61, 75
4, 44064, Note_on_c, 1, 57, 75
4, 44241, Note_on_c, 1, 61, 0
4, 44241, Note_on_c, 1, 57, 0
4, 44352, Note_on_c, 1, 62, 75
4, 44352, Note_on_c, 1, 50, 75
4, 44441, Note_on_c, 1, 62, 0
4, 44441, Note_on_c, 1, 50, 0
4, 44448, Note_on_c, 1, 61, 75
4, 44448, Note_on_c, 1, 52, 75
4, 44537, Note_on_c, 1, 61, 0
4, 44537, Note_on_c, 1, 52, 0
4, 44544, Note_on_c, 1, 59, 75
4, 44544, Note_on_c, 1, 52, 75
4, 44633, Note_on_c, 1, 59, 0
4, 44633, Note_on_c, 1, 52, 0
4, 44640, Note_on_c, 1, 57, 75
4, 44729, Note_on_c, 1, 57, 0
4, 44736, Note_on_c, 1, 52, 75
4, 44825, Note_on_c, 1, 52, 0
4, 44832, Note_on_c, 1, 45, 75
4, 44921, Note_on_c, 1, 45, 0
4, 44928, Note_on_c, 1, 45, 0
4, 45017, Note_on_c, 1, 45, 0
4, 45024, End_track
5, 0, Start_track
5, 0, Program_c, 1, 0
5, 0, Control_c, 1, 7, 127
5, 0, Control_c, 1, 10, 64
5, 6912, Note_on_c, 1, 62, 75
5, 7104, Note_on_c, 1, 62, 0
5, 7104, Note_on_c, 1, 63, 78
5, 7193, Note_on_c, 1, 63, 0
5, 10944, Note_on_c, 1, 62, 75
5, 11136, Note_on_c, 1, 62, 0
5, 11136, Note_on_c, 1, 63, 78
5, 11225, Note_on_c, 1, 63, 0
5, 13824, Note_on_c, 1, 57, 64
5, 14089, Note_on_c, 1, 57, 0
5, 14112, Note_on_c, 1, 56, 64
5, 14377, Note_on_c, 1, 56, 0
5, 14400, Note_on_c, 1, 55, 64
5, 14665, Note_on_c, 1, 55, 0
5, 14688, Note_on_c, 1, 54, 64
5, 14953, Note_on_c, 1, 54, 0
5, 14976, Note_on_c, 1, 53, 64
5, 15241, Note_on_c, 1, 53, 0
5, 15264, Note_on_c, 1, 52, 64
5, 15529, Note_on_c, 1, 52, 0
5, 15552, Note_on_c, 1, 52, 64
5, 15817, Note_on_c, 1, 52, 0
5, 15840, Note_on_c, 1, 53, 64
5, 16105, Note_on_c, 1, 53, 0
5, 16128, Note_on_c, 1, 55, 69
5, 16393, Note_on_c, 1, 55, 0
5, 16416, Note_on_c, 1, 57, 74
5, 16681, Note_on_c, 1, 57, 0
5, 16704, Note_on_c, 1, 59, 80
5, 16969, Note_on_c, 1, 59, 0
5, 17856, Note_on_c, 1, 57, 64
5, 18121, Note_on_c, 1, 57, 0
5, 18144, Note_on_c, 1, 56, 64
5, 18409, Note_on_c, 1, 56, 0
5, 18432, Note_on_c, 1, 55, 64
5, 18697, Note_on_c, 1, 55, 0
5, 18720, Note_on_c, 1, 54, 64
5, 18985, Note_on_c, 1, 54, 0
5, 19008, Note_on_c, 1, 53, 64
5, 19273, Note_on_c, 1, 53, 0
5, 19296, Note_on_c, 1, 52, 64
5, 19561, Note_on_c, 1, 52, 0
5, 19584, Note_on_c, 1, 52, 64
5, 19849, Note_on_c, 1, 52, 0
5, 19872, Note_on_c, 1, 53, 64
5, 20137, Note_on_c, 1, 53, 0
5, 20160, Note_on_c, 1, 55, 69
5, 20425, Note_on_c, 1, 55, 0
5, 20448, Note_on_c, 1, 57, 74
5, 20713, Note_on_c, 1, 57, 0
5, 20736, Note_on_c, 1, 59, 80
5, 21001, Note_on_c, 1, 59, 0
5, 23040, Note_on_c, 1, 50, 75
5, 23305, Note_on_c, 1, 50, 0
5, 23328, Note_on_c, 1, 48, 75
5, 23593, Note_on_c, 1, 48, 0
5, 23616, Note_on_c, 1, 47, 77
5, 23793, Note_on_c, 1, 47, 0
5, 23808, Note_on_c, 1, 45, 79
5, 23897, Note_on_c, 1, 45, 0
5, 24192, Note_on_c, 1, 57, 64
5, 24457, Note_on_c, 1, 57, 0
5, 24480, Note_on_c, 1, 56, 64
5, 24745, Note_on_c, 1, 56, 0
5, 24768, Note_on_c, 1, 55, 64
5, 25033, Note_on_c, 1, 55, 0
5, 25056, Note_on_c, 1, 53, 64
5, 25321, Note_on_c, 1, 53, 0
5, 25344, Note_on_c, 1, 52, 64
5, 25609, Note_on_c, 1, 52, 0
5, 27648, Note_on_c, 1, 50, 75
5, 27913, Note_on_c, 1, 50, 0
5, 27936, Note_on_c, 1, 48, 75
5, 28201, Note_on_c, 1, 48, 0
5, 28224, Note_on_c, 1, 47, 77
5, 28401, Note_on_c, 1, 47, 0
5, 28416, Note_on_c, 1, 45, 79
5, 28505, Note_on_c, 1, 45, 0
5, 28800, Note_on_c, 1, 57, 64
5, 29065, Note_on_c, 1, 57, 0
5, 29088, Note_on_c, 1, 56, 64
5, 29353, Note_on_c, 1, 56, 0
5, 29376, Note_on_c, 1, 55, 64
5, 29641, Note_on_c, 1, 55, 0
5, 29664, Note_on_c, 1, 53, 64
5, 29929, Note_on_c, 1, 53, 0
5, 29952, Note_on_c, 1, 52, 64
5, 30217, Note_on_c, 1, 52, 0
5, 38016, Note_on_c, 1, 62, 64
5, 38208, Note_on_c, 1, 62, 0
5, 38208, Note_on_c, 1, 63, 71
5, 38297, Note_on_c, 1, 63, 0
5, 42048, Note_on_c, 1, 62, 64
5, 42240, Note_on_c, 1, 62, 0
5, 42240, Note_on_c, 1, 63, 71
5, 42329, Note_on_c, 1, 63, 0
5, 44928, End_track
6, 0, Start_track
6, 0, Title_t, "Sonata I   Haydn  "
6, 0, End_track
0, 0, End_of_file
