0, 0, Header, 1, 5, 96
1, 0, Start_track
1, 0, Copyright_t, "Copyright  1994-2002 Mozart Music Software"
1, 0, Sequencer_specific, 16, 68, 87, 77, 90, 86, 82, 83, 78, 32, 55, 46, 48, 46, 55, 46, 48
1, 0, Time_signature, 2, 2, 24, 8
1, 0, Tempo, 571428
1, 0, Key_signature, 1, "major"
1, 31104, End_track
2, 0, Start_track
2, 0, Program_c, 0, 0
2, 0, Control_c, 0, 7, 127
2, 0, Control_c, 0, 10, 64
2, 144, Note_on_c, 0, 74, 69
2, 156, Note_on_c, 0, 74, 0
2, 156, Note_on_c, 0, 72, 69
2, 168, Note_on_c, 0, 72, 0
2, 168, Note_on_c, 0, 71, 69
2, 180, Note_on_c, 0, 71, 0
2, 180, Note_on_c, 0, 69, 69
2, 192, Note_on_c, 0, 69, 0
2, 192, Note_on_c, 0, 67, 69
2, 212, Note_on_c, 0, 67, 0
2, 240, Note_on_c, 0, 79, 69
2, 240, Note_on_c, 0, 76, 69
2, 285, Note_on_c, 0, 79, 0
2, 285, Note_on_c, 0, 76, 0
2, 288, Note_on_c, 0, 78, 69
2, 288, Note_on_c, 0, 74, 69
2, 333, Note_on_c, 0, 78, 0
2, 333, Note_on_c, 0, 74, 0
2, 336, Note_on_c, 0, 76, 69
2, 336, Note_on_c, 0, 72, 69
2, 381, Note_on_c, 0, 76, 0
2, 381, Note_on_c, 0, 72, 0
2, 384, Note_on_c, 0, 74, 69
2, 384, Note_on_c, 0, 71, 69
2, 517, Note_on_c, 0, 74, 0
2, 517, Note_on_c, 0, 71, 0
2, 528, Note_on_c, 0, 76, 69
2, 543, Note_on_c, 0, 76, 0
2, 544, Note_on_c, 0, 74, 69
2, 559, Note_on_c, 0, 74, 0
2, 560, Note_on_c, 0, 72, 69
2, 575, Note_on_c, 0, 72, 0
2, 576, Note_on_c, 0, 71, 69
2, 709, Note_on_c, 0, 71, 0
2, 720, Note_on_c, 0, 71, 69
2, 732, Note_on_c, 0, 71, 0
2, 732, Note_on_c, 0, 69, 69
2, 744, Note_on_c, 0, 69, 0
2, 744, Note_on_c, 0, 67, 69
2, 756, Note_on_c, 0, 67, 0
2, 756, Note_on_c, 0, 66, 69
2, 768, Note_on_c, 0, 66, 0
2, 768, Note_on_c, 0, 64, 69
2, 788, Note_on_c, 0, 64, 0
2, 816, Note_on_c, 0, 76, 69
2, 816, Note_on_c, 0, 72, 69
2, 861, Note_on_c, 0, 76, 0
2, 861, Note_on_c, 0, 72, 0
2, 864, Note_on_c, 0, 74, 69
2, 864, Note_on_c, 0, 71, 69
2, 909, Note_on_c, 0, 74, 0
2, 909, Note_on_c, 0, 71, 0
2, 912, Note_on_c, 0, 72, 69
2, 912, Note_on_c, 0, 69, 69
2, 957, Note_on_c, 0, 72, 0
2, 957, Note_on_c, 0, 69, 0
2, 960, Note_on_c, 0, 72, 69
2, 960, Note_on_c, 0, 69, 69
2, 1056, Note_on_c, 0, 72, 0
2, 1056, Note_on_c, 0, 69, 0
2, 1056, Note_on_c, 0, 71, 69
2, 1056, Note_on_c, 0, 67, 69
2, 1104, Note_on_c, 0, 67, 0
2, 1116, Note_on_c, 0, 71, 0
2, 1116, Note_on_c, 0, 69, 69
2, 1128, Note_on_c, 0, 69, 0
2, 1128, Note_on_c, 0, 67, 69
2, 1140, Note_on_c, 0, 67, 0
2, 1140, Note_on_c, 0, 66, 69
2, 1152, Note_on_c, 0, 66, 0
2, 1152, Note_on_c, 0, 64, 69
2, 1172, Note_on_c, 0, 64, 0
2, 1200, Note_on_c, 0, 76, 69
2, 1200, Note_on_c, 0, 72, 69
2, 1245, Note_on_c, 0, 76, 0
2, 1245, Note_on_c, 0, 72, 0
2, 1248, Note_on_c, 0, 74, 69
2, 1248, Note_on_c, 0, 71, 69
2, 1293, Note_on_c, 0, 74, 0
2, 1293, Note_on_c, 0, 71, 0
2, 1296, Note_on_c, 0, 66, 69
2, 1296, Note_on_c, 0, 60, 69
2, 1341, Note_on_c, 0, 66, 0
2, 1341, Note_on_c, 0, 60, 0
2, 1344, Note_on_c, 0, 67, 69
2, 1344, Note_on_c, 0, 59, 69
2, 1433, Note_on_c, 0, 67, 0
2, 1433, Note_on_c, 0, 59, 0
2, 1488, Note_on_c, 0, 74, 69
2, 1500, Note_on_c, 0, 74, 0
2, 1500, Note_on_c, 0, 72, 69
2, 1512, Note_on_c, 0, 72, 0
2, 1512, Note_on_c, 0, 71, 69
2, 1524, Note_on_c, 0, 71, 0
2, 1524, Note_on_c, 0, 69, 69
2, 1536, Note_on_c, 0, 69, 0
2, 1536, Note_on_c, 0, 67, 69
2, 1556, Note_on_c, 0, 67, 0
2, 1584, Note_on_c, 0, 79, 69
2, 1584, Note_on_c, 0, 76, 69
2, 1629, Note_on_c, 0, 79, 0
2, 1629, Note_on_c, 0, 76, 0
2, 1632, Note_on_c, 0, 78, 69
2, 1632, Note_on_c, 0, 74, 69
2, 1677, Note_on_c, 0, 78, 0
2, 1677, Note_on_c, 0, 74, 0
2, 1680, Note_on_c, 0, 76, 69
2, 1680, Note_on_c, 0, 72, 69
2, 1725, Note_on_c, 0, 76, 0
2, 1725, Note_on_c, 0, 72, 0
2, 1728, Note_on_c, 0, 74, 69
2, 1728, Note_on_c, 0, 71, 69
2, 1861, Note_on_c, 0, 74, 0
2, 1861, Note_on_c, 0, 71, 0
2, 1872, Note_on_c, 0, 74, 69
2, 1887, Note_on_c, 0, 74, 0
2, 1888, Note_on_c, 0, 79, 69
2, 1903, Note_on_c, 0, 79, 0
2, 1904, Note_on_c, 0, 83, 69
2, 1919, Note_on_c, 0, 83, 0
2, 1920, Note_on_c, 0, 81, 69
2, 2053, Note_on_c, 0, 81, 0
2, 2064, Note_on_c, 0, 79, 69
2, 2076, Note_on_c, 0, 79, 0
2, 2076, Note_on_c, 0, 78, 69
2, 2088, Note_on_c, 0, 78, 0
2, 2088, Note_on_c, 0, 76, 69
2, 2100, Note_on_c, 0, 76, 0
2, 2100, Note_on_c, 0, 74, 69
2, 2112, Note_on_c, 0, 74, 0
2, 2112, Note_on_c, 0, 73, 69
2, 2132, Note_on_c, 0, 73, 0
2, 2160, Note_on_c, 0, 79, 85
2, 2160, Note_on_c, 0, 76, 85
2, 2256, Note_on_c, 0, 79, 0
2, 2256, Note_on_c, 0, 76, 0
2, 2256, Note_on_c, 0, 78, 69
2, 2256, Note_on_c, 0, 74, 69
2, 2301, Note_on_c, 0, 78, 0
2, 2301, Note_on_c, 0, 74, 0
2, 2304, Note_on_c, 0, 78, 69
2, 2304, Note_on_c, 0, 74, 69
2, 2352, Note_on_c, 0, 78, 0
2, 2352, Note_on_c, 0, 74, 0
2, 2352, Note_on_c, 0, 76, 69
2, 2352, Note_on_c, 0, 73, 69
2, 2397, Note_on_c, 0, 76, 0
2, 2397, Note_on_c, 0, 73, 0
2, 2448, Note_on_c, 0, 69, 69
2, 2460, Note_on_c, 0, 69, 0
2, 2460, Note_on_c, 0, 67, 69
2, 2472, Note_on_c, 0, 67, 0
2, 2472, Note_on_c, 0, 66, 69
2, 2484, Note_on_c, 0, 66, 0
2, 2484, Note_on_c, 0, 64, 69
2, 2496, Note_on_c, 0, 64, 0
2, 2496, Note_on_c, 0, 62, 69
2, 2516, Note_on_c, 0, 62, 0
2, 2544, Note_on_c, 0, 74, 69
2, 2567, Note_on_c, 0, 74, 0
2, 2568, Note_on_c, 0, 62, 69
2, 2591, Note_on_c, 0, 62, 0
2, 2592, Note_on_c, 0, 73, 69
2, 2615, Note_on_c, 0, 73, 0
2, 2616, Note_on_c, 0, 62, 69
2, 2639, Note_on_c, 0, 62, 0
2, 2640, Note_on_c, 0, 71, 69
2, 2663, Note_on_c, 0, 71, 0
2, 2664, Note_on_c, 0, 62, 69
2, 2687, Note_on_c, 0, 62, 0
2, 2688, Note_on_c, 0, 69, 69
2, 2711, Note_on_c, 0, 69, 0
2, 2712, Note_on_c, 0, 62, 69
2, 2735, Note_on_c, 0, 62, 0
2, 2736, Note_on_c, 0, 67, 69
2, 2759, Note_on_c, 0, 67, 0
2, 2760, Note_on_c, 0, 62, 69
2, 2783, Note_on_c, 0, 62, 0
2, 2784, Note_on_c, 0, 66, 69
2, 2804, Note_on_c, 0, 66, 0
2, 2832, Note_on_c, 0, 69, 69
2, 2844, Note_on_c, 0, 69, 0
2, 2844, Note_on_c, 0, 67, 69
2, 2856, Note_on_c, 0, 67, 0
2, 2856, Note_on_c, 0, 66, 69
2, 2868, Note_on_c, 0, 66, 0
2, 2868, Note_on_c, 0, 64, 69
2, 2880, Note_on_c, 0, 64, 0
2, 2880, Note_on_c, 0, 62, 69
2, 2900, Note_on_c, 0, 62, 0
2, 2928, Note_on_c, 0, 74, 69
2, 2951, Note_on_c, 0, 74, 0
2, 2952, Note_on_c, 0, 62, 69
2, 2975, Note_on_c, 0, 62, 0
2, 2976, Note_on_c, 0, 73, 69
2, 2999, Note_on_c, 0, 73, 0
2, 3000, Note_on_c, 0, 62, 69
2, 3023, Note_on_c, 0, 62, 0
2, 3024, Note_on_c, 0, 71, 69
2, 3047, Note_on_c, 0, 71, 0
2, 3048, Note_on_c, 0, 62, 69
2, 3071, Note_on_c, 0, 62, 0
2, 3072, Note_on_c, 0, 69, 69
2, 3095, Note_on_c, 0, 69, 0
2, 3096, Note_on_c, 0, 62, 69
2, 3119, Note_on_c, 0, 62, 0
2, 3120, Note_on_c, 0, 67, 69
2, 3143, Note_on_c, 0, 67, 0
2, 3144, Note_on_c, 0, 62, 69
2, 3167, Note_on_c, 0, 62, 0
2, 3168, Note_on_c, 0, 66, 69
2, 3216, Note_on_c, 0, 66, 0
2, 3216, Note_on_c, 0, 69, 69
2, 3261, Note_on_c, 0, 69, 0
2, 3264, Note_on_c, 0, 67, 69
2, 3312, Note_on_c, 0, 67, 0
2, 3312, Note_on_c, 0, 64, 69
2, 3357, Note_on_c, 0, 64, 0
2, 3408, Note_on_c, 0, 79, 69
2, 3408, Note_on_c, 0, 76, 69
2, 3428, Note_on_c, 0, 79, 0
2, 3428, Note_on_c, 0, 76, 0
2, 3456, Note_on_c, 0, 78, 69
2, 3504, Note_on_c, 0, 78, 0
2, 3504, Note_on_c, 0, 81, 69
2, 3549, Note_on_c, 0, 81, 0
2, 3600, Note_on_c, 0, 69, 69
2, 3620, Note_on_c, 0, 69, 0
2, 3648, Note_on_c, 0, 67, 69
2, 3696, Note_on_c, 0, 67, 0
2, 3696, Note_on_c, 0, 64, 69
2, 3741, Note_on_c, 0, 64, 0
2, 3792, Note_on_c, 0, 79, 69
2, 3792, Note_on_c, 0, 76, 69
2, 3812, Note_on_c, 0, 79, 0
2, 3812, Note_on_c, 0, 76, 0
2, 3840, Note_on_c, 0, 78, 69
2, 3888, Note_on_c, 0, 78, 0
2, 3888, Note_on_c, 0, 81, 69
2, 3933, Note_on_c, 0, 81, 0
2, 3984, Note_on_c, 0, 69, 69
2, 4004, Note_on_c, 0, 69, 0
2, 4032, Note_on_c, 0, 67, 69
2, 4080, Note_on_c, 0, 67, 0
2, 4080, Note_on_c, 0, 64, 69
2, 4125, Note_on_c, 0, 64, 0
2, 4176, Note_on_c, 0, 79, 69
2, 4176, Note_on_c, 0, 76, 69
2, 4224, Note_on_c, 0, 79, 0
2, 4224, Note_on_c, 0, 76, 0
2, 4224, Note_on_c, 0, 78, 69
2, 4224, Note_on_c, 0, 74, 69
2, 4269, Note_on_c, 0, 78, 0
2, 4269, Note_on_c, 0, 74, 0
2, 4272, Note_on_c, 0, 69, 69
2, 4287, Note_on_c, 0, 69, 0
2, 4288, Note_on_c, 0, 71, 69
2, 4303, Note_on_c, 0, 71, 0
2, 4304, Note_on_c, 0, 73, 69
2, 4319, Note_on_c, 0, 73, 0
2, 4320, Note_on_c, 0, 74, 69
2, 4335, Note_on_c, 0, 74, 0
2, 4336, Note_on_c, 0, 76, 69
2, 4351, Note_on_c, 0, 76, 0
2, 4352, Note_on_c, 0, 78, 69
2, 4367, Note_on_c, 0, 78, 0
2, 4368, Note_on_c, 0, 76, 69
2, 4383, Note_on_c, 0, 76, 0
2, 4384, Note_on_c, 0, 78, 69
2, 4399, Note_on_c, 0, 78, 0
2, 4400, Note_on_c, 0, 79, 69
2, 4415, Note_on_c, 0, 79, 0
2, 4416, Note_on_c, 0, 78, 69
2, 4461, Note_on_c, 0, 78, 0
2, 4464, Note_on_c, 0, 69, 69
2, 4479, Note_on_c, 0, 69, 0
2, 4480, Note_on_c, 0, 71, 69
2, 4495, Note_on_c, 0, 71, 0
2, 4496, Note_on_c, 0, 73, 69
2, 4511, Note_on_c, 0, 73, 0
2, 4512, Note_on_c, 0, 74, 69
2, 4527, Note_on_c, 0, 74, 0
2, 4528, Note_on_c, 0, 76, 69
2, 4543, Note_on_c, 0, 76, 0
2, 4544, Note_on_c, 0, 78, 69
2, 4559, Note_on_c, 0, 78, 0
2, 4560, Note_on_c, 0, 76, 69
2, 4575, Note_on_c, 0, 76, 0
2, 4576, Note_on_c, 0, 78, 69
2, 4591, Note_on_c, 0, 78, 0
2, 4592, Note_on_c, 0, 79, 69
2, 4607, Note_on_c, 0, 79, 0
2, 4608, Note_on_c, 0, 78, 69
2, 4628, Note_on_c, 0, 78, 0
2, 4656, Note_on_c, 0, 81, 69
2, 4671, Note_on_c, 0, 81, 0
2, 4672, Note_on_c, 0, 79, 69
2, 4687, Note_on_c, 0, 79, 0
2, 4688, Note_on_c, 0, 78, 69
2, 4703, Note_on_c, 0, 78, 0
2, 4704, Note_on_c, 0, 83, 69
2, 4724, Note_on_c, 0, 83, 0
2, 4752, Note_on_c, 0, 79, 69
2, 4767, Note_on_c, 0, 79, 0
2, 4768, Note_on_c, 0, 78, 69
2, 4783, Note_on_c, 0, 78, 0
2, 4784, Note_on_c, 0, 76, 69
2, 4799, Note_on_c, 0, 76, 0
2, 4800, Note_on_c, 0, 74, 69
2, 4889, Note_on_c, 0, 74, 0
2, 4896, Note_on_c, 0, 76, 69
2, 4909, Note_on_c, 0, 76, 0
2, 4910, Note_on_c, 0, 78, 69
2, 4923, Note_on_c, 0, 78, 0
2, 4924, Note_on_c, 0, 76, 69
2, 4937, Note_on_c, 0, 76, 0
2, 4938, Note_on_c, 0, 78, 69
2, 4951, Note_on_c, 0, 78, 0
2, 4952, Note_on_c, 0, 76, 69
2, 4965, Note_on_c, 0, 76, 0
2, 4966, Note_on_c, 0, 78, 69
2, 4978, Note_on_c, 0, 78, 0
2, 4979, Note_on_c, 0, 76, 69
2, 4991, Note_on_c, 0, 76, 0
2, 4992, Note_on_c, 0, 78, 69
2, 5012, Note_on_c, 0, 78, 0
2, 5040, Note_on_c, 0, 81, 69
2, 5055, Note_on_c, 0, 81, 0
2, 5056, Note_on_c, 0, 79, 69
2, 5071, Note_on_c, 0, 79, 0
2, 5072, Note_on_c, 0, 78, 69
2, 5087, Note_on_c, 0, 78, 0
2, 5088, Note_on_c, 0, 83, 69
2, 5108, Note_on_c, 0, 83, 0
2, 5136, Note_on_c, 0, 79, 69
2, 5151, Note_on_c, 0, 79, 0
2, 5152, Note_on_c, 0, 78, 69
2, 5167, Note_on_c, 0, 78, 0
2, 5168, Note_on_c, 0, 76, 69
2, 5183, Note_on_c, 0, 76, 0
2, 5184, Note_on_c, 0, 74, 69
2, 5273, Note_on_c, 0, 74, 0
2, 5280, Note_on_c, 0, 76, 69
2, 5293, Note_on_c, 0, 76, 0
2, 5294, Note_on_c, 0, 78, 69
2, 5307, Note_on_c, 0, 78, 0
2, 5308, Note_on_c, 0, 76, 69
2, 5321, Note_on_c, 0, 76, 0
2, 5322, Note_on_c, 0, 78, 69
2, 5335, Note_on_c, 0, 78, 0
2, 5336, Note_on_c, 0, 76, 69
2, 5349, Note_on_c, 0, 76, 0
2, 5350, Note_on_c, 0, 74, 69
2, 5362, Note_on_c, 0, 74, 0
2, 5363, Note_on_c, 0, 76, 69
2, 5375, Note_on_c, 0, 76, 0
2, 5376, Note_on_c, 0, 74, 69
2, 5465, Note_on_c, 0, 74, 0
2, 5520, Note_on_c, 0, 74, 69
2, 5532, Note_on_c, 0, 74, 0
2, 5532, Note_on_c, 0, 72, 69
2, 5544, Note_on_c, 0, 72, 0
2, 5544, Note_on_c, 0, 71, 69
2, 5556, Note_on_c, 0, 71, 0
2, 5556, Note_on_c, 0, 69, 69
2, 5568, Note_on_c, 0, 69, 0
2, 5568, Note_on_c, 0, 67, 69
2, 5588, Note_on_c, 0, 67, 0
2, 5616, Note_on_c, 0, 79, 69
2, 5616, Note_on_c, 0, 76, 69
2, 5661, Note_on_c, 0, 79, 0
2, 5661, Note_on_c, 0, 76, 0
2, 5664, Note_on_c, 0, 78, 69
2, 5664, Note_on_c, 0, 74, 69
2, 5709, Note_on_c, 0, 78, 0
2, 5709, Note_on_c, 0, 74, 0
2, 5712, Note_on_c, 0, 76, 69
2, 5712, Note_on_c, 0, 72, 69
2, 5757, Note_on_c, 0, 76, 0
2, 5757, Note_on_c, 0, 72, 0
2, 5760, Note_on_c, 0, 74, 69
2, 5760, Note_on_c, 0, 71, 69
2, 5893, Note_on_c, 0, 74, 0
2, 5893, Note_on_c, 0, 71, 0
2, 5904, Note_on_c, 0, 76, 69
2, 5919, Note_on_c, 0, 76, 0
2, 5920, Note_on_c, 0, 74, 69
2, 5935, Note_on_c, 0, 74, 0
2, 5936, Note_on_c, 0, 72, 69
2, 5951, Note_on_c, 0, 72, 0
2, 5952, Note_on_c, 0, 71, 69
2, 6085, Note_on_c, 0, 71, 0
2, 6096, Note_on_c, 0, 71, 69
2, 6108, Note_on_c, 0, 71, 0
2, 6108, Note_on_c, 0, 69, 69
2, 6120, Note_on_c, 0, 69, 0
2, 6120, Note_on_c, 0, 67, 69
2, 6132, Note_on_c, 0, 67, 0
2, 6132, Note_on_c, 0, 66, 69
2, 6144, Note_on_c, 0, 66, 0
2, 6144, Note_on_c, 0, 64, 69
2, 6164, Note_on_c, 0, 64, 0
2, 6192, Note_on_c, 0, 76, 69
2, 6192, Note_on_c, 0, 72, 69
2, 6237, Note_on_c, 0, 76, 0
2, 6237, Note_on_c, 0, 72, 0
2, 6240, Note_on_c, 0, 74, 69
2, 6240, Note_on_c, 0, 71, 69
2, 6285, Note_on_c, 0, 74, 0
2, 6285, Note_on_c, 0, 71, 0
2, 6288, Note_on_c, 0, 72, 69
2, 6288, Note_on_c, 0, 69, 69
2, 6333, Note_on_c, 0, 72, 0
2, 6333, Note_on_c, 0, 69, 0
2, 6336, Note_on_c, 0, 72, 69
2, 6336, Note_on_c, 0, 69, 69
2, 6432, Note_on_c, 0, 72, 0
2, 6432, Note_on_c, 0, 69, 0
2, 6432, Note_on_c, 0, 71, 69
2, 6432, Note_on_c, 0, 67, 69
2, 6480, Note_on_c, 0, 67, 0
2, 6492, Note_on_c, 0, 71, 0
2, 6492, Note_on_c, 0, 69, 69
2, 6504, Note_on_c, 0, 69, 0
2, 6504, Note_on_c, 0, 67, 69
2, 6516, Note_on_c, 0, 67, 0
2, 6516, Note_on_c, 0, 66, 69
2, 6528, Note_on_c, 0, 66, 0
2, 6528, Note_on_c, 0, 64, 69
2, 6548, Note_on_c, 0, 64, 0
2, 6576, Note_on_c, 0, 76, 69
2, 6576, Note_on_c, 0, 72, 69
2, 6621, Note_on_c, 0, 76, 0
2, 6621, Note_on_c, 0, 72, 0
2, 6624, Note_on_c, 0, 74, 69
2, 6624, Note_on_c, 0, 71, 69
2, 6669, Note_on_c, 0, 74, 0
2, 6669, Note_on_c, 0, 71, 0
2, 6672, Note_on_c, 0, 66, 69
2, 6672, Note_on_c, 0, 60, 69
2, 6717, Note_on_c, 0, 66, 0
2, 6717, Note_on_c, 0, 60, 0
2, 6720, Note_on_c, 0, 67, 69
2, 6720, Note_on_c, 0, 59, 69
2, 6809, Note_on_c, 0, 67, 0
2, 6809, Note_on_c, 0, 59, 0
2, 6864, Note_on_c, 0, 74, 69
2, 6876, Note_on_c, 0, 74, 0
2, 6876, Note_on_c, 0, 72, 69
2, 6888, Note_on_c, 0, 72, 0
2, 6888, Note_on_c, 0, 71, 69
2, 6900, Note_on_c, 0, 71, 0
2, 6900, Note_on_c, 0, 69, 69
2, 6912, Note_on_c, 0, 69, 0
2, 6912, Note_on_c, 0, 67, 69
2, 6932, Note_on_c, 0, 67, 0
2, 6960, Note_on_c, 0, 79, 69
2, 6960, Note_on_c, 0, 76, 69
2, 7005, Note_on_c, 0, 79, 0
2, 7005, Note_on_c, 0, 76, 0
2, 7008, Note_on_c, 0, 78, 69
2, 7008, Note_on_c, 0, 74, 69
2, 7053, Note_on_c, 0, 78, 0
2, 7053, Note_on_c, 0, 74, 0
2, 7056, Note_on_c, 0, 76, 69
2, 7056, Note_on_c, 0, 72, 69
2, 7101, Note_on_c, 0, 76, 0
2, 7101, Note_on_c, 0, 72, 0
2, 7104, Note_on_c, 0, 74, 69
2, 7104, Note_on_c, 0, 71, 69
2, 7237, Note_on_c, 0, 74, 0
2, 7237, Note_on_c, 0, 71, 0
2, 7248, Note_on_c, 0, 74, 69
2, 7263, Note_on_c, 0, 74, 0
2, 7264, Note_on_c, 0, 79, 69
2, 7279, Note_on_c, 0, 79, 0
2, 7280, Note_on_c, 0, 83, 69
2, 7295, Note_on_c, 0, 83, 0
2, 7296, Note_on_c, 0, 81, 69
2, 7429, Note_on_c, 0, 81, 0
2, 7440, Note_on_c, 0, 79, 69
2, 7452, Note_on_c, 0, 79, 0
2, 7452, Note_on_c, 0, 78, 69
2, 7464, Note_on_c, 0, 78, 0
2, 7464, Note_on_c, 0, 76, 69
2, 7476, Note_on_c, 0, 76, 0
2, 7476, Note_on_c, 0, 74, 69
2, 7488, Note_on_c, 0, 74, 0
2, 7488, Note_on_c, 0, 73, 69
2, 7508, Note_on_c, 0, 73, 0
2, 7536, Note_on_c, 0, 79, 85
2, 7536, Note_on_c, 0, 76, 85
2, 7632, Note_on_c, 0, 79, 0
2, 7632, Note_on_c, 0, 76, 0
2, 7632, Note_on_c, 0, 78, 69
2, 7632, Note_on_c, 0, 74, 69
2, 7677, Note_on_c, 0, 78, 0
2, 7677, Note_on_c, 0, 74, 0
2, 7680, Note_on_c, 0, 78, 69
2, 7680, Note_on_c, 0, 74, 69
2, 7728, Note_on_c, 0, 78, 0
2, 7728, Note_on_c, 0, 74, 0
2, 7728, Note_on_c, 0, 76, 69
2, 7728, Note_on_c, 0, 73, 69
2, 7773, Note_on_c, 0, 76, 0
2, 7773, Note_on_c, 0, 73, 0
2, 7824, Note_on_c, 0, 69, 69
2, 7836, Note_on_c, 0, 69, 0
2, 7836, Note_on_c, 0, 67, 69
2, 7848, Note_on_c, 0, 67, 0
2, 7848, Note_on_c, 0, 66, 69
2, 7860, Note_on_c, 0, 66, 0
2, 7860, Note_on_c, 0, 64, 69
2, 7872, Note_on_c, 0, 64, 0
2, 7872, Note_on_c, 0, 62, 69
2, 7892, Note_on_c, 0, 62, 0
2, 7920, Note_on_c, 0, 74, 69
2, 7943, Note_on_c, 0, 74, 0
2, 7944, Note_on_c, 0, 62, 69
2, 7967, Note_on_c, 0, 62, 0
2, 7968, Note_on_c, 0, 73, 69
2, 7991, Note_on_c, 0, 73, 0
2, 7992, Note_on_c, 0, 62, 69
2, 8015, Note_on_c, 0, 62, 0
2, 8016, Note_on_c, 0, 71, 69
2, 8039, Note_on_c, 0, 71, 0
2, 8040, Note_on_c, 0, 62, 69
2, 8063, Note_on_c, 0, 62, 0
2, 8064, Note_on_c, 0, 69, 69
2, 8087, Note_on_c, 0, 69, 0
2, 8088, Note_on_c, 0, 62, 69
2, 8111, Note_on_c, 0, 62, 0
2, 8112, Note_on_c, 0, 67, 69
2, 8135, Note_on_c, 0, 67, 0
2, 8136, Note_on_c, 0, 62, 69
2, 8159, Note_on_c, 0, 62, 0
2, 8160, Note_on_c, 0, 66, 69
2, 8180, Note_on_c, 0, 66, 0
2, 8208, Note_on_c, 0, 69, 69
2, 8220, Note_on_c, 0, 69, 0
2, 8220, Note_on_c, 0, 67, 69
2, 8232, Note_on_c, 0, 67, 0
2, 8232, Note_on_c, 0, 66, 69
2, 8244, Note_on_c, 0, 66, 0
2, 8244, Note_on_c, 0, 64, 69
2, 8256, Note_on_c, 0, 64, 0
2, 8256, Note_on_c, 0, 62, 69
2, 8276, Note_on_c, 0, 62, 0
2, 8304, Note_on_c, 0, 74, 69
2, 8327, Note_on_c, 0, 74, 0
2, 8328, Note_on_c, 0, 62, 69
2, 8351, Note_on_c, 0, 62, 0
2, 8352, Note_on_c, 0, 73, 69
2, 8375, Note_on_c, 0, 73, 0
2, 8376, Note_on_c, 0, 62, 69
2, 8399, Note_on_c, 0, 62, 0
2, 8400, Note_on_c, 0, 71, 69
2, 8423, Note_on_c, 0, 71, 0
2, 8424, Note_on_c, 0, 62, 69
2, 8447, Note_on_c, 0, 62, 0
2, 8448, Note_on_c, 0, 69, 69
2, 8471, Note_on_c, 0, 69, 0
2, 8472, Note_on_c, 0, 62, 69
2, 8495, Note_on_c, 0, 62, 0
2, 8496, Note_on_c, 0, 67, 69
2, 8519, Note_on_c, 0, 67, 0
2, 8520, Note_on_c, 0, 62, 69
2, 8543, Note_on_c, 0, 62, 0
2, 8544, Note_on_c, 0, 66, 69
2, 8592, Note_on_c, 0, 66, 0
2, 8592, Note_on_c, 0, 69, 69
2, 8637, Note_on_c, 0, 69, 0
2, 8640, Note_on_c, 0, 67, 69
2, 8688, Note_on_c, 0, 67, 0
2, 8688, Note_on_c, 0, 64, 69
2, 8733, Note_on_c, 0, 64, 0
2, 8784, Note_on_c, 0, 79, 69
2, 8784, Note_on_c, 0, 76, 69
2, 8804, Note_on_c, 0, 79, 0
2, 8804, Note_on_c, 0, 76, 0
2, 8832, Note_on_c, 0, 78, 69
2, 8880, Note_on_c, 0, 78, 0
2, 8880, Note_on_c, 0, 81, 69
2, 8925, Note_on_c, 0, 81, 0
2, 8976, Note_on_c, 0, 69, 69
2, 8996, Note_on_c, 0, 69, 0
2, 9024, Note_on_c, 0, 67, 69
2, 9072, Note_on_c, 0, 67, 0
2, 9072, Note_on_c, 0, 64, 69
2, 9117, Note_on_c, 0, 64, 0
2, 9168, Note_on_c, 0, 79, 69
2, 9168, Note_on_c, 0, 76, 69
2, 9188, Note_on_c, 0, 79, 0
2, 9188, Note_on_c, 0, 76, 0
2, 9216, Note_on_c, 0, 78, 69
2, 9264, Note_on_c, 0, 78, 0
2, 9264, Note_on_c, 0, 81, 69
2, 9309, Note_on_c, 0, 81, 0
2, 9360, Note_on_c, 0, 69, 69
2, 9380, Note_on_c, 0, 69, 0
2, 9408, Note_on_c, 0, 67, 69
2, 9456, Note_on_c, 0, 67, 0
2, 9456, Note_on_c, 0, 64, 69
2, 9501, Note_on_c, 0, 64, 0
2, 9552, Note_on_c, 0, 79, 69
2, 9552, Note_on_c, 0, 76, 69
2, 9600, Note_on_c, 0, 79, 0
2, 9600, Note_on_c, 0, 76, 0
2, 9600, Note_on_c, 0, 78, 69
2, 9600, Note_on_c, 0, 74, 69
2, 9645, Note_on_c, 0, 78, 0
2, 9645, Note_on_c, 0, 74, 0
2, 9648, Note_on_c, 0, 69, 69
2, 9663, Note_on_c, 0, 69, 0
2, 9664, Note_on_c, 0, 71, 69
2, 9679, Note_on_c, 0, 71, 0
2, 9680, Note_on_c, 0, 73, 69
2, 9695, Note_on_c, 0, 73, 0
2, 9696, Note_on_c, 0, 74, 69
2, 9711, Note_on_c, 0, 74, 0
2, 9712, Note_on_c, 0, 76, 69
2, 9727, Note_on_c, 0, 76, 0
2, 9728, Note_on_c, 0, 78, 69
2, 9743, Note_on_c, 0, 78, 0
2, 9744, Note_on_c, 0, 76, 69
2, 9759, Note_on_c, 0, 76, 0
2, 9760, Note_on_c, 0, 78, 69
2, 9775, Note_on_c, 0, 78, 0
2, 9776, Note_on_c, 0, 79, 69
2, 9791, Note_on_c, 0, 79, 0
2, 9792, Note_on_c, 0, 78, 69
2, 9837, Note_on_c, 0, 78, 0
2, 9840, Note_on_c, 0, 69, 69
2, 9855, Note_on_c, 0, 69, 0
2, 9856, Note_on_c, 0, 71, 69
2, 9871, Note_on_c, 0, 71, 0
2, 9872, Note_on_c, 0, 73, 69
2, 9887, Note_on_c, 0, 73, 0
2, 9888, Note_on_c, 0, 74, 69
2, 9903, Note_on_c, 0, 74, 0
2, 9904, Note_on_c, 0, 76, 69
2, 9919, Note_on_c, 0, 76, 0
2, 9920, Note_on_c, 0, 78, 69
2, 9935, Note_on_c, 0, 78, 0
2, 9936, Note_on_c, 0, 76, 69
2, 9951, Note_on_c, 0, 76, 0
2, 9952, Note_on_c, 0, 78, 69
2, 9967, Note_on_c, 0, 78, 0
2, 9968, Note_on_c, 0, 79, 69
2, 9983, Note_on_c, 0, 79, 0
2, 9984, Note_on_c, 0, 78, 69
2, 10004, Note_on_c, 0, 78, 0
2, 10032, Note_on_c, 0, 81, 69
2, 10047, Note_on_c, 0, 81, 0
2, 10048, Note_on_c, 0, 79, 69
2, 10063, Note_on_c, 0, 79, 0
2, 10064, Note_on_c, 0, 78, 69
2, 10079, Note_on_c, 0, 78, 0
2, 10080, Note_on_c, 0, 83, 69
2, 10100, Note_on_c, 0, 83, 0
2, 10128, Note_on_c, 0, 79, 69
2, 10143, Note_on_c, 0, 79, 0
2, 10144, Note_on_c, 0, 78, 69
2, 10159, Note_on_c, 0, 78, 0
2, 10160, Note_on_c, 0, 76, 69
2, 10175, Note_on_c, 0, 76, 0
2, 10176, Note_on_c, 0, 74, 69
2, 10265, Note_on_c, 0, 74, 0
2, 10272, Note_on_c, 0, 76, 69
2, 10285, Note_on_c, 0, 76, 0
2, 10286, Note_on_c, 0, 78, 69
2, 10299, Note_on_c, 0, 78, 0
2, 10300, Note_on_c, 0, 76, 69
2, 10313, Note_on_c, 0, 76, 0
2, 10314, Note_on_c, 0, 78, 69
2, 10327, Note_on_c, 0, 78, 0
2, 10328, Note_on_c, 0, 76, 69
2, 10341, Note_on_c, 0, 76, 0
2, 10342, Note_on_c, 0, 78, 69
2, 10354, Note_on_c, 0, 78, 0
2, 10355, Note_on_c, 0, 76, 69
2, 10367, Note_on_c, 0, 76, 0
2, 10368, Note_on_c, 0, 78, 69
2, 10388, Note_on_c, 0, 78, 0
2, 10416, Note_on_c, 0, 81, 69
2, 10431, Note_on_c, 0, 81, 0
2, 10432, Note_on_c, 0, 79, 69
2, 10447, Note_on_c, 0, 79, 0
2, 10448, Note_on_c, 0, 78, 69
2, 10463, Note_on_c, 0, 78, 0
2, 10464, Note_on_c, 0, 83, 69
2, 10484, Note_on_c, 0, 83, 0
2, 10512, Note_on_c, 0, 79, 69
2, 10527, Note_on_c, 0, 79, 0
2, 10528, Note_on_c, 0, 78, 69
2, 10543, Note_on_c, 0, 78, 0
2, 10544, Note_on_c, 0, 76, 69
2, 10559, Note_on_c, 0, 76, 0
2, 10560, Note_on_c, 0, 74, 69
2, 10649, Note_on_c, 0, 74, 0
2, 10656, Note_on_c, 0, 76, 69
2, 10669, Note_on_c, 0, 76, 0
2, 10670, Note_on_c, 0, 78, 69
2, 10683, Note_on_c, 0, 78, 0
2, 10684, Note_on_c, 0, 76, 69
2, 10697, Note_on_c, 0, 76, 0
2, 10698, Note_on_c, 0, 78, 69
2, 10711, Note_on_c, 0, 78, 0
2, 10712, Note_on_c, 0, 76, 69
2, 10725, Note_on_c, 0, 76, 0
2, 10726, Note_on_c, 0, 74, 69
2, 10738, Note_on_c, 0, 74, 0
2, 10739, Note_on_c, 0, 76, 69
2, 10751, Note_on_c, 0, 76, 0
2, 10752, Note_on_c, 0, 74, 69
2, 10841, Note_on_c, 0, 74, 0
2, 10896, Note_on_c, 0, 69, 69
2, 10908, Note_on_c, 0, 69, 0
2, 10908, Note_on_c, 0, 67, 69
2, 10920, Note_on_c, 0, 67, 0
2, 10920, Note_on_c, 0, 66, 69
2, 10932, Note_on_c, 0, 66, 0
2, 10932, Note_on_c, 0, 64, 69
2, 10944, Note_on_c, 0, 64, 0
2, 10944, Note_on_c, 0, 62, 69
2, 10964, Note_on_c, 0, 62, 0
2, 10992, Note_on_c, 0, 74, 69
2, 10992, Note_on_c, 0, 71, 69
2, 11037, Note_on_c, 0, 74, 0
2, 11037, Note_on_c, 0, 71, 0
2, 11040, Note_on_c, 0, 73, 69
2, 11040, Note_on_c, 0, 69, 69
2, 11085, Note_on_c, 0, 73, 0
2, 11085, Note_on_c, 0, 69, 0
2, 11088, Note_on_c, 0, 71, 69
2, 11088, Note_on_c, 0, 67, 69
2, 11133, Note_on_c, 0, 71, 0
2, 11133, Note_on_c, 0, 67, 0
2, 11136, Note_on_c, 0, 69, 69
2, 11136, Note_on_c, 0, 66, 69
2, 11280, Note_on_c, 0, 69, 0
2, 11280, Note_on_c, 0, 66, 0
2, 11280, Note_on_c, 0, 71, 69
2, 11280, Note_on_c, 0, 67, 69
2, 11325, Note_on_c, 0, 71, 0
2, 11325, Note_on_c, 0, 67, 0
2, 11328, Note_on_c, 0, 72, 69
2, 11328, Note_on_c, 0, 69, 69
2, 11461, Note_on_c, 0, 72, 0
2, 11461, Note_on_c, 0, 69, 0
2, 11472, Note_on_c, 0, 76, 69
2, 11487, Note_on_c, 0, 76, 0
2, 11488, Note_on_c, 0, 74, 69
2, 11503, Note_on_c, 0, 74, 0
2, 11504, Note_on_c, 0, 72, 69
2, 11519, Note_on_c, 0, 72, 0
2, 11520, Note_on_c, 0, 71, 69
2, 11540, Note_on_c, 0, 71, 0
2, 11568, Note_on_c, 0, 79, 69
2, 11568, Note_on_c, 0, 76, 69
2, 11613, Note_on_c, 0, 79, 0
2, 11613, Note_on_c, 0, 76, 0
2, 11616, Note_on_c, 0, 78, 69
2, 11616, Note_on_c, 0, 74, 69
2, 11661, Note_on_c, 0, 78, 0
2, 11661, Note_on_c, 0, 74, 0
2, 11664, Note_on_c, 0, 76, 69
2, 11664, Note_on_c, 0, 72, 69
2, 11709, Note_on_c, 0, 76, 0
2, 11709, Note_on_c, 0, 72, 0
2, 11712, Note_on_c, 0, 74, 69
2, 11712, Note_on_c, 0, 71, 69
2, 11856, Note_on_c, 0, 74, 0
2, 11856, Note_on_c, 0, 71, 0
2, 11856, Note_on_c, 0, 76, 69
2, 11856, Note_on_c, 0, 72, 69
2, 11901, Note_on_c, 0, 76, 0
2, 11901, Note_on_c, 0, 72, 0
2, 11904, Note_on_c, 0, 77, 69
2, 11904, Note_on_c, 0, 74, 69
2, 12037, Note_on_c, 0, 77, 0
2, 12037, Note_on_c, 0, 74, 0
2, 12048, Note_on_c, 0, 81, 69
2, 12063, Note_on_c, 0, 81, 0
2, 12064, Note_on_c, 0, 79, 69
2, 12079, Note_on_c, 0, 79, 0
2, 12080, Note_on_c, 0, 77, 69
2, 12095, Note_on_c, 0, 77, 0
2, 12096, Note_on_c, 0, 76, 69
2, 12144, Note_on_c, 0, 76, 0
2, 12144, Note_on_c, 0, 79, 69
2, 12189, Note_on_c, 0, 79, 0
2, 12240, Note_on_c, 0, 79, 69
2, 12260, Note_on_c, 0, 79, 0
2, 12288, Note_on_c, 0, 77, 69
2, 12336, Note_on_c, 0, 77, 0
2, 12336, Note_on_c, 0, 74, 69
2, 12381, Note_on_c, 0, 74, 0
2, 12432, Note_on_c, 0, 77, 69
2, 12452, Note_on_c, 0, 77, 0
2, 12480, Note_on_c, 0, 76, 69
2, 12528, Note_on_c, 0, 76, 0
2, 12528, Note_on_c, 0, 79, 69
2, 12573, Note_on_c, 0, 79, 0
2, 12624, Note_on_c, 0, 79, 69
2, 12644, Note_on_c, 0, 79, 0
2, 12672, Note_on_c, 0, 77, 69
2, 12720, Note_on_c, 0, 77, 0
2, 12720, Note_on_c, 0, 74, 69
2, 12765, Note_on_c, 0, 74, 0
2, 12816, Note_on_c, 0, 77, 69
2, 12836, Note_on_c, 0, 77, 0
2, 12864, Note_on_c, 0, 76, 69
2, 12912, Note_on_c, 0, 76, 0
2, 12912, Note_on_c, 0, 79, 69
2, 12957, Note_on_c, 0, 79, 0
2, 13008, Note_on_c, 0, 76, 69
2, 13028, Note_on_c, 0, 76, 0
2, 13056, Note_on_c, 0, 76, 69
2, 13104, Note_on_c, 0, 76, 0
2, 13104, Note_on_c, 0, 81, 69
2, 13149, Note_on_c, 0, 81, 0
2, 13200, Note_on_c, 0, 79, 69
2, 13220, Note_on_c, 0, 79, 0
2, 13248, Note_on_c, 0, 78, 69
2, 13296, Note_on_c, 0, 78, 0
2, 13296, Note_on_c, 0, 74, 69
2, 13341, Note_on_c, 0, 74, 0
2, 13392, Note_on_c, 0, 78, 69
2, 13412, Note_on_c, 0, 78, 0
2, 13440, Note_on_c, 0, 76, 69
2, 13488, Note_on_c, 0, 76, 0
2, 13488, Note_on_c, 0, 81, 69
2, 13533, Note_on_c, 0, 81, 0
2, 13584, Note_on_c, 0, 79, 69
2, 13604, Note_on_c, 0, 79, 0
2, 13632, Note_on_c, 0, 78, 69
2, 13680, Note_on_c, 0, 78, 0
2, 13680, Note_on_c, 0, 74, 69
2, 13725, Note_on_c, 0, 74, 0
2, 13776, Note_on_c, 0, 78, 69
2, 13796, Note_on_c, 0, 78, 0
2, 13824, Note_on_c, 0, 78, 70
2, 13872, Note_on_c, 0, 78, 0
2, 13872, Note_on_c, 0, 83, 70
2, 13917, Note_on_c, 0, 83, 0
2, 13968, Note_on_c, 0, 81, 70
2, 13988, Note_on_c, 0, 81, 0
2, 14016, Note_on_c, 0, 79, 71
2, 14064, Note_on_c, 0, 79, 0
2, 14064, Note_on_c, 0, 76, 71
2, 14109, Note_on_c, 0, 76, 0
2, 14160, Note_on_c, 0, 79, 71
2, 14180, Note_on_c, 0, 79, 0
2, 14208, Note_on_c, 0, 78, 72
2, 14256, Note_on_c, 0, 78, 0
2, 14256, Note_on_c, 0, 83, 72
2, 14301, Note_on_c, 0, 83, 0
2, 14352, Note_on_c, 0, 81, 72
2, 14372, Note_on_c, 0, 81, 0
2, 14400, Note_on_c, 0, 79, 73
2, 14420, Note_on_c, 0, 79, 0
2, 14448, Note_on_c, 0, 71, 73
2, 14463, Note_on_c, 0, 71, 0
2, 14464, Note_on_c, 0, 73, 73
2, 14479, Note_on_c, 0, 73, 0
2, 14480, Note_on_c, 0, 75, 73
2, 14495, Note_on_c, 0, 75, 0
2, 14496, Note_on_c, 0, 76, 73
2, 14511, Note_on_c, 0, 76, 0
2, 14512, Note_on_c, 0, 78, 73
2, 14527, Note_on_c, 0, 78, 0
2, 14528, Note_on_c, 0, 79, 73
2, 14543, Note_on_c, 0, 79, 0
2, 14544, Note_on_c, 0, 78, 73
2, 14559, Note_on_c, 0, 78, 0
2, 14560, Note_on_c, 0, 79, 73
2, 14575, Note_on_c, 0, 79, 0
2, 14576, Note_on_c, 0, 81, 73
2, 14591, Note_on_c, 0, 81, 0
2, 14592, Note_on_c, 0, 79, 73
2, 14612, Note_on_c, 0, 79, 0
2, 14640, Note_on_c, 0, 71, 73
2, 14655, Note_on_c, 0, 71, 0
2, 14656, Note_on_c, 0, 73, 73
2, 14671, Note_on_c, 0, 73, 0
2, 14672, Note_on_c, 0, 75, 73
2, 14687, Note_on_c, 0, 75, 0
2, 14688, Note_on_c, 0, 76, 73
2, 14703, Note_on_c, 0, 76, 0
2, 14704, Note_on_c, 0, 78, 73
2, 14719, Note_on_c, 0, 78, 0
2, 14720, Note_on_c, 0, 79, 73
2, 14735, Note_on_c, 0, 79, 0
2, 14736, Note_on_c, 0, 78, 73
2, 14751, Note_on_c, 0, 78, 0
2, 14752, Note_on_c, 0, 79, 73
2, 14767, Note_on_c, 0, 79, 0
2, 14768, Note_on_c, 0, 81, 73
2, 14783, Note_on_c, 0, 81, 0
2, 14784, Note_on_c, 0, 79, 73
2, 14804, Note_on_c, 0, 79, 0
2, 14832, Note_on_c, 0, 83, 73
2, 14847, Note_on_c, 0, 83, 0
2, 14848, Note_on_c, 0, 81, 73
2, 14863, Note_on_c, 0, 81, 0
2, 14864, Note_on_c, 0, 79, 73
2, 14879, Note_on_c, 0, 79, 0
2, 14880, Note_on_c, 0, 84, 73
2, 14900, Note_on_c, 0, 84, 0
2, 14928, Note_on_c, 0, 81, 73
2, 14943, Note_on_c, 0, 81, 0
2, 14944, Note_on_c, 0, 79, 73
2, 14959, Note_on_c, 0, 79, 0
2, 14960, Note_on_c, 0, 78, 73
2, 14975, Note_on_c, 0, 78, 0
2, 14976, Note_on_c, 0, 76, 73
2, 15065, Note_on_c, 0, 76, 0
2, 15072, Note_on_c, 0, 78, 73
2, 15085, Note_on_c, 0, 78, 0
2, 15086, Note_on_c, 0, 79, 73
2, 15099, Note_on_c, 0, 79, 0
2, 15100, Note_on_c, 0, 78, 73
2, 15113, Note_on_c, 0, 78, 0
2, 15114, Note_on_c, 0, 79, 73
2, 15127, Note_on_c, 0, 79, 0
2, 15128, Note_on_c, 0, 78, 73
2, 15141, Note_on_c, 0, 78, 0
2, 15142, Note_on_c, 0, 79, 73
2, 15154, Note_on_c, 0, 79, 0
2, 15155, Note_on_c, 0, 78, 73
2, 15167, Note_on_c, 0, 78, 0
2, 15168, Note_on_c, 0, 79, 73
2, 15188, Note_on_c, 0, 79, 0
2, 15216, Note_on_c, 0, 83, 73
2, 15231, Note_on_c, 0, 83, 0
2, 15232, Note_on_c, 0, 81, 73
2, 15247, Note_on_c, 0, 81, 0
2, 15248, Note_on_c, 0, 79, 73
2, 15263, Note_on_c, 0, 79, 0
2, 15264, Note_on_c, 0, 84, 73
2, 15284, Note_on_c, 0, 84, 0
2, 15312, Note_on_c, 0, 81, 73
2, 15327, Note_on_c, 0, 81, 0
2, 15328, Note_on_c, 0, 79, 73
2, 15343, Note_on_c, 0, 79, 0
2, 15344, Note_on_c, 0, 78, 73
2, 15359, Note_on_c, 0, 78, 0
2, 15360, Note_on_c, 0, 76, 73
2, 15449, Note_on_c, 0, 76, 0
2, 15456, Note_on_c, 0, 78, 73
2, 15469, Note_on_c, 0, 78, 0
2, 15470, Note_on_c, 0, 79, 73
2, 15483, Note_on_c, 0, 79, 0
2, 15484, Note_on_c, 0, 78, 73
2, 15497, Note_on_c, 0, 78, 0
2, 15498, Note_on_c, 0, 79, 73
2, 15511, Note_on_c, 0, 79, 0
2, 15512, Note_on_c, 0, 78, 73
2, 15525, Note_on_c, 0, 78, 0
2, 15526, Note_on_c, 0, 76, 73
2, 15538, Note_on_c, 0, 76, 0
2, 15539, Note_on_c, 0, 78, 73
2, 15551, Note_on_c, 0, 78, 0
2, 15552, Note_on_c, 0, 76, 73
2, 15641, Note_on_c, 0, 76, 0
2, 15792, Note_on_c, 0, 79, 73
2, 15792, Note_on_c, 0, 71, 73
2, 15812, Note_on_c, 0, 79, 0
2, 15812, Note_on_c, 0, 71, 0
2, 15840, Note_on_c, 0, 79, 73
2, 15840, Note_on_c, 0, 71, 73
2, 15934, Note_on_c, 0, 79, 0
2, 15934, Note_on_c, 0, 71, 0
2, 15984, Note_on_c, 0, 81, 73
2, 15984, Note_on_c, 0, 72, 73
2, 16004, Note_on_c, 0, 81, 0
2, 16004, Note_on_c, 0, 72, 0
2, 16032, Note_on_c, 0, 81, 73
2, 16032, Note_on_c, 0, 72, 73
2, 16126, Note_on_c, 0, 81, 0
2, 16126, Note_on_c, 0, 72, 0
2, 16176, Note_on_c, 0, 78, 73
2, 16176, Note_on_c, 0, 69, 73
2, 16196, Note_on_c, 0, 78, 0
2, 16196, Note_on_c, 0, 69, 0
2, 16224, Note_on_c, 0, 78, 73
2, 16224, Note_on_c, 0, 69, 73
2, 16318, Note_on_c, 0, 78, 0
2, 16318, Note_on_c, 0, 69, 0
2, 16368, Note_on_c, 0, 79, 73
2, 16368, Note_on_c, 0, 71, 73
2, 16388, Note_on_c, 0, 79, 0
2, 16388, Note_on_c, 0, 71, 0
2, 16416, Note_on_c, 0, 79, 73
2, 16416, Note_on_c, 0, 71, 73
2, 16463, Note_on_c, 0, 79, 0
2, 16463, Note_on_c, 0, 71, 0
2, 16464, Note_on_c, 0, 74, 69
2, 16476, Note_on_c, 0, 74, 0
2, 16476, Note_on_c, 0, 72, 69
2, 16488, Note_on_c, 0, 72, 0
2, 16488, Note_on_c, 0, 71, 69
2, 16500, Note_on_c, 0, 71, 0
2, 16500, Note_on_c, 0, 69, 69
2, 16512, Note_on_c, 0, 69, 0
2, 16512, Note_on_c, 0, 67, 69
2, 16532, Note_on_c, 0, 67, 0
2, 16560, Note_on_c, 0, 79, 69
2, 16560, Note_on_c, 0, 76, 69
2, 16605, Note_on_c, 0, 79, 0
2, 16605, Note_on_c, 0, 76, 0
2, 16608, Note_on_c, 0, 78, 69
2, 16608, Note_on_c, 0, 74, 69
2, 16653, Note_on_c, 0, 78, 0
2, 16653, Note_on_c, 0, 74, 0
2, 16656, Note_on_c, 0, 76, 69
2, 16656, Note_on_c, 0, 72, 69
2, 16701, Note_on_c, 0, 76, 0
2, 16701, Note_on_c, 0, 72, 0
2, 16704, Note_on_c, 0, 74, 69
2, 16704, Note_on_c, 0, 71, 69
2, 16837, Note_on_c, 0, 74, 0
2, 16837, Note_on_c, 0, 71, 0
2, 16848, Note_on_c, 0, 76, 69
2, 16863, Note_on_c, 0, 76, 0
2, 16864, Note_on_c, 0, 74, 69
2, 16879, Note_on_c, 0, 74, 0
2, 16880, Note_on_c, 0, 72, 69
2, 16895, Note_on_c, 0, 72, 0
2, 16896, Note_on_c, 0, 71, 69
2, 17029, Note_on_c, 0, 71, 0
2, 17040, Note_on_c, 0, 71, 69
2, 17052, Note_on_c, 0, 71, 0
2, 17052, Note_on_c, 0, 69, 69
2, 17064, Note_on_c, 0, 69, 0
2, 17064, Note_on_c, 0, 67, 69
2, 17076, Note_on_c, 0, 67, 0
2, 17076, Note_on_c, 0, 66, 69
2, 17088, Note_on_c, 0, 66, 0
2, 17088, Note_on_c, 0, 64, 69
2, 17108, Note_on_c, 0, 64, 0
2, 17136, Note_on_c, 0, 76, 69
2, 17136, Note_on_c, 0, 72, 69
2, 17181, Note_on_c, 0, 76, 0
2, 17181, Note_on_c, 0, 72, 0
2, 17184, Note_on_c, 0, 74, 69
2, 17184, Note_on_c, 0, 71, 69
2, 17229, Note_on_c, 0, 74, 0
2, 17229, Note_on_c, 0, 71, 0
2, 17232, Note_on_c, 0, 72, 69
2, 17232, Note_on_c, 0, 69, 69
2, 17277, Note_on_c, 0, 72, 0
2, 17277, Note_on_c, 0, 69, 0
2, 17280, Note_on_c, 0, 72, 69
2, 17280, Note_on_c, 0, 69, 69
2, 17376, Note_on_c, 0, 72, 0
2, 17376, Note_on_c, 0, 69, 0
2, 17376, Note_on_c, 0, 71, 69
2, 17376, Note_on_c, 0, 67, 69
2, 17424, Note_on_c, 0, 67, 0
2, 17436, Note_on_c, 0, 71, 0
2, 17436, Note_on_c, 0, 69, 69
2, 17448, Note_on_c, 0, 69, 0
2, 17448, Note_on_c, 0, 67, 69
2, 17460, Note_on_c, 0, 67, 0
2, 17460, Note_on_c, 0, 66, 69
2, 17472, Note_on_c, 0, 66, 0
2, 17472, Note_on_c, 0, 64, 69
2, 17492, Note_on_c, 0, 64, 0
2, 17520, Note_on_c, 0, 72, 69
2, 17520, Note_on_c, 0, 69, 69
2, 17565, Note_on_c, 0, 72, 0
2, 17565, Note_on_c, 0, 69, 0
2, 17568, Note_on_c, 0, 72, 69
2, 17568, Note_on_c, 0, 69, 69
2, 17613, Note_on_c, 0, 72, 0
2, 17613, Note_on_c, 0, 69, 0
2, 17616, Note_on_c, 0, 71, 69
2, 17616, Note_on_c, 0, 67, 69
2, 17661, Note_on_c, 0, 71, 0
2, 17661, Note_on_c, 0, 67, 0
2, 17664, Note_on_c, 0, 71, 69
2, 17664, Note_on_c, 0, 67, 69
2, 17760, Note_on_c, 0, 71, 0
2, 17760, Note_on_c, 0, 67, 0
2, 17760, Note_on_c, 0, 69, 69
2, 17760, Note_on_c, 0, 66, 69
2, 17805, Note_on_c, 0, 69, 0
2, 17805, Note_on_c, 0, 66, 0
2, 17808, Note_on_c, 0, 74, 69
2, 17820, Note_on_c, 0, 74, 0
2, 17820, Note_on_c, 0, 72, 69
2, 17832, Note_on_c, 0, 72, 0
2, 17832, Note_on_c, 0, 71, 69
2, 17844, Note_on_c, 0, 71, 0
2, 17844, Note_on_c, 0, 69, 69
2, 17856, Note_on_c, 0, 69, 0
2, 17856, Note_on_c, 0, 67, 69
2, 17876, Note_on_c, 0, 67, 0
2, 17904, Note_on_c, 0, 79, 69
2, 17927, Note_on_c, 0, 79, 0
2, 17928, Note_on_c, 0, 67, 69
2, 17951, Note_on_c, 0, 67, 0
2, 17952, Note_on_c, 0, 78, 69
2, 17975, Note_on_c, 0, 78, 0
2, 17976, Note_on_c, 0, 67, 69
2, 17999, Note_on_c, 0, 67, 0
2, 18000, Note_on_c, 0, 76, 69
2, 18023, Note_on_c, 0, 76, 0
2, 18024, Note_on_c, 0, 67, 69
2, 18047, Note_on_c, 0, 67, 0
2, 18048, Note_on_c, 0, 74, 69
2, 18071, Note_on_c, 0, 74, 0
2, 18072, Note_on_c, 0, 67, 69
2, 18095, Note_on_c, 0, 67, 0
2, 18096, Note_on_c, 0, 72, 69
2, 18119, Note_on_c, 0, 72, 0
2, 18120, Note_on_c, 0, 67, 69
2, 18143, Note_on_c, 0, 67, 0
2, 18144, Note_on_c, 0, 71, 69
2, 18164, Note_on_c, 0, 71, 0
2, 18192, Note_on_c, 0, 74, 69
2, 18204, Note_on_c, 0, 74, 0
2, 18204, Note_on_c, 0, 72, 69
2, 18216, Note_on_c, 0, 72, 0
2, 18216, Note_on_c, 0, 71, 69
2, 18228, Note_on_c, 0, 71, 0
2, 18228, Note_on_c, 0, 69, 69
2, 18240, Note_on_c, 0, 69, 0
2, 18240, Note_on_c, 0, 67, 69
2, 18260, Note_on_c, 0, 67, 0
2, 18288, Note_on_c, 0, 79, 69
2, 18311, Note_on_c, 0, 79, 0
2, 18312, Note_on_c, 0, 67, 69
2, 18335, Note_on_c, 0, 67, 0
2, 18336, Note_on_c, 0, 78, 69
2, 18359, Note_on_c, 0, 78, 0
2, 18360, Note_on_c, 0, 67, 69
2, 18383, Note_on_c, 0, 67, 0
2, 18384, Note_on_c, 0, 76, 69
2, 18407, Note_on_c, 0, 76, 0
2, 18408, Note_on_c, 0, 67, 69
2, 18431, Note_on_c, 0, 67, 0
2, 18432, Note_on_c, 0, 74, 69
2, 18455, Note_on_c, 0, 74, 0
2, 18456, Note_on_c, 0, 67, 69
2, 18479, Note_on_c, 0, 67, 0
2, 18480, Note_on_c, 0, 72, 69
2, 18503, Note_on_c, 0, 72, 0
2, 18504, Note_on_c, 0, 67, 69
2, 18527, Note_on_c, 0, 67, 0
2, 18528, Note_on_c, 0, 71, 69
2, 18548, Note_on_c, 0, 71, 0
2, 18576, Note_on_c, 0, 74, 69
2, 18596, Note_on_c, 0, 74, 0
2, 18624, Note_on_c, 0, 72, 69
2, 18672, Note_on_c, 0, 72, 0
2, 18672, Note_on_c, 0, 69, 69
2, 18717, Note_on_c, 0, 69, 0
2, 18768, Note_on_c, 0, 72, 69
2, 18768, Note_on_c, 0, 69, 69
2, 18788, Note_on_c, 0, 72, 0
2, 18788, Note_on_c, 0, 69, 0
2, 18816, Note_on_c, 0, 71, 69
2, 18864, Note_on_c, 0, 71, 0
2, 18864, Note_on_c, 0, 74, 69
2, 18909, Note_on_c, 0, 74, 0
2, 18960, Note_on_c, 0, 74, 69
2, 18980, Note_on_c, 0, 74, 0
2, 19008, Note_on_c, 0, 72, 69
2, 19056, Note_on_c, 0, 72, 0
2, 19056, Note_on_c, 0, 69, 69
2, 19101, Note_on_c, 0, 69, 0
2, 19152, Note_on_c, 0, 72, 69
2, 19152, Note_on_c, 0, 69, 69
2, 19172, Note_on_c, 0, 72, 0
2, 19172, Note_on_c, 0, 69, 0
2, 19200, Note_on_c, 0, 71, 69
2, 19248, Note_on_c, 0, 71, 0
2, 19248, Note_on_c, 0, 74, 69
2, 19293, Note_on_c, 0, 74, 0
2, 19344, Note_on_c, 0, 74, 69
2, 19364, Note_on_c, 0, 74, 0
2, 19392, Note_on_c, 0, 72, 69
2, 19440, Note_on_c, 0, 72, 0
2, 19440, Note_on_c, 0, 69, 69
2, 19485, Note_on_c, 0, 69, 0
2, 19536, Note_on_c, 0, 72, 69
2, 19536, Note_on_c, 0, 69, 69
2, 19556, Note_on_c, 0, 72, 0
2, 19556, Note_on_c, 0, 69, 0
2, 19584, Note_on_c, 0, 71, 69
2, 19584, Note_on_c, 0, 67, 69
2, 19629, Note_on_c, 0, 71, 0
2, 19629, Note_on_c, 0, 67, 0
2, 19632, Note_on_c, 0, 62, 69
2, 19647, Note_on_c, 0, 62, 0
2, 19648, Note_on_c, 0, 64, 69
2, 19663, Note_on_c, 0, 64, 0
2, 19664, Note_on_c, 0, 66, 69
2, 19679, Note_on_c, 0, 66, 0
2, 19680, Note_on_c, 0, 67, 69
2, 19695, Note_on_c, 0, 67, 0
2, 19696, Note_on_c, 0, 69, 69
2, 19711, Note_on_c, 0, 69, 0
2, 19712, Note_on_c, 0, 71, 69
2, 19727, Note_on_c, 0, 71, 0
2, 19728, Note_on_c, 0, 69, 69
2, 19743, Note_on_c, 0, 69, 0
2, 19744, Note_on_c, 0, 71, 69
2, 19759, Note_on_c, 0, 71, 0
2, 19760, Note_on_c, 0, 72, 69
2, 19775, Note_on_c, 0, 72, 0
2, 19776, Note_on_c, 0, 71, 69
2, 19821, Note_on_c, 0, 71, 0
2, 19824, Note_on_c, 0, 62, 69
2, 19839, Note_on_c, 0, 62, 0
2, 19840, Note_on_c, 0, 64, 69
2, 19855, Note_on_c, 0, 64, 0
2, 19856, Note_on_c, 0, 66, 69
2, 19871, Note_on_c, 0, 66, 0
2, 19872, Note_on_c, 0, 67, 69
2, 19887, Note_on_c, 0, 67, 0
2, 19888, Note_on_c, 0, 69, 69
2, 19903, Note_on_c, 0, 69, 0
2, 19904, Note_on_c, 0, 71, 69
2, 19919, Note_on_c, 0, 71, 0
2, 19920, Note_on_c, 0, 69, 69
2, 19935, Note_on_c, 0, 69, 0
2, 19936, Note_on_c, 0, 71, 69
2, 19951, Note_on_c, 0, 71, 0
2, 19952, Note_on_c, 0, 72, 69
2, 19967, Note_on_c, 0, 72, 0
2, 19968, Note_on_c, 0, 71, 69
2, 19988, Note_on_c, 0, 71, 0
2, 20016, Note_on_c, 0, 74, 69
2, 20031, Note_on_c, 0, 74, 0
2, 20032, Note_on_c, 0, 72, 69
2, 20047, Note_on_c, 0, 72, 0
2, 20048, Note_on_c, 0, 71, 69
2, 20063, Note_on_c, 0, 71, 0
2, 20064, Note_on_c, 0, 76, 69
2, 20084, Note_on_c, 0, 76, 0
2, 20112, Note_on_c, 0, 72, 69
2, 20127, Note_on_c, 0, 72, 0
2, 20128, Note_on_c, 0, 71, 69
2, 20143, Note_on_c, 0, 71, 0
2, 20144, Note_on_c, 0, 69, 69
2, 20159, Note_on_c, 0, 69, 0
2, 20160, Note_on_c, 0, 67, 69
2, 20249, Note_on_c, 0, 67, 0
2, 20256, Note_on_c, 0, 69, 69
2, 20269, Note_on_c, 0, 69, 0
2, 20270, Note_on_c, 0, 71, 69
2, 20283, Note_on_c, 0, 71, 0
2, 20284, Note_on_c, 0, 69, 69
2, 20297, Note_on_c, 0, 69, 0
2, 20298, Note_on_c, 0, 71, 69
2, 20311, Note_on_c, 0, 71, 0
2, 20312, Note_on_c, 0, 69, 69
2, 20325, Note_on_c, 0, 69, 0
2, 20326, Note_on_c, 0, 71, 69
2, 20338, Note_on_c, 0, 71, 0
2, 20339, Note_on_c, 0, 69, 69
2, 20351, Note_on_c, 0, 69, 0
2, 20352, Note_on_c, 0, 71, 69
2, 20372, Note_on_c, 0, 71, 0
2, 20400, Note_on_c, 0, 74, 69
2, 20415, Note_on_c, 0, 74, 0
2, 20416, Note_on_c, 0, 72, 69
2, 20431, Note_on_c, 0, 72, 0
2, 20432, Note_on_c, 0, 71, 69
2, 20447, Note_on_c, 0, 71, 0
2, 20448, Note_on_c, 0, 76, 69
2, 20468, Note_on_c, 0, 76, 0
2, 20496, Note_on_c, 0, 72, 69
2, 20511, Note_on_c, 0, 72, 0
2, 20512, Note_on_c, 0, 71, 69
2, 20527, Note_on_c, 0, 71, 0
2, 20528, Note_on_c, 0, 69, 69
2, 20543, Note_on_c, 0, 69, 0
2, 20544, Note_on_c, 0, 67, 69
2, 20633, Note_on_c, 0, 67, 0
2, 20640, Note_on_c, 0, 69, 69
2, 20653, Note_on_c, 0, 69, 0
2, 20654, Note_on_c, 0, 71, 69
2, 20667, Note_on_c, 0, 71, 0
2, 20668, Note_on_c, 0, 69, 69
2, 20681, Note_on_c, 0, 69, 0
2, 20682, Note_on_c, 0, 71, 69
2, 20695, Note_on_c, 0, 71, 0
2, 20696, Note_on_c, 0, 69, 69
2, 20709, Note_on_c, 0, 69, 0
2, 20710, Note_on_c, 0, 67, 69
2, 20722, Note_on_c, 0, 67, 0
2, 20723, Note_on_c, 0, 69, 69
2, 20735, Note_on_c, 0, 69, 0
2, 20736, Note_on_c, 0, 67, 69
2, 20825, Note_on_c, 0, 67, 0
2, 20880, Note_on_c, 0, 69, 69
2, 20892, Note_on_c, 0, 69, 0
2, 20892, Note_on_c, 0, 67, 69
2, 20904, Note_on_c, 0, 67, 0
2, 20904, Note_on_c, 0, 66, 69
2, 20916, Note_on_c, 0, 66, 0
2, 20916, Note_on_c, 0, 64, 69
2, 20928, Note_on_c, 0, 64, 0
2, 20928, Note_on_c, 0, 62, 69
2, 20948, Note_on_c, 0, 62, 0
2, 20976, Note_on_c, 0, 74, 69
2, 20976, Note_on_c, 0, 71, 69
2, 21021, Note_on_c, 0, 74, 0
2, 21021, Note_on_c, 0, 71, 0
2, 21024, Note_on_c, 0, 73, 69
2, 21024, Note_on_c, 0, 69, 69
2, 21069, Note_on_c, 0, 73, 0
2, 21069, Note_on_c, 0, 69, 0
2, 21072, Note_on_c, 0, 71, 69
2, 21072, Note_on_c, 0, 67, 69
2, 21117, Note_on_c, 0, 71, 0
2, 21117, Note_on_c, 0, 67, 0
2, 21120, Note_on_c, 0, 69, 69
2, 21120, Note_on_c, 0, 66, 69
2, 21264, Note_on_c, 0, 69, 0
2, 21264, Note_on_c, 0, 66, 0
2, 21264, Note_on_c, 0, 71, 69
2, 21264, Note_on_c, 0, 67, 69
2, 21309, Note_on_c, 0, 71, 0
2, 21309, Note_on_c, 0, 67, 0
2, 21312, Note_on_c, 0, 72, 69
2, 21312, Note_on_c, 0, 69, 69
2, 21445, Note_on_c, 0, 72, 0
2, 21445, Note_on_c, 0, 69, 0
2, 21456, Note_on_c, 0, 76, 69
2, 21471, Note_on_c, 0, 76, 0
2, 21472, Note_on_c, 0, 74, 69
2, 21487, Note_on_c, 0, 74, 0
2, 21488, Note_on_c, 0, 72, 69
2, 21503, Note_on_c, 0, 72, 0
2, 21504, Note_on_c, 0, 71, 69
2, 21524, Note_on_c, 0, 71, 0
2, 21552, Note_on_c, 0, 79, 69
2, 21552, Note_on_c, 0, 76, 69
2, 21597, Note_on_c, 0, 79, 0
2, 21597, Note_on_c, 0, 76, 0
2, 21600, Note_on_c, 0, 78, 69
2, 21600, Note_on_c, 0, 74, 69
2, 21645, Note_on_c, 0, 78, 0
2, 21645, Note_on_c, 0, 74, 0
2, 21648, Note_on_c, 0, 76, 69
2, 21648, Note_on_c, 0, 72, 69
2, 21693, Note_on_c, 0, 76, 0
2, 21693, Note_on_c, 0, 72, 0
2, 21696, Note_on_c, 0, 74, 69
2, 21696, Note_on_c, 0, 71, 69
2, 21840, Note_on_c, 0, 74, 0
2, 21840, Note_on_c, 0, 71, 0
2, 21840, Note_on_c, 0, 76, 69
2, 21840, Note_on_c, 0, 72, 69
2, 21885, Note_on_c, 0, 76, 0
2, 21885, Note_on_c, 0, 72, 0
2, 21888, Note_on_c, 0, 77, 69
2, 21888, Note_on_c, 0, 74, 69
2, 22021, Note_on_c, 0, 77, 0
2, 22021, Note_on_c, 0, 74, 0
2, 22032, Note_on_c, 0, 81, 69
2, 22047, Note_on_c, 0, 81, 0
2, 22048, Note_on_c, 0, 79, 69
2, 22063, Note_on_c, 0, 79, 0
2, 22064, Note_on_c, 0, 77, 69
2, 22079, Note_on_c, 0, 77, 0
2, 22080, Note_on_c, 0, 76, 69
2, 22128, Note_on_c, 0, 76, 0
2, 22128, Note_on_c, 0, 79, 69
2, 22173, Note_on_c, 0, 79, 0
2, 22224, Note_on_c, 0, 79, 69
2, 22244, Note_on_c, 0, 79, 0
2, 22272, Note_on_c, 0, 77, 69
2, 22320, Note_on_c, 0, 77, 0
2, 22320, Note_on_c, 0, 74, 69
2, 22365, Note_on_c, 0, 74, 0
2, 22416, Note_on_c, 0, 77, 69
2, 22436, Note_on_c, 0, 77, 0
2, 22464, Note_on_c, 0, 76, 69
2, 22512, Note_on_c, 0, 76, 0
2, 22512, Note_on_c, 0, 79, 69
2, 22557, Note_on_c, 0, 79, 0
2, 22608, Note_on_c, 0, 79, 69
2, 22628, Note_on_c, 0, 79, 0
2, 22656, Note_on_c, 0, 77, 69
2, 22704, Note_on_c, 0, 77, 0
2, 22704, Note_on_c, 0, 74, 69
2, 22749, Note_on_c, 0, 74, 0
2, 22800, Note_on_c, 0, 77, 69
2, 22820, Note_on_c, 0, 77, 0
2, 22848, Note_on_c, 0, 76, 69
2, 22896, Note_on_c, 0, 76, 0
2, 22896, Note_on_c, 0, 79, 69
2, 22941, Note_on_c, 0, 79, 0
2, 22992, Note_on_c, 0, 76, 69
2, 23012, Note_on_c, 0, 76, 0
2, 23040, Note_on_c, 0, 76, 69
2, 23088, Note_on_c, 0, 76, 0
2, 23088, Note_on_c, 0, 81, 69
2, 23133, Note_on_c, 0, 81, 0
2, 23184, Note_on_c, 0, 79, 69
2, 23204, Note_on_c, 0, 79, 0
2, 23232, Note_on_c, 0, 78, 69
2, 23280, Note_on_c, 0, 78, 0
2, 23280, Note_on_c, 0, 74, 69
2, 23325, Note_on_c, 0, 74, 0
2, 23376, Note_on_c, 0, 78, 69
2, 23396, Note_on_c, 0, 78, 0
2, 23424, Note_on_c, 0, 76, 69
2, 23472, Note_on_c, 0, 76, 0
2, 23472, Note_on_c, 0, 81, 69
2, 23517, Note_on_c, 0, 81, 0
2, 23568, Note_on_c, 0, 79, 69
2, 23588, Note_on_c, 0, 79, 0
2, 23616, Note_on_c, 0, 78, 69
2, 23664, Note_on_c, 0, 78, 0
2, 23664, Note_on_c, 0, 74, 69
2, 23709, Note_on_c, 0, 74, 0
2, 23760, Note_on_c, 0, 78, 69
2, 23780, Note_on_c, 0, 78, 0
2, 23808, Note_on_c, 0, 78, 70
2, 23856, Note_on_c, 0, 78, 0
2, 23856, Note_on_c, 0, 83, 70
2, 23901, Note_on_c, 0, 83, 0
2, 23952, Note_on_c, 0, 81, 70
2, 23972, Note_on_c, 0, 81, 0
2, 24000, Note_on_c, 0, 79, 71
2, 24048, Note_on_c, 0, 79, 0
2, 24048, Note_on_c, 0, 76, 71
2, 24093, Note_on_c, 0, 76, 0
2, 24144, Note_on_c, 0, 79, 71
2, 24164, Note_on_c, 0, 79, 0
2, 24192, Note_on_c, 0, 78, 72
2, 24240, Note_on_c, 0, 78, 0
2, 24240, Note_on_c, 0, 83, 72
2, 24285, Note_on_c, 0, 83, 0
2, 24336, Note_on_c, 0, 81, 72
2, 24356, Note_on_c, 0, 81, 0
2, 24384, Note_on_c, 0, 79, 73
2, 24404, Note_on_c, 0, 79, 0
2, 24432, Note_on_c, 0, 71, 73
2, 24447, Note_on_c, 0, 71, 0
2, 24448, Note_on_c, 0, 73, 73
2, 24463, Note_on_c, 0, 73, 0
2, 24464, Note_on_c, 0, 75, 73
2, 24479, Note_on_c, 0, 75, 0
2, 24480, Note_on_c, 0, 76, 73
2, 24495, Note_on_c, 0, 76, 0
2, 24496, Note_on_c, 0, 78, 73
2, 24511, Note_on_c, 0, 78, 0
2, 24512, Note_on_c, 0, 79, 73
2, 24527, Note_on_c, 0, 79, 0
2, 24528, Note_on_c, 0, 78, 73
2, 24543, Note_on_c, 0, 78, 0
2, 24544, Note_on_c, 0, 79, 73
2, 24559, Note_on_c, 0, 79, 0
2, 24560, Note_on_c, 0, 81, 73
2, 24575, Note_on_c, 0, 81, 0
2, 24576, Note_on_c, 0, 79, 73
2, 24596, Note_on_c, 0, 79, 0
2, 24624, Note_on_c, 0, 71, 73
2, 24639, Note_on_c, 0, 71, 0
2, 24640, Note_on_c, 0, 73, 73
2, 24655, Note_on_c, 0, 73, 0
2, 24656, Note_on_c, 0, 75, 73
2, 24671, Note_on_c, 0, 75, 0
2, 24672, Note_on_c, 0, 76, 73
2, 24687, Note_on_c, 0, 76, 0
2, 24688, Note_on_c, 0, 78, 73
2, 24703, Note_on_c, 0, 78, 0
2, 24704, Note_on_c, 0, 79, 73
2, 24719, Note_on_c, 0, 79, 0
2, 24720, Note_on_c, 0, 78, 73
2, 24735, Note_on_c, 0, 78, 0
2, 24736, Note_on_c, 0, 79, 73
2, 24751, Note_on_c, 0, 79, 0
2, 24752, Note_on_c, 0, 81, 73
2, 24767, Note_on_c, 0, 81, 0
2, 24768, Note_on_c, 0, 79, 73
2, 24788, Note_on_c, 0, 79, 0
2, 24816, Note_on_c, 0, 83, 73
2, 24831, Note_on_c, 0, 83, 0
2, 24832, Note_on_c, 0, 81, 73
2, 24847, Note_on_c, 0, 81, 0
2, 24848, Note_on_c, 0, 79, 73
2, 24863, Note_on_c, 0, 79, 0
2, 24864, Note_on_c, 0, 84, 73
2, 24884, Note_on_c, 0, 84, 0
2, 24912, Note_on_c, 0, 81, 73
2, 24927, Note_on_c, 0, 81, 0
2, 24928, Note_on_c, 0, 79, 73
2, 24943, Note_on_c, 0, 79, 0
2, 24944, Note_on_c, 0, 78, 73
2, 24959, Note_on_c, 0, 78, 0
2, 24960, Note_on_c, 0, 76, 73
2, 25049, Note_on_c, 0, 76, 0
2, 25056, Note_on_c, 0, 78, 73
2, 25069, Note_on_c, 0, 78, 0
2, 25070, Note_on_c, 0, 79, 73
2, 25083, Note_on_c, 0, 79, 0
2, 25084, Note_on_c, 0, 78, 73
2, 25097, Note_on_c, 0, 78, 0
2, 25098, Note_on_c, 0, 79, 73
2, 25111, Note_on_c, 0, 79, 0
2, 25112, Note_on_c, 0, 78, 73
2, 25125, Note_on_c, 0, 78, 0
2, 25126, Note_on_c, 0, 79, 73
2, 25138, Note_on_c, 0, 79, 0
2, 25139, Note_on_c, 0, 78, 73
2, 25151, Note_on_c, 0, 78, 0
2, 25152, Note_on_c, 0, 79, 73
2, 25172, Note_on_c, 0, 79, 0
2, 25200, Note_on_c, 0, 83, 73
2, 25215, Note_on_c, 0, 83, 0
2, 25216, Note_on_c, 0, 81, 73
2, 25231, Note_on_c, 0, 81, 0
2, 25232, Note_on_c, 0, 79, 73
2, 25247, Note_on_c, 0, 79, 0
2, 25248, Note_on_c, 0, 84, 73
2, 25268, Note_on_c, 0, 84, 0
2, 25296, Note_on_c, 0, 81, 73
2, 25311, Note_on_c, 0, 81, 0
2, 25312, Note_on_c, 0, 79, 73
2, 25327, Note_on_c, 0, 79, 0
2, 25328, Note_on_c, 0, 78, 73
2, 25343, Note_on_c, 0, 78, 0
2, 25344, Note_on_c, 0, 76, 73
2, 25433, Note_on_c, 0, 76, 0
2, 25440, Note_on_c, 0, 78, 73
2, 25453, Note_on_c, 0, 78, 0
2, 25454, Note_on_c, 0, 79, 73
2, 25467, Note_on_c, 0, 79, 0
2, 25468, Note_on_c, 0, 78, 73
2, 25481, Note_on_c, 0, 78, 0
2, 25482, Note_on_c, 0, 79, 73
2, 25495, Note_on_c, 0, 79, 0
2, 25496, Note_on_c, 0, 78, 73
2, 25509, Note_on_c, 0, 78, 0
2, 25510, Note_on_c, 0, 76, 73
2, 25522, Note_on_c, 0, 76, 0
2, 25523, Note_on_c, 0, 78, 73
2, 25535, Note_on_c, 0, 78, 0
2, 25536, Note_on_c, 0, 76, 73
2, 25625, Note_on_c, 0, 76, 0
2, 25776, Note_on_c, 0, 79, 73
2, 25776, Note_on_c, 0, 71, 73
2, 25796, Note_on_c, 0, 79, 0
2, 25796, Note_on_c, 0, 71, 0
2, 25824, Note_on_c, 0, 79, 73
2, 25824, Note_on_c, 0, 71, 73
2, 25918, Note_on_c, 0, 79, 0
2, 25918, Note_on_c, 0, 71, 0
2, 25968, Note_on_c, 0, 81, 73
2, 25968, Note_on_c, 0, 72, 73
2, 25988, Note_on_c, 0, 81, 0
2, 25988, Note_on_c, 0, 72, 0
2, 26016, Note_on_c, 0, 81, 73
2, 26016, Note_on_c, 0, 72, 73
2, 26110, Note_on_c, 0, 81, 0
2, 26110, Note_on_c, 0, 72, 0
2, 26160, Note_on_c, 0, 78, 73
2, 26160, Note_on_c, 0, 69, 73
2, 26180, Note_on_c, 0, 78, 0
2, 26180, Note_on_c, 0, 69, 0
2, 26208, Note_on_c, 0, 78, 73
2, 26208, Note_on_c, 0, 69, 73
2, 26302, Note_on_c, 0, 78, 0
2, 26302, Note_on_c, 0, 69, 0
2, 26352, Note_on_c, 0, 79, 73
2, 26352, Note_on_c, 0, 71, 73
2, 26372, Note_on_c, 0, 79, 0
2, 26372, Note_on_c, 0, 71, 0
2, 26400, Note_on_c, 0, 79, 73
2, 26400, Note_on_c, 0, 71, 73
2, 26447, Note_on_c, 0, 79, 0
2, 26447, Note_on_c, 0, 71, 0
2, 26448, Note_on_c, 0, 74, 69
2, 26460, Note_on_c, 0, 74, 0
2, 26460, Note_on_c, 0, 72, 69
2, 26472, Note_on_c, 0, 72, 0
2, 26472, Note_on_c, 0, 71, 69
2, 26484, Note_on_c, 0, 71, 0
2, 26484, Note_on_c, 0, 69, 69
2, 26496, Note_on_c, 0, 69, 0
2, 26496, Note_on_c, 0, 67, 69
2, 26516, Note_on_c, 0, 67, 0
2, 26544, Note_on_c, 0, 79, 69
2, 26544, Note_on_c, 0, 76, 69
2, 26589, Note_on_c, 0, 79, 0
2, 26589, Note_on_c, 0, 76, 0
2, 26592, Note_on_c, 0, 78, 69
2, 26592, Note_on_c, 0, 74, 69
2, 26637, Note_on_c, 0, 78, 0
2, 26637, Note_on_c, 0, 74, 0
2, 26640, Note_on_c, 0, 76, 69
2, 26640, Note_on_c, 0, 72, 69
2, 26685, Note_on_c, 0, 76, 0
2, 26685, Note_on_c, 0, 72, 0
2, 26688, Note_on_c, 0, 74, 69
2, 26688, Note_on_c, 0, 71, 69
2, 26821, Note_on_c, 0, 74, 0
2, 26821, Note_on_c, 0, 71, 0
2, 26832, Note_on_c, 0, 76, 69
2, 26847, Note_on_c, 0, 76, 0
2, 26848, Note_on_c, 0, 74, 69
2, 26863, Note_on_c, 0, 74, 0
2, 26864, Note_on_c, 0, 72, 69
2, 26879, Note_on_c, 0, 72, 0
2, 26880, Note_on_c, 0, 71, 69
2, 27013, Note_on_c, 0, 71, 0
2, 27024, Note_on_c, 0, 71, 69
2, 27036, Note_on_c, 0, 71, 0
2, 27036, Note_on_c, 0, 69, 69
2, 27048, Note_on_c, 0, 69, 0
2, 27048, Note_on_c, 0, 67, 69
2, 27060, Note_on_c, 0, 67, 0
2, 27060, Note_on_c, 0, 66, 69
2, 27072, Note_on_c, 0, 66, 0
2, 27072, Note_on_c, 0, 64, 69
2, 27092, Note_on_c, 0, 64, 0
2, 27120, Note_on_c, 0, 76, 69
2, 27120, Note_on_c, 0, 72, 69
2, 27165, Note_on_c, 0, 76, 0
2, 27165, Note_on_c, 0, 72, 0
2, 27168, Note_on_c, 0, 74, 69
2, 27168, Note_on_c, 0, 71, 69
2, 27213, Note_on_c, 0, 74, 0
2, 27213, Note_on_c, 0, 71, 0
2, 27216, Note_on_c, 0, 72, 69
2, 27216, Note_on_c, 0, 69, 69
2, 27261, Note_on_c, 0, 72, 0
2, 27261, Note_on_c, 0, 69, 0
2, 27264, Note_on_c, 0, 72, 69
2, 27264, Note_on_c, 0, 69, 69
2, 27360, Note_on_c, 0, 72, 0
2, 27360, Note_on_c, 0, 69, 0
2, 27360, Note_on_c, 0, 71, 69
2, 27360, Note_on_c, 0, 67, 69
2, 27408, Note_on_c, 0, 67, 0
2, 27420, Note_on_c, 0, 71, 0
2, 27420, Note_on_c, 0, 69, 69
2, 27432, Note_on_c, 0, 69, 0
2, 27432, Note_on_c, 0, 67, 69
2, 27444, Note_on_c, 0, 67, 0
2, 27444, Note_on_c, 0, 66, 69
2, 27456, Note_on_c, 0, 66, 0
2, 27456, Note_on_c, 0, 64, 69
2, 27476, Note_on_c, 0, 64, 0
2, 27504, Note_on_c, 0, 72, 69
2, 27504, Note_on_c, 0, 69, 69
2, 27549, Note_on_c, 0, 72, 0
2, 27549, Note_on_c, 0, 69, 0
2, 27552, Note_on_c, 0, 72, 69
2, 27552, Note_on_c, 0, 69, 69
2, 27597, Note_on_c, 0, 72, 0
2, 27597, Note_on_c, 0, 69, 0
2, 27600, Note_on_c, 0, 71, 69
2, 27600, Note_on_c, 0, 67, 69
2, 27645, Note_on_c, 0, 71, 0
2, 27645, Note_on_c, 0, 67, 0
2, 27648, Note_on_c, 0, 71, 69
2, 27648, Note_on_c, 0, 67, 69
2, 27744, Note_on_c, 0, 71, 0
2, 27744, Note_on_c, 0, 67, 0
2, 27744, Note_on_c, 0, 69, 69
2, 27744, Note_on_c, 0, 66, 69
2, 27789, Note_on_c, 0, 69, 0
2, 27789, Note_on_c, 0, 66, 0
2, 27792, Note_on_c, 0, 74, 69
2, 27804, Note_on_c, 0, 74, 0
2, 27804, Note_on_c, 0, 72, 69
2, 27816, Note_on_c, 0, 72, 0
2, 27816, Note_on_c, 0, 71, 69
2, 27828, Note_on_c, 0, 71, 0
2, 27828, Note_on_c, 0, 69, 69
2, 27840, Note_on_c, 0, 69, 0
2, 27840, Note_on_c, 0, 67, 69
2, 27860, Note_on_c, 0, 67, 0
2, 27888, Note_on_c, 0, 79, 69
2, 27911, Note_on_c, 0, 79, 0
2, 27912, Note_on_c, 0, 67, 69
2, 27935, Note_on_c, 0, 67, 0
2, 27936, Note_on_c, 0, 78, 69
2, 27959, Note_on_c, 0, 78, 0
2, 27960, Note_on_c, 0, 67, 69
2, 27983, Note_on_c, 0, 67, 0
2, 27984, Note_on_c, 0, 76, 69
2, 28007, Note_on_c, 0, 76, 0
2, 28008, Note_on_c, 0, 67, 69
2, 28031, Note_on_c, 0, 67, 0
2, 28032, Note_on_c, 0, 74, 69
2, 28055, Note_on_c, 0, 74, 0
2, 28056, Note_on_c, 0, 67, 69
2, 28079, Note_on_c, 0, 67, 0
2, 28080, Note_on_c, 0, 72, 69
2, 28103, Note_on_c, 0, 72, 0
2, 28104, Note_on_c, 0, 67, 69
2, 28127, Note_on_c, 0, 67, 0
2, 28128, Note_on_c, 0, 71, 69
2, 28148, Note_on_c, 0, 71, 0
2, 28176, Note_on_c, 0, 74, 69
2, 28188, Note_on_c, 0, 74, 0
2, 28188, Note_on_c, 0, 72, 69
2, 28200, Note_on_c, 0, 72, 0
2, 28200, Note_on_c, 0, 71, 69
2, 28212, Note_on_c, 0, 71, 0
2, 28212, Note_on_c, 0, 69, 69
2, 28224, Note_on_c, 0, 69, 0
2, 28224, Note_on_c, 0, 67, 69
2, 28244, Note_on_c, 0, 67, 0
2, 28272, Note_on_c, 0, 79, 69
2, 28295, Note_on_c, 0, 79, 0
2, 28296, Note_on_c, 0, 67, 69
2, 28319, Note_on_c, 0, 67, 0
2, 28320, Note_on_c, 0, 78, 69
2, 28343, Note_on_c, 0, 78, 0
2, 28344, Note_on_c, 0, 67, 69
2, 28367, Note_on_c, 0, 67, 0
2, 28368, Note_on_c, 0, 76, 69
2, 28391, Note_on_c, 0, 76, 0
2, 28392, Note_on_c, 0, 67, 69
2, 28415, Note_on_c, 0, 67, 0
2, 28416, Note_on_c, 0, 74, 69
2, 28439, Note_on_c, 0, 74, 0
2, 28440, Note_on_c, 0, 67, 69
2, 28463, Note_on_c, 0, 67, 0
2, 28464, Note_on_c, 0, 72, 69
2, 28487, Note_on_c, 0, 72, 0
2, 28488, Note_on_c, 0, 67, 69
2, 28511, Note_on_c, 0, 67, 0
2, 28512, Note_on_c, 0, 71, 69
2, 28532, Note_on_c, 0, 71, 0
2, 28560, Note_on_c, 0, 74, 69
2, 28580, Note_on_c, 0, 74, 0
2, 28608, Note_on_c, 0, 72, 69
2, 28656, Note_on_c, 0, 72, 0
2, 28656, Note_on_c, 0, 69, 69
2, 28701, Note_on_c, 0, 69, 0
2, 28752, Note_on_c, 0, 72, 69
2, 28752, Note_on_c, 0, 69, 69
2, 28772, Note_on_c, 0, 72, 0
2, 28772, Note_on_c, 0, 69, 0
2, 28800, Note_on_c, 0, 71, 69
2, 28848, Note_on_c, 0, 71, 0
2, 28848, Note_on_c, 0, 74, 69
2, 28893, Note_on_c, 0, 74, 0
2, 28944, Note_on_c, 0, 74, 69
2, 28964, Note_on_c, 0, 74, 0
2, 28992, Note_on_c, 0, 72, 69
2, 29040, Note_on_c, 0, 72, 0
2, 29040, Note_on_c, 0, 69, 69
2, 29085, Note_on_c, 0, 69, 0
2, 29136, Note_on_c, 0, 72, 69
2, 29136, Note_on_c, 0, 69, 69
2, 29156, Note_on_c, 0, 72, 0
2, 29156, Note_on_c, 0, 69, 0
2, 29184, Note_on_c, 0, 71, 69
2, 29232, Note_on_c, 0, 71, 0
2, 29232, Note_on_c, 0, 74, 69
2, 29277, Note_on_c, 0, 74, 0
2, 29328, Note_on_c, 0, 74, 69
2, 29348, Note_on_c, 0, 74, 0
2, 29376, Note_on_c, 0, 72, 69
2, 29424, Note_on_c, 0, 72, 0
2, 29424, Note_on_c, 0, 69, 69
2, 29469, Note_on_c, 0, 69, 0
2, 29520, Note_on_c, 0, 72, 69
2, 29520, Note_on_c, 0, 69, 69
2, 29540, Note_on_c, 0, 72, 0
2, 29540, Note_on_c, 0, 69, 0
2, 29568, Note_on_c, 0, 71, 69
2, 29568, Note_on_c, 0, 67, 69
2, 29613, Note_on_c, 0, 71, 0
2, 29613, Note_on_c, 0, 67, 0
2, 29616, Note_on_c, 0, 62, 69
2, 29631, Note_on_c, 0, 62, 0
2, 29632, Note_on_c, 0, 64, 69
2, 29647, Note_on_c, 0, 64, 0
2, 29648, Note_on_c, 0, 66, 69
2, 29663, Note_on_c, 0, 66, 0
2, 29664, Note_on_c, 0, 67, 69
2, 29679, Note_on_c, 0, 67, 0
2, 29680, Note_on_c, 0, 69, 69
2, 29695, Note_on_c, 0, 69, 0
2, 29696, Note_on_c, 0, 71, 69
2, 29711, Note_on_c, 0, 71, 0
2, 29712, Note_on_c, 0, 69, 69
2, 29727, Note_on_c, 0, 69, 0
2, 29728, Note_on_c, 0, 71, 69
2, 29743, Note_on_c, 0, 71, 0
2, 29744, Note_on_c, 0, 72, 69
2, 29759, Note_on_c, 0, 72, 0
2, 29760, Note_on_c, 0, 71, 69
2, 29805, Note_on_c, 0, 71, 0
2, 29808, Note_on_c, 0, 62, 69
2, 29823, Note_on_c, 0, 62, 0
2, 29824, Note_on_c, 0, 64, 69
2, 29839, Note_on_c, 0, 64, 0
2, 29840, Note_on_c, 0, 66, 69
2, 29855, Note_on_c, 0, 66, 0
2, 29856, Note_on_c, 0, 67, 69
2, 29871, Note_on_c, 0, 67, 0
2, 29872, Note_on_c, 0, 69, 69
2, 29887, Note_on_c, 0, 69, 0
2, 29888, Note_on_c, 0, 71, 69
2, 29903, Note_on_c, 0, 71, 0
2, 29904, Note_on_c, 0, 69, 69
2, 29919, Note_on_c, 0, 69, 0
2, 29920, Note_on_c, 0, 71, 69
2, 29935, Note_on_c, 0, 71, 0
2, 29936, Note_on_c, 0, 72, 69
2, 29951, Note_on_c, 0, 72, 0
2, 29952, Note_on_c, 0, 71, 69
2, 29972, Note_on_c, 0, 71, 0
2, 30000, Note_on_c, 0, 74, 69
2, 30015, Note_on_c, 0, 74, 0
2, 30016, Note_on_c, 0, 72, 69
2, 30031, Note_on_c, 0, 72, 0
2, 30032, Note_on_c, 0, 71, 69
2, 30047, Note_on_c, 0, 71, 0
2, 30048, Note_on_c, 0, 76, 69
2, 30068, Note_on_c, 0, 76, 0
2, 30096, Note_on_c, 0, 72, 69
2, 30111, Note_on_c, 0, 72, 0
2, 30112, Note_on_c, 0, 71, 69
2, 30127, Note_on_c, 0, 71, 0
2, 30128, Note_on_c, 0, 69, 69
2, 30143, Note_on_c, 0, 69, 0
2, 30144, Note_on_c, 0, 67, 69
2, 30233, Note_on_c, 0, 67, 0
2, 30240, Note_on_c, 0, 69, 69
2, 30253, Note_on_c, 0, 69, 0
2, 30254, Note_on_c, 0, 71, 69
2, 30267, Note_on_c, 0, 71, 0
2, 30268, Note_on_c, 0, 69, 69
2, 30281, Note_on_c, 0, 69, 0
2, 30282, Note_on_c, 0, 71, 69
2, 30295, Note_on_c, 0, 71, 0
2, 30296, Note_on_c, 0, 69, 69
2, 30309, Note_on_c, 0, 69, 0
2, 30310, Note_on_c, 0, 71, 69
2, 30322, Note_on_c, 0, 71, 0
2, 30323, Note_on_c, 0, 69, 69
2, 30335, Note_on_c, 0, 69, 0
2, 30336, Note_on_c, 0, 71, 69
2, 30356, Note_on_c, 0, 71, 0
2, 30384, Note_on_c, 0, 74, 69
2, 30399, Note_on_c, 0, 74, 0
2, 30400, Note_on_c, 0, 72, 69
2, 30415, Note_on_c, 0, 72, 0
2, 30416, Note_on_c, 0, 71, 69
2, 30431, Note_on_c, 0, 71, 0
2, 30432, Note_on_c, 0, 76, 69
2, 30452, Note_on_c, 0, 76, 0
2, 30480, Note_on_c, 0, 72, 69
2, 30495, Note_on_c, 0, 72, 0
2, 30496, Note_on_c, 0, 71, 69
2, 30511, Note_on_c, 0, 71, 0
2, 30512, Note_on_c, 0, 69, 69
2, 30527, Note_on_c, 0, 69, 0
2, 30528, Note_on_c, 0, 67, 69
2, 30617, Note_on_c, 0, 67, 0
2, 30624, Note_on_c, 0, 69, 69
2, 30637, Note_on_c, 0, 69, 0
2, 30638, Note_on_c, 0, 71, 69
2, 30651, Note_on_c, 0, 71, 0
2, 30652, Note_on_c, 0, 69, 69
2, 30665, Note_on_c, 0, 69, 0
2, 30666, Note_on_c, 0, 71, 69
2, 30679, Note_on_c, 0, 71, 0
2, 30680, Note_on_c, 0, 69, 69
2, 30693, Note_on_c, 0, 69, 0
2, 30694, Note_on_c, 0, 67, 69
2, 30706, Note_on_c, 0, 67, 0
2, 30707, Note_on_c, 0, 69, 69
2, 30719, Note_on_c, 0, 69, 0
2, 30720, Note_on_c, 0, 67, 69
2, 30853, Note_on_c, 0, 67, 0
2, 31104, End_track
3, 0, Start_track
3, 0, Program_c, 0, 0
3, 0, Control_c, 0, 7, 127
3, 0, Control_c, 0, 10, 64
3, 3456, Note_on_c, 0, 74, 64
3, 3504, Note_on_c, 0, 74, 0
3, 3504, Note_on_c, 0, 78, 64
3, 3549, Note_on_c, 0, 78, 0
3, 3840, Note_on_c, 0, 74, 64
3, 3888, Note_on_c, 0, 74, 0
3, 3888, Note_on_c, 0, 78, 64
3, 3933, Note_on_c, 0, 78, 0
3, 8832, Note_on_c, 0, 74, 64
3, 8880, Note_on_c, 0, 74, 0
3, 8880, Note_on_c, 0, 78, 64
3, 8925, Note_on_c, 0, 78, 0
3, 9216, Note_on_c, 0, 74, 64
3, 9264, Note_on_c, 0, 74, 0
3, 9264, Note_on_c, 0, 78, 64
3, 9309, Note_on_c, 0, 78, 0
3, 12096, Note_on_c, 0, 60, 61
3, 12119, Note_on_c, 0, 60, 0
3, 12120, Note_on_c, 0, 67, 61
3, 12143, Note_on_c, 0, 67, 0
3, 12144, Note_on_c, 0, 60, 61
3, 12167, Note_on_c, 0, 60, 0
3, 12168, Note_on_c, 0, 67, 61
3, 12191, Note_on_c, 0, 67, 0
3, 12192, Note_on_c, 0, 60, 61
3, 12215, Note_on_c, 0, 60, 0
3, 12216, Note_on_c, 0, 67, 61
3, 12239, Note_on_c, 0, 67, 0
3, 12240, Note_on_c, 0, 60, 61
3, 12263, Note_on_c, 0, 60, 0
3, 12264, Note_on_c, 0, 67, 61
3, 12287, Note_on_c, 0, 67, 0
3, 12288, Note_on_c, 0, 62, 61
3, 12311, Note_on_c, 0, 62, 0
3, 12312, Note_on_c, 0, 67, 61
3, 12335, Note_on_c, 0, 67, 0
3, 12336, Note_on_c, 0, 62, 61
3, 12359, Note_on_c, 0, 62, 0
3, 12360, Note_on_c, 0, 67, 61
3, 12383, Note_on_c, 0, 67, 0
3, 12384, Note_on_c, 0, 62, 61
3, 12407, Note_on_c, 0, 62, 0
3, 12408, Note_on_c, 0, 67, 61
3, 12431, Note_on_c, 0, 67, 0
3, 12432, Note_on_c, 0, 62, 61
3, 12455, Note_on_c, 0, 62, 0
3, 12456, Note_on_c, 0, 67, 61
3, 12479, Note_on_c, 0, 67, 0
3, 12480, Note_on_c, 0, 60, 61
3, 12503, Note_on_c, 0, 60, 0
3, 12504, Note_on_c, 0, 67, 61
3, 12527, Note_on_c, 0, 67, 0
3, 12528, Note_on_c, 0, 60, 61
3, 12551, Note_on_c, 0, 60, 0
3, 12552, Note_on_c, 0, 67, 61
3, 12575, Note_on_c, 0, 67, 0
3, 12576, Note_on_c, 0, 60, 61
3, 12599, Note_on_c, 0, 60, 0
3, 12600, Note_on_c, 0, 67, 61
3, 12623, Note_on_c, 0, 67, 0
3, 12624, Note_on_c, 0, 60, 61
3, 12647, Note_on_c, 0, 60, 0
3, 12648, Note_on_c, 0, 67, 61
3, 12671, Note_on_c, 0, 67, 0
3, 12672, Note_on_c, 0, 62, 61
3, 12695, Note_on_c, 0, 62, 0
3, 12696, Note_on_c, 0, 67, 61
3, 12719, Note_on_c, 0, 67, 0
3, 12720, Note_on_c, 0, 62, 61
3, 12743, Note_on_c, 0, 62, 0
3, 12744, Note_on_c, 0, 67, 61
3, 12767, Note_on_c, 0, 67, 0
3, 12768, Note_on_c, 0, 62, 61
3, 12791, Note_on_c, 0, 62, 0
3, 12792, Note_on_c, 0, 67, 61
3, 12815, Note_on_c, 0, 67, 0
3, 12816, Note_on_c, 0, 62, 61
3, 12839, Note_on_c, 0, 62, 0
3, 12840, Note_on_c, 0, 67, 61
3, 12863, Note_on_c, 0, 67, 0
3, 12864, Note_on_c, 0, 60, 61
3, 12887, Note_on_c, 0, 60, 0
3, 12888, Note_on_c, 0, 67, 61
3, 12911, Note_on_c, 0, 67, 0
3, 12912, Note_on_c, 0, 60, 61
3, 12935, Note_on_c, 0, 60, 0
3, 12936, Note_on_c, 0, 67, 61
3, 12959, Note_on_c, 0, 67, 0
3, 12960, Note_on_c, 0, 60, 61
3, 12983, Note_on_c, 0, 60, 0
3, 12984, Note_on_c, 0, 67, 61
3, 13007, Note_on_c, 0, 67, 0
3, 13008, Note_on_c, 0, 60, 61
3, 13031, Note_on_c, 0, 60, 0
3, 13032, Note_on_c, 0, 67, 61
3, 13055, Note_on_c, 0, 67, 0
3, 13056, Note_on_c, 0, 61, 61
3, 13079, Note_on_c, 0, 61, 0
3, 13080, Note_on_c, 0, 69, 61
3, 13103, Note_on_c, 0, 69, 0
3, 13104, Note_on_c, 0, 61, 61
3, 13127, Note_on_c, 0, 61, 0
3, 13128, Note_on_c, 0, 69, 61
3, 13151, Note_on_c, 0, 69, 0
3, 13152, Note_on_c, 0, 61, 61
3, 13175, Note_on_c, 0, 61, 0
3, 13176, Note_on_c, 0, 69, 61
3, 13199, Note_on_c, 0, 69, 0
3, 13200, Note_on_c, 0, 61, 61
3, 13223, Note_on_c, 0, 61, 0
3, 13224, Note_on_c, 0, 69, 61
3, 13247, Note_on_c, 0, 69, 0
3, 13248, Note_on_c, 0, 62, 61
3, 13271, Note_on_c, 0, 62, 0
3, 13272, Note_on_c, 0, 69, 61
3, 13295, Note_on_c, 0, 69, 0
3, 13296, Note_on_c, 0, 62, 61
3, 13319, Note_on_c, 0, 62, 0
3, 13320, Note_on_c, 0, 69, 61
3, 13343, Note_on_c, 0, 69, 0
3, 13344, Note_on_c, 0, 62, 61
3, 13367, Note_on_c, 0, 62, 0
3, 13368, Note_on_c, 0, 69, 61
3, 13391, Note_on_c, 0, 69, 0
3, 13392, Note_on_c, 0, 62, 61
3, 13415, Note_on_c, 0, 62, 0
3, 13416, Note_on_c, 0, 69, 61
3, 13439, Note_on_c, 0, 69, 0
3, 13440, Note_on_c, 0, 61, 61
3, 13463, Note_on_c, 0, 61, 0
3, 13464, Note_on_c, 0, 69, 61
3, 13487, Note_on_c, 0, 69, 0
3, 13488, Note_on_c, 0, 61, 61
3, 13511, Note_on_c, 0, 61, 0
3, 13512, Note_on_c, 0, 69, 61
3, 13535, Note_on_c, 0, 69, 0
3, 13536, Note_on_c, 0, 61, 61
3, 13559, Note_on_c, 0, 61, 0
3, 13560, Note_on_c, 0, 69, 61
3, 13583, Note_on_c, 0, 69, 0
3, 13584, Note_on_c, 0, 61, 61
3, 13607, Note_on_c, 0, 61, 0
3, 13608, Note_on_c, 0, 69, 61
3, 13631, Note_on_c, 0, 69, 0
3, 13632, Note_on_c, 0, 62, 61
3, 13655, Note_on_c, 0, 62, 0
3, 13656, Note_on_c, 0, 69, 61
3, 13679, Note_on_c, 0, 69, 0
3, 13680, Note_on_c, 0, 62, 61
3, 13703, Note_on_c, 0, 62, 0
3, 13704, Note_on_c, 0, 69, 62
3, 13727, Note_on_c, 0, 69, 0
3, 13728, Note_on_c, 0, 62, 62
3, 13751, Note_on_c, 0, 62, 0
3, 13752, Note_on_c, 0, 69, 62
3, 13775, Note_on_c, 0, 69, 0
3, 13776, Note_on_c, 0, 62, 63
3, 13799, Note_on_c, 0, 62, 0
3, 13800, Note_on_c, 0, 69, 63
3, 13823, Note_on_c, 0, 69, 0
3, 13824, Note_on_c, 0, 63, 64
3, 13847, Note_on_c, 0, 63, 0
3, 13848, Note_on_c, 0, 71, 64
3, 13871, Note_on_c, 0, 71, 0
3, 13872, Note_on_c, 0, 63, 64
3, 13895, Note_on_c, 0, 63, 0
3, 13896, Note_on_c, 0, 71, 65
3, 13919, Note_on_c, 0, 71, 0
3, 13920, Note_on_c, 0, 63, 65
3, 13943, Note_on_c, 0, 63, 0
3, 13944, Note_on_c, 0, 71, 66
3, 13967, Note_on_c, 0, 71, 0
3, 13968, Note_on_c, 0, 63, 66
3, 13991, Note_on_c, 0, 63, 0
3, 13992, Note_on_c, 0, 71, 66
3, 14015, Note_on_c, 0, 71, 0
3, 14016, Note_on_c, 0, 64, 67
3, 14039, Note_on_c, 0, 64, 0
3, 14040, Note_on_c, 0, 71, 67
3, 14063, Note_on_c, 0, 71, 0
3, 14064, Note_on_c, 0, 64, 67
3, 14087, Note_on_c, 0, 64, 0
3, 14088, Note_on_c, 0, 71, 68
3, 14111, Note_on_c, 0, 71, 0
3, 14112, Note_on_c, 0, 64, 68
3, 14135, Note_on_c, 0, 64, 0
3, 14136, Note_on_c, 0, 71, 69
3, 14159, Note_on_c, 0, 71, 0
3, 14160, Note_on_c, 0, 64, 69
3, 14183, Note_on_c, 0, 64, 0
3, 14184, Note_on_c, 0, 71, 69
3, 14207, Note_on_c, 0, 71, 0
3, 14208, Note_on_c, 0, 63, 70
3, 14231, Note_on_c, 0, 63, 0
3, 14232, Note_on_c, 0, 71, 70
3, 14255, Note_on_c, 0, 71, 0
3, 14256, Note_on_c, 0, 63, 71
3, 14279, Note_on_c, 0, 63, 0
3, 14280, Note_on_c, 0, 71, 71
3, 14303, Note_on_c, 0, 71, 0
3, 14304, Note_on_c, 0, 63, 71
3, 14327, Note_on_c, 0, 63, 0
3, 14328, Note_on_c, 0, 71, 72
3, 14351, Note_on_c, 0, 71, 0
3, 14352, Note_on_c, 0, 63, 72
3, 14375, Note_on_c, 0, 63, 0
3, 14376, Note_on_c, 0, 71, 73
3, 14399, Note_on_c, 0, 71, 0
3, 14400, Note_on_c, 0, 64, 73
3, 14489, Note_on_c, 0, 64, 0
3, 14544, Note_on_c, 0, 63, 73
3, 14589, Note_on_c, 0, 63, 0
3, 14592, Note_on_c, 0, 64, 73
3, 14681, Note_on_c, 0, 64, 0
3, 14736, Note_on_c, 0, 63, 73
3, 14781, Note_on_c, 0, 63, 0
3, 14784, Note_on_c, 0, 64, 73
3, 14873, Note_on_c, 0, 64, 0
3, 14880, Note_on_c, 0, 69, 73
3, 14969, Note_on_c, 0, 69, 0
3, 15024, Note_on_c, 0, 67, 73
3, 15069, Note_on_c, 0, 67, 0
3, 15072, Note_on_c, 0, 69, 73
3, 15117, Note_on_c, 0, 69, 0
3, 15120, Note_on_c, 0, 71, 73
3, 15165, Note_on_c, 0, 71, 0
3, 15168, Note_on_c, 0, 64, 73
3, 15257, Note_on_c, 0, 64, 0
3, 15264, Note_on_c, 0, 69, 73
3, 15353, Note_on_c, 0, 69, 0
3, 15408, Note_on_c, 0, 67, 73
3, 15453, Note_on_c, 0, 67, 0
3, 15456, Note_on_c, 0, 69, 73
3, 15501, Note_on_c, 0, 69, 0
3, 15504, Note_on_c, 0, 71, 73
3, 15549, Note_on_c, 0, 71, 0
3, 15552, Note_on_c, 0, 64, 73
3, 15641, Note_on_c, 0, 64, 0
3, 18816, Note_on_c, 0, 67, 73
3, 18864, Note_on_c, 0, 67, 0
3, 18864, Note_on_c, 0, 71, 73
3, 18909, Note_on_c, 0, 71, 0
3, 19200, Note_on_c, 0, 67, 73
3, 19248, Note_on_c, 0, 67, 0
3, 19248, Note_on_c, 0, 71, 73
3, 19293, Note_on_c, 0, 71, 0
3, 22080, Note_on_c, 0, 60, 61
3, 22103, Note_on_c, 0, 60, 0
3, 22104, Note_on_c, 0, 67, 61
3, 22127, Note_on_c, 0, 67, 0
3, 22128, Note_on_c, 0, 60, 61
3, 22151, Note_on_c, 0, 60, 0
3, 22152, Note_on_c, 0, 67, 61
3, 22175, Note_on_c, 0, 67, 0
3, 22176, Note_on_c, 0, 60, 61
3, 22199, Note_on_c, 0, 60, 0
3, 22200, Note_on_c, 0, 67, 61
3, 22223, Note_on_c, 0, 67, 0
3, 22224, Note_on_c, 0, 60, 61
3, 22247, Note_on_c, 0, 60, 0
3, 22248, Note_on_c, 0, 67, 61
3, 22271, Note_on_c, 0, 67, 0
3, 22272, Note_on_c, 0, 62, 61
3, 22295, Note_on_c, 0, 62, 0
3, 22296, Note_on_c, 0, 67, 61
3, 22319, Note_on_c, 0, 67, 0
3, 22320, Note_on_c, 0, 62, 61
3, 22343, Note_on_c, 0, 62, 0
3, 22344, Note_on_c, 0, 67, 61
3, 22367, Note_on_c, 0, 67, 0
3, 22368, Note_on_c, 0, 62, 61
3, 22391, Note_on_c, 0, 62, 0
3, 22392, Note_on_c, 0, 67, 61
3, 22415, Note_on_c, 0, 67, 0
3, 22416, Note_on_c, 0, 62, 61
3, 22439, Note_on_c, 0, 62, 0
3, 22440, Note_on_c, 0, 67, 61
3, 22463, Note_on_c, 0, 67, 0
3, 22464, Note_on_c, 0, 60, 61
3, 22487, Note_on_c, 0, 60, 0
3, 22488, Note_on_c, 0, 67, 61
3, 22511, Note_on_c, 0, 67, 0
3, 22512, Note_on_c, 0, 60, 61
3, 22535, Note_on_c, 0, 60, 0
3, 22536, Note_on_c, 0, 67, 61
3, 22559, Note_on_c, 0, 67, 0
3, 22560, Note_on_c, 0, 60, 61
3, 22583, Note_on_c, 0, 60, 0
3, 22584, Note_on_c, 0, 67, 61
3, 22607, Note_on_c, 0, 67, 0
3, 22608, Note_on_c, 0, 60, 61
3, 22631, Note_on_c, 0, 60, 0
3, 22632, Note_on_c, 0, 67, 61
3, 22655, Note_on_c, 0, 67, 0
3, 22656, Note_on_c, 0, 62, 61
3, 22679, Note_on_c, 0, 62, 0
3, 22680, Note_on_c, 0, 67, 61
3, 22703, Note_on_c, 0, 67, 0
3, 22704, Note_on_c, 0, 62, 61
3, 22727, Note_on_c, 0, 62, 0
3, 22728, Note_on_c, 0, 67, 61
3, 22751, Note_on_c, 0, 67, 0
3, 22752, Note_on_c, 0, 62, 61
3, 22775, Note_on_c, 0, 62, 0
3, 22776, Note_on_c, 0, 67, 61
3, 22799, Note_on_c, 0, 67, 0
3, 22800, Note_on_c, 0, 62, 61
3, 22823, Note_on_c, 0, 62, 0
3, 22824, Note_on_c, 0, 67, 61
3, 22847, Note_on_c, 0, 67, 0
3, 22848, Note_on_c, 0, 60, 61
3, 22871, Note_on_c, 0, 60, 0
3, 22872, Note_on_c, 0, 67, 61
3, 22895, Note_on_c, 0, 67, 0
3, 22896, Note_on_c, 0, 60, 61
3, 22919, Note_on_c, 0, 60, 0
3, 22920, Note_on_c, 0, 67, 61
3, 22943, Note_on_c, 0, 67, 0
3, 22944, Note_on_c, 0, 60, 61
3, 22967, Note_on_c, 0, 60, 0
3, 22968, Note_on_c, 0, 67, 61
3, 22991, Note_on_c, 0, 67, 0
3, 22992, Note_on_c, 0, 60, 61
3, 23015, Note_on_c, 0, 60, 0
3, 23016, Note_on_c, 0, 67, 61
3, 23039, Note_on_c, 0, 67, 0
3, 23040, Note_on_c, 0, 61, 61
3, 23063, Note_on_c, 0, 61, 0
3, 23064, Note_on_c, 0, 69, 61
3, 23087, Note_on_c, 0, 69, 0
3, 23088, Note_on_c, 0, 61, 61
3, 23111, Note_on_c, 0, 61, 0
3, 23112, Note_on_c, 0, 69, 61
3, 23135, Note_on_c, 0, 69, 0
3, 23136, Note_on_c, 0, 61, 61
3, 23159, Note_on_c, 0, 61, 0
3, 23160, Note_on_c, 0, 69, 61
3, 23183, Note_on_c, 0, 69, 0
3, 23184, Note_on_c, 0, 61, 61
3, 23207, Note_on_c, 0, 61, 0
3, 23208, Note_on_c, 0, 69, 61
3, 23231, Note_on_c, 0, 69, 0
3, 23232, Note_on_c, 0, 62, 61
3, 23255, Note_on_c, 0, 62, 0
3, 23256, Note_on_c, 0, 69, 61
3, 23279, Note_on_c, 0, 69, 0
3, 23280, Note_on_c, 0, 62, 61
3, 23303, Note_on_c, 0, 62, 0
3, 23304, Note_on_c, 0, 69, 61
3, 23327, Note_on_c, 0, 69, 0
3, 23328, Note_on_c, 0, 62, 61
3, 23351, Note_on_c, 0, 62, 0
3, 23352, Note_on_c, 0, 69, 61
3, 23375, Note_on_c, 0, 69, 0
3, 23376, Note_on_c, 0, 62, 61
3, 23399, Note_on_c, 0, 62, 0
3, 23400, Note_on_c, 0, 69, 61
3, 23423, Note_on_c, 0, 69, 0
3, 23424, Note_on_c, 0, 61, 61
3, 23447, Note_on_c, 0, 61, 0
3, 23448, Note_on_c, 0, 69, 61
3, 23471, Note_on_c, 0, 69, 0
3, 23472, Note_on_c, 0, 61, 61
3, 23495, Note_on_c, 0, 61, 0
3, 23496, Note_on_c, 0, 69, 61
3, 23519, Note_on_c, 0, 69, 0
3, 23520, Note_on_c, 0, 61, 61
3, 23543, Note_on_c, 0, 61, 0
3, 23544, Note_on_c, 0, 69, 61
3, 23567, Note_on_c, 0, 69, 0
3, 23568, Note_on_c, 0, 61, 61
3, 23591, Note_on_c, 0, 61, 0
3, 23592, Note_on_c, 0, 69, 61
3, 23615, Note_on_c, 0, 69, 0
3, 23616, Note_on_c, 0, 62, 61
3, 23639, Note_on_c, 0, 62, 0
3, 23640, Note_on_c, 0, 69, 61
3, 23663, Note_on_c, 0, 69, 0
3, 23664, Note_on_c, 0, 62, 61
3, 23687, Note_on_c, 0, 62, 0
3, 23688, Note_on_c, 0, 69, 62
3, 23711, Note_on_c, 0, 69, 0
3, 23712, Note_on_c, 0, 62, 62
3, 23735, Note_on_c, 0, 62, 0
3, 23736, Note_on_c, 0, 69, 62
3, 23759, Note_on_c, 0, 69, 0
3, 23760, Note_on_c, 0, 62, 63
3, 23783, Note_on_c, 0, 62, 0
3, 23784, Note_on_c, 0, 69, 63
3, 23807, Note_on_c, 0, 69, 0
3, 23808, Note_on_c, 0, 63, 64
3, 23831, Note_on_c, 0, 63, 0
3, 23832, Note_on_c, 0, 71, 64
3, 23855, Note_on_c, 0, 71, 0
3, 23856, Note_on_c, 0, 63, 64
3, 23879, Note_on_c, 0, 63, 0
3, 23880, Note_on_c, 0, 71, 65
3, 23903, Note_on_c, 0, 71, 0
3, 23904, Note_on_c, 0, 63, 65
3, 23927, Note_on_c, 0, 63, 0
3, 23928, Note_on_c, 0, 71, 66
3, 23951, Note_on_c, 0, 71, 0
3, 23952, Note_on_c, 0, 63, 66
3, 23975, Note_on_c, 0, 63, 0
3, 23976, Note_on_c, 0, 71, 66
3, 23999, Note_on_c, 0, 71, 0
3, 24000, Note_on_c, 0, 64, 67
3, 24023, Note_on_c, 0, 64, 0
3, 24024, Note_on_c, 0, 71, 67
3, 24047, Note_on_c, 0, 71, 0
3, 24048, Note_on_c, 0, 64, 67
3, 24071, Note_on_c, 0, 64, 0
3, 24072, Note_on_c, 0, 71, 68
3, 24095, Note_on_c, 0, 71, 0
3, 24096, Note_on_c, 0, 64, 68
3, 24119, Note_on_c, 0, 64, 0
3, 24120, Note_on_c, 0, 71, 69
3, 24143, Note_on_c, 0, 71, 0
3, 24144, Note_on_c, 0, 64, 69
3, 24167, Note_on_c, 0, 64, 0
3, 24168, Note_on_c, 0, 71, 69
3, 24191, Note_on_c, 0, 71, 0
3, 24192, Note_on_c, 0, 63, 70
3, 24215, Note_on_c, 0, 63, 0
3, 24216, Note_on_c, 0, 71, 70
3, 24239, Note_on_c, 0, 71, 0
3, 24240, Note_on_c, 0, 63, 71
3, 24263, Note_on_c, 0, 63, 0
3, 24264, Note_on_c, 0, 71, 71
3, 24287, Note_on_c, 0, 71, 0
3, 24288, Note_on_c, 0, 63, 71
3, 24311, Note_on_c, 0, 63, 0
3, 24312, Note_on_c, 0, 71, 72
3, 24335, Note_on_c, 0, 71, 0
3, 24336, Note_on_c, 0, 63, 72
3, 24359, Note_on_c, 0, 63, 0
3, 24360, Note_on_c, 0, 71, 73
3, 24383, Note_on_c, 0, 71, 0
3, 24384, Note_on_c, 0, 64, 73
3, 24473, Note_on_c, 0, 64, 0
3, 24528, Note_on_c, 0, 63, 73
3, 24573, Note_on_c, 0, 63, 0
3, 24576, Note_on_c, 0, 64, 73
3, 24665, Note_on_c, 0, 64, 0
3, 24720, Note_on_c, 0, 63, 73
3, 24765, Note_on_c, 0, 63, 0
3, 24768, Note_on_c, 0, 64, 73
3, 24857, Note_on_c, 0, 64, 0
3, 24864, Note_on_c, 0, 69, 73
3, 24953, Note_on_c, 0, 69, 0
3, 25008, Note_on_c, 0, 67, 73
3, 25053, Note_on_c, 0, 67, 0
3, 25056, Note_on_c, 0, 69, 73
3, 25101, Note_on_c, 0, 69, 0
3, 25104, Note_on_c, 0, 71, 73
3, 25149, Note_on_c, 0, 71, 0
3, 25152, Note_on_c, 0, 64, 73
3, 25241, Note_on_c, 0, 64, 0
3, 25248, Note_on_c, 0, 69, 73
3, 25337, Note_on_c, 0, 69, 0
3, 25392, Note_on_c, 0, 67, 73
3, 25437, Note_on_c, 0, 67, 0
3, 25440, Note_on_c, 0, 69, 73
3, 25485, Note_on_c, 0, 69, 0
3, 25488, Note_on_c, 0, 71, 73
3, 25533, Note_on_c, 0, 71, 0
3, 25536, Note_on_c, 0, 64, 73
3, 25625, Note_on_c, 0, 64, 0
3, 28800, Note_on_c, 0, 67, 73
3, 28848, Note_on_c, 0, 67, 0
3, 28848, Note_on_c, 0, 71, 73
3, 28893, Note_on_c, 0, 71, 0
3, 29184, Note_on_c, 0, 67, 73
3, 29232, Note_on_c, 0, 67, 0
3, 29232, Note_on_c, 0, 71, 73
3, 29277, Note_on_c, 0, 71, 0
3, 31104, End_track
4, 0, Start_track
4, 0, Program_c, 0, 0
4, 0, Control_c, 0, 7, 127
4, 0, Control_c, 0, 10, 64
4, 432, Note_on_c, 0, 55, 69
4, 452, Note_on_c, 0, 55, 0
4, 480, Note_on_c, 0, 43, 69
4, 569, Note_on_c, 0, 43, 0
4, 624, Note_on_c, 0, 55, 69
4, 644, Note_on_c, 0, 55, 0
4, 672, Note_on_c, 0, 43, 69
4, 761, Note_on_c, 0, 43, 0
4, 768, Note_on_c, 0, 48, 69
4, 857, Note_on_c, 0, 48, 0
4, 864, Note_on_c, 0, 50, 69
4, 953, Note_on_c, 0, 50, 0
4, 960, Note_on_c, 0, 55, 69
4, 1005, Note_on_c, 0, 55, 0
4, 1008, Note_on_c, 0, 50, 69
4, 1053, Note_on_c, 0, 50, 0
4, 1056, Note_on_c, 0, 43, 69
4, 1101, Note_on_c, 0, 43, 0
4, 1152, Note_on_c, 0, 48, 69
4, 1241, Note_on_c, 0, 48, 0
4, 1248, Note_on_c, 0, 50, 69
4, 1337, Note_on_c, 0, 50, 0
4, 1344, Note_on_c, 0, 55, 69
4, 1389, Note_on_c, 0, 55, 0
4, 1392, Note_on_c, 0, 50, 69
4, 1437, Note_on_c, 0, 50, 0
4, 1440, Note_on_c, 0, 43, 69
4, 1485, Note_on_c, 0, 43, 0
4, 1776, Note_on_c, 0, 55, 69
4, 1796, Note_on_c, 0, 55, 0
4, 1824, Note_on_c, 0, 43, 69
4, 1913, Note_on_c, 0, 43, 0
4, 1968, Note_on_c, 0, 62, 69
4, 1968, Note_on_c, 0, 54, 69
4, 1988, Note_on_c, 0, 62, 0
4, 1988, Note_on_c, 0, 54, 0
4, 2016, Note_on_c, 0, 62, 69
4, 2016, Note_on_c, 0, 54, 69
4, 2110, Note_on_c, 0, 62, 0
4, 2110, Note_on_c, 0, 54, 0
4, 2160, Note_on_c, 0, 61, 69
4, 2205, Note_on_c, 0, 61, 0
4, 2208, Note_on_c, 0, 61, 69
4, 2253, Note_on_c, 0, 61, 0
4, 2256, Note_on_c, 0, 62, 69
4, 2301, Note_on_c, 0, 62, 0
4, 2304, Note_on_c, 0, 57, 69
4, 2393, Note_on_c, 0, 57, 0
4, 2544, Note_on_c, 0, 59, 69
4, 2589, Note_on_c, 0, 59, 0
4, 2592, Note_on_c, 0, 57, 69
4, 2637, Note_on_c, 0, 57, 0
4, 2640, Note_on_c, 0, 55, 69
4, 2685, Note_on_c, 0, 55, 0
4, 2688, Note_on_c, 0, 54, 69
4, 2733, Note_on_c, 0, 54, 0
4, 2736, Note_on_c, 0, 52, 69
4, 2781, Note_on_c, 0, 52, 0
4, 2784, Note_on_c, 0, 50, 69
4, 2829, Note_on_c, 0, 50, 0
4, 2928, Note_on_c, 0, 59, 69
4, 2973, Note_on_c, 0, 59, 0
4, 2976, Note_on_c, 0, 57, 69
4, 3021, Note_on_c, 0, 57, 0
4, 3024, Note_on_c, 0, 55, 69
4, 3069, Note_on_c, 0, 55, 0
4, 3072, Note_on_c, 0, 54, 69
4, 3117, Note_on_c, 0, 54, 0
4, 3120, Note_on_c, 0, 52, 69
4, 3165, Note_on_c, 0, 52, 0
4, 3168, Note_on_c, 0, 50, 69
4, 3213, Note_on_c, 0, 50, 0
4, 3264, Note_on_c, 0, 49, 61
4, 3287, Note_on_c, 0, 49, 0
4, 3288, Note_on_c, 0, 57, 61
4, 3311, Note_on_c, 0, 57, 0
4, 3312, Note_on_c, 0, 49, 61
4, 3335, Note_on_c, 0, 49, 0
4, 3336, Note_on_c, 0, 57, 61
4, 3359, Note_on_c, 0, 57, 0
4, 3360, Note_on_c, 0, 49, 61
4, 3383, Note_on_c, 0, 49, 0
4, 3384, Note_on_c, 0, 57, 61
4, 3407, Note_on_c, 0, 57, 0
4, 3408, Note_on_c, 0, 49, 61
4, 3431, Note_on_c, 0, 49, 0
4, 3432, Note_on_c, 0, 57, 61
4, 3455, Note_on_c, 0, 57, 0
4, 3456, Note_on_c, 0, 50, 61
4, 3479, Note_on_c, 0, 50, 0
4, 3480, Note_on_c, 0, 57, 61
4, 3503, Note_on_c, 0, 57, 0
4, 3504, Note_on_c, 0, 50, 61
4, 3527, Note_on_c, 0, 50, 0
4, 3528, Note_on_c, 0, 57, 61
4, 3551, Note_on_c, 0, 57, 0
4, 3552, Note_on_c, 0, 50, 61
4, 3575, Note_on_c, 0, 50, 0
4, 3576, Note_on_c, 0, 57, 61
4, 3599, Note_on_c, 0, 57, 0
4, 3600, Note_on_c, 0, 50, 61
4, 3623, Note_on_c, 0, 50, 0
4, 3624, Note_on_c, 0, 57, 61
4, 3647, Note_on_c, 0, 57, 0
4, 3648, Note_on_c, 0, 49, 61
4, 3671, Note_on_c, 0, 49, 0
4, 3672, Note_on_c, 0, 57, 61
4, 3695, Note_on_c, 0, 57, 0
4, 3696, Note_on_c, 0, 49, 61
4, 3719, Note_on_c, 0, 49, 0
4, 3720, Note_on_c, 0, 57, 61
4, 3743, Note_on_c, 0, 57, 0
4, 3744, Note_on_c, 0, 49, 61
4, 3767, Note_on_c, 0, 49, 0
4, 3768, Note_on_c, 0, 57, 61
4, 3791, Note_on_c, 0, 57, 0
4, 3792, Note_on_c, 0, 49, 61
4, 3815, Note_on_c, 0, 49, 0
4, 3816, Note_on_c, 0, 57, 61
4, 3839, Note_on_c, 0, 57, 0
4, 3840, Note_on_c, 0, 50, 61
4, 3863, Note_on_c, 0, 50, 0
4, 3864, Note_on_c, 0, 57, 61
4, 3887, Note_on_c, 0, 57, 0
4, 3888, Note_on_c, 0, 50, 61
4, 3911, Note_on_c, 0, 50, 0
4, 3912, Note_on_c, 0, 57, 61
4, 3935, Note_on_c, 0, 57, 0
4, 3936, Note_on_c, 0, 50, 61
4, 3959, Note_on_c, 0, 50, 0
4, 3960, Note_on_c, 0, 57, 61
4, 3983, Note_on_c, 0, 57, 0
4, 3984, Note_on_c, 0, 50, 61
4, 4007, Note_on_c, 0, 50, 0
4, 4008, Note_on_c, 0, 57, 61
4, 4031, Note_on_c, 0, 57, 0
4, 4032, Note_on_c, 0, 49, 61
4, 4055, Note_on_c, 0, 49, 0
4, 4056, Note_on_c, 0, 57, 61
4, 4079, Note_on_c, 0, 57, 0
4, 4080, Note_on_c, 0, 49, 62
4, 4103, Note_on_c, 0, 49, 0
4, 4104, Note_on_c, 0, 57, 63
4, 4127, Note_on_c, 0, 57, 0
4, 4128, Note_on_c, 0, 49, 63
4, 4151, Note_on_c, 0, 49, 0
4, 4152, Note_on_c, 0, 57, 64
4, 4175, Note_on_c, 0, 57, 0
4, 4176, Note_on_c, 0, 49, 65
4, 4199, Note_on_c, 0, 49, 0
4, 4200, Note_on_c, 0, 57, 65
4, 4223, Note_on_c, 0, 57, 0
4, 4224, Note_on_c, 0, 50, 66
4, 4313, Note_on_c, 0, 50, 0
4, 4368, Note_on_c, 0, 61, 69
4, 4413, Note_on_c, 0, 61, 0
4, 4416, Note_on_c, 0, 62, 69
4, 4505, Note_on_c, 0, 62, 0
4, 4560, Note_on_c, 0, 61, 69
4, 4605, Note_on_c, 0, 61, 0
4, 4608, Note_on_c, 0, 62, 69
4, 4697, Note_on_c, 0, 62, 0
4, 4704, Note_on_c, 0, 55, 69
4, 4793, Note_on_c, 0, 55, 0
4, 4848, Note_on_c, 0, 54, 69
4, 4893, Note_on_c, 0, 54, 0
4, 4896, Note_on_c, 0, 55, 69
4, 4941, Note_on_c, 0, 55, 0
4, 4944, Note_on_c, 0, 57, 69
4, 4989, Note_on_c, 0, 57, 0
4, 4992, Note_on_c, 0, 62, 69
4, 5081, Note_on_c, 0, 62, 0
4, 5088, Note_on_c, 0, 55, 69
4, 5177, Note_on_c, 0, 55, 0
4, 5232, Note_on_c, 0, 54, 69
4, 5277, Note_on_c, 0, 54, 0
4, 5280, Note_on_c, 0, 55, 69
4, 5325, Note_on_c, 0, 55, 0
4, 5328, Note_on_c, 0, 57, 69
4, 5373, Note_on_c, 0, 57, 0
4, 5376, Note_on_c, 0, 50, 69
4, 5465, Note_on_c, 0, 50, 0
4, 5808, Note_on_c, 0, 55, 69
4, 5828, Note_on_c, 0, 55, 0
4, 5856, Note_on_c, 0, 43, 69
4, 5945, Note_on_c, 0, 43, 0
4, 6000, Note_on_c, 0, 55, 69
4, 6020, Note_on_c, 0, 55, 0
4, 6048, Note_on_c, 0, 43, 69
4, 6137, Note_on_c, 0, 43, 0
4, 6144, Note_on_c, 0, 48, 69
4, 6233, Note_on_c, 0, 48, 0
4, 6240, Note_on_c, 0, 50, 69
4, 6329, Note_on_c, 0, 50, 0
4, 6336, Note_on_c, 0, 55, 69
4, 6381, Note_on_c, 0, 55, 0
4, 6384, Note_on_c, 0, 50, 69
4, 6429, Note_on_c, 0, 50, 0
4, 6432, Note_on_c, 0, 43, 69
4, 6477, Note_on_c, 0, 43, 0
4, 6528, Note_on_c, 0, 48, 69
4, 6617, Note_on_c, 0, 48, 0
4, 6624, Note_on_c, 0, 50, 69
4, 6713, Note_on_c, 0, 50, 0
4, 6720, Note_on_c, 0, 55, 69
4, 6765, Note_on_c, 0, 55, 0
4, 6768, Note_on_c, 0, 50, 69
4, 6813, Note_on_c, 0, 50, 0
4, 6816, Note_on_c, 0, 43, 69
4, 6861, Note_on_c, 0, 43, 0
4, 7152, Note_on_c, 0, 55, 69
4, 7172, Note_on_c, 0, 55, 0
4, 7200, Note_on_c, 0, 43, 69
4, 7289, Note_on_c, 0, 43, 0
4, 7344, Note_on_c, 0, 62, 69
4, 7344, Note_on_c, 0, 54, 69
4, 7364, Note_on_c, 0, 62, 0
4, 7364, Note_on_c, 0, 54, 0
4, 7392, Note_on_c, 0, 62, 69
4, 7392, Note_on_c, 0, 54, 69
4, 7486, Note_on_c, 0, 62, 0
4, 7486, Note_on_c, 0, 54, 0
4, 7536, Note_on_c, 0, 61, 69
4, 7581, Note_on_c, 0, 61, 0
4, 7584, Note_on_c, 0, 61, 69
4, 7629, Note_on_c, 0, 61, 0
4, 7632, Note_on_c, 0, 62, 69
4, 7677, Note_on_c, 0, 62, 0
4, 7680, Note_on_c, 0, 57, 69
4, 7769, Note_on_c, 0, 57, 0
4, 7920, Note_on_c, 0, 59, 69
4, 7965, Note_on_c, 0, 59, 0
4, 7968, Note_on_c, 0, 57, 69
4, 8013, Note_on_c, 0, 57, 0
4, 8016, Note_on_c, 0, 55, 69
4, 8061, Note_on_c, 0, 55, 0
4, 8064, Note_on_c, 0, 54, 69
4, 8109, Note_on_c, 0, 54, 0
4, 8112, Note_on_c, 0, 52, 69
4, 8157, Note_on_c, 0, 52, 0
4, 8160, Note_on_c, 0, 50, 69
4, 8205, Note_on_c, 0, 50, 0
4, 8304, Note_on_c, 0, 59, 69
4, 8349, Note_on_c, 0, 59, 0
4, 8352, Note_on_c, 0, 57, 69
4, 8397, Note_on_c, 0, 57, 0
4, 8400, Note_on_c, 0, 55, 69
4, 8445, Note_on_c, 0, 55, 0
4, 8448, Note_on_c, 0, 54, 69
4, 8493, Note_on_c, 0, 54, 0
4, 8496, Note_on_c, 0, 52, 69
4, 8541, Note_on_c, 0, 52, 0
4, 8544, Note_on_c, 0, 50, 69
4, 8589, Note_on_c, 0, 50, 0
4, 8640, Note_on_c, 0, 49, 61
4, 8663, Note_on_c, 0, 49, 0
4, 8664, Note_on_c, 0, 57, 61
4, 8687, Note_on_c, 0, 57, 0
4, 8688, Note_on_c, 0, 49, 61
4, 8711, Note_on_c, 0, 49, 0
4, 8712, Note_on_c, 0, 57, 61
4, 8735, Note_on_c, 0, 57, 0
4, 8736, Note_on_c, 0, 49, 61
4, 8759, Note_on_c, 0, 49, 0
4, 8760, Note_on_c, 0, 57, 61
4, 8783, Note_on_c, 0, 57, 0
4, 8784, Note_on_c, 0, 49, 61
4, 8807, Note_on_c, 0, 49, 0
4, 8808, Note_on_c, 0, 57, 61
4, 8831, Note_on_c, 0, 57, 0
4, 8832, Note_on_c, 0, 50, 61
4, 8855, Note_on_c, 0, 50, 0
4, 8856, Note_on_c, 0, 57, 61
4, 8879, Note_on_c, 0, 57, 0
4, 8880, Note_on_c, 0, 50, 61
4, 8903, Note_on_c, 0, 50, 0
4, 8904, Note_on_c, 0, 57, 61
4, 8927, Note_on_c, 0, 57, 0
4, 8928, Note_on_c, 0, 50, 61
4, 8951, Note_on_c, 0, 50, 0
4, 8952, Note_on_c, 0, 57, 61
4, 8975, Note_on_c, 0, 57, 0
4, 8976, Note_on_c, 0, 50, 61
4, 8999, Note_on_c, 0, 50, 0
4, 9000, Note_on_c, 0, 57, 61
4, 9023, Note_on_c, 0, 57, 0
4, 9024, Note_on_c, 0, 49, 61
4, 9047, Note_on_c, 0, 49, 0
4, 9048, Note_on_c, 0, 57, 61
4, 9071, Note_on_c, 0, 57, 0
4, 9072, Note_on_c, 0, 49, 61
4, 9095, Note_on_c, 0, 49, 0
4, 9096, Note_on_c, 0, 57, 61
4, 9119, Note_on_c, 0, 57, 0
4, 9120, Note_on_c, 0, 49, 61
4, 9143, Note_on_c, 0, 49, 0
4, 9144, Note_on_c, 0, 57, 61
4, 9167, Note_on_c, 0, 57, 0
4, 9168, Note_on_c, 0, 49, 61
4, 9191, Note_on_c, 0, 49, 0
4, 9192, Note_on_c, 0, 57, 61
4, 9215, Note_on_c, 0, 57, 0
4, 9216, Note_on_c, 0, 50, 61
4, 9239, Note_on_c, 0, 50, 0
4, 9240, Note_on_c, 0, 57, 61
4, 9263, Note_on_c, 0, 57, 0
4, 9264, Note_on_c, 0, 50, 61
4, 9287, Note_on_c, 0, 50, 0
4, 9288, Note_on_c, 0, 57, 61
4, 9311, Note_on_c, 0, 57, 0
4, 9312, Note_on_c, 0, 50, 61
4, 9335, Note_on_c, 0, 50, 0
4, 9336, Note_on_c, 0, 57, 61
4, 9359, Note_on_c, 0, 57, 0
4, 9360, Note_on_c, 0, 50, 61
4, 9383, Note_on_c, 0, 50, 0
4, 9384, Note_on_c, 0, 57, 61
4, 9407, Note_on_c, 0, 57, 0
4, 9408, Note_on_c, 0, 49, 61
4, 9431, Note_on_c, 0, 49, 0
4, 9432, Note_on_c, 0, 57, 61
4, 9455, Note_on_c, 0, 57, 0
4, 9456, Note_on_c, 0, 49, 62
4, 9479, Note_on_c, 0, 49, 0
4, 9480, Note_on_c, 0, 57, 63
4, 9503, Note_on_c, 0, 57, 0
4, 9504, Note_on_c, 0, 49, 63
4, 9527, Note_on_c, 0, 49, 0
4, 9528, Note_on_c, 0, 57, 64
4, 9551, Note_on_c, 0, 57, 0
4, 9552, Note_on_c, 0, 49, 65
4, 9575, Note_on_c, 0, 49, 0
4, 9576, Note_on_c, 0, 57, 65
4, 9599, Note_on_c, 0, 57, 0
4, 9600, Note_on_c, 0, 50, 66
4, 9689, Note_on_c, 0, 50, 0
4, 9744, Note_on_c, 0, 61, 69
4, 9789, Note_on_c, 0, 61, 0
4, 9792, Note_on_c, 0, 62, 69
4, 9881, Note_on_c, 0, 62, 0
4, 9936, Note_on_c, 0, 61, 69
4, 9981, Note_on_c, 0, 61, 0
4, 9984, Note_on_c, 0, 62, 69
4, 10073, Note_on_c, 0, 62, 0
4, 10080, Note_on_c, 0, 55, 69
4, 10169, Note_on_c, 0, 55, 0
4, 10224, Note_on_c, 0, 54, 69
4, 10269, Note_on_c, 0, 54, 0
4, 10272, Note_on_c, 0, 55, 69
4, 10317, Note_on_c, 0, 55, 0
4, 10320, Note_on_c, 0, 57, 69
4, 10365, Note_on_c, 0, 57, 0
4, 10368, Note_on_c, 0, 62, 69
4, 10457, Note_on_c, 0, 62, 0
4, 10464, Note_on_c, 0, 55, 69
4, 10553, Note_on_c, 0, 55, 0
4, 10608, Note_on_c, 0, 54, 69
4, 10653, Note_on_c, 0, 54, 0
4, 10656, Note_on_c, 0, 55, 69
4, 10701, Note_on_c, 0, 55, 0
4, 10704, Note_on_c, 0, 57, 69
4, 10749, Note_on_c, 0, 57, 0
4, 10752, Note_on_c, 0, 50, 69
4, 10841, Note_on_c, 0, 50, 0
4, 11184, Note_on_c, 0, 50, 69
4, 11204, Note_on_c, 0, 50, 0
4, 11232, Note_on_c, 0, 38, 69
4, 11321, Note_on_c, 0, 38, 0
4, 11376, Note_on_c, 0, 50, 69
4, 11396, Note_on_c, 0, 50, 0
4, 11424, Note_on_c, 0, 38, 69
4, 11513, Note_on_c, 0, 38, 0
4, 11520, Note_on_c, 0, 55, 69
4, 11609, Note_on_c, 0, 55, 0
4, 11760, Note_on_c, 0, 55, 69
4, 11780, Note_on_c, 0, 55, 0
4, 11808, Note_on_c, 0, 43, 69
4, 11897, Note_on_c, 0, 43, 0
4, 11952, Note_on_c, 0, 55, 69
4, 11972, Note_on_c, 0, 55, 0
4, 12000, Note_on_c, 0, 43, 69
4, 12089, Note_on_c, 0, 43, 0
4, 15696, Note_on_c, 0, 59, 73
4, 15708, Note_on_c, 0, 59, 0
4, 15708, Note_on_c, 0, 57, 73
4, 15720, Note_on_c, 0, 57, 0
4, 15720, Note_on_c, 0, 55, 73
4, 15732, Note_on_c, 0, 55, 0
4, 15732, Note_on_c, 0, 54, 73
4, 15744, Note_on_c, 0, 54, 0
4, 15744, Note_on_c, 0, 52, 73
4, 15833, Note_on_c, 0, 52, 0
4, 15888, Note_on_c, 0, 64, 73
4, 15900, Note_on_c, 0, 64, 0
4, 15900, Note_on_c, 0, 62, 73
4, 15912, Note_on_c, 0, 62, 0
4, 15912, Note_on_c, 0, 60, 73
4, 15924, Note_on_c, 0, 60, 0
4, 15924, Note_on_c, 0, 59, 73
4, 15936, Note_on_c, 0, 59, 0
4, 15936, Note_on_c, 0, 57, 73
4, 16025, Note_on_c, 0, 57, 0
4, 16080, Note_on_c, 0, 57, 73
4, 16092, Note_on_c, 0, 57, 0
4, 16092, Note_on_c, 0, 55, 73
4, 16104, Note_on_c, 0, 55, 0
4, 16104, Note_on_c, 0, 54, 73
4, 16116, Note_on_c, 0, 54, 0
4, 16116, Note_on_c, 0, 52, 73
4, 16128, Note_on_c, 0, 52, 0
4, 16128, Note_on_c, 0, 50, 73
4, 16217, Note_on_c, 0, 50, 0
4, 16272, Note_on_c, 0, 62, 73
4, 16284, Note_on_c, 0, 62, 0
4, 16284, Note_on_c, 0, 60, 73
4, 16296, Note_on_c, 0, 60, 0
4, 16296, Note_on_c, 0, 59, 73
4, 16308, Note_on_c, 0, 59, 0
4, 16308, Note_on_c, 0, 57, 73
4, 16320, Note_on_c, 0, 57, 0
4, 16320, Note_on_c, 0, 55, 73
4, 16409, Note_on_c, 0, 55, 0
4, 16752, Note_on_c, 0, 55, 69
4, 16772, Note_on_c, 0, 55, 0
4, 16800, Note_on_c, 0, 43, 69
4, 16889, Note_on_c, 0, 43, 0
4, 16944, Note_on_c, 0, 55, 69
4, 16964, Note_on_c, 0, 55, 0
4, 16992, Note_on_c, 0, 43, 69
4, 17081, Note_on_c, 0, 43, 0
4, 17088, Note_on_c, 0, 48, 69
4, 17177, Note_on_c, 0, 48, 0
4, 17184, Note_on_c, 0, 50, 69
4, 17273, Note_on_c, 0, 50, 0
4, 17280, Note_on_c, 0, 55, 69
4, 17325, Note_on_c, 0, 55, 0
4, 17328, Note_on_c, 0, 50, 69
4, 17373, Note_on_c, 0, 50, 0
4, 17376, Note_on_c, 0, 43, 69
4, 17421, Note_on_c, 0, 43, 0
4, 17472, Note_on_c, 0, 48, 69
4, 17605, Note_on_c, 0, 48, 0
4, 17616, Note_on_c, 0, 49, 69
4, 17661, Note_on_c, 0, 49, 0
4, 17664, Note_on_c, 0, 50, 69
4, 17753, Note_on_c, 0, 50, 0
4, 17760, Note_on_c, 0, 38, 69
4, 17849, Note_on_c, 0, 38, 0
4, 17904, Note_on_c, 0, 64, 69
4, 17949, Note_on_c, 0, 64, 0
4, 17952, Note_on_c, 0, 62, 69
4, 17997, Note_on_c, 0, 62, 0
4, 18000, Note_on_c, 0, 60, 69
4, 18045, Note_on_c, 0, 60, 0
4, 18048, Note_on_c, 0, 59, 69
4, 18093, Note_on_c, 0, 59, 0
4, 18096, Note_on_c, 0, 57, 69
4, 18141, Note_on_c, 0, 57, 0
4, 18144, Note_on_c, 0, 55, 69
4, 18189, Note_on_c, 0, 55, 0
4, 18288, Note_on_c, 0, 64, 69
4, 18333, Note_on_c, 0, 64, 0
4, 18336, Note_on_c, 0, 62, 69
4, 18381, Note_on_c, 0, 62, 0
4, 18384, Note_on_c, 0, 60, 69
4, 18429, Note_on_c, 0, 60, 0
4, 18432, Note_on_c, 0, 59, 69
4, 18477, Note_on_c, 0, 59, 0
4, 18480, Note_on_c, 0, 57, 69
4, 18525, Note_on_c, 0, 57, 0
4, 18528, Note_on_c, 0, 55, 69
4, 18573, Note_on_c, 0, 55, 0
4, 18624, Note_on_c, 0, 54, 61
4, 18647, Note_on_c, 0, 54, 0
4, 18648, Note_on_c, 0, 62, 61
4, 18671, Note_on_c, 0, 62, 0
4, 18672, Note_on_c, 0, 54, 61
4, 18695, Note_on_c, 0, 54, 0
4, 18696, Note_on_c, 0, 62, 61
4, 18719, Note_on_c, 0, 62, 0
4, 18720, Note_on_c, 0, 54, 61
4, 18743, Note_on_c, 0, 54, 0
4, 18744, Note_on_c, 0, 62, 61
4, 18767, Note_on_c, 0, 62, 0
4, 18768, Note_on_c, 0, 54, 61
4, 18791, Note_on_c, 0, 54, 0
4, 18792, Note_on_c, 0, 62, 61
4, 18815, Note_on_c, 0, 62, 0
4, 18816, Note_on_c, 0, 55, 61
4, 18839, Note_on_c, 0, 55, 0
4, 18840, Note_on_c, 0, 62, 61
4, 18863, Note_on_c, 0, 62, 0
4, 18864, Note_on_c, 0, 55, 61
4, 18887, Note_on_c, 0, 55, 0
4, 18888, Note_on_c, 0, 62, 61
4, 18911, Note_on_c, 0, 62, 0
4, 18912, Note_on_c, 0, 55, 61
4, 18935, Note_on_c, 0, 55, 0
4, 18936, Note_on_c, 0, 62, 61
4, 18959, Note_on_c, 0, 62, 0
4, 18960, Note_on_c, 0, 55, 61
4, 18983, Note_on_c, 0, 55, 0
4, 18984, Note_on_c, 0, 62, 61
4, 19007, Note_on_c, 0, 62, 0
4, 19008, Note_on_c, 0, 54, 61
4, 19031, Note_on_c, 0, 54, 0
4, 19032, Note_on_c, 0, 62, 61
4, 19055, Note_on_c, 0, 62, 0
4, 19056, Note_on_c, 0, 54, 61
4, 19079, Note_on_c, 0, 54, 0
4, 19080, Note_on_c, 0, 62, 61
4, 19103, Note_on_c, 0, 62, 0
4, 19104, Note_on_c, 0, 54, 61
4, 19127, Note_on_c, 0, 54, 0
4, 19128, Note_on_c, 0, 62, 61
4, 19151, Note_on_c, 0, 62, 0
4, 19152, Note_on_c, 0, 54, 61
4, 19175, Note_on_c, 0, 54, 0
4, 19176, Note_on_c, 0, 62, 61
4, 19199, Note_on_c, 0, 62, 0
4, 19200, Note_on_c, 0, 55, 61
4, 19223, Note_on_c, 0, 55, 0
4, 19224, Note_on_c, 0, 62, 61
4, 19247, Note_on_c, 0, 62, 0
4, 19248, Note_on_c, 0, 55, 61
4, 19271, Note_on_c, 0, 55, 0
4, 19272, Note_on_c, 0, 62, 61
4, 19295, Note_on_c, 0, 62, 0
4, 19296, Note_on_c, 0, 55, 61
4, 19319, Note_on_c, 0, 55, 0
4, 19320, Note_on_c, 0, 62, 61
4, 19343, Note_on_c, 0, 62, 0
4, 19344, Note_on_c, 0, 55, 61
4, 19367, Note_on_c, 0, 55, 0
4, 19368, Note_on_c, 0, 62, 61
4, 19391, Note_on_c, 0, 62, 0
4, 19392, Note_on_c, 0, 54, 61
4, 19415, Note_on_c, 0, 54, 0
4, 19416, Note_on_c, 0, 62, 61
4, 19439, Note_on_c, 0, 62, 0
4, 19440, Note_on_c, 0, 54, 61
4, 19463, Note_on_c, 0, 54, 0
4, 19464, Note_on_c, 0, 62, 61
4, 19487, Note_on_c, 0, 62, 0
4, 19488, Note_on_c, 0, 54, 61
4, 19511, Note_on_c, 0, 54, 0
4, 19512, Note_on_c, 0, 62, 61
4, 19535, Note_on_c, 0, 62, 0
4, 19536, Note_on_c, 0, 54, 61
4, 19559, Note_on_c, 0, 54, 0
4, 19560, Note_on_c, 0, 62, 61
4, 19583, Note_on_c, 0, 62, 0
4, 19584, Note_on_c, 0, 55, 69
4, 19673, Note_on_c, 0, 55, 0
4, 19728, Note_on_c, 0, 54, 69
4, 19773, Note_on_c, 0, 54, 0
4, 19776, Note_on_c, 0, 55, 69
4, 19865, Note_on_c, 0, 55, 0
4, 19920, Note_on_c, 0, 54, 69
4, 19965, Note_on_c, 0, 54, 0
4, 19968, Note_on_c, 0, 55, 69
4, 20057, Note_on_c, 0, 55, 0
4, 20064, Note_on_c, 0, 60, 69
4, 20153, Note_on_c, 0, 60, 0
4, 20208, Note_on_c, 0, 59, 69
4, 20253, Note_on_c, 0, 59, 0
4, 20256, Note_on_c, 0, 60, 69
4, 20301, Note_on_c, 0, 60, 0
4, 20304, Note_on_c, 0, 62, 69
4, 20349, Note_on_c, 0, 62, 0
4, 20352, Note_on_c, 0, 55, 69
4, 20441, Note_on_c, 0, 55, 0
4, 20448, Note_on_c, 0, 60, 69
4, 20537, Note_on_c, 0, 60, 0
4, 20592, Note_on_c, 0, 59, 69
4, 20637, Note_on_c, 0, 59, 0
4, 20640, Note_on_c, 0, 60, 69
4, 20685, Note_on_c, 0, 60, 0
4, 20688, Note_on_c, 0, 62, 69
4, 20733, Note_on_c, 0, 62, 0
4, 20736, Note_on_c, 0, 55, 69
4, 20825, Note_on_c, 0, 55, 0
4, 21168, Note_on_c, 0, 50, 69
4, 21188, Note_on_c, 0, 50, 0
4, 21216, Note_on_c, 0, 38, 69
4, 21305, Note_on_c, 0, 38, 0
4, 21360, Note_on_c, 0, 50, 69
4, 21380, Note_on_c, 0, 50, 0
4, 21408, Note_on_c, 0, 38, 69
4, 21497, Note_on_c, 0, 38, 0
4, 21504, Note_on_c, 0, 55, 69
4, 21593, Note_on_c, 0, 55, 0
4, 21744, Note_on_c, 0, 55, 69
4, 21764, Note_on_c, 0, 55, 0
4, 21792, Note_on_c, 0, 43, 69
4, 21881, Note_on_c, 0, 43, 0
4, 21936, Note_on_c, 0, 55, 69
4, 21956, Note_on_c, 0, 55, 0
4, 21984, Note_on_c, 0, 43, 69
4, 22073, Note_on_c, 0, 43, 0
4, 25680, Note_on_c, 0, 59, 73
4, 25692, Note_on_c, 0, 59, 0
4, 25692, Note_on_c, 0, 57, 73
4, 25704, Note_on_c, 0, 57, 0
4, 25704, Note_on_c, 0, 55, 73
4, 25716, Note_on_c, 0, 55, 0
4, 25716, Note_on_c, 0, 54, 73
4, 25728, Note_on_c, 0, 54, 0
4, 25728, Note_on_c, 0, 52, 73
4, 25817, Note_on_c, 0, 52, 0
4, 25872, Note_on_c, 0, 64, 73
4, 25884, Note_on_c, 0, 64, 0
4, 25884, Note_on_c, 0, 62, 73
4, 25896, Note_on_c, 0, 62, 0
4, 25896, Note_on_c, 0, 60, 73
4, 25908, Note_on_c, 0, 60, 0
4, 25908, Note_on_c, 0, 59, 73
4, 25920, Note_on_c, 0, 59, 0
4, 25920, Note_on_c, 0, 57, 73
4, 26009, Note_on_c, 0, 57, 0
4, 26064, Note_on_c, 0, 57, 73
4, 26076, Note_on_c, 0, 57, 0
4, 26076, Note_on_c, 0, 55, 73
4, 26088, Note_on_c, 0, 55, 0
4, 26088, Note_on_c, 0, 54, 73
4, 26100, Note_on_c, 0, 54, 0
4, 26100, Note_on_c, 0, 52, 73
4, 26112, Note_on_c, 0, 52, 0
4, 26112, Note_on_c, 0, 50, 73
4, 26201, Note_on_c, 0, 50, 0
4, 26256, Note_on_c, 0, 62, 73
4, 26268, Note_on_c, 0, 62, 0
4, 26268, Note_on_c, 0, 60, 73
4, 26280, Note_on_c, 0, 60, 0
4, 26280, Note_on_c, 0, 59, 73
4, 26292, Note_on_c, 0, 59, 0
4, 26292, Note_on_c, 0, 57, 73
4, 26304, Note_on_c, 0, 57, 0
4, 26304, Note_on_c, 0, 55, 73
4, 26393, Note_on_c, 0, 55, 0
4, 26736, Note_on_c, 0, 55, 69
4, 26756, Note_on_c, 0, 55, 0
4, 26784, Note_on_c, 0, 43, 69
4, 26873, Note_on_c, 0, 43, 0
4, 26928, Note_on_c, 0, 55, 69
4, 26948, Note_on_c, 0, 55, 0
4, 26976, Note_on_c, 0, 43, 69
4, 27065, Note_on_c, 0, 43, 0
4, 27072, Note_on_c, 0, 48, 69
4, 27161, Note_on_c, 0, 48, 0
4, 27168, Note_on_c, 0, 50, 69
4, 27257, Note_on_c, 0, 50, 0
4, 27264, Note_on_c, 0, 55, 69
4, 27309, Note_on_c, 0, 55, 0
4, 27312, Note_on_c, 0, 50, 69
4, 27357, Note_on_c, 0, 50, 0
4, 27360, Note_on_c, 0, 43, 69
4, 27405, Note_on_c, 0, 43, 0
4, 27456, Note_on_c, 0, 48, 69
4, 27589, Note_on_c, 0, 48, 0
4, 27600, Note_on_c, 0, 49, 69
4, 27645, Note_on_c, 0, 49, 0
4, 27648, Note_on_c, 0, 50, 69
4, 27737, Note_on_c, 0, 50, 0
4, 27744, Note_on_c, 0, 38, 69
4, 27833, Note_on_c, 0, 38, 0
4, 27888, Note_on_c, 0, 64, 69
4, 27933, Note_on_c, 0, 64, 0
4, 27936, Note_on_c, 0, 62, 69
4, 27981, Note_on_c, 0, 62, 0
4, 27984, Note_on_c, 0, 60, 69
4, 28029, Note_on_c, 0, 60, 0
4, 28032, Note_on_c, 0, 59, 69
4, 28077, Note_on_c, 0, 59, 0
4, 28080, Note_on_c, 0, 57, 69
4, 28125, Note_on_c, 0, 57, 0
4, 28128, Note_on_c, 0, 55, 69
4, 28173, Note_on_c, 0, 55, 0
4, 28272, Note_on_c, 0, 64, 69
4, 28317, Note_on_c, 0, 64, 0
4, 28320, Note_on_c, 0, 62, 69
4, 28365, Note_on_c, 0, 62, 0
4, 28368, Note_on_c, 0, 60, 69
4, 28413, Note_on_c, 0, 60, 0
4, 28416, Note_on_c, 0, 59, 69
4, 28461, Note_on_c, 0, 59, 0
4, 28464, Note_on_c, 0, 57, 69
4, 28509, Note_on_c, 0, 57, 0
4, 28512, Note_on_c, 0, 55, 69
4, 28557, Note_on_c, 0, 55, 0
4, 28608, Note_on_c, 0, 54, 61
4, 28631, Note_on_c, 0, 54, 0
4, 28632, Note_on_c, 0, 62, 61
4, 28655, Note_on_c, 0, 62, 0
4, 28656, Note_on_c, 0, 54, 61
4, 28679, Note_on_c, 0, 54, 0
4, 28680, Note_on_c, 0, 62, 61
4, 28703, Note_on_c, 0, 62, 0
4, 28704, Note_on_c, 0, 54, 61
4, 28727, Note_on_c, 0, 54, 0
4, 28728, Note_on_c, 0, 62, 61
4, 28751, Note_on_c, 0, 62, 0
4, 28752, Note_on_c, 0, 54, 61
4, 28775, Note_on_c, 0, 54, 0
4, 28776, Note_on_c, 0, 62, 61
4, 28799, Note_on_c, 0, 62, 0
4, 28800, Note_on_c, 0, 55, 61
4, 28823, Note_on_c, 0, 55, 0
4, 28824, Note_on_c, 0, 62, 61
4, 28847, Note_on_c, 0, 62, 0
4, 28848, Note_on_c, 0, 55, 61
4, 28871, Note_on_c, 0, 55, 0
4, 28872, Note_on_c, 0, 62, 61
4, 28895, Note_on_c, 0, 62, 0
4, 28896, Note_on_c, 0, 55, 61
4, 28919, Note_on_c, 0, 55, 0
4, 28920, Note_on_c, 0, 62, 61
4, 28943, Note_on_c, 0, 62, 0
4, 28944, Note_on_c, 0, 55, 61
4, 28967, Note_on_c, 0, 55, 0
4, 28968, Note_on_c, 0, 62, 61
4, 28991, Note_on_c, 0, 62, 0
4, 28992, Note_on_c, 0, 54, 61
4, 29015, Note_on_c, 0, 54, 0
4, 29016, Note_on_c, 0, 62, 61
4, 29039, Note_on_c, 0, 62, 0
4, 29040, Note_on_c, 0, 54, 61
4, 29063, Note_on_c, 0, 54, 0
4, 29064, Note_on_c, 0, 62, 61
4, 29087, Note_on_c, 0, 62, 0
4, 29088, Note_on_c, 0, 54, 61
4, 29111, Note_on_c, 0, 54, 0
4, 29112, Note_on_c, 0, 62, 61
4, 29135, Note_on_c, 0, 62, 0
4, 29136, Note_on_c, 0, 54, 61
4, 29159, Note_on_c, 0, 54, 0
4, 29160, Note_on_c, 0, 62, 61
4, 29183, Note_on_c, 0, 62, 0
4, 29184, Note_on_c, 0, 55, 61
4, 29207, Note_on_c, 0, 55, 0
4, 29208, Note_on_c, 0, 62, 61
4, 29231, Note_on_c, 0, 62, 0
4, 29232, Note_on_c, 0, 55, 61
4, 29255, Note_on_c, 0, 55, 0
4, 29256, Note_on_c, 0, 62, 61
4, 29279, Note_on_c, 0, 62, 0
4, 29280, Note_on_c, 0, 55, 61
4, 29303, Note_on_c, 0, 55, 0
4, 29304, Note_on_c, 0, 62, 61
4, 29327, Note_on_c, 0, 62, 0
4, 29328, Note_on_c, 0, 55, 61
4, 29351, Note_on_c, 0, 55, 0
4, 29352, Note_on_c, 0, 62, 61
4, 29375, Note_on_c, 0, 62, 0
4, 29376, Note_on_c, 0, 54, 61
4, 29399, Note_on_c, 0, 54, 0
4, 29400, Note_on_c, 0, 62, 61
4, 29423, Note_on_c, 0, 62, 0
4, 29424, Note_on_c, 0, 54, 61
4, 29447, Note_on_c, 0, 54, 0
4, 29448, Note_on_c, 0, 62, 61
4, 29471, Note_on_c, 0, 62, 0
4, 29472, Note_on_c, 0, 54, 61
4, 29495, Note_on_c, 0, 54, 0
4, 29496, Note_on_c, 0, 62, 61
4, 29519, Note_on_c, 0, 62, 0
4, 29520, Note_on_c, 0, 54, 61
4, 29543, Note_on_c, 0, 54, 0
4, 29544, Note_on_c, 0, 62, 61
4, 29567, Note_on_c, 0, 62, 0
4, 29568, Note_on_c, 0, 55, 69
4, 29657, Note_on_c, 0, 55, 0
4, 29712, Note_on_c, 0, 54, 69
4, 29757, Note_on_c, 0, 54, 0
4, 29760, Note_on_c, 0, 55, 69
4, 29849, Note_on_c, 0, 55, 0
4, 29904, Note_on_c, 0, 54, 69
4, 29949, Note_on_c, 0, 54, 0
4, 29952, Note_on_c, 0, 55, 69
4, 30041, Note_on_c, 0, 55, 0
4, 30048, Note_on_c, 0, 60, 69
4, 30137, Note_on_c, 0, 60, 0
4, 30192, Note_on_c, 0, 59, 69
4, 30237, Note_on_c, 0, 59, 0
4, 30240, Note_on_c, 0, 60, 69
4, 30285, Note_on_c, 0, 60, 0
4, 30288, Note_on_c, 0, 62, 69
4, 30333, Note_on_c, 0, 62, 0
4, 30336, Note_on_c, 0, 55, 69
4, 30425, Note_on_c, 0, 55, 0
4, 30432, Note_on_c, 0, 60, 69
4, 30521, Note_on_c, 0, 60, 0
4, 30576, Note_on_c, 0, 59, 69
4, 30621, Note_on_c, 0, 59, 0
4, 30624, Note_on_c, 0, 60, 69
4, 30669, Note_on_c, 0, 60, 0
4, 30672, Note_on_c, 0, 62, 69
4, 30717, Note_on_c, 0, 62, 0
4, 30720, Note_on_c, 0, 55, 69
4, 30853, Note_on_c, 0, 55, 0
4, 30912, Note_on_c, 0, 55, 0
4, 31089, Note_on_c, 0, 55, 0
4, 31104, End_track
5, 0, Start_track
5, 0, Title_t, "<No Title>"
5, 0, End_track
0, 0, End_of_file
