0, 0, Header, 1, 6, 96
1, 0, Start_track
1, 0, Copyright_t, "Copyright  2000 <copyright holder>"
1, 0, Text_t, "Piano Solo\015\012"
1, 0, Text_t, "<composer>\015\012"
1, 0, Sequencer_specific, 16, 68, 87, 77, 90, 86, 82, 83, 78, 32, 55, 46, 48, 46, 56, 46, 48
1, 0, Time_signature, 3, 2, 24, 8
1, 0, Tempo, 480000
1, 0, Key_signature, 2, "major"
1, 12672, Key_signature, 0, "major"
1, 16992, Key_signature, 0, "major"
1, 31680, Key_signature, 2, "major"
1, 33984, Key_signature, 2, "major"
1, 44352, End_track
2, 0, Start_track
2, 0, Program_c, 0, 0
2, 0, Control_c, 0, 7, 127
2, 0, Control_c, 0, 10, 64
2, 0, Note_on_c, 0, 57, 96
2, 96, Note_on_c, 0, 57, 0
2, 96, Note_on_c, 0, 62, 80
2, 259, Note_on_c, 0, 62, 0
2, 264, Note_on_c, 0, 66, 80
2, 287, Note_on_c, 0, 66, 0
2, 288, Note_on_c, 0, 66, 80
2, 355, Note_on_c, 0, 66, 0
2, 360, Note_on_c, 0, 67, 80
2, 383, Note_on_c, 0, 67, 0
2, 384, Note_on_c, 0, 62, 80
2, 480, Note_on_c, 0, 62, 0
2, 480, Note_on_c, 0, 61, 80
2, 569, Note_on_c, 0, 61, 0
2, 600, Note_on_c, 0, 62, 80
2, 623, Note_on_c, 0, 62, 0
2, 624, Note_on_c, 0, 64, 80
2, 647, Note_on_c, 0, 64, 0
2, 648, Note_on_c, 0, 66, 81
2, 671, Note_on_c, 0, 66, 0
2, 672, Note_on_c, 0, 67, 82
2, 695, Note_on_c, 0, 67, 0
2, 696, Note_on_c, 0, 69, 82
2, 719, Note_on_c, 0, 69, 0
2, 720, Note_on_c, 0, 71, 83
2, 743, Note_on_c, 0, 71, 0
2, 744, Note_on_c, 0, 73, 84
2, 767, Note_on_c, 0, 73, 0
2, 768, Note_on_c, 0, 74, 84
2, 791, Note_on_c, 0, 74, 0
2, 792, Note_on_c, 0, 76, 85
2, 815, Note_on_c, 0, 76, 0
2, 816, Note_on_c, 0, 78, 86
2, 839, Note_on_c, 0, 78, 0
2, 840, Note_on_c, 0, 74, 87
2, 863, Note_on_c, 0, 74, 0
2, 864, Note_on_c, 0, 69, 86
2, 953, Note_on_c, 0, 69, 0
2, 960, Note_on_c, 0, 67, 84
2, 973, Note_on_c, 0, 67, 0
2, 974, Note_on_c, 0, 69, 84
2, 987, Note_on_c, 0, 69, 0
2, 988, Note_on_c, 0, 67, 83
2, 1001, Note_on_c, 0, 67, 0
2, 1002, Note_on_c, 0, 69, 83
2, 1015, Note_on_c, 0, 69, 0
2, 1016, Note_on_c, 0, 67, 83
2, 1029, Note_on_c, 0, 67, 0
2, 1030, Note_on_c, 0, 66, 82
2, 1042, Note_on_c, 0, 66, 0
2, 1043, Note_on_c, 0, 67, 82
2, 1055, Note_on_c, 0, 67, 0
2, 1056, Note_on_c, 0, 66, 82
2, 1145, Note_on_c, 0, 66, 0
2, 1152, Note_on_c, 0, 74, 80
2, 1172, Note_on_c, 0, 74, 0
2, 1200, Note_on_c, 0, 74, 80
2, 1271, Note_on_c, 0, 74, 0
2, 1272, Note_on_c, 0, 78, 80
2, 1295, Note_on_c, 0, 78, 0
2, 1296, Note_on_c, 0, 76, 80
2, 1319, Note_on_c, 0, 76, 0
2, 1320, Note_on_c, 0, 74, 80
2, 1343, Note_on_c, 0, 74, 0
2, 1344, Note_on_c, 0, 74, 80
2, 1367, Note_on_c, 0, 74, 0
2, 1368, Note_on_c, 0, 73, 80
2, 1391, Note_on_c, 0, 73, 0
2, 1392, Note_on_c, 0, 71, 80
2, 1415, Note_on_c, 0, 71, 0
2, 1416, Note_on_c, 0, 69, 80
2, 1439, Note_on_c, 0, 69, 0
2, 1440, Note_on_c, 0, 74, 74
2, 1460, Note_on_c, 0, 74, 0
2, 1488, Note_on_c, 0, 74, 74
2, 1559, Note_on_c, 0, 74, 0
2, 1560, Note_on_c, 0, 78, 74
2, 1583, Note_on_c, 0, 78, 0
2, 1584, Note_on_c, 0, 76, 74
2, 1607, Note_on_c, 0, 76, 0
2, 1608, Note_on_c, 0, 74, 74
2, 1631, Note_on_c, 0, 74, 0
2, 1632, Note_on_c, 0, 74, 74
2, 1655, Note_on_c, 0, 74, 0
2, 1656, Note_on_c, 0, 73, 74
2, 1679, Note_on_c, 0, 73, 0
2, 1680, Note_on_c, 0, 71, 74
2, 1703, Note_on_c, 0, 71, 0
2, 1704, Note_on_c, 0, 69, 74
2, 1727, Note_on_c, 0, 69, 0
2, 1728, Note_on_c, 0, 68, 80
2, 1752, Note_on_c, 0, 68, 0
2, 1752, Note_on_c, 0, 69, 80
2, 1775, Note_on_c, 0, 69, 0
2, 1776, Note_on_c, 0, 66, 80
2, 1799, Note_on_c, 0, 66, 0
2, 1800, Note_on_c, 0, 62, 80
2, 1823, Note_on_c, 0, 62, 0
2, 1824, Note_on_c, 0, 61, 80
2, 1913, Note_on_c, 0, 61, 0
2, 1920, Note_on_c, 0, 59, 80
2, 1933, Note_on_c, 0, 59, 0
2, 1934, Note_on_c, 0, 61, 80
2, 1947, Note_on_c, 0, 61, 0
2, 1948, Note_on_c, 0, 59, 80
2, 1961, Note_on_c, 0, 59, 0
2, 1962, Note_on_c, 0, 61, 80
2, 1975, Note_on_c, 0, 61, 0
2, 1976, Note_on_c, 0, 59, 80
2, 1989, Note_on_c, 0, 59, 0
2, 1990, Note_on_c, 0, 57, 80
2, 2002, Note_on_c, 0, 57, 0
2, 2003, Note_on_c, 0, 59, 80
2, 2015, Note_on_c, 0, 59, 0
2, 2016, Note_on_c, 0, 57, 80
2, 2193, Note_on_c, 0, 57, 0
2, 2304, Note_on_c, 0, 57, 96
2, 2400, Note_on_c, 0, 57, 0
2, 2400, Note_on_c, 0, 62, 80
2, 2563, Note_on_c, 0, 62, 0
2, 2568, Note_on_c, 0, 66, 80
2, 2591, Note_on_c, 0, 66, 0
2, 2592, Note_on_c, 0, 66, 80
2, 2659, Note_on_c, 0, 66, 0
2, 2664, Note_on_c, 0, 67, 80
2, 2687, Note_on_c, 0, 67, 0
2, 2688, Note_on_c, 0, 62, 80
2, 2784, Note_on_c, 0, 62, 0
2, 2784, Note_on_c, 0, 61, 80
2, 2873, Note_on_c, 0, 61, 0
2, 2904, Note_on_c, 0, 62, 80
2, 2927, Note_on_c, 0, 62, 0
2, 2928, Note_on_c, 0, 64, 80
2, 2951, Note_on_c, 0, 64, 0
2, 2952, Note_on_c, 0, 66, 81
2, 2975, Note_on_c, 0, 66, 0
2, 2976, Note_on_c, 0, 67, 82
2, 2999, Note_on_c, 0, 67, 0
2, 3000, Note_on_c, 0, 69, 82
2, 3023, Note_on_c, 0, 69, 0
2, 3024, Note_on_c, 0, 71, 83
2, 3047, Note_on_c, 0, 71, 0
2, 3048, Note_on_c, 0, 73, 84
2, 3071, Note_on_c, 0, 73, 0
2, 3072, Note_on_c, 0, 74, 84
2, 3095, Note_on_c, 0, 74, 0
2, 3096, Note_on_c, 0, 76, 85
2, 3119, Note_on_c, 0, 76, 0
2, 3120, Note_on_c, 0, 78, 86
2, 3143, Note_on_c, 0, 78, 0
2, 3144, Note_on_c, 0, 74, 87
2, 3167, Note_on_c, 0, 74, 0
2, 3168, Note_on_c, 0, 69, 86
2, 3257, Note_on_c, 0, 69, 0
2, 3264, Note_on_c, 0, 67, 84
2, 3277, Note_on_c, 0, 67, 0
2, 3278, Note_on_c, 0, 69, 84
2, 3291, Note_on_c, 0, 69, 0
2, 3292, Note_on_c, 0, 67, 83
2, 3305, Note_on_c, 0, 67, 0
2, 3306, Note_on_c, 0, 69, 83
2, 3319, Note_on_c, 0, 69, 0
2, 3320, Note_on_c, 0, 67, 83
2, 3333, Note_on_c, 0, 67, 0
2, 3334, Note_on_c, 0, 66, 82
2, 3346, Note_on_c, 0, 66, 0
2, 3347, Note_on_c, 0, 67, 82
2, 3359, Note_on_c, 0, 67, 0
2, 3360, Note_on_c, 0, 66, 82
2, 3449, Note_on_c, 0, 66, 0
2, 3456, Note_on_c, 0, 74, 80
2, 3476, Note_on_c, 0, 74, 0
2, 3504, Note_on_c, 0, 74, 80
2, 3575, Note_on_c, 0, 74, 0
2, 3576, Note_on_c, 0, 78, 80
2, 3599, Note_on_c, 0, 78, 0
2, 3600, Note_on_c, 0, 76, 80
2, 3623, Note_on_c, 0, 76, 0
2, 3624, Note_on_c, 0, 74, 80
2, 3647, Note_on_c, 0, 74, 0
2, 3648, Note_on_c, 0, 74, 80
2, 3671, Note_on_c, 0, 74, 0
2, 3672, Note_on_c, 0, 73, 80
2, 3695, Note_on_c, 0, 73, 0
2, 3696, Note_on_c, 0, 71, 80
2, 3719, Note_on_c, 0, 71, 0
2, 3720, Note_on_c, 0, 69, 80
2, 3743, Note_on_c, 0, 69, 0
2, 3744, Note_on_c, 0, 74, 74
2, 3764, Note_on_c, 0, 74, 0
2, 3792, Note_on_c, 0, 74, 74
2, 3863, Note_on_c, 0, 74, 0
2, 3864, Note_on_c, 0, 78, 74
2, 3887, Note_on_c, 0, 78, 0
2, 3888, Note_on_c, 0, 76, 74
2, 3911, Note_on_c, 0, 76, 0
2, 3912, Note_on_c, 0, 74, 74
2, 3935, Note_on_c, 0, 74, 0
2, 3936, Note_on_c, 0, 74, 74
2, 3959, Note_on_c, 0, 74, 0
2, 3960, Note_on_c, 0, 73, 74
2, 3983, Note_on_c, 0, 73, 0
2, 3984, Note_on_c, 0, 71, 74
2, 4007, Note_on_c, 0, 71, 0
2, 4008, Note_on_c, 0, 69, 74
2, 4031, Note_on_c, 0, 69, 0
2, 4032, Note_on_c, 0, 68, 80
2, 4056, Note_on_c, 0, 68, 0
2, 4056, Note_on_c, 0, 69, 80
2, 4079, Note_on_c, 0, 69, 0
2, 4080, Note_on_c, 0, 66, 80
2, 4103, Note_on_c, 0, 66, 0
2, 4104, Note_on_c, 0, 62, 80
2, 4127, Note_on_c, 0, 62, 0
2, 4128, Note_on_c, 0, 61, 80
2, 4217, Note_on_c, 0, 61, 0
2, 4224, Note_on_c, 0, 59, 80
2, 4237, Note_on_c, 0, 59, 0
2, 4238, Note_on_c, 0, 61, 80
2, 4251, Note_on_c, 0, 61, 0
2, 4252, Note_on_c, 0, 59, 80
2, 4265, Note_on_c, 0, 59, 0
2, 4266, Note_on_c, 0, 61, 80
2, 4279, Note_on_c, 0, 61, 0
2, 4280, Note_on_c, 0, 59, 80
2, 4293, Note_on_c, 0, 59, 0
2, 4294, Note_on_c, 0, 57, 80
2, 4306, Note_on_c, 0, 57, 0
2, 4307, Note_on_c, 0, 59, 80
2, 4319, Note_on_c, 0, 59, 0
2, 4320, Note_on_c, 0, 57, 80
2, 4497, Note_on_c, 0, 57, 0
2, 4608, Note_on_c, 0, 83, 80
2, 4623, Note_on_c, 0, 83, 0
2, 4624, Note_on_c, 0, 81, 80
2, 4639, Note_on_c, 0, 81, 0
2, 4640, Note_on_c, 0, 83, 80
2, 4655, Note_on_c, 0, 83, 0
2, 4656, Note_on_c, 0, 81, 80
2, 4670, Note_on_c, 0, 81, 0
2, 4671, Note_on_c, 0, 83, 80
2, 4685, Note_on_c, 0, 83, 0
2, 4686, Note_on_c, 0, 81, 80
2, 4700, Note_on_c, 0, 81, 0
2, 4701, Note_on_c, 0, 83, 80
2, 4715, Note_on_c, 0, 83, 0
2, 4716, Note_on_c, 0, 81, 80
2, 4730, Note_on_c, 0, 81, 0
2, 4731, Note_on_c, 0, 83, 80
2, 4745, Note_on_c, 0, 83, 0
2, 4746, Note_on_c, 0, 81, 80
2, 4760, Note_on_c, 0, 81, 0
2, 4761, Note_on_c, 0, 83, 80
2, 4775, Note_on_c, 0, 83, 0
2, 4776, Note_on_c, 0, 81, 80
2, 4790, Note_on_c, 0, 81, 0
2, 4791, Note_on_c, 0, 83, 80
2, 4805, Note_on_c, 0, 83, 0
2, 4806, Note_on_c, 0, 81, 80
2, 4820, Note_on_c, 0, 81, 0
2, 4821, Note_on_c, 0, 83, 80
2, 4835, Note_on_c, 0, 83, 0
2, 4836, Note_on_c, 0, 81, 80
2, 4850, Note_on_c, 0, 81, 0
2, 4851, Note_on_c, 0, 83, 80
2, 4865, Note_on_c, 0, 83, 0
2, 4866, Note_on_c, 0, 81, 80
2, 4880, Note_on_c, 0, 81, 0
2, 4881, Note_on_c, 0, 83, 80
2, 4896, Note_on_c, 0, 83, 0
2, 4896, Note_on_c, 0, 81, 80
2, 4985, Note_on_c, 0, 81, 0
2, 4992, Note_on_c, 0, 69, 80
2, 5037, Note_on_c, 0, 69, 0
2, 5040, Note_on_c, 0, 71, 80
2, 5063, Note_on_c, 0, 71, 0
2, 5064, Note_on_c, 0, 73, 80
2, 5087, Note_on_c, 0, 73, 0
2, 5088, Note_on_c, 0, 74, 80
2, 5111, Note_on_c, 0, 74, 0
2, 5112, Note_on_c, 0, 76, 80
2, 5135, Note_on_c, 0, 76, 0
2, 5136, Note_on_c, 0, 78, 80
2, 5159, Note_on_c, 0, 78, 0
2, 5160, Note_on_c, 0, 80, 80
2, 5183, Note_on_c, 0, 80, 0
2, 5184, Note_on_c, 0, 83, 80
2, 5199, Note_on_c, 0, 83, 0
2, 5200, Note_on_c, 0, 81, 80
2, 5215, Note_on_c, 0, 81, 0
2, 5216, Note_on_c, 0, 83, 80
2, 5231, Note_on_c, 0, 83, 0
2, 5232, Note_on_c, 0, 81, 80
2, 5246, Note_on_c, 0, 81, 0
2, 5247, Note_on_c, 0, 83, 80
2, 5261, Note_on_c, 0, 83, 0
2, 5262, Note_on_c, 0, 81, 80
2, 5276, Note_on_c, 0, 81, 0
2, 5277, Note_on_c, 0, 83, 80
2, 5291, Note_on_c, 0, 83, 0
2, 5292, Note_on_c, 0, 81, 80
2, 5306, Note_on_c, 0, 81, 0
2, 5307, Note_on_c, 0, 83, 80
2, 5321, Note_on_c, 0, 83, 0
2, 5322, Note_on_c, 0, 81, 80
2, 5336, Note_on_c, 0, 81, 0
2, 5337, Note_on_c, 0, 83, 80
2, 5351, Note_on_c, 0, 83, 0
2, 5352, Note_on_c, 0, 81, 80
2, 5366, Note_on_c, 0, 81, 0
2, 5367, Note_on_c, 0, 83, 80
2, 5381, Note_on_c, 0, 83, 0
2, 5382, Note_on_c, 0, 81, 80
2, 5396, Note_on_c, 0, 81, 0
2, 5397, Note_on_c, 0, 83, 80
2, 5411, Note_on_c, 0, 83, 0
2, 5412, Note_on_c, 0, 81, 80
2, 5426, Note_on_c, 0, 81, 0
2, 5427, Note_on_c, 0, 83, 80
2, 5441, Note_on_c, 0, 83, 0
2, 5442, Note_on_c, 0, 81, 80
2, 5456, Note_on_c, 0, 81, 0
2, 5457, Note_on_c, 0, 83, 80
2, 5471, Note_on_c, 0, 83, 0
2, 5472, Note_on_c, 0, 81, 80
2, 5561, Note_on_c, 0, 81, 0
2, 5568, Note_on_c, 0, 69, 80
2, 5591, Note_on_c, 0, 69, 0
2, 5592, Note_on_c, 0, 71, 80
2, 5615, Note_on_c, 0, 71, 0
2, 5616, Note_on_c, 0, 73, 80
2, 5639, Note_on_c, 0, 73, 0
2, 5640, Note_on_c, 0, 74, 80
2, 5663, Note_on_c, 0, 74, 0
2, 5664, Note_on_c, 0, 76, 80
2, 5687, Note_on_c, 0, 76, 0
2, 5688, Note_on_c, 0, 78, 80
2, 5711, Note_on_c, 0, 78, 0
2, 5712, Note_on_c, 0, 79, 80
2, 5735, Note_on_c, 0, 79, 0
2, 5736, Note_on_c, 0, 81, 80
2, 5759, Note_on_c, 0, 81, 0
2, 5760, Note_on_c, 0, 78, 80
2, 5783, Note_on_c, 0, 78, 0
2, 5784, Note_on_c, 0, 74, 80
2, 5807, Note_on_c, 0, 74, 0
2, 5808, Note_on_c, 0, 73, 81
2, 5831, Note_on_c, 0, 73, 0
2, 5832, Note_on_c, 0, 74, 81
2, 5855, Note_on_c, 0, 74, 0
2, 5856, Note_on_c, 0, 81, 82
2, 5879, Note_on_c, 0, 81, 0
2, 5880, Note_on_c, 0, 78, 82
2, 5903, Note_on_c, 0, 78, 0
2, 5904, Note_on_c, 0, 76, 83
2, 5927, Note_on_c, 0, 76, 0
2, 5928, Note_on_c, 0, 74, 84
2, 5951, Note_on_c, 0, 74, 0
2, 5952, Note_on_c, 0, 83, 84
2, 5975, Note_on_c, 0, 83, 0
2, 5976, Note_on_c, 0, 79, 85
2, 5999, Note_on_c, 0, 79, 0
2, 6000, Note_on_c, 0, 78, 85
2, 6023, Note_on_c, 0, 78, 0
2, 6024, Note_on_c, 0, 76, 86
2, 6047, Note_on_c, 0, 76, 0
2, 6048, Note_on_c, 0, 74, 87
2, 6144, Note_on_c, 0, 74, 0
2, 6144, Note_on_c, 0, 73, 87
2, 6233, Note_on_c, 0, 73, 0
2, 6336, Note_on_c, 0, 57, 96
2, 6432, Note_on_c, 0, 57, 0
2, 6432, Note_on_c, 0, 62, 80
2, 6595, Note_on_c, 0, 62, 0
2, 6600, Note_on_c, 0, 66, 80
2, 6623, Note_on_c, 0, 66, 0
2, 6624, Note_on_c, 0, 66, 80
2, 6691, Note_on_c, 0, 66, 0
2, 6696, Note_on_c, 0, 67, 80
2, 6719, Note_on_c, 0, 67, 0
2, 6720, Note_on_c, 0, 62, 80
2, 6816, Note_on_c, 0, 62, 0
2, 6816, Note_on_c, 0, 61, 80
2, 6905, Note_on_c, 0, 61, 0
2, 6936, Note_on_c, 0, 62, 80
2, 6959, Note_on_c, 0, 62, 0
2, 6960, Note_on_c, 0, 64, 80
2, 6983, Note_on_c, 0, 64, 0
2, 6984, Note_on_c, 0, 66, 81
2, 7007, Note_on_c, 0, 66, 0
2, 7008, Note_on_c, 0, 67, 82
2, 7031, Note_on_c, 0, 67, 0
2, 7032, Note_on_c, 0, 69, 82
2, 7055, Note_on_c, 0, 69, 0
2, 7056, Note_on_c, 0, 71, 83
2, 7079, Note_on_c, 0, 71, 0
2, 7080, Note_on_c, 0, 73, 84
2, 7103, Note_on_c, 0, 73, 0
2, 7104, Note_on_c, 0, 74, 84
2, 7127, Note_on_c, 0, 74, 0
2, 7128, Note_on_c, 0, 76, 85
2, 7151, Note_on_c, 0, 76, 0
2, 7152, Note_on_c, 0, 78, 86
2, 7175, Note_on_c, 0, 78, 0
2, 7176, Note_on_c, 0, 74, 87
2, 7199, Note_on_c, 0, 74, 0
2, 7200, Note_on_c, 0, 69, 86
2, 7289, Note_on_c, 0, 69, 0
2, 7296, Note_on_c, 0, 67, 84
2, 7309, Note_on_c, 0, 67, 0
2, 7310, Note_on_c, 0, 69, 84
2, 7323, Note_on_c, 0, 69, 0
2, 7324, Note_on_c, 0, 67, 83
2, 7337, Note_on_c, 0, 67, 0
2, 7338, Note_on_c, 0, 69, 83
2, 7351, Note_on_c, 0, 69, 0
2, 7352, Note_on_c, 0, 67, 83
2, 7365, Note_on_c, 0, 67, 0
2, 7366, Note_on_c, 0, 66, 82
2, 7378, Note_on_c, 0, 66, 0
2, 7379, Note_on_c, 0, 67, 82
2, 7391, Note_on_c, 0, 67, 0
2, 7392, Note_on_c, 0, 66, 82
2, 7481, Note_on_c, 0, 66, 0
2, 7488, Note_on_c, 0, 79, 80
2, 7508, Note_on_c, 0, 79, 0
2, 7536, Note_on_c, 0, 79, 80
2, 7607, Note_on_c, 0, 79, 0
2, 7608, Note_on_c, 0, 83, 80
2, 7631, Note_on_c, 0, 83, 0
2, 7632, Note_on_c, 0, 81, 80
2, 7655, Note_on_c, 0, 81, 0
2, 7656, Note_on_c, 0, 79, 80
2, 7679, Note_on_c, 0, 79, 0
2, 7680, Note_on_c, 0, 79, 80
2, 7703, Note_on_c, 0, 79, 0
2, 7704, Note_on_c, 0, 78, 78
2, 7727, Note_on_c, 0, 78, 0
2, 7728, Note_on_c, 0, 76, 77
2, 7751, Note_on_c, 0, 76, 0
2, 7752, Note_on_c, 0, 74, 75
2, 7775, Note_on_c, 0, 74, 0
2, 7776, Note_on_c, 0, 79, 74
2, 7796, Note_on_c, 0, 79, 0
2, 7824, Note_on_c, 0, 79, 74
2, 7895, Note_on_c, 0, 79, 0
2, 7896, Note_on_c, 0, 83, 74
2, 7919, Note_on_c, 0, 83, 0
2, 7920, Note_on_c, 0, 81, 74
2, 7943, Note_on_c, 0, 81, 0
2, 7944, Note_on_c, 0, 79, 74
2, 7967, Note_on_c, 0, 79, 0
2, 7968, Note_on_c, 0, 79, 74
2, 7991, Note_on_c, 0, 79, 0
2, 7992, Note_on_c, 0, 78, 75
2, 8015, Note_on_c, 0, 78, 0
2, 8016, Note_on_c, 0, 76, 77
2, 8039, Note_on_c, 0, 76, 0
2, 8040, Note_on_c, 0, 74, 78
2, 8063, Note_on_c, 0, 74, 0
2, 8064, Note_on_c, 0, 73, 80
2, 8088, Note_on_c, 0, 73, 0
2, 8088, Note_on_c, 0, 74, 80
2, 8111, Note_on_c, 0, 74, 0
2, 8112, Note_on_c, 0, 71, 80
2, 8135, Note_on_c, 0, 71, 0
2, 8136, Note_on_c, 0, 67, 80
2, 8159, Note_on_c, 0, 67, 0
2, 8160, Note_on_c, 0, 66, 80
2, 8249, Note_on_c, 0, 66, 0
2, 8256, Note_on_c, 0, 64, 80
2, 8269, Note_on_c, 0, 64, 0
2, 8270, Note_on_c, 0, 66, 80
2, 8283, Note_on_c, 0, 66, 0
2, 8284, Note_on_c, 0, 64, 80
2, 8297, Note_on_c, 0, 64, 0
2, 8298, Note_on_c, 0, 66, 80
2, 8311, Note_on_c, 0, 66, 0
2, 8312, Note_on_c, 0, 64, 80
2, 8325, Note_on_c, 0, 64, 0
2, 8326, Note_on_c, 0, 62, 80
2, 8338, Note_on_c, 0, 62, 0
2, 8339, Note_on_c, 0, 64, 80
2, 8351, Note_on_c, 0, 64, 0
2, 8352, Note_on_c, 0, 62, 80
2, 8529, Note_on_c, 0, 62, 0
2, 8640, Note_on_c, 0, 83, 80
2, 8655, Note_on_c, 0, 83, 0
2, 8656, Note_on_c, 0, 81, 80
2, 8671, Note_on_c, 0, 81, 0
2, 8672, Note_on_c, 0, 83, 80
2, 8687, Note_on_c, 0, 83, 0
2, 8688, Note_on_c, 0, 81, 80
2, 8702, Note_on_c, 0, 81, 0
2, 8703, Note_on_c, 0, 83, 80
2, 8717, Note_on_c, 0, 83, 0
2, 8718, Note_on_c, 0, 81, 80
2, 8732, Note_on_c, 0, 81, 0
2, 8733, Note_on_c, 0, 83, 80
2, 8747, Note_on_c, 0, 83, 0
2, 8748, Note_on_c, 0, 81, 80
2, 8762, Note_on_c, 0, 81, 0
2, 8763, Note_on_c, 0, 83, 80
2, 8777, Note_on_c, 0, 83, 0
2, 8778, Note_on_c, 0, 81, 80
2, 8792, Note_on_c, 0, 81, 0
2, 8793, Note_on_c, 0, 83, 80
2, 8807, Note_on_c, 0, 83, 0
2, 8808, Note_on_c, 0, 81, 80
2, 8822, Note_on_c, 0, 81, 0
2, 8823, Note_on_c, 0, 83, 80
2, 8837, Note_on_c, 0, 83, 0
2, 8838, Note_on_c, 0, 81, 80
2, 8852, Note_on_c, 0, 81, 0
2, 8853, Note_on_c, 0, 83, 80
2, 8867, Note_on_c, 0, 83, 0
2, 8868, Note_on_c, 0, 81, 80
2, 8882, Note_on_c, 0, 81, 0
2, 8883, Note_on_c, 0, 83, 80
2, 8897, Note_on_c, 0, 83, 0
2, 8898, Note_on_c, 0, 81, 80
2, 8912, Note_on_c, 0, 81, 0
2, 8913, Note_on_c, 0, 83, 80
2, 8928, Note_on_c, 0, 83, 0
2, 8928, Note_on_c, 0, 81, 80
2, 9017, Note_on_c, 0, 81, 0
2, 9024, Note_on_c, 0, 69, 80
2, 9069, Note_on_c, 0, 69, 0
2, 9072, Note_on_c, 0, 71, 80
2, 9095, Note_on_c, 0, 71, 0
2, 9096, Note_on_c, 0, 73, 80
2, 9119, Note_on_c, 0, 73, 0
2, 9120, Note_on_c, 0, 74, 80
2, 9143, Note_on_c, 0, 74, 0
2, 9144, Note_on_c, 0, 76, 80
2, 9167, Note_on_c, 0, 76, 0
2, 9168, Note_on_c, 0, 78, 80
2, 9191, Note_on_c, 0, 78, 0
2, 9192, Note_on_c, 0, 80, 80
2, 9215, Note_on_c, 0, 80, 0
2, 9216, Note_on_c, 0, 83, 80
2, 9231, Note_on_c, 0, 83, 0
2, 9232, Note_on_c, 0, 81, 80
2, 9247, Note_on_c, 0, 81, 0
2, 9248, Note_on_c, 0, 83, 80
2, 9263, Note_on_c, 0, 83, 0
2, 9264, Note_on_c, 0, 81, 80
2, 9278, Note_on_c, 0, 81, 0
2, 9279, Note_on_c, 0, 83, 80
2, 9293, Note_on_c, 0, 83, 0
2, 9294, Note_on_c, 0, 81, 80
2, 9308, Note_on_c, 0, 81, 0
2, 9309, Note_on_c, 0, 83, 80
2, 9323, Note_on_c, 0, 83, 0
2, 9324, Note_on_c, 0, 81, 80
2, 9338, Note_on_c, 0, 81, 0
2, 9339, Note_on_c, 0, 83, 80
2, 9353, Note_on_c, 0, 83, 0
2, 9354, Note_on_c, 0, 81, 80
2, 9368, Note_on_c, 0, 81, 0
2, 9369, Note_on_c, 0, 83, 80
2, 9383, Note_on_c, 0, 83, 0
2, 9384, Note_on_c, 0, 81, 80
2, 9398, Note_on_c, 0, 81, 0
2, 9399, Note_on_c, 0, 83, 80
2, 9413, Note_on_c, 0, 83, 0
2, 9414, Note_on_c, 0, 81, 80
2, 9428, Note_on_c, 0, 81, 0
2, 9429, Note_on_c, 0, 83, 80
2, 9443, Note_on_c, 0, 83, 0
2, 9444, Note_on_c, 0, 81, 80
2, 9458, Note_on_c, 0, 81, 0
2, 9459, Note_on_c, 0, 83, 80
2, 9473, Note_on_c, 0, 83, 0
2, 9474, Note_on_c, 0, 81, 80
2, 9488, Note_on_c, 0, 81, 0
2, 9489, Note_on_c, 0, 83, 80
2, 9503, Note_on_c, 0, 83, 0
2, 9504, Note_on_c, 0, 81, 80
2, 9593, Note_on_c, 0, 81, 0
2, 9600, Note_on_c, 0, 69, 80
2, 9623, Note_on_c, 0, 69, 0
2, 9624, Note_on_c, 0, 71, 80
2, 9647, Note_on_c, 0, 71, 0
2, 9648, Note_on_c, 0, 73, 80
2, 9671, Note_on_c, 0, 73, 0
2, 9672, Note_on_c, 0, 74, 80
2, 9695, Note_on_c, 0, 74, 0
2, 9696, Note_on_c, 0, 76, 80
2, 9719, Note_on_c, 0, 76, 0
2, 9720, Note_on_c, 0, 78, 80
2, 9743, Note_on_c, 0, 78, 0
2, 9744, Note_on_c, 0, 79, 80
2, 9767, Note_on_c, 0, 79, 0
2, 9768, Note_on_c, 0, 81, 80
2, 9791, Note_on_c, 0, 81, 0
2, 9792, Note_on_c, 0, 78, 80
2, 9815, Note_on_c, 0, 78, 0
2, 9816, Note_on_c, 0, 74, 80
2, 9839, Note_on_c, 0, 74, 0
2, 9840, Note_on_c, 0, 73, 81
2, 9863, Note_on_c, 0, 73, 0
2, 9864, Note_on_c, 0, 74, 81
2, 9887, Note_on_c, 0, 74, 0
2, 9888, Note_on_c, 0, 81, 82
2, 9911, Note_on_c, 0, 81, 0
2, 9912, Note_on_c, 0, 78, 82
2, 9935, Note_on_c, 0, 78, 0
2, 9936, Note_on_c, 0, 76, 83
2, 9959, Note_on_c, 0, 76, 0
2, 9960, Note_on_c, 0, 74, 84
2, 9983, Note_on_c, 0, 74, 0
2, 9984, Note_on_c, 0, 83, 84
2, 10007, Note_on_c, 0, 83, 0
2, 10008, Note_on_c, 0, 79, 85
2, 10031, Note_on_c, 0, 79, 0
2, 10032, Note_on_c, 0, 78, 85
2, 10055, Note_on_c, 0, 78, 0
2, 10056, Note_on_c, 0, 76, 86
2, 10079, Note_on_c, 0, 76, 0
2, 10080, Note_on_c, 0, 74, 87
2, 10176, Note_on_c, 0, 74, 0
2, 10176, Note_on_c, 0, 73, 87
2, 10265, Note_on_c, 0, 73, 0
2, 10368, Note_on_c, 0, 57, 96
2, 10464, Note_on_c, 0, 57, 0
2, 10464, Note_on_c, 0, 62, 80
2, 10627, Note_on_c, 0, 62, 0
2, 10632, Note_on_c, 0, 66, 80
2, 10655, Note_on_c, 0, 66, 0
2, 10656, Note_on_c, 0, 66, 80
2, 10723, Note_on_c, 0, 66, 0
2, 10728, Note_on_c, 0, 67, 80
2, 10751, Note_on_c, 0, 67, 0
2, 10752, Note_on_c, 0, 62, 80
2, 10848, Note_on_c, 0, 62, 0
2, 10848, Note_on_c, 0, 61, 80
2, 10937, Note_on_c, 0, 61, 0
2, 10968, Note_on_c, 0, 62, 80
2, 10991, Note_on_c, 0, 62, 0
2, 10992, Note_on_c, 0, 64, 80
2, 11015, Note_on_c, 0, 64, 0
2, 11016, Note_on_c, 0, 66, 81
2, 11039, Note_on_c, 0, 66, 0
2, 11040, Note_on_c, 0, 67, 82
2, 11063, Note_on_c, 0, 67, 0
2, 11064, Note_on_c, 0, 69, 82
2, 11087, Note_on_c, 0, 69, 0
2, 11088, Note_on_c, 0, 71, 83
2, 11111, Note_on_c, 0, 71, 0
2, 11112, Note_on_c, 0, 73, 84
2, 11135, Note_on_c, 0, 73, 0
2, 11136, Note_on_c, 0, 74, 84
2, 11159, Note_on_c, 0, 74, 0
2, 11160, Note_on_c, 0, 76, 85
2, 11183, Note_on_c, 0, 76, 0
2, 11184, Note_on_c, 0, 78, 86
2, 11207, Note_on_c, 0, 78, 0
2, 11208, Note_on_c, 0, 74, 87
2, 11231, Note_on_c, 0, 74, 0
2, 11232, Note_on_c, 0, 69, 86
2, 11321, Note_on_c, 0, 69, 0
2, 11328, Note_on_c, 0, 67, 84
2, 11341, Note_on_c, 0, 67, 0
2, 11342, Note_on_c, 0, 69, 84
2, 11355, Note_on_c, 0, 69, 0
2, 11356, Note_on_c, 0, 67, 83
2, 11369, Note_on_c, 0, 67, 0
2, 11370, Note_on_c, 0, 69, 83
2, 11383, Note_on_c, 0, 69, 0
2, 11384, Note_on_c, 0, 67, 83
2, 11397, Note_on_c, 0, 67, 0
2, 11398, Note_on_c, 0, 66, 82
2, 11410, Note_on_c, 0, 66, 0
2, 11411, Note_on_c, 0, 67, 82
2, 11423, Note_on_c, 0, 67, 0
2, 11424, Note_on_c, 0, 66, 82
2, 11513, Note_on_c, 0, 66, 0
2, 11520, Note_on_c, 0, 79, 80
2, 11540, Note_on_c, 0, 79, 0
2, 11568, Note_on_c, 0, 79, 80
2, 11639, Note_on_c, 0, 79, 0
2, 11640, Note_on_c, 0, 83, 80
2, 11663, Note_on_c, 0, 83, 0
2, 11664, Note_on_c, 0, 81, 80
2, 11687, Note_on_c, 0, 81, 0
2, 11688, Note_on_c, 0, 79, 80
2, 11711, Note_on_c, 0, 79, 0
2, 11712, Note_on_c, 0, 79, 80
2, 11735, Note_on_c, 0, 79, 0
2, 11736, Note_on_c, 0, 78, 78
2, 11759, Note_on_c, 0, 78, 0
2, 11760, Note_on_c, 0, 76, 77
2, 11783, Note_on_c, 0, 76, 0
2, 11784, Note_on_c, 0, 74, 75
2, 11807, Note_on_c, 0, 74, 0
2, 11808, Note_on_c, 0, 79, 74
2, 11828, Note_on_c, 0, 79, 0
2, 11856, Note_on_c, 0, 79, 74
2, 11927, Note_on_c, 0, 79, 0
2, 11928, Note_on_c, 0, 83, 74
2, 11951, Note_on_c, 0, 83, 0
2, 11952, Note_on_c, 0, 81, 74
2, 11975, Note_on_c, 0, 81, 0
2, 11976, Note_on_c, 0, 79, 74
2, 11999, Note_on_c, 0, 79, 0
2, 12000, Note_on_c, 0, 79, 74
2, 12023, Note_on_c, 0, 79, 0
2, 12024, Note_on_c, 0, 78, 75
2, 12047, Note_on_c, 0, 78, 0
2, 12048, Note_on_c, 0, 76, 77
2, 12071, Note_on_c, 0, 76, 0
2, 12072, Note_on_c, 0, 74, 78
2, 12095, Note_on_c, 0, 74, 0
2, 12096, Note_on_c, 0, 73, 80
2, 12120, Note_on_c, 0, 73, 0
2, 12120, Note_on_c, 0, 74, 80
2, 12143, Note_on_c, 0, 74, 0
2, 12144, Note_on_c, 0, 71, 80
2, 12167, Note_on_c, 0, 71, 0
2, 12168, Note_on_c, 0, 67, 80
2, 12191, Note_on_c, 0, 67, 0
2, 12192, Note_on_c, 0, 66, 80
2, 12281, Note_on_c, 0, 66, 0
2, 12288, Note_on_c, 0, 64, 80
2, 12301, Note_on_c, 0, 64, 0
2, 12302, Note_on_c, 0, 66, 80
2, 12315, Note_on_c, 0, 66, 0
2, 12316, Note_on_c, 0, 64, 80
2, 12329, Note_on_c, 0, 64, 0
2, 12330, Note_on_c, 0, 66, 80
2, 12343, Note_on_c, 0, 66, 0
2, 12344, Note_on_c, 0, 64, 80
2, 12357, Note_on_c, 0, 64, 0
2, 12358, Note_on_c, 0, 62, 80
2, 12370, Note_on_c, 0, 62, 0
2, 12371, Note_on_c, 0, 64, 80
2, 12383, Note_on_c, 0, 64, 0
2, 12384, Note_on_c, 0, 62, 80
2, 12561, Note_on_c, 0, 62, 0
2, 12720, Note_on_c, 0, 74, 69
2, 12765, Note_on_c, 0, 74, 0
2, 12768, Note_on_c, 0, 77, 69
2, 12813, Note_on_c, 0, 77, 0
2, 12816, Note_on_c, 0, 76, 69
2, 12861, Note_on_c, 0, 76, 0
2, 12864, Note_on_c, 0, 74, 69
2, 12909, Note_on_c, 0, 74, 0
2, 12912, Note_on_c, 0, 73, 69
2, 12957, Note_on_c, 0, 73, 0
2, 12960, Note_on_c, 0, 74, 69
2, 13005, Note_on_c, 0, 74, 0
2, 13008, Note_on_c, 0, 69, 69
2, 13053, Note_on_c, 0, 69, 0
2, 13056, Note_on_c, 0, 70, 69
2, 13069, Note_on_c, 0, 70, 0
2, 13070, Note_on_c, 0, 72, 69
2, 13083, Note_on_c, 0, 72, 0
2, 13084, Note_on_c, 0, 70, 69
2, 13097, Note_on_c, 0, 70, 0
2, 13098, Note_on_c, 0, 72, 69
2, 13111, Note_on_c, 0, 72, 0
2, 13112, Note_on_c, 0, 70, 69
2, 13125, Note_on_c, 0, 70, 0
2, 13126, Note_on_c, 0, 69, 69
2, 13138, Note_on_c, 0, 69, 0
2, 13139, Note_on_c, 0, 70, 69
2, 13151, Note_on_c, 0, 70, 0
2, 13152, Note_on_c, 0, 69, 69
2, 13241, Note_on_c, 0, 69, 0
2, 13248, Note_on_c, 0, 76, 85
2, 13248, Note_on_c, 0, 67, 85
2, 13536, Note_on_c, 0, 76, 0
2, 13536, Note_on_c, 0, 67, 0
2, 13536, Note_on_c, 0, 74, 86
2, 13536, Note_on_c, 0, 65, 86
2, 13824, Note_on_c, 0, 74, 0
2, 13824, Note_on_c, 0, 65, 0
2, 13872, Note_on_c, 0, 79, 72
2, 13872, Note_on_c, 0, 76, 72
2, 13917, Note_on_c, 0, 79, 0
2, 13917, Note_on_c, 0, 76, 0
2, 13968, Note_on_c, 0, 77, 73
2, 13968, Note_on_c, 0, 74, 73
2, 14013, Note_on_c, 0, 77, 0
2, 14013, Note_on_c, 0, 74, 0
2, 14064, Note_on_c, 0, 73, 73
2, 14064, Note_on_c, 0, 64, 73
2, 14109, Note_on_c, 0, 73, 0
2, 14109, Note_on_c, 0, 64, 0
2, 14112, Note_on_c, 0, 73, 74
2, 14112, Note_on_c, 0, 64, 74
2, 14208, Note_on_c, 0, 73, 0
2, 14208, Note_on_c, 0, 64, 0
2, 14208, Note_on_c, 0, 74, 74
2, 14208, Note_on_c, 0, 65, 74
2, 14297, Note_on_c, 0, 74, 0
2, 14297, Note_on_c, 0, 65, 0
2, 14448, Note_on_c, 0, 77, 80
2, 14493, Note_on_c, 0, 77, 0
2, 14496, Note_on_c, 0, 79, 80
2, 14541, Note_on_c, 0, 79, 0
2, 14544, Note_on_c, 0, 77, 80
2, 14589, Note_on_c, 0, 77, 0
2, 14592, Note_on_c, 0, 76, 80
2, 14637, Note_on_c, 0, 76, 0
2, 14640, Note_on_c, 0, 77, 80
2, 14685, Note_on_c, 0, 77, 0
2, 14736, Note_on_c, 0, 82, 80
2, 14825, Note_on_c, 0, 82, 0
2, 14832, Note_on_c, 0, 79, 80
2, 14921, Note_on_c, 0, 79, 0
2, 14928, Note_on_c, 0, 76, 80
2, 14973, Note_on_c, 0, 76, 0
2, 15024, Note_on_c, 0, 77, 80
2, 15069, Note_on_c, 0, 77, 0
2, 15072, Note_on_c, 0, 79, 80
2, 15117, Note_on_c, 0, 79, 0
2, 15120, Note_on_c, 0, 77, 80
2, 15165, Note_on_c, 0, 77, 0
2, 15168, Note_on_c, 0, 76, 80
2, 15213, Note_on_c, 0, 76, 0
2, 15216, Note_on_c, 0, 77, 80
2, 15261, Note_on_c, 0, 77, 0
2, 15312, Note_on_c, 0, 82, 80
2, 15401, Note_on_c, 0, 82, 0
2, 15408, Note_on_c, 0, 79, 80
2, 15497, Note_on_c, 0, 79, 0
2, 15504, Note_on_c, 0, 76, 80
2, 15549, Note_on_c, 0, 76, 0
2, 15552, Note_on_c, 0, 77, 80
2, 15572, Note_on_c, 0, 77, 0
2, 15600, Note_on_c, 0, 84, 80
2, 15645, Note_on_c, 0, 84, 0
2, 15648, Note_on_c, 0, 77, 80
2, 15661, Note_on_c, 0, 77, 0
2, 15662, Note_on_c, 0, 75, 80
2, 15675, Note_on_c, 0, 75, 0
2, 15676, Note_on_c, 0, 77, 80
2, 15689, Note_on_c, 0, 77, 0
2, 15690, Note_on_c, 0, 75, 80
2, 15703, Note_on_c, 0, 75, 0
2, 15704, Note_on_c, 0, 77, 80
2, 15717, Note_on_c, 0, 77, 0
2, 15718, Note_on_c, 0, 75, 80
2, 15731, Note_on_c, 0, 75, 0
2, 15732, Note_on_c, 0, 77, 80
2, 15745, Note_on_c, 0, 77, 0
2, 15746, Note_on_c, 0, 75, 80
2, 15759, Note_on_c, 0, 75, 0
2, 15760, Note_on_c, 0, 77, 80
2, 15773, Note_on_c, 0, 77, 0
2, 15774, Note_on_c, 0, 75, 80
2, 15787, Note_on_c, 0, 75, 0
2, 15788, Note_on_c, 0, 77, 80
2, 15800, Note_on_c, 0, 77, 0
2, 15801, Note_on_c, 0, 75, 80
2, 15813, Note_on_c, 0, 75, 0
2, 15814, Note_on_c, 0, 74, 80
2, 15826, Note_on_c, 0, 74, 0
2, 15827, Note_on_c, 0, 75, 80
2, 15839, Note_on_c, 0, 75, 0
2, 15840, Note_on_c, 0, 74, 80
2, 15885, Note_on_c, 0, 74, 0
2, 15888, Note_on_c, 0, 86, 80
2, 15888, Note_on_c, 0, 82, 80
2, 15933, Note_on_c, 0, 86, 0
2, 15933, Note_on_c, 0, 82, 0
2, 15936, Note_on_c, 0, 84, 80
2, 15936, Note_on_c, 0, 81, 80
2, 15981, Note_on_c, 0, 84, 0
2, 15981, Note_on_c, 0, 81, 0
2, 15984, Note_on_c, 0, 82, 81
2, 15984, Note_on_c, 0, 79, 81
2, 16029, Note_on_c, 0, 82, 0
2, 16029, Note_on_c, 0, 79, 0
2, 16032, Note_on_c, 0, 81, 83
2, 16032, Note_on_c, 0, 77, 83
2, 16077, Note_on_c, 0, 81, 0
2, 16077, Note_on_c, 0, 77, 0
2, 16080, Note_on_c, 0, 79, 85
2, 16080, Note_on_c, 0, 76, 85
2, 16125, Note_on_c, 0, 79, 0
2, 16125, Note_on_c, 0, 76, 0
2, 16128, Note_on_c, 0, 77, 87
2, 16148, Note_on_c, 0, 77, 0
2, 16176, Note_on_c, 0, 84, 87
2, 16221, Note_on_c, 0, 84, 0
2, 16224, Note_on_c, 0, 77, 87
2, 16237, Note_on_c, 0, 77, 0
2, 16238, Note_on_c, 0, 75, 87
2, 16251, Note_on_c, 0, 75, 0
2, 16252, Note_on_c, 0, 77, 87
2, 16265, Note_on_c, 0, 77, 0
2, 16266, Note_on_c, 0, 75, 87
2, 16279, Note_on_c, 0, 75, 0
2, 16280, Note_on_c, 0, 77, 87
2, 16293, Note_on_c, 0, 77, 0
2, 16294, Note_on_c, 0, 75, 87
2, 16307, Note_on_c, 0, 75, 0
2, 16308, Note_on_c, 0, 77, 87
2, 16321, Note_on_c, 0, 77, 0
2, 16322, Note_on_c, 0, 75, 87
2, 16335, Note_on_c, 0, 75, 0
2, 16336, Note_on_c, 0, 77, 87
2, 16349, Note_on_c, 0, 77, 0
2, 16350, Note_on_c, 0, 75, 87
2, 16363, Note_on_c, 0, 75, 0
2, 16364, Note_on_c, 0, 77, 87
2, 16376, Note_on_c, 0, 77, 0
2, 16377, Note_on_c, 0, 75, 87
2, 16389, Note_on_c, 0, 75, 0
2, 16390, Note_on_c, 0, 74, 87
2, 16402, Note_on_c, 0, 74, 0
2, 16403, Note_on_c, 0, 75, 87
2, 16415, Note_on_c, 0, 75, 0
2, 16416, Note_on_c, 0, 74, 87
2, 16461, Note_on_c, 0, 74, 0
2, 16464, Note_on_c, 0, 86, 87
2, 16464, Note_on_c, 0, 82, 87
2, 16509, Note_on_c, 0, 86, 0
2, 16509, Note_on_c, 0, 82, 0
2, 16512, Note_on_c, 0, 84, 87
2, 16512, Note_on_c, 0, 81, 87
2, 16557, Note_on_c, 0, 84, 0
2, 16557, Note_on_c, 0, 81, 0
2, 16560, Note_on_c, 0, 82, 87
2, 16560, Note_on_c, 0, 79, 87
2, 16605, Note_on_c, 0, 82, 0
2, 16605, Note_on_c, 0, 79, 0
2, 16608, Note_on_c, 0, 81, 87
2, 16608, Note_on_c, 0, 77, 87
2, 16653, Note_on_c, 0, 81, 0
2, 16653, Note_on_c, 0, 77, 0
2, 16656, Note_on_c, 0, 79, 87
2, 16656, Note_on_c, 0, 76, 87
2, 16701, Note_on_c, 0, 79, 0
2, 16701, Note_on_c, 0, 76, 0
2, 16704, Note_on_c, 0, 79, 87
2, 16716, Note_on_c, 0, 79, 0
2, 16716, Note_on_c, 0, 77, 87
2, 16728, Note_on_c, 0, 77, 0
2, 16728, Note_on_c, 0, 76, 87
2, 16740, Note_on_c, 0, 76, 0
2, 16740, Note_on_c, 0, 77, 87
2, 16881, Note_on_c, 0, 77, 0
2, 17040, Note_on_c, 0, 74, 69
2, 17085, Note_on_c, 0, 74, 0
2, 17088, Note_on_c, 0, 77, 69
2, 17133, Note_on_c, 0, 77, 0
2, 17136, Note_on_c, 0, 76, 69
2, 17181, Note_on_c, 0, 76, 0
2, 17184, Note_on_c, 0, 74, 69
2, 17229, Note_on_c, 0, 74, 0
2, 17232, Note_on_c, 0, 73, 69
2, 17277, Note_on_c, 0, 73, 0
2, 17280, Note_on_c, 0, 74, 69
2, 17325, Note_on_c, 0, 74, 0
2, 17328, Note_on_c, 0, 69, 69
2, 17373, Note_on_c, 0, 69, 0
2, 17376, Note_on_c, 0, 70, 69
2, 17389, Note_on_c, 0, 70, 0
2, 17390, Note_on_c, 0, 72, 69
2, 17403, Note_on_c, 0, 72, 0
2, 17404, Note_on_c, 0, 70, 69
2, 17417, Note_on_c, 0, 70, 0
2, 17418, Note_on_c, 0, 72, 69
2, 17431, Note_on_c, 0, 72, 0
2, 17432, Note_on_c, 0, 70, 69
2, 17445, Note_on_c, 0, 70, 0
2, 17446, Note_on_c, 0, 69, 69
2, 17458, Note_on_c, 0, 69, 0
2, 17459, Note_on_c, 0, 70, 69
2, 17471, Note_on_c, 0, 70, 0
2, 17472, Note_on_c, 0, 69, 69
2, 17561, Note_on_c, 0, 69, 0
2, 17568, Note_on_c, 0, 76, 85
2, 17568, Note_on_c, 0, 67, 85
2, 17856, Note_on_c, 0, 76, 0
2, 17856, Note_on_c, 0, 67, 0
2, 17856, Note_on_c, 0, 74, 86
2, 17856, Note_on_c, 0, 65, 86
2, 18144, Note_on_c, 0, 74, 0
2, 18144, Note_on_c, 0, 65, 0
2, 18192, Note_on_c, 0, 79, 72
2, 18192, Note_on_c, 0, 76, 72
2, 18237, Note_on_c, 0, 79, 0
2, 18237, Note_on_c, 0, 76, 0
2, 18288, Note_on_c, 0, 77, 73
2, 18288, Note_on_c, 0, 74, 73
2, 18333, Note_on_c, 0, 77, 0
2, 18333, Note_on_c, 0, 74, 0
2, 18384, Note_on_c, 0, 73, 73
2, 18384, Note_on_c, 0, 64, 73
2, 18429, Note_on_c, 0, 73, 0
2, 18429, Note_on_c, 0, 64, 0
2, 18432, Note_on_c, 0, 73, 74
2, 18432, Note_on_c, 0, 64, 74
2, 18528, Note_on_c, 0, 73, 0
2, 18528, Note_on_c, 0, 64, 0
2, 18528, Note_on_c, 0, 74, 74
2, 18528, Note_on_c, 0, 65, 74
2, 18617, Note_on_c, 0, 74, 0
2, 18617, Note_on_c, 0, 65, 0
2, 18768, Note_on_c, 0, 77, 80
2, 18813, Note_on_c, 0, 77, 0
2, 18816, Note_on_c, 0, 79, 80
2, 18861, Note_on_c, 0, 79, 0
2, 18864, Note_on_c, 0, 77, 80
2, 18909, Note_on_c, 0, 77, 0
2, 18912, Note_on_c, 0, 76, 80
2, 18957, Note_on_c, 0, 76, 0
2, 18960, Note_on_c, 0, 77, 80
2, 19005, Note_on_c, 0, 77, 0
2, 19056, Note_on_c, 0, 82, 80
2, 19145, Note_on_c, 0, 82, 0
2, 19152, Note_on_c, 0, 79, 80
2, 19241, Note_on_c, 0, 79, 0
2, 19248, Note_on_c, 0, 76, 80
2, 19293, Note_on_c, 0, 76, 0
2, 19344, Note_on_c, 0, 77, 80
2, 19389, Note_on_c, 0, 77, 0
2, 19392, Note_on_c, 0, 79, 80
2, 19437, Note_on_c, 0, 79, 0
2, 19440, Note_on_c, 0, 77, 80
2, 19485, Note_on_c, 0, 77, 0
2, 19488, Note_on_c, 0, 76, 80
2, 19533, Note_on_c, 0, 76, 0
2, 19536, Note_on_c, 0, 77, 80
2, 19581, Note_on_c, 0, 77, 0
2, 19632, Note_on_c, 0, 82, 80
2, 19721, Note_on_c, 0, 82, 0
2, 19728, Note_on_c, 0, 79, 80
2, 19817, Note_on_c, 0, 79, 0
2, 19824, Note_on_c, 0, 76, 80
2, 19869, Note_on_c, 0, 76, 0
2, 19872, Note_on_c, 0, 77, 80
2, 19892, Note_on_c, 0, 77, 0
2, 19920, Note_on_c, 0, 84, 80
2, 19965, Note_on_c, 0, 84, 0
2, 19968, Note_on_c, 0, 77, 80
2, 19981, Note_on_c, 0, 77, 0
2, 19982, Note_on_c, 0, 75, 80
2, 19995, Note_on_c, 0, 75, 0
2, 19996, Note_on_c, 0, 77, 80
2, 20009, Note_on_c, 0, 77, 0
2, 20010, Note_on_c, 0, 75, 80
2, 20023, Note_on_c, 0, 75, 0
2, 20024, Note_on_c, 0, 77, 80
2, 20037, Note_on_c, 0, 77, 0
2, 20038, Note_on_c, 0, 75, 80
2, 20051, Note_on_c, 0, 75, 0
2, 20052, Note_on_c, 0, 77, 80
2, 20065, Note_on_c, 0, 77, 0
2, 20066, Note_on_c, 0, 75, 80
2, 20079, Note_on_c, 0, 75, 0
2, 20080, Note_on_c, 0, 77, 80
2, 20093, Note_on_c, 0, 77, 0
2, 20094, Note_on_c, 0, 75, 80
2, 20107, Note_on_c, 0, 75, 0
2, 20108, Note_on_c, 0, 77, 80
2, 20120, Note_on_c, 0, 77, 0
2, 20121, Note_on_c, 0, 75, 80
2, 20133, Note_on_c, 0, 75, 0
2, 20134, Note_on_c, 0, 74, 80
2, 20146, Note_on_c, 0, 74, 0
2, 20147, Note_on_c, 0, 75, 80
2, 20159, Note_on_c, 0, 75, 0
2, 20160, Note_on_c, 0, 74, 80
2, 20205, Note_on_c, 0, 74, 0
2, 20208, Note_on_c, 0, 86, 80
2, 20208, Note_on_c, 0, 82, 80
2, 20253, Note_on_c, 0, 86, 0
2, 20253, Note_on_c, 0, 82, 0
2, 20256, Note_on_c, 0, 84, 80
2, 20256, Note_on_c, 0, 81, 80
2, 20301, Note_on_c, 0, 84, 0
2, 20301, Note_on_c, 0, 81, 0
2, 20304, Note_on_c, 0, 82, 81
2, 20304, Note_on_c, 0, 79, 81
2, 20349, Note_on_c, 0, 82, 0
2, 20349, Note_on_c, 0, 79, 0
2, 20352, Note_on_c, 0, 81, 83
2, 20352, Note_on_c, 0, 77, 83
2, 20397, Note_on_c, 0, 81, 0
2, 20397, Note_on_c, 0, 77, 0
2, 20400, Note_on_c, 0, 79, 85
2, 20400, Note_on_c, 0, 76, 85
2, 20445, Note_on_c, 0, 79, 0
2, 20445, Note_on_c, 0, 76, 0
2, 20448, Note_on_c, 0, 77, 87
2, 20468, Note_on_c, 0, 77, 0
2, 20496, Note_on_c, 0, 84, 87
2, 20541, Note_on_c, 0, 84, 0
2, 20544, Note_on_c, 0, 77, 87
2, 20557, Note_on_c, 0, 77, 0
2, 20558, Note_on_c, 0, 75, 87
2, 20571, Note_on_c, 0, 75, 0
2, 20572, Note_on_c, 0, 77, 87
2, 20585, Note_on_c, 0, 77, 0
2, 20586, Note_on_c, 0, 75, 87
2, 20599, Note_on_c, 0, 75, 0
2, 20600, Note_on_c, 0, 77, 87
2, 20613, Note_on_c, 0, 77, 0
2, 20614, Note_on_c, 0, 75, 87
2, 20627, Note_on_c, 0, 75, 0
2, 20628, Note_on_c, 0, 77, 87
2, 20641, Note_on_c, 0, 77, 0
2, 20642, Note_on_c, 0, 75, 87
2, 20655, Note_on_c, 0, 75, 0
2, 20656, Note_on_c, 0, 77, 87
2, 20669, Note_on_c, 0, 77, 0
2, 20670, Note_on_c, 0, 75, 87
2, 20683, Note_on_c, 0, 75, 0
2, 20684, Note_on_c, 0, 77, 87
2, 20696, Note_on_c, 0, 77, 0
2, 20697, Note_on_c, 0, 75, 87
2, 20709, Note_on_c, 0, 75, 0
2, 20710, Note_on_c, 0, 74, 87
2, 20722, Note_on_c, 0, 74, 0
2, 20723, Note_on_c, 0, 75, 87
2, 20735, Note_on_c, 0, 75, 0
2, 20736, Note_on_c, 0, 74, 87
2, 20781, Note_on_c, 0, 74, 0
2, 20784, Note_on_c, 0, 86, 87
2, 20784, Note_on_c, 0, 82, 87
2, 20829, Note_on_c, 0, 86, 0
2, 20829, Note_on_c, 0, 82, 0
2, 20832, Note_on_c, 0, 84, 87
2, 20832, Note_on_c, 0, 81, 87
2, 20877, Note_on_c, 0, 84, 0
2, 20877, Note_on_c, 0, 81, 0
2, 20880, Note_on_c, 0, 82, 87
2, 20880, Note_on_c, 0, 79, 87
2, 20925, Note_on_c, 0, 82, 0
2, 20925, Note_on_c, 0, 79, 0
2, 20928, Note_on_c, 0, 81, 87
2, 20928, Note_on_c, 0, 77, 87
2, 20973, Note_on_c, 0, 81, 0
2, 20973, Note_on_c, 0, 77, 0
2, 20976, Note_on_c, 0, 79, 87
2, 20976, Note_on_c, 0, 76, 87
2, 21021, Note_on_c, 0, 79, 0
2, 21021, Note_on_c, 0, 76, 0
2, 21024, Note_on_c, 0, 79, 87
2, 21036, Note_on_c, 0, 79, 0
2, 21036, Note_on_c, 0, 77, 87
2, 21048, Note_on_c, 0, 77, 0
2, 21048, Note_on_c, 0, 76, 87
2, 21060, Note_on_c, 0, 76, 0
2, 21060, Note_on_c, 0, 77, 87
2, 21201, Note_on_c, 0, 77, 0
2, 21360, Note_on_c, 0, 65, 80
2, 21405, Note_on_c, 0, 65, 0
2, 21408, Note_on_c, 0, 69, 80
2, 21453, Note_on_c, 0, 69, 0
2, 21456, Note_on_c, 0, 67, 80
2, 21501, Note_on_c, 0, 67, 0
2, 21504, Note_on_c, 0, 65, 80
2, 21549, Note_on_c, 0, 65, 0
2, 21552, Note_on_c, 0, 64, 80
2, 21597, Note_on_c, 0, 64, 0
2, 21600, Note_on_c, 0, 65, 80
2, 21620, Note_on_c, 0, 65, 0
2, 21648, Note_on_c, 0, 60, 80
2, 21693, Note_on_c, 0, 60, 0
2, 21696, Note_on_c, 0, 63, 80
2, 21709, Note_on_c, 0, 63, 0
2, 21710, Note_on_c, 0, 65, 80
2, 21723, Note_on_c, 0, 65, 0
2, 21724, Note_on_c, 0, 63, 80
2, 21737, Note_on_c, 0, 63, 0
2, 21738, Note_on_c, 0, 65, 80
2, 21751, Note_on_c, 0, 65, 0
2, 21752, Note_on_c, 0, 63, 80
2, 21765, Note_on_c, 0, 63, 0
2, 21766, Note_on_c, 0, 62, 80
2, 21778, Note_on_c, 0, 62, 0
2, 21779, Note_on_c, 0, 63, 80
2, 21791, Note_on_c, 0, 63, 0
2, 21792, Note_on_c, 0, 62, 80
2, 21881, Note_on_c, 0, 62, 0
2, 21936, Note_on_c, 0, 67, 87
2, 21981, Note_on_c, 0, 67, 0
2, 21984, Note_on_c, 0, 70, 87
2, 22029, Note_on_c, 0, 70, 0
2, 22032, Note_on_c, 0, 69, 87
2, 22077, Note_on_c, 0, 69, 0
2, 22080, Note_on_c, 0, 67, 87
2, 22125, Note_on_c, 0, 67, 0
2, 22128, Note_on_c, 0, 66, 87
2, 22173, Note_on_c, 0, 66, 0
2, 22176, Note_on_c, 0, 67, 87
2, 22196, Note_on_c, 0, 67, 0
2, 22224, Note_on_c, 0, 62, 87
2, 22269, Note_on_c, 0, 62, 0
2, 22272, Note_on_c, 0, 65, 87
2, 22285, Note_on_c, 0, 65, 0
2, 22286, Note_on_c, 0, 67, 87
2, 22299, Note_on_c, 0, 67, 0
2, 22300, Note_on_c, 0, 65, 87
2, 22313, Note_on_c, 0, 65, 0
2, 22314, Note_on_c, 0, 67, 87
2, 22327, Note_on_c, 0, 67, 0
2, 22328, Note_on_c, 0, 65, 87
2, 22341, Note_on_c, 0, 65, 0
2, 22342, Note_on_c, 0, 64, 87
2, 22354, Note_on_c, 0, 64, 0
2, 22355, Note_on_c, 0, 65, 87
2, 22367, Note_on_c, 0, 65, 0
2, 22368, Note_on_c, 0, 64, 87
2, 22457, Note_on_c, 0, 64, 0
2, 22512, Note_on_c, 0, 81, 93
2, 22557, Note_on_c, 0, 81, 0
2, 22560, Note_on_c, 0, 82, 91
2, 22605, Note_on_c, 0, 82, 0
2, 22608, Note_on_c, 0, 81, 90
2, 22653, Note_on_c, 0, 81, 0
2, 22656, Note_on_c, 0, 80, 89
2, 22701, Note_on_c, 0, 80, 0
2, 22704, Note_on_c, 0, 81, 88
2, 22749, Note_on_c, 0, 81, 0
2, 22800, Note_on_c, 0, 79, 86
2, 22845, Note_on_c, 0, 79, 0
2, 22848, Note_on_c, 0, 81, 85
2, 22893, Note_on_c, 0, 81, 0
2, 22896, Note_on_c, 0, 79, 84
2, 22941, Note_on_c, 0, 79, 0
2, 22944, Note_on_c, 0, 78, 82
2, 22989, Note_on_c, 0, 78, 0
2, 22992, Note_on_c, 0, 79, 81
2, 23037, Note_on_c, 0, 79, 0
2, 23088, Note_on_c, 0, 77, 79
2, 23133, Note_on_c, 0, 77, 0
2, 23136, Note_on_c, 0, 76, 78
2, 23181, Note_on_c, 0, 76, 0
2, 23184, Note_on_c, 0, 74, 77
2, 23229, Note_on_c, 0, 74, 0
2, 23232, Note_on_c, 0, 73, 76
2, 23277, Note_on_c, 0, 73, 0
2, 23280, Note_on_c, 0, 74, 75
2, 23325, Note_on_c, 0, 74, 0
2, 23328, Note_on_c, 0, 73, 74
2, 23417, Note_on_c, 0, 73, 0
2, 23664, Note_on_c, 0, 74, 69
2, 23709, Note_on_c, 0, 74, 0
2, 23712, Note_on_c, 0, 77, 69
2, 23757, Note_on_c, 0, 77, 0
2, 23760, Note_on_c, 0, 76, 69
2, 23805, Note_on_c, 0, 76, 0
2, 23808, Note_on_c, 0, 74, 69
2, 23853, Note_on_c, 0, 74, 0
2, 23856, Note_on_c, 0, 73, 69
2, 23901, Note_on_c, 0, 73, 0
2, 23904, Note_on_c, 0, 74, 69
2, 23949, Note_on_c, 0, 74, 0
2, 23952, Note_on_c, 0, 69, 69
2, 23997, Note_on_c, 0, 69, 0
2, 24000, Note_on_c, 0, 70, 69
2, 24013, Note_on_c, 0, 70, 0
2, 24014, Note_on_c, 0, 72, 69
2, 24027, Note_on_c, 0, 72, 0
2, 24028, Note_on_c, 0, 70, 69
2, 24041, Note_on_c, 0, 70, 0
2, 24042, Note_on_c, 0, 72, 69
2, 24055, Note_on_c, 0, 72, 0
2, 24056, Note_on_c, 0, 70, 69
2, 24069, Note_on_c, 0, 70, 0
2, 24070, Note_on_c, 0, 69, 69
2, 24082, Note_on_c, 0, 69, 0
2, 24083, Note_on_c, 0, 70, 69
2, 24095, Note_on_c, 0, 70, 0
2, 24096, Note_on_c, 0, 69, 69
2, 24185, Note_on_c, 0, 69, 0
2, 24192, Note_on_c, 0, 76, 85
2, 24192, Note_on_c, 0, 67, 85
2, 24480, Note_on_c, 0, 76, 0
2, 24480, Note_on_c, 0, 67, 0
2, 24480, Note_on_c, 0, 74, 88
2, 24480, Note_on_c, 0, 65, 88
2, 24768, Note_on_c, 0, 74, 0
2, 24768, Note_on_c, 0, 65, 0
2, 24816, Note_on_c, 0, 79, 76
2, 24816, Note_on_c, 0, 76, 76
2, 24861, Note_on_c, 0, 79, 0
2, 24861, Note_on_c, 0, 76, 0
2, 24912, Note_on_c, 0, 77, 78
2, 24912, Note_on_c, 0, 74, 78
2, 24957, Note_on_c, 0, 77, 0
2, 24957, Note_on_c, 0, 74, 0
2, 25008, Note_on_c, 0, 73, 79
2, 25008, Note_on_c, 0, 64, 79
2, 25053, Note_on_c, 0, 73, 0
2, 25053, Note_on_c, 0, 64, 0
2, 25056, Note_on_c, 0, 74, 80
2, 25101, Note_on_c, 0, 74, 0
2, 25104, Note_on_c, 0, 81, 80
2, 25149, Note_on_c, 0, 81, 0
2, 25152, Note_on_c, 0, 74, 80
2, 25165, Note_on_c, 0, 74, 0
2, 25166, Note_on_c, 0, 72, 80
2, 25179, Note_on_c, 0, 72, 0
2, 25180, Note_on_c, 0, 74, 80
2, 25193, Note_on_c, 0, 74, 0
2, 25194, Note_on_c, 0, 72, 80
2, 25207, Note_on_c, 0, 72, 0
2, 25208, Note_on_c, 0, 74, 80
2, 25221, Note_on_c, 0, 74, 0
2, 25222, Note_on_c, 0, 72, 80
2, 25235, Note_on_c, 0, 72, 0
2, 25236, Note_on_c, 0, 74, 80
2, 25249, Note_on_c, 0, 74, 0
2, 25250, Note_on_c, 0, 72, 80
2, 25263, Note_on_c, 0, 72, 0
2, 25264, Note_on_c, 0, 74, 80
2, 25277, Note_on_c, 0, 74, 0
2, 25278, Note_on_c, 0, 72, 80
2, 25291, Note_on_c, 0, 72, 0
2, 25292, Note_on_c, 0, 74, 80
2, 25304, Note_on_c, 0, 74, 0
2, 25305, Note_on_c, 0, 72, 80
2, 25317, Note_on_c, 0, 72, 0
2, 25318, Note_on_c, 0, 71, 80
2, 25330, Note_on_c, 0, 71, 0
2, 25331, Note_on_c, 0, 72, 80
2, 25343, Note_on_c, 0, 72, 0
2, 25344, Note_on_c, 0, 70, 80
2, 25389, Note_on_c, 0, 70, 0
2, 25392, Note_on_c, 0, 82, 80
2, 25392, Note_on_c, 0, 79, 80
2, 25437, Note_on_c, 0, 82, 0
2, 25437, Note_on_c, 0, 79, 0
2, 25440, Note_on_c, 0, 81, 80
2, 25440, Note_on_c, 0, 77, 80
2, 25485, Note_on_c, 0, 81, 0
2, 25485, Note_on_c, 0, 77, 0
2, 25488, Note_on_c, 0, 79, 78
2, 25488, Note_on_c, 0, 76, 78
2, 25533, Note_on_c, 0, 79, 0
2, 25533, Note_on_c, 0, 76, 0
2, 25536, Note_on_c, 0, 77, 77
2, 25536, Note_on_c, 0, 74, 77
2, 25581, Note_on_c, 0, 77, 0
2, 25581, Note_on_c, 0, 74, 0
2, 25584, Note_on_c, 0, 76, 75
2, 25584, Note_on_c, 0, 73, 75
2, 25629, Note_on_c, 0, 76, 0
2, 25629, Note_on_c, 0, 73, 0
2, 25632, Note_on_c, 0, 74, 74
2, 25677, Note_on_c, 0, 74, 0
2, 25680, Note_on_c, 0, 81, 74
2, 25725, Note_on_c, 0, 81, 0
2, 25728, Note_on_c, 0, 74, 74
2, 25741, Note_on_c, 0, 74, 0
2, 25742, Note_on_c, 0, 72, 74
2, 25755, Note_on_c, 0, 72, 0
2, 25756, Note_on_c, 0, 74, 74
2, 25769, Note_on_c, 0, 74, 0
2, 25770, Note_on_c, 0, 72, 74
2, 25783, Note_on_c, 0, 72, 0
2, 25784, Note_on_c, 0, 74, 74
2, 25797, Note_on_c, 0, 74, 0
2, 25798, Note_on_c, 0, 72, 74
2, 25811, Note_on_c, 0, 72, 0
2, 25812, Note_on_c, 0, 74, 74
2, 25825, Note_on_c, 0, 74, 0
2, 25826, Note_on_c, 0, 72, 74
2, 25839, Note_on_c, 0, 72, 0
2, 25840, Note_on_c, 0, 74, 74
2, 25853, Note_on_c, 0, 74, 0
2, 25854, Note_on_c, 0, 72, 74
2, 25867, Note_on_c, 0, 72, 0
2, 25868, Note_on_c, 0, 74, 74
2, 25880, Note_on_c, 0, 74, 0
2, 25881, Note_on_c, 0, 72, 74
2, 25893, Note_on_c, 0, 72, 0
2, 25894, Note_on_c, 0, 71, 74
2, 25906, Note_on_c, 0, 71, 0
2, 25907, Note_on_c, 0, 72, 74
2, 25919, Note_on_c, 0, 72, 0
2, 25920, Note_on_c, 0, 70, 74
2, 25965, Note_on_c, 0, 70, 0
2, 25968, Note_on_c, 0, 82, 74
2, 25968, Note_on_c, 0, 79, 74
2, 26013, Note_on_c, 0, 82, 0
2, 26013, Note_on_c, 0, 79, 0
2, 26016, Note_on_c, 0, 81, 74
2, 26016, Note_on_c, 0, 77, 74
2, 26061, Note_on_c, 0, 81, 0
2, 26061, Note_on_c, 0, 77, 0
2, 26064, Note_on_c, 0, 79, 72
2, 26064, Note_on_c, 0, 76, 72
2, 26109, Note_on_c, 0, 79, 0
2, 26109, Note_on_c, 0, 76, 0
2, 26112, Note_on_c, 0, 77, 71
2, 26112, Note_on_c, 0, 74, 71
2, 26157, Note_on_c, 0, 77, 0
2, 26157, Note_on_c, 0, 74, 0
2, 26160, Note_on_c, 0, 76, 70
2, 26160, Note_on_c, 0, 73, 70
2, 26205, Note_on_c, 0, 76, 0
2, 26205, Note_on_c, 0, 73, 0
2, 26208, Note_on_c, 0, 76, 69
2, 26220, Note_on_c, 0, 76, 0
2, 26220, Note_on_c, 0, 74, 69
2, 26232, Note_on_c, 0, 74, 0
2, 26232, Note_on_c, 0, 73, 69
2, 26244, Note_on_c, 0, 73, 0
2, 26244, Note_on_c, 0, 74, 69
2, 26385, Note_on_c, 0, 74, 0
2, 26544, Note_on_c, 0, 65, 80
2, 26589, Note_on_c, 0, 65, 0
2, 26592, Note_on_c, 0, 69, 80
2, 26637, Note_on_c, 0, 69, 0
2, 26640, Note_on_c, 0, 67, 80
2, 26685, Note_on_c, 0, 67, 0
2, 26688, Note_on_c, 0, 65, 80
2, 26733, Note_on_c, 0, 65, 0
2, 26736, Note_on_c, 0, 64, 80
2, 26781, Note_on_c, 0, 64, 0
2, 26784, Note_on_c, 0, 65, 80
2, 26804, Note_on_c, 0, 65, 0
2, 26832, Note_on_c, 0, 60, 80
2, 26877, Note_on_c, 0, 60, 0
2, 26880, Note_on_c, 0, 63, 80
2, 26893, Note_on_c, 0, 63, 0
2, 26894, Note_on_c, 0, 65, 80
2, 26907, Note_on_c, 0, 65, 0
2, 26908, Note_on_c, 0, 63, 80
2, 26921, Note_on_c, 0, 63, 0
2, 26922, Note_on_c, 0, 65, 80
2, 26935, Note_on_c, 0, 65, 0
2, 26936, Note_on_c, 0, 63, 80
2, 26949, Note_on_c, 0, 63, 0
2, 26950, Note_on_c, 0, 62, 80
2, 26962, Note_on_c, 0, 62, 0
2, 26963, Note_on_c, 0, 63, 80
2, 26975, Note_on_c, 0, 63, 0
2, 26976, Note_on_c, 0, 62, 80
2, 27065, Note_on_c, 0, 62, 0
2, 27120, Note_on_c, 0, 67, 87
2, 27165, Note_on_c, 0, 67, 0
2, 27168, Note_on_c, 0, 70, 87
2, 27213, Note_on_c, 0, 70, 0
2, 27216, Note_on_c, 0, 69, 87
2, 27261, Note_on_c, 0, 69, 0
2, 27264, Note_on_c, 0, 67, 87
2, 27309, Note_on_c, 0, 67, 0
2, 27312, Note_on_c, 0, 66, 87
2, 27357, Note_on_c, 0, 66, 0
2, 27360, Note_on_c, 0, 67, 87
2, 27380, Note_on_c, 0, 67, 0
2, 27408, Note_on_c, 0, 62, 87
2, 27453, Note_on_c, 0, 62, 0
2, 27456, Note_on_c, 0, 65, 87
2, 27469, Note_on_c, 0, 65, 0
2, 27470, Note_on_c, 0, 67, 87
2, 27483, Note_on_c, 0, 67, 0
2, 27484, Note_on_c, 0, 65, 87
2, 27497, Note_on_c, 0, 65, 0
2, 27498, Note_on_c, 0, 67, 87
2, 27511, Note_on_c, 0, 67, 0
2, 27512, Note_on_c, 0, 65, 87
2, 27525, Note_on_c, 0, 65, 0
2, 27526, Note_on_c, 0, 64, 87
2, 27538, Note_on_c, 0, 64, 0
2, 27539, Note_on_c, 0, 65, 87
2, 27551, Note_on_c, 0, 65, 0
2, 27552, Note_on_c, 0, 64, 87
2, 27641, Note_on_c, 0, 64, 0
2, 27696, Note_on_c, 0, 81, 93
2, 27741, Note_on_c, 0, 81, 0
2, 27744, Note_on_c, 0, 82, 91
2, 27789, Note_on_c, 0, 82, 0
2, 27792, Note_on_c, 0, 81, 90
2, 27837, Note_on_c, 0, 81, 0
2, 27840, Note_on_c, 0, 80, 89
2, 27885, Note_on_c, 0, 80, 0
2, 27888, Note_on_c, 0, 81, 88
2, 27933, Note_on_c, 0, 81, 0
2, 27984, Note_on_c, 0, 79, 86
2, 28029, Note_on_c, 0, 79, 0
2, 28032, Note_on_c, 0, 81, 85
2, 28077, Note_on_c, 0, 81, 0
2, 28080, Note_on_c, 0, 79, 84
2, 28125, Note_on_c, 0, 79, 0
2, 28128, Note_on_c, 0, 78, 82
2, 28173, Note_on_c, 0, 78, 0
2, 28176, Note_on_c, 0, 79, 81
2, 28221, Note_on_c, 0, 79, 0
2, 28272, Note_on_c, 0, 77, 79
2, 28317, Note_on_c, 0, 77, 0
2, 28320, Note_on_c, 0, 76, 78
2, 28365, Note_on_c, 0, 76, 0
2, 28368, Note_on_c, 0, 74, 77
2, 28413, Note_on_c, 0, 74, 0
2, 28416, Note_on_c, 0, 73, 76
2, 28461, Note_on_c, 0, 73, 0
2, 28464, Note_on_c, 0, 74, 75
2, 28509, Note_on_c, 0, 74, 0
2, 28512, Note_on_c, 0, 73, 74
2, 28601, Note_on_c, 0, 73, 0
2, 28848, Note_on_c, 0, 74, 69
2, 28893, Note_on_c, 0, 74, 0
2, 28896, Note_on_c, 0, 77, 69
2, 28941, Note_on_c, 0, 77, 0
2, 28944, Note_on_c, 0, 76, 69
2, 28989, Note_on_c, 0, 76, 0
2, 28992, Note_on_c, 0, 74, 69
2, 29037, Note_on_c, 0, 74, 0
2, 29040, Note_on_c, 0, 73, 69
2, 29085, Note_on_c, 0, 73, 0
2, 29088, Note_on_c, 0, 74, 69
2, 29133, Note_on_c, 0, 74, 0
2, 29136, Note_on_c, 0, 69, 69
2, 29181, Note_on_c, 0, 69, 0
2, 29184, Note_on_c, 0, 70, 69
2, 29197, Note_on_c, 0, 70, 0
2, 29198, Note_on_c, 0, 72, 69
2, 29211, Note_on_c, 0, 72, 0
2, 29212, Note_on_c, 0, 70, 69
2, 29225, Note_on_c, 0, 70, 0
2, 29226, Note_on_c, 0, 72, 69
2, 29239, Note_on_c, 0, 72, 0
2, 29240, Note_on_c, 0, 70, 69
2, 29253, Note_on_c, 0, 70, 0
2, 29254, Note_on_c, 0, 69, 69
2, 29266, Note_on_c, 0, 69, 0
2, 29267, Note_on_c, 0, 70, 69
2, 29279, Note_on_c, 0, 70, 0
2, 29280, Note_on_c, 0, 69, 69
2, 29369, Note_on_c, 0, 69, 0
2, 29376, Note_on_c, 0, 76, 85
2, 29376, Note_on_c, 0, 67, 85
2, 29664, Note_on_c, 0, 76, 0
2, 29664, Note_on_c, 0, 67, 0
2, 29664, Note_on_c, 0, 74, 88
2, 29664, Note_on_c, 0, 65, 88
2, 29952, Note_on_c, 0, 74, 0
2, 29952, Note_on_c, 0, 65, 0
2, 30000, Note_on_c, 0, 79, 76
2, 30000, Note_on_c, 0, 76, 76
2, 30045, Note_on_c, 0, 79, 0
2, 30045, Note_on_c, 0, 76, 0
2, 30096, Note_on_c, 0, 77, 78
2, 30096, Note_on_c, 0, 74, 78
2, 30141, Note_on_c, 0, 77, 0
2, 30141, Note_on_c, 0, 74, 0
2, 30192, Note_on_c, 0, 73, 79
2, 30192, Note_on_c, 0, 64, 79
2, 30237, Note_on_c, 0, 73, 0
2, 30237, Note_on_c, 0, 64, 0
2, 30240, Note_on_c, 0, 74, 80
2, 30285, Note_on_c, 0, 74, 0
2, 30288, Note_on_c, 0, 81, 80
2, 30333, Note_on_c, 0, 81, 0
2, 30336, Note_on_c, 0, 74, 80
2, 30349, Note_on_c, 0, 74, 0
2, 30350, Note_on_c, 0, 72, 80
2, 30363, Note_on_c, 0, 72, 0
2, 30364, Note_on_c, 0, 74, 80
2, 30377, Note_on_c, 0, 74, 0
2, 30378, Note_on_c, 0, 72, 80
2, 30391, Note_on_c, 0, 72, 0
2, 30392, Note_on_c, 0, 74, 80
2, 30405, Note_on_c, 0, 74, 0
2, 30406, Note_on_c, 0, 72, 80
2, 30419, Note_on_c, 0, 72, 0
2, 30420, Note_on_c, 0, 74, 80
2, 30433, Note_on_c, 0, 74, 0
2, 30434, Note_on_c, 0, 72, 80
2, 30447, Note_on_c, 0, 72, 0
2, 30448, Note_on_c, 0, 74, 80
2, 30461, Note_on_c, 0, 74, 0
2, 30462, Note_on_c, 0, 72, 80
2, 30475, Note_on_c, 0, 72, 0
2, 30476, Note_on_c, 0, 74, 80
2, 30488, Note_on_c, 0, 74, 0
2, 30489, Note_on_c, 0, 72, 80
2, 30501, Note_on_c, 0, 72, 0
2, 30502, Note_on_c, 0, 71, 80
2, 30514, Note_on_c, 0, 71, 0
2, 30515, Note_on_c, 0, 72, 80
2, 30527, Note_on_c, 0, 72, 0
2, 30528, Note_on_c, 0, 70, 80
2, 30573, Note_on_c, 0, 70, 0
2, 30576, Note_on_c, 0, 82, 80
2, 30576, Note_on_c, 0, 79, 80
2, 30621, Note_on_c, 0, 82, 0
2, 30621, Note_on_c, 0, 79, 0
2, 30624, Note_on_c, 0, 81, 80
2, 30624, Note_on_c, 0, 77, 80
2, 30669, Note_on_c, 0, 81, 0
2, 30669, Note_on_c, 0, 77, 0
2, 30672, Note_on_c, 0, 79, 78
2, 30672, Note_on_c, 0, 76, 78
2, 30717, Note_on_c, 0, 79, 0
2, 30717, Note_on_c, 0, 76, 0
2, 30720, Note_on_c, 0, 77, 77
2, 30720, Note_on_c, 0, 74, 77
2, 30765, Note_on_c, 0, 77, 0
2, 30765, Note_on_c, 0, 74, 0
2, 30768, Note_on_c, 0, 76, 75
2, 30768, Note_on_c, 0, 73, 75
2, 30813, Note_on_c, 0, 76, 0
2, 30813, Note_on_c, 0, 73, 0
2, 30816, Note_on_c, 0, 74, 74
2, 30861, Note_on_c, 0, 74, 0
2, 30864, Note_on_c, 0, 81, 74
2, 30909, Note_on_c, 0, 81, 0
2, 30912, Note_on_c, 0, 74, 74
2, 30925, Note_on_c, 0, 74, 0
2, 30926, Note_on_c, 0, 72, 74
2, 30939, Note_on_c, 0, 72, 0
2, 30940, Note_on_c, 0, 74, 74
2, 30953, Note_on_c, 0, 74, 0
2, 30954, Note_on_c, 0, 72, 74
2, 30967, Note_on_c, 0, 72, 0
2, 30968, Note_on_c, 0, 74, 74
2, 30981, Note_on_c, 0, 74, 0
2, 30982, Note_on_c, 0, 72, 74
2, 30995, Note_on_c, 0, 72, 0
2, 30996, Note_on_c, 0, 74, 74
2, 31009, Note_on_c, 0, 74, 0
2, 31010, Note_on_c, 0, 72, 74
2, 31023, Note_on_c, 0, 72, 0
2, 31024, Note_on_c, 0, 74, 74
2, 31037, Note_on_c, 0, 74, 0
2, 31038, Note_on_c, 0, 72, 74
2, 31051, Note_on_c, 0, 72, 0
2, 31052, Note_on_c, 0, 74, 74
2, 31064, Note_on_c, 0, 74, 0
2, 31065, Note_on_c, 0, 72, 74
2, 31077, Note_on_c, 0, 72, 0
2, 31078, Note_on_c, 0, 71, 74
2, 31090, Note_on_c, 0, 71, 0
2, 31091, Note_on_c, 0, 72, 74
2, 31103, Note_on_c, 0, 72, 0
2, 31104, Note_on_c, 0, 70, 74
2, 31149, Note_on_c, 0, 70, 0
2, 31152, Note_on_c, 0, 82, 74
2, 31152, Note_on_c, 0, 79, 74
2, 31197, Note_on_c, 0, 82, 0
2, 31197, Note_on_c, 0, 79, 0
2, 31200, Note_on_c, 0, 81, 74
2, 31200, Note_on_c, 0, 77, 74
2, 31245, Note_on_c, 0, 81, 0
2, 31245, Note_on_c, 0, 77, 0
2, 31248, Note_on_c, 0, 79, 72
2, 31248, Note_on_c, 0, 76, 72
2, 31293, Note_on_c, 0, 79, 0
2, 31293, Note_on_c, 0, 76, 0
2, 31296, Note_on_c, 0, 77, 71
2, 31296, Note_on_c, 0, 74, 71
2, 31341, Note_on_c, 0, 77, 0
2, 31341, Note_on_c, 0, 74, 0
2, 31344, Note_on_c, 0, 76, 70
2, 31344, Note_on_c, 0, 73, 70
2, 31389, Note_on_c, 0, 76, 0
2, 31389, Note_on_c, 0, 73, 0
2, 31392, Note_on_c, 0, 76, 69
2, 31404, Note_on_c, 0, 76, 0
2, 31404, Note_on_c, 0, 74, 69
2, 31416, Note_on_c, 0, 74, 0
2, 31416, Note_on_c, 0, 73, 69
2, 31428, Note_on_c, 0, 73, 0
2, 31428, Note_on_c, 0, 74, 69
2, 31569, Note_on_c, 0, 74, 0
2, 31680, Note_on_c, 0, 57, 80
2, 31769, Note_on_c, 0, 57, 0
2, 31776, Note_on_c, 0, 62, 80
2, 31939, Note_on_c, 0, 62, 0
2, 31944, Note_on_c, 0, 66, 80
2, 31967, Note_on_c, 0, 66, 0
2, 31968, Note_on_c, 0, 66, 80
2, 32035, Note_on_c, 0, 66, 0
2, 32040, Note_on_c, 0, 67, 80
2, 32063, Note_on_c, 0, 67, 0
2, 32064, Note_on_c, 0, 62, 80
2, 32160, Note_on_c, 0, 62, 0
2, 32160, Note_on_c, 0, 61, 80
2, 32249, Note_on_c, 0, 61, 0
2, 32280, Note_on_c, 0, 62, 80
2, 32303, Note_on_c, 0, 62, 0
2, 32304, Note_on_c, 0, 64, 80
2, 32327, Note_on_c, 0, 64, 0
2, 32328, Note_on_c, 0, 66, 81
2, 32351, Note_on_c, 0, 66, 0
2, 32352, Note_on_c, 0, 67, 82
2, 32375, Note_on_c, 0, 67, 0
2, 32376, Note_on_c, 0, 69, 82
2, 32399, Note_on_c, 0, 69, 0
2, 32400, Note_on_c, 0, 71, 83
2, 32423, Note_on_c, 0, 71, 0
2, 32424, Note_on_c, 0, 73, 84
2, 32447, Note_on_c, 0, 73, 0
2, 32448, Note_on_c, 0, 74, 84
2, 32471, Note_on_c, 0, 74, 0
2, 32472, Note_on_c, 0, 76, 85
2, 32495, Note_on_c, 0, 76, 0
2, 32496, Note_on_c, 0, 78, 86
2, 32519, Note_on_c, 0, 78, 0
2, 32520, Note_on_c, 0, 74, 87
2, 32543, Note_on_c, 0, 74, 0
2, 32544, Note_on_c, 0, 69, 86
2, 32633, Note_on_c, 0, 69, 0
2, 32640, Note_on_c, 0, 67, 84
2, 32653, Note_on_c, 0, 67, 0
2, 32654, Note_on_c, 0, 69, 84
2, 32667, Note_on_c, 0, 69, 0
2, 32668, Note_on_c, 0, 67, 83
2, 32681, Note_on_c, 0, 67, 0
2, 32682, Note_on_c, 0, 69, 83
2, 32695, Note_on_c, 0, 69, 0
2, 32696, Note_on_c, 0, 67, 83
2, 32709, Note_on_c, 0, 67, 0
2, 32710, Note_on_c, 0, 66, 82
2, 32722, Note_on_c, 0, 66, 0
2, 32723, Note_on_c, 0, 67, 82
2, 32735, Note_on_c, 0, 67, 0
2, 32736, Note_on_c, 0, 66, 82
2, 32825, Note_on_c, 0, 66, 0
2, 32832, Note_on_c, 0, 74, 80
2, 32852, Note_on_c, 0, 74, 0
2, 32880, Note_on_c, 0, 74, 80
2, 32951, Note_on_c, 0, 74, 0
2, 32952, Note_on_c, 0, 78, 80
2, 32975, Note_on_c, 0, 78, 0
2, 32976, Note_on_c, 0, 76, 80
2, 32999, Note_on_c, 0, 76, 0
2, 33000, Note_on_c, 0, 74, 80
2, 33023, Note_on_c, 0, 74, 0
2, 33024, Note_on_c, 0, 74, 80
2, 33047, Note_on_c, 0, 74, 0
2, 33048, Note_on_c, 0, 73, 78
2, 33071, Note_on_c, 0, 73, 0
2, 33072, Note_on_c, 0, 71, 77
2, 33095, Note_on_c, 0, 71, 0
2, 33096, Note_on_c, 0, 69, 75
2, 33119, Note_on_c, 0, 69, 0
2, 33120, Note_on_c, 0, 74, 74
2, 33140, Note_on_c, 0, 74, 0
2, 33168, Note_on_c, 0, 74, 74
2, 33239, Note_on_c, 0, 74, 0
2, 33240, Note_on_c, 0, 78, 74
2, 33263, Note_on_c, 0, 78, 0
2, 33264, Note_on_c, 0, 76, 74
2, 33287, Note_on_c, 0, 76, 0
2, 33288, Note_on_c, 0, 74, 74
2, 33311, Note_on_c, 0, 74, 0
2, 33312, Note_on_c, 0, 74, 74
2, 33335, Note_on_c, 0, 74, 0
2, 33336, Note_on_c, 0, 73, 75
2, 33359, Note_on_c, 0, 73, 0
2, 33360, Note_on_c, 0, 71, 77
2, 33383, Note_on_c, 0, 71, 0
2, 33384, Note_on_c, 0, 69, 78
2, 33407, Note_on_c, 0, 69, 0
2, 33408, Note_on_c, 0, 68, 80
2, 33432, Note_on_c, 0, 68, 0
2, 33432, Note_on_c, 0, 69, 80
2, 33455, Note_on_c, 0, 69, 0
2, 33456, Note_on_c, 0, 66, 80
2, 33479, Note_on_c, 0, 66, 0
2, 33480, Note_on_c, 0, 62, 80
2, 33503, Note_on_c, 0, 62, 0
2, 33504, Note_on_c, 0, 61, 80
2, 33593, Note_on_c, 0, 61, 0
2, 33600, Note_on_c, 0, 59, 80
2, 33613, Note_on_c, 0, 59, 0
2, 33614, Note_on_c, 0, 61, 80
2, 33627, Note_on_c, 0, 61, 0
2, 33628, Note_on_c, 0, 59, 80
2, 33641, Note_on_c, 0, 59, 0
2, 33642, Note_on_c, 0, 61, 80
2, 33655, Note_on_c, 0, 61, 0
2, 33656, Note_on_c, 0, 59, 80
2, 33669, Note_on_c, 0, 59, 0
2, 33670, Note_on_c, 0, 57, 80
2, 33682, Note_on_c, 0, 57, 0
2, 33683, Note_on_c, 0, 59, 80
2, 33695, Note_on_c, 0, 59, 0
2, 33696, Note_on_c, 0, 57, 80
2, 33873, Note_on_c, 0, 57, 0
2, 33984, Note_on_c, 0, 57, 80
2, 34073, Note_on_c, 0, 57, 0
2, 34080, Note_on_c, 0, 62, 80
2, 34243, Note_on_c, 0, 62, 0
2, 34248, Note_on_c, 0, 66, 80
2, 34271, Note_on_c, 0, 66, 0
2, 34272, Note_on_c, 0, 66, 80
2, 34339, Note_on_c, 0, 66, 0
2, 34344, Note_on_c, 0, 67, 80
2, 34367, Note_on_c, 0, 67, 0
2, 34368, Note_on_c, 0, 62, 80
2, 34464, Note_on_c, 0, 62, 0
2, 34464, Note_on_c, 0, 61, 80
2, 34553, Note_on_c, 0, 61, 0
2, 34584, Note_on_c, 0, 62, 80
2, 34607, Note_on_c, 0, 62, 0
2, 34608, Note_on_c, 0, 64, 80
2, 34631, Note_on_c, 0, 64, 0
2, 34632, Note_on_c, 0, 66, 81
2, 34655, Note_on_c, 0, 66, 0
2, 34656, Note_on_c, 0, 67, 82
2, 34679, Note_on_c, 0, 67, 0
2, 34680, Note_on_c, 0, 69, 82
2, 34703, Note_on_c, 0, 69, 0
2, 34704, Note_on_c, 0, 71, 83
2, 34727, Note_on_c, 0, 71, 0
2, 34728, Note_on_c, 0, 73, 84
2, 34751, Note_on_c, 0, 73, 0
2, 34752, Note_on_c, 0, 74, 84
2, 34775, Note_on_c, 0, 74, 0
2, 34776, Note_on_c, 0, 76, 85
2, 34799, Note_on_c, 0, 76, 0
2, 34800, Note_on_c, 0, 78, 86
2, 34823, Note_on_c, 0, 78, 0
2, 34824, Note_on_c, 0, 74, 87
2, 34847, Note_on_c, 0, 74, 0
2, 34848, Note_on_c, 0, 69, 86
2, 34937, Note_on_c, 0, 69, 0
2, 34944, Note_on_c, 0, 67, 84
2, 34957, Note_on_c, 0, 67, 0
2, 34958, Note_on_c, 0, 69, 84
2, 34971, Note_on_c, 0, 69, 0
2, 34972, Note_on_c, 0, 67, 83
2, 34985, Note_on_c, 0, 67, 0
2, 34986, Note_on_c, 0, 69, 83
2, 34999, Note_on_c, 0, 69, 0
2, 35000, Note_on_c, 0, 67, 83
2, 35013, Note_on_c, 0, 67, 0
2, 35014, Note_on_c, 0, 66, 82
2, 35026, Note_on_c, 0, 66, 0
2, 35027, Note_on_c, 0, 67, 82
2, 35039, Note_on_c, 0, 67, 0
2, 35040, Note_on_c, 0, 66, 82
2, 35129, Note_on_c, 0, 66, 0
2, 35136, Note_on_c, 0, 74, 80
2, 35156, Note_on_c, 0, 74, 0
2, 35184, Note_on_c, 0, 74, 80
2, 35255, Note_on_c, 0, 74, 0
2, 35256, Note_on_c, 0, 78, 80
2, 35279, Note_on_c, 0, 78, 0
2, 35280, Note_on_c, 0, 76, 80
2, 35303, Note_on_c, 0, 76, 0
2, 35304, Note_on_c, 0, 74, 80
2, 35327, Note_on_c, 0, 74, 0
2, 35328, Note_on_c, 0, 74, 80
2, 35351, Note_on_c, 0, 74, 0
2, 35352, Note_on_c, 0, 73, 78
2, 35375, Note_on_c, 0, 73, 0
2, 35376, Note_on_c, 0, 71, 77
2, 35399, Note_on_c, 0, 71, 0
2, 35400, Note_on_c, 0, 69, 75
2, 35423, Note_on_c, 0, 69, 0
2, 35424, Note_on_c, 0, 74, 74
2, 35444, Note_on_c, 0, 74, 0
2, 35472, Note_on_c, 0, 74, 74
2, 35543, Note_on_c, 0, 74, 0
2, 35544, Note_on_c, 0, 78, 74
2, 35567, Note_on_c, 0, 78, 0
2, 35568, Note_on_c, 0, 76, 74
2, 35591, Note_on_c, 0, 76, 0
2, 35592, Note_on_c, 0, 74, 74
2, 35615, Note_on_c, 0, 74, 0
2, 35616, Note_on_c, 0, 74, 74
2, 35639, Note_on_c, 0, 74, 0
2, 35640, Note_on_c, 0, 73, 75
2, 35663, Note_on_c, 0, 73, 0
2, 35664, Note_on_c, 0, 71, 77
2, 35687, Note_on_c, 0, 71, 0
2, 35688, Note_on_c, 0, 69, 78
2, 35711, Note_on_c, 0, 69, 0
2, 35712, Note_on_c, 0, 68, 80
2, 35736, Note_on_c, 0, 68, 0
2, 35736, Note_on_c, 0, 69, 80
2, 35759, Note_on_c, 0, 69, 0
2, 35760, Note_on_c, 0, 66, 80
2, 35783, Note_on_c, 0, 66, 0
2, 35784, Note_on_c, 0, 62, 80
2, 35807, Note_on_c, 0, 62, 0
2, 35808, Note_on_c, 0, 61, 80
2, 35897, Note_on_c, 0, 61, 0
2, 35904, Note_on_c, 0, 59, 80
2, 35917, Note_on_c, 0, 59, 0
2, 35918, Note_on_c, 0, 61, 80
2, 35931, Note_on_c, 0, 61, 0
2, 35932, Note_on_c, 0, 59, 80
2, 35945, Note_on_c, 0, 59, 0
2, 35946, Note_on_c, 0, 61, 80
2, 35959, Note_on_c, 0, 61, 0
2, 35960, Note_on_c, 0, 59, 80
2, 35973, Note_on_c, 0, 59, 0
2, 35974, Note_on_c, 0, 57, 80
2, 35986, Note_on_c, 0, 57, 0
2, 35987, Note_on_c, 0, 59, 80
2, 35999, Note_on_c, 0, 59, 0
2, 36000, Note_on_c, 0, 57, 80
2, 36177, Note_on_c, 0, 57, 0
2, 36288, Note_on_c, 0, 83, 80
2, 36303, Note_on_c, 0, 83, 0
2, 36304, Note_on_c, 0, 81, 80
2, 36319, Note_on_c, 0, 81, 0
2, 36320, Note_on_c, 0, 83, 80
2, 36335, Note_on_c, 0, 83, 0
2, 36336, Note_on_c, 0, 81, 80
2, 36350, Note_on_c, 0, 81, 0
2, 36351, Note_on_c, 0, 83, 80
2, 36365, Note_on_c, 0, 83, 0
2, 36366, Note_on_c, 0, 81, 80
2, 36380, Note_on_c, 0, 81, 0
2, 36381, Note_on_c, 0, 83, 80
2, 36395, Note_on_c, 0, 83, 0
2, 36396, Note_on_c, 0, 81, 80
2, 36410, Note_on_c, 0, 81, 0
2, 36411, Note_on_c, 0, 83, 80
2, 36425, Note_on_c, 0, 83, 0
2, 36426, Note_on_c, 0, 81, 80
2, 36440, Note_on_c, 0, 81, 0
2, 36441, Note_on_c, 0, 83, 80
2, 36455, Note_on_c, 0, 83, 0
2, 36456, Note_on_c, 0, 81, 80
2, 36470, Note_on_c, 0, 81, 0
2, 36471, Note_on_c, 0, 83, 80
2, 36485, Note_on_c, 0, 83, 0
2, 36486, Note_on_c, 0, 81, 80
2, 36500, Note_on_c, 0, 81, 0
2, 36501, Note_on_c, 0, 83, 80
2, 36515, Note_on_c, 0, 83, 0
2, 36516, Note_on_c, 0, 81, 80
2, 36530, Note_on_c, 0, 81, 0
2, 36531, Note_on_c, 0, 83, 80
2, 36545, Note_on_c, 0, 83, 0
2, 36546, Note_on_c, 0, 81, 80
2, 36560, Note_on_c, 0, 81, 0
2, 36561, Note_on_c, 0, 83, 80
2, 36576, Note_on_c, 0, 83, 0
2, 36576, Note_on_c, 0, 81, 80
2, 36665, Note_on_c, 0, 81, 0
2, 36672, Note_on_c, 0, 69, 80
2, 36717, Note_on_c, 0, 69, 0
2, 36720, Note_on_c, 0, 71, 80
2, 36743, Note_on_c, 0, 71, 0
2, 36744, Note_on_c, 0, 73, 80
2, 36767, Note_on_c, 0, 73, 0
2, 36768, Note_on_c, 0, 74, 80
2, 36791, Note_on_c, 0, 74, 0
2, 36792, Note_on_c, 0, 76, 80
2, 36815, Note_on_c, 0, 76, 0
2, 36816, Note_on_c, 0, 78, 80
2, 36839, Note_on_c, 0, 78, 0
2, 36840, Note_on_c, 0, 80, 80
2, 36863, Note_on_c, 0, 80, 0
2, 36864, Note_on_c, 0, 83, 80
2, 36879, Note_on_c, 0, 83, 0
2, 36880, Note_on_c, 0, 81, 80
2, 36895, Note_on_c, 0, 81, 0
2, 36896, Note_on_c, 0, 83, 80
2, 36911, Note_on_c, 0, 83, 0
2, 36912, Note_on_c, 0, 81, 80
2, 36926, Note_on_c, 0, 81, 0
2, 36927, Note_on_c, 0, 83, 80
2, 36941, Note_on_c, 0, 83, 0
2, 36942, Note_on_c, 0, 81, 80
2, 36956, Note_on_c, 0, 81, 0
2, 36957, Note_on_c, 0, 83, 80
2, 36971, Note_on_c, 0, 83, 0
2, 36972, Note_on_c, 0, 81, 80
2, 36986, Note_on_c, 0, 81, 0
2, 36987, Note_on_c, 0, 83, 80
2, 37001, Note_on_c, 0, 83, 0
2, 37002, Note_on_c, 0, 81, 80
2, 37016, Note_on_c, 0, 81, 0
2, 37017, Note_on_c, 0, 83, 80
2, 37031, Note_on_c, 0, 83, 0
2, 37032, Note_on_c, 0, 81, 80
2, 37046, Note_on_c, 0, 81, 0
2, 37047, Note_on_c, 0, 83, 80
2, 37061, Note_on_c, 0, 83, 0
2, 37062, Note_on_c, 0, 81, 80
2, 37076, Note_on_c, 0, 81, 0
2, 37077, Note_on_c, 0, 83, 80
2, 37091, Note_on_c, 0, 83, 0
2, 37092, Note_on_c, 0, 81, 80
2, 37106, Note_on_c, 0, 81, 0
2, 37107, Note_on_c, 0, 83, 80
2, 37121, Note_on_c, 0, 83, 0
2, 37122, Note_on_c, 0, 81, 80
2, 37136, Note_on_c, 0, 81, 0
2, 37137, Note_on_c, 0, 83, 80
2, 37151, Note_on_c, 0, 83, 0
2, 37152, Note_on_c, 0, 81, 80
2, 37241, Note_on_c, 0, 81, 0
2, 37248, Note_on_c, 0, 69, 80
2, 37271, Note_on_c, 0, 69, 0
2, 37272, Note_on_c, 0, 71, 80
2, 37295, Note_on_c, 0, 71, 0
2, 37296, Note_on_c, 0, 73, 80
2, 37319, Note_on_c, 0, 73, 0
2, 37320, Note_on_c, 0, 74, 80
2, 37343, Note_on_c, 0, 74, 0
2, 37344, Note_on_c, 0, 76, 80
2, 37367, Note_on_c, 0, 76, 0
2, 37368, Note_on_c, 0, 78, 80
2, 37391, Note_on_c, 0, 78, 0
2, 37392, Note_on_c, 0, 79, 80
2, 37415, Note_on_c, 0, 79, 0
2, 37416, Note_on_c, 0, 81, 80
2, 37439, Note_on_c, 0, 81, 0
2, 37440, Note_on_c, 0, 78, 80
2, 37463, Note_on_c, 0, 78, 0
2, 37464, Note_on_c, 0, 74, 80
2, 37487, Note_on_c, 0, 74, 0
2, 37488, Note_on_c, 0, 73, 81
2, 37511, Note_on_c, 0, 73, 0
2, 37512, Note_on_c, 0, 74, 81
2, 37535, Note_on_c, 0, 74, 0
2, 37536, Note_on_c, 0, 81, 82
2, 37559, Note_on_c, 0, 81, 0
2, 37560, Note_on_c, 0, 78, 82
2, 37583, Note_on_c, 0, 78, 0
2, 37584, Note_on_c, 0, 76, 83
2, 37607, Note_on_c, 0, 76, 0
2, 37608, Note_on_c, 0, 74, 84
2, 37631, Note_on_c, 0, 74, 0
2, 37632, Note_on_c, 0, 83, 84
2, 37655, Note_on_c, 0, 83, 0
2, 37656, Note_on_c, 0, 79, 85
2, 37679, Note_on_c, 0, 79, 0
2, 37680, Note_on_c, 0, 78, 85
2, 37703, Note_on_c, 0, 78, 0
2, 37704, Note_on_c, 0, 76, 86
2, 37727, Note_on_c, 0, 76, 0
2, 37728, Note_on_c, 0, 74, 87
2, 37824, Note_on_c, 0, 74, 0
2, 37824, Note_on_c, 0, 73, 87
2, 37913, Note_on_c, 0, 73, 0
2, 38016, Note_on_c, 0, 57, 96
2, 38112, Note_on_c, 0, 57, 0
2, 38112, Note_on_c, 0, 62, 80
2, 38275, Note_on_c, 0, 62, 0
2, 38280, Note_on_c, 0, 66, 80
2, 38303, Note_on_c, 0, 66, 0
2, 38304, Note_on_c, 0, 66, 80
2, 38371, Note_on_c, 0, 66, 0
2, 38376, Note_on_c, 0, 67, 80
2, 38399, Note_on_c, 0, 67, 0
2, 38400, Note_on_c, 0, 62, 80
2, 38496, Note_on_c, 0, 62, 0
2, 38496, Note_on_c, 0, 61, 80
2, 38585, Note_on_c, 0, 61, 0
2, 38616, Note_on_c, 0, 62, 80
2, 38639, Note_on_c, 0, 62, 0
2, 38640, Note_on_c, 0, 64, 80
2, 38663, Note_on_c, 0, 64, 0
2, 38664, Note_on_c, 0, 66, 81
2, 38687, Note_on_c, 0, 66, 0
2, 38688, Note_on_c, 0, 67, 82
2, 38711, Note_on_c, 0, 67, 0
2, 38712, Note_on_c, 0, 69, 82
2, 38735, Note_on_c, 0, 69, 0
2, 38736, Note_on_c, 0, 71, 83
2, 38759, Note_on_c, 0, 71, 0
2, 38760, Note_on_c, 0, 73, 84
2, 38783, Note_on_c, 0, 73, 0
2, 38784, Note_on_c, 0, 74, 84
2, 38807, Note_on_c, 0, 74, 0
2, 38808, Note_on_c, 0, 76, 85
2, 38831, Note_on_c, 0, 76, 0
2, 38832, Note_on_c, 0, 78, 86
2, 38855, Note_on_c, 0, 78, 0
2, 38856, Note_on_c, 0, 74, 87
2, 38879, Note_on_c, 0, 74, 0
2, 38880, Note_on_c, 0, 69, 86
2, 38969, Note_on_c, 0, 69, 0
2, 38976, Note_on_c, 0, 67, 84
2, 38989, Note_on_c, 0, 67, 0
2, 38990, Note_on_c, 0, 69, 84
2, 39003, Note_on_c, 0, 69, 0
2, 39004, Note_on_c, 0, 67, 83
2, 39017, Note_on_c, 0, 67, 0
2, 39018, Note_on_c, 0, 69, 83
2, 39031, Note_on_c, 0, 69, 0
2, 39032, Note_on_c, 0, 67, 83
2, 39045, Note_on_c, 0, 67, 0
2, 39046, Note_on_c, 0, 66, 82
2, 39058, Note_on_c, 0, 66, 0
2, 39059, Note_on_c, 0, 67, 82
2, 39071, Note_on_c, 0, 67, 0
2, 39072, Note_on_c, 0, 66, 82
2, 39161, Note_on_c, 0, 66, 0
2, 39168, Note_on_c, 0, 79, 80
2, 39188, Note_on_c, 0, 79, 0
2, 39216, Note_on_c, 0, 79, 80
2, 39287, Note_on_c, 0, 79, 0
2, 39288, Note_on_c, 0, 83, 80
2, 39311, Note_on_c, 0, 83, 0
2, 39312, Note_on_c, 0, 81, 80
2, 39335, Note_on_c, 0, 81, 0
2, 39336, Note_on_c, 0, 79, 80
2, 39359, Note_on_c, 0, 79, 0
2, 39360, Note_on_c, 0, 79, 80
2, 39383, Note_on_c, 0, 79, 0
2, 39384, Note_on_c, 0, 78, 78
2, 39407, Note_on_c, 0, 78, 0
2, 39408, Note_on_c, 0, 76, 77
2, 39431, Note_on_c, 0, 76, 0
2, 39432, Note_on_c, 0, 74, 75
2, 39455, Note_on_c, 0, 74, 0
2, 39456, Note_on_c, 0, 79, 74
2, 39476, Note_on_c, 0, 79, 0
2, 39504, Note_on_c, 0, 79, 74
2, 39575, Note_on_c, 0, 79, 0
2, 39576, Note_on_c, 0, 83, 74
2, 39599, Note_on_c, 0, 83, 0
2, 39600, Note_on_c, 0, 81, 74
2, 39623, Note_on_c, 0, 81, 0
2, 39624, Note_on_c, 0, 79, 74
2, 39647, Note_on_c, 0, 79, 0
2, 39648, Note_on_c, 0, 79, 74
2, 39671, Note_on_c, 0, 79, 0
2, 39672, Note_on_c, 0, 78, 75
2, 39695, Note_on_c, 0, 78, 0
2, 39696, Note_on_c, 0, 76, 77
2, 39719, Note_on_c, 0, 76, 0
2, 39720, Note_on_c, 0, 74, 78
2, 39743, Note_on_c, 0, 74, 0
2, 39744, Note_on_c, 0, 73, 80
2, 39767, Note_on_c, 0, 73, 0
2, 39768, Note_on_c, 0, 74, 80
2, 39791, Note_on_c, 0, 74, 0
2, 39792, Note_on_c, 0, 71, 80
2, 39815, Note_on_c, 0, 71, 0
2, 39816, Note_on_c, 0, 67, 80
2, 39839, Note_on_c, 0, 67, 0
2, 39840, Note_on_c, 0, 66, 80
2, 39929, Note_on_c, 0, 66, 0
2, 39936, Note_on_c, 0, 64, 80
2, 39949, Note_on_c, 0, 64, 0
2, 39950, Note_on_c, 0, 66, 80
2, 39963, Note_on_c, 0, 66, 0
2, 39964, Note_on_c, 0, 64, 80
2, 39977, Note_on_c, 0, 64, 0
2, 39978, Note_on_c, 0, 66, 80
2, 39991, Note_on_c, 0, 66, 0
2, 39992, Note_on_c, 0, 64, 80
2, 40005, Note_on_c, 0, 64, 0
2, 40006, Note_on_c, 0, 62, 80
2, 40018, Note_on_c, 0, 62, 0
2, 40019, Note_on_c, 0, 64, 80
2, 40031, Note_on_c, 0, 64, 0
2, 40032, Note_on_c, 0, 62, 80
2, 40209, Note_on_c, 0, 62, 0
2, 40320, Note_on_c, 0, 83, 80
2, 40335, Note_on_c, 0, 83, 0
2, 40336, Note_on_c, 0, 81, 80
2, 40351, Note_on_c, 0, 81, 0
2, 40352, Note_on_c, 0, 83, 80
2, 40367, Note_on_c, 0, 83, 0
2, 40368, Note_on_c, 0, 81, 80
2, 40382, Note_on_c, 0, 81, 0
2, 40383, Note_on_c, 0, 83, 80
2, 40397, Note_on_c, 0, 83, 0
2, 40398, Note_on_c, 0, 81, 80
2, 40412, Note_on_c, 0, 81, 0
2, 40413, Note_on_c, 0, 83, 80
2, 40427, Note_on_c, 0, 83, 0
2, 40428, Note_on_c, 0, 81, 80
2, 40442, Note_on_c, 0, 81, 0
2, 40443, Note_on_c, 0, 83, 80
2, 40457, Note_on_c, 0, 83, 0
2, 40458, Note_on_c, 0, 81, 80
2, 40472, Note_on_c, 0, 81, 0
2, 40473, Note_on_c, 0, 83, 80
2, 40487, Note_on_c, 0, 83, 0
2, 40488, Note_on_c, 0, 81, 80
2, 40502, Note_on_c, 0, 81, 0
2, 40503, Note_on_c, 0, 83, 80
2, 40517, Note_on_c, 0, 83, 0
2, 40518, Note_on_c, 0, 81, 80
2, 40532, Note_on_c, 0, 81, 0
2, 40533, Note_on_c, 0, 83, 80
2, 40547, Note_on_c, 0, 83, 0
2, 40548, Note_on_c, 0, 81, 80
2, 40562, Note_on_c, 0, 81, 0
2, 40563, Note_on_c, 0, 83, 80
2, 40577, Note_on_c, 0, 83, 0
2, 40578, Note_on_c, 0, 81, 80
2, 40592, Note_on_c, 0, 81, 0
2, 40593, Note_on_c, 0, 83, 80
2, 40608, Note_on_c, 0, 83, 0
2, 40608, Note_on_c, 0, 81, 80
2, 40697, Note_on_c, 0, 81, 0
2, 40704, Note_on_c, 0, 69, 80
2, 40749, Note_on_c, 0, 69, 0
2, 40752, Note_on_c, 0, 71, 80
2, 40775, Note_on_c, 0, 71, 0
2, 40776, Note_on_c, 0, 73, 80
2, 40799, Note_on_c, 0, 73, 0
2, 40800, Note_on_c, 0, 74, 80
2, 40823, Note_on_c, 0, 74, 0
2, 40824, Note_on_c, 0, 76, 80
2, 40847, Note_on_c, 0, 76, 0
2, 40848, Note_on_c, 0, 78, 80
2, 40871, Note_on_c, 0, 78, 0
2, 40872, Note_on_c, 0, 80, 80
2, 40895, Note_on_c, 0, 80, 0
2, 40896, Note_on_c, 0, 83, 80
2, 40911, Note_on_c, 0, 83, 0
2, 40912, Note_on_c, 0, 81, 80
2, 40927, Note_on_c, 0, 81, 0
2, 40928, Note_on_c, 0, 83, 80
2, 40943, Note_on_c, 0, 83, 0
2, 40944, Note_on_c, 0, 81, 80
2, 40958, Note_on_c, 0, 81, 0
2, 40959, Note_on_c, 0, 83, 80
2, 40973, Note_on_c, 0, 83, 0
2, 40974, Note_on_c, 0, 81, 80
2, 40988, Note_on_c, 0, 81, 0
2, 40989, Note_on_c, 0, 83, 80
2, 41003, Note_on_c, 0, 83, 0
2, 41004, Note_on_c, 0, 81, 80
2, 41018, Note_on_c, 0, 81, 0
2, 41019, Note_on_c, 0, 83, 80
2, 41033, Note_on_c, 0, 83, 0
2, 41034, Note_on_c, 0, 81, 80
2, 41048, Note_on_c, 0, 81, 0
2, 41049, Note_on_c, 0, 83, 80
2, 41063, Note_on_c, 0, 83, 0
2, 41064, Note_on_c, 0, 81, 80
2, 41078, Note_on_c, 0, 81, 0
2, 41079, Note_on_c, 0, 83, 80
2, 41093, Note_on_c, 0, 83, 0
2, 41094, Note_on_c, 0, 81, 80
2, 41108, Note_on_c, 0, 81, 0
2, 41109, Note_on_c, 0, 83, 80
2, 41123, Note_on_c, 0, 83, 0
2, 41124, Note_on_c, 0, 81, 80
2, 41138, Note_on_c, 0, 81, 0
2, 41139, Note_on_c, 0, 83, 80
2, 41153, Note_on_c, 0, 83, 0
2, 41154, Note_on_c, 0, 81, 80
2, 41168, Note_on_c, 0, 81, 0
2, 41169, Note_on_c, 0, 83, 80
2, 41183, Note_on_c, 0, 83, 0
2, 41184, Note_on_c, 0, 81, 80
2, 41273, Note_on_c, 0, 81, 0
2, 41280, Note_on_c, 0, 69, 80
2, 41303, Note_on_c, 0, 69, 0
2, 41304, Note_on_c, 0, 71, 80
2, 41327, Note_on_c, 0, 71, 0
2, 41328, Note_on_c, 0, 73, 80
2, 41351, Note_on_c, 0, 73, 0
2, 41352, Note_on_c, 0, 74, 80
2, 41375, Note_on_c, 0, 74, 0
2, 41376, Note_on_c, 0, 76, 80
2, 41399, Note_on_c, 0, 76, 0
2, 41400, Note_on_c, 0, 78, 80
2, 41423, Note_on_c, 0, 78, 0
2, 41424, Note_on_c, 0, 79, 80
2, 41447, Note_on_c, 0, 79, 0
2, 41448, Note_on_c, 0, 81, 80
2, 41471, Note_on_c, 0, 81, 0
2, 41472, Note_on_c, 0, 78, 80
2, 41495, Note_on_c, 0, 78, 0
2, 41496, Note_on_c, 0, 74, 80
2, 41519, Note_on_c, 0, 74, 0
2, 41520, Note_on_c, 0, 73, 81
2, 41543, Note_on_c, 0, 73, 0
2, 41544, Note_on_c, 0, 74, 81
2, 41567, Note_on_c, 0, 74, 0
2, 41568, Note_on_c, 0, 81, 82
2, 41591, Note_on_c, 0, 81, 0
2, 41592, Note_on_c, 0, 78, 82
2, 41615, Note_on_c, 0, 78, 0
2, 41616, Note_on_c, 0, 76, 83
2, 41639, Note_on_c, 0, 76, 0
2, 41640, Note_on_c, 0, 74, 84
2, 41663, Note_on_c, 0, 74, 0
2, 41664, Note_on_c, 0, 83, 84
2, 41687, Note_on_c, 0, 83, 0
2, 41688, Note_on_c, 0, 79, 85
2, 41711, Note_on_c, 0, 79, 0
2, 41712, Note_on_c, 0, 78, 85
2, 41735, Note_on_c, 0, 78, 0
2, 41736, Note_on_c, 0, 76, 86
2, 41759, Note_on_c, 0, 76, 0
2, 41760, Note_on_c, 0, 74, 87
2, 41856, Note_on_c, 0, 74, 0
2, 41856, Note_on_c, 0, 73, 87
2, 41945, Note_on_c, 0, 73, 0
2, 42048, Note_on_c, 0, 57, 96
2, 42144, Note_on_c, 0, 57, 0
2, 42144, Note_on_c, 0, 62, 80
2, 42307, Note_on_c, 0, 62, 0
2, 42312, Note_on_c, 0, 66, 80
2, 42335, Note_on_c, 0, 66, 0
2, 42336, Note_on_c, 0, 66, 80
2, 42403, Note_on_c, 0, 66, 0
2, 42408, Note_on_c, 0, 67, 80
2, 42431, Note_on_c, 0, 67, 0
2, 42432, Note_on_c, 0, 62, 80
2, 42528, Note_on_c, 0, 62, 0
2, 42528, Note_on_c, 0, 61, 80
2, 42617, Note_on_c, 0, 61, 0
2, 42648, Note_on_c, 0, 62, 80
2, 42671, Note_on_c, 0, 62, 0
2, 42672, Note_on_c, 0, 64, 80
2, 42695, Note_on_c, 0, 64, 0
2, 42696, Note_on_c, 0, 66, 81
2, 42719, Note_on_c, 0, 66, 0
2, 42720, Note_on_c, 0, 67, 82
2, 42743, Note_on_c, 0, 67, 0
2, 42744, Note_on_c, 0, 69, 82
2, 42767, Note_on_c, 0, 69, 0
2, 42768, Note_on_c, 0, 71, 83
2, 42791, Note_on_c, 0, 71, 0
2, 42792, Note_on_c, 0, 73, 84
2, 42815, Note_on_c, 0, 73, 0
2, 42816, Note_on_c, 0, 74, 84
2, 42839, Note_on_c, 0, 74, 0
2, 42840, Note_on_c, 0, 76, 85
2, 42863, Note_on_c, 0, 76, 0
2, 42864, Note_on_c, 0, 78, 86
2, 42887, Note_on_c, 0, 78, 0
2, 42888, Note_on_c, 0, 74, 87
2, 42911, Note_on_c, 0, 74, 0
2, 42912, Note_on_c, 0, 69, 86
2, 43001, Note_on_c, 0, 69, 0
2, 43008, Note_on_c, 0, 67, 84
2, 43021, Note_on_c, 0, 67, 0
2, 43022, Note_on_c, 0, 69, 84
2, 43035, Note_on_c, 0, 69, 0
2, 43036, Note_on_c, 0, 67, 83
2, 43049, Note_on_c, 0, 67, 0
2, 43050, Note_on_c, 0, 69, 83
2, 43063, Note_on_c, 0, 69, 0
2, 43064, Note_on_c, 0, 67, 83
2, 43077, Note_on_c, 0, 67, 0
2, 43078, Note_on_c, 0, 66, 82
2, 43090, Note_on_c, 0, 66, 0
2, 43091, Note_on_c, 0, 67, 82
2, 43103, Note_on_c, 0, 67, 0
2, 43104, Note_on_c, 0, 66, 82
2, 43193, Note_on_c, 0, 66, 0
2, 43200, Note_on_c, 0, 79, 80
2, 43220, Note_on_c, 0, 79, 0
2, 43248, Note_on_c, 0, 79, 80
2, 43319, Note_on_c, 0, 79, 0
2, 43320, Note_on_c, 0, 83, 80
2, 43343, Note_on_c, 0, 83, 0
2, 43344, Note_on_c, 0, 81, 80
2, 43367, Note_on_c, 0, 81, 0
2, 43368, Note_on_c, 0, 79, 80
2, 43391, Note_on_c, 0, 79, 0
2, 43392, Note_on_c, 0, 79, 80
2, 43415, Note_on_c, 0, 79, 0
2, 43416, Note_on_c, 0, 78, 78
2, 43439, Note_on_c, 0, 78, 0
2, 43440, Note_on_c, 0, 76, 77
2, 43463, Note_on_c, 0, 76, 0
2, 43464, Note_on_c, 0, 74, 75
2, 43487, Note_on_c, 0, 74, 0
2, 43488, Note_on_c, 0, 79, 74
2, 43508, Note_on_c, 0, 79, 0
2, 43536, Note_on_c, 0, 79, 74
2, 43607, Note_on_c, 0, 79, 0
2, 43608, Note_on_c, 0, 83, 74
2, 43631, Note_on_c, 0, 83, 0
2, 43632, Note_on_c, 0, 81, 74
2, 43655, Note_on_c, 0, 81, 0
2, 43656, Note_on_c, 0, 79, 74
2, 43679, Note_on_c, 0, 79, 0
2, 43680, Note_on_c, 0, 79, 74
2, 43703, Note_on_c, 0, 79, 0
2, 43704, Note_on_c, 0, 78, 75
2, 43727, Note_on_c, 0, 78, 0
2, 43728, Note_on_c, 0, 76, 77
2, 43751, Note_on_c, 0, 76, 0
2, 43752, Note_on_c, 0, 74, 78
2, 43775, Note_on_c, 0, 74, 0
2, 43776, Note_on_c, 0, 73, 80
2, 43799, Note_on_c, 0, 73, 0
2, 43800, Note_on_c, 0, 74, 80
2, 43823, Note_on_c, 0, 74, 0
2, 43824, Note_on_c, 0, 71, 80
2, 43847, Note_on_c, 0, 71, 0
2, 43848, Note_on_c, 0, 67, 80
2, 43871, Note_on_c, 0, 67, 0
2, 43872, Note_on_c, 0, 66, 80
2, 43961, Note_on_c, 0, 66, 0
2, 43968, Note_on_c, 0, 64, 80
2, 43981, Note_on_c, 0, 64, 0
2, 43982, Note_on_c, 0, 66, 80
2, 43995, Note_on_c, 0, 66, 0
2, 43996, Note_on_c, 0, 64, 80
2, 44009, Note_on_c, 0, 64, 0
2, 44010, Note_on_c, 0, 66, 80
2, 44023, Note_on_c, 0, 66, 0
2, 44024, Note_on_c, 0, 64, 80
2, 44037, Note_on_c, 0, 64, 0
2, 44038, Note_on_c, 0, 62, 80
2, 44050, Note_on_c, 0, 62, 0
2, 44051, Note_on_c, 0, 64, 80
2, 44063, Note_on_c, 0, 64, 0
2, 44064, Note_on_c, 0, 62, 80
2, 44241, Note_on_c, 0, 62, 0
2, 44352, End_track
3, 0, Start_track
3, 0, Program_c, 0, 0
3, 0, Control_c, 0, 7, 127
3, 0, Control_c, 0, 10, 64
3, 44352, End_track
4, 0, Start_track
4, 0, Program_c, 1, 0
4, 0, Control_c, 1, 7, 127
4, 0, Control_c, 1, 10, 64
4, 96, Note_on_c, 1, 54, 80
4, 185, Note_on_c, 1, 54, 0
4, 192, Note_on_c, 1, 50, 80
4, 281, Note_on_c, 1, 50, 0
4, 288, Note_on_c, 1, 52, 80
4, 377, Note_on_c, 1, 52, 0
4, 384, Note_on_c, 1, 57, 80
4, 473, Note_on_c, 1, 57, 0
4, 480, Note_on_c, 1, 55, 80
4, 569, Note_on_c, 1, 55, 0
4, 576, Note_on_c, 1, 54, 80
4, 753, Note_on_c, 1, 54, 0
4, 768, Note_on_c, 1, 50, 80
4, 857, Note_on_c, 1, 50, 0
4, 864, Note_on_c, 1, 52, 80
4, 953, Note_on_c, 1, 52, 0
4, 960, Note_on_c, 1, 61, 80
4, 1049, Note_on_c, 1, 61, 0
4, 1056, Note_on_c, 1, 62, 80
4, 1145, Note_on_c, 1, 62, 0
4, 1152, Note_on_c, 1, 54, 80
4, 1241, Note_on_c, 1, 54, 0
4, 1248, Note_on_c, 1, 56, 80
4, 1344, Note_on_c, 1, 56, 0
4, 1344, Note_on_c, 1, 57, 80
4, 1433, Note_on_c, 1, 57, 0
4, 1440, Note_on_c, 1, 54, 69
4, 1529, Note_on_c, 1, 54, 0
4, 1536, Note_on_c, 1, 56, 69
4, 1632, Note_on_c, 1, 56, 0
4, 1632, Note_on_c, 1, 57, 69
4, 1721, Note_on_c, 1, 57, 0
4, 1728, Note_on_c, 1, 50, 80
4, 1817, Note_on_c, 1, 50, 0
4, 1824, Note_on_c, 1, 52, 80
4, 1913, Note_on_c, 1, 52, 0
4, 1920, Note_on_c, 1, 40, 80
4, 2009, Note_on_c, 1, 40, 0
4, 2016, Note_on_c, 1, 45, 80
4, 2105, Note_on_c, 1, 45, 0
4, 2112, Note_on_c, 1, 40, 80
4, 2201, Note_on_c, 1, 40, 0
4, 2208, Note_on_c, 1, 33, 80
4, 2297, Note_on_c, 1, 33, 0
4, 2400, Note_on_c, 1, 54, 80
4, 2489, Note_on_c, 1, 54, 0
4, 2496, Note_on_c, 1, 50, 80
4, 2585, Note_on_c, 1, 50, 0
4, 2592, Note_on_c, 1, 52, 80
4, 2681, Note_on_c, 1, 52, 0
4, 2688, Note_on_c, 1, 57, 80
4, 2777, Note_on_c, 1, 57, 0
4, 2784, Note_on_c, 1, 55, 80
4, 2873, Note_on_c, 1, 55, 0
4, 2880, Note_on_c, 1, 54, 80
4, 3057, Note_on_c, 1, 54, 0
4, 3072, Note_on_c, 1, 50, 80
4, 3161, Note_on_c, 1, 50, 0
4, 3168, Note_on_c, 1, 52, 80
4, 3257, Note_on_c, 1, 52, 0
4, 3264, Note_on_c, 1, 61, 80
4, 3353, Note_on_c, 1, 61, 0
4, 3360, Note_on_c, 1, 62, 80
4, 3449, Note_on_c, 1, 62, 0
4, 3456, Note_on_c, 1, 54, 80
4, 3545, Note_on_c, 1, 54, 0
4, 3552, Note_on_c, 1, 56, 80
4, 3648, Note_on_c, 1, 56, 0
4, 3648, Note_on_c, 1, 57, 80
4, 3737, Note_on_c, 1, 57, 0
4, 3744, Note_on_c, 1, 54, 69
4, 3833, Note_on_c, 1, 54, 0
4, 3840, Note_on_c, 1, 56, 69
4, 3936, Note_on_c, 1, 56, 0
4, 3936, Note_on_c, 1, 57, 69
4, 4025, Note_on_c, 1, 57, 0
4, 4032, Note_on_c, 1, 50, 80
4, 4121, Note_on_c, 1, 50, 0
4, 4128, Note_on_c, 1, 52, 80
4, 4217, Note_on_c, 1, 52, 0
4, 4224, Note_on_c, 1, 40, 80
4, 4313, Note_on_c, 1, 40, 0
4, 4320, Note_on_c, 1, 45, 80
4, 4409, Note_on_c, 1, 45, 0
4, 4416, Note_on_c, 1, 40, 80
4, 4505, Note_on_c, 1, 40, 0
4, 4512, Note_on_c, 1, 33, 80
4, 4601, Note_on_c, 1, 33, 0
4, 4704, Note_on_c, 1, 57, 80
4, 4727, Note_on_c, 1, 57, 0
4, 4728, Note_on_c, 1, 61, 80
4, 4751, Note_on_c, 1, 61, 0
4, 4752, Note_on_c, 1, 64, 80
4, 4775, Note_on_c, 1, 64, 0
4, 4776, Note_on_c, 1, 69, 80
4, 4799, Note_on_c, 1, 69, 0
4, 4800, Note_on_c, 1, 59, 80
4, 4823, Note_on_c, 1, 59, 0
4, 4824, Note_on_c, 1, 62, 80
4, 4847, Note_on_c, 1, 62, 0
4, 4848, Note_on_c, 1, 64, 80
4, 4871, Note_on_c, 1, 64, 0
4, 4872, Note_on_c, 1, 69, 80
4, 4895, Note_on_c, 1, 69, 0
4, 4896, Note_on_c, 1, 61, 80
4, 4985, Note_on_c, 1, 61, 0
4, 5280, Note_on_c, 1, 57, 80
4, 5303, Note_on_c, 1, 57, 0
4, 5304, Note_on_c, 1, 61, 80
4, 5327, Note_on_c, 1, 61, 0
4, 5328, Note_on_c, 1, 64, 80
4, 5351, Note_on_c, 1, 64, 0
4, 5352, Note_on_c, 1, 69, 80
4, 5375, Note_on_c, 1, 69, 0
4, 5376, Note_on_c, 1, 59, 80
4, 5399, Note_on_c, 1, 59, 0
4, 5400, Note_on_c, 1, 62, 80
4, 5423, Note_on_c, 1, 62, 0
4, 5424, Note_on_c, 1, 64, 80
4, 5447, Note_on_c, 1, 64, 0
4, 5448, Note_on_c, 1, 69, 80
4, 5471, Note_on_c, 1, 69, 0
4, 5472, Note_on_c, 1, 61, 80
4, 5561, Note_on_c, 1, 61, 0
4, 5760, Note_on_c, 1, 62, 80
4, 5849, Note_on_c, 1, 62, 0
4, 5856, Note_on_c, 1, 66, 82
4, 5945, Note_on_c, 1, 66, 0
4, 5952, Note_on_c, 1, 67, 84
4, 6041, Note_on_c, 1, 67, 0
4, 6048, Note_on_c, 1, 69, 87
4, 6137, Note_on_c, 1, 69, 0
4, 6144, Note_on_c, 1, 64, 87
4, 6233, Note_on_c, 1, 64, 0
4, 6240, Note_on_c, 1, 57, 87
4, 6329, Note_on_c, 1, 57, 0
4, 6432, Note_on_c, 1, 54, 80
4, 6521, Note_on_c, 1, 54, 0
4, 6528, Note_on_c, 1, 50, 80
4, 6617, Note_on_c, 1, 50, 0
4, 6624, Note_on_c, 1, 52, 80
4, 6713, Note_on_c, 1, 52, 0
4, 6720, Note_on_c, 1, 57, 80
4, 6809, Note_on_c, 1, 57, 0
4, 6816, Note_on_c, 1, 55, 80
4, 6905, Note_on_c, 1, 55, 0
4, 6912, Note_on_c, 1, 54, 80
4, 7089, Note_on_c, 1, 54, 0
4, 7104, Note_on_c, 1, 50, 80
4, 7193, Note_on_c, 1, 50, 0
4, 7200, Note_on_c, 1, 52, 80
4, 7289, Note_on_c, 1, 52, 0
4, 7296, Note_on_c, 1, 61, 80
4, 7385, Note_on_c, 1, 61, 0
4, 7392, Note_on_c, 1, 62, 80
4, 7481, Note_on_c, 1, 62, 0
4, 7488, Note_on_c, 1, 59, 80
4, 7577, Note_on_c, 1, 59, 0
4, 7584, Note_on_c, 1, 61, 80
4, 7673, Note_on_c, 1, 61, 0
4, 7680, Note_on_c, 1, 62, 80
4, 7769, Note_on_c, 1, 62, 0
4, 7776, Note_on_c, 1, 59, 69
4, 7865, Note_on_c, 1, 59, 0
4, 7872, Note_on_c, 1, 61, 69
4, 7961, Note_on_c, 1, 61, 0
4, 7968, Note_on_c, 1, 62, 69
4, 8057, Note_on_c, 1, 62, 0
4, 8064, Note_on_c, 1, 55, 80
4, 8153, Note_on_c, 1, 55, 0
4, 8160, Note_on_c, 1, 57, 80
4, 8249, Note_on_c, 1, 57, 0
4, 8256, Note_on_c, 1, 45, 80
4, 8345, Note_on_c, 1, 45, 0
4, 8352, Note_on_c, 1, 50, 80
4, 8441, Note_on_c, 1, 50, 0
4, 8448, Note_on_c, 1, 45, 80
4, 8537, Note_on_c, 1, 45, 0
4, 8544, Note_on_c, 1, 38, 80
4, 8633, Note_on_c, 1, 38, 0
4, 8736, Note_on_c, 1, 57, 80
4, 8759, Note_on_c, 1, 57, 0
4, 8760, Note_on_c, 1, 61, 80
4, 8783, Note_on_c, 1, 61, 0
4, 8784, Note_on_c, 1, 64, 80
4, 8807, Note_on_c, 1, 64, 0
4, 8808, Note_on_c, 1, 69, 80
4, 8831, Note_on_c, 1, 69, 0
4, 8832, Note_on_c, 1, 59, 80
4, 8855, Note_on_c, 1, 59, 0
4, 8856, Note_on_c, 1, 62, 80
4, 8879, Note_on_c, 1, 62, 0
4, 8880, Note_on_c, 1, 64, 80
4, 8903, Note_on_c, 1, 64, 0
4, 8904, Note_on_c, 1, 69, 80
4, 8927, Note_on_c, 1, 69, 0
4, 8928, Note_on_c, 1, 61, 80
4, 9017, Note_on_c, 1, 61, 0
4, 9312, Note_on_c, 1, 57, 80
4, 9335, Note_on_c, 1, 57, 0
4, 9336, Note_on_c, 1, 61, 80
4, 9359, Note_on_c, 1, 61, 0
4, 9360, Note_on_c, 1, 64, 80
4, 9383, Note_on_c, 1, 64, 0
4, 9384, Note_on_c, 1, 69, 80
4, 9407, Note_on_c, 1, 69, 0
4, 9408, Note_on_c, 1, 59, 80
4, 9431, Note_on_c, 1, 59, 0
4, 9432, Note_on_c, 1, 62, 80
4, 9455, Note_on_c, 1, 62, 0
4, 9456, Note_on_c, 1, 64, 80
4, 9479, Note_on_c, 1, 64, 0
4, 9480, Note_on_c, 1, 69, 80
4, 9503, Note_on_c, 1, 69, 0
4, 9504, Note_on_c, 1, 61, 80
4, 9593, Note_on_c, 1, 61, 0
4, 9792, Note_on_c, 1, 62, 80
4, 9881, Note_on_c, 1, 62, 0
4, 9888, Note_on_c, 1, 66, 82
4, 9977, Note_on_c, 1, 66, 0
4, 9984, Note_on_c, 1, 67, 84
4, 10073, Note_on_c, 1, 67, 0
4, 10080, Note_on_c, 1, 69, 87
4, 10169, Note_on_c, 1, 69, 0
4, 10176, Note_on_c, 1, 64, 87
4, 10265, Note_on_c, 1, 64, 0
4, 10272, Note_on_c, 1, 57, 87
4, 10361, Note_on_c, 1, 57, 0
4, 10464, Note_on_c, 1, 54, 80
4, 10553, Note_on_c, 1, 54, 0
4, 10560, Note_on_c, 1, 50, 80
4, 10649, Note_on_c, 1, 50, 0
4, 10656, Note_on_c, 1, 52, 80
4, 10745, Note_on_c, 1, 52, 0
4, 10752, Note_on_c, 1, 57, 80
4, 10841, Note_on_c, 1, 57, 0
4, 10848, Note_on_c, 1, 55, 80
4, 10937, Note_on_c, 1, 55, 0
4, 10944, Note_on_c, 1, 54, 80
4, 11121, Note_on_c, 1, 54, 0
4, 11136, Note_on_c, 1, 50, 80
4, 11225, Note_on_c, 1, 50, 0
4, 11232, Note_on_c, 1, 52, 80
4, 11321, Note_on_c, 1, 52, 0
4, 11328, Note_on_c, 1, 61, 80
4, 11417, Note_on_c, 1, 61, 0
4, 11424, Note_on_c, 1, 62, 80
4, 11513, Note_on_c, 1, 62, 0
4, 11520, Note_on_c, 1, 59, 80
4, 11609, Note_on_c, 1, 59, 0
4, 11616, Note_on_c, 1, 61, 80
4, 11705, Note_on_c, 1, 61, 0
4, 11712, Note_on_c, 1, 62, 80
4, 11801, Note_on_c, 1, 62, 0
4, 11808, Note_on_c, 1, 59, 69
4, 11897, Note_on_c, 1, 59, 0
4, 11904, Note_on_c, 1, 61, 69
4, 11993, Note_on_c, 1, 61, 0
4, 12000, Note_on_c, 1, 62, 69
4, 12089, Note_on_c, 1, 62, 0
4, 12096, Note_on_c, 1, 55, 80
4, 12185, Note_on_c, 1, 55, 0
4, 12192, Note_on_c, 1, 57, 80
4, 12281, Note_on_c, 1, 57, 0
4, 12288, Note_on_c, 1, 45, 80
4, 12377, Note_on_c, 1, 45, 0
4, 12384, Note_on_c, 1, 50, 80
4, 12473, Note_on_c, 1, 50, 0
4, 12480, Note_on_c, 1, 45, 80
4, 12569, Note_on_c, 1, 45, 0
4, 12576, Note_on_c, 1, 38, 80
4, 12665, Note_on_c, 1, 38, 0
4, 12720, Note_on_c, 1, 65, 69
4, 12765, Note_on_c, 1, 65, 0
4, 12768, Note_on_c, 1, 69, 69
4, 12813, Note_on_c, 1, 69, 0
4, 12816, Note_on_c, 1, 67, 69
4, 12861, Note_on_c, 1, 67, 0
4, 12864, Note_on_c, 1, 65, 69
4, 12909, Note_on_c, 1, 65, 0
4, 12912, Note_on_c, 1, 64, 69
4, 12957, Note_on_c, 1, 64, 0
4, 12960, Note_on_c, 1, 65, 69
4, 13049, Note_on_c, 1, 65, 0
4, 13056, Note_on_c, 1, 67, 69
4, 13145, Note_on_c, 1, 67, 0
4, 13152, Note_on_c, 1, 65, 69
4, 13241, Note_on_c, 1, 65, 0
4, 13296, Note_on_c, 1, 62, 69
4, 13344, Note_on_c, 1, 62, 0
4, 13344, Note_on_c, 1, 64, 69
4, 13389, Note_on_c, 1, 64, 0
4, 13392, Note_on_c, 1, 62, 69
4, 13437, Note_on_c, 1, 62, 0
4, 13440, Note_on_c, 1, 61, 70
4, 13485, Note_on_c, 1, 61, 0
4, 13488, Note_on_c, 1, 57, 70
4, 13533, Note_on_c, 1, 57, 0
4, 13584, Note_on_c, 1, 61, 70
4, 13632, Note_on_c, 1, 61, 0
4, 13632, Note_on_c, 1, 62, 71
4, 13677, Note_on_c, 1, 62, 0
4, 13680, Note_on_c, 1, 60, 71
4, 13725, Note_on_c, 1, 60, 0
4, 13728, Note_on_c, 1, 58, 71
4, 13773, Note_on_c, 1, 58, 0
4, 13776, Note_on_c, 1, 57, 72
4, 13821, Note_on_c, 1, 57, 0
4, 13824, Note_on_c, 1, 55, 72
4, 13913, Note_on_c, 1, 55, 0
4, 13920, Note_on_c, 1, 57, 72
4, 14009, Note_on_c, 1, 57, 0
4, 14016, Note_on_c, 1, 45, 73
4, 14105, Note_on_c, 1, 45, 0
4, 14112, Note_on_c, 1, 50, 74
4, 14201, Note_on_c, 1, 50, 0
4, 14208, Note_on_c, 1, 45, 74
4, 14297, Note_on_c, 1, 45, 0
4, 14304, Note_on_c, 1, 38, 74
4, 14393, Note_on_c, 1, 38, 0
4, 14448, Note_on_c, 1, 69, 80
4, 14493, Note_on_c, 1, 69, 0
4, 14496, Note_on_c, 1, 70, 80
4, 14541, Note_on_c, 1, 70, 0
4, 14544, Note_on_c, 1, 69, 80
4, 14589, Note_on_c, 1, 69, 0
4, 14592, Note_on_c, 1, 67, 80
4, 14637, Note_on_c, 1, 67, 0
4, 14640, Note_on_c, 1, 69, 80
4, 14685, Note_on_c, 1, 69, 0
4, 14688, Note_on_c, 1, 74, 80
4, 14777, Note_on_c, 1, 74, 0
4, 14784, Note_on_c, 1, 70, 80
4, 14873, Note_on_c, 1, 70, 0
4, 14880, Note_on_c, 1, 67, 80
4, 14969, Note_on_c, 1, 67, 0
4, 15024, Note_on_c, 1, 69, 80
4, 15069, Note_on_c, 1, 69, 0
4, 15072, Note_on_c, 1, 70, 80
4, 15117, Note_on_c, 1, 70, 0
4, 15120, Note_on_c, 1, 69, 80
4, 15165, Note_on_c, 1, 69, 0
4, 15168, Note_on_c, 1, 67, 80
4, 15213, Note_on_c, 1, 67, 0
4, 15216, Note_on_c, 1, 69, 80
4, 15261, Note_on_c, 1, 69, 0
4, 15264, Note_on_c, 1, 74, 80
4, 15353, Note_on_c, 1, 74, 0
4, 15360, Note_on_c, 1, 70, 80
4, 15449, Note_on_c, 1, 70, 0
4, 15456, Note_on_c, 1, 67, 80
4, 15545, Note_on_c, 1, 67, 0
4, 15552, Note_on_c, 1, 69, 80
4, 15641, Note_on_c, 1, 69, 0
4, 15696, Note_on_c, 1, 57, 80
4, 15696, Note_on_c, 1, 53, 80
4, 15741, Note_on_c, 1, 57, 0
4, 15741, Note_on_c, 1, 53, 0
4, 15744, Note_on_c, 1, 58, 80
4, 15744, Note_on_c, 1, 55, 80
4, 15789, Note_on_c, 1, 58, 0
4, 15789, Note_on_c, 1, 55, 0
4, 15792, Note_on_c, 1, 60, 80
4, 15792, Note_on_c, 1, 57, 80
4, 15837, Note_on_c, 1, 60, 0
4, 15837, Note_on_c, 1, 57, 0
4, 15840, Note_on_c, 1, 62, 80
4, 15840, Note_on_c, 1, 58, 80
4, 15929, Note_on_c, 1, 62, 0
4, 15929, Note_on_c, 1, 58, 0
4, 15936, Note_on_c, 1, 60, 80
4, 16025, Note_on_c, 1, 60, 0
4, 16032, Note_on_c, 1, 48, 80
4, 16121, Note_on_c, 1, 48, 0
4, 16128, Note_on_c, 1, 53, 87
4, 16217, Note_on_c, 1, 53, 0
4, 16272, Note_on_c, 1, 57, 87
4, 16272, Note_on_c, 1, 53, 87
4, 16317, Note_on_c, 1, 57, 0
4, 16317, Note_on_c, 1, 53, 0
4, 16320, Note_on_c, 1, 58, 87
4, 16320, Note_on_c, 1, 55, 87
4, 16365, Note_on_c, 1, 58, 0
4, 16365, Note_on_c, 1, 55, 0
4, 16368, Note_on_c, 1, 60, 87
4, 16368, Note_on_c, 1, 57, 87
4, 16413, Note_on_c, 1, 60, 0
4, 16413, Note_on_c, 1, 57, 0
4, 16416, Note_on_c, 1, 62, 87
4, 16416, Note_on_c, 1, 58, 87
4, 16505, Note_on_c, 1, 62, 0
4, 16505, Note_on_c, 1, 58, 0
4, 16512, Note_on_c, 1, 60, 87
4, 16601, Note_on_c, 1, 60, 0
4, 16608, Note_on_c, 1, 48, 87
4, 16697, Note_on_c, 1, 48, 0
4, 16704, Note_on_c, 1, 53, 87
4, 16793, Note_on_c, 1, 53, 0
4, 16800, Note_on_c, 1, 48, 87
4, 16889, Note_on_c, 1, 48, 0
4, 16896, Note_on_c, 1, 41, 87
4, 16985, Note_on_c, 1, 41, 0
4, 17040, Note_on_c, 1, 65, 69
4, 17085, Note_on_c, 1, 65, 0
4, 17088, Note_on_c, 1, 69, 69
4, 17133, Note_on_c, 1, 69, 0
4, 17136, Note_on_c, 1, 67, 69
4, 17181, Note_on_c, 1, 67, 0
4, 17184, Note_on_c, 1, 65, 69
4, 17229, Note_on_c, 1, 65, 0
4, 17232, Note_on_c, 1, 64, 69
4, 17277, Note_on_c, 1, 64, 0
4, 17280, Note_on_c, 1, 65, 69
4, 17369, Note_on_c, 1, 65, 0
4, 17376, Note_on_c, 1, 67, 69
4, 17465, Note_on_c, 1, 67, 0
4, 17472, Note_on_c, 1, 65, 69
4, 17561, Note_on_c, 1, 65, 0
4, 17616, Note_on_c, 1, 62, 69
4, 17664, Note_on_c, 1, 62, 0
4, 17664, Note_on_c, 1, 64, 69
4, 17709, Note_on_c, 1, 64, 0
4, 17712, Note_on_c, 1, 62, 69
4, 17757, Note_on_c, 1, 62, 0
4, 17760, Note_on_c, 1, 61, 70
4, 17805, Note_on_c, 1, 61, 0
4, 17808, Note_on_c, 1, 57, 70
4, 17853, Note_on_c, 1, 57, 0
4, 17904, Note_on_c, 1, 61, 70
4, 17952, Note_on_c, 1, 61, 0
4, 17952, Note_on_c, 1, 62, 71
4, 17997, Note_on_c, 1, 62, 0
4, 18000, Note_on_c, 1, 60, 71
4, 18045, Note_on_c, 1, 60, 0
4, 18048, Note_on_c, 1, 58, 71
4, 18093, Note_on_c, 1, 58, 0
4, 18096, Note_on_c, 1, 57, 72
4, 18141, Note_on_c, 1, 57, 0
4, 18144, Note_on_c, 1, 55, 72
4, 18233, Note_on_c, 1, 55, 0
4, 18240, Note_on_c, 1, 57, 72
4, 18329, Note_on_c, 1, 57, 0
4, 18336, Note_on_c, 1, 45, 73
4, 18425, Note_on_c, 1, 45, 0
4, 18432, Note_on_c, 1, 50, 74
4, 18521, Note_on_c, 1, 50, 0
4, 18528, Note_on_c, 1, 45, 74
4, 18617, Note_on_c, 1, 45, 0
4, 18624, Note_on_c, 1, 38, 74
4, 18713, Note_on_c, 1, 38, 0
4, 18768, Note_on_c, 1, 69, 80
4, 18813, Note_on_c, 1, 69, 0
4, 18816, Note_on_c, 1, 70, 80
4, 18861, Note_on_c, 1, 70, 0
4, 18864, Note_on_c, 1, 69, 80
4, 18909, Note_on_c, 1, 69, 0
4, 18912, Note_on_c, 1, 67, 80
4, 18957, Note_on_c, 1, 67, 0
4, 18960, Note_on_c, 1, 69, 80
4, 19005, Note_on_c, 1, 69, 0
4, 19008, Note_on_c, 1, 74, 80
4, 19097, Note_on_c, 1, 74, 0
4, 19104, Note_on_c, 1, 70, 80
4, 19193, Note_on_c, 1, 70, 0
4, 19200, Note_on_c, 1, 67, 80
4, 19289, Note_on_c, 1, 67, 0
4, 19344, Note_on_c, 1, 69, 80
4, 19389, Note_on_c, 1, 69, 0
4, 19392, Note_on_c, 1, 70, 80
4, 19437, Note_on_c, 1, 70, 0
4, 19440, Note_on_c, 1, 69, 80
4, 19485, Note_on_c, 1, 69, 0
4, 19488, Note_on_c, 1, 67, 80
4, 19533, Note_on_c, 1, 67, 0
4, 19536, Note_on_c, 1, 69, 80
4, 19581, Note_on_c, 1, 69, 0
4, 19584, Note_on_c, 1, 74, 80
4, 19673, Note_on_c, 1, 74, 0
4, 19680, Note_on_c, 1, 70, 80
4, 19769, Note_on_c, 1, 70, 0
4, 19776, Note_on_c, 1, 67, 80
4, 19865, Note_on_c, 1, 67, 0
4, 19872, Note_on_c, 1, 69, 80
4, 19961, Note_on_c, 1, 69, 0
4, 20016, Note_on_c, 1, 57, 80
4, 20016, Note_on_c, 1, 53, 80
4, 20061, Note_on_c, 1, 57, 0
4, 20061, Note_on_c, 1, 53, 0
4, 20064, Note_on_c, 1, 58, 80
4, 20064, Note_on_c, 1, 55, 80
4, 20109, Note_on_c, 1, 58, 0
4, 20109, Note_on_c, 1, 55, 0
4, 20112, Note_on_c, 1, 60, 80
4, 20112, Note_on_c, 1, 57, 80
4, 20157, Note_on_c, 1, 60, 0
4, 20157, Note_on_c, 1, 57, 0
4, 20160, Note_on_c, 1, 62, 80
4, 20160, Note_on_c, 1, 58, 80
4, 20249, Note_on_c, 1, 62, 0
4, 20249, Note_on_c, 1, 58, 0
4, 20256, Note_on_c, 1, 60, 80
4, 20345, Note_on_c, 1, 60, 0
4, 20352, Note_on_c, 1, 48, 80
4, 20441, Note_on_c, 1, 48, 0
4, 20448, Note_on_c, 1, 53, 87
4, 20537, Note_on_c, 1, 53, 0
4, 20592, Note_on_c, 1, 57, 87
4, 20592, Note_on_c, 1, 53, 87
4, 20637, Note_on_c, 1, 57, 0
4, 20637, Note_on_c, 1, 53, 0
4, 20640, Note_on_c, 1, 58, 87
4, 20640, Note_on_c, 1, 55, 87
4, 20685, Note_on_c, 1, 58, 0
4, 20685, Note_on_c, 1, 55, 0
4, 20688, Note_on_c, 1, 60, 87
4, 20688, Note_on_c, 1, 57, 87
4, 20733, Note_on_c, 1, 60, 0
4, 20733, Note_on_c, 1, 57, 0
4, 20736, Note_on_c, 1, 62, 87
4, 20736, Note_on_c, 1, 58, 87
4, 20825, Note_on_c, 1, 62, 0
4, 20825, Note_on_c, 1, 58, 0
4, 20832, Note_on_c, 1, 60, 87
4, 20921, Note_on_c, 1, 60, 0
4, 20928, Note_on_c, 1, 48, 87
4, 21017, Note_on_c, 1, 48, 0
4, 21024, Note_on_c, 1, 53, 87
4, 21113, Note_on_c, 1, 53, 0
4, 21120, Note_on_c, 1, 48, 87
4, 21209, Note_on_c, 1, 48, 0
4, 21216, Note_on_c, 1, 41, 87
4, 21305, Note_on_c, 1, 41, 0
4, 21360, Note_on_c, 1, 57, 80
4, 21405, Note_on_c, 1, 57, 0
4, 21408, Note_on_c, 1, 60, 80
4, 21453, Note_on_c, 1, 60, 0
4, 21456, Note_on_c, 1, 58, 80
4, 21501, Note_on_c, 1, 58, 0
4, 21504, Note_on_c, 1, 57, 80
4, 21549, Note_on_c, 1, 57, 0
4, 21552, Note_on_c, 1, 55, 80
4, 21597, Note_on_c, 1, 55, 0
4, 21600, Note_on_c, 1, 57, 80
4, 21689, Note_on_c, 1, 57, 0
4, 21696, Note_on_c, 1, 60, 80
4, 21792, Note_on_c, 1, 60, 0
4, 21792, Note_on_c, 1, 58, 80
4, 21881, Note_on_c, 1, 58, 0
4, 21936, Note_on_c, 1, 58, 87
4, 21981, Note_on_c, 1, 58, 0
4, 21984, Note_on_c, 1, 62, 87
4, 22029, Note_on_c, 1, 62, 0
4, 22032, Note_on_c, 1, 60, 87
4, 22077, Note_on_c, 1, 60, 0
4, 22080, Note_on_c, 1, 58, 87
4, 22125, Note_on_c, 1, 58, 0
4, 22128, Note_on_c, 1, 57, 87
4, 22173, Note_on_c, 1, 57, 0
4, 22176, Note_on_c, 1, 58, 87
4, 22265, Note_on_c, 1, 58, 0
4, 22272, Note_on_c, 1, 62, 87
4, 22368, Note_on_c, 1, 62, 0
4, 22368, Note_on_c, 1, 61, 87
4, 22457, Note_on_c, 1, 61, 0
4, 22512, Note_on_c, 1, 65, 93
4, 22557, Note_on_c, 1, 65, 0
4, 22560, Note_on_c, 1, 67, 91
4, 22605, Note_on_c, 1, 67, 0
4, 22608, Note_on_c, 1, 65, 90
4, 22653, Note_on_c, 1, 65, 0
4, 22656, Note_on_c, 1, 64, 89
4, 22701, Note_on_c, 1, 64, 0
4, 22704, Note_on_c, 1, 65, 88
4, 22749, Note_on_c, 1, 65, 0
4, 22800, Note_on_c, 1, 64, 86
4, 22845, Note_on_c, 1, 64, 0
4, 22848, Note_on_c, 1, 65, 85
4, 22893, Note_on_c, 1, 65, 0
4, 22896, Note_on_c, 1, 64, 84
4, 22941, Note_on_c, 1, 64, 0
4, 22944, Note_on_c, 1, 63, 82
4, 22989, Note_on_c, 1, 63, 0
4, 22992, Note_on_c, 1, 64, 81
4, 23037, Note_on_c, 1, 64, 0
4, 23040, Note_on_c, 1, 62, 80
4, 23129, Note_on_c, 1, 62, 0
4, 23136, Note_on_c, 1, 68, 78
4, 23313, Note_on_c, 1, 68, 0
4, 23328, Note_on_c, 1, 69, 74
4, 23373, Note_on_c, 1, 69, 0
4, 23376, Note_on_c, 1, 57, 74
4, 23421, Note_on_c, 1, 57, 0
4, 23424, Note_on_c, 1, 69, 77
4, 23469, Note_on_c, 1, 69, 0
4, 23472, Note_on_c, 1, 67, 80
4, 23517, Note_on_c, 1, 67, 0
4, 23520, Note_on_c, 1, 65, 76
4, 23565, Note_on_c, 1, 65, 0
4, 23568, Note_on_c, 1, 64, 72
4, 23613, Note_on_c, 1, 64, 0
4, 23664, Note_on_c, 1, 65, 69
4, 23709, Note_on_c, 1, 65, 0
4, 23712, Note_on_c, 1, 69, 69
4, 23757, Note_on_c, 1, 69, 0
4, 23760, Note_on_c, 1, 67, 69
4, 23805, Note_on_c, 1, 67, 0
4, 23808, Note_on_c, 1, 65, 69
4, 23853, Note_on_c, 1, 65, 0
4, 23856, Note_on_c, 1, 64, 69
4, 23901, Note_on_c, 1, 64, 0
4, 23904, Note_on_c, 1, 65, 69
4, 23993, Note_on_c, 1, 65, 0
4, 24000, Note_on_c, 1, 67, 69
4, 24089, Note_on_c, 1, 67, 0
4, 24096, Note_on_c, 1, 65, 69
4, 24185, Note_on_c, 1, 65, 0
4, 24240, Note_on_c, 1, 62, 69
4, 24285, Note_on_c, 1, 62, 0
4, 24288, Note_on_c, 1, 64, 70
4, 24333, Note_on_c, 1, 64, 0
4, 24336, Note_on_c, 1, 62, 70
4, 24381, Note_on_c, 1, 62, 0
4, 24384, Note_on_c, 1, 61, 71
4, 24429, Note_on_c, 1, 61, 0
4, 24432, Note_on_c, 1, 57, 72
4, 24477, Note_on_c, 1, 57, 0
4, 24528, Note_on_c, 1, 61, 73
4, 24573, Note_on_c, 1, 61, 0
4, 24576, Note_on_c, 1, 62, 73
4, 24621, Note_on_c, 1, 62, 0
4, 24624, Note_on_c, 1, 60, 74
4, 24669, Note_on_c, 1, 60, 0
4, 24672, Note_on_c, 1, 58, 75
4, 24717, Note_on_c, 1, 58, 0
4, 24720, Note_on_c, 1, 57, 75
4, 24765, Note_on_c, 1, 57, 0
4, 24768, Note_on_c, 1, 55, 76
4, 24857, Note_on_c, 1, 55, 0
4, 24864, Note_on_c, 1, 57, 77
4, 24953, Note_on_c, 1, 57, 0
4, 24960, Note_on_c, 1, 45, 78
4, 25049, Note_on_c, 1, 45, 0
4, 25056, Note_on_c, 1, 50, 80
4, 25145, Note_on_c, 1, 50, 0
4, 25200, Note_on_c, 1, 54, 80
4, 25200, Note_on_c, 1, 50, 80
4, 25245, Note_on_c, 1, 54, 0
4, 25245, Note_on_c, 1, 50, 0
4, 25248, Note_on_c, 1, 55, 80
4, 25248, Note_on_c, 1, 52, 80
4, 25293, Note_on_c, 1, 55, 0
4, 25293, Note_on_c, 1, 52, 0
4, 25296, Note_on_c, 1, 57, 80
4, 25296, Note_on_c, 1, 54, 80
4, 25341, Note_on_c, 1, 57, 0
4, 25341, Note_on_c, 1, 54, 0
4, 25344, Note_on_c, 1, 55, 80
4, 25433, Note_on_c, 1, 55, 0
4, 25440, Note_on_c, 1, 57, 80
4, 25529, Note_on_c, 1, 57, 0
4, 25536, Note_on_c, 1, 45, 80
4, 25625, Note_on_c, 1, 45, 0
4, 25632, Note_on_c, 1, 50, 74
4, 25721, Note_on_c, 1, 50, 0
4, 25776, Note_on_c, 1, 54, 74
4, 25776, Note_on_c, 1, 50, 74
4, 25821, Note_on_c, 1, 54, 0
4, 25821, Note_on_c, 1, 50, 0
4, 25824, Note_on_c, 1, 55, 74
4, 25824, Note_on_c, 1, 52, 74
4, 25869, Note_on_c, 1, 55, 0
4, 25869, Note_on_c, 1, 52, 0
4, 25872, Note_on_c, 1, 57, 74
4, 25872, Note_on_c, 1, 54, 74
4, 25917, Note_on_c, 1, 57, 0
4, 25917, Note_on_c, 1, 54, 0
4, 25920, Note_on_c, 1, 55, 74
4, 26009, Note_on_c, 1, 55, 0
4, 26016, Note_on_c, 1, 57, 74
4, 26105, Note_on_c, 1, 57, 0
4, 26112, Note_on_c, 1, 45, 74
4, 26201, Note_on_c, 1, 45, 0
4, 26208, Note_on_c, 1, 50, 69
4, 26297, Note_on_c, 1, 50, 0
4, 26304, Note_on_c, 1, 45, 69
4, 26393, Note_on_c, 1, 45, 0
4, 26400, Note_on_c, 1, 38, 69
4, 26489, Note_on_c, 1, 38, 0
4, 26544, Note_on_c, 1, 57, 80
4, 26589, Note_on_c, 1, 57, 0
4, 26592, Note_on_c, 1, 60, 80
4, 26637, Note_on_c, 1, 60, 0
4, 26640, Note_on_c, 1, 58, 80
4, 26685, Note_on_c, 1, 58, 0
4, 26688, Note_on_c, 1, 57, 80
4, 26733, Note_on_c, 1, 57, 0
4, 26736, Note_on_c, 1, 55, 80
4, 26781, Note_on_c, 1, 55, 0
4, 26784, Note_on_c, 1, 57, 80
4, 26873, Note_on_c, 1, 57, 0
4, 26880, Note_on_c, 1, 60, 80
4, 26976, Note_on_c, 1, 60, 0
4, 26976, Note_on_c, 1, 58, 80
4, 27065, Note_on_c, 1, 58, 0
4, 27120, Note_on_c, 1, 58, 87
4, 27165, Note_on_c, 1, 58, 0
4, 27168, Note_on_c, 1, 62, 87
4, 27213, Note_on_c, 1, 62, 0
4, 27216, Note_on_c, 1, 60, 87
4, 27261, Note_on_c, 1, 60, 0
4, 27264, Note_on_c, 1, 58, 87
4, 27309, Note_on_c, 1, 58, 0
4, 27312, Note_on_c, 1, 57, 87
4, 27357, Note_on_c, 1, 57, 0
4, 27360, Note_on_c, 1, 58, 87
4, 27449, Note_on_c, 1, 58, 0
4, 27456, Note_on_c, 1, 62, 87
4, 27552, Note_on_c, 1, 62, 0
4, 27552, Note_on_c, 1, 61, 87
4, 27641, Note_on_c, 1, 61, 0
4, 27696, Note_on_c, 1, 65, 93
4, 27741, Note_on_c, 1, 65, 0
4, 27744, Note_on_c, 1, 67, 91
4, 27789, Note_on_c, 1, 67, 0
4, 27792, Note_on_c, 1, 65, 90
4, 27837, Note_on_c, 1, 65, 0
4, 27840, Note_on_c, 1, 64, 89
4, 27885, Note_on_c, 1, 64, 0
4, 27888, Note_on_c, 1, 65, 88
4, 27933, Note_on_c, 1, 65, 0
4, 27984, Note_on_c, 1, 64, 86
4, 28029, Note_on_c, 1, 64, 0
4, 28032, Note_on_c, 1, 65, 85
4, 28077, Note_on_c, 1, 65, 0
4, 28080, Note_on_c, 1, 64, 84
4, 28125, Note_on_c, 1, 64, 0
4, 28128, Note_on_c, 1, 63, 82
4, 28173, Note_on_c, 1, 63, 0
4, 28176, Note_on_c, 1, 64, 81
4, 28221, Note_on_c, 1, 64, 0
4, 28224, Note_on_c, 1, 62, 80
4, 28313, Note_on_c, 1, 62, 0
4, 28320, Note_on_c, 1, 68, 78
4, 28497, Note_on_c, 1, 68, 0
4, 28512, Note_on_c, 1, 69, 74
4, 28557, Note_on_c, 1, 69, 0
4, 28560, Note_on_c, 1, 57, 74
4, 28605, Note_on_c, 1, 57, 0
4, 28608, Note_on_c, 1, 69, 77
4, 28653, Note_on_c, 1, 69, 0
4, 28656, Note_on_c, 1, 67, 80
4, 28701, Note_on_c, 1, 67, 0
4, 28704, Note_on_c, 1, 65, 76
4, 28749, Note_on_c, 1, 65, 0
4, 28752, Note_on_c, 1, 64, 72
4, 28797, Note_on_c, 1, 64, 0
4, 28848, Note_on_c, 1, 65, 69
4, 28893, Note_on_c, 1, 65, 0
4, 28896, Note_on_c, 1, 69, 69
4, 28941, Note_on_c, 1, 69, 0
4, 28944, Note_on_c, 1, 67, 69
4, 28989, Note_on_c, 1, 67, 0
4, 28992, Note_on_c, 1, 65, 69
4, 29037, Note_on_c, 1, 65, 0
4, 29040, Note_on_c, 1, 64, 69
4, 29085, Note_on_c, 1, 64, 0
4, 29088, Note_on_c, 1, 65, 69
4, 29177, Note_on_c, 1, 65, 0
4, 29184, Note_on_c, 1, 67, 69
4, 29273, Note_on_c, 1, 67, 0
4, 29280, Note_on_c, 1, 65, 69
4, 29369, Note_on_c, 1, 65, 0
4, 29424, Note_on_c, 1, 62, 69
4, 29469, Note_on_c, 1, 62, 0
4, 29472, Note_on_c, 1, 64, 70
4, 29517, Note_on_c, 1, 64, 0
4, 29520, Note_on_c, 1, 62, 70
4, 29565, Note_on_c, 1, 62, 0
4, 29568, Note_on_c, 1, 61, 71
4, 29613, Note_on_c, 1, 61, 0
4, 29616, Note_on_c, 1, 57, 72
4, 29661, Note_on_c, 1, 57, 0
4, 29712, Note_on_c, 1, 61, 73
4, 29757, Note_on_c, 1, 61, 0
4, 29760, Note_on_c, 1, 62, 73
4, 29805, Note_on_c, 1, 62, 0
4, 29808, Note_on_c, 1, 60, 74
4, 29853, Note_on_c, 1, 60, 0
4, 29856, Note_on_c, 1, 58, 75
4, 29901, Note_on_c, 1, 58, 0
4, 29904, Note_on_c, 1, 57, 75
4, 29949, Note_on_c, 1, 57, 0
4, 29952, Note_on_c, 1, 55, 76
4, 30041, Note_on_c, 1, 55, 0
4, 30048, Note_on_c, 1, 57, 77
4, 30137, Note_on_c, 1, 57, 0
4, 30144, Note_on_c, 1, 45, 78
4, 30233, Note_on_c, 1, 45, 0
4, 30240, Note_on_c, 1, 50, 80
4, 30329, Note_on_c, 1, 50, 0
4, 30384, Note_on_c, 1, 54, 80
4, 30384, Note_on_c, 1, 50, 80
4, 30429, Note_on_c, 1, 54, 0
4, 30429, Note_on_c, 1, 50, 0
4, 30432, Note_on_c, 1, 55, 80
4, 30432, Note_on_c, 1, 52, 80
4, 30477, Note_on_c, 1, 55, 0
4, 30477, Note_on_c, 1, 52, 0
4, 30480, Note_on_c, 1, 57, 80
4, 30480, Note_on_c, 1, 54, 80
4, 30525, Note_on_c, 1, 57, 0
4, 30525, Note_on_c, 1, 54, 0
4, 30528, Note_on_c, 1, 55, 80
4, 30617, Note_on_c, 1, 55, 0
4, 30624, Note_on_c, 1, 57, 80
4, 30713, Note_on_c, 1, 57, 0
4, 30720, Note_on_c, 1, 45, 80
4, 30809, Note_on_c, 1, 45, 0
4, 30816, Note_on_c, 1, 50, 74
4, 30905, Note_on_c, 1, 50, 0
4, 30960, Note_on_c, 1, 54, 74
4, 30960, Note_on_c, 1, 50, 74
4, 31005, Note_on_c, 1, 54, 0
4, 31005, Note_on_c, 1, 50, 0
4, 31008, Note_on_c, 1, 55, 74
4, 31008, Note_on_c, 1, 52, 74
4, 31053, Note_on_c, 1, 55, 0
4, 31053, Note_on_c, 1, 52, 0
4, 31056, Note_on_c, 1, 57, 74
4, 31056, Note_on_c, 1, 54, 74
4, 31101, Note_on_c, 1, 57, 0
4, 31101, Note_on_c, 1, 54, 0
4, 31104, Note_on_c, 1, 55, 74
4, 31193, Note_on_c, 1, 55, 0
4, 31200, Note_on_c, 1, 57, 74
4, 31289, Note_on_c, 1, 57, 0
4, 31296, Note_on_c, 1, 45, 74
4, 31385, Note_on_c, 1, 45, 0
4, 31392, Note_on_c, 1, 50, 69
4, 31481, Note_on_c, 1, 50, 0
4, 31488, Note_on_c, 1, 45, 69
4, 31577, Note_on_c, 1, 45, 0
4, 31584, Note_on_c, 1, 38, 69
4, 31673, Note_on_c, 1, 38, 0
4, 31776, Note_on_c, 1, 54, 80
4, 31865, Note_on_c, 1, 54, 0
4, 31872, Note_on_c, 1, 50, 80
4, 31961, Note_on_c, 1, 50, 0
4, 31968, Note_on_c, 1, 52, 80
4, 32057, Note_on_c, 1, 52, 0
4, 32064, Note_on_c, 1, 57, 80
4, 32153, Note_on_c, 1, 57, 0
4, 32160, Note_on_c, 1, 55, 80
4, 32249, Note_on_c, 1, 55, 0
4, 32256, Note_on_c, 1, 54, 80
4, 32433, Note_on_c, 1, 54, 0
4, 32448, Note_on_c, 1, 50, 80
4, 32537, Note_on_c, 1, 50, 0
4, 32544, Note_on_c, 1, 52, 80
4, 32633, Note_on_c, 1, 52, 0
4, 32640, Note_on_c, 1, 61, 80
4, 32729, Note_on_c, 1, 61, 0
4, 32736, Note_on_c, 1, 62, 80
4, 32825, Note_on_c, 1, 62, 0
4, 32832, Note_on_c, 1, 54, 80
4, 32921, Note_on_c, 1, 54, 0
4, 32928, Note_on_c, 1, 56, 80
4, 33024, Note_on_c, 1, 56, 0
4, 33024, Note_on_c, 1, 57, 80
4, 33113, Note_on_c, 1, 57, 0
4, 33120, Note_on_c, 1, 54, 69
4, 33209, Note_on_c, 1, 54, 0
4, 33216, Note_on_c, 1, 56, 69
4, 33312, Note_on_c, 1, 56, 0
4, 33312, Note_on_c, 1, 57, 69
4, 33401, Note_on_c, 1, 57, 0
4, 33408, Note_on_c, 1, 50, 80
4, 33497, Note_on_c, 1, 50, 0
4, 33504, Note_on_c, 1, 52, 80
4, 33593, Note_on_c, 1, 52, 0
4, 33600, Note_on_c, 1, 40, 80
4, 33689, Note_on_c, 1, 40, 0
4, 33696, Note_on_c, 1, 45, 80
4, 33785, Note_on_c, 1, 45, 0
4, 33792, Note_on_c, 1, 40, 80
4, 33881, Note_on_c, 1, 40, 0
4, 33888, Note_on_c, 1, 33, 80
4, 33977, Note_on_c, 1, 33, 0
4, 34080, Note_on_c, 1, 54, 80
4, 34169, Note_on_c, 1, 54, 0
4, 34176, Note_on_c, 1, 50, 80
4, 34265, Note_on_c, 1, 50, 0
4, 34272, Note_on_c, 1, 52, 80
4, 34361, Note_on_c, 1, 52, 0
4, 34368, Note_on_c, 1, 57, 80
4, 34457, Note_on_c, 1, 57, 0
4, 34464, Note_on_c, 1, 55, 80
4, 34553, Note_on_c, 1, 55, 0
4, 34560, Note_on_c, 1, 54, 80
4, 34737, Note_on_c, 1, 54, 0
4, 34752, Note_on_c, 1, 50, 80
4, 34841, Note_on_c, 1, 50, 0
4, 34848, Note_on_c, 1, 52, 80
4, 34937, Note_on_c, 1, 52, 0
4, 34944, Note_on_c, 1, 61, 80
4, 35033, Note_on_c, 1, 61, 0
4, 35040, Note_on_c, 1, 62, 80
4, 35129, Note_on_c, 1, 62, 0
4, 35136, Note_on_c, 1, 54, 80
4, 35225, Note_on_c, 1, 54, 0
4, 35232, Note_on_c, 1, 56, 80
4, 35328, Note_on_c, 1, 56, 0
4, 35328, Note_on_c, 1, 57, 80
4, 35417, Note_on_c, 1, 57, 0
4, 35424, Note_on_c, 1, 54, 69
4, 35513, Note_on_c, 1, 54, 0
4, 35520, Note_on_c, 1, 56, 69
4, 35616, Note_on_c, 1, 56, 0
4, 35616, Note_on_c, 1, 57, 69
4, 35705, Note_on_c, 1, 57, 0
4, 35712, Note_on_c, 1, 50, 80
4, 35801, Note_on_c, 1, 50, 0
4, 35808, Note_on_c, 1, 52, 80
4, 35897, Note_on_c, 1, 52, 0
4, 35904, Note_on_c, 1, 40, 80
4, 35993, Note_on_c, 1, 40, 0
4, 36000, Note_on_c, 1, 45, 80
4, 36089, Note_on_c, 1, 45, 0
4, 36096, Note_on_c, 1, 40, 80
4, 36185, Note_on_c, 1, 40, 0
4, 36192, Note_on_c, 1, 33, 80
4, 36281, Note_on_c, 1, 33, 0
4, 36384, Note_on_c, 1, 57, 80
4, 36407, Note_on_c, 1, 57, 0
4, 36408, Note_on_c, 1, 61, 80
4, 36431, Note_on_c, 1, 61, 0
4, 36432, Note_on_c, 1, 64, 80
4, 36455, Note_on_c, 1, 64, 0
4, 36456, Note_on_c, 1, 69, 80
4, 36479, Note_on_c, 1, 69, 0
4, 36480, Note_on_c, 1, 59, 80
4, 36503, Note_on_c, 1, 59, 0
4, 36504, Note_on_c, 1, 62, 80
4, 36527, Note_on_c, 1, 62, 0
4, 36528, Note_on_c, 1, 64, 80
4, 36551, Note_on_c, 1, 64, 0
4, 36552, Note_on_c, 1, 69, 80
4, 36575, Note_on_c, 1, 69, 0
4, 36576, Note_on_c, 1, 61, 80
4, 36665, Note_on_c, 1, 61, 0
4, 36960, Note_on_c, 1, 57, 80
4, 36983, Note_on_c, 1, 57, 0
4, 36984, Note_on_c, 1, 61, 80
4, 37007, Note_on_c, 1, 61, 0
4, 37008, Note_on_c, 1, 64, 80
4, 37031, Note_on_c, 1, 64, 0
4, 37032, Note_on_c, 1, 69, 80
4, 37055, Note_on_c, 1, 69, 0
4, 37056, Note_on_c, 1, 59, 80
4, 37079, Note_on_c, 1, 59, 0
4, 37080, Note_on_c, 1, 62, 80
4, 37103, Note_on_c, 1, 62, 0
4, 37104, Note_on_c, 1, 64, 80
4, 37127, Note_on_c, 1, 64, 0
4, 37128, Note_on_c, 1, 69, 80
4, 37151, Note_on_c, 1, 69, 0
4, 37152, Note_on_c, 1, 61, 80
4, 37241, Note_on_c, 1, 61, 0
4, 37440, Note_on_c, 1, 62, 80
4, 37529, Note_on_c, 1, 62, 0
4, 37536, Note_on_c, 1, 66, 82
4, 37625, Note_on_c, 1, 66, 0
4, 37632, Note_on_c, 1, 67, 84
4, 37721, Note_on_c, 1, 67, 0
4, 37728, Note_on_c, 1, 69, 87
4, 37817, Note_on_c, 1, 69, 0
4, 37824, Note_on_c, 1, 64, 87
4, 37913, Note_on_c, 1, 64, 0
4, 37920, Note_on_c, 1, 57, 87
4, 38009, Note_on_c, 1, 57, 0
4, 38112, Note_on_c, 1, 54, 80
4, 38201, Note_on_c, 1, 54, 0
4, 38208, Note_on_c, 1, 50, 80
4, 38297, Note_on_c, 1, 50, 0
4, 38304, Note_on_c, 1, 52, 80
4, 38393, Note_on_c, 1, 52, 0
4, 38400, Note_on_c, 1, 57, 80
4, 38489, Note_on_c, 1, 57, 0
4, 38496, Note_on_c, 1, 55, 80
4, 38585, Note_on_c, 1, 55, 0
4, 38592, Note_on_c, 1, 54, 80
4, 38769, Note_on_c, 1, 54, 0
4, 38784, Note_on_c, 1, 50, 80
4, 38873, Note_on_c, 1, 50, 0
4, 38880, Note_on_c, 1, 52, 80
4, 38969, Note_on_c, 1, 52, 0
4, 38976, Note_on_c, 1, 61, 80
4, 39065, Note_on_c, 1, 61, 0
4, 39072, Note_on_c, 1, 62, 80
4, 39161, Note_on_c, 1, 62, 0
4, 39168, Note_on_c, 1, 59, 80
4, 39257, Note_on_c, 1, 59, 0
4, 39264, Note_on_c, 1, 61, 80
4, 39353, Note_on_c, 1, 61, 0
4, 39360, Note_on_c, 1, 62, 80
4, 39449, Note_on_c, 1, 62, 0
4, 39456, Note_on_c, 1, 59, 69
4, 39545, Note_on_c, 1, 59, 0
4, 39552, Note_on_c, 1, 61, 69
4, 39641, Note_on_c, 1, 61, 0
4, 39648, Note_on_c, 1, 62, 69
4, 39737, Note_on_c, 1, 62, 0
4, 39744, Note_on_c, 1, 55, 80
4, 39833, Note_on_c, 1, 55, 0
4, 39840, Note_on_c, 1, 57, 80
4, 39929, Note_on_c, 1, 57, 0
4, 39936, Note_on_c, 1, 45, 80
4, 40025, Note_on_c, 1, 45, 0
4, 40032, Note_on_c, 1, 50, 80
4, 40121, Note_on_c, 1, 50, 0
4, 40128, Note_on_c, 1, 45, 80
4, 40217, Note_on_c, 1, 45, 0
4, 40224, Note_on_c, 1, 38, 80
4, 40313, Note_on_c, 1, 38, 0
4, 40416, Note_on_c, 1, 57, 80
4, 40439, Note_on_c, 1, 57, 0
4, 40440, Note_on_c, 1, 61, 80
4, 40463, Note_on_c, 1, 61, 0
4, 40464, Note_on_c, 1, 64, 80
4, 40487, Note_on_c, 1, 64, 0
4, 40488, Note_on_c, 1, 69, 80
4, 40511, Note_on_c, 1, 69, 0
4, 40512, Note_on_c, 1, 59, 80
4, 40535, Note_on_c, 1, 59, 0
4, 40536, Note_on_c, 1, 62, 80
4, 40559, Note_on_c, 1, 62, 0
4, 40560, Note_on_c, 1, 64, 80
4, 40583, Note_on_c, 1, 64, 0
4, 40584, Note_on_c, 1, 69, 80
4, 40607, Note_on_c, 1, 69, 0
4, 40608, Note_on_c, 1, 61, 80
4, 40697, Note_on_c, 1, 61, 0
4, 40992, Note_on_c, 1, 57, 80
4, 41015, Note_on_c, 1, 57, 0
4, 41016, Note_on_c, 1, 61, 80
4, 41039, Note_on_c, 1, 61, 0
4, 41040, Note_on_c, 1, 64, 80
4, 41063, Note_on_c, 1, 64, 0
4, 41064, Note_on_c, 1, 69, 80
4, 41087, Note_on_c, 1, 69, 0
4, 41088, Note_on_c, 1, 59, 80
4, 41111, Note_on_c, 1, 59, 0
4, 41112, Note_on_c, 1, 62, 80
4, 41135, Note_on_c, 1, 62, 0
4, 41136, Note_on_c, 1, 64, 80
4, 41159, Note_on_c, 1, 64, 0
4, 41160, Note_on_c, 1, 69, 80
4, 41183, Note_on_c, 1, 69, 0
4, 41184, Note_on_c, 1, 61, 80
4, 41273, Note_on_c, 1, 61, 0
4, 41472, Note_on_c, 1, 62, 80
4, 41561, Note_on_c, 1, 62, 0
4, 41568, Note_on_c, 1, 66, 82
4, 41657, Note_on_c, 1, 66, 0
4, 41664, Note_on_c, 1, 67, 84
4, 41753, Note_on_c, 1, 67, 0
4, 41760, Note_on_c, 1, 69, 87
4, 41849, Note_on_c, 1, 69, 0
4, 41856, Note_on_c, 1, 64, 87
4, 41945, Note_on_c, 1, 64, 0
4, 41952, Note_on_c, 1, 57, 87
4, 42041, Note_on_c, 1, 57, 0
4, 42144, Note_on_c, 1, 54, 80
4, 42233, Note_on_c, 1, 54, 0
4, 42240, Note_on_c, 1, 50, 80
4, 42329, Note_on_c, 1, 50, 0
4, 42336, Note_on_c, 1, 52, 80
4, 42425, Note_on_c, 1, 52, 0
4, 42432, Note_on_c, 1, 57, 80
4, 42521, Note_on_c, 1, 57, 0
4, 42528, Note_on_c, 1, 55, 80
4, 42617, Note_on_c, 1, 55, 0
4, 42624, Note_on_c, 1, 54, 80
4, 42801, Note_on_c, 1, 54, 0
4, 42816, Note_on_c, 1, 50, 80
4, 42905, Note_on_c, 1, 50, 0
4, 42912, Note_on_c, 1, 52, 80
4, 43001, Note_on_c, 1, 52, 0
4, 43008, Note_on_c, 1, 61, 80
4, 43097, Note_on_c, 1, 61, 0
4, 43104, Note_on_c, 1, 62, 80
4, 43193, Note_on_c, 1, 62, 0
4, 43200, Note_on_c, 1, 59, 80
4, 43289, Note_on_c, 1, 59, 0
4, 43296, Note_on_c, 1, 61, 80
4, 43385, Note_on_c, 1, 61, 0
4, 43392, Note_on_c, 1, 62, 80
4, 43481, Note_on_c, 1, 62, 0
4, 43488, Note_on_c, 1, 59, 69
4, 43577, Note_on_c, 1, 59, 0
4, 43584, Note_on_c, 1, 61, 69
4, 43673, Note_on_c, 1, 61, 0
4, 43680, Note_on_c, 1, 62, 69
4, 43769, Note_on_c, 1, 62, 0
4, 43776, Note_on_c, 1, 55, 80
4, 43865, Note_on_c, 1, 55, 0
4, 43872, Note_on_c, 1, 57, 80
4, 43961, Note_on_c, 1, 57, 0
4, 43968, Note_on_c, 1, 45, 80
4, 44057, Note_on_c, 1, 45, 0
4, 44064, Note_on_c, 1, 50, 80
4, 44153, Note_on_c, 1, 50, 0
4, 44160, Note_on_c, 1, 45, 80
4, 44249, Note_on_c, 1, 45, 0
4, 44256, Note_on_c, 1, 38, 80
4, 44345, Note_on_c, 1, 38, 0
4, 44352, Note_on_c, 1, 38, 0
4, 44441, Note_on_c, 1, 38, 0
4, 44448, End_track
5, 0, Start_track
5, 0, Program_c, 1, 0
5, 0, Control_c, 1, 7, 127
5, 0, Control_c, 1, 10, 64
5, 12672, Note_on_c, 1, 62, 69
5, 13049, Note_on_c, 1, 62, 0
5, 13056, Note_on_c, 1, 62, 69
5, 13233, Note_on_c, 1, 62, 0
5, 14400, Note_on_c, 1, 65, 80
5, 14953, Note_on_c, 1, 65, 0
5, 14976, Note_on_c, 1, 65, 80
5, 15529, Note_on_c, 1, 65, 0
5, 15552, Note_on_c, 1, 65, 80
5, 15641, Note_on_c, 1, 65, 0
5, 16992, Note_on_c, 1, 62, 69
5, 17369, Note_on_c, 1, 62, 0
5, 17376, Note_on_c, 1, 62, 69
5, 17553, Note_on_c, 1, 62, 0
5, 18720, Note_on_c, 1, 65, 80
5, 19273, Note_on_c, 1, 65, 0
5, 19296, Note_on_c, 1, 65, 80
5, 19849, Note_on_c, 1, 65, 0
5, 19872, Note_on_c, 1, 65, 80
5, 19961, Note_on_c, 1, 65, 0
5, 21312, Note_on_c, 1, 53, 80
5, 21689, Note_on_c, 1, 53, 0
5, 21696, Note_on_c, 1, 54, 80
5, 21792, Note_on_c, 1, 54, 0
5, 21792, Note_on_c, 1, 55, 80
5, 21881, Note_on_c, 1, 55, 0
5, 21888, Note_on_c, 1, 55, 87
5, 22265, Note_on_c, 1, 55, 0
5, 22272, Note_on_c, 1, 56, 87
5, 22368, Note_on_c, 1, 56, 0
5, 22368, Note_on_c, 1, 57, 87
5, 22457, Note_on_c, 1, 57, 0
5, 22464, Note_on_c, 1, 57, 103
5, 22752, Note_on_c, 1, 57, 0
5, 22752, Note_on_c, 1, 57, 109
5, 23040, Note_on_c, 1, 57, 0
5, 23040, Note_on_c, 1, 58, 85
5, 23305, Note_on_c, 1, 58, 0
5, 23616, Note_on_c, 1, 62, 69
5, 23993, Note_on_c, 1, 62, 0
5, 26496, Note_on_c, 1, 53, 80
5, 26873, Note_on_c, 1, 53, 0
5, 26880, Note_on_c, 1, 54, 80
5, 26976, Note_on_c, 1, 54, 0
5, 26976, Note_on_c, 1, 55, 80
5, 27065, Note_on_c, 1, 55, 0
5, 27072, Note_on_c, 1, 55, 87
5, 27449, Note_on_c, 1, 55, 0
5, 27456, Note_on_c, 1, 56, 87
5, 27552, Note_on_c, 1, 56, 0
5, 27552, Note_on_c, 1, 57, 87
5, 27641, Note_on_c, 1, 57, 0
5, 27648, Note_on_c, 1, 57, 103
5, 27936, Note_on_c, 1, 57, 0
5, 27936, Note_on_c, 1, 57, 109
5, 28224, Note_on_c, 1, 57, 0
5, 28224, Note_on_c, 1, 58, 85
5, 28489, Note_on_c, 1, 58, 0
5, 28800, Note_on_c, 1, 62, 69
5, 29177, Note_on_c, 1, 62, 0
5, 44352, End_track
6, 0, Start_track
6, 0, Title_t, "Piano Solo   <composer>  "
6, 0, End_track
0, 0, End_of_file
