0, 0, Header, 1, 6, 96
1, 0, Start_track
1, 0, Copyright_t, "Copyright  2000 <copyright holder>"
1, 0, Text_t, "Sonata I\015\012"
1, 0, Text_t, "Haydn\015\012"
1, 0, Sequencer_specific, 16, 68, 87, 77, 90, 86, 82, 83, 78, 32, 55, 46, 49, 46, 51, 46, 48
1, 0, Time_signature, 3, 2, 24, 8
1, 0, Tempo, 120000
1, 0, Key_signature, -3, "major"
1, 192, Tempo, 444444
1, 2496, Tempo, 444444
1, 31392, Key_signature, -6, "major"
1, 33696, Key_signature, -6, "major"
1, 41184, Key_signature, -3, "major"
1, 49536, End_track
2, 0, Start_track
2, 0, Program_c, 0, 0
2, 0, Control_c, 0, 7, 127
2, 0, Control_c, 0, 10, 64
2, 192, Note_on_c, 0, 70, 70
2, 288, Note_on_c, 0, 70, 0
2, 288, Note_on_c, 0, 75, 70
2, 308, Note_on_c, 0, 75, 0
2, 384, Note_on_c, 0, 75, 70
2, 404, Note_on_c, 0, 75, 0
2, 456, Note_on_c, 0, 77, 70
2, 464, Note_on_c, 0, 77, 0
2, 464, Note_on_c, 0, 75, 70
2, 472, Note_on_c, 0, 75, 0
2, 472, Note_on_c, 0, 74, 70
2, 480, Note_on_c, 0, 74, 0
2, 480, Note_on_c, 0, 75, 70
2, 552, Note_on_c, 0, 75, 0
2, 552, Note_on_c, 0, 77, 70
2, 575, Note_on_c, 0, 77, 0
2, 576, Note_on_c, 0, 74, 70
2, 596, Note_on_c, 0, 74, 0
2, 672, Note_on_c, 0, 74, 70
2, 692, Note_on_c, 0, 74, 0
2, 768, Note_on_c, 0, 74, 70
2, 798, Note_on_c, 0, 74, 0
2, 800, Note_on_c, 0, 77, 70
2, 830, Note_on_c, 0, 77, 0
2, 832, Note_on_c, 0, 80, 70
2, 862, Note_on_c, 0, 80, 0
2, 864, Note_on_c, 0, 84, 86
2, 896, Note_on_c, 0, 84, 0
2, 896, Note_on_c, 0, 82, 70
2, 926, Note_on_c, 0, 82, 0
2, 928, Note_on_c, 0, 80, 70
2, 958, Note_on_c, 0, 80, 0
2, 960, Note_on_c, 0, 79, 70
2, 990, Note_on_c, 0, 79, 0
2, 992, Note_on_c, 0, 77, 70
2, 1022, Note_on_c, 0, 77, 0
2, 1024, Note_on_c, 0, 75, 70
2, 1054, Note_on_c, 0, 75, 0
2, 1056, Note_on_c, 0, 74, 70
2, 1086, Note_on_c, 0, 74, 0
2, 1088, Note_on_c, 0, 80, 70
2, 1118, Note_on_c, 0, 80, 0
2, 1120, Note_on_c, 0, 74, 70
2, 1150, Note_on_c, 0, 74, 0
2, 1152, Note_on_c, 0, 75, 70
2, 1172, Note_on_c, 0, 75, 0
2, 1248, Note_on_c, 0, 75, 70
2, 1268, Note_on_c, 0, 75, 0
2, 1320, Note_on_c, 0, 77, 70
2, 1328, Note_on_c, 0, 77, 0
2, 1328, Note_on_c, 0, 75, 70
2, 1336, Note_on_c, 0, 75, 0
2, 1336, Note_on_c, 0, 74, 70
2, 1344, Note_on_c, 0, 74, 0
2, 1344, Note_on_c, 0, 75, 70
2, 1414, Note_on_c, 0, 75, 0
2, 1416, Note_on_c, 0, 79, 70
2, 1439, Note_on_c, 0, 79, 0
2, 1440, Note_on_c, 0, 71, 70
2, 1460, Note_on_c, 0, 71, 0
2, 1536, Note_on_c, 0, 71, 70
2, 1556, Note_on_c, 0, 71, 0
2, 1632, Note_on_c, 0, 71, 86
2, 1728, Note_on_c, 0, 71, 0
2, 1728, Note_on_c, 0, 72, 70
2, 1758, Note_on_c, 0, 72, 0
2, 1760, Note_on_c, 0, 75, 72
2, 1790, Note_on_c, 0, 75, 0
2, 1792, Note_on_c, 0, 74, 74
2, 1822, Note_on_c, 0, 74, 0
2, 1824, Note_on_c, 0, 72, 77
2, 1854, Note_on_c, 0, 72, 0
2, 1856, Note_on_c, 0, 79, 79
2, 1886, Note_on_c, 0, 79, 0
2, 1888, Note_on_c, 0, 77, 78
2, 1918, Note_on_c, 0, 77, 0
2, 1920, Note_on_c, 0, 75, 76
2, 1950, Note_on_c, 0, 75, 0
2, 1952, Note_on_c, 0, 74, 74
2, 1982, Note_on_c, 0, 74, 0
2, 1984, Note_on_c, 0, 72, 72
2, 2014, Note_on_c, 0, 72, 0
2, 2016, Note_on_c, 0, 70, 70
2, 2069, Note_on_c, 0, 70, 0
2, 2076, Note_on_c, 0, 72, 70
2, 2088, Note_on_c, 0, 72, 0
2, 2088, Note_on_c, 0, 70, 70
2, 2100, Note_on_c, 0, 70, 0
2, 2100, Note_on_c, 0, 69, 70
2, 2112, Note_on_c, 0, 69, 0
2, 2112, Note_on_c, 0, 70, 70
2, 2179, Note_on_c, 0, 70, 0
2, 2184, Note_on_c, 0, 74, 70
2, 2207, Note_on_c, 0, 74, 0
2, 2208, Note_on_c, 0, 72, 70
2, 2275, Note_on_c, 0, 72, 0
2, 2280, Note_on_c, 0, 69, 70
2, 2303, Note_on_c, 0, 69, 0
2, 2304, Note_on_c, 0, 70, 70
2, 2343, Note_on_c, 0, 70, 0
2, 2496, Note_on_c, 0, 70, 70
2, 2592, Note_on_c, 0, 70, 0
2, 2592, Note_on_c, 0, 75, 70
2, 2612, Note_on_c, 0, 75, 0
2, 2688, Note_on_c, 0, 75, 70
2, 2708, Note_on_c, 0, 75, 0
2, 2760, Note_on_c, 0, 77, 70
2, 2768, Note_on_c, 0, 77, 0
2, 2768, Note_on_c, 0, 75, 70
2, 2776, Note_on_c, 0, 75, 0
2, 2776, Note_on_c, 0, 74, 70
2, 2784, Note_on_c, 0, 74, 0
2, 2784, Note_on_c, 0, 75, 70
2, 2856, Note_on_c, 0, 75, 0
2, 2856, Note_on_c, 0, 77, 70
2, 2879, Note_on_c, 0, 77, 0
2, 2880, Note_on_c, 0, 74, 70
2, 2900, Note_on_c, 0, 74, 0
2, 2976, Note_on_c, 0, 74, 70
2, 2996, Note_on_c, 0, 74, 0
2, 3072, Note_on_c, 0, 74, 70
2, 3102, Note_on_c, 0, 74, 0
2, 3104, Note_on_c, 0, 77, 70
2, 3134, Note_on_c, 0, 77, 0
2, 3136, Note_on_c, 0, 80, 70
2, 3166, Note_on_c, 0, 80, 0
2, 3168, Note_on_c, 0, 84, 86
2, 3200, Note_on_c, 0, 84, 0
2, 3200, Note_on_c, 0, 82, 70
2, 3230, Note_on_c, 0, 82, 0
2, 3232, Note_on_c, 0, 80, 70
2, 3262, Note_on_c, 0, 80, 0
2, 3264, Note_on_c, 0, 79, 70
2, 3294, Note_on_c, 0, 79, 0
2, 3296, Note_on_c, 0, 77, 70
2, 3326, Note_on_c, 0, 77, 0
2, 3328, Note_on_c, 0, 75, 70
2, 3358, Note_on_c, 0, 75, 0
2, 3360, Note_on_c, 0, 74, 70
2, 3390, Note_on_c, 0, 74, 0
2, 3392, Note_on_c, 0, 80, 70
2, 3422, Note_on_c, 0, 80, 0
2, 3424, Note_on_c, 0, 74, 70
2, 3454, Note_on_c, 0, 74, 0
2, 3456, Note_on_c, 0, 75, 70
2, 3476, Note_on_c, 0, 75, 0
2, 3552, Note_on_c, 0, 75, 70
2, 3572, Note_on_c, 0, 75, 0
2, 3624, Note_on_c, 0, 77, 70
2, 3632, Note_on_c, 0, 77, 0
2, 3632, Note_on_c, 0, 75, 70
2, 3640, Note_on_c, 0, 75, 0
2, 3640, Note_on_c, 0, 74, 70
2, 3648, Note_on_c, 0, 74, 0
2, 3648, Note_on_c, 0, 75, 70
2, 3718, Note_on_c, 0, 75, 0
2, 3720, Note_on_c, 0, 79, 70
2, 3743, Note_on_c, 0, 79, 0
2, 3744, Note_on_c, 0, 71, 70
2, 3764, Note_on_c, 0, 71, 0
2, 3840, Note_on_c, 0, 71, 70
2, 3860, Note_on_c, 0, 71, 0
2, 3936, Note_on_c, 0, 71, 86
2, 4032, Note_on_c, 0, 71, 0
2, 4032, Note_on_c, 0, 72, 70
2, 4062, Note_on_c, 0, 72, 0
2, 4064, Note_on_c, 0, 75, 72
2, 4094, Note_on_c, 0, 75, 0
2, 4096, Note_on_c, 0, 74, 74
2, 4126, Note_on_c, 0, 74, 0
2, 4128, Note_on_c, 0, 72, 77
2, 4158, Note_on_c, 0, 72, 0
2, 4160, Note_on_c, 0, 79, 79
2, 4190, Note_on_c, 0, 79, 0
2, 4192, Note_on_c, 0, 77, 78
2, 4222, Note_on_c, 0, 77, 0
2, 4224, Note_on_c, 0, 75, 76
2, 4254, Note_on_c, 0, 75, 0
2, 4256, Note_on_c, 0, 74, 74
2, 4286, Note_on_c, 0, 74, 0
2, 4288, Note_on_c, 0, 72, 72
2, 4318, Note_on_c, 0, 72, 0
2, 4320, Note_on_c, 0, 70, 70
2, 4373, Note_on_c, 0, 70, 0
2, 4380, Note_on_c, 0, 72, 70
2, 4392, Note_on_c, 0, 72, 0
2, 4392, Note_on_c, 0, 70, 70
2, 4404, Note_on_c, 0, 70, 0
2, 4404, Note_on_c, 0, 69, 70
2, 4416, Note_on_c, 0, 69, 0
2, 4416, Note_on_c, 0, 70, 70
2, 4483, Note_on_c, 0, 70, 0
2, 4488, Note_on_c, 0, 74, 70
2, 4511, Note_on_c, 0, 74, 0
2, 4512, Note_on_c, 0, 72, 70
2, 4579, Note_on_c, 0, 72, 0
2, 4584, Note_on_c, 0, 69, 70
2, 4607, Note_on_c, 0, 69, 0
2, 4608, Note_on_c, 0, 70, 70
2, 4647, Note_on_c, 0, 70, 0
2, 4928, Note_on_c, 0, 58, 75
2, 4958, Note_on_c, 0, 58, 0
2, 4960, Note_on_c, 0, 60, 75
2, 4990, Note_on_c, 0, 60, 0
2, 4992, Note_on_c, 0, 62, 75
2, 5022, Note_on_c, 0, 62, 0
2, 5024, Note_on_c, 0, 63, 75
2, 5054, Note_on_c, 0, 63, 0
2, 5056, Note_on_c, 0, 65, 75
2, 5086, Note_on_c, 0, 65, 0
2, 5088, Note_on_c, 0, 67, 75
2, 5118, Note_on_c, 0, 67, 0
2, 5120, Note_on_c, 0, 68, 75
2, 5150, Note_on_c, 0, 68, 0
2, 5152, Note_on_c, 0, 65, 75
2, 5182, Note_on_c, 0, 65, 0
2, 5184, Note_on_c, 0, 70, 75
2, 5251, Note_on_c, 0, 70, 0
2, 5256, Note_on_c, 0, 75, 75
2, 5279, Note_on_c, 0, 75, 0
2, 5280, Note_on_c, 0, 70, 75
2, 5300, Note_on_c, 0, 70, 0
2, 5504, Note_on_c, 0, 70, 75
2, 5534, Note_on_c, 0, 70, 0
2, 5536, Note_on_c, 0, 72, 75
2, 5566, Note_on_c, 0, 72, 0
2, 5568, Note_on_c, 0, 74, 75
2, 5598, Note_on_c, 0, 74, 0
2, 5600, Note_on_c, 0, 75, 75
2, 5630, Note_on_c, 0, 75, 0
2, 5632, Note_on_c, 0, 77, 75
2, 5662, Note_on_c, 0, 77, 0
2, 5664, Note_on_c, 0, 79, 75
2, 5694, Note_on_c, 0, 79, 0
2, 5696, Note_on_c, 0, 80, 75
2, 5726, Note_on_c, 0, 80, 0
2, 5728, Note_on_c, 0, 77, 75
2, 5758, Note_on_c, 0, 77, 0
2, 5760, Note_on_c, 0, 82, 75
2, 5790, Note_on_c, 0, 82, 0
2, 5792, Note_on_c, 0, 84, 75
2, 5822, Note_on_c, 0, 84, 0
2, 5824, Note_on_c, 0, 82, 75
2, 5854, Note_on_c, 0, 82, 0
2, 5856, Note_on_c, 0, 80, 75
2, 5886, Note_on_c, 0, 80, 0
2, 5888, Note_on_c, 0, 79, 75
2, 5918, Note_on_c, 0, 79, 0
2, 5920, Note_on_c, 0, 77, 75
2, 5950, Note_on_c, 0, 77, 0
2, 5952, Note_on_c, 0, 75, 75
2, 5982, Note_on_c, 0, 75, 0
2, 5984, Note_on_c, 0, 79, 75
2, 6014, Note_on_c, 0, 79, 0
2, 6016, Note_on_c, 0, 75, 75
2, 6046, Note_on_c, 0, 75, 0
2, 6048, Note_on_c, 0, 74, 75
2, 6078, Note_on_c, 0, 74, 0
2, 6080, Note_on_c, 0, 77, 75
2, 6110, Note_on_c, 0, 77, 0
2, 6112, Note_on_c, 0, 74, 75
2, 6142, Note_on_c, 0, 74, 0
2, 6144, Note_on_c, 0, 72, 75
2, 6174, Note_on_c, 0, 72, 0
2, 6176, Note_on_c, 0, 75, 75
2, 6206, Note_on_c, 0, 75, 0
2, 6208, Note_on_c, 0, 72, 75
2, 6238, Note_on_c, 0, 72, 0
2, 6240, Note_on_c, 0, 70, 75
2, 6270, Note_on_c, 0, 70, 0
2, 6272, Note_on_c, 0, 74, 75
2, 6302, Note_on_c, 0, 74, 0
2, 6304, Note_on_c, 0, 70, 75
2, 6334, Note_on_c, 0, 70, 0
2, 6336, Note_on_c, 0, 68, 75
2, 6366, Note_on_c, 0, 68, 0
2, 6368, Note_on_c, 0, 72, 75
2, 6398, Note_on_c, 0, 72, 0
2, 6400, Note_on_c, 0, 68, 75
2, 6430, Note_on_c, 0, 68, 0
2, 6432, Note_on_c, 0, 67, 75
2, 6462, Note_on_c, 0, 67, 0
2, 6464, Note_on_c, 0, 70, 75
2, 6494, Note_on_c, 0, 70, 0
2, 6496, Note_on_c, 0, 67, 75
2, 6526, Note_on_c, 0, 67, 0
2, 6528, Note_on_c, 0, 65, 75
2, 6558, Note_on_c, 0, 65, 0
2, 6560, Note_on_c, 0, 68, 75
2, 6590, Note_on_c, 0, 68, 0
2, 6592, Note_on_c, 0, 65, 75
2, 6622, Note_on_c, 0, 65, 0
2, 6624, Note_on_c, 0, 70, 75
2, 6654, Note_on_c, 0, 70, 0
2, 6656, Note_on_c, 0, 62, 75
2, 6686, Note_on_c, 0, 62, 0
2, 6688, Note_on_c, 0, 63, 75
2, 6718, Note_on_c, 0, 63, 0
2, 6720, Note_on_c, 0, 72, 75
2, 6750, Note_on_c, 0, 72, 0
2, 6752, Note_on_c, 0, 64, 91
2, 6784, Note_on_c, 0, 64, 0
2, 6784, Note_on_c, 0, 65, 73
2, 6814, Note_on_c, 0, 65, 0
2, 6816, Note_on_c, 0, 72, 72
2, 6846, Note_on_c, 0, 72, 0
2, 6848, Note_on_c, 0, 68, 71
2, 6878, Note_on_c, 0, 68, 0
2, 6880, Note_on_c, 0, 65, 70
2, 6910, Note_on_c, 0, 65, 0
2, 6912, Note_on_c, 0, 63, 69
2, 7008, Note_on_c, 0, 63, 0
2, 7008, Note_on_c, 0, 62, 66
2, 7028, Note_on_c, 0, 62, 0
2, 7080, Note_on_c, 0, 70, 70
2, 7103, Note_on_c, 0, 70, 0
2, 7104, Note_on_c, 0, 72, 70
2, 7116, Note_on_c, 0, 72, 0
2, 7116, Note_on_c, 0, 70, 70
2, 7128, Note_on_c, 0, 70, 0
2, 7128, Note_on_c, 0, 69, 70
2, 7140, Note_on_c, 0, 69, 0
2, 7140, Note_on_c, 0, 70, 70
2, 7193, Note_on_c, 0, 70, 0
2, 7200, Note_on_c, 0, 75, 70
2, 7220, Note_on_c, 0, 75, 0
2, 7296, Note_on_c, 0, 75, 70
2, 7316, Note_on_c, 0, 75, 0
2, 7392, Note_on_c, 0, 77, 70
2, 7404, Note_on_c, 0, 77, 0
2, 7404, Note_on_c, 0, 75, 70
2, 7416, Note_on_c, 0, 75, 0
2, 7416, Note_on_c, 0, 74, 70
2, 7428, Note_on_c, 0, 74, 0
2, 7428, Note_on_c, 0, 75, 70
2, 7464, Note_on_c, 0, 75, 0
2, 7464, Note_on_c, 0, 77, 70
2, 7487, Note_on_c, 0, 77, 0
2, 7488, Note_on_c, 0, 74, 70
2, 7508, Note_on_c, 0, 74, 0
2, 7584, Note_on_c, 0, 74, 70
2, 7604, Note_on_c, 0, 74, 0
2, 7680, Note_on_c, 0, 74, 70
2, 7710, Note_on_c, 0, 74, 0
2, 7712, Note_on_c, 0, 77, 70
2, 7742, Note_on_c, 0, 77, 0
2, 7744, Note_on_c, 0, 80, 70
2, 7774, Note_on_c, 0, 80, 0
2, 7776, Note_on_c, 0, 84, 86
2, 7808, Note_on_c, 0, 84, 0
2, 7808, Note_on_c, 0, 82, 70
2, 7838, Note_on_c, 0, 82, 0
2, 7840, Note_on_c, 0, 80, 70
2, 7870, Note_on_c, 0, 80, 0
2, 7872, Note_on_c, 0, 79, 70
2, 7902, Note_on_c, 0, 79, 0
2, 7904, Note_on_c, 0, 77, 70
2, 7934, Note_on_c, 0, 77, 0
2, 7936, Note_on_c, 0, 75, 70
2, 7966, Note_on_c, 0, 75, 0
2, 7968, Note_on_c, 0, 74, 70
2, 7998, Note_on_c, 0, 74, 0
2, 8000, Note_on_c, 0, 80, 70
2, 8030, Note_on_c, 0, 80, 0
2, 8032, Note_on_c, 0, 74, 70
2, 8062, Note_on_c, 0, 74, 0
2, 8064, Note_on_c, 0, 75, 70
2, 8084, Note_on_c, 0, 75, 0
2, 8160, Note_on_c, 0, 75, 70
2, 8180, Note_on_c, 0, 75, 0
2, 8232, Note_on_c, 0, 75, 70
2, 8255, Note_on_c, 0, 75, 0
2, 8256, Note_on_c, 0, 77, 70
2, 8262, Note_on_c, 0, 77, 0
2, 8262, Note_on_c, 0, 75, 70
2, 8279, Note_on_c, 0, 75, 0
2, 8280, Note_on_c, 0, 74, 70
2, 8303, Note_on_c, 0, 74, 0
2, 8304, Note_on_c, 0, 75, 70
2, 8327, Note_on_c, 0, 75, 0
2, 8328, Note_on_c, 0, 77, 70
2, 8351, Note_on_c, 0, 77, 0
2, 8352, Note_on_c, 0, 79, 70
2, 8391, Note_on_c, 0, 79, 0
2, 8448, Note_on_c, 0, 79, 71
2, 8515, Note_on_c, 0, 79, 0
2, 8520, Note_on_c, 0, 82, 72
2, 8543, Note_on_c, 0, 82, 0
2, 8544, Note_on_c, 0, 87, 73
2, 8574, Note_on_c, 0, 87, 0
2, 8576, Note_on_c, 0, 82, 73
2, 8606, Note_on_c, 0, 82, 0
2, 8608, Note_on_c, 0, 79, 74
2, 8638, Note_on_c, 0, 79, 0
2, 8640, Note_on_c, 0, 80, 74
2, 8693, Note_on_c, 0, 80, 0
2, 8700, Note_on_c, 0, 82, 74
2, 8712, Note_on_c, 0, 82, 0
2, 8712, Note_on_c, 0, 80, 74
2, 8724, Note_on_c, 0, 80, 0
2, 8724, Note_on_c, 0, 79, 74
2, 8736, Note_on_c, 0, 79, 0
2, 8736, Note_on_c, 0, 80, 76
2, 8803, Note_on_c, 0, 80, 0
2, 8808, Note_on_c, 0, 82, 77
2, 8831, Note_on_c, 0, 82, 0
2, 8832, Note_on_c, 0, 84, 78
2, 8862, Note_on_c, 0, 84, 0
2, 8864, Note_on_c, 0, 80, 78
2, 8894, Note_on_c, 0, 80, 0
2, 8896, Note_on_c, 0, 77, 79
2, 8926, Note_on_c, 0, 77, 0
2, 8928, Note_on_c, 0, 75, 80
2, 8981, Note_on_c, 0, 75, 0
2, 8988, Note_on_c, 0, 77, 80
2, 9000, Note_on_c, 0, 77, 0
2, 9000, Note_on_c, 0, 75, 80
2, 9012, Note_on_c, 0, 75, 0
2, 9012, Note_on_c, 0, 74, 80
2, 9024, Note_on_c, 0, 74, 0
2, 9024, Note_on_c, 0, 75, 80
2, 9091, Note_on_c, 0, 75, 0
2, 9096, Note_on_c, 0, 79, 80
2, 9119, Note_on_c, 0, 79, 0
2, 9120, Note_on_c, 0, 77, 80
2, 9187, Note_on_c, 0, 77, 0
2, 9192, Note_on_c, 0, 74, 80
2, 9215, Note_on_c, 0, 74, 0
2, 9216, Note_on_c, 0, 75, 80
2, 9255, Note_on_c, 0, 75, 0
2, 9536, Note_on_c, 0, 58, 75
2, 9566, Note_on_c, 0, 58, 0
2, 9568, Note_on_c, 0, 60, 75
2, 9598, Note_on_c, 0, 60, 0
2, 9600, Note_on_c, 0, 62, 75
2, 9630, Note_on_c, 0, 62, 0
2, 9632, Note_on_c, 0, 63, 75
2, 9662, Note_on_c, 0, 63, 0
2, 9664, Note_on_c, 0, 65, 75
2, 9694, Note_on_c, 0, 65, 0
2, 9696, Note_on_c, 0, 67, 75
2, 9726, Note_on_c, 0, 67, 0
2, 9728, Note_on_c, 0, 68, 75
2, 9758, Note_on_c, 0, 68, 0
2, 9760, Note_on_c, 0, 65, 75
2, 9790, Note_on_c, 0, 65, 0
2, 9792, Note_on_c, 0, 70, 75
2, 9859, Note_on_c, 0, 70, 0
2, 9864, Note_on_c, 0, 75, 75
2, 9887, Note_on_c, 0, 75, 0
2, 9888, Note_on_c, 0, 70, 75
2, 9908, Note_on_c, 0, 70, 0
2, 10112, Note_on_c, 0, 70, 75
2, 10142, Note_on_c, 0, 70, 0
2, 10144, Note_on_c, 0, 72, 75
2, 10174, Note_on_c, 0, 72, 0
2, 10176, Note_on_c, 0, 74, 75
2, 10206, Note_on_c, 0, 74, 0
2, 10208, Note_on_c, 0, 75, 75
2, 10238, Note_on_c, 0, 75, 0
2, 10240, Note_on_c, 0, 77, 75
2, 10270, Note_on_c, 0, 77, 0
2, 10272, Note_on_c, 0, 79, 75
2, 10302, Note_on_c, 0, 79, 0
2, 10304, Note_on_c, 0, 80, 75
2, 10334, Note_on_c, 0, 80, 0
2, 10336, Note_on_c, 0, 77, 75
2, 10366, Note_on_c, 0, 77, 0
2, 10368, Note_on_c, 0, 82, 75
2, 10398, Note_on_c, 0, 82, 0
2, 10400, Note_on_c, 0, 84, 75
2, 10430, Note_on_c, 0, 84, 0
2, 10432, Note_on_c, 0, 82, 75
2, 10462, Note_on_c, 0, 82, 0
2, 10464, Note_on_c, 0, 80, 75
2, 10494, Note_on_c, 0, 80, 0
2, 10496, Note_on_c, 0, 79, 75
2, 10526, Note_on_c, 0, 79, 0
2, 10528, Note_on_c, 0, 77, 75
2, 10558, Note_on_c, 0, 77, 0
2, 10560, Note_on_c, 0, 75, 75
2, 10590, Note_on_c, 0, 75, 0
2, 10592, Note_on_c, 0, 79, 75
2, 10622, Note_on_c, 0, 79, 0
2, 10624, Note_on_c, 0, 75, 75
2, 10654, Note_on_c, 0, 75, 0
2, 10656, Note_on_c, 0, 74, 75
2, 10686, Note_on_c, 0, 74, 0
2, 10688, Note_on_c, 0, 77, 75
2, 10718, Note_on_c, 0, 77, 0
2, 10720, Note_on_c, 0, 74, 75
2, 10750, Note_on_c, 0, 74, 0
2, 10752, Note_on_c, 0, 72, 75
2, 10782, Note_on_c, 0, 72, 0
2, 10784, Note_on_c, 0, 75, 75
2, 10814, Note_on_c, 0, 75, 0
2, 10816, Note_on_c, 0, 72, 75
2, 10846, Note_on_c, 0, 72, 0
2, 10848, Note_on_c, 0, 70, 75
2, 10878, Note_on_c, 0, 70, 0
2, 10880, Note_on_c, 0, 74, 75
2, 10910, Note_on_c, 0, 74, 0
2, 10912, Note_on_c, 0, 70, 75
2, 10942, Note_on_c, 0, 70, 0
2, 10944, Note_on_c, 0, 68, 75
2, 10974, Note_on_c, 0, 68, 0
2, 10976, Note_on_c, 0, 72, 75
2, 11006, Note_on_c, 0, 72, 0
2, 11008, Note_on_c, 0, 68, 75
2, 11038, Note_on_c, 0, 68, 0
2, 11040, Note_on_c, 0, 67, 75
2, 11070, Note_on_c, 0, 67, 0
2, 11072, Note_on_c, 0, 70, 75
2, 11102, Note_on_c, 0, 70, 0
2, 11104, Note_on_c, 0, 67, 75
2, 11134, Note_on_c, 0, 67, 0
2, 11136, Note_on_c, 0, 65, 75
2, 11166, Note_on_c, 0, 65, 0
2, 11168, Note_on_c, 0, 68, 75
2, 11198, Note_on_c, 0, 68, 0
2, 11200, Note_on_c, 0, 65, 75
2, 11230, Note_on_c, 0, 65, 0
2, 11232, Note_on_c, 0, 70, 75
2, 11262, Note_on_c, 0, 70, 0
2, 11264, Note_on_c, 0, 62, 75
2, 11294, Note_on_c, 0, 62, 0
2, 11296, Note_on_c, 0, 63, 75
2, 11326, Note_on_c, 0, 63, 0
2, 11328, Note_on_c, 0, 72, 75
2, 11358, Note_on_c, 0, 72, 0
2, 11360, Note_on_c, 0, 64, 91
2, 11392, Note_on_c, 0, 64, 0
2, 11392, Note_on_c, 0, 65, 73
2, 11422, Note_on_c, 0, 65, 0
2, 11424, Note_on_c, 0, 72, 72
2, 11454, Note_on_c, 0, 72, 0
2, 11456, Note_on_c, 0, 68, 71
2, 11486, Note_on_c, 0, 68, 0
2, 11488, Note_on_c, 0, 65, 70
2, 11518, Note_on_c, 0, 65, 0
2, 11520, Note_on_c, 0, 63, 69
2, 11616, Note_on_c, 0, 63, 0
2, 11616, Note_on_c, 0, 62, 66
2, 11636, Note_on_c, 0, 62, 0
2, 11688, Note_on_c, 0, 70, 70
2, 11711, Note_on_c, 0, 70, 0
2, 11712, Note_on_c, 0, 72, 70
2, 11724, Note_on_c, 0, 72, 0
2, 11724, Note_on_c, 0, 70, 70
2, 11736, Note_on_c, 0, 70, 0
2, 11736, Note_on_c, 0, 69, 70
2, 11748, Note_on_c, 0, 69, 0
2, 11748, Note_on_c, 0, 70, 70
2, 11801, Note_on_c, 0, 70, 0
2, 11808, Note_on_c, 0, 75, 70
2, 11828, Note_on_c, 0, 75, 0
2, 11904, Note_on_c, 0, 75, 70
2, 11924, Note_on_c, 0, 75, 0
2, 12000, Note_on_c, 0, 77, 70
2, 12012, Note_on_c, 0, 77, 0
2, 12012, Note_on_c, 0, 75, 70
2, 12024, Note_on_c, 0, 75, 0
2, 12024, Note_on_c, 0, 74, 70
2, 12036, Note_on_c, 0, 74, 0
2, 12036, Note_on_c, 0, 75, 70
2, 12072, Note_on_c, 0, 75, 0
2, 12072, Note_on_c, 0, 77, 70
2, 12095, Note_on_c, 0, 77, 0
2, 12096, Note_on_c, 0, 74, 70
2, 12116, Note_on_c, 0, 74, 0
2, 12192, Note_on_c, 0, 74, 70
2, 12212, Note_on_c, 0, 74, 0
2, 12288, Note_on_c, 0, 74, 70
2, 12318, Note_on_c, 0, 74, 0
2, 12320, Note_on_c, 0, 77, 70
2, 12350, Note_on_c, 0, 77, 0
2, 12352, Note_on_c, 0, 80, 70
2, 12382, Note_on_c, 0, 80, 0
2, 12384, Note_on_c, 0, 84, 86
2, 12416, Note_on_c, 0, 84, 0
2, 12416, Note_on_c, 0, 82, 70
2, 12446, Note_on_c, 0, 82, 0
2, 12448, Note_on_c, 0, 80, 70
2, 12478, Note_on_c, 0, 80, 0
2, 12480, Note_on_c, 0, 79, 70
2, 12510, Note_on_c, 0, 79, 0
2, 12512, Note_on_c, 0, 77, 70
2, 12542, Note_on_c, 0, 77, 0
2, 12544, Note_on_c, 0, 75, 70
2, 12574, Note_on_c, 0, 75, 0
2, 12576, Note_on_c, 0, 74, 70
2, 12606, Note_on_c, 0, 74, 0
2, 12608, Note_on_c, 0, 80, 70
2, 12638, Note_on_c, 0, 80, 0
2, 12640, Note_on_c, 0, 74, 70
2, 12670, Note_on_c, 0, 74, 0
2, 12672, Note_on_c, 0, 75, 70
2, 12692, Note_on_c, 0, 75, 0
2, 12768, Note_on_c, 0, 75, 70
2, 12788, Note_on_c, 0, 75, 0
2, 12840, Note_on_c, 0, 75, 70
2, 12863, Note_on_c, 0, 75, 0
2, 12864, Note_on_c, 0, 77, 70
2, 12870, Note_on_c, 0, 77, 0
2, 12870, Note_on_c, 0, 75, 70
2, 12887, Note_on_c, 0, 75, 0
2, 12888, Note_on_c, 0, 74, 70
2, 12911, Note_on_c, 0, 74, 0
2, 12912, Note_on_c, 0, 75, 70
2, 12935, Note_on_c, 0, 75, 0
2, 12936, Note_on_c, 0, 77, 70
2, 12959, Note_on_c, 0, 77, 0
2, 12960, Note_on_c, 0, 79, 70
2, 12999, Note_on_c, 0, 79, 0
2, 13056, Note_on_c, 0, 79, 71
2, 13123, Note_on_c, 0, 79, 0
2, 13128, Note_on_c, 0, 82, 72
2, 13151, Note_on_c, 0, 82, 0
2, 13152, Note_on_c, 0, 87, 73
2, 13182, Note_on_c, 0, 87, 0
2, 13184, Note_on_c, 0, 82, 73
2, 13214, Note_on_c, 0, 82, 0
2, 13216, Note_on_c, 0, 79, 74
2, 13246, Note_on_c, 0, 79, 0
2, 13248, Note_on_c, 0, 80, 74
2, 13301, Note_on_c, 0, 80, 0
2, 13308, Note_on_c, 0, 82, 74
2, 13320, Note_on_c, 0, 82, 0
2, 13320, Note_on_c, 0, 80, 74
2, 13332, Note_on_c, 0, 80, 0
2, 13332, Note_on_c, 0, 79, 74
2, 13344, Note_on_c, 0, 79, 0
2, 13344, Note_on_c, 0, 80, 76
2, 13411, Note_on_c, 0, 80, 0
2, 13416, Note_on_c, 0, 82, 77
2, 13439, Note_on_c, 0, 82, 0
2, 13440, Note_on_c, 0, 84, 78
2, 13470, Note_on_c, 0, 84, 0
2, 13472, Note_on_c, 0, 80, 78
2, 13502, Note_on_c, 0, 80, 0
2, 13504, Note_on_c, 0, 77, 79
2, 13534, Note_on_c, 0, 77, 0
2, 13536, Note_on_c, 0, 75, 80
2, 13589, Note_on_c, 0, 75, 0
2, 13596, Note_on_c, 0, 77, 80
2, 13608, Note_on_c, 0, 77, 0
2, 13608, Note_on_c, 0, 75, 80
2, 13620, Note_on_c, 0, 75, 0
2, 13620, Note_on_c, 0, 74, 80
2, 13632, Note_on_c, 0, 74, 0
2, 13632, Note_on_c, 0, 75, 80
2, 13699, Note_on_c, 0, 75, 0
2, 13704, Note_on_c, 0, 79, 80
2, 13727, Note_on_c, 0, 79, 0
2, 13728, Note_on_c, 0, 77, 80
2, 13795, Note_on_c, 0, 77, 0
2, 13800, Note_on_c, 0, 74, 80
2, 13823, Note_on_c, 0, 74, 0
2, 13824, Note_on_c, 0, 75, 80
2, 13863, Note_on_c, 0, 75, 0
2, 14016, Note_on_c, 0, 70, 64
2, 14016, Note_on_c, 0, 67, 64
2, 14105, Note_on_c, 0, 70, 0
2, 14105, Note_on_c, 0, 67, 0
2, 14112, Note_on_c, 0, 72, 64
2, 14112, Note_on_c, 0, 68, 64
2, 14157, Note_on_c, 0, 72, 0
2, 14157, Note_on_c, 0, 68, 0
2, 14160, Note_on_c, 0, 70, 64
2, 14160, Note_on_c, 0, 67, 64
2, 14205, Note_on_c, 0, 70, 0
2, 14205, Note_on_c, 0, 67, 0
2, 14208, Note_on_c, 0, 68, 64
2, 14208, Note_on_c, 0, 65, 64
2, 14253, Note_on_c, 0, 68, 0
2, 14253, Note_on_c, 0, 65, 0
2, 14256, Note_on_c, 0, 67, 64
2, 14256, Note_on_c, 0, 63, 64
2, 14301, Note_on_c, 0, 67, 0
2, 14301, Note_on_c, 0, 63, 0
2, 14304, Note_on_c, 0, 65, 64
2, 14304, Note_on_c, 0, 60, 64
2, 14324, Note_on_c, 0, 65, 0
2, 14324, Note_on_c, 0, 60, 0
2, 14400, Note_on_c, 0, 65, 64
2, 14400, Note_on_c, 0, 60, 64
2, 14445, Note_on_c, 0, 65, 0
2, 14445, Note_on_c, 0, 60, 0
2, 14592, Note_on_c, 0, 80, 64
2, 14592, Note_on_c, 0, 77, 64
2, 14681, Note_on_c, 0, 80, 0
2, 14681, Note_on_c, 0, 77, 0
2, 14688, Note_on_c, 0, 82, 64
2, 14688, Note_on_c, 0, 79, 64
2, 14733, Note_on_c, 0, 82, 0
2, 14733, Note_on_c, 0, 79, 0
2, 14736, Note_on_c, 0, 80, 64
2, 14736, Note_on_c, 0, 77, 64
2, 14781, Note_on_c, 0, 80, 0
2, 14781, Note_on_c, 0, 77, 0
2, 14784, Note_on_c, 0, 79, 64
2, 14784, Note_on_c, 0, 75, 64
2, 14829, Note_on_c, 0, 79, 0
2, 14829, Note_on_c, 0, 75, 0
2, 14832, Note_on_c, 0, 77, 64
2, 14832, Note_on_c, 0, 74, 64
2, 14877, Note_on_c, 0, 77, 0
2, 14877, Note_on_c, 0, 74, 0
2, 14880, Note_on_c, 0, 75, 64
2, 14900, Note_on_c, 0, 75, 0
2, 14976, Note_on_c, 0, 75, 64
2, 15021, Note_on_c, 0, 75, 0
2, 15144, Note_on_c, 0, 87, 80
2, 15167, Note_on_c, 0, 87, 0
2, 15168, Note_on_c, 0, 89, 80
2, 15180, Note_on_c, 0, 89, 0
2, 15180, Note_on_c, 0, 87, 80
2, 15192, Note_on_c, 0, 87, 0
2, 15192, Note_on_c, 0, 86, 80
2, 15204, Note_on_c, 0, 86, 0
2, 15204, Note_on_c, 0, 87, 96
2, 15264, Note_on_c, 0, 87, 0
2, 15264, Note_on_c, 0, 89, 80
2, 15294, Note_on_c, 0, 89, 0
2, 15296, Note_on_c, 0, 87, 80
2, 15326, Note_on_c, 0, 87, 0
2, 15328, Note_on_c, 0, 86, 80
2, 15358, Note_on_c, 0, 86, 0
2, 15360, Note_on_c, 0, 84, 80
2, 15390, Note_on_c, 0, 84, 0
2, 15392, Note_on_c, 0, 82, 80
2, 15422, Note_on_c, 0, 82, 0
2, 15424, Note_on_c, 0, 81, 80
2, 15454, Note_on_c, 0, 81, 0
2, 15456, Note_on_c, 0, 79, 80
2, 15486, Note_on_c, 0, 79, 0
2, 15488, Note_on_c, 0, 77, 80
2, 15518, Note_on_c, 0, 77, 0
2, 15520, Note_on_c, 0, 75, 80
2, 15550, Note_on_c, 0, 75, 0
2, 15552, Note_on_c, 0, 74, 80
2, 15582, Note_on_c, 0, 74, 0
2, 15584, Note_on_c, 0, 72, 80
2, 15614, Note_on_c, 0, 72, 0
2, 15616, Note_on_c, 0, 70, 80
2, 15646, Note_on_c, 0, 70, 0
2, 15648, Note_on_c, 0, 69, 80
2, 15678, Note_on_c, 0, 69, 0
2, 15680, Note_on_c, 0, 67, 80
2, 15710, Note_on_c, 0, 67, 0
2, 15712, Note_on_c, 0, 65, 80
2, 15742, Note_on_c, 0, 65, 0
2, 15744, Note_on_c, 0, 63, 80
2, 15774, Note_on_c, 0, 63, 0
2, 15776, Note_on_c, 0, 62, 80
2, 15806, Note_on_c, 0, 62, 0
2, 15808, Note_on_c, 0, 60, 80
2, 15838, Note_on_c, 0, 60, 0
2, 15840, Note_on_c, 0, 59, 80
2, 15870, Note_on_c, 0, 59, 0
2, 15872, Note_on_c, 0, 62, 80
2, 15902, Note_on_c, 0, 62, 0
2, 15904, Note_on_c, 0, 59, 80
2, 15934, Note_on_c, 0, 59, 0
2, 15936, Note_on_c, 0, 60, 80
2, 15966, Note_on_c, 0, 60, 0
2, 15968, Note_on_c, 0, 63, 80
2, 15998, Note_on_c, 0, 63, 0
2, 16000, Note_on_c, 0, 60, 80
2, 16030, Note_on_c, 0, 60, 0
2, 16032, Note_on_c, 0, 53, 80
2, 16062, Note_on_c, 0, 53, 0
2, 16064, Note_on_c, 0, 57, 80
2, 16094, Note_on_c, 0, 57, 0
2, 16096, Note_on_c, 0, 53, 80
2, 16126, Note_on_c, 0, 53, 0
2, 16128, Note_on_c, 0, 58, 80
2, 16217, Note_on_c, 0, 58, 0
2, 16320, Note_on_c, 0, 70, 64
2, 16320, Note_on_c, 0, 67, 64
2, 16409, Note_on_c, 0, 70, 0
2, 16409, Note_on_c, 0, 67, 0
2, 16416, Note_on_c, 0, 72, 64
2, 16416, Note_on_c, 0, 68, 64
2, 16461, Note_on_c, 0, 72, 0
2, 16461, Note_on_c, 0, 68, 0
2, 16464, Note_on_c, 0, 70, 64
2, 16464, Note_on_c, 0, 67, 64
2, 16509, Note_on_c, 0, 70, 0
2, 16509, Note_on_c, 0, 67, 0
2, 16512, Note_on_c, 0, 68, 64
2, 16512, Note_on_c, 0, 65, 64
2, 16557, Note_on_c, 0, 68, 0
2, 16557, Note_on_c, 0, 65, 0
2, 16560, Note_on_c, 0, 67, 64
2, 16560, Note_on_c, 0, 63, 64
2, 16605, Note_on_c, 0, 67, 0
2, 16605, Note_on_c, 0, 63, 0
2, 16608, Note_on_c, 0, 65, 64
2, 16608, Note_on_c, 0, 60, 64
2, 16628, Note_on_c, 0, 65, 0
2, 16628, Note_on_c, 0, 60, 0
2, 16704, Note_on_c, 0, 65, 64
2, 16704, Note_on_c, 0, 60, 64
2, 16749, Note_on_c, 0, 65, 0
2, 16749, Note_on_c, 0, 60, 0
2, 16896, Note_on_c, 0, 80, 64
2, 16896, Note_on_c, 0, 77, 64
2, 16985, Note_on_c, 0, 80, 0
2, 16985, Note_on_c, 0, 77, 0
2, 16992, Note_on_c, 0, 82, 64
2, 16992, Note_on_c, 0, 79, 64
2, 17037, Note_on_c, 0, 82, 0
2, 17037, Note_on_c, 0, 79, 0
2, 17040, Note_on_c, 0, 80, 64
2, 17040, Note_on_c, 0, 77, 64
2, 17085, Note_on_c, 0, 80, 0
2, 17085, Note_on_c, 0, 77, 0
2, 17088, Note_on_c, 0, 79, 64
2, 17088, Note_on_c, 0, 75, 64
2, 17133, Note_on_c, 0, 79, 0
2, 17133, Note_on_c, 0, 75, 0
2, 17136, Note_on_c, 0, 77, 64
2, 17136, Note_on_c, 0, 74, 64
2, 17181, Note_on_c, 0, 77, 0
2, 17181, Note_on_c, 0, 74, 0
2, 17184, Note_on_c, 0, 75, 64
2, 17204, Note_on_c, 0, 75, 0
2, 17280, Note_on_c, 0, 75, 64
2, 17325, Note_on_c, 0, 75, 0
2, 17448, Note_on_c, 0, 87, 80
2, 17471, Note_on_c, 0, 87, 0
2, 17472, Note_on_c, 0, 89, 80
2, 17484, Note_on_c, 0, 89, 0
2, 17484, Note_on_c, 0, 87, 80
2, 17496, Note_on_c, 0, 87, 0
2, 17496, Note_on_c, 0, 86, 80
2, 17508, Note_on_c, 0, 86, 0
2, 17508, Note_on_c, 0, 87, 96
2, 17568, Note_on_c, 0, 87, 0
2, 17568, Note_on_c, 0, 89, 80
2, 17598, Note_on_c, 0, 89, 0
2, 17600, Note_on_c, 0, 87, 80
2, 17630, Note_on_c, 0, 87, 0
2, 17632, Note_on_c, 0, 86, 80
2, 17662, Note_on_c, 0, 86, 0
2, 17664, Note_on_c, 0, 84, 80
2, 17694, Note_on_c, 0, 84, 0
2, 17696, Note_on_c, 0, 82, 80
2, 17726, Note_on_c, 0, 82, 0
2, 17728, Note_on_c, 0, 81, 80
2, 17758, Note_on_c, 0, 81, 0
2, 17760, Note_on_c, 0, 79, 80
2, 17790, Note_on_c, 0, 79, 0
2, 17792, Note_on_c, 0, 77, 80
2, 17822, Note_on_c, 0, 77, 0
2, 17824, Note_on_c, 0, 75, 80
2, 17854, Note_on_c, 0, 75, 0
2, 17856, Note_on_c, 0, 74, 80
2, 17886, Note_on_c, 0, 74, 0
2, 17888, Note_on_c, 0, 72, 80
2, 17918, Note_on_c, 0, 72, 0
2, 17920, Note_on_c, 0, 70, 80
2, 17950, Note_on_c, 0, 70, 0
2, 17952, Note_on_c, 0, 69, 80
2, 17982, Note_on_c, 0, 69, 0
2, 17984, Note_on_c, 0, 67, 80
2, 18014, Note_on_c, 0, 67, 0
2, 18016, Note_on_c, 0, 65, 80
2, 18046, Note_on_c, 0, 65, 0
2, 18048, Note_on_c, 0, 63, 80
2, 18078, Note_on_c, 0, 63, 0
2, 18080, Note_on_c, 0, 62, 80
2, 18110, Note_on_c, 0, 62, 0
2, 18112, Note_on_c, 0, 60, 80
2, 18142, Note_on_c, 0, 60, 0
2, 18144, Note_on_c, 0, 59, 80
2, 18174, Note_on_c, 0, 59, 0
2, 18176, Note_on_c, 0, 62, 80
2, 18206, Note_on_c, 0, 62, 0
2, 18208, Note_on_c, 0, 59, 80
2, 18238, Note_on_c, 0, 59, 0
2, 18240, Note_on_c, 0, 60, 80
2, 18270, Note_on_c, 0, 60, 0
2, 18272, Note_on_c, 0, 63, 80
2, 18302, Note_on_c, 0, 63, 0
2, 18304, Note_on_c, 0, 60, 80
2, 18334, Note_on_c, 0, 60, 0
2, 18336, Note_on_c, 0, 53, 80
2, 18366, Note_on_c, 0, 53, 0
2, 18368, Note_on_c, 0, 57, 80
2, 18398, Note_on_c, 0, 57, 0
2, 18400, Note_on_c, 0, 53, 80
2, 18430, Note_on_c, 0, 53, 0
2, 18432, Note_on_c, 0, 58, 80
2, 18521, Note_on_c, 0, 58, 0
2, 18624, Note_on_c, 0, 70, 64
2, 18654, Note_on_c, 0, 70, 0
2, 18656, Note_on_c, 0, 74, 64
2, 18686, Note_on_c, 0, 74, 0
2, 18688, Note_on_c, 0, 70, 64
2, 18718, Note_on_c, 0, 70, 0
2, 18720, Note_on_c, 0, 72, 64
2, 18750, Note_on_c, 0, 72, 0
2, 18752, Note_on_c, 0, 75, 65
2, 18782, Note_on_c, 0, 75, 0
2, 18784, Note_on_c, 0, 72, 66
2, 18814, Note_on_c, 0, 72, 0
2, 18816, Note_on_c, 0, 74, 67
2, 18846, Note_on_c, 0, 74, 0
2, 18848, Note_on_c, 0, 77, 68
2, 18878, Note_on_c, 0, 77, 0
2, 18880, Note_on_c, 0, 74, 69
2, 18910, Note_on_c, 0, 74, 0
2, 18912, Note_on_c, 0, 75, 70
2, 18942, Note_on_c, 0, 75, 0
2, 18944, Note_on_c, 0, 79, 72
2, 18974, Note_on_c, 0, 79, 0
2, 18976, Note_on_c, 0, 75, 73
2, 19006, Note_on_c, 0, 75, 0
2, 19008, Note_on_c, 0, 80, 75
2, 19008, Note_on_c, 0, 77, 75
2, 19047, Note_on_c, 0, 80, 0
2, 19047, Note_on_c, 0, 77, 0
2, 19200, Note_on_c, 0, 75, 70
2, 19230, Note_on_c, 0, 75, 0
2, 19232, Note_on_c, 0, 79, 70
2, 19262, Note_on_c, 0, 79, 0
2, 19264, Note_on_c, 0, 75, 71
2, 19294, Note_on_c, 0, 75, 0
2, 19296, Note_on_c, 0, 77, 72
2, 19326, Note_on_c, 0, 77, 0
2, 19328, Note_on_c, 0, 80, 73
2, 19358, Note_on_c, 0, 80, 0
2, 19360, Note_on_c, 0, 77, 73
2, 19390, Note_on_c, 0, 77, 0
2, 19392, Note_on_c, 0, 79, 74
2, 19422, Note_on_c, 0, 79, 0
2, 19424, Note_on_c, 0, 82, 75
2, 19454, Note_on_c, 0, 82, 0
2, 19456, Note_on_c, 0, 79, 76
2, 19486, Note_on_c, 0, 79, 0
2, 19488, Note_on_c, 0, 80, 77
2, 19518, Note_on_c, 0, 80, 0
2, 19520, Note_on_c, 0, 84, 77
2, 19550, Note_on_c, 0, 84, 0
2, 19552, Note_on_c, 0, 80, 78
2, 19582, Note_on_c, 0, 80, 0
2, 19584, Note_on_c, 0, 85, 80
2, 19614, Note_on_c, 0, 85, 0
2, 19616, Note_on_c, 0, 84, 80
2, 19646, Note_on_c, 0, 84, 0
2, 19648, Note_on_c, 0, 82, 80
2, 19678, Note_on_c, 0, 82, 0
2, 19680, Note_on_c, 0, 80, 80
2, 19710, Note_on_c, 0, 80, 0
2, 19712, Note_on_c, 0, 79, 80
2, 19742, Note_on_c, 0, 79, 0
2, 19744, Note_on_c, 0, 77, 80
2, 19774, Note_on_c, 0, 77, 0
2, 19776, Note_on_c, 0, 75, 80
2, 19806, Note_on_c, 0, 75, 0
2, 19808, Note_on_c, 0, 77, 80
2, 19838, Note_on_c, 0, 77, 0
2, 19840, Note_on_c, 0, 73, 80
2, 19870, Note_on_c, 0, 73, 0
2, 19968, Note_on_c, 0, 84, 80
2, 20007, Note_on_c, 0, 84, 0
2, 20064, Note_on_c, 0, 84, 80
2, 20103, Note_on_c, 0, 84, 0
2, 20256, Note_on_c, 0, 83, 80
2, 20268, Note_on_c, 0, 83, 0
2, 20268, Note_on_c, 0, 84, 80
2, 20295, Note_on_c, 0, 84, 0
2, 20352, Note_on_c, 0, 83, 80
2, 20364, Note_on_c, 0, 83, 0
2, 20364, Note_on_c, 0, 84, 80
2, 20391, Note_on_c, 0, 84, 0
2, 20448, Note_on_c, 0, 72, 80
2, 20478, Note_on_c, 0, 72, 0
2, 20480, Note_on_c, 0, 84, 79
2, 20510, Note_on_c, 0, 84, 0
2, 20512, Note_on_c, 0, 82, 78
2, 20542, Note_on_c, 0, 82, 0
2, 20544, Note_on_c, 0, 80, 77
2, 20574, Note_on_c, 0, 80, 0
2, 20576, Note_on_c, 0, 79, 77
2, 20606, Note_on_c, 0, 79, 0
2, 20608, Note_on_c, 0, 77, 76
2, 20638, Note_on_c, 0, 77, 0
2, 20640, Note_on_c, 0, 76, 75
2, 20670, Note_on_c, 0, 76, 0
2, 20672, Note_on_c, 0, 77, 75
2, 20702, Note_on_c, 0, 77, 0
2, 20704, Note_on_c, 0, 84, 74
2, 20734, Note_on_c, 0, 84, 0
2, 20736, Note_on_c, 0, 75, 73
2, 20832, Note_on_c, 0, 75, 0
2, 20832, Note_on_c, 0, 74, 71
2, 20852, Note_on_c, 0, 74, 0
2, 20928, Note_on_c, 0, 70, 64
2, 20928, Note_on_c, 0, 67, 64
2, 21017, Note_on_c, 0, 70, 0
2, 21017, Note_on_c, 0, 67, 0
2, 21024, Note_on_c, 0, 72, 64
2, 21024, Note_on_c, 0, 68, 64
2, 21069, Note_on_c, 0, 72, 0
2, 21069, Note_on_c, 0, 68, 0
2, 21072, Note_on_c, 0, 70, 64
2, 21072, Note_on_c, 0, 67, 64
2, 21117, Note_on_c, 0, 70, 0
2, 21117, Note_on_c, 0, 67, 0
2, 21120, Note_on_c, 0, 68, 64
2, 21120, Note_on_c, 0, 65, 64
2, 21165, Note_on_c, 0, 68, 0
2, 21165, Note_on_c, 0, 65, 0
2, 21168, Note_on_c, 0, 67, 64
2, 21168, Note_on_c, 0, 63, 64
2, 21213, Note_on_c, 0, 67, 0
2, 21213, Note_on_c, 0, 63, 0
2, 21216, Note_on_c, 0, 65, 64
2, 21216, Note_on_c, 0, 60, 64
2, 21236, Note_on_c, 0, 65, 0
2, 21236, Note_on_c, 0, 60, 0
2, 21312, Note_on_c, 0, 65, 64
2, 21312, Note_on_c, 0, 60, 64
2, 21357, Note_on_c, 0, 65, 0
2, 21357, Note_on_c, 0, 60, 0
2, 21504, Note_on_c, 0, 80, 64
2, 21504, Note_on_c, 0, 77, 64
2, 21593, Note_on_c, 0, 80, 0
2, 21593, Note_on_c, 0, 77, 0
2, 21600, Note_on_c, 0, 82, 64
2, 21600, Note_on_c, 0, 79, 64
2, 21645, Note_on_c, 0, 82, 0
2, 21645, Note_on_c, 0, 79, 0
2, 21648, Note_on_c, 0, 80, 64
2, 21648, Note_on_c, 0, 77, 64
2, 21693, Note_on_c, 0, 80, 0
2, 21693, Note_on_c, 0, 77, 0
2, 21696, Note_on_c, 0, 79, 64
2, 21696, Note_on_c, 0, 75, 64
2, 21741, Note_on_c, 0, 79, 0
2, 21741, Note_on_c, 0, 75, 0
2, 21744, Note_on_c, 0, 77, 64
2, 21744, Note_on_c, 0, 74, 64
2, 21789, Note_on_c, 0, 77, 0
2, 21789, Note_on_c, 0, 74, 0
2, 21792, Note_on_c, 0, 75, 64
2, 21812, Note_on_c, 0, 75, 0
2, 21888, Note_on_c, 0, 75, 64
2, 21933, Note_on_c, 0, 75, 0
2, 22080, Note_on_c, 0, 47, 80
2, 22169, Note_on_c, 0, 47, 0
2, 22176, Note_on_c, 0, 48, 80
2, 22206, Note_on_c, 0, 48, 0
2, 22208, Note_on_c, 0, 50, 80
2, 22238, Note_on_c, 0, 50, 0
2, 22240, Note_on_c, 0, 51, 80
2, 22270, Note_on_c, 0, 51, 0
2, 22272, Note_on_c, 0, 53, 80
2, 22302, Note_on_c, 0, 53, 0
2, 22304, Note_on_c, 0, 55, 80
2, 22334, Note_on_c, 0, 55, 0
2, 22336, Note_on_c, 0, 56, 80
2, 22366, Note_on_c, 0, 56, 0
2, 22368, Note_on_c, 0, 58, 80
2, 22398, Note_on_c, 0, 58, 0
2, 22400, Note_on_c, 0, 60, 80
2, 22430, Note_on_c, 0, 60, 0
2, 22432, Note_on_c, 0, 62, 80
2, 22462, Note_on_c, 0, 62, 0
2, 22464, Note_on_c, 0, 63, 80
2, 22487, Note_on_c, 0, 63, 0
2, 22488, Note_on_c, 0, 65, 80
2, 22511, Note_on_c, 0, 65, 0
2, 22512, Note_on_c, 0, 67, 80
2, 22535, Note_on_c, 0, 67, 0
2, 22536, Note_on_c, 0, 68, 81
2, 22559, Note_on_c, 0, 68, 0
2, 22560, Note_on_c, 0, 70, 81
2, 22583, Note_on_c, 0, 70, 0
2, 22584, Note_on_c, 0, 72, 82
2, 22607, Note_on_c, 0, 72, 0
2, 22608, Note_on_c, 0, 74, 82
2, 22631, Note_on_c, 0, 74, 0
2, 22632, Note_on_c, 0, 75, 83
2, 22655, Note_on_c, 0, 75, 0
2, 22656, Note_on_c, 0, 77, 83
2, 22679, Note_on_c, 0, 77, 0
2, 22680, Note_on_c, 0, 79, 84
2, 22703, Note_on_c, 0, 79, 0
2, 22704, Note_on_c, 0, 75, 84
2, 22727, Note_on_c, 0, 75, 0
2, 22728, Note_on_c, 0, 74, 85
2, 22751, Note_on_c, 0, 74, 0
2, 22752, Note_on_c, 0, 72, 85
2, 22782, Note_on_c, 0, 72, 0
2, 22784, Note_on_c, 0, 70, 85
2, 22814, Note_on_c, 0, 70, 0
2, 22816, Note_on_c, 0, 68, 84
2, 22846, Note_on_c, 0, 68, 0
2, 22848, Note_on_c, 0, 67, 84
2, 22878, Note_on_c, 0, 67, 0
2, 22880, Note_on_c, 0, 65, 83
2, 22910, Note_on_c, 0, 65, 0
2, 22912, Note_on_c, 0, 63, 83
2, 22942, Note_on_c, 0, 63, 0
2, 22944, Note_on_c, 0, 62, 82
2, 22974, Note_on_c, 0, 62, 0
2, 22976, Note_on_c, 0, 70, 81
2, 23006, Note_on_c, 0, 70, 0
2, 23008, Note_on_c, 0, 62, 81
2, 23038, Note_on_c, 0, 62, 0
2, 23040, Note_on_c, 0, 63, 80
2, 23129, Note_on_c, 0, 63, 0
2, 23232, Note_on_c, 0, 70, 64
2, 23262, Note_on_c, 0, 70, 0
2, 23264, Note_on_c, 0, 74, 64
2, 23294, Note_on_c, 0, 74, 0
2, 23296, Note_on_c, 0, 70, 64
2, 23326, Note_on_c, 0, 70, 0
2, 23328, Note_on_c, 0, 72, 64
2, 23358, Note_on_c, 0, 72, 0
2, 23360, Note_on_c, 0, 75, 65
2, 23390, Note_on_c, 0, 75, 0
2, 23392, Note_on_c, 0, 72, 66
2, 23422, Note_on_c, 0, 72, 0
2, 23424, Note_on_c, 0, 74, 67
2, 23454, Note_on_c, 0, 74, 0
2, 23456, Note_on_c, 0, 77, 68
2, 23486, Note_on_c, 0, 77, 0
2, 23488, Note_on_c, 0, 74, 69
2, 23518, Note_on_c, 0, 74, 0
2, 23520, Note_on_c, 0, 75, 70
2, 23550, Note_on_c, 0, 75, 0
2, 23552, Note_on_c, 0, 79, 72
2, 23582, Note_on_c, 0, 79, 0
2, 23584, Note_on_c, 0, 75, 73
2, 23614, Note_on_c, 0, 75, 0
2, 23616, Note_on_c, 0, 80, 75
2, 23616, Note_on_c, 0, 77, 75
2, 23655, Note_on_c, 0, 80, 0
2, 23655, Note_on_c, 0, 77, 0
2, 23808, Note_on_c, 0, 75, 70
2, 23838, Note_on_c, 0, 75, 0
2, 23840, Note_on_c, 0, 79, 70
2, 23870, Note_on_c, 0, 79, 0
2, 23872, Note_on_c, 0, 75, 71
2, 23902, Note_on_c, 0, 75, 0
2, 23904, Note_on_c, 0, 77, 72
2, 23934, Note_on_c, 0, 77, 0
2, 23936, Note_on_c, 0, 80, 73
2, 23966, Note_on_c, 0, 80, 0
2, 23968, Note_on_c, 0, 77, 73
2, 23998, Note_on_c, 0, 77, 0
2, 24000, Note_on_c, 0, 79, 74
2, 24030, Note_on_c, 0, 79, 0
2, 24032, Note_on_c, 0, 82, 75
2, 24062, Note_on_c, 0, 82, 0
2, 24064, Note_on_c, 0, 79, 76
2, 24094, Note_on_c, 0, 79, 0
2, 24096, Note_on_c, 0, 80, 77
2, 24126, Note_on_c, 0, 80, 0
2, 24128, Note_on_c, 0, 84, 77
2, 24158, Note_on_c, 0, 84, 0
2, 24160, Note_on_c, 0, 80, 78
2, 24190, Note_on_c, 0, 80, 0
2, 24192, Note_on_c, 0, 85, 80
2, 24222, Note_on_c, 0, 85, 0
2, 24224, Note_on_c, 0, 84, 80
2, 24254, Note_on_c, 0, 84, 0
2, 24256, Note_on_c, 0, 82, 80
2, 24286, Note_on_c, 0, 82, 0
2, 24288, Note_on_c, 0, 80, 80
2, 24318, Note_on_c, 0, 80, 0
2, 24320, Note_on_c, 0, 79, 80
2, 24350, Note_on_c, 0, 79, 0
2, 24352, Note_on_c, 0, 77, 80
2, 24382, Note_on_c, 0, 77, 0
2, 24384, Note_on_c, 0, 75, 80
2, 24414, Note_on_c, 0, 75, 0
2, 24416, Note_on_c, 0, 77, 80
2, 24446, Note_on_c, 0, 77, 0
2, 24448, Note_on_c, 0, 73, 80
2, 24478, Note_on_c, 0, 73, 0
2, 24576, Note_on_c, 0, 84, 80
2, 24615, Note_on_c, 0, 84, 0
2, 24672, Note_on_c, 0, 84, 80
2, 24711, Note_on_c, 0, 84, 0
2, 24864, Note_on_c, 0, 83, 80
2, 24876, Note_on_c, 0, 83, 0
2, 24876, Note_on_c, 0, 84, 80
2, 24903, Note_on_c, 0, 84, 0
2, 24960, Note_on_c, 0, 83, 80
2, 24972, Note_on_c, 0, 83, 0
2, 24972, Note_on_c, 0, 84, 80
2, 24999, Note_on_c, 0, 84, 0
2, 25056, Note_on_c, 0, 72, 80
2, 25086, Note_on_c, 0, 72, 0
2, 25088, Note_on_c, 0, 84, 79
2, 25118, Note_on_c, 0, 84, 0
2, 25120, Note_on_c, 0, 82, 78
2, 25150, Note_on_c, 0, 82, 0
2, 25152, Note_on_c, 0, 80, 77
2, 25182, Note_on_c, 0, 80, 0
2, 25184, Note_on_c, 0, 79, 77
2, 25214, Note_on_c, 0, 79, 0
2, 25216, Note_on_c, 0, 77, 76
2, 25246, Note_on_c, 0, 77, 0
2, 25248, Note_on_c, 0, 76, 75
2, 25278, Note_on_c, 0, 76, 0
2, 25280, Note_on_c, 0, 77, 75
2, 25310, Note_on_c, 0, 77, 0
2, 25312, Note_on_c, 0, 84, 74
2, 25342, Note_on_c, 0, 84, 0
2, 25344, Note_on_c, 0, 75, 73
2, 25440, Note_on_c, 0, 75, 0
2, 25440, Note_on_c, 0, 74, 71
2, 25460, Note_on_c, 0, 74, 0
2, 25536, Note_on_c, 0, 70, 64
2, 25536, Note_on_c, 0, 67, 64
2, 25625, Note_on_c, 0, 70, 0
2, 25625, Note_on_c, 0, 67, 0
2, 25632, Note_on_c, 0, 72, 64
2, 25632, Note_on_c, 0, 68, 64
2, 25677, Note_on_c, 0, 72, 0
2, 25677, Note_on_c, 0, 68, 0
2, 25680, Note_on_c, 0, 70, 64
2, 25680, Note_on_c, 0, 67, 64
2, 25725, Note_on_c, 0, 70, 0
2, 25725, Note_on_c, 0, 67, 0
2, 25728, Note_on_c, 0, 68, 64
2, 25728, Note_on_c, 0, 65, 64
2, 25773, Note_on_c, 0, 68, 0
2, 25773, Note_on_c, 0, 65, 0
2, 25776, Note_on_c, 0, 67, 64
2, 25776, Note_on_c, 0, 63, 64
2, 25821, Note_on_c, 0, 67, 0
2, 25821, Note_on_c, 0, 63, 0
2, 25824, Note_on_c, 0, 65, 64
2, 25824, Note_on_c, 0, 60, 64
2, 25844, Note_on_c, 0, 65, 0
2, 25844, Note_on_c, 0, 60, 0
2, 25920, Note_on_c, 0, 65, 64
2, 25920, Note_on_c, 0, 60, 64
2, 25965, Note_on_c, 0, 65, 0
2, 25965, Note_on_c, 0, 60, 0
2, 26112, Note_on_c, 0, 80, 64
2, 26112, Note_on_c, 0, 77, 64
2, 26201, Note_on_c, 0, 80, 0
2, 26201, Note_on_c, 0, 77, 0
2, 26208, Note_on_c, 0, 82, 64
2, 26208, Note_on_c, 0, 79, 64
2, 26253, Note_on_c, 0, 82, 0
2, 26253, Note_on_c, 0, 79, 0
2, 26256, Note_on_c, 0, 80, 64
2, 26256, Note_on_c, 0, 77, 64
2, 26301, Note_on_c, 0, 80, 0
2, 26301, Note_on_c, 0, 77, 0
2, 26304, Note_on_c, 0, 79, 64
2, 26304, Note_on_c, 0, 75, 64
2, 26349, Note_on_c, 0, 79, 0
2, 26349, Note_on_c, 0, 75, 0
2, 26352, Note_on_c, 0, 77, 64
2, 26352, Note_on_c, 0, 74, 64
2, 26397, Note_on_c, 0, 77, 0
2, 26397, Note_on_c, 0, 74, 0
2, 26400, Note_on_c, 0, 75, 64
2, 26420, Note_on_c, 0, 75, 0
2, 26496, Note_on_c, 0, 75, 64
2, 26541, Note_on_c, 0, 75, 0
2, 26688, Note_on_c, 0, 47, 80
2, 26777, Note_on_c, 0, 47, 0
2, 26784, Note_on_c, 0, 48, 80
2, 26814, Note_on_c, 0, 48, 0
2, 26816, Note_on_c, 0, 50, 80
2, 26846, Note_on_c, 0, 50, 0
2, 26848, Note_on_c, 0, 51, 80
2, 26878, Note_on_c, 0, 51, 0
2, 26880, Note_on_c, 0, 53, 80
2, 26910, Note_on_c, 0, 53, 0
2, 26912, Note_on_c, 0, 55, 80
2, 26942, Note_on_c, 0, 55, 0
2, 26944, Note_on_c, 0, 56, 80
2, 26974, Note_on_c, 0, 56, 0
2, 26976, Note_on_c, 0, 58, 80
2, 27006, Note_on_c, 0, 58, 0
2, 27008, Note_on_c, 0, 60, 80
2, 27038, Note_on_c, 0, 60, 0
2, 27040, Note_on_c, 0, 62, 80
2, 27070, Note_on_c, 0, 62, 0
2, 27072, Note_on_c, 0, 63, 80
2, 27095, Note_on_c, 0, 63, 0
2, 27096, Note_on_c, 0, 65, 80
2, 27119, Note_on_c, 0, 65, 0
2, 27120, Note_on_c, 0, 67, 80
2, 27143, Note_on_c, 0, 67, 0
2, 27144, Note_on_c, 0, 68, 81
2, 27167, Note_on_c, 0, 68, 0
2, 27168, Note_on_c, 0, 70, 81
2, 27191, Note_on_c, 0, 70, 0
2, 27192, Note_on_c, 0, 72, 82
2, 27215, Note_on_c, 0, 72, 0
2, 27216, Note_on_c, 0, 74, 82
2, 27239, Note_on_c, 0, 74, 0
2, 27240, Note_on_c, 0, 75, 83
2, 27263, Note_on_c, 0, 75, 0
2, 27264, Note_on_c, 0, 77, 83
2, 27287, Note_on_c, 0, 77, 0
2, 27288, Note_on_c, 0, 79, 84
2, 27311, Note_on_c, 0, 79, 0
2, 27312, Note_on_c, 0, 75, 84
2, 27335, Note_on_c, 0, 75, 0
2, 27336, Note_on_c, 0, 74, 85
2, 27359, Note_on_c, 0, 74, 0
2, 27360, Note_on_c, 0, 72, 85
2, 27390, Note_on_c, 0, 72, 0
2, 27392, Note_on_c, 0, 70, 85
2, 27422, Note_on_c, 0, 70, 0
2, 27424, Note_on_c, 0, 68, 84
2, 27454, Note_on_c, 0, 68, 0
2, 27456, Note_on_c, 0, 67, 84
2, 27486, Note_on_c, 0, 67, 0
2, 27488, Note_on_c, 0, 65, 83
2, 27518, Note_on_c, 0, 65, 0
2, 27520, Note_on_c, 0, 63, 83
2, 27550, Note_on_c, 0, 63, 0
2, 27552, Note_on_c, 0, 62, 82
2, 27582, Note_on_c, 0, 62, 0
2, 27584, Note_on_c, 0, 70, 81
2, 27614, Note_on_c, 0, 70, 0
2, 27616, Note_on_c, 0, 62, 81
2, 27646, Note_on_c, 0, 62, 0
2, 27648, Note_on_c, 0, 63, 80
2, 27737, Note_on_c, 0, 63, 0
2, 27840, Note_on_c, 0, 70, 64
2, 27840, Note_on_c, 0, 67, 64
2, 27936, Note_on_c, 0, 70, 0
2, 27936, Note_on_c, 0, 67, 0
2, 27936, Note_on_c, 0, 72, 64
2, 27936, Note_on_c, 0, 68, 64
2, 27981, Note_on_c, 0, 72, 0
2, 27981, Note_on_c, 0, 68, 0
2, 27984, Note_on_c, 0, 70, 64
2, 27984, Note_on_c, 0, 67, 64
2, 28029, Note_on_c, 0, 70, 0
2, 28029, Note_on_c, 0, 67, 0
2, 28032, Note_on_c, 0, 68, 64
2, 28032, Note_on_c, 0, 65, 64
2, 28077, Note_on_c, 0, 68, 0
2, 28077, Note_on_c, 0, 65, 0
2, 28080, Note_on_c, 0, 67, 64
2, 28080, Note_on_c, 0, 63, 64
2, 28125, Note_on_c, 0, 67, 0
2, 28125, Note_on_c, 0, 63, 0
2, 28128, Note_on_c, 0, 65, 64
2, 28128, Note_on_c, 0, 63, 64
2, 28148, Note_on_c, 0, 65, 0
2, 28148, Note_on_c, 0, 63, 0
2, 28224, Note_on_c, 0, 65, 64
2, 28224, Note_on_c, 0, 63, 64
2, 28269, Note_on_c, 0, 65, 0
2, 28269, Note_on_c, 0, 63, 0
2, 28416, Note_on_c, 0, 63, 64
2, 28416, Note_on_c, 0, 60, 64
2, 28505, Note_on_c, 0, 63, 0
2, 28505, Note_on_c, 0, 60, 0
2, 28512, Note_on_c, 0, 62, 64
2, 28512, Note_on_c, 0, 58, 64
2, 28557, Note_on_c, 0, 62, 0
2, 28557, Note_on_c, 0, 58, 0
2, 28560, Note_on_c, 0, 63, 64
2, 28560, Note_on_c, 0, 60, 64
2, 28605, Note_on_c, 0, 63, 0
2, 28605, Note_on_c, 0, 60, 0
2, 28608, Note_on_c, 0, 65, 64
2, 28608, Note_on_c, 0, 62, 64
2, 28653, Note_on_c, 0, 65, 0
2, 28653, Note_on_c, 0, 62, 0
2, 28656, Note_on_c, 0, 67, 64
2, 28656, Note_on_c, 0, 63, 64
2, 28701, Note_on_c, 0, 67, 0
2, 28701, Note_on_c, 0, 63, 0
2, 28704, Note_on_c, 0, 65, 64
2, 28704, Note_on_c, 0, 62, 64
2, 28724, Note_on_c, 0, 65, 0
2, 28724, Note_on_c, 0, 62, 0
2, 28800, Note_on_c, 0, 65, 64
2, 28800, Note_on_c, 0, 62, 64
2, 28845, Note_on_c, 0, 65, 0
2, 28845, Note_on_c, 0, 62, 0
2, 28992, Note_on_c, 0, 70, 80
2, 29088, Note_on_c, 0, 70, 0
2, 29088, Note_on_c, 0, 75, 80
2, 29108, Note_on_c, 0, 75, 0
2, 29184, Note_on_c, 0, 75, 80
2, 29204, Note_on_c, 0, 75, 0
2, 29256, Note_on_c, 0, 77, 80
2, 29264, Note_on_c, 0, 77, 0
2, 29264, Note_on_c, 0, 75, 80
2, 29272, Note_on_c, 0, 75, 0
2, 29272, Note_on_c, 0, 74, 80
2, 29280, Note_on_c, 0, 74, 0
2, 29280, Note_on_c, 0, 75, 80
2, 29352, Note_on_c, 0, 75, 0
2, 29352, Note_on_c, 0, 77, 80
2, 29375, Note_on_c, 0, 77, 0
2, 29376, Note_on_c, 0, 74, 80
2, 29396, Note_on_c, 0, 74, 0
2, 29472, Note_on_c, 0, 74, 80
2, 29492, Note_on_c, 0, 74, 0
2, 29568, Note_on_c, 0, 74, 80
2, 29598, Note_on_c, 0, 74, 0
2, 29600, Note_on_c, 0, 77, 80
2, 29630, Note_on_c, 0, 77, 0
2, 29632, Note_on_c, 0, 80, 80
2, 29662, Note_on_c, 0, 80, 0
2, 29664, Note_on_c, 0, 84, 96
2, 29696, Note_on_c, 0, 84, 0
2, 29696, Note_on_c, 0, 82, 80
2, 29726, Note_on_c, 0, 82, 0
2, 29728, Note_on_c, 0, 80, 80
2, 29758, Note_on_c, 0, 80, 0
2, 29760, Note_on_c, 0, 79, 80
2, 29790, Note_on_c, 0, 79, 0
2, 29792, Note_on_c, 0, 77, 80
2, 29822, Note_on_c, 0, 77, 0
2, 29824, Note_on_c, 0, 75, 80
2, 29854, Note_on_c, 0, 75, 0
2, 29856, Note_on_c, 0, 74, 80
2, 29886, Note_on_c, 0, 74, 0
2, 29888, Note_on_c, 0, 80, 80
2, 29918, Note_on_c, 0, 80, 0
2, 29920, Note_on_c, 0, 74, 80
2, 29950, Note_on_c, 0, 74, 0
2, 29952, Note_on_c, 0, 75, 80
2, 29972, Note_on_c, 0, 75, 0
2, 30048, Note_on_c, 0, 75, 80
2, 30068, Note_on_c, 0, 75, 0
2, 30120, Note_on_c, 0, 77, 80
2, 30128, Note_on_c, 0, 77, 0
2, 30128, Note_on_c, 0, 75, 80
2, 30136, Note_on_c, 0, 75, 0
2, 30136, Note_on_c, 0, 74, 80
2, 30144, Note_on_c, 0, 74, 0
2, 30144, Note_on_c, 0, 75, 80
2, 30214, Note_on_c, 0, 75, 0
2, 30216, Note_on_c, 0, 79, 80
2, 30239, Note_on_c, 0, 79, 0
2, 30240, Note_on_c, 0, 71, 80
2, 30260, Note_on_c, 0, 71, 0
2, 30336, Note_on_c, 0, 71, 80
2, 30356, Note_on_c, 0, 71, 0
2, 30432, Note_on_c, 0, 71, 96
2, 30528, Note_on_c, 0, 71, 0
2, 30528, Note_on_c, 0, 72, 80
2, 30558, Note_on_c, 0, 72, 0
2, 30560, Note_on_c, 0, 75, 81
2, 30590, Note_on_c, 0, 75, 0
2, 30592, Note_on_c, 0, 74, 82
2, 30622, Note_on_c, 0, 74, 0
2, 30624, Note_on_c, 0, 72, 84
2, 30654, Note_on_c, 0, 72, 0
2, 30656, Note_on_c, 0, 79, 85
2, 30686, Note_on_c, 0, 79, 0
2, 30688, Note_on_c, 0, 77, 85
2, 30718, Note_on_c, 0, 77, 0
2, 30720, Note_on_c, 0, 75, 84
2, 30750, Note_on_c, 0, 75, 0
2, 30752, Note_on_c, 0, 74, 82
2, 30782, Note_on_c, 0, 74, 0
2, 30784, Note_on_c, 0, 72, 81
2, 30814, Note_on_c, 0, 72, 0
2, 30816, Note_on_c, 0, 70, 80
2, 30869, Note_on_c, 0, 70, 0
2, 30876, Note_on_c, 0, 72, 80
2, 30888, Note_on_c, 0, 72, 0
2, 30888, Note_on_c, 0, 70, 80
2, 30900, Note_on_c, 0, 70, 0
2, 30900, Note_on_c, 0, 69, 80
2, 30912, Note_on_c, 0, 69, 0
2, 30912, Note_on_c, 0, 70, 80
2, 30979, Note_on_c, 0, 70, 0
2, 30984, Note_on_c, 0, 74, 80
2, 31007, Note_on_c, 0, 74, 0
2, 31008, Note_on_c, 0, 72, 80
2, 31075, Note_on_c, 0, 72, 0
2, 31080, Note_on_c, 0, 69, 80
2, 31103, Note_on_c, 0, 69, 0
2, 31104, Note_on_c, 0, 70, 80
2, 31193, Note_on_c, 0, 70, 0
2, 31296, Note_on_c, 0, 70, 70
2, 31392, Note_on_c, 0, 70, 0
2, 31392, Note_on_c, 0, 75, 70
2, 31412, Note_on_c, 0, 75, 0
2, 31488, Note_on_c, 0, 75, 70
2, 31508, Note_on_c, 0, 75, 0
2, 31560, Note_on_c, 0, 77, 70
2, 31568, Note_on_c, 0, 77, 0
2, 31568, Note_on_c, 0, 75, 70
2, 31576, Note_on_c, 0, 75, 0
2, 31576, Note_on_c, 0, 74, 70
2, 31584, Note_on_c, 0, 74, 0
2, 31584, Note_on_c, 0, 75, 70
2, 31656, Note_on_c, 0, 75, 0
2, 31656, Note_on_c, 0, 77, 70
2, 31679, Note_on_c, 0, 77, 0
2, 31680, Note_on_c, 0, 74, 70
2, 31700, Note_on_c, 0, 74, 0
2, 31776, Note_on_c, 0, 74, 70
2, 31796, Note_on_c, 0, 74, 0
2, 31872, Note_on_c, 0, 74, 70
2, 31902, Note_on_c, 0, 74, 0
2, 31904, Note_on_c, 0, 77, 70
2, 31934, Note_on_c, 0, 77, 0
2, 31936, Note_on_c, 0, 80, 70
2, 31966, Note_on_c, 0, 80, 0
2, 31968, Note_on_c, 0, 83, 86
2, 32000, Note_on_c, 0, 83, 0
2, 32000, Note_on_c, 0, 82, 70
2, 32030, Note_on_c, 0, 82, 0
2, 32032, Note_on_c, 0, 80, 70
2, 32062, Note_on_c, 0, 80, 0
2, 32064, Note_on_c, 0, 78, 70
2, 32094, Note_on_c, 0, 78, 0
2, 32096, Note_on_c, 0, 77, 70
2, 32126, Note_on_c, 0, 77, 0
2, 32128, Note_on_c, 0, 75, 70
2, 32158, Note_on_c, 0, 75, 0
2, 32160, Note_on_c, 0, 74, 70
2, 32190, Note_on_c, 0, 74, 0
2, 32192, Note_on_c, 0, 77, 70
2, 32222, Note_on_c, 0, 77, 0
2, 32224, Note_on_c, 0, 74, 70
2, 32254, Note_on_c, 0, 74, 0
2, 32256, Note_on_c, 0, 75, 70
2, 32276, Note_on_c, 0, 75, 0
2, 32352, Note_on_c, 0, 75, 71
2, 32372, Note_on_c, 0, 75, 0
2, 32424, Note_on_c, 0, 75, 71
2, 32447, Note_on_c, 0, 75, 0
2, 32448, Note_on_c, 0, 77, 72
2, 32454, Note_on_c, 0, 77, 0
2, 32454, Note_on_c, 0, 75, 72
2, 32471, Note_on_c, 0, 75, 0
2, 32472, Note_on_c, 0, 74, 72
2, 32495, Note_on_c, 0, 74, 0
2, 32496, Note_on_c, 0, 75, 72
2, 32519, Note_on_c, 0, 75, 0
2, 32520, Note_on_c, 0, 77, 73
2, 32543, Note_on_c, 0, 77, 0
2, 32544, Note_on_c, 0, 78, 73
2, 32564, Note_on_c, 0, 78, 0
2, 32640, Note_on_c, 0, 78, 74
2, 32660, Note_on_c, 0, 78, 0
2, 32712, Note_on_c, 0, 78, 75
2, 32735, Note_on_c, 0, 78, 0
2, 32736, Note_on_c, 0, 80, 75
2, 32742, Note_on_c, 0, 80, 0
2, 32742, Note_on_c, 0, 78, 75
2, 32759, Note_on_c, 0, 78, 0
2, 32760, Note_on_c, 0, 77, 75
2, 32783, Note_on_c, 0, 77, 0
2, 32784, Note_on_c, 0, 78, 76
2, 32807, Note_on_c, 0, 78, 0
2, 32808, Note_on_c, 0, 80, 76
2, 32831, Note_on_c, 0, 80, 0
2, 32832, Note_on_c, 0, 82, 76
2, 32852, Note_on_c, 0, 82, 0
2, 32928, Note_on_c, 0, 82, 77
2, 32948, Note_on_c, 0, 82, 0
2, 33000, Note_on_c, 0, 82, 78
2, 33023, Note_on_c, 0, 82, 0
2, 33024, Note_on_c, 0, 83, 78
2, 33030, Note_on_c, 0, 83, 0
2, 33030, Note_on_c, 0, 82, 78
2, 33047, Note_on_c, 0, 82, 0
2, 33048, Note_on_c, 0, 80, 79
2, 33071, Note_on_c, 0, 80, 0
2, 33072, Note_on_c, 0, 82, 79
2, 33095, Note_on_c, 0, 82, 0
2, 33096, Note_on_c, 0, 83, 79
2, 33119, Note_on_c, 0, 83, 0
2, 33120, Note_on_c, 0, 85, 80
2, 33140, Note_on_c, 0, 85, 0
2, 33216, Note_on_c, 0, 85, 80
2, 33246, Note_on_c, 0, 85, 0
2, 33248, Note_on_c, 0, 87, 80
2, 33278, Note_on_c, 0, 87, 0
2, 33280, Note_on_c, 0, 85, 80
2, 33310, Note_on_c, 0, 85, 0
2, 33312, Note_on_c, 0, 83, 80
2, 33342, Note_on_c, 0, 83, 0
2, 33344, Note_on_c, 0, 82, 80
2, 33374, Note_on_c, 0, 82, 0
2, 33376, Note_on_c, 0, 80, 80
2, 33406, Note_on_c, 0, 80, 0
2, 33408, Note_on_c, 0, 78, 80
2, 33497, Note_on_c, 0, 78, 0
2, 33600, Note_on_c, 0, 70, 80
2, 33689, Note_on_c, 0, 70, 0
2, 33696, Note_on_c, 0, 75, 70
2, 33716, Note_on_c, 0, 75, 0
2, 33792, Note_on_c, 0, 75, 70
2, 33812, Note_on_c, 0, 75, 0
2, 33864, Note_on_c, 0, 77, 70
2, 33872, Note_on_c, 0, 77, 0
2, 33872, Note_on_c, 0, 75, 70
2, 33880, Note_on_c, 0, 75, 0
2, 33880, Note_on_c, 0, 74, 70
2, 33888, Note_on_c, 0, 74, 0
2, 33888, Note_on_c, 0, 75, 70
2, 33960, Note_on_c, 0, 75, 0
2, 33960, Note_on_c, 0, 77, 70
2, 33983, Note_on_c, 0, 77, 0
2, 33984, Note_on_c, 0, 74, 70
2, 34004, Note_on_c, 0, 74, 0
2, 34080, Note_on_c, 0, 74, 70
2, 34100, Note_on_c, 0, 74, 0
2, 34176, Note_on_c, 0, 74, 70
2, 34206, Note_on_c, 0, 74, 0
2, 34208, Note_on_c, 0, 77, 70
2, 34238, Note_on_c, 0, 77, 0
2, 34240, Note_on_c, 0, 80, 70
2, 34270, Note_on_c, 0, 80, 0
2, 34272, Note_on_c, 0, 83, 86
2, 34304, Note_on_c, 0, 83, 0
2, 34304, Note_on_c, 0, 82, 70
2, 34334, Note_on_c, 0, 82, 0
2, 34336, Note_on_c, 0, 80, 70
2, 34366, Note_on_c, 0, 80, 0
2, 34368, Note_on_c, 0, 78, 70
2, 34398, Note_on_c, 0, 78, 0
2, 34400, Note_on_c, 0, 77, 70
2, 34430, Note_on_c, 0, 77, 0
2, 34432, Note_on_c, 0, 75, 70
2, 34462, Note_on_c, 0, 75, 0
2, 34464, Note_on_c, 0, 74, 70
2, 34494, Note_on_c, 0, 74, 0
2, 34496, Note_on_c, 0, 77, 70
2, 34526, Note_on_c, 0, 77, 0
2, 34528, Note_on_c, 0, 74, 70
2, 34558, Note_on_c, 0, 74, 0
2, 34560, Note_on_c, 0, 75, 70
2, 34580, Note_on_c, 0, 75, 0
2, 34656, Note_on_c, 0, 75, 71
2, 34676, Note_on_c, 0, 75, 0
2, 34728, Note_on_c, 0, 75, 71
2, 34751, Note_on_c, 0, 75, 0
2, 34752, Note_on_c, 0, 77, 72
2, 34758, Note_on_c, 0, 77, 0
2, 34758, Note_on_c, 0, 75, 72
2, 34775, Note_on_c, 0, 75, 0
2, 34776, Note_on_c, 0, 74, 72
2, 34799, Note_on_c, 0, 74, 0
2, 34800, Note_on_c, 0, 75, 72
2, 34823, Note_on_c, 0, 75, 0
2, 34824, Note_on_c, 0, 77, 73
2, 34847, Note_on_c, 0, 77, 0
2, 34848, Note_on_c, 0, 78, 73
2, 34868, Note_on_c, 0, 78, 0
2, 34944, Note_on_c, 0, 78, 74
2, 34964, Note_on_c, 0, 78, 0
2, 35016, Note_on_c, 0, 78, 75
2, 35039, Note_on_c, 0, 78, 0
2, 35040, Note_on_c, 0, 80, 75
2, 35046, Note_on_c, 0, 80, 0
2, 35046, Note_on_c, 0, 78, 75
2, 35063, Note_on_c, 0, 78, 0
2, 35064, Note_on_c, 0, 77, 75
2, 35087, Note_on_c, 0, 77, 0
2, 35088, Note_on_c, 0, 78, 76
2, 35111, Note_on_c, 0, 78, 0
2, 35112, Note_on_c, 0, 80, 76
2, 35135, Note_on_c, 0, 80, 0
2, 35136, Note_on_c, 0, 82, 76
2, 35156, Note_on_c, 0, 82, 0
2, 35232, Note_on_c, 0, 82, 77
2, 35252, Note_on_c, 0, 82, 0
2, 35304, Note_on_c, 0, 82, 78
2, 35327, Note_on_c, 0, 82, 0
2, 35328, Note_on_c, 0, 83, 78
2, 35334, Note_on_c, 0, 83, 0
2, 35334, Note_on_c, 0, 82, 78
2, 35351, Note_on_c, 0, 82, 0
2, 35352, Note_on_c, 0, 80, 79
2, 35375, Note_on_c, 0, 80, 0
2, 35376, Note_on_c, 0, 82, 79
2, 35399, Note_on_c, 0, 82, 0
2, 35400, Note_on_c, 0, 83, 79
2, 35423, Note_on_c, 0, 83, 0
2, 35424, Note_on_c, 0, 85, 80
2, 35444, Note_on_c, 0, 85, 0
2, 35520, Note_on_c, 0, 85, 80
2, 35550, Note_on_c, 0, 85, 0
2, 35552, Note_on_c, 0, 87, 80
2, 35582, Note_on_c, 0, 87, 0
2, 35584, Note_on_c, 0, 85, 80
2, 35614, Note_on_c, 0, 85, 0
2, 35616, Note_on_c, 0, 83, 80
2, 35646, Note_on_c, 0, 83, 0
2, 35648, Note_on_c, 0, 82, 80
2, 35678, Note_on_c, 0, 82, 0
2, 35680, Note_on_c, 0, 80, 80
2, 35710, Note_on_c, 0, 80, 0
2, 35712, Note_on_c, 0, 78, 80
2, 35801, Note_on_c, 0, 78, 0
2, 35904, Note_on_c, 0, 70, 64
2, 35934, Note_on_c, 0, 70, 0
2, 35936, Note_on_c, 0, 78, 64
2, 35966, Note_on_c, 0, 78, 0
2, 35968, Note_on_c, 0, 82, 64
2, 35998, Note_on_c, 0, 82, 0
2, 36000, Note_on_c, 0, 80, 64
2, 36020, Note_on_c, 0, 80, 0
2, 36192, Note_on_c, 0, 70, 64
2, 36222, Note_on_c, 0, 70, 0
2, 36224, Note_on_c, 0, 77, 64
2, 36254, Note_on_c, 0, 77, 0
2, 36256, Note_on_c, 0, 80, 64
2, 36286, Note_on_c, 0, 80, 0
2, 36288, Note_on_c, 0, 78, 64
2, 36308, Note_on_c, 0, 78, 0
2, 36480, Note_on_c, 0, 66, 64
2, 36510, Note_on_c, 0, 66, 0
2, 36512, Note_on_c, 0, 75, 64
2, 36542, Note_on_c, 0, 75, 0
2, 36544, Note_on_c, 0, 78, 64
2, 36574, Note_on_c, 0, 78, 0
2, 36576, Note_on_c, 0, 76, 64
2, 36596, Note_on_c, 0, 76, 0
2, 36768, Note_on_c, 0, 66, 64
2, 36798, Note_on_c, 0, 66, 0
2, 36800, Note_on_c, 0, 73, 64
2, 36830, Note_on_c, 0, 73, 0
2, 36832, Note_on_c, 0, 76, 64
2, 36862, Note_on_c, 0, 76, 0
2, 36864, Note_on_c, 0, 75, 64
2, 36884, Note_on_c, 0, 75, 0
2, 37056, Note_on_c, 0, 63, 64
2, 37086, Note_on_c, 0, 63, 0
2, 37088, Note_on_c, 0, 71, 67
2, 37118, Note_on_c, 0, 71, 0
2, 37120, Note_on_c, 0, 75, 70
2, 37150, Note_on_c, 0, 75, 0
2, 37152, Note_on_c, 0, 62, 100
2, 37182, Note_on_c, 0, 62, 0
2, 37184, Note_on_c, 0, 71, 75
2, 37214, Note_on_c, 0, 71, 0
2, 37216, Note_on_c, 0, 74, 75
2, 37246, Note_on_c, 0, 74, 0
2, 37248, Note_on_c, 0, 62, 75
2, 37278, Note_on_c, 0, 62, 0
2, 37280, Note_on_c, 0, 71, 75
2, 37310, Note_on_c, 0, 71, 0
2, 37312, Note_on_c, 0, 74, 75
2, 37342, Note_on_c, 0, 74, 0
2, 37344, Note_on_c, 0, 63, 91
2, 37376, Note_on_c, 0, 63, 0
2, 37376, Note_on_c, 0, 71, 75
2, 37406, Note_on_c, 0, 71, 0
2, 37408, Note_on_c, 0, 75, 75
2, 37438, Note_on_c, 0, 75, 0
2, 37440, Note_on_c, 0, 62, 100
2, 37470, Note_on_c, 0, 62, 0
2, 37472, Note_on_c, 0, 71, 75
2, 37502, Note_on_c, 0, 71, 0
2, 37504, Note_on_c, 0, 74, 75
2, 37534, Note_on_c, 0, 74, 0
2, 37536, Note_on_c, 0, 62, 75
2, 37566, Note_on_c, 0, 62, 0
2, 37568, Note_on_c, 0, 71, 75
2, 37598, Note_on_c, 0, 71, 0
2, 37600, Note_on_c, 0, 74, 75
2, 37630, Note_on_c, 0, 74, 0
2, 37632, Note_on_c, 0, 65, 91
2, 37664, Note_on_c, 0, 65, 0
2, 37664, Note_on_c, 0, 74, 75
2, 37694, Note_on_c, 0, 74, 0
2, 37696, Note_on_c, 0, 77, 75
2, 37726, Note_on_c, 0, 77, 0
2, 37728, Note_on_c, 0, 66, 91
2, 37760, Note_on_c, 0, 66, 0
2, 37760, Note_on_c, 0, 75, 75
2, 37790, Note_on_c, 0, 75, 0
2, 37792, Note_on_c, 0, 78, 75
2, 37822, Note_on_c, 0, 78, 0
2, 37824, Note_on_c, 0, 69, 91
2, 37856, Note_on_c, 0, 69, 0
2, 37856, Note_on_c, 0, 75, 75
2, 37886, Note_on_c, 0, 75, 0
2, 37888, Note_on_c, 0, 78, 75
2, 37918, Note_on_c, 0, 78, 0
2, 37920, Note_on_c, 0, 72, 91
2, 37952, Note_on_c, 0, 72, 0
2, 37952, Note_on_c, 0, 75, 75
2, 37982, Note_on_c, 0, 75, 0
2, 37984, Note_on_c, 0, 78, 75
2, 38014, Note_on_c, 0, 78, 0
2, 38016, Note_on_c, 0, 70, 91
2, 38048, Note_on_c, 0, 70, 0
2, 38048, Note_on_c, 0, 75, 75
2, 38078, Note_on_c, 0, 75, 0
2, 38080, Note_on_c, 0, 78, 75
2, 38110, Note_on_c, 0, 78, 0
2, 38112, Note_on_c, 0, 82, 75
2, 38142, Note_on_c, 0, 82, 0
2, 38144, Note_on_c, 0, 78, 75
2, 38174, Note_on_c, 0, 78, 0
2, 38176, Note_on_c, 0, 75, 75
2, 38206, Note_on_c, 0, 75, 0
2, 38208, Note_on_c, 0, 80, 75
2, 38238, Note_on_c, 0, 80, 0
2, 38240, Note_on_c, 0, 77, 75
2, 38270, Note_on_c, 0, 77, 0
2, 38272, Note_on_c, 0, 74, 75
2, 38302, Note_on_c, 0, 74, 0
2, 38304, Note_on_c, 0, 75, 75
2, 38393, Note_on_c, 0, 75, 0
2, 38496, Note_on_c, 0, 70, 64
2, 38526, Note_on_c, 0, 70, 0
2, 38528, Note_on_c, 0, 78, 64
2, 38558, Note_on_c, 0, 78, 0
2, 38560, Note_on_c, 0, 82, 64
2, 38590, Note_on_c, 0, 82, 0
2, 38592, Note_on_c, 0, 80, 64
2, 38612, Note_on_c, 0, 80, 0
2, 38784, Note_on_c, 0, 70, 64
2, 38814, Note_on_c, 0, 70, 0
2, 38816, Note_on_c, 0, 77, 64
2, 38846, Note_on_c, 0, 77, 0
2, 38848, Note_on_c, 0, 80, 64
2, 38878, Note_on_c, 0, 80, 0
2, 38880, Note_on_c, 0, 78, 64
2, 38900, Note_on_c, 0, 78, 0
2, 39072, Note_on_c, 0, 66, 64
2, 39102, Note_on_c, 0, 66, 0
2, 39104, Note_on_c, 0, 75, 64
2, 39134, Note_on_c, 0, 75, 0
2, 39136, Note_on_c, 0, 78, 64
2, 39166, Note_on_c, 0, 78, 0
2, 39168, Note_on_c, 0, 76, 64
2, 39188, Note_on_c, 0, 76, 0
2, 39360, Note_on_c, 0, 66, 64
2, 39390, Note_on_c, 0, 66, 0
2, 39392, Note_on_c, 0, 73, 64
2, 39422, Note_on_c, 0, 73, 0
2, 39424, Note_on_c, 0, 76, 64
2, 39454, Note_on_c, 0, 76, 0
2, 39456, Note_on_c, 0, 75, 64
2, 39476, Note_on_c, 0, 75, 0
2, 39648, Note_on_c, 0, 63, 64
2, 39678, Note_on_c, 0, 63, 0
2, 39680, Note_on_c, 0, 71, 69
2, 39710, Note_on_c, 0, 71, 0
2, 39712, Note_on_c, 0, 75, 74
2, 39742, Note_on_c, 0, 75, 0
2, 39744, Note_on_c, 0, 62, 80
2, 39774, Note_on_c, 0, 62, 0
2, 39776, Note_on_c, 0, 71, 80
2, 39806, Note_on_c, 0, 71, 0
2, 39808, Note_on_c, 0, 74, 80
2, 39838, Note_on_c, 0, 74, 0
2, 39840, Note_on_c, 0, 62, 80
2, 39870, Note_on_c, 0, 62, 0
2, 39872, Note_on_c, 0, 71, 80
2, 39902, Note_on_c, 0, 71, 0
2, 39904, Note_on_c, 0, 74, 80
2, 39934, Note_on_c, 0, 74, 0
2, 39936, Note_on_c, 0, 63, 96
2, 39968, Note_on_c, 0, 63, 0
2, 39968, Note_on_c, 0, 71, 80
2, 39998, Note_on_c, 0, 71, 0
2, 40000, Note_on_c, 0, 75, 80
2, 40030, Note_on_c, 0, 75, 0
2, 40032, Note_on_c, 0, 62, 80
2, 40062, Note_on_c, 0, 62, 0
2, 40064, Note_on_c, 0, 71, 80
2, 40094, Note_on_c, 0, 71, 0
2, 40096, Note_on_c, 0, 74, 80
2, 40126, Note_on_c, 0, 74, 0
2, 40128, Note_on_c, 0, 62, 80
2, 40158, Note_on_c, 0, 62, 0
2, 40160, Note_on_c, 0, 71, 80
2, 40190, Note_on_c, 0, 71, 0
2, 40192, Note_on_c, 0, 74, 80
2, 40222, Note_on_c, 0, 74, 0
2, 40224, Note_on_c, 0, 65, 96
2, 40256, Note_on_c, 0, 65, 0
2, 40256, Note_on_c, 0, 74, 80
2, 40286, Note_on_c, 0, 74, 0
2, 40288, Note_on_c, 0, 77, 80
2, 40318, Note_on_c, 0, 77, 0
2, 40320, Note_on_c, 0, 66, 96
2, 40352, Note_on_c, 0, 66, 0
2, 40352, Note_on_c, 0, 75, 80
2, 40382, Note_on_c, 0, 75, 0
2, 40384, Note_on_c, 0, 78, 81
2, 40414, Note_on_c, 0, 78, 0
2, 40416, Note_on_c, 0, 69, 98
2, 40448, Note_on_c, 0, 69, 0
2, 40448, Note_on_c, 0, 75, 83
2, 40478, Note_on_c, 0, 75, 0
2, 40480, Note_on_c, 0, 78, 84
2, 40510, Note_on_c, 0, 78, 0
2, 40512, Note_on_c, 0, 72, 100
2, 40544, Note_on_c, 0, 72, 0
2, 40544, Note_on_c, 0, 75, 86
2, 40574, Note_on_c, 0, 75, 0
2, 40576, Note_on_c, 0, 78, 86
2, 40606, Note_on_c, 0, 78, 0
2, 40608, Note_on_c, 0, 74, 111
2, 40640, Note_on_c, 0, 74, 0
2, 40640, Note_on_c, 0, 77, 86
2, 40670, Note_on_c, 0, 77, 0
2, 40672, Note_on_c, 0, 75, 86
2, 40702, Note_on_c, 0, 75, 0
2, 40704, Note_on_c, 0, 74, 102
2, 40736, Note_on_c, 0, 74, 0
2, 40736, Note_on_c, 0, 80, 86
2, 40766, Note_on_c, 0, 80, 0
2, 40768, Note_on_c, 0, 78, 86
2, 40798, Note_on_c, 0, 78, 0
2, 40800, Note_on_c, 0, 77, 102
2, 40832, Note_on_c, 0, 77, 0
2, 40832, Note_on_c, 0, 83, 86
2, 40862, Note_on_c, 0, 83, 0
2, 40864, Note_on_c, 0, 82, 86
2, 40894, Note_on_c, 0, 82, 0
2, 40896, Note_on_c, 0, 80, 86
2, 40926, Note_on_c, 0, 80, 0
2, 40928, Note_on_c, 0, 78, 86
2, 40958, Note_on_c, 0, 78, 0
2, 40960, Note_on_c, 0, 77, 86
2, 40990, Note_on_c, 0, 77, 0
2, 40992, Note_on_c, 0, 75, 80
2, 41022, Note_on_c, 0, 75, 0
2, 41024, Note_on_c, 0, 74, 78
2, 41054, Note_on_c, 0, 74, 0
2, 41056, Note_on_c, 0, 72, 76
2, 41086, Note_on_c, 0, 72, 0
2, 41088, Note_on_c, 0, 70, 75
2, 41118, Note_on_c, 0, 70, 0
2, 41120, Note_on_c, 0, 72, 73
2, 41150, Note_on_c, 0, 72, 0
2, 41152, Note_on_c, 0, 74, 72
2, 41182, Note_on_c, 0, 74, 0
2, 41184, Note_on_c, 0, 75, 70
2, 41204, Note_on_c, 0, 75, 0
2, 41280, Note_on_c, 0, 75, 70
2, 41300, Note_on_c, 0, 75, 0
2, 41352, Note_on_c, 0, 77, 70
2, 41360, Note_on_c, 0, 77, 0
2, 41360, Note_on_c, 0, 75, 70
2, 41368, Note_on_c, 0, 75, 0
2, 41368, Note_on_c, 0, 74, 70
2, 41376, Note_on_c, 0, 74, 0
2, 41376, Note_on_c, 0, 75, 70
2, 41448, Note_on_c, 0, 75, 0
2, 41448, Note_on_c, 0, 77, 70
2, 41471, Note_on_c, 0, 77, 0
2, 41472, Note_on_c, 0, 74, 70
2, 41492, Note_on_c, 0, 74, 0
2, 41568, Note_on_c, 0, 74, 70
2, 41588, Note_on_c, 0, 74, 0
2, 41664, Note_on_c, 0, 74, 70
2, 41694, Note_on_c, 0, 74, 0
2, 41696, Note_on_c, 0, 77, 70
2, 41726, Note_on_c, 0, 77, 0
2, 41728, Note_on_c, 0, 80, 70
2, 41758, Note_on_c, 0, 80, 0
2, 41760, Note_on_c, 0, 84, 86
2, 41792, Note_on_c, 0, 84, 0
2, 41792, Note_on_c, 0, 82, 70
2, 41822, Note_on_c, 0, 82, 0
2, 41824, Note_on_c, 0, 80, 70
2, 41854, Note_on_c, 0, 80, 0
2, 41856, Note_on_c, 0, 79, 70
2, 41886, Note_on_c, 0, 79, 0
2, 41888, Note_on_c, 0, 77, 70
2, 41918, Note_on_c, 0, 77, 0
2, 41920, Note_on_c, 0, 75, 70
2, 41950, Note_on_c, 0, 75, 0
2, 41952, Note_on_c, 0, 74, 70
2, 41982, Note_on_c, 0, 74, 0
2, 41984, Note_on_c, 0, 80, 70
2, 42014, Note_on_c, 0, 80, 0
2, 42016, Note_on_c, 0, 74, 70
2, 42046, Note_on_c, 0, 74, 0
2, 42048, Note_on_c, 0, 75, 70
2, 42068, Note_on_c, 0, 75, 0
2, 42144, Note_on_c, 0, 75, 70
2, 42164, Note_on_c, 0, 75, 0
2, 42216, Note_on_c, 0, 77, 70
2, 42224, Note_on_c, 0, 77, 0
2, 42224, Note_on_c, 0, 75, 70
2, 42232, Note_on_c, 0, 75, 0
2, 42232, Note_on_c, 0, 74, 70
2, 42240, Note_on_c, 0, 74, 0
2, 42240, Note_on_c, 0, 75, 70
2, 42310, Note_on_c, 0, 75, 0
2, 42312, Note_on_c, 0, 79, 70
2, 42335, Note_on_c, 0, 79, 0
2, 42336, Note_on_c, 0, 71, 70
2, 42356, Note_on_c, 0, 71, 0
2, 42432, Note_on_c, 0, 71, 73
2, 42452, Note_on_c, 0, 71, 0
2, 42528, Note_on_c, 0, 71, 116
2, 42624, Note_on_c, 0, 71, 0
2, 42624, Note_on_c, 0, 72, 75
2, 42654, Note_on_c, 0, 72, 0
2, 42656, Note_on_c, 0, 75, 75
2, 42686, Note_on_c, 0, 75, 0
2, 42688, Note_on_c, 0, 74, 76
2, 42718, Note_on_c, 0, 74, 0
2, 42720, Note_on_c, 0, 72, 77
2, 42750, Note_on_c, 0, 72, 0
2, 42752, Note_on_c, 0, 79, 78
2, 42782, Note_on_c, 0, 79, 0
2, 42784, Note_on_c, 0, 77, 79
2, 42814, Note_on_c, 0, 77, 0
2, 42816, Note_on_c, 0, 75, 79
2, 42846, Note_on_c, 0, 75, 0
2, 42848, Note_on_c, 0, 74, 77
2, 42878, Note_on_c, 0, 74, 0
2, 42880, Note_on_c, 0, 72, 76
2, 42910, Note_on_c, 0, 72, 0
2, 42912, Note_on_c, 0, 70, 75
2, 42965, Note_on_c, 0, 70, 0
2, 42972, Note_on_c, 0, 72, 75
2, 42984, Note_on_c, 0, 72, 0
2, 42984, Note_on_c, 0, 70, 75
2, 42996, Note_on_c, 0, 70, 0
2, 42996, Note_on_c, 0, 69, 75
2, 43008, Note_on_c, 0, 69, 0
2, 43008, Note_on_c, 0, 70, 75
2, 43075, Note_on_c, 0, 70, 0
2, 43080, Note_on_c, 0, 74, 75
2, 43103, Note_on_c, 0, 74, 0
2, 43104, Note_on_c, 0, 72, 75
2, 43171, Note_on_c, 0, 72, 0
2, 43176, Note_on_c, 0, 69, 75
2, 43199, Note_on_c, 0, 69, 0
2, 43200, Note_on_c, 0, 70, 75
2, 43239, Note_on_c, 0, 70, 0
2, 43392, Note_on_c, 0, 58, 75
2, 43422, Note_on_c, 0, 58, 0
2, 43424, Note_on_c, 0, 62, 75
2, 43454, Note_on_c, 0, 62, 0
2, 43456, Note_on_c, 0, 65, 75
2, 43486, Note_on_c, 0, 65, 0
2, 43488, Note_on_c, 0, 68, 75
2, 43508, Note_on_c, 0, 68, 0
2, 43584, Note_on_c, 0, 68, 75
2, 43604, Note_on_c, 0, 68, 0
2, 43680, Note_on_c, 0, 68, 75
2, 43700, Note_on_c, 0, 68, 0
2, 43776, Note_on_c, 0, 67, 75
2, 43806, Note_on_c, 0, 67, 0
2, 43808, Note_on_c, 0, 70, 75
2, 43838, Note_on_c, 0, 70, 0
2, 43840, Note_on_c, 0, 75, 75
2, 43870, Note_on_c, 0, 75, 0
2, 43872, Note_on_c, 0, 70, 75
2, 43892, Note_on_c, 0, 70, 0
2, 44096, Note_on_c, 0, 70, 75
2, 44126, Note_on_c, 0, 70, 0
2, 44128, Note_on_c, 0, 72, 75
2, 44158, Note_on_c, 0, 72, 0
2, 44160, Note_on_c, 0, 74, 75
2, 44190, Note_on_c, 0, 74, 0
2, 44192, Note_on_c, 0, 75, 75
2, 44222, Note_on_c, 0, 75, 0
2, 44224, Note_on_c, 0, 77, 75
2, 44254, Note_on_c, 0, 77, 0
2, 44256, Note_on_c, 0, 79, 75
2, 44286, Note_on_c, 0, 79, 0
2, 44288, Note_on_c, 0, 80, 75
2, 44318, Note_on_c, 0, 80, 0
2, 44320, Note_on_c, 0, 77, 75
2, 44350, Note_on_c, 0, 77, 0
2, 44352, Note_on_c, 0, 82, 75
2, 44382, Note_on_c, 0, 82, 0
2, 44384, Note_on_c, 0, 84, 75
2, 44414, Note_on_c, 0, 84, 0
2, 44416, Note_on_c, 0, 82, 75
2, 44446, Note_on_c, 0, 82, 0
2, 44448, Note_on_c, 0, 80, 75
2, 44478, Note_on_c, 0, 80, 0
2, 44480, Note_on_c, 0, 79, 75
2, 44510, Note_on_c, 0, 79, 0
2, 44512, Note_on_c, 0, 77, 75
2, 44542, Note_on_c, 0, 77, 0
2, 44544, Note_on_c, 0, 75, 75
2, 44574, Note_on_c, 0, 75, 0
2, 44576, Note_on_c, 0, 79, 75
2, 44606, Note_on_c, 0, 79, 0
2, 44608, Note_on_c, 0, 75, 75
2, 44638, Note_on_c, 0, 75, 0
2, 44640, Note_on_c, 0, 74, 75
2, 44670, Note_on_c, 0, 74, 0
2, 44672, Note_on_c, 0, 77, 75
2, 44702, Note_on_c, 0, 77, 0
2, 44704, Note_on_c, 0, 74, 75
2, 44734, Note_on_c, 0, 74, 0
2, 44736, Note_on_c, 0, 72, 75
2, 44766, Note_on_c, 0, 72, 0
2, 44768, Note_on_c, 0, 75, 75
2, 44798, Note_on_c, 0, 75, 0
2, 44800, Note_on_c, 0, 72, 75
2, 44830, Note_on_c, 0, 72, 0
2, 44832, Note_on_c, 0, 70, 75
2, 44862, Note_on_c, 0, 70, 0
2, 44864, Note_on_c, 0, 74, 75
2, 44894, Note_on_c, 0, 74, 0
2, 44896, Note_on_c, 0, 70, 75
2, 44926, Note_on_c, 0, 70, 0
2, 44928, Note_on_c, 0, 68, 75
2, 44958, Note_on_c, 0, 68, 0
2, 44960, Note_on_c, 0, 72, 75
2, 44990, Note_on_c, 0, 72, 0
2, 44992, Note_on_c, 0, 68, 75
2, 45022, Note_on_c, 0, 68, 0
2, 45024, Note_on_c, 0, 67, 75
2, 45054, Note_on_c, 0, 67, 0
2, 45056, Note_on_c, 0, 70, 75
2, 45086, Note_on_c, 0, 70, 0
2, 45088, Note_on_c, 0, 67, 75
2, 45118, Note_on_c, 0, 67, 0
2, 45120, Note_on_c, 0, 65, 75
2, 45150, Note_on_c, 0, 65, 0
2, 45152, Note_on_c, 0, 68, 75
2, 45182, Note_on_c, 0, 68, 0
2, 45184, Note_on_c, 0, 65, 75
2, 45214, Note_on_c, 0, 65, 0
2, 45216, Note_on_c, 0, 70, 75
2, 45246, Note_on_c, 0, 70, 0
2, 45248, Note_on_c, 0, 62, 75
2, 45278, Note_on_c, 0, 62, 0
2, 45280, Note_on_c, 0, 63, 75
2, 45310, Note_on_c, 0, 63, 0
2, 45312, Note_on_c, 0, 72, 75
2, 45342, Note_on_c, 0, 72, 0
2, 45344, Note_on_c, 0, 64, 91
2, 45376, Note_on_c, 0, 64, 0
2, 45376, Note_on_c, 0, 65, 73
2, 45406, Note_on_c, 0, 65, 0
2, 45408, Note_on_c, 0, 72, 72
2, 45438, Note_on_c, 0, 72, 0
2, 45440, Note_on_c, 0, 68, 71
2, 45470, Note_on_c, 0, 68, 0
2, 45472, Note_on_c, 0, 65, 70
2, 45502, Note_on_c, 0, 65, 0
2, 45504, Note_on_c, 0, 63, 69
2, 45600, Note_on_c, 0, 63, 0
2, 45600, Note_on_c, 0, 62, 66
2, 45620, Note_on_c, 0, 62, 0
2, 45672, Note_on_c, 0, 70, 80
2, 45695, Note_on_c, 0, 70, 0
2, 45696, Note_on_c, 0, 72, 80
2, 45708, Note_on_c, 0, 72, 0
2, 45708, Note_on_c, 0, 70, 80
2, 45720, Note_on_c, 0, 70, 0
2, 45720, Note_on_c, 0, 69, 80
2, 45732, Note_on_c, 0, 69, 0
2, 45732, Note_on_c, 0, 70, 80
2, 45785, Note_on_c, 0, 70, 0
2, 45792, Note_on_c, 0, 75, 80
2, 45812, Note_on_c, 0, 75, 0
2, 45888, Note_on_c, 0, 75, 80
2, 45908, Note_on_c, 0, 75, 0
2, 45984, Note_on_c, 0, 77, 80
2, 45996, Note_on_c, 0, 77, 0
2, 45996, Note_on_c, 0, 75, 80
2, 46008, Note_on_c, 0, 75, 0
2, 46008, Note_on_c, 0, 74, 80
2, 46020, Note_on_c, 0, 74, 0
2, 46020, Note_on_c, 0, 75, 80
2, 46056, Note_on_c, 0, 75, 0
2, 46056, Note_on_c, 0, 77, 80
2, 46079, Note_on_c, 0, 77, 0
2, 46080, Note_on_c, 0, 74, 80
2, 46100, Note_on_c, 0, 74, 0
2, 46176, Note_on_c, 0, 74, 80
2, 46196, Note_on_c, 0, 74, 0
2, 46272, Note_on_c, 0, 74, 80
2, 46302, Note_on_c, 0, 74, 0
2, 46304, Note_on_c, 0, 77, 80
2, 46334, Note_on_c, 0, 77, 0
2, 46336, Note_on_c, 0, 80, 80
2, 46366, Note_on_c, 0, 80, 0
2, 46368, Note_on_c, 0, 84, 96
2, 46400, Note_on_c, 0, 84, 0
2, 46400, Note_on_c, 0, 82, 80
2, 46430, Note_on_c, 0, 82, 0
2, 46432, Note_on_c, 0, 80, 80
2, 46462, Note_on_c, 0, 80, 0
2, 46464, Note_on_c, 0, 79, 80
2, 46494, Note_on_c, 0, 79, 0
2, 46496, Note_on_c, 0, 77, 80
2, 46526, Note_on_c, 0, 77, 0
2, 46528, Note_on_c, 0, 75, 80
2, 46558, Note_on_c, 0, 75, 0
2, 46560, Note_on_c, 0, 74, 80
2, 46590, Note_on_c, 0, 74, 0
2, 46592, Note_on_c, 0, 80, 80
2, 46622, Note_on_c, 0, 80, 0
2, 46624, Note_on_c, 0, 74, 80
2, 46654, Note_on_c, 0, 74, 0
2, 46656, Note_on_c, 0, 75, 80
2, 46676, Note_on_c, 0, 75, 0
2, 46752, Note_on_c, 0, 75, 80
2, 46772, Note_on_c, 0, 75, 0
2, 46824, Note_on_c, 0, 75, 80
2, 46847, Note_on_c, 0, 75, 0
2, 46848, Note_on_c, 0, 77, 80
2, 46854, Note_on_c, 0, 77, 0
2, 46854, Note_on_c, 0, 75, 80
2, 46871, Note_on_c, 0, 75, 0
2, 46872, Note_on_c, 0, 74, 80
2, 46895, Note_on_c, 0, 74, 0
2, 46896, Note_on_c, 0, 75, 80
2, 46919, Note_on_c, 0, 75, 0
2, 46920, Note_on_c, 0, 77, 80
2, 46943, Note_on_c, 0, 77, 0
2, 46944, Note_on_c, 0, 79, 80
2, 46983, Note_on_c, 0, 79, 0
2, 47040, Note_on_c, 0, 79, 81
2, 47107, Note_on_c, 0, 79, 0
2, 47112, Note_on_c, 0, 82, 81
2, 47135, Note_on_c, 0, 82, 0
2, 47136, Note_on_c, 0, 87, 82
2, 47166, Note_on_c, 0, 87, 0
2, 47168, Note_on_c, 0, 82, 82
2, 47198, Note_on_c, 0, 82, 0
2, 47200, Note_on_c, 0, 79, 82
2, 47230, Note_on_c, 0, 79, 0
2, 47232, Note_on_c, 0, 80, 82
2, 47285, Note_on_c, 0, 80, 0
2, 47292, Note_on_c, 0, 82, 82
2, 47304, Note_on_c, 0, 82, 0
2, 47304, Note_on_c, 0, 80, 82
2, 47316, Note_on_c, 0, 80, 0
2, 47316, Note_on_c, 0, 79, 82
2, 47328, Note_on_c, 0, 79, 0
2, 47328, Note_on_c, 0, 80, 83
2, 47395, Note_on_c, 0, 80, 0
2, 47400, Note_on_c, 0, 82, 84
2, 47423, Note_on_c, 0, 82, 0
2, 47424, Note_on_c, 0, 84, 84
2, 47454, Note_on_c, 0, 84, 0
2, 47456, Note_on_c, 0, 80, 85
2, 47486, Note_on_c, 0, 80, 0
2, 47488, Note_on_c, 0, 77, 85
2, 47518, Note_on_c, 0, 77, 0
2, 47520, Note_on_c, 0, 75, 86
2, 47573, Note_on_c, 0, 75, 0
2, 47580, Note_on_c, 0, 77, 86
2, 47592, Note_on_c, 0, 77, 0
2, 47592, Note_on_c, 0, 75, 86
2, 47604, Note_on_c, 0, 75, 0
2, 47604, Note_on_c, 0, 74, 86
2, 47616, Note_on_c, 0, 74, 0
2, 47616, Note_on_c, 0, 75, 86
2, 47683, Note_on_c, 0, 75, 0
2, 47688, Note_on_c, 0, 79, 86
2, 47711, Note_on_c, 0, 79, 0
2, 47712, Note_on_c, 0, 77, 86
2, 47779, Note_on_c, 0, 77, 0
2, 47784, Note_on_c, 0, 74, 86
2, 47807, Note_on_c, 0, 74, 0
2, 47808, Note_on_c, 0, 75, 86
2, 47853, Note_on_c, 0, 75, 0
2, 48000, Note_on_c, 0, 70, 64
2, 48030, Note_on_c, 0, 70, 0
2, 48032, Note_on_c, 0, 67, 64
2, 48062, Note_on_c, 0, 67, 0
2, 48064, Note_on_c, 0, 63, 64
2, 48094, Note_on_c, 0, 63, 0
2, 48096, Note_on_c, 0, 62, 64
2, 48116, Note_on_c, 0, 62, 0
2, 48224, Note_on_c, 0, 72, 64
2, 48254, Note_on_c, 0, 72, 0
2, 48256, Note_on_c, 0, 70, 64
2, 48286, Note_on_c, 0, 70, 0
2, 48288, Note_on_c, 0, 68, 64
2, 48318, Note_on_c, 0, 68, 0
2, 48320, Note_on_c, 0, 67, 64
2, 48350, Note_on_c, 0, 67, 0
2, 48352, Note_on_c, 0, 65, 64
2, 48382, Note_on_c, 0, 65, 0
2, 48384, Note_on_c, 0, 63, 64
2, 48404, Note_on_c, 0, 63, 0
2, 48576, Note_on_c, 0, 58, 64
2, 48606, Note_on_c, 0, 58, 0
2, 48608, Note_on_c, 0, 55, 64
2, 48638, Note_on_c, 0, 55, 0
2, 48640, Note_on_c, 0, 51, 64
2, 48670, Note_on_c, 0, 51, 0
2, 48672, Note_on_c, 0, 50, 64
2, 48692, Note_on_c, 0, 50, 0
2, 48800, Note_on_c, 0, 60, 64
2, 48830, Note_on_c, 0, 60, 0
2, 48832, Note_on_c, 0, 58, 64
2, 48862, Note_on_c, 0, 58, 0
2, 48864, Note_on_c, 0, 56, 64
2, 48894, Note_on_c, 0, 56, 0
2, 48896, Note_on_c, 0, 55, 64
2, 48926, Note_on_c, 0, 55, 0
2, 48928, Note_on_c, 0, 53, 64
2, 48958, Note_on_c, 0, 53, 0
2, 48960, Note_on_c, 0, 51, 64
2, 48980, Note_on_c, 0, 51, 0
2, 49152, Note_on_c, 0, 74, 76
2, 49152, Note_on_c, 0, 68, 76
2, 49152, Note_on_c, 0, 65, 76
2, 49172, Note_on_c, 0, 74, 0
2, 49172, Note_on_c, 0, 68, 0
2, 49172, Note_on_c, 0, 65, 0
2, 49248, Note_on_c, 0, 75, 80
2, 49248, Note_on_c, 0, 70, 80
2, 49248, Note_on_c, 0, 67, 80
2, 49268, Note_on_c, 0, 75, 0
2, 49268, Note_on_c, 0, 70, 0
2, 49268, Note_on_c, 0, 67, 0
2, 49536, End_track
3, 0, Start_track
3, 0, Program_c, 0, 0
3, 0, Control_c, 0, 7, 127
3, 0, Control_c, 0, 10, 64
3, 19872, Note_on_c, 0, 72, 80
3, 20137, Note_on_c, 0, 72, 0
3, 20160, Note_on_c, 0, 72, 105
3, 20425, Note_on_c, 0, 72, 0
3, 24480, Note_on_c, 0, 72, 80
3, 24745, Note_on_c, 0, 72, 0
3, 24768, Note_on_c, 0, 72, 105
3, 25033, Note_on_c, 0, 72, 0
3, 49536, End_track
4, 0, Start_track
4, 0, Program_c, 1, 0
4, 0, Control_c, 1, 7, 127
4, 0, Control_c, 1, 10, 64
4, 288, Note_on_c, 1, 63, 58
4, 336, Note_on_c, 1, 63, 0
4, 336, Note_on_c, 1, 67, 58
4, 356, Note_on_c, 1, 67, 0
4, 384, Note_on_c, 1, 63, 58
4, 432, Note_on_c, 1, 63, 0
4, 432, Note_on_c, 1, 67, 58
4, 452, Note_on_c, 1, 67, 0
4, 480, Note_on_c, 1, 63, 58
4, 528, Note_on_c, 1, 63, 0
4, 528, Note_on_c, 1, 67, 58
4, 548, Note_on_c, 1, 67, 0
4, 576, Note_on_c, 1, 63, 58
4, 624, Note_on_c, 1, 63, 0
4, 624, Note_on_c, 1, 68, 58
4, 644, Note_on_c, 1, 68, 0
4, 672, Note_on_c, 1, 63, 58
4, 720, Note_on_c, 1, 63, 0
4, 720, Note_on_c, 1, 68, 58
4, 740, Note_on_c, 1, 68, 0
4, 768, Note_on_c, 1, 63, 58
4, 816, Note_on_c, 1, 63, 0
4, 816, Note_on_c, 1, 68, 58
4, 836, Note_on_c, 1, 68, 0
4, 864, Note_on_c, 1, 63, 58
4, 912, Note_on_c, 1, 63, 0
4, 912, Note_on_c, 1, 68, 58
4, 932, Note_on_c, 1, 68, 0
4, 960, Note_on_c, 1, 63, 58
4, 1008, Note_on_c, 1, 63, 0
4, 1008, Note_on_c, 1, 68, 58
4, 1028, Note_on_c, 1, 68, 0
4, 1056, Note_on_c, 1, 63, 58
4, 1104, Note_on_c, 1, 63, 0
4, 1104, Note_on_c, 1, 68, 58
4, 1124, Note_on_c, 1, 68, 0
4, 1152, Note_on_c, 1, 63, 58
4, 1200, Note_on_c, 1, 63, 0
4, 1200, Note_on_c, 1, 67, 58
4, 1220, Note_on_c, 1, 67, 0
4, 1248, Note_on_c, 1, 63, 58
4, 1296, Note_on_c, 1, 63, 0
4, 1296, Note_on_c, 1, 67, 58
4, 1316, Note_on_c, 1, 67, 0
4, 1344, Note_on_c, 1, 63, 58
4, 1392, Note_on_c, 1, 63, 0
4, 1392, Note_on_c, 1, 67, 58
4, 1412, Note_on_c, 1, 67, 0
4, 1440, Note_on_c, 1, 63, 58
4, 1488, Note_on_c, 1, 63, 0
4, 1488, Note_on_c, 1, 67, 58
4, 1508, Note_on_c, 1, 67, 0
4, 1536, Note_on_c, 1, 63, 58
4, 1584, Note_on_c, 1, 63, 0
4, 1584, Note_on_c, 1, 67, 58
4, 1604, Note_on_c, 1, 67, 0
4, 1632, Note_on_c, 1, 63, 58
4, 1680, Note_on_c, 1, 63, 0
4, 1680, Note_on_c, 1, 67, 58
4, 1700, Note_on_c, 1, 67, 0
4, 1728, Note_on_c, 1, 63, 58
4, 1993, Note_on_c, 1, 63, 0
4, 2016, Note_on_c, 1, 62, 64
4, 2193, Note_on_c, 1, 62, 0
4, 2208, Note_on_c, 1, 63, 64
4, 2297, Note_on_c, 1, 63, 0
4, 2304, Note_on_c, 1, 62, 64
4, 2304, Note_on_c, 1, 58, 64
4, 2343, Note_on_c, 1, 62, 0
4, 2343, Note_on_c, 1, 58, 0
4, 2592, Note_on_c, 1, 63, 58
4, 2640, Note_on_c, 1, 63, 0
4, 2640, Note_on_c, 1, 67, 58
4, 2660, Note_on_c, 1, 67, 0
4, 2688, Note_on_c, 1, 63, 58
4, 2736, Note_on_c, 1, 63, 0
4, 2736, Note_on_c, 1, 67, 58
4, 2756, Note_on_c, 1, 67, 0
4, 2784, Note_on_c, 1, 63, 58
4, 2832, Note_on_c, 1, 63, 0
4, 2832, Note_on_c, 1, 67, 58
4, 2852, Note_on_c, 1, 67, 0
4, 2880, Note_on_c, 1, 63, 58
4, 2928, Note_on_c, 1, 63, 0
4, 2928, Note_on_c, 1, 68, 58
4, 2948, Note_on_c, 1, 68, 0
4, 2976, Note_on_c, 1, 63, 58
4, 3024, Note_on_c, 1, 63, 0
4, 3024, Note_on_c, 1, 68, 58
4, 3044, Note_on_c, 1, 68, 0
4, 3072, Note_on_c, 1, 63, 58
4, 3120, Note_on_c, 1, 63, 0
4, 3120, Note_on_c, 1, 68, 58
4, 3140, Note_on_c, 1, 68, 0
4, 3168, Note_on_c, 1, 63, 58
4, 3216, Note_on_c, 1, 63, 0
4, 3216, Note_on_c, 1, 68, 58
4, 3236, Note_on_c, 1, 68, 0
4, 3264, Note_on_c, 1, 63, 58
4, 3312, Note_on_c, 1, 63, 0
4, 3312, Note_on_c, 1, 68, 58
4, 3332, Note_on_c, 1, 68, 0
4, 3360, Note_on_c, 1, 63, 58
4, 3408, Note_on_c, 1, 63, 0
4, 3408, Note_on_c, 1, 68, 58
4, 3428, Note_on_c, 1, 68, 0
4, 3456, Note_on_c, 1, 63, 58
4, 3504, Note_on_c, 1, 63, 0
4, 3504, Note_on_c, 1, 67, 58
4, 3524, Note_on_c, 1, 67, 0
4, 3552, Note_on_c, 1, 63, 58
4, 3600, Note_on_c, 1, 63, 0
4, 3600, Note_on_c, 1, 67, 58
4, 3620, Note_on_c, 1, 67, 0
4, 3648, Note_on_c, 1, 63, 58
4, 3696, Note_on_c, 1, 63, 0
4, 3696, Note_on_c, 1, 67, 58
4, 3716, Note_on_c, 1, 67, 0
4, 3744, Note_on_c, 1, 63, 58
4, 3792, Note_on_c, 1, 63, 0
4, 3792, Note_on_c, 1, 67, 58
4, 3812, Note_on_c, 1, 67, 0
4, 3840, Note_on_c, 1, 63, 58
4, 3888, Note_on_c, 1, 63, 0
4, 3888, Note_on_c, 1, 67, 58
4, 3908, Note_on_c, 1, 67, 0
4, 3936, Note_on_c, 1, 63, 58
4, 3984, Note_on_c, 1, 63, 0
4, 3984, Note_on_c, 1, 67, 58
4, 4004, Note_on_c, 1, 67, 0
4, 4032, Note_on_c, 1, 63, 58
4, 4297, Note_on_c, 1, 63, 0
4, 4320, Note_on_c, 1, 62, 64
4, 4497, Note_on_c, 1, 62, 0
4, 4512, Note_on_c, 1, 63, 64
4, 4601, Note_on_c, 1, 63, 0
4, 4608, Note_on_c, 1, 62, 64
4, 4608, Note_on_c, 1, 58, 64
4, 4647, Note_on_c, 1, 62, 0
4, 4647, Note_on_c, 1, 58, 0
4, 4800, Note_on_c, 1, 46, 75
4, 4830, Note_on_c, 1, 46, 0
4, 4832, Note_on_c, 1, 50, 75
4, 4862, Note_on_c, 1, 50, 0
4, 4864, Note_on_c, 1, 53, 75
4, 4894, Note_on_c, 1, 53, 0
4, 4896, Note_on_c, 1, 56, 75
4, 4916, Note_on_c, 1, 56, 0
4, 4992, Note_on_c, 1, 56, 75
4, 5012, Note_on_c, 1, 56, 0
4, 5088, Note_on_c, 1, 56, 75
4, 5108, Note_on_c, 1, 56, 0
4, 5184, Note_on_c, 1, 55, 75
4, 5273, Note_on_c, 1, 55, 0
4, 5376, Note_on_c, 1, 58, 75
4, 5406, Note_on_c, 1, 58, 0
4, 5408, Note_on_c, 1, 62, 75
4, 5438, Note_on_c, 1, 62, 0
4, 5440, Note_on_c, 1, 65, 75
4, 5470, Note_on_c, 1, 65, 0
4, 5472, Note_on_c, 1, 68, 75
4, 5492, Note_on_c, 1, 68, 0
4, 5568, Note_on_c, 1, 68, 75
4, 5588, Note_on_c, 1, 68, 0
4, 5664, Note_on_c, 1, 68, 75
4, 5684, Note_on_c, 1, 68, 0
4, 5760, Note_on_c, 1, 67, 75
4, 5849, Note_on_c, 1, 67, 0
4, 5952, Note_on_c, 1, 70, 70
4, 5952, Note_on_c, 1, 67, 70
4, 6041, Note_on_c, 1, 70, 0
4, 6041, Note_on_c, 1, 67, 0
4, 6048, Note_on_c, 1, 68, 70
4, 6048, Note_on_c, 1, 65, 70
4, 6137, Note_on_c, 1, 68, 0
4, 6137, Note_on_c, 1, 65, 0
4, 6144, Note_on_c, 1, 67, 70
4, 6144, Note_on_c, 1, 63, 70
4, 6233, Note_on_c, 1, 67, 0
4, 6233, Note_on_c, 1, 63, 0
4, 6240, Note_on_c, 1, 65, 70
4, 6240, Note_on_c, 1, 62, 70
4, 6329, Note_on_c, 1, 65, 0
4, 6329, Note_on_c, 1, 62, 0
4, 6336, Note_on_c, 1, 63, 70
4, 6336, Note_on_c, 1, 60, 70
4, 6425, Note_on_c, 1, 63, 0
4, 6425, Note_on_c, 1, 60, 0
4, 6432, Note_on_c, 1, 62, 70
4, 6432, Note_on_c, 1, 58, 70
4, 6521, Note_on_c, 1, 62, 0
4, 6521, Note_on_c, 1, 58, 0
4, 6528, Note_on_c, 1, 60, 70
4, 6528, Note_on_c, 1, 56, 70
4, 6617, Note_on_c, 1, 60, 0
4, 6617, Note_on_c, 1, 56, 0
4, 6624, Note_on_c, 1, 58, 70
4, 6624, Note_on_c, 1, 55, 70
4, 6713, Note_on_c, 1, 58, 0
4, 6713, Note_on_c, 1, 55, 0
4, 6720, Note_on_c, 1, 56, 70
4, 6897, Note_on_c, 1, 56, 0
4, 6912, Note_on_c, 1, 55, 75
4, 7008, Note_on_c, 1, 55, 0
4, 7008, Note_on_c, 1, 53, 67
4, 7053, Note_on_c, 1, 53, 0
4, 7200, Note_on_c, 1, 63, 58
4, 7248, Note_on_c, 1, 63, 0
4, 7248, Note_on_c, 1, 67, 58
4, 7268, Note_on_c, 1, 67, 0
4, 7296, Note_on_c, 1, 63, 58
4, 7344, Note_on_c, 1, 63, 0
4, 7344, Note_on_c, 1, 67, 58
4, 7364, Note_on_c, 1, 67, 0
4, 7392, Note_on_c, 1, 63, 58
4, 7440, Note_on_c, 1, 63, 0
4, 7440, Note_on_c, 1, 67, 58
4, 7460, Note_on_c, 1, 67, 0
4, 7488, Note_on_c, 1, 63, 58
4, 7536, Note_on_c, 1, 63, 0
4, 7536, Note_on_c, 1, 68, 58
4, 7556, Note_on_c, 1, 68, 0
4, 7584, Note_on_c, 1, 63, 58
4, 7632, Note_on_c, 1, 63, 0
4, 7632, Note_on_c, 1, 68, 58
4, 7652, Note_on_c, 1, 68, 0
4, 7680, Note_on_c, 1, 63, 58
4, 7728, Note_on_c, 1, 63, 0
4, 7728, Note_on_c, 1, 68, 58
4, 7748, Note_on_c, 1, 68, 0
4, 7776, Note_on_c, 1, 63, 58
4, 7824, Note_on_c, 1, 63, 0
4, 7824, Note_on_c, 1, 68, 58
4, 7844, Note_on_c, 1, 68, 0
4, 7872, Note_on_c, 1, 63, 58
4, 7920, Note_on_c, 1, 63, 0
4, 7920, Note_on_c, 1, 68, 58
4, 7940, Note_on_c, 1, 68, 0
4, 7968, Note_on_c, 1, 63, 58
4, 8016, Note_on_c, 1, 63, 0
4, 8016, Note_on_c, 1, 68, 58
4, 8036, Note_on_c, 1, 68, 0
4, 8064, Note_on_c, 1, 63, 58
4, 8112, Note_on_c, 1, 63, 0
4, 8112, Note_on_c, 1, 67, 58
4, 8132, Note_on_c, 1, 67, 0
4, 8160, Note_on_c, 1, 63, 58
4, 8208, Note_on_c, 1, 63, 0
4, 8208, Note_on_c, 1, 67, 58
4, 8228, Note_on_c, 1, 67, 0
4, 8256, Note_on_c, 1, 63, 58
4, 8304, Note_on_c, 1, 63, 0
4, 8304, Note_on_c, 1, 67, 58
4, 8324, Note_on_c, 1, 67, 0
4, 8352, Note_on_c, 1, 61, 64
4, 8397, Note_on_c, 1, 61, 0
4, 8400, Note_on_c, 1, 63, 65
4, 8445, Note_on_c, 1, 63, 0
4, 8448, Note_on_c, 1, 61, 66
4, 8493, Note_on_c, 1, 61, 0
4, 8496, Note_on_c, 1, 63, 68
4, 8541, Note_on_c, 1, 63, 0
4, 8544, Note_on_c, 1, 61, 69
4, 8589, Note_on_c, 1, 61, 0
4, 8592, Note_on_c, 1, 63, 70
4, 8637, Note_on_c, 1, 63, 0
4, 8640, Note_on_c, 1, 60, 72
4, 8685, Note_on_c, 1, 60, 0
4, 8688, Note_on_c, 1, 63, 73
4, 8733, Note_on_c, 1, 63, 0
4, 8736, Note_on_c, 1, 60, 74
4, 8781, Note_on_c, 1, 60, 0
4, 8784, Note_on_c, 1, 63, 76
4, 8829, Note_on_c, 1, 63, 0
4, 8832, Note_on_c, 1, 56, 77
4, 8877, Note_on_c, 1, 56, 0
4, 8880, Note_on_c, 1, 65, 78
4, 8925, Note_on_c, 1, 65, 0
4, 8928, Note_on_c, 1, 67, 80
4, 9105, Note_on_c, 1, 67, 0
4, 9120, Note_on_c, 1, 68, 80
4, 9209, Note_on_c, 1, 68, 0
4, 9216, Note_on_c, 1, 67, 80
4, 9255, Note_on_c, 1, 67, 0
4, 9408, Note_on_c, 1, 46, 75
4, 9438, Note_on_c, 1, 46, 0
4, 9440, Note_on_c, 1, 50, 75
4, 9470, Note_on_c, 1, 50, 0
4, 9472, Note_on_c, 1, 53, 75
4, 9502, Note_on_c, 1, 53, 0
4, 9504, Note_on_c, 1, 56, 75
4, 9524, Note_on_c, 1, 56, 0
4, 9600, Note_on_c, 1, 56, 75
4, 9620, Note_on_c, 1, 56, 0
4, 9696, Note_on_c, 1, 56, 75
4, 9716, Note_on_c, 1, 56, 0
4, 9792, Note_on_c, 1, 55, 75
4, 9881, Note_on_c, 1, 55, 0
4, 9984, Note_on_c, 1, 58, 75
4, 10014, Note_on_c, 1, 58, 0
4, 10016, Note_on_c, 1, 62, 75
4, 10046, Note_on_c, 1, 62, 0
4, 10048, Note_on_c, 1, 65, 75
4, 10078, Note_on_c, 1, 65, 0
4, 10080, Note_on_c, 1, 68, 75
4, 10100, Note_on_c, 1, 68, 0
4, 10176, Note_on_c, 1, 68, 75
4, 10196, Note_on_c, 1, 68, 0
4, 10272, Note_on_c, 1, 68, 75
4, 10292, Note_on_c, 1, 68, 0
4, 10368, Note_on_c, 1, 67, 75
4, 10457, Note_on_c, 1, 67, 0
4, 10560, Note_on_c, 1, 70, 70
4, 10560, Note_on_c, 1, 67, 70
4, 10649, Note_on_c, 1, 70, 0
4, 10649, Note_on_c, 1, 67, 0
4, 10656, Note_on_c, 1, 68, 70
4, 10656, Note_on_c, 1, 65, 70
4, 10745, Note_on_c, 1, 68, 0
4, 10745, Note_on_c, 1, 65, 0
4, 10752, Note_on_c, 1, 67, 70
4, 10752, Note_on_c, 1, 63, 70
4, 10841, Note_on_c, 1, 67, 0
4, 10841, Note_on_c, 1, 63, 0
4, 10848, Note_on_c, 1, 65, 70
4, 10848, Note_on_c, 1, 62, 70
4, 10937, Note_on_c, 1, 65, 0
4, 10937, Note_on_c, 1, 62, 0
4, 10944, Note_on_c, 1, 63, 70
4, 10944, Note_on_c, 1, 60, 70
4, 11033, Note_on_c, 1, 63, 0
4, 11033, Note_on_c, 1, 60, 0
4, 11040, Note_on_c, 1, 62, 70
4, 11040, Note_on_c, 1, 58, 70
4, 11129, Note_on_c, 1, 62, 0
4, 11129, Note_on_c, 1, 58, 0
4, 11136, Note_on_c, 1, 60, 70
4, 11136, Note_on_c, 1, 56, 70
4, 11225, Note_on_c, 1, 60, 0
4, 11225, Note_on_c, 1, 56, 0
4, 11232, Note_on_c, 1, 58, 70
4, 11232, Note_on_c, 1, 55, 70
4, 11321, Note_on_c, 1, 58, 0
4, 11321, Note_on_c, 1, 55, 0
4, 11328, Note_on_c, 1, 56, 70
4, 11505, Note_on_c, 1, 56, 0
4, 11520, Note_on_c, 1, 55, 75
4, 11616, Note_on_c, 1, 55, 0
4, 11616, Note_on_c, 1, 53, 67
4, 11661, Note_on_c, 1, 53, 0
4, 11808, Note_on_c, 1, 63, 58
4, 11856, Note_on_c, 1, 63, 0
4, 11856, Note_on_c, 1, 67, 58
4, 11876, Note_on_c, 1, 67, 0
4, 11904, Note_on_c, 1, 63, 58
4, 11952, Note_on_c, 1, 63, 0
4, 11952, Note_on_c, 1, 67, 58
4, 11972, Note_on_c, 1, 67, 0
4, 12000, Note_on_c, 1, 63, 58
4, 12048, Note_on_c, 1, 63, 0
4, 12048, Note_on_c, 1, 67, 58
4, 12068, Note_on_c, 1, 67, 0
4, 12096, Note_on_c, 1, 63, 58
4, 12144, Note_on_c, 1, 63, 0
4, 12144, Note_on_c, 1, 68, 58
4, 12164, Note_on_c, 1, 68, 0
4, 12192, Note_on_c, 1, 63, 58
4, 12240, Note_on_c, 1, 63, 0
4, 12240, Note_on_c, 1, 68, 58
4, 12260, Note_on_c, 1, 68, 0
4, 12288, Note_on_c, 1, 63, 58
4, 12336, Note_on_c, 1, 63, 0
4, 12336, Note_on_c, 1, 68, 58
4, 12356, Note_on_c, 1, 68, 0
4, 12384, Note_on_c, 1, 63, 58
4, 12432, Note_on_c, 1, 63, 0
4, 12432, Note_on_c, 1, 68, 58
4, 12452, Note_on_c, 1, 68, 0
4, 12480, Note_on_c, 1, 63, 58
4, 12528, Note_on_c, 1, 63, 0
4, 12528, Note_on_c, 1, 68, 58
4, 12548, Note_on_c, 1, 68, 0
4, 12576, Note_on_c, 1, 63, 58
4, 12624, Note_on_c, 1, 63, 0
4, 12624, Note_on_c, 1, 68, 58
4, 12644, Note_on_c, 1, 68, 0
4, 12672, Note_on_c, 1, 63, 58
4, 12720, Note_on_c, 1, 63, 0
4, 12720, Note_on_c, 1, 67, 58
4, 12740, Note_on_c, 1, 67, 0
4, 12768, Note_on_c, 1, 63, 58
4, 12816, Note_on_c, 1, 63, 0
4, 12816, Note_on_c, 1, 67, 58
4, 12836, Note_on_c, 1, 67, 0
4, 12864, Note_on_c, 1, 63, 58
4, 12912, Note_on_c, 1, 63, 0
4, 12912, Note_on_c, 1, 67, 58
4, 12932, Note_on_c, 1, 67, 0
4, 12960, Note_on_c, 1, 61, 64
4, 13005, Note_on_c, 1, 61, 0
4, 13008, Note_on_c, 1, 63, 65
4, 13053, Note_on_c, 1, 63, 0
4, 13056, Note_on_c, 1, 61, 66
4, 13101, Note_on_c, 1, 61, 0
4, 13104, Note_on_c, 1, 63, 68
4, 13149, Note_on_c, 1, 63, 0
4, 13152, Note_on_c, 1, 61, 69
4, 13197, Note_on_c, 1, 61, 0
4, 13200, Note_on_c, 1, 63, 70
4, 13245, Note_on_c, 1, 63, 0
4, 13248, Note_on_c, 1, 60, 72
4, 13293, Note_on_c, 1, 60, 0
4, 13296, Note_on_c, 1, 63, 73
4, 13341, Note_on_c, 1, 63, 0
4, 13344, Note_on_c, 1, 60, 74
4, 13389, Note_on_c, 1, 60, 0
4, 13392, Note_on_c, 1, 63, 76
4, 13437, Note_on_c, 1, 63, 0
4, 13440, Note_on_c, 1, 56, 77
4, 13485, Note_on_c, 1, 56, 0
4, 13488, Note_on_c, 1, 65, 78
4, 13533, Note_on_c, 1, 65, 0
4, 13536, Note_on_c, 1, 67, 80
4, 13713, Note_on_c, 1, 67, 0
4, 13728, Note_on_c, 1, 68, 80
4, 13817, Note_on_c, 1, 68, 0
4, 13824, Note_on_c, 1, 67, 80
4, 13863, Note_on_c, 1, 67, 0
4, 14304, Note_on_c, 1, 56, 64
4, 14304, Note_on_c, 1, 44, 64
4, 14324, Note_on_c, 1, 56, 0
4, 14324, Note_on_c, 1, 44, 0
4, 14400, Note_on_c, 1, 56, 64
4, 14400, Note_on_c, 1, 44, 64
4, 14445, Note_on_c, 1, 56, 0
4, 14445, Note_on_c, 1, 44, 0
4, 14880, Note_on_c, 1, 70, 64
4, 14880, Note_on_c, 1, 67, 64
4, 14900, Note_on_c, 1, 70, 0
4, 14900, Note_on_c, 1, 67, 0
4, 14976, Note_on_c, 1, 70, 64
4, 14976, Note_on_c, 1, 67, 64
4, 15021, Note_on_c, 1, 70, 0
4, 15021, Note_on_c, 1, 67, 0
4, 15264, Note_on_c, 1, 53, 105
4, 15264, Note_on_c, 1, 51, 105
4, 15264, Note_on_c, 1, 48, 105
4, 15264, Note_on_c, 1, 45, 105
4, 15529, Note_on_c, 1, 53, 0
4, 15529, Note_on_c, 1, 51, 0
4, 15529, Note_on_c, 1, 48, 0
4, 15529, Note_on_c, 1, 45, 0
4, 15552, Note_on_c, 1, 53, 80
4, 15552, Note_on_c, 1, 50, 80
4, 15552, Note_on_c, 1, 46, 80
4, 15817, Note_on_c, 1, 53, 0
4, 15817, Note_on_c, 1, 50, 0
4, 15817, Note_on_c, 1, 46, 0
4, 15840, Note_on_c, 1, 47, 80
4, 15840, Note_on_c, 1, 35, 80
4, 15929, Note_on_c, 1, 47, 0
4, 15929, Note_on_c, 1, 35, 0
4, 15936, Note_on_c, 1, 48, 80
4, 15936, Note_on_c, 1, 36, 80
4, 16025, Note_on_c, 1, 48, 0
4, 16025, Note_on_c, 1, 36, 0
4, 16032, Note_on_c, 1, 41, 80
4, 16032, Note_on_c, 1, 29, 80
4, 16121, Note_on_c, 1, 41, 0
4, 16121, Note_on_c, 1, 29, 0
4, 16128, Note_on_c, 1, 46, 80
4, 16128, Note_on_c, 1, 34, 80
4, 16217, Note_on_c, 1, 46, 0
4, 16217, Note_on_c, 1, 34, 0
4, 16608, Note_on_c, 1, 56, 64
4, 16608, Note_on_c, 1, 44, 64
4, 16628, Note_on_c, 1, 56, 0
4, 16628, Note_on_c, 1, 44, 0
4, 16704, Note_on_c, 1, 56, 64
4, 16704, Note_on_c, 1, 44, 64
4, 16749, Note_on_c, 1, 56, 0
4, 16749, Note_on_c, 1, 44, 0
4, 17184, Note_on_c, 1, 70, 64
4, 17184, Note_on_c, 1, 67, 64
4, 17204, Note_on_c, 1, 70, 0
4, 17204, Note_on_c, 1, 67, 0
4, 17280, Note_on_c, 1, 70, 64
4, 17280, Note_on_c, 1, 67, 64
4, 17325, Note_on_c, 1, 70, 0
4, 17325, Note_on_c, 1, 67, 0
4, 17568, Note_on_c, 1, 53, 105
4, 17568, Note_on_c, 1, 51, 105
4, 17568, Note_on_c, 1, 48, 105
4, 17568, Note_on_c, 1, 45, 105
4, 17833, Note_on_c, 1, 53, 0
4, 17833, Note_on_c, 1, 51, 0
4, 17833, Note_on_c, 1, 48, 0
4, 17833, Note_on_c, 1, 45, 0
4, 17856, Note_on_c, 1, 53, 80
4, 17856, Note_on_c, 1, 50, 80
4, 17856, Note_on_c, 1, 46, 80
4, 18121, Note_on_c, 1, 53, 0
4, 18121, Note_on_c, 1, 50, 0
4, 18121, Note_on_c, 1, 46, 0
4, 18144, Note_on_c, 1, 47, 80
4, 18144, Note_on_c, 1, 35, 80
4, 18233, Note_on_c, 1, 47, 0
4, 18233, Note_on_c, 1, 35, 0
4, 18240, Note_on_c, 1, 48, 80
4, 18240, Note_on_c, 1, 36, 80
4, 18329, Note_on_c, 1, 48, 0
4, 18329, Note_on_c, 1, 36, 0
4, 18336, Note_on_c, 1, 41, 80
4, 18336, Note_on_c, 1, 29, 80
4, 18425, Note_on_c, 1, 41, 0
4, 18425, Note_on_c, 1, 29, 0
4, 18432, Note_on_c, 1, 46, 80
4, 18432, Note_on_c, 1, 34, 80
4, 18521, Note_on_c, 1, 46, 0
4, 18521, Note_on_c, 1, 34, 0
4, 18624, Note_on_c, 1, 58, 64
4, 18713, Note_on_c, 1, 58, 0
4, 18720, Note_on_c, 1, 57, 64
4, 18809, Note_on_c, 1, 57, 0
4, 18816, Note_on_c, 1, 56, 67
4, 18905, Note_on_c, 1, 56, 0
4, 18912, Note_on_c, 1, 55, 71
4, 19001, Note_on_c, 1, 55, 0
4, 19008, Note_on_c, 1, 50, 75
4, 19097, Note_on_c, 1, 50, 0
4, 19200, Note_on_c, 1, 55, 70
4, 19200, Note_on_c, 1, 51, 70
4, 19289, Note_on_c, 1, 55, 0
4, 19289, Note_on_c, 1, 51, 0
4, 19296, Note_on_c, 1, 56, 72
4, 19296, Note_on_c, 1, 50, 72
4, 19385, Note_on_c, 1, 56, 0
4, 19385, Note_on_c, 1, 50, 0
4, 19392, Note_on_c, 1, 58, 75
4, 19392, Note_on_c, 1, 49, 75
4, 19481, Note_on_c, 1, 58, 0
4, 19481, Note_on_c, 1, 49, 0
4, 19488, Note_on_c, 1, 56, 77
4, 19488, Note_on_c, 1, 48, 77
4, 19577, Note_on_c, 1, 56, 0
4, 19577, Note_on_c, 1, 48, 0
4, 19584, Note_on_c, 1, 56, 80
4, 19761, Note_on_c, 1, 56, 0
4, 19776, Note_on_c, 1, 55, 80
4, 19865, Note_on_c, 1, 55, 0
4, 19872, Note_on_c, 1, 44, 80
4, 19902, Note_on_c, 1, 44, 0
4, 19904, Note_on_c, 1, 51, 80
4, 19934, Note_on_c, 1, 51, 0
4, 19936, Note_on_c, 1, 56, 80
4, 19966, Note_on_c, 1, 56, 0
4, 19968, Note_on_c, 1, 44, 80
4, 19998, Note_on_c, 1, 44, 0
4, 20000, Note_on_c, 1, 51, 80
4, 20030, Note_on_c, 1, 51, 0
4, 20032, Note_on_c, 1, 56, 80
4, 20062, Note_on_c, 1, 56, 0
4, 20064, Note_on_c, 1, 44, 80
4, 20094, Note_on_c, 1, 44, 0
4, 20096, Note_on_c, 1, 51, 80
4, 20126, Note_on_c, 1, 51, 0
4, 20128, Note_on_c, 1, 56, 80
4, 20158, Note_on_c, 1, 56, 0
4, 20160, Note_on_c, 1, 43, 80
4, 20190, Note_on_c, 1, 43, 0
4, 20192, Note_on_c, 1, 52, 80
4, 20222, Note_on_c, 1, 52, 0
4, 20224, Note_on_c, 1, 55, 80
4, 20254, Note_on_c, 1, 55, 0
4, 20256, Note_on_c, 1, 43, 80
4, 20286, Note_on_c, 1, 43, 0
4, 20288, Note_on_c, 1, 52, 80
4, 20318, Note_on_c, 1, 52, 0
4, 20320, Note_on_c, 1, 55, 80
4, 20350, Note_on_c, 1, 55, 0
4, 20352, Note_on_c, 1, 43, 80
4, 20382, Note_on_c, 1, 43, 0
4, 20384, Note_on_c, 1, 52, 80
4, 20414, Note_on_c, 1, 52, 0
4, 20416, Note_on_c, 1, 55, 80
4, 20446, Note_on_c, 1, 55, 0
4, 20544, Note_on_c, 1, 48, 77
4, 20633, Note_on_c, 1, 48, 0
4, 20640, Note_on_c, 1, 53, 75
4, 20729, Note_on_c, 1, 53, 0
4, 20736, Note_on_c, 1, 55, 73
4, 20832, Note_on_c, 1, 55, 0
4, 20832, Note_on_c, 1, 53, 71
4, 20877, Note_on_c, 1, 53, 0
4, 21216, Note_on_c, 1, 56, 64
4, 21216, Note_on_c, 1, 44, 64
4, 21236, Note_on_c, 1, 56, 0
4, 21236, Note_on_c, 1, 44, 0
4, 21312, Note_on_c, 1, 56, 64
4, 21312, Note_on_c, 1, 44, 64
4, 21357, Note_on_c, 1, 56, 0
4, 21357, Note_on_c, 1, 44, 0
4, 21792, Note_on_c, 1, 70, 64
4, 21792, Note_on_c, 1, 67, 64
4, 21812, Note_on_c, 1, 70, 0
4, 21812, Note_on_c, 1, 67, 0
4, 21888, Note_on_c, 1, 70, 64
4, 21888, Note_on_c, 1, 67, 64
4, 21933, Note_on_c, 1, 70, 0
4, 21933, Note_on_c, 1, 67, 0
4, 22080, Note_on_c, 1, 43, 80
4, 22080, Note_on_c, 1, 31, 80
4, 22169, Note_on_c, 1, 43, 0
4, 22169, Note_on_c, 1, 31, 0
4, 22176, Note_on_c, 1, 44, 80
4, 22176, Note_on_c, 1, 32, 80
4, 22441, Note_on_c, 1, 44, 0
4, 22441, Note_on_c, 1, 32, 0
4, 22464, Note_on_c, 1, 43, 80
4, 22464, Note_on_c, 1, 31, 80
4, 22729, Note_on_c, 1, 43, 0
4, 22729, Note_on_c, 1, 31, 0
4, 22752, Note_on_c, 1, 44, 80
4, 22752, Note_on_c, 1, 32, 80
4, 22929, Note_on_c, 1, 44, 0
4, 22929, Note_on_c, 1, 32, 0
4, 22944, Note_on_c, 1, 46, 80
4, 22944, Note_on_c, 1, 34, 80
4, 23033, Note_on_c, 1, 46, 0
4, 23033, Note_on_c, 1, 34, 0
4, 23040, Note_on_c, 1, 51, 80
4, 23040, Note_on_c, 1, 39, 80
4, 23129, Note_on_c, 1, 51, 0
4, 23129, Note_on_c, 1, 39, 0
4, 23232, Note_on_c, 1, 58, 64
4, 23321, Note_on_c, 1, 58, 0
4, 23328, Note_on_c, 1, 57, 64
4, 23417, Note_on_c, 1, 57, 0
4, 23424, Note_on_c, 1, 56, 67
4, 23513, Note_on_c, 1, 56, 0
4, 23520, Note_on_c, 1, 55, 71
4, 23609, Note_on_c, 1, 55, 0
4, 23616, Note_on_c, 1, 50, 75
4, 23705, Note_on_c, 1, 50, 0
4, 23808, Note_on_c, 1, 55, 70
4, 23808, Note_on_c, 1, 51, 70
4, 23897, Note_on_c, 1, 55, 0
4, 23897, Note_on_c, 1, 51, 0
4, 23904, Note_on_c, 1, 56, 72
4, 23904, Note_on_c, 1, 50, 72
4, 23993, Note_on_c, 1, 56, 0
4, 23993, Note_on_c, 1, 50, 0
4, 24000, Note_on_c, 1, 58, 75
4, 24000, Note_on_c, 1, 49, 75
4, 24089, Note_on_c, 1, 58, 0
4, 24089, Note_on_c, 1, 49, 0
4, 24096, Note_on_c, 1, 56, 77
4, 24096, Note_on_c, 1, 48, 77
4, 24185, Note_on_c, 1, 56, 0
4, 24185, Note_on_c, 1, 48, 0
4, 24192, Note_on_c, 1, 56, 80
4, 24369, Note_on_c, 1, 56, 0
4, 24384, Note_on_c, 1, 55, 80
4, 24473, Note_on_c, 1, 55, 0
4, 24480, Note_on_c, 1, 44, 80
4, 24510, Note_on_c, 1, 44, 0
4, 24512, Note_on_c, 1, 51, 80
4, 24542, Note_on_c, 1, 51, 0
4, 24544, Note_on_c, 1, 56, 80
4, 24574, Note_on_c, 1, 56, 0
4, 24576, Note_on_c, 1, 44, 80
4, 24606, Note_on_c, 1, 44, 0
4, 24608, Note_on_c, 1, 51, 80
4, 24638, Note_on_c, 1, 51, 0
4, 24640, Note_on_c, 1, 56, 80
4, 24670, Note_on_c, 1, 56, 0
4, 24672, Note_on_c, 1, 44, 80
4, 24702, Note_on_c, 1, 44, 0
4, 24704, Note_on_c, 1, 51, 80
4, 24734, Note_on_c, 1, 51, 0
4, 24736, Note_on_c, 1, 56, 80
4, 24766, Note_on_c, 1, 56, 0
4, 24768, Note_on_c, 1, 43, 80
4, 24798, Note_on_c, 1, 43, 0
4, 24800, Note_on_c, 1, 52, 80
4, 24830, Note_on_c, 1, 52, 0
4, 24832, Note_on_c, 1, 55, 80
4, 24862, Note_on_c, 1, 55, 0
4, 24864, Note_on_c, 1, 43, 80
4, 24894, Note_on_c, 1, 43, 0
4, 24896, Note_on_c, 1, 52, 80
4, 24926, Note_on_c, 1, 52, 0
4, 24928, Note_on_c, 1, 55, 80
4, 24958, Note_on_c, 1, 55, 0
4, 24960, Note_on_c, 1, 43, 80
4, 24990, Note_on_c, 1, 43, 0
4, 24992, Note_on_c, 1, 52, 80
4, 25022, Note_on_c, 1, 52, 0
4, 25024, Note_on_c, 1, 55, 80
4, 25054, Note_on_c, 1, 55, 0
4, 25152, Note_on_c, 1, 48, 77
4, 25241, Note_on_c, 1, 48, 0
4, 25248, Note_on_c, 1, 53, 75
4, 25337, Note_on_c, 1, 53, 0
4, 25344, Note_on_c, 1, 55, 73
4, 25440, Note_on_c, 1, 55, 0
4, 25440, Note_on_c, 1, 53, 71
4, 25485, Note_on_c, 1, 53, 0
4, 25824, Note_on_c, 1, 56, 64
4, 25824, Note_on_c, 1, 44, 64
4, 25844, Note_on_c, 1, 56, 0
4, 25844, Note_on_c, 1, 44, 0
4, 25920, Note_on_c, 1, 56, 64
4, 25920, Note_on_c, 1, 44, 64
4, 25965, Note_on_c, 1, 56, 0
4, 25965, Note_on_c, 1, 44, 0
4, 26400, Note_on_c, 1, 70, 64
4, 26400, Note_on_c, 1, 67, 64
4, 26420, Note_on_c, 1, 70, 0
4, 26420, Note_on_c, 1, 67, 0
4, 26496, Note_on_c, 1, 70, 64
4, 26496, Note_on_c, 1, 67, 64
4, 26541, Note_on_c, 1, 70, 0
4, 26541, Note_on_c, 1, 67, 0
4, 26688, Note_on_c, 1, 43, 80
4, 26688, Note_on_c, 1, 31, 80
4, 26777, Note_on_c, 1, 43, 0
4, 26777, Note_on_c, 1, 31, 0
4, 26784, Note_on_c, 1, 44, 80
4, 26784, Note_on_c, 1, 32, 80
4, 27049, Note_on_c, 1, 44, 0
4, 27049, Note_on_c, 1, 32, 0
4, 27072, Note_on_c, 1, 43, 80
4, 27072, Note_on_c, 1, 31, 80
4, 27337, Note_on_c, 1, 43, 0
4, 27337, Note_on_c, 1, 31, 0
4, 27360, Note_on_c, 1, 44, 80
4, 27360, Note_on_c, 1, 32, 80
4, 27537, Note_on_c, 1, 44, 0
4, 27537, Note_on_c, 1, 32, 0
4, 27552, Note_on_c, 1, 46, 80
4, 27552, Note_on_c, 1, 34, 80
4, 27641, Note_on_c, 1, 46, 0
4, 27641, Note_on_c, 1, 34, 0
4, 27648, Note_on_c, 1, 51, 80
4, 27648, Note_on_c, 1, 39, 80
4, 27737, Note_on_c, 1, 51, 0
4, 27737, Note_on_c, 1, 39, 0
4, 28128, Note_on_c, 1, 60, 64
4, 28128, Note_on_c, 1, 57, 64
4, 28148, Note_on_c, 1, 60, 0
4, 28148, Note_on_c, 1, 57, 0
4, 28224, Note_on_c, 1, 60, 64
4, 28224, Note_on_c, 1, 57, 64
4, 28269, Note_on_c, 1, 60, 0
4, 28269, Note_on_c, 1, 57, 0
4, 28704, Note_on_c, 1, 53, 64
4, 28724, Note_on_c, 1, 53, 0
4, 28800, Note_on_c, 1, 53, 64
4, 28845, Note_on_c, 1, 53, 0
4, 29088, Note_on_c, 1, 63, 64
4, 29136, Note_on_c, 1, 63, 0
4, 29136, Note_on_c, 1, 67, 64
4, 29156, Note_on_c, 1, 67, 0
4, 29184, Note_on_c, 1, 63, 64
4, 29232, Note_on_c, 1, 63, 0
4, 29232, Note_on_c, 1, 67, 64
4, 29252, Note_on_c, 1, 67, 0
4, 29280, Note_on_c, 1, 63, 64
4, 29328, Note_on_c, 1, 63, 0
4, 29328, Note_on_c, 1, 67, 64
4, 29348, Note_on_c, 1, 67, 0
4, 29376, Note_on_c, 1, 63, 64
4, 29424, Note_on_c, 1, 63, 0
4, 29424, Note_on_c, 1, 68, 64
4, 29444, Note_on_c, 1, 68, 0
4, 29472, Note_on_c, 1, 63, 64
4, 29520, Note_on_c, 1, 63, 0
4, 29520, Note_on_c, 1, 68, 64
4, 29540, Note_on_c, 1, 68, 0
4, 29568, Note_on_c, 1, 63, 64
4, 29616, Note_on_c, 1, 63, 0
4, 29616, Note_on_c, 1, 68, 64
4, 29636, Note_on_c, 1, 68, 0
4, 29664, Note_on_c, 1, 63, 64
4, 29712, Note_on_c, 1, 63, 0
4, 29712, Note_on_c, 1, 68, 64
4, 29732, Note_on_c, 1, 68, 0
4, 29760, Note_on_c, 1, 63, 64
4, 29808, Note_on_c, 1, 63, 0
4, 29808, Note_on_c, 1, 68, 64
4, 29828, Note_on_c, 1, 68, 0
4, 29856, Note_on_c, 1, 63, 64
4, 29904, Note_on_c, 1, 63, 0
4, 29904, Note_on_c, 1, 68, 64
4, 29924, Note_on_c, 1, 68, 0
4, 29952, Note_on_c, 1, 63, 64
4, 30000, Note_on_c, 1, 63, 0
4, 30000, Note_on_c, 1, 67, 64
4, 30020, Note_on_c, 1, 67, 0
4, 30048, Note_on_c, 1, 63, 64
4, 30096, Note_on_c, 1, 63, 0
4, 30096, Note_on_c, 1, 67, 64
4, 30116, Note_on_c, 1, 67, 0
4, 30144, Note_on_c, 1, 63, 64
4, 30192, Note_on_c, 1, 63, 0
4, 30192, Note_on_c, 1, 67, 64
4, 30212, Note_on_c, 1, 67, 0
4, 30240, Note_on_c, 1, 63, 64
4, 30288, Note_on_c, 1, 63, 0
4, 30288, Note_on_c, 1, 67, 64
4, 30308, Note_on_c, 1, 67, 0
4, 30336, Note_on_c, 1, 63, 64
4, 30384, Note_on_c, 1, 63, 0
4, 30384, Note_on_c, 1, 67, 64
4, 30404, Note_on_c, 1, 67, 0
4, 30432, Note_on_c, 1, 63, 64
4, 30480, Note_on_c, 1, 63, 0
4, 30480, Note_on_c, 1, 67, 64
4, 30500, Note_on_c, 1, 67, 0
4, 30528, Note_on_c, 1, 63, 64
4, 30793, Note_on_c, 1, 63, 0
4, 30816, Note_on_c, 1, 62, 64
4, 30993, Note_on_c, 1, 62, 0
4, 31008, Note_on_c, 1, 63, 64
4, 31097, Note_on_c, 1, 63, 0
4, 31104, Note_on_c, 1, 62, 64
4, 31104, Note_on_c, 1, 58, 64
4, 31193, Note_on_c, 1, 62, 0
4, 31193, Note_on_c, 1, 58, 0
4, 31392, Note_on_c, 1, 63, 64
4, 31422, Note_on_c, 1, 63, 0
4, 31424, Note_on_c, 1, 66, 64
4, 31454, Note_on_c, 1, 66, 0
4, 31456, Note_on_c, 1, 70, 64
4, 31486, Note_on_c, 1, 70, 0
4, 31488, Note_on_c, 1, 63, 64
4, 31518, Note_on_c, 1, 63, 0
4, 31520, Note_on_c, 1, 66, 64
4, 31550, Note_on_c, 1, 66, 0
4, 31552, Note_on_c, 1, 70, 64
4, 31582, Note_on_c, 1, 70, 0
4, 31584, Note_on_c, 1, 63, 64
4, 31614, Note_on_c, 1, 63, 0
4, 31616, Note_on_c, 1, 66, 64
4, 31646, Note_on_c, 1, 66, 0
4, 31648, Note_on_c, 1, 70, 64
4, 31678, Note_on_c, 1, 70, 0
4, 31680, Note_on_c, 1, 63, 64
4, 31710, Note_on_c, 1, 63, 0
4, 31712, Note_on_c, 1, 65, 64
4, 31742, Note_on_c, 1, 65, 0
4, 31744, Note_on_c, 1, 68, 64
4, 31774, Note_on_c, 1, 68, 0
4, 31776, Note_on_c, 1, 63, 64
4, 31806, Note_on_c, 1, 63, 0
4, 31808, Note_on_c, 1, 65, 64
4, 31838, Note_on_c, 1, 65, 0
4, 31840, Note_on_c, 1, 68, 64
4, 31870, Note_on_c, 1, 68, 0
4, 31872, Note_on_c, 1, 63, 64
4, 31902, Note_on_c, 1, 63, 0
4, 31904, Note_on_c, 1, 65, 64
4, 31934, Note_on_c, 1, 65, 0
4, 31936, Note_on_c, 1, 68, 64
4, 31966, Note_on_c, 1, 68, 0
4, 31968, Note_on_c, 1, 63, 64
4, 31998, Note_on_c, 1, 63, 0
4, 32000, Note_on_c, 1, 65, 64
4, 32030, Note_on_c, 1, 65, 0
4, 32032, Note_on_c, 1, 68, 64
4, 32062, Note_on_c, 1, 68, 0
4, 32064, Note_on_c, 1, 63, 64
4, 32094, Note_on_c, 1, 63, 0
4, 32096, Note_on_c, 1, 65, 64
4, 32126, Note_on_c, 1, 65, 0
4, 32128, Note_on_c, 1, 68, 64
4, 32158, Note_on_c, 1, 68, 0
4, 32160, Note_on_c, 1, 63, 64
4, 32190, Note_on_c, 1, 63, 0
4, 32192, Note_on_c, 1, 65, 64
4, 32222, Note_on_c, 1, 65, 0
4, 32224, Note_on_c, 1, 68, 64
4, 32254, Note_on_c, 1, 68, 0
4, 32256, Note_on_c, 1, 63, 64
4, 32286, Note_on_c, 1, 63, 0
4, 32288, Note_on_c, 1, 66, 64
4, 32318, Note_on_c, 1, 66, 0
4, 32320, Note_on_c, 1, 70, 64
4, 32350, Note_on_c, 1, 70, 0
4, 32352, Note_on_c, 1, 63, 64
4, 32382, Note_on_c, 1, 63, 0
4, 32384, Note_on_c, 1, 66, 64
4, 32414, Note_on_c, 1, 66, 0
4, 32416, Note_on_c, 1, 70, 65
4, 32446, Note_on_c, 1, 70, 0
4, 32448, Note_on_c, 1, 63, 65
4, 32478, Note_on_c, 1, 63, 0
4, 32480, Note_on_c, 1, 66, 65
4, 32510, Note_on_c, 1, 66, 0
4, 32512, Note_on_c, 1, 70, 65
4, 32542, Note_on_c, 1, 70, 0
4, 32544, Note_on_c, 1, 63, 65
4, 32574, Note_on_c, 1, 63, 0
4, 32576, Note_on_c, 1, 66, 66
4, 32606, Note_on_c, 1, 66, 0
4, 32608, Note_on_c, 1, 70, 66
4, 32638, Note_on_c, 1, 70, 0
4, 32640, Note_on_c, 1, 63, 66
4, 32670, Note_on_c, 1, 63, 0
4, 32672, Note_on_c, 1, 66, 66
4, 32702, Note_on_c, 1, 66, 0
4, 32704, Note_on_c, 1, 70, 66
4, 32734, Note_on_c, 1, 70, 0
4, 32736, Note_on_c, 1, 63, 67
4, 32766, Note_on_c, 1, 63, 0
4, 32768, Note_on_c, 1, 66, 67
4, 32798, Note_on_c, 1, 66, 0
4, 32800, Note_on_c, 1, 70, 67
4, 32830, Note_on_c, 1, 70, 0
4, 32832, Note_on_c, 1, 61, 67
4, 32862, Note_on_c, 1, 61, 0
4, 32864, Note_on_c, 1, 66, 67
4, 32894, Note_on_c, 1, 66, 0
4, 32896, Note_on_c, 1, 70, 68
4, 32926, Note_on_c, 1, 70, 0
4, 32928, Note_on_c, 1, 61, 68
4, 32958, Note_on_c, 1, 61, 0
4, 32960, Note_on_c, 1, 66, 68
4, 32990, Note_on_c, 1, 66, 0
4, 32992, Note_on_c, 1, 70, 68
4, 33022, Note_on_c, 1, 70, 0
4, 33024, Note_on_c, 1, 61, 69
4, 33054, Note_on_c, 1, 61, 0
4, 33056, Note_on_c, 1, 66, 69
4, 33086, Note_on_c, 1, 66, 0
4, 33088, Note_on_c, 1, 70, 69
4, 33118, Note_on_c, 1, 70, 0
4, 33120, Note_on_c, 1, 61, 70
4, 33150, Note_on_c, 1, 61, 0
4, 33152, Note_on_c, 1, 65, 70
4, 33182, Note_on_c, 1, 65, 0
4, 33184, Note_on_c, 1, 71, 70
4, 33214, Note_on_c, 1, 71, 0
4, 33216, Note_on_c, 1, 61, 70
4, 33246, Note_on_c, 1, 61, 0
4, 33248, Note_on_c, 1, 65, 70
4, 33278, Note_on_c, 1, 65, 0
4, 33280, Note_on_c, 1, 71, 70
4, 33310, Note_on_c, 1, 71, 0
4, 33312, Note_on_c, 1, 61, 70
4, 33342, Note_on_c, 1, 61, 0
4, 33344, Note_on_c, 1, 65, 70
4, 33374, Note_on_c, 1, 65, 0
4, 33376, Note_on_c, 1, 71, 70
4, 33406, Note_on_c, 1, 71, 0
4, 33408, Note_on_c, 1, 70, 70
4, 33408, Note_on_c, 1, 66, 70
4, 33497, Note_on_c, 1, 70, 0
4, 33497, Note_on_c, 1, 66, 0
4, 33696, Note_on_c, 1, 63, 64
4, 33726, Note_on_c, 1, 63, 0
4, 33728, Note_on_c, 1, 66, 64
4, 33758, Note_on_c, 1, 66, 0
4, 33760, Note_on_c, 1, 70, 64
4, 33790, Note_on_c, 1, 70, 0
4, 33792, Note_on_c, 1, 63, 64
4, 33822, Note_on_c, 1, 63, 0
4, 33824, Note_on_c, 1, 66, 64
4, 33854, Note_on_c, 1, 66, 0
4, 33856, Note_on_c, 1, 70, 64
4, 33886, Note_on_c, 1, 70, 0
4, 33888, Note_on_c, 1, 63, 64
4, 33918, Note_on_c, 1, 63, 0
4, 33920, Note_on_c, 1, 66, 64
4, 33950, Note_on_c, 1, 66, 0
4, 33952, Note_on_c, 1, 70, 64
4, 33982, Note_on_c, 1, 70, 0
4, 33984, Note_on_c, 1, 63, 64
4, 34014, Note_on_c, 1, 63, 0
4, 34016, Note_on_c, 1, 65, 64
4, 34046, Note_on_c, 1, 65, 0
4, 34048, Note_on_c, 1, 68, 64
4, 34078, Note_on_c, 1, 68, 0
4, 34080, Note_on_c, 1, 63, 64
4, 34110, Note_on_c, 1, 63, 0
4, 34112, Note_on_c, 1, 65, 64
4, 34142, Note_on_c, 1, 65, 0
4, 34144, Note_on_c, 1, 68, 64
4, 34174, Note_on_c, 1, 68, 0
4, 34176, Note_on_c, 1, 63, 64
4, 34206, Note_on_c, 1, 63, 0
4, 34208, Note_on_c, 1, 65, 64
4, 34238, Note_on_c, 1, 65, 0
4, 34240, Note_on_c, 1, 68, 64
4, 34270, Note_on_c, 1, 68, 0
4, 34272, Note_on_c, 1, 63, 64
4, 34302, Note_on_c, 1, 63, 0
4, 34304, Note_on_c, 1, 65, 64
4, 34334, Note_on_c, 1, 65, 0
4, 34336, Note_on_c, 1, 68, 64
4, 34366, Note_on_c, 1, 68, 0
4, 34368, Note_on_c, 1, 63, 64
4, 34398, Note_on_c, 1, 63, 0
4, 34400, Note_on_c, 1, 65, 64
4, 34430, Note_on_c, 1, 65, 0
4, 34432, Note_on_c, 1, 68, 64
4, 34462, Note_on_c, 1, 68, 0
4, 34464, Note_on_c, 1, 63, 64
4, 34494, Note_on_c, 1, 63, 0
4, 34496, Note_on_c, 1, 65, 64
4, 34526, Note_on_c, 1, 65, 0
4, 34528, Note_on_c, 1, 68, 64
4, 34558, Note_on_c, 1, 68, 0
4, 34560, Note_on_c, 1, 63, 64
4, 34590, Note_on_c, 1, 63, 0
4, 34592, Note_on_c, 1, 66, 64
4, 34622, Note_on_c, 1, 66, 0
4, 34624, Note_on_c, 1, 70, 64
4, 34654, Note_on_c, 1, 70, 0
4, 34656, Note_on_c, 1, 63, 64
4, 34686, Note_on_c, 1, 63, 0
4, 34688, Note_on_c, 1, 66, 64
4, 34718, Note_on_c, 1, 66, 0
4, 34720, Note_on_c, 1, 70, 65
4, 34750, Note_on_c, 1, 70, 0
4, 34752, Note_on_c, 1, 63, 65
4, 34782, Note_on_c, 1, 63, 0
4, 34784, Note_on_c, 1, 66, 65
4, 34814, Note_on_c, 1, 66, 0
4, 34816, Note_on_c, 1, 70, 65
4, 34846, Note_on_c, 1, 70, 0
4, 34848, Note_on_c, 1, 63, 65
4, 34878, Note_on_c, 1, 63, 0
4, 34880, Note_on_c, 1, 66, 66
4, 34910, Note_on_c, 1, 66, 0
4, 34912, Note_on_c, 1, 70, 66
4, 34942, Note_on_c, 1, 70, 0
4, 34944, Note_on_c, 1, 63, 66
4, 34974, Note_on_c, 1, 63, 0
4, 34976, Note_on_c, 1, 66, 66
4, 35006, Note_on_c, 1, 66, 0
4, 35008, Note_on_c, 1, 70, 66
4, 35038, Note_on_c, 1, 70, 0
4, 35040, Note_on_c, 1, 63, 67
4, 35070, Note_on_c, 1, 63, 0
4, 35072, Note_on_c, 1, 66, 67
4, 35102, Note_on_c, 1, 66, 0
4, 35104, Note_on_c, 1, 70, 67
4, 35134, Note_on_c, 1, 70, 0
4, 35136, Note_on_c, 1, 61, 67
4, 35166, Note_on_c, 1, 61, 0
4, 35168, Note_on_c, 1, 66, 67
4, 35198, Note_on_c, 1, 66, 0
4, 35200, Note_on_c, 1, 70, 68
4, 35230, Note_on_c, 1, 70, 0
4, 35232, Note_on_c, 1, 61, 68
4, 35262, Note_on_c, 1, 61, 0
4, 35264, Note_on_c, 1, 66, 68
4, 35294, Note_on_c, 1, 66, 0
4, 35296, Note_on_c, 1, 70, 68
4, 35326, Note_on_c, 1, 70, 0
4, 35328, Note_on_c, 1, 61, 69
4, 35358, Note_on_c, 1, 61, 0
4, 35360, Note_on_c, 1, 66, 69
4, 35390, Note_on_c, 1, 66, 0
4, 35392, Note_on_c, 1, 70, 69
4, 35422, Note_on_c, 1, 70, 0
4, 35424, Note_on_c, 1, 61, 70
4, 35454, Note_on_c, 1, 61, 0
4, 35456, Note_on_c, 1, 65, 70
4, 35486, Note_on_c, 1, 65, 0
4, 35488, Note_on_c, 1, 71, 70
4, 35518, Note_on_c, 1, 71, 0
4, 35520, Note_on_c, 1, 61, 70
4, 35550, Note_on_c, 1, 61, 0
4, 35552, Note_on_c, 1, 65, 70
4, 35582, Note_on_c, 1, 65, 0
4, 35584, Note_on_c, 1, 71, 70
4, 35614, Note_on_c, 1, 71, 0
4, 35616, Note_on_c, 1, 61, 70
4, 35646, Note_on_c, 1, 61, 0
4, 35648, Note_on_c, 1, 65, 70
4, 35678, Note_on_c, 1, 65, 0
4, 35680, Note_on_c, 1, 71, 70
4, 35710, Note_on_c, 1, 71, 0
4, 35712, Note_on_c, 1, 70, 70
4, 35712, Note_on_c, 1, 66, 70
4, 35801, Note_on_c, 1, 70, 0
4, 35801, Note_on_c, 1, 66, 0
4, 36000, Note_on_c, 1, 58, 70
4, 36030, Note_on_c, 1, 58, 0
4, 36032, Note_on_c, 1, 62, 70
4, 36062, Note_on_c, 1, 62, 0
4, 36064, Note_on_c, 1, 65, 70
4, 36094, Note_on_c, 1, 65, 0
4, 36096, Note_on_c, 1, 58, 70
4, 36116, Note_on_c, 1, 58, 0
4, 36288, Note_on_c, 1, 51, 70
4, 36318, Note_on_c, 1, 51, 0
4, 36320, Note_on_c, 1, 54, 70
4, 36350, Note_on_c, 1, 54, 0
4, 36352, Note_on_c, 1, 58, 70
4, 36382, Note_on_c, 1, 58, 0
4, 36384, Note_on_c, 1, 51, 70
4, 36404, Note_on_c, 1, 51, 0
4, 36576, Note_on_c, 1, 54, 70
4, 36606, Note_on_c, 1, 54, 0
4, 36608, Note_on_c, 1, 58, 70
4, 36638, Note_on_c, 1, 58, 0
4, 36640, Note_on_c, 1, 61, 70
4, 36670, Note_on_c, 1, 61, 0
4, 36672, Note_on_c, 1, 54, 70
4, 36692, Note_on_c, 1, 54, 0
4, 36864, Note_on_c, 1, 47, 70
4, 36894, Note_on_c, 1, 47, 0
4, 36896, Note_on_c, 1, 51, 70
4, 36926, Note_on_c, 1, 51, 0
4, 36928, Note_on_c, 1, 54, 70
4, 36958, Note_on_c, 1, 54, 0
4, 36960, Note_on_c, 1, 47, 70
4, 36980, Note_on_c, 1, 47, 0
4, 37152, Note_on_c, 1, 59, 75
4, 37152, Note_on_c, 1, 56, 75
4, 37417, Note_on_c, 1, 59, 0
4, 37417, Note_on_c, 1, 56, 0
4, 37440, Note_on_c, 1, 59, 100
4, 37440, Note_on_c, 1, 56, 100
4, 37705, Note_on_c, 1, 59, 0
4, 37705, Note_on_c, 1, 56, 0
4, 37728, Note_on_c, 1, 60, 91
4, 37824, Note_on_c, 1, 60, 0
4, 37824, Note_on_c, 1, 63, 92
4, 37920, Note_on_c, 1, 63, 0
4, 37920, Note_on_c, 1, 66, 78
4, 38193, Note_on_c, 1, 66, 0
4, 38208, Note_on_c, 1, 65, 89
4, 38304, Note_on_c, 1, 65, 0
4, 38304, Note_on_c, 1, 63, 70
4, 38393, Note_on_c, 1, 63, 0
4, 38592, Note_on_c, 1, 58, 70
4, 38622, Note_on_c, 1, 58, 0
4, 38624, Note_on_c, 1, 62, 70
4, 38654, Note_on_c, 1, 62, 0
4, 38656, Note_on_c, 1, 65, 70
4, 38686, Note_on_c, 1, 65, 0
4, 38688, Note_on_c, 1, 58, 70
4, 38708, Note_on_c, 1, 58, 0
4, 38880, Note_on_c, 1, 51, 70
4, 38910, Note_on_c, 1, 51, 0
4, 38912, Note_on_c, 1, 54, 70
4, 38942, Note_on_c, 1, 54, 0
4, 38944, Note_on_c, 1, 58, 70
4, 38974, Note_on_c, 1, 58, 0
4, 38976, Note_on_c, 1, 51, 70
4, 38996, Note_on_c, 1, 51, 0
4, 39168, Note_on_c, 1, 54, 70
4, 39198, Note_on_c, 1, 54, 0
4, 39200, Note_on_c, 1, 58, 70
4, 39230, Note_on_c, 1, 58, 0
4, 39232, Note_on_c, 1, 61, 70
4, 39262, Note_on_c, 1, 61, 0
4, 39264, Note_on_c, 1, 54, 70
4, 39284, Note_on_c, 1, 54, 0
4, 39456, Note_on_c, 1, 47, 70
4, 39486, Note_on_c, 1, 47, 0
4, 39488, Note_on_c, 1, 51, 70
4, 39518, Note_on_c, 1, 51, 0
4, 39520, Note_on_c, 1, 54, 70
4, 39550, Note_on_c, 1, 54, 0
4, 39552, Note_on_c, 1, 47, 70
4, 39572, Note_on_c, 1, 47, 0
4, 39744, Note_on_c, 1, 59, 100
4, 39744, Note_on_c, 1, 56, 100
4, 40024, Note_on_c, 1, 59, 0
4, 40024, Note_on_c, 1, 56, 0
4, 40032, Note_on_c, 1, 59, 100
4, 40032, Note_on_c, 1, 56, 100
4, 40297, Note_on_c, 1, 59, 0
4, 40297, Note_on_c, 1, 56, 0
4, 40320, Note_on_c, 1, 60, 91
4, 40416, Note_on_c, 1, 60, 0
4, 40416, Note_on_c, 1, 63, 92
4, 40512, Note_on_c, 1, 63, 0
4, 40512, Note_on_c, 1, 66, 78
4, 40601, Note_on_c, 1, 66, 0
4, 40608, Note_on_c, 1, 68, 96
4, 40608, Note_on_c, 1, 65, 96
4, 40608, Note_on_c, 1, 58, 96
4, 41161, Note_on_c, 1, 68, 0
4, 41161, Note_on_c, 1, 65, 0
4, 41161, Note_on_c, 1, 58, 0
4, 41184, Note_on_c, 1, 63, 58
4, 41232, Note_on_c, 1, 63, 0
4, 41232, Note_on_c, 1, 67, 58
4, 41252, Note_on_c, 1, 67, 0
4, 41280, Note_on_c, 1, 63, 58
4, 41328, Note_on_c, 1, 63, 0
4, 41328, Note_on_c, 1, 67, 58
4, 41348, Note_on_c, 1, 67, 0
4, 41376, Note_on_c, 1, 63, 58
4, 41424, Note_on_c, 1, 63, 0
4, 41424, Note_on_c, 1, 67, 58
4, 41444, Note_on_c, 1, 67, 0
4, 41472, Note_on_c, 1, 63, 58
4, 41520, Note_on_c, 1, 63, 0
4, 41520, Note_on_c, 1, 68, 58
4, 41540, Note_on_c, 1, 68, 0
4, 41568, Note_on_c, 1, 63, 58
4, 41616, Note_on_c, 1, 63, 0
4, 41616, Note_on_c, 1, 68, 58
4, 41636, Note_on_c, 1, 68, 0
4, 41664, Note_on_c, 1, 63, 58
4, 41712, Note_on_c, 1, 63, 0
4, 41712, Note_on_c, 1, 68, 58
4, 41732, Note_on_c, 1, 68, 0
4, 41760, Note_on_c, 1, 63, 58
4, 41808, Note_on_c, 1, 63, 0
4, 41808, Note_on_c, 1, 68, 58
4, 41828, Note_on_c, 1, 68, 0
4, 41856, Note_on_c, 1, 63, 58
4, 41904, Note_on_c, 1, 63, 0
4, 41904, Note_on_c, 1, 68, 58
4, 41924, Note_on_c, 1, 68, 0
4, 41952, Note_on_c, 1, 63, 58
4, 42000, Note_on_c, 1, 63, 0
4, 42000, Note_on_c, 1, 68, 58
4, 42020, Note_on_c, 1, 68, 0
4, 42048, Note_on_c, 1, 63, 58
4, 42096, Note_on_c, 1, 63, 0
4, 42096, Note_on_c, 1, 67, 58
4, 42116, Note_on_c, 1, 67, 0
4, 42144, Note_on_c, 1, 63, 58
4, 42192, Note_on_c, 1, 63, 0
4, 42192, Note_on_c, 1, 67, 58
4, 42212, Note_on_c, 1, 67, 0
4, 42240, Note_on_c, 1, 63, 58
4, 42288, Note_on_c, 1, 63, 0
4, 42288, Note_on_c, 1, 67, 58
4, 42308, Note_on_c, 1, 67, 0
4, 42336, Note_on_c, 1, 63, 58
4, 42384, Note_on_c, 1, 63, 0
4, 42384, Note_on_c, 1, 67, 58
4, 42404, Note_on_c, 1, 67, 0
4, 42432, Note_on_c, 1, 63, 58
4, 42480, Note_on_c, 1, 63, 0
4, 42480, Note_on_c, 1, 67, 58
4, 42500, Note_on_c, 1, 67, 0
4, 42528, Note_on_c, 1, 63, 58
4, 42576, Note_on_c, 1, 63, 0
4, 42576, Note_on_c, 1, 67, 58
4, 42596, Note_on_c, 1, 67, 0
4, 42624, Note_on_c, 1, 63, 58
4, 42889, Note_on_c, 1, 63, 0
4, 42912, Note_on_c, 1, 62, 58
4, 43089, Note_on_c, 1, 62, 0
4, 43104, Note_on_c, 1, 63, 58
4, 43193, Note_on_c, 1, 63, 0
4, 43200, Note_on_c, 1, 62, 58
4, 43200, Note_on_c, 1, 58, 58
4, 43239, Note_on_c, 1, 62, 0
4, 43239, Note_on_c, 1, 58, 0
4, 43520, Note_on_c, 1, 48, 80
4, 43550, Note_on_c, 1, 48, 0
4, 43552, Note_on_c, 1, 46, 80
4, 43582, Note_on_c, 1, 46, 0
4, 43584, Note_on_c, 1, 44, 80
4, 43614, Note_on_c, 1, 44, 0
4, 43616, Note_on_c, 1, 43, 80
4, 43646, Note_on_c, 1, 43, 0
4, 43648, Note_on_c, 1, 41, 80
4, 43678, Note_on_c, 1, 41, 0
4, 43680, Note_on_c, 1, 39, 80
4, 43710, Note_on_c, 1, 39, 0
4, 43712, Note_on_c, 1, 38, 80
4, 43742, Note_on_c, 1, 38, 0
4, 43744, Note_on_c, 1, 41, 80
4, 43774, Note_on_c, 1, 41, 0
4, 43776, Note_on_c, 1, 39, 80
4, 43865, Note_on_c, 1, 39, 0
4, 43968, Note_on_c, 1, 58, 75
4, 43998, Note_on_c, 1, 58, 0
4, 44000, Note_on_c, 1, 62, 75
4, 44030, Note_on_c, 1, 62, 0
4, 44032, Note_on_c, 1, 65, 75
4, 44062, Note_on_c, 1, 65, 0
4, 44064, Note_on_c, 1, 68, 75
4, 44084, Note_on_c, 1, 68, 0
4, 44160, Note_on_c, 1, 68, 75
4, 44180, Note_on_c, 1, 68, 0
4, 44256, Note_on_c, 1, 68, 75
4, 44276, Note_on_c, 1, 68, 0
4, 44352, Note_on_c, 1, 67, 75
4, 44441, Note_on_c, 1, 67, 0
4, 44544, Note_on_c, 1, 70, 70
4, 44544, Note_on_c, 1, 67, 70
4, 44633, Note_on_c, 1, 70, 0
4, 44633, Note_on_c, 1, 67, 0
4, 44640, Note_on_c, 1, 68, 70
4, 44640, Note_on_c, 1, 65, 70
4, 44729, Note_on_c, 1, 68, 0
4, 44729, Note_on_c, 1, 65, 0
4, 44736, Note_on_c, 1, 67, 70
4, 44736, Note_on_c, 1, 63, 70
4, 44825, Note_on_c, 1, 67, 0
4, 44825, Note_on_c, 1, 63, 0
4, 44832, Note_on_c, 1, 65, 70
4, 44832, Note_on_c, 1, 62, 70
4, 44921, Note_on_c, 1, 65, 0
4, 44921, Note_on_c, 1, 62, 0
4, 44928, Note_on_c, 1, 63, 70
4, 44928, Note_on_c, 1, 60, 70
4, 45017, Note_on_c, 1, 63, 0
4, 45017, Note_on_c, 1, 60, 0
4, 45024, Note_on_c, 1, 62, 70
4, 45024, Note_on_c, 1, 58, 70
4, 45113, Note_on_c, 1, 62, 0
4, 45113, Note_on_c, 1, 58, 0
4, 45120, Note_on_c, 1, 60, 70
4, 45120, Note_on_c, 1, 56, 70
4, 45209, Note_on_c, 1, 60, 0
4, 45209, Note_on_c, 1, 56, 0
4, 45216, Note_on_c, 1, 58, 70
4, 45216, Note_on_c, 1, 55, 70
4, 45305, Note_on_c, 1, 58, 0
4, 45305, Note_on_c, 1, 55, 0
4, 45312, Note_on_c, 1, 56, 70
4, 45489, Note_on_c, 1, 56, 0
4, 45504, Note_on_c, 1, 55, 75
4, 45600, Note_on_c, 1, 55, 0
4, 45600, Note_on_c, 1, 53, 67
4, 45645, Note_on_c, 1, 53, 0
4, 45792, Note_on_c, 1, 51, 70
4, 45822, Note_on_c, 1, 51, 0
4, 45824, Note_on_c, 1, 55, 70
4, 45854, Note_on_c, 1, 55, 0
4, 45856, Note_on_c, 1, 58, 70
4, 45886, Note_on_c, 1, 58, 0
4, 45888, Note_on_c, 1, 51, 70
4, 45918, Note_on_c, 1, 51, 0
4, 45920, Note_on_c, 1, 55, 70
4, 45950, Note_on_c, 1, 55, 0
4, 45952, Note_on_c, 1, 58, 70
4, 45982, Note_on_c, 1, 58, 0
4, 45984, Note_on_c, 1, 51, 70
4, 46014, Note_on_c, 1, 51, 0
4, 46016, Note_on_c, 1, 55, 70
4, 46046, Note_on_c, 1, 55, 0
4, 46048, Note_on_c, 1, 58, 70
4, 46078, Note_on_c, 1, 58, 0
4, 46080, Note_on_c, 1, 51, 70
4, 46110, Note_on_c, 1, 51, 0
4, 46112, Note_on_c, 1, 53, 70
4, 46142, Note_on_c, 1, 53, 0
4, 46144, Note_on_c, 1, 56, 70
4, 46174, Note_on_c, 1, 56, 0
4, 46176, Note_on_c, 1, 51, 70
4, 46206, Note_on_c, 1, 51, 0
4, 46208, Note_on_c, 1, 53, 70
4, 46238, Note_on_c, 1, 53, 0
4, 46240, Note_on_c, 1, 56, 70
4, 46270, Note_on_c, 1, 56, 0
4, 46272, Note_on_c, 1, 51, 70
4, 46302, Note_on_c, 1, 51, 0
4, 46304, Note_on_c, 1, 53, 70
4, 46334, Note_on_c, 1, 53, 0
4, 46336, Note_on_c, 1, 56, 70
4, 46366, Note_on_c, 1, 56, 0
4, 46368, Note_on_c, 1, 51, 70
4, 46398, Note_on_c, 1, 51, 0
4, 46400, Note_on_c, 1, 53, 70
4, 46430, Note_on_c, 1, 53, 0
4, 46432, Note_on_c, 1, 56, 70
4, 46462, Note_on_c, 1, 56, 0
4, 46464, Note_on_c, 1, 51, 70
4, 46494, Note_on_c, 1, 51, 0
4, 46496, Note_on_c, 1, 53, 70
4, 46526, Note_on_c, 1, 53, 0
4, 46528, Note_on_c, 1, 56, 70
4, 46558, Note_on_c, 1, 56, 0
4, 46560, Note_on_c, 1, 51, 70
4, 46590, Note_on_c, 1, 51, 0
4, 46592, Note_on_c, 1, 53, 70
4, 46622, Note_on_c, 1, 53, 0
4, 46624, Note_on_c, 1, 56, 70
4, 46654, Note_on_c, 1, 56, 0
4, 46656, Note_on_c, 1, 51, 70
4, 46686, Note_on_c, 1, 51, 0
4, 46688, Note_on_c, 1, 55, 70
4, 46718, Note_on_c, 1, 55, 0
4, 46720, Note_on_c, 1, 58, 70
4, 46750, Note_on_c, 1, 58, 0
4, 46752, Note_on_c, 1, 51, 70
4, 46782, Note_on_c, 1, 51, 0
4, 46784, Note_on_c, 1, 55, 70
4, 46814, Note_on_c, 1, 55, 0
4, 46816, Note_on_c, 1, 58, 70
4, 46846, Note_on_c, 1, 58, 0
4, 46848, Note_on_c, 1, 51, 70
4, 46878, Note_on_c, 1, 51, 0
4, 46880, Note_on_c, 1, 55, 70
4, 46910, Note_on_c, 1, 55, 0
4, 46912, Note_on_c, 1, 58, 70
4, 46942, Note_on_c, 1, 58, 0
4, 46944, Note_on_c, 1, 49, 75
4, 46974, Note_on_c, 1, 49, 0
4, 46976, Note_on_c, 1, 55, 75
4, 47006, Note_on_c, 1, 55, 0
4, 47008, Note_on_c, 1, 58, 75
4, 47038, Note_on_c, 1, 58, 0
4, 47040, Note_on_c, 1, 49, 75
4, 47070, Note_on_c, 1, 49, 0
4, 47072, Note_on_c, 1, 55, 75
4, 47102, Note_on_c, 1, 55, 0
4, 47104, Note_on_c, 1, 58, 75
4, 47134, Note_on_c, 1, 58, 0
4, 47136, Note_on_c, 1, 49, 76
4, 47166, Note_on_c, 1, 49, 0
4, 47168, Note_on_c, 1, 55, 76
4, 47198, Note_on_c, 1, 55, 0
4, 47200, Note_on_c, 1, 58, 76
4, 47230, Note_on_c, 1, 58, 0
4, 47232, Note_on_c, 1, 48, 76
4, 47262, Note_on_c, 1, 48, 0
4, 47264, Note_on_c, 1, 51, 76
4, 47294, Note_on_c, 1, 51, 0
4, 47296, Note_on_c, 1, 56, 77
4, 47326, Note_on_c, 1, 56, 0
4, 47328, Note_on_c, 1, 48, 77
4, 47358, Note_on_c, 1, 48, 0
4, 47360, Note_on_c, 1, 51, 77
4, 47390, Note_on_c, 1, 51, 0
4, 47392, Note_on_c, 1, 56, 77
4, 47422, Note_on_c, 1, 56, 0
4, 47424, Note_on_c, 1, 44, 77
4, 47454, Note_on_c, 1, 44, 0
4, 47456, Note_on_c, 1, 48, 78
4, 47486, Note_on_c, 1, 48, 0
4, 47488, Note_on_c, 1, 53, 78
4, 47518, Note_on_c, 1, 53, 0
4, 47520, Note_on_c, 1, 55, 78
4, 47697, Note_on_c, 1, 55, 0
4, 47712, Note_on_c, 1, 56, 80
4, 47801, Note_on_c, 1, 56, 0
4, 47808, Note_on_c, 1, 55, 80
4, 47808, Note_on_c, 1, 51, 80
4, 47853, Note_on_c, 1, 55, 0
4, 47853, Note_on_c, 1, 51, 0
4, 48096, Note_on_c, 1, 46, 64
4, 48126, Note_on_c, 1, 46, 0
4, 48128, Note_on_c, 1, 50, 64
4, 48158, Note_on_c, 1, 50, 0
4, 48160, Note_on_c, 1, 53, 64
4, 48190, Note_on_c, 1, 53, 0
4, 48192, Note_on_c, 1, 56, 64
4, 48212, Note_on_c, 1, 56, 0
4, 48384, Note_on_c, 1, 39, 64
4, 48414, Note_on_c, 1, 39, 0
4, 48416, Note_on_c, 1, 43, 64
4, 48446, Note_on_c, 1, 43, 0
4, 48448, Note_on_c, 1, 46, 64
4, 48478, Note_on_c, 1, 46, 0
4, 48480, Note_on_c, 1, 51, 64
4, 48500, Note_on_c, 1, 51, 0
4, 48672, Note_on_c, 1, 34, 64
4, 48702, Note_on_c, 1, 34, 0
4, 48704, Note_on_c, 1, 38, 64
4, 48734, Note_on_c, 1, 38, 0
4, 48736, Note_on_c, 1, 41, 64
4, 48766, Note_on_c, 1, 41, 0
4, 48768, Note_on_c, 1, 46, 64
4, 48788, Note_on_c, 1, 46, 0
4, 48960, Note_on_c, 1, 39, 64
4, 48990, Note_on_c, 1, 39, 0
4, 48992, Note_on_c, 1, 43, 66
4, 49022, Note_on_c, 1, 43, 0
4, 49024, Note_on_c, 1, 46, 68
4, 49054, Note_on_c, 1, 46, 0
4, 49056, Note_on_c, 1, 51, 70
4, 49086, Note_on_c, 1, 51, 0
4, 49088, Note_on_c, 1, 46, 72
4, 49118, Note_on_c, 1, 46, 0
4, 49120, Note_on_c, 1, 43, 74
4, 49150, Note_on_c, 1, 43, 0
4, 49152, Note_on_c, 1, 46, 76
4, 49172, Note_on_c, 1, 46, 0
4, 49248, Note_on_c, 1, 51, 80
4, 49248, Note_on_c, 1, 39, 80
4, 49268, Note_on_c, 1, 51, 0
4, 49268, Note_on_c, 1, 39, 0
4, 49536, Note_on_c, 1, 39, 0
4, 49625, Note_on_c, 1, 39, 0
4, 49632, End_track
5, 0, Start_track
5, 0, Program_c, 1, 0
5, 0, Control_c, 1, 7, 127
5, 0, Control_c, 1, 10, 64
5, 2016, Note_on_c, 1, 53, 64
5, 2281, Note_on_c, 1, 53, 0
5, 4320, Note_on_c, 1, 53, 64
5, 4585, Note_on_c, 1, 53, 0
5, 6912, Note_on_c, 1, 46, 64
5, 7045, Note_on_c, 1, 46, 0
5, 8928, Note_on_c, 1, 58, 80
5, 9105, Note_on_c, 1, 58, 0
5, 9216, Note_on_c, 1, 63, 80
5, 9305, Note_on_c, 1, 63, 0
5, 11520, Note_on_c, 1, 46, 64
5, 11653, Note_on_c, 1, 46, 0
5, 13536, Note_on_c, 1, 58, 80
5, 13713, Note_on_c, 1, 58, 0
5, 13824, Note_on_c, 1, 63, 80
5, 13913, Note_on_c, 1, 63, 0
5, 19584, Note_on_c, 1, 46, 80
5, 19849, Note_on_c, 1, 46, 0
5, 20448, Note_on_c, 1, 44, 80
5, 20713, Note_on_c, 1, 44, 0
5, 20736, Note_on_c, 1, 46, 80
5, 20913, Note_on_c, 1, 46, 0
5, 24192, Note_on_c, 1, 46, 80
5, 24457, Note_on_c, 1, 46, 0
5, 25056, Note_on_c, 1, 44, 80
5, 25321, Note_on_c, 1, 44, 0
5, 25344, Note_on_c, 1, 46, 80
5, 25521, Note_on_c, 1, 46, 0
5, 30816, Note_on_c, 1, 53, 80
5, 31081, Note_on_c, 1, 53, 0
5, 37728, Note_on_c, 1, 57, 80
5, 37993, Note_on_c, 1, 57, 0
5, 38016, Note_on_c, 1, 58, 80
5, 38281, Note_on_c, 1, 58, 0
5, 38304, Note_on_c, 1, 63, 80
5, 38393, Note_on_c, 1, 63, 0
5, 40320, Note_on_c, 1, 57, 80
5, 40585, Note_on_c, 1, 57, 0
5, 42912, Note_on_c, 1, 53, 80
5, 43177, Note_on_c, 1, 53, 0
5, 45504, Note_on_c, 1, 46, 80
5, 45637, Note_on_c, 1, 46, 0
5, 47520, Note_on_c, 1, 46, 86
5, 47785, Note_on_c, 1, 46, 0
5, 49536, End_track
6, 0, Start_track
6, 0, Title_t, "Sonata I   Haydn  "
6, 0, End_track
0, 0, End_of_file
