0, 0, Header, 1, 6, 96
1, 0, Start_track
1, 0, Copyright_t, "Copyright  2000 <copyright holder>"
1, 0, Text_t, "Sonata I\015\012"
1, 0, Text_t, "Haydn\015\012"
1, 0, Sequencer_specific, 16, 68, 87, 77, 90, 86, 82, 83, 78, 32, 55, 46, 49, 46, 50, 46, 48
1, 0, Time_signature, 6, 3, 24, 8
1, 0, Tempo, 100000
1, 0, Key_signature, 1, "major"
1, 240, Tempo, 705882
1, 6912, Tempo, 1200000
1, 7104, Tempo, 705882
1, 11520, Tempo, 1200000
1, 11712, Tempo, 705882
1, 14016, Tempo, 1395348
1, 14064, Tempo, 705882
1, 14112, Key_signature, -2, "major"
1, 15840, Key_signature, -2, "major"
1, 20928, Tempo, 1395348
1, 20976, Tempo, 705882
1, 21024, Key_signature, 1, "major"
1, 23328, Key_signature, 1, "major"
1, 27792, Tempo, 1500000
1, 27888, Tempo, 705882
1, 32400, Tempo, 1500000
1, 32496, Tempo, 705882
1, 34752, Tempo, 1395348
1, 34800, Tempo, 705882
1, 34848, Key_signature, -2, "major"
1, 36576, Key_signature, -2, "major"
1, 41664, Tempo, 1395348
1, 41712, Tempo, 705882
1, 41760, Key_signature, 1, "major"
1, 44064, Key_signature, 1, "major"
1, 48672, Tempo, 722891
1, 48816, Tempo, 750000
1, 48960, Tempo, 857142
1, 49008, Tempo, 1000000
1, 49248, Tempo, 705882
1, 49368, Tempo, 2400000
1, 49488, Tempo, 705882
1, 54144, Tempo, 722891
1, 54288, Tempo, 750000
1, 54432, Tempo, 857142
1, 54480, Tempo, 1000000
1, 54720, Tempo, 705882
1, 54840, Tempo, 2400000
1, 54960, Tempo, 705882
1, 57312, End_track
2, 0, Start_track
2, 0, Program_c, 0, 0
2, 0, Control_c, 0, 7, 127
2, 0, Control_c, 0, 10, 64
2, 240, Note_on_c, 0, 67, 86
2, 260, Note_on_c, 0, 67, 0
2, 288, Note_on_c, 0, 67, 86
2, 384, Note_on_c, 0, 67, 0
2, 384, Note_on_c, 0, 71, 70
2, 396, Note_on_c, 0, 71, 0
2, 396, Note_on_c, 0, 69, 70
2, 429, Note_on_c, 0, 69, 0
2, 432, Note_on_c, 0, 62, 70
2, 477, Note_on_c, 0, 62, 0
2, 480, Note_on_c, 0, 64, 70
2, 525, Note_on_c, 0, 64, 0
2, 528, Note_on_c, 0, 67, 70
2, 540, Note_on_c, 0, 67, 0
2, 540, Note_on_c, 0, 66, 70
2, 552, Note_on_c, 0, 66, 0
2, 552, Note_on_c, 0, 64, 70
2, 564, Note_on_c, 0, 64, 0
2, 564, Note_on_c, 0, 66, 70
2, 576, Note_on_c, 0, 66, 0
2, 576, Note_on_c, 0, 67, 86
2, 596, Note_on_c, 0, 67, 0
2, 624, Note_on_c, 0, 67, 77
2, 644, Note_on_c, 0, 67, 0
2, 672, Note_on_c, 0, 67, 73
2, 692, Note_on_c, 0, 67, 0
2, 720, Note_on_c, 0, 67, 70
2, 809, Note_on_c, 0, 67, 0
2, 816, Note_on_c, 0, 69, 70
2, 816, Note_on_c, 0, 62, 70
2, 836, Note_on_c, 0, 69, 0
2, 836, Note_on_c, 0, 62, 0
2, 864, Note_on_c, 0, 72, 70
2, 876, Note_on_c, 0, 72, 0
2, 876, Note_on_c, 0, 71, 70
2, 912, Note_on_c, 0, 71, 0
2, 912, Note_on_c, 0, 69, 72
2, 957, Note_on_c, 0, 69, 0
2, 960, Note_on_c, 0, 71, 74
2, 1005, Note_on_c, 0, 71, 0
2, 1008, Note_on_c, 0, 74, 93
2, 1056, Note_on_c, 0, 74, 0
2, 1056, Note_on_c, 0, 72, 75
2, 1101, Note_on_c, 0, 72, 0
2, 1104, Note_on_c, 0, 71, 74
2, 1124, Note_on_c, 0, 71, 0
2, 1152, Note_on_c, 0, 71, 89
2, 1152, Note_on_c, 0, 67, 89
2, 1200, Note_on_c, 0, 71, 0
2, 1200, Note_on_c, 0, 67, 0
2, 1200, Note_on_c, 0, 69, 72
2, 1200, Note_on_c, 0, 66, 72
2, 1220, Note_on_c, 0, 69, 0
2, 1220, Note_on_c, 0, 66, 0
2, 1248, Note_on_c, 0, 69, 71
2, 1248, Note_on_c, 0, 66, 71
2, 1268, Note_on_c, 0, 69, 0
2, 1268, Note_on_c, 0, 66, 0
2, 1296, Note_on_c, 0, 69, 86
2, 1296, Note_on_c, 0, 66, 86
2, 1392, Note_on_c, 0, 69, 0
2, 1392, Note_on_c, 0, 66, 0
2, 1392, Note_on_c, 0, 71, 71
2, 1392, Note_on_c, 0, 68, 71
2, 1412, Note_on_c, 0, 71, 0
2, 1412, Note_on_c, 0, 68, 0
2, 1440, Note_on_c, 0, 72, 72
2, 1440, Note_on_c, 0, 69, 72
2, 1485, Note_on_c, 0, 72, 0
2, 1485, Note_on_c, 0, 69, 0
2, 1488, Note_on_c, 0, 74, 73
2, 1488, Note_on_c, 0, 71, 73
2, 1533, Note_on_c, 0, 74, 0
2, 1533, Note_on_c, 0, 71, 0
2, 1536, Note_on_c, 0, 76, 74
2, 1536, Note_on_c, 0, 72, 74
2, 1556, Note_on_c, 0, 76, 0
2, 1556, Note_on_c, 0, 72, 0
2, 1584, Note_on_c, 0, 76, 91
2, 1584, Note_on_c, 0, 72, 91
2, 1680, Note_on_c, 0, 76, 0
2, 1680, Note_on_c, 0, 72, 0
2, 1680, Note_on_c, 0, 74, 77
2, 1692, Note_on_c, 0, 74, 0
2, 1692, Note_on_c, 0, 72, 77
2, 1704, Note_on_c, 0, 72, 0
2, 1704, Note_on_c, 0, 71, 77
2, 1716, Note_on_c, 0, 71, 0
2, 1716, Note_on_c, 0, 72, 77
2, 1728, Note_on_c, 0, 72, 0
2, 1728, Note_on_c, 0, 71, 77
2, 1728, Note_on_c, 0, 67, 77
2, 1773, Note_on_c, 0, 71, 0
2, 1773, Note_on_c, 0, 67, 0
2, 1776, Note_on_c, 0, 72, 77
2, 1776, Note_on_c, 0, 69, 77
2, 1821, Note_on_c, 0, 72, 0
2, 1821, Note_on_c, 0, 69, 0
2, 1824, Note_on_c, 0, 74, 78
2, 1824, Note_on_c, 0, 71, 78
2, 1869, Note_on_c, 0, 74, 0
2, 1869, Note_on_c, 0, 71, 0
2, 1872, Note_on_c, 0, 72, 79
2, 1917, Note_on_c, 0, 72, 0
2, 1920, Note_on_c, 0, 74, 79
2, 1965, Note_on_c, 0, 74, 0
2, 1968, Note_on_c, 0, 76, 80
2, 2013, Note_on_c, 0, 76, 0
2, 2016, Note_on_c, 0, 74, 81
2, 2036, Note_on_c, 0, 74, 0
2, 2064, Note_on_c, 0, 79, 81
2, 2084, Note_on_c, 0, 79, 0
2, 2112, Note_on_c, 0, 79, 82
2, 2132, Note_on_c, 0, 79, 0
2, 2160, Note_on_c, 0, 81, 83
2, 2184, Note_on_c, 0, 81, 0
2, 2184, Note_on_c, 0, 79, 83
2, 2205, Note_on_c, 0, 79, 0
2, 2208, Note_on_c, 0, 78, 84
2, 2231, Note_on_c, 0, 78, 0
2, 2232, Note_on_c, 0, 76, 83
2, 2255, Note_on_c, 0, 76, 0
2, 2256, Note_on_c, 0, 74, 82
2, 2279, Note_on_c, 0, 74, 0
2, 2280, Note_on_c, 0, 73, 81
2, 2303, Note_on_c, 0, 73, 0
2, 2304, Note_on_c, 0, 76, 81
2, 2352, Note_on_c, 0, 76, 0
2, 2352, Note_on_c, 0, 74, 79
2, 2397, Note_on_c, 0, 74, 0
2, 2400, Note_on_c, 0, 74, 78
2, 2420, Note_on_c, 0, 74, 0
2, 2448, Note_on_c, 0, 74, 77
2, 2515, Note_on_c, 0, 74, 0
2, 2520, Note_on_c, 0, 71, 77
2, 2543, Note_on_c, 0, 71, 0
2, 2544, Note_on_c, 0, 72, 77
2, 2567, Note_on_c, 0, 72, 0
2, 2568, Note_on_c, 0, 69, 77
2, 2591, Note_on_c, 0, 69, 0
2, 2592, Note_on_c, 0, 67, 86
2, 2688, Note_on_c, 0, 67, 0
2, 2688, Note_on_c, 0, 71, 70
2, 2700, Note_on_c, 0, 71, 0
2, 2700, Note_on_c, 0, 69, 70
2, 2733, Note_on_c, 0, 69, 0
2, 2736, Note_on_c, 0, 62, 70
2, 2781, Note_on_c, 0, 62, 0
2, 2784, Note_on_c, 0, 64, 70
2, 2829, Note_on_c, 0, 64, 0
2, 2832, Note_on_c, 0, 67, 70
2, 2844, Note_on_c, 0, 67, 0
2, 2844, Note_on_c, 0, 66, 70
2, 2856, Note_on_c, 0, 66, 0
2, 2856, Note_on_c, 0, 64, 70
2, 2868, Note_on_c, 0, 64, 0
2, 2868, Note_on_c, 0, 66, 70
2, 2880, Note_on_c, 0, 66, 0
2, 2880, Note_on_c, 0, 67, 86
2, 2900, Note_on_c, 0, 67, 0
2, 2928, Note_on_c, 0, 67, 77
2, 2948, Note_on_c, 0, 67, 0
2, 2976, Note_on_c, 0, 67, 73
2, 2996, Note_on_c, 0, 67, 0
2, 3024, Note_on_c, 0, 67, 70
2, 3113, Note_on_c, 0, 67, 0
2, 3120, Note_on_c, 0, 69, 70
2, 3120, Note_on_c, 0, 62, 70
2, 3140, Note_on_c, 0, 69, 0
2, 3140, Note_on_c, 0, 62, 0
2, 3168, Note_on_c, 0, 72, 70
2, 3180, Note_on_c, 0, 72, 0
2, 3180, Note_on_c, 0, 71, 70
2, 3216, Note_on_c, 0, 71, 0
2, 3216, Note_on_c, 0, 69, 72
2, 3261, Note_on_c, 0, 69, 0
2, 3264, Note_on_c, 0, 71, 74
2, 3309, Note_on_c, 0, 71, 0
2, 3312, Note_on_c, 0, 74, 93
2, 3360, Note_on_c, 0, 74, 0
2, 3360, Note_on_c, 0, 72, 75
2, 3405, Note_on_c, 0, 72, 0
2, 3408, Note_on_c, 0, 71, 74
2, 3428, Note_on_c, 0, 71, 0
2, 3456, Note_on_c, 0, 71, 89
2, 3456, Note_on_c, 0, 67, 89
2, 3504, Note_on_c, 0, 71, 0
2, 3504, Note_on_c, 0, 67, 0
2, 3504, Note_on_c, 0, 69, 72
2, 3504, Note_on_c, 0, 66, 72
2, 3524, Note_on_c, 0, 69, 0
2, 3524, Note_on_c, 0, 66, 0
2, 3552, Note_on_c, 0, 69, 71
2, 3552, Note_on_c, 0, 66, 71
2, 3572, Note_on_c, 0, 69, 0
2, 3572, Note_on_c, 0, 66, 0
2, 3600, Note_on_c, 0, 69, 86
2, 3600, Note_on_c, 0, 66, 86
2, 3696, Note_on_c, 0, 69, 0
2, 3696, Note_on_c, 0, 66, 0
2, 3696, Note_on_c, 0, 71, 71
2, 3696, Note_on_c, 0, 68, 71
2, 3716, Note_on_c, 0, 71, 0
2, 3716, Note_on_c, 0, 68, 0
2, 3744, Note_on_c, 0, 72, 72
2, 3744, Note_on_c, 0, 69, 72
2, 3789, Note_on_c, 0, 72, 0
2, 3789, Note_on_c, 0, 69, 0
2, 3792, Note_on_c, 0, 74, 73
2, 3792, Note_on_c, 0, 71, 73
2, 3837, Note_on_c, 0, 74, 0
2, 3837, Note_on_c, 0, 71, 0
2, 3840, Note_on_c, 0, 76, 74
2, 3840, Note_on_c, 0, 72, 74
2, 3860, Note_on_c, 0, 76, 0
2, 3860, Note_on_c, 0, 72, 0
2, 3888, Note_on_c, 0, 76, 91
2, 3888, Note_on_c, 0, 72, 91
2, 3984, Note_on_c, 0, 76, 0
2, 3984, Note_on_c, 0, 72, 0
2, 3984, Note_on_c, 0, 74, 77
2, 3996, Note_on_c, 0, 74, 0
2, 3996, Note_on_c, 0, 72, 77
2, 4008, Note_on_c, 0, 72, 0
2, 4008, Note_on_c, 0, 71, 77
2, 4020, Note_on_c, 0, 71, 0
2, 4020, Note_on_c, 0, 72, 77
2, 4032, Note_on_c, 0, 72, 0
2, 4032, Note_on_c, 0, 71, 77
2, 4032, Note_on_c, 0, 67, 77
2, 4077, Note_on_c, 0, 71, 0
2, 4077, Note_on_c, 0, 67, 0
2, 4080, Note_on_c, 0, 72, 77
2, 4080, Note_on_c, 0, 69, 77
2, 4125, Note_on_c, 0, 72, 0
2, 4125, Note_on_c, 0, 69, 0
2, 4128, Note_on_c, 0, 74, 78
2, 4128, Note_on_c, 0, 71, 78
2, 4173, Note_on_c, 0, 74, 0
2, 4173, Note_on_c, 0, 71, 0
2, 4176, Note_on_c, 0, 72, 79
2, 4221, Note_on_c, 0, 72, 0
2, 4224, Note_on_c, 0, 74, 79
2, 4269, Note_on_c, 0, 74, 0
2, 4272, Note_on_c, 0, 76, 80
2, 4317, Note_on_c, 0, 76, 0
2, 4320, Note_on_c, 0, 74, 81
2, 4340, Note_on_c, 0, 74, 0
2, 4368, Note_on_c, 0, 79, 81
2, 4388, Note_on_c, 0, 79, 0
2, 4416, Note_on_c, 0, 79, 82
2, 4436, Note_on_c, 0, 79, 0
2, 4464, Note_on_c, 0, 81, 83
2, 4488, Note_on_c, 0, 81, 0
2, 4488, Note_on_c, 0, 79, 83
2, 4509, Note_on_c, 0, 79, 0
2, 4512, Note_on_c, 0, 78, 84
2, 4535, Note_on_c, 0, 78, 0
2, 4536, Note_on_c, 0, 76, 83
2, 4559, Note_on_c, 0, 76, 0
2, 4560, Note_on_c, 0, 74, 82
2, 4583, Note_on_c, 0, 74, 0
2, 4584, Note_on_c, 0, 73, 81
2, 4607, Note_on_c, 0, 73, 0
2, 4608, Note_on_c, 0, 76, 81
2, 4656, Note_on_c, 0, 76, 0
2, 4656, Note_on_c, 0, 74, 79
2, 4701, Note_on_c, 0, 74, 0
2, 4704, Note_on_c, 0, 74, 78
2, 4724, Note_on_c, 0, 74, 0
2, 4752, Note_on_c, 0, 74, 77
2, 4841, Note_on_c, 0, 74, 0
2, 4848, Note_on_c, 0, 79, 93
2, 4868, Note_on_c, 0, 79, 0
2, 4896, Note_on_c, 0, 79, 93
2, 4992, Note_on_c, 0, 79, 0
2, 4992, Note_on_c, 0, 83, 77
2, 5004, Note_on_c, 0, 83, 0
2, 5004, Note_on_c, 0, 81, 77
2, 5037, Note_on_c, 0, 81, 0
2, 5040, Note_on_c, 0, 79, 84
2, 5085, Note_on_c, 0, 79, 0
2, 5088, Note_on_c, 0, 78, 82
2, 5133, Note_on_c, 0, 78, 0
2, 5136, Note_on_c, 0, 76, 81
2, 5181, Note_on_c, 0, 76, 0
2, 5184, Note_on_c, 0, 74, 79
2, 5204, Note_on_c, 0, 74, 0
2, 5232, Note_on_c, 0, 74, 78
2, 5252, Note_on_c, 0, 74, 0
2, 5280, Note_on_c, 0, 74, 77
2, 5300, Note_on_c, 0, 74, 0
2, 5328, Note_on_c, 0, 74, 78
2, 5424, Note_on_c, 0, 74, 0
2, 5424, Note_on_c, 0, 75, 82
2, 5469, Note_on_c, 0, 75, 0
2, 5472, Note_on_c, 0, 76, 84
2, 5517, Note_on_c, 0, 76, 0
2, 5520, Note_on_c, 0, 79, 84
2, 5532, Note_on_c, 0, 79, 0
2, 5532, Note_on_c, 0, 78, 84
2, 5544, Note_on_c, 0, 78, 0
2, 5544, Note_on_c, 0, 76, 84
2, 5556, Note_on_c, 0, 76, 0
2, 5556, Note_on_c, 0, 78, 84
2, 5568, Note_on_c, 0, 78, 0
2, 5568, Note_on_c, 0, 79, 84
2, 5613, Note_on_c, 0, 79, 0
2, 5616, Note_on_c, 0, 69, 84
2, 5661, Note_on_c, 0, 69, 0
2, 5664, Note_on_c, 0, 71, 79
2, 5709, Note_on_c, 0, 71, 0
2, 5712, Note_on_c, 0, 74, 74
2, 5724, Note_on_c, 0, 74, 0
2, 5724, Note_on_c, 0, 73, 74
2, 5736, Note_on_c, 0, 73, 0
2, 5736, Note_on_c, 0, 71, 74
2, 5748, Note_on_c, 0, 71, 0
2, 5748, Note_on_c, 0, 73, 74
2, 5760, Note_on_c, 0, 73, 0
2, 5760, Note_on_c, 0, 74, 86
2, 5780, Note_on_c, 0, 74, 0
2, 5856, Note_on_c, 0, 74, 72
2, 5876, Note_on_c, 0, 74, 0
2, 5904, Note_on_c, 0, 74, 89
2, 5924, Note_on_c, 0, 74, 0
2, 6000, Note_on_c, 0, 74, 75
2, 6020, Note_on_c, 0, 74, 0
2, 6048, Note_on_c, 0, 74, 93
2, 6068, Note_on_c, 0, 74, 0
2, 6144, Note_on_c, 0, 74, 72
2, 6164, Note_on_c, 0, 74, 0
2, 6192, Note_on_c, 0, 74, 86
2, 6212, Note_on_c, 0, 74, 0
2, 6288, Note_on_c, 0, 74, 66
2, 6308, Note_on_c, 0, 74, 0
2, 6336, Note_on_c, 0, 74, 64
2, 6356, Note_on_c, 0, 74, 0
2, 6384, Note_on_c, 0, 78, 62
2, 6384, Note_on_c, 0, 74, 62
2, 6432, Note_on_c, 0, 78, 0
2, 6432, Note_on_c, 0, 74, 0
2, 6432, Note_on_c, 0, 79, 55
2, 6432, Note_on_c, 0, 76, 55
2, 6477, Note_on_c, 0, 79, 0
2, 6477, Note_on_c, 0, 76, 0
2, 6528, Note_on_c, 0, 81, 61
2, 6528, Note_on_c, 0, 78, 61
2, 6576, Note_on_c, 0, 81, 0
2, 6576, Note_on_c, 0, 78, 0
2, 6576, Note_on_c, 0, 83, 64
2, 6576, Note_on_c, 0, 79, 64
2, 6621, Note_on_c, 0, 83, 0
2, 6621, Note_on_c, 0, 79, 0
2, 6672, Note_on_c, 0, 84, 71
2, 6672, Note_on_c, 0, 81, 71
2, 6720, Note_on_c, 0, 84, 0
2, 6720, Note_on_c, 0, 81, 0
2, 6720, Note_on_c, 0, 83, 74
2, 6720, Note_on_c, 0, 79, 74
2, 6765, Note_on_c, 0, 83, 0
2, 6765, Note_on_c, 0, 79, 0
2, 6816, Note_on_c, 0, 81, 80
2, 6816, Note_on_c, 0, 72, 80
2, 6864, Note_on_c, 0, 81, 0
2, 6864, Note_on_c, 0, 72, 0
2, 6864, Note_on_c, 0, 79, 84
2, 6864, Note_on_c, 0, 71, 84
2, 6909, Note_on_c, 0, 79, 0
2, 6909, Note_on_c, 0, 71, 0
2, 6912, Note_on_c, 0, 78, 84
2, 6912, Note_on_c, 0, 72, 84
2, 7089, Note_on_c, 0, 78, 0
2, 7089, Note_on_c, 0, 72, 0
2, 7120, Note_on_c, 0, 71, 77
2, 7135, Note_on_c, 0, 71, 0
2, 7136, Note_on_c, 0, 72, 76
2, 7151, Note_on_c, 0, 72, 0
2, 7152, Note_on_c, 0, 74, 76
2, 7164, Note_on_c, 0, 74, 0
2, 7164, Note_on_c, 0, 72, 75
2, 7176, Note_on_c, 0, 72, 0
2, 7176, Note_on_c, 0, 71, 75
2, 7188, Note_on_c, 0, 71, 0
2, 7188, Note_on_c, 0, 69, 74
2, 7200, Note_on_c, 0, 69, 0
2, 7200, Note_on_c, 0, 67, 74
2, 7289, Note_on_c, 0, 67, 0
2, 7296, Note_on_c, 0, 71, 70
2, 7308, Note_on_c, 0, 71, 0
2, 7308, Note_on_c, 0, 69, 70
2, 7341, Note_on_c, 0, 69, 0
2, 7344, Note_on_c, 0, 62, 70
2, 7389, Note_on_c, 0, 62, 0
2, 7392, Note_on_c, 0, 64, 70
2, 7437, Note_on_c, 0, 64, 0
2, 7440, Note_on_c, 0, 67, 70
2, 7452, Note_on_c, 0, 67, 0
2, 7452, Note_on_c, 0, 66, 70
2, 7464, Note_on_c, 0, 66, 0
2, 7464, Note_on_c, 0, 64, 70
2, 7476, Note_on_c, 0, 64, 0
2, 7476, Note_on_c, 0, 66, 70
2, 7488, Note_on_c, 0, 66, 0
2, 7488, Note_on_c, 0, 67, 70
2, 7508, Note_on_c, 0, 67, 0
2, 7536, Note_on_c, 0, 67, 77
2, 7556, Note_on_c, 0, 67, 0
2, 7584, Note_on_c, 0, 67, 73
2, 7604, Note_on_c, 0, 67, 0
2, 7632, Note_on_c, 0, 67, 86
2, 7728, Note_on_c, 0, 67, 0
2, 7728, Note_on_c, 0, 69, 70
2, 7728, Note_on_c, 0, 62, 70
2, 7748, Note_on_c, 0, 69, 0
2, 7748, Note_on_c, 0, 62, 0
2, 7776, Note_on_c, 0, 72, 70
2, 7788, Note_on_c, 0, 72, 0
2, 7788, Note_on_c, 0, 71, 70
2, 7824, Note_on_c, 0, 71, 0
2, 7824, Note_on_c, 0, 69, 72
2, 7869, Note_on_c, 0, 69, 0
2, 7872, Note_on_c, 0, 71, 74
2, 7917, Note_on_c, 0, 71, 0
2, 7920, Note_on_c, 0, 74, 93
2, 7968, Note_on_c, 0, 74, 0
2, 7968, Note_on_c, 0, 72, 75
2, 8013, Note_on_c, 0, 72, 0
2, 8016, Note_on_c, 0, 71, 74
2, 8036, Note_on_c, 0, 71, 0
2, 8064, Note_on_c, 0, 71, 89
2, 8064, Note_on_c, 0, 67, 89
2, 8112, Note_on_c, 0, 71, 0
2, 8112, Note_on_c, 0, 67, 0
2, 8112, Note_on_c, 0, 69, 72
2, 8112, Note_on_c, 0, 66, 72
2, 8132, Note_on_c, 0, 69, 0
2, 8132, Note_on_c, 0, 66, 0
2, 8160, Note_on_c, 0, 69, 71
2, 8160, Note_on_c, 0, 66, 71
2, 8180, Note_on_c, 0, 69, 0
2, 8180, Note_on_c, 0, 66, 0
2, 8208, Note_on_c, 0, 69, 86
2, 8208, Note_on_c, 0, 66, 86
2, 8304, Note_on_c, 0, 69, 0
2, 8304, Note_on_c, 0, 66, 0
2, 8304, Note_on_c, 0, 71, 75
2, 8304, Note_on_c, 0, 68, 75
2, 8324, Note_on_c, 0, 71, 0
2, 8324, Note_on_c, 0, 68, 0
2, 8352, Note_on_c, 0, 72, 78
2, 8352, Note_on_c, 0, 69, 78
2, 8397, Note_on_c, 0, 72, 0
2, 8397, Note_on_c, 0, 69, 0
2, 8400, Note_on_c, 0, 74, 81
2, 8400, Note_on_c, 0, 71, 81
2, 8445, Note_on_c, 0, 74, 0
2, 8445, Note_on_c, 0, 71, 0
2, 8448, Note_on_c, 0, 76, 84
2, 8448, Note_on_c, 0, 72, 84
2, 8468, Note_on_c, 0, 76, 0
2, 8468, Note_on_c, 0, 72, 0
2, 8496, Note_on_c, 0, 76, 100
2, 8496, Note_on_c, 0, 72, 100
2, 8592, Note_on_c, 0, 76, 0
2, 8592, Note_on_c, 0, 72, 0
2, 8592, Note_on_c, 0, 74, 80
2, 8604, Note_on_c, 0, 74, 0
2, 8604, Note_on_c, 0, 72, 80
2, 8616, Note_on_c, 0, 72, 0
2, 8616, Note_on_c, 0, 71, 80
2, 8628, Note_on_c, 0, 71, 0
2, 8628, Note_on_c, 0, 72, 80
2, 8640, Note_on_c, 0, 72, 0
2, 8640, Note_on_c, 0, 71, 78
2, 8640, Note_on_c, 0, 67, 78
2, 8685, Note_on_c, 0, 71, 0
2, 8685, Note_on_c, 0, 67, 0
2, 8688, Note_on_c, 0, 72, 77
2, 8688, Note_on_c, 0, 69, 77
2, 8733, Note_on_c, 0, 72, 0
2, 8733, Note_on_c, 0, 69, 0
2, 8736, Note_on_c, 0, 74, 80
2, 8736, Note_on_c, 0, 71, 80
2, 8781, Note_on_c, 0, 74, 0
2, 8781, Note_on_c, 0, 71, 0
2, 8784, Note_on_c, 0, 73, 84
2, 8796, Note_on_c, 0, 73, 0
2, 8796, Note_on_c, 0, 74, 84
2, 8808, Note_on_c, 0, 74, 0
2, 8808, Note_on_c, 0, 76, 84
2, 8820, Note_on_c, 0, 76, 0
2, 8820, Note_on_c, 0, 74, 100
2, 8880, Note_on_c, 0, 74, 0
2, 8880, Note_on_c, 0, 69, 77
2, 8892, Note_on_c, 0, 69, 0
2, 8892, Note_on_c, 0, 67, 77
2, 8904, Note_on_c, 0, 67, 0
2, 8904, Note_on_c, 0, 66, 77
2, 8916, Note_on_c, 0, 66, 0
2, 8916, Note_on_c, 0, 67, 77
2, 8928, Note_on_c, 0, 67, 0
2, 8928, Note_on_c, 0, 69, 77
2, 8973, Note_on_c, 0, 69, 0
2, 8976, Note_on_c, 0, 72, 76
2, 9021, Note_on_c, 0, 72, 0
2, 9024, Note_on_c, 0, 71, 75
2, 9069, Note_on_c, 0, 71, 0
2, 9072, Note_on_c, 0, 71, 74
2, 9084, Note_on_c, 0, 71, 0
2, 9084, Note_on_c, 0, 69, 74
2, 9096, Note_on_c, 0, 69, 0
2, 9096, Note_on_c, 0, 68, 74
2, 9108, Note_on_c, 0, 68, 0
2, 9108, Note_on_c, 0, 69, 74
2, 9120, Note_on_c, 0, 69, 0
2, 9120, Note_on_c, 0, 67, 73
2, 9165, Note_on_c, 0, 67, 0
2, 9168, Note_on_c, 0, 67, 73
2, 9180, Note_on_c, 0, 67, 0
2, 9180, Note_on_c, 0, 66, 73
2, 9192, Note_on_c, 0, 66, 0
2, 9192, Note_on_c, 0, 64, 73
2, 9204, Note_on_c, 0, 64, 0
2, 9204, Note_on_c, 0, 66, 73
2, 9216, Note_on_c, 0, 66, 0
2, 9216, Note_on_c, 0, 69, 72
2, 9216, Note_on_c, 0, 60, 72
2, 9264, Note_on_c, 0, 69, 0
2, 9264, Note_on_c, 0, 60, 0
2, 9264, Note_on_c, 0, 67, 71
2, 9264, Note_on_c, 0, 59, 71
2, 9309, Note_on_c, 0, 67, 0
2, 9309, Note_on_c, 0, 59, 0
2, 9312, Note_on_c, 0, 67, 70
2, 9312, Note_on_c, 0, 59, 70
2, 9332, Note_on_c, 0, 67, 0
2, 9332, Note_on_c, 0, 59, 0
2, 9360, Note_on_c, 0, 67, 86
2, 9360, Note_on_c, 0, 59, 86
2, 9456, Note_on_c, 0, 67, 0
2, 9456, Note_on_c, 0, 59, 0
2, 9456, Note_on_c, 0, 79, 100
2, 9476, Note_on_c, 0, 79, 0
2, 9504, Note_on_c, 0, 79, 100
2, 9600, Note_on_c, 0, 79, 0
2, 9600, Note_on_c, 0, 83, 84
2, 9612, Note_on_c, 0, 83, 0
2, 9612, Note_on_c, 0, 81, 84
2, 9645, Note_on_c, 0, 81, 0
2, 9648, Note_on_c, 0, 79, 84
2, 9693, Note_on_c, 0, 79, 0
2, 9696, Note_on_c, 0, 78, 82
2, 9741, Note_on_c, 0, 78, 0
2, 9744, Note_on_c, 0, 76, 81
2, 9789, Note_on_c, 0, 76, 0
2, 9792, Note_on_c, 0, 74, 79
2, 9812, Note_on_c, 0, 74, 0
2, 9840, Note_on_c, 0, 74, 78
2, 9860, Note_on_c, 0, 74, 0
2, 9888, Note_on_c, 0, 74, 77
2, 9908, Note_on_c, 0, 74, 0
2, 9936, Note_on_c, 0, 74, 78
2, 10032, Note_on_c, 0, 74, 0
2, 10032, Note_on_c, 0, 75, 82
2, 10077, Note_on_c, 0, 75, 0
2, 10080, Note_on_c, 0, 76, 84
2, 10125, Note_on_c, 0, 76, 0
2, 10128, Note_on_c, 0, 79, 84
2, 10140, Note_on_c, 0, 79, 0
2, 10140, Note_on_c, 0, 78, 84
2, 10152, Note_on_c, 0, 78, 0
2, 10152, Note_on_c, 0, 76, 84
2, 10164, Note_on_c, 0, 76, 0
2, 10164, Note_on_c, 0, 78, 84
2, 10176, Note_on_c, 0, 78, 0
2, 10176, Note_on_c, 0, 79, 84
2, 10221, Note_on_c, 0, 79, 0
2, 10224, Note_on_c, 0, 69, 84
2, 10269, Note_on_c, 0, 69, 0
2, 10272, Note_on_c, 0, 71, 79
2, 10317, Note_on_c, 0, 71, 0
2, 10320, Note_on_c, 0, 74, 74
2, 10332, Note_on_c, 0, 74, 0
2, 10332, Note_on_c, 0, 73, 74
2, 10344, Note_on_c, 0, 73, 0
2, 10344, Note_on_c, 0, 71, 74
2, 10356, Note_on_c, 0, 71, 0
2, 10356, Note_on_c, 0, 73, 74
2, 10368, Note_on_c, 0, 73, 0
2, 10368, Note_on_c, 0, 74, 86
2, 10388, Note_on_c, 0, 74, 0
2, 10464, Note_on_c, 0, 74, 72
2, 10484, Note_on_c, 0, 74, 0
2, 10512, Note_on_c, 0, 74, 89
2, 10532, Note_on_c, 0, 74, 0
2, 10608, Note_on_c, 0, 74, 75
2, 10628, Note_on_c, 0, 74, 0
2, 10656, Note_on_c, 0, 74, 93
2, 10676, Note_on_c, 0, 74, 0
2, 10752, Note_on_c, 0, 74, 72
2, 10772, Note_on_c, 0, 74, 0
2, 10800, Note_on_c, 0, 74, 86
2, 10820, Note_on_c, 0, 74, 0
2, 10896, Note_on_c, 0, 74, 66
2, 10916, Note_on_c, 0, 74, 0
2, 10944, Note_on_c, 0, 74, 64
2, 10964, Note_on_c, 0, 74, 0
2, 10992, Note_on_c, 0, 78, 62
2, 10992, Note_on_c, 0, 74, 62
2, 11040, Note_on_c, 0, 78, 0
2, 11040, Note_on_c, 0, 74, 0
2, 11040, Note_on_c, 0, 79, 55
2, 11040, Note_on_c, 0, 76, 55
2, 11085, Note_on_c, 0, 79, 0
2, 11085, Note_on_c, 0, 76, 0
2, 11136, Note_on_c, 0, 81, 61
2, 11136, Note_on_c, 0, 78, 61
2, 11184, Note_on_c, 0, 81, 0
2, 11184, Note_on_c, 0, 78, 0
2, 11184, Note_on_c, 0, 83, 64
2, 11184, Note_on_c, 0, 79, 64
2, 11229, Note_on_c, 0, 83, 0
2, 11229, Note_on_c, 0, 79, 0
2, 11280, Note_on_c, 0, 84, 71
2, 11280, Note_on_c, 0, 81, 71
2, 11328, Note_on_c, 0, 84, 0
2, 11328, Note_on_c, 0, 81, 0
2, 11328, Note_on_c, 0, 83, 74
2, 11328, Note_on_c, 0, 79, 74
2, 11373, Note_on_c, 0, 83, 0
2, 11373, Note_on_c, 0, 79, 0
2, 11424, Note_on_c, 0, 81, 80
2, 11424, Note_on_c, 0, 72, 80
2, 11472, Note_on_c, 0, 81, 0
2, 11472, Note_on_c, 0, 72, 0
2, 11472, Note_on_c, 0, 79, 84
2, 11472, Note_on_c, 0, 71, 84
2, 11517, Note_on_c, 0, 79, 0
2, 11517, Note_on_c, 0, 71, 0
2, 11520, Note_on_c, 0, 78, 84
2, 11520, Note_on_c, 0, 72, 84
2, 11697, Note_on_c, 0, 78, 0
2, 11697, Note_on_c, 0, 72, 0
2, 11728, Note_on_c, 0, 71, 77
2, 11743, Note_on_c, 0, 71, 0
2, 11744, Note_on_c, 0, 72, 76
2, 11759, Note_on_c, 0, 72, 0
2, 11760, Note_on_c, 0, 74, 76
2, 11772, Note_on_c, 0, 74, 0
2, 11772, Note_on_c, 0, 72, 75
2, 11784, Note_on_c, 0, 72, 0
2, 11784, Note_on_c, 0, 71, 75
2, 11796, Note_on_c, 0, 71, 0
2, 11796, Note_on_c, 0, 69, 74
2, 11808, Note_on_c, 0, 69, 0
2, 11808, Note_on_c, 0, 67, 74
2, 11897, Note_on_c, 0, 67, 0
2, 11904, Note_on_c, 0, 71, 70
2, 11916, Note_on_c, 0, 71, 0
2, 11916, Note_on_c, 0, 69, 70
2, 11949, Note_on_c, 0, 69, 0
2, 11952, Note_on_c, 0, 62, 70
2, 11997, Note_on_c, 0, 62, 0
2, 12000, Note_on_c, 0, 64, 70
2, 12045, Note_on_c, 0, 64, 0
2, 12048, Note_on_c, 0, 67, 70
2, 12060, Note_on_c, 0, 67, 0
2, 12060, Note_on_c, 0, 66, 70
2, 12072, Note_on_c, 0, 66, 0
2, 12072, Note_on_c, 0, 64, 70
2, 12084, Note_on_c, 0, 64, 0
2, 12084, Note_on_c, 0, 66, 70
2, 12096, Note_on_c, 0, 66, 0
2, 12096, Note_on_c, 0, 67, 70
2, 12116, Note_on_c, 0, 67, 0
2, 12144, Note_on_c, 0, 67, 77
2, 12164, Note_on_c, 0, 67, 0
2, 12192, Note_on_c, 0, 67, 73
2, 12212, Note_on_c, 0, 67, 0
2, 12240, Note_on_c, 0, 67, 86
2, 12336, Note_on_c, 0, 67, 0
2, 12336, Note_on_c, 0, 69, 70
2, 12336, Note_on_c, 0, 62, 70
2, 12356, Note_on_c, 0, 69, 0
2, 12356, Note_on_c, 0, 62, 0
2, 12384, Note_on_c, 0, 72, 70
2, 12396, Note_on_c, 0, 72, 0
2, 12396, Note_on_c, 0, 71, 70
2, 12432, Note_on_c, 0, 71, 0
2, 12432, Note_on_c, 0, 69, 72
2, 12477, Note_on_c, 0, 69, 0
2, 12480, Note_on_c, 0, 71, 74
2, 12525, Note_on_c, 0, 71, 0
2, 12528, Note_on_c, 0, 74, 93
2, 12576, Note_on_c, 0, 74, 0
2, 12576, Note_on_c, 0, 72, 75
2, 12621, Note_on_c, 0, 72, 0
2, 12624, Note_on_c, 0, 71, 74
2, 12644, Note_on_c, 0, 71, 0
2, 12672, Note_on_c, 0, 71, 89
2, 12672, Note_on_c, 0, 67, 89
2, 12720, Note_on_c, 0, 71, 0
2, 12720, Note_on_c, 0, 67, 0
2, 12720, Note_on_c, 0, 69, 72
2, 12720, Note_on_c, 0, 66, 72
2, 12740, Note_on_c, 0, 69, 0
2, 12740, Note_on_c, 0, 66, 0
2, 12768, Note_on_c, 0, 69, 71
2, 12768, Note_on_c, 0, 66, 71
2, 12788, Note_on_c, 0, 69, 0
2, 12788, Note_on_c, 0, 66, 0
2, 12816, Note_on_c, 0, 69, 86
2, 12816, Note_on_c, 0, 66, 86
2, 12912, Note_on_c, 0, 69, 0
2, 12912, Note_on_c, 0, 66, 0
2, 12912, Note_on_c, 0, 71, 75
2, 12912, Note_on_c, 0, 68, 75
2, 12932, Note_on_c, 0, 71, 0
2, 12932, Note_on_c, 0, 68, 0
2, 12960, Note_on_c, 0, 72, 78
2, 12960, Note_on_c, 0, 69, 78
2, 13005, Note_on_c, 0, 72, 0
2, 13005, Note_on_c, 0, 69, 0
2, 13008, Note_on_c, 0, 74, 81
2, 13008, Note_on_c, 0, 71, 81
2, 13053, Note_on_c, 0, 74, 0
2, 13053, Note_on_c, 0, 71, 0
2, 13056, Note_on_c, 0, 76, 84
2, 13056, Note_on_c, 0, 72, 84
2, 13076, Note_on_c, 0, 76, 0
2, 13076, Note_on_c, 0, 72, 0
2, 13104, Note_on_c, 0, 76, 100
2, 13104, Note_on_c, 0, 72, 100
2, 13200, Note_on_c, 0, 76, 0
2, 13200, Note_on_c, 0, 72, 0
2, 13200, Note_on_c, 0, 74, 80
2, 13212, Note_on_c, 0, 74, 0
2, 13212, Note_on_c, 0, 72, 80
2, 13224, Note_on_c, 0, 72, 0
2, 13224, Note_on_c, 0, 71, 80
2, 13236, Note_on_c, 0, 71, 0
2, 13236, Note_on_c, 0, 72, 80
2, 13248, Note_on_c, 0, 72, 0
2, 13248, Note_on_c, 0, 71, 78
2, 13248, Note_on_c, 0, 67, 78
2, 13293, Note_on_c, 0, 71, 0
2, 13293, Note_on_c, 0, 67, 0
2, 13296, Note_on_c, 0, 72, 77
2, 13296, Note_on_c, 0, 69, 77
2, 13341, Note_on_c, 0, 72, 0
2, 13341, Note_on_c, 0, 69, 0
2, 13344, Note_on_c, 0, 74, 80
2, 13344, Note_on_c, 0, 71, 80
2, 13389, Note_on_c, 0, 74, 0
2, 13389, Note_on_c, 0, 71, 0
2, 13392, Note_on_c, 0, 73, 84
2, 13404, Note_on_c, 0, 73, 0
2, 13404, Note_on_c, 0, 74, 84
2, 13416, Note_on_c, 0, 74, 0
2, 13416, Note_on_c, 0, 76, 84
2, 13428, Note_on_c, 0, 76, 0
2, 13428, Note_on_c, 0, 74, 100
2, 13488, Note_on_c, 0, 74, 0
2, 13488, Note_on_c, 0, 69, 77
2, 13500, Note_on_c, 0, 69, 0
2, 13500, Note_on_c, 0, 67, 77
2, 13512, Note_on_c, 0, 67, 0
2, 13512, Note_on_c, 0, 66, 77
2, 13524, Note_on_c, 0, 66, 0
2, 13524, Note_on_c, 0, 67, 77
2, 13536, Note_on_c, 0, 67, 0
2, 13536, Note_on_c, 0, 69, 77
2, 13581, Note_on_c, 0, 69, 0
2, 13584, Note_on_c, 0, 72, 76
2, 13629, Note_on_c, 0, 72, 0
2, 13632, Note_on_c, 0, 71, 75
2, 13677, Note_on_c, 0, 71, 0
2, 13680, Note_on_c, 0, 71, 74
2, 13692, Note_on_c, 0, 71, 0
2, 13692, Note_on_c, 0, 69, 74
2, 13704, Note_on_c, 0, 69, 0
2, 13704, Note_on_c, 0, 68, 74
2, 13716, Note_on_c, 0, 68, 0
2, 13716, Note_on_c, 0, 69, 74
2, 13728, Note_on_c, 0, 69, 0
2, 13728, Note_on_c, 0, 67, 73
2, 13773, Note_on_c, 0, 67, 0
2, 13776, Note_on_c, 0, 67, 73
2, 13788, Note_on_c, 0, 67, 0
2, 13788, Note_on_c, 0, 66, 73
2, 13800, Note_on_c, 0, 66, 0
2, 13800, Note_on_c, 0, 64, 73
2, 13812, Note_on_c, 0, 64, 0
2, 13812, Note_on_c, 0, 66, 73
2, 13824, Note_on_c, 0, 66, 0
2, 13824, Note_on_c, 0, 69, 77
2, 13824, Note_on_c, 0, 60, 77
2, 13872, Note_on_c, 0, 69, 0
2, 13872, Note_on_c, 0, 60, 0
2, 13872, Note_on_c, 0, 67, 75
2, 13872, Note_on_c, 0, 59, 75
2, 13917, Note_on_c, 0, 67, 0
2, 13917, Note_on_c, 0, 59, 0
2, 13920, Note_on_c, 0, 67, 74
2, 13920, Note_on_c, 0, 59, 74
2, 13940, Note_on_c, 0, 67, 0
2, 13940, Note_on_c, 0, 59, 0
2, 13968, Note_on_c, 0, 67, 72
2, 13968, Note_on_c, 0, 59, 72
2, 14039, Note_on_c, 0, 67, 0
2, 14039, Note_on_c, 0, 59, 0
2, 14064, Note_on_c, 0, 74, 70
2, 14084, Note_on_c, 0, 74, 0
2, 14112, Note_on_c, 0, 74, 62
2, 14132, Note_on_c, 0, 74, 0
2, 14208, Note_on_c, 0, 75, 66
2, 14228, Note_on_c, 0, 75, 0
2, 14256, Note_on_c, 0, 75, 69
2, 14276, Note_on_c, 0, 75, 0
2, 14352, Note_on_c, 0, 78, 74
2, 14372, Note_on_c, 0, 78, 0
2, 14400, Note_on_c, 0, 78, 76
2, 14420, Note_on_c, 0, 78, 0
2, 14496, Note_on_c, 0, 79, 81
2, 14516, Note_on_c, 0, 79, 0
2, 14544, Note_on_c, 0, 79, 84
2, 14564, Note_on_c, 0, 79, 0
2, 14640, Note_on_c, 0, 82, 100
2, 14736, Note_on_c, 0, 82, 0
2, 14736, Note_on_c, 0, 81, 62
2, 14781, Note_on_c, 0, 81, 0
2, 14784, Note_on_c, 0, 82, 100
2, 14880, Note_on_c, 0, 82, 0
2, 14880, Note_on_c, 0, 81, 62
2, 14925, Note_on_c, 0, 81, 0
2, 14928, Note_on_c, 0, 81, 84
2, 14940, Note_on_c, 0, 81, 0
2, 14940, Note_on_c, 0, 80, 84
2, 14952, Note_on_c, 0, 80, 0
2, 14952, Note_on_c, 0, 78, 84
2, 14964, Note_on_c, 0, 78, 0
2, 14964, Note_on_c, 0, 80, 84
2, 14976, Note_on_c, 0, 80, 0
2, 14976, Note_on_c, 0, 80, 62
2, 15021, Note_on_c, 0, 80, 0
2, 15024, Note_on_c, 0, 81, 62
2, 15044, Note_on_c, 0, 81, 0
2, 15072, Note_on_c, 0, 81, 62
2, 15092, Note_on_c, 0, 81, 0
2, 15168, Note_on_c, 0, 83, 84
2, 15188, Note_on_c, 0, 83, 0
2, 15216, Note_on_c, 0, 83, 84
2, 15236, Note_on_c, 0, 83, 0
2, 15312, Note_on_c, 0, 69, 62
2, 15359, Note_on_c, 0, 69, 0
2, 15360, Note_on_c, 0, 69, 62
2, 15407, Note_on_c, 0, 69, 0
2, 15408, Note_on_c, 0, 69, 62
2, 15453, Note_on_c, 0, 69, 0
2, 15456, Note_on_c, 0, 71, 62
2, 15501, Note_on_c, 0, 71, 0
2, 15504, Note_on_c, 0, 73, 62
2, 15549, Note_on_c, 0, 73, 0
2, 15552, Note_on_c, 0, 73, 62
2, 15696, Note_on_c, 0, 73, 0
2, 15696, Note_on_c, 0, 74, 62
2, 15716, Note_on_c, 0, 74, 0
2, 15792, Note_on_c, 0, 74, 62
2, 15812, Note_on_c, 0, 74, 0
2, 15840, Note_on_c, 0, 74, 62
2, 15860, Note_on_c, 0, 74, 0
2, 15936, Note_on_c, 0, 75, 66
2, 15956, Note_on_c, 0, 75, 0
2, 15984, Note_on_c, 0, 75, 69
2, 16004, Note_on_c, 0, 75, 0
2, 16080, Note_on_c, 0, 78, 74
2, 16100, Note_on_c, 0, 78, 0
2, 16128, Note_on_c, 0, 78, 76
2, 16148, Note_on_c, 0, 78, 0
2, 16224, Note_on_c, 0, 79, 81
2, 16244, Note_on_c, 0, 79, 0
2, 16272, Note_on_c, 0, 79, 84
2, 16292, Note_on_c, 0, 79, 0
2, 16368, Note_on_c, 0, 82, 100
2, 16464, Note_on_c, 0, 82, 0
2, 16464, Note_on_c, 0, 81, 62
2, 16509, Note_on_c, 0, 81, 0
2, 16512, Note_on_c, 0, 82, 100
2, 16608, Note_on_c, 0, 82, 0
2, 16608, Note_on_c, 0, 81, 62
2, 16653, Note_on_c, 0, 81, 0
2, 16656, Note_on_c, 0, 81, 84
2, 16668, Note_on_c, 0, 81, 0
2, 16668, Note_on_c, 0, 80, 84
2, 16680, Note_on_c, 0, 80, 0
2, 16680, Note_on_c, 0, 78, 84
2, 16692, Note_on_c, 0, 78, 0
2, 16692, Note_on_c, 0, 80, 84
2, 16704, Note_on_c, 0, 80, 0
2, 16704, Note_on_c, 0, 80, 62
2, 16749, Note_on_c, 0, 80, 0
2, 16752, Note_on_c, 0, 81, 62
2, 16772, Note_on_c, 0, 81, 0
2, 16800, Note_on_c, 0, 81, 62
2, 16820, Note_on_c, 0, 81, 0
2, 16896, Note_on_c, 0, 83, 84
2, 16916, Note_on_c, 0, 83, 0
2, 16944, Note_on_c, 0, 83, 84
2, 16964, Note_on_c, 0, 83, 0
2, 17040, Note_on_c, 0, 69, 62
2, 17087, Note_on_c, 0, 69, 0
2, 17088, Note_on_c, 0, 69, 62
2, 17135, Note_on_c, 0, 69, 0
2, 17136, Note_on_c, 0, 69, 62
2, 17181, Note_on_c, 0, 69, 0
2, 17184, Note_on_c, 0, 71, 62
2, 17229, Note_on_c, 0, 71, 0
2, 17232, Note_on_c, 0, 73, 62
2, 17277, Note_on_c, 0, 73, 0
2, 17280, Note_on_c, 0, 73, 62
2, 17424, Note_on_c, 0, 73, 0
2, 17424, Note_on_c, 0, 74, 62
2, 17444, Note_on_c, 0, 74, 0
2, 17520, Note_on_c, 0, 74, 62
2, 17540, Note_on_c, 0, 74, 0
2, 17568, Note_on_c, 0, 74, 62
2, 17588, Note_on_c, 0, 74, 0
2, 17664, Note_on_c, 0, 67, 62
2, 17712, Note_on_c, 0, 67, 0
2, 17712, Note_on_c, 0, 72, 62
2, 17732, Note_on_c, 0, 72, 0
2, 17808, Note_on_c, 0, 66, 62
2, 17856, Note_on_c, 0, 66, 0
2, 17856, Note_on_c, 0, 70, 62
2, 17876, Note_on_c, 0, 70, 0
2, 17952, Note_on_c, 0, 61, 62
2, 18000, Note_on_c, 0, 61, 0
2, 18000, Note_on_c, 0, 62, 62
2, 18020, Note_on_c, 0, 62, 0
2, 18096, Note_on_c, 0, 79, 100
2, 18096, Note_on_c, 0, 67, 100
2, 18144, Note_on_c, 0, 67, 0
2, 18189, Note_on_c, 0, 79, 0
2, 18192, Note_on_c, 0, 78, 62
2, 18237, Note_on_c, 0, 78, 0
2, 18240, Note_on_c, 0, 79, 100
2, 18333, Note_on_c, 0, 79, 0
2, 18336, Note_on_c, 0, 78, 62
2, 18381, Note_on_c, 0, 78, 0
2, 18384, Note_on_c, 0, 79, 84
2, 18429, Note_on_c, 0, 79, 0
2, 18432, Note_on_c, 0, 72, 100
2, 18438, Note_on_c, 0, 75, 100
2, 18444, Note_on_c, 0, 78, 100
2, 18450, Note_on_c, 0, 84, 100
2, 18576, Note_on_c, 0, 78, 0
2, 18576, Note_on_c, 0, 72, 0
2, 18621, Note_on_c, 0, 84, 0
2, 18621, Note_on_c, 0, 75, 0
2, 18624, Note_on_c, 0, 82, 81
2, 18624, Note_on_c, 0, 74, 81
2, 18669, Note_on_c, 0, 82, 0
2, 18669, Note_on_c, 0, 74, 0
2, 18672, Note_on_c, 0, 82, 79
2, 18672, Note_on_c, 0, 74, 79
2, 18720, Note_on_c, 0, 74, 0
2, 18765, Note_on_c, 0, 82, 0
2, 18768, Note_on_c, 0, 81, 74
2, 18813, Note_on_c, 0, 81, 0
2, 18816, Note_on_c, 0, 81, 71
2, 18909, Note_on_c, 0, 81, 0
2, 18912, Note_on_c, 0, 79, 66
2, 18957, Note_on_c, 0, 79, 0
2, 18960, Note_on_c, 0, 78, 64
2, 19005, Note_on_c, 0, 78, 0
2, 19008, Note_on_c, 0, 78, 62
2, 19008, Note_on_c, 0, 72, 62
2, 19152, Note_on_c, 0, 78, 0
2, 19152, Note_on_c, 0, 72, 0
2, 19152, Note_on_c, 0, 79, 62
2, 19152, Note_on_c, 0, 70, 62
2, 19199, Note_on_c, 0, 79, 0
2, 19199, Note_on_c, 0, 70, 0
2, 19248, Note_on_c, 0, 74, 62
2, 19268, Note_on_c, 0, 74, 0
2, 19296, Note_on_c, 0, 74, 62
2, 19316, Note_on_c, 0, 74, 0
2, 19392, Note_on_c, 0, 67, 62
2, 19440, Note_on_c, 0, 67, 0
2, 19440, Note_on_c, 0, 72, 62
2, 19460, Note_on_c, 0, 72, 0
2, 19536, Note_on_c, 0, 66, 62
2, 19584, Note_on_c, 0, 66, 0
2, 19584, Note_on_c, 0, 70, 62
2, 19604, Note_on_c, 0, 70, 0
2, 19680, Note_on_c, 0, 61, 62
2, 19728, Note_on_c, 0, 61, 0
2, 19728, Note_on_c, 0, 62, 62
2, 19748, Note_on_c, 0, 62, 0
2, 19824, Note_on_c, 0, 79, 100
2, 19824, Note_on_c, 0, 67, 100
2, 19872, Note_on_c, 0, 67, 0
2, 19917, Note_on_c, 0, 79, 0
2, 19920, Note_on_c, 0, 78, 62
2, 19965, Note_on_c, 0, 78, 0
2, 19968, Note_on_c, 0, 79, 100
2, 20061, Note_on_c, 0, 79, 0
2, 20064, Note_on_c, 0, 78, 62
2, 20109, Note_on_c, 0, 78, 0
2, 20112, Note_on_c, 0, 79, 84
2, 20157, Note_on_c, 0, 79, 0
2, 20160, Note_on_c, 0, 72, 100
2, 20166, Note_on_c, 0, 75, 100
2, 20172, Note_on_c, 0, 78, 100
2, 20178, Note_on_c, 0, 84, 100
2, 20304, Note_on_c, 0, 78, 0
2, 20304, Note_on_c, 0, 72, 0
2, 20349, Note_on_c, 0, 84, 0
2, 20349, Note_on_c, 0, 75, 0
2, 20352, Note_on_c, 0, 82, 81
2, 20352, Note_on_c, 0, 74, 81
2, 20397, Note_on_c, 0, 82, 0
2, 20397, Note_on_c, 0, 74, 0
2, 20400, Note_on_c, 0, 82, 79
2, 20400, Note_on_c, 0, 74, 79
2, 20448, Note_on_c, 0, 74, 0
2, 20493, Note_on_c, 0, 82, 0
2, 20496, Note_on_c, 0, 81, 74
2, 20541, Note_on_c, 0, 81, 0
2, 20544, Note_on_c, 0, 81, 71
2, 20637, Note_on_c, 0, 81, 0
2, 20640, Note_on_c, 0, 79, 66
2, 20685, Note_on_c, 0, 79, 0
2, 20688, Note_on_c, 0, 78, 64
2, 20733, Note_on_c, 0, 78, 0
2, 20736, Note_on_c, 0, 78, 62
2, 20736, Note_on_c, 0, 72, 62
2, 20880, Note_on_c, 0, 78, 0
2, 20880, Note_on_c, 0, 72, 0
2, 20880, Note_on_c, 0, 79, 62
2, 20880, Note_on_c, 0, 70, 62
2, 20927, Note_on_c, 0, 79, 0
2, 20927, Note_on_c, 0, 70, 0
2, 20976, Note_on_c, 0, 67, 86
2, 20996, Note_on_c, 0, 67, 0
2, 21024, Note_on_c, 0, 67, 70
2, 21113, Note_on_c, 0, 67, 0
2, 21120, Note_on_c, 0, 71, 70
2, 21132, Note_on_c, 0, 71, 0
2, 21132, Note_on_c, 0, 69, 70
2, 21165, Note_on_c, 0, 69, 0
2, 21168, Note_on_c, 0, 62, 70
2, 21213, Note_on_c, 0, 62, 0
2, 21216, Note_on_c, 0, 63, 70
2, 21239, Note_on_c, 0, 63, 0
2, 21240, Note_on_c, 0, 64, 71
2, 21263, Note_on_c, 0, 64, 0
2, 21264, Note_on_c, 0, 65, 72
2, 21287, Note_on_c, 0, 65, 0
2, 21288, Note_on_c, 0, 66, 73
2, 21311, Note_on_c, 0, 66, 0
2, 21312, Note_on_c, 0, 67, 74
2, 21332, Note_on_c, 0, 67, 0
2, 21360, Note_on_c, 0, 67, 77
2, 21380, Note_on_c, 0, 67, 0
2, 21408, Note_on_c, 0, 67, 75
2, 21428, Note_on_c, 0, 67, 0
2, 21456, Note_on_c, 0, 67, 73
2, 21545, Note_on_c, 0, 67, 0
2, 21552, Note_on_c, 0, 69, 70
2, 21552, Note_on_c, 0, 62, 70
2, 21572, Note_on_c, 0, 69, 0
2, 21572, Note_on_c, 0, 62, 0
2, 21600, Note_on_c, 0, 72, 70
2, 21606, Note_on_c, 0, 72, 0
2, 21606, Note_on_c, 0, 71, 70
2, 21623, Note_on_c, 0, 71, 0
2, 21624, Note_on_c, 0, 70, 71
2, 21647, Note_on_c, 0, 70, 0
2, 21648, Note_on_c, 0, 71, 72
2, 21671, Note_on_c, 0, 71, 0
2, 21672, Note_on_c, 0, 70, 73
2, 21695, Note_on_c, 0, 70, 0
2, 21696, Note_on_c, 0, 71, 74
2, 21719, Note_on_c, 0, 71, 0
2, 21720, Note_on_c, 0, 74, 75
2, 21743, Note_on_c, 0, 74, 0
2, 21744, Note_on_c, 0, 74, 93
2, 21792, Note_on_c, 0, 74, 0
2, 21792, Note_on_c, 0, 72, 77
2, 21837, Note_on_c, 0, 72, 0
2, 21840, Note_on_c, 0, 71, 77
2, 21840, Note_on_c, 0, 67, 77
2, 21860, Note_on_c, 0, 71, 0
2, 21860, Note_on_c, 0, 67, 0
2, 21888, Note_on_c, 0, 71, 77
2, 21888, Note_on_c, 0, 67, 77
2, 21936, Note_on_c, 0, 71, 0
2, 21936, Note_on_c, 0, 67, 0
2, 21936, Note_on_c, 0, 69, 74
2, 21936, Note_on_c, 0, 66, 74
2, 21956, Note_on_c, 0, 69, 0
2, 21956, Note_on_c, 0, 66, 0
2, 21984, Note_on_c, 0, 69, 72
2, 21984, Note_on_c, 0, 66, 72
2, 22004, Note_on_c, 0, 69, 0
2, 22004, Note_on_c, 0, 66, 0
2, 22032, Note_on_c, 0, 69, 86
2, 22032, Note_on_c, 0, 66, 86
2, 22128, Note_on_c, 0, 69, 0
2, 22128, Note_on_c, 0, 66, 0
2, 22128, Note_on_c, 0, 71, 72
2, 22128, Note_on_c, 0, 68, 72
2, 22173, Note_on_c, 0, 71, 0
2, 22173, Note_on_c, 0, 68, 0
2, 22176, Note_on_c, 0, 72, 73
2, 22176, Note_on_c, 0, 69, 73
2, 22224, Note_on_c, 0, 72, 0
2, 22224, Note_on_c, 0, 69, 0
2, 22224, Note_on_c, 0, 74, 74
2, 22224, Note_on_c, 0, 71, 74
2, 22269, Note_on_c, 0, 74, 0
2, 22269, Note_on_c, 0, 71, 0
2, 22272, Note_on_c, 0, 76, 75
2, 22272, Note_on_c, 0, 72, 75
2, 22292, Note_on_c, 0, 76, 0
2, 22292, Note_on_c, 0, 72, 0
2, 22320, Note_on_c, 0, 76, 93
2, 22320, Note_on_c, 0, 72, 93
2, 22416, Note_on_c, 0, 76, 0
2, 22416, Note_on_c, 0, 72, 0
2, 22416, Note_on_c, 0, 74, 72
2, 22416, Note_on_c, 0, 71, 72
2, 22439, Note_on_c, 0, 74, 0
2, 22439, Note_on_c, 0, 71, 0
2, 22440, Note_on_c, 0, 72, 71
2, 22440, Note_on_c, 0, 69, 71
2, 22463, Note_on_c, 0, 72, 0
2, 22463, Note_on_c, 0, 69, 0
2, 22464, Note_on_c, 0, 71, 70
2, 22487, Note_on_c, 0, 71, 0
2, 22488, Note_on_c, 0, 72, 70
2, 22511, Note_on_c, 0, 72, 0
2, 22512, Note_on_c, 0, 71, 71
2, 22535, Note_on_c, 0, 71, 0
2, 22536, Note_on_c, 0, 72, 72
2, 22559, Note_on_c, 0, 72, 0
2, 22560, Note_on_c, 0, 71, 73
2, 22583, Note_on_c, 0, 71, 0
2, 22584, Note_on_c, 0, 74, 73
2, 22607, Note_on_c, 0, 74, 0
2, 22608, Note_on_c, 0, 72, 74
2, 22653, Note_on_c, 0, 72, 0
2, 22656, Note_on_c, 0, 74, 76
2, 22701, Note_on_c, 0, 74, 0
2, 22704, Note_on_c, 0, 76, 77
2, 22749, Note_on_c, 0, 76, 0
2, 22752, Note_on_c, 0, 74, 79
2, 22797, Note_on_c, 0, 74, 0
2, 22800, Note_on_c, 0, 79, 80
2, 22820, Note_on_c, 0, 79, 0
2, 22848, Note_on_c, 0, 79, 82
2, 22868, Note_on_c, 0, 79, 0
2, 22896, Note_on_c, 0, 81, 84
2, 22920, Note_on_c, 0, 81, 0
2, 22920, Note_on_c, 0, 79, 84
2, 22941, Note_on_c, 0, 79, 0
2, 22944, Note_on_c, 0, 78, 80
2, 22967, Note_on_c, 0, 78, 0
2, 22968, Note_on_c, 0, 76, 78
2, 22991, Note_on_c, 0, 76, 0
2, 22992, Note_on_c, 0, 74, 76
2, 23015, Note_on_c, 0, 74, 0
2, 23016, Note_on_c, 0, 73, 74
2, 23039, Note_on_c, 0, 73, 0
2, 23040, Note_on_c, 0, 76, 73
2, 23088, Note_on_c, 0, 76, 0
2, 23088, Note_on_c, 0, 74, 69
2, 23133, Note_on_c, 0, 74, 0
2, 23136, Note_on_c, 0, 74, 65
2, 23156, Note_on_c, 0, 74, 0
2, 23184, Note_on_c, 0, 74, 62
2, 23251, Note_on_c, 0, 74, 0
2, 23256, Note_on_c, 0, 71, 58
2, 23279, Note_on_c, 0, 71, 0
2, 23280, Note_on_c, 0, 72, 57
2, 23303, Note_on_c, 0, 72, 0
2, 23304, Note_on_c, 0, 69, 56
2, 23327, Note_on_c, 0, 69, 0
2, 23328, Note_on_c, 0, 67, 70
2, 23417, Note_on_c, 0, 67, 0
2, 23424, Note_on_c, 0, 71, 70
2, 23436, Note_on_c, 0, 71, 0
2, 23436, Note_on_c, 0, 69, 70
2, 23469, Note_on_c, 0, 69, 0
2, 23472, Note_on_c, 0, 62, 70
2, 23517, Note_on_c, 0, 62, 0
2, 23520, Note_on_c, 0, 63, 70
2, 23543, Note_on_c, 0, 63, 0
2, 23544, Note_on_c, 0, 64, 71
2, 23567, Note_on_c, 0, 64, 0
2, 23568, Note_on_c, 0, 65, 72
2, 23591, Note_on_c, 0, 65, 0
2, 23592, Note_on_c, 0, 66, 73
2, 23615, Note_on_c, 0, 66, 0
2, 23616, Note_on_c, 0, 67, 74
2, 23636, Note_on_c, 0, 67, 0
2, 23664, Note_on_c, 0, 67, 77
2, 23684, Note_on_c, 0, 67, 0
2, 23712, Note_on_c, 0, 67, 75
2, 23732, Note_on_c, 0, 67, 0
2, 23760, Note_on_c, 0, 67, 73
2, 23849, Note_on_c, 0, 67, 0
2, 23856, Note_on_c, 0, 69, 70
2, 23856, Note_on_c, 0, 62, 70
2, 23876, Note_on_c, 0, 69, 0
2, 23876, Note_on_c, 0, 62, 0
2, 23904, Note_on_c, 0, 72, 70
2, 23910, Note_on_c, 0, 72, 0
2, 23910, Note_on_c, 0, 71, 70
2, 23927, Note_on_c, 0, 71, 0
2, 23928, Note_on_c, 0, 70, 71
2, 23951, Note_on_c, 0, 70, 0
2, 23952, Note_on_c, 0, 71, 72
2, 23975, Note_on_c, 0, 71, 0
2, 23976, Note_on_c, 0, 70, 73
2, 23999, Note_on_c, 0, 70, 0
2, 24000, Note_on_c, 0, 71, 74
2, 24023, Note_on_c, 0, 71, 0
2, 24024, Note_on_c, 0, 74, 75
2, 24047, Note_on_c, 0, 74, 0
2, 24048, Note_on_c, 0, 74, 93
2, 24096, Note_on_c, 0, 74, 0
2, 24096, Note_on_c, 0, 72, 77
2, 24141, Note_on_c, 0, 72, 0
2, 24144, Note_on_c, 0, 71, 77
2, 24144, Note_on_c, 0, 67, 77
2, 24164, Note_on_c, 0, 71, 0
2, 24164, Note_on_c, 0, 67, 0
2, 24192, Note_on_c, 0, 71, 77
2, 24192, Note_on_c, 0, 67, 77
2, 24240, Note_on_c, 0, 71, 0
2, 24240, Note_on_c, 0, 67, 0
2, 24240, Note_on_c, 0, 69, 74
2, 24240, Note_on_c, 0, 66, 74
2, 24260, Note_on_c, 0, 69, 0
2, 24260, Note_on_c, 0, 66, 0
2, 24288, Note_on_c, 0, 69, 72
2, 24288, Note_on_c, 0, 66, 72
2, 24308, Note_on_c, 0, 69, 0
2, 24308, Note_on_c, 0, 66, 0
2, 24336, Note_on_c, 0, 69, 86
2, 24336, Note_on_c, 0, 66, 86
2, 24432, Note_on_c, 0, 69, 0
2, 24432, Note_on_c, 0, 66, 0
2, 24432, Note_on_c, 0, 71, 72
2, 24432, Note_on_c, 0, 68, 72
2, 24477, Note_on_c, 0, 71, 0
2, 24477, Note_on_c, 0, 68, 0
2, 24480, Note_on_c, 0, 72, 73
2, 24480, Note_on_c, 0, 69, 73
2, 24528, Note_on_c, 0, 72, 0
2, 24528, Note_on_c, 0, 69, 0
2, 24528, Note_on_c, 0, 74, 74
2, 24528, Note_on_c, 0, 71, 74
2, 24573, Note_on_c, 0, 74, 0
2, 24573, Note_on_c, 0, 71, 0
2, 24576, Note_on_c, 0, 76, 75
2, 24576, Note_on_c, 0, 72, 75
2, 24596, Note_on_c, 0, 76, 0
2, 24596, Note_on_c, 0, 72, 0
2, 24624, Note_on_c, 0, 76, 93
2, 24624, Note_on_c, 0, 72, 93
2, 24720, Note_on_c, 0, 76, 0
2, 24720, Note_on_c, 0, 72, 0
2, 24720, Note_on_c, 0, 74, 72
2, 24720, Note_on_c, 0, 71, 72
2, 24743, Note_on_c, 0, 74, 0
2, 24743, Note_on_c, 0, 71, 0
2, 24744, Note_on_c, 0, 72, 71
2, 24744, Note_on_c, 0, 69, 71
2, 24767, Note_on_c, 0, 72, 0
2, 24767, Note_on_c, 0, 69, 0
2, 24768, Note_on_c, 0, 71, 70
2, 24791, Note_on_c, 0, 71, 0
2, 24792, Note_on_c, 0, 72, 70
2, 24815, Note_on_c, 0, 72, 0
2, 24816, Note_on_c, 0, 71, 71
2, 24839, Note_on_c, 0, 71, 0
2, 24840, Note_on_c, 0, 72, 72
2, 24863, Note_on_c, 0, 72, 0
2, 24864, Note_on_c, 0, 71, 73
2, 24887, Note_on_c, 0, 71, 0
2, 24888, Note_on_c, 0, 74, 73
2, 24911, Note_on_c, 0, 74, 0
2, 24912, Note_on_c, 0, 72, 74
2, 24957, Note_on_c, 0, 72, 0
2, 24960, Note_on_c, 0, 74, 76
2, 25005, Note_on_c, 0, 74, 0
2, 25008, Note_on_c, 0, 76, 77
2, 25053, Note_on_c, 0, 76, 0
2, 25056, Note_on_c, 0, 74, 79
2, 25101, Note_on_c, 0, 74, 0
2, 25104, Note_on_c, 0, 79, 80
2, 25124, Note_on_c, 0, 79, 0
2, 25152, Note_on_c, 0, 79, 82
2, 25172, Note_on_c, 0, 79, 0
2, 25200, Note_on_c, 0, 81, 84
2, 25224, Note_on_c, 0, 81, 0
2, 25224, Note_on_c, 0, 79, 84
2, 25245, Note_on_c, 0, 79, 0
2, 25248, Note_on_c, 0, 78, 80
2, 25271, Note_on_c, 0, 78, 0
2, 25272, Note_on_c, 0, 76, 78
2, 25295, Note_on_c, 0, 76, 0
2, 25296, Note_on_c, 0, 74, 76
2, 25319, Note_on_c, 0, 74, 0
2, 25320, Note_on_c, 0, 73, 74
2, 25343, Note_on_c, 0, 73, 0
2, 25344, Note_on_c, 0, 76, 77
2, 25392, Note_on_c, 0, 76, 0
2, 25392, Note_on_c, 0, 74, 75
2, 25437, Note_on_c, 0, 74, 0
2, 25440, Note_on_c, 0, 74, 73
2, 25460, Note_on_c, 0, 74, 0
2, 25488, Note_on_c, 0, 74, 71
2, 25533, Note_on_c, 0, 74, 0
2, 25584, Note_on_c, 0, 79, 77
2, 25604, Note_on_c, 0, 79, 0
2, 25632, Note_on_c, 0, 79, 77
2, 25721, Note_on_c, 0, 79, 0
2, 25728, Note_on_c, 0, 83, 77
2, 25740, Note_on_c, 0, 83, 0
2, 25740, Note_on_c, 0, 81, 77
2, 25773, Note_on_c, 0, 81, 0
2, 25776, Note_on_c, 0, 79, 77
2, 25821, Note_on_c, 0, 79, 0
2, 25824, Note_on_c, 0, 78, 77
2, 25869, Note_on_c, 0, 78, 0
2, 25872, Note_on_c, 0, 76, 77
2, 25917, Note_on_c, 0, 76, 0
2, 25920, Note_on_c, 0, 74, 77
2, 25965, Note_on_c, 0, 74, 0
2, 25968, Note_on_c, 0, 74, 77
2, 26013, Note_on_c, 0, 74, 0
2, 26016, Note_on_c, 0, 74, 77
2, 26061, Note_on_c, 0, 74, 0
2, 26064, Note_on_c, 0, 74, 62
2, 26160, Note_on_c, 0, 74, 0
2, 26160, Note_on_c, 0, 75, 76
2, 26205, Note_on_c, 0, 75, 0
2, 26208, Note_on_c, 0, 76, 84
2, 26231, Note_on_c, 0, 76, 0
2, 26232, Note_on_c, 0, 75, 85
2, 26255, Note_on_c, 0, 75, 0
2, 26256, Note_on_c, 0, 78, 86
2, 26279, Note_on_c, 0, 78, 0
2, 26280, Note_on_c, 0, 76, 87
2, 26303, Note_on_c, 0, 76, 0
2, 26304, Note_on_c, 0, 79, 88
2, 26327, Note_on_c, 0, 79, 0
2, 26328, Note_on_c, 0, 78, 89
2, 26351, Note_on_c, 0, 78, 0
2, 26352, Note_on_c, 0, 81, 90
2, 26375, Note_on_c, 0, 81, 0
2, 26376, Note_on_c, 0, 79, 89
2, 26399, Note_on_c, 0, 79, 0
2, 26400, Note_on_c, 0, 78, 88
2, 26423, Note_on_c, 0, 78, 0
2, 26424, Note_on_c, 0, 76, 87
2, 26447, Note_on_c, 0, 76, 0
2, 26448, Note_on_c, 0, 74, 86
2, 26471, Note_on_c, 0, 74, 0
2, 26472, Note_on_c, 0, 73, 85
2, 26495, Note_on_c, 0, 73, 0
2, 26496, Note_on_c, 0, 74, 84
2, 26541, Note_on_c, 0, 74, 0
2, 26592, Note_on_c, 0, 74, 100
2, 26612, Note_on_c, 0, 74, 0
2, 26640, Note_on_c, 0, 74, 84
2, 26685, Note_on_c, 0, 74, 0
2, 26736, Note_on_c, 0, 74, 100
2, 26756, Note_on_c, 0, 74, 0
2, 26784, Note_on_c, 0, 74, 84
2, 26829, Note_on_c, 0, 74, 0
2, 26880, Note_on_c, 0, 74, 100
2, 26900, Note_on_c, 0, 74, 0
2, 26928, Note_on_c, 0, 74, 84
2, 26973, Note_on_c, 0, 74, 0
2, 27024, Note_on_c, 0, 74, 100
2, 27044, Note_on_c, 0, 74, 0
2, 27096, Note_on_c, 0, 74, 70
2, 27119, Note_on_c, 0, 74, 0
2, 27120, Note_on_c, 0, 78, 70
2, 27143, Note_on_c, 0, 78, 0
2, 27144, Note_on_c, 0, 74, 70
2, 27167, Note_on_c, 0, 74, 0
2, 27168, Note_on_c, 0, 76, 70
2, 27191, Note_on_c, 0, 76, 0
2, 27192, Note_on_c, 0, 79, 70
2, 27215, Note_on_c, 0, 79, 0
2, 27240, Note_on_c, 0, 78, 62
2, 27263, Note_on_c, 0, 78, 0
2, 27264, Note_on_c, 0, 81, 65
2, 27287, Note_on_c, 0, 81, 0
2, 27288, Note_on_c, 0, 78, 68
2, 27311, Note_on_c, 0, 78, 0
2, 27312, Note_on_c, 0, 79, 71
2, 27335, Note_on_c, 0, 79, 0
2, 27336, Note_on_c, 0, 83, 74
2, 27359, Note_on_c, 0, 83, 0
2, 27384, Note_on_c, 0, 81, 80
2, 27408, Note_on_c, 0, 81, 0
2, 27408, Note_on_c, 0, 84, 84
2, 27431, Note_on_c, 0, 84, 0
2, 27432, Note_on_c, 0, 78, 84
2, 27456, Note_on_c, 0, 78, 0
2, 27456, Note_on_c, 0, 81, 84
2, 27479, Note_on_c, 0, 81, 0
2, 27480, Note_on_c, 0, 72, 84
2, 27504, Note_on_c, 0, 72, 0
2, 27504, Note_on_c, 0, 78, 84
2, 27527, Note_on_c, 0, 78, 0
2, 27528, Note_on_c, 0, 69, 84
2, 27552, Note_on_c, 0, 69, 0
2, 27552, Note_on_c, 0, 72, 84
2, 27575, Note_on_c, 0, 72, 0
2, 27576, Note_on_c, 0, 66, 84
2, 27600, Note_on_c, 0, 66, 0
2, 27600, Note_on_c, 0, 69, 84
2, 27623, Note_on_c, 0, 69, 0
2, 27624, Note_on_c, 0, 60, 84
2, 27648, Note_on_c, 0, 60, 0
2, 27648, Note_on_c, 0, 76, 84
2, 27881, Note_on_c, 0, 76, 0
2, 27888, Note_on_c, 0, 74, 70
2, 27900, Note_on_c, 0, 74, 0
2, 27900, Note_on_c, 0, 72, 70
2, 27912, Note_on_c, 0, 72, 0
2, 27912, Note_on_c, 0, 71, 70
2, 27924, Note_on_c, 0, 71, 0
2, 27924, Note_on_c, 0, 69, 70
2, 27936, Note_on_c, 0, 69, 0
2, 27936, Note_on_c, 0, 67, 70
2, 28025, Note_on_c, 0, 67, 0
2, 28032, Note_on_c, 0, 71, 70
2, 28044, Note_on_c, 0, 71, 0
2, 28044, Note_on_c, 0, 69, 70
2, 28077, Note_on_c, 0, 69, 0
2, 28080, Note_on_c, 0, 62, 70
2, 28125, Note_on_c, 0, 62, 0
2, 28128, Note_on_c, 0, 63, 69
2, 28151, Note_on_c, 0, 63, 0
2, 28152, Note_on_c, 0, 64, 68
2, 28175, Note_on_c, 0, 64, 0
2, 28176, Note_on_c, 0, 65, 68
2, 28199, Note_on_c, 0, 65, 0
2, 28200, Note_on_c, 0, 66, 67
2, 28223, Note_on_c, 0, 66, 0
2, 28224, Note_on_c, 0, 67, 67
2, 28244, Note_on_c, 0, 67, 0
2, 28272, Note_on_c, 0, 67, 66
2, 28292, Note_on_c, 0, 67, 0
2, 28320, Note_on_c, 0, 67, 65
2, 28340, Note_on_c, 0, 67, 0
2, 28368, Note_on_c, 0, 67, 64
2, 28457, Note_on_c, 0, 67, 0
2, 28464, Note_on_c, 0, 69, 62
2, 28464, Note_on_c, 0, 62, 62
2, 28484, Note_on_c, 0, 69, 0
2, 28484, Note_on_c, 0, 62, 0
2, 28512, Note_on_c, 0, 72, 70
2, 28518, Note_on_c, 0, 72, 0
2, 28518, Note_on_c, 0, 71, 70
2, 28535, Note_on_c, 0, 71, 0
2, 28536, Note_on_c, 0, 70, 71
2, 28559, Note_on_c, 0, 70, 0
2, 28560, Note_on_c, 0, 71, 72
2, 28583, Note_on_c, 0, 71, 0
2, 28584, Note_on_c, 0, 70, 73
2, 28607, Note_on_c, 0, 70, 0
2, 28608, Note_on_c, 0, 71, 74
2, 28631, Note_on_c, 0, 71, 0
2, 28632, Note_on_c, 0, 74, 75
2, 28655, Note_on_c, 0, 74, 0
2, 28656, Note_on_c, 0, 74, 93
2, 28704, Note_on_c, 0, 74, 0
2, 28704, Note_on_c, 0, 72, 77
2, 28749, Note_on_c, 0, 72, 0
2, 28752, Note_on_c, 0, 71, 77
2, 28752, Note_on_c, 0, 67, 77
2, 28772, Note_on_c, 0, 71, 0
2, 28772, Note_on_c, 0, 67, 0
2, 28800, Note_on_c, 0, 71, 93
2, 28800, Note_on_c, 0, 67, 93
2, 28848, Note_on_c, 0, 71, 0
2, 28848, Note_on_c, 0, 67, 0
2, 28848, Note_on_c, 0, 69, 74
2, 28848, Note_on_c, 0, 66, 74
2, 28868, Note_on_c, 0, 69, 0
2, 28868, Note_on_c, 0, 66, 0
2, 28896, Note_on_c, 0, 69, 72
2, 28896, Note_on_c, 0, 66, 72
2, 28916, Note_on_c, 0, 69, 0
2, 28916, Note_on_c, 0, 66, 0
2, 28944, Note_on_c, 0, 69, 86
2, 28944, Note_on_c, 0, 66, 86
2, 29040, Note_on_c, 0, 69, 0
2, 29040, Note_on_c, 0, 66, 0
2, 29040, Note_on_c, 0, 71, 72
2, 29040, Note_on_c, 0, 68, 72
2, 29085, Note_on_c, 0, 71, 0
2, 29085, Note_on_c, 0, 68, 0
2, 29088, Note_on_c, 0, 72, 73
2, 29088, Note_on_c, 0, 69, 73
2, 29133, Note_on_c, 0, 72, 0
2, 29133, Note_on_c, 0, 69, 0
2, 29136, Note_on_c, 0, 74, 74
2, 29136, Note_on_c, 0, 71, 74
2, 29181, Note_on_c, 0, 74, 0
2, 29181, Note_on_c, 0, 71, 0
2, 29184, Note_on_c, 0, 76, 75
2, 29184, Note_on_c, 0, 72, 75
2, 29204, Note_on_c, 0, 76, 0
2, 29204, Note_on_c, 0, 72, 0
2, 29232, Note_on_c, 0, 76, 93
2, 29232, Note_on_c, 0, 72, 93
2, 29328, Note_on_c, 0, 76, 0
2, 29328, Note_on_c, 0, 72, 0
2, 29328, Note_on_c, 0, 74, 72
2, 29328, Note_on_c, 0, 71, 72
2, 29351, Note_on_c, 0, 74, 0
2, 29351, Note_on_c, 0, 71, 0
2, 29352, Note_on_c, 0, 72, 71
2, 29352, Note_on_c, 0, 69, 71
2, 29375, Note_on_c, 0, 72, 0
2, 29375, Note_on_c, 0, 69, 0
2, 29376, Note_on_c, 0, 71, 77
2, 29376, Note_on_c, 0, 67, 77
2, 29421, Note_on_c, 0, 71, 0
2, 29421, Note_on_c, 0, 67, 0
2, 29424, Note_on_c, 0, 72, 75
2, 29424, Note_on_c, 0, 69, 75
2, 29469, Note_on_c, 0, 72, 0
2, 29469, Note_on_c, 0, 69, 0
2, 29472, Note_on_c, 0, 74, 74
2, 29472, Note_on_c, 0, 71, 74
2, 29517, Note_on_c, 0, 74, 0
2, 29517, Note_on_c, 0, 71, 0
2, 29520, Note_on_c, 0, 67, 73
2, 29520, Note_on_c, 0, 59, 73
2, 29565, Note_on_c, 0, 67, 0
2, 29565, Note_on_c, 0, 59, 0
2, 29568, Note_on_c, 0, 69, 72
2, 29568, Note_on_c, 0, 60, 72
2, 29613, Note_on_c, 0, 69, 0
2, 29613, Note_on_c, 0, 60, 0
2, 29616, Note_on_c, 0, 71, 71
2, 29616, Note_on_c, 0, 62, 71
2, 29661, Note_on_c, 0, 71, 0
2, 29661, Note_on_c, 0, 62, 0
2, 29664, Note_on_c, 0, 69, 70
2, 29709, Note_on_c, 0, 69, 0
2, 29712, Note_on_c, 0, 71, 73
2, 29757, Note_on_c, 0, 71, 0
2, 29760, Note_on_c, 0, 72, 77
2, 29805, Note_on_c, 0, 72, 0
2, 29808, Note_on_c, 0, 72, 91
2, 29856, Note_on_c, 0, 72, 0
2, 29856, Note_on_c, 0, 69, 73
2, 29901, Note_on_c, 0, 69, 0
2, 29904, Note_on_c, 0, 66, 71
2, 29949, Note_on_c, 0, 66, 0
2, 29952, Note_on_c, 0, 69, 84
2, 30096, Note_on_c, 0, 69, 0
2, 30096, Note_on_c, 0, 67, 78
2, 30141, Note_on_c, 0, 67, 0
2, 30192, Note_on_c, 0, 79, 77
2, 30212, Note_on_c, 0, 79, 0
2, 30240, Note_on_c, 0, 79, 77
2, 30329, Note_on_c, 0, 79, 0
2, 30336, Note_on_c, 0, 83, 77
2, 30348, Note_on_c, 0, 83, 0
2, 30348, Note_on_c, 0, 81, 77
2, 30381, Note_on_c, 0, 81, 0
2, 30384, Note_on_c, 0, 79, 77
2, 30429, Note_on_c, 0, 79, 0
2, 30432, Note_on_c, 0, 78, 77
2, 30477, Note_on_c, 0, 78, 0
2, 30480, Note_on_c, 0, 76, 77
2, 30525, Note_on_c, 0, 76, 0
2, 30528, Note_on_c, 0, 74, 77
2, 30573, Note_on_c, 0, 74, 0
2, 30576, Note_on_c, 0, 74, 77
2, 30621, Note_on_c, 0, 74, 0
2, 30624, Note_on_c, 0, 74, 77
2, 30669, Note_on_c, 0, 74, 0
2, 30672, Note_on_c, 0, 74, 62
2, 30768, Note_on_c, 0, 74, 0
2, 30768, Note_on_c, 0, 75, 76
2, 30813, Note_on_c, 0, 75, 0
2, 30816, Note_on_c, 0, 76, 84
2, 30839, Note_on_c, 0, 76, 0
2, 30840, Note_on_c, 0, 75, 85
2, 30863, Note_on_c, 0, 75, 0
2, 30864, Note_on_c, 0, 78, 86
2, 30887, Note_on_c, 0, 78, 0
2, 30888, Note_on_c, 0, 76, 87
2, 30911, Note_on_c, 0, 76, 0
2, 30912, Note_on_c, 0, 79, 88
2, 30935, Note_on_c, 0, 79, 0
2, 30936, Note_on_c, 0, 78, 89
2, 30959, Note_on_c, 0, 78, 0
2, 30960, Note_on_c, 0, 81, 90
2, 30983, Note_on_c, 0, 81, 0
2, 30984, Note_on_c, 0, 79, 89
2, 31007, Note_on_c, 0, 79, 0
2, 31008, Note_on_c, 0, 78, 88
2, 31031, Note_on_c, 0, 78, 0
2, 31032, Note_on_c, 0, 76, 87
2, 31055, Note_on_c, 0, 76, 0
2, 31056, Note_on_c, 0, 74, 86
2, 31079, Note_on_c, 0, 74, 0
2, 31080, Note_on_c, 0, 73, 85
2, 31103, Note_on_c, 0, 73, 0
2, 31104, Note_on_c, 0, 74, 84
2, 31149, Note_on_c, 0, 74, 0
2, 31200, Note_on_c, 0, 74, 100
2, 31220, Note_on_c, 0, 74, 0
2, 31248, Note_on_c, 0, 74, 84
2, 31293, Note_on_c, 0, 74, 0
2, 31344, Note_on_c, 0, 74, 100
2, 31364, Note_on_c, 0, 74, 0
2, 31392, Note_on_c, 0, 74, 84
2, 31437, Note_on_c, 0, 74, 0
2, 31488, Note_on_c, 0, 74, 100
2, 31508, Note_on_c, 0, 74, 0
2, 31536, Note_on_c, 0, 74, 84
2, 31581, Note_on_c, 0, 74, 0
2, 31632, Note_on_c, 0, 74, 100
2, 31652, Note_on_c, 0, 74, 0
2, 31704, Note_on_c, 0, 74, 70
2, 31727, Note_on_c, 0, 74, 0
2, 31728, Note_on_c, 0, 78, 70
2, 31751, Note_on_c, 0, 78, 0
2, 31752, Note_on_c, 0, 74, 70
2, 31775, Note_on_c, 0, 74, 0
2, 31776, Note_on_c, 0, 76, 70
2, 31799, Note_on_c, 0, 76, 0
2, 31800, Note_on_c, 0, 79, 70
2, 31823, Note_on_c, 0, 79, 0
2, 31848, Note_on_c, 0, 78, 62
2, 31871, Note_on_c, 0, 78, 0
2, 31872, Note_on_c, 0, 81, 65
2, 31895, Note_on_c, 0, 81, 0
2, 31896, Note_on_c, 0, 78, 68
2, 31919, Note_on_c, 0, 78, 0
2, 31920, Note_on_c, 0, 79, 71
2, 31943, Note_on_c, 0, 79, 0
2, 31944, Note_on_c, 0, 83, 74
2, 31967, Note_on_c, 0, 83, 0
2, 31992, Note_on_c, 0, 81, 80
2, 32016, Note_on_c, 0, 81, 0
2, 32016, Note_on_c, 0, 84, 84
2, 32039, Note_on_c, 0, 84, 0
2, 32040, Note_on_c, 0, 78, 84
2, 32064, Note_on_c, 0, 78, 0
2, 32064, Note_on_c, 0, 81, 84
2, 32087, Note_on_c, 0, 81, 0
2, 32088, Note_on_c, 0, 72, 84
2, 32112, Note_on_c, 0, 72, 0
2, 32112, Note_on_c, 0, 78, 84
2, 32135, Note_on_c, 0, 78, 0
2, 32136, Note_on_c, 0, 69, 84
2, 32160, Note_on_c, 0, 69, 0
2, 32160, Note_on_c, 0, 72, 84
2, 32183, Note_on_c, 0, 72, 0
2, 32184, Note_on_c, 0, 66, 84
2, 32208, Note_on_c, 0, 66, 0
2, 32208, Note_on_c, 0, 69, 84
2, 32231, Note_on_c, 0, 69, 0
2, 32232, Note_on_c, 0, 60, 84
2, 32256, Note_on_c, 0, 60, 0
2, 32256, Note_on_c, 0, 76, 84
2, 32489, Note_on_c, 0, 76, 0
2, 32496, Note_on_c, 0, 74, 70
2, 32508, Note_on_c, 0, 74, 0
2, 32508, Note_on_c, 0, 72, 70
2, 32520, Note_on_c, 0, 72, 0
2, 32520, Note_on_c, 0, 71, 70
2, 32532, Note_on_c, 0, 71, 0
2, 32532, Note_on_c, 0, 69, 70
2, 32544, Note_on_c, 0, 69, 0
2, 32544, Note_on_c, 0, 67, 70
2, 32633, Note_on_c, 0, 67, 0
2, 32640, Note_on_c, 0, 71, 70
2, 32652, Note_on_c, 0, 71, 0
2, 32652, Note_on_c, 0, 69, 70
2, 32685, Note_on_c, 0, 69, 0
2, 32688, Note_on_c, 0, 62, 70
2, 32733, Note_on_c, 0, 62, 0
2, 32736, Note_on_c, 0, 63, 69
2, 32759, Note_on_c, 0, 63, 0
2, 32760, Note_on_c, 0, 64, 68
2, 32783, Note_on_c, 0, 64, 0
2, 32784, Note_on_c, 0, 65, 68
2, 32807, Note_on_c, 0, 65, 0
2, 32808, Note_on_c, 0, 66, 67
2, 32831, Note_on_c, 0, 66, 0
2, 32832, Note_on_c, 0, 67, 67
2, 32852, Note_on_c, 0, 67, 0
2, 32880, Note_on_c, 0, 67, 66
2, 32900, Note_on_c, 0, 67, 0
2, 32928, Note_on_c, 0, 67, 65
2, 32948, Note_on_c, 0, 67, 0
2, 32976, Note_on_c, 0, 67, 64
2, 33065, Note_on_c, 0, 67, 0
2, 33072, Note_on_c, 0, 69, 62
2, 33072, Note_on_c, 0, 62, 62
2, 33092, Note_on_c, 0, 69, 0
2, 33092, Note_on_c, 0, 62, 0
2, 33120, Note_on_c, 0, 72, 70
2, 33126, Note_on_c, 0, 72, 0
2, 33126, Note_on_c, 0, 71, 70
2, 33143, Note_on_c, 0, 71, 0
2, 33144, Note_on_c, 0, 70, 71
2, 33167, Note_on_c, 0, 70, 0
2, 33168, Note_on_c, 0, 71, 72
2, 33191, Note_on_c, 0, 71, 0
2, 33192, Note_on_c, 0, 70, 73
2, 33215, Note_on_c, 0, 70, 0
2, 33216, Note_on_c, 0, 71, 74
2, 33239, Note_on_c, 0, 71, 0
2, 33240, Note_on_c, 0, 74, 75
2, 33263, Note_on_c, 0, 74, 0
2, 33264, Note_on_c, 0, 74, 93
2, 33312, Note_on_c, 0, 74, 0
2, 33312, Note_on_c, 0, 72, 77
2, 33357, Note_on_c, 0, 72, 0
2, 33360, Note_on_c, 0, 71, 77
2, 33360, Note_on_c, 0, 67, 77
2, 33380, Note_on_c, 0, 71, 0
2, 33380, Note_on_c, 0, 67, 0
2, 33408, Note_on_c, 0, 71, 93
2, 33408, Note_on_c, 0, 67, 93
2, 33456, Note_on_c, 0, 71, 0
2, 33456, Note_on_c, 0, 67, 0
2, 33456, Note_on_c, 0, 69, 74
2, 33456, Note_on_c, 0, 66, 74
2, 33476, Note_on_c, 0, 69, 0
2, 33476, Note_on_c, 0, 66, 0
2, 33504, Note_on_c, 0, 69, 72
2, 33504, Note_on_c, 0, 66, 72
2, 33524, Note_on_c, 0, 69, 0
2, 33524, Note_on_c, 0, 66, 0
2, 33552, Note_on_c, 0, 69, 86
2, 33552, Note_on_c, 0, 66, 86
2, 33648, Note_on_c, 0, 69, 0
2, 33648, Note_on_c, 0, 66, 0
2, 33648, Note_on_c, 0, 71, 72
2, 33648, Note_on_c, 0, 68, 72
2, 33693, Note_on_c, 0, 71, 0
2, 33693, Note_on_c, 0, 68, 0
2, 33696, Note_on_c, 0, 72, 73
2, 33696, Note_on_c, 0, 69, 73
2, 33741, Note_on_c, 0, 72, 0
2, 33741, Note_on_c, 0, 69, 0
2, 33744, Note_on_c, 0, 74, 74
2, 33744, Note_on_c, 0, 71, 74
2, 33789, Note_on_c, 0, 74, 0
2, 33789, Note_on_c, 0, 71, 0
2, 33792, Note_on_c, 0, 76, 75
2, 33792, Note_on_c, 0, 72, 75
2, 33812, Note_on_c, 0, 76, 0
2, 33812, Note_on_c, 0, 72, 0
2, 33840, Note_on_c, 0, 76, 93
2, 33840, Note_on_c, 0, 72, 93
2, 33936, Note_on_c, 0, 76, 0
2, 33936, Note_on_c, 0, 72, 0
2, 33936, Note_on_c, 0, 74, 72
2, 33936, Note_on_c, 0, 71, 72
2, 33959, Note_on_c, 0, 74, 0
2, 33959, Note_on_c, 0, 71, 0
2, 33960, Note_on_c, 0, 72, 71
2, 33960, Note_on_c, 0, 69, 71
2, 33983, Note_on_c, 0, 72, 0
2, 33983, Note_on_c, 0, 69, 0
2, 33984, Note_on_c, 0, 71, 77
2, 33984, Note_on_c, 0, 67, 77
2, 34029, Note_on_c, 0, 71, 0
2, 34029, Note_on_c, 0, 67, 0
2, 34032, Note_on_c, 0, 72, 75
2, 34032, Note_on_c, 0, 69, 75
2, 34077, Note_on_c, 0, 72, 0
2, 34077, Note_on_c, 0, 69, 0
2, 34080, Note_on_c, 0, 74, 74
2, 34080, Note_on_c, 0, 71, 74
2, 34125, Note_on_c, 0, 74, 0
2, 34125, Note_on_c, 0, 71, 0
2, 34128, Note_on_c, 0, 67, 73
2, 34128, Note_on_c, 0, 59, 73
2, 34173, Note_on_c, 0, 67, 0
2, 34173, Note_on_c, 0, 59, 0
2, 34176, Note_on_c, 0, 69, 72
2, 34176, Note_on_c, 0, 60, 72
2, 34221, Note_on_c, 0, 69, 0
2, 34221, Note_on_c, 0, 60, 0
2, 34224, Note_on_c, 0, 71, 71
2, 34224, Note_on_c, 0, 62, 71
2, 34269, Note_on_c, 0, 71, 0
2, 34269, Note_on_c, 0, 62, 0
2, 34272, Note_on_c, 0, 69, 70
2, 34317, Note_on_c, 0, 69, 0
2, 34320, Note_on_c, 0, 71, 73
2, 34365, Note_on_c, 0, 71, 0
2, 34368, Note_on_c, 0, 72, 77
2, 34413, Note_on_c, 0, 72, 0
2, 34416, Note_on_c, 0, 72, 91
2, 34464, Note_on_c, 0, 72, 0
2, 34464, Note_on_c, 0, 69, 73
2, 34509, Note_on_c, 0, 69, 0
2, 34512, Note_on_c, 0, 66, 71
2, 34557, Note_on_c, 0, 66, 0
2, 34560, Note_on_c, 0, 69, 70
2, 34751, Note_on_c, 0, 69, 0
2, 34800, Note_on_c, 0, 74, 62
2, 34820, Note_on_c, 0, 74, 0
2, 34848, Note_on_c, 0, 74, 62
2, 34868, Note_on_c, 0, 74, 0
2, 34944, Note_on_c, 0, 74, 65
2, 34968, Note_on_c, 0, 74, 0
2, 34968, Note_on_c, 0, 75, 66
2, 34991, Note_on_c, 0, 75, 0
2, 34992, Note_on_c, 0, 75, 66
2, 35012, Note_on_c, 0, 75, 0
2, 35088, Note_on_c, 0, 79, 70
2, 35112, Note_on_c, 0, 79, 0
2, 35112, Note_on_c, 0, 78, 70
2, 35135, Note_on_c, 0, 78, 0
2, 35136, Note_on_c, 0, 78, 71
2, 35156, Note_on_c, 0, 78, 0
2, 35232, Note_on_c, 0, 82, 75
2, 35256, Note_on_c, 0, 82, 0
2, 35256, Note_on_c, 0, 78, 75
2, 35279, Note_on_c, 0, 78, 0
2, 35280, Note_on_c, 0, 79, 76
2, 35300, Note_on_c, 0, 79, 0
2, 35376, Note_on_c, 0, 82, 79
2, 35400, Note_on_c, 0, 82, 0
2, 35400, Note_on_c, 0, 81, 80
2, 35423, Note_on_c, 0, 81, 0
2, 35424, Note_on_c, 0, 84, 81
2, 35491, Note_on_c, 0, 84, 0
2, 35496, Note_on_c, 0, 82, 84
2, 35519, Note_on_c, 0, 82, 0
2, 35520, Note_on_c, 0, 81, 84
2, 35532, Note_on_c, 0, 81, 0
2, 35532, Note_on_c, 0, 79, 84
2, 35544, Note_on_c, 0, 79, 0
2, 35544, Note_on_c, 0, 77, 84
2, 35556, Note_on_c, 0, 77, 0
2, 35556, Note_on_c, 0, 76, 84
2, 35562, Note_on_c, 0, 76, 0
2, 35562, Note_on_c, 0, 74, 84
2, 35568, Note_on_c, 0, 74, 0
2, 35616, Note_on_c, 0, 79, 106
2, 35619, Note_on_c, 0, 82, 106
2, 35622, Note_on_c, 0, 85, 106
2, 35625, Note_on_c, 0, 88, 106
2, 35707, Note_on_c, 0, 88, 0
2, 35707, Note_on_c, 0, 85, 0
2, 35707, Note_on_c, 0, 82, 0
2, 35707, Note_on_c, 0, 79, 0
2, 35724, Note_on_c, 0, 77, 84
2, 35736, Note_on_c, 0, 77, 0
2, 35736, Note_on_c, 0, 81, 84
2, 35748, Note_on_c, 0, 81, 0
2, 35748, Note_on_c, 0, 85, 84
2, 35760, Note_on_c, 0, 85, 0
2, 35760, Note_on_c, 0, 86, 84
2, 35772, Note_on_c, 0, 86, 0
2, 35772, Note_on_c, 0, 79, 84
2, 35784, Note_on_c, 0, 79, 0
2, 35784, Note_on_c, 0, 85, 84
2, 35796, Note_on_c, 0, 85, 0
2, 35796, Note_on_c, 0, 86, 84
2, 35808, Note_on_c, 0, 86, 0
2, 35808, Note_on_c, 0, 88, 84
2, 35820, Note_on_c, 0, 88, 0
2, 35820, Note_on_c, 0, 81, 84
2, 35832, Note_on_c, 0, 81, 0
2, 35832, Note_on_c, 0, 86, 84
2, 35844, Note_on_c, 0, 86, 0
2, 35844, Note_on_c, 0, 88, 84
2, 35856, Note_on_c, 0, 88, 0
2, 35856, Note_on_c, 0, 89, 84
2, 35901, Note_on_c, 0, 89, 0
2, 35904, Note_on_c, 0, 74, 106
2, 35908, Note_on_c, 0, 77, 106
2, 35912, Note_on_c, 0, 83, 106
2, 35995, Note_on_c, 0, 83, 0
2, 35995, Note_on_c, 0, 77, 0
2, 35995, Note_on_c, 0, 74, 0
2, 36048, Note_on_c, 0, 81, 84
2, 36048, Note_on_c, 0, 69, 84
2, 36093, Note_on_c, 0, 81, 0
2, 36093, Note_on_c, 0, 69, 0
2, 36096, Note_on_c, 0, 77, 84
2, 36119, Note_on_c, 0, 77, 0
2, 36120, Note_on_c, 0, 74, 84
2, 36143, Note_on_c, 0, 74, 0
2, 36192, Note_on_c, 0, 79, 77
2, 36192, Note_on_c, 0, 69, 77
2, 36237, Note_on_c, 0, 79, 0
2, 36237, Note_on_c, 0, 69, 0
2, 36240, Note_on_c, 0, 76, 77
2, 36263, Note_on_c, 0, 76, 0
2, 36264, Note_on_c, 0, 73, 77
2, 36287, Note_on_c, 0, 73, 0
2, 36288, Note_on_c, 0, 73, 70
2, 36384, Note_on_c, 0, 73, 0
2, 36384, Note_on_c, 0, 74, 62
2, 36404, Note_on_c, 0, 74, 0
2, 36432, Note_on_c, 0, 74, 62
2, 36477, Note_on_c, 0, 74, 0
2, 36528, Note_on_c, 0, 74, 62
2, 36548, Note_on_c, 0, 74, 0
2, 36576, Note_on_c, 0, 74, 62
2, 36596, Note_on_c, 0, 74, 0
2, 36672, Note_on_c, 0, 74, 65
2, 36696, Note_on_c, 0, 74, 0
2, 36696, Note_on_c, 0, 75, 66
2, 36719, Note_on_c, 0, 75, 0
2, 36720, Note_on_c, 0, 75, 66
2, 36740, Note_on_c, 0, 75, 0
2, 36816, Note_on_c, 0, 79, 70
2, 36840, Note_on_c, 0, 79, 0
2, 36840, Note_on_c, 0, 78, 70
2, 36863, Note_on_c, 0, 78, 0
2, 36864, Note_on_c, 0, 78, 71
2, 36884, Note_on_c, 0, 78, 0
2, 36960, Note_on_c, 0, 82, 75
2, 36984, Note_on_c, 0, 82, 0
2, 36984, Note_on_c, 0, 78, 75
2, 37007, Note_on_c, 0, 78, 0
2, 37008, Note_on_c, 0, 79, 76
2, 37028, Note_on_c, 0, 79, 0
2, 37104, Note_on_c, 0, 82, 79
2, 37128, Note_on_c, 0, 82, 0
2, 37128, Note_on_c, 0, 81, 80
2, 37151, Note_on_c, 0, 81, 0
2, 37152, Note_on_c, 0, 84, 81
2, 37219, Note_on_c, 0, 84, 0
2, 37224, Note_on_c, 0, 82, 84
2, 37247, Note_on_c, 0, 82, 0
2, 37248, Note_on_c, 0, 81, 84
2, 37260, Note_on_c, 0, 81, 0
2, 37260, Note_on_c, 0, 79, 84
2, 37272, Note_on_c, 0, 79, 0
2, 37272, Note_on_c, 0, 77, 84
2, 37284, Note_on_c, 0, 77, 0
2, 37284, Note_on_c, 0, 76, 84
2, 37290, Note_on_c, 0, 76, 0
2, 37290, Note_on_c, 0, 74, 84
2, 37296, Note_on_c, 0, 74, 0
2, 37344, Note_on_c, 0, 79, 106
2, 37347, Note_on_c, 0, 82, 106
2, 37350, Note_on_c, 0, 85, 106
2, 37353, Note_on_c, 0, 88, 106
2, 37435, Note_on_c, 0, 88, 0
2, 37435, Note_on_c, 0, 85, 0
2, 37435, Note_on_c, 0, 82, 0
2, 37435, Note_on_c, 0, 79, 0
2, 37452, Note_on_c, 0, 77, 84
2, 37464, Note_on_c, 0, 77, 0
2, 37464, Note_on_c, 0, 81, 84
2, 37476, Note_on_c, 0, 81, 0
2, 37476, Note_on_c, 0, 85, 84
2, 37488, Note_on_c, 0, 85, 0
2, 37488, Note_on_c, 0, 86, 84
2, 37500, Note_on_c, 0, 86, 0
2, 37500, Note_on_c, 0, 79, 84
2, 37512, Note_on_c, 0, 79, 0
2, 37512, Note_on_c, 0, 85, 84
2, 37524, Note_on_c, 0, 85, 0
2, 37524, Note_on_c, 0, 86, 84
2, 37536, Note_on_c, 0, 86, 0
2, 37536, Note_on_c, 0, 88, 84
2, 37548, Note_on_c, 0, 88, 0
2, 37548, Note_on_c, 0, 81, 84
2, 37560, Note_on_c, 0, 81, 0
2, 37560, Note_on_c, 0, 86, 84
2, 37572, Note_on_c, 0, 86, 0
2, 37572, Note_on_c, 0, 88, 84
2, 37584, Note_on_c, 0, 88, 0
2, 37584, Note_on_c, 0, 89, 84
2, 37629, Note_on_c, 0, 89, 0
2, 37632, Note_on_c, 0, 74, 106
2, 37636, Note_on_c, 0, 77, 106
2, 37640, Note_on_c, 0, 83, 106
2, 37723, Note_on_c, 0, 83, 0
2, 37723, Note_on_c, 0, 77, 0
2, 37723, Note_on_c, 0, 74, 0
2, 37776, Note_on_c, 0, 81, 84
2, 37776, Note_on_c, 0, 69, 84
2, 37821, Note_on_c, 0, 81, 0
2, 37821, Note_on_c, 0, 69, 0
2, 37824, Note_on_c, 0, 77, 84
2, 37847, Note_on_c, 0, 77, 0
2, 37848, Note_on_c, 0, 74, 84
2, 37871, Note_on_c, 0, 74, 0
2, 37920, Note_on_c, 0, 79, 77
2, 37920, Note_on_c, 0, 69, 77
2, 37965, Note_on_c, 0, 79, 0
2, 37965, Note_on_c, 0, 69, 0
2, 37968, Note_on_c, 0, 76, 77
2, 37991, Note_on_c, 0, 76, 0
2, 37992, Note_on_c, 0, 73, 77
2, 38015, Note_on_c, 0, 73, 0
2, 38016, Note_on_c, 0, 73, 70
2, 38112, Note_on_c, 0, 73, 0
2, 38112, Note_on_c, 0, 74, 62
2, 38132, Note_on_c, 0, 74, 0
2, 38160, Note_on_c, 0, 74, 62
2, 38205, Note_on_c, 0, 74, 0
2, 38256, Note_on_c, 0, 74, 62
2, 38276, Note_on_c, 0, 74, 0
2, 38304, Note_on_c, 0, 74, 62
2, 38324, Note_on_c, 0, 74, 0
2, 38400, Note_on_c, 0, 67, 63
2, 38448, Note_on_c, 0, 67, 0
2, 38448, Note_on_c, 0, 72, 64
2, 38468, Note_on_c, 0, 72, 0
2, 38544, Note_on_c, 0, 66, 66
2, 38592, Note_on_c, 0, 66, 0
2, 38592, Note_on_c, 0, 70, 66
2, 38612, Note_on_c, 0, 70, 0
2, 38688, Note_on_c, 0, 61, 68
2, 38736, Note_on_c, 0, 61, 0
2, 38736, Note_on_c, 0, 62, 69
2, 38756, Note_on_c, 0, 62, 0
2, 38832, Note_on_c, 0, 67, 100
2, 38856, Note_on_c, 0, 67, 0
2, 38856, Note_on_c, 0, 79, 84
2, 38879, Note_on_c, 0, 79, 0
2, 38880, Note_on_c, 0, 69, 100
2, 38904, Note_on_c, 0, 69, 0
2, 38904, Note_on_c, 0, 79, 84
2, 38927, Note_on_c, 0, 79, 0
2, 38928, Note_on_c, 0, 78, 84
2, 38951, Note_on_c, 0, 78, 0
2, 38952, Note_on_c, 0, 69, 84
2, 38975, Note_on_c, 0, 69, 0
2, 38976, Note_on_c, 0, 67, 100
2, 39000, Note_on_c, 0, 67, 0
2, 39000, Note_on_c, 0, 79, 84
2, 39023, Note_on_c, 0, 79, 0
2, 39024, Note_on_c, 0, 69, 100
2, 39048, Note_on_c, 0, 69, 0
2, 39048, Note_on_c, 0, 79, 84
2, 39071, Note_on_c, 0, 79, 0
2, 39072, Note_on_c, 0, 78, 84
2, 39095, Note_on_c, 0, 78, 0
2, 39096, Note_on_c, 0, 69, 84
2, 39119, Note_on_c, 0, 69, 0
2, 39120, Note_on_c, 0, 67, 100
2, 39144, Note_on_c, 0, 67, 0
2, 39144, Note_on_c, 0, 79, 84
2, 39167, Note_on_c, 0, 79, 0
2, 39168, Note_on_c, 0, 75, 100
2, 39192, Note_on_c, 0, 75, 0
2, 39192, Note_on_c, 0, 87, 84
2, 39215, Note_on_c, 0, 87, 0
2, 39216, Note_on_c, 0, 74, 84
2, 39239, Note_on_c, 0, 74, 0
2, 39240, Note_on_c, 0, 86, 84
2, 39263, Note_on_c, 0, 86, 0
2, 39264, Note_on_c, 0, 72, 84
2, 39287, Note_on_c, 0, 72, 0
2, 39288, Note_on_c, 0, 84, 84
2, 39335, Note_on_c, 0, 84, 0
2, 39336, Note_on_c, 0, 82, 84
2, 39359, Note_on_c, 0, 82, 0
2, 39360, Note_on_c, 0, 81, 84
2, 39383, Note_on_c, 0, 81, 0
2, 39384, Note_on_c, 0, 79, 84
2, 39407, Note_on_c, 0, 79, 0
2, 39408, Note_on_c, 0, 78, 84
2, 39431, Note_on_c, 0, 78, 0
2, 39432, Note_on_c, 0, 79, 84
2, 39455, Note_on_c, 0, 79, 0
2, 39456, Note_on_c, 0, 77, 84
2, 39479, Note_on_c, 0, 77, 0
2, 39480, Note_on_c, 0, 75, 82
2, 39503, Note_on_c, 0, 75, 0
2, 39504, Note_on_c, 0, 74, 80
2, 39527, Note_on_c, 0, 74, 0
2, 39528, Note_on_c, 0, 72, 78
2, 39551, Note_on_c, 0, 72, 0
2, 39552, Note_on_c, 0, 70, 76
2, 39575, Note_on_c, 0, 70, 0
2, 39576, Note_on_c, 0, 69, 74
2, 39599, Note_on_c, 0, 69, 0
2, 39600, Note_on_c, 0, 67, 73
2, 39667, Note_on_c, 0, 67, 0
2, 39672, Note_on_c, 0, 69, 67
2, 39695, Note_on_c, 0, 69, 0
2, 39696, Note_on_c, 0, 66, 65
2, 39741, Note_on_c, 0, 66, 0
2, 39840, Note_on_c, 0, 67, 55
2, 39860, Note_on_c, 0, 67, 0
2, 39888, Note_on_c, 0, 67, 55
2, 39933, Note_on_c, 0, 67, 0
2, 39984, Note_on_c, 0, 74, 62
2, 40004, Note_on_c, 0, 74, 0
2, 40032, Note_on_c, 0, 74, 62
2, 40052, Note_on_c, 0, 74, 0
2, 40128, Note_on_c, 0, 67, 63
2, 40176, Note_on_c, 0, 67, 0
2, 40176, Note_on_c, 0, 72, 64
2, 40196, Note_on_c, 0, 72, 0
2, 40272, Note_on_c, 0, 66, 66
2, 40320, Note_on_c, 0, 66, 0
2, 40320, Note_on_c, 0, 70, 66
2, 40340, Note_on_c, 0, 70, 0
2, 40416, Note_on_c, 0, 61, 68
2, 40464, Note_on_c, 0, 61, 0
2, 40464, Note_on_c, 0, 62, 69
2, 40484, Note_on_c, 0, 62, 0
2, 40560, Note_on_c, 0, 67, 100
2, 40584, Note_on_c, 0, 67, 0
2, 40584, Note_on_c, 0, 79, 84
2, 40607, Note_on_c, 0, 79, 0
2, 40608, Note_on_c, 0, 69, 100
2, 40632, Note_on_c, 0, 69, 0
2, 40632, Note_on_c, 0, 79, 84
2, 40655, Note_on_c, 0, 79, 0
2, 40656, Note_on_c, 0, 78, 84
2, 40679, Note_on_c, 0, 78, 0
2, 40680, Note_on_c, 0, 69, 84
2, 40703, Note_on_c, 0, 69, 0
2, 40704, Note_on_c, 0, 67, 100
2, 40728, Note_on_c, 0, 67, 0
2, 40728, Note_on_c, 0, 79, 84
2, 40751, Note_on_c, 0, 79, 0
2, 40752, Note_on_c, 0, 69, 100
2, 40776, Note_on_c, 0, 69, 0
2, 40776, Note_on_c, 0, 79, 84
2, 40799, Note_on_c, 0, 79, 0
2, 40800, Note_on_c, 0, 78, 84
2, 40823, Note_on_c, 0, 78, 0
2, 40824, Note_on_c, 0, 69, 84
2, 40847, Note_on_c, 0, 69, 0
2, 40848, Note_on_c, 0, 67, 100
2, 40872, Note_on_c, 0, 67, 0
2, 40872, Note_on_c, 0, 79, 84
2, 40895, Note_on_c, 0, 79, 0
2, 40896, Note_on_c, 0, 75, 100
2, 40920, Note_on_c, 0, 75, 0
2, 40920, Note_on_c, 0, 87, 84
2, 40943, Note_on_c, 0, 87, 0
2, 40944, Note_on_c, 0, 74, 84
2, 40967, Note_on_c, 0, 74, 0
2, 40968, Note_on_c, 0, 86, 84
2, 40991, Note_on_c, 0, 86, 0
2, 40992, Note_on_c, 0, 72, 84
2, 41015, Note_on_c, 0, 72, 0
2, 41016, Note_on_c, 0, 84, 84
2, 41063, Note_on_c, 0, 84, 0
2, 41064, Note_on_c, 0, 82, 84
2, 41087, Note_on_c, 0, 82, 0
2, 41088, Note_on_c, 0, 81, 84
2, 41111, Note_on_c, 0, 81, 0
2, 41112, Note_on_c, 0, 79, 84
2, 41135, Note_on_c, 0, 79, 0
2, 41136, Note_on_c, 0, 78, 84
2, 41159, Note_on_c, 0, 78, 0
2, 41160, Note_on_c, 0, 79, 84
2, 41183, Note_on_c, 0, 79, 0
2, 41184, Note_on_c, 0, 77, 84
2, 41207, Note_on_c, 0, 77, 0
2, 41208, Note_on_c, 0, 75, 82
2, 41231, Note_on_c, 0, 75, 0
2, 41232, Note_on_c, 0, 74, 80
2, 41255, Note_on_c, 0, 74, 0
2, 41256, Note_on_c, 0, 72, 78
2, 41279, Note_on_c, 0, 72, 0
2, 41280, Note_on_c, 0, 70, 76
2, 41303, Note_on_c, 0, 70, 0
2, 41304, Note_on_c, 0, 69, 74
2, 41327, Note_on_c, 0, 69, 0
2, 41328, Note_on_c, 0, 67, 73
2, 41395, Note_on_c, 0, 67, 0
2, 41400, Note_on_c, 0, 69, 67
2, 41423, Note_on_c, 0, 69, 0
2, 41424, Note_on_c, 0, 66, 65
2, 41469, Note_on_c, 0, 66, 0
2, 41568, Note_on_c, 0, 67, 55
2, 41588, Note_on_c, 0, 67, 0
2, 41616, Note_on_c, 0, 67, 55
2, 41661, Note_on_c, 0, 67, 0
2, 41712, Note_on_c, 0, 67, 86
2, 41732, Note_on_c, 0, 67, 0
2, 41760, Note_on_c, 0, 67, 86
2, 41856, Note_on_c, 0, 67, 0
2, 41856, Note_on_c, 0, 71, 70
2, 41868, Note_on_c, 0, 71, 0
2, 41868, Note_on_c, 0, 69, 70
2, 41901, Note_on_c, 0, 69, 0
2, 41904, Note_on_c, 0, 62, 70
2, 41949, Note_on_c, 0, 62, 0
2, 41952, Note_on_c, 0, 66, 70
2, 41976, Note_on_c, 0, 66, 0
2, 41976, Note_on_c, 0, 64, 71
2, 41999, Note_on_c, 0, 64, 0
2, 42000, Note_on_c, 0, 67, 72
2, 42024, Note_on_c, 0, 67, 0
2, 42024, Note_on_c, 0, 66, 73
2, 42047, Note_on_c, 0, 66, 0
2, 42048, Note_on_c, 0, 69, 74
2, 42072, Note_on_c, 0, 69, 0
2, 42072, Note_on_c, 0, 67, 75
2, 42095, Note_on_c, 0, 67, 0
2, 42096, Note_on_c, 0, 72, 76
2, 42120, Note_on_c, 0, 72, 0
2, 42120, Note_on_c, 0, 71, 77
2, 42143, Note_on_c, 0, 71, 0
2, 42144, Note_on_c, 0, 74, 78
2, 42168, Note_on_c, 0, 74, 0
2, 42168, Note_on_c, 0, 71, 79
2, 42191, Note_on_c, 0, 71, 0
2, 42192, Note_on_c, 0, 67, 80
2, 42281, Note_on_c, 0, 67, 0
2, 42288, Note_on_c, 0, 69, 77
2, 42288, Note_on_c, 0, 62, 77
2, 42308, Note_on_c, 0, 69, 0
2, 42308, Note_on_c, 0, 62, 0
2, 42336, Note_on_c, 0, 70, 78
2, 42359, Note_on_c, 0, 70, 0
2, 42360, Note_on_c, 0, 71, 79
2, 42383, Note_on_c, 0, 71, 0
2, 42384, Note_on_c, 0, 72, 80
2, 42407, Note_on_c, 0, 72, 0
2, 42408, Note_on_c, 0, 73, 81
2, 42431, Note_on_c, 0, 73, 0
2, 42432, Note_on_c, 0, 74, 82
2, 42477, Note_on_c, 0, 74, 0
2, 42480, Note_on_c, 0, 74, 100
2, 42528, Note_on_c, 0, 74, 0
2, 42528, Note_on_c, 0, 72, 84
2, 42573, Note_on_c, 0, 72, 0
2, 42576, Note_on_c, 0, 71, 84
2, 42576, Note_on_c, 0, 67, 84
2, 42596, Note_on_c, 0, 71, 0
2, 42596, Note_on_c, 0, 67, 0
2, 42624, Note_on_c, 0, 71, 100
2, 42624, Note_on_c, 0, 67, 100
2, 42672, Note_on_c, 0, 71, 0
2, 42672, Note_on_c, 0, 67, 0
2, 42672, Note_on_c, 0, 69, 81
2, 42672, Note_on_c, 0, 66, 81
2, 42692, Note_on_c, 0, 69, 0
2, 42692, Note_on_c, 0, 66, 0
2, 42720, Note_on_c, 0, 69, 79
2, 42720, Note_on_c, 0, 66, 79
2, 42740, Note_on_c, 0, 69, 0
2, 42740, Note_on_c, 0, 66, 0
2, 42768, Note_on_c, 0, 69, 77
2, 42768, Note_on_c, 0, 66, 77
2, 42857, Note_on_c, 0, 69, 0
2, 42857, Note_on_c, 0, 66, 0
2, 42864, Note_on_c, 0, 71, 79
2, 42864, Note_on_c, 0, 68, 79
2, 42909, Note_on_c, 0, 71, 0
2, 42909, Note_on_c, 0, 68, 0
2, 42912, Note_on_c, 0, 72, 80
2, 42924, Note_on_c, 0, 72, 0
2, 42924, Note_on_c, 0, 69, 80
2, 42936, Note_on_c, 0, 69, 0
2, 42936, Note_on_c, 0, 71, 81
2, 42948, Note_on_c, 0, 71, 0
2, 42948, Note_on_c, 0, 72, 81
2, 42960, Note_on_c, 0, 72, 0
2, 42960, Note_on_c, 0, 74, 81
2, 42972, Note_on_c, 0, 74, 0
2, 42972, Note_on_c, 0, 76, 81
2, 42984, Note_on_c, 0, 76, 0
2, 42984, Note_on_c, 0, 78, 82
2, 42996, Note_on_c, 0, 78, 0
2, 42996, Note_on_c, 0, 79, 82
2, 43008, Note_on_c, 0, 79, 0
2, 43008, Note_on_c, 0, 81, 82
2, 43020, Note_on_c, 0, 81, 0
2, 43020, Note_on_c, 0, 83, 83
2, 43032, Note_on_c, 0, 83, 0
2, 43032, Note_on_c, 0, 84, 83
2, 43044, Note_on_c, 0, 84, 0
2, 43044, Note_on_c, 0, 86, 83
2, 43056, Note_on_c, 0, 86, 0
2, 43056, Note_on_c, 0, 88, 100
2, 43104, Note_on_c, 0, 88, 0
2, 43104, Note_on_c, 0, 86, 84
2, 43149, Note_on_c, 0, 86, 0
2, 43152, Note_on_c, 0, 86, 84
2, 43164, Note_on_c, 0, 86, 0
2, 43164, Note_on_c, 0, 84, 84
2, 43176, Note_on_c, 0, 84, 0
2, 43176, Note_on_c, 0, 83, 84
2, 43188, Note_on_c, 0, 83, 0
2, 43188, Note_on_c, 0, 84, 84
2, 43200, Note_on_c, 0, 84, 0
2, 43200, Note_on_c, 0, 84, 84
2, 43245, Note_on_c, 0, 84, 0
2, 43248, Note_on_c, 0, 83, 84
2, 43293, Note_on_c, 0, 83, 0
2, 43296, Note_on_c, 0, 86, 84
2, 43341, Note_on_c, 0, 86, 0
2, 43344, Note_on_c, 0, 88, 84
2, 43350, Note_on_c, 0, 88, 0
2, 43350, Note_on_c, 0, 86, 84
2, 43368, Note_on_c, 0, 86, 0
2, 43368, Note_on_c, 0, 84, 83
2, 43391, Note_on_c, 0, 84, 0
2, 43392, Note_on_c, 0, 86, 82
2, 43398, Note_on_c, 0, 86, 0
2, 43398, Note_on_c, 0, 84, 82
2, 43416, Note_on_c, 0, 84, 0
2, 43416, Note_on_c, 0, 83, 82
2, 43439, Note_on_c, 0, 83, 0
2, 43440, Note_on_c, 0, 84, 81
2, 43446, Note_on_c, 0, 84, 0
2, 43446, Note_on_c, 0, 83, 81
2, 43464, Note_on_c, 0, 83, 0
2, 43464, Note_on_c, 0, 81, 81
2, 43487, Note_on_c, 0, 81, 0
2, 43488, Note_on_c, 0, 83, 80
2, 43494, Note_on_c, 0, 83, 0
2, 43494, Note_on_c, 0, 81, 80
2, 43512, Note_on_c, 0, 81, 0
2, 43512, Note_on_c, 0, 79, 79
2, 43535, Note_on_c, 0, 79, 0
2, 43536, Note_on_c, 0, 81, 79
2, 43542, Note_on_c, 0, 81, 0
2, 43542, Note_on_c, 0, 79, 79
2, 43559, Note_on_c, 0, 79, 0
2, 43560, Note_on_c, 0, 78, 78
2, 43605, Note_on_c, 0, 78, 0
2, 43608, Note_on_c, 0, 81, 77
2, 43653, Note_on_c, 0, 81, 0
2, 43656, Note_on_c, 0, 79, 76
2, 43701, Note_on_c, 0, 79, 0
2, 43704, Note_on_c, 0, 76, 75
2, 43749, Note_on_c, 0, 76, 0
2, 43752, Note_on_c, 0, 73, 74
2, 43799, Note_on_c, 0, 73, 0
2, 43800, Note_on_c, 0, 74, 72
2, 43823, Note_on_c, 0, 74, 0
2, 43824, Note_on_c, 0, 76, 72
2, 43847, Note_on_c, 0, 76, 0
2, 43848, Note_on_c, 0, 74, 71
2, 43871, Note_on_c, 0, 74, 0
2, 43872, Note_on_c, 0, 76, 71
2, 43895, Note_on_c, 0, 76, 0
2, 43896, Note_on_c, 0, 74, 70
2, 43919, Note_on_c, 0, 74, 0
2, 43920, Note_on_c, 0, 74, 70
2, 43965, Note_on_c, 0, 74, 0
2, 44016, Note_on_c, 0, 67, 86
2, 44036, Note_on_c, 0, 67, 0
2, 44064, Note_on_c, 0, 67, 86
2, 44160, Note_on_c, 0, 67, 0
2, 44160, Note_on_c, 0, 71, 70
2, 44172, Note_on_c, 0, 71, 0
2, 44172, Note_on_c, 0, 69, 70
2, 44205, Note_on_c, 0, 69, 0
2, 44208, Note_on_c, 0, 62, 70
2, 44253, Note_on_c, 0, 62, 0
2, 44256, Note_on_c, 0, 66, 70
2, 44280, Note_on_c, 0, 66, 0
2, 44280, Note_on_c, 0, 64, 71
2, 44303, Note_on_c, 0, 64, 0
2, 44304, Note_on_c, 0, 67, 72
2, 44328, Note_on_c, 0, 67, 0
2, 44328, Note_on_c, 0, 66, 73
2, 44351, Note_on_c, 0, 66, 0
2, 44352, Note_on_c, 0, 69, 74
2, 44376, Note_on_c, 0, 69, 0
2, 44376, Note_on_c, 0, 67, 75
2, 44399, Note_on_c, 0, 67, 0
2, 44400, Note_on_c, 0, 72, 76
2, 44424, Note_on_c, 0, 72, 0
2, 44424, Note_on_c, 0, 71, 77
2, 44447, Note_on_c, 0, 71, 0
2, 44448, Note_on_c, 0, 74, 78
2, 44472, Note_on_c, 0, 74, 0
2, 44472, Note_on_c, 0, 71, 79
2, 44495, Note_on_c, 0, 71, 0
2, 44496, Note_on_c, 0, 67, 80
2, 44585, Note_on_c, 0, 67, 0
2, 44592, Note_on_c, 0, 69, 77
2, 44592, Note_on_c, 0, 62, 77
2, 44612, Note_on_c, 0, 69, 0
2, 44612, Note_on_c, 0, 62, 0
2, 44640, Note_on_c, 0, 70, 78
2, 44663, Note_on_c, 0, 70, 0
2, 44664, Note_on_c, 0, 71, 79
2, 44687, Note_on_c, 0, 71, 0
2, 44688, Note_on_c, 0, 72, 80
2, 44711, Note_on_c, 0, 72, 0
2, 44712, Note_on_c, 0, 73, 81
2, 44735, Note_on_c, 0, 73, 0
2, 44736, Note_on_c, 0, 74, 82
2, 44781, Note_on_c, 0, 74, 0
2, 44784, Note_on_c, 0, 74, 100
2, 44832, Note_on_c, 0, 74, 0
2, 44832, Note_on_c, 0, 72, 84
2, 44877, Note_on_c, 0, 72, 0
2, 44880, Note_on_c, 0, 71, 84
2, 44880, Note_on_c, 0, 67, 84
2, 44900, Note_on_c, 0, 71, 0
2, 44900, Note_on_c, 0, 67, 0
2, 44928, Note_on_c, 0, 71, 100
2, 44928, Note_on_c, 0, 67, 100
2, 44976, Note_on_c, 0, 71, 0
2, 44976, Note_on_c, 0, 67, 0
2, 44976, Note_on_c, 0, 69, 81
2, 44976, Note_on_c, 0, 66, 81
2, 44996, Note_on_c, 0, 69, 0
2, 44996, Note_on_c, 0, 66, 0
2, 45024, Note_on_c, 0, 69, 79
2, 45024, Note_on_c, 0, 66, 79
2, 45044, Note_on_c, 0, 69, 0
2, 45044, Note_on_c, 0, 66, 0
2, 45072, Note_on_c, 0, 69, 77
2, 45072, Note_on_c, 0, 66, 77
2, 45161, Note_on_c, 0, 69, 0
2, 45161, Note_on_c, 0, 66, 0
2, 45168, Note_on_c, 0, 71, 79
2, 45168, Note_on_c, 0, 68, 79
2, 45213, Note_on_c, 0, 71, 0
2, 45213, Note_on_c, 0, 68, 0
2, 45216, Note_on_c, 0, 72, 80
2, 45228, Note_on_c, 0, 72, 0
2, 45228, Note_on_c, 0, 69, 80
2, 45240, Note_on_c, 0, 69, 0
2, 45240, Note_on_c, 0, 71, 81
2, 45252, Note_on_c, 0, 71, 0
2, 45252, Note_on_c, 0, 72, 81
2, 45264, Note_on_c, 0, 72, 0
2, 45264, Note_on_c, 0, 74, 81
2, 45276, Note_on_c, 0, 74, 0
2, 45276, Note_on_c, 0, 76, 81
2, 45288, Note_on_c, 0, 76, 0
2, 45288, Note_on_c, 0, 78, 82
2, 45300, Note_on_c, 0, 78, 0
2, 45300, Note_on_c, 0, 79, 82
2, 45312, Note_on_c, 0, 79, 0
2, 45312, Note_on_c, 0, 81, 82
2, 45324, Note_on_c, 0, 81, 0
2, 45324, Note_on_c, 0, 83, 83
2, 45336, Note_on_c, 0, 83, 0
2, 45336, Note_on_c, 0, 84, 83
2, 45348, Note_on_c, 0, 84, 0
2, 45348, Note_on_c, 0, 86, 83
2, 45360, Note_on_c, 0, 86, 0
2, 45360, Note_on_c, 0, 88, 100
2, 45408, Note_on_c, 0, 88, 0
2, 45408, Note_on_c, 0, 86, 84
2, 45453, Note_on_c, 0, 86, 0
2, 45456, Note_on_c, 0, 86, 84
2, 45468, Note_on_c, 0, 86, 0
2, 45468, Note_on_c, 0, 84, 84
2, 45480, Note_on_c, 0, 84, 0
2, 45480, Note_on_c, 0, 83, 84
2, 45492, Note_on_c, 0, 83, 0
2, 45492, Note_on_c, 0, 84, 84
2, 45504, Note_on_c, 0, 84, 0
2, 45504, Note_on_c, 0, 84, 84
2, 45549, Note_on_c, 0, 84, 0
2, 45552, Note_on_c, 0, 83, 84
2, 45597, Note_on_c, 0, 83, 0
2, 45600, Note_on_c, 0, 86, 84
2, 45645, Note_on_c, 0, 86, 0
2, 45648, Note_on_c, 0, 88, 84
2, 45654, Note_on_c, 0, 88, 0
2, 45654, Note_on_c, 0, 86, 84
2, 45672, Note_on_c, 0, 86, 0
2, 45672, Note_on_c, 0, 84, 83
2, 45695, Note_on_c, 0, 84, 0
2, 45696, Note_on_c, 0, 86, 82
2, 45702, Note_on_c, 0, 86, 0
2, 45702, Note_on_c, 0, 84, 82
2, 45720, Note_on_c, 0, 84, 0
2, 45720, Note_on_c, 0, 83, 82
2, 45743, Note_on_c, 0, 83, 0
2, 45744, Note_on_c, 0, 84, 81
2, 45750, Note_on_c, 0, 84, 0
2, 45750, Note_on_c, 0, 83, 81
2, 45768, Note_on_c, 0, 83, 0
2, 45768, Note_on_c, 0, 81, 81
2, 45791, Note_on_c, 0, 81, 0
2, 45792, Note_on_c, 0, 83, 80
2, 45798, Note_on_c, 0, 83, 0
2, 45798, Note_on_c, 0, 81, 80
2, 45816, Note_on_c, 0, 81, 0
2, 45816, Note_on_c, 0, 79, 79
2, 45839, Note_on_c, 0, 79, 0
2, 45840, Note_on_c, 0, 81, 79
2, 45846, Note_on_c, 0, 81, 0
2, 45846, Note_on_c, 0, 79, 79
2, 45863, Note_on_c, 0, 79, 0
2, 45864, Note_on_c, 0, 78, 78
2, 45909, Note_on_c, 0, 78, 0
2, 45912, Note_on_c, 0, 81, 77
2, 45957, Note_on_c, 0, 81, 0
2, 45960, Note_on_c, 0, 79, 76
2, 46005, Note_on_c, 0, 79, 0
2, 46008, Note_on_c, 0, 76, 75
2, 46053, Note_on_c, 0, 76, 0
2, 46056, Note_on_c, 0, 73, 74
2, 46080, Note_on_c, 0, 73, 73
2, 46103, Note_on_c, 0, 73, 0
2, 46104, Note_on_c, 0, 74, 72
2, 46127, Note_on_c, 0, 74, 0
2, 46128, Note_on_c, 0, 76, 72
2, 46151, Note_on_c, 0, 76, 0
2, 46152, Note_on_c, 0, 74, 71
2, 46175, Note_on_c, 0, 74, 0
2, 46176, Note_on_c, 0, 76, 71
2, 46199, Note_on_c, 0, 76, 0
2, 46200, Note_on_c, 0, 74, 70
2, 46223, Note_on_c, 0, 74, 0
2, 46224, Note_on_c, 0, 74, 70
2, 46269, Note_on_c, 0, 74, 0
2, 46320, Note_on_c, 0, 79, 86
2, 46340, Note_on_c, 0, 79, 0
2, 46368, Note_on_c, 0, 78, 62
2, 46392, Note_on_c, 0, 78, 0
2, 46392, Note_on_c, 0, 79, 62
2, 46415, Note_on_c, 0, 79, 0
2, 46416, Note_on_c, 0, 81, 63
2, 46440, Note_on_c, 0, 81, 0
2, 46440, Note_on_c, 0, 79, 64
2, 46463, Note_on_c, 0, 79, 0
2, 46464, Note_on_c, 0, 81, 65
2, 46488, Note_on_c, 0, 81, 0
2, 46488, Note_on_c, 0, 79, 65
2, 46511, Note_on_c, 0, 79, 0
2, 46512, Note_on_c, 0, 81, 66
2, 46536, Note_on_c, 0, 81, 0
2, 46536, Note_on_c, 0, 79, 67
2, 46559, Note_on_c, 0, 79, 0
2, 46560, Note_on_c, 0, 79, 68
2, 46584, Note_on_c, 0, 79, 0
2, 46584, Note_on_c, 0, 78, 69
2, 46607, Note_on_c, 0, 78, 0
2, 46608, Note_on_c, 0, 78, 69
2, 46632, Note_on_c, 0, 78, 0
2, 46632, Note_on_c, 0, 76, 70
2, 46655, Note_on_c, 0, 76, 0
2, 46656, Note_on_c, 0, 76, 71
2, 46680, Note_on_c, 0, 76, 0
2, 46680, Note_on_c, 0, 74, 72
2, 46703, Note_on_c, 0, 74, 0
2, 46704, Note_on_c, 0, 74, 72
2, 46714, Note_on_c, 0, 74, 0
2, 46728, Note_on_c, 0, 74, 73
2, 46738, Note_on_c, 0, 74, 0
2, 46752, Note_on_c, 0, 74, 74
2, 46762, Note_on_c, 0, 74, 0
2, 46776, Note_on_c, 0, 74, 75
2, 46786, Note_on_c, 0, 74, 0
2, 46800, Note_on_c, 0, 76, 76
2, 46824, Note_on_c, 0, 76, 0
2, 46824, Note_on_c, 0, 75, 76
2, 46847, Note_on_c, 0, 75, 0
2, 46848, Note_on_c, 0, 75, 77
2, 46858, Note_on_c, 0, 75, 0
2, 46872, Note_on_c, 0, 75, 78
2, 46882, Note_on_c, 0, 75, 0
2, 46896, Note_on_c, 0, 75, 79
2, 46906, Note_on_c, 0, 75, 0
2, 46920, Note_on_c, 0, 75, 79
2, 46930, Note_on_c, 0, 75, 0
2, 46944, Note_on_c, 0, 75, 80
2, 46968, Note_on_c, 0, 75, 0
2, 46968, Note_on_c, 0, 76, 81
2, 46991, Note_on_c, 0, 76, 0
2, 46992, Note_on_c, 0, 78, 82
2, 47016, Note_on_c, 0, 78, 0
2, 47016, Note_on_c, 0, 76, 83
2, 47039, Note_on_c, 0, 76, 0
2, 47040, Note_on_c, 0, 79, 83
2, 47064, Note_on_c, 0, 79, 0
2, 47064, Note_on_c, 0, 78, 84
2, 47087, Note_on_c, 0, 78, 0
2, 47088, Note_on_c, 0, 81, 101
2, 47112, Note_on_c, 0, 81, 0
2, 47112, Note_on_c, 0, 79, 86
2, 47135, Note_on_c, 0, 79, 0
2, 47136, Note_on_c, 0, 78, 86
2, 47159, Note_on_c, 0, 78, 0
2, 47160, Note_on_c, 0, 76, 87
2, 47183, Note_on_c, 0, 76, 0
2, 47184, Note_on_c, 0, 74, 88
2, 47207, Note_on_c, 0, 74, 0
2, 47208, Note_on_c, 0, 73, 89
2, 47231, Note_on_c, 0, 73, 0
2, 47232, Note_on_c, 0, 74, 90
2, 47256, Note_on_c, 0, 74, 0
2, 47256, Note_on_c, 0, 86, 90
2, 47279, Note_on_c, 0, 86, 0
2, 47280, Note_on_c, 0, 74, 90
2, 47290, Note_on_c, 0, 74, 0
2, 47304, Note_on_c, 0, 74, 90
2, 47314, Note_on_c, 0, 74, 0
2, 47328, Note_on_c, 0, 74, 90
2, 47338, Note_on_c, 0, 74, 0
2, 47352, Note_on_c, 0, 74, 90
2, 47362, Note_on_c, 0, 74, 0
2, 47376, Note_on_c, 0, 74, 90
2, 47400, Note_on_c, 0, 74, 0
2, 47400, Note_on_c, 0, 86, 90
2, 47423, Note_on_c, 0, 86, 0
2, 47424, Note_on_c, 0, 74, 90
2, 47434, Note_on_c, 0, 74, 0
2, 47448, Note_on_c, 0, 74, 90
2, 47458, Note_on_c, 0, 74, 0
2, 47472, Note_on_c, 0, 74, 90
2, 47482, Note_on_c, 0, 74, 0
2, 47496, Note_on_c, 0, 74, 90
2, 47506, Note_on_c, 0, 74, 0
2, 47520, Note_on_c, 0, 74, 90
2, 47532, Note_on_c, 0, 74, 0
2, 47532, Note_on_c, 0, 78, 90
2, 47544, Note_on_c, 0, 78, 0
2, 47544, Note_on_c, 0, 81, 90
2, 47556, Note_on_c, 0, 81, 0
2, 47556, Note_on_c, 0, 86, 90
2, 47568, Note_on_c, 0, 86, 0
2, 47568, Note_on_c, 0, 74, 90
2, 47578, Note_on_c, 0, 74, 0
2, 47592, Note_on_c, 0, 74, 90
2, 47602, Note_on_c, 0, 74, 0
2, 47616, Note_on_c, 0, 74, 90
2, 47626, Note_on_c, 0, 74, 0
2, 47640, Note_on_c, 0, 74, 90
2, 47650, Note_on_c, 0, 74, 0
2, 47664, Note_on_c, 0, 74, 90
2, 47676, Note_on_c, 0, 74, 0
2, 47676, Note_on_c, 0, 78, 90
2, 47688, Note_on_c, 0, 78, 0
2, 47688, Note_on_c, 0, 81, 90
2, 47700, Note_on_c, 0, 81, 0
2, 47700, Note_on_c, 0, 86, 90
2, 47712, Note_on_c, 0, 86, 0
2, 47712, Note_on_c, 0, 74, 90
2, 47722, Note_on_c, 0, 74, 0
2, 47736, Note_on_c, 0, 74, 90
2, 47746, Note_on_c, 0, 74, 0
2, 47760, Note_on_c, 0, 74, 90
2, 47770, Note_on_c, 0, 74, 0
2, 47784, Note_on_c, 0, 74, 90
2, 47794, Note_on_c, 0, 74, 0
2, 47808, Note_on_c, 0, 74, 90
2, 47832, Note_on_c, 0, 74, 0
2, 47832, Note_on_c, 0, 86, 89
2, 47855, Note_on_c, 0, 86, 0
2, 47856, Note_on_c, 0, 86, 88
2, 47866, Note_on_c, 0, 86, 0
2, 47880, Note_on_c, 0, 86, 87
2, 47890, Note_on_c, 0, 86, 0
2, 47904, Note_on_c, 0, 86, 86
2, 47914, Note_on_c, 0, 86, 0
2, 47928, Note_on_c, 0, 86, 85
2, 47938, Note_on_c, 0, 86, 0
2, 47952, Note_on_c, 0, 85, 84
2, 47976, Note_on_c, 0, 85, 0
2, 47976, Note_on_c, 0, 86, 83
2, 47999, Note_on_c, 0, 86, 0
2, 48000, Note_on_c, 0, 86, 83
2, 48010, Note_on_c, 0, 86, 0
2, 48024, Note_on_c, 0, 86, 82
2, 48034, Note_on_c, 0, 86, 0
2, 48048, Note_on_c, 0, 86, 81
2, 48058, Note_on_c, 0, 86, 0
2, 48072, Note_on_c, 0, 86, 80
2, 48082, Note_on_c, 0, 86, 0
2, 48096, Note_on_c, 0, 87, 79
2, 48120, Note_on_c, 0, 87, 0
2, 48120, Note_on_c, 0, 86, 78
2, 48143, Note_on_c, 0, 86, 0
2, 48144, Note_on_c, 0, 86, 77
2, 48154, Note_on_c, 0, 86, 0
2, 48168, Note_on_c, 0, 86, 76
2, 48178, Note_on_c, 0, 86, 0
2, 48192, Note_on_c, 0, 86, 76
2, 48202, Note_on_c, 0, 86, 0
2, 48216, Note_on_c, 0, 86, 75
2, 48226, Note_on_c, 0, 86, 0
2, 48240, Note_on_c, 0, 85, 74
2, 48264, Note_on_c, 0, 85, 0
2, 48264, Note_on_c, 0, 86, 73
2, 48287, Note_on_c, 0, 86, 0
2, 48288, Note_on_c, 0, 86, 72
2, 48298, Note_on_c, 0, 86, 0
2, 48312, Note_on_c, 0, 86, 71
2, 48322, Note_on_c, 0, 86, 0
2, 48336, Note_on_c, 0, 86, 70
2, 48346, Note_on_c, 0, 86, 0
2, 48360, Note_on_c, 0, 86, 69
2, 48370, Note_on_c, 0, 86, 0
2, 48384, Note_on_c, 0, 86, 69
2, 48394, Note_on_c, 0, 86, 0
2, 48408, Note_on_c, 0, 86, 68
2, 48418, Note_on_c, 0, 86, 0
2, 48432, Note_on_c, 0, 86, 67
2, 48442, Note_on_c, 0, 86, 0
2, 48456, Note_on_c, 0, 86, 66
2, 48466, Note_on_c, 0, 86, 0
2, 48480, Note_on_c, 0, 86, 65
2, 48490, Note_on_c, 0, 86, 0
2, 48504, Note_on_c, 0, 86, 64
2, 48514, Note_on_c, 0, 86, 0
2, 48528, Note_on_c, 0, 86, 63
2, 48548, Note_on_c, 0, 86, 0
2, 48576, Note_on_c, 0, 86, 62
2, 48596, Note_on_c, 0, 86, 0
2, 48624, Note_on_c, 0, 86, 62
2, 48644, Note_on_c, 0, 86, 0
2, 48672, Note_on_c, 0, 86, 62
2, 48672, Note_on_c, 0, 84, 62
2, 48692, Note_on_c, 0, 86, 0
2, 48692, Note_on_c, 0, 84, 0
2, 48720, Note_on_c, 0, 86, 62
2, 48720, Note_on_c, 0, 84, 62
2, 48740, Note_on_c, 0, 86, 0
2, 48740, Note_on_c, 0, 84, 0
2, 48768, Note_on_c, 0, 86, 62
2, 48768, Note_on_c, 0, 84, 62
2, 48788, Note_on_c, 0, 86, 0
2, 48788, Note_on_c, 0, 84, 0
2, 48816, Note_on_c, 0, 86, 62
2, 48816, Note_on_c, 0, 84, 62
2, 48836, Note_on_c, 0, 86, 0
2, 48836, Note_on_c, 0, 84, 0
2, 48864, Note_on_c, 0, 86, 62
2, 48864, Note_on_c, 0, 84, 62
2, 48884, Note_on_c, 0, 86, 0
2, 48884, Note_on_c, 0, 84, 0
2, 48912, Note_on_c, 0, 86, 62
2, 48912, Note_on_c, 0, 84, 62
2, 48932, Note_on_c, 0, 86, 0
2, 48932, Note_on_c, 0, 84, 0
2, 48960, Note_on_c, 0, 86, 62
2, 48960, Note_on_c, 0, 84, 62
2, 48980, Note_on_c, 0, 86, 0
2, 48980, Note_on_c, 0, 84, 0
2, 49008, Note_on_c, 0, 86, 62
2, 49008, Note_on_c, 0, 84, 62
2, 49028, Note_on_c, 0, 86, 0
2, 49028, Note_on_c, 0, 84, 0
2, 49056, Note_on_c, 0, 86, 62
2, 49056, Note_on_c, 0, 84, 62
2, 49076, Note_on_c, 0, 86, 0
2, 49076, Note_on_c, 0, 84, 0
2, 49104, Note_on_c, 0, 86, 62
2, 49104, Note_on_c, 0, 84, 62
2, 49237, Note_on_c, 0, 86, 0
2, 49237, Note_on_c, 0, 84, 0
2, 49344, Note_on_c, 0, 74, 71
2, 49344, Note_on_c, 0, 72, 71
2, 49354, Note_on_c, 0, 74, 0
2, 49354, Note_on_c, 0, 72, 0
2, 49392, Note_on_c, 0, 74, 71
2, 49392, Note_on_c, 0, 72, 71
2, 49476, Note_on_c, 0, 74, 0
2, 49476, Note_on_c, 0, 72, 0
2, 49488, Note_on_c, 0, 67, 86
2, 49508, Note_on_c, 0, 67, 0
2, 49536, Note_on_c, 0, 67, 70
2, 49625, Note_on_c, 0, 67, 0
2, 49632, Note_on_c, 0, 71, 70
2, 49644, Note_on_c, 0, 71, 0
2, 49644, Note_on_c, 0, 69, 70
2, 49677, Note_on_c, 0, 69, 0
2, 49680, Note_on_c, 0, 62, 70
2, 49725, Note_on_c, 0, 62, 0
2, 49728, Note_on_c, 0, 64, 70
2, 49773, Note_on_c, 0, 64, 0
2, 49776, Note_on_c, 0, 67, 70
2, 49788, Note_on_c, 0, 67, 0
2, 49788, Note_on_c, 0, 66, 70
2, 49800, Note_on_c, 0, 66, 0
2, 49800, Note_on_c, 0, 64, 70
2, 49812, Note_on_c, 0, 64, 0
2, 49812, Note_on_c, 0, 66, 70
2, 49824, Note_on_c, 0, 66, 0
2, 49824, Note_on_c, 0, 67, 70
2, 49844, Note_on_c, 0, 67, 0
2, 49872, Note_on_c, 0, 67, 77
2, 49892, Note_on_c, 0, 67, 0
2, 49920, Note_on_c, 0, 67, 73
2, 49940, Note_on_c, 0, 67, 0
2, 49968, Note_on_c, 0, 67, 70
2, 50057, Note_on_c, 0, 67, 0
2, 50064, Note_on_c, 0, 69, 84
2, 50064, Note_on_c, 0, 66, 84
2, 50064, Note_on_c, 0, 62, 84
2, 50109, Note_on_c, 0, 69, 0
2, 50109, Note_on_c, 0, 66, 0
2, 50109, Note_on_c, 0, 62, 0
2, 50112, Note_on_c, 0, 71, 84
2, 50112, Note_on_c, 0, 67, 84
2, 50112, Note_on_c, 0, 62, 84
2, 50157, Note_on_c, 0, 71, 0
2, 50157, Note_on_c, 0, 67, 0
2, 50157, Note_on_c, 0, 62, 0
2, 50208, Note_on_c, 0, 62, 84
2, 50214, Note_on_c, 0, 67, 84
2, 50220, Note_on_c, 0, 71, 84
2, 50226, Note_on_c, 0, 74, 84
2, 50253, Note_on_c, 0, 74, 0
2, 50253, Note_on_c, 0, 71, 0
2, 50253, Note_on_c, 0, 67, 0
2, 50253, Note_on_c, 0, 62, 0
2, 50256, Note_on_c, 0, 62, 84
2, 50262, Note_on_c, 0, 66, 84
2, 50268, Note_on_c, 0, 69, 84
2, 50274, Note_on_c, 0, 72, 84
2, 50349, Note_on_c, 0, 72, 0
2, 50349, Note_on_c, 0, 69, 0
2, 50349, Note_on_c, 0, 66, 0
2, 50349, Note_on_c, 0, 62, 0
2, 50352, Note_on_c, 0, 71, 84
2, 50352, Note_on_c, 0, 67, 84
2, 50352, Note_on_c, 0, 62, 84
2, 50397, Note_on_c, 0, 71, 0
2, 50397, Note_on_c, 0, 67, 0
2, 50397, Note_on_c, 0, 62, 0
2, 50400, Note_on_c, 0, 62, 84
2, 50412, Note_on_c, 0, 62, 0
2, 50412, Note_on_c, 0, 64, 84
2, 50424, Note_on_c, 0, 64, 0
2, 50424, Note_on_c, 0, 66, 85
2, 50436, Note_on_c, 0, 66, 0
2, 50436, Note_on_c, 0, 67, 85
2, 50448, Note_on_c, 0, 67, 0
2, 50448, Note_on_c, 0, 69, 86
2, 50460, Note_on_c, 0, 69, 0
2, 50460, Note_on_c, 0, 71, 86
2, 50472, Note_on_c, 0, 71, 0
2, 50472, Note_on_c, 0, 73, 87
2, 50484, Note_on_c, 0, 73, 0
2, 50484, Note_on_c, 0, 74, 87
2, 50496, Note_on_c, 0, 74, 0
2, 50496, Note_on_c, 0, 76, 88
2, 50508, Note_on_c, 0, 76, 0
2, 50508, Note_on_c, 0, 78, 88
2, 50520, Note_on_c, 0, 78, 0
2, 50520, Note_on_c, 0, 79, 89
2, 50526, Note_on_c, 0, 79, 0
2, 50526, Note_on_c, 0, 81, 89
2, 50532, Note_on_c, 0, 81, 0
2, 50532, Note_on_c, 0, 83, 89
2, 50538, Note_on_c, 0, 83, 0
2, 50538, Note_on_c, 0, 85, 89
2, 50544, Note_on_c, 0, 85, 0
2, 50544, Note_on_c, 0, 86, 106
2, 50640, Note_on_c, 0, 86, 0
2, 50640, Note_on_c, 0, 71, 84
2, 50640, Note_on_c, 0, 68, 84
2, 50660, Note_on_c, 0, 71, 0
2, 50660, Note_on_c, 0, 68, 0
2, 50688, Note_on_c, 0, 72, 84
2, 50688, Note_on_c, 0, 69, 84
2, 50736, Note_on_c, 0, 72, 0
2, 50736, Note_on_c, 0, 69, 0
2, 50736, Note_on_c, 0, 74, 78
2, 50736, Note_on_c, 0, 71, 78
2, 50781, Note_on_c, 0, 74, 0
2, 50781, Note_on_c, 0, 71, 0
2, 50784, Note_on_c, 0, 76, 73
2, 50784, Note_on_c, 0, 72, 73
2, 50804, Note_on_c, 0, 76, 0
2, 50804, Note_on_c, 0, 72, 0
2, 50832, Note_on_c, 0, 76, 83
2, 50832, Note_on_c, 0, 72, 83
2, 50880, Note_on_c, 0, 76, 0
2, 50880, Note_on_c, 0, 72, 0
2, 50928, Note_on_c, 0, 69, 84
2, 50928, Note_on_c, 0, 66, 84
2, 50948, Note_on_c, 0, 69, 0
2, 50948, Note_on_c, 0, 66, 0
2, 50976, Note_on_c, 0, 71, 84
2, 50976, Note_on_c, 0, 67, 84
2, 51024, Note_on_c, 0, 71, 0
2, 51024, Note_on_c, 0, 67, 0
2, 51024, Note_on_c, 0, 72, 78
2, 51024, Note_on_c, 0, 69, 78
2, 51069, Note_on_c, 0, 72, 0
2, 51069, Note_on_c, 0, 69, 0
2, 51072, Note_on_c, 0, 74, 73
2, 51072, Note_on_c, 0, 71, 73
2, 51092, Note_on_c, 0, 74, 0
2, 51092, Note_on_c, 0, 71, 0
2, 51120, Note_on_c, 0, 74, 83
2, 51120, Note_on_c, 0, 71, 83
2, 51168, Note_on_c, 0, 74, 0
2, 51168, Note_on_c, 0, 71, 0
2, 51216, Note_on_c, 0, 67, 62
2, 51264, Note_on_c, 0, 67, 0
2, 51264, Note_on_c, 0, 69, 62
2, 51274, Note_on_c, 0, 69, 0
2, 51312, Note_on_c, 0, 71, 62
2, 51322, Note_on_c, 0, 71, 0
2, 51360, Note_on_c, 0, 72, 62
2, 51370, Note_on_c, 0, 72, 0
2, 51408, Note_on_c, 0, 62, 62
2, 51418, Note_on_c, 0, 62, 0
2, 51456, Note_on_c, 0, 64, 62
2, 51466, Note_on_c, 0, 64, 0
2, 51504, Note_on_c, 0, 66, 62
2, 51514, Note_on_c, 0, 66, 0
2, 51696, Note_on_c, 0, 59, 84
2, 51708, Note_on_c, 0, 62, 84
2, 51720, Note_on_c, 0, 67, 84
2, 51763, Note_on_c, 0, 67, 0
2, 51763, Note_on_c, 0, 62, 0
2, 51763, Note_on_c, 0, 59, 0
2, 51792, Note_on_c, 0, 79, 62
2, 51837, Note_on_c, 0, 79, 0
2, 51840, Note_on_c, 0, 78, 62
2, 51864, Note_on_c, 0, 78, 0
2, 51864, Note_on_c, 0, 79, 62
2, 51887, Note_on_c, 0, 79, 0
2, 51888, Note_on_c, 0, 81, 63
2, 51912, Note_on_c, 0, 81, 0
2, 51912, Note_on_c, 0, 79, 64
2, 51935, Note_on_c, 0, 79, 0
2, 51936, Note_on_c, 0, 81, 65
2, 51960, Note_on_c, 0, 81, 0
2, 51960, Note_on_c, 0, 79, 65
2, 51983, Note_on_c, 0, 79, 0
2, 51984, Note_on_c, 0, 81, 66
2, 52008, Note_on_c, 0, 81, 0
2, 52008, Note_on_c, 0, 79, 67
2, 52031, Note_on_c, 0, 79, 0
2, 52032, Note_on_c, 0, 79, 68
2, 52056, Note_on_c, 0, 79, 0
2, 52056, Note_on_c, 0, 78, 69
2, 52079, Note_on_c, 0, 78, 0
2, 52080, Note_on_c, 0, 78, 69
2, 52104, Note_on_c, 0, 78, 0
2, 52104, Note_on_c, 0, 76, 70
2, 52127, Note_on_c, 0, 76, 0
2, 52128, Note_on_c, 0, 76, 71
2, 52152, Note_on_c, 0, 76, 0
2, 52152, Note_on_c, 0, 74, 72
2, 52175, Note_on_c, 0, 74, 0
2, 52176, Note_on_c, 0, 74, 72
2, 52186, Note_on_c, 0, 74, 0
2, 52200, Note_on_c, 0, 74, 73
2, 52210, Note_on_c, 0, 74, 0
2, 52224, Note_on_c, 0, 74, 74
2, 52234, Note_on_c, 0, 74, 0
2, 52248, Note_on_c, 0, 74, 75
2, 52258, Note_on_c, 0, 74, 0
2, 52272, Note_on_c, 0, 76, 76
2, 52296, Note_on_c, 0, 76, 0
2, 52296, Note_on_c, 0, 75, 76
2, 52319, Note_on_c, 0, 75, 0
2, 52320, Note_on_c, 0, 75, 77
2, 52330, Note_on_c, 0, 75, 0
2, 52344, Note_on_c, 0, 75, 78
2, 52354, Note_on_c, 0, 75, 0
2, 52368, Note_on_c, 0, 75, 79
2, 52378, Note_on_c, 0, 75, 0
2, 52392, Note_on_c, 0, 75, 79
2, 52402, Note_on_c, 0, 75, 0
2, 52416, Note_on_c, 0, 75, 80
2, 52440, Note_on_c, 0, 75, 0
2, 52440, Note_on_c, 0, 76, 81
2, 52463, Note_on_c, 0, 76, 0
2, 52464, Note_on_c, 0, 78, 82
2, 52488, Note_on_c, 0, 78, 0
2, 52488, Note_on_c, 0, 76, 83
2, 52511, Note_on_c, 0, 76, 0
2, 52512, Note_on_c, 0, 79, 83
2, 52536, Note_on_c, 0, 79, 0
2, 52536, Note_on_c, 0, 78, 84
2, 52559, Note_on_c, 0, 78, 0
2, 52560, Note_on_c, 0, 81, 101
2, 52584, Note_on_c, 0, 81, 0
2, 52584, Note_on_c, 0, 79, 86
2, 52607, Note_on_c, 0, 79, 0
2, 52608, Note_on_c, 0, 78, 86
2, 52631, Note_on_c, 0, 78, 0
2, 52632, Note_on_c, 0, 76, 87
2, 52655, Note_on_c, 0, 76, 0
2, 52656, Note_on_c, 0, 74, 88
2, 52679, Note_on_c, 0, 74, 0
2, 52680, Note_on_c, 0, 73, 89
2, 52703, Note_on_c, 0, 73, 0
2, 52704, Note_on_c, 0, 74, 90
2, 52728, Note_on_c, 0, 74, 0
2, 52728, Note_on_c, 0, 86, 90
2, 52751, Note_on_c, 0, 86, 0
2, 52752, Note_on_c, 0, 74, 90
2, 52762, Note_on_c, 0, 74, 0
2, 52776, Note_on_c, 0, 74, 90
2, 52786, Note_on_c, 0, 74, 0
2, 52800, Note_on_c, 0, 74, 90
2, 52810, Note_on_c, 0, 74, 0
2, 52824, Note_on_c, 0, 74, 90
2, 52834, Note_on_c, 0, 74, 0
2, 52848, Note_on_c, 0, 74, 90
2, 52872, Note_on_c, 0, 74, 0
2, 52872, Note_on_c, 0, 86, 90
2, 52895, Note_on_c, 0, 86, 0
2, 52896, Note_on_c, 0, 74, 90
2, 52906, Note_on_c, 0, 74, 0
2, 52920, Note_on_c, 0, 74, 90
2, 52930, Note_on_c, 0, 74, 0
2, 52944, Note_on_c, 0, 74, 90
2, 52954, Note_on_c, 0, 74, 0
2, 52968, Note_on_c, 0, 74, 90
2, 52978, Note_on_c, 0, 74, 0
2, 52992, Note_on_c, 0, 74, 90
2, 53004, Note_on_c, 0, 74, 0
2, 53004, Note_on_c, 0, 78, 90
2, 53016, Note_on_c, 0, 78, 0
2, 53016, Note_on_c, 0, 81, 90
2, 53028, Note_on_c, 0, 81, 0
2, 53028, Note_on_c, 0, 86, 90
2, 53040, Note_on_c, 0, 86, 0
2, 53040, Note_on_c, 0, 74, 90
2, 53050, Note_on_c, 0, 74, 0
2, 53064, Note_on_c, 0, 74, 90
2, 53074, Note_on_c, 0, 74, 0
2, 53088, Note_on_c, 0, 74, 90
2, 53098, Note_on_c, 0, 74, 0
2, 53112, Note_on_c, 0, 74, 90
2, 53122, Note_on_c, 0, 74, 0
2, 53136, Note_on_c, 0, 74, 90
2, 53148, Note_on_c, 0, 74, 0
2, 53148, Note_on_c, 0, 78, 90
2, 53160, Note_on_c, 0, 78, 0
2, 53160, Note_on_c, 0, 81, 90
2, 53172, Note_on_c, 0, 81, 0
2, 53172, Note_on_c, 0, 86, 90
2, 53184, Note_on_c, 0, 86, 0
2, 53184, Note_on_c, 0, 74, 90
2, 53194, Note_on_c, 0, 74, 0
2, 53208, Note_on_c, 0, 74, 90
2, 53218, Note_on_c, 0, 74, 0
2, 53232, Note_on_c, 0, 74, 90
2, 53242, Note_on_c, 0, 74, 0
2, 53256, Note_on_c, 0, 74, 90
2, 53266, Note_on_c, 0, 74, 0
2, 53280, Note_on_c, 0, 74, 90
2, 53304, Note_on_c, 0, 74, 0
2, 53304, Note_on_c, 0, 86, 89
2, 53327, Note_on_c, 0, 86, 0
2, 53328, Note_on_c, 0, 86, 88
2, 53338, Note_on_c, 0, 86, 0
2, 53352, Note_on_c, 0, 86, 87
2, 53362, Note_on_c, 0, 86, 0
2, 53376, Note_on_c, 0, 86, 86
2, 53386, Note_on_c, 0, 86, 0
2, 53400, Note_on_c, 0, 86, 85
2, 53410, Note_on_c, 0, 86, 0
2, 53424, Note_on_c, 0, 85, 84
2, 53448, Note_on_c, 0, 85, 0
2, 53448, Note_on_c, 0, 86, 83
2, 53471, Note_on_c, 0, 86, 0
2, 53472, Note_on_c, 0, 86, 83
2, 53482, Note_on_c, 0, 86, 0
2, 53496, Note_on_c, 0, 86, 82
2, 53506, Note_on_c, 0, 86, 0
2, 53520, Note_on_c, 0, 86, 81
2, 53530, Note_on_c, 0, 86, 0
2, 53544, Note_on_c, 0, 86, 80
2, 53554, Note_on_c, 0, 86, 0
2, 53568, Note_on_c, 0, 87, 79
2, 53592, Note_on_c, 0, 87, 0
2, 53592, Note_on_c, 0, 86, 78
2, 53615, Note_on_c, 0, 86, 0
2, 53616, Note_on_c, 0, 86, 77
2, 53626, Note_on_c, 0, 86, 0
2, 53640, Note_on_c, 0, 86, 76
2, 53650, Note_on_c, 0, 86, 0
2, 53664, Note_on_c, 0, 86, 76
2, 53674, Note_on_c, 0, 86, 0
2, 53688, Note_on_c, 0, 86, 75
2, 53698, Note_on_c, 0, 86, 0
2, 53712, Note_on_c, 0, 85, 74
2, 53736, Note_on_c, 0, 85, 0
2, 53736, Note_on_c, 0, 86, 73
2, 53759, Note_on_c, 0, 86, 0
2, 53760, Note_on_c, 0, 86, 72
2, 53770, Note_on_c, 0, 86, 0
2, 53784, Note_on_c, 0, 86, 71
2, 53794, Note_on_c, 0, 86, 0
2, 53808, Note_on_c, 0, 86, 70
2, 53818, Note_on_c, 0, 86, 0
2, 53832, Note_on_c, 0, 86, 69
2, 53842, Note_on_c, 0, 86, 0
2, 53856, Note_on_c, 0, 86, 69
2, 53866, Note_on_c, 0, 86, 0
2, 53880, Note_on_c, 0, 86, 68
2, 53890, Note_on_c, 0, 86, 0
2, 53904, Note_on_c, 0, 86, 67
2, 53914, Note_on_c, 0, 86, 0
2, 53928, Note_on_c, 0, 86, 66
2, 53938, Note_on_c, 0, 86, 0
2, 53952, Note_on_c, 0, 86, 65
2, 53962, Note_on_c, 0, 86, 0
2, 53976, Note_on_c, 0, 86, 64
2, 53986, Note_on_c, 0, 86, 0
2, 54000, Note_on_c, 0, 86, 63
2, 54020, Note_on_c, 0, 86, 0
2, 54048, Note_on_c, 0, 86, 62
2, 54068, Note_on_c, 0, 86, 0
2, 54096, Note_on_c, 0, 86, 62
2, 54116, Note_on_c, 0, 86, 0
2, 54144, Note_on_c, 0, 86, 62
2, 54144, Note_on_c, 0, 84, 62
2, 54164, Note_on_c, 0, 86, 0
2, 54164, Note_on_c, 0, 84, 0
2, 54192, Note_on_c, 0, 86, 62
2, 54192, Note_on_c, 0, 84, 62
2, 54212, Note_on_c, 0, 86, 0
2, 54212, Note_on_c, 0, 84, 0
2, 54240, Note_on_c, 0, 86, 62
2, 54240, Note_on_c, 0, 84, 62
2, 54260, Note_on_c, 0, 86, 0
2, 54260, Note_on_c, 0, 84, 0
2, 54288, Note_on_c, 0, 86, 62
2, 54288, Note_on_c, 0, 84, 62
2, 54308, Note_on_c, 0, 86, 0
2, 54308, Note_on_c, 0, 84, 0
2, 54336, Note_on_c, 0, 86, 62
2, 54336, Note_on_c, 0, 84, 62
2, 54356, Note_on_c, 0, 86, 0
2, 54356, Note_on_c, 0, 84, 0
2, 54384, Note_on_c, 0, 86, 62
2, 54384, Note_on_c, 0, 84, 62
2, 54404, Note_on_c, 0, 86, 0
2, 54404, Note_on_c, 0, 84, 0
2, 54432, Note_on_c, 0, 86, 62
2, 54432, Note_on_c, 0, 84, 62
2, 54452, Note_on_c, 0, 86, 0
2, 54452, Note_on_c, 0, 84, 0
2, 54480, Note_on_c, 0, 86, 62
2, 54480, Note_on_c, 0, 84, 62
2, 54500, Note_on_c, 0, 86, 0
2, 54500, Note_on_c, 0, 84, 0
2, 54528, Note_on_c, 0, 86, 62
2, 54528, Note_on_c, 0, 84, 62
2, 54548, Note_on_c, 0, 86, 0
2, 54548, Note_on_c, 0, 84, 0
2, 54576, Note_on_c, 0, 86, 62
2, 54576, Note_on_c, 0, 84, 62
2, 54709, Note_on_c, 0, 86, 0
2, 54709, Note_on_c, 0, 84, 0
2, 54816, Note_on_c, 0, 74, 71
2, 54816, Note_on_c, 0, 72, 71
2, 54826, Note_on_c, 0, 74, 0
2, 54826, Note_on_c, 0, 72, 0
2, 54864, Note_on_c, 0, 74, 71
2, 54864, Note_on_c, 0, 72, 71
2, 54948, Note_on_c, 0, 74, 0
2, 54948, Note_on_c, 0, 72, 0
2, 54960, Note_on_c, 0, 67, 86
2, 54980, Note_on_c, 0, 67, 0
2, 55008, Note_on_c, 0, 67, 70
2, 55097, Note_on_c, 0, 67, 0
2, 55104, Note_on_c, 0, 71, 70
2, 55116, Note_on_c, 0, 71, 0
2, 55116, Note_on_c, 0, 69, 70
2, 55149, Note_on_c, 0, 69, 0
2, 55152, Note_on_c, 0, 62, 70
2, 55197, Note_on_c, 0, 62, 0
2, 55200, Note_on_c, 0, 64, 70
2, 55245, Note_on_c, 0, 64, 0
2, 55248, Note_on_c, 0, 67, 70
2, 55260, Note_on_c, 0, 67, 0
2, 55260, Note_on_c, 0, 66, 70
2, 55272, Note_on_c, 0, 66, 0
2, 55272, Note_on_c, 0, 64, 70
2, 55284, Note_on_c, 0, 64, 0
2, 55284, Note_on_c, 0, 66, 70
2, 55296, Note_on_c, 0, 66, 0
2, 55296, Note_on_c, 0, 67, 70
2, 55316, Note_on_c, 0, 67, 0
2, 55344, Note_on_c, 0, 67, 77
2, 55364, Note_on_c, 0, 67, 0
2, 55392, Note_on_c, 0, 67, 73
2, 55412, Note_on_c, 0, 67, 0
2, 55440, Note_on_c, 0, 67, 70
2, 55529, Note_on_c, 0, 67, 0
2, 55536, Note_on_c, 0, 69, 84
2, 55536, Note_on_c, 0, 66, 84
2, 55536, Note_on_c, 0, 62, 84
2, 55581, Note_on_c, 0, 69, 0
2, 55581, Note_on_c, 0, 66, 0
2, 55581, Note_on_c, 0, 62, 0
2, 55584, Note_on_c, 0, 71, 84
2, 55584, Note_on_c, 0, 67, 84
2, 55584, Note_on_c, 0, 62, 84
2, 55629, Note_on_c, 0, 71, 0
2, 55629, Note_on_c, 0, 67, 0
2, 55629, Note_on_c, 0, 62, 0
2, 55680, Note_on_c, 0, 62, 84
2, 55686, Note_on_c, 0, 67, 84
2, 55692, Note_on_c, 0, 71, 84
2, 55698, Note_on_c, 0, 74, 84
2, 55725, Note_on_c, 0, 74, 0
2, 55725, Note_on_c, 0, 71, 0
2, 55725, Note_on_c, 0, 67, 0
2, 55725, Note_on_c, 0, 62, 0
2, 55728, Note_on_c, 0, 62, 84
2, 55734, Note_on_c, 0, 66, 84
2, 55740, Note_on_c, 0, 69, 84
2, 55746, Note_on_c, 0, 72, 84
2, 55821, Note_on_c, 0, 72, 0
2, 55821, Note_on_c, 0, 69, 0
2, 55821, Note_on_c, 0, 66, 0
2, 55821, Note_on_c, 0, 62, 0
2, 55824, Note_on_c, 0, 71, 84
2, 55824, Note_on_c, 0, 67, 84
2, 55824, Note_on_c, 0, 62, 84
2, 55869, Note_on_c, 0, 71, 0
2, 55869, Note_on_c, 0, 67, 0
2, 55869, Note_on_c, 0, 62, 0
2, 55872, Note_on_c, 0, 62, 84
2, 55884, Note_on_c, 0, 62, 0
2, 55884, Note_on_c, 0, 64, 84
2, 55896, Note_on_c, 0, 64, 0
2, 55896, Note_on_c, 0, 66, 85
2, 55908, Note_on_c, 0, 66, 0
2, 55908, Note_on_c, 0, 67, 85
2, 55920, Note_on_c, 0, 67, 0
2, 55920, Note_on_c, 0, 69, 86
2, 55932, Note_on_c, 0, 69, 0
2, 55932, Note_on_c, 0, 71, 86
2, 55944, Note_on_c, 0, 71, 0
2, 55944, Note_on_c, 0, 73, 87
2, 55956, Note_on_c, 0, 73, 0
2, 55956, Note_on_c, 0, 74, 87
2, 55968, Note_on_c, 0, 74, 0
2, 55968, Note_on_c, 0, 76, 88
2, 55980, Note_on_c, 0, 76, 0
2, 55980, Note_on_c, 0, 78, 88
2, 55992, Note_on_c, 0, 78, 0
2, 55992, Note_on_c, 0, 79, 89
2, 55998, Note_on_c, 0, 79, 0
2, 55998, Note_on_c, 0, 81, 89
2, 56004, Note_on_c, 0, 81, 0
2, 56004, Note_on_c, 0, 83, 89
2, 56010, Note_on_c, 0, 83, 0
2, 56010, Note_on_c, 0, 85, 89
2, 56016, Note_on_c, 0, 85, 0
2, 56016, Note_on_c, 0, 86, 106
2, 56112, Note_on_c, 0, 86, 0
2, 56112, Note_on_c, 0, 71, 84
2, 56112, Note_on_c, 0, 68, 84
2, 56132, Note_on_c, 0, 71, 0
2, 56132, Note_on_c, 0, 68, 0
2, 56160, Note_on_c, 0, 72, 84
2, 56160, Note_on_c, 0, 69, 84
2, 56208, Note_on_c, 0, 72, 0
2, 56208, Note_on_c, 0, 69, 0
2, 56208, Note_on_c, 0, 74, 78
2, 56208, Note_on_c, 0, 71, 78
2, 56253, Note_on_c, 0, 74, 0
2, 56253, Note_on_c, 0, 71, 0
2, 56256, Note_on_c, 0, 76, 73
2, 56256, Note_on_c, 0, 72, 73
2, 56276, Note_on_c, 0, 76, 0
2, 56276, Note_on_c, 0, 72, 0
2, 56304, Note_on_c, 0, 76, 83
2, 56304, Note_on_c, 0, 72, 83
2, 56352, Note_on_c, 0, 76, 0
2, 56352, Note_on_c, 0, 72, 0
2, 56400, Note_on_c, 0, 69, 84
2, 56400, Note_on_c, 0, 66, 84
2, 56420, Note_on_c, 0, 69, 0
2, 56420, Note_on_c, 0, 66, 0
2, 56448, Note_on_c, 0, 71, 84
2, 56448, Note_on_c, 0, 67, 84
2, 56496, Note_on_c, 0, 71, 0
2, 56496, Note_on_c, 0, 67, 0
2, 56496, Note_on_c, 0, 72, 78
2, 56496, Note_on_c, 0, 69, 78
2, 56541, Note_on_c, 0, 72, 0
2, 56541, Note_on_c, 0, 69, 0
2, 56544, Note_on_c, 0, 74, 73
2, 56544, Note_on_c, 0, 71, 73
2, 56564, Note_on_c, 0, 74, 0
2, 56564, Note_on_c, 0, 71, 0
2, 56592, Note_on_c, 0, 74, 83
2, 56592, Note_on_c, 0, 71, 83
2, 56640, Note_on_c, 0, 74, 0
2, 56640, Note_on_c, 0, 71, 0
2, 56688, Note_on_c, 0, 67, 62
2, 56736, Note_on_c, 0, 67, 0
2, 56736, Note_on_c, 0, 69, 62
2, 56746, Note_on_c, 0, 69, 0
2, 56784, Note_on_c, 0, 71, 62
2, 56794, Note_on_c, 0, 71, 0
2, 56832, Note_on_c, 0, 72, 62
2, 56842, Note_on_c, 0, 72, 0
2, 56880, Note_on_c, 0, 62, 62
2, 56890, Note_on_c, 0, 62, 0
2, 56928, Note_on_c, 0, 64, 62
2, 56938, Note_on_c, 0, 64, 0
2, 56976, Note_on_c, 0, 66, 62
2, 56986, Note_on_c, 0, 66, 0
2, 57168, Note_on_c, 0, 59, 84
2, 57176, Note_on_c, 0, 62, 84
2, 57184, Note_on_c, 0, 67, 84
2, 57305, Note_on_c, 0, 67, 0
2, 57305, Note_on_c, 0, 62, 0
2, 57305, Note_on_c, 0, 59, 0
2, 57312, End_track
3, 0, Start_track
3, 0, Program_c, 0, 0
3, 0, Control_c, 0, 7, 127
3, 0, Control_c, 0, 10, 64
3, 864, Note_on_c, 0, 62, 62
3, 997, Note_on_c, 0, 62, 0
3, 1008, Note_on_c, 0, 66, 62
3, 1008, Note_on_c, 0, 62, 62
3, 1141, Note_on_c, 0, 66, 0
3, 1141, Note_on_c, 0, 62, 0
3, 1680, Note_on_c, 0, 69, 62
3, 1725, Note_on_c, 0, 69, 0
3, 1872, Note_on_c, 0, 67, 68
3, 2061, Note_on_c, 0, 67, 0
3, 3168, Note_on_c, 0, 62, 62
3, 3301, Note_on_c, 0, 62, 0
3, 3312, Note_on_c, 0, 66, 62
3, 3312, Note_on_c, 0, 62, 62
3, 3445, Note_on_c, 0, 66, 0
3, 3445, Note_on_c, 0, 62, 0
3, 3984, Note_on_c, 0, 69, 62
3, 4029, Note_on_c, 0, 69, 0
3, 4176, Note_on_c, 0, 67, 68
3, 4365, Note_on_c, 0, 67, 0
3, 7776, Note_on_c, 0, 62, 62
3, 7909, Note_on_c, 0, 62, 0
3, 7920, Note_on_c, 0, 66, 66
3, 7920, Note_on_c, 0, 62, 66
3, 8053, Note_on_c, 0, 66, 0
3, 8053, Note_on_c, 0, 62, 0
3, 8592, Note_on_c, 0, 69, 70
3, 8637, Note_on_c, 0, 69, 0
3, 8784, Note_on_c, 0, 71, 70
3, 8873, Note_on_c, 0, 71, 0
3, 8880, Note_on_c, 0, 59, 70
3, 8925, Note_on_c, 0, 59, 0
3, 8928, Note_on_c, 0, 60, 70
3, 8973, Note_on_c, 0, 60, 0
3, 8976, Note_on_c, 0, 64, 69
3, 9021, Note_on_c, 0, 64, 0
3, 9024, Note_on_c, 0, 62, 68
3, 9069, Note_on_c, 0, 62, 0
3, 9072, Note_on_c, 0, 60, 68
3, 9117, Note_on_c, 0, 60, 0
3, 9120, Note_on_c, 0, 59, 67
3, 9165, Note_on_c, 0, 59, 0
3, 9168, Note_on_c, 0, 57, 66
3, 9213, Note_on_c, 0, 57, 0
3, 12384, Note_on_c, 0, 62, 62
3, 12517, Note_on_c, 0, 62, 0
3, 12528, Note_on_c, 0, 66, 66
3, 12528, Note_on_c, 0, 62, 66
3, 12661, Note_on_c, 0, 66, 0
3, 12661, Note_on_c, 0, 62, 0
3, 13200, Note_on_c, 0, 69, 70
3, 13245, Note_on_c, 0, 69, 0
3, 13392, Note_on_c, 0, 71, 70
3, 13481, Note_on_c, 0, 71, 0
3, 13488, Note_on_c, 0, 59, 70
3, 13533, Note_on_c, 0, 59, 0
3, 13536, Note_on_c, 0, 60, 70
3, 13581, Note_on_c, 0, 60, 0
3, 13584, Note_on_c, 0, 64, 69
3, 13629, Note_on_c, 0, 64, 0
3, 13632, Note_on_c, 0, 62, 68
3, 13677, Note_on_c, 0, 62, 0
3, 13680, Note_on_c, 0, 60, 68
3, 13725, Note_on_c, 0, 60, 0
3, 13728, Note_on_c, 0, 59, 67
3, 13773, Note_on_c, 0, 59, 0
3, 13776, Note_on_c, 0, 57, 66
3, 13821, Note_on_c, 0, 57, 0
3, 14640, Note_on_c, 0, 73, 62
3, 14685, Note_on_c, 0, 73, 0
3, 14688, Note_on_c, 0, 74, 62
3, 14784, Note_on_c, 0, 74, 0
3, 14784, Note_on_c, 0, 73, 62
3, 14829, Note_on_c, 0, 73, 0
3, 14832, Note_on_c, 0, 74, 62
3, 14921, Note_on_c, 0, 74, 0
3, 16368, Note_on_c, 0, 73, 84
3, 16413, Note_on_c, 0, 73, 0
3, 16416, Note_on_c, 0, 74, 62
3, 16512, Note_on_c, 0, 74, 0
3, 16512, Note_on_c, 0, 73, 84
3, 16557, Note_on_c, 0, 73, 0
3, 16560, Note_on_c, 0, 74, 62
3, 16649, Note_on_c, 0, 74, 0
3, 18144, Note_on_c, 0, 69, 62
3, 18233, Note_on_c, 0, 69, 0
3, 18240, Note_on_c, 0, 67, 84
3, 18285, Note_on_c, 0, 67, 0
3, 18288, Note_on_c, 0, 69, 62
3, 18377, Note_on_c, 0, 69, 0
3, 18384, Note_on_c, 0, 67, 84
3, 18429, Note_on_c, 0, 67, 0
3, 18720, Note_on_c, 0, 75, 84
3, 18909, Note_on_c, 0, 75, 0
3, 18912, Note_on_c, 0, 74, 69
3, 18957, Note_on_c, 0, 74, 0
3, 18960, Note_on_c, 0, 72, 65
3, 19005, Note_on_c, 0, 72, 0
3, 19872, Note_on_c, 0, 69, 62
3, 19961, Note_on_c, 0, 69, 0
3, 19968, Note_on_c, 0, 67, 84
3, 20013, Note_on_c, 0, 67, 0
3, 20016, Note_on_c, 0, 69, 62
3, 20105, Note_on_c, 0, 69, 0
3, 20112, Note_on_c, 0, 67, 84
3, 20157, Note_on_c, 0, 67, 0
3, 20448, Note_on_c, 0, 75, 84
3, 20637, Note_on_c, 0, 75, 0
3, 20640, Note_on_c, 0, 74, 69
3, 20685, Note_on_c, 0, 74, 0
3, 20688, Note_on_c, 0, 72, 65
3, 20733, Note_on_c, 0, 72, 0
3, 21600, Note_on_c, 0, 62, 62
3, 21733, Note_on_c, 0, 62, 0
3, 21744, Note_on_c, 0, 66, 62
3, 21744, Note_on_c, 0, 62, 62
3, 21789, Note_on_c, 0, 66, 0
3, 21789, Note_on_c, 0, 62, 0
3, 23904, Note_on_c, 0, 62, 62
3, 24037, Note_on_c, 0, 62, 0
3, 24048, Note_on_c, 0, 66, 62
3, 24048, Note_on_c, 0, 62, 62
3, 24093, Note_on_c, 0, 66, 0
3, 24093, Note_on_c, 0, 62, 0
3, 28512, Note_on_c, 0, 62, 62
3, 28645, Note_on_c, 0, 62, 0
3, 28656, Note_on_c, 0, 66, 62
3, 28656, Note_on_c, 0, 62, 62
3, 28789, Note_on_c, 0, 66, 0
3, 28789, Note_on_c, 0, 62, 0
3, 29688, Note_on_c, 0, 64, 62
3, 29733, Note_on_c, 0, 64, 0
3, 29736, Note_on_c, 0, 62, 62
3, 29781, Note_on_c, 0, 62, 0
3, 29784, Note_on_c, 0, 60, 62
3, 29829, Note_on_c, 0, 60, 0
3, 29832, Note_on_c, 0, 60, 62
3, 29877, Note_on_c, 0, 60, 0
3, 29880, Note_on_c, 0, 60, 62
3, 29925, Note_on_c, 0, 60, 0
3, 29928, Note_on_c, 0, 60, 62
3, 30096, Note_on_c, 0, 60, 0
3, 30096, Note_on_c, 0, 59, 62
3, 30141, Note_on_c, 0, 59, 0
3, 33120, Note_on_c, 0, 62, 62
3, 33253, Note_on_c, 0, 62, 0
3, 33264, Note_on_c, 0, 66, 62
3, 33264, Note_on_c, 0, 62, 62
3, 33397, Note_on_c, 0, 66, 0
3, 33397, Note_on_c, 0, 62, 0
3, 34296, Note_on_c, 0, 64, 62
3, 34341, Note_on_c, 0, 64, 0
3, 34344, Note_on_c, 0, 62, 62
3, 34389, Note_on_c, 0, 62, 0
3, 34392, Note_on_c, 0, 60, 62
3, 34437, Note_on_c, 0, 60, 0
3, 34440, Note_on_c, 0, 60, 62
3, 34485, Note_on_c, 0, 60, 0
3, 34488, Note_on_c, 0, 60, 62
3, 34533, Note_on_c, 0, 60, 0
3, 34536, Note_on_c, 0, 60, 62
3, 34560, Note_on_c, 0, 60, 62
3, 34704, Note_on_c, 0, 60, 0
3, 34704, Note_on_c, 0, 59, 62
3, 34751, Note_on_c, 0, 59, 0
3, 42336, Note_on_c, 0, 62, 77
3, 42469, Note_on_c, 0, 62, 0
3, 42480, Note_on_c, 0, 66, 84
3, 42480, Note_on_c, 0, 62, 84
3, 42613, Note_on_c, 0, 66, 0
3, 42613, Note_on_c, 0, 62, 0
3, 43056, Note_on_c, 0, 84, 84
3, 43101, Note_on_c, 0, 84, 0
3, 43104, Note_on_c, 0, 83, 84
3, 43149, Note_on_c, 0, 83, 0
3, 43152, Note_on_c, 0, 81, 84
3, 43245, Note_on_c, 0, 81, 0
3, 43248, Note_on_c, 0, 79, 84
3, 43293, Note_on_c, 0, 79, 0
3, 44640, Note_on_c, 0, 62, 77
3, 44773, Note_on_c, 0, 62, 0
3, 44784, Note_on_c, 0, 66, 84
3, 44784, Note_on_c, 0, 62, 84
3, 44917, Note_on_c, 0, 66, 0
3, 44917, Note_on_c, 0, 62, 0
3, 45360, Note_on_c, 0, 84, 84
3, 45405, Note_on_c, 0, 84, 0
3, 45408, Note_on_c, 0, 83, 84
3, 45453, Note_on_c, 0, 83, 0
3, 45456, Note_on_c, 0, 81, 84
3, 45549, Note_on_c, 0, 81, 0
3, 45552, Note_on_c, 0, 79, 84
3, 45597, Note_on_c, 0, 79, 0
3, 57312, End_track
4, 0, Start_track
4, 0, Program_c, 1, 0
4, 0, Control_c, 1, 7, 127
4, 0, Control_c, 1, 10, 64
4, 240, Note_on_c, 1, 59, 62
4, 240, Note_on_c, 1, 55, 62
4, 260, Note_on_c, 1, 59, 0
4, 260, Note_on_c, 1, 55, 0
4, 288, Note_on_c, 1, 59, 62
4, 288, Note_on_c, 1, 55, 62
4, 377, Note_on_c, 1, 59, 0
4, 377, Note_on_c, 1, 55, 0
4, 384, Note_on_c, 1, 60, 62
4, 384, Note_on_c, 1, 55, 62
4, 404, Note_on_c, 1, 60, 0
4, 404, Note_on_c, 1, 55, 0
4, 432, Note_on_c, 1, 60, 62
4, 432, Note_on_c, 1, 55, 62
4, 521, Note_on_c, 1, 60, 0
4, 521, Note_on_c, 1, 55, 0
4, 528, Note_on_c, 1, 60, 62
4, 528, Note_on_c, 1, 55, 62
4, 548, Note_on_c, 1, 60, 0
4, 548, Note_on_c, 1, 55, 0
4, 576, Note_on_c, 1, 59, 62
4, 576, Note_on_c, 1, 55, 62
4, 596, Note_on_c, 1, 59, 0
4, 596, Note_on_c, 1, 55, 0
4, 624, Note_on_c, 1, 59, 62
4, 624, Note_on_c, 1, 55, 62
4, 644, Note_on_c, 1, 59, 0
4, 644, Note_on_c, 1, 55, 0
4, 672, Note_on_c, 1, 59, 62
4, 672, Note_on_c, 1, 55, 62
4, 692, Note_on_c, 1, 59, 0
4, 692, Note_on_c, 1, 55, 0
4, 720, Note_on_c, 1, 59, 62
4, 720, Note_on_c, 1, 55, 62
4, 809, Note_on_c, 1, 59, 0
4, 809, Note_on_c, 1, 55, 0
4, 816, Note_on_c, 1, 54, 62
4, 836, Note_on_c, 1, 54, 0
4, 864, Note_on_c, 1, 57, 62
4, 876, Note_on_c, 1, 57, 0
4, 876, Note_on_c, 1, 55, 62
4, 909, Note_on_c, 1, 55, 0
4, 912, Note_on_c, 1, 54, 64
4, 957, Note_on_c, 1, 54, 0
4, 960, Note_on_c, 1, 55, 67
4, 1005, Note_on_c, 1, 55, 0
4, 1008, Note_on_c, 1, 57, 70
4, 1097, Note_on_c, 1, 57, 0
4, 1104, Note_on_c, 1, 55, 67
4, 1124, Note_on_c, 1, 55, 0
4, 1152, Note_on_c, 1, 50, 66
4, 1200, Note_on_c, 1, 50, 0
4, 1200, Note_on_c, 1, 62, 65
4, 1220, Note_on_c, 1, 62, 0
4, 1248, Note_on_c, 1, 62, 64
4, 1268, Note_on_c, 1, 62, 0
4, 1296, Note_on_c, 1, 62, 63
4, 1344, Note_on_c, 1, 62, 0
4, 1344, Note_on_c, 1, 60, 62
4, 1389, Note_on_c, 1, 60, 0
4, 1392, Note_on_c, 1, 59, 67
4, 1412, Note_on_c, 1, 59, 0
4, 1440, Note_on_c, 1, 57, 73
4, 1529, Note_on_c, 1, 57, 0
4, 1536, Note_on_c, 1, 55, 84
4, 1581, Note_on_c, 1, 55, 0
4, 1584, Note_on_c, 1, 54, 84
4, 1629, Note_on_c, 1, 54, 0
4, 1632, Note_on_c, 1, 57, 84
4, 1677, Note_on_c, 1, 57, 0
4, 1680, Note_on_c, 1, 62, 84
4, 1725, Note_on_c, 1, 62, 0
4, 1824, Note_on_c, 1, 65, 71
4, 1869, Note_on_c, 1, 65, 0
4, 1872, Note_on_c, 1, 64, 72
4, 1917, Note_on_c, 1, 64, 0
4, 1920, Note_on_c, 1, 62, 72
4, 1965, Note_on_c, 1, 62, 0
4, 1968, Note_on_c, 1, 60, 73
4, 2013, Note_on_c, 1, 60, 0
4, 2016, Note_on_c, 1, 59, 74
4, 2061, Note_on_c, 1, 59, 0
4, 2064, Note_on_c, 1, 59, 90
4, 2112, Note_on_c, 1, 59, 0
4, 2112, Note_on_c, 1, 57, 75
4, 2157, Note_on_c, 1, 57, 0
4, 2160, Note_on_c, 1, 55, 76
4, 2205, Note_on_c, 1, 55, 0
4, 2208, Note_on_c, 1, 59, 77
4, 2253, Note_on_c, 1, 59, 0
4, 2256, Note_on_c, 1, 67, 89
4, 2352, Note_on_c, 1, 67, 0
4, 2352, Note_on_c, 1, 66, 70
4, 2397, Note_on_c, 1, 66, 0
4, 2400, Note_on_c, 1, 66, 70
4, 2445, Note_on_c, 1, 66, 0
4, 2448, Note_on_c, 1, 66, 70
4, 2448, Note_on_c, 1, 62, 70
4, 2537, Note_on_c, 1, 66, 0
4, 2537, Note_on_c, 1, 62, 0
4, 2592, Note_on_c, 1, 59, 62
4, 2592, Note_on_c, 1, 55, 62
4, 2681, Note_on_c, 1, 59, 0
4, 2681, Note_on_c, 1, 55, 0
4, 2688, Note_on_c, 1, 60, 62
4, 2688, Note_on_c, 1, 55, 62
4, 2708, Note_on_c, 1, 60, 0
4, 2708, Note_on_c, 1, 55, 0
4, 2736, Note_on_c, 1, 60, 62
4, 2736, Note_on_c, 1, 55, 62
4, 2825, Note_on_c, 1, 60, 0
4, 2825, Note_on_c, 1, 55, 0
4, 2832, Note_on_c, 1, 60, 62
4, 2832, Note_on_c, 1, 55, 62
4, 2852, Note_on_c, 1, 60, 0
4, 2852, Note_on_c, 1, 55, 0
4, 2880, Note_on_c, 1, 59, 62
4, 2880, Note_on_c, 1, 55, 62
4, 2900, Note_on_c, 1, 59, 0
4, 2900, Note_on_c, 1, 55, 0
4, 2928, Note_on_c, 1, 59, 62
4, 2928, Note_on_c, 1, 55, 62
4, 2948, Note_on_c, 1, 59, 0
4, 2948, Note_on_c, 1, 55, 0
4, 2976, Note_on_c, 1, 59, 62
4, 2976, Note_on_c, 1, 55, 62
4, 2996, Note_on_c, 1, 59, 0
4, 2996, Note_on_c, 1, 55, 0
4, 3024, Note_on_c, 1, 59, 62
4, 3024, Note_on_c, 1, 55, 62
4, 3113, Note_on_c, 1, 59, 0
4, 3113, Note_on_c, 1, 55, 0
4, 3120, Note_on_c, 1, 54, 62
4, 3140, Note_on_c, 1, 54, 0
4, 3168, Note_on_c, 1, 57, 62
4, 3180, Note_on_c, 1, 57, 0
4, 3180, Note_on_c, 1, 55, 62
4, 3213, Note_on_c, 1, 55, 0
4, 3216, Note_on_c, 1, 54, 64
4, 3261, Note_on_c, 1, 54, 0
4, 3264, Note_on_c, 1, 55, 67
4, 3309, Note_on_c, 1, 55, 0
4, 3312, Note_on_c, 1, 57, 70
4, 3401, Note_on_c, 1, 57, 0
4, 3408, Note_on_c, 1, 55, 67
4, 3428, Note_on_c, 1, 55, 0
4, 3456, Note_on_c, 1, 50, 66
4, 3504, Note_on_c, 1, 50, 0
4, 3504, Note_on_c, 1, 62, 65
4, 3524, Note_on_c, 1, 62, 0
4, 3552, Note_on_c, 1, 62, 64
4, 3572, Note_on_c, 1, 62, 0
4, 3600, Note_on_c, 1, 62, 63
4, 3648, Note_on_c, 1, 62, 0
4, 3648, Note_on_c, 1, 60, 62
4, 3693, Note_on_c, 1, 60, 0
4, 3696, Note_on_c, 1, 59, 67
4, 3716, Note_on_c, 1, 59, 0
4, 3744, Note_on_c, 1, 57, 73
4, 3833, Note_on_c, 1, 57, 0
4, 3840, Note_on_c, 1, 55, 84
4, 3885, Note_on_c, 1, 55, 0
4, 3888, Note_on_c, 1, 54, 84
4, 3933, Note_on_c, 1, 54, 0
4, 3936, Note_on_c, 1, 57, 84
4, 3981, Note_on_c, 1, 57, 0
4, 3984, Note_on_c, 1, 62, 84
4, 4029, Note_on_c, 1, 62, 0
4, 4128, Note_on_c, 1, 65, 71
4, 4173, Note_on_c, 1, 65, 0
4, 4176, Note_on_c, 1, 64, 72
4, 4221, Note_on_c, 1, 64, 0
4, 4224, Note_on_c, 1, 62, 72
4, 4269, Note_on_c, 1, 62, 0
4, 4272, Note_on_c, 1, 60, 73
4, 4317, Note_on_c, 1, 60, 0
4, 4320, Note_on_c, 1, 59, 74
4, 4365, Note_on_c, 1, 59, 0
4, 4368, Note_on_c, 1, 59, 90
4, 4416, Note_on_c, 1, 59, 0
4, 4416, Note_on_c, 1, 57, 75
4, 4461, Note_on_c, 1, 57, 0
4, 4464, Note_on_c, 1, 55, 76
4, 4509, Note_on_c, 1, 55, 0
4, 4512, Note_on_c, 1, 59, 77
4, 4557, Note_on_c, 1, 59, 0
4, 4560, Note_on_c, 1, 67, 89
4, 4608, Note_on_c, 1, 67, 70
4, 4653, Note_on_c, 1, 67, 0
4, 4656, Note_on_c, 1, 66, 70
4, 4701, Note_on_c, 1, 66, 0
4, 4704, Note_on_c, 1, 66, 70
4, 4749, Note_on_c, 1, 66, 0
4, 4752, Note_on_c, 1, 66, 70
4, 4841, Note_on_c, 1, 66, 0
4, 4848, Note_on_c, 1, 62, 70
4, 4848, Note_on_c, 1, 59, 70
4, 4868, Note_on_c, 1, 62, 0
4, 4868, Note_on_c, 1, 59, 0
4, 4896, Note_on_c, 1, 62, 84
4, 4896, Note_on_c, 1, 59, 84
4, 4985, Note_on_c, 1, 62, 0
4, 4985, Note_on_c, 1, 59, 0
4, 4992, Note_on_c, 1, 64, 76
4, 4992, Note_on_c, 1, 60, 76
4, 5037, Note_on_c, 1, 64, 0
4, 5037, Note_on_c, 1, 60, 0
4, 5040, Note_on_c, 1, 62, 73
4, 5040, Note_on_c, 1, 59, 73
4, 5085, Note_on_c, 1, 62, 0
4, 5085, Note_on_c, 1, 59, 0
4, 5088, Note_on_c, 1, 60, 69
4, 5088, Note_on_c, 1, 57, 69
4, 5133, Note_on_c, 1, 60, 0
4, 5133, Note_on_c, 1, 57, 0
4, 5136, Note_on_c, 1, 59, 65
4, 5136, Note_on_c, 1, 55, 65
4, 5181, Note_on_c, 1, 59, 0
4, 5181, Note_on_c, 1, 55, 0
4, 5184, Note_on_c, 1, 57, 62
4, 5184, Note_on_c, 1, 54, 62
4, 5229, Note_on_c, 1, 57, 0
4, 5229, Note_on_c, 1, 54, 0
4, 5232, Note_on_c, 1, 57, 65
4, 5232, Note_on_c, 1, 54, 65
4, 5277, Note_on_c, 1, 57, 0
4, 5277, Note_on_c, 1, 54, 0
4, 5280, Note_on_c, 1, 57, 69
4, 5280, Note_on_c, 1, 54, 69
4, 5325, Note_on_c, 1, 57, 0
4, 5325, Note_on_c, 1, 54, 0
4, 5328, Note_on_c, 1, 54, 73
4, 5461, Note_on_c, 1, 54, 0
4, 5472, Note_on_c, 1, 55, 84
4, 5517, Note_on_c, 1, 55, 0
4, 5520, Note_on_c, 1, 54, 84
4, 5565, Note_on_c, 1, 54, 0
4, 5568, Note_on_c, 1, 52, 84
4, 5613, Note_on_c, 1, 52, 0
4, 5616, Note_on_c, 1, 57, 84
4, 5749, Note_on_c, 1, 57, 0
4, 5808, Note_on_c, 1, 54, 70
4, 5808, Note_on_c, 1, 50, 70
4, 5856, Note_on_c, 1, 54, 0
4, 5856, Note_on_c, 1, 50, 0
4, 5856, Note_on_c, 1, 55, 71
4, 5856, Note_on_c, 1, 52, 71
4, 5876, Note_on_c, 1, 55, 0
4, 5876, Note_on_c, 1, 52, 0
4, 5952, Note_on_c, 1, 57, 74
4, 5952, Note_on_c, 1, 54, 74
4, 6000, Note_on_c, 1, 57, 0
4, 6000, Note_on_c, 1, 54, 0
4, 6000, Note_on_c, 1, 59, 75
4, 6000, Note_on_c, 1, 55, 75
4, 6020, Note_on_c, 1, 59, 0
4, 6020, Note_on_c, 1, 55, 0
4, 6096, Note_on_c, 1, 60, 75
4, 6096, Note_on_c, 1, 57, 75
4, 6144, Note_on_c, 1, 60, 0
4, 6144, Note_on_c, 1, 57, 0
4, 6144, Note_on_c, 1, 59, 74
4, 6144, Note_on_c, 1, 55, 74
4, 6164, Note_on_c, 1, 59, 0
4, 6164, Note_on_c, 1, 55, 0
4, 6240, Note_on_c, 1, 57, 72
4, 6240, Note_on_c, 1, 54, 72
4, 6288, Note_on_c, 1, 57, 0
4, 6288, Note_on_c, 1, 54, 0
4, 6288, Note_on_c, 1, 55, 71
4, 6288, Note_on_c, 1, 52, 71
4, 6308, Note_on_c, 1, 55, 0
4, 6308, Note_on_c, 1, 52, 0
4, 6336, Note_on_c, 1, 54, 70
4, 6336, Note_on_c, 1, 50, 70
4, 6381, Note_on_c, 1, 54, 0
4, 6381, Note_on_c, 1, 50, 0
4, 6432, Note_on_c, 1, 62, 55
4, 6452, Note_on_c, 1, 62, 0
4, 6480, Note_on_c, 1, 62, 74
4, 6500, Note_on_c, 1, 62, 0
4, 6576, Note_on_c, 1, 62, 64
4, 6596, Note_on_c, 1, 62, 0
4, 6624, Note_on_c, 1, 62, 83
4, 6644, Note_on_c, 1, 62, 0
4, 6720, Note_on_c, 1, 62, 74
4, 6740, Note_on_c, 1, 62, 0
4, 6816, Note_on_c, 1, 66, 80
4, 6861, Note_on_c, 1, 66, 0
4, 6864, Note_on_c, 1, 67, 84
4, 6909, Note_on_c, 1, 67, 0
4, 6912, Note_on_c, 1, 69, 84
4, 6912, Note_on_c, 1, 62, 84
4, 7193, Note_on_c, 1, 69, 0
4, 7193, Note_on_c, 1, 62, 0
4, 7200, Note_on_c, 1, 59, 78
4, 7200, Note_on_c, 1, 55, 78
4, 7296, Note_on_c, 1, 59, 0
4, 7296, Note_on_c, 1, 55, 0
4, 7296, Note_on_c, 1, 60, 62
4, 7296, Note_on_c, 1, 55, 62
4, 7316, Note_on_c, 1, 60, 0
4, 7316, Note_on_c, 1, 55, 0
4, 7344, Note_on_c, 1, 60, 62
4, 7344, Note_on_c, 1, 55, 62
4, 7433, Note_on_c, 1, 60, 0
4, 7433, Note_on_c, 1, 55, 0
4, 7440, Note_on_c, 1, 60, 62
4, 7440, Note_on_c, 1, 55, 62
4, 7460, Note_on_c, 1, 60, 0
4, 7460, Note_on_c, 1, 55, 0
4, 7488, Note_on_c, 1, 59, 62
4, 7488, Note_on_c, 1, 55, 62
4, 7508, Note_on_c, 1, 59, 0
4, 7508, Note_on_c, 1, 55, 0
4, 7536, Note_on_c, 1, 59, 62
4, 7536, Note_on_c, 1, 55, 62
4, 7556, Note_on_c, 1, 59, 0
4, 7556, Note_on_c, 1, 55, 0
4, 7584, Note_on_c, 1, 59, 62
4, 7584, Note_on_c, 1, 55, 62
4, 7604, Note_on_c, 1, 59, 0
4, 7604, Note_on_c, 1, 55, 0
4, 7632, Note_on_c, 1, 59, 62
4, 7632, Note_on_c, 1, 55, 62
4, 7721, Note_on_c, 1, 59, 0
4, 7721, Note_on_c, 1, 55, 0
4, 7728, Note_on_c, 1, 54, 62
4, 7748, Note_on_c, 1, 54, 0
4, 7776, Note_on_c, 1, 57, 62
4, 7788, Note_on_c, 1, 57, 0
4, 7788, Note_on_c, 1, 55, 62
4, 7821, Note_on_c, 1, 55, 0
4, 7824, Note_on_c, 1, 54, 64
4, 7869, Note_on_c, 1, 54, 0
4, 7872, Note_on_c, 1, 55, 67
4, 7917, Note_on_c, 1, 55, 0
4, 7920, Note_on_c, 1, 57, 70
4, 8009, Note_on_c, 1, 57, 0
4, 8016, Note_on_c, 1, 55, 64
4, 8036, Note_on_c, 1, 55, 0
4, 8064, Note_on_c, 1, 50, 70
4, 8112, Note_on_c, 1, 50, 0
4, 8112, Note_on_c, 1, 62, 72
4, 8157, Note_on_c, 1, 62, 0
4, 8160, Note_on_c, 1, 62, 74
4, 8180, Note_on_c, 1, 62, 0
4, 8208, Note_on_c, 1, 62, 93
4, 8256, Note_on_c, 1, 62, 0
4, 8256, Note_on_c, 1, 60, 74
4, 8301, Note_on_c, 1, 60, 0
4, 8304, Note_on_c, 1, 59, 72
4, 8324, Note_on_c, 1, 59, 0
4, 8352, Note_on_c, 1, 57, 70
4, 8441, Note_on_c, 1, 57, 0
4, 8448, Note_on_c, 1, 55, 70
4, 8493, Note_on_c, 1, 55, 0
4, 8496, Note_on_c, 1, 54, 70
4, 8541, Note_on_c, 1, 54, 0
4, 8544, Note_on_c, 1, 57, 72
4, 8589, Note_on_c, 1, 57, 0
4, 8592, Note_on_c, 1, 62, 74
4, 8637, Note_on_c, 1, 62, 0
4, 8640, Note_on_c, 1, 55, 77
4, 8773, Note_on_c, 1, 55, 0
4, 8784, Note_on_c, 1, 43, 77
4, 8829, Note_on_c, 1, 43, 0
4, 8832, Note_on_c, 1, 47, 77
4, 8877, Note_on_c, 1, 47, 0
4, 8880, Note_on_c, 1, 52, 77
4, 8925, Note_on_c, 1, 52, 0
4, 8928, Note_on_c, 1, 48, 77
4, 9061, Note_on_c, 1, 48, 0
4, 9072, Note_on_c, 1, 50, 73
4, 9205, Note_on_c, 1, 50, 0
4, 9216, Note_on_c, 1, 43, 70
4, 9261, Note_on_c, 1, 43, 0
4, 9264, Note_on_c, 1, 47, 70
4, 9309, Note_on_c, 1, 47, 0
4, 9312, Note_on_c, 1, 50, 70
4, 9357, Note_on_c, 1, 50, 0
4, 9360, Note_on_c, 1, 55, 70
4, 9449, Note_on_c, 1, 55, 0
4, 9456, Note_on_c, 1, 62, 77
4, 9456, Note_on_c, 1, 59, 77
4, 9476, Note_on_c, 1, 62, 0
4, 9476, Note_on_c, 1, 59, 0
4, 9504, Note_on_c, 1, 62, 84
4, 9504, Note_on_c, 1, 59, 84
4, 9593, Note_on_c, 1, 62, 0
4, 9593, Note_on_c, 1, 59, 0
4, 9600, Note_on_c, 1, 64, 76
4, 9600, Note_on_c, 1, 60, 76
4, 9645, Note_on_c, 1, 64, 0
4, 9645, Note_on_c, 1, 60, 0
4, 9648, Note_on_c, 1, 62, 73
4, 9648, Note_on_c, 1, 59, 73
4, 9693, Note_on_c, 1, 62, 0
4, 9693, Note_on_c, 1, 59, 0
4, 9696, Note_on_c, 1, 60, 69
4, 9696, Note_on_c, 1, 57, 69
4, 9741, Note_on_c, 1, 60, 0
4, 9741, Note_on_c, 1, 57, 0
4, 9744, Note_on_c, 1, 59, 65
4, 9744, Note_on_c, 1, 55, 65
4, 9789, Note_on_c, 1, 59, 0
4, 9789, Note_on_c, 1, 55, 0
4, 9792, Note_on_c, 1, 57, 62
4, 9792, Note_on_c, 1, 54, 62
4, 9837, Note_on_c, 1, 57, 0
4, 9837, Note_on_c, 1, 54, 0
4, 9840, Note_on_c, 1, 57, 65
4, 9840, Note_on_c, 1, 54, 65
4, 9885, Note_on_c, 1, 57, 0
4, 9885, Note_on_c, 1, 54, 0
4, 9888, Note_on_c, 1, 57, 69
4, 9888, Note_on_c, 1, 54, 69
4, 9933, Note_on_c, 1, 57, 0
4, 9933, Note_on_c, 1, 54, 0
4, 9936, Note_on_c, 1, 54, 73
4, 10069, Note_on_c, 1, 54, 0
4, 10080, Note_on_c, 1, 55, 84
4, 10125, Note_on_c, 1, 55, 0
4, 10128, Note_on_c, 1, 54, 84
4, 10173, Note_on_c, 1, 54, 0
4, 10176, Note_on_c, 1, 52, 84
4, 10221, Note_on_c, 1, 52, 0
4, 10224, Note_on_c, 1, 57, 84
4, 10357, Note_on_c, 1, 57, 0
4, 10416, Note_on_c, 1, 54, 70
4, 10416, Note_on_c, 1, 50, 70
4, 10464, Note_on_c, 1, 54, 0
4, 10464, Note_on_c, 1, 50, 0
4, 10464, Note_on_c, 1, 55, 71
4, 10464, Note_on_c, 1, 52, 71
4, 10484, Note_on_c, 1, 55, 0
4, 10484, Note_on_c, 1, 52, 0
4, 10560, Note_on_c, 1, 57, 74
4, 10560, Note_on_c, 1, 54, 74
4, 10608, Note_on_c, 1, 57, 0
4, 10608, Note_on_c, 1, 54, 0
4, 10608, Note_on_c, 1, 59, 75
4, 10608, Note_on_c, 1, 55, 75
4, 10628, Note_on_c, 1, 59, 0
4, 10628, Note_on_c, 1, 55, 0
4, 10704, Note_on_c, 1, 60, 75
4, 10704, Note_on_c, 1, 57, 75
4, 10752, Note_on_c, 1, 60, 0
4, 10752, Note_on_c, 1, 57, 0
4, 10752, Note_on_c, 1, 59, 74
4, 10752, Note_on_c, 1, 55, 74
4, 10772, Note_on_c, 1, 59, 0
4, 10772, Note_on_c, 1, 55, 0
4, 10848, Note_on_c, 1, 57, 72
4, 10848, Note_on_c, 1, 54, 72
4, 10896, Note_on_c, 1, 57, 0
4, 10896, Note_on_c, 1, 54, 0
4, 10896, Note_on_c, 1, 55, 71
4, 10896, Note_on_c, 1, 52, 71
4, 10916, Note_on_c, 1, 55, 0
4, 10916, Note_on_c, 1, 52, 0
4, 10944, Note_on_c, 1, 54, 70
4, 10944, Note_on_c, 1, 50, 70
4, 10989, Note_on_c, 1, 54, 0
4, 10989, Note_on_c, 1, 50, 0
4, 11040, Note_on_c, 1, 62, 55
4, 11060, Note_on_c, 1, 62, 0
4, 11088, Note_on_c, 1, 62, 74
4, 11108, Note_on_c, 1, 62, 0
4, 11184, Note_on_c, 1, 62, 64
4, 11204, Note_on_c, 1, 62, 0
4, 11232, Note_on_c, 1, 62, 83
4, 11252, Note_on_c, 1, 62, 0
4, 11328, Note_on_c, 1, 62, 74
4, 11348, Note_on_c, 1, 62, 0
4, 11424, Note_on_c, 1, 66, 80
4, 11469, Note_on_c, 1, 66, 0
4, 11472, Note_on_c, 1, 67, 84
4, 11517, Note_on_c, 1, 67, 0
4, 11520, Note_on_c, 1, 69, 84
4, 11520, Note_on_c, 1, 62, 84
4, 11801, Note_on_c, 1, 69, 0
4, 11801, Note_on_c, 1, 62, 0
4, 11808, Note_on_c, 1, 59, 78
4, 11808, Note_on_c, 1, 55, 78
4, 11904, Note_on_c, 1, 59, 0
4, 11904, Note_on_c, 1, 55, 0
4, 11904, Note_on_c, 1, 60, 62
4, 11904, Note_on_c, 1, 55, 62
4, 11924, Note_on_c, 1, 60, 0
4, 11924, Note_on_c, 1, 55, 0
4, 11952, Note_on_c, 1, 60, 62
4, 11952, Note_on_c, 1, 55, 62
4, 12041, Note_on_c, 1, 60, 0
4, 12041, Note_on_c, 1, 55, 0
4, 12048, Note_on_c, 1, 60, 62
4, 12048, Note_on_c, 1, 55, 62
4, 12068, Note_on_c, 1, 60, 0
4, 12068, Note_on_c, 1, 55, 0
4, 12096, Note_on_c, 1, 59, 62
4, 12096, Note_on_c, 1, 55, 62
4, 12116, Note_on_c, 1, 59, 0
4, 12116, Note_on_c, 1, 55, 0
4, 12144, Note_on_c, 1, 59, 62
4, 12144, Note_on_c, 1, 55, 62
4, 12164, Note_on_c, 1, 59, 0
4, 12164, Note_on_c, 1, 55, 0
4, 12192, Note_on_c, 1, 59, 62
4, 12192, Note_on_c, 1, 55, 62
4, 12212, Note_on_c, 1, 59, 0
4, 12212, Note_on_c, 1, 55, 0
4, 12240, Note_on_c, 1, 59, 62
4, 12240, Note_on_c, 1, 55, 62
4, 12329, Note_on_c, 1, 59, 0
4, 12329, Note_on_c, 1, 55, 0
4, 12336, Note_on_c, 1, 54, 62
4, 12356, Note_on_c, 1, 54, 0
4, 12384, Note_on_c, 1, 57, 62
4, 12396, Note_on_c, 1, 57, 0
4, 12396, Note_on_c, 1, 55, 62
4, 12429, Note_on_c, 1, 55, 0
4, 12432, Note_on_c, 1, 54, 64
4, 12477, Note_on_c, 1, 54, 0
4, 12480, Note_on_c, 1, 55, 67
4, 12525, Note_on_c, 1, 55, 0
4, 12528, Note_on_c, 1, 57, 70
4, 12617, Note_on_c, 1, 57, 0
4, 12624, Note_on_c, 1, 55, 64
4, 12644, Note_on_c, 1, 55, 0
4, 12672, Note_on_c, 1, 50, 70
4, 12720, Note_on_c, 1, 50, 0
4, 12720, Note_on_c, 1, 62, 72
4, 12765, Note_on_c, 1, 62, 0
4, 12768, Note_on_c, 1, 62, 74
4, 12788, Note_on_c, 1, 62, 0
4, 12816, Note_on_c, 1, 62, 93
4, 12864, Note_on_c, 1, 62, 0
4, 12864, Note_on_c, 1, 60, 74
4, 12909, Note_on_c, 1, 60, 0
4, 12912, Note_on_c, 1, 59, 72
4, 12932, Note_on_c, 1, 59, 0
4, 12960, Note_on_c, 1, 57, 70
4, 13049, Note_on_c, 1, 57, 0
4, 13056, Note_on_c, 1, 55, 70
4, 13101, Note_on_c, 1, 55, 0
4, 13104, Note_on_c, 1, 54, 70
4, 13149, Note_on_c, 1, 54, 0
4, 13152, Note_on_c, 1, 57, 72
4, 13197, Note_on_c, 1, 57, 0
4, 13200, Note_on_c, 1, 62, 74
4, 13245, Note_on_c, 1, 62, 0
4, 13248, Note_on_c, 1, 55, 77
4, 13381, Note_on_c, 1, 55, 0
4, 13392, Note_on_c, 1, 43, 77
4, 13437, Note_on_c, 1, 43, 0
4, 13440, Note_on_c, 1, 47, 77
4, 13485, Note_on_c, 1, 47, 0
4, 13488, Note_on_c, 1, 52, 77
4, 13533, Note_on_c, 1, 52, 0
4, 13536, Note_on_c, 1, 48, 77
4, 13669, Note_on_c, 1, 48, 0
4, 13680, Note_on_c, 1, 50, 73
4, 13813, Note_on_c, 1, 50, 0
4, 13824, Note_on_c, 1, 43, 70
4, 13869, Note_on_c, 1, 43, 0
4, 13872, Note_on_c, 1, 47, 70
4, 13917, Note_on_c, 1, 47, 0
4, 13920, Note_on_c, 1, 50, 70
4, 13965, Note_on_c, 1, 50, 0
4, 13968, Note_on_c, 1, 55, 70
4, 14039, Note_on_c, 1, 55, 0
4, 14160, Note_on_c, 1, 58, 64
4, 14160, Note_on_c, 1, 55, 64
4, 14180, Note_on_c, 1, 58, 0
4, 14180, Note_on_c, 1, 55, 0
4, 14304, Note_on_c, 1, 60, 71
4, 14304, Note_on_c, 1, 55, 71
4, 14324, Note_on_c, 1, 60, 0
4, 14324, Note_on_c, 1, 55, 0
4, 14448, Note_on_c, 1, 60, 79
4, 14448, Note_on_c, 1, 55, 79
4, 14468, Note_on_c, 1, 60, 0
4, 14468, Note_on_c, 1, 55, 0
4, 14592, Note_on_c, 1, 58, 84
4, 14592, Note_on_c, 1, 55, 84
4, 14612, Note_on_c, 1, 58, 0
4, 14612, Note_on_c, 1, 55, 0
4, 14640, Note_on_c, 1, 64, 84
4, 14640, Note_on_c, 1, 55, 84
4, 14685, Note_on_c, 1, 64, 0
4, 14685, Note_on_c, 1, 55, 0
4, 14688, Note_on_c, 1, 65, 78
4, 14688, Note_on_c, 1, 53, 78
4, 14784, Note_on_c, 1, 65, 0
4, 14784, Note_on_c, 1, 53, 0
4, 14784, Note_on_c, 1, 64, 84
4, 14784, Note_on_c, 1, 55, 84
4, 14829, Note_on_c, 1, 64, 0
4, 14829, Note_on_c, 1, 55, 0
4, 14832, Note_on_c, 1, 65, 78
4, 14832, Note_on_c, 1, 53, 78
4, 14928, Note_on_c, 1, 65, 0
4, 14928, Note_on_c, 1, 53, 0
4, 14928, Note_on_c, 1, 65, 84
4, 14928, Note_on_c, 1, 62, 84
4, 14928, Note_on_c, 1, 58, 84
4, 14973, Note_on_c, 1, 65, 0
4, 14973, Note_on_c, 1, 62, 0
4, 14973, Note_on_c, 1, 58, 0
4, 14976, Note_on_c, 1, 65, 78
4, 14976, Note_on_c, 1, 62, 78
4, 14976, Note_on_c, 1, 57, 78
4, 15120, Note_on_c, 1, 65, 0
4, 15120, Note_on_c, 1, 62, 0
4, 15120, Note_on_c, 1, 57, 0
4, 15120, Note_on_c, 1, 65, 84
4, 15120, Note_on_c, 1, 62, 84
4, 15120, Note_on_c, 1, 56, 84
4, 15253, Note_on_c, 1, 65, 0
4, 15253, Note_on_c, 1, 62, 0
4, 15253, Note_on_c, 1, 56, 0
4, 15264, Note_on_c, 1, 65, 62
4, 15264, Note_on_c, 1, 62, 62
4, 15264, Note_on_c, 1, 57, 62
4, 15353, Note_on_c, 1, 65, 0
4, 15353, Note_on_c, 1, 62, 0
4, 15353, Note_on_c, 1, 57, 0
4, 15456, Note_on_c, 1, 67, 62
4, 15476, Note_on_c, 1, 67, 0
4, 15504, Note_on_c, 1, 67, 62
4, 15524, Note_on_c, 1, 67, 0
4, 15552, Note_on_c, 1, 67, 62
4, 15597, Note_on_c, 1, 67, 0
4, 15600, Note_on_c, 1, 65, 62
4, 15645, Note_on_c, 1, 65, 0
4, 15648, Note_on_c, 1, 64, 62
4, 15693, Note_on_c, 1, 64, 0
4, 15696, Note_on_c, 1, 62, 62
4, 15741, Note_on_c, 1, 62, 0
4, 15888, Note_on_c, 1, 58, 64
4, 15888, Note_on_c, 1, 55, 64
4, 15908, Note_on_c, 1, 58, 0
4, 15908, Note_on_c, 1, 55, 0
4, 16032, Note_on_c, 1, 60, 71
4, 16032, Note_on_c, 1, 55, 71
4, 16052, Note_on_c, 1, 60, 0
4, 16052, Note_on_c, 1, 55, 0
4, 16176, Note_on_c, 1, 60, 79
4, 16176, Note_on_c, 1, 55, 79
4, 16196, Note_on_c, 1, 60, 0
4, 16196, Note_on_c, 1, 55, 0
4, 16320, Note_on_c, 1, 58, 84
4, 16320, Note_on_c, 1, 55, 84
4, 16340, Note_on_c, 1, 58, 0
4, 16340, Note_on_c, 1, 55, 0
4, 16368, Note_on_c, 1, 64, 84
4, 16368, Note_on_c, 1, 55, 84
4, 16413, Note_on_c, 1, 64, 0
4, 16413, Note_on_c, 1, 55, 0
4, 16416, Note_on_c, 1, 65, 78
4, 16416, Note_on_c, 1, 53, 78
4, 16512, Note_on_c, 1, 65, 0
4, 16512, Note_on_c, 1, 53, 0
4, 16512, Note_on_c, 1, 64, 84
4, 16512, Note_on_c, 1, 55, 84
4, 16557, Note_on_c, 1, 64, 0
4, 16557, Note_on_c, 1, 55, 0
4, 16560, Note_on_c, 1, 65, 78
4, 16560, Note_on_c, 1, 53, 78
4, 16656, Note_on_c, 1, 65, 0
4, 16656, Note_on_c, 1, 53, 0
4, 16656, Note_on_c, 1, 65, 84
4, 16656, Note_on_c, 1, 62, 84
4, 16656, Note_on_c, 1, 58, 84
4, 16701, Note_on_c, 1, 65, 0
4, 16701, Note_on_c, 1, 62, 0
4, 16701, Note_on_c, 1, 58, 0
4, 16704, Note_on_c, 1, 65, 78
4, 16704, Note_on_c, 1, 62, 78
4, 16704, Note_on_c, 1, 57, 78
4, 16848, Note_on_c, 1, 65, 0
4, 16848, Note_on_c, 1, 62, 0
4, 16848, Note_on_c, 1, 57, 0
4, 16848, Note_on_c, 1, 65, 84
4, 16848, Note_on_c, 1, 62, 84
4, 16848, Note_on_c, 1, 56, 84
4, 16981, Note_on_c, 1, 65, 0
4, 16981, Note_on_c, 1, 62, 0
4, 16981, Note_on_c, 1, 56, 0
4, 16992, Note_on_c, 1, 65, 62
4, 16992, Note_on_c, 1, 62, 62
4, 16992, Note_on_c, 1, 57, 62
4, 17081, Note_on_c, 1, 65, 0
4, 17081, Note_on_c, 1, 62, 0
4, 17081, Note_on_c, 1, 57, 0
4, 17184, Note_on_c, 1, 67, 62
4, 17204, Note_on_c, 1, 67, 0
4, 17232, Note_on_c, 1, 67, 62
4, 17252, Note_on_c, 1, 67, 0
4, 17280, Note_on_c, 1, 67, 62
4, 17325, Note_on_c, 1, 67, 0
4, 17328, Note_on_c, 1, 65, 62
4, 17373, Note_on_c, 1, 65, 0
4, 17376, Note_on_c, 1, 64, 62
4, 17421, Note_on_c, 1, 64, 0
4, 17424, Note_on_c, 1, 62, 62
4, 17469, Note_on_c, 1, 62, 0
4, 17616, Note_on_c, 1, 62, 62
4, 17616, Note_on_c, 1, 58, 62
4, 17636, Note_on_c, 1, 62, 0
4, 17636, Note_on_c, 1, 58, 0
4, 17760, Note_on_c, 1, 63, 62
4, 17760, Note_on_c, 1, 57, 62
4, 17780, Note_on_c, 1, 63, 0
4, 17780, Note_on_c, 1, 57, 0
4, 17904, Note_on_c, 1, 58, 62
4, 17904, Note_on_c, 1, 55, 62
4, 17924, Note_on_c, 1, 58, 0
4, 17924, Note_on_c, 1, 55, 0
4, 18048, Note_on_c, 1, 50, 62
4, 18048, Note_on_c, 1, 38, 62
4, 18068, Note_on_c, 1, 50, 0
4, 18068, Note_on_c, 1, 38, 0
4, 18096, Note_on_c, 1, 62, 84
4, 18096, Note_on_c, 1, 58, 84
4, 18141, Note_on_c, 1, 62, 0
4, 18141, Note_on_c, 1, 58, 0
4, 18144, Note_on_c, 1, 63, 62
4, 18144, Note_on_c, 1, 60, 62
4, 18233, Note_on_c, 1, 63, 0
4, 18233, Note_on_c, 1, 60, 0
4, 18240, Note_on_c, 1, 62, 84
4, 18240, Note_on_c, 1, 58, 84
4, 18285, Note_on_c, 1, 62, 0
4, 18285, Note_on_c, 1, 58, 0
4, 18288, Note_on_c, 1, 63, 62
4, 18288, Note_on_c, 1, 60, 62
4, 18377, Note_on_c, 1, 63, 0
4, 18377, Note_on_c, 1, 60, 0
4, 18384, Note_on_c, 1, 62, 84
4, 18384, Note_on_c, 1, 58, 84
4, 18429, Note_on_c, 1, 62, 0
4, 18429, Note_on_c, 1, 58, 0
4, 18432, Note_on_c, 1, 54, 84
4, 18438, Note_on_c, 1, 57, 84
4, 18444, Note_on_c, 1, 60, 84
4, 18450, Note_on_c, 1, 63, 84
4, 18569, Note_on_c, 1, 63, 0
4, 18569, Note_on_c, 1, 60, 0
4, 18569, Note_on_c, 1, 57, 0
4, 18569, Note_on_c, 1, 54, 0
4, 18576, Note_on_c, 1, 55, 84
4, 18709, Note_on_c, 1, 55, 0
4, 18768, Note_on_c, 1, 72, 77
4, 18813, Note_on_c, 1, 72, 0
4, 18816, Note_on_c, 1, 72, 76
4, 18909, Note_on_c, 1, 72, 0
4, 18912, Note_on_c, 1, 70, 73
4, 18957, Note_on_c, 1, 70, 0
4, 18960, Note_on_c, 1, 69, 71
4, 19005, Note_on_c, 1, 69, 0
4, 19008, Note_on_c, 1, 69, 62
4, 19008, Note_on_c, 1, 55, 62
4, 19152, Note_on_c, 1, 69, 0
4, 19152, Note_on_c, 1, 67, 62
4, 19199, Note_on_c, 1, 67, 0
4, 19199, Note_on_c, 1, 55, 0
4, 19344, Note_on_c, 1, 62, 62
4, 19344, Note_on_c, 1, 58, 62
4, 19364, Note_on_c, 1, 62, 0
4, 19364, Note_on_c, 1, 58, 0
4, 19488, Note_on_c, 1, 63, 62
4, 19488, Note_on_c, 1, 57, 62
4, 19508, Note_on_c, 1, 63, 0
4, 19508, Note_on_c, 1, 57, 0
4, 19632, Note_on_c, 1, 58, 62
4, 19632, Note_on_c, 1, 55, 62
4, 19652, Note_on_c, 1, 58, 0
4, 19652, Note_on_c, 1, 55, 0
4, 19776, Note_on_c, 1, 50, 62
4, 19776, Note_on_c, 1, 38, 62
4, 19796, Note_on_c, 1, 50, 0
4, 19796, Note_on_c, 1, 38, 0
4, 19824, Note_on_c, 1, 62, 84
4, 19824, Note_on_c, 1, 58, 84
4, 19869, Note_on_c, 1, 62, 0
4, 19869, Note_on_c, 1, 58, 0
4, 19872, Note_on_c, 1, 63, 62
4, 19872, Note_on_c, 1, 60, 62
4, 19961, Note_on_c, 1, 63, 0
4, 19961, Note_on_c, 1, 60, 0
4, 19968, Note_on_c, 1, 62, 84
4, 19968, Note_on_c, 1, 58, 84
4, 20013, Note_on_c, 1, 62, 0
4, 20013, Note_on_c, 1, 58, 0
4, 20016, Note_on_c, 1, 63, 62
4, 20016, Note_on_c, 1, 60, 62
4, 20105, Note_on_c, 1, 63, 0
4, 20105, Note_on_c, 1, 60, 0
4, 20112, Note_on_c, 1, 62, 84
4, 20112, Note_on_c, 1, 58, 84
4, 20157, Note_on_c, 1, 62, 0
4, 20157, Note_on_c, 1, 58, 0
4, 20160, Note_on_c, 1, 54, 84
4, 20166, Note_on_c, 1, 57, 84
4, 20172, Note_on_c, 1, 60, 84
4, 20178, Note_on_c, 1, 63, 84
4, 20297, Note_on_c, 1, 63, 0
4, 20297, Note_on_c, 1, 60, 0
4, 20297, Note_on_c, 1, 57, 0
4, 20297, Note_on_c, 1, 54, 0
4, 20304, Note_on_c, 1, 55, 84
4, 20437, Note_on_c, 1, 55, 0
4, 20496, Note_on_c, 1, 72, 77
4, 20541, Note_on_c, 1, 72, 0
4, 20544, Note_on_c, 1, 72, 76
4, 20637, Note_on_c, 1, 72, 0
4, 20640, Note_on_c, 1, 70, 73
4, 20685, Note_on_c, 1, 70, 0
4, 20688, Note_on_c, 1, 69, 71
4, 20733, Note_on_c, 1, 69, 0
4, 20736, Note_on_c, 1, 69, 62
4, 20736, Note_on_c, 1, 55, 62
4, 20880, Note_on_c, 1, 69, 0
4, 20880, Note_on_c, 1, 67, 62
4, 20927, Note_on_c, 1, 67, 0
4, 20927, Note_on_c, 1, 55, 0
4, 20976, Note_on_c, 1, 59, 62
4, 20976, Note_on_c, 1, 55, 62
4, 20996, Note_on_c, 1, 59, 0
4, 20996, Note_on_c, 1, 55, 0
4, 21024, Note_on_c, 1, 59, 62
4, 21024, Note_on_c, 1, 55, 62
4, 21113, Note_on_c, 1, 59, 0
4, 21113, Note_on_c, 1, 55, 0
4, 21120, Note_on_c, 1, 60, 62
4, 21120, Note_on_c, 1, 55, 62
4, 21140, Note_on_c, 1, 60, 0
4, 21140, Note_on_c, 1, 55, 0
4, 21168, Note_on_c, 1, 60, 62
4, 21168, Note_on_c, 1, 55, 62
4, 21257, Note_on_c, 1, 60, 0
4, 21257, Note_on_c, 1, 55, 0
4, 21264, Note_on_c, 1, 60, 62
4, 21264, Note_on_c, 1, 55, 62
4, 21284, Note_on_c, 1, 60, 0
4, 21284, Note_on_c, 1, 55, 0
4, 21312, Note_on_c, 1, 59, 62
4, 21335, Note_on_c, 1, 59, 0
4, 21336, Note_on_c, 1, 58, 67
4, 21359, Note_on_c, 1, 58, 0
4, 21360, Note_on_c, 1, 59, 72
4, 21383, Note_on_c, 1, 59, 0
4, 21384, Note_on_c, 1, 58, 77
4, 21407, Note_on_c, 1, 58, 0
4, 21408, Note_on_c, 1, 59, 72
4, 21431, Note_on_c, 1, 59, 0
4, 21432, Note_on_c, 1, 58, 67
4, 21455, Note_on_c, 1, 58, 0
4, 21456, Note_on_c, 1, 59, 62
4, 21545, Note_on_c, 1, 59, 0
4, 21552, Note_on_c, 1, 54, 62
4, 21572, Note_on_c, 1, 54, 0
4, 21600, Note_on_c, 1, 57, 62
4, 21606, Note_on_c, 1, 57, 0
4, 21606, Note_on_c, 1, 55, 62
4, 21623, Note_on_c, 1, 55, 0
4, 21624, Note_on_c, 1, 54, 63
4, 21647, Note_on_c, 1, 54, 0
4, 21648, Note_on_c, 1, 55, 64
4, 21671, Note_on_c, 1, 55, 0
4, 21672, Note_on_c, 1, 54, 66
4, 21695, Note_on_c, 1, 54, 0
4, 21696, Note_on_c, 1, 55, 67
4, 21719, Note_on_c, 1, 55, 0
4, 21720, Note_on_c, 1, 59, 68
4, 21743, Note_on_c, 1, 59, 0
4, 21744, Note_on_c, 1, 57, 70
4, 21833, Note_on_c, 1, 57, 0
4, 21840, Note_on_c, 1, 55, 70
4, 21860, Note_on_c, 1, 55, 0
4, 21888, Note_on_c, 1, 50, 70
4, 21911, Note_on_c, 1, 50, 0
4, 21912, Note_on_c, 1, 61, 70
4, 21935, Note_on_c, 1, 61, 0
4, 21936, Note_on_c, 1, 62, 70
4, 21959, Note_on_c, 1, 62, 0
4, 21960, Note_on_c, 1, 61, 70
4, 21983, Note_on_c, 1, 61, 0
4, 21984, Note_on_c, 1, 62, 70
4, 22007, Note_on_c, 1, 62, 0
4, 22008, Note_on_c, 1, 61, 70
4, 22031, Note_on_c, 1, 61, 0
4, 22032, Note_on_c, 1, 62, 70
4, 22055, Note_on_c, 1, 62, 0
4, 22056, Note_on_c, 1, 64, 70
4, 22079, Note_on_c, 1, 64, 0
4, 22080, Note_on_c, 1, 60, 70
4, 22103, Note_on_c, 1, 60, 0
4, 22104, Note_on_c, 1, 62, 70
4, 22127, Note_on_c, 1, 62, 0
4, 22128, Note_on_c, 1, 59, 70
4, 22151, Note_on_c, 1, 59, 0
4, 22152, Note_on_c, 1, 60, 70
4, 22175, Note_on_c, 1, 60, 0
4, 22176, Note_on_c, 1, 57, 70
4, 22199, Note_on_c, 1, 57, 0
4, 22200, Note_on_c, 1, 64, 70
4, 22223, Note_on_c, 1, 64, 0
4, 22224, Note_on_c, 1, 60, 70
4, 22247, Note_on_c, 1, 60, 0
4, 22248, Note_on_c, 1, 59, 70
4, 22271, Note_on_c, 1, 59, 0
4, 22272, Note_on_c, 1, 57, 70
4, 22295, Note_on_c, 1, 57, 0
4, 22296, Note_on_c, 1, 55, 70
4, 22319, Note_on_c, 1, 55, 0
4, 22320, Note_on_c, 1, 54, 70
4, 22343, Note_on_c, 1, 54, 0
4, 22344, Note_on_c, 1, 57, 70
4, 22367, Note_on_c, 1, 57, 0
4, 22368, Note_on_c, 1, 60, 70
4, 22391, Note_on_c, 1, 60, 0
4, 22392, Note_on_c, 1, 62, 70
4, 22415, Note_on_c, 1, 62, 0
4, 22416, Note_on_c, 1, 64, 70
4, 22439, Note_on_c, 1, 64, 0
4, 22440, Note_on_c, 1, 66, 70
4, 22463, Note_on_c, 1, 66, 0
4, 22464, Note_on_c, 1, 67, 70
4, 22553, Note_on_c, 1, 67, 0
4, 22560, Note_on_c, 1, 65, 71
4, 22605, Note_on_c, 1, 65, 0
4, 22608, Note_on_c, 1, 64, 72
4, 22631, Note_on_c, 1, 64, 0
4, 22632, Note_on_c, 1, 67, 72
4, 22655, Note_on_c, 1, 67, 0
4, 22656, Note_on_c, 1, 62, 73
4, 22679, Note_on_c, 1, 62, 0
4, 22680, Note_on_c, 1, 65, 73
4, 22703, Note_on_c, 1, 65, 0
4, 22704, Note_on_c, 1, 60, 73
4, 22727, Note_on_c, 1, 60, 0
4, 22728, Note_on_c, 1, 64, 74
4, 22751, Note_on_c, 1, 64, 0
4, 22752, Note_on_c, 1, 59, 74
4, 22775, Note_on_c, 1, 59, 0
4, 22776, Note_on_c, 1, 62, 75
4, 22799, Note_on_c, 1, 62, 0
4, 22800, Note_on_c, 1, 55, 75
4, 22823, Note_on_c, 1, 55, 0
4, 22824, Note_on_c, 1, 59, 75
4, 22847, Note_on_c, 1, 59, 0
4, 22848, Note_on_c, 1, 54, 76
4, 22871, Note_on_c, 1, 54, 0
4, 22872, Note_on_c, 1, 57, 76
4, 22895, Note_on_c, 1, 57, 0
4, 22896, Note_on_c, 1, 52, 77
4, 22919, Note_on_c, 1, 52, 0
4, 22920, Note_on_c, 1, 55, 75
4, 22943, Note_on_c, 1, 55, 0
4, 22944, Note_on_c, 1, 57, 74
4, 22967, Note_on_c, 1, 57, 0
4, 22968, Note_on_c, 1, 61, 72
4, 22991, Note_on_c, 1, 61, 0
4, 22992, Note_on_c, 1, 64, 71
4, 23015, Note_on_c, 1, 64, 0
4, 23016, Note_on_c, 1, 67, 69
4, 23040, Note_on_c, 1, 62, 68
4, 23088, Note_on_c, 1, 67, 0
4, 23088, Note_on_c, 1, 66, 65
4, 23133, Note_on_c, 1, 66, 0
4, 23133, Note_on_c, 1, 62, 0
4, 23136, Note_on_c, 1, 66, 62
4, 23136, Note_on_c, 1, 62, 62
4, 23156, Note_on_c, 1, 66, 0
4, 23156, Note_on_c, 1, 62, 0
4, 23184, Note_on_c, 1, 66, 62
4, 23184, Note_on_c, 1, 62, 62
4, 23273, Note_on_c, 1, 66, 0
4, 23273, Note_on_c, 1, 62, 0
4, 23328, Note_on_c, 1, 59, 62
4, 23328, Note_on_c, 1, 55, 62
4, 23417, Note_on_c, 1, 59, 0
4, 23417, Note_on_c, 1, 55, 0
4, 23424, Note_on_c, 1, 60, 62
4, 23424, Note_on_c, 1, 55, 62
4, 23444, Note_on_c, 1, 60, 0
4, 23444, Note_on_c, 1, 55, 0
4, 23472, Note_on_c, 1, 60, 62
4, 23472, Note_on_c, 1, 55, 62
4, 23561, Note_on_c, 1, 60, 0
4, 23561, Note_on_c, 1, 55, 0
4, 23568, Note_on_c, 1, 60, 62
4, 23568, Note_on_c, 1, 55, 62
4, 23588, Note_on_c, 1, 60, 0
4, 23588, Note_on_c, 1, 55, 0
4, 23616, Note_on_c, 1, 59, 62
4, 23639, Note_on_c, 1, 59, 0
4, 23640, Note_on_c, 1, 58, 67
4, 23663, Note_on_c, 1, 58, 0
4, 23664, Note_on_c, 1, 59, 72
4, 23687, Note_on_c, 1, 59, 0
4, 23688, Note_on_c, 1, 58, 77
4, 23711, Note_on_c, 1, 58, 0
4, 23712, Note_on_c, 1, 59, 72
4, 23735, Note_on_c, 1, 59, 0
4, 23736, Note_on_c, 1, 58, 67
4, 23759, Note_on_c, 1, 58, 0
4, 23760, Note_on_c, 1, 59, 62
4, 23849, Note_on_c, 1, 59, 0
4, 23856, Note_on_c, 1, 54, 62
4, 23876, Note_on_c, 1, 54, 0
4, 23904, Note_on_c, 1, 57, 62
4, 23910, Note_on_c, 1, 57, 0
4, 23910, Note_on_c, 1, 55, 62
4, 23927, Note_on_c, 1, 55, 0
4, 23928, Note_on_c, 1, 54, 63
4, 23951, Note_on_c, 1, 54, 0
4, 23952, Note_on_c, 1, 55, 64
4, 23975, Note_on_c, 1, 55, 0
4, 23976, Note_on_c, 1, 54, 66
4, 23999, Note_on_c, 1, 54, 0
4, 24000, Note_on_c, 1, 55, 67
4, 24023, Note_on_c, 1, 55, 0
4, 24024, Note_on_c, 1, 59, 68
4, 24047, Note_on_c, 1, 59, 0
4, 24048, Note_on_c, 1, 57, 70
4, 24137, Note_on_c, 1, 57, 0
4, 24144, Note_on_c, 1, 55, 70
4, 24164, Note_on_c, 1, 55, 0
4, 24192, Note_on_c, 1, 50, 70
4, 24215, Note_on_c, 1, 50, 0
4, 24216, Note_on_c, 1, 61, 70
4, 24239, Note_on_c, 1, 61, 0
4, 24240, Note_on_c, 1, 62, 70
4, 24263, Note_on_c, 1, 62, 0
4, 24264, Note_on_c, 1, 61, 70
4, 24287, Note_on_c, 1, 61, 0
4, 24288, Note_on_c, 1, 62, 70
4, 24311, Note_on_c, 1, 62, 0
4, 24312, Note_on_c, 1, 61, 70
4, 24335, Note_on_c, 1, 61, 0
4, 24336, Note_on_c, 1, 62, 70
4, 24359, Note_on_c, 1, 62, 0
4, 24360, Note_on_c, 1, 64, 70
4, 24383, Note_on_c, 1, 64, 0
4, 24384, Note_on_c, 1, 60, 70
4, 24407, Note_on_c, 1, 60, 0
4, 24408, Note_on_c, 1, 62, 70
4, 24431, Note_on_c, 1, 62, 0
4, 24432, Note_on_c, 1, 59, 70
4, 24455, Note_on_c, 1, 59, 0
4, 24456, Note_on_c, 1, 60, 70
4, 24479, Note_on_c, 1, 60, 0
4, 24480, Note_on_c, 1, 57, 70
4, 24503, Note_on_c, 1, 57, 0
4, 24504, Note_on_c, 1, 64, 70
4, 24527, Note_on_c, 1, 64, 0
4, 24528, Note_on_c, 1, 60, 70
4, 24551, Note_on_c, 1, 60, 0
4, 24552, Note_on_c, 1, 59, 70
4, 24575, Note_on_c, 1, 59, 0
4, 24576, Note_on_c, 1, 57, 70
4, 24599, Note_on_c, 1, 57, 0
4, 24600, Note_on_c, 1, 55, 70
4, 24623, Note_on_c, 1, 55, 0
4, 24624, Note_on_c, 1, 54, 70
4, 24647, Note_on_c, 1, 54, 0
4, 24648, Note_on_c, 1, 57, 70
4, 24671, Note_on_c, 1, 57, 0
4, 24672, Note_on_c, 1, 60, 70
4, 24695, Note_on_c, 1, 60, 0
4, 24696, Note_on_c, 1, 62, 70
4, 24719, Note_on_c, 1, 62, 0
4, 24720, Note_on_c, 1, 64, 70
4, 24743, Note_on_c, 1, 64, 0
4, 24744, Note_on_c, 1, 66, 70
4, 24767, Note_on_c, 1, 66, 0
4, 24768, Note_on_c, 1, 67, 70
4, 24857, Note_on_c, 1, 67, 0
4, 24864, Note_on_c, 1, 65, 71
4, 24909, Note_on_c, 1, 65, 0
4, 24912, Note_on_c, 1, 64, 72
4, 24935, Note_on_c, 1, 64, 0
4, 24936, Note_on_c, 1, 67, 72
4, 24959, Note_on_c, 1, 67, 0
4, 24960, Note_on_c, 1, 62, 73
4, 24983, Note_on_c, 1, 62, 0
4, 24984, Note_on_c, 1, 65, 73
4, 25007, Note_on_c, 1, 65, 0
4, 25008, Note_on_c, 1, 60, 73
4, 25031, Note_on_c, 1, 60, 0
4, 25032, Note_on_c, 1, 64, 74
4, 25055, Note_on_c, 1, 64, 0
4, 25056, Note_on_c, 1, 59, 74
4, 25079, Note_on_c, 1, 59, 0
4, 25080, Note_on_c, 1, 62, 75
4, 25103, Note_on_c, 1, 62, 0
4, 25104, Note_on_c, 1, 55, 75
4, 25127, Note_on_c, 1, 55, 0
4, 25128, Note_on_c, 1, 59, 75
4, 25151, Note_on_c, 1, 59, 0
4, 25152, Note_on_c, 1, 54, 76
4, 25175, Note_on_c, 1, 54, 0
4, 25176, Note_on_c, 1, 57, 76
4, 25199, Note_on_c, 1, 57, 0
4, 25200, Note_on_c, 1, 52, 77
4, 25223, Note_on_c, 1, 52, 0
4, 25224, Note_on_c, 1, 55, 75
4, 25247, Note_on_c, 1, 55, 0
4, 25248, Note_on_c, 1, 57, 74
4, 25271, Note_on_c, 1, 57, 0
4, 25272, Note_on_c, 1, 61, 72
4, 25295, Note_on_c, 1, 61, 0
4, 25296, Note_on_c, 1, 64, 71
4, 25319, Note_on_c, 1, 64, 0
4, 25320, Note_on_c, 1, 67, 69
4, 25344, Note_on_c, 1, 67, 68
4, 25344, Note_on_c, 1, 62, 68
4, 25392, Note_on_c, 1, 67, 0
4, 25392, Note_on_c, 1, 66, 65
4, 25437, Note_on_c, 1, 66, 0
4, 25437, Note_on_c, 1, 62, 0
4, 25440, Note_on_c, 1, 66, 62
4, 25440, Note_on_c, 1, 62, 62
4, 25460, Note_on_c, 1, 66, 0
4, 25460, Note_on_c, 1, 62, 0
4, 25488, Note_on_c, 1, 66, 62
4, 25488, Note_on_c, 1, 62, 62
4, 25533, Note_on_c, 1, 66, 0
4, 25533, Note_on_c, 1, 62, 0
4, 25584, Note_on_c, 1, 71, 62
4, 25607, Note_on_c, 1, 71, 0
4, 25608, Note_on_c, 1, 74, 62
4, 25631, Note_on_c, 1, 74, 0
4, 25632, Note_on_c, 1, 71, 62
4, 25655, Note_on_c, 1, 71, 0
4, 25656, Note_on_c, 1, 74, 62
4, 25679, Note_on_c, 1, 74, 0
4, 25680, Note_on_c, 1, 71, 62
4, 25703, Note_on_c, 1, 71, 0
4, 25704, Note_on_c, 1, 74, 62
4, 25727, Note_on_c, 1, 74, 0
4, 25728, Note_on_c, 1, 72, 62
4, 25751, Note_on_c, 1, 72, 0
4, 25752, Note_on_c, 1, 76, 62
4, 25775, Note_on_c, 1, 76, 0
4, 25776, Note_on_c, 1, 71, 62
4, 25799, Note_on_c, 1, 71, 0
4, 25800, Note_on_c, 1, 74, 62
4, 25823, Note_on_c, 1, 74, 0
4, 25824, Note_on_c, 1, 69, 62
4, 25847, Note_on_c, 1, 69, 0
4, 25848, Note_on_c, 1, 72, 62
4, 25871, Note_on_c, 1, 72, 0
4, 25872, Note_on_c, 1, 67, 62
4, 25895, Note_on_c, 1, 67, 0
4, 25896, Note_on_c, 1, 71, 62
4, 25919, Note_on_c, 1, 71, 0
4, 25920, Note_on_c, 1, 66, 62
4, 25943, Note_on_c, 1, 66, 0
4, 25944, Note_on_c, 1, 69, 62
4, 25967, Note_on_c, 1, 69, 0
4, 25968, Note_on_c, 1, 66, 62
4, 25991, Note_on_c, 1, 66, 0
4, 25992, Note_on_c, 1, 69, 62
4, 26015, Note_on_c, 1, 69, 0
4, 26016, Note_on_c, 1, 66, 62
4, 26039, Note_on_c, 1, 66, 0
4, 26040, Note_on_c, 1, 69, 62
4, 26063, Note_on_c, 1, 69, 0
4, 26064, Note_on_c, 1, 66, 62
4, 26087, Note_on_c, 1, 66, 0
4, 26088, Note_on_c, 1, 69, 64
4, 26111, Note_on_c, 1, 69, 0
4, 26112, Note_on_c, 1, 66, 67
4, 26135, Note_on_c, 1, 66, 0
4, 26136, Note_on_c, 1, 69, 69
4, 26159, Note_on_c, 1, 69, 0
4, 26160, Note_on_c, 1, 66, 72
4, 26183, Note_on_c, 1, 66, 0
4, 26184, Note_on_c, 1, 69, 74
4, 26207, Note_on_c, 1, 69, 0
4, 26208, Note_on_c, 1, 67, 77
4, 26297, Note_on_c, 1, 67, 0
4, 26352, Note_on_c, 1, 57, 77
4, 26355, Note_on_c, 1, 61, 77
4, 26358, Note_on_c, 1, 64, 77
4, 26361, Note_on_c, 1, 67, 77
4, 26445, Note_on_c, 1, 67, 0
4, 26445, Note_on_c, 1, 64, 0
4, 26445, Note_on_c, 1, 61, 0
4, 26445, Note_on_c, 1, 57, 0
4, 26520, Note_on_c, 1, 50, 77
4, 26543, Note_on_c, 1, 50, 0
4, 26544, Note_on_c, 1, 54, 77
4, 26567, Note_on_c, 1, 54, 0
4, 26568, Note_on_c, 1, 50, 77
4, 26591, Note_on_c, 1, 50, 0
4, 26592, Note_on_c, 1, 52, 77
4, 26615, Note_on_c, 1, 52, 0
4, 26616, Note_on_c, 1, 55, 77
4, 26639, Note_on_c, 1, 55, 0
4, 26664, Note_on_c, 1, 54, 77
4, 26687, Note_on_c, 1, 54, 0
4, 26688, Note_on_c, 1, 57, 77
4, 26711, Note_on_c, 1, 57, 0
4, 26712, Note_on_c, 1, 54, 77
4, 26735, Note_on_c, 1, 54, 0
4, 26736, Note_on_c, 1, 55, 77
4, 26759, Note_on_c, 1, 55, 0
4, 26760, Note_on_c, 1, 59, 77
4, 26783, Note_on_c, 1, 59, 0
4, 26808, Note_on_c, 1, 57, 77
4, 26831, Note_on_c, 1, 57, 0
4, 26832, Note_on_c, 1, 60, 77
4, 26855, Note_on_c, 1, 60, 0
4, 26856, Note_on_c, 1, 57, 77
4, 26879, Note_on_c, 1, 57, 0
4, 26880, Note_on_c, 1, 59, 77
4, 26903, Note_on_c, 1, 59, 0
4, 26904, Note_on_c, 1, 55, 77
4, 26927, Note_on_c, 1, 55, 0
4, 26952, Note_on_c, 1, 54, 84
4, 26975, Note_on_c, 1, 54, 0
4, 26976, Note_on_c, 1, 57, 82
4, 26999, Note_on_c, 1, 57, 0
4, 27000, Note_on_c, 1, 54, 80
4, 27023, Note_on_c, 1, 54, 0
4, 27024, Note_on_c, 1, 55, 78
4, 27047, Note_on_c, 1, 55, 0
4, 27048, Note_on_c, 1, 52, 76
4, 27071, Note_on_c, 1, 52, 0
4, 27072, Note_on_c, 1, 50, 74
4, 27117, Note_on_c, 1, 50, 0
4, 27168, Note_on_c, 1, 50, 86
4, 27188, Note_on_c, 1, 50, 0
4, 27216, Note_on_c, 1, 50, 70
4, 27261, Note_on_c, 1, 50, 0
4, 27312, Note_on_c, 1, 38, 93
4, 27332, Note_on_c, 1, 38, 0
4, 27360, Note_on_c, 1, 38, 84
4, 27625, Note_on_c, 1, 38, 0
4, 27672, Note_on_c, 1, 48, 84
4, 27696, Note_on_c, 1, 48, 0
4, 27696, Note_on_c, 1, 57, 84
4, 27719, Note_on_c, 1, 57, 0
4, 27720, Note_on_c, 1, 54, 84
4, 27744, Note_on_c, 1, 54, 0
4, 27744, Note_on_c, 1, 60, 84
4, 27767, Note_on_c, 1, 60, 0
4, 27768, Note_on_c, 1, 57, 84
4, 27792, Note_on_c, 1, 57, 0
4, 27792, Note_on_c, 1, 66, 84
4, 27933, Note_on_c, 1, 66, 0
4, 27936, Note_on_c, 1, 59, 62
4, 27936, Note_on_c, 1, 55, 62
4, 28025, Note_on_c, 1, 59, 0
4, 28025, Note_on_c, 1, 55, 0
4, 28032, Note_on_c, 1, 60, 62
4, 28032, Note_on_c, 1, 55, 62
4, 28052, Note_on_c, 1, 60, 0
4, 28052, Note_on_c, 1, 55, 0
4, 28080, Note_on_c, 1, 60, 62
4, 28080, Note_on_c, 1, 55, 62
4, 28169, Note_on_c, 1, 60, 0
4, 28169, Note_on_c, 1, 55, 0
4, 28176, Note_on_c, 1, 60, 62
4, 28176, Note_on_c, 1, 55, 62
4, 28196, Note_on_c, 1, 60, 0
4, 28196, Note_on_c, 1, 55, 0
4, 28224, Note_on_c, 1, 59, 62
4, 28247, Note_on_c, 1, 59, 0
4, 28248, Note_on_c, 1, 58, 67
4, 28271, Note_on_c, 1, 58, 0
4, 28272, Note_on_c, 1, 59, 72
4, 28295, Note_on_c, 1, 59, 0
4, 28296, Note_on_c, 1, 58, 77
4, 28319, Note_on_c, 1, 58, 0
4, 28320, Note_on_c, 1, 59, 72
4, 28343, Note_on_c, 1, 59, 0
4, 28344, Note_on_c, 1, 58, 67
4, 28367, Note_on_c, 1, 58, 0
4, 28368, Note_on_c, 1, 59, 62
4, 28457, Note_on_c, 1, 59, 0
4, 28464, Note_on_c, 1, 54, 62
4, 28484, Note_on_c, 1, 54, 0
4, 28512, Note_on_c, 1, 57, 62
4, 28518, Note_on_c, 1, 57, 0
4, 28518, Note_on_c, 1, 55, 62
4, 28535, Note_on_c, 1, 55, 0
4, 28536, Note_on_c, 1, 54, 63
4, 28559, Note_on_c, 1, 54, 0
4, 28560, Note_on_c, 1, 55, 64
4, 28583, Note_on_c, 1, 55, 0
4, 28584, Note_on_c, 1, 54, 66
4, 28607, Note_on_c, 1, 54, 0
4, 28608, Note_on_c, 1, 55, 67
4, 28631, Note_on_c, 1, 55, 0
4, 28632, Note_on_c, 1, 59, 68
4, 28655, Note_on_c, 1, 59, 0
4, 28656, Note_on_c, 1, 57, 70
4, 28745, Note_on_c, 1, 57, 0
4, 28752, Note_on_c, 1, 55, 70
4, 28772, Note_on_c, 1, 55, 0
4, 28800, Note_on_c, 1, 50, 70
4, 28823, Note_on_c, 1, 50, 0
4, 28824, Note_on_c, 1, 61, 70
4, 28847, Note_on_c, 1, 61, 0
4, 28848, Note_on_c, 1, 62, 70
4, 28871, Note_on_c, 1, 62, 0
4, 28872, Note_on_c, 1, 61, 70
4, 28895, Note_on_c, 1, 61, 0
4, 28896, Note_on_c, 1, 62, 70
4, 28919, Note_on_c, 1, 62, 0
4, 28920, Note_on_c, 1, 61, 70
4, 28943, Note_on_c, 1, 61, 0
4, 28944, Note_on_c, 1, 62, 70
4, 28967, Note_on_c, 1, 62, 0
4, 28968, Note_on_c, 1, 64, 70
4, 28991, Note_on_c, 1, 64, 0
4, 28992, Note_on_c, 1, 60, 70
4, 29015, Note_on_c, 1, 60, 0
4, 29016, Note_on_c, 1, 62, 70
4, 29039, Note_on_c, 1, 62, 0
4, 29040, Note_on_c, 1, 59, 70
4, 29063, Note_on_c, 1, 59, 0
4, 29064, Note_on_c, 1, 60, 70
4, 29087, Note_on_c, 1, 60, 0
4, 29088, Note_on_c, 1, 57, 70
4, 29111, Note_on_c, 1, 57, 0
4, 29112, Note_on_c, 1, 64, 70
4, 29135, Note_on_c, 1, 64, 0
4, 29136, Note_on_c, 1, 60, 70
4, 29159, Note_on_c, 1, 60, 0
4, 29160, Note_on_c, 1, 59, 70
4, 29183, Note_on_c, 1, 59, 0
4, 29184, Note_on_c, 1, 57, 70
4, 29207, Note_on_c, 1, 57, 0
4, 29208, Note_on_c, 1, 55, 70
4, 29231, Note_on_c, 1, 55, 0
4, 29232, Note_on_c, 1, 54, 70
4, 29255, Note_on_c, 1, 54, 0
4, 29256, Note_on_c, 1, 55, 70
4, 29279, Note_on_c, 1, 55, 0
4, 29280, Note_on_c, 1, 57, 70
4, 29303, Note_on_c, 1, 57, 0
4, 29304, Note_on_c, 1, 50, 70
4, 29327, Note_on_c, 1, 50, 0
4, 29328, Note_on_c, 1, 52, 70
4, 29351, Note_on_c, 1, 52, 0
4, 29352, Note_on_c, 1, 54, 70
4, 29375, Note_on_c, 1, 54, 0
4, 29376, Note_on_c, 1, 55, 70
4, 29399, Note_on_c, 1, 55, 0
4, 29400, Note_on_c, 1, 54, 70
4, 29423, Note_on_c, 1, 54, 0
4, 29424, Note_on_c, 1, 52, 70
4, 29447, Note_on_c, 1, 52, 0
4, 29448, Note_on_c, 1, 50, 70
4, 29471, Note_on_c, 1, 50, 0
4, 29472, Note_on_c, 1, 48, 70
4, 29495, Note_on_c, 1, 48, 0
4, 29496, Note_on_c, 1, 47, 70
4, 29519, Note_on_c, 1, 47, 0
4, 29520, Note_on_c, 1, 52, 70
4, 29543, Note_on_c, 1, 52, 0
4, 29544, Note_on_c, 1, 50, 70
4, 29567, Note_on_c, 1, 50, 0
4, 29568, Note_on_c, 1, 48, 70
4, 29591, Note_on_c, 1, 48, 0
4, 29592, Note_on_c, 1, 47, 70
4, 29615, Note_on_c, 1, 47, 0
4, 29616, Note_on_c, 1, 45, 70
4, 29639, Note_on_c, 1, 45, 0
4, 29640, Note_on_c, 1, 43, 70
4, 29663, Note_on_c, 1, 43, 0
4, 29664, Note_on_c, 1, 48, 70
4, 29709, Note_on_c, 1, 48, 0
4, 29712, Note_on_c, 1, 47, 67
4, 29757, Note_on_c, 1, 47, 0
4, 29760, Note_on_c, 1, 45, 64
4, 29805, Note_on_c, 1, 45, 0
4, 29808, Note_on_c, 1, 50, 62
4, 29941, Note_on_c, 1, 50, 0
4, 29952, Note_on_c, 1, 43, 70
4, 29975, Note_on_c, 1, 43, 0
4, 29976, Note_on_c, 1, 54, 68
4, 29999, Note_on_c, 1, 54, 0
4, 30000, Note_on_c, 1, 55, 67
4, 30023, Note_on_c, 1, 55, 0
4, 30024, Note_on_c, 1, 54, 66
4, 30047, Note_on_c, 1, 54, 0
4, 30048, Note_on_c, 1, 55, 64
4, 30071, Note_on_c, 1, 55, 0
4, 30072, Note_on_c, 1, 54, 63
4, 30095, Note_on_c, 1, 54, 0
4, 30096, Note_on_c, 1, 55, 62
4, 30141, Note_on_c, 1, 55, 0
4, 30192, Note_on_c, 1, 71, 62
4, 30216, Note_on_c, 1, 71, 0
4, 30216, Note_on_c, 1, 74, 62
4, 30239, Note_on_c, 1, 74, 0
4, 30240, Note_on_c, 1, 71, 62
4, 30263, Note_on_c, 1, 71, 0
4, 30264, Note_on_c, 1, 74, 62
4, 30287, Note_on_c, 1, 74, 0
4, 30288, Note_on_c, 1, 71, 62
4, 30311, Note_on_c, 1, 71, 0
4, 30312, Note_on_c, 1, 74, 62
4, 30335, Note_on_c, 1, 74, 0
4, 30336, Note_on_c, 1, 72, 62
4, 30359, Note_on_c, 1, 72, 0
4, 30360, Note_on_c, 1, 76, 62
4, 30383, Note_on_c, 1, 76, 0
4, 30384, Note_on_c, 1, 71, 62
4, 30407, Note_on_c, 1, 71, 0
4, 30408, Note_on_c, 1, 74, 62
4, 30431, Note_on_c, 1, 74, 0
4, 30432, Note_on_c, 1, 69, 62
4, 30455, Note_on_c, 1, 69, 0
4, 30456, Note_on_c, 1, 72, 62
4, 30479, Note_on_c, 1, 72, 0
4, 30480, Note_on_c, 1, 67, 62
4, 30503, Note_on_c, 1, 67, 0
4, 30504, Note_on_c, 1, 71, 62
4, 30527, Note_on_c, 1, 71, 0
4, 30528, Note_on_c, 1, 66, 62
4, 30551, Note_on_c, 1, 66, 0
4, 30552, Note_on_c, 1, 69, 62
4, 30575, Note_on_c, 1, 69, 0
4, 30576, Note_on_c, 1, 66, 62
4, 30599, Note_on_c, 1, 66, 0
4, 30600, Note_on_c, 1, 69, 62
4, 30623, Note_on_c, 1, 69, 0
4, 30624, Note_on_c, 1, 66, 62
4, 30647, Note_on_c, 1, 66, 0
4, 30648, Note_on_c, 1, 69, 62
4, 30671, Note_on_c, 1, 69, 0
4, 30672, Note_on_c, 1, 66, 62
4, 30695, Note_on_c, 1, 66, 0
4, 30696, Note_on_c, 1, 69, 64
4, 30719, Note_on_c, 1, 69, 0
4, 30720, Note_on_c, 1, 66, 67
4, 30743, Note_on_c, 1, 66, 0
4, 30744, Note_on_c, 1, 69, 69
4, 30767, Note_on_c, 1, 69, 0
4, 30768, Note_on_c, 1, 66, 72
4, 30791, Note_on_c, 1, 66, 0
4, 30792, Note_on_c, 1, 69, 74
4, 30815, Note_on_c, 1, 69, 0
4, 30816, Note_on_c, 1, 67, 77
4, 30905, Note_on_c, 1, 67, 0
4, 30960, Note_on_c, 1, 57, 77
4, 30963, Note_on_c, 1, 61, 77
4, 30966, Note_on_c, 1, 64, 77
4, 30969, Note_on_c, 1, 67, 77
4, 31053, Note_on_c, 1, 67, 0
4, 31053, Note_on_c, 1, 64, 0
4, 31053, Note_on_c, 1, 61, 0
4, 31053, Note_on_c, 1, 57, 0
4, 31128, Note_on_c, 1, 50, 77
4, 31151, Note_on_c, 1, 50, 0
4, 31152, Note_on_c, 1, 54, 77
4, 31175, Note_on_c, 1, 54, 0
4, 31176, Note_on_c, 1, 50, 77
4, 31199, Note_on_c, 1, 50, 0
4, 31200, Note_on_c, 1, 52, 77
4, 31223, Note_on_c, 1, 52, 0
4, 31224, Note_on_c, 1, 55, 77
4, 31247, Note_on_c, 1, 55, 0
4, 31272, Note_on_c, 1, 54, 77
4, 31295, Note_on_c, 1, 54, 0
4, 31296, Note_on_c, 1, 57, 77
4, 31319, Note_on_c, 1, 57, 0
4, 31320, Note_on_c, 1, 54, 77
4, 31343, Note_on_c, 1, 54, 0
4, 31344, Note_on_c, 1, 55, 77
4, 31367, Note_on_c, 1, 55, 0
4, 31368, Note_on_c, 1, 59, 77
4, 31391, Note_on_c, 1, 59, 0
4, 31416, Note_on_c, 1, 57, 77
4, 31439, Note_on_c, 1, 57, 0
4, 31440, Note_on_c, 1, 60, 77
4, 31463, Note_on_c, 1, 60, 0
4, 31464, Note_on_c, 1, 57, 77
4, 31487, Note_on_c, 1, 57, 0
4, 31488, Note_on_c, 1, 59, 77
4, 31511, Note_on_c, 1, 59, 0
4, 31512, Note_on_c, 1, 55, 77
4, 31535, Note_on_c, 1, 55, 0
4, 31560, Note_on_c, 1, 54, 84
4, 31583, Note_on_c, 1, 54, 0
4, 31584, Note_on_c, 1, 57, 82
4, 31607, Note_on_c, 1, 57, 0
4, 31608, Note_on_c, 1, 54, 80
4, 31631, Note_on_c, 1, 54, 0
4, 31632, Note_on_c, 1, 55, 78
4, 31655, Note_on_c, 1, 55, 0
4, 31656, Note_on_c, 1, 52, 76
4, 31679, Note_on_c, 1, 52, 0
4, 31680, Note_on_c, 1, 50, 74
4, 31725, Note_on_c, 1, 50, 0
4, 31776, Note_on_c, 1, 50, 86
4, 31796, Note_on_c, 1, 50, 0
4, 31824, Note_on_c, 1, 50, 70
4, 31869, Note_on_c, 1, 50, 0
4, 31920, Note_on_c, 1, 38, 93
4, 31940, Note_on_c, 1, 38, 0
4, 31968, Note_on_c, 1, 38, 84
4, 32233, Note_on_c, 1, 38, 0
4, 32280, Note_on_c, 1, 48, 84
4, 32304, Note_on_c, 1, 48, 0
4, 32304, Note_on_c, 1, 57, 84
4, 32327, Note_on_c, 1, 57, 0
4, 32328, Note_on_c, 1, 54, 84
4, 32352, Note_on_c, 1, 54, 0
4, 32352, Note_on_c, 1, 60, 84
4, 32375, Note_on_c, 1, 60, 0
4, 32376, Note_on_c, 1, 57, 84
4, 32400, Note_on_c, 1, 57, 0
4, 32400, Note_on_c, 1, 66, 84
4, 32541, Note_on_c, 1, 66, 0
4, 32544, Note_on_c, 1, 59, 62
4, 32544, Note_on_c, 1, 55, 62
4, 32633, Note_on_c, 1, 59, 0
4, 32633, Note_on_c, 1, 55, 0
4, 32640, Note_on_c, 1, 60, 62
4, 32640, Note_on_c, 1, 55, 62
4, 32660, Note_on_c, 1, 60, 0
4, 32660, Note_on_c, 1, 55, 0
4, 32688, Note_on_c, 1, 60, 62
4, 32688, Note_on_c, 1, 55, 62
4, 32777, Note_on_c, 1, 60, 0
4, 32777, Note_on_c, 1, 55, 0
4, 32784, Note_on_c, 1, 60, 62
4, 32784, Note_on_c, 1, 55, 62
4, 32804, Note_on_c, 1, 60, 0
4, 32804, Note_on_c, 1, 55, 0
4, 32832, Note_on_c, 1, 59, 62
4, 32855, Note_on_c, 1, 59, 0
4, 32856, Note_on_c, 1, 58, 67
4, 32879, Note_on_c, 1, 58, 0
4, 32880, Note_on_c, 1, 59, 72
4, 32903, Note_on_c, 1, 59, 0
4, 32904, Note_on_c, 1, 58, 77
4, 32927, Note_on_c, 1, 58, 0
4, 32928, Note_on_c, 1, 59, 72
4, 32951, Note_on_c, 1, 59, 0
4, 32952, Note_on_c, 1, 58, 67
4, 32975, Note_on_c, 1, 58, 0
4, 32976, Note_on_c, 1, 59, 62
4, 33065, Note_on_c, 1, 59, 0
4, 33072, Note_on_c, 1, 54, 62
4, 33092, Note_on_c, 1, 54, 0
4, 33120, Note_on_c, 1, 57, 62
4, 33126, Note_on_c, 1, 57, 0
4, 33126, Note_on_c, 1, 55, 62
4, 33143, Note_on_c, 1, 55, 0
4, 33144, Note_on_c, 1, 54, 63
4, 33167, Note_on_c, 1, 54, 0
4, 33168, Note_on_c, 1, 55, 64
4, 33191, Note_on_c, 1, 55, 0
4, 33192, Note_on_c, 1, 54, 66
4, 33215, Note_on_c, 1, 54, 0
4, 33216, Note_on_c, 1, 55, 67
4, 33239, Note_on_c, 1, 55, 0
4, 33240, Note_on_c, 1, 59, 68
4, 33263, Note_on_c, 1, 59, 0
4, 33264, Note_on_c, 1, 57, 70
4, 33353, Note_on_c, 1, 57, 0
4, 33360, Note_on_c, 1, 55, 70
4, 33380, Note_on_c, 1, 55, 0
4, 33408, Note_on_c, 1, 50, 70
4, 33431, Note_on_c, 1, 50, 0
4, 33432, Note_on_c, 1, 61, 70
4, 33455, Note_on_c, 1, 61, 0
4, 33456, Note_on_c, 1, 62, 70
4, 33479, Note_on_c, 1, 62, 0
4, 33480, Note_on_c, 1, 61, 70
4, 33503, Note_on_c, 1, 61, 0
4, 33504, Note_on_c, 1, 62, 70
4, 33527, Note_on_c, 1, 62, 0
4, 33528, Note_on_c, 1, 61, 70
4, 33551, Note_on_c, 1, 61, 0
4, 33552, Note_on_c, 1, 62, 70
4, 33575, Note_on_c, 1, 62, 0
4, 33576, Note_on_c, 1, 64, 70
4, 33599, Note_on_c, 1, 64, 0
4, 33600, Note_on_c, 1, 60, 70
4, 33623, Note_on_c, 1, 60, 0
4, 33624, Note_on_c, 1, 62, 70
4, 33647, Note_on_c, 1, 62, 0
4, 33648, Note_on_c, 1, 59, 70
4, 33671, Note_on_c, 1, 59, 0
4, 33672, Note_on_c, 1, 60, 70
4, 33695, Note_on_c, 1, 60, 0
4, 33696, Note_on_c, 1, 57, 70
4, 33719, Note_on_c, 1, 57, 0
4, 33720, Note_on_c, 1, 64, 70
4, 33743, Note_on_c, 1, 64, 0
4, 33744, Note_on_c, 1, 60, 70
4, 33767, Note_on_c, 1, 60, 0
4, 33768, Note_on_c, 1, 59, 70
4, 33791, Note_on_c, 1, 59, 0
4, 33792, Note_on_c, 1, 57, 70
4, 33815, Note_on_c, 1, 57, 0
4, 33816, Note_on_c, 1, 55, 70
4, 33839, Note_on_c, 1, 55, 0
4, 33840, Note_on_c, 1, 54, 70
4, 33863, Note_on_c, 1, 54, 0
4, 33864, Note_on_c, 1, 55, 70
4, 33887, Note_on_c, 1, 55, 0
4, 33888, Note_on_c, 1, 57, 70
4, 33911, Note_on_c, 1, 57, 0
4, 33912, Note_on_c, 1, 50, 70
4, 33935, Note_on_c, 1, 50, 0
4, 33936, Note_on_c, 1, 52, 70
4, 33959, Note_on_c, 1, 52, 0
4, 33960, Note_on_c, 1, 54, 70
4, 33983, Note_on_c, 1, 54, 0
4, 33984, Note_on_c, 1, 55, 70
4, 34007, Note_on_c, 1, 55, 0
4, 34008, Note_on_c, 1, 54, 70
4, 34031, Note_on_c, 1, 54, 0
4, 34032, Note_on_c, 1, 52, 70
4, 34055, Note_on_c, 1, 52, 0
4, 34056, Note_on_c, 1, 50, 70
4, 34079, Note_on_c, 1, 50, 0
4, 34080, Note_on_c, 1, 48, 70
4, 34103, Note_on_c, 1, 48, 0
4, 34104, Note_on_c, 1, 47, 70
4, 34127, Note_on_c, 1, 47, 0
4, 34128, Note_on_c, 1, 52, 70
4, 34151, Note_on_c, 1, 52, 0
4, 34152, Note_on_c, 1, 50, 70
4, 34175, Note_on_c, 1, 50, 0
4, 34176, Note_on_c, 1, 48, 70
4, 34199, Note_on_c, 1, 48, 0
4, 34200, Note_on_c, 1, 47, 70
4, 34223, Note_on_c, 1, 47, 0
4, 34224, Note_on_c, 1, 45, 70
4, 34247, Note_on_c, 1, 45, 0
4, 34248, Note_on_c, 1, 43, 70
4, 34271, Note_on_c, 1, 43, 0
4, 34272, Note_on_c, 1, 48, 70
4, 34317, Note_on_c, 1, 48, 0
4, 34320, Note_on_c, 1, 47, 67
4, 34365, Note_on_c, 1, 47, 0
4, 34368, Note_on_c, 1, 45, 64
4, 34413, Note_on_c, 1, 45, 0
4, 34416, Note_on_c, 1, 50, 62
4, 34549, Note_on_c, 1, 50, 0
4, 34560, Note_on_c, 1, 43, 70
4, 34583, Note_on_c, 1, 43, 0
4, 34584, Note_on_c, 1, 54, 68
4, 34607, Note_on_c, 1, 54, 0
4, 34608, Note_on_c, 1, 55, 67
4, 34631, Note_on_c, 1, 55, 0
4, 34632, Note_on_c, 1, 54, 66
4, 34655, Note_on_c, 1, 54, 0
4, 34656, Note_on_c, 1, 55, 64
4, 34679, Note_on_c, 1, 55, 0
4, 34680, Note_on_c, 1, 54, 63
4, 34703, Note_on_c, 1, 54, 0
4, 34704, Note_on_c, 1, 55, 62
4, 34751, Note_on_c, 1, 55, 0
4, 34896, Note_on_c, 1, 58, 62
4, 34896, Note_on_c, 1, 55, 62
4, 34916, Note_on_c, 1, 58, 0
4, 34916, Note_on_c, 1, 55, 0
4, 35040, Note_on_c, 1, 60, 66
4, 35040, Note_on_c, 1, 55, 66
4, 35060, Note_on_c, 1, 60, 0
4, 35060, Note_on_c, 1, 55, 0
4, 35184, Note_on_c, 1, 60, 71
4, 35184, Note_on_c, 1, 55, 71
4, 35204, Note_on_c, 1, 60, 0
4, 35204, Note_on_c, 1, 55, 0
4, 35328, Note_on_c, 1, 58, 75
4, 35328, Note_on_c, 1, 55, 75
4, 35348, Note_on_c, 1, 58, 0
4, 35348, Note_on_c, 1, 55, 0
4, 35568, Note_on_c, 1, 76, 84
4, 35568, Note_on_c, 1, 73, 84
4, 35568, Note_on_c, 1, 70, 84
4, 35568, Note_on_c, 1, 67, 84
4, 35701, Note_on_c, 1, 76, 0
4, 35701, Note_on_c, 1, 73, 0
4, 35701, Note_on_c, 1, 70, 0
4, 35701, Note_on_c, 1, 67, 0
4, 35712, Note_on_c, 1, 69, 84
4, 35712, Note_on_c, 1, 65, 84
4, 35801, Note_on_c, 1, 69, 0
4, 35801, Note_on_c, 1, 65, 0
4, 35808, Note_on_c, 1, 67, 84
4, 35808, Note_on_c, 1, 64, 84
4, 35853, Note_on_c, 1, 67, 0
4, 35853, Note_on_c, 1, 64, 0
4, 35856, Note_on_c, 1, 65, 84
4, 35856, Note_on_c, 1, 62, 84
4, 35901, Note_on_c, 1, 65, 0
4, 35901, Note_on_c, 1, 62, 0
4, 35904, Note_on_c, 1, 71, 90
4, 35904, Note_on_c, 1, 68, 90
4, 35993, Note_on_c, 1, 71, 0
4, 35993, Note_on_c, 1, 68, 0
4, 36000, Note_on_c, 1, 65, 84
4, 36000, Note_on_c, 1, 62, 84
4, 36000, Note_on_c, 1, 57, 84
4, 36133, Note_on_c, 1, 65, 0
4, 36133, Note_on_c, 1, 62, 0
4, 36133, Note_on_c, 1, 57, 0
4, 36144, Note_on_c, 1, 67, 84
4, 36144, Note_on_c, 1, 64, 84
4, 36144, Note_on_c, 1, 57, 84
4, 36277, Note_on_c, 1, 67, 0
4, 36277, Note_on_c, 1, 64, 0
4, 36277, Note_on_c, 1, 57, 0
4, 36384, Note_on_c, 1, 62, 62
4, 36384, Note_on_c, 1, 50, 62
4, 36429, Note_on_c, 1, 62, 0
4, 36429, Note_on_c, 1, 50, 0
4, 36432, Note_on_c, 1, 62, 62
4, 36432, Note_on_c, 1, 50, 62
4, 36477, Note_on_c, 1, 62, 0
4, 36477, Note_on_c, 1, 50, 0
4, 36624, Note_on_c, 1, 58, 62
4, 36624, Note_on_c, 1, 55, 62
4, 36644, Note_on_c, 1, 58, 0
4, 36644, Note_on_c, 1, 55, 0
4, 36768, Note_on_c, 1, 60, 66
4, 36768, Note_on_c, 1, 55, 66
4, 36788, Note_on_c, 1, 60, 0
4, 36788, Note_on_c, 1, 55, 0
4, 36912, Note_on_c, 1, 60, 71
4, 36912, Note_on_c, 1, 55, 71
4, 36932, Note_on_c, 1, 60, 0
4, 36932, Note_on_c, 1, 55, 0
4, 37056, Note_on_c, 1, 58, 75
4, 37056, Note_on_c, 1, 55, 75
4, 37076, Note_on_c, 1, 58, 0
4, 37076, Note_on_c, 1, 55, 0
4, 37296, Note_on_c, 1, 76, 84
4, 37296, Note_on_c, 1, 73, 84
4, 37296, Note_on_c, 1, 70, 84
4, 37296, Note_on_c, 1, 67, 84
4, 37429, Note_on_c, 1, 76, 0
4, 37429, Note_on_c, 1, 73, 0
4, 37429, Note_on_c, 1, 70, 0
4, 37429, Note_on_c, 1, 67, 0
4, 37440, Note_on_c, 1, 69, 84
4, 37440, Note_on_c, 1, 65, 84
4, 37529, Note_on_c, 1, 69, 0
4, 37529, Note_on_c, 1, 65, 0
4, 37536, Note_on_c, 1, 67, 84
4, 37536, Note_on_c, 1, 64, 84
4, 37581, Note_on_c, 1, 67, 0
4, 37581, Note_on_c, 1, 64, 0
4, 37584, Note_on_c, 1, 65, 84
4, 37584, Note_on_c, 1, 62, 84
4, 37629, Note_on_c, 1, 65, 0
4, 37629, Note_on_c, 1, 62, 0
4, 37632, Note_on_c, 1, 71, 90
4, 37632, Note_on_c, 1, 68, 90
4, 37721, Note_on_c, 1, 71, 0
4, 37721, Note_on_c, 1, 68, 0
4, 37728, Note_on_c, 1, 65, 84
4, 37728, Note_on_c, 1, 62, 84
4, 37728, Note_on_c, 1, 57, 84
4, 37861, Note_on_c, 1, 65, 0
4, 37861, Note_on_c, 1, 62, 0
4, 37861, Note_on_c, 1, 57, 0
4, 37872, Note_on_c, 1, 67, 84
4, 37872, Note_on_c, 1, 64, 84
4, 37872, Note_on_c, 1, 57, 84
4, 38005, Note_on_c, 1, 67, 0
4, 38005, Note_on_c, 1, 64, 0
4, 38005, Note_on_c, 1, 57, 0
4, 38112, Note_on_c, 1, 62, 62
4, 38112, Note_on_c, 1, 50, 62
4, 38157, Note_on_c, 1, 62, 0
4, 38157, Note_on_c, 1, 50, 0
4, 38160, Note_on_c, 1, 62, 62
4, 38160, Note_on_c, 1, 50, 62
4, 38205, Note_on_c, 1, 62, 0
4, 38205, Note_on_c, 1, 50, 0
4, 38352, Note_on_c, 1, 62, 62
4, 38352, Note_on_c, 1, 58, 62
4, 38372, Note_on_c, 1, 62, 0
4, 38372, Note_on_c, 1, 58, 0
4, 38496, Note_on_c, 1, 63, 64
4, 38496, Note_on_c, 1, 57, 64
4, 38516, Note_on_c, 1, 63, 0
4, 38516, Note_on_c, 1, 57, 0
4, 38640, Note_on_c, 1, 58, 66
4, 38640, Note_on_c, 1, 55, 66
4, 38660, Note_on_c, 1, 58, 0
4, 38660, Note_on_c, 1, 55, 0
4, 38784, Note_on_c, 1, 50, 69
4, 38784, Note_on_c, 1, 38, 69
4, 38804, Note_on_c, 1, 50, 0
4, 38804, Note_on_c, 1, 38, 0
4, 38832, Note_on_c, 1, 62, 70
4, 38832, Note_on_c, 1, 58, 70
4, 38877, Note_on_c, 1, 62, 0
4, 38877, Note_on_c, 1, 58, 0
4, 38880, Note_on_c, 1, 63, 70
4, 38880, Note_on_c, 1, 60, 70
4, 38969, Note_on_c, 1, 63, 0
4, 38969, Note_on_c, 1, 60, 0
4, 38976, Note_on_c, 1, 62, 70
4, 38976, Note_on_c, 1, 58, 70
4, 39021, Note_on_c, 1, 62, 0
4, 39021, Note_on_c, 1, 58, 0
4, 39024, Note_on_c, 1, 63, 70
4, 39024, Note_on_c, 1, 60, 70
4, 39113, Note_on_c, 1, 63, 0
4, 39113, Note_on_c, 1, 60, 0
4, 39120, Note_on_c, 1, 62, 70
4, 39120, Note_on_c, 1, 58, 70
4, 39165, Note_on_c, 1, 62, 0
4, 39165, Note_on_c, 1, 58, 0
4, 39168, Note_on_c, 1, 60, 70
4, 39213, Note_on_c, 1, 60, 0
4, 39216, Note_on_c, 1, 62, 70
4, 39261, Note_on_c, 1, 62, 0
4, 39264, Note_on_c, 1, 63, 70
4, 39309, Note_on_c, 1, 63, 0
4, 39312, Note_on_c, 1, 62, 70
4, 39445, Note_on_c, 1, 62, 0
4, 39456, Note_on_c, 1, 63, 84
4, 39589, Note_on_c, 1, 63, 0
4, 39600, Note_on_c, 1, 58, 73
4, 39689, Note_on_c, 1, 58, 0
4, 39696, Note_on_c, 1, 57, 65
4, 39741, Note_on_c, 1, 57, 0
4, 39840, Note_on_c, 1, 55, 55
4, 39840, Note_on_c, 1, 43, 55
4, 39860, Note_on_c, 1, 55, 0
4, 39860, Note_on_c, 1, 43, 0
4, 39888, Note_on_c, 1, 55, 55
4, 39888, Note_on_c, 1, 43, 55
4, 39933, Note_on_c, 1, 55, 0
4, 39933, Note_on_c, 1, 43, 0
4, 40080, Note_on_c, 1, 62, 62
4, 40080, Note_on_c, 1, 58, 62
4, 40100, Note_on_c, 1, 62, 0
4, 40100, Note_on_c, 1, 58, 0
4, 40224, Note_on_c, 1, 63, 64
4, 40224, Note_on_c, 1, 57, 64
4, 40244, Note_on_c, 1, 63, 0
4, 40244, Note_on_c, 1, 57, 0
4, 40368, Note_on_c, 1, 58, 66
4, 40368, Note_on_c, 1, 55, 66
4, 40388, Note_on_c, 1, 58, 0
4, 40388, Note_on_c, 1, 55, 0
4, 40512, Note_on_c, 1, 50, 69
4, 40512, Note_on_c, 1, 38, 69
4, 40532, Note_on_c, 1, 50, 0
4, 40532, Note_on_c, 1, 38, 0
4, 40560, Note_on_c, 1, 62, 70
4, 40560, Note_on_c, 1, 58, 70
4, 40605, Note_on_c, 1, 62, 0
4, 40605, Note_on_c, 1, 58, 0
4, 40608, Note_on_c, 1, 63, 70
4, 40608, Note_on_c, 1, 60, 70
4, 40697, Note_on_c, 1, 63, 0
4, 40697, Note_on_c, 1, 60, 0
4, 40704, Note_on_c, 1, 62, 70
4, 40704, Note_on_c, 1, 58, 70
4, 40749, Note_on_c, 1, 62, 0
4, 40749, Note_on_c, 1, 58, 0
4, 40752, Note_on_c, 1, 63, 70
4, 40752, Note_on_c, 1, 60, 70
4, 40841, Note_on_c, 1, 63, 0
4, 40841, Note_on_c, 1, 60, 0
4, 40848, Note_on_c, 1, 62, 70
4, 40848, Note_on_c, 1, 58, 70
4, 40893, Note_on_c, 1, 62, 0
4, 40893, Note_on_c, 1, 58, 0
4, 40896, Note_on_c, 1, 60, 70
4, 40941, Note_on_c, 1, 60, 0
4, 40944, Note_on_c, 1, 62, 70
4, 40989, Note_on_c, 1, 62, 0
4, 40992, Note_on_c, 1, 63, 70
4, 41037, Note_on_c, 1, 63, 0
4, 41040, Note_on_c, 1, 62, 70
4, 41173, Note_on_c, 1, 62, 0
4, 41184, Note_on_c, 1, 63, 84
4, 41317, Note_on_c, 1, 63, 0
4, 41328, Note_on_c, 1, 58, 73
4, 41417, Note_on_c, 1, 58, 0
4, 41424, Note_on_c, 1, 57, 65
4, 41469, Note_on_c, 1, 57, 0
4, 41568, Note_on_c, 1, 55, 55
4, 41568, Note_on_c, 1, 43, 55
4, 41588, Note_on_c, 1, 55, 0
4, 41588, Note_on_c, 1, 43, 0
4, 41616, Note_on_c, 1, 55, 55
4, 41616, Note_on_c, 1, 43, 55
4, 41661, Note_on_c, 1, 55, 0
4, 41661, Note_on_c, 1, 43, 0
4, 41712, Note_on_c, 1, 59, 62
4, 41712, Note_on_c, 1, 55, 62
4, 41732, Note_on_c, 1, 59, 0
4, 41732, Note_on_c, 1, 55, 0
4, 41760, Note_on_c, 1, 59, 62
4, 41760, Note_on_c, 1, 55, 62
4, 41849, Note_on_c, 1, 59, 0
4, 41849, Note_on_c, 1, 55, 0
4, 41856, Note_on_c, 1, 60, 62
4, 41856, Note_on_c, 1, 55, 62
4, 41876, Note_on_c, 1, 60, 0
4, 41876, Note_on_c, 1, 55, 0
4, 41904, Note_on_c, 1, 60, 62
4, 41904, Note_on_c, 1, 55, 62
4, 41993, Note_on_c, 1, 60, 0
4, 41993, Note_on_c, 1, 55, 0
4, 42000, Note_on_c, 1, 60, 67
4, 42000, Note_on_c, 1, 55, 67
4, 42020, Note_on_c, 1, 60, 0
4, 42020, Note_on_c, 1, 55, 0
4, 42048, Note_on_c, 1, 59, 69
4, 42048, Note_on_c, 1, 55, 69
4, 42137, Note_on_c, 1, 59, 0
4, 42137, Note_on_c, 1, 55, 0
4, 42144, Note_on_c, 1, 59, 74
4, 42144, Note_on_c, 1, 55, 74
4, 42164, Note_on_c, 1, 59, 0
4, 42164, Note_on_c, 1, 55, 0
4, 42192, Note_on_c, 1, 59, 77
4, 42192, Note_on_c, 1, 55, 77
4, 42281, Note_on_c, 1, 59, 0
4, 42281, Note_on_c, 1, 55, 0
4, 42288, Note_on_c, 1, 54, 70
4, 42308, Note_on_c, 1, 54, 0
4, 42336, Note_on_c, 1, 55, 71
4, 42359, Note_on_c, 1, 55, 0
4, 42360, Note_on_c, 1, 56, 72
4, 42383, Note_on_c, 1, 56, 0
4, 42384, Note_on_c, 1, 57, 73
4, 42407, Note_on_c, 1, 57, 0
4, 42408, Note_on_c, 1, 58, 74
4, 42431, Note_on_c, 1, 58, 0
4, 42432, Note_on_c, 1, 59, 75
4, 42477, Note_on_c, 1, 59, 0
4, 42480, Note_on_c, 1, 57, 77
4, 42569, Note_on_c, 1, 57, 0
4, 42576, Note_on_c, 1, 55, 77
4, 42596, Note_on_c, 1, 55, 0
4, 42624, Note_on_c, 1, 50, 77
4, 42691, Note_on_c, 1, 50, 0
4, 42696, Note_on_c, 1, 51, 77
4, 42708, Note_on_c, 1, 51, 0
4, 42708, Note_on_c, 1, 54, 77
4, 42720, Note_on_c, 1, 54, 0
4, 42720, Note_on_c, 1, 55, 77
4, 42732, Note_on_c, 1, 55, 0
4, 42732, Note_on_c, 1, 57, 77
4, 42744, Note_on_c, 1, 57, 0
4, 42744, Note_on_c, 1, 59, 77
4, 42756, Note_on_c, 1, 59, 0
4, 42756, Note_on_c, 1, 61, 77
4, 42768, Note_on_c, 1, 61, 0
4, 42768, Note_on_c, 1, 62, 93
4, 42816, Note_on_c, 1, 62, 0
4, 42816, Note_on_c, 1, 60, 74
4, 42861, Note_on_c, 1, 60, 0
4, 42864, Note_on_c, 1, 59, 72
4, 42909, Note_on_c, 1, 59, 0
4, 42912, Note_on_c, 1, 57, 70
4, 43001, Note_on_c, 1, 57, 0
4, 43008, Note_on_c, 1, 55, 72
4, 43053, Note_on_c, 1, 55, 0
4, 43056, Note_on_c, 1, 54, 73
4, 43189, Note_on_c, 1, 54, 0
4, 43200, Note_on_c, 1, 55, 77
4, 43465, Note_on_c, 1, 55, 0
4, 43488, Note_on_c, 1, 55, 77
4, 43721, Note_on_c, 1, 55, 0
4, 43728, Note_on_c, 1, 57, 69
4, 43773, Note_on_c, 1, 57, 0
4, 43776, Note_on_c, 1, 62, 68
4, 43965, Note_on_c, 1, 62, 0
4, 44016, Note_on_c, 1, 59, 62
4, 44016, Note_on_c, 1, 55, 62
4, 44036, Note_on_c, 1, 59, 0
4, 44036, Note_on_c, 1, 55, 0
4, 44064, Note_on_c, 1, 59, 62
4, 44064, Note_on_c, 1, 55, 62
4, 44153, Note_on_c, 1, 59, 0
4, 44153, Note_on_c, 1, 55, 0
4, 44160, Note_on_c, 1, 60, 62
4, 44160, Note_on_c, 1, 55, 62
4, 44180, Note_on_c, 1, 60, 0
4, 44180, Note_on_c, 1, 55, 0
4, 44208, Note_on_c, 1, 60, 62
4, 44208, Note_on_c, 1, 55, 62
4, 44297, Note_on_c, 1, 60, 0
4, 44297, Note_on_c, 1, 55, 0
4, 44304, Note_on_c, 1, 60, 67
4, 44304, Note_on_c, 1, 55, 67
4, 44324, Note_on_c, 1, 60, 0
4, 44324, Note_on_c, 1, 55, 0
4, 44352, Note_on_c, 1, 59, 69
4, 44352, Note_on_c, 1, 55, 69
4, 44441, Note_on_c, 1, 59, 0
4, 44441, Note_on_c, 1, 55, 0
4, 44448, Note_on_c, 1, 59, 74
4, 44448, Note_on_c, 1, 55, 74
4, 44468, Note_on_c, 1, 59, 0
4, 44468, Note_on_c, 1, 55, 0
4, 44496, Note_on_c, 1, 59, 77
4, 44496, Note_on_c, 1, 55, 77
4, 44585, Note_on_c, 1, 59, 0
4, 44585, Note_on_c, 1, 55, 0
4, 44592, Note_on_c, 1, 54, 70
4, 44612, Note_on_c, 1, 54, 0
4, 44640, Note_on_c, 1, 55, 71
4, 44663, Note_on_c, 1, 55, 0
4, 44664, Note_on_c, 1, 56, 72
4, 44687, Note_on_c, 1, 56, 0
4, 44688, Note_on_c, 1, 57, 73
4, 44711, Note_on_c, 1, 57, 0
4, 44712, Note_on_c, 1, 58, 74
4, 44735, Note_on_c, 1, 58, 0
4, 44736, Note_on_c, 1, 59, 75
4, 44781, Note_on_c, 1, 59, 0
4, 44784, Note_on_c, 1, 57, 77
4, 44873, Note_on_c, 1, 57, 0
4, 44880, Note_on_c, 1, 55, 77
4, 44900, Note_on_c, 1, 55, 0
4, 44928, Note_on_c, 1, 50, 77
4, 44995, Note_on_c, 1, 50, 0
4, 45000, Note_on_c, 1, 51, 77
4, 45012, Note_on_c, 1, 51, 0
4, 45012, Note_on_c, 1, 54, 77
4, 45024, Note_on_c, 1, 54, 0
4, 45024, Note_on_c, 1, 55, 77
4, 45036, Note_on_c, 1, 55, 0
4, 45036, Note_on_c, 1, 57, 77
4, 45048, Note_on_c, 1, 57, 0
4, 45048, Note_on_c, 1, 59, 77
4, 45060, Note_on_c, 1, 59, 0
4, 45060, Note_on_c, 1, 61, 77
4, 45072, Note_on_c, 1, 61, 0
4, 45072, Note_on_c, 1, 62, 93
4, 45120, Note_on_c, 1, 62, 0
4, 45120, Note_on_c, 1, 60, 74
4, 45165, Note_on_c, 1, 60, 0
4, 45168, Note_on_c, 1, 59, 72
4, 45213, Note_on_c, 1, 59, 0
4, 45216, Note_on_c, 1, 57, 70
4, 45305, Note_on_c, 1, 57, 0
4, 45312, Note_on_c, 1, 55, 72
4, 45357, Note_on_c, 1, 55, 0
4, 45360, Note_on_c, 1, 54, 73
4, 45493, Note_on_c, 1, 54, 0
4, 45504, Note_on_c, 1, 55, 77
4, 45769, Note_on_c, 1, 55, 0
4, 45792, Note_on_c, 1, 55, 77
4, 46025, Note_on_c, 1, 55, 0
4, 46032, Note_on_c, 1, 57, 69
4, 46077, Note_on_c, 1, 57, 0
4, 46080, Note_on_c, 1, 62, 68
4, 46269, Note_on_c, 1, 62, 0
4, 46320, Note_on_c, 1, 74, 62
4, 46320, Note_on_c, 1, 71, 62
4, 46340, Note_on_c, 1, 74, 0
4, 46340, Note_on_c, 1, 71, 0
4, 46368, Note_on_c, 1, 74, 62
4, 46368, Note_on_c, 1, 71, 62
4, 46457, Note_on_c, 1, 74, 0
4, 46457, Note_on_c, 1, 71, 0
4, 46464, Note_on_c, 1, 76, 65
4, 46464, Note_on_c, 1, 72, 65
4, 46509, Note_on_c, 1, 76, 0
4, 46509, Note_on_c, 1, 72, 0
4, 46512, Note_on_c, 1, 74, 66
4, 46512, Note_on_c, 1, 71, 66
4, 46557, Note_on_c, 1, 74, 0
4, 46557, Note_on_c, 1, 71, 0
4, 46560, Note_on_c, 1, 72, 68
4, 46560, Note_on_c, 1, 69, 68
4, 46605, Note_on_c, 1, 72, 0
4, 46605, Note_on_c, 1, 69, 0
4, 46608, Note_on_c, 1, 71, 69
4, 46608, Note_on_c, 1, 67, 69
4, 46653, Note_on_c, 1, 71, 0
4, 46653, Note_on_c, 1, 67, 0
4, 46656, Note_on_c, 1, 69, 71
4, 46656, Note_on_c, 1, 66, 71
4, 46745, Note_on_c, 1, 69, 0
4, 46745, Note_on_c, 1, 66, 0
4, 46752, Note_on_c, 1, 69, 74
4, 46752, Note_on_c, 1, 66, 74
4, 46797, Note_on_c, 1, 69, 0
4, 46797, Note_on_c, 1, 66, 0
4, 46800, Note_on_c, 1, 69, 76
4, 46800, Note_on_c, 1, 66, 76
4, 46889, Note_on_c, 1, 69, 0
4, 46889, Note_on_c, 1, 66, 0
4, 46896, Note_on_c, 1, 69, 79
4, 46896, Note_on_c, 1, 66, 79
4, 46941, Note_on_c, 1, 69, 0
4, 46941, Note_on_c, 1, 66, 0
4, 46944, Note_on_c, 1, 71, 80
4, 46944, Note_on_c, 1, 67, 80
4, 47077, Note_on_c, 1, 71, 0
4, 47077, Note_on_c, 1, 67, 0
4, 47088, Note_on_c, 1, 67, 85
4, 47088, Note_on_c, 1, 64, 85
4, 47088, Note_on_c, 1, 57, 85
4, 47221, Note_on_c, 1, 67, 0
4, 47221, Note_on_c, 1, 64, 0
4, 47221, Note_on_c, 1, 57, 0
4, 47280, Note_on_c, 1, 54, 90
4, 47280, Note_on_c, 1, 50, 90
4, 47328, Note_on_c, 1, 54, 0
4, 47328, Note_on_c, 1, 50, 0
4, 47328, Note_on_c, 1, 55, 90
4, 47328, Note_on_c, 1, 52, 90
4, 47348, Note_on_c, 1, 55, 0
4, 47348, Note_on_c, 1, 52, 0
4, 47424, Note_on_c, 1, 57, 90
4, 47424, Note_on_c, 1, 54, 90
4, 47472, Note_on_c, 1, 57, 0
4, 47472, Note_on_c, 1, 54, 0
4, 47472, Note_on_c, 1, 59, 90
4, 47472, Note_on_c, 1, 55, 90
4, 47492, Note_on_c, 1, 59, 0
4, 47492, Note_on_c, 1, 55, 0
4, 47568, Note_on_c, 1, 60, 90
4, 47568, Note_on_c, 1, 57, 90
4, 47616, Note_on_c, 1, 60, 0
4, 47616, Note_on_c, 1, 57, 0
4, 47616, Note_on_c, 1, 59, 90
4, 47616, Note_on_c, 1, 55, 90
4, 47636, Note_on_c, 1, 59, 0
4, 47636, Note_on_c, 1, 55, 0
4, 47712, Note_on_c, 1, 57, 90
4, 47712, Note_on_c, 1, 54, 90
4, 47760, Note_on_c, 1, 57, 0
4, 47760, Note_on_c, 1, 54, 0
4, 47760, Note_on_c, 1, 55, 90
4, 47760, Note_on_c, 1, 52, 90
4, 47780, Note_on_c, 1, 55, 0
4, 47780, Note_on_c, 1, 52, 0
4, 47808, Note_on_c, 1, 54, 90
4, 47808, Note_on_c, 1, 50, 90
4, 47853, Note_on_c, 1, 54, 0
4, 47853, Note_on_c, 1, 50, 0
4, 47856, Note_on_c, 1, 66, 88
4, 47856, Note_on_c, 1, 62, 88
4, 47904, Note_on_c, 1, 66, 0
4, 47904, Note_on_c, 1, 62, 0
4, 47904, Note_on_c, 1, 67, 86
4, 47904, Note_on_c, 1, 64, 86
4, 47924, Note_on_c, 1, 67, 0
4, 47924, Note_on_c, 1, 64, 0
4, 48000, Note_on_c, 1, 69, 83
4, 48000, Note_on_c, 1, 66, 83
4, 48048, Note_on_c, 1, 69, 0
4, 48048, Note_on_c, 1, 66, 0
4, 48048, Note_on_c, 1, 70, 81
4, 48048, Note_on_c, 1, 67, 81
4, 48068, Note_on_c, 1, 70, 0
4, 48068, Note_on_c, 1, 67, 0
4, 48144, Note_on_c, 1, 72, 78
4, 48144, Note_on_c, 1, 69, 78
4, 48192, Note_on_c, 1, 72, 0
4, 48192, Note_on_c, 1, 69, 0
4, 48192, Note_on_c, 1, 70, 76
4, 48192, Note_on_c, 1, 67, 76
4, 48212, Note_on_c, 1, 70, 0
4, 48212, Note_on_c, 1, 67, 0
4, 48288, Note_on_c, 1, 69, 73
4, 48288, Note_on_c, 1, 66, 73
4, 48336, Note_on_c, 1, 69, 0
4, 48336, Note_on_c, 1, 66, 0
4, 48336, Note_on_c, 1, 67, 71
4, 48336, Note_on_c, 1, 64, 71
4, 48356, Note_on_c, 1, 67, 0
4, 48356, Note_on_c, 1, 64, 0
4, 48384, Note_on_c, 1, 66, 70
4, 48384, Note_on_c, 1, 62, 70
4, 48473, Note_on_c, 1, 66, 0
4, 48473, Note_on_c, 1, 62, 0
4, 48816, Note_on_c, 1, 81, 62
4, 48836, Note_on_c, 1, 81, 0
4, 48864, Note_on_c, 1, 81, 62
4, 48884, Note_on_c, 1, 81, 0
4, 48912, Note_on_c, 1, 81, 62
4, 48932, Note_on_c, 1, 81, 0
4, 48960, Note_on_c, 1, 81, 62
4, 48960, Note_on_c, 1, 78, 62
4, 48980, Note_on_c, 1, 81, 0
4, 48980, Note_on_c, 1, 78, 0
4, 49008, Note_on_c, 1, 81, 62
4, 49008, Note_on_c, 1, 78, 62
4, 49028, Note_on_c, 1, 81, 0
4, 49028, Note_on_c, 1, 78, 0
4, 49056, Note_on_c, 1, 81, 62
4, 49056, Note_on_c, 1, 78, 62
4, 49076, Note_on_c, 1, 81, 0
4, 49076, Note_on_c, 1, 78, 0
4, 49104, Note_on_c, 1, 81, 62
4, 49104, Note_on_c, 1, 78, 62
4, 49104, Note_on_c, 1, 74, 62
4, 49237, Note_on_c, 1, 81, 0
4, 49237, Note_on_c, 1, 78, 0
4, 49237, Note_on_c, 1, 74, 0
4, 49344, Note_on_c, 1, 69, 55
4, 49344, Note_on_c, 1, 66, 55
4, 49354, Note_on_c, 1, 69, 0
4, 49354, Note_on_c, 1, 66, 0
4, 49392, Note_on_c, 1, 69, 55
4, 49392, Note_on_c, 1, 66, 55
4, 49470, Note_on_c, 1, 69, 0
4, 49470, Note_on_c, 1, 66, 0
4, 49488, Note_on_c, 1, 59, 62
4, 49488, Note_on_c, 1, 55, 62
4, 49508, Note_on_c, 1, 59, 0
4, 49508, Note_on_c, 1, 55, 0
4, 49536, Note_on_c, 1, 59, 62
4, 49536, Note_on_c, 1, 55, 62
4, 49625, Note_on_c, 1, 59, 0
4, 49625, Note_on_c, 1, 55, 0
4, 49632, Note_on_c, 1, 60, 62
4, 49632, Note_on_c, 1, 55, 62
4, 49652, Note_on_c, 1, 60, 0
4, 49652, Note_on_c, 1, 55, 0
4, 49680, Note_on_c, 1, 60, 62
4, 49680, Note_on_c, 1, 55, 62
4, 49769, Note_on_c, 1, 60, 0
4, 49769, Note_on_c, 1, 55, 0
4, 49776, Note_on_c, 1, 60, 62
4, 49776, Note_on_c, 1, 55, 62
4, 49796, Note_on_c, 1, 60, 0
4, 49796, Note_on_c, 1, 55, 0
4, 49824, Note_on_c, 1, 59, 62
4, 49824, Note_on_c, 1, 55, 62
4, 49844, Note_on_c, 1, 59, 0
4, 49844, Note_on_c, 1, 55, 0
4, 49872, Note_on_c, 1, 59, 62
4, 49872, Note_on_c, 1, 55, 62
4, 49892, Note_on_c, 1, 59, 0
4, 49892, Note_on_c, 1, 55, 0
4, 49920, Note_on_c, 1, 59, 62
4, 49920, Note_on_c, 1, 55, 62
4, 49940, Note_on_c, 1, 59, 0
4, 49940, Note_on_c, 1, 55, 0
4, 49968, Note_on_c, 1, 59, 62
4, 49968, Note_on_c, 1, 55, 62
4, 50057, Note_on_c, 1, 59, 0
4, 50057, Note_on_c, 1, 55, 0
4, 50064, Note_on_c, 1, 50, 84
4, 50109, Note_on_c, 1, 50, 0
4, 50112, Note_on_c, 1, 59, 84
4, 50112, Note_on_c, 1, 55, 84
4, 50157, Note_on_c, 1, 59, 0
4, 50157, Note_on_c, 1, 55, 0
4, 50208, Note_on_c, 1, 43, 84
4, 50214, Note_on_c, 1, 47, 84
4, 50220, Note_on_c, 1, 50, 84
4, 50226, Note_on_c, 1, 55, 84
4, 50253, Note_on_c, 1, 55, 0
4, 50253, Note_on_c, 1, 50, 0
4, 50253, Note_on_c, 1, 47, 0
4, 50253, Note_on_c, 1, 43, 0
4, 50256, Note_on_c, 1, 45, 84
4, 50262, Note_on_c, 1, 48, 84
4, 50268, Note_on_c, 1, 54, 84
4, 50274, Note_on_c, 1, 57, 84
4, 50349, Note_on_c, 1, 57, 0
4, 50349, Note_on_c, 1, 54, 0
4, 50349, Note_on_c, 1, 48, 0
4, 50349, Note_on_c, 1, 45, 0
4, 50352, Note_on_c, 1, 55, 84
4, 50352, Note_on_c, 1, 50, 84
4, 50352, Note_on_c, 1, 47, 84
4, 50397, Note_on_c, 1, 55, 0
4, 50397, Note_on_c, 1, 50, 0
4, 50397, Note_on_c, 1, 47, 0
4, 50544, Note_on_c, 1, 50, 90
4, 50544, Note_on_c, 1, 45, 90
4, 50544, Note_on_c, 1, 42, 90
4, 50544, Note_on_c, 1, 38, 90
4, 50633, Note_on_c, 1, 50, 0
4, 50633, Note_on_c, 1, 45, 0
4, 50633, Note_on_c, 1, 42, 0
4, 50633, Note_on_c, 1, 38, 0
4, 50640, Note_on_c, 1, 64, 84
4, 50660, Note_on_c, 1, 64, 0
4, 50688, Note_on_c, 1, 60, 84
4, 50736, Note_on_c, 1, 60, 0
4, 50736, Note_on_c, 1, 59, 78
4, 50781, Note_on_c, 1, 59, 0
4, 50784, Note_on_c, 1, 57, 73
4, 50804, Note_on_c, 1, 57, 0
4, 50832, Note_on_c, 1, 57, 67
4, 50877, Note_on_c, 1, 57, 0
4, 50928, Note_on_c, 1, 62, 84
4, 50948, Note_on_c, 1, 62, 0
4, 50976, Note_on_c, 1, 59, 84
4, 51024, Note_on_c, 1, 59, 0
4, 51024, Note_on_c, 1, 57, 78
4, 51069, Note_on_c, 1, 57, 0
4, 51072, Note_on_c, 1, 55, 73
4, 51092, Note_on_c, 1, 55, 0
4, 51120, Note_on_c, 1, 55, 67
4, 51165, Note_on_c, 1, 55, 0
4, 51216, Note_on_c, 1, 52, 62
4, 51261, Note_on_c, 1, 52, 0
4, 51264, Note_on_c, 1, 48, 62
4, 51284, Note_on_c, 1, 48, 0
4, 51408, Note_on_c, 1, 50, 62
4, 51428, Note_on_c, 1, 50, 0
4, 51552, Note_on_c, 1, 55, 62
4, 51562, Note_on_c, 1, 55, 0
4, 51600, Note_on_c, 1, 50, 62
4, 51610, Note_on_c, 1, 50, 0
4, 51648, Note_on_c, 1, 47, 62
4, 51658, Note_on_c, 1, 47, 0
4, 51696, Note_on_c, 1, 43, 84
4, 51705, Note_on_c, 1, 47, 84
4, 51714, Note_on_c, 1, 50, 84
4, 51723, Note_on_c, 1, 55, 84
4, 51763, Note_on_c, 1, 55, 0
4, 51763, Note_on_c, 1, 50, 0
4, 51763, Note_on_c, 1, 47, 0
4, 51763, Note_on_c, 1, 43, 0
4, 51792, Note_on_c, 1, 74, 62
4, 51792, Note_on_c, 1, 71, 62
4, 51837, Note_on_c, 1, 74, 0
4, 51837, Note_on_c, 1, 71, 0
4, 51840, Note_on_c, 1, 74, 62
4, 51840, Note_on_c, 1, 71, 62
4, 51929, Note_on_c, 1, 74, 0
4, 51929, Note_on_c, 1, 71, 0
4, 51936, Note_on_c, 1, 76, 65
4, 51936, Note_on_c, 1, 72, 65
4, 51981, Note_on_c, 1, 76, 0
4, 51981, Note_on_c, 1, 72, 0
4, 51984, Note_on_c, 1, 74, 66
4, 51984, Note_on_c, 1, 71, 66
4, 52029, Note_on_c, 1, 74, 0
4, 52029, Note_on_c, 1, 71, 0
4, 52032, Note_on_c, 1, 72, 68
4, 52032, Note_on_c, 1, 69, 68
4, 52077, Note_on_c, 1, 72, 0
4, 52077, Note_on_c, 1, 69, 0
4, 52080, Note_on_c, 1, 71, 69
4, 52080, Note_on_c, 1, 67, 69
4, 52125, Note_on_c, 1, 71, 0
4, 52125, Note_on_c, 1, 67, 0
4, 52128, Note_on_c, 1, 69, 71
4, 52128, Note_on_c, 1, 66, 71
4, 52217, Note_on_c, 1, 69, 0
4, 52217, Note_on_c, 1, 66, 0
4, 52224, Note_on_c, 1, 69, 74
4, 52224, Note_on_c, 1, 66, 74
4, 52269, Note_on_c, 1, 69, 0
4, 52269, Note_on_c, 1, 66, 0
4, 52272, Note_on_c, 1, 69, 76
4, 52272, Note_on_c, 1, 66, 76
4, 52361, Note_on_c, 1, 69, 0
4, 52361, Note_on_c, 1, 66, 0
4, 52368, Note_on_c, 1, 69, 79
4, 52368, Note_on_c, 1, 66, 79
4, 52413, Note_on_c, 1, 69, 0
4, 52413, Note_on_c, 1, 66, 0
4, 52416, Note_on_c, 1, 71, 80
4, 52416, Note_on_c, 1, 67, 80
4, 52549, Note_on_c, 1, 71, 0
4, 52549, Note_on_c, 1, 67, 0
4, 52560, Note_on_c, 1, 67, 85
4, 52560, Note_on_c, 1, 64, 85
4, 52560, Note_on_c, 1, 57, 85
4, 52693, Note_on_c, 1, 67, 0
4, 52693, Note_on_c, 1, 64, 0
4, 52693, Note_on_c, 1, 57, 0
4, 52752, Note_on_c, 1, 54, 90
4, 52752, Note_on_c, 1, 50, 90
4, 52800, Note_on_c, 1, 54, 0
4, 52800, Note_on_c, 1, 50, 0
4, 52800, Note_on_c, 1, 55, 90
4, 52800, Note_on_c, 1, 52, 90
4, 52820, Note_on_c, 1, 55, 0
4, 52820, Note_on_c, 1, 52, 0
4, 52896, Note_on_c, 1, 57, 90
4, 52896, Note_on_c, 1, 54, 90
4, 52944, Note_on_c, 1, 57, 0
4, 52944, Note_on_c, 1, 54, 0
4, 52944, Note_on_c, 1, 59, 90
4, 52944, Note_on_c, 1, 55, 90
4, 52964, Note_on_c, 1, 59, 0
4, 52964, Note_on_c, 1, 55, 0
4, 53040, Note_on_c, 1, 60, 90
4, 53040, Note_on_c, 1, 57, 90
4, 53088, Note_on_c, 1, 60, 0
4, 53088, Note_on_c, 1, 57, 0
4, 53088, Note_on_c, 1, 59, 90
4, 53088, Note_on_c, 1, 55, 90
4, 53108, Note_on_c, 1, 59, 0
4, 53108, Note_on_c, 1, 55, 0
4, 53184, Note_on_c, 1, 57, 90
4, 53184, Note_on_c, 1, 54, 90
4, 53232, Note_on_c, 1, 57, 0
4, 53232, Note_on_c, 1, 54, 0
4, 53232, Note_on_c, 1, 55, 90
4, 53232, Note_on_c, 1, 52, 90
4, 53252, Note_on_c, 1, 55, 0
4, 53252, Note_on_c, 1, 52, 0
4, 53280, Note_on_c, 1, 54, 90
4, 53280, Note_on_c, 1, 50, 90
4, 53325, Note_on_c, 1, 54, 0
4, 53325, Note_on_c, 1, 50, 0
4, 53328, Note_on_c, 1, 66, 88
4, 53328, Note_on_c, 1, 62, 88
4, 53376, Note_on_c, 1, 66, 0
4, 53376, Note_on_c, 1, 62, 0
4, 53376, Note_on_c, 1, 67, 86
4, 53376, Note_on_c, 1, 64, 86
4, 53396, Note_on_c, 1, 67, 0
4, 53396, Note_on_c, 1, 64, 0
4, 53472, Note_on_c, 1, 69, 83
4, 53472, Note_on_c, 1, 66, 83
4, 53520, Note_on_c, 1, 69, 0
4, 53520, Note_on_c, 1, 66, 0
4, 53520, Note_on_c, 1, 70, 81
4, 53520, Note_on_c, 1, 67, 81
4, 53540, Note_on_c, 1, 70, 0
4, 53540, Note_on_c, 1, 67, 0
4, 53616, Note_on_c, 1, 72, 78
4, 53616, Note_on_c, 1, 69, 78
4, 53664, Note_on_c, 1, 72, 0
4, 53664, Note_on_c, 1, 69, 0
4, 53664, Note_on_c, 1, 70, 76
4, 53664, Note_on_c, 1, 67, 76
4, 53684, Note_on_c, 1, 70, 0
4, 53684, Note_on_c, 1, 67, 0
4, 53760, Note_on_c, 1, 69, 73
4, 53760, Note_on_c, 1, 66, 73
4, 53808, Note_on_c, 1, 69, 0
4, 53808, Note_on_c, 1, 66, 0
4, 53808, Note_on_c, 1, 67, 71
4, 53808, Note_on_c, 1, 64, 71
4, 53828, Note_on_c, 1, 67, 0
4, 53828, Note_on_c, 1, 64, 0
4, 53856, Note_on_c, 1, 66, 70
4, 53856, Note_on_c, 1, 62, 70
4, 53945, Note_on_c, 1, 66, 0
4, 53945, Note_on_c, 1, 62, 0
4, 54288, Note_on_c, 1, 81, 62
4, 54308, Note_on_c, 1, 81, 0
4, 54336, Note_on_c, 1, 81, 62
4, 54356, Note_on_c, 1, 81, 0
4, 54384, Note_on_c, 1, 81, 62
4, 54404, Note_on_c, 1, 81, 0
4, 54432, Note_on_c, 1, 81, 62
4, 54432, Note_on_c, 1, 78, 62
4, 54452, Note_on_c, 1, 81, 0
4, 54452, Note_on_c, 1, 78, 0
4, 54480, Note_on_c, 1, 81, 62
4, 54480, Note_on_c, 1, 78, 62
4, 54500, Note_on_c, 1, 81, 0
4, 54500, Note_on_c, 1, 78, 0
4, 54528, Note_on_c, 1, 81, 62
4, 54528, Note_on_c, 1, 78, 62
4, 54548, Note_on_c, 1, 81, 0
4, 54548, Note_on_c, 1, 78, 0
4, 54576, Note_on_c, 1, 81, 62
4, 54576, Note_on_c, 1, 78, 62
4, 54576, Note_on_c, 1, 74, 62
4, 54709, Note_on_c, 1, 81, 0
4, 54709, Note_on_c, 1, 78, 0
4, 54709, Note_on_c, 1, 74, 0
4, 54816, Note_on_c, 1, 69, 55
4, 54816, Note_on_c, 1, 66, 55
4, 54826, Note_on_c, 1, 69, 0
4, 54826, Note_on_c, 1, 66, 0
4, 54864, Note_on_c, 1, 69, 55
4, 54864, Note_on_c, 1, 66, 55
4, 54942, Note_on_c, 1, 69, 0
4, 54942, Note_on_c, 1, 66, 0
4, 54960, Note_on_c, 1, 59, 62
4, 54960, Note_on_c, 1, 55, 62
4, 54980, Note_on_c, 1, 59, 0
4, 54980, Note_on_c, 1, 55, 0
4, 55008, Note_on_c, 1, 59, 62
4, 55008, Note_on_c, 1, 55, 62
4, 55097, Note_on_c, 1, 59, 0
4, 55097, Note_on_c, 1, 55, 0
4, 55104, Note_on_c, 1, 60, 62
4, 55104, Note_on_c, 1, 55, 62
4, 55124, Note_on_c, 1, 60, 0
4, 55124, Note_on_c, 1, 55, 0
4, 55152, Note_on_c, 1, 60, 62
4, 55152, Note_on_c, 1, 55, 62
4, 55241, Note_on_c, 1, 60, 0
4, 55241, Note_on_c, 1, 55, 0
4, 55248, Note_on_c, 1, 60, 62
4, 55248, Note_on_c, 1, 55, 62
4, 55268, Note_on_c, 1, 60, 0
4, 55268, Note_on_c, 1, 55, 0
4, 55296, Note_on_c, 1, 59, 62
4, 55296, Note_on_c, 1, 55, 62
4, 55316, Note_on_c, 1, 59, 0
4, 55316, Note_on_c, 1, 55, 0
4, 55344, Note_on_c, 1, 59, 62
4, 55344, Note_on_c, 1, 55, 62
4, 55364, Note_on_c, 1, 59, 0
4, 55364, Note_on_c, 1, 55, 0
4, 55392, Note_on_c, 1, 59, 62
4, 55392, Note_on_c, 1, 55, 62
4, 55412, Note_on_c, 1, 59, 0
4, 55412, Note_on_c, 1, 55, 0
4, 55440, Note_on_c, 1, 59, 62
4, 55440, Note_on_c, 1, 55, 62
4, 55529, Note_on_c, 1, 59, 0
4, 55529, Note_on_c, 1, 55, 0
4, 55536, Note_on_c, 1, 50, 84
4, 55581, Note_on_c, 1, 50, 0
4, 55584, Note_on_c, 1, 59, 84
4, 55584, Note_on_c, 1, 55, 84
4, 55629, Note_on_c, 1, 59, 0
4, 55629, Note_on_c, 1, 55, 0
4, 55680, Note_on_c, 1, 43, 84
4, 55686, Note_on_c, 1, 47, 84
4, 55692, Note_on_c, 1, 50, 84
4, 55698, Note_on_c, 1, 55, 84
4, 55725, Note_on_c, 1, 55, 0
4, 55725, Note_on_c, 1, 50, 0
4, 55725, Note_on_c, 1, 47, 0
4, 55725, Note_on_c, 1, 43, 0
4, 55728, Note_on_c, 1, 45, 84
4, 55734, Note_on_c, 1, 48, 84
4, 55740, Note_on_c, 1, 54, 84
4, 55746, Note_on_c, 1, 57, 84
4, 55821, Note_on_c, 1, 57, 0
4, 55821, Note_on_c, 1, 54, 0
4, 55821, Note_on_c, 1, 48, 0
4, 55821, Note_on_c, 1, 45, 0
4, 55824, Note_on_c, 1, 55, 84
4, 55824, Note_on_c, 1, 50, 84
4, 55824, Note_on_c, 1, 47, 84
4, 55869, Note_on_c, 1, 55, 0
4, 55869, Note_on_c, 1, 50, 0
4, 55869, Note_on_c, 1, 47, 0
4, 56016, Note_on_c, 1, 50, 90
4, 56016, Note_on_c, 1, 45, 90
4, 56016, Note_on_c, 1, 42, 90
4, 56016, Note_on_c, 1, 38, 90
4, 56105, Note_on_c, 1, 50, 0
4, 56105, Note_on_c, 1, 45, 0
4, 56105, Note_on_c, 1, 42, 0
4, 56105, Note_on_c, 1, 38, 0
4, 56112, Note_on_c, 1, 64, 84
4, 56132, Note_on_c, 1, 64, 0
4, 56160, Note_on_c, 1, 60, 84
4, 56208, Note_on_c, 1, 60, 0
4, 56208, Note_on_c, 1, 59, 78
4, 56253, Note_on_c, 1, 59, 0
4, 56256, Note_on_c, 1, 57, 73
4, 56276, Note_on_c, 1, 57, 0
4, 56304, Note_on_c, 1, 57, 67
4, 56349, Note_on_c, 1, 57, 0
4, 56400, Note_on_c, 1, 62, 84
4, 56420, Note_on_c, 1, 62, 0
4, 56448, Note_on_c, 1, 59, 84
4, 56496, Note_on_c, 1, 59, 0
4, 56496, Note_on_c, 1, 57, 78
4, 56541, Note_on_c, 1, 57, 0
4, 56544, Note_on_c, 1, 55, 73
4, 56564, Note_on_c, 1, 55, 0
4, 56592, Note_on_c, 1, 55, 67
4, 56637, Note_on_c, 1, 55, 0
4, 56688, Note_on_c, 1, 52, 62
4, 56733, Note_on_c, 1, 52, 0
4, 56736, Note_on_c, 1, 48, 62
4, 56756, Note_on_c, 1, 48, 0
4, 56880, Note_on_c, 1, 50, 62
4, 56900, Note_on_c, 1, 50, 0
4, 57024, Note_on_c, 1, 55, 62
4, 57034, Note_on_c, 1, 55, 0
4, 57072, Note_on_c, 1, 50, 62
4, 57082, Note_on_c, 1, 50, 0
4, 57120, Note_on_c, 1, 47, 62
4, 57130, Note_on_c, 1, 47, 0
4, 57168, Note_on_c, 1, 43, 84
4, 57174, Note_on_c, 1, 47, 84
4, 57180, Note_on_c, 1, 50, 84
4, 57186, Note_on_c, 1, 55, 84
4, 57305, Note_on_c, 1, 55, 0
4, 57305, Note_on_c, 1, 50, 0
4, 57305, Note_on_c, 1, 47, 0
4, 57305, Note_on_c, 1, 43, 0
4, 57312, Note_on_c, 1, 43, 0
4, 57401, Note_on_c, 1, 43, 0
4, 57408, End_track
5, 0, Start_track
5, 0, Program_c, 1, 0
5, 0, Control_c, 1, 7, 127
5, 0, Control_c, 1, 10, 64
5, 1728, Note_on_c, 1, 55, 70
5, 1993, Note_on_c, 1, 55, 0
5, 2016, Note_on_c, 1, 55, 73
5, 2061, Note_on_c, 1, 55, 0
5, 2064, Note_on_c, 1, 55, 74
5, 2109, Note_on_c, 1, 55, 0
5, 2112, Note_on_c, 1, 54, 75
5, 2157, Note_on_c, 1, 54, 0
5, 2160, Note_on_c, 1, 52, 75
5, 2249, Note_on_c, 1, 52, 0
5, 2304, Note_on_c, 1, 62, 62
5, 2437, Note_on_c, 1, 62, 0
5, 4032, Note_on_c, 1, 55, 70
5, 4297, Note_on_c, 1, 55, 0
5, 4320, Note_on_c, 1, 55, 73
5, 4365, Note_on_c, 1, 55, 0
5, 4368, Note_on_c, 1, 55, 74
5, 4413, Note_on_c, 1, 55, 0
5, 4416, Note_on_c, 1, 54, 75
5, 4461, Note_on_c, 1, 54, 0
5, 4464, Note_on_c, 1, 52, 75
5, 4553, Note_on_c, 1, 52, 0
5, 4608, Note_on_c, 1, 62, 62
5, 4741, Note_on_c, 1, 62, 0
5, 5328, Note_on_c, 1, 57, 77
5, 5373, Note_on_c, 1, 57, 0
5, 5376, Note_on_c, 1, 59, 79
5, 5421, Note_on_c, 1, 59, 0
5, 5424, Note_on_c, 1, 60, 81
5, 5469, Note_on_c, 1, 60, 0
5, 5616, Note_on_c, 1, 67, 84
5, 5661, Note_on_c, 1, 67, 0
5, 5664, Note_on_c, 1, 66, 81
5, 5709, Note_on_c, 1, 66, 0
5, 5712, Note_on_c, 1, 64, 79
5, 5757, Note_on_c, 1, 64, 0
5, 6768, Note_on_c, 1, 62, 62
5, 6901, Note_on_c, 1, 62, 0
5, 9936, Note_on_c, 1, 57, 77
5, 9981, Note_on_c, 1, 57, 0
5, 9984, Note_on_c, 1, 59, 79
5, 10029, Note_on_c, 1, 59, 0
5, 10032, Note_on_c, 1, 60, 81
5, 10077, Note_on_c, 1, 60, 0
5, 10224, Note_on_c, 1, 67, 84
5, 10269, Note_on_c, 1, 67, 0
5, 10272, Note_on_c, 1, 66, 81
5, 10317, Note_on_c, 1, 66, 0
5, 10320, Note_on_c, 1, 64, 79
5, 10365, Note_on_c, 1, 64, 0
5, 11376, Note_on_c, 1, 62, 62
5, 11509, Note_on_c, 1, 62, 0
5, 18720, Note_on_c, 1, 60, 84
5, 18853, Note_on_c, 1, 60, 0
5, 18864, Note_on_c, 1, 62, 73
5, 18997, Note_on_c, 1, 62, 0
5, 20448, Note_on_c, 1, 60, 84
5, 20581, Note_on_c, 1, 60, 0
5, 20592, Note_on_c, 1, 62, 73
5, 20725, Note_on_c, 1, 62, 0
5, 21312, Note_on_c, 1, 55, 62
5, 21501, Note_on_c, 1, 55, 0
5, 23616, Note_on_c, 1, 55, 62
5, 23805, Note_on_c, 1, 55, 0
5, 28224, Note_on_c, 1, 55, 62
5, 28413, Note_on_c, 1, 55, 0
5, 32832, Note_on_c, 1, 55, 62
5, 33021, Note_on_c, 1, 55, 0
5, 39168, Note_on_c, 1, 54, 84
5, 39301, Note_on_c, 1, 54, 0
5, 39312, Note_on_c, 1, 55, 84
5, 39357, Note_on_c, 1, 55, 0
5, 39360, Note_on_c, 1, 57, 84
5, 39405, Note_on_c, 1, 57, 0
5, 39408, Note_on_c, 1, 58, 84
5, 39453, Note_on_c, 1, 58, 0
5, 39456, Note_on_c, 1, 60, 84
5, 39589, Note_on_c, 1, 60, 0
5, 39600, Note_on_c, 1, 50, 73
5, 39733, Note_on_c, 1, 50, 0
5, 40896, Note_on_c, 1, 54, 84
5, 41029, Note_on_c, 1, 54, 0
5, 41040, Note_on_c, 1, 55, 84
5, 41085, Note_on_c, 1, 55, 0
5, 41088, Note_on_c, 1, 57, 84
5, 41133, Note_on_c, 1, 57, 0
5, 41136, Note_on_c, 1, 58, 84
5, 41181, Note_on_c, 1, 58, 0
5, 41184, Note_on_c, 1, 60, 84
5, 41317, Note_on_c, 1, 60, 0
5, 41328, Note_on_c, 1, 50, 73
5, 41461, Note_on_c, 1, 50, 0
5, 43152, Note_on_c, 1, 62, 84
5, 43289, Note_on_c, 1, 62, 0
5, 43296, Note_on_c, 1, 65, 84
5, 43341, Note_on_c, 1, 65, 0
5, 43344, Note_on_c, 1, 64, 84
5, 43389, Note_on_c, 1, 64, 0
5, 43392, Note_on_c, 1, 62, 82
5, 43437, Note_on_c, 1, 62, 0
5, 43440, Note_on_c, 1, 60, 80
5, 43485, Note_on_c, 1, 60, 0
5, 43488, Note_on_c, 1, 59, 78
5, 43533, Note_on_c, 1, 59, 0
5, 43536, Note_on_c, 1, 57, 76
5, 43581, Note_on_c, 1, 57, 0
5, 43584, Note_on_c, 1, 60, 74
5, 43629, Note_on_c, 1, 60, 0
5, 43632, Note_on_c, 1, 59, 73
5, 43677, Note_on_c, 1, 59, 0
5, 43680, Note_on_c, 1, 67, 71
5, 43821, Note_on_c, 1, 67, 0
5, 43824, Note_on_c, 1, 66, 65
5, 43869, Note_on_c, 1, 66, 0
5, 43872, Note_on_c, 1, 66, 63
5, 43917, Note_on_c, 1, 66, 0
5, 43920, Note_on_c, 1, 66, 62
5, 43965, Note_on_c, 1, 66, 0
5, 45456, Note_on_c, 1, 62, 84
5, 45593, Note_on_c, 1, 62, 0
5, 45600, Note_on_c, 1, 65, 84
5, 45645, Note_on_c, 1, 65, 0
5, 45648, Note_on_c, 1, 64, 84
5, 45693, Note_on_c, 1, 64, 0
5, 45696, Note_on_c, 1, 62, 82
5, 45741, Note_on_c, 1, 62, 0
5, 45744, Note_on_c, 1, 60, 80
5, 45789, Note_on_c, 1, 60, 0
5, 45792, Note_on_c, 1, 59, 78
5, 45837, Note_on_c, 1, 59, 0
5, 45840, Note_on_c, 1, 57, 76
5, 45885, Note_on_c, 1, 57, 0
5, 45888, Note_on_c, 1, 60, 74
5, 45933, Note_on_c, 1, 60, 0
5, 45936, Note_on_c, 1, 59, 73
5, 45981, Note_on_c, 1, 59, 0
5, 45984, Note_on_c, 1, 67, 71
5, 46080, Note_on_c, 1, 67, 67
5, 46125, Note_on_c, 1, 67, 0
5, 46128, Note_on_c, 1, 66, 65
5, 46173, Note_on_c, 1, 66, 0
5, 46176, Note_on_c, 1, 66, 63
5, 46221, Note_on_c, 1, 66, 0
5, 46224, Note_on_c, 1, 66, 62
5, 46269, Note_on_c, 1, 66, 0
5, 57312, End_track
6, 0, Start_track
6, 0, Title_t, "Sonata I   Haydn  "
6, 0, End_track
0, 0, End_of_file
