0, 0, Header, 1, 6, 96
1, 0, Start_track
1, 0, Copyright_t, "Copyright  1994-2002 Mozart Music Software"
1, 0, Text_t, "Sonata I\015\012"
1, 0, Text_t, "Haydn\015\012"
1, 0, Sequencer_specific, 16, 68, 87, 77, 90, 86, 82, 83, 78, 32, 55, 46, 48, 46, 55, 46, 48
1, 0, Time_signature, 2, 2, 24, 8
1, 0, Tempo, 1090909
1, 0, Key_signature, 3, "major"
1, 21120, End_track
2, 0, Start_track
2, 0, Program_c, 0, 0
2, 0, Control_c, 0, 7, 127
2, 0, Control_c, 0, 10, 64
2, 0, Note_on_c, 0, 83, 80
2, 6, Note_on_c, 0, 83, 0
2, 6, Note_on_c, 0, 81, 80
2, 12, Note_on_c, 0, 81, 0
2, 12, Note_on_c, 0, 80, 80
2, 18, Note_on_c, 0, 80, 0
2, 18, Note_on_c, 0, 81, 80
2, 111, Note_on_c, 0, 81, 0
2, 112, Note_on_c, 0, 80, 80
2, 127, Note_on_c, 0, 80, 0
2, 128, Note_on_c, 0, 78, 80
2, 143, Note_on_c, 0, 78, 0
2, 144, Note_on_c, 0, 76, 80
2, 159, Note_on_c, 0, 76, 0
2, 160, Note_on_c, 0, 74, 80
2, 175, Note_on_c, 0, 74, 0
2, 176, Note_on_c, 0, 73, 80
2, 191, Note_on_c, 0, 73, 0
2, 192, Note_on_c, 0, 71, 80
2, 207, Note_on_c, 0, 71, 0
2, 208, Note_on_c, 0, 76, 80
2, 223, Note_on_c, 0, 76, 0
2, 224, Note_on_c, 0, 74, 80
2, 239, Note_on_c, 0, 74, 0
2, 240, Note_on_c, 0, 74, 80
2, 285, Note_on_c, 0, 74, 0
2, 288, Note_on_c, 0, 74, 80
2, 294, Note_on_c, 0, 74, 0
2, 294, Note_on_c, 0, 76, 80
2, 300, Note_on_c, 0, 76, 0
2, 300, Note_on_c, 0, 74, 80
2, 306, Note_on_c, 0, 74, 0
2, 306, Note_on_c, 0, 73, 80
2, 321, Note_on_c, 0, 73, 0
2, 321, Note_on_c, 0, 74, 80
2, 336, Note_on_c, 0, 74, 0
2, 336, Note_on_c, 0, 74, 80
2, 342, Note_on_c, 0, 74, 0
2, 342, Note_on_c, 0, 76, 80
2, 348, Note_on_c, 0, 76, 0
2, 348, Note_on_c, 0, 74, 80
2, 354, Note_on_c, 0, 74, 0
2, 354, Note_on_c, 0, 73, 80
2, 369, Note_on_c, 0, 73, 0
2, 369, Note_on_c, 0, 74, 80
2, 384, Note_on_c, 0, 74, 0
2, 384, Note_on_c, 0, 74, 80
2, 429, Note_on_c, 0, 74, 0
2, 432, Note_on_c, 0, 83, 80
2, 495, Note_on_c, 0, 83, 0
2, 496, Note_on_c, 0, 81, 80
2, 511, Note_on_c, 0, 81, 0
2, 512, Note_on_c, 0, 80, 80
2, 527, Note_on_c, 0, 80, 0
2, 528, Note_on_c, 0, 78, 80
2, 543, Note_on_c, 0, 78, 0
2, 544, Note_on_c, 0, 76, 80
2, 559, Note_on_c, 0, 76, 0
2, 560, Note_on_c, 0, 74, 80
2, 575, Note_on_c, 0, 74, 0
2, 576, Note_on_c, 0, 73, 80
2, 591, Note_on_c, 0, 73, 0
2, 592, Note_on_c, 0, 76, 80
2, 607, Note_on_c, 0, 76, 0
2, 608, Note_on_c, 0, 68, 80
2, 623, Note_on_c, 0, 68, 0
2, 624, Note_on_c, 0, 69, 80
2, 669, Note_on_c, 0, 69, 0
2, 768, Note_on_c, 0, 69, 80
2, 783, Note_on_c, 0, 69, 0
2, 784, Note_on_c, 0, 73, 80
2, 799, Note_on_c, 0, 73, 0
2, 800, Note_on_c, 0, 69, 80
2, 815, Note_on_c, 0, 69, 0
2, 816, Note_on_c, 0, 76, 80
2, 831, Note_on_c, 0, 76, 0
2, 832, Note_on_c, 0, 73, 80
2, 847, Note_on_c, 0, 73, 0
2, 848, Note_on_c, 0, 69, 80
2, 863, Note_on_c, 0, 69, 0
2, 864, Note_on_c, 0, 74, 80
2, 879, Note_on_c, 0, 74, 0
2, 880, Note_on_c, 0, 71, 80
2, 895, Note_on_c, 0, 71, 0
2, 896, Note_on_c, 0, 68, 80
2, 911, Note_on_c, 0, 68, 0
2, 912, Note_on_c, 0, 62, 80
2, 927, Note_on_c, 0, 62, 0
2, 928, Note_on_c, 0, 68, 80
2, 943, Note_on_c, 0, 68, 0
2, 944, Note_on_c, 0, 62, 80
2, 959, Note_on_c, 0, 62, 0
2, 960, Note_on_c, 0, 61, 80
2, 975, Note_on_c, 0, 61, 0
2, 976, Note_on_c, 0, 64, 80
2, 991, Note_on_c, 0, 64, 0
2, 992, Note_on_c, 0, 69, 80
2, 1007, Note_on_c, 0, 69, 0
2, 1008, Note_on_c, 0, 73, 80
2, 1023, Note_on_c, 0, 73, 0
2, 1024, Note_on_c, 0, 76, 80
2, 1039, Note_on_c, 0, 76, 0
2, 1040, Note_on_c, 0, 69, 80
2, 1055, Note_on_c, 0, 69, 0
2, 1056, Note_on_c, 0, 74, 80
2, 1071, Note_on_c, 0, 74, 0
2, 1072, Note_on_c, 0, 71, 80
2, 1087, Note_on_c, 0, 71, 0
2, 1088, Note_on_c, 0, 68, 80
2, 1103, Note_on_c, 0, 68, 0
2, 1104, Note_on_c, 0, 62, 80
2, 1119, Note_on_c, 0, 62, 0
2, 1120, Note_on_c, 0, 68, 80
2, 1135, Note_on_c, 0, 68, 0
2, 1136, Note_on_c, 0, 62, 80
2, 1151, Note_on_c, 0, 62, 0
2, 1152, Note_on_c, 0, 61, 75
2, 1167, Note_on_c, 0, 61, 0
2, 1168, Note_on_c, 0, 64, 75
2, 1183, Note_on_c, 0, 64, 0
2, 1184, Note_on_c, 0, 69, 75
2, 1199, Note_on_c, 0, 69, 0
2, 1200, Note_on_c, 0, 64, 76
2, 1215, Note_on_c, 0, 64, 0
2, 1216, Note_on_c, 0, 69, 76
2, 1231, Note_on_c, 0, 69, 0
2, 1232, Note_on_c, 0, 73, 76
2, 1247, Note_on_c, 0, 73, 0
2, 1248, Note_on_c, 0, 69, 77
2, 1263, Note_on_c, 0, 69, 0
2, 1264, Note_on_c, 0, 73, 77
2, 1279, Note_on_c, 0, 73, 0
2, 1280, Note_on_c, 0, 76, 78
2, 1295, Note_on_c, 0, 76, 0
2, 1296, Note_on_c, 0, 73, 78
2, 1311, Note_on_c, 0, 73, 0
2, 1312, Note_on_c, 0, 76, 80
2, 1327, Note_on_c, 0, 76, 0
2, 1328, Note_on_c, 0, 81, 80
2, 1343, Note_on_c, 0, 81, 0
2, 1344, Note_on_c, 0, 64, 75
2, 1359, Note_on_c, 0, 64, 0
2, 1360, Note_on_c, 0, 68, 75
2, 1375, Note_on_c, 0, 68, 0
2, 1376, Note_on_c, 0, 71, 75
2, 1391, Note_on_c, 0, 71, 0
2, 1392, Note_on_c, 0, 68, 75
2, 1407, Note_on_c, 0, 68, 0
2, 1408, Note_on_c, 0, 71, 76
2, 1423, Note_on_c, 0, 71, 0
2, 1424, Note_on_c, 0, 76, 76
2, 1439, Note_on_c, 0, 76, 0
2, 1440, Note_on_c, 0, 71, 76
2, 1455, Note_on_c, 0, 71, 0
2, 1456, Note_on_c, 0, 76, 77
2, 1471, Note_on_c, 0, 76, 0
2, 1472, Note_on_c, 0, 80, 77
2, 1487, Note_on_c, 0, 80, 0
2, 1488, Note_on_c, 0, 76, 77
2, 1503, Note_on_c, 0, 76, 0
2, 1504, Note_on_c, 0, 80, 77
2, 1519, Note_on_c, 0, 80, 0
2, 1520, Note_on_c, 0, 83, 78
2, 1535, Note_on_c, 0, 83, 0
2, 1536, Note_on_c, 0, 81, 78
2, 1543, Note_on_c, 0, 81, 0
2, 1552, Note_on_c, 0, 81, 78
2, 1567, Note_on_c, 0, 81, 0
2, 1568, Note_on_c, 0, 80, 79
2, 1583, Note_on_c, 0, 80, 0
2, 1584, Note_on_c, 0, 78, 79
2, 1591, Note_on_c, 0, 78, 0
2, 1600, Note_on_c, 0, 78, 79
2, 1615, Note_on_c, 0, 78, 0
2, 1616, Note_on_c, 0, 76, 80
2, 1631, Note_on_c, 0, 76, 0
2, 1632, Note_on_c, 0, 75, 79
2, 1639, Note_on_c, 0, 75, 0
2, 1648, Note_on_c, 0, 75, 79
2, 1663, Note_on_c, 0, 75, 0
2, 1664, Note_on_c, 0, 73, 79
2, 1679, Note_on_c, 0, 73, 0
2, 1680, Note_on_c, 0, 71, 78
2, 1687, Note_on_c, 0, 71, 0
2, 1696, Note_on_c, 0, 71, 78
2, 1711, Note_on_c, 0, 71, 0
2, 1712, Note_on_c, 0, 69, 78
2, 1727, Note_on_c, 0, 69, 0
2, 1728, Note_on_c, 0, 68, 78
2, 1743, Note_on_c, 0, 68, 0
2, 1744, Note_on_c, 0, 66, 77
2, 1759, Note_on_c, 0, 66, 0
2, 1760, Note_on_c, 0, 64, 77
2, 1775, Note_on_c, 0, 64, 0
2, 1776, Note_on_c, 0, 71, 75
2, 1791, Note_on_c, 0, 71, 0
2, 1792, Note_on_c, 0, 73, 75
2, 1807, Note_on_c, 0, 73, 0
2, 1808, Note_on_c, 0, 74, 75
2, 1823, Note_on_c, 0, 74, 0
2, 1824, Note_on_c, 0, 73, 75
2, 1839, Note_on_c, 0, 73, 0
2, 1840, Note_on_c, 0, 71, 75
2, 1855, Note_on_c, 0, 71, 0
2, 1856, Note_on_c, 0, 69, 75
2, 1871, Note_on_c, 0, 69, 0
2, 1872, Note_on_c, 0, 81, 75
2, 1887, Note_on_c, 0, 81, 0
2, 1888, Note_on_c, 0, 80, 73
2, 1903, Note_on_c, 0, 80, 0
2, 1904, Note_on_c, 0, 78, 72
2, 1919, Note_on_c, 0, 78, 0
2, 1920, Note_on_c, 0, 76, 70
2, 1968, Note_on_c, 0, 76, 0
2, 1968, Note_on_c, 0, 75, 70
2, 2009, Note_on_c, 0, 75, 0
2, 2016, Note_on_c, 0, 73, 70
2, 2023, Note_on_c, 0, 73, 0
2, 2023, Note_on_c, 0, 71, 70
2, 2030, Note_on_c, 0, 71, 0
2, 2030, Note_on_c, 0, 73, 70
2, 2037, Note_on_c, 0, 73, 0
2, 2037, Note_on_c, 0, 71, 70
2, 2044, Note_on_c, 0, 71, 0
2, 2044, Note_on_c, 0, 73, 70
2, 2051, Note_on_c, 0, 73, 0
2, 2051, Note_on_c, 0, 71, 70
2, 2058, Note_on_c, 0, 71, 0
2, 2058, Note_on_c, 0, 73, 70
2, 2065, Note_on_c, 0, 73, 0
2, 2065, Note_on_c, 0, 71, 70
2, 2072, Note_on_c, 0, 71, 0
2, 2072, Note_on_c, 0, 73, 70
2, 2079, Note_on_c, 0, 73, 0
2, 2079, Note_on_c, 0, 71, 70
2, 2086, Note_on_c, 0, 71, 0
2, 2086, Note_on_c, 0, 73, 70
2, 2093, Note_on_c, 0, 73, 0
2, 2093, Note_on_c, 0, 71, 70
2, 2100, Note_on_c, 0, 71, 0
2, 2100, Note_on_c, 0, 73, 70
2, 2106, Note_on_c, 0, 73, 0
2, 2106, Note_on_c, 0, 71, 70
2, 2127, Note_on_c, 0, 71, 0
2, 2128, Note_on_c, 0, 83, 69
2, 2143, Note_on_c, 0, 83, 0
2, 2144, Note_on_c, 0, 81, 68
2, 2159, Note_on_c, 0, 81, 0
2, 2160, Note_on_c, 0, 80, 67
2, 2175, Note_on_c, 0, 80, 0
2, 2176, Note_on_c, 0, 78, 67
2, 2191, Note_on_c, 0, 78, 0
2, 2192, Note_on_c, 0, 76, 66
2, 2207, Note_on_c, 0, 76, 0
2, 2208, Note_on_c, 0, 73, 64
2, 2215, Note_on_c, 0, 73, 0
2, 2215, Note_on_c, 0, 71, 64
2, 2222, Note_on_c, 0, 71, 0
2, 2222, Note_on_c, 0, 73, 64
2, 2229, Note_on_c, 0, 73, 0
2, 2229, Note_on_c, 0, 71, 64
2, 2236, Note_on_c, 0, 71, 0
2, 2236, Note_on_c, 0, 73, 64
2, 2243, Note_on_c, 0, 73, 0
2, 2243, Note_on_c, 0, 71, 64
2, 2250, Note_on_c, 0, 71, 0
2, 2250, Note_on_c, 0, 73, 64
2, 2257, Note_on_c, 0, 73, 0
2, 2257, Note_on_c, 0, 71, 64
2, 2264, Note_on_c, 0, 71, 0
2, 2264, Note_on_c, 0, 73, 64
2, 2271, Note_on_c, 0, 73, 0
2, 2271, Note_on_c, 0, 71, 64
2, 2278, Note_on_c, 0, 71, 0
2, 2278, Note_on_c, 0, 73, 64
2, 2285, Note_on_c, 0, 73, 0
2, 2285, Note_on_c, 0, 71, 64
2, 2292, Note_on_c, 0, 71, 0
2, 2292, Note_on_c, 0, 73, 64
2, 2298, Note_on_c, 0, 73, 0
2, 2298, Note_on_c, 0, 71, 64
2, 2319, Note_on_c, 0, 71, 0
2, 2320, Note_on_c, 0, 83, 64
2, 2335, Note_on_c, 0, 83, 0
2, 2336, Note_on_c, 0, 81, 64
2, 2351, Note_on_c, 0, 81, 0
2, 2352, Note_on_c, 0, 80, 64
2, 2367, Note_on_c, 0, 80, 0
2, 2368, Note_on_c, 0, 78, 64
2, 2383, Note_on_c, 0, 78, 0
2, 2384, Note_on_c, 0, 76, 64
2, 2399, Note_on_c, 0, 76, 0
2, 2400, Note_on_c, 0, 85, 80
2, 2448, Note_on_c, 0, 85, 0
2, 2448, Note_on_c, 0, 78, 64
2, 2463, Note_on_c, 0, 78, 0
2, 2464, Note_on_c, 0, 80, 64
2, 2479, Note_on_c, 0, 80, 0
2, 2480, Note_on_c, 0, 81, 64
2, 2495, Note_on_c, 0, 81, 0
2, 2496, Note_on_c, 0, 83, 86
2, 2544, Note_on_c, 0, 83, 0
2, 2544, Note_on_c, 0, 76, 70
2, 2559, Note_on_c, 0, 76, 0
2, 2560, Note_on_c, 0, 78, 70
2, 2575, Note_on_c, 0, 78, 0
2, 2576, Note_on_c, 0, 80, 70
2, 2591, Note_on_c, 0, 80, 0
2, 2592, Note_on_c, 0, 81, 70
2, 2607, Note_on_c, 0, 81, 0
2, 2608, Note_on_c, 0, 80, 70
2, 2623, Note_on_c, 0, 80, 0
2, 2624, Note_on_c, 0, 78, 70
2, 2639, Note_on_c, 0, 78, 0
2, 2640, Note_on_c, 0, 80, 70
2, 2655, Note_on_c, 0, 80, 0
2, 2656, Note_on_c, 0, 78, 71
2, 2671, Note_on_c, 0, 78, 0
2, 2672, Note_on_c, 0, 76, 71
2, 2687, Note_on_c, 0, 76, 0
2, 2688, Note_on_c, 0, 75, 71
2, 2703, Note_on_c, 0, 75, 0
2, 2704, Note_on_c, 0, 76, 72
2, 2719, Note_on_c, 0, 76, 0
2, 2720, Note_on_c, 0, 78, 72
2, 2735, Note_on_c, 0, 78, 0
2, 2736, Note_on_c, 0, 76, 72
2, 2751, Note_on_c, 0, 76, 0
2, 2752, Note_on_c, 0, 78, 73
2, 2767, Note_on_c, 0, 78, 0
2, 2768, Note_on_c, 0, 80, 73
2, 2783, Note_on_c, 0, 80, 0
2, 2784, Note_on_c, 0, 81, 75
2, 2799, Note_on_c, 0, 81, 0
2, 2800, Note_on_c, 0, 80, 75
2, 2815, Note_on_c, 0, 80, 0
2, 2816, Note_on_c, 0, 78, 76
2, 2831, Note_on_c, 0, 78, 0
2, 2832, Note_on_c, 0, 80, 76
2, 2847, Note_on_c, 0, 80, 0
2, 2848, Note_on_c, 0, 78, 77
2, 2863, Note_on_c, 0, 78, 0
2, 2864, Note_on_c, 0, 76, 78
2, 2879, Note_on_c, 0, 76, 0
2, 2880, Note_on_c, 0, 81, 80
2, 2895, Note_on_c, 0, 81, 0
2, 2896, Note_on_c, 0, 78, 80
2, 2911, Note_on_c, 0, 78, 0
2, 2912, Note_on_c, 0, 71, 80
2, 2927, Note_on_c, 0, 71, 0
2, 2928, Note_on_c, 0, 80, 80
2, 2943, Note_on_c, 0, 80, 0
2, 2944, Note_on_c, 0, 76, 80
2, 2959, Note_on_c, 0, 76, 0
2, 2960, Note_on_c, 0, 71, 80
2, 2975, Note_on_c, 0, 71, 0
2, 2976, Note_on_c, 0, 78, 75
2, 2982, Note_on_c, 0, 78, 0
2, 2982, Note_on_c, 0, 80, 75
2, 2988, Note_on_c, 0, 80, 0
2, 2988, Note_on_c, 0, 78, 75
2, 2994, Note_on_c, 0, 78, 0
2, 2994, Note_on_c, 0, 77, 75
2, 3009, Note_on_c, 0, 77, 0
2, 3009, Note_on_c, 0, 78, 75
2, 3024, Note_on_c, 0, 78, 0
2, 3024, Note_on_c, 0, 78, 75
2, 3030, Note_on_c, 0, 78, 0
2, 3030, Note_on_c, 0, 80, 75
2, 3036, Note_on_c, 0, 80, 0
2, 3036, Note_on_c, 0, 78, 75
2, 3042, Note_on_c, 0, 78, 0
2, 3042, Note_on_c, 0, 77, 75
2, 3057, Note_on_c, 0, 77, 0
2, 3057, Note_on_c, 0, 78, 75
2, 3072, Note_on_c, 0, 78, 0
2, 3072, Note_on_c, 0, 83, 75
2, 3087, Note_on_c, 0, 83, 0
2, 3088, Note_on_c, 0, 80, 75
2, 3103, Note_on_c, 0, 80, 0
2, 3104, Note_on_c, 0, 76, 75
2, 3119, Note_on_c, 0, 76, 0
2, 3120, Note_on_c, 0, 71, 75
2, 3135, Note_on_c, 0, 71, 0
2, 3136, Note_on_c, 0, 68, 75
2, 3151, Note_on_c, 0, 68, 0
2, 3152, Note_on_c, 0, 64, 75
2, 3167, Note_on_c, 0, 64, 0
2, 3168, Note_on_c, 0, 68, 75
2, 3175, Note_on_c, 0, 68, 0
2, 3175, Note_on_c, 0, 66, 75
2, 3182, Note_on_c, 0, 66, 0
2, 3182, Note_on_c, 0, 68, 75
2, 3189, Note_on_c, 0, 68, 0
2, 3189, Note_on_c, 0, 66, 75
2, 3196, Note_on_c, 0, 66, 0
2, 3196, Note_on_c, 0, 68, 75
2, 3203, Note_on_c, 0, 68, 0
2, 3203, Note_on_c, 0, 66, 75
2, 3210, Note_on_c, 0, 66, 0
2, 3210, Note_on_c, 0, 68, 75
2, 3217, Note_on_c, 0, 68, 0
2, 3217, Note_on_c, 0, 66, 75
2, 3224, Note_on_c, 0, 66, 0
2, 3224, Note_on_c, 0, 68, 75
2, 3231, Note_on_c, 0, 68, 0
2, 3231, Note_on_c, 0, 66, 75
2, 3238, Note_on_c, 0, 66, 0
2, 3238, Note_on_c, 0, 64, 75
2, 3252, Note_on_c, 0, 64, 0
2, 3252, Note_on_c, 0, 66, 75
2, 3264, Note_on_c, 0, 66, 0
2, 3264, Note_on_c, 0, 64, 75
2, 3309, Note_on_c, 0, 64, 0
2, 3312, Note_on_c, 0, 76, 70
2, 3319, Note_on_c, 0, 76, 0
2, 3328, Note_on_c, 0, 76, 70
2, 3343, Note_on_c, 0, 76, 0
2, 3344, Note_on_c, 0, 71, 70
2, 3359, Note_on_c, 0, 71, 0
2, 3360, Note_on_c, 0, 73, 70
2, 3367, Note_on_c, 0, 73, 0
2, 3376, Note_on_c, 0, 73, 70
2, 3391, Note_on_c, 0, 73, 0
2, 3392, Note_on_c, 0, 69, 70
2, 3407, Note_on_c, 0, 69, 0
2, 3408, Note_on_c, 0, 66, 70
2, 3423, Note_on_c, 0, 66, 0
2, 3424, Note_on_c, 0, 71, 70
2, 3439, Note_on_c, 0, 71, 0
2, 3440, Note_on_c, 0, 63, 70
2, 3455, Note_on_c, 0, 63, 0
2, 3456, Note_on_c, 0, 64, 70
2, 3501, Note_on_c, 0, 64, 0
2, 3504, Note_on_c, 0, 76, 70
2, 3511, Note_on_c, 0, 76, 0
2, 3520, Note_on_c, 0, 76, 70
2, 3535, Note_on_c, 0, 76, 0
2, 3536, Note_on_c, 0, 71, 70
2, 3551, Note_on_c, 0, 71, 0
2, 3552, Note_on_c, 0, 73, 70
2, 3559, Note_on_c, 0, 73, 0
2, 3568, Note_on_c, 0, 73, 70
2, 3583, Note_on_c, 0, 73, 0
2, 3584, Note_on_c, 0, 69, 70
2, 3599, Note_on_c, 0, 69, 0
2, 3600, Note_on_c, 0, 81, 70
2, 3607, Note_on_c, 0, 81, 0
2, 3616, Note_on_c, 0, 81, 70
2, 3631, Note_on_c, 0, 81, 0
2, 3632, Note_on_c, 0, 75, 70
2, 3647, Note_on_c, 0, 75, 0
2, 3648, Note_on_c, 0, 78, 70
2, 3654, Note_on_c, 0, 78, 0
2, 3654, Note_on_c, 0, 76, 70
2, 3660, Note_on_c, 0, 76, 0
2, 3660, Note_on_c, 0, 75, 70
2, 3666, Note_on_c, 0, 75, 0
2, 3666, Note_on_c, 0, 76, 70
2, 3781, Note_on_c, 0, 76, 0
2, 3840, Note_on_c, 0, 83, 80
2, 3846, Note_on_c, 0, 83, 0
2, 3846, Note_on_c, 0, 81, 80
2, 3852, Note_on_c, 0, 81, 0
2, 3852, Note_on_c, 0, 80, 80
2, 3858, Note_on_c, 0, 80, 0
2, 3858, Note_on_c, 0, 81, 80
2, 3951, Note_on_c, 0, 81, 0
2, 3952, Note_on_c, 0, 80, 80
2, 3967, Note_on_c, 0, 80, 0
2, 3968, Note_on_c, 0, 78, 80
2, 3983, Note_on_c, 0, 78, 0
2, 3984, Note_on_c, 0, 76, 80
2, 3999, Note_on_c, 0, 76, 0
2, 4000, Note_on_c, 0, 74, 80
2, 4015, Note_on_c, 0, 74, 0
2, 4016, Note_on_c, 0, 73, 80
2, 4031, Note_on_c, 0, 73, 0
2, 4032, Note_on_c, 0, 71, 80
2, 4047, Note_on_c, 0, 71, 0
2, 4048, Note_on_c, 0, 76, 80
2, 4063, Note_on_c, 0, 76, 0
2, 4064, Note_on_c, 0, 74, 80
2, 4079, Note_on_c, 0, 74, 0
2, 4080, Note_on_c, 0, 74, 80
2, 4125, Note_on_c, 0, 74, 0
2, 4128, Note_on_c, 0, 74, 80
2, 4134, Note_on_c, 0, 74, 0
2, 4134, Note_on_c, 0, 76, 80
2, 4140, Note_on_c, 0, 76, 0
2, 4140, Note_on_c, 0, 74, 80
2, 4146, Note_on_c, 0, 74, 0
2, 4146, Note_on_c, 0, 73, 80
2, 4161, Note_on_c, 0, 73, 0
2, 4161, Note_on_c, 0, 74, 80
2, 4176, Note_on_c, 0, 74, 0
2, 4176, Note_on_c, 0, 74, 80
2, 4182, Note_on_c, 0, 74, 0
2, 4182, Note_on_c, 0, 76, 80
2, 4188, Note_on_c, 0, 76, 0
2, 4188, Note_on_c, 0, 74, 80
2, 4194, Note_on_c, 0, 74, 0
2, 4194, Note_on_c, 0, 73, 80
2, 4209, Note_on_c, 0, 73, 0
2, 4209, Note_on_c, 0, 74, 80
2, 4224, Note_on_c, 0, 74, 0
2, 4224, Note_on_c, 0, 74, 80
2, 4269, Note_on_c, 0, 74, 0
2, 4272, Note_on_c, 0, 83, 80
2, 4335, Note_on_c, 0, 83, 0
2, 4336, Note_on_c, 0, 81, 80
2, 4351, Note_on_c, 0, 81, 0
2, 4352, Note_on_c, 0, 80, 80
2, 4367, Note_on_c, 0, 80, 0
2, 4368, Note_on_c, 0, 78, 80
2, 4383, Note_on_c, 0, 78, 0
2, 4384, Note_on_c, 0, 76, 80
2, 4399, Note_on_c, 0, 76, 0
2, 4400, Note_on_c, 0, 74, 80
2, 4415, Note_on_c, 0, 74, 0
2, 4416, Note_on_c, 0, 73, 80
2, 4431, Note_on_c, 0, 73, 0
2, 4432, Note_on_c, 0, 76, 80
2, 4447, Note_on_c, 0, 76, 0
2, 4448, Note_on_c, 0, 68, 80
2, 4463, Note_on_c, 0, 68, 0
2, 4464, Note_on_c, 0, 69, 80
2, 4509, Note_on_c, 0, 69, 0
2, 4608, Note_on_c, 0, 69, 80
2, 4623, Note_on_c, 0, 69, 0
2, 4624, Note_on_c, 0, 73, 80
2, 4639, Note_on_c, 0, 73, 0
2, 4640, Note_on_c, 0, 69, 80
2, 4655, Note_on_c, 0, 69, 0
2, 4656, Note_on_c, 0, 76, 80
2, 4671, Note_on_c, 0, 76, 0
2, 4672, Note_on_c, 0, 73, 80
2, 4687, Note_on_c, 0, 73, 0
2, 4688, Note_on_c, 0, 69, 80
2, 4703, Note_on_c, 0, 69, 0
2, 4704, Note_on_c, 0, 74, 80
2, 4719, Note_on_c, 0, 74, 0
2, 4720, Note_on_c, 0, 71, 80
2, 4735, Note_on_c, 0, 71, 0
2, 4736, Note_on_c, 0, 68, 80
2, 4751, Note_on_c, 0, 68, 0
2, 4752, Note_on_c, 0, 62, 80
2, 4767, Note_on_c, 0, 62, 0
2, 4768, Note_on_c, 0, 68, 80
2, 4783, Note_on_c, 0, 68, 0
2, 4784, Note_on_c, 0, 62, 80
2, 4799, Note_on_c, 0, 62, 0
2, 4800, Note_on_c, 0, 61, 80
2, 4815, Note_on_c, 0, 61, 0
2, 4816, Note_on_c, 0, 64, 80
2, 4831, Note_on_c, 0, 64, 0
2, 4832, Note_on_c, 0, 69, 80
2, 4847, Note_on_c, 0, 69, 0
2, 4848, Note_on_c, 0, 73, 80
2, 4863, Note_on_c, 0, 73, 0
2, 4864, Note_on_c, 0, 76, 80
2, 4879, Note_on_c, 0, 76, 0
2, 4880, Note_on_c, 0, 69, 80
2, 4895, Note_on_c, 0, 69, 0
2, 4896, Note_on_c, 0, 74, 80
2, 4911, Note_on_c, 0, 74, 0
2, 4912, Note_on_c, 0, 71, 80
2, 4927, Note_on_c, 0, 71, 0
2, 4928, Note_on_c, 0, 68, 80
2, 4943, Note_on_c, 0, 68, 0
2, 4944, Note_on_c, 0, 62, 80
2, 4959, Note_on_c, 0, 62, 0
2, 4960, Note_on_c, 0, 68, 80
2, 4975, Note_on_c, 0, 68, 0
2, 4976, Note_on_c, 0, 62, 80
2, 4991, Note_on_c, 0, 62, 0
2, 4992, Note_on_c, 0, 61, 75
2, 5007, Note_on_c, 0, 61, 0
2, 5008, Note_on_c, 0, 64, 75
2, 5023, Note_on_c, 0, 64, 0
2, 5024, Note_on_c, 0, 69, 75
2, 5039, Note_on_c, 0, 69, 0
2, 5040, Note_on_c, 0, 64, 76
2, 5055, Note_on_c, 0, 64, 0
2, 5056, Note_on_c, 0, 69, 76
2, 5071, Note_on_c, 0, 69, 0
2, 5072, Note_on_c, 0, 73, 76
2, 5087, Note_on_c, 0, 73, 0
2, 5088, Note_on_c, 0, 69, 77
2, 5103, Note_on_c, 0, 69, 0
2, 5104, Note_on_c, 0, 73, 77
2, 5119, Note_on_c, 0, 73, 0
2, 5120, Note_on_c, 0, 76, 78
2, 5135, Note_on_c, 0, 76, 0
2, 5136, Note_on_c, 0, 73, 78
2, 5151, Note_on_c, 0, 73, 0
2, 5152, Note_on_c, 0, 76, 80
2, 5167, Note_on_c, 0, 76, 0
2, 5168, Note_on_c, 0, 81, 80
2, 5183, Note_on_c, 0, 81, 0
2, 5184, Note_on_c, 0, 64, 75
2, 5199, Note_on_c, 0, 64, 0
2, 5200, Note_on_c, 0, 68, 75
2, 5215, Note_on_c, 0, 68, 0
2, 5216, Note_on_c, 0, 71, 75
2, 5231, Note_on_c, 0, 71, 0
2, 5232, Note_on_c, 0, 68, 75
2, 5247, Note_on_c, 0, 68, 0
2, 5248, Note_on_c, 0, 71, 76
2, 5263, Note_on_c, 0, 71, 0
2, 5264, Note_on_c, 0, 76, 76
2, 5279, Note_on_c, 0, 76, 0
2, 5280, Note_on_c, 0, 71, 76
2, 5295, Note_on_c, 0, 71, 0
2, 5296, Note_on_c, 0, 76, 77
2, 5311, Note_on_c, 0, 76, 0
2, 5312, Note_on_c, 0, 80, 77
2, 5327, Note_on_c, 0, 80, 0
2, 5328, Note_on_c, 0, 76, 77
2, 5343, Note_on_c, 0, 76, 0
2, 5344, Note_on_c, 0, 80, 77
2, 5359, Note_on_c, 0, 80, 0
2, 5360, Note_on_c, 0, 83, 78
2, 5375, Note_on_c, 0, 83, 0
2, 5376, Note_on_c, 0, 81, 78
2, 5383, Note_on_c, 0, 81, 0
2, 5392, Note_on_c, 0, 81, 78
2, 5407, Note_on_c, 0, 81, 0
2, 5408, Note_on_c, 0, 80, 79
2, 5423, Note_on_c, 0, 80, 0
2, 5424, Note_on_c, 0, 78, 79
2, 5431, Note_on_c, 0, 78, 0
2, 5440, Note_on_c, 0, 78, 79
2, 5455, Note_on_c, 0, 78, 0
2, 5456, Note_on_c, 0, 76, 80
2, 5471, Note_on_c, 0, 76, 0
2, 5472, Note_on_c, 0, 75, 79
2, 5479, Note_on_c, 0, 75, 0
2, 5488, Note_on_c, 0, 75, 79
2, 5503, Note_on_c, 0, 75, 0
2, 5504, Note_on_c, 0, 73, 79
2, 5519, Note_on_c, 0, 73, 0
2, 5520, Note_on_c, 0, 71, 78
2, 5527, Note_on_c, 0, 71, 0
2, 5536, Note_on_c, 0, 71, 78
2, 5551, Note_on_c, 0, 71, 0
2, 5552, Note_on_c, 0, 69, 78
2, 5567, Note_on_c, 0, 69, 0
2, 5568, Note_on_c, 0, 68, 78
2, 5583, Note_on_c, 0, 68, 0
2, 5584, Note_on_c, 0, 66, 77
2, 5599, Note_on_c, 0, 66, 0
2, 5600, Note_on_c, 0, 64, 77
2, 5615, Note_on_c, 0, 64, 0
2, 5616, Note_on_c, 0, 71, 75
2, 5631, Note_on_c, 0, 71, 0
2, 5632, Note_on_c, 0, 73, 75
2, 5647, Note_on_c, 0, 73, 0
2, 5648, Note_on_c, 0, 74, 75
2, 5663, Note_on_c, 0, 74, 0
2, 5664, Note_on_c, 0, 73, 75
2, 5679, Note_on_c, 0, 73, 0
2, 5680, Note_on_c, 0, 71, 75
2, 5695, Note_on_c, 0, 71, 0
2, 5696, Note_on_c, 0, 69, 75
2, 5711, Note_on_c, 0, 69, 0
2, 5712, Note_on_c, 0, 81, 75
2, 5727, Note_on_c, 0, 81, 0
2, 5728, Note_on_c, 0, 80, 73
2, 5743, Note_on_c, 0, 80, 0
2, 5744, Note_on_c, 0, 78, 72
2, 5759, Note_on_c, 0, 78, 0
2, 5760, Note_on_c, 0, 76, 70
2, 5808, Note_on_c, 0, 76, 0
2, 5808, Note_on_c, 0, 75, 70
2, 5849, Note_on_c, 0, 75, 0
2, 5856, Note_on_c, 0, 73, 70
2, 5863, Note_on_c, 0, 73, 0
2, 5863, Note_on_c, 0, 71, 70
2, 5870, Note_on_c, 0, 71, 0
2, 5870, Note_on_c, 0, 73, 70
2, 5877, Note_on_c, 0, 73, 0
2, 5877, Note_on_c, 0, 71, 70
2, 5884, Note_on_c, 0, 71, 0
2, 5884, Note_on_c, 0, 73, 70
2, 5891, Note_on_c, 0, 73, 0
2, 5891, Note_on_c, 0, 71, 70
2, 5898, Note_on_c, 0, 71, 0
2, 5898, Note_on_c, 0, 73, 70
2, 5905, Note_on_c, 0, 73, 0
2, 5905, Note_on_c, 0, 71, 70
2, 5912, Note_on_c, 0, 71, 0
2, 5912, Note_on_c, 0, 73, 70
2, 5919, Note_on_c, 0, 73, 0
2, 5919, Note_on_c, 0, 71, 70
2, 5926, Note_on_c, 0, 71, 0
2, 5926, Note_on_c, 0, 73, 70
2, 5933, Note_on_c, 0, 73, 0
2, 5933, Note_on_c, 0, 71, 70
2, 5940, Note_on_c, 0, 71, 0
2, 5940, Note_on_c, 0, 73, 70
2, 5946, Note_on_c, 0, 73, 0
2, 5946, Note_on_c, 0, 71, 70
2, 5967, Note_on_c, 0, 71, 0
2, 5968, Note_on_c, 0, 83, 69
2, 5983, Note_on_c, 0, 83, 0
2, 5984, Note_on_c, 0, 81, 68
2, 5999, Note_on_c, 0, 81, 0
2, 6000, Note_on_c, 0, 80, 67
2, 6015, Note_on_c, 0, 80, 0
2, 6016, Note_on_c, 0, 78, 67
2, 6031, Note_on_c, 0, 78, 0
2, 6032, Note_on_c, 0, 76, 66
2, 6047, Note_on_c, 0, 76, 0
2, 6048, Note_on_c, 0, 73, 64
2, 6055, Note_on_c, 0, 73, 0
2, 6055, Note_on_c, 0, 71, 64
2, 6062, Note_on_c, 0, 71, 0
2, 6062, Note_on_c, 0, 73, 64
2, 6069, Note_on_c, 0, 73, 0
2, 6069, Note_on_c, 0, 71, 64
2, 6076, Note_on_c, 0, 71, 0
2, 6076, Note_on_c, 0, 73, 64
2, 6083, Note_on_c, 0, 73, 0
2, 6083, Note_on_c, 0, 71, 64
2, 6090, Note_on_c, 0, 71, 0
2, 6090, Note_on_c, 0, 73, 64
2, 6097, Note_on_c, 0, 73, 0
2, 6097, Note_on_c, 0, 71, 64
2, 6104, Note_on_c, 0, 71, 0
2, 6104, Note_on_c, 0, 73, 64
2, 6111, Note_on_c, 0, 73, 0
2, 6111, Note_on_c, 0, 71, 64
2, 6118, Note_on_c, 0, 71, 0
2, 6118, Note_on_c, 0, 73, 64
2, 6125, Note_on_c, 0, 73, 0
2, 6125, Note_on_c, 0, 71, 64
2, 6132, Note_on_c, 0, 71, 0
2, 6132, Note_on_c, 0, 73, 64
2, 6138, Note_on_c, 0, 73, 0
2, 6138, Note_on_c, 0, 71, 64
2, 6159, Note_on_c, 0, 71, 0
2, 6160, Note_on_c, 0, 83, 64
2, 6175, Note_on_c, 0, 83, 0
2, 6176, Note_on_c, 0, 81, 64
2, 6191, Note_on_c, 0, 81, 0
2, 6192, Note_on_c, 0, 80, 64
2, 6207, Note_on_c, 0, 80, 0
2, 6208, Note_on_c, 0, 78, 64
2, 6223, Note_on_c, 0, 78, 0
2, 6224, Note_on_c, 0, 76, 64
2, 6239, Note_on_c, 0, 76, 0
2, 6240, Note_on_c, 0, 85, 80
2, 6288, Note_on_c, 0, 85, 0
2, 6288, Note_on_c, 0, 78, 64
2, 6303, Note_on_c, 0, 78, 0
2, 6304, Note_on_c, 0, 80, 64
2, 6319, Note_on_c, 0, 80, 0
2, 6320, Note_on_c, 0, 81, 64
2, 6335, Note_on_c, 0, 81, 0
2, 6336, Note_on_c, 0, 83, 86
2, 6384, Note_on_c, 0, 83, 0
2, 6384, Note_on_c, 0, 76, 70
2, 6399, Note_on_c, 0, 76, 0
2, 6400, Note_on_c, 0, 78, 70
2, 6415, Note_on_c, 0, 78, 0
2, 6416, Note_on_c, 0, 80, 70
2, 6431, Note_on_c, 0, 80, 0
2, 6432, Note_on_c, 0, 81, 70
2, 6447, Note_on_c, 0, 81, 0
2, 6448, Note_on_c, 0, 80, 70
2, 6463, Note_on_c, 0, 80, 0
2, 6464, Note_on_c, 0, 78, 70
2, 6479, Note_on_c, 0, 78, 0
2, 6480, Note_on_c, 0, 80, 70
2, 6495, Note_on_c, 0, 80, 0
2, 6496, Note_on_c, 0, 78, 71
2, 6511, Note_on_c, 0, 78, 0
2, 6512, Note_on_c, 0, 76, 71
2, 6527, Note_on_c, 0, 76, 0
2, 6528, Note_on_c, 0, 75, 71
2, 6543, Note_on_c, 0, 75, 0
2, 6544, Note_on_c, 0, 76, 72
2, 6559, Note_on_c, 0, 76, 0
2, 6560, Note_on_c, 0, 78, 72
2, 6575, Note_on_c, 0, 78, 0
2, 6576, Note_on_c, 0, 76, 72
2, 6591, Note_on_c, 0, 76, 0
2, 6592, Note_on_c, 0, 78, 73
2, 6607, Note_on_c, 0, 78, 0
2, 6608, Note_on_c, 0, 80, 73
2, 6623, Note_on_c, 0, 80, 0
2, 6624, Note_on_c, 0, 81, 75
2, 6639, Note_on_c, 0, 81, 0
2, 6640, Note_on_c, 0, 80, 75
2, 6655, Note_on_c, 0, 80, 0
2, 6656, Note_on_c, 0, 78, 76
2, 6671, Note_on_c, 0, 78, 0
2, 6672, Note_on_c, 0, 80, 76
2, 6687, Note_on_c, 0, 80, 0
2, 6688, Note_on_c, 0, 78, 77
2, 6703, Note_on_c, 0, 78, 0
2, 6704, Note_on_c, 0, 76, 78
2, 6719, Note_on_c, 0, 76, 0
2, 6720, Note_on_c, 0, 81, 80
2, 6735, Note_on_c, 0, 81, 0
2, 6736, Note_on_c, 0, 78, 80
2, 6751, Note_on_c, 0, 78, 0
2, 6752, Note_on_c, 0, 71, 80
2, 6767, Note_on_c, 0, 71, 0
2, 6768, Note_on_c, 0, 80, 80
2, 6783, Note_on_c, 0, 80, 0
2, 6784, Note_on_c, 0, 76, 80
2, 6799, Note_on_c, 0, 76, 0
2, 6800, Note_on_c, 0, 71, 80
2, 6815, Note_on_c, 0, 71, 0
2, 6816, Note_on_c, 0, 78, 75
2, 6822, Note_on_c, 0, 78, 0
2, 6822, Note_on_c, 0, 80, 75
2, 6828, Note_on_c, 0, 80, 0
2, 6828, Note_on_c, 0, 78, 75
2, 6834, Note_on_c, 0, 78, 0
2, 6834, Note_on_c, 0, 77, 75
2, 6849, Note_on_c, 0, 77, 0
2, 6849, Note_on_c, 0, 78, 75
2, 6864, Note_on_c, 0, 78, 0
2, 6864, Note_on_c, 0, 78, 75
2, 6870, Note_on_c, 0, 78, 0
2, 6870, Note_on_c, 0, 80, 75
2, 6876, Note_on_c, 0, 80, 0
2, 6876, Note_on_c, 0, 78, 75
2, 6882, Note_on_c, 0, 78, 0
2, 6882, Note_on_c, 0, 77, 75
2, 6897, Note_on_c, 0, 77, 0
2, 6897, Note_on_c, 0, 78, 75
2, 6912, Note_on_c, 0, 78, 0
2, 6912, Note_on_c, 0, 83, 75
2, 6927, Note_on_c, 0, 83, 0
2, 6928, Note_on_c, 0, 80, 75
2, 6943, Note_on_c, 0, 80, 0
2, 6944, Note_on_c, 0, 76, 75
2, 6959, Note_on_c, 0, 76, 0
2, 6960, Note_on_c, 0, 71, 75
2, 6975, Note_on_c, 0, 71, 0
2, 6976, Note_on_c, 0, 68, 75
2, 6991, Note_on_c, 0, 68, 0
2, 6992, Note_on_c, 0, 64, 75
2, 7007, Note_on_c, 0, 64, 0
2, 7008, Note_on_c, 0, 68, 75
2, 7015, Note_on_c, 0, 68, 0
2, 7015, Note_on_c, 0, 66, 75
2, 7022, Note_on_c, 0, 66, 0
2, 7022, Note_on_c, 0, 68, 75
2, 7029, Note_on_c, 0, 68, 0
2, 7029, Note_on_c, 0, 66, 75
2, 7036, Note_on_c, 0, 66, 0
2, 7036, Note_on_c, 0, 68, 75
2, 7043, Note_on_c, 0, 68, 0
2, 7043, Note_on_c, 0, 66, 75
2, 7050, Note_on_c, 0, 66, 0
2, 7050, Note_on_c, 0, 68, 75
2, 7057, Note_on_c, 0, 68, 0
2, 7057, Note_on_c, 0, 66, 75
2, 7064, Note_on_c, 0, 66, 0
2, 7064, Note_on_c, 0, 68, 75
2, 7071, Note_on_c, 0, 68, 0
2, 7071, Note_on_c, 0, 66, 75
2, 7078, Note_on_c, 0, 66, 0
2, 7078, Note_on_c, 0, 64, 75
2, 7092, Note_on_c, 0, 64, 0
2, 7092, Note_on_c, 0, 66, 75
2, 7104, Note_on_c, 0, 66, 0
2, 7104, Note_on_c, 0, 64, 75
2, 7149, Note_on_c, 0, 64, 0
2, 7152, Note_on_c, 0, 76, 70
2, 7159, Note_on_c, 0, 76, 0
2, 7168, Note_on_c, 0, 76, 70
2, 7183, Note_on_c, 0, 76, 0
2, 7184, Note_on_c, 0, 71, 70
2, 7199, Note_on_c, 0, 71, 0
2, 7200, Note_on_c, 0, 73, 70
2, 7207, Note_on_c, 0, 73, 0
2, 7216, Note_on_c, 0, 73, 70
2, 7231, Note_on_c, 0, 73, 0
2, 7232, Note_on_c, 0, 69, 70
2, 7247, Note_on_c, 0, 69, 0
2, 7248, Note_on_c, 0, 66, 70
2, 7263, Note_on_c, 0, 66, 0
2, 7264, Note_on_c, 0, 71, 70
2, 7279, Note_on_c, 0, 71, 0
2, 7280, Note_on_c, 0, 63, 70
2, 7295, Note_on_c, 0, 63, 0
2, 7296, Note_on_c, 0, 64, 70
2, 7341, Note_on_c, 0, 64, 0
2, 7344, Note_on_c, 0, 76, 70
2, 7351, Note_on_c, 0, 76, 0
2, 7360, Note_on_c, 0, 76, 70
2, 7375, Note_on_c, 0, 76, 0
2, 7376, Note_on_c, 0, 71, 70
2, 7391, Note_on_c, 0, 71, 0
2, 7392, Note_on_c, 0, 73, 70
2, 7399, Note_on_c, 0, 73, 0
2, 7408, Note_on_c, 0, 73, 70
2, 7423, Note_on_c, 0, 73, 0
2, 7424, Note_on_c, 0, 69, 70
2, 7439, Note_on_c, 0, 69, 0
2, 7440, Note_on_c, 0, 81, 70
2, 7447, Note_on_c, 0, 81, 0
2, 7456, Note_on_c, 0, 81, 70
2, 7471, Note_on_c, 0, 81, 0
2, 7472, Note_on_c, 0, 75, 70
2, 7487, Note_on_c, 0, 75, 0
2, 7488, Note_on_c, 0, 78, 70
2, 7494, Note_on_c, 0, 78, 0
2, 7494, Note_on_c, 0, 76, 70
2, 7500, Note_on_c, 0, 76, 0
2, 7500, Note_on_c, 0, 75, 70
2, 7506, Note_on_c, 0, 75, 0
2, 7506, Note_on_c, 0, 76, 70
2, 7621, Note_on_c, 0, 76, 0
2, 7680, Note_on_c, 0, 76, 80
2, 7686, Note_on_c, 0, 76, 0
2, 7686, Note_on_c, 0, 75, 80
2, 7692, Note_on_c, 0, 75, 0
2, 7692, Note_on_c, 0, 76, 80
2, 7723, Note_on_c, 0, 76, 0
2, 7728, Note_on_c, 0, 76, 80
2, 7734, Note_on_c, 0, 76, 0
2, 7734, Note_on_c, 0, 75, 80
2, 7740, Note_on_c, 0, 75, 0
2, 7740, Note_on_c, 0, 76, 80
2, 7771, Note_on_c, 0, 76, 0
2, 7776, Note_on_c, 0, 76, 80
2, 7782, Note_on_c, 0, 76, 0
2, 7782, Note_on_c, 0, 75, 80
2, 7788, Note_on_c, 0, 75, 0
2, 7788, Note_on_c, 0, 76, 80
2, 7819, Note_on_c, 0, 76, 0
2, 7824, Note_on_c, 0, 76, 80
2, 7830, Note_on_c, 0, 76, 0
2, 7830, Note_on_c, 0, 75, 80
2, 7836, Note_on_c, 0, 75, 0
2, 7836, Note_on_c, 0, 76, 80
2, 7867, Note_on_c, 0, 76, 0
2, 7872, Note_on_c, 0, 78, 80
2, 7879, Note_on_c, 0, 78, 0
2, 7879, Note_on_c, 0, 76, 80
2, 7886, Note_on_c, 0, 76, 0
2, 7886, Note_on_c, 0, 78, 80
2, 7893, Note_on_c, 0, 78, 0
2, 7893, Note_on_c, 0, 76, 80
2, 7900, Note_on_c, 0, 76, 0
2, 7900, Note_on_c, 0, 78, 80
2, 7907, Note_on_c, 0, 78, 0
2, 7907, Note_on_c, 0, 76, 80
2, 7914, Note_on_c, 0, 76, 0
2, 7914, Note_on_c, 0, 78, 80
2, 7921, Note_on_c, 0, 78, 0
2, 7921, Note_on_c, 0, 76, 80
2, 7928, Note_on_c, 0, 76, 0
2, 7928, Note_on_c, 0, 78, 80
2, 7935, Note_on_c, 0, 78, 0
2, 7935, Note_on_c, 0, 76, 80
2, 7942, Note_on_c, 0, 76, 0
2, 7942, Note_on_c, 0, 78, 80
2, 7949, Note_on_c, 0, 78, 0
2, 7949, Note_on_c, 0, 76, 80
2, 7956, Note_on_c, 0, 76, 0
2, 7956, Note_on_c, 0, 78, 80
2, 7963, Note_on_c, 0, 78, 0
2, 7963, Note_on_c, 0, 76, 80
2, 7970, Note_on_c, 0, 76, 0
2, 7970, Note_on_c, 0, 78, 80
2, 7977, Note_on_c, 0, 78, 0
2, 7977, Note_on_c, 0, 76, 80
2, 7984, Note_on_c, 0, 76, 0
2, 7984, Note_on_c, 0, 78, 80
2, 7991, Note_on_c, 0, 78, 0
2, 7991, Note_on_c, 0, 76, 80
2, 7998, Note_on_c, 0, 76, 0
2, 7998, Note_on_c, 0, 78, 80
2, 8005, Note_on_c, 0, 78, 0
2, 8005, Note_on_c, 0, 76, 80
2, 8012, Note_on_c, 0, 76, 0
2, 8012, Note_on_c, 0, 78, 80
2, 8019, Note_on_c, 0, 78, 0
2, 8019, Note_on_c, 0, 76, 80
2, 8026, Note_on_c, 0, 76, 0
2, 8026, Note_on_c, 0, 78, 80
2, 8033, Note_on_c, 0, 78, 0
2, 8033, Note_on_c, 0, 76, 80
2, 8040, Note_on_c, 0, 76, 0
2, 8040, Note_on_c, 0, 78, 80
2, 8046, Note_on_c, 0, 78, 0
2, 8046, Note_on_c, 0, 76, 80
2, 8052, Note_on_c, 0, 76, 0
2, 8052, Note_on_c, 0, 78, 80
2, 8058, Note_on_c, 0, 78, 0
2, 8058, Note_on_c, 0, 76, 80
2, 8064, Note_on_c, 0, 76, 0
2, 8064, Note_on_c, 0, 78, 80
2, 8071, Note_on_c, 0, 78, 0
2, 8071, Note_on_c, 0, 76, 80
2, 8078, Note_on_c, 0, 76, 0
2, 8078, Note_on_c, 0, 78, 80
2, 8085, Note_on_c, 0, 78, 0
2, 8085, Note_on_c, 0, 76, 80
2, 8092, Note_on_c, 0, 76, 0
2, 8092, Note_on_c, 0, 78, 80
2, 8099, Note_on_c, 0, 78, 0
2, 8099, Note_on_c, 0, 76, 80
2, 8106, Note_on_c, 0, 76, 0
2, 8106, Note_on_c, 0, 78, 80
2, 8113, Note_on_c, 0, 78, 0
2, 8113, Note_on_c, 0, 76, 80
2, 8120, Note_on_c, 0, 76, 0
2, 8120, Note_on_c, 0, 78, 80
2, 8127, Note_on_c, 0, 78, 0
2, 8127, Note_on_c, 0, 76, 80
2, 8134, Note_on_c, 0, 76, 0
2, 8134, Note_on_c, 0, 78, 80
2, 8141, Note_on_c, 0, 78, 0
2, 8141, Note_on_c, 0, 76, 80
2, 8148, Note_on_c, 0, 76, 0
2, 8148, Note_on_c, 0, 78, 80
2, 8155, Note_on_c, 0, 78, 0
2, 8155, Note_on_c, 0, 76, 80
2, 8162, Note_on_c, 0, 76, 0
2, 8162, Note_on_c, 0, 78, 80
2, 8169, Note_on_c, 0, 78, 0
2, 8169, Note_on_c, 0, 76, 80
2, 8176, Note_on_c, 0, 76, 0
2, 8176, Note_on_c, 0, 78, 80
2, 8183, Note_on_c, 0, 78, 0
2, 8183, Note_on_c, 0, 76, 80
2, 8190, Note_on_c, 0, 76, 0
2, 8190, Note_on_c, 0, 78, 80
2, 8197, Note_on_c, 0, 78, 0
2, 8197, Note_on_c, 0, 76, 80
2, 8204, Note_on_c, 0, 76, 0
2, 8204, Note_on_c, 0, 78, 80
2, 8211, Note_on_c, 0, 78, 0
2, 8211, Note_on_c, 0, 76, 80
2, 8218, Note_on_c, 0, 76, 0
2, 8218, Note_on_c, 0, 78, 80
2, 8225, Note_on_c, 0, 78, 0
2, 8225, Note_on_c, 0, 76, 80
2, 8232, Note_on_c, 0, 76, 0
2, 8232, Note_on_c, 0, 78, 80
2, 8238, Note_on_c, 0, 78, 0
2, 8238, Note_on_c, 0, 76, 80
2, 8244, Note_on_c, 0, 76, 0
2, 8244, Note_on_c, 0, 78, 80
2, 8250, Note_on_c, 0, 78, 0
2, 8250, Note_on_c, 0, 76, 80
2, 8271, Note_on_c, 0, 76, 0
2, 8272, Note_on_c, 0, 81, 80
2, 8287, Note_on_c, 0, 81, 0
2, 8288, Note_on_c, 0, 80, 80
2, 8303, Note_on_c, 0, 80, 0
2, 8304, Note_on_c, 0, 81, 80
2, 8319, Note_on_c, 0, 81, 0
2, 8320, Note_on_c, 0, 76, 80
2, 8335, Note_on_c, 0, 76, 0
2, 8336, Note_on_c, 0, 73, 80
2, 8351, Note_on_c, 0, 73, 0
2, 8352, Note_on_c, 0, 69, 80
2, 8359, Note_on_c, 0, 69, 0
2, 8368, Note_on_c, 0, 69, 80
2, 8383, Note_on_c, 0, 69, 0
2, 8384, Note_on_c, 0, 73, 80
2, 8399, Note_on_c, 0, 73, 0
2, 8400, Note_on_c, 0, 71, 80
2, 8407, Note_on_c, 0, 71, 0
2, 8416, Note_on_c, 0, 71, 80
2, 8431, Note_on_c, 0, 71, 0
2, 8432, Note_on_c, 0, 74, 80
2, 8447, Note_on_c, 0, 74, 0
2, 8448, Note_on_c, 0, 73, 80
2, 8463, Note_on_c, 0, 73, 0
2, 8464, Note_on_c, 0, 81, 80
2, 8479, Note_on_c, 0, 81, 0
2, 8480, Note_on_c, 0, 80, 80
2, 8495, Note_on_c, 0, 80, 0
2, 8496, Note_on_c, 0, 81, 80
2, 8511, Note_on_c, 0, 81, 0
2, 8512, Note_on_c, 0, 76, 80
2, 8527, Note_on_c, 0, 76, 0
2, 8528, Note_on_c, 0, 73, 80
2, 8543, Note_on_c, 0, 73, 0
2, 8544, Note_on_c, 0, 69, 80
2, 8559, Note_on_c, 0, 69, 0
2, 8560, Note_on_c, 0, 79, 80
2, 8567, Note_on_c, 0, 79, 0
2, 8576, Note_on_c, 0, 79, 80
2, 8591, Note_on_c, 0, 79, 0
2, 8592, Note_on_c, 0, 79, 80
2, 8607, Note_on_c, 0, 79, 0
2, 8608, Note_on_c, 0, 78, 80
2, 8623, Note_on_c, 0, 78, 0
2, 8624, Note_on_c, 0, 76, 80
2, 8639, Note_on_c, 0, 76, 0
2, 8640, Note_on_c, 0, 79, 80
2, 8647, Note_on_c, 0, 79, 0
2, 8647, Note_on_c, 0, 78, 80
2, 8654, Note_on_c, 0, 78, 0
2, 8654, Note_on_c, 0, 79, 80
2, 8661, Note_on_c, 0, 79, 0
2, 8661, Note_on_c, 0, 78, 80
2, 8668, Note_on_c, 0, 78, 0
2, 8668, Note_on_c, 0, 79, 80
2, 8675, Note_on_c, 0, 79, 0
2, 8675, Note_on_c, 0, 78, 80
2, 8682, Note_on_c, 0, 78, 0
2, 8682, Note_on_c, 0, 79, 80
2, 8689, Note_on_c, 0, 79, 0
2, 8689, Note_on_c, 0, 78, 80
2, 8696, Note_on_c, 0, 78, 0
2, 8696, Note_on_c, 0, 79, 80
2, 8703, Note_on_c, 0, 79, 0
2, 8703, Note_on_c, 0, 78, 80
2, 8710, Note_on_c, 0, 78, 0
2, 8710, Note_on_c, 0, 79, 80
2, 8717, Note_on_c, 0, 79, 0
2, 8717, Note_on_c, 0, 78, 80
2, 8724, Note_on_c, 0, 78, 0
2, 8724, Note_on_c, 0, 79, 80
2, 8730, Note_on_c, 0, 79, 0
2, 8730, Note_on_c, 0, 78, 80
2, 8751, Note_on_c, 0, 78, 0
2, 8752, Note_on_c, 0, 86, 80
2, 8767, Note_on_c, 0, 86, 0
2, 8768, Note_on_c, 0, 81, 80
2, 8783, Note_on_c, 0, 81, 0
2, 8784, Note_on_c, 0, 78, 80
2, 8799, Note_on_c, 0, 78, 0
2, 8800, Note_on_c, 0, 74, 80
2, 8815, Note_on_c, 0, 74, 0
2, 8816, Note_on_c, 0, 78, 80
2, 8831, Note_on_c, 0, 78, 0
2, 8832, Note_on_c, 0, 78, 80
2, 8839, Note_on_c, 0, 78, 0
2, 8839, Note_on_c, 0, 76, 80
2, 8846, Note_on_c, 0, 76, 0
2, 8846, Note_on_c, 0, 78, 80
2, 8853, Note_on_c, 0, 78, 0
2, 8853, Note_on_c, 0, 76, 80
2, 8860, Note_on_c, 0, 76, 0
2, 8860, Note_on_c, 0, 78, 80
2, 8867, Note_on_c, 0, 78, 0
2, 8867, Note_on_c, 0, 76, 80
2, 8874, Note_on_c, 0, 76, 0
2, 8874, Note_on_c, 0, 78, 80
2, 8881, Note_on_c, 0, 78, 0
2, 8881, Note_on_c, 0, 76, 80
2, 8888, Note_on_c, 0, 76, 0
2, 8888, Note_on_c, 0, 78, 80
2, 8895, Note_on_c, 0, 78, 0
2, 8895, Note_on_c, 0, 76, 80
2, 8902, Note_on_c, 0, 76, 0
2, 8902, Note_on_c, 0, 78, 80
2, 8909, Note_on_c, 0, 78, 0
2, 8909, Note_on_c, 0, 76, 80
2, 8916, Note_on_c, 0, 76, 0
2, 8916, Note_on_c, 0, 78, 80
2, 8922, Note_on_c, 0, 78, 0
2, 8922, Note_on_c, 0, 76, 80
2, 8943, Note_on_c, 0, 76, 0
2, 8944, Note_on_c, 0, 85, 80
2, 8959, Note_on_c, 0, 85, 0
2, 8960, Note_on_c, 0, 81, 80
2, 8975, Note_on_c, 0, 81, 0
2, 8976, Note_on_c, 0, 76, 80
2, 8991, Note_on_c, 0, 76, 0
2, 8992, Note_on_c, 0, 73, 80
2, 9007, Note_on_c, 0, 73, 0
2, 9008, Note_on_c, 0, 76, 80
2, 9023, Note_on_c, 0, 76, 0
2, 9024, Note_on_c, 0, 76, 80
2, 9031, Note_on_c, 0, 76, 0
2, 9031, Note_on_c, 0, 74, 80
2, 9038, Note_on_c, 0, 74, 0
2, 9038, Note_on_c, 0, 76, 80
2, 9045, Note_on_c, 0, 76, 0
2, 9045, Note_on_c, 0, 74, 80
2, 9052, Note_on_c, 0, 74, 0
2, 9052, Note_on_c, 0, 76, 80
2, 9059, Note_on_c, 0, 76, 0
2, 9059, Note_on_c, 0, 74, 80
2, 9066, Note_on_c, 0, 74, 0
2, 9066, Note_on_c, 0, 76, 80
2, 9073, Note_on_c, 0, 76, 0
2, 9073, Note_on_c, 0, 74, 80
2, 9080, Note_on_c, 0, 74, 0
2, 9080, Note_on_c, 0, 76, 80
2, 9087, Note_on_c, 0, 76, 0
2, 9087, Note_on_c, 0, 74, 80
2, 9094, Note_on_c, 0, 74, 0
2, 9094, Note_on_c, 0, 76, 80
2, 9101, Note_on_c, 0, 76, 0
2, 9101, Note_on_c, 0, 74, 80
2, 9108, Note_on_c, 0, 74, 0
2, 9108, Note_on_c, 0, 76, 80
2, 9114, Note_on_c, 0, 76, 0
2, 9114, Note_on_c, 0, 74, 80
2, 9135, Note_on_c, 0, 74, 0
2, 9136, Note_on_c, 0, 83, 73
2, 9151, Note_on_c, 0, 83, 0
2, 9152, Note_on_c, 0, 80, 72
2, 9167, Note_on_c, 0, 80, 0
2, 9168, Note_on_c, 0, 74, 70
2, 9183, Note_on_c, 0, 74, 0
2, 9184, Note_on_c, 0, 71, 69
2, 9199, Note_on_c, 0, 71, 0
2, 9200, Note_on_c, 0, 74, 68
2, 9215, Note_on_c, 0, 74, 0
2, 9216, Note_on_c, 0, 73, 64
2, 9231, Note_on_c, 0, 73, 0
2, 9232, Note_on_c, 0, 76, 64
2, 9247, Note_on_c, 0, 76, 0
2, 9248, Note_on_c, 0, 74, 64
2, 9263, Note_on_c, 0, 74, 0
2, 9264, Note_on_c, 0, 73, 64
2, 9271, Note_on_c, 0, 73, 0
2, 9280, Note_on_c, 0, 73, 65
2, 9295, Note_on_c, 0, 73, 0
2, 9296, Note_on_c, 0, 71, 65
2, 9311, Note_on_c, 0, 71, 0
2, 9312, Note_on_c, 0, 69, 65
2, 9319, Note_on_c, 0, 69, 0
2, 9328, Note_on_c, 0, 69, 65
2, 9343, Note_on_c, 0, 69, 0
2, 9344, Note_on_c, 0, 68, 66
2, 9359, Note_on_c, 0, 68, 0
2, 9360, Note_on_c, 0, 66, 66
2, 9367, Note_on_c, 0, 66, 0
2, 9376, Note_on_c, 0, 66, 66
2, 9391, Note_on_c, 0, 66, 0
2, 9392, Note_on_c, 0, 64, 66
2, 9407, Note_on_c, 0, 64, 0
2, 9408, Note_on_c, 0, 62, 67
2, 9423, Note_on_c, 0, 62, 0
2, 9424, Note_on_c, 0, 78, 67
2, 9439, Note_on_c, 0, 78, 0
2, 9440, Note_on_c, 0, 76, 67
2, 9455, Note_on_c, 0, 76, 0
2, 9456, Note_on_c, 0, 74, 67
2, 9463, Note_on_c, 0, 74, 0
2, 9472, Note_on_c, 0, 74, 68
2, 9487, Note_on_c, 0, 74, 0
2, 9488, Note_on_c, 0, 73, 68
2, 9503, Note_on_c, 0, 73, 0
2, 9504, Note_on_c, 0, 71, 68
2, 9511, Note_on_c, 0, 71, 0
2, 9520, Note_on_c, 0, 71, 68
2, 9535, Note_on_c, 0, 71, 0
2, 9536, Note_on_c, 0, 69, 69
2, 9551, Note_on_c, 0, 69, 0
2, 9552, Note_on_c, 0, 68, 69
2, 9559, Note_on_c, 0, 68, 0
2, 9568, Note_on_c, 0, 68, 69
2, 9583, Note_on_c, 0, 68, 0
2, 9584, Note_on_c, 0, 66, 69
2, 9599, Note_on_c, 0, 66, 0
2, 9600, Note_on_c, 0, 64, 70
2, 9615, Note_on_c, 0, 64, 0
2, 9616, Note_on_c, 0, 80, 70
2, 9631, Note_on_c, 0, 80, 0
2, 9632, Note_on_c, 0, 78, 70
2, 9647, Note_on_c, 0, 78, 0
2, 9648, Note_on_c, 0, 76, 70
2, 9655, Note_on_c, 0, 76, 0
2, 9664, Note_on_c, 0, 76, 71
2, 9679, Note_on_c, 0, 76, 0
2, 9680, Note_on_c, 0, 74, 71
2, 9695, Note_on_c, 0, 74, 0
2, 9696, Note_on_c, 0, 73, 71
2, 9703, Note_on_c, 0, 73, 0
2, 9712, Note_on_c, 0, 73, 71
2, 9727, Note_on_c, 0, 73, 0
2, 9728, Note_on_c, 0, 71, 72
2, 9743, Note_on_c, 0, 71, 0
2, 9744, Note_on_c, 0, 69, 72
2, 9751, Note_on_c, 0, 69, 0
2, 9760, Note_on_c, 0, 69, 72
2, 9775, Note_on_c, 0, 69, 0
2, 9776, Note_on_c, 0, 68, 72
2, 9791, Note_on_c, 0, 68, 0
2, 9792, Note_on_c, 0, 66, 73
2, 9807, Note_on_c, 0, 66, 0
2, 9808, Note_on_c, 0, 81, 73
2, 9823, Note_on_c, 0, 81, 0
2, 9824, Note_on_c, 0, 80, 73
2, 9839, Note_on_c, 0, 80, 0
2, 9840, Note_on_c, 0, 78, 73
2, 9847, Note_on_c, 0, 78, 0
2, 9856, Note_on_c, 0, 78, 74
2, 9871, Note_on_c, 0, 78, 0
2, 9872, Note_on_c, 0, 76, 74
2, 9887, Note_on_c, 0, 76, 0
2, 9888, Note_on_c, 0, 74, 74
2, 9895, Note_on_c, 0, 74, 0
2, 9904, Note_on_c, 0, 74, 74
2, 9919, Note_on_c, 0, 74, 0
2, 9920, Note_on_c, 0, 73, 75
2, 9935, Note_on_c, 0, 73, 0
2, 9936, Note_on_c, 0, 71, 75
2, 9943, Note_on_c, 0, 71, 0
2, 9952, Note_on_c, 0, 71, 75
2, 9967, Note_on_c, 0, 71, 0
2, 9968, Note_on_c, 0, 69, 75
2, 9983, Note_on_c, 0, 69, 0
2, 9984, Note_on_c, 0, 68, 80
2, 9999, Note_on_c, 0, 68, 0
2, 10000, Note_on_c, 0, 83, 80
2, 10015, Note_on_c, 0, 83, 0
2, 10016, Note_on_c, 0, 81, 80
2, 10031, Note_on_c, 0, 81, 0
2, 10032, Note_on_c, 0, 80, 80
2, 10039, Note_on_c, 0, 80, 0
2, 10048, Note_on_c, 0, 80, 80
2, 10063, Note_on_c, 0, 80, 0
2, 10064, Note_on_c, 0, 78, 80
2, 10079, Note_on_c, 0, 78, 0
2, 10080, Note_on_c, 0, 76, 80
2, 10087, Note_on_c, 0, 76, 0
2, 10096, Note_on_c, 0, 76, 80
2, 10111, Note_on_c, 0, 76, 0
2, 10112, Note_on_c, 0, 74, 80
2, 10127, Note_on_c, 0, 74, 0
2, 10128, Note_on_c, 0, 73, 80
2, 10143, Note_on_c, 0, 73, 0
2, 10144, Note_on_c, 0, 74, 80
2, 10159, Note_on_c, 0, 74, 0
2, 10160, Note_on_c, 0, 71, 80
2, 10175, Note_on_c, 0, 71, 0
2, 10176, Note_on_c, 0, 73, 80
2, 10191, Note_on_c, 0, 73, 0
2, 10192, Note_on_c, 0, 71, 80
2, 10207, Note_on_c, 0, 71, 0
2, 10208, Note_on_c, 0, 69, 80
2, 10223, Note_on_c, 0, 69, 0
2, 10224, Note_on_c, 0, 76, 80
2, 10269, Note_on_c, 0, 76, 0
2, 10272, Note_on_c, 0, 83, 80
2, 10287, Note_on_c, 0, 83, 0
2, 10288, Note_on_c, 0, 80, 80
2, 10303, Note_on_c, 0, 80, 0
2, 10304, Note_on_c, 0, 76, 80
2, 10319, Note_on_c, 0, 76, 0
2, 10320, Note_on_c, 0, 74, 80
2, 10365, Note_on_c, 0, 74, 0
2, 10368, Note_on_c, 0, 73, 70
2, 10383, Note_on_c, 0, 73, 0
2, 10384, Note_on_c, 0, 71, 70
2, 10399, Note_on_c, 0, 71, 0
2, 10400, Note_on_c, 0, 69, 70
2, 10415, Note_on_c, 0, 69, 0
2, 10416, Note_on_c, 0, 76, 71
2, 10423, Note_on_c, 0, 76, 0
2, 10423, Note_on_c, 0, 78, 71
2, 10430, Note_on_c, 0, 78, 0
2, 10430, Note_on_c, 0, 76, 71
2, 10437, Note_on_c, 0, 76, 0
2, 10437, Note_on_c, 0, 78, 71
2, 10444, Note_on_c, 0, 78, 0
2, 10444, Note_on_c, 0, 76, 71
2, 10451, Note_on_c, 0, 76, 0
2, 10451, Note_on_c, 0, 78, 71
2, 10458, Note_on_c, 0, 78, 0
2, 10458, Note_on_c, 0, 76, 72
2, 10464, Note_on_c, 0, 76, 0
2, 10464, Note_on_c, 0, 83, 72
2, 10479, Note_on_c, 0, 83, 0
2, 10480, Note_on_c, 0, 80, 72
2, 10495, Note_on_c, 0, 80, 0
2, 10496, Note_on_c, 0, 76, 73
2, 10511, Note_on_c, 0, 76, 0
2, 10512, Note_on_c, 0, 74, 73
2, 10519, Note_on_c, 0, 74, 0
2, 10519, Note_on_c, 0, 76, 73
2, 10526, Note_on_c, 0, 76, 0
2, 10526, Note_on_c, 0, 74, 73
2, 10533, Note_on_c, 0, 74, 0
2, 10533, Note_on_c, 0, 76, 73
2, 10540, Note_on_c, 0, 76, 0
2, 10540, Note_on_c, 0, 74, 74
2, 10547, Note_on_c, 0, 74, 0
2, 10547, Note_on_c, 0, 76, 74
2, 10554, Note_on_c, 0, 76, 0
2, 10554, Note_on_c, 0, 74, 74
2, 10560, Note_on_c, 0, 74, 0
2, 10560, Note_on_c, 0, 73, 74
2, 10575, Note_on_c, 0, 73, 0
2, 10576, Note_on_c, 0, 71, 75
2, 10591, Note_on_c, 0, 71, 0
2, 10592, Note_on_c, 0, 69, 74
2, 10607, Note_on_c, 0, 69, 0
2, 10608, Note_on_c, 0, 81, 74
2, 10623, Note_on_c, 0, 81, 0
2, 10624, Note_on_c, 0, 76, 74
2, 10639, Note_on_c, 0, 76, 0
2, 10640, Note_on_c, 0, 77, 73
2, 10655, Note_on_c, 0, 77, 0
2, 10656, Note_on_c, 0, 78, 73
2, 10671, Note_on_c, 0, 78, 0
2, 10672, Note_on_c, 0, 70, 73
2, 10687, Note_on_c, 0, 70, 0
2, 10688, Note_on_c, 0, 71, 73
2, 10703, Note_on_c, 0, 71, 0
2, 10704, Note_on_c, 0, 74, 72
2, 10719, Note_on_c, 0, 74, 0
2, 10720, Note_on_c, 0, 66, 72
2, 10735, Note_on_c, 0, 66, 0
2, 10736, Note_on_c, 0, 71, 72
2, 10751, Note_on_c, 0, 71, 0
2, 10752, Note_on_c, 0, 69, 70
2, 10800, Note_on_c, 0, 69, 0
2, 10800, Note_on_c, 0, 68, 70
2, 10841, Note_on_c, 0, 68, 0
2, 10944, Note_on_c, 0, 83, 80
2, 10950, Note_on_c, 0, 83, 0
2, 10950, Note_on_c, 0, 81, 80
2, 10956, Note_on_c, 0, 81, 0
2, 10956, Note_on_c, 0, 80, 80
2, 10962, Note_on_c, 0, 80, 0
2, 10962, Note_on_c, 0, 81, 80
2, 11055, Note_on_c, 0, 81, 0
2, 11056, Note_on_c, 0, 80, 80
2, 11071, Note_on_c, 0, 80, 0
2, 11072, Note_on_c, 0, 78, 80
2, 11087, Note_on_c, 0, 78, 0
2, 11088, Note_on_c, 0, 76, 80
2, 11103, Note_on_c, 0, 76, 0
2, 11104, Note_on_c, 0, 74, 80
2, 11119, Note_on_c, 0, 74, 0
2, 11120, Note_on_c, 0, 73, 80
2, 11135, Note_on_c, 0, 73, 0
2, 11136, Note_on_c, 0, 71, 80
2, 11151, Note_on_c, 0, 71, 0
2, 11152, Note_on_c, 0, 76, 80
2, 11167, Note_on_c, 0, 76, 0
2, 11168, Note_on_c, 0, 74, 80
2, 11183, Note_on_c, 0, 74, 0
2, 11184, Note_on_c, 0, 74, 80
2, 11229, Note_on_c, 0, 74, 0
2, 11232, Note_on_c, 0, 74, 80
2, 11238, Note_on_c, 0, 74, 0
2, 11238, Note_on_c, 0, 76, 80
2, 11244, Note_on_c, 0, 76, 0
2, 11244, Note_on_c, 0, 74, 80
2, 11250, Note_on_c, 0, 74, 0
2, 11250, Note_on_c, 0, 73, 80
2, 11265, Note_on_c, 0, 73, 0
2, 11265, Note_on_c, 0, 74, 80
2, 11280, Note_on_c, 0, 74, 0
2, 11280, Note_on_c, 0, 74, 80
2, 11286, Note_on_c, 0, 74, 0
2, 11286, Note_on_c, 0, 76, 80
2, 11292, Note_on_c, 0, 76, 0
2, 11292, Note_on_c, 0, 74, 80
2, 11298, Note_on_c, 0, 74, 0
2, 11298, Note_on_c, 0, 73, 80
2, 11313, Note_on_c, 0, 73, 0
2, 11313, Note_on_c, 0, 74, 80
2, 11328, Note_on_c, 0, 74, 0
2, 11328, Note_on_c, 0, 74, 80
2, 11373, Note_on_c, 0, 74, 0
2, 11376, Note_on_c, 0, 83, 80
2, 11421, Note_on_c, 0, 83, 0
2, 11424, Note_on_c, 0, 85, 80
2, 11430, Note_on_c, 0, 85, 0
2, 11430, Note_on_c, 0, 83, 80
2, 11439, Note_on_c, 0, 83, 0
2, 11440, Note_on_c, 0, 81, 80
2, 11455, Note_on_c, 0, 81, 0
2, 11456, Note_on_c, 0, 80, 80
2, 11471, Note_on_c, 0, 80, 0
2, 11472, Note_on_c, 0, 78, 80
2, 11487, Note_on_c, 0, 78, 0
2, 11488, Note_on_c, 0, 76, 80
2, 11503, Note_on_c, 0, 76, 0
2, 11504, Note_on_c, 0, 74, 80
2, 11519, Note_on_c, 0, 74, 0
2, 11520, Note_on_c, 0, 73, 80
2, 11535, Note_on_c, 0, 73, 0
2, 11536, Note_on_c, 0, 69, 80
2, 11551, Note_on_c, 0, 69, 0
2, 11552, Note_on_c, 0, 73, 80
2, 11567, Note_on_c, 0, 73, 0
2, 11568, Note_on_c, 0, 76, 80
2, 11583, Note_on_c, 0, 76, 0
2, 11584, Note_on_c, 0, 73, 80
2, 11599, Note_on_c, 0, 73, 0
2, 11600, Note_on_c, 0, 69, 80
2, 11615, Note_on_c, 0, 69, 0
2, 11616, Note_on_c, 0, 74, 80
2, 11631, Note_on_c, 0, 74, 0
2, 11632, Note_on_c, 0, 71, 80
2, 11647, Note_on_c, 0, 71, 0
2, 11648, Note_on_c, 0, 68, 80
2, 11663, Note_on_c, 0, 68, 0
2, 11664, Note_on_c, 0, 62, 80
2, 11679, Note_on_c, 0, 62, 0
2, 11680, Note_on_c, 0, 68, 80
2, 11695, Note_on_c, 0, 68, 0
2, 11696, Note_on_c, 0, 62, 80
2, 11711, Note_on_c, 0, 62, 0
2, 11712, Note_on_c, 0, 61, 80
2, 11727, Note_on_c, 0, 61, 0
2, 11728, Note_on_c, 0, 64, 80
2, 11743, Note_on_c, 0, 64, 0
2, 11744, Note_on_c, 0, 69, 80
2, 11759, Note_on_c, 0, 69, 0
2, 11760, Note_on_c, 0, 73, 80
2, 11775, Note_on_c, 0, 73, 0
2, 11776, Note_on_c, 0, 76, 80
2, 11791, Note_on_c, 0, 76, 0
2, 11792, Note_on_c, 0, 69, 80
2, 11807, Note_on_c, 0, 69, 0
2, 11808, Note_on_c, 0, 74, 80
2, 11823, Note_on_c, 0, 74, 0
2, 11824, Note_on_c, 0, 71, 80
2, 11839, Note_on_c, 0, 71, 0
2, 11840, Note_on_c, 0, 68, 80
2, 11855, Note_on_c, 0, 68, 0
2, 11856, Note_on_c, 0, 62, 80
2, 11871, Note_on_c, 0, 62, 0
2, 11872, Note_on_c, 0, 68, 80
2, 11887, Note_on_c, 0, 68, 0
2, 11888, Note_on_c, 0, 62, 80
2, 11903, Note_on_c, 0, 62, 0
2, 11904, Note_on_c, 0, 61, 75
2, 11919, Note_on_c, 0, 61, 0
2, 11920, Note_on_c, 0, 64, 75
2, 11935, Note_on_c, 0, 64, 0
2, 11936, Note_on_c, 0, 69, 75
2, 11951, Note_on_c, 0, 69, 0
2, 11952, Note_on_c, 0, 64, 76
2, 11967, Note_on_c, 0, 64, 0
2, 11968, Note_on_c, 0, 69, 76
2, 11983, Note_on_c, 0, 69, 0
2, 11984, Note_on_c, 0, 73, 76
2, 11999, Note_on_c, 0, 73, 0
2, 12000, Note_on_c, 0, 69, 77
2, 12015, Note_on_c, 0, 69, 0
2, 12016, Note_on_c, 0, 73, 77
2, 12031, Note_on_c, 0, 73, 0
2, 12032, Note_on_c, 0, 76, 78
2, 12047, Note_on_c, 0, 76, 0
2, 12048, Note_on_c, 0, 73, 78
2, 12063, Note_on_c, 0, 73, 0
2, 12064, Note_on_c, 0, 76, 80
2, 12079, Note_on_c, 0, 76, 0
2, 12080, Note_on_c, 0, 79, 80
2, 12095, Note_on_c, 0, 79, 0
2, 12096, Note_on_c, 0, 78, 80
2, 12111, Note_on_c, 0, 78, 0
2, 12112, Note_on_c, 0, 76, 80
2, 12127, Note_on_c, 0, 76, 0
2, 12128, Note_on_c, 0, 78, 80
2, 12143, Note_on_c, 0, 78, 0
2, 12144, Note_on_c, 0, 86, 80
2, 12159, Note_on_c, 0, 86, 0
2, 12160, Note_on_c, 0, 74, 80
2, 12175, Note_on_c, 0, 74, 0
2, 12176, Note_on_c, 0, 78, 80
2, 12191, Note_on_c, 0, 78, 0
2, 12192, Note_on_c, 0, 76, 80
2, 12207, Note_on_c, 0, 76, 0
2, 12208, Note_on_c, 0, 81, 80
2, 12223, Note_on_c, 0, 81, 0
2, 12224, Note_on_c, 0, 80, 80
2, 12239, Note_on_c, 0, 80, 0
2, 12240, Note_on_c, 0, 81, 80
2, 12255, Note_on_c, 0, 81, 0
2, 12256, Note_on_c, 0, 73, 80
2, 12271, Note_on_c, 0, 73, 0
2, 12272, Note_on_c, 0, 76, 80
2, 12287, Note_on_c, 0, 76, 0
2, 12288, Note_on_c, 0, 74, 80
2, 12303, Note_on_c, 0, 74, 0
2, 12304, Note_on_c, 0, 73, 80
2, 12319, Note_on_c, 0, 73, 0
2, 12320, Note_on_c, 0, 74, 80
2, 12335, Note_on_c, 0, 74, 0
2, 12336, Note_on_c, 0, 78, 80
2, 12351, Note_on_c, 0, 78, 0
2, 12352, Note_on_c, 0, 76, 80
2, 12367, Note_on_c, 0, 76, 0
2, 12368, Note_on_c, 0, 74, 80
2, 12383, Note_on_c, 0, 74, 0
2, 12384, Note_on_c, 0, 73, 80
2, 12399, Note_on_c, 0, 73, 0
2, 12400, Note_on_c, 0, 81, 80
2, 12415, Note_on_c, 0, 81, 0
2, 12416, Note_on_c, 0, 76, 80
2, 12431, Note_on_c, 0, 76, 0
2, 12432, Note_on_c, 0, 78, 80
2, 12447, Note_on_c, 0, 78, 0
2, 12448, Note_on_c, 0, 74, 79
2, 12463, Note_on_c, 0, 74, 0
2, 12464, Note_on_c, 0, 71, 79
2, 12479, Note_on_c, 0, 71, 0
2, 12480, Note_on_c, 0, 69, 78
2, 12528, Note_on_c, 0, 69, 0
2, 12528, Note_on_c, 0, 68, 78
2, 12569, Note_on_c, 0, 68, 0
2, 12576, Note_on_c, 0, 78, 75
2, 12583, Note_on_c, 0, 78, 0
2, 12583, Note_on_c, 0, 76, 75
2, 12590, Note_on_c, 0, 76, 0
2, 12590, Note_on_c, 0, 78, 75
2, 12597, Note_on_c, 0, 78, 0
2, 12597, Note_on_c, 0, 76, 75
2, 12604, Note_on_c, 0, 76, 0
2, 12604, Note_on_c, 0, 78, 76
2, 12611, Note_on_c, 0, 78, 0
2, 12611, Note_on_c, 0, 76, 76
2, 12618, Note_on_c, 0, 76, 0
2, 12618, Note_on_c, 0, 78, 76
2, 12625, Note_on_c, 0, 78, 0
2, 12625, Note_on_c, 0, 76, 76
2, 12632, Note_on_c, 0, 76, 0
2, 12632, Note_on_c, 0, 78, 77
2, 12639, Note_on_c, 0, 78, 0
2, 12639, Note_on_c, 0, 76, 77
2, 12646, Note_on_c, 0, 76, 0
2, 12646, Note_on_c, 0, 78, 77
2, 12653, Note_on_c, 0, 78, 0
2, 12653, Note_on_c, 0, 76, 78
2, 12660, Note_on_c, 0, 76, 0
2, 12660, Note_on_c, 0, 78, 78
2, 12666, Note_on_c, 0, 78, 0
2, 12666, Note_on_c, 0, 76, 78
2, 12687, Note_on_c, 0, 76, 0
2, 12688, Note_on_c, 0, 80, 80
2, 12703, Note_on_c, 0, 80, 0
2, 12704, Note_on_c, 0, 81, 80
2, 12719, Note_on_c, 0, 81, 0
2, 12720, Note_on_c, 0, 85, 80
2, 12735, Note_on_c, 0, 85, 0
2, 12736, Note_on_c, 0, 80, 80
2, 12751, Note_on_c, 0, 80, 0
2, 12752, Note_on_c, 0, 81, 80
2, 12767, Note_on_c, 0, 81, 0
2, 12768, Note_on_c, 0, 78, 70
2, 12775, Note_on_c, 0, 78, 0
2, 12775, Note_on_c, 0, 76, 70
2, 12782, Note_on_c, 0, 76, 0
2, 12782, Note_on_c, 0, 78, 70
2, 12789, Note_on_c, 0, 78, 0
2, 12789, Note_on_c, 0, 76, 70
2, 12796, Note_on_c, 0, 76, 0
2, 12796, Note_on_c, 0, 78, 71
2, 12803, Note_on_c, 0, 78, 0
2, 12803, Note_on_c, 0, 76, 71
2, 12810, Note_on_c, 0, 76, 0
2, 12810, Note_on_c, 0, 78, 71
2, 12817, Note_on_c, 0, 78, 0
2, 12817, Note_on_c, 0, 76, 71
2, 12824, Note_on_c, 0, 76, 0
2, 12824, Note_on_c, 0, 78, 72
2, 12831, Note_on_c, 0, 78, 0
2, 12831, Note_on_c, 0, 76, 72
2, 12838, Note_on_c, 0, 76, 0
2, 12838, Note_on_c, 0, 78, 72
2, 12845, Note_on_c, 0, 78, 0
2, 12845, Note_on_c, 0, 76, 73
2, 12852, Note_on_c, 0, 76, 0
2, 12852, Note_on_c, 0, 78, 73
2, 12858, Note_on_c, 0, 78, 0
2, 12858, Note_on_c, 0, 76, 73
2, 12879, Note_on_c, 0, 76, 0
2, 12880, Note_on_c, 0, 80, 75
2, 12895, Note_on_c, 0, 80, 0
2, 12896, Note_on_c, 0, 81, 75
2, 12911, Note_on_c, 0, 81, 0
2, 12912, Note_on_c, 0, 85, 75
2, 12927, Note_on_c, 0, 85, 0
2, 12928, Note_on_c, 0, 80, 75
2, 12943, Note_on_c, 0, 80, 0
2, 12944, Note_on_c, 0, 81, 75
2, 12959, Note_on_c, 0, 81, 0
2, 12960, Note_on_c, 0, 78, 91
2, 12966, Note_on_c, 0, 78, 0
2, 12966, Note_on_c, 0, 80, 91
2, 12972, Note_on_c, 0, 80, 0
2, 12972, Note_on_c, 0, 78, 91
2, 13008, Note_on_c, 0, 78, 0
2, 13008, Note_on_c, 0, 71, 75
2, 13023, Note_on_c, 0, 71, 0
2, 13024, Note_on_c, 0, 73, 75
2, 13039, Note_on_c, 0, 73, 0
2, 13040, Note_on_c, 0, 74, 75
2, 13055, Note_on_c, 0, 74, 0
2, 13056, Note_on_c, 0, 76, 91
2, 13062, Note_on_c, 0, 76, 0
2, 13062, Note_on_c, 0, 78, 91
2, 13068, Note_on_c, 0, 78, 0
2, 13068, Note_on_c, 0, 76, 91
2, 13104, Note_on_c, 0, 76, 0
2, 13104, Note_on_c, 0, 69, 75
2, 13119, Note_on_c, 0, 69, 0
2, 13120, Note_on_c, 0, 71, 75
2, 13135, Note_on_c, 0, 71, 0
2, 13136, Note_on_c, 0, 73, 75
2, 13151, Note_on_c, 0, 73, 0
2, 13152, Note_on_c, 0, 74, 75
2, 13167, Note_on_c, 0, 74, 0
2, 13168, Note_on_c, 0, 73, 75
2, 13183, Note_on_c, 0, 73, 0
2, 13184, Note_on_c, 0, 71, 75
2, 13199, Note_on_c, 0, 71, 0
2, 13200, Note_on_c, 0, 73, 75
2, 13215, Note_on_c, 0, 73, 0
2, 13216, Note_on_c, 0, 71, 75
2, 13231, Note_on_c, 0, 71, 0
2, 13232, Note_on_c, 0, 69, 75
2, 13247, Note_on_c, 0, 69, 0
2, 13248, Note_on_c, 0, 68, 75
2, 13263, Note_on_c, 0, 68, 0
2, 13264, Note_on_c, 0, 69, 75
2, 13279, Note_on_c, 0, 69, 0
2, 13280, Note_on_c, 0, 71, 75
2, 13295, Note_on_c, 0, 71, 0
2, 13296, Note_on_c, 0, 69, 75
2, 13311, Note_on_c, 0, 69, 0
2, 13312, Note_on_c, 0, 71, 75
2, 13327, Note_on_c, 0, 71, 0
2, 13328, Note_on_c, 0, 73, 75
2, 13343, Note_on_c, 0, 73, 0
2, 13344, Note_on_c, 0, 74, 75
2, 13359, Note_on_c, 0, 74, 0
2, 13360, Note_on_c, 0, 73, 75
2, 13375, Note_on_c, 0, 73, 0
2, 13376, Note_on_c, 0, 71, 75
2, 13391, Note_on_c, 0, 71, 0
2, 13392, Note_on_c, 0, 73, 75
2, 13407, Note_on_c, 0, 73, 0
2, 13408, Note_on_c, 0, 71, 75
2, 13423, Note_on_c, 0, 71, 0
2, 13424, Note_on_c, 0, 69, 75
2, 13439, Note_on_c, 0, 69, 0
2, 13440, Note_on_c, 0, 74, 80
2, 13455, Note_on_c, 0, 74, 0
2, 13456, Note_on_c, 0, 71, 80
2, 13471, Note_on_c, 0, 71, 0
2, 13472, Note_on_c, 0, 64, 80
2, 13487, Note_on_c, 0, 64, 0
2, 13488, Note_on_c, 0, 73, 80
2, 13503, Note_on_c, 0, 73, 0
2, 13504, Note_on_c, 0, 69, 80
2, 13519, Note_on_c, 0, 69, 0
2, 13520, Note_on_c, 0, 64, 80
2, 13535, Note_on_c, 0, 64, 0
2, 13536, Note_on_c, 0, 71, 75
2, 13542, Note_on_c, 0, 71, 0
2, 13542, Note_on_c, 0, 73, 75
2, 13548, Note_on_c, 0, 73, 0
2, 13548, Note_on_c, 0, 71, 75
2, 13554, Note_on_c, 0, 71, 0
2, 13554, Note_on_c, 0, 70, 75
2, 13569, Note_on_c, 0, 70, 0
2, 13569, Note_on_c, 0, 71, 75
2, 13584, Note_on_c, 0, 71, 0
2, 13584, Note_on_c, 0, 71, 75
2, 13590, Note_on_c, 0, 71, 0
2, 13590, Note_on_c, 0, 73, 75
2, 13596, Note_on_c, 0, 73, 0
2, 13596, Note_on_c, 0, 71, 75
2, 13602, Note_on_c, 0, 71, 0
2, 13602, Note_on_c, 0, 70, 75
2, 13617, Note_on_c, 0, 70, 0
2, 13617, Note_on_c, 0, 71, 75
2, 13632, Note_on_c, 0, 71, 0
2, 13632, Note_on_c, 0, 76, 75
2, 13647, Note_on_c, 0, 76, 0
2, 13648, Note_on_c, 0, 73, 75
2, 13663, Note_on_c, 0, 73, 0
2, 13664, Note_on_c, 0, 69, 75
2, 13679, Note_on_c, 0, 69, 0
2, 13680, Note_on_c, 0, 81, 75
2, 13695, Note_on_c, 0, 81, 0
2, 13696, Note_on_c, 0, 78, 75
2, 13711, Note_on_c, 0, 78, 0
2, 13712, Note_on_c, 0, 74, 75
2, 13727, Note_on_c, 0, 74, 0
2, 13728, Note_on_c, 0, 73, 75
2, 13773, Note_on_c, 0, 73, 0
2, 13776, Note_on_c, 0, 73, 75
2, 13783, Note_on_c, 0, 73, 0
2, 13783, Note_on_c, 0, 71, 75
2, 13790, Note_on_c, 0, 71, 0
2, 13790, Note_on_c, 0, 73, 75
2, 13797, Note_on_c, 0, 73, 0
2, 13797, Note_on_c, 0, 71, 75
2, 13804, Note_on_c, 0, 71, 0
2, 13804, Note_on_c, 0, 73, 75
2, 13811, Note_on_c, 0, 73, 0
2, 13811, Note_on_c, 0, 69, 75
2, 13818, Note_on_c, 0, 69, 0
2, 13818, Note_on_c, 0, 71, 75
2, 13824, Note_on_c, 0, 71, 0
2, 13824, Note_on_c, 0, 69, 75
2, 13869, Note_on_c, 0, 69, 0
2, 13872, Note_on_c, 0, 69, 70
2, 13879, Note_on_c, 0, 69, 0
2, 13888, Note_on_c, 0, 69, 70
2, 13903, Note_on_c, 0, 69, 0
2, 13904, Note_on_c, 0, 64, 70
2, 13919, Note_on_c, 0, 64, 0
2, 13920, Note_on_c, 0, 66, 70
2, 13927, Note_on_c, 0, 66, 0
2, 13936, Note_on_c, 0, 66, 70
2, 13951, Note_on_c, 0, 66, 0
2, 13952, Note_on_c, 0, 62, 70
2, 13967, Note_on_c, 0, 62, 0
2, 13968, Note_on_c, 0, 59, 70
2, 13983, Note_on_c, 0, 59, 0
2, 13984, Note_on_c, 0, 64, 70
2, 13999, Note_on_c, 0, 64, 0
2, 14000, Note_on_c, 0, 56, 70
2, 14015, Note_on_c, 0, 56, 0
2, 14016, Note_on_c, 0, 57, 70
2, 14061, Note_on_c, 0, 57, 0
2, 14064, Note_on_c, 0, 69, 70
2, 14071, Note_on_c, 0, 69, 0
2, 14080, Note_on_c, 0, 69, 70
2, 14095, Note_on_c, 0, 69, 0
2, 14096, Note_on_c, 0, 64, 70
2, 14111, Note_on_c, 0, 64, 0
2, 14112, Note_on_c, 0, 66, 70
2, 14119, Note_on_c, 0, 66, 0
2, 14128, Note_on_c, 0, 66, 70
2, 14143, Note_on_c, 0, 66, 0
2, 14144, Note_on_c, 0, 62, 70
2, 14159, Note_on_c, 0, 62, 0
2, 14160, Note_on_c, 0, 74, 70
2, 14167, Note_on_c, 0, 74, 0
2, 14176, Note_on_c, 0, 74, 70
2, 14191, Note_on_c, 0, 74, 0
2, 14192, Note_on_c, 0, 68, 70
2, 14207, Note_on_c, 0, 68, 0
2, 14208, Note_on_c, 0, 71, 70
2, 14214, Note_on_c, 0, 71, 0
2, 14214, Note_on_c, 0, 69, 70
2, 14220, Note_on_c, 0, 69, 0
2, 14220, Note_on_c, 0, 68, 70
2, 14226, Note_on_c, 0, 68, 0
2, 14226, Note_on_c, 0, 69, 70
2, 14341, Note_on_c, 0, 69, 0
2, 14400, Note_on_c, 0, 76, 80
2, 14406, Note_on_c, 0, 76, 0
2, 14406, Note_on_c, 0, 75, 80
2, 14412, Note_on_c, 0, 75, 0
2, 14412, Note_on_c, 0, 76, 80
2, 14443, Note_on_c, 0, 76, 0
2, 14448, Note_on_c, 0, 76, 80
2, 14454, Note_on_c, 0, 76, 0
2, 14454, Note_on_c, 0, 75, 80
2, 14460, Note_on_c, 0, 75, 0
2, 14460, Note_on_c, 0, 76, 80
2, 14491, Note_on_c, 0, 76, 0
2, 14496, Note_on_c, 0, 76, 80
2, 14502, Note_on_c, 0, 76, 0
2, 14502, Note_on_c, 0, 75, 80
2, 14508, Note_on_c, 0, 75, 0
2, 14508, Note_on_c, 0, 76, 80
2, 14539, Note_on_c, 0, 76, 0
2, 14544, Note_on_c, 0, 76, 80
2, 14550, Note_on_c, 0, 76, 0
2, 14550, Note_on_c, 0, 75, 80
2, 14556, Note_on_c, 0, 75, 0
2, 14556, Note_on_c, 0, 76, 80
2, 14587, Note_on_c, 0, 76, 0
2, 14592, Note_on_c, 0, 78, 80
2, 14599, Note_on_c, 0, 78, 0
2, 14599, Note_on_c, 0, 76, 80
2, 14606, Note_on_c, 0, 76, 0
2, 14606, Note_on_c, 0, 78, 80
2, 14613, Note_on_c, 0, 78, 0
2, 14613, Note_on_c, 0, 76, 80
2, 14620, Note_on_c, 0, 76, 0
2, 14620, Note_on_c, 0, 78, 80
2, 14627, Note_on_c, 0, 78, 0
2, 14627, Note_on_c, 0, 76, 80
2, 14634, Note_on_c, 0, 76, 0
2, 14634, Note_on_c, 0, 78, 80
2, 14641, Note_on_c, 0, 78, 0
2, 14641, Note_on_c, 0, 76, 80
2, 14648, Note_on_c, 0, 76, 0
2, 14648, Note_on_c, 0, 78, 80
2, 14655, Note_on_c, 0, 78, 0
2, 14655, Note_on_c, 0, 76, 80
2, 14662, Note_on_c, 0, 76, 0
2, 14662, Note_on_c, 0, 78, 80
2, 14669, Note_on_c, 0, 78, 0
2, 14669, Note_on_c, 0, 76, 80
2, 14676, Note_on_c, 0, 76, 0
2, 14676, Note_on_c, 0, 78, 80
2, 14683, Note_on_c, 0, 78, 0
2, 14683, Note_on_c, 0, 76, 80
2, 14690, Note_on_c, 0, 76, 0
2, 14690, Note_on_c, 0, 78, 80
2, 14697, Note_on_c, 0, 78, 0
2, 14697, Note_on_c, 0, 76, 80
2, 14704, Note_on_c, 0, 76, 0
2, 14704, Note_on_c, 0, 78, 80
2, 14711, Note_on_c, 0, 78, 0
2, 14711, Note_on_c, 0, 76, 80
2, 14718, Note_on_c, 0, 76, 0
2, 14718, Note_on_c, 0, 78, 80
2, 14725, Note_on_c, 0, 78, 0
2, 14725, Note_on_c, 0, 76, 80
2, 14732, Note_on_c, 0, 76, 0
2, 14732, Note_on_c, 0, 78, 80
2, 14739, Note_on_c, 0, 78, 0
2, 14739, Note_on_c, 0, 76, 80
2, 14746, Note_on_c, 0, 76, 0
2, 14746, Note_on_c, 0, 78, 80
2, 14753, Note_on_c, 0, 78, 0
2, 14753, Note_on_c, 0, 76, 80
2, 14760, Note_on_c, 0, 76, 0
2, 14760, Note_on_c, 0, 78, 80
2, 14766, Note_on_c, 0, 78, 0
2, 14766, Note_on_c, 0, 76, 80
2, 14772, Note_on_c, 0, 76, 0
2, 14772, Note_on_c, 0, 78, 80
2, 14778, Note_on_c, 0, 78, 0
2, 14778, Note_on_c, 0, 76, 80
2, 14784, Note_on_c, 0, 76, 0
2, 14784, Note_on_c, 0, 78, 80
2, 14791, Note_on_c, 0, 78, 0
2, 14791, Note_on_c, 0, 76, 80
2, 14798, Note_on_c, 0, 76, 0
2, 14798, Note_on_c, 0, 78, 80
2, 14805, Note_on_c, 0, 78, 0
2, 14805, Note_on_c, 0, 76, 80
2, 14812, Note_on_c, 0, 76, 0
2, 14812, Note_on_c, 0, 78, 80
2, 14819, Note_on_c, 0, 78, 0
2, 14819, Note_on_c, 0, 76, 80
2, 14826, Note_on_c, 0, 76, 0
2, 14826, Note_on_c, 0, 78, 80
2, 14833, Note_on_c, 0, 78, 0
2, 14833, Note_on_c, 0, 76, 80
2, 14840, Note_on_c, 0, 76, 0
2, 14840, Note_on_c, 0, 78, 80
2, 14847, Note_on_c, 0, 78, 0
2, 14847, Note_on_c, 0, 76, 80
2, 14854, Note_on_c, 0, 76, 0
2, 14854, Note_on_c, 0, 78, 80
2, 14861, Note_on_c, 0, 78, 0
2, 14861, Note_on_c, 0, 76, 80
2, 14868, Note_on_c, 0, 76, 0
2, 14868, Note_on_c, 0, 78, 80
2, 14875, Note_on_c, 0, 78, 0
2, 14875, Note_on_c, 0, 76, 80
2, 14882, Note_on_c, 0, 76, 0
2, 14882, Note_on_c, 0, 78, 80
2, 14889, Note_on_c, 0, 78, 0
2, 14889, Note_on_c, 0, 76, 80
2, 14896, Note_on_c, 0, 76, 0
2, 14896, Note_on_c, 0, 78, 80
2, 14903, Note_on_c, 0, 78, 0
2, 14903, Note_on_c, 0, 76, 80
2, 14910, Note_on_c, 0, 76, 0
2, 14910, Note_on_c, 0, 78, 80
2, 14917, Note_on_c, 0, 78, 0
2, 14917, Note_on_c, 0, 76, 80
2, 14924, Note_on_c, 0, 76, 0
2, 14924, Note_on_c, 0, 78, 80
2, 14931, Note_on_c, 0, 78, 0
2, 14931, Note_on_c, 0, 76, 80
2, 14938, Note_on_c, 0, 76, 0
2, 14938, Note_on_c, 0, 78, 80
2, 14945, Note_on_c, 0, 78, 0
2, 14945, Note_on_c, 0, 76, 80
2, 14952, Note_on_c, 0, 76, 0
2, 14952, Note_on_c, 0, 78, 80
2, 14958, Note_on_c, 0, 78, 0
2, 14958, Note_on_c, 0, 76, 80
2, 14964, Note_on_c, 0, 76, 0
2, 14964, Note_on_c, 0, 78, 80
2, 14970, Note_on_c, 0, 78, 0
2, 14970, Note_on_c, 0, 76, 80
2, 14991, Note_on_c, 0, 76, 0
2, 14992, Note_on_c, 0, 81, 80
2, 15007, Note_on_c, 0, 81, 0
2, 15008, Note_on_c, 0, 80, 80
2, 15023, Note_on_c, 0, 80, 0
2, 15024, Note_on_c, 0, 81, 80
2, 15039, Note_on_c, 0, 81, 0
2, 15040, Note_on_c, 0, 76, 80
2, 15055, Note_on_c, 0, 76, 0
2, 15056, Note_on_c, 0, 73, 80
2, 15071, Note_on_c, 0, 73, 0
2, 15072, Note_on_c, 0, 69, 80
2, 15079, Note_on_c, 0, 69, 0
2, 15088, Note_on_c, 0, 69, 80
2, 15103, Note_on_c, 0, 69, 0
2, 15104, Note_on_c, 0, 73, 80
2, 15119, Note_on_c, 0, 73, 0
2, 15120, Note_on_c, 0, 71, 80
2, 15127, Note_on_c, 0, 71, 0
2, 15136, Note_on_c, 0, 71, 80
2, 15151, Note_on_c, 0, 71, 0
2, 15152, Note_on_c, 0, 74, 80
2, 15167, Note_on_c, 0, 74, 0
2, 15168, Note_on_c, 0, 73, 80
2, 15183, Note_on_c, 0, 73, 0
2, 15184, Note_on_c, 0, 81, 80
2, 15199, Note_on_c, 0, 81, 0
2, 15200, Note_on_c, 0, 80, 80
2, 15215, Note_on_c, 0, 80, 0
2, 15216, Note_on_c, 0, 81, 80
2, 15231, Note_on_c, 0, 81, 0
2, 15232, Note_on_c, 0, 76, 80
2, 15247, Note_on_c, 0, 76, 0
2, 15248, Note_on_c, 0, 73, 80
2, 15263, Note_on_c, 0, 73, 0
2, 15264, Note_on_c, 0, 69, 80
2, 15279, Note_on_c, 0, 69, 0
2, 15280, Note_on_c, 0, 79, 80
2, 15287, Note_on_c, 0, 79, 0
2, 15296, Note_on_c, 0, 79, 80
2, 15311, Note_on_c, 0, 79, 0
2, 15312, Note_on_c, 0, 79, 80
2, 15327, Note_on_c, 0, 79, 0
2, 15328, Note_on_c, 0, 78, 80
2, 15343, Note_on_c, 0, 78, 0
2, 15344, Note_on_c, 0, 76, 80
2, 15359, Note_on_c, 0, 76, 0
2, 15360, Note_on_c, 0, 79, 80
2, 15367, Note_on_c, 0, 79, 0
2, 15367, Note_on_c, 0, 78, 80
2, 15374, Note_on_c, 0, 78, 0
2, 15374, Note_on_c, 0, 79, 80
2, 15381, Note_on_c, 0, 79, 0
2, 15381, Note_on_c, 0, 78, 80
2, 15388, Note_on_c, 0, 78, 0
2, 15388, Note_on_c, 0, 79, 80
2, 15395, Note_on_c, 0, 79, 0
2, 15395, Note_on_c, 0, 78, 80
2, 15402, Note_on_c, 0, 78, 0
2, 15402, Note_on_c, 0, 79, 80
2, 15409, Note_on_c, 0, 79, 0
2, 15409, Note_on_c, 0, 78, 80
2, 15416, Note_on_c, 0, 78, 0
2, 15416, Note_on_c, 0, 79, 80
2, 15423, Note_on_c, 0, 79, 0
2, 15423, Note_on_c, 0, 78, 80
2, 15430, Note_on_c, 0, 78, 0
2, 15430, Note_on_c, 0, 79, 80
2, 15437, Note_on_c, 0, 79, 0
2, 15437, Note_on_c, 0, 78, 80
2, 15444, Note_on_c, 0, 78, 0
2, 15444, Note_on_c, 0, 79, 80
2, 15450, Note_on_c, 0, 79, 0
2, 15450, Note_on_c, 0, 78, 80
2, 15471, Note_on_c, 0, 78, 0
2, 15472, Note_on_c, 0, 86, 80
2, 15487, Note_on_c, 0, 86, 0
2, 15488, Note_on_c, 0, 81, 80
2, 15503, Note_on_c, 0, 81, 0
2, 15504, Note_on_c, 0, 78, 80
2, 15519, Note_on_c, 0, 78, 0
2, 15520, Note_on_c, 0, 74, 80
2, 15535, Note_on_c, 0, 74, 0
2, 15536, Note_on_c, 0, 78, 80
2, 15551, Note_on_c, 0, 78, 0
2, 15552, Note_on_c, 0, 78, 80
2, 15559, Note_on_c, 0, 78, 0
2, 15559, Note_on_c, 0, 76, 80
2, 15566, Note_on_c, 0, 76, 0
2, 15566, Note_on_c, 0, 78, 80
2, 15573, Note_on_c, 0, 78, 0
2, 15573, Note_on_c, 0, 76, 80
2, 15580, Note_on_c, 0, 76, 0
2, 15580, Note_on_c, 0, 78, 80
2, 15587, Note_on_c, 0, 78, 0
2, 15587, Note_on_c, 0, 76, 80
2, 15594, Note_on_c, 0, 76, 0
2, 15594, Note_on_c, 0, 78, 80
2, 15601, Note_on_c, 0, 78, 0
2, 15601, Note_on_c, 0, 76, 80
2, 15608, Note_on_c, 0, 76, 0
2, 15608, Note_on_c, 0, 78, 80
2, 15615, Note_on_c, 0, 78, 0
2, 15615, Note_on_c, 0, 76, 80
2, 15622, Note_on_c, 0, 76, 0
2, 15622, Note_on_c, 0, 78, 80
2, 15629, Note_on_c, 0, 78, 0
2, 15629, Note_on_c, 0, 76, 80
2, 15636, Note_on_c, 0, 76, 0
2, 15636, Note_on_c, 0, 78, 80
2, 15642, Note_on_c, 0, 78, 0
2, 15642, Note_on_c, 0, 76, 80
2, 15663, Note_on_c, 0, 76, 0
2, 15664, Note_on_c, 0, 85, 80
2, 15679, Note_on_c, 0, 85, 0
2, 15680, Note_on_c, 0, 81, 80
2, 15695, Note_on_c, 0, 81, 0
2, 15696, Note_on_c, 0, 76, 80
2, 15711, Note_on_c, 0, 76, 0
2, 15712, Note_on_c, 0, 73, 80
2, 15727, Note_on_c, 0, 73, 0
2, 15728, Note_on_c, 0, 76, 80
2, 15743, Note_on_c, 0, 76, 0
2, 15744, Note_on_c, 0, 76, 80
2, 15751, Note_on_c, 0, 76, 0
2, 15751, Note_on_c, 0, 74, 80
2, 15758, Note_on_c, 0, 74, 0
2, 15758, Note_on_c, 0, 76, 80
2, 15765, Note_on_c, 0, 76, 0
2, 15765, Note_on_c, 0, 74, 80
2, 15772, Note_on_c, 0, 74, 0
2, 15772, Note_on_c, 0, 76, 80
2, 15779, Note_on_c, 0, 76, 0
2, 15779, Note_on_c, 0, 74, 80
2, 15786, Note_on_c, 0, 74, 0
2, 15786, Note_on_c, 0, 76, 80
2, 15793, Note_on_c, 0, 76, 0
2, 15793, Note_on_c, 0, 74, 80
2, 15800, Note_on_c, 0, 74, 0
2, 15800, Note_on_c, 0, 76, 80
2, 15807, Note_on_c, 0, 76, 0
2, 15807, Note_on_c, 0, 74, 80
2, 15814, Note_on_c, 0, 74, 0
2, 15814, Note_on_c, 0, 76, 80
2, 15821, Note_on_c, 0, 76, 0
2, 15821, Note_on_c, 0, 74, 80
2, 15828, Note_on_c, 0, 74, 0
2, 15828, Note_on_c, 0, 76, 80
2, 15834, Note_on_c, 0, 76, 0
2, 15834, Note_on_c, 0, 74, 80
2, 15855, Note_on_c, 0, 74, 0
2, 15856, Note_on_c, 0, 83, 73
2, 15871, Note_on_c, 0, 83, 0
2, 15872, Note_on_c, 0, 80, 72
2, 15887, Note_on_c, 0, 80, 0
2, 15888, Note_on_c, 0, 74, 70
2, 15903, Note_on_c, 0, 74, 0
2, 15904, Note_on_c, 0, 71, 69
2, 15919, Note_on_c, 0, 71, 0
2, 15920, Note_on_c, 0, 74, 68
2, 15935, Note_on_c, 0, 74, 0
2, 15936, Note_on_c, 0, 73, 64
2, 15951, Note_on_c, 0, 73, 0
2, 15952, Note_on_c, 0, 76, 64
2, 15967, Note_on_c, 0, 76, 0
2, 15968, Note_on_c, 0, 74, 64
2, 15983, Note_on_c, 0, 74, 0
2, 15984, Note_on_c, 0, 73, 64
2, 15991, Note_on_c, 0, 73, 0
2, 16000, Note_on_c, 0, 73, 65
2, 16015, Note_on_c, 0, 73, 0
2, 16016, Note_on_c, 0, 71, 65
2, 16031, Note_on_c, 0, 71, 0
2, 16032, Note_on_c, 0, 69, 65
2, 16039, Note_on_c, 0, 69, 0
2, 16048, Note_on_c, 0, 69, 65
2, 16063, Note_on_c, 0, 69, 0
2, 16064, Note_on_c, 0, 68, 66
2, 16079, Note_on_c, 0, 68, 0
2, 16080, Note_on_c, 0, 66, 66
2, 16087, Note_on_c, 0, 66, 0
2, 16096, Note_on_c, 0, 66, 66
2, 16111, Note_on_c, 0, 66, 0
2, 16112, Note_on_c, 0, 64, 66
2, 16127, Note_on_c, 0, 64, 0
2, 16128, Note_on_c, 0, 62, 67
2, 16143, Note_on_c, 0, 62, 0
2, 16144, Note_on_c, 0, 78, 67
2, 16159, Note_on_c, 0, 78, 0
2, 16160, Note_on_c, 0, 76, 67
2, 16175, Note_on_c, 0, 76, 0
2, 16176, Note_on_c, 0, 74, 67
2, 16183, Note_on_c, 0, 74, 0
2, 16192, Note_on_c, 0, 74, 68
2, 16207, Note_on_c, 0, 74, 0
2, 16208, Note_on_c, 0, 73, 68
2, 16223, Note_on_c, 0, 73, 0
2, 16224, Note_on_c, 0, 71, 68
2, 16231, Note_on_c, 0, 71, 0
2, 16240, Note_on_c, 0, 71, 68
2, 16255, Note_on_c, 0, 71, 0
2, 16256, Note_on_c, 0, 69, 69
2, 16271, Note_on_c, 0, 69, 0
2, 16272, Note_on_c, 0, 68, 69
2, 16279, Note_on_c, 0, 68, 0
2, 16288, Note_on_c, 0, 68, 69
2, 16303, Note_on_c, 0, 68, 0
2, 16304, Note_on_c, 0, 66, 69
2, 16319, Note_on_c, 0, 66, 0
2, 16320, Note_on_c, 0, 64, 70
2, 16335, Note_on_c, 0, 64, 0
2, 16336, Note_on_c, 0, 80, 70
2, 16351, Note_on_c, 0, 80, 0
2, 16352, Note_on_c, 0, 78, 70
2, 16367, Note_on_c, 0, 78, 0
2, 16368, Note_on_c, 0, 76, 70
2, 16375, Note_on_c, 0, 76, 0
2, 16384, Note_on_c, 0, 76, 71
2, 16399, Note_on_c, 0, 76, 0
2, 16400, Note_on_c, 0, 74, 71
2, 16415, Note_on_c, 0, 74, 0
2, 16416, Note_on_c, 0, 73, 71
2, 16423, Note_on_c, 0, 73, 0
2, 16432, Note_on_c, 0, 73, 71
2, 16447, Note_on_c, 0, 73, 0
2, 16448, Note_on_c, 0, 71, 72
2, 16463, Note_on_c, 0, 71, 0
2, 16464, Note_on_c, 0, 69, 72
2, 16471, Note_on_c, 0, 69, 0
2, 16480, Note_on_c, 0, 69, 72
2, 16495, Note_on_c, 0, 69, 0
2, 16496, Note_on_c, 0, 68, 72
2, 16511, Note_on_c, 0, 68, 0
2, 16512, Note_on_c, 0, 66, 73
2, 16527, Note_on_c, 0, 66, 0
2, 16528, Note_on_c, 0, 81, 73
2, 16543, Note_on_c, 0, 81, 0
2, 16544, Note_on_c, 0, 80, 73
2, 16559, Note_on_c, 0, 80, 0
2, 16560, Note_on_c, 0, 78, 73
2, 16567, Note_on_c, 0, 78, 0
2, 16576, Note_on_c, 0, 78, 74
2, 16591, Note_on_c, 0, 78, 0
2, 16592, Note_on_c, 0, 76, 74
2, 16607, Note_on_c, 0, 76, 0
2, 16608, Note_on_c, 0, 74, 74
2, 16615, Note_on_c, 0, 74, 0
2, 16624, Note_on_c, 0, 74, 74
2, 16639, Note_on_c, 0, 74, 0
2, 16640, Note_on_c, 0, 73, 75
2, 16655, Note_on_c, 0, 73, 0
2, 16656, Note_on_c, 0, 71, 75
2, 16663, Note_on_c, 0, 71, 0
2, 16672, Note_on_c, 0, 71, 75
2, 16687, Note_on_c, 0, 71, 0
2, 16688, Note_on_c, 0, 69, 75
2, 16703, Note_on_c, 0, 69, 0
2, 16704, Note_on_c, 0, 68, 80
2, 16719, Note_on_c, 0, 68, 0
2, 16720, Note_on_c, 0, 83, 80
2, 16735, Note_on_c, 0, 83, 0
2, 16736, Note_on_c, 0, 81, 80
2, 16751, Note_on_c, 0, 81, 0
2, 16752, Note_on_c, 0, 80, 80
2, 16759, Note_on_c, 0, 80, 0
2, 16768, Note_on_c, 0, 80, 80
2, 16783, Note_on_c, 0, 80, 0
2, 16784, Note_on_c, 0, 78, 80
2, 16799, Note_on_c, 0, 78, 0
2, 16800, Note_on_c, 0, 76, 80
2, 16807, Note_on_c, 0, 76, 0
2, 16816, Note_on_c, 0, 76, 80
2, 16831, Note_on_c, 0, 76, 0
2, 16832, Note_on_c, 0, 74, 80
2, 16847, Note_on_c, 0, 74, 0
2, 16848, Note_on_c, 0, 73, 80
2, 16863, Note_on_c, 0, 73, 0
2, 16864, Note_on_c, 0, 74, 80
2, 16879, Note_on_c, 0, 74, 0
2, 16880, Note_on_c, 0, 71, 80
2, 16895, Note_on_c, 0, 71, 0
2, 16896, Note_on_c, 0, 73, 80
2, 16911, Note_on_c, 0, 73, 0
2, 16912, Note_on_c, 0, 71, 80
2, 16927, Note_on_c, 0, 71, 0
2, 16928, Note_on_c, 0, 69, 80
2, 16943, Note_on_c, 0, 69, 0
2, 16944, Note_on_c, 0, 76, 80
2, 16989, Note_on_c, 0, 76, 0
2, 16992, Note_on_c, 0, 83, 80
2, 17007, Note_on_c, 0, 83, 0
2, 17008, Note_on_c, 0, 80, 80
2, 17023, Note_on_c, 0, 80, 0
2, 17024, Note_on_c, 0, 76, 80
2, 17039, Note_on_c, 0, 76, 0
2, 17040, Note_on_c, 0, 74, 80
2, 17085, Note_on_c, 0, 74, 0
2, 17088, Note_on_c, 0, 73, 70
2, 17103, Note_on_c, 0, 73, 0
2, 17104, Note_on_c, 0, 71, 70
2, 17119, Note_on_c, 0, 71, 0
2, 17120, Note_on_c, 0, 69, 70
2, 17135, Note_on_c, 0, 69, 0
2, 17136, Note_on_c, 0, 76, 71
2, 17143, Note_on_c, 0, 76, 0
2, 17143, Note_on_c, 0, 78, 71
2, 17150, Note_on_c, 0, 78, 0
2, 17150, Note_on_c, 0, 76, 71
2, 17157, Note_on_c, 0, 76, 0
2, 17157, Note_on_c, 0, 78, 71
2, 17164, Note_on_c, 0, 78, 0
2, 17164, Note_on_c, 0, 76, 71
2, 17171, Note_on_c, 0, 76, 0
2, 17171, Note_on_c, 0, 78, 71
2, 17178, Note_on_c, 0, 78, 0
2, 17178, Note_on_c, 0, 76, 72
2, 17184, Note_on_c, 0, 76, 0
2, 17184, Note_on_c, 0, 83, 72
2, 17199, Note_on_c, 0, 83, 0
2, 17200, Note_on_c, 0, 80, 72
2, 17215, Note_on_c, 0, 80, 0
2, 17216, Note_on_c, 0, 76, 73
2, 17231, Note_on_c, 0, 76, 0
2, 17232, Note_on_c, 0, 74, 73
2, 17239, Note_on_c, 0, 74, 0
2, 17239, Note_on_c, 0, 76, 73
2, 17246, Note_on_c, 0, 76, 0
2, 17246, Note_on_c, 0, 74, 73
2, 17253, Note_on_c, 0, 74, 0
2, 17253, Note_on_c, 0, 76, 73
2, 17260, Note_on_c, 0, 76, 0
2, 17260, Note_on_c, 0, 74, 74
2, 17267, Note_on_c, 0, 74, 0
2, 17267, Note_on_c, 0, 76, 74
2, 17274, Note_on_c, 0, 76, 0
2, 17274, Note_on_c, 0, 74, 74
2, 17280, Note_on_c, 0, 74, 0
2, 17280, Note_on_c, 0, 73, 74
2, 17295, Note_on_c, 0, 73, 0
2, 17296, Note_on_c, 0, 71, 75
2, 17311, Note_on_c, 0, 71, 0
2, 17312, Note_on_c, 0, 69, 74
2, 17327, Note_on_c, 0, 69, 0
2, 17328, Note_on_c, 0, 81, 74
2, 17343, Note_on_c, 0, 81, 0
2, 17344, Note_on_c, 0, 76, 74
2, 17359, Note_on_c, 0, 76, 0
2, 17360, Note_on_c, 0, 77, 73
2, 17375, Note_on_c, 0, 77, 0
2, 17376, Note_on_c, 0, 78, 73
2, 17391, Note_on_c, 0, 78, 0
2, 17392, Note_on_c, 0, 70, 73
2, 17407, Note_on_c, 0, 70, 0
2, 17408, Note_on_c, 0, 71, 73
2, 17423, Note_on_c, 0, 71, 0
2, 17424, Note_on_c, 0, 74, 72
2, 17439, Note_on_c, 0, 74, 0
2, 17440, Note_on_c, 0, 66, 72
2, 17455, Note_on_c, 0, 66, 0
2, 17456, Note_on_c, 0, 71, 72
2, 17471, Note_on_c, 0, 71, 0
2, 17472, Note_on_c, 0, 69, 70
2, 17520, Note_on_c, 0, 69, 0
2, 17520, Note_on_c, 0, 68, 70
2, 17561, Note_on_c, 0, 68, 0
2, 17664, Note_on_c, 0, 83, 80
2, 17670, Note_on_c, 0, 83, 0
2, 17670, Note_on_c, 0, 81, 80
2, 17676, Note_on_c, 0, 81, 0
2, 17676, Note_on_c, 0, 80, 80
2, 17682, Note_on_c, 0, 80, 0
2, 17682, Note_on_c, 0, 81, 80
2, 17775, Note_on_c, 0, 81, 0
2, 17776, Note_on_c, 0, 80, 80
2, 17791, Note_on_c, 0, 80, 0
2, 17792, Note_on_c, 0, 78, 80
2, 17807, Note_on_c, 0, 78, 0
2, 17808, Note_on_c, 0, 76, 80
2, 17823, Note_on_c, 0, 76, 0
2, 17824, Note_on_c, 0, 74, 80
2, 17839, Note_on_c, 0, 74, 0
2, 17840, Note_on_c, 0, 73, 80
2, 17855, Note_on_c, 0, 73, 0
2, 17856, Note_on_c, 0, 71, 80
2, 17871, Note_on_c, 0, 71, 0
2, 17872, Note_on_c, 0, 76, 80
2, 17887, Note_on_c, 0, 76, 0
2, 17888, Note_on_c, 0, 74, 80
2, 17903, Note_on_c, 0, 74, 0
2, 17904, Note_on_c, 0, 74, 80
2, 17949, Note_on_c, 0, 74, 0
2, 17952, Note_on_c, 0, 74, 80
2, 17958, Note_on_c, 0, 74, 0
2, 17958, Note_on_c, 0, 76, 80
2, 17964, Note_on_c, 0, 76, 0
2, 17964, Note_on_c, 0, 74, 80
2, 17970, Note_on_c, 0, 74, 0
2, 17970, Note_on_c, 0, 73, 80
2, 17985, Note_on_c, 0, 73, 0
2, 17985, Note_on_c, 0, 74, 80
2, 18000, Note_on_c, 0, 74, 0
2, 18000, Note_on_c, 0, 74, 80
2, 18006, Note_on_c, 0, 74, 0
2, 18006, Note_on_c, 0, 76, 80
2, 18012, Note_on_c, 0, 76, 0
2, 18012, Note_on_c, 0, 74, 80
2, 18018, Note_on_c, 0, 74, 0
2, 18018, Note_on_c, 0, 73, 80
2, 18033, Note_on_c, 0, 73, 0
2, 18033, Note_on_c, 0, 74, 80
2, 18048, Note_on_c, 0, 74, 0
2, 18048, Note_on_c, 0, 74, 80
2, 18093, Note_on_c, 0, 74, 0
2, 18096, Note_on_c, 0, 83, 80
2, 18141, Note_on_c, 0, 83, 0
2, 18144, Note_on_c, 0, 85, 80
2, 18150, Note_on_c, 0, 85, 0
2, 18150, Note_on_c, 0, 83, 80
2, 18159, Note_on_c, 0, 83, 0
2, 18160, Note_on_c, 0, 81, 80
2, 18175, Note_on_c, 0, 81, 0
2, 18176, Note_on_c, 0, 80, 80
2, 18191, Note_on_c, 0, 80, 0
2, 18192, Note_on_c, 0, 78, 80
2, 18207, Note_on_c, 0, 78, 0
2, 18208, Note_on_c, 0, 76, 80
2, 18223, Note_on_c, 0, 76, 0
2, 18224, Note_on_c, 0, 74, 80
2, 18239, Note_on_c, 0, 74, 0
2, 18240, Note_on_c, 0, 73, 80
2, 18255, Note_on_c, 0, 73, 0
2, 18256, Note_on_c, 0, 69, 80
2, 18271, Note_on_c, 0, 69, 0
2, 18272, Note_on_c, 0, 73, 80
2, 18287, Note_on_c, 0, 73, 0
2, 18288, Note_on_c, 0, 76, 80
2, 18303, Note_on_c, 0, 76, 0
2, 18304, Note_on_c, 0, 73, 80
2, 18319, Note_on_c, 0, 73, 0
2, 18320, Note_on_c, 0, 69, 80
2, 18335, Note_on_c, 0, 69, 0
2, 18336, Note_on_c, 0, 74, 80
2, 18351, Note_on_c, 0, 74, 0
2, 18352, Note_on_c, 0, 71, 80
2, 18367, Note_on_c, 0, 71, 0
2, 18368, Note_on_c, 0, 68, 80
2, 18383, Note_on_c, 0, 68, 0
2, 18384, Note_on_c, 0, 62, 80
2, 18399, Note_on_c, 0, 62, 0
2, 18400, Note_on_c, 0, 68, 80
2, 18415, Note_on_c, 0, 68, 0
2, 18416, Note_on_c, 0, 62, 80
2, 18431, Note_on_c, 0, 62, 0
2, 18432, Note_on_c, 0, 61, 80
2, 18447, Note_on_c, 0, 61, 0
2, 18448, Note_on_c, 0, 64, 80
2, 18463, Note_on_c, 0, 64, 0
2, 18464, Note_on_c, 0, 69, 80
2, 18479, Note_on_c, 0, 69, 0
2, 18480, Note_on_c, 0, 73, 80
2, 18495, Note_on_c, 0, 73, 0
2, 18496, Note_on_c, 0, 76, 80
2, 18511, Note_on_c, 0, 76, 0
2, 18512, Note_on_c, 0, 69, 80
2, 18527, Note_on_c, 0, 69, 0
2, 18528, Note_on_c, 0, 74, 80
2, 18543, Note_on_c, 0, 74, 0
2, 18544, Note_on_c, 0, 71, 80
2, 18559, Note_on_c, 0, 71, 0
2, 18560, Note_on_c, 0, 68, 80
2, 18575, Note_on_c, 0, 68, 0
2, 18576, Note_on_c, 0, 62, 80
2, 18591, Note_on_c, 0, 62, 0
2, 18592, Note_on_c, 0, 68, 80
2, 18607, Note_on_c, 0, 68, 0
2, 18608, Note_on_c, 0, 62, 80
2, 18623, Note_on_c, 0, 62, 0
2, 18624, Note_on_c, 0, 61, 75
2, 18639, Note_on_c, 0, 61, 0
2, 18640, Note_on_c, 0, 64, 75
2, 18655, Note_on_c, 0, 64, 0
2, 18656, Note_on_c, 0, 69, 75
2, 18671, Note_on_c, 0, 69, 0
2, 18672, Note_on_c, 0, 64, 76
2, 18687, Note_on_c, 0, 64, 0
2, 18688, Note_on_c, 0, 69, 76
2, 18703, Note_on_c, 0, 69, 0
2, 18704, Note_on_c, 0, 73, 76
2, 18719, Note_on_c, 0, 73, 0
2, 18720, Note_on_c, 0, 69, 77
2, 18735, Note_on_c, 0, 69, 0
2, 18736, Note_on_c, 0, 73, 77
2, 18751, Note_on_c, 0, 73, 0
2, 18752, Note_on_c, 0, 76, 78
2, 18767, Note_on_c, 0, 76, 0
2, 18768, Note_on_c, 0, 73, 78
2, 18783, Note_on_c, 0, 73, 0
2, 18784, Note_on_c, 0, 76, 80
2, 18799, Note_on_c, 0, 76, 0
2, 18800, Note_on_c, 0, 79, 80
2, 18815, Note_on_c, 0, 79, 0
2, 18816, Note_on_c, 0, 78, 80
2, 18831, Note_on_c, 0, 78, 0
2, 18832, Note_on_c, 0, 76, 80
2, 18847, Note_on_c, 0, 76, 0
2, 18848, Note_on_c, 0, 78, 80
2, 18863, Note_on_c, 0, 78, 0
2, 18864, Note_on_c, 0, 86, 80
2, 18879, Note_on_c, 0, 86, 0
2, 18880, Note_on_c, 0, 74, 80
2, 18895, Note_on_c, 0, 74, 0
2, 18896, Note_on_c, 0, 78, 80
2, 18911, Note_on_c, 0, 78, 0
2, 18912, Note_on_c, 0, 76, 80
2, 18927, Note_on_c, 0, 76, 0
2, 18928, Note_on_c, 0, 81, 80
2, 18943, Note_on_c, 0, 81, 0
2, 18944, Note_on_c, 0, 80, 80
2, 18959, Note_on_c, 0, 80, 0
2, 18960, Note_on_c, 0, 81, 80
2, 18975, Note_on_c, 0, 81, 0
2, 18976, Note_on_c, 0, 73, 80
2, 18991, Note_on_c, 0, 73, 0
2, 18992, Note_on_c, 0, 76, 80
2, 19007, Note_on_c, 0, 76, 0
2, 19008, Note_on_c, 0, 74, 80
2, 19023, Note_on_c, 0, 74, 0
2, 19024, Note_on_c, 0, 73, 80
2, 19039, Note_on_c, 0, 73, 0
2, 19040, Note_on_c, 0, 74, 80
2, 19055, Note_on_c, 0, 74, 0
2, 19056, Note_on_c, 0, 78, 80
2, 19071, Note_on_c, 0, 78, 0
2, 19072, Note_on_c, 0, 76, 80
2, 19087, Note_on_c, 0, 76, 0
2, 19088, Note_on_c, 0, 74, 80
2, 19103, Note_on_c, 0, 74, 0
2, 19104, Note_on_c, 0, 73, 80
2, 19119, Note_on_c, 0, 73, 0
2, 19120, Note_on_c, 0, 81, 80
2, 19135, Note_on_c, 0, 81, 0
2, 19136, Note_on_c, 0, 76, 80
2, 19151, Note_on_c, 0, 76, 0
2, 19152, Note_on_c, 0, 78, 80
2, 19167, Note_on_c, 0, 78, 0
2, 19168, Note_on_c, 0, 74, 79
2, 19183, Note_on_c, 0, 74, 0
2, 19184, Note_on_c, 0, 71, 79
2, 19199, Note_on_c, 0, 71, 0
2, 19200, Note_on_c, 0, 69, 78
2, 19248, Note_on_c, 0, 69, 0
2, 19248, Note_on_c, 0, 68, 78
2, 19289, Note_on_c, 0, 68, 0
2, 19296, Note_on_c, 0, 78, 75
2, 19303, Note_on_c, 0, 78, 0
2, 19303, Note_on_c, 0, 76, 75
2, 19310, Note_on_c, 0, 76, 0
2, 19310, Note_on_c, 0, 78, 75
2, 19317, Note_on_c, 0, 78, 0
2, 19317, Note_on_c, 0, 76, 75
2, 19324, Note_on_c, 0, 76, 0
2, 19324, Note_on_c, 0, 78, 76
2, 19331, Note_on_c, 0, 78, 0
2, 19331, Note_on_c, 0, 76, 76
2, 19338, Note_on_c, 0, 76, 0
2, 19338, Note_on_c, 0, 78, 76
2, 19345, Note_on_c, 0, 78, 0
2, 19345, Note_on_c, 0, 76, 76
2, 19352, Note_on_c, 0, 76, 0
2, 19352, Note_on_c, 0, 78, 77
2, 19359, Note_on_c, 0, 78, 0
2, 19359, Note_on_c, 0, 76, 77
2, 19366, Note_on_c, 0, 76, 0
2, 19366, Note_on_c, 0, 78, 77
2, 19373, Note_on_c, 0, 78, 0
2, 19373, Note_on_c, 0, 76, 78
2, 19380, Note_on_c, 0, 76, 0
2, 19380, Note_on_c, 0, 78, 78
2, 19386, Note_on_c, 0, 78, 0
2, 19386, Note_on_c, 0, 76, 78
2, 19407, Note_on_c, 0, 76, 0
2, 19408, Note_on_c, 0, 80, 80
2, 19423, Note_on_c, 0, 80, 0
2, 19424, Note_on_c, 0, 81, 80
2, 19439, Note_on_c, 0, 81, 0
2, 19440, Note_on_c, 0, 85, 80
2, 19455, Note_on_c, 0, 85, 0
2, 19456, Note_on_c, 0, 80, 80
2, 19471, Note_on_c, 0, 80, 0
2, 19472, Note_on_c, 0, 81, 80
2, 19487, Note_on_c, 0, 81, 0
2, 19488, Note_on_c, 0, 78, 70
2, 19495, Note_on_c, 0, 78, 0
2, 19495, Note_on_c, 0, 76, 70
2, 19502, Note_on_c, 0, 76, 0
2, 19502, Note_on_c, 0, 78, 70
2, 19509, Note_on_c, 0, 78, 0
2, 19509, Note_on_c, 0, 76, 70
2, 19516, Note_on_c, 0, 76, 0
2, 19516, Note_on_c, 0, 78, 71
2, 19523, Note_on_c, 0, 78, 0
2, 19523, Note_on_c, 0, 76, 71
2, 19530, Note_on_c, 0, 76, 0
2, 19530, Note_on_c, 0, 78, 71
2, 19537, Note_on_c, 0, 78, 0
2, 19537, Note_on_c, 0, 76, 71
2, 19544, Note_on_c, 0, 76, 0
2, 19544, Note_on_c, 0, 78, 72
2, 19551, Note_on_c, 0, 78, 0
2, 19551, Note_on_c, 0, 76, 72
2, 19558, Note_on_c, 0, 76, 0
2, 19558, Note_on_c, 0, 78, 72
2, 19565, Note_on_c, 0, 78, 0
2, 19565, Note_on_c, 0, 76, 73
2, 19572, Note_on_c, 0, 76, 0
2, 19572, Note_on_c, 0, 78, 73
2, 19578, Note_on_c, 0, 78, 0
2, 19578, Note_on_c, 0, 76, 73
2, 19599, Note_on_c, 0, 76, 0
2, 19600, Note_on_c, 0, 80, 75
2, 19615, Note_on_c, 0, 80, 0
2, 19616, Note_on_c, 0, 81, 75
2, 19631, Note_on_c, 0, 81, 0
2, 19632, Note_on_c, 0, 85, 75
2, 19647, Note_on_c, 0, 85, 0
2, 19648, Note_on_c, 0, 80, 75
2, 19663, Note_on_c, 0, 80, 0
2, 19664, Note_on_c, 0, 81, 75
2, 19679, Note_on_c, 0, 81, 0
2, 19680, Note_on_c, 0, 78, 91
2, 19686, Note_on_c, 0, 78, 0
2, 19686, Note_on_c, 0, 80, 91
2, 19692, Note_on_c, 0, 80, 0
2, 19692, Note_on_c, 0, 78, 91
2, 19728, Note_on_c, 0, 78, 0
2, 19728, Note_on_c, 0, 71, 75
2, 19743, Note_on_c, 0, 71, 0
2, 19744, Note_on_c, 0, 73, 75
2, 19759, Note_on_c, 0, 73, 0
2, 19760, Note_on_c, 0, 74, 75
2, 19775, Note_on_c, 0, 74, 0
2, 19776, Note_on_c, 0, 76, 91
2, 19782, Note_on_c, 0, 76, 0
2, 19782, Note_on_c, 0, 78, 91
2, 19788, Note_on_c, 0, 78, 0
2, 19788, Note_on_c, 0, 76, 91
2, 19824, Note_on_c, 0, 76, 0
2, 19824, Note_on_c, 0, 69, 75
2, 19839, Note_on_c, 0, 69, 0
2, 19840, Note_on_c, 0, 71, 75
2, 19855, Note_on_c, 0, 71, 0
2, 19856, Note_on_c, 0, 73, 75
2, 19871, Note_on_c, 0, 73, 0
2, 19872, Note_on_c, 0, 74, 75
2, 19887, Note_on_c, 0, 74, 0
2, 19888, Note_on_c, 0, 73, 75
2, 19903, Note_on_c, 0, 73, 0
2, 19904, Note_on_c, 0, 71, 75
2, 19919, Note_on_c, 0, 71, 0
2, 19920, Note_on_c, 0, 73, 75
2, 19935, Note_on_c, 0, 73, 0
2, 19936, Note_on_c, 0, 71, 75
2, 19951, Note_on_c, 0, 71, 0
2, 19952, Note_on_c, 0, 69, 75
2, 19967, Note_on_c, 0, 69, 0
2, 19968, Note_on_c, 0, 68, 75
2, 19983, Note_on_c, 0, 68, 0
2, 19984, Note_on_c, 0, 69, 75
2, 19999, Note_on_c, 0, 69, 0
2, 20000, Note_on_c, 0, 71, 75
2, 20015, Note_on_c, 0, 71, 0
2, 20016, Note_on_c, 0, 69, 75
2, 20031, Note_on_c, 0, 69, 0
2, 20032, Note_on_c, 0, 71, 75
2, 20047, Note_on_c, 0, 71, 0
2, 20048, Note_on_c, 0, 73, 75
2, 20063, Note_on_c, 0, 73, 0
2, 20064, Note_on_c, 0, 74, 75
2, 20079, Note_on_c, 0, 74, 0
2, 20080, Note_on_c, 0, 73, 75
2, 20095, Note_on_c, 0, 73, 0
2, 20096, Note_on_c, 0, 71, 75
2, 20111, Note_on_c, 0, 71, 0
2, 20112, Note_on_c, 0, 73, 75
2, 20127, Note_on_c, 0, 73, 0
2, 20128, Note_on_c, 0, 71, 75
2, 20143, Note_on_c, 0, 71, 0
2, 20144, Note_on_c, 0, 69, 75
2, 20159, Note_on_c, 0, 69, 0
2, 20160, Note_on_c, 0, 74, 80
2, 20175, Note_on_c, 0, 74, 0
2, 20176, Note_on_c, 0, 71, 80
2, 20191, Note_on_c, 0, 71, 0
2, 20192, Note_on_c, 0, 64, 80
2, 20207, Note_on_c, 0, 64, 0
2, 20208, Note_on_c, 0, 73, 80
2, 20223, Note_on_c, 0, 73, 0
2, 20224, Note_on_c, 0, 69, 80
2, 20239, Note_on_c, 0, 69, 0
2, 20240, Note_on_c, 0, 64, 80
2, 20255, Note_on_c, 0, 64, 0
2, 20256, Note_on_c, 0, 71, 75
2, 20262, Note_on_c, 0, 71, 0
2, 20262, Note_on_c, 0, 73, 75
2, 20268, Note_on_c, 0, 73, 0
2, 20268, Note_on_c, 0, 71, 75
2, 20274, Note_on_c, 0, 71, 0
2, 20274, Note_on_c, 0, 70, 75
2, 20289, Note_on_c, 0, 70, 0
2, 20289, Note_on_c, 0, 71, 75
2, 20304, Note_on_c, 0, 71, 0
2, 20304, Note_on_c, 0, 71, 75
2, 20310, Note_on_c, 0, 71, 0
2, 20310, Note_on_c, 0, 73, 75
2, 20316, Note_on_c, 0, 73, 0
2, 20316, Note_on_c, 0, 71, 75
2, 20322, Note_on_c, 0, 71, 0
2, 20322, Note_on_c, 0, 70, 75
2, 20337, Note_on_c, 0, 70, 0
2, 20337, Note_on_c, 0, 71, 75
2, 20352, Note_on_c, 0, 71, 0
2, 20352, Note_on_c, 0, 76, 75
2, 20367, Note_on_c, 0, 76, 0
2, 20368, Note_on_c, 0, 73, 75
2, 20383, Note_on_c, 0, 73, 0
2, 20384, Note_on_c, 0, 69, 75
2, 20399, Note_on_c, 0, 69, 0
2, 20400, Note_on_c, 0, 81, 75
2, 20415, Note_on_c, 0, 81, 0
2, 20416, Note_on_c, 0, 78, 75
2, 20431, Note_on_c, 0, 78, 0
2, 20432, Note_on_c, 0, 74, 75
2, 20447, Note_on_c, 0, 74, 0
2, 20448, Note_on_c, 0, 73, 75
2, 20493, Note_on_c, 0, 73, 0
2, 20496, Note_on_c, 0, 73, 75
2, 20503, Note_on_c, 0, 73, 0
2, 20503, Note_on_c, 0, 71, 75
2, 20510, Note_on_c, 0, 71, 0
2, 20510, Note_on_c, 0, 73, 75
2, 20517, Note_on_c, 0, 73, 0
2, 20517, Note_on_c, 0, 71, 75
2, 20524, Note_on_c, 0, 71, 0
2, 20524, Note_on_c, 0, 73, 75
2, 20531, Note_on_c, 0, 73, 0
2, 20531, Note_on_c, 0, 69, 75
2, 20538, Note_on_c, 0, 69, 0
2, 20538, Note_on_c, 0, 71, 75
2, 20544, Note_on_c, 0, 71, 0
2, 20544, Note_on_c, 0, 69, 75
2, 20589, Note_on_c, 0, 69, 0
2, 20592, Note_on_c, 0, 69, 70
2, 20599, Note_on_c, 0, 69, 0
2, 20608, Note_on_c, 0, 69, 70
2, 20623, Note_on_c, 0, 69, 0
2, 20624, Note_on_c, 0, 64, 70
2, 20639, Note_on_c, 0, 64, 0
2, 20640, Note_on_c, 0, 66, 70
2, 20647, Note_on_c, 0, 66, 0
2, 20656, Note_on_c, 0, 66, 70
2, 20671, Note_on_c, 0, 66, 0
2, 20672, Note_on_c, 0, 62, 70
2, 20687, Note_on_c, 0, 62, 0
2, 20688, Note_on_c, 0, 59, 70
2, 20703, Note_on_c, 0, 59, 0
2, 20704, Note_on_c, 0, 64, 70
2, 20719, Note_on_c, 0, 64, 0
2, 20720, Note_on_c, 0, 56, 70
2, 20735, Note_on_c, 0, 56, 0
2, 20736, Note_on_c, 0, 57, 70
2, 20781, Note_on_c, 0, 57, 0
2, 20784, Note_on_c, 0, 69, 70
2, 20791, Note_on_c, 0, 69, 0
2, 20800, Note_on_c, 0, 69, 70
2, 20815, Note_on_c, 0, 69, 0
2, 20816, Note_on_c, 0, 64, 70
2, 20831, Note_on_c, 0, 64, 0
2, 20832, Note_on_c, 0, 66, 70
2, 20839, Note_on_c, 0, 66, 0
2, 20848, Note_on_c, 0, 66, 70
2, 20863, Note_on_c, 0, 66, 0
2, 20864, Note_on_c, 0, 62, 70
2, 20879, Note_on_c, 0, 62, 0
2, 20880, Note_on_c, 0, 74, 70
2, 20887, Note_on_c, 0, 74, 0
2, 20896, Note_on_c, 0, 74, 70
2, 20911, Note_on_c, 0, 74, 0
2, 20912, Note_on_c, 0, 68, 70
2, 20927, Note_on_c, 0, 68, 0
2, 20928, Note_on_c, 0, 71, 70
2, 20934, Note_on_c, 0, 71, 0
2, 20934, Note_on_c, 0, 69, 70
2, 20940, Note_on_c, 0, 69, 0
2, 20940, Note_on_c, 0, 68, 70
2, 20946, Note_on_c, 0, 68, 0
2, 20946, Note_on_c, 0, 69, 70
2, 21061, Note_on_c, 0, 69, 0
2, 21120, End_track
3, 0, Start_track
3, 0, Program_c, 0, 0
3, 0, Control_c, 0, 7, 127
3, 0, Control_c, 0, 10, 64
3, 21120, End_track
4, 0, Start_track
4, 0, Program_c, 1, 0
4, 0, Control_c, 1, 7, 127
4, 0, Control_c, 1, 10, 64
4, 48, Note_on_c, 1, 61, 64
4, 48, Note_on_c, 1, 57, 64
4, 95, Note_on_c, 1, 61, 0
4, 95, Note_on_c, 1, 57, 0
4, 96, Note_on_c, 1, 61, 64
4, 96, Note_on_c, 1, 57, 64
4, 143, Note_on_c, 1, 61, 0
4, 143, Note_on_c, 1, 57, 0
4, 144, Note_on_c, 1, 61, 64
4, 144, Note_on_c, 1, 57, 64
4, 191, Note_on_c, 1, 61, 0
4, 191, Note_on_c, 1, 57, 0
4, 240, Note_on_c, 1, 59, 64
4, 240, Note_on_c, 1, 57, 64
4, 287, Note_on_c, 1, 59, 0
4, 287, Note_on_c, 1, 57, 0
4, 288, Note_on_c, 1, 59, 64
4, 288, Note_on_c, 1, 57, 64
4, 335, Note_on_c, 1, 59, 0
4, 335, Note_on_c, 1, 57, 0
4, 336, Note_on_c, 1, 59, 64
4, 336, Note_on_c, 1, 57, 64
4, 383, Note_on_c, 1, 59, 0
4, 383, Note_on_c, 1, 57, 0
4, 432, Note_on_c, 1, 59, 64
4, 432, Note_on_c, 1, 56, 64
4, 479, Note_on_c, 1, 59, 0
4, 479, Note_on_c, 1, 56, 0
4, 480, Note_on_c, 1, 59, 64
4, 480, Note_on_c, 1, 56, 64
4, 527, Note_on_c, 1, 59, 0
4, 527, Note_on_c, 1, 56, 0
4, 528, Note_on_c, 1, 59, 64
4, 528, Note_on_c, 1, 56, 64
4, 575, Note_on_c, 1, 59, 0
4, 575, Note_on_c, 1, 56, 0
4, 576, Note_on_c, 1, 57, 64
4, 665, Note_on_c, 1, 57, 0
4, 672, Note_on_c, 1, 45, 75
4, 687, Note_on_c, 1, 45, 0
4, 688, Note_on_c, 1, 49, 75
4, 703, Note_on_c, 1, 49, 0
4, 704, Note_on_c, 1, 52, 75
4, 719, Note_on_c, 1, 52, 0
4, 720, Note_on_c, 1, 47, 75
4, 735, Note_on_c, 1, 47, 0
4, 736, Note_on_c, 1, 50, 75
4, 751, Note_on_c, 1, 50, 0
4, 752, Note_on_c, 1, 56, 75
4, 767, Note_on_c, 1, 56, 0
4, 768, Note_on_c, 1, 57, 75
4, 857, Note_on_c, 1, 57, 0
4, 912, Note_on_c, 1, 59, 75
4, 912, Note_on_c, 1, 52, 75
4, 957, Note_on_c, 1, 59, 0
4, 957, Note_on_c, 1, 52, 0
4, 960, Note_on_c, 1, 57, 75
4, 960, Note_on_c, 1, 45, 75
4, 1049, Note_on_c, 1, 57, 0
4, 1049, Note_on_c, 1, 45, 0
4, 1104, Note_on_c, 1, 59, 75
4, 1104, Note_on_c, 1, 52, 75
4, 1149, Note_on_c, 1, 59, 0
4, 1149, Note_on_c, 1, 52, 0
4, 1152, Note_on_c, 1, 57, 75
4, 1152, Note_on_c, 1, 45, 75
4, 1197, Note_on_c, 1, 57, 0
4, 1197, Note_on_c, 1, 45, 0
4, 1200, Note_on_c, 1, 61, 70
4, 1200, Note_on_c, 1, 57, 70
4, 1245, Note_on_c, 1, 61, 0
4, 1245, Note_on_c, 1, 57, 0
4, 1248, Note_on_c, 1, 61, 71
4, 1248, Note_on_c, 1, 57, 71
4, 1293, Note_on_c, 1, 61, 0
4, 1293, Note_on_c, 1, 57, 0
4, 1296, Note_on_c, 1, 61, 73
4, 1296, Note_on_c, 1, 57, 73
4, 1341, Note_on_c, 1, 61, 0
4, 1341, Note_on_c, 1, 57, 0
4, 1392, Note_on_c, 1, 56, 72
4, 1392, Note_on_c, 1, 52, 72
4, 1437, Note_on_c, 1, 56, 0
4, 1437, Note_on_c, 1, 52, 0
4, 1440, Note_on_c, 1, 56, 74
4, 1440, Note_on_c, 1, 52, 74
4, 1485, Note_on_c, 1, 56, 0
4, 1485, Note_on_c, 1, 52, 0
4, 1488, Note_on_c, 1, 56, 76
4, 1488, Note_on_c, 1, 52, 76
4, 1533, Note_on_c, 1, 56, 0
4, 1533, Note_on_c, 1, 52, 0
4, 1536, Note_on_c, 1, 54, 78
4, 1581, Note_on_c, 1, 54, 0
4, 1584, Note_on_c, 1, 57, 80
4, 1629, Note_on_c, 1, 57, 0
4, 1632, Note_on_c, 1, 59, 78
4, 1677, Note_on_c, 1, 59, 0
4, 1680, Note_on_c, 1, 63, 77
4, 1725, Note_on_c, 1, 63, 0
4, 1728, Note_on_c, 1, 64, 76
4, 1773, Note_on_c, 1, 64, 0
4, 1776, Note_on_c, 1, 56, 75
4, 1821, Note_on_c, 1, 56, 0
4, 1824, Note_on_c, 1, 57, 75
4, 1913, Note_on_c, 1, 57, 0
4, 1920, Note_on_c, 1, 59, 70
4, 1965, Note_on_c, 1, 59, 0
4, 1968, Note_on_c, 1, 47, 70
4, 2013, Note_on_c, 1, 47, 0
4, 2016, Note_on_c, 1, 59, 70
4, 2031, Note_on_c, 1, 59, 0
4, 2032, Note_on_c, 1, 63, 70
4, 2047, Note_on_c, 1, 63, 0
4, 2048, Note_on_c, 1, 66, 70
4, 2063, Note_on_c, 1, 66, 0
4, 2064, Note_on_c, 1, 63, 70
4, 2079, Note_on_c, 1, 63, 0
4, 2080, Note_on_c, 1, 66, 70
4, 2095, Note_on_c, 1, 66, 0
4, 2096, Note_on_c, 1, 69, 70
4, 2111, Note_on_c, 1, 69, 0
4, 2112, Note_on_c, 1, 68, 70
4, 2201, Note_on_c, 1, 68, 0
4, 2208, Note_on_c, 1, 59, 64
4, 2223, Note_on_c, 1, 59, 0
4, 2224, Note_on_c, 1, 63, 64
4, 2239, Note_on_c, 1, 63, 0
4, 2240, Note_on_c, 1, 66, 64
4, 2255, Note_on_c, 1, 66, 0
4, 2256, Note_on_c, 1, 63, 64
4, 2271, Note_on_c, 1, 63, 0
4, 2272, Note_on_c, 1, 66, 64
4, 2287, Note_on_c, 1, 66, 0
4, 2288, Note_on_c, 1, 69, 64
4, 2303, Note_on_c, 1, 69, 0
4, 2304, Note_on_c, 1, 68, 64
4, 2393, Note_on_c, 1, 68, 0
4, 2400, Note_on_c, 1, 57, 64
4, 2415, Note_on_c, 1, 57, 0
4, 2416, Note_on_c, 1, 61, 64
4, 2431, Note_on_c, 1, 61, 0
4, 2432, Note_on_c, 1, 66, 64
4, 2447, Note_on_c, 1, 66, 0
4, 2448, Note_on_c, 1, 69, 64
4, 2463, Note_on_c, 1, 69, 0
4, 2464, Note_on_c, 1, 68, 64
4, 2479, Note_on_c, 1, 68, 0
4, 2480, Note_on_c, 1, 66, 64
4, 2495, Note_on_c, 1, 66, 0
4, 2496, Note_on_c, 1, 56, 70
4, 2511, Note_on_c, 1, 56, 0
4, 2512, Note_on_c, 1, 59, 70
4, 2527, Note_on_c, 1, 59, 0
4, 2528, Note_on_c, 1, 64, 70
4, 2543, Note_on_c, 1, 64, 0
4, 2544, Note_on_c, 1, 68, 70
4, 2559, Note_on_c, 1, 68, 0
4, 2560, Note_on_c, 1, 66, 70
4, 2575, Note_on_c, 1, 66, 0
4, 2576, Note_on_c, 1, 64, 70
4, 2591, Note_on_c, 1, 64, 0
4, 2592, Note_on_c, 1, 63, 70
4, 2637, Note_on_c, 1, 63, 0
4, 2640, Note_on_c, 1, 64, 70
4, 2655, Note_on_c, 1, 64, 0
4, 2656, Note_on_c, 1, 66, 70
4, 2671, Note_on_c, 1, 66, 0
4, 2672, Note_on_c, 1, 68, 70
4, 2687, Note_on_c, 1, 68, 0
4, 2688, Note_on_c, 1, 69, 70
4, 2703, Note_on_c, 1, 69, 0
4, 2704, Note_on_c, 1, 68, 70
4, 2719, Note_on_c, 1, 68, 0
4, 2720, Note_on_c, 1, 66, 70
4, 2735, Note_on_c, 1, 66, 0
4, 2736, Note_on_c, 1, 68, 70
4, 2751, Note_on_c, 1, 68, 0
4, 2752, Note_on_c, 1, 66, 70
4, 2767, Note_on_c, 1, 66, 0
4, 2768, Note_on_c, 1, 64, 70
4, 2783, Note_on_c, 1, 64, 0
4, 2784, Note_on_c, 1, 63, 70
4, 2829, Note_on_c, 1, 63, 0
4, 2832, Note_on_c, 1, 64, 72
4, 2877, Note_on_c, 1, 64, 0
4, 2880, Note_on_c, 1, 63, 80
4, 2880, Note_on_c, 1, 51, 80
4, 2925, Note_on_c, 1, 63, 0
4, 2925, Note_on_c, 1, 51, 0
4, 2928, Note_on_c, 1, 64, 80
4, 2928, Note_on_c, 1, 52, 80
4, 2973, Note_on_c, 1, 64, 0
4, 2973, Note_on_c, 1, 52, 0
4, 2976, Note_on_c, 1, 61, 64
4, 2976, Note_on_c, 1, 57, 64
4, 3021, Note_on_c, 1, 61, 0
4, 3021, Note_on_c, 1, 57, 0
4, 3024, Note_on_c, 1, 61, 64
4, 3024, Note_on_c, 1, 57, 64
4, 3069, Note_on_c, 1, 61, 0
4, 3069, Note_on_c, 1, 57, 0
4, 3072, Note_on_c, 1, 56, 75
4, 3139, Note_on_c, 1, 56, 0
4, 3144, Note_on_c, 1, 61, 75
4, 3167, Note_on_c, 1, 61, 0
4, 3168, Note_on_c, 1, 59, 75
4, 3213, Note_on_c, 1, 59, 0
4, 3216, Note_on_c, 1, 47, 75
4, 3261, Note_on_c, 1, 47, 0
4, 3264, Note_on_c, 1, 52, 75
4, 3633, Note_on_c, 1, 52, 0
4, 3648, Note_on_c, 1, 52, 75
4, 3693, Note_on_c, 1, 52, 0
4, 3696, Note_on_c, 1, 64, 75
4, 3774, Note_on_c, 1, 64, 0
4, 3888, Note_on_c, 1, 61, 64
4, 3888, Note_on_c, 1, 57, 64
4, 3935, Note_on_c, 1, 61, 0
4, 3935, Note_on_c, 1, 57, 0
4, 3936, Note_on_c, 1, 61, 64
4, 3936, Note_on_c, 1, 57, 64
4, 3983, Note_on_c, 1, 61, 0
4, 3983, Note_on_c, 1, 57, 0
4, 3984, Note_on_c, 1, 61, 64
4, 3984, Note_on_c, 1, 57, 64
4, 4031, Note_on_c, 1, 61, 0
4, 4031, Note_on_c, 1, 57, 0
4, 4080, Note_on_c, 1, 59, 64
4, 4080, Note_on_c, 1, 57, 64
4, 4127, Note_on_c, 1, 59, 0
4, 4127, Note_on_c, 1, 57, 0
4, 4128, Note_on_c, 1, 59, 64
4, 4128, Note_on_c, 1, 57, 64
4, 4175, Note_on_c, 1, 59, 0
4, 4175, Note_on_c, 1, 57, 0
4, 4176, Note_on_c, 1, 59, 64
4, 4176, Note_on_c, 1, 57, 64
4, 4223, Note_on_c, 1, 59, 0
4, 4223, Note_on_c, 1, 57, 0
4, 4272, Note_on_c, 1, 59, 64
4, 4272, Note_on_c, 1, 56, 64
4, 4319, Note_on_c, 1, 59, 0
4, 4319, Note_on_c, 1, 56, 0
4, 4320, Note_on_c, 1, 59, 64
4, 4320, Note_on_c, 1, 56, 64
4, 4367, Note_on_c, 1, 59, 0
4, 4367, Note_on_c, 1, 56, 0
4, 4368, Note_on_c, 1, 59, 64
4, 4368, Note_on_c, 1, 56, 64
4, 4415, Note_on_c, 1, 59, 0
4, 4415, Note_on_c, 1, 56, 0
4, 4416, Note_on_c, 1, 57, 64
4, 4505, Note_on_c, 1, 57, 0
4, 4512, Note_on_c, 1, 45, 75
4, 4527, Note_on_c, 1, 45, 0
4, 4528, Note_on_c, 1, 49, 75
4, 4543, Note_on_c, 1, 49, 0
4, 4544, Note_on_c, 1, 52, 75
4, 4559, Note_on_c, 1, 52, 0
4, 4560, Note_on_c, 1, 47, 75
4, 4575, Note_on_c, 1, 47, 0
4, 4576, Note_on_c, 1, 50, 75
4, 4591, Note_on_c, 1, 50, 0
4, 4592, Note_on_c, 1, 56, 75
4, 4607, Note_on_c, 1, 56, 0
4, 4608, Note_on_c, 1, 57, 75
4, 4697, Note_on_c, 1, 57, 0
4, 4752, Note_on_c, 1, 59, 75
4, 4752, Note_on_c, 1, 52, 75
4, 4797, Note_on_c, 1, 59, 0
4, 4797, Note_on_c, 1, 52, 0
4, 4800, Note_on_c, 1, 57, 75
4, 4800, Note_on_c, 1, 45, 75
4, 4889, Note_on_c, 1, 57, 0
4, 4889, Note_on_c, 1, 45, 0
4, 4944, Note_on_c, 1, 59, 75
4, 4944, Note_on_c, 1, 52, 75
4, 4989, Note_on_c, 1, 59, 0
4, 4989, Note_on_c, 1, 52, 0
4, 4992, Note_on_c, 1, 57, 75
4, 4992, Note_on_c, 1, 45, 75
4, 5037, Note_on_c, 1, 57, 0
4, 5037, Note_on_c, 1, 45, 0
4, 5040, Note_on_c, 1, 61, 70
4, 5040, Note_on_c, 1, 57, 70
4, 5085, Note_on_c, 1, 61, 0
4, 5085, Note_on_c, 1, 57, 0
4, 5088, Note_on_c, 1, 61, 71
4, 5088, Note_on_c, 1, 57, 71
4, 5133, Note_on_c, 1, 61, 0
4, 5133, Note_on_c, 1, 57, 0
4, 5136, Note_on_c, 1, 61, 73
4, 5136, Note_on_c, 1, 57, 73
4, 5181, Note_on_c, 1, 61, 0
4, 5181, Note_on_c, 1, 57, 0
4, 5232, Note_on_c, 1, 56, 72
4, 5232, Note_on_c, 1, 52, 72
4, 5277, Note_on_c, 1, 56, 0
4, 5277, Note_on_c, 1, 52, 0
4, 5280, Note_on_c, 1, 56, 74
4, 5280, Note_on_c, 1, 52, 74
4, 5325, Note_on_c, 1, 56, 0
4, 5325, Note_on_c, 1, 52, 0
4, 5328, Note_on_c, 1, 56, 76
4, 5328, Note_on_c, 1, 52, 76
4, 5373, Note_on_c, 1, 56, 0
4, 5373, Note_on_c, 1, 52, 0
4, 5376, Note_on_c, 1, 54, 78
4, 5421, Note_on_c, 1, 54, 0
4, 5424, Note_on_c, 1, 57, 80
4, 5469, Note_on_c, 1, 57, 0
4, 5472, Note_on_c, 1, 59, 78
4, 5517, Note_on_c, 1, 59, 0
4, 5520, Note_on_c, 1, 63, 77
4, 5565, Note_on_c, 1, 63, 0
4, 5568, Note_on_c, 1, 64, 76
4, 5613, Note_on_c, 1, 64, 0
4, 5616, Note_on_c, 1, 56, 75
4, 5661, Note_on_c, 1, 56, 0
4, 5664, Note_on_c, 1, 57, 75
4, 5753, Note_on_c, 1, 57, 0
4, 5760, Note_on_c, 1, 59, 70
4, 5805, Note_on_c, 1, 59, 0
4, 5808, Note_on_c, 1, 47, 70
4, 5853, Note_on_c, 1, 47, 0
4, 5856, Note_on_c, 1, 59, 70
4, 5871, Note_on_c, 1, 59, 0
4, 5872, Note_on_c, 1, 63, 70
4, 5887, Note_on_c, 1, 63, 0
4, 5888, Note_on_c, 1, 66, 70
4, 5903, Note_on_c, 1, 66, 0
4, 5904, Note_on_c, 1, 63, 70
4, 5919, Note_on_c, 1, 63, 0
4, 5920, Note_on_c, 1, 66, 70
4, 5935, Note_on_c, 1, 66, 0
4, 5936, Note_on_c, 1, 69, 70
4, 5951, Note_on_c, 1, 69, 0
4, 5952, Note_on_c, 1, 68, 70
4, 6041, Note_on_c, 1, 68, 0
4, 6048, Note_on_c, 1, 59, 64
4, 6063, Note_on_c, 1, 59, 0
4, 6064, Note_on_c, 1, 63, 64
4, 6079, Note_on_c, 1, 63, 0
4, 6080, Note_on_c, 1, 66, 64
4, 6095, Note_on_c, 1, 66, 0
4, 6096, Note_on_c, 1, 63, 64
4, 6111, Note_on_c, 1, 63, 0
4, 6112, Note_on_c, 1, 66, 64
4, 6127, Note_on_c, 1, 66, 0
4, 6128, Note_on_c, 1, 69, 64
4, 6143, Note_on_c, 1, 69, 0
4, 6144, Note_on_c, 1, 68, 64
4, 6233, Note_on_c, 1, 68, 0
4, 6240, Note_on_c, 1, 57, 64
4, 6255, Note_on_c, 1, 57, 0
4, 6256, Note_on_c, 1, 61, 64
4, 6271, Note_on_c, 1, 61, 0
4, 6272, Note_on_c, 1, 66, 64
4, 6287, Note_on_c, 1, 66, 0
4, 6288, Note_on_c, 1, 69, 64
4, 6303, Note_on_c, 1, 69, 0
4, 6304, Note_on_c, 1, 68, 64
4, 6319, Note_on_c, 1, 68, 0
4, 6320, Note_on_c, 1, 66, 64
4, 6335, Note_on_c, 1, 66, 0
4, 6336, Note_on_c, 1, 56, 70
4, 6351, Note_on_c, 1, 56, 0
4, 6352, Note_on_c, 1, 59, 70
4, 6367, Note_on_c, 1, 59, 0
4, 6368, Note_on_c, 1, 64, 70
4, 6383, Note_on_c, 1, 64, 0
4, 6384, Note_on_c, 1, 68, 70
4, 6399, Note_on_c, 1, 68, 0
4, 6400, Note_on_c, 1, 66, 70
4, 6415, Note_on_c, 1, 66, 0
4, 6416, Note_on_c, 1, 64, 70
4, 6431, Note_on_c, 1, 64, 0
4, 6432, Note_on_c, 1, 63, 70
4, 6477, Note_on_c, 1, 63, 0
4, 6480, Note_on_c, 1, 64, 70
4, 6495, Note_on_c, 1, 64, 0
4, 6496, Note_on_c, 1, 66, 70
4, 6511, Note_on_c, 1, 66, 0
4, 6512, Note_on_c, 1, 68, 70
4, 6527, Note_on_c, 1, 68, 0
4, 6528, Note_on_c, 1, 69, 70
4, 6543, Note_on_c, 1, 69, 0
4, 6544, Note_on_c, 1, 68, 70
4, 6559, Note_on_c, 1, 68, 0
4, 6560, Note_on_c, 1, 66, 70
4, 6575, Note_on_c, 1, 66, 0
4, 6576, Note_on_c, 1, 68, 70
4, 6591, Note_on_c, 1, 68, 0
4, 6592, Note_on_c, 1, 66, 70
4, 6607, Note_on_c, 1, 66, 0
4, 6608, Note_on_c, 1, 64, 70
4, 6623, Note_on_c, 1, 64, 0
4, 6624, Note_on_c, 1, 63, 70
4, 6669, Note_on_c, 1, 63, 0
4, 6672, Note_on_c, 1, 64, 72
4, 6717, Note_on_c, 1, 64, 0
4, 6720, Note_on_c, 1, 63, 80
4, 6720, Note_on_c, 1, 51, 80
4, 6765, Note_on_c, 1, 63, 0
4, 6765, Note_on_c, 1, 51, 0
4, 6768, Note_on_c, 1, 64, 80
4, 6768, Note_on_c, 1, 52, 80
4, 6813, Note_on_c, 1, 64, 0
4, 6813, Note_on_c, 1, 52, 0
4, 6816, Note_on_c, 1, 61, 64
4, 6816, Note_on_c, 1, 57, 64
4, 6861, Note_on_c, 1, 61, 0
4, 6861, Note_on_c, 1, 57, 0
4, 6864, Note_on_c, 1, 61, 64
4, 6864, Note_on_c, 1, 57, 64
4, 6909, Note_on_c, 1, 61, 0
4, 6909, Note_on_c, 1, 57, 0
4, 6912, Note_on_c, 1, 56, 75
4, 6979, Note_on_c, 1, 56, 0
4, 6984, Note_on_c, 1, 61, 75
4, 7007, Note_on_c, 1, 61, 0
4, 7008, Note_on_c, 1, 59, 75
4, 7053, Note_on_c, 1, 59, 0
4, 7056, Note_on_c, 1, 47, 75
4, 7101, Note_on_c, 1, 47, 0
4, 7104, Note_on_c, 1, 52, 75
4, 7473, Note_on_c, 1, 52, 0
4, 7488, Note_on_c, 1, 52, 75
4, 7533, Note_on_c, 1, 52, 0
4, 7536, Note_on_c, 1, 64, 75
4, 7614, Note_on_c, 1, 64, 0
4, 7696, Note_on_c, 1, 64, 75
4, 7711, Note_on_c, 1, 64, 0
4, 7712, Note_on_c, 1, 68, 75
4, 7727, Note_on_c, 1, 68, 0
4, 7744, Note_on_c, 1, 66, 76
4, 7759, Note_on_c, 1, 66, 0
4, 7760, Note_on_c, 1, 69, 76
4, 7775, Note_on_c, 1, 69, 0
4, 7792, Note_on_c, 1, 68, 77
4, 7807, Note_on_c, 1, 68, 0
4, 7808, Note_on_c, 1, 71, 78
4, 7823, Note_on_c, 1, 71, 0
4, 7840, Note_on_c, 1, 69, 79
4, 7855, Note_on_c, 1, 69, 0
4, 7856, Note_on_c, 1, 73, 79
4, 7871, Note_on_c, 1, 73, 0
4, 7872, Note_on_c, 1, 71, 79
4, 7887, Note_on_c, 1, 71, 0
4, 7888, Note_on_c, 1, 74, 79
4, 7903, Note_on_c, 1, 74, 0
4, 7904, Note_on_c, 1, 71, 79
4, 7919, Note_on_c, 1, 71, 0
4, 7920, Note_on_c, 1, 68, 78
4, 7935, Note_on_c, 1, 68, 0
4, 7936, Note_on_c, 1, 71, 78
4, 7951, Note_on_c, 1, 71, 0
4, 7952, Note_on_c, 1, 68, 78
4, 7967, Note_on_c, 1, 68, 0
4, 7968, Note_on_c, 1, 64, 77
4, 8013, Note_on_c, 1, 64, 0
4, 8016, Note_on_c, 1, 52, 80
4, 8016, Note_on_c, 1, 40, 80
4, 8061, Note_on_c, 1, 52, 0
4, 8061, Note_on_c, 1, 40, 0
4, 8064, Note_on_c, 1, 33, 80
4, 8079, Note_on_c, 1, 33, 0
4, 8080, Note_on_c, 1, 45, 80
4, 8095, Note_on_c, 1, 45, 0
4, 8096, Note_on_c, 1, 49, 81
4, 8111, Note_on_c, 1, 49, 0
4, 8112, Note_on_c, 1, 52, 82
4, 8127, Note_on_c, 1, 52, 0
4, 8128, Note_on_c, 1, 57, 82
4, 8143, Note_on_c, 1, 57, 0
4, 8144, Note_on_c, 1, 61, 83
4, 8159, Note_on_c, 1, 61, 0
4, 8160, Note_on_c, 1, 64, 84
4, 8175, Note_on_c, 1, 64, 0
4, 8176, Note_on_c, 1, 61, 84
4, 8191, Note_on_c, 1, 61, 0
4, 8192, Note_on_c, 1, 57, 85
4, 8207, Note_on_c, 1, 57, 0
4, 8208, Note_on_c, 1, 52, 86
4, 8223, Note_on_c, 1, 52, 0
4, 8224, Note_on_c, 1, 62, 85
4, 8239, Note_on_c, 1, 62, 0
4, 8240, Note_on_c, 1, 59, 85
4, 8255, Note_on_c, 1, 59, 0
4, 8256, Note_on_c, 1, 61, 84
4, 8345, Note_on_c, 1, 61, 0
4, 8400, Note_on_c, 1, 56, 75
4, 8400, Note_on_c, 1, 52, 75
4, 8445, Note_on_c, 1, 56, 0
4, 8445, Note_on_c, 1, 52, 0
4, 8448, Note_on_c, 1, 57, 75
4, 8448, Note_on_c, 1, 45, 75
4, 8537, Note_on_c, 1, 57, 0
4, 8537, Note_on_c, 1, 45, 0
4, 8592, Note_on_c, 1, 61, 75
4, 8592, Note_on_c, 1, 57, 75
4, 8637, Note_on_c, 1, 61, 0
4, 8637, Note_on_c, 1, 57, 0
4, 8640, Note_on_c, 1, 50, 75
4, 8655, Note_on_c, 1, 50, 0
4, 8656, Note_on_c, 1, 54, 75
4, 8671, Note_on_c, 1, 54, 0
4, 8672, Note_on_c, 1, 57, 75
4, 8687, Note_on_c, 1, 57, 0
4, 8688, Note_on_c, 1, 62, 75
4, 8703, Note_on_c, 1, 62, 0
4, 8704, Note_on_c, 1, 66, 76
4, 8719, Note_on_c, 1, 66, 0
4, 8720, Note_on_c, 1, 69, 76
4, 8735, Note_on_c, 1, 69, 0
4, 8736, Note_on_c, 1, 62, 76
4, 8825, Note_on_c, 1, 62, 0
4, 8832, Note_on_c, 1, 45, 75
4, 8847, Note_on_c, 1, 45, 0
4, 8848, Note_on_c, 1, 49, 75
4, 8863, Note_on_c, 1, 49, 0
4, 8864, Note_on_c, 1, 52, 76
4, 8879, Note_on_c, 1, 52, 0
4, 8880, Note_on_c, 1, 57, 76
4, 8895, Note_on_c, 1, 57, 0
4, 8896, Note_on_c, 1, 61, 77
4, 8911, Note_on_c, 1, 61, 0
4, 8912, Note_on_c, 1, 64, 78
4, 8927, Note_on_c, 1, 64, 0
4, 8928, Note_on_c, 1, 57, 80
4, 9017, Note_on_c, 1, 57, 0
4, 9024, Note_on_c, 1, 52, 75
4, 9039, Note_on_c, 1, 52, 0
4, 9040, Note_on_c, 1, 56, 75
4, 9055, Note_on_c, 1, 56, 0
4, 9056, Note_on_c, 1, 59, 76
4, 9071, Note_on_c, 1, 59, 0
4, 9072, Note_on_c, 1, 64, 76
4, 9087, Note_on_c, 1, 64, 0
4, 9088, Note_on_c, 1, 68, 77
4, 9103, Note_on_c, 1, 68, 0
4, 9104, Note_on_c, 1, 71, 78
4, 9119, Note_on_c, 1, 71, 0
4, 9120, Note_on_c, 1, 64, 80
4, 9209, Note_on_c, 1, 64, 0
4, 9216, Note_on_c, 1, 45, 64
4, 9349, Note_on_c, 1, 45, 0
4, 9360, Note_on_c, 1, 45, 67
4, 9405, Note_on_c, 1, 45, 0
4, 9408, Note_on_c, 1, 47, 68
4, 9541, Note_on_c, 1, 47, 0
4, 9552, Note_on_c, 1, 47, 71
4, 9597, Note_on_c, 1, 47, 0
4, 9600, Note_on_c, 1, 49, 72
4, 9733, Note_on_c, 1, 49, 0
4, 9744, Note_on_c, 1, 49, 75
4, 9789, Note_on_c, 1, 49, 0
4, 9792, Note_on_c, 1, 50, 76
4, 9925, Note_on_c, 1, 50, 0
4, 9936, Note_on_c, 1, 51, 79
4, 9981, Note_on_c, 1, 51, 0
4, 9984, Note_on_c, 1, 52, 80
4, 10029, Note_on_c, 1, 52, 0
4, 10032, Note_on_c, 1, 56, 80
4, 10077, Note_on_c, 1, 56, 0
4, 10080, Note_on_c, 1, 59, 80
4, 10125, Note_on_c, 1, 59, 0
4, 10128, Note_on_c, 1, 64, 80
4, 10173, Note_on_c, 1, 64, 0
4, 10176, Note_on_c, 1, 57, 80
4, 10191, Note_on_c, 1, 57, 0
4, 10192, Note_on_c, 1, 61, 80
4, 10207, Note_on_c, 1, 61, 0
4, 10208, Note_on_c, 1, 64, 80
4, 10223, Note_on_c, 1, 64, 0
4, 10224, Note_on_c, 1, 57, 80
4, 10239, Note_on_c, 1, 57, 0
4, 10240, Note_on_c, 1, 61, 80
4, 10255, Note_on_c, 1, 61, 0
4, 10256, Note_on_c, 1, 64, 80
4, 10271, Note_on_c, 1, 64, 0
4, 10272, Note_on_c, 1, 56, 80
4, 10287, Note_on_c, 1, 56, 0
4, 10288, Note_on_c, 1, 59, 80
4, 10303, Note_on_c, 1, 59, 0
4, 10304, Note_on_c, 1, 64, 80
4, 10319, Note_on_c, 1, 64, 0
4, 10320, Note_on_c, 1, 56, 80
4, 10335, Note_on_c, 1, 56, 0
4, 10336, Note_on_c, 1, 59, 77
4, 10351, Note_on_c, 1, 59, 0
4, 10352, Note_on_c, 1, 64, 75
4, 10367, Note_on_c, 1, 64, 0
4, 10368, Note_on_c, 1, 57, 70
4, 10383, Note_on_c, 1, 57, 0
4, 10384, Note_on_c, 1, 61, 70
4, 10399, Note_on_c, 1, 61, 0
4, 10400, Note_on_c, 1, 64, 70
4, 10415, Note_on_c, 1, 64, 0
4, 10416, Note_on_c, 1, 57, 71
4, 10431, Note_on_c, 1, 57, 0
4, 10432, Note_on_c, 1, 61, 71
4, 10447, Note_on_c, 1, 61, 0
4, 10448, Note_on_c, 1, 64, 71
4, 10463, Note_on_c, 1, 64, 0
4, 10464, Note_on_c, 1, 56, 72
4, 10479, Note_on_c, 1, 56, 0
4, 10480, Note_on_c, 1, 59, 72
4, 10495, Note_on_c, 1, 59, 0
4, 10496, Note_on_c, 1, 64, 72
4, 10511, Note_on_c, 1, 64, 0
4, 10512, Note_on_c, 1, 56, 73
4, 10527, Note_on_c, 1, 56, 0
4, 10528, Note_on_c, 1, 59, 73
4, 10543, Note_on_c, 1, 59, 0
4, 10544, Note_on_c, 1, 64, 73
4, 10559, Note_on_c, 1, 64, 0
4, 10560, Note_on_c, 1, 57, 74
4, 10605, Note_on_c, 1, 57, 0
4, 10608, Note_on_c, 1, 61, 74
4, 10653, Note_on_c, 1, 61, 0
4, 10656, Note_on_c, 1, 62, 73
4, 10701, Note_on_c, 1, 62, 0
4, 10704, Note_on_c, 1, 50, 72
4, 10749, Note_on_c, 1, 50, 0
4, 10752, Note_on_c, 1, 52, 70
4, 10797, Note_on_c, 1, 52, 0
4, 10800, Note_on_c, 1, 40, 71
4, 10845, Note_on_c, 1, 40, 0
4, 10848, Note_on_c, 1, 52, 72
4, 10863, Note_on_c, 1, 52, 0
4, 10864, Note_on_c, 1, 54, 72
4, 10879, Note_on_c, 1, 54, 0
4, 10880, Note_on_c, 1, 52, 73
4, 10895, Note_on_c, 1, 52, 0
4, 10896, Note_on_c, 1, 50, 73
4, 10911, Note_on_c, 1, 50, 0
4, 10912, Note_on_c, 1, 49, 73
4, 10927, Note_on_c, 1, 49, 0
4, 10928, Note_on_c, 1, 47, 74
4, 10943, Note_on_c, 1, 47, 0
4, 10944, Note_on_c, 1, 45, 91
4, 10992, Note_on_c, 1, 45, 0
4, 10992, Note_on_c, 1, 61, 64
4, 10992, Note_on_c, 1, 57, 64
4, 11039, Note_on_c, 1, 61, 0
4, 11039, Note_on_c, 1, 57, 0
4, 11040, Note_on_c, 1, 61, 64
4, 11040, Note_on_c, 1, 57, 64
4, 11087, Note_on_c, 1, 61, 0
4, 11087, Note_on_c, 1, 57, 0
4, 11088, Note_on_c, 1, 61, 64
4, 11088, Note_on_c, 1, 57, 64
4, 11135, Note_on_c, 1, 61, 0
4, 11135, Note_on_c, 1, 57, 0
4, 11184, Note_on_c, 1, 59, 64
4, 11184, Note_on_c, 1, 57, 64
4, 11231, Note_on_c, 1, 59, 0
4, 11231, Note_on_c, 1, 57, 0
4, 11232, Note_on_c, 1, 59, 64
4, 11232, Note_on_c, 1, 57, 64
4, 11279, Note_on_c, 1, 59, 0
4, 11279, Note_on_c, 1, 57, 0
4, 11280, Note_on_c, 1, 59, 64
4, 11280, Note_on_c, 1, 57, 64
4, 11327, Note_on_c, 1, 59, 0
4, 11327, Note_on_c, 1, 57, 0
4, 11376, Note_on_c, 1, 59, 64
4, 11376, Note_on_c, 1, 56, 64
4, 11423, Note_on_c, 1, 59, 0
4, 11423, Note_on_c, 1, 56, 0
4, 11424, Note_on_c, 1, 59, 64
4, 11424, Note_on_c, 1, 56, 64
4, 11471, Note_on_c, 1, 59, 0
4, 11471, Note_on_c, 1, 56, 0
4, 11472, Note_on_c, 1, 59, 64
4, 11472, Note_on_c, 1, 56, 64
4, 11519, Note_on_c, 1, 59, 0
4, 11519, Note_on_c, 1, 56, 0
4, 11520, Note_on_c, 1, 57, 64
4, 11609, Note_on_c, 1, 57, 0
4, 11664, Note_on_c, 1, 59, 64
4, 11664, Note_on_c, 1, 52, 64
4, 11709, Note_on_c, 1, 59, 0
4, 11709, Note_on_c, 1, 52, 0
4, 11712, Note_on_c, 1, 57, 64
4, 11712, Note_on_c, 1, 45, 64
4, 11801, Note_on_c, 1, 57, 0
4, 11801, Note_on_c, 1, 45, 0
4, 11856, Note_on_c, 1, 59, 64
4, 11901, Note_on_c, 1, 59, 0
4, 11904, Note_on_c, 1, 57, 64
4, 11904, Note_on_c, 1, 45, 64
4, 11993, Note_on_c, 1, 57, 0
4, 11993, Note_on_c, 1, 45, 0
4, 12048, Note_on_c, 1, 57, 72
4, 12093, Note_on_c, 1, 57, 0
4, 12096, Note_on_c, 1, 62, 75
4, 12141, Note_on_c, 1, 62, 0
4, 12144, Note_on_c, 1, 59, 75
4, 12189, Note_on_c, 1, 59, 0
4, 12192, Note_on_c, 1, 61, 75
4, 12237, Note_on_c, 1, 61, 0
4, 12240, Note_on_c, 1, 57, 75
4, 12285, Note_on_c, 1, 57, 0
4, 12288, Note_on_c, 1, 59, 75
4, 12333, Note_on_c, 1, 59, 0
4, 12336, Note_on_c, 1, 56, 75
4, 12381, Note_on_c, 1, 56, 0
4, 12384, Note_on_c, 1, 57, 75
4, 12429, Note_on_c, 1, 57, 0
4, 12432, Note_on_c, 1, 50, 75
4, 12477, Note_on_c, 1, 50, 0
4, 12480, Note_on_c, 1, 52, 73
4, 12525, Note_on_c, 1, 52, 0
4, 12528, Note_on_c, 1, 40, 71
4, 12573, Note_on_c, 1, 40, 0
4, 12576, Note_on_c, 1, 52, 70
4, 12591, Note_on_c, 1, 52, 0
4, 12592, Note_on_c, 1, 56, 70
4, 12607, Note_on_c, 1, 56, 0
4, 12608, Note_on_c, 1, 59, 70
4, 12623, Note_on_c, 1, 59, 0
4, 12624, Note_on_c, 1, 56, 70
4, 12639, Note_on_c, 1, 56, 0
4, 12640, Note_on_c, 1, 59, 71
4, 12655, Note_on_c, 1, 59, 0
4, 12656, Note_on_c, 1, 62, 71
4, 12671, Note_on_c, 1, 62, 0
4, 12672, Note_on_c, 1, 61, 71
4, 12761, Note_on_c, 1, 61, 0
4, 12768, Note_on_c, 1, 52, 70
4, 12783, Note_on_c, 1, 52, 0
4, 12784, Note_on_c, 1, 56, 70
4, 12799, Note_on_c, 1, 56, 0
4, 12800, Note_on_c, 1, 59, 70
4, 12815, Note_on_c, 1, 59, 0
4, 12816, Note_on_c, 1, 56, 70
4, 12831, Note_on_c, 1, 56, 0
4, 12832, Note_on_c, 1, 59, 71
4, 12847, Note_on_c, 1, 59, 0
4, 12848, Note_on_c, 1, 62, 71
4, 12863, Note_on_c, 1, 62, 0
4, 12864, Note_on_c, 1, 61, 71
4, 12953, Note_on_c, 1, 61, 0
4, 12960, Note_on_c, 1, 50, 75
4, 12975, Note_on_c, 1, 50, 0
4, 12976, Note_on_c, 1, 54, 75
4, 12991, Note_on_c, 1, 54, 0
4, 12992, Note_on_c, 1, 59, 75
4, 13007, Note_on_c, 1, 59, 0
4, 13008, Note_on_c, 1, 62, 75
4, 13023, Note_on_c, 1, 62, 0
4, 13024, Note_on_c, 1, 61, 75
4, 13039, Note_on_c, 1, 61, 0
4, 13040, Note_on_c, 1, 59, 75
4, 13055, Note_on_c, 1, 59, 0
4, 13056, Note_on_c, 1, 49, 75
4, 13071, Note_on_c, 1, 49, 0
4, 13072, Note_on_c, 1, 52, 75
4, 13087, Note_on_c, 1, 52, 0
4, 13088, Note_on_c, 1, 57, 75
4, 13103, Note_on_c, 1, 57, 0
4, 13104, Note_on_c, 1, 61, 75
4, 13119, Note_on_c, 1, 61, 0
4, 13120, Note_on_c, 1, 59, 75
4, 13135, Note_on_c, 1, 59, 0
4, 13136, Note_on_c, 1, 57, 75
4, 13151, Note_on_c, 1, 57, 0
4, 13152, Note_on_c, 1, 56, 75
4, 13197, Note_on_c, 1, 56, 0
4, 13200, Note_on_c, 1, 57, 75
4, 13215, Note_on_c, 1, 57, 0
4, 13216, Note_on_c, 1, 59, 75
4, 13231, Note_on_c, 1, 59, 0
4, 13232, Note_on_c, 1, 61, 75
4, 13247, Note_on_c, 1, 61, 0
4, 13248, Note_on_c, 1, 62, 75
4, 13263, Note_on_c, 1, 62, 0
4, 13264, Note_on_c, 1, 61, 75
4, 13279, Note_on_c, 1, 61, 0
4, 13280, Note_on_c, 1, 59, 75
4, 13295, Note_on_c, 1, 59, 0
4, 13296, Note_on_c, 1, 61, 75
4, 13311, Note_on_c, 1, 61, 0
4, 13312, Note_on_c, 1, 59, 75
4, 13327, Note_on_c, 1, 59, 0
4, 13328, Note_on_c, 1, 57, 75
4, 13343, Note_on_c, 1, 57, 0
4, 13344, Note_on_c, 1, 56, 75
4, 13389, Note_on_c, 1, 56, 0
4, 13392, Note_on_c, 1, 57, 75
4, 13437, Note_on_c, 1, 57, 0
4, 13440, Note_on_c, 1, 56, 80
4, 13440, Note_on_c, 1, 44, 80
4, 13485, Note_on_c, 1, 56, 0
4, 13485, Note_on_c, 1, 44, 0
4, 13488, Note_on_c, 1, 57, 80
4, 13488, Note_on_c, 1, 45, 80
4, 13533, Note_on_c, 1, 57, 0
4, 13533, Note_on_c, 1, 45, 0
4, 13536, Note_on_c, 1, 54, 64
4, 13536, Note_on_c, 1, 50, 64
4, 13583, Note_on_c, 1, 54, 0
4, 13583, Note_on_c, 1, 50, 0
4, 13584, Note_on_c, 1, 54, 64
4, 13584, Note_on_c, 1, 50, 64
4, 13631, Note_on_c, 1, 54, 0
4, 13631, Note_on_c, 1, 50, 0
4, 13632, Note_on_c, 1, 52, 64
4, 13677, Note_on_c, 1, 52, 0
4, 13872, Note_on_c, 1, 49, 64
4, 13917, Note_on_c, 1, 49, 0
4, 13920, Note_on_c, 1, 50, 64
4, 13965, Note_on_c, 1, 50, 0
4, 13968, Note_on_c, 1, 50, 64
4, 14013, Note_on_c, 1, 50, 0
4, 14016, Note_on_c, 1, 49, 64
4, 14061, Note_on_c, 1, 49, 0
4, 14064, Note_on_c, 1, 49, 64
4, 14109, Note_on_c, 1, 49, 0
4, 14112, Note_on_c, 1, 50, 64
4, 14157, Note_on_c, 1, 50, 0
4, 14160, Note_on_c, 1, 47, 64
4, 14205, Note_on_c, 1, 47, 0
4, 14208, Note_on_c, 1, 49, 64
4, 14208, Note_on_c, 1, 45, 64
4, 14253, Note_on_c, 1, 49, 0
4, 14253, Note_on_c, 1, 45, 0
4, 14256, Note_on_c, 1, 57, 64
4, 14323, Note_on_c, 1, 57, 0
4, 14416, Note_on_c, 1, 64, 75
4, 14431, Note_on_c, 1, 64, 0
4, 14432, Note_on_c, 1, 68, 75
4, 14447, Note_on_c, 1, 68, 0
4, 14464, Note_on_c, 1, 66, 76
4, 14479, Note_on_c, 1, 66, 0
4, 14480, Note_on_c, 1, 69, 76
4, 14495, Note_on_c, 1, 69, 0
4, 14512, Note_on_c, 1, 68, 77
4, 14527, Note_on_c, 1, 68, 0
4, 14528, Note_on_c, 1, 71, 78
4, 14543, Note_on_c, 1, 71, 0
4, 14560, Note_on_c, 1, 69, 79
4, 14575, Note_on_c, 1, 69, 0
4, 14576, Note_on_c, 1, 73, 79
4, 14591, Note_on_c, 1, 73, 0
4, 14592, Note_on_c, 1, 71, 79
4, 14607, Note_on_c, 1, 71, 0
4, 14608, Note_on_c, 1, 74, 79
4, 14623, Note_on_c, 1, 74, 0
4, 14624, Note_on_c, 1, 71, 79
4, 14639, Note_on_c, 1, 71, 0
4, 14640, Note_on_c, 1, 68, 78
4, 14655, Note_on_c, 1, 68, 0
4, 14656, Note_on_c, 1, 71, 78
4, 14671, Note_on_c, 1, 71, 0
4, 14672, Note_on_c, 1, 68, 78
4, 14687, Note_on_c, 1, 68, 0
4, 14688, Note_on_c, 1, 64, 77
4, 14733, Note_on_c, 1, 64, 0
4, 14736, Note_on_c, 1, 52, 80
4, 14736, Note_on_c, 1, 40, 80
4, 14781, Note_on_c, 1, 52, 0
4, 14781, Note_on_c, 1, 40, 0
4, 14784, Note_on_c, 1, 33, 80
4, 14799, Note_on_c, 1, 33, 0
4, 14800, Note_on_c, 1, 45, 80
4, 14815, Note_on_c, 1, 45, 0
4, 14816, Note_on_c, 1, 49, 81
4, 14831, Note_on_c, 1, 49, 0
4, 14832, Note_on_c, 1, 52, 82
4, 14847, Note_on_c, 1, 52, 0
4, 14848, Note_on_c, 1, 57, 82
4, 14863, Note_on_c, 1, 57, 0
4, 14864, Note_on_c, 1, 61, 83
4, 14879, Note_on_c, 1, 61, 0
4, 14880, Note_on_c, 1, 64, 84
4, 14895, Note_on_c, 1, 64, 0
4, 14896, Note_on_c, 1, 61, 84
4, 14911, Note_on_c, 1, 61, 0
4, 14912, Note_on_c, 1, 57, 85
4, 14927, Note_on_c, 1, 57, 0
4, 14928, Note_on_c, 1, 52, 86
4, 14943, Note_on_c, 1, 52, 0
4, 14944, Note_on_c, 1, 62, 85
4, 14959, Note_on_c, 1, 62, 0
4, 14960, Note_on_c, 1, 59, 85
4, 14975, Note_on_c, 1, 59, 0
4, 14976, Note_on_c, 1, 61, 84
4, 15065, Note_on_c, 1, 61, 0
4, 15120, Note_on_c, 1, 56, 75
4, 15120, Note_on_c, 1, 52, 75
4, 15165, Note_on_c, 1, 56, 0
4, 15165, Note_on_c, 1, 52, 0
4, 15168, Note_on_c, 1, 57, 75
4, 15168, Note_on_c, 1, 45, 75
4, 15257, Note_on_c, 1, 57, 0
4, 15257, Note_on_c, 1, 45, 0
4, 15312, Note_on_c, 1, 61, 75
4, 15312, Note_on_c, 1, 57, 75
4, 15357, Note_on_c, 1, 61, 0
4, 15357, Note_on_c, 1, 57, 0
4, 15360, Note_on_c, 1, 50, 75
4, 15375, Note_on_c, 1, 50, 0
4, 15376, Note_on_c, 1, 54, 75
4, 15391, Note_on_c, 1, 54, 0
4, 15392, Note_on_c, 1, 57, 75
4, 15407, Note_on_c, 1, 57, 0
4, 15408, Note_on_c, 1, 62, 75
4, 15423, Note_on_c, 1, 62, 0
4, 15424, Note_on_c, 1, 66, 76
4, 15439, Note_on_c, 1, 66, 0
4, 15440, Note_on_c, 1, 69, 76
4, 15455, Note_on_c, 1, 69, 0
4, 15456, Note_on_c, 1, 62, 76
4, 15545, Note_on_c, 1, 62, 0
4, 15552, Note_on_c, 1, 45, 75
4, 15567, Note_on_c, 1, 45, 0
4, 15568, Note_on_c, 1, 49, 75
4, 15583, Note_on_c, 1, 49, 0
4, 15584, Note_on_c, 1, 52, 76
4, 15599, Note_on_c, 1, 52, 0
4, 15600, Note_on_c, 1, 57, 76
4, 15615, Note_on_c, 1, 57, 0
4, 15616, Note_on_c, 1, 61, 77
4, 15631, Note_on_c, 1, 61, 0
4, 15632, Note_on_c, 1, 64, 78
4, 15647, Note_on_c, 1, 64, 0
4, 15648, Note_on_c, 1, 57, 80
4, 15737, Note_on_c, 1, 57, 0
4, 15744, Note_on_c, 1, 52, 75
4, 15759, Note_on_c, 1, 52, 0
4, 15760, Note_on_c, 1, 56, 75
4, 15775, Note_on_c, 1, 56, 0
4, 15776, Note_on_c, 1, 59, 76
4, 15791, Note_on_c, 1, 59, 0
4, 15792, Note_on_c, 1, 64, 76
4, 15807, Note_on_c, 1, 64, 0
4, 15808, Note_on_c, 1, 68, 77
4, 15823, Note_on_c, 1, 68, 0
4, 15824, Note_on_c, 1, 71, 78
4, 15839, Note_on_c, 1, 71, 0
4, 15840, Note_on_c, 1, 64, 80
4, 15929, Note_on_c, 1, 64, 0
4, 15936, Note_on_c, 1, 45, 64
4, 16069, Note_on_c, 1, 45, 0
4, 16080, Note_on_c, 1, 45, 67
4, 16125, Note_on_c, 1, 45, 0
4, 16128, Note_on_c, 1, 47, 68
4, 16261, Note_on_c, 1, 47, 0
4, 16272, Note_on_c, 1, 47, 71
4, 16317, Note_on_c, 1, 47, 0
4, 16320, Note_on_c, 1, 49, 72
4, 16453, Note_on_c, 1, 49, 0
4, 16464, Note_on_c, 1, 49, 75
4, 16509, Note_on_c, 1, 49, 0
4, 16512, Note_on_c, 1, 50, 76
4, 16645, Note_on_c, 1, 50, 0
4, 16656, Note_on_c, 1, 51, 79
4, 16701, Note_on_c, 1, 51, 0
4, 16704, Note_on_c, 1, 52, 80
4, 16749, Note_on_c, 1, 52, 0
4, 16752, Note_on_c, 1, 56, 80
4, 16797, Note_on_c, 1, 56, 0
4, 16800, Note_on_c, 1, 59, 80
4, 16845, Note_on_c, 1, 59, 0
4, 16848, Note_on_c, 1, 64, 80
4, 16893, Note_on_c, 1, 64, 0
4, 16896, Note_on_c, 1, 57, 80
4, 16911, Note_on_c, 1, 57, 0
4, 16912, Note_on_c, 1, 61, 80
4, 16927, Note_on_c, 1, 61, 0
4, 16928, Note_on_c, 1, 64, 80
4, 16943, Note_on_c, 1, 64, 0
4, 16944, Note_on_c, 1, 57, 80
4, 16959, Note_on_c, 1, 57, 0
4, 16960, Note_on_c, 1, 61, 80
4, 16975, Note_on_c, 1, 61, 0
4, 16976, Note_on_c, 1, 64, 80
4, 16991, Note_on_c, 1, 64, 0
4, 16992, Note_on_c, 1, 56, 80
4, 17007, Note_on_c, 1, 56, 0
4, 17008, Note_on_c, 1, 59, 80
4, 17023, Note_on_c, 1, 59, 0
4, 17024, Note_on_c, 1, 64, 80
4, 17039, Note_on_c, 1, 64, 0
4, 17040, Note_on_c, 1, 56, 80
4, 17055, Note_on_c, 1, 56, 0
4, 17056, Note_on_c, 1, 59, 77
4, 17071, Note_on_c, 1, 59, 0
4, 17072, Note_on_c, 1, 64, 75
4, 17087, Note_on_c, 1, 64, 0
4, 17088, Note_on_c, 1, 57, 70
4, 17103, Note_on_c, 1, 57, 0
4, 17104, Note_on_c, 1, 61, 70
4, 17119, Note_on_c, 1, 61, 0
4, 17120, Note_on_c, 1, 64, 70
4, 17135, Note_on_c, 1, 64, 0
4, 17136, Note_on_c, 1, 57, 71
4, 17151, Note_on_c, 1, 57, 0
4, 17152, Note_on_c, 1, 61, 71
4, 17167, Note_on_c, 1, 61, 0
4, 17168, Note_on_c, 1, 64, 71
4, 17183, Note_on_c, 1, 64, 0
4, 17184, Note_on_c, 1, 56, 72
4, 17199, Note_on_c, 1, 56, 0
4, 17200, Note_on_c, 1, 59, 72
4, 17215, Note_on_c, 1, 59, 0
4, 17216, Note_on_c, 1, 64, 72
4, 17231, Note_on_c, 1, 64, 0
4, 17232, Note_on_c, 1, 56, 73
4, 17247, Note_on_c, 1, 56, 0
4, 17248, Note_on_c, 1, 59, 73
4, 17263, Note_on_c, 1, 59, 0
4, 17264, Note_on_c, 1, 64, 73
4, 17279, Note_on_c, 1, 64, 0
4, 17280, Note_on_c, 1, 57, 74
4, 17325, Note_on_c, 1, 57, 0
4, 17328, Note_on_c, 1, 61, 74
4, 17373, Note_on_c, 1, 61, 0
4, 17376, Note_on_c, 1, 62, 73
4, 17421, Note_on_c, 1, 62, 0
4, 17424, Note_on_c, 1, 50, 72
4, 17469, Note_on_c, 1, 50, 0
4, 17472, Note_on_c, 1, 52, 70
4, 17517, Note_on_c, 1, 52, 0
4, 17520, Note_on_c, 1, 40, 71
4, 17565, Note_on_c, 1, 40, 0
4, 17568, Note_on_c, 1, 52, 72
4, 17583, Note_on_c, 1, 52, 0
4, 17584, Note_on_c, 1, 54, 72
4, 17599, Note_on_c, 1, 54, 0
4, 17600, Note_on_c, 1, 52, 73
4, 17615, Note_on_c, 1, 52, 0
4, 17616, Note_on_c, 1, 50, 73
4, 17631, Note_on_c, 1, 50, 0
4, 17632, Note_on_c, 1, 49, 73
4, 17647, Note_on_c, 1, 49, 0
4, 17648, Note_on_c, 1, 47, 74
4, 17663, Note_on_c, 1, 47, 0
4, 17664, Note_on_c, 1, 45, 91
4, 17712, Note_on_c, 1, 45, 0
4, 17712, Note_on_c, 1, 61, 64
4, 17712, Note_on_c, 1, 57, 64
4, 17759, Note_on_c, 1, 61, 0
4, 17759, Note_on_c, 1, 57, 0
4, 17760, Note_on_c, 1, 61, 64
4, 17760, Note_on_c, 1, 57, 64
4, 17807, Note_on_c, 1, 61, 0
4, 17807, Note_on_c, 1, 57, 0
4, 17808, Note_on_c, 1, 61, 64
4, 17808, Note_on_c, 1, 57, 64
4, 17855, Note_on_c, 1, 61, 0
4, 17855, Note_on_c, 1, 57, 0
4, 17904, Note_on_c, 1, 59, 64
4, 17904, Note_on_c, 1, 57, 64
4, 17951, Note_on_c, 1, 59, 0
4, 17951, Note_on_c, 1, 57, 0
4, 17952, Note_on_c, 1, 59, 64
4, 17952, Note_on_c, 1, 57, 64
4, 17999, Note_on_c, 1, 59, 0
4, 17999, Note_on_c, 1, 57, 0
4, 18000, Note_on_c, 1, 59, 64
4, 18000, Note_on_c, 1, 57, 64
4, 18047, Note_on_c, 1, 59, 0
4, 18047, Note_on_c, 1, 57, 0
4, 18096, Note_on_c, 1, 59, 64
4, 18096, Note_on_c, 1, 56, 64
4, 18143, Note_on_c, 1, 59, 0
4, 18143, Note_on_c, 1, 56, 0
4, 18144, Note_on_c, 1, 59, 64
4, 18144, Note_on_c, 1, 56, 64
4, 18191, Note_on_c, 1, 59, 0
4, 18191, Note_on_c, 1, 56, 0
4, 18192, Note_on_c, 1, 59, 64
4, 18192, Note_on_c, 1, 56, 64
4, 18239, Note_on_c, 1, 59, 0
4, 18239, Note_on_c, 1, 56, 0
4, 18240, Note_on_c, 1, 57, 64
4, 18329, Note_on_c, 1, 57, 0
4, 18384, Note_on_c, 1, 59, 64
4, 18384, Note_on_c, 1, 52, 64
4, 18429, Note_on_c, 1, 59, 0
4, 18429, Note_on_c, 1, 52, 0
4, 18432, Note_on_c, 1, 57, 64
4, 18432, Note_on_c, 1, 45, 64
4, 18521, Note_on_c, 1, 57, 0
4, 18521, Note_on_c, 1, 45, 0
4, 18576, Note_on_c, 1, 59, 64
4, 18621, Note_on_c, 1, 59, 0
4, 18624, Note_on_c, 1, 57, 64
4, 18624, Note_on_c, 1, 45, 64
4, 18713, Note_on_c, 1, 57, 0
4, 18713, Note_on_c, 1, 45, 0
4, 18768, Note_on_c, 1, 57, 72
4, 18813, Note_on_c, 1, 57, 0
4, 18816, Note_on_c, 1, 62, 75
4, 18861, Note_on_c, 1, 62, 0
4, 18864, Note_on_c, 1, 59, 75
4, 18909, Note_on_c, 1, 59, 0
4, 18912, Note_on_c, 1, 61, 75
4, 18957, Note_on_c, 1, 61, 0
4, 18960, Note_on_c, 1, 57, 75
4, 19005, Note_on_c, 1, 57, 0
4, 19008, Note_on_c, 1, 59, 75
4, 19053, Note_on_c, 1, 59, 0
4, 19056, Note_on_c, 1, 56, 75
4, 19101, Note_on_c, 1, 56, 0
4, 19104, Note_on_c, 1, 57, 75
4, 19149, Note_on_c, 1, 57, 0
4, 19152, Note_on_c, 1, 50, 75
4, 19197, Note_on_c, 1, 50, 0
4, 19200, Note_on_c, 1, 52, 73
4, 19245, Note_on_c, 1, 52, 0
4, 19248, Note_on_c, 1, 40, 71
4, 19293, Note_on_c, 1, 40, 0
4, 19296, Note_on_c, 1, 52, 70
4, 19311, Note_on_c, 1, 52, 0
4, 19312, Note_on_c, 1, 56, 70
4, 19327, Note_on_c, 1, 56, 0
4, 19328, Note_on_c, 1, 59, 70
4, 19343, Note_on_c, 1, 59, 0
4, 19344, Note_on_c, 1, 56, 70
4, 19359, Note_on_c, 1, 56, 0
4, 19360, Note_on_c, 1, 59, 71
4, 19375, Note_on_c, 1, 59, 0
4, 19376, Note_on_c, 1, 62, 71
4, 19391, Note_on_c, 1, 62, 0
4, 19392, Note_on_c, 1, 61, 71
4, 19481, Note_on_c, 1, 61, 0
4, 19488, Note_on_c, 1, 52, 70
4, 19503, Note_on_c, 1, 52, 0
4, 19504, Note_on_c, 1, 56, 70
4, 19519, Note_on_c, 1, 56, 0
4, 19520, Note_on_c, 1, 59, 70
4, 19535, Note_on_c, 1, 59, 0
4, 19536, Note_on_c, 1, 56, 70
4, 19551, Note_on_c, 1, 56, 0
4, 19552, Note_on_c, 1, 59, 71
4, 19567, Note_on_c, 1, 59, 0
4, 19568, Note_on_c, 1, 62, 71
4, 19583, Note_on_c, 1, 62, 0
4, 19584, Note_on_c, 1, 61, 71
4, 19673, Note_on_c, 1, 61, 0
4, 19680, Note_on_c, 1, 50, 75
4, 19695, Note_on_c, 1, 50, 0
4, 19696, Note_on_c, 1, 54, 75
4, 19711, Note_on_c, 1, 54, 0
4, 19712, Note_on_c, 1, 59, 75
4, 19727, Note_on_c, 1, 59, 0
4, 19728, Note_on_c, 1, 62, 75
4, 19743, Note_on_c, 1, 62, 0
4, 19744, Note_on_c, 1, 61, 75
4, 19759, Note_on_c, 1, 61, 0
4, 19760, Note_on_c, 1, 59, 75
4, 19775, Note_on_c, 1, 59, 0
4, 19776, Note_on_c, 1, 49, 75
4, 19791, Note_on_c, 1, 49, 0
4, 19792, Note_on_c, 1, 52, 75
4, 19807, Note_on_c, 1, 52, 0
4, 19808, Note_on_c, 1, 57, 75
4, 19823, Note_on_c, 1, 57, 0
4, 19824, Note_on_c, 1, 61, 75
4, 19839, Note_on_c, 1, 61, 0
4, 19840, Note_on_c, 1, 59, 75
4, 19855, Note_on_c, 1, 59, 0
4, 19856, Note_on_c, 1, 57, 75
4, 19871, Note_on_c, 1, 57, 0
4, 19872, Note_on_c, 1, 56, 75
4, 19917, Note_on_c, 1, 56, 0
4, 19920, Note_on_c, 1, 57, 75
4, 19935, Note_on_c, 1, 57, 0
4, 19936, Note_on_c, 1, 59, 75
4, 19951, Note_on_c, 1, 59, 0
4, 19952, Note_on_c, 1, 61, 75
4, 19967, Note_on_c, 1, 61, 0
4, 19968, Note_on_c, 1, 62, 75
4, 19983, Note_on_c, 1, 62, 0
4, 19984, Note_on_c, 1, 61, 75
4, 19999, Note_on_c, 1, 61, 0
4, 20000, Note_on_c, 1, 59, 75
4, 20015, Note_on_c, 1, 59, 0
4, 20016, Note_on_c, 1, 61, 75
4, 20031, Note_on_c, 1, 61, 0
4, 20032, Note_on_c, 1, 59, 75
4, 20047, Note_on_c, 1, 59, 0
4, 20048, Note_on_c, 1, 57, 75
4, 20063, Note_on_c, 1, 57, 0
4, 20064, Note_on_c, 1, 56, 75
4, 20109, Note_on_c, 1, 56, 0
4, 20112, Note_on_c, 1, 57, 75
4, 20157, Note_on_c, 1, 57, 0
4, 20160, Note_on_c, 1, 56, 80
4, 20160, Note_on_c, 1, 44, 80
4, 20205, Note_on_c, 1, 56, 0
4, 20205, Note_on_c, 1, 44, 0
4, 20208, Note_on_c, 1, 57, 80
4, 20208, Note_on_c, 1, 45, 80
4, 20253, Note_on_c, 1, 57, 0
4, 20253, Note_on_c, 1, 45, 0
4, 20256, Note_on_c, 1, 54, 64
4, 20256, Note_on_c, 1, 50, 64
4, 20303, Note_on_c, 1, 54, 0
4, 20303, Note_on_c, 1, 50, 0
4, 20304, Note_on_c, 1, 54, 64
4, 20304, Note_on_c, 1, 50, 64
4, 20351, Note_on_c, 1, 54, 0
4, 20351, Note_on_c, 1, 50, 0
4, 20352, Note_on_c, 1, 52, 64
4, 20397, Note_on_c, 1, 52, 0
4, 20592, Note_on_c, 1, 49, 64
4, 20637, Note_on_c, 1, 49, 0
4, 20640, Note_on_c, 1, 50, 64
4, 20685, Note_on_c, 1, 50, 0
4, 20688, Note_on_c, 1, 50, 64
4, 20733, Note_on_c, 1, 50, 0
4, 20736, Note_on_c, 1, 49, 64
4, 20781, Note_on_c, 1, 49, 0
4, 20784, Note_on_c, 1, 49, 64
4, 20829, Note_on_c, 1, 49, 0
4, 20832, Note_on_c, 1, 50, 64
4, 20877, Note_on_c, 1, 50, 0
4, 20880, Note_on_c, 1, 47, 64
4, 20925, Note_on_c, 1, 47, 0
4, 20928, Note_on_c, 1, 49, 64
4, 20928, Note_on_c, 1, 45, 64
4, 20973, Note_on_c, 1, 49, 0
4, 20973, Note_on_c, 1, 45, 0
4, 20976, Note_on_c, 1, 57, 64
4, 21043, Note_on_c, 1, 57, 0
4, 21120, Note_on_c, 1, 45, 0
4, 21165, Note_on_c, 1, 45, 0
4, 21168, End_track
5, 0, Start_track
5, 0, Program_c, 1, 0
5, 0, Control_c, 1, 7, 127
5, 0, Control_c, 1, 10, 64
5, 3072, Note_on_c, 1, 59, 64
5, 3117, Note_on_c, 1, 59, 0
5, 3312, Note_on_c, 1, 56, 64
5, 3357, Note_on_c, 1, 56, 0
5, 3360, Note_on_c, 1, 57, 64
5, 3405, Note_on_c, 1, 57, 0
5, 3408, Note_on_c, 1, 57, 64
5, 3453, Note_on_c, 1, 57, 0
5, 3456, Note_on_c, 1, 56, 64
5, 3501, Note_on_c, 1, 56, 0
5, 3504, Note_on_c, 1, 56, 64
5, 3549, Note_on_c, 1, 56, 0
5, 3552, Note_on_c, 1, 57, 64
5, 3597, Note_on_c, 1, 57, 0
5, 3600, Note_on_c, 1, 54, 64
5, 3645, Note_on_c, 1, 54, 0
5, 6912, Note_on_c, 1, 59, 64
5, 6957, Note_on_c, 1, 59, 0
5, 7152, Note_on_c, 1, 56, 64
5, 7197, Note_on_c, 1, 56, 0
5, 7200, Note_on_c, 1, 57, 64
5, 7245, Note_on_c, 1, 57, 0
5, 7248, Note_on_c, 1, 57, 64
5, 7293, Note_on_c, 1, 57, 0
5, 7296, Note_on_c, 1, 56, 64
5, 7341, Note_on_c, 1, 56, 0
5, 7344, Note_on_c, 1, 56, 64
5, 7389, Note_on_c, 1, 56, 0
5, 7392, Note_on_c, 1, 57, 64
5, 7437, Note_on_c, 1, 57, 0
5, 7440, Note_on_c, 1, 54, 64
5, 7485, Note_on_c, 1, 54, 0
5, 13632, Note_on_c, 1, 49, 75
5, 13699, Note_on_c, 1, 49, 0
5, 13704, Note_on_c, 1, 54, 75
5, 13727, Note_on_c, 1, 54, 0
5, 13728, Note_on_c, 1, 52, 75
5, 13773, Note_on_c, 1, 52, 0
5, 13776, Note_on_c, 1, 40, 75
5, 13821, Note_on_c, 1, 40, 0
5, 13824, Note_on_c, 1, 45, 75
5, 14193, Note_on_c, 1, 45, 0
5, 20352, Note_on_c, 1, 49, 75
5, 20419, Note_on_c, 1, 49, 0
5, 20424, Note_on_c, 1, 54, 75
5, 20447, Note_on_c, 1, 54, 0
5, 20448, Note_on_c, 1, 52, 75
5, 20493, Note_on_c, 1, 52, 0
5, 20496, Note_on_c, 1, 40, 75
5, 20541, Note_on_c, 1, 40, 0
5, 20544, Note_on_c, 1, 45, 75
5, 20913, Note_on_c, 1, 45, 0
5, 21120, End_track
6, 0, Start_track
6, 0, Title_t, "Sonata I   Haydn  "
6, 0, End_track
0, 0, End_of_file
