0, 0, Header, 1, 5, 96
1, 0, Start_track
1, 0, Copyright_t, "Copyright  1994-2002 Mozart Music Software"
1, 0, Sequencer_specific, 16, 68, 87, 77, 90, 86, 82, 83, 78, 32, 55, 46, 48, 46, 55, 46, 48
1, 0, Time_signature, 3, 3, 24, 8
1, 0, Tempo, 461538
1, 0, Key_signature, 1, "major"
1, 7056, End_track
2, 0, Start_track
2, 0, Program_c, 0, 0
2, 0, Control_c, 0, 7, 127
2, 0, Control_c, 0, 10, 64
2, 0, Note_on_c, 0, 74, 64
2, 45, Note_on_c, 0, 74, 0
2, 48, Note_on_c, 0, 79, 64
2, 93, Note_on_c, 0, 79, 0
2, 96, Note_on_c, 0, 83, 64
2, 141, Note_on_c, 0, 83, 0
2, 144, Note_on_c, 0, 86, 80
2, 240, Note_on_c, 0, 86, 0
2, 240, Note_on_c, 0, 74, 64
2, 285, Note_on_c, 0, 74, 0
2, 288, Note_on_c, 0, 76, 64
2, 333, Note_on_c, 0, 76, 0
2, 336, Note_on_c, 0, 84, 64
2, 381, Note_on_c, 0, 84, 0
2, 384, Note_on_c, 0, 76, 64
2, 429, Note_on_c, 0, 76, 0
2, 432, Note_on_c, 0, 74, 64
2, 477, Note_on_c, 0, 74, 0
2, 576, Note_on_c, 0, 72, 64
2, 621, Note_on_c, 0, 72, 0
2, 624, Note_on_c, 0, 81, 64
2, 669, Note_on_c, 0, 81, 0
2, 672, Note_on_c, 0, 72, 64
2, 717, Note_on_c, 0, 72, 0
2, 720, Note_on_c, 0, 71, 64
2, 743, Note_on_c, 0, 71, 0
2, 744, Note_on_c, 0, 79, 64
2, 767, Note_on_c, 0, 79, 0
2, 768, Note_on_c, 0, 72, 64
2, 791, Note_on_c, 0, 72, 0
2, 792, Note_on_c, 0, 79, 64
2, 815, Note_on_c, 0, 79, 0
2, 816, Note_on_c, 0, 74, 64
2, 839, Note_on_c, 0, 74, 0
2, 840, Note_on_c, 0, 79, 64
2, 863, Note_on_c, 0, 79, 0
2, 864, Note_on_c, 0, 69, 64
2, 887, Note_on_c, 0, 69, 0
2, 888, Note_on_c, 0, 76, 64
2, 911, Note_on_c, 0, 76, 0
2, 912, Note_on_c, 0, 74, 64
2, 935, Note_on_c, 0, 74, 0
2, 936, Note_on_c, 0, 72, 64
2, 959, Note_on_c, 0, 72, 0
2, 960, Note_on_c, 0, 71, 64
2, 983, Note_on_c, 0, 71, 0
2, 984, Note_on_c, 0, 69, 64
2, 1007, Note_on_c, 0, 69, 0
2, 1008, Note_on_c, 0, 67, 64
2, 1097, Note_on_c, 0, 67, 0
2, 1152, Note_on_c, 0, 74, 64
2, 1197, Note_on_c, 0, 74, 0
2, 1200, Note_on_c, 0, 79, 64
2, 1245, Note_on_c, 0, 79, 0
2, 1248, Note_on_c, 0, 83, 64
2, 1293, Note_on_c, 0, 83, 0
2, 1296, Note_on_c, 0, 86, 80
2, 1392, Note_on_c, 0, 86, 0
2, 1392, Note_on_c, 0, 74, 64
2, 1437, Note_on_c, 0, 74, 0
2, 1440, Note_on_c, 0, 76, 64
2, 1485, Note_on_c, 0, 76, 0
2, 1488, Note_on_c, 0, 84, 64
2, 1533, Note_on_c, 0, 84, 0
2, 1536, Note_on_c, 0, 76, 64
2, 1581, Note_on_c, 0, 76, 0
2, 1584, Note_on_c, 0, 74, 64
2, 1629, Note_on_c, 0, 74, 0
2, 1728, Note_on_c, 0, 72, 64
2, 1773, Note_on_c, 0, 72, 0
2, 1776, Note_on_c, 0, 81, 64
2, 1821, Note_on_c, 0, 81, 0
2, 1824, Note_on_c, 0, 72, 64
2, 1869, Note_on_c, 0, 72, 0
2, 1872, Note_on_c, 0, 71, 64
2, 1895, Note_on_c, 0, 71, 0
2, 1896, Note_on_c, 0, 79, 64
2, 1919, Note_on_c, 0, 79, 0
2, 1920, Note_on_c, 0, 72, 64
2, 1943, Note_on_c, 0, 72, 0
2, 1944, Note_on_c, 0, 79, 64
2, 1967, Note_on_c, 0, 79, 0
2, 1968, Note_on_c, 0, 74, 64
2, 1991, Note_on_c, 0, 74, 0
2, 1992, Note_on_c, 0, 79, 64
2, 2015, Note_on_c, 0, 79, 0
2, 2016, Note_on_c, 0, 69, 64
2, 2039, Note_on_c, 0, 69, 0
2, 2040, Note_on_c, 0, 76, 64
2, 2063, Note_on_c, 0, 76, 0
2, 2064, Note_on_c, 0, 74, 64
2, 2087, Note_on_c, 0, 74, 0
2, 2088, Note_on_c, 0, 72, 64
2, 2111, Note_on_c, 0, 72, 0
2, 2112, Note_on_c, 0, 71, 64
2, 2135, Note_on_c, 0, 71, 0
2, 2136, Note_on_c, 0, 69, 64
2, 2159, Note_on_c, 0, 69, 0
2, 2160, Note_on_c, 0, 67, 64
2, 2249, Note_on_c, 0, 67, 0
2, 2304, Note_on_c, 0, 66, 64
2, 2327, Note_on_c, 0, 66, 0
2, 2328, Note_on_c, 0, 62, 64
2, 2351, Note_on_c, 0, 62, 0
2, 2352, Note_on_c, 0, 66, 64
2, 2375, Note_on_c, 0, 66, 0
2, 2376, Note_on_c, 0, 62, 64
2, 2399, Note_on_c, 0, 62, 0
2, 2400, Note_on_c, 0, 66, 64
2, 2423, Note_on_c, 0, 66, 0
2, 2424, Note_on_c, 0, 62, 64
2, 2447, Note_on_c, 0, 62, 0
2, 2448, Note_on_c, 0, 67, 64
2, 2471, Note_on_c, 0, 67, 0
2, 2472, Note_on_c, 0, 62, 64
2, 2495, Note_on_c, 0, 62, 0
2, 2496, Note_on_c, 0, 69, 64
2, 2519, Note_on_c, 0, 69, 0
2, 2520, Note_on_c, 0, 62, 64
2, 2543, Note_on_c, 0, 62, 0
2, 2544, Note_on_c, 0, 71, 64
2, 2567, Note_on_c, 0, 71, 0
2, 2568, Note_on_c, 0, 62, 64
2, 2591, Note_on_c, 0, 62, 0
2, 2592, Note_on_c, 0, 72, 64
2, 2615, Note_on_c, 0, 72, 0
2, 2616, Note_on_c, 0, 62, 64
2, 2639, Note_on_c, 0, 62, 0
2, 2640, Note_on_c, 0, 72, 64
2, 2663, Note_on_c, 0, 72, 0
2, 2664, Note_on_c, 0, 62, 64
2, 2687, Note_on_c, 0, 62, 0
2, 2688, Note_on_c, 0, 71, 64
2, 2711, Note_on_c, 0, 71, 0
2, 2712, Note_on_c, 0, 62, 64
2, 2735, Note_on_c, 0, 62, 0
2, 2736, Note_on_c, 0, 69, 64
2, 2759, Note_on_c, 0, 69, 0
2, 2760, Note_on_c, 0, 74, 64
2, 2783, Note_on_c, 0, 74, 0
2, 2784, Note_on_c, 0, 66, 64
2, 2807, Note_on_c, 0, 66, 0
2, 2808, Note_on_c, 0, 69, 64
2, 2831, Note_on_c, 0, 69, 0
2, 2832, Note_on_c, 0, 62, 64
2, 2877, Note_on_c, 0, 62, 0
2, 2880, Note_on_c, 0, 66, 64
2, 2903, Note_on_c, 0, 66, 0
2, 2904, Note_on_c, 0, 74, 64
2, 2927, Note_on_c, 0, 74, 0
2, 2928, Note_on_c, 0, 66, 64
2, 2951, Note_on_c, 0, 66, 0
2, 2952, Note_on_c, 0, 74, 64
2, 2975, Note_on_c, 0, 74, 0
2, 2976, Note_on_c, 0, 66, 64
2, 2999, Note_on_c, 0, 66, 0
2, 3000, Note_on_c, 0, 74, 64
2, 3023, Note_on_c, 0, 74, 0
2, 3024, Note_on_c, 0, 67, 64
2, 3047, Note_on_c, 0, 67, 0
2, 3048, Note_on_c, 0, 74, 64
2, 3071, Note_on_c, 0, 74, 0
2, 3072, Note_on_c, 0, 69, 64
2, 3095, Note_on_c, 0, 69, 0
2, 3096, Note_on_c, 0, 74, 64
2, 3119, Note_on_c, 0, 74, 0
2, 3120, Note_on_c, 0, 71, 64
2, 3143, Note_on_c, 0, 71, 0
2, 3144, Note_on_c, 0, 74, 64
2, 3167, Note_on_c, 0, 74, 0
2, 3168, Note_on_c, 0, 72, 64
2, 3191, Note_on_c, 0, 72, 0
2, 3192, Note_on_c, 0, 74, 64
2, 3215, Note_on_c, 0, 74, 0
2, 3216, Note_on_c, 0, 72, 64
2, 3239, Note_on_c, 0, 72, 0
2, 3240, Note_on_c, 0, 74, 64
2, 3263, Note_on_c, 0, 74, 0
2, 3264, Note_on_c, 0, 71, 64
2, 3287, Note_on_c, 0, 71, 0
2, 3288, Note_on_c, 0, 74, 64
2, 3311, Note_on_c, 0, 74, 0
2, 3312, Note_on_c, 0, 69, 64
2, 3335, Note_on_c, 0, 69, 0
2, 3336, Note_on_c, 0, 74, 64
2, 3359, Note_on_c, 0, 74, 0
2, 3360, Note_on_c, 0, 66, 64
2, 3383, Note_on_c, 0, 66, 0
2, 3384, Note_on_c, 0, 69, 64
2, 3407, Note_on_c, 0, 69, 0
2, 3408, Note_on_c, 0, 62, 64
2, 3453, Note_on_c, 0, 62, 0
2, 3456, Note_on_c, 0, 74, 64
2, 3501, Note_on_c, 0, 74, 0
2, 3504, Note_on_c, 0, 79, 64
2, 3549, Note_on_c, 0, 79, 0
2, 3552, Note_on_c, 0, 83, 64
2, 3597, Note_on_c, 0, 83, 0
2, 3600, Note_on_c, 0, 86, 80
2, 3696, Note_on_c, 0, 86, 0
2, 3696, Note_on_c, 0, 74, 64
2, 3741, Note_on_c, 0, 74, 0
2, 3744, Note_on_c, 0, 76, 64
2, 3789, Note_on_c, 0, 76, 0
2, 3792, Note_on_c, 0, 84, 64
2, 3837, Note_on_c, 0, 84, 0
2, 3840, Note_on_c, 0, 76, 64
2, 3885, Note_on_c, 0, 76, 0
2, 3888, Note_on_c, 0, 74, 64
2, 3933, Note_on_c, 0, 74, 0
2, 4032, Note_on_c, 0, 72, 64
2, 4077, Note_on_c, 0, 72, 0
2, 4080, Note_on_c, 0, 81, 64
2, 4125, Note_on_c, 0, 81, 0
2, 4128, Note_on_c, 0, 72, 64
2, 4173, Note_on_c, 0, 72, 0
2, 4176, Note_on_c, 0, 71, 64
2, 4199, Note_on_c, 0, 71, 0
2, 4200, Note_on_c, 0, 79, 64
2, 4223, Note_on_c, 0, 79, 0
2, 4224, Note_on_c, 0, 72, 64
2, 4247, Note_on_c, 0, 72, 0
2, 4248, Note_on_c, 0, 79, 64
2, 4271, Note_on_c, 0, 79, 0
2, 4272, Note_on_c, 0, 74, 64
2, 4295, Note_on_c, 0, 74, 0
2, 4296, Note_on_c, 0, 79, 64
2, 4319, Note_on_c, 0, 79, 0
2, 4320, Note_on_c, 0, 69, 64
2, 4343, Note_on_c, 0, 69, 0
2, 4344, Note_on_c, 0, 76, 64
2, 4367, Note_on_c, 0, 76, 0
2, 4368, Note_on_c, 0, 74, 64
2, 4391, Note_on_c, 0, 74, 0
2, 4392, Note_on_c, 0, 72, 64
2, 4415, Note_on_c, 0, 72, 0
2, 4416, Note_on_c, 0, 71, 64
2, 4439, Note_on_c, 0, 71, 0
2, 4440, Note_on_c, 0, 69, 64
2, 4463, Note_on_c, 0, 69, 0
2, 4464, Note_on_c, 0, 67, 64
2, 4553, Note_on_c, 0, 67, 0
2, 4608, Note_on_c, 0, 66, 64
2, 4631, Note_on_c, 0, 66, 0
2, 4632, Note_on_c, 0, 62, 64
2, 4655, Note_on_c, 0, 62, 0
2, 4656, Note_on_c, 0, 66, 64
2, 4679, Note_on_c, 0, 66, 0
2, 4680, Note_on_c, 0, 62, 64
2, 4703, Note_on_c, 0, 62, 0
2, 4704, Note_on_c, 0, 66, 64
2, 4727, Note_on_c, 0, 66, 0
2, 4728, Note_on_c, 0, 62, 64
2, 4751, Note_on_c, 0, 62, 0
2, 4752, Note_on_c, 0, 67, 64
2, 4775, Note_on_c, 0, 67, 0
2, 4776, Note_on_c, 0, 62, 64
2, 4799, Note_on_c, 0, 62, 0
2, 4800, Note_on_c, 0, 69, 64
2, 4823, Note_on_c, 0, 69, 0
2, 4824, Note_on_c, 0, 62, 64
2, 4847, Note_on_c, 0, 62, 0
2, 4848, Note_on_c, 0, 71, 64
2, 4871, Note_on_c, 0, 71, 0
2, 4872, Note_on_c, 0, 62, 64
2, 4895, Note_on_c, 0, 62, 0
2, 4896, Note_on_c, 0, 72, 64
2, 4919, Note_on_c, 0, 72, 0
2, 4920, Note_on_c, 0, 62, 64
2, 4943, Note_on_c, 0, 62, 0
2, 4944, Note_on_c, 0, 72, 64
2, 4967, Note_on_c, 0, 72, 0
2, 4968, Note_on_c, 0, 62, 64
2, 4991, Note_on_c, 0, 62, 0
2, 4992, Note_on_c, 0, 71, 64
2, 5015, Note_on_c, 0, 71, 0
2, 5016, Note_on_c, 0, 62, 64
2, 5039, Note_on_c, 0, 62, 0
2, 5040, Note_on_c, 0, 69, 64
2, 5063, Note_on_c, 0, 69, 0
2, 5064, Note_on_c, 0, 74, 64
2, 5087, Note_on_c, 0, 74, 0
2, 5088, Note_on_c, 0, 66, 64
2, 5111, Note_on_c, 0, 66, 0
2, 5112, Note_on_c, 0, 69, 64
2, 5135, Note_on_c, 0, 69, 0
2, 5136, Note_on_c, 0, 62, 64
2, 5181, Note_on_c, 0, 62, 0
2, 5184, Note_on_c, 0, 66, 64
2, 5207, Note_on_c, 0, 66, 0
2, 5208, Note_on_c, 0, 74, 64
2, 5231, Note_on_c, 0, 74, 0
2, 5232, Note_on_c, 0, 66, 64
2, 5255, Note_on_c, 0, 66, 0
2, 5256, Note_on_c, 0, 74, 64
2, 5279, Note_on_c, 0, 74, 0
2, 5280, Note_on_c, 0, 66, 64
2, 5303, Note_on_c, 0, 66, 0
2, 5304, Note_on_c, 0, 74, 64
2, 5327, Note_on_c, 0, 74, 0
2, 5328, Note_on_c, 0, 67, 64
2, 5351, Note_on_c, 0, 67, 0
2, 5352, Note_on_c, 0, 74, 64
2, 5375, Note_on_c, 0, 74, 0
2, 5376, Note_on_c, 0, 69, 64
2, 5399, Note_on_c, 0, 69, 0
2, 5400, Note_on_c, 0, 74, 64
2, 5423, Note_on_c, 0, 74, 0
2, 5424, Note_on_c, 0, 71, 64
2, 5447, Note_on_c, 0, 71, 0
2, 5448, Note_on_c, 0, 74, 64
2, 5471, Note_on_c, 0, 74, 0
2, 5472, Note_on_c, 0, 72, 64
2, 5495, Note_on_c, 0, 72, 0
2, 5496, Note_on_c, 0, 74, 64
2, 5519, Note_on_c, 0, 74, 0
2, 5520, Note_on_c, 0, 72, 64
2, 5543, Note_on_c, 0, 72, 0
2, 5544, Note_on_c, 0, 74, 64
2, 5567, Note_on_c, 0, 74, 0
2, 5568, Note_on_c, 0, 71, 64
2, 5591, Note_on_c, 0, 71, 0
2, 5592, Note_on_c, 0, 74, 64
2, 5615, Note_on_c, 0, 74, 0
2, 5616, Note_on_c, 0, 69, 64
2, 5639, Note_on_c, 0, 69, 0
2, 5640, Note_on_c, 0, 74, 64
2, 5663, Note_on_c, 0, 74, 0
2, 5664, Note_on_c, 0, 66, 64
2, 5687, Note_on_c, 0, 66, 0
2, 5688, Note_on_c, 0, 69, 64
2, 5711, Note_on_c, 0, 69, 0
2, 5712, Note_on_c, 0, 62, 64
2, 5757, Note_on_c, 0, 62, 0
2, 5760, Note_on_c, 0, 74, 64
2, 5805, Note_on_c, 0, 74, 0
2, 5808, Note_on_c, 0, 79, 64
2, 5853, Note_on_c, 0, 79, 0
2, 5856, Note_on_c, 0, 83, 64
2, 5901, Note_on_c, 0, 83, 0
2, 5904, Note_on_c, 0, 86, 80
2, 6000, Note_on_c, 0, 86, 0
2, 6000, Note_on_c, 0, 74, 64
2, 6045, Note_on_c, 0, 74, 0
2, 6048, Note_on_c, 0, 76, 64
2, 6093, Note_on_c, 0, 76, 0
2, 6096, Note_on_c, 0, 84, 64
2, 6141, Note_on_c, 0, 84, 0
2, 6144, Note_on_c, 0, 76, 64
2, 6189, Note_on_c, 0, 76, 0
2, 6192, Note_on_c, 0, 74, 64
2, 6237, Note_on_c, 0, 74, 0
2, 6336, Note_on_c, 0, 72, 64
2, 6381, Note_on_c, 0, 72, 0
2, 6384, Note_on_c, 0, 81, 64
2, 6429, Note_on_c, 0, 81, 0
2, 6432, Note_on_c, 0, 72, 64
2, 6477, Note_on_c, 0, 72, 0
2, 6480, Note_on_c, 0, 71, 64
2, 6503, Note_on_c, 0, 71, 0
2, 6504, Note_on_c, 0, 79, 64
2, 6527, Note_on_c, 0, 79, 0
2, 6528, Note_on_c, 0, 72, 64
2, 6551, Note_on_c, 0, 72, 0
2, 6552, Note_on_c, 0, 79, 64
2, 6575, Note_on_c, 0, 79, 0
2, 6576, Note_on_c, 0, 74, 64
2, 6599, Note_on_c, 0, 74, 0
2, 6600, Note_on_c, 0, 79, 64
2, 6623, Note_on_c, 0, 79, 0
2, 6624, Note_on_c, 0, 69, 64
2, 6647, Note_on_c, 0, 69, 0
2, 6648, Note_on_c, 0, 76, 64
2, 6671, Note_on_c, 0, 76, 0
2, 6672, Note_on_c, 0, 74, 64
2, 6695, Note_on_c, 0, 74, 0
2, 6696, Note_on_c, 0, 72, 64
2, 6719, Note_on_c, 0, 72, 0
2, 6720, Note_on_c, 0, 71, 64
2, 6743, Note_on_c, 0, 71, 0
2, 6744, Note_on_c, 0, 69, 64
2, 6767, Note_on_c, 0, 69, 0
2, 6768, Note_on_c, 0, 67, 64
2, 6857, Note_on_c, 0, 67, 0
2, 7056, End_track
3, 0, Start_track
3, 0, Program_c, 1, 0
3, 0, Control_c, 1, 7, 127
3, 0, Control_c, 1, 10, 64
3, 0, Note_on_c, 1, 67, 64
3, 23, Note_on_c, 1, 67, 0
3, 24, Note_on_c, 1, 71, 64
3, 47, Note_on_c, 1, 71, 0
3, 48, Note_on_c, 1, 67, 64
3, 71, Note_on_c, 1, 67, 0
3, 72, Note_on_c, 1, 71, 64
3, 95, Note_on_c, 1, 71, 0
3, 96, Note_on_c, 1, 67, 64
3, 119, Note_on_c, 1, 67, 0
3, 120, Note_on_c, 1, 71, 64
3, 143, Note_on_c, 1, 71, 0
3, 144, Note_on_c, 1, 67, 64
3, 167, Note_on_c, 1, 67, 0
3, 168, Note_on_c, 1, 71, 64
3, 191, Note_on_c, 1, 71, 0
3, 192, Note_on_c, 1, 67, 64
3, 215, Note_on_c, 1, 67, 0
3, 216, Note_on_c, 1, 71, 64
3, 239, Note_on_c, 1, 71, 0
3, 240, Note_on_c, 1, 67, 64
3, 263, Note_on_c, 1, 67, 0
3, 264, Note_on_c, 1, 71, 64
3, 287, Note_on_c, 1, 71, 0
3, 288, Note_on_c, 1, 67, 64
3, 311, Note_on_c, 1, 67, 0
3, 312, Note_on_c, 1, 72, 64
3, 335, Note_on_c, 1, 72, 0
3, 336, Note_on_c, 1, 67, 64
3, 359, Note_on_c, 1, 67, 0
3, 360, Note_on_c, 1, 72, 64
3, 383, Note_on_c, 1, 72, 0
3, 384, Note_on_c, 1, 67, 64
3, 407, Note_on_c, 1, 67, 0
3, 408, Note_on_c, 1, 72, 64
3, 431, Note_on_c, 1, 72, 0
3, 432, Note_on_c, 1, 67, 64
3, 455, Note_on_c, 1, 67, 0
3, 456, Note_on_c, 1, 71, 64
3, 479, Note_on_c, 1, 71, 0
3, 480, Note_on_c, 1, 67, 64
3, 503, Note_on_c, 1, 67, 0
3, 504, Note_on_c, 1, 71, 64
3, 527, Note_on_c, 1, 71, 0
3, 528, Note_on_c, 1, 67, 64
3, 551, Note_on_c, 1, 67, 0
3, 552, Note_on_c, 1, 71, 64
3, 575, Note_on_c, 1, 71, 0
3, 576, Note_on_c, 1, 62, 64
3, 599, Note_on_c, 1, 62, 0
3, 600, Note_on_c, 1, 69, 64
3, 623, Note_on_c, 1, 69, 0
3, 624, Note_on_c, 1, 62, 64
3, 647, Note_on_c, 1, 62, 0
3, 648, Note_on_c, 1, 69, 64
3, 671, Note_on_c, 1, 69, 0
3, 672, Note_on_c, 1, 62, 64
3, 695, Note_on_c, 1, 62, 0
3, 696, Note_on_c, 1, 69, 64
3, 719, Note_on_c, 1, 69, 0
3, 720, Note_on_c, 1, 67, 64
3, 765, Note_on_c, 1, 67, 0
3, 768, Note_on_c, 1, 69, 64
3, 813, Note_on_c, 1, 69, 0
3, 816, Note_on_c, 1, 71, 64
3, 861, Note_on_c, 1, 71, 0
3, 864, Note_on_c, 1, 60, 64
3, 953, Note_on_c, 1, 60, 0
3, 960, Note_on_c, 1, 62, 64
3, 1005, Note_on_c, 1, 62, 0
3, 1008, Note_on_c, 1, 55, 64
3, 1053, Note_on_c, 1, 55, 0
3, 1056, Note_on_c, 1, 50, 64
3, 1101, Note_on_c, 1, 50, 0
3, 1104, Note_on_c, 1, 43, 64
3, 1149, Note_on_c, 1, 43, 0
3, 1152, Note_on_c, 1, 67, 64
3, 1175, Note_on_c, 1, 67, 0
3, 1176, Note_on_c, 1, 71, 64
3, 1199, Note_on_c, 1, 71, 0
3, 1200, Note_on_c, 1, 67, 64
3, 1223, Note_on_c, 1, 67, 0
3, 1224, Note_on_c, 1, 71, 64
3, 1247, Note_on_c, 1, 71, 0
3, 1248, Note_on_c, 1, 67, 64
3, 1271, Note_on_c, 1, 67, 0
3, 1272, Note_on_c, 1, 71, 64
3, 1295, Note_on_c, 1, 71, 0
3, 1296, Note_on_c, 1, 67, 64
3, 1319, Note_on_c, 1, 67, 0
3, 1320, Note_on_c, 1, 71, 64
3, 1343, Note_on_c, 1, 71, 0
3, 1344, Note_on_c, 1, 67, 64
3, 1367, Note_on_c, 1, 67, 0
3, 1368, Note_on_c, 1, 71, 64
3, 1391, Note_on_c, 1, 71, 0
3, 1392, Note_on_c, 1, 67, 64
3, 1415, Note_on_c, 1, 67, 0
3, 1416, Note_on_c, 1, 71, 64
3, 1439, Note_on_c, 1, 71, 0
3, 1440, Note_on_c, 1, 67, 64
3, 1463, Note_on_c, 1, 67, 0
3, 1464, Note_on_c, 1, 72, 64
3, 1487, Note_on_c, 1, 72, 0
3, 1488, Note_on_c, 1, 67, 64
3, 1511, Note_on_c, 1, 67, 0
3, 1512, Note_on_c, 1, 72, 64
3, 1535, Note_on_c, 1, 72, 0
3, 1536, Note_on_c, 1, 67, 64
3, 1559, Note_on_c, 1, 67, 0
3, 1560, Note_on_c, 1, 72, 64
3, 1583, Note_on_c, 1, 72, 0
3, 1584, Note_on_c, 1, 67, 64
3, 1607, Note_on_c, 1, 67, 0
3, 1608, Note_on_c, 1, 71, 64
3, 1631, Note_on_c, 1, 71, 0
3, 1632, Note_on_c, 1, 67, 64
3, 1655, Note_on_c, 1, 67, 0
3, 1656, Note_on_c, 1, 71, 64
3, 1679, Note_on_c, 1, 71, 0
3, 1680, Note_on_c, 1, 67, 64
3, 1703, Note_on_c, 1, 67, 0
3, 1704, Note_on_c, 1, 71, 64
3, 1727, Note_on_c, 1, 71, 0
3, 1728, Note_on_c, 1, 62, 64
3, 1751, Note_on_c, 1, 62, 0
3, 1752, Note_on_c, 1, 69, 64
3, 1775, Note_on_c, 1, 69, 0
3, 1776, Note_on_c, 1, 62, 64
3, 1799, Note_on_c, 1, 62, 0
3, 1800, Note_on_c, 1, 69, 64
3, 1823, Note_on_c, 1, 69, 0
3, 1824, Note_on_c, 1, 62, 64
3, 1847, Note_on_c, 1, 62, 0
3, 1848, Note_on_c, 1, 69, 64
3, 1871, Note_on_c, 1, 69, 0
3, 1872, Note_on_c, 1, 67, 64
3, 1917, Note_on_c, 1, 67, 0
3, 1920, Note_on_c, 1, 69, 64
3, 1965, Note_on_c, 1, 69, 0
3, 1968, Note_on_c, 1, 71, 64
3, 2013, Note_on_c, 1, 71, 0
3, 2016, Note_on_c, 1, 60, 64
3, 2105, Note_on_c, 1, 60, 0
3, 2112, Note_on_c, 1, 62, 64
3, 2157, Note_on_c, 1, 62, 0
3, 2160, Note_on_c, 1, 55, 64
3, 2205, Note_on_c, 1, 55, 0
3, 2208, Note_on_c, 1, 50, 64
3, 2253, Note_on_c, 1, 50, 0
3, 2256, Note_on_c, 1, 43, 64
3, 2301, Note_on_c, 1, 43, 0
3, 2400, Note_on_c, 1, 60, 64
3, 2445, Note_on_c, 1, 60, 0
3, 2448, Note_on_c, 1, 59, 64
3, 2493, Note_on_c, 1, 59, 0
3, 2496, Note_on_c, 1, 54, 64
3, 2541, Note_on_c, 1, 54, 0
3, 2544, Note_on_c, 1, 55, 64
3, 2589, Note_on_c, 1, 55, 0
3, 2592, Note_on_c, 1, 57, 64
3, 2637, Note_on_c, 1, 57, 0
3, 2640, Note_on_c, 1, 54, 64
3, 2685, Note_on_c, 1, 54, 0
3, 2688, Note_on_c, 1, 55, 64
3, 2733, Note_on_c, 1, 55, 0
3, 2736, Note_on_c, 1, 54, 64
3, 2736, Note_on_c, 1, 50, 64
3, 2825, Note_on_c, 1, 54, 0
3, 2825, Note_on_c, 1, 50, 0
3, 2880, Note_on_c, 1, 62, 64
3, 2880, Note_on_c, 1, 50, 64
3, 2969, Note_on_c, 1, 62, 0
3, 2969, Note_on_c, 1, 50, 0
3, 2976, Note_on_c, 1, 60, 64
3, 2976, Note_on_c, 1, 48, 64
3, 3021, Note_on_c, 1, 60, 0
3, 3021, Note_on_c, 1, 48, 0
3, 3024, Note_on_c, 1, 59, 64
3, 3024, Note_on_c, 1, 47, 64
3, 3069, Note_on_c, 1, 59, 0
3, 3069, Note_on_c, 1, 47, 0
3, 3072, Note_on_c, 1, 57, 64
3, 3072, Note_on_c, 1, 45, 64
3, 3117, Note_on_c, 1, 57, 0
3, 3117, Note_on_c, 1, 45, 0
3, 3120, Note_on_c, 1, 55, 64
3, 3120, Note_on_c, 1, 43, 64
3, 3165, Note_on_c, 1, 55, 0
3, 3165, Note_on_c, 1, 43, 0
3, 3168, Note_on_c, 1, 54, 64
3, 3168, Note_on_c, 1, 42, 64
3, 3257, Note_on_c, 1, 54, 0
3, 3257, Note_on_c, 1, 42, 0
3, 3264, Note_on_c, 1, 55, 64
3, 3264, Note_on_c, 1, 43, 64
3, 3309, Note_on_c, 1, 55, 0
3, 3309, Note_on_c, 1, 43, 0
3, 3312, Note_on_c, 1, 50, 64
3, 3312, Note_on_c, 1, 38, 64
3, 3401, Note_on_c, 1, 50, 0
3, 3401, Note_on_c, 1, 38, 0
3, 3456, Note_on_c, 1, 67, 64
3, 3479, Note_on_c, 1, 67, 0
3, 3480, Note_on_c, 1, 71, 64
3, 3503, Note_on_c, 1, 71, 0
3, 3504, Note_on_c, 1, 67, 64
3, 3527, Note_on_c, 1, 67, 0
3, 3528, Note_on_c, 1, 71, 64
3, 3551, Note_on_c, 1, 71, 0
3, 3552, Note_on_c, 1, 67, 64
3, 3575, Note_on_c, 1, 67, 0
3, 3576, Note_on_c, 1, 71, 64
3, 3599, Note_on_c, 1, 71, 0
3, 3600, Note_on_c, 1, 67, 64
3, 3623, Note_on_c, 1, 67, 0
3, 3624, Note_on_c, 1, 71, 64
3, 3647, Note_on_c, 1, 71, 0
3, 3648, Note_on_c, 1, 67, 64
3, 3671, Note_on_c, 1, 67, 0
3, 3672, Note_on_c, 1, 71, 64
3, 3695, Note_on_c, 1, 71, 0
3, 3696, Note_on_c, 1, 67, 64
3, 3719, Note_on_c, 1, 67, 0
3, 3720, Note_on_c, 1, 71, 64
3, 3743, Note_on_c, 1, 71, 0
3, 3744, Note_on_c, 1, 67, 64
3, 3767, Note_on_c, 1, 67, 0
3, 3768, Note_on_c, 1, 72, 64
3, 3791, Note_on_c, 1, 72, 0
3, 3792, Note_on_c, 1, 67, 64
3, 3815, Note_on_c, 1, 67, 0
3, 3816, Note_on_c, 1, 72, 64
3, 3839, Note_on_c, 1, 72, 0
3, 3840, Note_on_c, 1, 67, 64
3, 3863, Note_on_c, 1, 67, 0
3, 3864, Note_on_c, 1, 72, 64
3, 3887, Note_on_c, 1, 72, 0
3, 3888, Note_on_c, 1, 67, 64
3, 3911, Note_on_c, 1, 67, 0
3, 3912, Note_on_c, 1, 71, 64
3, 3935, Note_on_c, 1, 71, 0
3, 3936, Note_on_c, 1, 67, 64
3, 3959, Note_on_c, 1, 67, 0
3, 3960, Note_on_c, 1, 71, 64
3, 3983, Note_on_c, 1, 71, 0
3, 3984, Note_on_c, 1, 67, 64
3, 4007, Note_on_c, 1, 67, 0
3, 4008, Note_on_c, 1, 71, 64
3, 4031, Note_on_c, 1, 71, 0
3, 4032, Note_on_c, 1, 62, 64
3, 4055, Note_on_c, 1, 62, 0
3, 4056, Note_on_c, 1, 69, 64
3, 4079, Note_on_c, 1, 69, 0
3, 4080, Note_on_c, 1, 62, 64
3, 4103, Note_on_c, 1, 62, 0
3, 4104, Note_on_c, 1, 69, 64
3, 4127, Note_on_c, 1, 69, 0
3, 4128, Note_on_c, 1, 62, 64
3, 4151, Note_on_c, 1, 62, 0
3, 4152, Note_on_c, 1, 69, 64
3, 4175, Note_on_c, 1, 69, 0
3, 4176, Note_on_c, 1, 67, 64
3, 4221, Note_on_c, 1, 67, 0
3, 4224, Note_on_c, 1, 69, 64
3, 4269, Note_on_c, 1, 69, 0
3, 4272, Note_on_c, 1, 71, 64
3, 4317, Note_on_c, 1, 71, 0
3, 4320, Note_on_c, 1, 60, 64
3, 4409, Note_on_c, 1, 60, 0
3, 4416, Note_on_c, 1, 62, 64
3, 4461, Note_on_c, 1, 62, 0
3, 4464, Note_on_c, 1, 55, 64
3, 4509, Note_on_c, 1, 55, 0
3, 4512, Note_on_c, 1, 50, 64
3, 4557, Note_on_c, 1, 50, 0
3, 4560, Note_on_c, 1, 43, 64
3, 4605, Note_on_c, 1, 43, 0
3, 4704, Note_on_c, 1, 60, 64
3, 4749, Note_on_c, 1, 60, 0
3, 4752, Note_on_c, 1, 59, 64
3, 4797, Note_on_c, 1, 59, 0
3, 4800, Note_on_c, 1, 54, 64
3, 4845, Note_on_c, 1, 54, 0
3, 4848, Note_on_c, 1, 55, 64
3, 4893, Note_on_c, 1, 55, 0
3, 4896, Note_on_c, 1, 57, 64
3, 4941, Note_on_c, 1, 57, 0
3, 4944, Note_on_c, 1, 54, 64
3, 4989, Note_on_c, 1, 54, 0
3, 4992, Note_on_c, 1, 55, 64
3, 5037, Note_on_c, 1, 55, 0
3, 5040, Note_on_c, 1, 54, 64
3, 5040, Note_on_c, 1, 50, 64
3, 5129, Note_on_c, 1, 54, 0
3, 5129, Note_on_c, 1, 50, 0
3, 5184, Note_on_c, 1, 62, 64
3, 5184, Note_on_c, 1, 50, 64
3, 5273, Note_on_c, 1, 62, 0
3, 5273, Note_on_c, 1, 50, 0
3, 5280, Note_on_c, 1, 60, 64
3, 5280, Note_on_c, 1, 48, 64
3, 5325, Note_on_c, 1, 60, 0
3, 5325, Note_on_c, 1, 48, 0
3, 5328, Note_on_c, 1, 59, 64
3, 5328, Note_on_c, 1, 47, 64
3, 5373, Note_on_c, 1, 59, 0
3, 5373, Note_on_c, 1, 47, 0
3, 5376, Note_on_c, 1, 57, 64
3, 5376, Note_on_c, 1, 45, 64
3, 5421, Note_on_c, 1, 57, 0
3, 5421, Note_on_c, 1, 45, 0
3, 5424, Note_on_c, 1, 55, 64
3, 5424, Note_on_c, 1, 43, 64
3, 5469, Note_on_c, 1, 55, 0
3, 5469, Note_on_c, 1, 43, 0
3, 5472, Note_on_c, 1, 54, 64
3, 5472, Note_on_c, 1, 42, 64
3, 5561, Note_on_c, 1, 54, 0
3, 5561, Note_on_c, 1, 42, 0
3, 5568, Note_on_c, 1, 55, 64
3, 5568, Note_on_c, 1, 43, 64
3, 5613, Note_on_c, 1, 55, 0
3, 5613, Note_on_c, 1, 43, 0
3, 5616, Note_on_c, 1, 50, 64
3, 5616, Note_on_c, 1, 38, 64
3, 5705, Note_on_c, 1, 50, 0
3, 5705, Note_on_c, 1, 38, 0
3, 5760, Note_on_c, 1, 67, 64
3, 5783, Note_on_c, 1, 67, 0
3, 5784, Note_on_c, 1, 71, 64
3, 5807, Note_on_c, 1, 71, 0
3, 5808, Note_on_c, 1, 67, 64
3, 5831, Note_on_c, 1, 67, 0
3, 5832, Note_on_c, 1, 71, 64
3, 5855, Note_on_c, 1, 71, 0
3, 5856, Note_on_c, 1, 67, 64
3, 5879, Note_on_c, 1, 67, 0
3, 5880, Note_on_c, 1, 71, 64
3, 5903, Note_on_c, 1, 71, 0
3, 5904, Note_on_c, 1, 67, 64
3, 5927, Note_on_c, 1, 67, 0
3, 5928, Note_on_c, 1, 71, 64
3, 5951, Note_on_c, 1, 71, 0
3, 5952, Note_on_c, 1, 67, 64
3, 5975, Note_on_c, 1, 67, 0
3, 5976, Note_on_c, 1, 71, 64
3, 5999, Note_on_c, 1, 71, 0
3, 6000, Note_on_c, 1, 67, 64
3, 6023, Note_on_c, 1, 67, 0
3, 6024, Note_on_c, 1, 71, 64
3, 6047, Note_on_c, 1, 71, 0
3, 6048, Note_on_c, 1, 67, 64
3, 6071, Note_on_c, 1, 67, 0
3, 6072, Note_on_c, 1, 72, 64
3, 6095, Note_on_c, 1, 72, 0
3, 6096, Note_on_c, 1, 67, 64
3, 6119, Note_on_c, 1, 67, 0
3, 6120, Note_on_c, 1, 72, 64
3, 6143, Note_on_c, 1, 72, 0
3, 6144, Note_on_c, 1, 67, 64
3, 6167, Note_on_c, 1, 67, 0
3, 6168, Note_on_c, 1, 72, 64
3, 6191, Note_on_c, 1, 72, 0
3, 6192, Note_on_c, 1, 67, 64
3, 6215, Note_on_c, 1, 67, 0
3, 6216, Note_on_c, 1, 71, 64
3, 6239, Note_on_c, 1, 71, 0
3, 6240, Note_on_c, 1, 67, 64
3, 6263, Note_on_c, 1, 67, 0
3, 6264, Note_on_c, 1, 71, 64
3, 6287, Note_on_c, 1, 71, 0
3, 6288, Note_on_c, 1, 67, 64
3, 6311, Note_on_c, 1, 67, 0
3, 6312, Note_on_c, 1, 71, 64
3, 6335, Note_on_c, 1, 71, 0
3, 6336, Note_on_c, 1, 62, 64
3, 6359, Note_on_c, 1, 62, 0
3, 6360, Note_on_c, 1, 69, 64
3, 6383, Note_on_c, 1, 69, 0
3, 6384, Note_on_c, 1, 62, 64
3, 6407, Note_on_c, 1, 62, 0
3, 6408, Note_on_c, 1, 69, 64
3, 6431, Note_on_c, 1, 69, 0
3, 6432, Note_on_c, 1, 62, 64
3, 6455, Note_on_c, 1, 62, 0
3, 6456, Note_on_c, 1, 69, 64
3, 6479, Note_on_c, 1, 69, 0
3, 6480, Note_on_c, 1, 67, 64
3, 6525, Note_on_c, 1, 67, 0
3, 6528, Note_on_c, 1, 69, 64
3, 6573, Note_on_c, 1, 69, 0
3, 6576, Note_on_c, 1, 71, 64
3, 6621, Note_on_c, 1, 71, 0
3, 6624, Note_on_c, 1, 60, 64
3, 6713, Note_on_c, 1, 60, 0
3, 6720, Note_on_c, 1, 62, 64
3, 6765, Note_on_c, 1, 62, 0
3, 6768, Note_on_c, 1, 55, 64
3, 6813, Note_on_c, 1, 55, 0
3, 6816, Note_on_c, 1, 50, 64
3, 6861, Note_on_c, 1, 50, 0
3, 6864, Note_on_c, 1, 43, 64
3, 6909, Note_on_c, 1, 43, 0
3, 7056, Note_on_c, 1, 43, 0
3, 7145, Note_on_c, 1, 43, 0
3, 7152, End_track
4, 0, Start_track
4, 0, Program_c, 0, 0
4, 0, Control_c, 0, 7, 127
4, 0, Control_c, 0, 10, 64
4, 2304, Note_on_c, 0, 50, 64
4, 2437, Note_on_c, 0, 50, 0
4, 2448, Note_on_c, 0, 50, 64
4, 2581, Note_on_c, 0, 50, 0
4, 2592, Note_on_c, 0, 50, 64
4, 2725, Note_on_c, 0, 50, 0
4, 4608, Note_on_c, 0, 50, 64
4, 4741, Note_on_c, 0, 50, 0
4, 4752, Note_on_c, 0, 50, 64
4, 4885, Note_on_c, 0, 50, 0
4, 4896, Note_on_c, 0, 50, 64
4, 5029, Note_on_c, 0, 50, 0
4, 7056, End_track
5, 0, Start_track
5, 0, Title_t, "<No Title>"
5, 0, End_track
0, 0, End_of_file
