0, 0, Header, 1, 7, 96
1, 0, Start_track
1, 0, Copyright_t, "Copyright  2000 <copyright holder>"
1, 0, Text_t, "Sonata V\015\012"
1, 0, Text_t, "Haydn\015\012"
1, 0, Sequencer_specific, 16, 68, 87, 77, 90, 86, 82, 83, 78, 32, 55, 46, 49, 46, 49, 46, 48
1, 0, Time_signature, 3, 2, 24, 8
1, 0, Tempo, 681818
1, 0, Key_signature, 1, "major"
1, 20448, Key_signature, 4, "major"
1, 20448, Time_signature, 2, 2, 24, 8
1, 20448, Tempo, 375000
1, 38880, Key_signature, 1, "major"
1, 45216, Key_signature, 4, "major"
1, 52320, End_track
2, 0, Start_track
2, 0, Program_c, 0, 0
2, 0, Control_c, 0, 7, 127
2, 0, Control_c, 0, 10, 64
2, 0, Note_on_c, 0, 66, 64
2, 12, Note_on_c, 0, 66, 0
2, 12, Note_on_c, 0, 64, 64
2, 24, Note_on_c, 0, 64, 0
2, 24, Note_on_c, 0, 63, 64
2, 36, Note_on_c, 0, 63, 0
2, 36, Note_on_c, 0, 64, 64
2, 265, Note_on_c, 0, 64, 0
2, 288, Note_on_c, 0, 66, 64
2, 553, Note_on_c, 0, 66, 0
2, 576, Note_on_c, 0, 66, 64
2, 813, Note_on_c, 0, 66, 0
2, 816, Note_on_c, 0, 72, 64
2, 861, Note_on_c, 0, 72, 0
2, 864, Note_on_c, 0, 71, 64
2, 909, Note_on_c, 0, 71, 0
2, 912, Note_on_c, 0, 69, 64
2, 957, Note_on_c, 0, 69, 0
2, 960, Note_on_c, 0, 67, 64
2, 1005, Note_on_c, 0, 67, 0
2, 1008, Note_on_c, 0, 66, 64
2, 1053, Note_on_c, 0, 66, 0
2, 1728, Note_on_c, 0, 69, 64
2, 1740, Note_on_c, 0, 69, 0
2, 1740, Note_on_c, 0, 67, 64
2, 1752, Note_on_c, 0, 67, 0
2, 1752, Note_on_c, 0, 66, 64
2, 1764, Note_on_c, 0, 66, 0
2, 1764, Note_on_c, 0, 67, 64
2, 1993, Note_on_c, 0, 67, 0
2, 2016, Note_on_c, 0, 69, 64
2, 2281, Note_on_c, 0, 69, 0
2, 2304, Note_on_c, 0, 69, 64
2, 2437, Note_on_c, 0, 69, 0
2, 2448, Note_on_c, 0, 69, 64
2, 2493, Note_on_c, 0, 69, 0
2, 2496, Note_on_c, 0, 71, 64
2, 2541, Note_on_c, 0, 71, 0
2, 2544, Note_on_c, 0, 72, 64
2, 2589, Note_on_c, 0, 72, 0
2, 2592, Note_on_c, 0, 74, 64
2, 2725, Note_on_c, 0, 74, 0
2, 2736, Note_on_c, 0, 74, 64
2, 2781, Note_on_c, 0, 74, 0
2, 2784, Note_on_c, 0, 76, 64
2, 2829, Note_on_c, 0, 76, 0
2, 2832, Note_on_c, 0, 77, 64
2, 2877, Note_on_c, 0, 77, 0
2, 2880, Note_on_c, 0, 79, 64
2, 3013, Note_on_c, 0, 79, 0
2, 3024, Note_on_c, 0, 79, 64
2, 3069, Note_on_c, 0, 79, 0
2, 3072, Note_on_c, 0, 78, 64
2, 3117, Note_on_c, 0, 78, 0
2, 3120, Note_on_c, 0, 79, 64
2, 3165, Note_on_c, 0, 79, 0
2, 3456, Note_on_c, 0, 67, 64
2, 3501, Note_on_c, 0, 67, 0
2, 3504, Note_on_c, 0, 79, 64
2, 3549, Note_on_c, 0, 79, 0
2, 3552, Note_on_c, 0, 78, 64
2, 3597, Note_on_c, 0, 78, 0
2, 3600, Note_on_c, 0, 76, 64
2, 3645, Note_on_c, 0, 76, 0
2, 3648, Note_on_c, 0, 74, 64
2, 3693, Note_on_c, 0, 74, 0
2, 3696, Note_on_c, 0, 73, 64
2, 3741, Note_on_c, 0, 73, 0
2, 3744, Note_on_c, 0, 76, 64
2, 3750, Note_on_c, 0, 76, 0
2, 3750, Note_on_c, 0, 74, 64
2, 3756, Note_on_c, 0, 74, 0
2, 3756, Note_on_c, 0, 73, 64
2, 3762, Note_on_c, 0, 73, 0
2, 3762, Note_on_c, 0, 74, 64
2, 3789, Note_on_c, 0, 74, 0
2, 3792, Note_on_c, 0, 76, 64
2, 3837, Note_on_c, 0, 76, 0
2, 3840, Note_on_c, 0, 74, 64
2, 3885, Note_on_c, 0, 74, 0
2, 3888, Note_on_c, 0, 72, 64
2, 3933, Note_on_c, 0, 72, 0
2, 3936, Note_on_c, 0, 71, 64
2, 3981, Note_on_c, 0, 71, 0
2, 3984, Note_on_c, 0, 70, 64
2, 4029, Note_on_c, 0, 70, 0
2, 4032, Note_on_c, 0, 72, 64
2, 4038, Note_on_c, 0, 72, 0
2, 4038, Note_on_c, 0, 71, 64
2, 4044, Note_on_c, 0, 71, 0
2, 4044, Note_on_c, 0, 70, 64
2, 4050, Note_on_c, 0, 70, 0
2, 4050, Note_on_c, 0, 71, 64
2, 4077, Note_on_c, 0, 71, 0
2, 4080, Note_on_c, 0, 72, 64
2, 4125, Note_on_c, 0, 72, 0
2, 4128, Note_on_c, 0, 71, 64
2, 4173, Note_on_c, 0, 71, 0
2, 4176, Note_on_c, 0, 69, 64
2, 4221, Note_on_c, 0, 69, 0
2, 4224, Note_on_c, 0, 67, 64
2, 4269, Note_on_c, 0, 67, 0
2, 4272, Note_on_c, 0, 66, 64
2, 4317, Note_on_c, 0, 66, 0
2, 6912, Note_on_c, 0, 66, 64
2, 6924, Note_on_c, 0, 66, 0
2, 6924, Note_on_c, 0, 64, 64
2, 6936, Note_on_c, 0, 64, 0
2, 6936, Note_on_c, 0, 63, 64
2, 6948, Note_on_c, 0, 63, 0
2, 6948, Note_on_c, 0, 64, 64
2, 7177, Note_on_c, 0, 64, 0
2, 7200, Note_on_c, 0, 66, 64
2, 7465, Note_on_c, 0, 66, 0
2, 7488, Note_on_c, 0, 66, 64
2, 7725, Note_on_c, 0, 66, 0
2, 7728, Note_on_c, 0, 72, 64
2, 7773, Note_on_c, 0, 72, 0
2, 7776, Note_on_c, 0, 71, 64
2, 7821, Note_on_c, 0, 71, 0
2, 7824, Note_on_c, 0, 69, 64
2, 7869, Note_on_c, 0, 69, 0
2, 7872, Note_on_c, 0, 67, 64
2, 7917, Note_on_c, 0, 67, 0
2, 7920, Note_on_c, 0, 66, 64
2, 7965, Note_on_c, 0, 66, 0
2, 8640, Note_on_c, 0, 69, 64
2, 8652, Note_on_c, 0, 69, 0
2, 8652, Note_on_c, 0, 67, 64
2, 8664, Note_on_c, 0, 67, 0
2, 8664, Note_on_c, 0, 66, 64
2, 8676, Note_on_c, 0, 66, 0
2, 8676, Note_on_c, 0, 67, 64
2, 8905, Note_on_c, 0, 67, 0
2, 8928, Note_on_c, 0, 69, 64
2, 9193, Note_on_c, 0, 69, 0
2, 9216, Note_on_c, 0, 69, 64
2, 9349, Note_on_c, 0, 69, 0
2, 9360, Note_on_c, 0, 69, 64
2, 9405, Note_on_c, 0, 69, 0
2, 9408, Note_on_c, 0, 71, 64
2, 9453, Note_on_c, 0, 71, 0
2, 9456, Note_on_c, 0, 72, 64
2, 9501, Note_on_c, 0, 72, 0
2, 9504, Note_on_c, 0, 74, 64
2, 9637, Note_on_c, 0, 74, 0
2, 9648, Note_on_c, 0, 74, 64
2, 9693, Note_on_c, 0, 74, 0
2, 9696, Note_on_c, 0, 76, 64
2, 9741, Note_on_c, 0, 76, 0
2, 9744, Note_on_c, 0, 77, 64
2, 9789, Note_on_c, 0, 77, 0
2, 9792, Note_on_c, 0, 79, 64
2, 9925, Note_on_c, 0, 79, 0
2, 9936, Note_on_c, 0, 79, 64
2, 9981, Note_on_c, 0, 79, 0
2, 9984, Note_on_c, 0, 78, 64
2, 10029, Note_on_c, 0, 78, 0
2, 10032, Note_on_c, 0, 79, 64
2, 10077, Note_on_c, 0, 79, 0
2, 10368, Note_on_c, 0, 67, 64
2, 10413, Note_on_c, 0, 67, 0
2, 10416, Note_on_c, 0, 79, 64
2, 10461, Note_on_c, 0, 79, 0
2, 10464, Note_on_c, 0, 78, 64
2, 10509, Note_on_c, 0, 78, 0
2, 10512, Note_on_c, 0, 76, 64
2, 10557, Note_on_c, 0, 76, 0
2, 10560, Note_on_c, 0, 74, 64
2, 10605, Note_on_c, 0, 74, 0
2, 10608, Note_on_c, 0, 73, 64
2, 10653, Note_on_c, 0, 73, 0
2, 10656, Note_on_c, 0, 76, 64
2, 10662, Note_on_c, 0, 76, 0
2, 10662, Note_on_c, 0, 74, 64
2, 10668, Note_on_c, 0, 74, 0
2, 10668, Note_on_c, 0, 73, 64
2, 10674, Note_on_c, 0, 73, 0
2, 10674, Note_on_c, 0, 74, 64
2, 10701, Note_on_c, 0, 74, 0
2, 10704, Note_on_c, 0, 76, 64
2, 10749, Note_on_c, 0, 76, 0
2, 10752, Note_on_c, 0, 74, 64
2, 10797, Note_on_c, 0, 74, 0
2, 10800, Note_on_c, 0, 72, 64
2, 10845, Note_on_c, 0, 72, 0
2, 10848, Note_on_c, 0, 71, 64
2, 10893, Note_on_c, 0, 71, 0
2, 10896, Note_on_c, 0, 70, 64
2, 10941, Note_on_c, 0, 70, 0
2, 10944, Note_on_c, 0, 72, 64
2, 10950, Note_on_c, 0, 72, 0
2, 10950, Note_on_c, 0, 71, 64
2, 10956, Note_on_c, 0, 71, 0
2, 10956, Note_on_c, 0, 70, 64
2, 10962, Note_on_c, 0, 70, 0
2, 10962, Note_on_c, 0, 71, 64
2, 10989, Note_on_c, 0, 71, 0
2, 10992, Note_on_c, 0, 72, 64
2, 11037, Note_on_c, 0, 72, 0
2, 11040, Note_on_c, 0, 71, 64
2, 11085, Note_on_c, 0, 71, 0
2, 11088, Note_on_c, 0, 69, 64
2, 11133, Note_on_c, 0, 69, 0
2, 11136, Note_on_c, 0, 67, 64
2, 11181, Note_on_c, 0, 67, 0
2, 11184, Note_on_c, 0, 66, 64
2, 11229, Note_on_c, 0, 66, 0
2, 20592, Note_on_c, 0, 71, 74
2, 20612, Note_on_c, 0, 71, 0
2, 20640, Note_on_c, 0, 71, 74
2, 20652, Note_on_c, 0, 71, 0
2, 20652, Note_on_c, 0, 73, 74
2, 20664, Note_on_c, 0, 73, 0
2, 20664, Note_on_c, 0, 71, 74
2, 20685, Note_on_c, 0, 71, 0
2, 20688, Note_on_c, 0, 69, 74
2, 20733, Note_on_c, 0, 69, 0
2, 20736, Note_on_c, 0, 68, 74
2, 20756, Note_on_c, 0, 68, 0
2, 20784, Note_on_c, 0, 68, 74
2, 20804, Note_on_c, 0, 68, 0
2, 20832, Note_on_c, 0, 68, 74
2, 20844, Note_on_c, 0, 68, 0
2, 20844, Note_on_c, 0, 69, 74
2, 20856, Note_on_c, 0, 69, 0
2, 20856, Note_on_c, 0, 68, 74
2, 20877, Note_on_c, 0, 68, 0
2, 20880, Note_on_c, 0, 66, 74
2, 20925, Note_on_c, 0, 66, 0
2, 20928, Note_on_c, 0, 64, 74
2, 20948, Note_on_c, 0, 64, 0
2, 20976, Note_on_c, 0, 64, 74
2, 20996, Note_on_c, 0, 64, 0
2, 21024, Note_on_c, 0, 66, 74
2, 21036, Note_on_c, 0, 66, 0
2, 21036, Note_on_c, 0, 68, 74
2, 21048, Note_on_c, 0, 68, 0
2, 21048, Note_on_c, 0, 66, 74
2, 21069, Note_on_c, 0, 66, 0
2, 21072, Note_on_c, 0, 64, 76
2, 21117, Note_on_c, 0, 64, 0
2, 21120, Note_on_c, 0, 66, 78
2, 21132, Note_on_c, 0, 66, 0
2, 21132, Note_on_c, 0, 68, 78
2, 21144, Note_on_c, 0, 68, 0
2, 21144, Note_on_c, 0, 66, 78
2, 21165, Note_on_c, 0, 66, 0
2, 21168, Note_on_c, 0, 64, 80
2, 21213, Note_on_c, 0, 64, 0
2, 21216, Note_on_c, 0, 59, 82
2, 21305, Note_on_c, 0, 59, 0
2, 21360, Note_on_c, 0, 71, 74
2, 21405, Note_on_c, 0, 71, 0
2, 21408, Note_on_c, 0, 71, 74
2, 21420, Note_on_c, 0, 71, 0
2, 21420, Note_on_c, 0, 73, 74
2, 21432, Note_on_c, 0, 73, 0
2, 21432, Note_on_c, 0, 71, 74
2, 21453, Note_on_c, 0, 71, 0
2, 21456, Note_on_c, 0, 69, 74
2, 21501, Note_on_c, 0, 69, 0
2, 21504, Note_on_c, 0, 68, 74
2, 21524, Note_on_c, 0, 68, 0
2, 21552, Note_on_c, 0, 68, 74
2, 21572, Note_on_c, 0, 68, 0
2, 21600, Note_on_c, 0, 68, 74
2, 21612, Note_on_c, 0, 68, 0
2, 21612, Note_on_c, 0, 69, 74
2, 21624, Note_on_c, 0, 69, 0
2, 21624, Note_on_c, 0, 68, 74
2, 21645, Note_on_c, 0, 68, 0
2, 21648, Note_on_c, 0, 66, 74
2, 21693, Note_on_c, 0, 66, 0
2, 21696, Note_on_c, 0, 64, 74
2, 21741, Note_on_c, 0, 64, 0
2, 21744, Note_on_c, 0, 73, 74
2, 21789, Note_on_c, 0, 73, 0
2, 21792, Note_on_c, 0, 73, 74
2, 21804, Note_on_c, 0, 73, 0
2, 21804, Note_on_c, 0, 75, 74
2, 21816, Note_on_c, 0, 75, 0
2, 21816, Note_on_c, 0, 73, 74
2, 21837, Note_on_c, 0, 73, 0
2, 21840, Note_on_c, 0, 72, 76
2, 21885, Note_on_c, 0, 72, 0
2, 21888, Note_on_c, 0, 73, 78
2, 21933, Note_on_c, 0, 73, 0
2, 21936, Note_on_c, 0, 75, 80
2, 21981, Note_on_c, 0, 75, 0
2, 21984, Note_on_c, 0, 68, 82
2, 22078, Note_on_c, 0, 68, 0
2, 22128, Note_on_c, 0, 71, 74
2, 22173, Note_on_c, 0, 71, 0
2, 22176, Note_on_c, 0, 71, 74
2, 22188, Note_on_c, 0, 71, 0
2, 22188, Note_on_c, 0, 73, 74
2, 22200, Note_on_c, 0, 73, 0
2, 22200, Note_on_c, 0, 71, 74
2, 22221, Note_on_c, 0, 71, 0
2, 22224, Note_on_c, 0, 69, 74
2, 22269, Note_on_c, 0, 69, 0
2, 22272, Note_on_c, 0, 68, 74
2, 22292, Note_on_c, 0, 68, 0
2, 22320, Note_on_c, 0, 68, 74
2, 22340, Note_on_c, 0, 68, 0
2, 22368, Note_on_c, 0, 68, 74
2, 22380, Note_on_c, 0, 68, 0
2, 22380, Note_on_c, 0, 69, 74
2, 22392, Note_on_c, 0, 69, 0
2, 22392, Note_on_c, 0, 68, 74
2, 22413, Note_on_c, 0, 68, 0
2, 22416, Note_on_c, 0, 66, 74
2, 22461, Note_on_c, 0, 66, 0
2, 22464, Note_on_c, 0, 64, 74
2, 22484, Note_on_c, 0, 64, 0
2, 22512, Note_on_c, 0, 64, 74
2, 22532, Note_on_c, 0, 64, 0
2, 22560, Note_on_c, 0, 66, 74
2, 22572, Note_on_c, 0, 66, 0
2, 22572, Note_on_c, 0, 68, 74
2, 22584, Note_on_c, 0, 68, 0
2, 22584, Note_on_c, 0, 66, 74
2, 22605, Note_on_c, 0, 66, 0
2, 22608, Note_on_c, 0, 64, 76
2, 22653, Note_on_c, 0, 64, 0
2, 22656, Note_on_c, 0, 66, 78
2, 22668, Note_on_c, 0, 66, 0
2, 22668, Note_on_c, 0, 68, 78
2, 22680, Note_on_c, 0, 68, 0
2, 22680, Note_on_c, 0, 66, 78
2, 22701, Note_on_c, 0, 66, 0
2, 22704, Note_on_c, 0, 64, 80
2, 22749, Note_on_c, 0, 64, 0
2, 22752, Note_on_c, 0, 59, 82
2, 22841, Note_on_c, 0, 59, 0
2, 22896, Note_on_c, 0, 71, 74
2, 22941, Note_on_c, 0, 71, 0
2, 22944, Note_on_c, 0, 71, 74
2, 22956, Note_on_c, 0, 71, 0
2, 22956, Note_on_c, 0, 73, 74
2, 22968, Note_on_c, 0, 73, 0
2, 22968, Note_on_c, 0, 71, 74
2, 22989, Note_on_c, 0, 71, 0
2, 22992, Note_on_c, 0, 69, 74
2, 23037, Note_on_c, 0, 69, 0
2, 23040, Note_on_c, 0, 68, 74
2, 23060, Note_on_c, 0, 68, 0
2, 23088, Note_on_c, 0, 68, 74
2, 23108, Note_on_c, 0, 68, 0
2, 23136, Note_on_c, 0, 68, 74
2, 23148, Note_on_c, 0, 68, 0
2, 23148, Note_on_c, 0, 69, 74
2, 23160, Note_on_c, 0, 69, 0
2, 23160, Note_on_c, 0, 68, 74
2, 23181, Note_on_c, 0, 68, 0
2, 23184, Note_on_c, 0, 66, 74
2, 23229, Note_on_c, 0, 66, 0
2, 23232, Note_on_c, 0, 64, 74
2, 23277, Note_on_c, 0, 64, 0
2, 23280, Note_on_c, 0, 73, 74
2, 23325, Note_on_c, 0, 73, 0
2, 23328, Note_on_c, 0, 73, 74
2, 23340, Note_on_c, 0, 73, 0
2, 23340, Note_on_c, 0, 75, 74
2, 23352, Note_on_c, 0, 75, 0
2, 23352, Note_on_c, 0, 73, 74
2, 23373, Note_on_c, 0, 73, 0
2, 23376, Note_on_c, 0, 72, 76
2, 23421, Note_on_c, 0, 72, 0
2, 23424, Note_on_c, 0, 73, 78
2, 23469, Note_on_c, 0, 73, 0
2, 23472, Note_on_c, 0, 75, 80
2, 23517, Note_on_c, 0, 75, 0
2, 23520, Note_on_c, 0, 68, 82
2, 23614, Note_on_c, 0, 68, 0
2, 23664, Note_on_c, 0, 71, 74
2, 23709, Note_on_c, 0, 71, 0
2, 23712, Note_on_c, 0, 71, 74
2, 23724, Note_on_c, 0, 71, 0
2, 23724, Note_on_c, 0, 73, 74
2, 23736, Note_on_c, 0, 73, 0
2, 23736, Note_on_c, 0, 71, 74
2, 23757, Note_on_c, 0, 71, 0
2, 23760, Note_on_c, 0, 70, 74
2, 23805, Note_on_c, 0, 70, 0
2, 23808, Note_on_c, 0, 71, 74
2, 23853, Note_on_c, 0, 71, 0
2, 23856, Note_on_c, 0, 75, 74
2, 23901, Note_on_c, 0, 75, 0
2, 23904, Note_on_c, 0, 70, 74
2, 23916, Note_on_c, 0, 70, 0
2, 23916, Note_on_c, 0, 71, 74
2, 23928, Note_on_c, 0, 71, 0
2, 23928, Note_on_c, 0, 70, 74
2, 23949, Note_on_c, 0, 70, 0
2, 23952, Note_on_c, 0, 68, 74
2, 23997, Note_on_c, 0, 68, 0
2, 24000, Note_on_c, 0, 70, 74
2, 24045, Note_on_c, 0, 70, 0
2, 24048, Note_on_c, 0, 63, 74
2, 24093, Note_on_c, 0, 63, 0
2, 24096, Note_on_c, 0, 68, 74
2, 24108, Note_on_c, 0, 68, 0
2, 24108, Note_on_c, 0, 69, 74
2, 24120, Note_on_c, 0, 69, 0
2, 24120, Note_on_c, 0, 68, 74
2, 24141, Note_on_c, 0, 68, 0
2, 24144, Note_on_c, 0, 66, 74
2, 24189, Note_on_c, 0, 66, 0
2, 24192, Note_on_c, 0, 68, 74
2, 24237, Note_on_c, 0, 68, 0
2, 24240, Note_on_c, 0, 71, 74
2, 24285, Note_on_c, 0, 71, 0
2, 24288, Note_on_c, 0, 66, 74
2, 24300, Note_on_c, 0, 66, 0
2, 24300, Note_on_c, 0, 68, 74
2, 24312, Note_on_c, 0, 68, 0
2, 24312, Note_on_c, 0, 66, 74
2, 24333, Note_on_c, 0, 66, 0
2, 24336, Note_on_c, 0, 64, 74
2, 24381, Note_on_c, 0, 64, 0
2, 24384, Note_on_c, 0, 66, 74
2, 24429, Note_on_c, 0, 66, 0
2, 24432, Note_on_c, 0, 59, 74
2, 24477, Note_on_c, 0, 59, 0
2, 24480, Note_on_c, 0, 69, 74
2, 24492, Note_on_c, 0, 69, 0
2, 24492, Note_on_c, 0, 71, 74
2, 24504, Note_on_c, 0, 71, 0
2, 24504, Note_on_c, 0, 69, 74
2, 24525, Note_on_c, 0, 69, 0
2, 24528, Note_on_c, 0, 68, 74
2, 24573, Note_on_c, 0, 68, 0
2, 24576, Note_on_c, 0, 69, 74
2, 24621, Note_on_c, 0, 69, 0
2, 24624, Note_on_c, 0, 73, 74
2, 24669, Note_on_c, 0, 73, 0
2, 24672, Note_on_c, 0, 66, 74
2, 24684, Note_on_c, 0, 66, 0
2, 24684, Note_on_c, 0, 68, 74
2, 24696, Note_on_c, 0, 68, 0
2, 24696, Note_on_c, 0, 66, 74
2, 24717, Note_on_c, 0, 66, 0
2, 24720, Note_on_c, 0, 64, 74
2, 24765, Note_on_c, 0, 64, 0
2, 24768, Note_on_c, 0, 66, 74
2, 24780, Note_on_c, 0, 66, 0
2, 24780, Note_on_c, 0, 68, 74
2, 24792, Note_on_c, 0, 68, 0
2, 24792, Note_on_c, 0, 66, 74
2, 24813, Note_on_c, 0, 66, 0
2, 24816, Note_on_c, 0, 64, 74
2, 24861, Note_on_c, 0, 64, 0
2, 24864, Note_on_c, 0, 63, 74
2, 24876, Note_on_c, 0, 63, 0
2, 24876, Note_on_c, 0, 61, 74
2, 24909, Note_on_c, 0, 61, 0
2, 24912, Note_on_c, 0, 59, 74
2, 24957, Note_on_c, 0, 59, 0
2, 24960, Note_on_c, 0, 61, 74
2, 25005, Note_on_c, 0, 61, 0
2, 25008, Note_on_c, 0, 63, 74
2, 25053, Note_on_c, 0, 63, 0
2, 25056, Note_on_c, 0, 64, 74
2, 25145, Note_on_c, 0, 64, 0
2, 25200, Note_on_c, 0, 71, 74
2, 25245, Note_on_c, 0, 71, 0
2, 25248, Note_on_c, 0, 71, 74
2, 25260, Note_on_c, 0, 71, 0
2, 25260, Note_on_c, 0, 73, 74
2, 25272, Note_on_c, 0, 73, 0
2, 25272, Note_on_c, 0, 71, 74
2, 25293, Note_on_c, 0, 71, 0
2, 25296, Note_on_c, 0, 70, 74
2, 25341, Note_on_c, 0, 70, 0
2, 25344, Note_on_c, 0, 71, 74
2, 25389, Note_on_c, 0, 71, 0
2, 25392, Note_on_c, 0, 75, 74
2, 25437, Note_on_c, 0, 75, 0
2, 25440, Note_on_c, 0, 70, 74
2, 25452, Note_on_c, 0, 70, 0
2, 25452, Note_on_c, 0, 71, 74
2, 25464, Note_on_c, 0, 71, 0
2, 25464, Note_on_c, 0, 70, 74
2, 25485, Note_on_c, 0, 70, 0
2, 25488, Note_on_c, 0, 68, 74
2, 25533, Note_on_c, 0, 68, 0
2, 25536, Note_on_c, 0, 70, 74
2, 25581, Note_on_c, 0, 70, 0
2, 25584, Note_on_c, 0, 63, 74
2, 25629, Note_on_c, 0, 63, 0
2, 25632, Note_on_c, 0, 68, 74
2, 25644, Note_on_c, 0, 68, 0
2, 25644, Note_on_c, 0, 69, 74
2, 25656, Note_on_c, 0, 69, 0
2, 25656, Note_on_c, 0, 68, 74
2, 25677, Note_on_c, 0, 68, 0
2, 25680, Note_on_c, 0, 66, 74
2, 25725, Note_on_c, 0, 66, 0
2, 25728, Note_on_c, 0, 68, 74
2, 25773, Note_on_c, 0, 68, 0
2, 25776, Note_on_c, 0, 71, 74
2, 25821, Note_on_c, 0, 71, 0
2, 25824, Note_on_c, 0, 66, 74
2, 25836, Note_on_c, 0, 66, 0
2, 25836, Note_on_c, 0, 68, 74
2, 25848, Note_on_c, 0, 68, 0
2, 25848, Note_on_c, 0, 66, 74
2, 25869, Note_on_c, 0, 66, 0
2, 25872, Note_on_c, 0, 64, 74
2, 25917, Note_on_c, 0, 64, 0
2, 25920, Note_on_c, 0, 66, 74
2, 25965, Note_on_c, 0, 66, 0
2, 25968, Note_on_c, 0, 59, 74
2, 26013, Note_on_c, 0, 59, 0
2, 26016, Note_on_c, 0, 69, 74
2, 26028, Note_on_c, 0, 69, 0
2, 26028, Note_on_c, 0, 71, 74
2, 26040, Note_on_c, 0, 71, 0
2, 26040, Note_on_c, 0, 69, 74
2, 26061, Note_on_c, 0, 69, 0
2, 26064, Note_on_c, 0, 68, 74
2, 26109, Note_on_c, 0, 68, 0
2, 26112, Note_on_c, 0, 69, 74
2, 26157, Note_on_c, 0, 69, 0
2, 26160, Note_on_c, 0, 73, 74
2, 26205, Note_on_c, 0, 73, 0
2, 26208, Note_on_c, 0, 66, 74
2, 26220, Note_on_c, 0, 66, 0
2, 26220, Note_on_c, 0, 68, 74
2, 26232, Note_on_c, 0, 68, 0
2, 26232, Note_on_c, 0, 66, 74
2, 26253, Note_on_c, 0, 66, 0
2, 26256, Note_on_c, 0, 64, 74
2, 26301, Note_on_c, 0, 64, 0
2, 26304, Note_on_c, 0, 66, 74
2, 26316, Note_on_c, 0, 66, 0
2, 26316, Note_on_c, 0, 68, 74
2, 26328, Note_on_c, 0, 68, 0
2, 26328, Note_on_c, 0, 66, 74
2, 26349, Note_on_c, 0, 66, 0
2, 26352, Note_on_c, 0, 64, 74
2, 26397, Note_on_c, 0, 64, 0
2, 26400, Note_on_c, 0, 63, 74
2, 26412, Note_on_c, 0, 63, 0
2, 26412, Note_on_c, 0, 61, 74
2, 26445, Note_on_c, 0, 61, 0
2, 26448, Note_on_c, 0, 59, 74
2, 26493, Note_on_c, 0, 59, 0
2, 26496, Note_on_c, 0, 61, 74
2, 26541, Note_on_c, 0, 61, 0
2, 26544, Note_on_c, 0, 63, 74
2, 26589, Note_on_c, 0, 63, 0
2, 26592, Note_on_c, 0, 64, 74
2, 26681, Note_on_c, 0, 64, 0
2, 26736, Note_on_c, 0, 71, 74
2, 26781, Note_on_c, 0, 71, 0
2, 26784, Note_on_c, 0, 71, 74
2, 26807, Note_on_c, 0, 71, 0
2, 26808, Note_on_c, 0, 73, 74
2, 26831, Note_on_c, 0, 73, 0
2, 26832, Note_on_c, 0, 69, 74
2, 26855, Note_on_c, 0, 69, 0
2, 26856, Note_on_c, 0, 71, 74
2, 26879, Note_on_c, 0, 71, 0
2, 26880, Note_on_c, 0, 68, 74
2, 26925, Note_on_c, 0, 68, 0
2, 26928, Note_on_c, 0, 68, 74
2, 26973, Note_on_c, 0, 68, 0
2, 26976, Note_on_c, 0, 68, 74
2, 26999, Note_on_c, 0, 68, 0
2, 27000, Note_on_c, 0, 69, 74
2, 27023, Note_on_c, 0, 69, 0
2, 27024, Note_on_c, 0, 66, 74
2, 27047, Note_on_c, 0, 66, 0
2, 27048, Note_on_c, 0, 68, 74
2, 27071, Note_on_c, 0, 68, 0
2, 27072, Note_on_c, 0, 64, 74
2, 27117, Note_on_c, 0, 64, 0
2, 27120, Note_on_c, 0, 76, 74
2, 27143, Note_on_c, 0, 76, 0
2, 27144, Note_on_c, 0, 75, 74
2, 27167, Note_on_c, 0, 75, 0
2, 27168, Note_on_c, 0, 73, 74
2, 27191, Note_on_c, 0, 73, 0
2, 27192, Note_on_c, 0, 71, 75
2, 27215, Note_on_c, 0, 71, 0
2, 27216, Note_on_c, 0, 69, 76
2, 27239, Note_on_c, 0, 69, 0
2, 27240, Note_on_c, 0, 68, 77
2, 27263, Note_on_c, 0, 68, 0
2, 27264, Note_on_c, 0, 66, 78
2, 27287, Note_on_c, 0, 66, 0
2, 27288, Note_on_c, 0, 64, 79
2, 27311, Note_on_c, 0, 64, 0
2, 27312, Note_on_c, 0, 63, 80
2, 27335, Note_on_c, 0, 63, 0
2, 27336, Note_on_c, 0, 61, 81
2, 27359, Note_on_c, 0, 61, 0
2, 27360, Note_on_c, 0, 59, 82
2, 27449, Note_on_c, 0, 59, 0
2, 27504, Note_on_c, 0, 71, 74
2, 27549, Note_on_c, 0, 71, 0
2, 27552, Note_on_c, 0, 71, 74
2, 27575, Note_on_c, 0, 71, 0
2, 27576, Note_on_c, 0, 73, 74
2, 27599, Note_on_c, 0, 73, 0
2, 27600, Note_on_c, 0, 69, 74
2, 27623, Note_on_c, 0, 69, 0
2, 27624, Note_on_c, 0, 71, 74
2, 27647, Note_on_c, 0, 71, 0
2, 27648, Note_on_c, 0, 68, 74
2, 27693, Note_on_c, 0, 68, 0
2, 27696, Note_on_c, 0, 68, 74
2, 27741, Note_on_c, 0, 68, 0
2, 27744, Note_on_c, 0, 68, 74
2, 27767, Note_on_c, 0, 68, 0
2, 27768, Note_on_c, 0, 69, 74
2, 27791, Note_on_c, 0, 69, 0
2, 27792, Note_on_c, 0, 66, 74
2, 27815, Note_on_c, 0, 66, 0
2, 27816, Note_on_c, 0, 68, 74
2, 27839, Note_on_c, 0, 68, 0
2, 27840, Note_on_c, 0, 64, 74
2, 27885, Note_on_c, 0, 64, 0
2, 27888, Note_on_c, 0, 73, 74
2, 27933, Note_on_c, 0, 73, 0
2, 27936, Note_on_c, 0, 73, 74
2, 27959, Note_on_c, 0, 73, 0
2, 27960, Note_on_c, 0, 75, 75
2, 27983, Note_on_c, 0, 75, 0
2, 27984, Note_on_c, 0, 72, 76
2, 28007, Note_on_c, 0, 72, 0
2, 28008, Note_on_c, 0, 75, 77
2, 28031, Note_on_c, 0, 75, 0
2, 28032, Note_on_c, 0, 73, 78
2, 28055, Note_on_c, 0, 73, 0
2, 28056, Note_on_c, 0, 76, 79
2, 28079, Note_on_c, 0, 76, 0
2, 28080, Note_on_c, 0, 75, 80
2, 28103, Note_on_c, 0, 75, 0
2, 28104, Note_on_c, 0, 73, 81
2, 28127, Note_on_c, 0, 73, 0
2, 28128, Note_on_c, 0, 68, 82
2, 28222, Note_on_c, 0, 68, 0
2, 28272, Note_on_c, 0, 71, 74
2, 28317, Note_on_c, 0, 71, 0
2, 28320, Note_on_c, 0, 71, 74
2, 28343, Note_on_c, 0, 71, 0
2, 28344, Note_on_c, 0, 73, 74
2, 28367, Note_on_c, 0, 73, 0
2, 28368, Note_on_c, 0, 69, 74
2, 28391, Note_on_c, 0, 69, 0
2, 28392, Note_on_c, 0, 71, 74
2, 28415, Note_on_c, 0, 71, 0
2, 28416, Note_on_c, 0, 68, 74
2, 28461, Note_on_c, 0, 68, 0
2, 28464, Note_on_c, 0, 68, 74
2, 28509, Note_on_c, 0, 68, 0
2, 28512, Note_on_c, 0, 68, 74
2, 28535, Note_on_c, 0, 68, 0
2, 28536, Note_on_c, 0, 69, 74
2, 28559, Note_on_c, 0, 69, 0
2, 28560, Note_on_c, 0, 66, 74
2, 28583, Note_on_c, 0, 66, 0
2, 28584, Note_on_c, 0, 68, 74
2, 28607, Note_on_c, 0, 68, 0
2, 28608, Note_on_c, 0, 64, 74
2, 28653, Note_on_c, 0, 64, 0
2, 28656, Note_on_c, 0, 76, 74
2, 28679, Note_on_c, 0, 76, 0
2, 28680, Note_on_c, 0, 75, 74
2, 28703, Note_on_c, 0, 75, 0
2, 28704, Note_on_c, 0, 73, 74
2, 28727, Note_on_c, 0, 73, 0
2, 28728, Note_on_c, 0, 71, 75
2, 28751, Note_on_c, 0, 71, 0
2, 28752, Note_on_c, 0, 69, 76
2, 28775, Note_on_c, 0, 69, 0
2, 28776, Note_on_c, 0, 68, 77
2, 28799, Note_on_c, 0, 68, 0
2, 28800, Note_on_c, 0, 66, 78
2, 28823, Note_on_c, 0, 66, 0
2, 28824, Note_on_c, 0, 64, 79
2, 28847, Note_on_c, 0, 64, 0
2, 28848, Note_on_c, 0, 63, 80
2, 28871, Note_on_c, 0, 63, 0
2, 28872, Note_on_c, 0, 61, 81
2, 28895, Note_on_c, 0, 61, 0
2, 28896, Note_on_c, 0, 59, 82
2, 28985, Note_on_c, 0, 59, 0
2, 29040, Note_on_c, 0, 71, 74
2, 29085, Note_on_c, 0, 71, 0
2, 29088, Note_on_c, 0, 71, 74
2, 29111, Note_on_c, 0, 71, 0
2, 29112, Note_on_c, 0, 73, 74
2, 29135, Note_on_c, 0, 73, 0
2, 29136, Note_on_c, 0, 69, 74
2, 29159, Note_on_c, 0, 69, 0
2, 29160, Note_on_c, 0, 71, 74
2, 29183, Note_on_c, 0, 71, 0
2, 29184, Note_on_c, 0, 68, 74
2, 29229, Note_on_c, 0, 68, 0
2, 29232, Note_on_c, 0, 68, 74
2, 29277, Note_on_c, 0, 68, 0
2, 29280, Note_on_c, 0, 68, 74
2, 29303, Note_on_c, 0, 68, 0
2, 29304, Note_on_c, 0, 69, 74
2, 29327, Note_on_c, 0, 69, 0
2, 29328, Note_on_c, 0, 66, 74
2, 29351, Note_on_c, 0, 66, 0
2, 29352, Note_on_c, 0, 68, 74
2, 29375, Note_on_c, 0, 68, 0
2, 29376, Note_on_c, 0, 64, 74
2, 29421, Note_on_c, 0, 64, 0
2, 29424, Note_on_c, 0, 73, 74
2, 29469, Note_on_c, 0, 73, 0
2, 29472, Note_on_c, 0, 73, 74
2, 29495, Note_on_c, 0, 73, 0
2, 29496, Note_on_c, 0, 75, 75
2, 29519, Note_on_c, 0, 75, 0
2, 29520, Note_on_c, 0, 72, 76
2, 29543, Note_on_c, 0, 72, 0
2, 29544, Note_on_c, 0, 75, 77
2, 29567, Note_on_c, 0, 75, 0
2, 29568, Note_on_c, 0, 73, 78
2, 29591, Note_on_c, 0, 73, 0
2, 29592, Note_on_c, 0, 76, 79
2, 29615, Note_on_c, 0, 76, 0
2, 29616, Note_on_c, 0, 75, 80
2, 29639, Note_on_c, 0, 75, 0
2, 29640, Note_on_c, 0, 73, 81
2, 29663, Note_on_c, 0, 73, 0
2, 29664, Note_on_c, 0, 68, 82
2, 29758, Note_on_c, 0, 68, 0
2, 29808, Note_on_c, 0, 71, 74
2, 29853, Note_on_c, 0, 71, 0
2, 29856, Note_on_c, 0, 71, 74
2, 29879, Note_on_c, 0, 71, 0
2, 29880, Note_on_c, 0, 73, 74
2, 29903, Note_on_c, 0, 73, 0
2, 29904, Note_on_c, 0, 71, 74
2, 29927, Note_on_c, 0, 71, 0
2, 29928, Note_on_c, 0, 70, 74
2, 29951, Note_on_c, 0, 70, 0
2, 29952, Note_on_c, 0, 71, 74
2, 29975, Note_on_c, 0, 71, 0
2, 29976, Note_on_c, 0, 75, 74
2, 29999, Note_on_c, 0, 75, 0
2, 30000, Note_on_c, 0, 73, 74
2, 30023, Note_on_c, 0, 73, 0
2, 30024, Note_on_c, 0, 71, 74
2, 30047, Note_on_c, 0, 71, 0
2, 30048, Note_on_c, 0, 70, 74
2, 30071, Note_on_c, 0, 70, 0
2, 30072, Note_on_c, 0, 71, 74
2, 30095, Note_on_c, 0, 71, 0
2, 30096, Note_on_c, 0, 70, 74
2, 30119, Note_on_c, 0, 70, 0
2, 30120, Note_on_c, 0, 68, 74
2, 30143, Note_on_c, 0, 68, 0
2, 30144, Note_on_c, 0, 70, 74
2, 30189, Note_on_c, 0, 70, 0
2, 30192, Note_on_c, 0, 63, 74
2, 30237, Note_on_c, 0, 63, 0
2, 30240, Note_on_c, 0, 68, 74
2, 30263, Note_on_c, 0, 68, 0
2, 30264, Note_on_c, 0, 69, 74
2, 30287, Note_on_c, 0, 69, 0
2, 30288, Note_on_c, 0, 68, 74
2, 30311, Note_on_c, 0, 68, 0
2, 30312, Note_on_c, 0, 66, 74
2, 30335, Note_on_c, 0, 66, 0
2, 30336, Note_on_c, 0, 68, 74
2, 30359, Note_on_c, 0, 68, 0
2, 30360, Note_on_c, 0, 71, 74
2, 30383, Note_on_c, 0, 71, 0
2, 30384, Note_on_c, 0, 69, 74
2, 30407, Note_on_c, 0, 69, 0
2, 30408, Note_on_c, 0, 68, 74
2, 30431, Note_on_c, 0, 68, 0
2, 30432, Note_on_c, 0, 66, 74
2, 30455, Note_on_c, 0, 66, 0
2, 30456, Note_on_c, 0, 64, 74
2, 30479, Note_on_c, 0, 64, 0
2, 30480, Note_on_c, 0, 63, 74
2, 30503, Note_on_c, 0, 63, 0
2, 30504, Note_on_c, 0, 61, 74
2, 30527, Note_on_c, 0, 61, 0
2, 30528, Note_on_c, 0, 59, 74
2, 30573, Note_on_c, 0, 59, 0
2, 30576, Note_on_c, 0, 59, 74
2, 30621, Note_on_c, 0, 59, 0
2, 30624, Note_on_c, 0, 69, 74
2, 30647, Note_on_c, 0, 69, 0
2, 30648, Note_on_c, 0, 71, 74
2, 30671, Note_on_c, 0, 71, 0
2, 30672, Note_on_c, 0, 69, 74
2, 30695, Note_on_c, 0, 69, 0
2, 30696, Note_on_c, 0, 68, 74
2, 30719, Note_on_c, 0, 68, 0
2, 30720, Note_on_c, 0, 69, 74
2, 30765, Note_on_c, 0, 69, 0
2, 30768, Note_on_c, 0, 73, 74
2, 30813, Note_on_c, 0, 73, 0
2, 30816, Note_on_c, 0, 66, 74
2, 30839, Note_on_c, 0, 66, 0
2, 30840, Note_on_c, 0, 68, 74
2, 30863, Note_on_c, 0, 68, 0
2, 30864, Note_on_c, 0, 64, 74
2, 30909, Note_on_c, 0, 64, 0
2, 30912, Note_on_c, 0, 66, 74
2, 30935, Note_on_c, 0, 66, 0
2, 30936, Note_on_c, 0, 68, 74
2, 30959, Note_on_c, 0, 68, 0
2, 30960, Note_on_c, 0, 64, 74
2, 31005, Note_on_c, 0, 64, 0
2, 31008, Note_on_c, 0, 61, 74
2, 31031, Note_on_c, 0, 61, 0
2, 31032, Note_on_c, 0, 63, 74
2, 31055, Note_on_c, 0, 63, 0
2, 31056, Note_on_c, 0, 59, 74
2, 31101, Note_on_c, 0, 59, 0
2, 31104, Note_on_c, 0, 61, 74
2, 31127, Note_on_c, 0, 61, 0
2, 31128, Note_on_c, 0, 64, 74
2, 31151, Note_on_c, 0, 64, 0
2, 31152, Note_on_c, 0, 63, 74
2, 31175, Note_on_c, 0, 63, 0
2, 31176, Note_on_c, 0, 66, 74
2, 31199, Note_on_c, 0, 66, 0
2, 31200, Note_on_c, 0, 64, 74
2, 31289, Note_on_c, 0, 64, 0
2, 31344, Note_on_c, 0, 71, 74
2, 31389, Note_on_c, 0, 71, 0
2, 31392, Note_on_c, 0, 71, 74
2, 31415, Note_on_c, 0, 71, 0
2, 31416, Note_on_c, 0, 73, 74
2, 31439, Note_on_c, 0, 73, 0
2, 31440, Note_on_c, 0, 71, 74
2, 31463, Note_on_c, 0, 71, 0
2, 31464, Note_on_c, 0, 70, 74
2, 31487, Note_on_c, 0, 70, 0
2, 31488, Note_on_c, 0, 71, 74
2, 31511, Note_on_c, 0, 71, 0
2, 31512, Note_on_c, 0, 75, 74
2, 31535, Note_on_c, 0, 75, 0
2, 31536, Note_on_c, 0, 73, 74
2, 31559, Note_on_c, 0, 73, 0
2, 31560, Note_on_c, 0, 71, 74
2, 31583, Note_on_c, 0, 71, 0
2, 31584, Note_on_c, 0, 70, 74
2, 31607, Note_on_c, 0, 70, 0
2, 31608, Note_on_c, 0, 71, 74
2, 31631, Note_on_c, 0, 71, 0
2, 31632, Note_on_c, 0, 70, 74
2, 31655, Note_on_c, 0, 70, 0
2, 31656, Note_on_c, 0, 68, 74
2, 31679, Note_on_c, 0, 68, 0
2, 31680, Note_on_c, 0, 70, 74
2, 31725, Note_on_c, 0, 70, 0
2, 31728, Note_on_c, 0, 63, 74
2, 31773, Note_on_c, 0, 63, 0
2, 31776, Note_on_c, 0, 68, 74
2, 31799, Note_on_c, 0, 68, 0
2, 31800, Note_on_c, 0, 69, 74
2, 31823, Note_on_c, 0, 69, 0
2, 31824, Note_on_c, 0, 68, 74
2, 31847, Note_on_c, 0, 68, 0
2, 31848, Note_on_c, 0, 66, 74
2, 31871, Note_on_c, 0, 66, 0
2, 31872, Note_on_c, 0, 68, 74
2, 31895, Note_on_c, 0, 68, 0
2, 31896, Note_on_c, 0, 71, 74
2, 31919, Note_on_c, 0, 71, 0
2, 31920, Note_on_c, 0, 69, 74
2, 31943, Note_on_c, 0, 69, 0
2, 31944, Note_on_c, 0, 68, 74
2, 31967, Note_on_c, 0, 68, 0
2, 31968, Note_on_c, 0, 66, 74
2, 31991, Note_on_c, 0, 66, 0
2, 31992, Note_on_c, 0, 64, 74
2, 32015, Note_on_c, 0, 64, 0
2, 32016, Note_on_c, 0, 63, 74
2, 32039, Note_on_c, 0, 63, 0
2, 32040, Note_on_c, 0, 61, 74
2, 32063, Note_on_c, 0, 61, 0
2, 32064, Note_on_c, 0, 59, 74
2, 32109, Note_on_c, 0, 59, 0
2, 32112, Note_on_c, 0, 59, 74
2, 32157, Note_on_c, 0, 59, 0
2, 32160, Note_on_c, 0, 69, 74
2, 32183, Note_on_c, 0, 69, 0
2, 32184, Note_on_c, 0, 71, 74
2, 32207, Note_on_c, 0, 71, 0
2, 32208, Note_on_c, 0, 69, 74
2, 32231, Note_on_c, 0, 69, 0
2, 32232, Note_on_c, 0, 68, 74
2, 32255, Note_on_c, 0, 68, 0
2, 32256, Note_on_c, 0, 69, 74
2, 32301, Note_on_c, 0, 69, 0
2, 32304, Note_on_c, 0, 73, 74
2, 32349, Note_on_c, 0, 73, 0
2, 32352, Note_on_c, 0, 66, 74
2, 32375, Note_on_c, 0, 66, 0
2, 32376, Note_on_c, 0, 68, 74
2, 32399, Note_on_c, 0, 68, 0
2, 32400, Note_on_c, 0, 64, 74
2, 32445, Note_on_c, 0, 64, 0
2, 32448, Note_on_c, 0, 66, 74
2, 32471, Note_on_c, 0, 66, 0
2, 32472, Note_on_c, 0, 68, 74
2, 32495, Note_on_c, 0, 68, 0
2, 32496, Note_on_c, 0, 64, 74
2, 32541, Note_on_c, 0, 64, 0
2, 32544, Note_on_c, 0, 61, 74
2, 32567, Note_on_c, 0, 61, 0
2, 32568, Note_on_c, 0, 63, 74
2, 32591, Note_on_c, 0, 63, 0
2, 32592, Note_on_c, 0, 59, 74
2, 32637, Note_on_c, 0, 59, 0
2, 32640, Note_on_c, 0, 61, 74
2, 32663, Note_on_c, 0, 61, 0
2, 32664, Note_on_c, 0, 64, 74
2, 32687, Note_on_c, 0, 64, 0
2, 32688, Note_on_c, 0, 63, 74
2, 32711, Note_on_c, 0, 63, 0
2, 32712, Note_on_c, 0, 66, 74
2, 32735, Note_on_c, 0, 66, 0
2, 32736, Note_on_c, 0, 64, 74
2, 32825, Note_on_c, 0, 64, 0
2, 32880, Note_on_c, 0, 83, 74
2, 32880, Note_on_c, 0, 80, 74
2, 32925, Note_on_c, 0, 83, 0
2, 32925, Note_on_c, 0, 80, 0
2, 32928, Note_on_c, 0, 83, 74
2, 32928, Note_on_c, 0, 80, 74
2, 32973, Note_on_c, 0, 83, 0
2, 32973, Note_on_c, 0, 80, 0
2, 32976, Note_on_c, 0, 81, 74
2, 32976, Note_on_c, 0, 78, 74
2, 33021, Note_on_c, 0, 81, 0
2, 33021, Note_on_c, 0, 78, 0
2, 33024, Note_on_c, 0, 80, 74
2, 33024, Note_on_c, 0, 76, 74
2, 33069, Note_on_c, 0, 80, 0
2, 33069, Note_on_c, 0, 76, 0
2, 33072, Note_on_c, 0, 80, 74
2, 33092, Note_on_c, 0, 80, 0
2, 33120, Note_on_c, 0, 80, 74
2, 33165, Note_on_c, 0, 80, 0
2, 33168, Note_on_c, 0, 78, 74
2, 33213, Note_on_c, 0, 78, 0
2, 33216, Note_on_c, 0, 76, 74
2, 33261, Note_on_c, 0, 76, 0
2, 33264, Note_on_c, 0, 88, 74
2, 33357, Note_on_c, 0, 88, 0
2, 33360, Note_on_c, 0, 85, 76
2, 33405, Note_on_c, 0, 85, 0
2, 33408, Note_on_c, 0, 80, 78
2, 33453, Note_on_c, 0, 80, 0
2, 33456, Note_on_c, 0, 82, 80
2, 33501, Note_on_c, 0, 82, 0
2, 33504, Note_on_c, 0, 82, 82
2, 33600, Note_on_c, 0, 82, 0
2, 33600, Note_on_c, 0, 83, 82
2, 33645, Note_on_c, 0, 83, 0
2, 33648, Note_on_c, 0, 83, 74
2, 33648, Note_on_c, 0, 80, 74
2, 33693, Note_on_c, 0, 83, 0
2, 33693, Note_on_c, 0, 80, 0
2, 33696, Note_on_c, 0, 83, 74
2, 33696, Note_on_c, 0, 80, 74
2, 33741, Note_on_c, 0, 83, 0
2, 33741, Note_on_c, 0, 80, 0
2, 33744, Note_on_c, 0, 81, 74
2, 33744, Note_on_c, 0, 78, 74
2, 33789, Note_on_c, 0, 81, 0
2, 33789, Note_on_c, 0, 78, 0
2, 33792, Note_on_c, 0, 80, 74
2, 33792, Note_on_c, 0, 76, 74
2, 33837, Note_on_c, 0, 80, 0
2, 33837, Note_on_c, 0, 76, 0
2, 33840, Note_on_c, 0, 80, 74
2, 33860, Note_on_c, 0, 80, 0
2, 33888, Note_on_c, 0, 80, 74
2, 33933, Note_on_c, 0, 80, 0
2, 33936, Note_on_c, 0, 78, 76
2, 33981, Note_on_c, 0, 78, 0
2, 33984, Note_on_c, 0, 76, 78
2, 34029, Note_on_c, 0, 76, 0
2, 34032, Note_on_c, 0, 80, 80
2, 34052, Note_on_c, 0, 80, 0
2, 34080, Note_on_c, 0, 78, 82
2, 34125, Note_on_c, 0, 78, 0
2, 34128, Note_on_c, 0, 76, 80
2, 34128, Note_on_c, 0, 73, 80
2, 34173, Note_on_c, 0, 76, 0
2, 34173, Note_on_c, 0, 73, 0
2, 34176, Note_on_c, 0, 75, 78
2, 34176, Note_on_c, 0, 71, 78
2, 34221, Note_on_c, 0, 75, 0
2, 34221, Note_on_c, 0, 71, 0
2, 34224, Note_on_c, 0, 73, 76
2, 34224, Note_on_c, 0, 70, 76
2, 34269, Note_on_c, 0, 73, 0
2, 34269, Note_on_c, 0, 70, 0
2, 34272, Note_on_c, 0, 73, 74
2, 34284, Note_on_c, 0, 73, 0
2, 34284, Note_on_c, 0, 71, 74
2, 34296, Note_on_c, 0, 71, 0
2, 34296, Note_on_c, 0, 70, 74
2, 34308, Note_on_c, 0, 70, 0
2, 34308, Note_on_c, 0, 71, 74
2, 34361, Note_on_c, 0, 71, 0
2, 34416, Note_on_c, 0, 83, 74
2, 34416, Note_on_c, 0, 80, 74
2, 34461, Note_on_c, 0, 83, 0
2, 34461, Note_on_c, 0, 80, 0
2, 34464, Note_on_c, 0, 83, 74
2, 34464, Note_on_c, 0, 80, 74
2, 34509, Note_on_c, 0, 83, 0
2, 34509, Note_on_c, 0, 80, 0
2, 34512, Note_on_c, 0, 81, 74
2, 34512, Note_on_c, 0, 78, 74
2, 34557, Note_on_c, 0, 81, 0
2, 34557, Note_on_c, 0, 78, 0
2, 34560, Note_on_c, 0, 80, 74
2, 34560, Note_on_c, 0, 76, 74
2, 34605, Note_on_c, 0, 80, 0
2, 34605, Note_on_c, 0, 76, 0
2, 34608, Note_on_c, 0, 80, 74
2, 34628, Note_on_c, 0, 80, 0
2, 34656, Note_on_c, 0, 80, 74
2, 34701, Note_on_c, 0, 80, 0
2, 34704, Note_on_c, 0, 78, 74
2, 34749, Note_on_c, 0, 78, 0
2, 34752, Note_on_c, 0, 76, 74
2, 34797, Note_on_c, 0, 76, 0
2, 34800, Note_on_c, 0, 88, 74
2, 34893, Note_on_c, 0, 88, 0
2, 34896, Note_on_c, 0, 85, 76
2, 34941, Note_on_c, 0, 85, 0
2, 34944, Note_on_c, 0, 80, 78
2, 34989, Note_on_c, 0, 80, 0
2, 34992, Note_on_c, 0, 82, 80
2, 35037, Note_on_c, 0, 82, 0
2, 35040, Note_on_c, 0, 82, 82
2, 35136, Note_on_c, 0, 82, 0
2, 35136, Note_on_c, 0, 83, 82
2, 35181, Note_on_c, 0, 83, 0
2, 35184, Note_on_c, 0, 83, 74
2, 35184, Note_on_c, 0, 80, 74
2, 35229, Note_on_c, 0, 83, 0
2, 35229, Note_on_c, 0, 80, 0
2, 35232, Note_on_c, 0, 83, 74
2, 35232, Note_on_c, 0, 80, 74
2, 35277, Note_on_c, 0, 83, 0
2, 35277, Note_on_c, 0, 80, 0
2, 35280, Note_on_c, 0, 81, 74
2, 35280, Note_on_c, 0, 78, 74
2, 35325, Note_on_c, 0, 81, 0
2, 35325, Note_on_c, 0, 78, 0
2, 35328, Note_on_c, 0, 80, 74
2, 35328, Note_on_c, 0, 76, 74
2, 35373, Note_on_c, 0, 80, 0
2, 35373, Note_on_c, 0, 76, 0
2, 35376, Note_on_c, 0, 80, 74
2, 35396, Note_on_c, 0, 80, 0
2, 35424, Note_on_c, 0, 80, 74
2, 35469, Note_on_c, 0, 80, 0
2, 35472, Note_on_c, 0, 78, 76
2, 35517, Note_on_c, 0, 78, 0
2, 35520, Note_on_c, 0, 76, 78
2, 35565, Note_on_c, 0, 76, 0
2, 35568, Note_on_c, 0, 80, 80
2, 35588, Note_on_c, 0, 80, 0
2, 35616, Note_on_c, 0, 78, 82
2, 35661, Note_on_c, 0, 78, 0
2, 35664, Note_on_c, 0, 76, 80
2, 35664, Note_on_c, 0, 73, 80
2, 35709, Note_on_c, 0, 76, 0
2, 35709, Note_on_c, 0, 73, 0
2, 35712, Note_on_c, 0, 75, 78
2, 35712, Note_on_c, 0, 71, 78
2, 35757, Note_on_c, 0, 75, 0
2, 35757, Note_on_c, 0, 71, 0
2, 35760, Note_on_c, 0, 73, 76
2, 35760, Note_on_c, 0, 70, 76
2, 35805, Note_on_c, 0, 73, 0
2, 35805, Note_on_c, 0, 70, 0
2, 35808, Note_on_c, 0, 73, 74
2, 35820, Note_on_c, 0, 73, 0
2, 35820, Note_on_c, 0, 71, 74
2, 35832, Note_on_c, 0, 71, 0
2, 35832, Note_on_c, 0, 70, 74
2, 35844, Note_on_c, 0, 70, 0
2, 35844, Note_on_c, 0, 71, 74
2, 35897, Note_on_c, 0, 71, 0
2, 35952, Note_on_c, 0, 78, 74
2, 35952, Note_on_c, 0, 75, 74
2, 35997, Note_on_c, 0, 78, 0
2, 35997, Note_on_c, 0, 75, 0
2, 36000, Note_on_c, 0, 78, 74
2, 36000, Note_on_c, 0, 75, 74
2, 36045, Note_on_c, 0, 78, 0
2, 36045, Note_on_c, 0, 75, 0
2, 36048, Note_on_c, 0, 76, 74
2, 36048, Note_on_c, 0, 73, 74
2, 36093, Note_on_c, 0, 76, 0
2, 36093, Note_on_c, 0, 73, 0
2, 36096, Note_on_c, 0, 75, 74
2, 36096, Note_on_c, 0, 71, 74
2, 36116, Note_on_c, 0, 75, 0
2, 36116, Note_on_c, 0, 71, 0
2, 36144, Note_on_c, 0, 81, 74
2, 36144, Note_on_c, 0, 78, 74
2, 36164, Note_on_c, 0, 81, 0
2, 36164, Note_on_c, 0, 78, 0
2, 36192, Note_on_c, 0, 81, 74
2, 36192, Note_on_c, 0, 78, 74
2, 36237, Note_on_c, 0, 81, 0
2, 36237, Note_on_c, 0, 78, 0
2, 36240, Note_on_c, 0, 80, 74
2, 36240, Note_on_c, 0, 76, 74
2, 36285, Note_on_c, 0, 80, 0
2, 36285, Note_on_c, 0, 76, 0
2, 36288, Note_on_c, 0, 78, 74
2, 36288, Note_on_c, 0, 75, 74
2, 36308, Note_on_c, 0, 78, 0
2, 36308, Note_on_c, 0, 75, 0
2, 36336, Note_on_c, 0, 85, 74
2, 36336, Note_on_c, 0, 81, 74
2, 36356, Note_on_c, 0, 85, 0
2, 36356, Note_on_c, 0, 81, 0
2, 36384, Note_on_c, 0, 85, 75
2, 36384, Note_on_c, 0, 81, 75
2, 36429, Note_on_c, 0, 85, 0
2, 36429, Note_on_c, 0, 81, 0
2, 36432, Note_on_c, 0, 83, 77
2, 36432, Note_on_c, 0, 80, 77
2, 36477, Note_on_c, 0, 83, 0
2, 36477, Note_on_c, 0, 80, 0
2, 36480, Note_on_c, 0, 81, 78
2, 36480, Note_on_c, 0, 78, 78
2, 36525, Note_on_c, 0, 81, 0
2, 36525, Note_on_c, 0, 78, 0
2, 36528, Note_on_c, 0, 80, 80
2, 36528, Note_on_c, 0, 76, 80
2, 36573, Note_on_c, 0, 80, 0
2, 36573, Note_on_c, 0, 76, 0
2, 36576, Note_on_c, 0, 78, 82
2, 36576, Note_on_c, 0, 75, 82
2, 36576, Note_on_c, 0, 71, 82
2, 36665, Note_on_c, 0, 78, 0
2, 36665, Note_on_c, 0, 75, 0
2, 36665, Note_on_c, 0, 71, 0
2, 36720, Note_on_c, 0, 76, 74
2, 36765, Note_on_c, 0, 76, 0
2, 36768, Note_on_c, 0, 76, 74
2, 36813, Note_on_c, 0, 76, 0
2, 36816, Note_on_c, 0, 78, 74
2, 36861, Note_on_c, 0, 78, 0
2, 36864, Note_on_c, 0, 80, 74
2, 36884, Note_on_c, 0, 80, 0
2, 36912, Note_on_c, 0, 78, 74
2, 36957, Note_on_c, 0, 78, 0
2, 36960, Note_on_c, 0, 78, 74
2, 37005, Note_on_c, 0, 78, 0
2, 37008, Note_on_c, 0, 80, 74
2, 37053, Note_on_c, 0, 80, 0
2, 37056, Note_on_c, 0, 81, 74
2, 37076, Note_on_c, 0, 81, 0
2, 37104, Note_on_c, 0, 80, 74
2, 37149, Note_on_c, 0, 80, 0
2, 37152, Note_on_c, 0, 83, 74
2, 37197, Note_on_c, 0, 83, 0
2, 37200, Note_on_c, 0, 81, 74
2, 37245, Note_on_c, 0, 81, 0
2, 37248, Note_on_c, 0, 80, 74
2, 37293, Note_on_c, 0, 80, 0
2, 37296, Note_on_c, 0, 78, 74
2, 37341, Note_on_c, 0, 78, 0
2, 37344, Note_on_c, 0, 76, 74
2, 37433, Note_on_c, 0, 76, 0
2, 37488, Note_on_c, 0, 78, 74
2, 37488, Note_on_c, 0, 75, 74
2, 37533, Note_on_c, 0, 78, 0
2, 37533, Note_on_c, 0, 75, 0
2, 37536, Note_on_c, 0, 78, 74
2, 37536, Note_on_c, 0, 75, 74
2, 37581, Note_on_c, 0, 78, 0
2, 37581, Note_on_c, 0, 75, 0
2, 37584, Note_on_c, 0, 76, 74
2, 37584, Note_on_c, 0, 73, 74
2, 37629, Note_on_c, 0, 76, 0
2, 37629, Note_on_c, 0, 73, 0
2, 37632, Note_on_c, 0, 75, 74
2, 37632, Note_on_c, 0, 71, 74
2, 37652, Note_on_c, 0, 75, 0
2, 37652, Note_on_c, 0, 71, 0
2, 37680, Note_on_c, 0, 81, 74
2, 37680, Note_on_c, 0, 78, 74
2, 37700, Note_on_c, 0, 81, 0
2, 37700, Note_on_c, 0, 78, 0
2, 37728, Note_on_c, 0, 81, 74
2, 37728, Note_on_c, 0, 78, 74
2, 37773, Note_on_c, 0, 81, 0
2, 37773, Note_on_c, 0, 78, 0
2, 37776, Note_on_c, 0, 80, 74
2, 37776, Note_on_c, 0, 76, 74
2, 37821, Note_on_c, 0, 80, 0
2, 37821, Note_on_c, 0, 76, 0
2, 37824, Note_on_c, 0, 78, 74
2, 37824, Note_on_c, 0, 75, 74
2, 37844, Note_on_c, 0, 78, 0
2, 37844, Note_on_c, 0, 75, 0
2, 37872, Note_on_c, 0, 85, 74
2, 37872, Note_on_c, 0, 81, 74
2, 37892, Note_on_c, 0, 85, 0
2, 37892, Note_on_c, 0, 81, 0
2, 37920, Note_on_c, 0, 85, 75
2, 37920, Note_on_c, 0, 81, 75
2, 37965, Note_on_c, 0, 85, 0
2, 37965, Note_on_c, 0, 81, 0
2, 37968, Note_on_c, 0, 83, 77
2, 37968, Note_on_c, 0, 80, 77
2, 38013, Note_on_c, 0, 83, 0
2, 38013, Note_on_c, 0, 80, 0
2, 38016, Note_on_c, 0, 81, 78
2, 38016, Note_on_c, 0, 78, 78
2, 38061, Note_on_c, 0, 81, 0
2, 38061, Note_on_c, 0, 78, 0
2, 38064, Note_on_c, 0, 80, 80
2, 38064, Note_on_c, 0, 76, 80
2, 38109, Note_on_c, 0, 80, 0
2, 38109, Note_on_c, 0, 76, 0
2, 38112, Note_on_c, 0, 78, 82
2, 38112, Note_on_c, 0, 75, 82
2, 38112, Note_on_c, 0, 71, 82
2, 38201, Note_on_c, 0, 78, 0
2, 38201, Note_on_c, 0, 75, 0
2, 38201, Note_on_c, 0, 71, 0
2, 38256, Note_on_c, 0, 76, 74
2, 38301, Note_on_c, 0, 76, 0
2, 38304, Note_on_c, 0, 76, 74
2, 38349, Note_on_c, 0, 76, 0
2, 38352, Note_on_c, 0, 78, 74
2, 38397, Note_on_c, 0, 78, 0
2, 38400, Note_on_c, 0, 80, 74
2, 38420, Note_on_c, 0, 80, 0
2, 38448, Note_on_c, 0, 78, 74
2, 38493, Note_on_c, 0, 78, 0
2, 38496, Note_on_c, 0, 78, 74
2, 38541, Note_on_c, 0, 78, 0
2, 38544, Note_on_c, 0, 80, 74
2, 38589, Note_on_c, 0, 80, 0
2, 38592, Note_on_c, 0, 81, 74
2, 38612, Note_on_c, 0, 81, 0
2, 38640, Note_on_c, 0, 80, 74
2, 38685, Note_on_c, 0, 80, 0
2, 38688, Note_on_c, 0, 83, 74
2, 38733, Note_on_c, 0, 83, 0
2, 38736, Note_on_c, 0, 81, 74
2, 38781, Note_on_c, 0, 81, 0
2, 38784, Note_on_c, 0, 80, 74
2, 38829, Note_on_c, 0, 80, 0
2, 38832, Note_on_c, 0, 78, 74
2, 38877, Note_on_c, 0, 78, 0
2, 38880, Note_on_c, 0, 76, 74
2, 38969, Note_on_c, 0, 76, 0
2, 39024, Note_on_c, 0, 71, 82
2, 39069, Note_on_c, 0, 71, 0
2, 39072, Note_on_c, 0, 76, 82
2, 39072, Note_on_c, 0, 71, 82
2, 39072, Note_on_c, 0, 67, 82
2, 39161, Note_on_c, 0, 76, 0
2, 39161, Note_on_c, 0, 71, 0
2, 39161, Note_on_c, 0, 67, 0
2, 39216, Note_on_c, 0, 71, 82
2, 39216, Note_on_c, 0, 67, 82
2, 39261, Note_on_c, 0, 71, 0
2, 39261, Note_on_c, 0, 67, 0
2, 39264, Note_on_c, 0, 72, 82
2, 39264, Note_on_c, 0, 69, 82
2, 39353, Note_on_c, 0, 72, 0
2, 39353, Note_on_c, 0, 69, 0
2, 39408, Note_on_c, 0, 71, 82
2, 39408, Note_on_c, 0, 67, 82
2, 39453, Note_on_c, 0, 71, 0
2, 39453, Note_on_c, 0, 67, 0
2, 39456, Note_on_c, 0, 69, 82
2, 39456, Note_on_c, 0, 66, 82
2, 39476, Note_on_c, 0, 69, 0
2, 39476, Note_on_c, 0, 66, 0
2, 39504, Note_on_c, 0, 69, 82
2, 39504, Note_on_c, 0, 66, 82
2, 39524, Note_on_c, 0, 69, 0
2, 39524, Note_on_c, 0, 66, 0
2, 39552, Note_on_c, 0, 67, 82
2, 39552, Note_on_c, 0, 64, 82
2, 39572, Note_on_c, 0, 67, 0
2, 39572, Note_on_c, 0, 64, 0
2, 39600, Note_on_c, 0, 67, 82
2, 39600, Note_on_c, 0, 64, 82
2, 39620, Note_on_c, 0, 67, 0
2, 39620, Note_on_c, 0, 64, 0
2, 39648, Note_on_c, 0, 66, 82
2, 39648, Note_on_c, 0, 63, 82
2, 39737, Note_on_c, 0, 66, 0
2, 39737, Note_on_c, 0, 63, 0
2, 39792, Note_on_c, 0, 74, 82
2, 39837, Note_on_c, 0, 74, 0
2, 39840, Note_on_c, 0, 79, 82
2, 39840, Note_on_c, 0, 74, 82
2, 39840, Note_on_c, 0, 71, 82
2, 39929, Note_on_c, 0, 79, 0
2, 39929, Note_on_c, 0, 74, 0
2, 39929, Note_on_c, 0, 71, 0
2, 39984, Note_on_c, 0, 74, 82
2, 39984, Note_on_c, 0, 71, 82
2, 40029, Note_on_c, 0, 74, 0
2, 40029, Note_on_c, 0, 71, 0
2, 40032, Note_on_c, 0, 76, 82
2, 40032, Note_on_c, 0, 72, 82
2, 40121, Note_on_c, 0, 76, 0
2, 40121, Note_on_c, 0, 72, 0
2, 40176, Note_on_c, 0, 76, 82
2, 40176, Note_on_c, 0, 72, 82
2, 40221, Note_on_c, 0, 76, 0
2, 40221, Note_on_c, 0, 72, 0
2, 40224, Note_on_c, 0, 74, 82
2, 40224, Note_on_c, 0, 71, 82
2, 40244, Note_on_c, 0, 74, 0
2, 40244, Note_on_c, 0, 71, 0
2, 40272, Note_on_c, 0, 72, 82
2, 40272, Note_on_c, 0, 69, 82
2, 40292, Note_on_c, 0, 72, 0
2, 40292, Note_on_c, 0, 69, 0
2, 40320, Note_on_c, 0, 71, 82
2, 40320, Note_on_c, 0, 67, 82
2, 40340, Note_on_c, 0, 71, 0
2, 40340, Note_on_c, 0, 67, 0
2, 40368, Note_on_c, 0, 69, 82
2, 40368, Note_on_c, 0, 66, 82
2, 40388, Note_on_c, 0, 69, 0
2, 40388, Note_on_c, 0, 66, 0
2, 40416, Note_on_c, 0, 67, 82
2, 40505, Note_on_c, 0, 67, 0
2, 40560, Note_on_c, 0, 71, 82
2, 40605, Note_on_c, 0, 71, 0
2, 40608, Note_on_c, 0, 76, 82
2, 40608, Note_on_c, 0, 71, 82
2, 40608, Note_on_c, 0, 67, 82
2, 40697, Note_on_c, 0, 76, 0
2, 40697, Note_on_c, 0, 71, 0
2, 40697, Note_on_c, 0, 67, 0
2, 40752, Note_on_c, 0, 71, 82
2, 40752, Note_on_c, 0, 67, 82
2, 40797, Note_on_c, 0, 71, 0
2, 40797, Note_on_c, 0, 67, 0
2, 40800, Note_on_c, 0, 72, 82
2, 40800, Note_on_c, 0, 69, 82
2, 40889, Note_on_c, 0, 72, 0
2, 40889, Note_on_c, 0, 69, 0
2, 40944, Note_on_c, 0, 71, 82
2, 40944, Note_on_c, 0, 67, 82
2, 40989, Note_on_c, 0, 71, 0
2, 40989, Note_on_c, 0, 67, 0
2, 40992, Note_on_c, 0, 69, 82
2, 40992, Note_on_c, 0, 66, 82
2, 41012, Note_on_c, 0, 69, 0
2, 41012, Note_on_c, 0, 66, 0
2, 41040, Note_on_c, 0, 69, 82
2, 41040, Note_on_c, 0, 66, 82
2, 41060, Note_on_c, 0, 69, 0
2, 41060, Note_on_c, 0, 66, 0
2, 41088, Note_on_c, 0, 67, 82
2, 41088, Note_on_c, 0, 64, 82
2, 41108, Note_on_c, 0, 67, 0
2, 41108, Note_on_c, 0, 64, 0
2, 41136, Note_on_c, 0, 67, 82
2, 41136, Note_on_c, 0, 64, 82
2, 41156, Note_on_c, 0, 67, 0
2, 41156, Note_on_c, 0, 64, 0
2, 41184, Note_on_c, 0, 66, 82
2, 41184, Note_on_c, 0, 63, 82
2, 41273, Note_on_c, 0, 66, 0
2, 41273, Note_on_c, 0, 63, 0
2, 41328, Note_on_c, 0, 74, 82
2, 41373, Note_on_c, 0, 74, 0
2, 41376, Note_on_c, 0, 79, 82
2, 41376, Note_on_c, 0, 74, 82
2, 41376, Note_on_c, 0, 71, 82
2, 41465, Note_on_c, 0, 79, 0
2, 41465, Note_on_c, 0, 74, 0
2, 41465, Note_on_c, 0, 71, 0
2, 41520, Note_on_c, 0, 74, 82
2, 41520, Note_on_c, 0, 71, 82
2, 41565, Note_on_c, 0, 74, 0
2, 41565, Note_on_c, 0, 71, 0
2, 41568, Note_on_c, 0, 76, 82
2, 41568, Note_on_c, 0, 72, 82
2, 41657, Note_on_c, 0, 76, 0
2, 41657, Note_on_c, 0, 72, 0
2, 41712, Note_on_c, 0, 76, 82
2, 41712, Note_on_c, 0, 72, 82
2, 41757, Note_on_c, 0, 76, 0
2, 41757, Note_on_c, 0, 72, 0
2, 41760, Note_on_c, 0, 74, 82
2, 41760, Note_on_c, 0, 71, 82
2, 41780, Note_on_c, 0, 74, 0
2, 41780, Note_on_c, 0, 71, 0
2, 41808, Note_on_c, 0, 72, 82
2, 41808, Note_on_c, 0, 69, 82
2, 41828, Note_on_c, 0, 72, 0
2, 41828, Note_on_c, 0, 69, 0
2, 41856, Note_on_c, 0, 71, 82
2, 41856, Note_on_c, 0, 67, 82
2, 41876, Note_on_c, 0, 71, 0
2, 41876, Note_on_c, 0, 67, 0
2, 41904, Note_on_c, 0, 69, 82
2, 41904, Note_on_c, 0, 66, 82
2, 41924, Note_on_c, 0, 69, 0
2, 41924, Note_on_c, 0, 66, 0
2, 41952, Note_on_c, 0, 67, 82
2, 42041, Note_on_c, 0, 67, 0
2, 42096, Note_on_c, 0, 71, 82
2, 42141, Note_on_c, 0, 71, 0
2, 42144, Note_on_c, 0, 83, 82
2, 42167, Note_on_c, 0, 83, 0
2, 42168, Note_on_c, 0, 71, 82
2, 42191, Note_on_c, 0, 71, 0
2, 42192, Note_on_c, 0, 70, 82
2, 42215, Note_on_c, 0, 70, 0
2, 42216, Note_on_c, 0, 71, 82
2, 42239, Note_on_c, 0, 71, 0
2, 42240, Note_on_c, 0, 83, 82
2, 42263, Note_on_c, 0, 83, 0
2, 42264, Note_on_c, 0, 71, 82
2, 42287, Note_on_c, 0, 71, 0
2, 42288, Note_on_c, 0, 83, 82
2, 42311, Note_on_c, 0, 83, 0
2, 42312, Note_on_c, 0, 71, 82
2, 42335, Note_on_c, 0, 71, 0
2, 42336, Note_on_c, 0, 83, 82
2, 42359, Note_on_c, 0, 83, 0
2, 42360, Note_on_c, 0, 71, 82
2, 42383, Note_on_c, 0, 71, 0
2, 42384, Note_on_c, 0, 70, 82
2, 42407, Note_on_c, 0, 70, 0
2, 42408, Note_on_c, 0, 71, 82
2, 42431, Note_on_c, 0, 71, 0
2, 42432, Note_on_c, 0, 83, 82
2, 42455, Note_on_c, 0, 83, 0
2, 42456, Note_on_c, 0, 71, 82
2, 42479, Note_on_c, 0, 71, 0
2, 42480, Note_on_c, 0, 83, 82
2, 42503, Note_on_c, 0, 83, 0
2, 42504, Note_on_c, 0, 71, 82
2, 42527, Note_on_c, 0, 71, 0
2, 42528, Note_on_c, 0, 83, 82
2, 42551, Note_on_c, 0, 83, 0
2, 42552, Note_on_c, 0, 71, 82
2, 42575, Note_on_c, 0, 71, 0
2, 42576, Note_on_c, 0, 70, 82
2, 42599, Note_on_c, 0, 70, 0
2, 42600, Note_on_c, 0, 71, 82
2, 42623, Note_on_c, 0, 71, 0
2, 42624, Note_on_c, 0, 83, 82
2, 42647, Note_on_c, 0, 83, 0
2, 42648, Note_on_c, 0, 71, 82
2, 42671, Note_on_c, 0, 71, 0
2, 42672, Note_on_c, 0, 83, 82
2, 42695, Note_on_c, 0, 83, 0
2, 42696, Note_on_c, 0, 71, 82
2, 42719, Note_on_c, 0, 71, 0
2, 42720, Note_on_c, 0, 83, 82
2, 42743, Note_on_c, 0, 83, 0
2, 42744, Note_on_c, 0, 71, 82
2, 42767, Note_on_c, 0, 71, 0
2, 42768, Note_on_c, 0, 70, 82
2, 42791, Note_on_c, 0, 70, 0
2, 42792, Note_on_c, 0, 71, 82
2, 42815, Note_on_c, 0, 71, 0
2, 42816, Note_on_c, 0, 83, 82
2, 42839, Note_on_c, 0, 83, 0
2, 42840, Note_on_c, 0, 71, 82
2, 42863, Note_on_c, 0, 71, 0
2, 42864, Note_on_c, 0, 83, 82
2, 42887, Note_on_c, 0, 83, 0
2, 42888, Note_on_c, 0, 71, 82
2, 42911, Note_on_c, 0, 71, 0
2, 42912, Note_on_c, 0, 84, 82
2, 42935, Note_on_c, 0, 84, 0
2, 42936, Note_on_c, 0, 72, 82
2, 42959, Note_on_c, 0, 72, 0
2, 42960, Note_on_c, 0, 84, 82
2, 42983, Note_on_c, 0, 84, 0
2, 42984, Note_on_c, 0, 72, 82
2, 43007, Note_on_c, 0, 72, 0
2, 43008, Note_on_c, 0, 87, 82
2, 43031, Note_on_c, 0, 87, 0
2, 43032, Note_on_c, 0, 75, 82
2, 43055, Note_on_c, 0, 75, 0
2, 43056, Note_on_c, 0, 87, 82
2, 43079, Note_on_c, 0, 87, 0
2, 43080, Note_on_c, 0, 75, 82
2, 43103, Note_on_c, 0, 75, 0
2, 43104, Note_on_c, 0, 88, 82
2, 43127, Note_on_c, 0, 88, 0
2, 43128, Note_on_c, 0, 76, 82
2, 43151, Note_on_c, 0, 76, 0
2, 43152, Note_on_c, 0, 75, 82
2, 43175, Note_on_c, 0, 75, 0
2, 43176, Note_on_c, 0, 76, 82
2, 43199, Note_on_c, 0, 76, 0
2, 43200, Note_on_c, 0, 88, 82
2, 43223, Note_on_c, 0, 88, 0
2, 43224, Note_on_c, 0, 76, 82
2, 43247, Note_on_c, 0, 76, 0
2, 43248, Note_on_c, 0, 88, 82
2, 43271, Note_on_c, 0, 88, 0
2, 43272, Note_on_c, 0, 76, 82
2, 43295, Note_on_c, 0, 76, 0
2, 43296, Note_on_c, 0, 84, 82
2, 43319, Note_on_c, 0, 84, 0
2, 43320, Note_on_c, 0, 72, 82
2, 43343, Note_on_c, 0, 72, 0
2, 43344, Note_on_c, 0, 84, 82
2, 43367, Note_on_c, 0, 84, 0
2, 43368, Note_on_c, 0, 72, 82
2, 43391, Note_on_c, 0, 72, 0
2, 43392, Note_on_c, 0, 75, 82
2, 43415, Note_on_c, 0, 75, 0
2, 43416, Note_on_c, 0, 71, 82
2, 43439, Note_on_c, 0, 71, 0
2, 43440, Note_on_c, 0, 75, 82
2, 43463, Note_on_c, 0, 75, 0
2, 43464, Note_on_c, 0, 71, 82
2, 43487, Note_on_c, 0, 71, 0
2, 43488, Note_on_c, 0, 76, 82
2, 43577, Note_on_c, 0, 76, 0
2, 43632, Note_on_c, 0, 71, 74
2, 43677, Note_on_c, 0, 71, 0
2, 43680, Note_on_c, 0, 83, 82
2, 43703, Note_on_c, 0, 83, 0
2, 43704, Note_on_c, 0, 71, 82
2, 43727, Note_on_c, 0, 71, 0
2, 43728, Note_on_c, 0, 70, 82
2, 43751, Note_on_c, 0, 70, 0
2, 43752, Note_on_c, 0, 71, 82
2, 43775, Note_on_c, 0, 71, 0
2, 43776, Note_on_c, 0, 83, 82
2, 43799, Note_on_c, 0, 83, 0
2, 43800, Note_on_c, 0, 71, 82
2, 43823, Note_on_c, 0, 71, 0
2, 43824, Note_on_c, 0, 83, 82
2, 43847, Note_on_c, 0, 83, 0
2, 43848, Note_on_c, 0, 71, 82
2, 43871, Note_on_c, 0, 71, 0
2, 43872, Note_on_c, 0, 83, 82
2, 43895, Note_on_c, 0, 83, 0
2, 43896, Note_on_c, 0, 71, 82
2, 43919, Note_on_c, 0, 71, 0
2, 43920, Note_on_c, 0, 70, 82
2, 43943, Note_on_c, 0, 70, 0
2, 43944, Note_on_c, 0, 71, 82
2, 43967, Note_on_c, 0, 71, 0
2, 43968, Note_on_c, 0, 83, 82
2, 43991, Note_on_c, 0, 83, 0
2, 43992, Note_on_c, 0, 71, 82
2, 44015, Note_on_c, 0, 71, 0
2, 44016, Note_on_c, 0, 83, 82
2, 44039, Note_on_c, 0, 83, 0
2, 44040, Note_on_c, 0, 71, 82
2, 44063, Note_on_c, 0, 71, 0
2, 44064, Note_on_c, 0, 83, 82
2, 44087, Note_on_c, 0, 83, 0
2, 44088, Note_on_c, 0, 71, 82
2, 44111, Note_on_c, 0, 71, 0
2, 44112, Note_on_c, 0, 70, 82
2, 44135, Note_on_c, 0, 70, 0
2, 44136, Note_on_c, 0, 71, 82
2, 44159, Note_on_c, 0, 71, 0
2, 44160, Note_on_c, 0, 83, 82
2, 44183, Note_on_c, 0, 83, 0
2, 44184, Note_on_c, 0, 71, 82
2, 44207, Note_on_c, 0, 71, 0
2, 44208, Note_on_c, 0, 83, 82
2, 44231, Note_on_c, 0, 83, 0
2, 44232, Note_on_c, 0, 71, 82
2, 44255, Note_on_c, 0, 71, 0
2, 44256, Note_on_c, 0, 83, 82
2, 44279, Note_on_c, 0, 83, 0
2, 44280, Note_on_c, 0, 71, 82
2, 44303, Note_on_c, 0, 71, 0
2, 44304, Note_on_c, 0, 70, 82
2, 44327, Note_on_c, 0, 70, 0
2, 44328, Note_on_c, 0, 71, 82
2, 44351, Note_on_c, 0, 71, 0
2, 44352, Note_on_c, 0, 83, 82
2, 44375, Note_on_c, 0, 83, 0
2, 44376, Note_on_c, 0, 71, 82
2, 44399, Note_on_c, 0, 71, 0
2, 44400, Note_on_c, 0, 83, 82
2, 44423, Note_on_c, 0, 83, 0
2, 44424, Note_on_c, 0, 71, 82
2, 44447, Note_on_c, 0, 71, 0
2, 44448, Note_on_c, 0, 84, 82
2, 44471, Note_on_c, 0, 84, 0
2, 44472, Note_on_c, 0, 72, 82
2, 44495, Note_on_c, 0, 72, 0
2, 44496, Note_on_c, 0, 84, 82
2, 44519, Note_on_c, 0, 84, 0
2, 44520, Note_on_c, 0, 72, 82
2, 44543, Note_on_c, 0, 72, 0
2, 44544, Note_on_c, 0, 87, 82
2, 44567, Note_on_c, 0, 87, 0
2, 44568, Note_on_c, 0, 75, 82
2, 44591, Note_on_c, 0, 75, 0
2, 44592, Note_on_c, 0, 87, 82
2, 44615, Note_on_c, 0, 87, 0
2, 44616, Note_on_c, 0, 75, 82
2, 44639, Note_on_c, 0, 75, 0
2, 44640, Note_on_c, 0, 88, 82
2, 44663, Note_on_c, 0, 88, 0
2, 44664, Note_on_c, 0, 76, 82
2, 44687, Note_on_c, 0, 76, 0
2, 44688, Note_on_c, 0, 75, 82
2, 44711, Note_on_c, 0, 75, 0
2, 44712, Note_on_c, 0, 76, 82
2, 44735, Note_on_c, 0, 76, 0
2, 44736, Note_on_c, 0, 88, 82
2, 44759, Note_on_c, 0, 88, 0
2, 44760, Note_on_c, 0, 76, 82
2, 44783, Note_on_c, 0, 76, 0
2, 44784, Note_on_c, 0, 88, 82
2, 44807, Note_on_c, 0, 88, 0
2, 44808, Note_on_c, 0, 76, 82
2, 44831, Note_on_c, 0, 76, 0
2, 44832, Note_on_c, 0, 84, 82
2, 44855, Note_on_c, 0, 84, 0
2, 44856, Note_on_c, 0, 72, 82
2, 44879, Note_on_c, 0, 72, 0
2, 44880, Note_on_c, 0, 84, 82
2, 44903, Note_on_c, 0, 84, 0
2, 44904, Note_on_c, 0, 72, 82
2, 44927, Note_on_c, 0, 72, 0
2, 44928, Note_on_c, 0, 75, 82
2, 44951, Note_on_c, 0, 75, 0
2, 44952, Note_on_c, 0, 71, 82
2, 44975, Note_on_c, 0, 71, 0
2, 44976, Note_on_c, 0, 75, 82
2, 44999, Note_on_c, 0, 75, 0
2, 45000, Note_on_c, 0, 71, 82
2, 45023, Note_on_c, 0, 71, 0
2, 45024, Note_on_c, 0, 76, 82
2, 45113, Note_on_c, 0, 76, 0
2, 45168, Note_on_c, 0, 71, 74
2, 45213, Note_on_c, 0, 71, 0
2, 45216, Note_on_c, 0, 71, 74
2, 45228, Note_on_c, 0, 71, 0
2, 45228, Note_on_c, 0, 73, 74
2, 45240, Note_on_c, 0, 73, 0
2, 45240, Note_on_c, 0, 71, 74
2, 45261, Note_on_c, 0, 71, 0
2, 45264, Note_on_c, 0, 69, 74
2, 45309, Note_on_c, 0, 69, 0
2, 45312, Note_on_c, 0, 68, 74
2, 45332, Note_on_c, 0, 68, 0
2, 45360, Note_on_c, 0, 68, 74
2, 45380, Note_on_c, 0, 68, 0
2, 45408, Note_on_c, 0, 68, 74
2, 45420, Note_on_c, 0, 68, 0
2, 45420, Note_on_c, 0, 69, 74
2, 45432, Note_on_c, 0, 69, 0
2, 45432, Note_on_c, 0, 68, 74
2, 45453, Note_on_c, 0, 68, 0
2, 45456, Note_on_c, 0, 66, 74
2, 45501, Note_on_c, 0, 66, 0
2, 45504, Note_on_c, 0, 64, 74
2, 45524, Note_on_c, 0, 64, 0
2, 45552, Note_on_c, 0, 64, 74
2, 45572, Note_on_c, 0, 64, 0
2, 45600, Note_on_c, 0, 66, 74
2, 45612, Note_on_c, 0, 66, 0
2, 45612, Note_on_c, 0, 68, 74
2, 45624, Note_on_c, 0, 68, 0
2, 45624, Note_on_c, 0, 66, 74
2, 45645, Note_on_c, 0, 66, 0
2, 45648, Note_on_c, 0, 64, 76
2, 45693, Note_on_c, 0, 64, 0
2, 45696, Note_on_c, 0, 66, 78
2, 45708, Note_on_c, 0, 66, 0
2, 45708, Note_on_c, 0, 68, 78
2, 45720, Note_on_c, 0, 68, 0
2, 45720, Note_on_c, 0, 66, 78
2, 45741, Note_on_c, 0, 66, 0
2, 45744, Note_on_c, 0, 64, 80
2, 45789, Note_on_c, 0, 64, 0
2, 45792, Note_on_c, 0, 59, 82
2, 45881, Note_on_c, 0, 59, 0
2, 45936, Note_on_c, 0, 71, 74
2, 45981, Note_on_c, 0, 71, 0
2, 45984, Note_on_c, 0, 71, 74
2, 45996, Note_on_c, 0, 71, 0
2, 45996, Note_on_c, 0, 73, 74
2, 46008, Note_on_c, 0, 73, 0
2, 46008, Note_on_c, 0, 71, 74
2, 46029, Note_on_c, 0, 71, 0
2, 46032, Note_on_c, 0, 69, 74
2, 46077, Note_on_c, 0, 69, 0
2, 46080, Note_on_c, 0, 68, 74
2, 46100, Note_on_c, 0, 68, 0
2, 46128, Note_on_c, 0, 68, 74
2, 46148, Note_on_c, 0, 68, 0
2, 46176, Note_on_c, 0, 68, 74
2, 46188, Note_on_c, 0, 68, 0
2, 46188, Note_on_c, 0, 69, 74
2, 46200, Note_on_c, 0, 69, 0
2, 46200, Note_on_c, 0, 68, 74
2, 46221, Note_on_c, 0, 68, 0
2, 46224, Note_on_c, 0, 66, 74
2, 46269, Note_on_c, 0, 66, 0
2, 46272, Note_on_c, 0, 64, 74
2, 46317, Note_on_c, 0, 64, 0
2, 46320, Note_on_c, 0, 73, 74
2, 46365, Note_on_c, 0, 73, 0
2, 46368, Note_on_c, 0, 73, 74
2, 46380, Note_on_c, 0, 73, 0
2, 46380, Note_on_c, 0, 75, 74
2, 46392, Note_on_c, 0, 75, 0
2, 46392, Note_on_c, 0, 73, 74
2, 46413, Note_on_c, 0, 73, 0
2, 46416, Note_on_c, 0, 72, 76
2, 46461, Note_on_c, 0, 72, 0
2, 46464, Note_on_c, 0, 73, 78
2, 46509, Note_on_c, 0, 73, 0
2, 46512, Note_on_c, 0, 75, 80
2, 46557, Note_on_c, 0, 75, 0
2, 46560, Note_on_c, 0, 68, 82
2, 46654, Note_on_c, 0, 68, 0
2, 46704, Note_on_c, 0, 71, 74
2, 46749, Note_on_c, 0, 71, 0
2, 46752, Note_on_c, 0, 73, 74
2, 46775, Note_on_c, 0, 73, 0
2, 46776, Note_on_c, 0, 71, 74
2, 46799, Note_on_c, 0, 71, 0
2, 46800, Note_on_c, 0, 76, 74
2, 46823, Note_on_c, 0, 76, 0
2, 46824, Note_on_c, 0, 75, 74
2, 46847, Note_on_c, 0, 75, 0
2, 46848, Note_on_c, 0, 73, 74
2, 46871, Note_on_c, 0, 73, 0
2, 46872, Note_on_c, 0, 71, 74
2, 46895, Note_on_c, 0, 71, 0
2, 46896, Note_on_c, 0, 69, 74
2, 46919, Note_on_c, 0, 69, 0
2, 46920, Note_on_c, 0, 68, 74
2, 46943, Note_on_c, 0, 68, 0
2, 46944, Note_on_c, 0, 69, 74
2, 46967, Note_on_c, 0, 69, 0
2, 46968, Note_on_c, 0, 68, 74
2, 46991, Note_on_c, 0, 68, 0
2, 46992, Note_on_c, 0, 73, 74
2, 47015, Note_on_c, 0, 73, 0
2, 47016, Note_on_c, 0, 71, 74
2, 47039, Note_on_c, 0, 71, 0
2, 47040, Note_on_c, 0, 69, 74
2, 47063, Note_on_c, 0, 69, 0
2, 47064, Note_on_c, 0, 68, 74
2, 47087, Note_on_c, 0, 68, 0
2, 47088, Note_on_c, 0, 66, 74
2, 47111, Note_on_c, 0, 66, 0
2, 47112, Note_on_c, 0, 64, 74
2, 47135, Note_on_c, 0, 64, 0
2, 47136, Note_on_c, 0, 68, 74
2, 47159, Note_on_c, 0, 68, 0
2, 47160, Note_on_c, 0, 66, 75
2, 47183, Note_on_c, 0, 66, 0
2, 47184, Note_on_c, 0, 69, 76
2, 47207, Note_on_c, 0, 69, 0
2, 47208, Note_on_c, 0, 68, 77
2, 47231, Note_on_c, 0, 68, 0
2, 47232, Note_on_c, 0, 66, 78
2, 47255, Note_on_c, 0, 66, 0
2, 47256, Note_on_c, 0, 64, 79
2, 47279, Note_on_c, 0, 64, 0
2, 47280, Note_on_c, 0, 63, 80
2, 47303, Note_on_c, 0, 63, 0
2, 47304, Note_on_c, 0, 61, 81
2, 47327, Note_on_c, 0, 61, 0
2, 47328, Note_on_c, 0, 59, 82
2, 47417, Note_on_c, 0, 59, 0
2, 47472, Note_on_c, 0, 71, 74
2, 47517, Note_on_c, 0, 71, 0
2, 47520, Note_on_c, 0, 73, 74
2, 47543, Note_on_c, 0, 73, 0
2, 47544, Note_on_c, 0, 71, 74
2, 47567, Note_on_c, 0, 71, 0
2, 47568, Note_on_c, 0, 76, 74
2, 47591, Note_on_c, 0, 76, 0
2, 47592, Note_on_c, 0, 75, 74
2, 47615, Note_on_c, 0, 75, 0
2, 47616, Note_on_c, 0, 73, 74
2, 47639, Note_on_c, 0, 73, 0
2, 47640, Note_on_c, 0, 71, 74
2, 47663, Note_on_c, 0, 71, 0
2, 47664, Note_on_c, 0, 69, 74
2, 47687, Note_on_c, 0, 69, 0
2, 47688, Note_on_c, 0, 68, 74
2, 47711, Note_on_c, 0, 68, 0
2, 47712, Note_on_c, 0, 69, 74
2, 47735, Note_on_c, 0, 69, 0
2, 47736, Note_on_c, 0, 68, 74
2, 47759, Note_on_c, 0, 68, 0
2, 47760, Note_on_c, 0, 73, 74
2, 47783, Note_on_c, 0, 73, 0
2, 47784, Note_on_c, 0, 71, 74
2, 47807, Note_on_c, 0, 71, 0
2, 47808, Note_on_c, 0, 69, 74
2, 47831, Note_on_c, 0, 69, 0
2, 47832, Note_on_c, 0, 68, 74
2, 47855, Note_on_c, 0, 68, 0
2, 47856, Note_on_c, 0, 66, 74
2, 47879, Note_on_c, 0, 66, 0
2, 47880, Note_on_c, 0, 64, 74
2, 47903, Note_on_c, 0, 64, 0
2, 47904, Note_on_c, 0, 68, 74
2, 47927, Note_on_c, 0, 68, 0
2, 47928, Note_on_c, 0, 66, 75
2, 47951, Note_on_c, 0, 66, 0
2, 47952, Note_on_c, 0, 69, 76
2, 47975, Note_on_c, 0, 69, 0
2, 47976, Note_on_c, 0, 68, 77
2, 47999, Note_on_c, 0, 68, 0
2, 48000, Note_on_c, 0, 66, 78
2, 48023, Note_on_c, 0, 66, 0
2, 48024, Note_on_c, 0, 64, 79
2, 48047, Note_on_c, 0, 64, 0
2, 48048, Note_on_c, 0, 63, 80
2, 48071, Note_on_c, 0, 63, 0
2, 48072, Note_on_c, 0, 61, 81
2, 48095, Note_on_c, 0, 61, 0
2, 48096, Note_on_c, 0, 56, 82
2, 48185, Note_on_c, 0, 56, 0
2, 48240, Note_on_c, 0, 71, 74
2, 48285, Note_on_c, 0, 71, 0
2, 48288, Note_on_c, 0, 70, 74
2, 48311, Note_on_c, 0, 70, 0
2, 48312, Note_on_c, 0, 71, 74
2, 48335, Note_on_c, 0, 71, 0
2, 48336, Note_on_c, 0, 73, 74
2, 48359, Note_on_c, 0, 73, 0
2, 48360, Note_on_c, 0, 71, 74
2, 48383, Note_on_c, 0, 71, 0
2, 48384, Note_on_c, 0, 75, 74
2, 48429, Note_on_c, 0, 75, 0
2, 48432, Note_on_c, 0, 71, 74
2, 48477, Note_on_c, 0, 71, 0
2, 48480, Note_on_c, 0, 70, 74
2, 48525, Note_on_c, 0, 70, 0
2, 48528, Note_on_c, 0, 87, 82
2, 48528, Note_on_c, 0, 75, 82
2, 48573, Note_on_c, 0, 87, 0
2, 48573, Note_on_c, 0, 75, 0
2, 48576, Note_on_c, 0, 87, 82
2, 48576, Note_on_c, 0, 75, 82
2, 48665, Note_on_c, 0, 87, 0
2, 48665, Note_on_c, 0, 75, 0
2, 48672, Note_on_c, 0, 66, 82
2, 48695, Note_on_c, 0, 66, 0
2, 48696, Note_on_c, 0, 68, 82
2, 48719, Note_on_c, 0, 68, 0
2, 48720, Note_on_c, 0, 69, 82
2, 48743, Note_on_c, 0, 69, 0
2, 48744, Note_on_c, 0, 68, 82
2, 48767, Note_on_c, 0, 68, 0
2, 48768, Note_on_c, 0, 71, 82
2, 48813, Note_on_c, 0, 71, 0
2, 48816, Note_on_c, 0, 68, 82
2, 48861, Note_on_c, 0, 68, 0
2, 48864, Note_on_c, 0, 66, 82
2, 48909, Note_on_c, 0, 66, 0
2, 48912, Note_on_c, 0, 83, 82
2, 48912, Note_on_c, 0, 71, 82
2, 48957, Note_on_c, 0, 83, 0
2, 48957, Note_on_c, 0, 71, 0
2, 48960, Note_on_c, 0, 83, 82
2, 48960, Note_on_c, 0, 71, 82
2, 49049, Note_on_c, 0, 83, 0
2, 49049, Note_on_c, 0, 71, 0
2, 49056, Note_on_c, 0, 81, 82
2, 49056, Note_on_c, 0, 69, 82
2, 49101, Note_on_c, 0, 81, 0
2, 49101, Note_on_c, 0, 69, 0
2, 49104, Note_on_c, 0, 81, 82
2, 49104, Note_on_c, 0, 69, 82
2, 49149, Note_on_c, 0, 81, 0
2, 49149, Note_on_c, 0, 69, 0
2, 49152, Note_on_c, 0, 81, 82
2, 49152, Note_on_c, 0, 69, 82
2, 49197, Note_on_c, 0, 81, 0
2, 49197, Note_on_c, 0, 69, 0
2, 49200, Note_on_c, 0, 85, 82
2, 49200, Note_on_c, 0, 73, 82
2, 49245, Note_on_c, 0, 85, 0
2, 49245, Note_on_c, 0, 73, 0
2, 49248, Note_on_c, 0, 81, 82
2, 49248, Note_on_c, 0, 69, 82
2, 49337, Note_on_c, 0, 81, 0
2, 49337, Note_on_c, 0, 69, 0
2, 49344, Note_on_c, 0, 80, 82
2, 49344, Note_on_c, 0, 68, 82
2, 49433, Note_on_c, 0, 80, 0
2, 49433, Note_on_c, 0, 68, 0
2, 49440, Note_on_c, 0, 78, 82
2, 49440, Note_on_c, 0, 66, 82
2, 49529, Note_on_c, 0, 78, 0
2, 49529, Note_on_c, 0, 66, 0
2, 49536, Note_on_c, 0, 75, 82
2, 49536, Note_on_c, 0, 63, 82
2, 49625, Note_on_c, 0, 75, 0
2, 49625, Note_on_c, 0, 63, 0
2, 49632, Note_on_c, 0, 76, 82
2, 49632, Note_on_c, 0, 64, 82
2, 49721, Note_on_c, 0, 76, 0
2, 49721, Note_on_c, 0, 64, 0
2, 49776, Note_on_c, 0, 71, 74
2, 49821, Note_on_c, 0, 71, 0
2, 49824, Note_on_c, 0, 70, 74
2, 49847, Note_on_c, 0, 70, 0
2, 49848, Note_on_c, 0, 71, 74
2, 49871, Note_on_c, 0, 71, 0
2, 49872, Note_on_c, 0, 73, 74
2, 49895, Note_on_c, 0, 73, 0
2, 49896, Note_on_c, 0, 71, 74
2, 49919, Note_on_c, 0, 71, 0
2, 49920, Note_on_c, 0, 75, 74
2, 49965, Note_on_c, 0, 75, 0
2, 49968, Note_on_c, 0, 71, 74
2, 50013, Note_on_c, 0, 71, 0
2, 50016, Note_on_c, 0, 70, 74
2, 50061, Note_on_c, 0, 70, 0
2, 50064, Note_on_c, 0, 87, 82
2, 50064, Note_on_c, 0, 75, 82
2, 50109, Note_on_c, 0, 87, 0
2, 50109, Note_on_c, 0, 75, 0
2, 50112, Note_on_c, 0, 87, 82
2, 50112, Note_on_c, 0, 75, 82
2, 50201, Note_on_c, 0, 87, 0
2, 50201, Note_on_c, 0, 75, 0
2, 50208, Note_on_c, 0, 66, 74
2, 50231, Note_on_c, 0, 66, 0
2, 50232, Note_on_c, 0, 68, 74
2, 50255, Note_on_c, 0, 68, 0
2, 50256, Note_on_c, 0, 69, 74
2, 50279, Note_on_c, 0, 69, 0
2, 50280, Note_on_c, 0, 68, 74
2, 50303, Note_on_c, 0, 68, 0
2, 50304, Note_on_c, 0, 71, 74
2, 50349, Note_on_c, 0, 71, 0
2, 50352, Note_on_c, 0, 68, 74
2, 50397, Note_on_c, 0, 68, 0
2, 50400, Note_on_c, 0, 66, 74
2, 50445, Note_on_c, 0, 66, 0
2, 50448, Note_on_c, 0, 83, 82
2, 50448, Note_on_c, 0, 71, 82
2, 50493, Note_on_c, 0, 83, 0
2, 50493, Note_on_c, 0, 71, 0
2, 50496, Note_on_c, 0, 83, 82
2, 50496, Note_on_c, 0, 71, 82
2, 50585, Note_on_c, 0, 83, 0
2, 50585, Note_on_c, 0, 71, 0
2, 50592, Note_on_c, 0, 81, 82
2, 50592, Note_on_c, 0, 69, 82
2, 50637, Note_on_c, 0, 81, 0
2, 50637, Note_on_c, 0, 69, 0
2, 50640, Note_on_c, 0, 81, 82
2, 50640, Note_on_c, 0, 69, 82
2, 50685, Note_on_c, 0, 81, 0
2, 50685, Note_on_c, 0, 69, 0
2, 50688, Note_on_c, 0, 81, 82
2, 50688, Note_on_c, 0, 69, 82
2, 50733, Note_on_c, 0, 81, 0
2, 50733, Note_on_c, 0, 69, 0
2, 50736, Note_on_c, 0, 85, 82
2, 50736, Note_on_c, 0, 73, 82
2, 50781, Note_on_c, 0, 85, 0
2, 50781, Note_on_c, 0, 73, 0
2, 50784, Note_on_c, 0, 81, 82
2, 50784, Note_on_c, 0, 69, 82
2, 50873, Note_on_c, 0, 81, 0
2, 50873, Note_on_c, 0, 69, 0
2, 50880, Note_on_c, 0, 80, 82
2, 50880, Note_on_c, 0, 68, 82
2, 50969, Note_on_c, 0, 80, 0
2, 50969, Note_on_c, 0, 68, 0
2, 50976, Note_on_c, 0, 78, 82
2, 50976, Note_on_c, 0, 66, 82
2, 51065, Note_on_c, 0, 78, 0
2, 51065, Note_on_c, 0, 66, 0
2, 51072, Note_on_c, 0, 75, 82
2, 51072, Note_on_c, 0, 63, 82
2, 51161, Note_on_c, 0, 75, 0
2, 51161, Note_on_c, 0, 63, 0
2, 51168, Note_on_c, 0, 76, 82
2, 51168, Note_on_c, 0, 64, 82
2, 51257, Note_on_c, 0, 76, 0
2, 51257, Note_on_c, 0, 64, 0
2, 51312, Note_on_c, 0, 81, 82
2, 51360, Note_on_c, 0, 81, 0
2, 51360, Note_on_c, 0, 80, 82
2, 51449, Note_on_c, 0, 80, 0
2, 51504, Note_on_c, 0, 75, 82
2, 51552, Note_on_c, 0, 75, 0
2, 51552, Note_on_c, 0, 76, 82
2, 51591, Note_on_c, 0, 76, 0
2, 51696, Note_on_c, 0, 69, 82
2, 51744, Note_on_c, 0, 69, 0
2, 51744, Note_on_c, 0, 68, 82
2, 51783, Note_on_c, 0, 68, 0
2, 51888, Note_on_c, 0, 63, 82
2, 51936, Note_on_c, 0, 63, 0
2, 51936, Note_on_c, 0, 64, 82
2, 52025, Note_on_c, 0, 64, 0
2, 52032, Note_on_c, 0, 76, 82
2, 52032, Note_on_c, 0, 71, 82
2, 52032, Note_on_c, 0, 68, 82
2, 52032, Note_on_c, 0, 64, 82
2, 52121, Note_on_c, 0, 76, 0
2, 52121, Note_on_c, 0, 71, 0
2, 52121, Note_on_c, 0, 68, 0
2, 52121, Note_on_c, 0, 64, 0
2, 52128, Note_on_c, 0, 76, 82
2, 52128, Note_on_c, 0, 71, 82
2, 52128, Note_on_c, 0, 68, 82
2, 52128, Note_on_c, 0, 64, 82
2, 52261, Note_on_c, 0, 76, 0
2, 52261, Note_on_c, 0, 71, 0
2, 52261, Note_on_c, 0, 68, 0
2, 52261, Note_on_c, 0, 64, 0
2, 52320, End_track
3, 0, Start_track
3, 0, Program_c, 0, 0
3, 0, Control_c, 0, 7, 127
3, 0, Control_c, 0, 10, 64
3, 288, Note_on_c, 0, 64, 64
3, 553, Note_on_c, 0, 64, 0
3, 576, Note_on_c, 0, 63, 64
3, 841, Note_on_c, 0, 63, 0
3, 864, Note_on_c, 0, 64, 64
3, 953, Note_on_c, 0, 64, 0
3, 1056, Note_on_c, 0, 64, 64
3, 1285, Note_on_c, 0, 64, 0
3, 1296, Note_on_c, 0, 67, 64
3, 1341, Note_on_c, 0, 67, 0
3, 1344, Note_on_c, 0, 66, 64
3, 1356, Note_on_c, 0, 66, 0
3, 1356, Note_on_c, 0, 67, 64
3, 1368, Note_on_c, 0, 67, 0
3, 1368, Note_on_c, 0, 66, 64
3, 1389, Note_on_c, 0, 66, 0
3, 1392, Note_on_c, 0, 64, 64
3, 1529, Note_on_c, 0, 64, 0
3, 1536, Note_on_c, 0, 63, 64
3, 1625, Note_on_c, 0, 63, 0
3, 2016, Note_on_c, 0, 67, 64
3, 2281, Note_on_c, 0, 67, 0
3, 2304, Note_on_c, 0, 66, 64
3, 2437, Note_on_c, 0, 66, 0
3, 2448, Note_on_c, 0, 66, 64
3, 2493, Note_on_c, 0, 66, 0
3, 2496, Note_on_c, 0, 67, 64
3, 2541, Note_on_c, 0, 67, 0
3, 2544, Note_on_c, 0, 69, 64
3, 2589, Note_on_c, 0, 69, 0
3, 2592, Note_on_c, 0, 71, 64
3, 2725, Note_on_c, 0, 71, 0
3, 2736, Note_on_c, 0, 71, 64
3, 2781, Note_on_c, 0, 71, 0
3, 2784, Note_on_c, 0, 72, 64
3, 2829, Note_on_c, 0, 72, 0
3, 2832, Note_on_c, 0, 74, 64
3, 2877, Note_on_c, 0, 74, 0
3, 2880, Note_on_c, 0, 76, 64
3, 3013, Note_on_c, 0, 76, 0
3, 3024, Note_on_c, 0, 74, 64
3, 3069, Note_on_c, 0, 74, 0
3, 3072, Note_on_c, 0, 72, 64
3, 3117, Note_on_c, 0, 72, 0
3, 3120, Note_on_c, 0, 71, 64
3, 3165, Note_on_c, 0, 71, 0
3, 3168, Note_on_c, 0, 69, 64
3, 3433, Note_on_c, 0, 69, 0
3, 4320, Note_on_c, 0, 62, 64
3, 4409, Note_on_c, 0, 62, 0
3, 4416, Note_on_c, 0, 71, 64
3, 4461, Note_on_c, 0, 71, 0
3, 4464, Note_on_c, 0, 69, 64
3, 4509, Note_on_c, 0, 69, 0
3, 4512, Note_on_c, 0, 67, 64
3, 4601, Note_on_c, 0, 67, 0
3, 4608, Note_on_c, 0, 76, 64
3, 4653, Note_on_c, 0, 76, 0
3, 4656, Note_on_c, 0, 74, 64
3, 4701, Note_on_c, 0, 74, 0
3, 4704, Note_on_c, 0, 72, 64
3, 4881, Note_on_c, 0, 72, 0
3, 4896, Note_on_c, 0, 78, 64
3, 4941, Note_on_c, 0, 78, 0
3, 4944, Note_on_c, 0, 76, 64
3, 4989, Note_on_c, 0, 76, 0
3, 4992, Note_on_c, 0, 74, 74
3, 5125, Note_on_c, 0, 74, 0
3, 5136, Note_on_c, 0, 72, 66
3, 5181, Note_on_c, 0, 72, 0
3, 5184, Note_on_c, 0, 71, 64
3, 5229, Note_on_c, 0, 71, 0
3, 5232, Note_on_c, 0, 74, 61
3, 5325, Note_on_c, 0, 74, 0
3, 5328, Note_on_c, 0, 72, 59
3, 5417, Note_on_c, 0, 72, 0
3, 5424, Note_on_c, 0, 71, 59
3, 5517, Note_on_c, 0, 71, 0
3, 5520, Note_on_c, 0, 69, 59
3, 5609, Note_on_c, 0, 69, 0
3, 5616, Note_on_c, 0, 67, 59
3, 5805, Note_on_c, 0, 67, 0
3, 5808, Note_on_c, 0, 64, 59
3, 5853, Note_on_c, 0, 64, 0
3, 5856, Note_on_c, 0, 66, 59
3, 5901, Note_on_c, 0, 66, 0
3, 5904, Note_on_c, 0, 67, 59
3, 5949, Note_on_c, 0, 67, 0
3, 5952, Note_on_c, 0, 69, 59
3, 5997, Note_on_c, 0, 69, 0
3, 6000, Note_on_c, 0, 60, 59
3, 6045, Note_on_c, 0, 60, 0
3, 6048, Note_on_c, 0, 59, 59
3, 6093, Note_on_c, 0, 59, 0
3, 6096, Note_on_c, 0, 59, 59
3, 6141, Note_on_c, 0, 59, 0
3, 6144, Note_on_c, 0, 60, 61
3, 6189, Note_on_c, 0, 60, 0
3, 6192, Note_on_c, 0, 62, 63
3, 6237, Note_on_c, 0, 62, 0
3, 6240, Note_on_c, 0, 60, 65
3, 6285, Note_on_c, 0, 60, 0
3, 6288, Note_on_c, 0, 66, 67
3, 6333, Note_on_c, 0, 66, 0
3, 6336, Note_on_c, 0, 67, 67
3, 6381, Note_on_c, 0, 67, 0
3, 6384, Note_on_c, 0, 59, 59
3, 6429, Note_on_c, 0, 59, 0
3, 6432, Note_on_c, 0, 60, 61
3, 6477, Note_on_c, 0, 60, 0
3, 6480, Note_on_c, 0, 62, 64
3, 6525, Note_on_c, 0, 62, 0
3, 7200, Note_on_c, 0, 64, 64
3, 7465, Note_on_c, 0, 64, 0
3, 7488, Note_on_c, 0, 63, 64
3, 7753, Note_on_c, 0, 63, 0
3, 7776, Note_on_c, 0, 64, 64
3, 7865, Note_on_c, 0, 64, 0
3, 7968, Note_on_c, 0, 64, 64
3, 8197, Note_on_c, 0, 64, 0
3, 8208, Note_on_c, 0, 67, 64
3, 8253, Note_on_c, 0, 67, 0
3, 8256, Note_on_c, 0, 66, 64
3, 8268, Note_on_c, 0, 66, 0
3, 8268, Note_on_c, 0, 67, 64
3, 8280, Note_on_c, 0, 67, 0
3, 8280, Note_on_c, 0, 66, 64
3, 8301, Note_on_c, 0, 66, 0
3, 8304, Note_on_c, 0, 64, 64
3, 8441, Note_on_c, 0, 64, 0
3, 8448, Note_on_c, 0, 63, 64
3, 8537, Note_on_c, 0, 63, 0
3, 8928, Note_on_c, 0, 67, 64
3, 9193, Note_on_c, 0, 67, 0
3, 9216, Note_on_c, 0, 66, 64
3, 9349, Note_on_c, 0, 66, 0
3, 9360, Note_on_c, 0, 66, 64
3, 9405, Note_on_c, 0, 66, 0
3, 9408, Note_on_c, 0, 67, 64
3, 9453, Note_on_c, 0, 67, 0
3, 9456, Note_on_c, 0, 69, 64
3, 9501, Note_on_c, 0, 69, 0
3, 9504, Note_on_c, 0, 71, 64
3, 9637, Note_on_c, 0, 71, 0
3, 9648, Note_on_c, 0, 71, 64
3, 9693, Note_on_c, 0, 71, 0
3, 9696, Note_on_c, 0, 72, 64
3, 9741, Note_on_c, 0, 72, 0
3, 9744, Note_on_c, 0, 74, 64
3, 9789, Note_on_c, 0, 74, 0
3, 9792, Note_on_c, 0, 76, 64
3, 9925, Note_on_c, 0, 76, 0
3, 9936, Note_on_c, 0, 74, 64
3, 9981, Note_on_c, 0, 74, 0
3, 9984, Note_on_c, 0, 72, 64
3, 10029, Note_on_c, 0, 72, 0
3, 10032, Note_on_c, 0, 71, 64
3, 10077, Note_on_c, 0, 71, 0
3, 10080, Note_on_c, 0, 69, 64
3, 10345, Note_on_c, 0, 69, 0
3, 11232, Note_on_c, 0, 62, 64
3, 11321, Note_on_c, 0, 62, 0
3, 11328, Note_on_c, 0, 71, 64
3, 11373, Note_on_c, 0, 71, 0
3, 11376, Note_on_c, 0, 69, 64
3, 11421, Note_on_c, 0, 69, 0
3, 11424, Note_on_c, 0, 67, 64
3, 11513, Note_on_c, 0, 67, 0
3, 11520, Note_on_c, 0, 76, 64
3, 11565, Note_on_c, 0, 76, 0
3, 11568, Note_on_c, 0, 74, 64
3, 11613, Note_on_c, 0, 74, 0
3, 11616, Note_on_c, 0, 72, 64
3, 11793, Note_on_c, 0, 72, 0
3, 11808, Note_on_c, 0, 78, 64
3, 11853, Note_on_c, 0, 78, 0
3, 11856, Note_on_c, 0, 76, 64
3, 11901, Note_on_c, 0, 76, 0
3, 11904, Note_on_c, 0, 74, 74
3, 12037, Note_on_c, 0, 74, 0
3, 12048, Note_on_c, 0, 72, 66
3, 12093, Note_on_c, 0, 72, 0
3, 12096, Note_on_c, 0, 71, 64
3, 12141, Note_on_c, 0, 71, 0
3, 12144, Note_on_c, 0, 74, 61
3, 12237, Note_on_c, 0, 74, 0
3, 12240, Note_on_c, 0, 72, 59
3, 12329, Note_on_c, 0, 72, 0
3, 12336, Note_on_c, 0, 71, 59
3, 12429, Note_on_c, 0, 71, 0
3, 12432, Note_on_c, 0, 69, 59
3, 12521, Note_on_c, 0, 69, 0
3, 12528, Note_on_c, 0, 67, 59
3, 12717, Note_on_c, 0, 67, 0
3, 12720, Note_on_c, 0, 64, 59
3, 12765, Note_on_c, 0, 64, 0
3, 12768, Note_on_c, 0, 66, 59
3, 12813, Note_on_c, 0, 66, 0
3, 12816, Note_on_c, 0, 67, 59
3, 12861, Note_on_c, 0, 67, 0
3, 12864, Note_on_c, 0, 69, 59
3, 12909, Note_on_c, 0, 69, 0
3, 12912, Note_on_c, 0, 60, 59
3, 12957, Note_on_c, 0, 60, 0
3, 12960, Note_on_c, 0, 59, 59
3, 13005, Note_on_c, 0, 59, 0
3, 13008, Note_on_c, 0, 59, 59
3, 13053, Note_on_c, 0, 59, 0
3, 13056, Note_on_c, 0, 60, 61
3, 13101, Note_on_c, 0, 60, 0
3, 13104, Note_on_c, 0, 62, 63
3, 13149, Note_on_c, 0, 62, 0
3, 13152, Note_on_c, 0, 60, 65
3, 13197, Note_on_c, 0, 60, 0
3, 13200, Note_on_c, 0, 66, 67
3, 13245, Note_on_c, 0, 66, 0
3, 13248, Note_on_c, 0, 67, 67
3, 13293, Note_on_c, 0, 67, 0
3, 13296, Note_on_c, 0, 59, 59
3, 13341, Note_on_c, 0, 59, 0
3, 13344, Note_on_c, 0, 60, 61
3, 13389, Note_on_c, 0, 60, 0
3, 13392, Note_on_c, 0, 62, 64
3, 13437, Note_on_c, 0, 62, 0
3, 13824, Note_on_c, 0, 68, 74
3, 13957, Note_on_c, 0, 68, 0
3, 13968, Note_on_c, 0, 69, 74
3, 14013, Note_on_c, 0, 69, 0
3, 14016, Note_on_c, 0, 71, 74
3, 14061, Note_on_c, 0, 71, 0
3, 14064, Note_on_c, 0, 68, 74
3, 14109, Note_on_c, 0, 68, 0
3, 14112, Note_on_c, 0, 64, 74
3, 14157, Note_on_c, 0, 64, 0
3, 14160, Note_on_c, 0, 66, 74
3, 14205, Note_on_c, 0, 66, 0
3, 14208, Note_on_c, 0, 67, 74
3, 14489, Note_on_c, 0, 67, 0
3, 14496, Note_on_c, 0, 66, 74
3, 14541, Note_on_c, 0, 66, 0
3, 14544, Note_on_c, 0, 67, 74
3, 14589, Note_on_c, 0, 67, 0
3, 14592, Note_on_c, 0, 69, 74
3, 14637, Note_on_c, 0, 69, 0
3, 14640, Note_on_c, 0, 66, 74
3, 14685, Note_on_c, 0, 66, 0
3, 14688, Note_on_c, 0, 62, 74
3, 14733, Note_on_c, 0, 62, 0
3, 14736, Note_on_c, 0, 64, 74
3, 14781, Note_on_c, 0, 64, 0
3, 14784, Note_on_c, 0, 65, 74
3, 15065, Note_on_c, 0, 65, 0
3, 15072, Note_on_c, 0, 64, 74
3, 15249, Note_on_c, 0, 64, 0
3, 15264, Note_on_c, 0, 69, 74
3, 15309, Note_on_c, 0, 69, 0
3, 15312, Note_on_c, 0, 67, 74
3, 15357, Note_on_c, 0, 67, 0
3, 15360, Note_on_c, 0, 66, 74
3, 15405, Note_on_c, 0, 66, 0
3, 15408, Note_on_c, 0, 64, 74
3, 15453, Note_on_c, 0, 64, 0
3, 15456, Note_on_c, 0, 63, 74
3, 15501, Note_on_c, 0, 63, 0
3, 15504, Note_on_c, 0, 66, 74
3, 15549, Note_on_c, 0, 66, 0
3, 15552, Note_on_c, 0, 59, 74
3, 15789, Note_on_c, 0, 59, 0
3, 15792, Note_on_c, 0, 58, 74
3, 15837, Note_on_c, 0, 58, 0
3, 15840, Note_on_c, 0, 59, 74
3, 16017, Note_on_c, 0, 59, 0
3, 16416, Note_on_c, 0, 64, 74
3, 16681, Note_on_c, 0, 64, 0
3, 16704, Note_on_c, 0, 62, 74
3, 16969, Note_on_c, 0, 62, 0
3, 16992, Note_on_c, 0, 64, 74
3, 17037, Note_on_c, 0, 64, 0
3, 17040, Note_on_c, 0, 62, 74
3, 17085, Note_on_c, 0, 62, 0
3, 17088, Note_on_c, 0, 60, 74
3, 17177, Note_on_c, 0, 60, 0
3, 17184, Note_on_c, 0, 69, 74
3, 17229, Note_on_c, 0, 69, 0
3, 17232, Note_on_c, 0, 67, 74
3, 17277, Note_on_c, 0, 67, 0
3, 17280, Note_on_c, 0, 66, 74
3, 17745, Note_on_c, 0, 66, 0
3, 17760, Note_on_c, 0, 64, 74
3, 17901, Note_on_c, 0, 64, 0
3, 17904, Note_on_c, 0, 61, 74
3, 17949, Note_on_c, 0, 61, 0
3, 17952, Note_on_c, 0, 63, 74
3, 17997, Note_on_c, 0, 63, 0
3, 18000, Note_on_c, 0, 64, 74
3, 18045, Note_on_c, 0, 64, 0
3, 18048, Note_on_c, 0, 66, 74
3, 18233, Note_on_c, 0, 66, 0
3, 18240, Note_on_c, 0, 64, 74
3, 18373, Note_on_c, 0, 64, 0
3, 18384, Note_on_c, 0, 67, 74
3, 18521, Note_on_c, 0, 67, 0
3, 18528, Note_on_c, 0, 66, 74
3, 18573, Note_on_c, 0, 66, 0
3, 18576, Note_on_c, 0, 67, 74
3, 18621, Note_on_c, 0, 67, 0
3, 18624, Note_on_c, 0, 69, 74
3, 18669, Note_on_c, 0, 69, 0
3, 18672, Note_on_c, 0, 67, 74
3, 18717, Note_on_c, 0, 67, 0
3, 18720, Note_on_c, 0, 66, 74
3, 19053, Note_on_c, 0, 66, 0
3, 19056, Note_on_c, 0, 63, 74
3, 19101, Note_on_c, 0, 63, 0
3, 19104, Note_on_c, 0, 64, 74
3, 19149, Note_on_c, 0, 64, 0
3, 19152, Note_on_c, 0, 60, 74
3, 19197, Note_on_c, 0, 60, 0
3, 19200, Note_on_c, 0, 59, 74
3, 19245, Note_on_c, 0, 59, 0
3, 19248, Note_on_c, 0, 58, 74
3, 19293, Note_on_c, 0, 58, 0
3, 36720, Note_on_c, 0, 71, 74
3, 36765, Note_on_c, 0, 71, 0
3, 36768, Note_on_c, 0, 71, 74
3, 36901, Note_on_c, 0, 71, 0
3, 36912, Note_on_c, 0, 71, 74
3, 36957, Note_on_c, 0, 71, 0
3, 36960, Note_on_c, 0, 71, 74
3, 37093, Note_on_c, 0, 71, 0
3, 37104, Note_on_c, 0, 71, 74
3, 37149, Note_on_c, 0, 71, 0
3, 37152, Note_on_c, 0, 80, 74
3, 37197, Note_on_c, 0, 80, 0
3, 37200, Note_on_c, 0, 78, 74
3, 37245, Note_on_c, 0, 78, 0
3, 37248, Note_on_c, 0, 76, 74
3, 37293, Note_on_c, 0, 76, 0
3, 37296, Note_on_c, 0, 75, 74
3, 37341, Note_on_c, 0, 75, 0
3, 38256, Note_on_c, 0, 71, 74
3, 38301, Note_on_c, 0, 71, 0
3, 38304, Note_on_c, 0, 71, 74
3, 38437, Note_on_c, 0, 71, 0
3, 38448, Note_on_c, 0, 71, 74
3, 38493, Note_on_c, 0, 71, 0
3, 38496, Note_on_c, 0, 71, 74
3, 38629, Note_on_c, 0, 71, 0
3, 38640, Note_on_c, 0, 71, 74
3, 38685, Note_on_c, 0, 71, 0
3, 38688, Note_on_c, 0, 80, 74
3, 38733, Note_on_c, 0, 80, 0
3, 38736, Note_on_c, 0, 78, 74
3, 38781, Note_on_c, 0, 78, 0
3, 38784, Note_on_c, 0, 76, 74
3, 38829, Note_on_c, 0, 76, 0
3, 38832, Note_on_c, 0, 75, 74
3, 38877, Note_on_c, 0, 75, 0
3, 51312, Note_on_c, 0, 75, 74
3, 51360, Note_on_c, 0, 75, 0
3, 51360, Note_on_c, 0, 76, 74
3, 51399, Note_on_c, 0, 76, 0
3, 51504, Note_on_c, 0, 69, 74
3, 51552, Note_on_c, 0, 69, 0
3, 51552, Note_on_c, 0, 68, 74
3, 51591, Note_on_c, 0, 68, 0
3, 51696, Note_on_c, 0, 63, 74
3, 51744, Note_on_c, 0, 63, 0
3, 51744, Note_on_c, 0, 64, 74
3, 51783, Note_on_c, 0, 64, 0
3, 51888, Note_on_c, 0, 57, 74
3, 51936, Note_on_c, 0, 57, 0
3, 51936, Note_on_c, 0, 56, 74
3, 52025, Note_on_c, 0, 56, 0
3, 52320, End_track
4, 0, Start_track
4, 0, Program_c, 0, 0
4, 0, Control_c, 0, 7, 127
4, 0, Control_c, 0, 10, 64
4, 960, Note_on_c, 0, 76, 80
4, 1104, Note_on_c, 0, 76, 0
4, 1104, Note_on_c, 0, 74, 64
4, 1149, Note_on_c, 0, 74, 0
4, 1152, Note_on_c, 0, 72, 64
4, 1197, Note_on_c, 0, 72, 0
4, 1200, Note_on_c, 0, 71, 64
4, 1245, Note_on_c, 0, 71, 0
4, 1248, Note_on_c, 0, 70, 64
4, 1425, Note_on_c, 0, 70, 0
4, 1440, Note_on_c, 0, 71, 64
4, 1617, Note_on_c, 0, 71, 0
4, 3168, Note_on_c, 0, 81, 64
4, 3213, Note_on_c, 0, 81, 0
4, 3216, Note_on_c, 0, 79, 64
4, 3261, Note_on_c, 0, 79, 0
4, 3264, Note_on_c, 0, 78, 64
4, 3309, Note_on_c, 0, 78, 0
4, 3312, Note_on_c, 0, 76, 64
4, 3357, Note_on_c, 0, 76, 0
4, 3360, Note_on_c, 0, 74, 64
4, 3405, Note_on_c, 0, 74, 0
4, 3408, Note_on_c, 0, 72, 64
4, 3453, Note_on_c, 0, 72, 0
4, 3456, Note_on_c, 0, 71, 64
4, 3501, Note_on_c, 0, 71, 0
4, 4320, Note_on_c, 0, 69, 64
4, 4326, Note_on_c, 0, 69, 0
4, 4326, Note_on_c, 0, 67, 64
4, 4332, Note_on_c, 0, 67, 0
4, 4332, Note_on_c, 0, 66, 64
4, 4338, Note_on_c, 0, 66, 0
4, 4338, Note_on_c, 0, 67, 64
4, 4365, Note_on_c, 0, 67, 0
4, 4368, Note_on_c, 0, 69, 64
4, 4413, Note_on_c, 0, 69, 0
4, 4416, Note_on_c, 0, 74, 64
4, 4505, Note_on_c, 0, 74, 0
4, 4512, Note_on_c, 0, 79, 64
4, 4557, Note_on_c, 0, 79, 0
4, 4560, Note_on_c, 0, 78, 64
4, 4605, Note_on_c, 0, 78, 0
4, 4608, Note_on_c, 0, 79, 64
4, 4697, Note_on_c, 0, 79, 0
4, 4704, Note_on_c, 0, 84, 64
4, 4749, Note_on_c, 0, 84, 0
4, 4752, Note_on_c, 0, 83, 64
4, 4797, Note_on_c, 0, 83, 0
4, 4800, Note_on_c, 0, 81, 64
4, 4845, Note_on_c, 0, 81, 0
4, 4848, Note_on_c, 0, 79, 64
4, 4893, Note_on_c, 0, 79, 0
4, 4896, Note_on_c, 0, 81, 64
4, 4985, Note_on_c, 0, 81, 0
4, 4992, Note_on_c, 0, 86, 80
4, 5040, Note_on_c, 0, 86, 0
4, 5040, Note_on_c, 0, 84, 74
4, 5085, Note_on_c, 0, 84, 0
4, 5088, Note_on_c, 0, 83, 71
4, 5133, Note_on_c, 0, 83, 0
4, 5136, Note_on_c, 0, 81, 68
4, 5181, Note_on_c, 0, 81, 0
4, 5184, Note_on_c, 0, 79, 65
4, 5229, Note_on_c, 0, 79, 0
4, 5232, Note_on_c, 0, 78, 62
4, 5277, Note_on_c, 0, 78, 0
4, 5280, Note_on_c, 0, 76, 59
4, 5369, Note_on_c, 0, 76, 0
4, 5376, Note_on_c, 0, 74, 59
4, 5465, Note_on_c, 0, 74, 0
4, 5472, Note_on_c, 0, 72, 59
4, 5561, Note_on_c, 0, 72, 0
4, 5568, Note_on_c, 0, 71, 59
4, 5657, Note_on_c, 0, 71, 0
4, 5664, Note_on_c, 0, 69, 59
4, 5893, Note_on_c, 0, 69, 0
4, 5904, Note_on_c, 0, 71, 59
4, 5949, Note_on_c, 0, 71, 0
4, 5952, Note_on_c, 0, 72, 59
4, 5997, Note_on_c, 0, 72, 0
4, 6000, Note_on_c, 0, 66, 59
4, 6045, Note_on_c, 0, 66, 0
4, 6048, Note_on_c, 0, 67, 59
4, 6093, Note_on_c, 0, 67, 0
4, 6096, Note_on_c, 0, 62, 59
4, 6141, Note_on_c, 0, 62, 0
4, 6144, Note_on_c, 0, 64, 61
4, 6189, Note_on_c, 0, 64, 0
4, 6192, Note_on_c, 0, 65, 63
4, 6237, Note_on_c, 0, 65, 0
4, 6240, Note_on_c, 0, 64, 65
4, 6285, Note_on_c, 0, 64, 0
4, 6288, Note_on_c, 0, 72, 67
4, 6333, Note_on_c, 0, 72, 0
4, 6336, Note_on_c, 0, 71, 67
4, 6381, Note_on_c, 0, 71, 0
4, 6384, Note_on_c, 0, 62, 67
4, 6429, Note_on_c, 0, 62, 0
4, 6432, Note_on_c, 0, 64, 67
4, 6477, Note_on_c, 0, 64, 0
4, 6480, Note_on_c, 0, 65, 67
4, 6525, Note_on_c, 0, 65, 0
4, 6528, Note_on_c, 0, 64, 67
4, 6573, Note_on_c, 0, 64, 0
4, 6576, Note_on_c, 0, 54, 67
4, 6621, Note_on_c, 0, 54, 0
4, 7872, Note_on_c, 0, 76, 80
4, 8016, Note_on_c, 0, 76, 0
4, 8016, Note_on_c, 0, 74, 64
4, 8061, Note_on_c, 0, 74, 0
4, 8064, Note_on_c, 0, 72, 64
4, 8109, Note_on_c, 0, 72, 0
4, 8112, Note_on_c, 0, 71, 64
4, 8157, Note_on_c, 0, 71, 0
4, 8160, Note_on_c, 0, 70, 64
4, 8337, Note_on_c, 0, 70, 0
4, 8352, Note_on_c, 0, 71, 64
4, 8529, Note_on_c, 0, 71, 0
4, 10080, Note_on_c, 0, 81, 64
4, 10125, Note_on_c, 0, 81, 0
4, 10128, Note_on_c, 0, 79, 64
4, 10173, Note_on_c, 0, 79, 0
4, 10176, Note_on_c, 0, 78, 64
4, 10221, Note_on_c, 0, 78, 0
4, 10224, Note_on_c, 0, 76, 64
4, 10269, Note_on_c, 0, 76, 0
4, 10272, Note_on_c, 0, 74, 64
4, 10317, Note_on_c, 0, 74, 0
4, 10320, Note_on_c, 0, 72, 64
4, 10365, Note_on_c, 0, 72, 0
4, 10368, Note_on_c, 0, 71, 64
4, 10413, Note_on_c, 0, 71, 0
4, 11232, Note_on_c, 0, 69, 64
4, 11238, Note_on_c, 0, 69, 0
4, 11238, Note_on_c, 0, 67, 64
4, 11244, Note_on_c, 0, 67, 0
4, 11244, Note_on_c, 0, 66, 64
4, 11250, Note_on_c, 0, 66, 0
4, 11250, Note_on_c, 0, 67, 64
4, 11277, Note_on_c, 0, 67, 0
4, 11280, Note_on_c, 0, 69, 64
4, 11325, Note_on_c, 0, 69, 0
4, 11328, Note_on_c, 0, 74, 64
4, 11417, Note_on_c, 0, 74, 0
4, 11424, Note_on_c, 0, 79, 64
4, 11469, Note_on_c, 0, 79, 0
4, 11472, Note_on_c, 0, 78, 64
4, 11517, Note_on_c, 0, 78, 0
4, 11520, Note_on_c, 0, 79, 64
4, 11609, Note_on_c, 0, 79, 0
4, 11616, Note_on_c, 0, 84, 64
4, 11661, Note_on_c, 0, 84, 0
4, 11664, Note_on_c, 0, 83, 64
4, 11709, Note_on_c, 0, 83, 0
4, 11712, Note_on_c, 0, 81, 64
4, 11757, Note_on_c, 0, 81, 0
4, 11760, Note_on_c, 0, 79, 64
4, 11805, Note_on_c, 0, 79, 0
4, 11808, Note_on_c, 0, 81, 64
4, 11897, Note_on_c, 0, 81, 0
4, 11904, Note_on_c, 0, 86, 80
4, 11952, Note_on_c, 0, 86, 0
4, 11952, Note_on_c, 0, 84, 74
4, 11997, Note_on_c, 0, 84, 0
4, 12000, Note_on_c, 0, 83, 71
4, 12045, Note_on_c, 0, 83, 0
4, 12048, Note_on_c, 0, 81, 68
4, 12093, Note_on_c, 0, 81, 0
4, 12096, Note_on_c, 0, 79, 65
4, 12141, Note_on_c, 0, 79, 0
4, 12144, Note_on_c, 0, 78, 62
4, 12189, Note_on_c, 0, 78, 0
4, 12192, Note_on_c, 0, 76, 59
4, 12281, Note_on_c, 0, 76, 0
4, 12288, Note_on_c, 0, 74, 59
4, 12377, Note_on_c, 0, 74, 0
4, 12384, Note_on_c, 0, 72, 59
4, 12473, Note_on_c, 0, 72, 0
4, 12480, Note_on_c, 0, 71, 59
4, 12569, Note_on_c, 0, 71, 0
4, 12576, Note_on_c, 0, 69, 59
4, 12805, Note_on_c, 0, 69, 0
4, 12816, Note_on_c, 0, 71, 59
4, 12861, Note_on_c, 0, 71, 0
4, 12864, Note_on_c, 0, 72, 59
4, 12909, Note_on_c, 0, 72, 0
4, 12912, Note_on_c, 0, 66, 59
4, 12957, Note_on_c, 0, 66, 0
4, 12960, Note_on_c, 0, 67, 59
4, 13005, Note_on_c, 0, 67, 0
4, 13008, Note_on_c, 0, 62, 59
4, 13053, Note_on_c, 0, 62, 0
4, 13056, Note_on_c, 0, 64, 61
4, 13101, Note_on_c, 0, 64, 0
4, 13104, Note_on_c, 0, 65, 63
4, 13149, Note_on_c, 0, 65, 0
4, 13152, Note_on_c, 0, 64, 65
4, 13197, Note_on_c, 0, 64, 0
4, 13200, Note_on_c, 0, 72, 67
4, 13245, Note_on_c, 0, 72, 0
4, 13248, Note_on_c, 0, 71, 67
4, 13293, Note_on_c, 0, 71, 0
4, 13296, Note_on_c, 0, 62, 67
4, 13341, Note_on_c, 0, 62, 0
4, 13344, Note_on_c, 0, 64, 67
4, 13389, Note_on_c, 0, 64, 0
4, 13392, Note_on_c, 0, 65, 67
4, 13437, Note_on_c, 0, 65, 0
4, 13440, Note_on_c, 0, 64, 67
4, 13485, Note_on_c, 0, 64, 0
4, 13488, Note_on_c, 0, 54, 67
4, 13533, Note_on_c, 0, 54, 0
4, 13824, Note_on_c, 0, 74, 74
4, 14201, Note_on_c, 0, 74, 0
4, 14208, Note_on_c, 0, 73, 74
4, 14253, Note_on_c, 0, 73, 0
4, 14256, Note_on_c, 0, 74, 74
4, 14301, Note_on_c, 0, 74, 0
4, 14304, Note_on_c, 0, 76, 74
4, 14349, Note_on_c, 0, 76, 0
4, 14352, Note_on_c, 0, 73, 74
4, 14397, Note_on_c, 0, 73, 0
4, 14400, Note_on_c, 0, 69, 74
4, 14445, Note_on_c, 0, 69, 0
4, 14448, Note_on_c, 0, 71, 74
4, 14493, Note_on_c, 0, 71, 0
4, 14496, Note_on_c, 0, 72, 74
4, 14777, Note_on_c, 0, 72, 0
4, 14784, Note_on_c, 0, 71, 74
4, 14829, Note_on_c, 0, 71, 0
4, 14832, Note_on_c, 0, 72, 74
4, 14877, Note_on_c, 0, 72, 0
4, 14880, Note_on_c, 0, 74, 74
4, 14925, Note_on_c, 0, 74, 0
4, 14928, Note_on_c, 0, 71, 74
4, 14973, Note_on_c, 0, 71, 0
4, 14976, Note_on_c, 0, 67, 74
4, 15153, Note_on_c, 0, 67, 0
4, 15168, Note_on_c, 0, 72, 74
4, 15213, Note_on_c, 0, 72, 0
4, 15216, Note_on_c, 0, 71, 74
4, 15261, Note_on_c, 0, 71, 0
4, 15264, Note_on_c, 0, 72, 74
4, 15353, Note_on_c, 0, 72, 0
4, 15360, Note_on_c, 0, 71, 74
4, 15597, Note_on_c, 0, 71, 0
4, 15600, Note_on_c, 0, 69, 74
4, 15645, Note_on_c, 0, 69, 0
4, 15648, Note_on_c, 0, 67, 74
4, 15693, Note_on_c, 0, 67, 0
4, 15696, Note_on_c, 0, 66, 74
4, 15741, Note_on_c, 0, 66, 0
4, 15744, Note_on_c, 0, 64, 74
4, 15929, Note_on_c, 0, 64, 0
4, 15936, Note_on_c, 0, 63, 74
4, 16025, Note_on_c, 0, 63, 0
4, 16128, Note_on_c, 0, 66, 74
4, 16134, Note_on_c, 0, 66, 0
4, 16134, Note_on_c, 0, 64, 74
4, 16140, Note_on_c, 0, 64, 0
4, 16140, Note_on_c, 0, 63, 74
4, 16146, Note_on_c, 0, 63, 0
4, 16146, Note_on_c, 0, 64, 74
4, 16393, Note_on_c, 0, 64, 0
4, 16416, Note_on_c, 0, 66, 74
4, 16681, Note_on_c, 0, 66, 0
4, 16704, Note_on_c, 0, 68, 74
4, 16969, Note_on_c, 0, 68, 0
4, 16992, Note_on_c, 0, 69, 74
4, 17037, Note_on_c, 0, 69, 0
4, 17040, Note_on_c, 0, 71, 74
4, 17085, Note_on_c, 0, 71, 0
4, 17088, Note_on_c, 0, 72, 74
4, 17265, Note_on_c, 0, 72, 0
4, 17280, Note_on_c, 0, 71, 74
4, 17325, Note_on_c, 0, 71, 0
4, 17328, Note_on_c, 0, 70, 74
4, 17373, Note_on_c, 0, 70, 0
4, 17376, Note_on_c, 0, 71, 74
4, 17421, Note_on_c, 0, 71, 0
4, 17424, Note_on_c, 0, 72, 74
4, 17469, Note_on_c, 0, 72, 0
4, 17472, Note_on_c, 0, 71, 74
4, 17517, Note_on_c, 0, 71, 0
4, 17520, Note_on_c, 0, 69, 74
4, 17565, Note_on_c, 0, 69, 0
4, 17568, Note_on_c, 0, 67, 74
4, 17833, Note_on_c, 0, 67, 0
4, 17856, Note_on_c, 0, 66, 74
4, 17989, Note_on_c, 0, 66, 0
4, 18000, Note_on_c, 0, 67, 74
4, 18045, Note_on_c, 0, 67, 0
4, 18048, Note_on_c, 0, 69, 74
4, 18137, Note_on_c, 0, 69, 0
4, 18144, Note_on_c, 0, 67, 74
4, 18321, Note_on_c, 0, 67, 0
4, 18336, Note_on_c, 0, 67, 74
4, 18381, Note_on_c, 0, 67, 0
4, 18384, Note_on_c, 0, 71, 74
4, 18429, Note_on_c, 0, 71, 0
4, 18432, Note_on_c, 0, 69, 74
4, 18565, Note_on_c, 0, 69, 0
4, 18576, Note_on_c, 0, 71, 74
4, 18621, Note_on_c, 0, 71, 0
4, 18624, Note_on_c, 0, 72, 74
4, 18765, Note_on_c, 0, 72, 0
4, 18768, Note_on_c, 0, 72, 74
4, 18813, Note_on_c, 0, 72, 0
4, 18816, Note_on_c, 0, 71, 74
4, 18861, Note_on_c, 0, 71, 0
4, 18864, Note_on_c, 0, 70, 74
4, 18909, Note_on_c, 0, 70, 0
4, 18912, Note_on_c, 0, 71, 74
4, 18957, Note_on_c, 0, 71, 0
4, 18960, Note_on_c, 0, 69, 74
4, 19005, Note_on_c, 0, 69, 0
4, 19008, Note_on_c, 0, 67, 74
4, 19273, Note_on_c, 0, 67, 0
4, 19296, Note_on_c, 0, 59, 74
4, 19341, Note_on_c, 0, 59, 0
4, 19344, Note_on_c, 0, 71, 76
4, 19389, Note_on_c, 0, 71, 0
4, 19392, Note_on_c, 0, 59, 79
4, 19437, Note_on_c, 0, 59, 0
4, 19440, Note_on_c, 0, 60, 82
4, 19485, Note_on_c, 0, 60, 0
4, 19488, Note_on_c, 0, 59, 79
4, 19533, Note_on_c, 0, 59, 0
4, 19536, Note_on_c, 0, 58, 76
4, 19581, Note_on_c, 0, 58, 0
4, 19584, Note_on_c, 0, 59, 74
4, 19629, Note_on_c, 0, 59, 0
4, 19632, Note_on_c, 0, 71, 76
4, 19677, Note_on_c, 0, 71, 0
4, 19680, Note_on_c, 0, 59, 79
4, 19725, Note_on_c, 0, 59, 0
4, 19728, Note_on_c, 0, 60, 82
4, 19773, Note_on_c, 0, 60, 0
4, 19776, Note_on_c, 0, 59, 79
4, 19821, Note_on_c, 0, 59, 0
4, 19824, Note_on_c, 0, 58, 76
4, 19869, Note_on_c, 0, 58, 0
4, 19872, Note_on_c, 0, 58, 74
4, 20137, Note_on_c, 0, 58, 0
4, 52320, End_track
5, 0, Start_track
5, 0, Program_c, 1, 0
5, 0, Control_c, 1, 7, 127
5, 0, Control_c, 1, 10, 64
5, 0, Note_on_c, 1, 52, 64
5, 45, Note_on_c, 1, 52, 0
5, 48, Note_on_c, 1, 40, 64
5, 93, Note_on_c, 1, 40, 0
5, 96, Note_on_c, 1, 52, 64
5, 141, Note_on_c, 1, 52, 0
5, 144, Note_on_c, 1, 54, 64
5, 189, Note_on_c, 1, 54, 0
5, 192, Note_on_c, 1, 55, 64
5, 237, Note_on_c, 1, 55, 0
5, 240, Note_on_c, 1, 52, 64
5, 285, Note_on_c, 1, 52, 0
5, 288, Note_on_c, 1, 57, 64
5, 333, Note_on_c, 1, 57, 0
5, 336, Note_on_c, 1, 45, 64
5, 381, Note_on_c, 1, 45, 0
5, 384, Note_on_c, 1, 57, 64
5, 429, Note_on_c, 1, 57, 0
5, 432, Note_on_c, 1, 59, 64
5, 477, Note_on_c, 1, 59, 0
5, 480, Note_on_c, 1, 60, 64
5, 525, Note_on_c, 1, 60, 0
5, 528, Note_on_c, 1, 57, 64
5, 573, Note_on_c, 1, 57, 0
5, 576, Note_on_c, 1, 59, 64
5, 621, Note_on_c, 1, 59, 0
5, 624, Note_on_c, 1, 47, 64
5, 669, Note_on_c, 1, 47, 0
5, 672, Note_on_c, 1, 59, 64
5, 717, Note_on_c, 1, 59, 0
5, 720, Note_on_c, 1, 60, 64
5, 765, Note_on_c, 1, 60, 0
5, 768, Note_on_c, 1, 59, 64
5, 813, Note_on_c, 1, 59, 0
5, 816, Note_on_c, 1, 57, 64
5, 861, Note_on_c, 1, 57, 0
5, 864, Note_on_c, 1, 55, 64
5, 909, Note_on_c, 1, 55, 0
5, 912, Note_on_c, 1, 54, 64
5, 957, Note_on_c, 1, 54, 0
5, 960, Note_on_c, 1, 52, 64
5, 1005, Note_on_c, 1, 52, 0
5, 1008, Note_on_c, 1, 50, 64
5, 1053, Note_on_c, 1, 50, 0
5, 1056, Note_on_c, 1, 48, 64
5, 1101, Note_on_c, 1, 48, 0
5, 1104, Note_on_c, 1, 47, 64
5, 1149, Note_on_c, 1, 47, 0
5, 1152, Note_on_c, 1, 45, 64
5, 1197, Note_on_c, 1, 45, 0
5, 1200, Note_on_c, 1, 47, 64
5, 1245, Note_on_c, 1, 47, 0
5, 1248, Note_on_c, 1, 48, 64
5, 1425, Note_on_c, 1, 48, 0
5, 1440, Note_on_c, 1, 47, 64
5, 1485, Note_on_c, 1, 47, 0
5, 1488, Note_on_c, 1, 54, 64
5, 1533, Note_on_c, 1, 54, 0
5, 1536, Note_on_c, 1, 59, 64
5, 1581, Note_on_c, 1, 59, 0
5, 1584, Note_on_c, 1, 60, 64
5, 1629, Note_on_c, 1, 60, 0
5, 1632, Note_on_c, 1, 59, 64
5, 1677, Note_on_c, 1, 59, 0
5, 1680, Note_on_c, 1, 57, 64
5, 1725, Note_on_c, 1, 57, 0
5, 1728, Note_on_c, 1, 55, 64
5, 1773, Note_on_c, 1, 55, 0
5, 1776, Note_on_c, 1, 43, 64
5, 1821, Note_on_c, 1, 43, 0
5, 1824, Note_on_c, 1, 55, 64
5, 1869, Note_on_c, 1, 55, 0
5, 1872, Note_on_c, 1, 57, 64
5, 1917, Note_on_c, 1, 57, 0
5, 1920, Note_on_c, 1, 59, 64
5, 1965, Note_on_c, 1, 59, 0
5, 1968, Note_on_c, 1, 55, 64
5, 2013, Note_on_c, 1, 55, 0
5, 2016, Note_on_c, 1, 60, 64
5, 2061, Note_on_c, 1, 60, 0
5, 2064, Note_on_c, 1, 48, 64
5, 2109, Note_on_c, 1, 48, 0
5, 2112, Note_on_c, 1, 60, 64
5, 2157, Note_on_c, 1, 60, 0
5, 2160, Note_on_c, 1, 62, 64
5, 2205, Note_on_c, 1, 62, 0
5, 2208, Note_on_c, 1, 64, 64
5, 2253, Note_on_c, 1, 64, 0
5, 2256, Note_on_c, 1, 61, 64
5, 2301, Note_on_c, 1, 61, 0
5, 2304, Note_on_c, 1, 62, 64
5, 2349, Note_on_c, 1, 62, 0
5, 2352, Note_on_c, 1, 50, 64
5, 2397, Note_on_c, 1, 50, 0
5, 2400, Note_on_c, 1, 62, 64
5, 2445, Note_on_c, 1, 62, 0
5, 2448, Note_on_c, 1, 64, 64
5, 2493, Note_on_c, 1, 64, 0
5, 2496, Note_on_c, 1, 62, 64
5, 2541, Note_on_c, 1, 62, 0
5, 2544, Note_on_c, 1, 60, 64
5, 2589, Note_on_c, 1, 60, 0
5, 2592, Note_on_c, 1, 59, 64
5, 2637, Note_on_c, 1, 59, 0
5, 2640, Note_on_c, 1, 62, 64
5, 2685, Note_on_c, 1, 62, 0
5, 2688, Note_on_c, 1, 67, 64
5, 2733, Note_on_c, 1, 67, 0
5, 2736, Note_on_c, 1, 65, 64
5, 2781, Note_on_c, 1, 65, 0
5, 2784, Note_on_c, 1, 64, 64
5, 2829, Note_on_c, 1, 64, 0
5, 2832, Note_on_c, 1, 62, 64
5, 2877, Note_on_c, 1, 62, 0
5, 2880, Note_on_c, 1, 60, 64
5, 2925, Note_on_c, 1, 60, 0
5, 2928, Note_on_c, 1, 67, 64
5, 2973, Note_on_c, 1, 67, 0
5, 2976, Note_on_c, 1, 72, 64
5, 3021, Note_on_c, 1, 72, 0
5, 3024, Note_on_c, 1, 71, 64
5, 3069, Note_on_c, 1, 71, 0
5, 3072, Note_on_c, 1, 69, 64
5, 3117, Note_on_c, 1, 69, 0
5, 3120, Note_on_c, 1, 67, 64
5, 3165, Note_on_c, 1, 67, 0
5, 3168, Note_on_c, 1, 66, 64
5, 3433, Note_on_c, 1, 66, 0
5, 3504, Note_on_c, 1, 74, 64
5, 3549, Note_on_c, 1, 74, 0
5, 3552, Note_on_c, 1, 72, 64
5, 3597, Note_on_c, 1, 72, 0
5, 3600, Note_on_c, 1, 71, 64
5, 3645, Note_on_c, 1, 71, 0
5, 3648, Note_on_c, 1, 69, 64
5, 3693, Note_on_c, 1, 69, 0
5, 3696, Note_on_c, 1, 67, 64
5, 3741, Note_on_c, 1, 67, 0
5, 3744, Note_on_c, 1, 69, 64
5, 3789, Note_on_c, 1, 69, 0
5, 3792, Note_on_c, 1, 71, 64
5, 3837, Note_on_c, 1, 71, 0
5, 3840, Note_on_c, 1, 69, 64
5, 3885, Note_on_c, 1, 69, 0
5, 3888, Note_on_c, 1, 67, 64
5, 3933, Note_on_c, 1, 67, 0
5, 3936, Note_on_c, 1, 66, 64
5, 3981, Note_on_c, 1, 66, 0
5, 3984, Note_on_c, 1, 64, 64
5, 4029, Note_on_c, 1, 64, 0
5, 4032, Note_on_c, 1, 66, 64
5, 4077, Note_on_c, 1, 66, 0
5, 4080, Note_on_c, 1, 67, 64
5, 4125, Note_on_c, 1, 67, 0
5, 4128, Note_on_c, 1, 66, 64
5, 4173, Note_on_c, 1, 66, 0
5, 4176, Note_on_c, 1, 64, 64
5, 4221, Note_on_c, 1, 64, 0
5, 4224, Note_on_c, 1, 62, 64
5, 4269, Note_on_c, 1, 62, 0
5, 4272, Note_on_c, 1, 60, 64
5, 4317, Note_on_c, 1, 60, 0
5, 4320, Note_on_c, 1, 59, 64
5, 4365, Note_on_c, 1, 59, 0
5, 4368, Note_on_c, 1, 57, 64
5, 4413, Note_on_c, 1, 57, 0
5, 4416, Note_on_c, 1, 55, 64
5, 4461, Note_on_c, 1, 55, 0
5, 4464, Note_on_c, 1, 54, 64
5, 4509, Note_on_c, 1, 54, 0
5, 4512, Note_on_c, 1, 52, 64
5, 4557, Note_on_c, 1, 52, 0
5, 4560, Note_on_c, 1, 50, 64
5, 4605, Note_on_c, 1, 50, 0
5, 4608, Note_on_c, 1, 48, 64
5, 4653, Note_on_c, 1, 48, 0
5, 4656, Note_on_c, 1, 47, 64
5, 4701, Note_on_c, 1, 47, 0
5, 4704, Note_on_c, 1, 45, 64
5, 4749, Note_on_c, 1, 45, 0
5, 4752, Note_on_c, 1, 43, 64
5, 4797, Note_on_c, 1, 43, 0
5, 4800, Note_on_c, 1, 42, 64
5, 4845, Note_on_c, 1, 42, 0
5, 4848, Note_on_c, 1, 40, 64
5, 4893, Note_on_c, 1, 40, 0
5, 4896, Note_on_c, 1, 38, 64
5, 4941, Note_on_c, 1, 38, 0
5, 4944, Note_on_c, 1, 36, 64
5, 4989, Note_on_c, 1, 36, 0
5, 4992, Note_on_c, 1, 35, 64
5, 5037, Note_on_c, 1, 35, 0
5, 5040, Note_on_c, 1, 33, 64
5, 5085, Note_on_c, 1, 33, 0
5, 5088, Note_on_c, 1, 31, 64
5, 5177, Note_on_c, 1, 31, 0
5, 5232, Note_on_c, 1, 59, 59
5, 5277, Note_on_c, 1, 59, 0
5, 5280, Note_on_c, 1, 60, 59
5, 5325, Note_on_c, 1, 60, 0
5, 5328, Note_on_c, 1, 64, 59
5, 5373, Note_on_c, 1, 64, 0
5, 5376, Note_on_c, 1, 67, 59
5, 5421, Note_on_c, 1, 67, 0
5, 5424, Note_on_c, 1, 68, 59
5, 5469, Note_on_c, 1, 68, 0
5, 5472, Note_on_c, 1, 69, 59
5, 5517, Note_on_c, 1, 69, 0
5, 5520, Note_on_c, 1, 66, 59
5, 5565, Note_on_c, 1, 66, 0
5, 5568, Note_on_c, 1, 67, 59
5, 5613, Note_on_c, 1, 67, 0
5, 5616, Note_on_c, 1, 59, 59
5, 5661, Note_on_c, 1, 59, 0
5, 5664, Note_on_c, 1, 60, 59
5, 5709, Note_on_c, 1, 60, 0
5, 5712, Note_on_c, 1, 61, 59
5, 5757, Note_on_c, 1, 61, 0
5, 5760, Note_on_c, 1, 62, 59
5, 5937, Note_on_c, 1, 62, 0
5, 5952, Note_on_c, 1, 50, 59
5, 6041, Note_on_c, 1, 50, 0
5, 6048, Note_on_c, 1, 55, 59
5, 6313, Note_on_c, 1, 55, 0
5, 6336, Note_on_c, 1, 43, 59
5, 6601, Note_on_c, 1, 43, 0
5, 6624, Note_on_c, 1, 57, 59
5, 6624, Note_on_c, 1, 48, 59
5, 6720, Note_on_c, 1, 57, 0
5, 6720, Note_on_c, 1, 48, 0
5, 6720, Note_on_c, 1, 55, 59
5, 6720, Note_on_c, 1, 47, 59
5, 6809, Note_on_c, 1, 55, 0
5, 6809, Note_on_c, 1, 47, 0
5, 6912, Note_on_c, 1, 52, 64
5, 6957, Note_on_c, 1, 52, 0
5, 6960, Note_on_c, 1, 40, 64
5, 7005, Note_on_c, 1, 40, 0
5, 7008, Note_on_c, 1, 52, 64
5, 7053, Note_on_c, 1, 52, 0
5, 7056, Note_on_c, 1, 54, 64
5, 7101, Note_on_c, 1, 54, 0
5, 7104, Note_on_c, 1, 55, 64
5, 7149, Note_on_c, 1, 55, 0
5, 7152, Note_on_c, 1, 52, 64
5, 7197, Note_on_c, 1, 52, 0
5, 7200, Note_on_c, 1, 57, 64
5, 7245, Note_on_c, 1, 57, 0
5, 7248, Note_on_c, 1, 45, 64
5, 7293, Note_on_c, 1, 45, 0
5, 7296, Note_on_c, 1, 57, 64
5, 7341, Note_on_c, 1, 57, 0
5, 7344, Note_on_c, 1, 59, 64
5, 7389, Note_on_c, 1, 59, 0
5, 7392, Note_on_c, 1, 60, 64
5, 7437, Note_on_c, 1, 60, 0
5, 7440, Note_on_c, 1, 57, 64
5, 7485, Note_on_c, 1, 57, 0
5, 7488, Note_on_c, 1, 59, 64
5, 7533, Note_on_c, 1, 59, 0
5, 7536, Note_on_c, 1, 47, 64
5, 7581, Note_on_c, 1, 47, 0
5, 7584, Note_on_c, 1, 59, 64
5, 7629, Note_on_c, 1, 59, 0
5, 7632, Note_on_c, 1, 60, 64
5, 7677, Note_on_c, 1, 60, 0
5, 7680, Note_on_c, 1, 59, 64
5, 7725, Note_on_c, 1, 59, 0
5, 7728, Note_on_c, 1, 57, 64
5, 7773, Note_on_c, 1, 57, 0
5, 7776, Note_on_c, 1, 55, 64
5, 7821, Note_on_c, 1, 55, 0
5, 7824, Note_on_c, 1, 54, 64
5, 7869, Note_on_c, 1, 54, 0
5, 7872, Note_on_c, 1, 52, 64
5, 7917, Note_on_c, 1, 52, 0
5, 7920, Note_on_c, 1, 50, 64
5, 7965, Note_on_c, 1, 50, 0
5, 7968, Note_on_c, 1, 48, 64
5, 8013, Note_on_c, 1, 48, 0
5, 8016, Note_on_c, 1, 47, 64
5, 8061, Note_on_c, 1, 47, 0
5, 8064, Note_on_c, 1, 45, 64
5, 8109, Note_on_c, 1, 45, 0
5, 8112, Note_on_c, 1, 47, 64
5, 8157, Note_on_c, 1, 47, 0
5, 8160, Note_on_c, 1, 48, 64
5, 8337, Note_on_c, 1, 48, 0
5, 8352, Note_on_c, 1, 47, 64
5, 8397, Note_on_c, 1, 47, 0
5, 8400, Note_on_c, 1, 54, 64
5, 8445, Note_on_c, 1, 54, 0
5, 8448, Note_on_c, 1, 59, 64
5, 8493, Note_on_c, 1, 59, 0
5, 8496, Note_on_c, 1, 60, 64
5, 8541, Note_on_c, 1, 60, 0
5, 8544, Note_on_c, 1, 59, 64
5, 8589, Note_on_c, 1, 59, 0
5, 8592, Note_on_c, 1, 57, 64
5, 8637, Note_on_c, 1, 57, 0
5, 8640, Note_on_c, 1, 55, 64
5, 8685, Note_on_c, 1, 55, 0
5, 8688, Note_on_c, 1, 43, 64
5, 8733, Note_on_c, 1, 43, 0
5, 8736, Note_on_c, 1, 55, 64
5, 8781, Note_on_c, 1, 55, 0
5, 8784, Note_on_c, 1, 57, 64
5, 8829, Note_on_c, 1, 57, 0
5, 8832, Note_on_c, 1, 59, 64
5, 8877, Note_on_c, 1, 59, 0
5, 8880, Note_on_c, 1, 55, 64
5, 8925, Note_on_c, 1, 55, 0
5, 8928, Note_on_c, 1, 60, 64
5, 8973, Note_on_c, 1, 60, 0
5, 8976, Note_on_c, 1, 48, 64
5, 9021, Note_on_c, 1, 48, 0
5, 9024, Note_on_c, 1, 60, 64
5, 9069, Note_on_c, 1, 60, 0
5, 9072, Note_on_c, 1, 62, 64
5, 9117, Note_on_c, 1, 62, 0
5, 9120, Note_on_c, 1, 64, 64
5, 9165, Note_on_c, 1, 64, 0
5, 9168, Note_on_c, 1, 61, 64
5, 9213, Note_on_c, 1, 61, 0
5, 9216, Note_on_c, 1, 62, 64
5, 9261, Note_on_c, 1, 62, 0
5, 9264, Note_on_c, 1, 50, 64
5, 9309, Note_on_c, 1, 50, 0
5, 9312, Note_on_c, 1, 62, 64
5, 9357, Note_on_c, 1, 62, 0
5, 9360, Note_on_c, 1, 64, 64
5, 9405, Note_on_c, 1, 64, 0
5, 9408, Note_on_c, 1, 62, 64
5, 9453, Note_on_c, 1, 62, 0
5, 9456, Note_on_c, 1, 60, 64
5, 9501, Note_on_c, 1, 60, 0
5, 9504, Note_on_c, 1, 59, 64
5, 9549, Note_on_c, 1, 59, 0
5, 9552, Note_on_c, 1, 62, 64
5, 9597, Note_on_c, 1, 62, 0
5, 9600, Note_on_c, 1, 67, 64
5, 9645, Note_on_c, 1, 67, 0
5, 9648, Note_on_c, 1, 65, 64
5, 9693, Note_on_c, 1, 65, 0
5, 9696, Note_on_c, 1, 64, 64
5, 9741, Note_on_c, 1, 64, 0
5, 9744, Note_on_c, 1, 62, 64
5, 9789, Note_on_c, 1, 62, 0
5, 9792, Note_on_c, 1, 60, 64
5, 9837, Note_on_c, 1, 60, 0
5, 9840, Note_on_c, 1, 67, 64
5, 9885, Note_on_c, 1, 67, 0
5, 9888, Note_on_c, 1, 72, 64
5, 9933, Note_on_c, 1, 72, 0
5, 9936, Note_on_c, 1, 71, 64
5, 9981, Note_on_c, 1, 71, 0
5, 9984, Note_on_c, 1, 69, 64
5, 10029, Note_on_c, 1, 69, 0
5, 10032, Note_on_c, 1, 67, 64
5, 10077, Note_on_c, 1, 67, 0
5, 10080, Note_on_c, 1, 66, 64
5, 10345, Note_on_c, 1, 66, 0
5, 10416, Note_on_c, 1, 74, 64
5, 10461, Note_on_c, 1, 74, 0
5, 10464, Note_on_c, 1, 72, 64
5, 10509, Note_on_c, 1, 72, 0
5, 10512, Note_on_c, 1, 71, 64
5, 10557, Note_on_c, 1, 71, 0
5, 10560, Note_on_c, 1, 69, 64
5, 10605, Note_on_c, 1, 69, 0
5, 10608, Note_on_c, 1, 67, 64
5, 10653, Note_on_c, 1, 67, 0
5, 10656, Note_on_c, 1, 69, 64
5, 10701, Note_on_c, 1, 69, 0
5, 10704, Note_on_c, 1, 71, 64
5, 10749, Note_on_c, 1, 71, 0
5, 10752, Note_on_c, 1, 69, 64
5, 10797, Note_on_c, 1, 69, 0
5, 10800, Note_on_c, 1, 67, 64
5, 10845, Note_on_c, 1, 67, 0
5, 10848, Note_on_c, 1, 66, 64
5, 10893, Note_on_c, 1, 66, 0
5, 10896, Note_on_c, 1, 64, 64
5, 10941, Note_on_c, 1, 64, 0
5, 10944, Note_on_c, 1, 66, 64
5, 10989, Note_on_c, 1, 66, 0
5, 10992, Note_on_c, 1, 67, 64
5, 11037, Note_on_c, 1, 67, 0
5, 11040, Note_on_c, 1, 66, 64
5, 11085, Note_on_c, 1, 66, 0
5, 11088, Note_on_c, 1, 64, 64
5, 11133, Note_on_c, 1, 64, 0
5, 11136, Note_on_c, 1, 62, 64
5, 11181, Note_on_c, 1, 62, 0
5, 11184, Note_on_c, 1, 60, 64
5, 11229, Note_on_c, 1, 60, 0
5, 11232, Note_on_c, 1, 59, 64
5, 11277, Note_on_c, 1, 59, 0
5, 11280, Note_on_c, 1, 57, 64
5, 11325, Note_on_c, 1, 57, 0
5, 11328, Note_on_c, 1, 55, 64
5, 11373, Note_on_c, 1, 55, 0
5, 11376, Note_on_c, 1, 54, 64
5, 11421, Note_on_c, 1, 54, 0
5, 11424, Note_on_c, 1, 52, 64
5, 11469, Note_on_c, 1, 52, 0
5, 11472, Note_on_c, 1, 50, 64
5, 11517, Note_on_c, 1, 50, 0
5, 11520, Note_on_c, 1, 48, 64
5, 11565, Note_on_c, 1, 48, 0
5, 11568, Note_on_c, 1, 47, 64
5, 11613, Note_on_c, 1, 47, 0
5, 11616, Note_on_c, 1, 45, 64
5, 11661, Note_on_c, 1, 45, 0
5, 11664, Note_on_c, 1, 43, 64
5, 11709, Note_on_c, 1, 43, 0
5, 11712, Note_on_c, 1, 42, 64
5, 11757, Note_on_c, 1, 42, 0
5, 11760, Note_on_c, 1, 40, 64
5, 11805, Note_on_c, 1, 40, 0
5, 11808, Note_on_c, 1, 38, 64
5, 11853, Note_on_c, 1, 38, 0
5, 11856, Note_on_c, 1, 36, 64
5, 11901, Note_on_c, 1, 36, 0
5, 11904, Note_on_c, 1, 35, 64
5, 11949, Note_on_c, 1, 35, 0
5, 11952, Note_on_c, 1, 33, 64
5, 11997, Note_on_c, 1, 33, 0
5, 12000, Note_on_c, 1, 31, 64
5, 12089, Note_on_c, 1, 31, 0
5, 12144, Note_on_c, 1, 59, 59
5, 12189, Note_on_c, 1, 59, 0
5, 12192, Note_on_c, 1, 60, 59
5, 12237, Note_on_c, 1, 60, 0
5, 12240, Note_on_c, 1, 64, 59
5, 12285, Note_on_c, 1, 64, 0
5, 12288, Note_on_c, 1, 67, 59
5, 12333, Note_on_c, 1, 67, 0
5, 12336, Note_on_c, 1, 68, 59
5, 12381, Note_on_c, 1, 68, 0
5, 12384, Note_on_c, 1, 69, 59
5, 12429, Note_on_c, 1, 69, 0
5, 12432, Note_on_c, 1, 66, 59
5, 12477, Note_on_c, 1, 66, 0
5, 12480, Note_on_c, 1, 67, 59
5, 12525, Note_on_c, 1, 67, 0
5, 12528, Note_on_c, 1, 59, 59
5, 12573, Note_on_c, 1, 59, 0
5, 12576, Note_on_c, 1, 60, 59
5, 12621, Note_on_c, 1, 60, 0
5, 12624, Note_on_c, 1, 61, 59
5, 12669, Note_on_c, 1, 61, 0
5, 12672, Note_on_c, 1, 62, 59
5, 12849, Note_on_c, 1, 62, 0
5, 12864, Note_on_c, 1, 50, 59
5, 12953, Note_on_c, 1, 50, 0
5, 12960, Note_on_c, 1, 55, 59
5, 13225, Note_on_c, 1, 55, 0
5, 13248, Note_on_c, 1, 43, 59
5, 13513, Note_on_c, 1, 43, 0
5, 13536, Note_on_c, 1, 57, 59
5, 13536, Note_on_c, 1, 48, 59
5, 13632, Note_on_c, 1, 57, 0
5, 13632, Note_on_c, 1, 48, 0
5, 13632, Note_on_c, 1, 55, 59
5, 13632, Note_on_c, 1, 47, 59
5, 13721, Note_on_c, 1, 55, 0
5, 13721, Note_on_c, 1, 47, 0
5, 13824, Note_on_c, 1, 52, 74
5, 13869, Note_on_c, 1, 52, 0
5, 13872, Note_on_c, 1, 40, 74
5, 13917, Note_on_c, 1, 40, 0
5, 13920, Note_on_c, 1, 52, 74
5, 13965, Note_on_c, 1, 52, 0
5, 13968, Note_on_c, 1, 54, 74
5, 14013, Note_on_c, 1, 54, 0
5, 14016, Note_on_c, 1, 56, 74
5, 14061, Note_on_c, 1, 56, 0
5, 14064, Note_on_c, 1, 52, 74
5, 14109, Note_on_c, 1, 52, 0
5, 14112, Note_on_c, 1, 57, 74
5, 14157, Note_on_c, 1, 57, 0
5, 14160, Note_on_c, 1, 45, 74
5, 14205, Note_on_c, 1, 45, 0
5, 14208, Note_on_c, 1, 57, 74
5, 14253, Note_on_c, 1, 57, 0
5, 14256, Note_on_c, 1, 59, 74
5, 14301, Note_on_c, 1, 59, 0
5, 14304, Note_on_c, 1, 61, 74
5, 14349, Note_on_c, 1, 61, 0
5, 14352, Note_on_c, 1, 57, 74
5, 14397, Note_on_c, 1, 57, 0
5, 14400, Note_on_c, 1, 50, 74
5, 14445, Note_on_c, 1, 50, 0
5, 14448, Note_on_c, 1, 38, 74
5, 14493, Note_on_c, 1, 38, 0
5, 14496, Note_on_c, 1, 50, 74
5, 14541, Note_on_c, 1, 50, 0
5, 14544, Note_on_c, 1, 52, 74
5, 14589, Note_on_c, 1, 52, 0
5, 14592, Note_on_c, 1, 54, 74
5, 14637, Note_on_c, 1, 54, 0
5, 14640, Note_on_c, 1, 50, 74
5, 14685, Note_on_c, 1, 50, 0
5, 14688, Note_on_c, 1, 55, 74
5, 14733, Note_on_c, 1, 55, 0
5, 14736, Note_on_c, 1, 43, 74
5, 14781, Note_on_c, 1, 43, 0
5, 14784, Note_on_c, 1, 55, 74
5, 14829, Note_on_c, 1, 55, 0
5, 14832, Note_on_c, 1, 57, 74
5, 14877, Note_on_c, 1, 57, 0
5, 14880, Note_on_c, 1, 59, 74
5, 14925, Note_on_c, 1, 59, 0
5, 14928, Note_on_c, 1, 55, 74
5, 14973, Note_on_c, 1, 55, 0
5, 14976, Note_on_c, 1, 60, 74
5, 15021, Note_on_c, 1, 60, 0
5, 15024, Note_on_c, 1, 48, 74
5, 15069, Note_on_c, 1, 48, 0
5, 15072, Note_on_c, 1, 60, 74
5, 15117, Note_on_c, 1, 60, 0
5, 15120, Note_on_c, 1, 59, 74
5, 15165, Note_on_c, 1, 59, 0
5, 15168, Note_on_c, 1, 57, 74
5, 15213, Note_on_c, 1, 57, 0
5, 15216, Note_on_c, 1, 55, 74
5, 15261, Note_on_c, 1, 55, 0
5, 15264, Note_on_c, 1, 54, 74
5, 15309, Note_on_c, 1, 54, 0
5, 15312, Note_on_c, 1, 52, 74
5, 15357, Note_on_c, 1, 52, 0
5, 15360, Note_on_c, 1, 51, 74
5, 15405, Note_on_c, 1, 51, 0
5, 15408, Note_on_c, 1, 49, 74
5, 15453, Note_on_c, 1, 49, 0
5, 15456, Note_on_c, 1, 47, 74
5, 15501, Note_on_c, 1, 47, 0
5, 15504, Note_on_c, 1, 45, 74
5, 15549, Note_on_c, 1, 45, 0
5, 15552, Note_on_c, 1, 43, 74
5, 15597, Note_on_c, 1, 43, 0
5, 15600, Note_on_c, 1, 42, 74
5, 15648, Note_on_c, 1, 42, 0
5, 15648, Note_on_c, 1, 40, 74
5, 15693, Note_on_c, 1, 40, 0
5, 15696, Note_on_c, 1, 38, 74
5, 15741, Note_on_c, 1, 38, 0
5, 15744, Note_on_c, 1, 36, 74
5, 15833, Note_on_c, 1, 36, 0
5, 15840, Note_on_c, 1, 35, 74
5, 15885, Note_on_c, 1, 35, 0
5, 15888, Note_on_c, 1, 42, 74
5, 15933, Note_on_c, 1, 42, 0
5, 15936, Note_on_c, 1, 47, 74
5, 15981, Note_on_c, 1, 47, 0
5, 15984, Note_on_c, 1, 45, 74
5, 16029, Note_on_c, 1, 45, 0
5, 16032, Note_on_c, 1, 43, 74
5, 16077, Note_on_c, 1, 43, 0
5, 16080, Note_on_c, 1, 42, 74
5, 16125, Note_on_c, 1, 42, 0
5, 16128, Note_on_c, 1, 40, 74
5, 16173, Note_on_c, 1, 40, 0
5, 16176, Note_on_c, 1, 52, 74
5, 16221, Note_on_c, 1, 52, 0
5, 16224, Note_on_c, 1, 43, 74
5, 16269, Note_on_c, 1, 43, 0
5, 16272, Note_on_c, 1, 42, 74
5, 16317, Note_on_c, 1, 42, 0
5, 16320, Note_on_c, 1, 40, 74
5, 16365, Note_on_c, 1, 40, 0
5, 16368, Note_on_c, 1, 43, 74
5, 16413, Note_on_c, 1, 43, 0
5, 16416, Note_on_c, 1, 45, 74
5, 16461, Note_on_c, 1, 45, 0
5, 16464, Note_on_c, 1, 57, 74
5, 16509, Note_on_c, 1, 57, 0
5, 16512, Note_on_c, 1, 48, 74
5, 16557, Note_on_c, 1, 48, 0
5, 16560, Note_on_c, 1, 47, 74
5, 16605, Note_on_c, 1, 47, 0
5, 16608, Note_on_c, 1, 45, 74
5, 16653, Note_on_c, 1, 45, 0
5, 16656, Note_on_c, 1, 48, 74
5, 16701, Note_on_c, 1, 48, 0
5, 16704, Note_on_c, 1, 47, 74
5, 16749, Note_on_c, 1, 47, 0
5, 16752, Note_on_c, 1, 59, 74
5, 16797, Note_on_c, 1, 59, 0
5, 16800, Note_on_c, 1, 52, 74
5, 16845, Note_on_c, 1, 52, 0
5, 16848, Note_on_c, 1, 53, 74
5, 16893, Note_on_c, 1, 53, 0
5, 16896, Note_on_c, 1, 52, 74
5, 16941, Note_on_c, 1, 52, 0
5, 16944, Note_on_c, 1, 50, 74
5, 16989, Note_on_c, 1, 50, 0
5, 16992, Note_on_c, 1, 48, 74
5, 17037, Note_on_c, 1, 48, 0
5, 17040, Note_on_c, 1, 47, 74
5, 17085, Note_on_c, 1, 47, 0
5, 17088, Note_on_c, 1, 45, 74
5, 17133, Note_on_c, 1, 45, 0
5, 17136, Note_on_c, 1, 57, 74
5, 17181, Note_on_c, 1, 57, 0
5, 17184, Note_on_c, 1, 54, 74
5, 17229, Note_on_c, 1, 54, 0
5, 17232, Note_on_c, 1, 52, 74
5, 17277, Note_on_c, 1, 52, 0
5, 17280, Note_on_c, 1, 51, 74
5, 17545, Note_on_c, 1, 51, 0
5, 17568, Note_on_c, 1, 52, 74
5, 17613, Note_on_c, 1, 52, 0
5, 17616, Note_on_c, 1, 51, 74
5, 17661, Note_on_c, 1, 51, 0
5, 17664, Note_on_c, 1, 52, 74
5, 17709, Note_on_c, 1, 52, 0
5, 17712, Note_on_c, 1, 48, 74
5, 17757, Note_on_c, 1, 48, 0
5, 17760, Note_on_c, 1, 47, 74
5, 17805, Note_on_c, 1, 47, 0
5, 17808, Note_on_c, 1, 46, 74
5, 17853, Note_on_c, 1, 46, 0
5, 18096, Note_on_c, 1, 51, 74
5, 18141, Note_on_c, 1, 51, 0
5, 18144, Note_on_c, 1, 52, 74
5, 18189, Note_on_c, 1, 52, 0
5, 18192, Note_on_c, 1, 59, 74
5, 18237, Note_on_c, 1, 59, 0
5, 18240, Note_on_c, 1, 55, 74
5, 18285, Note_on_c, 1, 55, 0
5, 18288, Note_on_c, 1, 54, 74
5, 18333, Note_on_c, 1, 54, 0
5, 18336, Note_on_c, 1, 52, 74
5, 18425, Note_on_c, 1, 52, 0
5, 18432, Note_on_c, 1, 54, 74
5, 18477, Note_on_c, 1, 54, 0
5, 18480, Note_on_c, 1, 60, 74
5, 18525, Note_on_c, 1, 60, 0
5, 18528, Note_on_c, 1, 57, 74
5, 18573, Note_on_c, 1, 57, 0
5, 18576, Note_on_c, 1, 55, 74
5, 18621, Note_on_c, 1, 55, 0
5, 18624, Note_on_c, 1, 54, 74
5, 18669, Note_on_c, 1, 54, 0
5, 18672, Note_on_c, 1, 52, 74
5, 18717, Note_on_c, 1, 52, 0
5, 18720, Note_on_c, 1, 51, 74
5, 18985, Note_on_c, 1, 51, 0
5, 19008, Note_on_c, 1, 52, 74
5, 19185, Note_on_c, 1, 52, 0
5, 19200, Note_on_c, 1, 55, 74
5, 19289, Note_on_c, 1, 55, 0
5, 19296, Note_on_c, 1, 54, 74
5, 19296, Note_on_c, 1, 51, 74
5, 19429, Note_on_c, 1, 54, 0
5, 19429, Note_on_c, 1, 51, 0
5, 19440, Note_on_c, 1, 55, 82
5, 19440, Note_on_c, 1, 52, 82
5, 19485, Note_on_c, 1, 55, 0
5, 19485, Note_on_c, 1, 52, 0
5, 19488, Note_on_c, 1, 54, 79
5, 19488, Note_on_c, 1, 51, 79
5, 19533, Note_on_c, 1, 54, 0
5, 19533, Note_on_c, 1, 51, 0
5, 19536, Note_on_c, 1, 52, 76
5, 19536, Note_on_c, 1, 49, 76
5, 19581, Note_on_c, 1, 52, 0
5, 19581, Note_on_c, 1, 49, 0
5, 19584, Note_on_c, 1, 54, 74
5, 19584, Note_on_c, 1, 51, 74
5, 19717, Note_on_c, 1, 54, 0
5, 19717, Note_on_c, 1, 51, 0
5, 19728, Note_on_c, 1, 55, 82
5, 19728, Note_on_c, 1, 52, 82
5, 19773, Note_on_c, 1, 55, 0
5, 19773, Note_on_c, 1, 52, 0
5, 19776, Note_on_c, 1, 54, 79
5, 19776, Note_on_c, 1, 51, 79
5, 19821, Note_on_c, 1, 54, 0
5, 19821, Note_on_c, 1, 51, 0
5, 19824, Note_on_c, 1, 52, 76
5, 19824, Note_on_c, 1, 49, 76
5, 19869, Note_on_c, 1, 52, 0
5, 19869, Note_on_c, 1, 49, 0
5, 19872, Note_on_c, 1, 52, 74
5, 19872, Note_on_c, 1, 49, 74
5, 20137, Note_on_c, 1, 52, 0
5, 20137, Note_on_c, 1, 49, 0
5, 20160, Note_on_c, 1, 35, 74
5, 20169, Note_on_c, 1, 47, 74
5, 20178, Note_on_c, 1, 51, 74
5, 20187, Note_on_c, 1, 54, 74
5, 20196, Note_on_c, 1, 59, 74
5, 20389, Note_on_c, 1, 59, 0
5, 20389, Note_on_c, 1, 54, 0
5, 20389, Note_on_c, 1, 51, 0
5, 20389, Note_on_c, 1, 47, 0
5, 20389, Note_on_c, 1, 35, 0
5, 20640, Note_on_c, 1, 56, 74
5, 20679, Note_on_c, 1, 56, 0
5, 20832, Note_on_c, 1, 64, 74
5, 20832, Note_on_c, 1, 61, 74
5, 20871, Note_on_c, 1, 64, 0
5, 20871, Note_on_c, 1, 61, 0
5, 21024, Note_on_c, 1, 57, 74
5, 21063, Note_on_c, 1, 57, 0
5, 21120, Note_on_c, 1, 58, 78
5, 21159, Note_on_c, 1, 58, 0
5, 21216, Note_on_c, 1, 47, 82
5, 21255, Note_on_c, 1, 47, 0
5, 21312, Note_on_c, 1, 35, 82
5, 21351, Note_on_c, 1, 35, 0
5, 21408, Note_on_c, 1, 56, 74
5, 21408, Note_on_c, 1, 52, 74
5, 21447, Note_on_c, 1, 56, 0
5, 21447, Note_on_c, 1, 52, 0
5, 21600, Note_on_c, 1, 64, 74
5, 21600, Note_on_c, 1, 61, 74
5, 21639, Note_on_c, 1, 64, 0
5, 21639, Note_on_c, 1, 61, 0
5, 21744, Note_on_c, 1, 52, 74
5, 21789, Note_on_c, 1, 52, 0
5, 21792, Note_on_c, 1, 52, 74
5, 21837, Note_on_c, 1, 52, 0
5, 21840, Note_on_c, 1, 51, 76
5, 21885, Note_on_c, 1, 51, 0
5, 21888, Note_on_c, 1, 52, 78
5, 21933, Note_on_c, 1, 52, 0
5, 21936, Note_on_c, 1, 54, 80
5, 21981, Note_on_c, 1, 54, 0
5, 21984, Note_on_c, 1, 56, 82
5, 22078, Note_on_c, 1, 56, 0
5, 22080, Note_on_c, 1, 44, 82
5, 22125, Note_on_c, 1, 44, 0
5, 22176, Note_on_c, 1, 56, 74
5, 22215, Note_on_c, 1, 56, 0
5, 22368, Note_on_c, 1, 64, 74
5, 22368, Note_on_c, 1, 61, 74
5, 22407, Note_on_c, 1, 64, 0
5, 22407, Note_on_c, 1, 61, 0
5, 22560, Note_on_c, 1, 57, 74
5, 22599, Note_on_c, 1, 57, 0
5, 22656, Note_on_c, 1, 58, 78
5, 22695, Note_on_c, 1, 58, 0
5, 22752, Note_on_c, 1, 47, 82
5, 22791, Note_on_c, 1, 47, 0
5, 22848, Note_on_c, 1, 35, 82
5, 22887, Note_on_c, 1, 35, 0
5, 22944, Note_on_c, 1, 56, 74
5, 22944, Note_on_c, 1, 52, 74
5, 22983, Note_on_c, 1, 56, 0
5, 22983, Note_on_c, 1, 52, 0
5, 23136, Note_on_c, 1, 64, 74
5, 23136, Note_on_c, 1, 61, 74
5, 23175, Note_on_c, 1, 64, 0
5, 23175, Note_on_c, 1, 61, 0
5, 23280, Note_on_c, 1, 52, 74
5, 23325, Note_on_c, 1, 52, 0
5, 23328, Note_on_c, 1, 52, 74
5, 23373, Note_on_c, 1, 52, 0
5, 23376, Note_on_c, 1, 51, 76
5, 23421, Note_on_c, 1, 51, 0
5, 23424, Note_on_c, 1, 52, 78
5, 23469, Note_on_c, 1, 52, 0
5, 23472, Note_on_c, 1, 54, 80
5, 23517, Note_on_c, 1, 54, 0
5, 23520, Note_on_c, 1, 56, 82
5, 23614, Note_on_c, 1, 56, 0
5, 23616, Note_on_c, 1, 44, 82
5, 23661, Note_on_c, 1, 44, 0
5, 23712, Note_on_c, 1, 56, 74
5, 23801, Note_on_c, 1, 56, 0
5, 23904, Note_on_c, 1, 63, 74
5, 23993, Note_on_c, 1, 63, 0
5, 24096, Note_on_c, 1, 52, 74
5, 24185, Note_on_c, 1, 52, 0
5, 24288, Note_on_c, 1, 59, 74
5, 24377, Note_on_c, 1, 59, 0
5, 24480, Note_on_c, 1, 54, 74
5, 24569, Note_on_c, 1, 54, 0
5, 24672, Note_on_c, 1, 57, 74
5, 24717, Note_on_c, 1, 57, 0
5, 24720, Note_on_c, 1, 56, 74
5, 24765, Note_on_c, 1, 56, 0
5, 24768, Note_on_c, 1, 57, 74
5, 24813, Note_on_c, 1, 57, 0
5, 24816, Note_on_c, 1, 56, 74
5, 24861, Note_on_c, 1, 56, 0
5, 24864, Note_on_c, 1, 49, 74
5, 24909, Note_on_c, 1, 49, 0
5, 24912, Note_on_c, 1, 47, 74
5, 24957, Note_on_c, 1, 47, 0
5, 24960, Note_on_c, 1, 49, 74
5, 25005, Note_on_c, 1, 49, 0
5, 25008, Note_on_c, 1, 51, 74
5, 25053, Note_on_c, 1, 51, 0
5, 25056, Note_on_c, 1, 52, 74
5, 25145, Note_on_c, 1, 52, 0
5, 25152, Note_on_c, 1, 40, 74
5, 25197, Note_on_c, 1, 40, 0
5, 25248, Note_on_c, 1, 56, 74
5, 25337, Note_on_c, 1, 56, 0
5, 25440, Note_on_c, 1, 63, 74
5, 25529, Note_on_c, 1, 63, 0
5, 25632, Note_on_c, 1, 52, 74
5, 25721, Note_on_c, 1, 52, 0
5, 25824, Note_on_c, 1, 59, 74
5, 25913, Note_on_c, 1, 59, 0
5, 26016, Note_on_c, 1, 54, 74
5, 26105, Note_on_c, 1, 54, 0
5, 26208, Note_on_c, 1, 57, 74
5, 26253, Note_on_c, 1, 57, 0
5, 26256, Note_on_c, 1, 56, 74
5, 26301, Note_on_c, 1, 56, 0
5, 26304, Note_on_c, 1, 57, 74
5, 26349, Note_on_c, 1, 57, 0
5, 26352, Note_on_c, 1, 56, 74
5, 26397, Note_on_c, 1, 56, 0
5, 26400, Note_on_c, 1, 49, 74
5, 26445, Note_on_c, 1, 49, 0
5, 26448, Note_on_c, 1, 47, 74
5, 26493, Note_on_c, 1, 47, 0
5, 26496, Note_on_c, 1, 49, 74
5, 26541, Note_on_c, 1, 49, 0
5, 26544, Note_on_c, 1, 51, 74
5, 26589, Note_on_c, 1, 51, 0
5, 26592, Note_on_c, 1, 52, 74
5, 26681, Note_on_c, 1, 52, 0
5, 26688, Note_on_c, 1, 40, 74
5, 26733, Note_on_c, 1, 40, 0
5, 26784, Note_on_c, 1, 56, 74
5, 26784, Note_on_c, 1, 52, 74
5, 26873, Note_on_c, 1, 56, 0
5, 26873, Note_on_c, 1, 52, 0
5, 26976, Note_on_c, 1, 64, 74
5, 26976, Note_on_c, 1, 61, 74
5, 27065, Note_on_c, 1, 64, 0
5, 27065, Note_on_c, 1, 61, 0
5, 27168, Note_on_c, 1, 45, 74
5, 27257, Note_on_c, 1, 45, 0
5, 27264, Note_on_c, 1, 46, 78
5, 27353, Note_on_c, 1, 46, 0
5, 27384, Note_on_c, 1, 47, 82
5, 27407, Note_on_c, 1, 47, 0
5, 27408, Note_on_c, 1, 46, 82
5, 27431, Note_on_c, 1, 46, 0
5, 27432, Note_on_c, 1, 47, 82
5, 27455, Note_on_c, 1, 47, 0
5, 27456, Note_on_c, 1, 35, 82
5, 27501, Note_on_c, 1, 35, 0
5, 27552, Note_on_c, 1, 56, 74
5, 27552, Note_on_c, 1, 52, 74
5, 27641, Note_on_c, 1, 56, 0
5, 27641, Note_on_c, 1, 52, 0
5, 27744, Note_on_c, 1, 64, 74
5, 27744, Note_on_c, 1, 61, 74
5, 27833, Note_on_c, 1, 64, 0
5, 27833, Note_on_c, 1, 61, 0
5, 27888, Note_on_c, 1, 52, 74
5, 27933, Note_on_c, 1, 52, 0
5, 27936, Note_on_c, 1, 52, 74
5, 27981, Note_on_c, 1, 52, 0
5, 27984, Note_on_c, 1, 51, 76
5, 28029, Note_on_c, 1, 51, 0
5, 28032, Note_on_c, 1, 52, 78
5, 28077, Note_on_c, 1, 52, 0
5, 28080, Note_on_c, 1, 54, 80
5, 28125, Note_on_c, 1, 54, 0
5, 28128, Note_on_c, 1, 56, 82
5, 28222, Note_on_c, 1, 56, 0
5, 28224, Note_on_c, 1, 44, 82
5, 28269, Note_on_c, 1, 44, 0
5, 28320, Note_on_c, 1, 56, 74
5, 28320, Note_on_c, 1, 52, 74
5, 28409, Note_on_c, 1, 56, 0
5, 28409, Note_on_c, 1, 52, 0
5, 28512, Note_on_c, 1, 64, 74
5, 28512, Note_on_c, 1, 61, 74
5, 28601, Note_on_c, 1, 64, 0
5, 28601, Note_on_c, 1, 61, 0
5, 28704, Note_on_c, 1, 45, 74
5, 28793, Note_on_c, 1, 45, 0
5, 28800, Note_on_c, 1, 46, 78
5, 28889, Note_on_c, 1, 46, 0
5, 28920, Note_on_c, 1, 47, 82
5, 28943, Note_on_c, 1, 47, 0
5, 28944, Note_on_c, 1, 46, 82
5, 28967, Note_on_c, 1, 46, 0
5, 28968, Note_on_c, 1, 47, 82
5, 28991, Note_on_c, 1, 47, 0
5, 28992, Note_on_c, 1, 35, 82
5, 29037, Note_on_c, 1, 35, 0
5, 29088, Note_on_c, 1, 56, 74
5, 29088, Note_on_c, 1, 52, 74
5, 29177, Note_on_c, 1, 56, 0
5, 29177, Note_on_c, 1, 52, 0
5, 29280, Note_on_c, 1, 64, 74
5, 29280, Note_on_c, 1, 61, 74
5, 29369, Note_on_c, 1, 64, 0
5, 29369, Note_on_c, 1, 61, 0
5, 29424, Note_on_c, 1, 52, 74
5, 29469, Note_on_c, 1, 52, 0
5, 29472, Note_on_c, 1, 52, 74
5, 29517, Note_on_c, 1, 52, 0
5, 29520, Note_on_c, 1, 51, 76
5, 29565, Note_on_c, 1, 51, 0
5, 29568, Note_on_c, 1, 52, 78
5, 29613, Note_on_c, 1, 52, 0
5, 29616, Note_on_c, 1, 54, 80
5, 29661, Note_on_c, 1, 54, 0
5, 29664, Note_on_c, 1, 56, 82
5, 29758, Note_on_c, 1, 56, 0
5, 29760, Note_on_c, 1, 44, 82
5, 29805, Note_on_c, 1, 44, 0
5, 29856, Note_on_c, 1, 63, 74
5, 29856, Note_on_c, 1, 56, 74
5, 29945, Note_on_c, 1, 63, 0
5, 29945, Note_on_c, 1, 56, 0
5, 30048, Note_on_c, 1, 67, 74
5, 30048, Note_on_c, 1, 63, 74
5, 30137, Note_on_c, 1, 67, 0
5, 30137, Note_on_c, 1, 63, 0
5, 30240, Note_on_c, 1, 59, 74
5, 30240, Note_on_c, 1, 52, 74
5, 30329, Note_on_c, 1, 59, 0
5, 30329, Note_on_c, 1, 52, 0
5, 30432, Note_on_c, 1, 63, 74
5, 30432, Note_on_c, 1, 59, 74
5, 30521, Note_on_c, 1, 63, 0
5, 30521, Note_on_c, 1, 59, 0
5, 30624, Note_on_c, 1, 61, 74
5, 30624, Note_on_c, 1, 54, 74
5, 30713, Note_on_c, 1, 61, 0
5, 30713, Note_on_c, 1, 54, 0
5, 30816, Note_on_c, 1, 57, 74
5, 30861, Note_on_c, 1, 57, 0
5, 30864, Note_on_c, 1, 56, 74
5, 30909, Note_on_c, 1, 56, 0
5, 30912, Note_on_c, 1, 57, 74
5, 30957, Note_on_c, 1, 57, 0
5, 30960, Note_on_c, 1, 56, 74
5, 31005, Note_on_c, 1, 56, 0
5, 31008, Note_on_c, 1, 49, 74
5, 31053, Note_on_c, 1, 49, 0
5, 31056, Note_on_c, 1, 47, 74
5, 31101, Note_on_c, 1, 47, 0
5, 31104, Note_on_c, 1, 49, 74
5, 31149, Note_on_c, 1, 49, 0
5, 31152, Note_on_c, 1, 51, 74
5, 31197, Note_on_c, 1, 51, 0
5, 31200, Note_on_c, 1, 52, 74
5, 31289, Note_on_c, 1, 52, 0
5, 31296, Note_on_c, 1, 40, 74
5, 31341, Note_on_c, 1, 40, 0
5, 31392, Note_on_c, 1, 63, 74
5, 31392, Note_on_c, 1, 56, 74
5, 31481, Note_on_c, 1, 63, 0
5, 31481, Note_on_c, 1, 56, 0
5, 31584, Note_on_c, 1, 67, 74
5, 31584, Note_on_c, 1, 63, 74
5, 31673, Note_on_c, 1, 67, 0
5, 31673, Note_on_c, 1, 63, 0
5, 31776, Note_on_c, 1, 59, 74
5, 31776, Note_on_c, 1, 52, 74
5, 31865, Note_on_c, 1, 59, 0
5, 31865, Note_on_c, 1, 52, 0
5, 31968, Note_on_c, 1, 63, 74
5, 31968, Note_on_c, 1, 59, 74
5, 32057, Note_on_c, 1, 63, 0
5, 32057, Note_on_c, 1, 59, 0
5, 32160, Note_on_c, 1, 61, 74
5, 32160, Note_on_c, 1, 54, 74
5, 32249, Note_on_c, 1, 61, 0
5, 32249, Note_on_c, 1, 54, 0
5, 32352, Note_on_c, 1, 57, 74
5, 32397, Note_on_c, 1, 57, 0
5, 32400, Note_on_c, 1, 56, 74
5, 32445, Note_on_c, 1, 56, 0
5, 32448, Note_on_c, 1, 57, 74
5, 32493, Note_on_c, 1, 57, 0
5, 32496, Note_on_c, 1, 56, 74
5, 32541, Note_on_c, 1, 56, 0
5, 32544, Note_on_c, 1, 49, 74
5, 32589, Note_on_c, 1, 49, 0
5, 32592, Note_on_c, 1, 47, 74
5, 32637, Note_on_c, 1, 47, 0
5, 32640, Note_on_c, 1, 49, 74
5, 32685, Note_on_c, 1, 49, 0
5, 32688, Note_on_c, 1, 51, 74
5, 32733, Note_on_c, 1, 51, 0
5, 32736, Note_on_c, 1, 52, 74
5, 32825, Note_on_c, 1, 52, 0
5, 32832, Note_on_c, 1, 40, 74
5, 32877, Note_on_c, 1, 40, 0
5, 32928, Note_on_c, 1, 64, 74
5, 33017, Note_on_c, 1, 64, 0
5, 33072, Note_on_c, 1, 71, 74
5, 33072, Note_on_c, 1, 64, 74
5, 33117, Note_on_c, 1, 71, 0
5, 33117, Note_on_c, 1, 64, 0
5, 33120, Note_on_c, 1, 71, 74
5, 33165, Note_on_c, 1, 71, 0
5, 33168, Note_on_c, 1, 69, 74
5, 33213, Note_on_c, 1, 69, 0
5, 33216, Note_on_c, 1, 68, 74
5, 33261, Note_on_c, 1, 68, 0
5, 33312, Note_on_c, 1, 64, 74
5, 33312, Note_on_c, 1, 61, 74
5, 33401, Note_on_c, 1, 64, 0
5, 33401, Note_on_c, 1, 61, 0
5, 33408, Note_on_c, 1, 76, 78
5, 33408, Note_on_c, 1, 73, 78
5, 33504, Note_on_c, 1, 73, 0
5, 33504, Note_on_c, 1, 71, 82
5, 33593, Note_on_c, 1, 76, 0
5, 33593, Note_on_c, 1, 71, 0
5, 33600, Note_on_c, 1, 75, 82
5, 33645, Note_on_c, 1, 75, 0
5, 33696, Note_on_c, 1, 64, 74
5, 33785, Note_on_c, 1, 64, 0
5, 33840, Note_on_c, 1, 71, 74
5, 33885, Note_on_c, 1, 71, 0
5, 33888, Note_on_c, 1, 71, 74
5, 33933, Note_on_c, 1, 71, 0
5, 33936, Note_on_c, 1, 69, 76
5, 33981, Note_on_c, 1, 69, 0
5, 33984, Note_on_c, 1, 68, 78
5, 34029, Note_on_c, 1, 68, 0
5, 34032, Note_on_c, 1, 70, 80
5, 34077, Note_on_c, 1, 70, 0
5, 34080, Note_on_c, 1, 71, 82
5, 34125, Note_on_c, 1, 71, 0
5, 34272, Note_on_c, 1, 59, 74
5, 34361, Note_on_c, 1, 59, 0
5, 34368, Note_on_c, 1, 47, 74
5, 34413, Note_on_c, 1, 47, 0
5, 34464, Note_on_c, 1, 64, 74
5, 34553, Note_on_c, 1, 64, 0
5, 34608, Note_on_c, 1, 71, 74
5, 34608, Note_on_c, 1, 64, 74
5, 34653, Note_on_c, 1, 71, 0
5, 34653, Note_on_c, 1, 64, 0
5, 34656, Note_on_c, 1, 71, 74
5, 34701, Note_on_c, 1, 71, 0
5, 34704, Note_on_c, 1, 69, 74
5, 34749, Note_on_c, 1, 69, 0
5, 34752, Note_on_c, 1, 68, 74
5, 34797, Note_on_c, 1, 68, 0
5, 34848, Note_on_c, 1, 64, 74
5, 34848, Note_on_c, 1, 61, 74
5, 34937, Note_on_c, 1, 64, 0
5, 34937, Note_on_c, 1, 61, 0
5, 34944, Note_on_c, 1, 76, 78
5, 34944, Note_on_c, 1, 73, 78
5, 35040, Note_on_c, 1, 73, 0
5, 35040, Note_on_c, 1, 71, 82
5, 35129, Note_on_c, 1, 76, 0
5, 35129, Note_on_c, 1, 71, 0
5, 35136, Note_on_c, 1, 75, 82
5, 35181, Note_on_c, 1, 75, 0
5, 35232, Note_on_c, 1, 64, 74
5, 35321, Note_on_c, 1, 64, 0
5, 35376, Note_on_c, 1, 71, 74
5, 35421, Note_on_c, 1, 71, 0
5, 35424, Note_on_c, 1, 71, 74
5, 35469, Note_on_c, 1, 71, 0
5, 35472, Note_on_c, 1, 69, 76
5, 35517, Note_on_c, 1, 69, 0
5, 35520, Note_on_c, 1, 68, 78
5, 35565, Note_on_c, 1, 68, 0
5, 35568, Note_on_c, 1, 70, 80
5, 35613, Note_on_c, 1, 70, 0
5, 35616, Note_on_c, 1, 71, 82
5, 35661, Note_on_c, 1, 71, 0
5, 35808, Note_on_c, 1, 59, 74
5, 35897, Note_on_c, 1, 59, 0
5, 35904, Note_on_c, 1, 47, 74
5, 35949, Note_on_c, 1, 47, 0
5, 36000, Note_on_c, 1, 59, 74
5, 36089, Note_on_c, 1, 59, 0
5, 36192, Note_on_c, 1, 59, 74
5, 36281, Note_on_c, 1, 59, 0
5, 36336, Note_on_c, 1, 63, 74
5, 36381, Note_on_c, 1, 63, 0
5, 36384, Note_on_c, 1, 63, 75
5, 36429, Note_on_c, 1, 63, 0
5, 36432, Note_on_c, 1, 64, 77
5, 36477, Note_on_c, 1, 64, 0
5, 36480, Note_on_c, 1, 66, 78
5, 36525, Note_on_c, 1, 66, 0
5, 36528, Note_on_c, 1, 68, 80
5, 36573, Note_on_c, 1, 68, 0
5, 36576, Note_on_c, 1, 69, 82
5, 36665, Note_on_c, 1, 69, 0
5, 36720, Note_on_c, 1, 68, 74
5, 36765, Note_on_c, 1, 68, 0
5, 36768, Note_on_c, 1, 68, 74
5, 36813, Note_on_c, 1, 68, 0
5, 36816, Note_on_c, 1, 66, 74
5, 36861, Note_on_c, 1, 66, 0
5, 36864, Note_on_c, 1, 64, 74
5, 36909, Note_on_c, 1, 64, 0
5, 36912, Note_on_c, 1, 63, 74
5, 36932, Note_on_c, 1, 63, 0
5, 36960, Note_on_c, 1, 63, 74
5, 37005, Note_on_c, 1, 63, 0
5, 37008, Note_on_c, 1, 64, 74
5, 37053, Note_on_c, 1, 64, 0
5, 37056, Note_on_c, 1, 66, 74
5, 37101, Note_on_c, 1, 66, 0
5, 37104, Note_on_c, 1, 64, 74
5, 37124, Note_on_c, 1, 64, 0
5, 37152, Note_on_c, 1, 59, 74
5, 37241, Note_on_c, 1, 59, 0
5, 37296, Note_on_c, 1, 59, 74
5, 37341, Note_on_c, 1, 59, 0
5, 37344, Note_on_c, 1, 64, 74
5, 37433, Note_on_c, 1, 64, 0
5, 37440, Note_on_c, 1, 52, 74
5, 37485, Note_on_c, 1, 52, 0
5, 37536, Note_on_c, 1, 59, 74
5, 37625, Note_on_c, 1, 59, 0
5, 37728, Note_on_c, 1, 59, 74
5, 37817, Note_on_c, 1, 59, 0
5, 37872, Note_on_c, 1, 63, 74
5, 37917, Note_on_c, 1, 63, 0
5, 37920, Note_on_c, 1, 63, 75
5, 37965, Note_on_c, 1, 63, 0
5, 37968, Note_on_c, 1, 64, 77
5, 38013, Note_on_c, 1, 64, 0
5, 38016, Note_on_c, 1, 66, 78
5, 38061, Note_on_c, 1, 66, 0
5, 38064, Note_on_c, 1, 68, 80
5, 38109, Note_on_c, 1, 68, 0
5, 38112, Note_on_c, 1, 69, 82
5, 38201, Note_on_c, 1, 69, 0
5, 38256, Note_on_c, 1, 68, 74
5, 38301, Note_on_c, 1, 68, 0
5, 38304, Note_on_c, 1, 68, 74
5, 38349, Note_on_c, 1, 68, 0
5, 38352, Note_on_c, 1, 66, 74
5, 38397, Note_on_c, 1, 66, 0
5, 38400, Note_on_c, 1, 64, 74
5, 38445, Note_on_c, 1, 64, 0
5, 38448, Note_on_c, 1, 63, 74
5, 38468, Note_on_c, 1, 63, 0
5, 38496, Note_on_c, 1, 63, 74
5, 38541, Note_on_c, 1, 63, 0
5, 38544, Note_on_c, 1, 64, 74
5, 38589, Note_on_c, 1, 64, 0
5, 38592, Note_on_c, 1, 66, 74
5, 38637, Note_on_c, 1, 66, 0
5, 38640, Note_on_c, 1, 64, 74
5, 38660, Note_on_c, 1, 64, 0
5, 38688, Note_on_c, 1, 59, 74
5, 38777, Note_on_c, 1, 59, 0
5, 38832, Note_on_c, 1, 59, 74
5, 38877, Note_on_c, 1, 59, 0
5, 38880, Note_on_c, 1, 64, 74
5, 38969, Note_on_c, 1, 64, 0
5, 38976, Note_on_c, 1, 52, 74
5, 39021, Note_on_c, 1, 52, 0
5, 39072, Note_on_c, 1, 40, 82
5, 39095, Note_on_c, 1, 40, 0
5, 39096, Note_on_c, 1, 52, 82
5, 39119, Note_on_c, 1, 52, 0
5, 39120, Note_on_c, 1, 51, 82
5, 39143, Note_on_c, 1, 51, 0
5, 39144, Note_on_c, 1, 52, 82
5, 39167, Note_on_c, 1, 52, 0
5, 39168, Note_on_c, 1, 40, 82
5, 39191, Note_on_c, 1, 40, 0
5, 39192, Note_on_c, 1, 52, 82
5, 39215, Note_on_c, 1, 52, 0
5, 39216, Note_on_c, 1, 40, 82
5, 39239, Note_on_c, 1, 40, 0
5, 39240, Note_on_c, 1, 52, 82
5, 39263, Note_on_c, 1, 52, 0
5, 39264, Note_on_c, 1, 40, 82
5, 39287, Note_on_c, 1, 40, 0
5, 39288, Note_on_c, 1, 52, 82
5, 39311, Note_on_c, 1, 52, 0
5, 39312, Note_on_c, 1, 51, 82
5, 39335, Note_on_c, 1, 51, 0
5, 39336, Note_on_c, 1, 52, 82
5, 39359, Note_on_c, 1, 52, 0
5, 39360, Note_on_c, 1, 40, 82
5, 39383, Note_on_c, 1, 40, 0
5, 39384, Note_on_c, 1, 52, 82
5, 39407, Note_on_c, 1, 52, 0
5, 39408, Note_on_c, 1, 40, 82
5, 39431, Note_on_c, 1, 40, 0
5, 39432, Note_on_c, 1, 52, 82
5, 39455, Note_on_c, 1, 52, 0
5, 39456, Note_on_c, 1, 51, 82
5, 39479, Note_on_c, 1, 51, 0
5, 39480, Note_on_c, 1, 59, 82
5, 39503, Note_on_c, 1, 59, 0
5, 39504, Note_on_c, 1, 51, 82
5, 39527, Note_on_c, 1, 51, 0
5, 39528, Note_on_c, 1, 59, 82
5, 39551, Note_on_c, 1, 59, 0
5, 39552, Note_on_c, 1, 52, 82
5, 39575, Note_on_c, 1, 52, 0
5, 39576, Note_on_c, 1, 59, 82
5, 39599, Note_on_c, 1, 59, 0
5, 39600, Note_on_c, 1, 52, 82
5, 39623, Note_on_c, 1, 52, 0
5, 39624, Note_on_c, 1, 59, 82
5, 39647, Note_on_c, 1, 59, 0
5, 39648, Note_on_c, 1, 47, 82
5, 39671, Note_on_c, 1, 47, 0
5, 39672, Note_on_c, 1, 59, 82
5, 39695, Note_on_c, 1, 59, 0
5, 39696, Note_on_c, 1, 58, 82
5, 39719, Note_on_c, 1, 58, 0
5, 39720, Note_on_c, 1, 59, 82
5, 39743, Note_on_c, 1, 59, 0
5, 39744, Note_on_c, 1, 47, 82
5, 39789, Note_on_c, 1, 47, 0
5, 39840, Note_on_c, 1, 31, 82
5, 39863, Note_on_c, 1, 31, 0
5, 39864, Note_on_c, 1, 43, 82
5, 39887, Note_on_c, 1, 43, 0
5, 39888, Note_on_c, 1, 42, 82
5, 39911, Note_on_c, 1, 42, 0
5, 39912, Note_on_c, 1, 43, 82
5, 39935, Note_on_c, 1, 43, 0
5, 39936, Note_on_c, 1, 31, 82
5, 39959, Note_on_c, 1, 31, 0
5, 39960, Note_on_c, 1, 43, 82
5, 39983, Note_on_c, 1, 43, 0
5, 39984, Note_on_c, 1, 31, 82
5, 40007, Note_on_c, 1, 31, 0
5, 40008, Note_on_c, 1, 43, 82
5, 40031, Note_on_c, 1, 43, 0
5, 40032, Note_on_c, 1, 36, 82
5, 40055, Note_on_c, 1, 36, 0
5, 40056, Note_on_c, 1, 48, 82
5, 40079, Note_on_c, 1, 48, 0
5, 40080, Note_on_c, 1, 47, 82
5, 40103, Note_on_c, 1, 47, 0
5, 40104, Note_on_c, 1, 48, 82
5, 40127, Note_on_c, 1, 48, 0
5, 40128, Note_on_c, 1, 36, 82
5, 40151, Note_on_c, 1, 36, 0
5, 40152, Note_on_c, 1, 48, 82
5, 40175, Note_on_c, 1, 48, 0
5, 40176, Note_on_c, 1, 36, 82
5, 40199, Note_on_c, 1, 36, 0
5, 40200, Note_on_c, 1, 48, 82
5, 40223, Note_on_c, 1, 48, 0
5, 40224, Note_on_c, 1, 38, 82
5, 40247, Note_on_c, 1, 38, 0
5, 40248, Note_on_c, 1, 50, 82
5, 40271, Note_on_c, 1, 50, 0
5, 40272, Note_on_c, 1, 38, 82
5, 40295, Note_on_c, 1, 38, 0
5, 40296, Note_on_c, 1, 50, 82
5, 40319, Note_on_c, 1, 50, 0
5, 40320, Note_on_c, 1, 38, 82
5, 40343, Note_on_c, 1, 38, 0
5, 40344, Note_on_c, 1, 50, 82
5, 40367, Note_on_c, 1, 50, 0
5, 40368, Note_on_c, 1, 38, 82
5, 40391, Note_on_c, 1, 38, 0
5, 40392, Note_on_c, 1, 50, 82
5, 40415, Note_on_c, 1, 50, 0
5, 40416, Note_on_c, 1, 31, 82
5, 40439, Note_on_c, 1, 31, 0
5, 40440, Note_on_c, 1, 43, 82
5, 40463, Note_on_c, 1, 43, 0
5, 40464, Note_on_c, 1, 42, 82
5, 40487, Note_on_c, 1, 42, 0
5, 40488, Note_on_c, 1, 43, 82
5, 40511, Note_on_c, 1, 43, 0
5, 40512, Note_on_c, 1, 31, 82
5, 40557, Note_on_c, 1, 31, 0
5, 40608, Note_on_c, 1, 40, 82
5, 40631, Note_on_c, 1, 40, 0
5, 40632, Note_on_c, 1, 52, 82
5, 40655, Note_on_c, 1, 52, 0
5, 40656, Note_on_c, 1, 51, 82
5, 40679, Note_on_c, 1, 51, 0
5, 40680, Note_on_c, 1, 52, 82
5, 40703, Note_on_c, 1, 52, 0
5, 40704, Note_on_c, 1, 40, 82
5, 40727, Note_on_c, 1, 40, 0
5, 40728, Note_on_c, 1, 52, 82
5, 40751, Note_on_c, 1, 52, 0
5, 40752, Note_on_c, 1, 40, 82
5, 40775, Note_on_c, 1, 40, 0
5, 40776, Note_on_c, 1, 52, 82
5, 40799, Note_on_c, 1, 52, 0
5, 40800, Note_on_c, 1, 40, 82
5, 40823, Note_on_c, 1, 40, 0
5, 40824, Note_on_c, 1, 52, 82
5, 40847, Note_on_c, 1, 52, 0
5, 40848, Note_on_c, 1, 51, 82
5, 40871, Note_on_c, 1, 51, 0
5, 40872, Note_on_c, 1, 52, 82
5, 40895, Note_on_c, 1, 52, 0
5, 40896, Note_on_c, 1, 40, 82
5, 40919, Note_on_c, 1, 40, 0
5, 40920, Note_on_c, 1, 52, 82
5, 40943, Note_on_c, 1, 52, 0
5, 40944, Note_on_c, 1, 40, 82
5, 40967, Note_on_c, 1, 40, 0
5, 40968, Note_on_c, 1, 52, 82
5, 40991, Note_on_c, 1, 52, 0
5, 40992, Note_on_c, 1, 51, 82
5, 41015, Note_on_c, 1, 51, 0
5, 41016, Note_on_c, 1, 59, 82
5, 41039, Note_on_c, 1, 59, 0
5, 41040, Note_on_c, 1, 51, 82
5, 41063, Note_on_c, 1, 51, 0
5, 41064, Note_on_c, 1, 59, 82
5, 41087, Note_on_c, 1, 59, 0
5, 41088, Note_on_c, 1, 52, 82
5, 41111, Note_on_c, 1, 52, 0
5, 41112, Note_on_c, 1, 59, 82
5, 41135, Note_on_c, 1, 59, 0
5, 41136, Note_on_c, 1, 52, 82
5, 41159, Note_on_c, 1, 52, 0
5, 41160, Note_on_c, 1, 59, 82
5, 41183, Note_on_c, 1, 59, 0
5, 41184, Note_on_c, 1, 47, 82
5, 41207, Note_on_c, 1, 47, 0
5, 41208, Note_on_c, 1, 59, 82
5, 41231, Note_on_c, 1, 59, 0
5, 41232, Note_on_c, 1, 58, 82
5, 41255, Note_on_c, 1, 58, 0
5, 41256, Note_on_c, 1, 59, 82
5, 41279, Note_on_c, 1, 59, 0
5, 41280, Note_on_c, 1, 47, 82
5, 41325, Note_on_c, 1, 47, 0
5, 41376, Note_on_c, 1, 31, 82
5, 41399, Note_on_c, 1, 31, 0
5, 41400, Note_on_c, 1, 43, 82
5, 41423, Note_on_c, 1, 43, 0
5, 41424, Note_on_c, 1, 42, 82
5, 41447, Note_on_c, 1, 42, 0
5, 41448, Note_on_c, 1, 43, 82
5, 41471, Note_on_c, 1, 43, 0
5, 41472, Note_on_c, 1, 31, 82
5, 41495, Note_on_c, 1, 31, 0
5, 41496, Note_on_c, 1, 43, 82
5, 41519, Note_on_c, 1, 43, 0
5, 41520, Note_on_c, 1, 31, 82
5, 41543, Note_on_c, 1, 31, 0
5, 41544, Note_on_c, 1, 43, 82
5, 41567, Note_on_c, 1, 43, 0
5, 41568, Note_on_c, 1, 36, 82
5, 41591, Note_on_c, 1, 36, 0
5, 41592, Note_on_c, 1, 48, 82
5, 41615, Note_on_c, 1, 48, 0
5, 41616, Note_on_c, 1, 47, 82
5, 41639, Note_on_c, 1, 47, 0
5, 41640, Note_on_c, 1, 48, 82
5, 41663, Note_on_c, 1, 48, 0
5, 41664, Note_on_c, 1, 36, 82
5, 41687, Note_on_c, 1, 36, 0
5, 41688, Note_on_c, 1, 48, 82
5, 41711, Note_on_c, 1, 48, 0
5, 41712, Note_on_c, 1, 36, 82
5, 41735, Note_on_c, 1, 36, 0
5, 41736, Note_on_c, 1, 48, 82
5, 41759, Note_on_c, 1, 48, 0
5, 41760, Note_on_c, 1, 38, 82
5, 41783, Note_on_c, 1, 38, 0
5, 41784, Note_on_c, 1, 50, 82
5, 41807, Note_on_c, 1, 50, 0
5, 41808, Note_on_c, 1, 38, 82
5, 41831, Note_on_c, 1, 38, 0
5, 41832, Note_on_c, 1, 50, 82
5, 41855, Note_on_c, 1, 50, 0
5, 41856, Note_on_c, 1, 38, 82
5, 41879, Note_on_c, 1, 38, 0
5, 41880, Note_on_c, 1, 50, 82
5, 41903, Note_on_c, 1, 50, 0
5, 41904, Note_on_c, 1, 38, 82
5, 41927, Note_on_c, 1, 38, 0
5, 41928, Note_on_c, 1, 50, 82
5, 41951, Note_on_c, 1, 50, 0
5, 41952, Note_on_c, 1, 31, 82
5, 41975, Note_on_c, 1, 31, 0
5, 41976, Note_on_c, 1, 43, 82
5, 41999, Note_on_c, 1, 43, 0
5, 42000, Note_on_c, 1, 42, 82
5, 42023, Note_on_c, 1, 42, 0
5, 42024, Note_on_c, 1, 43, 82
5, 42047, Note_on_c, 1, 43, 0
5, 42048, Note_on_c, 1, 31, 82
5, 42093, Note_on_c, 1, 31, 0
5, 42144, Note_on_c, 1, 69, 82
5, 42144, Note_on_c, 1, 66, 82
5, 42144, Note_on_c, 1, 63, 82
5, 42233, Note_on_c, 1, 69, 0
5, 42233, Note_on_c, 1, 66, 0
5, 42233, Note_on_c, 1, 63, 0
5, 42288, Note_on_c, 1, 69, 82
5, 42288, Note_on_c, 1, 66, 82
5, 42288, Note_on_c, 1, 63, 82
5, 42333, Note_on_c, 1, 69, 0
5, 42333, Note_on_c, 1, 66, 0
5, 42333, Note_on_c, 1, 63, 0
5, 42336, Note_on_c, 1, 67, 82
5, 42336, Note_on_c, 1, 64, 82
5, 42425, Note_on_c, 1, 67, 0
5, 42425, Note_on_c, 1, 64, 0
5, 42480, Note_on_c, 1, 67, 82
5, 42480, Note_on_c, 1, 64, 82
5, 42525, Note_on_c, 1, 67, 0
5, 42525, Note_on_c, 1, 64, 0
5, 42528, Note_on_c, 1, 66, 82
5, 42528, Note_on_c, 1, 63, 82
5, 42528, Note_on_c, 1, 57, 82
5, 42617, Note_on_c, 1, 66, 0
5, 42617, Note_on_c, 1, 63, 0
5, 42617, Note_on_c, 1, 57, 0
5, 42672, Note_on_c, 1, 66, 82
5, 42672, Note_on_c, 1, 63, 82
5, 42672, Note_on_c, 1, 57, 82
5, 42717, Note_on_c, 1, 66, 0
5, 42717, Note_on_c, 1, 63, 0
5, 42717, Note_on_c, 1, 57, 0
5, 42720, Note_on_c, 1, 64, 82
5, 42720, Note_on_c, 1, 59, 82
5, 42720, Note_on_c, 1, 55, 82
5, 42809, Note_on_c, 1, 64, 0
5, 42809, Note_on_c, 1, 59, 0
5, 42809, Note_on_c, 1, 55, 0
5, 42864, Note_on_c, 1, 64, 82
5, 42864, Note_on_c, 1, 59, 82
5, 42864, Note_on_c, 1, 55, 82
5, 42909, Note_on_c, 1, 64, 0
5, 42909, Note_on_c, 1, 59, 0
5, 42909, Note_on_c, 1, 55, 0
5, 42912, Note_on_c, 1, 66, 82
5, 42912, Note_on_c, 1, 63, 82
5, 42912, Note_on_c, 1, 60, 82
5, 42912, Note_on_c, 1, 57, 82
5, 43089, Note_on_c, 1, 66, 0
5, 43089, Note_on_c, 1, 63, 0
5, 43089, Note_on_c, 1, 60, 0
5, 43089, Note_on_c, 1, 57, 0
5, 43104, Note_on_c, 1, 64, 82
5, 43104, Note_on_c, 1, 59, 82
5, 43104, Note_on_c, 1, 55, 82
5, 43193, Note_on_c, 1, 64, 0
5, 43193, Note_on_c, 1, 59, 0
5, 43193, Note_on_c, 1, 55, 0
5, 43248, Note_on_c, 1, 64, 82
5, 43248, Note_on_c, 1, 59, 82
5, 43248, Note_on_c, 1, 55, 82
5, 43293, Note_on_c, 1, 64, 0
5, 43293, Note_on_c, 1, 59, 0
5, 43293, Note_on_c, 1, 55, 0
5, 43296, Note_on_c, 1, 64, 82
5, 43296, Note_on_c, 1, 60, 82
5, 43296, Note_on_c, 1, 57, 82
5, 43385, Note_on_c, 1, 64, 0
5, 43385, Note_on_c, 1, 60, 0
5, 43385, Note_on_c, 1, 57, 0
5, 43392, Note_on_c, 1, 69, 82
5, 43392, Note_on_c, 1, 66, 82
5, 43392, Note_on_c, 1, 59, 82
5, 43481, Note_on_c, 1, 69, 0
5, 43481, Note_on_c, 1, 66, 0
5, 43481, Note_on_c, 1, 59, 0
5, 43488, Note_on_c, 1, 67, 82
5, 43488, Note_on_c, 1, 64, 82
5, 43577, Note_on_c, 1, 67, 0
5, 43577, Note_on_c, 1, 64, 0
5, 43584, Note_on_c, 1, 52, 82
5, 43629, Note_on_c, 1, 52, 0
5, 43680, Note_on_c, 1, 69, 82
5, 43680, Note_on_c, 1, 66, 82
5, 43680, Note_on_c, 1, 63, 82
5, 43769, Note_on_c, 1, 69, 0
5, 43769, Note_on_c, 1, 66, 0
5, 43769, Note_on_c, 1, 63, 0
5, 43824, Note_on_c, 1, 69, 82
5, 43824, Note_on_c, 1, 66, 82
5, 43824, Note_on_c, 1, 63, 82
5, 43869, Note_on_c, 1, 69, 0
5, 43869, Note_on_c, 1, 66, 0
5, 43869, Note_on_c, 1, 63, 0
5, 43872, Note_on_c, 1, 67, 82
5, 43872, Note_on_c, 1, 64, 82
5, 43961, Note_on_c, 1, 67, 0
5, 43961, Note_on_c, 1, 64, 0
5, 44016, Note_on_c, 1, 67, 82
5, 44016, Note_on_c, 1, 64, 82
5, 44061, Note_on_c, 1, 67, 0
5, 44061, Note_on_c, 1, 64, 0
5, 44064, Note_on_c, 1, 66, 82
5, 44064, Note_on_c, 1, 63, 82
5, 44064, Note_on_c, 1, 57, 82
5, 44153, Note_on_c, 1, 66, 0
5, 44153, Note_on_c, 1, 63, 0
5, 44153, Note_on_c, 1, 57, 0
5, 44208, Note_on_c, 1, 66, 82
5, 44208, Note_on_c, 1, 63, 82
5, 44208, Note_on_c, 1, 57, 82
5, 44253, Note_on_c, 1, 66, 0
5, 44253, Note_on_c, 1, 63, 0
5, 44253, Note_on_c, 1, 57, 0
5, 44256, Note_on_c, 1, 64, 82
5, 44256, Note_on_c, 1, 59, 82
5, 44256, Note_on_c, 1, 55, 82
5, 44345, Note_on_c, 1, 64, 0
5, 44345, Note_on_c, 1, 59, 0
5, 44345, Note_on_c, 1, 55, 0
5, 44400, Note_on_c, 1, 64, 82
5, 44400, Note_on_c, 1, 59, 82
5, 44400, Note_on_c, 1, 55, 82
5, 44445, Note_on_c, 1, 64, 0
5, 44445, Note_on_c, 1, 59, 0
5, 44445, Note_on_c, 1, 55, 0
5, 44448, Note_on_c, 1, 66, 82
5, 44448, Note_on_c, 1, 63, 82
5, 44448, Note_on_c, 1, 60, 82
5, 44448, Note_on_c, 1, 57, 82
5, 44625, Note_on_c, 1, 66, 0
5, 44625, Note_on_c, 1, 63, 0
5, 44625, Note_on_c, 1, 60, 0
5, 44625, Note_on_c, 1, 57, 0
5, 44640, Note_on_c, 1, 64, 82
5, 44640, Note_on_c, 1, 59, 82
5, 44640, Note_on_c, 1, 55, 82
5, 44729, Note_on_c, 1, 64, 0
5, 44729, Note_on_c, 1, 59, 0
5, 44729, Note_on_c, 1, 55, 0
5, 44784, Note_on_c, 1, 64, 82
5, 44784, Note_on_c, 1, 59, 82
5, 44784, Note_on_c, 1, 55, 82
5, 44829, Note_on_c, 1, 64, 0
5, 44829, Note_on_c, 1, 59, 0
5, 44829, Note_on_c, 1, 55, 0
5, 44832, Note_on_c, 1, 64, 82
5, 44832, Note_on_c, 1, 60, 82
5, 44832, Note_on_c, 1, 57, 82
5, 44921, Note_on_c, 1, 64, 0
5, 44921, Note_on_c, 1, 60, 0
5, 44921, Note_on_c, 1, 57, 0
5, 44928, Note_on_c, 1, 69, 82
5, 44928, Note_on_c, 1, 66, 82
5, 44928, Note_on_c, 1, 59, 82
5, 45017, Note_on_c, 1, 69, 0
5, 45017, Note_on_c, 1, 66, 0
5, 45017, Note_on_c, 1, 59, 0
5, 45024, Note_on_c, 1, 67, 82
5, 45024, Note_on_c, 1, 64, 82
5, 45113, Note_on_c, 1, 67, 0
5, 45113, Note_on_c, 1, 64, 0
5, 45120, Note_on_c, 1, 52, 82
5, 45165, Note_on_c, 1, 52, 0
5, 45216, Note_on_c, 1, 56, 74
5, 45255, Note_on_c, 1, 56, 0
5, 45408, Note_on_c, 1, 64, 74
5, 45408, Note_on_c, 1, 61, 74
5, 45447, Note_on_c, 1, 64, 0
5, 45447, Note_on_c, 1, 61, 0
5, 45600, Note_on_c, 1, 57, 74
5, 45639, Note_on_c, 1, 57, 0
5, 45696, Note_on_c, 1, 58, 78
5, 45735, Note_on_c, 1, 58, 0
5, 45792, Note_on_c, 1, 47, 82
5, 45831, Note_on_c, 1, 47, 0
5, 45888, Note_on_c, 1, 35, 82
5, 45927, Note_on_c, 1, 35, 0
5, 45984, Note_on_c, 1, 56, 74
5, 45984, Note_on_c, 1, 52, 74
5, 46023, Note_on_c, 1, 56, 0
5, 46023, Note_on_c, 1, 52, 0
5, 46176, Note_on_c, 1, 64, 74
5, 46176, Note_on_c, 1, 61, 74
5, 46215, Note_on_c, 1, 64, 0
5, 46215, Note_on_c, 1, 61, 0
5, 46320, Note_on_c, 1, 52, 74
5, 46365, Note_on_c, 1, 52, 0
5, 46368, Note_on_c, 1, 52, 74
5, 46413, Note_on_c, 1, 52, 0
5, 46416, Note_on_c, 1, 51, 76
5, 46461, Note_on_c, 1, 51, 0
5, 46464, Note_on_c, 1, 52, 78
5, 46509, Note_on_c, 1, 52, 0
5, 46512, Note_on_c, 1, 54, 80
5, 46557, Note_on_c, 1, 54, 0
5, 46560, Note_on_c, 1, 56, 82
5, 46654, Note_on_c, 1, 56, 0
5, 46656, Note_on_c, 1, 44, 82
5, 46701, Note_on_c, 1, 44, 0
5, 46752, Note_on_c, 1, 56, 74
5, 46841, Note_on_c, 1, 56, 0
5, 46944, Note_on_c, 1, 64, 74
5, 46944, Note_on_c, 1, 61, 74
5, 47033, Note_on_c, 1, 64, 0
5, 47033, Note_on_c, 1, 61, 0
5, 47136, Note_on_c, 1, 57, 74
5, 47225, Note_on_c, 1, 57, 0
5, 47232, Note_on_c, 1, 58, 78
5, 47321, Note_on_c, 1, 58, 0
5, 47352, Note_on_c, 1, 47, 82
5, 47375, Note_on_c, 1, 47, 0
5, 47376, Note_on_c, 1, 46, 82
5, 47399, Note_on_c, 1, 46, 0
5, 47400, Note_on_c, 1, 47, 82
5, 47423, Note_on_c, 1, 47, 0
5, 47424, Note_on_c, 1, 35, 82
5, 47469, Note_on_c, 1, 35, 0
5, 47520, Note_on_c, 1, 56, 74
5, 47520, Note_on_c, 1, 52, 74
5, 47559, Note_on_c, 1, 56, 0
5, 47559, Note_on_c, 1, 52, 0
5, 47712, Note_on_c, 1, 64, 74
5, 47712, Note_on_c, 1, 61, 74
5, 47751, Note_on_c, 1, 64, 0
5, 47751, Note_on_c, 1, 61, 0
5, 47904, Note_on_c, 1, 52, 74
5, 47993, Note_on_c, 1, 52, 0
5, 48000, Note_on_c, 1, 54, 78
5, 48089, Note_on_c, 1, 54, 0
5, 48096, Note_on_c, 1, 44, 82
5, 48185, Note_on_c, 1, 44, 0
5, 48192, Note_on_c, 1, 32, 82
5, 48237, Note_on_c, 1, 32, 0
5, 48288, Note_on_c, 1, 56, 67
5, 48311, Note_on_c, 1, 56, 0
5, 48312, Note_on_c, 1, 63, 67
5, 48335, Note_on_c, 1, 63, 0
5, 48336, Note_on_c, 1, 59, 67
5, 48359, Note_on_c, 1, 59, 0
5, 48360, Note_on_c, 1, 63, 67
5, 48383, Note_on_c, 1, 63, 0
5, 48384, Note_on_c, 1, 56, 67
5, 48407, Note_on_c, 1, 56, 0
5, 48408, Note_on_c, 1, 63, 67
5, 48431, Note_on_c, 1, 63, 0
5, 48432, Note_on_c, 1, 59, 67
5, 48455, Note_on_c, 1, 59, 0
5, 48456, Note_on_c, 1, 63, 67
5, 48479, Note_on_c, 1, 63, 0
5, 48480, Note_on_c, 1, 55, 67
5, 48503, Note_on_c, 1, 55, 0
5, 48504, Note_on_c, 1, 63, 67
5, 48527, Note_on_c, 1, 63, 0
5, 48528, Note_on_c, 1, 58, 67
5, 48551, Note_on_c, 1, 58, 0
5, 48552, Note_on_c, 1, 63, 67
5, 48575, Note_on_c, 1, 63, 0
5, 48576, Note_on_c, 1, 55, 67
5, 48599, Note_on_c, 1, 55, 0
5, 48600, Note_on_c, 1, 63, 67
5, 48623, Note_on_c, 1, 63, 0
5, 48624, Note_on_c, 1, 58, 67
5, 48647, Note_on_c, 1, 58, 0
5, 48648, Note_on_c, 1, 63, 67
5, 48671, Note_on_c, 1, 63, 0
5, 48672, Note_on_c, 1, 52, 67
5, 48695, Note_on_c, 1, 52, 0
5, 48696, Note_on_c, 1, 59, 67
5, 48719, Note_on_c, 1, 59, 0
5, 48720, Note_on_c, 1, 56, 67
5, 48743, Note_on_c, 1, 56, 0
5, 48744, Note_on_c, 1, 59, 67
5, 48767, Note_on_c, 1, 59, 0
5, 48768, Note_on_c, 1, 52, 67
5, 48791, Note_on_c, 1, 52, 0
5, 48792, Note_on_c, 1, 59, 67
5, 48815, Note_on_c, 1, 59, 0
5, 48816, Note_on_c, 1, 56, 67
5, 48839, Note_on_c, 1, 56, 0
5, 48840, Note_on_c, 1, 59, 67
5, 48863, Note_on_c, 1, 59, 0
5, 48864, Note_on_c, 1, 51, 67
5, 48887, Note_on_c, 1, 51, 0
5, 48888, Note_on_c, 1, 59, 67
5, 48911, Note_on_c, 1, 59, 0
5, 48912, Note_on_c, 1, 54, 67
5, 48935, Note_on_c, 1, 54, 0
5, 48936, Note_on_c, 1, 59, 67
5, 48959, Note_on_c, 1, 59, 0
5, 48960, Note_on_c, 1, 51, 67
5, 48983, Note_on_c, 1, 51, 0
5, 48984, Note_on_c, 1, 59, 67
5, 49007, Note_on_c, 1, 59, 0
5, 49008, Note_on_c, 1, 54, 67
5, 49031, Note_on_c, 1, 54, 0
5, 49032, Note_on_c, 1, 59, 67
5, 49055, Note_on_c, 1, 59, 0
5, 49056, Note_on_c, 1, 54, 67
5, 49079, Note_on_c, 1, 54, 0
5, 49080, Note_on_c, 1, 61, 67
5, 49103, Note_on_c, 1, 61, 0
5, 49104, Note_on_c, 1, 57, 67
5, 49127, Note_on_c, 1, 57, 0
5, 49128, Note_on_c, 1, 61, 67
5, 49151, Note_on_c, 1, 61, 0
5, 49152, Note_on_c, 1, 54, 67
5, 49175, Note_on_c, 1, 54, 0
5, 49176, Note_on_c, 1, 61, 67
5, 49199, Note_on_c, 1, 61, 0
5, 49200, Note_on_c, 1, 57, 67
5, 49223, Note_on_c, 1, 57, 0
5, 49224, Note_on_c, 1, 61, 67
5, 49247, Note_on_c, 1, 61, 0
5, 49248, Note_on_c, 1, 51, 67
5, 49271, Note_on_c, 1, 51, 0
5, 49272, Note_on_c, 1, 59, 67
5, 49295, Note_on_c, 1, 59, 0
5, 49296, Note_on_c, 1, 54, 67
5, 49319, Note_on_c, 1, 54, 0
5, 49320, Note_on_c, 1, 59, 67
5, 49343, Note_on_c, 1, 59, 0
5, 49344, Note_on_c, 1, 52, 67
5, 49367, Note_on_c, 1, 52, 0
5, 49368, Note_on_c, 1, 59, 67
5, 49391, Note_on_c, 1, 59, 0
5, 49392, Note_on_c, 1, 56, 67
5, 49415, Note_on_c, 1, 56, 0
5, 49416, Note_on_c, 1, 59, 67
5, 49439, Note_on_c, 1, 59, 0
5, 49440, Note_on_c, 1, 45, 67
5, 49463, Note_on_c, 1, 45, 0
5, 49464, Note_on_c, 1, 57, 67
5, 49487, Note_on_c, 1, 57, 0
5, 49488, Note_on_c, 1, 49, 67
5, 49511, Note_on_c, 1, 49, 0
5, 49512, Note_on_c, 1, 57, 67
5, 49535, Note_on_c, 1, 57, 0
5, 49536, Note_on_c, 1, 47, 67
5, 49559, Note_on_c, 1, 47, 0
5, 49560, Note_on_c, 1, 57, 67
5, 49583, Note_on_c, 1, 57, 0
5, 49584, Note_on_c, 1, 54, 67
5, 49607, Note_on_c, 1, 54, 0
5, 49608, Note_on_c, 1, 59, 67
5, 49631, Note_on_c, 1, 59, 0
5, 49632, Note_on_c, 1, 40, 67
5, 49655, Note_on_c, 1, 40, 0
5, 49656, Note_on_c, 1, 52, 67
5, 49679, Note_on_c, 1, 52, 0
5, 49680, Note_on_c, 1, 51, 67
5, 49703, Note_on_c, 1, 51, 0
5, 49704, Note_on_c, 1, 52, 67
5, 49727, Note_on_c, 1, 52, 0
5, 49728, Note_on_c, 1, 40, 67
5, 49773, Note_on_c, 1, 40, 0
5, 49824, Note_on_c, 1, 56, 67
5, 49847, Note_on_c, 1, 56, 0
5, 49848, Note_on_c, 1, 63, 67
5, 49871, Note_on_c, 1, 63, 0
5, 49872, Note_on_c, 1, 59, 67
5, 49895, Note_on_c, 1, 59, 0
5, 49896, Note_on_c, 1, 63, 67
5, 49919, Note_on_c, 1, 63, 0
5, 49920, Note_on_c, 1, 56, 67
5, 49943, Note_on_c, 1, 56, 0
5, 49944, Note_on_c, 1, 63, 67
5, 49967, Note_on_c, 1, 63, 0
5, 49968, Note_on_c, 1, 59, 67
5, 49991, Note_on_c, 1, 59, 0
5, 49992, Note_on_c, 1, 63, 67
5, 50015, Note_on_c, 1, 63, 0
5, 50016, Note_on_c, 1, 55, 67
5, 50039, Note_on_c, 1, 55, 0
5, 50040, Note_on_c, 1, 63, 67
5, 50063, Note_on_c, 1, 63, 0
5, 50064, Note_on_c, 1, 58, 67
5, 50087, Note_on_c, 1, 58, 0
5, 50088, Note_on_c, 1, 63, 67
5, 50111, Note_on_c, 1, 63, 0
5, 50112, Note_on_c, 1, 55, 67
5, 50135, Note_on_c, 1, 55, 0
5, 50136, Note_on_c, 1, 63, 67
5, 50159, Note_on_c, 1, 63, 0
5, 50160, Note_on_c, 1, 58, 67
5, 50183, Note_on_c, 1, 58, 0
5, 50184, Note_on_c, 1, 63, 67
5, 50207, Note_on_c, 1, 63, 0
5, 50208, Note_on_c, 1, 52, 67
5, 50231, Note_on_c, 1, 52, 0
5, 50232, Note_on_c, 1, 59, 67
5, 50255, Note_on_c, 1, 59, 0
5, 50256, Note_on_c, 1, 56, 67
5, 50279, Note_on_c, 1, 56, 0
5, 50280, Note_on_c, 1, 59, 67
5, 50303, Note_on_c, 1, 59, 0
5, 50304, Note_on_c, 1, 52, 67
5, 50327, Note_on_c, 1, 52, 0
5, 50328, Note_on_c, 1, 59, 67
5, 50351, Note_on_c, 1, 59, 0
5, 50352, Note_on_c, 1, 56, 67
5, 50375, Note_on_c, 1, 56, 0
5, 50376, Note_on_c, 1, 59, 67
5, 50399, Note_on_c, 1, 59, 0
5, 50400, Note_on_c, 1, 51, 67
5, 50423, Note_on_c, 1, 51, 0
5, 50424, Note_on_c, 1, 59, 67
5, 50447, Note_on_c, 1, 59, 0
5, 50448, Note_on_c, 1, 54, 67
5, 50471, Note_on_c, 1, 54, 0
5, 50472, Note_on_c, 1, 59, 67
5, 50495, Note_on_c, 1, 59, 0
5, 50496, Note_on_c, 1, 51, 67
5, 50519, Note_on_c, 1, 51, 0
5, 50520, Note_on_c, 1, 59, 67
5, 50543, Note_on_c, 1, 59, 0
5, 50544, Note_on_c, 1, 54, 67
5, 50567, Note_on_c, 1, 54, 0
5, 50568, Note_on_c, 1, 59, 67
5, 50591, Note_on_c, 1, 59, 0
5, 50592, Note_on_c, 1, 54, 67
5, 50615, Note_on_c, 1, 54, 0
5, 50616, Note_on_c, 1, 61, 67
5, 50639, Note_on_c, 1, 61, 0
5, 50640, Note_on_c, 1, 57, 67
5, 50663, Note_on_c, 1, 57, 0
5, 50664, Note_on_c, 1, 61, 67
5, 50687, Note_on_c, 1, 61, 0
5, 50688, Note_on_c, 1, 54, 67
5, 50711, Note_on_c, 1, 54, 0
5, 50712, Note_on_c, 1, 61, 67
5, 50735, Note_on_c, 1, 61, 0
5, 50736, Note_on_c, 1, 57, 67
5, 50759, Note_on_c, 1, 57, 0
5, 50760, Note_on_c, 1, 61, 67
5, 50783, Note_on_c, 1, 61, 0
5, 50784, Note_on_c, 1, 51, 67
5, 50807, Note_on_c, 1, 51, 0
5, 50808, Note_on_c, 1, 59, 67
5, 50831, Note_on_c, 1, 59, 0
5, 50832, Note_on_c, 1, 54, 67
5, 50855, Note_on_c, 1, 54, 0
5, 50856, Note_on_c, 1, 59, 67
5, 50879, Note_on_c, 1, 59, 0
5, 50880, Note_on_c, 1, 52, 67
5, 50903, Note_on_c, 1, 52, 0
5, 50904, Note_on_c, 1, 59, 67
5, 50927, Note_on_c, 1, 59, 0
5, 50928, Note_on_c, 1, 56, 67
5, 50951, Note_on_c, 1, 56, 0
5, 50952, Note_on_c, 1, 59, 67
5, 50975, Note_on_c, 1, 59, 0
5, 50976, Note_on_c, 1, 45, 67
5, 50999, Note_on_c, 1, 45, 0
5, 51000, Note_on_c, 1, 57, 67
5, 51023, Note_on_c, 1, 57, 0
5, 51024, Note_on_c, 1, 49, 67
5, 51047, Note_on_c, 1, 49, 0
5, 51048, Note_on_c, 1, 57, 67
5, 51071, Note_on_c, 1, 57, 0
5, 51072, Note_on_c, 1, 47, 67
5, 51095, Note_on_c, 1, 47, 0
5, 51096, Note_on_c, 1, 57, 67
5, 51119, Note_on_c, 1, 57, 0
5, 51120, Note_on_c, 1, 54, 67
5, 51143, Note_on_c, 1, 54, 0
5, 51144, Note_on_c, 1, 59, 67
5, 51167, Note_on_c, 1, 59, 0
5, 51168, Note_on_c, 1, 40, 74
5, 51191, Note_on_c, 1, 40, 0
5, 51192, Note_on_c, 1, 52, 74
5, 51215, Note_on_c, 1, 52, 0
5, 51216, Note_on_c, 1, 51, 74
5, 51239, Note_on_c, 1, 51, 0
5, 51240, Note_on_c, 1, 52, 74
5, 51263, Note_on_c, 1, 52, 0
5, 51264, Note_on_c, 1, 40, 74
5, 51287, Note_on_c, 1, 40, 0
5, 51288, Note_on_c, 1, 52, 74
5, 51311, Note_on_c, 1, 52, 0
5, 51312, Note_on_c, 1, 40, 74
5, 51335, Note_on_c, 1, 40, 0
5, 51336, Note_on_c, 1, 52, 74
5, 51359, Note_on_c, 1, 52, 0
5, 51360, Note_on_c, 1, 40, 74
5, 51383, Note_on_c, 1, 40, 0
5, 51384, Note_on_c, 1, 52, 74
5, 51407, Note_on_c, 1, 52, 0
5, 51408, Note_on_c, 1, 51, 74
5, 51431, Note_on_c, 1, 51, 0
5, 51432, Note_on_c, 1, 52, 74
5, 51455, Note_on_c, 1, 52, 0
5, 51456, Note_on_c, 1, 40, 74
5, 51479, Note_on_c, 1, 40, 0
5, 51480, Note_on_c, 1, 52, 74
5, 51503, Note_on_c, 1, 52, 0
5, 51504, Note_on_c, 1, 40, 74
5, 51527, Note_on_c, 1, 40, 0
5, 51528, Note_on_c, 1, 52, 74
5, 51551, Note_on_c, 1, 52, 0
5, 51552, Note_on_c, 1, 40, 74
5, 51575, Note_on_c, 1, 40, 0
5, 51576, Note_on_c, 1, 52, 74
5, 51599, Note_on_c, 1, 52, 0
5, 51600, Note_on_c, 1, 51, 74
5, 51623, Note_on_c, 1, 51, 0
5, 51624, Note_on_c, 1, 52, 74
5, 51647, Note_on_c, 1, 52, 0
5, 51648, Note_on_c, 1, 40, 74
5, 51671, Note_on_c, 1, 40, 0
5, 51672, Note_on_c, 1, 52, 74
5, 51695, Note_on_c, 1, 52, 0
5, 51696, Note_on_c, 1, 40, 74
5, 51719, Note_on_c, 1, 40, 0
5, 51720, Note_on_c, 1, 52, 74
5, 51743, Note_on_c, 1, 52, 0
5, 51744, Note_on_c, 1, 40, 74
5, 51767, Note_on_c, 1, 40, 0
5, 51768, Note_on_c, 1, 52, 74
5, 51791, Note_on_c, 1, 52, 0
5, 51792, Note_on_c, 1, 51, 74
5, 51815, Note_on_c, 1, 51, 0
5, 51816, Note_on_c, 1, 52, 74
5, 51839, Note_on_c, 1, 52, 0
5, 51840, Note_on_c, 1, 40, 74
5, 51863, Note_on_c, 1, 40, 0
5, 51864, Note_on_c, 1, 52, 74
5, 51887, Note_on_c, 1, 52, 0
5, 51888, Note_on_c, 1, 40, 74
5, 51911, Note_on_c, 1, 40, 0
5, 51912, Note_on_c, 1, 52, 74
5, 51935, Note_on_c, 1, 52, 0
5, 51936, Note_on_c, 1, 40, 74
5, 52025, Note_on_c, 1, 40, 0
5, 52032, Note_on_c, 1, 52, 74
5, 52032, Note_on_c, 1, 40, 74
5, 52121, Note_on_c, 1, 52, 0
5, 52121, Note_on_c, 1, 40, 0
5, 52128, Note_on_c, 1, 52, 74
5, 52128, Note_on_c, 1, 40, 74
5, 52261, Note_on_c, 1, 52, 0
5, 52261, Note_on_c, 1, 40, 0
5, 52320, Note_on_c, 1, 40, 0
5, 52409, Note_on_c, 1, 40, 0
5, 52416, End_track
6, 0, Start_track
6, 0, Program_c, 1, 0
6, 0, Control_c, 1, 7, 127
6, 0, Control_c, 1, 10, 64
6, 3456, Note_on_c, 1, 67, 64
6, 3501, Note_on_c, 1, 67, 0
6, 3504, Note_on_c, 1, 71, 64
6, 3549, Note_on_c, 1, 71, 0
6, 3552, Note_on_c, 1, 69, 64
6, 3597, Note_on_c, 1, 69, 0
6, 3600, Note_on_c, 1, 67, 64
6, 3645, Note_on_c, 1, 67, 0
6, 3648, Note_on_c, 1, 66, 64
6, 3693, Note_on_c, 1, 66, 0
6, 3696, Note_on_c, 1, 64, 64
6, 3741, Note_on_c, 1, 64, 0
6, 3744, Note_on_c, 1, 66, 64
6, 3789, Note_on_c, 1, 66, 0
6, 3792, Note_on_c, 1, 67, 64
6, 3837, Note_on_c, 1, 67, 0
6, 3840, Note_on_c, 1, 66, 64
6, 3885, Note_on_c, 1, 66, 0
6, 3888, Note_on_c, 1, 64, 64
6, 3933, Note_on_c, 1, 64, 0
6, 3936, Note_on_c, 1, 62, 64
6, 3981, Note_on_c, 1, 62, 0
6, 3984, Note_on_c, 1, 61, 64
6, 4029, Note_on_c, 1, 61, 0
6, 4032, Note_on_c, 1, 62, 64
6, 4077, Note_on_c, 1, 62, 0
6, 4080, Note_on_c, 1, 64, 64
6, 4125, Note_on_c, 1, 64, 0
6, 4128, Note_on_c, 1, 62, 64
6, 4173, Note_on_c, 1, 62, 0
6, 4176, Note_on_c, 1, 60, 64
6, 4221, Note_on_c, 1, 60, 0
6, 4224, Note_on_c, 1, 59, 64
6, 4269, Note_on_c, 1, 59, 0
6, 4272, Note_on_c, 1, 57, 64
6, 4317, Note_on_c, 1, 57, 0
6, 6528, Note_on_c, 1, 60, 64
6, 6573, Note_on_c, 1, 60, 0
6, 6576, Note_on_c, 1, 48, 64
6, 6621, Note_on_c, 1, 48, 0
6, 6624, Note_on_c, 1, 31, 64
6, 6801, Note_on_c, 1, 31, 0
6, 10368, Note_on_c, 1, 67, 64
6, 10413, Note_on_c, 1, 67, 0
6, 10416, Note_on_c, 1, 71, 64
6, 10461, Note_on_c, 1, 71, 0
6, 10464, Note_on_c, 1, 69, 64
6, 10509, Note_on_c, 1, 69, 0
6, 10512, Note_on_c, 1, 67, 64
6, 10557, Note_on_c, 1, 67, 0
6, 10560, Note_on_c, 1, 66, 64
6, 10605, Note_on_c, 1, 66, 0
6, 10608, Note_on_c, 1, 64, 64
6, 10653, Note_on_c, 1, 64, 0
6, 10656, Note_on_c, 1, 66, 64
6, 10701, Note_on_c, 1, 66, 0
6, 10704, Note_on_c, 1, 67, 64
6, 10749, Note_on_c, 1, 67, 0
6, 10752, Note_on_c, 1, 66, 64
6, 10797, Note_on_c, 1, 66, 0
6, 10800, Note_on_c, 1, 64, 64
6, 10845, Note_on_c, 1, 64, 0
6, 10848, Note_on_c, 1, 62, 64
6, 10893, Note_on_c, 1, 62, 0
6, 10896, Note_on_c, 1, 61, 64
6, 10941, Note_on_c, 1, 61, 0
6, 10944, Note_on_c, 1, 62, 64
6, 10989, Note_on_c, 1, 62, 0
6, 10992, Note_on_c, 1, 64, 64
6, 11037, Note_on_c, 1, 64, 0
6, 11040, Note_on_c, 1, 62, 64
6, 11085, Note_on_c, 1, 62, 0
6, 11088, Note_on_c, 1, 60, 64
6, 11133, Note_on_c, 1, 60, 0
6, 11136, Note_on_c, 1, 59, 64
6, 11181, Note_on_c, 1, 59, 0
6, 11184, Note_on_c, 1, 57, 64
6, 11229, Note_on_c, 1, 57, 0
6, 13440, Note_on_c, 1, 60, 64
6, 13485, Note_on_c, 1, 60, 0
6, 13488, Note_on_c, 1, 48, 64
6, 13533, Note_on_c, 1, 48, 0
6, 13536, Note_on_c, 1, 31, 64
6, 13713, Note_on_c, 1, 31, 0
6, 17856, Note_on_c, 1, 47, 64
6, 18697, Note_on_c, 1, 47, 0
6, 18720, Note_on_c, 1, 47, 64
6, 18985, Note_on_c, 1, 47, 0
6, 19008, Note_on_c, 1, 47, 64
6, 19273, Note_on_c, 1, 47, 0
6, 19296, Note_on_c, 1, 47, 64
6, 19473, Note_on_c, 1, 47, 0
6, 19584, Note_on_c, 1, 47, 64
6, 19761, Note_on_c, 1, 47, 0
6, 19872, Note_on_c, 1, 47, 64
6, 20049, Note_on_c, 1, 47, 0
6, 33120, Note_on_c, 1, 64, 64
6, 33209, Note_on_c, 1, 64, 0
6, 33840, Note_on_c, 1, 64, 64
6, 33885, Note_on_c, 1, 64, 0
6, 33888, Note_on_c, 1, 64, 74
6, 34021, Note_on_c, 1, 64, 0
6, 34032, Note_on_c, 1, 64, 80
6, 34077, Note_on_c, 1, 64, 0
6, 34080, Note_on_c, 1, 63, 82
6, 34125, Note_on_c, 1, 63, 0
6, 34128, Note_on_c, 1, 64, 80
6, 34173, Note_on_c, 1, 64, 0
6, 34176, Note_on_c, 1, 66, 78
6, 34221, Note_on_c, 1, 66, 0
6, 34224, Note_on_c, 1, 54, 76
6, 34269, Note_on_c, 1, 54, 0
6, 34656, Note_on_c, 1, 64, 64
6, 34745, Note_on_c, 1, 64, 0
6, 35376, Note_on_c, 1, 64, 64
6, 35421, Note_on_c, 1, 64, 0
6, 35424, Note_on_c, 1, 64, 74
6, 35557, Note_on_c, 1, 64, 0
6, 35568, Note_on_c, 1, 64, 80
6, 35613, Note_on_c, 1, 64, 0
6, 35616, Note_on_c, 1, 63, 82
6, 35661, Note_on_c, 1, 63, 0
6, 35664, Note_on_c, 1, 64, 80
6, 35709, Note_on_c, 1, 64, 0
6, 35712, Note_on_c, 1, 66, 78
6, 35757, Note_on_c, 1, 66, 0
6, 35760, Note_on_c, 1, 54, 76
6, 35805, Note_on_c, 1, 54, 0
6, 36336, Note_on_c, 1, 59, 74
6, 36381, Note_on_c, 1, 59, 0
6, 36384, Note_on_c, 1, 59, 75
6, 36561, Note_on_c, 1, 59, 0
6, 36576, Note_on_c, 1, 59, 82
6, 36665, Note_on_c, 1, 59, 0
6, 37872, Note_on_c, 1, 59, 74
6, 37917, Note_on_c, 1, 59, 0
6, 37920, Note_on_c, 1, 59, 75
6, 38097, Note_on_c, 1, 59, 0
6, 38112, Note_on_c, 1, 59, 82
6, 38201, Note_on_c, 1, 59, 0
6, 52320, End_track
7, 0, Start_track
7, 0, Title_t, "Sonata V   Haydn  "
7, 0, End_track
0, 0, End_of_file
