0, 0, Header, 1, 6, 96
1, 0, Start_track
1, 0, Copyright_t, "Copyright  2000 <copyright holder>"
1, 0, Text_t, "Sonata III\015\012"
1, 0, Text_t, "<composer>\015\012"
1, 0, Sequencer_specific, 16, 68, 87, 77, 90, 86, 82, 83, 78, 32, 55, 46, 48, 46, 56, 46, 48
1, 0, Time_signature, 3, 2, 24, 8
1, 0, Tempo, 444444
1, 0, Key_signature, 4, "major"
1, 13824, Key_signature, 1, "major"
1, 16128, Key_signature, 1, "major"
1, 29952, Key_signature, 4, "major"
1, 32256, Key_signature, 4, "major"
1, 43776, End_track
2, 0, Start_track
2, 0, Program_c, 0, 0
2, 0, Control_c, 0, 7, 127
2, 0, Control_c, 0, 10, 64
2, 0, Note_on_c, 0, 71, 75
2, 89, Note_on_c, 0, 71, 0
2, 96, Note_on_c, 0, 71, 75
2, 185, Note_on_c, 0, 71, 0
2, 192, Note_on_c, 0, 71, 75
2, 281, Note_on_c, 0, 71, 0
2, 288, Note_on_c, 0, 73, 75
2, 303, Note_on_c, 0, 73, 0
2, 304, Note_on_c, 0, 71, 75
2, 319, Note_on_c, 0, 71, 0
2, 320, Note_on_c, 0, 73, 75
2, 335, Note_on_c, 0, 73, 0
2, 336, Note_on_c, 0, 71, 75
2, 351, Note_on_c, 0, 71, 0
2, 352, Note_on_c, 0, 73, 75
2, 367, Note_on_c, 0, 73, 0
2, 368, Note_on_c, 0, 71, 75
2, 383, Note_on_c, 0, 71, 0
2, 384, Note_on_c, 0, 73, 75
2, 399, Note_on_c, 0, 73, 0
2, 400, Note_on_c, 0, 71, 75
2, 415, Note_on_c, 0, 71, 0
2, 416, Note_on_c, 0, 73, 75
2, 431, Note_on_c, 0, 73, 0
2, 432, Note_on_c, 0, 71, 75
2, 447, Note_on_c, 0, 71, 0
2, 448, Note_on_c, 0, 69, 75
2, 463, Note_on_c, 0, 69, 0
2, 464, Note_on_c, 0, 71, 75
2, 479, Note_on_c, 0, 71, 0
2, 480, Note_on_c, 0, 76, 75
2, 528, Note_on_c, 0, 76, 0
2, 528, Note_on_c, 0, 75, 75
2, 548, Note_on_c, 0, 75, 0
2, 576, Note_on_c, 0, 75, 75
2, 624, Note_on_c, 0, 75, 0
2, 624, Note_on_c, 0, 73, 75
2, 644, Note_on_c, 0, 73, 0
2, 672, Note_on_c, 0, 73, 75
2, 720, Note_on_c, 0, 73, 0
2, 720, Note_on_c, 0, 81, 75
2, 740, Note_on_c, 0, 81, 0
2, 768, Note_on_c, 0, 81, 75
2, 816, Note_on_c, 0, 81, 0
2, 816, Note_on_c, 0, 73, 75
2, 836, Note_on_c, 0, 73, 0
2, 864, Note_on_c, 0, 73, 75
2, 876, Note_on_c, 0, 73, 0
2, 876, Note_on_c, 0, 75, 75
2, 888, Note_on_c, 0, 75, 0
2, 888, Note_on_c, 0, 73, 75
2, 900, Note_on_c, 0, 73, 0
2, 900, Note_on_c, 0, 75, 75
2, 912, Note_on_c, 0, 75, 0
2, 912, Note_on_c, 0, 71, 75
2, 932, Note_on_c, 0, 71, 0
2, 960, Note_on_c, 0, 71, 75
2, 1093, Note_on_c, 0, 71, 0
2, 1104, Note_on_c, 0, 83, 69
2, 1149, Note_on_c, 0, 83, 0
2, 1152, Note_on_c, 0, 83, 69
2, 1200, Note_on_c, 0, 83, 0
2, 1200, Note_on_c, 0, 81, 69
2, 1220, Note_on_c, 0, 81, 0
2, 1248, Note_on_c, 0, 81, 69
2, 1381, Note_on_c, 0, 81, 0
2, 1392, Note_on_c, 0, 80, 69
2, 1437, Note_on_c, 0, 80, 0
2, 1440, Note_on_c, 0, 80, 69
2, 1488, Note_on_c, 0, 80, 0
2, 1488, Note_on_c, 0, 78, 69
2, 1508, Note_on_c, 0, 78, 0
2, 1536, Note_on_c, 0, 78, 69
2, 1669, Note_on_c, 0, 78, 0
2, 1680, Note_on_c, 0, 76, 69
2, 1725, Note_on_c, 0, 76, 0
2, 1728, Note_on_c, 0, 75, 69
2, 1776, Note_on_c, 0, 75, 0
2, 1776, Note_on_c, 0, 78, 69
2, 1796, Note_on_c, 0, 78, 0
2, 1824, Note_on_c, 0, 78, 69
2, 1872, Note_on_c, 0, 78, 0
2, 1872, Note_on_c, 0, 81, 69
2, 1892, Note_on_c, 0, 81, 0
2, 1920, Note_on_c, 0, 81, 69
2, 1920, Note_on_c, 0, 78, 69
2, 1968, Note_on_c, 0, 81, 0
2, 1968, Note_on_c, 0, 78, 0
2, 1968, Note_on_c, 0, 80, 69
2, 1968, Note_on_c, 0, 76, 69
2, 1988, Note_on_c, 0, 80, 0
2, 1988, Note_on_c, 0, 76, 0
2, 2016, Note_on_c, 0, 80, 69
2, 2016, Note_on_c, 0, 76, 69
2, 2112, Note_on_c, 0, 80, 0
2, 2112, Note_on_c, 0, 76, 0
2, 2112, Note_on_c, 0, 78, 69
2, 2112, Note_on_c, 0, 75, 69
2, 2201, Note_on_c, 0, 78, 0
2, 2201, Note_on_c, 0, 75, 0
2, 2304, Note_on_c, 0, 71, 75
2, 2393, Note_on_c, 0, 71, 0
2, 2400, Note_on_c, 0, 71, 75
2, 2489, Note_on_c, 0, 71, 0
2, 2496, Note_on_c, 0, 71, 75
2, 2585, Note_on_c, 0, 71, 0
2, 2592, Note_on_c, 0, 73, 75
2, 2607, Note_on_c, 0, 73, 0
2, 2608, Note_on_c, 0, 71, 75
2, 2623, Note_on_c, 0, 71, 0
2, 2624, Note_on_c, 0, 73, 75
2, 2639, Note_on_c, 0, 73, 0
2, 2640, Note_on_c, 0, 71, 75
2, 2655, Note_on_c, 0, 71, 0
2, 2656, Note_on_c, 0, 73, 75
2, 2671, Note_on_c, 0, 73, 0
2, 2672, Note_on_c, 0, 71, 75
2, 2687, Note_on_c, 0, 71, 0
2, 2688, Note_on_c, 0, 73, 75
2, 2703, Note_on_c, 0, 73, 0
2, 2704, Note_on_c, 0, 71, 75
2, 2719, Note_on_c, 0, 71, 0
2, 2720, Note_on_c, 0, 73, 75
2, 2735, Note_on_c, 0, 73, 0
2, 2736, Note_on_c, 0, 71, 75
2, 2751, Note_on_c, 0, 71, 0
2, 2752, Note_on_c, 0, 69, 75
2, 2767, Note_on_c, 0, 69, 0
2, 2768, Note_on_c, 0, 71, 75
2, 2783, Note_on_c, 0, 71, 0
2, 2784, Note_on_c, 0, 76, 75
2, 2832, Note_on_c, 0, 76, 0
2, 2832, Note_on_c, 0, 75, 75
2, 2852, Note_on_c, 0, 75, 0
2, 2880, Note_on_c, 0, 75, 75
2, 2928, Note_on_c, 0, 75, 0
2, 2928, Note_on_c, 0, 73, 75
2, 2948, Note_on_c, 0, 73, 0
2, 2976, Note_on_c, 0, 73, 75
2, 3024, Note_on_c, 0, 73, 0
2, 3024, Note_on_c, 0, 81, 75
2, 3044, Note_on_c, 0, 81, 0
2, 3072, Note_on_c, 0, 81, 75
2, 3120, Note_on_c, 0, 81, 0
2, 3120, Note_on_c, 0, 73, 75
2, 3140, Note_on_c, 0, 73, 0
2, 3168, Note_on_c, 0, 73, 75
2, 3180, Note_on_c, 0, 73, 0
2, 3180, Note_on_c, 0, 75, 75
2, 3192, Note_on_c, 0, 75, 0
2, 3192, Note_on_c, 0, 73, 75
2, 3204, Note_on_c, 0, 73, 0
2, 3204, Note_on_c, 0, 75, 75
2, 3216, Note_on_c, 0, 75, 0
2, 3216, Note_on_c, 0, 71, 75
2, 3236, Note_on_c, 0, 71, 0
2, 3264, Note_on_c, 0, 71, 75
2, 3397, Note_on_c, 0, 71, 0
2, 3408, Note_on_c, 0, 83, 69
2, 3453, Note_on_c, 0, 83, 0
2, 3456, Note_on_c, 0, 83, 69
2, 3504, Note_on_c, 0, 83, 0
2, 3504, Note_on_c, 0, 81, 69
2, 3524, Note_on_c, 0, 81, 0
2, 3552, Note_on_c, 0, 81, 69
2, 3685, Note_on_c, 0, 81, 0
2, 3696, Note_on_c, 0, 80, 69
2, 3741, Note_on_c, 0, 80, 0
2, 3744, Note_on_c, 0, 80, 69
2, 3792, Note_on_c, 0, 80, 0
2, 3792, Note_on_c, 0, 78, 69
2, 3812, Note_on_c, 0, 78, 0
2, 3840, Note_on_c, 0, 78, 69
2, 3973, Note_on_c, 0, 78, 0
2, 3984, Note_on_c, 0, 76, 69
2, 4029, Note_on_c, 0, 76, 0
2, 4032, Note_on_c, 0, 75, 69
2, 4080, Note_on_c, 0, 75, 0
2, 4080, Note_on_c, 0, 78, 69
2, 4100, Note_on_c, 0, 78, 0
2, 4128, Note_on_c, 0, 78, 69
2, 4176, Note_on_c, 0, 78, 0
2, 4176, Note_on_c, 0, 81, 69
2, 4196, Note_on_c, 0, 81, 0
2, 4224, Note_on_c, 0, 81, 69
2, 4224, Note_on_c, 0, 78, 69
2, 4272, Note_on_c, 0, 81, 0
2, 4272, Note_on_c, 0, 78, 0
2, 4272, Note_on_c, 0, 80, 69
2, 4272, Note_on_c, 0, 76, 69
2, 4292, Note_on_c, 0, 80, 0
2, 4292, Note_on_c, 0, 76, 0
2, 4320, Note_on_c, 0, 80, 69
2, 4320, Note_on_c, 0, 76, 69
2, 4416, Note_on_c, 0, 80, 0
2, 4416, Note_on_c, 0, 76, 0
2, 4416, Note_on_c, 0, 78, 69
2, 4416, Note_on_c, 0, 75, 69
2, 4505, Note_on_c, 0, 78, 0
2, 4505, Note_on_c, 0, 75, 0
2, 4608, Note_on_c, 0, 71, 69
2, 4656, Note_on_c, 0, 71, 0
2, 4656, Note_on_c, 0, 75, 69
2, 4676, Note_on_c, 0, 75, 0
2, 4704, Note_on_c, 0, 75, 69
2, 4837, Note_on_c, 0, 75, 0
2, 4848, Note_on_c, 0, 71, 69
2, 4893, Note_on_c, 0, 71, 0
2, 4896, Note_on_c, 0, 71, 69
2, 4944, Note_on_c, 0, 71, 0
2, 4944, Note_on_c, 0, 76, 69
2, 4964, Note_on_c, 0, 76, 0
2, 4992, Note_on_c, 0, 78, 69
2, 5040, Note_on_c, 0, 78, 0
2, 5040, Note_on_c, 0, 81, 69
2, 5060, Note_on_c, 0, 81, 0
2, 5088, Note_on_c, 0, 81, 69
2, 5136, Note_on_c, 0, 81, 0
2, 5136, Note_on_c, 0, 80, 69
2, 5156, Note_on_c, 0, 80, 0
2, 5184, Note_on_c, 0, 80, 69
2, 5232, Note_on_c, 0, 80, 0
2, 5232, Note_on_c, 0, 78, 69
2, 5252, Note_on_c, 0, 78, 0
2, 5280, Note_on_c, 0, 78, 69
2, 5413, Note_on_c, 0, 78, 0
2, 5424, Note_on_c, 0, 81, 72
2, 5469, Note_on_c, 0, 81, 0
2, 5472, Note_on_c, 0, 80, 73
2, 5520, Note_on_c, 0, 80, 0
2, 5520, Note_on_c, 0, 78, 74
2, 5540, Note_on_c, 0, 78, 0
2, 5568, Note_on_c, 0, 78, 75
2, 5701, Note_on_c, 0, 78, 0
2, 5712, Note_on_c, 0, 81, 78
2, 5757, Note_on_c, 0, 81, 0
2, 5760, Note_on_c, 0, 80, 79
2, 5808, Note_on_c, 0, 80, 0
2, 5808, Note_on_c, 0, 78, 80
2, 5828, Note_on_c, 0, 78, 0
2, 5856, Note_on_c, 0, 78, 81
2, 5904, Note_on_c, 0, 78, 0
2, 5904, Note_on_c, 0, 85, 82
2, 5924, Note_on_c, 0, 85, 0
2, 5952, Note_on_c, 0, 85, 83
2, 6000, Note_on_c, 0, 85, 0
2, 6000, Note_on_c, 0, 76, 84
2, 6020, Note_on_c, 0, 76, 0
2, 6048, Note_on_c, 0, 76, 84
2, 6144, Note_on_c, 0, 76, 0
2, 6144, Note_on_c, 0, 75, 81
2, 6233, Note_on_c, 0, 75, 0
2, 6336, Note_on_c, 0, 71, 75
2, 6425, Note_on_c, 0, 71, 0
2, 6432, Note_on_c, 0, 71, 75
2, 6521, Note_on_c, 0, 71, 0
2, 6528, Note_on_c, 0, 71, 75
2, 6617, Note_on_c, 0, 71, 0
2, 6624, Note_on_c, 0, 73, 75
2, 6639, Note_on_c, 0, 73, 0
2, 6640, Note_on_c, 0, 71, 75
2, 6655, Note_on_c, 0, 71, 0
2, 6656, Note_on_c, 0, 73, 75
2, 6671, Note_on_c, 0, 73, 0
2, 6672, Note_on_c, 0, 71, 75
2, 6687, Note_on_c, 0, 71, 0
2, 6688, Note_on_c, 0, 73, 75
2, 6703, Note_on_c, 0, 73, 0
2, 6704, Note_on_c, 0, 71, 75
2, 6719, Note_on_c, 0, 71, 0
2, 6720, Note_on_c, 0, 73, 75
2, 6735, Note_on_c, 0, 73, 0
2, 6736, Note_on_c, 0, 71, 75
2, 6751, Note_on_c, 0, 71, 0
2, 6752, Note_on_c, 0, 73, 75
2, 6767, Note_on_c, 0, 73, 0
2, 6768, Note_on_c, 0, 71, 75
2, 6783, Note_on_c, 0, 71, 0
2, 6784, Note_on_c, 0, 69, 75
2, 6799, Note_on_c, 0, 69, 0
2, 6800, Note_on_c, 0, 71, 75
2, 6815, Note_on_c, 0, 71, 0
2, 6816, Note_on_c, 0, 76, 75
2, 6864, Note_on_c, 0, 76, 0
2, 6864, Note_on_c, 0, 75, 75
2, 6884, Note_on_c, 0, 75, 0
2, 6912, Note_on_c, 0, 75, 75
2, 6960, Note_on_c, 0, 75, 0
2, 6960, Note_on_c, 0, 73, 75
2, 6980, Note_on_c, 0, 73, 0
2, 7008, Note_on_c, 0, 73, 75
2, 7056, Note_on_c, 0, 73, 0
2, 7056, Note_on_c, 0, 81, 75
2, 7076, Note_on_c, 0, 81, 0
2, 7104, Note_on_c, 0, 81, 75
2, 7152, Note_on_c, 0, 81, 0
2, 7152, Note_on_c, 0, 73, 75
2, 7172, Note_on_c, 0, 73, 0
2, 7200, Note_on_c, 0, 73, 75
2, 7212, Note_on_c, 0, 73, 0
2, 7212, Note_on_c, 0, 75, 75
2, 7224, Note_on_c, 0, 75, 0
2, 7224, Note_on_c, 0, 73, 75
2, 7236, Note_on_c, 0, 73, 0
2, 7236, Note_on_c, 0, 75, 75
2, 7248, Note_on_c, 0, 75, 0
2, 7248, Note_on_c, 0, 71, 75
2, 7268, Note_on_c, 0, 71, 0
2, 7296, Note_on_c, 0, 71, 75
2, 7429, Note_on_c, 0, 71, 0
2, 7440, Note_on_c, 0, 83, 69
2, 7485, Note_on_c, 0, 83, 0
2, 7488, Note_on_c, 0, 83, 69
2, 7536, Note_on_c, 0, 83, 0
2, 7536, Note_on_c, 0, 81, 69
2, 7556, Note_on_c, 0, 81, 0
2, 7584, Note_on_c, 0, 81, 69
2, 7717, Note_on_c, 0, 81, 0
2, 7728, Note_on_c, 0, 80, 69
2, 7773, Note_on_c, 0, 80, 0
2, 7776, Note_on_c, 0, 80, 69
2, 7824, Note_on_c, 0, 80, 0
2, 7824, Note_on_c, 0, 78, 69
2, 7844, Note_on_c, 0, 78, 0
2, 7872, Note_on_c, 0, 78, 69
2, 8005, Note_on_c, 0, 78, 0
2, 8016, Note_on_c, 0, 76, 69
2, 8061, Note_on_c, 0, 76, 0
2, 8064, Note_on_c, 0, 76, 75
2, 8112, Note_on_c, 0, 76, 0
2, 8112, Note_on_c, 0, 85, 75
2, 8132, Note_on_c, 0, 85, 0
2, 8160, Note_on_c, 0, 85, 91
2, 8304, Note_on_c, 0, 85, 0
2, 8304, Note_on_c, 0, 83, 75
2, 8349, Note_on_c, 0, 83, 0
2, 8352, Note_on_c, 0, 83, 75
2, 8400, Note_on_c, 0, 83, 0
2, 8400, Note_on_c, 0, 81, 75
2, 8420, Note_on_c, 0, 81, 0
2, 8448, Note_on_c, 0, 81, 91
2, 8592, Note_on_c, 0, 81, 0
2, 8592, Note_on_c, 0, 80, 75
2, 8637, Note_on_c, 0, 80, 0
2, 8640, Note_on_c, 0, 80, 75
2, 8688, Note_on_c, 0, 80, 0
2, 8688, Note_on_c, 0, 78, 75
2, 8708, Note_on_c, 0, 78, 0
2, 8736, Note_on_c, 0, 78, 75
2, 8784, Note_on_c, 0, 78, 0
2, 8784, Note_on_c, 0, 76, 75
2, 8804, Note_on_c, 0, 76, 0
2, 8832, Note_on_c, 0, 76, 75
2, 8880, Note_on_c, 0, 76, 0
2, 8880, Note_on_c, 0, 75, 75
2, 8900, Note_on_c, 0, 75, 0
2, 8928, Note_on_c, 0, 75, 75
2, 9024, Note_on_c, 0, 75, 0
2, 9024, Note_on_c, 0, 76, 75
2, 9113, Note_on_c, 0, 76, 0
2, 9216, Note_on_c, 0, 71, 69
2, 9264, Note_on_c, 0, 71, 0
2, 9264, Note_on_c, 0, 75, 69
2, 9284, Note_on_c, 0, 75, 0
2, 9312, Note_on_c, 0, 75, 69
2, 9445, Note_on_c, 0, 75, 0
2, 9456, Note_on_c, 0, 71, 69
2, 9501, Note_on_c, 0, 71, 0
2, 9504, Note_on_c, 0, 71, 69
2, 9552, Note_on_c, 0, 71, 0
2, 9552, Note_on_c, 0, 76, 69
2, 9572, Note_on_c, 0, 76, 0
2, 9600, Note_on_c, 0, 78, 69
2, 9648, Note_on_c, 0, 78, 0
2, 9648, Note_on_c, 0, 81, 69
2, 9668, Note_on_c, 0, 81, 0
2, 9696, Note_on_c, 0, 81, 69
2, 9744, Note_on_c, 0, 81, 0
2, 9744, Note_on_c, 0, 80, 69
2, 9764, Note_on_c, 0, 80, 0
2, 9792, Note_on_c, 0, 80, 69
2, 9840, Note_on_c, 0, 80, 0
2, 9840, Note_on_c, 0, 78, 69
2, 9860, Note_on_c, 0, 78, 0
2, 9888, Note_on_c, 0, 78, 69
2, 10021, Note_on_c, 0, 78, 0
2, 10032, Note_on_c, 0, 81, 72
2, 10077, Note_on_c, 0, 81, 0
2, 10080, Note_on_c, 0, 80, 73
2, 10128, Note_on_c, 0, 80, 0
2, 10128, Note_on_c, 0, 78, 74
2, 10148, Note_on_c, 0, 78, 0
2, 10176, Note_on_c, 0, 78, 75
2, 10309, Note_on_c, 0, 78, 0
2, 10320, Note_on_c, 0, 81, 78
2, 10365, Note_on_c, 0, 81, 0
2, 10368, Note_on_c, 0, 80, 79
2, 10416, Note_on_c, 0, 80, 0
2, 10416, Note_on_c, 0, 78, 80
2, 10436, Note_on_c, 0, 78, 0
2, 10464, Note_on_c, 0, 78, 81
2, 10512, Note_on_c, 0, 78, 0
2, 10512, Note_on_c, 0, 85, 82
2, 10532, Note_on_c, 0, 85, 0
2, 10560, Note_on_c, 0, 85, 83
2, 10608, Note_on_c, 0, 85, 0
2, 10608, Note_on_c, 0, 76, 84
2, 10628, Note_on_c, 0, 76, 0
2, 10656, Note_on_c, 0, 76, 84
2, 10752, Note_on_c, 0, 76, 0
2, 10752, Note_on_c, 0, 75, 81
2, 10841, Note_on_c, 0, 75, 0
2, 10944, Note_on_c, 0, 71, 75
2, 11033, Note_on_c, 0, 71, 0
2, 11040, Note_on_c, 0, 71, 75
2, 11129, Note_on_c, 0, 71, 0
2, 11136, Note_on_c, 0, 71, 75
2, 11225, Note_on_c, 0, 71, 0
2, 11232, Note_on_c, 0, 73, 75
2, 11247, Note_on_c, 0, 73, 0
2, 11248, Note_on_c, 0, 71, 75
2, 11263, Note_on_c, 0, 71, 0
2, 11264, Note_on_c, 0, 73, 75
2, 11279, Note_on_c, 0, 73, 0
2, 11280, Note_on_c, 0, 71, 75
2, 11295, Note_on_c, 0, 71, 0
2, 11296, Note_on_c, 0, 73, 75
2, 11311, Note_on_c, 0, 73, 0
2, 11312, Note_on_c, 0, 71, 75
2, 11327, Note_on_c, 0, 71, 0
2, 11328, Note_on_c, 0, 73, 75
2, 11343, Note_on_c, 0, 73, 0
2, 11344, Note_on_c, 0, 71, 75
2, 11359, Note_on_c, 0, 71, 0
2, 11360, Note_on_c, 0, 73, 75
2, 11375, Note_on_c, 0, 73, 0
2, 11376, Note_on_c, 0, 71, 75
2, 11391, Note_on_c, 0, 71, 0
2, 11392, Note_on_c, 0, 69, 75
2, 11407, Note_on_c, 0, 69, 0
2, 11408, Note_on_c, 0, 71, 75
2, 11423, Note_on_c, 0, 71, 0
2, 11424, Note_on_c, 0, 76, 75
2, 11472, Note_on_c, 0, 76, 0
2, 11472, Note_on_c, 0, 75, 75
2, 11492, Note_on_c, 0, 75, 0
2, 11520, Note_on_c, 0, 75, 75
2, 11568, Note_on_c, 0, 75, 0
2, 11568, Note_on_c, 0, 73, 75
2, 11588, Note_on_c, 0, 73, 0
2, 11616, Note_on_c, 0, 73, 75
2, 11664, Note_on_c, 0, 73, 0
2, 11664, Note_on_c, 0, 81, 75
2, 11684, Note_on_c, 0, 81, 0
2, 11712, Note_on_c, 0, 81, 75
2, 11760, Note_on_c, 0, 81, 0
2, 11760, Note_on_c, 0, 73, 75
2, 11780, Note_on_c, 0, 73, 0
2, 11808, Note_on_c, 0, 73, 75
2, 11820, Note_on_c, 0, 73, 0
2, 11820, Note_on_c, 0, 75, 75
2, 11832, Note_on_c, 0, 75, 0
2, 11832, Note_on_c, 0, 73, 75
2, 11844, Note_on_c, 0, 73, 0
2, 11844, Note_on_c, 0, 75, 75
2, 11856, Note_on_c, 0, 75, 0
2, 11856, Note_on_c, 0, 71, 75
2, 11876, Note_on_c, 0, 71, 0
2, 11904, Note_on_c, 0, 71, 75
2, 12037, Note_on_c, 0, 71, 0
2, 12048, Note_on_c, 0, 83, 69
2, 12093, Note_on_c, 0, 83, 0
2, 12096, Note_on_c, 0, 83, 69
2, 12144, Note_on_c, 0, 83, 0
2, 12144, Note_on_c, 0, 81, 69
2, 12164, Note_on_c, 0, 81, 0
2, 12192, Note_on_c, 0, 81, 69
2, 12325, Note_on_c, 0, 81, 0
2, 12336, Note_on_c, 0, 80, 69
2, 12381, Note_on_c, 0, 80, 0
2, 12384, Note_on_c, 0, 80, 69
2, 12432, Note_on_c, 0, 80, 0
2, 12432, Note_on_c, 0, 78, 69
2, 12452, Note_on_c, 0, 78, 0
2, 12480, Note_on_c, 0, 78, 69
2, 12613, Note_on_c, 0, 78, 0
2, 12624, Note_on_c, 0, 76, 69
2, 12669, Note_on_c, 0, 76, 0
2, 12672, Note_on_c, 0, 76, 75
2, 12720, Note_on_c, 0, 76, 0
2, 12720, Note_on_c, 0, 85, 75
2, 12740, Note_on_c, 0, 85, 0
2, 12768, Note_on_c, 0, 85, 91
2, 12912, Note_on_c, 0, 85, 0
2, 12912, Note_on_c, 0, 83, 75
2, 12957, Note_on_c, 0, 83, 0
2, 12960, Note_on_c, 0, 83, 75
2, 13008, Note_on_c, 0, 83, 0
2, 13008, Note_on_c, 0, 81, 75
2, 13028, Note_on_c, 0, 81, 0
2, 13056, Note_on_c, 0, 81, 91
2, 13200, Note_on_c, 0, 81, 0
2, 13200, Note_on_c, 0, 80, 75
2, 13245, Note_on_c, 0, 80, 0
2, 13248, Note_on_c, 0, 80, 75
2, 13296, Note_on_c, 0, 80, 0
2, 13296, Note_on_c, 0, 78, 75
2, 13316, Note_on_c, 0, 78, 0
2, 13344, Note_on_c, 0, 78, 75
2, 13392, Note_on_c, 0, 78, 0
2, 13392, Note_on_c, 0, 76, 75
2, 13412, Note_on_c, 0, 76, 0
2, 13440, Note_on_c, 0, 76, 75
2, 13488, Note_on_c, 0, 76, 0
2, 13488, Note_on_c, 0, 75, 75
2, 13508, Note_on_c, 0, 75, 0
2, 13536, Note_on_c, 0, 75, 75
2, 13632, Note_on_c, 0, 75, 0
2, 13632, Note_on_c, 0, 76, 75
2, 13721, Note_on_c, 0, 76, 0
2, 13824, Note_on_c, 0, 71, 84
2, 13869, Note_on_c, 0, 71, 0
2, 13872, Note_on_c, 0, 72, 84
2, 13917, Note_on_c, 0, 72, 0
2, 13920, Note_on_c, 0, 71, 84
2, 13965, Note_on_c, 0, 71, 0
2, 13968, Note_on_c, 0, 67, 84
2, 14013, Note_on_c, 0, 67, 0
2, 14016, Note_on_c, 0, 69, 84
2, 14061, Note_on_c, 0, 69, 0
2, 14064, Note_on_c, 0, 66, 84
2, 14109, Note_on_c, 0, 66, 0
2, 14112, Note_on_c, 0, 67, 84
2, 14157, Note_on_c, 0, 67, 0
2, 14160, Note_on_c, 0, 69, 84
2, 14205, Note_on_c, 0, 69, 0
2, 14208, Note_on_c, 0, 67, 84
2, 14253, Note_on_c, 0, 67, 0
2, 14256, Note_on_c, 0, 64, 84
2, 14301, Note_on_c, 0, 64, 0
2, 14304, Note_on_c, 0, 66, 84
2, 14349, Note_on_c, 0, 66, 0
2, 14352, Note_on_c, 0, 63, 84
2, 14397, Note_on_c, 0, 63, 0
2, 14400, Note_on_c, 0, 64, 75
2, 14445, Note_on_c, 0, 64, 0
2, 14448, Note_on_c, 0, 59, 75
2, 14493, Note_on_c, 0, 59, 0
2, 14496, Note_on_c, 0, 66, 75
2, 14541, Note_on_c, 0, 66, 0
2, 14544, Note_on_c, 0, 59, 75
2, 14589, Note_on_c, 0, 59, 0
2, 14592, Note_on_c, 0, 67, 75
2, 14637, Note_on_c, 0, 67, 0
2, 14640, Note_on_c, 0, 59, 75
2, 14685, Note_on_c, 0, 59, 0
2, 14688, Note_on_c, 0, 69, 75
2, 14733, Note_on_c, 0, 69, 0
2, 14736, Note_on_c, 0, 59, 75
2, 14781, Note_on_c, 0, 59, 0
2, 14784, Note_on_c, 0, 66, 75
2, 14829, Note_on_c, 0, 66, 0
2, 14832, Note_on_c, 0, 59, 75
2, 14877, Note_on_c, 0, 59, 0
2, 14880, Note_on_c, 0, 67, 75
2, 14925, Note_on_c, 0, 67, 0
2, 14928, Note_on_c, 0, 59, 75
2, 14973, Note_on_c, 0, 59, 0
2, 14976, Note_on_c, 0, 71, 84
2, 15021, Note_on_c, 0, 71, 0
2, 15024, Note_on_c, 0, 72, 84
2, 15069, Note_on_c, 0, 72, 0
2, 15072, Note_on_c, 0, 71, 84
2, 15117, Note_on_c, 0, 71, 0
2, 15120, Note_on_c, 0, 67, 84
2, 15165, Note_on_c, 0, 67, 0
2, 15168, Note_on_c, 0, 69, 84
2, 15213, Note_on_c, 0, 69, 0
2, 15216, Note_on_c, 0, 66, 84
2, 15261, Note_on_c, 0, 66, 0
2, 15264, Note_on_c, 0, 67, 84
2, 15309, Note_on_c, 0, 67, 0
2, 15312, Note_on_c, 0, 69, 84
2, 15357, Note_on_c, 0, 69, 0
2, 15360, Note_on_c, 0, 67, 84
2, 15405, Note_on_c, 0, 67, 0
2, 15408, Note_on_c, 0, 64, 84
2, 15453, Note_on_c, 0, 64, 0
2, 15456, Note_on_c, 0, 66, 84
2, 15501, Note_on_c, 0, 66, 0
2, 15504, Note_on_c, 0, 63, 84
2, 15549, Note_on_c, 0, 63, 0
2, 15552, Note_on_c, 0, 64, 75
2, 15597, Note_on_c, 0, 64, 0
2, 15600, Note_on_c, 0, 59, 75
2, 15645, Note_on_c, 0, 59, 0
2, 15648, Note_on_c, 0, 69, 75
2, 15648, Note_on_c, 0, 66, 75
2, 15693, Note_on_c, 0, 69, 0
2, 15693, Note_on_c, 0, 66, 0
2, 15696, Note_on_c, 0, 59, 75
2, 15741, Note_on_c, 0, 59, 0
2, 15744, Note_on_c, 0, 67, 75
2, 15744, Note_on_c, 0, 64, 75
2, 15789, Note_on_c, 0, 67, 0
2, 15789, Note_on_c, 0, 64, 0
2, 15792, Note_on_c, 0, 59, 75
2, 15837, Note_on_c, 0, 59, 0
2, 15840, Note_on_c, 0, 66, 75
2, 15840, Note_on_c, 0, 63, 75
2, 15929, Note_on_c, 0, 66, 0
2, 15929, Note_on_c, 0, 63, 0
2, 16128, Note_on_c, 0, 71, 84
2, 16173, Note_on_c, 0, 71, 0
2, 16176, Note_on_c, 0, 72, 84
2, 16221, Note_on_c, 0, 72, 0
2, 16224, Note_on_c, 0, 71, 84
2, 16269, Note_on_c, 0, 71, 0
2, 16272, Note_on_c, 0, 67, 84
2, 16317, Note_on_c, 0, 67, 0
2, 16320, Note_on_c, 0, 69, 84
2, 16365, Note_on_c, 0, 69, 0
2, 16368, Note_on_c, 0, 66, 84
2, 16413, Note_on_c, 0, 66, 0
2, 16416, Note_on_c, 0, 67, 84
2, 16461, Note_on_c, 0, 67, 0
2, 16464, Note_on_c, 0, 69, 84
2, 16509, Note_on_c, 0, 69, 0
2, 16512, Note_on_c, 0, 67, 84
2, 16557, Note_on_c, 0, 67, 0
2, 16560, Note_on_c, 0, 64, 84
2, 16605, Note_on_c, 0, 64, 0
2, 16608, Note_on_c, 0, 66, 84
2, 16653, Note_on_c, 0, 66, 0
2, 16656, Note_on_c, 0, 63, 84
2, 16701, Note_on_c, 0, 63, 0
2, 16704, Note_on_c, 0, 64, 75
2, 16749, Note_on_c, 0, 64, 0
2, 16752, Note_on_c, 0, 59, 75
2, 16797, Note_on_c, 0, 59, 0
2, 16800, Note_on_c, 0, 66, 75
2, 16845, Note_on_c, 0, 66, 0
2, 16848, Note_on_c, 0, 59, 75
2, 16893, Note_on_c, 0, 59, 0
2, 16896, Note_on_c, 0, 67, 75
2, 16941, Note_on_c, 0, 67, 0
2, 16944, Note_on_c, 0, 59, 75
2, 16989, Note_on_c, 0, 59, 0
2, 16992, Note_on_c, 0, 69, 75
2, 17037, Note_on_c, 0, 69, 0
2, 17040, Note_on_c, 0, 59, 75
2, 17085, Note_on_c, 0, 59, 0
2, 17088, Note_on_c, 0, 66, 75
2, 17133, Note_on_c, 0, 66, 0
2, 17136, Note_on_c, 0, 59, 75
2, 17181, Note_on_c, 0, 59, 0
2, 17184, Note_on_c, 0, 67, 75
2, 17229, Note_on_c, 0, 67, 0
2, 17232, Note_on_c, 0, 59, 75
2, 17277, Note_on_c, 0, 59, 0
2, 17280, Note_on_c, 0, 71, 84
2, 17325, Note_on_c, 0, 71, 0
2, 17328, Note_on_c, 0, 72, 84
2, 17373, Note_on_c, 0, 72, 0
2, 17376, Note_on_c, 0, 71, 84
2, 17421, Note_on_c, 0, 71, 0
2, 17424, Note_on_c, 0, 67, 84
2, 17469, Note_on_c, 0, 67, 0
2, 17472, Note_on_c, 0, 69, 84
2, 17517, Note_on_c, 0, 69, 0
2, 17520, Note_on_c, 0, 66, 84
2, 17565, Note_on_c, 0, 66, 0
2, 17568, Note_on_c, 0, 67, 84
2, 17613, Note_on_c, 0, 67, 0
2, 17616, Note_on_c, 0, 69, 84
2, 17661, Note_on_c, 0, 69, 0
2, 17664, Note_on_c, 0, 67, 84
2, 17709, Note_on_c, 0, 67, 0
2, 17712, Note_on_c, 0, 64, 84
2, 17757, Note_on_c, 0, 64, 0
2, 17760, Note_on_c, 0, 66, 84
2, 17805, Note_on_c, 0, 66, 0
2, 17808, Note_on_c, 0, 63, 84
2, 17853, Note_on_c, 0, 63, 0
2, 17856, Note_on_c, 0, 64, 75
2, 17901, Note_on_c, 0, 64, 0
2, 17904, Note_on_c, 0, 59, 75
2, 17949, Note_on_c, 0, 59, 0
2, 17952, Note_on_c, 0, 69, 75
2, 17952, Note_on_c, 0, 66, 75
2, 17997, Note_on_c, 0, 69, 0
2, 17997, Note_on_c, 0, 66, 0
2, 18000, Note_on_c, 0, 59, 75
2, 18045, Note_on_c, 0, 59, 0
2, 18048, Note_on_c, 0, 67, 75
2, 18048, Note_on_c, 0, 64, 75
2, 18093, Note_on_c, 0, 67, 0
2, 18093, Note_on_c, 0, 64, 0
2, 18096, Note_on_c, 0, 59, 75
2, 18141, Note_on_c, 0, 59, 0
2, 18144, Note_on_c, 0, 66, 75
2, 18144, Note_on_c, 0, 63, 75
2, 18233, Note_on_c, 0, 66, 0
2, 18233, Note_on_c, 0, 63, 0
2, 18432, Note_on_c, 0, 68, 75
2, 18477, Note_on_c, 0, 68, 0
2, 18480, Note_on_c, 0, 69, 75
2, 18525, Note_on_c, 0, 69, 0
2, 18528, Note_on_c, 0, 68, 75
2, 18573, Note_on_c, 0, 68, 0
2, 18576, Note_on_c, 0, 64, 75
2, 18621, Note_on_c, 0, 64, 0
2, 18624, Note_on_c, 0, 71, 75
2, 18669, Note_on_c, 0, 71, 0
2, 18672, Note_on_c, 0, 64, 75
2, 18717, Note_on_c, 0, 64, 0
2, 18720, Note_on_c, 0, 72, 75
2, 18765, Note_on_c, 0, 72, 0
2, 18768, Note_on_c, 0, 64, 76
2, 18813, Note_on_c, 0, 64, 0
2, 18816, Note_on_c, 0, 68, 78
2, 18861, Note_on_c, 0, 68, 0
2, 18864, Note_on_c, 0, 64, 79
2, 18909, Note_on_c, 0, 64, 0
2, 18912, Note_on_c, 0, 69, 81
2, 18957, Note_on_c, 0, 69, 0
2, 18960, Note_on_c, 0, 64, 82
2, 19005, Note_on_c, 0, 64, 0
2, 19008, Note_on_c, 0, 66, 84
2, 19053, Note_on_c, 0, 66, 0
2, 19056, Note_on_c, 0, 67, 84
2, 19101, Note_on_c, 0, 67, 0
2, 19104, Note_on_c, 0, 66, 84
2, 19149, Note_on_c, 0, 66, 0
2, 19152, Note_on_c, 0, 62, 84
2, 19197, Note_on_c, 0, 62, 0
2, 19200, Note_on_c, 0, 69, 84
2, 19245, Note_on_c, 0, 69, 0
2, 19248, Note_on_c, 0, 62, 84
2, 19293, Note_on_c, 0, 62, 0
2, 19296, Note_on_c, 0, 71, 84
2, 19341, Note_on_c, 0, 71, 0
2, 19344, Note_on_c, 0, 62, 82
2, 19389, Note_on_c, 0, 62, 0
2, 19392, Note_on_c, 0, 66, 81
2, 19437, Note_on_c, 0, 66, 0
2, 19440, Note_on_c, 0, 62, 79
2, 19485, Note_on_c, 0, 62, 0
2, 19488, Note_on_c, 0, 67, 78
2, 19533, Note_on_c, 0, 67, 0
2, 19536, Note_on_c, 0, 62, 76
2, 19581, Note_on_c, 0, 62, 0
2, 19584, Note_on_c, 0, 64, 75
2, 19629, Note_on_c, 0, 64, 0
2, 19632, Note_on_c, 0, 66, 75
2, 19677, Note_on_c, 0, 66, 0
2, 19680, Note_on_c, 0, 64, 75
2, 19725, Note_on_c, 0, 64, 0
2, 19728, Note_on_c, 0, 60, 75
2, 19773, Note_on_c, 0, 60, 0
2, 19776, Note_on_c, 0, 67, 75
2, 19821, Note_on_c, 0, 67, 0
2, 19824, Note_on_c, 0, 60, 75
2, 19869, Note_on_c, 0, 60, 0
2, 19872, Note_on_c, 0, 69, 75
2, 19917, Note_on_c, 0, 69, 0
2, 19920, Note_on_c, 0, 60, 74
2, 19965, Note_on_c, 0, 60, 0
2, 19968, Note_on_c, 0, 64, 73
2, 20013, Note_on_c, 0, 64, 0
2, 20016, Note_on_c, 0, 60, 72
2, 20061, Note_on_c, 0, 60, 0
2, 20064, Note_on_c, 0, 66, 71
2, 20109, Note_on_c, 0, 66, 0
2, 20112, Note_on_c, 0, 60, 70
2, 20157, Note_on_c, 0, 60, 0
2, 20160, Note_on_c, 0, 63, 69
2, 20205, Note_on_c, 0, 63, 0
2, 20208, Note_on_c, 0, 64, 69
2, 20253, Note_on_c, 0, 64, 0
2, 20256, Note_on_c, 0, 63, 69
2, 20301, Note_on_c, 0, 63, 0
2, 20304, Note_on_c, 0, 59, 69
2, 20349, Note_on_c, 0, 59, 0
2, 20352, Note_on_c, 0, 66, 69
2, 20397, Note_on_c, 0, 66, 0
2, 20400, Note_on_c, 0, 59, 69
2, 20445, Note_on_c, 0, 59, 0
2, 20448, Note_on_c, 0, 67, 69
2, 20493, Note_on_c, 0, 67, 0
2, 20496, Note_on_c, 0, 59, 69
2, 20541, Note_on_c, 0, 59, 0
2, 20544, Note_on_c, 0, 63, 69
2, 20589, Note_on_c, 0, 63, 0
2, 20592, Note_on_c, 0, 59, 69
2, 20637, Note_on_c, 0, 59, 0
2, 20640, Note_on_c, 0, 64, 69
2, 20685, Note_on_c, 0, 64, 0
2, 20688, Note_on_c, 0, 59, 69
2, 20733, Note_on_c, 0, 59, 0
2, 20736, Note_on_c, 0, 66, 69
2, 20781, Note_on_c, 0, 66, 0
2, 20784, Note_on_c, 0, 59, 70
2, 20829, Note_on_c, 0, 59, 0
2, 20832, Note_on_c, 0, 69, 71
2, 20877, Note_on_c, 0, 69, 0
2, 20880, Note_on_c, 0, 59, 72
2, 20925, Note_on_c, 0, 59, 0
2, 20928, Note_on_c, 0, 67, 73
2, 20973, Note_on_c, 0, 67, 0
2, 20976, Note_on_c, 0, 59, 74
2, 21021, Note_on_c, 0, 59, 0
2, 21024, Note_on_c, 0, 67, 75
2, 21036, Note_on_c, 0, 67, 0
2, 21036, Note_on_c, 0, 66, 75
2, 21048, Note_on_c, 0, 66, 0
2, 21048, Note_on_c, 0, 64, 75
2, 21060, Note_on_c, 0, 64, 0
2, 21060, Note_on_c, 0, 66, 75
2, 21113, Note_on_c, 0, 66, 0
2, 21312, Note_on_c, 0, 71, 84
2, 21357, Note_on_c, 0, 71, 0
2, 21360, Note_on_c, 0, 72, 84
2, 21405, Note_on_c, 0, 72, 0
2, 21408, Note_on_c, 0, 71, 84
2, 21453, Note_on_c, 0, 71, 0
2, 21456, Note_on_c, 0, 67, 84
2, 21501, Note_on_c, 0, 67, 0
2, 21504, Note_on_c, 0, 69, 84
2, 21549, Note_on_c, 0, 69, 0
2, 21552, Note_on_c, 0, 66, 84
2, 21597, Note_on_c, 0, 66, 0
2, 21600, Note_on_c, 0, 67, 84
2, 21645, Note_on_c, 0, 67, 0
2, 21648, Note_on_c, 0, 69, 84
2, 21693, Note_on_c, 0, 69, 0
2, 21696, Note_on_c, 0, 67, 84
2, 21741, Note_on_c, 0, 67, 0
2, 21744, Note_on_c, 0, 64, 84
2, 21789, Note_on_c, 0, 64, 0
2, 21792, Note_on_c, 0, 66, 84
2, 21837, Note_on_c, 0, 66, 0
2, 21840, Note_on_c, 0, 63, 84
2, 21885, Note_on_c, 0, 63, 0
2, 21888, Note_on_c, 0, 64, 75
2, 21933, Note_on_c, 0, 64, 0
2, 21936, Note_on_c, 0, 59, 75
2, 21981, Note_on_c, 0, 59, 0
2, 21984, Note_on_c, 0, 66, 75
2, 22029, Note_on_c, 0, 66, 0
2, 22032, Note_on_c, 0, 59, 75
2, 22077, Note_on_c, 0, 59, 0
2, 22080, Note_on_c, 0, 67, 75
2, 22125, Note_on_c, 0, 67, 0
2, 22128, Note_on_c, 0, 59, 75
2, 22173, Note_on_c, 0, 59, 0
2, 22176, Note_on_c, 0, 69, 75
2, 22221, Note_on_c, 0, 69, 0
2, 22224, Note_on_c, 0, 59, 75
2, 22269, Note_on_c, 0, 59, 0
2, 22272, Note_on_c, 0, 66, 75
2, 22317, Note_on_c, 0, 66, 0
2, 22320, Note_on_c, 0, 59, 75
2, 22365, Note_on_c, 0, 59, 0
2, 22368, Note_on_c, 0, 67, 75
2, 22413, Note_on_c, 0, 67, 0
2, 22416, Note_on_c, 0, 59, 75
2, 22461, Note_on_c, 0, 59, 0
2, 22464, Note_on_c, 0, 71, 84
2, 22509, Note_on_c, 0, 71, 0
2, 22512, Note_on_c, 0, 72, 84
2, 22557, Note_on_c, 0, 72, 0
2, 22560, Note_on_c, 0, 71, 84
2, 22605, Note_on_c, 0, 71, 0
2, 22608, Note_on_c, 0, 67, 84
2, 22653, Note_on_c, 0, 67, 0
2, 22656, Note_on_c, 0, 69, 84
2, 22701, Note_on_c, 0, 69, 0
2, 22704, Note_on_c, 0, 66, 84
2, 22749, Note_on_c, 0, 66, 0
2, 22752, Note_on_c, 0, 67, 84
2, 22797, Note_on_c, 0, 67, 0
2, 22800, Note_on_c, 0, 69, 84
2, 22845, Note_on_c, 0, 69, 0
2, 22848, Note_on_c, 0, 67, 84
2, 22893, Note_on_c, 0, 67, 0
2, 22896, Note_on_c, 0, 64, 84
2, 22941, Note_on_c, 0, 64, 0
2, 22944, Note_on_c, 0, 68, 84
2, 22989, Note_on_c, 0, 68, 0
2, 22992, Note_on_c, 0, 64, 84
2, 23037, Note_on_c, 0, 64, 0
2, 23040, Note_on_c, 0, 69, 84
2, 23085, Note_on_c, 0, 69, 0
2, 23088, Note_on_c, 0, 64, 84
2, 23133, Note_on_c, 0, 64, 0
2, 23136, Note_on_c, 0, 71, 84
2, 23181, Note_on_c, 0, 71, 0
2, 23184, Note_on_c, 0, 64, 84
2, 23229, Note_on_c, 0, 64, 0
2, 23232, Note_on_c, 0, 72, 84
2, 23277, Note_on_c, 0, 72, 0
2, 23280, Note_on_c, 0, 64, 84
2, 23325, Note_on_c, 0, 64, 0
2, 23328, Note_on_c, 0, 72, 84
2, 23373, Note_on_c, 0, 72, 0
2, 23376, Note_on_c, 0, 71, 84
2, 23421, Note_on_c, 0, 71, 0
2, 23424, Note_on_c, 0, 69, 84
2, 23469, Note_on_c, 0, 69, 0
2, 23472, Note_on_c, 0, 67, 84
2, 23517, Note_on_c, 0, 67, 0
2, 23520, Note_on_c, 0, 66, 84
2, 23565, Note_on_c, 0, 66, 0
2, 23568, Note_on_c, 0, 64, 84
2, 23613, Note_on_c, 0, 64, 0
2, 23616, Note_on_c, 0, 66, 75
2, 23661, Note_on_c, 0, 66, 0
2, 23664, Note_on_c, 0, 69, 75
2, 23709, Note_on_c, 0, 69, 0
2, 23712, Note_on_c, 0, 67, 75
2, 23757, Note_on_c, 0, 67, 0
2, 23760, Note_on_c, 0, 64, 75
2, 23805, Note_on_c, 0, 64, 0
2, 23808, Note_on_c, 0, 66, 75
2, 23853, Note_on_c, 0, 66, 0
2, 23856, Note_on_c, 0, 63, 75
2, 23901, Note_on_c, 0, 63, 0
2, 23904, Note_on_c, 0, 66, 75
2, 23916, Note_on_c, 0, 66, 0
2, 23916, Note_on_c, 0, 64, 75
2, 23928, Note_on_c, 0, 64, 0
2, 23928, Note_on_c, 0, 63, 75
2, 23940, Note_on_c, 0, 63, 0
2, 23940, Note_on_c, 0, 64, 75
2, 24081, Note_on_c, 0, 64, 0
2, 24192, Note_on_c, 0, 68, 75
2, 24237, Note_on_c, 0, 68, 0
2, 24240, Note_on_c, 0, 69, 75
2, 24285, Note_on_c, 0, 69, 0
2, 24288, Note_on_c, 0, 68, 75
2, 24333, Note_on_c, 0, 68, 0
2, 24336, Note_on_c, 0, 64, 75
2, 24381, Note_on_c, 0, 64, 0
2, 24384, Note_on_c, 0, 71, 75
2, 24429, Note_on_c, 0, 71, 0
2, 24432, Note_on_c, 0, 64, 75
2, 24477, Note_on_c, 0, 64, 0
2, 24480, Note_on_c, 0, 72, 75
2, 24525, Note_on_c, 0, 72, 0
2, 24528, Note_on_c, 0, 64, 76
2, 24573, Note_on_c, 0, 64, 0
2, 24576, Note_on_c, 0, 68, 78
2, 24621, Note_on_c, 0, 68, 0
2, 24624, Note_on_c, 0, 64, 79
2, 24669, Note_on_c, 0, 64, 0
2, 24672, Note_on_c, 0, 69, 81
2, 24717, Note_on_c, 0, 69, 0
2, 24720, Note_on_c, 0, 64, 82
2, 24765, Note_on_c, 0, 64, 0
2, 24768, Note_on_c, 0, 66, 84
2, 24813, Note_on_c, 0, 66, 0
2, 24816, Note_on_c, 0, 67, 84
2, 24861, Note_on_c, 0, 67, 0
2, 24864, Note_on_c, 0, 66, 84
2, 24909, Note_on_c, 0, 66, 0
2, 24912, Note_on_c, 0, 62, 84
2, 24957, Note_on_c, 0, 62, 0
2, 24960, Note_on_c, 0, 69, 84
2, 25005, Note_on_c, 0, 69, 0
2, 25008, Note_on_c, 0, 62, 84
2, 25053, Note_on_c, 0, 62, 0
2, 25056, Note_on_c, 0, 71, 84
2, 25101, Note_on_c, 0, 71, 0
2, 25104, Note_on_c, 0, 62, 82
2, 25149, Note_on_c, 0, 62, 0
2, 25152, Note_on_c, 0, 66, 81
2, 25197, Note_on_c, 0, 66, 0
2, 25200, Note_on_c, 0, 62, 79
2, 25245, Note_on_c, 0, 62, 0
2, 25248, Note_on_c, 0, 67, 78
2, 25293, Note_on_c, 0, 67, 0
2, 25296, Note_on_c, 0, 62, 76
2, 25341, Note_on_c, 0, 62, 0
2, 25344, Note_on_c, 0, 64, 75
2, 25389, Note_on_c, 0, 64, 0
2, 25392, Note_on_c, 0, 66, 75
2, 25437, Note_on_c, 0, 66, 0
2, 25440, Note_on_c, 0, 64, 75
2, 25485, Note_on_c, 0, 64, 0
2, 25488, Note_on_c, 0, 60, 75
2, 25533, Note_on_c, 0, 60, 0
2, 25536, Note_on_c, 0, 67, 75
2, 25581, Note_on_c, 0, 67, 0
2, 25584, Note_on_c, 0, 60, 75
2, 25629, Note_on_c, 0, 60, 0
2, 25632, Note_on_c, 0, 69, 75
2, 25677, Note_on_c, 0, 69, 0
2, 25680, Note_on_c, 0, 60, 74
2, 25725, Note_on_c, 0, 60, 0
2, 25728, Note_on_c, 0, 64, 73
2, 25773, Note_on_c, 0, 64, 0
2, 25776, Note_on_c, 0, 60, 72
2, 25821, Note_on_c, 0, 60, 0
2, 25824, Note_on_c, 0, 66, 71
2, 25869, Note_on_c, 0, 66, 0
2, 25872, Note_on_c, 0, 60, 70
2, 25917, Note_on_c, 0, 60, 0
2, 25920, Note_on_c, 0, 63, 69
2, 25965, Note_on_c, 0, 63, 0
2, 25968, Note_on_c, 0, 64, 69
2, 26013, Note_on_c, 0, 64, 0
2, 26016, Note_on_c, 0, 63, 69
2, 26061, Note_on_c, 0, 63, 0
2, 26064, Note_on_c, 0, 59, 69
2, 26109, Note_on_c, 0, 59, 0
2, 26112, Note_on_c, 0, 66, 69
2, 26157, Note_on_c, 0, 66, 0
2, 26160, Note_on_c, 0, 59, 69
2, 26205, Note_on_c, 0, 59, 0
2, 26208, Note_on_c, 0, 67, 69
2, 26253, Note_on_c, 0, 67, 0
2, 26256, Note_on_c, 0, 59, 69
2, 26301, Note_on_c, 0, 59, 0
2, 26304, Note_on_c, 0, 63, 69
2, 26349, Note_on_c, 0, 63, 0
2, 26352, Note_on_c, 0, 59, 69
2, 26397, Note_on_c, 0, 59, 0
2, 26400, Note_on_c, 0, 64, 69
2, 26445, Note_on_c, 0, 64, 0
2, 26448, Note_on_c, 0, 59, 69
2, 26493, Note_on_c, 0, 59, 0
2, 26496, Note_on_c, 0, 66, 69
2, 26541, Note_on_c, 0, 66, 0
2, 26544, Note_on_c, 0, 59, 70
2, 26589, Note_on_c, 0, 59, 0
2, 26592, Note_on_c, 0, 69, 71
2, 26637, Note_on_c, 0, 69, 0
2, 26640, Note_on_c, 0, 59, 72
2, 26685, Note_on_c, 0, 59, 0
2, 26688, Note_on_c, 0, 67, 73
2, 26733, Note_on_c, 0, 67, 0
2, 26736, Note_on_c, 0, 59, 74
2, 26781, Note_on_c, 0, 59, 0
2, 26784, Note_on_c, 0, 67, 75
2, 26796, Note_on_c, 0, 67, 0
2, 26796, Note_on_c, 0, 66, 75
2, 26808, Note_on_c, 0, 66, 0
2, 26808, Note_on_c, 0, 64, 75
2, 26820, Note_on_c, 0, 64, 0
2, 26820, Note_on_c, 0, 66, 75
2, 26873, Note_on_c, 0, 66, 0
2, 27072, Note_on_c, 0, 71, 84
2, 27117, Note_on_c, 0, 71, 0
2, 27120, Note_on_c, 0, 72, 84
2, 27165, Note_on_c, 0, 72, 0
2, 27168, Note_on_c, 0, 71, 84
2, 27213, Note_on_c, 0, 71, 0
2, 27216, Note_on_c, 0, 67, 84
2, 27261, Note_on_c, 0, 67, 0
2, 27264, Note_on_c, 0, 69, 84
2, 27309, Note_on_c, 0, 69, 0
2, 27312, Note_on_c, 0, 66, 84
2, 27357, Note_on_c, 0, 66, 0
2, 27360, Note_on_c, 0, 67, 84
2, 27405, Note_on_c, 0, 67, 0
2, 27408, Note_on_c, 0, 69, 84
2, 27453, Note_on_c, 0, 69, 0
2, 27456, Note_on_c, 0, 67, 84
2, 27501, Note_on_c, 0, 67, 0
2, 27504, Note_on_c, 0, 64, 84
2, 27549, Note_on_c, 0, 64, 0
2, 27552, Note_on_c, 0, 66, 84
2, 27597, Note_on_c, 0, 66, 0
2, 27600, Note_on_c, 0, 63, 84
2, 27645, Note_on_c, 0, 63, 0
2, 27648, Note_on_c, 0, 64, 75
2, 27693, Note_on_c, 0, 64, 0
2, 27696, Note_on_c, 0, 59, 75
2, 27741, Note_on_c, 0, 59, 0
2, 27744, Note_on_c, 0, 66, 75
2, 27789, Note_on_c, 0, 66, 0
2, 27792, Note_on_c, 0, 59, 75
2, 27837, Note_on_c, 0, 59, 0
2, 27840, Note_on_c, 0, 67, 75
2, 27885, Note_on_c, 0, 67, 0
2, 27888, Note_on_c, 0, 59, 75
2, 27933, Note_on_c, 0, 59, 0
2, 27936, Note_on_c, 0, 69, 75
2, 27981, Note_on_c, 0, 69, 0
2, 27984, Note_on_c, 0, 59, 75
2, 28029, Note_on_c, 0, 59, 0
2, 28032, Note_on_c, 0, 66, 75
2, 28077, Note_on_c, 0, 66, 0
2, 28080, Note_on_c, 0, 59, 75
2, 28125, Note_on_c, 0, 59, 0
2, 28128, Note_on_c, 0, 67, 75
2, 28173, Note_on_c, 0, 67, 0
2, 28176, Note_on_c, 0, 59, 75
2, 28221, Note_on_c, 0, 59, 0
2, 28224, Note_on_c, 0, 71, 84
2, 28269, Note_on_c, 0, 71, 0
2, 28272, Note_on_c, 0, 72, 84
2, 28317, Note_on_c, 0, 72, 0
2, 28320, Note_on_c, 0, 71, 84
2, 28365, Note_on_c, 0, 71, 0
2, 28368, Note_on_c, 0, 67, 84
2, 28413, Note_on_c, 0, 67, 0
2, 28416, Note_on_c, 0, 69, 84
2, 28461, Note_on_c, 0, 69, 0
2, 28464, Note_on_c, 0, 66, 84
2, 28509, Note_on_c, 0, 66, 0
2, 28512, Note_on_c, 0, 67, 84
2, 28557, Note_on_c, 0, 67, 0
2, 28560, Note_on_c, 0, 69, 84
2, 28605, Note_on_c, 0, 69, 0
2, 28608, Note_on_c, 0, 67, 84
2, 28653, Note_on_c, 0, 67, 0
2, 28656, Note_on_c, 0, 64, 84
2, 28701, Note_on_c, 0, 64, 0
2, 28704, Note_on_c, 0, 68, 84
2, 28749, Note_on_c, 0, 68, 0
2, 28752, Note_on_c, 0, 64, 84
2, 28797, Note_on_c, 0, 64, 0
2, 28800, Note_on_c, 0, 69, 84
2, 28845, Note_on_c, 0, 69, 0
2, 28848, Note_on_c, 0, 64, 84
2, 28893, Note_on_c, 0, 64, 0
2, 28896, Note_on_c, 0, 71, 84
2, 28941, Note_on_c, 0, 71, 0
2, 28944, Note_on_c, 0, 64, 84
2, 28989, Note_on_c, 0, 64, 0
2, 28992, Note_on_c, 0, 72, 84
2, 29037, Note_on_c, 0, 72, 0
2, 29040, Note_on_c, 0, 64, 84
2, 29085, Note_on_c, 0, 64, 0
2, 29088, Note_on_c, 0, 72, 84
2, 29133, Note_on_c, 0, 72, 0
2, 29136, Note_on_c, 0, 71, 84
2, 29181, Note_on_c, 0, 71, 0
2, 29184, Note_on_c, 0, 69, 84
2, 29229, Note_on_c, 0, 69, 0
2, 29232, Note_on_c, 0, 67, 84
2, 29277, Note_on_c, 0, 67, 0
2, 29280, Note_on_c, 0, 66, 84
2, 29325, Note_on_c, 0, 66, 0
2, 29328, Note_on_c, 0, 64, 84
2, 29373, Note_on_c, 0, 64, 0
2, 29376, Note_on_c, 0, 66, 75
2, 29421, Note_on_c, 0, 66, 0
2, 29424, Note_on_c, 0, 69, 75
2, 29469, Note_on_c, 0, 69, 0
2, 29472, Note_on_c, 0, 67, 75
2, 29517, Note_on_c, 0, 67, 0
2, 29520, Note_on_c, 0, 64, 75
2, 29565, Note_on_c, 0, 64, 0
2, 29568, Note_on_c, 0, 66, 75
2, 29613, Note_on_c, 0, 66, 0
2, 29616, Note_on_c, 0, 63, 75
2, 29661, Note_on_c, 0, 63, 0
2, 29664, Note_on_c, 0, 66, 75
2, 29676, Note_on_c, 0, 66, 0
2, 29676, Note_on_c, 0, 64, 75
2, 29688, Note_on_c, 0, 64, 0
2, 29688, Note_on_c, 0, 63, 75
2, 29700, Note_on_c, 0, 63, 0
2, 29700, Note_on_c, 0, 64, 75
2, 29841, Note_on_c, 0, 64, 0
2, 29952, Note_on_c, 0, 71, 75
2, 30041, Note_on_c, 0, 71, 0
2, 30048, Note_on_c, 0, 71, 75
2, 30137, Note_on_c, 0, 71, 0
2, 30144, Note_on_c, 0, 71, 75
2, 30233, Note_on_c, 0, 71, 0
2, 30240, Note_on_c, 0, 73, 75
2, 30255, Note_on_c, 0, 73, 0
2, 30256, Note_on_c, 0, 71, 75
2, 30271, Note_on_c, 0, 71, 0
2, 30272, Note_on_c, 0, 73, 75
2, 30287, Note_on_c, 0, 73, 0
2, 30288, Note_on_c, 0, 71, 75
2, 30303, Note_on_c, 0, 71, 0
2, 30304, Note_on_c, 0, 73, 75
2, 30319, Note_on_c, 0, 73, 0
2, 30320, Note_on_c, 0, 71, 75
2, 30335, Note_on_c, 0, 71, 0
2, 30336, Note_on_c, 0, 73, 75
2, 30351, Note_on_c, 0, 73, 0
2, 30352, Note_on_c, 0, 71, 75
2, 30367, Note_on_c, 0, 71, 0
2, 30368, Note_on_c, 0, 73, 75
2, 30383, Note_on_c, 0, 73, 0
2, 30384, Note_on_c, 0, 71, 75
2, 30399, Note_on_c, 0, 71, 0
2, 30400, Note_on_c, 0, 69, 75
2, 30415, Note_on_c, 0, 69, 0
2, 30416, Note_on_c, 0, 71, 75
2, 30431, Note_on_c, 0, 71, 0
2, 30432, Note_on_c, 0, 76, 75
2, 30480, Note_on_c, 0, 76, 0
2, 30480, Note_on_c, 0, 75, 75
2, 30500, Note_on_c, 0, 75, 0
2, 30528, Note_on_c, 0, 75, 75
2, 30576, Note_on_c, 0, 75, 0
2, 30576, Note_on_c, 0, 73, 75
2, 30596, Note_on_c, 0, 73, 0
2, 30624, Note_on_c, 0, 73, 75
2, 30672, Note_on_c, 0, 73, 0
2, 30672, Note_on_c, 0, 81, 75
2, 30692, Note_on_c, 0, 81, 0
2, 30720, Note_on_c, 0, 81, 75
2, 30768, Note_on_c, 0, 81, 0
2, 30768, Note_on_c, 0, 73, 75
2, 30788, Note_on_c, 0, 73, 0
2, 30816, Note_on_c, 0, 73, 75
2, 30828, Note_on_c, 0, 73, 0
2, 30828, Note_on_c, 0, 75, 75
2, 30840, Note_on_c, 0, 75, 0
2, 30840, Note_on_c, 0, 73, 75
2, 30864, Note_on_c, 0, 73, 0
2, 30864, Note_on_c, 0, 71, 75
2, 30884, Note_on_c, 0, 71, 0
2, 30912, Note_on_c, 0, 71, 75
2, 31045, Note_on_c, 0, 71, 0
2, 31056, Note_on_c, 0, 83, 69
2, 31101, Note_on_c, 0, 83, 0
2, 31104, Note_on_c, 0, 83, 69
2, 31152, Note_on_c, 0, 83, 0
2, 31152, Note_on_c, 0, 81, 69
2, 31172, Note_on_c, 0, 81, 0
2, 31200, Note_on_c, 0, 81, 69
2, 31333, Note_on_c, 0, 81, 0
2, 31344, Note_on_c, 0, 80, 69
2, 31389, Note_on_c, 0, 80, 0
2, 31392, Note_on_c, 0, 80, 69
2, 31440, Note_on_c, 0, 80, 0
2, 31440, Note_on_c, 0, 78, 69
2, 31460, Note_on_c, 0, 78, 0
2, 31488, Note_on_c, 0, 78, 69
2, 31621, Note_on_c, 0, 78, 0
2, 31632, Note_on_c, 0, 76, 69
2, 31677, Note_on_c, 0, 76, 0
2, 31680, Note_on_c, 0, 75, 69
2, 31728, Note_on_c, 0, 75, 0
2, 31728, Note_on_c, 0, 78, 69
2, 31748, Note_on_c, 0, 78, 0
2, 31776, Note_on_c, 0, 78, 69
2, 31824, Note_on_c, 0, 78, 0
2, 31824, Note_on_c, 0, 81, 69
2, 31844, Note_on_c, 0, 81, 0
2, 31872, Note_on_c, 0, 81, 69
2, 31872, Note_on_c, 0, 78, 69
2, 31920, Note_on_c, 0, 81, 0
2, 31920, Note_on_c, 0, 78, 0
2, 31920, Note_on_c, 0, 80, 69
2, 31920, Note_on_c, 0, 76, 69
2, 31940, Note_on_c, 0, 80, 0
2, 31940, Note_on_c, 0, 76, 0
2, 31968, Note_on_c, 0, 80, 69
2, 31968, Note_on_c, 0, 76, 69
2, 32064, Note_on_c, 0, 80, 0
2, 32064, Note_on_c, 0, 76, 0
2, 32064, Note_on_c, 0, 78, 69
2, 32064, Note_on_c, 0, 75, 69
2, 32153, Note_on_c, 0, 78, 0
2, 32153, Note_on_c, 0, 75, 0
2, 32256, Note_on_c, 0, 71, 75
2, 32345, Note_on_c, 0, 71, 0
2, 32352, Note_on_c, 0, 71, 75
2, 32441, Note_on_c, 0, 71, 0
2, 32448, Note_on_c, 0, 71, 75
2, 32537, Note_on_c, 0, 71, 0
2, 32544, Note_on_c, 0, 73, 75
2, 32559, Note_on_c, 0, 73, 0
2, 32560, Note_on_c, 0, 71, 75
2, 32575, Note_on_c, 0, 71, 0
2, 32576, Note_on_c, 0, 73, 75
2, 32591, Note_on_c, 0, 73, 0
2, 32592, Note_on_c, 0, 71, 75
2, 32607, Note_on_c, 0, 71, 0
2, 32608, Note_on_c, 0, 73, 75
2, 32623, Note_on_c, 0, 73, 0
2, 32624, Note_on_c, 0, 71, 75
2, 32639, Note_on_c, 0, 71, 0
2, 32640, Note_on_c, 0, 73, 75
2, 32655, Note_on_c, 0, 73, 0
2, 32656, Note_on_c, 0, 71, 75
2, 32671, Note_on_c, 0, 71, 0
2, 32672, Note_on_c, 0, 73, 75
2, 32687, Note_on_c, 0, 73, 0
2, 32688, Note_on_c, 0, 71, 75
2, 32703, Note_on_c, 0, 71, 0
2, 32704, Note_on_c, 0, 69, 75
2, 32719, Note_on_c, 0, 69, 0
2, 32720, Note_on_c, 0, 71, 75
2, 32735, Note_on_c, 0, 71, 0
2, 32736, Note_on_c, 0, 76, 75
2, 32784, Note_on_c, 0, 76, 0
2, 32784, Note_on_c, 0, 75, 75
2, 32804, Note_on_c, 0, 75, 0
2, 32832, Note_on_c, 0, 75, 75
2, 32880, Note_on_c, 0, 75, 0
2, 32880, Note_on_c, 0, 73, 75
2, 32900, Note_on_c, 0, 73, 0
2, 32928, Note_on_c, 0, 73, 75
2, 32976, Note_on_c, 0, 73, 0
2, 32976, Note_on_c, 0, 81, 75
2, 32996, Note_on_c, 0, 81, 0
2, 33024, Note_on_c, 0, 81, 75
2, 33072, Note_on_c, 0, 81, 0
2, 33072, Note_on_c, 0, 73, 75
2, 33092, Note_on_c, 0, 73, 0
2, 33120, Note_on_c, 0, 73, 75
2, 33132, Note_on_c, 0, 73, 0
2, 33132, Note_on_c, 0, 75, 75
2, 33144, Note_on_c, 0, 75, 0
2, 33144, Note_on_c, 0, 73, 75
2, 33168, Note_on_c, 0, 73, 0
2, 33168, Note_on_c, 0, 71, 75
2, 33188, Note_on_c, 0, 71, 0
2, 33216, Note_on_c, 0, 71, 75
2, 33349, Note_on_c, 0, 71, 0
2, 33360, Note_on_c, 0, 83, 69
2, 33405, Note_on_c, 0, 83, 0
2, 33408, Note_on_c, 0, 83, 69
2, 33456, Note_on_c, 0, 83, 0
2, 33456, Note_on_c, 0, 81, 69
2, 33476, Note_on_c, 0, 81, 0
2, 33504, Note_on_c, 0, 81, 69
2, 33637, Note_on_c, 0, 81, 0
2, 33648, Note_on_c, 0, 80, 69
2, 33693, Note_on_c, 0, 80, 0
2, 33696, Note_on_c, 0, 80, 69
2, 33744, Note_on_c, 0, 80, 0
2, 33744, Note_on_c, 0, 78, 69
2, 33764, Note_on_c, 0, 78, 0
2, 33792, Note_on_c, 0, 78, 69
2, 33925, Note_on_c, 0, 78, 0
2, 33936, Note_on_c, 0, 76, 69
2, 33981, Note_on_c, 0, 76, 0
2, 33984, Note_on_c, 0, 75, 69
2, 34032, Note_on_c, 0, 75, 0
2, 34032, Note_on_c, 0, 78, 69
2, 34052, Note_on_c, 0, 78, 0
2, 34080, Note_on_c, 0, 78, 69
2, 34128, Note_on_c, 0, 78, 0
2, 34128, Note_on_c, 0, 81, 69
2, 34148, Note_on_c, 0, 81, 0
2, 34176, Note_on_c, 0, 81, 69
2, 34176, Note_on_c, 0, 78, 69
2, 34224, Note_on_c, 0, 81, 0
2, 34224, Note_on_c, 0, 78, 0
2, 34224, Note_on_c, 0, 80, 69
2, 34224, Note_on_c, 0, 76, 69
2, 34244, Note_on_c, 0, 80, 0
2, 34244, Note_on_c, 0, 76, 0
2, 34272, Note_on_c, 0, 80, 69
2, 34272, Note_on_c, 0, 76, 69
2, 34368, Note_on_c, 0, 80, 0
2, 34368, Note_on_c, 0, 76, 0
2, 34368, Note_on_c, 0, 78, 69
2, 34368, Note_on_c, 0, 75, 69
2, 34457, Note_on_c, 0, 78, 0
2, 34457, Note_on_c, 0, 75, 0
2, 34560, Note_on_c, 0, 71, 69
2, 34608, Note_on_c, 0, 71, 0
2, 34608, Note_on_c, 0, 75, 69
2, 34628, Note_on_c, 0, 75, 0
2, 34656, Note_on_c, 0, 75, 69
2, 34789, Note_on_c, 0, 75, 0
2, 34800, Note_on_c, 0, 71, 69
2, 34845, Note_on_c, 0, 71, 0
2, 34848, Note_on_c, 0, 71, 69
2, 34896, Note_on_c, 0, 71, 0
2, 34896, Note_on_c, 0, 76, 69
2, 34916, Note_on_c, 0, 76, 0
2, 34944, Note_on_c, 0, 78, 69
2, 34992, Note_on_c, 0, 78, 0
2, 34992, Note_on_c, 0, 81, 69
2, 35012, Note_on_c, 0, 81, 0
2, 35040, Note_on_c, 0, 81, 69
2, 35088, Note_on_c, 0, 81, 0
2, 35088, Note_on_c, 0, 80, 69
2, 35108, Note_on_c, 0, 80, 0
2, 35136, Note_on_c, 0, 80, 69
2, 35184, Note_on_c, 0, 80, 0
2, 35184, Note_on_c, 0, 78, 69
2, 35204, Note_on_c, 0, 78, 0
2, 35232, Note_on_c, 0, 78, 69
2, 35365, Note_on_c, 0, 78, 0
2, 35376, Note_on_c, 0, 81, 72
2, 35421, Note_on_c, 0, 81, 0
2, 35424, Note_on_c, 0, 80, 73
2, 35472, Note_on_c, 0, 80, 0
2, 35472, Note_on_c, 0, 78, 74
2, 35492, Note_on_c, 0, 78, 0
2, 35520, Note_on_c, 0, 78, 75
2, 35653, Note_on_c, 0, 78, 0
2, 35664, Note_on_c, 0, 81, 78
2, 35709, Note_on_c, 0, 81, 0
2, 35712, Note_on_c, 0, 80, 79
2, 35760, Note_on_c, 0, 80, 0
2, 35760, Note_on_c, 0, 78, 80
2, 35780, Note_on_c, 0, 78, 0
2, 35808, Note_on_c, 0, 78, 81
2, 35856, Note_on_c, 0, 78, 0
2, 35856, Note_on_c, 0, 85, 82
2, 35876, Note_on_c, 0, 85, 0
2, 35904, Note_on_c, 0, 85, 83
2, 35952, Note_on_c, 0, 85, 0
2, 35952, Note_on_c, 0, 76, 84
2, 35972, Note_on_c, 0, 76, 0
2, 36000, Note_on_c, 0, 76, 84
2, 36096, Note_on_c, 0, 76, 0
2, 36096, Note_on_c, 0, 75, 81
2, 36185, Note_on_c, 0, 75, 0
2, 36288, Note_on_c, 0, 71, 75
2, 36377, Note_on_c, 0, 71, 0
2, 36384, Note_on_c, 0, 71, 75
2, 36473, Note_on_c, 0, 71, 0
2, 36480, Note_on_c, 0, 71, 75
2, 36569, Note_on_c, 0, 71, 0
2, 36576, Note_on_c, 0, 73, 75
2, 36591, Note_on_c, 0, 73, 0
2, 36592, Note_on_c, 0, 71, 75
2, 36607, Note_on_c, 0, 71, 0
2, 36608, Note_on_c, 0, 73, 75
2, 36623, Note_on_c, 0, 73, 0
2, 36624, Note_on_c, 0, 71, 75
2, 36639, Note_on_c, 0, 71, 0
2, 36640, Note_on_c, 0, 73, 75
2, 36655, Note_on_c, 0, 73, 0
2, 36656, Note_on_c, 0, 71, 75
2, 36671, Note_on_c, 0, 71, 0
2, 36672, Note_on_c, 0, 73, 75
2, 36687, Note_on_c, 0, 73, 0
2, 36688, Note_on_c, 0, 71, 75
2, 36703, Note_on_c, 0, 71, 0
2, 36704, Note_on_c, 0, 73, 75
2, 36719, Note_on_c, 0, 73, 0
2, 36720, Note_on_c, 0, 71, 75
2, 36735, Note_on_c, 0, 71, 0
2, 36736, Note_on_c, 0, 69, 75
2, 36751, Note_on_c, 0, 69, 0
2, 36752, Note_on_c, 0, 71, 75
2, 36767, Note_on_c, 0, 71, 0
2, 36768, Note_on_c, 0, 76, 75
2, 36816, Note_on_c, 0, 76, 0
2, 36816, Note_on_c, 0, 75, 75
2, 36836, Note_on_c, 0, 75, 0
2, 36864, Note_on_c, 0, 75, 75
2, 36912, Note_on_c, 0, 75, 0
2, 36912, Note_on_c, 0, 73, 75
2, 36932, Note_on_c, 0, 73, 0
2, 36960, Note_on_c, 0, 73, 75
2, 37008, Note_on_c, 0, 73, 0
2, 37008, Note_on_c, 0, 81, 75
2, 37028, Note_on_c, 0, 81, 0
2, 37056, Note_on_c, 0, 81, 75
2, 37104, Note_on_c, 0, 81, 0
2, 37104, Note_on_c, 0, 73, 75
2, 37124, Note_on_c, 0, 73, 0
2, 37152, Note_on_c, 0, 73, 75
2, 37164, Note_on_c, 0, 73, 0
2, 37164, Note_on_c, 0, 75, 75
2, 37176, Note_on_c, 0, 75, 0
2, 37176, Note_on_c, 0, 73, 75
2, 37188, Note_on_c, 0, 73, 0
2, 37188, Note_on_c, 0, 75, 75
2, 37200, Note_on_c, 0, 75, 0
2, 37200, Note_on_c, 0, 71, 75
2, 37220, Note_on_c, 0, 71, 0
2, 37248, Note_on_c, 0, 71, 75
2, 37381, Note_on_c, 0, 71, 0
2, 37392, Note_on_c, 0, 83, 75
2, 37437, Note_on_c, 0, 83, 0
2, 37440, Note_on_c, 0, 83, 69
2, 37488, Note_on_c, 0, 83, 0
2, 37488, Note_on_c, 0, 81, 69
2, 37508, Note_on_c, 0, 81, 0
2, 37536, Note_on_c, 0, 81, 69
2, 37669, Note_on_c, 0, 81, 0
2, 37680, Note_on_c, 0, 80, 69
2, 37725, Note_on_c, 0, 80, 0
2, 37728, Note_on_c, 0, 80, 69
2, 37776, Note_on_c, 0, 80, 0
2, 37776, Note_on_c, 0, 78, 69
2, 37796, Note_on_c, 0, 78, 0
2, 37824, Note_on_c, 0, 78, 69
2, 37957, Note_on_c, 0, 78, 0
2, 37968, Note_on_c, 0, 76, 69
2, 38013, Note_on_c, 0, 76, 0
2, 38016, Note_on_c, 0, 76, 75
2, 38064, Note_on_c, 0, 76, 0
2, 38064, Note_on_c, 0, 85, 75
2, 38084, Note_on_c, 0, 85, 0
2, 38112, Note_on_c, 0, 85, 91
2, 38256, Note_on_c, 0, 85, 0
2, 38256, Note_on_c, 0, 83, 75
2, 38301, Note_on_c, 0, 83, 0
2, 38304, Note_on_c, 0, 83, 75
2, 38352, Note_on_c, 0, 83, 0
2, 38352, Note_on_c, 0, 81, 75
2, 38372, Note_on_c, 0, 81, 0
2, 38400, Note_on_c, 0, 81, 91
2, 38544, Note_on_c, 0, 81, 0
2, 38544, Note_on_c, 0, 80, 75
2, 38589, Note_on_c, 0, 80, 0
2, 38592, Note_on_c, 0, 80, 75
2, 38640, Note_on_c, 0, 80, 0
2, 38640, Note_on_c, 0, 78, 75
2, 38660, Note_on_c, 0, 78, 0
2, 38688, Note_on_c, 0, 78, 75
2, 38736, Note_on_c, 0, 78, 0
2, 38736, Note_on_c, 0, 76, 75
2, 38756, Note_on_c, 0, 76, 0
2, 38784, Note_on_c, 0, 76, 75
2, 38832, Note_on_c, 0, 76, 0
2, 38832, Note_on_c, 0, 75, 75
2, 38852, Note_on_c, 0, 75, 0
2, 38880, Note_on_c, 0, 75, 75
2, 38976, Note_on_c, 0, 75, 0
2, 38976, Note_on_c, 0, 76, 75
2, 39065, Note_on_c, 0, 76, 0
2, 39168, Note_on_c, 0, 71, 69
2, 39216, Note_on_c, 0, 71, 0
2, 39216, Note_on_c, 0, 75, 69
2, 39236, Note_on_c, 0, 75, 0
2, 39264, Note_on_c, 0, 75, 69
2, 39397, Note_on_c, 0, 75, 0
2, 39408, Note_on_c, 0, 71, 69
2, 39453, Note_on_c, 0, 71, 0
2, 39456, Note_on_c, 0, 71, 69
2, 39504, Note_on_c, 0, 71, 0
2, 39504, Note_on_c, 0, 76, 69
2, 39524, Note_on_c, 0, 76, 0
2, 39552, Note_on_c, 0, 78, 69
2, 39600, Note_on_c, 0, 78, 0
2, 39600, Note_on_c, 0, 81, 69
2, 39620, Note_on_c, 0, 81, 0
2, 39648, Note_on_c, 0, 81, 69
2, 39696, Note_on_c, 0, 81, 0
2, 39696, Note_on_c, 0, 80, 69
2, 39716, Note_on_c, 0, 80, 0
2, 39744, Note_on_c, 0, 80, 69
2, 39792, Note_on_c, 0, 80, 0
2, 39792, Note_on_c, 0, 78, 69
2, 39812, Note_on_c, 0, 78, 0
2, 39840, Note_on_c, 0, 78, 69
2, 39973, Note_on_c, 0, 78, 0
2, 39984, Note_on_c, 0, 81, 72
2, 40029, Note_on_c, 0, 81, 0
2, 40032, Note_on_c, 0, 80, 73
2, 40080, Note_on_c, 0, 80, 0
2, 40080, Note_on_c, 0, 78, 74
2, 40100, Note_on_c, 0, 78, 0
2, 40128, Note_on_c, 0, 78, 75
2, 40261, Note_on_c, 0, 78, 0
2, 40272, Note_on_c, 0, 81, 78
2, 40317, Note_on_c, 0, 81, 0
2, 40320, Note_on_c, 0, 80, 79
2, 40368, Note_on_c, 0, 80, 0
2, 40368, Note_on_c, 0, 78, 80
2, 40388, Note_on_c, 0, 78, 0
2, 40416, Note_on_c, 0, 78, 81
2, 40464, Note_on_c, 0, 78, 0
2, 40464, Note_on_c, 0, 85, 82
2, 40484, Note_on_c, 0, 85, 0
2, 40512, Note_on_c, 0, 85, 83
2, 40560, Note_on_c, 0, 85, 0
2, 40560, Note_on_c, 0, 76, 84
2, 40580, Note_on_c, 0, 76, 0
2, 40608, Note_on_c, 0, 76, 84
2, 40704, Note_on_c, 0, 76, 0
2, 40704, Note_on_c, 0, 75, 81
2, 40793, Note_on_c, 0, 75, 0
2, 40896, Note_on_c, 0, 71, 75
2, 40985, Note_on_c, 0, 71, 0
2, 40992, Note_on_c, 0, 71, 75
2, 41081, Note_on_c, 0, 71, 0
2, 41088, Note_on_c, 0, 71, 75
2, 41177, Note_on_c, 0, 71, 0
2, 41184, Note_on_c, 0, 73, 75
2, 41199, Note_on_c, 0, 73, 0
2, 41200, Note_on_c, 0, 71, 75
2, 41215, Note_on_c, 0, 71, 0
2, 41216, Note_on_c, 0, 73, 75
2, 41231, Note_on_c, 0, 73, 0
2, 41232, Note_on_c, 0, 71, 75
2, 41247, Note_on_c, 0, 71, 0
2, 41248, Note_on_c, 0, 73, 75
2, 41263, Note_on_c, 0, 73, 0
2, 41264, Note_on_c, 0, 71, 75
2, 41279, Note_on_c, 0, 71, 0
2, 41280, Note_on_c, 0, 73, 75
2, 41295, Note_on_c, 0, 73, 0
2, 41296, Note_on_c, 0, 71, 75
2, 41311, Note_on_c, 0, 71, 0
2, 41312, Note_on_c, 0, 73, 75
2, 41327, Note_on_c, 0, 73, 0
2, 41328, Note_on_c, 0, 71, 75
2, 41343, Note_on_c, 0, 71, 0
2, 41344, Note_on_c, 0, 69, 75
2, 41359, Note_on_c, 0, 69, 0
2, 41360, Note_on_c, 0, 71, 75
2, 41375, Note_on_c, 0, 71, 0
2, 41376, Note_on_c, 0, 76, 75
2, 41424, Note_on_c, 0, 76, 0
2, 41424, Note_on_c, 0, 75, 75
2, 41444, Note_on_c, 0, 75, 0
2, 41472, Note_on_c, 0, 75, 75
2, 41520, Note_on_c, 0, 75, 0
2, 41520, Note_on_c, 0, 73, 75
2, 41540, Note_on_c, 0, 73, 0
2, 41568, Note_on_c, 0, 73, 75
2, 41616, Note_on_c, 0, 73, 0
2, 41616, Note_on_c, 0, 81, 75
2, 41636, Note_on_c, 0, 81, 0
2, 41664, Note_on_c, 0, 81, 75
2, 41712, Note_on_c, 0, 81, 0
2, 41712, Note_on_c, 0, 73, 75
2, 41732, Note_on_c, 0, 73, 0
2, 41760, Note_on_c, 0, 73, 75
2, 41772, Note_on_c, 0, 73, 0
2, 41772, Note_on_c, 0, 75, 75
2, 41784, Note_on_c, 0, 75, 0
2, 41784, Note_on_c, 0, 73, 75
2, 41796, Note_on_c, 0, 73, 0
2, 41796, Note_on_c, 0, 75, 75
2, 41808, Note_on_c, 0, 75, 0
2, 41808, Note_on_c, 0, 71, 75
2, 41828, Note_on_c, 0, 71, 0
2, 41856, Note_on_c, 0, 71, 75
2, 41989, Note_on_c, 0, 71, 0
2, 42000, Note_on_c, 0, 83, 75
2, 42045, Note_on_c, 0, 83, 0
2, 42048, Note_on_c, 0, 83, 69
2, 42096, Note_on_c, 0, 83, 0
2, 42096, Note_on_c, 0, 81, 69
2, 42116, Note_on_c, 0, 81, 0
2, 42144, Note_on_c, 0, 81, 69
2, 42277, Note_on_c, 0, 81, 0
2, 42288, Note_on_c, 0, 80, 69
2, 42333, Note_on_c, 0, 80, 0
2, 42336, Note_on_c, 0, 80, 69
2, 42384, Note_on_c, 0, 80, 0
2, 42384, Note_on_c, 0, 78, 69
2, 42404, Note_on_c, 0, 78, 0
2, 42432, Note_on_c, 0, 78, 69
2, 42565, Note_on_c, 0, 78, 0
2, 42576, Note_on_c, 0, 76, 69
2, 42621, Note_on_c, 0, 76, 0
2, 42624, Note_on_c, 0, 76, 75
2, 42672, Note_on_c, 0, 76, 0
2, 42672, Note_on_c, 0, 85, 75
2, 42692, Note_on_c, 0, 85, 0
2, 42720, Note_on_c, 0, 85, 91
2, 42864, Note_on_c, 0, 85, 0
2, 42864, Note_on_c, 0, 83, 75
2, 42909, Note_on_c, 0, 83, 0
2, 42912, Note_on_c, 0, 83, 75
2, 42960, Note_on_c, 0, 83, 0
2, 42960, Note_on_c, 0, 81, 75
2, 42980, Note_on_c, 0, 81, 0
2, 43008, Note_on_c, 0, 81, 91
2, 43152, Note_on_c, 0, 81, 0
2, 43152, Note_on_c, 0, 80, 75
2, 43197, Note_on_c, 0, 80, 0
2, 43200, Note_on_c, 0, 80, 75
2, 43248, Note_on_c, 0, 80, 0
2, 43248, Note_on_c, 0, 78, 75
2, 43268, Note_on_c, 0, 78, 0
2, 43296, Note_on_c, 0, 78, 75
2, 43344, Note_on_c, 0, 78, 0
2, 43344, Note_on_c, 0, 76, 75
2, 43364, Note_on_c, 0, 76, 0
2, 43392, Note_on_c, 0, 76, 75
2, 43440, Note_on_c, 0, 76, 0
2, 43440, Note_on_c, 0, 75, 75
2, 43460, Note_on_c, 0, 75, 0
2, 43488, Note_on_c, 0, 75, 75
2, 43584, Note_on_c, 0, 75, 0
2, 43584, Note_on_c, 0, 76, 75
2, 43673, Note_on_c, 0, 76, 0
2, 43776, End_track
3, 0, Start_track
3, 0, Program_c, 0, 0
3, 0, Control_c, 0, 7, 127
3, 0, Control_c, 0, 10, 64
3, 43776, End_track
4, 0, Start_track
4, 0, Program_c, 1, 0
4, 0, Control_c, 1, 7, 127
4, 0, Control_c, 1, 10, 64
4, 0, Note_on_c, 1, 68, 69
4, 0, Note_on_c, 1, 64, 69
4, 89, Note_on_c, 1, 68, 0
4, 89, Note_on_c, 1, 64, 0
4, 96, Note_on_c, 1, 68, 69
4, 96, Note_on_c, 1, 64, 69
4, 185, Note_on_c, 1, 68, 0
4, 185, Note_on_c, 1, 64, 0
4, 192, Note_on_c, 1, 68, 69
4, 192, Note_on_c, 1, 64, 69
4, 281, Note_on_c, 1, 68, 0
4, 281, Note_on_c, 1, 64, 0
4, 288, Note_on_c, 1, 68, 69
4, 288, Note_on_c, 1, 64, 69
4, 377, Note_on_c, 1, 68, 0
4, 377, Note_on_c, 1, 64, 0
4, 384, Note_on_c, 1, 68, 69
4, 384, Note_on_c, 1, 64, 69
4, 473, Note_on_c, 1, 68, 0
4, 473, Note_on_c, 1, 64, 0
4, 480, Note_on_c, 1, 68, 69
4, 480, Note_on_c, 1, 64, 69
4, 569, Note_on_c, 1, 68, 0
4, 569, Note_on_c, 1, 64, 0
4, 576, Note_on_c, 1, 69, 69
4, 576, Note_on_c, 1, 64, 69
4, 665, Note_on_c, 1, 69, 0
4, 665, Note_on_c, 1, 64, 0
4, 672, Note_on_c, 1, 69, 69
4, 672, Note_on_c, 1, 64, 69
4, 761, Note_on_c, 1, 69, 0
4, 761, Note_on_c, 1, 64, 0
4, 768, Note_on_c, 1, 69, 69
4, 768, Note_on_c, 1, 64, 69
4, 857, Note_on_c, 1, 69, 0
4, 857, Note_on_c, 1, 64, 0
4, 864, Note_on_c, 1, 69, 69
4, 864, Note_on_c, 1, 64, 69
4, 953, Note_on_c, 1, 69, 0
4, 953, Note_on_c, 1, 64, 0
4, 960, Note_on_c, 1, 68, 69
4, 960, Note_on_c, 1, 64, 69
4, 1049, Note_on_c, 1, 68, 0
4, 1049, Note_on_c, 1, 64, 0
4, 1248, Note_on_c, 1, 64, 69
4, 1248, Note_on_c, 1, 61, 69
4, 1344, Note_on_c, 1, 64, 0
4, 1344, Note_on_c, 1, 61, 0
4, 1344, Note_on_c, 1, 63, 69
4, 1344, Note_on_c, 1, 59, 69
4, 1433, Note_on_c, 1, 63, 0
4, 1433, Note_on_c, 1, 59, 0
4, 1536, Note_on_c, 1, 61, 69
4, 1536, Note_on_c, 1, 57, 69
4, 1632, Note_on_c, 1, 61, 0
4, 1632, Note_on_c, 1, 57, 0
4, 1632, Note_on_c, 1, 59, 69
4, 1632, Note_on_c, 1, 56, 69
4, 1721, Note_on_c, 1, 59, 0
4, 1721, Note_on_c, 1, 56, 0
4, 1824, Note_on_c, 1, 51, 69
4, 1913, Note_on_c, 1, 51, 0
4, 1920, Note_on_c, 1, 52, 69
4, 2009, Note_on_c, 1, 52, 0
4, 2016, Note_on_c, 1, 59, 69
4, 2105, Note_on_c, 1, 59, 0
4, 2112, Note_on_c, 1, 54, 69
4, 2201, Note_on_c, 1, 54, 0
4, 2208, Note_on_c, 1, 47, 69
4, 2297, Note_on_c, 1, 47, 0
4, 2304, Note_on_c, 1, 68, 69
4, 2304, Note_on_c, 1, 64, 69
4, 2393, Note_on_c, 1, 68, 0
4, 2393, Note_on_c, 1, 64, 0
4, 2400, Note_on_c, 1, 68, 69
4, 2400, Note_on_c, 1, 64, 69
4, 2489, Note_on_c, 1, 68, 0
4, 2489, Note_on_c, 1, 64, 0
4, 2496, Note_on_c, 1, 68, 69
4, 2496, Note_on_c, 1, 64, 69
4, 2585, Note_on_c, 1, 68, 0
4, 2585, Note_on_c, 1, 64, 0
4, 2592, Note_on_c, 1, 68, 69
4, 2592, Note_on_c, 1, 64, 69
4, 2681, Note_on_c, 1, 68, 0
4, 2681, Note_on_c, 1, 64, 0
4, 2688, Note_on_c, 1, 68, 69
4, 2688, Note_on_c, 1, 64, 69
4, 2777, Note_on_c, 1, 68, 0
4, 2777, Note_on_c, 1, 64, 0
4, 2784, Note_on_c, 1, 68, 69
4, 2784, Note_on_c, 1, 64, 69
4, 2873, Note_on_c, 1, 68, 0
4, 2873, Note_on_c, 1, 64, 0
4, 2880, Note_on_c, 1, 69, 69
4, 2880, Note_on_c, 1, 64, 69
4, 2969, Note_on_c, 1, 69, 0
4, 2969, Note_on_c, 1, 64, 0
4, 2976, Note_on_c, 1, 69, 69
4, 2976, Note_on_c, 1, 64, 69
4, 3065, Note_on_c, 1, 69, 0
4, 3065, Note_on_c, 1, 64, 0
4, 3072, Note_on_c, 1, 69, 69
4, 3072, Note_on_c, 1, 64, 69
4, 3161, Note_on_c, 1, 69, 0
4, 3161, Note_on_c, 1, 64, 0
4, 3168, Note_on_c, 1, 69, 69
4, 3168, Note_on_c, 1, 64, 69
4, 3257, Note_on_c, 1, 69, 0
4, 3257, Note_on_c, 1, 64, 0
4, 3264, Note_on_c, 1, 68, 69
4, 3264, Note_on_c, 1, 64, 69
4, 3353, Note_on_c, 1, 68, 0
4, 3353, Note_on_c, 1, 64, 0
4, 3552, Note_on_c, 1, 64, 69
4, 3552, Note_on_c, 1, 61, 69
4, 3648, Note_on_c, 1, 64, 0
4, 3648, Note_on_c, 1, 61, 0
4, 3648, Note_on_c, 1, 63, 69
4, 3648, Note_on_c, 1, 59, 69
4, 3737, Note_on_c, 1, 63, 0
4, 3737, Note_on_c, 1, 59, 0
4, 3840, Note_on_c, 1, 61, 69
4, 3840, Note_on_c, 1, 57, 69
4, 3936, Note_on_c, 1, 61, 0
4, 3936, Note_on_c, 1, 57, 0
4, 3936, Note_on_c, 1, 59, 69
4, 3936, Note_on_c, 1, 56, 69
4, 4025, Note_on_c, 1, 59, 0
4, 4025, Note_on_c, 1, 56, 0
4, 4128, Note_on_c, 1, 51, 69
4, 4217, Note_on_c, 1, 51, 0
4, 4224, Note_on_c, 1, 52, 69
4, 4313, Note_on_c, 1, 52, 0
4, 4320, Note_on_c, 1, 59, 69
4, 4409, Note_on_c, 1, 59, 0
4, 4416, Note_on_c, 1, 54, 69
4, 4505, Note_on_c, 1, 54, 0
4, 4512, Note_on_c, 1, 47, 69
4, 4601, Note_on_c, 1, 47, 0
4, 4704, Note_on_c, 1, 69, 69
4, 4793, Note_on_c, 1, 69, 0
4, 4800, Note_on_c, 1, 69, 69
4, 4889, Note_on_c, 1, 69, 0
4, 4896, Note_on_c, 1, 68, 69
4, 4985, Note_on_c, 1, 68, 0
4, 4992, Note_on_c, 1, 63, 69
4, 5081, Note_on_c, 1, 63, 0
4, 5088, Note_on_c, 1, 64, 69
4, 5177, Note_on_c, 1, 64, 0
4, 5280, Note_on_c, 1, 61, 69
4, 5280, Note_on_c, 1, 57, 69
4, 5369, Note_on_c, 1, 61, 0
4, 5369, Note_on_c, 1, 57, 0
4, 5376, Note_on_c, 1, 61, 70
4, 5376, Note_on_c, 1, 57, 70
4, 5465, Note_on_c, 1, 61, 0
4, 5465, Note_on_c, 1, 57, 0
4, 5568, Note_on_c, 1, 61, 74
4, 5568, Note_on_c, 1, 57, 74
4, 5657, Note_on_c, 1, 61, 0
4, 5657, Note_on_c, 1, 57, 0
4, 5664, Note_on_c, 1, 61, 76
4, 5664, Note_on_c, 1, 57, 76
4, 5753, Note_on_c, 1, 61, 0
4, 5753, Note_on_c, 1, 57, 0
4, 5856, Note_on_c, 1, 61, 80
4, 5856, Note_on_c, 1, 57, 80
4, 5945, Note_on_c, 1, 61, 0
4, 5945, Note_on_c, 1, 57, 0
4, 5952, Note_on_c, 1, 61, 82
4, 5952, Note_on_c, 1, 58, 82
4, 6041, Note_on_c, 1, 61, 0
4, 6041, Note_on_c, 1, 58, 0
4, 6048, Note_on_c, 1, 59, 84
4, 6137, Note_on_c, 1, 59, 0
4, 6144, Note_on_c, 1, 54, 81
4, 6233, Note_on_c, 1, 54, 0
4, 6240, Note_on_c, 1, 47, 78
4, 6329, Note_on_c, 1, 47, 0
4, 6336, Note_on_c, 1, 68, 69
4, 6336, Note_on_c, 1, 64, 69
4, 6425, Note_on_c, 1, 68, 0
4, 6425, Note_on_c, 1, 64, 0
4, 6432, Note_on_c, 1, 68, 69
4, 6432, Note_on_c, 1, 64, 69
4, 6521, Note_on_c, 1, 68, 0
4, 6521, Note_on_c, 1, 64, 0
4, 6528, Note_on_c, 1, 68, 69
4, 6528, Note_on_c, 1, 64, 69
4, 6617, Note_on_c, 1, 68, 0
4, 6617, Note_on_c, 1, 64, 0
4, 6624, Note_on_c, 1, 68, 69
4, 6624, Note_on_c, 1, 64, 69
4, 6713, Note_on_c, 1, 68, 0
4, 6713, Note_on_c, 1, 64, 0
4, 6720, Note_on_c, 1, 68, 69
4, 6720, Note_on_c, 1, 64, 69
4, 6809, Note_on_c, 1, 68, 0
4, 6809, Note_on_c, 1, 64, 0
4, 6816, Note_on_c, 1, 68, 69
4, 6816, Note_on_c, 1, 64, 69
4, 6905, Note_on_c, 1, 68, 0
4, 6905, Note_on_c, 1, 64, 0
4, 6912, Note_on_c, 1, 69, 69
4, 6912, Note_on_c, 1, 64, 69
4, 7001, Note_on_c, 1, 69, 0
4, 7001, Note_on_c, 1, 64, 0
4, 7008, Note_on_c, 1, 69, 69
4, 7008, Note_on_c, 1, 64, 69
4, 7097, Note_on_c, 1, 69, 0
4, 7097, Note_on_c, 1, 64, 0
4, 7104, Note_on_c, 1, 69, 69
4, 7104, Note_on_c, 1, 64, 69
4, 7193, Note_on_c, 1, 69, 0
4, 7193, Note_on_c, 1, 64, 0
4, 7200, Note_on_c, 1, 69, 69
4, 7200, Note_on_c, 1, 64, 69
4, 7289, Note_on_c, 1, 69, 0
4, 7289, Note_on_c, 1, 64, 0
4, 7296, Note_on_c, 1, 68, 69
4, 7296, Note_on_c, 1, 64, 69
4, 7385, Note_on_c, 1, 68, 0
4, 7385, Note_on_c, 1, 64, 0
4, 7584, Note_on_c, 1, 64, 69
4, 7584, Note_on_c, 1, 61, 69
4, 7680, Note_on_c, 1, 64, 0
4, 7680, Note_on_c, 1, 61, 0
4, 7680, Note_on_c, 1, 63, 69
4, 7680, Note_on_c, 1, 59, 69
4, 7769, Note_on_c, 1, 63, 0
4, 7769, Note_on_c, 1, 59, 0
4, 7872, Note_on_c, 1, 61, 69
4, 7872, Note_on_c, 1, 57, 69
4, 7968, Note_on_c, 1, 61, 0
4, 7968, Note_on_c, 1, 57, 0
4, 7968, Note_on_c, 1, 59, 69
4, 7968, Note_on_c, 1, 56, 69
4, 8057, Note_on_c, 1, 59, 0
4, 8057, Note_on_c, 1, 56, 0
4, 8160, Note_on_c, 1, 57, 75
4, 8160, Note_on_c, 1, 45, 75
4, 8249, Note_on_c, 1, 57, 0
4, 8249, Note_on_c, 1, 45, 0
4, 8256, Note_on_c, 1, 56, 75
4, 8256, Note_on_c, 1, 44, 75
4, 8345, Note_on_c, 1, 56, 0
4, 8345, Note_on_c, 1, 44, 0
4, 8448, Note_on_c, 1, 54, 75
4, 8448, Note_on_c, 1, 42, 75
4, 8537, Note_on_c, 1, 54, 0
4, 8537, Note_on_c, 1, 42, 0
4, 8544, Note_on_c, 1, 52, 75
4, 8544, Note_on_c, 1, 40, 75
4, 8633, Note_on_c, 1, 52, 0
4, 8633, Note_on_c, 1, 40, 0
4, 8640, Note_on_c, 1, 57, 75
4, 8640, Note_on_c, 1, 45, 75
4, 8729, Note_on_c, 1, 57, 0
4, 8729, Note_on_c, 1, 45, 0
4, 8736, Note_on_c, 1, 56, 75
4, 8736, Note_on_c, 1, 47, 75
4, 8825, Note_on_c, 1, 56, 0
4, 8825, Note_on_c, 1, 47, 0
4, 8832, Note_on_c, 1, 54, 75
4, 8832, Note_on_c, 1, 47, 75
4, 8921, Note_on_c, 1, 54, 0
4, 8921, Note_on_c, 1, 47, 0
4, 8928, Note_on_c, 1, 52, 75
4, 9017, Note_on_c, 1, 52, 0
4, 9024, Note_on_c, 1, 47, 75
4, 9113, Note_on_c, 1, 47, 0
4, 9120, Note_on_c, 1, 40, 75
4, 9209, Note_on_c, 1, 40, 0
4, 9312, Note_on_c, 1, 69, 69
4, 9401, Note_on_c, 1, 69, 0
4, 9408, Note_on_c, 1, 69, 69
4, 9497, Note_on_c, 1, 69, 0
4, 9504, Note_on_c, 1, 68, 69
4, 9593, Note_on_c, 1, 68, 0
4, 9600, Note_on_c, 1, 63, 69
4, 9689, Note_on_c, 1, 63, 0
4, 9696, Note_on_c, 1, 64, 69
4, 9785, Note_on_c, 1, 64, 0
4, 9888, Note_on_c, 1, 61, 69
4, 9888, Note_on_c, 1, 57, 69
4, 9977, Note_on_c, 1, 61, 0
4, 9977, Note_on_c, 1, 57, 0
4, 9984, Note_on_c, 1, 61, 70
4, 9984, Note_on_c, 1, 57, 70
4, 10073, Note_on_c, 1, 61, 0
4, 10073, Note_on_c, 1, 57, 0
4, 10176, Note_on_c, 1, 61, 74
4, 10176, Note_on_c, 1, 57, 74
4, 10265, Note_on_c, 1, 61, 0
4, 10265, Note_on_c, 1, 57, 0
4, 10272, Note_on_c, 1, 61, 76
4, 10272, Note_on_c, 1, 57, 76
4, 10361, Note_on_c, 1, 61, 0
4, 10361, Note_on_c, 1, 57, 0
4, 10464, Note_on_c, 1, 61, 80
4, 10464, Note_on_c, 1, 57, 80
4, 10553, Note_on_c, 1, 61, 0
4, 10553, Note_on_c, 1, 57, 0
4, 10560, Note_on_c, 1, 61, 82
4, 10560, Note_on_c, 1, 58, 82
4, 10649, Note_on_c, 1, 61, 0
4, 10649, Note_on_c, 1, 58, 0
4, 10656, Note_on_c, 1, 59, 84
4, 10745, Note_on_c, 1, 59, 0
4, 10752, Note_on_c, 1, 54, 81
4, 10841, Note_on_c, 1, 54, 0
4, 10848, Note_on_c, 1, 47, 78
4, 10937, Note_on_c, 1, 47, 0
4, 10944, Note_on_c, 1, 68, 69
4, 10944, Note_on_c, 1, 64, 69
4, 11033, Note_on_c, 1, 68, 0
4, 11033, Note_on_c, 1, 64, 0
4, 11040, Note_on_c, 1, 68, 69
4, 11040, Note_on_c, 1, 64, 69
4, 11129, Note_on_c, 1, 68, 0
4, 11129, Note_on_c, 1, 64, 0
4, 11136, Note_on_c, 1, 68, 69
4, 11136, Note_on_c, 1, 64, 69
4, 11225, Note_on_c, 1, 68, 0
4, 11225, Note_on_c, 1, 64, 0
4, 11232, Note_on_c, 1, 68, 69
4, 11232, Note_on_c, 1, 64, 69
4, 11321, Note_on_c, 1, 68, 0
4, 11321, Note_on_c, 1, 64, 0
4, 11328, Note_on_c, 1, 68, 69
4, 11328, Note_on_c, 1, 64, 69
4, 11417, Note_on_c, 1, 68, 0
4, 11417, Note_on_c, 1, 64, 0
4, 11424, Note_on_c, 1, 68, 69
4, 11424, Note_on_c, 1, 64, 69
4, 11513, Note_on_c, 1, 68, 0
4, 11513, Note_on_c, 1, 64, 0
4, 11520, Note_on_c, 1, 69, 69
4, 11520, Note_on_c, 1, 64, 69
4, 11609, Note_on_c, 1, 69, 0
4, 11609, Note_on_c, 1, 64, 0
4, 11616, Note_on_c, 1, 69, 69
4, 11616, Note_on_c, 1, 64, 69
4, 11705, Note_on_c, 1, 69, 0
4, 11705, Note_on_c, 1, 64, 0
4, 11712, Note_on_c, 1, 69, 69
4, 11712, Note_on_c, 1, 64, 69
4, 11801, Note_on_c, 1, 69, 0
4, 11801, Note_on_c, 1, 64, 0
4, 11808, Note_on_c, 1, 69, 69
4, 11808, Note_on_c, 1, 64, 69
4, 11897, Note_on_c, 1, 69, 0
4, 11897, Note_on_c, 1, 64, 0
4, 11904, Note_on_c, 1, 68, 69
4, 11904, Note_on_c, 1, 64, 69
4, 11993, Note_on_c, 1, 68, 0
4, 11993, Note_on_c, 1, 64, 0
4, 12192, Note_on_c, 1, 64, 69
4, 12192, Note_on_c, 1, 61, 69
4, 12288, Note_on_c, 1, 64, 0
4, 12288, Note_on_c, 1, 61, 0
4, 12288, Note_on_c, 1, 63, 69
4, 12288, Note_on_c, 1, 59, 69
4, 12377, Note_on_c, 1, 63, 0
4, 12377, Note_on_c, 1, 59, 0
4, 12480, Note_on_c, 1, 61, 69
4, 12480, Note_on_c, 1, 57, 69
4, 12576, Note_on_c, 1, 61, 0
4, 12576, Note_on_c, 1, 57, 0
4, 12576, Note_on_c, 1, 59, 69
4, 12576, Note_on_c, 1, 56, 69
4, 12665, Note_on_c, 1, 59, 0
4, 12665, Note_on_c, 1, 56, 0
4, 12768, Note_on_c, 1, 57, 75
4, 12768, Note_on_c, 1, 45, 75
4, 12857, Note_on_c, 1, 57, 0
4, 12857, Note_on_c, 1, 45, 0
4, 12864, Note_on_c, 1, 56, 75
4, 12864, Note_on_c, 1, 44, 75
4, 12953, Note_on_c, 1, 56, 0
4, 12953, Note_on_c, 1, 44, 0
4, 13056, Note_on_c, 1, 54, 75
4, 13056, Note_on_c, 1, 42, 75
4, 13145, Note_on_c, 1, 54, 0
4, 13145, Note_on_c, 1, 42, 0
4, 13152, Note_on_c, 1, 52, 75
4, 13152, Note_on_c, 1, 40, 75
4, 13241, Note_on_c, 1, 52, 0
4, 13241, Note_on_c, 1, 40, 0
4, 13248, Note_on_c, 1, 57, 75
4, 13248, Note_on_c, 1, 45, 75
4, 13337, Note_on_c, 1, 57, 0
4, 13337, Note_on_c, 1, 45, 0
4, 13344, Note_on_c, 1, 56, 75
4, 13344, Note_on_c, 1, 47, 75
4, 13433, Note_on_c, 1, 56, 0
4, 13433, Note_on_c, 1, 47, 0
4, 13440, Note_on_c, 1, 54, 75
4, 13440, Note_on_c, 1, 47, 75
4, 13529, Note_on_c, 1, 54, 0
4, 13529, Note_on_c, 1, 47, 0
4, 13536, Note_on_c, 1, 52, 75
4, 13625, Note_on_c, 1, 52, 0
4, 13632, Note_on_c, 1, 47, 75
4, 13721, Note_on_c, 1, 47, 0
4, 13728, Note_on_c, 1, 40, 75
4, 13817, Note_on_c, 1, 40, 0
4, 13824, Note_on_c, 1, 52, 84
4, 13824, Note_on_c, 1, 40, 84
4, 13913, Note_on_c, 1, 52, 0
4, 13913, Note_on_c, 1, 40, 0
4, 13920, Note_on_c, 1, 55, 84
4, 13920, Note_on_c, 1, 43, 84
4, 14009, Note_on_c, 1, 55, 0
4, 14009, Note_on_c, 1, 43, 0
4, 14016, Note_on_c, 1, 59, 84
4, 14016, Note_on_c, 1, 47, 84
4, 14105, Note_on_c, 1, 59, 0
4, 14105, Note_on_c, 1, 47, 0
4, 14112, Note_on_c, 1, 52, 84
4, 14112, Note_on_c, 1, 40, 84
4, 14201, Note_on_c, 1, 52, 0
4, 14201, Note_on_c, 1, 40, 0
4, 14208, Note_on_c, 1, 55, 84
4, 14208, Note_on_c, 1, 43, 84
4, 14297, Note_on_c, 1, 55, 0
4, 14297, Note_on_c, 1, 43, 0
4, 14304, Note_on_c, 1, 59, 84
4, 14304, Note_on_c, 1, 47, 84
4, 14393, Note_on_c, 1, 59, 0
4, 14393, Note_on_c, 1, 47, 0
4, 14400, Note_on_c, 1, 55, 75
4, 14489, Note_on_c, 1, 55, 0
4, 14496, Note_on_c, 1, 51, 75
4, 14585, Note_on_c, 1, 51, 0
4, 14592, Note_on_c, 1, 52, 75
4, 14681, Note_on_c, 1, 52, 0
4, 14688, Note_on_c, 1, 54, 75
4, 14777, Note_on_c, 1, 54, 0
4, 14784, Note_on_c, 1, 51, 75
4, 14873, Note_on_c, 1, 51, 0
4, 14880, Note_on_c, 1, 52, 75
4, 14969, Note_on_c, 1, 52, 0
4, 14976, Note_on_c, 1, 52, 84
4, 14976, Note_on_c, 1, 40, 84
4, 15065, Note_on_c, 1, 52, 0
4, 15065, Note_on_c, 1, 40, 0
4, 15072, Note_on_c, 1, 55, 84
4, 15072, Note_on_c, 1, 43, 84
4, 15161, Note_on_c, 1, 55, 0
4, 15161, Note_on_c, 1, 43, 0
4, 15168, Note_on_c, 1, 59, 84
4, 15168, Note_on_c, 1, 47, 84
4, 15257, Note_on_c, 1, 59, 0
4, 15257, Note_on_c, 1, 47, 0
4, 15264, Note_on_c, 1, 52, 84
4, 15264, Note_on_c, 1, 40, 84
4, 15353, Note_on_c, 1, 52, 0
4, 15353, Note_on_c, 1, 40, 0
4, 15360, Note_on_c, 1, 55, 84
4, 15360, Note_on_c, 1, 43, 84
4, 15449, Note_on_c, 1, 55, 0
4, 15449, Note_on_c, 1, 43, 0
4, 15456, Note_on_c, 1, 59, 84
4, 15456, Note_on_c, 1, 47, 84
4, 15545, Note_on_c, 1, 59, 0
4, 15545, Note_on_c, 1, 47, 0
4, 15552, Note_on_c, 1, 55, 75
4, 15641, Note_on_c, 1, 55, 0
4, 15648, Note_on_c, 1, 51, 75
4, 15737, Note_on_c, 1, 51, 0
4, 15744, Note_on_c, 1, 52, 75
4, 15833, Note_on_c, 1, 52, 0
4, 15840, Note_on_c, 1, 47, 75
4, 15929, Note_on_c, 1, 47, 0
4, 15936, Note_on_c, 1, 35, 75
4, 16025, Note_on_c, 1, 35, 0
4, 16128, Note_on_c, 1, 52, 84
4, 16128, Note_on_c, 1, 40, 84
4, 16217, Note_on_c, 1, 52, 0
4, 16217, Note_on_c, 1, 40, 0
4, 16224, Note_on_c, 1, 55, 84
4, 16224, Note_on_c, 1, 43, 84
4, 16313, Note_on_c, 1, 55, 0
4, 16313, Note_on_c, 1, 43, 0
4, 16320, Note_on_c, 1, 59, 84
4, 16320, Note_on_c, 1, 47, 84
4, 16409, Note_on_c, 1, 59, 0
4, 16409, Note_on_c, 1, 47, 0
4, 16416, Note_on_c, 1, 52, 84
4, 16416, Note_on_c, 1, 40, 84
4, 16505, Note_on_c, 1, 52, 0
4, 16505, Note_on_c, 1, 40, 0
4, 16512, Note_on_c, 1, 55, 84
4, 16512, Note_on_c, 1, 43, 84
4, 16601, Note_on_c, 1, 55, 0
4, 16601, Note_on_c, 1, 43, 0
4, 16608, Note_on_c, 1, 59, 84
4, 16608, Note_on_c, 1, 47, 84
4, 16697, Note_on_c, 1, 59, 0
4, 16697, Note_on_c, 1, 47, 0
4, 16704, Note_on_c, 1, 55, 75
4, 16793, Note_on_c, 1, 55, 0
4, 16800, Note_on_c, 1, 51, 75
4, 16889, Note_on_c, 1, 51, 0
4, 16896, Note_on_c, 1, 52, 75
4, 16985, Note_on_c, 1, 52, 0
4, 16992, Note_on_c, 1, 54, 75
4, 17081, Note_on_c, 1, 54, 0
4, 17088, Note_on_c, 1, 51, 75
4, 17177, Note_on_c, 1, 51, 0
4, 17184, Note_on_c, 1, 52, 75
4, 17273, Note_on_c, 1, 52, 0
4, 17280, Note_on_c, 1, 52, 84
4, 17280, Note_on_c, 1, 40, 84
4, 17369, Note_on_c, 1, 52, 0
4, 17369, Note_on_c, 1, 40, 0
4, 17376, Note_on_c, 1, 55, 84
4, 17376, Note_on_c, 1, 43, 84
4, 17465, Note_on_c, 1, 55, 0
4, 17465, Note_on_c, 1, 43, 0
4, 17472, Note_on_c, 1, 59, 84
4, 17472, Note_on_c, 1, 47, 84
4, 17561, Note_on_c, 1, 59, 0
4, 17561, Note_on_c, 1, 47, 0
4, 17568, Note_on_c, 1, 52, 84
4, 17568, Note_on_c, 1, 40, 84
4, 17657, Note_on_c, 1, 52, 0
4, 17657, Note_on_c, 1, 40, 0
4, 17664, Note_on_c, 1, 55, 84
4, 17664, Note_on_c, 1, 43, 84
4, 17753, Note_on_c, 1, 55, 0
4, 17753, Note_on_c, 1, 43, 0
4, 17760, Note_on_c, 1, 59, 84
4, 17760, Note_on_c, 1, 47, 84
4, 17849, Note_on_c, 1, 59, 0
4, 17849, Note_on_c, 1, 47, 0
4, 17856, Note_on_c, 1, 55, 75
4, 17945, Note_on_c, 1, 55, 0
4, 17952, Note_on_c, 1, 51, 75
4, 18041, Note_on_c, 1, 51, 0
4, 18048, Note_on_c, 1, 52, 75
4, 18137, Note_on_c, 1, 52, 0
4, 18144, Note_on_c, 1, 47, 75
4, 18233, Note_on_c, 1, 47, 0
4, 18240, Note_on_c, 1, 35, 75
4, 18329, Note_on_c, 1, 35, 0
4, 18528, Note_on_c, 1, 59, 75
4, 18617, Note_on_c, 1, 59, 0
4, 18624, Note_on_c, 1, 56, 75
4, 18713, Note_on_c, 1, 56, 0
4, 18720, Note_on_c, 1, 57, 75
4, 18809, Note_on_c, 1, 57, 0
4, 18816, Note_on_c, 1, 59, 75
4, 18905, Note_on_c, 1, 59, 0
4, 18912, Note_on_c, 1, 60, 75
4, 19001, Note_on_c, 1, 60, 0
4, 19104, Note_on_c, 1, 57, 84
4, 19193, Note_on_c, 1, 57, 0
4, 19200, Note_on_c, 1, 54, 84
4, 19289, Note_on_c, 1, 54, 0
4, 19296, Note_on_c, 1, 55, 84
4, 19385, Note_on_c, 1, 55, 0
4, 19392, Note_on_c, 1, 57, 84
4, 19481, Note_on_c, 1, 57, 0
4, 19488, Note_on_c, 1, 59, 84
4, 19577, Note_on_c, 1, 59, 0
4, 19680, Note_on_c, 1, 55, 75
4, 19769, Note_on_c, 1, 55, 0
4, 19776, Note_on_c, 1, 52, 75
4, 19865, Note_on_c, 1, 52, 0
4, 19872, Note_on_c, 1, 54, 75
4, 19961, Note_on_c, 1, 54, 0
4, 19968, Note_on_c, 1, 55, 75
4, 20057, Note_on_c, 1, 55, 0
4, 20064, Note_on_c, 1, 57, 75
4, 20153, Note_on_c, 1, 57, 0
4, 20256, Note_on_c, 1, 54, 69
4, 20345, Note_on_c, 1, 54, 0
4, 20352, Note_on_c, 1, 51, 69
4, 20441, Note_on_c, 1, 51, 0
4, 20448, Note_on_c, 1, 52, 69
4, 20537, Note_on_c, 1, 52, 0
4, 20544, Note_on_c, 1, 54, 69
4, 20633, Note_on_c, 1, 54, 0
4, 20640, Note_on_c, 1, 55, 69
4, 20729, Note_on_c, 1, 55, 0
4, 20736, Note_on_c, 1, 51, 69
4, 20825, Note_on_c, 1, 51, 0
4, 20832, Note_on_c, 1, 54, 71
4, 20921, Note_on_c, 1, 54, 0
4, 20928, Note_on_c, 1, 52, 73
4, 21017, Note_on_c, 1, 52, 0
4, 21024, Note_on_c, 1, 51, 75
4, 21024, Note_on_c, 1, 47, 75
4, 21113, Note_on_c, 1, 51, 0
4, 21113, Note_on_c, 1, 47, 0
4, 21312, Note_on_c, 1, 52, 84
4, 21312, Note_on_c, 1, 40, 84
4, 21401, Note_on_c, 1, 52, 0
4, 21401, Note_on_c, 1, 40, 0
4, 21408, Note_on_c, 1, 55, 84
4, 21408, Note_on_c, 1, 43, 84
4, 21497, Note_on_c, 1, 55, 0
4, 21497, Note_on_c, 1, 43, 0
4, 21504, Note_on_c, 1, 59, 84
4, 21504, Note_on_c, 1, 47, 84
4, 21593, Note_on_c, 1, 59, 0
4, 21593, Note_on_c, 1, 47, 0
4, 21600, Note_on_c, 1, 52, 84
4, 21600, Note_on_c, 1, 40, 84
4, 21689, Note_on_c, 1, 52, 0
4, 21689, Note_on_c, 1, 40, 0
4, 21696, Note_on_c, 1, 55, 84
4, 21696, Note_on_c, 1, 43, 84
4, 21785, Note_on_c, 1, 55, 0
4, 21785, Note_on_c, 1, 43, 0
4, 21792, Note_on_c, 1, 59, 84
4, 21792, Note_on_c, 1, 47, 84
4, 21881, Note_on_c, 1, 59, 0
4, 21881, Note_on_c, 1, 47, 0
4, 21888, Note_on_c, 1, 55, 75
4, 21977, Note_on_c, 1, 55, 0
4, 21984, Note_on_c, 1, 51, 75
4, 22073, Note_on_c, 1, 51, 0
4, 22080, Note_on_c, 1, 52, 75
4, 22169, Note_on_c, 1, 52, 0
4, 22176, Note_on_c, 1, 54, 75
4, 22265, Note_on_c, 1, 54, 0
4, 22272, Note_on_c, 1, 51, 75
4, 22361, Note_on_c, 1, 51, 0
4, 22368, Note_on_c, 1, 52, 75
4, 22457, Note_on_c, 1, 52, 0
4, 22464, Note_on_c, 1, 52, 84
4, 22464, Note_on_c, 1, 40, 84
4, 22553, Note_on_c, 1, 52, 0
4, 22553, Note_on_c, 1, 40, 0
4, 22560, Note_on_c, 1, 55, 84
4, 22560, Note_on_c, 1, 43, 84
4, 22649, Note_on_c, 1, 55, 0
4, 22649, Note_on_c, 1, 43, 0
4, 22656, Note_on_c, 1, 59, 84
4, 22656, Note_on_c, 1, 47, 84
4, 22745, Note_on_c, 1, 59, 0
4, 22745, Note_on_c, 1, 47, 0
4, 22752, Note_on_c, 1, 52, 84
4, 22752, Note_on_c, 1, 40, 84
4, 22841, Note_on_c, 1, 52, 0
4, 22841, Note_on_c, 1, 40, 0
4, 22944, Note_on_c, 1, 50, 84
4, 22944, Note_on_c, 1, 38, 84
4, 23033, Note_on_c, 1, 50, 0
4, 23033, Note_on_c, 1, 38, 0
4, 23040, Note_on_c, 1, 48, 84
4, 23040, Note_on_c, 1, 36, 84
4, 23129, Note_on_c, 1, 48, 0
4, 23129, Note_on_c, 1, 36, 0
4, 23136, Note_on_c, 1, 47, 84
4, 23136, Note_on_c, 1, 35, 84
4, 23225, Note_on_c, 1, 47, 0
4, 23225, Note_on_c, 1, 35, 0
4, 23232, Note_on_c, 1, 45, 84
4, 23232, Note_on_c, 1, 33, 84
4, 23321, Note_on_c, 1, 45, 0
4, 23321, Note_on_c, 1, 33, 0
4, 23328, Note_on_c, 1, 43, 84
4, 23328, Note_on_c, 1, 31, 84
4, 23505, Note_on_c, 1, 43, 0
4, 23505, Note_on_c, 1, 31, 0
4, 23616, Note_on_c, 1, 57, 75
4, 23616, Note_on_c, 1, 45, 75
4, 23705, Note_on_c, 1, 57, 0
4, 23705, Note_on_c, 1, 45, 0
4, 23712, Note_on_c, 1, 59, 75
4, 23712, Note_on_c, 1, 47, 75
4, 23801, Note_on_c, 1, 59, 0
4, 23801, Note_on_c, 1, 47, 0
4, 23808, Note_on_c, 1, 57, 75
4, 23808, Note_on_c, 1, 47, 75
4, 23897, Note_on_c, 1, 57, 0
4, 23897, Note_on_c, 1, 47, 0
4, 23904, Note_on_c, 1, 55, 75
4, 23904, Note_on_c, 1, 52, 75
4, 23993, Note_on_c, 1, 55, 0
4, 23993, Note_on_c, 1, 52, 0
4, 24000, Note_on_c, 1, 40, 75
4, 24089, Note_on_c, 1, 40, 0
4, 24288, Note_on_c, 1, 59, 75
4, 24377, Note_on_c, 1, 59, 0
4, 24384, Note_on_c, 1, 56, 75
4, 24473, Note_on_c, 1, 56, 0
4, 24480, Note_on_c, 1, 57, 75
4, 24569, Note_on_c, 1, 57, 0
4, 24576, Note_on_c, 1, 59, 75
4, 24665, Note_on_c, 1, 59, 0
4, 24672, Note_on_c, 1, 60, 75
4, 24761, Note_on_c, 1, 60, 0
4, 24864, Note_on_c, 1, 57, 84
4, 24953, Note_on_c, 1, 57, 0
4, 24960, Note_on_c, 1, 54, 84
4, 25049, Note_on_c, 1, 54, 0
4, 25056, Note_on_c, 1, 55, 84
4, 25145, Note_on_c, 1, 55, 0
4, 25152, Note_on_c, 1, 57, 84
4, 25241, Note_on_c, 1, 57, 0
4, 25248, Note_on_c, 1, 59, 84
4, 25337, Note_on_c, 1, 59, 0
4, 25440, Note_on_c, 1, 55, 75
4, 25529, Note_on_c, 1, 55, 0
4, 25536, Note_on_c, 1, 52, 75
4, 25625, Note_on_c, 1, 52, 0
4, 25632, Note_on_c, 1, 54, 75
4, 25721, Note_on_c, 1, 54, 0
4, 25728, Note_on_c, 1, 55, 75
4, 25817, Note_on_c, 1, 55, 0
4, 25824, Note_on_c, 1, 57, 75
4, 25913, Note_on_c, 1, 57, 0
4, 26016, Note_on_c, 1, 54, 69
4, 26105, Note_on_c, 1, 54, 0
4, 26112, Note_on_c, 1, 51, 69
4, 26201, Note_on_c, 1, 51, 0
4, 26208, Note_on_c, 1, 52, 69
4, 26297, Note_on_c, 1, 52, 0
4, 26304, Note_on_c, 1, 54, 69
4, 26393, Note_on_c, 1, 54, 0
4, 26400, Note_on_c, 1, 55, 69
4, 26489, Note_on_c, 1, 55, 0
4, 26496, Note_on_c, 1, 51, 69
4, 26585, Note_on_c, 1, 51, 0
4, 26592, Note_on_c, 1, 54, 71
4, 26681, Note_on_c, 1, 54, 0
4, 26688, Note_on_c, 1, 52, 73
4, 26777, Note_on_c, 1, 52, 0
4, 26784, Note_on_c, 1, 51, 75
4, 26784, Note_on_c, 1, 47, 75
4, 26873, Note_on_c, 1, 51, 0
4, 26873, Note_on_c, 1, 47, 0
4, 27072, Note_on_c, 1, 52, 84
4, 27072, Note_on_c, 1, 40, 84
4, 27161, Note_on_c, 1, 52, 0
4, 27161, Note_on_c, 1, 40, 0
4, 27168, Note_on_c, 1, 55, 84
4, 27168, Note_on_c, 1, 43, 84
4, 27257, Note_on_c, 1, 55, 0
4, 27257, Note_on_c, 1, 43, 0
4, 27264, Note_on_c, 1, 59, 84
4, 27264, Note_on_c, 1, 47, 84
4, 27353, Note_on_c, 1, 59, 0
4, 27353, Note_on_c, 1, 47, 0
4, 27360, Note_on_c, 1, 52, 84
4, 27360, Note_on_c, 1, 40, 84
4, 27449, Note_on_c, 1, 52, 0
4, 27449, Note_on_c, 1, 40, 0
4, 27456, Note_on_c, 1, 55, 84
4, 27456, Note_on_c, 1, 43, 84
4, 27545, Note_on_c, 1, 55, 0
4, 27545, Note_on_c, 1, 43, 0
4, 27552, Note_on_c, 1, 59, 84
4, 27552, Note_on_c, 1, 47, 84
4, 27641, Note_on_c, 1, 59, 0
4, 27641, Note_on_c, 1, 47, 0
4, 27648, Note_on_c, 1, 55, 75
4, 27737, Note_on_c, 1, 55, 0
4, 27744, Note_on_c, 1, 51, 75
4, 27833, Note_on_c, 1, 51, 0
4, 27840, Note_on_c, 1, 52, 75
4, 27929, Note_on_c, 1, 52, 0
4, 27936, Note_on_c, 1, 54, 75
4, 28025, Note_on_c, 1, 54, 0
4, 28032, Note_on_c, 1, 51, 75
4, 28121, Note_on_c, 1, 51, 0
4, 28128, Note_on_c, 1, 52, 75
4, 28217, Note_on_c, 1, 52, 0
4, 28224, Note_on_c, 1, 52, 84
4, 28224, Note_on_c, 1, 40, 84
4, 28313, Note_on_c, 1, 52, 0
4, 28313, Note_on_c, 1, 40, 0
4, 28320, Note_on_c, 1, 55, 84
4, 28320, Note_on_c, 1, 43, 84
4, 28409, Note_on_c, 1, 55, 0
4, 28409, Note_on_c, 1, 43, 0
4, 28416, Note_on_c, 1, 59, 84
4, 28416, Note_on_c, 1, 47, 84
4, 28505, Note_on_c, 1, 59, 0
4, 28505, Note_on_c, 1, 47, 0
4, 28512, Note_on_c, 1, 52, 84
4, 28512, Note_on_c, 1, 40, 84
4, 28601, Note_on_c, 1, 52, 0
4, 28601, Note_on_c, 1, 40, 0
4, 28704, Note_on_c, 1, 50, 84
4, 28704, Note_on_c, 1, 38, 84
4, 28793, Note_on_c, 1, 50, 0
4, 28793, Note_on_c, 1, 38, 0
4, 28800, Note_on_c, 1, 48, 84
4, 28800, Note_on_c, 1, 36, 84
4, 28889, Note_on_c, 1, 48, 0
4, 28889, Note_on_c, 1, 36, 0
4, 28896, Note_on_c, 1, 47, 84
4, 28896, Note_on_c, 1, 35, 84
4, 28985, Note_on_c, 1, 47, 0
4, 28985, Note_on_c, 1, 35, 0
4, 28992, Note_on_c, 1, 45, 84
4, 28992, Note_on_c, 1, 33, 84
4, 29081, Note_on_c, 1, 45, 0
4, 29081, Note_on_c, 1, 33, 0
4, 29088, Note_on_c, 1, 43, 84
4, 29088, Note_on_c, 1, 31, 84
4, 29265, Note_on_c, 1, 43, 0
4, 29265, Note_on_c, 1, 31, 0
4, 29376, Note_on_c, 1, 57, 75
4, 29376, Note_on_c, 1, 45, 75
4, 29465, Note_on_c, 1, 57, 0
4, 29465, Note_on_c, 1, 45, 0
4, 29472, Note_on_c, 1, 59, 75
4, 29472, Note_on_c, 1, 47, 75
4, 29561, Note_on_c, 1, 59, 0
4, 29561, Note_on_c, 1, 47, 0
4, 29568, Note_on_c, 1, 57, 75
4, 29568, Note_on_c, 1, 47, 75
4, 29657, Note_on_c, 1, 57, 0
4, 29657, Note_on_c, 1, 47, 0
4, 29664, Note_on_c, 1, 55, 75
4, 29664, Note_on_c, 1, 52, 75
4, 29753, Note_on_c, 1, 55, 0
4, 29753, Note_on_c, 1, 52, 0
4, 29760, Note_on_c, 1, 40, 75
4, 29849, Note_on_c, 1, 40, 0
4, 29952, Note_on_c, 1, 68, 69
4, 29952, Note_on_c, 1, 64, 69
4, 30041, Note_on_c, 1, 68, 0
4, 30041, Note_on_c, 1, 64, 0
4, 30048, Note_on_c, 1, 68, 69
4, 30048, Note_on_c, 1, 64, 69
4, 30137, Note_on_c, 1, 68, 0
4, 30137, Note_on_c, 1, 64, 0
4, 30144, Note_on_c, 1, 68, 69
4, 30144, Note_on_c, 1, 64, 69
4, 30233, Note_on_c, 1, 68, 0
4, 30233, Note_on_c, 1, 64, 0
4, 30240, Note_on_c, 1, 68, 69
4, 30240, Note_on_c, 1, 64, 69
4, 30329, Note_on_c, 1, 68, 0
4, 30329, Note_on_c, 1, 64, 0
4, 30336, Note_on_c, 1, 68, 69
4, 30336, Note_on_c, 1, 64, 69
4, 30425, Note_on_c, 1, 68, 0
4, 30425, Note_on_c, 1, 64, 0
4, 30432, Note_on_c, 1, 68, 69
4, 30432, Note_on_c, 1, 64, 69
4, 30521, Note_on_c, 1, 68, 0
4, 30521, Note_on_c, 1, 64, 0
4, 30528, Note_on_c, 1, 69, 69
4, 30528, Note_on_c, 1, 64, 69
4, 30617, Note_on_c, 1, 69, 0
4, 30617, Note_on_c, 1, 64, 0
4, 30624, Note_on_c, 1, 69, 69
4, 30624, Note_on_c, 1, 64, 69
4, 30713, Note_on_c, 1, 69, 0
4, 30713, Note_on_c, 1, 64, 0
4, 30720, Note_on_c, 1, 69, 69
4, 30720, Note_on_c, 1, 64, 69
4, 30809, Note_on_c, 1, 69, 0
4, 30809, Note_on_c, 1, 64, 0
4, 30816, Note_on_c, 1, 69, 69
4, 30816, Note_on_c, 1, 64, 69
4, 30905, Note_on_c, 1, 69, 0
4, 30905, Note_on_c, 1, 64, 0
4, 30912, Note_on_c, 1, 68, 69
4, 30912, Note_on_c, 1, 64, 69
4, 31001, Note_on_c, 1, 68, 0
4, 31001, Note_on_c, 1, 64, 0
4, 31200, Note_on_c, 1, 64, 69
4, 31200, Note_on_c, 1, 61, 69
4, 31296, Note_on_c, 1, 64, 0
4, 31296, Note_on_c, 1, 61, 0
4, 31296, Note_on_c, 1, 63, 69
4, 31296, Note_on_c, 1, 59, 69
4, 31385, Note_on_c, 1, 63, 0
4, 31385, Note_on_c, 1, 59, 0
4, 31488, Note_on_c, 1, 61, 69
4, 31488, Note_on_c, 1, 57, 69
4, 31584, Note_on_c, 1, 61, 0
4, 31584, Note_on_c, 1, 57, 0
4, 31584, Note_on_c, 1, 59, 69
4, 31584, Note_on_c, 1, 56, 69
4, 31673, Note_on_c, 1, 59, 0
4, 31673, Note_on_c, 1, 56, 0
4, 31776, Note_on_c, 1, 51, 69
4, 31865, Note_on_c, 1, 51, 0
4, 31872, Note_on_c, 1, 52, 69
4, 31961, Note_on_c, 1, 52, 0
4, 31968, Note_on_c, 1, 59, 69
4, 32057, Note_on_c, 1, 59, 0
4, 32064, Note_on_c, 1, 54, 69
4, 32153, Note_on_c, 1, 54, 0
4, 32160, Note_on_c, 1, 47, 69
4, 32249, Note_on_c, 1, 47, 0
4, 32256, Note_on_c, 1, 68, 69
4, 32256, Note_on_c, 1, 64, 69
4, 32345, Note_on_c, 1, 68, 0
4, 32345, Note_on_c, 1, 64, 0
4, 32352, Note_on_c, 1, 68, 69
4, 32352, Note_on_c, 1, 64, 69
4, 32441, Note_on_c, 1, 68, 0
4, 32441, Note_on_c, 1, 64, 0
4, 32448, Note_on_c, 1, 68, 69
4, 32448, Note_on_c, 1, 64, 69
4, 32537, Note_on_c, 1, 68, 0
4, 32537, Note_on_c, 1, 64, 0
4, 32544, Note_on_c, 1, 68, 69
4, 32544, Note_on_c, 1, 64, 69
4, 32633, Note_on_c, 1, 68, 0
4, 32633, Note_on_c, 1, 64, 0
4, 32640, Note_on_c, 1, 68, 69
4, 32640, Note_on_c, 1, 64, 69
4, 32729, Note_on_c, 1, 68, 0
4, 32729, Note_on_c, 1, 64, 0
4, 32736, Note_on_c, 1, 68, 69
4, 32736, Note_on_c, 1, 64, 69
4, 32825, Note_on_c, 1, 68, 0
4, 32825, Note_on_c, 1, 64, 0
4, 32832, Note_on_c, 1, 69, 69
4, 32832, Note_on_c, 1, 64, 69
4, 32921, Note_on_c, 1, 69, 0
4, 32921, Note_on_c, 1, 64, 0
4, 32928, Note_on_c, 1, 69, 69
4, 32928, Note_on_c, 1, 64, 69
4, 33017, Note_on_c, 1, 69, 0
4, 33017, Note_on_c, 1, 64, 0
4, 33024, Note_on_c, 1, 69, 69
4, 33024, Note_on_c, 1, 64, 69
4, 33113, Note_on_c, 1, 69, 0
4, 33113, Note_on_c, 1, 64, 0
4, 33120, Note_on_c, 1, 69, 69
4, 33120, Note_on_c, 1, 64, 69
4, 33209, Note_on_c, 1, 69, 0
4, 33209, Note_on_c, 1, 64, 0
4, 33216, Note_on_c, 1, 68, 69
4, 33216, Note_on_c, 1, 64, 69
4, 33305, Note_on_c, 1, 68, 0
4, 33305, Note_on_c, 1, 64, 0
4, 33504, Note_on_c, 1, 64, 69
4, 33504, Note_on_c, 1, 61, 69
4, 33600, Note_on_c, 1, 64, 0
4, 33600, Note_on_c, 1, 61, 0
4, 33600, Note_on_c, 1, 63, 69
4, 33600, Note_on_c, 1, 59, 69
4, 33689, Note_on_c, 1, 63, 0
4, 33689, Note_on_c, 1, 59, 0
4, 33792, Note_on_c, 1, 61, 69
4, 33792, Note_on_c, 1, 57, 69
4, 33888, Note_on_c, 1, 61, 0
4, 33888, Note_on_c, 1, 57, 0
4, 33888, Note_on_c, 1, 59, 69
4, 33888, Note_on_c, 1, 56, 69
4, 33977, Note_on_c, 1, 59, 0
4, 33977, Note_on_c, 1, 56, 0
4, 34080, Note_on_c, 1, 51, 69
4, 34169, Note_on_c, 1, 51, 0
4, 34176, Note_on_c, 1, 52, 69
4, 34265, Note_on_c, 1, 52, 0
4, 34272, Note_on_c, 1, 59, 69
4, 34361, Note_on_c, 1, 59, 0
4, 34368, Note_on_c, 1, 54, 69
4, 34457, Note_on_c, 1, 54, 0
4, 34464, Note_on_c, 1, 47, 69
4, 34553, Note_on_c, 1, 47, 0
4, 34656, Note_on_c, 1, 69, 69
4, 34656, Note_on_c, 1, 59, 69
4, 34745, Note_on_c, 1, 69, 0
4, 34745, Note_on_c, 1, 59, 0
4, 34752, Note_on_c, 1, 69, 69
4, 34752, Note_on_c, 1, 59, 69
4, 34841, Note_on_c, 1, 69, 0
4, 34841, Note_on_c, 1, 59, 0
4, 34848, Note_on_c, 1, 68, 69
4, 34937, Note_on_c, 1, 68, 0
4, 34944, Note_on_c, 1, 63, 69
4, 35033, Note_on_c, 1, 63, 0
4, 35040, Note_on_c, 1, 64, 69
4, 35129, Note_on_c, 1, 64, 0
4, 35232, Note_on_c, 1, 61, 69
4, 35232, Note_on_c, 1, 57, 69
4, 35321, Note_on_c, 1, 61, 0
4, 35321, Note_on_c, 1, 57, 0
4, 35328, Note_on_c, 1, 61, 70
4, 35328, Note_on_c, 1, 57, 70
4, 35417, Note_on_c, 1, 61, 0
4, 35417, Note_on_c, 1, 57, 0
4, 35520, Note_on_c, 1, 61, 74
4, 35520, Note_on_c, 1, 57, 74
4, 35609, Note_on_c, 1, 61, 0
4, 35609, Note_on_c, 1, 57, 0
4, 35616, Note_on_c, 1, 61, 76
4, 35616, Note_on_c, 1, 57, 76
4, 35705, Note_on_c, 1, 61, 0
4, 35705, Note_on_c, 1, 57, 0
4, 35808, Note_on_c, 1, 61, 80
4, 35808, Note_on_c, 1, 57, 80
4, 35897, Note_on_c, 1, 61, 0
4, 35897, Note_on_c, 1, 57, 0
4, 35904, Note_on_c, 1, 61, 82
4, 35904, Note_on_c, 1, 58, 82
4, 35993, Note_on_c, 1, 61, 0
4, 35993, Note_on_c, 1, 58, 0
4, 36000, Note_on_c, 1, 59, 84
4, 36089, Note_on_c, 1, 59, 0
4, 36096, Note_on_c, 1, 54, 81
4, 36185, Note_on_c, 1, 54, 0
4, 36192, Note_on_c, 1, 47, 78
4, 36281, Note_on_c, 1, 47, 0
4, 36288, Note_on_c, 1, 68, 69
4, 36288, Note_on_c, 1, 64, 69
4, 36377, Note_on_c, 1, 68, 0
4, 36377, Note_on_c, 1, 64, 0
4, 36384, Note_on_c, 1, 68, 69
4, 36384, Note_on_c, 1, 64, 69
4, 36473, Note_on_c, 1, 68, 0
4, 36473, Note_on_c, 1, 64, 0
4, 36480, Note_on_c, 1, 68, 69
4, 36480, Note_on_c, 1, 64, 69
4, 36569, Note_on_c, 1, 68, 0
4, 36569, Note_on_c, 1, 64, 0
4, 36576, Note_on_c, 1, 68, 69
4, 36576, Note_on_c, 1, 64, 69
4, 36665, Note_on_c, 1, 68, 0
4, 36665, Note_on_c, 1, 64, 0
4, 36672, Note_on_c, 1, 68, 69
4, 36672, Note_on_c, 1, 64, 69
4, 36761, Note_on_c, 1, 68, 0
4, 36761, Note_on_c, 1, 64, 0
4, 36768, Note_on_c, 1, 68, 69
4, 36768, Note_on_c, 1, 64, 69
4, 36857, Note_on_c, 1, 68, 0
4, 36857, Note_on_c, 1, 64, 0
4, 36864, Note_on_c, 1, 69, 69
4, 36864, Note_on_c, 1, 64, 69
4, 36953, Note_on_c, 1, 69, 0
4, 36953, Note_on_c, 1, 64, 0
4, 36960, Note_on_c, 1, 69, 69
4, 36960, Note_on_c, 1, 64, 69
4, 37049, Note_on_c, 1, 69, 0
4, 37049, Note_on_c, 1, 64, 0
4, 37056, Note_on_c, 1, 69, 69
4, 37056, Note_on_c, 1, 64, 69
4, 37145, Note_on_c, 1, 69, 0
4, 37145, Note_on_c, 1, 64, 0
4, 37152, Note_on_c, 1, 69, 69
4, 37152, Note_on_c, 1, 64, 69
4, 37241, Note_on_c, 1, 69, 0
4, 37241, Note_on_c, 1, 64, 0
4, 37248, Note_on_c, 1, 68, 69
4, 37248, Note_on_c, 1, 64, 69
4, 37337, Note_on_c, 1, 68, 0
4, 37337, Note_on_c, 1, 64, 0
4, 37536, Note_on_c, 1, 64, 69
4, 37536, Note_on_c, 1, 61, 69
4, 37632, Note_on_c, 1, 64, 0
4, 37632, Note_on_c, 1, 61, 0
4, 37632, Note_on_c, 1, 63, 69
4, 37632, Note_on_c, 1, 59, 69
4, 37721, Note_on_c, 1, 63, 0
4, 37721, Note_on_c, 1, 59, 0
4, 37824, Note_on_c, 1, 61, 69
4, 37824, Note_on_c, 1, 57, 69
4, 37920, Note_on_c, 1, 61, 0
4, 37920, Note_on_c, 1, 57, 0
4, 37920, Note_on_c, 1, 59, 69
4, 37920, Note_on_c, 1, 56, 69
4, 38009, Note_on_c, 1, 59, 0
4, 38009, Note_on_c, 1, 56, 0
4, 38112, Note_on_c, 1, 57, 75
4, 38112, Note_on_c, 1, 45, 75
4, 38201, Note_on_c, 1, 57, 0
4, 38201, Note_on_c, 1, 45, 0
4, 38208, Note_on_c, 1, 56, 75
4, 38208, Note_on_c, 1, 44, 75
4, 38297, Note_on_c, 1, 56, 0
4, 38297, Note_on_c, 1, 44, 0
4, 38400, Note_on_c, 1, 54, 75
4, 38400, Note_on_c, 1, 42, 75
4, 38489, Note_on_c, 1, 54, 0
4, 38489, Note_on_c, 1, 42, 0
4, 38496, Note_on_c, 1, 52, 75
4, 38496, Note_on_c, 1, 40, 75
4, 38585, Note_on_c, 1, 52, 0
4, 38585, Note_on_c, 1, 40, 0
4, 38592, Note_on_c, 1, 57, 75
4, 38592, Note_on_c, 1, 45, 75
4, 38681, Note_on_c, 1, 57, 0
4, 38681, Note_on_c, 1, 45, 0
4, 38688, Note_on_c, 1, 56, 75
4, 38688, Note_on_c, 1, 47, 75
4, 38777, Note_on_c, 1, 56, 0
4, 38777, Note_on_c, 1, 47, 0
4, 38784, Note_on_c, 1, 54, 75
4, 38784, Note_on_c, 1, 47, 75
4, 38873, Note_on_c, 1, 54, 0
4, 38873, Note_on_c, 1, 47, 0
4, 38880, Note_on_c, 1, 52, 75
4, 38969, Note_on_c, 1, 52, 0
4, 38976, Note_on_c, 1, 47, 75
4, 39065, Note_on_c, 1, 47, 0
4, 39072, Note_on_c, 1, 40, 75
4, 39161, Note_on_c, 1, 40, 0
4, 39264, Note_on_c, 1, 69, 69
4, 39264, Note_on_c, 1, 59, 69
4, 39353, Note_on_c, 1, 69, 0
4, 39353, Note_on_c, 1, 59, 0
4, 39360, Note_on_c, 1, 69, 69
4, 39360, Note_on_c, 1, 59, 69
4, 39449, Note_on_c, 1, 69, 0
4, 39449, Note_on_c, 1, 59, 0
4, 39456, Note_on_c, 1, 68, 69
4, 39545, Note_on_c, 1, 68, 0
4, 39552, Note_on_c, 1, 63, 69
4, 39641, Note_on_c, 1, 63, 0
4, 39648, Note_on_c, 1, 64, 69
4, 39737, Note_on_c, 1, 64, 0
4, 39840, Note_on_c, 1, 61, 69
4, 39840, Note_on_c, 1, 57, 69
4, 39929, Note_on_c, 1, 61, 0
4, 39929, Note_on_c, 1, 57, 0
4, 39936, Note_on_c, 1, 61, 70
4, 39936, Note_on_c, 1, 57, 70
4, 40025, Note_on_c, 1, 61, 0
4, 40025, Note_on_c, 1, 57, 0
4, 40128, Note_on_c, 1, 61, 74
4, 40128, Note_on_c, 1, 57, 74
4, 40217, Note_on_c, 1, 61, 0
4, 40217, Note_on_c, 1, 57, 0
4, 40224, Note_on_c, 1, 61, 76
4, 40224, Note_on_c, 1, 57, 76
4, 40313, Note_on_c, 1, 61, 0
4, 40313, Note_on_c, 1, 57, 0
4, 40416, Note_on_c, 1, 61, 80
4, 40416, Note_on_c, 1, 57, 80
4, 40505, Note_on_c, 1, 61, 0
4, 40505, Note_on_c, 1, 57, 0
4, 40512, Note_on_c, 1, 61, 82
4, 40512, Note_on_c, 1, 58, 82
4, 40601, Note_on_c, 1, 61, 0
4, 40601, Note_on_c, 1, 58, 0
4, 40608, Note_on_c, 1, 59, 84
4, 40697, Note_on_c, 1, 59, 0
4, 40704, Note_on_c, 1, 54, 81
4, 40793, Note_on_c, 1, 54, 0
4, 40800, Note_on_c, 1, 47, 78
4, 40889, Note_on_c, 1, 47, 0
4, 40896, Note_on_c, 1, 68, 69
4, 40896, Note_on_c, 1, 64, 69
4, 40985, Note_on_c, 1, 68, 0
4, 40985, Note_on_c, 1, 64, 0
4, 40992, Note_on_c, 1, 68, 69
4, 40992, Note_on_c, 1, 64, 69
4, 41081, Note_on_c, 1, 68, 0
4, 41081, Note_on_c, 1, 64, 0
4, 41088, Note_on_c, 1, 68, 69
4, 41088, Note_on_c, 1, 64, 69
4, 41177, Note_on_c, 1, 68, 0
4, 41177, Note_on_c, 1, 64, 0
4, 41184, Note_on_c, 1, 68, 69
4, 41184, Note_on_c, 1, 64, 69
4, 41273, Note_on_c, 1, 68, 0
4, 41273, Note_on_c, 1, 64, 0
4, 41280, Note_on_c, 1, 68, 69
4, 41280, Note_on_c, 1, 64, 69
4, 41369, Note_on_c, 1, 68, 0
4, 41369, Note_on_c, 1, 64, 0
4, 41376, Note_on_c, 1, 68, 69
4, 41376, Note_on_c, 1, 64, 69
4, 41465, Note_on_c, 1, 68, 0
4, 41465, Note_on_c, 1, 64, 0
4, 41472, Note_on_c, 1, 69, 69
4, 41472, Note_on_c, 1, 64, 69
4, 41561, Note_on_c, 1, 69, 0
4, 41561, Note_on_c, 1, 64, 0
4, 41568, Note_on_c, 1, 69, 69
4, 41568, Note_on_c, 1, 64, 69
4, 41657, Note_on_c, 1, 69, 0
4, 41657, Note_on_c, 1, 64, 0
4, 41664, Note_on_c, 1, 69, 69
4, 41664, Note_on_c, 1, 64, 69
4, 41753, Note_on_c, 1, 69, 0
4, 41753, Note_on_c, 1, 64, 0
4, 41760, Note_on_c, 1, 69, 69
4, 41760, Note_on_c, 1, 64, 69
4, 41849, Note_on_c, 1, 69, 0
4, 41849, Note_on_c, 1, 64, 0
4, 41856, Note_on_c, 1, 68, 69
4, 41856, Note_on_c, 1, 64, 69
4, 41945, Note_on_c, 1, 68, 0
4, 41945, Note_on_c, 1, 64, 0
4, 42144, Note_on_c, 1, 64, 69
4, 42144, Note_on_c, 1, 61, 69
4, 42240, Note_on_c, 1, 64, 0
4, 42240, Note_on_c, 1, 61, 0
4, 42240, Note_on_c, 1, 63, 69
4, 42240, Note_on_c, 1, 59, 69
4, 42329, Note_on_c, 1, 63, 0
4, 42329, Note_on_c, 1, 59, 0
4, 42432, Note_on_c, 1, 61, 69
4, 42432, Note_on_c, 1, 57, 69
4, 42528, Note_on_c, 1, 61, 0
4, 42528, Note_on_c, 1, 57, 0
4, 42528, Note_on_c, 1, 59, 69
4, 42528, Note_on_c, 1, 56, 69
4, 42617, Note_on_c, 1, 59, 0
4, 42617, Note_on_c, 1, 56, 0
4, 42720, Note_on_c, 1, 57, 75
4, 42720, Note_on_c, 1, 45, 75
4, 42809, Note_on_c, 1, 57, 0
4, 42809, Note_on_c, 1, 45, 0
4, 42816, Note_on_c, 1, 56, 75
4, 42816, Note_on_c, 1, 44, 75
4, 42905, Note_on_c, 1, 56, 0
4, 42905, Note_on_c, 1, 44, 0
4, 43008, Note_on_c, 1, 54, 75
4, 43008, Note_on_c, 1, 42, 75
4, 43097, Note_on_c, 1, 54, 0
4, 43097, Note_on_c, 1, 42, 0
4, 43104, Note_on_c, 1, 52, 75
4, 43104, Note_on_c, 1, 40, 75
4, 43193, Note_on_c, 1, 52, 0
4, 43193, Note_on_c, 1, 40, 0
4, 43200, Note_on_c, 1, 57, 75
4, 43200, Note_on_c, 1, 45, 75
4, 43289, Note_on_c, 1, 57, 0
4, 43289, Note_on_c, 1, 45, 0
4, 43296, Note_on_c, 1, 56, 75
4, 43296, Note_on_c, 1, 47, 75
4, 43385, Note_on_c, 1, 56, 0
4, 43385, Note_on_c, 1, 47, 0
4, 43392, Note_on_c, 1, 54, 75
4, 43392, Note_on_c, 1, 47, 75
4, 43481, Note_on_c, 1, 54, 0
4, 43481, Note_on_c, 1, 47, 0
4, 43488, Note_on_c, 1, 52, 75
4, 43577, Note_on_c, 1, 52, 0
4, 43584, Note_on_c, 1, 47, 75
4, 43673, Note_on_c, 1, 47, 0
4, 43680, Note_on_c, 1, 40, 75
4, 43769, Note_on_c, 1, 40, 0
4, 43776, Note_on_c, 1, 40, 4
4, 43865, Note_on_c, 1, 40, 0
4, 43872, End_track
5, 0, Start_track
5, 0, Program_c, 1, 0
5, 0, Control_c, 1, 7, 127
5, 0, Control_c, 1, 10, 64
5, 4704, Note_on_c, 1, 59, 64
5, 4793, Note_on_c, 1, 59, 0
5, 4800, Note_on_c, 1, 59, 64
5, 4889, Note_on_c, 1, 59, 0
5, 4896, Note_on_c, 1, 59, 64
5, 5073, Note_on_c, 1, 59, 0
5, 5088, Note_on_c, 1, 64, 64
5, 5177, Note_on_c, 1, 64, 0
5, 9312, Note_on_c, 1, 59, 64
5, 9401, Note_on_c, 1, 59, 0
5, 9408, Note_on_c, 1, 59, 64
5, 9497, Note_on_c, 1, 59, 0
5, 9504, Note_on_c, 1, 59, 64
5, 9681, Note_on_c, 1, 59, 0
5, 9696, Note_on_c, 1, 64, 64
5, 9785, Note_on_c, 1, 64, 0
5, 18432, Note_on_c, 1, 52, 64
5, 18697, Note_on_c, 1, 52, 0
5, 18720, Note_on_c, 1, 52, 64
5, 18985, Note_on_c, 1, 52, 0
5, 19008, Note_on_c, 1, 50, 84
5, 19273, Note_on_c, 1, 50, 0
5, 19296, Note_on_c, 1, 50, 84
5, 19561, Note_on_c, 1, 50, 0
5, 19584, Note_on_c, 1, 48, 75
5, 19849, Note_on_c, 1, 48, 0
5, 19872, Note_on_c, 1, 48, 75
5, 20137, Note_on_c, 1, 48, 0
5, 20160, Note_on_c, 1, 47, 69
5, 21001, Note_on_c, 1, 47, 0
5, 24192, Note_on_c, 1, 52, 64
5, 24457, Note_on_c, 1, 52, 0
5, 24480, Note_on_c, 1, 52, 64
5, 24745, Note_on_c, 1, 52, 0
5, 24768, Note_on_c, 1, 50, 84
5, 25033, Note_on_c, 1, 50, 0
5, 25056, Note_on_c, 1, 50, 84
5, 25321, Note_on_c, 1, 50, 0
5, 25344, Note_on_c, 1, 48, 75
5, 25609, Note_on_c, 1, 48, 0
5, 25632, Note_on_c, 1, 48, 75
5, 25897, Note_on_c, 1, 48, 0
5, 25920, Note_on_c, 1, 47, 69
5, 26761, Note_on_c, 1, 47, 0
5, 34848, Note_on_c, 1, 59, 69
5, 35025, Note_on_c, 1, 59, 0
5, 35040, Note_on_c, 1, 64, 69
5, 35129, Note_on_c, 1, 64, 0
5, 39456, Note_on_c, 1, 59, 69
5, 39633, Note_on_c, 1, 59, 0
5, 39648, Note_on_c, 1, 64, 69
5, 39737, Note_on_c, 1, 64, 0
5, 43776, End_track
6, 0, Start_track
6, 0, Title_t, "Sonata III   <composer>  "
6, 0, End_track
0, 0, End_of_file
