0, 0, Header, 1, 6, 96
1, 0, Start_track
1, 0, Copyright_t, "Copyright  2000 <copyright holder>"
1, 0, Text_t, "Sonata I\015\012"
1, 0, Text_t, "Haydn\015\012"
1, 0, Sequencer_specific, 16, 68, 87, 77, 90, 86, 82, 83, 78, 32, 54, 46, 48, 46, 57, 46, 48
1, 0, Time_signature, 2, 2, 24, 8
1, 0, Tempo, 120000
1, 0, Key_signature, -2, "major"
1, 144, Tempo, 571428
1, 11856, Tempo, 571428
1, 57024, End_track
2, 0, Start_track
2, 0, Program_c, 0, 0
2, 0, Control_c, 0, 7, 127
2, 0, Control_c, 0, 10, 64
2, 144, Note_on_c, 0, 70, 80
2, 144, Note_on_c, 0, 62, 80
2, 189, Note_on_c, 0, 70, 0
2, 189, Note_on_c, 0, 62, 0
2, 192, Note_on_c, 0, 70, 80
2, 192, Note_on_c, 0, 62, 80
2, 240, Note_on_c, 0, 62, 0
2, 240, Note_on_c, 0, 74, 80
2, 285, Note_on_c, 0, 74, 0
2, 285, Note_on_c, 0, 70, 0
2, 288, Note_on_c, 0, 74, 80
2, 288, Note_on_c, 0, 70, 80
2, 336, Note_on_c, 0, 70, 0
2, 336, Note_on_c, 0, 77, 80
2, 381, Note_on_c, 0, 77, 0
2, 381, Note_on_c, 0, 74, 0
2, 384, Note_on_c, 0, 77, 80
2, 517, Note_on_c, 0, 77, 0
2, 528, Note_on_c, 0, 75, 80
2, 543, Note_on_c, 0, 75, 0
2, 544, Note_on_c, 0, 77, 80
2, 559, Note_on_c, 0, 77, 0
2, 560, Note_on_c, 0, 79, 80
2, 575, Note_on_c, 0, 79, 0
2, 576, Note_on_c, 0, 77, 80
2, 709, Note_on_c, 0, 77, 0
2, 720, Note_on_c, 0, 75, 80
2, 735, Note_on_c, 0, 75, 0
2, 736, Note_on_c, 0, 77, 80
2, 751, Note_on_c, 0, 77, 0
2, 752, Note_on_c, 0, 79, 80
2, 767, Note_on_c, 0, 79, 0
2, 768, Note_on_c, 0, 77, 80
2, 813, Note_on_c, 0, 77, 0
2, 816, Note_on_c, 0, 82, 80
2, 861, Note_on_c, 0, 82, 0
2, 912, Note_on_c, 0, 70, 75
2, 927, Note_on_c, 0, 70, 0
2, 928, Note_on_c, 0, 72, 75
2, 943, Note_on_c, 0, 72, 0
2, 944, Note_on_c, 0, 70, 75
2, 959, Note_on_c, 0, 70, 0
2, 960, Note_on_c, 0, 67, 75
2, 1005, Note_on_c, 0, 67, 0
2, 1008, Note_on_c, 0, 70, 75
2, 1023, Note_on_c, 0, 70, 0
2, 1024, Note_on_c, 0, 72, 75
2, 1039, Note_on_c, 0, 72, 0
2, 1040, Note_on_c, 0, 70, 75
2, 1055, Note_on_c, 0, 70, 0
2, 1056, Note_on_c, 0, 65, 75
2, 1101, Note_on_c, 0, 65, 0
2, 1104, Note_on_c, 0, 77, 75
2, 1119, Note_on_c, 0, 77, 0
2, 1120, Note_on_c, 0, 74, 75
2, 1135, Note_on_c, 0, 74, 0
2, 1136, Note_on_c, 0, 70, 75
2, 1151, Note_on_c, 0, 70, 0
2, 1152, Note_on_c, 0, 65, 75
2, 1241, Note_on_c, 0, 65, 0
2, 1248, Note_on_c, 0, 63, 75
2, 1261, Note_on_c, 0, 63, 0
2, 1262, Note_on_c, 0, 65, 75
2, 1275, Note_on_c, 0, 65, 0
2, 1276, Note_on_c, 0, 63, 75
2, 1289, Note_on_c, 0, 63, 0
2, 1290, Note_on_c, 0, 65, 75
2, 1303, Note_on_c, 0, 65, 0
2, 1304, Note_on_c, 0, 63, 75
2, 1317, Note_on_c, 0, 63, 0
2, 1318, Note_on_c, 0, 62, 75
2, 1330, Note_on_c, 0, 62, 0
2, 1331, Note_on_c, 0, 63, 75
2, 1343, Note_on_c, 0, 63, 0
2, 1344, Note_on_c, 0, 62, 75
2, 1389, Note_on_c, 0, 62, 0
2, 1392, Note_on_c, 0, 63, 75
2, 1407, Note_on_c, 0, 63, 0
2, 1408, Note_on_c, 0, 65, 75
2, 1423, Note_on_c, 0, 65, 0
2, 1424, Note_on_c, 0, 67, 75
2, 1439, Note_on_c, 0, 67, 0
2, 1440, Note_on_c, 0, 65, 75
2, 1460, Note_on_c, 0, 65, 0
2, 1488, Note_on_c, 0, 70, 75
2, 1503, Note_on_c, 0, 70, 0
2, 1504, Note_on_c, 0, 72, 75
2, 1519, Note_on_c, 0, 72, 0
2, 1520, Note_on_c, 0, 70, 75
2, 1535, Note_on_c, 0, 70, 0
2, 1536, Note_on_c, 0, 67, 75
2, 1581, Note_on_c, 0, 67, 0
2, 1584, Note_on_c, 0, 70, 75
2, 1599, Note_on_c, 0, 70, 0
2, 1600, Note_on_c, 0, 72, 75
2, 1615, Note_on_c, 0, 72, 0
2, 1616, Note_on_c, 0, 70, 75
2, 1631, Note_on_c, 0, 70, 0
2, 1632, Note_on_c, 0, 65, 75
2, 1677, Note_on_c, 0, 65, 0
2, 1680, Note_on_c, 0, 77, 75
2, 1695, Note_on_c, 0, 77, 0
2, 1696, Note_on_c, 0, 74, 75
2, 1711, Note_on_c, 0, 74, 0
2, 1712, Note_on_c, 0, 70, 75
2, 1727, Note_on_c, 0, 70, 0
2, 1728, Note_on_c, 0, 65, 75
2, 1817, Note_on_c, 0, 65, 0
2, 1824, Note_on_c, 0, 63, 75
2, 1837, Note_on_c, 0, 63, 0
2, 1838, Note_on_c, 0, 65, 75
2, 1851, Note_on_c, 0, 65, 0
2, 1852, Note_on_c, 0, 63, 75
2, 1865, Note_on_c, 0, 63, 0
2, 1866, Note_on_c, 0, 65, 75
2, 1879, Note_on_c, 0, 65, 0
2, 1880, Note_on_c, 0, 63, 75
2, 1893, Note_on_c, 0, 63, 0
2, 1894, Note_on_c, 0, 62, 75
2, 1906, Note_on_c, 0, 62, 0
2, 1907, Note_on_c, 0, 63, 75
2, 1919, Note_on_c, 0, 63, 0
2, 1920, Note_on_c, 0, 62, 75
2, 2009, Note_on_c, 0, 62, 0
2, 2112, Note_on_c, 0, 65, 75
2, 2124, Note_on_c, 0, 65, 0
2, 2124, Note_on_c, 0, 67, 75
2, 2136, Note_on_c, 0, 67, 0
2, 2136, Note_on_c, 0, 68, 75
2, 2289, Note_on_c, 0, 68, 0
2, 2304, Note_on_c, 0, 67, 75
2, 2316, Note_on_c, 0, 67, 0
2, 2316, Note_on_c, 0, 69, 75
2, 2328, Note_on_c, 0, 69, 0
2, 2328, Note_on_c, 0, 70, 75
2, 2395, Note_on_c, 0, 70, 0
2, 2400, Note_on_c, 0, 69, 75
2, 2412, Note_on_c, 0, 69, 0
2, 2412, Note_on_c, 0, 70, 75
2, 2424, Note_on_c, 0, 70, 0
2, 2424, Note_on_c, 0, 72, 75
2, 2491, Note_on_c, 0, 72, 0
2, 2496, Note_on_c, 0, 70, 75
2, 2508, Note_on_c, 0, 70, 0
2, 2508, Note_on_c, 0, 72, 75
2, 2520, Note_on_c, 0, 72, 0
2, 2520, Note_on_c, 0, 74, 75
2, 2587, Note_on_c, 0, 74, 0
2, 2592, Note_on_c, 0, 72, 75
2, 2604, Note_on_c, 0, 72, 0
2, 2604, Note_on_c, 0, 74, 75
2, 2616, Note_on_c, 0, 74, 0
2, 2616, Note_on_c, 0, 75, 75
2, 2683, Note_on_c, 0, 75, 0
2, 2688, Note_on_c, 0, 74, 75
2, 2711, Note_on_c, 0, 74, 0
2, 2712, Note_on_c, 0, 77, 75
2, 2735, Note_on_c, 0, 77, 0
2, 2736, Note_on_c, 0, 75, 75
2, 2742, Note_on_c, 0, 75, 0
2, 2742, Note_on_c, 0, 77, 75
2, 2748, Note_on_c, 0, 77, 0
2, 2748, Note_on_c, 0, 75, 75
2, 2759, Note_on_c, 0, 75, 0
2, 2760, Note_on_c, 0, 74, 75
2, 2783, Note_on_c, 0, 74, 0
2, 2784, Note_on_c, 0, 82, 75
2, 2829, Note_on_c, 0, 82, 0
2, 2832, Note_on_c, 0, 74, 75
2, 2832, Note_on_c, 0, 70, 75
2, 2877, Note_on_c, 0, 74, 0
2, 2877, Note_on_c, 0, 70, 0
2, 2880, Note_on_c, 0, 75, 75
2, 2886, Note_on_c, 0, 75, 0
2, 2886, Note_on_c, 0, 74, 75
2, 2886, Note_on_c, 0, 70, 75
2, 2925, Note_on_c, 0, 74, 0
2, 2925, Note_on_c, 0, 70, 0
2, 2928, Note_on_c, 0, 72, 75
2, 2928, Note_on_c, 0, 69, 75
2, 2973, Note_on_c, 0, 72, 0
2, 2973, Note_on_c, 0, 69, 0
2, 3072, Note_on_c, 0, 65, 75
2, 3084, Note_on_c, 0, 65, 0
2, 3084, Note_on_c, 0, 67, 75
2, 3096, Note_on_c, 0, 67, 0
2, 3096, Note_on_c, 0, 68, 75
2, 3249, Note_on_c, 0, 68, 0
2, 3264, Note_on_c, 0, 68, 75
2, 3288, Note_on_c, 0, 68, 0
2, 3288, Note_on_c, 0, 67, 75
2, 3311, Note_on_c, 0, 67, 0
2, 3312, Note_on_c, 0, 67, 75
2, 3336, Note_on_c, 0, 67, 0
2, 3336, Note_on_c, 0, 70, 75
2, 3359, Note_on_c, 0, 70, 0
2, 3360, Note_on_c, 0, 70, 75
2, 3384, Note_on_c, 0, 70, 0
2, 3384, Note_on_c, 0, 69, 75
2, 3407, Note_on_c, 0, 69, 0
2, 3408, Note_on_c, 0, 69, 75
2, 3432, Note_on_c, 0, 69, 0
2, 3432, Note_on_c, 0, 72, 75
2, 3455, Note_on_c, 0, 72, 0
2, 3456, Note_on_c, 0, 72, 76
2, 3480, Note_on_c, 0, 72, 0
2, 3480, Note_on_c, 0, 70, 76
2, 3503, Note_on_c, 0, 70, 0
2, 3504, Note_on_c, 0, 70, 76
2, 3528, Note_on_c, 0, 70, 0
2, 3528, Note_on_c, 0, 74, 76
2, 3551, Note_on_c, 0, 74, 0
2, 3552, Note_on_c, 0, 74, 76
2, 3576, Note_on_c, 0, 74, 0
2, 3576, Note_on_c, 0, 72, 76
2, 3599, Note_on_c, 0, 72, 0
2, 3600, Note_on_c, 0, 72, 76
2, 3624, Note_on_c, 0, 72, 0
2, 3624, Note_on_c, 0, 75, 77
2, 3647, Note_on_c, 0, 75, 0
2, 3648, Note_on_c, 0, 75, 77
2, 3672, Note_on_c, 0, 75, 0
2, 3672, Note_on_c, 0, 74, 77
2, 3695, Note_on_c, 0, 74, 0
2, 3696, Note_on_c, 0, 74, 77
2, 3720, Note_on_c, 0, 74, 0
2, 3720, Note_on_c, 0, 77, 77
2, 3743, Note_on_c, 0, 77, 0
2, 3744, Note_on_c, 0, 77, 77
2, 3768, Note_on_c, 0, 77, 0
2, 3768, Note_on_c, 0, 75, 77
2, 3791, Note_on_c, 0, 75, 0
2, 3792, Note_on_c, 0, 75, 78
2, 3816, Note_on_c, 0, 75, 0
2, 3816, Note_on_c, 0, 79, 78
2, 3839, Note_on_c, 0, 79, 0
2, 3840, Note_on_c, 0, 79, 78
2, 3864, Note_on_c, 0, 79, 0
2, 3864, Note_on_c, 0, 77, 78
2, 3887, Note_on_c, 0, 77, 0
2, 3888, Note_on_c, 0, 77, 78
2, 3912, Note_on_c, 0, 77, 0
2, 3912, Note_on_c, 0, 82, 78
2, 3935, Note_on_c, 0, 82, 0
2, 3936, Note_on_c, 0, 82, 78
2, 4003, Note_on_c, 0, 82, 0
2, 4008, Note_on_c, 0, 74, 79
2, 4031, Note_on_c, 0, 74, 0
2, 4032, Note_on_c, 0, 74, 79
2, 4056, Note_on_c, 0, 74, 0
2, 4056, Note_on_c, 0, 72, 79
2, 4079, Note_on_c, 0, 72, 0
2, 4080, Note_on_c, 0, 72, 79
2, 4104, Note_on_c, 0, 72, 0
2, 4104, Note_on_c, 0, 79, 79
2, 4127, Note_on_c, 0, 79, 0
2, 4128, Note_on_c, 0, 79, 80
2, 4195, Note_on_c, 0, 79, 0
2, 4200, Note_on_c, 0, 70, 80
2, 4223, Note_on_c, 0, 70, 0
2, 4224, Note_on_c, 0, 70, 80
2, 4313, Note_on_c, 0, 70, 0
2, 4320, Note_on_c, 0, 69, 80
2, 4365, Note_on_c, 0, 69, 0
2, 4368, Note_on_c, 0, 77, 70
2, 4383, Note_on_c, 0, 77, 0
2, 4384, Note_on_c, 0, 79, 70
2, 4399, Note_on_c, 0, 79, 0
2, 4400, Note_on_c, 0, 77, 70
2, 4415, Note_on_c, 0, 77, 0
2, 4416, Note_on_c, 0, 65, 70
2, 4436, Note_on_c, 0, 65, 0
2, 4464, Note_on_c, 0, 65, 70
2, 4484, Note_on_c, 0, 65, 0
2, 4560, Note_on_c, 0, 77, 70
2, 4575, Note_on_c, 0, 77, 0
2, 4576, Note_on_c, 0, 79, 70
2, 4591, Note_on_c, 0, 79, 0
2, 4592, Note_on_c, 0, 77, 70
2, 4607, Note_on_c, 0, 77, 0
2, 4608, Note_on_c, 0, 67, 70
2, 4628, Note_on_c, 0, 67, 0
2, 4656, Note_on_c, 0, 67, 70
2, 4676, Note_on_c, 0, 67, 0
2, 4752, Note_on_c, 0, 77, 70
2, 4767, Note_on_c, 0, 77, 0
2, 4768, Note_on_c, 0, 79, 70
2, 4783, Note_on_c, 0, 79, 0
2, 4784, Note_on_c, 0, 77, 70
2, 4799, Note_on_c, 0, 77, 0
2, 4800, Note_on_c, 0, 69, 75
2, 4820, Note_on_c, 0, 69, 0
2, 4848, Note_on_c, 0, 69, 75
2, 4868, Note_on_c, 0, 69, 0
2, 4944, Note_on_c, 0, 77, 76
2, 4959, Note_on_c, 0, 77, 0
2, 4960, Note_on_c, 0, 79, 76
2, 4975, Note_on_c, 0, 79, 0
2, 4976, Note_on_c, 0, 77, 76
2, 4991, Note_on_c, 0, 77, 0
2, 4992, Note_on_c, 0, 70, 77
2, 5012, Note_on_c, 0, 70, 0
2, 5040, Note_on_c, 0, 70, 77
2, 5060, Note_on_c, 0, 70, 0
2, 5136, Note_on_c, 0, 77, 78
2, 5151, Note_on_c, 0, 77, 0
2, 5152, Note_on_c, 0, 79, 78
2, 5167, Note_on_c, 0, 79, 0
2, 5168, Note_on_c, 0, 77, 79
2, 5183, Note_on_c, 0, 77, 0
2, 5184, Note_on_c, 0, 71, 79
2, 5204, Note_on_c, 0, 71, 0
2, 5232, Note_on_c, 0, 80, 96
2, 5328, Note_on_c, 0, 80, 0
2, 5328, Note_on_c, 0, 79, 70
2, 5351, Note_on_c, 0, 79, 0
2, 5352, Note_on_c, 0, 77, 70
2, 5375, Note_on_c, 0, 77, 0
2, 5376, Note_on_c, 0, 77, 71
2, 5472, Note_on_c, 0, 77, 0
2, 5472, Note_on_c, 0, 76, 73
2, 5517, Note_on_c, 0, 76, 0
2, 5520, Note_on_c, 0, 77, 75
2, 5535, Note_on_c, 0, 77, 0
2, 5536, Note_on_c, 0, 79, 75
2, 5551, Note_on_c, 0, 79, 0
2, 5552, Note_on_c, 0, 77, 75
2, 5567, Note_on_c, 0, 77, 0
2, 5568, Note_on_c, 0, 71, 75
2, 5588, Note_on_c, 0, 71, 0
2, 5616, Note_on_c, 0, 80, 93
2, 5712, Note_on_c, 0, 80, 0
2, 5712, Note_on_c, 0, 79, 80
2, 5735, Note_on_c, 0, 79, 0
2, 5736, Note_on_c, 0, 77, 80
2, 5759, Note_on_c, 0, 77, 0
2, 5760, Note_on_c, 0, 77, 80
2, 5773, Note_on_c, 0, 77, 0
2, 5774, Note_on_c, 0, 79, 80
2, 5787, Note_on_c, 0, 79, 0
2, 5788, Note_on_c, 0, 77, 80
2, 5801, Note_on_c, 0, 77, 0
2, 5802, Note_on_c, 0, 79, 80
2, 5815, Note_on_c, 0, 79, 0
2, 5816, Note_on_c, 0, 77, 80
2, 5829, Note_on_c, 0, 77, 0
2, 5830, Note_on_c, 0, 76, 80
2, 5842, Note_on_c, 0, 76, 0
2, 5843, Note_on_c, 0, 77, 80
2, 5855, Note_on_c, 0, 77, 0
2, 5856, Note_on_c, 0, 76, 80
2, 5945, Note_on_c, 0, 76, 0
2, 5952, Note_on_c, 0, 77, 75
2, 5976, Note_on_c, 0, 77, 0
2, 5976, Note_on_c, 0, 76, 74
2, 5999, Note_on_c, 0, 76, 0
2, 6000, Note_on_c, 0, 76, 73
2, 6024, Note_on_c, 0, 76, 0
2, 6024, Note_on_c, 0, 74, 73
2, 6047, Note_on_c, 0, 74, 0
2, 6048, Note_on_c, 0, 74, 72
2, 6072, Note_on_c, 0, 74, 0
2, 6072, Note_on_c, 0, 72, 71
2, 6095, Note_on_c, 0, 72, 0
2, 6096, Note_on_c, 0, 72, 71
2, 6120, Note_on_c, 0, 72, 0
2, 6120, Note_on_c, 0, 73, 70
2, 6143, Note_on_c, 0, 73, 0
2, 6144, Note_on_c, 0, 73, 86
2, 6288, Note_on_c, 0, 73, 0
2, 6288, Note_on_c, 0, 74, 73
2, 6333, Note_on_c, 0, 74, 0
2, 6336, Note_on_c, 0, 77, 75
2, 6360, Note_on_c, 0, 77, 0
2, 6360, Note_on_c, 0, 76, 74
2, 6383, Note_on_c, 0, 76, 0
2, 6384, Note_on_c, 0, 76, 73
2, 6408, Note_on_c, 0, 76, 0
2, 6408, Note_on_c, 0, 74, 73
2, 6431, Note_on_c, 0, 74, 0
2, 6432, Note_on_c, 0, 74, 72
2, 6456, Note_on_c, 0, 74, 0
2, 6456, Note_on_c, 0, 72, 71
2, 6479, Note_on_c, 0, 72, 0
2, 6480, Note_on_c, 0, 72, 71
2, 6504, Note_on_c, 0, 72, 0
2, 6504, Note_on_c, 0, 73, 70
2, 6527, Note_on_c, 0, 73, 0
2, 6528, Note_on_c, 0, 73, 86
2, 6672, Note_on_c, 0, 73, 0
2, 6672, Note_on_c, 0, 74, 73
2, 6717, Note_on_c, 0, 74, 0
2, 6720, Note_on_c, 0, 77, 75
2, 6744, Note_on_c, 0, 77, 0
2, 6744, Note_on_c, 0, 76, 74
2, 6767, Note_on_c, 0, 76, 0
2, 6768, Note_on_c, 0, 76, 73
2, 6792, Note_on_c, 0, 76, 0
2, 6792, Note_on_c, 0, 74, 73
2, 6815, Note_on_c, 0, 74, 0
2, 6816, Note_on_c, 0, 74, 72
2, 6840, Note_on_c, 0, 74, 0
2, 6840, Note_on_c, 0, 72, 71
2, 6863, Note_on_c, 0, 72, 0
2, 6864, Note_on_c, 0, 72, 71
2, 6888, Note_on_c, 0, 72, 0
2, 6888, Note_on_c, 0, 71, 70
2, 6911, Note_on_c, 0, 71, 0
2, 6912, Note_on_c, 0, 71, 86
2, 7042, Note_on_c, 0, 71, 0
2, 7044, Note_on_c, 0, 81, 80
2, 7056, Note_on_c, 0, 81, 0
2, 7056, Note_on_c, 0, 71, 80
2, 7090, Note_on_c, 0, 71, 0
2, 7092, Note_on_c, 0, 81, 80
2, 7104, Note_on_c, 0, 81, 0
2, 7104, Note_on_c, 0, 71, 86
2, 7234, Note_on_c, 0, 71, 0
2, 7236, Note_on_c, 0, 81, 80
2, 7248, Note_on_c, 0, 81, 0
2, 7248, Note_on_c, 0, 71, 80
2, 7282, Note_on_c, 0, 71, 0
2, 7284, Note_on_c, 0, 81, 80
2, 7296, Note_on_c, 0, 81, 0
2, 7296, Note_on_c, 0, 70, 96
2, 7440, Note_on_c, 0, 70, 0
2, 7440, Note_on_c, 0, 74, 76
2, 7455, Note_on_c, 0, 74, 0
2, 7456, Note_on_c, 0, 72, 75
2, 7471, Note_on_c, 0, 72, 0
2, 7472, Note_on_c, 0, 70, 75
2, 7487, Note_on_c, 0, 70, 0
2, 7488, Note_on_c, 0, 69, 75
2, 7533, Note_on_c, 0, 69, 0
2, 7536, Note_on_c, 0, 77, 75
2, 7551, Note_on_c, 0, 77, 0
2, 7552, Note_on_c, 0, 79, 75
2, 7567, Note_on_c, 0, 79, 0
2, 7568, Note_on_c, 0, 77, 75
2, 7583, Note_on_c, 0, 77, 0
2, 7584, Note_on_c, 0, 74, 75
2, 7629, Note_on_c, 0, 74, 0
2, 7632, Note_on_c, 0, 82, 75
2, 7647, Note_on_c, 0, 82, 0
2, 7648, Note_on_c, 0, 84, 75
2, 7663, Note_on_c, 0, 84, 0
2, 7664, Note_on_c, 0, 82, 75
2, 7679, Note_on_c, 0, 82, 0
2, 7680, Note_on_c, 0, 72, 75
2, 7769, Note_on_c, 0, 72, 0
2, 7776, Note_on_c, 0, 81, 75
2, 7788, Note_on_c, 0, 81, 0
2, 7788, Note_on_c, 0, 79, 75
2, 7800, Note_on_c, 0, 79, 0
2, 7800, Note_on_c, 0, 81, 75
2, 7812, Note_on_c, 0, 81, 0
2, 7812, Note_on_c, 0, 79, 75
2, 7824, Note_on_c, 0, 79, 0
2, 7824, Note_on_c, 0, 81, 75
2, 7836, Note_on_c, 0, 81, 0
2, 7836, Note_on_c, 0, 79, 75
2, 7848, Note_on_c, 0, 79, 0
2, 7848, Note_on_c, 0, 77, 75
2, 7860, Note_on_c, 0, 77, 0
2, 7860, Note_on_c, 0, 79, 75
2, 7872, Note_on_c, 0, 79, 0
2, 7872, Note_on_c, 0, 77, 75
2, 7892, Note_on_c, 0, 77, 0
2, 7920, Note_on_c, 0, 77, 75
2, 7935, Note_on_c, 0, 77, 0
2, 7936, Note_on_c, 0, 79, 75
2, 7951, Note_on_c, 0, 79, 0
2, 7952, Note_on_c, 0, 77, 75
2, 7967, Note_on_c, 0, 77, 0
2, 7968, Note_on_c, 0, 74, 75
2, 7988, Note_on_c, 0, 74, 0
2, 8016, Note_on_c, 0, 82, 75
2, 8031, Note_on_c, 0, 82, 0
2, 8032, Note_on_c, 0, 84, 75
2, 8047, Note_on_c, 0, 84, 0
2, 8048, Note_on_c, 0, 82, 75
2, 8063, Note_on_c, 0, 82, 0
2, 8064, Note_on_c, 0, 72, 75
2, 8153, Note_on_c, 0, 72, 0
2, 8160, Note_on_c, 0, 81, 75
2, 8172, Note_on_c, 0, 81, 0
2, 8172, Note_on_c, 0, 79, 75
2, 8184, Note_on_c, 0, 79, 0
2, 8184, Note_on_c, 0, 81, 75
2, 8196, Note_on_c, 0, 81, 0
2, 8196, Note_on_c, 0, 79, 75
2, 8208, Note_on_c, 0, 79, 0
2, 8208, Note_on_c, 0, 81, 75
2, 8220, Note_on_c, 0, 81, 0
2, 8220, Note_on_c, 0, 79, 75
2, 8232, Note_on_c, 0, 79, 0
2, 8232, Note_on_c, 0, 77, 75
2, 8244, Note_on_c, 0, 77, 0
2, 8244, Note_on_c, 0, 79, 75
2, 8256, Note_on_c, 0, 79, 0
2, 8256, Note_on_c, 0, 77, 75
2, 8345, Note_on_c, 0, 77, 0
2, 8424, Note_on_c, 0, 77, 75
2, 8434, Note_on_c, 0, 77, 0
2, 8448, Note_on_c, 0, 65, 64
2, 8588, Note_on_c, 0, 65, 0
2, 8592, Note_on_c, 0, 66, 68
2, 8637, Note_on_c, 0, 66, 0
2, 8640, Note_on_c, 0, 67, 70
2, 8685, Note_on_c, 0, 67, 0
2, 8688, Note_on_c, 0, 69, 72
2, 8694, Note_on_c, 0, 69, 0
2, 8694, Note_on_c, 0, 70, 72
2, 8733, Note_on_c, 0, 70, 0
2, 8736, Note_on_c, 0, 73, 73
2, 8742, Note_on_c, 0, 73, 0
2, 8742, Note_on_c, 0, 74, 73
2, 8781, Note_on_c, 0, 74, 0
2, 8784, Note_on_c, 0, 78, 75
2, 8790, Note_on_c, 0, 78, 0
2, 8790, Note_on_c, 0, 79, 75
2, 8829, Note_on_c, 0, 79, 0
2, 8832, Note_on_c, 0, 81, 76
2, 8838, Note_on_c, 0, 81, 0
2, 8838, Note_on_c, 0, 82, 76
2, 8877, Note_on_c, 0, 82, 0
2, 8880, Note_on_c, 0, 85, 78
2, 8886, Note_on_c, 0, 85, 0
2, 8886, Note_on_c, 0, 86, 78
2, 8925, Note_on_c, 0, 86, 0
2, 8928, Note_on_c, 0, 84, 80
2, 8943, Note_on_c, 0, 84, 0
2, 8944, Note_on_c, 0, 82, 80
2, 8959, Note_on_c, 0, 82, 0
2, 8960, Note_on_c, 0, 81, 80
2, 8975, Note_on_c, 0, 81, 0
2, 8976, Note_on_c, 0, 82, 80
2, 8991, Note_on_c, 0, 82, 0
2, 8992, Note_on_c, 0, 81, 80
2, 9007, Note_on_c, 0, 81, 0
2, 9008, Note_on_c, 0, 79, 80
2, 9023, Note_on_c, 0, 79, 0
2, 9024, Note_on_c, 0, 72, 80
2, 9113, Note_on_c, 0, 72, 0
2, 9120, Note_on_c, 0, 81, 80
2, 9132, Note_on_c, 0, 81, 0
2, 9132, Note_on_c, 0, 79, 80
2, 9144, Note_on_c, 0, 79, 0
2, 9144, Note_on_c, 0, 81, 80
2, 9156, Note_on_c, 0, 81, 0
2, 9156, Note_on_c, 0, 79, 80
2, 9168, Note_on_c, 0, 79, 0
2, 9168, Note_on_c, 0, 81, 80
2, 9180, Note_on_c, 0, 81, 0
2, 9180, Note_on_c, 0, 79, 80
2, 9192, Note_on_c, 0, 79, 0
2, 9192, Note_on_c, 0, 77, 80
2, 9204, Note_on_c, 0, 77, 0
2, 9204, Note_on_c, 0, 79, 80
2, 9216, Note_on_c, 0, 79, 0
2, 9216, Note_on_c, 0, 77, 80
2, 9305, Note_on_c, 0, 77, 0
2, 9312, Note_on_c, 0, 84, 75
2, 9335, Note_on_c, 0, 84, 0
2, 9336, Note_on_c, 0, 72, 75
2, 9359, Note_on_c, 0, 72, 0
2, 9360, Note_on_c, 0, 84, 75
2, 9383, Note_on_c, 0, 84, 0
2, 9384, Note_on_c, 0, 72, 75
2, 9407, Note_on_c, 0, 72, 0
2, 9408, Note_on_c, 0, 82, 75
2, 9431, Note_on_c, 0, 82, 0
2, 9432, Note_on_c, 0, 72, 75
2, 9455, Note_on_c, 0, 72, 0
2, 9456, Note_on_c, 0, 82, 75
2, 9479, Note_on_c, 0, 82, 0
2, 9480, Note_on_c, 0, 72, 75
2, 9503, Note_on_c, 0, 72, 0
2, 9504, Note_on_c, 0, 82, 75
2, 9527, Note_on_c, 0, 82, 0
2, 9528, Note_on_c, 0, 72, 75
2, 9551, Note_on_c, 0, 72, 0
2, 9552, Note_on_c, 0, 82, 75
2, 9575, Note_on_c, 0, 82, 0
2, 9576, Note_on_c, 0, 72, 75
2, 9599, Note_on_c, 0, 72, 0
2, 9600, Note_on_c, 0, 84, 75
2, 9600, Note_on_c, 0, 81, 75
2, 9689, Note_on_c, 0, 84, 0
2, 9689, Note_on_c, 0, 81, 0
2, 9696, Note_on_c, 0, 84, 64
2, 9719, Note_on_c, 0, 84, 0
2, 9720, Note_on_c, 0, 72, 64
2, 9743, Note_on_c, 0, 72, 0
2, 9744, Note_on_c, 0, 84, 64
2, 9767, Note_on_c, 0, 84, 0
2, 9768, Note_on_c, 0, 72, 64
2, 9791, Note_on_c, 0, 72, 0
2, 9792, Note_on_c, 0, 82, 64
2, 9815, Note_on_c, 0, 82, 0
2, 9816, Note_on_c, 0, 72, 64
2, 9839, Note_on_c, 0, 72, 0
2, 9840, Note_on_c, 0, 82, 64
2, 9863, Note_on_c, 0, 82, 0
2, 9864, Note_on_c, 0, 72, 64
2, 9887, Note_on_c, 0, 72, 0
2, 9888, Note_on_c, 0, 82, 64
2, 9911, Note_on_c, 0, 82, 0
2, 9912, Note_on_c, 0, 72, 64
2, 9935, Note_on_c, 0, 72, 0
2, 9936, Note_on_c, 0, 82, 64
2, 9959, Note_on_c, 0, 82, 0
2, 9960, Note_on_c, 0, 72, 64
2, 9983, Note_on_c, 0, 72, 0
2, 9984, Note_on_c, 0, 84, 64
2, 9984, Note_on_c, 0, 81, 64
2, 10073, Note_on_c, 0, 84, 0
2, 10073, Note_on_c, 0, 81, 0
2, 10080, Note_on_c, 0, 84, 75
2, 10103, Note_on_c, 0, 84, 0
2, 10104, Note_on_c, 0, 72, 75
2, 10127, Note_on_c, 0, 72, 0
2, 10128, Note_on_c, 0, 84, 75
2, 10151, Note_on_c, 0, 84, 0
2, 10152, Note_on_c, 0, 72, 75
2, 10175, Note_on_c, 0, 72, 0
2, 10176, Note_on_c, 0, 82, 75
2, 10199, Note_on_c, 0, 82, 0
2, 10200, Note_on_c, 0, 72, 75
2, 10223, Note_on_c, 0, 72, 0
2, 10224, Note_on_c, 0, 82, 75
2, 10247, Note_on_c, 0, 82, 0
2, 10248, Note_on_c, 0, 72, 75
2, 10271, Note_on_c, 0, 72, 0
2, 10272, Note_on_c, 0, 82, 75
2, 10295, Note_on_c, 0, 82, 0
2, 10296, Note_on_c, 0, 72, 75
2, 10319, Note_on_c, 0, 72, 0
2, 10320, Note_on_c, 0, 82, 75
2, 10343, Note_on_c, 0, 82, 0
2, 10344, Note_on_c, 0, 72, 75
2, 10367, Note_on_c, 0, 72, 0
2, 10368, Note_on_c, 0, 77, 75
2, 10413, Note_on_c, 0, 77, 0
2, 10416, Note_on_c, 0, 77, 75
2, 10431, Note_on_c, 0, 77, 0
2, 10432, Note_on_c, 0, 79, 75
2, 10447, Note_on_c, 0, 79, 0
2, 10448, Note_on_c, 0, 77, 75
2, 10463, Note_on_c, 0, 77, 0
2, 10464, Note_on_c, 0, 74, 75
2, 10509, Note_on_c, 0, 74, 0
2, 10512, Note_on_c, 0, 82, 75
2, 10527, Note_on_c, 0, 82, 0
2, 10528, Note_on_c, 0, 84, 75
2, 10543, Note_on_c, 0, 84, 0
2, 10544, Note_on_c, 0, 82, 75
2, 10559, Note_on_c, 0, 82, 0
2, 10560, Note_on_c, 0, 72, 75
2, 10649, Note_on_c, 0, 72, 0
2, 10656, Note_on_c, 0, 81, 75
2, 10668, Note_on_c, 0, 81, 0
2, 10668, Note_on_c, 0, 79, 75
2, 10680, Note_on_c, 0, 79, 0
2, 10680, Note_on_c, 0, 81, 75
2, 10692, Note_on_c, 0, 81, 0
2, 10692, Note_on_c, 0, 79, 75
2, 10704, Note_on_c, 0, 79, 0
2, 10704, Note_on_c, 0, 81, 75
2, 10716, Note_on_c, 0, 81, 0
2, 10716, Note_on_c, 0, 79, 75
2, 10728, Note_on_c, 0, 79, 0
2, 10728, Note_on_c, 0, 77, 75
2, 10740, Note_on_c, 0, 77, 0
2, 10740, Note_on_c, 0, 79, 75
2, 10752, Note_on_c, 0, 79, 0
2, 10752, Note_on_c, 0, 77, 75
2, 10841, Note_on_c, 0, 77, 0
2, 10848, Note_on_c, 0, 72, 70
2, 10871, Note_on_c, 0, 72, 0
2, 10872, Note_on_c, 0, 74, 69
2, 10895, Note_on_c, 0, 74, 0
2, 10896, Note_on_c, 0, 76, 69
2, 10919, Note_on_c, 0, 76, 0
2, 10920, Note_on_c, 0, 77, 68
2, 10943, Note_on_c, 0, 77, 0
2, 10944, Note_on_c, 0, 74, 68
2, 10967, Note_on_c, 0, 74, 0
2, 10968, Note_on_c, 0, 76, 68
2, 10991, Note_on_c, 0, 76, 0
2, 10992, Note_on_c, 0, 77, 67
2, 11015, Note_on_c, 0, 77, 0
2, 11016, Note_on_c, 0, 79, 67
2, 11039, Note_on_c, 0, 79, 0
2, 11040, Note_on_c, 0, 77, 67
2, 11063, Note_on_c, 0, 77, 0
2, 11064, Note_on_c, 0, 76, 66
2, 11087, Note_on_c, 0, 76, 0
2, 11088, Note_on_c, 0, 74, 66
2, 11111, Note_on_c, 0, 74, 0
2, 11112, Note_on_c, 0, 76, 65
2, 11135, Note_on_c, 0, 76, 0
2, 11136, Note_on_c, 0, 77, 65
2, 11225, Note_on_c, 0, 77, 0
2, 11232, Note_on_c, 0, 60, 64
2, 11247, Note_on_c, 0, 60, 0
2, 11248, Note_on_c, 0, 62, 75
2, 11263, Note_on_c, 0, 62, 0
2, 11264, Note_on_c, 0, 60, 74
2, 11279, Note_on_c, 0, 60, 0
2, 11280, Note_on_c, 0, 65, 74
2, 11325, Note_on_c, 0, 65, 0
2, 11328, Note_on_c, 0, 62, 73
2, 11343, Note_on_c, 0, 62, 0
2, 11344, Note_on_c, 0, 64, 73
2, 11359, Note_on_c, 0, 64, 0
2, 11360, Note_on_c, 0, 62, 73
2, 11375, Note_on_c, 0, 62, 0
2, 11376, Note_on_c, 0, 67, 73
2, 11421, Note_on_c, 0, 67, 0
2, 11424, Note_on_c, 0, 65, 72
2, 11447, Note_on_c, 0, 65, 0
2, 11448, Note_on_c, 0, 64, 72
2, 11471, Note_on_c, 0, 64, 0
2, 11472, Note_on_c, 0, 62, 71
2, 11495, Note_on_c, 0, 62, 0
2, 11496, Note_on_c, 0, 64, 71
2, 11519, Note_on_c, 0, 64, 0
2, 11520, Note_on_c, 0, 65, 87
2, 11568, Note_on_c, 0, 65, 0
2, 11568, Note_on_c, 0, 65, 70
2, 11583, Note_on_c, 0, 65, 0
2, 11584, Note_on_c, 0, 67, 71
2, 11599, Note_on_c, 0, 67, 0
2, 11600, Note_on_c, 0, 69, 72
2, 11615, Note_on_c, 0, 69, 0
2, 11616, Note_on_c, 0, 65, 91
2, 11664, Note_on_c, 0, 65, 0
2, 11664, Note_on_c, 0, 65, 75
2, 11679, Note_on_c, 0, 65, 0
2, 11680, Note_on_c, 0, 67, 75
2, 11695, Note_on_c, 0, 67, 0
2, 11696, Note_on_c, 0, 69, 75
2, 11711, Note_on_c, 0, 69, 0
2, 11712, Note_on_c, 0, 65, 91
2, 11808, Note_on_c, 0, 65, 0
2, 11856, Note_on_c, 0, 70, 80
2, 11856, Note_on_c, 0, 62, 80
2, 11901, Note_on_c, 0, 70, 0
2, 11901, Note_on_c, 0, 62, 0
2, 11904, Note_on_c, 0, 70, 80
2, 11904, Note_on_c, 0, 62, 80
2, 11952, Note_on_c, 0, 62, 0
2, 11952, Note_on_c, 0, 74, 80
2, 11997, Note_on_c, 0, 74, 0
2, 11997, Note_on_c, 0, 70, 0
2, 12000, Note_on_c, 0, 74, 80
2, 12000, Note_on_c, 0, 70, 80
2, 12048, Note_on_c, 0, 70, 0
2, 12048, Note_on_c, 0, 77, 80
2, 12093, Note_on_c, 0, 77, 0
2, 12093, Note_on_c, 0, 74, 0
2, 12096, Note_on_c, 0, 77, 80
2, 12229, Note_on_c, 0, 77, 0
2, 12240, Note_on_c, 0, 75, 80
2, 12255, Note_on_c, 0, 75, 0
2, 12256, Note_on_c, 0, 77, 80
2, 12271, Note_on_c, 0, 77, 0
2, 12272, Note_on_c, 0, 79, 80
2, 12287, Note_on_c, 0, 79, 0
2, 12288, Note_on_c, 0, 77, 80
2, 12421, Note_on_c, 0, 77, 0
2, 12432, Note_on_c, 0, 75, 80
2, 12447, Note_on_c, 0, 75, 0
2, 12448, Note_on_c, 0, 77, 80
2, 12463, Note_on_c, 0, 77, 0
2, 12464, Note_on_c, 0, 79, 80
2, 12479, Note_on_c, 0, 79, 0
2, 12480, Note_on_c, 0, 77, 80
2, 12525, Note_on_c, 0, 77, 0
2, 12528, Note_on_c, 0, 82, 80
2, 12573, Note_on_c, 0, 82, 0
2, 12624, Note_on_c, 0, 70, 75
2, 12639, Note_on_c, 0, 70, 0
2, 12640, Note_on_c, 0, 72, 75
2, 12655, Note_on_c, 0, 72, 0
2, 12656, Note_on_c, 0, 70, 75
2, 12671, Note_on_c, 0, 70, 0
2, 12672, Note_on_c, 0, 67, 75
2, 12717, Note_on_c, 0, 67, 0
2, 12720, Note_on_c, 0, 70, 75
2, 12735, Note_on_c, 0, 70, 0
2, 12736, Note_on_c, 0, 72, 75
2, 12751, Note_on_c, 0, 72, 0
2, 12752, Note_on_c, 0, 70, 75
2, 12767, Note_on_c, 0, 70, 0
2, 12768, Note_on_c, 0, 65, 75
2, 12813, Note_on_c, 0, 65, 0
2, 12816, Note_on_c, 0, 77, 75
2, 12831, Note_on_c, 0, 77, 0
2, 12832, Note_on_c, 0, 74, 75
2, 12847, Note_on_c, 0, 74, 0
2, 12848, Note_on_c, 0, 70, 75
2, 12863, Note_on_c, 0, 70, 0
2, 12864, Note_on_c, 0, 65, 75
2, 12953, Note_on_c, 0, 65, 0
2, 12960, Note_on_c, 0, 63, 75
2, 12973, Note_on_c, 0, 63, 0
2, 12974, Note_on_c, 0, 65, 75
2, 12987, Note_on_c, 0, 65, 0
2, 12988, Note_on_c, 0, 63, 75
2, 13001, Note_on_c, 0, 63, 0
2, 13002, Note_on_c, 0, 65, 75
2, 13015, Note_on_c, 0, 65, 0
2, 13016, Note_on_c, 0, 63, 75
2, 13029, Note_on_c, 0, 63, 0
2, 13030, Note_on_c, 0, 62, 75
2, 13042, Note_on_c, 0, 62, 0
2, 13043, Note_on_c, 0, 63, 75
2, 13055, Note_on_c, 0, 63, 0
2, 13056, Note_on_c, 0, 62, 75
2, 13101, Note_on_c, 0, 62, 0
2, 13104, Note_on_c, 0, 63, 75
2, 13119, Note_on_c, 0, 63, 0
2, 13120, Note_on_c, 0, 65, 75
2, 13135, Note_on_c, 0, 65, 0
2, 13136, Note_on_c, 0, 67, 75
2, 13151, Note_on_c, 0, 67, 0
2, 13152, Note_on_c, 0, 65, 75
2, 13172, Note_on_c, 0, 65, 0
2, 13200, Note_on_c, 0, 70, 75
2, 13215, Note_on_c, 0, 70, 0
2, 13216, Note_on_c, 0, 72, 75
2, 13231, Note_on_c, 0, 72, 0
2, 13232, Note_on_c, 0, 70, 75
2, 13247, Note_on_c, 0, 70, 0
2, 13248, Note_on_c, 0, 67, 75
2, 13293, Note_on_c, 0, 67, 0
2, 13296, Note_on_c, 0, 70, 75
2, 13311, Note_on_c, 0, 70, 0
2, 13312, Note_on_c, 0, 72, 75
2, 13327, Note_on_c, 0, 72, 0
2, 13328, Note_on_c, 0, 70, 75
2, 13343, Note_on_c, 0, 70, 0
2, 13344, Note_on_c, 0, 65, 75
2, 13389, Note_on_c, 0, 65, 0
2, 13392, Note_on_c, 0, 77, 75
2, 13407, Note_on_c, 0, 77, 0
2, 13408, Note_on_c, 0, 74, 75
2, 13423, Note_on_c, 0, 74, 0
2, 13424, Note_on_c, 0, 70, 75
2, 13439, Note_on_c, 0, 70, 0
2, 13440, Note_on_c, 0, 65, 75
2, 13529, Note_on_c, 0, 65, 0
2, 13536, Note_on_c, 0, 63, 75
2, 13549, Note_on_c, 0, 63, 0
2, 13550, Note_on_c, 0, 65, 75
2, 13563, Note_on_c, 0, 65, 0
2, 13564, Note_on_c, 0, 63, 75
2, 13577, Note_on_c, 0, 63, 0
2, 13578, Note_on_c, 0, 65, 75
2, 13591, Note_on_c, 0, 65, 0
2, 13592, Note_on_c, 0, 63, 75
2, 13605, Note_on_c, 0, 63, 0
2, 13606, Note_on_c, 0, 62, 75
2, 13618, Note_on_c, 0, 62, 0
2, 13619, Note_on_c, 0, 63, 75
2, 13631, Note_on_c, 0, 63, 0
2, 13632, Note_on_c, 0, 62, 75
2, 13721, Note_on_c, 0, 62, 0
2, 13824, Note_on_c, 0, 65, 75
2, 13836, Note_on_c, 0, 65, 0
2, 13836, Note_on_c, 0, 67, 75
2, 13848, Note_on_c, 0, 67, 0
2, 13848, Note_on_c, 0, 68, 75
2, 14001, Note_on_c, 0, 68, 0
2, 14016, Note_on_c, 0, 67, 75
2, 14028, Note_on_c, 0, 67, 0
2, 14028, Note_on_c, 0, 69, 75
2, 14040, Note_on_c, 0, 69, 0
2, 14040, Note_on_c, 0, 70, 75
2, 14107, Note_on_c, 0, 70, 0
2, 14112, Note_on_c, 0, 69, 75
2, 14124, Note_on_c, 0, 69, 0
2, 14124, Note_on_c, 0, 70, 75
2, 14136, Note_on_c, 0, 70, 0
2, 14136, Note_on_c, 0, 72, 75
2, 14203, Note_on_c, 0, 72, 0
2, 14208, Note_on_c, 0, 70, 75
2, 14220, Note_on_c, 0, 70, 0
2, 14220, Note_on_c, 0, 72, 75
2, 14232, Note_on_c, 0, 72, 0
2, 14232, Note_on_c, 0, 74, 75
2, 14299, Note_on_c, 0, 74, 0
2, 14304, Note_on_c, 0, 72, 75
2, 14316, Note_on_c, 0, 72, 0
2, 14316, Note_on_c, 0, 74, 75
2, 14328, Note_on_c, 0, 74, 0
2, 14328, Note_on_c, 0, 75, 75
2, 14395, Note_on_c, 0, 75, 0
2, 14400, Note_on_c, 0, 74, 75
2, 14423, Note_on_c, 0, 74, 0
2, 14424, Note_on_c, 0, 77, 75
2, 14447, Note_on_c, 0, 77, 0
2, 14448, Note_on_c, 0, 75, 75
2, 14454, Note_on_c, 0, 75, 0
2, 14454, Note_on_c, 0, 77, 75
2, 14460, Note_on_c, 0, 77, 0
2, 14460, Note_on_c, 0, 75, 75
2, 14471, Note_on_c, 0, 75, 0
2, 14472, Note_on_c, 0, 74, 75
2, 14495, Note_on_c, 0, 74, 0
2, 14496, Note_on_c, 0, 82, 75
2, 14541, Note_on_c, 0, 82, 0
2, 14544, Note_on_c, 0, 74, 75
2, 14544, Note_on_c, 0, 70, 75
2, 14589, Note_on_c, 0, 74, 0
2, 14589, Note_on_c, 0, 70, 0
2, 14592, Note_on_c, 0, 75, 75
2, 14598, Note_on_c, 0, 75, 0
2, 14598, Note_on_c, 0, 74, 75
2, 14598, Note_on_c, 0, 70, 75
2, 14637, Note_on_c, 0, 74, 0
2, 14637, Note_on_c, 0, 70, 0
2, 14640, Note_on_c, 0, 72, 75
2, 14640, Note_on_c, 0, 69, 75
2, 14685, Note_on_c, 0, 72, 0
2, 14685, Note_on_c, 0, 69, 0
2, 14784, Note_on_c, 0, 65, 75
2, 14796, Note_on_c, 0, 65, 0
2, 14796, Note_on_c, 0, 67, 75
2, 14808, Note_on_c, 0, 67, 0
2, 14808, Note_on_c, 0, 68, 75
2, 14961, Note_on_c, 0, 68, 0
2, 14976, Note_on_c, 0, 68, 75
2, 15000, Note_on_c, 0, 68, 0
2, 15000, Note_on_c, 0, 67, 75
2, 15023, Note_on_c, 0, 67, 0
2, 15024, Note_on_c, 0, 67, 75
2, 15048, Note_on_c, 0, 67, 0
2, 15048, Note_on_c, 0, 70, 75
2, 15071, Note_on_c, 0, 70, 0
2, 15072, Note_on_c, 0, 70, 75
2, 15096, Note_on_c, 0, 70, 0
2, 15096, Note_on_c, 0, 69, 75
2, 15119, Note_on_c, 0, 69, 0
2, 15120, Note_on_c, 0, 69, 75
2, 15144, Note_on_c, 0, 69, 0
2, 15144, Note_on_c, 0, 72, 75
2, 15167, Note_on_c, 0, 72, 0
2, 15168, Note_on_c, 0, 72, 76
2, 15192, Note_on_c, 0, 72, 0
2, 15192, Note_on_c, 0, 70, 76
2, 15215, Note_on_c, 0, 70, 0
2, 15216, Note_on_c, 0, 70, 76
2, 15240, Note_on_c, 0, 70, 0
2, 15240, Note_on_c, 0, 74, 76
2, 15263, Note_on_c, 0, 74, 0
2, 15264, Note_on_c, 0, 74, 76
2, 15288, Note_on_c, 0, 74, 0
2, 15288, Note_on_c, 0, 72, 76
2, 15311, Note_on_c, 0, 72, 0
2, 15312, Note_on_c, 0, 72, 76
2, 15336, Note_on_c, 0, 72, 0
2, 15336, Note_on_c, 0, 75, 77
2, 15359, Note_on_c, 0, 75, 0
2, 15360, Note_on_c, 0, 75, 77
2, 15384, Note_on_c, 0, 75, 0
2, 15384, Note_on_c, 0, 74, 77
2, 15407, Note_on_c, 0, 74, 0
2, 15408, Note_on_c, 0, 74, 77
2, 15432, Note_on_c, 0, 74, 0
2, 15432, Note_on_c, 0, 77, 77
2, 15455, Note_on_c, 0, 77, 0
2, 15456, Note_on_c, 0, 77, 77
2, 15480, Note_on_c, 0, 77, 0
2, 15480, Note_on_c, 0, 75, 77
2, 15503, Note_on_c, 0, 75, 0
2, 15504, Note_on_c, 0, 75, 78
2, 15528, Note_on_c, 0, 75, 0
2, 15528, Note_on_c, 0, 79, 78
2, 15551, Note_on_c, 0, 79, 0
2, 15552, Note_on_c, 0, 79, 78
2, 15576, Note_on_c, 0, 79, 0
2, 15576, Note_on_c, 0, 77, 78
2, 15599, Note_on_c, 0, 77, 0
2, 15600, Note_on_c, 0, 77, 78
2, 15624, Note_on_c, 0, 77, 0
2, 15624, Note_on_c, 0, 82, 78
2, 15647, Note_on_c, 0, 82, 0
2, 15648, Note_on_c, 0, 82, 78
2, 15715, Note_on_c, 0, 82, 0
2, 15720, Note_on_c, 0, 74, 79
2, 15743, Note_on_c, 0, 74, 0
2, 15744, Note_on_c, 0, 74, 79
2, 15768, Note_on_c, 0, 74, 0
2, 15768, Note_on_c, 0, 72, 79
2, 15791, Note_on_c, 0, 72, 0
2, 15792, Note_on_c, 0, 72, 79
2, 15816, Note_on_c, 0, 72, 0
2, 15816, Note_on_c, 0, 79, 79
2, 15839, Note_on_c, 0, 79, 0
2, 15840, Note_on_c, 0, 79, 80
2, 15907, Note_on_c, 0, 79, 0
2, 15912, Note_on_c, 0, 70, 80
2, 15935, Note_on_c, 0, 70, 0
2, 15936, Note_on_c, 0, 70, 80
2, 16025, Note_on_c, 0, 70, 0
2, 16032, Note_on_c, 0, 69, 80
2, 16077, Note_on_c, 0, 69, 0
2, 16080, Note_on_c, 0, 77, 70
2, 16095, Note_on_c, 0, 77, 0
2, 16096, Note_on_c, 0, 79, 70
2, 16111, Note_on_c, 0, 79, 0
2, 16112, Note_on_c, 0, 77, 70
2, 16127, Note_on_c, 0, 77, 0
2, 16128, Note_on_c, 0, 65, 70
2, 16148, Note_on_c, 0, 65, 0
2, 16176, Note_on_c, 0, 65, 70
2, 16196, Note_on_c, 0, 65, 0
2, 16272, Note_on_c, 0, 77, 70
2, 16287, Note_on_c, 0, 77, 0
2, 16288, Note_on_c, 0, 79, 70
2, 16303, Note_on_c, 0, 79, 0
2, 16304, Note_on_c, 0, 77, 70
2, 16319, Note_on_c, 0, 77, 0
2, 16320, Note_on_c, 0, 67, 70
2, 16340, Note_on_c, 0, 67, 0
2, 16368, Note_on_c, 0, 67, 70
2, 16388, Note_on_c, 0, 67, 0
2, 16464, Note_on_c, 0, 77, 70
2, 16479, Note_on_c, 0, 77, 0
2, 16480, Note_on_c, 0, 79, 70
2, 16495, Note_on_c, 0, 79, 0
2, 16496, Note_on_c, 0, 77, 70
2, 16511, Note_on_c, 0, 77, 0
2, 16512, Note_on_c, 0, 69, 75
2, 16532, Note_on_c, 0, 69, 0
2, 16560, Note_on_c, 0, 69, 75
2, 16580, Note_on_c, 0, 69, 0
2, 16656, Note_on_c, 0, 77, 76
2, 16671, Note_on_c, 0, 77, 0
2, 16672, Note_on_c, 0, 79, 76
2, 16687, Note_on_c, 0, 79, 0
2, 16688, Note_on_c, 0, 77, 76
2, 16703, Note_on_c, 0, 77, 0
2, 16704, Note_on_c, 0, 70, 77
2, 16724, Note_on_c, 0, 70, 0
2, 16752, Note_on_c, 0, 70, 77
2, 16772, Note_on_c, 0, 70, 0
2, 16848, Note_on_c, 0, 77, 78
2, 16863, Note_on_c, 0, 77, 0
2, 16864, Note_on_c, 0, 79, 78
2, 16879, Note_on_c, 0, 79, 0
2, 16880, Note_on_c, 0, 77, 79
2, 16895, Note_on_c, 0, 77, 0
2, 16896, Note_on_c, 0, 71, 79
2, 16916, Note_on_c, 0, 71, 0
2, 16944, Note_on_c, 0, 80, 96
2, 17040, Note_on_c, 0, 80, 0
2, 17040, Note_on_c, 0, 79, 70
2, 17063, Note_on_c, 0, 79, 0
2, 17064, Note_on_c, 0, 77, 70
2, 17087, Note_on_c, 0, 77, 0
2, 17088, Note_on_c, 0, 77, 71
2, 17184, Note_on_c, 0, 77, 0
2, 17184, Note_on_c, 0, 76, 73
2, 17229, Note_on_c, 0, 76, 0
2, 17232, Note_on_c, 0, 77, 75
2, 17247, Note_on_c, 0, 77, 0
2, 17248, Note_on_c, 0, 79, 75
2, 17263, Note_on_c, 0, 79, 0
2, 17264, Note_on_c, 0, 77, 75
2, 17279, Note_on_c, 0, 77, 0
2, 17280, Note_on_c, 0, 71, 75
2, 17300, Note_on_c, 0, 71, 0
2, 17328, Note_on_c, 0, 80, 93
2, 17424, Note_on_c, 0, 80, 0
2, 17424, Note_on_c, 0, 79, 80
2, 17447, Note_on_c, 0, 79, 0
2, 17448, Note_on_c, 0, 77, 80
2, 17471, Note_on_c, 0, 77, 0
2, 17472, Note_on_c, 0, 77, 80
2, 17485, Note_on_c, 0, 77, 0
2, 17486, Note_on_c, 0, 79, 80
2, 17499, Note_on_c, 0, 79, 0
2, 17500, Note_on_c, 0, 77, 80
2, 17513, Note_on_c, 0, 77, 0
2, 17514, Note_on_c, 0, 79, 80
2, 17527, Note_on_c, 0, 79, 0
2, 17528, Note_on_c, 0, 77, 80
2, 17541, Note_on_c, 0, 77, 0
2, 17542, Note_on_c, 0, 76, 80
2, 17554, Note_on_c, 0, 76, 0
2, 17555, Note_on_c, 0, 77, 80
2, 17567, Note_on_c, 0, 77, 0
2, 17568, Note_on_c, 0, 76, 80
2, 17657, Note_on_c, 0, 76, 0
2, 17664, Note_on_c, 0, 77, 75
2, 17688, Note_on_c, 0, 77, 0
2, 17688, Note_on_c, 0, 76, 74
2, 17711, Note_on_c, 0, 76, 0
2, 17712, Note_on_c, 0, 76, 73
2, 17736, Note_on_c, 0, 76, 0
2, 17736, Note_on_c, 0, 74, 73
2, 17759, Note_on_c, 0, 74, 0
2, 17760, Note_on_c, 0, 74, 72
2, 17784, Note_on_c, 0, 74, 0
2, 17784, Note_on_c, 0, 72, 71
2, 17807, Note_on_c, 0, 72, 0
2, 17808, Note_on_c, 0, 72, 71
2, 17832, Note_on_c, 0, 72, 0
2, 17832, Note_on_c, 0, 73, 70
2, 17855, Note_on_c, 0, 73, 0
2, 17856, Note_on_c, 0, 73, 86
2, 18000, Note_on_c, 0, 73, 0
2, 18000, Note_on_c, 0, 74, 73
2, 18045, Note_on_c, 0, 74, 0
2, 18048, Note_on_c, 0, 77, 75
2, 18072, Note_on_c, 0, 77, 0
2, 18072, Note_on_c, 0, 76, 74
2, 18095, Note_on_c, 0, 76, 0
2, 18096, Note_on_c, 0, 76, 73
2, 18120, Note_on_c, 0, 76, 0
2, 18120, Note_on_c, 0, 74, 73
2, 18143, Note_on_c, 0, 74, 0
2, 18144, Note_on_c, 0, 74, 72
2, 18168, Note_on_c, 0, 74, 0
2, 18168, Note_on_c, 0, 72, 71
2, 18191, Note_on_c, 0, 72, 0
2, 18192, Note_on_c, 0, 72, 71
2, 18216, Note_on_c, 0, 72, 0
2, 18216, Note_on_c, 0, 73, 70
2, 18239, Note_on_c, 0, 73, 0
2, 18240, Note_on_c, 0, 73, 86
2, 18384, Note_on_c, 0, 73, 0
2, 18384, Note_on_c, 0, 74, 73
2, 18429, Note_on_c, 0, 74, 0
2, 18432, Note_on_c, 0, 77, 75
2, 18456, Note_on_c, 0, 77, 0
2, 18456, Note_on_c, 0, 76, 74
2, 18479, Note_on_c, 0, 76, 0
2, 18480, Note_on_c, 0, 76, 73
2, 18504, Note_on_c, 0, 76, 0
2, 18504, Note_on_c, 0, 74, 73
2, 18527, Note_on_c, 0, 74, 0
2, 18528, Note_on_c, 0, 74, 72
2, 18552, Note_on_c, 0, 74, 0
2, 18552, Note_on_c, 0, 72, 71
2, 18575, Note_on_c, 0, 72, 0
2, 18576, Note_on_c, 0, 72, 71
2, 18600, Note_on_c, 0, 72, 0
2, 18600, Note_on_c, 0, 71, 70
2, 18623, Note_on_c, 0, 71, 0
2, 18624, Note_on_c, 0, 71, 86
2, 18754, Note_on_c, 0, 71, 0
2, 18756, Note_on_c, 0, 81, 80
2, 18768, Note_on_c, 0, 81, 0
2, 18768, Note_on_c, 0, 71, 80
2, 18802, Note_on_c, 0, 71, 0
2, 18804, Note_on_c, 0, 81, 80
2, 18816, Note_on_c, 0, 81, 0
2, 18816, Note_on_c, 0, 71, 86
2, 18946, Note_on_c, 0, 71, 0
2, 18948, Note_on_c, 0, 81, 80
2, 18960, Note_on_c, 0, 81, 0
2, 18960, Note_on_c, 0, 71, 80
2, 18994, Note_on_c, 0, 71, 0
2, 18996, Note_on_c, 0, 81, 80
2, 19008, Note_on_c, 0, 81, 0
2, 19008, Note_on_c, 0, 70, 96
2, 19152, Note_on_c, 0, 70, 0
2, 19152, Note_on_c, 0, 74, 76
2, 19167, Note_on_c, 0, 74, 0
2, 19168, Note_on_c, 0, 72, 75
2, 19183, Note_on_c, 0, 72, 0
2, 19184, Note_on_c, 0, 70, 75
2, 19199, Note_on_c, 0, 70, 0
2, 19200, Note_on_c, 0, 69, 75
2, 19245, Note_on_c, 0, 69, 0
2, 19248, Note_on_c, 0, 77, 75
2, 19263, Note_on_c, 0, 77, 0
2, 19264, Note_on_c, 0, 79, 75
2, 19279, Note_on_c, 0, 79, 0
2, 19280, Note_on_c, 0, 77, 75
2, 19295, Note_on_c, 0, 77, 0
2, 19296, Note_on_c, 0, 74, 75
2, 19341, Note_on_c, 0, 74, 0
2, 19344, Note_on_c, 0, 82, 75
2, 19359, Note_on_c, 0, 82, 0
2, 19360, Note_on_c, 0, 84, 75
2, 19375, Note_on_c, 0, 84, 0
2, 19376, Note_on_c, 0, 82, 75
2, 19391, Note_on_c, 0, 82, 0
2, 19392, Note_on_c, 0, 72, 75
2, 19481, Note_on_c, 0, 72, 0
2, 19488, Note_on_c, 0, 81, 75
2, 19500, Note_on_c, 0, 81, 0
2, 19500, Note_on_c, 0, 79, 75
2, 19512, Note_on_c, 0, 79, 0
2, 19512, Note_on_c, 0, 81, 75
2, 19524, Note_on_c, 0, 81, 0
2, 19524, Note_on_c, 0, 79, 75
2, 19536, Note_on_c, 0, 79, 0
2, 19536, Note_on_c, 0, 81, 75
2, 19548, Note_on_c, 0, 81, 0
2, 19548, Note_on_c, 0, 79, 75
2, 19560, Note_on_c, 0, 79, 0
2, 19560, Note_on_c, 0, 77, 75
2, 19572, Note_on_c, 0, 77, 0
2, 19572, Note_on_c, 0, 79, 75
2, 19584, Note_on_c, 0, 79, 0
2, 19584, Note_on_c, 0, 77, 75
2, 19604, Note_on_c, 0, 77, 0
2, 19632, Note_on_c, 0, 77, 75
2, 19647, Note_on_c, 0, 77, 0
2, 19648, Note_on_c, 0, 79, 75
2, 19663, Note_on_c, 0, 79, 0
2, 19664, Note_on_c, 0, 77, 75
2, 19679, Note_on_c, 0, 77, 0
2, 19680, Note_on_c, 0, 74, 75
2, 19700, Note_on_c, 0, 74, 0
2, 19728, Note_on_c, 0, 82, 75
2, 19743, Note_on_c, 0, 82, 0
2, 19744, Note_on_c, 0, 84, 75
2, 19759, Note_on_c, 0, 84, 0
2, 19760, Note_on_c, 0, 82, 75
2, 19775, Note_on_c, 0, 82, 0
2, 19776, Note_on_c, 0, 72, 75
2, 19865, Note_on_c, 0, 72, 0
2, 19872, Note_on_c, 0, 81, 75
2, 19884, Note_on_c, 0, 81, 0
2, 19884, Note_on_c, 0, 79, 75
2, 19896, Note_on_c, 0, 79, 0
2, 19896, Note_on_c, 0, 81, 75
2, 19908, Note_on_c, 0, 81, 0
2, 19908, Note_on_c, 0, 79, 75
2, 19920, Note_on_c, 0, 79, 0
2, 19920, Note_on_c, 0, 81, 75
2, 19932, Note_on_c, 0, 81, 0
2, 19932, Note_on_c, 0, 79, 75
2, 19944, Note_on_c, 0, 79, 0
2, 19944, Note_on_c, 0, 77, 75
2, 19956, Note_on_c, 0, 77, 0
2, 19956, Note_on_c, 0, 79, 75
2, 19968, Note_on_c, 0, 79, 0
2, 19968, Note_on_c, 0, 77, 75
2, 20057, Note_on_c, 0, 77, 0
2, 20136, Note_on_c, 0, 77, 75
2, 20146, Note_on_c, 0, 77, 0
2, 20160, Note_on_c, 0, 65, 64
2, 20300, Note_on_c, 0, 65, 0
2, 20304, Note_on_c, 0, 66, 68
2, 20349, Note_on_c, 0, 66, 0
2, 20352, Note_on_c, 0, 67, 70
2, 20397, Note_on_c, 0, 67, 0
2, 20400, Note_on_c, 0, 69, 72
2, 20406, Note_on_c, 0, 69, 0
2, 20406, Note_on_c, 0, 70, 72
2, 20445, Note_on_c, 0, 70, 0
2, 20448, Note_on_c, 0, 73, 73
2, 20454, Note_on_c, 0, 73, 0
2, 20454, Note_on_c, 0, 74, 73
2, 20493, Note_on_c, 0, 74, 0
2, 20496, Note_on_c, 0, 78, 75
2, 20502, Note_on_c, 0, 78, 0
2, 20502, Note_on_c, 0, 79, 75
2, 20541, Note_on_c, 0, 79, 0
2, 20544, Note_on_c, 0, 81, 76
2, 20550, Note_on_c, 0, 81, 0
2, 20550, Note_on_c, 0, 82, 76
2, 20589, Note_on_c, 0, 82, 0
2, 20592, Note_on_c, 0, 85, 78
2, 20598, Note_on_c, 0, 85, 0
2, 20598, Note_on_c, 0, 86, 78
2, 20637, Note_on_c, 0, 86, 0
2, 20640, Note_on_c, 0, 84, 80
2, 20655, Note_on_c, 0, 84, 0
2, 20656, Note_on_c, 0, 82, 80
2, 20671, Note_on_c, 0, 82, 0
2, 20672, Note_on_c, 0, 81, 80
2, 20687, Note_on_c, 0, 81, 0
2, 20688, Note_on_c, 0, 82, 80
2, 20703, Note_on_c, 0, 82, 0
2, 20704, Note_on_c, 0, 81, 80
2, 20719, Note_on_c, 0, 81, 0
2, 20720, Note_on_c, 0, 79, 80
2, 20735, Note_on_c, 0, 79, 0
2, 20736, Note_on_c, 0, 72, 80
2, 20825, Note_on_c, 0, 72, 0
2, 20832, Note_on_c, 0, 81, 80
2, 20844, Note_on_c, 0, 81, 0
2, 20844, Note_on_c, 0, 79, 80
2, 20856, Note_on_c, 0, 79, 0
2, 20856, Note_on_c, 0, 81, 80
2, 20868, Note_on_c, 0, 81, 0
2, 20868, Note_on_c, 0, 79, 80
2, 20880, Note_on_c, 0, 79, 0
2, 20880, Note_on_c, 0, 81, 80
2, 20892, Note_on_c, 0, 81, 0
2, 20892, Note_on_c, 0, 79, 80
2, 20904, Note_on_c, 0, 79, 0
2, 20904, Note_on_c, 0, 77, 80
2, 20916, Note_on_c, 0, 77, 0
2, 20916, Note_on_c, 0, 79, 80
2, 20928, Note_on_c, 0, 79, 0
2, 20928, Note_on_c, 0, 77, 80
2, 21017, Note_on_c, 0, 77, 0
2, 21024, Note_on_c, 0, 84, 75
2, 21047, Note_on_c, 0, 84, 0
2, 21048, Note_on_c, 0, 72, 75
2, 21071, Note_on_c, 0, 72, 0
2, 21072, Note_on_c, 0, 84, 75
2, 21095, Note_on_c, 0, 84, 0
2, 21096, Note_on_c, 0, 72, 75
2, 21119, Note_on_c, 0, 72, 0
2, 21120, Note_on_c, 0, 82, 75
2, 21143, Note_on_c, 0, 82, 0
2, 21144, Note_on_c, 0, 72, 75
2, 21167, Note_on_c, 0, 72, 0
2, 21168, Note_on_c, 0, 82, 75
2, 21191, Note_on_c, 0, 82, 0
2, 21192, Note_on_c, 0, 72, 75
2, 21215, Note_on_c, 0, 72, 0
2, 21216, Note_on_c, 0, 82, 75
2, 21239, Note_on_c, 0, 82, 0
2, 21240, Note_on_c, 0, 72, 75
2, 21263, Note_on_c, 0, 72, 0
2, 21264, Note_on_c, 0, 82, 75
2, 21287, Note_on_c, 0, 82, 0
2, 21288, Note_on_c, 0, 72, 75
2, 21311, Note_on_c, 0, 72, 0
2, 21312, Note_on_c, 0, 84, 75
2, 21312, Note_on_c, 0, 81, 75
2, 21401, Note_on_c, 0, 84, 0
2, 21401, Note_on_c, 0, 81, 0
2, 21408, Note_on_c, 0, 84, 64
2, 21431, Note_on_c, 0, 84, 0
2, 21432, Note_on_c, 0, 72, 64
2, 21455, Note_on_c, 0, 72, 0
2, 21456, Note_on_c, 0, 84, 64
2, 21479, Note_on_c, 0, 84, 0
2, 21480, Note_on_c, 0, 72, 64
2, 21503, Note_on_c, 0, 72, 0
2, 21504, Note_on_c, 0, 82, 64
2, 21527, Note_on_c, 0, 82, 0
2, 21528, Note_on_c, 0, 72, 64
2, 21551, Note_on_c, 0, 72, 0
2, 21552, Note_on_c, 0, 82, 64
2, 21575, Note_on_c, 0, 82, 0
2, 21576, Note_on_c, 0, 72, 64
2, 21599, Note_on_c, 0, 72, 0
2, 21600, Note_on_c, 0, 82, 64
2, 21623, Note_on_c, 0, 82, 0
2, 21624, Note_on_c, 0, 72, 64
2, 21647, Note_on_c, 0, 72, 0
2, 21648, Note_on_c, 0, 82, 64
2, 21671, Note_on_c, 0, 82, 0
2, 21672, Note_on_c, 0, 72, 64
2, 21695, Note_on_c, 0, 72, 0
2, 21696, Note_on_c, 0, 84, 64
2, 21696, Note_on_c, 0, 81, 64
2, 21785, Note_on_c, 0, 84, 0
2, 21785, Note_on_c, 0, 81, 0
2, 21792, Note_on_c, 0, 84, 75
2, 21815, Note_on_c, 0, 84, 0
2, 21816, Note_on_c, 0, 72, 75
2, 21839, Note_on_c, 0, 72, 0
2, 21840, Note_on_c, 0, 84, 75
2, 21863, Note_on_c, 0, 84, 0
2, 21864, Note_on_c, 0, 72, 75
2, 21887, Note_on_c, 0, 72, 0
2, 21888, Note_on_c, 0, 82, 75
2, 21911, Note_on_c, 0, 82, 0
2, 21912, Note_on_c, 0, 72, 75
2, 21935, Note_on_c, 0, 72, 0
2, 21936, Note_on_c, 0, 82, 75
2, 21959, Note_on_c, 0, 82, 0
2, 21960, Note_on_c, 0, 72, 75
2, 21983, Note_on_c, 0, 72, 0
2, 21984, Note_on_c, 0, 82, 75
2, 22007, Note_on_c, 0, 82, 0
2, 22008, Note_on_c, 0, 72, 75
2, 22031, Note_on_c, 0, 72, 0
2, 22032, Note_on_c, 0, 82, 75
2, 22055, Note_on_c, 0, 82, 0
2, 22056, Note_on_c, 0, 72, 75
2, 22079, Note_on_c, 0, 72, 0
2, 22080, Note_on_c, 0, 77, 75
2, 22125, Note_on_c, 0, 77, 0
2, 22128, Note_on_c, 0, 77, 75
2, 22143, Note_on_c, 0, 77, 0
2, 22144, Note_on_c, 0, 79, 75
2, 22159, Note_on_c, 0, 79, 0
2, 22160, Note_on_c, 0, 77, 75
2, 22175, Note_on_c, 0, 77, 0
2, 22176, Note_on_c, 0, 74, 75
2, 22221, Note_on_c, 0, 74, 0
2, 22224, Note_on_c, 0, 82, 75
2, 22239, Note_on_c, 0, 82, 0
2, 22240, Note_on_c, 0, 84, 75
2, 22255, Note_on_c, 0, 84, 0
2, 22256, Note_on_c, 0, 82, 75
2, 22271, Note_on_c, 0, 82, 0
2, 22272, Note_on_c, 0, 72, 75
2, 22361, Note_on_c, 0, 72, 0
2, 22368, Note_on_c, 0, 81, 75
2, 22380, Note_on_c, 0, 81, 0
2, 22380, Note_on_c, 0, 79, 75
2, 22392, Note_on_c, 0, 79, 0
2, 22392, Note_on_c, 0, 81, 75
2, 22404, Note_on_c, 0, 81, 0
2, 22404, Note_on_c, 0, 79, 75
2, 22416, Note_on_c, 0, 79, 0
2, 22416, Note_on_c, 0, 81, 75
2, 22428, Note_on_c, 0, 81, 0
2, 22428, Note_on_c, 0, 79, 75
2, 22440, Note_on_c, 0, 79, 0
2, 22440, Note_on_c, 0, 77, 75
2, 22452, Note_on_c, 0, 77, 0
2, 22452, Note_on_c, 0, 79, 75
2, 22464, Note_on_c, 0, 79, 0
2, 22464, Note_on_c, 0, 77, 75
2, 22553, Note_on_c, 0, 77, 0
2, 22560, Note_on_c, 0, 72, 70
2, 22583, Note_on_c, 0, 72, 0
2, 22584, Note_on_c, 0, 74, 69
2, 22607, Note_on_c, 0, 74, 0
2, 22608, Note_on_c, 0, 76, 69
2, 22631, Note_on_c, 0, 76, 0
2, 22632, Note_on_c, 0, 77, 68
2, 22655, Note_on_c, 0, 77, 0
2, 22656, Note_on_c, 0, 74, 68
2, 22679, Note_on_c, 0, 74, 0
2, 22680, Note_on_c, 0, 76, 68
2, 22703, Note_on_c, 0, 76, 0
2, 22704, Note_on_c, 0, 77, 67
2, 22727, Note_on_c, 0, 77, 0
2, 22728, Note_on_c, 0, 79, 67
2, 22751, Note_on_c, 0, 79, 0
2, 22752, Note_on_c, 0, 77, 67
2, 22775, Note_on_c, 0, 77, 0
2, 22776, Note_on_c, 0, 76, 66
2, 22799, Note_on_c, 0, 76, 0
2, 22800, Note_on_c, 0, 74, 66
2, 22823, Note_on_c, 0, 74, 0
2, 22824, Note_on_c, 0, 76, 65
2, 22847, Note_on_c, 0, 76, 0
2, 22848, Note_on_c, 0, 77, 65
2, 22937, Note_on_c, 0, 77, 0
2, 22944, Note_on_c, 0, 60, 64
2, 22959, Note_on_c, 0, 60, 0
2, 22960, Note_on_c, 0, 62, 75
2, 22975, Note_on_c, 0, 62, 0
2, 22976, Note_on_c, 0, 60, 74
2, 22991, Note_on_c, 0, 60, 0
2, 22992, Note_on_c, 0, 65, 74
2, 23037, Note_on_c, 0, 65, 0
2, 23040, Note_on_c, 0, 62, 73
2, 23055, Note_on_c, 0, 62, 0
2, 23056, Note_on_c, 0, 64, 73
2, 23071, Note_on_c, 0, 64, 0
2, 23072, Note_on_c, 0, 62, 73
2, 23087, Note_on_c, 0, 62, 0
2, 23088, Note_on_c, 0, 67, 73
2, 23133, Note_on_c, 0, 67, 0
2, 23136, Note_on_c, 0, 65, 72
2, 23159, Note_on_c, 0, 65, 0
2, 23160, Note_on_c, 0, 64, 72
2, 23183, Note_on_c, 0, 64, 0
2, 23184, Note_on_c, 0, 62, 71
2, 23207, Note_on_c, 0, 62, 0
2, 23208, Note_on_c, 0, 64, 71
2, 23231, Note_on_c, 0, 64, 0
2, 23232, Note_on_c, 0, 65, 87
2, 23280, Note_on_c, 0, 65, 0
2, 23280, Note_on_c, 0, 65, 70
2, 23295, Note_on_c, 0, 65, 0
2, 23296, Note_on_c, 0, 67, 71
2, 23311, Note_on_c, 0, 67, 0
2, 23312, Note_on_c, 0, 69, 72
2, 23327, Note_on_c, 0, 69, 0
2, 23328, Note_on_c, 0, 65, 91
2, 23376, Note_on_c, 0, 65, 0
2, 23376, Note_on_c, 0, 65, 75
2, 23391, Note_on_c, 0, 65, 0
2, 23392, Note_on_c, 0, 67, 75
2, 23407, Note_on_c, 0, 67, 0
2, 23408, Note_on_c, 0, 69, 75
2, 23423, Note_on_c, 0, 69, 0
2, 23424, Note_on_c, 0, 65, 91
2, 23520, Note_on_c, 0, 65, 0
2, 23568, Note_on_c, 0, 65, 75
2, 23568, Note_on_c, 0, 57, 75
2, 23613, Note_on_c, 0, 65, 0
2, 23613, Note_on_c, 0, 57, 0
2, 23616, Note_on_c, 0, 65, 75
2, 23616, Note_on_c, 0, 57, 75
2, 23664, Note_on_c, 0, 57, 0
2, 23664, Note_on_c, 0, 69, 75
2, 23709, Note_on_c, 0, 69, 0
2, 23709, Note_on_c, 0, 65, 0
2, 23712, Note_on_c, 0, 69, 75
2, 23712, Note_on_c, 0, 65, 75
2, 23760, Note_on_c, 0, 65, 0
2, 23760, Note_on_c, 0, 72, 75
2, 23805, Note_on_c, 0, 72, 0
2, 23805, Note_on_c, 0, 69, 0
2, 23808, Note_on_c, 0, 72, 75
2, 23941, Note_on_c, 0, 72, 0
2, 23952, Note_on_c, 0, 70, 75
2, 23967, Note_on_c, 0, 70, 0
2, 23968, Note_on_c, 0, 72, 75
2, 23983, Note_on_c, 0, 72, 0
2, 23984, Note_on_c, 0, 74, 75
2, 23999, Note_on_c, 0, 74, 0
2, 24000, Note_on_c, 0, 72, 75
2, 24133, Note_on_c, 0, 72, 0
2, 24144, Note_on_c, 0, 70, 75
2, 24159, Note_on_c, 0, 70, 0
2, 24160, Note_on_c, 0, 72, 75
2, 24175, Note_on_c, 0, 72, 0
2, 24176, Note_on_c, 0, 74, 75
2, 24191, Note_on_c, 0, 74, 0
2, 24192, Note_on_c, 0, 72, 75
2, 24237, Note_on_c, 0, 72, 0
2, 24240, Note_on_c, 0, 77, 75
2, 24285, Note_on_c, 0, 77, 0
2, 24336, Note_on_c, 0, 65, 75
2, 24351, Note_on_c, 0, 65, 0
2, 24352, Note_on_c, 0, 67, 75
2, 24367, Note_on_c, 0, 67, 0
2, 24368, Note_on_c, 0, 65, 75
2, 24383, Note_on_c, 0, 65, 0
2, 24384, Note_on_c, 0, 62, 75
2, 24429, Note_on_c, 0, 62, 0
2, 24432, Note_on_c, 0, 65, 75
2, 24447, Note_on_c, 0, 65, 0
2, 24448, Note_on_c, 0, 67, 75
2, 24463, Note_on_c, 0, 67, 0
2, 24464, Note_on_c, 0, 65, 75
2, 24479, Note_on_c, 0, 65, 0
2, 24480, Note_on_c, 0, 60, 75
2, 24525, Note_on_c, 0, 60, 0
2, 24528, Note_on_c, 0, 72, 75
2, 24543, Note_on_c, 0, 72, 0
2, 24544, Note_on_c, 0, 69, 75
2, 24559, Note_on_c, 0, 69, 0
2, 24560, Note_on_c, 0, 65, 75
2, 24575, Note_on_c, 0, 65, 0
2, 24576, Note_on_c, 0, 60, 75
2, 24665, Note_on_c, 0, 60, 0
2, 24672, Note_on_c, 0, 58, 75
2, 24685, Note_on_c, 0, 58, 0
2, 24686, Note_on_c, 0, 60, 75
2, 24699, Note_on_c, 0, 60, 0
2, 24700, Note_on_c, 0, 58, 75
2, 24713, Note_on_c, 0, 58, 0
2, 24714, Note_on_c, 0, 60, 75
2, 24727, Note_on_c, 0, 60, 0
2, 24728, Note_on_c, 0, 58, 75
2, 24741, Note_on_c, 0, 58, 0
2, 24742, Note_on_c, 0, 57, 75
2, 24754, Note_on_c, 0, 57, 0
2, 24755, Note_on_c, 0, 58, 75
2, 24767, Note_on_c, 0, 58, 0
2, 24768, Note_on_c, 0, 57, 75
2, 24857, Note_on_c, 0, 57, 0
2, 24912, Note_on_c, 0, 70, 75
2, 24927, Note_on_c, 0, 70, 0
2, 24928, Note_on_c, 0, 72, 75
2, 24943, Note_on_c, 0, 72, 0
2, 24944, Note_on_c, 0, 70, 75
2, 24959, Note_on_c, 0, 70, 0
2, 24960, Note_on_c, 0, 67, 75
2, 25005, Note_on_c, 0, 67, 0
2, 25008, Note_on_c, 0, 70, 75
2, 25023, Note_on_c, 0, 70, 0
2, 25024, Note_on_c, 0, 72, 75
2, 25039, Note_on_c, 0, 72, 0
2, 25040, Note_on_c, 0, 70, 75
2, 25055, Note_on_c, 0, 70, 0
2, 25056, Note_on_c, 0, 65, 75
2, 25101, Note_on_c, 0, 65, 0
2, 25104, Note_on_c, 0, 77, 75
2, 25119, Note_on_c, 0, 77, 0
2, 25120, Note_on_c, 0, 74, 75
2, 25135, Note_on_c, 0, 74, 0
2, 25136, Note_on_c, 0, 70, 75
2, 25151, Note_on_c, 0, 70, 0
2, 25152, Note_on_c, 0, 65, 75
2, 25241, Note_on_c, 0, 65, 0
2, 25248, Note_on_c, 0, 63, 75
2, 25261, Note_on_c, 0, 63, 0
2, 25262, Note_on_c, 0, 65, 75
2, 25275, Note_on_c, 0, 65, 0
2, 25276, Note_on_c, 0, 63, 75
2, 25289, Note_on_c, 0, 63, 0
2, 25290, Note_on_c, 0, 65, 75
2, 25303, Note_on_c, 0, 65, 0
2, 25304, Note_on_c, 0, 63, 75
2, 25317, Note_on_c, 0, 63, 0
2, 25318, Note_on_c, 0, 62, 75
2, 25330, Note_on_c, 0, 62, 0
2, 25331, Note_on_c, 0, 63, 75
2, 25343, Note_on_c, 0, 63, 0
2, 25344, Note_on_c, 0, 62, 75
2, 25389, Note_on_c, 0, 62, 0
2, 25392, Note_on_c, 0, 63, 75
2, 25407, Note_on_c, 0, 63, 0
2, 25408, Note_on_c, 0, 65, 75
2, 25423, Note_on_c, 0, 65, 0
2, 25424, Note_on_c, 0, 67, 75
2, 25439, Note_on_c, 0, 67, 0
2, 25440, Note_on_c, 0, 65, 75
2, 25485, Note_on_c, 0, 65, 0
2, 25488, Note_on_c, 0, 67, 75
2, 25533, Note_on_c, 0, 67, 0
2, 25536, Note_on_c, 0, 68, 75
2, 25581, Note_on_c, 0, 68, 0
2, 25584, Note_on_c, 0, 72, 75
2, 25599, Note_on_c, 0, 72, 0
2, 25600, Note_on_c, 0, 70, 75
2, 25615, Note_on_c, 0, 70, 0
2, 25616, Note_on_c, 0, 68, 75
2, 25631, Note_on_c, 0, 68, 0
2, 25632, Note_on_c, 0, 67, 75
2, 25721, Note_on_c, 0, 67, 0
2, 25728, Note_on_c, 0, 64, 75
2, 25773, Note_on_c, 0, 64, 0
2, 25776, Note_on_c, 0, 65, 75
2, 25791, Note_on_c, 0, 65, 0
2, 25792, Note_on_c, 0, 67, 75
2, 25807, Note_on_c, 0, 67, 0
2, 25808, Note_on_c, 0, 69, 75
2, 25823, Note_on_c, 0, 69, 0
2, 25824, Note_on_c, 0, 67, 75
2, 25869, Note_on_c, 0, 67, 0
2, 25872, Note_on_c, 0, 69, 75
2, 25917, Note_on_c, 0, 69, 0
2, 25920, Note_on_c, 0, 70, 75
2, 25965, Note_on_c, 0, 70, 0
2, 25968, Note_on_c, 0, 74, 75
2, 25983, Note_on_c, 0, 74, 0
2, 25984, Note_on_c, 0, 72, 75
2, 25999, Note_on_c, 0, 72, 0
2, 26000, Note_on_c, 0, 70, 75
2, 26015, Note_on_c, 0, 70, 0
2, 26016, Note_on_c, 0, 69, 75
2, 26105, Note_on_c, 0, 69, 0
2, 26112, Note_on_c, 0, 66, 75
2, 26157, Note_on_c, 0, 66, 0
2, 26160, Note_on_c, 0, 67, 75
2, 26175, Note_on_c, 0, 67, 0
2, 26176, Note_on_c, 0, 69, 75
2, 26191, Note_on_c, 0, 69, 0
2, 26192, Note_on_c, 0, 70, 75
2, 26207, Note_on_c, 0, 70, 0
2, 26208, Note_on_c, 0, 69, 75
2, 26253, Note_on_c, 0, 69, 0
2, 26256, Note_on_c, 0, 70, 75
2, 26301, Note_on_c, 0, 70, 0
2, 26304, Note_on_c, 0, 72, 75
2, 26349, Note_on_c, 0, 72, 0
2, 26352, Note_on_c, 0, 75, 75
2, 26367, Note_on_c, 0, 75, 0
2, 26368, Note_on_c, 0, 74, 75
2, 26383, Note_on_c, 0, 74, 0
2, 26384, Note_on_c, 0, 72, 75
2, 26399, Note_on_c, 0, 72, 0
2, 26400, Note_on_c, 0, 70, 75
2, 26489, Note_on_c, 0, 70, 0
2, 26496, Note_on_c, 0, 82, 75
2, 26520, Note_on_c, 0, 82, 0
2, 26520, Note_on_c, 0, 81, 74
2, 26543, Note_on_c, 0, 81, 0
2, 26544, Note_on_c, 0, 81, 74
2, 26568, Note_on_c, 0, 81, 0
2, 26568, Note_on_c, 0, 79, 73
2, 26591, Note_on_c, 0, 79, 0
2, 26592, Note_on_c, 0, 79, 73
2, 26616, Note_on_c, 0, 79, 0
2, 26616, Note_on_c, 0, 77, 72
2, 26639, Note_on_c, 0, 77, 0
2, 26640, Note_on_c, 0, 77, 72
2, 26664, Note_on_c, 0, 77, 0
2, 26664, Note_on_c, 0, 76, 72
2, 26687, Note_on_c, 0, 76, 0
2, 26688, Note_on_c, 0, 76, 71
2, 26712, Note_on_c, 0, 76, 0
2, 26712, Note_on_c, 0, 74, 71
2, 26735, Note_on_c, 0, 74, 0
2, 26736, Note_on_c, 0, 74, 70
2, 26760, Note_on_c, 0, 74, 0
2, 26760, Note_on_c, 0, 73, 70
2, 26783, Note_on_c, 0, 73, 0
2, 26784, Note_on_c, 0, 73, 70
2, 26873, Note_on_c, 0, 73, 0
2, 26880, Note_on_c, 0, 81, 75
2, 26904, Note_on_c, 0, 81, 0
2, 26904, Note_on_c, 0, 79, 74
2, 26927, Note_on_c, 0, 79, 0
2, 26928, Note_on_c, 0, 79, 74
2, 26952, Note_on_c, 0, 79, 0
2, 26952, Note_on_c, 0, 77, 73
2, 26975, Note_on_c, 0, 77, 0
2, 26976, Note_on_c, 0, 77, 73
2, 27000, Note_on_c, 0, 77, 0
2, 27000, Note_on_c, 0, 76, 72
2, 27023, Note_on_c, 0, 76, 0
2, 27024, Note_on_c, 0, 76, 72
2, 27048, Note_on_c, 0, 76, 0
2, 27048, Note_on_c, 0, 74, 72
2, 27071, Note_on_c, 0, 74, 0
2, 27072, Note_on_c, 0, 74, 71
2, 27096, Note_on_c, 0, 74, 0
2, 27096, Note_on_c, 0, 72, 71
2, 27119, Note_on_c, 0, 72, 0
2, 27120, Note_on_c, 0, 72, 70
2, 27144, Note_on_c, 0, 72, 0
2, 27144, Note_on_c, 0, 71, 70
2, 27167, Note_on_c, 0, 71, 0
2, 27168, Note_on_c, 0, 71, 70
2, 27257, Note_on_c, 0, 71, 0
2, 27264, Note_on_c, 0, 79, 75
2, 27288, Note_on_c, 0, 79, 0
2, 27288, Note_on_c, 0, 77, 74
2, 27311, Note_on_c, 0, 77, 0
2, 27312, Note_on_c, 0, 77, 74
2, 27336, Note_on_c, 0, 77, 0
2, 27336, Note_on_c, 0, 75, 73
2, 27359, Note_on_c, 0, 75, 0
2, 27360, Note_on_c, 0, 75, 73
2, 27384, Note_on_c, 0, 75, 0
2, 27384, Note_on_c, 0, 74, 72
2, 27407, Note_on_c, 0, 74, 0
2, 27408, Note_on_c, 0, 74, 72
2, 27432, Note_on_c, 0, 74, 0
2, 27432, Note_on_c, 0, 72, 72
2, 27455, Note_on_c, 0, 72, 0
2, 27456, Note_on_c, 0, 72, 71
2, 27480, Note_on_c, 0, 72, 0
2, 27480, Note_on_c, 0, 70, 71
2, 27503, Note_on_c, 0, 70, 0
2, 27504, Note_on_c, 0, 70, 70
2, 27528, Note_on_c, 0, 70, 0
2, 27528, Note_on_c, 0, 69, 70
2, 27551, Note_on_c, 0, 69, 0
2, 27552, Note_on_c, 0, 69, 70
2, 27641, Note_on_c, 0, 69, 0
2, 27648, Note_on_c, 0, 77, 70
2, 27672, Note_on_c, 0, 77, 0
2, 27672, Note_on_c, 0, 75, 69
2, 27695, Note_on_c, 0, 75, 0
2, 27696, Note_on_c, 0, 75, 68
2, 27720, Note_on_c, 0, 75, 0
2, 27720, Note_on_c, 0, 74, 68
2, 27743, Note_on_c, 0, 74, 0
2, 27744, Note_on_c, 0, 74, 67
2, 27768, Note_on_c, 0, 74, 0
2, 27768, Note_on_c, 0, 72, 67
2, 27791, Note_on_c, 0, 72, 0
2, 27792, Note_on_c, 0, 72, 66
2, 27816, Note_on_c, 0, 72, 0
2, 27816, Note_on_c, 0, 70, 65
2, 27839, Note_on_c, 0, 70, 0
2, 27840, Note_on_c, 0, 70, 65
2, 27885, Note_on_c, 0, 70, 0
2, 27888, Note_on_c, 0, 77, 64
2, 27903, Note_on_c, 0, 77, 0
2, 27904, Note_on_c, 0, 74, 64
2, 27919, Note_on_c, 0, 74, 0
2, 27920, Note_on_c, 0, 70, 64
2, 27935, Note_on_c, 0, 70, 0
2, 27936, Note_on_c, 0, 70, 65
2, 27981, Note_on_c, 0, 70, 0
2, 27984, Note_on_c, 0, 68, 66
2, 27996, Note_on_c, 0, 68, 0
2, 27996, Note_on_c, 0, 70, 66
2, 28008, Note_on_c, 0, 70, 0
2, 28008, Note_on_c, 0, 68, 66
2, 28029, Note_on_c, 0, 68, 0
2, 28032, Note_on_c, 0, 67, 68
2, 28077, Note_on_c, 0, 67, 0
2, 28080, Note_on_c, 0, 79, 69
2, 28095, Note_on_c, 0, 79, 0
2, 28096, Note_on_c, 0, 76, 69
2, 28111, Note_on_c, 0, 76, 0
2, 28112, Note_on_c, 0, 72, 70
2, 28127, Note_on_c, 0, 72, 0
2, 28128, Note_on_c, 0, 72, 70
2, 28173, Note_on_c, 0, 72, 0
2, 28176, Note_on_c, 0, 70, 72
2, 28188, Note_on_c, 0, 70, 0
2, 28188, Note_on_c, 0, 72, 72
2, 28200, Note_on_c, 0, 72, 0
2, 28200, Note_on_c, 0, 70, 72
2, 28221, Note_on_c, 0, 70, 0
2, 28224, Note_on_c, 0, 69, 73
2, 28269, Note_on_c, 0, 69, 0
2, 28272, Note_on_c, 0, 81, 74
2, 28287, Note_on_c, 0, 81, 0
2, 28288, Note_on_c, 0, 78, 75
2, 28303, Note_on_c, 0, 78, 0
2, 28304, Note_on_c, 0, 74, 75
2, 28319, Note_on_c, 0, 74, 0
2, 28320, Note_on_c, 0, 74, 76
2, 28365, Note_on_c, 0, 74, 0
2, 28368, Note_on_c, 0, 72, 77
2, 28380, Note_on_c, 0, 72, 0
2, 28380, Note_on_c, 0, 74, 77
2, 28392, Note_on_c, 0, 74, 0
2, 28392, Note_on_c, 0, 72, 77
2, 28413, Note_on_c, 0, 72, 0
2, 28416, Note_on_c, 0, 70, 80
2, 28461, Note_on_c, 0, 70, 0
2, 28464, Note_on_c, 0, 75, 80
2, 28479, Note_on_c, 0, 75, 0
2, 28480, Note_on_c, 0, 77, 80
2, 28495, Note_on_c, 0, 77, 0
2, 28496, Note_on_c, 0, 75, 80
2, 28511, Note_on_c, 0, 75, 0
2, 28512, Note_on_c, 0, 74, 80
2, 28557, Note_on_c, 0, 74, 0
2, 28560, Note_on_c, 0, 79, 80
2, 28575, Note_on_c, 0, 79, 0
2, 28576, Note_on_c, 0, 81, 80
2, 28591, Note_on_c, 0, 81, 0
2, 28592, Note_on_c, 0, 79, 80
2, 28607, Note_on_c, 0, 79, 0
2, 28608, Note_on_c, 0, 69, 80
2, 28675, Note_on_c, 0, 69, 0
2, 28680, Note_on_c, 0, 75, 80
2, 28703, Note_on_c, 0, 75, 0
2, 28704, Note_on_c, 0, 74, 80
2, 28727, Note_on_c, 0, 74, 0
2, 28728, Note_on_c, 0, 72, 80
2, 28751, Note_on_c, 0, 72, 0
2, 28752, Note_on_c, 0, 70, 80
2, 28775, Note_on_c, 0, 70, 0
2, 28776, Note_on_c, 0, 69, 80
2, 28799, Note_on_c, 0, 69, 0
2, 28800, Note_on_c, 0, 70, 80
2, 28845, Note_on_c, 0, 70, 0
2, 28848, Note_on_c, 0, 75, 80
2, 28863, Note_on_c, 0, 75, 0
2, 28864, Note_on_c, 0, 77, 80
2, 28879, Note_on_c, 0, 77, 0
2, 28880, Note_on_c, 0, 75, 80
2, 28895, Note_on_c, 0, 75, 0
2, 28896, Note_on_c, 0, 74, 80
2, 28941, Note_on_c, 0, 74, 0
2, 28944, Note_on_c, 0, 79, 80
2, 28959, Note_on_c, 0, 79, 0
2, 28960, Note_on_c, 0, 81, 80
2, 28975, Note_on_c, 0, 81, 0
2, 28976, Note_on_c, 0, 79, 80
2, 28991, Note_on_c, 0, 79, 0
2, 28992, Note_on_c, 0, 69, 80
2, 29059, Note_on_c, 0, 69, 0
2, 29064, Note_on_c, 0, 75, 80
2, 29087, Note_on_c, 0, 75, 0
2, 29088, Note_on_c, 0, 74, 80
2, 29111, Note_on_c, 0, 74, 0
2, 29112, Note_on_c, 0, 72, 80
2, 29135, Note_on_c, 0, 72, 0
2, 29136, Note_on_c, 0, 70, 80
2, 29159, Note_on_c, 0, 70, 0
2, 29160, Note_on_c, 0, 69, 80
2, 29183, Note_on_c, 0, 69, 0
2, 29184, Note_on_c, 0, 67, 80
2, 29273, Note_on_c, 0, 67, 0
2, 29280, Note_on_c, 0, 79, 80
2, 29325, Note_on_c, 0, 79, 0
2, 29328, Note_on_c, 0, 79, 80
2, 29373, Note_on_c, 0, 79, 0
2, 29376, Note_on_c, 0, 79, 80
2, 29421, Note_on_c, 0, 79, 0
2, 29424, Note_on_c, 0, 79, 80
2, 29469, Note_on_c, 0, 79, 0
2, 29472, Note_on_c, 0, 79, 80
2, 29517, Note_on_c, 0, 79, 0
2, 29520, Note_on_c, 0, 79, 80
2, 29565, Note_on_c, 0, 79, 0
2, 29568, Note_on_c, 0, 79, 80
2, 29613, Note_on_c, 0, 79, 0
2, 29616, Note_on_c, 0, 79, 80
2, 29661, Note_on_c, 0, 79, 0
2, 29664, Note_on_c, 0, 77, 80
2, 29709, Note_on_c, 0, 77, 0
2, 29712, Note_on_c, 0, 77, 80
2, 29757, Note_on_c, 0, 77, 0
2, 29760, Note_on_c, 0, 77, 80
2, 29805, Note_on_c, 0, 77, 0
2, 29808, Note_on_c, 0, 77, 80
2, 29853, Note_on_c, 0, 77, 0
2, 29856, Note_on_c, 0, 77, 80
2, 29901, Note_on_c, 0, 77, 0
2, 29904, Note_on_c, 0, 77, 80
2, 29949, Note_on_c, 0, 77, 0
2, 29952, Note_on_c, 0, 77, 80
2, 29997, Note_on_c, 0, 77, 0
2, 30000, Note_on_c, 0, 77, 80
2, 30045, Note_on_c, 0, 77, 0
2, 30048, Note_on_c, 0, 65, 70
2, 30060, Note_on_c, 0, 65, 0
2, 30060, Note_on_c, 0, 67, 70
2, 30072, Note_on_c, 0, 67, 0
2, 30072, Note_on_c, 0, 68, 70
2, 30139, Note_on_c, 0, 68, 0
2, 30144, Note_on_c, 0, 68, 70
2, 30168, Note_on_c, 0, 68, 0
2, 30168, Note_on_c, 0, 67, 71
2, 30191, Note_on_c, 0, 67, 0
2, 30192, Note_on_c, 0, 67, 71
2, 30216, Note_on_c, 0, 67, 0
2, 30216, Note_on_c, 0, 70, 71
2, 30239, Note_on_c, 0, 70, 0
2, 30240, Note_on_c, 0, 70, 71
2, 30264, Note_on_c, 0, 70, 0
2, 30264, Note_on_c, 0, 69, 72
2, 30287, Note_on_c, 0, 69, 0
2, 30288, Note_on_c, 0, 69, 72
2, 30312, Note_on_c, 0, 69, 0
2, 30312, Note_on_c, 0, 72, 72
2, 30335, Note_on_c, 0, 72, 0
2, 30336, Note_on_c, 0, 72, 72
2, 30360, Note_on_c, 0, 72, 0
2, 30360, Note_on_c, 0, 70, 73
2, 30383, Note_on_c, 0, 70, 0
2, 30384, Note_on_c, 0, 70, 73
2, 30408, Note_on_c, 0, 70, 0
2, 30408, Note_on_c, 0, 74, 73
2, 30431, Note_on_c, 0, 74, 0
2, 30432, Note_on_c, 0, 74, 73
2, 30456, Note_on_c, 0, 74, 0
2, 30456, Note_on_c, 0, 72, 73
2, 30479, Note_on_c, 0, 72, 0
2, 30480, Note_on_c, 0, 72, 74
2, 30504, Note_on_c, 0, 72, 0
2, 30504, Note_on_c, 0, 75, 74
2, 30527, Note_on_c, 0, 75, 0
2, 30528, Note_on_c, 0, 75, 74
2, 30552, Note_on_c, 0, 75, 0
2, 30552, Note_on_c, 0, 74, 74
2, 30575, Note_on_c, 0, 74, 0
2, 30576, Note_on_c, 0, 74, 75
2, 30600, Note_on_c, 0, 74, 0
2, 30600, Note_on_c, 0, 77, 75
2, 30623, Note_on_c, 0, 77, 0
2, 30624, Note_on_c, 0, 77, 75
2, 30648, Note_on_c, 0, 77, 0
2, 30648, Note_on_c, 0, 75, 75
2, 30671, Note_on_c, 0, 75, 0
2, 30672, Note_on_c, 0, 75, 76
2, 30696, Note_on_c, 0, 75, 0
2, 30696, Note_on_c, 0, 79, 76
2, 30719, Note_on_c, 0, 79, 0
2, 30720, Note_on_c, 0, 79, 76
2, 30744, Note_on_c, 0, 79, 0
2, 30744, Note_on_c, 0, 77, 76
2, 30767, Note_on_c, 0, 77, 0
2, 30768, Note_on_c, 0, 77, 76
2, 30792, Note_on_c, 0, 77, 0
2, 30792, Note_on_c, 0, 82, 77
2, 30815, Note_on_c, 0, 82, 0
2, 30816, Note_on_c, 0, 82, 93
2, 30888, Note_on_c, 0, 82, 0
2, 30888, Note_on_c, 0, 74, 78
2, 30911, Note_on_c, 0, 74, 0
2, 30912, Note_on_c, 0, 74, 78
2, 30936, Note_on_c, 0, 74, 0
2, 30936, Note_on_c, 0, 72, 78
2, 30959, Note_on_c, 0, 72, 0
2, 30960, Note_on_c, 0, 72, 78
2, 30984, Note_on_c, 0, 72, 0
2, 30984, Note_on_c, 0, 79, 79
2, 31007, Note_on_c, 0, 79, 0
2, 31008, Note_on_c, 0, 79, 95
2, 31080, Note_on_c, 0, 79, 0
2, 31080, Note_on_c, 0, 70, 80
2, 31103, Note_on_c, 0, 70, 0
2, 31104, Note_on_c, 0, 70, 80
2, 31116, Note_on_c, 0, 70, 0
2, 31116, Note_on_c, 0, 72, 80
2, 31128, Note_on_c, 0, 72, 0
2, 31128, Note_on_c, 0, 70, 80
2, 31149, Note_on_c, 0, 70, 0
2, 31152, Note_on_c, 0, 69, 80
2, 31197, Note_on_c, 0, 69, 0
2, 31248, Note_on_c, 0, 70, 80
2, 31248, Note_on_c, 0, 62, 80
2, 31293, Note_on_c, 0, 70, 0
2, 31293, Note_on_c, 0, 62, 0
2, 31296, Note_on_c, 0, 70, 80
2, 31296, Note_on_c, 0, 62, 80
2, 31344, Note_on_c, 0, 62, 0
2, 31344, Note_on_c, 0, 74, 80
2, 31389, Note_on_c, 0, 74, 0
2, 31389, Note_on_c, 0, 70, 0
2, 31392, Note_on_c, 0, 74, 80
2, 31392, Note_on_c, 0, 70, 80
2, 31440, Note_on_c, 0, 70, 0
2, 31440, Note_on_c, 0, 77, 80
2, 31485, Note_on_c, 0, 77, 0
2, 31485, Note_on_c, 0, 74, 0
2, 31488, Note_on_c, 0, 77, 80
2, 31621, Note_on_c, 0, 77, 0
2, 31632, Note_on_c, 0, 75, 80
2, 31647, Note_on_c, 0, 75, 0
2, 31648, Note_on_c, 0, 77, 80
2, 31663, Note_on_c, 0, 77, 0
2, 31664, Note_on_c, 0, 79, 80
2, 31679, Note_on_c, 0, 79, 0
2, 31680, Note_on_c, 0, 77, 80
2, 31813, Note_on_c, 0, 77, 0
2, 31824, Note_on_c, 0, 75, 80
2, 31839, Note_on_c, 0, 75, 0
2, 31840, Note_on_c, 0, 77, 80
2, 31855, Note_on_c, 0, 77, 0
2, 31856, Note_on_c, 0, 79, 80
2, 31871, Note_on_c, 0, 79, 0
2, 31872, Note_on_c, 0, 77, 80
2, 31917, Note_on_c, 0, 77, 0
2, 31920, Note_on_c, 0, 82, 80
2, 31965, Note_on_c, 0, 82, 0
2, 32016, Note_on_c, 0, 70, 75
2, 32031, Note_on_c, 0, 70, 0
2, 32032, Note_on_c, 0, 72, 75
2, 32047, Note_on_c, 0, 72, 0
2, 32048, Note_on_c, 0, 70, 75
2, 32063, Note_on_c, 0, 70, 0
2, 32064, Note_on_c, 0, 67, 75
2, 32109, Note_on_c, 0, 67, 0
2, 32112, Note_on_c, 0, 70, 75
2, 32127, Note_on_c, 0, 70, 0
2, 32128, Note_on_c, 0, 72, 75
2, 32143, Note_on_c, 0, 72, 0
2, 32144, Note_on_c, 0, 70, 75
2, 32159, Note_on_c, 0, 70, 0
2, 32160, Note_on_c, 0, 65, 75
2, 32205, Note_on_c, 0, 65, 0
2, 32208, Note_on_c, 0, 77, 75
2, 32223, Note_on_c, 0, 77, 0
2, 32224, Note_on_c, 0, 74, 75
2, 32239, Note_on_c, 0, 74, 0
2, 32240, Note_on_c, 0, 70, 75
2, 32255, Note_on_c, 0, 70, 0
2, 32256, Note_on_c, 0, 70, 75
2, 32345, Note_on_c, 0, 70, 0
2, 32352, Note_on_c, 0, 68, 75
2, 32365, Note_on_c, 0, 68, 0
2, 32366, Note_on_c, 0, 70, 75
2, 32379, Note_on_c, 0, 70, 0
2, 32380, Note_on_c, 0, 68, 75
2, 32393, Note_on_c, 0, 68, 0
2, 32394, Note_on_c, 0, 70, 75
2, 32407, Note_on_c, 0, 70, 0
2, 32408, Note_on_c, 0, 68, 75
2, 32421, Note_on_c, 0, 68, 0
2, 32422, Note_on_c, 0, 67, 75
2, 32434, Note_on_c, 0, 67, 0
2, 32435, Note_on_c, 0, 68, 75
2, 32447, Note_on_c, 0, 68, 0
2, 32448, Note_on_c, 0, 67, 75
2, 32493, Note_on_c, 0, 67, 0
2, 32496, Note_on_c, 0, 78, 75
2, 32519, Note_on_c, 0, 78, 0
2, 32520, Note_on_c, 0, 79, 75
2, 32543, Note_on_c, 0, 79, 0
2, 32544, Note_on_c, 0, 77, 75
2, 32567, Note_on_c, 0, 77, 0
2, 32568, Note_on_c, 0, 75, 75
2, 32591, Note_on_c, 0, 75, 0
2, 32592, Note_on_c, 0, 74, 75
2, 32615, Note_on_c, 0, 74, 0
2, 32616, Note_on_c, 0, 72, 75
2, 32639, Note_on_c, 0, 72, 0
2, 32640, Note_on_c, 0, 70, 75
2, 32685, Note_on_c, 0, 70, 0
2, 32688, Note_on_c, 0, 69, 75
2, 32733, Note_on_c, 0, 69, 0
2, 32784, Note_on_c, 0, 70, 75
2, 32799, Note_on_c, 0, 70, 0
2, 32800, Note_on_c, 0, 72, 75
2, 32815, Note_on_c, 0, 72, 0
2, 32816, Note_on_c, 0, 70, 75
2, 32831, Note_on_c, 0, 70, 0
2, 32832, Note_on_c, 0, 58, 75
2, 32852, Note_on_c, 0, 58, 0
2, 32880, Note_on_c, 0, 58, 75
2, 32900, Note_on_c, 0, 58, 0
2, 32976, Note_on_c, 0, 70, 75
2, 32991, Note_on_c, 0, 70, 0
2, 32992, Note_on_c, 0, 72, 75
2, 33007, Note_on_c, 0, 72, 0
2, 33008, Note_on_c, 0, 70, 75
2, 33023, Note_on_c, 0, 70, 0
2, 33024, Note_on_c, 0, 60, 75
2, 33044, Note_on_c, 0, 60, 0
2, 33072, Note_on_c, 0, 60, 75
2, 33092, Note_on_c, 0, 60, 0
2, 33168, Note_on_c, 0, 70, 75
2, 33183, Note_on_c, 0, 70, 0
2, 33184, Note_on_c, 0, 72, 75
2, 33199, Note_on_c, 0, 72, 0
2, 33200, Note_on_c, 0, 70, 75
2, 33215, Note_on_c, 0, 70, 0
2, 33216, Note_on_c, 0, 62, 75
2, 33236, Note_on_c, 0, 62, 0
2, 33264, Note_on_c, 0, 62, 75
2, 33284, Note_on_c, 0, 62, 0
2, 33360, Note_on_c, 0, 70, 76
2, 33375, Note_on_c, 0, 70, 0
2, 33376, Note_on_c, 0, 72, 76
2, 33391, Note_on_c, 0, 72, 0
2, 33392, Note_on_c, 0, 70, 76
2, 33407, Note_on_c, 0, 70, 0
2, 33408, Note_on_c, 0, 63, 77
2, 33428, Note_on_c, 0, 63, 0
2, 33456, Note_on_c, 0, 63, 77
2, 33476, Note_on_c, 0, 63, 0
2, 33552, Note_on_c, 0, 70, 78
2, 33567, Note_on_c, 0, 70, 0
2, 33568, Note_on_c, 0, 72, 78
2, 33583, Note_on_c, 0, 72, 0
2, 33584, Note_on_c, 0, 70, 79
2, 33599, Note_on_c, 0, 70, 0
2, 33600, Note_on_c, 0, 64, 79
2, 33620, Note_on_c, 0, 64, 0
2, 33648, Note_on_c, 0, 73, 96
2, 33744, Note_on_c, 0, 73, 0
2, 33744, Note_on_c, 0, 72, 70
2, 33767, Note_on_c, 0, 72, 0
2, 33768, Note_on_c, 0, 70, 70
2, 33791, Note_on_c, 0, 70, 0
2, 33792, Note_on_c, 0, 70, 71
2, 33888, Note_on_c, 0, 70, 0
2, 33888, Note_on_c, 0, 69, 73
2, 33908, Note_on_c, 0, 69, 0
2, 33936, Note_on_c, 0, 70, 75
2, 33951, Note_on_c, 0, 70, 0
2, 33952, Note_on_c, 0, 72, 75
2, 33967, Note_on_c, 0, 72, 0
2, 33968, Note_on_c, 0, 70, 75
2, 33983, Note_on_c, 0, 70, 0
2, 33984, Note_on_c, 0, 64, 75
2, 34004, Note_on_c, 0, 64, 0
2, 34032, Note_on_c, 0, 73, 93
2, 34128, Note_on_c, 0, 73, 0
2, 34128, Note_on_c, 0, 72, 80
2, 34151, Note_on_c, 0, 72, 0
2, 34152, Note_on_c, 0, 70, 80
2, 34175, Note_on_c, 0, 70, 0
2, 34176, Note_on_c, 0, 72, 80
2, 34188, Note_on_c, 0, 72, 0
2, 34188, Note_on_c, 0, 70, 80
2, 34200, Note_on_c, 0, 70, 0
2, 34200, Note_on_c, 0, 72, 80
2, 34212, Note_on_c, 0, 72, 0
2, 34212, Note_on_c, 0, 70, 80
2, 34224, Note_on_c, 0, 70, 0
2, 34224, Note_on_c, 0, 72, 80
2, 34236, Note_on_c, 0, 72, 0
2, 34236, Note_on_c, 0, 70, 80
2, 34248, Note_on_c, 0, 70, 0
2, 34248, Note_on_c, 0, 69, 80
2, 34260, Note_on_c, 0, 69, 0
2, 34260, Note_on_c, 0, 70, 80
2, 34272, Note_on_c, 0, 70, 0
2, 34272, Note_on_c, 0, 69, 80
2, 34361, Note_on_c, 0, 69, 0
2, 34368, Note_on_c, 0, 82, 75
2, 34392, Note_on_c, 0, 82, 0
2, 34392, Note_on_c, 0, 81, 74
2, 34415, Note_on_c, 0, 81, 0
2, 34416, Note_on_c, 0, 81, 73
2, 34440, Note_on_c, 0, 81, 0
2, 34440, Note_on_c, 0, 79, 73
2, 34463, Note_on_c, 0, 79, 0
2, 34464, Note_on_c, 0, 79, 72
2, 34488, Note_on_c, 0, 79, 0
2, 34488, Note_on_c, 0, 77, 71
2, 34511, Note_on_c, 0, 77, 0
2, 34512, Note_on_c, 0, 77, 71
2, 34536, Note_on_c, 0, 77, 0
2, 34536, Note_on_c, 0, 78, 70
2, 34559, Note_on_c, 0, 78, 0
2, 34560, Note_on_c, 0, 78, 86
2, 34704, Note_on_c, 0, 78, 0
2, 34704, Note_on_c, 0, 79, 73
2, 34749, Note_on_c, 0, 79, 0
2, 34752, Note_on_c, 0, 82, 75
2, 34776, Note_on_c, 0, 82, 0
2, 34776, Note_on_c, 0, 81, 74
2, 34799, Note_on_c, 0, 81, 0
2, 34800, Note_on_c, 0, 81, 73
2, 34824, Note_on_c, 0, 81, 0
2, 34824, Note_on_c, 0, 79, 73
2, 34847, Note_on_c, 0, 79, 0
2, 34848, Note_on_c, 0, 79, 72
2, 34872, Note_on_c, 0, 79, 0
2, 34872, Note_on_c, 0, 77, 71
2, 34895, Note_on_c, 0, 77, 0
2, 34896, Note_on_c, 0, 77, 71
2, 34920, Note_on_c, 0, 77, 0
2, 34920, Note_on_c, 0, 78, 70
2, 34943, Note_on_c, 0, 78, 0
2, 34944, Note_on_c, 0, 78, 86
2, 35088, Note_on_c, 0, 78, 0
2, 35088, Note_on_c, 0, 79, 73
2, 35133, Note_on_c, 0, 79, 0
2, 35136, Note_on_c, 0, 82, 75
2, 35160, Note_on_c, 0, 82, 0
2, 35160, Note_on_c, 0, 81, 74
2, 35183, Note_on_c, 0, 81, 0
2, 35184, Note_on_c, 0, 81, 73
2, 35208, Note_on_c, 0, 81, 0
2, 35208, Note_on_c, 0, 79, 73
2, 35231, Note_on_c, 0, 79, 0
2, 35232, Note_on_c, 0, 79, 72
2, 35256, Note_on_c, 0, 79, 0
2, 35256, Note_on_c, 0, 77, 71
2, 35279, Note_on_c, 0, 77, 0
2, 35280, Note_on_c, 0, 77, 71
2, 35304, Note_on_c, 0, 77, 0
2, 35304, Note_on_c, 0, 76, 70
2, 35327, Note_on_c, 0, 76, 0
2, 35328, Note_on_c, 0, 76, 86
2, 35458, Note_on_c, 0, 76, 0
2, 35460, Note_on_c, 0, 86, 80
2, 35472, Note_on_c, 0, 86, 0
2, 35472, Note_on_c, 0, 76, 80
2, 35506, Note_on_c, 0, 76, 0
2, 35508, Note_on_c, 0, 86, 80
2, 35520, Note_on_c, 0, 86, 0
2, 35520, Note_on_c, 0, 76, 86
2, 35650, Note_on_c, 0, 76, 0
2, 35652, Note_on_c, 0, 86, 80
2, 35664, Note_on_c, 0, 86, 0
2, 35664, Note_on_c, 0, 76, 80
2, 35698, Note_on_c, 0, 76, 0
2, 35700, Note_on_c, 0, 86, 80
2, 35712, Note_on_c, 0, 86, 0
2, 35712, Note_on_c, 0, 75, 96
2, 35856, Note_on_c, 0, 75, 0
2, 35856, Note_on_c, 0, 79, 76
2, 35871, Note_on_c, 0, 79, 0
2, 35872, Note_on_c, 0, 77, 75
2, 35887, Note_on_c, 0, 77, 0
2, 35888, Note_on_c, 0, 75, 75
2, 35903, Note_on_c, 0, 75, 0
2, 35904, Note_on_c, 0, 74, 75
2, 35949, Note_on_c, 0, 74, 0
2, 35952, Note_on_c, 0, 82, 75
2, 35967, Note_on_c, 0, 82, 0
2, 35968, Note_on_c, 0, 84, 75
2, 35983, Note_on_c, 0, 84, 0
2, 35984, Note_on_c, 0, 82, 75
2, 35999, Note_on_c, 0, 82, 0
2, 36000, Note_on_c, 0, 79, 75
2, 36045, Note_on_c, 0, 79, 0
2, 36048, Note_on_c, 0, 75, 75
2, 36063, Note_on_c, 0, 75, 0
2, 36064, Note_on_c, 0, 77, 75
2, 36079, Note_on_c, 0, 77, 0
2, 36080, Note_on_c, 0, 75, 75
2, 36095, Note_on_c, 0, 75, 0
2, 36096, Note_on_c, 0, 65, 75
2, 36185, Note_on_c, 0, 65, 0
2, 36192, Note_on_c, 0, 74, 75
2, 36204, Note_on_c, 0, 74, 0
2, 36204, Note_on_c, 0, 72, 75
2, 36216, Note_on_c, 0, 72, 0
2, 36216, Note_on_c, 0, 74, 75
2, 36228, Note_on_c, 0, 74, 0
2, 36228, Note_on_c, 0, 72, 75
2, 36240, Note_on_c, 0, 72, 0
2, 36240, Note_on_c, 0, 74, 75
2, 36252, Note_on_c, 0, 74, 0
2, 36252, Note_on_c, 0, 72, 75
2, 36264, Note_on_c, 0, 72, 0
2, 36264, Note_on_c, 0, 70, 75
2, 36276, Note_on_c, 0, 70, 0
2, 36276, Note_on_c, 0, 72, 75
2, 36288, Note_on_c, 0, 72, 0
2, 36288, Note_on_c, 0, 70, 75
2, 36308, Note_on_c, 0, 70, 0
2, 36336, Note_on_c, 0, 82, 75
2, 36351, Note_on_c, 0, 82, 0
2, 36352, Note_on_c, 0, 84, 75
2, 36367, Note_on_c, 0, 84, 0
2, 36368, Note_on_c, 0, 82, 75
2, 36383, Note_on_c, 0, 82, 0
2, 36384, Note_on_c, 0, 79, 75
2, 36429, Note_on_c, 0, 79, 0
2, 36432, Note_on_c, 0, 75, 75
2, 36447, Note_on_c, 0, 75, 0
2, 36448, Note_on_c, 0, 77, 75
2, 36463, Note_on_c, 0, 77, 0
2, 36464, Note_on_c, 0, 75, 75
2, 36479, Note_on_c, 0, 75, 0
2, 36480, Note_on_c, 0, 65, 75
2, 36569, Note_on_c, 0, 65, 0
2, 36576, Note_on_c, 0, 74, 75
2, 36588, Note_on_c, 0, 74, 0
2, 36588, Note_on_c, 0, 72, 75
2, 36600, Note_on_c, 0, 72, 0
2, 36600, Note_on_c, 0, 74, 75
2, 36612, Note_on_c, 0, 74, 0
2, 36612, Note_on_c, 0, 72, 75
2, 36624, Note_on_c, 0, 72, 0
2, 36624, Note_on_c, 0, 74, 75
2, 36636, Note_on_c, 0, 74, 0
2, 36636, Note_on_c, 0, 72, 75
2, 36648, Note_on_c, 0, 72, 0
2, 36648, Note_on_c, 0, 70, 75
2, 36660, Note_on_c, 0, 70, 0
2, 36660, Note_on_c, 0, 72, 75
2, 36672, Note_on_c, 0, 72, 0
2, 36672, Note_on_c, 0, 70, 75
2, 36761, Note_on_c, 0, 70, 0
2, 36840, Note_on_c, 0, 70, 75
2, 36850, Note_on_c, 0, 70, 0
2, 36864, Note_on_c, 0, 58, 64
2, 37008, Note_on_c, 0, 58, 0
2, 37008, Note_on_c, 0, 59, 68
2, 37053, Note_on_c, 0, 59, 0
2, 37056, Note_on_c, 0, 60, 70
2, 37101, Note_on_c, 0, 60, 0
2, 37104, Note_on_c, 0, 62, 72
2, 37110, Note_on_c, 0, 62, 0
2, 37110, Note_on_c, 0, 63, 72
2, 37149, Note_on_c, 0, 63, 0
2, 37152, Note_on_c, 0, 66, 73
2, 37158, Note_on_c, 0, 66, 0
2, 37158, Note_on_c, 0, 67, 73
2, 37197, Note_on_c, 0, 67, 0
2, 37200, Note_on_c, 0, 71, 75
2, 37206, Note_on_c, 0, 71, 0
2, 37206, Note_on_c, 0, 72, 75
2, 37245, Note_on_c, 0, 72, 0
2, 37248, Note_on_c, 0, 74, 76
2, 37254, Note_on_c, 0, 74, 0
2, 37254, Note_on_c, 0, 75, 76
2, 37293, Note_on_c, 0, 75, 0
2, 37296, Note_on_c, 0, 78, 78
2, 37302, Note_on_c, 0, 78, 0
2, 37302, Note_on_c, 0, 79, 78
2, 37341, Note_on_c, 0, 79, 0
2, 37344, Note_on_c, 0, 77, 80
2, 37359, Note_on_c, 0, 77, 0
2, 37360, Note_on_c, 0, 75, 80
2, 37375, Note_on_c, 0, 75, 0
2, 37376, Note_on_c, 0, 74, 80
2, 37391, Note_on_c, 0, 74, 0
2, 37392, Note_on_c, 0, 75, 80
2, 37407, Note_on_c, 0, 75, 0
2, 37408, Note_on_c, 0, 74, 80
2, 37423, Note_on_c, 0, 74, 0
2, 37424, Note_on_c, 0, 72, 80
2, 37439, Note_on_c, 0, 72, 0
2, 37440, Note_on_c, 0, 70, 80
2, 37507, Note_on_c, 0, 70, 0
2, 37512, Note_on_c, 0, 72, 80
2, 37535, Note_on_c, 0, 72, 0
2, 37536, Note_on_c, 0, 74, 80
2, 37548, Note_on_c, 0, 74, 0
2, 37548, Note_on_c, 0, 72, 80
2, 37560, Note_on_c, 0, 72, 0
2, 37560, Note_on_c, 0, 74, 80
2, 37572, Note_on_c, 0, 74, 0
2, 37572, Note_on_c, 0, 72, 80
2, 37584, Note_on_c, 0, 72, 0
2, 37584, Note_on_c, 0, 74, 80
2, 37596, Note_on_c, 0, 74, 0
2, 37596, Note_on_c, 0, 72, 80
2, 37608, Note_on_c, 0, 72, 0
2, 37608, Note_on_c, 0, 70, 80
2, 37620, Note_on_c, 0, 70, 0
2, 37620, Note_on_c, 0, 72, 80
2, 37632, Note_on_c, 0, 72, 0
2, 37632, Note_on_c, 0, 70, 80
2, 37721, Note_on_c, 0, 70, 0
2, 37728, Note_on_c, 0, 77, 75
2, 37751, Note_on_c, 0, 77, 0
2, 37752, Note_on_c, 0, 65, 75
2, 37775, Note_on_c, 0, 65, 0
2, 37776, Note_on_c, 0, 77, 75
2, 37799, Note_on_c, 0, 77, 0
2, 37800, Note_on_c, 0, 65, 75
2, 37823, Note_on_c, 0, 65, 0
2, 37824, Note_on_c, 0, 75, 75
2, 37847, Note_on_c, 0, 75, 0
2, 37848, Note_on_c, 0, 65, 75
2, 37871, Note_on_c, 0, 65, 0
2, 37872, Note_on_c, 0, 75, 75
2, 37895, Note_on_c, 0, 75, 0
2, 37896, Note_on_c, 0, 65, 75
2, 37919, Note_on_c, 0, 65, 0
2, 37920, Note_on_c, 0, 75, 75
2, 37943, Note_on_c, 0, 75, 0
2, 37944, Note_on_c, 0, 65, 75
2, 37967, Note_on_c, 0, 65, 0
2, 37968, Note_on_c, 0, 75, 75
2, 37991, Note_on_c, 0, 75, 0
2, 37992, Note_on_c, 0, 65, 75
2, 38015, Note_on_c, 0, 65, 0
2, 38016, Note_on_c, 0, 77, 75
2, 38016, Note_on_c, 0, 74, 75
2, 38105, Note_on_c, 0, 77, 0
2, 38105, Note_on_c, 0, 74, 0
2, 38112, Note_on_c, 0, 77, 64
2, 38135, Note_on_c, 0, 77, 0
2, 38136, Note_on_c, 0, 65, 64
2, 38159, Note_on_c, 0, 65, 0
2, 38160, Note_on_c, 0, 77, 64
2, 38183, Note_on_c, 0, 77, 0
2, 38184, Note_on_c, 0, 65, 64
2, 38207, Note_on_c, 0, 65, 0
2, 38208, Note_on_c, 0, 75, 64
2, 38231, Note_on_c, 0, 75, 0
2, 38232, Note_on_c, 0, 65, 64
2, 38255, Note_on_c, 0, 65, 0
2, 38256, Note_on_c, 0, 75, 64
2, 38279, Note_on_c, 0, 75, 0
2, 38280, Note_on_c, 0, 65, 64
2, 38303, Note_on_c, 0, 65, 0
2, 38304, Note_on_c, 0, 75, 64
2, 38327, Note_on_c, 0, 75, 0
2, 38328, Note_on_c, 0, 65, 64
2, 38351, Note_on_c, 0, 65, 0
2, 38352, Note_on_c, 0, 75, 64
2, 38375, Note_on_c, 0, 75, 0
2, 38376, Note_on_c, 0, 65, 64
2, 38399, Note_on_c, 0, 65, 0
2, 38400, Note_on_c, 0, 77, 64
2, 38400, Note_on_c, 0, 74, 64
2, 38489, Note_on_c, 0, 77, 0
2, 38489, Note_on_c, 0, 74, 0
2, 38496, Note_on_c, 0, 77, 75
2, 38519, Note_on_c, 0, 77, 0
2, 38520, Note_on_c, 0, 65, 75
2, 38543, Note_on_c, 0, 65, 0
2, 38544, Note_on_c, 0, 77, 75
2, 38567, Note_on_c, 0, 77, 0
2, 38568, Note_on_c, 0, 65, 75
2, 38591, Note_on_c, 0, 65, 0
2, 38592, Note_on_c, 0, 75, 75
2, 38615, Note_on_c, 0, 75, 0
2, 38616, Note_on_c, 0, 65, 75
2, 38639, Note_on_c, 0, 65, 0
2, 38640, Note_on_c, 0, 75, 75
2, 38663, Note_on_c, 0, 75, 0
2, 38664, Note_on_c, 0, 65, 75
2, 38687, Note_on_c, 0, 65, 0
2, 38688, Note_on_c, 0, 75, 75
2, 38711, Note_on_c, 0, 75, 0
2, 38712, Note_on_c, 0, 65, 75
2, 38735, Note_on_c, 0, 65, 0
2, 38736, Note_on_c, 0, 75, 75
2, 38759, Note_on_c, 0, 75, 0
2, 38760, Note_on_c, 0, 65, 75
2, 38783, Note_on_c, 0, 65, 0
2, 38784, Note_on_c, 0, 77, 75
2, 38784, Note_on_c, 0, 74, 75
2, 38829, Note_on_c, 0, 77, 0
2, 38829, Note_on_c, 0, 74, 0
2, 38832, Note_on_c, 0, 70, 75
2, 38847, Note_on_c, 0, 70, 0
2, 38848, Note_on_c, 0, 72, 75
2, 38863, Note_on_c, 0, 72, 0
2, 38864, Note_on_c, 0, 70, 75
2, 38879, Note_on_c, 0, 70, 0
2, 38880, Note_on_c, 0, 67, 75
2, 38900, Note_on_c, 0, 67, 0
2, 38928, Note_on_c, 0, 75, 75
2, 38943, Note_on_c, 0, 75, 0
2, 38944, Note_on_c, 0, 77, 75
2, 38959, Note_on_c, 0, 77, 0
2, 38960, Note_on_c, 0, 75, 75
2, 38975, Note_on_c, 0, 75, 0
2, 38976, Note_on_c, 0, 65, 75
2, 39065, Note_on_c, 0, 65, 0
2, 39072, Note_on_c, 0, 74, 75
2, 39084, Note_on_c, 0, 74, 0
2, 39084, Note_on_c, 0, 72, 75
2, 39096, Note_on_c, 0, 72, 0
2, 39096, Note_on_c, 0, 74, 75
2, 39108, Note_on_c, 0, 74, 0
2, 39108, Note_on_c, 0, 72, 75
2, 39120, Note_on_c, 0, 72, 0
2, 39120, Note_on_c, 0, 74, 75
2, 39132, Note_on_c, 0, 74, 0
2, 39132, Note_on_c, 0, 72, 75
2, 39144, Note_on_c, 0, 72, 0
2, 39144, Note_on_c, 0, 70, 75
2, 39156, Note_on_c, 0, 70, 0
2, 39156, Note_on_c, 0, 72, 75
2, 39168, Note_on_c, 0, 72, 0
2, 39168, Note_on_c, 0, 70, 75
2, 39257, Note_on_c, 0, 70, 0
2, 39264, Note_on_c, 0, 77, 70
2, 39288, Note_on_c, 0, 77, 0
2, 39288, Note_on_c, 0, 79, 69
2, 39311, Note_on_c, 0, 79, 0
2, 39312, Note_on_c, 0, 81, 69
2, 39336, Note_on_c, 0, 81, 0
2, 39336, Note_on_c, 0, 82, 68
2, 39359, Note_on_c, 0, 82, 0
2, 39360, Note_on_c, 0, 79, 68
2, 39384, Note_on_c, 0, 79, 0
2, 39384, Note_on_c, 0, 81, 68
2, 39407, Note_on_c, 0, 81, 0
2, 39408, Note_on_c, 0, 82, 67
2, 39432, Note_on_c, 0, 82, 0
2, 39432, Note_on_c, 0, 84, 67
2, 39455, Note_on_c, 0, 84, 0
2, 39456, Note_on_c, 0, 82, 67
2, 39480, Note_on_c, 0, 82, 0
2, 39480, Note_on_c, 0, 81, 66
2, 39503, Note_on_c, 0, 81, 0
2, 39504, Note_on_c, 0, 79, 66
2, 39528, Note_on_c, 0, 79, 0
2, 39528, Note_on_c, 0, 81, 65
2, 39551, Note_on_c, 0, 81, 0
2, 39552, Note_on_c, 0, 82, 81
2, 39648, Note_on_c, 0, 82, 0
2, 39648, Note_on_c, 0, 65, 64
2, 39663, Note_on_c, 0, 65, 0
2, 39664, Note_on_c, 0, 67, 75
2, 39679, Note_on_c, 0, 67, 0
2, 39680, Note_on_c, 0, 65, 74
2, 39695, Note_on_c, 0, 65, 0
2, 39696, Note_on_c, 0, 70, 74
2, 39741, Note_on_c, 0, 70, 0
2, 39744, Note_on_c, 0, 67, 73
2, 39759, Note_on_c, 0, 67, 0
2, 39760, Note_on_c, 0, 69, 73
2, 39775, Note_on_c, 0, 69, 0
2, 39776, Note_on_c, 0, 67, 73
2, 39791, Note_on_c, 0, 67, 0
2, 39792, Note_on_c, 0, 72, 73
2, 39837, Note_on_c, 0, 72, 0
2, 39840, Note_on_c, 0, 70, 72
2, 39863, Note_on_c, 0, 70, 0
2, 39864, Note_on_c, 0, 69, 72
2, 39887, Note_on_c, 0, 69, 0
2, 39888, Note_on_c, 0, 67, 71
2, 39911, Note_on_c, 0, 67, 0
2, 39912, Note_on_c, 0, 69, 71
2, 39935, Note_on_c, 0, 69, 0
2, 39936, Note_on_c, 0, 70, 87
2, 39984, Note_on_c, 0, 70, 0
2, 39984, Note_on_c, 0, 70, 70
2, 39999, Note_on_c, 0, 70, 0
2, 40000, Note_on_c, 0, 72, 71
2, 40015, Note_on_c, 0, 72, 0
2, 40016, Note_on_c, 0, 74, 72
2, 40031, Note_on_c, 0, 74, 0
2, 40032, Note_on_c, 0, 70, 91
2, 40080, Note_on_c, 0, 70, 0
2, 40080, Note_on_c, 0, 70, 75
2, 40095, Note_on_c, 0, 70, 0
2, 40096, Note_on_c, 0, 72, 75
2, 40111, Note_on_c, 0, 72, 0
2, 40112, Note_on_c, 0, 74, 75
2, 40127, Note_on_c, 0, 74, 0
2, 40128, Note_on_c, 0, 65, 91
2, 40224, Note_on_c, 0, 65, 0
2, 40272, Note_on_c, 0, 65, 75
2, 40272, Note_on_c, 0, 57, 75
2, 40317, Note_on_c, 0, 65, 0
2, 40317, Note_on_c, 0, 57, 0
2, 40320, Note_on_c, 0, 65, 75
2, 40320, Note_on_c, 0, 57, 75
2, 40368, Note_on_c, 0, 57, 0
2, 40368, Note_on_c, 0, 69, 75
2, 40413, Note_on_c, 0, 69, 0
2, 40413, Note_on_c, 0, 65, 0
2, 40416, Note_on_c, 0, 69, 75
2, 40416, Note_on_c, 0, 65, 75
2, 40464, Note_on_c, 0, 65, 0
2, 40464, Note_on_c, 0, 72, 75
2, 40509, Note_on_c, 0, 72, 0
2, 40509, Note_on_c, 0, 69, 0
2, 40512, Note_on_c, 0, 72, 75
2, 40645, Note_on_c, 0, 72, 0
2, 40656, Note_on_c, 0, 70, 75
2, 40671, Note_on_c, 0, 70, 0
2, 40672, Note_on_c, 0, 72, 75
2, 40687, Note_on_c, 0, 72, 0
2, 40688, Note_on_c, 0, 74, 75
2, 40703, Note_on_c, 0, 74, 0
2, 40704, Note_on_c, 0, 72, 75
2, 40837, Note_on_c, 0, 72, 0
2, 40848, Note_on_c, 0, 70, 75
2, 40863, Note_on_c, 0, 70, 0
2, 40864, Note_on_c, 0, 72, 75
2, 40879, Note_on_c, 0, 72, 0
2, 40880, Note_on_c, 0, 74, 75
2, 40895, Note_on_c, 0, 74, 0
2, 40896, Note_on_c, 0, 72, 75
2, 40941, Note_on_c, 0, 72, 0
2, 40944, Note_on_c, 0, 77, 75
2, 40989, Note_on_c, 0, 77, 0
2, 41040, Note_on_c, 0, 65, 75
2, 41055, Note_on_c, 0, 65, 0
2, 41056, Note_on_c, 0, 67, 75
2, 41071, Note_on_c, 0, 67, 0
2, 41072, Note_on_c, 0, 65, 75
2, 41087, Note_on_c, 0, 65, 0
2, 41088, Note_on_c, 0, 62, 75
2, 41133, Note_on_c, 0, 62, 0
2, 41136, Note_on_c, 0, 65, 75
2, 41151, Note_on_c, 0, 65, 0
2, 41152, Note_on_c, 0, 67, 75
2, 41167, Note_on_c, 0, 67, 0
2, 41168, Note_on_c, 0, 65, 75
2, 41183, Note_on_c, 0, 65, 0
2, 41184, Note_on_c, 0, 60, 75
2, 41229, Note_on_c, 0, 60, 0
2, 41232, Note_on_c, 0, 72, 75
2, 41247, Note_on_c, 0, 72, 0
2, 41248, Note_on_c, 0, 69, 75
2, 41263, Note_on_c, 0, 69, 0
2, 41264, Note_on_c, 0, 65, 75
2, 41279, Note_on_c, 0, 65, 0
2, 41280, Note_on_c, 0, 60, 75
2, 41369, Note_on_c, 0, 60, 0
2, 41376, Note_on_c, 0, 58, 75
2, 41389, Note_on_c, 0, 58, 0
2, 41390, Note_on_c, 0, 60, 75
2, 41403, Note_on_c, 0, 60, 0
2, 41404, Note_on_c, 0, 58, 75
2, 41417, Note_on_c, 0, 58, 0
2, 41418, Note_on_c, 0, 60, 75
2, 41431, Note_on_c, 0, 60, 0
2, 41432, Note_on_c, 0, 58, 75
2, 41445, Note_on_c, 0, 58, 0
2, 41446, Note_on_c, 0, 57, 75
2, 41458, Note_on_c, 0, 57, 0
2, 41459, Note_on_c, 0, 58, 75
2, 41471, Note_on_c, 0, 58, 0
2, 41472, Note_on_c, 0, 57, 75
2, 41561, Note_on_c, 0, 57, 0
2, 41616, Note_on_c, 0, 70, 75
2, 41631, Note_on_c, 0, 70, 0
2, 41632, Note_on_c, 0, 72, 75
2, 41647, Note_on_c, 0, 72, 0
2, 41648, Note_on_c, 0, 70, 75
2, 41663, Note_on_c, 0, 70, 0
2, 41664, Note_on_c, 0, 67, 75
2, 41709, Note_on_c, 0, 67, 0
2, 41712, Note_on_c, 0, 70, 75
2, 41727, Note_on_c, 0, 70, 0
2, 41728, Note_on_c, 0, 72, 75
2, 41743, Note_on_c, 0, 72, 0
2, 41744, Note_on_c, 0, 70, 75
2, 41759, Note_on_c, 0, 70, 0
2, 41760, Note_on_c, 0, 65, 75
2, 41805, Note_on_c, 0, 65, 0
2, 41808, Note_on_c, 0, 77, 75
2, 41823, Note_on_c, 0, 77, 0
2, 41824, Note_on_c, 0, 74, 75
2, 41839, Note_on_c, 0, 74, 0
2, 41840, Note_on_c, 0, 70, 75
2, 41855, Note_on_c, 0, 70, 0
2, 41856, Note_on_c, 0, 65, 75
2, 41945, Note_on_c, 0, 65, 0
2, 41952, Note_on_c, 0, 63, 75
2, 41965, Note_on_c, 0, 63, 0
2, 41966, Note_on_c, 0, 65, 75
2, 41979, Note_on_c, 0, 65, 0
2, 41980, Note_on_c, 0, 63, 75
2, 41993, Note_on_c, 0, 63, 0
2, 41994, Note_on_c, 0, 65, 75
2, 42007, Note_on_c, 0, 65, 0
2, 42008, Note_on_c, 0, 63, 75
2, 42021, Note_on_c, 0, 63, 0
2, 42022, Note_on_c, 0, 62, 75
2, 42034, Note_on_c, 0, 62, 0
2, 42035, Note_on_c, 0, 63, 75
2, 42047, Note_on_c, 0, 63, 0
2, 42048, Note_on_c, 0, 62, 75
2, 42093, Note_on_c, 0, 62, 0
2, 42096, Note_on_c, 0, 63, 75
2, 42111, Note_on_c, 0, 63, 0
2, 42112, Note_on_c, 0, 65, 75
2, 42127, Note_on_c, 0, 65, 0
2, 42128, Note_on_c, 0, 67, 75
2, 42143, Note_on_c, 0, 67, 0
2, 42144, Note_on_c, 0, 65, 75
2, 42189, Note_on_c, 0, 65, 0
2, 42192, Note_on_c, 0, 67, 75
2, 42237, Note_on_c, 0, 67, 0
2, 42240, Note_on_c, 0, 68, 75
2, 42285, Note_on_c, 0, 68, 0
2, 42288, Note_on_c, 0, 72, 75
2, 42303, Note_on_c, 0, 72, 0
2, 42304, Note_on_c, 0, 70, 75
2, 42319, Note_on_c, 0, 70, 0
2, 42320, Note_on_c, 0, 68, 75
2, 42335, Note_on_c, 0, 68, 0
2, 42336, Note_on_c, 0, 67, 75
2, 42425, Note_on_c, 0, 67, 0
2, 42432, Note_on_c, 0, 64, 75
2, 42477, Note_on_c, 0, 64, 0
2, 42480, Note_on_c, 0, 65, 75
2, 42495, Note_on_c, 0, 65, 0
2, 42496, Note_on_c, 0, 67, 75
2, 42511, Note_on_c, 0, 67, 0
2, 42512, Note_on_c, 0, 69, 75
2, 42527, Note_on_c, 0, 69, 0
2, 42528, Note_on_c, 0, 67, 75
2, 42573, Note_on_c, 0, 67, 0
2, 42576, Note_on_c, 0, 69, 75
2, 42621, Note_on_c, 0, 69, 0
2, 42624, Note_on_c, 0, 70, 75
2, 42669, Note_on_c, 0, 70, 0
2, 42672, Note_on_c, 0, 74, 75
2, 42687, Note_on_c, 0, 74, 0
2, 42688, Note_on_c, 0, 72, 75
2, 42703, Note_on_c, 0, 72, 0
2, 42704, Note_on_c, 0, 70, 75
2, 42719, Note_on_c, 0, 70, 0
2, 42720, Note_on_c, 0, 69, 75
2, 42809, Note_on_c, 0, 69, 0
2, 42816, Note_on_c, 0, 66, 75
2, 42861, Note_on_c, 0, 66, 0
2, 42864, Note_on_c, 0, 67, 75
2, 42879, Note_on_c, 0, 67, 0
2, 42880, Note_on_c, 0, 69, 75
2, 42895, Note_on_c, 0, 69, 0
2, 42896, Note_on_c, 0, 70, 75
2, 42911, Note_on_c, 0, 70, 0
2, 42912, Note_on_c, 0, 69, 75
2, 42957, Note_on_c, 0, 69, 0
2, 42960, Note_on_c, 0, 70, 75
2, 43005, Note_on_c, 0, 70, 0
2, 43008, Note_on_c, 0, 72, 75
2, 43053, Note_on_c, 0, 72, 0
2, 43056, Note_on_c, 0, 75, 75
2, 43071, Note_on_c, 0, 75, 0
2, 43072, Note_on_c, 0, 74, 75
2, 43087, Note_on_c, 0, 74, 0
2, 43088, Note_on_c, 0, 72, 75
2, 43103, Note_on_c, 0, 72, 0
2, 43104, Note_on_c, 0, 70, 75
2, 43193, Note_on_c, 0, 70, 0
2, 43200, Note_on_c, 0, 82, 75
2, 43224, Note_on_c, 0, 82, 0
2, 43224, Note_on_c, 0, 81, 74
2, 43247, Note_on_c, 0, 81, 0
2, 43248, Note_on_c, 0, 81, 74
2, 43272, Note_on_c, 0, 81, 0
2, 43272, Note_on_c, 0, 79, 73
2, 43295, Note_on_c, 0, 79, 0
2, 43296, Note_on_c, 0, 79, 73
2, 43320, Note_on_c, 0, 79, 0
2, 43320, Note_on_c, 0, 77, 72
2, 43343, Note_on_c, 0, 77, 0
2, 43344, Note_on_c, 0, 77, 72
2, 43368, Note_on_c, 0, 77, 0
2, 43368, Note_on_c, 0, 76, 72
2, 43391, Note_on_c, 0, 76, 0
2, 43392, Note_on_c, 0, 76, 71
2, 43416, Note_on_c, 0, 76, 0
2, 43416, Note_on_c, 0, 74, 71
2, 43439, Note_on_c, 0, 74, 0
2, 43440, Note_on_c, 0, 74, 70
2, 43464, Note_on_c, 0, 74, 0
2, 43464, Note_on_c, 0, 73, 70
2, 43487, Note_on_c, 0, 73, 0
2, 43488, Note_on_c, 0, 73, 70
2, 43577, Note_on_c, 0, 73, 0
2, 43584, Note_on_c, 0, 81, 75
2, 43608, Note_on_c, 0, 81, 0
2, 43608, Note_on_c, 0, 79, 74
2, 43631, Note_on_c, 0, 79, 0
2, 43632, Note_on_c, 0, 79, 74
2, 43656, Note_on_c, 0, 79, 0
2, 43656, Note_on_c, 0, 77, 73
2, 43679, Note_on_c, 0, 77, 0
2, 43680, Note_on_c, 0, 77, 73
2, 43704, Note_on_c, 0, 77, 0
2, 43704, Note_on_c, 0, 76, 72
2, 43727, Note_on_c, 0, 76, 0
2, 43728, Note_on_c, 0, 76, 72
2, 43752, Note_on_c, 0, 76, 0
2, 43752, Note_on_c, 0, 74, 72
2, 43775, Note_on_c, 0, 74, 0
2, 43776, Note_on_c, 0, 74, 71
2, 43800, Note_on_c, 0, 74, 0
2, 43800, Note_on_c, 0, 72, 71
2, 43823, Note_on_c, 0, 72, 0
2, 43824, Note_on_c, 0, 72, 70
2, 43848, Note_on_c, 0, 72, 0
2, 43848, Note_on_c, 0, 71, 70
2, 43871, Note_on_c, 0, 71, 0
2, 43872, Note_on_c, 0, 71, 70
2, 43961, Note_on_c, 0, 71, 0
2, 43968, Note_on_c, 0, 79, 75
2, 43992, Note_on_c, 0, 79, 0
2, 43992, Note_on_c, 0, 77, 74
2, 44015, Note_on_c, 0, 77, 0
2, 44016, Note_on_c, 0, 77, 74
2, 44040, Note_on_c, 0, 77, 0
2, 44040, Note_on_c, 0, 75, 73
2, 44063, Note_on_c, 0, 75, 0
2, 44064, Note_on_c, 0, 75, 73
2, 44088, Note_on_c, 0, 75, 0
2, 44088, Note_on_c, 0, 74, 72
2, 44111, Note_on_c, 0, 74, 0
2, 44112, Note_on_c, 0, 74, 72
2, 44136, Note_on_c, 0, 74, 0
2, 44136, Note_on_c, 0, 72, 72
2, 44159, Note_on_c, 0, 72, 0
2, 44160, Note_on_c, 0, 72, 71
2, 44184, Note_on_c, 0, 72, 0
2, 44184, Note_on_c, 0, 70, 71
2, 44207, Note_on_c, 0, 70, 0
2, 44208, Note_on_c, 0, 70, 70
2, 44232, Note_on_c, 0, 70, 0
2, 44232, Note_on_c, 0, 69, 70
2, 44255, Note_on_c, 0, 69, 0
2, 44256, Note_on_c, 0, 69, 70
2, 44345, Note_on_c, 0, 69, 0
2, 44352, Note_on_c, 0, 77, 70
2, 44376, Note_on_c, 0, 77, 0
2, 44376, Note_on_c, 0, 75, 69
2, 44399, Note_on_c, 0, 75, 0
2, 44400, Note_on_c, 0, 75, 68
2, 44424, Note_on_c, 0, 75, 0
2, 44424, Note_on_c, 0, 74, 68
2, 44447, Note_on_c, 0, 74, 0
2, 44448, Note_on_c, 0, 74, 67
2, 44472, Note_on_c, 0, 74, 0
2, 44472, Note_on_c, 0, 72, 67
2, 44495, Note_on_c, 0, 72, 0
2, 44496, Note_on_c, 0, 72, 66
2, 44520, Note_on_c, 0, 72, 0
2, 44520, Note_on_c, 0, 70, 65
2, 44543, Note_on_c, 0, 70, 0
2, 44544, Note_on_c, 0, 70, 65
2, 44589, Note_on_c, 0, 70, 0
2, 44592, Note_on_c, 0, 77, 64
2, 44607, Note_on_c, 0, 77, 0
2, 44608, Note_on_c, 0, 74, 64
2, 44623, Note_on_c, 0, 74, 0
2, 44624, Note_on_c, 0, 70, 64
2, 44639, Note_on_c, 0, 70, 0
2, 44640, Note_on_c, 0, 70, 65
2, 44685, Note_on_c, 0, 70, 0
2, 44688, Note_on_c, 0, 68, 66
2, 44700, Note_on_c, 0, 68, 0
2, 44700, Note_on_c, 0, 70, 66
2, 44712, Note_on_c, 0, 70, 0
2, 44712, Note_on_c, 0, 68, 66
2, 44733, Note_on_c, 0, 68, 0
2, 44736, Note_on_c, 0, 67, 68
2, 44781, Note_on_c, 0, 67, 0
2, 44784, Note_on_c, 0, 79, 69
2, 44799, Note_on_c, 0, 79, 0
2, 44800, Note_on_c, 0, 76, 69
2, 44815, Note_on_c, 0, 76, 0
2, 44816, Note_on_c, 0, 72, 70
2, 44831, Note_on_c, 0, 72, 0
2, 44832, Note_on_c, 0, 72, 70
2, 44877, Note_on_c, 0, 72, 0
2, 44880, Note_on_c, 0, 70, 72
2, 44892, Note_on_c, 0, 70, 0
2, 44892, Note_on_c, 0, 72, 72
2, 44904, Note_on_c, 0, 72, 0
2, 44904, Note_on_c, 0, 70, 72
2, 44925, Note_on_c, 0, 70, 0
2, 44928, Note_on_c, 0, 69, 73
2, 44973, Note_on_c, 0, 69, 0
2, 44976, Note_on_c, 0, 81, 74
2, 44991, Note_on_c, 0, 81, 0
2, 44992, Note_on_c, 0, 78, 75
2, 45007, Note_on_c, 0, 78, 0
2, 45008, Note_on_c, 0, 74, 75
2, 45023, Note_on_c, 0, 74, 0
2, 45024, Note_on_c, 0, 74, 76
2, 45069, Note_on_c, 0, 74, 0
2, 45072, Note_on_c, 0, 72, 77
2, 45084, Note_on_c, 0, 72, 0
2, 45084, Note_on_c, 0, 74, 77
2, 45096, Note_on_c, 0, 74, 0
2, 45096, Note_on_c, 0, 72, 77
2, 45117, Note_on_c, 0, 72, 0
2, 45120, Note_on_c, 0, 70, 80
2, 45165, Note_on_c, 0, 70, 0
2, 45168, Note_on_c, 0, 75, 80
2, 45183, Note_on_c, 0, 75, 0
2, 45184, Note_on_c, 0, 77, 80
2, 45199, Note_on_c, 0, 77, 0
2, 45200, Note_on_c, 0, 75, 80
2, 45215, Note_on_c, 0, 75, 0
2, 45216, Note_on_c, 0, 74, 80
2, 45261, Note_on_c, 0, 74, 0
2, 45264, Note_on_c, 0, 79, 80
2, 45279, Note_on_c, 0, 79, 0
2, 45280, Note_on_c, 0, 81, 80
2, 45295, Note_on_c, 0, 81, 0
2, 45296, Note_on_c, 0, 79, 80
2, 45311, Note_on_c, 0, 79, 0
2, 45312, Note_on_c, 0, 69, 80
2, 45379, Note_on_c, 0, 69, 0
2, 45384, Note_on_c, 0, 75, 80
2, 45407, Note_on_c, 0, 75, 0
2, 45408, Note_on_c, 0, 74, 80
2, 45431, Note_on_c, 0, 74, 0
2, 45432, Note_on_c, 0, 72, 80
2, 45455, Note_on_c, 0, 72, 0
2, 45456, Note_on_c, 0, 70, 80
2, 45479, Note_on_c, 0, 70, 0
2, 45480, Note_on_c, 0, 69, 80
2, 45503, Note_on_c, 0, 69, 0
2, 45504, Note_on_c, 0, 70, 80
2, 45549, Note_on_c, 0, 70, 0
2, 45552, Note_on_c, 0, 75, 80
2, 45567, Note_on_c, 0, 75, 0
2, 45568, Note_on_c, 0, 77, 80
2, 45583, Note_on_c, 0, 77, 0
2, 45584, Note_on_c, 0, 75, 80
2, 45599, Note_on_c, 0, 75, 0
2, 45600, Note_on_c, 0, 74, 80
2, 45645, Note_on_c, 0, 74, 0
2, 45648, Note_on_c, 0, 79, 80
2, 45663, Note_on_c, 0, 79, 0
2, 45664, Note_on_c, 0, 81, 80
2, 45679, Note_on_c, 0, 81, 0
2, 45680, Note_on_c, 0, 79, 80
2, 45695, Note_on_c, 0, 79, 0
2, 45696, Note_on_c, 0, 69, 80
2, 45763, Note_on_c, 0, 69, 0
2, 45768, Note_on_c, 0, 75, 80
2, 45791, Note_on_c, 0, 75, 0
2, 45792, Note_on_c, 0, 74, 80
2, 45815, Note_on_c, 0, 74, 0
2, 45816, Note_on_c, 0, 72, 80
2, 45839, Note_on_c, 0, 72, 0
2, 45840, Note_on_c, 0, 70, 80
2, 45863, Note_on_c, 0, 70, 0
2, 45864, Note_on_c, 0, 69, 80
2, 45887, Note_on_c, 0, 69, 0
2, 45888, Note_on_c, 0, 67, 80
2, 45977, Note_on_c, 0, 67, 0
2, 45984, Note_on_c, 0, 79, 80
2, 46029, Note_on_c, 0, 79, 0
2, 46032, Note_on_c, 0, 79, 80
2, 46077, Note_on_c, 0, 79, 0
2, 46080, Note_on_c, 0, 79, 80
2, 46125, Note_on_c, 0, 79, 0
2, 46128, Note_on_c, 0, 79, 80
2, 46173, Note_on_c, 0, 79, 0
2, 46176, Note_on_c, 0, 79, 80
2, 46221, Note_on_c, 0, 79, 0
2, 46224, Note_on_c, 0, 79, 80
2, 46269, Note_on_c, 0, 79, 0
2, 46272, Note_on_c, 0, 79, 80
2, 46317, Note_on_c, 0, 79, 0
2, 46320, Note_on_c, 0, 79, 80
2, 46365, Note_on_c, 0, 79, 0
2, 46368, Note_on_c, 0, 77, 80
2, 46413, Note_on_c, 0, 77, 0
2, 46416, Note_on_c, 0, 77, 80
2, 46461, Note_on_c, 0, 77, 0
2, 46464, Note_on_c, 0, 77, 80
2, 46509, Note_on_c, 0, 77, 0
2, 46512, Note_on_c, 0, 77, 80
2, 46557, Note_on_c, 0, 77, 0
2, 46560, Note_on_c, 0, 77, 80
2, 46605, Note_on_c, 0, 77, 0
2, 46608, Note_on_c, 0, 77, 80
2, 46653, Note_on_c, 0, 77, 0
2, 46656, Note_on_c, 0, 77, 80
2, 46701, Note_on_c, 0, 77, 0
2, 46704, Note_on_c, 0, 77, 80
2, 46749, Note_on_c, 0, 77, 0
2, 46752, Note_on_c, 0, 65, 70
2, 46764, Note_on_c, 0, 65, 0
2, 46764, Note_on_c, 0, 67, 70
2, 46776, Note_on_c, 0, 67, 0
2, 46776, Note_on_c, 0, 68, 70
2, 46843, Note_on_c, 0, 68, 0
2, 46848, Note_on_c, 0, 68, 70
2, 46872, Note_on_c, 0, 68, 0
2, 46872, Note_on_c, 0, 67, 71
2, 46895, Note_on_c, 0, 67, 0
2, 46896, Note_on_c, 0, 67, 71
2, 46920, Note_on_c, 0, 67, 0
2, 46920, Note_on_c, 0, 70, 71
2, 46943, Note_on_c, 0, 70, 0
2, 46944, Note_on_c, 0, 70, 71
2, 46968, Note_on_c, 0, 70, 0
2, 46968, Note_on_c, 0, 69, 72
2, 46991, Note_on_c, 0, 69, 0
2, 46992, Note_on_c, 0, 69, 72
2, 47016, Note_on_c, 0, 69, 0
2, 47016, Note_on_c, 0, 72, 72
2, 47039, Note_on_c, 0, 72, 0
2, 47040, Note_on_c, 0, 72, 72
2, 47064, Note_on_c, 0, 72, 0
2, 47064, Note_on_c, 0, 70, 73
2, 47087, Note_on_c, 0, 70, 0
2, 47088, Note_on_c, 0, 70, 73
2, 47112, Note_on_c, 0, 70, 0
2, 47112, Note_on_c, 0, 74, 73
2, 47135, Note_on_c, 0, 74, 0
2, 47136, Note_on_c, 0, 74, 73
2, 47160, Note_on_c, 0, 74, 0
2, 47160, Note_on_c, 0, 72, 73
2, 47183, Note_on_c, 0, 72, 0
2, 47184, Note_on_c, 0, 72, 74
2, 47208, Note_on_c, 0, 72, 0
2, 47208, Note_on_c, 0, 75, 74
2, 47231, Note_on_c, 0, 75, 0
2, 47232, Note_on_c, 0, 75, 74
2, 47256, Note_on_c, 0, 75, 0
2, 47256, Note_on_c, 0, 74, 74
2, 47279, Note_on_c, 0, 74, 0
2, 47280, Note_on_c, 0, 74, 75
2, 47304, Note_on_c, 0, 74, 0
2, 47304, Note_on_c, 0, 77, 75
2, 47327, Note_on_c, 0, 77, 0
2, 47328, Note_on_c, 0, 77, 75
2, 47352, Note_on_c, 0, 77, 0
2, 47352, Note_on_c, 0, 75, 75
2, 47375, Note_on_c, 0, 75, 0
2, 47376, Note_on_c, 0, 75, 76
2, 47400, Note_on_c, 0, 75, 0
2, 47400, Note_on_c, 0, 79, 76
2, 47423, Note_on_c, 0, 79, 0
2, 47424, Note_on_c, 0, 79, 76
2, 47448, Note_on_c, 0, 79, 0
2, 47448, Note_on_c, 0, 77, 76
2, 47471, Note_on_c, 0, 77, 0
2, 47472, Note_on_c, 0, 77, 76
2, 47496, Note_on_c, 0, 77, 0
2, 47496, Note_on_c, 0, 82, 77
2, 47519, Note_on_c, 0, 82, 0
2, 47520, Note_on_c, 0, 82, 93
2, 47592, Note_on_c, 0, 82, 0
2, 47592, Note_on_c, 0, 74, 78
2, 47615, Note_on_c, 0, 74, 0
2, 47616, Note_on_c, 0, 74, 78
2, 47640, Note_on_c, 0, 74, 0
2, 47640, Note_on_c, 0, 72, 78
2, 47663, Note_on_c, 0, 72, 0
2, 47664, Note_on_c, 0, 72, 78
2, 47688, Note_on_c, 0, 72, 0
2, 47688, Note_on_c, 0, 79, 79
2, 47711, Note_on_c, 0, 79, 0
2, 47712, Note_on_c, 0, 79, 95
2, 47784, Note_on_c, 0, 79, 0
2, 47784, Note_on_c, 0, 70, 80
2, 47807, Note_on_c, 0, 70, 0
2, 47808, Note_on_c, 0, 70, 80
2, 47820, Note_on_c, 0, 70, 0
2, 47820, Note_on_c, 0, 72, 80
2, 47832, Note_on_c, 0, 72, 0
2, 47832, Note_on_c, 0, 70, 80
2, 47853, Note_on_c, 0, 70, 0
2, 47856, Note_on_c, 0, 69, 80
2, 47901, Note_on_c, 0, 69, 0
2, 47952, Note_on_c, 0, 70, 80
2, 47952, Note_on_c, 0, 62, 80
2, 47997, Note_on_c, 0, 70, 0
2, 47997, Note_on_c, 0, 62, 0
2, 48000, Note_on_c, 0, 70, 80
2, 48000, Note_on_c, 0, 62, 80
2, 48048, Note_on_c, 0, 62, 0
2, 48048, Note_on_c, 0, 74, 80
2, 48093, Note_on_c, 0, 74, 0
2, 48093, Note_on_c, 0, 70, 0
2, 48096, Note_on_c, 0, 74, 80
2, 48096, Note_on_c, 0, 70, 80
2, 48144, Note_on_c, 0, 70, 0
2, 48144, Note_on_c, 0, 77, 80
2, 48189, Note_on_c, 0, 77, 0
2, 48189, Note_on_c, 0, 74, 0
2, 48192, Note_on_c, 0, 77, 80
2, 48325, Note_on_c, 0, 77, 0
2, 48336, Note_on_c, 0, 75, 80
2, 48351, Note_on_c, 0, 75, 0
2, 48352, Note_on_c, 0, 77, 80
2, 48367, Note_on_c, 0, 77, 0
2, 48368, Note_on_c, 0, 79, 80
2, 48383, Note_on_c, 0, 79, 0
2, 48384, Note_on_c, 0, 77, 80
2, 48517, Note_on_c, 0, 77, 0
2, 48528, Note_on_c, 0, 75, 80
2, 48543, Note_on_c, 0, 75, 0
2, 48544, Note_on_c, 0, 77, 80
2, 48559, Note_on_c, 0, 77, 0
2, 48560, Note_on_c, 0, 79, 80
2, 48575, Note_on_c, 0, 79, 0
2, 48576, Note_on_c, 0, 77, 80
2, 48621, Note_on_c, 0, 77, 0
2, 48624, Note_on_c, 0, 82, 80
2, 48669, Note_on_c, 0, 82, 0
2, 48720, Note_on_c, 0, 70, 75
2, 48735, Note_on_c, 0, 70, 0
2, 48736, Note_on_c, 0, 72, 75
2, 48751, Note_on_c, 0, 72, 0
2, 48752, Note_on_c, 0, 70, 75
2, 48767, Note_on_c, 0, 70, 0
2, 48768, Note_on_c, 0, 67, 75
2, 48813, Note_on_c, 0, 67, 0
2, 48816, Note_on_c, 0, 70, 75
2, 48831, Note_on_c, 0, 70, 0
2, 48832, Note_on_c, 0, 72, 75
2, 48847, Note_on_c, 0, 72, 0
2, 48848, Note_on_c, 0, 70, 75
2, 48863, Note_on_c, 0, 70, 0
2, 48864, Note_on_c, 0, 65, 75
2, 48909, Note_on_c, 0, 65, 0
2, 48912, Note_on_c, 0, 77, 75
2, 48927, Note_on_c, 0, 77, 0
2, 48928, Note_on_c, 0, 74, 75
2, 48943, Note_on_c, 0, 74, 0
2, 48944, Note_on_c, 0, 70, 75
2, 48959, Note_on_c, 0, 70, 0
2, 48960, Note_on_c, 0, 70, 75
2, 49049, Note_on_c, 0, 70, 0
2, 49056, Note_on_c, 0, 68, 75
2, 49069, Note_on_c, 0, 68, 0
2, 49070, Note_on_c, 0, 70, 75
2, 49083, Note_on_c, 0, 70, 0
2, 49084, Note_on_c, 0, 68, 75
2, 49097, Note_on_c, 0, 68, 0
2, 49098, Note_on_c, 0, 70, 75
2, 49111, Note_on_c, 0, 70, 0
2, 49112, Note_on_c, 0, 68, 75
2, 49125, Note_on_c, 0, 68, 0
2, 49126, Note_on_c, 0, 67, 75
2, 49138, Note_on_c, 0, 67, 0
2, 49139, Note_on_c, 0, 68, 75
2, 49151, Note_on_c, 0, 68, 0
2, 49152, Note_on_c, 0, 67, 75
2, 49197, Note_on_c, 0, 67, 0
2, 49200, Note_on_c, 0, 78, 75
2, 49223, Note_on_c, 0, 78, 0
2, 49224, Note_on_c, 0, 79, 75
2, 49247, Note_on_c, 0, 79, 0
2, 49248, Note_on_c, 0, 77, 75
2, 49271, Note_on_c, 0, 77, 0
2, 49272, Note_on_c, 0, 75, 75
2, 49295, Note_on_c, 0, 75, 0
2, 49296, Note_on_c, 0, 74, 75
2, 49319, Note_on_c, 0, 74, 0
2, 49320, Note_on_c, 0, 72, 75
2, 49343, Note_on_c, 0, 72, 0
2, 49344, Note_on_c, 0, 70, 75
2, 49389, Note_on_c, 0, 70, 0
2, 49392, Note_on_c, 0, 69, 75
2, 49437, Note_on_c, 0, 69, 0
2, 49488, Note_on_c, 0, 70, 75
2, 49503, Note_on_c, 0, 70, 0
2, 49504, Note_on_c, 0, 72, 75
2, 49519, Note_on_c, 0, 72, 0
2, 49520, Note_on_c, 0, 70, 75
2, 49535, Note_on_c, 0, 70, 0
2, 49536, Note_on_c, 0, 58, 75
2, 49556, Note_on_c, 0, 58, 0
2, 49584, Note_on_c, 0, 58, 75
2, 49604, Note_on_c, 0, 58, 0
2, 49680, Note_on_c, 0, 70, 75
2, 49695, Note_on_c, 0, 70, 0
2, 49696, Note_on_c, 0, 72, 75
2, 49711, Note_on_c, 0, 72, 0
2, 49712, Note_on_c, 0, 70, 75
2, 49727, Note_on_c, 0, 70, 0
2, 49728, Note_on_c, 0, 60, 75
2, 49748, Note_on_c, 0, 60, 0
2, 49776, Note_on_c, 0, 60, 75
2, 49796, Note_on_c, 0, 60, 0
2, 49872, Note_on_c, 0, 70, 75
2, 49887, Note_on_c, 0, 70, 0
2, 49888, Note_on_c, 0, 72, 75
2, 49903, Note_on_c, 0, 72, 0
2, 49904, Note_on_c, 0, 70, 75
2, 49919, Note_on_c, 0, 70, 0
2, 49920, Note_on_c, 0, 62, 75
2, 49940, Note_on_c, 0, 62, 0
2, 49968, Note_on_c, 0, 62, 75
2, 49988, Note_on_c, 0, 62, 0
2, 50064, Note_on_c, 0, 70, 76
2, 50079, Note_on_c, 0, 70, 0
2, 50080, Note_on_c, 0, 72, 76
2, 50095, Note_on_c, 0, 72, 0
2, 50096, Note_on_c, 0, 70, 76
2, 50111, Note_on_c, 0, 70, 0
2, 50112, Note_on_c, 0, 63, 77
2, 50132, Note_on_c, 0, 63, 0
2, 50160, Note_on_c, 0, 63, 77
2, 50180, Note_on_c, 0, 63, 0
2, 50256, Note_on_c, 0, 70, 78
2, 50271, Note_on_c, 0, 70, 0
2, 50272, Note_on_c, 0, 72, 78
2, 50287, Note_on_c, 0, 72, 0
2, 50288, Note_on_c, 0, 70, 79
2, 50303, Note_on_c, 0, 70, 0
2, 50304, Note_on_c, 0, 64, 79
2, 50324, Note_on_c, 0, 64, 0
2, 50352, Note_on_c, 0, 73, 96
2, 50448, Note_on_c, 0, 73, 0
2, 50448, Note_on_c, 0, 72, 70
2, 50471, Note_on_c, 0, 72, 0
2, 50472, Note_on_c, 0, 70, 70
2, 50495, Note_on_c, 0, 70, 0
2, 50496, Note_on_c, 0, 70, 71
2, 50592, Note_on_c, 0, 70, 0
2, 50592, Note_on_c, 0, 69, 73
2, 50612, Note_on_c, 0, 69, 0
2, 50640, Note_on_c, 0, 70, 75
2, 50655, Note_on_c, 0, 70, 0
2, 50656, Note_on_c, 0, 72, 75
2, 50671, Note_on_c, 0, 72, 0
2, 50672, Note_on_c, 0, 70, 75
2, 50687, Note_on_c, 0, 70, 0
2, 50688, Note_on_c, 0, 64, 75
2, 50708, Note_on_c, 0, 64, 0
2, 50736, Note_on_c, 0, 73, 93
2, 50832, Note_on_c, 0, 73, 0
2, 50832, Note_on_c, 0, 72, 80
2, 50855, Note_on_c, 0, 72, 0
2, 50856, Note_on_c, 0, 70, 80
2, 50879, Note_on_c, 0, 70, 0
2, 50880, Note_on_c, 0, 72, 80
2, 50892, Note_on_c, 0, 72, 0
2, 50892, Note_on_c, 0, 70, 80
2, 50904, Note_on_c, 0, 70, 0
2, 50904, Note_on_c, 0, 72, 80
2, 50916, Note_on_c, 0, 72, 0
2, 50916, Note_on_c, 0, 70, 80
2, 50928, Note_on_c, 0, 70, 0
2, 50928, Note_on_c, 0, 72, 80
2, 50940, Note_on_c, 0, 72, 0
2, 50940, Note_on_c, 0, 70, 80
2, 50952, Note_on_c, 0, 70, 0
2, 50952, Note_on_c, 0, 69, 80
2, 50964, Note_on_c, 0, 69, 0
2, 50964, Note_on_c, 0, 70, 80
2, 50976, Note_on_c, 0, 70, 0
2, 50976, Note_on_c, 0, 69, 80
2, 51065, Note_on_c, 0, 69, 0
2, 51072, Note_on_c, 0, 82, 75
2, 51096, Note_on_c, 0, 82, 0
2, 51096, Note_on_c, 0, 81, 74
2, 51119, Note_on_c, 0, 81, 0
2, 51120, Note_on_c, 0, 81, 73
2, 51144, Note_on_c, 0, 81, 0
2, 51144, Note_on_c, 0, 79, 73
2, 51167, Note_on_c, 0, 79, 0
2, 51168, Note_on_c, 0, 79, 72
2, 51192, Note_on_c, 0, 79, 0
2, 51192, Note_on_c, 0, 77, 71
2, 51215, Note_on_c, 0, 77, 0
2, 51216, Note_on_c, 0, 77, 71
2, 51240, Note_on_c, 0, 77, 0
2, 51240, Note_on_c, 0, 78, 70
2, 51263, Note_on_c, 0, 78, 0
2, 51264, Note_on_c, 0, 78, 86
2, 51408, Note_on_c, 0, 78, 0
2, 51408, Note_on_c, 0, 79, 73
2, 51453, Note_on_c, 0, 79, 0
2, 51456, Note_on_c, 0, 82, 75
2, 51480, Note_on_c, 0, 82, 0
2, 51480, Note_on_c, 0, 81, 74
2, 51503, Note_on_c, 0, 81, 0
2, 51504, Note_on_c, 0, 81, 73
2, 51528, Note_on_c, 0, 81, 0
2, 51528, Note_on_c, 0, 79, 73
2, 51551, Note_on_c, 0, 79, 0
2, 51552, Note_on_c, 0, 79, 72
2, 51576, Note_on_c, 0, 79, 0
2, 51576, Note_on_c, 0, 77, 71
2, 51599, Note_on_c, 0, 77, 0
2, 51600, Note_on_c, 0, 77, 71
2, 51624, Note_on_c, 0, 77, 0
2, 51624, Note_on_c, 0, 78, 70
2, 51647, Note_on_c, 0, 78, 0
2, 51648, Note_on_c, 0, 78, 86
2, 51792, Note_on_c, 0, 78, 0
2, 51792, Note_on_c, 0, 79, 73
2, 51837, Note_on_c, 0, 79, 0
2, 51840, Note_on_c, 0, 82, 75
2, 51864, Note_on_c, 0, 82, 0
2, 51864, Note_on_c, 0, 81, 74
2, 51887, Note_on_c, 0, 81, 0
2, 51888, Note_on_c, 0, 81, 73
2, 51912, Note_on_c, 0, 81, 0
2, 51912, Note_on_c, 0, 79, 73
2, 51935, Note_on_c, 0, 79, 0
2, 51936, Note_on_c, 0, 79, 72
2, 51960, Note_on_c, 0, 79, 0
2, 51960, Note_on_c, 0, 77, 71
2, 51983, Note_on_c, 0, 77, 0
2, 51984, Note_on_c, 0, 77, 71
2, 52008, Note_on_c, 0, 77, 0
2, 52008, Note_on_c, 0, 76, 70
2, 52031, Note_on_c, 0, 76, 0
2, 52032, Note_on_c, 0, 76, 86
2, 52162, Note_on_c, 0, 76, 0
2, 52164, Note_on_c, 0, 86, 80
2, 52176, Note_on_c, 0, 86, 0
2, 52176, Note_on_c, 0, 76, 80
2, 52210, Note_on_c, 0, 76, 0
2, 52212, Note_on_c, 0, 86, 80
2, 52224, Note_on_c, 0, 86, 0
2, 52224, Note_on_c, 0, 76, 86
2, 52354, Note_on_c, 0, 76, 0
2, 52356, Note_on_c, 0, 86, 80
2, 52368, Note_on_c, 0, 86, 0
2, 52368, Note_on_c, 0, 76, 80
2, 52402, Note_on_c, 0, 76, 0
2, 52404, Note_on_c, 0, 86, 80
2, 52416, Note_on_c, 0, 86, 0
2, 52416, Note_on_c, 0, 75, 96
2, 52560, Note_on_c, 0, 75, 0
2, 52560, Note_on_c, 0, 79, 76
2, 52575, Note_on_c, 0, 79, 0
2, 52576, Note_on_c, 0, 77, 75
2, 52591, Note_on_c, 0, 77, 0
2, 52592, Note_on_c, 0, 75, 75
2, 52607, Note_on_c, 0, 75, 0
2, 52608, Note_on_c, 0, 74, 75
2, 52653, Note_on_c, 0, 74, 0
2, 52656, Note_on_c, 0, 82, 75
2, 52671, Note_on_c, 0, 82, 0
2, 52672, Note_on_c, 0, 84, 75
2, 52687, Note_on_c, 0, 84, 0
2, 52688, Note_on_c, 0, 82, 75
2, 52703, Note_on_c, 0, 82, 0
2, 52704, Note_on_c, 0, 79, 75
2, 52749, Note_on_c, 0, 79, 0
2, 52752, Note_on_c, 0, 75, 75
2, 52767, Note_on_c, 0, 75, 0
2, 52768, Note_on_c, 0, 77, 75
2, 52783, Note_on_c, 0, 77, 0
2, 52784, Note_on_c, 0, 75, 75
2, 52799, Note_on_c, 0, 75, 0
2, 52800, Note_on_c, 0, 65, 75
2, 52889, Note_on_c, 0, 65, 0
2, 52896, Note_on_c, 0, 74, 75
2, 52908, Note_on_c, 0, 74, 0
2, 52908, Note_on_c, 0, 72, 75
2, 52920, Note_on_c, 0, 72, 0
2, 52920, Note_on_c, 0, 74, 75
2, 52932, Note_on_c, 0, 74, 0
2, 52932, Note_on_c, 0, 72, 75
2, 52944, Note_on_c, 0, 72, 0
2, 52944, Note_on_c, 0, 74, 75
2, 52956, Note_on_c, 0, 74, 0
2, 52956, Note_on_c, 0, 72, 75
2, 52968, Note_on_c, 0, 72, 0
2, 52968, Note_on_c, 0, 70, 75
2, 52980, Note_on_c, 0, 70, 0
2, 52980, Note_on_c, 0, 72, 75
2, 52992, Note_on_c, 0, 72, 0
2, 52992, Note_on_c, 0, 70, 75
2, 53012, Note_on_c, 0, 70, 0
2, 53040, Note_on_c, 0, 82, 75
2, 53055, Note_on_c, 0, 82, 0
2, 53056, Note_on_c, 0, 84, 75
2, 53071, Note_on_c, 0, 84, 0
2, 53072, Note_on_c, 0, 82, 75
2, 53087, Note_on_c, 0, 82, 0
2, 53088, Note_on_c, 0, 79, 75
2, 53133, Note_on_c, 0, 79, 0
2, 53136, Note_on_c, 0, 75, 75
2, 53151, Note_on_c, 0, 75, 0
2, 53152, Note_on_c, 0, 77, 75
2, 53167, Note_on_c, 0, 77, 0
2, 53168, Note_on_c, 0, 75, 75
2, 53183, Note_on_c, 0, 75, 0
2, 53184, Note_on_c, 0, 65, 75
2, 53273, Note_on_c, 0, 65, 0
2, 53280, Note_on_c, 0, 74, 75
2, 53292, Note_on_c, 0, 74, 0
2, 53292, Note_on_c, 0, 72, 75
2, 53304, Note_on_c, 0, 72, 0
2, 53304, Note_on_c, 0, 74, 75
2, 53316, Note_on_c, 0, 74, 0
2, 53316, Note_on_c, 0, 72, 75
2, 53328, Note_on_c, 0, 72, 0
2, 53328, Note_on_c, 0, 74, 75
2, 53340, Note_on_c, 0, 74, 0
2, 53340, Note_on_c, 0, 72, 75
2, 53352, Note_on_c, 0, 72, 0
2, 53352, Note_on_c, 0, 70, 75
2, 53364, Note_on_c, 0, 70, 0
2, 53364, Note_on_c, 0, 72, 75
2, 53376, Note_on_c, 0, 72, 0
2, 53376, Note_on_c, 0, 70, 75
2, 53465, Note_on_c, 0, 70, 0
2, 53544, Note_on_c, 0, 70, 75
2, 53554, Note_on_c, 0, 70, 0
2, 53568, Note_on_c, 0, 58, 64
2, 53712, Note_on_c, 0, 58, 0
2, 53712, Note_on_c, 0, 59, 68
2, 53757, Note_on_c, 0, 59, 0
2, 53760, Note_on_c, 0, 60, 70
2, 53805, Note_on_c, 0, 60, 0
2, 53808, Note_on_c, 0, 62, 72
2, 53814, Note_on_c, 0, 62, 0
2, 53814, Note_on_c, 0, 63, 72
2, 53853, Note_on_c, 0, 63, 0
2, 53856, Note_on_c, 0, 66, 73
2, 53862, Note_on_c, 0, 66, 0
2, 53862, Note_on_c, 0, 67, 73
2, 53901, Note_on_c, 0, 67, 0
2, 53904, Note_on_c, 0, 71, 75
2, 53910, Note_on_c, 0, 71, 0
2, 53910, Note_on_c, 0, 72, 75
2, 53949, Note_on_c, 0, 72, 0
2, 53952, Note_on_c, 0, 74, 76
2, 53958, Note_on_c, 0, 74, 0
2, 53958, Note_on_c, 0, 75, 76
2, 53997, Note_on_c, 0, 75, 0
2, 54000, Note_on_c, 0, 78, 78
2, 54006, Note_on_c, 0, 78, 0
2, 54006, Note_on_c, 0, 79, 78
2, 54045, Note_on_c, 0, 79, 0
2, 54048, Note_on_c, 0, 77, 80
2, 54063, Note_on_c, 0, 77, 0
2, 54064, Note_on_c, 0, 75, 80
2, 54079, Note_on_c, 0, 75, 0
2, 54080, Note_on_c, 0, 74, 80
2, 54095, Note_on_c, 0, 74, 0
2, 54096, Note_on_c, 0, 75, 80
2, 54111, Note_on_c, 0, 75, 0
2, 54112, Note_on_c, 0, 74, 80
2, 54127, Note_on_c, 0, 74, 0
2, 54128, Note_on_c, 0, 72, 80
2, 54143, Note_on_c, 0, 72, 0
2, 54144, Note_on_c, 0, 70, 80
2, 54211, Note_on_c, 0, 70, 0
2, 54216, Note_on_c, 0, 72, 80
2, 54239, Note_on_c, 0, 72, 0
2, 54240, Note_on_c, 0, 74, 80
2, 54252, Note_on_c, 0, 74, 0
2, 54252, Note_on_c, 0, 72, 80
2, 54264, Note_on_c, 0, 72, 0
2, 54264, Note_on_c, 0, 74, 80
2, 54276, Note_on_c, 0, 74, 0
2, 54276, Note_on_c, 0, 72, 80
2, 54288, Note_on_c, 0, 72, 0
2, 54288, Note_on_c, 0, 74, 80
2, 54300, Note_on_c, 0, 74, 0
2, 54300, Note_on_c, 0, 72, 80
2, 54312, Note_on_c, 0, 72, 0
2, 54312, Note_on_c, 0, 70, 80
2, 54324, Note_on_c, 0, 70, 0
2, 54324, Note_on_c, 0, 72, 80
2, 54336, Note_on_c, 0, 72, 0
2, 54336, Note_on_c, 0, 70, 80
2, 54425, Note_on_c, 0, 70, 0
2, 54432, Note_on_c, 0, 77, 75
2, 54455, Note_on_c, 0, 77, 0
2, 54456, Note_on_c, 0, 65, 75
2, 54479, Note_on_c, 0, 65, 0
2, 54480, Note_on_c, 0, 77, 75
2, 54503, Note_on_c, 0, 77, 0
2, 54504, Note_on_c, 0, 65, 75
2, 54527, Note_on_c, 0, 65, 0
2, 54528, Note_on_c, 0, 75, 75
2, 54551, Note_on_c, 0, 75, 0
2, 54552, Note_on_c, 0, 65, 75
2, 54575, Note_on_c, 0, 65, 0
2, 54576, Note_on_c, 0, 75, 75
2, 54599, Note_on_c, 0, 75, 0
2, 54600, Note_on_c, 0, 65, 75
2, 54623, Note_on_c, 0, 65, 0
2, 54624, Note_on_c, 0, 75, 75
2, 54647, Note_on_c, 0, 75, 0
2, 54648, Note_on_c, 0, 65, 75
2, 54671, Note_on_c, 0, 65, 0
2, 54672, Note_on_c, 0, 75, 75
2, 54695, Note_on_c, 0, 75, 0
2, 54696, Note_on_c, 0, 65, 75
2, 54719, Note_on_c, 0, 65, 0
2, 54720, Note_on_c, 0, 77, 75
2, 54720, Note_on_c, 0, 74, 75
2, 54809, Note_on_c, 0, 77, 0
2, 54809, Note_on_c, 0, 74, 0
2, 54816, Note_on_c, 0, 77, 64
2, 54839, Note_on_c, 0, 77, 0
2, 54840, Note_on_c, 0, 65, 64
2, 54863, Note_on_c, 0, 65, 0
2, 54864, Note_on_c, 0, 77, 64
2, 54887, Note_on_c, 0, 77, 0
2, 54888, Note_on_c, 0, 65, 64
2, 54911, Note_on_c, 0, 65, 0
2, 54912, Note_on_c, 0, 75, 64
2, 54935, Note_on_c, 0, 75, 0
2, 54936, Note_on_c, 0, 65, 64
2, 54959, Note_on_c, 0, 65, 0
2, 54960, Note_on_c, 0, 75, 64
2, 54983, Note_on_c, 0, 75, 0
2, 54984, Note_on_c, 0, 65, 64
2, 55007, Note_on_c, 0, 65, 0
2, 55008, Note_on_c, 0, 75, 64
2, 55031, Note_on_c, 0, 75, 0
2, 55032, Note_on_c, 0, 65, 64
2, 55055, Note_on_c, 0, 65, 0
2, 55056, Note_on_c, 0, 75, 64
2, 55079, Note_on_c, 0, 75, 0
2, 55080, Note_on_c, 0, 65, 64
2, 55103, Note_on_c, 0, 65, 0
2, 55104, Note_on_c, 0, 77, 64
2, 55104, Note_on_c, 0, 74, 64
2, 55193, Note_on_c, 0, 77, 0
2, 55193, Note_on_c, 0, 74, 0
2, 55200, Note_on_c, 0, 77, 75
2, 55223, Note_on_c, 0, 77, 0
2, 55224, Note_on_c, 0, 65, 75
2, 55247, Note_on_c, 0, 65, 0
2, 55248, Note_on_c, 0, 77, 75
2, 55271, Note_on_c, 0, 77, 0
2, 55272, Note_on_c, 0, 65, 75
2, 55295, Note_on_c, 0, 65, 0
2, 55296, Note_on_c, 0, 75, 75
2, 55319, Note_on_c, 0, 75, 0
2, 55320, Note_on_c, 0, 65, 75
2, 55343, Note_on_c, 0, 65, 0
2, 55344, Note_on_c, 0, 75, 75
2, 55367, Note_on_c, 0, 75, 0
2, 55368, Note_on_c, 0, 65, 75
2, 55391, Note_on_c, 0, 65, 0
2, 55392, Note_on_c, 0, 75, 75
2, 55415, Note_on_c, 0, 75, 0
2, 55416, Note_on_c, 0, 65, 75
2, 55439, Note_on_c, 0, 65, 0
2, 55440, Note_on_c, 0, 75, 75
2, 55463, Note_on_c, 0, 75, 0
2, 55464, Note_on_c, 0, 65, 75
2, 55487, Note_on_c, 0, 65, 0
2, 55488, Note_on_c, 0, 77, 75
2, 55488, Note_on_c, 0, 74, 75
2, 55533, Note_on_c, 0, 77, 0
2, 55533, Note_on_c, 0, 74, 0
2, 55536, Note_on_c, 0, 70, 75
2, 55551, Note_on_c, 0, 70, 0
2, 55552, Note_on_c, 0, 72, 75
2, 55567, Note_on_c, 0, 72, 0
2, 55568, Note_on_c, 0, 70, 75
2, 55583, Note_on_c, 0, 70, 0
2, 55584, Note_on_c, 0, 67, 75
2, 55604, Note_on_c, 0, 67, 0
2, 55632, Note_on_c, 0, 75, 75
2, 55647, Note_on_c, 0, 75, 0
2, 55648, Note_on_c, 0, 77, 75
2, 55663, Note_on_c, 0, 77, 0
2, 55664, Note_on_c, 0, 75, 75
2, 55679, Note_on_c, 0, 75, 0
2, 55680, Note_on_c, 0, 65, 75
2, 55769, Note_on_c, 0, 65, 0
2, 55776, Note_on_c, 0, 74, 75
2, 55788, Note_on_c, 0, 74, 0
2, 55788, Note_on_c, 0, 72, 75
2, 55800, Note_on_c, 0, 72, 0
2, 55800, Note_on_c, 0, 74, 75
2, 55812, Note_on_c, 0, 74, 0
2, 55812, Note_on_c, 0, 72, 75
2, 55824, Note_on_c, 0, 72, 0
2, 55824, Note_on_c, 0, 74, 75
2, 55836, Note_on_c, 0, 74, 0
2, 55836, Note_on_c, 0, 72, 75
2, 55848, Note_on_c, 0, 72, 0
2, 55848, Note_on_c, 0, 70, 75
2, 55860, Note_on_c, 0, 70, 0
2, 55860, Note_on_c, 0, 72, 75
2, 55872, Note_on_c, 0, 72, 0
2, 55872, Note_on_c, 0, 70, 75
2, 55961, Note_on_c, 0, 70, 0
2, 55968, Note_on_c, 0, 77, 70
2, 55992, Note_on_c, 0, 77, 0
2, 55992, Note_on_c, 0, 79, 69
2, 56015, Note_on_c, 0, 79, 0
2, 56016, Note_on_c, 0, 81, 69
2, 56040, Note_on_c, 0, 81, 0
2, 56040, Note_on_c, 0, 82, 68
2, 56063, Note_on_c, 0, 82, 0
2, 56064, Note_on_c, 0, 79, 68
2, 56088, Note_on_c, 0, 79, 0
2, 56088, Note_on_c, 0, 81, 68
2, 56111, Note_on_c, 0, 81, 0
2, 56112, Note_on_c, 0, 82, 67
2, 56136, Note_on_c, 0, 82, 0
2, 56136, Note_on_c, 0, 84, 67
2, 56159, Note_on_c, 0, 84, 0
2, 56160, Note_on_c, 0, 82, 67
2, 56184, Note_on_c, 0, 82, 0
2, 56184, Note_on_c, 0, 81, 66
2, 56207, Note_on_c, 0, 81, 0
2, 56208, Note_on_c, 0, 79, 66
2, 56232, Note_on_c, 0, 79, 0
2, 56232, Note_on_c, 0, 81, 65
2, 56255, Note_on_c, 0, 81, 0
2, 56256, Note_on_c, 0, 82, 81
2, 56352, Note_on_c, 0, 82, 0
2, 56352, Note_on_c, 0, 65, 64
2, 56367, Note_on_c, 0, 65, 0
2, 56368, Note_on_c, 0, 67, 75
2, 56383, Note_on_c, 0, 67, 0
2, 56384, Note_on_c, 0, 65, 74
2, 56399, Note_on_c, 0, 65, 0
2, 56400, Note_on_c, 0, 70, 74
2, 56445, Note_on_c, 0, 70, 0
2, 56448, Note_on_c, 0, 67, 73
2, 56463, Note_on_c, 0, 67, 0
2, 56464, Note_on_c, 0, 69, 73
2, 56479, Note_on_c, 0, 69, 0
2, 56480, Note_on_c, 0, 67, 73
2, 56495, Note_on_c, 0, 67, 0
2, 56496, Note_on_c, 0, 72, 73
2, 56541, Note_on_c, 0, 72, 0
2, 56544, Note_on_c, 0, 70, 72
2, 56567, Note_on_c, 0, 70, 0
2, 56568, Note_on_c, 0, 69, 72
2, 56591, Note_on_c, 0, 69, 0
2, 56592, Note_on_c, 0, 67, 71
2, 56615, Note_on_c, 0, 67, 0
2, 56616, Note_on_c, 0, 69, 71
2, 56639, Note_on_c, 0, 69, 0
2, 56640, Note_on_c, 0, 70, 87
2, 56688, Note_on_c, 0, 70, 0
2, 56688, Note_on_c, 0, 70, 70
2, 56703, Note_on_c, 0, 70, 0
2, 56704, Note_on_c, 0, 72, 71
2, 56719, Note_on_c, 0, 72, 0
2, 56720, Note_on_c, 0, 74, 72
2, 56735, Note_on_c, 0, 74, 0
2, 56736, Note_on_c, 0, 70, 91
2, 56784, Note_on_c, 0, 70, 0
2, 56784, Note_on_c, 0, 70, 75
2, 56799, Note_on_c, 0, 70, 0
2, 56800, Note_on_c, 0, 72, 75
2, 56815, Note_on_c, 0, 72, 0
2, 56816, Note_on_c, 0, 74, 75
2, 56831, Note_on_c, 0, 74, 0
2, 56832, Note_on_c, 0, 65, 91
2, 56928, Note_on_c, 0, 65, 0
2, 57024, End_track
3, 0, Start_track
3, 0, Program_c, 0, 0
3, 0, Control_c, 0, 7, 127
3, 0, Control_c, 0, 10, 64
3, 384, Note_on_c, 0, 74, 64
3, 517, Note_on_c, 0, 74, 0
3, 528, Note_on_c, 0, 72, 64
3, 573, Note_on_c, 0, 72, 0
3, 576, Note_on_c, 0, 74, 64
3, 709, Note_on_c, 0, 74, 0
3, 720, Note_on_c, 0, 72, 64
3, 765, Note_on_c, 0, 72, 0
3, 768, Note_on_c, 0, 74, 64
3, 857, Note_on_c, 0, 74, 0
3, 9408, Note_on_c, 0, 84, 75
3, 9453, Note_on_c, 0, 84, 0
3, 9456, Note_on_c, 0, 84, 75
3, 9501, Note_on_c, 0, 84, 0
3, 9504, Note_on_c, 0, 84, 75
3, 9549, Note_on_c, 0, 84, 0
3, 9552, Note_on_c, 0, 84, 75
3, 9597, Note_on_c, 0, 84, 0
3, 9792, Note_on_c, 0, 84, 64
3, 9837, Note_on_c, 0, 84, 0
3, 9840, Note_on_c, 0, 84, 64
3, 9885, Note_on_c, 0, 84, 0
3, 9888, Note_on_c, 0, 84, 64
3, 9933, Note_on_c, 0, 84, 0
3, 9936, Note_on_c, 0, 84, 64
3, 9981, Note_on_c, 0, 84, 0
3, 10176, Note_on_c, 0, 84, 75
3, 10221, Note_on_c, 0, 84, 0
3, 10224, Note_on_c, 0, 84, 75
3, 10269, Note_on_c, 0, 84, 0
3, 10272, Note_on_c, 0, 84, 75
3, 10317, Note_on_c, 0, 84, 0
3, 10320, Note_on_c, 0, 84, 75
3, 10365, Note_on_c, 0, 84, 0
3, 12096, Note_on_c, 0, 74, 64
3, 12229, Note_on_c, 0, 74, 0
3, 12240, Note_on_c, 0, 72, 64
3, 12285, Note_on_c, 0, 72, 0
3, 12288, Note_on_c, 0, 74, 64
3, 12421, Note_on_c, 0, 74, 0
3, 12432, Note_on_c, 0, 72, 64
3, 12477, Note_on_c, 0, 72, 0
3, 12480, Note_on_c, 0, 74, 64
3, 12569, Note_on_c, 0, 74, 0
3, 21120, Note_on_c, 0, 84, 75
3, 21165, Note_on_c, 0, 84, 0
3, 21168, Note_on_c, 0, 84, 75
3, 21213, Note_on_c, 0, 84, 0
3, 21216, Note_on_c, 0, 84, 75
3, 21261, Note_on_c, 0, 84, 0
3, 21264, Note_on_c, 0, 84, 75
3, 21309, Note_on_c, 0, 84, 0
3, 21504, Note_on_c, 0, 84, 64
3, 21549, Note_on_c, 0, 84, 0
3, 21552, Note_on_c, 0, 84, 64
3, 21597, Note_on_c, 0, 84, 0
3, 21600, Note_on_c, 0, 84, 64
3, 21645, Note_on_c, 0, 84, 0
3, 21648, Note_on_c, 0, 84, 64
3, 21693, Note_on_c, 0, 84, 0
3, 21888, Note_on_c, 0, 84, 75
3, 21933, Note_on_c, 0, 84, 0
3, 21936, Note_on_c, 0, 84, 75
3, 21981, Note_on_c, 0, 84, 0
3, 21984, Note_on_c, 0, 84, 75
3, 22029, Note_on_c, 0, 84, 0
3, 22032, Note_on_c, 0, 84, 75
3, 22077, Note_on_c, 0, 84, 0
3, 23808, Note_on_c, 0, 69, 75
3, 23941, Note_on_c, 0, 69, 0
3, 23952, Note_on_c, 0, 67, 75
3, 23997, Note_on_c, 0, 67, 0
3, 24000, Note_on_c, 0, 69, 75
3, 24133, Note_on_c, 0, 69, 0
3, 24144, Note_on_c, 0, 67, 75
3, 24189, Note_on_c, 0, 67, 0
3, 24192, Note_on_c, 0, 69, 75
3, 24281, Note_on_c, 0, 69, 0
3, 29280, Note_on_c, 0, 77, 75
3, 29303, Note_on_c, 0, 77, 0
3, 29304, Note_on_c, 0, 67, 75
3, 29327, Note_on_c, 0, 67, 0
3, 29328, Note_on_c, 0, 77, 75
3, 29351, Note_on_c, 0, 77, 0
3, 29352, Note_on_c, 0, 67, 75
3, 29375, Note_on_c, 0, 67, 0
3, 29376, Note_on_c, 0, 75, 75
3, 29399, Note_on_c, 0, 75, 0
3, 29400, Note_on_c, 0, 67, 75
3, 29423, Note_on_c, 0, 67, 0
3, 29424, Note_on_c, 0, 75, 75
3, 29447, Note_on_c, 0, 75, 0
3, 29448, Note_on_c, 0, 67, 75
3, 29471, Note_on_c, 0, 67, 0
3, 29472, Note_on_c, 0, 71, 75
3, 29495, Note_on_c, 0, 71, 0
3, 29496, Note_on_c, 0, 67, 75
3, 29519, Note_on_c, 0, 67, 0
3, 29520, Note_on_c, 0, 71, 75
3, 29543, Note_on_c, 0, 71, 0
3, 29544, Note_on_c, 0, 67, 75
3, 29567, Note_on_c, 0, 67, 0
3, 29568, Note_on_c, 0, 72, 75
3, 29591, Note_on_c, 0, 72, 0
3, 29592, Note_on_c, 0, 67, 75
3, 29615, Note_on_c, 0, 67, 0
3, 29616, Note_on_c, 0, 72, 75
3, 29639, Note_on_c, 0, 72, 0
3, 29640, Note_on_c, 0, 67, 75
3, 29663, Note_on_c, 0, 67, 0
3, 29664, Note_on_c, 0, 75, 75
3, 29687, Note_on_c, 0, 75, 0
3, 29688, Note_on_c, 0, 65, 75
3, 29711, Note_on_c, 0, 65, 0
3, 29712, Note_on_c, 0, 75, 75
3, 29735, Note_on_c, 0, 75, 0
3, 29736, Note_on_c, 0, 65, 75
3, 29759, Note_on_c, 0, 65, 0
3, 29760, Note_on_c, 0, 74, 75
3, 29783, Note_on_c, 0, 74, 0
3, 29784, Note_on_c, 0, 65, 75
3, 29807, Note_on_c, 0, 65, 0
3, 29808, Note_on_c, 0, 74, 75
3, 29831, Note_on_c, 0, 74, 0
3, 29832, Note_on_c, 0, 65, 75
3, 29855, Note_on_c, 0, 65, 0
3, 29856, Note_on_c, 0, 69, 75
3, 29879, Note_on_c, 0, 69, 0
3, 29880, Note_on_c, 0, 65, 75
3, 29903, Note_on_c, 0, 65, 0
3, 29904, Note_on_c, 0, 69, 75
3, 29927, Note_on_c, 0, 69, 0
3, 29928, Note_on_c, 0, 65, 75
3, 29951, Note_on_c, 0, 65, 0
3, 29952, Note_on_c, 0, 70, 75
3, 29975, Note_on_c, 0, 70, 0
3, 29976, Note_on_c, 0, 65, 75
3, 29999, Note_on_c, 0, 65, 0
3, 30000, Note_on_c, 0, 70, 75
3, 30023, Note_on_c, 0, 70, 0
3, 30024, Note_on_c, 0, 65, 75
3, 30047, Note_on_c, 0, 65, 0
3, 31488, Note_on_c, 0, 74, 75
3, 31621, Note_on_c, 0, 74, 0
3, 31632, Note_on_c, 0, 72, 75
3, 31677, Note_on_c, 0, 72, 0
3, 31680, Note_on_c, 0, 74, 75
3, 31813, Note_on_c, 0, 74, 0
3, 31824, Note_on_c, 0, 72, 75
3, 31869, Note_on_c, 0, 72, 0
3, 31872, Note_on_c, 0, 74, 75
3, 31961, Note_on_c, 0, 74, 0
3, 37824, Note_on_c, 0, 77, 75
3, 37869, Note_on_c, 0, 77, 0
3, 37872, Note_on_c, 0, 77, 75
3, 37917, Note_on_c, 0, 77, 0
3, 37920, Note_on_c, 0, 77, 75
3, 37965, Note_on_c, 0, 77, 0
3, 37968, Note_on_c, 0, 77, 75
3, 38013, Note_on_c, 0, 77, 0
3, 38208, Note_on_c, 0, 77, 64
3, 38253, Note_on_c, 0, 77, 0
3, 38256, Note_on_c, 0, 77, 64
3, 38301, Note_on_c, 0, 77, 0
3, 38304, Note_on_c, 0, 77, 64
3, 38349, Note_on_c, 0, 77, 0
3, 38352, Note_on_c, 0, 77, 64
3, 38397, Note_on_c, 0, 77, 0
3, 38592, Note_on_c, 0, 77, 75
3, 38637, Note_on_c, 0, 77, 0
3, 38640, Note_on_c, 0, 77, 75
3, 38685, Note_on_c, 0, 77, 0
3, 38688, Note_on_c, 0, 77, 75
3, 38733, Note_on_c, 0, 77, 0
3, 38736, Note_on_c, 0, 77, 75
3, 38781, Note_on_c, 0, 77, 0
3, 40512, Note_on_c, 0, 69, 75
3, 40645, Note_on_c, 0, 69, 0
3, 40656, Note_on_c, 0, 67, 75
3, 40701, Note_on_c, 0, 67, 0
3, 40704, Note_on_c, 0, 69, 75
3, 40837, Note_on_c, 0, 69, 0
3, 40848, Note_on_c, 0, 67, 75
3, 40893, Note_on_c, 0, 67, 0
3, 40896, Note_on_c, 0, 69, 75
3, 40985, Note_on_c, 0, 69, 0
3, 45984, Note_on_c, 0, 77, 75
3, 46007, Note_on_c, 0, 77, 0
3, 46008, Note_on_c, 0, 67, 75
3, 46031, Note_on_c, 0, 67, 0
3, 46032, Note_on_c, 0, 77, 75
3, 46055, Note_on_c, 0, 77, 0
3, 46056, Note_on_c, 0, 67, 75
3, 46079, Note_on_c, 0, 67, 0
3, 46080, Note_on_c, 0, 75, 75
3, 46103, Note_on_c, 0, 75, 0
3, 46104, Note_on_c, 0, 67, 75
3, 46127, Note_on_c, 0, 67, 0
3, 46128, Note_on_c, 0, 75, 75
3, 46151, Note_on_c, 0, 75, 0
3, 46152, Note_on_c, 0, 67, 75
3, 46175, Note_on_c, 0, 67, 0
3, 46176, Note_on_c, 0, 71, 75
3, 46199, Note_on_c, 0, 71, 0
3, 46200, Note_on_c, 0, 67, 75
3, 46223, Note_on_c, 0, 67, 0
3, 46224, Note_on_c, 0, 71, 75
3, 46247, Note_on_c, 0, 71, 0
3, 46248, Note_on_c, 0, 67, 75
3, 46271, Note_on_c, 0, 67, 0
3, 46272, Note_on_c, 0, 72, 75
3, 46295, Note_on_c, 0, 72, 0
3, 46296, Note_on_c, 0, 67, 75
3, 46319, Note_on_c, 0, 67, 0
3, 46320, Note_on_c, 0, 72, 75
3, 46343, Note_on_c, 0, 72, 0
3, 46344, Note_on_c, 0, 67, 75
3, 46367, Note_on_c, 0, 67, 0
3, 46368, Note_on_c, 0, 75, 75
3, 46391, Note_on_c, 0, 75, 0
3, 46392, Note_on_c, 0, 65, 75
3, 46415, Note_on_c, 0, 65, 0
3, 46416, Note_on_c, 0, 75, 75
3, 46439, Note_on_c, 0, 75, 0
3, 46440, Note_on_c, 0, 65, 75
3, 46463, Note_on_c, 0, 65, 0
3, 46464, Note_on_c, 0, 74, 75
3, 46487, Note_on_c, 0, 74, 0
3, 46488, Note_on_c, 0, 65, 75
3, 46511, Note_on_c, 0, 65, 0
3, 46512, Note_on_c, 0, 74, 75
3, 46535, Note_on_c, 0, 74, 0
3, 46536, Note_on_c, 0, 65, 75
3, 46559, Note_on_c, 0, 65, 0
3, 46560, Note_on_c, 0, 69, 75
3, 46583, Note_on_c, 0, 69, 0
3, 46584, Note_on_c, 0, 65, 75
3, 46607, Note_on_c, 0, 65, 0
3, 46608, Note_on_c, 0, 69, 75
3, 46631, Note_on_c, 0, 69, 0
3, 46632, Note_on_c, 0, 65, 75
3, 46655, Note_on_c, 0, 65, 0
3, 46656, Note_on_c, 0, 70, 75
3, 46679, Note_on_c, 0, 70, 0
3, 46680, Note_on_c, 0, 65, 75
3, 46703, Note_on_c, 0, 65, 0
3, 46704, Note_on_c, 0, 70, 75
3, 46727, Note_on_c, 0, 70, 0
3, 46728, Note_on_c, 0, 65, 75
3, 46751, Note_on_c, 0, 65, 0
3, 48192, Note_on_c, 0, 74, 75
3, 48325, Note_on_c, 0, 74, 0
3, 48336, Note_on_c, 0, 72, 75
3, 48381, Note_on_c, 0, 72, 0
3, 48384, Note_on_c, 0, 74, 75
3, 48517, Note_on_c, 0, 74, 0
3, 48528, Note_on_c, 0, 72, 75
3, 48573, Note_on_c, 0, 72, 0
3, 48576, Note_on_c, 0, 74, 75
3, 48665, Note_on_c, 0, 74, 0
3, 54528, Note_on_c, 0, 77, 75
3, 54573, Note_on_c, 0, 77, 0
3, 54576, Note_on_c, 0, 77, 75
3, 54621, Note_on_c, 0, 77, 0
3, 54624, Note_on_c, 0, 77, 75
3, 54669, Note_on_c, 0, 77, 0
3, 54672, Note_on_c, 0, 77, 75
3, 54717, Note_on_c, 0, 77, 0
3, 54912, Note_on_c, 0, 77, 64
3, 54957, Note_on_c, 0, 77, 0
3, 54960, Note_on_c, 0, 77, 64
3, 55005, Note_on_c, 0, 77, 0
3, 55008, Note_on_c, 0, 77, 64
3, 55053, Note_on_c, 0, 77, 0
3, 55056, Note_on_c, 0, 77, 64
3, 55101, Note_on_c, 0, 77, 0
3, 55296, Note_on_c, 0, 77, 75
3, 55341, Note_on_c, 0, 77, 0
3, 55344, Note_on_c, 0, 77, 75
3, 55389, Note_on_c, 0, 77, 0
3, 55392, Note_on_c, 0, 77, 75
3, 55437, Note_on_c, 0, 77, 0
3, 55440, Note_on_c, 0, 77, 75
3, 55485, Note_on_c, 0, 77, 0
3, 57024, End_track
4, 0, Start_track
4, 0, Program_c, 1, 0
4, 0, Control_c, 1, 7, 127
4, 0, Control_c, 1, 10, 64
4, 192, Note_on_c, 1, 58, 80
4, 192, Note_on_c, 1, 46, 80
4, 369, Note_on_c, 1, 58, 0
4, 369, Note_on_c, 1, 46, 0
4, 432, Note_on_c, 1, 58, 80
4, 477, Note_on_c, 1, 58, 0
4, 480, Note_on_c, 1, 46, 80
4, 569, Note_on_c, 1, 46, 0
4, 624, Note_on_c, 1, 58, 80
4, 669, Note_on_c, 1, 58, 0
4, 672, Note_on_c, 1, 46, 80
4, 761, Note_on_c, 1, 46, 0
4, 816, Note_on_c, 1, 58, 80
4, 861, Note_on_c, 1, 58, 0
4, 864, Note_on_c, 1, 46, 80
4, 909, Note_on_c, 1, 46, 0
4, 912, Note_on_c, 1, 62, 70
4, 912, Note_on_c, 1, 58, 70
4, 957, Note_on_c, 1, 62, 0
4, 957, Note_on_c, 1, 58, 0
4, 960, Note_on_c, 1, 63, 70
4, 960, Note_on_c, 1, 58, 70
4, 1049, Note_on_c, 1, 63, 0
4, 1049, Note_on_c, 1, 58, 0
4, 1056, Note_on_c, 1, 62, 70
4, 1056, Note_on_c, 1, 58, 70
4, 1145, Note_on_c, 1, 62, 0
4, 1145, Note_on_c, 1, 58, 0
4, 1200, Note_on_c, 1, 58, 70
4, 1215, Note_on_c, 1, 58, 0
4, 1216, Note_on_c, 1, 60, 70
4, 1231, Note_on_c, 1, 60, 0
4, 1232, Note_on_c, 1, 62, 70
4, 1247, Note_on_c, 1, 62, 0
4, 1248, Note_on_c, 1, 60, 70
4, 1293, Note_on_c, 1, 60, 0
4, 1296, Note_on_c, 1, 53, 70
4, 1341, Note_on_c, 1, 53, 0
4, 1344, Note_on_c, 1, 58, 70
4, 1389, Note_on_c, 1, 58, 0
4, 1392, Note_on_c, 1, 60, 70
4, 1437, Note_on_c, 1, 60, 0
4, 1440, Note_on_c, 1, 62, 70
4, 1485, Note_on_c, 1, 62, 0
4, 1488, Note_on_c, 1, 62, 70
4, 1488, Note_on_c, 1, 58, 70
4, 1533, Note_on_c, 1, 62, 0
4, 1533, Note_on_c, 1, 58, 0
4, 1536, Note_on_c, 1, 63, 70
4, 1536, Note_on_c, 1, 58, 70
4, 1625, Note_on_c, 1, 63, 0
4, 1625, Note_on_c, 1, 58, 0
4, 1632, Note_on_c, 1, 62, 70
4, 1632, Note_on_c, 1, 58, 70
4, 1721, Note_on_c, 1, 62, 0
4, 1721, Note_on_c, 1, 58, 0
4, 1776, Note_on_c, 1, 58, 70
4, 1791, Note_on_c, 1, 58, 0
4, 1792, Note_on_c, 1, 60, 70
4, 1807, Note_on_c, 1, 60, 0
4, 1808, Note_on_c, 1, 62, 70
4, 1823, Note_on_c, 1, 62, 0
4, 1824, Note_on_c, 1, 60, 70
4, 1869, Note_on_c, 1, 60, 0
4, 1872, Note_on_c, 1, 53, 70
4, 1917, Note_on_c, 1, 53, 0
4, 1920, Note_on_c, 1, 58, 70
4, 1965, Note_on_c, 1, 58, 0
4, 1968, Note_on_c, 1, 50, 70
4, 1983, Note_on_c, 1, 50, 0
4, 1984, Note_on_c, 1, 51, 70
4, 1999, Note_on_c, 1, 51, 0
4, 2000, Note_on_c, 1, 53, 70
4, 2015, Note_on_c, 1, 53, 0
4, 2016, Note_on_c, 1, 46, 70
4, 2105, Note_on_c, 1, 46, 0
4, 2160, Note_on_c, 1, 62, 64
4, 2160, Note_on_c, 1, 58, 64
4, 2207, Note_on_c, 1, 62, 0
4, 2207, Note_on_c, 1, 58, 0
4, 2208, Note_on_c, 1, 62, 64
4, 2208, Note_on_c, 1, 58, 64
4, 2255, Note_on_c, 1, 62, 0
4, 2255, Note_on_c, 1, 58, 0
4, 2256, Note_on_c, 1, 62, 64
4, 2256, Note_on_c, 1, 58, 64
4, 2303, Note_on_c, 1, 62, 0
4, 2303, Note_on_c, 1, 58, 0
4, 2352, Note_on_c, 1, 63, 75
4, 2352, Note_on_c, 1, 51, 75
4, 2397, Note_on_c, 1, 63, 0
4, 2397, Note_on_c, 1, 51, 0
4, 2448, Note_on_c, 1, 53, 75
4, 2448, Note_on_c, 1, 41, 75
4, 2493, Note_on_c, 1, 53, 0
4, 2493, Note_on_c, 1, 41, 0
4, 2544, Note_on_c, 1, 55, 75
4, 2544, Note_on_c, 1, 43, 75
4, 2589, Note_on_c, 1, 55, 0
4, 2589, Note_on_c, 1, 43, 0
4, 2640, Note_on_c, 1, 57, 75
4, 2640, Note_on_c, 1, 45, 75
4, 2685, Note_on_c, 1, 57, 0
4, 2685, Note_on_c, 1, 45, 0
4, 2688, Note_on_c, 1, 58, 75
4, 2688, Note_on_c, 1, 46, 75
4, 2777, Note_on_c, 1, 58, 0
4, 2777, Note_on_c, 1, 46, 0
4, 2832, Note_on_c, 1, 64, 75
4, 2877, Note_on_c, 1, 64, 0
4, 2880, Note_on_c, 1, 65, 75
4, 2925, Note_on_c, 1, 65, 0
4, 2928, Note_on_c, 1, 53, 75
4, 2973, Note_on_c, 1, 53, 0
4, 3120, Note_on_c, 1, 62, 64
4, 3120, Note_on_c, 1, 58, 64
4, 3167, Note_on_c, 1, 62, 0
4, 3167, Note_on_c, 1, 58, 0
4, 3168, Note_on_c, 1, 62, 64
4, 3168, Note_on_c, 1, 58, 64
4, 3215, Note_on_c, 1, 62, 0
4, 3215, Note_on_c, 1, 58, 0
4, 3216, Note_on_c, 1, 62, 64
4, 3216, Note_on_c, 1, 58, 64
4, 3263, Note_on_c, 1, 62, 0
4, 3263, Note_on_c, 1, 58, 0
4, 3264, Note_on_c, 1, 63, 64
4, 3309, Note_on_c, 1, 63, 0
4, 3312, Note_on_c, 1, 51, 64
4, 3357, Note_on_c, 1, 51, 0
4, 3360, Note_on_c, 1, 53, 65
4, 3405, Note_on_c, 1, 53, 0
4, 3408, Note_on_c, 1, 41, 66
4, 3453, Note_on_c, 1, 41, 0
4, 3456, Note_on_c, 1, 43, 67
4, 3501, Note_on_c, 1, 43, 0
4, 3504, Note_on_c, 1, 55, 68
4, 3549, Note_on_c, 1, 55, 0
4, 3552, Note_on_c, 1, 57, 69
4, 3597, Note_on_c, 1, 57, 0
4, 3600, Note_on_c, 1, 45, 69
4, 3645, Note_on_c, 1, 45, 0
4, 3648, Note_on_c, 1, 46, 70
4, 3693, Note_on_c, 1, 46, 0
4, 3696, Note_on_c, 1, 58, 71
4, 3741, Note_on_c, 1, 58, 0
4, 3744, Note_on_c, 1, 60, 72
4, 3789, Note_on_c, 1, 60, 0
4, 3792, Note_on_c, 1, 48, 73
4, 3837, Note_on_c, 1, 48, 0
4, 3840, Note_on_c, 1, 50, 74
4, 3885, Note_on_c, 1, 50, 0
4, 3888, Note_on_c, 1, 62, 74
4, 3933, Note_on_c, 1, 62, 0
4, 3984, Note_on_c, 1, 58, 76
4, 4029, Note_on_c, 1, 58, 0
4, 4032, Note_on_c, 1, 63, 77
4, 4176, Note_on_c, 1, 63, 0
4, 4176, Note_on_c, 1, 64, 80
4, 4221, Note_on_c, 1, 64, 0
4, 4224, Note_on_c, 1, 65, 80
4, 4269, Note_on_c, 1, 65, 0
4, 4272, Note_on_c, 1, 60, 80
4, 4295, Note_on_c, 1, 60, 0
4, 4296, Note_on_c, 1, 57, 80
4, 4319, Note_on_c, 1, 57, 0
4, 4320, Note_on_c, 1, 53, 80
4, 4409, Note_on_c, 1, 53, 0
4, 4464, Note_on_c, 1, 60, 64
4, 4464, Note_on_c, 1, 57, 64
4, 4511, Note_on_c, 1, 60, 0
4, 4511, Note_on_c, 1, 57, 0
4, 4512, Note_on_c, 1, 60, 64
4, 4512, Note_on_c, 1, 57, 64
4, 4559, Note_on_c, 1, 60, 0
4, 4559, Note_on_c, 1, 57, 0
4, 4560, Note_on_c, 1, 60, 64
4, 4560, Note_on_c, 1, 57, 64
4, 4607, Note_on_c, 1, 60, 0
4, 4607, Note_on_c, 1, 57, 0
4, 4656, Note_on_c, 1, 62, 64
4, 4656, Note_on_c, 1, 58, 64
4, 4703, Note_on_c, 1, 62, 0
4, 4703, Note_on_c, 1, 58, 0
4, 4704, Note_on_c, 1, 62, 64
4, 4704, Note_on_c, 1, 58, 64
4, 4751, Note_on_c, 1, 62, 0
4, 4751, Note_on_c, 1, 58, 0
4, 4752, Note_on_c, 1, 62, 64
4, 4752, Note_on_c, 1, 58, 64
4, 4799, Note_on_c, 1, 62, 0
4, 4799, Note_on_c, 1, 58, 0
4, 4848, Note_on_c, 1, 63, 65
4, 4848, Note_on_c, 1, 60, 65
4, 4895, Note_on_c, 1, 63, 0
4, 4895, Note_on_c, 1, 60, 0
4, 4896, Note_on_c, 1, 63, 67
4, 4896, Note_on_c, 1, 60, 67
4, 4943, Note_on_c, 1, 63, 0
4, 4943, Note_on_c, 1, 60, 0
4, 4944, Note_on_c, 1, 63, 69
4, 4944, Note_on_c, 1, 60, 69
4, 4991, Note_on_c, 1, 63, 0
4, 4991, Note_on_c, 1, 60, 0
4, 5040, Note_on_c, 1, 65, 72
4, 5040, Note_on_c, 1, 62, 72
4, 5087, Note_on_c, 1, 65, 0
4, 5087, Note_on_c, 1, 62, 0
4, 5088, Note_on_c, 1, 65, 74
4, 5088, Note_on_c, 1, 62, 74
4, 5135, Note_on_c, 1, 65, 0
4, 5135, Note_on_c, 1, 62, 0
4, 5136, Note_on_c, 1, 65, 76
4, 5136, Note_on_c, 1, 62, 76
4, 5183, Note_on_c, 1, 65, 0
4, 5183, Note_on_c, 1, 62, 0
4, 5232, Note_on_c, 1, 65, 80
4, 5279, Note_on_c, 1, 65, 0
4, 5280, Note_on_c, 1, 65, 80
4, 5327, Note_on_c, 1, 65, 0
4, 5328, Note_on_c, 1, 71, 70
4, 5375, Note_on_c, 1, 71, 0
4, 5376, Note_on_c, 1, 72, 71
4, 5465, Note_on_c, 1, 72, 0
4, 5616, Note_on_c, 1, 65, 78
4, 5663, Note_on_c, 1, 65, 0
4, 5664, Note_on_c, 1, 65, 80
4, 5711, Note_on_c, 1, 65, 0
4, 5712, Note_on_c, 1, 71, 80
4, 5759, Note_on_c, 1, 71, 0
4, 5760, Note_on_c, 1, 72, 80
4, 5849, Note_on_c, 1, 72, 0
4, 5952, Note_on_c, 1, 65, 70
4, 5952, Note_on_c, 1, 57, 70
4, 5999, Note_on_c, 1, 65, 0
4, 5999, Note_on_c, 1, 57, 0
4, 6000, Note_on_c, 1, 65, 68
4, 6000, Note_on_c, 1, 57, 68
4, 6047, Note_on_c, 1, 65, 0
4, 6047, Note_on_c, 1, 57, 0
4, 6048, Note_on_c, 1, 65, 67
4, 6048, Note_on_c, 1, 57, 67
4, 6095, Note_on_c, 1, 65, 0
4, 6095, Note_on_c, 1, 57, 0
4, 6096, Note_on_c, 1, 65, 65
4, 6096, Note_on_c, 1, 57, 65
4, 6143, Note_on_c, 1, 65, 0
4, 6143, Note_on_c, 1, 57, 0
4, 6144, Note_on_c, 1, 65, 64
4, 6144, Note_on_c, 1, 58, 64
4, 6191, Note_on_c, 1, 65, 0
4, 6191, Note_on_c, 1, 58, 0
4, 6192, Note_on_c, 1, 65, 65
4, 6192, Note_on_c, 1, 58, 65
4, 6239, Note_on_c, 1, 65, 0
4, 6239, Note_on_c, 1, 58, 0
4, 6240, Note_on_c, 1, 65, 67
4, 6240, Note_on_c, 1, 58, 67
4, 6287, Note_on_c, 1, 65, 0
4, 6287, Note_on_c, 1, 58, 0
4, 6288, Note_on_c, 1, 65, 68
4, 6288, Note_on_c, 1, 58, 68
4, 6335, Note_on_c, 1, 65, 0
4, 6335, Note_on_c, 1, 58, 0
4, 6336, Note_on_c, 1, 65, 70
4, 6336, Note_on_c, 1, 57, 70
4, 6383, Note_on_c, 1, 65, 0
4, 6383, Note_on_c, 1, 57, 0
4, 6384, Note_on_c, 1, 65, 68
4, 6384, Note_on_c, 1, 57, 68
4, 6431, Note_on_c, 1, 65, 0
4, 6431, Note_on_c, 1, 57, 0
4, 6432, Note_on_c, 1, 65, 67
4, 6432, Note_on_c, 1, 57, 67
4, 6479, Note_on_c, 1, 65, 0
4, 6479, Note_on_c, 1, 57, 0
4, 6480, Note_on_c, 1, 65, 65
4, 6480, Note_on_c, 1, 57, 65
4, 6527, Note_on_c, 1, 65, 0
4, 6527, Note_on_c, 1, 57, 0
4, 6528, Note_on_c, 1, 65, 64
4, 6528, Note_on_c, 1, 58, 64
4, 6575, Note_on_c, 1, 65, 0
4, 6575, Note_on_c, 1, 58, 0
4, 6576, Note_on_c, 1, 65, 65
4, 6576, Note_on_c, 1, 58, 65
4, 6623, Note_on_c, 1, 65, 0
4, 6623, Note_on_c, 1, 58, 0
4, 6624, Note_on_c, 1, 65, 67
4, 6624, Note_on_c, 1, 58, 67
4, 6671, Note_on_c, 1, 65, 0
4, 6671, Note_on_c, 1, 58, 0
4, 6672, Note_on_c, 1, 65, 68
4, 6672, Note_on_c, 1, 58, 68
4, 6719, Note_on_c, 1, 65, 0
4, 6719, Note_on_c, 1, 58, 0
4, 6720, Note_on_c, 1, 65, 70
4, 6720, Note_on_c, 1, 57, 70
4, 6767, Note_on_c, 1, 65, 0
4, 6767, Note_on_c, 1, 57, 0
4, 6768, Note_on_c, 1, 65, 68
4, 6768, Note_on_c, 1, 57, 68
4, 6815, Note_on_c, 1, 65, 0
4, 6815, Note_on_c, 1, 57, 0
4, 6816, Note_on_c, 1, 65, 67
4, 6816, Note_on_c, 1, 57, 67
4, 6863, Note_on_c, 1, 65, 0
4, 6863, Note_on_c, 1, 57, 0
4, 6864, Note_on_c, 1, 65, 65
4, 6864, Note_on_c, 1, 57, 65
4, 6911, Note_on_c, 1, 65, 0
4, 6911, Note_on_c, 1, 57, 0
4, 6912, Note_on_c, 1, 65, 64
4, 6912, Note_on_c, 1, 55, 64
4, 6959, Note_on_c, 1, 65, 0
4, 6959, Note_on_c, 1, 55, 0
4, 6960, Note_on_c, 1, 65, 67
4, 6960, Note_on_c, 1, 55, 67
4, 7007, Note_on_c, 1, 65, 0
4, 7007, Note_on_c, 1, 55, 0
4, 7008, Note_on_c, 1, 65, 71
4, 7008, Note_on_c, 1, 55, 71
4, 7055, Note_on_c, 1, 65, 0
4, 7055, Note_on_c, 1, 55, 0
4, 7056, Note_on_c, 1, 65, 75
4, 7056, Note_on_c, 1, 55, 75
4, 7103, Note_on_c, 1, 65, 0
4, 7103, Note_on_c, 1, 55, 0
4, 7104, Note_on_c, 1, 65, 64
4, 7104, Note_on_c, 1, 55, 64
4, 7151, Note_on_c, 1, 65, 0
4, 7151, Note_on_c, 1, 55, 0
4, 7152, Note_on_c, 1, 65, 67
4, 7152, Note_on_c, 1, 55, 67
4, 7199, Note_on_c, 1, 65, 0
4, 7199, Note_on_c, 1, 55, 0
4, 7200, Note_on_c, 1, 65, 71
4, 7200, Note_on_c, 1, 55, 71
4, 7247, Note_on_c, 1, 65, 0
4, 7247, Note_on_c, 1, 55, 0
4, 7248, Note_on_c, 1, 65, 75
4, 7248, Note_on_c, 1, 55, 75
4, 7295, Note_on_c, 1, 65, 0
4, 7295, Note_on_c, 1, 55, 0
4, 7296, Note_on_c, 1, 64, 75
4, 7296, Note_on_c, 1, 60, 75
4, 7343, Note_on_c, 1, 64, 0
4, 7343, Note_on_c, 1, 60, 0
4, 7344, Note_on_c, 1, 64, 75
4, 7344, Note_on_c, 1, 60, 75
4, 7391, Note_on_c, 1, 64, 0
4, 7391, Note_on_c, 1, 60, 0
4, 7392, Note_on_c, 1, 64, 75
4, 7392, Note_on_c, 1, 60, 75
4, 7439, Note_on_c, 1, 64, 0
4, 7439, Note_on_c, 1, 60, 0
4, 7440, Note_on_c, 1, 64, 75
4, 7440, Note_on_c, 1, 60, 75
4, 7487, Note_on_c, 1, 64, 0
4, 7487, Note_on_c, 1, 60, 0
4, 7488, Note_on_c, 1, 65, 75
4, 7488, Note_on_c, 1, 53, 75
4, 7577, Note_on_c, 1, 65, 0
4, 7577, Note_on_c, 1, 53, 0
4, 7584, Note_on_c, 1, 58, 75
4, 7584, Note_on_c, 1, 46, 75
4, 7673, Note_on_c, 1, 58, 0
4, 7673, Note_on_c, 1, 46, 0
4, 7728, Note_on_c, 1, 53, 75
4, 7817, Note_on_c, 1, 53, 0
4, 7824, Note_on_c, 1, 52, 75
4, 7869, Note_on_c, 1, 52, 0
4, 7872, Note_on_c, 1, 53, 75
4, 7872, Note_on_c, 1, 41, 75
4, 7961, Note_on_c, 1, 53, 0
4, 7961, Note_on_c, 1, 41, 0
4, 7968, Note_on_c, 1, 58, 75
4, 7968, Note_on_c, 1, 46, 75
4, 8057, Note_on_c, 1, 58, 0
4, 8057, Note_on_c, 1, 46, 0
4, 8112, Note_on_c, 1, 53, 75
4, 8201, Note_on_c, 1, 53, 0
4, 8208, Note_on_c, 1, 52, 75
4, 8253, Note_on_c, 1, 52, 0
4, 8256, Note_on_c, 1, 53, 75
4, 8301, Note_on_c, 1, 53, 0
4, 8304, Note_on_c, 1, 48, 75
4, 8327, Note_on_c, 1, 48, 0
4, 8328, Note_on_c, 1, 45, 75
4, 8351, Note_on_c, 1, 45, 0
4, 8352, Note_on_c, 1, 41, 75
4, 8441, Note_on_c, 1, 41, 0
4, 8544, Note_on_c, 1, 60, 64
4, 8592, Note_on_c, 1, 60, 0
4, 8592, Note_on_c, 1, 61, 70
4, 8637, Note_on_c, 1, 61, 0
4, 8640, Note_on_c, 1, 62, 75
4, 8640, Note_on_c, 1, 58, 75
4, 8729, Note_on_c, 1, 62, 0
4, 8729, Note_on_c, 1, 58, 0
4, 9072, Note_on_c, 1, 57, 75
4, 9117, Note_on_c, 1, 57, 0
4, 9120, Note_on_c, 1, 58, 75
4, 9165, Note_on_c, 1, 58, 0
4, 9168, Note_on_c, 1, 60, 75
4, 9213, Note_on_c, 1, 60, 0
4, 9216, Note_on_c, 1, 53, 75
4, 9261, Note_on_c, 1, 53, 0
4, 9264, Note_on_c, 1, 65, 75
4, 9309, Note_on_c, 1, 65, 0
4, 9360, Note_on_c, 1, 69, 75
4, 9405, Note_on_c, 1, 69, 0
4, 9408, Note_on_c, 1, 67, 75
4, 9453, Note_on_c, 1, 67, 0
4, 9456, Note_on_c, 1, 65, 75
4, 9501, Note_on_c, 1, 65, 0
4, 9504, Note_on_c, 1, 64, 75
4, 9549, Note_on_c, 1, 64, 0
4, 9552, Note_on_c, 1, 67, 75
4, 9597, Note_on_c, 1, 67, 0
4, 9600, Note_on_c, 1, 65, 75
4, 9623, Note_on_c, 1, 65, 0
4, 9624, Note_on_c, 1, 60, 75
4, 9647, Note_on_c, 1, 60, 0
4, 9648, Note_on_c, 1, 57, 75
4, 9671, Note_on_c, 1, 57, 0
4, 9672, Note_on_c, 1, 53, 75
4, 9695, Note_on_c, 1, 53, 0
4, 9744, Note_on_c, 1, 69, 64
4, 9789, Note_on_c, 1, 69, 0
4, 9792, Note_on_c, 1, 67, 64
4, 9837, Note_on_c, 1, 67, 0
4, 9840, Note_on_c, 1, 65, 64
4, 9885, Note_on_c, 1, 65, 0
4, 9888, Note_on_c, 1, 64, 64
4, 9933, Note_on_c, 1, 64, 0
4, 9936, Note_on_c, 1, 67, 64
4, 9981, Note_on_c, 1, 67, 0
4, 9984, Note_on_c, 1, 65, 64
4, 10007, Note_on_c, 1, 65, 0
4, 10008, Note_on_c, 1, 60, 64
4, 10031, Note_on_c, 1, 60, 0
4, 10032, Note_on_c, 1, 57, 64
4, 10055, Note_on_c, 1, 57, 0
4, 10056, Note_on_c, 1, 53, 64
4, 10079, Note_on_c, 1, 53, 0
4, 10128, Note_on_c, 1, 69, 75
4, 10173, Note_on_c, 1, 69, 0
4, 10176, Note_on_c, 1, 67, 75
4, 10221, Note_on_c, 1, 67, 0
4, 10224, Note_on_c, 1, 65, 75
4, 10269, Note_on_c, 1, 65, 0
4, 10272, Note_on_c, 1, 64, 75
4, 10317, Note_on_c, 1, 64, 0
4, 10320, Note_on_c, 1, 67, 75
4, 10365, Note_on_c, 1, 67, 0
4, 10368, Note_on_c, 1, 65, 75
4, 10457, Note_on_c, 1, 65, 0
4, 10464, Note_on_c, 1, 58, 75
4, 10464, Note_on_c, 1, 46, 75
4, 10553, Note_on_c, 1, 58, 0
4, 10553, Note_on_c, 1, 46, 0
4, 10608, Note_on_c, 1, 53, 75
4, 10697, Note_on_c, 1, 53, 0
4, 10704, Note_on_c, 1, 52, 75
4, 10749, Note_on_c, 1, 52, 0
4, 10752, Note_on_c, 1, 53, 75
4, 10752, Note_on_c, 1, 41, 75
4, 10841, Note_on_c, 1, 53, 0
4, 10841, Note_on_c, 1, 41, 0
4, 10848, Note_on_c, 1, 69, 64
4, 10848, Note_on_c, 1, 65, 64
4, 10895, Note_on_c, 1, 69, 0
4, 10895, Note_on_c, 1, 65, 0
4, 10896, Note_on_c, 1, 69, 63
4, 10896, Note_on_c, 1, 65, 63
4, 10943, Note_on_c, 1, 69, 0
4, 10943, Note_on_c, 1, 65, 0
4, 10944, Note_on_c, 1, 70, 62
4, 10944, Note_on_c, 1, 65, 62
4, 10991, Note_on_c, 1, 70, 0
4, 10991, Note_on_c, 1, 65, 0
4, 10992, Note_on_c, 1, 70, 61
4, 10992, Note_on_c, 1, 65, 61
4, 11039, Note_on_c, 1, 70, 0
4, 11039, Note_on_c, 1, 65, 0
4, 11040, Note_on_c, 1, 67, 61
4, 11040, Note_on_c, 1, 65, 61
4, 11087, Note_on_c, 1, 67, 0
4, 11087, Note_on_c, 1, 65, 0
4, 11088, Note_on_c, 1, 67, 60
4, 11088, Note_on_c, 1, 65, 60
4, 11135, Note_on_c, 1, 67, 0
4, 11135, Note_on_c, 1, 65, 0
4, 11136, Note_on_c, 1, 69, 75
4, 11136, Note_on_c, 1, 65, 75
4, 11230, Note_on_c, 1, 69, 0
4, 11230, Note_on_c, 1, 65, 0
4, 11232, Note_on_c, 1, 57, 70
4, 11232, Note_on_c, 1, 53, 70
4, 11279, Note_on_c, 1, 57, 0
4, 11279, Note_on_c, 1, 53, 0
4, 11280, Note_on_c, 1, 57, 69
4, 11280, Note_on_c, 1, 53, 69
4, 11327, Note_on_c, 1, 57, 0
4, 11327, Note_on_c, 1, 53, 0
4, 11328, Note_on_c, 1, 58, 68
4, 11328, Note_on_c, 1, 53, 68
4, 11375, Note_on_c, 1, 58, 0
4, 11375, Note_on_c, 1, 53, 0
4, 11376, Note_on_c, 1, 58, 67
4, 11376, Note_on_c, 1, 53, 67
4, 11423, Note_on_c, 1, 58, 0
4, 11423, Note_on_c, 1, 53, 0
4, 11424, Note_on_c, 1, 55, 66
4, 11424, Note_on_c, 1, 53, 66
4, 11471, Note_on_c, 1, 55, 0
4, 11471, Note_on_c, 1, 53, 0
4, 11472, Note_on_c, 1, 55, 65
4, 11472, Note_on_c, 1, 53, 65
4, 11519, Note_on_c, 1, 55, 0
4, 11519, Note_on_c, 1, 53, 0
4, 11520, Note_on_c, 1, 57, 80
4, 11520, Note_on_c, 1, 53, 80
4, 11616, Note_on_c, 1, 57, 0
4, 11616, Note_on_c, 1, 53, 0
4, 11616, Note_on_c, 1, 53, 96
4, 11616, Note_on_c, 1, 48, 96
4, 11616, Note_on_c, 1, 45, 96
4, 11616, Note_on_c, 1, 41, 96
4, 11712, Note_on_c, 1, 53, 0
4, 11712, Note_on_c, 1, 48, 0
4, 11712, Note_on_c, 1, 45, 0
4, 11712, Note_on_c, 1, 41, 0
4, 11712, Note_on_c, 1, 53, 96
4, 11712, Note_on_c, 1, 48, 96
4, 11712, Note_on_c, 1, 45, 96
4, 11712, Note_on_c, 1, 41, 96
4, 11808, Note_on_c, 1, 53, 0
4, 11808, Note_on_c, 1, 48, 0
4, 11808, Note_on_c, 1, 45, 0
4, 11808, Note_on_c, 1, 41, 0
4, 11904, Note_on_c, 1, 58, 80
4, 11904, Note_on_c, 1, 46, 80
4, 12081, Note_on_c, 1, 58, 0
4, 12081, Note_on_c, 1, 46, 0
4, 12144, Note_on_c, 1, 58, 80
4, 12189, Note_on_c, 1, 58, 0
4, 12192, Note_on_c, 1, 46, 80
4, 12281, Note_on_c, 1, 46, 0
4, 12336, Note_on_c, 1, 58, 80
4, 12381, Note_on_c, 1, 58, 0
4, 12384, Note_on_c, 1, 46, 80
4, 12473, Note_on_c, 1, 46, 0
4, 12528, Note_on_c, 1, 58, 80
4, 12573, Note_on_c, 1, 58, 0
4, 12576, Note_on_c, 1, 46, 80
4, 12621, Note_on_c, 1, 46, 0
4, 12624, Note_on_c, 1, 62, 70
4, 12624, Note_on_c, 1, 58, 70
4, 12669, Note_on_c, 1, 62, 0
4, 12669, Note_on_c, 1, 58, 0
4, 12672, Note_on_c, 1, 63, 70
4, 12672, Note_on_c, 1, 58, 70
4, 12761, Note_on_c, 1, 63, 0
4, 12761, Note_on_c, 1, 58, 0
4, 12768, Note_on_c, 1, 62, 70
4, 12768, Note_on_c, 1, 58, 70
4, 12857, Note_on_c, 1, 62, 0
4, 12857, Note_on_c, 1, 58, 0
4, 12912, Note_on_c, 1, 58, 70
4, 12927, Note_on_c, 1, 58, 0
4, 12928, Note_on_c, 1, 60, 70
4, 12943, Note_on_c, 1, 60, 0
4, 12944, Note_on_c, 1, 62, 70
4, 12959, Note_on_c, 1, 62, 0
4, 12960, Note_on_c, 1, 60, 70
4, 13005, Note_on_c, 1, 60, 0
4, 13008, Note_on_c, 1, 53, 70
4, 13053, Note_on_c, 1, 53, 0
4, 13056, Note_on_c, 1, 58, 70
4, 13101, Note_on_c, 1, 58, 0
4, 13104, Note_on_c, 1, 60, 70
4, 13149, Note_on_c, 1, 60, 0
4, 13152, Note_on_c, 1, 62, 70
4, 13197, Note_on_c, 1, 62, 0
4, 13200, Note_on_c, 1, 62, 70
4, 13200, Note_on_c, 1, 58, 70
4, 13245, Note_on_c, 1, 62, 0
4, 13245, Note_on_c, 1, 58, 0
4, 13248, Note_on_c, 1, 63, 70
4, 13248, Note_on_c, 1, 58, 70
4, 13337, Note_on_c, 1, 63, 0
4, 13337, Note_on_c, 1, 58, 0
4, 13344, Note_on_c, 1, 62, 70
4, 13344, Note_on_c, 1, 58, 70
4, 13433, Note_on_c, 1, 62, 0
4, 13433, Note_on_c, 1, 58, 0
4, 13488, Note_on_c, 1, 58, 70
4, 13503, Note_on_c, 1, 58, 0
4, 13504, Note_on_c, 1, 60, 70
4, 13519, Note_on_c, 1, 60, 0
4, 13520, Note_on_c, 1, 62, 70
4, 13535, Note_on_c, 1, 62, 0
4, 13536, Note_on_c, 1, 60, 70
4, 13581, Note_on_c, 1, 60, 0
4, 13584, Note_on_c, 1, 53, 70
4, 13629, Note_on_c, 1, 53, 0
4, 13632, Note_on_c, 1, 58, 70
4, 13677, Note_on_c, 1, 58, 0
4, 13680, Note_on_c, 1, 50, 70
4, 13695, Note_on_c, 1, 50, 0
4, 13696, Note_on_c, 1, 51, 70
4, 13711, Note_on_c, 1, 51, 0
4, 13712, Note_on_c, 1, 53, 70
4, 13727, Note_on_c, 1, 53, 0
4, 13728, Note_on_c, 1, 46, 70
4, 13817, Note_on_c, 1, 46, 0
4, 13872, Note_on_c, 1, 62, 64
4, 13872, Note_on_c, 1, 58, 64
4, 13919, Note_on_c, 1, 62, 0
4, 13919, Note_on_c, 1, 58, 0
4, 13920, Note_on_c, 1, 62, 64
4, 13920, Note_on_c, 1, 58, 64
4, 13967, Note_on_c, 1, 62, 0
4, 13967, Note_on_c, 1, 58, 0
4, 13968, Note_on_c, 1, 62, 64
4, 13968, Note_on_c, 1, 58, 64
4, 14015, Note_on_c, 1, 62, 0
4, 14015, Note_on_c, 1, 58, 0
4, 14064, Note_on_c, 1, 63, 75
4, 14064, Note_on_c, 1, 51, 75
4, 14109, Note_on_c, 1, 63, 0
4, 14109, Note_on_c, 1, 51, 0
4, 14160, Note_on_c, 1, 53, 75
4, 14160, Note_on_c, 1, 41, 75
4, 14205, Note_on_c, 1, 53, 0
4, 14205, Note_on_c, 1, 41, 0
4, 14256, Note_on_c, 1, 55, 75
4, 14256, Note_on_c, 1, 43, 75
4, 14301, Note_on_c, 1, 55, 0
4, 14301, Note_on_c, 1, 43, 0
4, 14352, Note_on_c, 1, 57, 75
4, 14352, Note_on_c, 1, 45, 75
4, 14397, Note_on_c, 1, 57, 0
4, 14397, Note_on_c, 1, 45, 0
4, 14400, Note_on_c, 1, 58, 75
4, 14400, Note_on_c, 1, 46, 75
4, 14489, Note_on_c, 1, 58, 0
4, 14489, Note_on_c, 1, 46, 0
4, 14544, Note_on_c, 1, 64, 75
4, 14589, Note_on_c, 1, 64, 0
4, 14592, Note_on_c, 1, 65, 75
4, 14637, Note_on_c, 1, 65, 0
4, 14640, Note_on_c, 1, 53, 75
4, 14685, Note_on_c, 1, 53, 0
4, 14832, Note_on_c, 1, 62, 64
4, 14832, Note_on_c, 1, 58, 64
4, 14879, Note_on_c, 1, 62, 0
4, 14879, Note_on_c, 1, 58, 0
4, 14880, Note_on_c, 1, 62, 64
4, 14880, Note_on_c, 1, 58, 64
4, 14927, Note_on_c, 1, 62, 0
4, 14927, Note_on_c, 1, 58, 0
4, 14928, Note_on_c, 1, 62, 64
4, 14928, Note_on_c, 1, 58, 64
4, 14975, Note_on_c, 1, 62, 0
4, 14975, Note_on_c, 1, 58, 0
4, 14976, Note_on_c, 1, 63, 64
4, 15021, Note_on_c, 1, 63, 0
4, 15024, Note_on_c, 1, 51, 64
4, 15069, Note_on_c, 1, 51, 0
4, 15072, Note_on_c, 1, 53, 65
4, 15117, Note_on_c, 1, 53, 0
4, 15120, Note_on_c, 1, 41, 66
4, 15165, Note_on_c, 1, 41, 0
4, 15168, Note_on_c, 1, 43, 67
4, 15213, Note_on_c, 1, 43, 0
4, 15216, Note_on_c, 1, 55, 68
4, 15261, Note_on_c, 1, 55, 0
4, 15264, Note_on_c, 1, 57, 69
4, 15309, Note_on_c, 1, 57, 0
4, 15312, Note_on_c, 1, 45, 69
4, 15357, Note_on_c, 1, 45, 0
4, 15360, Note_on_c, 1, 46, 70
4, 15405, Note_on_c, 1, 46, 0
4, 15408, Note_on_c, 1, 58, 71
4, 15453, Note_on_c, 1, 58, 0
4, 15456, Note_on_c, 1, 60, 72
4, 15501, Note_on_c, 1, 60, 0
4, 15504, Note_on_c, 1, 48, 73
4, 15549, Note_on_c, 1, 48, 0
4, 15552, Note_on_c, 1, 50, 74
4, 15597, Note_on_c, 1, 50, 0
4, 15600, Note_on_c, 1, 62, 74
4, 15645, Note_on_c, 1, 62, 0
4, 15696, Note_on_c, 1, 58, 76
4, 15741, Note_on_c, 1, 58, 0
4, 15744, Note_on_c, 1, 63, 77
4, 15888, Note_on_c, 1, 63, 0
4, 15888, Note_on_c, 1, 64, 80
4, 15933, Note_on_c, 1, 64, 0
4, 15936, Note_on_c, 1, 65, 80
4, 15981, Note_on_c, 1, 65, 0
4, 15984, Note_on_c, 1, 60, 80
4, 16007, Note_on_c, 1, 60, 0
4, 16008, Note_on_c, 1, 57, 80
4, 16031, Note_on_c, 1, 57, 0
4, 16032, Note_on_c, 1, 53, 80
4, 16121, Note_on_c, 1, 53, 0
4, 16176, Note_on_c, 1, 60, 64
4, 16176, Note_on_c, 1, 57, 64
4, 16223, Note_on_c, 1, 60, 0
4, 16223, Note_on_c, 1, 57, 0
4, 16224, Note_on_c, 1, 60, 64
4, 16224, Note_on_c, 1, 57, 64
4, 16271, Note_on_c, 1, 60, 0
4, 16271, Note_on_c, 1, 57, 0
4, 16272, Note_on_c, 1, 60, 64
4, 16272, Note_on_c, 1, 57, 64
4, 16319, Note_on_c, 1, 60, 0
4, 16319, Note_on_c, 1, 57, 0
4, 16368, Note_on_c, 1, 62, 64
4, 16368, Note_on_c, 1, 58, 64
4, 16415, Note_on_c, 1, 62, 0
4, 16415, Note_on_c, 1, 58, 0
4, 16416, Note_on_c, 1, 62, 64
4, 16416, Note_on_c, 1, 58, 64
4, 16463, Note_on_c, 1, 62, 0
4, 16463, Note_on_c, 1, 58, 0
4, 16464, Note_on_c, 1, 62, 64
4, 16464, Note_on_c, 1, 58, 64
4, 16511, Note_on_c, 1, 62, 0
4, 16511, Note_on_c, 1, 58, 0
4, 16560, Note_on_c, 1, 63, 65
4, 16560, Note_on_c, 1, 60, 65
4, 16607, Note_on_c, 1, 63, 0
4, 16607, Note_on_c, 1, 60, 0
4, 16608, Note_on_c, 1, 63, 67
4, 16608, Note_on_c, 1, 60, 67
4, 16655, Note_on_c, 1, 63, 0
4, 16655, Note_on_c, 1, 60, 0
4, 16656, Note_on_c, 1, 63, 69
4, 16656, Note_on_c, 1, 60, 69
4, 16703, Note_on_c, 1, 63, 0
4, 16703, Note_on_c, 1, 60, 0
4, 16752, Note_on_c, 1, 65, 72
4, 16752, Note_on_c, 1, 62, 72
4, 16799, Note_on_c, 1, 65, 0
4, 16799, Note_on_c, 1, 62, 0
4, 16800, Note_on_c, 1, 65, 74
4, 16800, Note_on_c, 1, 62, 74
4, 16847, Note_on_c, 1, 65, 0
4, 16847, Note_on_c, 1, 62, 0
4, 16848, Note_on_c, 1, 65, 76
4, 16848, Note_on_c, 1, 62, 76
4, 16895, Note_on_c, 1, 65, 0
4, 16895, Note_on_c, 1, 62, 0
4, 16944, Note_on_c, 1, 65, 80
4, 16991, Note_on_c, 1, 65, 0
4, 16992, Note_on_c, 1, 65, 80
4, 17039, Note_on_c, 1, 65, 0
4, 17040, Note_on_c, 1, 71, 70
4, 17087, Note_on_c, 1, 71, 0
4, 17088, Note_on_c, 1, 72, 71
4, 17177, Note_on_c, 1, 72, 0
4, 17328, Note_on_c, 1, 65, 78
4, 17375, Note_on_c, 1, 65, 0
4, 17376, Note_on_c, 1, 65, 80
4, 17423, Note_on_c, 1, 65, 0
4, 17424, Note_on_c, 1, 71, 80
4, 17471, Note_on_c, 1, 71, 0
4, 17472, Note_on_c, 1, 72, 80
4, 17561, Note_on_c, 1, 72, 0
4, 17664, Note_on_c, 1, 65, 70
4, 17664, Note_on_c, 1, 57, 70
4, 17711, Note_on_c, 1, 65, 0
4, 17711, Note_on_c, 1, 57, 0
4, 17712, Note_on_c, 1, 65, 68
4, 17712, Note_on_c, 1, 57, 68
4, 17759, Note_on_c, 1, 65, 0
4, 17759, Note_on_c, 1, 57, 0
4, 17760, Note_on_c, 1, 65, 67
4, 17760, Note_on_c, 1, 57, 67
4, 17807, Note_on_c, 1, 65, 0
4, 17807, Note_on_c, 1, 57, 0
4, 17808, Note_on_c, 1, 65, 65
4, 17808, Note_on_c, 1, 57, 65
4, 17855, Note_on_c, 1, 65, 0
4, 17855, Note_on_c, 1, 57, 0
4, 17856, Note_on_c, 1, 65, 64
4, 17856, Note_on_c, 1, 58, 64
4, 17903, Note_on_c, 1, 65, 0
4, 17903, Note_on_c, 1, 58, 0
4, 17904, Note_on_c, 1, 65, 65
4, 17904, Note_on_c, 1, 58, 65
4, 17951, Note_on_c, 1, 65, 0
4, 17951, Note_on_c, 1, 58, 0
4, 17952, Note_on_c, 1, 65, 67
4, 17952, Note_on_c, 1, 58, 67
4, 17999, Note_on_c, 1, 65, 0
4, 17999, Note_on_c, 1, 58, 0
4, 18000, Note_on_c, 1, 65, 68
4, 18000, Note_on_c, 1, 58, 68
4, 18047, Note_on_c, 1, 65, 0
4, 18047, Note_on_c, 1, 58, 0
4, 18048, Note_on_c, 1, 65, 70
4, 18048, Note_on_c, 1, 57, 70
4, 18095, Note_on_c, 1, 65, 0
4, 18095, Note_on_c, 1, 57, 0
4, 18096, Note_on_c, 1, 65, 68
4, 18096, Note_on_c, 1, 57, 68
4, 18143, Note_on_c, 1, 65, 0
4, 18143, Note_on_c, 1, 57, 0
4, 18144, Note_on_c, 1, 65, 67
4, 18144, Note_on_c, 1, 57, 67
4, 18191, Note_on_c, 1, 65, 0
4, 18191, Note_on_c, 1, 57, 0
4, 18192, Note_on_c, 1, 65, 65
4, 18192, Note_on_c, 1, 57, 65
4, 18239, Note_on_c, 1, 65, 0
4, 18239, Note_on_c, 1, 57, 0
4, 18240, Note_on_c, 1, 65, 64
4, 18240, Note_on_c, 1, 58, 64
4, 18287, Note_on_c, 1, 65, 0
4, 18287, Note_on_c, 1, 58, 0
4, 18288, Note_on_c, 1, 65, 65
4, 18288, Note_on_c, 1, 58, 65
4, 18335, Note_on_c, 1, 65, 0
4, 18335, Note_on_c, 1, 58, 0
4, 18336, Note_on_c, 1, 65, 67
4, 18336, Note_on_c, 1, 58, 67
4, 18383, Note_on_c, 1, 65, 0
4, 18383, Note_on_c, 1, 58, 0
4, 18384, Note_on_c, 1, 65, 68
4, 18384, Note_on_c, 1, 58, 68
4, 18431, Note_on_c, 1, 65, 0
4, 18431, Note_on_c, 1, 58, 0
4, 18432, Note_on_c, 1, 65, 70
4, 18432, Note_on_c, 1, 57, 70
4, 18479, Note_on_c, 1, 65, 0
4, 18479, Note_on_c, 1, 57, 0
4, 18480, Note_on_c, 1, 65, 68
4, 18480, Note_on_c, 1, 57, 68
4, 18527, Note_on_c, 1, 65, 0
4, 18527, Note_on_c, 1, 57, 0
4, 18528, Note_on_c, 1, 65, 67
4, 18528, Note_on_c, 1, 57, 67
4, 18575, Note_on_c, 1, 65, 0
4, 18575, Note_on_c, 1, 57, 0
4, 18576, Note_on_c, 1, 65, 65
4, 18576, Note_on_c, 1, 57, 65
4, 18623, Note_on_c, 1, 65, 0
4, 18623, Note_on_c, 1, 57, 0
4, 18624, Note_on_c, 1, 65, 64
4, 18624, Note_on_c, 1, 55, 64
4, 18671, Note_on_c, 1, 65, 0
4, 18671, Note_on_c, 1, 55, 0
4, 18672, Note_on_c, 1, 65, 67
4, 18672, Note_on_c, 1, 55, 67
4, 18719, Note_on_c, 1, 65, 0
4, 18719, Note_on_c, 1, 55, 0
4, 18720, Note_on_c, 1, 65, 71
4, 18720, Note_on_c, 1, 55, 71
4, 18767, Note_on_c, 1, 65, 0
4, 18767, Note_on_c, 1, 55, 0
4, 18768, Note_on_c, 1, 65, 75
4, 18768, Note_on_c, 1, 55, 75
4, 18815, Note_on_c, 1, 65, 0
4, 18815, Note_on_c, 1, 55, 0
4, 18816, Note_on_c, 1, 65, 64
4, 18816, Note_on_c, 1, 55, 64
4, 18863, Note_on_c, 1, 65, 0
4, 18863, Note_on_c, 1, 55, 0
4, 18864, Note_on_c, 1, 65, 67
4, 18864, Note_on_c, 1, 55, 67
4, 18911, Note_on_c, 1, 65, 0
4, 18911, Note_on_c, 1, 55, 0
4, 18912, Note_on_c, 1, 65, 71
4, 18912, Note_on_c, 1, 55, 71
4, 18959, Note_on_c, 1, 65, 0
4, 18959, Note_on_c, 1, 55, 0
4, 18960, Note_on_c, 1, 65, 75
4, 18960, Note_on_c, 1, 55, 75
4, 19007, Note_on_c, 1, 65, 0
4, 19007, Note_on_c, 1, 55, 0
4, 19008, Note_on_c, 1, 64, 75
4, 19008, Note_on_c, 1, 60, 75
4, 19055, Note_on_c, 1, 64, 0
4, 19055, Note_on_c, 1, 60, 0
4, 19056, Note_on_c, 1, 64, 75
4, 19056, Note_on_c, 1, 60, 75
4, 19103, Note_on_c, 1, 64, 0
4, 19103, Note_on_c, 1, 60, 0
4, 19104, Note_on_c, 1, 64, 75
4, 19104, Note_on_c, 1, 60, 75
4, 19151, Note_on_c, 1, 64, 0
4, 19151, Note_on_c, 1, 60, 0
4, 19152, Note_on_c, 1, 64, 75
4, 19152, Note_on_c, 1, 60, 75
4, 19199, Note_on_c, 1, 64, 0
4, 19199, Note_on_c, 1, 60, 0
4, 19200, Note_on_c, 1, 65, 75
4, 19200, Note_on_c, 1, 53, 75
4, 19289, Note_on_c, 1, 65, 0
4, 19289, Note_on_c, 1, 53, 0
4, 19296, Note_on_c, 1, 58, 75
4, 19296, Note_on_c, 1, 46, 75
4, 19385, Note_on_c, 1, 58, 0
4, 19385, Note_on_c, 1, 46, 0
4, 19440, Note_on_c, 1, 53, 75
4, 19529, Note_on_c, 1, 53, 0
4, 19536, Note_on_c, 1, 52, 75
4, 19581, Note_on_c, 1, 52, 0
4, 19584, Note_on_c, 1, 53, 75
4, 19584, Note_on_c, 1, 41, 75
4, 19673, Note_on_c, 1, 53, 0
4, 19673, Note_on_c, 1, 41, 0
4, 19680, Note_on_c, 1, 58, 75
4, 19680, Note_on_c, 1, 46, 75
4, 19769, Note_on_c, 1, 58, 0
4, 19769, Note_on_c, 1, 46, 0
4, 19824, Note_on_c, 1, 53, 75
4, 19913, Note_on_c, 1, 53, 0
4, 19920, Note_on_c, 1, 52, 75
4, 19965, Note_on_c, 1, 52, 0
4, 19968, Note_on_c, 1, 53, 75
4, 20013, Note_on_c, 1, 53, 0
4, 20016, Note_on_c, 1, 48, 75
4, 20039, Note_on_c, 1, 48, 0
4, 20040, Note_on_c, 1, 45, 75
4, 20063, Note_on_c, 1, 45, 0
4, 20064, Note_on_c, 1, 41, 75
4, 20153, Note_on_c, 1, 41, 0
4, 20256, Note_on_c, 1, 60, 64
4, 20304, Note_on_c, 1, 60, 0
4, 20304, Note_on_c, 1, 61, 70
4, 20349, Note_on_c, 1, 61, 0
4, 20352, Note_on_c, 1, 62, 75
4, 20352, Note_on_c, 1, 58, 75
4, 20441, Note_on_c, 1, 62, 0
4, 20441, Note_on_c, 1, 58, 0
4, 20784, Note_on_c, 1, 57, 75
4, 20829, Note_on_c, 1, 57, 0
4, 20832, Note_on_c, 1, 58, 75
4, 20877, Note_on_c, 1, 58, 0
4, 20880, Note_on_c, 1, 60, 75
4, 20925, Note_on_c, 1, 60, 0
4, 20928, Note_on_c, 1, 53, 75
4, 20973, Note_on_c, 1, 53, 0
4, 20976, Note_on_c, 1, 65, 75
4, 21021, Note_on_c, 1, 65, 0
4, 21072, Note_on_c, 1, 69, 75
4, 21117, Note_on_c, 1, 69, 0
4, 21120, Note_on_c, 1, 67, 75
4, 21165, Note_on_c, 1, 67, 0
4, 21168, Note_on_c, 1, 65, 75
4, 21213, Note_on_c, 1, 65, 0
4, 21216, Note_on_c, 1, 64, 75
4, 21261, Note_on_c, 1, 64, 0
4, 21264, Note_on_c, 1, 67, 75
4, 21309, Note_on_c, 1, 67, 0
4, 21312, Note_on_c, 1, 65, 75
4, 21335, Note_on_c, 1, 65, 0
4, 21336, Note_on_c, 1, 60, 75
4, 21359, Note_on_c, 1, 60, 0
4, 21360, Note_on_c, 1, 57, 75
4, 21383, Note_on_c, 1, 57, 0
4, 21384, Note_on_c, 1, 53, 75
4, 21407, Note_on_c, 1, 53, 0
4, 21456, Note_on_c, 1, 69, 64
4, 21501, Note_on_c, 1, 69, 0
4, 21504, Note_on_c, 1, 67, 64
4, 21549, Note_on_c, 1, 67, 0
4, 21552, Note_on_c, 1, 65, 64
4, 21597, Note_on_c, 1, 65, 0
4, 21600, Note_on_c, 1, 64, 64
4, 21645, Note_on_c, 1, 64, 0
4, 21648, Note_on_c, 1, 67, 64
4, 21693, Note_on_c, 1, 67, 0
4, 21696, Note_on_c, 1, 65, 64
4, 21719, Note_on_c, 1, 65, 0
4, 21720, Note_on_c, 1, 60, 64
4, 21743, Note_on_c, 1, 60, 0
4, 21744, Note_on_c, 1, 57, 64
4, 21767, Note_on_c, 1, 57, 0
4, 21768, Note_on_c, 1, 53, 64
4, 21791, Note_on_c, 1, 53, 0
4, 21840, Note_on_c, 1, 69, 75
4, 21885, Note_on_c, 1, 69, 0
4, 21888, Note_on_c, 1, 67, 75
4, 21933, Note_on_c, 1, 67, 0
4, 21936, Note_on_c, 1, 65, 75
4, 21981, Note_on_c, 1, 65, 0
4, 21984, Note_on_c, 1, 64, 75
4, 22029, Note_on_c, 1, 64, 0
4, 22032, Note_on_c, 1, 67, 75
4, 22077, Note_on_c, 1, 67, 0
4, 22080, Note_on_c, 1, 65, 75
4, 22169, Note_on_c, 1, 65, 0
4, 22176, Note_on_c, 1, 58, 75
4, 22176, Note_on_c, 1, 46, 75
4, 22265, Note_on_c, 1, 58, 0
4, 22265, Note_on_c, 1, 46, 0
4, 22320, Note_on_c, 1, 53, 75
4, 22409, Note_on_c, 1, 53, 0
4, 22416, Note_on_c, 1, 52, 75
4, 22461, Note_on_c, 1, 52, 0
4, 22464, Note_on_c, 1, 53, 75
4, 22464, Note_on_c, 1, 41, 75
4, 22553, Note_on_c, 1, 53, 0
4, 22553, Note_on_c, 1, 41, 0
4, 22560, Note_on_c, 1, 69, 64
4, 22560, Note_on_c, 1, 65, 64
4, 22607, Note_on_c, 1, 69, 0
4, 22607, Note_on_c, 1, 65, 0
4, 22608, Note_on_c, 1, 69, 63
4, 22608, Note_on_c, 1, 65, 63
4, 22655, Note_on_c, 1, 69, 0
4, 22655, Note_on_c, 1, 65, 0
4, 22656, Note_on_c, 1, 70, 62
4, 22656, Note_on_c, 1, 65, 62
4, 22703, Note_on_c, 1, 70, 0
4, 22703, Note_on_c, 1, 65, 0
4, 22704, Note_on_c, 1, 70, 61
4, 22704, Note_on_c, 1, 65, 61
4, 22751, Note_on_c, 1, 70, 0
4, 22751, Note_on_c, 1, 65, 0
4, 22752, Note_on_c, 1, 67, 61
4, 22752, Note_on_c, 1, 65, 61
4, 22799, Note_on_c, 1, 67, 0
4, 22799, Note_on_c, 1, 65, 0
4, 22800, Note_on_c, 1, 67, 60
4, 22800, Note_on_c, 1, 65, 60
4, 22847, Note_on_c, 1, 67, 0
4, 22847, Note_on_c, 1, 65, 0
4, 22848, Note_on_c, 1, 69, 75
4, 22848, Note_on_c, 1, 65, 75
4, 22942, Note_on_c, 1, 69, 0
4, 22942, Note_on_c, 1, 65, 0
4, 22944, Note_on_c, 1, 57, 70
4, 22944, Note_on_c, 1, 53, 70
4, 22991, Note_on_c, 1, 57, 0
4, 22991, Note_on_c, 1, 53, 0
4, 22992, Note_on_c, 1, 57, 69
4, 22992, Note_on_c, 1, 53, 69
4, 23039, Note_on_c, 1, 57, 0
4, 23039, Note_on_c, 1, 53, 0
4, 23040, Note_on_c, 1, 58, 68
4, 23040, Note_on_c, 1, 53, 68
4, 23087, Note_on_c, 1, 58, 0
4, 23087, Note_on_c, 1, 53, 0
4, 23088, Note_on_c, 1, 58, 67
4, 23088, Note_on_c, 1, 53, 67
4, 23135, Note_on_c, 1, 58, 0
4, 23135, Note_on_c, 1, 53, 0
4, 23136, Note_on_c, 1, 55, 66
4, 23136, Note_on_c, 1, 53, 66
4, 23183, Note_on_c, 1, 55, 0
4, 23183, Note_on_c, 1, 53, 0
4, 23184, Note_on_c, 1, 55, 65
4, 23184, Note_on_c, 1, 53, 65
4, 23231, Note_on_c, 1, 55, 0
4, 23231, Note_on_c, 1, 53, 0
4, 23232, Note_on_c, 1, 57, 80
4, 23232, Note_on_c, 1, 53, 80
4, 23328, Note_on_c, 1, 57, 0
4, 23328, Note_on_c, 1, 53, 0
4, 23328, Note_on_c, 1, 53, 96
4, 23328, Note_on_c, 1, 48, 96
4, 23328, Note_on_c, 1, 45, 96
4, 23328, Note_on_c, 1, 41, 96
4, 23424, Note_on_c, 1, 53, 0
4, 23424, Note_on_c, 1, 48, 0
4, 23424, Note_on_c, 1, 45, 0
4, 23424, Note_on_c, 1, 41, 0
4, 23424, Note_on_c, 1, 53, 96
4, 23424, Note_on_c, 1, 48, 96
4, 23424, Note_on_c, 1, 45, 96
4, 23424, Note_on_c, 1, 41, 96
4, 23520, Note_on_c, 1, 53, 0
4, 23520, Note_on_c, 1, 48, 0
4, 23520, Note_on_c, 1, 45, 0
4, 23520, Note_on_c, 1, 41, 0
4, 23616, Note_on_c, 1, 53, 80
4, 23616, Note_on_c, 1, 41, 80
4, 23793, Note_on_c, 1, 53, 0
4, 23793, Note_on_c, 1, 41, 0
4, 23856, Note_on_c, 1, 53, 80
4, 23901, Note_on_c, 1, 53, 0
4, 23904, Note_on_c, 1, 41, 80
4, 23993, Note_on_c, 1, 41, 0
4, 24048, Note_on_c, 1, 53, 80
4, 24093, Note_on_c, 1, 53, 0
4, 24096, Note_on_c, 1, 41, 80
4, 24185, Note_on_c, 1, 41, 0
4, 24240, Note_on_c, 1, 53, 80
4, 24285, Note_on_c, 1, 53, 0
4, 24288, Note_on_c, 1, 41, 80
4, 24333, Note_on_c, 1, 41, 0
4, 24336, Note_on_c, 1, 57, 70
4, 24336, Note_on_c, 1, 53, 70
4, 24381, Note_on_c, 1, 57, 0
4, 24381, Note_on_c, 1, 53, 0
4, 24384, Note_on_c, 1, 58, 70
4, 24384, Note_on_c, 1, 53, 70
4, 24473, Note_on_c, 1, 58, 0
4, 24473, Note_on_c, 1, 53, 0
4, 24480, Note_on_c, 1, 57, 70
4, 24480, Note_on_c, 1, 53, 70
4, 24569, Note_on_c, 1, 57, 0
4, 24569, Note_on_c, 1, 53, 0
4, 24624, Note_on_c, 1, 53, 70
4, 24639, Note_on_c, 1, 53, 0
4, 24640, Note_on_c, 1, 55, 70
4, 24655, Note_on_c, 1, 55, 0
4, 24656, Note_on_c, 1, 57, 70
4, 24671, Note_on_c, 1, 57, 0
4, 24672, Note_on_c, 1, 55, 70
4, 24717, Note_on_c, 1, 55, 0
4, 24720, Note_on_c, 1, 48, 70
4, 24765, Note_on_c, 1, 48, 0
4, 24768, Note_on_c, 1, 53, 80
4, 24813, Note_on_c, 1, 53, 0
4, 24816, Note_on_c, 1, 55, 80
4, 24831, Note_on_c, 1, 55, 0
4, 24832, Note_on_c, 1, 53, 80
4, 24847, Note_on_c, 1, 53, 0
4, 24848, Note_on_c, 1, 51, 80
4, 24863, Note_on_c, 1, 51, 0
4, 24864, Note_on_c, 1, 50, 96
4, 24912, Note_on_c, 1, 50, 0
4, 24912, Note_on_c, 1, 62, 70
4, 24912, Note_on_c, 1, 58, 70
4, 24957, Note_on_c, 1, 62, 0
4, 24957, Note_on_c, 1, 58, 0
4, 24960, Note_on_c, 1, 63, 70
4, 24960, Note_on_c, 1, 58, 70
4, 25049, Note_on_c, 1, 63, 0
4, 25049, Note_on_c, 1, 58, 0
4, 25056, Note_on_c, 1, 62, 70
4, 25056, Note_on_c, 1, 58, 70
4, 25145, Note_on_c, 1, 62, 0
4, 25145, Note_on_c, 1, 58, 0
4, 25200, Note_on_c, 1, 58, 70
4, 25215, Note_on_c, 1, 58, 0
4, 25216, Note_on_c, 1, 60, 70
4, 25231, Note_on_c, 1, 60, 0
4, 25232, Note_on_c, 1, 62, 70
4, 25247, Note_on_c, 1, 62, 0
4, 25248, Note_on_c, 1, 60, 70
4, 25293, Note_on_c, 1, 60, 0
4, 25296, Note_on_c, 1, 53, 70
4, 25341, Note_on_c, 1, 53, 0
4, 25344, Note_on_c, 1, 58, 70
4, 25389, Note_on_c, 1, 58, 0
4, 25392, Note_on_c, 1, 60, 70
4, 25437, Note_on_c, 1, 60, 0
4, 25440, Note_on_c, 1, 62, 70
4, 25485, Note_on_c, 1, 62, 0
4, 25488, Note_on_c, 1, 63, 70
4, 25533, Note_on_c, 1, 63, 0
4, 25536, Note_on_c, 1, 65, 70
4, 25581, Note_on_c, 1, 65, 0
4, 25584, Note_on_c, 1, 62, 70
4, 25629, Note_on_c, 1, 62, 0
4, 25632, Note_on_c, 1, 63, 70
4, 25677, Note_on_c, 1, 63, 0
4, 25680, Note_on_c, 1, 51, 70
4, 25725, Note_on_c, 1, 51, 0
4, 25728, Note_on_c, 1, 60, 70
4, 25773, Note_on_c, 1, 60, 0
4, 25776, Note_on_c, 1, 62, 70
4, 25821, Note_on_c, 1, 62, 0
4, 25824, Note_on_c, 1, 64, 70
4, 25869, Note_on_c, 1, 64, 0
4, 25872, Note_on_c, 1, 65, 70
4, 25917, Note_on_c, 1, 65, 0
4, 25920, Note_on_c, 1, 67, 70
4, 25965, Note_on_c, 1, 67, 0
4, 25968, Note_on_c, 1, 64, 70
4, 26013, Note_on_c, 1, 64, 0
4, 26016, Note_on_c, 1, 65, 70
4, 26061, Note_on_c, 1, 65, 0
4, 26064, Note_on_c, 1, 53, 70
4, 26109, Note_on_c, 1, 53, 0
4, 26112, Note_on_c, 1, 62, 70
4, 26157, Note_on_c, 1, 62, 0
4, 26160, Note_on_c, 1, 64, 70
4, 26205, Note_on_c, 1, 64, 0
4, 26208, Note_on_c, 1, 66, 70
4, 26253, Note_on_c, 1, 66, 0
4, 26256, Note_on_c, 1, 67, 70
4, 26301, Note_on_c, 1, 67, 0
4, 26304, Note_on_c, 1, 69, 70
4, 26349, Note_on_c, 1, 69, 0
4, 26352, Note_on_c, 1, 66, 70
4, 26397, Note_on_c, 1, 66, 0
4, 26400, Note_on_c, 1, 67, 70
4, 26445, Note_on_c, 1, 67, 0
4, 26448, Note_on_c, 1, 55, 70
4, 26493, Note_on_c, 1, 55, 0
4, 26496, Note_on_c, 1, 70, 70
4, 26496, Note_on_c, 1, 67, 70
4, 26541, Note_on_c, 1, 70, 0
4, 26541, Note_on_c, 1, 67, 0
4, 26544, Note_on_c, 1, 70, 69
4, 26544, Note_on_c, 1, 67, 69
4, 26589, Note_on_c, 1, 70, 0
4, 26589, Note_on_c, 1, 67, 0
4, 26592, Note_on_c, 1, 70, 68
4, 26592, Note_on_c, 1, 67, 68
4, 26637, Note_on_c, 1, 70, 0
4, 26637, Note_on_c, 1, 67, 0
4, 26640, Note_on_c, 1, 70, 67
4, 26640, Note_on_c, 1, 67, 67
4, 26685, Note_on_c, 1, 70, 0
4, 26685, Note_on_c, 1, 67, 0
4, 26688, Note_on_c, 1, 69, 66
4, 26688, Note_on_c, 1, 67, 66
4, 26733, Note_on_c, 1, 69, 0
4, 26733, Note_on_c, 1, 67, 0
4, 26736, Note_on_c, 1, 69, 65
4, 26736, Note_on_c, 1, 67, 65
4, 26781, Note_on_c, 1, 69, 0
4, 26781, Note_on_c, 1, 67, 0
4, 26784, Note_on_c, 1, 69, 64
4, 26784, Note_on_c, 1, 67, 64
4, 26829, Note_on_c, 1, 69, 0
4, 26829, Note_on_c, 1, 67, 0
4, 26832, Note_on_c, 1, 69, 64
4, 26832, Note_on_c, 1, 67, 64
4, 26877, Note_on_c, 1, 69, 0
4, 26877, Note_on_c, 1, 67, 0
4, 26880, Note_on_c, 1, 69, 70
4, 26880, Note_on_c, 1, 65, 70
4, 26925, Note_on_c, 1, 69, 0
4, 26925, Note_on_c, 1, 65, 0
4, 26928, Note_on_c, 1, 69, 69
4, 26928, Note_on_c, 1, 65, 69
4, 26973, Note_on_c, 1, 69, 0
4, 26973, Note_on_c, 1, 65, 0
4, 26976, Note_on_c, 1, 69, 68
4, 26976, Note_on_c, 1, 65, 68
4, 27021, Note_on_c, 1, 69, 0
4, 27021, Note_on_c, 1, 65, 0
4, 27024, Note_on_c, 1, 69, 67
4, 27024, Note_on_c, 1, 65, 67
4, 27069, Note_on_c, 1, 69, 0
4, 27069, Note_on_c, 1, 65, 0
4, 27072, Note_on_c, 1, 67, 66
4, 27072, Note_on_c, 1, 65, 66
4, 27117, Note_on_c, 1, 67, 0
4, 27117, Note_on_c, 1, 65, 0
4, 27120, Note_on_c, 1, 67, 65
4, 27120, Note_on_c, 1, 65, 65
4, 27165, Note_on_c, 1, 67, 0
4, 27165, Note_on_c, 1, 65, 0
4, 27168, Note_on_c, 1, 67, 64
4, 27168, Note_on_c, 1, 65, 64
4, 27213, Note_on_c, 1, 67, 0
4, 27213, Note_on_c, 1, 65, 0
4, 27216, Note_on_c, 1, 67, 64
4, 27216, Note_on_c, 1, 65, 64
4, 27261, Note_on_c, 1, 67, 0
4, 27261, Note_on_c, 1, 65, 0
4, 27264, Note_on_c, 1, 67, 70
4, 27264, Note_on_c, 1, 63, 70
4, 27309, Note_on_c, 1, 67, 0
4, 27309, Note_on_c, 1, 63, 0
4, 27312, Note_on_c, 1, 67, 69
4, 27312, Note_on_c, 1, 63, 69
4, 27357, Note_on_c, 1, 67, 0
4, 27357, Note_on_c, 1, 63, 0
4, 27360, Note_on_c, 1, 67, 68
4, 27360, Note_on_c, 1, 63, 68
4, 27405, Note_on_c, 1, 67, 0
4, 27405, Note_on_c, 1, 63, 0
4, 27408, Note_on_c, 1, 67, 67
4, 27408, Note_on_c, 1, 63, 67
4, 27453, Note_on_c, 1, 67, 0
4, 27453, Note_on_c, 1, 63, 0
4, 27456, Note_on_c, 1, 65, 66
4, 27456, Note_on_c, 1, 63, 66
4, 27501, Note_on_c, 1, 65, 0
4, 27501, Note_on_c, 1, 63, 0
4, 27504, Note_on_c, 1, 65, 65
4, 27504, Note_on_c, 1, 63, 65
4, 27549, Note_on_c, 1, 65, 0
4, 27549, Note_on_c, 1, 63, 0
4, 27552, Note_on_c, 1, 65, 64
4, 27552, Note_on_c, 1, 63, 64
4, 27597, Note_on_c, 1, 65, 0
4, 27597, Note_on_c, 1, 63, 0
4, 27600, Note_on_c, 1, 65, 64
4, 27600, Note_on_c, 1, 63, 64
4, 27645, Note_on_c, 1, 65, 0
4, 27645, Note_on_c, 1, 63, 0
4, 27648, Note_on_c, 1, 65, 64
4, 27648, Note_on_c, 1, 62, 64
4, 27693, Note_on_c, 1, 65, 0
4, 27693, Note_on_c, 1, 62, 0
4, 27696, Note_on_c, 1, 65, 62
4, 27696, Note_on_c, 1, 62, 62
4, 27741, Note_on_c, 1, 65, 0
4, 27741, Note_on_c, 1, 62, 0
4, 27744, Note_on_c, 1, 65, 61
4, 27744, Note_on_c, 1, 62, 61
4, 27789, Note_on_c, 1, 65, 0
4, 27789, Note_on_c, 1, 62, 0
4, 27792, Note_on_c, 1, 65, 60
4, 27792, Note_on_c, 1, 62, 60
4, 27837, Note_on_c, 1, 65, 0
4, 27837, Note_on_c, 1, 62, 0
4, 27840, Note_on_c, 1, 65, 59
4, 27840, Note_on_c, 1, 62, 59
4, 27885, Note_on_c, 1, 65, 0
4, 27885, Note_on_c, 1, 62, 0
4, 27888, Note_on_c, 1, 58, 58
4, 27933, Note_on_c, 1, 58, 0
4, 27936, Note_on_c, 1, 60, 59
4, 27981, Note_on_c, 1, 60, 0
4, 27984, Note_on_c, 1, 62, 61
4, 28029, Note_on_c, 1, 62, 0
4, 28032, Note_on_c, 1, 63, 62
4, 28077, Note_on_c, 1, 63, 0
4, 28080, Note_on_c, 1, 60, 64
4, 28125, Note_on_c, 1, 60, 0
4, 28128, Note_on_c, 1, 62, 65
4, 28173, Note_on_c, 1, 62, 0
4, 28176, Note_on_c, 1, 64, 67
4, 28221, Note_on_c, 1, 64, 0
4, 28224, Note_on_c, 1, 65, 68
4, 28269, Note_on_c, 1, 65, 0
4, 28272, Note_on_c, 1, 62, 70
4, 28317, Note_on_c, 1, 62, 0
4, 28320, Note_on_c, 1, 64, 71
4, 28365, Note_on_c, 1, 64, 0
4, 28368, Note_on_c, 1, 66, 73
4, 28413, Note_on_c, 1, 66, 0
4, 28416, Note_on_c, 1, 67, 75
4, 28461, Note_on_c, 1, 67, 0
4, 28464, Note_on_c, 1, 60, 75
4, 28509, Note_on_c, 1, 60, 0
4, 28512, Note_on_c, 1, 58, 75
4, 28557, Note_on_c, 1, 58, 0
4, 28656, Note_on_c, 1, 60, 75
4, 28701, Note_on_c, 1, 60, 0
4, 28704, Note_on_c, 1, 62, 75
4, 28749, Note_on_c, 1, 62, 0
4, 28752, Note_on_c, 1, 50, 75
4, 28797, Note_on_c, 1, 50, 0
4, 28800, Note_on_c, 1, 55, 75
4, 28845, Note_on_c, 1, 55, 0
4, 28848, Note_on_c, 1, 60, 75
4, 28893, Note_on_c, 1, 60, 0
4, 28896, Note_on_c, 1, 58, 75
4, 28941, Note_on_c, 1, 58, 0
4, 29040, Note_on_c, 1, 60, 75
4, 29085, Note_on_c, 1, 60, 0
4, 29088, Note_on_c, 1, 62, 75
4, 29133, Note_on_c, 1, 62, 0
4, 29136, Note_on_c, 1, 50, 75
4, 29181, Note_on_c, 1, 50, 0
4, 29184, Note_on_c, 1, 55, 75
4, 29229, Note_on_c, 1, 55, 0
4, 29232, Note_on_c, 1, 43, 75
4, 29277, Note_on_c, 1, 43, 0
4, 29328, Note_on_c, 1, 59, 75
4, 29373, Note_on_c, 1, 59, 0
4, 29376, Note_on_c, 1, 60, 75
4, 29421, Note_on_c, 1, 60, 0
4, 29424, Note_on_c, 1, 63, 75
4, 29469, Note_on_c, 1, 63, 0
4, 29472, Note_on_c, 1, 62, 75
4, 29517, Note_on_c, 1, 62, 0
4, 29520, Note_on_c, 1, 65, 75
4, 29565, Note_on_c, 1, 65, 0
4, 29568, Note_on_c, 1, 63, 75
4, 29613, Note_on_c, 1, 63, 0
4, 29616, Note_on_c, 1, 51, 75
4, 29661, Note_on_c, 1, 51, 0
4, 29712, Note_on_c, 1, 57, 75
4, 29757, Note_on_c, 1, 57, 0
4, 29760, Note_on_c, 1, 58, 75
4, 29805, Note_on_c, 1, 58, 0
4, 29808, Note_on_c, 1, 62, 75
4, 29853, Note_on_c, 1, 62, 0
4, 29856, Note_on_c, 1, 60, 75
4, 29901, Note_on_c, 1, 60, 0
4, 29904, Note_on_c, 1, 63, 75
4, 29949, Note_on_c, 1, 63, 0
4, 29952, Note_on_c, 1, 62, 75
4, 29997, Note_on_c, 1, 62, 0
4, 30000, Note_on_c, 1, 50, 75
4, 30045, Note_on_c, 1, 50, 0
4, 30096, Note_on_c, 1, 62, 70
4, 30141, Note_on_c, 1, 62, 0
4, 30144, Note_on_c, 1, 63, 70
4, 30189, Note_on_c, 1, 63, 0
4, 30192, Note_on_c, 1, 51, 71
4, 30237, Note_on_c, 1, 51, 0
4, 30240, Note_on_c, 1, 53, 71
4, 30285, Note_on_c, 1, 53, 0
4, 30288, Note_on_c, 1, 41, 72
4, 30333, Note_on_c, 1, 41, 0
4, 30336, Note_on_c, 1, 43, 72
4, 30381, Note_on_c, 1, 43, 0
4, 30384, Note_on_c, 1, 55, 73
4, 30429, Note_on_c, 1, 55, 0
4, 30432, Note_on_c, 1, 57, 73
4, 30477, Note_on_c, 1, 57, 0
4, 30480, Note_on_c, 1, 45, 74
4, 30525, Note_on_c, 1, 45, 0
4, 30528, Note_on_c, 1, 46, 74
4, 30573, Note_on_c, 1, 46, 0
4, 30576, Note_on_c, 1, 58, 75
4, 30621, Note_on_c, 1, 58, 0
4, 30624, Note_on_c, 1, 60, 75
4, 30669, Note_on_c, 1, 60, 0
4, 30672, Note_on_c, 1, 48, 76
4, 30717, Note_on_c, 1, 48, 0
4, 30720, Note_on_c, 1, 50, 76
4, 30765, Note_on_c, 1, 50, 0
4, 30768, Note_on_c, 1, 62, 77
4, 30813, Note_on_c, 1, 62, 0
4, 30864, Note_on_c, 1, 58, 78
4, 30909, Note_on_c, 1, 58, 0
4, 30912, Note_on_c, 1, 63, 78
4, 31001, Note_on_c, 1, 63, 0
4, 31056, Note_on_c, 1, 64, 80
4, 31101, Note_on_c, 1, 64, 0
4, 31104, Note_on_c, 1, 65, 80
4, 31149, Note_on_c, 1, 65, 0
4, 31152, Note_on_c, 1, 53, 80
4, 31197, Note_on_c, 1, 53, 0
4, 31296, Note_on_c, 1, 58, 80
4, 31296, Note_on_c, 1, 46, 80
4, 31473, Note_on_c, 1, 58, 0
4, 31473, Note_on_c, 1, 46, 0
4, 31536, Note_on_c, 1, 58, 80
4, 31581, Note_on_c, 1, 58, 0
4, 31584, Note_on_c, 1, 46, 80
4, 31673, Note_on_c, 1, 46, 0
4, 31728, Note_on_c, 1, 58, 80
4, 31773, Note_on_c, 1, 58, 0
4, 31776, Note_on_c, 1, 46, 80
4, 31865, Note_on_c, 1, 46, 0
4, 31920, Note_on_c, 1, 58, 80
4, 31965, Note_on_c, 1, 58, 0
4, 31968, Note_on_c, 1, 46, 80
4, 32013, Note_on_c, 1, 46, 0
4, 32016, Note_on_c, 1, 62, 70
4, 32016, Note_on_c, 1, 58, 70
4, 32061, Note_on_c, 1, 62, 0
4, 32061, Note_on_c, 1, 58, 0
4, 32064, Note_on_c, 1, 63, 70
4, 32064, Note_on_c, 1, 58, 70
4, 32153, Note_on_c, 1, 63, 0
4, 32153, Note_on_c, 1, 58, 0
4, 32160, Note_on_c, 1, 62, 70
4, 32160, Note_on_c, 1, 58, 70
4, 32249, Note_on_c, 1, 62, 0
4, 32249, Note_on_c, 1, 58, 0
4, 32304, Note_on_c, 1, 46, 80
4, 32349, Note_on_c, 1, 46, 0
4, 32352, Note_on_c, 1, 48, 80
4, 32397, Note_on_c, 1, 48, 0
4, 32400, Note_on_c, 1, 50, 80
4, 32445, Note_on_c, 1, 50, 0
4, 32448, Note_on_c, 1, 51, 80
4, 32537, Note_on_c, 1, 51, 0
4, 32592, Note_on_c, 1, 52, 80
4, 32637, Note_on_c, 1, 52, 0
4, 32640, Note_on_c, 1, 53, 80
4, 32685, Note_on_c, 1, 53, 0
4, 32688, Note_on_c, 1, 48, 80
4, 32711, Note_on_c, 1, 48, 0
4, 32712, Note_on_c, 1, 45, 80
4, 32735, Note_on_c, 1, 45, 0
4, 32736, Note_on_c, 1, 41, 80
4, 32825, Note_on_c, 1, 41, 0
4, 32880, Note_on_c, 1, 53, 64
4, 32880, Note_on_c, 1, 50, 64
4, 32927, Note_on_c, 1, 53, 0
4, 32927, Note_on_c, 1, 50, 0
4, 32928, Note_on_c, 1, 53, 64
4, 32928, Note_on_c, 1, 50, 64
4, 32975, Note_on_c, 1, 53, 0
4, 32975, Note_on_c, 1, 50, 0
4, 32976, Note_on_c, 1, 53, 64
4, 32976, Note_on_c, 1, 50, 64
4, 33023, Note_on_c, 1, 53, 0
4, 33023, Note_on_c, 1, 50, 0
4, 33072, Note_on_c, 1, 55, 64
4, 33072, Note_on_c, 1, 51, 64
4, 33119, Note_on_c, 1, 55, 0
4, 33119, Note_on_c, 1, 51, 0
4, 33120, Note_on_c, 1, 55, 64
4, 33120, Note_on_c, 1, 51, 64
4, 33167, Note_on_c, 1, 55, 0
4, 33167, Note_on_c, 1, 51, 0
4, 33168, Note_on_c, 1, 55, 64
4, 33168, Note_on_c, 1, 51, 64
4, 33215, Note_on_c, 1, 55, 0
4, 33215, Note_on_c, 1, 51, 0
4, 33264, Note_on_c, 1, 56, 65
4, 33264, Note_on_c, 1, 53, 65
4, 33311, Note_on_c, 1, 56, 0
4, 33311, Note_on_c, 1, 53, 0
4, 33312, Note_on_c, 1, 56, 67
4, 33312, Note_on_c, 1, 53, 67
4, 33359, Note_on_c, 1, 56, 0
4, 33359, Note_on_c, 1, 53, 0
4, 33360, Note_on_c, 1, 56, 69
4, 33360, Note_on_c, 1, 53, 69
4, 33407, Note_on_c, 1, 56, 0
4, 33407, Note_on_c, 1, 53, 0
4, 33456, Note_on_c, 1, 58, 72
4, 33456, Note_on_c, 1, 55, 72
4, 33503, Note_on_c, 1, 58, 0
4, 33503, Note_on_c, 1, 55, 0
4, 33504, Note_on_c, 1, 58, 74
4, 33504, Note_on_c, 1, 55, 74
4, 33551, Note_on_c, 1, 58, 0
4, 33551, Note_on_c, 1, 55, 0
4, 33552, Note_on_c, 1, 58, 76
4, 33552, Note_on_c, 1, 55, 76
4, 33599, Note_on_c, 1, 58, 0
4, 33599, Note_on_c, 1, 55, 0
4, 33648, Note_on_c, 1, 58, 80
4, 33695, Note_on_c, 1, 58, 0
4, 33696, Note_on_c, 1, 58, 80
4, 33743, Note_on_c, 1, 58, 0
4, 33744, Note_on_c, 1, 64, 70
4, 33791, Note_on_c, 1, 64, 0
4, 33792, Note_on_c, 1, 65, 71
4, 33837, Note_on_c, 1, 65, 0
4, 34032, Note_on_c, 1, 58, 78
4, 34079, Note_on_c, 1, 58, 0
4, 34080, Note_on_c, 1, 58, 80
4, 34127, Note_on_c, 1, 58, 0
4, 34128, Note_on_c, 1, 64, 80
4, 34175, Note_on_c, 1, 64, 0
4, 34176, Note_on_c, 1, 65, 80
4, 34221, Note_on_c, 1, 65, 0
4, 34368, Note_on_c, 1, 58, 70
4, 34368, Note_on_c, 1, 50, 70
4, 34415, Note_on_c, 1, 58, 0
4, 34415, Note_on_c, 1, 50, 0
4, 34416, Note_on_c, 1, 58, 68
4, 34416, Note_on_c, 1, 50, 68
4, 34463, Note_on_c, 1, 58, 0
4, 34463, Note_on_c, 1, 50, 0
4, 34464, Note_on_c, 1, 58, 67
4, 34464, Note_on_c, 1, 50, 67
4, 34511, Note_on_c, 1, 58, 0
4, 34511, Note_on_c, 1, 50, 0
4, 34512, Note_on_c, 1, 58, 65
4, 34512, Note_on_c, 1, 50, 65
4, 34559, Note_on_c, 1, 58, 0
4, 34559, Note_on_c, 1, 50, 0
4, 34560, Note_on_c, 1, 58, 64
4, 34560, Note_on_c, 1, 51, 64
4, 34607, Note_on_c, 1, 58, 0
4, 34607, Note_on_c, 1, 51, 0
4, 34608, Note_on_c, 1, 58, 65
4, 34608, Note_on_c, 1, 51, 65
4, 34655, Note_on_c, 1, 58, 0
4, 34655, Note_on_c, 1, 51, 0
4, 34656, Note_on_c, 1, 58, 67
4, 34656, Note_on_c, 1, 51, 67
4, 34703, Note_on_c, 1, 58, 0
4, 34703, Note_on_c, 1, 51, 0
4, 34704, Note_on_c, 1, 58, 68
4, 34704, Note_on_c, 1, 51, 68
4, 34751, Note_on_c, 1, 58, 0
4, 34751, Note_on_c, 1, 51, 0
4, 34752, Note_on_c, 1, 58, 70
4, 34752, Note_on_c, 1, 50, 70
4, 34799, Note_on_c, 1, 58, 0
4, 34799, Note_on_c, 1, 50, 0
4, 34800, Note_on_c, 1, 58, 68
4, 34800, Note_on_c, 1, 50, 68
4, 34847, Note_on_c, 1, 58, 0
4, 34847, Note_on_c, 1, 50, 0
4, 34848, Note_on_c, 1, 58, 67
4, 34848, Note_on_c, 1, 50, 67
4, 34895, Note_on_c, 1, 58, 0
4, 34895, Note_on_c, 1, 50, 0
4, 34896, Note_on_c, 1, 58, 65
4, 34896, Note_on_c, 1, 50, 65
4, 34943, Note_on_c, 1, 58, 0
4, 34943, Note_on_c, 1, 50, 0
4, 34944, Note_on_c, 1, 58, 64
4, 34944, Note_on_c, 1, 51, 64
4, 34991, Note_on_c, 1, 58, 0
4, 34991, Note_on_c, 1, 51, 0
4, 34992, Note_on_c, 1, 58, 65
4, 34992, Note_on_c, 1, 51, 65
4, 35039, Note_on_c, 1, 58, 0
4, 35039, Note_on_c, 1, 51, 0
4, 35040, Note_on_c, 1, 58, 67
4, 35040, Note_on_c, 1, 51, 67
4, 35087, Note_on_c, 1, 58, 0
4, 35087, Note_on_c, 1, 51, 0
4, 35088, Note_on_c, 1, 58, 68
4, 35088, Note_on_c, 1, 51, 68
4, 35135, Note_on_c, 1, 58, 0
4, 35135, Note_on_c, 1, 51, 0
4, 35136, Note_on_c, 1, 58, 70
4, 35136, Note_on_c, 1, 50, 70
4, 35183, Note_on_c, 1, 58, 0
4, 35183, Note_on_c, 1, 50, 0
4, 35184, Note_on_c, 1, 58, 68
4, 35184, Note_on_c, 1, 50, 68
4, 35231, Note_on_c, 1, 58, 0
4, 35231, Note_on_c, 1, 50, 0
4, 35232, Note_on_c, 1, 58, 67
4, 35232, Note_on_c, 1, 50, 67
4, 35279, Note_on_c, 1, 58, 0
4, 35279, Note_on_c, 1, 50, 0
4, 35280, Note_on_c, 1, 58, 65
4, 35280, Note_on_c, 1, 50, 65
4, 35327, Note_on_c, 1, 58, 0
4, 35327, Note_on_c, 1, 50, 0
4, 35328, Note_on_c, 1, 58, 64
4, 35328, Note_on_c, 1, 48, 64
4, 35375, Note_on_c, 1, 58, 0
4, 35375, Note_on_c, 1, 48, 0
4, 35376, Note_on_c, 1, 58, 67
4, 35376, Note_on_c, 1, 48, 67
4, 35423, Note_on_c, 1, 58, 0
4, 35423, Note_on_c, 1, 48, 0
4, 35424, Note_on_c, 1, 58, 71
4, 35424, Note_on_c, 1, 48, 71
4, 35471, Note_on_c, 1, 58, 0
4, 35471, Note_on_c, 1, 48, 0
4, 35472, Note_on_c, 1, 58, 75
4, 35472, Note_on_c, 1, 48, 75
4, 35519, Note_on_c, 1, 58, 0
4, 35519, Note_on_c, 1, 48, 0
4, 35520, Note_on_c, 1, 58, 64
4, 35520, Note_on_c, 1, 48, 64
4, 35567, Note_on_c, 1, 58, 0
4, 35567, Note_on_c, 1, 48, 0
4, 35568, Note_on_c, 1, 58, 67
4, 35568, Note_on_c, 1, 48, 67
4, 35615, Note_on_c, 1, 58, 0
4, 35615, Note_on_c, 1, 48, 0
4, 35616, Note_on_c, 1, 58, 71
4, 35616, Note_on_c, 1, 48, 71
4, 35663, Note_on_c, 1, 58, 0
4, 35663, Note_on_c, 1, 48, 0
4, 35664, Note_on_c, 1, 58, 75
4, 35664, Note_on_c, 1, 48, 75
4, 35711, Note_on_c, 1, 58, 0
4, 35711, Note_on_c, 1, 48, 0
4, 35712, Note_on_c, 1, 57, 75
4, 35712, Note_on_c, 1, 53, 75
4, 35759, Note_on_c, 1, 57, 0
4, 35759, Note_on_c, 1, 53, 0
4, 35760, Note_on_c, 1, 57, 75
4, 35760, Note_on_c, 1, 53, 75
4, 35807, Note_on_c, 1, 57, 0
4, 35807, Note_on_c, 1, 53, 0
4, 35808, Note_on_c, 1, 57, 75
4, 35808, Note_on_c, 1, 53, 75
4, 35855, Note_on_c, 1, 57, 0
4, 35855, Note_on_c, 1, 53, 0
4, 35856, Note_on_c, 1, 57, 75
4, 35856, Note_on_c, 1, 53, 75
4, 35903, Note_on_c, 1, 57, 0
4, 35903, Note_on_c, 1, 53, 0
4, 35904, Note_on_c, 1, 58, 75
4, 35904, Note_on_c, 1, 46, 75
4, 35993, Note_on_c, 1, 58, 0
4, 35993, Note_on_c, 1, 46, 0
4, 36000, Note_on_c, 1, 63, 75
4, 36000, Note_on_c, 1, 51, 75
4, 36089, Note_on_c, 1, 63, 0
4, 36089, Note_on_c, 1, 51, 0
4, 36144, Note_on_c, 1, 58, 75
4, 36233, Note_on_c, 1, 58, 0
4, 36240, Note_on_c, 1, 57, 75
4, 36285, Note_on_c, 1, 57, 0
4, 36288, Note_on_c, 1, 58, 75
4, 36288, Note_on_c, 1, 46, 75
4, 36377, Note_on_c, 1, 58, 0
4, 36377, Note_on_c, 1, 46, 0
4, 36384, Note_on_c, 1, 63, 75
4, 36384, Note_on_c, 1, 51, 75
4, 36473, Note_on_c, 1, 63, 0
4, 36473, Note_on_c, 1, 51, 0
4, 36528, Note_on_c, 1, 58, 75
4, 36617, Note_on_c, 1, 58, 0
4, 36624, Note_on_c, 1, 57, 75
4, 36669, Note_on_c, 1, 57, 0
4, 36672, Note_on_c, 1, 58, 75
4, 36717, Note_on_c, 1, 58, 0
4, 36720, Note_on_c, 1, 53, 75
4, 36743, Note_on_c, 1, 53, 0
4, 36744, Note_on_c, 1, 50, 75
4, 36767, Note_on_c, 1, 50, 0
4, 36768, Note_on_c, 1, 46, 75
4, 36857, Note_on_c, 1, 46, 0
4, 36912, Note_on_c, 1, 53, 75
4, 36957, Note_on_c, 1, 53, 0
4, 36960, Note_on_c, 1, 53, 64
4, 37008, Note_on_c, 1, 53, 0
4, 37008, Note_on_c, 1, 54, 70
4, 37053, Note_on_c, 1, 54, 0
4, 37056, Note_on_c, 1, 55, 75
4, 37056, Note_on_c, 1, 51, 75
4, 37145, Note_on_c, 1, 55, 0
4, 37145, Note_on_c, 1, 51, 0
4, 37488, Note_on_c, 1, 50, 75
4, 37533, Note_on_c, 1, 50, 0
4, 37536, Note_on_c, 1, 51, 75
4, 37581, Note_on_c, 1, 51, 0
4, 37584, Note_on_c, 1, 53, 75
4, 37629, Note_on_c, 1, 53, 0
4, 37632, Note_on_c, 1, 46, 75
4, 37677, Note_on_c, 1, 46, 0
4, 37680, Note_on_c, 1, 53, 75
4, 37725, Note_on_c, 1, 53, 0
4, 37776, Note_on_c, 1, 62, 75
4, 37821, Note_on_c, 1, 62, 0
4, 37824, Note_on_c, 1, 60, 75
4, 37869, Note_on_c, 1, 60, 0
4, 37872, Note_on_c, 1, 58, 75
4, 37917, Note_on_c, 1, 58, 0
4, 37920, Note_on_c, 1, 57, 75
4, 37965, Note_on_c, 1, 57, 0
4, 37968, Note_on_c, 1, 60, 75
4, 38013, Note_on_c, 1, 60, 0
4, 38016, Note_on_c, 1, 58, 75
4, 38039, Note_on_c, 1, 58, 0
4, 38040, Note_on_c, 1, 53, 75
4, 38063, Note_on_c, 1, 53, 0
4, 38064, Note_on_c, 1, 50, 75
4, 38087, Note_on_c, 1, 50, 0
4, 38088, Note_on_c, 1, 46, 75
4, 38111, Note_on_c, 1, 46, 0
4, 38160, Note_on_c, 1, 62, 64
4, 38205, Note_on_c, 1, 62, 0
4, 38208, Note_on_c, 1, 60, 64
4, 38253, Note_on_c, 1, 60, 0
4, 38256, Note_on_c, 1, 58, 64
4, 38301, Note_on_c, 1, 58, 0
4, 38304, Note_on_c, 1, 57, 64
4, 38349, Note_on_c, 1, 57, 0
4, 38352, Note_on_c, 1, 60, 64
4, 38397, Note_on_c, 1, 60, 0
4, 38400, Note_on_c, 1, 58, 64
4, 38423, Note_on_c, 1, 58, 0
4, 38424, Note_on_c, 1, 53, 64
4, 38447, Note_on_c, 1, 53, 0
4, 38448, Note_on_c, 1, 50, 64
4, 38471, Note_on_c, 1, 50, 0
4, 38472, Note_on_c, 1, 46, 64
4, 38495, Note_on_c, 1, 46, 0
4, 38544, Note_on_c, 1, 62, 75
4, 38589, Note_on_c, 1, 62, 0
4, 38592, Note_on_c, 1, 60, 75
4, 38637, Note_on_c, 1, 60, 0
4, 38640, Note_on_c, 1, 58, 75
4, 38685, Note_on_c, 1, 58, 0
4, 38688, Note_on_c, 1, 57, 75
4, 38733, Note_on_c, 1, 57, 0
4, 38736, Note_on_c, 1, 60, 75
4, 38781, Note_on_c, 1, 60, 0
4, 38784, Note_on_c, 1, 58, 75
4, 38873, Note_on_c, 1, 58, 0
4, 38880, Note_on_c, 1, 58, 75
4, 38880, Note_on_c, 1, 51, 75
4, 38969, Note_on_c, 1, 58, 0
4, 38969, Note_on_c, 1, 51, 0
4, 39024, Note_on_c, 1, 58, 75
4, 39113, Note_on_c, 1, 58, 0
4, 39120, Note_on_c, 1, 57, 75
4, 39165, Note_on_c, 1, 57, 0
4, 39168, Note_on_c, 1, 58, 75
4, 39168, Note_on_c, 1, 46, 75
4, 39257, Note_on_c, 1, 58, 0
4, 39257, Note_on_c, 1, 46, 0
4, 39264, Note_on_c, 1, 62, 64
4, 39264, Note_on_c, 1, 58, 64
4, 39311, Note_on_c, 1, 62, 0
4, 39311, Note_on_c, 1, 58, 0
4, 39312, Note_on_c, 1, 62, 63
4, 39312, Note_on_c, 1, 58, 63
4, 39359, Note_on_c, 1, 62, 0
4, 39359, Note_on_c, 1, 58, 0
4, 39360, Note_on_c, 1, 63, 62
4, 39360, Note_on_c, 1, 58, 62
4, 39407, Note_on_c, 1, 63, 0
4, 39407, Note_on_c, 1, 58, 0
4, 39408, Note_on_c, 1, 63, 61
4, 39408, Note_on_c, 1, 58, 61
4, 39455, Note_on_c, 1, 63, 0
4, 39455, Note_on_c, 1, 58, 0
4, 39456, Note_on_c, 1, 60, 61
4, 39456, Note_on_c, 1, 58, 61
4, 39503, Note_on_c, 1, 60, 0
4, 39503, Note_on_c, 1, 58, 0
4, 39504, Note_on_c, 1, 60, 60
4, 39504, Note_on_c, 1, 58, 60
4, 39551, Note_on_c, 1, 60, 0
4, 39551, Note_on_c, 1, 58, 0
4, 39552, Note_on_c, 1, 62, 75
4, 39552, Note_on_c, 1, 58, 75
4, 39646, Note_on_c, 1, 62, 0
4, 39646, Note_on_c, 1, 58, 0
4, 39648, Note_on_c, 1, 50, 70
4, 39648, Note_on_c, 1, 46, 70
4, 39695, Note_on_c, 1, 50, 0
4, 39695, Note_on_c, 1, 46, 0
4, 39696, Note_on_c, 1, 50, 69
4, 39696, Note_on_c, 1, 46, 69
4, 39743, Note_on_c, 1, 50, 0
4, 39743, Note_on_c, 1, 46, 0
4, 39744, Note_on_c, 1, 51, 68
4, 39744, Note_on_c, 1, 46, 68
4, 39791, Note_on_c, 1, 51, 0
4, 39791, Note_on_c, 1, 46, 0
4, 39792, Note_on_c, 1, 51, 67
4, 39792, Note_on_c, 1, 46, 67
4, 39839, Note_on_c, 1, 51, 0
4, 39839, Note_on_c, 1, 46, 0
4, 39840, Note_on_c, 1, 48, 66
4, 39840, Note_on_c, 1, 46, 66
4, 39887, Note_on_c, 1, 48, 0
4, 39887, Note_on_c, 1, 46, 0
4, 39888, Note_on_c, 1, 48, 65
4, 39888, Note_on_c, 1, 46, 65
4, 39935, Note_on_c, 1, 48, 0
4, 39935, Note_on_c, 1, 46, 0
4, 39936, Note_on_c, 1, 50, 80
4, 39936, Note_on_c, 1, 46, 80
4, 40032, Note_on_c, 1, 50, 0
4, 40032, Note_on_c, 1, 46, 0
4, 40032, Note_on_c, 1, 58, 96
4, 40032, Note_on_c, 1, 53, 96
4, 40032, Note_on_c, 1, 50, 96
4, 40032, Note_on_c, 1, 46, 96
4, 40128, Note_on_c, 1, 58, 0
4, 40128, Note_on_c, 1, 53, 0
4, 40128, Note_on_c, 1, 50, 0
4, 40128, Note_on_c, 1, 46, 0
4, 40128, Note_on_c, 1, 58, 96
4, 40128, Note_on_c, 1, 53, 96
4, 40128, Note_on_c, 1, 50, 96
4, 40128, Note_on_c, 1, 46, 96
4, 40224, Note_on_c, 1, 58, 0
4, 40224, Note_on_c, 1, 53, 0
4, 40224, Note_on_c, 1, 50, 0
4, 40224, Note_on_c, 1, 46, 0
4, 40320, Note_on_c, 1, 53, 80
4, 40320, Note_on_c, 1, 41, 80
4, 40497, Note_on_c, 1, 53, 0
4, 40497, Note_on_c, 1, 41, 0
4, 40560, Note_on_c, 1, 53, 80
4, 40605, Note_on_c, 1, 53, 0
4, 40608, Note_on_c, 1, 41, 80
4, 40697, Note_on_c, 1, 41, 0
4, 40752, Note_on_c, 1, 53, 80
4, 40797, Note_on_c, 1, 53, 0
4, 40800, Note_on_c, 1, 41, 80
4, 40889, Note_on_c, 1, 41, 0
4, 40944, Note_on_c, 1, 53, 80
4, 40989, Note_on_c, 1, 53, 0
4, 40992, Note_on_c, 1, 41, 80
4, 41037, Note_on_c, 1, 41, 0
4, 41040, Note_on_c, 1, 57, 70
4, 41040, Note_on_c, 1, 53, 70
4, 41085, Note_on_c, 1, 57, 0
4, 41085, Note_on_c, 1, 53, 0
4, 41088, Note_on_c, 1, 58, 70
4, 41088, Note_on_c, 1, 53, 70
4, 41177, Note_on_c, 1, 58, 0
4, 41177, Note_on_c, 1, 53, 0
4, 41184, Note_on_c, 1, 57, 70
4, 41184, Note_on_c, 1, 53, 70
4, 41273, Note_on_c, 1, 57, 0
4, 41273, Note_on_c, 1, 53, 0
4, 41328, Note_on_c, 1, 53, 70
4, 41343, Note_on_c, 1, 53, 0
4, 41344, Note_on_c, 1, 55, 70
4, 41359, Note_on_c, 1, 55, 0
4, 41360, Note_on_c, 1, 57, 70
4, 41375, Note_on_c, 1, 57, 0
4, 41376, Note_on_c, 1, 55, 70
4, 41421, Note_on_c, 1, 55, 0
4, 41424, Note_on_c, 1, 48, 70
4, 41469, Note_on_c, 1, 48, 0
4, 41472, Note_on_c, 1, 53, 80
4, 41517, Note_on_c, 1, 53, 0
4, 41520, Note_on_c, 1, 55, 80
4, 41535, Note_on_c, 1, 55, 0
4, 41536, Note_on_c, 1, 53, 80
4, 41551, Note_on_c, 1, 53, 0
4, 41552, Note_on_c, 1, 51, 80
4, 41567, Note_on_c, 1, 51, 0
4, 41568, Note_on_c, 1, 50, 96
4, 41616, Note_on_c, 1, 50, 0
4, 41616, Note_on_c, 1, 62, 70
4, 41616, Note_on_c, 1, 58, 70
4, 41661, Note_on_c, 1, 62, 0
4, 41661, Note_on_c, 1, 58, 0
4, 41664, Note_on_c, 1, 63, 70
4, 41664, Note_on_c, 1, 58, 70
4, 41753, Note_on_c, 1, 63, 0
4, 41753, Note_on_c, 1, 58, 0
4, 41760, Note_on_c, 1, 62, 70
4, 41760, Note_on_c, 1, 58, 70
4, 41849, Note_on_c, 1, 62, 0
4, 41849, Note_on_c, 1, 58, 0
4, 41904, Note_on_c, 1, 58, 70
4, 41919, Note_on_c, 1, 58, 0
4, 41920, Note_on_c, 1, 60, 70
4, 41935, Note_on_c, 1, 60, 0
4, 41936, Note_on_c, 1, 62, 70
4, 41951, Note_on_c, 1, 62, 0
4, 41952, Note_on_c, 1, 60, 70
4, 41997, Note_on_c, 1, 60, 0
4, 42000, Note_on_c, 1, 53, 70
4, 42045, Note_on_c, 1, 53, 0
4, 42048, Note_on_c, 1, 58, 70
4, 42093, Note_on_c, 1, 58, 0
4, 42096, Note_on_c, 1, 60, 70
4, 42141, Note_on_c, 1, 60, 0
4, 42144, Note_on_c, 1, 62, 70
4, 42189, Note_on_c, 1, 62, 0
4, 42192, Note_on_c, 1, 63, 70
4, 42237, Note_on_c, 1, 63, 0
4, 42240, Note_on_c, 1, 65, 70
4, 42285, Note_on_c, 1, 65, 0
4, 42288, Note_on_c, 1, 62, 70
4, 42333, Note_on_c, 1, 62, 0
4, 42336, Note_on_c, 1, 63, 70
4, 42381, Note_on_c, 1, 63, 0
4, 42384, Note_on_c, 1, 51, 70
4, 42429, Note_on_c, 1, 51, 0
4, 42432, Note_on_c, 1, 60, 70
4, 42477, Note_on_c, 1, 60, 0
4, 42480, Note_on_c, 1, 62, 70
4, 42525, Note_on_c, 1, 62, 0
4, 42528, Note_on_c, 1, 64, 70
4, 42573, Note_on_c, 1, 64, 0
4, 42576, Note_on_c, 1, 65, 70
4, 42621, Note_on_c, 1, 65, 0
4, 42624, Note_on_c, 1, 67, 70
4, 42669, Note_on_c, 1, 67, 0
4, 42672, Note_on_c, 1, 64, 70
4, 42717, Note_on_c, 1, 64, 0
4, 42720, Note_on_c, 1, 65, 70
4, 42765, Note_on_c, 1, 65, 0
4, 42768, Note_on_c, 1, 53, 70
4, 42813, Note_on_c, 1, 53, 0
4, 42816, Note_on_c, 1, 62, 70
4, 42861, Note_on_c, 1, 62, 0
4, 42864, Note_on_c, 1, 64, 70
4, 42909, Note_on_c, 1, 64, 0
4, 42912, Note_on_c, 1, 66, 70
4, 42957, Note_on_c, 1, 66, 0
4, 42960, Note_on_c, 1, 67, 70
4, 43005, Note_on_c, 1, 67, 0
4, 43008, Note_on_c, 1, 69, 70
4, 43053, Note_on_c, 1, 69, 0
4, 43056, Note_on_c, 1, 66, 70
4, 43101, Note_on_c, 1, 66, 0
4, 43104, Note_on_c, 1, 67, 70
4, 43149, Note_on_c, 1, 67, 0
4, 43152, Note_on_c, 1, 55, 70
4, 43197, Note_on_c, 1, 55, 0
4, 43200, Note_on_c, 1, 70, 70
4, 43200, Note_on_c, 1, 67, 70
4, 43245, Note_on_c, 1, 70, 0
4, 43245, Note_on_c, 1, 67, 0
4, 43248, Note_on_c, 1, 70, 69
4, 43248, Note_on_c, 1, 67, 69
4, 43293, Note_on_c, 1, 70, 0
4, 43293, Note_on_c, 1, 67, 0
4, 43296, Note_on_c, 1, 70, 68
4, 43296, Note_on_c, 1, 67, 68
4, 43341, Note_on_c, 1, 70, 0
4, 43341, Note_on_c, 1, 67, 0
4, 43344, Note_on_c, 1, 70, 67
4, 43344, Note_on_c, 1, 67, 67
4, 43389, Note_on_c, 1, 70, 0
4, 43389, Note_on_c, 1, 67, 0
4, 43392, Note_on_c, 1, 69, 66
4, 43392, Note_on_c, 1, 67, 66
4, 43437, Note_on_c, 1, 69, 0
4, 43437, Note_on_c, 1, 67, 0
4, 43440, Note_on_c, 1, 69, 65
4, 43440, Note_on_c, 1, 67, 65
4, 43485, Note_on_c, 1, 69, 0
4, 43485, Note_on_c, 1, 67, 0
4, 43488, Note_on_c, 1, 69, 64
4, 43488, Note_on_c, 1, 67, 64
4, 43533, Note_on_c, 1, 69, 0
4, 43533, Note_on_c, 1, 67, 0
4, 43536, Note_on_c, 1, 69, 64
4, 43536, Note_on_c, 1, 67, 64
4, 43581, Note_on_c, 1, 69, 0
4, 43581, Note_on_c, 1, 67, 0
4, 43584, Note_on_c, 1, 69, 70
4, 43584, Note_on_c, 1, 65, 70
4, 43629, Note_on_c, 1, 69, 0
4, 43629, Note_on_c, 1, 65, 0
4, 43632, Note_on_c, 1, 69, 69
4, 43632, Note_on_c, 1, 65, 69
4, 43677, Note_on_c, 1, 69, 0
4, 43677, Note_on_c, 1, 65, 0
4, 43680, Note_on_c, 1, 69, 68
4, 43680, Note_on_c, 1, 65, 68
4, 43725, Note_on_c, 1, 69, 0
4, 43725, Note_on_c, 1, 65, 0
4, 43728, Note_on_c, 1, 69, 67
4, 43728, Note_on_c, 1, 65, 67
4, 43773, Note_on_c, 1, 69, 0
4, 43773, Note_on_c, 1, 65, 0
4, 43776, Note_on_c, 1, 67, 66
4, 43776, Note_on_c, 1, 65, 66
4, 43821, Note_on_c, 1, 67, 0
4, 43821, Note_on_c, 1, 65, 0
4, 43824, Note_on_c, 1, 67, 65
4, 43824, Note_on_c, 1, 65, 65
4, 43869, Note_on_c, 1, 67, 0
4, 43869, Note_on_c, 1, 65, 0
4, 43872, Note_on_c, 1, 67, 64
4, 43872, Note_on_c, 1, 65, 64
4, 43917, Note_on_c, 1, 67, 0
4, 43917, Note_on_c, 1, 65, 0
4, 43920, Note_on_c, 1, 67, 64
4, 43920, Note_on_c, 1, 65, 64
4, 43965, Note_on_c, 1, 67, 0
4, 43965, Note_on_c, 1, 65, 0
4, 43968, Note_on_c, 1, 67, 70
4, 43968, Note_on_c, 1, 63, 70
4, 44013, Note_on_c, 1, 67, 0
4, 44013, Note_on_c, 1, 63, 0
4, 44016, Note_on_c, 1, 67, 69
4, 44016, Note_on_c, 1, 63, 69
4, 44061, Note_on_c, 1, 67, 0
4, 44061, Note_on_c, 1, 63, 0
4, 44064, Note_on_c, 1, 67, 68
4, 44064, Note_on_c, 1, 63, 68
4, 44109, Note_on_c, 1, 67, 0
4, 44109, Note_on_c, 1, 63, 0
4, 44112, Note_on_c, 1, 67, 67
4, 44112, Note_on_c, 1, 63, 67
4, 44157, Note_on_c, 1, 67, 0
4, 44157, Note_on_c, 1, 63, 0
4, 44160, Note_on_c, 1, 65, 66
4, 44160, Note_on_c, 1, 63, 66
4, 44205, Note_on_c, 1, 65, 0
4, 44205, Note_on_c, 1, 63, 0
4, 44208, Note_on_c, 1, 65, 65
4, 44208, Note_on_c, 1, 63, 65
4, 44253, Note_on_c, 1, 65, 0
4, 44253, Note_on_c, 1, 63, 0
4, 44256, Note_on_c, 1, 65, 64
4, 44256, Note_on_c, 1, 63, 64
4, 44301, Note_on_c, 1, 65, 0
4, 44301, Note_on_c, 1, 63, 0
4, 44304, Note_on_c, 1, 65, 64
4, 44304, Note_on_c, 1, 63, 64
4, 44349, Note_on_c, 1, 65, 0
4, 44349, Note_on_c, 1, 63, 0
4, 44352, Note_on_c, 1, 65, 64
4, 44352, Note_on_c, 1, 62, 64
4, 44397, Note_on_c, 1, 65, 0
4, 44397, Note_on_c, 1, 62, 0
4, 44400, Note_on_c, 1, 65, 62
4, 44400, Note_on_c, 1, 62, 62
4, 44445, Note_on_c, 1, 65, 0
4, 44445, Note_on_c, 1, 62, 0
4, 44448, Note_on_c, 1, 65, 61
4, 44448, Note_on_c, 1, 62, 61
4, 44493, Note_on_c, 1, 65, 0
4, 44493, Note_on_c, 1, 62, 0
4, 44496, Note_on_c, 1, 65, 60
4, 44496, Note_on_c, 1, 62, 60
4, 44541, Note_on_c, 1, 65, 0
4, 44541, Note_on_c, 1, 62, 0
4, 44544, Note_on_c, 1, 65, 59
4, 44544, Note_on_c, 1, 62, 59
4, 44589, Note_on_c, 1, 65, 0
4, 44589, Note_on_c, 1, 62, 0
4, 44592, Note_on_c, 1, 58, 58
4, 44637, Note_on_c, 1, 58, 0
4, 44640, Note_on_c, 1, 60, 59
4, 44685, Note_on_c, 1, 60, 0
4, 44688, Note_on_c, 1, 62, 61
4, 44733, Note_on_c, 1, 62, 0
4, 44736, Note_on_c, 1, 63, 62
4, 44781, Note_on_c, 1, 63, 0
4, 44784, Note_on_c, 1, 60, 64
4, 44829, Note_on_c, 1, 60, 0
4, 44832, Note_on_c, 1, 62, 65
4, 44877, Note_on_c, 1, 62, 0
4, 44880, Note_on_c, 1, 64, 67
4, 44925, Note_on_c, 1, 64, 0
4, 44928, Note_on_c, 1, 65, 68
4, 44973, Note_on_c, 1, 65, 0
4, 44976, Note_on_c, 1, 62, 70
4, 45021, Note_on_c, 1, 62, 0
4, 45024, Note_on_c, 1, 64, 71
4, 45069, Note_on_c, 1, 64, 0
4, 45072, Note_on_c, 1, 66, 73
4, 45117, Note_on_c, 1, 66, 0
4, 45120, Note_on_c, 1, 67, 75
4, 45165, Note_on_c, 1, 67, 0
4, 45168, Note_on_c, 1, 60, 75
4, 45213, Note_on_c, 1, 60, 0
4, 45216, Note_on_c, 1, 58, 75
4, 45261, Note_on_c, 1, 58, 0
4, 45360, Note_on_c, 1, 60, 75
4, 45405, Note_on_c, 1, 60, 0
4, 45408, Note_on_c, 1, 62, 75
4, 45453, Note_on_c, 1, 62, 0
4, 45456, Note_on_c, 1, 50, 75
4, 45501, Note_on_c, 1, 50, 0
4, 45504, Note_on_c, 1, 55, 75
4, 45549, Note_on_c, 1, 55, 0
4, 45552, Note_on_c, 1, 60, 75
4, 45597, Note_on_c, 1, 60, 0
4, 45600, Note_on_c, 1, 58, 75
4, 45645, Note_on_c, 1, 58, 0
4, 45744, Note_on_c, 1, 60, 75
4, 45789, Note_on_c, 1, 60, 0
4, 45792, Note_on_c, 1, 62, 75
4, 45837, Note_on_c, 1, 62, 0
4, 45840, Note_on_c, 1, 50, 75
4, 45885, Note_on_c, 1, 50, 0
4, 45888, Note_on_c, 1, 55, 75
4, 45933, Note_on_c, 1, 55, 0
4, 45936, Note_on_c, 1, 43, 75
4, 45981, Note_on_c, 1, 43, 0
4, 46032, Note_on_c, 1, 59, 75
4, 46077, Note_on_c, 1, 59, 0
4, 46080, Note_on_c, 1, 60, 75
4, 46125, Note_on_c, 1, 60, 0
4, 46128, Note_on_c, 1, 63, 75
4, 46173, Note_on_c, 1, 63, 0
4, 46176, Note_on_c, 1, 62, 75
4, 46221, Note_on_c, 1, 62, 0
4, 46224, Note_on_c, 1, 65, 75
4, 46269, Note_on_c, 1, 65, 0
4, 46272, Note_on_c, 1, 63, 75
4, 46317, Note_on_c, 1, 63, 0
4, 46320, Note_on_c, 1, 51, 75
4, 46365, Note_on_c, 1, 51, 0
4, 46416, Note_on_c, 1, 57, 75
4, 46461, Note_on_c, 1, 57, 0
4, 46464, Note_on_c, 1, 58, 75
4, 46509, Note_on_c, 1, 58, 0
4, 46512, Note_on_c, 1, 62, 75
4, 46557, Note_on_c, 1, 62, 0
4, 46560, Note_on_c, 1, 60, 75
4, 46605, Note_on_c, 1, 60, 0
4, 46608, Note_on_c, 1, 63, 75
4, 46653, Note_on_c, 1, 63, 0
4, 46656, Note_on_c, 1, 62, 75
4, 46701, Note_on_c, 1, 62, 0
4, 46704, Note_on_c, 1, 50, 75
4, 46749, Note_on_c, 1, 50, 0
4, 46800, Note_on_c, 1, 62, 70
4, 46845, Note_on_c, 1, 62, 0
4, 46848, Note_on_c, 1, 63, 70
4, 46893, Note_on_c, 1, 63, 0
4, 46896, Note_on_c, 1, 51, 71
4, 46941, Note_on_c, 1, 51, 0
4, 46944, Note_on_c, 1, 53, 71
4, 46989, Note_on_c, 1, 53, 0
4, 46992, Note_on_c, 1, 41, 72
4, 47037, Note_on_c, 1, 41, 0
4, 47040, Note_on_c, 1, 43, 72
4, 47085, Note_on_c, 1, 43, 0
4, 47088, Note_on_c, 1, 55, 73
4, 47133, Note_on_c, 1, 55, 0
4, 47136, Note_on_c, 1, 57, 73
4, 47181, Note_on_c, 1, 57, 0
4, 47184, Note_on_c, 1, 45, 74
4, 47229, Note_on_c, 1, 45, 0
4, 47232, Note_on_c, 1, 46, 74
4, 47277, Note_on_c, 1, 46, 0
4, 47280, Note_on_c, 1, 58, 75
4, 47325, Note_on_c, 1, 58, 0
4, 47328, Note_on_c, 1, 60, 75
4, 47373, Note_on_c, 1, 60, 0
4, 47376, Note_on_c, 1, 48, 76
4, 47421, Note_on_c, 1, 48, 0
4, 47424, Note_on_c, 1, 50, 76
4, 47469, Note_on_c, 1, 50, 0
4, 47472, Note_on_c, 1, 62, 77
4, 47517, Note_on_c, 1, 62, 0
4, 47568, Note_on_c, 1, 58, 78
4, 47613, Note_on_c, 1, 58, 0
4, 47616, Note_on_c, 1, 63, 78
4, 47705, Note_on_c, 1, 63, 0
4, 47760, Note_on_c, 1, 64, 80
4, 47805, Note_on_c, 1, 64, 0
4, 47808, Note_on_c, 1, 65, 80
4, 47853, Note_on_c, 1, 65, 0
4, 47856, Note_on_c, 1, 53, 80
4, 47901, Note_on_c, 1, 53, 0
4, 48000, Note_on_c, 1, 58, 80
4, 48000, Note_on_c, 1, 46, 80
4, 48177, Note_on_c, 1, 58, 0
4, 48177, Note_on_c, 1, 46, 0
4, 48240, Note_on_c, 1, 58, 80
4, 48285, Note_on_c, 1, 58, 0
4, 48288, Note_on_c, 1, 46, 80
4, 48377, Note_on_c, 1, 46, 0
4, 48432, Note_on_c, 1, 58, 80
4, 48477, Note_on_c, 1, 58, 0
4, 48480, Note_on_c, 1, 46, 80
4, 48569, Note_on_c, 1, 46, 0
4, 48624, Note_on_c, 1, 58, 80
4, 48669, Note_on_c, 1, 58, 0
4, 48672, Note_on_c, 1, 46, 80
4, 48717, Note_on_c, 1, 46, 0
4, 48720, Note_on_c, 1, 62, 70
4, 48720, Note_on_c, 1, 58, 70
4, 48765, Note_on_c, 1, 62, 0
4, 48765, Note_on_c, 1, 58, 0
4, 48768, Note_on_c, 1, 63, 70
4, 48768, Note_on_c, 1, 58, 70
4, 48857, Note_on_c, 1, 63, 0
4, 48857, Note_on_c, 1, 58, 0
4, 48864, Note_on_c, 1, 62, 70
4, 48864, Note_on_c, 1, 58, 70
4, 48953, Note_on_c, 1, 62, 0
4, 48953, Note_on_c, 1, 58, 0
4, 49008, Note_on_c, 1, 46, 80
4, 49053, Note_on_c, 1, 46, 0
4, 49056, Note_on_c, 1, 48, 80
4, 49101, Note_on_c, 1, 48, 0
4, 49104, Note_on_c, 1, 50, 80
4, 49149, Note_on_c, 1, 50, 0
4, 49152, Note_on_c, 1, 51, 80
4, 49241, Note_on_c, 1, 51, 0
4, 49296, Note_on_c, 1, 52, 80
4, 49341, Note_on_c, 1, 52, 0
4, 49344, Note_on_c, 1, 53, 80
4, 49389, Note_on_c, 1, 53, 0
4, 49392, Note_on_c, 1, 48, 80
4, 49415, Note_on_c, 1, 48, 0
4, 49416, Note_on_c, 1, 45, 80
4, 49439, Note_on_c, 1, 45, 0
4, 49440, Note_on_c, 1, 41, 80
4, 49529, Note_on_c, 1, 41, 0
4, 49584, Note_on_c, 1, 53, 64
4, 49584, Note_on_c, 1, 50, 64
4, 49631, Note_on_c, 1, 53, 0
4, 49631, Note_on_c, 1, 50, 0
4, 49632, Note_on_c, 1, 53, 64
4, 49632, Note_on_c, 1, 50, 64
4, 49679, Note_on_c, 1, 53, 0
4, 49679, Note_on_c, 1, 50, 0
4, 49680, Note_on_c, 1, 53, 64
4, 49680, Note_on_c, 1, 50, 64
4, 49727, Note_on_c, 1, 53, 0
4, 49727, Note_on_c, 1, 50, 0
4, 49776, Note_on_c, 1, 55, 64
4, 49776, Note_on_c, 1, 51, 64
4, 49823, Note_on_c, 1, 55, 0
4, 49823, Note_on_c, 1, 51, 0
4, 49824, Note_on_c, 1, 55, 64
4, 49824, Note_on_c, 1, 51, 64
4, 49871, Note_on_c, 1, 55, 0
4, 49871, Note_on_c, 1, 51, 0
4, 49872, Note_on_c, 1, 55, 64
4, 49872, Note_on_c, 1, 51, 64
4, 49919, Note_on_c, 1, 55, 0
4, 49919, Note_on_c, 1, 51, 0
4, 49968, Note_on_c, 1, 56, 65
4, 49968, Note_on_c, 1, 53, 65
4, 50015, Note_on_c, 1, 56, 0
4, 50015, Note_on_c, 1, 53, 0
4, 50016, Note_on_c, 1, 56, 67
4, 50016, Note_on_c, 1, 53, 67
4, 50063, Note_on_c, 1, 56, 0
4, 50063, Note_on_c, 1, 53, 0
4, 50064, Note_on_c, 1, 56, 69
4, 50064, Note_on_c, 1, 53, 69
4, 50111, Note_on_c, 1, 56, 0
4, 50111, Note_on_c, 1, 53, 0
4, 50160, Note_on_c, 1, 58, 72
4, 50160, Note_on_c, 1, 55, 72
4, 50207, Note_on_c, 1, 58, 0
4, 50207, Note_on_c, 1, 55, 0
4, 50208, Note_on_c, 1, 58, 74
4, 50208, Note_on_c, 1, 55, 74
4, 50255, Note_on_c, 1, 58, 0
4, 50255, Note_on_c, 1, 55, 0
4, 50256, Note_on_c, 1, 58, 76
4, 50256, Note_on_c, 1, 55, 76
4, 50303, Note_on_c, 1, 58, 0
4, 50303, Note_on_c, 1, 55, 0
4, 50352, Note_on_c, 1, 58, 80
4, 50399, Note_on_c, 1, 58, 0
4, 50400, Note_on_c, 1, 58, 80
4, 50447, Note_on_c, 1, 58, 0
4, 50448, Note_on_c, 1, 64, 70
4, 50495, Note_on_c, 1, 64, 0
4, 50496, Note_on_c, 1, 65, 71
4, 50541, Note_on_c, 1, 65, 0
4, 50736, Note_on_c, 1, 58, 78
4, 50783, Note_on_c, 1, 58, 0
4, 50784, Note_on_c, 1, 58, 80
4, 50831, Note_on_c, 1, 58, 0
4, 50832, Note_on_c, 1, 64, 80
4, 50879, Note_on_c, 1, 64, 0
4, 50880, Note_on_c, 1, 65, 80
4, 50925, Note_on_c, 1, 65, 0
4, 51072, Note_on_c, 1, 58, 70
4, 51072, Note_on_c, 1, 50, 70
4, 51119, Note_on_c, 1, 58, 0
4, 51119, Note_on_c, 1, 50, 0
4, 51120, Note_on_c, 1, 58, 68
4, 51120, Note_on_c, 1, 50, 68
4, 51167, Note_on_c, 1, 58, 0
4, 51167, Note_on_c, 1, 50, 0
4, 51168, Note_on_c, 1, 58, 67
4, 51168, Note_on_c, 1, 50, 67
4, 51215, Note_on_c, 1, 58, 0
4, 51215, Note_on_c, 1, 50, 0
4, 51216, Note_on_c, 1, 58, 65
4, 51216, Note_on_c, 1, 50, 65
4, 51263, Note_on_c, 1, 58, 0
4, 51263, Note_on_c, 1, 50, 0
4, 51264, Note_on_c, 1, 58, 64
4, 51264, Note_on_c, 1, 51, 64
4, 51311, Note_on_c, 1, 58, 0
4, 51311, Note_on_c, 1, 51, 0
4, 51312, Note_on_c, 1, 58, 65
4, 51312, Note_on_c, 1, 51, 65
4, 51359, Note_on_c, 1, 58, 0
4, 51359, Note_on_c, 1, 51, 0
4, 51360, Note_on_c, 1, 58, 67
4, 51360, Note_on_c, 1, 51, 67
4, 51407, Note_on_c, 1, 58, 0
4, 51407, Note_on_c, 1, 51, 0
4, 51408, Note_on_c, 1, 58, 68
4, 51408, Note_on_c, 1, 51, 68
4, 51455, Note_on_c, 1, 58, 0
4, 51455, Note_on_c, 1, 51, 0
4, 51456, Note_on_c, 1, 58, 70
4, 51456, Note_on_c, 1, 50, 70
4, 51503, Note_on_c, 1, 58, 0
4, 51503, Note_on_c, 1, 50, 0
4, 51504, Note_on_c, 1, 58, 68
4, 51504, Note_on_c, 1, 50, 68
4, 51551, Note_on_c, 1, 58, 0
4, 51551, Note_on_c, 1, 50, 0
4, 51552, Note_on_c, 1, 58, 67
4, 51552, Note_on_c, 1, 50, 67
4, 51599, Note_on_c, 1, 58, 0
4, 51599, Note_on_c, 1, 50, 0
4, 51600, Note_on_c, 1, 58, 65
4, 51600, Note_on_c, 1, 50, 65
4, 51647, Note_on_c, 1, 58, 0
4, 51647, Note_on_c, 1, 50, 0
4, 51648, Note_on_c, 1, 58, 64
4, 51648, Note_on_c, 1, 51, 64
4, 51695, Note_on_c, 1, 58, 0
4, 51695, Note_on_c, 1, 51, 0
4, 51696, Note_on_c, 1, 58, 65
4, 51696, Note_on_c, 1, 51, 65
4, 51743, Note_on_c, 1, 58, 0
4, 51743, Note_on_c, 1, 51, 0
4, 51744, Note_on_c, 1, 58, 67
4, 51744, Note_on_c, 1, 51, 67
4, 51791, Note_on_c, 1, 58, 0
4, 51791, Note_on_c, 1, 51, 0
4, 51792, Note_on_c, 1, 58, 68
4, 51792, Note_on_c, 1, 51, 68
4, 51839, Note_on_c, 1, 58, 0
4, 51839, Note_on_c, 1, 51, 0
4, 51840, Note_on_c, 1, 58, 70
4, 51840, Note_on_c, 1, 50, 70
4, 51887, Note_on_c, 1, 58, 0
4, 51887, Note_on_c, 1, 50, 0
4, 51888, Note_on_c, 1, 58, 68
4, 51888, Note_on_c, 1, 50, 68
4, 51935, Note_on_c, 1, 58, 0
4, 51935, Note_on_c, 1, 50, 0
4, 51936, Note_on_c, 1, 58, 67
4, 51936, Note_on_c, 1, 50, 67
4, 51983, Note_on_c, 1, 58, 0
4, 51983, Note_on_c, 1, 50, 0
4, 51984, Note_on_c, 1, 58, 65
4, 51984, Note_on_c, 1, 50, 65
4, 52031, Note_on_c, 1, 58, 0
4, 52031, Note_on_c, 1, 50, 0
4, 52032, Note_on_c, 1, 58, 64
4, 52032, Note_on_c, 1, 48, 64
4, 52079, Note_on_c, 1, 58, 0
4, 52079, Note_on_c, 1, 48, 0
4, 52080, Note_on_c, 1, 58, 67
4, 52080, Note_on_c, 1, 48, 67
4, 52127, Note_on_c, 1, 58, 0
4, 52127, Note_on_c, 1, 48, 0
4, 52128, Note_on_c, 1, 58, 71
4, 52128, Note_on_c, 1, 48, 71
4, 52175, Note_on_c, 1, 58, 0
4, 52175, Note_on_c, 1, 48, 0
4, 52176, Note_on_c, 1, 58, 75
4, 52176, Note_on_c, 1, 48, 75
4, 52223, Note_on_c, 1, 58, 0
4, 52223, Note_on_c, 1, 48, 0
4, 52224, Note_on_c, 1, 58, 64
4, 52224, Note_on_c, 1, 48, 64
4, 52271, Note_on_c, 1, 58, 0
4, 52271, Note_on_c, 1, 48, 0
4, 52272, Note_on_c, 1, 58, 67
4, 52272, Note_on_c, 1, 48, 67
4, 52319, Note_on_c, 1, 58, 0
4, 52319, Note_on_c, 1, 48, 0
4, 52320, Note_on_c, 1, 58, 71
4, 52320, Note_on_c, 1, 48, 71
4, 52367, Note_on_c, 1, 58, 0
4, 52367, Note_on_c, 1, 48, 0
4, 52368, Note_on_c, 1, 58, 75
4, 52368, Note_on_c, 1, 48, 75
4, 52415, Note_on_c, 1, 58, 0
4, 52415, Note_on_c, 1, 48, 0
4, 52416, Note_on_c, 1, 57, 75
4, 52416, Note_on_c, 1, 53, 75
4, 52463, Note_on_c, 1, 57, 0
4, 52463, Note_on_c, 1, 53, 0
4, 52464, Note_on_c, 1, 57, 75
4, 52464, Note_on_c, 1, 53, 75
4, 52511, Note_on_c, 1, 57, 0
4, 52511, Note_on_c, 1, 53, 0
4, 52512, Note_on_c, 1, 57, 75
4, 52512, Note_on_c, 1, 53, 75
4, 52559, Note_on_c, 1, 57, 0
4, 52559, Note_on_c, 1, 53, 0
4, 52560, Note_on_c, 1, 57, 75
4, 52560, Note_on_c, 1, 53, 75
4, 52607, Note_on_c, 1, 57, 0
4, 52607, Note_on_c, 1, 53, 0
4, 52608, Note_on_c, 1, 58, 75
4, 52608, Note_on_c, 1, 46, 75
4, 52697, Note_on_c, 1, 58, 0
4, 52697, Note_on_c, 1, 46, 0
4, 52704, Note_on_c, 1, 63, 75
4, 52704, Note_on_c, 1, 51, 75
4, 52793, Note_on_c, 1, 63, 0
4, 52793, Note_on_c, 1, 51, 0
4, 52848, Note_on_c, 1, 58, 75
4, 52937, Note_on_c, 1, 58, 0
4, 52944, Note_on_c, 1, 57, 75
4, 52989, Note_on_c, 1, 57, 0
4, 52992, Note_on_c, 1, 58, 75
4, 52992, Note_on_c, 1, 46, 75
4, 53081, Note_on_c, 1, 58, 0
4, 53081, Note_on_c, 1, 46, 0
4, 53088, Note_on_c, 1, 63, 75
4, 53088, Note_on_c, 1, 51, 75
4, 53177, Note_on_c, 1, 63, 0
4, 53177, Note_on_c, 1, 51, 0
4, 53232, Note_on_c, 1, 58, 75
4, 53321, Note_on_c, 1, 58, 0
4, 53328, Note_on_c, 1, 57, 75
4, 53373, Note_on_c, 1, 57, 0
4, 53376, Note_on_c, 1, 58, 75
4, 53421, Note_on_c, 1, 58, 0
4, 53424, Note_on_c, 1, 53, 75
4, 53447, Note_on_c, 1, 53, 0
4, 53448, Note_on_c, 1, 50, 75
4, 53471, Note_on_c, 1, 50, 0
4, 53472, Note_on_c, 1, 46, 75
4, 53561, Note_on_c, 1, 46, 0
4, 53616, Note_on_c, 1, 53, 75
4, 53661, Note_on_c, 1, 53, 0
4, 53664, Note_on_c, 1, 53, 64
4, 53712, Note_on_c, 1, 53, 0
4, 53712, Note_on_c, 1, 54, 70
4, 53757, Note_on_c, 1, 54, 0
4, 53760, Note_on_c, 1, 55, 75
4, 53760, Note_on_c, 1, 51, 75
4, 53849, Note_on_c, 1, 55, 0
4, 53849, Note_on_c, 1, 51, 0
4, 54192, Note_on_c, 1, 50, 75
4, 54237, Note_on_c, 1, 50, 0
4, 54240, Note_on_c, 1, 51, 75
4, 54285, Note_on_c, 1, 51, 0
4, 54288, Note_on_c, 1, 53, 75
4, 54333, Note_on_c, 1, 53, 0
4, 54336, Note_on_c, 1, 46, 75
4, 54381, Note_on_c, 1, 46, 0
4, 54384, Note_on_c, 1, 53, 75
4, 54429, Note_on_c, 1, 53, 0
4, 54480, Note_on_c, 1, 62, 75
4, 54525, Note_on_c, 1, 62, 0
4, 54528, Note_on_c, 1, 60, 75
4, 54573, Note_on_c, 1, 60, 0
4, 54576, Note_on_c, 1, 58, 75
4, 54621, Note_on_c, 1, 58, 0
4, 54624, Note_on_c, 1, 57, 75
4, 54669, Note_on_c, 1, 57, 0
4, 54672, Note_on_c, 1, 60, 75
4, 54717, Note_on_c, 1, 60, 0
4, 54720, Note_on_c, 1, 58, 75
4, 54743, Note_on_c, 1, 58, 0
4, 54744, Note_on_c, 1, 53, 75
4, 54767, Note_on_c, 1, 53, 0
4, 54768, Note_on_c, 1, 50, 75
4, 54791, Note_on_c, 1, 50, 0
4, 54792, Note_on_c, 1, 46, 75
4, 54815, Note_on_c, 1, 46, 0
4, 54864, Note_on_c, 1, 62, 64
4, 54909, Note_on_c, 1, 62, 0
4, 54912, Note_on_c, 1, 60, 64
4, 54957, Note_on_c, 1, 60, 0
4, 54960, Note_on_c, 1, 58, 64
4, 55005, Note_on_c, 1, 58, 0
4, 55008, Note_on_c, 1, 57, 64
4, 55053, Note_on_c, 1, 57, 0
4, 55056, Note_on_c, 1, 60, 64
4, 55101, Note_on_c, 1, 60, 0
4, 55104, Note_on_c, 1, 58, 64
4, 55127, Note_on_c, 1, 58, 0
4, 55128, Note_on_c, 1, 53, 64
4, 55151, Note_on_c, 1, 53, 0
4, 55152, Note_on_c, 1, 50, 64
4, 55175, Note_on_c, 1, 50, 0
4, 55176, Note_on_c, 1, 46, 64
4, 55199, Note_on_c, 1, 46, 0
4, 55248, Note_on_c, 1, 62, 75
4, 55293, Note_on_c, 1, 62, 0
4, 55296, Note_on_c, 1, 60, 75
4, 55341, Note_on_c, 1, 60, 0
4, 55344, Note_on_c, 1, 58, 75
4, 55389, Note_on_c, 1, 58, 0
4, 55392, Note_on_c, 1, 57, 75
4, 55437, Note_on_c, 1, 57, 0
4, 55440, Note_on_c, 1, 60, 75
4, 55485, Note_on_c, 1, 60, 0
4, 55488, Note_on_c, 1, 58, 75
4, 55577, Note_on_c, 1, 58, 0
4, 55584, Note_on_c, 1, 58, 75
4, 55584, Note_on_c, 1, 51, 75
4, 55673, Note_on_c, 1, 58, 0
4, 55673, Note_on_c, 1, 51, 0
4, 55728, Note_on_c, 1, 58, 75
4, 55817, Note_on_c, 1, 58, 0
4, 55824, Note_on_c, 1, 57, 75
4, 55869, Note_on_c, 1, 57, 0
4, 55872, Note_on_c, 1, 58, 75
4, 55872, Note_on_c, 1, 46, 75
4, 55961, Note_on_c, 1, 58, 0
4, 55961, Note_on_c, 1, 46, 0
4, 55968, Note_on_c, 1, 62, 64
4, 55968, Note_on_c, 1, 58, 64
4, 56015, Note_on_c, 1, 62, 0
4, 56015, Note_on_c, 1, 58, 0
4, 56016, Note_on_c, 1, 62, 63
4, 56016, Note_on_c, 1, 58, 63
4, 56063, Note_on_c, 1, 62, 0
4, 56063, Note_on_c, 1, 58, 0
4, 56064, Note_on_c, 1, 63, 62
4, 56064, Note_on_c, 1, 58, 62
4, 56111, Note_on_c, 1, 63, 0
4, 56111, Note_on_c, 1, 58, 0
4, 56112, Note_on_c, 1, 63, 61
4, 56112, Note_on_c, 1, 58, 61
4, 56159, Note_on_c, 1, 63, 0
4, 56159, Note_on_c, 1, 58, 0
4, 56160, Note_on_c, 1, 60, 61
4, 56160, Note_on_c, 1, 58, 61
4, 56207, Note_on_c, 1, 60, 0
4, 56207, Note_on_c, 1, 58, 0
4, 56208, Note_on_c, 1, 60, 60
4, 56208, Note_on_c, 1, 58, 60
4, 56255, Note_on_c, 1, 60, 0
4, 56255, Note_on_c, 1, 58, 0
4, 56256, Note_on_c, 1, 62, 75
4, 56256, Note_on_c, 1, 58, 75
4, 56350, Note_on_c, 1, 62, 0
4, 56350, Note_on_c, 1, 58, 0
4, 56352, Note_on_c, 1, 50, 70
4, 56352, Note_on_c, 1, 46, 70
4, 56399, Note_on_c, 1, 50, 0
4, 56399, Note_on_c, 1, 46, 0
4, 56400, Note_on_c, 1, 50, 69
4, 56400, Note_on_c, 1, 46, 69
4, 56447, Note_on_c, 1, 50, 0
4, 56447, Note_on_c, 1, 46, 0
4, 56448, Note_on_c, 1, 51, 68
4, 56448, Note_on_c, 1, 46, 68
4, 56495, Note_on_c, 1, 51, 0
4, 56495, Note_on_c, 1, 46, 0
4, 56496, Note_on_c, 1, 51, 67
4, 56496, Note_on_c, 1, 46, 67
4, 56543, Note_on_c, 1, 51, 0
4, 56543, Note_on_c, 1, 46, 0
4, 56544, Note_on_c, 1, 48, 66
4, 56544, Note_on_c, 1, 46, 66
4, 56591, Note_on_c, 1, 48, 0
4, 56591, Note_on_c, 1, 46, 0
4, 56592, Note_on_c, 1, 48, 65
4, 56592, Note_on_c, 1, 46, 65
4, 56639, Note_on_c, 1, 48, 0
4, 56639, Note_on_c, 1, 46, 0
4, 56640, Note_on_c, 1, 50, 80
4, 56640, Note_on_c, 1, 46, 80
4, 56736, Note_on_c, 1, 50, 0
4, 56736, Note_on_c, 1, 46, 0
4, 56736, Note_on_c, 1, 58, 96
4, 56736, Note_on_c, 1, 53, 96
4, 56736, Note_on_c, 1, 50, 96
4, 56736, Note_on_c, 1, 46, 96
4, 56832, Note_on_c, 1, 58, 0
4, 56832, Note_on_c, 1, 53, 0
4, 56832, Note_on_c, 1, 50, 0
4, 56832, Note_on_c, 1, 46, 0
4, 56832, Note_on_c, 1, 58, 96
4, 56832, Note_on_c, 1, 53, 96
4, 56832, Note_on_c, 1, 50, 96
4, 56832, Note_on_c, 1, 46, 96
4, 56928, Note_on_c, 1, 58, 0
4, 56928, Note_on_c, 1, 53, 0
4, 56928, Note_on_c, 1, 50, 0
4, 56928, Note_on_c, 1, 46, 0
4, 56976, Note_on_c, 1, 46, 0
4, 57021, Note_on_c, 1, 46, 0
4, 57024, End_track
5, 0, Start_track
5, 0, Program_c, 1, 0
5, 0, Control_c, 1, 7, 127
5, 0, Control_c, 1, 10, 64
5, 5232, Note_on_c, 1, 61, 80
5, 5277, Note_on_c, 1, 61, 0
5, 5280, Note_on_c, 1, 61, 80
5, 5369, Note_on_c, 1, 61, 0
5, 5376, Note_on_c, 1, 60, 80
5, 5421, Note_on_c, 1, 60, 0
5, 5424, Note_on_c, 1, 64, 80
5, 5439, Note_on_c, 1, 64, 0
5, 5440, Note_on_c, 1, 65, 80
5, 5455, Note_on_c, 1, 65, 0
5, 5456, Note_on_c, 1, 67, 80
5, 5471, Note_on_c, 1, 67, 0
5, 5472, Note_on_c, 1, 60, 80
5, 5561, Note_on_c, 1, 60, 0
5, 5616, Note_on_c, 1, 61, 80
5, 5661, Note_on_c, 1, 61, 0
5, 5664, Note_on_c, 1, 61, 80
5, 5753, Note_on_c, 1, 61, 0
5, 5760, Note_on_c, 1, 60, 80
5, 5805, Note_on_c, 1, 60, 0
5, 5808, Note_on_c, 1, 64, 80
5, 5823, Note_on_c, 1, 64, 0
5, 5824, Note_on_c, 1, 65, 80
5, 5839, Note_on_c, 1, 65, 0
5, 5840, Note_on_c, 1, 67, 80
5, 5855, Note_on_c, 1, 67, 0
5, 5856, Note_on_c, 1, 60, 80
5, 5945, Note_on_c, 1, 60, 0
5, 7728, Note_on_c, 1, 45, 80
5, 7773, Note_on_c, 1, 45, 0
5, 7776, Note_on_c, 1, 46, 80
5, 7821, Note_on_c, 1, 46, 0
5, 7824, Note_on_c, 1, 48, 80
5, 7869, Note_on_c, 1, 48, 0
5, 8112, Note_on_c, 1, 45, 80
5, 8157, Note_on_c, 1, 45, 0
5, 8160, Note_on_c, 1, 46, 80
5, 8205, Note_on_c, 1, 46, 0
5, 8208, Note_on_c, 1, 48, 80
5, 8253, Note_on_c, 1, 48, 0
5, 8496, Note_on_c, 1, 57, 64
5, 8541, Note_on_c, 1, 57, 0
5, 8544, Note_on_c, 1, 57, 64
5, 8633, Note_on_c, 1, 57, 0
5, 10608, Note_on_c, 1, 45, 64
5, 10653, Note_on_c, 1, 45, 0
5, 10656, Note_on_c, 1, 46, 64
5, 10701, Note_on_c, 1, 46, 0
5, 10704, Note_on_c, 1, 48, 64
5, 10749, Note_on_c, 1, 48, 0
5, 16944, Note_on_c, 1, 61, 80
5, 16989, Note_on_c, 1, 61, 0
5, 16992, Note_on_c, 1, 61, 80
5, 17081, Note_on_c, 1, 61, 0
5, 17088, Note_on_c, 1, 60, 80
5, 17133, Note_on_c, 1, 60, 0
5, 17136, Note_on_c, 1, 64, 80
5, 17151, Note_on_c, 1, 64, 0
5, 17152, Note_on_c, 1, 65, 80
5, 17167, Note_on_c, 1, 65, 0
5, 17168, Note_on_c, 1, 67, 80
5, 17183, Note_on_c, 1, 67, 0
5, 17184, Note_on_c, 1, 60, 80
5, 17273, Note_on_c, 1, 60, 0
5, 17328, Note_on_c, 1, 61, 80
5, 17373, Note_on_c, 1, 61, 0
5, 17376, Note_on_c, 1, 61, 80
5, 17465, Note_on_c, 1, 61, 0
5, 17472, Note_on_c, 1, 60, 80
5, 17517, Note_on_c, 1, 60, 0
5, 17520, Note_on_c, 1, 64, 80
5, 17535, Note_on_c, 1, 64, 0
5, 17536, Note_on_c, 1, 65, 80
5, 17551, Note_on_c, 1, 65, 0
5, 17552, Note_on_c, 1, 67, 80
5, 17567, Note_on_c, 1, 67, 0
5, 17568, Note_on_c, 1, 60, 80
5, 17657, Note_on_c, 1, 60, 0
5, 19440, Note_on_c, 1, 45, 80
5, 19485, Note_on_c, 1, 45, 0
5, 19488, Note_on_c, 1, 46, 80
5, 19533, Note_on_c, 1, 46, 0
5, 19536, Note_on_c, 1, 48, 80
5, 19581, Note_on_c, 1, 48, 0
5, 19824, Note_on_c, 1, 45, 80
5, 19869, Note_on_c, 1, 45, 0
5, 19872, Note_on_c, 1, 46, 80
5, 19917, Note_on_c, 1, 46, 0
5, 19920, Note_on_c, 1, 48, 80
5, 19965, Note_on_c, 1, 48, 0
5, 20208, Note_on_c, 1, 57, 64
5, 20253, Note_on_c, 1, 57, 0
5, 20256, Note_on_c, 1, 57, 64
5, 20345, Note_on_c, 1, 57, 0
5, 22320, Note_on_c, 1, 45, 64
5, 22365, Note_on_c, 1, 45, 0
5, 22368, Note_on_c, 1, 46, 64
5, 22413, Note_on_c, 1, 46, 0
5, 22416, Note_on_c, 1, 48, 64
5, 22461, Note_on_c, 1, 48, 0
5, 33648, Note_on_c, 1, 54, 80
5, 33693, Note_on_c, 1, 54, 0
5, 33696, Note_on_c, 1, 54, 80
5, 33785, Note_on_c, 1, 54, 0
5, 33792, Note_on_c, 1, 53, 80
5, 33837, Note_on_c, 1, 53, 0
5, 33840, Note_on_c, 1, 57, 80
5, 33855, Note_on_c, 1, 57, 0
5, 33856, Note_on_c, 1, 58, 80
5, 33871, Note_on_c, 1, 58, 0
5, 33872, Note_on_c, 1, 60, 80
5, 33887, Note_on_c, 1, 60, 0
5, 33888, Note_on_c, 1, 53, 80
5, 33977, Note_on_c, 1, 53, 0
5, 34032, Note_on_c, 1, 54, 80
5, 34077, Note_on_c, 1, 54, 0
5, 34080, Note_on_c, 1, 54, 80
5, 34169, Note_on_c, 1, 54, 0
5, 34176, Note_on_c, 1, 53, 80
5, 34221, Note_on_c, 1, 53, 0
5, 34224, Note_on_c, 1, 57, 80
5, 34239, Note_on_c, 1, 57, 0
5, 34240, Note_on_c, 1, 58, 80
5, 34255, Note_on_c, 1, 58, 0
5, 34256, Note_on_c, 1, 60, 80
5, 34271, Note_on_c, 1, 60, 0
5, 34272, Note_on_c, 1, 53, 80
5, 34361, Note_on_c, 1, 53, 0
5, 36144, Note_on_c, 1, 50, 80
5, 36189, Note_on_c, 1, 50, 0
5, 36192, Note_on_c, 1, 51, 80
5, 36237, Note_on_c, 1, 51, 0
5, 36240, Note_on_c, 1, 53, 80
5, 36285, Note_on_c, 1, 53, 0
5, 36528, Note_on_c, 1, 50, 80
5, 36573, Note_on_c, 1, 50, 0
5, 36576, Note_on_c, 1, 51, 80
5, 36621, Note_on_c, 1, 51, 0
5, 36624, Note_on_c, 1, 53, 80
5, 36669, Note_on_c, 1, 53, 0
5, 36912, Note_on_c, 1, 50, 64
5, 36957, Note_on_c, 1, 50, 0
5, 36960, Note_on_c, 1, 50, 64
5, 37049, Note_on_c, 1, 50, 0
5, 39024, Note_on_c, 1, 50, 64
5, 39069, Note_on_c, 1, 50, 0
5, 39072, Note_on_c, 1, 51, 64
5, 39117, Note_on_c, 1, 51, 0
5, 39120, Note_on_c, 1, 53, 64
5, 39165, Note_on_c, 1, 53, 0
5, 50352, Note_on_c, 1, 54, 80
5, 50397, Note_on_c, 1, 54, 0
5, 50400, Note_on_c, 1, 54, 80
5, 50489, Note_on_c, 1, 54, 0
5, 50496, Note_on_c, 1, 53, 80
5, 50541, Note_on_c, 1, 53, 0
5, 50544, Note_on_c, 1, 57, 80
5, 50559, Note_on_c, 1, 57, 0
5, 50560, Note_on_c, 1, 58, 80
5, 50575, Note_on_c, 1, 58, 0
5, 50576, Note_on_c, 1, 60, 80
5, 50591, Note_on_c, 1, 60, 0
5, 50592, Note_on_c, 1, 53, 80
5, 50681, Note_on_c, 1, 53, 0
5, 50736, Note_on_c, 1, 54, 80
5, 50781, Note_on_c, 1, 54, 0
5, 50784, Note_on_c, 1, 54, 80
5, 50873, Note_on_c, 1, 54, 0
5, 50880, Note_on_c, 1, 53, 80
5, 50925, Note_on_c, 1, 53, 0
5, 50928, Note_on_c, 1, 57, 80
5, 50943, Note_on_c, 1, 57, 0
5, 50944, Note_on_c, 1, 58, 80
5, 50959, Note_on_c, 1, 58, 0
5, 50960, Note_on_c, 1, 60, 80
5, 50975, Note_on_c, 1, 60, 0
5, 50976, Note_on_c, 1, 53, 80
5, 51065, Note_on_c, 1, 53, 0
5, 52848, Note_on_c, 1, 50, 80
5, 52893, Note_on_c, 1, 50, 0
5, 52896, Note_on_c, 1, 51, 80
5, 52941, Note_on_c, 1, 51, 0
5, 52944, Note_on_c, 1, 53, 80
5, 52989, Note_on_c, 1, 53, 0
5, 53232, Note_on_c, 1, 50, 80
5, 53277, Note_on_c, 1, 50, 0
5, 53280, Note_on_c, 1, 51, 80
5, 53325, Note_on_c, 1, 51, 0
5, 53328, Note_on_c, 1, 53, 80
5, 53373, Note_on_c, 1, 53, 0
5, 53616, Note_on_c, 1, 50, 64
5, 53661, Note_on_c, 1, 50, 0
5, 53664, Note_on_c, 1, 50, 64
5, 53753, Note_on_c, 1, 50, 0
5, 55728, Note_on_c, 1, 50, 64
5, 55773, Note_on_c, 1, 50, 0
5, 55776, Note_on_c, 1, 51, 64
5, 55821, Note_on_c, 1, 51, 0
5, 55824, Note_on_c, 1, 53, 64
5, 55869, Note_on_c, 1, 53, 0
5, 57024, End_track
6, 0, Start_track
6, 0, Title_t, "Sonata I   Haydn  "
6, 0, End_track
0, 0, End_of_file
