0, 0, Header, 1, 6, 96
1, 0, Start_track
1, 0, Copyright_t, "Copyright  2000 <copyright holder>"
1, 0, Text_t, "Sonata I\015\012"
1, 0, Text_t, "Haydn\015\012"
1, 0, Sequencer_specific, 17, 68, 87, 77, 90, 86, 82, 83, 78, 32, 55, 46, 48, 46, 49, 48, 46, 48
1, 0, Time_signature, 2, 2, 24, 8
1, 0, Tempo, 500000
1, 0, Key_signature, 1, "major"
1, 55488, End_track
2, 0, Start_track
2, 0, Program_c, 0, 0
2, 0, Control_c, 0, 7, 127
2, 0, Control_c, 0, 10, 64
2, 144, Note_on_c, 0, 62, 75
2, 189, Note_on_c, 0, 62, 0
2, 192, Note_on_c, 0, 67, 75
2, 237, Note_on_c, 0, 67, 0
2, 240, Note_on_c, 0, 69, 75
2, 250, Note_on_c, 0, 69, 0
2, 250, Note_on_c, 0, 67, 75
2, 260, Note_on_c, 0, 67, 0
2, 260, Note_on_c, 0, 66, 75
2, 270, Note_on_c, 0, 66, 0
2, 270, Note_on_c, 0, 67, 75
2, 279, Note_on_c, 0, 67, 0
2, 279, Note_on_c, 0, 69, 75
2, 288, Note_on_c, 0, 69, 0
2, 288, Note_on_c, 0, 71, 75
2, 333, Note_on_c, 0, 71, 0
2, 336, Note_on_c, 0, 72, 75
2, 346, Note_on_c, 0, 72, 0
2, 346, Note_on_c, 0, 71, 75
2, 356, Note_on_c, 0, 71, 0
2, 356, Note_on_c, 0, 69, 75
2, 366, Note_on_c, 0, 69, 0
2, 366, Note_on_c, 0, 71, 75
2, 375, Note_on_c, 0, 71, 0
2, 375, Note_on_c, 0, 72, 75
2, 384, Note_on_c, 0, 72, 0
2, 384, Note_on_c, 0, 74, 75
2, 429, Note_on_c, 0, 74, 0
2, 432, Note_on_c, 0, 74, 75
2, 477, Note_on_c, 0, 74, 0
2, 480, Note_on_c, 0, 74, 75
2, 525, Note_on_c, 0, 74, 0
2, 528, Note_on_c, 0, 74, 75
2, 573, Note_on_c, 0, 74, 0
2, 576, Note_on_c, 0, 74, 75
2, 621, Note_on_c, 0, 74, 0
2, 624, Note_on_c, 0, 76, 77
2, 647, Note_on_c, 0, 76, 0
2, 648, Note_on_c, 0, 78, 78
2, 671, Note_on_c, 0, 78, 0
2, 672, Note_on_c, 0, 81, 80
2, 695, Note_on_c, 0, 81, 0
2, 696, Note_on_c, 0, 79, 78
2, 719, Note_on_c, 0, 79, 0
2, 720, Note_on_c, 0, 78, 77
2, 743, Note_on_c, 0, 78, 0
2, 744, Note_on_c, 0, 76, 76
2, 767, Note_on_c, 0, 76, 0
2, 768, Note_on_c, 0, 74, 75
2, 813, Note_on_c, 0, 74, 0
2, 816, Note_on_c, 0, 74, 75
2, 861, Note_on_c, 0, 74, 0
2, 864, Note_on_c, 0, 74, 75
2, 909, Note_on_c, 0, 74, 0
2, 912, Note_on_c, 0, 74, 75
2, 957, Note_on_c, 0, 74, 0
2, 960, Note_on_c, 0, 74, 75
2, 1005, Note_on_c, 0, 74, 0
2, 1008, Note_on_c, 0, 76, 75
2, 1031, Note_on_c, 0, 76, 0
2, 1032, Note_on_c, 0, 78, 75
2, 1055, Note_on_c, 0, 78, 0
2, 1056, Note_on_c, 0, 81, 75
2, 1079, Note_on_c, 0, 81, 0
2, 1080, Note_on_c, 0, 79, 75
2, 1103, Note_on_c, 0, 79, 0
2, 1104, Note_on_c, 0, 78, 75
2, 1127, Note_on_c, 0, 78, 0
2, 1128, Note_on_c, 0, 76, 75
2, 1151, Note_on_c, 0, 76, 0
2, 1152, Note_on_c, 0, 74, 75
2, 1197, Note_on_c, 0, 74, 0
2, 1200, Note_on_c, 0, 79, 75
2, 1223, Note_on_c, 0, 79, 0
2, 1224, Note_on_c, 0, 83, 75
2, 1247, Note_on_c, 0, 83, 0
2, 1248, Note_on_c, 0, 81, 75
2, 1271, Note_on_c, 0, 81, 0
2, 1272, Note_on_c, 0, 79, 75
2, 1295, Note_on_c, 0, 79, 0
2, 1296, Note_on_c, 0, 78, 75
2, 1319, Note_on_c, 0, 78, 0
2, 1320, Note_on_c, 0, 76, 75
2, 1343, Note_on_c, 0, 76, 0
2, 1344, Note_on_c, 0, 74, 75
2, 1433, Note_on_c, 0, 74, 0
2, 1440, Note_on_c, 0, 72, 75
2, 1453, Note_on_c, 0, 72, 0
2, 1454, Note_on_c, 0, 74, 75
2, 1467, Note_on_c, 0, 74, 0
2, 1468, Note_on_c, 0, 72, 75
2, 1481, Note_on_c, 0, 72, 0
2, 1482, Note_on_c, 0, 74, 75
2, 1495, Note_on_c, 0, 74, 0
2, 1496, Note_on_c, 0, 72, 75
2, 1509, Note_on_c, 0, 72, 0
2, 1510, Note_on_c, 0, 71, 75
2, 1522, Note_on_c, 0, 71, 0
2, 1523, Note_on_c, 0, 72, 75
2, 1535, Note_on_c, 0, 72, 0
2, 1536, Note_on_c, 0, 71, 75
2, 1625, Note_on_c, 0, 71, 0
2, 1680, Note_on_c, 0, 67, 80
2, 1725, Note_on_c, 0, 67, 0
2, 1728, Note_on_c, 0, 66, 80
2, 1740, Note_on_c, 0, 66, 0
2, 1740, Note_on_c, 0, 67, 80
2, 1752, Note_on_c, 0, 67, 0
2, 1752, Note_on_c, 0, 66, 80
2, 1773, Note_on_c, 0, 66, 0
2, 1776, Note_on_c, 0, 64, 80
2, 1821, Note_on_c, 0, 64, 0
2, 1824, Note_on_c, 0, 62, 80
2, 1836, Note_on_c, 0, 62, 0
2, 1836, Note_on_c, 0, 64, 80
2, 1848, Note_on_c, 0, 64, 0
2, 1848, Note_on_c, 0, 62, 80
2, 1869, Note_on_c, 0, 62, 0
2, 1872, Note_on_c, 0, 60, 80
2, 1917, Note_on_c, 0, 60, 0
2, 1920, Note_on_c, 0, 59, 80
2, 2009, Note_on_c, 0, 59, 0
2, 2064, Note_on_c, 0, 64, 75
2, 2079, Note_on_c, 0, 64, 0
2, 2080, Note_on_c, 0, 66, 75
2, 2095, Note_on_c, 0, 66, 0
2, 2096, Note_on_c, 0, 64, 75
2, 2111, Note_on_c, 0, 64, 0
2, 2112, Note_on_c, 0, 62, 75
2, 2157, Note_on_c, 0, 62, 0
2, 2160, Note_on_c, 0, 60, 75
2, 2175, Note_on_c, 0, 60, 0
2, 2176, Note_on_c, 0, 62, 75
2, 2191, Note_on_c, 0, 62, 0
2, 2192, Note_on_c, 0, 60, 75
2, 2207, Note_on_c, 0, 60, 0
2, 2208, Note_on_c, 0, 59, 75
2, 2253, Note_on_c, 0, 59, 0
2, 2256, Note_on_c, 0, 57, 75
2, 2271, Note_on_c, 0, 57, 0
2, 2272, Note_on_c, 0, 59, 75
2, 2287, Note_on_c, 0, 59, 0
2, 2288, Note_on_c, 0, 57, 75
2, 2303, Note_on_c, 0, 57, 0
2, 2304, Note_on_c, 0, 55, 75
2, 2393, Note_on_c, 0, 55, 0
2, 2448, Note_on_c, 0, 62, 75
2, 2493, Note_on_c, 0, 62, 0
2, 2496, Note_on_c, 0, 67, 75
2, 2520, Note_on_c, 0, 67, 0
2, 2520, Note_on_c, 0, 66, 75
2, 2543, Note_on_c, 0, 66, 0
2, 2544, Note_on_c, 0, 69, 75
2, 2568, Note_on_c, 0, 69, 0
2, 2568, Note_on_c, 0, 67, 75
2, 2591, Note_on_c, 0, 67, 0
2, 2592, Note_on_c, 0, 71, 75
2, 2616, Note_on_c, 0, 71, 0
2, 2616, Note_on_c, 0, 69, 75
2, 2639, Note_on_c, 0, 69, 0
2, 2640, Note_on_c, 0, 72, 75
2, 2664, Note_on_c, 0, 72, 0
2, 2664, Note_on_c, 0, 71, 75
2, 2687, Note_on_c, 0, 71, 0
2, 2688, Note_on_c, 0, 74, 75
2, 2733, Note_on_c, 0, 74, 0
2, 2736, Note_on_c, 0, 74, 75
2, 2781, Note_on_c, 0, 74, 0
2, 2784, Note_on_c, 0, 74, 75
2, 2829, Note_on_c, 0, 74, 0
2, 2832, Note_on_c, 0, 74, 75
2, 2877, Note_on_c, 0, 74, 0
2, 2880, Note_on_c, 0, 74, 75
2, 2925, Note_on_c, 0, 74, 0
2, 2928, Note_on_c, 0, 76, 75
2, 2951, Note_on_c, 0, 76, 0
2, 2952, Note_on_c, 0, 78, 77
2, 2975, Note_on_c, 0, 78, 0
2, 2976, Note_on_c, 0, 81, 80
2, 2999, Note_on_c, 0, 81, 0
2, 3000, Note_on_c, 0, 79, 78
2, 3023, Note_on_c, 0, 79, 0
2, 3024, Note_on_c, 0, 78, 77
2, 3047, Note_on_c, 0, 78, 0
2, 3048, Note_on_c, 0, 76, 76
2, 3071, Note_on_c, 0, 76, 0
2, 3072, Note_on_c, 0, 74, 75
2, 3117, Note_on_c, 0, 74, 0
2, 3120, Note_on_c, 0, 74, 75
2, 3165, Note_on_c, 0, 74, 0
2, 3168, Note_on_c, 0, 74, 75
2, 3213, Note_on_c, 0, 74, 0
2, 3216, Note_on_c, 0, 74, 75
2, 3261, Note_on_c, 0, 74, 0
2, 3264, Note_on_c, 0, 74, 75
2, 3309, Note_on_c, 0, 74, 0
2, 3312, Note_on_c, 0, 79, 75
2, 3357, Note_on_c, 0, 79, 0
2, 3360, Note_on_c, 0, 77, 75
2, 3405, Note_on_c, 0, 77, 0
2, 3408, Note_on_c, 0, 74, 75
2, 3453, Note_on_c, 0, 74, 0
2, 3456, Note_on_c, 0, 75, 75
2, 3545, Note_on_c, 0, 75, 0
2, 3552, Note_on_c, 0, 76, 75
2, 3693, Note_on_c, 0, 76, 0
2, 3696, Note_on_c, 0, 79, 75
2, 3741, Note_on_c, 0, 79, 0
2, 3744, Note_on_c, 0, 76, 75
2, 3789, Note_on_c, 0, 76, 0
2, 3792, Note_on_c, 0, 72, 75
2, 3837, Note_on_c, 0, 72, 0
2, 3840, Note_on_c, 0, 73, 75
2, 3929, Note_on_c, 0, 73, 0
2, 3936, Note_on_c, 0, 74, 75
2, 4077, Note_on_c, 0, 74, 0
2, 4080, Note_on_c, 0, 79, 75
2, 4092, Note_on_c, 0, 79, 0
2, 4092, Note_on_c, 0, 83, 75
2, 4125, Note_on_c, 0, 83, 0
2, 4128, Note_on_c, 0, 81, 75
2, 4140, Note_on_c, 0, 81, 0
2, 4140, Note_on_c, 0, 79, 75
2, 4174, Note_on_c, 0, 79, 0
2, 4176, Note_on_c, 0, 78, 75
2, 4188, Note_on_c, 0, 78, 0
2, 4188, Note_on_c, 0, 76, 75
2, 4222, Note_on_c, 0, 76, 0
2, 4224, Note_on_c, 0, 74, 75
2, 4320, Note_on_c, 0, 74, 0
2, 4320, Note_on_c, 0, 72, 75
2, 4332, Note_on_c, 0, 72, 0
2, 4332, Note_on_c, 0, 74, 75
2, 4344, Note_on_c, 0, 74, 0
2, 4344, Note_on_c, 0, 72, 75
2, 4365, Note_on_c, 0, 72, 0
2, 4368, Note_on_c, 0, 71, 75
2, 4413, Note_on_c, 0, 71, 0
2, 4416, Note_on_c, 0, 71, 75
2, 4439, Note_on_c, 0, 71, 0
2, 4440, Note_on_c, 0, 69, 76
2, 4463, Note_on_c, 0, 69, 0
2, 4464, Note_on_c, 0, 75, 77
2, 4487, Note_on_c, 0, 75, 0
2, 4488, Note_on_c, 0, 76, 78
2, 4511, Note_on_c, 0, 76, 0
2, 4512, Note_on_c, 0, 74, 80
2, 4535, Note_on_c, 0, 74, 0
2, 4536, Note_on_c, 0, 72, 78
2, 4559, Note_on_c, 0, 72, 0
2, 4560, Note_on_c, 0, 71, 77
2, 4583, Note_on_c, 0, 71, 0
2, 4584, Note_on_c, 0, 69, 76
2, 4607, Note_on_c, 0, 69, 0
2, 4608, Note_on_c, 0, 67, 75
2, 4704, Note_on_c, 0, 67, 0
2, 4704, Note_on_c, 0, 66, 75
2, 4749, Note_on_c, 0, 66, 0
2, 4752, Note_on_c, 0, 69, 75
2, 4797, Note_on_c, 0, 69, 0
2, 4800, Note_on_c, 0, 74, 75
2, 4889, Note_on_c, 0, 74, 0
2, 4896, Note_on_c, 0, 79, 75
2, 4919, Note_on_c, 0, 79, 0
2, 4920, Note_on_c, 0, 78, 75
2, 4943, Note_on_c, 0, 78, 0
2, 4944, Note_on_c, 0, 76, 75
2, 4967, Note_on_c, 0, 76, 0
2, 4968, Note_on_c, 0, 74, 75
2, 4991, Note_on_c, 0, 74, 0
2, 4992, Note_on_c, 0, 74, 75
2, 5037, Note_on_c, 0, 74, 0
2, 5040, Note_on_c, 0, 73, 75
2, 5085, Note_on_c, 0, 73, 0
2, 5136, Note_on_c, 0, 69, 75
2, 5181, Note_on_c, 0, 69, 0
2, 5184, Note_on_c, 0, 76, 75
2, 5273, Note_on_c, 0, 76, 0
2, 5280, Note_on_c, 0, 81, 75
2, 5303, Note_on_c, 0, 81, 0
2, 5304, Note_on_c, 0, 79, 75
2, 5327, Note_on_c, 0, 79, 0
2, 5328, Note_on_c, 0, 78, 75
2, 5351, Note_on_c, 0, 78, 0
2, 5352, Note_on_c, 0, 76, 75
2, 5375, Note_on_c, 0, 76, 0
2, 5376, Note_on_c, 0, 76, 75
2, 5421, Note_on_c, 0, 76, 0
2, 5424, Note_on_c, 0, 78, 75
2, 5469, Note_on_c, 0, 78, 0
2, 5520, Note_on_c, 0, 69, 75
2, 5565, Note_on_c, 0, 69, 0
2, 5568, Note_on_c, 0, 69, 75
2, 5591, Note_on_c, 0, 69, 0
2, 5592, Note_on_c, 0, 81, 75
2, 5615, Note_on_c, 0, 81, 0
2, 5616, Note_on_c, 0, 79, 75
2, 5639, Note_on_c, 0, 79, 0
2, 5640, Note_on_c, 0, 78, 75
2, 5663, Note_on_c, 0, 78, 0
2, 5664, Note_on_c, 0, 76, 75
2, 5687, Note_on_c, 0, 76, 0
2, 5688, Note_on_c, 0, 74, 75
2, 5711, Note_on_c, 0, 74, 0
2, 5712, Note_on_c, 0, 73, 75
2, 5735, Note_on_c, 0, 73, 0
2, 5736, Note_on_c, 0, 74, 75
2, 5759, Note_on_c, 0, 74, 0
2, 5760, Note_on_c, 0, 71, 75
2, 5805, Note_on_c, 0, 71, 0
2, 5808, Note_on_c, 0, 75, 76
2, 5853, Note_on_c, 0, 75, 0
2, 5856, Note_on_c, 0, 76, 77
2, 5901, Note_on_c, 0, 76, 0
2, 5904, Note_on_c, 0, 78, 78
2, 5949, Note_on_c, 0, 78, 0
2, 5976, Note_on_c, 0, 79, 79
2, 5999, Note_on_c, 0, 79, 0
2, 6000, Note_on_c, 0, 78, 78
2, 6023, Note_on_c, 0, 78, 0
2, 6024, Note_on_c, 0, 76, 78
2, 6047, Note_on_c, 0, 76, 0
2, 6048, Note_on_c, 0, 74, 77
2, 6071, Note_on_c, 0, 74, 0
2, 6072, Note_on_c, 0, 73, 76
2, 6095, Note_on_c, 0, 73, 0
2, 6096, Note_on_c, 0, 71, 76
2, 6119, Note_on_c, 0, 71, 0
2, 6120, Note_on_c, 0, 73, 75
2, 6143, Note_on_c, 0, 73, 0
2, 6144, Note_on_c, 0, 69, 75
2, 6189, Note_on_c, 0, 69, 0
2, 6192, Note_on_c, 0, 73, 76
2, 6237, Note_on_c, 0, 73, 0
2, 6240, Note_on_c, 0, 74, 77
2, 6285, Note_on_c, 0, 74, 0
2, 6288, Note_on_c, 0, 76, 78
2, 6333, Note_on_c, 0, 76, 0
2, 6360, Note_on_c, 0, 78, 79
2, 6383, Note_on_c, 0, 78, 0
2, 6384, Note_on_c, 0, 76, 78
2, 6407, Note_on_c, 0, 76, 0
2, 6408, Note_on_c, 0, 74, 78
2, 6431, Note_on_c, 0, 74, 0
2, 6432, Note_on_c, 0, 73, 77
2, 6455, Note_on_c, 0, 73, 0
2, 6456, Note_on_c, 0, 71, 76
2, 6479, Note_on_c, 0, 71, 0
2, 6480, Note_on_c, 0, 69, 76
2, 6503, Note_on_c, 0, 69, 0
2, 6504, Note_on_c, 0, 71, 75
2, 6527, Note_on_c, 0, 71, 0
2, 6528, Note_on_c, 0, 67, 75
2, 6573, Note_on_c, 0, 67, 0
2, 6576, Note_on_c, 0, 71, 75
2, 6621, Note_on_c, 0, 71, 0
2, 6624, Note_on_c, 0, 73, 76
2, 6669, Note_on_c, 0, 73, 0
2, 6672, Note_on_c, 0, 74, 77
2, 6717, Note_on_c, 0, 74, 0
2, 6744, Note_on_c, 0, 76, 80
2, 6767, Note_on_c, 0, 76, 0
2, 6768, Note_on_c, 0, 74, 79
2, 6791, Note_on_c, 0, 74, 0
2, 6792, Note_on_c, 0, 73, 78
2, 6815, Note_on_c, 0, 73, 0
2, 6816, Note_on_c, 0, 71, 77
2, 6839, Note_on_c, 0, 71, 0
2, 6840, Note_on_c, 0, 69, 77
2, 6863, Note_on_c, 0, 69, 0
2, 6864, Note_on_c, 0, 71, 76
2, 6887, Note_on_c, 0, 71, 0
2, 6888, Note_on_c, 0, 67, 75
2, 6911, Note_on_c, 0, 67, 0
2, 6912, Note_on_c, 0, 66, 75
2, 6960, Note_on_c, 0, 66, 0
2, 6960, Note_on_c, 0, 74, 75
2, 7005, Note_on_c, 0, 74, 0
2, 7008, Note_on_c, 0, 73, 75
2, 7056, Note_on_c, 0, 73, 0
2, 7056, Note_on_c, 0, 81, 75
2, 7101, Note_on_c, 0, 81, 0
2, 7104, Note_on_c, 0, 78, 75
2, 7152, Note_on_c, 0, 78, 0
2, 7152, Note_on_c, 0, 74, 75
2, 7197, Note_on_c, 0, 74, 0
2, 7200, Note_on_c, 0, 73, 75
2, 7248, Note_on_c, 0, 73, 0
2, 7248, Note_on_c, 0, 67, 75
2, 7293, Note_on_c, 0, 67, 0
2, 7296, Note_on_c, 0, 66, 75
2, 7316, Note_on_c, 0, 66, 0
2, 7344, Note_on_c, 0, 74, 75
2, 7364, Note_on_c, 0, 74, 0
2, 7392, Note_on_c, 0, 73, 75
2, 7412, Note_on_c, 0, 73, 0
2, 7440, Note_on_c, 0, 81, 75
2, 7460, Note_on_c, 0, 81, 0
2, 7488, Note_on_c, 0, 78, 75
2, 7508, Note_on_c, 0, 78, 0
2, 7536, Note_on_c, 0, 74, 75
2, 7556, Note_on_c, 0, 74, 0
2, 7584, Note_on_c, 0, 73, 75
2, 7604, Note_on_c, 0, 73, 0
2, 7632, Note_on_c, 0, 67, 75
2, 7652, Note_on_c, 0, 67, 0
2, 7680, Note_on_c, 0, 66, 75
2, 7700, Note_on_c, 0, 66, 0
2, 7728, Note_on_c, 0, 74, 75
2, 7776, Note_on_c, 0, 74, 0
2, 7776, Note_on_c, 0, 72, 75
2, 7821, Note_on_c, 0, 72, 0
2, 7824, Note_on_c, 0, 69, 75
2, 7869, Note_on_c, 0, 69, 0
2, 7872, Note_on_c, 0, 70, 75
2, 7968, Note_on_c, 0, 70, 0
2, 7968, Note_on_c, 0, 71, 75
2, 7988, Note_on_c, 0, 71, 0
2, 8016, Note_on_c, 0, 83, 75
2, 8039, Note_on_c, 0, 83, 0
2, 8040, Note_on_c, 0, 79, 75
2, 8063, Note_on_c, 0, 79, 0
2, 8064, Note_on_c, 0, 81, 75
2, 8087, Note_on_c, 0, 81, 0
2, 8088, Note_on_c, 0, 78, 75
2, 8111, Note_on_c, 0, 78, 0
2, 8112, Note_on_c, 0, 79, 75
2, 8135, Note_on_c, 0, 79, 0
2, 8136, Note_on_c, 0, 76, 75
2, 8159, Note_on_c, 0, 76, 0
2, 8160, Note_on_c, 0, 78, 75
2, 8183, Note_on_c, 0, 78, 0
2, 8184, Note_on_c, 0, 74, 75
2, 8207, Note_on_c, 0, 74, 0
2, 8208, Note_on_c, 0, 76, 75
2, 8231, Note_on_c, 0, 76, 0
2, 8232, Note_on_c, 0, 73, 75
2, 8255, Note_on_c, 0, 73, 0
2, 8256, Note_on_c, 0, 74, 75
2, 8301, Note_on_c, 0, 74, 0
2, 8304, Note_on_c, 0, 86, 75
2, 8349, Note_on_c, 0, 86, 0
2, 8352, Note_on_c, 0, 86, 75
2, 8397, Note_on_c, 0, 86, 0
2, 8400, Note_on_c, 0, 88, 75
2, 8412, Note_on_c, 0, 88, 0
2, 8412, Note_on_c, 0, 86, 75
2, 8424, Note_on_c, 0, 86, 0
2, 8424, Note_on_c, 0, 85, 75
2, 8436, Note_on_c, 0, 85, 0
2, 8436, Note_on_c, 0, 86, 75
2, 8448, Note_on_c, 0, 86, 0
2, 8448, Note_on_c, 0, 85, 75
2, 8468, Note_on_c, 0, 85, 0
2, 8496, Note_on_c, 0, 79, 75
2, 8541, Note_on_c, 0, 79, 0
2, 8544, Note_on_c, 0, 79, 75
2, 8589, Note_on_c, 0, 79, 0
2, 8592, Note_on_c, 0, 81, 75
2, 8604, Note_on_c, 0, 81, 0
2, 8604, Note_on_c, 0, 79, 75
2, 8616, Note_on_c, 0, 79, 0
2, 8616, Note_on_c, 0, 78, 75
2, 8628, Note_on_c, 0, 78, 0
2, 8628, Note_on_c, 0, 79, 75
2, 8640, Note_on_c, 0, 79, 0
2, 8640, Note_on_c, 0, 78, 75
2, 8660, Note_on_c, 0, 78, 0
2, 8688, Note_on_c, 0, 72, 75
2, 8733, Note_on_c, 0, 72, 0
2, 8736, Note_on_c, 0, 72, 75
2, 8781, Note_on_c, 0, 72, 0
2, 8784, Note_on_c, 0, 74, 75
2, 8796, Note_on_c, 0, 74, 0
2, 8796, Note_on_c, 0, 72, 75
2, 8808, Note_on_c, 0, 72, 0
2, 8808, Note_on_c, 0, 71, 75
2, 8820, Note_on_c, 0, 71, 0
2, 8820, Note_on_c, 0, 72, 75
2, 8832, Note_on_c, 0, 72, 0
2, 8832, Note_on_c, 0, 71, 75
2, 8877, Note_on_c, 0, 71, 0
2, 8880, Note_on_c, 0, 82, 75
2, 8903, Note_on_c, 0, 82, 0
2, 8904, Note_on_c, 0, 83, 75
2, 8927, Note_on_c, 0, 83, 0
2, 8928, Note_on_c, 0, 81, 75
2, 8951, Note_on_c, 0, 81, 0
2, 8952, Note_on_c, 0, 79, 75
2, 8975, Note_on_c, 0, 79, 0
2, 8976, Note_on_c, 0, 78, 75
2, 8999, Note_on_c, 0, 78, 0
2, 9000, Note_on_c, 0, 76, 75
2, 9023, Note_on_c, 0, 76, 0
2, 9024, Note_on_c, 0, 74, 75
2, 9113, Note_on_c, 0, 74, 0
2, 9120, Note_on_c, 0, 76, 75
2, 9133, Note_on_c, 0, 76, 0
2, 9134, Note_on_c, 0, 78, 75
2, 9147, Note_on_c, 0, 78, 0
2, 9148, Note_on_c, 0, 76, 75
2, 9161, Note_on_c, 0, 76, 0
2, 9162, Note_on_c, 0, 78, 75
2, 9175, Note_on_c, 0, 78, 0
2, 9176, Note_on_c, 0, 76, 75
2, 9189, Note_on_c, 0, 76, 0
2, 9190, Note_on_c, 0, 74, 75
2, 9202, Note_on_c, 0, 74, 0
2, 9203, Note_on_c, 0, 76, 75
2, 9215, Note_on_c, 0, 76, 0
2, 9216, Note_on_c, 0, 74, 75
2, 9261, Note_on_c, 0, 74, 0
2, 9264, Note_on_c, 0, 86, 75
2, 9309, Note_on_c, 0, 86, 0
2, 9312, Note_on_c, 0, 86, 75
2, 9357, Note_on_c, 0, 86, 0
2, 9360, Note_on_c, 0, 88, 75
2, 9372, Note_on_c, 0, 88, 0
2, 9372, Note_on_c, 0, 86, 75
2, 9384, Note_on_c, 0, 86, 0
2, 9384, Note_on_c, 0, 85, 75
2, 9396, Note_on_c, 0, 85, 0
2, 9396, Note_on_c, 0, 86, 75
2, 9408, Note_on_c, 0, 86, 0
2, 9408, Note_on_c, 0, 85, 75
2, 9428, Note_on_c, 0, 85, 0
2, 9456, Note_on_c, 0, 79, 75
2, 9501, Note_on_c, 0, 79, 0
2, 9504, Note_on_c, 0, 79, 75
2, 9549, Note_on_c, 0, 79, 0
2, 9552, Note_on_c, 0, 81, 75
2, 9564, Note_on_c, 0, 81, 0
2, 9564, Note_on_c, 0, 79, 75
2, 9576, Note_on_c, 0, 79, 0
2, 9576, Note_on_c, 0, 78, 75
2, 9588, Note_on_c, 0, 78, 0
2, 9588, Note_on_c, 0, 79, 75
2, 9600, Note_on_c, 0, 79, 0
2, 9600, Note_on_c, 0, 78, 75
2, 9620, Note_on_c, 0, 78, 0
2, 9648, Note_on_c, 0, 72, 75
2, 9693, Note_on_c, 0, 72, 0
2, 9696, Note_on_c, 0, 72, 75
2, 9741, Note_on_c, 0, 72, 0
2, 9744, Note_on_c, 0, 74, 75
2, 9756, Note_on_c, 0, 74, 0
2, 9756, Note_on_c, 0, 72, 75
2, 9768, Note_on_c, 0, 72, 0
2, 9768, Note_on_c, 0, 71, 75
2, 9780, Note_on_c, 0, 71, 0
2, 9780, Note_on_c, 0, 72, 75
2, 9792, Note_on_c, 0, 72, 0
2, 9792, Note_on_c, 0, 71, 75
2, 9837, Note_on_c, 0, 71, 0
2, 9840, Note_on_c, 0, 82, 75
2, 9863, Note_on_c, 0, 82, 0
2, 9864, Note_on_c, 0, 83, 75
2, 9887, Note_on_c, 0, 83, 0
2, 9888, Note_on_c, 0, 81, 75
2, 9911, Note_on_c, 0, 81, 0
2, 9912, Note_on_c, 0, 79, 75
2, 9935, Note_on_c, 0, 79, 0
2, 9936, Note_on_c, 0, 78, 75
2, 9959, Note_on_c, 0, 78, 0
2, 9960, Note_on_c, 0, 76, 75
2, 9983, Note_on_c, 0, 76, 0
2, 9984, Note_on_c, 0, 74, 75
2, 10073, Note_on_c, 0, 74, 0
2, 10080, Note_on_c, 0, 76, 75
2, 10093, Note_on_c, 0, 76, 0
2, 10094, Note_on_c, 0, 78, 75
2, 10107, Note_on_c, 0, 78, 0
2, 10108, Note_on_c, 0, 76, 75
2, 10121, Note_on_c, 0, 76, 0
2, 10122, Note_on_c, 0, 78, 75
2, 10135, Note_on_c, 0, 78, 0
2, 10136, Note_on_c, 0, 76, 75
2, 10149, Note_on_c, 0, 76, 0
2, 10150, Note_on_c, 0, 74, 75
2, 10162, Note_on_c, 0, 74, 0
2, 10163, Note_on_c, 0, 76, 75
2, 10175, Note_on_c, 0, 76, 0
2, 10176, Note_on_c, 0, 78, 75
2, 10199, Note_on_c, 0, 78, 0
2, 10200, Note_on_c, 0, 74, 75
2, 10223, Note_on_c, 0, 74, 0
2, 10224, Note_on_c, 0, 86, 75
2, 10247, Note_on_c, 0, 86, 0
2, 10248, Note_on_c, 0, 81, 75
2, 10271, Note_on_c, 0, 81, 0
2, 10272, Note_on_c, 0, 83, 75
2, 10295, Note_on_c, 0, 83, 0
2, 10296, Note_on_c, 0, 78, 75
2, 10319, Note_on_c, 0, 78, 0
2, 10320, Note_on_c, 0, 79, 75
2, 10343, Note_on_c, 0, 79, 0
2, 10344, Note_on_c, 0, 76, 75
2, 10367, Note_on_c, 0, 76, 0
2, 10368, Note_on_c, 0, 74, 75
2, 10457, Note_on_c, 0, 74, 0
2, 10464, Note_on_c, 0, 76, 75
2, 10477, Note_on_c, 0, 76, 0
2, 10478, Note_on_c, 0, 78, 75
2, 10491, Note_on_c, 0, 78, 0
2, 10492, Note_on_c, 0, 76, 75
2, 10505, Note_on_c, 0, 76, 0
2, 10506, Note_on_c, 0, 78, 75
2, 10519, Note_on_c, 0, 78, 0
2, 10520, Note_on_c, 0, 76, 75
2, 10533, Note_on_c, 0, 76, 0
2, 10534, Note_on_c, 0, 74, 75
2, 10546, Note_on_c, 0, 74, 0
2, 10547, Note_on_c, 0, 76, 75
2, 10559, Note_on_c, 0, 76, 0
2, 10560, Note_on_c, 0, 74, 75
2, 10605, Note_on_c, 0, 74, 0
2, 10656, Note_on_c, 0, 79, 75
2, 10656, Note_on_c, 0, 73, 75
2, 10676, Note_on_c, 0, 79, 0
2, 10676, Note_on_c, 0, 73, 0
2, 10752, Note_on_c, 0, 78, 75
2, 10752, Note_on_c, 0, 74, 75
2, 10772, Note_on_c, 0, 78, 0
2, 10772, Note_on_c, 0, 74, 0
2, 10848, Note_on_c, 0, 73, 75
2, 10848, Note_on_c, 0, 67, 75
2, 10868, Note_on_c, 0, 73, 0
2, 10868, Note_on_c, 0, 67, 0
2, 10944, Note_on_c, 0, 74, 75
2, 10944, Note_on_c, 0, 66, 75
2, 11033, Note_on_c, 0, 74, 0
2, 11033, Note_on_c, 0, 66, 0
2, 11088, Note_on_c, 0, 62, 75
2, 11133, Note_on_c, 0, 62, 0
2, 11136, Note_on_c, 0, 67, 75
2, 11181, Note_on_c, 0, 67, 0
2, 11184, Note_on_c, 0, 69, 75
2, 11194, Note_on_c, 0, 69, 0
2, 11194, Note_on_c, 0, 67, 75
2, 11204, Note_on_c, 0, 67, 0
2, 11204, Note_on_c, 0, 66, 75
2, 11214, Note_on_c, 0, 66, 0
2, 11214, Note_on_c, 0, 67, 75
2, 11223, Note_on_c, 0, 67, 0
2, 11223, Note_on_c, 0, 69, 75
2, 11232, Note_on_c, 0, 69, 0
2, 11232, Note_on_c, 0, 71, 75
2, 11277, Note_on_c, 0, 71, 0
2, 11280, Note_on_c, 0, 72, 75
2, 11290, Note_on_c, 0, 72, 0
2, 11290, Note_on_c, 0, 71, 75
2, 11300, Note_on_c, 0, 71, 0
2, 11300, Note_on_c, 0, 69, 75
2, 11310, Note_on_c, 0, 69, 0
2, 11310, Note_on_c, 0, 71, 75
2, 11319, Note_on_c, 0, 71, 0
2, 11319, Note_on_c, 0, 72, 75
2, 11328, Note_on_c, 0, 72, 0
2, 11328, Note_on_c, 0, 74, 75
2, 11373, Note_on_c, 0, 74, 0
2, 11376, Note_on_c, 0, 74, 75
2, 11421, Note_on_c, 0, 74, 0
2, 11424, Note_on_c, 0, 74, 75
2, 11469, Note_on_c, 0, 74, 0
2, 11472, Note_on_c, 0, 74, 75
2, 11517, Note_on_c, 0, 74, 0
2, 11520, Note_on_c, 0, 74, 75
2, 11565, Note_on_c, 0, 74, 0
2, 11568, Note_on_c, 0, 76, 77
2, 11591, Note_on_c, 0, 76, 0
2, 11592, Note_on_c, 0, 78, 78
2, 11615, Note_on_c, 0, 78, 0
2, 11616, Note_on_c, 0, 81, 80
2, 11639, Note_on_c, 0, 81, 0
2, 11640, Note_on_c, 0, 79, 78
2, 11663, Note_on_c, 0, 79, 0
2, 11664, Note_on_c, 0, 78, 77
2, 11687, Note_on_c, 0, 78, 0
2, 11688, Note_on_c, 0, 76, 76
2, 11711, Note_on_c, 0, 76, 0
2, 11712, Note_on_c, 0, 74, 75
2, 11757, Note_on_c, 0, 74, 0
2, 11760, Note_on_c, 0, 74, 75
2, 11805, Note_on_c, 0, 74, 0
2, 11808, Note_on_c, 0, 74, 75
2, 11853, Note_on_c, 0, 74, 0
2, 11856, Note_on_c, 0, 74, 75
2, 11901, Note_on_c, 0, 74, 0
2, 11904, Note_on_c, 0, 74, 75
2, 11949, Note_on_c, 0, 74, 0
2, 11952, Note_on_c, 0, 76, 75
2, 11975, Note_on_c, 0, 76, 0
2, 11976, Note_on_c, 0, 78, 75
2, 11999, Note_on_c, 0, 78, 0
2, 12000, Note_on_c, 0, 81, 75
2, 12023, Note_on_c, 0, 81, 0
2, 12024, Note_on_c, 0, 79, 75
2, 12047, Note_on_c, 0, 79, 0
2, 12048, Note_on_c, 0, 78, 75
2, 12071, Note_on_c, 0, 78, 0
2, 12072, Note_on_c, 0, 76, 75
2, 12095, Note_on_c, 0, 76, 0
2, 12096, Note_on_c, 0, 74, 75
2, 12141, Note_on_c, 0, 74, 0
2, 12144, Note_on_c, 0, 79, 75
2, 12167, Note_on_c, 0, 79, 0
2, 12168, Note_on_c, 0, 83, 75
2, 12191, Note_on_c, 0, 83, 0
2, 12192, Note_on_c, 0, 81, 75
2, 12215, Note_on_c, 0, 81, 0
2, 12216, Note_on_c, 0, 79, 75
2, 12239, Note_on_c, 0, 79, 0
2, 12240, Note_on_c, 0, 78, 75
2, 12263, Note_on_c, 0, 78, 0
2, 12264, Note_on_c, 0, 76, 75
2, 12287, Note_on_c, 0, 76, 0
2, 12288, Note_on_c, 0, 74, 75
2, 12377, Note_on_c, 0, 74, 0
2, 12384, Note_on_c, 0, 72, 75
2, 12397, Note_on_c, 0, 72, 0
2, 12398, Note_on_c, 0, 74, 75
2, 12411, Note_on_c, 0, 74, 0
2, 12412, Note_on_c, 0, 72, 75
2, 12425, Note_on_c, 0, 72, 0
2, 12426, Note_on_c, 0, 74, 75
2, 12439, Note_on_c, 0, 74, 0
2, 12440, Note_on_c, 0, 72, 75
2, 12453, Note_on_c, 0, 72, 0
2, 12454, Note_on_c, 0, 71, 75
2, 12466, Note_on_c, 0, 71, 0
2, 12467, Note_on_c, 0, 72, 75
2, 12479, Note_on_c, 0, 72, 0
2, 12480, Note_on_c, 0, 71, 75
2, 12569, Note_on_c, 0, 71, 0
2, 12624, Note_on_c, 0, 67, 80
2, 12669, Note_on_c, 0, 67, 0
2, 12672, Note_on_c, 0, 66, 80
2, 12684, Note_on_c, 0, 66, 0
2, 12684, Note_on_c, 0, 67, 80
2, 12696, Note_on_c, 0, 67, 0
2, 12696, Note_on_c, 0, 66, 80
2, 12717, Note_on_c, 0, 66, 0
2, 12720, Note_on_c, 0, 64, 80
2, 12765, Note_on_c, 0, 64, 0
2, 12768, Note_on_c, 0, 62, 80
2, 12780, Note_on_c, 0, 62, 0
2, 12780, Note_on_c, 0, 64, 80
2, 12792, Note_on_c, 0, 64, 0
2, 12792, Note_on_c, 0, 62, 80
2, 12813, Note_on_c, 0, 62, 0
2, 12816, Note_on_c, 0, 60, 80
2, 12861, Note_on_c, 0, 60, 0
2, 12864, Note_on_c, 0, 59, 80
2, 12953, Note_on_c, 0, 59, 0
2, 13008, Note_on_c, 0, 64, 75
2, 13023, Note_on_c, 0, 64, 0
2, 13024, Note_on_c, 0, 66, 75
2, 13039, Note_on_c, 0, 66, 0
2, 13040, Note_on_c, 0, 64, 75
2, 13055, Note_on_c, 0, 64, 0
2, 13056, Note_on_c, 0, 62, 75
2, 13101, Note_on_c, 0, 62, 0
2, 13104, Note_on_c, 0, 60, 75
2, 13119, Note_on_c, 0, 60, 0
2, 13120, Note_on_c, 0, 62, 75
2, 13135, Note_on_c, 0, 62, 0
2, 13136, Note_on_c, 0, 60, 75
2, 13151, Note_on_c, 0, 60, 0
2, 13152, Note_on_c, 0, 59, 75
2, 13197, Note_on_c, 0, 59, 0
2, 13200, Note_on_c, 0, 57, 75
2, 13215, Note_on_c, 0, 57, 0
2, 13216, Note_on_c, 0, 59, 75
2, 13231, Note_on_c, 0, 59, 0
2, 13232, Note_on_c, 0, 57, 75
2, 13247, Note_on_c, 0, 57, 0
2, 13248, Note_on_c, 0, 55, 75
2, 13337, Note_on_c, 0, 55, 0
2, 13392, Note_on_c, 0, 62, 75
2, 13437, Note_on_c, 0, 62, 0
2, 13440, Note_on_c, 0, 67, 75
2, 13464, Note_on_c, 0, 67, 0
2, 13464, Note_on_c, 0, 66, 75
2, 13487, Note_on_c, 0, 66, 0
2, 13488, Note_on_c, 0, 69, 75
2, 13512, Note_on_c, 0, 69, 0
2, 13512, Note_on_c, 0, 67, 75
2, 13535, Note_on_c, 0, 67, 0
2, 13536, Note_on_c, 0, 71, 75
2, 13560, Note_on_c, 0, 71, 0
2, 13560, Note_on_c, 0, 69, 75
2, 13583, Note_on_c, 0, 69, 0
2, 13584, Note_on_c, 0, 72, 75
2, 13608, Note_on_c, 0, 72, 0
2, 13608, Note_on_c, 0, 71, 75
2, 13631, Note_on_c, 0, 71, 0
2, 13632, Note_on_c, 0, 74, 75
2, 13677, Note_on_c, 0, 74, 0
2, 13680, Note_on_c, 0, 74, 75
2, 13725, Note_on_c, 0, 74, 0
2, 13728, Note_on_c, 0, 74, 75
2, 13773, Note_on_c, 0, 74, 0
2, 13776, Note_on_c, 0, 74, 75
2, 13821, Note_on_c, 0, 74, 0
2, 13824, Note_on_c, 0, 74, 75
2, 13869, Note_on_c, 0, 74, 0
2, 13872, Note_on_c, 0, 76, 75
2, 13895, Note_on_c, 0, 76, 0
2, 13896, Note_on_c, 0, 78, 77
2, 13919, Note_on_c, 0, 78, 0
2, 13920, Note_on_c, 0, 81, 80
2, 13943, Note_on_c, 0, 81, 0
2, 13944, Note_on_c, 0, 79, 78
2, 13967, Note_on_c, 0, 79, 0
2, 13968, Note_on_c, 0, 78, 77
2, 13991, Note_on_c, 0, 78, 0
2, 13992, Note_on_c, 0, 76, 76
2, 14015, Note_on_c, 0, 76, 0
2, 14016, Note_on_c, 0, 74, 75
2, 14061, Note_on_c, 0, 74, 0
2, 14064, Note_on_c, 0, 74, 75
2, 14109, Note_on_c, 0, 74, 0
2, 14112, Note_on_c, 0, 74, 75
2, 14157, Note_on_c, 0, 74, 0
2, 14160, Note_on_c, 0, 74, 75
2, 14205, Note_on_c, 0, 74, 0
2, 14208, Note_on_c, 0, 74, 75
2, 14253, Note_on_c, 0, 74, 0
2, 14256, Note_on_c, 0, 79, 75
2, 14301, Note_on_c, 0, 79, 0
2, 14304, Note_on_c, 0, 77, 75
2, 14349, Note_on_c, 0, 77, 0
2, 14352, Note_on_c, 0, 74, 75
2, 14397, Note_on_c, 0, 74, 0
2, 14400, Note_on_c, 0, 75, 75
2, 14489, Note_on_c, 0, 75, 0
2, 14496, Note_on_c, 0, 76, 75
2, 14637, Note_on_c, 0, 76, 0
2, 14640, Note_on_c, 0, 79, 75
2, 14685, Note_on_c, 0, 79, 0
2, 14688, Note_on_c, 0, 76, 75
2, 14733, Note_on_c, 0, 76, 0
2, 14736, Note_on_c, 0, 72, 75
2, 14781, Note_on_c, 0, 72, 0
2, 14784, Note_on_c, 0, 73, 75
2, 14873, Note_on_c, 0, 73, 0
2, 14880, Note_on_c, 0, 74, 75
2, 15021, Note_on_c, 0, 74, 0
2, 15024, Note_on_c, 0, 79, 75
2, 15036, Note_on_c, 0, 79, 0
2, 15036, Note_on_c, 0, 83, 75
2, 15069, Note_on_c, 0, 83, 0
2, 15072, Note_on_c, 0, 81, 75
2, 15084, Note_on_c, 0, 81, 0
2, 15084, Note_on_c, 0, 79, 75
2, 15118, Note_on_c, 0, 79, 0
2, 15120, Note_on_c, 0, 78, 75
2, 15132, Note_on_c, 0, 78, 0
2, 15132, Note_on_c, 0, 76, 75
2, 15166, Note_on_c, 0, 76, 0
2, 15168, Note_on_c, 0, 74, 75
2, 15264, Note_on_c, 0, 74, 0
2, 15264, Note_on_c, 0, 72, 75
2, 15276, Note_on_c, 0, 72, 0
2, 15276, Note_on_c, 0, 74, 75
2, 15288, Note_on_c, 0, 74, 0
2, 15288, Note_on_c, 0, 72, 75
2, 15309, Note_on_c, 0, 72, 0
2, 15312, Note_on_c, 0, 71, 75
2, 15357, Note_on_c, 0, 71, 0
2, 15360, Note_on_c, 0, 71, 75
2, 15383, Note_on_c, 0, 71, 0
2, 15384, Note_on_c, 0, 69, 76
2, 15407, Note_on_c, 0, 69, 0
2, 15408, Note_on_c, 0, 75, 77
2, 15431, Note_on_c, 0, 75, 0
2, 15432, Note_on_c, 0, 76, 78
2, 15455, Note_on_c, 0, 76, 0
2, 15456, Note_on_c, 0, 74, 80
2, 15479, Note_on_c, 0, 74, 0
2, 15480, Note_on_c, 0, 72, 78
2, 15503, Note_on_c, 0, 72, 0
2, 15504, Note_on_c, 0, 71, 77
2, 15527, Note_on_c, 0, 71, 0
2, 15528, Note_on_c, 0, 69, 76
2, 15551, Note_on_c, 0, 69, 0
2, 15552, Note_on_c, 0, 67, 75
2, 15648, Note_on_c, 0, 67, 0
2, 15648, Note_on_c, 0, 66, 75
2, 15693, Note_on_c, 0, 66, 0
2, 15696, Note_on_c, 0, 69, 75
2, 15741, Note_on_c, 0, 69, 0
2, 15744, Note_on_c, 0, 74, 75
2, 15833, Note_on_c, 0, 74, 0
2, 15840, Note_on_c, 0, 79, 75
2, 15863, Note_on_c, 0, 79, 0
2, 15864, Note_on_c, 0, 78, 75
2, 15887, Note_on_c, 0, 78, 0
2, 15888, Note_on_c, 0, 76, 75
2, 15911, Note_on_c, 0, 76, 0
2, 15912, Note_on_c, 0, 74, 75
2, 15935, Note_on_c, 0, 74, 0
2, 15936, Note_on_c, 0, 74, 75
2, 15981, Note_on_c, 0, 74, 0
2, 15984, Note_on_c, 0, 73, 75
2, 16029, Note_on_c, 0, 73, 0
2, 16080, Note_on_c, 0, 69, 75
2, 16125, Note_on_c, 0, 69, 0
2, 16128, Note_on_c, 0, 76, 75
2, 16217, Note_on_c, 0, 76, 0
2, 16224, Note_on_c, 0, 81, 75
2, 16247, Note_on_c, 0, 81, 0
2, 16248, Note_on_c, 0, 79, 75
2, 16271, Note_on_c, 0, 79, 0
2, 16272, Note_on_c, 0, 78, 75
2, 16295, Note_on_c, 0, 78, 0
2, 16296, Note_on_c, 0, 76, 75
2, 16319, Note_on_c, 0, 76, 0
2, 16320, Note_on_c, 0, 76, 75
2, 16365, Note_on_c, 0, 76, 0
2, 16368, Note_on_c, 0, 78, 75
2, 16413, Note_on_c, 0, 78, 0
2, 16464, Note_on_c, 0, 69, 75
2, 16509, Note_on_c, 0, 69, 0
2, 16512, Note_on_c, 0, 69, 75
2, 16535, Note_on_c, 0, 69, 0
2, 16536, Note_on_c, 0, 81, 75
2, 16559, Note_on_c, 0, 81, 0
2, 16560, Note_on_c, 0, 79, 75
2, 16583, Note_on_c, 0, 79, 0
2, 16584, Note_on_c, 0, 78, 75
2, 16607, Note_on_c, 0, 78, 0
2, 16608, Note_on_c, 0, 76, 75
2, 16631, Note_on_c, 0, 76, 0
2, 16632, Note_on_c, 0, 74, 75
2, 16655, Note_on_c, 0, 74, 0
2, 16656, Note_on_c, 0, 73, 75
2, 16679, Note_on_c, 0, 73, 0
2, 16680, Note_on_c, 0, 74, 75
2, 16703, Note_on_c, 0, 74, 0
2, 16704, Note_on_c, 0, 71, 75
2, 16749, Note_on_c, 0, 71, 0
2, 16752, Note_on_c, 0, 75, 76
2, 16797, Note_on_c, 0, 75, 0
2, 16800, Note_on_c, 0, 76, 77
2, 16845, Note_on_c, 0, 76, 0
2, 16848, Note_on_c, 0, 78, 78
2, 16893, Note_on_c, 0, 78, 0
2, 16920, Note_on_c, 0, 79, 79
2, 16943, Note_on_c, 0, 79, 0
2, 16944, Note_on_c, 0, 78, 78
2, 16967, Note_on_c, 0, 78, 0
2, 16968, Note_on_c, 0, 76, 78
2, 16991, Note_on_c, 0, 76, 0
2, 16992, Note_on_c, 0, 74, 77
2, 17015, Note_on_c, 0, 74, 0
2, 17016, Note_on_c, 0, 73, 76
2, 17039, Note_on_c, 0, 73, 0
2, 17040, Note_on_c, 0, 71, 76
2, 17063, Note_on_c, 0, 71, 0
2, 17064, Note_on_c, 0, 73, 75
2, 17087, Note_on_c, 0, 73, 0
2, 17088, Note_on_c, 0, 69, 75
2, 17133, Note_on_c, 0, 69, 0
2, 17136, Note_on_c, 0, 73, 76
2, 17181, Note_on_c, 0, 73, 0
2, 17184, Note_on_c, 0, 74, 77
2, 17229, Note_on_c, 0, 74, 0
2, 17232, Note_on_c, 0, 76, 78
2, 17277, Note_on_c, 0, 76, 0
2, 17304, Note_on_c, 0, 78, 79
2, 17327, Note_on_c, 0, 78, 0
2, 17328, Note_on_c, 0, 76, 78
2, 17351, Note_on_c, 0, 76, 0
2, 17352, Note_on_c, 0, 74, 78
2, 17375, Note_on_c, 0, 74, 0
2, 17376, Note_on_c, 0, 73, 77
2, 17399, Note_on_c, 0, 73, 0
2, 17400, Note_on_c, 0, 71, 76
2, 17423, Note_on_c, 0, 71, 0
2, 17424, Note_on_c, 0, 69, 76
2, 17447, Note_on_c, 0, 69, 0
2, 17448, Note_on_c, 0, 71, 75
2, 17471, Note_on_c, 0, 71, 0
2, 17472, Note_on_c, 0, 67, 75
2, 17517, Note_on_c, 0, 67, 0
2, 17520, Note_on_c, 0, 71, 75
2, 17565, Note_on_c, 0, 71, 0
2, 17568, Note_on_c, 0, 73, 76
2, 17613, Note_on_c, 0, 73, 0
2, 17616, Note_on_c, 0, 74, 77
2, 17661, Note_on_c, 0, 74, 0
2, 17688, Note_on_c, 0, 76, 80
2, 17711, Note_on_c, 0, 76, 0
2, 17712, Note_on_c, 0, 74, 79
2, 17735, Note_on_c, 0, 74, 0
2, 17736, Note_on_c, 0, 73, 78
2, 17759, Note_on_c, 0, 73, 0
2, 17760, Note_on_c, 0, 71, 77
2, 17783, Note_on_c, 0, 71, 0
2, 17784, Note_on_c, 0, 69, 77
2, 17807, Note_on_c, 0, 69, 0
2, 17808, Note_on_c, 0, 71, 76
2, 17831, Note_on_c, 0, 71, 0
2, 17832, Note_on_c, 0, 67, 75
2, 17855, Note_on_c, 0, 67, 0
2, 17856, Note_on_c, 0, 66, 75
2, 17904, Note_on_c, 0, 66, 0
2, 17904, Note_on_c, 0, 74, 75
2, 17949, Note_on_c, 0, 74, 0
2, 17952, Note_on_c, 0, 73, 75
2, 18000, Note_on_c, 0, 73, 0
2, 18000, Note_on_c, 0, 81, 75
2, 18045, Note_on_c, 0, 81, 0
2, 18048, Note_on_c, 0, 78, 75
2, 18096, Note_on_c, 0, 78, 0
2, 18096, Note_on_c, 0, 74, 75
2, 18141, Note_on_c, 0, 74, 0
2, 18144, Note_on_c, 0, 73, 75
2, 18192, Note_on_c, 0, 73, 0
2, 18192, Note_on_c, 0, 67, 75
2, 18237, Note_on_c, 0, 67, 0
2, 18240, Note_on_c, 0, 66, 75
2, 18260, Note_on_c, 0, 66, 0
2, 18288, Note_on_c, 0, 74, 75
2, 18308, Note_on_c, 0, 74, 0
2, 18336, Note_on_c, 0, 73, 75
2, 18356, Note_on_c, 0, 73, 0
2, 18384, Note_on_c, 0, 81, 75
2, 18404, Note_on_c, 0, 81, 0
2, 18432, Note_on_c, 0, 78, 75
2, 18452, Note_on_c, 0, 78, 0
2, 18480, Note_on_c, 0, 74, 75
2, 18500, Note_on_c, 0, 74, 0
2, 18528, Note_on_c, 0, 73, 75
2, 18548, Note_on_c, 0, 73, 0
2, 18576, Note_on_c, 0, 67, 75
2, 18596, Note_on_c, 0, 67, 0
2, 18624, Note_on_c, 0, 66, 75
2, 18644, Note_on_c, 0, 66, 0
2, 18672, Note_on_c, 0, 74, 75
2, 18720, Note_on_c, 0, 74, 0
2, 18720, Note_on_c, 0, 72, 75
2, 18765, Note_on_c, 0, 72, 0
2, 18768, Note_on_c, 0, 69, 75
2, 18813, Note_on_c, 0, 69, 0
2, 18816, Note_on_c, 0, 70, 75
2, 18912, Note_on_c, 0, 70, 0
2, 18912, Note_on_c, 0, 71, 75
2, 18932, Note_on_c, 0, 71, 0
2, 18960, Note_on_c, 0, 83, 75
2, 18983, Note_on_c, 0, 83, 0
2, 18984, Note_on_c, 0, 79, 75
2, 19007, Note_on_c, 0, 79, 0
2, 19008, Note_on_c, 0, 81, 75
2, 19031, Note_on_c, 0, 81, 0
2, 19032, Note_on_c, 0, 78, 75
2, 19055, Note_on_c, 0, 78, 0
2, 19056, Note_on_c, 0, 79, 75
2, 19079, Note_on_c, 0, 79, 0
2, 19080, Note_on_c, 0, 76, 75
2, 19103, Note_on_c, 0, 76, 0
2, 19104, Note_on_c, 0, 78, 75
2, 19127, Note_on_c, 0, 78, 0
2, 19128, Note_on_c, 0, 74, 75
2, 19151, Note_on_c, 0, 74, 0
2, 19152, Note_on_c, 0, 76, 75
2, 19175, Note_on_c, 0, 76, 0
2, 19176, Note_on_c, 0, 73, 75
2, 19199, Note_on_c, 0, 73, 0
2, 19200, Note_on_c, 0, 74, 75
2, 19245, Note_on_c, 0, 74, 0
2, 19248, Note_on_c, 0, 86, 75
2, 19293, Note_on_c, 0, 86, 0
2, 19296, Note_on_c, 0, 86, 75
2, 19341, Note_on_c, 0, 86, 0
2, 19344, Note_on_c, 0, 88, 75
2, 19356, Note_on_c, 0, 88, 0
2, 19356, Note_on_c, 0, 86, 75
2, 19368, Note_on_c, 0, 86, 0
2, 19368, Note_on_c, 0, 85, 75
2, 19380, Note_on_c, 0, 85, 0
2, 19380, Note_on_c, 0, 86, 75
2, 19392, Note_on_c, 0, 86, 0
2, 19392, Note_on_c, 0, 85, 75
2, 19412, Note_on_c, 0, 85, 0
2, 19440, Note_on_c, 0, 79, 75
2, 19485, Note_on_c, 0, 79, 0
2, 19488, Note_on_c, 0, 79, 75
2, 19533, Note_on_c, 0, 79, 0
2, 19536, Note_on_c, 0, 81, 75
2, 19548, Note_on_c, 0, 81, 0
2, 19548, Note_on_c, 0, 79, 75
2, 19560, Note_on_c, 0, 79, 0
2, 19560, Note_on_c, 0, 78, 75
2, 19572, Note_on_c, 0, 78, 0
2, 19572, Note_on_c, 0, 79, 75
2, 19584, Note_on_c, 0, 79, 0
2, 19584, Note_on_c, 0, 78, 75
2, 19604, Note_on_c, 0, 78, 0
2, 19632, Note_on_c, 0, 72, 75
2, 19677, Note_on_c, 0, 72, 0
2, 19680, Note_on_c, 0, 72, 75
2, 19725, Note_on_c, 0, 72, 0
2, 19728, Note_on_c, 0, 74, 75
2, 19740, Note_on_c, 0, 74, 0
2, 19740, Note_on_c, 0, 72, 75
2, 19752, Note_on_c, 0, 72, 0
2, 19752, Note_on_c, 0, 71, 75
2, 19764, Note_on_c, 0, 71, 0
2, 19764, Note_on_c, 0, 72, 75
2, 19776, Note_on_c, 0, 72, 0
2, 19776, Note_on_c, 0, 71, 75
2, 19821, Note_on_c, 0, 71, 0
2, 19824, Note_on_c, 0, 82, 75
2, 19847, Note_on_c, 0, 82, 0
2, 19848, Note_on_c, 0, 83, 75
2, 19871, Note_on_c, 0, 83, 0
2, 19872, Note_on_c, 0, 81, 75
2, 19895, Note_on_c, 0, 81, 0
2, 19896, Note_on_c, 0, 79, 75
2, 19919, Note_on_c, 0, 79, 0
2, 19920, Note_on_c, 0, 78, 75
2, 19943, Note_on_c, 0, 78, 0
2, 19944, Note_on_c, 0, 76, 75
2, 19967, Note_on_c, 0, 76, 0
2, 19968, Note_on_c, 0, 74, 75
2, 20057, Note_on_c, 0, 74, 0
2, 20064, Note_on_c, 0, 76, 75
2, 20077, Note_on_c, 0, 76, 0
2, 20078, Note_on_c, 0, 78, 75
2, 20091, Note_on_c, 0, 78, 0
2, 20092, Note_on_c, 0, 76, 75
2, 20105, Note_on_c, 0, 76, 0
2, 20106, Note_on_c, 0, 78, 75
2, 20119, Note_on_c, 0, 78, 0
2, 20120, Note_on_c, 0, 76, 75
2, 20133, Note_on_c, 0, 76, 0
2, 20134, Note_on_c, 0, 74, 75
2, 20146, Note_on_c, 0, 74, 0
2, 20147, Note_on_c, 0, 76, 75
2, 20159, Note_on_c, 0, 76, 0
2, 20160, Note_on_c, 0, 74, 75
2, 20205, Note_on_c, 0, 74, 0
2, 20208, Note_on_c, 0, 86, 75
2, 20253, Note_on_c, 0, 86, 0
2, 20256, Note_on_c, 0, 86, 75
2, 20301, Note_on_c, 0, 86, 0
2, 20304, Note_on_c, 0, 88, 75
2, 20316, Note_on_c, 0, 88, 0
2, 20316, Note_on_c, 0, 86, 75
2, 20328, Note_on_c, 0, 86, 0
2, 20328, Note_on_c, 0, 85, 75
2, 20340, Note_on_c, 0, 85, 0
2, 20340, Note_on_c, 0, 86, 75
2, 20352, Note_on_c, 0, 86, 0
2, 20352, Note_on_c, 0, 85, 75
2, 20372, Note_on_c, 0, 85, 0
2, 20400, Note_on_c, 0, 79, 75
2, 20445, Note_on_c, 0, 79, 0
2, 20448, Note_on_c, 0, 79, 75
2, 20493, Note_on_c, 0, 79, 0
2, 20496, Note_on_c, 0, 81, 75
2, 20508, Note_on_c, 0, 81, 0
2, 20508, Note_on_c, 0, 79, 75
2, 20520, Note_on_c, 0, 79, 0
2, 20520, Note_on_c, 0, 78, 75
2, 20532, Note_on_c, 0, 78, 0
2, 20532, Note_on_c, 0, 79, 75
2, 20544, Note_on_c, 0, 79, 0
2, 20544, Note_on_c, 0, 78, 75
2, 20564, Note_on_c, 0, 78, 0
2, 20592, Note_on_c, 0, 72, 75
2, 20637, Note_on_c, 0, 72, 0
2, 20640, Note_on_c, 0, 72, 75
2, 20685, Note_on_c, 0, 72, 0
2, 20688, Note_on_c, 0, 74, 75
2, 20700, Note_on_c, 0, 74, 0
2, 20700, Note_on_c, 0, 72, 75
2, 20712, Note_on_c, 0, 72, 0
2, 20712, Note_on_c, 0, 71, 75
2, 20724, Note_on_c, 0, 71, 0
2, 20724, Note_on_c, 0, 72, 75
2, 20736, Note_on_c, 0, 72, 0
2, 20736, Note_on_c, 0, 71, 75
2, 20781, Note_on_c, 0, 71, 0
2, 20784, Note_on_c, 0, 82, 75
2, 20807, Note_on_c, 0, 82, 0
2, 20808, Note_on_c, 0, 83, 75
2, 20831, Note_on_c, 0, 83, 0
2, 20832, Note_on_c, 0, 81, 75
2, 20855, Note_on_c, 0, 81, 0
2, 20856, Note_on_c, 0, 79, 75
2, 20879, Note_on_c, 0, 79, 0
2, 20880, Note_on_c, 0, 78, 75
2, 20903, Note_on_c, 0, 78, 0
2, 20904, Note_on_c, 0, 76, 75
2, 20927, Note_on_c, 0, 76, 0
2, 20928, Note_on_c, 0, 74, 75
2, 21017, Note_on_c, 0, 74, 0
2, 21024, Note_on_c, 0, 76, 75
2, 21037, Note_on_c, 0, 76, 0
2, 21038, Note_on_c, 0, 78, 75
2, 21051, Note_on_c, 0, 78, 0
2, 21052, Note_on_c, 0, 76, 75
2, 21065, Note_on_c, 0, 76, 0
2, 21066, Note_on_c, 0, 78, 75
2, 21079, Note_on_c, 0, 78, 0
2, 21080, Note_on_c, 0, 76, 75
2, 21093, Note_on_c, 0, 76, 0
2, 21094, Note_on_c, 0, 74, 75
2, 21106, Note_on_c, 0, 74, 0
2, 21107, Note_on_c, 0, 76, 75
2, 21119, Note_on_c, 0, 76, 0
2, 21120, Note_on_c, 0, 78, 75
2, 21143, Note_on_c, 0, 78, 0
2, 21144, Note_on_c, 0, 74, 75
2, 21167, Note_on_c, 0, 74, 0
2, 21168, Note_on_c, 0, 86, 75
2, 21191, Note_on_c, 0, 86, 0
2, 21192, Note_on_c, 0, 81, 75
2, 21215, Note_on_c, 0, 81, 0
2, 21216, Note_on_c, 0, 83, 75
2, 21239, Note_on_c, 0, 83, 0
2, 21240, Note_on_c, 0, 78, 75
2, 21263, Note_on_c, 0, 78, 0
2, 21264, Note_on_c, 0, 79, 75
2, 21287, Note_on_c, 0, 79, 0
2, 21288, Note_on_c, 0, 76, 75
2, 21311, Note_on_c, 0, 76, 0
2, 21312, Note_on_c, 0, 74, 75
2, 21401, Note_on_c, 0, 74, 0
2, 21408, Note_on_c, 0, 76, 75
2, 21421, Note_on_c, 0, 76, 0
2, 21422, Note_on_c, 0, 78, 75
2, 21435, Note_on_c, 0, 78, 0
2, 21436, Note_on_c, 0, 76, 75
2, 21449, Note_on_c, 0, 76, 0
2, 21450, Note_on_c, 0, 78, 75
2, 21463, Note_on_c, 0, 78, 0
2, 21464, Note_on_c, 0, 76, 75
2, 21477, Note_on_c, 0, 76, 0
2, 21478, Note_on_c, 0, 74, 75
2, 21490, Note_on_c, 0, 74, 0
2, 21491, Note_on_c, 0, 76, 75
2, 21503, Note_on_c, 0, 76, 0
2, 21504, Note_on_c, 0, 74, 75
2, 21549, Note_on_c, 0, 74, 0
2, 21600, Note_on_c, 0, 79, 75
2, 21600, Note_on_c, 0, 73, 75
2, 21620, Note_on_c, 0, 79, 0
2, 21620, Note_on_c, 0, 73, 0
2, 21696, Note_on_c, 0, 78, 75
2, 21696, Note_on_c, 0, 74, 75
2, 21716, Note_on_c, 0, 78, 0
2, 21716, Note_on_c, 0, 74, 0
2, 21792, Note_on_c, 0, 73, 75
2, 21792, Note_on_c, 0, 67, 75
2, 21812, Note_on_c, 0, 73, 0
2, 21812, Note_on_c, 0, 67, 0
2, 21888, Note_on_c, 0, 74, 75
2, 21888, Note_on_c, 0, 66, 75
2, 21977, Note_on_c, 0, 74, 0
2, 21977, Note_on_c, 0, 66, 0
2, 22032, Note_on_c, 0, 62, 75
2, 22077, Note_on_c, 0, 62, 0
2, 22080, Note_on_c, 0, 65, 80
2, 22100, Note_on_c, 0, 65, 0
2, 22128, Note_on_c, 0, 69, 80
2, 22148, Note_on_c, 0, 69, 0
2, 22176, Note_on_c, 0, 74, 80
2, 22196, Note_on_c, 0, 74, 0
2, 22224, Note_on_c, 0, 77, 80
2, 22244, Note_on_c, 0, 77, 0
2, 22272, Note_on_c, 0, 68, 80
2, 22361, Note_on_c, 0, 68, 0
2, 22416, Note_on_c, 0, 64, 80
2, 22461, Note_on_c, 0, 64, 0
2, 22464, Note_on_c, 0, 68, 80
2, 22484, Note_on_c, 0, 68, 0
2, 22512, Note_on_c, 0, 71, 80
2, 22532, Note_on_c, 0, 71, 0
2, 22560, Note_on_c, 0, 76, 80
2, 22580, Note_on_c, 0, 76, 0
2, 22608, Note_on_c, 0, 80, 80
2, 22628, Note_on_c, 0, 80, 0
2, 22656, Note_on_c, 0, 81, 80
2, 22745, Note_on_c, 0, 81, 0
2, 22800, Note_on_c, 0, 69, 80
2, 22845, Note_on_c, 0, 69, 0
2, 22848, Note_on_c, 0, 72, 80
2, 22868, Note_on_c, 0, 72, 0
2, 22896, Note_on_c, 0, 76, 80
2, 22916, Note_on_c, 0, 76, 0
2, 22944, Note_on_c, 0, 81, 80
2, 22964, Note_on_c, 0, 81, 0
2, 22992, Note_on_c, 0, 84, 80
2, 23012, Note_on_c, 0, 84, 0
2, 23040, Note_on_c, 0, 75, 80
2, 23129, Note_on_c, 0, 75, 0
2, 23184, Note_on_c, 0, 81, 80
2, 23229, Note_on_c, 0, 81, 0
2, 23232, Note_on_c, 0, 78, 80
2, 23252, Note_on_c, 0, 78, 0
2, 23280, Note_on_c, 0, 75, 80
2, 23300, Note_on_c, 0, 75, 0
2, 23328, Note_on_c, 0, 71, 80
2, 23348, Note_on_c, 0, 71, 0
2, 23376, Note_on_c, 0, 69, 80
2, 23396, Note_on_c, 0, 69, 0
2, 23424, Note_on_c, 0, 67, 80
2, 23513, Note_on_c, 0, 67, 0
2, 23568, Note_on_c, 0, 64, 80
2, 23613, Note_on_c, 0, 64, 0
2, 23616, Note_on_c, 0, 67, 80
2, 23636, Note_on_c, 0, 67, 0
2, 23664, Note_on_c, 0, 71, 80
2, 23684, Note_on_c, 0, 71, 0
2, 23712, Note_on_c, 0, 76, 80
2, 23732, Note_on_c, 0, 76, 0
2, 23760, Note_on_c, 0, 79, 80
2, 23780, Note_on_c, 0, 79, 0
2, 23808, Note_on_c, 0, 78, 80
2, 23897, Note_on_c, 0, 78, 0
2, 23952, Note_on_c, 0, 66, 80
2, 23997, Note_on_c, 0, 66, 0
2, 24000, Note_on_c, 0, 69, 80
2, 24020, Note_on_c, 0, 69, 0
2, 24048, Note_on_c, 0, 75, 80
2, 24068, Note_on_c, 0, 75, 0
2, 24096, Note_on_c, 0, 78, 80
2, 24116, Note_on_c, 0, 78, 0
2, 24144, Note_on_c, 0, 81, 80
2, 24164, Note_on_c, 0, 81, 0
2, 24192, Note_on_c, 0, 79, 80
2, 24281, Note_on_c, 0, 79, 0
2, 24336, Note_on_c, 0, 64, 80
2, 24381, Note_on_c, 0, 64, 0
2, 24384, Note_on_c, 0, 67, 80
2, 24404, Note_on_c, 0, 67, 0
2, 24432, Note_on_c, 0, 71, 80
2, 24452, Note_on_c, 0, 71, 0
2, 24480, Note_on_c, 0, 76, 80
2, 24500, Note_on_c, 0, 76, 0
2, 24528, Note_on_c, 0, 79, 80
2, 24548, Note_on_c, 0, 79, 0
2, 24576, Note_on_c, 0, 70, 80
2, 24665, Note_on_c, 0, 70, 0
2, 24720, Note_on_c, 0, 79, 80
2, 24740, Note_on_c, 0, 79, 0
2, 24768, Note_on_c, 0, 78, 80
2, 24780, Note_on_c, 0, 78, 0
2, 24780, Note_on_c, 0, 79, 80
2, 24792, Note_on_c, 0, 79, 0
2, 24792, Note_on_c, 0, 78, 80
2, 24804, Note_on_c, 0, 78, 0
2, 24804, Note_on_c, 0, 79, 80
2, 24813, Note_on_c, 0, 79, 0
2, 24816, Note_on_c, 0, 76, 80
2, 24861, Note_on_c, 0, 76, 0
2, 24864, Note_on_c, 0, 75, 80
2, 24909, Note_on_c, 0, 75, 0
2, 24912, Note_on_c, 0, 76, 80
2, 24957, Note_on_c, 0, 76, 0
2, 24960, Note_on_c, 0, 75, 80
2, 24980, Note_on_c, 0, 75, 0
2, 25008, Note_on_c, 0, 84, 80
2, 25053, Note_on_c, 0, 84, 0
2, 25056, Note_on_c, 0, 83, 80
2, 25068, Note_on_c, 0, 83, 0
2, 25068, Note_on_c, 0, 84, 80
2, 25080, Note_on_c, 0, 84, 0
2, 25080, Note_on_c, 0, 83, 80
2, 25092, Note_on_c, 0, 83, 0
2, 25092, Note_on_c, 0, 84, 80
2, 25101, Note_on_c, 0, 84, 0
2, 25104, Note_on_c, 0, 81, 80
2, 25149, Note_on_c, 0, 81, 0
2, 25152, Note_on_c, 0, 80, 80
2, 25164, Note_on_c, 0, 80, 0
2, 25164, Note_on_c, 0, 81, 80
2, 25176, Note_on_c, 0, 81, 0
2, 25176, Note_on_c, 0, 80, 80
2, 25188, Note_on_c, 0, 80, 0
2, 25188, Note_on_c, 0, 81, 80
2, 25197, Note_on_c, 0, 81, 0
2, 25200, Note_on_c, 0, 77, 80
2, 25245, Note_on_c, 0, 77, 0
2, 25248, Note_on_c, 0, 76, 80
2, 25293, Note_on_c, 0, 76, 0
2, 25296, Note_on_c, 0, 74, 80
2, 25341, Note_on_c, 0, 74, 0
2, 25344, Note_on_c, 0, 73, 80
2, 25364, Note_on_c, 0, 73, 0
2, 25392, Note_on_c, 0, 82, 80
2, 25437, Note_on_c, 0, 82, 0
2, 25440, Note_on_c, 0, 82, 80
2, 25452, Note_on_c, 0, 82, 0
2, 25452, Note_on_c, 0, 81, 80
2, 25464, Note_on_c, 0, 81, 0
2, 25464, Note_on_c, 0, 82, 80
2, 25476, Note_on_c, 0, 82, 0
2, 25476, Note_on_c, 0, 81, 80
2, 25488, Note_on_c, 0, 81, 0
2, 25488, Note_on_c, 0, 79, 80
2, 25533, Note_on_c, 0, 79, 0
2, 25536, Note_on_c, 0, 78, 80
2, 25556, Note_on_c, 0, 78, 0
2, 25584, Note_on_c, 0, 81, 80
2, 25604, Note_on_c, 0, 81, 0
2, 25632, Note_on_c, 0, 86, 80
2, 25652, Note_on_c, 0, 86, 0
2, 25680, Note_on_c, 0, 78, 80
2, 25700, Note_on_c, 0, 78, 0
2, 25728, Note_on_c, 0, 79, 80
2, 25748, Note_on_c, 0, 79, 0
2, 25776, Note_on_c, 0, 83, 80
2, 25796, Note_on_c, 0, 83, 0
2, 25824, Note_on_c, 0, 86, 80
2, 25844, Note_on_c, 0, 86, 0
2, 25872, Note_on_c, 0, 79, 80
2, 25892, Note_on_c, 0, 79, 0
2, 25920, Note_on_c, 0, 78, 80
2, 25940, Note_on_c, 0, 78, 0
2, 25968, Note_on_c, 0, 81, 80
2, 25988, Note_on_c, 0, 81, 0
2, 26016, Note_on_c, 0, 86, 80
2, 26036, Note_on_c, 0, 86, 0
2, 26064, Note_on_c, 0, 78, 80
2, 26084, Note_on_c, 0, 78, 0
2, 26112, Note_on_c, 0, 79, 80
2, 26132, Note_on_c, 0, 79, 0
2, 26160, Note_on_c, 0, 82, 80
2, 26180, Note_on_c, 0, 82, 0
2, 26208, Note_on_c, 0, 86, 80
2, 26228, Note_on_c, 0, 86, 0
2, 26256, Note_on_c, 0, 74, 80
2, 26304, Note_on_c, 0, 74, 0
2, 26304, Note_on_c, 0, 75, 80
2, 26349, Note_on_c, 0, 75, 0
2, 26352, Note_on_c, 0, 86, 80
2, 26400, Note_on_c, 0, 86, 0
2, 26400, Note_on_c, 0, 84, 80
2, 26445, Note_on_c, 0, 84, 0
2, 26448, Note_on_c, 0, 75, 80
2, 26496, Note_on_c, 0, 75, 0
2, 26496, Note_on_c, 0, 74, 80
2, 26541, Note_on_c, 0, 74, 0
2, 26544, Note_on_c, 0, 84, 80
2, 26592, Note_on_c, 0, 84, 0
2, 26592, Note_on_c, 0, 82, 80
2, 26637, Note_on_c, 0, 82, 0
2, 26640, Note_on_c, 0, 74, 80
2, 26688, Note_on_c, 0, 74, 0
2, 26688, Note_on_c, 0, 72, 80
2, 26733, Note_on_c, 0, 72, 0
2, 26736, Note_on_c, 0, 82, 80
2, 26784, Note_on_c, 0, 82, 0
2, 26784, Note_on_c, 0, 81, 80
2, 26829, Note_on_c, 0, 81, 0
2, 26832, Note_on_c, 0, 72, 80
2, 26880, Note_on_c, 0, 72, 0
2, 26880, Note_on_c, 0, 70, 80
2, 26925, Note_on_c, 0, 70, 0
2, 26928, Note_on_c, 0, 79, 80
2, 26973, Note_on_c, 0, 79, 0
2, 26976, Note_on_c, 0, 69, 80
2, 27021, Note_on_c, 0, 69, 0
2, 27024, Note_on_c, 0, 79, 80
2, 27069, Note_on_c, 0, 79, 0
2, 27072, Note_on_c, 0, 67, 80
2, 27117, Note_on_c, 0, 67, 0
2, 27120, Note_on_c, 0, 82, 80
2, 27165, Note_on_c, 0, 82, 0
2, 27168, Note_on_c, 0, 82, 80
2, 27180, Note_on_c, 0, 82, 0
2, 27180, Note_on_c, 0, 81, 80
2, 27192, Note_on_c, 0, 81, 0
2, 27192, Note_on_c, 0, 82, 80
2, 27204, Note_on_c, 0, 82, 0
2, 27204, Note_on_c, 0, 81, 80
2, 27216, Note_on_c, 0, 81, 0
2, 27216, Note_on_c, 0, 79, 80
2, 27261, Note_on_c, 0, 79, 0
2, 27264, Note_on_c, 0, 78, 80
2, 27309, Note_on_c, 0, 78, 0
2, 27312, Note_on_c, 0, 81, 80
2, 27357, Note_on_c, 0, 81, 0
2, 27360, Note_on_c, 0, 84, 80
2, 27383, Note_on_c, 0, 84, 0
2, 27384, Note_on_c, 0, 81, 80
2, 27407, Note_on_c, 0, 81, 0
2, 27408, Note_on_c, 0, 78, 80
2, 27431, Note_on_c, 0, 78, 0
2, 27432, Note_on_c, 0, 74, 80
2, 27455, Note_on_c, 0, 74, 0
2, 27456, Note_on_c, 0, 72, 80
2, 27456, Note_on_c, 0, 69, 80
2, 27693, Note_on_c, 0, 72, 0
2, 27693, Note_on_c, 0, 69, 0
2, 27696, Note_on_c, 0, 71, 80
2, 27719, Note_on_c, 0, 71, 0
2, 27720, Note_on_c, 0, 72, 80
2, 27743, Note_on_c, 0, 72, 0
2, 27744, Note_on_c, 0, 74, 80
2, 27767, Note_on_c, 0, 74, 0
2, 27768, Note_on_c, 0, 72, 78
2, 27791, Note_on_c, 0, 72, 0
2, 27792, Note_on_c, 0, 71, 77
2, 27815, Note_on_c, 0, 71, 0
2, 27816, Note_on_c, 0, 69, 76
2, 27839, Note_on_c, 0, 69, 0
2, 27840, Note_on_c, 0, 67, 75
2, 27864, Note_on_c, 0, 67, 0
2, 27864, Note_on_c, 0, 66, 75
2, 27887, Note_on_c, 0, 66, 0
2, 27888, Note_on_c, 0, 69, 75
2, 27912, Note_on_c, 0, 69, 0
2, 27912, Note_on_c, 0, 67, 75
2, 27935, Note_on_c, 0, 67, 0
2, 27936, Note_on_c, 0, 71, 75
2, 27960, Note_on_c, 0, 71, 0
2, 27960, Note_on_c, 0, 69, 75
2, 27983, Note_on_c, 0, 69, 0
2, 27984, Note_on_c, 0, 72, 75
2, 28008, Note_on_c, 0, 72, 0
2, 28008, Note_on_c, 0, 71, 75
2, 28031, Note_on_c, 0, 71, 0
2, 28032, Note_on_c, 0, 74, 75
2, 28077, Note_on_c, 0, 74, 0
2, 28080, Note_on_c, 0, 74, 75
2, 28125, Note_on_c, 0, 74, 0
2, 28128, Note_on_c, 0, 74, 75
2, 28173, Note_on_c, 0, 74, 0
2, 28176, Note_on_c, 0, 74, 75
2, 28221, Note_on_c, 0, 74, 0
2, 28224, Note_on_c, 0, 74, 75
2, 28269, Note_on_c, 0, 74, 0
2, 28272, Note_on_c, 0, 76, 77
2, 28295, Note_on_c, 0, 76, 0
2, 28296, Note_on_c, 0, 78, 78
2, 28319, Note_on_c, 0, 78, 0
2, 28320, Note_on_c, 0, 81, 80
2, 28343, Note_on_c, 0, 81, 0
2, 28344, Note_on_c, 0, 79, 78
2, 28367, Note_on_c, 0, 79, 0
2, 28368, Note_on_c, 0, 78, 77
2, 28391, Note_on_c, 0, 78, 0
2, 28392, Note_on_c, 0, 76, 76
2, 28415, Note_on_c, 0, 76, 0
2, 28416, Note_on_c, 0, 74, 75
2, 28461, Note_on_c, 0, 74, 0
2, 28464, Note_on_c, 0, 74, 75
2, 28509, Note_on_c, 0, 74, 0
2, 28512, Note_on_c, 0, 74, 75
2, 28557, Note_on_c, 0, 74, 0
2, 28560, Note_on_c, 0, 74, 75
2, 28605, Note_on_c, 0, 74, 0
2, 28608, Note_on_c, 0, 74, 75
2, 28653, Note_on_c, 0, 74, 0
2, 28656, Note_on_c, 0, 76, 75
2, 28679, Note_on_c, 0, 76, 0
2, 28680, Note_on_c, 0, 78, 75
2, 28703, Note_on_c, 0, 78, 0
2, 28704, Note_on_c, 0, 81, 75
2, 28727, Note_on_c, 0, 81, 0
2, 28728, Note_on_c, 0, 79, 75
2, 28751, Note_on_c, 0, 79, 0
2, 28752, Note_on_c, 0, 78, 75
2, 28775, Note_on_c, 0, 78, 0
2, 28776, Note_on_c, 0, 76, 75
2, 28799, Note_on_c, 0, 76, 0
2, 28800, Note_on_c, 0, 74, 75
2, 28845, Note_on_c, 0, 74, 0
2, 28848, Note_on_c, 0, 79, 75
2, 28871, Note_on_c, 0, 79, 0
2, 28872, Note_on_c, 0, 83, 75
2, 28895, Note_on_c, 0, 83, 0
2, 28896, Note_on_c, 0, 81, 75
2, 28919, Note_on_c, 0, 81, 0
2, 28920, Note_on_c, 0, 79, 75
2, 28943, Note_on_c, 0, 79, 0
2, 28944, Note_on_c, 0, 78, 75
2, 28967, Note_on_c, 0, 78, 0
2, 28968, Note_on_c, 0, 76, 75
2, 28991, Note_on_c, 0, 76, 0
2, 28992, Note_on_c, 0, 74, 75
2, 29081, Note_on_c, 0, 74, 0
2, 29088, Note_on_c, 0, 72, 75
2, 29101, Note_on_c, 0, 72, 0
2, 29102, Note_on_c, 0, 74, 75
2, 29115, Note_on_c, 0, 74, 0
2, 29116, Note_on_c, 0, 72, 75
2, 29129, Note_on_c, 0, 72, 0
2, 29130, Note_on_c, 0, 74, 75
2, 29143, Note_on_c, 0, 74, 0
2, 29144, Note_on_c, 0, 72, 75
2, 29157, Note_on_c, 0, 72, 0
2, 29158, Note_on_c, 0, 71, 75
2, 29170, Note_on_c, 0, 71, 0
2, 29171, Note_on_c, 0, 72, 75
2, 29183, Note_on_c, 0, 72, 0
2, 29184, Note_on_c, 0, 71, 75
2, 29273, Note_on_c, 0, 71, 0
2, 29328, Note_on_c, 0, 67, 80
2, 29373, Note_on_c, 0, 67, 0
2, 29376, Note_on_c, 0, 66, 80
2, 29388, Note_on_c, 0, 66, 0
2, 29388, Note_on_c, 0, 67, 80
2, 29400, Note_on_c, 0, 67, 0
2, 29400, Note_on_c, 0, 66, 80
2, 29421, Note_on_c, 0, 66, 0
2, 29424, Note_on_c, 0, 64, 80
2, 29469, Note_on_c, 0, 64, 0
2, 29472, Note_on_c, 0, 62, 80
2, 29484, Note_on_c, 0, 62, 0
2, 29484, Note_on_c, 0, 64, 80
2, 29496, Note_on_c, 0, 64, 0
2, 29496, Note_on_c, 0, 62, 80
2, 29517, Note_on_c, 0, 62, 0
2, 29520, Note_on_c, 0, 60, 80
2, 29565, Note_on_c, 0, 60, 0
2, 29568, Note_on_c, 0, 59, 80
2, 29657, Note_on_c, 0, 59, 0
2, 29712, Note_on_c, 0, 64, 80
2, 29727, Note_on_c, 0, 64, 0
2, 29728, Note_on_c, 0, 66, 80
2, 29743, Note_on_c, 0, 66, 0
2, 29744, Note_on_c, 0, 64, 80
2, 29759, Note_on_c, 0, 64, 0
2, 29760, Note_on_c, 0, 62, 80
2, 29775, Note_on_c, 0, 62, 0
2, 29776, Note_on_c, 0, 64, 80
2, 29791, Note_on_c, 0, 64, 0
2, 29792, Note_on_c, 0, 62, 80
2, 29807, Note_on_c, 0, 62, 0
2, 29808, Note_on_c, 0, 60, 80
2, 29823, Note_on_c, 0, 60, 0
2, 29824, Note_on_c, 0, 62, 80
2, 29839, Note_on_c, 0, 62, 0
2, 29840, Note_on_c, 0, 60, 80
2, 29855, Note_on_c, 0, 60, 0
2, 29856, Note_on_c, 0, 59, 80
2, 29871, Note_on_c, 0, 59, 0
2, 29872, Note_on_c, 0, 60, 80
2, 29887, Note_on_c, 0, 60, 0
2, 29888, Note_on_c, 0, 59, 80
2, 29903, Note_on_c, 0, 59, 0
2, 29904, Note_on_c, 0, 57, 80
2, 29919, Note_on_c, 0, 57, 0
2, 29920, Note_on_c, 0, 59, 80
2, 29935, Note_on_c, 0, 59, 0
2, 29936, Note_on_c, 0, 57, 80
2, 29951, Note_on_c, 0, 57, 0
2, 29952, Note_on_c, 0, 56, 80
2, 29972, Note_on_c, 0, 56, 0
2, 30000, Note_on_c, 0, 59, 80
2, 30020, Note_on_c, 0, 59, 0
2, 30048, Note_on_c, 0, 62, 80
2, 30068, Note_on_c, 0, 62, 0
2, 30096, Note_on_c, 0, 68, 80
2, 30116, Note_on_c, 0, 68, 0
2, 30144, Note_on_c, 0, 71, 80
2, 30164, Note_on_c, 0, 71, 0
2, 30192, Note_on_c, 0, 74, 80
2, 30212, Note_on_c, 0, 74, 0
2, 30240, Note_on_c, 0, 83, 80
2, 30307, Note_on_c, 0, 83, 0
2, 30312, Note_on_c, 0, 74, 80
2, 30335, Note_on_c, 0, 74, 0
2, 30336, Note_on_c, 0, 74, 80
2, 30359, Note_on_c, 0, 74, 0
2, 30360, Note_on_c, 0, 72, 80
2, 30383, Note_on_c, 0, 72, 0
2, 30384, Note_on_c, 0, 71, 80
2, 30407, Note_on_c, 0, 71, 0
2, 30408, Note_on_c, 0, 69, 80
2, 30431, Note_on_c, 0, 69, 0
2, 30432, Note_on_c, 0, 69, 80
2, 30477, Note_on_c, 0, 69, 0
2, 30480, Note_on_c, 0, 69, 80
2, 30525, Note_on_c, 0, 69, 0
2, 30528, Note_on_c, 0, 81, 80
2, 30528, Note_on_c, 0, 72, 80
2, 30661, Note_on_c, 0, 81, 0
2, 30661, Note_on_c, 0, 72, 0
2, 30672, Note_on_c, 0, 72, 80
2, 30717, Note_on_c, 0, 72, 0
2, 30720, Note_on_c, 0, 72, 80
2, 30743, Note_on_c, 0, 72, 0
2, 30744, Note_on_c, 0, 71, 80
2, 30767, Note_on_c, 0, 71, 0
2, 30768, Note_on_c, 0, 69, 80
2, 30791, Note_on_c, 0, 69, 0
2, 30792, Note_on_c, 0, 67, 80
2, 30815, Note_on_c, 0, 67, 0
2, 30816, Note_on_c, 0, 67, 80
2, 30836, Note_on_c, 0, 67, 0
2, 30864, Note_on_c, 0, 74, 80
2, 30884, Note_on_c, 0, 74, 0
2, 30912, Note_on_c, 0, 74, 80
2, 30935, Note_on_c, 0, 74, 0
2, 30936, Note_on_c, 0, 72, 80
2, 30959, Note_on_c, 0, 72, 0
2, 30960, Note_on_c, 0, 71, 80
2, 30983, Note_on_c, 0, 71, 0
2, 30984, Note_on_c, 0, 69, 80
2, 31007, Note_on_c, 0, 69, 0
2, 31008, Note_on_c, 0, 69, 80
2, 31028, Note_on_c, 0, 69, 0
2, 31056, Note_on_c, 0, 72, 80
2, 31076, Note_on_c, 0, 72, 0
2, 31104, Note_on_c, 0, 72, 80
2, 31127, Note_on_c, 0, 72, 0
2, 31128, Note_on_c, 0, 71, 80
2, 31151, Note_on_c, 0, 71, 0
2, 31152, Note_on_c, 0, 69, 80
2, 31175, Note_on_c, 0, 69, 0
2, 31176, Note_on_c, 0, 67, 80
2, 31199, Note_on_c, 0, 67, 0
2, 31200, Note_on_c, 0, 67, 80
2, 31220, Note_on_c, 0, 67, 0
2, 31248, Note_on_c, 0, 79, 80
2, 31293, Note_on_c, 0, 79, 0
2, 31296, Note_on_c, 0, 78, 80
2, 31319, Note_on_c, 0, 78, 0
2, 31320, Note_on_c, 0, 76, 80
2, 31343, Note_on_c, 0, 76, 0
2, 31344, Note_on_c, 0, 74, 80
2, 31367, Note_on_c, 0, 74, 0
2, 31368, Note_on_c, 0, 72, 80
2, 31391, Note_on_c, 0, 72, 0
2, 31392, Note_on_c, 0, 71, 80
2, 31415, Note_on_c, 0, 71, 0
2, 31416, Note_on_c, 0, 69, 80
2, 31439, Note_on_c, 0, 69, 0
2, 31440, Note_on_c, 0, 72, 80
2, 31463, Note_on_c, 0, 72, 0
2, 31464, Note_on_c, 0, 69, 80
2, 31487, Note_on_c, 0, 69, 0
2, 31488, Note_on_c, 0, 67, 80
2, 31584, Note_on_c, 0, 67, 0
2, 31584, Note_on_c, 0, 66, 80
2, 31629, Note_on_c, 0, 66, 0
2, 31632, Note_on_c, 0, 62, 75
2, 31677, Note_on_c, 0, 62, 0
2, 31680, Note_on_c, 0, 67, 75
2, 31769, Note_on_c, 0, 67, 0
2, 31776, Note_on_c, 0, 72, 75
2, 31799, Note_on_c, 0, 72, 0
2, 31800, Note_on_c, 0, 71, 75
2, 31823, Note_on_c, 0, 71, 0
2, 31824, Note_on_c, 0, 69, 75
2, 31847, Note_on_c, 0, 69, 0
2, 31848, Note_on_c, 0, 67, 75
2, 31871, Note_on_c, 0, 67, 0
2, 31872, Note_on_c, 0, 67, 75
2, 31917, Note_on_c, 0, 67, 0
2, 31920, Note_on_c, 0, 66, 75
2, 31965, Note_on_c, 0, 66, 0
2, 32016, Note_on_c, 0, 62, 75
2, 32061, Note_on_c, 0, 62, 0
2, 32064, Note_on_c, 0, 69, 75
2, 32153, Note_on_c, 0, 69, 0
2, 32160, Note_on_c, 0, 74, 75
2, 32183, Note_on_c, 0, 74, 0
2, 32184, Note_on_c, 0, 72, 75
2, 32207, Note_on_c, 0, 72, 0
2, 32208, Note_on_c, 0, 71, 75
2, 32231, Note_on_c, 0, 71, 0
2, 32232, Note_on_c, 0, 69, 75
2, 32255, Note_on_c, 0, 69, 0
2, 32256, Note_on_c, 0, 69, 75
2, 32301, Note_on_c, 0, 69, 0
2, 32304, Note_on_c, 0, 71, 75
2, 32349, Note_on_c, 0, 71, 0
2, 32400, Note_on_c, 0, 74, 75
2, 32445, Note_on_c, 0, 74, 0
2, 32448, Note_on_c, 0, 79, 75
2, 32537, Note_on_c, 0, 79, 0
2, 32544, Note_on_c, 0, 84, 75
2, 32567, Note_on_c, 0, 84, 0
2, 32568, Note_on_c, 0, 83, 75
2, 32591, Note_on_c, 0, 83, 0
2, 32592, Note_on_c, 0, 81, 75
2, 32615, Note_on_c, 0, 81, 0
2, 32616, Note_on_c, 0, 79, 75
2, 32639, Note_on_c, 0, 79, 0
2, 32640, Note_on_c, 0, 79, 75
2, 32685, Note_on_c, 0, 79, 0
2, 32688, Note_on_c, 0, 78, 75
2, 32733, Note_on_c, 0, 78, 0
2, 32784, Note_on_c, 0, 74, 75
2, 32829, Note_on_c, 0, 74, 0
2, 32832, Note_on_c, 0, 81, 75
2, 32921, Note_on_c, 0, 81, 0
2, 32928, Note_on_c, 0, 86, 75
2, 32951, Note_on_c, 0, 86, 0
2, 32952, Note_on_c, 0, 84, 75
2, 32975, Note_on_c, 0, 84, 0
2, 32976, Note_on_c, 0, 83, 75
2, 32999, Note_on_c, 0, 83, 0
2, 33000, Note_on_c, 0, 81, 75
2, 33023, Note_on_c, 0, 81, 0
2, 33024, Note_on_c, 0, 81, 75
2, 33069, Note_on_c, 0, 81, 0
2, 33072, Note_on_c, 0, 83, 75
2, 33117, Note_on_c, 0, 83, 0
2, 33168, Note_on_c, 0, 74, 75
2, 33213, Note_on_c, 0, 74, 0
2, 33216, Note_on_c, 0, 74, 75
2, 33239, Note_on_c, 0, 74, 0
2, 33240, Note_on_c, 0, 86, 75
2, 33263, Note_on_c, 0, 86, 0
2, 33264, Note_on_c, 0, 84, 75
2, 33287, Note_on_c, 0, 84, 0
2, 33288, Note_on_c, 0, 83, 75
2, 33311, Note_on_c, 0, 83, 0
2, 33312, Note_on_c, 0, 81, 75
2, 33335, Note_on_c, 0, 81, 0
2, 33336, Note_on_c, 0, 79, 75
2, 33359, Note_on_c, 0, 79, 0
2, 33360, Note_on_c, 0, 78, 75
2, 33383, Note_on_c, 0, 78, 0
2, 33384, Note_on_c, 0, 79, 75
2, 33407, Note_on_c, 0, 79, 0
2, 33408, Note_on_c, 0, 76, 75
2, 33453, Note_on_c, 0, 76, 0
2, 33456, Note_on_c, 0, 80, 76
2, 33501, Note_on_c, 0, 80, 0
2, 33504, Note_on_c, 0, 81, 77
2, 33549, Note_on_c, 0, 81, 0
2, 33552, Note_on_c, 0, 83, 78
2, 33597, Note_on_c, 0, 83, 0
2, 33624, Note_on_c, 0, 84, 79
2, 33647, Note_on_c, 0, 84, 0
2, 33648, Note_on_c, 0, 83, 78
2, 33671, Note_on_c, 0, 83, 0
2, 33672, Note_on_c, 0, 81, 78
2, 33695, Note_on_c, 0, 81, 0
2, 33696, Note_on_c, 0, 79, 77
2, 33719, Note_on_c, 0, 79, 0
2, 33720, Note_on_c, 0, 78, 76
2, 33743, Note_on_c, 0, 78, 0
2, 33744, Note_on_c, 0, 76, 76
2, 33767, Note_on_c, 0, 76, 0
2, 33768, Note_on_c, 0, 78, 75
2, 33791, Note_on_c, 0, 78, 0
2, 33792, Note_on_c, 0, 74, 75
2, 33837, Note_on_c, 0, 74, 0
2, 33840, Note_on_c, 0, 78, 76
2, 33885, Note_on_c, 0, 78, 0
2, 33888, Note_on_c, 0, 79, 77
2, 33933, Note_on_c, 0, 79, 0
2, 33936, Note_on_c, 0, 81, 78
2, 33981, Note_on_c, 0, 81, 0
2, 34008, Note_on_c, 0, 83, 79
2, 34031, Note_on_c, 0, 83, 0
2, 34032, Note_on_c, 0, 81, 78
2, 34055, Note_on_c, 0, 81, 0
2, 34056, Note_on_c, 0, 79, 78
2, 34079, Note_on_c, 0, 79, 0
2, 34080, Note_on_c, 0, 78, 77
2, 34103, Note_on_c, 0, 78, 0
2, 34104, Note_on_c, 0, 76, 76
2, 34127, Note_on_c, 0, 76, 0
2, 34128, Note_on_c, 0, 74, 76
2, 34151, Note_on_c, 0, 74, 0
2, 34152, Note_on_c, 0, 76, 75
2, 34175, Note_on_c, 0, 76, 0
2, 34176, Note_on_c, 0, 72, 75
2, 34221, Note_on_c, 0, 72, 0
2, 34224, Note_on_c, 0, 76, 76
2, 34269, Note_on_c, 0, 76, 0
2, 34272, Note_on_c, 0, 78, 77
2, 34317, Note_on_c, 0, 78, 0
2, 34320, Note_on_c, 0, 79, 78
2, 34365, Note_on_c, 0, 79, 0
2, 34392, Note_on_c, 0, 81, 79
2, 34415, Note_on_c, 0, 81, 0
2, 34416, Note_on_c, 0, 79, 78
2, 34439, Note_on_c, 0, 79, 0
2, 34440, Note_on_c, 0, 78, 78
2, 34463, Note_on_c, 0, 78, 0
2, 34464, Note_on_c, 0, 76, 77
2, 34487, Note_on_c, 0, 76, 0
2, 34488, Note_on_c, 0, 74, 76
2, 34511, Note_on_c, 0, 74, 0
2, 34512, Note_on_c, 0, 76, 76
2, 34535, Note_on_c, 0, 76, 0
2, 34536, Note_on_c, 0, 72, 75
2, 34559, Note_on_c, 0, 72, 0
2, 34560, Note_on_c, 0, 71, 75
2, 34605, Note_on_c, 0, 71, 0
2, 34608, Note_on_c, 0, 79, 75
2, 34653, Note_on_c, 0, 79, 0
2, 34656, Note_on_c, 0, 78, 75
2, 34701, Note_on_c, 0, 78, 0
2, 34704, Note_on_c, 0, 86, 75
2, 34749, Note_on_c, 0, 86, 0
2, 34752, Note_on_c, 0, 83, 75
2, 34797, Note_on_c, 0, 83, 0
2, 34800, Note_on_c, 0, 79, 75
2, 34845, Note_on_c, 0, 79, 0
2, 34848, Note_on_c, 0, 78, 75
2, 34893, Note_on_c, 0, 78, 0
2, 34896, Note_on_c, 0, 72, 75
2, 34941, Note_on_c, 0, 72, 0
2, 34944, Note_on_c, 0, 71, 75
2, 34989, Note_on_c, 0, 71, 0
2, 34992, Note_on_c, 0, 79, 75
2, 35007, Note_on_c, 0, 79, 0
2, 35008, Note_on_c, 0, 81, 75
2, 35023, Note_on_c, 0, 81, 0
2, 35024, Note_on_c, 0, 79, 75
2, 35039, Note_on_c, 0, 79, 0
2, 35040, Note_on_c, 0, 78, 75
2, 35085, Note_on_c, 0, 78, 0
2, 35088, Note_on_c, 0, 86, 75
2, 35133, Note_on_c, 0, 86, 0
2, 35136, Note_on_c, 0, 83, 75
2, 35181, Note_on_c, 0, 83, 0
2, 35184, Note_on_c, 0, 79, 75
2, 35229, Note_on_c, 0, 79, 0
2, 35232, Note_on_c, 0, 78, 75
2, 35277, Note_on_c, 0, 78, 0
2, 35280, Note_on_c, 0, 72, 75
2, 35325, Note_on_c, 0, 72, 0
2, 35328, Note_on_c, 0, 71, 75
2, 35373, Note_on_c, 0, 71, 0
2, 35376, Note_on_c, 0, 79, 75
2, 35421, Note_on_c, 0, 79, 0
2, 35424, Note_on_c, 0, 77, 75
2, 35469, Note_on_c, 0, 77, 0
2, 35472, Note_on_c, 0, 74, 75
2, 35517, Note_on_c, 0, 74, 0
2, 35520, Note_on_c, 0, 75, 75
2, 35616, Note_on_c, 0, 75, 0
2, 35616, Note_on_c, 0, 76, 75
2, 35636, Note_on_c, 0, 76, 0
2, 35664, Note_on_c, 0, 76, 75
2, 35687, Note_on_c, 0, 76, 0
2, 35688, Note_on_c, 0, 72, 75
2, 35711, Note_on_c, 0, 72, 0
2, 35712, Note_on_c, 0, 74, 75
2, 35735, Note_on_c, 0, 74, 0
2, 35736, Note_on_c, 0, 71, 75
2, 35759, Note_on_c, 0, 71, 0
2, 35760, Note_on_c, 0, 72, 75
2, 35783, Note_on_c, 0, 72, 0
2, 35784, Note_on_c, 0, 69, 75
2, 35807, Note_on_c, 0, 69, 0
2, 35808, Note_on_c, 0, 71, 75
2, 35831, Note_on_c, 0, 71, 0
2, 35832, Note_on_c, 0, 67, 75
2, 35855, Note_on_c, 0, 67, 0
2, 35856, Note_on_c, 0, 69, 75
2, 35879, Note_on_c, 0, 69, 0
2, 35880, Note_on_c, 0, 66, 75
2, 35903, Note_on_c, 0, 66, 0
2, 35904, Note_on_c, 0, 67, 75
2, 35949, Note_on_c, 0, 67, 0
2, 35952, Note_on_c, 0, 79, 75
2, 35997, Note_on_c, 0, 79, 0
2, 36000, Note_on_c, 0, 79, 75
2, 36045, Note_on_c, 0, 79, 0
2, 36048, Note_on_c, 0, 81, 75
2, 36060, Note_on_c, 0, 81, 0
2, 36060, Note_on_c, 0, 79, 75
2, 36072, Note_on_c, 0, 79, 0
2, 36072, Note_on_c, 0, 78, 75
2, 36084, Note_on_c, 0, 78, 0
2, 36084, Note_on_c, 0, 79, 75
2, 36096, Note_on_c, 0, 79, 0
2, 36096, Note_on_c, 0, 78, 75
2, 36116, Note_on_c, 0, 78, 0
2, 36144, Note_on_c, 0, 72, 75
2, 36189, Note_on_c, 0, 72, 0
2, 36192, Note_on_c, 0, 72, 75
2, 36237, Note_on_c, 0, 72, 0
2, 36240, Note_on_c, 0, 74, 75
2, 36252, Note_on_c, 0, 74, 0
2, 36252, Note_on_c, 0, 72, 75
2, 36264, Note_on_c, 0, 72, 0
2, 36264, Note_on_c, 0, 71, 75
2, 36276, Note_on_c, 0, 71, 0
2, 36276, Note_on_c, 0, 72, 75
2, 36288, Note_on_c, 0, 72, 0
2, 36288, Note_on_c, 0, 71, 75
2, 36308, Note_on_c, 0, 71, 0
2, 36336, Note_on_c, 0, 65, 75
2, 36381, Note_on_c, 0, 65, 0
2, 36384, Note_on_c, 0, 65, 75
2, 36429, Note_on_c, 0, 65, 0
2, 36432, Note_on_c, 0, 67, 75
2, 36444, Note_on_c, 0, 67, 0
2, 36444, Note_on_c, 0, 65, 75
2, 36456, Note_on_c, 0, 65, 0
2, 36456, Note_on_c, 0, 64, 75
2, 36468, Note_on_c, 0, 64, 0
2, 36468, Note_on_c, 0, 65, 75
2, 36480, Note_on_c, 0, 65, 0
2, 36480, Note_on_c, 0, 64, 75
2, 36525, Note_on_c, 0, 64, 0
2, 36528, Note_on_c, 0, 75, 75
2, 36551, Note_on_c, 0, 75, 0
2, 36552, Note_on_c, 0, 76, 75
2, 36575, Note_on_c, 0, 76, 0
2, 36576, Note_on_c, 0, 74, 75
2, 36599, Note_on_c, 0, 74, 0
2, 36600, Note_on_c, 0, 72, 75
2, 36623, Note_on_c, 0, 72, 0
2, 36624, Note_on_c, 0, 71, 75
2, 36647, Note_on_c, 0, 71, 0
2, 36648, Note_on_c, 0, 69, 75
2, 36671, Note_on_c, 0, 69, 0
2, 36672, Note_on_c, 0, 67, 75
2, 36761, Note_on_c, 0, 67, 0
2, 36768, Note_on_c, 0, 69, 75
2, 36781, Note_on_c, 0, 69, 0
2, 36782, Note_on_c, 0, 71, 75
2, 36795, Note_on_c, 0, 71, 0
2, 36796, Note_on_c, 0, 69, 75
2, 36809, Note_on_c, 0, 69, 0
2, 36810, Note_on_c, 0, 71, 75
2, 36823, Note_on_c, 0, 71, 0
2, 36824, Note_on_c, 0, 69, 75
2, 36837, Note_on_c, 0, 69, 0
2, 36838, Note_on_c, 0, 67, 75
2, 36850, Note_on_c, 0, 67, 0
2, 36851, Note_on_c, 0, 69, 75
2, 36863, Note_on_c, 0, 69, 0
2, 36864, Note_on_c, 0, 67, 75
2, 36909, Note_on_c, 0, 67, 0
2, 36912, Note_on_c, 0, 79, 75
2, 36957, Note_on_c, 0, 79, 0
2, 36960, Note_on_c, 0, 79, 75
2, 37005, Note_on_c, 0, 79, 0
2, 37008, Note_on_c, 0, 81, 75
2, 37020, Note_on_c, 0, 81, 0
2, 37020, Note_on_c, 0, 79, 75
2, 37032, Note_on_c, 0, 79, 0
2, 37032, Note_on_c, 0, 78, 75
2, 37044, Note_on_c, 0, 78, 0
2, 37044, Note_on_c, 0, 79, 75
2, 37056, Note_on_c, 0, 79, 0
2, 37056, Note_on_c, 0, 78, 75
2, 37076, Note_on_c, 0, 78, 0
2, 37104, Note_on_c, 0, 72, 75
2, 37149, Note_on_c, 0, 72, 0
2, 37152, Note_on_c, 0, 72, 75
2, 37197, Note_on_c, 0, 72, 0
2, 37200, Note_on_c, 0, 74, 75
2, 37212, Note_on_c, 0, 74, 0
2, 37212, Note_on_c, 0, 72, 75
2, 37224, Note_on_c, 0, 72, 0
2, 37224, Note_on_c, 0, 71, 75
2, 37236, Note_on_c, 0, 71, 0
2, 37236, Note_on_c, 0, 72, 75
2, 37248, Note_on_c, 0, 72, 0
2, 37248, Note_on_c, 0, 71, 75
2, 37268, Note_on_c, 0, 71, 0
2, 37296, Note_on_c, 0, 65, 75
2, 37341, Note_on_c, 0, 65, 0
2, 37344, Note_on_c, 0, 65, 75
2, 37389, Note_on_c, 0, 65, 0
2, 37392, Note_on_c, 0, 67, 75
2, 37404, Note_on_c, 0, 67, 0
2, 37404, Note_on_c, 0, 65, 75
2, 37416, Note_on_c, 0, 65, 0
2, 37416, Note_on_c, 0, 64, 75
2, 37428, Note_on_c, 0, 64, 0
2, 37428, Note_on_c, 0, 65, 75
2, 37440, Note_on_c, 0, 65, 0
2, 37440, Note_on_c, 0, 64, 75
2, 37485, Note_on_c, 0, 64, 0
2, 37488, Note_on_c, 0, 75, 75
2, 37511, Note_on_c, 0, 75, 0
2, 37512, Note_on_c, 0, 76, 75
2, 37535, Note_on_c, 0, 76, 0
2, 37536, Note_on_c, 0, 74, 75
2, 37559, Note_on_c, 0, 74, 0
2, 37560, Note_on_c, 0, 72, 75
2, 37583, Note_on_c, 0, 72, 0
2, 37584, Note_on_c, 0, 71, 75
2, 37607, Note_on_c, 0, 71, 0
2, 37608, Note_on_c, 0, 69, 75
2, 37631, Note_on_c, 0, 69, 0
2, 37632, Note_on_c, 0, 67, 75
2, 37721, Note_on_c, 0, 67, 0
2, 37728, Note_on_c, 0, 69, 75
2, 37741, Note_on_c, 0, 69, 0
2, 37742, Note_on_c, 0, 71, 75
2, 37755, Note_on_c, 0, 71, 0
2, 37756, Note_on_c, 0, 69, 75
2, 37769, Note_on_c, 0, 69, 0
2, 37770, Note_on_c, 0, 71, 75
2, 37783, Note_on_c, 0, 71, 0
2, 37784, Note_on_c, 0, 69, 75
2, 37797, Note_on_c, 0, 69, 0
2, 37798, Note_on_c, 0, 67, 75
2, 37810, Note_on_c, 0, 67, 0
2, 37811, Note_on_c, 0, 69, 75
2, 37823, Note_on_c, 0, 69, 0
2, 37824, Note_on_c, 0, 71, 75
2, 37847, Note_on_c, 0, 71, 0
2, 37848, Note_on_c, 0, 67, 75
2, 37871, Note_on_c, 0, 67, 0
2, 37872, Note_on_c, 0, 79, 75
2, 37895, Note_on_c, 0, 79, 0
2, 37896, Note_on_c, 0, 74, 75
2, 37919, Note_on_c, 0, 74, 0
2, 37920, Note_on_c, 0, 76, 75
2, 37943, Note_on_c, 0, 76, 0
2, 37944, Note_on_c, 0, 71, 75
2, 37967, Note_on_c, 0, 71, 0
2, 37968, Note_on_c, 0, 72, 75
2, 37991, Note_on_c, 0, 72, 0
2, 37992, Note_on_c, 0, 69, 75
2, 38015, Note_on_c, 0, 69, 0
2, 38016, Note_on_c, 0, 67, 75
2, 38105, Note_on_c, 0, 67, 0
2, 38112, Note_on_c, 0, 69, 75
2, 38125, Note_on_c, 0, 69, 0
2, 38126, Note_on_c, 0, 71, 75
2, 38139, Note_on_c, 0, 71, 0
2, 38140, Note_on_c, 0, 69, 75
2, 38153, Note_on_c, 0, 69, 0
2, 38154, Note_on_c, 0, 71, 75
2, 38167, Note_on_c, 0, 71, 0
2, 38168, Note_on_c, 0, 69, 75
2, 38181, Note_on_c, 0, 69, 0
2, 38182, Note_on_c, 0, 67, 75
2, 38194, Note_on_c, 0, 67, 0
2, 38195, Note_on_c, 0, 69, 75
2, 38207, Note_on_c, 0, 69, 0
2, 38208, Note_on_c, 0, 67, 75
2, 38253, Note_on_c, 0, 67, 0
2, 38304, Note_on_c, 0, 72, 75
2, 38304, Note_on_c, 0, 66, 75
2, 38324, Note_on_c, 0, 72, 0
2, 38324, Note_on_c, 0, 66, 0
2, 38400, Note_on_c, 0, 71, 75
2, 38400, Note_on_c, 0, 67, 75
2, 38420, Note_on_c, 0, 71, 0
2, 38420, Note_on_c, 0, 67, 0
2, 38496, Note_on_c, 0, 66, 75
2, 38496, Note_on_c, 0, 60, 75
2, 38516, Note_on_c, 0, 66, 0
2, 38516, Note_on_c, 0, 60, 0
2, 38592, Note_on_c, 0, 67, 75
2, 38592, Note_on_c, 0, 62, 75
2, 38592, Note_on_c, 0, 59, 75
2, 38681, Note_on_c, 0, 67, 0
2, 38681, Note_on_c, 0, 62, 0
2, 38681, Note_on_c, 0, 59, 0
2, 38736, Note_on_c, 0, 62, 75
2, 38781, Note_on_c, 0, 62, 0
2, 38784, Note_on_c, 0, 65, 80
2, 38804, Note_on_c, 0, 65, 0
2, 38832, Note_on_c, 0, 69, 80
2, 38852, Note_on_c, 0, 69, 0
2, 38880, Note_on_c, 0, 74, 80
2, 38900, Note_on_c, 0, 74, 0
2, 38928, Note_on_c, 0, 77, 80
2, 38948, Note_on_c, 0, 77, 0
2, 38976, Note_on_c, 0, 68, 80
2, 39065, Note_on_c, 0, 68, 0
2, 39120, Note_on_c, 0, 64, 80
2, 39165, Note_on_c, 0, 64, 0
2, 39168, Note_on_c, 0, 68, 80
2, 39188, Note_on_c, 0, 68, 0
2, 39216, Note_on_c, 0, 71, 80
2, 39236, Note_on_c, 0, 71, 0
2, 39264, Note_on_c, 0, 76, 80
2, 39284, Note_on_c, 0, 76, 0
2, 39312, Note_on_c, 0, 80, 80
2, 39332, Note_on_c, 0, 80, 0
2, 39360, Note_on_c, 0, 81, 80
2, 39449, Note_on_c, 0, 81, 0
2, 39504, Note_on_c, 0, 69, 80
2, 39549, Note_on_c, 0, 69, 0
2, 39552, Note_on_c, 0, 72, 80
2, 39572, Note_on_c, 0, 72, 0
2, 39600, Note_on_c, 0, 76, 80
2, 39620, Note_on_c, 0, 76, 0
2, 39648, Note_on_c, 0, 81, 80
2, 39668, Note_on_c, 0, 81, 0
2, 39696, Note_on_c, 0, 84, 80
2, 39716, Note_on_c, 0, 84, 0
2, 39744, Note_on_c, 0, 75, 80
2, 39833, Note_on_c, 0, 75, 0
2, 39888, Note_on_c, 0, 81, 80
2, 39933, Note_on_c, 0, 81, 0
2, 39936, Note_on_c, 0, 78, 80
2, 39956, Note_on_c, 0, 78, 0
2, 39984, Note_on_c, 0, 75, 80
2, 40004, Note_on_c, 0, 75, 0
2, 40032, Note_on_c, 0, 71, 80
2, 40052, Note_on_c, 0, 71, 0
2, 40080, Note_on_c, 0, 69, 80
2, 40100, Note_on_c, 0, 69, 0
2, 40128, Note_on_c, 0, 67, 80
2, 40217, Note_on_c, 0, 67, 0
2, 40272, Note_on_c, 0, 64, 80
2, 40317, Note_on_c, 0, 64, 0
2, 40320, Note_on_c, 0, 67, 80
2, 40340, Note_on_c, 0, 67, 0
2, 40368, Note_on_c, 0, 71, 80
2, 40388, Note_on_c, 0, 71, 0
2, 40416, Note_on_c, 0, 76, 80
2, 40436, Note_on_c, 0, 76, 0
2, 40464, Note_on_c, 0, 79, 80
2, 40484, Note_on_c, 0, 79, 0
2, 40512, Note_on_c, 0, 78, 80
2, 40601, Note_on_c, 0, 78, 0
2, 40656, Note_on_c, 0, 66, 80
2, 40701, Note_on_c, 0, 66, 0
2, 40704, Note_on_c, 0, 69, 80
2, 40724, Note_on_c, 0, 69, 0
2, 40752, Note_on_c, 0, 75, 80
2, 40772, Note_on_c, 0, 75, 0
2, 40800, Note_on_c, 0, 78, 80
2, 40820, Note_on_c, 0, 78, 0
2, 40848, Note_on_c, 0, 81, 80
2, 40868, Note_on_c, 0, 81, 0
2, 40896, Note_on_c, 0, 79, 80
2, 40985, Note_on_c, 0, 79, 0
2, 41040, Note_on_c, 0, 64, 80
2, 41085, Note_on_c, 0, 64, 0
2, 41088, Note_on_c, 0, 67, 80
2, 41108, Note_on_c, 0, 67, 0
2, 41136, Note_on_c, 0, 71, 80
2, 41156, Note_on_c, 0, 71, 0
2, 41184, Note_on_c, 0, 76, 80
2, 41204, Note_on_c, 0, 76, 0
2, 41232, Note_on_c, 0, 79, 80
2, 41252, Note_on_c, 0, 79, 0
2, 41280, Note_on_c, 0, 70, 80
2, 41369, Note_on_c, 0, 70, 0
2, 41424, Note_on_c, 0, 79, 80
2, 41444, Note_on_c, 0, 79, 0
2, 41472, Note_on_c, 0, 78, 80
2, 41484, Note_on_c, 0, 78, 0
2, 41484, Note_on_c, 0, 79, 80
2, 41496, Note_on_c, 0, 79, 0
2, 41496, Note_on_c, 0, 78, 80
2, 41508, Note_on_c, 0, 78, 0
2, 41508, Note_on_c, 0, 79, 80
2, 41517, Note_on_c, 0, 79, 0
2, 41520, Note_on_c, 0, 76, 80
2, 41565, Note_on_c, 0, 76, 0
2, 41568, Note_on_c, 0, 75, 80
2, 41613, Note_on_c, 0, 75, 0
2, 41616, Note_on_c, 0, 76, 80
2, 41661, Note_on_c, 0, 76, 0
2, 41664, Note_on_c, 0, 75, 80
2, 41684, Note_on_c, 0, 75, 0
2, 41712, Note_on_c, 0, 84, 80
2, 41757, Note_on_c, 0, 84, 0
2, 41760, Note_on_c, 0, 83, 80
2, 41772, Note_on_c, 0, 83, 0
2, 41772, Note_on_c, 0, 84, 80
2, 41784, Note_on_c, 0, 84, 0
2, 41784, Note_on_c, 0, 83, 80
2, 41796, Note_on_c, 0, 83, 0
2, 41796, Note_on_c, 0, 84, 80
2, 41805, Note_on_c, 0, 84, 0
2, 41808, Note_on_c, 0, 81, 80
2, 41853, Note_on_c, 0, 81, 0
2, 41856, Note_on_c, 0, 80, 80
2, 41868, Note_on_c, 0, 80, 0
2, 41868, Note_on_c, 0, 81, 80
2, 41880, Note_on_c, 0, 81, 0
2, 41880, Note_on_c, 0, 80, 80
2, 41892, Note_on_c, 0, 80, 0
2, 41892, Note_on_c, 0, 81, 80
2, 41901, Note_on_c, 0, 81, 0
2, 41904, Note_on_c, 0, 77, 80
2, 41949, Note_on_c, 0, 77, 0
2, 41952, Note_on_c, 0, 76, 80
2, 41997, Note_on_c, 0, 76, 0
2, 42000, Note_on_c, 0, 74, 80
2, 42045, Note_on_c, 0, 74, 0
2, 42048, Note_on_c, 0, 73, 80
2, 42068, Note_on_c, 0, 73, 0
2, 42096, Note_on_c, 0, 82, 80
2, 42141, Note_on_c, 0, 82, 0
2, 42144, Note_on_c, 0, 82, 80
2, 42156, Note_on_c, 0, 82, 0
2, 42156, Note_on_c, 0, 81, 80
2, 42168, Note_on_c, 0, 81, 0
2, 42168, Note_on_c, 0, 82, 80
2, 42180, Note_on_c, 0, 82, 0
2, 42180, Note_on_c, 0, 81, 80
2, 42192, Note_on_c, 0, 81, 0
2, 42192, Note_on_c, 0, 79, 80
2, 42237, Note_on_c, 0, 79, 0
2, 42240, Note_on_c, 0, 78, 80
2, 42260, Note_on_c, 0, 78, 0
2, 42288, Note_on_c, 0, 81, 80
2, 42308, Note_on_c, 0, 81, 0
2, 42336, Note_on_c, 0, 86, 80
2, 42356, Note_on_c, 0, 86, 0
2, 42384, Note_on_c, 0, 78, 80
2, 42404, Note_on_c, 0, 78, 0
2, 42432, Note_on_c, 0, 79, 80
2, 42452, Note_on_c, 0, 79, 0
2, 42480, Note_on_c, 0, 83, 80
2, 42500, Note_on_c, 0, 83, 0
2, 42528, Note_on_c, 0, 86, 80
2, 42548, Note_on_c, 0, 86, 0
2, 42576, Note_on_c, 0, 79, 80
2, 42596, Note_on_c, 0, 79, 0
2, 42624, Note_on_c, 0, 78, 80
2, 42644, Note_on_c, 0, 78, 0
2, 42672, Note_on_c, 0, 81, 80
2, 42692, Note_on_c, 0, 81, 0
2, 42720, Note_on_c, 0, 86, 80
2, 42740, Note_on_c, 0, 86, 0
2, 42768, Note_on_c, 0, 78, 80
2, 42788, Note_on_c, 0, 78, 0
2, 42816, Note_on_c, 0, 79, 80
2, 42836, Note_on_c, 0, 79, 0
2, 42864, Note_on_c, 0, 82, 80
2, 42884, Note_on_c, 0, 82, 0
2, 42912, Note_on_c, 0, 86, 80
2, 42932, Note_on_c, 0, 86, 0
2, 42960, Note_on_c, 0, 74, 80
2, 43008, Note_on_c, 0, 74, 0
2, 43008, Note_on_c, 0, 75, 80
2, 43053, Note_on_c, 0, 75, 0
2, 43056, Note_on_c, 0, 86, 80
2, 43104, Note_on_c, 0, 86, 0
2, 43104, Note_on_c, 0, 84, 80
2, 43149, Note_on_c, 0, 84, 0
2, 43152, Note_on_c, 0, 75, 80
2, 43200, Note_on_c, 0, 75, 0
2, 43200, Note_on_c, 0, 74, 80
2, 43245, Note_on_c, 0, 74, 0
2, 43248, Note_on_c, 0, 84, 80
2, 43296, Note_on_c, 0, 84, 0
2, 43296, Note_on_c, 0, 82, 80
2, 43341, Note_on_c, 0, 82, 0
2, 43344, Note_on_c, 0, 74, 80
2, 43392, Note_on_c, 0, 74, 0
2, 43392, Note_on_c, 0, 72, 80
2, 43437, Note_on_c, 0, 72, 0
2, 43440, Note_on_c, 0, 82, 80
2, 43488, Note_on_c, 0, 82, 0
2, 43488, Note_on_c, 0, 81, 80
2, 43533, Note_on_c, 0, 81, 0
2, 43536, Note_on_c, 0, 72, 80
2, 43584, Note_on_c, 0, 72, 0
2, 43584, Note_on_c, 0, 70, 80
2, 43629, Note_on_c, 0, 70, 0
2, 43632, Note_on_c, 0, 79, 80
2, 43677, Note_on_c, 0, 79, 0
2, 43680, Note_on_c, 0, 69, 80
2, 43725, Note_on_c, 0, 69, 0
2, 43728, Note_on_c, 0, 79, 80
2, 43773, Note_on_c, 0, 79, 0
2, 43776, Note_on_c, 0, 67, 80
2, 43821, Note_on_c, 0, 67, 0
2, 43824, Note_on_c, 0, 82, 80
2, 43869, Note_on_c, 0, 82, 0
2, 43872, Note_on_c, 0, 82, 80
2, 43884, Note_on_c, 0, 82, 0
2, 43884, Note_on_c, 0, 81, 80
2, 43896, Note_on_c, 0, 81, 0
2, 43896, Note_on_c, 0, 82, 80
2, 43908, Note_on_c, 0, 82, 0
2, 43908, Note_on_c, 0, 81, 80
2, 43920, Note_on_c, 0, 81, 0
2, 43920, Note_on_c, 0, 79, 80
2, 43965, Note_on_c, 0, 79, 0
2, 43968, Note_on_c, 0, 78, 80
2, 44013, Note_on_c, 0, 78, 0
2, 44016, Note_on_c, 0, 81, 80
2, 44061, Note_on_c, 0, 81, 0
2, 44064, Note_on_c, 0, 84, 80
2, 44087, Note_on_c, 0, 84, 0
2, 44088, Note_on_c, 0, 81, 80
2, 44111, Note_on_c, 0, 81, 0
2, 44112, Note_on_c, 0, 78, 80
2, 44135, Note_on_c, 0, 78, 0
2, 44136, Note_on_c, 0, 74, 80
2, 44159, Note_on_c, 0, 74, 0
2, 44160, Note_on_c, 0, 72, 80
2, 44160, Note_on_c, 0, 69, 80
2, 44397, Note_on_c, 0, 72, 0
2, 44397, Note_on_c, 0, 69, 0
2, 44400, Note_on_c, 0, 71, 80
2, 44423, Note_on_c, 0, 71, 0
2, 44424, Note_on_c, 0, 72, 80
2, 44447, Note_on_c, 0, 72, 0
2, 44448, Note_on_c, 0, 74, 80
2, 44471, Note_on_c, 0, 74, 0
2, 44472, Note_on_c, 0, 72, 78
2, 44495, Note_on_c, 0, 72, 0
2, 44496, Note_on_c, 0, 71, 77
2, 44519, Note_on_c, 0, 71, 0
2, 44520, Note_on_c, 0, 69, 76
2, 44543, Note_on_c, 0, 69, 0
2, 44544, Note_on_c, 0, 67, 75
2, 44568, Note_on_c, 0, 67, 0
2, 44568, Note_on_c, 0, 66, 75
2, 44591, Note_on_c, 0, 66, 0
2, 44592, Note_on_c, 0, 69, 75
2, 44616, Note_on_c, 0, 69, 0
2, 44616, Note_on_c, 0, 67, 75
2, 44639, Note_on_c, 0, 67, 0
2, 44640, Note_on_c, 0, 71, 75
2, 44664, Note_on_c, 0, 71, 0
2, 44664, Note_on_c, 0, 69, 75
2, 44687, Note_on_c, 0, 69, 0
2, 44688, Note_on_c, 0, 72, 75
2, 44712, Note_on_c, 0, 72, 0
2, 44712, Note_on_c, 0, 71, 75
2, 44735, Note_on_c, 0, 71, 0
2, 44736, Note_on_c, 0, 74, 75
2, 44781, Note_on_c, 0, 74, 0
2, 44784, Note_on_c, 0, 74, 75
2, 44829, Note_on_c, 0, 74, 0
2, 44832, Note_on_c, 0, 74, 75
2, 44877, Note_on_c, 0, 74, 0
2, 44880, Note_on_c, 0, 74, 75
2, 44925, Note_on_c, 0, 74, 0
2, 44928, Note_on_c, 0, 74, 75
2, 44973, Note_on_c, 0, 74, 0
2, 44976, Note_on_c, 0, 76, 77
2, 44999, Note_on_c, 0, 76, 0
2, 45000, Note_on_c, 0, 78, 78
2, 45023, Note_on_c, 0, 78, 0
2, 45024, Note_on_c, 0, 81, 80
2, 45047, Note_on_c, 0, 81, 0
2, 45048, Note_on_c, 0, 79, 78
2, 45071, Note_on_c, 0, 79, 0
2, 45072, Note_on_c, 0, 78, 77
2, 45095, Note_on_c, 0, 78, 0
2, 45096, Note_on_c, 0, 76, 76
2, 45119, Note_on_c, 0, 76, 0
2, 45120, Note_on_c, 0, 74, 75
2, 45165, Note_on_c, 0, 74, 0
2, 45168, Note_on_c, 0, 74, 75
2, 45213, Note_on_c, 0, 74, 0
2, 45216, Note_on_c, 0, 74, 75
2, 45261, Note_on_c, 0, 74, 0
2, 45264, Note_on_c, 0, 74, 75
2, 45309, Note_on_c, 0, 74, 0
2, 45312, Note_on_c, 0, 74, 75
2, 45357, Note_on_c, 0, 74, 0
2, 45360, Note_on_c, 0, 76, 75
2, 45383, Note_on_c, 0, 76, 0
2, 45384, Note_on_c, 0, 78, 75
2, 45407, Note_on_c, 0, 78, 0
2, 45408, Note_on_c, 0, 81, 75
2, 45431, Note_on_c, 0, 81, 0
2, 45432, Note_on_c, 0, 79, 75
2, 45455, Note_on_c, 0, 79, 0
2, 45456, Note_on_c, 0, 78, 75
2, 45479, Note_on_c, 0, 78, 0
2, 45480, Note_on_c, 0, 76, 75
2, 45503, Note_on_c, 0, 76, 0
2, 45504, Note_on_c, 0, 74, 75
2, 45549, Note_on_c, 0, 74, 0
2, 45552, Note_on_c, 0, 79, 75
2, 45575, Note_on_c, 0, 79, 0
2, 45576, Note_on_c, 0, 83, 75
2, 45599, Note_on_c, 0, 83, 0
2, 45600, Note_on_c, 0, 81, 75
2, 45623, Note_on_c, 0, 81, 0
2, 45624, Note_on_c, 0, 79, 75
2, 45647, Note_on_c, 0, 79, 0
2, 45648, Note_on_c, 0, 78, 75
2, 45671, Note_on_c, 0, 78, 0
2, 45672, Note_on_c, 0, 76, 75
2, 45695, Note_on_c, 0, 76, 0
2, 45696, Note_on_c, 0, 74, 75
2, 45785, Note_on_c, 0, 74, 0
2, 45792, Note_on_c, 0, 72, 75
2, 45805, Note_on_c, 0, 72, 0
2, 45806, Note_on_c, 0, 74, 75
2, 45819, Note_on_c, 0, 74, 0
2, 45820, Note_on_c, 0, 72, 75
2, 45833, Note_on_c, 0, 72, 0
2, 45834, Note_on_c, 0, 74, 75
2, 45847, Note_on_c, 0, 74, 0
2, 45848, Note_on_c, 0, 72, 75
2, 45861, Note_on_c, 0, 72, 0
2, 45862, Note_on_c, 0, 71, 75
2, 45874, Note_on_c, 0, 71, 0
2, 45875, Note_on_c, 0, 72, 75
2, 45887, Note_on_c, 0, 72, 0
2, 45888, Note_on_c, 0, 71, 75
2, 45977, Note_on_c, 0, 71, 0
2, 46032, Note_on_c, 0, 67, 80
2, 46077, Note_on_c, 0, 67, 0
2, 46080, Note_on_c, 0, 66, 80
2, 46092, Note_on_c, 0, 66, 0
2, 46092, Note_on_c, 0, 67, 80
2, 46104, Note_on_c, 0, 67, 0
2, 46104, Note_on_c, 0, 66, 80
2, 46125, Note_on_c, 0, 66, 0
2, 46128, Note_on_c, 0, 64, 80
2, 46173, Note_on_c, 0, 64, 0
2, 46176, Note_on_c, 0, 62, 80
2, 46188, Note_on_c, 0, 62, 0
2, 46188, Note_on_c, 0, 64, 80
2, 46200, Note_on_c, 0, 64, 0
2, 46200, Note_on_c, 0, 62, 80
2, 46221, Note_on_c, 0, 62, 0
2, 46224, Note_on_c, 0, 60, 80
2, 46269, Note_on_c, 0, 60, 0
2, 46272, Note_on_c, 0, 59, 80
2, 46361, Note_on_c, 0, 59, 0
2, 46416, Note_on_c, 0, 64, 80
2, 46431, Note_on_c, 0, 64, 0
2, 46432, Note_on_c, 0, 66, 80
2, 46447, Note_on_c, 0, 66, 0
2, 46448, Note_on_c, 0, 64, 80
2, 46463, Note_on_c, 0, 64, 0
2, 46464, Note_on_c, 0, 62, 80
2, 46479, Note_on_c, 0, 62, 0
2, 46480, Note_on_c, 0, 64, 80
2, 46495, Note_on_c, 0, 64, 0
2, 46496, Note_on_c, 0, 62, 80
2, 46511, Note_on_c, 0, 62, 0
2, 46512, Note_on_c, 0, 60, 80
2, 46527, Note_on_c, 0, 60, 0
2, 46528, Note_on_c, 0, 62, 80
2, 46543, Note_on_c, 0, 62, 0
2, 46544, Note_on_c, 0, 60, 80
2, 46559, Note_on_c, 0, 60, 0
2, 46560, Note_on_c, 0, 59, 80
2, 46575, Note_on_c, 0, 59, 0
2, 46576, Note_on_c, 0, 60, 80
2, 46591, Note_on_c, 0, 60, 0
2, 46592, Note_on_c, 0, 59, 80
2, 46607, Note_on_c, 0, 59, 0
2, 46608, Note_on_c, 0, 57, 80
2, 46623, Note_on_c, 0, 57, 0
2, 46624, Note_on_c, 0, 59, 80
2, 46639, Note_on_c, 0, 59, 0
2, 46640, Note_on_c, 0, 57, 80
2, 46655, Note_on_c, 0, 57, 0
2, 46656, Note_on_c, 0, 56, 80
2, 46676, Note_on_c, 0, 56, 0
2, 46704, Note_on_c, 0, 59, 80
2, 46724, Note_on_c, 0, 59, 0
2, 46752, Note_on_c, 0, 62, 80
2, 46772, Note_on_c, 0, 62, 0
2, 46800, Note_on_c, 0, 68, 80
2, 46820, Note_on_c, 0, 68, 0
2, 46848, Note_on_c, 0, 71, 80
2, 46868, Note_on_c, 0, 71, 0
2, 46896, Note_on_c, 0, 74, 80
2, 46916, Note_on_c, 0, 74, 0
2, 46944, Note_on_c, 0, 83, 80
2, 47011, Note_on_c, 0, 83, 0
2, 47016, Note_on_c, 0, 74, 80
2, 47039, Note_on_c, 0, 74, 0
2, 47040, Note_on_c, 0, 74, 80
2, 47063, Note_on_c, 0, 74, 0
2, 47064, Note_on_c, 0, 72, 80
2, 47087, Note_on_c, 0, 72, 0
2, 47088, Note_on_c, 0, 71, 80
2, 47111, Note_on_c, 0, 71, 0
2, 47112, Note_on_c, 0, 69, 80
2, 47135, Note_on_c, 0, 69, 0
2, 47136, Note_on_c, 0, 69, 80
2, 47181, Note_on_c, 0, 69, 0
2, 47184, Note_on_c, 0, 69, 80
2, 47229, Note_on_c, 0, 69, 0
2, 47232, Note_on_c, 0, 81, 80
2, 47232, Note_on_c, 0, 72, 80
2, 47365, Note_on_c, 0, 81, 0
2, 47365, Note_on_c, 0, 72, 0
2, 47376, Note_on_c, 0, 72, 80
2, 47421, Note_on_c, 0, 72, 0
2, 47424, Note_on_c, 0, 72, 80
2, 47447, Note_on_c, 0, 72, 0
2, 47448, Note_on_c, 0, 71, 80
2, 47471, Note_on_c, 0, 71, 0
2, 47472, Note_on_c, 0, 69, 80
2, 47495, Note_on_c, 0, 69, 0
2, 47496, Note_on_c, 0, 67, 80
2, 47519, Note_on_c, 0, 67, 0
2, 47520, Note_on_c, 0, 67, 80
2, 47540, Note_on_c, 0, 67, 0
2, 47568, Note_on_c, 0, 74, 80
2, 47588, Note_on_c, 0, 74, 0
2, 47616, Note_on_c, 0, 74, 80
2, 47639, Note_on_c, 0, 74, 0
2, 47640, Note_on_c, 0, 72, 80
2, 47663, Note_on_c, 0, 72, 0
2, 47664, Note_on_c, 0, 71, 80
2, 47687, Note_on_c, 0, 71, 0
2, 47688, Note_on_c, 0, 69, 80
2, 47711, Note_on_c, 0, 69, 0
2, 47712, Note_on_c, 0, 69, 80
2, 47732, Note_on_c, 0, 69, 0
2, 47760, Note_on_c, 0, 72, 80
2, 47780, Note_on_c, 0, 72, 0
2, 47808, Note_on_c, 0, 72, 80
2, 47831, Note_on_c, 0, 72, 0
2, 47832, Note_on_c, 0, 71, 80
2, 47855, Note_on_c, 0, 71, 0
2, 47856, Note_on_c, 0, 69, 80
2, 47879, Note_on_c, 0, 69, 0
2, 47880, Note_on_c, 0, 67, 80
2, 47903, Note_on_c, 0, 67, 0
2, 47904, Note_on_c, 0, 67, 80
2, 47924, Note_on_c, 0, 67, 0
2, 47952, Note_on_c, 0, 79, 80
2, 47997, Note_on_c, 0, 79, 0
2, 48000, Note_on_c, 0, 78, 80
2, 48023, Note_on_c, 0, 78, 0
2, 48024, Note_on_c, 0, 76, 80
2, 48047, Note_on_c, 0, 76, 0
2, 48048, Note_on_c, 0, 74, 80
2, 48071, Note_on_c, 0, 74, 0
2, 48072, Note_on_c, 0, 72, 80
2, 48095, Note_on_c, 0, 72, 0
2, 48096, Note_on_c, 0, 71, 80
2, 48119, Note_on_c, 0, 71, 0
2, 48120, Note_on_c, 0, 69, 80
2, 48143, Note_on_c, 0, 69, 0
2, 48144, Note_on_c, 0, 72, 80
2, 48167, Note_on_c, 0, 72, 0
2, 48168, Note_on_c, 0, 69, 80
2, 48191, Note_on_c, 0, 69, 0
2, 48192, Note_on_c, 0, 67, 80
2, 48288, Note_on_c, 0, 67, 0
2, 48288, Note_on_c, 0, 66, 80
2, 48333, Note_on_c, 0, 66, 0
2, 48336, Note_on_c, 0, 62, 75
2, 48381, Note_on_c, 0, 62, 0
2, 48384, Note_on_c, 0, 67, 75
2, 48473, Note_on_c, 0, 67, 0
2, 48480, Note_on_c, 0, 72, 75
2, 48503, Note_on_c, 0, 72, 0
2, 48504, Note_on_c, 0, 71, 75
2, 48527, Note_on_c, 0, 71, 0
2, 48528, Note_on_c, 0, 69, 75
2, 48551, Note_on_c, 0, 69, 0
2, 48552, Note_on_c, 0, 67, 75
2, 48575, Note_on_c, 0, 67, 0
2, 48576, Note_on_c, 0, 67, 75
2, 48621, Note_on_c, 0, 67, 0
2, 48624, Note_on_c, 0, 66, 75
2, 48669, Note_on_c, 0, 66, 0
2, 48720, Note_on_c, 0, 62, 75
2, 48765, Note_on_c, 0, 62, 0
2, 48768, Note_on_c, 0, 69, 75
2, 48857, Note_on_c, 0, 69, 0
2, 48864, Note_on_c, 0, 74, 75
2, 48887, Note_on_c, 0, 74, 0
2, 48888, Note_on_c, 0, 72, 75
2, 48911, Note_on_c, 0, 72, 0
2, 48912, Note_on_c, 0, 71, 75
2, 48935, Note_on_c, 0, 71, 0
2, 48936, Note_on_c, 0, 69, 75
2, 48959, Note_on_c, 0, 69, 0
2, 48960, Note_on_c, 0, 69, 75
2, 49005, Note_on_c, 0, 69, 0
2, 49008, Note_on_c, 0, 71, 75
2, 49053, Note_on_c, 0, 71, 0
2, 49104, Note_on_c, 0, 74, 75
2, 49149, Note_on_c, 0, 74, 0
2, 49152, Note_on_c, 0, 79, 75
2, 49241, Note_on_c, 0, 79, 0
2, 49248, Note_on_c, 0, 84, 75
2, 49271, Note_on_c, 0, 84, 0
2, 49272, Note_on_c, 0, 83, 75
2, 49295, Note_on_c, 0, 83, 0
2, 49296, Note_on_c, 0, 81, 75
2, 49319, Note_on_c, 0, 81, 0
2, 49320, Note_on_c, 0, 79, 75
2, 49343, Note_on_c, 0, 79, 0
2, 49344, Note_on_c, 0, 79, 75
2, 49389, Note_on_c, 0, 79, 0
2, 49392, Note_on_c, 0, 78, 75
2, 49437, Note_on_c, 0, 78, 0
2, 49488, Note_on_c, 0, 74, 75
2, 49533, Note_on_c, 0, 74, 0
2, 49536, Note_on_c, 0, 81, 75
2, 49625, Note_on_c, 0, 81, 0
2, 49632, Note_on_c, 0, 86, 75
2, 49655, Note_on_c, 0, 86, 0
2, 49656, Note_on_c, 0, 84, 75
2, 49679, Note_on_c, 0, 84, 0
2, 49680, Note_on_c, 0, 83, 75
2, 49703, Note_on_c, 0, 83, 0
2, 49704, Note_on_c, 0, 81, 75
2, 49727, Note_on_c, 0, 81, 0
2, 49728, Note_on_c, 0, 81, 75
2, 49773, Note_on_c, 0, 81, 0
2, 49776, Note_on_c, 0, 83, 75
2, 49821, Note_on_c, 0, 83, 0
2, 49872, Note_on_c, 0, 74, 75
2, 49917, Note_on_c, 0, 74, 0
2, 49920, Note_on_c, 0, 74, 75
2, 49943, Note_on_c, 0, 74, 0
2, 49944, Note_on_c, 0, 86, 75
2, 49967, Note_on_c, 0, 86, 0
2, 49968, Note_on_c, 0, 84, 75
2, 49991, Note_on_c, 0, 84, 0
2, 49992, Note_on_c, 0, 83, 75
2, 50015, Note_on_c, 0, 83, 0
2, 50016, Note_on_c, 0, 81, 75
2, 50039, Note_on_c, 0, 81, 0
2, 50040, Note_on_c, 0, 79, 75
2, 50063, Note_on_c, 0, 79, 0
2, 50064, Note_on_c, 0, 78, 75
2, 50087, Note_on_c, 0, 78, 0
2, 50088, Note_on_c, 0, 79, 75
2, 50111, Note_on_c, 0, 79, 0
2, 50112, Note_on_c, 0, 76, 75
2, 50157, Note_on_c, 0, 76, 0
2, 50160, Note_on_c, 0, 80, 76
2, 50205, Note_on_c, 0, 80, 0
2, 50208, Note_on_c, 0, 81, 77
2, 50253, Note_on_c, 0, 81, 0
2, 50256, Note_on_c, 0, 83, 78
2, 50301, Note_on_c, 0, 83, 0
2, 50328, Note_on_c, 0, 84, 79
2, 50351, Note_on_c, 0, 84, 0
2, 50352, Note_on_c, 0, 83, 78
2, 50375, Note_on_c, 0, 83, 0
2, 50376, Note_on_c, 0, 81, 78
2, 50399, Note_on_c, 0, 81, 0
2, 50400, Note_on_c, 0, 79, 77
2, 50423, Note_on_c, 0, 79, 0
2, 50424, Note_on_c, 0, 78, 76
2, 50447, Note_on_c, 0, 78, 0
2, 50448, Note_on_c, 0, 76, 76
2, 50471, Note_on_c, 0, 76, 0
2, 50472, Note_on_c, 0, 78, 75
2, 50495, Note_on_c, 0, 78, 0
2, 50496, Note_on_c, 0, 74, 75
2, 50541, Note_on_c, 0, 74, 0
2, 50544, Note_on_c, 0, 78, 76
2, 50589, Note_on_c, 0, 78, 0
2, 50592, Note_on_c, 0, 79, 77
2, 50637, Note_on_c, 0, 79, 0
2, 50640, Note_on_c, 0, 81, 78
2, 50685, Note_on_c, 0, 81, 0
2, 50712, Note_on_c, 0, 83, 79
2, 50735, Note_on_c, 0, 83, 0
2, 50736, Note_on_c, 0, 81, 78
2, 50759, Note_on_c, 0, 81, 0
2, 50760, Note_on_c, 0, 79, 78
2, 50783, Note_on_c, 0, 79, 0
2, 50784, Note_on_c, 0, 78, 77
2, 50807, Note_on_c, 0, 78, 0
2, 50808, Note_on_c, 0, 76, 76
2, 50831, Note_on_c, 0, 76, 0
2, 50832, Note_on_c, 0, 74, 76
2, 50855, Note_on_c, 0, 74, 0
2, 50856, Note_on_c, 0, 76, 75
2, 50879, Note_on_c, 0, 76, 0
2, 50880, Note_on_c, 0, 72, 75
2, 50925, Note_on_c, 0, 72, 0
2, 50928, Note_on_c, 0, 76, 76
2, 50973, Note_on_c, 0, 76, 0
2, 50976, Note_on_c, 0, 78, 77
2, 51021, Note_on_c, 0, 78, 0
2, 51024, Note_on_c, 0, 79, 78
2, 51069, Note_on_c, 0, 79, 0
2, 51096, Note_on_c, 0, 81, 79
2, 51119, Note_on_c, 0, 81, 0
2, 51120, Note_on_c, 0, 79, 78
2, 51143, Note_on_c, 0, 79, 0
2, 51144, Note_on_c, 0, 78, 78
2, 51167, Note_on_c, 0, 78, 0
2, 51168, Note_on_c, 0, 76, 77
2, 51191, Note_on_c, 0, 76, 0
2, 51192, Note_on_c, 0, 74, 76
2, 51215, Note_on_c, 0, 74, 0
2, 51216, Note_on_c, 0, 76, 76
2, 51239, Note_on_c, 0, 76, 0
2, 51240, Note_on_c, 0, 72, 75
2, 51263, Note_on_c, 0, 72, 0
2, 51264, Note_on_c, 0, 71, 75
2, 51309, Note_on_c, 0, 71, 0
2, 51312, Note_on_c, 0, 79, 75
2, 51357, Note_on_c, 0, 79, 0
2, 51360, Note_on_c, 0, 78, 75
2, 51405, Note_on_c, 0, 78, 0
2, 51408, Note_on_c, 0, 86, 75
2, 51453, Note_on_c, 0, 86, 0
2, 51456, Note_on_c, 0, 83, 75
2, 51501, Note_on_c, 0, 83, 0
2, 51504, Note_on_c, 0, 79, 75
2, 51549, Note_on_c, 0, 79, 0
2, 51552, Note_on_c, 0, 78, 75
2, 51597, Note_on_c, 0, 78, 0
2, 51600, Note_on_c, 0, 72, 75
2, 51645, Note_on_c, 0, 72, 0
2, 51648, Note_on_c, 0, 71, 75
2, 51693, Note_on_c, 0, 71, 0
2, 51696, Note_on_c, 0, 79, 75
2, 51711, Note_on_c, 0, 79, 0
2, 51712, Note_on_c, 0, 81, 75
2, 51727, Note_on_c, 0, 81, 0
2, 51728, Note_on_c, 0, 79, 75
2, 51743, Note_on_c, 0, 79, 0
2, 51744, Note_on_c, 0, 78, 75
2, 51789, Note_on_c, 0, 78, 0
2, 51792, Note_on_c, 0, 86, 75
2, 51837, Note_on_c, 0, 86, 0
2, 51840, Note_on_c, 0, 83, 75
2, 51885, Note_on_c, 0, 83, 0
2, 51888, Note_on_c, 0, 79, 75
2, 51933, Note_on_c, 0, 79, 0
2, 51936, Note_on_c, 0, 78, 75
2, 51981, Note_on_c, 0, 78, 0
2, 51984, Note_on_c, 0, 72, 75
2, 52029, Note_on_c, 0, 72, 0
2, 52032, Note_on_c, 0, 71, 75
2, 52077, Note_on_c, 0, 71, 0
2, 52080, Note_on_c, 0, 79, 75
2, 52125, Note_on_c, 0, 79, 0
2, 52128, Note_on_c, 0, 77, 75
2, 52173, Note_on_c, 0, 77, 0
2, 52176, Note_on_c, 0, 74, 75
2, 52221, Note_on_c, 0, 74, 0
2, 52224, Note_on_c, 0, 75, 75
2, 52320, Note_on_c, 0, 75, 0
2, 52320, Note_on_c, 0, 76, 75
2, 52340, Note_on_c, 0, 76, 0
2, 52368, Note_on_c, 0, 76, 75
2, 52391, Note_on_c, 0, 76, 0
2, 52392, Note_on_c, 0, 72, 75
2, 52415, Note_on_c, 0, 72, 0
2, 52416, Note_on_c, 0, 74, 75
2, 52439, Note_on_c, 0, 74, 0
2, 52440, Note_on_c, 0, 71, 75
2, 52463, Note_on_c, 0, 71, 0
2, 52464, Note_on_c, 0, 72, 75
2, 52487, Note_on_c, 0, 72, 0
2, 52488, Note_on_c, 0, 69, 75
2, 52511, Note_on_c, 0, 69, 0
2, 52512, Note_on_c, 0, 71, 75
2, 52535, Note_on_c, 0, 71, 0
2, 52536, Note_on_c, 0, 67, 75
2, 52559, Note_on_c, 0, 67, 0
2, 52560, Note_on_c, 0, 69, 75
2, 52583, Note_on_c, 0, 69, 0
2, 52584, Note_on_c, 0, 66, 75
2, 52607, Note_on_c, 0, 66, 0
2, 52608, Note_on_c, 0, 67, 75
2, 52653, Note_on_c, 0, 67, 0
2, 52656, Note_on_c, 0, 79, 75
2, 52701, Note_on_c, 0, 79, 0
2, 52704, Note_on_c, 0, 79, 75
2, 52749, Note_on_c, 0, 79, 0
2, 52752, Note_on_c, 0, 81, 75
2, 52764, Note_on_c, 0, 81, 0
2, 52764, Note_on_c, 0, 79, 75
2, 52776, Note_on_c, 0, 79, 0
2, 52776, Note_on_c, 0, 78, 75
2, 52788, Note_on_c, 0, 78, 0
2, 52788, Note_on_c, 0, 79, 75
2, 52800, Note_on_c, 0, 79, 0
2, 52800, Note_on_c, 0, 78, 75
2, 52820, Note_on_c, 0, 78, 0
2, 52848, Note_on_c, 0, 72, 75
2, 52893, Note_on_c, 0, 72, 0
2, 52896, Note_on_c, 0, 72, 75
2, 52941, Note_on_c, 0, 72, 0
2, 52944, Note_on_c, 0, 74, 75
2, 52956, Note_on_c, 0, 74, 0
2, 52956, Note_on_c, 0, 72, 75
2, 52968, Note_on_c, 0, 72, 0
2, 52968, Note_on_c, 0, 71, 75
2, 52980, Note_on_c, 0, 71, 0
2, 52980, Note_on_c, 0, 72, 75
2, 52992, Note_on_c, 0, 72, 0
2, 52992, Note_on_c, 0, 71, 75
2, 53012, Note_on_c, 0, 71, 0
2, 53040, Note_on_c, 0, 65, 75
2, 53085, Note_on_c, 0, 65, 0
2, 53088, Note_on_c, 0, 65, 75
2, 53133, Note_on_c, 0, 65, 0
2, 53136, Note_on_c, 0, 67, 75
2, 53148, Note_on_c, 0, 67, 0
2, 53148, Note_on_c, 0, 65, 75
2, 53160, Note_on_c, 0, 65, 0
2, 53160, Note_on_c, 0, 64, 75
2, 53172, Note_on_c, 0, 64, 0
2, 53172, Note_on_c, 0, 65, 75
2, 53184, Note_on_c, 0, 65, 0
2, 53184, Note_on_c, 0, 64, 75
2, 53229, Note_on_c, 0, 64, 0
2, 53232, Note_on_c, 0, 75, 75
2, 53255, Note_on_c, 0, 75, 0
2, 53256, Note_on_c, 0, 76, 75
2, 53279, Note_on_c, 0, 76, 0
2, 53280, Note_on_c, 0, 74, 75
2, 53303, Note_on_c, 0, 74, 0
2, 53304, Note_on_c, 0, 72, 75
2, 53327, Note_on_c, 0, 72, 0
2, 53328, Note_on_c, 0, 71, 75
2, 53351, Note_on_c, 0, 71, 0
2, 53352, Note_on_c, 0, 69, 75
2, 53375, Note_on_c, 0, 69, 0
2, 53376, Note_on_c, 0, 67, 75
2, 53465, Note_on_c, 0, 67, 0
2, 53472, Note_on_c, 0, 69, 75
2, 53485, Note_on_c, 0, 69, 0
2, 53486, Note_on_c, 0, 71, 75
2, 53499, Note_on_c, 0, 71, 0
2, 53500, Note_on_c, 0, 69, 75
2, 53513, Note_on_c, 0, 69, 0
2, 53514, Note_on_c, 0, 71, 75
2, 53527, Note_on_c, 0, 71, 0
2, 53528, Note_on_c, 0, 69, 75
2, 53541, Note_on_c, 0, 69, 0
2, 53542, Note_on_c, 0, 67, 75
2, 53554, Note_on_c, 0, 67, 0
2, 53555, Note_on_c, 0, 69, 75
2, 53567, Note_on_c, 0, 69, 0
2, 53568, Note_on_c, 0, 67, 75
2, 53613, Note_on_c, 0, 67, 0
2, 53616, Note_on_c, 0, 79, 75
2, 53661, Note_on_c, 0, 79, 0
2, 53664, Note_on_c, 0, 79, 75
2, 53709, Note_on_c, 0, 79, 0
2, 53712, Note_on_c, 0, 81, 75
2, 53724, Note_on_c, 0, 81, 0
2, 53724, Note_on_c, 0, 79, 75
2, 53736, Note_on_c, 0, 79, 0
2, 53736, Note_on_c, 0, 78, 75
2, 53748, Note_on_c, 0, 78, 0
2, 53748, Note_on_c, 0, 79, 75
2, 53760, Note_on_c, 0, 79, 0
2, 53760, Note_on_c, 0, 78, 75
2, 53780, Note_on_c, 0, 78, 0
2, 53808, Note_on_c, 0, 72, 75
2, 53853, Note_on_c, 0, 72, 0
2, 53856, Note_on_c, 0, 72, 75
2, 53901, Note_on_c, 0, 72, 0
2, 53904, Note_on_c, 0, 74, 75
2, 53916, Note_on_c, 0, 74, 0
2, 53916, Note_on_c, 0, 72, 75
2, 53928, Note_on_c, 0, 72, 0
2, 53928, Note_on_c, 0, 71, 75
2, 53940, Note_on_c, 0, 71, 0
2, 53940, Note_on_c, 0, 72, 75
2, 53952, Note_on_c, 0, 72, 0
2, 53952, Note_on_c, 0, 71, 75
2, 53972, Note_on_c, 0, 71, 0
2, 54000, Note_on_c, 0, 65, 75
2, 54045, Note_on_c, 0, 65, 0
2, 54048, Note_on_c, 0, 65, 75
2, 54093, Note_on_c, 0, 65, 0
2, 54096, Note_on_c, 0, 67, 75
2, 54108, Note_on_c, 0, 67, 0
2, 54108, Note_on_c, 0, 65, 75
2, 54120, Note_on_c, 0, 65, 0
2, 54120, Note_on_c, 0, 64, 75
2, 54132, Note_on_c, 0, 64, 0
2, 54132, Note_on_c, 0, 65, 75
2, 54144, Note_on_c, 0, 65, 0
2, 54144, Note_on_c, 0, 64, 75
2, 54189, Note_on_c, 0, 64, 0
2, 54192, Note_on_c, 0, 75, 75
2, 54215, Note_on_c, 0, 75, 0
2, 54216, Note_on_c, 0, 76, 75
2, 54239, Note_on_c, 0, 76, 0
2, 54240, Note_on_c, 0, 74, 75
2, 54263, Note_on_c, 0, 74, 0
2, 54264, Note_on_c, 0, 72, 75
2, 54287, Note_on_c, 0, 72, 0
2, 54288, Note_on_c, 0, 71, 75
2, 54311, Note_on_c, 0, 71, 0
2, 54312, Note_on_c, 0, 69, 75
2, 54335, Note_on_c, 0, 69, 0
2, 54336, Note_on_c, 0, 67, 75
2, 54425, Note_on_c, 0, 67, 0
2, 54432, Note_on_c, 0, 69, 75
2, 54445, Note_on_c, 0, 69, 0
2, 54446, Note_on_c, 0, 71, 75
2, 54459, Note_on_c, 0, 71, 0
2, 54460, Note_on_c, 0, 69, 75
2, 54473, Note_on_c, 0, 69, 0
2, 54474, Note_on_c, 0, 71, 75
2, 54487, Note_on_c, 0, 71, 0
2, 54488, Note_on_c, 0, 69, 75
2, 54501, Note_on_c, 0, 69, 0
2, 54502, Note_on_c, 0, 67, 75
2, 54514, Note_on_c, 0, 67, 0
2, 54515, Note_on_c, 0, 69, 75
2, 54527, Note_on_c, 0, 69, 0
2, 54528, Note_on_c, 0, 71, 75
2, 54551, Note_on_c, 0, 71, 0
2, 54552, Note_on_c, 0, 67, 75
2, 54575, Note_on_c, 0, 67, 0
2, 54576, Note_on_c, 0, 79, 75
2, 54599, Note_on_c, 0, 79, 0
2, 54600, Note_on_c, 0, 74, 75
2, 54623, Note_on_c, 0, 74, 0
2, 54624, Note_on_c, 0, 76, 75
2, 54647, Note_on_c, 0, 76, 0
2, 54648, Note_on_c, 0, 71, 75
2, 54671, Note_on_c, 0, 71, 0
2, 54672, Note_on_c, 0, 72, 75
2, 54695, Note_on_c, 0, 72, 0
2, 54696, Note_on_c, 0, 69, 75
2, 54719, Note_on_c, 0, 69, 0
2, 54720, Note_on_c, 0, 67, 75
2, 54809, Note_on_c, 0, 67, 0
2, 54816, Note_on_c, 0, 69, 75
2, 54829, Note_on_c, 0, 69, 0
2, 54830, Note_on_c, 0, 71, 75
2, 54843, Note_on_c, 0, 71, 0
2, 54844, Note_on_c, 0, 69, 75
2, 54857, Note_on_c, 0, 69, 0
2, 54858, Note_on_c, 0, 71, 75
2, 54871, Note_on_c, 0, 71, 0
2, 54872, Note_on_c, 0, 69, 75
2, 54885, Note_on_c, 0, 69, 0
2, 54886, Note_on_c, 0, 67, 75
2, 54898, Note_on_c, 0, 67, 0
2, 54899, Note_on_c, 0, 69, 75
2, 54911, Note_on_c, 0, 69, 0
2, 54912, Note_on_c, 0, 67, 75
2, 54957, Note_on_c, 0, 67, 0
2, 55008, Note_on_c, 0, 72, 75
2, 55008, Note_on_c, 0, 66, 75
2, 55028, Note_on_c, 0, 72, 0
2, 55028, Note_on_c, 0, 66, 0
2, 55104, Note_on_c, 0, 71, 75
2, 55104, Note_on_c, 0, 67, 75
2, 55124, Note_on_c, 0, 71, 0
2, 55124, Note_on_c, 0, 67, 0
2, 55200, Note_on_c, 0, 66, 75
2, 55200, Note_on_c, 0, 60, 75
2, 55220, Note_on_c, 0, 66, 0
2, 55220, Note_on_c, 0, 60, 0
2, 55296, Note_on_c, 0, 67, 75
2, 55296, Note_on_c, 0, 62, 75
2, 55296, Note_on_c, 0, 59, 75
2, 55429, Note_on_c, 0, 67, 0
2, 55429, Note_on_c, 0, 62, 0
2, 55429, Note_on_c, 0, 59, 0
2, 55488, End_track
3, 0, Start_track
3, 0, Program_c, 0, 0
3, 0, Control_c, 0, 7, 127
3, 0, Control_c, 0, 10, 64
3, 55488, End_track
4, 0, Start_track
4, 0, Program_c, 1, 0
4, 0, Control_c, 1, 7, 127
4, 0, Control_c, 1, 10, 64
4, 192, Note_on_c, 1, 59, 75
4, 192, Note_on_c, 1, 55, 75
4, 281, Note_on_c, 1, 59, 0
4, 281, Note_on_c, 1, 55, 0
4, 432, Note_on_c, 1, 71, 75
4, 432, Note_on_c, 1, 67, 75
4, 477, Note_on_c, 1, 71, 0
4, 477, Note_on_c, 1, 67, 0
4, 480, Note_on_c, 1, 69, 75
4, 480, Note_on_c, 1, 66, 75
4, 525, Note_on_c, 1, 69, 0
4, 525, Note_on_c, 1, 66, 0
4, 528, Note_on_c, 1, 72, 75
4, 528, Note_on_c, 1, 69, 75
4, 573, Note_on_c, 1, 72, 0
4, 573, Note_on_c, 1, 69, 0
4, 576, Note_on_c, 1, 71, 75
4, 576, Note_on_c, 1, 67, 75
4, 665, Note_on_c, 1, 71, 0
4, 665, Note_on_c, 1, 67, 0
4, 816, Note_on_c, 1, 71, 75
4, 816, Note_on_c, 1, 67, 75
4, 861, Note_on_c, 1, 71, 0
4, 861, Note_on_c, 1, 67, 0
4, 864, Note_on_c, 1, 69, 75
4, 864, Note_on_c, 1, 66, 75
4, 909, Note_on_c, 1, 69, 0
4, 909, Note_on_c, 1, 66, 0
4, 912, Note_on_c, 1, 72, 75
4, 912, Note_on_c, 1, 69, 75
4, 957, Note_on_c, 1, 72, 0
4, 957, Note_on_c, 1, 69, 0
4, 960, Note_on_c, 1, 71, 75
4, 960, Note_on_c, 1, 67, 75
4, 1049, Note_on_c, 1, 71, 0
4, 1049, Note_on_c, 1, 67, 0
4, 1104, Note_on_c, 1, 72, 75
4, 1104, Note_on_c, 1, 67, 75
4, 1149, Note_on_c, 1, 72, 0
4, 1149, Note_on_c, 1, 67, 0
4, 1152, Note_on_c, 1, 71, 75
4, 1152, Note_on_c, 1, 67, 75
4, 1241, Note_on_c, 1, 71, 0
4, 1241, Note_on_c, 1, 67, 0
4, 1392, Note_on_c, 1, 71, 75
4, 1437, Note_on_c, 1, 71, 0
4, 1440, Note_on_c, 1, 69, 75
4, 1485, Note_on_c, 1, 69, 0
4, 1488, Note_on_c, 1, 62, 75
4, 1533, Note_on_c, 1, 62, 0
4, 1536, Note_on_c, 1, 67, 75
4, 1625, Note_on_c, 1, 67, 0
4, 1728, Note_on_c, 1, 54, 80
4, 1728, Note_on_c, 1, 42, 80
4, 1773, Note_on_c, 1, 54, 0
4, 1773, Note_on_c, 1, 42, 0
4, 1776, Note_on_c, 1, 52, 80
4, 1776, Note_on_c, 1, 40, 80
4, 1821, Note_on_c, 1, 52, 0
4, 1821, Note_on_c, 1, 40, 0
4, 1824, Note_on_c, 1, 50, 80
4, 1824, Note_on_c, 1, 38, 80
4, 1869, Note_on_c, 1, 50, 0
4, 1869, Note_on_c, 1, 38, 0
4, 1872, Note_on_c, 1, 48, 80
4, 1872, Note_on_c, 1, 36, 80
4, 1917, Note_on_c, 1, 48, 0
4, 1917, Note_on_c, 1, 36, 0
4, 1920, Note_on_c, 1, 47, 80
4, 1920, Note_on_c, 1, 35, 80
4, 2009, Note_on_c, 1, 47, 0
4, 2009, Note_on_c, 1, 35, 0
4, 2064, Note_on_c, 1, 52, 75
4, 2079, Note_on_c, 1, 52, 0
4, 2080, Note_on_c, 1, 54, 75
4, 2095, Note_on_c, 1, 54, 0
4, 2096, Note_on_c, 1, 52, 75
4, 2111, Note_on_c, 1, 52, 0
4, 2112, Note_on_c, 1, 50, 75
4, 2157, Note_on_c, 1, 50, 0
4, 2160, Note_on_c, 1, 48, 75
4, 2175, Note_on_c, 1, 48, 0
4, 2176, Note_on_c, 1, 50, 75
4, 2191, Note_on_c, 1, 50, 0
4, 2192, Note_on_c, 1, 48, 75
4, 2207, Note_on_c, 1, 48, 0
4, 2208, Note_on_c, 1, 47, 75
4, 2253, Note_on_c, 1, 47, 0
4, 2256, Note_on_c, 1, 45, 75
4, 2271, Note_on_c, 1, 45, 0
4, 2272, Note_on_c, 1, 47, 75
4, 2287, Note_on_c, 1, 47, 0
4, 2288, Note_on_c, 1, 45, 75
4, 2303, Note_on_c, 1, 45, 0
4, 2304, Note_on_c, 1, 43, 75
4, 2393, Note_on_c, 1, 43, 0
4, 2496, Note_on_c, 1, 59, 75
4, 2496, Note_on_c, 1, 55, 75
4, 2585, Note_on_c, 1, 59, 0
4, 2585, Note_on_c, 1, 55, 0
4, 2736, Note_on_c, 1, 71, 75
4, 2736, Note_on_c, 1, 67, 75
4, 2781, Note_on_c, 1, 71, 0
4, 2781, Note_on_c, 1, 67, 0
4, 2784, Note_on_c, 1, 69, 75
4, 2784, Note_on_c, 1, 66, 75
4, 2829, Note_on_c, 1, 69, 0
4, 2829, Note_on_c, 1, 66, 0
4, 2832, Note_on_c, 1, 72, 75
4, 2832, Note_on_c, 1, 69, 75
4, 2877, Note_on_c, 1, 72, 0
4, 2877, Note_on_c, 1, 69, 0
4, 2880, Note_on_c, 1, 71, 75
4, 2880, Note_on_c, 1, 67, 75
4, 2969, Note_on_c, 1, 71, 0
4, 2969, Note_on_c, 1, 67, 0
4, 3120, Note_on_c, 1, 71, 75
4, 3120, Note_on_c, 1, 67, 75
4, 3165, Note_on_c, 1, 71, 0
4, 3165, Note_on_c, 1, 67, 0
4, 3168, Note_on_c, 1, 69, 75
4, 3168, Note_on_c, 1, 66, 75
4, 3213, Note_on_c, 1, 69, 0
4, 3213, Note_on_c, 1, 66, 0
4, 3216, Note_on_c, 1, 72, 75
4, 3216, Note_on_c, 1, 69, 75
4, 3261, Note_on_c, 1, 72, 0
4, 3261, Note_on_c, 1, 69, 0
4, 3264, Note_on_c, 1, 71, 75
4, 3264, Note_on_c, 1, 67, 75
4, 3501, Note_on_c, 1, 71, 0
4, 3501, Note_on_c, 1, 67, 0
4, 3504, Note_on_c, 1, 72, 75
4, 3504, Note_on_c, 1, 67, 75
4, 3524, Note_on_c, 1, 72, 0
4, 3524, Note_on_c, 1, 67, 0
4, 3552, Note_on_c, 1, 72, 75
4, 3552, Note_on_c, 1, 67, 75
4, 3572, Note_on_c, 1, 72, 0
4, 3572, Note_on_c, 1, 67, 0
4, 3600, Note_on_c, 1, 72, 75
4, 3600, Note_on_c, 1, 67, 75
4, 3620, Note_on_c, 1, 72, 0
4, 3620, Note_on_c, 1, 67, 0
4, 3648, Note_on_c, 1, 72, 75
4, 3648, Note_on_c, 1, 67, 75
4, 3737, Note_on_c, 1, 72, 0
4, 3737, Note_on_c, 1, 67, 0
4, 3888, Note_on_c, 1, 71, 75
4, 3888, Note_on_c, 1, 67, 75
4, 3908, Note_on_c, 1, 71, 0
4, 3908, Note_on_c, 1, 67, 0
4, 3936, Note_on_c, 1, 71, 75
4, 3936, Note_on_c, 1, 67, 75
4, 3956, Note_on_c, 1, 71, 0
4, 3956, Note_on_c, 1, 67, 0
4, 3984, Note_on_c, 1, 71, 75
4, 3984, Note_on_c, 1, 67, 75
4, 4004, Note_on_c, 1, 71, 0
4, 4004, Note_on_c, 1, 67, 0
4, 4032, Note_on_c, 1, 71, 75
4, 4032, Note_on_c, 1, 67, 75
4, 4121, Note_on_c, 1, 71, 0
4, 4121, Note_on_c, 1, 67, 0
4, 4272, Note_on_c, 1, 69, 75
4, 4317, Note_on_c, 1, 69, 0
4, 4320, Note_on_c, 1, 66, 75
4, 4365, Note_on_c, 1, 66, 0
4, 4368, Note_on_c, 1, 67, 75
4, 4413, Note_on_c, 1, 67, 0
4, 4416, Note_on_c, 1, 60, 75
4, 4549, Note_on_c, 1, 60, 0
4, 4560, Note_on_c, 1, 61, 75
4, 4605, Note_on_c, 1, 61, 0
4, 4608, Note_on_c, 1, 62, 75
4, 4653, Note_on_c, 1, 62, 0
4, 4656, Note_on_c, 1, 57, 75
4, 4701, Note_on_c, 1, 57, 0
4, 4704, Note_on_c, 1, 50, 75
4, 4793, Note_on_c, 1, 50, 0
4, 4800, Note_on_c, 1, 50, 75
4, 4823, Note_on_c, 1, 50, 0
4, 4824, Note_on_c, 1, 57, 75
4, 4847, Note_on_c, 1, 57, 0
4, 4848, Note_on_c, 1, 54, 75
4, 4871, Note_on_c, 1, 54, 0
4, 4872, Note_on_c, 1, 57, 75
4, 4895, Note_on_c, 1, 57, 0
4, 4896, Note_on_c, 1, 50, 75
4, 4919, Note_on_c, 1, 50, 0
4, 4920, Note_on_c, 1, 57, 75
4, 4943, Note_on_c, 1, 57, 0
4, 4944, Note_on_c, 1, 54, 75
4, 4967, Note_on_c, 1, 54, 0
4, 4968, Note_on_c, 1, 57, 75
4, 4991, Note_on_c, 1, 57, 0
4, 4992, Note_on_c, 1, 52, 75
4, 5015, Note_on_c, 1, 52, 0
4, 5016, Note_on_c, 1, 57, 75
4, 5039, Note_on_c, 1, 57, 0
4, 5040, Note_on_c, 1, 55, 75
4, 5063, Note_on_c, 1, 55, 0
4, 5064, Note_on_c, 1, 57, 75
4, 5087, Note_on_c, 1, 57, 0
4, 5088, Note_on_c, 1, 52, 75
4, 5111, Note_on_c, 1, 52, 0
4, 5112, Note_on_c, 1, 57, 75
4, 5135, Note_on_c, 1, 57, 0
4, 5136, Note_on_c, 1, 55, 75
4, 5159, Note_on_c, 1, 55, 0
4, 5160, Note_on_c, 1, 57, 75
4, 5183, Note_on_c, 1, 57, 0
4, 5184, Note_on_c, 1, 49, 75
4, 5207, Note_on_c, 1, 49, 0
4, 5208, Note_on_c, 1, 57, 75
4, 5231, Note_on_c, 1, 57, 0
4, 5232, Note_on_c, 1, 52, 75
4, 5255, Note_on_c, 1, 52, 0
4, 5256, Note_on_c, 1, 57, 75
4, 5279, Note_on_c, 1, 57, 0
4, 5280, Note_on_c, 1, 49, 75
4, 5303, Note_on_c, 1, 49, 0
4, 5304, Note_on_c, 1, 57, 75
4, 5327, Note_on_c, 1, 57, 0
4, 5328, Note_on_c, 1, 52, 75
4, 5351, Note_on_c, 1, 52, 0
4, 5352, Note_on_c, 1, 57, 75
4, 5375, Note_on_c, 1, 57, 0
4, 5376, Note_on_c, 1, 50, 75
4, 5399, Note_on_c, 1, 50, 0
4, 5400, Note_on_c, 1, 57, 75
4, 5423, Note_on_c, 1, 57, 0
4, 5424, Note_on_c, 1, 54, 75
4, 5447, Note_on_c, 1, 54, 0
4, 5448, Note_on_c, 1, 57, 75
4, 5471, Note_on_c, 1, 57, 0
4, 5472, Note_on_c, 1, 50, 75
4, 5495, Note_on_c, 1, 50, 0
4, 5496, Note_on_c, 1, 57, 75
4, 5519, Note_on_c, 1, 57, 0
4, 5520, Note_on_c, 1, 54, 75
4, 5543, Note_on_c, 1, 54, 0
4, 5544, Note_on_c, 1, 57, 75
4, 5567, Note_on_c, 1, 57, 0
4, 5568, Note_on_c, 1, 54, 75
4, 5657, Note_on_c, 1, 54, 0
4, 5760, Note_on_c, 1, 55, 75
4, 5783, Note_on_c, 1, 55, 0
4, 5784, Note_on_c, 1, 67, 75
4, 5807, Note_on_c, 1, 67, 0
4, 5808, Note_on_c, 1, 54, 75
4, 5831, Note_on_c, 1, 54, 0
4, 5832, Note_on_c, 1, 66, 75
4, 5855, Note_on_c, 1, 66, 0
4, 5856, Note_on_c, 1, 52, 75
4, 5879, Note_on_c, 1, 52, 0
4, 5880, Note_on_c, 1, 64, 75
4, 5903, Note_on_c, 1, 64, 0
4, 5904, Note_on_c, 1, 51, 75
4, 5927, Note_on_c, 1, 51, 0
4, 5928, Note_on_c, 1, 63, 75
4, 5951, Note_on_c, 1, 63, 0
4, 5952, Note_on_c, 1, 52, 75
4, 6041, Note_on_c, 1, 52, 0
4, 6144, Note_on_c, 1, 54, 75
4, 6167, Note_on_c, 1, 54, 0
4, 6168, Note_on_c, 1, 66, 75
4, 6191, Note_on_c, 1, 66, 0
4, 6192, Note_on_c, 1, 52, 75
4, 6215, Note_on_c, 1, 52, 0
4, 6216, Note_on_c, 1, 64, 75
4, 6239, Note_on_c, 1, 64, 0
4, 6240, Note_on_c, 1, 50, 75
4, 6263, Note_on_c, 1, 50, 0
4, 6264, Note_on_c, 1, 62, 75
4, 6287, Note_on_c, 1, 62, 0
4, 6288, Note_on_c, 1, 49, 75
4, 6311, Note_on_c, 1, 49, 0
4, 6312, Note_on_c, 1, 61, 75
4, 6335, Note_on_c, 1, 61, 0
4, 6336, Note_on_c, 1, 50, 75
4, 6425, Note_on_c, 1, 50, 0
4, 6528, Note_on_c, 1, 52, 75
4, 6551, Note_on_c, 1, 52, 0
4, 6552, Note_on_c, 1, 64, 75
4, 6575, Note_on_c, 1, 64, 0
4, 6576, Note_on_c, 1, 50, 75
4, 6599, Note_on_c, 1, 50, 0
4, 6600, Note_on_c, 1, 62, 75
4, 6623, Note_on_c, 1, 62, 0
4, 6624, Note_on_c, 1, 49, 75
4, 6647, Note_on_c, 1, 49, 0
4, 6648, Note_on_c, 1, 61, 75
4, 6671, Note_on_c, 1, 61, 0
4, 6672, Note_on_c, 1, 47, 75
4, 6695, Note_on_c, 1, 47, 0
4, 6696, Note_on_c, 1, 59, 75
4, 6719, Note_on_c, 1, 59, 0
4, 6720, Note_on_c, 1, 45, 75
4, 6809, Note_on_c, 1, 45, 0
4, 6864, Note_on_c, 1, 49, 75
4, 6909, Note_on_c, 1, 49, 0
4, 6912, Note_on_c, 1, 50, 75
4, 6935, Note_on_c, 1, 50, 0
4, 6936, Note_on_c, 1, 57, 75
4, 6959, Note_on_c, 1, 57, 0
4, 6960, Note_on_c, 1, 54, 75
4, 6983, Note_on_c, 1, 54, 0
4, 6984, Note_on_c, 1, 57, 75
4, 7007, Note_on_c, 1, 57, 0
4, 7008, Note_on_c, 1, 52, 75
4, 7031, Note_on_c, 1, 52, 0
4, 7032, Note_on_c, 1, 57, 75
4, 7055, Note_on_c, 1, 57, 0
4, 7056, Note_on_c, 1, 55, 75
4, 7079, Note_on_c, 1, 55, 0
4, 7080, Note_on_c, 1, 57, 75
4, 7103, Note_on_c, 1, 57, 0
4, 7104, Note_on_c, 1, 50, 75
4, 7127, Note_on_c, 1, 50, 0
4, 7128, Note_on_c, 1, 57, 75
4, 7151, Note_on_c, 1, 57, 0
4, 7152, Note_on_c, 1, 54, 75
4, 7175, Note_on_c, 1, 54, 0
4, 7176, Note_on_c, 1, 57, 75
4, 7199, Note_on_c, 1, 57, 0
4, 7200, Note_on_c, 1, 52, 75
4, 7223, Note_on_c, 1, 52, 0
4, 7224, Note_on_c, 1, 57, 75
4, 7247, Note_on_c, 1, 57, 0
4, 7248, Note_on_c, 1, 55, 75
4, 7271, Note_on_c, 1, 55, 0
4, 7272, Note_on_c, 1, 57, 75
4, 7295, Note_on_c, 1, 57, 0
4, 7296, Note_on_c, 1, 50, 75
4, 7319, Note_on_c, 1, 50, 0
4, 7320, Note_on_c, 1, 57, 75
4, 7343, Note_on_c, 1, 57, 0
4, 7344, Note_on_c, 1, 54, 75
4, 7367, Note_on_c, 1, 54, 0
4, 7368, Note_on_c, 1, 57, 75
4, 7391, Note_on_c, 1, 57, 0
4, 7392, Note_on_c, 1, 52, 75
4, 7415, Note_on_c, 1, 52, 0
4, 7416, Note_on_c, 1, 57, 75
4, 7439, Note_on_c, 1, 57, 0
4, 7440, Note_on_c, 1, 55, 75
4, 7463, Note_on_c, 1, 55, 0
4, 7464, Note_on_c, 1, 57, 75
4, 7487, Note_on_c, 1, 57, 0
4, 7488, Note_on_c, 1, 50, 75
4, 7511, Note_on_c, 1, 50, 0
4, 7512, Note_on_c, 1, 57, 75
4, 7535, Note_on_c, 1, 57, 0
4, 7536, Note_on_c, 1, 54, 75
4, 7559, Note_on_c, 1, 54, 0
4, 7560, Note_on_c, 1, 57, 75
4, 7583, Note_on_c, 1, 57, 0
4, 7584, Note_on_c, 1, 52, 75
4, 7607, Note_on_c, 1, 52, 0
4, 7608, Note_on_c, 1, 57, 75
4, 7631, Note_on_c, 1, 57, 0
4, 7632, Note_on_c, 1, 55, 75
4, 7655, Note_on_c, 1, 55, 0
4, 7656, Note_on_c, 1, 57, 75
4, 7679, Note_on_c, 1, 57, 0
4, 7680, Note_on_c, 1, 50, 75
4, 7703, Note_on_c, 1, 50, 0
4, 7704, Note_on_c, 1, 57, 75
4, 7727, Note_on_c, 1, 57, 0
4, 7728, Note_on_c, 1, 54, 75
4, 7751, Note_on_c, 1, 54, 0
4, 7752, Note_on_c, 1, 57, 75
4, 7775, Note_on_c, 1, 57, 0
4, 7776, Note_on_c, 1, 54, 75
4, 7799, Note_on_c, 1, 54, 0
4, 7800, Note_on_c, 1, 62, 75
4, 7823, Note_on_c, 1, 62, 0
4, 7824, Note_on_c, 1, 57, 75
4, 7847, Note_on_c, 1, 57, 0
4, 7848, Note_on_c, 1, 62, 75
4, 7871, Note_on_c, 1, 62, 0
4, 7872, Note_on_c, 1, 55, 75
4, 7895, Note_on_c, 1, 55, 0
4, 7896, Note_on_c, 1, 62, 75
4, 7919, Note_on_c, 1, 62, 0
4, 7920, Note_on_c, 1, 59, 75
4, 7943, Note_on_c, 1, 59, 0
4, 7944, Note_on_c, 1, 62, 75
4, 7967, Note_on_c, 1, 62, 0
4, 7968, Note_on_c, 1, 55, 75
4, 8013, Note_on_c, 1, 55, 0
4, 8208, Note_on_c, 1, 57, 75
4, 8253, Note_on_c, 1, 57, 0
4, 8256, Note_on_c, 1, 59, 75
4, 8279, Note_on_c, 1, 59, 0
4, 8280, Note_on_c, 1, 68, 75
4, 8303, Note_on_c, 1, 68, 0
4, 8304, Note_on_c, 1, 62, 75
4, 8327, Note_on_c, 1, 62, 0
4, 8328, Note_on_c, 1, 68, 75
4, 8351, Note_on_c, 1, 68, 0
4, 8352, Note_on_c, 1, 59, 75
4, 8375, Note_on_c, 1, 59, 0
4, 8376, Note_on_c, 1, 68, 75
4, 8399, Note_on_c, 1, 68, 0
4, 8400, Note_on_c, 1, 62, 75
4, 8423, Note_on_c, 1, 62, 0
4, 8424, Note_on_c, 1, 68, 75
4, 8447, Note_on_c, 1, 68, 0
4, 8448, Note_on_c, 1, 57, 75
4, 8471, Note_on_c, 1, 57, 0
4, 8472, Note_on_c, 1, 69, 75
4, 8495, Note_on_c, 1, 69, 0
4, 8496, Note_on_c, 1, 61, 75
4, 8519, Note_on_c, 1, 61, 0
4, 8520, Note_on_c, 1, 69, 75
4, 8543, Note_on_c, 1, 69, 0
4, 8544, Note_on_c, 1, 57, 75
4, 8567, Note_on_c, 1, 57, 0
4, 8568, Note_on_c, 1, 69, 75
4, 8591, Note_on_c, 1, 69, 0
4, 8592, Note_on_c, 1, 61, 75
4, 8615, Note_on_c, 1, 61, 0
4, 8616, Note_on_c, 1, 69, 75
4, 8639, Note_on_c, 1, 69, 0
4, 8640, Note_on_c, 1, 62, 75
4, 8663, Note_on_c, 1, 62, 0
4, 8664, Note_on_c, 1, 69, 75
4, 8687, Note_on_c, 1, 69, 0
4, 8688, Note_on_c, 1, 66, 75
4, 8711, Note_on_c, 1, 66, 0
4, 8712, Note_on_c, 1, 69, 75
4, 8735, Note_on_c, 1, 69, 0
4, 8736, Note_on_c, 1, 62, 75
4, 8759, Note_on_c, 1, 62, 0
4, 8760, Note_on_c, 1, 69, 75
4, 8783, Note_on_c, 1, 69, 0
4, 8784, Note_on_c, 1, 66, 75
4, 8807, Note_on_c, 1, 66, 0
4, 8808, Note_on_c, 1, 69, 75
4, 8831, Note_on_c, 1, 69, 0
4, 8832, Note_on_c, 1, 67, 75
4, 8921, Note_on_c, 1, 67, 0
4, 9072, Note_on_c, 1, 54, 75
4, 9117, Note_on_c, 1, 54, 0
4, 9120, Note_on_c, 1, 55, 75
4, 9165, Note_on_c, 1, 55, 0
4, 9168, Note_on_c, 1, 57, 75
4, 9213, Note_on_c, 1, 57, 0
4, 9216, Note_on_c, 1, 59, 75
4, 9239, Note_on_c, 1, 59, 0
4, 9240, Note_on_c, 1, 68, 75
4, 9263, Note_on_c, 1, 68, 0
4, 9264, Note_on_c, 1, 62, 75
4, 9287, Note_on_c, 1, 62, 0
4, 9288, Note_on_c, 1, 68, 75
4, 9311, Note_on_c, 1, 68, 0
4, 9312, Note_on_c, 1, 59, 75
4, 9335, Note_on_c, 1, 59, 0
4, 9336, Note_on_c, 1, 68, 75
4, 9359, Note_on_c, 1, 68, 0
4, 9360, Note_on_c, 1, 62, 75
4, 9383, Note_on_c, 1, 62, 0
4, 9384, Note_on_c, 1, 68, 75
4, 9407, Note_on_c, 1, 68, 0
4, 9408, Note_on_c, 1, 57, 75
4, 9431, Note_on_c, 1, 57, 0
4, 9432, Note_on_c, 1, 69, 75
4, 9455, Note_on_c, 1, 69, 0
4, 9456, Note_on_c, 1, 61, 75
4, 9479, Note_on_c, 1, 61, 0
4, 9480, Note_on_c, 1, 69, 75
4, 9503, Note_on_c, 1, 69, 0
4, 9504, Note_on_c, 1, 57, 75
4, 9527, Note_on_c, 1, 57, 0
4, 9528, Note_on_c, 1, 69, 75
4, 9551, Note_on_c, 1, 69, 0
4, 9552, Note_on_c, 1, 61, 75
4, 9575, Note_on_c, 1, 61, 0
4, 9576, Note_on_c, 1, 69, 75
4, 9599, Note_on_c, 1, 69, 0
4, 9600, Note_on_c, 1, 62, 75
4, 9623, Note_on_c, 1, 62, 0
4, 9624, Note_on_c, 1, 69, 75
4, 9647, Note_on_c, 1, 69, 0
4, 9648, Note_on_c, 1, 66, 75
4, 9671, Note_on_c, 1, 66, 0
4, 9672, Note_on_c, 1, 69, 75
4, 9695, Note_on_c, 1, 69, 0
4, 9696, Note_on_c, 1, 62, 75
4, 9719, Note_on_c, 1, 62, 0
4, 9720, Note_on_c, 1, 69, 75
4, 9743, Note_on_c, 1, 69, 0
4, 9744, Note_on_c, 1, 66, 75
4, 9767, Note_on_c, 1, 66, 0
4, 9768, Note_on_c, 1, 69, 75
4, 9791, Note_on_c, 1, 69, 0
4, 9792, Note_on_c, 1, 67, 75
4, 9881, Note_on_c, 1, 67, 0
4, 10032, Note_on_c, 1, 54, 75
4, 10077, Note_on_c, 1, 54, 0
4, 10080, Note_on_c, 1, 55, 75
4, 10125, Note_on_c, 1, 55, 0
4, 10128, Note_on_c, 1, 57, 75
4, 10173, Note_on_c, 1, 57, 0
4, 10176, Note_on_c, 1, 50, 75
4, 10221, Note_on_c, 1, 50, 0
4, 10224, Note_on_c, 1, 54, 75
4, 10269, Note_on_c, 1, 54, 0
4, 10272, Note_on_c, 1, 55, 75
4, 10361, Note_on_c, 1, 55, 0
4, 10416, Note_on_c, 1, 54, 75
4, 10461, Note_on_c, 1, 54, 0
4, 10464, Note_on_c, 1, 55, 75
4, 10509, Note_on_c, 1, 55, 0
4, 10512, Note_on_c, 1, 57, 75
4, 10557, Note_on_c, 1, 57, 0
4, 10560, Note_on_c, 1, 50, 75
4, 10583, Note_on_c, 1, 50, 0
4, 10584, Note_on_c, 1, 62, 75
4, 10607, Note_on_c, 1, 62, 0
4, 10608, Note_on_c, 1, 50, 75
4, 10631, Note_on_c, 1, 50, 0
4, 10632, Note_on_c, 1, 62, 75
4, 10655, Note_on_c, 1, 62, 0
4, 10656, Note_on_c, 1, 50, 75
4, 10679, Note_on_c, 1, 50, 0
4, 10680, Note_on_c, 1, 62, 75
4, 10703, Note_on_c, 1, 62, 0
4, 10704, Note_on_c, 1, 50, 75
4, 10727, Note_on_c, 1, 50, 0
4, 10728, Note_on_c, 1, 62, 75
4, 10751, Note_on_c, 1, 62, 0
4, 10752, Note_on_c, 1, 50, 75
4, 10775, Note_on_c, 1, 50, 0
4, 10776, Note_on_c, 1, 62, 75
4, 10799, Note_on_c, 1, 62, 0
4, 10800, Note_on_c, 1, 50, 75
4, 10823, Note_on_c, 1, 50, 0
4, 10824, Note_on_c, 1, 62, 75
4, 10847, Note_on_c, 1, 62, 0
4, 10848, Note_on_c, 1, 50, 75
4, 10871, Note_on_c, 1, 50, 0
4, 10872, Note_on_c, 1, 62, 75
4, 10895, Note_on_c, 1, 62, 0
4, 10896, Note_on_c, 1, 50, 75
4, 10919, Note_on_c, 1, 50, 0
4, 10920, Note_on_c, 1, 62, 75
4, 10943, Note_on_c, 1, 62, 0
4, 10944, Note_on_c, 1, 50, 75
4, 11033, Note_on_c, 1, 50, 0
4, 11136, Note_on_c, 1, 59, 75
4, 11136, Note_on_c, 1, 55, 75
4, 11225, Note_on_c, 1, 59, 0
4, 11225, Note_on_c, 1, 55, 0
4, 11376, Note_on_c, 1, 71, 75
4, 11376, Note_on_c, 1, 67, 75
4, 11421, Note_on_c, 1, 71, 0
4, 11421, Note_on_c, 1, 67, 0
4, 11424, Note_on_c, 1, 69, 75
4, 11424, Note_on_c, 1, 66, 75
4, 11469, Note_on_c, 1, 69, 0
4, 11469, Note_on_c, 1, 66, 0
4, 11472, Note_on_c, 1, 72, 75
4, 11472, Note_on_c, 1, 69, 75
4, 11517, Note_on_c, 1, 72, 0
4, 11517, Note_on_c, 1, 69, 0
4, 11520, Note_on_c, 1, 71, 75
4, 11520, Note_on_c, 1, 67, 75
4, 11609, Note_on_c, 1, 71, 0
4, 11609, Note_on_c, 1, 67, 0
4, 11760, Note_on_c, 1, 71, 75
4, 11760, Note_on_c, 1, 67, 75
4, 11805, Note_on_c, 1, 71, 0
4, 11805, Note_on_c, 1, 67, 0
4, 11808, Note_on_c, 1, 69, 75
4, 11808, Note_on_c, 1, 66, 75
4, 11853, Note_on_c, 1, 69, 0
4, 11853, Note_on_c, 1, 66, 0
4, 11856, Note_on_c, 1, 72, 75
4, 11856, Note_on_c, 1, 69, 75
4, 11901, Note_on_c, 1, 72, 0
4, 11901, Note_on_c, 1, 69, 0
4, 11904, Note_on_c, 1, 71, 75
4, 11904, Note_on_c, 1, 67, 75
4, 11993, Note_on_c, 1, 71, 0
4, 11993, Note_on_c, 1, 67, 0
4, 12048, Note_on_c, 1, 72, 75
4, 12048, Note_on_c, 1, 67, 75
4, 12093, Note_on_c, 1, 72, 0
4, 12093, Note_on_c, 1, 67, 0
4, 12096, Note_on_c, 1, 71, 75
4, 12096, Note_on_c, 1, 67, 75
4, 12185, Note_on_c, 1, 71, 0
4, 12185, Note_on_c, 1, 67, 0
4, 12336, Note_on_c, 1, 71, 75
4, 12381, Note_on_c, 1, 71, 0
4, 12384, Note_on_c, 1, 69, 75
4, 12429, Note_on_c, 1, 69, 0
4, 12432, Note_on_c, 1, 62, 75
4, 12477, Note_on_c, 1, 62, 0
4, 12480, Note_on_c, 1, 67, 75
4, 12569, Note_on_c, 1, 67, 0
4, 12672, Note_on_c, 1, 54, 80
4, 12672, Note_on_c, 1, 42, 80
4, 12717, Note_on_c, 1, 54, 0
4, 12717, Note_on_c, 1, 42, 0
4, 12720, Note_on_c, 1, 52, 80
4, 12720, Note_on_c, 1, 40, 80
4, 12765, Note_on_c, 1, 52, 0
4, 12765, Note_on_c, 1, 40, 0
4, 12768, Note_on_c, 1, 50, 80
4, 12768, Note_on_c, 1, 38, 80
4, 12813, Note_on_c, 1, 50, 0
4, 12813, Note_on_c, 1, 38, 0
4, 12816, Note_on_c, 1, 48, 80
4, 12816, Note_on_c, 1, 36, 80
4, 12861, Note_on_c, 1, 48, 0
4, 12861, Note_on_c, 1, 36, 0
4, 12864, Note_on_c, 1, 47, 80
4, 12864, Note_on_c, 1, 35, 80
4, 12953, Note_on_c, 1, 47, 0
4, 12953, Note_on_c, 1, 35, 0
4, 13008, Note_on_c, 1, 52, 75
4, 13023, Note_on_c, 1, 52, 0
4, 13024, Note_on_c, 1, 54, 75
4, 13039, Note_on_c, 1, 54, 0
4, 13040, Note_on_c, 1, 52, 75
4, 13055, Note_on_c, 1, 52, 0
4, 13056, Note_on_c, 1, 50, 75
4, 13101, Note_on_c, 1, 50, 0
4, 13104, Note_on_c, 1, 48, 75
4, 13119, Note_on_c, 1, 48, 0
4, 13120, Note_on_c, 1, 50, 75
4, 13135, Note_on_c, 1, 50, 0
4, 13136, Note_on_c, 1, 48, 75
4, 13151, Note_on_c, 1, 48, 0
4, 13152, Note_on_c, 1, 47, 75
4, 13197, Note_on_c, 1, 47, 0
4, 13200, Note_on_c, 1, 45, 75
4, 13215, Note_on_c, 1, 45, 0
4, 13216, Note_on_c, 1, 47, 75
4, 13231, Note_on_c, 1, 47, 0
4, 13232, Note_on_c, 1, 45, 75
4, 13247, Note_on_c, 1, 45, 0
4, 13248, Note_on_c, 1, 43, 75
4, 13337, Note_on_c, 1, 43, 0
4, 13440, Note_on_c, 1, 59, 75
4, 13440, Note_on_c, 1, 55, 75
4, 13529, Note_on_c, 1, 59, 0
4, 13529, Note_on_c, 1, 55, 0
4, 13680, Note_on_c, 1, 71, 75
4, 13680, Note_on_c, 1, 67, 75
4, 13725, Note_on_c, 1, 71, 0
4, 13725, Note_on_c, 1, 67, 0
4, 13728, Note_on_c, 1, 69, 75
4, 13728, Note_on_c, 1, 66, 75
4, 13773, Note_on_c, 1, 69, 0
4, 13773, Note_on_c, 1, 66, 0
4, 13776, Note_on_c, 1, 72, 75
4, 13776, Note_on_c, 1, 69, 75
4, 13821, Note_on_c, 1, 72, 0
4, 13821, Note_on_c, 1, 69, 0
4, 13824, Note_on_c, 1, 71, 75
4, 13824, Note_on_c, 1, 67, 75
4, 13913, Note_on_c, 1, 71, 0
4, 13913, Note_on_c, 1, 67, 0
4, 14064, Note_on_c, 1, 71, 75
4, 14064, Note_on_c, 1, 67, 75
4, 14109, Note_on_c, 1, 71, 0
4, 14109, Note_on_c, 1, 67, 0
4, 14112, Note_on_c, 1, 69, 75
4, 14112, Note_on_c, 1, 66, 75
4, 14157, Note_on_c, 1, 69, 0
4, 14157, Note_on_c, 1, 66, 0
4, 14160, Note_on_c, 1, 72, 75
4, 14160, Note_on_c, 1, 69, 75
4, 14205, Note_on_c, 1, 72, 0
4, 14205, Note_on_c, 1, 69, 0
4, 14208, Note_on_c, 1, 71, 75
4, 14208, Note_on_c, 1, 67, 75
4, 14445, Note_on_c, 1, 71, 0
4, 14445, Note_on_c, 1, 67, 0
4, 14448, Note_on_c, 1, 72, 75
4, 14448, Note_on_c, 1, 67, 75
4, 14468, Note_on_c, 1, 72, 0
4, 14468, Note_on_c, 1, 67, 0
4, 14496, Note_on_c, 1, 72, 75
4, 14496, Note_on_c, 1, 67, 75
4, 14516, Note_on_c, 1, 72, 0
4, 14516, Note_on_c, 1, 67, 0
4, 14544, Note_on_c, 1, 72, 75
4, 14544, Note_on_c, 1, 67, 75
4, 14564, Note_on_c, 1, 72, 0
4, 14564, Note_on_c, 1, 67, 0
4, 14592, Note_on_c, 1, 72, 75
4, 14592, Note_on_c, 1, 67, 75
4, 14681, Note_on_c, 1, 72, 0
4, 14681, Note_on_c, 1, 67, 0
4, 14832, Note_on_c, 1, 71, 75
4, 14832, Note_on_c, 1, 67, 75
4, 14852, Note_on_c, 1, 71, 0
4, 14852, Note_on_c, 1, 67, 0
4, 14880, Note_on_c, 1, 71, 75
4, 14880, Note_on_c, 1, 67, 75
4, 14900, Note_on_c, 1, 71, 0
4, 14900, Note_on_c, 1, 67, 0
4, 14928, Note_on_c, 1, 71, 75
4, 14928, Note_on_c, 1, 67, 75
4, 14948, Note_on_c, 1, 71, 0
4, 14948, Note_on_c, 1, 67, 0
4, 14976, Note_on_c, 1, 71, 75
4, 14976, Note_on_c, 1, 67, 75
4, 15065, Note_on_c, 1, 71, 0
4, 15065, Note_on_c, 1, 67, 0
4, 15216, Note_on_c, 1, 69, 75
4, 15261, Note_on_c, 1, 69, 0
4, 15264, Note_on_c, 1, 66, 75
4, 15309, Note_on_c, 1, 66, 0
4, 15312, Note_on_c, 1, 67, 75
4, 15357, Note_on_c, 1, 67, 0
4, 15360, Note_on_c, 1, 60, 75
4, 15493, Note_on_c, 1, 60, 0
4, 15504, Note_on_c, 1, 61, 75
4, 15549, Note_on_c, 1, 61, 0
4, 15552, Note_on_c, 1, 62, 75
4, 15597, Note_on_c, 1, 62, 0
4, 15600, Note_on_c, 1, 57, 75
4, 15645, Note_on_c, 1, 57, 0
4, 15648, Note_on_c, 1, 50, 75
4, 15737, Note_on_c, 1, 50, 0
4, 15744, Note_on_c, 1, 50, 75
4, 15767, Note_on_c, 1, 50, 0
4, 15768, Note_on_c, 1, 57, 75
4, 15791, Note_on_c, 1, 57, 0
4, 15792, Note_on_c, 1, 54, 75
4, 15815, Note_on_c, 1, 54, 0
4, 15816, Note_on_c, 1, 57, 75
4, 15839, Note_on_c, 1, 57, 0
4, 15840, Note_on_c, 1, 50, 75
4, 15863, Note_on_c, 1, 50, 0
4, 15864, Note_on_c, 1, 57, 75
4, 15887, Note_on_c, 1, 57, 0
4, 15888, Note_on_c, 1, 54, 75
4, 15911, Note_on_c, 1, 54, 0
4, 15912, Note_on_c, 1, 57, 75
4, 15935, Note_on_c, 1, 57, 0
4, 15936, Note_on_c, 1, 52, 75
4, 15959, Note_on_c, 1, 52, 0
4, 15960, Note_on_c, 1, 57, 75
4, 15983, Note_on_c, 1, 57, 0
4, 15984, Note_on_c, 1, 55, 75
4, 16007, Note_on_c, 1, 55, 0
4, 16008, Note_on_c, 1, 57, 75
4, 16031, Note_on_c, 1, 57, 0
4, 16032, Note_on_c, 1, 52, 75
4, 16055, Note_on_c, 1, 52, 0
4, 16056, Note_on_c, 1, 57, 75
4, 16079, Note_on_c, 1, 57, 0
4, 16080, Note_on_c, 1, 55, 75
4, 16103, Note_on_c, 1, 55, 0
4, 16104, Note_on_c, 1, 57, 75
4, 16127, Note_on_c, 1, 57, 0
4, 16128, Note_on_c, 1, 49, 75
4, 16151, Note_on_c, 1, 49, 0
4, 16152, Note_on_c, 1, 57, 75
4, 16175, Note_on_c, 1, 57, 0
4, 16176, Note_on_c, 1, 52, 75
4, 16199, Note_on_c, 1, 52, 0
4, 16200, Note_on_c, 1, 57, 75
4, 16223, Note_on_c, 1, 57, 0
4, 16224, Note_on_c, 1, 49, 75
4, 16247, Note_on_c, 1, 49, 0
4, 16248, Note_on_c, 1, 57, 75
4, 16271, Note_on_c, 1, 57, 0
4, 16272, Note_on_c, 1, 52, 75
4, 16295, Note_on_c, 1, 52, 0
4, 16296, Note_on_c, 1, 57, 75
4, 16319, Note_on_c, 1, 57, 0
4, 16320, Note_on_c, 1, 50, 75
4, 16343, Note_on_c, 1, 50, 0
4, 16344, Note_on_c, 1, 57, 75
4, 16367, Note_on_c, 1, 57, 0
4, 16368, Note_on_c, 1, 54, 75
4, 16391, Note_on_c, 1, 54, 0
4, 16392, Note_on_c, 1, 57, 75
4, 16415, Note_on_c, 1, 57, 0
4, 16416, Note_on_c, 1, 50, 75
4, 16439, Note_on_c, 1, 50, 0
4, 16440, Note_on_c, 1, 57, 75
4, 16463, Note_on_c, 1, 57, 0
4, 16464, Note_on_c, 1, 54, 75
4, 16487, Note_on_c, 1, 54, 0
4, 16488, Note_on_c, 1, 57, 75
4, 16511, Note_on_c, 1, 57, 0
4, 16512, Note_on_c, 1, 54, 75
4, 16601, Note_on_c, 1, 54, 0
4, 16704, Note_on_c, 1, 55, 75
4, 16727, Note_on_c, 1, 55, 0
4, 16728, Note_on_c, 1, 67, 75
4, 16751, Note_on_c, 1, 67, 0
4, 16752, Note_on_c, 1, 54, 75
4, 16775, Note_on_c, 1, 54, 0
4, 16776, Note_on_c, 1, 66, 75
4, 16799, Note_on_c, 1, 66, 0
4, 16800, Note_on_c, 1, 52, 75
4, 16823, Note_on_c, 1, 52, 0
4, 16824, Note_on_c, 1, 64, 75
4, 16847, Note_on_c, 1, 64, 0
4, 16848, Note_on_c, 1, 51, 75
4, 16871, Note_on_c, 1, 51, 0
4, 16872, Note_on_c, 1, 63, 75
4, 16895, Note_on_c, 1, 63, 0
4, 16896, Note_on_c, 1, 52, 75
4, 16985, Note_on_c, 1, 52, 0
4, 17088, Note_on_c, 1, 54, 75
4, 17111, Note_on_c, 1, 54, 0
4, 17112, Note_on_c, 1, 66, 75
4, 17135, Note_on_c, 1, 66, 0
4, 17136, Note_on_c, 1, 52, 75
4, 17159, Note_on_c, 1, 52, 0
4, 17160, Note_on_c, 1, 64, 75
4, 17183, Note_on_c, 1, 64, 0
4, 17184, Note_on_c, 1, 50, 75
4, 17207, Note_on_c, 1, 50, 0
4, 17208, Note_on_c, 1, 62, 75
4, 17231, Note_on_c, 1, 62, 0
4, 17232, Note_on_c, 1, 49, 75
4, 17255, Note_on_c, 1, 49, 0
4, 17256, Note_on_c, 1, 61, 75
4, 17279, Note_on_c, 1, 61, 0
4, 17280, Note_on_c, 1, 50, 75
4, 17369, Note_on_c, 1, 50, 0
4, 17472, Note_on_c, 1, 52, 75
4, 17495, Note_on_c, 1, 52, 0
4, 17496, Note_on_c, 1, 64, 75
4, 17519, Note_on_c, 1, 64, 0
4, 17520, Note_on_c, 1, 50, 75
4, 17543, Note_on_c, 1, 50, 0
4, 17544, Note_on_c, 1, 62, 75
4, 17567, Note_on_c, 1, 62, 0
4, 17568, Note_on_c, 1, 49, 75
4, 17591, Note_on_c, 1, 49, 0
4, 17592, Note_on_c, 1, 61, 75
4, 17615, Note_on_c, 1, 61, 0
4, 17616, Note_on_c, 1, 47, 75
4, 17639, Note_on_c, 1, 47, 0
4, 17640, Note_on_c, 1, 59, 75
4, 17663, Note_on_c, 1, 59, 0
4, 17664, Note_on_c, 1, 45, 75
4, 17753, Note_on_c, 1, 45, 0
4, 17808, Note_on_c, 1, 49, 75
4, 17853, Note_on_c, 1, 49, 0
4, 17856, Note_on_c, 1, 50, 75
4, 17879, Note_on_c, 1, 50, 0
4, 17880, Note_on_c, 1, 57, 75
4, 17903, Note_on_c, 1, 57, 0
4, 17904, Note_on_c, 1, 54, 75
4, 17927, Note_on_c, 1, 54, 0
4, 17928, Note_on_c, 1, 57, 75
4, 17951, Note_on_c, 1, 57, 0
4, 17952, Note_on_c, 1, 52, 75
4, 17975, Note_on_c, 1, 52, 0
4, 17976, Note_on_c, 1, 57, 75
4, 17999, Note_on_c, 1, 57, 0
4, 18000, Note_on_c, 1, 55, 75
4, 18023, Note_on_c, 1, 55, 0
4, 18024, Note_on_c, 1, 57, 75
4, 18047, Note_on_c, 1, 57, 0
4, 18048, Note_on_c, 1, 50, 75
4, 18071, Note_on_c, 1, 50, 0
4, 18072, Note_on_c, 1, 57, 75
4, 18095, Note_on_c, 1, 57, 0
4, 18096, Note_on_c, 1, 54, 75
4, 18119, Note_on_c, 1, 54, 0
4, 18120, Note_on_c, 1, 57, 75
4, 18143, Note_on_c, 1, 57, 0
4, 18144, Note_on_c, 1, 52, 75
4, 18167, Note_on_c, 1, 52, 0
4, 18168, Note_on_c, 1, 57, 75
4, 18191, Note_on_c, 1, 57, 0
4, 18192, Note_on_c, 1, 55, 75
4, 18215, Note_on_c, 1, 55, 0
4, 18216, Note_on_c, 1, 57, 75
4, 18239, Note_on_c, 1, 57, 0
4, 18240, Note_on_c, 1, 50, 75
4, 18263, Note_on_c, 1, 50, 0
4, 18264, Note_on_c, 1, 57, 75
4, 18287, Note_on_c, 1, 57, 0
4, 18288, Note_on_c, 1, 54, 75
4, 18311, Note_on_c, 1, 54, 0
4, 18312, Note_on_c, 1, 57, 75
4, 18335, Note_on_c, 1, 57, 0
4, 18336, Note_on_c, 1, 52, 75
4, 18359, Note_on_c, 1, 52, 0
4, 18360, Note_on_c, 1, 57, 75
4, 18383, Note_on_c, 1, 57, 0
4, 18384, Note_on_c, 1, 55, 75
4, 18407, Note_on_c, 1, 55, 0
4, 18408, Note_on_c, 1, 57, 75
4, 18431, Note_on_c, 1, 57, 0
4, 18432, Note_on_c, 1, 50, 75
4, 18455, Note_on_c, 1, 50, 0
4, 18456, Note_on_c, 1, 57, 75
4, 18479, Note_on_c, 1, 57, 0
4, 18480, Note_on_c, 1, 54, 75
4, 18503, Note_on_c, 1, 54, 0
4, 18504, Note_on_c, 1, 57, 75
4, 18527, Note_on_c, 1, 57, 0
4, 18528, Note_on_c, 1, 52, 75
4, 18551, Note_on_c, 1, 52, 0
4, 18552, Note_on_c, 1, 57, 75
4, 18575, Note_on_c, 1, 57, 0
4, 18576, Note_on_c, 1, 55, 75
4, 18599, Note_on_c, 1, 55, 0
4, 18600, Note_on_c, 1, 57, 75
4, 18623, Note_on_c, 1, 57, 0
4, 18624, Note_on_c, 1, 50, 75
4, 18647, Note_on_c, 1, 50, 0
4, 18648, Note_on_c, 1, 57, 75
4, 18671, Note_on_c, 1, 57, 0
4, 18672, Note_on_c, 1, 54, 75
4, 18695, Note_on_c, 1, 54, 0
4, 18696, Note_on_c, 1, 57, 75
4, 18719, Note_on_c, 1, 57, 0
4, 18720, Note_on_c, 1, 54, 75
4, 18743, Note_on_c, 1, 54, 0
4, 18744, Note_on_c, 1, 62, 75
4, 18767, Note_on_c, 1, 62, 0
4, 18768, Note_on_c, 1, 57, 75
4, 18791, Note_on_c, 1, 57, 0
4, 18792, Note_on_c, 1, 62, 75
4, 18815, Note_on_c, 1, 62, 0
4, 18816, Note_on_c, 1, 55, 75
4, 18839, Note_on_c, 1, 55, 0
4, 18840, Note_on_c, 1, 62, 75
4, 18863, Note_on_c, 1, 62, 0
4, 18864, Note_on_c, 1, 59, 75
4, 18887, Note_on_c, 1, 59, 0
4, 18888, Note_on_c, 1, 62, 75
4, 18911, Note_on_c, 1, 62, 0
4, 18912, Note_on_c, 1, 55, 75
4, 18957, Note_on_c, 1, 55, 0
4, 19152, Note_on_c, 1, 57, 75
4, 19197, Note_on_c, 1, 57, 0
4, 19200, Note_on_c, 1, 59, 75
4, 19223, Note_on_c, 1, 59, 0
4, 19224, Note_on_c, 1, 68, 75
4, 19247, Note_on_c, 1, 68, 0
4, 19248, Note_on_c, 1, 62, 75
4, 19271, Note_on_c, 1, 62, 0
4, 19272, Note_on_c, 1, 68, 75
4, 19295, Note_on_c, 1, 68, 0
4, 19296, Note_on_c, 1, 59, 75
4, 19319, Note_on_c, 1, 59, 0
4, 19320, Note_on_c, 1, 68, 75
4, 19343, Note_on_c, 1, 68, 0
4, 19344, Note_on_c, 1, 62, 75
4, 19367, Note_on_c, 1, 62, 0
4, 19368, Note_on_c, 1, 68, 75
4, 19391, Note_on_c, 1, 68, 0
4, 19392, Note_on_c, 1, 57, 75
4, 19415, Note_on_c, 1, 57, 0
4, 19416, Note_on_c, 1, 69, 75
4, 19439, Note_on_c, 1, 69, 0
4, 19440, Note_on_c, 1, 61, 75
4, 19463, Note_on_c, 1, 61, 0
4, 19464, Note_on_c, 1, 69, 75
4, 19487, Note_on_c, 1, 69, 0
4, 19488, Note_on_c, 1, 57, 75
4, 19511, Note_on_c, 1, 57, 0
4, 19512, Note_on_c, 1, 69, 75
4, 19535, Note_on_c, 1, 69, 0
4, 19536, Note_on_c, 1, 61, 75
4, 19559, Note_on_c, 1, 61, 0
4, 19560, Note_on_c, 1, 69, 75
4, 19583, Note_on_c, 1, 69, 0
4, 19584, Note_on_c, 1, 62, 75
4, 19607, Note_on_c, 1, 62, 0
4, 19608, Note_on_c, 1, 69, 75
4, 19631, Note_on_c, 1, 69, 0
4, 19632, Note_on_c, 1, 66, 75
4, 19655, Note_on_c, 1, 66, 0
4, 19656, Note_on_c, 1, 69, 75
4, 19679, Note_on_c, 1, 69, 0
4, 19680, Note_on_c, 1, 62, 75
4, 19703, Note_on_c, 1, 62, 0
4, 19704, Note_on_c, 1, 69, 75
4, 19727, Note_on_c, 1, 69, 0
4, 19728, Note_on_c, 1, 66, 75
4, 19751, Note_on_c, 1, 66, 0
4, 19752, Note_on_c, 1, 69, 75
4, 19775, Note_on_c, 1, 69, 0
4, 19776, Note_on_c, 1, 67, 75
4, 19865, Note_on_c, 1, 67, 0
4, 20016, Note_on_c, 1, 54, 75
4, 20061, Note_on_c, 1, 54, 0
4, 20064, Note_on_c, 1, 55, 75
4, 20109, Note_on_c, 1, 55, 0
4, 20112, Note_on_c, 1, 57, 75
4, 20157, Note_on_c, 1, 57, 0
4, 20160, Note_on_c, 1, 59, 75
4, 20183, Note_on_c, 1, 59, 0
4, 20184, Note_on_c, 1, 68, 75
4, 20207, Note_on_c, 1, 68, 0
4, 20208, Note_on_c, 1, 62, 75
4, 20231, Note_on_c, 1, 62, 0
4, 20232, Note_on_c, 1, 68, 75
4, 20255, Note_on_c, 1, 68, 0
4, 20256, Note_on_c, 1, 59, 75
4, 20279, Note_on_c, 1, 59, 0
4, 20280, Note_on_c, 1, 68, 75
4, 20303, Note_on_c, 1, 68, 0
4, 20304, Note_on_c, 1, 62, 75
4, 20327, Note_on_c, 1, 62, 0
4, 20328, Note_on_c, 1, 68, 75
4, 20351, Note_on_c, 1, 68, 0
4, 20352, Note_on_c, 1, 57, 75
4, 20375, Note_on_c, 1, 57, 0
4, 20376, Note_on_c, 1, 69, 75
4, 20399, Note_on_c, 1, 69, 0
4, 20400, Note_on_c, 1, 61, 75
4, 20423, Note_on_c, 1, 61, 0
4, 20424, Note_on_c, 1, 69, 75
4, 20447, Note_on_c, 1, 69, 0
4, 20448, Note_on_c, 1, 57, 75
4, 20471, Note_on_c, 1, 57, 0
4, 20472, Note_on_c, 1, 69, 75
4, 20495, Note_on_c, 1, 69, 0
4, 20496, Note_on_c, 1, 61, 75
4, 20519, Note_on_c, 1, 61, 0
4, 20520, Note_on_c, 1, 69, 75
4, 20543, Note_on_c, 1, 69, 0
4, 20544, Note_on_c, 1, 62, 75
4, 20567, Note_on_c, 1, 62, 0
4, 20568, Note_on_c, 1, 69, 75
4, 20591, Note_on_c, 1, 69, 0
4, 20592, Note_on_c, 1, 66, 75
4, 20615, Note_on_c, 1, 66, 0
4, 20616, Note_on_c, 1, 69, 75
4, 20639, Note_on_c, 1, 69, 0
4, 20640, Note_on_c, 1, 62, 75
4, 20663, Note_on_c, 1, 62, 0
4, 20664, Note_on_c, 1, 69, 75
4, 20687, Note_on_c, 1, 69, 0
4, 20688, Note_on_c, 1, 66, 75
4, 20711, Note_on_c, 1, 66, 0
4, 20712, Note_on_c, 1, 69, 75
4, 20735, Note_on_c, 1, 69, 0
4, 20736, Note_on_c, 1, 67, 75
4, 20825, Note_on_c, 1, 67, 0
4, 20976, Note_on_c, 1, 54, 75
4, 21021, Note_on_c, 1, 54, 0
4, 21024, Note_on_c, 1, 55, 75
4, 21069, Note_on_c, 1, 55, 0
4, 21072, Note_on_c, 1, 57, 75
4, 21117, Note_on_c, 1, 57, 0
4, 21120, Note_on_c, 1, 50, 75
4, 21165, Note_on_c, 1, 50, 0
4, 21168, Note_on_c, 1, 54, 75
4, 21213, Note_on_c, 1, 54, 0
4, 21216, Note_on_c, 1, 55, 75
4, 21305, Note_on_c, 1, 55, 0
4, 21360, Note_on_c, 1, 54, 75
4, 21405, Note_on_c, 1, 54, 0
4, 21408, Note_on_c, 1, 55, 75
4, 21453, Note_on_c, 1, 55, 0
4, 21456, Note_on_c, 1, 57, 75
4, 21501, Note_on_c, 1, 57, 0
4, 21504, Note_on_c, 1, 50, 75
4, 21527, Note_on_c, 1, 50, 0
4, 21528, Note_on_c, 1, 62, 75
4, 21551, Note_on_c, 1, 62, 0
4, 21552, Note_on_c, 1, 50, 75
4, 21575, Note_on_c, 1, 50, 0
4, 21576, Note_on_c, 1, 62, 75
4, 21599, Note_on_c, 1, 62, 0
4, 21600, Note_on_c, 1, 50, 75
4, 21623, Note_on_c, 1, 50, 0
4, 21624, Note_on_c, 1, 62, 75
4, 21647, Note_on_c, 1, 62, 0
4, 21648, Note_on_c, 1, 50, 75
4, 21671, Note_on_c, 1, 50, 0
4, 21672, Note_on_c, 1, 62, 75
4, 21695, Note_on_c, 1, 62, 0
4, 21696, Note_on_c, 1, 50, 75
4, 21719, Note_on_c, 1, 50, 0
4, 21720, Note_on_c, 1, 62, 75
4, 21743, Note_on_c, 1, 62, 0
4, 21744, Note_on_c, 1, 50, 75
4, 21767, Note_on_c, 1, 50, 0
4, 21768, Note_on_c, 1, 62, 75
4, 21791, Note_on_c, 1, 62, 0
4, 21792, Note_on_c, 1, 50, 75
4, 21815, Note_on_c, 1, 50, 0
4, 21816, Note_on_c, 1, 62, 75
4, 21839, Note_on_c, 1, 62, 0
4, 21840, Note_on_c, 1, 50, 75
4, 21863, Note_on_c, 1, 50, 0
4, 21864, Note_on_c, 1, 62, 75
4, 21887, Note_on_c, 1, 62, 0
4, 21888, Note_on_c, 1, 50, 75
4, 21977, Note_on_c, 1, 50, 0
4, 22080, Note_on_c, 1, 50, 80
4, 22103, Note_on_c, 1, 50, 0
4, 22104, Note_on_c, 1, 57, 80
4, 22127, Note_on_c, 1, 57, 0
4, 22128, Note_on_c, 1, 53, 80
4, 22151, Note_on_c, 1, 53, 0
4, 22152, Note_on_c, 1, 57, 80
4, 22175, Note_on_c, 1, 57, 0
4, 22176, Note_on_c, 1, 50, 80
4, 22199, Note_on_c, 1, 50, 0
4, 22200, Note_on_c, 1, 57, 80
4, 22223, Note_on_c, 1, 57, 0
4, 22224, Note_on_c, 1, 53, 80
4, 22247, Note_on_c, 1, 53, 0
4, 22248, Note_on_c, 1, 57, 80
4, 22271, Note_on_c, 1, 57, 0
4, 22272, Note_on_c, 1, 50, 80
4, 22295, Note_on_c, 1, 50, 0
4, 22296, Note_on_c, 1, 59, 80
4, 22319, Note_on_c, 1, 59, 0
4, 22320, Note_on_c, 1, 56, 80
4, 22343, Note_on_c, 1, 56, 0
4, 22344, Note_on_c, 1, 59, 80
4, 22367, Note_on_c, 1, 59, 0
4, 22368, Note_on_c, 1, 50, 80
4, 22391, Note_on_c, 1, 50, 0
4, 22392, Note_on_c, 1, 59, 80
4, 22415, Note_on_c, 1, 59, 0
4, 22416, Note_on_c, 1, 56, 80
4, 22439, Note_on_c, 1, 56, 0
4, 22440, Note_on_c, 1, 59, 80
4, 22463, Note_on_c, 1, 59, 0
4, 22464, Note_on_c, 1, 50, 80
4, 22487, Note_on_c, 1, 50, 0
4, 22488, Note_on_c, 1, 59, 80
4, 22511, Note_on_c, 1, 59, 0
4, 22512, Note_on_c, 1, 56, 80
4, 22535, Note_on_c, 1, 56, 0
4, 22536, Note_on_c, 1, 59, 80
4, 22559, Note_on_c, 1, 59, 0
4, 22560, Note_on_c, 1, 50, 80
4, 22583, Note_on_c, 1, 50, 0
4, 22584, Note_on_c, 1, 59, 80
4, 22607, Note_on_c, 1, 59, 0
4, 22608, Note_on_c, 1, 56, 80
4, 22631, Note_on_c, 1, 56, 0
4, 22632, Note_on_c, 1, 59, 80
4, 22655, Note_on_c, 1, 59, 0
4, 22656, Note_on_c, 1, 48, 80
4, 22679, Note_on_c, 1, 48, 0
4, 22680, Note_on_c, 1, 57, 80
4, 22703, Note_on_c, 1, 57, 0
4, 22704, Note_on_c, 1, 52, 80
4, 22727, Note_on_c, 1, 52, 0
4, 22728, Note_on_c, 1, 57, 80
4, 22751, Note_on_c, 1, 57, 0
4, 22752, Note_on_c, 1, 48, 80
4, 22775, Note_on_c, 1, 48, 0
4, 22776, Note_on_c, 1, 57, 80
4, 22799, Note_on_c, 1, 57, 0
4, 22800, Note_on_c, 1, 52, 80
4, 22823, Note_on_c, 1, 52, 0
4, 22824, Note_on_c, 1, 57, 80
4, 22847, Note_on_c, 1, 57, 0
4, 22848, Note_on_c, 1, 48, 80
4, 22871, Note_on_c, 1, 48, 0
4, 22872, Note_on_c, 1, 57, 80
4, 22895, Note_on_c, 1, 57, 0
4, 22896, Note_on_c, 1, 52, 80
4, 22919, Note_on_c, 1, 52, 0
4, 22920, Note_on_c, 1, 57, 80
4, 22943, Note_on_c, 1, 57, 0
4, 22944, Note_on_c, 1, 48, 80
4, 22967, Note_on_c, 1, 48, 0
4, 22968, Note_on_c, 1, 57, 80
4, 22991, Note_on_c, 1, 57, 0
4, 22992, Note_on_c, 1, 52, 80
4, 23015, Note_on_c, 1, 52, 0
4, 23016, Note_on_c, 1, 57, 80
4, 23039, Note_on_c, 1, 57, 0
4, 23040, Note_on_c, 1, 47, 80
4, 23063, Note_on_c, 1, 47, 0
4, 23064, Note_on_c, 1, 57, 80
4, 23087, Note_on_c, 1, 57, 0
4, 23088, Note_on_c, 1, 54, 80
4, 23111, Note_on_c, 1, 54, 0
4, 23112, Note_on_c, 1, 57, 80
4, 23135, Note_on_c, 1, 57, 0
4, 23136, Note_on_c, 1, 47, 80
4, 23159, Note_on_c, 1, 47, 0
4, 23160, Note_on_c, 1, 57, 80
4, 23183, Note_on_c, 1, 57, 0
4, 23184, Note_on_c, 1, 54, 80
4, 23207, Note_on_c, 1, 54, 0
4, 23208, Note_on_c, 1, 57, 80
4, 23231, Note_on_c, 1, 57, 0
4, 23232, Note_on_c, 1, 51, 80
4, 23255, Note_on_c, 1, 51, 0
4, 23256, Note_on_c, 1, 57, 80
4, 23279, Note_on_c, 1, 57, 0
4, 23280, Note_on_c, 1, 54, 80
4, 23303, Note_on_c, 1, 54, 0
4, 23304, Note_on_c, 1, 57, 80
4, 23327, Note_on_c, 1, 57, 0
4, 23328, Note_on_c, 1, 51, 80
4, 23351, Note_on_c, 1, 51, 0
4, 23352, Note_on_c, 1, 57, 80
4, 23375, Note_on_c, 1, 57, 0
4, 23376, Note_on_c, 1, 54, 80
4, 23399, Note_on_c, 1, 54, 0
4, 23400, Note_on_c, 1, 57, 80
4, 23423, Note_on_c, 1, 57, 0
4, 23424, Note_on_c, 1, 52, 80
4, 23447, Note_on_c, 1, 52, 0
4, 23448, Note_on_c, 1, 59, 80
4, 23471, Note_on_c, 1, 59, 0
4, 23472, Note_on_c, 1, 55, 80
4, 23495, Note_on_c, 1, 55, 0
4, 23496, Note_on_c, 1, 59, 80
4, 23519, Note_on_c, 1, 59, 0
4, 23520, Note_on_c, 1, 52, 80
4, 23543, Note_on_c, 1, 52, 0
4, 23544, Note_on_c, 1, 59, 80
4, 23567, Note_on_c, 1, 59, 0
4, 23568, Note_on_c, 1, 55, 80
4, 23591, Note_on_c, 1, 55, 0
4, 23592, Note_on_c, 1, 59, 80
4, 23615, Note_on_c, 1, 59, 0
4, 23616, Note_on_c, 1, 52, 80
4, 23639, Note_on_c, 1, 52, 0
4, 23640, Note_on_c, 1, 59, 80
4, 23663, Note_on_c, 1, 59, 0
4, 23664, Note_on_c, 1, 55, 80
4, 23687, Note_on_c, 1, 55, 0
4, 23688, Note_on_c, 1, 59, 80
4, 23711, Note_on_c, 1, 59, 0
4, 23712, Note_on_c, 1, 52, 80
4, 23735, Note_on_c, 1, 52, 0
4, 23736, Note_on_c, 1, 59, 80
4, 23759, Note_on_c, 1, 59, 0
4, 23760, Note_on_c, 1, 55, 80
4, 23783, Note_on_c, 1, 55, 0
4, 23784, Note_on_c, 1, 59, 80
4, 23807, Note_on_c, 1, 59, 0
4, 23808, Note_on_c, 1, 51, 80
4, 23831, Note_on_c, 1, 51, 0
4, 23832, Note_on_c, 1, 59, 80
4, 23855, Note_on_c, 1, 59, 0
4, 23856, Note_on_c, 1, 54, 80
4, 23879, Note_on_c, 1, 54, 0
4, 23880, Note_on_c, 1, 59, 80
4, 23903, Note_on_c, 1, 59, 0
4, 23904, Note_on_c, 1, 51, 80
4, 23927, Note_on_c, 1, 51, 0
4, 23928, Note_on_c, 1, 59, 80
4, 23951, Note_on_c, 1, 59, 0
4, 23952, Note_on_c, 1, 54, 80
4, 23975, Note_on_c, 1, 54, 0
4, 23976, Note_on_c, 1, 59, 80
4, 23999, Note_on_c, 1, 59, 0
4, 24000, Note_on_c, 1, 51, 80
4, 24023, Note_on_c, 1, 51, 0
4, 24024, Note_on_c, 1, 59, 80
4, 24047, Note_on_c, 1, 59, 0
4, 24048, Note_on_c, 1, 54, 80
4, 24071, Note_on_c, 1, 54, 0
4, 24072, Note_on_c, 1, 59, 80
4, 24095, Note_on_c, 1, 59, 0
4, 24096, Note_on_c, 1, 51, 80
4, 24119, Note_on_c, 1, 51, 0
4, 24120, Note_on_c, 1, 59, 80
4, 24143, Note_on_c, 1, 59, 0
4, 24144, Note_on_c, 1, 54, 80
4, 24167, Note_on_c, 1, 54, 0
4, 24168, Note_on_c, 1, 59, 80
4, 24191, Note_on_c, 1, 59, 0
4, 24192, Note_on_c, 1, 52, 80
4, 24215, Note_on_c, 1, 52, 0
4, 24216, Note_on_c, 1, 59, 80
4, 24239, Note_on_c, 1, 59, 0
4, 24240, Note_on_c, 1, 55, 80
4, 24263, Note_on_c, 1, 55, 0
4, 24264, Note_on_c, 1, 59, 80
4, 24287, Note_on_c, 1, 59, 0
4, 24288, Note_on_c, 1, 52, 80
4, 24311, Note_on_c, 1, 52, 0
4, 24312, Note_on_c, 1, 59, 80
4, 24335, Note_on_c, 1, 59, 0
4, 24336, Note_on_c, 1, 55, 80
4, 24359, Note_on_c, 1, 55, 0
4, 24360, Note_on_c, 1, 59, 80
4, 24383, Note_on_c, 1, 59, 0
4, 24384, Note_on_c, 1, 52, 80
4, 24407, Note_on_c, 1, 52, 0
4, 24408, Note_on_c, 1, 59, 80
4, 24431, Note_on_c, 1, 59, 0
4, 24432, Note_on_c, 1, 55, 80
4, 24455, Note_on_c, 1, 55, 0
4, 24456, Note_on_c, 1, 59, 80
4, 24479, Note_on_c, 1, 59, 0
4, 24480, Note_on_c, 1, 52, 80
4, 24503, Note_on_c, 1, 52, 0
4, 24504, Note_on_c, 1, 59, 80
4, 24527, Note_on_c, 1, 59, 0
4, 24528, Note_on_c, 1, 55, 80
4, 24551, Note_on_c, 1, 55, 0
4, 24552, Note_on_c, 1, 59, 80
4, 24575, Note_on_c, 1, 59, 0
4, 24576, Note_on_c, 1, 48, 80
4, 24599, Note_on_c, 1, 48, 0
4, 24600, Note_on_c, 1, 58, 80
4, 24623, Note_on_c, 1, 58, 0
4, 24624, Note_on_c, 1, 52, 80
4, 24647, Note_on_c, 1, 52, 0
4, 24648, Note_on_c, 1, 58, 80
4, 24671, Note_on_c, 1, 58, 0
4, 24672, Note_on_c, 1, 48, 80
4, 24695, Note_on_c, 1, 48, 0
4, 24696, Note_on_c, 1, 58, 80
4, 24719, Note_on_c, 1, 58, 0
4, 24720, Note_on_c, 1, 52, 80
4, 24743, Note_on_c, 1, 52, 0
4, 24744, Note_on_c, 1, 58, 80
4, 24767, Note_on_c, 1, 58, 0
4, 24768, Note_on_c, 1, 48, 80
4, 24791, Note_on_c, 1, 48, 0
4, 24792, Note_on_c, 1, 58, 80
4, 24815, Note_on_c, 1, 58, 0
4, 24816, Note_on_c, 1, 52, 80
4, 24839, Note_on_c, 1, 52, 0
4, 24840, Note_on_c, 1, 58, 80
4, 24863, Note_on_c, 1, 58, 0
4, 24864, Note_on_c, 1, 48, 80
4, 24887, Note_on_c, 1, 48, 0
4, 24888, Note_on_c, 1, 58, 80
4, 24911, Note_on_c, 1, 58, 0
4, 24912, Note_on_c, 1, 52, 80
4, 24935, Note_on_c, 1, 52, 0
4, 24936, Note_on_c, 1, 58, 80
4, 24959, Note_on_c, 1, 58, 0
4, 24960, Note_on_c, 1, 47, 80
4, 24983, Note_on_c, 1, 47, 0
4, 24984, Note_on_c, 1, 57, 80
4, 25007, Note_on_c, 1, 57, 0
4, 25008, Note_on_c, 1, 51, 80
4, 25031, Note_on_c, 1, 51, 0
4, 25032, Note_on_c, 1, 57, 80
4, 25055, Note_on_c, 1, 57, 0
4, 25056, Note_on_c, 1, 47, 80
4, 25079, Note_on_c, 1, 47, 0
4, 25080, Note_on_c, 1, 57, 80
4, 25103, Note_on_c, 1, 57, 0
4, 25104, Note_on_c, 1, 51, 80
4, 25127, Note_on_c, 1, 51, 0
4, 25128, Note_on_c, 1, 57, 80
4, 25151, Note_on_c, 1, 57, 0
4, 25152, Note_on_c, 1, 52, 80
4, 25175, Note_on_c, 1, 52, 0
4, 25176, Note_on_c, 1, 62, 80
4, 25199, Note_on_c, 1, 62, 0
4, 25200, Note_on_c, 1, 56, 80
4, 25223, Note_on_c, 1, 56, 0
4, 25224, Note_on_c, 1, 62, 80
4, 25247, Note_on_c, 1, 62, 0
4, 25248, Note_on_c, 1, 52, 80
4, 25271, Note_on_c, 1, 52, 0
4, 25272, Note_on_c, 1, 62, 80
4, 25295, Note_on_c, 1, 62, 0
4, 25296, Note_on_c, 1, 56, 80
4, 25319, Note_on_c, 1, 56, 0
4, 25320, Note_on_c, 1, 62, 80
4, 25343, Note_on_c, 1, 62, 0
4, 25344, Note_on_c, 1, 57, 80
4, 25367, Note_on_c, 1, 57, 0
4, 25368, Note_on_c, 1, 67, 80
4, 25391, Note_on_c, 1, 67, 0
4, 25392, Note_on_c, 1, 61, 80
4, 25415, Note_on_c, 1, 61, 0
4, 25416, Note_on_c, 1, 67, 80
4, 25439, Note_on_c, 1, 67, 0
4, 25440, Note_on_c, 1, 57, 80
4, 25463, Note_on_c, 1, 57, 0
4, 25464, Note_on_c, 1, 67, 80
4, 25487, Note_on_c, 1, 67, 0
4, 25488, Note_on_c, 1, 61, 80
4, 25511, Note_on_c, 1, 61, 0
4, 25512, Note_on_c, 1, 67, 80
4, 25535, Note_on_c, 1, 67, 0
4, 25536, Note_on_c, 1, 60, 80
4, 25559, Note_on_c, 1, 60, 0
4, 25560, Note_on_c, 1, 69, 80
4, 25583, Note_on_c, 1, 69, 0
4, 25584, Note_on_c, 1, 66, 80
4, 25607, Note_on_c, 1, 66, 0
4, 25608, Note_on_c, 1, 69, 80
4, 25631, Note_on_c, 1, 69, 0
4, 25632, Note_on_c, 1, 60, 80
4, 25655, Note_on_c, 1, 60, 0
4, 25656, Note_on_c, 1, 69, 80
4, 25679, Note_on_c, 1, 69, 0
4, 25680, Note_on_c, 1, 66, 80
4, 25703, Note_on_c, 1, 66, 0
4, 25704, Note_on_c, 1, 69, 80
4, 25727, Note_on_c, 1, 69, 0
4, 25728, Note_on_c, 1, 59, 80
4, 25751, Note_on_c, 1, 59, 0
4, 25752, Note_on_c, 1, 67, 80
4, 25775, Note_on_c, 1, 67, 0
4, 25776, Note_on_c, 1, 62, 80
4, 25799, Note_on_c, 1, 62, 0
4, 25800, Note_on_c, 1, 67, 80
4, 25823, Note_on_c, 1, 67, 0
4, 25824, Note_on_c, 1, 59, 80
4, 25847, Note_on_c, 1, 59, 0
4, 25848, Note_on_c, 1, 67, 80
4, 25871, Note_on_c, 1, 67, 0
4, 25872, Note_on_c, 1, 62, 80
4, 25895, Note_on_c, 1, 62, 0
4, 25896, Note_on_c, 1, 67, 80
4, 25919, Note_on_c, 1, 67, 0
4, 25920, Note_on_c, 1, 60, 80
4, 25943, Note_on_c, 1, 60, 0
4, 25944, Note_on_c, 1, 69, 80
4, 25967, Note_on_c, 1, 69, 0
4, 25968, Note_on_c, 1, 66, 80
4, 25991, Note_on_c, 1, 66, 0
4, 25992, Note_on_c, 1, 69, 80
4, 26015, Note_on_c, 1, 69, 0
4, 26016, Note_on_c, 1, 60, 80
4, 26039, Note_on_c, 1, 60, 0
4, 26040, Note_on_c, 1, 69, 80
4, 26063, Note_on_c, 1, 69, 0
4, 26064, Note_on_c, 1, 66, 80
4, 26087, Note_on_c, 1, 66, 0
4, 26088, Note_on_c, 1, 69, 80
4, 26111, Note_on_c, 1, 69, 0
4, 26112, Note_on_c, 1, 58, 80
4, 26135, Note_on_c, 1, 58, 0
4, 26136, Note_on_c, 1, 67, 80
4, 26159, Note_on_c, 1, 67, 0
4, 26160, Note_on_c, 1, 62, 80
4, 26183, Note_on_c, 1, 62, 0
4, 26184, Note_on_c, 1, 67, 80
4, 26207, Note_on_c, 1, 67, 0
4, 26208, Note_on_c, 1, 58, 80
4, 26231, Note_on_c, 1, 58, 0
4, 26232, Note_on_c, 1, 67, 80
4, 26255, Note_on_c, 1, 67, 0
4, 26256, Note_on_c, 1, 62, 80
4, 26279, Note_on_c, 1, 62, 0
4, 26280, Note_on_c, 1, 67, 80
4, 26303, Note_on_c, 1, 67, 0
4, 26304, Note_on_c, 1, 60, 80
4, 26327, Note_on_c, 1, 60, 0
4, 26328, Note_on_c, 1, 67, 80
4, 26351, Note_on_c, 1, 67, 0
4, 26352, Note_on_c, 1, 63, 80
4, 26375, Note_on_c, 1, 63, 0
4, 26376, Note_on_c, 1, 67, 80
4, 26399, Note_on_c, 1, 67, 0
4, 26400, Note_on_c, 1, 57, 80
4, 26423, Note_on_c, 1, 57, 0
4, 26424, Note_on_c, 1, 65, 80
4, 26447, Note_on_c, 1, 65, 0
4, 26448, Note_on_c, 1, 60, 80
4, 26471, Note_on_c, 1, 60, 0
4, 26472, Note_on_c, 1, 65, 80
4, 26495, Note_on_c, 1, 65, 0
4, 26496, Note_on_c, 1, 58, 80
4, 26519, Note_on_c, 1, 58, 0
4, 26520, Note_on_c, 1, 65, 80
4, 26543, Note_on_c, 1, 65, 0
4, 26544, Note_on_c, 1, 62, 80
4, 26567, Note_on_c, 1, 62, 0
4, 26568, Note_on_c, 1, 65, 80
4, 26591, Note_on_c, 1, 65, 0
4, 26592, Note_on_c, 1, 55, 80
4, 26615, Note_on_c, 1, 55, 0
4, 26616, Note_on_c, 1, 63, 80
4, 26639, Note_on_c, 1, 63, 0
4, 26640, Note_on_c, 1, 58, 80
4, 26663, Note_on_c, 1, 58, 0
4, 26664, Note_on_c, 1, 63, 80
4, 26687, Note_on_c, 1, 63, 0
4, 26688, Note_on_c, 1, 57, 80
4, 26711, Note_on_c, 1, 57, 0
4, 26712, Note_on_c, 1, 63, 80
4, 26735, Note_on_c, 1, 63, 0
4, 26736, Note_on_c, 1, 60, 80
4, 26759, Note_on_c, 1, 60, 0
4, 26760, Note_on_c, 1, 63, 80
4, 26783, Note_on_c, 1, 63, 0
4, 26784, Note_on_c, 1, 54, 80
4, 26807, Note_on_c, 1, 54, 0
4, 26808, Note_on_c, 1, 62, 80
4, 26831, Note_on_c, 1, 62, 0
4, 26832, Note_on_c, 1, 57, 80
4, 26855, Note_on_c, 1, 57, 0
4, 26856, Note_on_c, 1, 62, 80
4, 26879, Note_on_c, 1, 62, 0
4, 26880, Note_on_c, 1, 55, 80
4, 26903, Note_on_c, 1, 55, 0
4, 26904, Note_on_c, 1, 62, 80
4, 26927, Note_on_c, 1, 62, 0
4, 26928, Note_on_c, 1, 58, 80
4, 26951, Note_on_c, 1, 58, 0
4, 26952, Note_on_c, 1, 62, 80
4, 26975, Note_on_c, 1, 62, 0
4, 26976, Note_on_c, 1, 53, 80
4, 26999, Note_on_c, 1, 53, 0
4, 27000, Note_on_c, 1, 62, 80
4, 27023, Note_on_c, 1, 62, 0
4, 27024, Note_on_c, 1, 57, 80
4, 27047, Note_on_c, 1, 57, 0
4, 27048, Note_on_c, 1, 62, 80
4, 27071, Note_on_c, 1, 62, 0
4, 27072, Note_on_c, 1, 51, 80
4, 27095, Note_on_c, 1, 51, 0
4, 27096, Note_on_c, 1, 61, 80
4, 27119, Note_on_c, 1, 61, 0
4, 27120, Note_on_c, 1, 55, 80
4, 27143, Note_on_c, 1, 55, 0
4, 27144, Note_on_c, 1, 61, 80
4, 27167, Note_on_c, 1, 61, 0
4, 27168, Note_on_c, 1, 51, 80
4, 27191, Note_on_c, 1, 51, 0
4, 27192, Note_on_c, 1, 61, 80
4, 27215, Note_on_c, 1, 61, 0
4, 27216, Note_on_c, 1, 55, 80
4, 27239, Note_on_c, 1, 55, 0
4, 27240, Note_on_c, 1, 61, 80
4, 27263, Note_on_c, 1, 61, 0
4, 27264, Note_on_c, 1, 50, 80
4, 27287, Note_on_c, 1, 50, 0
4, 27288, Note_on_c, 1, 60, 80
4, 27311, Note_on_c, 1, 60, 0
4, 27312, Note_on_c, 1, 54, 80
4, 27335, Note_on_c, 1, 54, 0
4, 27336, Note_on_c, 1, 60, 80
4, 27359, Note_on_c, 1, 60, 0
4, 27360, Note_on_c, 1, 50, 80
4, 27383, Note_on_c, 1, 50, 0
4, 27384, Note_on_c, 1, 60, 80
4, 27407, Note_on_c, 1, 60, 0
4, 27408, Note_on_c, 1, 54, 80
4, 27431, Note_on_c, 1, 54, 0
4, 27432, Note_on_c, 1, 60, 80
4, 27455, Note_on_c, 1, 60, 0
4, 27456, Note_on_c, 1, 60, 80
4, 27456, Note_on_c, 1, 54, 80
4, 27456, Note_on_c, 1, 50, 80
4, 27693, Note_on_c, 1, 60, 0
4, 27693, Note_on_c, 1, 54, 0
4, 27693, Note_on_c, 1, 50, 0
4, 27840, Note_on_c, 1, 59, 80
4, 27840, Note_on_c, 1, 55, 80
4, 27929, Note_on_c, 1, 59, 0
4, 27929, Note_on_c, 1, 55, 0
4, 28080, Note_on_c, 1, 71, 80
4, 28080, Note_on_c, 1, 67, 80
4, 28125, Note_on_c, 1, 71, 0
4, 28125, Note_on_c, 1, 67, 0
4, 28128, Note_on_c, 1, 69, 80
4, 28128, Note_on_c, 1, 66, 80
4, 28173, Note_on_c, 1, 69, 0
4, 28173, Note_on_c, 1, 66, 0
4, 28176, Note_on_c, 1, 72, 80
4, 28176, Note_on_c, 1, 69, 80
4, 28221, Note_on_c, 1, 72, 0
4, 28221, Note_on_c, 1, 69, 0
4, 28224, Note_on_c, 1, 71, 80
4, 28224, Note_on_c, 1, 67, 80
4, 28313, Note_on_c, 1, 71, 0
4, 28313, Note_on_c, 1, 67, 0
4, 28464, Note_on_c, 1, 71, 80
4, 28464, Note_on_c, 1, 67, 80
4, 28509, Note_on_c, 1, 71, 0
4, 28509, Note_on_c, 1, 67, 0
4, 28512, Note_on_c, 1, 69, 80
4, 28512, Note_on_c, 1, 66, 80
4, 28557, Note_on_c, 1, 69, 0
4, 28557, Note_on_c, 1, 66, 0
4, 28560, Note_on_c, 1, 72, 80
4, 28560, Note_on_c, 1, 69, 80
4, 28605, Note_on_c, 1, 72, 0
4, 28605, Note_on_c, 1, 69, 0
4, 28608, Note_on_c, 1, 71, 80
4, 28608, Note_on_c, 1, 67, 80
4, 28697, Note_on_c, 1, 71, 0
4, 28697, Note_on_c, 1, 67, 0
4, 28752, Note_on_c, 1, 72, 80
4, 28752, Note_on_c, 1, 67, 80
4, 28797, Note_on_c, 1, 72, 0
4, 28797, Note_on_c, 1, 67, 0
4, 28800, Note_on_c, 1, 71, 80
4, 28800, Note_on_c, 1, 67, 80
4, 28889, Note_on_c, 1, 71, 0
4, 28889, Note_on_c, 1, 67, 0
4, 29040, Note_on_c, 1, 71, 80
4, 29085, Note_on_c, 1, 71, 0
4, 29088, Note_on_c, 1, 69, 80
4, 29133, Note_on_c, 1, 69, 0
4, 29136, Note_on_c, 1, 62, 80
4, 29181, Note_on_c, 1, 62, 0
4, 29184, Note_on_c, 1, 67, 80
4, 29229, Note_on_c, 1, 67, 0
4, 29232, Note_on_c, 1, 62, 80
4, 29277, Note_on_c, 1, 62, 0
4, 29280, Note_on_c, 1, 55, 80
4, 29325, Note_on_c, 1, 55, 0
4, 29376, Note_on_c, 1, 54, 80
4, 29376, Note_on_c, 1, 42, 80
4, 29421, Note_on_c, 1, 54, 0
4, 29421, Note_on_c, 1, 42, 0
4, 29424, Note_on_c, 1, 52, 80
4, 29424, Note_on_c, 1, 40, 80
4, 29469, Note_on_c, 1, 52, 0
4, 29469, Note_on_c, 1, 40, 0
4, 29472, Note_on_c, 1, 50, 80
4, 29472, Note_on_c, 1, 38, 80
4, 29517, Note_on_c, 1, 50, 0
4, 29517, Note_on_c, 1, 38, 0
4, 29520, Note_on_c, 1, 48, 80
4, 29520, Note_on_c, 1, 36, 80
4, 29565, Note_on_c, 1, 48, 0
4, 29565, Note_on_c, 1, 36, 0
4, 29568, Note_on_c, 1, 47, 80
4, 29568, Note_on_c, 1, 35, 80
4, 29657, Note_on_c, 1, 47, 0
4, 29657, Note_on_c, 1, 35, 0
4, 29712, Note_on_c, 1, 52, 80
4, 29757, Note_on_c, 1, 52, 0
4, 29760, Note_on_c, 1, 50, 80
4, 29805, Note_on_c, 1, 50, 0
4, 29808, Note_on_c, 1, 48, 80
4, 29853, Note_on_c, 1, 48, 0
4, 29856, Note_on_c, 1, 47, 80
4, 29901, Note_on_c, 1, 47, 0
4, 29904, Note_on_c, 1, 45, 80
4, 29949, Note_on_c, 1, 45, 0
4, 29952, Note_on_c, 1, 44, 80
4, 29975, Note_on_c, 1, 44, 0
4, 29976, Note_on_c, 1, 52, 80
4, 29999, Note_on_c, 1, 52, 0
4, 30000, Note_on_c, 1, 47, 80
4, 30023, Note_on_c, 1, 47, 0
4, 30024, Note_on_c, 1, 52, 80
4, 30047, Note_on_c, 1, 52, 0
4, 30048, Note_on_c, 1, 44, 80
4, 30071, Note_on_c, 1, 44, 0
4, 30072, Note_on_c, 1, 52, 80
4, 30095, Note_on_c, 1, 52, 0
4, 30096, Note_on_c, 1, 47, 80
4, 30119, Note_on_c, 1, 47, 0
4, 30120, Note_on_c, 1, 52, 80
4, 30143, Note_on_c, 1, 52, 0
4, 30144, Note_on_c, 1, 44, 80
4, 30167, Note_on_c, 1, 44, 0
4, 30168, Note_on_c, 1, 52, 80
4, 30191, Note_on_c, 1, 52, 0
4, 30192, Note_on_c, 1, 47, 80
4, 30215, Note_on_c, 1, 47, 0
4, 30216, Note_on_c, 1, 52, 80
4, 30239, Note_on_c, 1, 52, 0
4, 30240, Note_on_c, 1, 44, 80
4, 30263, Note_on_c, 1, 44, 0
4, 30264, Note_on_c, 1, 52, 80
4, 30287, Note_on_c, 1, 52, 0
4, 30288, Note_on_c, 1, 47, 80
4, 30311, Note_on_c, 1, 47, 0
4, 30312, Note_on_c, 1, 52, 80
4, 30335, Note_on_c, 1, 52, 0
4, 30336, Note_on_c, 1, 45, 80
4, 30359, Note_on_c, 1, 45, 0
4, 30360, Note_on_c, 1, 52, 80
4, 30383, Note_on_c, 1, 52, 0
4, 30384, Note_on_c, 1, 48, 80
4, 30407, Note_on_c, 1, 48, 0
4, 30408, Note_on_c, 1, 52, 80
4, 30431, Note_on_c, 1, 52, 0
4, 30432, Note_on_c, 1, 45, 80
4, 30455, Note_on_c, 1, 45, 0
4, 30456, Note_on_c, 1, 52, 80
4, 30479, Note_on_c, 1, 52, 0
4, 30480, Note_on_c, 1, 48, 80
4, 30503, Note_on_c, 1, 48, 0
4, 30504, Note_on_c, 1, 52, 80
4, 30527, Note_on_c, 1, 52, 0
4, 30528, Note_on_c, 1, 42, 80
4, 30551, Note_on_c, 1, 42, 0
4, 30552, Note_on_c, 1, 50, 80
4, 30575, Note_on_c, 1, 50, 0
4, 30576, Note_on_c, 1, 45, 80
4, 30599, Note_on_c, 1, 45, 0
4, 30600, Note_on_c, 1, 50, 80
4, 30623, Note_on_c, 1, 50, 0
4, 30624, Note_on_c, 1, 42, 80
4, 30647, Note_on_c, 1, 42, 0
4, 30648, Note_on_c, 1, 50, 80
4, 30671, Note_on_c, 1, 50, 0
4, 30672, Note_on_c, 1, 45, 80
4, 30695, Note_on_c, 1, 45, 0
4, 30696, Note_on_c, 1, 50, 80
4, 30719, Note_on_c, 1, 50, 0
4, 30720, Note_on_c, 1, 43, 80
4, 30743, Note_on_c, 1, 43, 0
4, 30744, Note_on_c, 1, 50, 80
4, 30767, Note_on_c, 1, 50, 0
4, 30768, Note_on_c, 1, 47, 80
4, 30791, Note_on_c, 1, 47, 0
4, 30792, Note_on_c, 1, 50, 80
4, 30815, Note_on_c, 1, 50, 0
4, 30816, Note_on_c, 1, 43, 80
4, 30839, Note_on_c, 1, 43, 0
4, 30840, Note_on_c, 1, 50, 80
4, 30863, Note_on_c, 1, 50, 0
4, 30864, Note_on_c, 1, 47, 80
4, 30887, Note_on_c, 1, 47, 0
4, 30888, Note_on_c, 1, 50, 80
4, 30911, Note_on_c, 1, 50, 0
4, 30912, Note_on_c, 1, 42, 80
4, 30935, Note_on_c, 1, 42, 0
4, 30936, Note_on_c, 1, 50, 80
4, 30959, Note_on_c, 1, 50, 0
4, 30960, Note_on_c, 1, 45, 80
4, 30983, Note_on_c, 1, 45, 0
4, 30984, Note_on_c, 1, 50, 80
4, 31007, Note_on_c, 1, 50, 0
4, 31008, Note_on_c, 1, 42, 80
4, 31031, Note_on_c, 1, 42, 0
4, 31032, Note_on_c, 1, 50, 80
4, 31055, Note_on_c, 1, 50, 0
4, 31056, Note_on_c, 1, 45, 80
4, 31079, Note_on_c, 1, 45, 0
4, 31080, Note_on_c, 1, 50, 80
4, 31103, Note_on_c, 1, 50, 0
4, 31104, Note_on_c, 1, 43, 80
4, 31127, Note_on_c, 1, 43, 0
4, 31128, Note_on_c, 1, 50, 80
4, 31151, Note_on_c, 1, 50, 0
4, 31152, Note_on_c, 1, 47, 80
4, 31175, Note_on_c, 1, 47, 0
4, 31176, Note_on_c, 1, 50, 80
4, 31199, Note_on_c, 1, 50, 0
4, 31200, Note_on_c, 1, 47, 80
4, 31223, Note_on_c, 1, 47, 0
4, 31224, Note_on_c, 1, 55, 80
4, 31247, Note_on_c, 1, 55, 0
4, 31248, Note_on_c, 1, 50, 80
4, 31271, Note_on_c, 1, 50, 0
4, 31272, Note_on_c, 1, 55, 80
4, 31295, Note_on_c, 1, 55, 0
4, 31296, Note_on_c, 1, 48, 80
4, 31385, Note_on_c, 1, 48, 0
4, 31488, Note_on_c, 1, 50, 80
4, 31533, Note_on_c, 1, 50, 0
4, 31536, Note_on_c, 1, 45, 80
4, 31581, Note_on_c, 1, 45, 0
4, 31584, Note_on_c, 1, 38, 80
4, 31629, Note_on_c, 1, 38, 0
4, 31680, Note_on_c, 1, 55, 75
4, 31703, Note_on_c, 1, 55, 0
4, 31704, Note_on_c, 1, 62, 75
4, 31727, Note_on_c, 1, 62, 0
4, 31728, Note_on_c, 1, 59, 75
4, 31751, Note_on_c, 1, 59, 0
4, 31752, Note_on_c, 1, 62, 75
4, 31775, Note_on_c, 1, 62, 0
4, 31776, Note_on_c, 1, 55, 75
4, 31799, Note_on_c, 1, 55, 0
4, 31800, Note_on_c, 1, 62, 75
4, 31823, Note_on_c, 1, 62, 0
4, 31824, Note_on_c, 1, 59, 75
4, 31847, Note_on_c, 1, 59, 0
4, 31848, Note_on_c, 1, 62, 75
4, 31871, Note_on_c, 1, 62, 0
4, 31872, Note_on_c, 1, 57, 75
4, 31895, Note_on_c, 1, 57, 0
4, 31896, Note_on_c, 1, 62, 75
4, 31919, Note_on_c, 1, 62, 0
4, 31920, Note_on_c, 1, 60, 75
4, 31943, Note_on_c, 1, 60, 0
4, 31944, Note_on_c, 1, 62, 75
4, 31967, Note_on_c, 1, 62, 0
4, 31968, Note_on_c, 1, 57, 75
4, 31991, Note_on_c, 1, 57, 0
4, 31992, Note_on_c, 1, 62, 75
4, 32015, Note_on_c, 1, 62, 0
4, 32016, Note_on_c, 1, 60, 75
4, 32039, Note_on_c, 1, 60, 0
4, 32040, Note_on_c, 1, 62, 75
4, 32063, Note_on_c, 1, 62, 0
4, 32064, Note_on_c, 1, 54, 75
4, 32087, Note_on_c, 1, 54, 0
4, 32088, Note_on_c, 1, 62, 75
4, 32111, Note_on_c, 1, 62, 0
4, 32112, Note_on_c, 1, 57, 75
4, 32135, Note_on_c, 1, 57, 0
4, 32136, Note_on_c, 1, 62, 75
4, 32159, Note_on_c, 1, 62, 0
4, 32160, Note_on_c, 1, 54, 75
4, 32183, Note_on_c, 1, 54, 0
4, 32184, Note_on_c, 1, 62, 75
4, 32207, Note_on_c, 1, 62, 0
4, 32208, Note_on_c, 1, 57, 75
4, 32231, Note_on_c, 1, 57, 0
4, 32232, Note_on_c, 1, 62, 75
4, 32255, Note_on_c, 1, 62, 0
4, 32256, Note_on_c, 1, 55, 75
4, 32279, Note_on_c, 1, 55, 0
4, 32280, Note_on_c, 1, 62, 75
4, 32303, Note_on_c, 1, 62, 0
4, 32304, Note_on_c, 1, 59, 75
4, 32327, Note_on_c, 1, 59, 0
4, 32328, Note_on_c, 1, 62, 75
4, 32351, Note_on_c, 1, 62, 0
4, 32352, Note_on_c, 1, 55, 75
4, 32375, Note_on_c, 1, 55, 0
4, 32376, Note_on_c, 1, 62, 75
4, 32399, Note_on_c, 1, 62, 0
4, 32400, Note_on_c, 1, 59, 75
4, 32423, Note_on_c, 1, 59, 0
4, 32424, Note_on_c, 1, 62, 75
4, 32447, Note_on_c, 1, 62, 0
4, 32448, Note_on_c, 1, 55, 75
4, 32471, Note_on_c, 1, 55, 0
4, 32472, Note_on_c, 1, 62, 75
4, 32495, Note_on_c, 1, 62, 0
4, 32496, Note_on_c, 1, 59, 75
4, 32519, Note_on_c, 1, 59, 0
4, 32520, Note_on_c, 1, 62, 75
4, 32543, Note_on_c, 1, 62, 0
4, 32544, Note_on_c, 1, 55, 75
4, 32567, Note_on_c, 1, 55, 0
4, 32568, Note_on_c, 1, 62, 75
4, 32591, Note_on_c, 1, 62, 0
4, 32592, Note_on_c, 1, 59, 75
4, 32615, Note_on_c, 1, 59, 0
4, 32616, Note_on_c, 1, 62, 75
4, 32639, Note_on_c, 1, 62, 0
4, 32640, Note_on_c, 1, 57, 75
4, 32663, Note_on_c, 1, 57, 0
4, 32664, Note_on_c, 1, 62, 75
4, 32687, Note_on_c, 1, 62, 0
4, 32688, Note_on_c, 1, 60, 75
4, 32711, Note_on_c, 1, 60, 0
4, 32712, Note_on_c, 1, 62, 75
4, 32735, Note_on_c, 1, 62, 0
4, 32736, Note_on_c, 1, 57, 75
4, 32759, Note_on_c, 1, 57, 0
4, 32760, Note_on_c, 1, 62, 75
4, 32783, Note_on_c, 1, 62, 0
4, 32784, Note_on_c, 1, 60, 75
4, 32807, Note_on_c, 1, 60, 0
4, 32808, Note_on_c, 1, 62, 75
4, 32831, Note_on_c, 1, 62, 0
4, 32832, Note_on_c, 1, 54, 75
4, 32855, Note_on_c, 1, 54, 0
4, 32856, Note_on_c, 1, 62, 75
4, 32879, Note_on_c, 1, 62, 0
4, 32880, Note_on_c, 1, 57, 75
4, 32903, Note_on_c, 1, 57, 0
4, 32904, Note_on_c, 1, 62, 75
4, 32927, Note_on_c, 1, 62, 0
4, 32928, Note_on_c, 1, 54, 75
4, 32951, Note_on_c, 1, 54, 0
4, 32952, Note_on_c, 1, 62, 75
4, 32975, Note_on_c, 1, 62, 0
4, 32976, Note_on_c, 1, 57, 75
4, 32999, Note_on_c, 1, 57, 0
4, 33000, Note_on_c, 1, 62, 75
4, 33023, Note_on_c, 1, 62, 0
4, 33024, Note_on_c, 1, 55, 75
4, 33047, Note_on_c, 1, 55, 0
4, 33048, Note_on_c, 1, 62, 75
4, 33071, Note_on_c, 1, 62, 0
4, 33072, Note_on_c, 1, 59, 75
4, 33095, Note_on_c, 1, 59, 0
4, 33096, Note_on_c, 1, 62, 75
4, 33119, Note_on_c, 1, 62, 0
4, 33120, Note_on_c, 1, 55, 75
4, 33143, Note_on_c, 1, 55, 0
4, 33144, Note_on_c, 1, 62, 75
4, 33167, Note_on_c, 1, 62, 0
4, 33168, Note_on_c, 1, 59, 75
4, 33191, Note_on_c, 1, 59, 0
4, 33192, Note_on_c, 1, 62, 75
4, 33215, Note_on_c, 1, 62, 0
4, 33216, Note_on_c, 1, 59, 75
4, 33305, Note_on_c, 1, 59, 0
4, 33408, Note_on_c, 1, 60, 75
4, 33431, Note_on_c, 1, 60, 0
4, 33432, Note_on_c, 1, 72, 75
4, 33455, Note_on_c, 1, 72, 0
4, 33456, Note_on_c, 1, 59, 75
4, 33479, Note_on_c, 1, 59, 0
4, 33480, Note_on_c, 1, 71, 75
4, 33503, Note_on_c, 1, 71, 0
4, 33504, Note_on_c, 1, 57, 75
4, 33527, Note_on_c, 1, 57, 0
4, 33528, Note_on_c, 1, 69, 75
4, 33551, Note_on_c, 1, 69, 0
4, 33552, Note_on_c, 1, 56, 75
4, 33575, Note_on_c, 1, 56, 0
4, 33576, Note_on_c, 1, 68, 75
4, 33599, Note_on_c, 1, 68, 0
4, 33600, Note_on_c, 1, 57, 75
4, 33689, Note_on_c, 1, 57, 0
4, 33792, Note_on_c, 1, 59, 75
4, 33815, Note_on_c, 1, 59, 0
4, 33816, Note_on_c, 1, 71, 75
4, 33839, Note_on_c, 1, 71, 0
4, 33840, Note_on_c, 1, 57, 75
4, 33863, Note_on_c, 1, 57, 0
4, 33864, Note_on_c, 1, 69, 75
4, 33887, Note_on_c, 1, 69, 0
4, 33888, Note_on_c, 1, 55, 75
4, 33911, Note_on_c, 1, 55, 0
4, 33912, Note_on_c, 1, 67, 75
4, 33935, Note_on_c, 1, 67, 0
4, 33936, Note_on_c, 1, 54, 75
4, 33959, Note_on_c, 1, 54, 0
4, 33960, Note_on_c, 1, 66, 75
4, 33983, Note_on_c, 1, 66, 0
4, 33984, Note_on_c, 1, 55, 75
4, 34073, Note_on_c, 1, 55, 0
4, 34176, Note_on_c, 1, 57, 75
4, 34199, Note_on_c, 1, 57, 0
4, 34200, Note_on_c, 1, 69, 75
4, 34223, Note_on_c, 1, 69, 0
4, 34224, Note_on_c, 1, 55, 75
4, 34247, Note_on_c, 1, 55, 0
4, 34248, Note_on_c, 1, 67, 75
4, 34271, Note_on_c, 1, 67, 0
4, 34272, Note_on_c, 1, 54, 75
4, 34295, Note_on_c, 1, 54, 0
4, 34296, Note_on_c, 1, 66, 75
4, 34319, Note_on_c, 1, 66, 0
4, 34320, Note_on_c, 1, 52, 75
4, 34343, Note_on_c, 1, 52, 0
4, 34344, Note_on_c, 1, 64, 75
4, 34367, Note_on_c, 1, 64, 0
4, 34368, Note_on_c, 1, 54, 75
4, 34457, Note_on_c, 1, 54, 0
4, 34560, Note_on_c, 1, 55, 75
4, 34583, Note_on_c, 1, 55, 0
4, 34584, Note_on_c, 1, 62, 75
4, 34607, Note_on_c, 1, 62, 0
4, 34608, Note_on_c, 1, 59, 75
4, 34631, Note_on_c, 1, 59, 0
4, 34632, Note_on_c, 1, 62, 75
4, 34655, Note_on_c, 1, 62, 0
4, 34656, Note_on_c, 1, 57, 75
4, 34679, Note_on_c, 1, 57, 0
4, 34680, Note_on_c, 1, 62, 75
4, 34703, Note_on_c, 1, 62, 0
4, 34704, Note_on_c, 1, 60, 75
4, 34727, Note_on_c, 1, 60, 0
4, 34728, Note_on_c, 1, 62, 75
4, 34751, Note_on_c, 1, 62, 0
4, 34752, Note_on_c, 1, 55, 75
4, 34775, Note_on_c, 1, 55, 0
4, 34776, Note_on_c, 1, 62, 75
4, 34799, Note_on_c, 1, 62, 0
4, 34800, Note_on_c, 1, 59, 75
4, 34823, Note_on_c, 1, 59, 0
4, 34824, Note_on_c, 1, 62, 75
4, 34847, Note_on_c, 1, 62, 0
4, 34848, Note_on_c, 1, 57, 75
4, 34871, Note_on_c, 1, 57, 0
4, 34872, Note_on_c, 1, 62, 75
4, 34895, Note_on_c, 1, 62, 0
4, 34896, Note_on_c, 1, 60, 75
4, 34919, Note_on_c, 1, 60, 0
4, 34920, Note_on_c, 1, 62, 75
4, 34943, Note_on_c, 1, 62, 0
4, 34944, Note_on_c, 1, 55, 75
4, 34967, Note_on_c, 1, 55, 0
4, 34968, Note_on_c, 1, 62, 75
4, 34991, Note_on_c, 1, 62, 0
4, 34992, Note_on_c, 1, 59, 75
4, 35015, Note_on_c, 1, 59, 0
4, 35016, Note_on_c, 1, 62, 75
4, 35039, Note_on_c, 1, 62, 0
4, 35040, Note_on_c, 1, 57, 75
4, 35063, Note_on_c, 1, 57, 0
4, 35064, Note_on_c, 1, 62, 75
4, 35087, Note_on_c, 1, 62, 0
4, 35088, Note_on_c, 1, 60, 75
4, 35111, Note_on_c, 1, 60, 0
4, 35112, Note_on_c, 1, 62, 75
4, 35135, Note_on_c, 1, 62, 0
4, 35136, Note_on_c, 1, 55, 75
4, 35159, Note_on_c, 1, 55, 0
4, 35160, Note_on_c, 1, 62, 75
4, 35183, Note_on_c, 1, 62, 0
4, 35184, Note_on_c, 1, 59, 75
4, 35207, Note_on_c, 1, 59, 0
4, 35208, Note_on_c, 1, 62, 75
4, 35231, Note_on_c, 1, 62, 0
4, 35232, Note_on_c, 1, 57, 75
4, 35255, Note_on_c, 1, 57, 0
4, 35256, Note_on_c, 1, 62, 75
4, 35279, Note_on_c, 1, 62, 0
4, 35280, Note_on_c, 1, 60, 75
4, 35303, Note_on_c, 1, 60, 0
4, 35304, Note_on_c, 1, 62, 75
4, 35327, Note_on_c, 1, 62, 0
4, 35328, Note_on_c, 1, 55, 75
4, 35351, Note_on_c, 1, 55, 0
4, 35352, Note_on_c, 1, 62, 75
4, 35375, Note_on_c, 1, 62, 0
4, 35376, Note_on_c, 1, 59, 75
4, 35399, Note_on_c, 1, 59, 0
4, 35400, Note_on_c, 1, 62, 75
4, 35423, Note_on_c, 1, 62, 0
4, 35424, Note_on_c, 1, 59, 75
4, 35447, Note_on_c, 1, 59, 0
4, 35448, Note_on_c, 1, 67, 75
4, 35471, Note_on_c, 1, 67, 0
4, 35472, Note_on_c, 1, 62, 75
4, 35495, Note_on_c, 1, 62, 0
4, 35496, Note_on_c, 1, 67, 75
4, 35519, Note_on_c, 1, 67, 0
4, 35520, Note_on_c, 1, 60, 75
4, 35543, Note_on_c, 1, 60, 0
4, 35544, Note_on_c, 1, 67, 75
4, 35567, Note_on_c, 1, 67, 0
4, 35568, Note_on_c, 1, 64, 75
4, 35591, Note_on_c, 1, 64, 0
4, 35592, Note_on_c, 1, 67, 75
4, 35615, Note_on_c, 1, 67, 0
4, 35616, Note_on_c, 1, 60, 75
4, 35661, Note_on_c, 1, 60, 0
4, 35856, Note_on_c, 1, 50, 75
4, 35901, Note_on_c, 1, 50, 0
4, 35904, Note_on_c, 1, 52, 75
4, 35927, Note_on_c, 1, 52, 0
4, 35928, Note_on_c, 1, 61, 75
4, 35951, Note_on_c, 1, 61, 0
4, 35952, Note_on_c, 1, 55, 75
4, 35975, Note_on_c, 1, 55, 0
4, 35976, Note_on_c, 1, 61, 75
4, 35999, Note_on_c, 1, 61, 0
4, 36000, Note_on_c, 1, 52, 75
4, 36023, Note_on_c, 1, 52, 0
4, 36024, Note_on_c, 1, 61, 75
4, 36047, Note_on_c, 1, 61, 0
4, 36048, Note_on_c, 1, 55, 75
4, 36071, Note_on_c, 1, 55, 0
4, 36072, Note_on_c, 1, 61, 75
4, 36095, Note_on_c, 1, 61, 0
4, 36096, Note_on_c, 1, 50, 75
4, 36119, Note_on_c, 1, 50, 0
4, 36120, Note_on_c, 1, 62, 75
4, 36143, Note_on_c, 1, 62, 0
4, 36144, Note_on_c, 1, 54, 75
4, 36167, Note_on_c, 1, 54, 0
4, 36168, Note_on_c, 1, 62, 75
4, 36191, Note_on_c, 1, 62, 0
4, 36192, Note_on_c, 1, 50, 75
4, 36215, Note_on_c, 1, 50, 0
4, 36216, Note_on_c, 1, 62, 75
4, 36239, Note_on_c, 1, 62, 0
4, 36240, Note_on_c, 1, 54, 75
4, 36263, Note_on_c, 1, 54, 0
4, 36264, Note_on_c, 1, 62, 75
4, 36287, Note_on_c, 1, 62, 0
4, 36288, Note_on_c, 1, 55, 75
4, 36311, Note_on_c, 1, 55, 0
4, 36312, Note_on_c, 1, 62, 75
4, 36335, Note_on_c, 1, 62, 0
4, 36336, Note_on_c, 1, 59, 75
4, 36359, Note_on_c, 1, 59, 0
4, 36360, Note_on_c, 1, 62, 75
4, 36383, Note_on_c, 1, 62, 0
4, 36384, Note_on_c, 1, 55, 75
4, 36407, Note_on_c, 1, 55, 0
4, 36408, Note_on_c, 1, 62, 75
4, 36431, Note_on_c, 1, 62, 0
4, 36432, Note_on_c, 1, 59, 75
4, 36455, Note_on_c, 1, 59, 0
4, 36456, Note_on_c, 1, 62, 75
4, 36479, Note_on_c, 1, 62, 0
4, 36480, Note_on_c, 1, 60, 75
4, 36569, Note_on_c, 1, 60, 0
4, 36720, Note_on_c, 1, 47, 75
4, 36765, Note_on_c, 1, 47, 0
4, 36768, Note_on_c, 1, 48, 75
4, 36813, Note_on_c, 1, 48, 0
4, 36816, Note_on_c, 1, 50, 75
4, 36861, Note_on_c, 1, 50, 0
4, 36864, Note_on_c, 1, 52, 75
4, 36887, Note_on_c, 1, 52, 0
4, 36888, Note_on_c, 1, 61, 75
4, 36911, Note_on_c, 1, 61, 0
4, 36912, Note_on_c, 1, 55, 75
4, 36935, Note_on_c, 1, 55, 0
4, 36936, Note_on_c, 1, 61, 75
4, 36959, Note_on_c, 1, 61, 0
4, 36960, Note_on_c, 1, 52, 75
4, 36983, Note_on_c, 1, 52, 0
4, 36984, Note_on_c, 1, 61, 75
4, 37007, Note_on_c, 1, 61, 0
4, 37008, Note_on_c, 1, 55, 75
4, 37031, Note_on_c, 1, 55, 0
4, 37032, Note_on_c, 1, 61, 75
4, 37055, Note_on_c, 1, 61, 0
4, 37056, Note_on_c, 1, 50, 75
4, 37079, Note_on_c, 1, 50, 0
4, 37080, Note_on_c, 1, 62, 75
4, 37103, Note_on_c, 1, 62, 0
4, 37104, Note_on_c, 1, 54, 75
4, 37127, Note_on_c, 1, 54, 0
4, 37128, Note_on_c, 1, 62, 75
4, 37151, Note_on_c, 1, 62, 0
4, 37152, Note_on_c, 1, 50, 75
4, 37175, Note_on_c, 1, 50, 0
4, 37176, Note_on_c, 1, 62, 75
4, 37199, Note_on_c, 1, 62, 0
4, 37200, Note_on_c, 1, 54, 75
4, 37223, Note_on_c, 1, 54, 0
4, 37224, Note_on_c, 1, 62, 75
4, 37247, Note_on_c, 1, 62, 0
4, 37248, Note_on_c, 1, 55, 75
4, 37271, Note_on_c, 1, 55, 0
4, 37272, Note_on_c, 1, 62, 75
4, 37295, Note_on_c, 1, 62, 0
4, 37296, Note_on_c, 1, 59, 75
4, 37319, Note_on_c, 1, 59, 0
4, 37320, Note_on_c, 1, 62, 75
4, 37343, Note_on_c, 1, 62, 0
4, 37344, Note_on_c, 1, 55, 75
4, 37367, Note_on_c, 1, 55, 0
4, 37368, Note_on_c, 1, 62, 75
4, 37391, Note_on_c, 1, 62, 0
4, 37392, Note_on_c, 1, 59, 75
4, 37415, Note_on_c, 1, 59, 0
4, 37416, Note_on_c, 1, 62, 75
4, 37439, Note_on_c, 1, 62, 0
4, 37440, Note_on_c, 1, 60, 75
4, 37529, Note_on_c, 1, 60, 0
4, 37680, Note_on_c, 1, 47, 75
4, 37725, Note_on_c, 1, 47, 0
4, 37728, Note_on_c, 1, 48, 75
4, 37773, Note_on_c, 1, 48, 0
4, 37776, Note_on_c, 1, 50, 75
4, 37821, Note_on_c, 1, 50, 0
4, 37824, Note_on_c, 1, 55, 75
4, 37869, Note_on_c, 1, 55, 0
4, 37872, Note_on_c, 1, 47, 75
4, 37917, Note_on_c, 1, 47, 0
4, 37920, Note_on_c, 1, 48, 75
4, 37965, Note_on_c, 1, 48, 0
4, 38064, Note_on_c, 1, 47, 75
4, 38109, Note_on_c, 1, 47, 0
4, 38112, Note_on_c, 1, 48, 75
4, 38157, Note_on_c, 1, 48, 0
4, 38160, Note_on_c, 1, 50, 75
4, 38205, Note_on_c, 1, 50, 0
4, 38208, Note_on_c, 1, 43, 75
4, 38231, Note_on_c, 1, 43, 0
4, 38232, Note_on_c, 1, 55, 75
4, 38255, Note_on_c, 1, 55, 0
4, 38256, Note_on_c, 1, 43, 75
4, 38279, Note_on_c, 1, 43, 0
4, 38280, Note_on_c, 1, 55, 75
4, 38303, Note_on_c, 1, 55, 0
4, 38304, Note_on_c, 1, 43, 75
4, 38327, Note_on_c, 1, 43, 0
4, 38328, Note_on_c, 1, 55, 75
4, 38351, Note_on_c, 1, 55, 0
4, 38352, Note_on_c, 1, 43, 75
4, 38375, Note_on_c, 1, 43, 0
4, 38376, Note_on_c, 1, 55, 75
4, 38399, Note_on_c, 1, 55, 0
4, 38400, Note_on_c, 1, 43, 75
4, 38423, Note_on_c, 1, 43, 0
4, 38424, Note_on_c, 1, 55, 75
4, 38447, Note_on_c, 1, 55, 0
4, 38448, Note_on_c, 1, 43, 75
4, 38471, Note_on_c, 1, 43, 0
4, 38472, Note_on_c, 1, 55, 75
4, 38495, Note_on_c, 1, 55, 0
4, 38496, Note_on_c, 1, 43, 75
4, 38519, Note_on_c, 1, 43, 0
4, 38520, Note_on_c, 1, 55, 75
4, 38543, Note_on_c, 1, 55, 0
4, 38544, Note_on_c, 1, 43, 75
4, 38567, Note_on_c, 1, 43, 0
4, 38568, Note_on_c, 1, 55, 75
4, 38591, Note_on_c, 1, 55, 0
4, 38592, Note_on_c, 1, 43, 75
4, 38681, Note_on_c, 1, 43, 0
4, 38784, Note_on_c, 1, 50, 80
4, 38807, Note_on_c, 1, 50, 0
4, 38808, Note_on_c, 1, 57, 80
4, 38831, Note_on_c, 1, 57, 0
4, 38832, Note_on_c, 1, 53, 80
4, 38855, Note_on_c, 1, 53, 0
4, 38856, Note_on_c, 1, 57, 80
4, 38879, Note_on_c, 1, 57, 0
4, 38880, Note_on_c, 1, 50, 80
4, 38903, Note_on_c, 1, 50, 0
4, 38904, Note_on_c, 1, 57, 80
4, 38927, Note_on_c, 1, 57, 0
4, 38928, Note_on_c, 1, 53, 80
4, 38951, Note_on_c, 1, 53, 0
4, 38952, Note_on_c, 1, 57, 80
4, 38975, Note_on_c, 1, 57, 0
4, 38976, Note_on_c, 1, 50, 80
4, 38999, Note_on_c, 1, 50, 0
4, 39000, Note_on_c, 1, 59, 80
4, 39023, Note_on_c, 1, 59, 0
4, 39024, Note_on_c, 1, 56, 80
4, 39047, Note_on_c, 1, 56, 0
4, 39048, Note_on_c, 1, 59, 80
4, 39071, Note_on_c, 1, 59, 0
4, 39072, Note_on_c, 1, 50, 80
4, 39095, Note_on_c, 1, 50, 0
4, 39096, Note_on_c, 1, 59, 80
4, 39119, Note_on_c, 1, 59, 0
4, 39120, Note_on_c, 1, 56, 80
4, 39143, Note_on_c, 1, 56, 0
4, 39144, Note_on_c, 1, 59, 80
4, 39167, Note_on_c, 1, 59, 0
4, 39168, Note_on_c, 1, 50, 80
4, 39191, Note_on_c, 1, 50, 0
4, 39192, Note_on_c, 1, 59, 80
4, 39215, Note_on_c, 1, 59, 0
4, 39216, Note_on_c, 1, 56, 80
4, 39239, Note_on_c, 1, 56, 0
4, 39240, Note_on_c, 1, 59, 80
4, 39263, Note_on_c, 1, 59, 0
4, 39264, Note_on_c, 1, 50, 80
4, 39287, Note_on_c, 1, 50, 0
4, 39288, Note_on_c, 1, 59, 80
4, 39311, Note_on_c, 1, 59, 0
4, 39312, Note_on_c, 1, 56, 80
4, 39335, Note_on_c, 1, 56, 0
4, 39336, Note_on_c, 1, 59, 80
4, 39359, Note_on_c, 1, 59, 0
4, 39360, Note_on_c, 1, 48, 80
4, 39383, Note_on_c, 1, 48, 0
4, 39384, Note_on_c, 1, 57, 80
4, 39407, Note_on_c, 1, 57, 0
4, 39408, Note_on_c, 1, 52, 80
4, 39431, Note_on_c, 1, 52, 0
4, 39432, Note_on_c, 1, 57, 80
4, 39455, Note_on_c, 1, 57, 0
4, 39456, Note_on_c, 1, 48, 80
4, 39479, Note_on_c, 1, 48, 0
4, 39480, Note_on_c, 1, 57, 80
4, 39503, Note_on_c, 1, 57, 0
4, 39504, Note_on_c, 1, 52, 80
4, 39527, Note_on_c, 1, 52, 0
4, 39528, Note_on_c, 1, 57, 80
4, 39551, Note_on_c, 1, 57, 0
4, 39552, Note_on_c, 1, 48, 80
4, 39575, Note_on_c, 1, 48, 0
4, 39576, Note_on_c, 1, 57, 80
4, 39599, Note_on_c, 1, 57, 0
4, 39600, Note_on_c, 1, 52, 80
4, 39623, Note_on_c, 1, 52, 0
4, 39624, Note_on_c, 1, 57, 80
4, 39647, Note_on_c, 1, 57, 0
4, 39648, Note_on_c, 1, 48, 80
4, 39671, Note_on_c, 1, 48, 0
4, 39672, Note_on_c, 1, 57, 80
4, 39695, Note_on_c, 1, 57, 0
4, 39696, Note_on_c, 1, 52, 80
4, 39719, Note_on_c, 1, 52, 0
4, 39720, Note_on_c, 1, 57, 80
4, 39743, Note_on_c, 1, 57, 0
4, 39744, Note_on_c, 1, 47, 80
4, 39767, Note_on_c, 1, 47, 0
4, 39768, Note_on_c, 1, 57, 80
4, 39791, Note_on_c, 1, 57, 0
4, 39792, Note_on_c, 1, 54, 80
4, 39815, Note_on_c, 1, 54, 0
4, 39816, Note_on_c, 1, 57, 80
4, 39839, Note_on_c, 1, 57, 0
4, 39840, Note_on_c, 1, 47, 80
4, 39863, Note_on_c, 1, 47, 0
4, 39864, Note_on_c, 1, 57, 80
4, 39887, Note_on_c, 1, 57, 0
4, 39888, Note_on_c, 1, 54, 80
4, 39911, Note_on_c, 1, 54, 0
4, 39912, Note_on_c, 1, 57, 80
4, 39935, Note_on_c, 1, 57, 0
4, 39936, Note_on_c, 1, 51, 80
4, 39959, Note_on_c, 1, 51, 0
4, 39960, Note_on_c, 1, 57, 80
4, 39983, Note_on_c, 1, 57, 0
4, 39984, Note_on_c, 1, 54, 80
4, 40007, Note_on_c, 1, 54, 0
4, 40008, Note_on_c, 1, 57, 80
4, 40031, Note_on_c, 1, 57, 0
4, 40032, Note_on_c, 1, 51, 80
4, 40055, Note_on_c, 1, 51, 0
4, 40056, Note_on_c, 1, 57, 80
4, 40079, Note_on_c, 1, 57, 0
4, 40080, Note_on_c, 1, 54, 80
4, 40103, Note_on_c, 1, 54, 0
4, 40104, Note_on_c, 1, 57, 80
4, 40127, Note_on_c, 1, 57, 0
4, 40128, Note_on_c, 1, 52, 80
4, 40151, Note_on_c, 1, 52, 0
4, 40152, Note_on_c, 1, 59, 80
4, 40175, Note_on_c, 1, 59, 0
4, 40176, Note_on_c, 1, 55, 80
4, 40199, Note_on_c, 1, 55, 0
4, 40200, Note_on_c, 1, 59, 80
4, 40223, Note_on_c, 1, 59, 0
4, 40224, Note_on_c, 1, 52, 80
4, 40247, Note_on_c, 1, 52, 0
4, 40248, Note_on_c, 1, 59, 80
4, 40271, Note_on_c, 1, 59, 0
4, 40272, Note_on_c, 1, 55, 80
4, 40295, Note_on_c, 1, 55, 0
4, 40296, Note_on_c, 1, 59, 80
4, 40319, Note_on_c, 1, 59, 0
4, 40320, Note_on_c, 1, 52, 80
4, 40343, Note_on_c, 1, 52, 0
4, 40344, Note_on_c, 1, 59, 80
4, 40367, Note_on_c, 1, 59, 0
4, 40368, Note_on_c, 1, 55, 80
4, 40391, Note_on_c, 1, 55, 0
4, 40392, Note_on_c, 1, 59, 80
4, 40415, Note_on_c, 1, 59, 0
4, 40416, Note_on_c, 1, 52, 80
4, 40439, Note_on_c, 1, 52, 0
4, 40440, Note_on_c, 1, 59, 80
4, 40463, Note_on_c, 1, 59, 0
4, 40464, Note_on_c, 1, 55, 80
4, 40487, Note_on_c, 1, 55, 0
4, 40488, Note_on_c, 1, 59, 80
4, 40511, Note_on_c, 1, 59, 0
4, 40512, Note_on_c, 1, 51, 80
4, 40535, Note_on_c, 1, 51, 0
4, 40536, Note_on_c, 1, 59, 80
4, 40559, Note_on_c, 1, 59, 0
4, 40560, Note_on_c, 1, 54, 80
4, 40583, Note_on_c, 1, 54, 0
4, 40584, Note_on_c, 1, 59, 80
4, 40607, Note_on_c, 1, 59, 0
4, 40608, Note_on_c, 1, 51, 80
4, 40631, Note_on_c, 1, 51, 0
4, 40632, Note_on_c, 1, 59, 80
4, 40655, Note_on_c, 1, 59, 0
4, 40656, Note_on_c, 1, 54, 80
4, 40679, Note_on_c, 1, 54, 0
4, 40680, Note_on_c, 1, 59, 80
4, 40703, Note_on_c, 1, 59, 0
4, 40704, Note_on_c, 1, 51, 80
4, 40727, Note_on_c, 1, 51, 0
4, 40728, Note_on_c, 1, 59, 80
4, 40751, Note_on_c, 1, 59, 0
4, 40752, Note_on_c, 1, 54, 80
4, 40775, Note_on_c, 1, 54, 0
4, 40776, Note_on_c, 1, 59, 80
4, 40799, Note_on_c, 1, 59, 0
4, 40800, Note_on_c, 1, 51, 80
4, 40823, Note_on_c, 1, 51, 0
4, 40824, Note_on_c, 1, 59, 80
4, 40847, Note_on_c, 1, 59, 0
4, 40848, Note_on_c, 1, 54, 80
4, 40871, Note_on_c, 1, 54, 0
4, 40872, Note_on_c, 1, 59, 80
4, 40895, Note_on_c, 1, 59, 0
4, 40896, Note_on_c, 1, 52, 80
4, 40919, Note_on_c, 1, 52, 0
4, 40920, Note_on_c, 1, 59, 80
4, 40943, Note_on_c, 1, 59, 0
4, 40944, Note_on_c, 1, 55, 80
4, 40967, Note_on_c, 1, 55, 0
4, 40968, Note_on_c, 1, 59, 80
4, 40991, Note_on_c, 1, 59, 0
4, 40992, Note_on_c, 1, 52, 80
4, 41015, Note_on_c, 1, 52, 0
4, 41016, Note_on_c, 1, 59, 80
4, 41039, Note_on_c, 1, 59, 0
4, 41040, Note_on_c, 1, 55, 80
4, 41063, Note_on_c, 1, 55, 0
4, 41064, Note_on_c, 1, 59, 80
4, 41087, Note_on_c, 1, 59, 0
4, 41088, Note_on_c, 1, 52, 80
4, 41111, Note_on_c, 1, 52, 0
4, 41112, Note_on_c, 1, 59, 80
4, 41135, Note_on_c, 1, 59, 0
4, 41136, Note_on_c, 1, 55, 80
4, 41159, Note_on_c, 1, 55, 0
4, 41160, Note_on_c, 1, 59, 80
4, 41183, Note_on_c, 1, 59, 0
4, 41184, Note_on_c, 1, 52, 80
4, 41207, Note_on_c, 1, 52, 0
4, 41208, Note_on_c, 1, 59, 80
4, 41231, Note_on_c, 1, 59, 0
4, 41232, Note_on_c, 1, 55, 80
4, 41255, Note_on_c, 1, 55, 0
4, 41256, Note_on_c, 1, 59, 80
4, 41279, Note_on_c, 1, 59, 0
4, 41280, Note_on_c, 1, 48, 80
4, 41303, Note_on_c, 1, 48, 0
4, 41304, Note_on_c, 1, 58, 80
4, 41327, Note_on_c, 1, 58, 0
4, 41328, Note_on_c, 1, 52, 80
4, 41351, Note_on_c, 1, 52, 0
4, 41352, Note_on_c, 1, 58, 80
4, 41375, Note_on_c, 1, 58, 0
4, 41376, Note_on_c, 1, 48, 80
4, 41399, Note_on_c, 1, 48, 0
4, 41400, Note_on_c, 1, 58, 80
4, 41423, Note_on_c, 1, 58, 0
4, 41424, Note_on_c, 1, 52, 80
4, 41447, Note_on_c, 1, 52, 0
4, 41448, Note_on_c, 1, 58, 80
4, 41471, Note_on_c, 1, 58, 0
4, 41472, Note_on_c, 1, 48, 80
4, 41495, Note_on_c, 1, 48, 0
4, 41496, Note_on_c, 1, 58, 80
4, 41519, Note_on_c, 1, 58, 0
4, 41520, Note_on_c, 1, 52, 80
4, 41543, Note_on_c, 1, 52, 0
4, 41544, Note_on_c, 1, 58, 80
4, 41567, Note_on_c, 1, 58, 0
4, 41568, Note_on_c, 1, 48, 80
4, 41591, Note_on_c, 1, 48, 0
4, 41592, Note_on_c, 1, 58, 80
4, 41615, Note_on_c, 1, 58, 0
4, 41616, Note_on_c, 1, 52, 80
4, 41639, Note_on_c, 1, 52, 0
4, 41640, Note_on_c, 1, 58, 80
4, 41663, Note_on_c, 1, 58, 0
4, 41664, Note_on_c, 1, 47, 80
4, 41687, Note_on_c, 1, 47, 0
4, 41688, Note_on_c, 1, 57, 80
4, 41711, Note_on_c, 1, 57, 0
4, 41712, Note_on_c, 1, 51, 80
4, 41735, Note_on_c, 1, 51, 0
4, 41736, Note_on_c, 1, 57, 80
4, 41759, Note_on_c, 1, 57, 0
4, 41760, Note_on_c, 1, 47, 80
4, 41783, Note_on_c, 1, 47, 0
4, 41784, Note_on_c, 1, 57, 80
4, 41807, Note_on_c, 1, 57, 0
4, 41808, Note_on_c, 1, 51, 80
4, 41831, Note_on_c, 1, 51, 0
4, 41832, Note_on_c, 1, 57, 80
4, 41855, Note_on_c, 1, 57, 0
4, 41856, Note_on_c, 1, 52, 80
4, 41879, Note_on_c, 1, 52, 0
4, 41880, Note_on_c, 1, 62, 80
4, 41903, Note_on_c, 1, 62, 0
4, 41904, Note_on_c, 1, 56, 80
4, 41927, Note_on_c, 1, 56, 0
4, 41928, Note_on_c, 1, 62, 80
4, 41951, Note_on_c, 1, 62, 0
4, 41952, Note_on_c, 1, 52, 80
4, 41975, Note_on_c, 1, 52, 0
4, 41976, Note_on_c, 1, 62, 80
4, 41999, Note_on_c, 1, 62, 0
4, 42000, Note_on_c, 1, 56, 80
4, 42023, Note_on_c, 1, 56, 0
4, 42024, Note_on_c, 1, 62, 80
4, 42047, Note_on_c, 1, 62, 0
4, 42048, Note_on_c, 1, 57, 80
4, 42071, Note_on_c, 1, 57, 0
4, 42072, Note_on_c, 1, 67, 80
4, 42095, Note_on_c, 1, 67, 0
4, 42096, Note_on_c, 1, 61, 80
4, 42119, Note_on_c, 1, 61, 0
4, 42120, Note_on_c, 1, 67, 80
4, 42143, Note_on_c, 1, 67, 0
4, 42144, Note_on_c, 1, 57, 80
4, 42167, Note_on_c, 1, 57, 0
4, 42168, Note_on_c, 1, 67, 80
4, 42191, Note_on_c, 1, 67, 0
4, 42192, Note_on_c, 1, 61, 80
4, 42215, Note_on_c, 1, 61, 0
4, 42216, Note_on_c, 1, 67, 80
4, 42239, Note_on_c, 1, 67, 0
4, 42240, Note_on_c, 1, 60, 80
4, 42263, Note_on_c, 1, 60, 0
4, 42264, Note_on_c, 1, 69, 80
4, 42287, Note_on_c, 1, 69, 0
4, 42288, Note_on_c, 1, 66, 80
4, 42311, Note_on_c, 1, 66, 0
4, 42312, Note_on_c, 1, 69, 80
4, 42335, Note_on_c, 1, 69, 0
4, 42336, Note_on_c, 1, 60, 80
4, 42359, Note_on_c, 1, 60, 0
4, 42360, Note_on_c, 1, 69, 80
4, 42383, Note_on_c, 1, 69, 0
4, 42384, Note_on_c, 1, 66, 80
4, 42407, Note_on_c, 1, 66, 0
4, 42408, Note_on_c, 1, 69, 80
4, 42431, Note_on_c, 1, 69, 0
4, 42432, Note_on_c, 1, 59, 80
4, 42455, Note_on_c, 1, 59, 0
4, 42456, Note_on_c, 1, 67, 80
4, 42479, Note_on_c, 1, 67, 0
4, 42480, Note_on_c, 1, 62, 80
4, 42503, Note_on_c, 1, 62, 0
4, 42504, Note_on_c, 1, 67, 80
4, 42527, Note_on_c, 1, 67, 0
4, 42528, Note_on_c, 1, 59, 80
4, 42551, Note_on_c, 1, 59, 0
4, 42552, Note_on_c, 1, 67, 80
4, 42575, Note_on_c, 1, 67, 0
4, 42576, Note_on_c, 1, 62, 80
4, 42599, Note_on_c, 1, 62, 0
4, 42600, Note_on_c, 1, 67, 80
4, 42623, Note_on_c, 1, 67, 0
4, 42624, Note_on_c, 1, 60, 80
4, 42647, Note_on_c, 1, 60, 0
4, 42648, Note_on_c, 1, 69, 80
4, 42671, Note_on_c, 1, 69, 0
4, 42672, Note_on_c, 1, 66, 80
4, 42695, Note_on_c, 1, 66, 0
4, 42696, Note_on_c, 1, 69, 80
4, 42719, Note_on_c, 1, 69, 0
4, 42720, Note_on_c, 1, 60, 80
4, 42743, Note_on_c, 1, 60, 0
4, 42744, Note_on_c, 1, 69, 80
4, 42767, Note_on_c, 1, 69, 0
4, 42768, Note_on_c, 1, 66, 80
4, 42791, Note_on_c, 1, 66, 0
4, 42792, Note_on_c, 1, 69, 80
4, 42815, Note_on_c, 1, 69, 0
4, 42816, Note_on_c, 1, 58, 80
4, 42839, Note_on_c, 1, 58, 0
4, 42840, Note_on_c, 1, 67, 80
4, 42863, Note_on_c, 1, 67, 0
4, 42864, Note_on_c, 1, 62, 80
4, 42887, Note_on_c, 1, 62, 0
4, 42888, Note_on_c, 1, 67, 80
4, 42911, Note_on_c, 1, 67, 0
4, 42912, Note_on_c, 1, 58, 80
4, 42935, Note_on_c, 1, 58, 0
4, 42936, Note_on_c, 1, 67, 80
4, 42959, Note_on_c, 1, 67, 0
4, 42960, Note_on_c, 1, 62, 80
4, 42983, Note_on_c, 1, 62, 0
4, 42984, Note_on_c, 1, 67, 80
4, 43007, Note_on_c, 1, 67, 0
4, 43008, Note_on_c, 1, 60, 80
4, 43031, Note_on_c, 1, 60, 0
4, 43032, Note_on_c, 1, 67, 80
4, 43055, Note_on_c, 1, 67, 0
4, 43056, Note_on_c, 1, 63, 80
4, 43079, Note_on_c, 1, 63, 0
4, 43080, Note_on_c, 1, 67, 80
4, 43103, Note_on_c, 1, 67, 0
4, 43104, Note_on_c, 1, 57, 80
4, 43127, Note_on_c, 1, 57, 0
4, 43128, Note_on_c, 1, 65, 80
4, 43151, Note_on_c, 1, 65, 0
4, 43152, Note_on_c, 1, 60, 80
4, 43175, Note_on_c, 1, 60, 0
4, 43176, Note_on_c, 1, 65, 80
4, 43199, Note_on_c, 1, 65, 0
4, 43200, Note_on_c, 1, 58, 80
4, 43223, Note_on_c, 1, 58, 0
4, 43224, Note_on_c, 1, 65, 80
4, 43247, Note_on_c, 1, 65, 0
4, 43248, Note_on_c, 1, 62, 80
4, 43271, Note_on_c, 1, 62, 0
4, 43272, Note_on_c, 1, 65, 80
4, 43295, Note_on_c, 1, 65, 0
4, 43296, Note_on_c, 1, 55, 80
4, 43319, Note_on_c, 1, 55, 0
4, 43320, Note_on_c, 1, 63, 80
4, 43343, Note_on_c, 1, 63, 0
4, 43344, Note_on_c, 1, 58, 80
4, 43367, Note_on_c, 1, 58, 0
4, 43368, Note_on_c, 1, 63, 80
4, 43391, Note_on_c, 1, 63, 0
4, 43392, Note_on_c, 1, 57, 80
4, 43415, Note_on_c, 1, 57, 0
4, 43416, Note_on_c, 1, 63, 80
4, 43439, Note_on_c, 1, 63, 0
4, 43440, Note_on_c, 1, 60, 80
4, 43463, Note_on_c, 1, 60, 0
4, 43464, Note_on_c, 1, 63, 80
4, 43487, Note_on_c, 1, 63, 0
4, 43488, Note_on_c, 1, 54, 80
4, 43511, Note_on_c, 1, 54, 0
4, 43512, Note_on_c, 1, 62, 80
4, 43535, Note_on_c, 1, 62, 0
4, 43536, Note_on_c, 1, 57, 80
4, 43559, Note_on_c, 1, 57, 0
4, 43560, Note_on_c, 1, 62, 80
4, 43583, Note_on_c, 1, 62, 0
4, 43584, Note_on_c, 1, 55, 80
4, 43607, Note_on_c, 1, 55, 0
4, 43608, Note_on_c, 1, 62, 80
4, 43631, Note_on_c, 1, 62, 0
4, 43632, Note_on_c, 1, 58, 80
4, 43655, Note_on_c, 1, 58, 0
4, 43656, Note_on_c, 1, 62, 80
4, 43679, Note_on_c, 1, 62, 0
4, 43680, Note_on_c, 1, 53, 80
4, 43703, Note_on_c, 1, 53, 0
4, 43704, Note_on_c, 1, 62, 80
4, 43727, Note_on_c, 1, 62, 0
4, 43728, Note_on_c, 1, 57, 80
4, 43751, Note_on_c, 1, 57, 0
4, 43752, Note_on_c, 1, 62, 80
4, 43775, Note_on_c, 1, 62, 0
4, 43776, Note_on_c, 1, 51, 80
4, 43799, Note_on_c, 1, 51, 0
4, 43800, Note_on_c, 1, 61, 80
4, 43823, Note_on_c, 1, 61, 0
4, 43824, Note_on_c, 1, 55, 80
4, 43847, Note_on_c, 1, 55, 0
4, 43848, Note_on_c, 1, 61, 80
4, 43871, Note_on_c, 1, 61, 0
4, 43872, Note_on_c, 1, 51, 80
4, 43895, Note_on_c, 1, 51, 0
4, 43896, Note_on_c, 1, 61, 80
4, 43919, Note_on_c, 1, 61, 0
4, 43920, Note_on_c, 1, 55, 80
4, 43943, Note_on_c, 1, 55, 0
4, 43944, Note_on_c, 1, 61, 80
4, 43967, Note_on_c, 1, 61, 0
4, 43968, Note_on_c, 1, 50, 80
4, 43991, Note_on_c, 1, 50, 0
4, 43992, Note_on_c, 1, 60, 80
4, 44015, Note_on_c, 1, 60, 0
4, 44016, Note_on_c, 1, 54, 80
4, 44039, Note_on_c, 1, 54, 0
4, 44040, Note_on_c, 1, 60, 80
4, 44063, Note_on_c, 1, 60, 0
4, 44064, Note_on_c, 1, 50, 80
4, 44087, Note_on_c, 1, 50, 0
4, 44088, Note_on_c, 1, 60, 80
4, 44111, Note_on_c, 1, 60, 0
4, 44112, Note_on_c, 1, 54, 80
4, 44135, Note_on_c, 1, 54, 0
4, 44136, Note_on_c, 1, 60, 80
4, 44159, Note_on_c, 1, 60, 0
4, 44160, Note_on_c, 1, 60, 80
4, 44160, Note_on_c, 1, 54, 80
4, 44160, Note_on_c, 1, 50, 80
4, 44397, Note_on_c, 1, 60, 0
4, 44397, Note_on_c, 1, 54, 0
4, 44397, Note_on_c, 1, 50, 0
4, 44544, Note_on_c, 1, 59, 80
4, 44544, Note_on_c, 1, 55, 80
4, 44633, Note_on_c, 1, 59, 0
4, 44633, Note_on_c, 1, 55, 0
4, 44784, Note_on_c, 1, 71, 80
4, 44784, Note_on_c, 1, 67, 80
4, 44829, Note_on_c, 1, 71, 0
4, 44829, Note_on_c, 1, 67, 0
4, 44832, Note_on_c, 1, 69, 80
4, 44832, Note_on_c, 1, 66, 80
4, 44877, Note_on_c, 1, 69, 0
4, 44877, Note_on_c, 1, 66, 0
4, 44880, Note_on_c, 1, 72, 80
4, 44880, Note_on_c, 1, 69, 80
4, 44925, Note_on_c, 1, 72, 0
4, 44925, Note_on_c, 1, 69, 0
4, 44928, Note_on_c, 1, 71, 80
4, 44928, Note_on_c, 1, 67, 80
4, 45017, Note_on_c, 1, 71, 0
4, 45017, Note_on_c, 1, 67, 0
4, 45168, Note_on_c, 1, 71, 80
4, 45168, Note_on_c, 1, 67, 80
4, 45213, Note_on_c, 1, 71, 0
4, 45213, Note_on_c, 1, 67, 0
4, 45216, Note_on_c, 1, 69, 80
4, 45216, Note_on_c, 1, 66, 80
4, 45261, Note_on_c, 1, 69, 0
4, 45261, Note_on_c, 1, 66, 0
4, 45264, Note_on_c, 1, 72, 80
4, 45264, Note_on_c, 1, 69, 80
4, 45309, Note_on_c, 1, 72, 0
4, 45309, Note_on_c, 1, 69, 0
4, 45312, Note_on_c, 1, 71, 80
4, 45312, Note_on_c, 1, 67, 80
4, 45401, Note_on_c, 1, 71, 0
4, 45401, Note_on_c, 1, 67, 0
4, 45456, Note_on_c, 1, 72, 80
4, 45456, Note_on_c, 1, 67, 80
4, 45501, Note_on_c, 1, 72, 0
4, 45501, Note_on_c, 1, 67, 0
4, 45504, Note_on_c, 1, 71, 80
4, 45504, Note_on_c, 1, 67, 80
4, 45593, Note_on_c, 1, 71, 0
4, 45593, Note_on_c, 1, 67, 0
4, 45744, Note_on_c, 1, 71, 80
4, 45789, Note_on_c, 1, 71, 0
4, 45792, Note_on_c, 1, 69, 80
4, 45837, Note_on_c, 1, 69, 0
4, 45840, Note_on_c, 1, 62, 80
4, 45885, Note_on_c, 1, 62, 0
4, 45888, Note_on_c, 1, 67, 80
4, 45933, Note_on_c, 1, 67, 0
4, 45936, Note_on_c, 1, 62, 80
4, 45981, Note_on_c, 1, 62, 0
4, 45984, Note_on_c, 1, 55, 80
4, 46029, Note_on_c, 1, 55, 0
4, 46080, Note_on_c, 1, 54, 80
4, 46080, Note_on_c, 1, 42, 80
4, 46125, Note_on_c, 1, 54, 0
4, 46125, Note_on_c, 1, 42, 0
4, 46128, Note_on_c, 1, 52, 80
4, 46128, Note_on_c, 1, 40, 80
4, 46173, Note_on_c, 1, 52, 0
4, 46173, Note_on_c, 1, 40, 0
4, 46176, Note_on_c, 1, 50, 80
4, 46176, Note_on_c, 1, 38, 80
4, 46221, Note_on_c, 1, 50, 0
4, 46221, Note_on_c, 1, 38, 0
4, 46224, Note_on_c, 1, 48, 80
4, 46224, Note_on_c, 1, 36, 80
4, 46269, Note_on_c, 1, 48, 0
4, 46269, Note_on_c, 1, 36, 0
4, 46272, Note_on_c, 1, 47, 80
4, 46272, Note_on_c, 1, 35, 80
4, 46361, Note_on_c, 1, 47, 0
4, 46361, Note_on_c, 1, 35, 0
4, 46416, Note_on_c, 1, 52, 80
4, 46461, Note_on_c, 1, 52, 0
4, 46464, Note_on_c, 1, 50, 80
4, 46509, Note_on_c, 1, 50, 0
4, 46512, Note_on_c, 1, 48, 80
4, 46557, Note_on_c, 1, 48, 0
4, 46560, Note_on_c, 1, 47, 80
4, 46605, Note_on_c, 1, 47, 0
4, 46608, Note_on_c, 1, 45, 80
4, 46653, Note_on_c, 1, 45, 0
4, 46656, Note_on_c, 1, 44, 80
4, 46679, Note_on_c, 1, 44, 0
4, 46680, Note_on_c, 1, 52, 80
4, 46703, Note_on_c, 1, 52, 0
4, 46704, Note_on_c, 1, 47, 80
4, 46727, Note_on_c, 1, 47, 0
4, 46728, Note_on_c, 1, 52, 80
4, 46751, Note_on_c, 1, 52, 0
4, 46752, Note_on_c, 1, 44, 80
4, 46775, Note_on_c, 1, 44, 0
4, 46776, Note_on_c, 1, 52, 80
4, 46799, Note_on_c, 1, 52, 0
4, 46800, Note_on_c, 1, 47, 80
4, 46823, Note_on_c, 1, 47, 0
4, 46824, Note_on_c, 1, 52, 80
4, 46847, Note_on_c, 1, 52, 0
4, 46848, Note_on_c, 1, 44, 80
4, 46871, Note_on_c, 1, 44, 0
4, 46872, Note_on_c, 1, 52, 80
4, 46895, Note_on_c, 1, 52, 0
4, 46896, Note_on_c, 1, 47, 80
4, 46919, Note_on_c, 1, 47, 0
4, 46920, Note_on_c, 1, 52, 80
4, 46943, Note_on_c, 1, 52, 0
4, 46944, Note_on_c, 1, 44, 80
4, 46967, Note_on_c, 1, 44, 0
4, 46968, Note_on_c, 1, 52, 80
4, 46991, Note_on_c, 1, 52, 0
4, 46992, Note_on_c, 1, 47, 80
4, 47015, Note_on_c, 1, 47, 0
4, 47016, Note_on_c, 1, 52, 80
4, 47039, Note_on_c, 1, 52, 0
4, 47040, Note_on_c, 1, 45, 80
4, 47063, Note_on_c, 1, 45, 0
4, 47064, Note_on_c, 1, 52, 80
4, 47087, Note_on_c, 1, 52, 0
4, 47088, Note_on_c, 1, 48, 80
4, 47111, Note_on_c, 1, 48, 0
4, 47112, Note_on_c, 1, 52, 80
4, 47135, Note_on_c, 1, 52, 0
4, 47136, Note_on_c, 1, 45, 80
4, 47159, Note_on_c, 1, 45, 0
4, 47160, Note_on_c, 1, 52, 80
4, 47183, Note_on_c, 1, 52, 0
4, 47184, Note_on_c, 1, 48, 80
4, 47207, Note_on_c, 1, 48, 0
4, 47208, Note_on_c, 1, 52, 80
4, 47231, Note_on_c, 1, 52, 0
4, 47232, Note_on_c, 1, 42, 80
4, 47255, Note_on_c, 1, 42, 0
4, 47256, Note_on_c, 1, 50, 80
4, 47279, Note_on_c, 1, 50, 0
4, 47280, Note_on_c, 1, 45, 80
4, 47303, Note_on_c, 1, 45, 0
4, 47304, Note_on_c, 1, 50, 80
4, 47327, Note_on_c, 1, 50, 0
4, 47328, Note_on_c, 1, 42, 80
4, 47351, Note_on_c, 1, 42, 0
4, 47352, Note_on_c, 1, 50, 80
4, 47375, Note_on_c, 1, 50, 0
4, 47376, Note_on_c, 1, 45, 80
4, 47399, Note_on_c, 1, 45, 0
4, 47400, Note_on_c, 1, 50, 80
4, 47423, Note_on_c, 1, 50, 0
4, 47424, Note_on_c, 1, 43, 80
4, 47447, Note_on_c, 1, 43, 0
4, 47448, Note_on_c, 1, 50, 80
4, 47471, Note_on_c, 1, 50, 0
4, 47472, Note_on_c, 1, 47, 80
4, 47495, Note_on_c, 1, 47, 0
4, 47496, Note_on_c, 1, 50, 80
4, 47519, Note_on_c, 1, 50, 0
4, 47520, Note_on_c, 1, 43, 80
4, 47543, Note_on_c, 1, 43, 0
4, 47544, Note_on_c, 1, 50, 80
4, 47567, Note_on_c, 1, 50, 0
4, 47568, Note_on_c, 1, 47, 80
4, 47591, Note_on_c, 1, 47, 0
4, 47592, Note_on_c, 1, 50, 80
4, 47615, Note_on_c, 1, 50, 0
4, 47616, Note_on_c, 1, 42, 80
4, 47639, Note_on_c, 1, 42, 0
4, 47640, Note_on_c, 1, 50, 80
4, 47663, Note_on_c, 1, 50, 0
4, 47664, Note_on_c, 1, 45, 80
4, 47687, Note_on_c, 1, 45, 0
4, 47688, Note_on_c, 1, 50, 80
4, 47711, Note_on_c, 1, 50, 0
4, 47712, Note_on_c, 1, 42, 80
4, 47735, Note_on_c, 1, 42, 0
4, 47736, Note_on_c, 1, 50, 80
4, 47759, Note_on_c, 1, 50, 0
4, 47760, Note_on_c, 1, 45, 80
4, 47783, Note_on_c, 1, 45, 0
4, 47784, Note_on_c, 1, 50, 80
4, 47807, Note_on_c, 1, 50, 0
4, 47808, Note_on_c, 1, 43, 80
4, 47831, Note_on_c, 1, 43, 0
4, 47832, Note_on_c, 1, 50, 80
4, 47855, Note_on_c, 1, 50, 0
4, 47856, Note_on_c, 1, 47, 80
4, 47879, Note_on_c, 1, 47, 0
4, 47880, Note_on_c, 1, 50, 80
4, 47903, Note_on_c, 1, 50, 0
4, 47904, Note_on_c, 1, 47, 80
4, 47927, Note_on_c, 1, 47, 0
4, 47928, Note_on_c, 1, 55, 80
4, 47951, Note_on_c, 1, 55, 0
4, 47952, Note_on_c, 1, 50, 80
4, 47975, Note_on_c, 1, 50, 0
4, 47976, Note_on_c, 1, 55, 80
4, 47999, Note_on_c, 1, 55, 0
4, 48000, Note_on_c, 1, 48, 80
4, 48089, Note_on_c, 1, 48, 0
4, 48192, Note_on_c, 1, 50, 80
4, 48237, Note_on_c, 1, 50, 0
4, 48240, Note_on_c, 1, 45, 80
4, 48285, Note_on_c, 1, 45, 0
4, 48288, Note_on_c, 1, 38, 80
4, 48333, Note_on_c, 1, 38, 0
4, 48384, Note_on_c, 1, 55, 75
4, 48407, Note_on_c, 1, 55, 0
4, 48408, Note_on_c, 1, 62, 75
4, 48431, Note_on_c, 1, 62, 0
4, 48432, Note_on_c, 1, 59, 75
4, 48455, Note_on_c, 1, 59, 0
4, 48456, Note_on_c, 1, 62, 75
4, 48479, Note_on_c, 1, 62, 0
4, 48480, Note_on_c, 1, 55, 75
4, 48503, Note_on_c, 1, 55, 0
4, 48504, Note_on_c, 1, 62, 75
4, 48527, Note_on_c, 1, 62, 0
4, 48528, Note_on_c, 1, 59, 75
4, 48551, Note_on_c, 1, 59, 0
4, 48552, Note_on_c, 1, 62, 75
4, 48575, Note_on_c, 1, 62, 0
4, 48576, Note_on_c, 1, 57, 75
4, 48599, Note_on_c, 1, 57, 0
4, 48600, Note_on_c, 1, 62, 75
4, 48623, Note_on_c, 1, 62, 0
4, 48624, Note_on_c, 1, 60, 75
4, 48647, Note_on_c, 1, 60, 0
4, 48648, Note_on_c, 1, 62, 75
4, 48671, Note_on_c, 1, 62, 0
4, 48672, Note_on_c, 1, 57, 75
4, 48695, Note_on_c, 1, 57, 0
4, 48696, Note_on_c, 1, 62, 75
4, 48719, Note_on_c, 1, 62, 0
4, 48720, Note_on_c, 1, 60, 75
4, 48743, Note_on_c, 1, 60, 0
4, 48744, Note_on_c, 1, 62, 75
4, 48767, Note_on_c, 1, 62, 0
4, 48768, Note_on_c, 1, 54, 75
4, 48791, Note_on_c, 1, 54, 0
4, 48792, Note_on_c, 1, 62, 75
4, 48815, Note_on_c, 1, 62, 0
4, 48816, Note_on_c, 1, 57, 75
4, 48839, Note_on_c, 1, 57, 0
4, 48840, Note_on_c, 1, 62, 75
4, 48863, Note_on_c, 1, 62, 0
4, 48864, Note_on_c, 1, 54, 75
4, 48887, Note_on_c, 1, 54, 0
4, 48888, Note_on_c, 1, 62, 75
4, 48911, Note_on_c, 1, 62, 0
4, 48912, Note_on_c, 1, 57, 75
4, 48935, Note_on_c, 1, 57, 0
4, 48936, Note_on_c, 1, 62, 75
4, 48959, Note_on_c, 1, 62, 0
4, 48960, Note_on_c, 1, 55, 75
4, 48983, Note_on_c, 1, 55, 0
4, 48984, Note_on_c, 1, 62, 75
4, 49007, Note_on_c, 1, 62, 0
4, 49008, Note_on_c, 1, 59, 75
4, 49031, Note_on_c, 1, 59, 0
4, 49032, Note_on_c, 1, 62, 75
4, 49055, Note_on_c, 1, 62, 0
4, 49056, Note_on_c, 1, 55, 75
4, 49079, Note_on_c, 1, 55, 0
4, 49080, Note_on_c, 1, 62, 75
4, 49103, Note_on_c, 1, 62, 0
4, 49104, Note_on_c, 1, 59, 75
4, 49127, Note_on_c, 1, 59, 0
4, 49128, Note_on_c, 1, 62, 75
4, 49151, Note_on_c, 1, 62, 0
4, 49152, Note_on_c, 1, 55, 75
4, 49175, Note_on_c, 1, 55, 0
4, 49176, Note_on_c, 1, 62, 75
4, 49199, Note_on_c, 1, 62, 0
4, 49200, Note_on_c, 1, 59, 75
4, 49223, Note_on_c, 1, 59, 0
4, 49224, Note_on_c, 1, 62, 75
4, 49247, Note_on_c, 1, 62, 0
4, 49248, Note_on_c, 1, 55, 75
4, 49271, Note_on_c, 1, 55, 0
4, 49272, Note_on_c, 1, 62, 75
4, 49295, Note_on_c, 1, 62, 0
4, 49296, Note_on_c, 1, 59, 75
4, 49319, Note_on_c, 1, 59, 0
4, 49320, Note_on_c, 1, 62, 75
4, 49343, Note_on_c, 1, 62, 0
4, 49344, Note_on_c, 1, 57, 75
4, 49367, Note_on_c, 1, 57, 0
4, 49368, Note_on_c, 1, 62, 75
4, 49391, Note_on_c, 1, 62, 0
4, 49392, Note_on_c, 1, 60, 75
4, 49415, Note_on_c, 1, 60, 0
4, 49416, Note_on_c, 1, 62, 75
4, 49439, Note_on_c, 1, 62, 0
4, 49440, Note_on_c, 1, 57, 75
4, 49463, Note_on_c, 1, 57, 0
4, 49464, Note_on_c, 1, 62, 75
4, 49487, Note_on_c, 1, 62, 0
4, 49488, Note_on_c, 1, 60, 75
4, 49511, Note_on_c, 1, 60, 0
4, 49512, Note_on_c, 1, 62, 75
4, 49535, Note_on_c, 1, 62, 0
4, 49536, Note_on_c, 1, 54, 75
4, 49559, Note_on_c, 1, 54, 0
4, 49560, Note_on_c, 1, 62, 75
4, 49583, Note_on_c, 1, 62, 0
4, 49584, Note_on_c, 1, 57, 75
4, 49607, Note_on_c, 1, 57, 0
4, 49608, Note_on_c, 1, 62, 75
4, 49631, Note_on_c, 1, 62, 0
4, 49632, Note_on_c, 1, 54, 75
4, 49655, Note_on_c, 1, 54, 0
4, 49656, Note_on_c, 1, 62, 75
4, 49679, Note_on_c, 1, 62, 0
4, 49680, Note_on_c, 1, 57, 75
4, 49703, Note_on_c, 1, 57, 0
4, 49704, Note_on_c, 1, 62, 75
4, 49727, Note_on_c, 1, 62, 0
4, 49728, Note_on_c, 1, 55, 75
4, 49751, Note_on_c, 1, 55, 0
4, 49752, Note_on_c, 1, 62, 75
4, 49775, Note_on_c, 1, 62, 0
4, 49776, Note_on_c, 1, 59, 75
4, 49799, Note_on_c, 1, 59, 0
4, 49800, Note_on_c, 1, 62, 75
4, 49823, Note_on_c, 1, 62, 0
4, 49824, Note_on_c, 1, 55, 75
4, 49847, Note_on_c, 1, 55, 0
4, 49848, Note_on_c, 1, 62, 75
4, 49871, Note_on_c, 1, 62, 0
4, 49872, Note_on_c, 1, 59, 75
4, 49895, Note_on_c, 1, 59, 0
4, 49896, Note_on_c, 1, 62, 75
4, 49919, Note_on_c, 1, 62, 0
4, 49920, Note_on_c, 1, 59, 75
4, 50009, Note_on_c, 1, 59, 0
4, 50112, Note_on_c, 1, 60, 75
4, 50135, Note_on_c, 1, 60, 0
4, 50136, Note_on_c, 1, 72, 75
4, 50159, Note_on_c, 1, 72, 0
4, 50160, Note_on_c, 1, 59, 75
4, 50183, Note_on_c, 1, 59, 0
4, 50184, Note_on_c, 1, 71, 75
4, 50207, Note_on_c, 1, 71, 0
4, 50208, Note_on_c, 1, 57, 75
4, 50231, Note_on_c, 1, 57, 0
4, 50232, Note_on_c, 1, 69, 75
4, 50255, Note_on_c, 1, 69, 0
4, 50256, Note_on_c, 1, 56, 75
4, 50279, Note_on_c, 1, 56, 0
4, 50280, Note_on_c, 1, 68, 75
4, 50303, Note_on_c, 1, 68, 0
4, 50304, Note_on_c, 1, 57, 75
4, 50393, Note_on_c, 1, 57, 0
4, 50496, Note_on_c, 1, 59, 75
4, 50519, Note_on_c, 1, 59, 0
4, 50520, Note_on_c, 1, 71, 75
4, 50543, Note_on_c, 1, 71, 0
4, 50544, Note_on_c, 1, 57, 75
4, 50567, Note_on_c, 1, 57, 0
4, 50568, Note_on_c, 1, 69, 75
4, 50591, Note_on_c, 1, 69, 0
4, 50592, Note_on_c, 1, 55, 75
4, 50615, Note_on_c, 1, 55, 0
4, 50616, Note_on_c, 1, 67, 75
4, 50639, Note_on_c, 1, 67, 0
4, 50640, Note_on_c, 1, 54, 75
4, 50663, Note_on_c, 1, 54, 0
4, 50664, Note_on_c, 1, 66, 75
4, 50687, Note_on_c, 1, 66, 0
4, 50688, Note_on_c, 1, 55, 75
4, 50777, Note_on_c, 1, 55, 0
4, 50880, Note_on_c, 1, 57, 75
4, 50903, Note_on_c, 1, 57, 0
4, 50904, Note_on_c, 1, 69, 75
4, 50927, Note_on_c, 1, 69, 0
4, 50928, Note_on_c, 1, 55, 75
4, 50951, Note_on_c, 1, 55, 0
4, 50952, Note_on_c, 1, 67, 75
4, 50975, Note_on_c, 1, 67, 0
4, 50976, Note_on_c, 1, 54, 75
4, 50999, Note_on_c, 1, 54, 0
4, 51000, Note_on_c, 1, 66, 75
4, 51023, Note_on_c, 1, 66, 0
4, 51024, Note_on_c, 1, 52, 75
4, 51047, Note_on_c, 1, 52, 0
4, 51048, Note_on_c, 1, 64, 75
4, 51071, Note_on_c, 1, 64, 0
4, 51072, Note_on_c, 1, 54, 75
4, 51161, Note_on_c, 1, 54, 0
4, 51264, Note_on_c, 1, 55, 75
4, 51287, Note_on_c, 1, 55, 0
4, 51288, Note_on_c, 1, 62, 75
4, 51311, Note_on_c, 1, 62, 0
4, 51312, Note_on_c, 1, 59, 75
4, 51335, Note_on_c, 1, 59, 0
4, 51336, Note_on_c, 1, 62, 75
4, 51359, Note_on_c, 1, 62, 0
4, 51360, Note_on_c, 1, 57, 75
4, 51383, Note_on_c, 1, 57, 0
4, 51384, Note_on_c, 1, 62, 75
4, 51407, Note_on_c, 1, 62, 0
4, 51408, Note_on_c, 1, 60, 75
4, 51431, Note_on_c, 1, 60, 0
4, 51432, Note_on_c, 1, 62, 75
4, 51455, Note_on_c, 1, 62, 0
4, 51456, Note_on_c, 1, 55, 75
4, 51479, Note_on_c, 1, 55, 0
4, 51480, Note_on_c, 1, 62, 75
4, 51503, Note_on_c, 1, 62, 0
4, 51504, Note_on_c, 1, 59, 75
4, 51527, Note_on_c, 1, 59, 0
4, 51528, Note_on_c, 1, 62, 75
4, 51551, Note_on_c, 1, 62, 0
4, 51552, Note_on_c, 1, 57, 75
4, 51575, Note_on_c, 1, 57, 0
4, 51576, Note_on_c, 1, 62, 75
4, 51599, Note_on_c, 1, 62, 0
4, 51600, Note_on_c, 1, 60, 75
4, 51623, Note_on_c, 1, 60, 0
4, 51624, Note_on_c, 1, 62, 75
4, 51647, Note_on_c, 1, 62, 0
4, 51648, Note_on_c, 1, 55, 75
4, 51671, Note_on_c, 1, 55, 0
4, 51672, Note_on_c, 1, 62, 75
4, 51695, Note_on_c, 1, 62, 0
4, 51696, Note_on_c, 1, 59, 75
4, 51719, Note_on_c, 1, 59, 0
4, 51720, Note_on_c, 1, 62, 75
4, 51743, Note_on_c, 1, 62, 0
4, 51744, Note_on_c, 1, 57, 75
4, 51767, Note_on_c, 1, 57, 0
4, 51768, Note_on_c, 1, 62, 75
4, 51791, Note_on_c, 1, 62, 0
4, 51792, Note_on_c, 1, 60, 75
4, 51815, Note_on_c, 1, 60, 0
4, 51816, Note_on_c, 1, 62, 75
4, 51839, Note_on_c, 1, 62, 0
4, 51840, Note_on_c, 1, 55, 75
4, 51863, Note_on_c, 1, 55, 0
4, 51864, Note_on_c, 1, 62, 75
4, 51887, Note_on_c, 1, 62, 0
4, 51888, Note_on_c, 1, 59, 75
4, 51911, Note_on_c, 1, 59, 0
4, 51912, Note_on_c, 1, 62, 75
4, 51935, Note_on_c, 1, 62, 0
4, 51936, Note_on_c, 1, 57, 75
4, 51959, Note_on_c, 1, 57, 0
4, 51960, Note_on_c, 1, 62, 75
4, 51983, Note_on_c, 1, 62, 0
4, 51984, Note_on_c, 1, 60, 75
4, 52007, Note_on_c, 1, 60, 0
4, 52008, Note_on_c, 1, 62, 75
4, 52031, Note_on_c, 1, 62, 0
4, 52032, Note_on_c, 1, 55, 75
4, 52055, Note_on_c, 1, 55, 0
4, 52056, Note_on_c, 1, 62, 75
4, 52079, Note_on_c, 1, 62, 0
4, 52080, Note_on_c, 1, 59, 75
4, 52103, Note_on_c, 1, 59, 0
4, 52104, Note_on_c, 1, 62, 75
4, 52127, Note_on_c, 1, 62, 0
4, 52128, Note_on_c, 1, 59, 75
4, 52151, Note_on_c, 1, 59, 0
4, 52152, Note_on_c, 1, 67, 75
4, 52175, Note_on_c, 1, 67, 0
4, 52176, Note_on_c, 1, 62, 75
4, 52199, Note_on_c, 1, 62, 0
4, 52200, Note_on_c, 1, 67, 75
4, 52223, Note_on_c, 1, 67, 0
4, 52224, Note_on_c, 1, 60, 75
4, 52247, Note_on_c, 1, 60, 0
4, 52248, Note_on_c, 1, 67, 75
4, 52271, Note_on_c, 1, 67, 0
4, 52272, Note_on_c, 1, 64, 75
4, 52295, Note_on_c, 1, 64, 0
4, 52296, Note_on_c, 1, 67, 75
4, 52319, Note_on_c, 1, 67, 0
4, 52320, Note_on_c, 1, 60, 75
4, 52365, Note_on_c, 1, 60, 0
4, 52560, Note_on_c, 1, 50, 75
4, 52605, Note_on_c, 1, 50, 0
4, 52608, Note_on_c, 1, 52, 75
4, 52631, Note_on_c, 1, 52, 0
4, 52632, Note_on_c, 1, 61, 75
4, 52655, Note_on_c, 1, 61, 0
4, 52656, Note_on_c, 1, 55, 75
4, 52679, Note_on_c, 1, 55, 0
4, 52680, Note_on_c, 1, 61, 75
4, 52703, Note_on_c, 1, 61, 0
4, 52704, Note_on_c, 1, 52, 75
4, 52727, Note_on_c, 1, 52, 0
4, 52728, Note_on_c, 1, 61, 75
4, 52751, Note_on_c, 1, 61, 0
4, 52752, Note_on_c, 1, 55, 75
4, 52775, Note_on_c, 1, 55, 0
4, 52776, Note_on_c, 1, 61, 75
4, 52799, Note_on_c, 1, 61, 0
4, 52800, Note_on_c, 1, 50, 75
4, 52823, Note_on_c, 1, 50, 0
4, 52824, Note_on_c, 1, 62, 75
4, 52847, Note_on_c, 1, 62, 0
4, 52848, Note_on_c, 1, 54, 75
4, 52871, Note_on_c, 1, 54, 0
4, 52872, Note_on_c, 1, 62, 75
4, 52895, Note_on_c, 1, 62, 0
4, 52896, Note_on_c, 1, 50, 75
4, 52919, Note_on_c, 1, 50, 0
4, 52920, Note_on_c, 1, 62, 75
4, 52943, Note_on_c, 1, 62, 0
4, 52944, Note_on_c, 1, 54, 75
4, 52967, Note_on_c, 1, 54, 0
4, 52968, Note_on_c, 1, 62, 75
4, 52991, Note_on_c, 1, 62, 0
4, 52992, Note_on_c, 1, 55, 75
4, 53015, Note_on_c, 1, 55, 0
4, 53016, Note_on_c, 1, 62, 75
4, 53039, Note_on_c, 1, 62, 0
4, 53040, Note_on_c, 1, 59, 75
4, 53063, Note_on_c, 1, 59, 0
4, 53064, Note_on_c, 1, 62, 75
4, 53087, Note_on_c, 1, 62, 0
4, 53088, Note_on_c, 1, 55, 75
4, 53111, Note_on_c, 1, 55, 0
4, 53112, Note_on_c, 1, 62, 75
4, 53135, Note_on_c, 1, 62, 0
4, 53136, Note_on_c, 1, 59, 75
4, 53159, Note_on_c, 1, 59, 0
4, 53160, Note_on_c, 1, 62, 75
4, 53183, Note_on_c, 1, 62, 0
4, 53184, Note_on_c, 1, 60, 75
4, 53273, Note_on_c, 1, 60, 0
4, 53424, Note_on_c, 1, 47, 75
4, 53469, Note_on_c, 1, 47, 0
4, 53472, Note_on_c, 1, 48, 75
4, 53517, Note_on_c, 1, 48, 0
4, 53520, Note_on_c, 1, 50, 75
4, 53565, Note_on_c, 1, 50, 0
4, 53568, Note_on_c, 1, 52, 75
4, 53591, Note_on_c, 1, 52, 0
4, 53592, Note_on_c, 1, 61, 75
4, 53615, Note_on_c, 1, 61, 0
4, 53616, Note_on_c, 1, 55, 75
4, 53639, Note_on_c, 1, 55, 0
4, 53640, Note_on_c, 1, 61, 75
4, 53663, Note_on_c, 1, 61, 0
4, 53664, Note_on_c, 1, 52, 75
4, 53687, Note_on_c, 1, 52, 0
4, 53688, Note_on_c, 1, 61, 75
4, 53711, Note_on_c, 1, 61, 0
4, 53712, Note_on_c, 1, 55, 75
4, 53735, Note_on_c, 1, 55, 0
4, 53736, Note_on_c, 1, 61, 75
4, 53759, Note_on_c, 1, 61, 0
4, 53760, Note_on_c, 1, 50, 75
4, 53783, Note_on_c, 1, 50, 0
4, 53784, Note_on_c, 1, 62, 75
4, 53807, Note_on_c, 1, 62, 0
4, 53808, Note_on_c, 1, 54, 75
4, 53831, Note_on_c, 1, 54, 0
4, 53832, Note_on_c, 1, 62, 75
4, 53855, Note_on_c, 1, 62, 0
4, 53856, Note_on_c, 1, 50, 75
4, 53879, Note_on_c, 1, 50, 0
4, 53880, Note_on_c, 1, 62, 75
4, 53903, Note_on_c, 1, 62, 0
4, 53904, Note_on_c, 1, 54, 75
4, 53927, Note_on_c, 1, 54, 0
4, 53928, Note_on_c, 1, 62, 75
4, 53951, Note_on_c, 1, 62, 0
4, 53952, Note_on_c, 1, 55, 75
4, 53975, Note_on_c, 1, 55, 0
4, 53976, Note_on_c, 1, 62, 75
4, 53999, Note_on_c, 1, 62, 0
4, 54000, Note_on_c, 1, 59, 75
4, 54023, Note_on_c, 1, 59, 0
4, 54024, Note_on_c, 1, 62, 75
4, 54047, Note_on_c, 1, 62, 0
4, 54048, Note_on_c, 1, 55, 75
4, 54071, Note_on_c, 1, 55, 0
4, 54072, Note_on_c, 1, 62, 75
4, 54095, Note_on_c, 1, 62, 0
4, 54096, Note_on_c, 1, 59, 75
4, 54119, Note_on_c, 1, 59, 0
4, 54120, Note_on_c, 1, 62, 75
4, 54143, Note_on_c, 1, 62, 0
4, 54144, Note_on_c, 1, 60, 75
4, 54233, Note_on_c, 1, 60, 0
4, 54384, Note_on_c, 1, 47, 75
4, 54429, Note_on_c, 1, 47, 0
4, 54432, Note_on_c, 1, 48, 75
4, 54477, Note_on_c, 1, 48, 0
4, 54480, Note_on_c, 1, 50, 75
4, 54525, Note_on_c, 1, 50, 0
4, 54528, Note_on_c, 1, 55, 75
4, 54573, Note_on_c, 1, 55, 0
4, 54576, Note_on_c, 1, 47, 75
4, 54621, Note_on_c, 1, 47, 0
4, 54624, Note_on_c, 1, 48, 75
4, 54669, Note_on_c, 1, 48, 0
4, 54768, Note_on_c, 1, 47, 75
4, 54813, Note_on_c, 1, 47, 0
4, 54816, Note_on_c, 1, 48, 75
4, 54861, Note_on_c, 1, 48, 0
4, 54864, Note_on_c, 1, 50, 75
4, 54909, Note_on_c, 1, 50, 0
4, 54912, Note_on_c, 1, 43, 75
4, 54935, Note_on_c, 1, 43, 0
4, 54936, Note_on_c, 1, 55, 75
4, 54959, Note_on_c, 1, 55, 0
4, 54960, Note_on_c, 1, 43, 75
4, 54983, Note_on_c, 1, 43, 0
4, 54984, Note_on_c, 1, 55, 75
4, 55007, Note_on_c, 1, 55, 0
4, 55008, Note_on_c, 1, 43, 75
4, 55031, Note_on_c, 1, 43, 0
4, 55032, Note_on_c, 1, 55, 75
4, 55055, Note_on_c, 1, 55, 0
4, 55056, Note_on_c, 1, 43, 75
4, 55079, Note_on_c, 1, 43, 0
4, 55080, Note_on_c, 1, 55, 75
4, 55103, Note_on_c, 1, 55, 0
4, 55104, Note_on_c, 1, 43, 75
4, 55127, Note_on_c, 1, 43, 0
4, 55128, Note_on_c, 1, 55, 75
4, 55151, Note_on_c, 1, 55, 0
4, 55152, Note_on_c, 1, 43, 75
4, 55175, Note_on_c, 1, 43, 0
4, 55176, Note_on_c, 1, 55, 75
4, 55199, Note_on_c, 1, 55, 0
4, 55200, Note_on_c, 1, 43, 75
4, 55223, Note_on_c, 1, 43, 0
4, 55224, Note_on_c, 1, 55, 75
4, 55247, Note_on_c, 1, 55, 0
4, 55248, Note_on_c, 1, 43, 75
4, 55271, Note_on_c, 1, 43, 0
4, 55272, Note_on_c, 1, 55, 75
4, 55295, Note_on_c, 1, 55, 0
4, 55296, Note_on_c, 1, 43, 75
4, 55429, Note_on_c, 1, 43, 0
4, 55488, Note_on_c, 1, 43, 0
4, 55577, Note_on_c, 1, 43, 0
4, 55584, End_track
5, 0, Start_track
5, 0, Program_c, 1, 0
5, 0, Control_c, 1, 7, 127
5, 0, Control_c, 1, 10, 64
5, 1536, Note_on_c, 1, 67, 64
5, 1625, Note_on_c, 1, 67, 0
5, 1680, Note_on_c, 1, 55, 80
5, 1680, Note_on_c, 1, 43, 80
5, 1725, Note_on_c, 1, 55, 0
5, 1725, Note_on_c, 1, 43, 0
5, 12480, Note_on_c, 1, 67, 64
5, 12569, Note_on_c, 1, 67, 0
5, 12624, Note_on_c, 1, 55, 80
5, 12624, Note_on_c, 1, 43, 80
5, 12669, Note_on_c, 1, 55, 0
5, 12669, Note_on_c, 1, 43, 0
5, 29328, Note_on_c, 1, 55, 80
5, 29328, Note_on_c, 1, 43, 80
5, 29373, Note_on_c, 1, 55, 0
5, 29373, Note_on_c, 1, 43, 0
5, 46032, Note_on_c, 1, 55, 80
5, 46032, Note_on_c, 1, 43, 80
5, 46077, Note_on_c, 1, 55, 0
5, 46077, Note_on_c, 1, 43, 0
5, 55488, End_track
6, 0, Start_track
6, 0, Title_t, "Sonata I   Haydn  "
6, 0, End_track
0, 0, End_of_file
