0, 0, Header, 1, 6, 96
1, 0, Start_track
1, 0, Copyright_t, "Copyright  2000 <copyright holder>"
1, 0, Text_t, "Sonata I\015\012"
1, 0, Text_t, "Haydn\015\012"
1, 0, Sequencer_specific, 16, 68, 87, 77, 90, 86, 82, 83, 78, 32, 55, 46, 48, 46, 56, 46, 48
1, 0, Time_signature, 2, 2, 24, 8
1, 0, Tempo, 769230
1, 0, Key_signature, 4, "major"
1, 32256, End_track
2, 0, Start_track
2, 0, Program_c, 0, 0
2, 0, Control_c, 0, 7, 127
2, 0, Control_c, 0, 10, 64
2, 0, Note_on_c, 0, 64, 80
2, 6, Note_on_c, 0, 68, 80
2, 12, Note_on_c, 0, 71, 80
2, 18, Note_on_c, 0, 76, 80
2, 93, Note_on_c, 0, 76, 0
2, 93, Note_on_c, 0, 71, 0
2, 93, Note_on_c, 0, 68, 0
2, 93, Note_on_c, 0, 64, 0
2, 192, Note_on_c, 0, 71, 75
2, 215, Note_on_c, 0, 71, 0
2, 216, Note_on_c, 0, 73, 75
2, 224, Note_on_c, 0, 73, 0
2, 224, Note_on_c, 0, 71, 75
2, 232, Note_on_c, 0, 71, 0
2, 232, Note_on_c, 0, 69, 75
2, 240, Note_on_c, 0, 69, 0
2, 240, Note_on_c, 0, 71, 75
2, 263, Note_on_c, 0, 71, 0
2, 264, Note_on_c, 0, 73, 75
2, 274, Note_on_c, 0, 73, 0
2, 288, Note_on_c, 0, 71, 75
2, 333, Note_on_c, 0, 71, 0
2, 336, Note_on_c, 0, 71, 75
2, 344, Note_on_c, 0, 71, 0
2, 344, Note_on_c, 0, 69, 75
2, 352, Note_on_c, 0, 69, 0
2, 352, Note_on_c, 0, 71, 75
2, 360, Note_on_c, 0, 71, 0
2, 360, Note_on_c, 0, 69, 75
2, 368, Note_on_c, 0, 69, 0
2, 368, Note_on_c, 0, 68, 75
2, 376, Note_on_c, 0, 68, 0
2, 376, Note_on_c, 0, 69, 75
2, 384, Note_on_c, 0, 69, 0
2, 384, Note_on_c, 0, 68, 75
2, 429, Note_on_c, 0, 68, 0
2, 432, Note_on_c, 0, 64, 75
2, 432, Note_on_c, 0, 59, 75
2, 477, Note_on_c, 0, 64, 0
2, 477, Note_on_c, 0, 59, 0
2, 480, Note_on_c, 0, 66, 75
2, 480, Note_on_c, 0, 61, 75
2, 525, Note_on_c, 0, 66, 0
2, 525, Note_on_c, 0, 61, 0
2, 528, Note_on_c, 0, 63, 75
2, 573, Note_on_c, 0, 63, 0
2, 576, Note_on_c, 0, 64, 75
2, 591, Note_on_c, 0, 64, 0
2, 592, Note_on_c, 0, 66, 75
2, 607, Note_on_c, 0, 66, 0
2, 608, Note_on_c, 0, 68, 75
2, 623, Note_on_c, 0, 68, 0
2, 624, Note_on_c, 0, 59, 75
2, 669, Note_on_c, 0, 59, 0
2, 684, Note_on_c, 0, 64, 91
2, 696, Note_on_c, 0, 64, 0
2, 696, Note_on_c, 0, 66, 75
2, 708, Note_on_c, 0, 66, 0
2, 708, Note_on_c, 0, 68, 76
2, 720, Note_on_c, 0, 68, 0
2, 720, Note_on_c, 0, 69, 77
2, 732, Note_on_c, 0, 69, 0
2, 732, Note_on_c, 0, 71, 77
2, 744, Note_on_c, 0, 71, 0
2, 744, Note_on_c, 0, 73, 78
2, 756, Note_on_c, 0, 73, 0
2, 756, Note_on_c, 0, 75, 79
2, 768, Note_on_c, 0, 75, 0
2, 768, Note_on_c, 0, 76, 96
2, 840, Note_on_c, 0, 76, 0
2, 840, Note_on_c, 0, 68, 75
2, 863, Note_on_c, 0, 68, 0
2, 864, Note_on_c, 0, 69, 75
2, 884, Note_on_c, 0, 69, 0
2, 912, Note_on_c, 0, 71, 75
2, 932, Note_on_c, 0, 71, 0
2, 960, Note_on_c, 0, 73, 75
2, 983, Note_on_c, 0, 73, 0
2, 984, Note_on_c, 0, 75, 75
2, 992, Note_on_c, 0, 75, 0
2, 992, Note_on_c, 0, 73, 75
2, 1000, Note_on_c, 0, 73, 0
2, 1000, Note_on_c, 0, 71, 75
2, 1008, Note_on_c, 0, 71, 0
2, 1008, Note_on_c, 0, 73, 75
2, 1031, Note_on_c, 0, 73, 0
2, 1032, Note_on_c, 0, 76, 75
2, 1042, Note_on_c, 0, 76, 0
2, 1056, Note_on_c, 0, 71, 75
2, 1101, Note_on_c, 0, 71, 0
2, 1104, Note_on_c, 0, 68, 75
2, 1149, Note_on_c, 0, 68, 0
2, 1176, Note_on_c, 0, 69, 70
2, 1221, Note_on_c, 0, 69, 0
2, 1224, Note_on_c, 0, 66, 70
2, 1269, Note_on_c, 0, 66, 0
2, 1272, Note_on_c, 0, 68, 70
2, 1317, Note_on_c, 0, 68, 0
2, 1320, Note_on_c, 0, 64, 70
2, 1343, Note_on_c, 0, 64, 0
2, 1368, Note_on_c, 0, 78, 70
2, 1413, Note_on_c, 0, 78, 0
2, 1416, Note_on_c, 0, 69, 70
2, 1461, Note_on_c, 0, 69, 0
2, 1464, Note_on_c, 0, 68, 70
2, 1509, Note_on_c, 0, 68, 0
2, 1512, Note_on_c, 0, 71, 70
2, 1535, Note_on_c, 0, 71, 0
2, 1560, Note_on_c, 0, 69, 70
2, 1605, Note_on_c, 0, 69, 0
2, 1608, Note_on_c, 0, 66, 70
2, 1653, Note_on_c, 0, 66, 0
2, 1656, Note_on_c, 0, 68, 70
2, 1701, Note_on_c, 0, 68, 0
2, 1704, Note_on_c, 0, 64, 70
2, 1727, Note_on_c, 0, 64, 0
2, 1752, Note_on_c, 0, 78, 70
2, 1797, Note_on_c, 0, 78, 0
2, 1800, Note_on_c, 0, 69, 70
2, 1845, Note_on_c, 0, 69, 0
2, 1848, Note_on_c, 0, 68, 70
2, 1893, Note_on_c, 0, 68, 0
2, 1896, Note_on_c, 0, 71, 70
2, 1919, Note_on_c, 0, 71, 0
2, 1944, Note_on_c, 0, 73, 75
2, 1967, Note_on_c, 0, 73, 0
2, 1968, Note_on_c, 0, 65, 75
2, 1991, Note_on_c, 0, 65, 0
2, 1992, Note_on_c, 0, 66, 75
2, 2015, Note_on_c, 0, 66, 0
2, 2016, Note_on_c, 0, 73, 75
2, 2031, Note_on_c, 0, 73, 0
2, 2032, Note_on_c, 0, 71, 75
2, 2047, Note_on_c, 0, 71, 0
2, 2048, Note_on_c, 0, 69, 76
2, 2063, Note_on_c, 0, 69, 0
2, 2064, Note_on_c, 0, 68, 77
2, 2079, Note_on_c, 0, 68, 0
2, 2080, Note_on_c, 0, 66, 78
2, 2095, Note_on_c, 0, 66, 0
2, 2096, Note_on_c, 0, 64, 78
2, 2111, Note_on_c, 0, 64, 0
2, 2112, Note_on_c, 0, 63, 79
2, 2127, Note_on_c, 0, 63, 0
2, 2128, Note_on_c, 0, 64, 79
2, 2143, Note_on_c, 0, 64, 0
2, 2144, Note_on_c, 0, 66, 79
2, 2159, Note_on_c, 0, 66, 0
2, 2160, Note_on_c, 0, 59, 78
2, 2205, Note_on_c, 0, 59, 0
2, 2304, Note_on_c, 0, 66, 75
2, 2328, Note_on_c, 0, 66, 0
2, 2328, Note_on_c, 0, 71, 75
2, 2351, Note_on_c, 0, 71, 0
2, 2352, Note_on_c, 0, 71, 75
2, 2362, Note_on_c, 0, 71, 0
2, 2376, Note_on_c, 0, 71, 75
2, 2386, Note_on_c, 0, 71, 0
2, 2400, Note_on_c, 0, 71, 75
2, 2410, Note_on_c, 0, 71, 0
2, 2424, Note_on_c, 0, 69, 75
2, 2447, Note_on_c, 0, 69, 0
2, 2448, Note_on_c, 0, 68, 75
2, 2471, Note_on_c, 0, 68, 0
2, 2472, Note_on_c, 0, 66, 75
2, 2495, Note_on_c, 0, 66, 0
2, 2496, Note_on_c, 0, 68, 75
2, 2520, Note_on_c, 0, 68, 0
2, 2520, Note_on_c, 0, 71, 75
2, 2530, Note_on_c, 0, 71, 0
2, 2544, Note_on_c, 0, 63, 75
2, 2568, Note_on_c, 0, 63, 0
2, 2568, Note_on_c, 0, 66, 75
2, 2578, Note_on_c, 0, 66, 0
2, 2592, Note_on_c, 0, 64, 75
2, 2616, Note_on_c, 0, 64, 0
2, 2616, Note_on_c, 0, 68, 75
2, 2626, Note_on_c, 0, 68, 0
2, 2640, Note_on_c, 0, 66, 75
2, 2664, Note_on_c, 0, 66, 0
2, 2664, Note_on_c, 0, 69, 75
2, 2674, Note_on_c, 0, 69, 0
2, 2688, Note_on_c, 0, 68, 75
2, 2712, Note_on_c, 0, 68, 0
2, 2712, Note_on_c, 0, 71, 75
2, 2722, Note_on_c, 0, 71, 0
2, 2736, Note_on_c, 0, 63, 75
2, 2760, Note_on_c, 0, 63, 0
2, 2760, Note_on_c, 0, 66, 75
2, 2770, Note_on_c, 0, 66, 0
2, 2784, Note_on_c, 0, 64, 75
2, 2808, Note_on_c, 0, 64, 0
2, 2808, Note_on_c, 0, 68, 75
2, 2818, Note_on_c, 0, 68, 0
2, 2832, Note_on_c, 0, 66, 75
2, 2856, Note_on_c, 0, 66, 0
2, 2856, Note_on_c, 0, 69, 75
2, 2866, Note_on_c, 0, 69, 0
2, 2880, Note_on_c, 0, 68, 75
2, 2904, Note_on_c, 0, 68, 0
2, 2904, Note_on_c, 0, 73, 76
2, 2927, Note_on_c, 0, 73, 0
2, 2928, Note_on_c, 0, 73, 77
2, 2938, Note_on_c, 0, 73, 0
2, 2952, Note_on_c, 0, 73, 78
2, 2962, Note_on_c, 0, 73, 0
2, 2976, Note_on_c, 0, 73, 80
2, 2986, Note_on_c, 0, 73, 0
2, 3000, Note_on_c, 0, 71, 80
2, 3023, Note_on_c, 0, 71, 0
2, 3024, Note_on_c, 0, 70, 80
2, 3047, Note_on_c, 0, 70, 0
2, 3048, Note_on_c, 0, 68, 80
2, 3071, Note_on_c, 0, 68, 0
2, 3072, Note_on_c, 0, 70, 80
2, 3096, Note_on_c, 0, 70, 0
2, 3096, Note_on_c, 0, 73, 80
2, 3106, Note_on_c, 0, 73, 0
2, 3120, Note_on_c, 0, 65, 80
2, 3144, Note_on_c, 0, 65, 0
2, 3144, Note_on_c, 0, 68, 80
2, 3154, Note_on_c, 0, 68, 0
2, 3168, Note_on_c, 0, 66, 80
2, 3192, Note_on_c, 0, 66, 0
2, 3192, Note_on_c, 0, 70, 80
2, 3202, Note_on_c, 0, 70, 0
2, 3216, Note_on_c, 0, 68, 80
2, 3240, Note_on_c, 0, 68, 0
2, 3240, Note_on_c, 0, 71, 80
2, 3250, Note_on_c, 0, 71, 0
2, 3264, Note_on_c, 0, 70, 80
2, 3288, Note_on_c, 0, 70, 0
2, 3288, Note_on_c, 0, 73, 80
2, 3298, Note_on_c, 0, 73, 0
2, 3312, Note_on_c, 0, 65, 80
2, 3336, Note_on_c, 0, 65, 0
2, 3336, Note_on_c, 0, 68, 80
2, 3346, Note_on_c, 0, 68, 0
2, 3360, Note_on_c, 0, 66, 80
2, 3384, Note_on_c, 0, 66, 0
2, 3384, Note_on_c, 0, 70, 80
2, 3394, Note_on_c, 0, 70, 0
2, 3408, Note_on_c, 0, 68, 80
2, 3432, Note_on_c, 0, 68, 0
2, 3432, Note_on_c, 0, 71, 80
2, 3442, Note_on_c, 0, 71, 0
2, 3456, Note_on_c, 0, 70, 80
2, 3480, Note_on_c, 0, 70, 0
2, 3480, Note_on_c, 0, 73, 80
2, 3490, Note_on_c, 0, 73, 0
2, 3504, Note_on_c, 0, 71, 81
2, 3528, Note_on_c, 0, 71, 0
2, 3528, Note_on_c, 0, 75, 82
2, 3538, Note_on_c, 0, 75, 0
2, 3552, Note_on_c, 0, 73, 83
2, 3576, Note_on_c, 0, 73, 0
2, 3576, Note_on_c, 0, 76, 83
2, 3586, Note_on_c, 0, 76, 0
2, 3600, Note_on_c, 0, 75, 84
2, 3624, Note_on_c, 0, 75, 0
2, 3624, Note_on_c, 0, 78, 85
2, 3634, Note_on_c, 0, 78, 0
2, 3648, Note_on_c, 0, 78, 86
2, 3672, Note_on_c, 0, 78, 0
2, 3672, Note_on_c, 0, 76, 85
2, 3682, Note_on_c, 0, 76, 0
2, 3696, Note_on_c, 0, 76, 84
2, 3720, Note_on_c, 0, 76, 0
2, 3720, Note_on_c, 0, 75, 84
2, 3730, Note_on_c, 0, 75, 0
2, 3744, Note_on_c, 0, 75, 83
2, 3768, Note_on_c, 0, 75, 0
2, 3768, Note_on_c, 0, 73, 83
2, 3778, Note_on_c, 0, 73, 0
2, 3792, Note_on_c, 0, 73, 82
2, 3816, Note_on_c, 0, 73, 0
2, 3816, Note_on_c, 0, 71, 81
2, 3826, Note_on_c, 0, 71, 0
2, 3840, Note_on_c, 0, 71, 81
2, 3864, Note_on_c, 0, 71, 0
2, 3864, Note_on_c, 0, 70, 80
2, 3874, Note_on_c, 0, 70, 0
2, 3888, Note_on_c, 0, 70, 80
2, 3912, Note_on_c, 0, 70, 0
2, 3912, Note_on_c, 0, 68, 79
2, 3922, Note_on_c, 0, 68, 0
2, 3936, Note_on_c, 0, 68, 79
2, 3960, Note_on_c, 0, 68, 0
2, 3960, Note_on_c, 0, 66, 78
2, 3970, Note_on_c, 0, 66, 0
2, 3984, Note_on_c, 0, 66, 77
2, 4008, Note_on_c, 0, 66, 0
2, 4008, Note_on_c, 0, 64, 77
2, 4018, Note_on_c, 0, 64, 0
2, 4032, Note_on_c, 0, 63, 76
2, 4047, Note_on_c, 0, 63, 0
2, 4048, Note_on_c, 0, 64, 76
2, 4063, Note_on_c, 0, 64, 0
2, 4064, Note_on_c, 0, 66, 76
2, 4079, Note_on_c, 0, 66, 0
2, 4080, Note_on_c, 0, 59, 75
2, 4095, Note_on_c, 0, 59, 0
2, 4096, Note_on_c, 0, 64, 75
2, 4111, Note_on_c, 0, 64, 0
2, 4112, Note_on_c, 0, 61, 75
2, 4127, Note_on_c, 0, 61, 0
2, 4128, Note_on_c, 0, 63, 74
2, 4138, Note_on_c, 0, 63, 0
2, 4138, Note_on_c, 0, 61, 74
2, 4148, Note_on_c, 0, 61, 0
2, 4148, Note_on_c, 0, 63, 74
2, 4158, Note_on_c, 0, 63, 0
2, 4158, Note_on_c, 0, 61, 74
2, 4168, Note_on_c, 0, 61, 0
2, 4168, Note_on_c, 0, 63, 74
2, 4178, Note_on_c, 0, 63, 0
2, 4178, Note_on_c, 0, 61, 74
2, 4188, Note_on_c, 0, 61, 0
2, 4188, Note_on_c, 0, 63, 74
2, 4197, Note_on_c, 0, 63, 0
2, 4197, Note_on_c, 0, 61, 73
2, 4206, Note_on_c, 0, 61, 0
2, 4206, Note_on_c, 0, 59, 73
2, 4215, Note_on_c, 0, 59, 0
2, 4215, Note_on_c, 0, 61, 73
2, 4224, Note_on_c, 0, 61, 0
2, 4224, Note_on_c, 0, 59, 73
2, 4302, Note_on_c, 0, 59, 0
2, 4308, Note_on_c, 0, 78, 75
2, 4313, Note_on_c, 0, 78, 0
2, 4320, Note_on_c, 0, 71, 91
2, 4368, Note_on_c, 0, 71, 0
2, 4368, Note_on_c, 0, 73, 75
2, 4413, Note_on_c, 0, 73, 0
2, 4416, Note_on_c, 0, 75, 75
2, 4464, Note_on_c, 0, 75, 0
2, 4464, Note_on_c, 0, 73, 75
2, 4498, Note_on_c, 0, 73, 0
2, 4500, Note_on_c, 0, 78, 75
2, 4505, Note_on_c, 0, 78, 0
2, 4512, Note_on_c, 0, 73, 91
2, 4560, Note_on_c, 0, 73, 0
2, 4560, Note_on_c, 0, 75, 75
2, 4605, Note_on_c, 0, 75, 0
2, 4608, Note_on_c, 0, 76, 75
2, 4656, Note_on_c, 0, 76, 0
2, 4656, Note_on_c, 0, 75, 75
2, 4690, Note_on_c, 0, 75, 0
2, 4692, Note_on_c, 0, 78, 75
2, 4697, Note_on_c, 0, 78, 0
2, 4704, Note_on_c, 0, 75, 91
2, 4752, Note_on_c, 0, 75, 0
2, 4752, Note_on_c, 0, 76, 75
2, 4797, Note_on_c, 0, 76, 0
2, 4800, Note_on_c, 0, 78, 75
2, 4800, Note_on_c, 0, 75, 75
2, 4845, Note_on_c, 0, 78, 0
2, 4845, Note_on_c, 0, 75, 0
2, 4848, Note_on_c, 0, 83, 91
2, 4848, Note_on_c, 0, 78, 91
2, 4848, Note_on_c, 0, 75, 91
2, 4896, Note_on_c, 0, 83, 0
2, 4896, Note_on_c, 0, 78, 0
2, 4896, Note_on_c, 0, 75, 0
2, 4944, Note_on_c, 0, 78, 75
2, 4944, Note_on_c, 0, 75, 75
2, 4944, Note_on_c, 0, 71, 75
2, 4989, Note_on_c, 0, 78, 0
2, 4989, Note_on_c, 0, 75, 0
2, 4989, Note_on_c, 0, 71, 0
2, 5016, Note_on_c, 0, 80, 70
2, 5061, Note_on_c, 0, 80, 0
2, 5064, Note_on_c, 0, 76, 70
2, 5109, Note_on_c, 0, 76, 0
2, 5112, Note_on_c, 0, 75, 70
2, 5157, Note_on_c, 0, 75, 0
2, 5160, Note_on_c, 0, 73, 70
2, 5183, Note_on_c, 0, 73, 0
2, 5184, Note_on_c, 0, 75, 75
2, 5199, Note_on_c, 0, 75, 0
2, 5200, Note_on_c, 0, 73, 75
2, 5215, Note_on_c, 0, 73, 0
2, 5216, Note_on_c, 0, 71, 75
2, 5231, Note_on_c, 0, 71, 0
2, 5232, Note_on_c, 0, 83, 91
2, 5232, Note_on_c, 0, 78, 91
2, 5232, Note_on_c, 0, 75, 91
2, 5280, Note_on_c, 0, 83, 0
2, 5280, Note_on_c, 0, 78, 0
2, 5280, Note_on_c, 0, 75, 0
2, 5328, Note_on_c, 0, 78, 75
2, 5328, Note_on_c, 0, 75, 75
2, 5328, Note_on_c, 0, 71, 75
2, 5373, Note_on_c, 0, 78, 0
2, 5373, Note_on_c, 0, 75, 0
2, 5373, Note_on_c, 0, 71, 0
2, 5376, Note_on_c, 0, 80, 75
2, 5391, Note_on_c, 0, 80, 0
2, 5392, Note_on_c, 0, 78, 75
2, 5407, Note_on_c, 0, 78, 0
2, 5408, Note_on_c, 0, 76, 75
2, 5423, Note_on_c, 0, 76, 0
2, 5424, Note_on_c, 0, 75, 75
2, 5439, Note_on_c, 0, 75, 0
2, 5440, Note_on_c, 0, 73, 75
2, 5455, Note_on_c, 0, 73, 0
2, 5456, Note_on_c, 0, 71, 75
2, 5471, Note_on_c, 0, 71, 0
2, 5472, Note_on_c, 0, 75, 75
2, 5482, Note_on_c, 0, 75, 0
2, 5482, Note_on_c, 0, 73, 75
2, 5492, Note_on_c, 0, 73, 0
2, 5492, Note_on_c, 0, 75, 75
2, 5502, Note_on_c, 0, 75, 0
2, 5502, Note_on_c, 0, 73, 75
2, 5512, Note_on_c, 0, 73, 0
2, 5512, Note_on_c, 0, 75, 75
2, 5522, Note_on_c, 0, 75, 0
2, 5522, Note_on_c, 0, 73, 75
2, 5532, Note_on_c, 0, 73, 0
2, 5532, Note_on_c, 0, 75, 75
2, 5541, Note_on_c, 0, 75, 0
2, 5541, Note_on_c, 0, 73, 75
2, 5550, Note_on_c, 0, 73, 0
2, 5550, Note_on_c, 0, 71, 75
2, 5559, Note_on_c, 0, 71, 0
2, 5559, Note_on_c, 0, 73, 75
2, 5568, Note_on_c, 0, 73, 0
2, 5568, Note_on_c, 0, 71, 75
2, 5657, Note_on_c, 0, 71, 0
2, 5760, Note_on_c, 0, 64, 80
2, 5766, Note_on_c, 0, 68, 80
2, 5772, Note_on_c, 0, 71, 80
2, 5778, Note_on_c, 0, 76, 80
2, 5853, Note_on_c, 0, 76, 0
2, 5853, Note_on_c, 0, 71, 0
2, 5853, Note_on_c, 0, 68, 0
2, 5853, Note_on_c, 0, 64, 0
2, 5952, Note_on_c, 0, 71, 75
2, 5975, Note_on_c, 0, 71, 0
2, 5976, Note_on_c, 0, 73, 75
2, 5984, Note_on_c, 0, 73, 0
2, 5984, Note_on_c, 0, 71, 75
2, 5992, Note_on_c, 0, 71, 0
2, 5992, Note_on_c, 0, 69, 75
2, 6000, Note_on_c, 0, 69, 0
2, 6000, Note_on_c, 0, 71, 75
2, 6023, Note_on_c, 0, 71, 0
2, 6024, Note_on_c, 0, 73, 75
2, 6034, Note_on_c, 0, 73, 0
2, 6048, Note_on_c, 0, 71, 75
2, 6093, Note_on_c, 0, 71, 0
2, 6096, Note_on_c, 0, 71, 75
2, 6104, Note_on_c, 0, 71, 0
2, 6104, Note_on_c, 0, 69, 75
2, 6112, Note_on_c, 0, 69, 0
2, 6112, Note_on_c, 0, 71, 75
2, 6120, Note_on_c, 0, 71, 0
2, 6120, Note_on_c, 0, 69, 75
2, 6128, Note_on_c, 0, 69, 0
2, 6128, Note_on_c, 0, 68, 75
2, 6136, Note_on_c, 0, 68, 0
2, 6136, Note_on_c, 0, 69, 75
2, 6144, Note_on_c, 0, 69, 0
2, 6144, Note_on_c, 0, 68, 75
2, 6189, Note_on_c, 0, 68, 0
2, 6192, Note_on_c, 0, 64, 75
2, 6192, Note_on_c, 0, 59, 75
2, 6237, Note_on_c, 0, 64, 0
2, 6237, Note_on_c, 0, 59, 0
2, 6240, Note_on_c, 0, 66, 75
2, 6240, Note_on_c, 0, 61, 75
2, 6285, Note_on_c, 0, 66, 0
2, 6285, Note_on_c, 0, 61, 0
2, 6288, Note_on_c, 0, 63, 75
2, 6333, Note_on_c, 0, 63, 0
2, 6336, Note_on_c, 0, 64, 75
2, 6351, Note_on_c, 0, 64, 0
2, 6352, Note_on_c, 0, 66, 75
2, 6367, Note_on_c, 0, 66, 0
2, 6368, Note_on_c, 0, 68, 75
2, 6383, Note_on_c, 0, 68, 0
2, 6384, Note_on_c, 0, 59, 75
2, 6429, Note_on_c, 0, 59, 0
2, 6444, Note_on_c, 0, 64, 91
2, 6456, Note_on_c, 0, 64, 0
2, 6456, Note_on_c, 0, 66, 75
2, 6468, Note_on_c, 0, 66, 0
2, 6468, Note_on_c, 0, 68, 76
2, 6480, Note_on_c, 0, 68, 0
2, 6480, Note_on_c, 0, 69, 77
2, 6492, Note_on_c, 0, 69, 0
2, 6492, Note_on_c, 0, 71, 77
2, 6504, Note_on_c, 0, 71, 0
2, 6504, Note_on_c, 0, 73, 78
2, 6516, Note_on_c, 0, 73, 0
2, 6516, Note_on_c, 0, 75, 79
2, 6528, Note_on_c, 0, 75, 0
2, 6528, Note_on_c, 0, 76, 96
2, 6600, Note_on_c, 0, 76, 0
2, 6600, Note_on_c, 0, 68, 75
2, 6623, Note_on_c, 0, 68, 0
2, 6624, Note_on_c, 0, 69, 75
2, 6644, Note_on_c, 0, 69, 0
2, 6672, Note_on_c, 0, 71, 75
2, 6692, Note_on_c, 0, 71, 0
2, 6720, Note_on_c, 0, 73, 75
2, 6743, Note_on_c, 0, 73, 0
2, 6744, Note_on_c, 0, 75, 75
2, 6752, Note_on_c, 0, 75, 0
2, 6752, Note_on_c, 0, 73, 75
2, 6760, Note_on_c, 0, 73, 0
2, 6760, Note_on_c, 0, 71, 75
2, 6768, Note_on_c, 0, 71, 0
2, 6768, Note_on_c, 0, 73, 75
2, 6791, Note_on_c, 0, 73, 0
2, 6792, Note_on_c, 0, 76, 75
2, 6802, Note_on_c, 0, 76, 0
2, 6816, Note_on_c, 0, 71, 75
2, 6861, Note_on_c, 0, 71, 0
2, 6864, Note_on_c, 0, 68, 75
2, 6909, Note_on_c, 0, 68, 0
2, 6936, Note_on_c, 0, 69, 70
2, 6981, Note_on_c, 0, 69, 0
2, 6984, Note_on_c, 0, 66, 70
2, 7029, Note_on_c, 0, 66, 0
2, 7032, Note_on_c, 0, 68, 70
2, 7077, Note_on_c, 0, 68, 0
2, 7080, Note_on_c, 0, 64, 70
2, 7103, Note_on_c, 0, 64, 0
2, 7128, Note_on_c, 0, 78, 70
2, 7173, Note_on_c, 0, 78, 0
2, 7176, Note_on_c, 0, 69, 70
2, 7221, Note_on_c, 0, 69, 0
2, 7224, Note_on_c, 0, 68, 70
2, 7269, Note_on_c, 0, 68, 0
2, 7272, Note_on_c, 0, 71, 70
2, 7295, Note_on_c, 0, 71, 0
2, 7320, Note_on_c, 0, 69, 70
2, 7365, Note_on_c, 0, 69, 0
2, 7368, Note_on_c, 0, 66, 70
2, 7413, Note_on_c, 0, 66, 0
2, 7416, Note_on_c, 0, 68, 70
2, 7461, Note_on_c, 0, 68, 0
2, 7464, Note_on_c, 0, 64, 70
2, 7487, Note_on_c, 0, 64, 0
2, 7512, Note_on_c, 0, 78, 70
2, 7557, Note_on_c, 0, 78, 0
2, 7560, Note_on_c, 0, 69, 70
2, 7605, Note_on_c, 0, 69, 0
2, 7608, Note_on_c, 0, 68, 70
2, 7653, Note_on_c, 0, 68, 0
2, 7656, Note_on_c, 0, 71, 70
2, 7679, Note_on_c, 0, 71, 0
2, 7704, Note_on_c, 0, 73, 75
2, 7727, Note_on_c, 0, 73, 0
2, 7728, Note_on_c, 0, 65, 75
2, 7751, Note_on_c, 0, 65, 0
2, 7752, Note_on_c, 0, 66, 75
2, 7775, Note_on_c, 0, 66, 0
2, 7776, Note_on_c, 0, 73, 75
2, 7791, Note_on_c, 0, 73, 0
2, 7792, Note_on_c, 0, 71, 75
2, 7807, Note_on_c, 0, 71, 0
2, 7808, Note_on_c, 0, 69, 76
2, 7823, Note_on_c, 0, 69, 0
2, 7824, Note_on_c, 0, 68, 77
2, 7839, Note_on_c, 0, 68, 0
2, 7840, Note_on_c, 0, 66, 78
2, 7855, Note_on_c, 0, 66, 0
2, 7856, Note_on_c, 0, 64, 78
2, 7871, Note_on_c, 0, 64, 0
2, 7872, Note_on_c, 0, 63, 79
2, 7887, Note_on_c, 0, 63, 0
2, 7888, Note_on_c, 0, 64, 79
2, 7903, Note_on_c, 0, 64, 0
2, 7904, Note_on_c, 0, 66, 79
2, 7919, Note_on_c, 0, 66, 0
2, 7920, Note_on_c, 0, 59, 78
2, 7965, Note_on_c, 0, 59, 0
2, 8064, Note_on_c, 0, 66, 75
2, 8088, Note_on_c, 0, 66, 0
2, 8088, Note_on_c, 0, 71, 75
2, 8111, Note_on_c, 0, 71, 0
2, 8112, Note_on_c, 0, 71, 75
2, 8122, Note_on_c, 0, 71, 0
2, 8136, Note_on_c, 0, 71, 75
2, 8146, Note_on_c, 0, 71, 0
2, 8160, Note_on_c, 0, 71, 75
2, 8170, Note_on_c, 0, 71, 0
2, 8184, Note_on_c, 0, 69, 75
2, 8207, Note_on_c, 0, 69, 0
2, 8208, Note_on_c, 0, 68, 75
2, 8231, Note_on_c, 0, 68, 0
2, 8232, Note_on_c, 0, 66, 75
2, 8255, Note_on_c, 0, 66, 0
2, 8256, Note_on_c, 0, 68, 75
2, 8280, Note_on_c, 0, 68, 0
2, 8280, Note_on_c, 0, 71, 75
2, 8290, Note_on_c, 0, 71, 0
2, 8304, Note_on_c, 0, 63, 75
2, 8328, Note_on_c, 0, 63, 0
2, 8328, Note_on_c, 0, 66, 75
2, 8338, Note_on_c, 0, 66, 0
2, 8352, Note_on_c, 0, 64, 75
2, 8376, Note_on_c, 0, 64, 0
2, 8376, Note_on_c, 0, 68, 75
2, 8386, Note_on_c, 0, 68, 0
2, 8400, Note_on_c, 0, 66, 75
2, 8424, Note_on_c, 0, 66, 0
2, 8424, Note_on_c, 0, 69, 75
2, 8434, Note_on_c, 0, 69, 0
2, 8448, Note_on_c, 0, 68, 75
2, 8472, Note_on_c, 0, 68, 0
2, 8472, Note_on_c, 0, 71, 75
2, 8482, Note_on_c, 0, 71, 0
2, 8496, Note_on_c, 0, 63, 75
2, 8520, Note_on_c, 0, 63, 0
2, 8520, Note_on_c, 0, 66, 75
2, 8530, Note_on_c, 0, 66, 0
2, 8544, Note_on_c, 0, 64, 75
2, 8568, Note_on_c, 0, 64, 0
2, 8568, Note_on_c, 0, 68, 75
2, 8578, Note_on_c, 0, 68, 0
2, 8592, Note_on_c, 0, 66, 75
2, 8616, Note_on_c, 0, 66, 0
2, 8616, Note_on_c, 0, 69, 75
2, 8626, Note_on_c, 0, 69, 0
2, 8640, Note_on_c, 0, 68, 75
2, 8664, Note_on_c, 0, 68, 0
2, 8664, Note_on_c, 0, 73, 76
2, 8687, Note_on_c, 0, 73, 0
2, 8688, Note_on_c, 0, 73, 77
2, 8698, Note_on_c, 0, 73, 0
2, 8712, Note_on_c, 0, 73, 78
2, 8722, Note_on_c, 0, 73, 0
2, 8736, Note_on_c, 0, 73, 80
2, 8746, Note_on_c, 0, 73, 0
2, 8760, Note_on_c, 0, 71, 80
2, 8783, Note_on_c, 0, 71, 0
2, 8784, Note_on_c, 0, 70, 80
2, 8807, Note_on_c, 0, 70, 0
2, 8808, Note_on_c, 0, 68, 80
2, 8831, Note_on_c, 0, 68, 0
2, 8832, Note_on_c, 0, 70, 80
2, 8856, Note_on_c, 0, 70, 0
2, 8856, Note_on_c, 0, 73, 80
2, 8866, Note_on_c, 0, 73, 0
2, 8880, Note_on_c, 0, 65, 80
2, 8904, Note_on_c, 0, 65, 0
2, 8904, Note_on_c, 0, 68, 80
2, 8914, Note_on_c, 0, 68, 0
2, 8928, Note_on_c, 0, 66, 80
2, 8952, Note_on_c, 0, 66, 0
2, 8952, Note_on_c, 0, 70, 80
2, 8962, Note_on_c, 0, 70, 0
2, 8976, Note_on_c, 0, 68, 80
2, 9000, Note_on_c, 0, 68, 0
2, 9000, Note_on_c, 0, 71, 80
2, 9010, Note_on_c, 0, 71, 0
2, 9024, Note_on_c, 0, 70, 80
2, 9048, Note_on_c, 0, 70, 0
2, 9048, Note_on_c, 0, 73, 80
2, 9058, Note_on_c, 0, 73, 0
2, 9072, Note_on_c, 0, 65, 80
2, 9096, Note_on_c, 0, 65, 0
2, 9096, Note_on_c, 0, 68, 80
2, 9106, Note_on_c, 0, 68, 0
2, 9120, Note_on_c, 0, 66, 80
2, 9144, Note_on_c, 0, 66, 0
2, 9144, Note_on_c, 0, 70, 80
2, 9154, Note_on_c, 0, 70, 0
2, 9168, Note_on_c, 0, 68, 80
2, 9192, Note_on_c, 0, 68, 0
2, 9192, Note_on_c, 0, 71, 80
2, 9202, Note_on_c, 0, 71, 0
2, 9216, Note_on_c, 0, 70, 80
2, 9240, Note_on_c, 0, 70, 0
2, 9240, Note_on_c, 0, 73, 80
2, 9250, Note_on_c, 0, 73, 0
2, 9264, Note_on_c, 0, 71, 81
2, 9288, Note_on_c, 0, 71, 0
2, 9288, Note_on_c, 0, 75, 82
2, 9298, Note_on_c, 0, 75, 0
2, 9312, Note_on_c, 0, 73, 83
2, 9336, Note_on_c, 0, 73, 0
2, 9336, Note_on_c, 0, 76, 83
2, 9346, Note_on_c, 0, 76, 0
2, 9360, Note_on_c, 0, 75, 84
2, 9384, Note_on_c, 0, 75, 0
2, 9384, Note_on_c, 0, 78, 85
2, 9394, Note_on_c, 0, 78, 0
2, 9408, Note_on_c, 0, 78, 86
2, 9432, Note_on_c, 0, 78, 0
2, 9432, Note_on_c, 0, 76, 85
2, 9442, Note_on_c, 0, 76, 0
2, 9456, Note_on_c, 0, 76, 84
2, 9480, Note_on_c, 0, 76, 0
2, 9480, Note_on_c, 0, 75, 84
2, 9490, Note_on_c, 0, 75, 0
2, 9504, Note_on_c, 0, 75, 83
2, 9528, Note_on_c, 0, 75, 0
2, 9528, Note_on_c, 0, 73, 83
2, 9538, Note_on_c, 0, 73, 0
2, 9552, Note_on_c, 0, 73, 82
2, 9576, Note_on_c, 0, 73, 0
2, 9576, Note_on_c, 0, 71, 81
2, 9586, Note_on_c, 0, 71, 0
2, 9600, Note_on_c, 0, 71, 81
2, 9624, Note_on_c, 0, 71, 0
2, 9624, Note_on_c, 0, 70, 80
2, 9634, Note_on_c, 0, 70, 0
2, 9648, Note_on_c, 0, 70, 80
2, 9672, Note_on_c, 0, 70, 0
2, 9672, Note_on_c, 0, 68, 79
2, 9682, Note_on_c, 0, 68, 0
2, 9696, Note_on_c, 0, 68, 79
2, 9720, Note_on_c, 0, 68, 0
2, 9720, Note_on_c, 0, 66, 78
2, 9730, Note_on_c, 0, 66, 0
2, 9744, Note_on_c, 0, 66, 77
2, 9768, Note_on_c, 0, 66, 0
2, 9768, Note_on_c, 0, 64, 77
2, 9778, Note_on_c, 0, 64, 0
2, 9792, Note_on_c, 0, 63, 76
2, 9807, Note_on_c, 0, 63, 0
2, 9808, Note_on_c, 0, 64, 76
2, 9823, Note_on_c, 0, 64, 0
2, 9824, Note_on_c, 0, 66, 76
2, 9839, Note_on_c, 0, 66, 0
2, 9840, Note_on_c, 0, 59, 75
2, 9855, Note_on_c, 0, 59, 0
2, 9856, Note_on_c, 0, 64, 75
2, 9871, Note_on_c, 0, 64, 0
2, 9872, Note_on_c, 0, 61, 75
2, 9887, Note_on_c, 0, 61, 0
2, 9888, Note_on_c, 0, 63, 74
2, 9898, Note_on_c, 0, 63, 0
2, 9898, Note_on_c, 0, 61, 74
2, 9908, Note_on_c, 0, 61, 0
2, 9908, Note_on_c, 0, 63, 74
2, 9918, Note_on_c, 0, 63, 0
2, 9918, Note_on_c, 0, 61, 74
2, 9928, Note_on_c, 0, 61, 0
2, 9928, Note_on_c, 0, 63, 74
2, 9938, Note_on_c, 0, 63, 0
2, 9938, Note_on_c, 0, 61, 74
2, 9948, Note_on_c, 0, 61, 0
2, 9948, Note_on_c, 0, 63, 74
2, 9957, Note_on_c, 0, 63, 0
2, 9957, Note_on_c, 0, 61, 73
2, 9966, Note_on_c, 0, 61, 0
2, 9966, Note_on_c, 0, 59, 73
2, 9975, Note_on_c, 0, 59, 0
2, 9975, Note_on_c, 0, 61, 73
2, 9984, Note_on_c, 0, 61, 0
2, 9984, Note_on_c, 0, 59, 73
2, 10062, Note_on_c, 0, 59, 0
2, 10068, Note_on_c, 0, 78, 75
2, 10073, Note_on_c, 0, 78, 0
2, 10080, Note_on_c, 0, 71, 91
2, 10128, Note_on_c, 0, 71, 0
2, 10128, Note_on_c, 0, 73, 75
2, 10173, Note_on_c, 0, 73, 0
2, 10176, Note_on_c, 0, 75, 75
2, 10224, Note_on_c, 0, 75, 0
2, 10224, Note_on_c, 0, 73, 75
2, 10258, Note_on_c, 0, 73, 0
2, 10260, Note_on_c, 0, 78, 75
2, 10265, Note_on_c, 0, 78, 0
2, 10272, Note_on_c, 0, 73, 91
2, 10320, Note_on_c, 0, 73, 0
2, 10320, Note_on_c, 0, 75, 75
2, 10365, Note_on_c, 0, 75, 0
2, 10368, Note_on_c, 0, 76, 75
2, 10416, Note_on_c, 0, 76, 0
2, 10416, Note_on_c, 0, 75, 75
2, 10450, Note_on_c, 0, 75, 0
2, 10452, Note_on_c, 0, 78, 75
2, 10457, Note_on_c, 0, 78, 0
2, 10464, Note_on_c, 0, 75, 91
2, 10512, Note_on_c, 0, 75, 0
2, 10512, Note_on_c, 0, 76, 75
2, 10557, Note_on_c, 0, 76, 0
2, 10560, Note_on_c, 0, 78, 75
2, 10560, Note_on_c, 0, 75, 75
2, 10605, Note_on_c, 0, 78, 0
2, 10605, Note_on_c, 0, 75, 0
2, 10608, Note_on_c, 0, 83, 91
2, 10608, Note_on_c, 0, 78, 91
2, 10608, Note_on_c, 0, 75, 91
2, 10656, Note_on_c, 0, 83, 0
2, 10656, Note_on_c, 0, 78, 0
2, 10656, Note_on_c, 0, 75, 0
2, 10704, Note_on_c, 0, 78, 75
2, 10704, Note_on_c, 0, 75, 75
2, 10704, Note_on_c, 0, 71, 75
2, 10749, Note_on_c, 0, 78, 0
2, 10749, Note_on_c, 0, 75, 0
2, 10749, Note_on_c, 0, 71, 0
2, 10776, Note_on_c, 0, 80, 70
2, 10821, Note_on_c, 0, 80, 0
2, 10824, Note_on_c, 0, 76, 70
2, 10869, Note_on_c, 0, 76, 0
2, 10872, Note_on_c, 0, 75, 70
2, 10917, Note_on_c, 0, 75, 0
2, 10920, Note_on_c, 0, 73, 70
2, 10943, Note_on_c, 0, 73, 0
2, 10944, Note_on_c, 0, 75, 75
2, 10959, Note_on_c, 0, 75, 0
2, 10960, Note_on_c, 0, 73, 75
2, 10975, Note_on_c, 0, 73, 0
2, 10976, Note_on_c, 0, 71, 75
2, 10991, Note_on_c, 0, 71, 0
2, 10992, Note_on_c, 0, 83, 91
2, 10992, Note_on_c, 0, 78, 91
2, 10992, Note_on_c, 0, 75, 91
2, 11040, Note_on_c, 0, 83, 0
2, 11040, Note_on_c, 0, 78, 0
2, 11040, Note_on_c, 0, 75, 0
2, 11088, Note_on_c, 0, 78, 75
2, 11088, Note_on_c, 0, 75, 75
2, 11088, Note_on_c, 0, 71, 75
2, 11133, Note_on_c, 0, 78, 0
2, 11133, Note_on_c, 0, 75, 0
2, 11133, Note_on_c, 0, 71, 0
2, 11136, Note_on_c, 0, 80, 75
2, 11151, Note_on_c, 0, 80, 0
2, 11152, Note_on_c, 0, 78, 75
2, 11167, Note_on_c, 0, 78, 0
2, 11168, Note_on_c, 0, 76, 75
2, 11183, Note_on_c, 0, 76, 0
2, 11184, Note_on_c, 0, 75, 75
2, 11199, Note_on_c, 0, 75, 0
2, 11200, Note_on_c, 0, 73, 75
2, 11215, Note_on_c, 0, 73, 0
2, 11216, Note_on_c, 0, 71, 75
2, 11231, Note_on_c, 0, 71, 0
2, 11232, Note_on_c, 0, 75, 75
2, 11242, Note_on_c, 0, 75, 0
2, 11242, Note_on_c, 0, 73, 75
2, 11252, Note_on_c, 0, 73, 0
2, 11252, Note_on_c, 0, 75, 75
2, 11262, Note_on_c, 0, 75, 0
2, 11262, Note_on_c, 0, 73, 75
2, 11272, Note_on_c, 0, 73, 0
2, 11272, Note_on_c, 0, 75, 75
2, 11282, Note_on_c, 0, 75, 0
2, 11282, Note_on_c, 0, 73, 75
2, 11292, Note_on_c, 0, 73, 0
2, 11292, Note_on_c, 0, 75, 75
2, 11301, Note_on_c, 0, 75, 0
2, 11301, Note_on_c, 0, 73, 75
2, 11310, Note_on_c, 0, 73, 0
2, 11310, Note_on_c, 0, 71, 75
2, 11319, Note_on_c, 0, 71, 0
2, 11319, Note_on_c, 0, 73, 75
2, 11328, Note_on_c, 0, 73, 0
2, 11328, Note_on_c, 0, 71, 75
2, 11417, Note_on_c, 0, 71, 0
2, 11520, Note_on_c, 0, 71, 75
2, 11544, Note_on_c, 0, 71, 0
2, 11544, Note_on_c, 0, 83, 75
2, 11567, Note_on_c, 0, 83, 0
2, 11568, Note_on_c, 0, 83, 75
2, 11578, Note_on_c, 0, 83, 0
2, 11592, Note_on_c, 0, 83, 75
2, 11602, Note_on_c, 0, 83, 0
2, 11616, Note_on_c, 0, 83, 75
2, 11640, Note_on_c, 0, 83, 0
2, 11640, Note_on_c, 0, 80, 75
2, 11663, Note_on_c, 0, 80, 0
2, 11664, Note_on_c, 0, 81, 75
2, 11688, Note_on_c, 0, 81, 0
2, 11688, Note_on_c, 0, 78, 75
2, 11711, Note_on_c, 0, 78, 0
2, 11712, Note_on_c, 0, 80, 75
2, 11722, Note_on_c, 0, 80, 0
2, 11736, Note_on_c, 0, 80, 75
2, 11746, Note_on_c, 0, 80, 0
2, 11760, Note_on_c, 0, 80, 75
2, 11770, Note_on_c, 0, 80, 0
2, 11784, Note_on_c, 0, 80, 75
2, 11794, Note_on_c, 0, 80, 0
2, 11808, Note_on_c, 0, 80, 75
2, 11818, Note_on_c, 0, 80, 0
2, 11832, Note_on_c, 0, 76, 75
2, 11855, Note_on_c, 0, 76, 0
2, 11856, Note_on_c, 0, 78, 75
2, 11879, Note_on_c, 0, 78, 0
2, 11880, Note_on_c, 0, 75, 75
2, 11903, Note_on_c, 0, 75, 0
2, 11904, Note_on_c, 0, 76, 75
2, 11928, Note_on_c, 0, 76, 0
2, 11928, Note_on_c, 0, 80, 75
2, 11938, Note_on_c, 0, 80, 0
2, 11952, Note_on_c, 0, 78, 75
2, 11976, Note_on_c, 0, 78, 0
2, 11976, Note_on_c, 0, 81, 75
2, 11986, Note_on_c, 0, 81, 0
2, 12000, Note_on_c, 0, 80, 75
2, 12024, Note_on_c, 0, 80, 0
2, 12024, Note_on_c, 0, 83, 75
2, 12034, Note_on_c, 0, 83, 0
2, 12048, Note_on_c, 0, 75, 75
2, 12072, Note_on_c, 0, 75, 0
2, 12072, Note_on_c, 0, 78, 75
2, 12082, Note_on_c, 0, 78, 0
2, 12096, Note_on_c, 0, 76, 75
2, 12120, Note_on_c, 0, 76, 0
2, 12120, Note_on_c, 0, 80, 75
2, 12130, Note_on_c, 0, 80, 0
2, 12144, Note_on_c, 0, 78, 75
2, 12168, Note_on_c, 0, 78, 0
2, 12168, Note_on_c, 0, 81, 75
2, 12178, Note_on_c, 0, 81, 0
2, 12192, Note_on_c, 0, 80, 75
2, 12216, Note_on_c, 0, 80, 0
2, 12216, Note_on_c, 0, 83, 75
2, 12226, Note_on_c, 0, 83, 0
2, 12240, Note_on_c, 0, 75, 75
2, 12264, Note_on_c, 0, 75, 0
2, 12264, Note_on_c, 0, 78, 75
2, 12274, Note_on_c, 0, 78, 0
2, 12288, Note_on_c, 0, 76, 75
2, 12312, Note_on_c, 0, 76, 0
2, 12312, Note_on_c, 0, 80, 75
2, 12322, Note_on_c, 0, 80, 0
2, 12336, Note_on_c, 0, 78, 75
2, 12360, Note_on_c, 0, 78, 0
2, 12360, Note_on_c, 0, 81, 75
2, 12370, Note_on_c, 0, 81, 0
2, 12384, Note_on_c, 0, 80, 75
2, 12408, Note_on_c, 0, 80, 0
2, 12408, Note_on_c, 0, 83, 75
2, 12418, Note_on_c, 0, 83, 0
2, 12432, Note_on_c, 0, 80, 75
2, 12456, Note_on_c, 0, 80, 0
2, 12456, Note_on_c, 0, 76, 75
2, 12466, Note_on_c, 0, 76, 0
2, 12480, Note_on_c, 0, 75, 75
2, 12495, Note_on_c, 0, 75, 0
2, 12496, Note_on_c, 0, 76, 75
2, 12511, Note_on_c, 0, 76, 0
2, 12512, Note_on_c, 0, 78, 75
2, 12527, Note_on_c, 0, 78, 0
2, 12528, Note_on_c, 0, 71, 75
2, 12573, Note_on_c, 0, 71, 0
2, 12672, Note_on_c, 0, 64, 80
2, 12678, Note_on_c, 0, 68, 80
2, 12684, Note_on_c, 0, 71, 80
2, 12690, Note_on_c, 0, 76, 80
2, 12765, Note_on_c, 0, 76, 0
2, 12765, Note_on_c, 0, 71, 0
2, 12765, Note_on_c, 0, 68, 0
2, 12765, Note_on_c, 0, 64, 0
2, 12864, Note_on_c, 0, 71, 75
2, 12887, Note_on_c, 0, 71, 0
2, 12888, Note_on_c, 0, 73, 75
2, 12896, Note_on_c, 0, 73, 0
2, 12896, Note_on_c, 0, 71, 75
2, 12904, Note_on_c, 0, 71, 0
2, 12904, Note_on_c, 0, 69, 75
2, 12908, Note_on_c, 0, 69, 0
2, 12912, Note_on_c, 0, 71, 75
2, 12935, Note_on_c, 0, 71, 0
2, 12936, Note_on_c, 0, 73, 75
2, 12946, Note_on_c, 0, 73, 0
2, 12960, Note_on_c, 0, 71, 75
2, 13005, Note_on_c, 0, 71, 0
2, 13008, Note_on_c, 0, 71, 75
2, 13016, Note_on_c, 0, 71, 0
2, 13016, Note_on_c, 0, 69, 75
2, 13024, Note_on_c, 0, 69, 0
2, 13024, Note_on_c, 0, 71, 75
2, 13032, Note_on_c, 0, 71, 0
2, 13032, Note_on_c, 0, 69, 75
2, 13040, Note_on_c, 0, 69, 0
2, 13040, Note_on_c, 0, 68, 75
2, 13048, Note_on_c, 0, 68, 0
2, 13048, Note_on_c, 0, 69, 75
2, 13056, Note_on_c, 0, 69, 0
2, 13056, Note_on_c, 0, 68, 75
2, 13101, Note_on_c, 0, 68, 0
2, 13104, Note_on_c, 0, 64, 75
2, 13104, Note_on_c, 0, 59, 75
2, 13149, Note_on_c, 0, 64, 0
2, 13149, Note_on_c, 0, 59, 0
2, 13152, Note_on_c, 0, 66, 75
2, 13152, Note_on_c, 0, 61, 75
2, 13197, Note_on_c, 0, 66, 0
2, 13197, Note_on_c, 0, 61, 0
2, 13200, Note_on_c, 0, 63, 75
2, 13245, Note_on_c, 0, 63, 0
2, 13248, Note_on_c, 0, 64, 75
2, 13263, Note_on_c, 0, 64, 0
2, 13264, Note_on_c, 0, 66, 75
2, 13279, Note_on_c, 0, 66, 0
2, 13280, Note_on_c, 0, 68, 75
2, 13295, Note_on_c, 0, 68, 0
2, 13296, Note_on_c, 0, 59, 75
2, 13341, Note_on_c, 0, 59, 0
2, 13356, Note_on_c, 0, 71, 91
2, 13368, Note_on_c, 0, 71, 0
2, 13368, Note_on_c, 0, 73, 75
2, 13380, Note_on_c, 0, 73, 0
2, 13380, Note_on_c, 0, 75, 76
2, 13392, Note_on_c, 0, 75, 0
2, 13392, Note_on_c, 0, 76, 77
2, 13404, Note_on_c, 0, 76, 0
2, 13404, Note_on_c, 0, 78, 77
2, 13416, Note_on_c, 0, 78, 0
2, 13416, Note_on_c, 0, 80, 78
2, 13428, Note_on_c, 0, 80, 0
2, 13428, Note_on_c, 0, 81, 79
2, 13440, Note_on_c, 0, 81, 0
2, 13440, Note_on_c, 0, 83, 80
2, 13485, Note_on_c, 0, 83, 0
2, 13488, Note_on_c, 0, 80, 75
2, 13511, Note_on_c, 0, 80, 0
2, 13512, Note_on_c, 0, 76, 75
2, 13535, Note_on_c, 0, 76, 0
2, 13536, Note_on_c, 0, 81, 75
2, 13559, Note_on_c, 0, 81, 0
2, 13560, Note_on_c, 0, 78, 75
2, 13583, Note_on_c, 0, 78, 0
2, 13584, Note_on_c, 0, 76, 75
2, 13607, Note_on_c, 0, 76, 0
2, 13608, Note_on_c, 0, 75, 75
2, 13631, Note_on_c, 0, 75, 0
2, 13632, Note_on_c, 0, 76, 75
2, 13655, Note_on_c, 0, 76, 0
2, 13656, Note_on_c, 0, 83, 74
2, 13701, Note_on_c, 0, 83, 0
2, 13704, Note_on_c, 0, 80, 74
2, 13749, Note_on_c, 0, 80, 0
2, 13752, Note_on_c, 0, 81, 73
2, 13797, Note_on_c, 0, 81, 0
2, 13800, Note_on_c, 0, 78, 73
2, 13847, Note_on_c, 0, 78, 0
2, 13848, Note_on_c, 0, 80, 73
2, 13893, Note_on_c, 0, 80, 0
2, 13896, Note_on_c, 0, 76, 72
2, 13941, Note_on_c, 0, 76, 0
2, 13944, Note_on_c, 0, 78, 72
2, 13989, Note_on_c, 0, 78, 0
2, 13992, Note_on_c, 0, 75, 71
2, 14039, Note_on_c, 0, 75, 0
2, 14040, Note_on_c, 0, 76, 71
2, 14085, Note_on_c, 0, 76, 0
2, 14088, Note_on_c, 0, 73, 71
2, 14133, Note_on_c, 0, 73, 0
2, 14136, Note_on_c, 0, 75, 70
2, 14181, Note_on_c, 0, 75, 0
2, 14184, Note_on_c, 0, 72, 70
2, 14207, Note_on_c, 0, 72, 0
2, 14208, Note_on_c, 0, 73, 70
2, 14231, Note_on_c, 0, 73, 0
2, 14232, Note_on_c, 0, 68, 70
2, 14242, Note_on_c, 0, 68, 0
2, 14256, Note_on_c, 0, 68, 70
2, 14266, Note_on_c, 0, 68, 0
2, 14280, Note_on_c, 0, 68, 70
2, 14290, Note_on_c, 0, 68, 0
2, 14304, Note_on_c, 0, 76, 70
2, 14327, Note_on_c, 0, 76, 0
2, 14328, Note_on_c, 0, 68, 70
2, 14338, Note_on_c, 0, 68, 0
2, 14352, Note_on_c, 0, 68, 70
2, 14362, Note_on_c, 0, 68, 0
2, 14376, Note_on_c, 0, 68, 70
2, 14386, Note_on_c, 0, 68, 0
2, 14400, Note_on_c, 0, 75, 70
2, 14423, Note_on_c, 0, 75, 0
2, 14424, Note_on_c, 0, 68, 70
2, 14434, Note_on_c, 0, 68, 0
2, 14448, Note_on_c, 0, 68, 70
2, 14458, Note_on_c, 0, 68, 0
2, 14472, Note_on_c, 0, 68, 70
2, 14482, Note_on_c, 0, 68, 0
2, 14496, Note_on_c, 0, 78, 70
2, 14519, Note_on_c, 0, 78, 0
2, 14520, Note_on_c, 0, 68, 70
2, 14530, Note_on_c, 0, 68, 0
2, 14544, Note_on_c, 0, 68, 70
2, 14554, Note_on_c, 0, 68, 0
2, 14568, Note_on_c, 0, 68, 70
2, 14578, Note_on_c, 0, 68, 0
2, 14592, Note_on_c, 0, 76, 70
2, 14615, Note_on_c, 0, 76, 0
2, 14616, Note_on_c, 0, 68, 70
2, 14626, Note_on_c, 0, 68, 0
2, 14640, Note_on_c, 0, 68, 71
2, 14650, Note_on_c, 0, 68, 0
2, 14664, Note_on_c, 0, 68, 72
2, 14674, Note_on_c, 0, 68, 0
2, 14688, Note_on_c, 0, 80, 72
2, 14711, Note_on_c, 0, 80, 0
2, 14712, Note_on_c, 0, 68, 73
2, 14722, Note_on_c, 0, 68, 0
2, 14736, Note_on_c, 0, 68, 74
2, 14746, Note_on_c, 0, 68, 0
2, 14760, Note_on_c, 0, 68, 75
2, 14770, Note_on_c, 0, 68, 0
2, 14784, Note_on_c, 0, 81, 75
2, 14829, Note_on_c, 0, 81, 0
2, 14880, Note_on_c, 0, 71, 75
2, 14903, Note_on_c, 0, 71, 0
2, 14904, Note_on_c, 0, 81, 75
2, 14904, Note_on_c, 0, 78, 75
2, 14914, Note_on_c, 0, 81, 0
2, 14914, Note_on_c, 0, 78, 0
2, 14928, Note_on_c, 0, 81, 75
2, 14928, Note_on_c, 0, 78, 75
2, 14938, Note_on_c, 0, 81, 0
2, 14938, Note_on_c, 0, 78, 0
2, 14952, Note_on_c, 0, 81, 75
2, 14952, Note_on_c, 0, 78, 75
2, 14962, Note_on_c, 0, 81, 0
2, 14962, Note_on_c, 0, 78, 0
2, 14976, Note_on_c, 0, 80, 75
2, 14976, Note_on_c, 0, 76, 75
2, 15021, Note_on_c, 0, 80, 0
2, 15021, Note_on_c, 0, 76, 0
2, 15072, Note_on_c, 0, 83, 75
2, 15096, Note_on_c, 0, 83, 0
2, 15096, Note_on_c, 0, 81, 75
2, 15106, Note_on_c, 0, 81, 0
2, 15120, Note_on_c, 0, 81, 75
2, 15144, Note_on_c, 0, 81, 0
2, 15144, Note_on_c, 0, 80, 75
2, 15154, Note_on_c, 0, 80, 0
2, 15168, Note_on_c, 0, 80, 75
2, 15192, Note_on_c, 0, 80, 0
2, 15192, Note_on_c, 0, 78, 75
2, 15202, Note_on_c, 0, 78, 0
2, 15216, Note_on_c, 0, 78, 75
2, 15239, Note_on_c, 0, 78, 0
2, 15240, Note_on_c, 0, 76, 75
2, 15250, Note_on_c, 0, 76, 0
2, 15264, Note_on_c, 0, 83, 64
2, 15288, Note_on_c, 0, 83, 0
2, 15288, Note_on_c, 0, 81, 64
2, 15298, Note_on_c, 0, 81, 0
2, 15312, Note_on_c, 0, 81, 64
2, 15336, Note_on_c, 0, 81, 0
2, 15336, Note_on_c, 0, 80, 64
2, 15346, Note_on_c, 0, 80, 0
2, 15360, Note_on_c, 0, 80, 64
2, 15384, Note_on_c, 0, 80, 0
2, 15384, Note_on_c, 0, 78, 64
2, 15394, Note_on_c, 0, 78, 0
2, 15408, Note_on_c, 0, 78, 64
2, 15432, Note_on_c, 0, 78, 0
2, 15432, Note_on_c, 0, 76, 64
2, 15442, Note_on_c, 0, 76, 0
2, 15456, Note_on_c, 0, 83, 75
2, 15480, Note_on_c, 0, 83, 0
2, 15480, Note_on_c, 0, 81, 75
2, 15490, Note_on_c, 0, 81, 0
2, 15504, Note_on_c, 0, 81, 75
2, 15528, Note_on_c, 0, 81, 0
2, 15528, Note_on_c, 0, 80, 75
2, 15538, Note_on_c, 0, 80, 0
2, 15552, Note_on_c, 0, 85, 75
2, 15576, Note_on_c, 0, 85, 0
2, 15576, Note_on_c, 0, 81, 75
2, 15586, Note_on_c, 0, 81, 0
2, 15600, Note_on_c, 0, 81, 76
2, 15624, Note_on_c, 0, 81, 0
2, 15624, Note_on_c, 0, 80, 77
2, 15634, Note_on_c, 0, 80, 0
2, 15648, Note_on_c, 0, 80, 78
2, 15672, Note_on_c, 0, 80, 0
2, 15672, Note_on_c, 0, 78, 79
2, 15682, Note_on_c, 0, 78, 0
2, 15696, Note_on_c, 0, 85, 80
2, 15720, Note_on_c, 0, 85, 0
2, 15720, Note_on_c, 0, 76, 79
2, 15730, Note_on_c, 0, 76, 0
2, 15744, Note_on_c, 0, 75, 78
2, 15759, Note_on_c, 0, 75, 0
2, 15760, Note_on_c, 0, 76, 77
2, 15775, Note_on_c, 0, 76, 0
2, 15776, Note_on_c, 0, 78, 77
2, 15791, Note_on_c, 0, 78, 0
2, 15792, Note_on_c, 0, 71, 77
2, 15837, Note_on_c, 0, 71, 0
2, 15936, Note_on_c, 0, 64, 80
2, 15942, Note_on_c, 0, 68, 80
2, 15948, Note_on_c, 0, 71, 80
2, 15954, Note_on_c, 0, 76, 80
2, 16029, Note_on_c, 0, 76, 0
2, 16029, Note_on_c, 0, 71, 0
2, 16029, Note_on_c, 0, 68, 0
2, 16029, Note_on_c, 0, 64, 0
2, 16128, Note_on_c, 0, 71, 80
2, 16151, Note_on_c, 0, 71, 0
2, 16152, Note_on_c, 0, 73, 80
2, 16160, Note_on_c, 0, 73, 0
2, 16160, Note_on_c, 0, 71, 80
2, 16168, Note_on_c, 0, 71, 0
2, 16168, Note_on_c, 0, 69, 80
2, 16176, Note_on_c, 0, 69, 0
2, 16176, Note_on_c, 0, 71, 80
2, 16199, Note_on_c, 0, 71, 0
2, 16200, Note_on_c, 0, 73, 80
2, 16210, Note_on_c, 0, 73, 0
2, 16224, Note_on_c, 0, 71, 80
2, 16269, Note_on_c, 0, 71, 0
2, 16272, Note_on_c, 0, 71, 80
2, 16280, Note_on_c, 0, 71, 0
2, 16280, Note_on_c, 0, 69, 80
2, 16288, Note_on_c, 0, 69, 0
2, 16288, Note_on_c, 0, 71, 80
2, 16296, Note_on_c, 0, 71, 0
2, 16296, Note_on_c, 0, 69, 80
2, 16304, Note_on_c, 0, 69, 0
2, 16304, Note_on_c, 0, 68, 80
2, 16312, Note_on_c, 0, 68, 0
2, 16312, Note_on_c, 0, 69, 80
2, 16320, Note_on_c, 0, 69, 0
2, 16320, Note_on_c, 0, 68, 80
2, 16365, Note_on_c, 0, 68, 0
2, 16368, Note_on_c, 0, 64, 80
2, 16368, Note_on_c, 0, 59, 80
2, 16413, Note_on_c, 0, 64, 0
2, 16413, Note_on_c, 0, 59, 0
2, 16416, Note_on_c, 0, 66, 80
2, 16416, Note_on_c, 0, 61, 80
2, 16461, Note_on_c, 0, 66, 0
2, 16461, Note_on_c, 0, 61, 0
2, 16464, Note_on_c, 0, 63, 80
2, 16509, Note_on_c, 0, 63, 0
2, 16512, Note_on_c, 0, 64, 80
2, 16527, Note_on_c, 0, 64, 0
2, 16528, Note_on_c, 0, 66, 80
2, 16543, Note_on_c, 0, 66, 0
2, 16544, Note_on_c, 0, 68, 80
2, 16559, Note_on_c, 0, 68, 0
2, 16560, Note_on_c, 0, 59, 80
2, 16605, Note_on_c, 0, 59, 0
2, 16620, Note_on_c, 0, 64, 91
2, 16632, Note_on_c, 0, 64, 0
2, 16632, Note_on_c, 0, 66, 75
2, 16644, Note_on_c, 0, 66, 0
2, 16644, Note_on_c, 0, 68, 76
2, 16656, Note_on_c, 0, 68, 0
2, 16656, Note_on_c, 0, 69, 77
2, 16668, Note_on_c, 0, 69, 0
2, 16668, Note_on_c, 0, 71, 77
2, 16680, Note_on_c, 0, 71, 0
2, 16680, Note_on_c, 0, 73, 78
2, 16692, Note_on_c, 0, 73, 0
2, 16692, Note_on_c, 0, 75, 79
2, 16704, Note_on_c, 0, 75, 0
2, 16704, Note_on_c, 0, 76, 96
2, 16776, Note_on_c, 0, 76, 0
2, 16776, Note_on_c, 0, 68, 80
2, 16799, Note_on_c, 0, 68, 0
2, 16800, Note_on_c, 0, 69, 75
2, 16820, Note_on_c, 0, 69, 0
2, 16848, Note_on_c, 0, 71, 75
2, 16868, Note_on_c, 0, 71, 0
2, 16896, Note_on_c, 0, 73, 75
2, 16919, Note_on_c, 0, 73, 0
2, 16920, Note_on_c, 0, 75, 75
2, 16928, Note_on_c, 0, 75, 0
2, 16928, Note_on_c, 0, 73, 75
2, 16936, Note_on_c, 0, 73, 0
2, 16936, Note_on_c, 0, 71, 75
2, 16944, Note_on_c, 0, 71, 0
2, 16944, Note_on_c, 0, 73, 75
2, 16967, Note_on_c, 0, 73, 0
2, 16968, Note_on_c, 0, 76, 75
2, 16978, Note_on_c, 0, 76, 0
2, 16992, Note_on_c, 0, 71, 75
2, 17037, Note_on_c, 0, 71, 0
2, 17040, Note_on_c, 0, 68, 75
2, 17085, Note_on_c, 0, 68, 0
2, 17112, Note_on_c, 0, 81, 70
2, 17157, Note_on_c, 0, 81, 0
2, 17160, Note_on_c, 0, 78, 70
2, 17205, Note_on_c, 0, 78, 0
2, 17208, Note_on_c, 0, 80, 70
2, 17253, Note_on_c, 0, 80, 0
2, 17256, Note_on_c, 0, 76, 70
2, 17279, Note_on_c, 0, 76, 0
2, 17304, Note_on_c, 0, 75, 70
2, 17349, Note_on_c, 0, 75, 0
2, 17352, Note_on_c, 0, 78, 70
2, 17397, Note_on_c, 0, 78, 0
2, 17400, Note_on_c, 0, 76, 70
2, 17445, Note_on_c, 0, 76, 0
2, 17448, Note_on_c, 0, 71, 70
2, 17471, Note_on_c, 0, 71, 0
2, 17496, Note_on_c, 0, 73, 70
2, 17541, Note_on_c, 0, 73, 0
2, 17544, Note_on_c, 0, 75, 70
2, 17589, Note_on_c, 0, 75, 0
2, 17592, Note_on_c, 0, 76, 70
2, 17637, Note_on_c, 0, 76, 0
2, 17640, Note_on_c, 0, 71, 70
2, 17663, Note_on_c, 0, 71, 0
2, 17688, Note_on_c, 0, 69, 70
2, 17733, Note_on_c, 0, 69, 0
2, 17736, Note_on_c, 0, 66, 70
2, 17781, Note_on_c, 0, 66, 0
2, 17784, Note_on_c, 0, 68, 70
2, 17829, Note_on_c, 0, 68, 0
2, 17832, Note_on_c, 0, 64, 70
2, 17855, Note_on_c, 0, 64, 0
2, 17880, Note_on_c, 0, 66, 75
2, 17903, Note_on_c, 0, 66, 0
2, 17904, Note_on_c, 0, 65, 75
2, 17927, Note_on_c, 0, 65, 0
2, 17928, Note_on_c, 0, 66, 75
2, 17951, Note_on_c, 0, 66, 0
2, 17952, Note_on_c, 0, 73, 75
2, 17967, Note_on_c, 0, 73, 0
2, 17968, Note_on_c, 0, 71, 75
2, 17983, Note_on_c, 0, 71, 0
2, 17984, Note_on_c, 0, 69, 76
2, 17999, Note_on_c, 0, 69, 0
2, 18000, Note_on_c, 0, 68, 77
2, 18015, Note_on_c, 0, 68, 0
2, 18016, Note_on_c, 0, 66, 78
2, 18031, Note_on_c, 0, 66, 0
2, 18032, Note_on_c, 0, 64, 78
2, 18047, Note_on_c, 0, 64, 0
2, 18048, Note_on_c, 0, 63, 79
2, 18063, Note_on_c, 0, 63, 0
2, 18064, Note_on_c, 0, 64, 79
2, 18079, Note_on_c, 0, 64, 0
2, 18080, Note_on_c, 0, 66, 79
2, 18095, Note_on_c, 0, 66, 0
2, 18096, Note_on_c, 0, 59, 78
2, 18141, Note_on_c, 0, 59, 0
2, 18240, Note_on_c, 0, 71, 75
2, 18264, Note_on_c, 0, 71, 0
2, 18264, Note_on_c, 0, 76, 75
2, 18287, Note_on_c, 0, 76, 0
2, 18288, Note_on_c, 0, 76, 75
2, 18298, Note_on_c, 0, 76, 0
2, 18312, Note_on_c, 0, 76, 75
2, 18322, Note_on_c, 0, 76, 0
2, 18336, Note_on_c, 0, 76, 75
2, 18346, Note_on_c, 0, 76, 0
2, 18360, Note_on_c, 0, 74, 75
2, 18383, Note_on_c, 0, 74, 0
2, 18384, Note_on_c, 0, 73, 75
2, 18407, Note_on_c, 0, 73, 0
2, 18408, Note_on_c, 0, 71, 75
2, 18431, Note_on_c, 0, 71, 0
2, 18432, Note_on_c, 0, 73, 75
2, 18456, Note_on_c, 0, 73, 0
2, 18456, Note_on_c, 0, 76, 75
2, 18466, Note_on_c, 0, 76, 0
2, 18480, Note_on_c, 0, 68, 75
2, 18504, Note_on_c, 0, 68, 0
2, 18504, Note_on_c, 0, 71, 75
2, 18514, Note_on_c, 0, 71, 0
2, 18528, Note_on_c, 0, 69, 75
2, 18552, Note_on_c, 0, 69, 0
2, 18552, Note_on_c, 0, 73, 75
2, 18562, Note_on_c, 0, 73, 0
2, 18576, Note_on_c, 0, 71, 75
2, 18600, Note_on_c, 0, 71, 0
2, 18600, Note_on_c, 0, 74, 75
2, 18610, Note_on_c, 0, 74, 0
2, 18624, Note_on_c, 0, 73, 75
2, 18648, Note_on_c, 0, 73, 0
2, 18648, Note_on_c, 0, 76, 75
2, 18658, Note_on_c, 0, 76, 0
2, 18672, Note_on_c, 0, 68, 75
2, 18696, Note_on_c, 0, 68, 0
2, 18696, Note_on_c, 0, 71, 75
2, 18706, Note_on_c, 0, 71, 0
2, 18720, Note_on_c, 0, 69, 75
2, 18744, Note_on_c, 0, 69, 0
2, 18744, Note_on_c, 0, 73, 75
2, 18754, Note_on_c, 0, 73, 0
2, 18768, Note_on_c, 0, 71, 75
2, 18792, Note_on_c, 0, 71, 0
2, 18792, Note_on_c, 0, 74, 75
2, 18802, Note_on_c, 0, 74, 0
2, 18816, Note_on_c, 0, 73, 75
2, 18840, Note_on_c, 0, 73, 0
2, 18840, Note_on_c, 0, 78, 76
2, 18863, Note_on_c, 0, 78, 0
2, 18864, Note_on_c, 0, 78, 77
2, 18874, Note_on_c, 0, 78, 0
2, 18888, Note_on_c, 0, 78, 78
2, 18898, Note_on_c, 0, 78, 0
2, 18912, Note_on_c, 0, 78, 80
2, 18922, Note_on_c, 0, 78, 0
2, 18936, Note_on_c, 0, 76, 80
2, 18959, Note_on_c, 0, 76, 0
2, 18960, Note_on_c, 0, 75, 80
2, 18983, Note_on_c, 0, 75, 0
2, 18984, Note_on_c, 0, 73, 80
2, 19007, Note_on_c, 0, 73, 0
2, 19008, Note_on_c, 0, 75, 80
2, 19032, Note_on_c, 0, 75, 0
2, 19032, Note_on_c, 0, 78, 80
2, 19042, Note_on_c, 0, 78, 0
2, 19056, Note_on_c, 0, 70, 80
2, 19080, Note_on_c, 0, 70, 0
2, 19080, Note_on_c, 0, 73, 80
2, 19090, Note_on_c, 0, 73, 0
2, 19104, Note_on_c, 0, 71, 80
2, 19128, Note_on_c, 0, 71, 0
2, 19128, Note_on_c, 0, 75, 80
2, 19138, Note_on_c, 0, 75, 0
2, 19152, Note_on_c, 0, 73, 80
2, 19176, Note_on_c, 0, 73, 0
2, 19176, Note_on_c, 0, 76, 80
2, 19186, Note_on_c, 0, 76, 0
2, 19200, Note_on_c, 0, 75, 80
2, 19224, Note_on_c, 0, 75, 0
2, 19224, Note_on_c, 0, 78, 80
2, 19234, Note_on_c, 0, 78, 0
2, 19248, Note_on_c, 0, 70, 80
2, 19272, Note_on_c, 0, 70, 0
2, 19272, Note_on_c, 0, 73, 80
2, 19282, Note_on_c, 0, 73, 0
2, 19296, Note_on_c, 0, 71, 80
2, 19320, Note_on_c, 0, 71, 0
2, 19320, Note_on_c, 0, 75, 80
2, 19330, Note_on_c, 0, 75, 0
2, 19344, Note_on_c, 0, 73, 80
2, 19368, Note_on_c, 0, 73, 0
2, 19368, Note_on_c, 0, 76, 80
2, 19378, Note_on_c, 0, 76, 0
2, 19392, Note_on_c, 0, 75, 80
2, 19416, Note_on_c, 0, 75, 0
2, 19416, Note_on_c, 0, 78, 80
2, 19426, Note_on_c, 0, 78, 0
2, 19440, Note_on_c, 0, 76, 81
2, 19464, Note_on_c, 0, 76, 0
2, 19464, Note_on_c, 0, 80, 82
2, 19474, Note_on_c, 0, 80, 0
2, 19488, Note_on_c, 0, 78, 83
2, 19512, Note_on_c, 0, 78, 0
2, 19512, Note_on_c, 0, 81, 83
2, 19522, Note_on_c, 0, 81, 0
2, 19536, Note_on_c, 0, 80, 84
2, 19560, Note_on_c, 0, 80, 0
2, 19560, Note_on_c, 0, 83, 85
2, 19570, Note_on_c, 0, 83, 0
2, 19584, Note_on_c, 0, 83, 86
2, 19608, Note_on_c, 0, 83, 0
2, 19608, Note_on_c, 0, 81, 85
2, 19618, Note_on_c, 0, 81, 0
2, 19632, Note_on_c, 0, 81, 84
2, 19656, Note_on_c, 0, 81, 0
2, 19656, Note_on_c, 0, 80, 84
2, 19666, Note_on_c, 0, 80, 0
2, 19680, Note_on_c, 0, 80, 83
2, 19704, Note_on_c, 0, 80, 0
2, 19704, Note_on_c, 0, 78, 82
2, 19714, Note_on_c, 0, 78, 0
2, 19728, Note_on_c, 0, 78, 82
2, 19752, Note_on_c, 0, 78, 0
2, 19752, Note_on_c, 0, 76, 81
2, 19762, Note_on_c, 0, 76, 0
2, 19776, Note_on_c, 0, 76, 80
2, 19800, Note_on_c, 0, 76, 0
2, 19800, Note_on_c, 0, 75, 80
2, 19810, Note_on_c, 0, 75, 0
2, 19824, Note_on_c, 0, 75, 79
2, 19848, Note_on_c, 0, 75, 0
2, 19848, Note_on_c, 0, 73, 78
2, 19858, Note_on_c, 0, 73, 0
2, 19872, Note_on_c, 0, 73, 78
2, 19896, Note_on_c, 0, 73, 0
2, 19896, Note_on_c, 0, 71, 77
2, 19906, Note_on_c, 0, 71, 0
2, 19920, Note_on_c, 0, 71, 76
2, 19944, Note_on_c, 0, 71, 0
2, 19944, Note_on_c, 0, 69, 76
2, 19954, Note_on_c, 0, 69, 0
2, 19968, Note_on_c, 0, 68, 75
2, 19983, Note_on_c, 0, 68, 0
2, 19984, Note_on_c, 0, 69, 75
2, 19999, Note_on_c, 0, 69, 0
2, 20000, Note_on_c, 0, 71, 74
2, 20015, Note_on_c, 0, 71, 0
2, 20016, Note_on_c, 0, 64, 74
2, 20031, Note_on_c, 0, 64, 0
2, 20032, Note_on_c, 0, 69, 74
2, 20047, Note_on_c, 0, 69, 0
2, 20048, Note_on_c, 0, 66, 73
2, 20063, Note_on_c, 0, 66, 0
2, 20064, Note_on_c, 0, 68, 73
2, 20074, Note_on_c, 0, 68, 0
2, 20074, Note_on_c, 0, 66, 73
2, 20084, Note_on_c, 0, 66, 0
2, 20084, Note_on_c, 0, 68, 73
2, 20094, Note_on_c, 0, 68, 0
2, 20094, Note_on_c, 0, 66, 72
2, 20104, Note_on_c, 0, 66, 0
2, 20104, Note_on_c, 0, 68, 72
2, 20114, Note_on_c, 0, 68, 0
2, 20114, Note_on_c, 0, 66, 72
2, 20124, Note_on_c, 0, 66, 0
2, 20124, Note_on_c, 0, 68, 72
2, 20133, Note_on_c, 0, 68, 0
2, 20133, Note_on_c, 0, 66, 72
2, 20142, Note_on_c, 0, 66, 0
2, 20142, Note_on_c, 0, 64, 72
2, 20151, Note_on_c, 0, 64, 0
2, 20151, Note_on_c, 0, 66, 71
2, 20160, Note_on_c, 0, 66, 0
2, 20160, Note_on_c, 0, 64, 70
2, 20238, Note_on_c, 0, 64, 0
2, 20244, Note_on_c, 0, 71, 75
2, 20249, Note_on_c, 0, 71, 0
2, 20256, Note_on_c, 0, 64, 91
2, 20304, Note_on_c, 0, 64, 0
2, 20304, Note_on_c, 0, 66, 75
2, 20349, Note_on_c, 0, 66, 0
2, 20352, Note_on_c, 0, 68, 75
2, 20400, Note_on_c, 0, 68, 0
2, 20400, Note_on_c, 0, 66, 75
2, 20434, Note_on_c, 0, 66, 0
2, 20436, Note_on_c, 0, 71, 75
2, 20441, Note_on_c, 0, 71, 0
2, 20448, Note_on_c, 0, 66, 91
2, 20496, Note_on_c, 0, 66, 0
2, 20496, Note_on_c, 0, 68, 75
2, 20541, Note_on_c, 0, 68, 0
2, 20544, Note_on_c, 0, 69, 75
2, 20592, Note_on_c, 0, 69, 0
2, 20592, Note_on_c, 0, 68, 75
2, 20626, Note_on_c, 0, 68, 0
2, 20628, Note_on_c, 0, 71, 75
2, 20633, Note_on_c, 0, 71, 0
2, 20640, Note_on_c, 0, 68, 91
2, 20688, Note_on_c, 0, 68, 0
2, 20688, Note_on_c, 0, 69, 75
2, 20733, Note_on_c, 0, 69, 0
2, 20736, Note_on_c, 0, 71, 75
2, 20736, Note_on_c, 0, 68, 75
2, 20781, Note_on_c, 0, 71, 0
2, 20781, Note_on_c, 0, 68, 0
2, 20784, Note_on_c, 0, 76, 91
2, 20784, Note_on_c, 0, 71, 91
2, 20784, Note_on_c, 0, 68, 91
2, 20832, Note_on_c, 0, 76, 0
2, 20832, Note_on_c, 0, 71, 0
2, 20832, Note_on_c, 0, 68, 0
2, 20880, Note_on_c, 0, 71, 75
2, 20880, Note_on_c, 0, 68, 75
2, 20880, Note_on_c, 0, 64, 75
2, 20925, Note_on_c, 0, 71, 0
2, 20925, Note_on_c, 0, 68, 0
2, 20925, Note_on_c, 0, 64, 0
2, 20952, Note_on_c, 0, 73, 70
2, 20997, Note_on_c, 0, 73, 0
2, 21000, Note_on_c, 0, 69, 70
2, 21045, Note_on_c, 0, 69, 0
2, 21048, Note_on_c, 0, 68, 70
2, 21093, Note_on_c, 0, 68, 0
2, 21096, Note_on_c, 0, 66, 70
2, 21119, Note_on_c, 0, 66, 0
2, 21120, Note_on_c, 0, 68, 75
2, 21165, Note_on_c, 0, 68, 0
2, 21168, Note_on_c, 0, 76, 91
2, 21168, Note_on_c, 0, 71, 91
2, 21168, Note_on_c, 0, 68, 91
2, 21216, Note_on_c, 0, 76, 0
2, 21216, Note_on_c, 0, 71, 0
2, 21216, Note_on_c, 0, 68, 0
2, 21264, Note_on_c, 0, 83, 75
2, 21264, Note_on_c, 0, 80, 75
2, 21264, Note_on_c, 0, 76, 75
2, 21309, Note_on_c, 0, 83, 0
2, 21309, Note_on_c, 0, 80, 0
2, 21309, Note_on_c, 0, 76, 0
2, 21312, Note_on_c, 0, 81, 75
2, 21327, Note_on_c, 0, 81, 0
2, 21328, Note_on_c, 0, 80, 75
2, 21343, Note_on_c, 0, 80, 0
2, 21344, Note_on_c, 0, 78, 75
2, 21359, Note_on_c, 0, 78, 0
2, 21360, Note_on_c, 0, 80, 75
2, 21375, Note_on_c, 0, 80, 0
2, 21376, Note_on_c, 0, 78, 75
2, 21391, Note_on_c, 0, 78, 0
2, 21392, Note_on_c, 0, 76, 75
2, 21407, Note_on_c, 0, 76, 0
2, 21408, Note_on_c, 0, 80, 75
2, 21418, Note_on_c, 0, 80, 0
2, 21418, Note_on_c, 0, 78, 75
2, 21428, Note_on_c, 0, 78, 0
2, 21428, Note_on_c, 0, 80, 75
2, 21438, Note_on_c, 0, 80, 0
2, 21438, Note_on_c, 0, 78, 75
2, 21448, Note_on_c, 0, 78, 0
2, 21448, Note_on_c, 0, 80, 75
2, 21458, Note_on_c, 0, 80, 0
2, 21458, Note_on_c, 0, 78, 75
2, 21468, Note_on_c, 0, 78, 0
2, 21468, Note_on_c, 0, 80, 75
2, 21477, Note_on_c, 0, 80, 0
2, 21477, Note_on_c, 0, 78, 75
2, 21486, Note_on_c, 0, 78, 0
2, 21486, Note_on_c, 0, 76, 75
2, 21495, Note_on_c, 0, 76, 0
2, 21495, Note_on_c, 0, 78, 75
2, 21504, Note_on_c, 0, 78, 0
2, 21504, Note_on_c, 0, 80, 75
2, 21519, Note_on_c, 0, 80, 0
2, 21520, Note_on_c, 0, 78, 75
2, 21535, Note_on_c, 0, 78, 0
2, 21536, Note_on_c, 0, 76, 75
2, 21551, Note_on_c, 0, 76, 0
2, 21552, Note_on_c, 0, 75, 75
2, 21567, Note_on_c, 0, 75, 0
2, 21568, Note_on_c, 0, 73, 75
2, 21583, Note_on_c, 0, 73, 0
2, 21584, Note_on_c, 0, 71, 75
2, 21599, Note_on_c, 0, 71, 0
2, 21600, Note_on_c, 0, 80, 75
2, 21610, Note_on_c, 0, 80, 0
2, 21610, Note_on_c, 0, 78, 75
2, 21620, Note_on_c, 0, 78, 0
2, 21620, Note_on_c, 0, 80, 75
2, 21630, Note_on_c, 0, 80, 0
2, 21630, Note_on_c, 0, 78, 75
2, 21640, Note_on_c, 0, 78, 0
2, 21640, Note_on_c, 0, 80, 75
2, 21650, Note_on_c, 0, 80, 0
2, 21650, Note_on_c, 0, 78, 75
2, 21660, Note_on_c, 0, 78, 0
2, 21660, Note_on_c, 0, 80, 75
2, 21669, Note_on_c, 0, 80, 0
2, 21669, Note_on_c, 0, 78, 75
2, 21678, Note_on_c, 0, 78, 0
2, 21678, Note_on_c, 0, 76, 75
2, 21687, Note_on_c, 0, 76, 0
2, 21687, Note_on_c, 0, 78, 75
2, 21696, Note_on_c, 0, 78, 0
2, 21696, Note_on_c, 0, 76, 75
2, 21785, Note_on_c, 0, 76, 0
2, 21888, Note_on_c, 0, 71, 75
2, 21912, Note_on_c, 0, 71, 0
2, 21912, Note_on_c, 0, 83, 75
2, 21935, Note_on_c, 0, 83, 0
2, 21936, Note_on_c, 0, 83, 75
2, 21946, Note_on_c, 0, 83, 0
2, 21960, Note_on_c, 0, 83, 75
2, 21970, Note_on_c, 0, 83, 0
2, 21984, Note_on_c, 0, 83, 75
2, 22008, Note_on_c, 0, 83, 0
2, 22008, Note_on_c, 0, 80, 75
2, 22031, Note_on_c, 0, 80, 0
2, 22032, Note_on_c, 0, 81, 75
2, 22056, Note_on_c, 0, 81, 0
2, 22056, Note_on_c, 0, 78, 75
2, 22079, Note_on_c, 0, 78, 0
2, 22080, Note_on_c, 0, 80, 75
2, 22090, Note_on_c, 0, 80, 0
2, 22104, Note_on_c, 0, 80, 75
2, 22114, Note_on_c, 0, 80, 0
2, 22128, Note_on_c, 0, 80, 75
2, 22138, Note_on_c, 0, 80, 0
2, 22152, Note_on_c, 0, 80, 75
2, 22162, Note_on_c, 0, 80, 0
2, 22176, Note_on_c, 0, 80, 75
2, 22186, Note_on_c, 0, 80, 0
2, 22200, Note_on_c, 0, 76, 75
2, 22223, Note_on_c, 0, 76, 0
2, 22224, Note_on_c, 0, 78, 75
2, 22247, Note_on_c, 0, 78, 0
2, 22248, Note_on_c, 0, 75, 75
2, 22271, Note_on_c, 0, 75, 0
2, 22272, Note_on_c, 0, 76, 75
2, 22296, Note_on_c, 0, 76, 0
2, 22296, Note_on_c, 0, 80, 75
2, 22306, Note_on_c, 0, 80, 0
2, 22320, Note_on_c, 0, 78, 75
2, 22344, Note_on_c, 0, 78, 0
2, 22344, Note_on_c, 0, 81, 75
2, 22354, Note_on_c, 0, 81, 0
2, 22368, Note_on_c, 0, 80, 75
2, 22392, Note_on_c, 0, 80, 0
2, 22392, Note_on_c, 0, 83, 75
2, 22402, Note_on_c, 0, 83, 0
2, 22416, Note_on_c, 0, 75, 75
2, 22440, Note_on_c, 0, 75, 0
2, 22440, Note_on_c, 0, 78, 75
2, 22450, Note_on_c, 0, 78, 0
2, 22464, Note_on_c, 0, 76, 75
2, 22488, Note_on_c, 0, 76, 0
2, 22488, Note_on_c, 0, 80, 75
2, 22498, Note_on_c, 0, 80, 0
2, 22512, Note_on_c, 0, 78, 75
2, 22536, Note_on_c, 0, 78, 0
2, 22536, Note_on_c, 0, 81, 75
2, 22546, Note_on_c, 0, 81, 0
2, 22560, Note_on_c, 0, 80, 75
2, 22584, Note_on_c, 0, 80, 0
2, 22584, Note_on_c, 0, 83, 75
2, 22594, Note_on_c, 0, 83, 0
2, 22608, Note_on_c, 0, 75, 75
2, 22632, Note_on_c, 0, 75, 0
2, 22632, Note_on_c, 0, 78, 75
2, 22642, Note_on_c, 0, 78, 0
2, 22656, Note_on_c, 0, 76, 75
2, 22680, Note_on_c, 0, 76, 0
2, 22680, Note_on_c, 0, 80, 75
2, 22690, Note_on_c, 0, 80, 0
2, 22704, Note_on_c, 0, 78, 75
2, 22728, Note_on_c, 0, 78, 0
2, 22728, Note_on_c, 0, 81, 75
2, 22738, Note_on_c, 0, 81, 0
2, 22752, Note_on_c, 0, 80, 75
2, 22776, Note_on_c, 0, 80, 0
2, 22776, Note_on_c, 0, 83, 75
2, 22786, Note_on_c, 0, 83, 0
2, 22800, Note_on_c, 0, 80, 75
2, 22824, Note_on_c, 0, 80, 0
2, 22824, Note_on_c, 0, 76, 75
2, 22834, Note_on_c, 0, 76, 0
2, 22848, Note_on_c, 0, 75, 75
2, 22863, Note_on_c, 0, 75, 0
2, 22864, Note_on_c, 0, 76, 75
2, 22879, Note_on_c, 0, 76, 0
2, 22880, Note_on_c, 0, 78, 75
2, 22895, Note_on_c, 0, 78, 0
2, 22896, Note_on_c, 0, 71, 75
2, 22941, Note_on_c, 0, 71, 0
2, 23040, Note_on_c, 0, 64, 80
2, 23046, Note_on_c, 0, 68, 80
2, 23052, Note_on_c, 0, 71, 80
2, 23058, Note_on_c, 0, 76, 80
2, 23133, Note_on_c, 0, 76, 0
2, 23133, Note_on_c, 0, 71, 0
2, 23133, Note_on_c, 0, 68, 0
2, 23133, Note_on_c, 0, 64, 0
2, 23232, Note_on_c, 0, 71, 75
2, 23255, Note_on_c, 0, 71, 0
2, 23256, Note_on_c, 0, 73, 75
2, 23264, Note_on_c, 0, 73, 0
2, 23264, Note_on_c, 0, 71, 75
2, 23272, Note_on_c, 0, 71, 0
2, 23272, Note_on_c, 0, 69, 75
2, 23276, Note_on_c, 0, 69, 0
2, 23280, Note_on_c, 0, 71, 75
2, 23303, Note_on_c, 0, 71, 0
2, 23304, Note_on_c, 0, 73, 75
2, 23314, Note_on_c, 0, 73, 0
2, 23328, Note_on_c, 0, 71, 75
2, 23373, Note_on_c, 0, 71, 0
2, 23376, Note_on_c, 0, 71, 75
2, 23384, Note_on_c, 0, 71, 0
2, 23384, Note_on_c, 0, 69, 75
2, 23392, Note_on_c, 0, 69, 0
2, 23392, Note_on_c, 0, 71, 75
2, 23400, Note_on_c, 0, 71, 0
2, 23400, Note_on_c, 0, 69, 75
2, 23408, Note_on_c, 0, 69, 0
2, 23408, Note_on_c, 0, 68, 75
2, 23416, Note_on_c, 0, 68, 0
2, 23416, Note_on_c, 0, 69, 75
2, 23424, Note_on_c, 0, 69, 0
2, 23424, Note_on_c, 0, 68, 75
2, 23469, Note_on_c, 0, 68, 0
2, 23472, Note_on_c, 0, 64, 75
2, 23472, Note_on_c, 0, 59, 75
2, 23517, Note_on_c, 0, 64, 0
2, 23517, Note_on_c, 0, 59, 0
2, 23520, Note_on_c, 0, 66, 75
2, 23520, Note_on_c, 0, 61, 75
2, 23565, Note_on_c, 0, 66, 0
2, 23565, Note_on_c, 0, 61, 0
2, 23568, Note_on_c, 0, 63, 75
2, 23613, Note_on_c, 0, 63, 0
2, 23616, Note_on_c, 0, 64, 75
2, 23631, Note_on_c, 0, 64, 0
2, 23632, Note_on_c, 0, 66, 75
2, 23647, Note_on_c, 0, 66, 0
2, 23648, Note_on_c, 0, 68, 75
2, 23663, Note_on_c, 0, 68, 0
2, 23664, Note_on_c, 0, 59, 75
2, 23709, Note_on_c, 0, 59, 0
2, 23724, Note_on_c, 0, 71, 91
2, 23736, Note_on_c, 0, 71, 0
2, 23736, Note_on_c, 0, 73, 75
2, 23748, Note_on_c, 0, 73, 0
2, 23748, Note_on_c, 0, 75, 76
2, 23760, Note_on_c, 0, 75, 0
2, 23760, Note_on_c, 0, 76, 77
2, 23772, Note_on_c, 0, 76, 0
2, 23772, Note_on_c, 0, 78, 77
2, 23784, Note_on_c, 0, 78, 0
2, 23784, Note_on_c, 0, 80, 78
2, 23796, Note_on_c, 0, 80, 0
2, 23796, Note_on_c, 0, 81, 79
2, 23808, Note_on_c, 0, 81, 0
2, 23808, Note_on_c, 0, 83, 80
2, 23853, Note_on_c, 0, 83, 0
2, 23856, Note_on_c, 0, 80, 75
2, 23879, Note_on_c, 0, 80, 0
2, 23880, Note_on_c, 0, 76, 75
2, 23903, Note_on_c, 0, 76, 0
2, 23904, Note_on_c, 0, 81, 75
2, 23927, Note_on_c, 0, 81, 0
2, 23928, Note_on_c, 0, 78, 75
2, 23951, Note_on_c, 0, 78, 0
2, 23952, Note_on_c, 0, 76, 75
2, 23975, Note_on_c, 0, 76, 0
2, 23976, Note_on_c, 0, 75, 75
2, 23999, Note_on_c, 0, 75, 0
2, 24000, Note_on_c, 0, 76, 75
2, 24023, Note_on_c, 0, 76, 0
2, 24024, Note_on_c, 0, 83, 74
2, 24069, Note_on_c, 0, 83, 0
2, 24072, Note_on_c, 0, 80, 74
2, 24117, Note_on_c, 0, 80, 0
2, 24120, Note_on_c, 0, 81, 73
2, 24165, Note_on_c, 0, 81, 0
2, 24168, Note_on_c, 0, 78, 73
2, 24215, Note_on_c, 0, 78, 0
2, 24216, Note_on_c, 0, 80, 73
2, 24261, Note_on_c, 0, 80, 0
2, 24264, Note_on_c, 0, 76, 72
2, 24309, Note_on_c, 0, 76, 0
2, 24312, Note_on_c, 0, 78, 72
2, 24357, Note_on_c, 0, 78, 0
2, 24360, Note_on_c, 0, 75, 71
2, 24407, Note_on_c, 0, 75, 0
2, 24408, Note_on_c, 0, 76, 71
2, 24453, Note_on_c, 0, 76, 0
2, 24456, Note_on_c, 0, 73, 71
2, 24501, Note_on_c, 0, 73, 0
2, 24504, Note_on_c, 0, 75, 70
2, 24549, Note_on_c, 0, 75, 0
2, 24552, Note_on_c, 0, 72, 70
2, 24575, Note_on_c, 0, 72, 0
2, 24576, Note_on_c, 0, 73, 70
2, 24599, Note_on_c, 0, 73, 0
2, 24600, Note_on_c, 0, 68, 70
2, 24610, Note_on_c, 0, 68, 0
2, 24624, Note_on_c, 0, 68, 70
2, 24634, Note_on_c, 0, 68, 0
2, 24648, Note_on_c, 0, 68, 70
2, 24658, Note_on_c, 0, 68, 0
2, 24672, Note_on_c, 0, 76, 70
2, 24695, Note_on_c, 0, 76, 0
2, 24696, Note_on_c, 0, 68, 70
2, 24706, Note_on_c, 0, 68, 0
2, 24720, Note_on_c, 0, 68, 70
2, 24730, Note_on_c, 0, 68, 0
2, 24744, Note_on_c, 0, 68, 70
2, 24754, Note_on_c, 0, 68, 0
2, 24768, Note_on_c, 0, 75, 70
2, 24791, Note_on_c, 0, 75, 0
2, 24792, Note_on_c, 0, 68, 70
2, 24802, Note_on_c, 0, 68, 0
2, 24816, Note_on_c, 0, 68, 70
2, 24826, Note_on_c, 0, 68, 0
2, 24840, Note_on_c, 0, 68, 70
2, 24850, Note_on_c, 0, 68, 0
2, 24864, Note_on_c, 0, 78, 70
2, 24887, Note_on_c, 0, 78, 0
2, 24888, Note_on_c, 0, 68, 70
2, 24898, Note_on_c, 0, 68, 0
2, 24912, Note_on_c, 0, 68, 70
2, 24922, Note_on_c, 0, 68, 0
2, 24936, Note_on_c, 0, 68, 70
2, 24946, Note_on_c, 0, 68, 0
2, 24960, Note_on_c, 0, 76, 70
2, 24983, Note_on_c, 0, 76, 0
2, 24984, Note_on_c, 0, 68, 70
2, 24994, Note_on_c, 0, 68, 0
2, 25008, Note_on_c, 0, 68, 71
2, 25018, Note_on_c, 0, 68, 0
2, 25032, Note_on_c, 0, 68, 72
2, 25042, Note_on_c, 0, 68, 0
2, 25056, Note_on_c, 0, 80, 72
2, 25079, Note_on_c, 0, 80, 0
2, 25080, Note_on_c, 0, 68, 73
2, 25090, Note_on_c, 0, 68, 0
2, 25104, Note_on_c, 0, 68, 74
2, 25114, Note_on_c, 0, 68, 0
2, 25128, Note_on_c, 0, 68, 75
2, 25138, Note_on_c, 0, 68, 0
2, 25152, Note_on_c, 0, 81, 75
2, 25197, Note_on_c, 0, 81, 0
2, 25248, Note_on_c, 0, 71, 75
2, 25271, Note_on_c, 0, 71, 0
2, 25272, Note_on_c, 0, 81, 75
2, 25272, Note_on_c, 0, 78, 75
2, 25282, Note_on_c, 0, 81, 0
2, 25282, Note_on_c, 0, 78, 0
2, 25296, Note_on_c, 0, 81, 75
2, 25296, Note_on_c, 0, 78, 75
2, 25306, Note_on_c, 0, 81, 0
2, 25306, Note_on_c, 0, 78, 0
2, 25320, Note_on_c, 0, 81, 75
2, 25320, Note_on_c, 0, 78, 75
2, 25330, Note_on_c, 0, 81, 0
2, 25330, Note_on_c, 0, 78, 0
2, 25344, Note_on_c, 0, 80, 75
2, 25344, Note_on_c, 0, 76, 75
2, 25389, Note_on_c, 0, 80, 0
2, 25389, Note_on_c, 0, 76, 0
2, 25440, Note_on_c, 0, 83, 75
2, 25464, Note_on_c, 0, 83, 0
2, 25464, Note_on_c, 0, 81, 75
2, 25474, Note_on_c, 0, 81, 0
2, 25488, Note_on_c, 0, 81, 75
2, 25512, Note_on_c, 0, 81, 0
2, 25512, Note_on_c, 0, 80, 75
2, 25522, Note_on_c, 0, 80, 0
2, 25536, Note_on_c, 0, 80, 75
2, 25560, Note_on_c, 0, 80, 0
2, 25560, Note_on_c, 0, 78, 75
2, 25570, Note_on_c, 0, 78, 0
2, 25584, Note_on_c, 0, 78, 75
2, 25607, Note_on_c, 0, 78, 0
2, 25608, Note_on_c, 0, 76, 75
2, 25618, Note_on_c, 0, 76, 0
2, 25632, Note_on_c, 0, 83, 64
2, 25656, Note_on_c, 0, 83, 0
2, 25656, Note_on_c, 0, 81, 64
2, 25666, Note_on_c, 0, 81, 0
2, 25680, Note_on_c, 0, 81, 64
2, 25704, Note_on_c, 0, 81, 0
2, 25704, Note_on_c, 0, 80, 64
2, 25714, Note_on_c, 0, 80, 0
2, 25728, Note_on_c, 0, 80, 64
2, 25752, Note_on_c, 0, 80, 0
2, 25752, Note_on_c, 0, 78, 64
2, 25762, Note_on_c, 0, 78, 0
2, 25776, Note_on_c, 0, 78, 64
2, 25800, Note_on_c, 0, 78, 0
2, 25800, Note_on_c, 0, 76, 64
2, 25810, Note_on_c, 0, 76, 0
2, 25824, Note_on_c, 0, 83, 75
2, 25848, Note_on_c, 0, 83, 0
2, 25848, Note_on_c, 0, 81, 75
2, 25858, Note_on_c, 0, 81, 0
2, 25872, Note_on_c, 0, 81, 75
2, 25896, Note_on_c, 0, 81, 0
2, 25896, Note_on_c, 0, 80, 75
2, 25906, Note_on_c, 0, 80, 0
2, 25920, Note_on_c, 0, 85, 75
2, 25944, Note_on_c, 0, 85, 0
2, 25944, Note_on_c, 0, 81, 75
2, 25954, Note_on_c, 0, 81, 0
2, 25968, Note_on_c, 0, 81, 76
2, 25992, Note_on_c, 0, 81, 0
2, 25992, Note_on_c, 0, 80, 77
2, 26002, Note_on_c, 0, 80, 0
2, 26016, Note_on_c, 0, 80, 78
2, 26040, Note_on_c, 0, 80, 0
2, 26040, Note_on_c, 0, 78, 79
2, 26050, Note_on_c, 0, 78, 0
2, 26064, Note_on_c, 0, 85, 80
2, 26088, Note_on_c, 0, 85, 0
2, 26088, Note_on_c, 0, 76, 79
2, 26098, Note_on_c, 0, 76, 0
2, 26112, Note_on_c, 0, 75, 78
2, 26127, Note_on_c, 0, 75, 0
2, 26128, Note_on_c, 0, 76, 77
2, 26143, Note_on_c, 0, 76, 0
2, 26144, Note_on_c, 0, 78, 77
2, 26159, Note_on_c, 0, 78, 0
2, 26160, Note_on_c, 0, 71, 77
2, 26205, Note_on_c, 0, 71, 0
2, 26304, Note_on_c, 0, 64, 80
2, 26310, Note_on_c, 0, 68, 80
2, 26316, Note_on_c, 0, 71, 80
2, 26322, Note_on_c, 0, 76, 80
2, 26397, Note_on_c, 0, 76, 0
2, 26397, Note_on_c, 0, 71, 0
2, 26397, Note_on_c, 0, 68, 0
2, 26397, Note_on_c, 0, 64, 0
2, 26496, Note_on_c, 0, 71, 80
2, 26519, Note_on_c, 0, 71, 0
2, 26520, Note_on_c, 0, 73, 80
2, 26528, Note_on_c, 0, 73, 0
2, 26528, Note_on_c, 0, 71, 80
2, 26536, Note_on_c, 0, 71, 0
2, 26536, Note_on_c, 0, 69, 80
2, 26544, Note_on_c, 0, 69, 0
2, 26544, Note_on_c, 0, 71, 80
2, 26567, Note_on_c, 0, 71, 0
2, 26568, Note_on_c, 0, 73, 80
2, 26578, Note_on_c, 0, 73, 0
2, 26592, Note_on_c, 0, 71, 80
2, 26637, Note_on_c, 0, 71, 0
2, 26640, Note_on_c, 0, 71, 80
2, 26648, Note_on_c, 0, 71, 0
2, 26648, Note_on_c, 0, 69, 80
2, 26656, Note_on_c, 0, 69, 0
2, 26656, Note_on_c, 0, 71, 80
2, 26664, Note_on_c, 0, 71, 0
2, 26664, Note_on_c, 0, 69, 80
2, 26672, Note_on_c, 0, 69, 0
2, 26672, Note_on_c, 0, 68, 80
2, 26680, Note_on_c, 0, 68, 0
2, 26680, Note_on_c, 0, 69, 80
2, 26688, Note_on_c, 0, 69, 0
2, 26688, Note_on_c, 0, 68, 80
2, 26733, Note_on_c, 0, 68, 0
2, 26736, Note_on_c, 0, 64, 80
2, 26736, Note_on_c, 0, 59, 80
2, 26781, Note_on_c, 0, 64, 0
2, 26781, Note_on_c, 0, 59, 0
2, 26784, Note_on_c, 0, 66, 80
2, 26784, Note_on_c, 0, 61, 80
2, 26829, Note_on_c, 0, 66, 0
2, 26829, Note_on_c, 0, 61, 0
2, 26832, Note_on_c, 0, 63, 80
2, 26877, Note_on_c, 0, 63, 0
2, 26880, Note_on_c, 0, 64, 80
2, 26895, Note_on_c, 0, 64, 0
2, 26896, Note_on_c, 0, 66, 80
2, 26911, Note_on_c, 0, 66, 0
2, 26912, Note_on_c, 0, 68, 80
2, 26927, Note_on_c, 0, 68, 0
2, 26928, Note_on_c, 0, 59, 80
2, 26973, Note_on_c, 0, 59, 0
2, 26988, Note_on_c, 0, 64, 91
2, 27000, Note_on_c, 0, 64, 0
2, 27000, Note_on_c, 0, 66, 75
2, 27012, Note_on_c, 0, 66, 0
2, 27012, Note_on_c, 0, 68, 76
2, 27024, Note_on_c, 0, 68, 0
2, 27024, Note_on_c, 0, 69, 77
2, 27036, Note_on_c, 0, 69, 0
2, 27036, Note_on_c, 0, 71, 77
2, 27048, Note_on_c, 0, 71, 0
2, 27048, Note_on_c, 0, 73, 78
2, 27060, Note_on_c, 0, 73, 0
2, 27060, Note_on_c, 0, 75, 79
2, 27072, Note_on_c, 0, 75, 0
2, 27072, Note_on_c, 0, 76, 96
2, 27144, Note_on_c, 0, 76, 0
2, 27144, Note_on_c, 0, 68, 80
2, 27167, Note_on_c, 0, 68, 0
2, 27168, Note_on_c, 0, 69, 75
2, 27188, Note_on_c, 0, 69, 0
2, 27216, Note_on_c, 0, 71, 75
2, 27236, Note_on_c, 0, 71, 0
2, 27264, Note_on_c, 0, 73, 75
2, 27287, Note_on_c, 0, 73, 0
2, 27288, Note_on_c, 0, 75, 75
2, 27296, Note_on_c, 0, 75, 0
2, 27296, Note_on_c, 0, 73, 75
2, 27304, Note_on_c, 0, 73, 0
2, 27304, Note_on_c, 0, 71, 75
2, 27312, Note_on_c, 0, 71, 0
2, 27312, Note_on_c, 0, 73, 75
2, 27335, Note_on_c, 0, 73, 0
2, 27336, Note_on_c, 0, 76, 75
2, 27346, Note_on_c, 0, 76, 0
2, 27360, Note_on_c, 0, 71, 75
2, 27405, Note_on_c, 0, 71, 0
2, 27408, Note_on_c, 0, 68, 75
2, 27453, Note_on_c, 0, 68, 0
2, 27480, Note_on_c, 0, 81, 70
2, 27525, Note_on_c, 0, 81, 0
2, 27528, Note_on_c, 0, 78, 70
2, 27573, Note_on_c, 0, 78, 0
2, 27576, Note_on_c, 0, 80, 70
2, 27621, Note_on_c, 0, 80, 0
2, 27624, Note_on_c, 0, 76, 70
2, 27647, Note_on_c, 0, 76, 0
2, 27672, Note_on_c, 0, 75, 70
2, 27717, Note_on_c, 0, 75, 0
2, 27720, Note_on_c, 0, 78, 70
2, 27765, Note_on_c, 0, 78, 0
2, 27768, Note_on_c, 0, 76, 70
2, 27813, Note_on_c, 0, 76, 0
2, 27816, Note_on_c, 0, 71, 70
2, 27839, Note_on_c, 0, 71, 0
2, 27864, Note_on_c, 0, 73, 70
2, 27909, Note_on_c, 0, 73, 0
2, 27912, Note_on_c, 0, 75, 70
2, 27957, Note_on_c, 0, 75, 0
2, 27960, Note_on_c, 0, 76, 70
2, 28005, Note_on_c, 0, 76, 0
2, 28008, Note_on_c, 0, 71, 70
2, 28031, Note_on_c, 0, 71, 0
2, 28056, Note_on_c, 0, 69, 70
2, 28101, Note_on_c, 0, 69, 0
2, 28104, Note_on_c, 0, 66, 70
2, 28149, Note_on_c, 0, 66, 0
2, 28152, Note_on_c, 0, 68, 70
2, 28197, Note_on_c, 0, 68, 0
2, 28200, Note_on_c, 0, 64, 70
2, 28223, Note_on_c, 0, 64, 0
2, 28248, Note_on_c, 0, 66, 75
2, 28271, Note_on_c, 0, 66, 0
2, 28272, Note_on_c, 0, 65, 75
2, 28295, Note_on_c, 0, 65, 0
2, 28296, Note_on_c, 0, 66, 75
2, 28319, Note_on_c, 0, 66, 0
2, 28320, Note_on_c, 0, 73, 75
2, 28335, Note_on_c, 0, 73, 0
2, 28336, Note_on_c, 0, 71, 75
2, 28351, Note_on_c, 0, 71, 0
2, 28352, Note_on_c, 0, 69, 76
2, 28367, Note_on_c, 0, 69, 0
2, 28368, Note_on_c, 0, 68, 77
2, 28383, Note_on_c, 0, 68, 0
2, 28384, Note_on_c, 0, 66, 78
2, 28399, Note_on_c, 0, 66, 0
2, 28400, Note_on_c, 0, 64, 78
2, 28415, Note_on_c, 0, 64, 0
2, 28416, Note_on_c, 0, 63, 79
2, 28431, Note_on_c, 0, 63, 0
2, 28432, Note_on_c, 0, 64, 79
2, 28447, Note_on_c, 0, 64, 0
2, 28448, Note_on_c, 0, 66, 79
2, 28463, Note_on_c, 0, 66, 0
2, 28464, Note_on_c, 0, 59, 78
2, 28509, Note_on_c, 0, 59, 0
2, 28608, Note_on_c, 0, 71, 75
2, 28632, Note_on_c, 0, 71, 0
2, 28632, Note_on_c, 0, 76, 75
2, 28655, Note_on_c, 0, 76, 0
2, 28656, Note_on_c, 0, 76, 75
2, 28666, Note_on_c, 0, 76, 0
2, 28680, Note_on_c, 0, 76, 75
2, 28690, Note_on_c, 0, 76, 0
2, 28704, Note_on_c, 0, 76, 75
2, 28714, Note_on_c, 0, 76, 0
2, 28728, Note_on_c, 0, 74, 75
2, 28751, Note_on_c, 0, 74, 0
2, 28752, Note_on_c, 0, 73, 75
2, 28775, Note_on_c, 0, 73, 0
2, 28776, Note_on_c, 0, 71, 75
2, 28799, Note_on_c, 0, 71, 0
2, 28800, Note_on_c, 0, 73, 75
2, 28824, Note_on_c, 0, 73, 0
2, 28824, Note_on_c, 0, 76, 75
2, 28834, Note_on_c, 0, 76, 0
2, 28848, Note_on_c, 0, 68, 75
2, 28872, Note_on_c, 0, 68, 0
2, 28872, Note_on_c, 0, 71, 75
2, 28882, Note_on_c, 0, 71, 0
2, 28896, Note_on_c, 0, 69, 75
2, 28920, Note_on_c, 0, 69, 0
2, 28920, Note_on_c, 0, 73, 75
2, 28930, Note_on_c, 0, 73, 0
2, 28944, Note_on_c, 0, 71, 75
2, 28968, Note_on_c, 0, 71, 0
2, 28968, Note_on_c, 0, 74, 75
2, 28978, Note_on_c, 0, 74, 0
2, 28992, Note_on_c, 0, 73, 75
2, 29016, Note_on_c, 0, 73, 0
2, 29016, Note_on_c, 0, 76, 75
2, 29026, Note_on_c, 0, 76, 0
2, 29040, Note_on_c, 0, 68, 75
2, 29064, Note_on_c, 0, 68, 0
2, 29064, Note_on_c, 0, 71, 75
2, 29074, Note_on_c, 0, 71, 0
2, 29088, Note_on_c, 0, 69, 75
2, 29112, Note_on_c, 0, 69, 0
2, 29112, Note_on_c, 0, 73, 75
2, 29122, Note_on_c, 0, 73, 0
2, 29136, Note_on_c, 0, 71, 75
2, 29160, Note_on_c, 0, 71, 0
2, 29160, Note_on_c, 0, 74, 75
2, 29170, Note_on_c, 0, 74, 0
2, 29184, Note_on_c, 0, 73, 75
2, 29208, Note_on_c, 0, 73, 0
2, 29208, Note_on_c, 0, 78, 76
2, 29231, Note_on_c, 0, 78, 0
2, 29232, Note_on_c, 0, 78, 77
2, 29242, Note_on_c, 0, 78, 0
2, 29256, Note_on_c, 0, 78, 78
2, 29266, Note_on_c, 0, 78, 0
2, 29280, Note_on_c, 0, 78, 80
2, 29290, Note_on_c, 0, 78, 0
2, 29304, Note_on_c, 0, 76, 80
2, 29327, Note_on_c, 0, 76, 0
2, 29328, Note_on_c, 0, 75, 80
2, 29351, Note_on_c, 0, 75, 0
2, 29352, Note_on_c, 0, 73, 80
2, 29375, Note_on_c, 0, 73, 0
2, 29376, Note_on_c, 0, 75, 80
2, 29400, Note_on_c, 0, 75, 0
2, 29400, Note_on_c, 0, 78, 80
2, 29410, Note_on_c, 0, 78, 0
2, 29424, Note_on_c, 0, 70, 80
2, 29448, Note_on_c, 0, 70, 0
2, 29448, Note_on_c, 0, 73, 80
2, 29458, Note_on_c, 0, 73, 0
2, 29472, Note_on_c, 0, 71, 80
2, 29496, Note_on_c, 0, 71, 0
2, 29496, Note_on_c, 0, 75, 80
2, 29506, Note_on_c, 0, 75, 0
2, 29520, Note_on_c, 0, 73, 80
2, 29544, Note_on_c, 0, 73, 0
2, 29544, Note_on_c, 0, 76, 80
2, 29554, Note_on_c, 0, 76, 0
2, 29568, Note_on_c, 0, 75, 80
2, 29592, Note_on_c, 0, 75, 0
2, 29592, Note_on_c, 0, 78, 80
2, 29602, Note_on_c, 0, 78, 0
2, 29616, Note_on_c, 0, 70, 80
2, 29640, Note_on_c, 0, 70, 0
2, 29640, Note_on_c, 0, 73, 80
2, 29650, Note_on_c, 0, 73, 0
2, 29664, Note_on_c, 0, 71, 80
2, 29688, Note_on_c, 0, 71, 0
2, 29688, Note_on_c, 0, 75, 80
2, 29698, Note_on_c, 0, 75, 0
2, 29712, Note_on_c, 0, 73, 80
2, 29736, Note_on_c, 0, 73, 0
2, 29736, Note_on_c, 0, 76, 80
2, 29746, Note_on_c, 0, 76, 0
2, 29760, Note_on_c, 0, 75, 80
2, 29784, Note_on_c, 0, 75, 0
2, 29784, Note_on_c, 0, 78, 80
2, 29794, Note_on_c, 0, 78, 0
2, 29808, Note_on_c, 0, 76, 81
2, 29832, Note_on_c, 0, 76, 0
2, 29832, Note_on_c, 0, 80, 82
2, 29842, Note_on_c, 0, 80, 0
2, 29856, Note_on_c, 0, 78, 83
2, 29880, Note_on_c, 0, 78, 0
2, 29880, Note_on_c, 0, 81, 83
2, 29890, Note_on_c, 0, 81, 0
2, 29904, Note_on_c, 0, 80, 84
2, 29928, Note_on_c, 0, 80, 0
2, 29928, Note_on_c, 0, 83, 85
2, 29938, Note_on_c, 0, 83, 0
2, 29952, Note_on_c, 0, 83, 86
2, 29976, Note_on_c, 0, 83, 0
2, 29976, Note_on_c, 0, 81, 85
2, 29986, Note_on_c, 0, 81, 0
2, 30000, Note_on_c, 0, 81, 84
2, 30024, Note_on_c, 0, 81, 0
2, 30024, Note_on_c, 0, 80, 84
2, 30034, Note_on_c, 0, 80, 0
2, 30048, Note_on_c, 0, 80, 83
2, 30072, Note_on_c, 0, 80, 0
2, 30072, Note_on_c, 0, 78, 82
2, 30082, Note_on_c, 0, 78, 0
2, 30096, Note_on_c, 0, 78, 82
2, 30120, Note_on_c, 0, 78, 0
2, 30120, Note_on_c, 0, 76, 81
2, 30130, Note_on_c, 0, 76, 0
2, 30144, Note_on_c, 0, 76, 80
2, 30168, Note_on_c, 0, 76, 0
2, 30168, Note_on_c, 0, 75, 80
2, 30178, Note_on_c, 0, 75, 0
2, 30192, Note_on_c, 0, 75, 79
2, 30216, Note_on_c, 0, 75, 0
2, 30216, Note_on_c, 0, 73, 78
2, 30226, Note_on_c, 0, 73, 0
2, 30240, Note_on_c, 0, 73, 78
2, 30264, Note_on_c, 0, 73, 0
2, 30264, Note_on_c, 0, 71, 77
2, 30274, Note_on_c, 0, 71, 0
2, 30288, Note_on_c, 0, 71, 76
2, 30312, Note_on_c, 0, 71, 0
2, 30312, Note_on_c, 0, 69, 76
2, 30322, Note_on_c, 0, 69, 0
2, 30336, Note_on_c, 0, 68, 75
2, 30351, Note_on_c, 0, 68, 0
2, 30352, Note_on_c, 0, 69, 75
2, 30367, Note_on_c, 0, 69, 0
2, 30368, Note_on_c, 0, 71, 74
2, 30383, Note_on_c, 0, 71, 0
2, 30384, Note_on_c, 0, 64, 74
2, 30399, Note_on_c, 0, 64, 0
2, 30400, Note_on_c, 0, 69, 74
2, 30415, Note_on_c, 0, 69, 0
2, 30416, Note_on_c, 0, 66, 73
2, 30431, Note_on_c, 0, 66, 0
2, 30432, Note_on_c, 0, 68, 73
2, 30442, Note_on_c, 0, 68, 0
2, 30442, Note_on_c, 0, 66, 73
2, 30452, Note_on_c, 0, 66, 0
2, 30452, Note_on_c, 0, 68, 73
2, 30462, Note_on_c, 0, 68, 0
2, 30462, Note_on_c, 0, 66, 72
2, 30472, Note_on_c, 0, 66, 0
2, 30472, Note_on_c, 0, 68, 72
2, 30482, Note_on_c, 0, 68, 0
2, 30482, Note_on_c, 0, 66, 72
2, 30492, Note_on_c, 0, 66, 0
2, 30492, Note_on_c, 0, 68, 72
2, 30501, Note_on_c, 0, 68, 0
2, 30501, Note_on_c, 0, 66, 72
2, 30510, Note_on_c, 0, 66, 0
2, 30510, Note_on_c, 0, 64, 72
2, 30519, Note_on_c, 0, 64, 0
2, 30519, Note_on_c, 0, 66, 71
2, 30528, Note_on_c, 0, 66, 0
2, 30528, Note_on_c, 0, 64, 70
2, 30606, Note_on_c, 0, 64, 0
2, 30612, Note_on_c, 0, 71, 75
2, 30617, Note_on_c, 0, 71, 0
2, 30624, Note_on_c, 0, 64, 91
2, 30672, Note_on_c, 0, 64, 0
2, 30672, Note_on_c, 0, 66, 75
2, 30717, Note_on_c, 0, 66, 0
2, 30720, Note_on_c, 0, 68, 75
2, 30768, Note_on_c, 0, 68, 0
2, 30768, Note_on_c, 0, 66, 75
2, 30802, Note_on_c, 0, 66, 0
2, 30804, Note_on_c, 0, 71, 75
2, 30809, Note_on_c, 0, 71, 0
2, 30816, Note_on_c, 0, 66, 91
2, 30864, Note_on_c, 0, 66, 0
2, 30864, Note_on_c, 0, 68, 75
2, 30909, Note_on_c, 0, 68, 0
2, 30912, Note_on_c, 0, 69, 75
2, 30960, Note_on_c, 0, 69, 0
2, 30960, Note_on_c, 0, 68, 75
2, 30994, Note_on_c, 0, 68, 0
2, 30996, Note_on_c, 0, 71, 75
2, 31001, Note_on_c, 0, 71, 0
2, 31008, Note_on_c, 0, 68, 91
2, 31056, Note_on_c, 0, 68, 0
2, 31056, Note_on_c, 0, 69, 75
2, 31101, Note_on_c, 0, 69, 0
2, 31104, Note_on_c, 0, 71, 75
2, 31104, Note_on_c, 0, 68, 75
2, 31149, Note_on_c, 0, 71, 0
2, 31149, Note_on_c, 0, 68, 0
2, 31152, Note_on_c, 0, 76, 91
2, 31152, Note_on_c, 0, 71, 91
2, 31152, Note_on_c, 0, 68, 91
2, 31200, Note_on_c, 0, 76, 0
2, 31200, Note_on_c, 0, 71, 0
2, 31200, Note_on_c, 0, 68, 0
2, 31248, Note_on_c, 0, 71, 75
2, 31248, Note_on_c, 0, 68, 75
2, 31248, Note_on_c, 0, 64, 75
2, 31293, Note_on_c, 0, 71, 0
2, 31293, Note_on_c, 0, 68, 0
2, 31293, Note_on_c, 0, 64, 0
2, 31320, Note_on_c, 0, 73, 70
2, 31365, Note_on_c, 0, 73, 0
2, 31368, Note_on_c, 0, 69, 70
2, 31413, Note_on_c, 0, 69, 0
2, 31416, Note_on_c, 0, 68, 70
2, 31461, Note_on_c, 0, 68, 0
2, 31464, Note_on_c, 0, 66, 70
2, 31487, Note_on_c, 0, 66, 0
2, 31488, Note_on_c, 0, 68, 75
2, 31533, Note_on_c, 0, 68, 0
2, 31536, Note_on_c, 0, 76, 91
2, 31536, Note_on_c, 0, 71, 91
2, 31536, Note_on_c, 0, 68, 91
2, 31584, Note_on_c, 0, 76, 0
2, 31584, Note_on_c, 0, 71, 0
2, 31584, Note_on_c, 0, 68, 0
2, 31632, Note_on_c, 0, 83, 75
2, 31632, Note_on_c, 0, 80, 75
2, 31632, Note_on_c, 0, 76, 75
2, 31677, Note_on_c, 0, 83, 0
2, 31677, Note_on_c, 0, 80, 0
2, 31677, Note_on_c, 0, 76, 0
2, 31680, Note_on_c, 0, 81, 75
2, 31695, Note_on_c, 0, 81, 0
2, 31696, Note_on_c, 0, 80, 75
2, 31711, Note_on_c, 0, 80, 0
2, 31712, Note_on_c, 0, 78, 75
2, 31727, Note_on_c, 0, 78, 0
2, 31728, Note_on_c, 0, 80, 75
2, 31743, Note_on_c, 0, 80, 0
2, 31744, Note_on_c, 0, 78, 75
2, 31759, Note_on_c, 0, 78, 0
2, 31760, Note_on_c, 0, 76, 75
2, 31775, Note_on_c, 0, 76, 0
2, 31776, Note_on_c, 0, 80, 75
2, 31786, Note_on_c, 0, 80, 0
2, 31786, Note_on_c, 0, 78, 75
2, 31796, Note_on_c, 0, 78, 0
2, 31796, Note_on_c, 0, 80, 75
2, 31806, Note_on_c, 0, 80, 0
2, 31806, Note_on_c, 0, 78, 75
2, 31816, Note_on_c, 0, 78, 0
2, 31816, Note_on_c, 0, 80, 75
2, 31826, Note_on_c, 0, 80, 0
2, 31826, Note_on_c, 0, 78, 75
2, 31836, Note_on_c, 0, 78, 0
2, 31836, Note_on_c, 0, 80, 75
2, 31845, Note_on_c, 0, 80, 0
2, 31845, Note_on_c, 0, 78, 75
2, 31854, Note_on_c, 0, 78, 0
2, 31854, Note_on_c, 0, 76, 75
2, 31863, Note_on_c, 0, 76, 0
2, 31863, Note_on_c, 0, 78, 75
2, 31872, Note_on_c, 0, 78, 0
2, 31872, Note_on_c, 0, 80, 75
2, 31887, Note_on_c, 0, 80, 0
2, 31888, Note_on_c, 0, 78, 75
2, 31903, Note_on_c, 0, 78, 0
2, 31904, Note_on_c, 0, 76, 75
2, 31919, Note_on_c, 0, 76, 0
2, 31920, Note_on_c, 0, 75, 75
2, 31935, Note_on_c, 0, 75, 0
2, 31936, Note_on_c, 0, 73, 75
2, 31951, Note_on_c, 0, 73, 0
2, 31952, Note_on_c, 0, 71, 75
2, 31967, Note_on_c, 0, 71, 0
2, 31968, Note_on_c, 0, 80, 75
2, 31978, Note_on_c, 0, 80, 0
2, 31978, Note_on_c, 0, 78, 75
2, 31988, Note_on_c, 0, 78, 0
2, 31988, Note_on_c, 0, 80, 75
2, 31998, Note_on_c, 0, 80, 0
2, 31998, Note_on_c, 0, 78, 75
2, 32008, Note_on_c, 0, 78, 0
2, 32008, Note_on_c, 0, 80, 75
2, 32018, Note_on_c, 0, 80, 0
2, 32018, Note_on_c, 0, 78, 75
2, 32028, Note_on_c, 0, 78, 0
2, 32028, Note_on_c, 0, 80, 75
2, 32037, Note_on_c, 0, 80, 0
2, 32037, Note_on_c, 0, 78, 75
2, 32046, Note_on_c, 0, 78, 0
2, 32046, Note_on_c, 0, 76, 75
2, 32055, Note_on_c, 0, 76, 0
2, 32055, Note_on_c, 0, 78, 75
2, 32064, Note_on_c, 0, 78, 0
2, 32064, Note_on_c, 0, 76, 75
2, 32153, Note_on_c, 0, 76, 0
2, 32256, End_track
3, 0, Start_track
3, 0, Program_c, 0, 0
3, 0, Control_c, 0, 7, 127
3, 0, Control_c, 0, 10, 64
3, 0, Note_on_c, 0, 64, 96
3, 72, Note_on_c, 0, 64, 0
3, 72, Note_on_c, 0, 64, 75
3, 82, Note_on_c, 0, 64, 0
3, 96, Note_on_c, 0, 68, 75
3, 116, Note_on_c, 0, 68, 0
3, 144, Note_on_c, 0, 69, 75
3, 164, Note_on_c, 0, 69, 0
3, 4416, Note_on_c, 0, 71, 75
3, 4464, Note_on_c, 0, 71, 0
3, 4464, Note_on_c, 0, 70, 75
3, 4509, Note_on_c, 0, 70, 0
3, 4512, Note_on_c, 0, 70, 75
3, 4560, Note_on_c, 0, 70, 0
3, 4560, Note_on_c, 0, 71, 75
3, 4605, Note_on_c, 0, 71, 0
3, 4608, Note_on_c, 0, 73, 75
3, 4656, Note_on_c, 0, 73, 0
3, 4656, Note_on_c, 0, 71, 75
3, 4701, Note_on_c, 0, 71, 0
3, 4704, Note_on_c, 0, 71, 75
3, 4752, Note_on_c, 0, 71, 0
3, 4752, Note_on_c, 0, 73, 75
3, 4797, Note_on_c, 0, 73, 0
3, 5760, Note_on_c, 0, 64, 96
3, 5832, Note_on_c, 0, 64, 0
3, 5832, Note_on_c, 0, 64, 75
3, 5842, Note_on_c, 0, 64, 0
3, 5856, Note_on_c, 0, 68, 75
3, 5876, Note_on_c, 0, 68, 0
3, 5904, Note_on_c, 0, 69, 75
3, 5924, Note_on_c, 0, 69, 0
3, 10176, Note_on_c, 0, 71, 75
3, 10224, Note_on_c, 0, 71, 0
3, 10224, Note_on_c, 0, 70, 75
3, 10269, Note_on_c, 0, 70, 0
3, 10272, Note_on_c, 0, 70, 75
3, 10320, Note_on_c, 0, 70, 0
3, 10320, Note_on_c, 0, 71, 75
3, 10365, Note_on_c, 0, 71, 0
3, 10368, Note_on_c, 0, 73, 75
3, 10416, Note_on_c, 0, 73, 0
3, 10416, Note_on_c, 0, 71, 75
3, 10461, Note_on_c, 0, 71, 0
3, 10464, Note_on_c, 0, 71, 75
3, 10512, Note_on_c, 0, 71, 0
3, 10512, Note_on_c, 0, 73, 75
3, 10557, Note_on_c, 0, 73, 0
3, 12672, Note_on_c, 0, 64, 96
3, 12744, Note_on_c, 0, 64, 0
3, 12744, Note_on_c, 0, 64, 80
3, 12754, Note_on_c, 0, 64, 0
3, 12768, Note_on_c, 0, 68, 75
3, 12788, Note_on_c, 0, 68, 0
3, 12816, Note_on_c, 0, 69, 75
3, 12836, Note_on_c, 0, 69, 0
3, 15936, Note_on_c, 0, 64, 96
3, 16008, Note_on_c, 0, 64, 0
3, 16008, Note_on_c, 0, 64, 80
3, 16018, Note_on_c, 0, 64, 0
3, 16032, Note_on_c, 0, 68, 75
3, 16052, Note_on_c, 0, 68, 0
3, 16080, Note_on_c, 0, 69, 75
3, 16100, Note_on_c, 0, 69, 0
3, 20352, Note_on_c, 0, 64, 75
3, 20400, Note_on_c, 0, 64, 0
3, 20400, Note_on_c, 0, 63, 75
3, 20445, Note_on_c, 0, 63, 0
3, 20448, Note_on_c, 0, 63, 75
3, 20496, Note_on_c, 0, 63, 0
3, 20496, Note_on_c, 0, 64, 75
3, 20541, Note_on_c, 0, 64, 0
3, 20544, Note_on_c, 0, 66, 75
3, 20592, Note_on_c, 0, 66, 0
3, 20592, Note_on_c, 0, 64, 75
3, 20637, Note_on_c, 0, 64, 0
3, 20640, Note_on_c, 0, 64, 75
3, 20688, Note_on_c, 0, 64, 0
3, 20688, Note_on_c, 0, 66, 75
3, 20733, Note_on_c, 0, 66, 0
3, 23040, Note_on_c, 0, 64, 96
3, 23112, Note_on_c, 0, 64, 0
3, 23112, Note_on_c, 0, 64, 80
3, 23122, Note_on_c, 0, 64, 0
3, 23136, Note_on_c, 0, 68, 75
3, 23156, Note_on_c, 0, 68, 0
3, 23184, Note_on_c, 0, 69, 75
3, 23204, Note_on_c, 0, 69, 0
3, 26304, Note_on_c, 0, 64, 96
3, 26376, Note_on_c, 0, 64, 0
3, 26376, Note_on_c, 0, 64, 80
3, 26386, Note_on_c, 0, 64, 0
3, 26400, Note_on_c, 0, 68, 75
3, 26420, Note_on_c, 0, 68, 0
3, 26448, Note_on_c, 0, 69, 75
3, 26468, Note_on_c, 0, 69, 0
3, 30720, Note_on_c, 0, 64, 75
3, 30768, Note_on_c, 0, 64, 0
3, 30768, Note_on_c, 0, 63, 75
3, 30813, Note_on_c, 0, 63, 0
3, 30816, Note_on_c, 0, 63, 75
3, 30864, Note_on_c, 0, 63, 0
3, 30864, Note_on_c, 0, 64, 75
3, 30909, Note_on_c, 0, 64, 0
3, 30912, Note_on_c, 0, 66, 75
3, 30960, Note_on_c, 0, 66, 0
3, 30960, Note_on_c, 0, 64, 75
3, 31005, Note_on_c, 0, 64, 0
3, 31008, Note_on_c, 0, 64, 75
3, 31056, Note_on_c, 0, 64, 0
3, 31056, Note_on_c, 0, 66, 75
3, 31101, Note_on_c, 0, 66, 0
3, 32256, End_track
4, 0, Start_track
4, 0, Program_c, 1, 0
4, 0, Control_c, 1, 7, 127
4, 0, Control_c, 1, 10, 64
4, 0, Note_on_c, 1, 52, 80
4, 0, Note_on_c, 1, 40, 80
4, 89, Note_on_c, 1, 52, 0
4, 89, Note_on_c, 1, 40, 0
4, 96, Note_on_c, 1, 64, 75
4, 141, Note_on_c, 1, 64, 0
4, 144, Note_on_c, 1, 66, 75
4, 189, Note_on_c, 1, 66, 0
4, 192, Note_on_c, 1, 68, 75
4, 259, Note_on_c, 1, 68, 0
4, 264, Note_on_c, 1, 69, 75
4, 287, Note_on_c, 1, 69, 0
4, 288, Note_on_c, 1, 68, 75
4, 333, Note_on_c, 1, 68, 0
4, 336, Note_on_c, 1, 63, 75
4, 381, Note_on_c, 1, 63, 0
4, 384, Note_on_c, 1, 64, 75
4, 429, Note_on_c, 1, 64, 0
4, 432, Note_on_c, 1, 56, 75
4, 432, Note_on_c, 1, 44, 75
4, 477, Note_on_c, 1, 56, 0
4, 477, Note_on_c, 1, 44, 0
4, 480, Note_on_c, 1, 57, 75
4, 480, Note_on_c, 1, 45, 75
4, 525, Note_on_c, 1, 57, 0
4, 525, Note_on_c, 1, 45, 0
4, 528, Note_on_c, 1, 54, 75
4, 528, Note_on_c, 1, 47, 75
4, 573, Note_on_c, 1, 54, 0
4, 573, Note_on_c, 1, 47, 0
4, 576, Note_on_c, 1, 52, 75
4, 576, Note_on_c, 1, 40, 75
4, 665, Note_on_c, 1, 52, 0
4, 665, Note_on_c, 1, 40, 0
4, 768, Note_on_c, 1, 59, 96
4, 768, Note_on_c, 1, 56, 96
4, 768, Note_on_c, 1, 52, 96
4, 840, Note_on_c, 1, 59, 0
4, 840, Note_on_c, 1, 56, 0
4, 840, Note_on_c, 1, 52, 0
4, 840, Note_on_c, 1, 64, 75
4, 863, Note_on_c, 1, 64, 0
4, 864, Note_on_c, 1, 66, 75
4, 909, Note_on_c, 1, 66, 0
4, 912, Note_on_c, 1, 68, 75
4, 957, Note_on_c, 1, 68, 0
4, 960, Note_on_c, 1, 69, 75
4, 1005, Note_on_c, 1, 69, 0
4, 1008, Note_on_c, 1, 57, 75
4, 1053, Note_on_c, 1, 57, 0
4, 1056, Note_on_c, 1, 68, 75
4, 1101, Note_on_c, 1, 68, 0
4, 1104, Note_on_c, 1, 64, 75
4, 1149, Note_on_c, 1, 64, 0
4, 1152, Note_on_c, 1, 51, 70
4, 1197, Note_on_c, 1, 51, 0
4, 1200, Note_on_c, 1, 59, 70
4, 1245, Note_on_c, 1, 59, 0
4, 1248, Note_on_c, 1, 52, 70
4, 1293, Note_on_c, 1, 52, 0
4, 1296, Note_on_c, 1, 59, 70
4, 1341, Note_on_c, 1, 59, 0
4, 1344, Note_on_c, 1, 51, 70
4, 1389, Note_on_c, 1, 51, 0
4, 1392, Note_on_c, 1, 59, 70
4, 1437, Note_on_c, 1, 59, 0
4, 1440, Note_on_c, 1, 52, 70
4, 1485, Note_on_c, 1, 52, 0
4, 1488, Note_on_c, 1, 59, 70
4, 1533, Note_on_c, 1, 59, 0
4, 1536, Note_on_c, 1, 51, 70
4, 1581, Note_on_c, 1, 51, 0
4, 1584, Note_on_c, 1, 59, 70
4, 1629, Note_on_c, 1, 59, 0
4, 1632, Note_on_c, 1, 52, 70
4, 1677, Note_on_c, 1, 52, 0
4, 1680, Note_on_c, 1, 59, 70
4, 1725, Note_on_c, 1, 59, 0
4, 1728, Note_on_c, 1, 51, 70
4, 1773, Note_on_c, 1, 51, 0
4, 1776, Note_on_c, 1, 59, 70
4, 1821, Note_on_c, 1, 59, 0
4, 1824, Note_on_c, 1, 52, 70
4, 1869, Note_on_c, 1, 52, 0
4, 1872, Note_on_c, 1, 59, 70
4, 1917, Note_on_c, 1, 59, 0
4, 1920, Note_on_c, 1, 57, 75
4, 2009, Note_on_c, 1, 57, 0
4, 2016, Note_on_c, 1, 54, 75
4, 2061, Note_on_c, 1, 54, 0
4, 2064, Note_on_c, 1, 58, 77
4, 2109, Note_on_c, 1, 58, 0
4, 2112, Note_on_c, 1, 59, 80
4, 2157, Note_on_c, 1, 59, 0
4, 2160, Note_on_c, 1, 47, 77
4, 2205, Note_on_c, 1, 47, 0
4, 2208, Note_on_c, 1, 51, 75
4, 2232, Note_on_c, 1, 51, 0
4, 2232, Note_on_c, 1, 47, 75
4, 2242, Note_on_c, 1, 47, 0
4, 2256, Note_on_c, 1, 54, 75
4, 2280, Note_on_c, 1, 54, 0
4, 2280, Note_on_c, 1, 52, 75
4, 2290, Note_on_c, 1, 52, 0
4, 2424, Note_on_c, 1, 59, 75
4, 2434, Note_on_c, 1, 59, 0
4, 2448, Note_on_c, 1, 59, 75
4, 2458, Note_on_c, 1, 59, 0
4, 2472, Note_on_c, 1, 59, 75
4, 2482, Note_on_c, 1, 59, 0
4, 2496, Note_on_c, 1, 59, 75
4, 2673, Note_on_c, 1, 59, 0
4, 2688, Note_on_c, 1, 59, 75
4, 2865, Note_on_c, 1, 59, 0
4, 3000, Note_on_c, 1, 61, 80
4, 3010, Note_on_c, 1, 61, 0
4, 3024, Note_on_c, 1, 61, 80
4, 3034, Note_on_c, 1, 61, 0
4, 3048, Note_on_c, 1, 61, 80
4, 3058, Note_on_c, 1, 61, 0
4, 3072, Note_on_c, 1, 61, 80
4, 3249, Note_on_c, 1, 61, 0
4, 3264, Note_on_c, 1, 61, 80
4, 3441, Note_on_c, 1, 61, 0
4, 3456, Note_on_c, 1, 54, 80
4, 3501, Note_on_c, 1, 54, 0
4, 3504, Note_on_c, 1, 56, 81
4, 3549, Note_on_c, 1, 56, 0
4, 3552, Note_on_c, 1, 58, 83
4, 3597, Note_on_c, 1, 58, 0
4, 3600, Note_on_c, 1, 59, 84
4, 3645, Note_on_c, 1, 59, 0
4, 3648, Note_on_c, 1, 61, 86
4, 3693, Note_on_c, 1, 61, 0
4, 3696, Note_on_c, 1, 59, 84
4, 3741, Note_on_c, 1, 59, 0
4, 3744, Note_on_c, 1, 58, 83
4, 3789, Note_on_c, 1, 58, 0
4, 3792, Note_on_c, 1, 56, 82
4, 3837, Note_on_c, 1, 56, 0
4, 3840, Note_on_c, 1, 54, 81
4, 3885, Note_on_c, 1, 54, 0
4, 3888, Note_on_c, 1, 52, 79
4, 3933, Note_on_c, 1, 52, 0
4, 3936, Note_on_c, 1, 51, 78
4, 3981, Note_on_c, 1, 51, 0
4, 3984, Note_on_c, 1, 49, 77
4, 4029, Note_on_c, 1, 49, 0
4, 4032, Note_on_c, 1, 47, 76
4, 4121, Note_on_c, 1, 47, 0
4, 4128, Note_on_c, 1, 54, 73
4, 4173, Note_on_c, 1, 54, 0
4, 4176, Note_on_c, 1, 42, 72
4, 4221, Note_on_c, 1, 42, 0
4, 4224, Note_on_c, 1, 47, 71
4, 4269, Note_on_c, 1, 47, 0
4, 4272, Note_on_c, 1, 35, 70
4, 4317, Note_on_c, 1, 35, 0
4, 4416, Note_on_c, 1, 54, 75
4, 4416, Note_on_c, 1, 42, 75
4, 4505, Note_on_c, 1, 54, 0
4, 4505, Note_on_c, 1, 42, 0
4, 4608, Note_on_c, 1, 54, 75
4, 4608, Note_on_c, 1, 42, 75
4, 4653, Note_on_c, 1, 54, 0
4, 4653, Note_on_c, 1, 42, 0
4, 4656, Note_on_c, 1, 59, 75
4, 4656, Note_on_c, 1, 47, 75
4, 4701, Note_on_c, 1, 59, 0
4, 4701, Note_on_c, 1, 47, 0
4, 4800, Note_on_c, 1, 59, 75
4, 4800, Note_on_c, 1, 47, 75
4, 4889, Note_on_c, 1, 59, 0
4, 4889, Note_on_c, 1, 47, 0
4, 4896, Note_on_c, 1, 59, 75
4, 4896, Note_on_c, 1, 51, 75
4, 4985, Note_on_c, 1, 59, 0
4, 4985, Note_on_c, 1, 51, 0
4, 4992, Note_on_c, 1, 52, 70
4, 5037, Note_on_c, 1, 52, 0
4, 5040, Note_on_c, 1, 56, 70
4, 5085, Note_on_c, 1, 56, 0
4, 5088, Note_on_c, 1, 54, 70
4, 5133, Note_on_c, 1, 54, 0
4, 5136, Note_on_c, 1, 58, 70
4, 5181, Note_on_c, 1, 58, 0
4, 5184, Note_on_c, 1, 59, 75
4, 5273, Note_on_c, 1, 59, 0
4, 5280, Note_on_c, 1, 59, 75
4, 5280, Note_on_c, 1, 51, 75
4, 5369, Note_on_c, 1, 59, 0
4, 5369, Note_on_c, 1, 51, 0
4, 5424, Note_on_c, 1, 59, 75
4, 5520, Note_on_c, 1, 59, 0
4, 5520, Note_on_c, 1, 58, 75
4, 5565, Note_on_c, 1, 58, 0
4, 5568, Note_on_c, 1, 59, 75
4, 5613, Note_on_c, 1, 59, 0
4, 5616, Note_on_c, 1, 54, 75
4, 5661, Note_on_c, 1, 54, 0
4, 5664, Note_on_c, 1, 47, 75
4, 5753, Note_on_c, 1, 47, 0
4, 5760, Note_on_c, 1, 52, 80
4, 5760, Note_on_c, 1, 40, 80
4, 5849, Note_on_c, 1, 52, 0
4, 5849, Note_on_c, 1, 40, 0
4, 5856, Note_on_c, 1, 64, 75
4, 5901, Note_on_c, 1, 64, 0
4, 5904, Note_on_c, 1, 66, 75
4, 5949, Note_on_c, 1, 66, 0
4, 5952, Note_on_c, 1, 68, 75
4, 6019, Note_on_c, 1, 68, 0
4, 6024, Note_on_c, 1, 69, 75
4, 6047, Note_on_c, 1, 69, 0
4, 6048, Note_on_c, 1, 68, 75
4, 6093, Note_on_c, 1, 68, 0
4, 6096, Note_on_c, 1, 63, 75
4, 6141, Note_on_c, 1, 63, 0
4, 6144, Note_on_c, 1, 64, 75
4, 6189, Note_on_c, 1, 64, 0
4, 6192, Note_on_c, 1, 56, 75
4, 6192, Note_on_c, 1, 44, 75
4, 6237, Note_on_c, 1, 56, 0
4, 6237, Note_on_c, 1, 44, 0
4, 6240, Note_on_c, 1, 57, 75
4, 6240, Note_on_c, 1, 45, 75
4, 6285, Note_on_c, 1, 57, 0
4, 6285, Note_on_c, 1, 45, 0
4, 6288, Note_on_c, 1, 54, 75
4, 6288, Note_on_c, 1, 47, 75
4, 6333, Note_on_c, 1, 54, 0
4, 6333, Note_on_c, 1, 47, 0
4, 6336, Note_on_c, 1, 52, 75
4, 6336, Note_on_c, 1, 40, 75
4, 6425, Note_on_c, 1, 52, 0
4, 6425, Note_on_c, 1, 40, 0
4, 6528, Note_on_c, 1, 59, 96
4, 6528, Note_on_c, 1, 56, 96
4, 6528, Note_on_c, 1, 52, 96
4, 6600, Note_on_c, 1, 59, 0
4, 6600, Note_on_c, 1, 56, 0
4, 6600, Note_on_c, 1, 52, 0
4, 6600, Note_on_c, 1, 64, 75
4, 6623, Note_on_c, 1, 64, 0
4, 6624, Note_on_c, 1, 66, 75
4, 6669, Note_on_c, 1, 66, 0
4, 6672, Note_on_c, 1, 68, 75
4, 6717, Note_on_c, 1, 68, 0
4, 6720, Note_on_c, 1, 69, 75
4, 6765, Note_on_c, 1, 69, 0
4, 6768, Note_on_c, 1, 57, 75
4, 6813, Note_on_c, 1, 57, 0
4, 6816, Note_on_c, 1, 68, 75
4, 6861, Note_on_c, 1, 68, 0
4, 6864, Note_on_c, 1, 64, 75
4, 6909, Note_on_c, 1, 64, 0
4, 6912, Note_on_c, 1, 51, 70
4, 6957, Note_on_c, 1, 51, 0
4, 6960, Note_on_c, 1, 59, 70
4, 7005, Note_on_c, 1, 59, 0
4, 7008, Note_on_c, 1, 52, 70
4, 7053, Note_on_c, 1, 52, 0
4, 7056, Note_on_c, 1, 59, 70
4, 7101, Note_on_c, 1, 59, 0
4, 7104, Note_on_c, 1, 51, 70
4, 7149, Note_on_c, 1, 51, 0
4, 7152, Note_on_c, 1, 59, 70
4, 7197, Note_on_c, 1, 59, 0
4, 7200, Note_on_c, 1, 52, 70
4, 7245, Note_on_c, 1, 52, 0
4, 7248, Note_on_c, 1, 59, 70
4, 7293, Note_on_c, 1, 59, 0
4, 7296, Note_on_c, 1, 51, 70
4, 7341, Note_on_c, 1, 51, 0
4, 7344, Note_on_c, 1, 59, 70
4, 7389, Note_on_c, 1, 59, 0
4, 7392, Note_on_c, 1, 52, 70
4, 7437, Note_on_c, 1, 52, 0
4, 7440, Note_on_c, 1, 59, 70
4, 7485, Note_on_c, 1, 59, 0
4, 7488, Note_on_c, 1, 51, 70
4, 7533, Note_on_c, 1, 51, 0
4, 7536, Note_on_c, 1, 59, 70
4, 7581, Note_on_c, 1, 59, 0
4, 7584, Note_on_c, 1, 52, 70
4, 7629, Note_on_c, 1, 52, 0
4, 7632, Note_on_c, 1, 59, 70
4, 7677, Note_on_c, 1, 59, 0
4, 7680, Note_on_c, 1, 57, 75
4, 7769, Note_on_c, 1, 57, 0
4, 7776, Note_on_c, 1, 54, 75
4, 7821, Note_on_c, 1, 54, 0
4, 7824, Note_on_c, 1, 58, 77
4, 7869, Note_on_c, 1, 58, 0
4, 7872, Note_on_c, 1, 59, 80
4, 7917, Note_on_c, 1, 59, 0
4, 7920, Note_on_c, 1, 47, 77
4, 7965, Note_on_c, 1, 47, 0
4, 7968, Note_on_c, 1, 51, 75
4, 7992, Note_on_c, 1, 51, 0
4, 7992, Note_on_c, 1, 47, 75
4, 8002, Note_on_c, 1, 47, 0
4, 8016, Note_on_c, 1, 54, 75
4, 8040, Note_on_c, 1, 54, 0
4, 8040, Note_on_c, 1, 52, 75
4, 8050, Note_on_c, 1, 52, 0
4, 8184, Note_on_c, 1, 59, 75
4, 8194, Note_on_c, 1, 59, 0
4, 8208, Note_on_c, 1, 59, 75
4, 8218, Note_on_c, 1, 59, 0
4, 8232, Note_on_c, 1, 59, 75
4, 8242, Note_on_c, 1, 59, 0
4, 8256, Note_on_c, 1, 59, 75
4, 8433, Note_on_c, 1, 59, 0
4, 8448, Note_on_c, 1, 59, 75
4, 8625, Note_on_c, 1, 59, 0
4, 8760, Note_on_c, 1, 61, 80
4, 8770, Note_on_c, 1, 61, 0
4, 8784, Note_on_c, 1, 61, 80
4, 8794, Note_on_c, 1, 61, 0
4, 8808, Note_on_c, 1, 61, 80
4, 8818, Note_on_c, 1, 61, 0
4, 8832, Note_on_c, 1, 61, 80
4, 9009, Note_on_c, 1, 61, 0
4, 9024, Note_on_c, 1, 61, 80
4, 9201, Note_on_c, 1, 61, 0
4, 9216, Note_on_c, 1, 54, 80
4, 9261, Note_on_c, 1, 54, 0
4, 9264, Note_on_c, 1, 56, 81
4, 9309, Note_on_c, 1, 56, 0
4, 9312, Note_on_c, 1, 58, 83
4, 9357, Note_on_c, 1, 58, 0
4, 9360, Note_on_c, 1, 59, 84
4, 9405, Note_on_c, 1, 59, 0
4, 9408, Note_on_c, 1, 61, 86
4, 9453, Note_on_c, 1, 61, 0
4, 9456, Note_on_c, 1, 59, 84
4, 9501, Note_on_c, 1, 59, 0
4, 9504, Note_on_c, 1, 58, 83
4, 9549, Note_on_c, 1, 58, 0
4, 9552, Note_on_c, 1, 56, 82
4, 9597, Note_on_c, 1, 56, 0
4, 9600, Note_on_c, 1, 54, 81
4, 9645, Note_on_c, 1, 54, 0
4, 9648, Note_on_c, 1, 52, 79
4, 9693, Note_on_c, 1, 52, 0
4, 9696, Note_on_c, 1, 51, 78
4, 9741, Note_on_c, 1, 51, 0
4, 9744, Note_on_c, 1, 49, 77
4, 9789, Note_on_c, 1, 49, 0
4, 9792, Note_on_c, 1, 47, 76
4, 9881, Note_on_c, 1, 47, 0
4, 9888, Note_on_c, 1, 54, 73
4, 9933, Note_on_c, 1, 54, 0
4, 9936, Note_on_c, 1, 42, 72
4, 9981, Note_on_c, 1, 42, 0
4, 9984, Note_on_c, 1, 47, 71
4, 10029, Note_on_c, 1, 47, 0
4, 10032, Note_on_c, 1, 35, 70
4, 10077, Note_on_c, 1, 35, 0
4, 10176, Note_on_c, 1, 54, 75
4, 10176, Note_on_c, 1, 42, 75
4, 10265, Note_on_c, 1, 54, 0
4, 10265, Note_on_c, 1, 42, 0
4, 10368, Note_on_c, 1, 54, 75
4, 10368, Note_on_c, 1, 42, 75
4, 10413, Note_on_c, 1, 54, 0
4, 10413, Note_on_c, 1, 42, 0
4, 10416, Note_on_c, 1, 59, 75
4, 10416, Note_on_c, 1, 47, 75
4, 10461, Note_on_c, 1, 59, 0
4, 10461, Note_on_c, 1, 47, 0
4, 10560, Note_on_c, 1, 59, 75
4, 10560, Note_on_c, 1, 47, 75
4, 10649, Note_on_c, 1, 59, 0
4, 10649, Note_on_c, 1, 47, 0
4, 10656, Note_on_c, 1, 59, 75
4, 10656, Note_on_c, 1, 51, 75
4, 10745, Note_on_c, 1, 59, 0
4, 10745, Note_on_c, 1, 51, 0
4, 10752, Note_on_c, 1, 52, 70
4, 10797, Note_on_c, 1, 52, 0
4, 10800, Note_on_c, 1, 56, 70
4, 10845, Note_on_c, 1, 56, 0
4, 10848, Note_on_c, 1, 54, 70
4, 10893, Note_on_c, 1, 54, 0
4, 10896, Note_on_c, 1, 58, 70
4, 10941, Note_on_c, 1, 58, 0
4, 10944, Note_on_c, 1, 59, 75
4, 11033, Note_on_c, 1, 59, 0
4, 11040, Note_on_c, 1, 59, 75
4, 11040, Note_on_c, 1, 51, 75
4, 11129, Note_on_c, 1, 59, 0
4, 11129, Note_on_c, 1, 51, 0
4, 11184, Note_on_c, 1, 59, 75
4, 11280, Note_on_c, 1, 59, 0
4, 11280, Note_on_c, 1, 58, 75
4, 11325, Note_on_c, 1, 58, 0
4, 11328, Note_on_c, 1, 59, 75
4, 11373, Note_on_c, 1, 59, 0
4, 11376, Note_on_c, 1, 54, 75
4, 11421, Note_on_c, 1, 54, 0
4, 11424, Note_on_c, 1, 47, 75
4, 11513, Note_on_c, 1, 47, 0
4, 11520, Note_on_c, 1, 59, 75
4, 11520, Note_on_c, 1, 47, 75
4, 11609, Note_on_c, 1, 59, 0
4, 11609, Note_on_c, 1, 47, 0
4, 11736, Note_on_c, 1, 71, 75
4, 11746, Note_on_c, 1, 71, 0
4, 11760, Note_on_c, 1, 71, 75
4, 11770, Note_on_c, 1, 71, 0
4, 11784, Note_on_c, 1, 71, 75
4, 11794, Note_on_c, 1, 71, 0
4, 11808, Note_on_c, 1, 71, 75
4, 11818, Note_on_c, 1, 71, 0
4, 11832, Note_on_c, 1, 68, 75
4, 11855, Note_on_c, 1, 68, 0
4, 11856, Note_on_c, 1, 69, 75
4, 11879, Note_on_c, 1, 69, 0
4, 11880, Note_on_c, 1, 66, 75
4, 11903, Note_on_c, 1, 66, 0
4, 11904, Note_on_c, 1, 68, 75
4, 11949, Note_on_c, 1, 68, 0
4, 11952, Note_on_c, 1, 63, 75
4, 11997, Note_on_c, 1, 63, 0
4, 12000, Note_on_c, 1, 64, 75
4, 12045, Note_on_c, 1, 64, 0
4, 12048, Note_on_c, 1, 66, 75
4, 12071, Note_on_c, 1, 66, 0
4, 12072, Note_on_c, 1, 69, 75
4, 12095, Note_on_c, 1, 69, 0
4, 12096, Note_on_c, 1, 68, 75
4, 12141, Note_on_c, 1, 68, 0
4, 12144, Note_on_c, 1, 63, 75
4, 12189, Note_on_c, 1, 63, 0
4, 12192, Note_on_c, 1, 64, 75
4, 12237, Note_on_c, 1, 64, 0
4, 12240, Note_on_c, 1, 66, 75
4, 12263, Note_on_c, 1, 66, 0
4, 12264, Note_on_c, 1, 69, 75
4, 12287, Note_on_c, 1, 69, 0
4, 12288, Note_on_c, 1, 68, 75
4, 12333, Note_on_c, 1, 68, 0
4, 12336, Note_on_c, 1, 63, 75
4, 12381, Note_on_c, 1, 63, 0
4, 12384, Note_on_c, 1, 64, 75
4, 12429, Note_on_c, 1, 64, 0
4, 12432, Note_on_c, 1, 68, 75
4, 12477, Note_on_c, 1, 68, 0
4, 12480, Note_on_c, 1, 71, 75
4, 12480, Note_on_c, 1, 59, 75
4, 12569, Note_on_c, 1, 71, 0
4, 12569, Note_on_c, 1, 59, 0
4, 12672, Note_on_c, 1, 52, 80
4, 12672, Note_on_c, 1, 40, 80
4, 12761, Note_on_c, 1, 52, 0
4, 12761, Note_on_c, 1, 40, 0
4, 12768, Note_on_c, 1, 64, 75
4, 12813, Note_on_c, 1, 64, 0
4, 12816, Note_on_c, 1, 66, 75
4, 12861, Note_on_c, 1, 66, 0
4, 12864, Note_on_c, 1, 68, 75
4, 12931, Note_on_c, 1, 68, 0
4, 12936, Note_on_c, 1, 69, 75
4, 12959, Note_on_c, 1, 69, 0
4, 12960, Note_on_c, 1, 68, 75
4, 13005, Note_on_c, 1, 68, 0
4, 13008, Note_on_c, 1, 63, 75
4, 13053, Note_on_c, 1, 63, 0
4, 13056, Note_on_c, 1, 64, 75
4, 13101, Note_on_c, 1, 64, 0
4, 13104, Note_on_c, 1, 56, 75
4, 13104, Note_on_c, 1, 44, 75
4, 13149, Note_on_c, 1, 56, 0
4, 13149, Note_on_c, 1, 44, 0
4, 13152, Note_on_c, 1, 57, 75
4, 13152, Note_on_c, 1, 45, 75
4, 13197, Note_on_c, 1, 57, 0
4, 13197, Note_on_c, 1, 45, 0
4, 13200, Note_on_c, 1, 54, 75
4, 13200, Note_on_c, 1, 47, 75
4, 13245, Note_on_c, 1, 54, 0
4, 13245, Note_on_c, 1, 47, 0
4, 13248, Note_on_c, 1, 52, 75
4, 13248, Note_on_c, 1, 40, 75
4, 13337, Note_on_c, 1, 52, 0
4, 13337, Note_on_c, 1, 40, 0
4, 13440, Note_on_c, 1, 64, 75
4, 13485, Note_on_c, 1, 64, 0
4, 13488, Note_on_c, 1, 68, 75
4, 13533, Note_on_c, 1, 68, 0
4, 13536, Note_on_c, 1, 59, 75
4, 13581, Note_on_c, 1, 59, 0
4, 13584, Note_on_c, 1, 69, 75
4, 13629, Note_on_c, 1, 69, 0
4, 13632, Note_on_c, 1, 68, 75
4, 13677, Note_on_c, 1, 68, 0
4, 13680, Note_on_c, 1, 64, 74
4, 13725, Note_on_c, 1, 64, 0
4, 13728, Note_on_c, 1, 66, 74
4, 13773, Note_on_c, 1, 66, 0
4, 13776, Note_on_c, 1, 63, 73
4, 13821, Note_on_c, 1, 63, 0
4, 13824, Note_on_c, 1, 64, 73
4, 13869, Note_on_c, 1, 64, 0
4, 13872, Note_on_c, 1, 71, 72
4, 13917, Note_on_c, 1, 71, 0
4, 13920, Note_on_c, 1, 69, 72
4, 13965, Note_on_c, 1, 69, 0
4, 13968, Note_on_c, 1, 66, 72
4, 14013, Note_on_c, 1, 66, 0
4, 14016, Note_on_c, 1, 68, 71
4, 14061, Note_on_c, 1, 68, 0
4, 14064, Note_on_c, 1, 64, 71
4, 14109, Note_on_c, 1, 64, 0
4, 14112, Note_on_c, 1, 66, 70
4, 14157, Note_on_c, 1, 66, 0
4, 14160, Note_on_c, 1, 63, 70
4, 14205, Note_on_c, 1, 63, 0
4, 14208, Note_on_c, 1, 64, 70
4, 14297, Note_on_c, 1, 64, 0
4, 14304, Note_on_c, 1, 49, 70
4, 14393, Note_on_c, 1, 49, 0
4, 14400, Note_on_c, 1, 48, 70
4, 14445, Note_on_c, 1, 48, 0
4, 14448, Note_on_c, 1, 51, 70
4, 14493, Note_on_c, 1, 51, 0
4, 14496, Note_on_c, 1, 56, 70
4, 14541, Note_on_c, 1, 56, 0
4, 14544, Note_on_c, 1, 60, 70
4, 14589, Note_on_c, 1, 60, 0
4, 14592, Note_on_c, 1, 61, 70
4, 14637, Note_on_c, 1, 61, 0
4, 14640, Note_on_c, 1, 49, 71
4, 14685, Note_on_c, 1, 49, 0
4, 14736, Note_on_c, 1, 64, 73
4, 14736, Note_on_c, 1, 52, 73
4, 14781, Note_on_c, 1, 64, 0
4, 14781, Note_on_c, 1, 52, 0
4, 14784, Note_on_c, 1, 54, 75
4, 14807, Note_on_c, 1, 54, 0
4, 14808, Note_on_c, 1, 66, 75
4, 14818, Note_on_c, 1, 66, 0
4, 14832, Note_on_c, 1, 66, 75
4, 14842, Note_on_c, 1, 66, 0
4, 14856, Note_on_c, 1, 66, 75
4, 14866, Note_on_c, 1, 66, 0
4, 14880, Note_on_c, 1, 63, 75
4, 14969, Note_on_c, 1, 63, 0
4, 14976, Note_on_c, 1, 52, 75
4, 14999, Note_on_c, 1, 52, 0
4, 15000, Note_on_c, 1, 64, 75
4, 15010, Note_on_c, 1, 64, 0
4, 15024, Note_on_c, 1, 64, 75
4, 15034, Note_on_c, 1, 64, 0
4, 15048, Note_on_c, 1, 64, 75
4, 15058, Note_on_c, 1, 64, 0
4, 15120, Note_on_c, 1, 64, 75
4, 15120, Note_on_c, 1, 52, 75
4, 15165, Note_on_c, 1, 64, 0
4, 15165, Note_on_c, 1, 52, 0
4, 15168, Note_on_c, 1, 61, 75
4, 15168, Note_on_c, 1, 57, 75
4, 15216, Note_on_c, 1, 61, 0
4, 15216, Note_on_c, 1, 57, 0
4, 15216, Note_on_c, 1, 59, 75
4, 15216, Note_on_c, 1, 56, 75
4, 15261, Note_on_c, 1, 59, 0
4, 15261, Note_on_c, 1, 56, 0
4, 15312, Note_on_c, 1, 64, 64
4, 15312, Note_on_c, 1, 52, 64
4, 15357, Note_on_c, 1, 64, 0
4, 15357, Note_on_c, 1, 52, 0
4, 15360, Note_on_c, 1, 61, 64
4, 15360, Note_on_c, 1, 57, 64
4, 15408, Note_on_c, 1, 61, 0
4, 15408, Note_on_c, 1, 57, 0
4, 15408, Note_on_c, 1, 59, 64
4, 15408, Note_on_c, 1, 56, 64
4, 15453, Note_on_c, 1, 59, 0
4, 15453, Note_on_c, 1, 56, 0
4, 15504, Note_on_c, 1, 64, 75
4, 15504, Note_on_c, 1, 52, 75
4, 15549, Note_on_c, 1, 64, 0
4, 15549, Note_on_c, 1, 52, 0
4, 15552, Note_on_c, 1, 61, 75
4, 15552, Note_on_c, 1, 57, 75
4, 15685, Note_on_c, 1, 61, 0
4, 15685, Note_on_c, 1, 57, 0
4, 15696, Note_on_c, 1, 61, 80
4, 15696, Note_on_c, 1, 58, 80
4, 15741, Note_on_c, 1, 61, 0
4, 15741, Note_on_c, 1, 58, 0
4, 15744, Note_on_c, 1, 59, 78
4, 15789, Note_on_c, 1, 59, 0
4, 15792, Note_on_c, 1, 47, 76
4, 15837, Note_on_c, 1, 47, 0
4, 15936, Note_on_c, 1, 52, 80
4, 15936, Note_on_c, 1, 40, 80
4, 16025, Note_on_c, 1, 52, 0
4, 16025, Note_on_c, 1, 40, 0
4, 16032, Note_on_c, 1, 64, 75
4, 16077, Note_on_c, 1, 64, 0
4, 16080, Note_on_c, 1, 66, 75
4, 16125, Note_on_c, 1, 66, 0
4, 16128, Note_on_c, 1, 68, 75
4, 16195, Note_on_c, 1, 68, 0
4, 16200, Note_on_c, 1, 69, 75
4, 16223, Note_on_c, 1, 69, 0
4, 16224, Note_on_c, 1, 68, 75
4, 16269, Note_on_c, 1, 68, 0
4, 16272, Note_on_c, 1, 63, 75
4, 16317, Note_on_c, 1, 63, 0
4, 16320, Note_on_c, 1, 64, 75
4, 16365, Note_on_c, 1, 64, 0
4, 16368, Note_on_c, 1, 56, 75
4, 16368, Note_on_c, 1, 44, 75
4, 16413, Note_on_c, 1, 56, 0
4, 16413, Note_on_c, 1, 44, 0
4, 16416, Note_on_c, 1, 57, 75
4, 16416, Note_on_c, 1, 45, 75
4, 16461, Note_on_c, 1, 57, 0
4, 16461, Note_on_c, 1, 45, 0
4, 16464, Note_on_c, 1, 54, 75
4, 16464, Note_on_c, 1, 47, 75
4, 16509, Note_on_c, 1, 54, 0
4, 16509, Note_on_c, 1, 47, 0
4, 16512, Note_on_c, 1, 52, 75
4, 16512, Note_on_c, 1, 40, 75
4, 16601, Note_on_c, 1, 52, 0
4, 16601, Note_on_c, 1, 40, 0
4, 16704, Note_on_c, 1, 59, 96
4, 16704, Note_on_c, 1, 56, 96
4, 16704, Note_on_c, 1, 52, 96
4, 16776, Note_on_c, 1, 59, 0
4, 16776, Note_on_c, 1, 56, 0
4, 16776, Note_on_c, 1, 52, 0
4, 16776, Note_on_c, 1, 64, 80
4, 16799, Note_on_c, 1, 64, 0
4, 16800, Note_on_c, 1, 66, 75
4, 16845, Note_on_c, 1, 66, 0
4, 16848, Note_on_c, 1, 68, 75
4, 16893, Note_on_c, 1, 68, 0
4, 16896, Note_on_c, 1, 69, 75
4, 16941, Note_on_c, 1, 69, 0
4, 16944, Note_on_c, 1, 57, 75
4, 16989, Note_on_c, 1, 57, 0
4, 16992, Note_on_c, 1, 68, 75
4, 17037, Note_on_c, 1, 68, 0
4, 17040, Note_on_c, 1, 64, 75
4, 17085, Note_on_c, 1, 64, 0
4, 17088, Note_on_c, 1, 51, 70
4, 17133, Note_on_c, 1, 51, 0
4, 17136, Note_on_c, 1, 59, 70
4, 17181, Note_on_c, 1, 59, 0
4, 17184, Note_on_c, 1, 52, 70
4, 17229, Note_on_c, 1, 52, 0
4, 17232, Note_on_c, 1, 59, 70
4, 17277, Note_on_c, 1, 59, 0
4, 17280, Note_on_c, 1, 54, 70
4, 17325, Note_on_c, 1, 54, 0
4, 17328, Note_on_c, 1, 59, 70
4, 17373, Note_on_c, 1, 59, 0
4, 17376, Note_on_c, 1, 56, 70
4, 17421, Note_on_c, 1, 56, 0
4, 17424, Note_on_c, 1, 59, 70
4, 17469, Note_on_c, 1, 59, 0
4, 17472, Note_on_c, 1, 57, 70
4, 17517, Note_on_c, 1, 57, 0
4, 17520, Note_on_c, 1, 64, 70
4, 17565, Note_on_c, 1, 64, 0
4, 17568, Note_on_c, 1, 56, 70
4, 17613, Note_on_c, 1, 56, 0
4, 17616, Note_on_c, 1, 64, 70
4, 17661, Note_on_c, 1, 64, 0
4, 17664, Note_on_c, 1, 54, 70
4, 17709, Note_on_c, 1, 54, 0
4, 17712, Note_on_c, 1, 63, 70
4, 17757, Note_on_c, 1, 63, 0
4, 17760, Note_on_c, 1, 64, 70
4, 17805, Note_on_c, 1, 64, 0
4, 17808, Note_on_c, 1, 52, 70
4, 17853, Note_on_c, 1, 52, 0
4, 17856, Note_on_c, 1, 57, 75
4, 17856, Note_on_c, 1, 45, 75
4, 17945, Note_on_c, 1, 57, 0
4, 17945, Note_on_c, 1, 45, 0
4, 17952, Note_on_c, 1, 54, 75
4, 17997, Note_on_c, 1, 54, 0
4, 18000, Note_on_c, 1, 58, 77
4, 18045, Note_on_c, 1, 58, 0
4, 18048, Note_on_c, 1, 59, 80
4, 18093, Note_on_c, 1, 59, 0
4, 18096, Note_on_c, 1, 47, 77
4, 18141, Note_on_c, 1, 47, 0
4, 18144, Note_on_c, 1, 59, 75
4, 18168, Note_on_c, 1, 59, 0
4, 18168, Note_on_c, 1, 56, 75
4, 18178, Note_on_c, 1, 56, 0
4, 18192, Note_on_c, 1, 57, 75
4, 18216, Note_on_c, 1, 57, 0
4, 18216, Note_on_c, 1, 54, 75
4, 18226, Note_on_c, 1, 54, 0
4, 18360, Note_on_c, 1, 64, 75
4, 18370, Note_on_c, 1, 64, 0
4, 18384, Note_on_c, 1, 64, 75
4, 18394, Note_on_c, 1, 64, 0
4, 18408, Note_on_c, 1, 64, 75
4, 18418, Note_on_c, 1, 64, 0
4, 18432, Note_on_c, 1, 64, 75
4, 18609, Note_on_c, 1, 64, 0
4, 18624, Note_on_c, 1, 64, 75
4, 18801, Note_on_c, 1, 64, 0
4, 18936, Note_on_c, 1, 66, 80
4, 18946, Note_on_c, 1, 66, 0
4, 18960, Note_on_c, 1, 66, 80
4, 18970, Note_on_c, 1, 66, 0
4, 18984, Note_on_c, 1, 66, 80
4, 18994, Note_on_c, 1, 66, 0
4, 19008, Note_on_c, 1, 66, 80
4, 19185, Note_on_c, 1, 66, 0
4, 19200, Note_on_c, 1, 66, 80
4, 19377, Note_on_c, 1, 66, 0
4, 19392, Note_on_c, 1, 59, 80
4, 19437, Note_on_c, 1, 59, 0
4, 19440, Note_on_c, 1, 61, 81
4, 19485, Note_on_c, 1, 61, 0
4, 19488, Note_on_c, 1, 63, 83
4, 19533, Note_on_c, 1, 63, 0
4, 19536, Note_on_c, 1, 64, 84
4, 19581, Note_on_c, 1, 64, 0
4, 19584, Note_on_c, 1, 66, 86
4, 19584, Note_on_c, 1, 54, 86
4, 19629, Note_on_c, 1, 66, 0
4, 19629, Note_on_c, 1, 54, 0
4, 19632, Note_on_c, 1, 64, 84
4, 19632, Note_on_c, 1, 52, 84
4, 19677, Note_on_c, 1, 64, 0
4, 19677, Note_on_c, 1, 52, 0
4, 19680, Note_on_c, 1, 63, 83
4, 19680, Note_on_c, 1, 51, 83
4, 19725, Note_on_c, 1, 63, 0
4, 19725, Note_on_c, 1, 51, 0
4, 19728, Note_on_c, 1, 61, 82
4, 19728, Note_on_c, 1, 49, 82
4, 19773, Note_on_c, 1, 61, 0
4, 19773, Note_on_c, 1, 49, 0
4, 19776, Note_on_c, 1, 59, 80
4, 19776, Note_on_c, 1, 47, 80
4, 19821, Note_on_c, 1, 59, 0
4, 19821, Note_on_c, 1, 47, 0
4, 19824, Note_on_c, 1, 57, 79
4, 19824, Note_on_c, 1, 45, 79
4, 19869, Note_on_c, 1, 57, 0
4, 19869, Note_on_c, 1, 45, 0
4, 19872, Note_on_c, 1, 56, 78
4, 19872, Note_on_c, 1, 44, 78
4, 19917, Note_on_c, 1, 56, 0
4, 19917, Note_on_c, 1, 44, 0
4, 19920, Note_on_c, 1, 54, 76
4, 19920, Note_on_c, 1, 42, 76
4, 19965, Note_on_c, 1, 54, 0
4, 19965, Note_on_c, 1, 42, 0
4, 19968, Note_on_c, 1, 52, 75
4, 19968, Note_on_c, 1, 40, 75
4, 20057, Note_on_c, 1, 52, 0
4, 20057, Note_on_c, 1, 40, 0
4, 20064, Note_on_c, 1, 59, 72
4, 20109, Note_on_c, 1, 59, 0
4, 20112, Note_on_c, 1, 47, 71
4, 20157, Note_on_c, 1, 47, 0
4, 20160, Note_on_c, 1, 52, 70
4, 20205, Note_on_c, 1, 52, 0
4, 20208, Note_on_c, 1, 40, 70
4, 20253, Note_on_c, 1, 40, 0
4, 20352, Note_on_c, 1, 47, 75
4, 20352, Note_on_c, 1, 35, 75
4, 20441, Note_on_c, 1, 47, 0
4, 20441, Note_on_c, 1, 35, 0
4, 20544, Note_on_c, 1, 47, 75
4, 20544, Note_on_c, 1, 35, 75
4, 20589, Note_on_c, 1, 47, 0
4, 20589, Note_on_c, 1, 35, 0
4, 20592, Note_on_c, 1, 52, 75
4, 20592, Note_on_c, 1, 40, 75
4, 20637, Note_on_c, 1, 52, 0
4, 20637, Note_on_c, 1, 40, 0
4, 20736, Note_on_c, 1, 52, 75
4, 20736, Note_on_c, 1, 40, 75
4, 20825, Note_on_c, 1, 52, 0
4, 20825, Note_on_c, 1, 40, 0
4, 20832, Note_on_c, 1, 56, 75
4, 20832, Note_on_c, 1, 44, 75
4, 20921, Note_on_c, 1, 56, 0
4, 20921, Note_on_c, 1, 44, 0
4, 20928, Note_on_c, 1, 57, 75
4, 20928, Note_on_c, 1, 45, 75
4, 20973, Note_on_c, 1, 57, 0
4, 20973, Note_on_c, 1, 45, 0
4, 20976, Note_on_c, 1, 61, 70
4, 21021, Note_on_c, 1, 61, 0
4, 21024, Note_on_c, 1, 59, 70
4, 21069, Note_on_c, 1, 59, 0
4, 21072, Note_on_c, 1, 63, 70
4, 21117, Note_on_c, 1, 63, 0
4, 21120, Note_on_c, 1, 64, 75
4, 21209, Note_on_c, 1, 64, 0
4, 21216, Note_on_c, 1, 64, 75
4, 21216, Note_on_c, 1, 56, 75
4, 21305, Note_on_c, 1, 64, 0
4, 21305, Note_on_c, 1, 56, 0
4, 21312, Note_on_c, 1, 63, 75
4, 21312, Note_on_c, 1, 54, 75
4, 21357, Note_on_c, 1, 63, 0
4, 21357, Note_on_c, 1, 54, 0
4, 21360, Note_on_c, 1, 64, 75
4, 21360, Note_on_c, 1, 52, 75
4, 21405, Note_on_c, 1, 64, 0
4, 21405, Note_on_c, 1, 52, 0
4, 21408, Note_on_c, 1, 64, 75
4, 21408, Note_on_c, 1, 57, 75
4, 21453, Note_on_c, 1, 64, 0
4, 21453, Note_on_c, 1, 57, 0
4, 21456, Note_on_c, 1, 63, 75
4, 21456, Note_on_c, 1, 59, 75
4, 21501, Note_on_c, 1, 63, 0
4, 21501, Note_on_c, 1, 59, 0
4, 21504, Note_on_c, 1, 64, 75
4, 21593, Note_on_c, 1, 64, 0
4, 21600, Note_on_c, 1, 64, 75
4, 21645, Note_on_c, 1, 64, 0
4, 21648, Note_on_c, 1, 63, 75
4, 21693, Note_on_c, 1, 63, 0
4, 21696, Note_on_c, 1, 64, 75
4, 21741, Note_on_c, 1, 64, 0
4, 21744, Note_on_c, 1, 52, 75
4, 21789, Note_on_c, 1, 52, 0
4, 21888, Note_on_c, 1, 59, 75
4, 21888, Note_on_c, 1, 47, 75
4, 21977, Note_on_c, 1, 59, 0
4, 21977, Note_on_c, 1, 47, 0
4, 22104, Note_on_c, 1, 71, 75
4, 22114, Note_on_c, 1, 71, 0
4, 22128, Note_on_c, 1, 71, 75
4, 22138, Note_on_c, 1, 71, 0
4, 22152, Note_on_c, 1, 71, 75
4, 22162, Note_on_c, 1, 71, 0
4, 22176, Note_on_c, 1, 71, 75
4, 22186, Note_on_c, 1, 71, 0
4, 22200, Note_on_c, 1, 68, 75
4, 22223, Note_on_c, 1, 68, 0
4, 22224, Note_on_c, 1, 69, 75
4, 22247, Note_on_c, 1, 69, 0
4, 22248, Note_on_c, 1, 66, 75
4, 22271, Note_on_c, 1, 66, 0
4, 22272, Note_on_c, 1, 68, 75
4, 22317, Note_on_c, 1, 68, 0
4, 22320, Note_on_c, 1, 63, 75
4, 22365, Note_on_c, 1, 63, 0
4, 22368, Note_on_c, 1, 64, 75
4, 22413, Note_on_c, 1, 64, 0
4, 22416, Note_on_c, 1, 66, 75
4, 22439, Note_on_c, 1, 66, 0
4, 22440, Note_on_c, 1, 69, 75
4, 22463, Note_on_c, 1, 69, 0
4, 22464, Note_on_c, 1, 68, 75
4, 22509, Note_on_c, 1, 68, 0
4, 22512, Note_on_c, 1, 63, 75
4, 22557, Note_on_c, 1, 63, 0
4, 22560, Note_on_c, 1, 64, 75
4, 22605, Note_on_c, 1, 64, 0
4, 22608, Note_on_c, 1, 66, 75
4, 22631, Note_on_c, 1, 66, 0
4, 22632, Note_on_c, 1, 69, 75
4, 22655, Note_on_c, 1, 69, 0
4, 22656, Note_on_c, 1, 68, 75
4, 22701, Note_on_c, 1, 68, 0
4, 22704, Note_on_c, 1, 63, 75
4, 22749, Note_on_c, 1, 63, 0
4, 22752, Note_on_c, 1, 64, 75
4, 22797, Note_on_c, 1, 64, 0
4, 22800, Note_on_c, 1, 68, 75
4, 22845, Note_on_c, 1, 68, 0
4, 22848, Note_on_c, 1, 71, 75
4, 22848, Note_on_c, 1, 59, 75
4, 22937, Note_on_c, 1, 71, 0
4, 22937, Note_on_c, 1, 59, 0
4, 23040, Note_on_c, 1, 52, 80
4, 23040, Note_on_c, 1, 40, 80
4, 23129, Note_on_c, 1, 52, 0
4, 23129, Note_on_c, 1, 40, 0
4, 23136, Note_on_c, 1, 64, 75
4, 23181, Note_on_c, 1, 64, 0
4, 23184, Note_on_c, 1, 66, 75
4, 23229, Note_on_c, 1, 66, 0
4, 23232, Note_on_c, 1, 68, 75
4, 23299, Note_on_c, 1, 68, 0
4, 23304, Note_on_c, 1, 69, 75
4, 23327, Note_on_c, 1, 69, 0
4, 23328, Note_on_c, 1, 68, 75
4, 23373, Note_on_c, 1, 68, 0
4, 23376, Note_on_c, 1, 63, 75
4, 23421, Note_on_c, 1, 63, 0
4, 23424, Note_on_c, 1, 64, 75
4, 23469, Note_on_c, 1, 64, 0
4, 23472, Note_on_c, 1, 56, 75
4, 23472, Note_on_c, 1, 44, 75
4, 23517, Note_on_c, 1, 56, 0
4, 23517, Note_on_c, 1, 44, 0
4, 23520, Note_on_c, 1, 57, 75
4, 23520, Note_on_c, 1, 45, 75
4, 23565, Note_on_c, 1, 57, 0
4, 23565, Note_on_c, 1, 45, 0
4, 23568, Note_on_c, 1, 54, 75
4, 23568, Note_on_c, 1, 47, 75
4, 23613, Note_on_c, 1, 54, 0
4, 23613, Note_on_c, 1, 47, 0
4, 23616, Note_on_c, 1, 52, 75
4, 23616, Note_on_c, 1, 40, 75
4, 23705, Note_on_c, 1, 52, 0
4, 23705, Note_on_c, 1, 40, 0
4, 23808, Note_on_c, 1, 64, 75
4, 23853, Note_on_c, 1, 64, 0
4, 23856, Note_on_c, 1, 68, 75
4, 23901, Note_on_c, 1, 68, 0
4, 23904, Note_on_c, 1, 59, 75
4, 23949, Note_on_c, 1, 59, 0
4, 23952, Note_on_c, 1, 69, 75
4, 23997, Note_on_c, 1, 69, 0
4, 24000, Note_on_c, 1, 68, 75
4, 24045, Note_on_c, 1, 68, 0
4, 24048, Note_on_c, 1, 64, 74
4, 24093, Note_on_c, 1, 64, 0
4, 24096, Note_on_c, 1, 66, 74
4, 24141, Note_on_c, 1, 66, 0
4, 24144, Note_on_c, 1, 63, 73
4, 24189, Note_on_c, 1, 63, 0
4, 24192, Note_on_c, 1, 64, 73
4, 24237, Note_on_c, 1, 64, 0
4, 24240, Note_on_c, 1, 71, 72
4, 24285, Note_on_c, 1, 71, 0
4, 24288, Note_on_c, 1, 69, 72
4, 24333, Note_on_c, 1, 69, 0
4, 24336, Note_on_c, 1, 66, 72
4, 24381, Note_on_c, 1, 66, 0
4, 24384, Note_on_c, 1, 68, 71
4, 24429, Note_on_c, 1, 68, 0
4, 24432, Note_on_c, 1, 64, 71
4, 24477, Note_on_c, 1, 64, 0
4, 24480, Note_on_c, 1, 66, 70
4, 24525, Note_on_c, 1, 66, 0
4, 24528, Note_on_c, 1, 63, 70
4, 24573, Note_on_c, 1, 63, 0
4, 24576, Note_on_c, 1, 64, 70
4, 24665, Note_on_c, 1, 64, 0
4, 24672, Note_on_c, 1, 49, 70
4, 24761, Note_on_c, 1, 49, 0
4, 24768, Note_on_c, 1, 48, 70
4, 24813, Note_on_c, 1, 48, 0
4, 24816, Note_on_c, 1, 51, 70
4, 24861, Note_on_c, 1, 51, 0
4, 24864, Note_on_c, 1, 56, 70
4, 24909, Note_on_c, 1, 56, 0
4, 24912, Note_on_c, 1, 60, 70
4, 24957, Note_on_c, 1, 60, 0
4, 24960, Note_on_c, 1, 61, 70
4, 25005, Note_on_c, 1, 61, 0
4, 25008, Note_on_c, 1, 49, 71
4, 25053, Note_on_c, 1, 49, 0
4, 25104, Note_on_c, 1, 64, 73
4, 25104, Note_on_c, 1, 52, 73
4, 25149, Note_on_c, 1, 64, 0
4, 25149, Note_on_c, 1, 52, 0
4, 25152, Note_on_c, 1, 54, 75
4, 25175, Note_on_c, 1, 54, 0
4, 25176, Note_on_c, 1, 66, 75
4, 25186, Note_on_c, 1, 66, 0
4, 25200, Note_on_c, 1, 66, 75
4, 25210, Note_on_c, 1, 66, 0
4, 25224, Note_on_c, 1, 66, 75
4, 25234, Note_on_c, 1, 66, 0
4, 25248, Note_on_c, 1, 63, 75
4, 25337, Note_on_c, 1, 63, 0
4, 25344, Note_on_c, 1, 52, 75
4, 25367, Note_on_c, 1, 52, 0
4, 25368, Note_on_c, 1, 64, 75
4, 25378, Note_on_c, 1, 64, 0
4, 25392, Note_on_c, 1, 64, 75
4, 25402, Note_on_c, 1, 64, 0
4, 25416, Note_on_c, 1, 64, 75
4, 25426, Note_on_c, 1, 64, 0
4, 25488, Note_on_c, 1, 64, 75
4, 25488, Note_on_c, 1, 52, 75
4, 25533, Note_on_c, 1, 64, 0
4, 25533, Note_on_c, 1, 52, 0
4, 25536, Note_on_c, 1, 61, 75
4, 25536, Note_on_c, 1, 57, 75
4, 25584, Note_on_c, 1, 61, 0
4, 25584, Note_on_c, 1, 57, 0
4, 25584, Note_on_c, 1, 59, 75
4, 25584, Note_on_c, 1, 56, 75
4, 25629, Note_on_c, 1, 59, 0
4, 25629, Note_on_c, 1, 56, 0
4, 25680, Note_on_c, 1, 64, 64
4, 25680, Note_on_c, 1, 52, 64
4, 25725, Note_on_c, 1, 64, 0
4, 25725, Note_on_c, 1, 52, 0
4, 25728, Note_on_c, 1, 61, 64
4, 25728, Note_on_c, 1, 57, 64
4, 25776, Note_on_c, 1, 61, 0
4, 25776, Note_on_c, 1, 57, 0
4, 25776, Note_on_c, 1, 59, 64
4, 25776, Note_on_c, 1, 56, 64
4, 25821, Note_on_c, 1, 59, 0
4, 25821, Note_on_c, 1, 56, 0
4, 25872, Note_on_c, 1, 64, 75
4, 25872, Note_on_c, 1, 52, 75
4, 25917, Note_on_c, 1, 64, 0
4, 25917, Note_on_c, 1, 52, 0
4, 25920, Note_on_c, 1, 61, 75
4, 25920, Note_on_c, 1, 57, 75
4, 26053, Note_on_c, 1, 61, 0
4, 26053, Note_on_c, 1, 57, 0
4, 26064, Note_on_c, 1, 61, 80
4, 26064, Note_on_c, 1, 58, 80
4, 26109, Note_on_c, 1, 61, 0
4, 26109, Note_on_c, 1, 58, 0
4, 26112, Note_on_c, 1, 59, 78
4, 26157, Note_on_c, 1, 59, 0
4, 26160, Note_on_c, 1, 47, 76
4, 26205, Note_on_c, 1, 47, 0
4, 26304, Note_on_c, 1, 52, 80
4, 26304, Note_on_c, 1, 40, 80
4, 26393, Note_on_c, 1, 52, 0
4, 26393, Note_on_c, 1, 40, 0
4, 26400, Note_on_c, 1, 64, 75
4, 26445, Note_on_c, 1, 64, 0
4, 26448, Note_on_c, 1, 66, 75
4, 26493, Note_on_c, 1, 66, 0
4, 26496, Note_on_c, 1, 68, 75
4, 26563, Note_on_c, 1, 68, 0
4, 26568, Note_on_c, 1, 69, 75
4, 26591, Note_on_c, 1, 69, 0
4, 26592, Note_on_c, 1, 68, 75
4, 26637, Note_on_c, 1, 68, 0
4, 26640, Note_on_c, 1, 63, 75
4, 26685, Note_on_c, 1, 63, 0
4, 26688, Note_on_c, 1, 64, 75
4, 26733, Note_on_c, 1, 64, 0
4, 26736, Note_on_c, 1, 56, 75
4, 26736, Note_on_c, 1, 44, 75
4, 26781, Note_on_c, 1, 56, 0
4, 26781, Note_on_c, 1, 44, 0
4, 26784, Note_on_c, 1, 57, 75
4, 26784, Note_on_c, 1, 45, 75
4, 26829, Note_on_c, 1, 57, 0
4, 26829, Note_on_c, 1, 45, 0
4, 26832, Note_on_c, 1, 54, 75
4, 26832, Note_on_c, 1, 47, 75
4, 26877, Note_on_c, 1, 54, 0
4, 26877, Note_on_c, 1, 47, 0
4, 26880, Note_on_c, 1, 52, 75
4, 26880, Note_on_c, 1, 40, 75
4, 26969, Note_on_c, 1, 52, 0
4, 26969, Note_on_c, 1, 40, 0
4, 27072, Note_on_c, 1, 59, 96
4, 27072, Note_on_c, 1, 56, 96
4, 27072, Note_on_c, 1, 52, 96
4, 27144, Note_on_c, 1, 59, 0
4, 27144, Note_on_c, 1, 56, 0
4, 27144, Note_on_c, 1, 52, 0
4, 27144, Note_on_c, 1, 64, 80
4, 27167, Note_on_c, 1, 64, 0
4, 27168, Note_on_c, 1, 66, 75
4, 27213, Note_on_c, 1, 66, 0
4, 27216, Note_on_c, 1, 68, 75
4, 27261, Note_on_c, 1, 68, 0
4, 27264, Note_on_c, 1, 69, 75
4, 27309, Note_on_c, 1, 69, 0
4, 27312, Note_on_c, 1, 57, 75
4, 27357, Note_on_c, 1, 57, 0
4, 27360, Note_on_c, 1, 68, 75
4, 27405, Note_on_c, 1, 68, 0
4, 27408, Note_on_c, 1, 64, 75
4, 27453, Note_on_c, 1, 64, 0
4, 27456, Note_on_c, 1, 51, 70
4, 27501, Note_on_c, 1, 51, 0
4, 27504, Note_on_c, 1, 59, 70
4, 27549, Note_on_c, 1, 59, 0
4, 27552, Note_on_c, 1, 52, 70
4, 27597, Note_on_c, 1, 52, 0
4, 27600, Note_on_c, 1, 59, 70
4, 27645, Note_on_c, 1, 59, 0
4, 27648, Note_on_c, 1, 54, 70
4, 27693, Note_on_c, 1, 54, 0
4, 27696, Note_on_c, 1, 59, 70
4, 27741, Note_on_c, 1, 59, 0
4, 27744, Note_on_c, 1, 56, 70
4, 27789, Note_on_c, 1, 56, 0
4, 27792, Note_on_c, 1, 59, 70
4, 27837, Note_on_c, 1, 59, 0
4, 27840, Note_on_c, 1, 57, 70
4, 27885, Note_on_c, 1, 57, 0
4, 27888, Note_on_c, 1, 64, 70
4, 27933, Note_on_c, 1, 64, 0
4, 27936, Note_on_c, 1, 56, 70
4, 27981, Note_on_c, 1, 56, 0
4, 27984, Note_on_c, 1, 64, 70
4, 28029, Note_on_c, 1, 64, 0
4, 28032, Note_on_c, 1, 54, 70
4, 28077, Note_on_c, 1, 54, 0
4, 28080, Note_on_c, 1, 63, 70
4, 28125, Note_on_c, 1, 63, 0
4, 28128, Note_on_c, 1, 64, 70
4, 28173, Note_on_c, 1, 64, 0
4, 28176, Note_on_c, 1, 52, 70
4, 28221, Note_on_c, 1, 52, 0
4, 28224, Note_on_c, 1, 57, 75
4, 28224, Note_on_c, 1, 45, 75
4, 28313, Note_on_c, 1, 57, 0
4, 28313, Note_on_c, 1, 45, 0
4, 28320, Note_on_c, 1, 54, 75
4, 28365, Note_on_c, 1, 54, 0
4, 28368, Note_on_c, 1, 58, 77
4, 28413, Note_on_c, 1, 58, 0
4, 28416, Note_on_c, 1, 59, 80
4, 28461, Note_on_c, 1, 59, 0
4, 28464, Note_on_c, 1, 47, 77
4, 28509, Note_on_c, 1, 47, 0
4, 28512, Note_on_c, 1, 59, 75
4, 28536, Note_on_c, 1, 59, 0
4, 28536, Note_on_c, 1, 56, 75
4, 28546, Note_on_c, 1, 56, 0
4, 28560, Note_on_c, 1, 57, 75
4, 28584, Note_on_c, 1, 57, 0
4, 28584, Note_on_c, 1, 54, 75
4, 28594, Note_on_c, 1, 54, 0
4, 28728, Note_on_c, 1, 64, 75
4, 28738, Note_on_c, 1, 64, 0
4, 28752, Note_on_c, 1, 64, 75
4, 28762, Note_on_c, 1, 64, 0
4, 28776, Note_on_c, 1, 64, 75
4, 28786, Note_on_c, 1, 64, 0
4, 28800, Note_on_c, 1, 64, 75
4, 28977, Note_on_c, 1, 64, 0
4, 28992, Note_on_c, 1, 64, 75
4, 29169, Note_on_c, 1, 64, 0
4, 29304, Note_on_c, 1, 66, 80
4, 29314, Note_on_c, 1, 66, 0
4, 29328, Note_on_c, 1, 66, 80
4, 29338, Note_on_c, 1, 66, 0
4, 29352, Note_on_c, 1, 66, 80
4, 29362, Note_on_c, 1, 66, 0
4, 29376, Note_on_c, 1, 66, 80
4, 29553, Note_on_c, 1, 66, 0
4, 29568, Note_on_c, 1, 66, 80
4, 29745, Note_on_c, 1, 66, 0
4, 29760, Note_on_c, 1, 59, 80
4, 29805, Note_on_c, 1, 59, 0
4, 29808, Note_on_c, 1, 61, 81
4, 29853, Note_on_c, 1, 61, 0
4, 29856, Note_on_c, 1, 63, 83
4, 29901, Note_on_c, 1, 63, 0
4, 29904, Note_on_c, 1, 64, 84
4, 29949, Note_on_c, 1, 64, 0
4, 29952, Note_on_c, 1, 66, 86
4, 29952, Note_on_c, 1, 54, 86
4, 29997, Note_on_c, 1, 66, 0
4, 29997, Note_on_c, 1, 54, 0
4, 30000, Note_on_c, 1, 64, 84
4, 30000, Note_on_c, 1, 52, 84
4, 30045, Note_on_c, 1, 64, 0
4, 30045, Note_on_c, 1, 52, 0
4, 30048, Note_on_c, 1, 63, 83
4, 30048, Note_on_c, 1, 51, 83
4, 30093, Note_on_c, 1, 63, 0
4, 30093, Note_on_c, 1, 51, 0
4, 30096, Note_on_c, 1, 61, 82
4, 30096, Note_on_c, 1, 49, 82
4, 30141, Note_on_c, 1, 61, 0
4, 30141, Note_on_c, 1, 49, 0
4, 30144, Note_on_c, 1, 59, 80
4, 30144, Note_on_c, 1, 47, 80
4, 30189, Note_on_c, 1, 59, 0
4, 30189, Note_on_c, 1, 47, 0
4, 30192, Note_on_c, 1, 57, 79
4, 30192, Note_on_c, 1, 45, 79
4, 30237, Note_on_c, 1, 57, 0
4, 30237, Note_on_c, 1, 45, 0
4, 30240, Note_on_c, 1, 56, 78
4, 30240, Note_on_c, 1, 44, 78
4, 30285, Note_on_c, 1, 56, 0
4, 30285, Note_on_c, 1, 44, 0
4, 30288, Note_on_c, 1, 54, 76
4, 30288, Note_on_c, 1, 42, 76
4, 30333, Note_on_c, 1, 54, 0
4, 30333, Note_on_c, 1, 42, 0
4, 30336, Note_on_c, 1, 52, 75
4, 30336, Note_on_c, 1, 40, 75
4, 30425, Note_on_c, 1, 52, 0
4, 30425, Note_on_c, 1, 40, 0
4, 30432, Note_on_c, 1, 59, 72
4, 30477, Note_on_c, 1, 59, 0
4, 30480, Note_on_c, 1, 47, 71
4, 30525, Note_on_c, 1, 47, 0
4, 30528, Note_on_c, 1, 52, 70
4, 30573, Note_on_c, 1, 52, 0
4, 30576, Note_on_c, 1, 40, 70
4, 30621, Note_on_c, 1, 40, 0
4, 30720, Note_on_c, 1, 47, 75
4, 30720, Note_on_c, 1, 35, 75
4, 30809, Note_on_c, 1, 47, 0
4, 30809, Note_on_c, 1, 35, 0
4, 30912, Note_on_c, 1, 47, 75
4, 30912, Note_on_c, 1, 35, 75
4, 30957, Note_on_c, 1, 47, 0
4, 30957, Note_on_c, 1, 35, 0
4, 30960, Note_on_c, 1, 52, 75
4, 30960, Note_on_c, 1, 40, 75
4, 31005, Note_on_c, 1, 52, 0
4, 31005, Note_on_c, 1, 40, 0
4, 31104, Note_on_c, 1, 52, 75
4, 31104, Note_on_c, 1, 40, 75
4, 31193, Note_on_c, 1, 52, 0
4, 31193, Note_on_c, 1, 40, 0
4, 31200, Note_on_c, 1, 56, 75
4, 31200, Note_on_c, 1, 44, 75
4, 31289, Note_on_c, 1, 56, 0
4, 31289, Note_on_c, 1, 44, 0
4, 31296, Note_on_c, 1, 57, 75
4, 31296, Note_on_c, 1, 45, 75
4, 31341, Note_on_c, 1, 57, 0
4, 31341, Note_on_c, 1, 45, 0
4, 31344, Note_on_c, 1, 61, 70
4, 31389, Note_on_c, 1, 61, 0
4, 31392, Note_on_c, 1, 59, 70
4, 31437, Note_on_c, 1, 59, 0
4, 31440, Note_on_c, 1, 63, 70
4, 31485, Note_on_c, 1, 63, 0
4, 31488, Note_on_c, 1, 64, 75
4, 31577, Note_on_c, 1, 64, 0
4, 31584, Note_on_c, 1, 64, 75
4, 31584, Note_on_c, 1, 56, 75
4, 31673, Note_on_c, 1, 64, 0
4, 31673, Note_on_c, 1, 56, 0
4, 31680, Note_on_c, 1, 63, 75
4, 31680, Note_on_c, 1, 54, 75
4, 31725, Note_on_c, 1, 63, 0
4, 31725, Note_on_c, 1, 54, 0
4, 31728, Note_on_c, 1, 64, 75
4, 31728, Note_on_c, 1, 52, 75
4, 31773, Note_on_c, 1, 64, 0
4, 31773, Note_on_c, 1, 52, 0
4, 31776, Note_on_c, 1, 64, 75
4, 31776, Note_on_c, 1, 57, 75
4, 31821, Note_on_c, 1, 64, 0
4, 31821, Note_on_c, 1, 57, 0
4, 31824, Note_on_c, 1, 63, 75
4, 31824, Note_on_c, 1, 59, 75
4, 31869, Note_on_c, 1, 63, 0
4, 31869, Note_on_c, 1, 59, 0
4, 31872, Note_on_c, 1, 64, 75
4, 31961, Note_on_c, 1, 64, 0
4, 31968, Note_on_c, 1, 64, 75
4, 32013, Note_on_c, 1, 64, 0
4, 32016, Note_on_c, 1, 63, 75
4, 32061, Note_on_c, 1, 63, 0
4, 32064, Note_on_c, 1, 64, 75
4, 32109, Note_on_c, 1, 64, 0
4, 32112, Note_on_c, 1, 52, 75
4, 32157, Note_on_c, 1, 52, 0
4, 32256, Note_on_c, 1, 52, 0
4, 32345, Note_on_c, 1, 52, 0
4, 32352, End_track
5, 0, Start_track
5, 0, Program_c, 1, 0
5, 0, Control_c, 1, 7, 127
5, 0, Control_c, 1, 10, 64
5, 2304, Note_on_c, 1, 51, 64
5, 2481, Note_on_c, 1, 51, 0
5, 2496, Note_on_c, 1, 52, 64
5, 2541, Note_on_c, 1, 52, 0
5, 2544, Note_on_c, 1, 54, 64
5, 2589, Note_on_c, 1, 54, 0
5, 2592, Note_on_c, 1, 56, 64
5, 2637, Note_on_c, 1, 56, 0
5, 2640, Note_on_c, 1, 51, 64
5, 2685, Note_on_c, 1, 51, 0
5, 2688, Note_on_c, 1, 52, 64
5, 2733, Note_on_c, 1, 52, 0
5, 2736, Note_on_c, 1, 54, 64
5, 2781, Note_on_c, 1, 54, 0
5, 2784, Note_on_c, 1, 56, 64
5, 2829, Note_on_c, 1, 56, 0
5, 2832, Note_on_c, 1, 51, 64
5, 2877, Note_on_c, 1, 51, 0
5, 2880, Note_on_c, 1, 52, 64
5, 2969, Note_on_c, 1, 52, 0
5, 2976, Note_on_c, 1, 53, 80
5, 3065, Note_on_c, 1, 53, 0
5, 3072, Note_on_c, 1, 54, 80
5, 3117, Note_on_c, 1, 54, 0
5, 3120, Note_on_c, 1, 56, 80
5, 3165, Note_on_c, 1, 56, 0
5, 3168, Note_on_c, 1, 58, 80
5, 3213, Note_on_c, 1, 58, 0
5, 3216, Note_on_c, 1, 53, 80
5, 3261, Note_on_c, 1, 53, 0
5, 3264, Note_on_c, 1, 54, 80
5, 3309, Note_on_c, 1, 54, 0
5, 3312, Note_on_c, 1, 56, 80
5, 3357, Note_on_c, 1, 56, 0
5, 3360, Note_on_c, 1, 58, 80
5, 3405, Note_on_c, 1, 58, 0
5, 3408, Note_on_c, 1, 53, 80
5, 3453, Note_on_c, 1, 53, 0
5, 5376, Note_on_c, 1, 52, 80
5, 5465, Note_on_c, 1, 52, 0
5, 5472, Note_on_c, 1, 54, 80
5, 5561, Note_on_c, 1, 54, 0
5, 8064, Note_on_c, 1, 51, 64
5, 8241, Note_on_c, 1, 51, 0
5, 8256, Note_on_c, 1, 52, 64
5, 8301, Note_on_c, 1, 52, 0
5, 8304, Note_on_c, 1, 54, 64
5, 8349, Note_on_c, 1, 54, 0
5, 8352, Note_on_c, 1, 56, 64
5, 8397, Note_on_c, 1, 56, 0
5, 8400, Note_on_c, 1, 51, 64
5, 8445, Note_on_c, 1, 51, 0
5, 8448, Note_on_c, 1, 52, 64
5, 8493, Note_on_c, 1, 52, 0
5, 8496, Note_on_c, 1, 54, 64
5, 8541, Note_on_c, 1, 54, 0
5, 8544, Note_on_c, 1, 56, 64
5, 8589, Note_on_c, 1, 56, 0
5, 8592, Note_on_c, 1, 51, 64
5, 8637, Note_on_c, 1, 51, 0
5, 8640, Note_on_c, 1, 52, 64
5, 8729, Note_on_c, 1, 52, 0
5, 8736, Note_on_c, 1, 53, 80
5, 8825, Note_on_c, 1, 53, 0
5, 8832, Note_on_c, 1, 54, 80
5, 8877, Note_on_c, 1, 54, 0
5, 8880, Note_on_c, 1, 56, 80
5, 8925, Note_on_c, 1, 56, 0
5, 8928, Note_on_c, 1, 58, 80
5, 8973, Note_on_c, 1, 58, 0
5, 8976, Note_on_c, 1, 53, 80
5, 9021, Note_on_c, 1, 53, 0
5, 9024, Note_on_c, 1, 54, 80
5, 9069, Note_on_c, 1, 54, 0
5, 9072, Note_on_c, 1, 56, 80
5, 9117, Note_on_c, 1, 56, 0
5, 9120, Note_on_c, 1, 58, 80
5, 9165, Note_on_c, 1, 58, 0
5, 9168, Note_on_c, 1, 53, 80
5, 9213, Note_on_c, 1, 53, 0
5, 11136, Note_on_c, 1, 52, 80
5, 11225, Note_on_c, 1, 52, 0
5, 11232, Note_on_c, 1, 54, 80
5, 11321, Note_on_c, 1, 54, 0
5, 11712, Note_on_c, 1, 59, 75
5, 11889, Note_on_c, 1, 59, 0
5, 11904, Note_on_c, 1, 59, 75
5, 12081, Note_on_c, 1, 59, 0
5, 12096, Note_on_c, 1, 59, 75
5, 12273, Note_on_c, 1, 59, 0
5, 12288, Note_on_c, 1, 59, 75
5, 12465, Note_on_c, 1, 59, 0
5, 18240, Note_on_c, 1, 56, 75
5, 18417, Note_on_c, 1, 56, 0
5, 18432, Note_on_c, 1, 57, 75
5, 18477, Note_on_c, 1, 57, 0
5, 18480, Note_on_c, 1, 59, 75
5, 18525, Note_on_c, 1, 59, 0
5, 18528, Note_on_c, 1, 61, 75
5, 18573, Note_on_c, 1, 61, 0
5, 18576, Note_on_c, 1, 56, 75
5, 18621, Note_on_c, 1, 56, 0
5, 18624, Note_on_c, 1, 57, 75
5, 18669, Note_on_c, 1, 57, 0
5, 18672, Note_on_c, 1, 59, 75
5, 18717, Note_on_c, 1, 59, 0
5, 18720, Note_on_c, 1, 61, 75
5, 18765, Note_on_c, 1, 61, 0
5, 18768, Note_on_c, 1, 56, 75
5, 18813, Note_on_c, 1, 56, 0
5, 18816, Note_on_c, 1, 57, 75
5, 18912, Note_on_c, 1, 57, 0
5, 18912, Note_on_c, 1, 58, 80
5, 19001, Note_on_c, 1, 58, 0
5, 19008, Note_on_c, 1, 59, 80
5, 19053, Note_on_c, 1, 59, 0
5, 19056, Note_on_c, 1, 61, 80
5, 19101, Note_on_c, 1, 61, 0
5, 19104, Note_on_c, 1, 63, 80
5, 19149, Note_on_c, 1, 63, 0
5, 19152, Note_on_c, 1, 58, 80
5, 19197, Note_on_c, 1, 58, 0
5, 19200, Note_on_c, 1, 59, 80
5, 19245, Note_on_c, 1, 59, 0
5, 19248, Note_on_c, 1, 61, 80
5, 19293, Note_on_c, 1, 61, 0
5, 19296, Note_on_c, 1, 63, 80
5, 19341, Note_on_c, 1, 63, 0
5, 19344, Note_on_c, 1, 58, 80
5, 19389, Note_on_c, 1, 58, 0
5, 21504, Note_on_c, 1, 52, 80
5, 21593, Note_on_c, 1, 52, 0
5, 21600, Note_on_c, 1, 59, 80
5, 21689, Note_on_c, 1, 59, 0
5, 22080, Note_on_c, 1, 59, 75
5, 22257, Note_on_c, 1, 59, 0
5, 22272, Note_on_c, 1, 59, 75
5, 22449, Note_on_c, 1, 59, 0
5, 22464, Note_on_c, 1, 59, 75
5, 22641, Note_on_c, 1, 59, 0
5, 22656, Note_on_c, 1, 59, 75
5, 22833, Note_on_c, 1, 59, 0
5, 28608, Note_on_c, 1, 56, 75
5, 28785, Note_on_c, 1, 56, 0
5, 28800, Note_on_c, 1, 57, 75
5, 28845, Note_on_c, 1, 57, 0
5, 28848, Note_on_c, 1, 59, 75
5, 28893, Note_on_c, 1, 59, 0
5, 28896, Note_on_c, 1, 61, 75
5, 28941, Note_on_c, 1, 61, 0
5, 28944, Note_on_c, 1, 56, 75
5, 28989, Note_on_c, 1, 56, 0
5, 28992, Note_on_c, 1, 57, 75
5, 29037, Note_on_c, 1, 57, 0
5, 29040, Note_on_c, 1, 59, 75
5, 29085, Note_on_c, 1, 59, 0
5, 29088, Note_on_c, 1, 61, 75
5, 29133, Note_on_c, 1, 61, 0
5, 29136, Note_on_c, 1, 56, 75
5, 29181, Note_on_c, 1, 56, 0
5, 29184, Note_on_c, 1, 57, 75
5, 29280, Note_on_c, 1, 57, 0
5, 29280, Note_on_c, 1, 58, 80
5, 29369, Note_on_c, 1, 58, 0
5, 29376, Note_on_c, 1, 59, 80
5, 29421, Note_on_c, 1, 59, 0
5, 29424, Note_on_c, 1, 61, 80
5, 29469, Note_on_c, 1, 61, 0
5, 29472, Note_on_c, 1, 63, 80
5, 29517, Note_on_c, 1, 63, 0
5, 29520, Note_on_c, 1, 58, 80
5, 29565, Note_on_c, 1, 58, 0
5, 29568, Note_on_c, 1, 59, 80
5, 29613, Note_on_c, 1, 59, 0
5, 29616, Note_on_c, 1, 61, 80
5, 29661, Note_on_c, 1, 61, 0
5, 29664, Note_on_c, 1, 63, 80
5, 29709, Note_on_c, 1, 63, 0
5, 29712, Note_on_c, 1, 58, 80
5, 29757, Note_on_c, 1, 58, 0
5, 31872, Note_on_c, 1, 52, 80
5, 31961, Note_on_c, 1, 52, 0
5, 31968, Note_on_c, 1, 59, 80
5, 32057, Note_on_c, 1, 59, 0
5, 32256, End_track
6, 0, Start_track
6, 0, Title_t, "Sonata I   Haydn  "
6, 0, End_track
0, 0, End_of_file
