0, 0, Header, 1, 6, 96
1, 0, Start_track
1, 0, Copyright_t, "Copyright  2000 <copyright holder>"
1, 0, Text_t, "Sonata I\015\012"
1, 0, Text_t, "Haydn\015\012"
1, 0, Sequencer_specific, 16, 68, 87, 77, 90, 86, 82, 83, 78, 32, 55, 46, 49, 46, 50, 46, 48
1, 0, Time_signature, 4, 2, 24, 8
1, 0, Tempo, 375000
1, 0, Key_signature, 1, "major"
1, 46080, End_track
2, 0, Start_track
2, 0, Program_c, 0, 0
2, 0, Control_c, 0, 7, 127
2, 0, Control_c, 0, 10, 64
2, 0, Note_on_c, 0, 67, 75
2, 67, Note_on_c, 0, 67, 0
2, 72, Note_on_c, 0, 71, 75
2, 84, Note_on_c, 0, 71, 0
2, 84, Note_on_c, 0, 69, 75
2, 96, Note_on_c, 0, 69, 0
2, 96, Note_on_c, 0, 67, 75
2, 141, Note_on_c, 0, 67, 0
2, 240, Note_on_c, 0, 62, 75
2, 260, Note_on_c, 0, 62, 0
2, 288, Note_on_c, 0, 67, 77
2, 308, Note_on_c, 0, 67, 0
2, 336, Note_on_c, 0, 71, 79
2, 356, Note_on_c, 0, 71, 0
2, 384, Note_on_c, 0, 71, 81
2, 407, Note_on_c, 0, 71, 0
2, 408, Note_on_c, 0, 69, 80
2, 431, Note_on_c, 0, 69, 0
2, 432, Note_on_c, 0, 67, 79
2, 455, Note_on_c, 0, 67, 0
2, 456, Note_on_c, 0, 69, 78
2, 479, Note_on_c, 0, 69, 0
2, 480, Note_on_c, 0, 67, 77
2, 525, Note_on_c, 0, 67, 0
2, 528, Note_on_c, 0, 74, 75
2, 548, Note_on_c, 0, 74, 0
2, 576, Note_on_c, 0, 74, 75
2, 596, Note_on_c, 0, 74, 0
2, 624, Note_on_c, 0, 74, 75
2, 644, Note_on_c, 0, 74, 0
2, 672, Note_on_c, 0, 74, 76
2, 692, Note_on_c, 0, 74, 0
2, 720, Note_on_c, 0, 74, 77
2, 740, Note_on_c, 0, 74, 0
2, 768, Note_on_c, 0, 74, 78
2, 835, Note_on_c, 0, 74, 0
2, 840, Note_on_c, 0, 76, 79
2, 852, Note_on_c, 0, 76, 0
2, 852, Note_on_c, 0, 74, 79
2, 864, Note_on_c, 0, 74, 0
2, 864, Note_on_c, 0, 72, 80
2, 909, Note_on_c, 0, 72, 0
2, 912, Note_on_c, 0, 71, 81
2, 957, Note_on_c, 0, 71, 0
2, 960, Note_on_c, 0, 69, 81
2, 980, Note_on_c, 0, 69, 0
2, 1008, Note_on_c, 0, 81, 97
2, 1104, Note_on_c, 0, 81, 0
2, 1104, Note_on_c, 0, 79, 81
2, 1149, Note_on_c, 0, 79, 0
2, 1152, Note_on_c, 0, 79, 81
2, 1175, Note_on_c, 0, 79, 0
2, 1176, Note_on_c, 0, 78, 81
2, 1199, Note_on_c, 0, 78, 0
2, 1200, Note_on_c, 0, 76, 81
2, 1223, Note_on_c, 0, 76, 0
2, 1224, Note_on_c, 0, 74, 81
2, 1247, Note_on_c, 0, 74, 0
2, 1248, Note_on_c, 0, 74, 97
2, 1296, Note_on_c, 0, 74, 0
2, 1296, Note_on_c, 0, 74, 80
2, 1341, Note_on_c, 0, 74, 0
2, 1344, Note_on_c, 0, 74, 79
2, 1367, Note_on_c, 0, 74, 0
2, 1368, Note_on_c, 0, 76, 78
2, 1391, Note_on_c, 0, 76, 0
2, 1392, Note_on_c, 0, 72, 78
2, 1415, Note_on_c, 0, 72, 0
2, 1416, Note_on_c, 0, 74, 77
2, 1439, Note_on_c, 0, 74, 0
2, 1440, Note_on_c, 0, 71, 77
2, 1463, Note_on_c, 0, 71, 0
2, 1464, Note_on_c, 0, 72, 76
2, 1487, Note_on_c, 0, 72, 0
2, 1488, Note_on_c, 0, 69, 76
2, 1511, Note_on_c, 0, 69, 0
2, 1512, Note_on_c, 0, 71, 75
2, 1535, Note_on_c, 0, 71, 0
2, 1536, Note_on_c, 0, 67, 75
2, 1603, Note_on_c, 0, 67, 0
2, 1608, Note_on_c, 0, 71, 75
2, 1620, Note_on_c, 0, 71, 0
2, 1620, Note_on_c, 0, 69, 75
2, 1632, Note_on_c, 0, 69, 0
2, 1632, Note_on_c, 0, 67, 75
2, 1677, Note_on_c, 0, 67, 0
2, 1776, Note_on_c, 0, 62, 75
2, 1796, Note_on_c, 0, 62, 0
2, 1824, Note_on_c, 0, 67, 77
2, 1844, Note_on_c, 0, 67, 0
2, 1872, Note_on_c, 0, 71, 79
2, 1892, Note_on_c, 0, 71, 0
2, 1920, Note_on_c, 0, 71, 81
2, 1943, Note_on_c, 0, 71, 0
2, 1944, Note_on_c, 0, 69, 80
2, 1967, Note_on_c, 0, 69, 0
2, 1968, Note_on_c, 0, 67, 79
2, 1991, Note_on_c, 0, 67, 0
2, 1992, Note_on_c, 0, 69, 78
2, 2015, Note_on_c, 0, 69, 0
2, 2016, Note_on_c, 0, 67, 77
2, 2061, Note_on_c, 0, 67, 0
2, 2064, Note_on_c, 0, 76, 75
2, 2084, Note_on_c, 0, 76, 0
2, 2112, Note_on_c, 0, 76, 75
2, 2132, Note_on_c, 0, 76, 0
2, 2160, Note_on_c, 0, 76, 75
2, 2180, Note_on_c, 0, 76, 0
2, 2208, Note_on_c, 0, 76, 76
2, 2228, Note_on_c, 0, 76, 0
2, 2256, Note_on_c, 0, 76, 77
2, 2276, Note_on_c, 0, 76, 0
2, 2304, Note_on_c, 0, 76, 78
2, 2371, Note_on_c, 0, 76, 0
2, 2376, Note_on_c, 0, 79, 79
2, 2388, Note_on_c, 0, 79, 0
2, 2388, Note_on_c, 0, 81, 79
2, 2400, Note_on_c, 0, 81, 0
2, 2400, Note_on_c, 0, 83, 79
2, 2467, Note_on_c, 0, 83, 0
2, 2472, Note_on_c, 0, 79, 81
2, 2484, Note_on_c, 0, 79, 0
2, 2484, Note_on_c, 0, 76, 80
2, 2496, Note_on_c, 0, 76, 0
2, 2496, Note_on_c, 0, 74, 80
2, 2585, Note_on_c, 0, 74, 0
2, 2592, Note_on_c, 0, 73, 77
2, 2605, Note_on_c, 0, 73, 0
2, 2606, Note_on_c, 0, 74, 77
2, 2619, Note_on_c, 0, 74, 0
2, 2620, Note_on_c, 0, 73, 77
2, 2633, Note_on_c, 0, 73, 0
2, 2634, Note_on_c, 0, 74, 76
2, 2647, Note_on_c, 0, 74, 0
2, 2648, Note_on_c, 0, 73, 76
2, 2661, Note_on_c, 0, 73, 0
2, 2662, Note_on_c, 0, 71, 76
2, 2674, Note_on_c, 0, 71, 0
2, 2675, Note_on_c, 0, 73, 75
2, 2687, Note_on_c, 0, 73, 0
2, 2688, Note_on_c, 0, 74, 75
2, 2711, Note_on_c, 0, 74, 0
2, 2712, Note_on_c, 0, 76, 77
2, 2735, Note_on_c, 0, 76, 0
2, 2736, Note_on_c, 0, 78, 79
2, 2759, Note_on_c, 0, 78, 0
2, 2760, Note_on_c, 0, 79, 81
2, 2783, Note_on_c, 0, 79, 0
2, 2784, Note_on_c, 0, 81, 79
2, 2807, Note_on_c, 0, 81, 0
2, 2808, Note_on_c, 0, 78, 78
2, 2831, Note_on_c, 0, 78, 0
2, 2832, Note_on_c, 0, 76, 76
2, 2855, Note_on_c, 0, 76, 0
2, 2856, Note_on_c, 0, 74, 75
2, 2879, Note_on_c, 0, 74, 0
2, 2880, Note_on_c, 0, 73, 75
2, 2903, Note_on_c, 0, 73, 0
2, 2904, Note_on_c, 0, 74, 76
2, 2927, Note_on_c, 0, 74, 0
2, 2928, Note_on_c, 0, 76, 78
2, 2951, Note_on_c, 0, 76, 0
2, 2952, Note_on_c, 0, 78, 79
2, 2975, Note_on_c, 0, 78, 0
2, 2976, Note_on_c, 0, 79, 81
2, 2999, Note_on_c, 0, 79, 0
2, 3000, Note_on_c, 0, 76, 79
2, 3023, Note_on_c, 0, 76, 0
2, 3024, Note_on_c, 0, 74, 78
2, 3047, Note_on_c, 0, 74, 0
2, 3048, Note_on_c, 0, 73, 76
2, 3071, Note_on_c, 0, 73, 0
2, 3072, Note_on_c, 0, 74, 75
2, 3095, Note_on_c, 0, 74, 0
2, 3096, Note_on_c, 0, 76, 77
2, 3119, Note_on_c, 0, 76, 0
2, 3120, Note_on_c, 0, 78, 79
2, 3143, Note_on_c, 0, 78, 0
2, 3144, Note_on_c, 0, 79, 81
2, 3167, Note_on_c, 0, 79, 0
2, 3168, Note_on_c, 0, 81, 79
2, 3191, Note_on_c, 0, 81, 0
2, 3192, Note_on_c, 0, 78, 78
2, 3215, Note_on_c, 0, 78, 0
2, 3216, Note_on_c, 0, 76, 77
2, 3239, Note_on_c, 0, 76, 0
2, 3240, Note_on_c, 0, 74, 76
2, 3263, Note_on_c, 0, 74, 0
2, 3264, Note_on_c, 0, 73, 75
2, 3287, Note_on_c, 0, 73, 0
2, 3288, Note_on_c, 0, 74, 76
2, 3311, Note_on_c, 0, 74, 0
2, 3312, Note_on_c, 0, 76, 78
2, 3335, Note_on_c, 0, 76, 0
2, 3336, Note_on_c, 0, 78, 79
2, 3359, Note_on_c, 0, 78, 0
2, 3360, Note_on_c, 0, 79, 81
2, 3383, Note_on_c, 0, 79, 0
2, 3384, Note_on_c, 0, 76, 79
2, 3407, Note_on_c, 0, 76, 0
2, 3408, Note_on_c, 0, 74, 78
2, 3431, Note_on_c, 0, 74, 0
2, 3432, Note_on_c, 0, 73, 76
2, 3455, Note_on_c, 0, 73, 0
2, 3456, Note_on_c, 0, 74, 75
2, 3545, Note_on_c, 0, 74, 0
2, 3552, Note_on_c, 0, 85, 86
2, 3558, Note_on_c, 0, 85, 0
2, 3558, Note_on_c, 0, 86, 102
2, 3648, Note_on_c, 0, 86, 0
2, 3840, Note_on_c, 0, 67, 75
2, 3907, Note_on_c, 0, 67, 0
2, 3912, Note_on_c, 0, 71, 75
2, 3924, Note_on_c, 0, 71, 0
2, 3924, Note_on_c, 0, 69, 75
2, 3936, Note_on_c, 0, 69, 0
2, 3936, Note_on_c, 0, 67, 75
2, 3981, Note_on_c, 0, 67, 0
2, 4080, Note_on_c, 0, 62, 75
2, 4100, Note_on_c, 0, 62, 0
2, 4128, Note_on_c, 0, 67, 77
2, 4148, Note_on_c, 0, 67, 0
2, 4176, Note_on_c, 0, 71, 79
2, 4196, Note_on_c, 0, 71, 0
2, 4224, Note_on_c, 0, 71, 81
2, 4247, Note_on_c, 0, 71, 0
2, 4248, Note_on_c, 0, 69, 80
2, 4271, Note_on_c, 0, 69, 0
2, 4272, Note_on_c, 0, 67, 79
2, 4295, Note_on_c, 0, 67, 0
2, 4296, Note_on_c, 0, 69, 78
2, 4319, Note_on_c, 0, 69, 0
2, 4320, Note_on_c, 0, 67, 77
2, 4365, Note_on_c, 0, 67, 0
2, 4368, Note_on_c, 0, 74, 75
2, 4388, Note_on_c, 0, 74, 0
2, 4416, Note_on_c, 0, 74, 75
2, 4436, Note_on_c, 0, 74, 0
2, 4464, Note_on_c, 0, 74, 75
2, 4484, Note_on_c, 0, 74, 0
2, 4512, Note_on_c, 0, 74, 76
2, 4532, Note_on_c, 0, 74, 0
2, 4560, Note_on_c, 0, 74, 77
2, 4580, Note_on_c, 0, 74, 0
2, 4608, Note_on_c, 0, 74, 78
2, 4675, Note_on_c, 0, 74, 0
2, 4680, Note_on_c, 0, 76, 79
2, 4692, Note_on_c, 0, 76, 0
2, 4692, Note_on_c, 0, 74, 79
2, 4704, Note_on_c, 0, 74, 0
2, 4704, Note_on_c, 0, 72, 80
2, 4749, Note_on_c, 0, 72, 0
2, 4752, Note_on_c, 0, 71, 81
2, 4797, Note_on_c, 0, 71, 0
2, 4800, Note_on_c, 0, 69, 81
2, 4820, Note_on_c, 0, 69, 0
2, 4848, Note_on_c, 0, 81, 97
2, 4944, Note_on_c, 0, 81, 0
2, 4944, Note_on_c, 0, 79, 81
2, 4989, Note_on_c, 0, 79, 0
2, 4992, Note_on_c, 0, 79, 81
2, 5015, Note_on_c, 0, 79, 0
2, 5016, Note_on_c, 0, 78, 81
2, 5039, Note_on_c, 0, 78, 0
2, 5040, Note_on_c, 0, 76, 81
2, 5063, Note_on_c, 0, 76, 0
2, 5064, Note_on_c, 0, 74, 81
2, 5087, Note_on_c, 0, 74, 0
2, 5088, Note_on_c, 0, 74, 97
2, 5136, Note_on_c, 0, 74, 0
2, 5136, Note_on_c, 0, 74, 80
2, 5181, Note_on_c, 0, 74, 0
2, 5184, Note_on_c, 0, 74, 79
2, 5207, Note_on_c, 0, 74, 0
2, 5208, Note_on_c, 0, 76, 78
2, 5231, Note_on_c, 0, 76, 0
2, 5232, Note_on_c, 0, 72, 78
2, 5255, Note_on_c, 0, 72, 0
2, 5256, Note_on_c, 0, 74, 77
2, 5279, Note_on_c, 0, 74, 0
2, 5280, Note_on_c, 0, 71, 77
2, 5303, Note_on_c, 0, 71, 0
2, 5304, Note_on_c, 0, 72, 76
2, 5327, Note_on_c, 0, 72, 0
2, 5328, Note_on_c, 0, 69, 76
2, 5351, Note_on_c, 0, 69, 0
2, 5352, Note_on_c, 0, 71, 75
2, 5375, Note_on_c, 0, 71, 0
2, 5376, Note_on_c, 0, 67, 75
2, 5443, Note_on_c, 0, 67, 0
2, 5448, Note_on_c, 0, 71, 75
2, 5460, Note_on_c, 0, 71, 0
2, 5460, Note_on_c, 0, 69, 75
2, 5472, Note_on_c, 0, 69, 0
2, 5472, Note_on_c, 0, 67, 75
2, 5517, Note_on_c, 0, 67, 0
2, 5616, Note_on_c, 0, 62, 75
2, 5636, Note_on_c, 0, 62, 0
2, 5664, Note_on_c, 0, 67, 77
2, 5684, Note_on_c, 0, 67, 0
2, 5712, Note_on_c, 0, 71, 79
2, 5732, Note_on_c, 0, 71, 0
2, 5760, Note_on_c, 0, 71, 81
2, 5783, Note_on_c, 0, 71, 0
2, 5784, Note_on_c, 0, 69, 80
2, 5807, Note_on_c, 0, 69, 0
2, 5808, Note_on_c, 0, 67, 79
2, 5831, Note_on_c, 0, 67, 0
2, 5832, Note_on_c, 0, 69, 78
2, 5855, Note_on_c, 0, 69, 0
2, 5856, Note_on_c, 0, 67, 77
2, 5901, Note_on_c, 0, 67, 0
2, 5904, Note_on_c, 0, 76, 75
2, 5924, Note_on_c, 0, 76, 0
2, 5952, Note_on_c, 0, 76, 75
2, 5972, Note_on_c, 0, 76, 0
2, 6000, Note_on_c, 0, 76, 75
2, 6020, Note_on_c, 0, 76, 0
2, 6048, Note_on_c, 0, 76, 76
2, 6068, Note_on_c, 0, 76, 0
2, 6096, Note_on_c, 0, 76, 77
2, 6116, Note_on_c, 0, 76, 0
2, 6144, Note_on_c, 0, 76, 78
2, 6211, Note_on_c, 0, 76, 0
2, 6216, Note_on_c, 0, 79, 79
2, 6228, Note_on_c, 0, 79, 0
2, 6228, Note_on_c, 0, 81, 79
2, 6240, Note_on_c, 0, 81, 0
2, 6240, Note_on_c, 0, 83, 79
2, 6307, Note_on_c, 0, 83, 0
2, 6312, Note_on_c, 0, 79, 81
2, 6324, Note_on_c, 0, 79, 0
2, 6324, Note_on_c, 0, 76, 80
2, 6336, Note_on_c, 0, 76, 0
2, 6336, Note_on_c, 0, 74, 80
2, 6425, Note_on_c, 0, 74, 0
2, 6432, Note_on_c, 0, 73, 77
2, 6445, Note_on_c, 0, 73, 0
2, 6446, Note_on_c, 0, 74, 77
2, 6459, Note_on_c, 0, 74, 0
2, 6460, Note_on_c, 0, 73, 77
2, 6473, Note_on_c, 0, 73, 0
2, 6474, Note_on_c, 0, 74, 76
2, 6487, Note_on_c, 0, 74, 0
2, 6488, Note_on_c, 0, 73, 76
2, 6501, Note_on_c, 0, 73, 0
2, 6502, Note_on_c, 0, 71, 76
2, 6514, Note_on_c, 0, 71, 0
2, 6515, Note_on_c, 0, 73, 75
2, 6527, Note_on_c, 0, 73, 0
2, 6528, Note_on_c, 0, 74, 75
2, 6551, Note_on_c, 0, 74, 0
2, 6552, Note_on_c, 0, 76, 77
2, 6575, Note_on_c, 0, 76, 0
2, 6576, Note_on_c, 0, 78, 79
2, 6599, Note_on_c, 0, 78, 0
2, 6600, Note_on_c, 0, 79, 81
2, 6623, Note_on_c, 0, 79, 0
2, 6624, Note_on_c, 0, 81, 79
2, 6647, Note_on_c, 0, 81, 0
2, 6648, Note_on_c, 0, 78, 78
2, 6671, Note_on_c, 0, 78, 0
2, 6672, Note_on_c, 0, 76, 76
2, 6695, Note_on_c, 0, 76, 0
2, 6696, Note_on_c, 0, 74, 75
2, 6719, Note_on_c, 0, 74, 0
2, 6720, Note_on_c, 0, 73, 75
2, 6743, Note_on_c, 0, 73, 0
2, 6744, Note_on_c, 0, 74, 76
2, 6767, Note_on_c, 0, 74, 0
2, 6768, Note_on_c, 0, 76, 78
2, 6791, Note_on_c, 0, 76, 0
2, 6792, Note_on_c, 0, 78, 79
2, 6815, Note_on_c, 0, 78, 0
2, 6816, Note_on_c, 0, 79, 81
2, 6839, Note_on_c, 0, 79, 0
2, 6840, Note_on_c, 0, 76, 79
2, 6863, Note_on_c, 0, 76, 0
2, 6864, Note_on_c, 0, 74, 78
2, 6887, Note_on_c, 0, 74, 0
2, 6888, Note_on_c, 0, 73, 76
2, 6911, Note_on_c, 0, 73, 0
2, 6912, Note_on_c, 0, 74, 75
2, 6935, Note_on_c, 0, 74, 0
2, 6936, Note_on_c, 0, 76, 77
2, 6959, Note_on_c, 0, 76, 0
2, 6960, Note_on_c, 0, 78, 79
2, 6983, Note_on_c, 0, 78, 0
2, 6984, Note_on_c, 0, 79, 81
2, 7007, Note_on_c, 0, 79, 0
2, 7008, Note_on_c, 0, 81, 79
2, 7031, Note_on_c, 0, 81, 0
2, 7032, Note_on_c, 0, 78, 78
2, 7055, Note_on_c, 0, 78, 0
2, 7056, Note_on_c, 0, 76, 77
2, 7079, Note_on_c, 0, 76, 0
2, 7080, Note_on_c, 0, 74, 76
2, 7103, Note_on_c, 0, 74, 0
2, 7104, Note_on_c, 0, 73, 75
2, 7127, Note_on_c, 0, 73, 0
2, 7128, Note_on_c, 0, 74, 76
2, 7151, Note_on_c, 0, 74, 0
2, 7152, Note_on_c, 0, 76, 78
2, 7175, Note_on_c, 0, 76, 0
2, 7176, Note_on_c, 0, 78, 79
2, 7199, Note_on_c, 0, 78, 0
2, 7200, Note_on_c, 0, 79, 81
2, 7223, Note_on_c, 0, 79, 0
2, 7224, Note_on_c, 0, 76, 79
2, 7247, Note_on_c, 0, 76, 0
2, 7248, Note_on_c, 0, 74, 78
2, 7271, Note_on_c, 0, 74, 0
2, 7272, Note_on_c, 0, 73, 76
2, 7295, Note_on_c, 0, 73, 0
2, 7296, Note_on_c, 0, 74, 75
2, 7385, Note_on_c, 0, 74, 0
2, 7392, Note_on_c, 0, 85, 86
2, 7398, Note_on_c, 0, 85, 0
2, 7398, Note_on_c, 0, 86, 102
2, 7488, Note_on_c, 0, 86, 0
2, 7680, Note_on_c, 0, 77, 75
2, 7747, Note_on_c, 0, 77, 0
2, 7752, Note_on_c, 0, 74, 75
2, 7764, Note_on_c, 0, 74, 0
2, 7764, Note_on_c, 0, 75, 75
2, 7776, Note_on_c, 0, 75, 0
2, 7776, Note_on_c, 0, 77, 75
2, 7821, Note_on_c, 0, 77, 0
2, 7920, Note_on_c, 0, 69, 75
2, 7940, Note_on_c, 0, 69, 0
2, 7968, Note_on_c, 0, 69, 75
2, 7988, Note_on_c, 0, 69, 0
2, 8016, Note_on_c, 0, 69, 75
2, 8036, Note_on_c, 0, 69, 0
2, 8064, Note_on_c, 0, 70, 75
2, 8131, Note_on_c, 0, 70, 0
2, 8136, Note_on_c, 0, 70, 75
2, 8148, Note_on_c, 0, 70, 0
2, 8148, Note_on_c, 0, 72, 75
2, 8160, Note_on_c, 0, 72, 0
2, 8160, Note_on_c, 0, 74, 75
2, 8205, Note_on_c, 0, 74, 0
2, 8304, Note_on_c, 0, 66, 75
2, 8324, Note_on_c, 0, 66, 0
2, 8352, Note_on_c, 0, 66, 75
2, 8372, Note_on_c, 0, 66, 0
2, 8400, Note_on_c, 0, 66, 75
2, 8420, Note_on_c, 0, 66, 0
2, 8448, Note_on_c, 0, 67, 75
2, 8515, Note_on_c, 0, 67, 0
2, 8520, Note_on_c, 0, 67, 75
2, 8532, Note_on_c, 0, 67, 0
2, 8532, Note_on_c, 0, 69, 75
2, 8544, Note_on_c, 0, 69, 0
2, 8544, Note_on_c, 0, 70, 75
2, 8589, Note_on_c, 0, 70, 0
2, 8688, Note_on_c, 0, 61, 75
2, 8708, Note_on_c, 0, 61, 0
2, 8736, Note_on_c, 0, 61, 75
2, 8756, Note_on_c, 0, 61, 0
2, 8784, Note_on_c, 0, 61, 75
2, 8804, Note_on_c, 0, 61, 0
2, 8832, Note_on_c, 0, 62, 81
2, 8899, Note_on_c, 0, 62, 0
2, 8904, Note_on_c, 0, 54, 81
2, 8916, Note_on_c, 0, 54, 0
2, 8916, Note_on_c, 0, 55, 81
2, 8928, Note_on_c, 0, 55, 0
2, 8928, Note_on_c, 0, 57, 81
2, 8973, Note_on_c, 0, 57, 0
2, 8976, Note_on_c, 0, 54, 81
2, 9021, Note_on_c, 0, 54, 0
2, 9024, Note_on_c, 0, 50, 81
2, 9113, Note_on_c, 0, 50, 0
2, 9216, Note_on_c, 0, 67, 75
2, 9283, Note_on_c, 0, 67, 0
2, 9288, Note_on_c, 0, 71, 75
2, 9300, Note_on_c, 0, 71, 0
2, 9300, Note_on_c, 0, 69, 75
2, 9312, Note_on_c, 0, 69, 0
2, 9312, Note_on_c, 0, 67, 75
2, 9357, Note_on_c, 0, 67, 0
2, 9456, Note_on_c, 0, 62, 75
2, 9476, Note_on_c, 0, 62, 0
2, 9504, Note_on_c, 0, 67, 77
2, 9524, Note_on_c, 0, 67, 0
2, 9552, Note_on_c, 0, 71, 79
2, 9572, Note_on_c, 0, 71, 0
2, 9600, Note_on_c, 0, 71, 81
2, 9623, Note_on_c, 0, 71, 0
2, 9624, Note_on_c, 0, 69, 80
2, 9647, Note_on_c, 0, 69, 0
2, 9648, Note_on_c, 0, 67, 79
2, 9671, Note_on_c, 0, 67, 0
2, 9672, Note_on_c, 0, 69, 78
2, 9695, Note_on_c, 0, 69, 0
2, 9696, Note_on_c, 0, 67, 77
2, 9741, Note_on_c, 0, 67, 0
2, 9744, Note_on_c, 0, 76, 75
2, 9764, Note_on_c, 0, 76, 0
2, 9792, Note_on_c, 0, 76, 75
2, 9812, Note_on_c, 0, 76, 0
2, 9840, Note_on_c, 0, 76, 75
2, 9860, Note_on_c, 0, 76, 0
2, 9888, Note_on_c, 0, 76, 75
2, 9908, Note_on_c, 0, 76, 0
2, 9936, Note_on_c, 0, 76, 75
2, 9956, Note_on_c, 0, 76, 0
2, 9984, Note_on_c, 0, 76, 75
2, 10051, Note_on_c, 0, 76, 0
2, 10056, Note_on_c, 0, 81, 75
2, 10068, Note_on_c, 0, 81, 0
2, 10068, Note_on_c, 0, 83, 75
2, 10080, Note_on_c, 0, 83, 0
2, 10080, Note_on_c, 0, 84, 75
2, 10125, Note_on_c, 0, 84, 0
2, 10128, Note_on_c, 0, 76, 75
2, 10148, Note_on_c, 0, 76, 0
2, 10176, Note_on_c, 0, 74, 75
2, 10196, Note_on_c, 0, 74, 0
2, 10224, Note_on_c, 0, 74, 75
2, 10244, Note_on_c, 0, 74, 0
2, 10272, Note_on_c, 0, 74, 75
2, 10292, Note_on_c, 0, 74, 0
2, 10320, Note_on_c, 0, 74, 75
2, 10340, Note_on_c, 0, 74, 0
2, 10368, Note_on_c, 0, 74, 75
2, 10435, Note_on_c, 0, 74, 0
2, 10440, Note_on_c, 0, 79, 75
2, 10452, Note_on_c, 0, 79, 0
2, 10452, Note_on_c, 0, 81, 75
2, 10464, Note_on_c, 0, 81, 0
2, 10464, Note_on_c, 0, 83, 75
2, 10509, Note_on_c, 0, 83, 0
2, 10920, Note_on_c, 0, 83, 63
2, 10932, Note_on_c, 0, 83, 0
2, 10932, Note_on_c, 0, 81, 63
2, 10944, Note_on_c, 0, 81, 0
2, 10944, Note_on_c, 0, 79, 63
2, 10964, Note_on_c, 0, 79, 0
2, 11016, Note_on_c, 0, 79, 63
2, 11028, Note_on_c, 0, 79, 0
2, 11028, Note_on_c, 0, 78, 63
2, 11040, Note_on_c, 0, 78, 0
2, 11040, Note_on_c, 0, 76, 63
2, 11060, Note_on_c, 0, 76, 0
2, 11112, Note_on_c, 0, 76, 63
2, 11124, Note_on_c, 0, 76, 0
2, 11124, Note_on_c, 0, 74, 63
2, 11136, Note_on_c, 0, 74, 0
2, 11136, Note_on_c, 0, 72, 63
2, 11175, Note_on_c, 0, 72, 0
2, 11304, Note_on_c, 0, 75, 63
2, 11316, Note_on_c, 0, 75, 0
2, 11316, Note_on_c, 0, 74, 63
2, 11328, Note_on_c, 0, 74, 0
2, 11328, Note_on_c, 0, 72, 63
2, 11348, Note_on_c, 0, 72, 0
2, 11376, Note_on_c, 0, 72, 63
2, 11396, Note_on_c, 0, 72, 0
2, 11424, Note_on_c, 0, 72, 63
2, 11444, Note_on_c, 0, 72, 0
2, 11472, Note_on_c, 0, 72, 63
2, 11492, Note_on_c, 0, 72, 0
2, 11520, Note_on_c, 0, 72, 63
2, 11587, Note_on_c, 0, 72, 0
2, 11592, Note_on_c, 0, 74, 65
2, 11604, Note_on_c, 0, 74, 0
2, 11604, Note_on_c, 0, 72, 65
2, 11616, Note_on_c, 0, 72, 0
2, 11616, Note_on_c, 0, 71, 66
2, 11661, Note_on_c, 0, 71, 0
2, 11664, Note_on_c, 0, 71, 67
2, 11709, Note_on_c, 0, 71, 0
2, 11712, Note_on_c, 0, 69, 69
2, 11760, Note_on_c, 0, 69, 0
2, 11760, Note_on_c, 0, 76, 70
2, 11805, Note_on_c, 0, 76, 0
2, 11808, Note_on_c, 0, 74, 72
2, 11856, Note_on_c, 0, 74, 0
2, 11856, Note_on_c, 0, 66, 73
2, 11901, Note_on_c, 0, 66, 0
2, 11904, Note_on_c, 0, 67, 75
2, 11927, Note_on_c, 0, 67, 0
2, 11928, Note_on_c, 0, 69, 77
2, 11951, Note_on_c, 0, 69, 0
2, 11952, Note_on_c, 0, 71, 79
2, 11975, Note_on_c, 0, 71, 0
2, 11976, Note_on_c, 0, 72, 81
2, 11999, Note_on_c, 0, 72, 0
2, 12000, Note_on_c, 0, 74, 79
2, 12023, Note_on_c, 0, 74, 0
2, 12024, Note_on_c, 0, 71, 78
2, 12047, Note_on_c, 0, 71, 0
2, 12048, Note_on_c, 0, 69, 76
2, 12071, Note_on_c, 0, 69, 0
2, 12072, Note_on_c, 0, 67, 75
2, 12095, Note_on_c, 0, 67, 0
2, 12096, Note_on_c, 0, 66, 75
2, 12119, Note_on_c, 0, 66, 0
2, 12120, Note_on_c, 0, 67, 76
2, 12143, Note_on_c, 0, 67, 0
2, 12144, Note_on_c, 0, 69, 78
2, 12167, Note_on_c, 0, 69, 0
2, 12168, Note_on_c, 0, 71, 79
2, 12191, Note_on_c, 0, 71, 0
2, 12192, Note_on_c, 0, 72, 81
2, 12215, Note_on_c, 0, 72, 0
2, 12216, Note_on_c, 0, 69, 79
2, 12239, Note_on_c, 0, 69, 0
2, 12240, Note_on_c, 0, 67, 78
2, 12263, Note_on_c, 0, 67, 0
2, 12264, Note_on_c, 0, 66, 76
2, 12287, Note_on_c, 0, 66, 0
2, 12288, Note_on_c, 0, 67, 75
2, 12311, Note_on_c, 0, 67, 0
2, 12312, Note_on_c, 0, 69, 76
2, 12335, Note_on_c, 0, 69, 0
2, 12336, Note_on_c, 0, 71, 78
2, 12359, Note_on_c, 0, 71, 0
2, 12360, Note_on_c, 0, 72, 79
2, 12383, Note_on_c, 0, 72, 0
2, 12384, Note_on_c, 0, 74, 81
2, 12407, Note_on_c, 0, 74, 0
2, 12408, Note_on_c, 0, 71, 79
2, 12431, Note_on_c, 0, 71, 0
2, 12432, Note_on_c, 0, 69, 78
2, 12455, Note_on_c, 0, 69, 0
2, 12456, Note_on_c, 0, 67, 76
2, 12479, Note_on_c, 0, 67, 0
2, 12480, Note_on_c, 0, 66, 75
2, 12503, Note_on_c, 0, 66, 0
2, 12504, Note_on_c, 0, 67, 76
2, 12527, Note_on_c, 0, 67, 0
2, 12528, Note_on_c, 0, 69, 78
2, 12551, Note_on_c, 0, 69, 0
2, 12552, Note_on_c, 0, 71, 79
2, 12575, Note_on_c, 0, 71, 0
2, 12576, Note_on_c, 0, 72, 81
2, 12599, Note_on_c, 0, 72, 0
2, 12600, Note_on_c, 0, 69, 79
2, 12623, Note_on_c, 0, 69, 0
2, 12624, Note_on_c, 0, 67, 78
2, 12647, Note_on_c, 0, 67, 0
2, 12648, Note_on_c, 0, 66, 76
2, 12671, Note_on_c, 0, 66, 0
2, 12672, Note_on_c, 0, 67, 75
2, 12761, Note_on_c, 0, 67, 0
2, 12768, Note_on_c, 0, 78, 86
2, 12774, Note_on_c, 0, 78, 0
2, 12774, Note_on_c, 0, 79, 102
2, 12864, Note_on_c, 0, 79, 0
2, 13056, Note_on_c, 0, 77, 75
2, 13123, Note_on_c, 0, 77, 0
2, 13128, Note_on_c, 0, 74, 75
2, 13140, Note_on_c, 0, 74, 0
2, 13140, Note_on_c, 0, 75, 75
2, 13152, Note_on_c, 0, 75, 0
2, 13152, Note_on_c, 0, 77, 75
2, 13197, Note_on_c, 0, 77, 0
2, 13296, Note_on_c, 0, 69, 75
2, 13316, Note_on_c, 0, 69, 0
2, 13344, Note_on_c, 0, 69, 75
2, 13364, Note_on_c, 0, 69, 0
2, 13392, Note_on_c, 0, 69, 75
2, 13412, Note_on_c, 0, 69, 0
2, 13440, Note_on_c, 0, 70, 75
2, 13507, Note_on_c, 0, 70, 0
2, 13512, Note_on_c, 0, 70, 75
2, 13524, Note_on_c, 0, 70, 0
2, 13524, Note_on_c, 0, 72, 75
2, 13536, Note_on_c, 0, 72, 0
2, 13536, Note_on_c, 0, 74, 75
2, 13581, Note_on_c, 0, 74, 0
2, 13680, Note_on_c, 0, 66, 75
2, 13700, Note_on_c, 0, 66, 0
2, 13728, Note_on_c, 0, 66, 75
2, 13748, Note_on_c, 0, 66, 0
2, 13776, Note_on_c, 0, 66, 75
2, 13796, Note_on_c, 0, 66, 0
2, 13824, Note_on_c, 0, 67, 75
2, 13891, Note_on_c, 0, 67, 0
2, 13896, Note_on_c, 0, 67, 75
2, 13908, Note_on_c, 0, 67, 0
2, 13908, Note_on_c, 0, 69, 75
2, 13920, Note_on_c, 0, 69, 0
2, 13920, Note_on_c, 0, 70, 75
2, 13965, Note_on_c, 0, 70, 0
2, 14064, Note_on_c, 0, 61, 75
2, 14084, Note_on_c, 0, 61, 0
2, 14112, Note_on_c, 0, 61, 75
2, 14132, Note_on_c, 0, 61, 0
2, 14160, Note_on_c, 0, 61, 75
2, 14180, Note_on_c, 0, 61, 0
2, 14208, Note_on_c, 0, 62, 81
2, 14275, Note_on_c, 0, 62, 0
2, 14280, Note_on_c, 0, 54, 81
2, 14292, Note_on_c, 0, 54, 0
2, 14292, Note_on_c, 0, 55, 81
2, 14304, Note_on_c, 0, 55, 0
2, 14304, Note_on_c, 0, 57, 81
2, 14349, Note_on_c, 0, 57, 0
2, 14352, Note_on_c, 0, 54, 81
2, 14397, Note_on_c, 0, 54, 0
2, 14400, Note_on_c, 0, 50, 81
2, 14489, Note_on_c, 0, 50, 0
2, 14592, Note_on_c, 0, 67, 75
2, 14659, Note_on_c, 0, 67, 0
2, 14664, Note_on_c, 0, 71, 75
2, 14676, Note_on_c, 0, 71, 0
2, 14676, Note_on_c, 0, 69, 75
2, 14688, Note_on_c, 0, 69, 0
2, 14688, Note_on_c, 0, 67, 75
2, 14733, Note_on_c, 0, 67, 0
2, 14832, Note_on_c, 0, 62, 75
2, 14852, Note_on_c, 0, 62, 0
2, 14880, Note_on_c, 0, 67, 77
2, 14900, Note_on_c, 0, 67, 0
2, 14928, Note_on_c, 0, 71, 79
2, 14948, Note_on_c, 0, 71, 0
2, 14976, Note_on_c, 0, 71, 81
2, 14999, Note_on_c, 0, 71, 0
2, 15000, Note_on_c, 0, 69, 80
2, 15023, Note_on_c, 0, 69, 0
2, 15024, Note_on_c, 0, 67, 79
2, 15047, Note_on_c, 0, 67, 0
2, 15048, Note_on_c, 0, 69, 78
2, 15071, Note_on_c, 0, 69, 0
2, 15072, Note_on_c, 0, 67, 77
2, 15117, Note_on_c, 0, 67, 0
2, 15120, Note_on_c, 0, 76, 75
2, 15140, Note_on_c, 0, 76, 0
2, 15168, Note_on_c, 0, 76, 75
2, 15188, Note_on_c, 0, 76, 0
2, 15216, Note_on_c, 0, 76, 75
2, 15236, Note_on_c, 0, 76, 0
2, 15264, Note_on_c, 0, 76, 75
2, 15284, Note_on_c, 0, 76, 0
2, 15312, Note_on_c, 0, 76, 75
2, 15332, Note_on_c, 0, 76, 0
2, 15360, Note_on_c, 0, 76, 75
2, 15427, Note_on_c, 0, 76, 0
2, 15432, Note_on_c, 0, 81, 75
2, 15444, Note_on_c, 0, 81, 0
2, 15444, Note_on_c, 0, 83, 75
2, 15456, Note_on_c, 0, 83, 0
2, 15456, Note_on_c, 0, 84, 75
2, 15501, Note_on_c, 0, 84, 0
2, 15504, Note_on_c, 0, 76, 75
2, 15524, Note_on_c, 0, 76, 0
2, 15552, Note_on_c, 0, 74, 75
2, 15572, Note_on_c, 0, 74, 0
2, 15600, Note_on_c, 0, 74, 75
2, 15620, Note_on_c, 0, 74, 0
2, 15648, Note_on_c, 0, 74, 75
2, 15668, Note_on_c, 0, 74, 0
2, 15696, Note_on_c, 0, 74, 75
2, 15716, Note_on_c, 0, 74, 0
2, 15744, Note_on_c, 0, 74, 75
2, 15811, Note_on_c, 0, 74, 0
2, 15816, Note_on_c, 0, 79, 75
2, 15828, Note_on_c, 0, 79, 0
2, 15828, Note_on_c, 0, 81, 75
2, 15840, Note_on_c, 0, 81, 0
2, 15840, Note_on_c, 0, 83, 75
2, 15885, Note_on_c, 0, 83, 0
2, 16296, Note_on_c, 0, 83, 63
2, 16308, Note_on_c, 0, 83, 0
2, 16308, Note_on_c, 0, 81, 63
2, 16320, Note_on_c, 0, 81, 0
2, 16320, Note_on_c, 0, 79, 63
2, 16340, Note_on_c, 0, 79, 0
2, 16392, Note_on_c, 0, 79, 63
2, 16404, Note_on_c, 0, 79, 0
2, 16404, Note_on_c, 0, 78, 63
2, 16416, Note_on_c, 0, 78, 0
2, 16416, Note_on_c, 0, 76, 63
2, 16436, Note_on_c, 0, 76, 0
2, 16488, Note_on_c, 0, 76, 63
2, 16500, Note_on_c, 0, 76, 0
2, 16500, Note_on_c, 0, 74, 63
2, 16512, Note_on_c, 0, 74, 0
2, 16512, Note_on_c, 0, 72, 63
2, 16551, Note_on_c, 0, 72, 0
2, 16680, Note_on_c, 0, 75, 63
2, 16692, Note_on_c, 0, 75, 0
2, 16692, Note_on_c, 0, 74, 63
2, 16704, Note_on_c, 0, 74, 0
2, 16704, Note_on_c, 0, 72, 63
2, 16724, Note_on_c, 0, 72, 0
2, 16752, Note_on_c, 0, 72, 63
2, 16772, Note_on_c, 0, 72, 0
2, 16800, Note_on_c, 0, 72, 63
2, 16820, Note_on_c, 0, 72, 0
2, 16848, Note_on_c, 0, 72, 63
2, 16868, Note_on_c, 0, 72, 0
2, 16896, Note_on_c, 0, 72, 63
2, 16963, Note_on_c, 0, 72, 0
2, 16968, Note_on_c, 0, 74, 65
2, 16980, Note_on_c, 0, 74, 0
2, 16980, Note_on_c, 0, 72, 65
2, 16992, Note_on_c, 0, 72, 0
2, 16992, Note_on_c, 0, 71, 66
2, 17037, Note_on_c, 0, 71, 0
2, 17040, Note_on_c, 0, 71, 67
2, 17085, Note_on_c, 0, 71, 0
2, 17088, Note_on_c, 0, 69, 69
2, 17136, Note_on_c, 0, 69, 0
2, 17136, Note_on_c, 0, 76, 70
2, 17181, Note_on_c, 0, 76, 0
2, 17184, Note_on_c, 0, 74, 72
2, 17232, Note_on_c, 0, 74, 0
2, 17232, Note_on_c, 0, 66, 73
2, 17277, Note_on_c, 0, 66, 0
2, 17280, Note_on_c, 0, 67, 75
2, 17303, Note_on_c, 0, 67, 0
2, 17304, Note_on_c, 0, 69, 77
2, 17327, Note_on_c, 0, 69, 0
2, 17328, Note_on_c, 0, 71, 79
2, 17351, Note_on_c, 0, 71, 0
2, 17352, Note_on_c, 0, 72, 81
2, 17375, Note_on_c, 0, 72, 0
2, 17376, Note_on_c, 0, 74, 79
2, 17399, Note_on_c, 0, 74, 0
2, 17400, Note_on_c, 0, 71, 78
2, 17423, Note_on_c, 0, 71, 0
2, 17424, Note_on_c, 0, 69, 76
2, 17447, Note_on_c, 0, 69, 0
2, 17448, Note_on_c, 0, 67, 75
2, 17471, Note_on_c, 0, 67, 0
2, 17472, Note_on_c, 0, 66, 75
2, 17495, Note_on_c, 0, 66, 0
2, 17496, Note_on_c, 0, 67, 76
2, 17519, Note_on_c, 0, 67, 0
2, 17520, Note_on_c, 0, 69, 78
2, 17543, Note_on_c, 0, 69, 0
2, 17544, Note_on_c, 0, 71, 79
2, 17567, Note_on_c, 0, 71, 0
2, 17568, Note_on_c, 0, 72, 81
2, 17591, Note_on_c, 0, 72, 0
2, 17592, Note_on_c, 0, 69, 79
2, 17615, Note_on_c, 0, 69, 0
2, 17616, Note_on_c, 0, 67, 78
2, 17639, Note_on_c, 0, 67, 0
2, 17640, Note_on_c, 0, 66, 76
2, 17663, Note_on_c, 0, 66, 0
2, 17664, Note_on_c, 0, 67, 75
2, 17687, Note_on_c, 0, 67, 0
2, 17688, Note_on_c, 0, 69, 76
2, 17711, Note_on_c, 0, 69, 0
2, 17712, Note_on_c, 0, 71, 78
2, 17735, Note_on_c, 0, 71, 0
2, 17736, Note_on_c, 0, 72, 79
2, 17759, Note_on_c, 0, 72, 0
2, 17760, Note_on_c, 0, 74, 81
2, 17783, Note_on_c, 0, 74, 0
2, 17784, Note_on_c, 0, 71, 79
2, 17807, Note_on_c, 0, 71, 0
2, 17808, Note_on_c, 0, 69, 78
2, 17831, Note_on_c, 0, 69, 0
2, 17832, Note_on_c, 0, 67, 76
2, 17855, Note_on_c, 0, 67, 0
2, 17856, Note_on_c, 0, 66, 75
2, 17879, Note_on_c, 0, 66, 0
2, 17880, Note_on_c, 0, 67, 76
2, 17903, Note_on_c, 0, 67, 0
2, 17904, Note_on_c, 0, 69, 78
2, 17927, Note_on_c, 0, 69, 0
2, 17928, Note_on_c, 0, 71, 79
2, 17951, Note_on_c, 0, 71, 0
2, 17952, Note_on_c, 0, 72, 81
2, 17975, Note_on_c, 0, 72, 0
2, 17976, Note_on_c, 0, 69, 79
2, 17999, Note_on_c, 0, 69, 0
2, 18000, Note_on_c, 0, 67, 78
2, 18023, Note_on_c, 0, 67, 0
2, 18024, Note_on_c, 0, 66, 76
2, 18047, Note_on_c, 0, 66, 0
2, 18048, Note_on_c, 0, 67, 75
2, 18137, Note_on_c, 0, 67, 0
2, 18144, Note_on_c, 0, 78, 86
2, 18150, Note_on_c, 0, 78, 0
2, 18150, Note_on_c, 0, 79, 102
2, 18240, Note_on_c, 0, 79, 0
2, 18480, Note_on_c, 0, 64, 75
2, 18500, Note_on_c, 0, 64, 0
2, 18528, Note_on_c, 0, 76, 75
2, 18661, Note_on_c, 0, 76, 0
2, 18672, Note_on_c, 0, 75, 75
2, 18692, Note_on_c, 0, 75, 0
2, 18720, Note_on_c, 0, 78, 76
2, 18861, Note_on_c, 0, 78, 0
2, 18864, Note_on_c, 0, 76, 77
2, 18884, Note_on_c, 0, 76, 0
2, 18912, Note_on_c, 0, 79, 77
2, 19045, Note_on_c, 0, 79, 0
2, 19056, Note_on_c, 0, 78, 78
2, 19076, Note_on_c, 0, 78, 0
2, 19104, Note_on_c, 0, 83, 78
2, 19245, Note_on_c, 0, 83, 0
2, 19248, Note_on_c, 0, 82, 79
2, 19293, Note_on_c, 0, 82, 0
2, 19296, Note_on_c, 0, 88, 96
2, 19296, Note_on_c, 0, 85, 96
2, 19440, Note_on_c, 0, 88, 0
2, 19440, Note_on_c, 0, 85, 0
2, 19440, Note_on_c, 0, 86, 81
2, 19440, Note_on_c, 0, 83, 81
2, 19529, Note_on_c, 0, 86, 0
2, 19529, Note_on_c, 0, 83, 0
2, 19536, Note_on_c, 0, 85, 79
2, 19536, Note_on_c, 0, 76, 79
2, 19629, Note_on_c, 0, 85, 0
2, 19629, Note_on_c, 0, 76, 0
2, 19632, Note_on_c, 0, 83, 77
2, 19632, Note_on_c, 0, 74, 77
2, 19721, Note_on_c, 0, 83, 0
2, 19721, Note_on_c, 0, 74, 0
2, 19728, Note_on_c, 0, 82, 75
2, 19728, Note_on_c, 0, 73, 75
2, 19773, Note_on_c, 0, 82, 0
2, 19773, Note_on_c, 0, 73, 0
2, 19824, Note_on_c, 0, 71, 75
2, 19869, Note_on_c, 0, 71, 0
2, 19872, Note_on_c, 0, 83, 75
2, 19917, Note_on_c, 0, 83, 0
2, 20016, Note_on_c, 0, 64, 75
2, 20036, Note_on_c, 0, 64, 0
2, 20064, Note_on_c, 0, 76, 75
2, 20197, Note_on_c, 0, 76, 0
2, 20208, Note_on_c, 0, 75, 76
2, 20228, Note_on_c, 0, 75, 0
2, 20256, Note_on_c, 0, 78, 76
2, 20397, Note_on_c, 0, 78, 0
2, 20400, Note_on_c, 0, 76, 77
2, 20420, Note_on_c, 0, 76, 0
2, 20448, Note_on_c, 0, 79, 78
2, 20581, Note_on_c, 0, 79, 0
2, 20592, Note_on_c, 0, 78, 79
2, 20612, Note_on_c, 0, 78, 0
2, 20640, Note_on_c, 0, 83, 79
2, 20781, Note_on_c, 0, 83, 0
2, 20784, Note_on_c, 0, 82, 80
2, 20804, Note_on_c, 0, 82, 0
2, 20832, Note_on_c, 0, 88, 97
2, 20832, Note_on_c, 0, 85, 97
2, 20976, Note_on_c, 0, 88, 0
2, 20976, Note_on_c, 0, 85, 0
2, 20976, Note_on_c, 0, 86, 81
2, 20976, Note_on_c, 0, 83, 81
2, 21065, Note_on_c, 0, 86, 0
2, 21065, Note_on_c, 0, 83, 0
2, 21072, Note_on_c, 0, 85, 79
2, 21072, Note_on_c, 0, 76, 79
2, 21165, Note_on_c, 0, 85, 0
2, 21165, Note_on_c, 0, 76, 0
2, 21168, Note_on_c, 0, 83, 77
2, 21168, Note_on_c, 0, 74, 77
2, 21257, Note_on_c, 0, 83, 0
2, 21257, Note_on_c, 0, 74, 0
2, 21264, Note_on_c, 0, 82, 75
2, 21264, Note_on_c, 0, 73, 75
2, 21309, Note_on_c, 0, 82, 0
2, 21309, Note_on_c, 0, 73, 0
2, 21360, Note_on_c, 0, 71, 75
2, 21405, Note_on_c, 0, 71, 0
2, 21408, Note_on_c, 0, 83, 75
2, 21453, Note_on_c, 0, 83, 0
2, 21552, Note_on_c, 0, 69, 81
2, 21572, Note_on_c, 0, 69, 0
2, 21600, Note_on_c, 0, 81, 81
2, 21733, Note_on_c, 0, 81, 0
2, 21744, Note_on_c, 0, 80, 81
2, 21789, Note_on_c, 0, 80, 0
2, 21792, Note_on_c, 0, 86, 81
2, 21933, Note_on_c, 0, 86, 0
2, 21936, Note_on_c, 0, 84, 78
2, 22025, Note_on_c, 0, 84, 0
2, 22032, Note_on_c, 0, 83, 72
2, 22121, Note_on_c, 0, 83, 0
2, 22128, Note_on_c, 0, 81, 66
2, 22173, Note_on_c, 0, 81, 0
2, 22224, Note_on_c, 0, 78, 63
2, 22244, Note_on_c, 0, 78, 0
2, 22272, Note_on_c, 0, 79, 63
2, 22405, Note_on_c, 0, 79, 0
2, 22416, Note_on_c, 0, 78, 63
2, 22436, Note_on_c, 0, 78, 0
2, 22464, Note_on_c, 0, 84, 63
2, 22464, Note_on_c, 0, 81, 63
2, 22597, Note_on_c, 0, 84, 0
2, 22597, Note_on_c, 0, 81, 0
2, 22608, Note_on_c, 0, 83, 63
2, 22608, Note_on_c, 0, 79, 63
2, 22701, Note_on_c, 0, 83, 0
2, 22701, Note_on_c, 0, 79, 0
2, 22704, Note_on_c, 0, 81, 63
2, 22704, Note_on_c, 0, 78, 63
2, 22793, Note_on_c, 0, 81, 0
2, 22793, Note_on_c, 0, 78, 0
2, 22800, Note_on_c, 0, 79, 63
2, 22800, Note_on_c, 0, 76, 63
2, 22896, Note_on_c, 0, 79, 0
2, 22896, Note_on_c, 0, 76, 0
2, 22896, Note_on_c, 0, 78, 63
2, 22896, Note_on_c, 0, 75, 63
2, 22941, Note_on_c, 0, 78, 0
2, 22941, Note_on_c, 0, 75, 0
2, 22944, Note_on_c, 0, 83, 81
2, 22967, Note_on_c, 0, 83, 0
2, 22968, Note_on_c, 0, 81, 81
2, 22991, Note_on_c, 0, 81, 0
2, 22992, Note_on_c, 0, 79, 81
2, 23015, Note_on_c, 0, 79, 0
2, 23016, Note_on_c, 0, 78, 81
2, 23039, Note_on_c, 0, 78, 0
2, 23040, Note_on_c, 0, 76, 81
2, 23129, Note_on_c, 0, 76, 0
2, 23184, Note_on_c, 0, 76, 81
2, 23184, Note_on_c, 0, 67, 81
2, 23229, Note_on_c, 0, 76, 0
2, 23229, Note_on_c, 0, 67, 0
2, 23232, Note_on_c, 0, 78, 81
2, 23232, Note_on_c, 0, 69, 81
2, 23365, Note_on_c, 0, 78, 0
2, 23365, Note_on_c, 0, 69, 0
2, 23376, Note_on_c, 0, 78, 81
2, 23376, Note_on_c, 0, 69, 81
2, 23421, Note_on_c, 0, 78, 0
2, 23421, Note_on_c, 0, 69, 0
2, 23424, Note_on_c, 0, 79, 81
2, 23424, Note_on_c, 0, 71, 81
2, 23557, Note_on_c, 0, 79, 0
2, 23557, Note_on_c, 0, 71, 0
2, 23568, Note_on_c, 0, 79, 81
2, 23568, Note_on_c, 0, 71, 81
2, 23613, Note_on_c, 0, 79, 0
2, 23613, Note_on_c, 0, 71, 0
2, 23616, Note_on_c, 0, 81, 81
2, 23749, Note_on_c, 0, 81, 0
2, 23760, Note_on_c, 0, 78, 81
2, 23805, Note_on_c, 0, 78, 0
2, 23808, Note_on_c, 0, 75, 81
2, 23941, Note_on_c, 0, 75, 0
2, 23952, Note_on_c, 0, 72, 81
2, 23997, Note_on_c, 0, 72, 0
2, 24000, Note_on_c, 0, 69, 81
2, 24133, Note_on_c, 0, 69, 0
2, 24144, Note_on_c, 0, 66, 81
2, 24189, Note_on_c, 0, 66, 0
2, 24192, Note_on_c, 0, 63, 81
2, 24325, Note_on_c, 0, 63, 0
2, 24336, Note_on_c, 0, 63, 81
2, 24359, Note_on_c, 0, 63, 0
2, 24360, Note_on_c, 0, 60, 81
2, 24383, Note_on_c, 0, 60, 0
2, 24384, Note_on_c, 0, 57, 81
2, 24429, Note_on_c, 0, 57, 0
2, 24432, Note_on_c, 0, 60, 81
2, 24455, Note_on_c, 0, 60, 0
2, 24456, Note_on_c, 0, 57, 81
2, 24479, Note_on_c, 0, 57, 0
2, 24480, Note_on_c, 0, 54, 81
2, 24525, Note_on_c, 0, 54, 0
2, 24528, Note_on_c, 0, 57, 81
2, 24551, Note_on_c, 0, 57, 0
2, 24552, Note_on_c, 0, 54, 81
2, 24575, Note_on_c, 0, 54, 0
2, 24576, Note_on_c, 0, 51, 81
2, 24665, Note_on_c, 0, 51, 0
2, 24720, Note_on_c, 0, 84, 63
2, 24743, Note_on_c, 0, 84, 0
2, 24744, Note_on_c, 0, 81, 63
2, 24767, Note_on_c, 0, 81, 0
2, 24768, Note_on_c, 0, 78, 63
2, 24813, Note_on_c, 0, 78, 0
2, 24816, Note_on_c, 0, 81, 63
2, 24839, Note_on_c, 0, 81, 0
2, 24840, Note_on_c, 0, 78, 63
2, 24863, Note_on_c, 0, 78, 0
2, 24864, Note_on_c, 0, 75, 63
2, 24909, Note_on_c, 0, 75, 0
2, 24912, Note_on_c, 0, 78, 63
2, 24935, Note_on_c, 0, 78, 0
2, 24936, Note_on_c, 0, 75, 63
2, 24959, Note_on_c, 0, 75, 0
2, 24960, Note_on_c, 0, 72, 63
2, 25049, Note_on_c, 0, 72, 0
2, 25200, Note_on_c, 0, 60, 81
2, 25248, Note_on_c, 0, 60, 0
2, 25248, Note_on_c, 0, 59, 81
2, 25293, Note_on_c, 0, 59, 0
2, 25296, Note_on_c, 0, 69, 81
2, 25341, Note_on_c, 0, 69, 0
2, 25392, Note_on_c, 0, 67, 81
2, 25392, Note_on_c, 0, 59, 81
2, 25437, Note_on_c, 0, 67, 0
2, 25437, Note_on_c, 0, 59, 0
2, 25488, Note_on_c, 0, 66, 81
2, 25488, Note_on_c, 0, 57, 81
2, 25533, Note_on_c, 0, 66, 0
2, 25533, Note_on_c, 0, 57, 0
2, 25584, Note_on_c, 0, 64, 81
2, 25584, Note_on_c, 0, 55, 81
2, 25629, Note_on_c, 0, 64, 0
2, 25629, Note_on_c, 0, 55, 0
2, 25680, Note_on_c, 0, 63, 81
2, 25680, Note_on_c, 0, 54, 81
2, 25725, Note_on_c, 0, 63, 0
2, 25725, Note_on_c, 0, 54, 0
2, 25728, Note_on_c, 0, 64, 81
2, 25728, Note_on_c, 0, 55, 81
2, 25817, Note_on_c, 0, 64, 0
2, 25817, Note_on_c, 0, 55, 0
2, 25872, Note_on_c, 0, 87, 81
2, 25920, Note_on_c, 0, 87, 0
2, 25920, Note_on_c, 0, 88, 97
2, 26016, Note_on_c, 0, 88, 0
2, 26064, Note_on_c, 0, 64, 81
2, 26112, Note_on_c, 0, 64, 0
2, 26112, Note_on_c, 0, 65, 81
2, 26112, Note_on_c, 0, 62, 81
2, 26201, Note_on_c, 0, 65, 0
2, 26201, Note_on_c, 0, 62, 0
2, 26256, Note_on_c, 0, 65, 81
2, 26256, Note_on_c, 0, 62, 81
2, 26304, Note_on_c, 0, 65, 0
2, 26304, Note_on_c, 0, 62, 0
2, 26304, Note_on_c, 0, 68, 81
2, 26304, Note_on_c, 0, 59, 81
2, 26393, Note_on_c, 0, 68, 0
2, 26393, Note_on_c, 0, 59, 0
2, 26448, Note_on_c, 0, 68, 81
2, 26448, Note_on_c, 0, 59, 81
2, 26496, Note_on_c, 0, 68, 0
2, 26496, Note_on_c, 0, 59, 0
2, 26496, Note_on_c, 0, 69, 81
2, 26496, Note_on_c, 0, 60, 81
2, 26585, Note_on_c, 0, 69, 0
2, 26585, Note_on_c, 0, 60, 0
2, 26640, Note_on_c, 0, 69, 81
2, 26640, Note_on_c, 0, 60, 81
2, 26688, Note_on_c, 0, 69, 0
2, 26688, Note_on_c, 0, 60, 0
2, 26688, Note_on_c, 0, 67, 81
2, 26688, Note_on_c, 0, 61, 81
2, 26777, Note_on_c, 0, 67, 0
2, 26777, Note_on_c, 0, 61, 0
2, 26832, Note_on_c, 0, 67, 81
2, 26832, Note_on_c, 0, 61, 81
2, 26880, Note_on_c, 0, 67, 0
2, 26880, Note_on_c, 0, 61, 0
2, 26880, Note_on_c, 0, 66, 81
2, 26880, Note_on_c, 0, 62, 81
2, 26969, Note_on_c, 0, 66, 0
2, 26969, Note_on_c, 0, 62, 0
2, 27024, Note_on_c, 0, 85, 81
2, 27072, Note_on_c, 0, 85, 0
2, 27072, Note_on_c, 0, 86, 97
2, 27168, Note_on_c, 0, 86, 0
2, 27216, Note_on_c, 0, 62, 63
2, 27264, Note_on_c, 0, 62, 0
2, 27264, Note_on_c, 0, 64, 63
2, 27264, Note_on_c, 0, 61, 63
2, 27353, Note_on_c, 0, 64, 0
2, 27353, Note_on_c, 0, 61, 0
2, 27408, Note_on_c, 0, 64, 67
2, 27408, Note_on_c, 0, 61, 67
2, 27456, Note_on_c, 0, 64, 0
2, 27456, Note_on_c, 0, 61, 0
2, 27456, Note_on_c, 0, 66, 69
2, 27456, Note_on_c, 0, 60, 69
2, 27545, Note_on_c, 0, 66, 0
2, 27545, Note_on_c, 0, 60, 0
2, 27600, Note_on_c, 0, 62, 73
2, 27645, Note_on_c, 0, 62, 0
2, 27648, Note_on_c, 0, 67, 75
2, 27715, Note_on_c, 0, 67, 0
2, 27720, Note_on_c, 0, 71, 75
2, 27732, Note_on_c, 0, 71, 0
2, 27732, Note_on_c, 0, 69, 75
2, 27744, Note_on_c, 0, 69, 0
2, 27744, Note_on_c, 0, 67, 75
2, 27789, Note_on_c, 0, 67, 0
2, 27888, Note_on_c, 0, 62, 75
2, 27908, Note_on_c, 0, 62, 0
2, 27936, Note_on_c, 0, 67, 77
2, 27956, Note_on_c, 0, 67, 0
2, 27984, Note_on_c, 0, 71, 79
2, 28004, Note_on_c, 0, 71, 0
2, 28032, Note_on_c, 0, 71, 81
2, 28055, Note_on_c, 0, 71, 0
2, 28056, Note_on_c, 0, 69, 79
2, 28079, Note_on_c, 0, 69, 0
2, 28080, Note_on_c, 0, 67, 78
2, 28103, Note_on_c, 0, 67, 0
2, 28104, Note_on_c, 0, 69, 76
2, 28127, Note_on_c, 0, 69, 0
2, 28128, Note_on_c, 0, 67, 75
2, 28173, Note_on_c, 0, 67, 0
2, 28176, Note_on_c, 0, 74, 75
2, 28196, Note_on_c, 0, 74, 0
2, 28224, Note_on_c, 0, 74, 75
2, 28244, Note_on_c, 0, 74, 0
2, 28272, Note_on_c, 0, 74, 75
2, 28292, Note_on_c, 0, 74, 0
2, 28320, Note_on_c, 0, 74, 75
2, 28340, Note_on_c, 0, 74, 0
2, 28368, Note_on_c, 0, 74, 75
2, 28388, Note_on_c, 0, 74, 0
2, 28416, Note_on_c, 0, 74, 75
2, 28483, Note_on_c, 0, 74, 0
2, 28488, Note_on_c, 0, 76, 77
2, 28500, Note_on_c, 0, 76, 0
2, 28500, Note_on_c, 0, 74, 77
2, 28512, Note_on_c, 0, 74, 0
2, 28512, Note_on_c, 0, 72, 78
2, 28557, Note_on_c, 0, 72, 0
2, 28560, Note_on_c, 0, 71, 79
2, 28605, Note_on_c, 0, 71, 0
2, 28608, Note_on_c, 0, 69, 81
2, 28628, Note_on_c, 0, 69, 0
2, 28656, Note_on_c, 0, 81, 97
2, 28752, Note_on_c, 0, 81, 0
2, 28752, Note_on_c, 0, 79, 81
2, 28797, Note_on_c, 0, 79, 0
2, 28800, Note_on_c, 0, 79, 81
2, 28823, Note_on_c, 0, 79, 0
2, 28824, Note_on_c, 0, 78, 81
2, 28847, Note_on_c, 0, 78, 0
2, 28848, Note_on_c, 0, 76, 81
2, 28871, Note_on_c, 0, 76, 0
2, 28872, Note_on_c, 0, 74, 81
2, 28895, Note_on_c, 0, 74, 0
2, 28896, Note_on_c, 0, 74, 81
2, 28941, Note_on_c, 0, 74, 0
2, 28944, Note_on_c, 0, 74, 80
2, 28989, Note_on_c, 0, 74, 0
2, 28992, Note_on_c, 0, 74, 79
2, 29015, Note_on_c, 0, 74, 0
2, 29016, Note_on_c, 0, 76, 78
2, 29039, Note_on_c, 0, 76, 0
2, 29040, Note_on_c, 0, 72, 78
2, 29063, Note_on_c, 0, 72, 0
2, 29064, Note_on_c, 0, 74, 77
2, 29087, Note_on_c, 0, 74, 0
2, 29088, Note_on_c, 0, 71, 77
2, 29111, Note_on_c, 0, 71, 0
2, 29112, Note_on_c, 0, 72, 76
2, 29135, Note_on_c, 0, 72, 0
2, 29136, Note_on_c, 0, 69, 76
2, 29159, Note_on_c, 0, 69, 0
2, 29160, Note_on_c, 0, 71, 75
2, 29183, Note_on_c, 0, 71, 0
2, 29184, Note_on_c, 0, 67, 75
2, 29251, Note_on_c, 0, 67, 0
2, 29256, Note_on_c, 0, 71, 75
2, 29268, Note_on_c, 0, 71, 0
2, 29268, Note_on_c, 0, 69, 75
2, 29280, Note_on_c, 0, 69, 0
2, 29280, Note_on_c, 0, 67, 75
2, 29303, Note_on_c, 0, 67, 0
2, 29304, Note_on_c, 0, 62, 75
2, 29327, Note_on_c, 0, 62, 0
2, 29328, Note_on_c, 0, 71, 76
2, 29351, Note_on_c, 0, 71, 0
2, 29352, Note_on_c, 0, 69, 77
2, 29375, Note_on_c, 0, 69, 0
2, 29376, Note_on_c, 0, 67, 78
2, 29399, Note_on_c, 0, 67, 0
2, 29400, Note_on_c, 0, 62, 78
2, 29423, Note_on_c, 0, 62, 0
2, 29424, Note_on_c, 0, 67, 79
2, 29447, Note_on_c, 0, 67, 0
2, 29448, Note_on_c, 0, 71, 80
2, 29471, Note_on_c, 0, 71, 0
2, 29472, Note_on_c, 0, 74, 81
2, 29495, Note_on_c, 0, 74, 0
2, 29496, Note_on_c, 0, 71, 80
2, 29519, Note_on_c, 0, 71, 0
2, 29520, Note_on_c, 0, 69, 79
2, 29543, Note_on_c, 0, 69, 0
2, 29544, Note_on_c, 0, 67, 79
2, 29567, Note_on_c, 0, 67, 0
2, 29568, Note_on_c, 0, 71, 78
2, 29591, Note_on_c, 0, 71, 0
2, 29592, Note_on_c, 0, 69, 78
2, 29615, Note_on_c, 0, 69, 0
2, 29616, Note_on_c, 0, 67, 77
2, 29639, Note_on_c, 0, 67, 0
2, 29640, Note_on_c, 0, 69, 76
2, 29663, Note_on_c, 0, 69, 0
2, 29664, Note_on_c, 0, 67, 76
2, 29709, Note_on_c, 0, 67, 0
2, 29712, Note_on_c, 0, 76, 75
2, 29757, Note_on_c, 0, 76, 0
2, 29760, Note_on_c, 0, 75, 75
2, 29783, Note_on_c, 0, 75, 0
2, 29784, Note_on_c, 0, 76, 75
2, 29807, Note_on_c, 0, 76, 0
2, 29808, Note_on_c, 0, 77, 76
2, 29831, Note_on_c, 0, 77, 0
2, 29832, Note_on_c, 0, 78, 76
2, 29855, Note_on_c, 0, 78, 0
2, 29856, Note_on_c, 0, 79, 77
2, 29879, Note_on_c, 0, 79, 0
2, 29880, Note_on_c, 0, 80, 77
2, 29903, Note_on_c, 0, 80, 0
2, 29904, Note_on_c, 0, 81, 78
2, 29927, Note_on_c, 0, 81, 0
2, 29928, Note_on_c, 0, 82, 78
2, 29951, Note_on_c, 0, 82, 0
2, 29952, Note_on_c, 0, 83, 79
2, 30041, Note_on_c, 0, 83, 0
2, 30048, Note_on_c, 0, 81, 81
2, 30071, Note_on_c, 0, 81, 0
2, 30072, Note_on_c, 0, 79, 80
2, 30095, Note_on_c, 0, 79, 0
2, 30096, Note_on_c, 0, 78, 80
2, 30119, Note_on_c, 0, 78, 0
2, 30120, Note_on_c, 0, 76, 79
2, 30143, Note_on_c, 0, 76, 0
2, 30144, Note_on_c, 0, 74, 79
2, 30233, Note_on_c, 0, 74, 0
2, 30240, Note_on_c, 0, 73, 77
2, 30253, Note_on_c, 0, 73, 0
2, 30254, Note_on_c, 0, 74, 76
2, 30267, Note_on_c, 0, 74, 0
2, 30268, Note_on_c, 0, 73, 76
2, 30281, Note_on_c, 0, 73, 0
2, 30282, Note_on_c, 0, 74, 76
2, 30295, Note_on_c, 0, 74, 0
2, 30296, Note_on_c, 0, 73, 76
2, 30309, Note_on_c, 0, 73, 0
2, 30310, Note_on_c, 0, 71, 75
2, 30322, Note_on_c, 0, 71, 0
2, 30323, Note_on_c, 0, 73, 75
2, 30335, Note_on_c, 0, 73, 0
2, 30336, Note_on_c, 0, 74, 75
2, 30359, Note_on_c, 0, 74, 0
2, 30360, Note_on_c, 0, 76, 75
2, 30383, Note_on_c, 0, 76, 0
2, 30384, Note_on_c, 0, 78, 76
2, 30407, Note_on_c, 0, 78, 0
2, 30408, Note_on_c, 0, 79, 77
2, 30431, Note_on_c, 0, 79, 0
2, 30432, Note_on_c, 0, 81, 78
2, 30455, Note_on_c, 0, 81, 0
2, 30456, Note_on_c, 0, 83, 78
2, 30479, Note_on_c, 0, 83, 0
2, 30480, Note_on_c, 0, 85, 79
2, 30503, Note_on_c, 0, 85, 0
2, 30504, Note_on_c, 0, 86, 80
2, 30527, Note_on_c, 0, 86, 0
2, 30528, Note_on_c, 0, 85, 81
2, 30551, Note_on_c, 0, 85, 0
2, 30552, Note_on_c, 0, 88, 80
2, 30575, Note_on_c, 0, 88, 0
2, 30576, Note_on_c, 0, 85, 79
2, 30599, Note_on_c, 0, 85, 0
2, 30600, Note_on_c, 0, 81, 78
2, 30623, Note_on_c, 0, 81, 0
2, 30624, Note_on_c, 0, 79, 78
2, 30647, Note_on_c, 0, 79, 0
2, 30648, Note_on_c, 0, 83, 77
2, 30671, Note_on_c, 0, 83, 0
2, 30672, Note_on_c, 0, 79, 76
2, 30695, Note_on_c, 0, 79, 0
2, 30696, Note_on_c, 0, 76, 75
2, 30719, Note_on_c, 0, 76, 0
2, 30720, Note_on_c, 0, 78, 75
2, 30743, Note_on_c, 0, 78, 0
2, 30744, Note_on_c, 0, 81, 74
2, 30767, Note_on_c, 0, 81, 0
2, 30768, Note_on_c, 0, 79, 73
2, 30791, Note_on_c, 0, 79, 0
2, 30792, Note_on_c, 0, 78, 72
2, 30815, Note_on_c, 0, 78, 0
2, 30816, Note_on_c, 0, 76, 72
2, 30839, Note_on_c, 0, 76, 0
2, 30840, Note_on_c, 0, 74, 71
2, 30863, Note_on_c, 0, 74, 0
2, 30864, Note_on_c, 0, 73, 70
2, 30887, Note_on_c, 0, 73, 0
2, 30888, Note_on_c, 0, 71, 69
2, 30911, Note_on_c, 0, 71, 0
2, 30912, Note_on_c, 0, 69, 69
2, 30935, Note_on_c, 0, 69, 0
2, 30936, Note_on_c, 0, 71, 69
2, 30959, Note_on_c, 0, 71, 0
2, 30960, Note_on_c, 0, 73, 70
2, 30983, Note_on_c, 0, 73, 0
2, 30984, Note_on_c, 0, 74, 71
2, 31007, Note_on_c, 0, 74, 0
2, 31008, Note_on_c, 0, 76, 72
2, 31031, Note_on_c, 0, 76, 0
2, 31032, Note_on_c, 0, 78, 72
2, 31055, Note_on_c, 0, 78, 0
2, 31056, Note_on_c, 0, 79, 73
2, 31079, Note_on_c, 0, 79, 0
2, 31080, Note_on_c, 0, 76, 74
2, 31103, Note_on_c, 0, 76, 0
2, 31104, Note_on_c, 0, 74, 75
2, 31127, Note_on_c, 0, 74, 0
2, 31128, Note_on_c, 0, 76, 75
2, 31151, Note_on_c, 0, 76, 0
2, 31152, Note_on_c, 0, 78, 76
2, 31175, Note_on_c, 0, 78, 0
2, 31176, Note_on_c, 0, 79, 77
2, 31199, Note_on_c, 0, 79, 0
2, 31200, Note_on_c, 0, 81, 78
2, 31223, Note_on_c, 0, 81, 0
2, 31224, Note_on_c, 0, 83, 78
2, 31247, Note_on_c, 0, 83, 0
2, 31248, Note_on_c, 0, 85, 79
2, 31271, Note_on_c, 0, 85, 0
2, 31272, Note_on_c, 0, 86, 80
2, 31295, Note_on_c, 0, 86, 0
2, 31296, Note_on_c, 0, 74, 81
2, 31385, Note_on_c, 0, 74, 0
2, 31488, Note_on_c, 0, 67, 75
2, 31555, Note_on_c, 0, 67, 0
2, 31560, Note_on_c, 0, 71, 75
2, 31572, Note_on_c, 0, 71, 0
2, 31572, Note_on_c, 0, 69, 75
2, 31584, Note_on_c, 0, 69, 0
2, 31584, Note_on_c, 0, 67, 75
2, 31607, Note_on_c, 0, 67, 0
2, 31608, Note_on_c, 0, 62, 75
2, 31631, Note_on_c, 0, 62, 0
2, 31632, Note_on_c, 0, 71, 76
2, 31655, Note_on_c, 0, 71, 0
2, 31656, Note_on_c, 0, 69, 77
2, 31679, Note_on_c, 0, 69, 0
2, 31680, Note_on_c, 0, 67, 78
2, 31703, Note_on_c, 0, 67, 0
2, 31704, Note_on_c, 0, 62, 78
2, 31727, Note_on_c, 0, 62, 0
2, 31728, Note_on_c, 0, 67, 79
2, 31751, Note_on_c, 0, 67, 0
2, 31752, Note_on_c, 0, 71, 80
2, 31775, Note_on_c, 0, 71, 0
2, 31776, Note_on_c, 0, 74, 81
2, 31799, Note_on_c, 0, 74, 0
2, 31800, Note_on_c, 0, 71, 80
2, 31823, Note_on_c, 0, 71, 0
2, 31824, Note_on_c, 0, 69, 79
2, 31847, Note_on_c, 0, 69, 0
2, 31848, Note_on_c, 0, 67, 79
2, 31871, Note_on_c, 0, 67, 0
2, 31872, Note_on_c, 0, 71, 78
2, 31895, Note_on_c, 0, 71, 0
2, 31896, Note_on_c, 0, 69, 78
2, 31919, Note_on_c, 0, 69, 0
2, 31920, Note_on_c, 0, 67, 77
2, 31943, Note_on_c, 0, 67, 0
2, 31944, Note_on_c, 0, 69, 76
2, 31967, Note_on_c, 0, 69, 0
2, 31968, Note_on_c, 0, 67, 76
2, 32013, Note_on_c, 0, 67, 0
2, 32016, Note_on_c, 0, 74, 75
2, 32036, Note_on_c, 0, 74, 0
2, 32064, Note_on_c, 0, 74, 75
2, 32084, Note_on_c, 0, 74, 0
2, 32112, Note_on_c, 0, 74, 75
2, 32132, Note_on_c, 0, 74, 0
2, 32160, Note_on_c, 0, 74, 75
2, 32180, Note_on_c, 0, 74, 0
2, 32208, Note_on_c, 0, 74, 75
2, 32228, Note_on_c, 0, 74, 0
2, 32256, Note_on_c, 0, 74, 75
2, 32279, Note_on_c, 0, 74, 0
2, 32280, Note_on_c, 0, 79, 75
2, 32303, Note_on_c, 0, 79, 0
2, 32304, Note_on_c, 0, 76, 76
2, 32327, Note_on_c, 0, 76, 0
2, 32328, Note_on_c, 0, 74, 76
2, 32351, Note_on_c, 0, 74, 0
2, 32352, Note_on_c, 0, 72, 77
2, 32375, Note_on_c, 0, 72, 0
2, 32376, Note_on_c, 0, 76, 78
2, 32399, Note_on_c, 0, 76, 0
2, 32400, Note_on_c, 0, 72, 78
2, 32423, Note_on_c, 0, 72, 0
2, 32424, Note_on_c, 0, 71, 79
2, 32447, Note_on_c, 0, 71, 0
2, 32448, Note_on_c, 0, 69, 79
2, 32471, Note_on_c, 0, 69, 0
2, 32472, Note_on_c, 0, 88, 80
2, 32495, Note_on_c, 0, 88, 0
2, 32496, Note_on_c, 0, 84, 81
2, 32519, Note_on_c, 0, 84, 0
2, 32520, Note_on_c, 0, 83, 81
2, 32543, Note_on_c, 0, 83, 0
2, 32544, Note_on_c, 0, 81, 81
2, 32567, Note_on_c, 0, 81, 0
2, 32568, Note_on_c, 0, 84, 81
2, 32591, Note_on_c, 0, 84, 0
2, 32592, Note_on_c, 0, 81, 81
2, 32615, Note_on_c, 0, 81, 0
2, 32616, Note_on_c, 0, 79, 81
2, 32639, Note_on_c, 0, 79, 0
2, 32640, Note_on_c, 0, 78, 81
2, 32663, Note_on_c, 0, 78, 0
2, 32664, Note_on_c, 0, 79, 81
2, 32687, Note_on_c, 0, 79, 0
2, 32688, Note_on_c, 0, 81, 81
2, 32711, Note_on_c, 0, 81, 0
2, 32712, Note_on_c, 0, 79, 81
2, 32735, Note_on_c, 0, 79, 0
2, 32736, Note_on_c, 0, 78, 81
2, 32759, Note_on_c, 0, 78, 0
2, 32760, Note_on_c, 0, 76, 81
2, 32783, Note_on_c, 0, 76, 0
2, 32784, Note_on_c, 0, 74, 81
2, 32807, Note_on_c, 0, 74, 0
2, 32808, Note_on_c, 0, 73, 81
2, 32831, Note_on_c, 0, 73, 0
2, 32832, Note_on_c, 0, 74, 81
2, 32855, Note_on_c, 0, 74, 0
2, 32856, Note_on_c, 0, 86, 80
2, 32879, Note_on_c, 0, 86, 0
2, 32880, Note_on_c, 0, 72, 79
2, 32903, Note_on_c, 0, 72, 0
2, 32904, Note_on_c, 0, 84, 78
2, 32927, Note_on_c, 0, 84, 0
2, 32928, Note_on_c, 0, 71, 78
2, 32951, Note_on_c, 0, 71, 0
2, 32952, Note_on_c, 0, 83, 77
2, 32975, Note_on_c, 0, 83, 0
2, 32976, Note_on_c, 0, 69, 76
2, 32999, Note_on_c, 0, 69, 0
2, 33000, Note_on_c, 0, 81, 75
2, 33023, Note_on_c, 0, 81, 0
2, 33024, Note_on_c, 0, 67, 75
2, 33091, Note_on_c, 0, 67, 0
2, 33096, Note_on_c, 0, 71, 75
2, 33108, Note_on_c, 0, 71, 0
2, 33108, Note_on_c, 0, 69, 75
2, 33120, Note_on_c, 0, 69, 0
2, 33120, Note_on_c, 0, 67, 75
2, 33143, Note_on_c, 0, 67, 0
2, 33144, Note_on_c, 0, 62, 75
2, 33167, Note_on_c, 0, 62, 0
2, 33168, Note_on_c, 0, 71, 76
2, 33191, Note_on_c, 0, 71, 0
2, 33192, Note_on_c, 0, 69, 77
2, 33215, Note_on_c, 0, 69, 0
2, 33216, Note_on_c, 0, 67, 78
2, 33239, Note_on_c, 0, 67, 0
2, 33240, Note_on_c, 0, 62, 78
2, 33263, Note_on_c, 0, 62, 0
2, 33264, Note_on_c, 0, 67, 79
2, 33287, Note_on_c, 0, 67, 0
2, 33288, Note_on_c, 0, 71, 80
2, 33311, Note_on_c, 0, 71, 0
2, 33312, Note_on_c, 0, 74, 81
2, 33335, Note_on_c, 0, 74, 0
2, 33336, Note_on_c, 0, 71, 80
2, 33359, Note_on_c, 0, 71, 0
2, 33360, Note_on_c, 0, 69, 79
2, 33383, Note_on_c, 0, 69, 0
2, 33384, Note_on_c, 0, 67, 79
2, 33407, Note_on_c, 0, 67, 0
2, 33408, Note_on_c, 0, 71, 78
2, 33431, Note_on_c, 0, 71, 0
2, 33432, Note_on_c, 0, 69, 78
2, 33455, Note_on_c, 0, 69, 0
2, 33456, Note_on_c, 0, 67, 77
2, 33479, Note_on_c, 0, 67, 0
2, 33480, Note_on_c, 0, 69, 76
2, 33503, Note_on_c, 0, 69, 0
2, 33504, Note_on_c, 0, 67, 76
2, 33549, Note_on_c, 0, 67, 0
2, 33552, Note_on_c, 0, 76, 75
2, 33597, Note_on_c, 0, 76, 0
2, 33600, Note_on_c, 0, 75, 75
2, 33623, Note_on_c, 0, 75, 0
2, 33624, Note_on_c, 0, 76, 75
2, 33647, Note_on_c, 0, 76, 0
2, 33648, Note_on_c, 0, 77, 76
2, 33671, Note_on_c, 0, 77, 0
2, 33672, Note_on_c, 0, 78, 77
2, 33695, Note_on_c, 0, 78, 0
2, 33696, Note_on_c, 0, 79, 78
2, 33719, Note_on_c, 0, 79, 0
2, 33720, Note_on_c, 0, 80, 78
2, 33743, Note_on_c, 0, 80, 0
2, 33744, Note_on_c, 0, 81, 79
2, 33767, Note_on_c, 0, 81, 0
2, 33768, Note_on_c, 0, 82, 80
2, 33791, Note_on_c, 0, 82, 0
2, 33792, Note_on_c, 0, 83, 81
2, 33881, Note_on_c, 0, 83, 0
2, 33888, Note_on_c, 0, 81, 81
2, 33911, Note_on_c, 0, 81, 0
2, 33912, Note_on_c, 0, 79, 80
2, 33935, Note_on_c, 0, 79, 0
2, 33936, Note_on_c, 0, 78, 80
2, 33959, Note_on_c, 0, 78, 0
2, 33960, Note_on_c, 0, 76, 79
2, 33983, Note_on_c, 0, 76, 0
2, 33984, Note_on_c, 0, 74, 79
2, 34073, Note_on_c, 0, 74, 0
2, 34080, Note_on_c, 0, 73, 77
2, 34093, Note_on_c, 0, 73, 0
2, 34094, Note_on_c, 0, 74, 76
2, 34107, Note_on_c, 0, 74, 0
2, 34108, Note_on_c, 0, 73, 76
2, 34121, Note_on_c, 0, 73, 0
2, 34122, Note_on_c, 0, 74, 76
2, 34135, Note_on_c, 0, 74, 0
2, 34136, Note_on_c, 0, 73, 76
2, 34149, Note_on_c, 0, 73, 0
2, 34150, Note_on_c, 0, 71, 75
2, 34162, Note_on_c, 0, 71, 0
2, 34163, Note_on_c, 0, 73, 75
2, 34175, Note_on_c, 0, 73, 0
2, 34176, Note_on_c, 0, 74, 75
2, 34199, Note_on_c, 0, 74, 0
2, 34200, Note_on_c, 0, 76, 75
2, 34223, Note_on_c, 0, 76, 0
2, 34224, Note_on_c, 0, 78, 76
2, 34247, Note_on_c, 0, 78, 0
2, 34248, Note_on_c, 0, 79, 77
2, 34271, Note_on_c, 0, 79, 0
2, 34272, Note_on_c, 0, 81, 78
2, 34295, Note_on_c, 0, 81, 0
2, 34296, Note_on_c, 0, 83, 78
2, 34319, Note_on_c, 0, 83, 0
2, 34320, Note_on_c, 0, 85, 79
2, 34343, Note_on_c, 0, 85, 0
2, 34344, Note_on_c, 0, 86, 80
2, 34367, Note_on_c, 0, 86, 0
2, 34368, Note_on_c, 0, 85, 81
2, 34391, Note_on_c, 0, 85, 0
2, 34392, Note_on_c, 0, 88, 80
2, 34415, Note_on_c, 0, 88, 0
2, 34416, Note_on_c, 0, 85, 79
2, 34439, Note_on_c, 0, 85, 0
2, 34440, Note_on_c, 0, 81, 78
2, 34463, Note_on_c, 0, 81, 0
2, 34464, Note_on_c, 0, 79, 78
2, 34487, Note_on_c, 0, 79, 0
2, 34488, Note_on_c, 0, 83, 77
2, 34511, Note_on_c, 0, 83, 0
2, 34512, Note_on_c, 0, 79, 76
2, 34535, Note_on_c, 0, 79, 0
2, 34536, Note_on_c, 0, 76, 75
2, 34559, Note_on_c, 0, 76, 0
2, 34560, Note_on_c, 0, 78, 75
2, 34583, Note_on_c, 0, 78, 0
2, 34584, Note_on_c, 0, 81, 74
2, 34607, Note_on_c, 0, 81, 0
2, 34608, Note_on_c, 0, 79, 73
2, 34631, Note_on_c, 0, 79, 0
2, 34632, Note_on_c, 0, 78, 72
2, 34655, Note_on_c, 0, 78, 0
2, 34656, Note_on_c, 0, 76, 72
2, 34679, Note_on_c, 0, 76, 0
2, 34680, Note_on_c, 0, 74, 71
2, 34703, Note_on_c, 0, 74, 0
2, 34704, Note_on_c, 0, 73, 70
2, 34727, Note_on_c, 0, 73, 0
2, 34728, Note_on_c, 0, 71, 69
2, 34751, Note_on_c, 0, 71, 0
2, 34752, Note_on_c, 0, 69, 69
2, 34775, Note_on_c, 0, 69, 0
2, 34776, Note_on_c, 0, 71, 69
2, 34799, Note_on_c, 0, 71, 0
2, 34800, Note_on_c, 0, 73, 70
2, 34823, Note_on_c, 0, 73, 0
2, 34824, Note_on_c, 0, 74, 71
2, 34847, Note_on_c, 0, 74, 0
2, 34848, Note_on_c, 0, 76, 72
2, 34871, Note_on_c, 0, 76, 0
2, 34872, Note_on_c, 0, 78, 72
2, 34895, Note_on_c, 0, 78, 0
2, 34896, Note_on_c, 0, 79, 73
2, 34919, Note_on_c, 0, 79, 0
2, 34920, Note_on_c, 0, 76, 74
2, 34943, Note_on_c, 0, 76, 0
2, 34944, Note_on_c, 0, 74, 75
2, 34967, Note_on_c, 0, 74, 0
2, 34968, Note_on_c, 0, 76, 75
2, 34991, Note_on_c, 0, 76, 0
2, 34992, Note_on_c, 0, 78, 76
2, 35015, Note_on_c, 0, 78, 0
2, 35016, Note_on_c, 0, 79, 77
2, 35039, Note_on_c, 0, 79, 0
2, 35040, Note_on_c, 0, 81, 78
2, 35063, Note_on_c, 0, 81, 0
2, 35064, Note_on_c, 0, 83, 78
2, 35087, Note_on_c, 0, 83, 0
2, 35088, Note_on_c, 0, 85, 79
2, 35111, Note_on_c, 0, 85, 0
2, 35112, Note_on_c, 0, 86, 80
2, 35135, Note_on_c, 0, 86, 0
2, 35136, Note_on_c, 0, 74, 81
2, 35225, Note_on_c, 0, 74, 0
2, 35328, Note_on_c, 0, 77, 75
2, 35395, Note_on_c, 0, 77, 0
2, 35400, Note_on_c, 0, 74, 75
2, 35412, Note_on_c, 0, 74, 0
2, 35412, Note_on_c, 0, 75, 75
2, 35424, Note_on_c, 0, 75, 0
2, 35424, Note_on_c, 0, 77, 75
2, 35469, Note_on_c, 0, 77, 0
2, 35472, Note_on_c, 0, 89, 91
2, 35568, Note_on_c, 0, 89, 0
2, 35568, Note_on_c, 0, 69, 75
2, 35588, Note_on_c, 0, 69, 0
2, 35616, Note_on_c, 0, 69, 75
2, 35636, Note_on_c, 0, 69, 0
2, 35664, Note_on_c, 0, 69, 75
2, 35684, Note_on_c, 0, 69, 0
2, 35712, Note_on_c, 0, 70, 75
2, 35779, Note_on_c, 0, 70, 0
2, 35784, Note_on_c, 0, 70, 75
2, 35796, Note_on_c, 0, 70, 0
2, 35796, Note_on_c, 0, 72, 75
2, 35808, Note_on_c, 0, 72, 0
2, 35808, Note_on_c, 0, 74, 75
2, 35853, Note_on_c, 0, 74, 0
2, 35856, Note_on_c, 0, 86, 91
2, 35952, Note_on_c, 0, 86, 0
2, 35952, Note_on_c, 0, 66, 75
2, 35972, Note_on_c, 0, 66, 0
2, 36000, Note_on_c, 0, 66, 75
2, 36020, Note_on_c, 0, 66, 0
2, 36048, Note_on_c, 0, 66, 75
2, 36068, Note_on_c, 0, 66, 0
2, 36096, Note_on_c, 0, 67, 75
2, 36163, Note_on_c, 0, 67, 0
2, 36168, Note_on_c, 0, 67, 75
2, 36180, Note_on_c, 0, 67, 0
2, 36180, Note_on_c, 0, 69, 75
2, 36192, Note_on_c, 0, 69, 0
2, 36192, Note_on_c, 0, 70, 75
2, 36237, Note_on_c, 0, 70, 0
2, 36240, Note_on_c, 0, 82, 91
2, 36336, Note_on_c, 0, 82, 0
2, 36336, Note_on_c, 0, 61, 75
2, 36356, Note_on_c, 0, 61, 0
2, 36384, Note_on_c, 0, 61, 75
2, 36404, Note_on_c, 0, 61, 0
2, 36432, Note_on_c, 0, 61, 75
2, 36452, Note_on_c, 0, 61, 0
2, 36480, Note_on_c, 0, 62, 75
2, 36503, Note_on_c, 0, 62, 0
2, 36504, Note_on_c, 0, 64, 76
2, 36527, Note_on_c, 0, 64, 0
2, 36528, Note_on_c, 0, 66, 78
2, 36551, Note_on_c, 0, 66, 0
2, 36552, Note_on_c, 0, 67, 79
2, 36575, Note_on_c, 0, 67, 0
2, 36576, Note_on_c, 0, 69, 81
2, 36599, Note_on_c, 0, 69, 0
2, 36600, Note_on_c, 0, 66, 79
2, 36623, Note_on_c, 0, 66, 0
2, 36624, Note_on_c, 0, 67, 78
2, 36647, Note_on_c, 0, 67, 0
2, 36648, Note_on_c, 0, 64, 76
2, 36671, Note_on_c, 0, 64, 0
2, 36672, Note_on_c, 0, 62, 75
2, 36761, Note_on_c, 0, 62, 0
2, 36864, Note_on_c, 0, 67, 91
2, 36936, Note_on_c, 0, 67, 0
2, 36936, Note_on_c, 0, 71, 75
2, 36948, Note_on_c, 0, 71, 0
2, 36948, Note_on_c, 0, 69, 75
2, 36960, Note_on_c, 0, 69, 0
2, 36960, Note_on_c, 0, 67, 75
2, 36983, Note_on_c, 0, 67, 0
2, 36984, Note_on_c, 0, 62, 75
2, 37007, Note_on_c, 0, 62, 0
2, 37008, Note_on_c, 0, 71, 75
2, 37031, Note_on_c, 0, 71, 0
2, 37032, Note_on_c, 0, 69, 75
2, 37055, Note_on_c, 0, 69, 0
2, 37056, Note_on_c, 0, 67, 75
2, 37079, Note_on_c, 0, 67, 0
2, 37080, Note_on_c, 0, 62, 76
2, 37103, Note_on_c, 0, 62, 0
2, 37104, Note_on_c, 0, 67, 78
2, 37127, Note_on_c, 0, 67, 0
2, 37128, Note_on_c, 0, 71, 79
2, 37151, Note_on_c, 0, 71, 0
2, 37152, Note_on_c, 0, 74, 81
2, 37175, Note_on_c, 0, 74, 0
2, 37176, Note_on_c, 0, 71, 79
2, 37199, Note_on_c, 0, 71, 0
2, 37200, Note_on_c, 0, 69, 78
2, 37223, Note_on_c, 0, 69, 0
2, 37224, Note_on_c, 0, 67, 76
2, 37247, Note_on_c, 0, 67, 0
2, 37248, Note_on_c, 0, 71, 75
2, 37271, Note_on_c, 0, 71, 0
2, 37272, Note_on_c, 0, 69, 75
2, 37295, Note_on_c, 0, 69, 0
2, 37296, Note_on_c, 0, 67, 75
2, 37319, Note_on_c, 0, 67, 0
2, 37320, Note_on_c, 0, 69, 75
2, 37343, Note_on_c, 0, 69, 0
2, 37344, Note_on_c, 0, 67, 75
2, 37389, Note_on_c, 0, 67, 0
2, 37392, Note_on_c, 0, 88, 75
2, 37415, Note_on_c, 0, 88, 0
2, 37416, Note_on_c, 0, 76, 75
2, 37439, Note_on_c, 0, 76, 0
2, 37440, Note_on_c, 0, 88, 75
2, 37463, Note_on_c, 0, 88, 0
2, 37464, Note_on_c, 0, 76, 75
2, 37487, Note_on_c, 0, 76, 0
2, 37488, Note_on_c, 0, 88, 75
2, 37511, Note_on_c, 0, 88, 0
2, 37512, Note_on_c, 0, 76, 75
2, 37535, Note_on_c, 0, 76, 0
2, 37536, Note_on_c, 0, 88, 75
2, 37559, Note_on_c, 0, 88, 0
2, 37560, Note_on_c, 0, 76, 75
2, 37583, Note_on_c, 0, 76, 0
2, 37584, Note_on_c, 0, 88, 75
2, 37607, Note_on_c, 0, 88, 0
2, 37608, Note_on_c, 0, 76, 75
2, 37631, Note_on_c, 0, 76, 0
2, 37632, Note_on_c, 0, 88, 75
2, 37692, Note_on_c, 0, 88, 0
2, 37692, Note_on_c, 0, 86, 75
2, 37704, Note_on_c, 0, 86, 0
2, 37704, Note_on_c, 0, 84, 75
2, 37716, Note_on_c, 0, 84, 0
2, 37716, Note_on_c, 0, 83, 75
2, 37728, Note_on_c, 0, 83, 0
2, 37728, Note_on_c, 0, 81, 75
2, 37748, Note_on_c, 0, 81, 0
2, 37776, Note_on_c, 0, 86, 75
2, 37799, Note_on_c, 0, 86, 0
2, 37800, Note_on_c, 0, 74, 75
2, 37823, Note_on_c, 0, 74, 0
2, 37824, Note_on_c, 0, 86, 75
2, 37847, Note_on_c, 0, 86, 0
2, 37848, Note_on_c, 0, 74, 75
2, 37871, Note_on_c, 0, 74, 0
2, 37872, Note_on_c, 0, 86, 75
2, 37895, Note_on_c, 0, 86, 0
2, 37896, Note_on_c, 0, 74, 75
2, 37919, Note_on_c, 0, 74, 0
2, 37920, Note_on_c, 0, 86, 75
2, 37943, Note_on_c, 0, 86, 0
2, 37944, Note_on_c, 0, 74, 75
2, 37967, Note_on_c, 0, 74, 0
2, 37968, Note_on_c, 0, 86, 75
2, 37991, Note_on_c, 0, 86, 0
2, 37992, Note_on_c, 0, 74, 75
2, 38015, Note_on_c, 0, 74, 0
2, 38016, Note_on_c, 0, 86, 75
2, 38076, Note_on_c, 0, 86, 0
2, 38076, Note_on_c, 0, 84, 75
2, 38088, Note_on_c, 0, 84, 0
2, 38088, Note_on_c, 0, 83, 75
2, 38100, Note_on_c, 0, 83, 0
2, 38100, Note_on_c, 0, 81, 75
2, 38112, Note_on_c, 0, 81, 0
2, 38112, Note_on_c, 0, 79, 75
2, 38132, Note_on_c, 0, 79, 0
2, 38544, Note_on_c, 0, 86, 75
2, 38556, Note_on_c, 0, 86, 0
2, 38556, Note_on_c, 0, 84, 75
2, 38568, Note_on_c, 0, 84, 0
2, 38568, Note_on_c, 0, 83, 75
2, 38580, Note_on_c, 0, 83, 0
2, 38580, Note_on_c, 0, 81, 75
2, 38592, Note_on_c, 0, 81, 0
2, 38592, Note_on_c, 0, 79, 75
2, 38612, Note_on_c, 0, 79, 0
2, 38640, Note_on_c, 0, 83, 75
2, 38652, Note_on_c, 0, 83, 0
2, 38652, Note_on_c, 0, 81, 75
2, 38664, Note_on_c, 0, 81, 0
2, 38664, Note_on_c, 0, 79, 75
2, 38676, Note_on_c, 0, 79, 0
2, 38676, Note_on_c, 0, 78, 75
2, 38688, Note_on_c, 0, 78, 0
2, 38688, Note_on_c, 0, 76, 75
2, 38708, Note_on_c, 0, 76, 0
2, 38736, Note_on_c, 0, 79, 75
2, 38748, Note_on_c, 0, 79, 0
2, 38748, Note_on_c, 0, 78, 75
2, 38760, Note_on_c, 0, 78, 0
2, 38760, Note_on_c, 0, 76, 75
2, 38772, Note_on_c, 0, 76, 0
2, 38772, Note_on_c, 0, 74, 75
2, 38784, Note_on_c, 0, 74, 0
2, 38784, Note_on_c, 0, 72, 75
2, 38873, Note_on_c, 0, 72, 0
2, 38928, Note_on_c, 0, 79, 75
2, 38940, Note_on_c, 0, 79, 0
2, 38940, Note_on_c, 0, 77, 75
2, 38952, Note_on_c, 0, 77, 0
2, 38952, Note_on_c, 0, 75, 75
2, 38964, Note_on_c, 0, 75, 0
2, 38964, Note_on_c, 0, 74, 75
2, 38976, Note_on_c, 0, 74, 0
2, 38976, Note_on_c, 0, 72, 75
2, 38996, Note_on_c, 0, 72, 0
2, 39024, Note_on_c, 0, 83, 75
2, 39072, Note_on_c, 0, 83, 0
2, 39072, Note_on_c, 0, 84, 75
2, 39117, Note_on_c, 0, 84, 0
2, 39120, Note_on_c, 0, 84, 75
2, 39140, Note_on_c, 0, 84, 0
2, 39168, Note_on_c, 0, 84, 75
2, 39191, Note_on_c, 0, 84, 0
2, 39192, Note_on_c, 0, 83, 75
2, 39215, Note_on_c, 0, 83, 0
2, 39216, Note_on_c, 0, 84, 75
2, 39239, Note_on_c, 0, 84, 0
2, 39240, Note_on_c, 0, 81, 75
2, 39263, Note_on_c, 0, 81, 0
2, 39264, Note_on_c, 0, 83, 75
2, 39287, Note_on_c, 0, 83, 0
2, 39288, Note_on_c, 0, 81, 75
2, 39311, Note_on_c, 0, 81, 0
2, 39312, Note_on_c, 0, 83, 75
2, 39335, Note_on_c, 0, 83, 0
2, 39336, Note_on_c, 0, 79, 75
2, 39359, Note_on_c, 0, 79, 0
2, 39360, Note_on_c, 0, 81, 75
2, 39383, Note_on_c, 0, 81, 0
2, 39384, Note_on_c, 0, 80, 75
2, 39407, Note_on_c, 0, 80, 0
2, 39408, Note_on_c, 0, 81, 75
2, 39431, Note_on_c, 0, 81, 0
2, 39432, Note_on_c, 0, 76, 75
2, 39455, Note_on_c, 0, 76, 0
2, 39456, Note_on_c, 0, 79, 75
2, 39479, Note_on_c, 0, 79, 0
2, 39480, Note_on_c, 0, 78, 75
2, 39503, Note_on_c, 0, 78, 0
2, 39504, Note_on_c, 0, 76, 75
2, 39527, Note_on_c, 0, 76, 0
2, 39528, Note_on_c, 0, 74, 75
2, 39551, Note_on_c, 0, 74, 0
2, 39552, Note_on_c, 0, 79, 75
2, 39575, Note_on_c, 0, 79, 0
2, 39576, Note_on_c, 0, 74, 76
2, 39599, Note_on_c, 0, 74, 0
2, 39600, Note_on_c, 0, 79, 78
2, 39623, Note_on_c, 0, 79, 0
2, 39624, Note_on_c, 0, 83, 79
2, 39647, Note_on_c, 0, 83, 0
2, 39648, Note_on_c, 0, 86, 81
2, 39671, Note_on_c, 0, 86, 0
2, 39672, Note_on_c, 0, 83, 79
2, 39695, Note_on_c, 0, 83, 0
2, 39696, Note_on_c, 0, 81, 78
2, 39719, Note_on_c, 0, 81, 0
2, 39720, Note_on_c, 0, 79, 76
2, 39743, Note_on_c, 0, 79, 0
2, 39744, Note_on_c, 0, 78, 75
2, 39767, Note_on_c, 0, 78, 0
2, 39768, Note_on_c, 0, 74, 76
2, 39791, Note_on_c, 0, 74, 0
2, 39792, Note_on_c, 0, 78, 78
2, 39815, Note_on_c, 0, 78, 0
2, 39816, Note_on_c, 0, 81, 79
2, 39839, Note_on_c, 0, 81, 0
2, 39840, Note_on_c, 0, 84, 81
2, 39863, Note_on_c, 0, 84, 0
2, 39864, Note_on_c, 0, 81, 79
2, 39887, Note_on_c, 0, 81, 0
2, 39888, Note_on_c, 0, 79, 78
2, 39911, Note_on_c, 0, 79, 0
2, 39912, Note_on_c, 0, 78, 76
2, 39935, Note_on_c, 0, 78, 0
2, 39936, Note_on_c, 0, 79, 75
2, 39959, Note_on_c, 0, 79, 0
2, 39960, Note_on_c, 0, 74, 77
2, 39983, Note_on_c, 0, 74, 0
2, 39984, Note_on_c, 0, 79, 79
2, 40007, Note_on_c, 0, 79, 0
2, 40008, Note_on_c, 0, 83, 81
2, 40031, Note_on_c, 0, 83, 0
2, 40032, Note_on_c, 0, 86, 79
2, 40055, Note_on_c, 0, 86, 0
2, 40056, Note_on_c, 0, 83, 78
2, 40079, Note_on_c, 0, 83, 0
2, 40080, Note_on_c, 0, 81, 77
2, 40103, Note_on_c, 0, 81, 0
2, 40104, Note_on_c, 0, 79, 76
2, 40127, Note_on_c, 0, 79, 0
2, 40128, Note_on_c, 0, 78, 75
2, 40151, Note_on_c, 0, 78, 0
2, 40152, Note_on_c, 0, 74, 75
2, 40175, Note_on_c, 0, 74, 0
2, 40176, Note_on_c, 0, 78, 76
2, 40199, Note_on_c, 0, 78, 0
2, 40200, Note_on_c, 0, 81, 77
2, 40223, Note_on_c, 0, 81, 0
2, 40224, Note_on_c, 0, 84, 78
2, 40247, Note_on_c, 0, 84, 0
2, 40248, Note_on_c, 0, 81, 78
2, 40271, Note_on_c, 0, 81, 0
2, 40272, Note_on_c, 0, 79, 79
2, 40295, Note_on_c, 0, 79, 0
2, 40296, Note_on_c, 0, 78, 80
2, 40319, Note_on_c, 0, 78, 0
2, 40320, Note_on_c, 0, 79, 81
2, 40343, Note_on_c, 0, 79, 0
2, 40344, Note_on_c, 0, 83, 79
2, 40367, Note_on_c, 0, 83, 0
2, 40368, Note_on_c, 0, 79, 78
2, 40391, Note_on_c, 0, 79, 0
2, 40392, Note_on_c, 0, 74, 77
2, 40415, Note_on_c, 0, 74, 0
2, 40416, Note_on_c, 0, 71, 76
2, 40439, Note_on_c, 0, 71, 0
2, 40704, Note_on_c, 0, 77, 75
2, 40771, Note_on_c, 0, 77, 0
2, 40776, Note_on_c, 0, 74, 75
2, 40788, Note_on_c, 0, 74, 0
2, 40788, Note_on_c, 0, 75, 75
2, 40800, Note_on_c, 0, 75, 0
2, 40800, Note_on_c, 0, 77, 75
2, 40845, Note_on_c, 0, 77, 0
2, 40848, Note_on_c, 0, 89, 91
2, 40944, Note_on_c, 0, 89, 0
2, 40944, Note_on_c, 0, 69, 75
2, 40964, Note_on_c, 0, 69, 0
2, 40992, Note_on_c, 0, 69, 75
2, 41012, Note_on_c, 0, 69, 0
2, 41040, Note_on_c, 0, 69, 75
2, 41060, Note_on_c, 0, 69, 0
2, 41088, Note_on_c, 0, 70, 75
2, 41155, Note_on_c, 0, 70, 0
2, 41160, Note_on_c, 0, 70, 75
2, 41172, Note_on_c, 0, 70, 0
2, 41172, Note_on_c, 0, 72, 75
2, 41184, Note_on_c, 0, 72, 0
2, 41184, Note_on_c, 0, 74, 75
2, 41229, Note_on_c, 0, 74, 0
2, 41232, Note_on_c, 0, 86, 91
2, 41328, Note_on_c, 0, 86, 0
2, 41328, Note_on_c, 0, 66, 75
2, 41348, Note_on_c, 0, 66, 0
2, 41376, Note_on_c, 0, 66, 75
2, 41396, Note_on_c, 0, 66, 0
2, 41424, Note_on_c, 0, 66, 75
2, 41444, Note_on_c, 0, 66, 0
2, 41472, Note_on_c, 0, 67, 75
2, 41539, Note_on_c, 0, 67, 0
2, 41544, Note_on_c, 0, 67, 75
2, 41556, Note_on_c, 0, 67, 0
2, 41556, Note_on_c, 0, 69, 75
2, 41568, Note_on_c, 0, 69, 0
2, 41568, Note_on_c, 0, 70, 75
2, 41613, Note_on_c, 0, 70, 0
2, 41616, Note_on_c, 0, 82, 91
2, 41712, Note_on_c, 0, 82, 0
2, 41712, Note_on_c, 0, 61, 75
2, 41732, Note_on_c, 0, 61, 0
2, 41760, Note_on_c, 0, 61, 75
2, 41780, Note_on_c, 0, 61, 0
2, 41808, Note_on_c, 0, 61, 75
2, 41828, Note_on_c, 0, 61, 0
2, 41856, Note_on_c, 0, 62, 75
2, 41879, Note_on_c, 0, 62, 0
2, 41880, Note_on_c, 0, 64, 76
2, 41903, Note_on_c, 0, 64, 0
2, 41904, Note_on_c, 0, 66, 78
2, 41927, Note_on_c, 0, 66, 0
2, 41928, Note_on_c, 0, 67, 79
2, 41951, Note_on_c, 0, 67, 0
2, 41952, Note_on_c, 0, 69, 81
2, 41975, Note_on_c, 0, 69, 0
2, 41976, Note_on_c, 0, 66, 79
2, 41999, Note_on_c, 0, 66, 0
2, 42000, Note_on_c, 0, 67, 78
2, 42023, Note_on_c, 0, 67, 0
2, 42024, Note_on_c, 0, 64, 76
2, 42047, Note_on_c, 0, 64, 0
2, 42048, Note_on_c, 0, 62, 75
2, 42137, Note_on_c, 0, 62, 0
2, 42240, Note_on_c, 0, 67, 91
2, 42312, Note_on_c, 0, 67, 0
2, 42312, Note_on_c, 0, 71, 75
2, 42324, Note_on_c, 0, 71, 0
2, 42324, Note_on_c, 0, 69, 75
2, 42336, Note_on_c, 0, 69, 0
2, 42336, Note_on_c, 0, 67, 75
2, 42359, Note_on_c, 0, 67, 0
2, 42360, Note_on_c, 0, 62, 75
2, 42383, Note_on_c, 0, 62, 0
2, 42384, Note_on_c, 0, 71, 75
2, 42407, Note_on_c, 0, 71, 0
2, 42408, Note_on_c, 0, 69, 75
2, 42431, Note_on_c, 0, 69, 0
2, 42432, Note_on_c, 0, 67, 75
2, 42455, Note_on_c, 0, 67, 0
2, 42456, Note_on_c, 0, 62, 76
2, 42479, Note_on_c, 0, 62, 0
2, 42480, Note_on_c, 0, 67, 78
2, 42503, Note_on_c, 0, 67, 0
2, 42504, Note_on_c, 0, 71, 79
2, 42527, Note_on_c, 0, 71, 0
2, 42528, Note_on_c, 0, 74, 81
2, 42551, Note_on_c, 0, 74, 0
2, 42552, Note_on_c, 0, 71, 79
2, 42575, Note_on_c, 0, 71, 0
2, 42576, Note_on_c, 0, 69, 78
2, 42599, Note_on_c, 0, 69, 0
2, 42600, Note_on_c, 0, 67, 76
2, 42623, Note_on_c, 0, 67, 0
2, 42624, Note_on_c, 0, 71, 75
2, 42647, Note_on_c, 0, 71, 0
2, 42648, Note_on_c, 0, 69, 75
2, 42671, Note_on_c, 0, 69, 0
2, 42672, Note_on_c, 0, 67, 75
2, 42695, Note_on_c, 0, 67, 0
2, 42696, Note_on_c, 0, 69, 75
2, 42719, Note_on_c, 0, 69, 0
2, 42720, Note_on_c, 0, 67, 75
2, 42765, Note_on_c, 0, 67, 0
2, 42768, Note_on_c, 0, 88, 75
2, 42791, Note_on_c, 0, 88, 0
2, 42792, Note_on_c, 0, 76, 75
2, 42815, Note_on_c, 0, 76, 0
2, 42816, Note_on_c, 0, 88, 75
2, 42839, Note_on_c, 0, 88, 0
2, 42840, Note_on_c, 0, 76, 75
2, 42863, Note_on_c, 0, 76, 0
2, 42864, Note_on_c, 0, 88, 75
2, 42887, Note_on_c, 0, 88, 0
2, 42888, Note_on_c, 0, 76, 75
2, 42911, Note_on_c, 0, 76, 0
2, 42912, Note_on_c, 0, 88, 75
2, 42935, Note_on_c, 0, 88, 0
2, 42936, Note_on_c, 0, 76, 75
2, 42959, Note_on_c, 0, 76, 0
2, 42960, Note_on_c, 0, 88, 75
2, 42983, Note_on_c, 0, 88, 0
2, 42984, Note_on_c, 0, 76, 75
2, 43007, Note_on_c, 0, 76, 0
2, 43008, Note_on_c, 0, 88, 75
2, 43068, Note_on_c, 0, 88, 0
2, 43068, Note_on_c, 0, 86, 75
2, 43080, Note_on_c, 0, 86, 0
2, 43080, Note_on_c, 0, 84, 75
2, 43092, Note_on_c, 0, 84, 0
2, 43092, Note_on_c, 0, 83, 75
2, 43104, Note_on_c, 0, 83, 0
2, 43104, Note_on_c, 0, 81, 75
2, 43124, Note_on_c, 0, 81, 0
2, 43152, Note_on_c, 0, 86, 75
2, 43175, Note_on_c, 0, 86, 0
2, 43176, Note_on_c, 0, 74, 75
2, 43199, Note_on_c, 0, 74, 0
2, 43200, Note_on_c, 0, 86, 75
2, 43223, Note_on_c, 0, 86, 0
2, 43224, Note_on_c, 0, 74, 75
2, 43247, Note_on_c, 0, 74, 0
2, 43248, Note_on_c, 0, 86, 75
2, 43271, Note_on_c, 0, 86, 0
2, 43272, Note_on_c, 0, 74, 75
2, 43295, Note_on_c, 0, 74, 0
2, 43296, Note_on_c, 0, 86, 75
2, 43319, Note_on_c, 0, 86, 0
2, 43320, Note_on_c, 0, 74, 75
2, 43343, Note_on_c, 0, 74, 0
2, 43344, Note_on_c, 0, 86, 75
2, 43367, Note_on_c, 0, 86, 0
2, 43368, Note_on_c, 0, 74, 75
2, 43391, Note_on_c, 0, 74, 0
2, 43392, Note_on_c, 0, 86, 75
2, 43452, Note_on_c, 0, 86, 0
2, 43452, Note_on_c, 0, 84, 75
2, 43464, Note_on_c, 0, 84, 0
2, 43464, Note_on_c, 0, 83, 75
2, 43476, Note_on_c, 0, 83, 0
2, 43476, Note_on_c, 0, 81, 75
2, 43488, Note_on_c, 0, 81, 0
2, 43488, Note_on_c, 0, 79, 75
2, 43508, Note_on_c, 0, 79, 0
2, 43920, Note_on_c, 0, 86, 75
2, 43932, Note_on_c, 0, 86, 0
2, 43932, Note_on_c, 0, 84, 75
2, 43944, Note_on_c, 0, 84, 0
2, 43944, Note_on_c, 0, 83, 75
2, 43956, Note_on_c, 0, 83, 0
2, 43956, Note_on_c, 0, 81, 75
2, 43968, Note_on_c, 0, 81, 0
2, 43968, Note_on_c, 0, 79, 75
2, 43988, Note_on_c, 0, 79, 0
2, 44016, Note_on_c, 0, 83, 75
2, 44028, Note_on_c, 0, 83, 0
2, 44028, Note_on_c, 0, 81, 75
2, 44040, Note_on_c, 0, 81, 0
2, 44040, Note_on_c, 0, 79, 75
2, 44052, Note_on_c, 0, 79, 0
2, 44052, Note_on_c, 0, 78, 75
2, 44064, Note_on_c, 0, 78, 0
2, 44064, Note_on_c, 0, 76, 75
2, 44084, Note_on_c, 0, 76, 0
2, 44112, Note_on_c, 0, 79, 75
2, 44124, Note_on_c, 0, 79, 0
2, 44124, Note_on_c, 0, 78, 75
2, 44136, Note_on_c, 0, 78, 0
2, 44136, Note_on_c, 0, 76, 75
2, 44148, Note_on_c, 0, 76, 0
2, 44148, Note_on_c, 0, 74, 75
2, 44160, Note_on_c, 0, 74, 0
2, 44160, Note_on_c, 0, 72, 75
2, 44249, Note_on_c, 0, 72, 0
2, 44304, Note_on_c, 0, 79, 75
2, 44316, Note_on_c, 0, 79, 0
2, 44316, Note_on_c, 0, 77, 75
2, 44328, Note_on_c, 0, 77, 0
2, 44328, Note_on_c, 0, 75, 75
2, 44340, Note_on_c, 0, 75, 0
2, 44340, Note_on_c, 0, 74, 75
2, 44352, Note_on_c, 0, 74, 0
2, 44352, Note_on_c, 0, 72, 75
2, 44372, Note_on_c, 0, 72, 0
2, 44400, Note_on_c, 0, 83, 75
2, 44448, Note_on_c, 0, 83, 0
2, 44448, Note_on_c, 0, 84, 75
2, 44493, Note_on_c, 0, 84, 0
2, 44496, Note_on_c, 0, 84, 75
2, 44516, Note_on_c, 0, 84, 0
2, 44544, Note_on_c, 0, 84, 75
2, 44567, Note_on_c, 0, 84, 0
2, 44568, Note_on_c, 0, 83, 75
2, 44591, Note_on_c, 0, 83, 0
2, 44592, Note_on_c, 0, 84, 75
2, 44615, Note_on_c, 0, 84, 0
2, 44616, Note_on_c, 0, 81, 75
2, 44639, Note_on_c, 0, 81, 0
2, 44640, Note_on_c, 0, 83, 75
2, 44663, Note_on_c, 0, 83, 0
2, 44664, Note_on_c, 0, 81, 75
2, 44687, Note_on_c, 0, 81, 0
2, 44688, Note_on_c, 0, 83, 75
2, 44711, Note_on_c, 0, 83, 0
2, 44712, Note_on_c, 0, 79, 75
2, 44735, Note_on_c, 0, 79, 0
2, 44736, Note_on_c, 0, 81, 75
2, 44759, Note_on_c, 0, 81, 0
2, 44760, Note_on_c, 0, 80, 75
2, 44783, Note_on_c, 0, 80, 0
2, 44784, Note_on_c, 0, 81, 75
2, 44807, Note_on_c, 0, 81, 0
2, 44808, Note_on_c, 0, 76, 75
2, 44831, Note_on_c, 0, 76, 0
2, 44832, Note_on_c, 0, 79, 75
2, 44855, Note_on_c, 0, 79, 0
2, 44856, Note_on_c, 0, 78, 75
2, 44879, Note_on_c, 0, 78, 0
2, 44880, Note_on_c, 0, 76, 75
2, 44903, Note_on_c, 0, 76, 0
2, 44904, Note_on_c, 0, 74, 75
2, 44927, Note_on_c, 0, 74, 0
2, 44928, Note_on_c, 0, 79, 75
2, 44951, Note_on_c, 0, 79, 0
2, 44952, Note_on_c, 0, 74, 76
2, 44975, Note_on_c, 0, 74, 0
2, 44976, Note_on_c, 0, 79, 78
2, 44999, Note_on_c, 0, 79, 0
2, 45000, Note_on_c, 0, 83, 79
2, 45023, Note_on_c, 0, 83, 0
2, 45024, Note_on_c, 0, 86, 81
2, 45047, Note_on_c, 0, 86, 0
2, 45048, Note_on_c, 0, 83, 79
2, 45071, Note_on_c, 0, 83, 0
2, 45072, Note_on_c, 0, 81, 78
2, 45095, Note_on_c, 0, 81, 0
2, 45096, Note_on_c, 0, 79, 76
2, 45119, Note_on_c, 0, 79, 0
2, 45120, Note_on_c, 0, 78, 75
2, 45143, Note_on_c, 0, 78, 0
2, 45144, Note_on_c, 0, 74, 76
2, 45167, Note_on_c, 0, 74, 0
2, 45168, Note_on_c, 0, 78, 78
2, 45191, Note_on_c, 0, 78, 0
2, 45192, Note_on_c, 0, 81, 79
2, 45215, Note_on_c, 0, 81, 0
2, 45216, Note_on_c, 0, 84, 81
2, 45239, Note_on_c, 0, 84, 0
2, 45240, Note_on_c, 0, 81, 79
2, 45263, Note_on_c, 0, 81, 0
2, 45264, Note_on_c, 0, 79, 78
2, 45287, Note_on_c, 0, 79, 0
2, 45288, Note_on_c, 0, 78, 76
2, 45311, Note_on_c, 0, 78, 0
2, 45312, Note_on_c, 0, 79, 75
2, 45335, Note_on_c, 0, 79, 0
2, 45336, Note_on_c, 0, 74, 77
2, 45359, Note_on_c, 0, 74, 0
2, 45360, Note_on_c, 0, 79, 79
2, 45383, Note_on_c, 0, 79, 0
2, 45384, Note_on_c, 0, 83, 81
2, 45407, Note_on_c, 0, 83, 0
2, 45408, Note_on_c, 0, 86, 79
2, 45431, Note_on_c, 0, 86, 0
2, 45432, Note_on_c, 0, 83, 78
2, 45455, Note_on_c, 0, 83, 0
2, 45456, Note_on_c, 0, 81, 77
2, 45479, Note_on_c, 0, 81, 0
2, 45480, Note_on_c, 0, 79, 76
2, 45503, Note_on_c, 0, 79, 0
2, 45504, Note_on_c, 0, 78, 75
2, 45527, Note_on_c, 0, 78, 0
2, 45528, Note_on_c, 0, 74, 75
2, 45551, Note_on_c, 0, 74, 0
2, 45552, Note_on_c, 0, 78, 76
2, 45575, Note_on_c, 0, 78, 0
2, 45576, Note_on_c, 0, 81, 77
2, 45599, Note_on_c, 0, 81, 0
2, 45600, Note_on_c, 0, 84, 78
2, 45623, Note_on_c, 0, 84, 0
2, 45624, Note_on_c, 0, 81, 78
2, 45647, Note_on_c, 0, 81, 0
2, 45648, Note_on_c, 0, 79, 79
2, 45671, Note_on_c, 0, 79, 0
2, 45672, Note_on_c, 0, 78, 80
2, 45695, Note_on_c, 0, 78, 0
2, 45696, Note_on_c, 0, 79, 75
2, 45719, Note_on_c, 0, 79, 0
2, 45720, Note_on_c, 0, 83, 73
2, 45743, Note_on_c, 0, 83, 0
2, 45744, Note_on_c, 0, 79, 72
2, 45767, Note_on_c, 0, 79, 0
2, 45768, Note_on_c, 0, 74, 71
2, 45791, Note_on_c, 0, 74, 0
2, 45792, Note_on_c, 0, 71, 70
2, 45815, Note_on_c, 0, 71, 0
2, 46080, End_track
3, 0, Start_track
3, 0, Program_c, 0, 0
3, 0, Control_c, 0, 7, 127
3, 0, Control_c, 0, 10, 64
3, 46080, End_track
4, 0, Start_track
4, 0, Program_c, 1, 0
4, 0, Control_c, 1, 7, 127
4, 0, Control_c, 1, 10, 64
4, 0, Note_on_c, 1, 59, 63
4, 0, Note_on_c, 1, 55, 63
4, 45, Note_on_c, 1, 59, 0
4, 45, Note_on_c, 1, 55, 0
4, 48, Note_on_c, 1, 59, 63
4, 48, Note_on_c, 1, 55, 63
4, 93, Note_on_c, 1, 59, 0
4, 93, Note_on_c, 1, 55, 0
4, 96, Note_on_c, 1, 59, 63
4, 96, Note_on_c, 1, 55, 63
4, 141, Note_on_c, 1, 59, 0
4, 141, Note_on_c, 1, 55, 0
4, 144, Note_on_c, 1, 59, 63
4, 144, Note_on_c, 1, 55, 63
4, 189, Note_on_c, 1, 59, 0
4, 189, Note_on_c, 1, 55, 0
4, 192, Note_on_c, 1, 59, 63
4, 192, Note_on_c, 1, 55, 63
4, 237, Note_on_c, 1, 59, 0
4, 237, Note_on_c, 1, 55, 0
4, 240, Note_on_c, 1, 59, 63
4, 240, Note_on_c, 1, 55, 63
4, 285, Note_on_c, 1, 59, 0
4, 285, Note_on_c, 1, 55, 0
4, 288, Note_on_c, 1, 59, 63
4, 288, Note_on_c, 1, 55, 63
4, 333, Note_on_c, 1, 59, 0
4, 333, Note_on_c, 1, 55, 0
4, 336, Note_on_c, 1, 59, 63
4, 336, Note_on_c, 1, 55, 63
4, 381, Note_on_c, 1, 59, 0
4, 381, Note_on_c, 1, 55, 0
4, 384, Note_on_c, 1, 60, 63
4, 384, Note_on_c, 1, 55, 63
4, 480, Note_on_c, 1, 60, 0
4, 480, Note_on_c, 1, 59, 63
4, 525, Note_on_c, 1, 59, 0
4, 525, Note_on_c, 1, 55, 0
4, 576, Note_on_c, 1, 67, 63
4, 576, Note_on_c, 1, 65, 63
4, 621, Note_on_c, 1, 67, 0
4, 621, Note_on_c, 1, 65, 0
4, 624, Note_on_c, 1, 67, 63
4, 624, Note_on_c, 1, 65, 63
4, 669, Note_on_c, 1, 67, 0
4, 669, Note_on_c, 1, 65, 0
4, 672, Note_on_c, 1, 67, 63
4, 672, Note_on_c, 1, 65, 63
4, 717, Note_on_c, 1, 67, 0
4, 717, Note_on_c, 1, 65, 0
4, 720, Note_on_c, 1, 67, 63
4, 720, Note_on_c, 1, 65, 63
4, 765, Note_on_c, 1, 67, 0
4, 765, Note_on_c, 1, 65, 0
4, 768, Note_on_c, 1, 67, 69
4, 768, Note_on_c, 1, 64, 69
4, 901, Note_on_c, 1, 67, 0
4, 901, Note_on_c, 1, 64, 0
4, 912, Note_on_c, 1, 65, 75
4, 912, Note_on_c, 1, 62, 75
4, 957, Note_on_c, 1, 65, 0
4, 957, Note_on_c, 1, 62, 0
4, 960, Note_on_c, 1, 64, 77
4, 960, Note_on_c, 1, 60, 77
4, 1049, Note_on_c, 1, 64, 0
4, 1049, Note_on_c, 1, 60, 0
4, 1056, Note_on_c, 1, 64, 81
4, 1056, Note_on_c, 1, 61, 81
4, 1145, Note_on_c, 1, 64, 0
4, 1145, Note_on_c, 1, 61, 0
4, 1152, Note_on_c, 1, 62, 81
4, 1241, Note_on_c, 1, 62, 0
4, 1536, Note_on_c, 1, 59, 63
4, 1536, Note_on_c, 1, 55, 63
4, 1581, Note_on_c, 1, 59, 0
4, 1581, Note_on_c, 1, 55, 0
4, 1584, Note_on_c, 1, 59, 63
4, 1584, Note_on_c, 1, 55, 63
4, 1629, Note_on_c, 1, 59, 0
4, 1629, Note_on_c, 1, 55, 0
4, 1632, Note_on_c, 1, 59, 63
4, 1632, Note_on_c, 1, 55, 63
4, 1677, Note_on_c, 1, 59, 0
4, 1677, Note_on_c, 1, 55, 0
4, 1680, Note_on_c, 1, 59, 63
4, 1680, Note_on_c, 1, 55, 63
4, 1725, Note_on_c, 1, 59, 0
4, 1725, Note_on_c, 1, 55, 0
4, 1728, Note_on_c, 1, 59, 63
4, 1728, Note_on_c, 1, 55, 63
4, 1773, Note_on_c, 1, 59, 0
4, 1773, Note_on_c, 1, 55, 0
4, 1776, Note_on_c, 1, 59, 63
4, 1776, Note_on_c, 1, 55, 63
4, 1821, Note_on_c, 1, 59, 0
4, 1821, Note_on_c, 1, 55, 0
4, 1824, Note_on_c, 1, 59, 63
4, 1824, Note_on_c, 1, 55, 63
4, 1869, Note_on_c, 1, 59, 0
4, 1869, Note_on_c, 1, 55, 0
4, 1872, Note_on_c, 1, 59, 63
4, 1872, Note_on_c, 1, 55, 63
4, 1917, Note_on_c, 1, 59, 0
4, 1917, Note_on_c, 1, 55, 0
4, 1920, Note_on_c, 1, 60, 63
4, 1920, Note_on_c, 1, 55, 63
4, 2016, Note_on_c, 1, 60, 0
4, 2016, Note_on_c, 1, 59, 63
4, 2061, Note_on_c, 1, 59, 0
4, 2061, Note_on_c, 1, 55, 0
4, 2112, Note_on_c, 1, 71, 63
4, 2112, Note_on_c, 1, 67, 63
4, 2157, Note_on_c, 1, 71, 0
4, 2157, Note_on_c, 1, 67, 0
4, 2160, Note_on_c, 1, 71, 63
4, 2160, Note_on_c, 1, 67, 63
4, 2205, Note_on_c, 1, 71, 0
4, 2205, Note_on_c, 1, 67, 0
4, 2208, Note_on_c, 1, 71, 63
4, 2208, Note_on_c, 1, 67, 63
4, 2253, Note_on_c, 1, 71, 0
4, 2253, Note_on_c, 1, 67, 0
4, 2256, Note_on_c, 1, 71, 63
4, 2256, Note_on_c, 1, 67, 63
4, 2301, Note_on_c, 1, 71, 0
4, 2301, Note_on_c, 1, 67, 0
4, 2304, Note_on_c, 1, 71, 79
4, 2304, Note_on_c, 1, 67, 79
4, 2352, Note_on_c, 1, 71, 0
4, 2352, Note_on_c, 1, 67, 0
4, 2352, Note_on_c, 1, 71, 63
4, 2352, Note_on_c, 1, 67, 63
4, 2397, Note_on_c, 1, 71, 0
4, 2397, Note_on_c, 1, 67, 0
4, 2400, Note_on_c, 1, 71, 63
4, 2400, Note_on_c, 1, 67, 63
4, 2445, Note_on_c, 1, 71, 0
4, 2445, Note_on_c, 1, 67, 0
4, 2448, Note_on_c, 1, 71, 63
4, 2448, Note_on_c, 1, 67, 63
4, 2493, Note_on_c, 1, 71, 0
4, 2493, Note_on_c, 1, 67, 0
4, 2496, Note_on_c, 1, 66, 63
4, 2496, Note_on_c, 1, 57, 63
4, 2541, Note_on_c, 1, 66, 0
4, 2541, Note_on_c, 1, 57, 0
4, 2544, Note_on_c, 1, 66, 63
4, 2544, Note_on_c, 1, 57, 63
4, 2589, Note_on_c, 1, 66, 0
4, 2589, Note_on_c, 1, 57, 0
4, 2592, Note_on_c, 1, 64, 63
4, 2592, Note_on_c, 1, 57, 63
4, 2637, Note_on_c, 1, 64, 0
4, 2637, Note_on_c, 1, 57, 0
4, 2640, Note_on_c, 1, 64, 63
4, 2640, Note_on_c, 1, 57, 63
4, 2685, Note_on_c, 1, 64, 0
4, 2685, Note_on_c, 1, 57, 0
4, 2688, Note_on_c, 1, 66, 63
4, 2688, Note_on_c, 1, 62, 63
4, 2733, Note_on_c, 1, 66, 0
4, 2733, Note_on_c, 1, 62, 0
4, 2736, Note_on_c, 1, 66, 63
4, 2736, Note_on_c, 1, 62, 63
4, 2781, Note_on_c, 1, 66, 0
4, 2781, Note_on_c, 1, 62, 0
4, 2784, Note_on_c, 1, 66, 63
4, 2784, Note_on_c, 1, 62, 63
4, 2829, Note_on_c, 1, 66, 0
4, 2829, Note_on_c, 1, 62, 0
4, 2832, Note_on_c, 1, 66, 63
4, 2832, Note_on_c, 1, 62, 63
4, 2877, Note_on_c, 1, 66, 0
4, 2877, Note_on_c, 1, 62, 0
4, 2880, Note_on_c, 1, 67, 63
4, 2880, Note_on_c, 1, 62, 63
4, 2925, Note_on_c, 1, 67, 0
4, 2925, Note_on_c, 1, 62, 0
4, 2928, Note_on_c, 1, 67, 63
4, 2928, Note_on_c, 1, 62, 63
4, 2973, Note_on_c, 1, 67, 0
4, 2973, Note_on_c, 1, 62, 0
4, 2976, Note_on_c, 1, 67, 63
4, 2976, Note_on_c, 1, 62, 63
4, 3021, Note_on_c, 1, 67, 0
4, 3021, Note_on_c, 1, 62, 0
4, 3024, Note_on_c, 1, 67, 63
4, 3024, Note_on_c, 1, 62, 63
4, 3069, Note_on_c, 1, 67, 0
4, 3069, Note_on_c, 1, 62, 0
4, 3072, Note_on_c, 1, 66, 63
4, 3072, Note_on_c, 1, 62, 63
4, 3117, Note_on_c, 1, 66, 0
4, 3117, Note_on_c, 1, 62, 0
4, 3120, Note_on_c, 1, 66, 63
4, 3120, Note_on_c, 1, 62, 63
4, 3165, Note_on_c, 1, 66, 0
4, 3165, Note_on_c, 1, 62, 0
4, 3168, Note_on_c, 1, 66, 63
4, 3168, Note_on_c, 1, 62, 63
4, 3213, Note_on_c, 1, 66, 0
4, 3213, Note_on_c, 1, 62, 0
4, 3216, Note_on_c, 1, 66, 63
4, 3216, Note_on_c, 1, 62, 63
4, 3261, Note_on_c, 1, 66, 0
4, 3261, Note_on_c, 1, 62, 0
4, 3264, Note_on_c, 1, 67, 63
4, 3264, Note_on_c, 1, 62, 63
4, 3309, Note_on_c, 1, 67, 0
4, 3309, Note_on_c, 1, 62, 0
4, 3312, Note_on_c, 1, 67, 63
4, 3312, Note_on_c, 1, 62, 63
4, 3357, Note_on_c, 1, 67, 0
4, 3357, Note_on_c, 1, 62, 0
4, 3360, Note_on_c, 1, 67, 63
4, 3360, Note_on_c, 1, 62, 63
4, 3405, Note_on_c, 1, 67, 0
4, 3405, Note_on_c, 1, 62, 0
4, 3408, Note_on_c, 1, 67, 63
4, 3408, Note_on_c, 1, 62, 63
4, 3453, Note_on_c, 1, 67, 0
4, 3453, Note_on_c, 1, 62, 0
4, 3456, Note_on_c, 1, 66, 63
4, 3456, Note_on_c, 1, 62, 63
4, 3545, Note_on_c, 1, 66, 0
4, 3545, Note_on_c, 1, 62, 0
4, 3648, Note_on_c, 1, 50, 86
4, 3648, Note_on_c, 1, 38, 86
4, 3737, Note_on_c, 1, 50, 0
4, 3737, Note_on_c, 1, 38, 0
4, 3840, Note_on_c, 1, 59, 63
4, 3840, Note_on_c, 1, 55, 63
4, 3885, Note_on_c, 1, 59, 0
4, 3885, Note_on_c, 1, 55, 0
4, 3888, Note_on_c, 1, 59, 63
4, 3888, Note_on_c, 1, 55, 63
4, 3933, Note_on_c, 1, 59, 0
4, 3933, Note_on_c, 1, 55, 0
4, 3936, Note_on_c, 1, 59, 63
4, 3936, Note_on_c, 1, 55, 63
4, 3981, Note_on_c, 1, 59, 0
4, 3981, Note_on_c, 1, 55, 0
4, 3984, Note_on_c, 1, 59, 63
4, 3984, Note_on_c, 1, 55, 63
4, 4029, Note_on_c, 1, 59, 0
4, 4029, Note_on_c, 1, 55, 0
4, 4032, Note_on_c, 1, 59, 63
4, 4032, Note_on_c, 1, 55, 63
4, 4077, Note_on_c, 1, 59, 0
4, 4077, Note_on_c, 1, 55, 0
4, 4080, Note_on_c, 1, 59, 63
4, 4080, Note_on_c, 1, 55, 63
4, 4125, Note_on_c, 1, 59, 0
4, 4125, Note_on_c, 1, 55, 0
4, 4128, Note_on_c, 1, 59, 63
4, 4128, Note_on_c, 1, 55, 63
4, 4173, Note_on_c, 1, 59, 0
4, 4173, Note_on_c, 1, 55, 0
4, 4176, Note_on_c, 1, 59, 63
4, 4176, Note_on_c, 1, 55, 63
4, 4221, Note_on_c, 1, 59, 0
4, 4221, Note_on_c, 1, 55, 0
4, 4224, Note_on_c, 1, 60, 63
4, 4224, Note_on_c, 1, 55, 63
4, 4320, Note_on_c, 1, 60, 0
4, 4320, Note_on_c, 1, 59, 63
4, 4365, Note_on_c, 1, 59, 0
4, 4365, Note_on_c, 1, 55, 0
4, 4416, Note_on_c, 1, 67, 63
4, 4416, Note_on_c, 1, 65, 63
4, 4461, Note_on_c, 1, 67, 0
4, 4461, Note_on_c, 1, 65, 0
4, 4464, Note_on_c, 1, 67, 63
4, 4464, Note_on_c, 1, 65, 63
4, 4509, Note_on_c, 1, 67, 0
4, 4509, Note_on_c, 1, 65, 0
4, 4512, Note_on_c, 1, 67, 63
4, 4512, Note_on_c, 1, 65, 63
4, 4557, Note_on_c, 1, 67, 0
4, 4557, Note_on_c, 1, 65, 0
4, 4560, Note_on_c, 1, 67, 63
4, 4560, Note_on_c, 1, 65, 63
4, 4605, Note_on_c, 1, 67, 0
4, 4605, Note_on_c, 1, 65, 0
4, 4608, Note_on_c, 1, 67, 69
4, 4608, Note_on_c, 1, 64, 69
4, 4741, Note_on_c, 1, 67, 0
4, 4741, Note_on_c, 1, 64, 0
4, 4752, Note_on_c, 1, 65, 75
4, 4752, Note_on_c, 1, 62, 75
4, 4797, Note_on_c, 1, 65, 0
4, 4797, Note_on_c, 1, 62, 0
4, 4800, Note_on_c, 1, 64, 77
4, 4800, Note_on_c, 1, 60, 77
4, 4889, Note_on_c, 1, 64, 0
4, 4889, Note_on_c, 1, 60, 0
4, 4896, Note_on_c, 1, 64, 81
4, 4896, Note_on_c, 1, 61, 81
4, 4985, Note_on_c, 1, 64, 0
4, 4985, Note_on_c, 1, 61, 0
4, 4992, Note_on_c, 1, 62, 81
4, 5081, Note_on_c, 1, 62, 0
4, 5376, Note_on_c, 1, 59, 63
4, 5376, Note_on_c, 1, 55, 63
4, 5421, Note_on_c, 1, 59, 0
4, 5421, Note_on_c, 1, 55, 0
4, 5424, Note_on_c, 1, 59, 63
4, 5424, Note_on_c, 1, 55, 63
4, 5469, Note_on_c, 1, 59, 0
4, 5469, Note_on_c, 1, 55, 0
4, 5472, Note_on_c, 1, 59, 63
4, 5472, Note_on_c, 1, 55, 63
4, 5517, Note_on_c, 1, 59, 0
4, 5517, Note_on_c, 1, 55, 0
4, 5520, Note_on_c, 1, 59, 63
4, 5520, Note_on_c, 1, 55, 63
4, 5565, Note_on_c, 1, 59, 0
4, 5565, Note_on_c, 1, 55, 0
4, 5568, Note_on_c, 1, 59, 63
4, 5568, Note_on_c, 1, 55, 63
4, 5613, Note_on_c, 1, 59, 0
4, 5613, Note_on_c, 1, 55, 0
4, 5616, Note_on_c, 1, 59, 63
4, 5616, Note_on_c, 1, 55, 63
4, 5661, Note_on_c, 1, 59, 0
4, 5661, Note_on_c, 1, 55, 0
4, 5664, Note_on_c, 1, 59, 63
4, 5664, Note_on_c, 1, 55, 63
4, 5709, Note_on_c, 1, 59, 0
4, 5709, Note_on_c, 1, 55, 0
4, 5712, Note_on_c, 1, 59, 63
4, 5712, Note_on_c, 1, 55, 63
4, 5757, Note_on_c, 1, 59, 0
4, 5757, Note_on_c, 1, 55, 0
4, 5760, Note_on_c, 1, 60, 63
4, 5760, Note_on_c, 1, 55, 63
4, 5856, Note_on_c, 1, 60, 0
4, 5856, Note_on_c, 1, 59, 63
4, 5901, Note_on_c, 1, 59, 0
4, 5901, Note_on_c, 1, 55, 0
4, 5952, Note_on_c, 1, 71, 63
4, 5952, Note_on_c, 1, 67, 63
4, 5997, Note_on_c, 1, 71, 0
4, 5997, Note_on_c, 1, 67, 0
4, 6000, Note_on_c, 1, 71, 63
4, 6000, Note_on_c, 1, 67, 63
4, 6045, Note_on_c, 1, 71, 0
4, 6045, Note_on_c, 1, 67, 0
4, 6048, Note_on_c, 1, 71, 63
4, 6048, Note_on_c, 1, 67, 63
4, 6093, Note_on_c, 1, 71, 0
4, 6093, Note_on_c, 1, 67, 0
4, 6096, Note_on_c, 1, 71, 63
4, 6096, Note_on_c, 1, 67, 63
4, 6141, Note_on_c, 1, 71, 0
4, 6141, Note_on_c, 1, 67, 0
4, 6144, Note_on_c, 1, 71, 79
4, 6144, Note_on_c, 1, 67, 79
4, 6192, Note_on_c, 1, 71, 0
4, 6192, Note_on_c, 1, 67, 0
4, 6192, Note_on_c, 1, 71, 63
4, 6192, Note_on_c, 1, 67, 63
4, 6237, Note_on_c, 1, 71, 0
4, 6237, Note_on_c, 1, 67, 0
4, 6240, Note_on_c, 1, 71, 63
4, 6240, Note_on_c, 1, 67, 63
4, 6285, Note_on_c, 1, 71, 0
4, 6285, Note_on_c, 1, 67, 0
4, 6288, Note_on_c, 1, 71, 63
4, 6288, Note_on_c, 1, 67, 63
4, 6333, Note_on_c, 1, 71, 0
4, 6333, Note_on_c, 1, 67, 0
4, 6336, Note_on_c, 1, 66, 63
4, 6336, Note_on_c, 1, 57, 63
4, 6381, Note_on_c, 1, 66, 0
4, 6381, Note_on_c, 1, 57, 0
4, 6384, Note_on_c, 1, 66, 63
4, 6384, Note_on_c, 1, 57, 63
4, 6429, Note_on_c, 1, 66, 0
4, 6429, Note_on_c, 1, 57, 0
4, 6432, Note_on_c, 1, 64, 63
4, 6432, Note_on_c, 1, 57, 63
4, 6477, Note_on_c, 1, 64, 0
4, 6477, Note_on_c, 1, 57, 0
4, 6480, Note_on_c, 1, 64, 63
4, 6480, Note_on_c, 1, 57, 63
4, 6525, Note_on_c, 1, 64, 0
4, 6525, Note_on_c, 1, 57, 0
4, 6528, Note_on_c, 1, 66, 63
4, 6528, Note_on_c, 1, 62, 63
4, 6573, Note_on_c, 1, 66, 0
4, 6573, Note_on_c, 1, 62, 0
4, 6576, Note_on_c, 1, 66, 63
4, 6576, Note_on_c, 1, 62, 63
4, 6621, Note_on_c, 1, 66, 0
4, 6621, Note_on_c, 1, 62, 0
4, 6624, Note_on_c, 1, 66, 63
4, 6624, Note_on_c, 1, 62, 63
4, 6669, Note_on_c, 1, 66, 0
4, 6669, Note_on_c, 1, 62, 0
4, 6672, Note_on_c, 1, 66, 63
4, 6672, Note_on_c, 1, 62, 63
4, 6717, Note_on_c, 1, 66, 0
4, 6717, Note_on_c, 1, 62, 0
4, 6720, Note_on_c, 1, 67, 63
4, 6720, Note_on_c, 1, 62, 63
4, 6765, Note_on_c, 1, 67, 0
4, 6765, Note_on_c, 1, 62, 0
4, 6768, Note_on_c, 1, 67, 63
4, 6768, Note_on_c, 1, 62, 63
4, 6813, Note_on_c, 1, 67, 0
4, 6813, Note_on_c, 1, 62, 0
4, 6816, Note_on_c, 1, 67, 63
4, 6816, Note_on_c, 1, 62, 63
4, 6861, Note_on_c, 1, 67, 0
4, 6861, Note_on_c, 1, 62, 0
4, 6864, Note_on_c, 1, 67, 63
4, 6864, Note_on_c, 1, 62, 63
4, 6909, Note_on_c, 1, 67, 0
4, 6909, Note_on_c, 1, 62, 0
4, 6912, Note_on_c, 1, 66, 63
4, 6912, Note_on_c, 1, 62, 63
4, 6957, Note_on_c, 1, 66, 0
4, 6957, Note_on_c, 1, 62, 0
4, 6960, Note_on_c, 1, 66, 63
4, 6960, Note_on_c, 1, 62, 63
4, 7005, Note_on_c, 1, 66, 0
4, 7005, Note_on_c, 1, 62, 0
4, 7008, Note_on_c, 1, 66, 63
4, 7008, Note_on_c, 1, 62, 63
4, 7053, Note_on_c, 1, 66, 0
4, 7053, Note_on_c, 1, 62, 0
4, 7056, Note_on_c, 1, 66, 63
4, 7056, Note_on_c, 1, 62, 63
4, 7101, Note_on_c, 1, 66, 0
4, 7101, Note_on_c, 1, 62, 0
4, 7104, Note_on_c, 1, 67, 63
4, 7104, Note_on_c, 1, 62, 63
4, 7149, Note_on_c, 1, 67, 0
4, 7149, Note_on_c, 1, 62, 0
4, 7152, Note_on_c, 1, 67, 63
4, 7152, Note_on_c, 1, 62, 63
4, 7197, Note_on_c, 1, 67, 0
4, 7197, Note_on_c, 1, 62, 0
4, 7200, Note_on_c, 1, 67, 63
4, 7200, Note_on_c, 1, 62, 63
4, 7245, Note_on_c, 1, 67, 0
4, 7245, Note_on_c, 1, 62, 0
4, 7248, Note_on_c, 1, 67, 63
4, 7248, Note_on_c, 1, 62, 63
4, 7293, Note_on_c, 1, 67, 0
4, 7293, Note_on_c, 1, 62, 0
4, 7296, Note_on_c, 1, 66, 63
4, 7296, Note_on_c, 1, 62, 63
4, 7385, Note_on_c, 1, 66, 0
4, 7385, Note_on_c, 1, 62, 0
4, 7488, Note_on_c, 1, 50, 86
4, 7488, Note_on_c, 1, 38, 86
4, 7577, Note_on_c, 1, 50, 0
4, 7577, Note_on_c, 1, 38, 0
4, 7680, Note_on_c, 1, 62, 69
4, 7680, Note_on_c, 1, 58, 69
4, 7769, Note_on_c, 1, 62, 0
4, 7769, Note_on_c, 1, 58, 0
4, 7824, Note_on_c, 1, 62, 69
4, 7824, Note_on_c, 1, 58, 69
4, 7869, Note_on_c, 1, 62, 0
4, 7869, Note_on_c, 1, 58, 0
4, 7872, Note_on_c, 1, 63, 69
4, 7872, Note_on_c, 1, 60, 69
4, 7961, Note_on_c, 1, 63, 0
4, 7961, Note_on_c, 1, 60, 0
4, 8016, Note_on_c, 1, 63, 69
4, 8016, Note_on_c, 1, 60, 69
4, 8061, Note_on_c, 1, 63, 0
4, 8061, Note_on_c, 1, 60, 0
4, 8064, Note_on_c, 1, 65, 69
4, 8064, Note_on_c, 1, 62, 69
4, 8153, Note_on_c, 1, 65, 0
4, 8153, Note_on_c, 1, 62, 0
4, 8208, Note_on_c, 1, 62, 69
4, 8208, Note_on_c, 1, 58, 69
4, 8253, Note_on_c, 1, 62, 0
4, 8253, Note_on_c, 1, 58, 0
4, 8256, Note_on_c, 1, 60, 69
4, 8256, Note_on_c, 1, 57, 69
4, 8345, Note_on_c, 1, 60, 0
4, 8345, Note_on_c, 1, 57, 0
4, 8400, Note_on_c, 1, 60, 69
4, 8400, Note_on_c, 1, 57, 69
4, 8445, Note_on_c, 1, 60, 0
4, 8445, Note_on_c, 1, 57, 0
4, 8448, Note_on_c, 1, 62, 69
4, 8448, Note_on_c, 1, 58, 69
4, 8537, Note_on_c, 1, 62, 0
4, 8537, Note_on_c, 1, 58, 0
4, 8592, Note_on_c, 1, 62, 69
4, 8592, Note_on_c, 1, 58, 69
4, 8637, Note_on_c, 1, 62, 0
4, 8637, Note_on_c, 1, 58, 0
4, 8640, Note_on_c, 1, 55, 69
4, 8640, Note_on_c, 1, 51, 69
4, 8729, Note_on_c, 1, 55, 0
4, 8729, Note_on_c, 1, 51, 0
4, 8784, Note_on_c, 1, 55, 69
4, 8784, Note_on_c, 1, 51, 69
4, 8829, Note_on_c, 1, 55, 0
4, 8829, Note_on_c, 1, 51, 0
4, 8832, Note_on_c, 1, 54, 81
4, 8832, Note_on_c, 1, 50, 81
4, 8899, Note_on_c, 1, 54, 0
4, 8899, Note_on_c, 1, 50, 0
4, 8904, Note_on_c, 1, 42, 81
4, 8916, Note_on_c, 1, 42, 0
4, 8916, Note_on_c, 1, 43, 81
4, 8928, Note_on_c, 1, 43, 0
4, 8928, Note_on_c, 1, 45, 81
4, 8973, Note_on_c, 1, 45, 0
4, 8976, Note_on_c, 1, 42, 81
4, 9021, Note_on_c, 1, 42, 0
4, 9024, Note_on_c, 1, 38, 81
4, 9113, Note_on_c, 1, 38, 0
4, 9216, Note_on_c, 1, 59, 63
4, 9216, Note_on_c, 1, 55, 63
4, 9261, Note_on_c, 1, 59, 0
4, 9261, Note_on_c, 1, 55, 0
4, 9264, Note_on_c, 1, 59, 63
4, 9264, Note_on_c, 1, 55, 63
4, 9309, Note_on_c, 1, 59, 0
4, 9309, Note_on_c, 1, 55, 0
4, 9312, Note_on_c, 1, 59, 63
4, 9312, Note_on_c, 1, 55, 63
4, 9357, Note_on_c, 1, 59, 0
4, 9357, Note_on_c, 1, 55, 0
4, 9360, Note_on_c, 1, 59, 63
4, 9360, Note_on_c, 1, 55, 63
4, 9405, Note_on_c, 1, 59, 0
4, 9405, Note_on_c, 1, 55, 0
4, 9408, Note_on_c, 1, 59, 63
4, 9408, Note_on_c, 1, 55, 63
4, 9453, Note_on_c, 1, 59, 0
4, 9453, Note_on_c, 1, 55, 0
4, 9456, Note_on_c, 1, 59, 63
4, 9456, Note_on_c, 1, 55, 63
4, 9501, Note_on_c, 1, 59, 0
4, 9501, Note_on_c, 1, 55, 0
4, 9504, Note_on_c, 1, 59, 63
4, 9504, Note_on_c, 1, 55, 63
4, 9549, Note_on_c, 1, 59, 0
4, 9549, Note_on_c, 1, 55, 0
4, 9552, Note_on_c, 1, 59, 63
4, 9552, Note_on_c, 1, 55, 63
4, 9597, Note_on_c, 1, 59, 0
4, 9597, Note_on_c, 1, 55, 0
4, 9600, Note_on_c, 1, 60, 63
4, 9600, Note_on_c, 1, 55, 63
4, 9696, Note_on_c, 1, 60, 0
4, 9696, Note_on_c, 1, 59, 63
4, 9741, Note_on_c, 1, 59, 0
4, 9741, Note_on_c, 1, 55, 0
4, 9792, Note_on_c, 1, 74, 63
4, 9792, Note_on_c, 1, 68, 63
4, 9837, Note_on_c, 1, 74, 0
4, 9837, Note_on_c, 1, 68, 0
4, 9840, Note_on_c, 1, 74, 63
4, 9840, Note_on_c, 1, 68, 63
4, 9885, Note_on_c, 1, 74, 0
4, 9885, Note_on_c, 1, 68, 0
4, 9888, Note_on_c, 1, 74, 63
4, 9888, Note_on_c, 1, 68, 63
4, 9933, Note_on_c, 1, 74, 0
4, 9933, Note_on_c, 1, 68, 0
4, 9936, Note_on_c, 1, 74, 63
4, 9936, Note_on_c, 1, 68, 63
4, 9981, Note_on_c, 1, 74, 0
4, 9981, Note_on_c, 1, 68, 0
4, 9984, Note_on_c, 1, 72, 63
4, 9984, Note_on_c, 1, 69, 63
4, 10073, Note_on_c, 1, 72, 0
4, 10073, Note_on_c, 1, 69, 0
4, 10176, Note_on_c, 1, 72, 63
4, 10176, Note_on_c, 1, 66, 63
4, 10221, Note_on_c, 1, 72, 0
4, 10221, Note_on_c, 1, 66, 0
4, 10224, Note_on_c, 1, 72, 63
4, 10224, Note_on_c, 1, 66, 63
4, 10269, Note_on_c, 1, 72, 0
4, 10269, Note_on_c, 1, 66, 0
4, 10272, Note_on_c, 1, 72, 63
4, 10272, Note_on_c, 1, 66, 63
4, 10317, Note_on_c, 1, 72, 0
4, 10317, Note_on_c, 1, 66, 0
4, 10320, Note_on_c, 1, 72, 63
4, 10320, Note_on_c, 1, 66, 63
4, 10365, Note_on_c, 1, 72, 0
4, 10365, Note_on_c, 1, 66, 0
4, 10368, Note_on_c, 1, 71, 63
4, 10368, Note_on_c, 1, 67, 63
4, 10457, Note_on_c, 1, 71, 0
4, 10457, Note_on_c, 1, 67, 0
4, 11136, Note_on_c, 1, 67, 63
4, 11136, Note_on_c, 1, 64, 63
4, 11225, Note_on_c, 1, 67, 0
4, 11225, Note_on_c, 1, 64, 0
4, 11304, Note_on_c, 1, 67, 63
4, 11316, Note_on_c, 1, 67, 0
4, 11316, Note_on_c, 1, 65, 63
4, 11328, Note_on_c, 1, 65, 0
4, 11328, Note_on_c, 1, 63, 63
4, 11417, Note_on_c, 1, 63, 0
4, 11496, Note_on_c, 1, 69, 63
4, 11508, Note_on_c, 1, 69, 0
4, 11508, Note_on_c, 1, 67, 63
4, 11520, Note_on_c, 1, 67, 0
4, 11520, Note_on_c, 1, 66, 75
4, 11520, Note_on_c, 1, 62, 75
4, 11609, Note_on_c, 1, 66, 0
4, 11609, Note_on_c, 1, 62, 0
4, 11616, Note_on_c, 1, 67, 76
4, 11616, Note_on_c, 1, 64, 76
4, 11705, Note_on_c, 1, 67, 0
4, 11705, Note_on_c, 1, 64, 0
4, 11712, Note_on_c, 1, 64, 78
4, 11712, Note_on_c, 1, 60, 78
4, 11801, Note_on_c, 1, 64, 0
4, 11801, Note_on_c, 1, 60, 0
4, 11808, Note_on_c, 1, 62, 79
4, 11897, Note_on_c, 1, 62, 0
4, 11904, Note_on_c, 1, 59, 69
4, 11904, Note_on_c, 1, 55, 69
4, 11949, Note_on_c, 1, 59, 0
4, 11949, Note_on_c, 1, 55, 0
4, 11952, Note_on_c, 1, 59, 69
4, 11952, Note_on_c, 1, 55, 69
4, 11997, Note_on_c, 1, 59, 0
4, 11997, Note_on_c, 1, 55, 0
4, 12000, Note_on_c, 1, 59, 69
4, 12000, Note_on_c, 1, 55, 69
4, 12045, Note_on_c, 1, 59, 0
4, 12045, Note_on_c, 1, 55, 0
4, 12048, Note_on_c, 1, 59, 69
4, 12048, Note_on_c, 1, 55, 69
4, 12093, Note_on_c, 1, 59, 0
4, 12093, Note_on_c, 1, 55, 0
4, 12096, Note_on_c, 1, 60, 69
4, 12096, Note_on_c, 1, 55, 69
4, 12141, Note_on_c, 1, 60, 0
4, 12141, Note_on_c, 1, 55, 0
4, 12144, Note_on_c, 1, 60, 69
4, 12144, Note_on_c, 1, 55, 69
4, 12189, Note_on_c, 1, 60, 0
4, 12189, Note_on_c, 1, 55, 0
4, 12192, Note_on_c, 1, 60, 69
4, 12192, Note_on_c, 1, 55, 69
4, 12237, Note_on_c, 1, 60, 0
4, 12237, Note_on_c, 1, 55, 0
4, 12240, Note_on_c, 1, 60, 69
4, 12240, Note_on_c, 1, 55, 69
4, 12285, Note_on_c, 1, 60, 0
4, 12285, Note_on_c, 1, 55, 0
4, 12288, Note_on_c, 1, 59, 69
4, 12288, Note_on_c, 1, 55, 69
4, 12333, Note_on_c, 1, 59, 0
4, 12333, Note_on_c, 1, 55, 0
4, 12336, Note_on_c, 1, 59, 69
4, 12336, Note_on_c, 1, 55, 69
4, 12381, Note_on_c, 1, 59, 0
4, 12381, Note_on_c, 1, 55, 0
4, 12384, Note_on_c, 1, 59, 69
4, 12384, Note_on_c, 1, 55, 69
4, 12429, Note_on_c, 1, 59, 0
4, 12429, Note_on_c, 1, 55, 0
4, 12432, Note_on_c, 1, 59, 69
4, 12432, Note_on_c, 1, 55, 69
4, 12477, Note_on_c, 1, 59, 0
4, 12477, Note_on_c, 1, 55, 0
4, 12480, Note_on_c, 1, 60, 69
4, 12480, Note_on_c, 1, 55, 69
4, 12525, Note_on_c, 1, 60, 0
4, 12525, Note_on_c, 1, 55, 0
4, 12528, Note_on_c, 1, 60, 69
4, 12528, Note_on_c, 1, 55, 69
4, 12573, Note_on_c, 1, 60, 0
4, 12573, Note_on_c, 1, 55, 0
4, 12576, Note_on_c, 1, 60, 69
4, 12576, Note_on_c, 1, 55, 69
4, 12621, Note_on_c, 1, 60, 0
4, 12621, Note_on_c, 1, 55, 0
4, 12624, Note_on_c, 1, 60, 69
4, 12624, Note_on_c, 1, 55, 69
4, 12669, Note_on_c, 1, 60, 0
4, 12669, Note_on_c, 1, 55, 0
4, 12672, Note_on_c, 1, 59, 69
4, 12672, Note_on_c, 1, 55, 69
4, 12761, Note_on_c, 1, 59, 0
4, 12761, Note_on_c, 1, 55, 0
4, 12864, Note_on_c, 1, 43, 86
4, 12864, Note_on_c, 1, 31, 86
4, 12953, Note_on_c, 1, 43, 0
4, 12953, Note_on_c, 1, 31, 0
4, 13056, Note_on_c, 1, 62, 69
4, 13056, Note_on_c, 1, 58, 69
4, 13145, Note_on_c, 1, 62, 0
4, 13145, Note_on_c, 1, 58, 0
4, 13200, Note_on_c, 1, 62, 69
4, 13200, Note_on_c, 1, 58, 69
4, 13245, Note_on_c, 1, 62, 0
4, 13245, Note_on_c, 1, 58, 0
4, 13248, Note_on_c, 1, 63, 69
4, 13248, Note_on_c, 1, 60, 69
4, 13337, Note_on_c, 1, 63, 0
4, 13337, Note_on_c, 1, 60, 0
4, 13392, Note_on_c, 1, 63, 69
4, 13392, Note_on_c, 1, 60, 69
4, 13437, Note_on_c, 1, 63, 0
4, 13437, Note_on_c, 1, 60, 0
4, 13440, Note_on_c, 1, 65, 69
4, 13440, Note_on_c, 1, 62, 69
4, 13529, Note_on_c, 1, 65, 0
4, 13529, Note_on_c, 1, 62, 0
4, 13584, Note_on_c, 1, 62, 69
4, 13584, Note_on_c, 1, 58, 69
4, 13629, Note_on_c, 1, 62, 0
4, 13629, Note_on_c, 1, 58, 0
4, 13632, Note_on_c, 1, 60, 69
4, 13632, Note_on_c, 1, 57, 69
4, 13721, Note_on_c, 1, 60, 0
4, 13721, Note_on_c, 1, 57, 0
4, 13776, Note_on_c, 1, 60, 69
4, 13776, Note_on_c, 1, 57, 69
4, 13821, Note_on_c, 1, 60, 0
4, 13821, Note_on_c, 1, 57, 0
4, 13824, Note_on_c, 1, 62, 69
4, 13824, Note_on_c, 1, 58, 69
4, 13913, Note_on_c, 1, 62, 0
4, 13913, Note_on_c, 1, 58, 0
4, 13968, Note_on_c, 1, 62, 69
4, 13968, Note_on_c, 1, 58, 69
4, 14013, Note_on_c, 1, 62, 0
4, 14013, Note_on_c, 1, 58, 0
4, 14016, Note_on_c, 1, 55, 69
4, 14016, Note_on_c, 1, 51, 69
4, 14105, Note_on_c, 1, 55, 0
4, 14105, Note_on_c, 1, 51, 0
4, 14160, Note_on_c, 1, 55, 69
4, 14160, Note_on_c, 1, 51, 69
4, 14205, Note_on_c, 1, 55, 0
4, 14205, Note_on_c, 1, 51, 0
4, 14208, Note_on_c, 1, 54, 81
4, 14208, Note_on_c, 1, 50, 81
4, 14275, Note_on_c, 1, 54, 0
4, 14275, Note_on_c, 1, 50, 0
4, 14280, Note_on_c, 1, 42, 81
4, 14292, Note_on_c, 1, 42, 0
4, 14292, Note_on_c, 1, 43, 81
4, 14304, Note_on_c, 1, 43, 0
4, 14304, Note_on_c, 1, 45, 81
4, 14349, Note_on_c, 1, 45, 0
4, 14352, Note_on_c, 1, 42, 81
4, 14397, Note_on_c, 1, 42, 0
4, 14400, Note_on_c, 1, 38, 81
4, 14489, Note_on_c, 1, 38, 0
4, 14592, Note_on_c, 1, 59, 63
4, 14592, Note_on_c, 1, 55, 63
4, 14637, Note_on_c, 1, 59, 0
4, 14637, Note_on_c, 1, 55, 0
4, 14640, Note_on_c, 1, 59, 63
4, 14640, Note_on_c, 1, 55, 63
4, 14685, Note_on_c, 1, 59, 0
4, 14685, Note_on_c, 1, 55, 0
4, 14688, Note_on_c, 1, 59, 63
4, 14688, Note_on_c, 1, 55, 63
4, 14733, Note_on_c, 1, 59, 0
4, 14733, Note_on_c, 1, 55, 0
4, 14736, Note_on_c, 1, 59, 63
4, 14736, Note_on_c, 1, 55, 63
4, 14781, Note_on_c, 1, 59, 0
4, 14781, Note_on_c, 1, 55, 0
4, 14784, Note_on_c, 1, 59, 63
4, 14784, Note_on_c, 1, 55, 63
4, 14829, Note_on_c, 1, 59, 0
4, 14829, Note_on_c, 1, 55, 0
4, 14832, Note_on_c, 1, 59, 63
4, 14832, Note_on_c, 1, 55, 63
4, 14877, Note_on_c, 1, 59, 0
4, 14877, Note_on_c, 1, 55, 0
4, 14880, Note_on_c, 1, 59, 63
4, 14880, Note_on_c, 1, 55, 63
4, 14925, Note_on_c, 1, 59, 0
4, 14925, Note_on_c, 1, 55, 0
4, 14928, Note_on_c, 1, 59, 63
4, 14928, Note_on_c, 1, 55, 63
4, 14973, Note_on_c, 1, 59, 0
4, 14973, Note_on_c, 1, 55, 0
4, 14976, Note_on_c, 1, 60, 63
4, 14976, Note_on_c, 1, 55, 63
4, 15072, Note_on_c, 1, 60, 0
4, 15072, Note_on_c, 1, 59, 63
4, 15117, Note_on_c, 1, 59, 0
4, 15117, Note_on_c, 1, 55, 0
4, 15168, Note_on_c, 1, 74, 63
4, 15168, Note_on_c, 1, 68, 63
4, 15213, Note_on_c, 1, 74, 0
4, 15213, Note_on_c, 1, 68, 0
4, 15216, Note_on_c, 1, 74, 63
4, 15216, Note_on_c, 1, 68, 63
4, 15261, Note_on_c, 1, 74, 0
4, 15261, Note_on_c, 1, 68, 0
4, 15264, Note_on_c, 1, 74, 63
4, 15264, Note_on_c, 1, 68, 63
4, 15309, Note_on_c, 1, 74, 0
4, 15309, Note_on_c, 1, 68, 0
4, 15312, Note_on_c, 1, 74, 63
4, 15312, Note_on_c, 1, 68, 63
4, 15357, Note_on_c, 1, 74, 0
4, 15357, Note_on_c, 1, 68, 0
4, 15360, Note_on_c, 1, 72, 63
4, 15360, Note_on_c, 1, 69, 63
4, 15449, Note_on_c, 1, 72, 0
4, 15449, Note_on_c, 1, 69, 0
4, 15552, Note_on_c, 1, 72, 63
4, 15552, Note_on_c, 1, 66, 63
4, 15597, Note_on_c, 1, 72, 0
4, 15597, Note_on_c, 1, 66, 0
4, 15600, Note_on_c, 1, 72, 63
4, 15600, Note_on_c, 1, 66, 63
4, 15645, Note_on_c, 1, 72, 0
4, 15645, Note_on_c, 1, 66, 0
4, 15648, Note_on_c, 1, 72, 63
4, 15648, Note_on_c, 1, 66, 63
4, 15693, Note_on_c, 1, 72, 0
4, 15693, Note_on_c, 1, 66, 0
4, 15696, Note_on_c, 1, 72, 63
4, 15696, Note_on_c, 1, 66, 63
4, 15741, Note_on_c, 1, 72, 0
4, 15741, Note_on_c, 1, 66, 0
4, 15744, Note_on_c, 1, 71, 63
4, 15744, Note_on_c, 1, 67, 63
4, 15833, Note_on_c, 1, 71, 0
4, 15833, Note_on_c, 1, 67, 0
4, 16512, Note_on_c, 1, 67, 63
4, 16512, Note_on_c, 1, 64, 63
4, 16601, Note_on_c, 1, 67, 0
4, 16601, Note_on_c, 1, 64, 0
4, 16680, Note_on_c, 1, 67, 63
4, 16692, Note_on_c, 1, 67, 0
4, 16692, Note_on_c, 1, 65, 63
4, 16704, Note_on_c, 1, 65, 0
4, 16704, Note_on_c, 1, 63, 63
4, 16793, Note_on_c, 1, 63, 0
4, 16872, Note_on_c, 1, 69, 63
4, 16884, Note_on_c, 1, 69, 0
4, 16884, Note_on_c, 1, 67, 63
4, 16896, Note_on_c, 1, 67, 0
4, 16896, Note_on_c, 1, 66, 75
4, 16896, Note_on_c, 1, 62, 75
4, 16985, Note_on_c, 1, 66, 0
4, 16985, Note_on_c, 1, 62, 0
4, 16992, Note_on_c, 1, 67, 76
4, 16992, Note_on_c, 1, 64, 76
4, 17081, Note_on_c, 1, 67, 0
4, 17081, Note_on_c, 1, 64, 0
4, 17088, Note_on_c, 1, 64, 78
4, 17088, Note_on_c, 1, 60, 78
4, 17177, Note_on_c, 1, 64, 0
4, 17177, Note_on_c, 1, 60, 0
4, 17184, Note_on_c, 1, 62, 79
4, 17273, Note_on_c, 1, 62, 0
4, 17280, Note_on_c, 1, 59, 69
4, 17280, Note_on_c, 1, 55, 69
4, 17325, Note_on_c, 1, 59, 0
4, 17325, Note_on_c, 1, 55, 0
4, 17328, Note_on_c, 1, 59, 69
4, 17328, Note_on_c, 1, 55, 69
4, 17373, Note_on_c, 1, 59, 0
4, 17373, Note_on_c, 1, 55, 0
4, 17376, Note_on_c, 1, 59, 69
4, 17376, Note_on_c, 1, 55, 69
4, 17421, Note_on_c, 1, 59, 0
4, 17421, Note_on_c, 1, 55, 0
4, 17424, Note_on_c, 1, 59, 69
4, 17424, Note_on_c, 1, 55, 69
4, 17469, Note_on_c, 1, 59, 0
4, 17469, Note_on_c, 1, 55, 0
4, 17472, Note_on_c, 1, 60, 69
4, 17472, Note_on_c, 1, 55, 69
4, 17517, Note_on_c, 1, 60, 0
4, 17517, Note_on_c, 1, 55, 0
4, 17520, Note_on_c, 1, 60, 69
4, 17520, Note_on_c, 1, 55, 69
4, 17565, Note_on_c, 1, 60, 0
4, 17565, Note_on_c, 1, 55, 0
4, 17568, Note_on_c, 1, 60, 69
4, 17568, Note_on_c, 1, 55, 69
4, 17613, Note_on_c, 1, 60, 0
4, 17613, Note_on_c, 1, 55, 0
4, 17616, Note_on_c, 1, 60, 69
4, 17616, Note_on_c, 1, 55, 69
4, 17661, Note_on_c, 1, 60, 0
4, 17661, Note_on_c, 1, 55, 0
4, 17664, Note_on_c, 1, 59, 69
4, 17664, Note_on_c, 1, 55, 69
4, 17709, Note_on_c, 1, 59, 0
4, 17709, Note_on_c, 1, 55, 0
4, 17712, Note_on_c, 1, 59, 69
4, 17712, Note_on_c, 1, 55, 69
4, 17757, Note_on_c, 1, 59, 0
4, 17757, Note_on_c, 1, 55, 0
4, 17760, Note_on_c, 1, 59, 69
4, 17760, Note_on_c, 1, 55, 69
4, 17805, Note_on_c, 1, 59, 0
4, 17805, Note_on_c, 1, 55, 0
4, 17808, Note_on_c, 1, 59, 69
4, 17808, Note_on_c, 1, 55, 69
4, 17853, Note_on_c, 1, 59, 0
4, 17853, Note_on_c, 1, 55, 0
4, 17856, Note_on_c, 1, 60, 69
4, 17856, Note_on_c, 1, 55, 69
4, 17901, Note_on_c, 1, 60, 0
4, 17901, Note_on_c, 1, 55, 0
4, 17904, Note_on_c, 1, 60, 69
4, 17904, Note_on_c, 1, 55, 69
4, 17949, Note_on_c, 1, 60, 0
4, 17949, Note_on_c, 1, 55, 0
4, 17952, Note_on_c, 1, 60, 69
4, 17952, Note_on_c, 1, 55, 69
4, 17997, Note_on_c, 1, 60, 0
4, 17997, Note_on_c, 1, 55, 0
4, 18000, Note_on_c, 1, 60, 69
4, 18000, Note_on_c, 1, 55, 69
4, 18045, Note_on_c, 1, 60, 0
4, 18045, Note_on_c, 1, 55, 0
4, 18048, Note_on_c, 1, 59, 69
4, 18048, Note_on_c, 1, 55, 69
4, 18137, Note_on_c, 1, 59, 0
4, 18137, Note_on_c, 1, 55, 0
4, 18240, Note_on_c, 1, 43, 86
4, 18240, Note_on_c, 1, 31, 86
4, 18329, Note_on_c, 1, 43, 0
4, 18329, Note_on_c, 1, 31, 0
4, 18432, Note_on_c, 1, 52, 81
4, 18432, Note_on_c, 1, 40, 81
4, 18521, Note_on_c, 1, 52, 0
4, 18521, Note_on_c, 1, 40, 0
4, 18576, Note_on_c, 1, 71, 75
4, 18576, Note_on_c, 1, 67, 75
4, 18624, Note_on_c, 1, 71, 0
4, 18624, Note_on_c, 1, 67, 0
4, 18624, Note_on_c, 1, 69, 75
4, 18624, Note_on_c, 1, 66, 75
4, 18757, Note_on_c, 1, 69, 0
4, 18757, Note_on_c, 1, 66, 0
4, 18768, Note_on_c, 1, 72, 75
4, 18768, Note_on_c, 1, 69, 75
4, 18816, Note_on_c, 1, 72, 0
4, 18816, Note_on_c, 1, 69, 0
4, 18816, Note_on_c, 1, 71, 75
4, 18816, Note_on_c, 1, 67, 75
4, 18949, Note_on_c, 1, 71, 0
4, 18949, Note_on_c, 1, 67, 0
4, 18960, Note_on_c, 1, 70, 75
4, 18960, Note_on_c, 1, 64, 75
4, 19008, Note_on_c, 1, 70, 0
4, 19008, Note_on_c, 1, 64, 0
4, 19008, Note_on_c, 1, 71, 75
4, 19008, Note_on_c, 1, 62, 75
4, 19141, Note_on_c, 1, 71, 0
4, 19141, Note_on_c, 1, 62, 0
4, 19152, Note_on_c, 1, 66, 75
4, 19152, Note_on_c, 1, 62, 75
4, 19200, Note_on_c, 1, 66, 0
4, 19200, Note_on_c, 1, 62, 0
4, 19200, Note_on_c, 1, 64, 75
4, 19200, Note_on_c, 1, 61, 75
4, 19333, Note_on_c, 1, 64, 0
4, 19333, Note_on_c, 1, 61, 0
4, 19344, Note_on_c, 1, 58, 75
4, 19392, Note_on_c, 1, 58, 0
4, 19392, Note_on_c, 1, 59, 75
4, 19481, Note_on_c, 1, 59, 0
4, 19488, Note_on_c, 1, 64, 75
4, 19577, Note_on_c, 1, 64, 0
4, 19584, Note_on_c, 1, 66, 75
4, 19673, Note_on_c, 1, 66, 0
4, 19680, Note_on_c, 1, 66, 75
4, 19769, Note_on_c, 1, 66, 0
4, 19776, Note_on_c, 1, 59, 75
4, 19865, Note_on_c, 1, 59, 0
4, 19920, Note_on_c, 1, 51, 81
4, 19920, Note_on_c, 1, 39, 81
4, 19968, Note_on_c, 1, 51, 0
4, 19968, Note_on_c, 1, 39, 0
4, 19968, Note_on_c, 1, 52, 81
4, 19968, Note_on_c, 1, 40, 81
4, 20057, Note_on_c, 1, 52, 0
4, 20057, Note_on_c, 1, 40, 0
4, 20112, Note_on_c, 1, 71, 75
4, 20112, Note_on_c, 1, 67, 75
4, 20160, Note_on_c, 1, 71, 0
4, 20160, Note_on_c, 1, 67, 0
4, 20160, Note_on_c, 1, 69, 75
4, 20160, Note_on_c, 1, 66, 75
4, 20293, Note_on_c, 1, 69, 0
4, 20293, Note_on_c, 1, 66, 0
4, 20304, Note_on_c, 1, 72, 75
4, 20304, Note_on_c, 1, 69, 75
4, 20352, Note_on_c, 1, 72, 0
4, 20352, Note_on_c, 1, 69, 0
4, 20352, Note_on_c, 1, 71, 75
4, 20352, Note_on_c, 1, 67, 75
4, 20485, Note_on_c, 1, 71, 0
4, 20485, Note_on_c, 1, 67, 0
4, 20496, Note_on_c, 1, 70, 75
4, 20496, Note_on_c, 1, 64, 75
4, 20544, Note_on_c, 1, 70, 0
4, 20544, Note_on_c, 1, 64, 0
4, 20544, Note_on_c, 1, 71, 75
4, 20544, Note_on_c, 1, 62, 75
4, 20677, Note_on_c, 1, 71, 0
4, 20677, Note_on_c, 1, 62, 0
4, 20688, Note_on_c, 1, 66, 75
4, 20688, Note_on_c, 1, 62, 75
4, 20736, Note_on_c, 1, 66, 0
4, 20736, Note_on_c, 1, 62, 0
4, 20736, Note_on_c, 1, 64, 75
4, 20736, Note_on_c, 1, 61, 75
4, 20869, Note_on_c, 1, 64, 0
4, 20869, Note_on_c, 1, 61, 0
4, 20880, Note_on_c, 1, 58, 75
4, 20925, Note_on_c, 1, 58, 0
4, 20928, Note_on_c, 1, 59, 75
4, 21017, Note_on_c, 1, 59, 0
4, 21024, Note_on_c, 1, 64, 75
4, 21113, Note_on_c, 1, 64, 0
4, 21120, Note_on_c, 1, 66, 75
4, 21209, Note_on_c, 1, 66, 0
4, 21216, Note_on_c, 1, 66, 75
4, 21305, Note_on_c, 1, 66, 0
4, 21312, Note_on_c, 1, 59, 75
4, 21401, Note_on_c, 1, 59, 0
4, 21456, Note_on_c, 1, 47, 81
4, 21456, Note_on_c, 1, 35, 81
4, 21501, Note_on_c, 1, 47, 0
4, 21501, Note_on_c, 1, 35, 0
4, 21504, Note_on_c, 1, 48, 81
4, 21504, Note_on_c, 1, 36, 81
4, 21593, Note_on_c, 1, 48, 0
4, 21593, Note_on_c, 1, 36, 0
4, 21648, Note_on_c, 1, 64, 75
4, 21648, Note_on_c, 1, 60, 75
4, 21693, Note_on_c, 1, 64, 0
4, 21693, Note_on_c, 1, 60, 0
4, 21696, Note_on_c, 1, 62, 75
4, 21696, Note_on_c, 1, 59, 75
4, 21829, Note_on_c, 1, 62, 0
4, 21829, Note_on_c, 1, 59, 0
4, 21840, Note_on_c, 1, 59, 75
4, 21840, Note_on_c, 1, 56, 75
4, 21885, Note_on_c, 1, 59, 0
4, 21885, Note_on_c, 1, 56, 0
4, 21888, Note_on_c, 1, 60, 81
4, 21888, Note_on_c, 1, 57, 81
4, 21977, Note_on_c, 1, 60, 0
4, 21977, Note_on_c, 1, 57, 0
4, 21984, Note_on_c, 1, 62, 75
4, 21984, Note_on_c, 1, 59, 75
4, 22073, Note_on_c, 1, 62, 0
4, 22073, Note_on_c, 1, 59, 0
4, 22080, Note_on_c, 1, 64, 69
4, 22080, Note_on_c, 1, 60, 69
4, 22169, Note_on_c, 1, 64, 0
4, 22169, Note_on_c, 1, 60, 0
4, 22320, Note_on_c, 1, 74, 63
4, 22320, Note_on_c, 1, 71, 63
4, 22365, Note_on_c, 1, 74, 0
4, 22365, Note_on_c, 1, 71, 0
4, 22368, Note_on_c, 1, 72, 63
4, 22368, Note_on_c, 1, 69, 63
4, 22457, Note_on_c, 1, 72, 0
4, 22457, Note_on_c, 1, 69, 0
4, 22512, Note_on_c, 1, 66, 63
4, 22557, Note_on_c, 1, 66, 0
4, 22560, Note_on_c, 1, 67, 63
4, 22649, Note_on_c, 1, 67, 0
4, 22656, Note_on_c, 1, 63, 63
4, 22745, Note_on_c, 1, 63, 0
4, 22752, Note_on_c, 1, 64, 63
4, 22841, Note_on_c, 1, 64, 0
4, 22848, Note_on_c, 1, 59, 63
4, 22937, Note_on_c, 1, 59, 0
4, 23088, Note_on_c, 1, 52, 81
4, 23133, Note_on_c, 1, 52, 0
4, 23136, Note_on_c, 1, 64, 81
4, 23269, Note_on_c, 1, 64, 0
4, 23280, Note_on_c, 1, 63, 81
4, 23325, Note_on_c, 1, 63, 0
4, 23328, Note_on_c, 1, 66, 81
4, 23469, Note_on_c, 1, 66, 0
4, 23472, Note_on_c, 1, 64, 81
4, 23517, Note_on_c, 1, 64, 0
4, 23520, Note_on_c, 1, 67, 81
4, 23653, Note_on_c, 1, 67, 0
4, 23664, Note_on_c, 1, 66, 81
4, 23709, Note_on_c, 1, 66, 0
4, 23712, Note_on_c, 1, 69, 81
4, 23853, Note_on_c, 1, 69, 0
4, 23856, Note_on_c, 1, 66, 81
4, 23901, Note_on_c, 1, 66, 0
4, 23904, Note_on_c, 1, 63, 81
4, 24037, Note_on_c, 1, 63, 0
4, 24048, Note_on_c, 1, 60, 81
4, 24093, Note_on_c, 1, 60, 0
4, 24096, Note_on_c, 1, 57, 81
4, 24237, Note_on_c, 1, 57, 0
4, 24240, Note_on_c, 1, 54, 81
4, 24285, Note_on_c, 1, 54, 0
4, 24288, Note_on_c, 1, 51, 81
4, 24333, Note_on_c, 1, 51, 0
4, 24336, Note_on_c, 1, 51, 81
4, 24359, Note_on_c, 1, 51, 0
4, 24360, Note_on_c, 1, 48, 81
4, 24383, Note_on_c, 1, 48, 0
4, 24384, Note_on_c, 1, 45, 81
4, 24429, Note_on_c, 1, 45, 0
4, 24432, Note_on_c, 1, 48, 81
4, 24455, Note_on_c, 1, 48, 0
4, 24456, Note_on_c, 1, 45, 81
4, 24479, Note_on_c, 1, 45, 0
4, 24480, Note_on_c, 1, 42, 81
4, 24525, Note_on_c, 1, 42, 0
4, 24528, Note_on_c, 1, 45, 81
4, 24551, Note_on_c, 1, 45, 0
4, 24552, Note_on_c, 1, 42, 81
4, 24575, Note_on_c, 1, 42, 0
4, 24576, Note_on_c, 1, 39, 81
4, 24665, Note_on_c, 1, 39, 0
4, 25248, Note_on_c, 1, 51, 81
4, 25344, Note_on_c, 1, 51, 0
4, 25344, Note_on_c, 1, 52, 81
4, 25389, Note_on_c, 1, 52, 0
4, 25440, Note_on_c, 1, 45, 81
4, 25485, Note_on_c, 1, 45, 0
4, 25536, Note_on_c, 1, 47, 81
4, 25581, Note_on_c, 1, 47, 0
4, 25632, Note_on_c, 1, 47, 81
4, 25677, Note_on_c, 1, 47, 0
4, 25776, Note_on_c, 1, 52, 81
4, 25821, Note_on_c, 1, 52, 0
4, 25824, Note_on_c, 1, 40, 81
4, 25869, Note_on_c, 1, 40, 0
4, 25968, Note_on_c, 1, 52, 81
4, 26013, Note_on_c, 1, 52, 0
4, 26016, Note_on_c, 1, 40, 81
4, 26061, Note_on_c, 1, 40, 0
4, 26160, Note_on_c, 1, 52, 81
4, 26205, Note_on_c, 1, 52, 0
4, 26208, Note_on_c, 1, 40, 81
4, 26253, Note_on_c, 1, 40, 0
4, 26352, Note_on_c, 1, 52, 81
4, 26397, Note_on_c, 1, 52, 0
4, 26400, Note_on_c, 1, 40, 81
4, 26445, Note_on_c, 1, 40, 0
4, 26544, Note_on_c, 1, 52, 81
4, 26589, Note_on_c, 1, 52, 0
4, 26592, Note_on_c, 1, 40, 81
4, 26637, Note_on_c, 1, 40, 0
4, 26736, Note_on_c, 1, 51, 81
4, 26781, Note_on_c, 1, 51, 0
4, 26784, Note_on_c, 1, 39, 81
4, 26829, Note_on_c, 1, 39, 0
4, 26928, Note_on_c, 1, 50, 81
4, 26973, Note_on_c, 1, 50, 0
4, 26976, Note_on_c, 1, 38, 81
4, 27021, Note_on_c, 1, 38, 0
4, 27120, Note_on_c, 1, 50, 81
4, 27165, Note_on_c, 1, 50, 0
4, 27168, Note_on_c, 1, 38, 81
4, 27213, Note_on_c, 1, 38, 0
4, 27312, Note_on_c, 1, 50, 81
4, 27357, Note_on_c, 1, 50, 0
4, 27360, Note_on_c, 1, 38, 81
4, 27405, Note_on_c, 1, 38, 0
4, 27504, Note_on_c, 1, 50, 69
4, 27549, Note_on_c, 1, 50, 0
4, 27552, Note_on_c, 1, 38, 69
4, 27597, Note_on_c, 1, 38, 0
4, 27648, Note_on_c, 1, 59, 63
4, 27648, Note_on_c, 1, 55, 63
4, 27693, Note_on_c, 1, 59, 0
4, 27693, Note_on_c, 1, 55, 0
4, 27696, Note_on_c, 1, 59, 63
4, 27696, Note_on_c, 1, 55, 63
4, 27741, Note_on_c, 1, 59, 0
4, 27741, Note_on_c, 1, 55, 0
4, 27744, Note_on_c, 1, 59, 63
4, 27744, Note_on_c, 1, 55, 63
4, 27789, Note_on_c, 1, 59, 0
4, 27789, Note_on_c, 1, 55, 0
4, 27792, Note_on_c, 1, 59, 63
4, 27792, Note_on_c, 1, 55, 63
4, 27837, Note_on_c, 1, 59, 0
4, 27837, Note_on_c, 1, 55, 0
4, 27840, Note_on_c, 1, 59, 63
4, 27840, Note_on_c, 1, 55, 63
4, 27885, Note_on_c, 1, 59, 0
4, 27885, Note_on_c, 1, 55, 0
4, 27888, Note_on_c, 1, 59, 63
4, 27888, Note_on_c, 1, 55, 63
4, 27933, Note_on_c, 1, 59, 0
4, 27933, Note_on_c, 1, 55, 0
4, 27936, Note_on_c, 1, 59, 63
4, 27936, Note_on_c, 1, 55, 63
4, 27981, Note_on_c, 1, 59, 0
4, 27981, Note_on_c, 1, 55, 0
4, 27984, Note_on_c, 1, 59, 63
4, 27984, Note_on_c, 1, 55, 63
4, 28029, Note_on_c, 1, 59, 0
4, 28029, Note_on_c, 1, 55, 0
4, 28032, Note_on_c, 1, 60, 63
4, 28032, Note_on_c, 1, 55, 63
4, 28128, Note_on_c, 1, 60, 0
4, 28128, Note_on_c, 1, 59, 63
4, 28173, Note_on_c, 1, 59, 0
4, 28173, Note_on_c, 1, 55, 0
4, 28224, Note_on_c, 1, 67, 63
4, 28224, Note_on_c, 1, 65, 63
4, 28269, Note_on_c, 1, 67, 0
4, 28269, Note_on_c, 1, 65, 0
4, 28272, Note_on_c, 1, 67, 63
4, 28272, Note_on_c, 1, 65, 63
4, 28317, Note_on_c, 1, 67, 0
4, 28317, Note_on_c, 1, 65, 0
4, 28320, Note_on_c, 1, 67, 63
4, 28320, Note_on_c, 1, 65, 63
4, 28365, Note_on_c, 1, 67, 0
4, 28365, Note_on_c, 1, 65, 0
4, 28368, Note_on_c, 1, 67, 63
4, 28368, Note_on_c, 1, 65, 63
4, 28413, Note_on_c, 1, 67, 0
4, 28413, Note_on_c, 1, 65, 0
4, 28416, Note_on_c, 1, 67, 63
4, 28416, Note_on_c, 1, 64, 63
4, 28549, Note_on_c, 1, 67, 0
4, 28549, Note_on_c, 1, 64, 0
4, 28560, Note_on_c, 1, 65, 69
4, 28560, Note_on_c, 1, 62, 69
4, 28605, Note_on_c, 1, 65, 0
4, 28605, Note_on_c, 1, 62, 0
4, 28608, Note_on_c, 1, 64, 72
4, 28608, Note_on_c, 1, 60, 72
4, 28697, Note_on_c, 1, 64, 0
4, 28697, Note_on_c, 1, 60, 0
4, 28704, Note_on_c, 1, 64, 76
4, 28704, Note_on_c, 1, 61, 76
4, 28793, Note_on_c, 1, 64, 0
4, 28793, Note_on_c, 1, 61, 0
4, 28800, Note_on_c, 1, 62, 81
4, 28889, Note_on_c, 1, 62, 0
4, 29184, Note_on_c, 1, 59, 63
4, 29184, Note_on_c, 1, 55, 63
4, 29229, Note_on_c, 1, 59, 0
4, 29229, Note_on_c, 1, 55, 0
4, 29232, Note_on_c, 1, 59, 63
4, 29232, Note_on_c, 1, 55, 63
4, 29277, Note_on_c, 1, 59, 0
4, 29277, Note_on_c, 1, 55, 0
4, 29280, Note_on_c, 1, 59, 63
4, 29280, Note_on_c, 1, 55, 63
4, 29325, Note_on_c, 1, 59, 0
4, 29325, Note_on_c, 1, 55, 0
4, 29328, Note_on_c, 1, 59, 63
4, 29328, Note_on_c, 1, 55, 63
4, 29373, Note_on_c, 1, 59, 0
4, 29373, Note_on_c, 1, 55, 0
4, 29376, Note_on_c, 1, 59, 63
4, 29376, Note_on_c, 1, 55, 63
4, 29421, Note_on_c, 1, 59, 0
4, 29421, Note_on_c, 1, 55, 0
4, 29424, Note_on_c, 1, 59, 63
4, 29424, Note_on_c, 1, 55, 63
4, 29469, Note_on_c, 1, 59, 0
4, 29469, Note_on_c, 1, 55, 0
4, 29472, Note_on_c, 1, 59, 63
4, 29472, Note_on_c, 1, 55, 63
4, 29517, Note_on_c, 1, 59, 0
4, 29517, Note_on_c, 1, 55, 0
4, 29520, Note_on_c, 1, 59, 63
4, 29520, Note_on_c, 1, 55, 63
4, 29565, Note_on_c, 1, 59, 0
4, 29565, Note_on_c, 1, 55, 0
4, 29568, Note_on_c, 1, 60, 63
4, 29568, Note_on_c, 1, 55, 63
4, 29664, Note_on_c, 1, 60, 0
4, 29664, Note_on_c, 1, 59, 63
4, 29709, Note_on_c, 1, 59, 0
4, 29709, Note_on_c, 1, 55, 0
4, 29760, Note_on_c, 1, 71, 63
4, 29760, Note_on_c, 1, 67, 63
4, 29805, Note_on_c, 1, 71, 0
4, 29805, Note_on_c, 1, 67, 0
4, 29808, Note_on_c, 1, 71, 63
4, 29808, Note_on_c, 1, 67, 63
4, 29853, Note_on_c, 1, 71, 0
4, 29853, Note_on_c, 1, 67, 0
4, 29856, Note_on_c, 1, 71, 63
4, 29856, Note_on_c, 1, 67, 63
4, 29901, Note_on_c, 1, 71, 0
4, 29901, Note_on_c, 1, 67, 0
4, 29904, Note_on_c, 1, 71, 63
4, 29904, Note_on_c, 1, 67, 63
4, 29949, Note_on_c, 1, 71, 0
4, 29949, Note_on_c, 1, 67, 0
4, 29952, Note_on_c, 1, 71, 63
4, 29952, Note_on_c, 1, 67, 63
4, 29997, Note_on_c, 1, 71, 0
4, 29997, Note_on_c, 1, 67, 0
4, 30000, Note_on_c, 1, 71, 63
4, 30000, Note_on_c, 1, 67, 63
4, 30045, Note_on_c, 1, 71, 0
4, 30045, Note_on_c, 1, 67, 0
4, 30048, Note_on_c, 1, 71, 63
4, 30048, Note_on_c, 1, 67, 63
4, 30093, Note_on_c, 1, 71, 0
4, 30093, Note_on_c, 1, 67, 0
4, 30096, Note_on_c, 1, 71, 63
4, 30096, Note_on_c, 1, 67, 63
4, 30141, Note_on_c, 1, 71, 0
4, 30141, Note_on_c, 1, 67, 0
4, 30144, Note_on_c, 1, 66, 63
4, 30144, Note_on_c, 1, 57, 63
4, 30189, Note_on_c, 1, 66, 0
4, 30189, Note_on_c, 1, 57, 0
4, 30192, Note_on_c, 1, 66, 63
4, 30192, Note_on_c, 1, 57, 63
4, 30237, Note_on_c, 1, 66, 0
4, 30237, Note_on_c, 1, 57, 0
4, 30240, Note_on_c, 1, 64, 63
4, 30240, Note_on_c, 1, 57, 63
4, 30285, Note_on_c, 1, 64, 0
4, 30285, Note_on_c, 1, 57, 0
4, 30288, Note_on_c, 1, 64, 63
4, 30288, Note_on_c, 1, 57, 63
4, 30333, Note_on_c, 1, 64, 0
4, 30333, Note_on_c, 1, 57, 0
4, 30336, Note_on_c, 1, 66, 63
4, 30336, Note_on_c, 1, 62, 63
4, 30381, Note_on_c, 1, 66, 0
4, 30381, Note_on_c, 1, 62, 0
4, 30384, Note_on_c, 1, 66, 63
4, 30384, Note_on_c, 1, 62, 63
4, 30429, Note_on_c, 1, 66, 0
4, 30429, Note_on_c, 1, 62, 0
4, 30432, Note_on_c, 1, 66, 63
4, 30432, Note_on_c, 1, 62, 63
4, 30477, Note_on_c, 1, 66, 0
4, 30477, Note_on_c, 1, 62, 0
4, 30480, Note_on_c, 1, 66, 63
4, 30480, Note_on_c, 1, 62, 63
4, 30525, Note_on_c, 1, 66, 0
4, 30525, Note_on_c, 1, 62, 0
4, 30528, Note_on_c, 1, 67, 63
4, 30528, Note_on_c, 1, 62, 63
4, 30573, Note_on_c, 1, 67, 0
4, 30573, Note_on_c, 1, 62, 0
4, 30576, Note_on_c, 1, 67, 63
4, 30576, Note_on_c, 1, 62, 63
4, 30621, Note_on_c, 1, 67, 0
4, 30621, Note_on_c, 1, 62, 0
4, 30624, Note_on_c, 1, 67, 63
4, 30624, Note_on_c, 1, 62, 63
4, 30669, Note_on_c, 1, 67, 0
4, 30669, Note_on_c, 1, 62, 0
4, 30672, Note_on_c, 1, 67, 63
4, 30672, Note_on_c, 1, 62, 63
4, 30717, Note_on_c, 1, 67, 0
4, 30717, Note_on_c, 1, 62, 0
4, 30720, Note_on_c, 1, 66, 63
4, 30720, Note_on_c, 1, 62, 63
4, 30765, Note_on_c, 1, 66, 0
4, 30765, Note_on_c, 1, 62, 0
4, 30768, Note_on_c, 1, 66, 63
4, 30768, Note_on_c, 1, 62, 63
4, 30813, Note_on_c, 1, 66, 0
4, 30813, Note_on_c, 1, 62, 0
4, 30816, Note_on_c, 1, 66, 63
4, 30816, Note_on_c, 1, 62, 63
4, 30861, Note_on_c, 1, 66, 0
4, 30861, Note_on_c, 1, 62, 0
4, 30864, Note_on_c, 1, 66, 63
4, 30864, Note_on_c, 1, 62, 63
4, 30909, Note_on_c, 1, 66, 0
4, 30909, Note_on_c, 1, 62, 0
4, 30912, Note_on_c, 1, 67, 63
4, 30912, Note_on_c, 1, 62, 63
4, 30957, Note_on_c, 1, 67, 0
4, 30957, Note_on_c, 1, 62, 0
4, 30960, Note_on_c, 1, 67, 63
4, 30960, Note_on_c, 1, 62, 63
4, 31005, Note_on_c, 1, 67, 0
4, 31005, Note_on_c, 1, 62, 0
4, 31008, Note_on_c, 1, 67, 63
4, 31008, Note_on_c, 1, 62, 63
4, 31053, Note_on_c, 1, 67, 0
4, 31053, Note_on_c, 1, 62, 0
4, 31056, Note_on_c, 1, 67, 63
4, 31056, Note_on_c, 1, 62, 63
4, 31101, Note_on_c, 1, 67, 0
4, 31101, Note_on_c, 1, 62, 0
4, 31104, Note_on_c, 1, 66, 63
4, 31104, Note_on_c, 1, 62, 63
4, 31149, Note_on_c, 1, 66, 0
4, 31149, Note_on_c, 1, 62, 0
4, 31152, Note_on_c, 1, 66, 63
4, 31152, Note_on_c, 1, 62, 63
4, 31197, Note_on_c, 1, 66, 0
4, 31197, Note_on_c, 1, 62, 0
4, 31200, Note_on_c, 1, 66, 63
4, 31200, Note_on_c, 1, 62, 63
4, 31245, Note_on_c, 1, 66, 0
4, 31245, Note_on_c, 1, 62, 0
4, 31248, Note_on_c, 1, 66, 63
4, 31248, Note_on_c, 1, 62, 63
4, 31293, Note_on_c, 1, 66, 0
4, 31293, Note_on_c, 1, 62, 0
4, 31296, Note_on_c, 1, 66, 63
4, 31296, Note_on_c, 1, 62, 63
4, 31385, Note_on_c, 1, 66, 0
4, 31385, Note_on_c, 1, 62, 0
4, 31488, Note_on_c, 1, 59, 63
4, 31488, Note_on_c, 1, 55, 63
4, 31533, Note_on_c, 1, 59, 0
4, 31533, Note_on_c, 1, 55, 0
4, 31536, Note_on_c, 1, 59, 63
4, 31536, Note_on_c, 1, 55, 63
4, 31581, Note_on_c, 1, 59, 0
4, 31581, Note_on_c, 1, 55, 0
4, 31584, Note_on_c, 1, 59, 63
4, 31584, Note_on_c, 1, 55, 63
4, 31629, Note_on_c, 1, 59, 0
4, 31629, Note_on_c, 1, 55, 0
4, 31632, Note_on_c, 1, 59, 63
4, 31632, Note_on_c, 1, 55, 63
4, 31677, Note_on_c, 1, 59, 0
4, 31677, Note_on_c, 1, 55, 0
4, 31680, Note_on_c, 1, 59, 63
4, 31680, Note_on_c, 1, 55, 63
4, 31725, Note_on_c, 1, 59, 0
4, 31725, Note_on_c, 1, 55, 0
4, 31728, Note_on_c, 1, 59, 63
4, 31728, Note_on_c, 1, 55, 63
4, 31773, Note_on_c, 1, 59, 0
4, 31773, Note_on_c, 1, 55, 0
4, 31776, Note_on_c, 1, 59, 63
4, 31776, Note_on_c, 1, 55, 63
4, 31821, Note_on_c, 1, 59, 0
4, 31821, Note_on_c, 1, 55, 0
4, 31824, Note_on_c, 1, 59, 63
4, 31824, Note_on_c, 1, 55, 63
4, 31869, Note_on_c, 1, 59, 0
4, 31869, Note_on_c, 1, 55, 0
4, 31872, Note_on_c, 1, 60, 63
4, 31872, Note_on_c, 1, 55, 63
4, 31968, Note_on_c, 1, 60, 0
4, 31968, Note_on_c, 1, 59, 63
4, 32013, Note_on_c, 1, 59, 0
4, 32013, Note_on_c, 1, 55, 0
4, 32064, Note_on_c, 1, 65, 63
4, 32087, Note_on_c, 1, 65, 0
4, 32088, Note_on_c, 1, 67, 63
4, 32111, Note_on_c, 1, 67, 0
4, 32112, Note_on_c, 1, 65, 63
4, 32135, Note_on_c, 1, 65, 0
4, 32136, Note_on_c, 1, 67, 63
4, 32159, Note_on_c, 1, 67, 0
4, 32160, Note_on_c, 1, 65, 63
4, 32183, Note_on_c, 1, 65, 0
4, 32184, Note_on_c, 1, 67, 63
4, 32207, Note_on_c, 1, 67, 0
4, 32208, Note_on_c, 1, 65, 63
4, 32231, Note_on_c, 1, 65, 0
4, 32232, Note_on_c, 1, 67, 63
4, 32255, Note_on_c, 1, 67, 0
4, 32256, Note_on_c, 1, 64, 63
4, 32345, Note_on_c, 1, 64, 0
4, 32400, Note_on_c, 1, 64, 63
4, 32423, Note_on_c, 1, 64, 0
4, 32424, Note_on_c, 1, 62, 63
4, 32447, Note_on_c, 1, 62, 0
4, 32448, Note_on_c, 1, 60, 64
4, 32537, Note_on_c, 1, 60, 0
4, 32592, Note_on_c, 1, 61, 66
4, 32640, Note_on_c, 1, 61, 0
4, 32640, Note_on_c, 1, 62, 66
4, 32817, Note_on_c, 1, 62, 0
4, 32832, Note_on_c, 1, 50, 69
4, 32921, Note_on_c, 1, 50, 0
4, 33024, Note_on_c, 1, 59, 63
4, 33024, Note_on_c, 1, 55, 63
4, 33069, Note_on_c, 1, 59, 0
4, 33069, Note_on_c, 1, 55, 0
4, 33072, Note_on_c, 1, 59, 63
4, 33072, Note_on_c, 1, 55, 63
4, 33117, Note_on_c, 1, 59, 0
4, 33117, Note_on_c, 1, 55, 0
4, 33120, Note_on_c, 1, 59, 63
4, 33120, Note_on_c, 1, 55, 63
4, 33165, Note_on_c, 1, 59, 0
4, 33165, Note_on_c, 1, 55, 0
4, 33168, Note_on_c, 1, 59, 63
4, 33168, Note_on_c, 1, 55, 63
4, 33213, Note_on_c, 1, 59, 0
4, 33213, Note_on_c, 1, 55, 0
4, 33216, Note_on_c, 1, 59, 63
4, 33216, Note_on_c, 1, 55, 63
4, 33261, Note_on_c, 1, 59, 0
4, 33261, Note_on_c, 1, 55, 0
4, 33264, Note_on_c, 1, 59, 63
4, 33264, Note_on_c, 1, 55, 63
4, 33309, Note_on_c, 1, 59, 0
4, 33309, Note_on_c, 1, 55, 0
4, 33312, Note_on_c, 1, 59, 63
4, 33312, Note_on_c, 1, 55, 63
4, 33357, Note_on_c, 1, 59, 0
4, 33357, Note_on_c, 1, 55, 0
4, 33360, Note_on_c, 1, 59, 63
4, 33360, Note_on_c, 1, 55, 63
4, 33405, Note_on_c, 1, 59, 0
4, 33405, Note_on_c, 1, 55, 0
4, 33408, Note_on_c, 1, 60, 63
4, 33408, Note_on_c, 1, 55, 63
4, 33504, Note_on_c, 1, 60, 0
4, 33504, Note_on_c, 1, 59, 63
4, 33549, Note_on_c, 1, 59, 0
4, 33549, Note_on_c, 1, 55, 0
4, 33600, Note_on_c, 1, 71, 69
4, 33600, Note_on_c, 1, 67, 69
4, 33645, Note_on_c, 1, 71, 0
4, 33645, Note_on_c, 1, 67, 0
4, 33648, Note_on_c, 1, 71, 69
4, 33648, Note_on_c, 1, 67, 69
4, 33693, Note_on_c, 1, 71, 0
4, 33693, Note_on_c, 1, 67, 0
4, 33696, Note_on_c, 1, 71, 69
4, 33696, Note_on_c, 1, 67, 69
4, 33741, Note_on_c, 1, 71, 0
4, 33741, Note_on_c, 1, 67, 0
4, 33744, Note_on_c, 1, 71, 69
4, 33744, Note_on_c, 1, 67, 69
4, 33789, Note_on_c, 1, 71, 0
4, 33789, Note_on_c, 1, 67, 0
4, 33792, Note_on_c, 1, 71, 85
4, 33792, Note_on_c, 1, 67, 85
4, 33840, Note_on_c, 1, 71, 0
4, 33840, Note_on_c, 1, 67, 0
4, 33840, Note_on_c, 1, 71, 69
4, 33840, Note_on_c, 1, 67, 69
4, 33885, Note_on_c, 1, 71, 0
4, 33885, Note_on_c, 1, 67, 0
4, 33888, Note_on_c, 1, 71, 69
4, 33888, Note_on_c, 1, 67, 69
4, 33933, Note_on_c, 1, 71, 0
4, 33933, Note_on_c, 1, 67, 0
4, 33936, Note_on_c, 1, 71, 69
4, 33936, Note_on_c, 1, 67, 69
4, 33981, Note_on_c, 1, 71, 0
4, 33981, Note_on_c, 1, 67, 0
4, 33984, Note_on_c, 1, 66, 69
4, 33984, Note_on_c, 1, 57, 69
4, 34029, Note_on_c, 1, 66, 0
4, 34029, Note_on_c, 1, 57, 0
4, 34032, Note_on_c, 1, 66, 69
4, 34032, Note_on_c, 1, 57, 69
4, 34077, Note_on_c, 1, 66, 0
4, 34077, Note_on_c, 1, 57, 0
4, 34080, Note_on_c, 1, 64, 69
4, 34080, Note_on_c, 1, 57, 69
4, 34125, Note_on_c, 1, 64, 0
4, 34125, Note_on_c, 1, 57, 0
4, 34128, Note_on_c, 1, 64, 69
4, 34128, Note_on_c, 1, 57, 69
4, 34173, Note_on_c, 1, 64, 0
4, 34173, Note_on_c, 1, 57, 0
4, 34176, Note_on_c, 1, 66, 69
4, 34176, Note_on_c, 1, 62, 69
4, 34221, Note_on_c, 1, 66, 0
4, 34221, Note_on_c, 1, 62, 0
4, 34224, Note_on_c, 1, 66, 69
4, 34224, Note_on_c, 1, 62, 69
4, 34269, Note_on_c, 1, 66, 0
4, 34269, Note_on_c, 1, 62, 0
4, 34272, Note_on_c, 1, 66, 69
4, 34272, Note_on_c, 1, 62, 69
4, 34317, Note_on_c, 1, 66, 0
4, 34317, Note_on_c, 1, 62, 0
4, 34320, Note_on_c, 1, 66, 69
4, 34320, Note_on_c, 1, 62, 69
4, 34365, Note_on_c, 1, 66, 0
4, 34365, Note_on_c, 1, 62, 0
4, 34368, Note_on_c, 1, 67, 69
4, 34368, Note_on_c, 1, 62, 69
4, 34413, Note_on_c, 1, 67, 0
4, 34413, Note_on_c, 1, 62, 0
4, 34416, Note_on_c, 1, 67, 69
4, 34416, Note_on_c, 1, 62, 69
4, 34461, Note_on_c, 1, 67, 0
4, 34461, Note_on_c, 1, 62, 0
4, 34464, Note_on_c, 1, 67, 69
4, 34464, Note_on_c, 1, 62, 69
4, 34509, Note_on_c, 1, 67, 0
4, 34509, Note_on_c, 1, 62, 0
4, 34512, Note_on_c, 1, 67, 69
4, 34512, Note_on_c, 1, 62, 69
4, 34557, Note_on_c, 1, 67, 0
4, 34557, Note_on_c, 1, 62, 0
4, 34560, Note_on_c, 1, 66, 69
4, 34560, Note_on_c, 1, 62, 69
4, 34605, Note_on_c, 1, 66, 0
4, 34605, Note_on_c, 1, 62, 0
4, 34608, Note_on_c, 1, 66, 69
4, 34608, Note_on_c, 1, 62, 69
4, 34653, Note_on_c, 1, 66, 0
4, 34653, Note_on_c, 1, 62, 0
4, 34656, Note_on_c, 1, 66, 69
4, 34656, Note_on_c, 1, 62, 69
4, 34701, Note_on_c, 1, 66, 0
4, 34701, Note_on_c, 1, 62, 0
4, 34704, Note_on_c, 1, 66, 69
4, 34704, Note_on_c, 1, 62, 69
4, 34749, Note_on_c, 1, 66, 0
4, 34749, Note_on_c, 1, 62, 0
4, 34752, Note_on_c, 1, 67, 69
4, 34752, Note_on_c, 1, 62, 69
4, 34797, Note_on_c, 1, 67, 0
4, 34797, Note_on_c, 1, 62, 0
4, 34800, Note_on_c, 1, 67, 69
4, 34800, Note_on_c, 1, 62, 69
4, 34845, Note_on_c, 1, 67, 0
4, 34845, Note_on_c, 1, 62, 0
4, 34848, Note_on_c, 1, 67, 69
4, 34848, Note_on_c, 1, 62, 69
4, 34893, Note_on_c, 1, 67, 0
4, 34893, Note_on_c, 1, 62, 0
4, 34896, Note_on_c, 1, 67, 69
4, 34896, Note_on_c, 1, 62, 69
4, 34941, Note_on_c, 1, 67, 0
4, 34941, Note_on_c, 1, 62, 0
4, 34944, Note_on_c, 1, 66, 69
4, 34944, Note_on_c, 1, 62, 69
4, 34989, Note_on_c, 1, 66, 0
4, 34989, Note_on_c, 1, 62, 0
4, 34992, Note_on_c, 1, 66, 69
4, 34992, Note_on_c, 1, 62, 69
4, 35037, Note_on_c, 1, 66, 0
4, 35037, Note_on_c, 1, 62, 0
4, 35040, Note_on_c, 1, 66, 69
4, 35040, Note_on_c, 1, 62, 69
4, 35085, Note_on_c, 1, 66, 0
4, 35085, Note_on_c, 1, 62, 0
4, 35088, Note_on_c, 1, 66, 69
4, 35088, Note_on_c, 1, 62, 69
4, 35133, Note_on_c, 1, 66, 0
4, 35133, Note_on_c, 1, 62, 0
4, 35136, Note_on_c, 1, 66, 69
4, 35136, Note_on_c, 1, 62, 69
4, 35225, Note_on_c, 1, 66, 0
4, 35225, Note_on_c, 1, 62, 0
4, 35328, Note_on_c, 1, 58, 69
4, 35351, Note_on_c, 1, 58, 0
4, 35352, Note_on_c, 1, 65, 69
4, 35375, Note_on_c, 1, 65, 0
4, 35376, Note_on_c, 1, 62, 69
4, 35399, Note_on_c, 1, 62, 0
4, 35400, Note_on_c, 1, 65, 69
4, 35423, Note_on_c, 1, 65, 0
4, 35424, Note_on_c, 1, 58, 69
4, 35447, Note_on_c, 1, 58, 0
4, 35448, Note_on_c, 1, 65, 69
4, 35471, Note_on_c, 1, 65, 0
4, 35472, Note_on_c, 1, 62, 69
4, 35495, Note_on_c, 1, 62, 0
4, 35496, Note_on_c, 1, 65, 69
4, 35519, Note_on_c, 1, 65, 0
4, 35520, Note_on_c, 1, 60, 69
4, 35543, Note_on_c, 1, 60, 0
4, 35544, Note_on_c, 1, 65, 69
4, 35567, Note_on_c, 1, 65, 0
4, 35568, Note_on_c, 1, 63, 69
4, 35591, Note_on_c, 1, 63, 0
4, 35592, Note_on_c, 1, 65, 69
4, 35615, Note_on_c, 1, 65, 0
4, 35616, Note_on_c, 1, 60, 69
4, 35639, Note_on_c, 1, 60, 0
4, 35640, Note_on_c, 1, 65, 69
4, 35663, Note_on_c, 1, 65, 0
4, 35664, Note_on_c, 1, 63, 69
4, 35687, Note_on_c, 1, 63, 0
4, 35688, Note_on_c, 1, 65, 69
4, 35711, Note_on_c, 1, 65, 0
4, 35712, Note_on_c, 1, 58, 69
4, 35735, Note_on_c, 1, 58, 0
4, 35736, Note_on_c, 1, 65, 69
4, 35759, Note_on_c, 1, 65, 0
4, 35760, Note_on_c, 1, 62, 69
4, 35783, Note_on_c, 1, 62, 0
4, 35784, Note_on_c, 1, 65, 69
4, 35807, Note_on_c, 1, 65, 0
4, 35808, Note_on_c, 1, 58, 69
4, 35831, Note_on_c, 1, 58, 0
4, 35832, Note_on_c, 1, 65, 69
4, 35855, Note_on_c, 1, 65, 0
4, 35856, Note_on_c, 1, 62, 69
4, 35879, Note_on_c, 1, 62, 0
4, 35880, Note_on_c, 1, 65, 69
4, 35903, Note_on_c, 1, 65, 0
4, 35904, Note_on_c, 1, 57, 69
4, 35927, Note_on_c, 1, 57, 0
4, 35928, Note_on_c, 1, 62, 69
4, 35951, Note_on_c, 1, 62, 0
4, 35952, Note_on_c, 1, 60, 69
4, 35975, Note_on_c, 1, 60, 0
4, 35976, Note_on_c, 1, 62, 69
4, 35999, Note_on_c, 1, 62, 0
4, 36000, Note_on_c, 1, 57, 69
4, 36023, Note_on_c, 1, 57, 0
4, 36024, Note_on_c, 1, 62, 69
4, 36047, Note_on_c, 1, 62, 0
4, 36048, Note_on_c, 1, 60, 69
4, 36071, Note_on_c, 1, 60, 0
4, 36072, Note_on_c, 1, 62, 69
4, 36095, Note_on_c, 1, 62, 0
4, 36096, Note_on_c, 1, 55, 69
4, 36119, Note_on_c, 1, 55, 0
4, 36120, Note_on_c, 1, 62, 69
4, 36143, Note_on_c, 1, 62, 0
4, 36144, Note_on_c, 1, 58, 69
4, 36167, Note_on_c, 1, 58, 0
4, 36168, Note_on_c, 1, 62, 69
4, 36191, Note_on_c, 1, 62, 0
4, 36192, Note_on_c, 1, 55, 69
4, 36215, Note_on_c, 1, 55, 0
4, 36216, Note_on_c, 1, 62, 69
4, 36239, Note_on_c, 1, 62, 0
4, 36240, Note_on_c, 1, 58, 69
4, 36263, Note_on_c, 1, 58, 0
4, 36264, Note_on_c, 1, 62, 69
4, 36287, Note_on_c, 1, 62, 0
4, 36288, Note_on_c, 1, 51, 69
4, 36311, Note_on_c, 1, 51, 0
4, 36312, Note_on_c, 1, 55, 69
4, 36335, Note_on_c, 1, 55, 0
4, 36336, Note_on_c, 1, 54, 69
4, 36359, Note_on_c, 1, 54, 0
4, 36360, Note_on_c, 1, 55, 69
4, 36383, Note_on_c, 1, 55, 0
4, 36384, Note_on_c, 1, 51, 69
4, 36407, Note_on_c, 1, 51, 0
4, 36408, Note_on_c, 1, 55, 69
4, 36431, Note_on_c, 1, 55, 0
4, 36432, Note_on_c, 1, 54, 69
4, 36455, Note_on_c, 1, 54, 0
4, 36456, Note_on_c, 1, 55, 69
4, 36479, Note_on_c, 1, 55, 0
4, 36480, Note_on_c, 1, 50, 69
4, 36569, Note_on_c, 1, 50, 0
4, 36672, Note_on_c, 1, 50, 75
4, 36695, Note_on_c, 1, 50, 0
4, 36696, Note_on_c, 1, 38, 75
4, 36719, Note_on_c, 1, 38, 0
4, 36720, Note_on_c, 1, 48, 75
4, 36743, Note_on_c, 1, 48, 0
4, 36744, Note_on_c, 1, 36, 74
4, 36767, Note_on_c, 1, 36, 0
4, 36768, Note_on_c, 1, 47, 73
4, 36791, Note_on_c, 1, 47, 0
4, 36792, Note_on_c, 1, 35, 72
4, 36815, Note_on_c, 1, 35, 0
4, 36816, Note_on_c, 1, 45, 71
4, 36839, Note_on_c, 1, 45, 0
4, 36840, Note_on_c, 1, 33, 70
4, 36863, Note_on_c, 1, 33, 0
4, 36864, Note_on_c, 1, 59, 63
4, 36864, Note_on_c, 1, 55, 63
4, 36909, Note_on_c, 1, 59, 0
4, 36909, Note_on_c, 1, 55, 0
4, 36912, Note_on_c, 1, 59, 63
4, 36912, Note_on_c, 1, 55, 63
4, 36957, Note_on_c, 1, 59, 0
4, 36957, Note_on_c, 1, 55, 0
4, 36960, Note_on_c, 1, 59, 63
4, 36960, Note_on_c, 1, 55, 63
4, 37005, Note_on_c, 1, 59, 0
4, 37005, Note_on_c, 1, 55, 0
4, 37008, Note_on_c, 1, 59, 63
4, 37008, Note_on_c, 1, 55, 63
4, 37053, Note_on_c, 1, 59, 0
4, 37053, Note_on_c, 1, 55, 0
4, 37056, Note_on_c, 1, 59, 63
4, 37056, Note_on_c, 1, 55, 63
4, 37101, Note_on_c, 1, 59, 0
4, 37101, Note_on_c, 1, 55, 0
4, 37104, Note_on_c, 1, 59, 63
4, 37104, Note_on_c, 1, 55, 63
4, 37149, Note_on_c, 1, 59, 0
4, 37149, Note_on_c, 1, 55, 0
4, 37152, Note_on_c, 1, 59, 63
4, 37152, Note_on_c, 1, 55, 63
4, 37197, Note_on_c, 1, 59, 0
4, 37197, Note_on_c, 1, 55, 0
4, 37200, Note_on_c, 1, 59, 63
4, 37200, Note_on_c, 1, 55, 63
4, 37245, Note_on_c, 1, 59, 0
4, 37245, Note_on_c, 1, 55, 0
4, 37248, Note_on_c, 1, 60, 63
4, 37248, Note_on_c, 1, 55, 63
4, 37337, Note_on_c, 1, 60, 0
4, 37337, Note_on_c, 1, 55, 0
4, 37344, Note_on_c, 1, 59, 63
4, 37344, Note_on_c, 1, 55, 63
4, 37389, Note_on_c, 1, 59, 0
4, 37389, Note_on_c, 1, 55, 0
4, 37440, Note_on_c, 1, 74, 63
4, 37440, Note_on_c, 1, 68, 63
4, 37485, Note_on_c, 1, 74, 0
4, 37485, Note_on_c, 1, 68, 0
4, 37488, Note_on_c, 1, 74, 63
4, 37488, Note_on_c, 1, 68, 63
4, 37533, Note_on_c, 1, 74, 0
4, 37533, Note_on_c, 1, 68, 0
4, 37536, Note_on_c, 1, 74, 63
4, 37536, Note_on_c, 1, 68, 63
4, 37581, Note_on_c, 1, 74, 0
4, 37581, Note_on_c, 1, 68, 0
4, 37584, Note_on_c, 1, 74, 63
4, 37584, Note_on_c, 1, 68, 63
4, 37629, Note_on_c, 1, 74, 0
4, 37629, Note_on_c, 1, 68, 0
4, 37632, Note_on_c, 1, 72, 63
4, 37632, Note_on_c, 1, 69, 63
4, 37721, Note_on_c, 1, 72, 0
4, 37721, Note_on_c, 1, 69, 0
4, 37776, Note_on_c, 1, 72, 63
4, 37776, Note_on_c, 1, 66, 63
4, 37821, Note_on_c, 1, 72, 0
4, 37821, Note_on_c, 1, 66, 0
4, 37824, Note_on_c, 1, 72, 63
4, 37824, Note_on_c, 1, 66, 63
4, 37869, Note_on_c, 1, 72, 0
4, 37869, Note_on_c, 1, 66, 0
4, 37872, Note_on_c, 1, 72, 63
4, 37872, Note_on_c, 1, 66, 63
4, 37917, Note_on_c, 1, 72, 0
4, 37917, Note_on_c, 1, 66, 0
4, 37920, Note_on_c, 1, 72, 63
4, 37920, Note_on_c, 1, 66, 63
4, 37965, Note_on_c, 1, 72, 0
4, 37965, Note_on_c, 1, 66, 0
4, 37968, Note_on_c, 1, 72, 63
4, 37968, Note_on_c, 1, 66, 63
4, 38013, Note_on_c, 1, 72, 0
4, 38013, Note_on_c, 1, 66, 0
4, 38016, Note_on_c, 1, 71, 63
4, 38016, Note_on_c, 1, 67, 63
4, 38105, Note_on_c, 1, 71, 0
4, 38105, Note_on_c, 1, 67, 0
4, 38784, Note_on_c, 1, 67, 63
4, 38784, Note_on_c, 1, 64, 63
4, 38873, Note_on_c, 1, 67, 0
4, 38873, Note_on_c, 1, 64, 0
4, 38976, Note_on_c, 1, 63, 63
4, 38999, Note_on_c, 1, 63, 0
4, 39000, Note_on_c, 1, 67, 63
4, 39023, Note_on_c, 1, 67, 0
4, 39024, Note_on_c, 1, 63, 63
4, 39047, Note_on_c, 1, 63, 0
4, 39048, Note_on_c, 1, 67, 63
4, 39071, Note_on_c, 1, 67, 0
4, 39072, Note_on_c, 1, 63, 63
4, 39095, Note_on_c, 1, 63, 0
4, 39096, Note_on_c, 1, 67, 63
4, 39119, Note_on_c, 1, 67, 0
4, 39120, Note_on_c, 1, 63, 63
4, 39143, Note_on_c, 1, 63, 0
4, 39144, Note_on_c, 1, 67, 63
4, 39167, Note_on_c, 1, 67, 0
4, 39168, Note_on_c, 1, 66, 63
4, 39168, Note_on_c, 1, 62, 63
4, 39257, Note_on_c, 1, 66, 0
4, 39257, Note_on_c, 1, 62, 0
4, 39264, Note_on_c, 1, 67, 63
4, 39353, Note_on_c, 1, 67, 0
4, 39360, Note_on_c, 1, 72, 63
4, 39360, Note_on_c, 1, 60, 63
4, 39449, Note_on_c, 1, 72, 0
4, 39449, Note_on_c, 1, 60, 0
4, 39456, Note_on_c, 1, 72, 63
4, 39456, Note_on_c, 1, 62, 63
4, 39545, Note_on_c, 1, 72, 0
4, 39545, Note_on_c, 1, 62, 0
4, 39552, Note_on_c, 1, 71, 69
4, 39552, Note_on_c, 1, 67, 69
4, 39597, Note_on_c, 1, 71, 0
4, 39597, Note_on_c, 1, 67, 0
4, 39600, Note_on_c, 1, 71, 69
4, 39600, Note_on_c, 1, 67, 69
4, 39645, Note_on_c, 1, 71, 0
4, 39645, Note_on_c, 1, 67, 0
4, 39648, Note_on_c, 1, 71, 69
4, 39648, Note_on_c, 1, 67, 69
4, 39693, Note_on_c, 1, 71, 0
4, 39693, Note_on_c, 1, 67, 0
4, 39696, Note_on_c, 1, 71, 69
4, 39696, Note_on_c, 1, 67, 69
4, 39741, Note_on_c, 1, 71, 0
4, 39741, Note_on_c, 1, 67, 0
4, 39744, Note_on_c, 1, 72, 69
4, 39744, Note_on_c, 1, 67, 69
4, 39789, Note_on_c, 1, 72, 0
4, 39789, Note_on_c, 1, 67, 0
4, 39792, Note_on_c, 1, 72, 69
4, 39792, Note_on_c, 1, 67, 69
4, 39837, Note_on_c, 1, 72, 0
4, 39837, Note_on_c, 1, 67, 0
4, 39840, Note_on_c, 1, 72, 69
4, 39840, Note_on_c, 1, 67, 69
4, 39885, Note_on_c, 1, 72, 0
4, 39885, Note_on_c, 1, 67, 0
4, 39888, Note_on_c, 1, 72, 69
4, 39888, Note_on_c, 1, 67, 69
4, 39933, Note_on_c, 1, 72, 0
4, 39933, Note_on_c, 1, 67, 0
4, 39936, Note_on_c, 1, 71, 69
4, 39936, Note_on_c, 1, 67, 69
4, 39981, Note_on_c, 1, 71, 0
4, 39981, Note_on_c, 1, 67, 0
4, 39984, Note_on_c, 1, 71, 69
4, 39984, Note_on_c, 1, 67, 69
4, 40029, Note_on_c, 1, 71, 0
4, 40029, Note_on_c, 1, 67, 0
4, 40032, Note_on_c, 1, 71, 69
4, 40032, Note_on_c, 1, 67, 69
4, 40077, Note_on_c, 1, 71, 0
4, 40077, Note_on_c, 1, 67, 0
4, 40080, Note_on_c, 1, 71, 69
4, 40080, Note_on_c, 1, 67, 69
4, 40125, Note_on_c, 1, 71, 0
4, 40125, Note_on_c, 1, 67, 0
4, 40128, Note_on_c, 1, 72, 69
4, 40128, Note_on_c, 1, 67, 69
4, 40173, Note_on_c, 1, 72, 0
4, 40173, Note_on_c, 1, 67, 0
4, 40176, Note_on_c, 1, 72, 69
4, 40176, Note_on_c, 1, 67, 69
4, 40221, Note_on_c, 1, 72, 0
4, 40221, Note_on_c, 1, 67, 0
4, 40224, Note_on_c, 1, 72, 69
4, 40224, Note_on_c, 1, 67, 69
4, 40269, Note_on_c, 1, 72, 0
4, 40269, Note_on_c, 1, 67, 0
4, 40272, Note_on_c, 1, 72, 69
4, 40272, Note_on_c, 1, 67, 69
4, 40317, Note_on_c, 1, 72, 0
4, 40317, Note_on_c, 1, 67, 0
4, 40320, Note_on_c, 1, 71, 69
4, 40320, Note_on_c, 1, 67, 69
4, 40409, Note_on_c, 1, 71, 0
4, 40409, Note_on_c, 1, 67, 0
4, 40440, Note_on_c, 1, 67, 69
4, 40463, Note_on_c, 1, 67, 0
4, 40464, Note_on_c, 1, 62, 67
4, 40487, Note_on_c, 1, 62, 0
4, 40488, Note_on_c, 1, 59, 66
4, 40511, Note_on_c, 1, 59, 0
4, 40512, Note_on_c, 1, 55, 65
4, 40557, Note_on_c, 1, 55, 0
4, 40704, Note_on_c, 1, 58, 69
4, 40727, Note_on_c, 1, 58, 0
4, 40728, Note_on_c, 1, 65, 69
4, 40751, Note_on_c, 1, 65, 0
4, 40752, Note_on_c, 1, 62, 69
4, 40775, Note_on_c, 1, 62, 0
4, 40776, Note_on_c, 1, 65, 69
4, 40799, Note_on_c, 1, 65, 0
4, 40800, Note_on_c, 1, 58, 69
4, 40823, Note_on_c, 1, 58, 0
4, 40824, Note_on_c, 1, 65, 69
4, 40847, Note_on_c, 1, 65, 0
4, 40848, Note_on_c, 1, 62, 69
4, 40871, Note_on_c, 1, 62, 0
4, 40872, Note_on_c, 1, 65, 69
4, 40895, Note_on_c, 1, 65, 0
4, 40896, Note_on_c, 1, 60, 69
4, 40919, Note_on_c, 1, 60, 0
4, 40920, Note_on_c, 1, 65, 69
4, 40943, Note_on_c, 1, 65, 0
4, 40944, Note_on_c, 1, 63, 69
4, 40967, Note_on_c, 1, 63, 0
4, 40968, Note_on_c, 1, 65, 69
4, 40991, Note_on_c, 1, 65, 0
4, 40992, Note_on_c, 1, 60, 69
4, 41015, Note_on_c, 1, 60, 0
4, 41016, Note_on_c, 1, 65, 69
4, 41039, Note_on_c, 1, 65, 0
4, 41040, Note_on_c, 1, 63, 69
4, 41063, Note_on_c, 1, 63, 0
4, 41064, Note_on_c, 1, 65, 69
4, 41087, Note_on_c, 1, 65, 0
4, 41088, Note_on_c, 1, 58, 69
4, 41111, Note_on_c, 1, 58, 0
4, 41112, Note_on_c, 1, 65, 69
4, 41135, Note_on_c, 1, 65, 0
4, 41136, Note_on_c, 1, 62, 69
4, 41159, Note_on_c, 1, 62, 0
4, 41160, Note_on_c, 1, 65, 69
4, 41183, Note_on_c, 1, 65, 0
4, 41184, Note_on_c, 1, 58, 69
4, 41207, Note_on_c, 1, 58, 0
4, 41208, Note_on_c, 1, 65, 69
4, 41231, Note_on_c, 1, 65, 0
4, 41232, Note_on_c, 1, 62, 69
4, 41255, Note_on_c, 1, 62, 0
4, 41256, Note_on_c, 1, 65, 69
4, 41279, Note_on_c, 1, 65, 0
4, 41280, Note_on_c, 1, 57, 69
4, 41303, Note_on_c, 1, 57, 0
4, 41304, Note_on_c, 1, 62, 69
4, 41327, Note_on_c, 1, 62, 0
4, 41328, Note_on_c, 1, 60, 69
4, 41351, Note_on_c, 1, 60, 0
4, 41352, Note_on_c, 1, 62, 69
4, 41375, Note_on_c, 1, 62, 0
4, 41376, Note_on_c, 1, 57, 69
4, 41399, Note_on_c, 1, 57, 0
4, 41400, Note_on_c, 1, 62, 69
4, 41423, Note_on_c, 1, 62, 0
4, 41424, Note_on_c, 1, 60, 69
4, 41447, Note_on_c, 1, 60, 0
4, 41448, Note_on_c, 1, 62, 69
4, 41471, Note_on_c, 1, 62, 0
4, 41472, Note_on_c, 1, 55, 69
4, 41495, Note_on_c, 1, 55, 0
4, 41496, Note_on_c, 1, 62, 69
4, 41519, Note_on_c, 1, 62, 0
4, 41520, Note_on_c, 1, 58, 69
4, 41543, Note_on_c, 1, 58, 0
4, 41544, Note_on_c, 1, 62, 69
4, 41567, Note_on_c, 1, 62, 0
4, 41568, Note_on_c, 1, 55, 69
4, 41591, Note_on_c, 1, 55, 0
4, 41592, Note_on_c, 1, 62, 69
4, 41615, Note_on_c, 1, 62, 0
4, 41616, Note_on_c, 1, 58, 69
4, 41639, Note_on_c, 1, 58, 0
4, 41640, Note_on_c, 1, 62, 69
4, 41663, Note_on_c, 1, 62, 0
4, 41664, Note_on_c, 1, 51, 69
4, 41687, Note_on_c, 1, 51, 0
4, 41688, Note_on_c, 1, 55, 69
4, 41711, Note_on_c, 1, 55, 0
4, 41712, Note_on_c, 1, 54, 69
4, 41735, Note_on_c, 1, 54, 0
4, 41736, Note_on_c, 1, 55, 69
4, 41759, Note_on_c, 1, 55, 0
4, 41760, Note_on_c, 1, 51, 69
4, 41783, Note_on_c, 1, 51, 0
4, 41784, Note_on_c, 1, 55, 69
4, 41807, Note_on_c, 1, 55, 0
4, 41808, Note_on_c, 1, 54, 69
4, 41831, Note_on_c, 1, 54, 0
4, 41832, Note_on_c, 1, 55, 69
4, 41855, Note_on_c, 1, 55, 0
4, 41856, Note_on_c, 1, 50, 69
4, 41945, Note_on_c, 1, 50, 0
4, 42048, Note_on_c, 1, 50, 75
4, 42071, Note_on_c, 1, 50, 0
4, 42072, Note_on_c, 1, 38, 75
4, 42095, Note_on_c, 1, 38, 0
4, 42096, Note_on_c, 1, 48, 75
4, 42119, Note_on_c, 1, 48, 0
4, 42120, Note_on_c, 1, 36, 74
4, 42143, Note_on_c, 1, 36, 0
4, 42144, Note_on_c, 1, 47, 73
4, 42167, Note_on_c, 1, 47, 0
4, 42168, Note_on_c, 1, 35, 72
4, 42191, Note_on_c, 1, 35, 0
4, 42192, Note_on_c, 1, 45, 71
4, 42215, Note_on_c, 1, 45, 0
4, 42216, Note_on_c, 1, 33, 70
4, 42239, Note_on_c, 1, 33, 0
4, 42240, Note_on_c, 1, 59, 63
4, 42240, Note_on_c, 1, 55, 63
4, 42285, Note_on_c, 1, 59, 0
4, 42285, Note_on_c, 1, 55, 0
4, 42288, Note_on_c, 1, 59, 63
4, 42288, Note_on_c, 1, 55, 63
4, 42333, Note_on_c, 1, 59, 0
4, 42333, Note_on_c, 1, 55, 0
4, 42336, Note_on_c, 1, 59, 63
4, 42336, Note_on_c, 1, 55, 63
4, 42381, Note_on_c, 1, 59, 0
4, 42381, Note_on_c, 1, 55, 0
4, 42384, Note_on_c, 1, 59, 63
4, 42384, Note_on_c, 1, 55, 63
4, 42429, Note_on_c, 1, 59, 0
4, 42429, Note_on_c, 1, 55, 0
4, 42432, Note_on_c, 1, 59, 63
4, 42432, Note_on_c, 1, 55, 63
4, 42477, Note_on_c, 1, 59, 0
4, 42477, Note_on_c, 1, 55, 0
4, 42480, Note_on_c, 1, 59, 63
4, 42480, Note_on_c, 1, 55, 63
4, 42525, Note_on_c, 1, 59, 0
4, 42525, Note_on_c, 1, 55, 0
4, 42528, Note_on_c, 1, 59, 63
4, 42528, Note_on_c, 1, 55, 63
4, 42573, Note_on_c, 1, 59, 0
4, 42573, Note_on_c, 1, 55, 0
4, 42576, Note_on_c, 1, 59, 63
4, 42576, Note_on_c, 1, 55, 63
4, 42621, Note_on_c, 1, 59, 0
4, 42621, Note_on_c, 1, 55, 0
4, 42624, Note_on_c, 1, 60, 63
4, 42624, Note_on_c, 1, 55, 63
4, 42713, Note_on_c, 1, 60, 0
4, 42713, Note_on_c, 1, 55, 0
4, 42720, Note_on_c, 1, 59, 63
4, 42720, Note_on_c, 1, 55, 63
4, 42765, Note_on_c, 1, 59, 0
4, 42765, Note_on_c, 1, 55, 0
4, 42816, Note_on_c, 1, 74, 63
4, 42816, Note_on_c, 1, 68, 63
4, 42861, Note_on_c, 1, 74, 0
4, 42861, Note_on_c, 1, 68, 0
4, 42864, Note_on_c, 1, 74, 63
4, 42864, Note_on_c, 1, 68, 63
4, 42909, Note_on_c, 1, 74, 0
4, 42909, Note_on_c, 1, 68, 0
4, 42912, Note_on_c, 1, 74, 63
4, 42912, Note_on_c, 1, 68, 63
4, 42957, Note_on_c, 1, 74, 0
4, 42957, Note_on_c, 1, 68, 0
4, 42960, Note_on_c, 1, 74, 63
4, 42960, Note_on_c, 1, 68, 63
4, 43005, Note_on_c, 1, 74, 0
4, 43005, Note_on_c, 1, 68, 0
4, 43008, Note_on_c, 1, 72, 63
4, 43008, Note_on_c, 1, 69, 63
4, 43097, Note_on_c, 1, 72, 0
4, 43097, Note_on_c, 1, 69, 0
4, 43152, Note_on_c, 1, 72, 63
4, 43152, Note_on_c, 1, 66, 63
4, 43197, Note_on_c, 1, 72, 0
4, 43197, Note_on_c, 1, 66, 0
4, 43200, Note_on_c, 1, 72, 63
4, 43200, Note_on_c, 1, 66, 63
4, 43245, Note_on_c, 1, 72, 0
4, 43245, Note_on_c, 1, 66, 0
4, 43248, Note_on_c, 1, 72, 63
4, 43248, Note_on_c, 1, 66, 63
4, 43293, Note_on_c, 1, 72, 0
4, 43293, Note_on_c, 1, 66, 0
4, 43296, Note_on_c, 1, 72, 63
4, 43296, Note_on_c, 1, 66, 63
4, 43341, Note_on_c, 1, 72, 0
4, 43341, Note_on_c, 1, 66, 0
4, 43344, Note_on_c, 1, 72, 63
4, 43344, Note_on_c, 1, 66, 63
4, 43389, Note_on_c, 1, 72, 0
4, 43389, Note_on_c, 1, 66, 0
4, 43392, Note_on_c, 1, 71, 63
4, 43392, Note_on_c, 1, 67, 63
4, 43481, Note_on_c, 1, 71, 0
4, 43481, Note_on_c, 1, 67, 0
4, 44160, Note_on_c, 1, 67, 63
4, 44160, Note_on_c, 1, 64, 63
4, 44249, Note_on_c, 1, 67, 0
4, 44249, Note_on_c, 1, 64, 0
4, 44352, Note_on_c, 1, 63, 63
4, 44375, Note_on_c, 1, 63, 0
4, 44376, Note_on_c, 1, 67, 63
4, 44399, Note_on_c, 1, 67, 0
4, 44400, Note_on_c, 1, 63, 63
4, 44423, Note_on_c, 1, 63, 0
4, 44424, Note_on_c, 1, 67, 63
4, 44447, Note_on_c, 1, 67, 0
4, 44448, Note_on_c, 1, 63, 63
4, 44471, Note_on_c, 1, 63, 0
4, 44472, Note_on_c, 1, 67, 63
4, 44495, Note_on_c, 1, 67, 0
4, 44496, Note_on_c, 1, 63, 63
4, 44519, Note_on_c, 1, 63, 0
4, 44520, Note_on_c, 1, 67, 63
4, 44543, Note_on_c, 1, 67, 0
4, 44544, Note_on_c, 1, 66, 63
4, 44544, Note_on_c, 1, 62, 63
4, 44633, Note_on_c, 1, 66, 0
4, 44633, Note_on_c, 1, 62, 0
4, 44640, Note_on_c, 1, 67, 63
4, 44729, Note_on_c, 1, 67, 0
4, 44736, Note_on_c, 1, 72, 63
4, 44736, Note_on_c, 1, 60, 63
4, 44825, Note_on_c, 1, 72, 0
4, 44825, Note_on_c, 1, 60, 0
4, 44832, Note_on_c, 1, 72, 63
4, 44832, Note_on_c, 1, 62, 63
4, 44921, Note_on_c, 1, 72, 0
4, 44921, Note_on_c, 1, 62, 0
4, 44928, Note_on_c, 1, 71, 69
4, 44928, Note_on_c, 1, 67, 69
4, 44973, Note_on_c, 1, 71, 0
4, 44973, Note_on_c, 1, 67, 0
4, 44976, Note_on_c, 1, 71, 69
4, 44976, Note_on_c, 1, 67, 69
4, 45021, Note_on_c, 1, 71, 0
4, 45021, Note_on_c, 1, 67, 0
4, 45024, Note_on_c, 1, 71, 69
4, 45024, Note_on_c, 1, 67, 69
4, 45069, Note_on_c, 1, 71, 0
4, 45069, Note_on_c, 1, 67, 0
4, 45072, Note_on_c, 1, 71, 69
4, 45072, Note_on_c, 1, 67, 69
4, 45117, Note_on_c, 1, 71, 0
4, 45117, Note_on_c, 1, 67, 0
4, 45120, Note_on_c, 1, 72, 69
4, 45120, Note_on_c, 1, 67, 69
4, 45165, Note_on_c, 1, 72, 0
4, 45165, Note_on_c, 1, 67, 0
4, 45168, Note_on_c, 1, 72, 69
4, 45168, Note_on_c, 1, 67, 69
4, 45213, Note_on_c, 1, 72, 0
4, 45213, Note_on_c, 1, 67, 0
4, 45216, Note_on_c, 1, 72, 69
4, 45216, Note_on_c, 1, 67, 69
4, 45261, Note_on_c, 1, 72, 0
4, 45261, Note_on_c, 1, 67, 0
4, 45264, Note_on_c, 1, 72, 69
4, 45264, Note_on_c, 1, 67, 69
4, 45309, Note_on_c, 1, 72, 0
4, 45309, Note_on_c, 1, 67, 0
4, 45312, Note_on_c, 1, 71, 69
4, 45312, Note_on_c, 1, 67, 69
4, 45357, Note_on_c, 1, 71, 0
4, 45357, Note_on_c, 1, 67, 0
4, 45360, Note_on_c, 1, 71, 69
4, 45360, Note_on_c, 1, 67, 69
4, 45405, Note_on_c, 1, 71, 0
4, 45405, Note_on_c, 1, 67, 0
4, 45408, Note_on_c, 1, 71, 69
4, 45408, Note_on_c, 1, 67, 69
4, 45453, Note_on_c, 1, 71, 0
4, 45453, Note_on_c, 1, 67, 0
4, 45456, Note_on_c, 1, 71, 69
4, 45456, Note_on_c, 1, 67, 69
4, 45501, Note_on_c, 1, 71, 0
4, 45501, Note_on_c, 1, 67, 0
4, 45504, Note_on_c, 1, 72, 69
4, 45504, Note_on_c, 1, 67, 69
4, 45549, Note_on_c, 1, 72, 0
4, 45549, Note_on_c, 1, 67, 0
4, 45552, Note_on_c, 1, 72, 69
4, 45552, Note_on_c, 1, 67, 69
4, 45597, Note_on_c, 1, 72, 0
4, 45597, Note_on_c, 1, 67, 0
4, 45600, Note_on_c, 1, 72, 69
4, 45600, Note_on_c, 1, 67, 69
4, 45645, Note_on_c, 1, 72, 0
4, 45645, Note_on_c, 1, 67, 0
4, 45648, Note_on_c, 1, 72, 69
4, 45648, Note_on_c, 1, 67, 69
4, 45693, Note_on_c, 1, 72, 0
4, 45693, Note_on_c, 1, 67, 0
4, 45696, Note_on_c, 1, 71, 69
4, 45696, Note_on_c, 1, 67, 69
4, 45785, Note_on_c, 1, 71, 0
4, 45785, Note_on_c, 1, 67, 0
4, 45816, Note_on_c, 1, 67, 63
4, 45839, Note_on_c, 1, 67, 0
4, 45840, Note_on_c, 1, 62, 62
4, 45863, Note_on_c, 1, 62, 0
4, 45864, Note_on_c, 1, 59, 61
4, 45887, Note_on_c, 1, 59, 0
4, 45888, Note_on_c, 1, 55, 61
4, 46021, Note_on_c, 1, 55, 0
4, 46080, Note_on_c, 1, 55, 0
4, 46169, Note_on_c, 1, 55, 0
4, 46176, End_track
5, 0, Start_track
5, 0, Program_c, 1, 0
5, 0, Control_c, 1, 7, 127
5, 0, Control_c, 1, 10, 64
5, 46080, End_track
6, 0, Start_track
6, 0, Title_t, "Sonata I   Haydn  "
6, 0, End_track
0, 0, End_of_file
