0, 0, Header, 1, 4, 96
1, 0, Start_track
1, 0, Sequencer_specific, 16, 68, 87, 77, 90, 86, 82, 83, 78, 32, 55, 46, 48, 46, 56, 46, 48
1, 0, Time_signature, 4, 2, 24, 8
1, 0, Tempo, 612244
1, 0, Key_signature, 2, "major"
1, 44170, Tempo, 612244
1, 44170, End_track
2, 0, Start_track
2, 0, Program_c, 0, 0
2, 0, Control_c, 0, 7, 127
2, 0, Control_c, 0, 10, 64
2, 0, Note_on_c, 0, 83, 78
2, 12, Note_on_c, 0, 83, 0
2, 12, Note_on_c, 0, 81, 78
2, 24, Note_on_c, 0, 81, 0
2, 24, Note_on_c, 0, 80, 78
2, 36, Note_on_c, 0, 80, 0
2, 36, Note_on_c, 0, 81, 78
2, 133, Note_on_c, 0, 81, 0
2, 144, Note_on_c, 0, 86, 78
2, 167, Note_on_c, 0, 86, 0
2, 168, Note_on_c, 0, 81, 78
2, 191, Note_on_c, 0, 81, 0
2, 192, Note_on_c, 0, 78, 78
2, 325, Note_on_c, 0, 78, 0
2, 336, Note_on_c, 0, 81, 78
2, 359, Note_on_c, 0, 81, 0
2, 360, Note_on_c, 0, 78, 78
2, 383, Note_on_c, 0, 78, 0
2, 384, Note_on_c, 0, 83, 78
2, 517, Note_on_c, 0, 83, 0
2, 528, Note_on_c, 0, 79, 78
2, 551, Note_on_c, 0, 79, 0
2, 552, Note_on_c, 0, 76, 78
2, 575, Note_on_c, 0, 76, 0
2, 576, Note_on_c, 0, 74, 78
2, 624, Note_on_c, 0, 74, 0
2, 628, Note_on_c, 0, 73, 78
2, 640, Note_on_c, 0, 73, 0
2, 641, Note_on_c, 0, 74, 78
2, 653, Note_on_c, 0, 74, 0
2, 654, Note_on_c, 0, 73, 78
2, 666, Note_on_c, 0, 73, 0
2, 667, Note_on_c, 0, 74, 78
2, 679, Note_on_c, 0, 74, 0
2, 680, Note_on_c, 0, 73, 78
2, 692, Note_on_c, 0, 73, 0
2, 693, Note_on_c, 0, 74, 78
2, 705, Note_on_c, 0, 74, 0
2, 706, Note_on_c, 0, 73, 78
2, 718, Note_on_c, 0, 73, 0
2, 719, Note_on_c, 0, 74, 78
2, 731, Note_on_c, 0, 74, 0
2, 732, Note_on_c, 0, 73, 78
2, 744, Note_on_c, 0, 73, 0
2, 745, Note_on_c, 0, 71, 78
2, 757, Note_on_c, 0, 71, 0
2, 758, Note_on_c, 0, 73, 78
2, 770, Note_on_c, 0, 73, 0
2, 771, Note_on_c, 0, 74, 78
2, 816, Note_on_c, 0, 74, 0
2, 819, Note_on_c, 0, 69, 78
2, 842, Note_on_c, 0, 69, 0
2, 843, Note_on_c, 0, 78, 78
2, 866, Note_on_c, 0, 78, 0
2, 867, Note_on_c, 0, 76, 78
2, 890, Note_on_c, 0, 76, 0
2, 891, Note_on_c, 0, 74, 78
2, 914, Note_on_c, 0, 74, 0
2, 915, Note_on_c, 0, 73, 78
2, 938, Note_on_c, 0, 73, 0
2, 939, Note_on_c, 0, 71, 78
2, 962, Note_on_c, 0, 71, 0
2, 963, Note_on_c, 0, 69, 78
2, 1008, Note_on_c, 0, 69, 0
2, 1011, Note_on_c, 0, 79, 76
2, 1034, Note_on_c, 0, 79, 0
2, 1035, Note_on_c, 0, 83, 75
2, 1058, Note_on_c, 0, 83, 0
2, 1059, Note_on_c, 0, 81, 74
2, 1082, Note_on_c, 0, 81, 0
2, 1083, Note_on_c, 0, 79, 73
2, 1106, Note_on_c, 0, 79, 0
2, 1107, Note_on_c, 0, 78, 72
2, 1130, Note_on_c, 0, 78, 0
2, 1131, Note_on_c, 0, 76, 71
2, 1154, Note_on_c, 0, 76, 0
2, 1155, Note_on_c, 0, 78, 70
2, 1200, Note_on_c, 0, 78, 0
2, 1203, Note_on_c, 0, 69, 70
2, 1226, Note_on_c, 0, 69, 0
2, 1227, Note_on_c, 0, 78, 70
2, 1250, Note_on_c, 0, 78, 0
2, 1251, Note_on_c, 0, 76, 70
2, 1274, Note_on_c, 0, 76, 0
2, 1275, Note_on_c, 0, 74, 70
2, 1298, Note_on_c, 0, 74, 0
2, 1299, Note_on_c, 0, 73, 70
2, 1322, Note_on_c, 0, 73, 0
2, 1323, Note_on_c, 0, 71, 70
2, 1346, Note_on_c, 0, 71, 0
2, 1347, Note_on_c, 0, 69, 70
2, 1392, Note_on_c, 0, 69, 0
2, 1395, Note_on_c, 0, 79, 70
2, 1418, Note_on_c, 0, 79, 0
2, 1419, Note_on_c, 0, 83, 71
2, 1442, Note_on_c, 0, 83, 0
2, 1443, Note_on_c, 0, 81, 72
2, 1466, Note_on_c, 0, 81, 0
2, 1467, Note_on_c, 0, 79, 74
2, 1490, Note_on_c, 0, 79, 0
2, 1491, Note_on_c, 0, 78, 75
2, 1514, Note_on_c, 0, 78, 0
2, 1515, Note_on_c, 0, 76, 76
2, 1538, Note_on_c, 0, 76, 0
2, 1539, Note_on_c, 0, 78, 78
2, 1584, Note_on_c, 0, 78, 0
2, 1635, Note_on_c, 0, 81, 78
2, 1647, Note_on_c, 0, 81, 0
2, 1647, Note_on_c, 0, 79, 78
2, 1659, Note_on_c, 0, 79, 0
2, 1659, Note_on_c, 0, 78, 78
2, 1671, Note_on_c, 0, 78, 0
2, 1671, Note_on_c, 0, 79, 78
2, 1683, Note_on_c, 0, 79, 0
2, 1731, Note_on_c, 0, 83, 78
2, 1743, Note_on_c, 0, 83, 0
2, 1743, Note_on_c, 0, 81, 78
2, 1755, Note_on_c, 0, 81, 0
2, 1755, Note_on_c, 0, 79, 78
2, 1767, Note_on_c, 0, 79, 0
2, 1767, Note_on_c, 0, 81, 78
2, 1779, Note_on_c, 0, 81, 0
2, 1827, Note_on_c, 0, 81, 78
2, 1850, Note_on_c, 0, 81, 0
2, 1851, Note_on_c, 0, 79, 78
2, 1874, Note_on_c, 0, 79, 0
2, 1875, Note_on_c, 0, 78, 78
2, 1898, Note_on_c, 0, 78, 0
2, 1899, Note_on_c, 0, 76, 78
2, 1922, Note_on_c, 0, 76, 0
2, 1923, Note_on_c, 0, 78, 78
2, 2012, Note_on_c, 0, 78, 0
2, 2019, Note_on_c, 0, 79, 78
2, 2031, Note_on_c, 0, 79, 0
2, 2031, Note_on_c, 0, 81, 78
2, 2043, Note_on_c, 0, 81, 0
2, 2043, Note_on_c, 0, 79, 78
2, 2055, Note_on_c, 0, 79, 0
2, 2055, Note_on_c, 0, 81, 78
2, 2067, Note_on_c, 0, 81, 0
2, 2067, Note_on_c, 0, 79, 78
2, 2079, Note_on_c, 0, 79, 0
2, 2079, Note_on_c, 0, 81, 78
2, 2086, Note_on_c, 0, 81, 0
2, 2091, Note_on_c, 0, 78, 78
2, 2103, Note_on_c, 0, 78, 0
2, 2103, Note_on_c, 0, 79, 78
2, 2115, Note_on_c, 0, 79, 0
2, 2115, Note_on_c, 0, 81, 78
2, 2204, Note_on_c, 0, 81, 0
2, 2211, Note_on_c, 0, 81, 78
2, 2234, Note_on_c, 0, 81, 0
2, 2235, Note_on_c, 0, 79, 78
2, 2258, Note_on_c, 0, 79, 0
2, 2259, Note_on_c, 0, 78, 78
2, 2282, Note_on_c, 0, 78, 0
2, 2283, Note_on_c, 0, 76, 78
2, 2306, Note_on_c, 0, 76, 0
2, 2307, Note_on_c, 0, 78, 78
2, 2330, Note_on_c, 0, 78, 0
2, 2331, Note_on_c, 0, 74, 78
2, 2354, Note_on_c, 0, 74, 0
2, 2355, Note_on_c, 0, 79, 78
2, 2378, Note_on_c, 0, 79, 0
2, 2379, Note_on_c, 0, 74, 78
2, 2402, Note_on_c, 0, 74, 0
2, 2403, Note_on_c, 0, 81, 78
2, 2426, Note_on_c, 0, 81, 0
2, 2427, Note_on_c, 0, 74, 78
2, 2450, Note_on_c, 0, 74, 0
2, 2451, Note_on_c, 0, 83, 78
2, 2474, Note_on_c, 0, 83, 0
2, 2475, Note_on_c, 0, 74, 78
2, 2498, Note_on_c, 0, 74, 0
2, 2499, Note_on_c, 0, 73, 78
2, 2509, Note_on_c, 0, 73, 0
2, 2509, Note_on_c, 0, 74, 78
2, 2519, Note_on_c, 0, 74, 0
2, 2519, Note_on_c, 0, 73, 78
2, 2529, Note_on_c, 0, 73, 0
2, 2529, Note_on_c, 0, 71, 78
2, 2538, Note_on_c, 0, 71, 0
2, 2538, Note_on_c, 0, 73, 78
2, 2547, Note_on_c, 0, 73, 0
2, 2547, Note_on_c, 0, 74, 78
2, 2592, Note_on_c, 0, 74, 0
2, 2691, Control_c, 0, 64, 127
2, 2739, Note_on_c, 0, 57, 85
2, 2762, Note_on_c, 0, 57, 0
2, 2763, Note_on_c, 0, 62, 85
2, 2786, Note_on_c, 0, 62, 0
2, 2787, Note_on_c, 0, 66, 85
2, 2810, Note_on_c, 0, 66, 0
2, 2811, Note_on_c, 0, 62, 85
2, 2834, Note_on_c, 0, 62, 0
2, 2835, Note_on_c, 0, 57, 85
2, 2858, Note_on_c, 0, 57, 0
2, 2859, Note_on_c, 0, 62, 85
2, 2882, Note_on_c, 0, 62, 0
2, 2883, Control_c, 0, 64, 0
2, 2931, Note_on_c, 0, 66, 85
2, 2954, Note_on_c, 0, 66, 0
2, 2955, Note_on_c, 0, 69, 85
2, 2978, Note_on_c, 0, 69, 0
2, 2979, Note_on_c, 0, 67, 85
2, 3002, Note_on_c, 0, 67, 0
2, 3003, Note_on_c, 0, 66, 85
2, 3026, Note_on_c, 0, 66, 0
2, 3027, Note_on_c, 0, 64, 85
2, 3050, Note_on_c, 0, 64, 0
2, 3051, Note_on_c, 0, 62, 85
2, 3074, Note_on_c, 0, 62, 0
2, 3075, Control_c, 0, 64, 127
2, 3123, Note_on_c, 0, 69, 85
2, 3146, Note_on_c, 0, 69, 0
2, 3147, Note_on_c, 0, 73, 85
2, 3170, Note_on_c, 0, 73, 0
2, 3171, Note_on_c, 0, 76, 85
2, 3194, Note_on_c, 0, 76, 0
2, 3195, Note_on_c, 0, 73, 85
2, 3218, Note_on_c, 0, 73, 0
2, 3219, Note_on_c, 0, 69, 85
2, 3242, Note_on_c, 0, 69, 0
2, 3243, Note_on_c, 0, 73, 85
2, 3266, Note_on_c, 0, 73, 0
2, 3267, Control_c, 0, 64, 0
2, 3315, Note_on_c, 0, 73, 85
2, 3338, Note_on_c, 0, 73, 0
2, 3339, Note_on_c, 0, 76, 85
2, 3362, Note_on_c, 0, 76, 0
2, 3363, Note_on_c, 0, 74, 85
2, 3386, Note_on_c, 0, 74, 0
2, 3387, Note_on_c, 0, 73, 85
2, 3410, Note_on_c, 0, 73, 0
2, 3411, Note_on_c, 0, 71, 85
2, 3434, Note_on_c, 0, 71, 0
2, 3435, Note_on_c, 0, 69, 85
2, 3458, Note_on_c, 0, 69, 0
2, 3459, Control_c, 0, 64, 127
2, 3459, Note_on_c, 0, 68, 85
2, 3482, Note_on_c, 0, 68, 0
2, 3483, Note_on_c, 0, 71, 85
2, 3506, Note_on_c, 0, 71, 0
2, 3507, Note_on_c, 0, 74, 85
2, 3530, Note_on_c, 0, 74, 0
2, 3531, Note_on_c, 0, 80, 85
2, 3554, Note_on_c, 0, 80, 0
2, 3555, Note_on_c, 0, 83, 85
2, 3578, Note_on_c, 0, 83, 0
2, 3579, Note_on_c, 0, 80, 85
2, 3602, Note_on_c, 0, 80, 0
2, 3603, Note_on_c, 0, 74, 85
2, 3626, Note_on_c, 0, 74, 0
2, 3627, Note_on_c, 0, 80, 85
2, 3650, Note_on_c, 0, 80, 0
2, 3651, Control_c, 0, 64, 0
2, 3699, Note_on_c, 0, 83, 85
2, 3722, Note_on_c, 0, 83, 0
2, 3723, Note_on_c, 0, 81, 85
2, 3746, Note_on_c, 0, 81, 0
2, 3747, Note_on_c, 0, 80, 85
2, 3770, Note_on_c, 0, 80, 0
2, 3771, Note_on_c, 0, 78, 85
2, 3794, Note_on_c, 0, 78, 0
2, 3795, Note_on_c, 0, 76, 85
2, 3818, Note_on_c, 0, 76, 0
2, 3819, Note_on_c, 0, 74, 85
2, 3842, Note_on_c, 0, 74, 0
2, 3843, Note_on_c, 0, 73, 85
2, 3866, Note_on_c, 0, 73, 0
2, 3867, Note_on_c, 0, 69, 85
2, 3890, Note_on_c, 0, 69, 0
2, 3891, Note_on_c, 0, 74, 85
2, 3914, Note_on_c, 0, 74, 0
2, 3915, Note_on_c, 0, 69, 85
2, 3938, Note_on_c, 0, 69, 0
2, 3939, Note_on_c, 0, 76, 85
2, 3962, Note_on_c, 0, 76, 0
2, 3963, Note_on_c, 0, 69, 85
2, 3986, Note_on_c, 0, 69, 0
2, 3987, Note_on_c, 0, 78, 85
2, 4010, Note_on_c, 0, 78, 0
2, 4011, Note_on_c, 0, 69, 85
2, 4034, Note_on_c, 0, 69, 0
2, 4035, Note_on_c, 0, 76, 85
2, 4058, Note_on_c, 0, 76, 0
2, 4059, Note_on_c, 0, 69, 85
2, 4082, Note_on_c, 0, 69, 0
2, 4083, Note_on_c, 0, 78, 85
2, 4106, Note_on_c, 0, 78, 0
2, 4107, Note_on_c, 0, 69, 85
2, 4130, Note_on_c, 0, 69, 0
2, 4131, Note_on_c, 0, 76, 85
2, 4154, Note_on_c, 0, 76, 0
2, 4155, Note_on_c, 0, 69, 83
2, 4178, Note_on_c, 0, 69, 0
2, 4179, Note_on_c, 0, 74, 82
2, 4202, Note_on_c, 0, 74, 0
2, 4203, Note_on_c, 0, 69, 80
2, 4226, Note_on_c, 0, 69, 0
2, 4227, Note_on_c, 0, 73, 79
2, 4250, Note_on_c, 0, 73, 0
2, 4251, Note_on_c, 0, 69, 78
2, 4274, Note_on_c, 0, 69, 0
2, 4275, Note_on_c, 0, 74, 78
2, 4298, Note_on_c, 0, 74, 0
2, 4299, Note_on_c, 0, 69, 78
2, 4322, Note_on_c, 0, 69, 0
2, 4323, Note_on_c, 0, 76, 78
2, 4346, Note_on_c, 0, 76, 0
2, 4347, Note_on_c, 0, 69, 78
2, 4370, Note_on_c, 0, 69, 0
2, 4371, Note_on_c, 0, 78, 78
2, 4394, Note_on_c, 0, 78, 0
2, 4395, Note_on_c, 0, 69, 78
2, 4418, Note_on_c, 0, 69, 0
2, 4419, Note_on_c, 0, 76, 78
2, 4442, Note_on_c, 0, 76, 0
2, 4443, Note_on_c, 0, 69, 78
2, 4466, Note_on_c, 0, 69, 0
2, 4467, Note_on_c, 0, 78, 78
2, 4490, Note_on_c, 0, 78, 0
2, 4491, Note_on_c, 0, 69, 78
2, 4514, Note_on_c, 0, 69, 0
2, 4515, Note_on_c, 0, 76, 78
2, 4560, Note_on_c, 0, 76, 0
2, 4563, Note_on_c, 0, 81, 94
2, 4583, Note_on_c, 0, 81, 0
2, 4611, Note_on_c, 0, 71, 78
2, 4744, Note_on_c, 0, 71, 0
2, 4755, Note_on_c, 0, 74, 78
2, 4767, Note_on_c, 0, 74, 0
2, 4767, Note_on_c, 0, 76, 78
2, 4779, Note_on_c, 0, 76, 0
2, 4779, Note_on_c, 0, 78, 78
2, 4802, Note_on_c, 0, 78, 0
2, 4803, Note_on_c, 0, 69, 78
2, 4892, Note_on_c, 0, 69, 0
2, 4899, Note_on_c, 0, 73, 78
2, 4922, Note_on_c, 0, 73, 0
2, 4923, Note_on_c, 0, 71, 78
2, 4946, Note_on_c, 0, 71, 0
2, 4947, Note_on_c, 0, 69, 78
2, 4970, Note_on_c, 0, 69, 0
2, 4971, Note_on_c, 0, 68, 78
2, 4994, Note_on_c, 0, 68, 0
2, 4995, Note_on_c, 0, 69, 78
2, 5040, Note_on_c, 0, 69, 0
2, 5043, Note_on_c, 0, 81, 78
2, 5058, Note_on_c, 0, 81, 0
2, 5059, Note_on_c, 0, 80, 78
2, 5074, Note_on_c, 0, 80, 0
2, 5075, Note_on_c, 0, 78, 78
2, 5090, Note_on_c, 0, 78, 0
2, 5091, Note_on_c, 0, 76, 78
2, 5136, Note_on_c, 0, 76, 0
2, 5139, Note_on_c, 0, 76, 78
2, 5184, Note_on_c, 0, 76, 0
2, 5187, Note_on_c, 0, 76, 78
2, 5202, Note_on_c, 0, 76, 0
2, 5203, Note_on_c, 0, 78, 78
2, 5218, Note_on_c, 0, 78, 0
2, 5219, Note_on_c, 0, 80, 78
2, 5234, Note_on_c, 0, 80, 0
2, 5235, Note_on_c, 0, 81, 78
2, 5250, Note_on_c, 0, 81, 0
2, 5251, Note_on_c, 0, 80, 78
2, 5266, Note_on_c, 0, 80, 0
2, 5267, Note_on_c, 0, 78, 78
2, 5282, Note_on_c, 0, 78, 0
2, 5283, Note_on_c, 0, 76, 78
2, 5328, Note_on_c, 0, 76, 0
2, 5331, Note_on_c, 0, 76, 78
2, 5376, Note_on_c, 0, 76, 0
2, 5379, Note_on_c, 0, 76, 78
2, 5394, Note_on_c, 0, 76, 0
2, 5395, Note_on_c, 0, 78, 78
2, 5410, Note_on_c, 0, 78, 0
2, 5411, Note_on_c, 0, 80, 78
2, 5426, Note_on_c, 0, 80, 0
2, 5427, Note_on_c, 0, 81, 78
2, 5442, Note_on_c, 0, 81, 0
2, 5443, Note_on_c, 0, 80, 78
2, 5458, Note_on_c, 0, 80, 0
2, 5459, Note_on_c, 0, 78, 78
2, 5474, Note_on_c, 0, 78, 0
2, 5475, Note_on_c, 0, 76, 78
2, 5520, Note_on_c, 0, 76, 0
2, 5523, Note_on_c, 0, 77, 78
2, 5568, Note_on_c, 0, 77, 0
2, 5571, Note_on_c, 0, 78, 78
2, 5616, Note_on_c, 0, 78, 0
2, 5619, Note_on_c, 0, 70, 78
2, 5642, Note_on_c, 0, 70, 0
2, 5643, Note_on_c, 0, 71, 78
2, 5666, Note_on_c, 0, 71, 0
2, 5667, Note_on_c, 0, 73, 78
2, 5690, Note_on_c, 0, 73, 0
2, 5691, Note_on_c, 0, 74, 78
2, 5714, Note_on_c, 0, 74, 0
2, 5715, Note_on_c, 0, 76, 78
2, 5738, Note_on_c, 0, 76, 0
2, 5739, Note_on_c, 0, 78, 78
2, 5762, Note_on_c, 0, 78, 0
2, 5763, Note_on_c, 0, 76, 94
2, 5811, Note_on_c, 0, 76, 0
2, 5811, Note_on_c, 0, 74, 78
2, 5823, Note_on_c, 0, 74, 0
2, 5823, Note_on_c, 0, 73, 78
2, 5835, Note_on_c, 0, 73, 0
2, 5835, Note_on_c, 0, 71, 78
2, 5847, Note_on_c, 0, 71, 0
2, 5847, Note_on_c, 0, 69, 78
2, 5859, Note_on_c, 0, 69, 0
2, 5859, Note_on_c, 0, 71, 78
2, 5872, Note_on_c, 0, 71, 0
2, 5873, Note_on_c, 0, 73, 78
2, 5886, Note_on_c, 0, 73, 0
2, 5887, Note_on_c, 0, 71, 78
2, 5900, Note_on_c, 0, 71, 0
2, 5901, Note_on_c, 0, 73, 78
2, 5914, Note_on_c, 0, 73, 0
2, 5915, Note_on_c, 0, 71, 78
2, 5928, Note_on_c, 0, 71, 0
2, 5929, Note_on_c, 0, 69, 78
2, 5941, Note_on_c, 0, 69, 0
2, 5942, Note_on_c, 0, 71, 78
2, 5954, Note_on_c, 0, 71, 0
2, 5955, Note_on_c, 0, 69, 78
2, 6000, Note_on_c, 0, 69, 0
2, 6003, Note_on_c, 0, 81, 78
2, 6018, Note_on_c, 0, 81, 0
2, 6019, Note_on_c, 0, 80, 78
2, 6034, Note_on_c, 0, 80, 0
2, 6035, Note_on_c, 0, 78, 78
2, 6050, Note_on_c, 0, 78, 0
2, 6051, Note_on_c, 0, 76, 78
2, 6096, Note_on_c, 0, 76, 0
2, 6099, Note_on_c, 0, 76, 78
2, 6144, Note_on_c, 0, 76, 0
2, 6147, Note_on_c, 0, 76, 78
2, 6162, Note_on_c, 0, 76, 0
2, 6163, Note_on_c, 0, 78, 78
2, 6178, Note_on_c, 0, 78, 0
2, 6179, Note_on_c, 0, 80, 78
2, 6194, Note_on_c, 0, 80, 0
2, 6195, Note_on_c, 0, 81, 78
2, 6210, Note_on_c, 0, 81, 0
2, 6211, Note_on_c, 0, 80, 78
2, 6226, Note_on_c, 0, 80, 0
2, 6227, Note_on_c, 0, 78, 78
2, 6242, Note_on_c, 0, 78, 0
2, 6243, Note_on_c, 0, 76, 78
2, 6288, Note_on_c, 0, 76, 0
2, 6291, Note_on_c, 0, 76, 78
2, 6336, Note_on_c, 0, 76, 0
2, 6339, Note_on_c, 0, 76, 78
2, 6354, Note_on_c, 0, 76, 0
2, 6355, Note_on_c, 0, 78, 78
2, 6370, Note_on_c, 0, 78, 0
2, 6371, Note_on_c, 0, 80, 78
2, 6386, Note_on_c, 0, 80, 0
2, 6387, Note_on_c, 0, 81, 78
2, 6402, Note_on_c, 0, 81, 0
2, 6403, Note_on_c, 0, 80, 78
2, 6418, Note_on_c, 0, 80, 0
2, 6419, Note_on_c, 0, 78, 78
2, 6434, Note_on_c, 0, 78, 0
2, 6435, Note_on_c, 0, 76, 78
2, 6480, Note_on_c, 0, 76, 0
2, 6483, Note_on_c, 0, 77, 78
2, 6528, Note_on_c, 0, 77, 0
2, 6531, Note_on_c, 0, 78, 78
2, 6576, Note_on_c, 0, 78, 0
2, 6579, Note_on_c, 0, 70, 78
2, 6602, Note_on_c, 0, 70, 0
2, 6603, Note_on_c, 0, 71, 78
2, 6626, Note_on_c, 0, 71, 0
2, 6627, Note_on_c, 0, 73, 78
2, 6650, Note_on_c, 0, 73, 0
2, 6651, Note_on_c, 0, 74, 78
2, 6674, Note_on_c, 0, 74, 0
2, 6675, Note_on_c, 0, 76, 78
2, 6698, Note_on_c, 0, 76, 0
2, 6699, Note_on_c, 0, 78, 78
2, 6722, Note_on_c, 0, 78, 0
2, 6723, Note_on_c, 0, 76, 94
2, 6771, Note_on_c, 0, 76, 0
2, 6771, Note_on_c, 0, 74, 78
2, 6783, Note_on_c, 0, 74, 0
2, 6783, Note_on_c, 0, 73, 78
2, 6795, Note_on_c, 0, 73, 0
2, 6795, Note_on_c, 0, 71, 78
2, 6807, Note_on_c, 0, 71, 0
2, 6807, Note_on_c, 0, 69, 78
2, 6819, Note_on_c, 0, 69, 0
2, 6819, Note_on_c, 0, 71, 78
2, 6832, Note_on_c, 0, 71, 0
2, 6833, Note_on_c, 0, 73, 78
2, 6846, Note_on_c, 0, 73, 0
2, 6847, Note_on_c, 0, 71, 78
2, 6860, Note_on_c, 0, 71, 0
2, 6861, Note_on_c, 0, 73, 78
2, 6874, Note_on_c, 0, 73, 0
2, 6875, Note_on_c, 0, 71, 78
2, 6888, Note_on_c, 0, 71, 0
2, 6889, Note_on_c, 0, 69, 78
2, 6901, Note_on_c, 0, 69, 0
2, 6902, Note_on_c, 0, 71, 78
2, 6914, Note_on_c, 0, 71, 0
2, 6915, Note_on_c, 0, 69, 78
2, 6960, Note_on_c, 0, 69, 0
2, 6963, Note_on_c, 0, 64, 78
2, 6986, Note_on_c, 0, 64, 0
2, 6987, Note_on_c, 0, 69, 78
2, 7010, Note_on_c, 0, 69, 0
2, 7011, Note_on_c, 0, 61, 78
2, 7034, Note_on_c, 0, 61, 0
2, 7035, Note_on_c, 0, 64, 78
2, 7058, Note_on_c, 0, 64, 0
2, 7059, Note_on_c, 0, 57, 78
2, 7082, Note_on_c, 0, 57, 0
2, 7083, Note_on_c, 0, 61, 78
2, 7106, Note_on_c, 0, 61, 0
2, 7299, Note_on_c, 0, 83, 78
2, 7311, Note_on_c, 0, 83, 0
2, 7311, Note_on_c, 0, 81, 78
2, 7323, Note_on_c, 0, 81, 0
2, 7323, Note_on_c, 0, 80, 78
2, 7335, Note_on_c, 0, 80, 0
2, 7335, Note_on_c, 0, 81, 78
2, 7432, Note_on_c, 0, 81, 0
2, 7443, Note_on_c, 0, 86, 78
2, 7466, Note_on_c, 0, 86, 0
2, 7467, Note_on_c, 0, 81, 78
2, 7490, Note_on_c, 0, 81, 0
2, 7491, Note_on_c, 0, 78, 78
2, 7624, Note_on_c, 0, 78, 0
2, 7635, Note_on_c, 0, 81, 78
2, 7658, Note_on_c, 0, 81, 0
2, 7659, Note_on_c, 0, 78, 78
2, 7682, Note_on_c, 0, 78, 0
2, 7683, Note_on_c, 0, 83, 78
2, 7816, Note_on_c, 0, 83, 0
2, 7827, Note_on_c, 0, 79, 78
2, 7850, Note_on_c, 0, 79, 0
2, 7851, Note_on_c, 0, 76, 78
2, 7874, Note_on_c, 0, 76, 0
2, 7875, Note_on_c, 0, 74, 78
2, 7923, Note_on_c, 0, 74, 0
2, 7927, Note_on_c, 0, 73, 78
2, 7939, Note_on_c, 0, 73, 0
2, 7940, Note_on_c, 0, 74, 78
2, 7952, Note_on_c, 0, 74, 0
2, 7953, Note_on_c, 0, 73, 78
2, 7965, Note_on_c, 0, 73, 0
2, 7966, Note_on_c, 0, 74, 78
2, 7978, Note_on_c, 0, 74, 0
2, 7979, Note_on_c, 0, 73, 78
2, 7991, Note_on_c, 0, 73, 0
2, 7992, Note_on_c, 0, 74, 78
2, 8004, Note_on_c, 0, 74, 0
2, 8005, Note_on_c, 0, 73, 78
2, 8017, Note_on_c, 0, 73, 0
2, 8018, Note_on_c, 0, 74, 78
2, 8030, Note_on_c, 0, 74, 0
2, 8031, Note_on_c, 0, 73, 78
2, 8043, Note_on_c, 0, 73, 0
2, 8044, Note_on_c, 0, 71, 78
2, 8056, Note_on_c, 0, 71, 0
2, 8057, Note_on_c, 0, 73, 78
2, 8069, Note_on_c, 0, 73, 0
2, 8070, Note_on_c, 0, 74, 78
2, 8115, Note_on_c, 0, 74, 0
2, 8118, Note_on_c, 0, 69, 78
2, 8141, Note_on_c, 0, 69, 0
2, 8142, Note_on_c, 0, 78, 78
2, 8165, Note_on_c, 0, 78, 0
2, 8166, Note_on_c, 0, 76, 78
2, 8189, Note_on_c, 0, 76, 0
2, 8190, Note_on_c, 0, 74, 78
2, 8213, Note_on_c, 0, 74, 0
2, 8214, Note_on_c, 0, 73, 78
2, 8237, Note_on_c, 0, 73, 0
2, 8238, Note_on_c, 0, 71, 78
2, 8261, Note_on_c, 0, 71, 0
2, 8262, Note_on_c, 0, 69, 78
2, 8307, Note_on_c, 0, 69, 0
2, 8310, Note_on_c, 0, 79, 76
2, 8333, Note_on_c, 0, 79, 0
2, 8334, Note_on_c, 0, 83, 75
2, 8357, Note_on_c, 0, 83, 0
2, 8358, Note_on_c, 0, 81, 74
2, 8381, Note_on_c, 0, 81, 0
2, 8382, Note_on_c, 0, 79, 73
2, 8405, Note_on_c, 0, 79, 0
2, 8406, Note_on_c, 0, 78, 72
2, 8429, Note_on_c, 0, 78, 0
2, 8430, Note_on_c, 0, 76, 71
2, 8453, Note_on_c, 0, 76, 0
2, 8454, Note_on_c, 0, 78, 70
2, 8499, Note_on_c, 0, 78, 0
2, 8502, Note_on_c, 0, 69, 70
2, 8525, Note_on_c, 0, 69, 0
2, 8526, Note_on_c, 0, 78, 70
2, 8549, Note_on_c, 0, 78, 0
2, 8550, Note_on_c, 0, 76, 70
2, 8573, Note_on_c, 0, 76, 0
2, 8574, Note_on_c, 0, 74, 70
2, 8597, Note_on_c, 0, 74, 0
2, 8598, Note_on_c, 0, 73, 70
2, 8621, Note_on_c, 0, 73, 0
2, 8622, Note_on_c, 0, 71, 70
2, 8645, Note_on_c, 0, 71, 0
2, 8646, Note_on_c, 0, 69, 70
2, 8691, Note_on_c, 0, 69, 0
2, 8694, Note_on_c, 0, 79, 70
2, 8717, Note_on_c, 0, 79, 0
2, 8718, Note_on_c, 0, 83, 71
2, 8741, Note_on_c, 0, 83, 0
2, 8742, Note_on_c, 0, 81, 72
2, 8765, Note_on_c, 0, 81, 0
2, 8766, Note_on_c, 0, 79, 74
2, 8789, Note_on_c, 0, 79, 0
2, 8790, Note_on_c, 0, 78, 75
2, 8813, Note_on_c, 0, 78, 0
2, 8814, Note_on_c, 0, 76, 76
2, 8837, Note_on_c, 0, 76, 0
2, 8838, Note_on_c, 0, 78, 78
2, 8883, Note_on_c, 0, 78, 0
2, 8934, Note_on_c, 0, 81, 78
2, 8946, Note_on_c, 0, 81, 0
2, 8946, Note_on_c, 0, 79, 78
2, 8958, Note_on_c, 0, 79, 0
2, 8958, Note_on_c, 0, 78, 78
2, 8970, Note_on_c, 0, 78, 0
2, 8970, Note_on_c, 0, 79, 78
2, 8982, Note_on_c, 0, 79, 0
2, 9030, Note_on_c, 0, 83, 78
2, 9042, Note_on_c, 0, 83, 0
2, 9042, Note_on_c, 0, 81, 78
2, 9054, Note_on_c, 0, 81, 0
2, 9054, Note_on_c, 0, 79, 78
2, 9066, Note_on_c, 0, 79, 0
2, 9066, Note_on_c, 0, 81, 78
2, 9078, Note_on_c, 0, 81, 0
2, 9126, Note_on_c, 0, 81, 78
2, 9149, Note_on_c, 0, 81, 0
2, 9150, Note_on_c, 0, 79, 78
2, 9173, Note_on_c, 0, 79, 0
2, 9174, Note_on_c, 0, 78, 78
2, 9197, Note_on_c, 0, 78, 0
2, 9198, Note_on_c, 0, 76, 78
2, 9221, Note_on_c, 0, 76, 0
2, 9222, Note_on_c, 0, 78, 78
2, 9311, Note_on_c, 0, 78, 0
2, 9318, Note_on_c, 0, 79, 78
2, 9330, Note_on_c, 0, 79, 0
2, 9330, Note_on_c, 0, 81, 78
2, 9342, Note_on_c, 0, 81, 0
2, 9342, Note_on_c, 0, 79, 78
2, 9354, Note_on_c, 0, 79, 0
2, 9354, Note_on_c, 0, 81, 78
2, 9366, Note_on_c, 0, 81, 0
2, 9366, Note_on_c, 0, 79, 78
2, 9378, Note_on_c, 0, 79, 0
2, 9378, Note_on_c, 0, 81, 78
2, 9385, Note_on_c, 0, 81, 0
2, 9390, Note_on_c, 0, 78, 78
2, 9402, Note_on_c, 0, 78, 0
2, 9402, Note_on_c, 0, 79, 78
2, 9414, Note_on_c, 0, 79, 0
2, 9414, Note_on_c, 0, 81, 78
2, 9503, Note_on_c, 0, 81, 0
2, 9510, Note_on_c, 0, 81, 78
2, 9533, Note_on_c, 0, 81, 0
2, 9534, Note_on_c, 0, 79, 78
2, 9557, Note_on_c, 0, 79, 0
2, 9558, Note_on_c, 0, 78, 78
2, 9581, Note_on_c, 0, 78, 0
2, 9582, Note_on_c, 0, 76, 78
2, 9605, Note_on_c, 0, 76, 0
2, 9606, Note_on_c, 0, 78, 78
2, 9629, Note_on_c, 0, 78, 0
2, 9630, Note_on_c, 0, 74, 78
2, 9653, Note_on_c, 0, 74, 0
2, 9654, Note_on_c, 0, 79, 78
2, 9677, Note_on_c, 0, 79, 0
2, 9678, Note_on_c, 0, 74, 78
2, 9701, Note_on_c, 0, 74, 0
2, 9702, Note_on_c, 0, 81, 78
2, 9725, Note_on_c, 0, 81, 0
2, 9726, Note_on_c, 0, 74, 78
2, 9749, Note_on_c, 0, 74, 0
2, 9750, Note_on_c, 0, 83, 78
2, 9773, Note_on_c, 0, 83, 0
2, 9774, Note_on_c, 0, 74, 78
2, 9797, Note_on_c, 0, 74, 0
2, 9798, Note_on_c, 0, 73, 78
2, 9808, Note_on_c, 0, 73, 0
2, 9808, Note_on_c, 0, 74, 78
2, 9818, Note_on_c, 0, 74, 0
2, 9818, Note_on_c, 0, 73, 78
2, 9828, Note_on_c, 0, 73, 0
2, 9828, Note_on_c, 0, 71, 78
2, 9837, Note_on_c, 0, 71, 0
2, 9837, Note_on_c, 0, 73, 78
2, 9846, Note_on_c, 0, 73, 0
2, 9846, Note_on_c, 0, 74, 78
2, 9891, Note_on_c, 0, 74, 0
2, 9990, Control_c, 0, 64, 127
2, 10038, Note_on_c, 0, 57, 85
2, 10061, Note_on_c, 0, 57, 0
2, 10062, Note_on_c, 0, 62, 85
2, 10085, Note_on_c, 0, 62, 0
2, 10086, Note_on_c, 0, 66, 85
2, 10109, Note_on_c, 0, 66, 0
2, 10110, Note_on_c, 0, 62, 85
2, 10133, Note_on_c, 0, 62, 0
2, 10134, Note_on_c, 0, 57, 85
2, 10157, Note_on_c, 0, 57, 0
2, 10158, Note_on_c, 0, 62, 85
2, 10181, Note_on_c, 0, 62, 0
2, 10182, Control_c, 0, 64, 0
2, 10230, Note_on_c, 0, 66, 85
2, 10253, Note_on_c, 0, 66, 0
2, 10254, Note_on_c, 0, 69, 85
2, 10277, Note_on_c, 0, 69, 0
2, 10278, Note_on_c, 0, 67, 85
2, 10301, Note_on_c, 0, 67, 0
2, 10302, Note_on_c, 0, 66, 85
2, 10325, Note_on_c, 0, 66, 0
2, 10326, Note_on_c, 0, 64, 85
2, 10349, Note_on_c, 0, 64, 0
2, 10350, Note_on_c, 0, 62, 85
2, 10373, Note_on_c, 0, 62, 0
2, 10374, Control_c, 0, 64, 127
2, 10422, Note_on_c, 0, 69, 85
2, 10445, Note_on_c, 0, 69, 0
2, 10446, Note_on_c, 0, 73, 85
2, 10469, Note_on_c, 0, 73, 0
2, 10470, Note_on_c, 0, 76, 85
2, 10493, Note_on_c, 0, 76, 0
2, 10494, Note_on_c, 0, 73, 85
2, 10517, Note_on_c, 0, 73, 0
2, 10518, Note_on_c, 0, 69, 85
2, 10541, Note_on_c, 0, 69, 0
2, 10542, Note_on_c, 0, 73, 85
2, 10565, Note_on_c, 0, 73, 0
2, 10566, Control_c, 0, 64, 0
2, 10614, Note_on_c, 0, 73, 85
2, 10637, Note_on_c, 0, 73, 0
2, 10638, Note_on_c, 0, 76, 85
2, 10661, Note_on_c, 0, 76, 0
2, 10662, Note_on_c, 0, 74, 85
2, 10685, Note_on_c, 0, 74, 0
2, 10686, Note_on_c, 0, 73, 85
2, 10709, Note_on_c, 0, 73, 0
2, 10710, Note_on_c, 0, 71, 85
2, 10733, Note_on_c, 0, 71, 0
2, 10734, Note_on_c, 0, 69, 85
2, 10757, Note_on_c, 0, 69, 0
2, 10758, Control_c, 0, 64, 127
2, 10758, Note_on_c, 0, 68, 85
2, 10781, Note_on_c, 0, 68, 0
2, 10782, Note_on_c, 0, 71, 85
2, 10805, Note_on_c, 0, 71, 0
2, 10806, Note_on_c, 0, 74, 85
2, 10829, Note_on_c, 0, 74, 0
2, 10830, Note_on_c, 0, 80, 85
2, 10853, Note_on_c, 0, 80, 0
2, 10854, Note_on_c, 0, 83, 85
2, 10877, Note_on_c, 0, 83, 0
2, 10878, Note_on_c, 0, 80, 85
2, 10901, Note_on_c, 0, 80, 0
2, 10902, Note_on_c, 0, 74, 85
2, 10925, Note_on_c, 0, 74, 0
2, 10926, Note_on_c, 0, 80, 85
2, 10949, Note_on_c, 0, 80, 0
2, 10950, Control_c, 0, 64, 0
2, 10998, Note_on_c, 0, 83, 85
2, 11021, Note_on_c, 0, 83, 0
2, 11022, Note_on_c, 0, 81, 85
2, 11045, Note_on_c, 0, 81, 0
2, 11046, Note_on_c, 0, 80, 85
2, 11069, Note_on_c, 0, 80, 0
2, 11070, Note_on_c, 0, 78, 85
2, 11093, Note_on_c, 0, 78, 0
2, 11094, Note_on_c, 0, 76, 85
2, 11117, Note_on_c, 0, 76, 0
2, 11118, Note_on_c, 0, 74, 85
2, 11141, Note_on_c, 0, 74, 0
2, 11142, Note_on_c, 0, 73, 85
2, 11165, Note_on_c, 0, 73, 0
2, 11166, Note_on_c, 0, 69, 85
2, 11189, Note_on_c, 0, 69, 0
2, 11190, Note_on_c, 0, 74, 85
2, 11213, Note_on_c, 0, 74, 0
2, 11214, Note_on_c, 0, 69, 85
2, 11237, Note_on_c, 0, 69, 0
2, 11238, Note_on_c, 0, 76, 85
2, 11261, Note_on_c, 0, 76, 0
2, 11262, Note_on_c, 0, 69, 85
2, 11285, Note_on_c, 0, 69, 0
2, 11286, Note_on_c, 0, 78, 85
2, 11309, Note_on_c, 0, 78, 0
2, 11310, Note_on_c, 0, 69, 85
2, 11333, Note_on_c, 0, 69, 0
2, 11334, Note_on_c, 0, 76, 85
2, 11357, Note_on_c, 0, 76, 0
2, 11358, Note_on_c, 0, 69, 85
2, 11381, Note_on_c, 0, 69, 0
2, 11382, Note_on_c, 0, 78, 85
2, 11405, Note_on_c, 0, 78, 0
2, 11406, Note_on_c, 0, 69, 85
2, 11429, Note_on_c, 0, 69, 0
2, 11430, Note_on_c, 0, 76, 85
2, 11453, Note_on_c, 0, 76, 0
2, 11454, Note_on_c, 0, 69, 83
2, 11477, Note_on_c, 0, 69, 0
2, 11478, Note_on_c, 0, 74, 82
2, 11501, Note_on_c, 0, 74, 0
2, 11502, Note_on_c, 0, 69, 80
2, 11525, Note_on_c, 0, 69, 0
2, 11526, Note_on_c, 0, 73, 79
2, 11549, Note_on_c, 0, 73, 0
2, 11550, Note_on_c, 0, 69, 78
2, 11573, Note_on_c, 0, 69, 0
2, 11574, Note_on_c, 0, 74, 78
2, 11597, Note_on_c, 0, 74, 0
2, 11598, Note_on_c, 0, 69, 78
2, 11621, Note_on_c, 0, 69, 0
2, 11622, Note_on_c, 0, 76, 78
2, 11645, Note_on_c, 0, 76, 0
2, 11646, Note_on_c, 0, 69, 78
2, 11669, Note_on_c, 0, 69, 0
2, 11670, Note_on_c, 0, 78, 78
2, 11693, Note_on_c, 0, 78, 0
2, 11694, Note_on_c, 0, 69, 78
2, 11717, Note_on_c, 0, 69, 0
2, 11718, Note_on_c, 0, 76, 78
2, 11741, Note_on_c, 0, 76, 0
2, 11742, Note_on_c, 0, 69, 78
2, 11765, Note_on_c, 0, 69, 0
2, 11766, Note_on_c, 0, 78, 78
2, 11789, Note_on_c, 0, 78, 0
2, 11790, Note_on_c, 0, 69, 78
2, 11813, Note_on_c, 0, 69, 0
2, 11814, Note_on_c, 0, 76, 78
2, 11859, Note_on_c, 0, 76, 0
2, 11862, Note_on_c, 0, 81, 94
2, 11882, Note_on_c, 0, 81, 0
2, 11910, Note_on_c, 0, 71, 78
2, 12043, Note_on_c, 0, 71, 0
2, 12054, Note_on_c, 0, 74, 78
2, 12066, Note_on_c, 0, 74, 0
2, 12066, Note_on_c, 0, 76, 78
2, 12078, Note_on_c, 0, 76, 0
2, 12078, Note_on_c, 0, 78, 78
2, 12101, Note_on_c, 0, 78, 0
2, 12102, Note_on_c, 0, 69, 78
2, 12191, Note_on_c, 0, 69, 0
2, 12198, Note_on_c, 0, 73, 78
2, 12221, Note_on_c, 0, 73, 0
2, 12222, Note_on_c, 0, 71, 78
2, 12245, Note_on_c, 0, 71, 0
2, 12246, Note_on_c, 0, 69, 78
2, 12269, Note_on_c, 0, 69, 0
2, 12270, Note_on_c, 0, 68, 78
2, 12293, Note_on_c, 0, 68, 0
2, 12294, Note_on_c, 0, 69, 78
2, 12339, Note_on_c, 0, 69, 0
2, 12342, Note_on_c, 0, 81, 78
2, 12357, Note_on_c, 0, 81, 0
2, 12358, Note_on_c, 0, 80, 78
2, 12373, Note_on_c, 0, 80, 0
2, 12374, Note_on_c, 0, 78, 78
2, 12389, Note_on_c, 0, 78, 0
2, 12390, Note_on_c, 0, 76, 78
2, 12435, Note_on_c, 0, 76, 0
2, 12438, Note_on_c, 0, 76, 78
2, 12483, Note_on_c, 0, 76, 0
2, 12486, Note_on_c, 0, 76, 78
2, 12501, Note_on_c, 0, 76, 0
2, 12502, Note_on_c, 0, 78, 78
2, 12517, Note_on_c, 0, 78, 0
2, 12518, Note_on_c, 0, 80, 78
2, 12533, Note_on_c, 0, 80, 0
2, 12534, Note_on_c, 0, 81, 78
2, 12549, Note_on_c, 0, 81, 0
2, 12550, Note_on_c, 0, 80, 78
2, 12565, Note_on_c, 0, 80, 0
2, 12566, Note_on_c, 0, 78, 78
2, 12581, Note_on_c, 0, 78, 0
2, 12582, Note_on_c, 0, 76, 78
2, 12627, Note_on_c, 0, 76, 0
2, 12630, Note_on_c, 0, 76, 78
2, 12675, Note_on_c, 0, 76, 0
2, 12678, Note_on_c, 0, 76, 78
2, 12693, Note_on_c, 0, 76, 0
2, 12694, Note_on_c, 0, 78, 78
2, 12709, Note_on_c, 0, 78, 0
2, 12710, Note_on_c, 0, 80, 78
2, 12725, Note_on_c, 0, 80, 0
2, 12726, Note_on_c, 0, 81, 78
2, 12741, Note_on_c, 0, 81, 0
2, 12742, Note_on_c, 0, 80, 78
2, 12757, Note_on_c, 0, 80, 0
2, 12758, Note_on_c, 0, 78, 78
2, 12773, Note_on_c, 0, 78, 0
2, 12774, Note_on_c, 0, 76, 78
2, 12819, Note_on_c, 0, 76, 0
2, 12822, Note_on_c, 0, 77, 78
2, 12867, Note_on_c, 0, 77, 0
2, 12870, Note_on_c, 0, 78, 78
2, 12915, Note_on_c, 0, 78, 0
2, 12918, Note_on_c, 0, 70, 78
2, 12941, Note_on_c, 0, 70, 0
2, 12942, Note_on_c, 0, 71, 78
2, 12965, Note_on_c, 0, 71, 0
2, 12966, Note_on_c, 0, 73, 78
2, 12989, Note_on_c, 0, 73, 0
2, 12990, Note_on_c, 0, 74, 78
2, 13013, Note_on_c, 0, 74, 0
2, 13014, Note_on_c, 0, 76, 78
2, 13037, Note_on_c, 0, 76, 0
2, 13038, Note_on_c, 0, 78, 78
2, 13061, Note_on_c, 0, 78, 0
2, 13062, Note_on_c, 0, 76, 94
2, 13110, Note_on_c, 0, 76, 0
2, 13110, Note_on_c, 0, 74, 78
2, 13122, Note_on_c, 0, 74, 0
2, 13122, Note_on_c, 0, 73, 78
2, 13134, Note_on_c, 0, 73, 0
2, 13134, Note_on_c, 0, 71, 78
2, 13146, Note_on_c, 0, 71, 0
2, 13146, Note_on_c, 0, 69, 78
2, 13158, Note_on_c, 0, 69, 0
2, 13158, Note_on_c, 0, 71, 78
2, 13171, Note_on_c, 0, 71, 0
2, 13172, Note_on_c, 0, 73, 78
2, 13185, Note_on_c, 0, 73, 0
2, 13186, Note_on_c, 0, 71, 78
2, 13199, Note_on_c, 0, 71, 0
2, 13200, Note_on_c, 0, 73, 78
2, 13213, Note_on_c, 0, 73, 0
2, 13214, Note_on_c, 0, 71, 78
2, 13227, Note_on_c, 0, 71, 0
2, 13228, Note_on_c, 0, 69, 78
2, 13240, Note_on_c, 0, 69, 0
2, 13241, Note_on_c, 0, 71, 78
2, 13253, Note_on_c, 0, 71, 0
2, 13254, Note_on_c, 0, 69, 78
2, 13299, Note_on_c, 0, 69, 0
2, 13302, Note_on_c, 0, 81, 78
2, 13317, Note_on_c, 0, 81, 0
2, 13318, Note_on_c, 0, 80, 78
2, 13333, Note_on_c, 0, 80, 0
2, 13334, Note_on_c, 0, 78, 78
2, 13349, Note_on_c, 0, 78, 0
2, 13350, Note_on_c, 0, 76, 78
2, 13395, Note_on_c, 0, 76, 0
2, 13398, Note_on_c, 0, 76, 78
2, 13443, Note_on_c, 0, 76, 0
2, 13446, Note_on_c, 0, 76, 78
2, 13461, Note_on_c, 0, 76, 0
2, 13462, Note_on_c, 0, 78, 78
2, 13477, Note_on_c, 0, 78, 0
2, 13478, Note_on_c, 0, 80, 78
2, 13493, Note_on_c, 0, 80, 0
2, 13494, Note_on_c, 0, 81, 78
2, 13509, Note_on_c, 0, 81, 0
2, 13510, Note_on_c, 0, 80, 78
2, 13525, Note_on_c, 0, 80, 0
2, 13526, Note_on_c, 0, 78, 78
2, 13541, Note_on_c, 0, 78, 0
2, 13542, Note_on_c, 0, 76, 78
2, 13587, Note_on_c, 0, 76, 0
2, 13590, Note_on_c, 0, 76, 78
2, 13635, Note_on_c, 0, 76, 0
2, 13638, Note_on_c, 0, 76, 78
2, 13653, Note_on_c, 0, 76, 0
2, 13654, Note_on_c, 0, 78, 78
2, 13669, Note_on_c, 0, 78, 0
2, 13670, Note_on_c, 0, 80, 78
2, 13685, Note_on_c, 0, 80, 0
2, 13686, Note_on_c, 0, 81, 78
2, 13701, Note_on_c, 0, 81, 0
2, 13702, Note_on_c, 0, 80, 78
2, 13717, Note_on_c, 0, 80, 0
2, 13718, Note_on_c, 0, 78, 78
2, 13733, Note_on_c, 0, 78, 0
2, 13734, Note_on_c, 0, 76, 78
2, 13779, Note_on_c, 0, 76, 0
2, 13782, Note_on_c, 0, 77, 78
2, 13827, Note_on_c, 0, 77, 0
2, 13830, Note_on_c, 0, 78, 78
2, 13875, Note_on_c, 0, 78, 0
2, 13878, Note_on_c, 0, 70, 78
2, 13901, Note_on_c, 0, 70, 0
2, 13902, Note_on_c, 0, 71, 78
2, 13925, Note_on_c, 0, 71, 0
2, 13926, Note_on_c, 0, 73, 78
2, 13949, Note_on_c, 0, 73, 0
2, 13950, Note_on_c, 0, 74, 78
2, 13973, Note_on_c, 0, 74, 0
2, 13974, Note_on_c, 0, 76, 78
2, 13997, Note_on_c, 0, 76, 0
2, 13998, Note_on_c, 0, 78, 78
2, 14021, Note_on_c, 0, 78, 0
2, 14022, Note_on_c, 0, 76, 94
2, 14070, Note_on_c, 0, 76, 0
2, 14070, Note_on_c, 0, 74, 78
2, 14082, Note_on_c, 0, 74, 0
2, 14082, Note_on_c, 0, 73, 78
2, 14094, Note_on_c, 0, 73, 0
2, 14094, Note_on_c, 0, 71, 78
2, 14106, Note_on_c, 0, 71, 0
2, 14106, Note_on_c, 0, 69, 78
2, 14118, Note_on_c, 0, 69, 0
2, 14118, Note_on_c, 0, 71, 78
2, 14131, Note_on_c, 0, 71, 0
2, 14132, Note_on_c, 0, 73, 78
2, 14145, Note_on_c, 0, 73, 0
2, 14146, Note_on_c, 0, 71, 78
2, 14159, Note_on_c, 0, 71, 0
2, 14160, Note_on_c, 0, 73, 78
2, 14173, Note_on_c, 0, 73, 0
2, 14174, Note_on_c, 0, 71, 78
2, 14187, Note_on_c, 0, 71, 0
2, 14188, Note_on_c, 0, 69, 78
2, 14200, Note_on_c, 0, 69, 0
2, 14201, Note_on_c, 0, 71, 78
2, 14213, Note_on_c, 0, 71, 0
2, 14214, Note_on_c, 0, 69, 78
2, 14259, Note_on_c, 0, 69, 0
2, 14262, Note_on_c, 0, 64, 78
2, 14285, Note_on_c, 0, 64, 0
2, 14286, Note_on_c, 0, 69, 78
2, 14309, Note_on_c, 0, 69, 0
2, 14310, Note_on_c, 0, 61, 78
2, 14333, Note_on_c, 0, 61, 0
2, 14334, Note_on_c, 0, 64, 78
2, 14357, Note_on_c, 0, 64, 0
2, 14358, Note_on_c, 0, 57, 78
2, 14381, Note_on_c, 0, 57, 0
2, 14382, Note_on_c, 0, 61, 78
2, 14405, Note_on_c, 0, 61, 0
2, 14598, Note_on_c, 0, 78, 78
2, 14610, Note_on_c, 0, 78, 0
2, 14610, Note_on_c, 0, 76, 78
2, 14622, Note_on_c, 0, 76, 0
2, 14622, Note_on_c, 0, 75, 78
2, 14634, Note_on_c, 0, 75, 0
2, 14634, Note_on_c, 0, 76, 78
2, 14731, Note_on_c, 0, 76, 0
2, 14742, Note_on_c, 0, 81, 78
2, 14765, Note_on_c, 0, 81, 0
2, 14766, Note_on_c, 0, 76, 78
2, 14789, Note_on_c, 0, 76, 0
2, 14790, Note_on_c, 0, 73, 78
2, 14923, Note_on_c, 0, 73, 0
2, 14934, Note_on_c, 0, 76, 78
2, 14957, Note_on_c, 0, 76, 0
2, 14958, Note_on_c, 0, 73, 78
2, 14981, Note_on_c, 0, 73, 0
2, 14982, Note_on_c, 0, 78, 78
2, 15115, Note_on_c, 0, 78, 0
2, 15126, Note_on_c, 0, 74, 78
2, 15149, Note_on_c, 0, 74, 0
2, 15150, Note_on_c, 0, 71, 78
2, 15173, Note_on_c, 0, 71, 0
2, 15174, Note_on_c, 0, 69, 63
2, 15217, Note_on_c, 0, 69, 0
2, 15220, Note_on_c, 0, 68, 67
2, 15232, Note_on_c, 0, 68, 0
2, 15232, Note_on_c, 0, 69, 68
2, 15244, Note_on_c, 0, 69, 0
2, 15244, Note_on_c, 0, 68, 69
2, 15256, Note_on_c, 0, 68, 0
2, 15256, Note_on_c, 0, 69, 69
2, 15268, Note_on_c, 0, 69, 0
2, 15268, Note_on_c, 0, 68, 70
2, 15279, Note_on_c, 0, 68, 0
2, 15279, Note_on_c, 0, 69, 71
2, 15290, Note_on_c, 0, 69, 0
2, 15290, Note_on_c, 0, 68, 71
2, 15301, Note_on_c, 0, 68, 0
2, 15301, Note_on_c, 0, 69, 72
2, 15312, Note_on_c, 0, 69, 0
2, 15312, Note_on_c, 0, 68, 73
2, 15323, Note_on_c, 0, 68, 0
2, 15323, Note_on_c, 0, 69, 74
2, 15334, Note_on_c, 0, 69, 0
2, 15334, Note_on_c, 0, 68, 74
2, 15345, Note_on_c, 0, 68, 0
2, 15345, Note_on_c, 0, 66, 75
2, 15356, Note_on_c, 0, 66, 0
2, 15356, Note_on_c, 0, 68, 76
2, 15367, Note_on_c, 0, 68, 0
2, 15367, Note_on_c, 0, 69, 78
2, 15412, Note_on_c, 0, 69, 0
2, 15415, Note_on_c, 0, 69, 79
2, 15438, Note_on_c, 0, 69, 0
2, 15439, Note_on_c, 0, 71, 80
2, 15462, Note_on_c, 0, 71, 0
2, 15463, Note_on_c, 0, 73, 81
2, 15486, Note_on_c, 0, 73, 0
2, 15487, Note_on_c, 0, 74, 82
2, 15510, Note_on_c, 0, 74, 0
2, 15511, Note_on_c, 0, 76, 83
2, 15534, Note_on_c, 0, 76, 0
2, 15535, Note_on_c, 0, 78, 84
2, 15558, Note_on_c, 0, 78, 0
2, 15559, Note_on_c, 0, 79, 85
2, 15582, Note_on_c, 0, 79, 0
2, 15583, Note_on_c, 0, 78, 84
2, 15606, Note_on_c, 0, 78, 0
2, 15607, Note_on_c, 0, 76, 83
2, 15630, Note_on_c, 0, 76, 0
2, 15631, Note_on_c, 0, 74, 82
2, 15654, Note_on_c, 0, 74, 0
2, 15655, Note_on_c, 0, 73, 81
2, 15678, Note_on_c, 0, 73, 0
2, 15679, Note_on_c, 0, 71, 80
2, 15702, Note_on_c, 0, 71, 0
2, 15703, Note_on_c, 0, 69, 79
2, 15726, Note_on_c, 0, 69, 0
2, 15727, Note_on_c, 0, 67, 78
2, 15750, Note_on_c, 0, 67, 0
2, 15751, Control_c, 0, 64, 127
2, 15751, Note_on_c, 0, 66, 78
2, 15774, Note_on_c, 0, 66, 0
2, 15775, Note_on_c, 0, 69, 78
2, 15798, Note_on_c, 0, 69, 0
2, 15799, Note_on_c, 0, 74, 78
2, 15822, Note_on_c, 0, 74, 0
2, 15823, Note_on_c, 0, 78, 78
2, 15846, Note_on_c, 0, 78, 0
2, 15847, Note_on_c, 0, 81, 78
2, 15870, Note_on_c, 0, 81, 0
2, 15871, Note_on_c, 0, 78, 78
2, 15894, Note_on_c, 0, 78, 0
2, 15895, Note_on_c, 0, 74, 78
2, 15918, Note_on_c, 0, 74, 0
2, 15919, Note_on_c, 0, 78, 79
2, 15942, Note_on_c, 0, 78, 0
2, 15943, Note_on_c, 0, 66, 79
2, 15966, Note_on_c, 0, 66, 0
2, 15967, Note_on_c, 0, 69, 79
2, 15990, Note_on_c, 0, 69, 0
2, 15991, Note_on_c, 0, 74, 79
2, 16014, Note_on_c, 0, 74, 0
2, 16015, Note_on_c, 0, 78, 79
2, 16038, Note_on_c, 0, 78, 0
2, 16039, Note_on_c, 0, 81, 79
2, 16062, Note_on_c, 0, 81, 0
2, 16063, Note_on_c, 0, 78, 79
2, 16086, Note_on_c, 0, 78, 0
2, 16087, Note_on_c, 0, 74, 80
2, 16110, Note_on_c, 0, 74, 0
2, 16111, Control_c, 0, 64, 0
2, 16111, Note_on_c, 0, 78, 80
2, 16134, Note_on_c, 0, 78, 0
2, 16135, Control_c, 0, 64, 127
2, 16135, Note_on_c, 0, 65, 80
2, 16158, Note_on_c, 0, 65, 0
2, 16159, Note_on_c, 0, 69, 80
2, 16182, Note_on_c, 0, 69, 0
2, 16183, Note_on_c, 0, 74, 80
2, 16206, Note_on_c, 0, 74, 0
2, 16207, Note_on_c, 0, 77, 80
2, 16230, Note_on_c, 0, 77, 0
2, 16231, Note_on_c, 0, 81, 80
2, 16254, Note_on_c, 0, 81, 0
2, 16255, Note_on_c, 0, 77, 81
2, 16278, Note_on_c, 0, 77, 0
2, 16279, Note_on_c, 0, 74, 81
2, 16302, Note_on_c, 0, 74, 0
2, 16303, Note_on_c, 0, 77, 81
2, 16326, Note_on_c, 0, 77, 0
2, 16327, Note_on_c, 0, 65, 81
2, 16350, Note_on_c, 0, 65, 0
2, 16351, Note_on_c, 0, 69, 81
2, 16374, Note_on_c, 0, 69, 0
2, 16375, Note_on_c, 0, 74, 81
2, 16398, Note_on_c, 0, 74, 0
2, 16399, Note_on_c, 0, 77, 81
2, 16422, Note_on_c, 0, 77, 0
2, 16423, Note_on_c, 0, 81, 82
2, 16446, Note_on_c, 0, 81, 0
2, 16447, Note_on_c, 0, 77, 82
2, 16470, Note_on_c, 0, 77, 0
2, 16471, Note_on_c, 0, 74, 82
2, 16494, Note_on_c, 0, 74, 0
2, 16495, Control_c, 0, 64, 0
2, 16495, Note_on_c, 0, 77, 82
2, 16518, Note_on_c, 0, 77, 0
2, 16519, Control_c, 0, 64, 127
2, 16519, Note_on_c, 0, 64, 82
2, 16542, Note_on_c, 0, 64, 0
2, 16543, Note_on_c, 0, 71, 82
2, 16566, Note_on_c, 0, 71, 0
2, 16567, Note_on_c, 0, 74, 83
2, 16590, Note_on_c, 0, 74, 0
2, 16591, Note_on_c, 0, 76, 83
2, 16614, Note_on_c, 0, 76, 0
2, 16615, Note_on_c, 0, 80, 83
2, 16638, Note_on_c, 0, 80, 0
2, 16639, Note_on_c, 0, 76, 83
2, 16662, Note_on_c, 0, 76, 0
2, 16663, Note_on_c, 0, 74, 83
2, 16686, Note_on_c, 0, 74, 0
2, 16687, Note_on_c, 0, 76, 83
2, 16710, Note_on_c, 0, 76, 0
2, 16711, Note_on_c, 0, 64, 83
2, 16734, Note_on_c, 0, 64, 0
2, 16735, Note_on_c, 0, 71, 84
2, 16758, Note_on_c, 0, 71, 0
2, 16759, Note_on_c, 0, 74, 84
2, 16782, Note_on_c, 0, 74, 0
2, 16783, Note_on_c, 0, 80, 84
2, 16806, Note_on_c, 0, 80, 0
2, 16807, Note_on_c, 0, 83, 84
2, 16830, Note_on_c, 0, 83, 0
2, 16831, Note_on_c, 0, 80, 84
2, 16854, Note_on_c, 0, 80, 0
2, 16855, Note_on_c, 0, 74, 84
2, 16878, Note_on_c, 0, 74, 0
2, 16879, Control_c, 0, 64, 0
2, 16879, Note_on_c, 0, 80, 84
2, 16902, Note_on_c, 0, 80, 0
2, 16903, Control_c, 0, 64, 127
2, 16903, Note_on_c, 0, 65, 85
2, 16926, Note_on_c, 0, 65, 0
2, 16927, Note_on_c, 0, 71, 85
2, 16950, Note_on_c, 0, 71, 0
2, 16951, Note_on_c, 0, 74, 85
2, 16974, Note_on_c, 0, 74, 0
2, 16975, Note_on_c, 0, 80, 85
2, 16998, Note_on_c, 0, 80, 0
2, 16999, Note_on_c, 0, 83, 85
2, 17022, Note_on_c, 0, 83, 0
2, 17023, Note_on_c, 0, 80, 85
2, 17046, Note_on_c, 0, 80, 0
2, 17047, Note_on_c, 0, 74, 85
2, 17070, Note_on_c, 0, 74, 0
2, 17071, Note_on_c, 0, 80, 86
2, 17094, Note_on_c, 0, 80, 0
2, 17095, Note_on_c, 0, 65, 86
2, 17118, Note_on_c, 0, 65, 0
2, 17119, Note_on_c, 0, 71, 86
2, 17142, Note_on_c, 0, 71, 0
2, 17143, Note_on_c, 0, 74, 86
2, 17166, Note_on_c, 0, 74, 0
2, 17167, Note_on_c, 0, 80, 86
2, 17190, Note_on_c, 0, 80, 0
2, 17191, Note_on_c, 0, 83, 86
2, 17214, Note_on_c, 0, 83, 0
2, 17215, Note_on_c, 0, 80, 87
2, 17238, Note_on_c, 0, 80, 0
2, 17239, Note_on_c, 0, 74, 87
2, 17262, Note_on_c, 0, 74, 0
2, 17263, Control_c, 0, 64, 0
2, 17263, Note_on_c, 0, 80, 87
2, 17286, Note_on_c, 0, 80, 0
2, 17287, Control_c, 0, 64, 127
2, 17287, Note_on_c, 0, 66, 87
2, 17310, Note_on_c, 0, 66, 0
2, 17311, Note_on_c, 0, 71, 87
2, 17334, Note_on_c, 0, 71, 0
2, 17335, Note_on_c, 0, 74, 87
2, 17358, Note_on_c, 0, 74, 0
2, 17359, Note_on_c, 0, 78, 87
2, 17382, Note_on_c, 0, 78, 0
2, 17383, Note_on_c, 0, 83, 88
2, 17406, Note_on_c, 0, 83, 0
2, 17407, Note_on_c, 0, 78, 88
2, 17430, Note_on_c, 0, 78, 0
2, 17431, Note_on_c, 0, 74, 88
2, 17454, Note_on_c, 0, 74, 0
2, 17455, Note_on_c, 0, 78, 88
2, 17478, Note_on_c, 0, 78, 0
2, 17479, Note_on_c, 0, 66, 88
2, 17502, Note_on_c, 0, 66, 0
2, 17503, Note_on_c, 0, 71, 88
2, 17526, Note_on_c, 0, 71, 0
2, 17527, Note_on_c, 0, 74, 88
2, 17550, Note_on_c, 0, 74, 0
2, 17551, Note_on_c, 0, 78, 89
2, 17574, Note_on_c, 0, 78, 0
2, 17575, Note_on_c, 0, 83, 89
2, 17598, Note_on_c, 0, 83, 0
2, 17599, Note_on_c, 0, 78, 89
2, 17622, Note_on_c, 0, 78, 0
2, 17623, Note_on_c, 0, 74, 89
2, 17646, Note_on_c, 0, 74, 0
2, 17647, Control_c, 0, 64, 0
2, 17647, Note_on_c, 0, 78, 89
2, 17670, Note_on_c, 0, 78, 0
2, 17671, Control_c, 0, 64, 127
2, 17671, Note_on_c, 0, 66, 89
2, 17694, Note_on_c, 0, 66, 0
2, 17695, Note_on_c, 0, 70, 89
2, 17718, Note_on_c, 0, 70, 0
2, 17719, Note_on_c, 0, 73, 90
2, 17742, Note_on_c, 0, 73, 0
2, 17743, Note_on_c, 0, 78, 90
2, 17766, Note_on_c, 0, 78, 0
2, 17767, Note_on_c, 0, 82, 90
2, 17790, Note_on_c, 0, 82, 0
2, 17791, Note_on_c, 0, 78, 90
2, 17814, Note_on_c, 0, 78, 0
2, 17815, Note_on_c, 0, 73, 90
2, 17838, Note_on_c, 0, 73, 0
2, 17839, Note_on_c, 0, 78, 90
2, 17862, Note_on_c, 0, 78, 0
2, 18055, Control_c, 0, 64, 0
2, 18055, Note_on_c, 0, 67, 63
2, 18067, Note_on_c, 0, 67, 0
2, 18067, Note_on_c, 0, 66, 63
2, 18079, Note_on_c, 0, 66, 0
2, 18079, Note_on_c, 0, 64, 63
2, 18091, Note_on_c, 0, 64, 0
2, 18091, Note_on_c, 0, 66, 63
2, 18188, Note_on_c, 0, 66, 0
2, 18199, Note_on_c, 0, 74, 63
2, 18222, Note_on_c, 0, 74, 0
2, 18223, Note_on_c, 0, 71, 63
2, 18246, Note_on_c, 0, 71, 0
2, 18247, Note_on_c, 0, 66, 63
2, 18380, Note_on_c, 0, 66, 0
2, 18391, Note_on_c, 0, 71, 63
2, 18414, Note_on_c, 0, 71, 0
2, 18415, Note_on_c, 0, 66, 63
2, 18438, Note_on_c, 0, 66, 0
2, 18439, Note_on_c, 0, 69, 63
2, 18462, Note_on_c, 0, 69, 0
2, 18463, Note_on_c, 0, 67, 63
2, 18475, Note_on_c, 0, 67, 0
2, 18475, Note_on_c, 0, 69, 63
2, 18487, Note_on_c, 0, 69, 0
2, 18487, Note_on_c, 0, 67, 63
2, 18499, Note_on_c, 0, 67, 0
2, 18499, Note_on_c, 0, 69, 64
2, 18511, Note_on_c, 0, 69, 0
2, 18511, Note_on_c, 0, 67, 64
2, 18523, Note_on_c, 0, 67, 0
2, 18523, Note_on_c, 0, 69, 64
2, 18535, Note_on_c, 0, 69, 0
2, 18535, Note_on_c, 0, 67, 64
2, 18547, Note_on_c, 0, 67, 0
2, 18547, Note_on_c, 0, 69, 65
2, 18559, Note_on_c, 0, 69, 0
2, 18559, Note_on_c, 0, 67, 65
2, 18571, Note_on_c, 0, 67, 0
2, 18571, Note_on_c, 0, 69, 65
2, 18583, Note_on_c, 0, 69, 0
2, 18583, Note_on_c, 0, 76, 65
2, 18606, Note_on_c, 0, 76, 0
2, 18607, Note_on_c, 0, 73, 66
2, 18630, Note_on_c, 0, 73, 0
2, 18631, Note_on_c, 0, 70, 66
2, 18764, Note_on_c, 0, 70, 0
2, 18775, Note_on_c, 0, 73, 69
2, 18798, Note_on_c, 0, 73, 0
2, 18799, Note_on_c, 0, 70, 69
2, 18822, Note_on_c, 0, 70, 0
2, 18823, Note_on_c, 0, 73, 70
2, 18835, Note_on_c, 0, 73, 0
2, 18835, Note_on_c, 0, 71, 70
2, 18847, Note_on_c, 0, 71, 0
2, 18847, Note_on_c, 0, 70, 70
2, 18859, Note_on_c, 0, 70, 0
2, 18859, Note_on_c, 0, 71, 70
2, 18956, Note_on_c, 0, 71, 0
2, 18967, Note_on_c, 0, 83, 72
2, 18990, Note_on_c, 0, 83, 0
2, 18991, Note_on_c, 0, 78, 73
2, 19014, Note_on_c, 0, 78, 0
2, 19015, Note_on_c, 0, 75, 73
2, 19148, Note_on_c, 0, 75, 0
2, 19159, Note_on_c, 0, 78, 76
2, 19182, Note_on_c, 0, 78, 0
2, 19183, Note_on_c, 0, 75, 76
2, 19206, Note_on_c, 0, 75, 0
2, 19207, Note_on_c, 0, 78, 77
2, 19219, Note_on_c, 0, 78, 0
2, 19219, Note_on_c, 0, 76, 77
2, 19231, Note_on_c, 0, 76, 0
2, 19231, Note_on_c, 0, 75, 77
2, 19243, Note_on_c, 0, 75, 0
2, 19243, Note_on_c, 0, 76, 77
2, 19340, Note_on_c, 0, 76, 0
2, 19351, Note_on_c, 0, 83, 80
2, 19374, Note_on_c, 0, 83, 0
2, 19375, Note_on_c, 0, 74, 80
2, 19398, Note_on_c, 0, 74, 0
2, 19399, Note_on_c, 0, 73, 80
2, 19532, Note_on_c, 0, 73, 0
2, 19543, Note_on_c, 0, 76, 83
2, 19566, Note_on_c, 0, 76, 0
2, 19567, Note_on_c, 0, 73, 84
2, 19590, Note_on_c, 0, 73, 0
2, 19591, Note_on_c, 0, 74, 84
2, 19614, Note_on_c, 0, 74, 0
2, 19615, Note_on_c, 0, 69, 85
2, 19638, Note_on_c, 0, 69, 0
2, 19639, Note_on_c, 0, 81, 85
2, 19662, Note_on_c, 0, 81, 0
2, 19663, Note_on_c, 0, 69, 85
2, 19686, Note_on_c, 0, 69, 0
2, 19687, Note_on_c, 0, 79, 85
2, 19710, Note_on_c, 0, 79, 0
2, 19711, Note_on_c, 0, 69, 85
2, 19734, Note_on_c, 0, 69, 0
2, 19735, Note_on_c, 0, 78, 85
2, 19758, Note_on_c, 0, 78, 0
2, 19759, Note_on_c, 0, 69, 85
2, 19782, Note_on_c, 0, 69, 0
2, 19783, Note_on_c, 0, 76, 85
2, 19806, Note_on_c, 0, 76, 0
2, 19807, Note_on_c, 0, 69, 85
2, 19830, Note_on_c, 0, 69, 0
2, 19831, Note_on_c, 0, 78, 85
2, 19854, Note_on_c, 0, 78, 0
2, 19855, Note_on_c, 0, 69, 85
2, 19878, Note_on_c, 0, 69, 0
2, 19879, Note_on_c, 0, 76, 85
2, 19902, Note_on_c, 0, 76, 0
2, 19903, Note_on_c, 0, 69, 85
2, 19926, Note_on_c, 0, 69, 0
2, 19927, Note_on_c, 0, 74, 85
2, 19950, Note_on_c, 0, 74, 0
2, 19951, Note_on_c, 0, 69, 85
2, 19974, Note_on_c, 0, 69, 0
2, 19975, Note_on_c, 0, 73, 85
2, 19998, Note_on_c, 0, 73, 0
2, 19999, Note_on_c, 0, 69, 85
2, 20022, Note_on_c, 0, 69, 0
2, 20023, Note_on_c, 0, 78, 85
2, 20046, Note_on_c, 0, 78, 0
2, 20047, Note_on_c, 0, 69, 84
2, 20070, Note_on_c, 0, 69, 0
2, 20071, Note_on_c, 0, 76, 83
2, 20094, Note_on_c, 0, 76, 0
2, 20095, Note_on_c, 0, 69, 82
2, 20118, Note_on_c, 0, 69, 0
2, 20119, Note_on_c, 0, 74, 81
2, 20142, Note_on_c, 0, 74, 0
2, 20143, Note_on_c, 0, 69, 80
2, 20166, Note_on_c, 0, 69, 0
2, 20167, Note_on_c, 0, 73, 79
2, 20190, Note_on_c, 0, 73, 0
2, 20191, Note_on_c, 0, 69, 79
2, 20214, Note_on_c, 0, 69, 0
2, 20215, Note_on_c, 0, 78, 78
2, 20238, Note_on_c, 0, 78, 0
2, 20239, Note_on_c, 0, 69, 77
2, 20262, Note_on_c, 0, 69, 0
2, 20263, Note_on_c, 0, 76, 76
2, 20286, Note_on_c, 0, 76, 0
2, 20287, Note_on_c, 0, 69, 75
2, 20310, Note_on_c, 0, 69, 0
2, 20311, Note_on_c, 0, 74, 74
2, 20334, Note_on_c, 0, 74, 0
2, 20335, Note_on_c, 0, 69, 74
2, 20358, Note_on_c, 0, 69, 0
2, 20359, Note_on_c, 0, 73, 73
2, 20382, Note_on_c, 0, 73, 0
2, 20383, Note_on_c, 0, 69, 72
2, 20406, Note_on_c, 0, 69, 0
2, 20407, Note_on_c, 0, 78, 71
2, 20430, Note_on_c, 0, 78, 0
2, 20431, Note_on_c, 0, 69, 70
2, 20454, Note_on_c, 0, 69, 0
2, 20455, Note_on_c, 0, 76, 69
2, 20478, Note_on_c, 0, 76, 0
2, 20479, Note_on_c, 0, 69, 68
2, 20502, Note_on_c, 0, 69, 0
2, 20503, Note_on_c, 0, 80, 68
2, 20526, Note_on_c, 0, 80, 0
2, 20527, Note_on_c, 0, 69, 67
2, 20550, Note_on_c, 0, 69, 0
2, 20551, Note_on_c, 0, 81, 66
2, 20645, Note_on_c, 0, 81, 0
2, 20743, Note_on_c, 0, 83, 78
2, 20755, Note_on_c, 0, 83, 0
2, 20755, Note_on_c, 0, 81, 78
2, 20767, Note_on_c, 0, 81, 0
2, 20767, Note_on_c, 0, 80, 78
2, 20779, Note_on_c, 0, 80, 0
2, 20779, Note_on_c, 0, 81, 78
2, 20876, Note_on_c, 0, 81, 0
2, 20887, Note_on_c, 0, 86, 78
2, 20910, Note_on_c, 0, 86, 0
2, 20911, Note_on_c, 0, 81, 78
2, 20934, Note_on_c, 0, 81, 0
2, 20935, Note_on_c, 0, 78, 78
2, 21068, Note_on_c, 0, 78, 0
2, 21079, Note_on_c, 0, 81, 78
2, 21102, Note_on_c, 0, 81, 0
2, 21103, Note_on_c, 0, 78, 78
2, 21126, Note_on_c, 0, 78, 0
2, 21127, Note_on_c, 0, 83, 78
2, 21260, Note_on_c, 0, 83, 0
2, 21271, Note_on_c, 0, 79, 78
2, 21294, Note_on_c, 0, 79, 0
2, 21295, Note_on_c, 0, 76, 78
2, 21318, Note_on_c, 0, 76, 0
2, 21319, Note_on_c, 0, 74, 63
2, 21362, Note_on_c, 0, 74, 0
2, 21365, Note_on_c, 0, 73, 67
2, 21377, Note_on_c, 0, 73, 0
2, 21377, Note_on_c, 0, 74, 68
2, 21389, Note_on_c, 0, 74, 0
2, 21389, Note_on_c, 0, 73, 69
2, 21401, Note_on_c, 0, 73, 0
2, 21401, Note_on_c, 0, 74, 69
2, 21413, Note_on_c, 0, 74, 0
2, 21413, Note_on_c, 0, 73, 70
2, 21424, Note_on_c, 0, 73, 0
2, 21424, Note_on_c, 0, 74, 71
2, 21435, Note_on_c, 0, 74, 0
2, 21435, Note_on_c, 0, 73, 71
2, 21446, Note_on_c, 0, 73, 0
2, 21446, Note_on_c, 0, 74, 72
2, 21457, Note_on_c, 0, 74, 0
2, 21457, Note_on_c, 0, 73, 73
2, 21468, Note_on_c, 0, 73, 0
2, 21468, Note_on_c, 0, 74, 74
2, 21479, Note_on_c, 0, 74, 0
2, 21479, Note_on_c, 0, 73, 74
2, 21490, Note_on_c, 0, 73, 0
2, 21490, Note_on_c, 0, 71, 75
2, 21501, Note_on_c, 0, 71, 0
2, 21501, Note_on_c, 0, 73, 76
2, 21512, Note_on_c, 0, 73, 0
2, 21512, Note_on_c, 0, 74, 85
2, 21557, Note_on_c, 0, 74, 0
2, 21560, Note_on_c, 0, 69, 85
2, 21583, Note_on_c, 0, 69, 0
2, 21584, Note_on_c, 0, 78, 85
2, 21607, Note_on_c, 0, 78, 0
2, 21608, Note_on_c, 0, 76, 85
2, 21631, Note_on_c, 0, 76, 0
2, 21632, Note_on_c, 0, 74, 85
2, 21655, Note_on_c, 0, 74, 0
2, 21656, Note_on_c, 0, 73, 85
2, 21679, Note_on_c, 0, 73, 0
2, 21680, Note_on_c, 0, 71, 85
2, 21703, Note_on_c, 0, 71, 0
2, 21704, Note_on_c, 0, 69, 85
2, 21749, Note_on_c, 0, 69, 0
2, 21752, Note_on_c, 0, 79, 85
2, 21775, Note_on_c, 0, 79, 0
2, 21776, Note_on_c, 0, 83, 85
2, 21799, Note_on_c, 0, 83, 0
2, 21800, Note_on_c, 0, 81, 85
2, 21823, Note_on_c, 0, 81, 0
2, 21824, Note_on_c, 0, 79, 85
2, 21847, Note_on_c, 0, 79, 0
2, 21848, Note_on_c, 0, 78, 85
2, 21871, Note_on_c, 0, 78, 0
2, 21872, Note_on_c, 0, 76, 85
2, 21895, Note_on_c, 0, 76, 0
2, 21896, Note_on_c, 0, 78, 85
2, 21941, Note_on_c, 0, 78, 0
2, 21944, Note_on_c, 0, 69, 85
2, 21967, Note_on_c, 0, 69, 0
2, 21968, Note_on_c, 0, 78, 85
2, 21991, Note_on_c, 0, 78, 0
2, 21992, Note_on_c, 0, 76, 85
2, 22015, Note_on_c, 0, 76, 0
2, 22016, Note_on_c, 0, 74, 85
2, 22039, Note_on_c, 0, 74, 0
2, 22040, Note_on_c, 0, 73, 85
2, 22063, Note_on_c, 0, 73, 0
2, 22064, Note_on_c, 0, 71, 85
2, 22087, Note_on_c, 0, 71, 0
2, 22088, Note_on_c, 0, 69, 85
2, 22133, Note_on_c, 0, 69, 0
2, 22136, Note_on_c, 0, 79, 85
2, 22159, Note_on_c, 0, 79, 0
2, 22160, Note_on_c, 0, 83, 85
2, 22183, Note_on_c, 0, 83, 0
2, 22184, Note_on_c, 0, 81, 70
2, 22207, Note_on_c, 0, 81, 0
2, 22208, Note_on_c, 0, 79, 71
2, 22231, Note_on_c, 0, 79, 0
2, 22232, Note_on_c, 0, 78, 72
2, 22255, Note_on_c, 0, 78, 0
2, 22256, Note_on_c, 0, 76, 74
2, 22279, Note_on_c, 0, 76, 0
2, 22280, Note_on_c, 0, 78, 75
2, 22325, Note_on_c, 0, 78, 0
2, 22376, Note_on_c, 0, 81, 78
2, 22388, Note_on_c, 0, 81, 0
2, 22388, Note_on_c, 0, 79, 78
2, 22400, Note_on_c, 0, 79, 0
2, 22400, Note_on_c, 0, 78, 78
2, 22412, Note_on_c, 0, 78, 0
2, 22412, Note_on_c, 0, 79, 78
2, 22424, Note_on_c, 0, 79, 0
2, 22472, Note_on_c, 0, 83, 78
2, 22484, Note_on_c, 0, 83, 0
2, 22484, Note_on_c, 0, 81, 78
2, 22496, Note_on_c, 0, 81, 0
2, 22496, Note_on_c, 0, 79, 78
2, 22508, Note_on_c, 0, 79, 0
2, 22508, Note_on_c, 0, 81, 78
2, 22520, Note_on_c, 0, 81, 0
2, 22568, Note_on_c, 0, 81, 78
2, 22591, Note_on_c, 0, 81, 0
2, 22592, Note_on_c, 0, 79, 78
2, 22615, Note_on_c, 0, 79, 0
2, 22616, Note_on_c, 0, 78, 78
2, 22639, Note_on_c, 0, 78, 0
2, 22640, Note_on_c, 0, 76, 78
2, 22663, Note_on_c, 0, 76, 0
2, 22664, Note_on_c, 0, 78, 78
2, 22753, Note_on_c, 0, 78, 0
2, 22760, Note_on_c, 0, 79, 78
2, 22772, Note_on_c, 0, 79, 0
2, 22772, Note_on_c, 0, 81, 78
2, 22784, Note_on_c, 0, 81, 0
2, 22784, Note_on_c, 0, 79, 78
2, 22796, Note_on_c, 0, 79, 0
2, 22796, Note_on_c, 0, 81, 78
2, 22808, Note_on_c, 0, 81, 0
2, 22808, Note_on_c, 0, 79, 78
2, 22820, Note_on_c, 0, 79, 0
2, 22820, Note_on_c, 0, 81, 78
2, 22827, Note_on_c, 0, 81, 0
2, 22832, Note_on_c, 0, 78, 78
2, 22844, Note_on_c, 0, 78, 0
2, 22844, Note_on_c, 0, 79, 78
2, 22856, Note_on_c, 0, 79, 0
2, 22856, Note_on_c, 0, 81, 78
2, 22945, Note_on_c, 0, 81, 0
2, 22952, Note_on_c, 0, 81, 78
2, 22975, Note_on_c, 0, 81, 0
2, 22976, Note_on_c, 0, 79, 78
2, 22999, Note_on_c, 0, 79, 0
2, 23000, Note_on_c, 0, 78, 78
2, 23023, Note_on_c, 0, 78, 0
2, 23024, Note_on_c, 0, 76, 78
2, 23047, Note_on_c, 0, 76, 0
2, 23048, Note_on_c, 0, 78, 78
2, 23071, Note_on_c, 0, 78, 0
2, 23072, Note_on_c, 0, 74, 78
2, 23095, Note_on_c, 0, 74, 0
2, 23096, Note_on_c, 0, 79, 78
2, 23119, Note_on_c, 0, 79, 0
2, 23120, Note_on_c, 0, 74, 79
2, 23143, Note_on_c, 0, 74, 0
2, 23144, Note_on_c, 0, 81, 79
2, 23167, Note_on_c, 0, 81, 0
2, 23168, Note_on_c, 0, 74, 80
2, 23191, Note_on_c, 0, 74, 0
2, 23192, Note_on_c, 0, 83, 81
2, 23215, Note_on_c, 0, 83, 0
2, 23216, Note_on_c, 0, 74, 81
2, 23239, Note_on_c, 0, 74, 0
2, 23240, Note_on_c, 0, 73, 82
2, 23250, Note_on_c, 0, 73, 0
2, 23250, Note_on_c, 0, 74, 82
2, 23260, Note_on_c, 0, 74, 0
2, 23260, Note_on_c, 0, 73, 82
2, 23270, Note_on_c, 0, 73, 0
2, 23270, Note_on_c, 0, 71, 82
2, 23279, Note_on_c, 0, 71, 0
2, 23279, Note_on_c, 0, 73, 83
2, 23288, Note_on_c, 0, 73, 0
2, 23288, Note_on_c, 0, 74, 83
2, 23333, Note_on_c, 0, 74, 0
2, 23432, Control_c, 0, 64, 127
2, 23480, Note_on_c, 0, 57, 85
2, 23503, Note_on_c, 0, 57, 0
2, 23504, Note_on_c, 0, 62, 85
2, 23527, Note_on_c, 0, 62, 0
2, 23528, Note_on_c, 0, 66, 85
2, 23551, Note_on_c, 0, 66, 0
2, 23552, Note_on_c, 0, 62, 85
2, 23575, Note_on_c, 0, 62, 0
2, 23576, Note_on_c, 0, 57, 85
2, 23599, Note_on_c, 0, 57, 0
2, 23600, Note_on_c, 0, 62, 85
2, 23623, Note_on_c, 0, 62, 0
2, 23672, Note_on_c, 0, 66, 85
2, 23695, Note_on_c, 0, 66, 0
2, 23696, Control_c, 0, 64, 0
2, 23696, Note_on_c, 0, 69, 85
2, 23719, Note_on_c, 0, 69, 0
2, 23720, Note_on_c, 0, 67, 85
2, 23743, Note_on_c, 0, 67, 0
2, 23744, Note_on_c, 0, 66, 85
2, 23767, Note_on_c, 0, 66, 0
2, 23768, Note_on_c, 0, 64, 85
2, 23791, Note_on_c, 0, 64, 0
2, 23792, Note_on_c, 0, 62, 85
2, 23815, Note_on_c, 0, 62, 0
2, 23816, Control_c, 0, 64, 127
2, 23864, Note_on_c, 0, 69, 85
2, 23887, Note_on_c, 0, 69, 0
2, 23888, Note_on_c, 0, 73, 85
2, 23911, Note_on_c, 0, 73, 0
2, 23912, Note_on_c, 0, 76, 85
2, 23935, Note_on_c, 0, 76, 0
2, 23936, Note_on_c, 0, 73, 85
2, 23959, Note_on_c, 0, 73, 0
2, 23960, Note_on_c, 0, 69, 85
2, 23983, Note_on_c, 0, 69, 0
2, 23984, Note_on_c, 0, 73, 85
2, 24007, Note_on_c, 0, 73, 0
2, 24056, Note_on_c, 0, 67, 85
2, 24079, Note_on_c, 0, 67, 0
2, 24080, Control_c, 0, 64, 0
2, 24080, Note_on_c, 0, 71, 85
2, 24103, Note_on_c, 0, 71, 0
2, 24104, Note_on_c, 0, 69, 85
2, 24127, Note_on_c, 0, 69, 0
2, 24128, Note_on_c, 0, 67, 85
2, 24151, Note_on_c, 0, 67, 0
2, 24152, Note_on_c, 0, 66, 85
2, 24175, Note_on_c, 0, 66, 0
2, 24176, Note_on_c, 0, 64, 85
2, 24199, Note_on_c, 0, 64, 0
2, 24200, Control_c, 0, 64, 127
2, 24200, Note_on_c, 0, 62, 85
2, 24223, Note_on_c, 0, 62, 0
2, 24224, Note_on_c, 0, 66, 85
2, 24247, Note_on_c, 0, 66, 0
2, 24248, Note_on_c, 0, 69, 85
2, 24271, Note_on_c, 0, 69, 0
2, 24272, Note_on_c, 0, 74, 85
2, 24295, Note_on_c, 0, 74, 0
2, 24296, Note_on_c, 0, 78, 85
2, 24319, Note_on_c, 0, 78, 0
2, 24320, Note_on_c, 0, 74, 85
2, 24343, Note_on_c, 0, 74, 0
2, 24344, Note_on_c, 0, 69, 85
2, 24367, Note_on_c, 0, 69, 0
2, 24368, Control_c, 0, 64, 0
2, 24368, Note_on_c, 0, 74, 85
2, 24391, Note_on_c, 0, 74, 0
2, 24392, Control_c, 0, 64, 127
2, 24392, Note_on_c, 0, 64, 86
2, 24415, Note_on_c, 0, 64, 0
2, 24416, Note_on_c, 0, 67, 86
2, 24439, Note_on_c, 0, 67, 0
2, 24440, Note_on_c, 0, 73, 86
2, 24463, Note_on_c, 0, 73, 0
2, 24464, Note_on_c, 0, 76, 86
2, 24487, Note_on_c, 0, 76, 0
2, 24488, Note_on_c, 0, 79, 86
2, 24511, Note_on_c, 0, 79, 0
2, 24512, Note_on_c, 0, 76, 86
2, 24535, Note_on_c, 0, 76, 0
2, 24536, Note_on_c, 0, 73, 86
2, 24559, Note_on_c, 0, 73, 0
2, 24560, Control_c, 0, 64, 0
2, 24560, Note_on_c, 0, 76, 86
2, 24583, Note_on_c, 0, 76, 0
2, 24584, Control_c, 0, 64, 127
2, 24584, Note_on_c, 0, 66, 87
2, 24607, Note_on_c, 0, 66, 0
2, 24608, Note_on_c, 0, 69, 87
2, 24631, Note_on_c, 0, 69, 0
2, 24632, Note_on_c, 0, 74, 87
2, 24655, Note_on_c, 0, 74, 0
2, 24656, Note_on_c, 0, 78, 87
2, 24679, Note_on_c, 0, 78, 0
2, 24680, Note_on_c, 0, 81, 87
2, 24703, Note_on_c, 0, 81, 0
2, 24704, Note_on_c, 0, 78, 87
2, 24727, Note_on_c, 0, 78, 0
2, 24728, Note_on_c, 0, 74, 87
2, 24751, Note_on_c, 0, 74, 0
2, 24752, Control_c, 0, 64, 0
2, 24752, Note_on_c, 0, 78, 87
2, 24775, Note_on_c, 0, 78, 0
2, 24776, Control_c, 0, 64, 127
2, 24776, Note_on_c, 0, 67, 88
2, 24799, Note_on_c, 0, 67, 0
2, 24800, Note_on_c, 0, 71, 88
2, 24823, Note_on_c, 0, 71, 0
2, 24824, Note_on_c, 0, 74, 88
2, 24847, Note_on_c, 0, 74, 0
2, 24848, Note_on_c, 0, 79, 88
2, 24871, Note_on_c, 0, 79, 0
2, 24872, Note_on_c, 0, 83, 88
2, 24895, Note_on_c, 0, 83, 0
2, 24896, Note_on_c, 0, 79, 88
2, 24919, Note_on_c, 0, 79, 0
2, 24920, Note_on_c, 0, 74, 88
2, 24943, Note_on_c, 0, 74, 0
2, 24944, Control_c, 0, 64, 0
2, 24944, Note_on_c, 0, 79, 88
2, 24967, Note_on_c, 0, 79, 0
2, 24968, Control_c, 0, 64, 127
2, 24968, Note_on_c, 0, 68, 89
2, 24991, Note_on_c, 0, 68, 0
2, 24992, Note_on_c, 0, 71, 89
2, 25015, Note_on_c, 0, 71, 0
2, 25016, Note_on_c, 0, 74, 89
2, 25039, Note_on_c, 0, 74, 0
2, 25040, Note_on_c, 0, 77, 89
2, 25063, Note_on_c, 0, 77, 0
2, 25064, Note_on_c, 0, 83, 89
2, 25087, Note_on_c, 0, 83, 0
2, 25088, Note_on_c, 0, 77, 89
2, 25111, Note_on_c, 0, 77, 0
2, 25112, Note_on_c, 0, 74, 89
2, 25135, Note_on_c, 0, 74, 0
2, 25136, Note_on_c, 0, 77, 89
2, 25159, Note_on_c, 0, 77, 0
2, 25160, Note_on_c, 0, 68, 90
2, 25183, Note_on_c, 0, 68, 0
2, 25184, Note_on_c, 0, 71, 90
2, 25207, Note_on_c, 0, 71, 0
2, 25208, Note_on_c, 0, 74, 90
2, 25231, Note_on_c, 0, 74, 0
2, 25232, Note_on_c, 0, 77, 90
2, 25255, Note_on_c, 0, 77, 0
2, 25256, Note_on_c, 0, 83, 90
2, 25279, Note_on_c, 0, 83, 0
2, 25280, Control_c, 0, 64, 0
2, 25280, Note_on_c, 0, 77, 90
2, 25303, Note_on_c, 0, 77, 0
2, 25304, Note_on_c, 0, 76, 90
2, 25327, Note_on_c, 0, 76, 0
2, 25328, Note_on_c, 0, 74, 90
2, 25351, Note_on_c, 0, 74, 0
2, 25352, Note_on_c, 0, 73, 91
2, 25375, Note_on_c, 0, 73, 0
2, 25376, Note_on_c, 0, 69, 91
2, 25399, Note_on_c, 0, 69, 0
2, 25400, Note_on_c, 0, 74, 91
2, 25423, Note_on_c, 0, 74, 0
2, 25424, Note_on_c, 0, 69, 91
2, 25447, Note_on_c, 0, 69, 0
2, 25448, Note_on_c, 0, 76, 91
2, 25471, Note_on_c, 0, 76, 0
2, 25472, Note_on_c, 0, 69, 91
2, 25495, Note_on_c, 0, 69, 0
2, 25496, Note_on_c, 0, 78, 91
2, 25519, Note_on_c, 0, 78, 0
2, 25520, Note_on_c, 0, 69, 91
2, 25543, Note_on_c, 0, 69, 0
2, 25544, Note_on_c, 0, 79, 91
2, 25567, Note_on_c, 0, 79, 0
2, 25568, Note_on_c, 0, 78, 91
2, 25591, Note_on_c, 0, 78, 0
2, 25592, Note_on_c, 0, 76, 91
2, 25615, Note_on_c, 0, 76, 0
2, 25616, Note_on_c, 0, 74, 91
2, 25639, Note_on_c, 0, 74, 0
2, 25640, Note_on_c, 0, 73, 91
2, 25663, Note_on_c, 0, 73, 0
2, 25664, Note_on_c, 0, 71, 91
2, 25687, Note_on_c, 0, 71, 0
2, 25688, Note_on_c, 0, 69, 91
2, 25711, Note_on_c, 0, 69, 0
2, 25712, Note_on_c, 0, 67, 91
2, 25735, Note_on_c, 0, 67, 0
2, 25736, Note_on_c, 0, 66, 91
2, 25759, Note_on_c, 0, 66, 0
2, 25760, Note_on_c, 0, 62, 91
2, 25783, Note_on_c, 0, 62, 0
2, 25784, Note_on_c, 0, 67, 91
2, 25807, Note_on_c, 0, 67, 0
2, 25808, Note_on_c, 0, 62, 91
2, 25831, Note_on_c, 0, 62, 0
2, 25832, Note_on_c, 0, 69, 91
2, 25855, Note_on_c, 0, 69, 0
2, 25856, Note_on_c, 0, 62, 91
2, 25879, Note_on_c, 0, 62, 0
2, 25880, Note_on_c, 0, 71, 91
2, 25903, Note_on_c, 0, 71, 0
2, 25904, Note_on_c, 0, 62, 91
2, 25927, Note_on_c, 0, 62, 0
2, 25928, Note_on_c, 0, 69, 91
2, 25951, Note_on_c, 0, 69, 0
2, 25952, Note_on_c, 0, 62, 90
2, 25975, Note_on_c, 0, 62, 0
2, 25976, Note_on_c, 0, 71, 89
2, 25999, Note_on_c, 0, 71, 0
2, 26000, Note_on_c, 0, 62, 88
2, 26023, Note_on_c, 0, 62, 0
2, 26024, Note_on_c, 0, 69, 88
2, 26047, Note_on_c, 0, 69, 0
2, 26048, Note_on_c, 0, 62, 87
2, 26071, Note_on_c, 0, 62, 0
2, 26072, Note_on_c, 0, 67, 86
2, 26095, Note_on_c, 0, 67, 0
2, 26096, Note_on_c, 0, 62, 85
2, 26119, Note_on_c, 0, 62, 0
2, 26120, Note_on_c, 0, 66, 85
2, 26143, Note_on_c, 0, 66, 0
2, 26144, Note_on_c, 0, 62, 85
2, 26167, Note_on_c, 0, 62, 0
2, 26168, Note_on_c, 0, 67, 85
2, 26191, Note_on_c, 0, 67, 0
2, 26192, Note_on_c, 0, 62, 85
2, 26215, Note_on_c, 0, 62, 0
2, 26216, Note_on_c, 0, 69, 85
2, 26239, Note_on_c, 0, 69, 0
2, 26240, Note_on_c, 0, 62, 85
2, 26263, Note_on_c, 0, 62, 0
2, 26264, Note_on_c, 0, 71, 85
2, 26287, Note_on_c, 0, 71, 0
2, 26288, Note_on_c, 0, 62, 85
2, 26311, Note_on_c, 0, 62, 0
2, 26312, Note_on_c, 0, 69, 85
2, 26335, Note_on_c, 0, 69, 0
2, 26336, Note_on_c, 0, 62, 85
2, 26359, Note_on_c, 0, 62, 0
2, 26360, Note_on_c, 0, 71, 85
2, 26383, Note_on_c, 0, 71, 0
2, 26384, Note_on_c, 0, 62, 85
2, 26407, Note_on_c, 0, 62, 0
2, 26408, Note_on_c, 0, 69, 85
2, 26453, Note_on_c, 0, 69, 0
2, 26456, Note_on_c, 0, 74, 101
2, 26476, Note_on_c, 0, 74, 0
2, 26504, Note_on_c, 0, 64, 78
2, 26637, Note_on_c, 0, 64, 0
2, 26648, Note_on_c, 0, 67, 78
2, 26660, Note_on_c, 0, 67, 0
2, 26660, Note_on_c, 0, 69, 78
2, 26672, Note_on_c, 0, 69, 0
2, 26672, Note_on_c, 0, 71, 78
2, 26695, Note_on_c, 0, 71, 0
2, 26696, Note_on_c, 0, 62, 78
2, 26829, Note_on_c, 0, 62, 0
2, 26840, Note_on_c, 0, 66, 78
2, 26852, Note_on_c, 0, 66, 0
2, 26852, Note_on_c, 0, 64, 78
2, 26864, Note_on_c, 0, 64, 0
2, 26864, Note_on_c, 0, 62, 78
2, 26876, Note_on_c, 0, 62, 0
2, 26876, Note_on_c, 0, 61, 78
2, 26888, Note_on_c, 0, 61, 0
2, 26888, Note_on_c, 0, 62, 78
2, 26933, Note_on_c, 0, 62, 0
2, 26936, Note_on_c, 0, 74, 78
2, 26951, Note_on_c, 0, 74, 0
2, 26952, Note_on_c, 0, 73, 78
2, 26967, Note_on_c, 0, 73, 0
2, 26968, Note_on_c, 0, 71, 78
2, 26983, Note_on_c, 0, 71, 0
2, 26984, Note_on_c, 0, 69, 78
2, 27029, Note_on_c, 0, 69, 0
2, 27032, Note_on_c, 0, 69, 78
2, 27077, Note_on_c, 0, 69, 0
2, 27080, Note_on_c, 0, 69, 78
2, 27095, Note_on_c, 0, 69, 0
2, 27096, Note_on_c, 0, 71, 78
2, 27111, Note_on_c, 0, 71, 0
2, 27112, Note_on_c, 0, 73, 78
2, 27127, Note_on_c, 0, 73, 0
2, 27128, Note_on_c, 0, 74, 78
2, 27143, Note_on_c, 0, 74, 0
2, 27144, Note_on_c, 0, 73, 78
2, 27159, Note_on_c, 0, 73, 0
2, 27160, Note_on_c, 0, 71, 78
2, 27175, Note_on_c, 0, 71, 0
2, 27176, Note_on_c, 0, 69, 78
2, 27221, Note_on_c, 0, 69, 0
2, 27224, Note_on_c, 0, 69, 78
2, 27269, Note_on_c, 0, 69, 0
2, 27272, Note_on_c, 0, 69, 78
2, 27287, Note_on_c, 0, 69, 0
2, 27288, Note_on_c, 0, 71, 78
2, 27303, Note_on_c, 0, 71, 0
2, 27304, Note_on_c, 0, 73, 78
2, 27319, Note_on_c, 0, 73, 0
2, 27320, Note_on_c, 0, 74, 78
2, 27335, Note_on_c, 0, 74, 0
2, 27336, Note_on_c, 0, 73, 78
2, 27351, Note_on_c, 0, 73, 0
2, 27352, Note_on_c, 0, 71, 78
2, 27367, Note_on_c, 0, 71, 0
2, 27368, Note_on_c, 0, 69, 78
2, 27413, Note_on_c, 0, 69, 0
2, 27416, Note_on_c, 0, 70, 78
2, 27461, Note_on_c, 0, 70, 0
2, 27464, Note_on_c, 0, 71, 78
2, 27509, Note_on_c, 0, 71, 0
2, 27512, Note_on_c, 0, 63, 78
2, 27535, Note_on_c, 0, 63, 0
2, 27536, Note_on_c, 0, 64, 78
2, 27559, Note_on_c, 0, 64, 0
2, 27560, Note_on_c, 0, 66, 78
2, 27583, Note_on_c, 0, 66, 0
2, 27584, Note_on_c, 0, 67, 78
2, 27607, Note_on_c, 0, 67, 0
2, 27608, Note_on_c, 0, 69, 78
2, 27631, Note_on_c, 0, 69, 0
2, 27632, Note_on_c, 0, 71, 78
2, 27655, Note_on_c, 0, 71, 0
2, 27656, Note_on_c, 0, 69, 94
2, 27704, Note_on_c, 0, 69, 0
2, 27704, Note_on_c, 0, 67, 78
2, 27716, Note_on_c, 0, 67, 0
2, 27716, Note_on_c, 0, 66, 78
2, 27728, Note_on_c, 0, 66, 0
2, 27728, Note_on_c, 0, 64, 78
2, 27740, Note_on_c, 0, 64, 0
2, 27740, Note_on_c, 0, 62, 78
2, 27752, Note_on_c, 0, 62, 0
2, 27752, Note_on_c, 0, 64, 78
2, 27763, Note_on_c, 0, 64, 0
2, 27763, Note_on_c, 0, 66, 78
2, 27774, Note_on_c, 0, 66, 0
2, 27774, Note_on_c, 0, 64, 78
2, 27785, Note_on_c, 0, 64, 0
2, 27785, Note_on_c, 0, 66, 78
2, 27796, Note_on_c, 0, 66, 0
2, 27796, Note_on_c, 0, 64, 78
2, 27807, Note_on_c, 0, 64, 0
2, 27807, Note_on_c, 0, 66, 78
2, 27818, Note_on_c, 0, 66, 0
2, 27818, Note_on_c, 0, 64, 78
2, 27828, Note_on_c, 0, 64, 0
2, 27828, Note_on_c, 0, 62, 78
2, 27838, Note_on_c, 0, 62, 0
2, 27838, Note_on_c, 0, 64, 78
2, 27848, Note_on_c, 0, 64, 0
2, 27848, Note_on_c, 0, 62, 78
2, 27893, Note_on_c, 0, 62, 0
2, 27896, Note_on_c, 0, 86, 78
2, 27911, Note_on_c, 0, 86, 0
2, 27912, Note_on_c, 0, 85, 78
2, 27927, Note_on_c, 0, 85, 0
2, 27928, Note_on_c, 0, 83, 78
2, 27943, Note_on_c, 0, 83, 0
2, 27944, Note_on_c, 0, 81, 78
2, 27989, Note_on_c, 0, 81, 0
2, 27992, Note_on_c, 0, 81, 78
2, 28037, Note_on_c, 0, 81, 0
2, 28040, Note_on_c, 0, 81, 78
2, 28055, Note_on_c, 0, 81, 0
2, 28056, Note_on_c, 0, 83, 78
2, 28071, Note_on_c, 0, 83, 0
2, 28072, Note_on_c, 0, 85, 78
2, 28087, Note_on_c, 0, 85, 0
2, 28088, Note_on_c, 0, 86, 78
2, 28103, Note_on_c, 0, 86, 0
2, 28104, Note_on_c, 0, 85, 78
2, 28119, Note_on_c, 0, 85, 0
2, 28120, Note_on_c, 0, 83, 78
2, 28135, Note_on_c, 0, 83, 0
2, 28136, Note_on_c, 0, 81, 78
2, 28181, Note_on_c, 0, 81, 0
2, 28184, Note_on_c, 0, 81, 78
2, 28229, Note_on_c, 0, 81, 0
2, 28232, Note_on_c, 0, 81, 78
2, 28247, Note_on_c, 0, 81, 0
2, 28248, Note_on_c, 0, 83, 78
2, 28263, Note_on_c, 0, 83, 0
2, 28264, Note_on_c, 0, 85, 78
2, 28279, Note_on_c, 0, 85, 0
2, 28280, Note_on_c, 0, 86, 78
2, 28295, Note_on_c, 0, 86, 0
2, 28296, Note_on_c, 0, 85, 78
2, 28311, Note_on_c, 0, 85, 0
2, 28312, Note_on_c, 0, 83, 78
2, 28327, Note_on_c, 0, 83, 0
2, 28328, Note_on_c, 0, 81, 78
2, 28373, Note_on_c, 0, 81, 0
2, 28376, Note_on_c, 0, 82, 78
2, 28421, Note_on_c, 0, 82, 0
2, 28424, Note_on_c, 0, 83, 78
2, 28469, Note_on_c, 0, 83, 0
2, 28472, Note_on_c, 0, 75, 78
2, 28495, Note_on_c, 0, 75, 0
2, 28496, Note_on_c, 0, 76, 78
2, 28519, Note_on_c, 0, 76, 0
2, 28520, Note_on_c, 0, 78, 78
2, 28543, Note_on_c, 0, 78, 0
2, 28544, Note_on_c, 0, 79, 78
2, 28567, Note_on_c, 0, 79, 0
2, 28568, Note_on_c, 0, 81, 78
2, 28591, Note_on_c, 0, 81, 0
2, 28592, Note_on_c, 0, 83, 78
2, 28615, Note_on_c, 0, 83, 0
2, 28616, Note_on_c, 0, 81, 94
2, 28664, Note_on_c, 0, 81, 0
2, 28664, Note_on_c, 0, 79, 78
2, 28676, Note_on_c, 0, 79, 0
2, 28676, Note_on_c, 0, 78, 78
2, 28688, Note_on_c, 0, 78, 0
2, 28688, Note_on_c, 0, 76, 78
2, 28700, Note_on_c, 0, 76, 0
2, 28700, Note_on_c, 0, 74, 78
2, 28712, Note_on_c, 0, 74, 0
2, 28712, Note_on_c, 0, 76, 78
2, 28723, Note_on_c, 0, 76, 0
2, 28723, Note_on_c, 0, 78, 78
2, 28734, Note_on_c, 0, 78, 0
2, 28734, Note_on_c, 0, 76, 78
2, 28745, Note_on_c, 0, 76, 0
2, 28745, Note_on_c, 0, 78, 78
2, 28756, Note_on_c, 0, 78, 0
2, 28756, Note_on_c, 0, 76, 78
2, 28767, Note_on_c, 0, 76, 0
2, 28767, Note_on_c, 0, 78, 78
2, 28778, Note_on_c, 0, 78, 0
2, 28778, Note_on_c, 0, 76, 78
2, 28788, Note_on_c, 0, 76, 0
2, 28788, Note_on_c, 0, 74, 78
2, 28798, Note_on_c, 0, 74, 0
2, 28798, Note_on_c, 0, 76, 78
2, 28808, Note_on_c, 0, 76, 0
2, 28808, Note_on_c, 0, 74, 78
2, 28853, Note_on_c, 0, 74, 0
2, 28856, Note_on_c, 0, 69, 78
2, 28879, Note_on_c, 0, 69, 0
2, 28880, Note_on_c, 0, 74, 78
2, 28903, Note_on_c, 0, 74, 0
2, 28904, Note_on_c, 0, 66, 78
2, 28927, Note_on_c, 0, 66, 0
2, 28928, Note_on_c, 0, 69, 78
2, 28951, Note_on_c, 0, 69, 0
2, 28952, Note_on_c, 0, 62, 78
2, 28975, Note_on_c, 0, 62, 0
2, 28976, Note_on_c, 0, 66, 78
2, 28999, Note_on_c, 0, 66, 0
2, 29192, Note_on_c, 0, 78, 78
2, 29204, Note_on_c, 0, 78, 0
2, 29204, Note_on_c, 0, 76, 78
2, 29216, Note_on_c, 0, 76, 0
2, 29216, Note_on_c, 0, 75, 78
2, 29228, Note_on_c, 0, 75, 0
2, 29228, Note_on_c, 0, 76, 78
2, 29325, Note_on_c, 0, 76, 0
2, 29336, Note_on_c, 0, 81, 78
2, 29359, Note_on_c, 0, 81, 0
2, 29360, Note_on_c, 0, 76, 78
2, 29383, Note_on_c, 0, 76, 0
2, 29384, Note_on_c, 0, 73, 78
2, 29517, Note_on_c, 0, 73, 0
2, 29528, Note_on_c, 0, 76, 78
2, 29551, Note_on_c, 0, 76, 0
2, 29552, Note_on_c, 0, 73, 78
2, 29575, Note_on_c, 0, 73, 0
2, 29576, Note_on_c, 0, 78, 78
2, 29709, Note_on_c, 0, 78, 0
2, 29720, Note_on_c, 0, 74, 78
2, 29743, Note_on_c, 0, 74, 0
2, 29744, Note_on_c, 0, 71, 78
2, 29767, Note_on_c, 0, 71, 0
2, 29768, Note_on_c, 0, 69, 63
2, 29811, Note_on_c, 0, 69, 0
2, 29814, Note_on_c, 0, 68, 67
2, 29826, Note_on_c, 0, 68, 0
2, 29826, Note_on_c, 0, 69, 68
2, 29838, Note_on_c, 0, 69, 0
2, 29838, Note_on_c, 0, 68, 69
2, 29850, Note_on_c, 0, 68, 0
2, 29850, Note_on_c, 0, 69, 69
2, 29862, Note_on_c, 0, 69, 0
2, 29862, Note_on_c, 0, 68, 70
2, 29873, Note_on_c, 0, 68, 0
2, 29873, Note_on_c, 0, 69, 71
2, 29884, Note_on_c, 0, 69, 0
2, 29884, Note_on_c, 0, 68, 71
2, 29895, Note_on_c, 0, 68, 0
2, 29895, Note_on_c, 0, 69, 72
2, 29906, Note_on_c, 0, 69, 0
2, 29906, Note_on_c, 0, 68, 73
2, 29917, Note_on_c, 0, 68, 0
2, 29917, Note_on_c, 0, 69, 74
2, 29928, Note_on_c, 0, 69, 0
2, 29928, Note_on_c, 0, 68, 74
2, 29939, Note_on_c, 0, 68, 0
2, 29939, Note_on_c, 0, 66, 75
2, 29950, Note_on_c, 0, 66, 0
2, 29950, Note_on_c, 0, 68, 76
2, 29961, Note_on_c, 0, 68, 0
2, 29961, Note_on_c, 0, 69, 78
2, 30006, Note_on_c, 0, 69, 0
2, 30009, Note_on_c, 0, 69, 79
2, 30032, Note_on_c, 0, 69, 0
2, 30033, Note_on_c, 0, 71, 80
2, 30056, Note_on_c, 0, 71, 0
2, 30057, Note_on_c, 0, 73, 81
2, 30080, Note_on_c, 0, 73, 0
2, 30081, Note_on_c, 0, 74, 82
2, 30104, Note_on_c, 0, 74, 0
2, 30105, Note_on_c, 0, 76, 83
2, 30128, Note_on_c, 0, 76, 0
2, 30129, Note_on_c, 0, 78, 84
2, 30152, Note_on_c, 0, 78, 0
2, 30153, Note_on_c, 0, 79, 85
2, 30176, Note_on_c, 0, 79, 0
2, 30177, Note_on_c, 0, 78, 84
2, 30200, Note_on_c, 0, 78, 0
2, 30201, Note_on_c, 0, 76, 83
2, 30224, Note_on_c, 0, 76, 0
2, 30225, Note_on_c, 0, 74, 82
2, 30248, Note_on_c, 0, 74, 0
2, 30249, Note_on_c, 0, 73, 81
2, 30272, Note_on_c, 0, 73, 0
2, 30273, Note_on_c, 0, 71, 80
2, 30296, Note_on_c, 0, 71, 0
2, 30297, Note_on_c, 0, 69, 79
2, 30320, Note_on_c, 0, 69, 0
2, 30321, Note_on_c, 0, 67, 78
2, 30344, Note_on_c, 0, 67, 0
2, 30345, Control_c, 0, 64, 127
2, 30345, Note_on_c, 0, 66, 78
2, 30368, Note_on_c, 0, 66, 0
2, 30369, Note_on_c, 0, 69, 78
2, 30392, Note_on_c, 0, 69, 0
2, 30393, Note_on_c, 0, 74, 78
2, 30416, Note_on_c, 0, 74, 0
2, 30417, Note_on_c, 0, 78, 78
2, 30440, Note_on_c, 0, 78, 0
2, 30441, Note_on_c, 0, 81, 78
2, 30464, Note_on_c, 0, 81, 0
2, 30465, Note_on_c, 0, 78, 78
2, 30488, Note_on_c, 0, 78, 0
2, 30489, Note_on_c, 0, 74, 78
2, 30512, Note_on_c, 0, 74, 0
2, 30513, Note_on_c, 0, 78, 79
2, 30536, Note_on_c, 0, 78, 0
2, 30537, Note_on_c, 0, 66, 79
2, 30560, Note_on_c, 0, 66, 0
2, 30561, Note_on_c, 0, 69, 79
2, 30584, Note_on_c, 0, 69, 0
2, 30585, Note_on_c, 0, 74, 79
2, 30608, Note_on_c, 0, 74, 0
2, 30609, Note_on_c, 0, 78, 79
2, 30632, Note_on_c, 0, 78, 0
2, 30633, Note_on_c, 0, 81, 79
2, 30656, Note_on_c, 0, 81, 0
2, 30657, Note_on_c, 0, 78, 79
2, 30680, Note_on_c, 0, 78, 0
2, 30681, Note_on_c, 0, 74, 80
2, 30704, Note_on_c, 0, 74, 0
2, 30705, Control_c, 0, 64, 0
2, 30705, Note_on_c, 0, 78, 80
2, 30728, Note_on_c, 0, 78, 0
2, 30729, Control_c, 0, 64, 127
2, 30729, Note_on_c, 0, 65, 80
2, 30752, Note_on_c, 0, 65, 0
2, 30753, Note_on_c, 0, 69, 80
2, 30776, Note_on_c, 0, 69, 0
2, 30777, Note_on_c, 0, 74, 80
2, 30800, Note_on_c, 0, 74, 0
2, 30801, Note_on_c, 0, 77, 80
2, 30824, Note_on_c, 0, 77, 0
2, 30825, Note_on_c, 0, 81, 80
2, 30848, Note_on_c, 0, 81, 0
2, 30849, Note_on_c, 0, 77, 81
2, 30872, Note_on_c, 0, 77, 0
2, 30873, Note_on_c, 0, 74, 81
2, 30896, Note_on_c, 0, 74, 0
2, 30897, Note_on_c, 0, 77, 81
2, 30920, Note_on_c, 0, 77, 0
2, 30921, Note_on_c, 0, 65, 81
2, 30944, Note_on_c, 0, 65, 0
2, 30945, Note_on_c, 0, 69, 81
2, 30968, Note_on_c, 0, 69, 0
2, 30969, Note_on_c, 0, 74, 81
2, 30992, Note_on_c, 0, 74, 0
2, 30993, Note_on_c, 0, 77, 81
2, 31016, Note_on_c, 0, 77, 0
2, 31017, Note_on_c, 0, 81, 82
2, 31040, Note_on_c, 0, 81, 0
2, 31041, Note_on_c, 0, 77, 82
2, 31064, Note_on_c, 0, 77, 0
2, 31065, Note_on_c, 0, 74, 82
2, 31088, Note_on_c, 0, 74, 0
2, 31089, Control_c, 0, 64, 0
2, 31089, Note_on_c, 0, 77, 82
2, 31112, Note_on_c, 0, 77, 0
2, 31113, Control_c, 0, 64, 127
2, 31113, Note_on_c, 0, 64, 82
2, 31136, Note_on_c, 0, 64, 0
2, 31137, Note_on_c, 0, 71, 82
2, 31160, Note_on_c, 0, 71, 0
2, 31161, Note_on_c, 0, 74, 83
2, 31184, Note_on_c, 0, 74, 0
2, 31185, Note_on_c, 0, 76, 83
2, 31208, Note_on_c, 0, 76, 0
2, 31209, Note_on_c, 0, 80, 83
2, 31232, Note_on_c, 0, 80, 0
2, 31233, Note_on_c, 0, 76, 83
2, 31256, Note_on_c, 0, 76, 0
2, 31257, Note_on_c, 0, 74, 83
2, 31280, Note_on_c, 0, 74, 0
2, 31281, Note_on_c, 0, 76, 83
2, 31304, Note_on_c, 0, 76, 0
2, 31305, Note_on_c, 0, 64, 83
2, 31328, Note_on_c, 0, 64, 0
2, 31329, Note_on_c, 0, 71, 84
2, 31352, Note_on_c, 0, 71, 0
2, 31353, Note_on_c, 0, 74, 84
2, 31376, Note_on_c, 0, 74, 0
2, 31377, Note_on_c, 0, 80, 84
2, 31400, Note_on_c, 0, 80, 0
2, 31401, Note_on_c, 0, 83, 84
2, 31424, Note_on_c, 0, 83, 0
2, 31425, Note_on_c, 0, 80, 84
2, 31448, Note_on_c, 0, 80, 0
2, 31449, Note_on_c, 0, 74, 84
2, 31472, Note_on_c, 0, 74, 0
2, 31473, Control_c, 0, 64, 0
2, 31473, Note_on_c, 0, 80, 84
2, 31496, Note_on_c, 0, 80, 0
2, 31497, Control_c, 0, 64, 127
2, 31497, Note_on_c, 0, 65, 85
2, 31520, Note_on_c, 0, 65, 0
2, 31521, Note_on_c, 0, 71, 85
2, 31544, Note_on_c, 0, 71, 0
2, 31545, Note_on_c, 0, 74, 85
2, 31568, Note_on_c, 0, 74, 0
2, 31569, Note_on_c, 0, 80, 85
2, 31592, Note_on_c, 0, 80, 0
2, 31593, Note_on_c, 0, 83, 85
2, 31616, Note_on_c, 0, 83, 0
2, 31617, Note_on_c, 0, 80, 85
2, 31640, Note_on_c, 0, 80, 0
2, 31641, Note_on_c, 0, 74, 85
2, 31664, Note_on_c, 0, 74, 0
2, 31665, Note_on_c, 0, 80, 86
2, 31688, Note_on_c, 0, 80, 0
2, 31689, Note_on_c, 0, 65, 86
2, 31712, Note_on_c, 0, 65, 0
2, 31713, Note_on_c, 0, 71, 86
2, 31736, Note_on_c, 0, 71, 0
2, 31737, Note_on_c, 0, 74, 86
2, 31760, Note_on_c, 0, 74, 0
2, 31761, Note_on_c, 0, 80, 86
2, 31784, Note_on_c, 0, 80, 0
2, 31785, Note_on_c, 0, 83, 86
2, 31808, Note_on_c, 0, 83, 0
2, 31809, Note_on_c, 0, 80, 87
2, 31832, Note_on_c, 0, 80, 0
2, 31833, Note_on_c, 0, 74, 87
2, 31856, Note_on_c, 0, 74, 0
2, 31857, Control_c, 0, 64, 0
2, 31857, Note_on_c, 0, 80, 87
2, 31880, Note_on_c, 0, 80, 0
2, 31881, Control_c, 0, 64, 127
2, 31881, Note_on_c, 0, 66, 87
2, 31904, Note_on_c, 0, 66, 0
2, 31905, Note_on_c, 0, 71, 87
2, 31928, Note_on_c, 0, 71, 0
2, 31929, Note_on_c, 0, 74, 87
2, 31952, Note_on_c, 0, 74, 0
2, 31953, Note_on_c, 0, 78, 87
2, 31976, Note_on_c, 0, 78, 0
2, 31977, Note_on_c, 0, 83, 88
2, 32000, Note_on_c, 0, 83, 0
2, 32001, Note_on_c, 0, 78, 88
2, 32024, Note_on_c, 0, 78, 0
2, 32025, Note_on_c, 0, 74, 88
2, 32048, Note_on_c, 0, 74, 0
2, 32049, Note_on_c, 0, 78, 88
2, 32072, Note_on_c, 0, 78, 0
2, 32073, Note_on_c, 0, 66, 88
2, 32096, Note_on_c, 0, 66, 0
2, 32097, Note_on_c, 0, 71, 88
2, 32120, Note_on_c, 0, 71, 0
2, 32121, Note_on_c, 0, 74, 88
2, 32144, Note_on_c, 0, 74, 0
2, 32145, Note_on_c, 0, 78, 89
2, 32168, Note_on_c, 0, 78, 0
2, 32169, Note_on_c, 0, 83, 89
2, 32192, Note_on_c, 0, 83, 0
2, 32193, Note_on_c, 0, 78, 89
2, 32216, Note_on_c, 0, 78, 0
2, 32217, Note_on_c, 0, 74, 89
2, 32240, Note_on_c, 0, 74, 0
2, 32241, Control_c, 0, 64, 0
2, 32241, Note_on_c, 0, 78, 89
2, 32264, Note_on_c, 0, 78, 0
2, 32265, Control_c, 0, 64, 127
2, 32265, Note_on_c, 0, 66, 89
2, 32288, Note_on_c, 0, 66, 0
2, 32289, Note_on_c, 0, 70, 89
2, 32312, Note_on_c, 0, 70, 0
2, 32313, Note_on_c, 0, 73, 90
2, 32336, Note_on_c, 0, 73, 0
2, 32337, Note_on_c, 0, 78, 90
2, 32360, Note_on_c, 0, 78, 0
2, 32361, Note_on_c, 0, 82, 90
2, 32384, Note_on_c, 0, 82, 0
2, 32385, Note_on_c, 0, 78, 90
2, 32408, Note_on_c, 0, 78, 0
2, 32409, Note_on_c, 0, 73, 90
2, 32432, Note_on_c, 0, 73, 0
2, 32433, Note_on_c, 0, 78, 90
2, 32456, Note_on_c, 0, 78, 0
2, 32649, Control_c, 0, 64, 0
2, 32649, Note_on_c, 0, 67, 63
2, 32661, Note_on_c, 0, 67, 0
2, 32661, Note_on_c, 0, 66, 63
2, 32673, Note_on_c, 0, 66, 0
2, 32673, Note_on_c, 0, 64, 63
2, 32685, Note_on_c, 0, 64, 0
2, 32685, Note_on_c, 0, 66, 63
2, 32782, Note_on_c, 0, 66, 0
2, 32793, Note_on_c, 0, 74, 63
2, 32816, Note_on_c, 0, 74, 0
2, 32817, Note_on_c, 0, 71, 63
2, 32840, Note_on_c, 0, 71, 0
2, 32841, Note_on_c, 0, 66, 63
2, 32974, Note_on_c, 0, 66, 0
2, 32985, Note_on_c, 0, 71, 63
2, 33008, Note_on_c, 0, 71, 0
2, 33009, Note_on_c, 0, 66, 63
2, 33032, Note_on_c, 0, 66, 0
2, 33033, Note_on_c, 0, 69, 63
2, 33056, Note_on_c, 0, 69, 0
2, 33057, Note_on_c, 0, 67, 63
2, 33069, Note_on_c, 0, 67, 0
2, 33069, Note_on_c, 0, 69, 63
2, 33081, Note_on_c, 0, 69, 0
2, 33081, Note_on_c, 0, 67, 63
2, 33093, Note_on_c, 0, 67, 0
2, 33093, Note_on_c, 0, 69, 64
2, 33105, Note_on_c, 0, 69, 0
2, 33105, Note_on_c, 0, 67, 64
2, 33117, Note_on_c, 0, 67, 0
2, 33117, Note_on_c, 0, 69, 64
2, 33129, Note_on_c, 0, 69, 0
2, 33129, Note_on_c, 0, 67, 64
2, 33141, Note_on_c, 0, 67, 0
2, 33141, Note_on_c, 0, 69, 65
2, 33153, Note_on_c, 0, 69, 0
2, 33153, Note_on_c, 0, 67, 65
2, 33165, Note_on_c, 0, 67, 0
2, 33165, Note_on_c, 0, 69, 65
2, 33177, Note_on_c, 0, 69, 0
2, 33177, Note_on_c, 0, 76, 65
2, 33200, Note_on_c, 0, 76, 0
2, 33201, Note_on_c, 0, 73, 66
2, 33224, Note_on_c, 0, 73, 0
2, 33225, Note_on_c, 0, 70, 66
2, 33358, Note_on_c, 0, 70, 0
2, 33369, Note_on_c, 0, 73, 69
2, 33392, Note_on_c, 0, 73, 0
2, 33393, Note_on_c, 0, 70, 69
2, 33416, Note_on_c, 0, 70, 0
2, 33417, Note_on_c, 0, 73, 70
2, 33429, Note_on_c, 0, 73, 0
2, 33429, Note_on_c, 0, 71, 70
2, 33441, Note_on_c, 0, 71, 0
2, 33441, Note_on_c, 0, 70, 70
2, 33453, Note_on_c, 0, 70, 0
2, 33453, Note_on_c, 0, 71, 70
2, 33550, Note_on_c, 0, 71, 0
2, 33561, Note_on_c, 0, 83, 72
2, 33584, Note_on_c, 0, 83, 0
2, 33585, Note_on_c, 0, 78, 73
2, 33608, Note_on_c, 0, 78, 0
2, 33609, Note_on_c, 0, 75, 73
2, 33742, Note_on_c, 0, 75, 0
2, 33753, Note_on_c, 0, 78, 76
2, 33776, Note_on_c, 0, 78, 0
2, 33777, Note_on_c, 0, 75, 76
2, 33800, Note_on_c, 0, 75, 0
2, 33801, Note_on_c, 0, 78, 77
2, 33813, Note_on_c, 0, 78, 0
2, 33813, Note_on_c, 0, 76, 77
2, 33825, Note_on_c, 0, 76, 0
2, 33825, Note_on_c, 0, 75, 77
2, 33837, Note_on_c, 0, 75, 0
2, 33837, Note_on_c, 0, 76, 77
2, 33934, Note_on_c, 0, 76, 0
2, 33945, Note_on_c, 0, 83, 80
2, 33968, Note_on_c, 0, 83, 0
2, 33969, Note_on_c, 0, 74, 80
2, 33992, Note_on_c, 0, 74, 0
2, 33993, Note_on_c, 0, 73, 80
2, 34126, Note_on_c, 0, 73, 0
2, 34137, Note_on_c, 0, 76, 83
2, 34160, Note_on_c, 0, 76, 0
2, 34161, Note_on_c, 0, 73, 84
2, 34184, Note_on_c, 0, 73, 0
2, 34185, Note_on_c, 0, 74, 84
2, 34208, Note_on_c, 0, 74, 0
2, 34209, Note_on_c, 0, 69, 85
2, 34232, Note_on_c, 0, 69, 0
2, 34233, Note_on_c, 0, 81, 85
2, 34256, Note_on_c, 0, 81, 0
2, 34257, Note_on_c, 0, 69, 85
2, 34280, Note_on_c, 0, 69, 0
2, 34281, Note_on_c, 0, 79, 85
2, 34304, Note_on_c, 0, 79, 0
2, 34305, Note_on_c, 0, 69, 85
2, 34328, Note_on_c, 0, 69, 0
2, 34329, Note_on_c, 0, 78, 85
2, 34352, Note_on_c, 0, 78, 0
2, 34353, Note_on_c, 0, 69, 85
2, 34376, Note_on_c, 0, 69, 0
2, 34377, Note_on_c, 0, 76, 85
2, 34400, Note_on_c, 0, 76, 0
2, 34401, Note_on_c, 0, 69, 85
2, 34424, Note_on_c, 0, 69, 0
2, 34425, Note_on_c, 0, 78, 85
2, 34448, Note_on_c, 0, 78, 0
2, 34449, Note_on_c, 0, 69, 85
2, 34472, Note_on_c, 0, 69, 0
2, 34473, Note_on_c, 0, 76, 85
2, 34496, Note_on_c, 0, 76, 0
2, 34497, Note_on_c, 0, 69, 85
2, 34520, Note_on_c, 0, 69, 0
2, 34521, Note_on_c, 0, 74, 85
2, 34544, Note_on_c, 0, 74, 0
2, 34545, Note_on_c, 0, 69, 85
2, 34568, Note_on_c, 0, 69, 0
2, 34569, Note_on_c, 0, 73, 85
2, 34592, Note_on_c, 0, 73, 0
2, 34593, Note_on_c, 0, 69, 85
2, 34616, Note_on_c, 0, 69, 0
2, 34617, Note_on_c, 0, 78, 85
2, 34640, Note_on_c, 0, 78, 0
2, 34641, Note_on_c, 0, 69, 84
2, 34664, Note_on_c, 0, 69, 0
2, 34665, Note_on_c, 0, 76, 83
2, 34688, Note_on_c, 0, 76, 0
2, 34689, Note_on_c, 0, 69, 82
2, 34712, Note_on_c, 0, 69, 0
2, 34713, Note_on_c, 0, 74, 81
2, 34736, Note_on_c, 0, 74, 0
2, 34737, Note_on_c, 0, 69, 80
2, 34760, Note_on_c, 0, 69, 0
2, 34761, Note_on_c, 0, 73, 79
2, 34784, Note_on_c, 0, 73, 0
2, 34785, Note_on_c, 0, 69, 79
2, 34808, Note_on_c, 0, 69, 0
2, 34809, Note_on_c, 0, 78, 78
2, 34832, Note_on_c, 0, 78, 0
2, 34833, Note_on_c, 0, 69, 77
2, 34856, Note_on_c, 0, 69, 0
2, 34857, Note_on_c, 0, 76, 76
2, 34880, Note_on_c, 0, 76, 0
2, 34881, Note_on_c, 0, 69, 75
2, 34904, Note_on_c, 0, 69, 0
2, 34905, Note_on_c, 0, 74, 74
2, 34928, Note_on_c, 0, 74, 0
2, 34929, Note_on_c, 0, 69, 74
2, 34952, Note_on_c, 0, 69, 0
2, 34953, Note_on_c, 0, 73, 73
2, 34976, Note_on_c, 0, 73, 0
2, 34977, Note_on_c, 0, 69, 72
2, 35000, Note_on_c, 0, 69, 0
2, 35001, Note_on_c, 0, 78, 71
2, 35024, Note_on_c, 0, 78, 0
2, 35025, Note_on_c, 0, 69, 70
2, 35048, Note_on_c, 0, 69, 0
2, 35049, Note_on_c, 0, 76, 69
2, 35072, Note_on_c, 0, 76, 0
2, 35073, Note_on_c, 0, 69, 68
2, 35096, Note_on_c, 0, 69, 0
2, 35097, Note_on_c, 0, 80, 68
2, 35120, Note_on_c, 0, 80, 0
2, 35121, Note_on_c, 0, 69, 67
2, 35144, Note_on_c, 0, 69, 0
2, 35145, Note_on_c, 0, 81, 66
2, 35239, Note_on_c, 0, 81, 0
2, 35337, Note_on_c, 0, 83, 78
2, 35349, Note_on_c, 0, 83, 0
2, 35349, Note_on_c, 0, 81, 78
2, 35361, Note_on_c, 0, 81, 0
2, 35361, Note_on_c, 0, 80, 78
2, 35373, Note_on_c, 0, 80, 0
2, 35373, Note_on_c, 0, 81, 78
2, 35470, Note_on_c, 0, 81, 0
2, 35481, Note_on_c, 0, 86, 78
2, 35504, Note_on_c, 0, 86, 0
2, 35505, Note_on_c, 0, 81, 78
2, 35528, Note_on_c, 0, 81, 0
2, 35529, Note_on_c, 0, 78, 78
2, 35662, Note_on_c, 0, 78, 0
2, 35673, Note_on_c, 0, 81, 78
2, 35696, Note_on_c, 0, 81, 0
2, 35697, Note_on_c, 0, 78, 78
2, 35720, Note_on_c, 0, 78, 0
2, 35721, Note_on_c, 0, 83, 78
2, 35854, Note_on_c, 0, 83, 0
2, 35865, Note_on_c, 0, 79, 78
2, 35888, Note_on_c, 0, 79, 0
2, 35889, Note_on_c, 0, 76, 78
2, 35912, Note_on_c, 0, 76, 0
2, 35913, Note_on_c, 0, 74, 63
2, 35956, Note_on_c, 0, 74, 0
2, 35959, Note_on_c, 0, 73, 67
2, 35971, Note_on_c, 0, 73, 0
2, 35971, Note_on_c, 0, 74, 68
2, 35983, Note_on_c, 0, 74, 0
2, 35983, Note_on_c, 0, 73, 69
2, 35995, Note_on_c, 0, 73, 0
2, 35995, Note_on_c, 0, 74, 69
2, 36007, Note_on_c, 0, 74, 0
2, 36007, Note_on_c, 0, 73, 70
2, 36018, Note_on_c, 0, 73, 0
2, 36018, Note_on_c, 0, 74, 71
2, 36029, Note_on_c, 0, 74, 0
2, 36029, Note_on_c, 0, 73, 71
2, 36040, Note_on_c, 0, 73, 0
2, 36040, Note_on_c, 0, 74, 72
2, 36051, Note_on_c, 0, 74, 0
2, 36051, Note_on_c, 0, 73, 73
2, 36062, Note_on_c, 0, 73, 0
2, 36062, Note_on_c, 0, 74, 74
2, 36073, Note_on_c, 0, 74, 0
2, 36073, Note_on_c, 0, 73, 74
2, 36084, Note_on_c, 0, 73, 0
2, 36084, Note_on_c, 0, 71, 75
2, 36095, Note_on_c, 0, 71, 0
2, 36095, Note_on_c, 0, 73, 76
2, 36106, Note_on_c, 0, 73, 0
2, 36106, Note_on_c, 0, 74, 85
2, 36151, Note_on_c, 0, 74, 0
2, 36154, Note_on_c, 0, 69, 85
2, 36177, Note_on_c, 0, 69, 0
2, 36178, Note_on_c, 0, 78, 85
2, 36201, Note_on_c, 0, 78, 0
2, 36202, Note_on_c, 0, 76, 85
2, 36225, Note_on_c, 0, 76, 0
2, 36226, Note_on_c, 0, 74, 85
2, 36249, Note_on_c, 0, 74, 0
2, 36250, Note_on_c, 0, 73, 85
2, 36273, Note_on_c, 0, 73, 0
2, 36274, Note_on_c, 0, 71, 85
2, 36297, Note_on_c, 0, 71, 0
2, 36298, Note_on_c, 0, 69, 85
2, 36343, Note_on_c, 0, 69, 0
2, 36346, Note_on_c, 0, 79, 85
2, 36369, Note_on_c, 0, 79, 0
2, 36370, Note_on_c, 0, 83, 85
2, 36393, Note_on_c, 0, 83, 0
2, 36394, Note_on_c, 0, 81, 85
2, 36417, Note_on_c, 0, 81, 0
2, 36418, Note_on_c, 0, 79, 85
2, 36441, Note_on_c, 0, 79, 0
2, 36442, Note_on_c, 0, 78, 85
2, 36465, Note_on_c, 0, 78, 0
2, 36466, Note_on_c, 0, 76, 85
2, 36489, Note_on_c, 0, 76, 0
2, 36490, Note_on_c, 0, 78, 85
2, 36535, Note_on_c, 0, 78, 0
2, 36538, Note_on_c, 0, 69, 85
2, 36561, Note_on_c, 0, 69, 0
2, 36562, Note_on_c, 0, 78, 85
2, 36585, Note_on_c, 0, 78, 0
2, 36586, Note_on_c, 0, 76, 85
2, 36609, Note_on_c, 0, 76, 0
2, 36610, Note_on_c, 0, 74, 85
2, 36633, Note_on_c, 0, 74, 0
2, 36634, Note_on_c, 0, 73, 85
2, 36657, Note_on_c, 0, 73, 0
2, 36658, Note_on_c, 0, 71, 85
2, 36681, Note_on_c, 0, 71, 0
2, 36682, Note_on_c, 0, 69, 85
2, 36727, Note_on_c, 0, 69, 0
2, 36730, Note_on_c, 0, 79, 85
2, 36753, Note_on_c, 0, 79, 0
2, 36754, Note_on_c, 0, 83, 85
2, 36777, Note_on_c, 0, 83, 0
2, 36778, Note_on_c, 0, 81, 70
2, 36801, Note_on_c, 0, 81, 0
2, 36802, Note_on_c, 0, 79, 71
2, 36825, Note_on_c, 0, 79, 0
2, 36826, Note_on_c, 0, 78, 72
2, 36849, Note_on_c, 0, 78, 0
2, 36850, Note_on_c, 0, 76, 74
2, 36873, Note_on_c, 0, 76, 0
2, 36874, Note_on_c, 0, 78, 75
2, 36919, Note_on_c, 0, 78, 0
2, 36970, Note_on_c, 0, 81, 78
2, 36982, Note_on_c, 0, 81, 0
2, 36982, Note_on_c, 0, 79, 78
2, 36994, Note_on_c, 0, 79, 0
2, 36994, Note_on_c, 0, 78, 78
2, 37006, Note_on_c, 0, 78, 0
2, 37006, Note_on_c, 0, 79, 78
2, 37018, Note_on_c, 0, 79, 0
2, 37066, Note_on_c, 0, 83, 78
2, 37078, Note_on_c, 0, 83, 0
2, 37078, Note_on_c, 0, 81, 78
2, 37090, Note_on_c, 0, 81, 0
2, 37090, Note_on_c, 0, 79, 78
2, 37102, Note_on_c, 0, 79, 0
2, 37102, Note_on_c, 0, 81, 78
2, 37114, Note_on_c, 0, 81, 0
2, 37162, Note_on_c, 0, 81, 78
2, 37185, Note_on_c, 0, 81, 0
2, 37186, Note_on_c, 0, 79, 78
2, 37209, Note_on_c, 0, 79, 0
2, 37210, Note_on_c, 0, 78, 78
2, 37233, Note_on_c, 0, 78, 0
2, 37234, Note_on_c, 0, 76, 78
2, 37257, Note_on_c, 0, 76, 0
2, 37258, Note_on_c, 0, 78, 78
2, 37347, Note_on_c, 0, 78, 0
2, 37354, Note_on_c, 0, 79, 78
2, 37366, Note_on_c, 0, 79, 0
2, 37366, Note_on_c, 0, 81, 78
2, 37378, Note_on_c, 0, 81, 0
2, 37378, Note_on_c, 0, 79, 78
2, 37390, Note_on_c, 0, 79, 0
2, 37390, Note_on_c, 0, 81, 78
2, 37402, Note_on_c, 0, 81, 0
2, 37402, Note_on_c, 0, 79, 78
2, 37414, Note_on_c, 0, 79, 0
2, 37414, Note_on_c, 0, 81, 78
2, 37421, Note_on_c, 0, 81, 0
2, 37426, Note_on_c, 0, 78, 78
2, 37438, Note_on_c, 0, 78, 0
2, 37438, Note_on_c, 0, 79, 78
2, 37450, Note_on_c, 0, 79, 0
2, 37450, Note_on_c, 0, 81, 78
2, 37539, Note_on_c, 0, 81, 0
2, 37546, Note_on_c, 0, 81, 78
2, 37569, Note_on_c, 0, 81, 0
2, 37570, Note_on_c, 0, 79, 78
2, 37593, Note_on_c, 0, 79, 0
2, 37594, Note_on_c, 0, 78, 78
2, 37617, Note_on_c, 0, 78, 0
2, 37618, Note_on_c, 0, 76, 78
2, 37641, Note_on_c, 0, 76, 0
2, 37642, Note_on_c, 0, 78, 78
2, 37665, Note_on_c, 0, 78, 0
2, 37666, Note_on_c, 0, 74, 78
2, 37689, Note_on_c, 0, 74, 0
2, 37690, Note_on_c, 0, 79, 78
2, 37713, Note_on_c, 0, 79, 0
2, 37714, Note_on_c, 0, 74, 79
2, 37737, Note_on_c, 0, 74, 0
2, 37738, Note_on_c, 0, 81, 79
2, 37761, Note_on_c, 0, 81, 0
2, 37762, Note_on_c, 0, 74, 80
2, 37785, Note_on_c, 0, 74, 0
2, 37786, Note_on_c, 0, 83, 81
2, 37809, Note_on_c, 0, 83, 0
2, 37810, Note_on_c, 0, 74, 81
2, 37833, Note_on_c, 0, 74, 0
2, 37834, Note_on_c, 0, 73, 82
2, 37844, Note_on_c, 0, 73, 0
2, 37844, Note_on_c, 0, 74, 82
2, 37854, Note_on_c, 0, 74, 0
2, 37854, Note_on_c, 0, 73, 82
2, 37864, Note_on_c, 0, 73, 0
2, 37864, Note_on_c, 0, 71, 82
2, 37873, Note_on_c, 0, 71, 0
2, 37873, Note_on_c, 0, 73, 83
2, 37882, Note_on_c, 0, 73, 0
2, 37882, Note_on_c, 0, 74, 83
2, 37927, Note_on_c, 0, 74, 0
2, 38026, Control_c, 0, 64, 127
2, 38074, Note_on_c, 0, 57, 85
2, 38097, Note_on_c, 0, 57, 0
2, 38098, Note_on_c, 0, 62, 85
2, 38121, Note_on_c, 0, 62, 0
2, 38122, Note_on_c, 0, 66, 85
2, 38145, Note_on_c, 0, 66, 0
2, 38146, Note_on_c, 0, 62, 85
2, 38169, Note_on_c, 0, 62, 0
2, 38170, Note_on_c, 0, 57, 85
2, 38193, Note_on_c, 0, 57, 0
2, 38194, Note_on_c, 0, 62, 85
2, 38217, Note_on_c, 0, 62, 0
2, 38266, Note_on_c, 0, 66, 85
2, 38289, Note_on_c, 0, 66, 0
2, 38290, Control_c, 0, 64, 0
2, 38290, Note_on_c, 0, 69, 85
2, 38313, Note_on_c, 0, 69, 0
2, 38314, Note_on_c, 0, 67, 85
2, 38337, Note_on_c, 0, 67, 0
2, 38338, Note_on_c, 0, 66, 85
2, 38361, Note_on_c, 0, 66, 0
2, 38362, Note_on_c, 0, 64, 85
2, 38385, Note_on_c, 0, 64, 0
2, 38386, Note_on_c, 0, 62, 85
2, 38409, Note_on_c, 0, 62, 0
2, 38410, Control_c, 0, 64, 127
2, 38458, Note_on_c, 0, 69, 85
2, 38481, Note_on_c, 0, 69, 0
2, 38482, Note_on_c, 0, 73, 85
2, 38505, Note_on_c, 0, 73, 0
2, 38506, Note_on_c, 0, 76, 85
2, 38529, Note_on_c, 0, 76, 0
2, 38530, Note_on_c, 0, 73, 85
2, 38553, Note_on_c, 0, 73, 0
2, 38554, Note_on_c, 0, 69, 85
2, 38577, Note_on_c, 0, 69, 0
2, 38578, Note_on_c, 0, 73, 85
2, 38601, Note_on_c, 0, 73, 0
2, 38650, Note_on_c, 0, 67, 85
2, 38673, Note_on_c, 0, 67, 0
2, 38674, Control_c, 0, 64, 0
2, 38674, Note_on_c, 0, 71, 85
2, 38697, Note_on_c, 0, 71, 0
2, 38698, Note_on_c, 0, 69, 85
2, 38721, Note_on_c, 0, 69, 0
2, 38722, Note_on_c, 0, 67, 85
2, 38745, Note_on_c, 0, 67, 0
2, 38746, Note_on_c, 0, 66, 85
2, 38769, Note_on_c, 0, 66, 0
2, 38770, Note_on_c, 0, 64, 85
2, 38793, Note_on_c, 0, 64, 0
2, 38794, Control_c, 0, 64, 127
2, 38794, Note_on_c, 0, 62, 85
2, 38817, Note_on_c, 0, 62, 0
2, 38818, Note_on_c, 0, 66, 85
2, 38841, Note_on_c, 0, 66, 0
2, 38842, Note_on_c, 0, 69, 85
2, 38865, Note_on_c, 0, 69, 0
2, 38866, Note_on_c, 0, 74, 85
2, 38889, Note_on_c, 0, 74, 0
2, 38890, Note_on_c, 0, 78, 85
2, 38913, Note_on_c, 0, 78, 0
2, 38914, Note_on_c, 0, 74, 85
2, 38937, Note_on_c, 0, 74, 0
2, 38938, Note_on_c, 0, 69, 85
2, 38961, Note_on_c, 0, 69, 0
2, 38962, Control_c, 0, 64, 0
2, 38962, Note_on_c, 0, 74, 85
2, 38985, Note_on_c, 0, 74, 0
2, 38986, Control_c, 0, 64, 127
2, 38986, Note_on_c, 0, 64, 86
2, 39009, Note_on_c, 0, 64, 0
2, 39010, Note_on_c, 0, 67, 86
2, 39033, Note_on_c, 0, 67, 0
2, 39034, Note_on_c, 0, 73, 86
2, 39057, Note_on_c, 0, 73, 0
2, 39058, Note_on_c, 0, 76, 86
2, 39081, Note_on_c, 0, 76, 0
2, 39082, Note_on_c, 0, 79, 86
2, 39105, Note_on_c, 0, 79, 0
2, 39106, Note_on_c, 0, 76, 86
2, 39129, Note_on_c, 0, 76, 0
2, 39130, Note_on_c, 0, 73, 86
2, 39153, Note_on_c, 0, 73, 0
2, 39154, Control_c, 0, 64, 0
2, 39154, Note_on_c, 0, 76, 86
2, 39177, Note_on_c, 0, 76, 0
2, 39178, Control_c, 0, 64, 127
2, 39178, Note_on_c, 0, 66, 87
2, 39201, Note_on_c, 0, 66, 0
2, 39202, Note_on_c, 0, 69, 87
2, 39225, Note_on_c, 0, 69, 0
2, 39226, Note_on_c, 0, 74, 87
2, 39249, Note_on_c, 0, 74, 0
2, 39250, Note_on_c, 0, 78, 87
2, 39273, Note_on_c, 0, 78, 0
2, 39274, Note_on_c, 0, 81, 87
2, 39297, Note_on_c, 0, 81, 0
2, 39298, Note_on_c, 0, 78, 87
2, 39321, Note_on_c, 0, 78, 0
2, 39322, Note_on_c, 0, 74, 87
2, 39345, Note_on_c, 0, 74, 0
2, 39346, Control_c, 0, 64, 0
2, 39346, Note_on_c, 0, 78, 87
2, 39369, Note_on_c, 0, 78, 0
2, 39370, Control_c, 0, 64, 127
2, 39370, Note_on_c, 0, 67, 88
2, 39393, Note_on_c, 0, 67, 0
2, 39394, Note_on_c, 0, 71, 88
2, 39417, Note_on_c, 0, 71, 0
2, 39418, Note_on_c, 0, 74, 88
2, 39441, Note_on_c, 0, 74, 0
2, 39442, Note_on_c, 0, 79, 88
2, 39465, Note_on_c, 0, 79, 0
2, 39466, Note_on_c, 0, 83, 88
2, 39489, Note_on_c, 0, 83, 0
2, 39490, Note_on_c, 0, 79, 88
2, 39513, Note_on_c, 0, 79, 0
2, 39514, Note_on_c, 0, 74, 88
2, 39537, Note_on_c, 0, 74, 0
2, 39538, Control_c, 0, 64, 0
2, 39538, Note_on_c, 0, 79, 88
2, 39561, Note_on_c, 0, 79, 0
2, 39562, Control_c, 0, 64, 127
2, 39562, Note_on_c, 0, 68, 89
2, 39585, Note_on_c, 0, 68, 0
2, 39586, Note_on_c, 0, 71, 89
2, 39609, Note_on_c, 0, 71, 0
2, 39610, Note_on_c, 0, 74, 89
2, 39633, Note_on_c, 0, 74, 0
2, 39634, Note_on_c, 0, 77, 89
2, 39657, Note_on_c, 0, 77, 0
2, 39658, Note_on_c, 0, 83, 89
2, 39681, Note_on_c, 0, 83, 0
2, 39682, Note_on_c, 0, 77, 89
2, 39705, Note_on_c, 0, 77, 0
2, 39706, Note_on_c, 0, 74, 89
2, 39729, Note_on_c, 0, 74, 0
2, 39730, Note_on_c, 0, 77, 89
2, 39753, Note_on_c, 0, 77, 0
2, 39754, Note_on_c, 0, 68, 90
2, 39777, Note_on_c, 0, 68, 0
2, 39778, Note_on_c, 0, 71, 90
2, 39801, Note_on_c, 0, 71, 0
2, 39802, Note_on_c, 0, 74, 90
2, 39825, Note_on_c, 0, 74, 0
2, 39826, Note_on_c, 0, 77, 90
2, 39849, Note_on_c, 0, 77, 0
2, 39850, Note_on_c, 0, 83, 90
2, 39873, Note_on_c, 0, 83, 0
2, 39874, Control_c, 0, 64, 0
2, 39874, Note_on_c, 0, 77, 90
2, 39897, Note_on_c, 0, 77, 0
2, 39898, Note_on_c, 0, 76, 90
2, 39921, Note_on_c, 0, 76, 0
2, 39922, Note_on_c, 0, 74, 90
2, 39945, Note_on_c, 0, 74, 0
2, 39946, Note_on_c, 0, 73, 91
2, 39969, Note_on_c, 0, 73, 0
2, 39970, Note_on_c, 0, 69, 91
2, 39993, Note_on_c, 0, 69, 0
2, 39994, Note_on_c, 0, 74, 91
2, 40017, Note_on_c, 0, 74, 0
2, 40018, Note_on_c, 0, 69, 91
2, 40041, Note_on_c, 0, 69, 0
2, 40042, Note_on_c, 0, 76, 91
2, 40065, Note_on_c, 0, 76, 0
2, 40066, Note_on_c, 0, 69, 91
2, 40089, Note_on_c, 0, 69, 0
2, 40090, Note_on_c, 0, 78, 91
2, 40113, Note_on_c, 0, 78, 0
2, 40114, Note_on_c, 0, 69, 91
2, 40137, Note_on_c, 0, 69, 0
2, 40138, Note_on_c, 0, 79, 91
2, 40161, Note_on_c, 0, 79, 0
2, 40162, Note_on_c, 0, 78, 91
2, 40185, Note_on_c, 0, 78, 0
2, 40186, Note_on_c, 0, 76, 91
2, 40209, Note_on_c, 0, 76, 0
2, 40210, Note_on_c, 0, 74, 91
2, 40233, Note_on_c, 0, 74, 0
2, 40234, Note_on_c, 0, 73, 91
2, 40257, Note_on_c, 0, 73, 0
2, 40258, Note_on_c, 0, 71, 91
2, 40281, Note_on_c, 0, 71, 0
2, 40282, Note_on_c, 0, 69, 91
2, 40305, Note_on_c, 0, 69, 0
2, 40306, Note_on_c, 0, 67, 91
2, 40329, Note_on_c, 0, 67, 0
2, 40330, Note_on_c, 0, 66, 91
2, 40353, Note_on_c, 0, 66, 0
2, 40354, Note_on_c, 0, 62, 91
2, 40377, Note_on_c, 0, 62, 0
2, 40378, Note_on_c, 0, 67, 91
2, 40401, Note_on_c, 0, 67, 0
2, 40402, Note_on_c, 0, 62, 91
2, 40425, Note_on_c, 0, 62, 0
2, 40426, Note_on_c, 0, 69, 91
2, 40449, Note_on_c, 0, 69, 0
2, 40450, Note_on_c, 0, 62, 91
2, 40473, Note_on_c, 0, 62, 0
2, 40474, Note_on_c, 0, 71, 91
2, 40497, Note_on_c, 0, 71, 0
2, 40498, Note_on_c, 0, 62, 91
2, 40521, Note_on_c, 0, 62, 0
2, 40522, Note_on_c, 0, 69, 91
2, 40545, Note_on_c, 0, 69, 0
2, 40546, Note_on_c, 0, 62, 90
2, 40569, Note_on_c, 0, 62, 0
2, 40570, Note_on_c, 0, 71, 89
2, 40593, Note_on_c, 0, 71, 0
2, 40594, Note_on_c, 0, 62, 88
2, 40617, Note_on_c, 0, 62, 0
2, 40618, Note_on_c, 0, 69, 88
2, 40641, Note_on_c, 0, 69, 0
2, 40642, Note_on_c, 0, 62, 87
2, 40665, Note_on_c, 0, 62, 0
2, 40666, Note_on_c, 0, 67, 86
2, 40689, Note_on_c, 0, 67, 0
2, 40690, Note_on_c, 0, 62, 85
2, 40713, Note_on_c, 0, 62, 0
2, 40714, Note_on_c, 0, 66, 85
2, 40737, Note_on_c, 0, 66, 0
2, 40738, Note_on_c, 0, 62, 85
2, 40761, Note_on_c, 0, 62, 0
2, 40762, Note_on_c, 0, 67, 85
2, 40785, Note_on_c, 0, 67, 0
2, 40786, Note_on_c, 0, 62, 85
2, 40809, Note_on_c, 0, 62, 0
2, 40810, Note_on_c, 0, 69, 85
2, 40833, Note_on_c, 0, 69, 0
2, 40834, Note_on_c, 0, 62, 85
2, 40857, Note_on_c, 0, 62, 0
2, 40858, Note_on_c, 0, 71, 85
2, 40881, Note_on_c, 0, 71, 0
2, 40882, Note_on_c, 0, 62, 85
2, 40905, Note_on_c, 0, 62, 0
2, 40906, Note_on_c, 0, 69, 85
2, 40929, Note_on_c, 0, 69, 0
2, 40930, Note_on_c, 0, 62, 85
2, 40953, Note_on_c, 0, 62, 0
2, 40954, Note_on_c, 0, 71, 85
2, 40977, Note_on_c, 0, 71, 0
2, 40978, Note_on_c, 0, 62, 85
2, 41001, Note_on_c, 0, 62, 0
2, 41002, Note_on_c, 0, 69, 85
2, 41047, Note_on_c, 0, 69, 0
2, 41050, Note_on_c, 0, 74, 101
2, 41070, Note_on_c, 0, 74, 0
2, 41098, Note_on_c, 0, 64, 78
2, 41231, Note_on_c, 0, 64, 0
2, 41242, Note_on_c, 0, 67, 78
2, 41254, Note_on_c, 0, 67, 0
2, 41254, Note_on_c, 0, 69, 78
2, 41266, Note_on_c, 0, 69, 0
2, 41266, Note_on_c, 0, 71, 78
2, 41289, Note_on_c, 0, 71, 0
2, 41290, Note_on_c, 0, 62, 78
2, 41423, Note_on_c, 0, 62, 0
2, 41434, Note_on_c, 0, 66, 78
2, 41446, Note_on_c, 0, 66, 0
2, 41446, Note_on_c, 0, 64, 78
2, 41458, Note_on_c, 0, 64, 0
2, 41458, Note_on_c, 0, 62, 78
2, 41470, Note_on_c, 0, 62, 0
2, 41470, Note_on_c, 0, 61, 78
2, 41482, Note_on_c, 0, 61, 0
2, 41482, Note_on_c, 0, 62, 78
2, 41527, Note_on_c, 0, 62, 0
2, 41530, Note_on_c, 0, 74, 78
2, 41545, Note_on_c, 0, 74, 0
2, 41546, Note_on_c, 0, 73, 78
2, 41561, Note_on_c, 0, 73, 0
2, 41562, Note_on_c, 0, 71, 78
2, 41577, Note_on_c, 0, 71, 0
2, 41578, Note_on_c, 0, 69, 78
2, 41623, Note_on_c, 0, 69, 0
2, 41626, Note_on_c, 0, 69, 78
2, 41671, Note_on_c, 0, 69, 0
2, 41674, Note_on_c, 0, 69, 78
2, 41689, Note_on_c, 0, 69, 0
2, 41690, Note_on_c, 0, 71, 78
2, 41705, Note_on_c, 0, 71, 0
2, 41706, Note_on_c, 0, 73, 78
2, 41721, Note_on_c, 0, 73, 0
2, 41722, Note_on_c, 0, 74, 78
2, 41737, Note_on_c, 0, 74, 0
2, 41738, Note_on_c, 0, 73, 78
2, 41753, Note_on_c, 0, 73, 0
2, 41754, Note_on_c, 0, 71, 78
2, 41769, Note_on_c, 0, 71, 0
2, 41770, Note_on_c, 0, 69, 78
2, 41815, Note_on_c, 0, 69, 0
2, 41818, Note_on_c, 0, 69, 78
2, 41863, Note_on_c, 0, 69, 0
2, 41866, Note_on_c, 0, 69, 78
2, 41881, Note_on_c, 0, 69, 0
2, 41882, Note_on_c, 0, 71, 78
2, 41897, Note_on_c, 0, 71, 0
2, 41898, Note_on_c, 0, 73, 78
2, 41913, Note_on_c, 0, 73, 0
2, 41914, Note_on_c, 0, 74, 78
2, 41929, Note_on_c, 0, 74, 0
2, 41930, Note_on_c, 0, 73, 78
2, 41945, Note_on_c, 0, 73, 0
2, 41946, Note_on_c, 0, 71, 78
2, 41961, Note_on_c, 0, 71, 0
2, 41962, Note_on_c, 0, 69, 78
2, 42007, Note_on_c, 0, 69, 0
2, 42010, Note_on_c, 0, 70, 78
2, 42055, Note_on_c, 0, 70, 0
2, 42058, Note_on_c, 0, 71, 78
2, 42103, Note_on_c, 0, 71, 0
2, 42106, Note_on_c, 0, 63, 78
2, 42129, Note_on_c, 0, 63, 0
2, 42130, Note_on_c, 0, 64, 78
2, 42153, Note_on_c, 0, 64, 0
2, 42154, Note_on_c, 0, 66, 78
2, 42177, Note_on_c, 0, 66, 0
2, 42178, Note_on_c, 0, 67, 78
2, 42201, Note_on_c, 0, 67, 0
2, 42202, Note_on_c, 0, 69, 78
2, 42225, Note_on_c, 0, 69, 0
2, 42226, Note_on_c, 0, 71, 78
2, 42249, Note_on_c, 0, 71, 0
2, 42250, Note_on_c, 0, 69, 94
2, 42298, Note_on_c, 0, 69, 0
2, 42298, Note_on_c, 0, 67, 78
2, 42310, Note_on_c, 0, 67, 0
2, 42310, Note_on_c, 0, 66, 78
2, 42322, Note_on_c, 0, 66, 0
2, 42322, Note_on_c, 0, 64, 78
2, 42334, Note_on_c, 0, 64, 0
2, 42334, Note_on_c, 0, 62, 78
2, 42346, Note_on_c, 0, 62, 0
2, 42346, Note_on_c, 0, 64, 78
2, 42357, Note_on_c, 0, 64, 0
2, 42357, Note_on_c, 0, 66, 78
2, 42368, Note_on_c, 0, 66, 0
2, 42368, Note_on_c, 0, 64, 78
2, 42379, Note_on_c, 0, 64, 0
2, 42379, Note_on_c, 0, 66, 78
2, 42390, Note_on_c, 0, 66, 0
2, 42390, Note_on_c, 0, 64, 78
2, 42401, Note_on_c, 0, 64, 0
2, 42401, Note_on_c, 0, 66, 78
2, 42412, Note_on_c, 0, 66, 0
2, 42412, Note_on_c, 0, 64, 78
2, 42422, Note_on_c, 0, 64, 0
2, 42422, Note_on_c, 0, 62, 78
2, 42432, Note_on_c, 0, 62, 0
2, 42432, Note_on_c, 0, 64, 78
2, 42442, Note_on_c, 0, 64, 0
2, 42442, Note_on_c, 0, 62, 78
2, 42487, Note_on_c, 0, 62, 0
2, 42490, Note_on_c, 0, 86, 78
2, 42505, Note_on_c, 0, 86, 0
2, 42506, Note_on_c, 0, 85, 78
2, 42521, Note_on_c, 0, 85, 0
2, 42522, Note_on_c, 0, 83, 78
2, 42537, Note_on_c, 0, 83, 0
2, 42538, Note_on_c, 0, 81, 78
2, 42583, Note_on_c, 0, 81, 0
2, 42586, Note_on_c, 0, 81, 78
2, 42631, Note_on_c, 0, 81, 0
2, 42634, Note_on_c, 0, 81, 78
2, 42649, Note_on_c, 0, 81, 0
2, 42650, Note_on_c, 0, 83, 78
2, 42665, Note_on_c, 0, 83, 0
2, 42666, Note_on_c, 0, 85, 78
2, 42681, Note_on_c, 0, 85, 0
2, 42682, Note_on_c, 0, 86, 78
2, 42697, Note_on_c, 0, 86, 0
2, 42698, Note_on_c, 0, 85, 78
2, 42713, Note_on_c, 0, 85, 0
2, 42714, Note_on_c, 0, 83, 78
2, 42729, Note_on_c, 0, 83, 0
2, 42730, Note_on_c, 0, 81, 78
2, 42775, Note_on_c, 0, 81, 0
2, 42778, Note_on_c, 0, 81, 78
2, 42823, Note_on_c, 0, 81, 0
2, 42826, Note_on_c, 0, 81, 78
2, 42841, Note_on_c, 0, 81, 0
2, 42842, Note_on_c, 0, 83, 78
2, 42857, Note_on_c, 0, 83, 0
2, 42858, Note_on_c, 0, 85, 78
2, 42873, Note_on_c, 0, 85, 0
2, 42874, Note_on_c, 0, 86, 78
2, 42889, Note_on_c, 0, 86, 0
2, 42890, Note_on_c, 0, 85, 78
2, 42905, Note_on_c, 0, 85, 0
2, 42906, Note_on_c, 0, 83, 78
2, 42921, Note_on_c, 0, 83, 0
2, 42922, Note_on_c, 0, 81, 78
2, 42967, Note_on_c, 0, 81, 0
2, 42970, Note_on_c, 0, 82, 78
2, 43015, Note_on_c, 0, 82, 0
2, 43018, Note_on_c, 0, 83, 78
2, 43063, Note_on_c, 0, 83, 0
2, 43066, Note_on_c, 0, 75, 78
2, 43089, Note_on_c, 0, 75, 0
2, 43090, Note_on_c, 0, 76, 78
2, 43113, Note_on_c, 0, 76, 0
2, 43114, Note_on_c, 0, 78, 78
2, 43137, Note_on_c, 0, 78, 0
2, 43138, Note_on_c, 0, 79, 78
2, 43161, Note_on_c, 0, 79, 0
2, 43162, Note_on_c, 0, 81, 78
2, 43185, Note_on_c, 0, 81, 0
2, 43186, Note_on_c, 0, 83, 78
2, 43209, Note_on_c, 0, 83, 0
2, 43210, Note_on_c, 0, 81, 94
2, 43258, Note_on_c, 0, 81, 0
2, 43258, Note_on_c, 0, 79, 78
2, 43270, Note_on_c, 0, 79, 0
2, 43270, Note_on_c, 0, 78, 78
2, 43282, Note_on_c, 0, 78, 0
2, 43282, Note_on_c, 0, 76, 78
2, 43294, Note_on_c, 0, 76, 0
2, 43294, Note_on_c, 0, 74, 78
2, 43306, Note_on_c, 0, 74, 0
2, 43306, Note_on_c, 0, 76, 78
2, 43317, Note_on_c, 0, 76, 0
2, 43317, Note_on_c, 0, 78, 78
2, 43328, Note_on_c, 0, 78, 0
2, 43328, Note_on_c, 0, 76, 78
2, 43339, Note_on_c, 0, 76, 0
2, 43339, Note_on_c, 0, 78, 78
2, 43350, Note_on_c, 0, 78, 0
2, 43350, Note_on_c, 0, 76, 78
2, 43361, Note_on_c, 0, 76, 0
2, 43361, Note_on_c, 0, 78, 78
2, 43372, Note_on_c, 0, 78, 0
2, 43372, Note_on_c, 0, 76, 78
2, 43382, Note_on_c, 0, 76, 0
2, 43382, Note_on_c, 0, 74, 78
2, 43392, Note_on_c, 0, 74, 0
2, 43392, Note_on_c, 0, 76, 78
2, 43402, Note_on_c, 0, 76, 0
2, 43402, Note_on_c, 0, 74, 78
2, 43447, Note_on_c, 0, 74, 0
2, 43450, Note_on_c, 0, 69, 78
2, 43473, Note_on_c, 0, 69, 0
2, 43474, Note_on_c, 0, 74, 78
2, 43497, Note_on_c, 0, 74, 0
2, 43498, Note_on_c, 0, 66, 78
2, 43521, Note_on_c, 0, 66, 0
2, 43522, Note_on_c, 0, 69, 78
2, 43545, Note_on_c, 0, 69, 0
2, 43546, Note_on_c, 0, 62, 78
2, 43569, Note_on_c, 0, 62, 0
2, 43570, Note_on_c, 0, 66, 78
2, 43593, Note_on_c, 0, 66, 0
2, 44170, End_track
3, 0, Start_track
3, 0, Program_c, 1, 0
3, 0, Control_c, 1, 7, 127
3, 0, Control_c, 1, 10, 64
3, 48, Note_on_c, 1, 66, 63
3, 48, Note_on_c, 1, 62, 63
3, 68, Note_on_c, 1, 66, 0
3, 68, Note_on_c, 1, 62, 0
3, 96, Note_on_c, 1, 66, 63
3, 96, Note_on_c, 1, 62, 63
3, 143, Note_on_c, 1, 66, 0
3, 143, Note_on_c, 1, 62, 0
3, 240, Note_on_c, 1, 69, 63
3, 240, Note_on_c, 1, 62, 63
3, 260, Note_on_c, 1, 69, 0
3, 260, Note_on_c, 1, 62, 0
3, 288, Note_on_c, 1, 69, 63
3, 288, Note_on_c, 1, 62, 63
3, 335, Note_on_c, 1, 69, 0
3, 335, Note_on_c, 1, 62, 0
3, 432, Note_on_c, 1, 67, 63
3, 432, Note_on_c, 1, 62, 63
3, 452, Note_on_c, 1, 67, 0
3, 452, Note_on_c, 1, 62, 0
3, 480, Note_on_c, 1, 67, 63
3, 480, Note_on_c, 1, 62, 63
3, 527, Note_on_c, 1, 67, 0
3, 527, Note_on_c, 1, 62, 0
3, 624, Note_on_c, 1, 67, 63
3, 624, Note_on_c, 1, 64, 63
3, 624, Note_on_c, 1, 62, 63
3, 671, Note_on_c, 1, 67, 0
3, 671, Note_on_c, 1, 64, 0
3, 671, Note_on_c, 1, 62, 0
3, 672, Note_on_c, 1, 67, 68
3, 672, Note_on_c, 1, 64, 68
3, 672, Note_on_c, 1, 62, 68
3, 719, Note_on_c, 1, 67, 0
3, 719, Note_on_c, 1, 64, 0
3, 719, Note_on_c, 1, 62, 0
3, 720, Note_on_c, 1, 67, 73
3, 720, Note_on_c, 1, 64, 73
3, 720, Note_on_c, 1, 62, 73
3, 767, Note_on_c, 1, 67, 0
3, 767, Note_on_c, 1, 64, 0
3, 767, Note_on_c, 1, 62, 0
3, 768, Note_on_c, 1, 66, 78
3, 768, Note_on_c, 1, 62, 78
3, 857, Note_on_c, 1, 66, 0
3, 857, Note_on_c, 1, 62, 0
3, 960, Note_on_c, 1, 64, 78
3, 960, Note_on_c, 1, 61, 78
3, 1049, Note_on_c, 1, 64, 0
3, 1049, Note_on_c, 1, 61, 0
3, 1152, Note_on_c, 1, 66, 70
3, 1152, Note_on_c, 1, 62, 70
3, 1241, Note_on_c, 1, 66, 0
3, 1241, Note_on_c, 1, 62, 0
3, 1344, Note_on_c, 1, 64, 70
3, 1344, Note_on_c, 1, 61, 70
3, 1433, Note_on_c, 1, 64, 0
3, 1433, Note_on_c, 1, 61, 0
3, 1536, Note_on_c, 1, 62, 78
3, 1581, Note_on_c, 1, 62, 0
3, 1584, Note_on_c, 1, 57, 78
3, 1629, Note_on_c, 1, 57, 0
3, 1632, Note_on_c, 1, 64, 78
3, 1677, Note_on_c, 1, 64, 0
3, 1680, Note_on_c, 1, 57, 78
3, 1725, Note_on_c, 1, 57, 0
3, 1728, Note_on_c, 1, 66, 78
3, 1773, Note_on_c, 1, 66, 0
3, 1776, Note_on_c, 1, 57, 78
3, 1821, Note_on_c, 1, 57, 0
3, 1824, Note_on_c, 1, 64, 78
3, 1869, Note_on_c, 1, 64, 0
3, 1872, Note_on_c, 1, 57, 78
3, 1917, Note_on_c, 1, 57, 0
3, 1920, Note_on_c, 1, 62, 78
3, 1965, Note_on_c, 1, 62, 0
3, 1968, Note_on_c, 1, 57, 78
3, 2013, Note_on_c, 1, 57, 0
3, 2016, Note_on_c, 1, 64, 78
3, 2061, Note_on_c, 1, 64, 0
3, 2064, Note_on_c, 1, 57, 78
3, 2109, Note_on_c, 1, 57, 0
3, 2112, Note_on_c, 1, 66, 78
3, 2157, Note_on_c, 1, 66, 0
3, 2160, Note_on_c, 1, 57, 78
3, 2205, Note_on_c, 1, 57, 0
3, 2208, Note_on_c, 1, 64, 78
3, 2253, Note_on_c, 1, 64, 0
3, 2256, Note_on_c, 1, 57, 78
3, 2301, Note_on_c, 1, 57, 0
3, 2304, Note_on_c, 1, 62, 78
3, 2349, Note_on_c, 1, 62, 0
3, 2352, Note_on_c, 1, 64, 78
3, 2397, Note_on_c, 1, 64, 0
3, 2400, Note_on_c, 1, 66, 78
3, 2445, Note_on_c, 1, 66, 0
3, 2448, Note_on_c, 1, 67, 78
3, 2493, Note_on_c, 1, 67, 0
3, 2496, Note_on_c, 1, 69, 78
3, 2541, Note_on_c, 1, 69, 0
3, 2544, Note_on_c, 1, 62, 78
3, 2589, Note_on_c, 1, 62, 0
3, 2688, Control_c, 1, 64, 127
3, 2688, Note_on_c, 1, 50, 85
3, 2711, Note_on_c, 1, 50, 0
3, 2712, Note_on_c, 1, 54, 85
3, 2735, Note_on_c, 1, 54, 0
3, 2880, Note_on_c, 1, 50, 85
3, 2880, Note_on_c, 1, 38, 85
3, 2925, Note_on_c, 1, 50, 0
3, 2925, Note_on_c, 1, 38, 0
3, 2976, Control_c, 1, 64, 0
3, 3072, Control_c, 1, 64, 127
3, 3072, Note_on_c, 1, 61, 85
3, 3095, Note_on_c, 1, 61, 0
3, 3096, Note_on_c, 1, 64, 85
3, 3119, Note_on_c, 1, 64, 0
3, 3264, Note_on_c, 1, 45, 85
3, 3264, Note_on_c, 1, 33, 85
3, 3309, Note_on_c, 1, 45, 0
3, 3309, Note_on_c, 1, 33, 0
3, 3360, Control_c, 1, 64, 0
3, 3648, Control_c, 1, 64, 127
3, 3648, Note_on_c, 1, 52, 85
3, 3648, Note_on_c, 1, 40, 85
3, 3693, Note_on_c, 1, 52, 0
3, 3693, Note_on_c, 1, 40, 0
3, 3744, Control_c, 1, 64, 0
3, 3840, Note_on_c, 1, 57, 85
3, 3885, Note_on_c, 1, 57, 0
3, 3888, Note_on_c, 1, 59, 85
3, 3933, Note_on_c, 1, 59, 0
3, 3936, Note_on_c, 1, 61, 85
3, 3981, Note_on_c, 1, 61, 0
3, 3984, Note_on_c, 1, 62, 85
3, 4029, Note_on_c, 1, 62, 0
3, 4032, Note_on_c, 1, 61, 85
3, 4077, Note_on_c, 1, 61, 0
3, 4080, Note_on_c, 1, 62, 85
3, 4125, Note_on_c, 1, 62, 0
3, 4128, Note_on_c, 1, 61, 85
3, 4173, Note_on_c, 1, 61, 0
3, 4176, Note_on_c, 1, 59, 82
3, 4221, Note_on_c, 1, 59, 0
3, 4224, Note_on_c, 1, 57, 80
3, 4269, Note_on_c, 1, 57, 0
3, 4272, Note_on_c, 1, 59, 78
3, 4317, Note_on_c, 1, 59, 0
3, 4320, Note_on_c, 1, 61, 78
3, 4365, Note_on_c, 1, 61, 0
3, 4368, Note_on_c, 1, 62, 78
3, 4413, Note_on_c, 1, 62, 0
3, 4416, Note_on_c, 1, 61, 78
3, 4461, Note_on_c, 1, 61, 0
3, 4464, Note_on_c, 1, 62, 78
3, 4509, Note_on_c, 1, 62, 0
3, 4512, Note_on_c, 1, 61, 78
3, 4557, Note_on_c, 1, 61, 0
3, 4656, Note_on_c, 1, 66, 78
3, 4656, Note_on_c, 1, 62, 78
3, 4676, Note_on_c, 1, 66, 0
3, 4676, Note_on_c, 1, 62, 0
3, 4704, Note_on_c, 1, 66, 78
3, 4704, Note_on_c, 1, 62, 78
3, 4751, Note_on_c, 1, 66, 0
3, 4751, Note_on_c, 1, 62, 0
3, 4848, Note_on_c, 1, 61, 78
3, 4893, Note_on_c, 1, 61, 0
3, 4896, Note_on_c, 1, 62, 78
3, 4941, Note_on_c, 1, 62, 0
3, 4944, Note_on_c, 1, 64, 78
3, 4989, Note_on_c, 1, 64, 0
3, 4992, Note_on_c, 1, 57, 78
3, 5081, Note_on_c, 1, 57, 0
3, 5136, Note_on_c, 1, 74, 78
3, 5136, Note_on_c, 1, 68, 78
3, 5181, Note_on_c, 1, 74, 0
3, 5181, Note_on_c, 1, 68, 0
3, 5184, Note_on_c, 1, 73, 78
3, 5184, Note_on_c, 1, 69, 78
3, 5273, Note_on_c, 1, 73, 0
3, 5273, Note_on_c, 1, 69, 0
3, 5328, Note_on_c, 1, 74, 78
3, 5328, Note_on_c, 1, 68, 78
3, 5373, Note_on_c, 1, 74, 0
3, 5373, Note_on_c, 1, 68, 0
3, 5376, Note_on_c, 1, 73, 78
3, 5376, Note_on_c, 1, 69, 78
3, 5465, Note_on_c, 1, 73, 0
3, 5465, Note_on_c, 1, 69, 0
3, 5520, Note_on_c, 1, 61, 78
3, 5565, Note_on_c, 1, 61, 0
3, 5568, Note_on_c, 1, 62, 78
3, 5657, Note_on_c, 1, 62, 0
3, 5808, Note_on_c, 1, 61, 78
3, 5853, Note_on_c, 1, 61, 0
3, 5856, Note_on_c, 1, 62, 78
3, 5901, Note_on_c, 1, 62, 0
3, 5904, Note_on_c, 1, 64, 78
3, 5949, Note_on_c, 1, 64, 0
3, 5952, Note_on_c, 1, 57, 78
3, 6041, Note_on_c, 1, 57, 0
3, 6096, Note_on_c, 1, 74, 78
3, 6096, Note_on_c, 1, 68, 78
3, 6141, Note_on_c, 1, 74, 0
3, 6141, Note_on_c, 1, 68, 0
3, 6144, Note_on_c, 1, 73, 78
3, 6144, Note_on_c, 1, 69, 78
3, 6233, Note_on_c, 1, 73, 0
3, 6233, Note_on_c, 1, 69, 0
3, 6288, Note_on_c, 1, 74, 78
3, 6288, Note_on_c, 1, 68, 78
3, 6333, Note_on_c, 1, 74, 0
3, 6333, Note_on_c, 1, 68, 0
3, 6336, Note_on_c, 1, 73, 78
3, 6336, Note_on_c, 1, 69, 78
3, 6425, Note_on_c, 1, 73, 0
3, 6425, Note_on_c, 1, 69, 0
3, 6480, Note_on_c, 1, 61, 78
3, 6525, Note_on_c, 1, 61, 0
3, 6528, Note_on_c, 1, 62, 78
3, 6617, Note_on_c, 1, 62, 0
3, 6768, Note_on_c, 1, 61, 78
3, 6813, Note_on_c, 1, 61, 0
3, 6816, Note_on_c, 1, 62, 78
3, 6861, Note_on_c, 1, 62, 0
3, 6864, Note_on_c, 1, 64, 78
3, 6909, Note_on_c, 1, 64, 0
3, 6912, Note_on_c, 1, 57, 78
3, 7001, Note_on_c, 1, 57, 0
3, 7104, Note_on_c, 1, 45, 85
3, 7104, Note_on_c, 1, 33, 85
3, 7193, Note_on_c, 1, 45, 0
3, 7193, Note_on_c, 1, 33, 0
3, 7344, Note_on_c, 1, 66, 63
3, 7344, Note_on_c, 1, 62, 63
3, 7364, Note_on_c, 1, 66, 0
3, 7364, Note_on_c, 1, 62, 0
3, 7392, Note_on_c, 1, 66, 63
3, 7392, Note_on_c, 1, 62, 63
3, 7439, Note_on_c, 1, 66, 0
3, 7439, Note_on_c, 1, 62, 0
3, 7536, Note_on_c, 1, 69, 63
3, 7536, Note_on_c, 1, 62, 63
3, 7556, Note_on_c, 1, 69, 0
3, 7556, Note_on_c, 1, 62, 0
3, 7584, Note_on_c, 1, 69, 63
3, 7584, Note_on_c, 1, 62, 63
3, 7631, Note_on_c, 1, 69, 0
3, 7631, Note_on_c, 1, 62, 0
3, 7728, Note_on_c, 1, 67, 63
3, 7728, Note_on_c, 1, 62, 63
3, 7748, Note_on_c, 1, 67, 0
3, 7748, Note_on_c, 1, 62, 0
3, 7776, Note_on_c, 1, 67, 63
3, 7776, Note_on_c, 1, 62, 63
3, 7823, Note_on_c, 1, 67, 0
3, 7823, Note_on_c, 1, 62, 0
3, 7920, Note_on_c, 1, 67, 63
3, 7920, Note_on_c, 1, 64, 63
3, 7920, Note_on_c, 1, 62, 63
3, 7967, Note_on_c, 1, 67, 0
3, 7967, Note_on_c, 1, 64, 0
3, 7967, Note_on_c, 1, 62, 0
3, 7968, Note_on_c, 1, 67, 68
3, 7968, Note_on_c, 1, 64, 68
3, 7968, Note_on_c, 1, 62, 68
3, 8015, Note_on_c, 1, 67, 0
3, 8015, Note_on_c, 1, 64, 0
3, 8015, Note_on_c, 1, 62, 0
3, 8016, Note_on_c, 1, 67, 73
3, 8016, Note_on_c, 1, 64, 73
3, 8016, Note_on_c, 1, 62, 73
3, 8063, Note_on_c, 1, 67, 0
3, 8063, Note_on_c, 1, 64, 0
3, 8063, Note_on_c, 1, 62, 0
3, 8064, Note_on_c, 1, 66, 78
3, 8064, Note_on_c, 1, 62, 78
3, 8153, Note_on_c, 1, 66, 0
3, 8153, Note_on_c, 1, 62, 0
3, 8256, Note_on_c, 1, 64, 78
3, 8256, Note_on_c, 1, 61, 78
3, 8345, Note_on_c, 1, 64, 0
3, 8345, Note_on_c, 1, 61, 0
3, 8448, Note_on_c, 1, 66, 70
3, 8448, Note_on_c, 1, 62, 70
3, 8537, Note_on_c, 1, 66, 0
3, 8537, Note_on_c, 1, 62, 0
3, 8640, Note_on_c, 1, 64, 70
3, 8640, Note_on_c, 1, 61, 70
3, 8729, Note_on_c, 1, 64, 0
3, 8729, Note_on_c, 1, 61, 0
3, 8832, Note_on_c, 1, 62, 78
3, 8877, Note_on_c, 1, 62, 0
3, 8880, Note_on_c, 1, 57, 78
3, 8925, Note_on_c, 1, 57, 0
3, 8928, Note_on_c, 1, 64, 78
3, 8973, Note_on_c, 1, 64, 0
3, 8976, Note_on_c, 1, 57, 78
3, 9021, Note_on_c, 1, 57, 0
3, 9024, Note_on_c, 1, 66, 78
3, 9069, Note_on_c, 1, 66, 0
3, 9072, Note_on_c, 1, 57, 78
3, 9117, Note_on_c, 1, 57, 0
3, 9120, Note_on_c, 1, 64, 78
3, 9165, Note_on_c, 1, 64, 0
3, 9168, Note_on_c, 1, 57, 78
3, 9213, Note_on_c, 1, 57, 0
3, 9216, Note_on_c, 1, 62, 78
3, 9261, Note_on_c, 1, 62, 0
3, 9264, Note_on_c, 1, 57, 78
3, 9309, Note_on_c, 1, 57, 0
3, 9312, Note_on_c, 1, 64, 78
3, 9357, Note_on_c, 1, 64, 0
3, 9360, Note_on_c, 1, 57, 78
3, 9405, Note_on_c, 1, 57, 0
3, 9408, Note_on_c, 1, 66, 78
3, 9453, Note_on_c, 1, 66, 0
3, 9456, Note_on_c, 1, 57, 78
3, 9501, Note_on_c, 1, 57, 0
3, 9504, Note_on_c, 1, 64, 78
3, 9549, Note_on_c, 1, 64, 0
3, 9552, Note_on_c, 1, 57, 78
3, 9597, Note_on_c, 1, 57, 0
3, 9600, Note_on_c, 1, 62, 78
3, 9645, Note_on_c, 1, 62, 0
3, 9648, Note_on_c, 1, 64, 78
3, 9693, Note_on_c, 1, 64, 0
3, 9696, Note_on_c, 1, 66, 78
3, 9741, Note_on_c, 1, 66, 0
3, 9744, Note_on_c, 1, 67, 78
3, 9789, Note_on_c, 1, 67, 0
3, 9792, Note_on_c, 1, 69, 78
3, 9837, Note_on_c, 1, 69, 0
3, 9840, Note_on_c, 1, 62, 78
3, 9885, Note_on_c, 1, 62, 0
3, 9984, Control_c, 1, 64, 127
3, 9984, Note_on_c, 1, 50, 85
3, 10007, Note_on_c, 1, 50, 0
3, 10008, Note_on_c, 1, 54, 85
3, 10031, Note_on_c, 1, 54, 0
3, 10176, Note_on_c, 1, 50, 85
3, 10176, Note_on_c, 1, 38, 85
3, 10221, Note_on_c, 1, 50, 0
3, 10221, Note_on_c, 1, 38, 0
3, 10272, Control_c, 1, 64, 0
3, 10368, Control_c, 1, 64, 127
3, 10368, Note_on_c, 1, 61, 85
3, 10391, Note_on_c, 1, 61, 0
3, 10392, Note_on_c, 1, 64, 85
3, 10415, Note_on_c, 1, 64, 0
3, 10560, Note_on_c, 1, 45, 85
3, 10560, Note_on_c, 1, 33, 85
3, 10605, Note_on_c, 1, 45, 0
3, 10605, Note_on_c, 1, 33, 0
3, 10656, Control_c, 1, 64, 0
3, 10944, Control_c, 1, 64, 127
3, 10944, Note_on_c, 1, 52, 85
3, 10944, Note_on_c, 1, 40, 85
3, 10989, Note_on_c, 1, 52, 0
3, 10989, Note_on_c, 1, 40, 0
3, 11040, Control_c, 1, 64, 0
3, 11136, Note_on_c, 1, 57, 85
3, 11181, Note_on_c, 1, 57, 0
3, 11184, Note_on_c, 1, 59, 85
3, 11229, Note_on_c, 1, 59, 0
3, 11232, Note_on_c, 1, 61, 85
3, 11277, Note_on_c, 1, 61, 0
3, 11280, Note_on_c, 1, 62, 85
3, 11325, Note_on_c, 1, 62, 0
3, 11328, Note_on_c, 1, 61, 85
3, 11373, Note_on_c, 1, 61, 0
3, 11376, Note_on_c, 1, 62, 85
3, 11421, Note_on_c, 1, 62, 0
3, 11424, Note_on_c, 1, 61, 85
3, 11469, Note_on_c, 1, 61, 0
3, 11472, Note_on_c, 1, 59, 82
3, 11517, Note_on_c, 1, 59, 0
3, 11520, Note_on_c, 1, 57, 80
3, 11565, Note_on_c, 1, 57, 0
3, 11568, Note_on_c, 1, 59, 78
3, 11613, Note_on_c, 1, 59, 0
3, 11616, Note_on_c, 1, 61, 78
3, 11661, Note_on_c, 1, 61, 0
3, 11664, Note_on_c, 1, 62, 78
3, 11709, Note_on_c, 1, 62, 0
3, 11712, Note_on_c, 1, 61, 78
3, 11757, Note_on_c, 1, 61, 0
3, 11760, Note_on_c, 1, 62, 78
3, 11805, Note_on_c, 1, 62, 0
3, 11808, Note_on_c, 1, 61, 78
3, 11853, Note_on_c, 1, 61, 0
3, 11952, Note_on_c, 1, 66, 78
3, 11952, Note_on_c, 1, 62, 78
3, 11972, Note_on_c, 1, 66, 0
3, 11972, Note_on_c, 1, 62, 0
3, 12000, Note_on_c, 1, 66, 78
3, 12000, Note_on_c, 1, 62, 78
3, 12047, Note_on_c, 1, 66, 0
3, 12047, Note_on_c, 1, 62, 0
3, 12144, Note_on_c, 1, 61, 78
3, 12189, Note_on_c, 1, 61, 0
3, 12192, Note_on_c, 1, 62, 78
3, 12237, Note_on_c, 1, 62, 0
3, 12240, Note_on_c, 1, 64, 78
3, 12285, Note_on_c, 1, 64, 0
3, 12288, Note_on_c, 1, 57, 78
3, 12377, Note_on_c, 1, 57, 0
3, 12432, Note_on_c, 1, 74, 78
3, 12432, Note_on_c, 1, 68, 78
3, 12477, Note_on_c, 1, 74, 0
3, 12477, Note_on_c, 1, 68, 0
3, 12480, Note_on_c, 1, 73, 78
3, 12480, Note_on_c, 1, 69, 78
3, 12569, Note_on_c, 1, 73, 0
3, 12569, Note_on_c, 1, 69, 0
3, 12624, Note_on_c, 1, 74, 78
3, 12624, Note_on_c, 1, 68, 78
3, 12669, Note_on_c, 1, 74, 0
3, 12669, Note_on_c, 1, 68, 0
3, 12672, Note_on_c, 1, 73, 78
3, 12672, Note_on_c, 1, 69, 78
3, 12761, Note_on_c, 1, 73, 0
3, 12761, Note_on_c, 1, 69, 0
3, 12816, Note_on_c, 1, 61, 78
3, 12861, Note_on_c, 1, 61, 0
3, 12864, Note_on_c, 1, 62, 78
3, 12953, Note_on_c, 1, 62, 0
3, 13104, Note_on_c, 1, 61, 78
3, 13149, Note_on_c, 1, 61, 0
3, 13152, Note_on_c, 1, 62, 78
3, 13197, Note_on_c, 1, 62, 0
3, 13200, Note_on_c, 1, 64, 78
3, 13245, Note_on_c, 1, 64, 0
3, 13248, Note_on_c, 1, 57, 78
3, 13337, Note_on_c, 1, 57, 0
3, 13392, Note_on_c, 1, 74, 78
3, 13392, Note_on_c, 1, 68, 78
3, 13437, Note_on_c, 1, 74, 0
3, 13437, Note_on_c, 1, 68, 0
3, 13440, Note_on_c, 1, 73, 78
3, 13440, Note_on_c, 1, 69, 78
3, 13529, Note_on_c, 1, 73, 0
3, 13529, Note_on_c, 1, 69, 0
3, 13584, Note_on_c, 1, 74, 78
3, 13584, Note_on_c, 1, 68, 78
3, 13629, Note_on_c, 1, 74, 0
3, 13629, Note_on_c, 1, 68, 0
3, 13632, Note_on_c, 1, 73, 78
3, 13632, Note_on_c, 1, 69, 78
3, 13721, Note_on_c, 1, 73, 0
3, 13721, Note_on_c, 1, 69, 0
3, 13776, Note_on_c, 1, 61, 78
3, 13821, Note_on_c, 1, 61, 0
3, 13824, Note_on_c, 1, 62, 78
3, 13913, Note_on_c, 1, 62, 0
3, 14064, Note_on_c, 1, 61, 78
3, 14109, Note_on_c, 1, 61, 0
3, 14112, Note_on_c, 1, 62, 78
3, 14157, Note_on_c, 1, 62, 0
3, 14160, Note_on_c, 1, 64, 78
3, 14205, Note_on_c, 1, 64, 0
3, 14208, Note_on_c, 1, 57, 78
3, 14297, Note_on_c, 1, 57, 0
3, 14400, Note_on_c, 1, 45, 85
3, 14400, Note_on_c, 1, 33, 85
3, 14489, Note_on_c, 1, 45, 0
3, 14489, Note_on_c, 1, 33, 0
3, 14640, Note_on_c, 1, 61, 63
3, 14640, Note_on_c, 1, 57, 63
3, 14660, Note_on_c, 1, 61, 0
3, 14660, Note_on_c, 1, 57, 0
3, 14688, Note_on_c, 1, 61, 63
3, 14688, Note_on_c, 1, 57, 63
3, 14735, Note_on_c, 1, 61, 0
3, 14735, Note_on_c, 1, 57, 0
3, 14832, Note_on_c, 1, 64, 63
3, 14832, Note_on_c, 1, 57, 63
3, 14852, Note_on_c, 1, 64, 0
3, 14852, Note_on_c, 1, 57, 0
3, 14880, Note_on_c, 1, 64, 63
3, 14880, Note_on_c, 1, 57, 63
3, 14927, Note_on_c, 1, 64, 0
3, 14927, Note_on_c, 1, 57, 0
3, 15024, Note_on_c, 1, 62, 63
3, 15024, Note_on_c, 1, 57, 63
3, 15044, Note_on_c, 1, 62, 0
3, 15044, Note_on_c, 1, 57, 0
3, 15072, Note_on_c, 1, 62, 63
3, 15072, Note_on_c, 1, 57, 63
3, 15119, Note_on_c, 1, 62, 0
3, 15119, Note_on_c, 1, 57, 0
3, 15216, Note_on_c, 1, 62, 63
3, 15216, Note_on_c, 1, 59, 63
3, 15216, Note_on_c, 1, 57, 63
3, 15263, Note_on_c, 1, 62, 0
3, 15263, Note_on_c, 1, 59, 0
3, 15263, Note_on_c, 1, 57, 0
3, 15264, Note_on_c, 1, 62, 68
3, 15264, Note_on_c, 1, 59, 68
3, 15264, Note_on_c, 1, 57, 68
3, 15311, Note_on_c, 1, 62, 0
3, 15311, Note_on_c, 1, 59, 0
3, 15311, Note_on_c, 1, 57, 0
3, 15312, Note_on_c, 1, 62, 73
3, 15312, Note_on_c, 1, 59, 73
3, 15312, Note_on_c, 1, 57, 73
3, 15359, Note_on_c, 1, 62, 0
3, 15359, Note_on_c, 1, 59, 0
3, 15359, Note_on_c, 1, 57, 0
3, 15360, Note_on_c, 1, 61, 78
3, 15360, Note_on_c, 1, 57, 78
3, 15449, Note_on_c, 1, 61, 0
3, 15449, Note_on_c, 1, 57, 0
3, 17856, Control_c, 1, 64, 127
3, 17856, Note_on_c, 1, 54, 85
3, 17856, Note_on_c, 1, 42, 85
3, 17945, Note_on_c, 1, 54, 0
3, 17945, Note_on_c, 1, 42, 0
3, 17952, Control_c, 1, 64, 0
3, 18096, Note_on_c, 1, 62, 54
3, 18096, Note_on_c, 1, 59, 54
3, 18116, Note_on_c, 1, 62, 0
3, 18116, Note_on_c, 1, 59, 0
3, 18144, Note_on_c, 1, 62, 54
3, 18144, Note_on_c, 1, 59, 54
3, 18191, Note_on_c, 1, 62, 0
3, 18191, Note_on_c, 1, 59, 0
3, 18288, Note_on_c, 1, 62, 54
3, 18288, Note_on_c, 1, 59, 54
3, 18308, Note_on_c, 1, 62, 0
3, 18308, Note_on_c, 1, 59, 0
3, 18336, Note_on_c, 1, 62, 54
3, 18336, Note_on_c, 1, 59, 54
3, 18383, Note_on_c, 1, 62, 0
3, 18383, Note_on_c, 1, 59, 0
3, 18480, Note_on_c, 1, 64, 55
3, 18480, Note_on_c, 1, 59, 55
3, 18500, Note_on_c, 1, 64, 0
3, 18500, Note_on_c, 1, 59, 0
3, 18528, Note_on_c, 1, 64, 56
3, 18528, Note_on_c, 1, 59, 56
3, 18575, Note_on_c, 1, 64, 0
3, 18575, Note_on_c, 1, 59, 0
3, 18672, Note_on_c, 1, 64, 60
3, 18672, Note_on_c, 1, 61, 60
3, 18672, Note_on_c, 1, 59, 60
3, 18692, Note_on_c, 1, 64, 0
3, 18692, Note_on_c, 1, 61, 0
3, 18692, Note_on_c, 1, 59, 0
3, 18720, Note_on_c, 1, 64, 61
3, 18720, Note_on_c, 1, 61, 61
3, 18720, Note_on_c, 1, 59, 61
3, 18767, Note_on_c, 1, 64, 0
3, 18767, Note_on_c, 1, 61, 0
3, 18767, Note_on_c, 1, 59, 0
3, 18864, Note_on_c, 1, 66, 65
3, 18864, Note_on_c, 1, 63, 65
3, 18864, Note_on_c, 1, 57, 65
3, 18884, Note_on_c, 1, 66, 0
3, 18884, Note_on_c, 1, 63, 0
3, 18884, Note_on_c, 1, 57, 0
3, 18912, Note_on_c, 1, 66, 66
3, 18912, Note_on_c, 1, 63, 66
3, 18912, Note_on_c, 1, 57, 66
3, 18959, Note_on_c, 1, 66, 0
3, 18959, Note_on_c, 1, 63, 0
3, 18959, Note_on_c, 1, 57, 0
3, 19056, Note_on_c, 1, 59, 70
3, 19056, Note_on_c, 1, 57, 70
3, 19076, Note_on_c, 1, 59, 0
3, 19076, Note_on_c, 1, 57, 0
3, 19104, Note_on_c, 1, 59, 71
3, 19104, Note_on_c, 1, 57, 71
3, 19151, Note_on_c, 1, 59, 0
3, 19151, Note_on_c, 1, 57, 0
3, 19248, Note_on_c, 1, 59, 75
3, 19248, Note_on_c, 1, 55, 75
3, 19268, Note_on_c, 1, 59, 0
3, 19268, Note_on_c, 1, 55, 0
3, 19296, Note_on_c, 1, 59, 76
3, 19296, Note_on_c, 1, 55, 76
3, 19343, Note_on_c, 1, 59, 0
3, 19343, Note_on_c, 1, 55, 0
3, 19440, Note_on_c, 1, 57, 80
3, 19440, Note_on_c, 1, 55, 80
3, 19460, Note_on_c, 1, 57, 0
3, 19460, Note_on_c, 1, 55, 0
3, 19488, Note_on_c, 1, 57, 81
3, 19488, Note_on_c, 1, 55, 81
3, 19535, Note_on_c, 1, 57, 0
3, 19535, Note_on_c, 1, 55, 0
3, 19584, Note_on_c, 1, 54, 83
3, 19629, Note_on_c, 1, 54, 0
3, 19632, Note_on_c, 1, 66, 85
3, 19677, Note_on_c, 1, 66, 0
3, 19680, Note_on_c, 1, 64, 85
3, 19725, Note_on_c, 1, 64, 0
3, 19728, Note_on_c, 1, 62, 85
3, 19773, Note_on_c, 1, 62, 0
3, 19776, Note_on_c, 1, 61, 85
3, 19821, Note_on_c, 1, 61, 0
3, 19824, Note_on_c, 1, 62, 85
3, 19869, Note_on_c, 1, 62, 0
3, 19872, Note_on_c, 1, 61, 85
3, 19917, Note_on_c, 1, 61, 0
3, 19920, Note_on_c, 1, 59, 85
3, 19965, Note_on_c, 1, 59, 0
3, 19968, Note_on_c, 1, 57, 85
3, 20013, Note_on_c, 1, 57, 0
3, 20016, Note_on_c, 1, 62, 85
3, 20061, Note_on_c, 1, 62, 0
3, 20064, Note_on_c, 1, 61, 83
3, 20109, Note_on_c, 1, 61, 0
3, 20112, Note_on_c, 1, 59, 81
3, 20157, Note_on_c, 1, 59, 0
3, 20160, Note_on_c, 1, 57, 79
3, 20205, Note_on_c, 1, 57, 0
3, 20208, Note_on_c, 1, 62, 78
3, 20253, Note_on_c, 1, 62, 0
3, 20256, Note_on_c, 1, 61, 76
3, 20301, Note_on_c, 1, 61, 0
3, 20304, Note_on_c, 1, 59, 74
3, 20349, Note_on_c, 1, 59, 0
3, 20352, Note_on_c, 1, 57, 73
3, 20397, Note_on_c, 1, 57, 0
3, 20400, Note_on_c, 1, 62, 71
3, 20445, Note_on_c, 1, 62, 0
3, 20448, Note_on_c, 1, 61, 69
3, 20493, Note_on_c, 1, 61, 0
3, 20496, Note_on_c, 1, 59, 68
3, 20541, Note_on_c, 1, 59, 0
3, 20544, Note_on_c, 1, 57, 66
3, 20638, Note_on_c, 1, 57, 0
3, 20784, Note_on_c, 1, 66, 63
3, 20784, Note_on_c, 1, 62, 63
3, 20804, Note_on_c, 1, 66, 0
3, 20804, Note_on_c, 1, 62, 0
3, 20832, Note_on_c, 1, 66, 63
3, 20832, Note_on_c, 1, 62, 63
3, 20879, Note_on_c, 1, 66, 0
3, 20879, Note_on_c, 1, 62, 0
3, 20976, Note_on_c, 1, 69, 63
3, 20976, Note_on_c, 1, 62, 63
3, 20996, Note_on_c, 1, 69, 0
3, 20996, Note_on_c, 1, 62, 0
3, 21024, Note_on_c, 1, 69, 63
3, 21024, Note_on_c, 1, 62, 63
3, 21071, Note_on_c, 1, 69, 0
3, 21071, Note_on_c, 1, 62, 0
3, 21168, Note_on_c, 1, 67, 63
3, 21168, Note_on_c, 1, 62, 63
3, 21188, Note_on_c, 1, 67, 0
3, 21188, Note_on_c, 1, 62, 0
3, 21216, Note_on_c, 1, 67, 63
3, 21216, Note_on_c, 1, 62, 63
3, 21263, Note_on_c, 1, 67, 0
3, 21263, Note_on_c, 1, 62, 0
3, 21360, Note_on_c, 1, 67, 63
3, 21360, Note_on_c, 1, 64, 63
3, 21360, Note_on_c, 1, 62, 63
3, 21407, Note_on_c, 1, 67, 0
3, 21407, Note_on_c, 1, 64, 0
3, 21407, Note_on_c, 1, 62, 0
3, 21408, Note_on_c, 1, 67, 68
3, 21408, Note_on_c, 1, 64, 68
3, 21408, Note_on_c, 1, 62, 68
3, 21455, Note_on_c, 1, 67, 0
3, 21455, Note_on_c, 1, 64, 0
3, 21455, Note_on_c, 1, 62, 0
3, 21456, Note_on_c, 1, 67, 73
3, 21456, Note_on_c, 1, 64, 73
3, 21456, Note_on_c, 1, 62, 73
3, 21503, Note_on_c, 1, 67, 0
3, 21503, Note_on_c, 1, 64, 0
3, 21503, Note_on_c, 1, 62, 0
3, 21504, Note_on_c, 1, 66, 78
3, 21504, Note_on_c, 1, 62, 78
3, 21593, Note_on_c, 1, 66, 0
3, 21593, Note_on_c, 1, 62, 0
3, 21696, Note_on_c, 1, 64, 78
3, 21696, Note_on_c, 1, 61, 78
3, 21785, Note_on_c, 1, 64, 0
3, 21785, Note_on_c, 1, 61, 0
3, 21888, Note_on_c, 1, 66, 70
3, 21888, Note_on_c, 1, 62, 70
3, 21977, Note_on_c, 1, 66, 0
3, 21977, Note_on_c, 1, 62, 0
3, 22080, Note_on_c, 1, 64, 70
3, 22080, Note_on_c, 1, 61, 70
3, 22169, Note_on_c, 1, 64, 0
3, 22169, Note_on_c, 1, 61, 0
3, 22272, Note_on_c, 1, 62, 78
3, 22317, Note_on_c, 1, 62, 0
3, 22320, Note_on_c, 1, 57, 78
3, 22365, Note_on_c, 1, 57, 0
3, 22368, Note_on_c, 1, 64, 78
3, 22413, Note_on_c, 1, 64, 0
3, 22416, Note_on_c, 1, 57, 78
3, 22461, Note_on_c, 1, 57, 0
3, 22464, Note_on_c, 1, 66, 78
3, 22509, Note_on_c, 1, 66, 0
3, 22512, Note_on_c, 1, 57, 78
3, 22557, Note_on_c, 1, 57, 0
3, 22560, Note_on_c, 1, 64, 78
3, 22605, Note_on_c, 1, 64, 0
3, 22608, Note_on_c, 1, 57, 78
3, 22653, Note_on_c, 1, 57, 0
3, 22656, Note_on_c, 1, 62, 78
3, 22701, Note_on_c, 1, 62, 0
3, 22704, Note_on_c, 1, 57, 78
3, 22749, Note_on_c, 1, 57, 0
3, 22752, Note_on_c, 1, 64, 78
3, 22797, Note_on_c, 1, 64, 0
3, 22800, Note_on_c, 1, 57, 78
3, 22845, Note_on_c, 1, 57, 0
3, 22848, Note_on_c, 1, 66, 78
3, 22893, Note_on_c, 1, 66, 0
3, 22896, Note_on_c, 1, 57, 78
3, 22941, Note_on_c, 1, 57, 0
3, 22944, Note_on_c, 1, 64, 78
3, 22989, Note_on_c, 1, 64, 0
3, 22992, Note_on_c, 1, 57, 78
3, 23037, Note_on_c, 1, 57, 0
3, 23040, Note_on_c, 1, 62, 78
3, 23085, Note_on_c, 1, 62, 0
3, 23088, Note_on_c, 1, 64, 78
3, 23133, Note_on_c, 1, 64, 0
3, 23136, Note_on_c, 1, 66, 79
3, 23181, Note_on_c, 1, 66, 0
3, 23184, Note_on_c, 1, 67, 80
3, 23229, Note_on_c, 1, 67, 0
3, 23232, Note_on_c, 1, 69, 82
3, 23277, Note_on_c, 1, 69, 0
3, 23280, Note_on_c, 1, 62, 83
3, 23325, Note_on_c, 1, 62, 0
3, 23424, Control_c, 1, 64, 127
3, 23424, Note_on_c, 1, 50, 85
3, 23447, Note_on_c, 1, 50, 0
3, 23448, Note_on_c, 1, 54, 85
3, 23471, Note_on_c, 1, 54, 0
3, 23616, Note_on_c, 1, 50, 85
3, 23616, Note_on_c, 1, 38, 85
3, 23661, Note_on_c, 1, 50, 0
3, 23661, Note_on_c, 1, 38, 0
3, 23712, Control_c, 1, 64, 0
3, 23808, Control_c, 1, 64, 127
3, 23808, Note_on_c, 1, 61, 85
3, 23831, Note_on_c, 1, 61, 0
3, 23832, Note_on_c, 1, 64, 85
3, 23855, Note_on_c, 1, 64, 0
3, 24000, Note_on_c, 1, 45, 85
3, 24000, Note_on_c, 1, 33, 85
3, 24045, Note_on_c, 1, 45, 0
3, 24045, Note_on_c, 1, 33, 0
3, 24096, Control_c, 1, 64, 0
3, 25344, Note_on_c, 1, 57, 85
3, 25389, Note_on_c, 1, 57, 0
3, 25392, Note_on_c, 1, 59, 85
3, 25437, Note_on_c, 1, 59, 0
3, 25440, Note_on_c, 1, 61, 85
3, 25485, Note_on_c, 1, 61, 0
3, 25488, Note_on_c, 1, 62, 85
3, 25533, Note_on_c, 1, 62, 0
3, 25536, Note_on_c, 1, 64, 85
3, 25625, Note_on_c, 1, 64, 0
3, 25728, Note_on_c, 1, 50, 85
3, 25773, Note_on_c, 1, 50, 0
3, 25776, Note_on_c, 1, 52, 85
3, 25821, Note_on_c, 1, 52, 0
3, 25824, Note_on_c, 1, 54, 85
3, 25869, Note_on_c, 1, 54, 0
3, 25872, Note_on_c, 1, 55, 85
3, 25917, Note_on_c, 1, 55, 0
3, 25920, Note_on_c, 1, 54, 85
3, 25965, Note_on_c, 1, 54, 0
3, 25968, Note_on_c, 1, 55, 83
3, 26013, Note_on_c, 1, 55, 0
3, 26016, Note_on_c, 1, 54, 81
3, 26061, Note_on_c, 1, 54, 0
3, 26064, Note_on_c, 1, 52, 79
3, 26109, Note_on_c, 1, 52, 0
3, 26112, Note_on_c, 1, 50, 78
3, 26157, Note_on_c, 1, 50, 0
3, 26160, Note_on_c, 1, 52, 78
3, 26205, Note_on_c, 1, 52, 0
3, 26208, Note_on_c, 1, 54, 78
3, 26253, Note_on_c, 1, 54, 0
3, 26256, Note_on_c, 1, 55, 78
3, 26301, Note_on_c, 1, 55, 0
3, 26304, Note_on_c, 1, 54, 78
3, 26349, Note_on_c, 1, 54, 0
3, 26352, Note_on_c, 1, 55, 78
3, 26397, Note_on_c, 1, 55, 0
3, 26400, Note_on_c, 1, 54, 78
3, 26445, Note_on_c, 1, 54, 0
3, 26544, Note_on_c, 1, 59, 70
3, 26544, Note_on_c, 1, 55, 70
3, 26564, Note_on_c, 1, 59, 0
3, 26564, Note_on_c, 1, 55, 0
3, 26592, Note_on_c, 1, 59, 70
3, 26592, Note_on_c, 1, 55, 70
3, 26639, Note_on_c, 1, 59, 0
3, 26639, Note_on_c, 1, 55, 0
3, 26736, Note_on_c, 1, 54, 78
3, 26781, Note_on_c, 1, 54, 0
3, 26784, Note_on_c, 1, 55, 78
3, 26829, Note_on_c, 1, 55, 0
3, 26832, Note_on_c, 1, 57, 78
3, 26877, Note_on_c, 1, 57, 0
3, 26880, Note_on_c, 1, 50, 78
3, 26969, Note_on_c, 1, 50, 0
3, 27024, Note_on_c, 1, 67, 78
3, 27024, Note_on_c, 1, 61, 78
3, 27069, Note_on_c, 1, 67, 0
3, 27069, Note_on_c, 1, 61, 0
3, 27072, Note_on_c, 1, 66, 78
3, 27072, Note_on_c, 1, 62, 78
3, 27161, Note_on_c, 1, 66, 0
3, 27161, Note_on_c, 1, 62, 0
3, 27216, Note_on_c, 1, 67, 78
3, 27216, Note_on_c, 1, 61, 78
3, 27261, Note_on_c, 1, 67, 0
3, 27261, Note_on_c, 1, 61, 0
3, 27264, Note_on_c, 1, 66, 78
3, 27264, Note_on_c, 1, 62, 78
3, 27353, Note_on_c, 1, 66, 0
3, 27353, Note_on_c, 1, 62, 0
3, 27408, Note_on_c, 1, 54, 78
3, 27453, Note_on_c, 1, 54, 0
3, 27456, Note_on_c, 1, 55, 78
3, 27545, Note_on_c, 1, 55, 0
3, 27696, Note_on_c, 1, 54, 78
3, 27741, Note_on_c, 1, 54, 0
3, 27744, Note_on_c, 1, 55, 78
3, 27789, Note_on_c, 1, 55, 0
3, 27792, Note_on_c, 1, 57, 78
3, 27837, Note_on_c, 1, 57, 0
3, 27840, Note_on_c, 1, 50, 78
3, 27929, Note_on_c, 1, 50, 0
3, 27984, Note_on_c, 1, 67, 78
3, 27984, Note_on_c, 1, 61, 78
3, 28029, Note_on_c, 1, 67, 0
3, 28029, Note_on_c, 1, 61, 0
3, 28032, Note_on_c, 1, 66, 78
3, 28032, Note_on_c, 1, 62, 78
3, 28121, Note_on_c, 1, 66, 0
3, 28121, Note_on_c, 1, 62, 0
3, 28176, Note_on_c, 1, 67, 78
3, 28176, Note_on_c, 1, 61, 78
3, 28221, Note_on_c, 1, 67, 0
3, 28221, Note_on_c, 1, 61, 0
3, 28224, Note_on_c, 1, 66, 78
3, 28224, Note_on_c, 1, 62, 78
3, 28313, Note_on_c, 1, 66, 0
3, 28313, Note_on_c, 1, 62, 0
3, 28368, Note_on_c, 1, 66, 78
3, 28413, Note_on_c, 1, 66, 0
3, 28416, Note_on_c, 1, 67, 78
3, 28505, Note_on_c, 1, 67, 0
3, 28656, Note_on_c, 1, 66, 78
3, 28701, Note_on_c, 1, 66, 0
3, 28704, Note_on_c, 1, 67, 78
3, 28749, Note_on_c, 1, 67, 0
3, 28752, Note_on_c, 1, 69, 78
3, 28797, Note_on_c, 1, 69, 0
3, 28800, Note_on_c, 1, 62, 78
3, 28889, Note_on_c, 1, 62, 0
3, 28992, Note_on_c, 1, 50, 85
3, 28992, Note_on_c, 1, 38, 85
3, 29081, Note_on_c, 1, 50, 0
3, 29081, Note_on_c, 1, 38, 0
3, 29232, Note_on_c, 1, 61, 63
3, 29232, Note_on_c, 1, 57, 63
3, 29252, Note_on_c, 1, 61, 0
3, 29252, Note_on_c, 1, 57, 0
3, 29280, Note_on_c, 1, 61, 63
3, 29280, Note_on_c, 1, 57, 63
3, 29327, Note_on_c, 1, 61, 0
3, 29327, Note_on_c, 1, 57, 0
3, 29424, Note_on_c, 1, 64, 63
3, 29424, Note_on_c, 1, 57, 63
3, 29444, Note_on_c, 1, 64, 0
3, 29444, Note_on_c, 1, 57, 0
3, 29472, Note_on_c, 1, 64, 63
3, 29472, Note_on_c, 1, 57, 63
3, 29519, Note_on_c, 1, 64, 0
3, 29519, Note_on_c, 1, 57, 0
3, 29616, Note_on_c, 1, 62, 63
3, 29616, Note_on_c, 1, 57, 63
3, 29636, Note_on_c, 1, 62, 0
3, 29636, Note_on_c, 1, 57, 0
3, 29664, Note_on_c, 1, 62, 63
3, 29664, Note_on_c, 1, 57, 63
3, 29711, Note_on_c, 1, 62, 0
3, 29711, Note_on_c, 1, 57, 0
3, 29808, Note_on_c, 1, 62, 63
3, 29808, Note_on_c, 1, 59, 63
3, 29808, Note_on_c, 1, 57, 63
3, 29855, Note_on_c, 1, 62, 0
3, 29855, Note_on_c, 1, 59, 0
3, 29855, Note_on_c, 1, 57, 0
3, 29856, Note_on_c, 1, 62, 68
3, 29856, Note_on_c, 1, 59, 68
3, 29856, Note_on_c, 1, 57, 68
3, 29903, Note_on_c, 1, 62, 0
3, 29903, Note_on_c, 1, 59, 0
3, 29903, Note_on_c, 1, 57, 0
3, 29904, Note_on_c, 1, 62, 73
3, 29904, Note_on_c, 1, 59, 73
3, 29904, Note_on_c, 1, 57, 73
3, 29951, Note_on_c, 1, 62, 0
3, 29951, Note_on_c, 1, 59, 0
3, 29951, Note_on_c, 1, 57, 0
3, 29952, Note_on_c, 1, 61, 78
3, 29952, Note_on_c, 1, 57, 78
3, 30041, Note_on_c, 1, 61, 0
3, 30041, Note_on_c, 1, 57, 0
3, 32448, Control_c, 1, 64, 127
3, 32448, Note_on_c, 1, 54, 85
3, 32448, Note_on_c, 1, 42, 85
3, 32537, Note_on_c, 1, 54, 0
3, 32537, Note_on_c, 1, 42, 0
3, 32544, Control_c, 1, 64, 0
3, 32688, Note_on_c, 1, 62, 54
3, 32688, Note_on_c, 1, 59, 54
3, 32708, Note_on_c, 1, 62, 0
3, 32708, Note_on_c, 1, 59, 0
3, 32736, Note_on_c, 1, 62, 54
3, 32736, Note_on_c, 1, 59, 54
3, 32783, Note_on_c, 1, 62, 0
3, 32783, Note_on_c, 1, 59, 0
3, 32880, Note_on_c, 1, 62, 54
3, 32880, Note_on_c, 1, 59, 54
3, 32900, Note_on_c, 1, 62, 0
3, 32900, Note_on_c, 1, 59, 0
3, 32928, Note_on_c, 1, 62, 54
3, 32928, Note_on_c, 1, 59, 54
3, 32975, Note_on_c, 1, 62, 0
3, 32975, Note_on_c, 1, 59, 0
3, 33072, Note_on_c, 1, 64, 55
3, 33072, Note_on_c, 1, 59, 55
3, 33092, Note_on_c, 1, 64, 0
3, 33092, Note_on_c, 1, 59, 0
3, 33120, Note_on_c, 1, 64, 56
3, 33120, Note_on_c, 1, 59, 56
3, 33167, Note_on_c, 1, 64, 0
3, 33167, Note_on_c, 1, 59, 0
3, 33264, Note_on_c, 1, 64, 60
3, 33264, Note_on_c, 1, 61, 60
3, 33264, Note_on_c, 1, 59, 60
3, 33284, Note_on_c, 1, 64, 0
3, 33284, Note_on_c, 1, 61, 0
3, 33284, Note_on_c, 1, 59, 0
3, 33312, Note_on_c, 1, 64, 61
3, 33312, Note_on_c, 1, 61, 61
3, 33312, Note_on_c, 1, 59, 61
3, 33359, Note_on_c, 1, 64, 0
3, 33359, Note_on_c, 1, 61, 0
3, 33359, Note_on_c, 1, 59, 0
3, 33456, Note_on_c, 1, 66, 65
3, 33456, Note_on_c, 1, 63, 65
3, 33456, Note_on_c, 1, 57, 65
3, 33476, Note_on_c, 1, 66, 0
3, 33476, Note_on_c, 1, 63, 0
3, 33476, Note_on_c, 1, 57, 0
3, 33504, Note_on_c, 1, 66, 66
3, 33504, Note_on_c, 1, 63, 66
3, 33504, Note_on_c, 1, 57, 66
3, 33551, Note_on_c, 1, 66, 0
3, 33551, Note_on_c, 1, 63, 0
3, 33551, Note_on_c, 1, 57, 0
3, 33648, Note_on_c, 1, 59, 70
3, 33648, Note_on_c, 1, 57, 70
3, 33668, Note_on_c, 1, 59, 0
3, 33668, Note_on_c, 1, 57, 0
3, 33696, Note_on_c, 1, 59, 71
3, 33696, Note_on_c, 1, 57, 71
3, 33743, Note_on_c, 1, 59, 0
3, 33743, Note_on_c, 1, 57, 0
3, 33840, Note_on_c, 1, 59, 75
3, 33840, Note_on_c, 1, 55, 75
3, 33860, Note_on_c, 1, 59, 0
3, 33860, Note_on_c, 1, 55, 0
3, 33888, Note_on_c, 1, 59, 76
3, 33888, Note_on_c, 1, 55, 76
3, 33935, Note_on_c, 1, 59, 0
3, 33935, Note_on_c, 1, 55, 0
3, 34032, Note_on_c, 1, 57, 80
3, 34032, Note_on_c, 1, 55, 80
3, 34052, Note_on_c, 1, 57, 0
3, 34052, Note_on_c, 1, 55, 0
3, 34080, Note_on_c, 1, 57, 81
3, 34080, Note_on_c, 1, 55, 81
3, 34127, Note_on_c, 1, 57, 0
3, 34127, Note_on_c, 1, 55, 0
3, 34176, Note_on_c, 1, 54, 83
3, 34221, Note_on_c, 1, 54, 0
3, 34224, Note_on_c, 1, 66, 85
3, 34269, Note_on_c, 1, 66, 0
3, 34272, Note_on_c, 1, 64, 85
3, 34317, Note_on_c, 1, 64, 0
3, 34320, Note_on_c, 1, 62, 85
3, 34365, Note_on_c, 1, 62, 0
3, 34368, Note_on_c, 1, 61, 85
3, 34413, Note_on_c, 1, 61, 0
3, 34416, Note_on_c, 1, 62, 85
3, 34461, Note_on_c, 1, 62, 0
3, 34464, Note_on_c, 1, 61, 85
3, 34509, Note_on_c, 1, 61, 0
3, 34512, Note_on_c, 1, 59, 85
3, 34557, Note_on_c, 1, 59, 0
3, 34560, Note_on_c, 1, 57, 85
3, 34605, Note_on_c, 1, 57, 0
3, 34608, Note_on_c, 1, 62, 85
3, 34653, Note_on_c, 1, 62, 0
3, 34656, Note_on_c, 1, 61, 83
3, 34701, Note_on_c, 1, 61, 0
3, 34704, Note_on_c, 1, 59, 81
3, 34749, Note_on_c, 1, 59, 0
3, 34752, Note_on_c, 1, 57, 79
3, 34797, Note_on_c, 1, 57, 0
3, 34800, Note_on_c, 1, 62, 78
3, 34845, Note_on_c, 1, 62, 0
3, 34848, Note_on_c, 1, 61, 76
3, 34893, Note_on_c, 1, 61, 0
3, 34896, Note_on_c, 1, 59, 74
3, 34941, Note_on_c, 1, 59, 0
3, 34944, Note_on_c, 1, 57, 73
3, 34989, Note_on_c, 1, 57, 0
3, 34992, Note_on_c, 1, 62, 71
3, 35037, Note_on_c, 1, 62, 0
3, 35040, Note_on_c, 1, 61, 69
3, 35085, Note_on_c, 1, 61, 0
3, 35088, Note_on_c, 1, 59, 68
3, 35133, Note_on_c, 1, 59, 0
3, 35136, Note_on_c, 1, 57, 66
3, 35230, Note_on_c, 1, 57, 0
3, 35376, Note_on_c, 1, 66, 63
3, 35376, Note_on_c, 1, 62, 63
3, 35396, Note_on_c, 1, 66, 0
3, 35396, Note_on_c, 1, 62, 0
3, 35424, Note_on_c, 1, 66, 63
3, 35424, Note_on_c, 1, 62, 63
3, 35471, Note_on_c, 1, 66, 0
3, 35471, Note_on_c, 1, 62, 0
3, 35568, Note_on_c, 1, 69, 63
3, 35568, Note_on_c, 1, 62, 63
3, 35588, Note_on_c, 1, 69, 0
3, 35588, Note_on_c, 1, 62, 0
3, 35616, Note_on_c, 1, 69, 63
3, 35616, Note_on_c, 1, 62, 63
3, 35663, Note_on_c, 1, 69, 0
3, 35663, Note_on_c, 1, 62, 0
3, 35760, Note_on_c, 1, 67, 63
3, 35760, Note_on_c, 1, 62, 63
3, 35780, Note_on_c, 1, 67, 0
3, 35780, Note_on_c, 1, 62, 0
3, 35808, Note_on_c, 1, 67, 63
3, 35808, Note_on_c, 1, 62, 63
3, 35855, Note_on_c, 1, 67, 0
3, 35855, Note_on_c, 1, 62, 0
3, 35952, Note_on_c, 1, 67, 63
3, 35952, Note_on_c, 1, 64, 63
3, 35952, Note_on_c, 1, 62, 63
3, 35999, Note_on_c, 1, 67, 0
3, 35999, Note_on_c, 1, 64, 0
3, 35999, Note_on_c, 1, 62, 0
3, 36000, Note_on_c, 1, 67, 68
3, 36000, Note_on_c, 1, 64, 68
3, 36000, Note_on_c, 1, 62, 68
3, 36047, Note_on_c, 1, 67, 0
3, 36047, Note_on_c, 1, 64, 0
3, 36047, Note_on_c, 1, 62, 0
3, 36048, Note_on_c, 1, 67, 73
3, 36048, Note_on_c, 1, 64, 73
3, 36048, Note_on_c, 1, 62, 73
3, 36095, Note_on_c, 1, 67, 0
3, 36095, Note_on_c, 1, 64, 0
3, 36095, Note_on_c, 1, 62, 0
3, 36096, Note_on_c, 1, 66, 78
3, 36096, Note_on_c, 1, 62, 78
3, 36185, Note_on_c, 1, 66, 0
3, 36185, Note_on_c, 1, 62, 0
3, 36288, Note_on_c, 1, 64, 78
3, 36288, Note_on_c, 1, 61, 78
3, 36377, Note_on_c, 1, 64, 0
3, 36377, Note_on_c, 1, 61, 0
3, 36480, Note_on_c, 1, 66, 70
3, 36480, Note_on_c, 1, 62, 70
3, 36569, Note_on_c, 1, 66, 0
3, 36569, Note_on_c, 1, 62, 0
3, 36672, Note_on_c, 1, 64, 70
3, 36672, Note_on_c, 1, 61, 70
3, 36761, Note_on_c, 1, 64, 0
3, 36761, Note_on_c, 1, 61, 0
3, 36864, Note_on_c, 1, 62, 78
3, 36909, Note_on_c, 1, 62, 0
3, 36912, Note_on_c, 1, 57, 78
3, 36957, Note_on_c, 1, 57, 0
3, 36960, Note_on_c, 1, 64, 78
3, 37005, Note_on_c, 1, 64, 0
3, 37008, Note_on_c, 1, 57, 78
3, 37053, Note_on_c, 1, 57, 0
3, 37056, Note_on_c, 1, 66, 78
3, 37101, Note_on_c, 1, 66, 0
3, 37104, Note_on_c, 1, 57, 78
3, 37149, Note_on_c, 1, 57, 0
3, 37152, Note_on_c, 1, 64, 78
3, 37197, Note_on_c, 1, 64, 0
3, 37200, Note_on_c, 1, 57, 78
3, 37245, Note_on_c, 1, 57, 0
3, 37248, Note_on_c, 1, 62, 78
3, 37293, Note_on_c, 1, 62, 0
3, 37296, Note_on_c, 1, 57, 78
3, 37341, Note_on_c, 1, 57, 0
3, 37344, Note_on_c, 1, 64, 78
3, 37389, Note_on_c, 1, 64, 0
3, 37392, Note_on_c, 1, 57, 78
3, 37437, Note_on_c, 1, 57, 0
3, 37440, Note_on_c, 1, 66, 78
3, 37485, Note_on_c, 1, 66, 0
3, 37488, Note_on_c, 1, 57, 78
3, 37533, Note_on_c, 1, 57, 0
3, 37536, Note_on_c, 1, 64, 78
3, 37581, Note_on_c, 1, 64, 0
3, 37584, Note_on_c, 1, 57, 78
3, 37629, Note_on_c, 1, 57, 0
3, 37632, Note_on_c, 1, 62, 78
3, 37677, Note_on_c, 1, 62, 0
3, 37680, Note_on_c, 1, 64, 78
3, 37725, Note_on_c, 1, 64, 0
3, 37728, Note_on_c, 1, 66, 79
3, 37773, Note_on_c, 1, 66, 0
3, 37776, Note_on_c, 1, 67, 80
3, 37821, Note_on_c, 1, 67, 0
3, 37824, Note_on_c, 1, 69, 82
3, 37869, Note_on_c, 1, 69, 0
3, 37872, Note_on_c, 1, 62, 83
3, 37917, Note_on_c, 1, 62, 0
3, 38016, Control_c, 1, 64, 127
3, 38016, Note_on_c, 1, 50, 85
3, 38039, Note_on_c, 1, 50, 0
3, 38040, Note_on_c, 1, 54, 85
3, 38063, Note_on_c, 1, 54, 0
3, 38208, Note_on_c, 1, 50, 85
3, 38208, Note_on_c, 1, 38, 85
3, 38253, Note_on_c, 1, 50, 0
3, 38253, Note_on_c, 1, 38, 0
3, 38304, Control_c, 1, 64, 0
3, 38400, Control_c, 1, 64, 127
3, 38400, Note_on_c, 1, 61, 85
3, 38423, Note_on_c, 1, 61, 0
3, 38424, Note_on_c, 1, 64, 85
3, 38447, Note_on_c, 1, 64, 0
3, 38592, Note_on_c, 1, 45, 85
3, 38592, Note_on_c, 1, 33, 85
3, 38637, Note_on_c, 1, 45, 0
3, 38637, Note_on_c, 1, 33, 0
3, 38688, Control_c, 1, 64, 0
3, 39936, Note_on_c, 1, 57, 85
3, 39981, Note_on_c, 1, 57, 0
3, 39984, Note_on_c, 1, 59, 85
3, 40029, Note_on_c, 1, 59, 0
3, 40032, Note_on_c, 1, 61, 85
3, 40077, Note_on_c, 1, 61, 0
3, 40080, Note_on_c, 1, 62, 85
3, 40125, Note_on_c, 1, 62, 0
3, 40128, Note_on_c, 1, 64, 85
3, 40217, Note_on_c, 1, 64, 0
3, 40320, Note_on_c, 1, 50, 85
3, 40365, Note_on_c, 1, 50, 0
3, 40368, Note_on_c, 1, 52, 85
3, 40413, Note_on_c, 1, 52, 0
3, 40416, Note_on_c, 1, 54, 85
3, 40461, Note_on_c, 1, 54, 0
3, 40464, Note_on_c, 1, 55, 85
3, 40509, Note_on_c, 1, 55, 0
3, 40512, Note_on_c, 1, 54, 85
3, 40557, Note_on_c, 1, 54, 0
3, 40560, Note_on_c, 1, 55, 83
3, 40605, Note_on_c, 1, 55, 0
3, 40608, Note_on_c, 1, 54, 81
3, 40653, Note_on_c, 1, 54, 0
3, 40656, Note_on_c, 1, 52, 79
3, 40701, Note_on_c, 1, 52, 0
3, 40704, Note_on_c, 1, 50, 78
3, 40749, Note_on_c, 1, 50, 0
3, 40752, Note_on_c, 1, 52, 78
3, 40797, Note_on_c, 1, 52, 0
3, 40800, Note_on_c, 1, 54, 78
3, 40845, Note_on_c, 1, 54, 0
3, 40848, Note_on_c, 1, 55, 78
3, 40893, Note_on_c, 1, 55, 0
3, 40896, Note_on_c, 1, 54, 78
3, 40941, Note_on_c, 1, 54, 0
3, 40944, Note_on_c, 1, 55, 78
3, 40989, Note_on_c, 1, 55, 0
3, 40992, Note_on_c, 1, 54, 78
3, 41037, Note_on_c, 1, 54, 0
3, 41136, Note_on_c, 1, 59, 70
3, 41136, Note_on_c, 1, 55, 70
3, 41156, Note_on_c, 1, 59, 0
3, 41156, Note_on_c, 1, 55, 0
3, 41184, Note_on_c, 1, 59, 70
3, 41184, Note_on_c, 1, 55, 70
3, 41231, Note_on_c, 1, 59, 0
3, 41231, Note_on_c, 1, 55, 0
3, 41328, Note_on_c, 1, 54, 78
3, 41373, Note_on_c, 1, 54, 0
3, 41376, Note_on_c, 1, 55, 78
3, 41421, Note_on_c, 1, 55, 0
3, 41424, Note_on_c, 1, 57, 78
3, 41469, Note_on_c, 1, 57, 0
3, 41472, Note_on_c, 1, 50, 78
3, 41561, Note_on_c, 1, 50, 0
3, 41616, Note_on_c, 1, 67, 78
3, 41616, Note_on_c, 1, 61, 78
3, 41661, Note_on_c, 1, 67, 0
3, 41661, Note_on_c, 1, 61, 0
3, 41664, Note_on_c, 1, 66, 78
3, 41664, Note_on_c, 1, 62, 78
3, 41753, Note_on_c, 1, 66, 0
3, 41753, Note_on_c, 1, 62, 0
3, 41808, Note_on_c, 1, 67, 78
3, 41808, Note_on_c, 1, 61, 78
3, 41853, Note_on_c, 1, 67, 0
3, 41853, Note_on_c, 1, 61, 0
3, 41856, Note_on_c, 1, 66, 78
3, 41856, Note_on_c, 1, 62, 78
3, 41945, Note_on_c, 1, 66, 0
3, 41945, Note_on_c, 1, 62, 0
3, 42000, Note_on_c, 1, 54, 78
3, 42045, Note_on_c, 1, 54, 0
3, 42048, Note_on_c, 1, 55, 78
3, 42137, Note_on_c, 1, 55, 0
3, 42288, Note_on_c, 1, 54, 78
3, 42333, Note_on_c, 1, 54, 0
3, 42336, Note_on_c, 1, 55, 78
3, 42381, Note_on_c, 1, 55, 0
3, 42384, Note_on_c, 1, 57, 78
3, 42429, Note_on_c, 1, 57, 0
3, 42432, Note_on_c, 1, 50, 78
3, 42521, Note_on_c, 1, 50, 0
3, 42576, Note_on_c, 1, 67, 78
3, 42576, Note_on_c, 1, 61, 78
3, 42621, Note_on_c, 1, 67, 0
3, 42621, Note_on_c, 1, 61, 0
3, 42624, Note_on_c, 1, 66, 78
3, 42624, Note_on_c, 1, 62, 78
3, 42713, Note_on_c, 1, 66, 0
3, 42713, Note_on_c, 1, 62, 0
3, 42768, Note_on_c, 1, 67, 78
3, 42768, Note_on_c, 1, 61, 78
3, 42813, Note_on_c, 1, 67, 0
3, 42813, Note_on_c, 1, 61, 0
3, 42816, Note_on_c, 1, 66, 78
3, 42816, Note_on_c, 1, 62, 78
3, 42905, Note_on_c, 1, 66, 0
3, 42905, Note_on_c, 1, 62, 0
3, 42960, Note_on_c, 1, 66, 78
3, 43005, Note_on_c, 1, 66, 0
3, 43008, Note_on_c, 1, 67, 78
3, 43097, Note_on_c, 1, 67, 0
3, 43248, Note_on_c, 1, 66, 78
3, 43293, Note_on_c, 1, 66, 0
3, 43296, Note_on_c, 1, 67, 78
3, 43341, Note_on_c, 1, 67, 0
3, 43344, Note_on_c, 1, 69, 78
3, 43389, Note_on_c, 1, 69, 0
3, 43392, Note_on_c, 1, 62, 78
3, 43481, Note_on_c, 1, 62, 0
3, 43584, Note_on_c, 1, 50, 85
3, 43584, Note_on_c, 1, 38, 85
3, 43673, Note_on_c, 1, 50, 0
3, 43673, Note_on_c, 1, 38, 0
3, 43776, Note_on_c, 1, 38, 0
3, 44130, Note_on_c, 1, 38, 0
3, 44160, End_track
4, 0, Start_track
4, 0, Title_t, "<No Title>"
4, 0, End_track
0, 0, End_of_file
