0, 0, Header, 1, 6, 96
1, 0, Start_track
1, 0, Copyright_t, "Copyright  1994-2002 Mozart Music Software"
1, 0, Text_t, "Sonata I\015\012"
1, 0, Text_t, "Haydn\015\012"
1, 0, Sequencer_specific, 16, 68, 87, 77, 90, 86, 82, 83, 78, 32, 55, 46, 48, 46, 55, 46, 48
1, 0, Time_signature, 2, 2, 24, 8
1, 0, Tempo, 200000
1, 0, Key_signature, -2, "major"
1, 168, Tempo, 923076
1, 7656, Tempo, 923076
1, 16512, Tempo, 1200000
1, 16608, Tempo, 923076
1, 31488, Tempo, 1200000
1, 31584, Tempo, 923076
1, 45120, End_track
2, 0, Start_track
2, 0, Program_c, 0, 0
2, 0, Control_c, 0, 7, 127
2, 0, Control_c, 0, 10, 64
2, 168, Note_on_c, 0, 70, 64
2, 178, Note_on_c, 0, 70, 0
2, 192, Note_on_c, 0, 72, 64
2, 198, Note_on_c, 0, 72, 0
2, 198, Note_on_c, 0, 70, 64
2, 204, Note_on_c, 0, 70, 0
2, 204, Note_on_c, 0, 69, 64
2, 210, Note_on_c, 0, 69, 0
2, 210, Note_on_c, 0, 70, 64
2, 226, Note_on_c, 0, 70, 0
2, 228, Note_on_c, 0, 74, 64
2, 240, Note_on_c, 0, 74, 0
2, 240, Note_on_c, 0, 75, 64
2, 246, Note_on_c, 0, 75, 0
2, 246, Note_on_c, 0, 74, 64
2, 252, Note_on_c, 0, 74, 0
2, 252, Note_on_c, 0, 72, 64
2, 258, Note_on_c, 0, 72, 0
2, 258, Note_on_c, 0, 74, 64
2, 274, Note_on_c, 0, 74, 0
2, 276, Note_on_c, 0, 77, 64
2, 288, Note_on_c, 0, 77, 0
2, 288, Note_on_c, 0, 79, 64
2, 294, Note_on_c, 0, 79, 0
2, 294, Note_on_c, 0, 77, 64
2, 300, Note_on_c, 0, 77, 0
2, 300, Note_on_c, 0, 75, 64
2, 306, Note_on_c, 0, 75, 0
2, 306, Note_on_c, 0, 77, 64
2, 322, Note_on_c, 0, 77, 0
2, 324, Note_on_c, 0, 82, 64
2, 336, Note_on_c, 0, 82, 0
2, 336, Note_on_c, 0, 81, 64
2, 370, Note_on_c, 0, 81, 0
2, 372, Note_on_c, 0, 79, 64
2, 384, Note_on_c, 0, 79, 0
2, 384, Note_on_c, 0, 79, 64
2, 418, Note_on_c, 0, 79, 0
2, 420, Note_on_c, 0, 77, 64
2, 432, Note_on_c, 0, 77, 0
2, 432, Note_on_c, 0, 77, 64
2, 514, Note_on_c, 0, 77, 0
2, 516, Note_on_c, 0, 79, 64
2, 528, Note_on_c, 0, 79, 0
2, 528, Note_on_c, 0, 75, 64
2, 562, Note_on_c, 0, 75, 0
2, 564, Note_on_c, 0, 77, 64
2, 576, Note_on_c, 0, 77, 0
2, 576, Note_on_c, 0, 74, 64
2, 610, Note_on_c, 0, 74, 0
2, 612, Note_on_c, 0, 75, 64
2, 624, Note_on_c, 0, 75, 0
2, 624, Note_on_c, 0, 72, 64
2, 658, Note_on_c, 0, 72, 0
2, 660, Note_on_c, 0, 74, 64
2, 672, Note_on_c, 0, 74, 0
2, 672, Note_on_c, 0, 70, 64
2, 706, Note_on_c, 0, 70, 0
2, 708, Note_on_c, 0, 72, 64
2, 720, Note_on_c, 0, 72, 0
2, 720, Note_on_c, 0, 69, 64
2, 754, Note_on_c, 0, 69, 0
2, 756, Note_on_c, 0, 72, 64
2, 768, Note_on_c, 0, 72, 0
2, 768, Note_on_c, 0, 72, 64
2, 780, Note_on_c, 0, 72, 0
2, 780, Note_on_c, 0, 70, 64
2, 792, Note_on_c, 0, 70, 0
2, 792, Note_on_c, 0, 69, 64
2, 804, Note_on_c, 0, 69, 0
2, 804, Note_on_c, 0, 70, 64
2, 816, Note_on_c, 0, 70, 0
2, 816, Note_on_c, 0, 65, 64
2, 861, Note_on_c, 0, 65, 0
2, 936, Note_on_c, 0, 70, 64
2, 946, Note_on_c, 0, 70, 0
2, 960, Note_on_c, 0, 72, 64
2, 966, Note_on_c, 0, 72, 0
2, 966, Note_on_c, 0, 70, 64
2, 972, Note_on_c, 0, 70, 0
2, 972, Note_on_c, 0, 69, 64
2, 978, Note_on_c, 0, 69, 0
2, 978, Note_on_c, 0, 70, 64
2, 994, Note_on_c, 0, 70, 0
2, 996, Note_on_c, 0, 74, 64
2, 1008, Note_on_c, 0, 74, 0
2, 1008, Note_on_c, 0, 75, 64
2, 1014, Note_on_c, 0, 75, 0
2, 1014, Note_on_c, 0, 74, 64
2, 1020, Note_on_c, 0, 74, 0
2, 1020, Note_on_c, 0, 72, 64
2, 1026, Note_on_c, 0, 72, 0
2, 1026, Note_on_c, 0, 74, 64
2, 1042, Note_on_c, 0, 74, 0
2, 1044, Note_on_c, 0, 77, 64
2, 1056, Note_on_c, 0, 77, 0
2, 1056, Note_on_c, 0, 79, 64
2, 1062, Note_on_c, 0, 79, 0
2, 1062, Note_on_c, 0, 77, 64
2, 1068, Note_on_c, 0, 77, 0
2, 1068, Note_on_c, 0, 75, 64
2, 1074, Note_on_c, 0, 75, 0
2, 1074, Note_on_c, 0, 77, 64
2, 1090, Note_on_c, 0, 77, 0
2, 1092, Note_on_c, 0, 82, 64
2, 1104, Note_on_c, 0, 82, 0
2, 1104, Note_on_c, 0, 81, 64
2, 1138, Note_on_c, 0, 81, 0
2, 1140, Note_on_c, 0, 79, 64
2, 1152, Note_on_c, 0, 79, 0
2, 1152, Note_on_c, 0, 79, 64
2, 1186, Note_on_c, 0, 79, 0
2, 1188, Note_on_c, 0, 77, 64
2, 1200, Note_on_c, 0, 77, 0
2, 1200, Note_on_c, 0, 77, 64
2, 1245, Note_on_c, 0, 77, 0
2, 1264, Note_on_c, 0, 84, 64
2, 1279, Note_on_c, 0, 84, 0
2, 1280, Note_on_c, 0, 82, 64
2, 1295, Note_on_c, 0, 82, 0
2, 1296, Note_on_c, 0, 81, 64
2, 1311, Note_on_c, 0, 81, 0
2, 1312, Note_on_c, 0, 79, 64
2, 1327, Note_on_c, 0, 79, 0
2, 1328, Note_on_c, 0, 77, 64
2, 1343, Note_on_c, 0, 77, 0
2, 1344, Note_on_c, 0, 75, 75
2, 1357, Note_on_c, 0, 75, 0
2, 1358, Note_on_c, 0, 74, 75
2, 1371, Note_on_c, 0, 74, 0
2, 1372, Note_on_c, 0, 73, 76
2, 1385, Note_on_c, 0, 73, 0
2, 1386, Note_on_c, 0, 74, 76
2, 1399, Note_on_c, 0, 74, 0
2, 1400, Note_on_c, 0, 75, 77
2, 1413, Note_on_c, 0, 75, 0
2, 1414, Note_on_c, 0, 76, 78
2, 1427, Note_on_c, 0, 76, 0
2, 1428, Note_on_c, 0, 77, 78
2, 1441, Note_on_c, 0, 77, 0
2, 1442, Note_on_c, 0, 78, 79
2, 1455, Note_on_c, 0, 78, 0
2, 1456, Note_on_c, 0, 81, 80
2, 1469, Note_on_c, 0, 81, 0
2, 1470, Note_on_c, 0, 79, 79
2, 1483, Note_on_c, 0, 79, 0
2, 1484, Note_on_c, 0, 77, 78
2, 1496, Note_on_c, 0, 77, 0
2, 1497, Note_on_c, 0, 75, 78
2, 1509, Note_on_c, 0, 75, 0
2, 1510, Note_on_c, 0, 74, 77
2, 1522, Note_on_c, 0, 74, 0
2, 1523, Note_on_c, 0, 72, 76
2, 1535, Note_on_c, 0, 72, 0
2, 1536, Note_on_c, 0, 70, 75
2, 1596, Note_on_c, 0, 70, 0
2, 1596, Note_on_c, 0, 69, 75
2, 1608, Note_on_c, 0, 69, 0
2, 1608, Note_on_c, 0, 72, 75
2, 1620, Note_on_c, 0, 72, 0
2, 1620, Note_on_c, 0, 69, 75
2, 1632, Note_on_c, 0, 69, 0
2, 1632, Note_on_c, 0, 70, 75
2, 1677, Note_on_c, 0, 70, 0
2, 1728, Note_on_c, 0, 75, 75
2, 1734, Note_on_c, 0, 75, 0
2, 1734, Note_on_c, 0, 74, 75
2, 1740, Note_on_c, 0, 74, 0
2, 1740, Note_on_c, 0, 72, 75
2, 1746, Note_on_c, 0, 72, 0
2, 1746, Note_on_c, 0, 74, 75
2, 1839, Note_on_c, 0, 74, 0
2, 1840, Note_on_c, 0, 75, 75
2, 1855, Note_on_c, 0, 75, 0
2, 1856, Note_on_c, 0, 74, 75
2, 1871, Note_on_c, 0, 74, 0
2, 1872, Note_on_c, 0, 75, 75
2, 1887, Note_on_c, 0, 75, 0
2, 1888, Note_on_c, 0, 74, 75
2, 1903, Note_on_c, 0, 74, 0
2, 1904, Note_on_c, 0, 72, 75
2, 1919, Note_on_c, 0, 72, 0
2, 1920, Note_on_c, 0, 70, 75
2, 1935, Note_on_c, 0, 70, 0
2, 1936, Note_on_c, 0, 74, 75
2, 1951, Note_on_c, 0, 74, 0
2, 1952, Note_on_c, 0, 78, 75
2, 1968, Note_on_c, 0, 78, 0
2, 1968, Note_on_c, 0, 79, 75
2, 1983, Note_on_c, 0, 79, 0
2, 1984, Note_on_c, 0, 74, 75
2, 1999, Note_on_c, 0, 74, 0
2, 2000, Note_on_c, 0, 81, 75
2, 2016, Note_on_c, 0, 81, 0
2, 2016, Note_on_c, 0, 82, 75
2, 2031, Note_on_c, 0, 82, 0
2, 2032, Note_on_c, 0, 79, 75
2, 2047, Note_on_c, 0, 79, 0
2, 2048, Note_on_c, 0, 85, 75
2, 2064, Note_on_c, 0, 85, 0
2, 2064, Note_on_c, 0, 86, 75
2, 2109, Note_on_c, 0, 86, 0
2, 2112, Note_on_c, 0, 74, 75
2, 2118, Note_on_c, 0, 74, 0
2, 2118, Note_on_c, 0, 72, 75
2, 2124, Note_on_c, 0, 72, 0
2, 2124, Note_on_c, 0, 71, 75
2, 2130, Note_on_c, 0, 71, 0
2, 2130, Note_on_c, 0, 72, 75
2, 2223, Note_on_c, 0, 72, 0
2, 2224, Note_on_c, 0, 74, 75
2, 2239, Note_on_c, 0, 74, 0
2, 2240, Note_on_c, 0, 72, 75
2, 2255, Note_on_c, 0, 72, 0
2, 2256, Note_on_c, 0, 74, 75
2, 2271, Note_on_c, 0, 74, 0
2, 2272, Note_on_c, 0, 72, 75
2, 2287, Note_on_c, 0, 72, 0
2, 2288, Note_on_c, 0, 70, 75
2, 2303, Note_on_c, 0, 70, 0
2, 2304, Note_on_c, 0, 69, 75
2, 2319, Note_on_c, 0, 69, 0
2, 2320, Note_on_c, 0, 72, 75
2, 2335, Note_on_c, 0, 72, 0
2, 2336, Note_on_c, 0, 76, 75
2, 2352, Note_on_c, 0, 76, 0
2, 2352, Note_on_c, 0, 77, 75
2, 2367, Note_on_c, 0, 77, 0
2, 2368, Note_on_c, 0, 72, 75
2, 2383, Note_on_c, 0, 72, 0
2, 2384, Note_on_c, 0, 80, 75
2, 2400, Note_on_c, 0, 80, 0
2, 2400, Note_on_c, 0, 81, 75
2, 2415, Note_on_c, 0, 81, 0
2, 2416, Note_on_c, 0, 77, 75
2, 2431, Note_on_c, 0, 77, 0
2, 2432, Note_on_c, 0, 83, 75
2, 2448, Note_on_c, 0, 83, 0
2, 2448, Note_on_c, 0, 84, 75
2, 2541, Note_on_c, 0, 84, 0
2, 2664, Note_on_c, 0, 84, 64
2, 2674, Note_on_c, 0, 84, 0
2, 2688, Note_on_c, 0, 84, 64
2, 2711, Note_on_c, 0, 84, 0
2, 2712, Note_on_c, 0, 82, 64
2, 2757, Note_on_c, 0, 82, 0
2, 2760, Note_on_c, 0, 73, 64
2, 2805, Note_on_c, 0, 73, 0
2, 2808, Note_on_c, 0, 72, 64
2, 2853, Note_on_c, 0, 72, 0
2, 2856, Note_on_c, 0, 84, 64
2, 2866, Note_on_c, 0, 84, 0
2, 2880, Note_on_c, 0, 84, 64
2, 2903, Note_on_c, 0, 84, 0
2, 2904, Note_on_c, 0, 82, 64
2, 2949, Note_on_c, 0, 82, 0
2, 2952, Note_on_c, 0, 73, 64
2, 2997, Note_on_c, 0, 73, 0
2, 3000, Note_on_c, 0, 72, 64
2, 3045, Note_on_c, 0, 72, 0
2, 3048, Note_on_c, 0, 84, 64
2, 3058, Note_on_c, 0, 84, 0
2, 3072, Note_on_c, 0, 84, 80
2, 3095, Note_on_c, 0, 84, 0
2, 3096, Note_on_c, 0, 82, 80
2, 3141, Note_on_c, 0, 82, 0
2, 3144, Note_on_c, 0, 73, 80
2, 3189, Note_on_c, 0, 73, 0
2, 3192, Note_on_c, 0, 72, 80
2, 3237, Note_on_c, 0, 72, 0
2, 3240, Note_on_c, 0, 84, 80
2, 3250, Note_on_c, 0, 84, 0
2, 3264, Note_on_c, 0, 83, 64
2, 3276, Note_on_c, 0, 83, 0
2, 3276, Note_on_c, 0, 84, 66
2, 3288, Note_on_c, 0, 84, 0
2, 3288, Note_on_c, 0, 86, 68
2, 3300, Note_on_c, 0, 86, 0
2, 3300, Note_on_c, 0, 84, 70
2, 3312, Note_on_c, 0, 84, 0
2, 3312, Note_on_c, 0, 84, 72
2, 3383, Note_on_c, 0, 84, 0
2, 3384, Note_on_c, 0, 84, 80
2, 3396, Note_on_c, 0, 84, 0
2, 3396, Note_on_c, 0, 86, 80
2, 3408, Note_on_c, 0, 86, 0
2, 3408, Note_on_c, 0, 89, 80
2, 3420, Note_on_c, 0, 89, 0
2, 3420, Note_on_c, 0, 88, 80
2, 3432, Note_on_c, 0, 88, 0
2, 3432, Note_on_c, 0, 86, 80
2, 3444, Note_on_c, 0, 86, 0
2, 3444, Note_on_c, 0, 84, 80
2, 3456, Note_on_c, 0, 84, 0
2, 3456, Note_on_c, 0, 89, 80
2, 3479, Note_on_c, 0, 89, 0
2, 3480, Note_on_c, 0, 84, 80
2, 3492, Note_on_c, 0, 84, 0
2, 3492, Note_on_c, 0, 86, 80
2, 3504, Note_on_c, 0, 86, 0
2, 3504, Note_on_c, 0, 89, 80
2, 3516, Note_on_c, 0, 89, 0
2, 3516, Note_on_c, 0, 88, 80
2, 3528, Note_on_c, 0, 88, 0
2, 3528, Note_on_c, 0, 86, 80
2, 3540, Note_on_c, 0, 86, 0
2, 3540, Note_on_c, 0, 84, 80
2, 3552, Note_on_c, 0, 84, 0
2, 3552, Note_on_c, 0, 89, 80
2, 3575, Note_on_c, 0, 89, 0
2, 3576, Note_on_c, 0, 81, 80
2, 3588, Note_on_c, 0, 81, 0
2, 3588, Note_on_c, 0, 82, 80
2, 3600, Note_on_c, 0, 82, 0
2, 3600, Note_on_c, 0, 86, 80
2, 3612, Note_on_c, 0, 86, 0
2, 3612, Note_on_c, 0, 84, 80
2, 3624, Note_on_c, 0, 84, 0
2, 3624, Note_on_c, 0, 82, 80
2, 3636, Note_on_c, 0, 82, 0
2, 3636, Note_on_c, 0, 81, 80
2, 3648, Note_on_c, 0, 81, 0
2, 3648, Note_on_c, 0, 79, 80
2, 3671, Note_on_c, 0, 79, 0
2, 3672, Note_on_c, 0, 79, 80
2, 3684, Note_on_c, 0, 79, 0
2, 3684, Note_on_c, 0, 81, 80
2, 3696, Note_on_c, 0, 81, 0
2, 3696, Note_on_c, 0, 84, 80
2, 3708, Note_on_c, 0, 84, 0
2, 3708, Note_on_c, 0, 82, 80
2, 3720, Note_on_c, 0, 82, 0
2, 3720, Note_on_c, 0, 81, 80
2, 3732, Note_on_c, 0, 81, 0
2, 3732, Note_on_c, 0, 79, 80
2, 3744, Note_on_c, 0, 79, 0
2, 3744, Note_on_c, 0, 77, 80
2, 3767, Note_on_c, 0, 77, 0
2, 3768, Note_on_c, 0, 76, 80
2, 3780, Note_on_c, 0, 76, 0
2, 3780, Note_on_c, 0, 77, 80
2, 3792, Note_on_c, 0, 77, 0
2, 3792, Note_on_c, 0, 81, 80
2, 3804, Note_on_c, 0, 81, 0
2, 3804, Note_on_c, 0, 79, 78
2, 3816, Note_on_c, 0, 79, 0
2, 3816, Note_on_c, 0, 77, 76
2, 3828, Note_on_c, 0, 77, 0
2, 3828, Note_on_c, 0, 76, 75
2, 3840, Note_on_c, 0, 76, 0
2, 3840, Note_on_c, 0, 77, 75
2, 3863, Note_on_c, 0, 77, 0
2, 3864, Note_on_c, 0, 69, 75
2, 3887, Note_on_c, 0, 69, 0
2, 3888, Note_on_c, 0, 70, 75
2, 3900, Note_on_c, 0, 70, 0
2, 3900, Note_on_c, 0, 69, 75
2, 3912, Note_on_c, 0, 69, 0
2, 3912, Note_on_c, 0, 67, 75
2, 3924, Note_on_c, 0, 67, 0
2, 3924, Note_on_c, 0, 65, 75
2, 3936, Note_on_c, 0, 65, 0
2, 3936, Note_on_c, 0, 64, 75
2, 3946, Note_on_c, 0, 64, 0
2, 3960, Note_on_c, 0, 64, 75
2, 3970, Note_on_c, 0, 64, 0
2, 3984, Note_on_c, 0, 65, 75
2, 3996, Note_on_c, 0, 65, 0
2, 3996, Note_on_c, 0, 64, 75
2, 4008, Note_on_c, 0, 64, 0
2, 4008, Note_on_c, 0, 62, 75
2, 4020, Note_on_c, 0, 62, 0
2, 4020, Note_on_c, 0, 60, 75
2, 4032, Note_on_c, 0, 60, 0
2, 4032, Note_on_c, 0, 65, 75
2, 4042, Note_on_c, 0, 65, 0
2, 4056, Note_on_c, 0, 65, 75
2, 4066, Note_on_c, 0, 65, 0
2, 4104, Note_on_c, 0, 69, 75
2, 4127, Note_on_c, 0, 69, 0
2, 4128, Note_on_c, 0, 66, 75
2, 4152, Note_on_c, 0, 66, 0
2, 4152, Note_on_c, 0, 67, 75
2, 4175, Note_on_c, 0, 67, 0
2, 4200, Note_on_c, 0, 70, 75
2, 4223, Note_on_c, 0, 70, 0
2, 4224, Note_on_c, 0, 68, 75
2, 4239, Note_on_c, 0, 68, 0
2, 4240, Note_on_c, 0, 69, 75
2, 4255, Note_on_c, 0, 69, 0
2, 4256, Note_on_c, 0, 70, 75
2, 4271, Note_on_c, 0, 70, 0
2, 4272, Note_on_c, 0, 71, 75
2, 4287, Note_on_c, 0, 71, 0
2, 4288, Note_on_c, 0, 72, 75
2, 4303, Note_on_c, 0, 72, 0
2, 4304, Note_on_c, 0, 74, 75
2, 4319, Note_on_c, 0, 74, 0
2, 4320, Note_on_c, 0, 72, 75
2, 4335, Note_on_c, 0, 72, 0
2, 4336, Note_on_c, 0, 70, 75
2, 4351, Note_on_c, 0, 70, 0
2, 4352, Note_on_c, 0, 69, 75
2, 4367, Note_on_c, 0, 69, 0
2, 4368, Note_on_c, 0, 67, 75
2, 4383, Note_on_c, 0, 67, 0
2, 4384, Note_on_c, 0, 65, 75
2, 4399, Note_on_c, 0, 65, 0
2, 4400, Note_on_c, 0, 64, 75
2, 4415, Note_on_c, 0, 64, 0
2, 4416, Note_on_c, 0, 67, 75
2, 4440, Note_on_c, 0, 67, 0
2, 4440, Note_on_c, 0, 65, 75
2, 4463, Note_on_c, 0, 65, 0
2, 4488, Note_on_c, 0, 69, 75
2, 4498, Note_on_c, 0, 69, 0
2, 4512, Note_on_c, 0, 69, 75
2, 4536, Note_on_c, 0, 69, 0
2, 4536, Note_on_c, 0, 67, 75
2, 4559, Note_on_c, 0, 67, 0
2, 4584, Note_on_c, 0, 70, 75
2, 4607, Note_on_c, 0, 70, 0
2, 4608, Note_on_c, 0, 69, 75
2, 4618, Note_on_c, 0, 69, 0
2, 4632, Note_on_c, 0, 69, 75
2, 4642, Note_on_c, 0, 69, 0
2, 4656, Note_on_c, 0, 70, 75
2, 4668, Note_on_c, 0, 70, 0
2, 4668, Note_on_c, 0, 69, 75
2, 4680, Note_on_c, 0, 69, 0
2, 4680, Note_on_c, 0, 67, 75
2, 4692, Note_on_c, 0, 67, 0
2, 4692, Note_on_c, 0, 65, 75
2, 4704, Note_on_c, 0, 65, 0
2, 4704, Note_on_c, 0, 64, 75
2, 4714, Note_on_c, 0, 64, 0
2, 4728, Note_on_c, 0, 64, 75
2, 4738, Note_on_c, 0, 64, 0
2, 4752, Note_on_c, 0, 65, 75
2, 4764, Note_on_c, 0, 65, 0
2, 4764, Note_on_c, 0, 64, 75
2, 4776, Note_on_c, 0, 64, 0
2, 4776, Note_on_c, 0, 62, 75
2, 4788, Note_on_c, 0, 62, 0
2, 4788, Note_on_c, 0, 60, 75
2, 4800, Note_on_c, 0, 60, 0
2, 4800, Note_on_c, 0, 65, 75
2, 4810, Note_on_c, 0, 65, 0
2, 4824, Note_on_c, 0, 65, 75
2, 4869, Note_on_c, 0, 65, 0
2, 4872, Note_on_c, 0, 66, 75
2, 4917, Note_on_c, 0, 66, 0
2, 4920, Note_on_c, 0, 67, 75
2, 4965, Note_on_c, 0, 67, 0
2, 4968, Note_on_c, 0, 68, 75
2, 5015, Note_on_c, 0, 68, 0
2, 5016, Note_on_c, 0, 69, 75
2, 5061, Note_on_c, 0, 69, 0
2, 5064, Note_on_c, 0, 70, 75
2, 5109, Note_on_c, 0, 70, 0
2, 5112, Note_on_c, 0, 71, 76
2, 5157, Note_on_c, 0, 71, 0
2, 5160, Note_on_c, 0, 72, 77
2, 5207, Note_on_c, 0, 72, 0
2, 5208, Note_on_c, 0, 73, 77
2, 5253, Note_on_c, 0, 73, 0
2, 5256, Note_on_c, 0, 74, 78
2, 5301, Note_on_c, 0, 74, 0
2, 5304, Note_on_c, 0, 75, 78
2, 5349, Note_on_c, 0, 75, 0
2, 5352, Note_on_c, 0, 73, 79
2, 5399, Note_on_c, 0, 73, 0
2, 5400, Note_on_c, 0, 74, 80
2, 5423, Note_on_c, 0, 74, 0
2, 5424, Note_on_c, 0, 69, 80
2, 5447, Note_on_c, 0, 69, 0
2, 5448, Note_on_c, 0, 70, 79
2, 5471, Note_on_c, 0, 70, 0
2, 5472, Note_on_c, 0, 66, 78
2, 5495, Note_on_c, 0, 66, 0
2, 5496, Note_on_c, 0, 67, 77
2, 5519, Note_on_c, 0, 67, 0
2, 5520, Note_on_c, 0, 70, 76
2, 5543, Note_on_c, 0, 70, 0
2, 5544, Note_on_c, 0, 74, 75
2, 5567, Note_on_c, 0, 74, 0
2, 5568, Note_on_c, 0, 65, 75
2, 5616, Note_on_c, 0, 65, 0
2, 5616, Note_on_c, 0, 64, 75
2, 5657, Note_on_c, 0, 64, 0
2, 5664, Note_on_c, 0, 65, 75
2, 5709, Note_on_c, 0, 65, 0
2, 5784, Note_on_c, 0, 60, 75
2, 5796, Note_on_c, 0, 60, 0
2, 5796, Note_on_c, 0, 67, 75
2, 5808, Note_on_c, 0, 67, 0
2, 5808, Note_on_c, 0, 72, 75
2, 5831, Note_on_c, 0, 72, 0
2, 5832, Note_on_c, 0, 67, 75
2, 5855, Note_on_c, 0, 67, 0
2, 5856, Note_on_c, 0, 70, 75
2, 5879, Note_on_c, 0, 70, 0
2, 5880, Note_on_c, 0, 69, 75
2, 5903, Note_on_c, 0, 69, 0
2, 5904, Note_on_c, 0, 67, 75
2, 5927, Note_on_c, 0, 67, 0
2, 5928, Note_on_c, 0, 65, 75
2, 5951, Note_on_c, 0, 65, 0
2, 5952, Note_on_c, 0, 65, 75
2, 6000, Note_on_c, 0, 65, 0
2, 6000, Note_on_c, 0, 64, 75
2, 6041, Note_on_c, 0, 64, 0
2, 6048, Note_on_c, 0, 65, 75
2, 6093, Note_on_c, 0, 65, 0
2, 6168, Note_on_c, 0, 60, 75
2, 6180, Note_on_c, 0, 60, 0
2, 6180, Note_on_c, 0, 67, 75
2, 6192, Note_on_c, 0, 67, 0
2, 6192, Note_on_c, 0, 72, 75
2, 6215, Note_on_c, 0, 72, 0
2, 6216, Note_on_c, 0, 67, 75
2, 6239, Note_on_c, 0, 67, 0
2, 6240, Note_on_c, 0, 70, 75
2, 6263, Note_on_c, 0, 70, 0
2, 6264, Note_on_c, 0, 69, 75
2, 6287, Note_on_c, 0, 69, 0
2, 6288, Note_on_c, 0, 67, 75
2, 6294, Note_on_c, 0, 67, 0
2, 6294, Note_on_c, 0, 69, 75
2, 6300, Note_on_c, 0, 69, 0
2, 6300, Note_on_c, 0, 67, 75
2, 6311, Note_on_c, 0, 67, 0
2, 6312, Note_on_c, 0, 65, 75
2, 6335, Note_on_c, 0, 65, 0
2, 6348, Note_on_c, 0, 67, 75
2, 6360, Note_on_c, 0, 67, 0
2, 6360, Note_on_c, 0, 70, 75
2, 6372, Note_on_c, 0, 70, 0
2, 6372, Note_on_c, 0, 74, 75
2, 6384, Note_on_c, 0, 74, 0
2, 6384, Note_on_c, 0, 79, 75
2, 6396, Note_on_c, 0, 79, 0
2, 6396, Note_on_c, 0, 67, 75
2, 6408, Note_on_c, 0, 67, 0
2, 6408, Note_on_c, 0, 70, 75
2, 6420, Note_on_c, 0, 70, 0
2, 6420, Note_on_c, 0, 74, 75
2, 6432, Note_on_c, 0, 74, 0
2, 6432, Note_on_c, 0, 79, 75
2, 6444, Note_on_c, 0, 79, 0
2, 6444, Note_on_c, 0, 82, 75
2, 6456, Note_on_c, 0, 82, 0
2, 6456, Note_on_c, 0, 86, 75
2, 6468, Note_on_c, 0, 86, 0
2, 6468, Note_on_c, 0, 84, 75
2, 6480, Note_on_c, 0, 84, 0
2, 6480, Note_on_c, 0, 82, 75
2, 6492, Note_on_c, 0, 82, 0
2, 6492, Note_on_c, 0, 81, 75
2, 6504, Note_on_c, 0, 81, 0
2, 6504, Note_on_c, 0, 79, 75
2, 6516, Note_on_c, 0, 79, 0
2, 6516, Note_on_c, 0, 77, 75
2, 6528, Note_on_c, 0, 77, 0
2, 6528, Note_on_c, 0, 76, 75
2, 6540, Note_on_c, 0, 76, 0
2, 6540, Note_on_c, 0, 79, 75
2, 6552, Note_on_c, 0, 79, 0
2, 6552, Note_on_c, 0, 84, 75
2, 6564, Note_on_c, 0, 84, 0
2, 6564, Note_on_c, 0, 82, 75
2, 6576, Note_on_c, 0, 82, 0
2, 6576, Note_on_c, 0, 81, 75
2, 6588, Note_on_c, 0, 81, 0
2, 6588, Note_on_c, 0, 79, 75
2, 6600, Note_on_c, 0, 79, 0
2, 6600, Note_on_c, 0, 77, 75
2, 6612, Note_on_c, 0, 77, 0
2, 6612, Note_on_c, 0, 76, 75
2, 6624, Note_on_c, 0, 76, 0
2, 6624, Note_on_c, 0, 77, 75
2, 6636, Note_on_c, 0, 77, 0
2, 6636, Note_on_c, 0, 79, 75
2, 6648, Note_on_c, 0, 79, 0
2, 6648, Note_on_c, 0, 81, 75
2, 6660, Note_on_c, 0, 81, 0
2, 6660, Note_on_c, 0, 79, 75
2, 6672, Note_on_c, 0, 79, 0
2, 6672, Note_on_c, 0, 77, 75
2, 6684, Note_on_c, 0, 77, 0
2, 6684, Note_on_c, 0, 76, 75
2, 6696, Note_on_c, 0, 76, 0
2, 6696, Note_on_c, 0, 74, 75
2, 6708, Note_on_c, 0, 74, 0
2, 6708, Note_on_c, 0, 73, 75
2, 6720, Note_on_c, 0, 73, 0
2, 6720, Note_on_c, 0, 74, 75
2, 6732, Note_on_c, 0, 74, 0
2, 6732, Note_on_c, 0, 76, 75
2, 6744, Note_on_c, 0, 76, 0
2, 6744, Note_on_c, 0, 77, 75
2, 6756, Note_on_c, 0, 77, 0
2, 6756, Note_on_c, 0, 69, 75
2, 6768, Note_on_c, 0, 69, 0
2, 6768, Note_on_c, 0, 70, 75
2, 6780, Note_on_c, 0, 70, 0
2, 6780, Note_on_c, 0, 72, 75
2, 6792, Note_on_c, 0, 72, 0
2, 6792, Note_on_c, 0, 74, 75
2, 6804, Note_on_c, 0, 74, 0
2, 6804, Note_on_c, 0, 65, 75
2, 6816, Note_on_c, 0, 65, 0
2, 6864, Note_on_c, 0, 79, 75
2, 6871, Note_on_c, 0, 79, 0
2, 6871, Note_on_c, 0, 81, 75
2, 6878, Note_on_c, 0, 81, 0
2, 6878, Note_on_c, 0, 79, 75
2, 6885, Note_on_c, 0, 79, 0
2, 6885, Note_on_c, 0, 81, 75
2, 6892, Note_on_c, 0, 81, 0
2, 6892, Note_on_c, 0, 79, 75
2, 6899, Note_on_c, 0, 79, 0
2, 6899, Note_on_c, 0, 77, 75
2, 6906, Note_on_c, 0, 77, 0
2, 6906, Note_on_c, 0, 79, 75
2, 6912, Note_on_c, 0, 79, 0
2, 6912, Note_on_c, 0, 77, 75
2, 6947, Note_on_c, 0, 77, 0
2, 6948, Note_on_c, 0, 77, 75
2, 6960, Note_on_c, 0, 77, 0
2, 6960, Note_on_c, 0, 79, 75
2, 6972, Note_on_c, 0, 79, 0
2, 6972, Note_on_c, 0, 77, 75
2, 6984, Note_on_c, 0, 77, 0
2, 6984, Note_on_c, 0, 76, 75
2, 6996, Note_on_c, 0, 76, 0
2, 6996, Note_on_c, 0, 74, 75
2, 7008, Note_on_c, 0, 74, 0
2, 7008, Note_on_c, 0, 76, 75
2, 7020, Note_on_c, 0, 76, 0
2, 7020, Note_on_c, 0, 74, 75
2, 7032, Note_on_c, 0, 74, 0
2, 7032, Note_on_c, 0, 72, 75
2, 7044, Note_on_c, 0, 72, 0
2, 7044, Note_on_c, 0, 71, 75
2, 7056, Note_on_c, 0, 71, 0
2, 7056, Note_on_c, 0, 76, 75
2, 7068, Note_on_c, 0, 76, 0
2, 7068, Note_on_c, 0, 74, 75
2, 7080, Note_on_c, 0, 74, 0
2, 7080, Note_on_c, 0, 72, 75
2, 7092, Note_on_c, 0, 72, 0
2, 7092, Note_on_c, 0, 71, 75
2, 7104, Note_on_c, 0, 71, 0
2, 7104, Note_on_c, 0, 72, 75
2, 7138, Note_on_c, 0, 72, 0
2, 7140, Note_on_c, 0, 79, 75
2, 7152, Note_on_c, 0, 79, 0
2, 7152, Note_on_c, 0, 81, 75
2, 7164, Note_on_c, 0, 81, 0
2, 7164, Note_on_c, 0, 79, 75
2, 7176, Note_on_c, 0, 79, 0
2, 7176, Note_on_c, 0, 77, 75
2, 7188, Note_on_c, 0, 77, 0
2, 7188, Note_on_c, 0, 76, 75
2, 7200, Note_on_c, 0, 76, 0
2, 7200, Note_on_c, 0, 82, 75
2, 7212, Note_on_c, 0, 82, 0
2, 7212, Note_on_c, 0, 81, 75
2, 7224, Note_on_c, 0, 81, 0
2, 7224, Note_on_c, 0, 79, 75
2, 7236, Note_on_c, 0, 79, 0
2, 7236, Note_on_c, 0, 77, 75
2, 7248, Note_on_c, 0, 77, 0
2, 7248, Note_on_c, 0, 76, 75
2, 7260, Note_on_c, 0, 76, 0
2, 7260, Note_on_c, 0, 74, 75
2, 7272, Note_on_c, 0, 74, 0
2, 7272, Note_on_c, 0, 72, 75
2, 7284, Note_on_c, 0, 72, 0
2, 7284, Note_on_c, 0, 70, 75
2, 7296, Note_on_c, 0, 70, 0
2, 7296, Note_on_c, 0, 69, 75
2, 7308, Note_on_c, 0, 69, 0
2, 7308, Note_on_c, 0, 72, 75
2, 7320, Note_on_c, 0, 72, 0
2, 7320, Note_on_c, 0, 76, 75
2, 7332, Note_on_c, 0, 76, 0
2, 7332, Note_on_c, 0, 77, 75
2, 7344, Note_on_c, 0, 77, 0
2, 7344, Note_on_c, 0, 76, 75
2, 7356, Note_on_c, 0, 76, 0
2, 7356, Note_on_c, 0, 74, 75
2, 7368, Note_on_c, 0, 74, 0
2, 7368, Note_on_c, 0, 72, 75
2, 7380, Note_on_c, 0, 72, 0
2, 7380, Note_on_c, 0, 70, 75
2, 7392, Note_on_c, 0, 70, 0
2, 7392, Note_on_c, 0, 69, 75
2, 7437, Note_on_c, 0, 69, 0
2, 7440, Note_on_c, 0, 67, 75
2, 7447, Note_on_c, 0, 67, 0
2, 7447, Note_on_c, 0, 69, 75
2, 7454, Note_on_c, 0, 69, 0
2, 7454, Note_on_c, 0, 67, 75
2, 7461, Note_on_c, 0, 67, 0
2, 7461, Note_on_c, 0, 69, 75
2, 7468, Note_on_c, 0, 69, 0
2, 7468, Note_on_c, 0, 67, 75
2, 7475, Note_on_c, 0, 67, 0
2, 7475, Note_on_c, 0, 65, 75
2, 7482, Note_on_c, 0, 65, 0
2, 7482, Note_on_c, 0, 67, 75
2, 7488, Note_on_c, 0, 67, 0
2, 7488, Note_on_c, 0, 65, 75
2, 7577, Note_on_c, 0, 65, 0
2, 7656, Note_on_c, 0, 70, 64
2, 7666, Note_on_c, 0, 70, 0
2, 7680, Note_on_c, 0, 72, 64
2, 7686, Note_on_c, 0, 72, 0
2, 7686, Note_on_c, 0, 70, 64
2, 7692, Note_on_c, 0, 70, 0
2, 7692, Note_on_c, 0, 69, 64
2, 7698, Note_on_c, 0, 69, 0
2, 7698, Note_on_c, 0, 70, 64
2, 7714, Note_on_c, 0, 70, 0
2, 7716, Note_on_c, 0, 74, 64
2, 7728, Note_on_c, 0, 74, 0
2, 7728, Note_on_c, 0, 75, 64
2, 7734, Note_on_c, 0, 75, 0
2, 7734, Note_on_c, 0, 74, 64
2, 7740, Note_on_c, 0, 74, 0
2, 7740, Note_on_c, 0, 72, 64
2, 7746, Note_on_c, 0, 72, 0
2, 7746, Note_on_c, 0, 74, 64
2, 7762, Note_on_c, 0, 74, 0
2, 7764, Note_on_c, 0, 77, 64
2, 7776, Note_on_c, 0, 77, 0
2, 7776, Note_on_c, 0, 79, 64
2, 7782, Note_on_c, 0, 79, 0
2, 7782, Note_on_c, 0, 77, 64
2, 7788, Note_on_c, 0, 77, 0
2, 7788, Note_on_c, 0, 75, 64
2, 7794, Note_on_c, 0, 75, 0
2, 7794, Note_on_c, 0, 77, 64
2, 7810, Note_on_c, 0, 77, 0
2, 7812, Note_on_c, 0, 82, 64
2, 7824, Note_on_c, 0, 82, 0
2, 7824, Note_on_c, 0, 81, 64
2, 7858, Note_on_c, 0, 81, 0
2, 7860, Note_on_c, 0, 79, 64
2, 7872, Note_on_c, 0, 79, 0
2, 7872, Note_on_c, 0, 79, 64
2, 7906, Note_on_c, 0, 79, 0
2, 7908, Note_on_c, 0, 77, 64
2, 7920, Note_on_c, 0, 77, 0
2, 7920, Note_on_c, 0, 77, 64
2, 8002, Note_on_c, 0, 77, 0
2, 8004, Note_on_c, 0, 79, 64
2, 8016, Note_on_c, 0, 79, 0
2, 8016, Note_on_c, 0, 75, 64
2, 8050, Note_on_c, 0, 75, 0
2, 8052, Note_on_c, 0, 77, 64
2, 8064, Note_on_c, 0, 77, 0
2, 8064, Note_on_c, 0, 74, 64
2, 8098, Note_on_c, 0, 74, 0
2, 8100, Note_on_c, 0, 75, 64
2, 8112, Note_on_c, 0, 75, 0
2, 8112, Note_on_c, 0, 72, 64
2, 8146, Note_on_c, 0, 72, 0
2, 8148, Note_on_c, 0, 74, 64
2, 8160, Note_on_c, 0, 74, 0
2, 8160, Note_on_c, 0, 70, 64
2, 8194, Note_on_c, 0, 70, 0
2, 8196, Note_on_c, 0, 72, 64
2, 8208, Note_on_c, 0, 72, 0
2, 8208, Note_on_c, 0, 69, 64
2, 8242, Note_on_c, 0, 69, 0
2, 8244, Note_on_c, 0, 72, 64
2, 8256, Note_on_c, 0, 72, 0
2, 8256, Note_on_c, 0, 72, 64
2, 8268, Note_on_c, 0, 72, 0
2, 8268, Note_on_c, 0, 70, 64
2, 8280, Note_on_c, 0, 70, 0
2, 8280, Note_on_c, 0, 69, 64
2, 8292, Note_on_c, 0, 69, 0
2, 8292, Note_on_c, 0, 70, 64
2, 8304, Note_on_c, 0, 70, 0
2, 8304, Note_on_c, 0, 65, 64
2, 8349, Note_on_c, 0, 65, 0
2, 8424, Note_on_c, 0, 70, 64
2, 8434, Note_on_c, 0, 70, 0
2, 8448, Note_on_c, 0, 72, 64
2, 8454, Note_on_c, 0, 72, 0
2, 8454, Note_on_c, 0, 70, 64
2, 8460, Note_on_c, 0, 70, 0
2, 8460, Note_on_c, 0, 69, 64
2, 8466, Note_on_c, 0, 69, 0
2, 8466, Note_on_c, 0, 70, 64
2, 8482, Note_on_c, 0, 70, 0
2, 8484, Note_on_c, 0, 74, 64
2, 8496, Note_on_c, 0, 74, 0
2, 8496, Note_on_c, 0, 75, 64
2, 8502, Note_on_c, 0, 75, 0
2, 8502, Note_on_c, 0, 74, 64
2, 8508, Note_on_c, 0, 74, 0
2, 8508, Note_on_c, 0, 72, 64
2, 8514, Note_on_c, 0, 72, 0
2, 8514, Note_on_c, 0, 74, 64
2, 8530, Note_on_c, 0, 74, 0
2, 8532, Note_on_c, 0, 77, 64
2, 8544, Note_on_c, 0, 77, 0
2, 8544, Note_on_c, 0, 79, 64
2, 8550, Note_on_c, 0, 79, 0
2, 8550, Note_on_c, 0, 77, 64
2, 8556, Note_on_c, 0, 77, 0
2, 8556, Note_on_c, 0, 75, 64
2, 8562, Note_on_c, 0, 75, 0
2, 8562, Note_on_c, 0, 77, 64
2, 8578, Note_on_c, 0, 77, 0
2, 8580, Note_on_c, 0, 82, 64
2, 8592, Note_on_c, 0, 82, 0
2, 8592, Note_on_c, 0, 81, 64
2, 8626, Note_on_c, 0, 81, 0
2, 8628, Note_on_c, 0, 79, 64
2, 8640, Note_on_c, 0, 79, 0
2, 8640, Note_on_c, 0, 79, 64
2, 8674, Note_on_c, 0, 79, 0
2, 8676, Note_on_c, 0, 77, 64
2, 8688, Note_on_c, 0, 77, 0
2, 8688, Note_on_c, 0, 77, 64
2, 8733, Note_on_c, 0, 77, 0
2, 8752, Note_on_c, 0, 84, 64
2, 8767, Note_on_c, 0, 84, 0
2, 8768, Note_on_c, 0, 82, 64
2, 8783, Note_on_c, 0, 82, 0
2, 8784, Note_on_c, 0, 81, 64
2, 8799, Note_on_c, 0, 81, 0
2, 8800, Note_on_c, 0, 79, 64
2, 8815, Note_on_c, 0, 79, 0
2, 8816, Note_on_c, 0, 77, 64
2, 8831, Note_on_c, 0, 77, 0
2, 8832, Note_on_c, 0, 75, 75
2, 8845, Note_on_c, 0, 75, 0
2, 8846, Note_on_c, 0, 74, 75
2, 8859, Note_on_c, 0, 74, 0
2, 8860, Note_on_c, 0, 73, 76
2, 8873, Note_on_c, 0, 73, 0
2, 8874, Note_on_c, 0, 74, 76
2, 8887, Note_on_c, 0, 74, 0
2, 8888, Note_on_c, 0, 75, 77
2, 8901, Note_on_c, 0, 75, 0
2, 8902, Note_on_c, 0, 76, 78
2, 8915, Note_on_c, 0, 76, 0
2, 8916, Note_on_c, 0, 77, 78
2, 8929, Note_on_c, 0, 77, 0
2, 8930, Note_on_c, 0, 78, 79
2, 8943, Note_on_c, 0, 78, 0
2, 8944, Note_on_c, 0, 81, 80
2, 8957, Note_on_c, 0, 81, 0
2, 8958, Note_on_c, 0, 79, 79
2, 8971, Note_on_c, 0, 79, 0
2, 8972, Note_on_c, 0, 77, 78
2, 8984, Note_on_c, 0, 77, 0
2, 8985, Note_on_c, 0, 75, 78
2, 8997, Note_on_c, 0, 75, 0
2, 8998, Note_on_c, 0, 74, 77
2, 9010, Note_on_c, 0, 74, 0
2, 9011, Note_on_c, 0, 72, 76
2, 9023, Note_on_c, 0, 72, 0
2, 9024, Note_on_c, 0, 70, 75
2, 9084, Note_on_c, 0, 70, 0
2, 9084, Note_on_c, 0, 69, 75
2, 9096, Note_on_c, 0, 69, 0
2, 9096, Note_on_c, 0, 72, 75
2, 9108, Note_on_c, 0, 72, 0
2, 9108, Note_on_c, 0, 69, 75
2, 9120, Note_on_c, 0, 69, 0
2, 9120, Note_on_c, 0, 70, 75
2, 9165, Note_on_c, 0, 70, 0
2, 9216, Note_on_c, 0, 75, 75
2, 9222, Note_on_c, 0, 75, 0
2, 9222, Note_on_c, 0, 74, 75
2, 9228, Note_on_c, 0, 74, 0
2, 9228, Note_on_c, 0, 72, 75
2, 9234, Note_on_c, 0, 72, 0
2, 9234, Note_on_c, 0, 74, 75
2, 9327, Note_on_c, 0, 74, 0
2, 9328, Note_on_c, 0, 75, 75
2, 9343, Note_on_c, 0, 75, 0
2, 9344, Note_on_c, 0, 74, 75
2, 9359, Note_on_c, 0, 74, 0
2, 9360, Note_on_c, 0, 75, 75
2, 9375, Note_on_c, 0, 75, 0
2, 9376, Note_on_c, 0, 74, 75
2, 9391, Note_on_c, 0, 74, 0
2, 9392, Note_on_c, 0, 72, 75
2, 9407, Note_on_c, 0, 72, 0
2, 9408, Note_on_c, 0, 70, 75
2, 9423, Note_on_c, 0, 70, 0
2, 9424, Note_on_c, 0, 74, 75
2, 9439, Note_on_c, 0, 74, 0
2, 9440, Note_on_c, 0, 78, 75
2, 9456, Note_on_c, 0, 78, 0
2, 9456, Note_on_c, 0, 79, 75
2, 9471, Note_on_c, 0, 79, 0
2, 9472, Note_on_c, 0, 74, 75
2, 9487, Note_on_c, 0, 74, 0
2, 9488, Note_on_c, 0, 81, 75
2, 9504, Note_on_c, 0, 81, 0
2, 9504, Note_on_c, 0, 82, 75
2, 9519, Note_on_c, 0, 82, 0
2, 9520, Note_on_c, 0, 79, 75
2, 9535, Note_on_c, 0, 79, 0
2, 9536, Note_on_c, 0, 85, 75
2, 9552, Note_on_c, 0, 85, 0
2, 9552, Note_on_c, 0, 86, 75
2, 9597, Note_on_c, 0, 86, 0
2, 9600, Note_on_c, 0, 74, 75
2, 9606, Note_on_c, 0, 74, 0
2, 9606, Note_on_c, 0, 72, 75
2, 9612, Note_on_c, 0, 72, 0
2, 9612, Note_on_c, 0, 71, 75
2, 9618, Note_on_c, 0, 71, 0
2, 9618, Note_on_c, 0, 72, 75
2, 9711, Note_on_c, 0, 72, 0
2, 9712, Note_on_c, 0, 74, 75
2, 9727, Note_on_c, 0, 74, 0
2, 9728, Note_on_c, 0, 72, 75
2, 9743, Note_on_c, 0, 72, 0
2, 9744, Note_on_c, 0, 74, 75
2, 9759, Note_on_c, 0, 74, 0
2, 9760, Note_on_c, 0, 72, 75
2, 9775, Note_on_c, 0, 72, 0
2, 9776, Note_on_c, 0, 70, 75
2, 9791, Note_on_c, 0, 70, 0
2, 9792, Note_on_c, 0, 69, 75
2, 9807, Note_on_c, 0, 69, 0
2, 9808, Note_on_c, 0, 72, 75
2, 9823, Note_on_c, 0, 72, 0
2, 9824, Note_on_c, 0, 76, 75
2, 9840, Note_on_c, 0, 76, 0
2, 9840, Note_on_c, 0, 77, 75
2, 9855, Note_on_c, 0, 77, 0
2, 9856, Note_on_c, 0, 72, 75
2, 9871, Note_on_c, 0, 72, 0
2, 9872, Note_on_c, 0, 80, 75
2, 9888, Note_on_c, 0, 80, 0
2, 9888, Note_on_c, 0, 81, 75
2, 9903, Note_on_c, 0, 81, 0
2, 9904, Note_on_c, 0, 77, 75
2, 9919, Note_on_c, 0, 77, 0
2, 9920, Note_on_c, 0, 83, 75
2, 9936, Note_on_c, 0, 83, 0
2, 9936, Note_on_c, 0, 84, 75
2, 10029, Note_on_c, 0, 84, 0
2, 10152, Note_on_c, 0, 84, 64
2, 10162, Note_on_c, 0, 84, 0
2, 10176, Note_on_c, 0, 84, 64
2, 10199, Note_on_c, 0, 84, 0
2, 10200, Note_on_c, 0, 82, 64
2, 10245, Note_on_c, 0, 82, 0
2, 10248, Note_on_c, 0, 73, 64
2, 10293, Note_on_c, 0, 73, 0
2, 10296, Note_on_c, 0, 72, 64
2, 10341, Note_on_c, 0, 72, 0
2, 10344, Note_on_c, 0, 84, 64
2, 10354, Note_on_c, 0, 84, 0
2, 10368, Note_on_c, 0, 84, 64
2, 10391, Note_on_c, 0, 84, 0
2, 10392, Note_on_c, 0, 82, 64
2, 10437, Note_on_c, 0, 82, 0
2, 10440, Note_on_c, 0, 73, 64
2, 10485, Note_on_c, 0, 73, 0
2, 10488, Note_on_c, 0, 72, 64
2, 10533, Note_on_c, 0, 72, 0
2, 10536, Note_on_c, 0, 84, 64
2, 10546, Note_on_c, 0, 84, 0
2, 10560, Note_on_c, 0, 84, 80
2, 10583, Note_on_c, 0, 84, 0
2, 10584, Note_on_c, 0, 82, 80
2, 10629, Note_on_c, 0, 82, 0
2, 10632, Note_on_c, 0, 73, 80
2, 10677, Note_on_c, 0, 73, 0
2, 10680, Note_on_c, 0, 72, 80
2, 10725, Note_on_c, 0, 72, 0
2, 10728, Note_on_c, 0, 84, 80
2, 10738, Note_on_c, 0, 84, 0
2, 10752, Note_on_c, 0, 83, 64
2, 10764, Note_on_c, 0, 83, 0
2, 10764, Note_on_c, 0, 84, 66
2, 10776, Note_on_c, 0, 84, 0
2, 10776, Note_on_c, 0, 86, 68
2, 10788, Note_on_c, 0, 86, 0
2, 10788, Note_on_c, 0, 84, 70
2, 10800, Note_on_c, 0, 84, 0
2, 10800, Note_on_c, 0, 84, 72
2, 10871, Note_on_c, 0, 84, 0
2, 10872, Note_on_c, 0, 84, 80
2, 10884, Note_on_c, 0, 84, 0
2, 10884, Note_on_c, 0, 86, 80
2, 10896, Note_on_c, 0, 86, 0
2, 10896, Note_on_c, 0, 89, 80
2, 10908, Note_on_c, 0, 89, 0
2, 10908, Note_on_c, 0, 88, 80
2, 10920, Note_on_c, 0, 88, 0
2, 10920, Note_on_c, 0, 86, 80
2, 10932, Note_on_c, 0, 86, 0
2, 10932, Note_on_c, 0, 84, 80
2, 10944, Note_on_c, 0, 84, 0
2, 10944, Note_on_c, 0, 89, 80
2, 10967, Note_on_c, 0, 89, 0
2, 10968, Note_on_c, 0, 84, 80
2, 10980, Note_on_c, 0, 84, 0
2, 10980, Note_on_c, 0, 86, 80
2, 10992, Note_on_c, 0, 86, 0
2, 10992, Note_on_c, 0, 89, 80
2, 11004, Note_on_c, 0, 89, 0
2, 11004, Note_on_c, 0, 88, 80
2, 11016, Note_on_c, 0, 88, 0
2, 11016, Note_on_c, 0, 86, 80
2, 11028, Note_on_c, 0, 86, 0
2, 11028, Note_on_c, 0, 84, 80
2, 11040, Note_on_c, 0, 84, 0
2, 11040, Note_on_c, 0, 89, 80
2, 11063, Note_on_c, 0, 89, 0
2, 11064, Note_on_c, 0, 81, 80
2, 11076, Note_on_c, 0, 81, 0
2, 11076, Note_on_c, 0, 82, 80
2, 11088, Note_on_c, 0, 82, 0
2, 11088, Note_on_c, 0, 86, 80
2, 11100, Note_on_c, 0, 86, 0
2, 11100, Note_on_c, 0, 84, 80
2, 11112, Note_on_c, 0, 84, 0
2, 11112, Note_on_c, 0, 82, 80
2, 11124, Note_on_c, 0, 82, 0
2, 11124, Note_on_c, 0, 81, 80
2, 11136, Note_on_c, 0, 81, 0
2, 11136, Note_on_c, 0, 79, 80
2, 11159, Note_on_c, 0, 79, 0
2, 11160, Note_on_c, 0, 79, 80
2, 11172, Note_on_c, 0, 79, 0
2, 11172, Note_on_c, 0, 81, 80
2, 11184, Note_on_c, 0, 81, 0
2, 11184, Note_on_c, 0, 84, 80
2, 11196, Note_on_c, 0, 84, 0
2, 11196, Note_on_c, 0, 82, 80
2, 11208, Note_on_c, 0, 82, 0
2, 11208, Note_on_c, 0, 81, 80
2, 11220, Note_on_c, 0, 81, 0
2, 11220, Note_on_c, 0, 79, 80
2, 11232, Note_on_c, 0, 79, 0
2, 11232, Note_on_c, 0, 77, 80
2, 11255, Note_on_c, 0, 77, 0
2, 11256, Note_on_c, 0, 76, 80
2, 11268, Note_on_c, 0, 76, 0
2, 11268, Note_on_c, 0, 77, 80
2, 11280, Note_on_c, 0, 77, 0
2, 11280, Note_on_c, 0, 81, 80
2, 11292, Note_on_c, 0, 81, 0
2, 11292, Note_on_c, 0, 79, 78
2, 11304, Note_on_c, 0, 79, 0
2, 11304, Note_on_c, 0, 77, 76
2, 11316, Note_on_c, 0, 77, 0
2, 11316, Note_on_c, 0, 76, 75
2, 11328, Note_on_c, 0, 76, 0
2, 11328, Note_on_c, 0, 77, 75
2, 11351, Note_on_c, 0, 77, 0
2, 11352, Note_on_c, 0, 69, 75
2, 11375, Note_on_c, 0, 69, 0
2, 11376, Note_on_c, 0, 70, 75
2, 11388, Note_on_c, 0, 70, 0
2, 11388, Note_on_c, 0, 69, 75
2, 11400, Note_on_c, 0, 69, 0
2, 11400, Note_on_c, 0, 67, 75
2, 11412, Note_on_c, 0, 67, 0
2, 11412, Note_on_c, 0, 65, 75
2, 11424, Note_on_c, 0, 65, 0
2, 11424, Note_on_c, 0, 64, 75
2, 11434, Note_on_c, 0, 64, 0
2, 11448, Note_on_c, 0, 64, 75
2, 11458, Note_on_c, 0, 64, 0
2, 11472, Note_on_c, 0, 65, 75
2, 11484, Note_on_c, 0, 65, 0
2, 11484, Note_on_c, 0, 64, 75
2, 11496, Note_on_c, 0, 64, 0
2, 11496, Note_on_c, 0, 62, 75
2, 11508, Note_on_c, 0, 62, 0
2, 11508, Note_on_c, 0, 60, 75
2, 11520, Note_on_c, 0, 60, 0
2, 11520, Note_on_c, 0, 65, 75
2, 11530, Note_on_c, 0, 65, 0
2, 11544, Note_on_c, 0, 65, 75
2, 11554, Note_on_c, 0, 65, 0
2, 11592, Note_on_c, 0, 69, 75
2, 11615, Note_on_c, 0, 69, 0
2, 11616, Note_on_c, 0, 66, 75
2, 11640, Note_on_c, 0, 66, 0
2, 11640, Note_on_c, 0, 67, 75
2, 11663, Note_on_c, 0, 67, 0
2, 11688, Note_on_c, 0, 70, 75
2, 11711, Note_on_c, 0, 70, 0
2, 11712, Note_on_c, 0, 68, 75
2, 11727, Note_on_c, 0, 68, 0
2, 11728, Note_on_c, 0, 69, 75
2, 11743, Note_on_c, 0, 69, 0
2, 11744, Note_on_c, 0, 70, 75
2, 11759, Note_on_c, 0, 70, 0
2, 11760, Note_on_c, 0, 71, 75
2, 11775, Note_on_c, 0, 71, 0
2, 11776, Note_on_c, 0, 72, 75
2, 11791, Note_on_c, 0, 72, 0
2, 11792, Note_on_c, 0, 74, 75
2, 11807, Note_on_c, 0, 74, 0
2, 11808, Note_on_c, 0, 72, 75
2, 11823, Note_on_c, 0, 72, 0
2, 11824, Note_on_c, 0, 70, 75
2, 11839, Note_on_c, 0, 70, 0
2, 11840, Note_on_c, 0, 69, 75
2, 11855, Note_on_c, 0, 69, 0
2, 11856, Note_on_c, 0, 67, 75
2, 11871, Note_on_c, 0, 67, 0
2, 11872, Note_on_c, 0, 65, 75
2, 11887, Note_on_c, 0, 65, 0
2, 11888, Note_on_c, 0, 64, 75
2, 11903, Note_on_c, 0, 64, 0
2, 11904, Note_on_c, 0, 67, 75
2, 11928, Note_on_c, 0, 67, 0
2, 11928, Note_on_c, 0, 65, 75
2, 11951, Note_on_c, 0, 65, 0
2, 11976, Note_on_c, 0, 69, 75
2, 11986, Note_on_c, 0, 69, 0
2, 12000, Note_on_c, 0, 69, 75
2, 12024, Note_on_c, 0, 69, 0
2, 12024, Note_on_c, 0, 67, 75
2, 12047, Note_on_c, 0, 67, 0
2, 12072, Note_on_c, 0, 70, 75
2, 12095, Note_on_c, 0, 70, 0
2, 12096, Note_on_c, 0, 69, 75
2, 12106, Note_on_c, 0, 69, 0
2, 12120, Note_on_c, 0, 69, 75
2, 12130, Note_on_c, 0, 69, 0
2, 12144, Note_on_c, 0, 70, 75
2, 12156, Note_on_c, 0, 70, 0
2, 12156, Note_on_c, 0, 69, 75
2, 12168, Note_on_c, 0, 69, 0
2, 12168, Note_on_c, 0, 67, 75
2, 12180, Note_on_c, 0, 67, 0
2, 12180, Note_on_c, 0, 65, 75
2, 12192, Note_on_c, 0, 65, 0
2, 12192, Note_on_c, 0, 64, 75
2, 12202, Note_on_c, 0, 64, 0
2, 12216, Note_on_c, 0, 64, 75
2, 12226, Note_on_c, 0, 64, 0
2, 12240, Note_on_c, 0, 65, 75
2, 12252, Note_on_c, 0, 65, 0
2, 12252, Note_on_c, 0, 64, 75
2, 12264, Note_on_c, 0, 64, 0
2, 12264, Note_on_c, 0, 62, 75
2, 12276, Note_on_c, 0, 62, 0
2, 12276, Note_on_c, 0, 60, 75
2, 12288, Note_on_c, 0, 60, 0
2, 12288, Note_on_c, 0, 65, 75
2, 12298, Note_on_c, 0, 65, 0
2, 12312, Note_on_c, 0, 65, 75
2, 12357, Note_on_c, 0, 65, 0
2, 12360, Note_on_c, 0, 66, 75
2, 12405, Note_on_c, 0, 66, 0
2, 12408, Note_on_c, 0, 67, 75
2, 12453, Note_on_c, 0, 67, 0
2, 12456, Note_on_c, 0, 68, 75
2, 12503, Note_on_c, 0, 68, 0
2, 12504, Note_on_c, 0, 69, 75
2, 12549, Note_on_c, 0, 69, 0
2, 12552, Note_on_c, 0, 70, 75
2, 12597, Note_on_c, 0, 70, 0
2, 12600, Note_on_c, 0, 71, 76
2, 12645, Note_on_c, 0, 71, 0
2, 12648, Note_on_c, 0, 72, 77
2, 12695, Note_on_c, 0, 72, 0
2, 12696, Note_on_c, 0, 73, 77
2, 12741, Note_on_c, 0, 73, 0
2, 12744, Note_on_c, 0, 74, 78
2, 12789, Note_on_c, 0, 74, 0
2, 12792, Note_on_c, 0, 75, 78
2, 12837, Note_on_c, 0, 75, 0
2, 12840, Note_on_c, 0, 73, 79
2, 12887, Note_on_c, 0, 73, 0
2, 12888, Note_on_c, 0, 74, 80
2, 12911, Note_on_c, 0, 74, 0
2, 12912, Note_on_c, 0, 69, 80
2, 12935, Note_on_c, 0, 69, 0
2, 12936, Note_on_c, 0, 70, 79
2, 12959, Note_on_c, 0, 70, 0
2, 12960, Note_on_c, 0, 66, 78
2, 12983, Note_on_c, 0, 66, 0
2, 12984, Note_on_c, 0, 67, 77
2, 13007, Note_on_c, 0, 67, 0
2, 13008, Note_on_c, 0, 70, 76
2, 13031, Note_on_c, 0, 70, 0
2, 13032, Note_on_c, 0, 74, 75
2, 13055, Note_on_c, 0, 74, 0
2, 13056, Note_on_c, 0, 65, 75
2, 13104, Note_on_c, 0, 65, 0
2, 13104, Note_on_c, 0, 64, 75
2, 13145, Note_on_c, 0, 64, 0
2, 13152, Note_on_c, 0, 65, 75
2, 13197, Note_on_c, 0, 65, 0
2, 13272, Note_on_c, 0, 60, 75
2, 13284, Note_on_c, 0, 60, 0
2, 13284, Note_on_c, 0, 67, 75
2, 13296, Note_on_c, 0, 67, 0
2, 13296, Note_on_c, 0, 72, 75
2, 13319, Note_on_c, 0, 72, 0
2, 13320, Note_on_c, 0, 67, 75
2, 13343, Note_on_c, 0, 67, 0
2, 13344, Note_on_c, 0, 70, 75
2, 13367, Note_on_c, 0, 70, 0
2, 13368, Note_on_c, 0, 69, 75
2, 13391, Note_on_c, 0, 69, 0
2, 13392, Note_on_c, 0, 67, 75
2, 13415, Note_on_c, 0, 67, 0
2, 13416, Note_on_c, 0, 65, 75
2, 13439, Note_on_c, 0, 65, 0
2, 13440, Note_on_c, 0, 65, 75
2, 13488, Note_on_c, 0, 65, 0
2, 13488, Note_on_c, 0, 64, 75
2, 13529, Note_on_c, 0, 64, 0
2, 13536, Note_on_c, 0, 65, 75
2, 13581, Note_on_c, 0, 65, 0
2, 13656, Note_on_c, 0, 60, 75
2, 13668, Note_on_c, 0, 60, 0
2, 13668, Note_on_c, 0, 67, 75
2, 13680, Note_on_c, 0, 67, 0
2, 13680, Note_on_c, 0, 72, 75
2, 13703, Note_on_c, 0, 72, 0
2, 13704, Note_on_c, 0, 67, 75
2, 13727, Note_on_c, 0, 67, 0
2, 13728, Note_on_c, 0, 70, 75
2, 13751, Note_on_c, 0, 70, 0
2, 13752, Note_on_c, 0, 69, 75
2, 13775, Note_on_c, 0, 69, 0
2, 13776, Note_on_c, 0, 67, 75
2, 13782, Note_on_c, 0, 67, 0
2, 13782, Note_on_c, 0, 69, 75
2, 13788, Note_on_c, 0, 69, 0
2, 13788, Note_on_c, 0, 67, 75
2, 13799, Note_on_c, 0, 67, 0
2, 13800, Note_on_c, 0, 65, 75
2, 13823, Note_on_c, 0, 65, 0
2, 13836, Note_on_c, 0, 67, 75
2, 13848, Note_on_c, 0, 67, 0
2, 13848, Note_on_c, 0, 70, 75
2, 13860, Note_on_c, 0, 70, 0
2, 13860, Note_on_c, 0, 74, 75
2, 13872, Note_on_c, 0, 74, 0
2, 13872, Note_on_c, 0, 79, 75
2, 13884, Note_on_c, 0, 79, 0
2, 13884, Note_on_c, 0, 67, 75
2, 13896, Note_on_c, 0, 67, 0
2, 13896, Note_on_c, 0, 70, 75
2, 13908, Note_on_c, 0, 70, 0
2, 13908, Note_on_c, 0, 74, 75
2, 13920, Note_on_c, 0, 74, 0
2, 13920, Note_on_c, 0, 79, 75
2, 13932, Note_on_c, 0, 79, 0
2, 13932, Note_on_c, 0, 82, 75
2, 13944, Note_on_c, 0, 82, 0
2, 13944, Note_on_c, 0, 86, 75
2, 13956, Note_on_c, 0, 86, 0
2, 13956, Note_on_c, 0, 84, 75
2, 13968, Note_on_c, 0, 84, 0
2, 13968, Note_on_c, 0, 82, 75
2, 13980, Note_on_c, 0, 82, 0
2, 13980, Note_on_c, 0, 81, 75
2, 13992, Note_on_c, 0, 81, 0
2, 13992, Note_on_c, 0, 79, 75
2, 14004, Note_on_c, 0, 79, 0
2, 14004, Note_on_c, 0, 77, 75
2, 14016, Note_on_c, 0, 77, 0
2, 14016, Note_on_c, 0, 76, 75
2, 14028, Note_on_c, 0, 76, 0
2, 14028, Note_on_c, 0, 79, 75
2, 14040, Note_on_c, 0, 79, 0
2, 14040, Note_on_c, 0, 84, 75
2, 14052, Note_on_c, 0, 84, 0
2, 14052, Note_on_c, 0, 82, 75
2, 14064, Note_on_c, 0, 82, 0
2, 14064, Note_on_c, 0, 81, 75
2, 14076, Note_on_c, 0, 81, 0
2, 14076, Note_on_c, 0, 79, 75
2, 14088, Note_on_c, 0, 79, 0
2, 14088, Note_on_c, 0, 77, 75
2, 14100, Note_on_c, 0, 77, 0
2, 14100, Note_on_c, 0, 76, 75
2, 14112, Note_on_c, 0, 76, 0
2, 14112, Note_on_c, 0, 77, 75
2, 14124, Note_on_c, 0, 77, 0
2, 14124, Note_on_c, 0, 79, 75
2, 14136, Note_on_c, 0, 79, 0
2, 14136, Note_on_c, 0, 81, 75
2, 14148, Note_on_c, 0, 81, 0
2, 14148, Note_on_c, 0, 79, 75
2, 14160, Note_on_c, 0, 79, 0
2, 14160, Note_on_c, 0, 77, 75
2, 14172, Note_on_c, 0, 77, 0
2, 14172, Note_on_c, 0, 76, 75
2, 14184, Note_on_c, 0, 76, 0
2, 14184, Note_on_c, 0, 74, 75
2, 14196, Note_on_c, 0, 74, 0
2, 14196, Note_on_c, 0, 73, 75
2, 14208, Note_on_c, 0, 73, 0
2, 14208, Note_on_c, 0, 74, 75
2, 14220, Note_on_c, 0, 74, 0
2, 14220, Note_on_c, 0, 76, 75
2, 14232, Note_on_c, 0, 76, 0
2, 14232, Note_on_c, 0, 77, 75
2, 14244, Note_on_c, 0, 77, 0
2, 14244, Note_on_c, 0, 69, 75
2, 14256, Note_on_c, 0, 69, 0
2, 14256, Note_on_c, 0, 70, 75
2, 14268, Note_on_c, 0, 70, 0
2, 14268, Note_on_c, 0, 72, 75
2, 14280, Note_on_c, 0, 72, 0
2, 14280, Note_on_c, 0, 74, 75
2, 14292, Note_on_c, 0, 74, 0
2, 14292, Note_on_c, 0, 65, 75
2, 14304, Note_on_c, 0, 65, 0
2, 14352, Note_on_c, 0, 79, 75
2, 14359, Note_on_c, 0, 79, 0
2, 14359, Note_on_c, 0, 81, 75
2, 14366, Note_on_c, 0, 81, 0
2, 14366, Note_on_c, 0, 79, 75
2, 14373, Note_on_c, 0, 79, 0
2, 14373, Note_on_c, 0, 81, 75
2, 14380, Note_on_c, 0, 81, 0
2, 14380, Note_on_c, 0, 79, 75
2, 14387, Note_on_c, 0, 79, 0
2, 14387, Note_on_c, 0, 77, 75
2, 14394, Note_on_c, 0, 77, 0
2, 14394, Note_on_c, 0, 79, 75
2, 14400, Note_on_c, 0, 79, 0
2, 14400, Note_on_c, 0, 77, 75
2, 14435, Note_on_c, 0, 77, 0
2, 14436, Note_on_c, 0, 77, 75
2, 14448, Note_on_c, 0, 77, 0
2, 14448, Note_on_c, 0, 79, 75
2, 14460, Note_on_c, 0, 79, 0
2, 14460, Note_on_c, 0, 77, 75
2, 14472, Note_on_c, 0, 77, 0
2, 14472, Note_on_c, 0, 76, 75
2, 14484, Note_on_c, 0, 76, 0
2, 14484, Note_on_c, 0, 74, 75
2, 14496, Note_on_c, 0, 74, 0
2, 14496, Note_on_c, 0, 76, 75
2, 14508, Note_on_c, 0, 76, 0
2, 14508, Note_on_c, 0, 74, 75
2, 14520, Note_on_c, 0, 74, 0
2, 14520, Note_on_c, 0, 72, 75
2, 14532, Note_on_c, 0, 72, 0
2, 14532, Note_on_c, 0, 71, 75
2, 14544, Note_on_c, 0, 71, 0
2, 14544, Note_on_c, 0, 76, 75
2, 14556, Note_on_c, 0, 76, 0
2, 14556, Note_on_c, 0, 74, 75
2, 14568, Note_on_c, 0, 74, 0
2, 14568, Note_on_c, 0, 72, 75
2, 14580, Note_on_c, 0, 72, 0
2, 14580, Note_on_c, 0, 71, 75
2, 14592, Note_on_c, 0, 71, 0
2, 14592, Note_on_c, 0, 72, 75
2, 14626, Note_on_c, 0, 72, 0
2, 14628, Note_on_c, 0, 79, 75
2, 14640, Note_on_c, 0, 79, 0
2, 14640, Note_on_c, 0, 81, 75
2, 14652, Note_on_c, 0, 81, 0
2, 14652, Note_on_c, 0, 79, 75
2, 14664, Note_on_c, 0, 79, 0
2, 14664, Note_on_c, 0, 77, 75
2, 14676, Note_on_c, 0, 77, 0
2, 14676, Note_on_c, 0, 76, 75
2, 14688, Note_on_c, 0, 76, 0
2, 14688, Note_on_c, 0, 82, 75
2, 14700, Note_on_c, 0, 82, 0
2, 14700, Note_on_c, 0, 81, 75
2, 14712, Note_on_c, 0, 81, 0
2, 14712, Note_on_c, 0, 79, 75
2, 14724, Note_on_c, 0, 79, 0
2, 14724, Note_on_c, 0, 77, 75
2, 14736, Note_on_c, 0, 77, 0
2, 14736, Note_on_c, 0, 76, 75
2, 14748, Note_on_c, 0, 76, 0
2, 14748, Note_on_c, 0, 74, 75
2, 14760, Note_on_c, 0, 74, 0
2, 14760, Note_on_c, 0, 72, 75
2, 14772, Note_on_c, 0, 72, 0
2, 14772, Note_on_c, 0, 70, 75
2, 14784, Note_on_c, 0, 70, 0
2, 14784, Note_on_c, 0, 69, 75
2, 14796, Note_on_c, 0, 69, 0
2, 14796, Note_on_c, 0, 72, 75
2, 14808, Note_on_c, 0, 72, 0
2, 14808, Note_on_c, 0, 76, 75
2, 14820, Note_on_c, 0, 76, 0
2, 14820, Note_on_c, 0, 77, 75
2, 14832, Note_on_c, 0, 77, 0
2, 14832, Note_on_c, 0, 76, 75
2, 14844, Note_on_c, 0, 76, 0
2, 14844, Note_on_c, 0, 74, 75
2, 14856, Note_on_c, 0, 74, 0
2, 14856, Note_on_c, 0, 72, 75
2, 14868, Note_on_c, 0, 72, 0
2, 14868, Note_on_c, 0, 70, 75
2, 14880, Note_on_c, 0, 70, 0
2, 14880, Note_on_c, 0, 69, 75
2, 14925, Note_on_c, 0, 69, 0
2, 14928, Note_on_c, 0, 67, 75
2, 14935, Note_on_c, 0, 67, 0
2, 14935, Note_on_c, 0, 69, 75
2, 14942, Note_on_c, 0, 69, 0
2, 14942, Note_on_c, 0, 67, 75
2, 14949, Note_on_c, 0, 67, 0
2, 14949, Note_on_c, 0, 69, 75
2, 14956, Note_on_c, 0, 69, 0
2, 14956, Note_on_c, 0, 67, 75
2, 14963, Note_on_c, 0, 67, 0
2, 14963, Note_on_c, 0, 65, 75
2, 14970, Note_on_c, 0, 65, 0
2, 14970, Note_on_c, 0, 67, 75
2, 14976, Note_on_c, 0, 67, 0
2, 14976, Note_on_c, 0, 65, 75
2, 15065, Note_on_c, 0, 65, 0
2, 15144, Note_on_c, 0, 65, 75
2, 15167, Note_on_c, 0, 65, 0
2, 15168, Note_on_c, 0, 67, 75
2, 15174, Note_on_c, 0, 67, 0
2, 15174, Note_on_c, 0, 65, 75
2, 15180, Note_on_c, 0, 65, 0
2, 15180, Note_on_c, 0, 63, 75
2, 15186, Note_on_c, 0, 63, 0
2, 15186, Note_on_c, 0, 65, 75
2, 15202, Note_on_c, 0, 65, 0
2, 15204, Note_on_c, 0, 69, 75
2, 15216, Note_on_c, 0, 69, 0
2, 15216, Note_on_c, 0, 70, 75
2, 15222, Note_on_c, 0, 70, 0
2, 15222, Note_on_c, 0, 69, 75
2, 15228, Note_on_c, 0, 69, 0
2, 15228, Note_on_c, 0, 67, 75
2, 15234, Note_on_c, 0, 67, 0
2, 15234, Note_on_c, 0, 69, 75
2, 15250, Note_on_c, 0, 69, 0
2, 15252, Note_on_c, 0, 72, 75
2, 15264, Note_on_c, 0, 72, 0
2, 15264, Note_on_c, 0, 74, 75
2, 15270, Note_on_c, 0, 74, 0
2, 15270, Note_on_c, 0, 72, 75
2, 15276, Note_on_c, 0, 72, 0
2, 15276, Note_on_c, 0, 71, 75
2, 15282, Note_on_c, 0, 71, 0
2, 15282, Note_on_c, 0, 72, 75
2, 15298, Note_on_c, 0, 72, 0
2, 15300, Note_on_c, 0, 77, 75
2, 15312, Note_on_c, 0, 77, 0
2, 15312, Note_on_c, 0, 76, 75
2, 15346, Note_on_c, 0, 76, 0
2, 15348, Note_on_c, 0, 74, 75
2, 15360, Note_on_c, 0, 74, 0
2, 15360, Note_on_c, 0, 74, 75
2, 15383, Note_on_c, 0, 74, 0
2, 15384, Note_on_c, 0, 72, 75
2, 15407, Note_on_c, 0, 72, 0
2, 15408, Note_on_c, 0, 72, 75
2, 15490, Note_on_c, 0, 72, 0
2, 15492, Note_on_c, 0, 74, 75
2, 15504, Note_on_c, 0, 74, 0
2, 15504, Note_on_c, 0, 70, 75
2, 15538, Note_on_c, 0, 70, 0
2, 15540, Note_on_c, 0, 72, 75
2, 15552, Note_on_c, 0, 72, 0
2, 15552, Note_on_c, 0, 69, 75
2, 15586, Note_on_c, 0, 69, 0
2, 15588, Note_on_c, 0, 70, 75
2, 15600, Note_on_c, 0, 70, 0
2, 15600, Note_on_c, 0, 67, 75
2, 15634, Note_on_c, 0, 67, 0
2, 15636, Note_on_c, 0, 69, 75
2, 15648, Note_on_c, 0, 69, 0
2, 15648, Note_on_c, 0, 65, 75
2, 15682, Note_on_c, 0, 65, 0
2, 15684, Note_on_c, 0, 67, 75
2, 15696, Note_on_c, 0, 67, 0
2, 15696, Note_on_c, 0, 64, 75
2, 15730, Note_on_c, 0, 64, 0
2, 15732, Note_on_c, 0, 67, 75
2, 15744, Note_on_c, 0, 67, 0
2, 15744, Note_on_c, 0, 67, 75
2, 15756, Note_on_c, 0, 67, 0
2, 15756, Note_on_c, 0, 65, 75
2, 15768, Note_on_c, 0, 65, 0
2, 15768, Note_on_c, 0, 64, 75
2, 15780, Note_on_c, 0, 64, 0
2, 15780, Note_on_c, 0, 65, 75
2, 15792, Note_on_c, 0, 65, 0
2, 15792, Note_on_c, 0, 60, 75
2, 15837, Note_on_c, 0, 60, 0
2, 15912, Note_on_c, 0, 65, 75
2, 15935, Note_on_c, 0, 65, 0
2, 15936, Note_on_c, 0, 67, 75
2, 15942, Note_on_c, 0, 67, 0
2, 15942, Note_on_c, 0, 65, 75
2, 15948, Note_on_c, 0, 65, 0
2, 15948, Note_on_c, 0, 63, 75
2, 15954, Note_on_c, 0, 63, 0
2, 15954, Note_on_c, 0, 65, 75
2, 15970, Note_on_c, 0, 65, 0
2, 15972, Note_on_c, 0, 69, 75
2, 15984, Note_on_c, 0, 69, 0
2, 15984, Note_on_c, 0, 70, 75
2, 15990, Note_on_c, 0, 70, 0
2, 15990, Note_on_c, 0, 69, 75
2, 15996, Note_on_c, 0, 69, 0
2, 15996, Note_on_c, 0, 67, 75
2, 16002, Note_on_c, 0, 67, 0
2, 16002, Note_on_c, 0, 69, 75
2, 16018, Note_on_c, 0, 69, 0
2, 16020, Note_on_c, 0, 72, 75
2, 16032, Note_on_c, 0, 72, 0
2, 16032, Note_on_c, 0, 74, 75
2, 16038, Note_on_c, 0, 74, 0
2, 16038, Note_on_c, 0, 72, 75
2, 16044, Note_on_c, 0, 72, 0
2, 16044, Note_on_c, 0, 71, 75
2, 16050, Note_on_c, 0, 71, 0
2, 16050, Note_on_c, 0, 72, 75
2, 16066, Note_on_c, 0, 72, 0
2, 16068, Note_on_c, 0, 77, 75
2, 16080, Note_on_c, 0, 77, 0
2, 16080, Note_on_c, 0, 79, 75
2, 16086, Note_on_c, 0, 79, 0
2, 16086, Note_on_c, 0, 77, 75
2, 16092, Note_on_c, 0, 77, 0
2, 16092, Note_on_c, 0, 75, 75
2, 16098, Note_on_c, 0, 75, 0
2, 16098, Note_on_c, 0, 77, 75
2, 16114, Note_on_c, 0, 77, 0
2, 16116, Note_on_c, 0, 80, 75
2, 16128, Note_on_c, 0, 80, 0
2, 16128, Note_on_c, 0, 80, 64
2, 16152, Note_on_c, 0, 80, 0
2, 16152, Note_on_c, 0, 71, 64
2, 16175, Note_on_c, 0, 71, 0
2, 16200, Note_on_c, 0, 71, 64
2, 16210, Note_on_c, 0, 71, 0
2, 16224, Note_on_c, 0, 74, 64
2, 16248, Note_on_c, 0, 74, 0
2, 16248, Note_on_c, 0, 72, 64
2, 16271, Note_on_c, 0, 72, 0
2, 16296, Note_on_c, 0, 72, 64
2, 16306, Note_on_c, 0, 72, 0
2, 16320, Note_on_c, 0, 82, 64
2, 16344, Note_on_c, 0, 82, 0
2, 16344, Note_on_c, 0, 73, 64
2, 16367, Note_on_c, 0, 73, 0
2, 16392, Note_on_c, 0, 73, 64
2, 16402, Note_on_c, 0, 73, 0
2, 16416, Note_on_c, 0, 76, 64
2, 16440, Note_on_c, 0, 76, 0
2, 16440, Note_on_c, 0, 74, 64
2, 16463, Note_on_c, 0, 74, 0
2, 16680, Note_on_c, 0, 86, 64
2, 16690, Note_on_c, 0, 86, 0
2, 16704, Note_on_c, 0, 86, 64
2, 16727, Note_on_c, 0, 86, 0
2, 16728, Note_on_c, 0, 84, 64
2, 16773, Note_on_c, 0, 84, 0
2, 16776, Note_on_c, 0, 75, 64
2, 16821, Note_on_c, 0, 75, 0
2, 16824, Note_on_c, 0, 74, 64
2, 16869, Note_on_c, 0, 74, 0
2, 16872, Note_on_c, 0, 86, 64
2, 16882, Note_on_c, 0, 86, 0
2, 16896, Note_on_c, 0, 86, 64
2, 16919, Note_on_c, 0, 86, 0
2, 16920, Note_on_c, 0, 84, 64
2, 16965, Note_on_c, 0, 84, 0
2, 16968, Note_on_c, 0, 75, 64
2, 17013, Note_on_c, 0, 75, 0
2, 17016, Note_on_c, 0, 74, 64
2, 17061, Note_on_c, 0, 74, 0
2, 17064, Note_on_c, 0, 86, 71
2, 17074, Note_on_c, 0, 86, 0
2, 17088, Note_on_c, 0, 84, 80
2, 17111, Note_on_c, 0, 84, 0
2, 17112, Note_on_c, 0, 83, 80
2, 17157, Note_on_c, 0, 83, 0
2, 17160, Note_on_c, 0, 77, 80
2, 17205, Note_on_c, 0, 77, 0
2, 17208, Note_on_c, 0, 76, 80
2, 17253, Note_on_c, 0, 76, 0
2, 17256, Note_on_c, 0, 84, 80
2, 17266, Note_on_c, 0, 84, 0
2, 17280, Note_on_c, 0, 82, 80
2, 17303, Note_on_c, 0, 82, 0
2, 17304, Note_on_c, 0, 81, 80
2, 17349, Note_on_c, 0, 81, 0
2, 17352, Note_on_c, 0, 75, 80
2, 17397, Note_on_c, 0, 75, 0
2, 17400, Note_on_c, 0, 74, 80
2, 17445, Note_on_c, 0, 74, 0
2, 17448, Note_on_c, 0, 82, 80
2, 17458, Note_on_c, 0, 82, 0
2, 17472, Note_on_c, 0, 81, 80
2, 17495, Note_on_c, 0, 81, 0
2, 17496, Note_on_c, 0, 79, 80
2, 17541, Note_on_c, 0, 79, 0
2, 17544, Note_on_c, 0, 74, 80
2, 17589, Note_on_c, 0, 74, 0
2, 17592, Note_on_c, 0, 72, 80
2, 17637, Note_on_c, 0, 72, 0
2, 17640, Note_on_c, 0, 81, 80
2, 17650, Note_on_c, 0, 81, 0
2, 17664, Note_on_c, 0, 79, 80
2, 17687, Note_on_c, 0, 79, 0
2, 17688, Note_on_c, 0, 78, 80
2, 17733, Note_on_c, 0, 78, 0
2, 17736, Note_on_c, 0, 72, 80
2, 17781, Note_on_c, 0, 72, 0
2, 17784, Note_on_c, 0, 70, 80
2, 17829, Note_on_c, 0, 70, 0
2, 17832, Note_on_c, 0, 79, 80
2, 17842, Note_on_c, 0, 79, 0
2, 17856, Note_on_c, 0, 70, 80
2, 17863, Note_on_c, 0, 70, 0
2, 17863, Note_on_c, 0, 72, 80
2, 17870, Note_on_c, 0, 72, 0
2, 17870, Note_on_c, 0, 70, 80
2, 17877, Note_on_c, 0, 70, 0
2, 17877, Note_on_c, 0, 72, 80
2, 17884, Note_on_c, 0, 72, 0
2, 17884, Note_on_c, 0, 70, 80
2, 17891, Note_on_c, 0, 70, 0
2, 17891, Note_on_c, 0, 69, 80
2, 17898, Note_on_c, 0, 69, 0
2, 17898, Note_on_c, 0, 70, 80
2, 17904, Note_on_c, 0, 70, 0
2, 17904, Note_on_c, 0, 69, 80
2, 17949, Note_on_c, 0, 69, 0
2, 17976, Note_on_c, 0, 74, 80
2, 17988, Note_on_c, 0, 74, 0
2, 17988, Note_on_c, 0, 76, 80
2, 18000, Note_on_c, 0, 76, 0
2, 18000, Note_on_c, 0, 79, 80
2, 18012, Note_on_c, 0, 79, 0
2, 18012, Note_on_c, 0, 78, 80
2, 18024, Note_on_c, 0, 78, 0
2, 18024, Note_on_c, 0, 76, 80
2, 18036, Note_on_c, 0, 76, 0
2, 18036, Note_on_c, 0, 74, 80
2, 18048, Note_on_c, 0, 74, 0
2, 18048, Note_on_c, 0, 79, 80
2, 18071, Note_on_c, 0, 79, 0
2, 18072, Note_on_c, 0, 74, 80
2, 18084, Note_on_c, 0, 74, 0
2, 18084, Note_on_c, 0, 76, 80
2, 18096, Note_on_c, 0, 76, 0
2, 18096, Note_on_c, 0, 79, 80
2, 18108, Note_on_c, 0, 79, 0
2, 18108, Note_on_c, 0, 78, 80
2, 18120, Note_on_c, 0, 78, 0
2, 18120, Note_on_c, 0, 76, 80
2, 18132, Note_on_c, 0, 76, 0
2, 18132, Note_on_c, 0, 74, 80
2, 18144, Note_on_c, 0, 74, 0
2, 18144, Note_on_c, 0, 79, 80
2, 18167, Note_on_c, 0, 79, 0
2, 18168, Note_on_c, 0, 79, 80
2, 18180, Note_on_c, 0, 79, 0
2, 18180, Note_on_c, 0, 81, 80
2, 18192, Note_on_c, 0, 81, 0
2, 18192, Note_on_c, 0, 84, 80
2, 18204, Note_on_c, 0, 84, 0
2, 18204, Note_on_c, 0, 82, 78
2, 18216, Note_on_c, 0, 82, 0
2, 18216, Note_on_c, 0, 81, 77
2, 18228, Note_on_c, 0, 81, 0
2, 18228, Note_on_c, 0, 79, 76
2, 18240, Note_on_c, 0, 79, 0
2, 18240, Note_on_c, 0, 82, 75
2, 18250, Note_on_c, 0, 82, 0
2, 18264, Note_on_c, 0, 82, 75
2, 18274, Note_on_c, 0, 82, 0
2, 18312, Note_on_c, 0, 86, 75
2, 18336, Note_on_c, 0, 86, 0
2, 18336, Note_on_c, 0, 78, 75
2, 18346, Note_on_c, 0, 78, 0
2, 18360, Note_on_c, 0, 78, 75
2, 18370, Note_on_c, 0, 78, 0
2, 18408, Note_on_c, 0, 81, 75
2, 18432, Note_on_c, 0, 81, 0
2, 18432, Note_on_c, 0, 79, 75
2, 18455, Note_on_c, 0, 79, 0
2, 18456, Note_on_c, 0, 79, 75
2, 18466, Note_on_c, 0, 79, 0
2, 18504, Note_on_c, 0, 82, 75
2, 18528, Note_on_c, 0, 82, 0
2, 18528, Note_on_c, 0, 81, 75
2, 18551, Note_on_c, 0, 81, 0
2, 18552, Note_on_c, 0, 81, 75
2, 18562, Note_on_c, 0, 81, 0
2, 18600, Note_on_c, 0, 84, 75
2, 18624, Note_on_c, 0, 84, 0
2, 18624, Note_on_c, 0, 82, 75
2, 18634, Note_on_c, 0, 82, 0
2, 18648, Note_on_c, 0, 82, 75
2, 18658, Note_on_c, 0, 82, 0
2, 18672, Note_on_c, 0, 84, 75
2, 18684, Note_on_c, 0, 84, 0
2, 18684, Note_on_c, 0, 82, 75
2, 18696, Note_on_c, 0, 82, 0
2, 18696, Note_on_c, 0, 81, 75
2, 18708, Note_on_c, 0, 81, 0
2, 18708, Note_on_c, 0, 79, 75
2, 18720, Note_on_c, 0, 79, 0
2, 18720, Note_on_c, 0, 78, 75
2, 18730, Note_on_c, 0, 78, 0
2, 18744, Note_on_c, 0, 78, 75
2, 18754, Note_on_c, 0, 78, 0
2, 18768, Note_on_c, 0, 79, 75
2, 18780, Note_on_c, 0, 79, 0
2, 18780, Note_on_c, 0, 78, 75
2, 18792, Note_on_c, 0, 78, 0
2, 18792, Note_on_c, 0, 76, 75
2, 18804, Note_on_c, 0, 76, 0
2, 18804, Note_on_c, 0, 74, 75
2, 18816, Note_on_c, 0, 74, 0
2, 18816, Note_on_c, 0, 79, 75
2, 18826, Note_on_c, 0, 79, 0
2, 18840, Note_on_c, 0, 79, 75
2, 18850, Note_on_c, 0, 79, 0
2, 18888, Note_on_c, 0, 82, 75
2, 18911, Note_on_c, 0, 82, 0
2, 18912, Note_on_c, 0, 80, 75
2, 18936, Note_on_c, 0, 80, 0
2, 18936, Note_on_c, 0, 81, 75
2, 18959, Note_on_c, 0, 81, 0
2, 18984, Note_on_c, 0, 84, 75
2, 19031, Note_on_c, 0, 84, 0
2, 19032, Note_on_c, 0, 82, 75
2, 19077, Note_on_c, 0, 82, 0
2, 19080, Note_on_c, 0, 81, 75
2, 19125, Note_on_c, 0, 81, 0
2, 19128, Note_on_c, 0, 79, 76
2, 19173, Note_on_c, 0, 79, 0
2, 19176, Note_on_c, 0, 77, 77
2, 19223, Note_on_c, 0, 77, 0
2, 19224, Note_on_c, 0, 75, 77
2, 19269, Note_on_c, 0, 75, 0
2, 19272, Note_on_c, 0, 74, 78
2, 19317, Note_on_c, 0, 74, 0
2, 19320, Note_on_c, 0, 72, 78
2, 19365, Note_on_c, 0, 72, 0
2, 19368, Note_on_c, 0, 71, 79
2, 19415, Note_on_c, 0, 71, 0
2, 19416, Note_on_c, 0, 72, 80
2, 19439, Note_on_c, 0, 72, 0
2, 19440, Note_on_c, 0, 79, 80
2, 19463, Note_on_c, 0, 79, 0
2, 19464, Note_on_c, 0, 75, 80
2, 19487, Note_on_c, 0, 75, 0
2, 19488, Note_on_c, 0, 74, 80
2, 19511, Note_on_c, 0, 74, 0
2, 19512, Note_on_c, 0, 72, 80
2, 19557, Note_on_c, 0, 72, 0
2, 19560, Note_on_c, 0, 71, 75
2, 19607, Note_on_c, 0, 71, 0
2, 19608, Note_on_c, 0, 72, 75
2, 19631, Note_on_c, 0, 72, 0
2, 19632, Note_on_c, 0, 79, 75
2, 19655, Note_on_c, 0, 79, 0
2, 19656, Note_on_c, 0, 75, 75
2, 19679, Note_on_c, 0, 75, 0
2, 19680, Note_on_c, 0, 74, 75
2, 19703, Note_on_c, 0, 74, 0
2, 19704, Note_on_c, 0, 72, 75
2, 19749, Note_on_c, 0, 72, 0
2, 19752, Note_on_c, 0, 71, 75
2, 19799, Note_on_c, 0, 71, 0
2, 19800, Note_on_c, 0, 72, 75
2, 19823, Note_on_c, 0, 72, 0
2, 19824, Note_on_c, 0, 79, 75
2, 19847, Note_on_c, 0, 79, 0
2, 19848, Note_on_c, 0, 75, 75
2, 19871, Note_on_c, 0, 75, 0
2, 19872, Note_on_c, 0, 79, 75
2, 19895, Note_on_c, 0, 79, 0
2, 19896, Note_on_c, 0, 75, 75
2, 19919, Note_on_c, 0, 75, 0
2, 19920, Note_on_c, 0, 79, 75
2, 19943, Note_on_c, 0, 79, 0
2, 19944, Note_on_c, 0, 75, 75
2, 19967, Note_on_c, 0, 75, 0
2, 19968, Note_on_c, 0, 74, 75
2, 20064, Note_on_c, 0, 74, 0
2, 20064, Note_on_c, 0, 73, 75
2, 20153, Note_on_c, 0, 73, 0
2, 20160, Note_on_c, 0, 74, 75
2, 20205, Note_on_c, 0, 74, 0
2, 20376, Note_on_c, 0, 62, 75
2, 20388, Note_on_c, 0, 62, 0
2, 20388, Note_on_c, 0, 69, 75
2, 20400, Note_on_c, 0, 69, 0
2, 20400, Note_on_c, 0, 74, 75
2, 20423, Note_on_c, 0, 74, 0
2, 20424, Note_on_c, 0, 69, 75
2, 20447, Note_on_c, 0, 69, 0
2, 20448, Note_on_c, 0, 72, 75
2, 20471, Note_on_c, 0, 72, 0
2, 20472, Note_on_c, 0, 70, 75
2, 20495, Note_on_c, 0, 70, 0
2, 20496, Note_on_c, 0, 69, 75
2, 20519, Note_on_c, 0, 69, 0
2, 20520, Note_on_c, 0, 67, 75
2, 20543, Note_on_c, 0, 67, 0
2, 20544, Note_on_c, 0, 67, 75
2, 20589, Note_on_c, 0, 67, 0
2, 20592, Note_on_c, 0, 66, 75
2, 20637, Note_on_c, 0, 66, 0
2, 20640, Note_on_c, 0, 67, 75
2, 20685, Note_on_c, 0, 67, 0
2, 20760, Note_on_c, 0, 74, 75
2, 20772, Note_on_c, 0, 74, 0
2, 20772, Note_on_c, 0, 81, 75
2, 20784, Note_on_c, 0, 81, 0
2, 20784, Note_on_c, 0, 86, 75
2, 20807, Note_on_c, 0, 86, 0
2, 20808, Note_on_c, 0, 81, 76
2, 20831, Note_on_c, 0, 81, 0
2, 20832, Note_on_c, 0, 84, 77
2, 20855, Note_on_c, 0, 84, 0
2, 20856, Note_on_c, 0, 82, 77
2, 20879, Note_on_c, 0, 82, 0
2, 20880, Note_on_c, 0, 81, 78
2, 20886, Note_on_c, 0, 81, 0
2, 20886, Note_on_c, 0, 82, 78
2, 20892, Note_on_c, 0, 82, 0
2, 20892, Note_on_c, 0, 81, 78
2, 20903, Note_on_c, 0, 81, 0
2, 20904, Note_on_c, 0, 79, 79
2, 20927, Note_on_c, 0, 79, 0
2, 20940, Note_on_c, 0, 67, 80
2, 20952, Note_on_c, 0, 67, 0
2, 20952, Note_on_c, 0, 72, 80
2, 20964, Note_on_c, 0, 72, 0
2, 20964, Note_on_c, 0, 75, 80
2, 20976, Note_on_c, 0, 75, 0
2, 20976, Note_on_c, 0, 79, 80
2, 20988, Note_on_c, 0, 79, 0
2, 20988, Note_on_c, 0, 71, 80
2, 21000, Note_on_c, 0, 71, 0
2, 21000, Note_on_c, 0, 72, 80
2, 21012, Note_on_c, 0, 72, 0
2, 21012, Note_on_c, 0, 75, 80
2, 21024, Note_on_c, 0, 75, 0
2, 21024, Note_on_c, 0, 79, 80
2, 21036, Note_on_c, 0, 79, 0
2, 21036, Note_on_c, 0, 71, 80
2, 21048, Note_on_c, 0, 71, 0
2, 21048, Note_on_c, 0, 72, 80
2, 21060, Note_on_c, 0, 72, 0
2, 21060, Note_on_c, 0, 75, 80
2, 21072, Note_on_c, 0, 75, 0
2, 21072, Note_on_c, 0, 79, 80
2, 21095, Note_on_c, 0, 79, 0
2, 21132, Note_on_c, 0, 67, 80
2, 21144, Note_on_c, 0, 67, 0
2, 21144, Note_on_c, 0, 70, 80
2, 21156, Note_on_c, 0, 70, 0
2, 21156, Note_on_c, 0, 74, 80
2, 21168, Note_on_c, 0, 74, 0
2, 21168, Note_on_c, 0, 79, 80
2, 21188, Note_on_c, 0, 79, 0
2, 21228, Note_on_c, 0, 67, 80
2, 21240, Note_on_c, 0, 67, 0
2, 21240, Note_on_c, 0, 70, 80
2, 21252, Note_on_c, 0, 70, 0
2, 21252, Note_on_c, 0, 76, 80
2, 21264, Note_on_c, 0, 76, 0
2, 21264, Note_on_c, 0, 79, 80
2, 21284, Note_on_c, 0, 79, 0
2, 21360, Note_on_c, 0, 82, 80
2, 21360, Note_on_c, 0, 79, 80
2, 21405, Note_on_c, 0, 82, 0
2, 21405, Note_on_c, 0, 79, 0
2, 21456, Note_on_c, 0, 66, 80
2, 21501, Note_on_c, 0, 66, 0
2, 21504, Note_on_c, 0, 66, 80
2, 21623, Note_on_c, 0, 66, 0
2, 21624, Note_on_c, 0, 67, 80
2, 21630, Note_on_c, 0, 67, 0
2, 21630, Note_on_c, 0, 66, 80
2, 21636, Note_on_c, 0, 66, 0
2, 21636, Note_on_c, 0, 64, 80
2, 21642, Note_on_c, 0, 64, 0
2, 21642, Note_on_c, 0, 66, 80
2, 21648, Note_on_c, 0, 66, 0
2, 21648, Note_on_c, 0, 69, 80
2, 21682, Note_on_c, 0, 69, 0
2, 21684, Note_on_c, 0, 67, 80
2, 21696, Note_on_c, 0, 67, 0
2, 21696, Note_on_c, 0, 67, 70
2, 21741, Note_on_c, 0, 67, 0
2, 21864, Note_on_c, 0, 70, 75
2, 21874, Note_on_c, 0, 70, 0
2, 21888, Note_on_c, 0, 72, 75
2, 21894, Note_on_c, 0, 72, 0
2, 21894, Note_on_c, 0, 70, 75
2, 21900, Note_on_c, 0, 70, 0
2, 21900, Note_on_c, 0, 69, 75
2, 21906, Note_on_c, 0, 69, 0
2, 21906, Note_on_c, 0, 70, 75
2, 21922, Note_on_c, 0, 70, 0
2, 21924, Note_on_c, 0, 74, 75
2, 21936, Note_on_c, 0, 74, 0
2, 21936, Note_on_c, 0, 75, 75
2, 21942, Note_on_c, 0, 75, 0
2, 21942, Note_on_c, 0, 74, 75
2, 21948, Note_on_c, 0, 74, 0
2, 21948, Note_on_c, 0, 72, 75
2, 21954, Note_on_c, 0, 72, 0
2, 21954, Note_on_c, 0, 74, 75
2, 21970, Note_on_c, 0, 74, 0
2, 21972, Note_on_c, 0, 77, 75
2, 21984, Note_on_c, 0, 77, 0
2, 21984, Note_on_c, 0, 79, 75
2, 21990, Note_on_c, 0, 79, 0
2, 21990, Note_on_c, 0, 77, 75
2, 21996, Note_on_c, 0, 77, 0
2, 21996, Note_on_c, 0, 75, 75
2, 22002, Note_on_c, 0, 75, 0
2, 22002, Note_on_c, 0, 77, 75
2, 22018, Note_on_c, 0, 77, 0
2, 22020, Note_on_c, 0, 82, 75
2, 22032, Note_on_c, 0, 82, 0
2, 22032, Note_on_c, 0, 81, 75
2, 22066, Note_on_c, 0, 81, 0
2, 22068, Note_on_c, 0, 79, 75
2, 22080, Note_on_c, 0, 79, 0
2, 22080, Note_on_c, 0, 79, 75
2, 22114, Note_on_c, 0, 79, 0
2, 22116, Note_on_c, 0, 77, 75
2, 22128, Note_on_c, 0, 77, 0
2, 22128, Note_on_c, 0, 77, 75
2, 22210, Note_on_c, 0, 77, 0
2, 22212, Note_on_c, 0, 79, 75
2, 22224, Note_on_c, 0, 79, 0
2, 22224, Note_on_c, 0, 75, 75
2, 22258, Note_on_c, 0, 75, 0
2, 22260, Note_on_c, 0, 77, 75
2, 22272, Note_on_c, 0, 77, 0
2, 22272, Note_on_c, 0, 74, 75
2, 22306, Note_on_c, 0, 74, 0
2, 22308, Note_on_c, 0, 75, 75
2, 22320, Note_on_c, 0, 75, 0
2, 22320, Note_on_c, 0, 72, 75
2, 22354, Note_on_c, 0, 72, 0
2, 22356, Note_on_c, 0, 74, 75
2, 22368, Note_on_c, 0, 74, 0
2, 22368, Note_on_c, 0, 70, 75
2, 22402, Note_on_c, 0, 70, 0
2, 22404, Note_on_c, 0, 72, 75
2, 22416, Note_on_c, 0, 72, 0
2, 22416, Note_on_c, 0, 69, 75
2, 22450, Note_on_c, 0, 69, 0
2, 22452, Note_on_c, 0, 72, 75
2, 22464, Note_on_c, 0, 72, 0
2, 22464, Note_on_c, 0, 72, 75
2, 22476, Note_on_c, 0, 72, 0
2, 22476, Note_on_c, 0, 70, 75
2, 22488, Note_on_c, 0, 70, 0
2, 22488, Note_on_c, 0, 69, 75
2, 22500, Note_on_c, 0, 69, 0
2, 22500, Note_on_c, 0, 70, 75
2, 22512, Note_on_c, 0, 70, 0
2, 22512, Note_on_c, 0, 65, 75
2, 22532, Note_on_c, 0, 65, 0
2, 22644, Note_on_c, 0, 70, 75
2, 22656, Note_on_c, 0, 70, 0
2, 22656, Note_on_c, 0, 72, 75
2, 22662, Note_on_c, 0, 72, 0
2, 22662, Note_on_c, 0, 70, 75
2, 22668, Note_on_c, 0, 70, 0
2, 22668, Note_on_c, 0, 69, 75
2, 22674, Note_on_c, 0, 69, 0
2, 22674, Note_on_c, 0, 70, 75
2, 22690, Note_on_c, 0, 70, 0
2, 22692, Note_on_c, 0, 74, 75
2, 22704, Note_on_c, 0, 74, 0
2, 22704, Note_on_c, 0, 75, 75
2, 22710, Note_on_c, 0, 75, 0
2, 22710, Note_on_c, 0, 74, 75
2, 22716, Note_on_c, 0, 74, 0
2, 22716, Note_on_c, 0, 72, 75
2, 22722, Note_on_c, 0, 72, 0
2, 22722, Note_on_c, 0, 74, 75
2, 22738, Note_on_c, 0, 74, 0
2, 22740, Note_on_c, 0, 77, 75
2, 22752, Note_on_c, 0, 77, 0
2, 22752, Note_on_c, 0, 79, 75
2, 22758, Note_on_c, 0, 79, 0
2, 22758, Note_on_c, 0, 77, 75
2, 22764, Note_on_c, 0, 77, 0
2, 22764, Note_on_c, 0, 75, 75
2, 22770, Note_on_c, 0, 75, 0
2, 22770, Note_on_c, 0, 77, 75
2, 22786, Note_on_c, 0, 77, 0
2, 22788, Note_on_c, 0, 82, 75
2, 22800, Note_on_c, 0, 82, 0
2, 22800, Note_on_c, 0, 81, 75
2, 22834, Note_on_c, 0, 81, 0
2, 22836, Note_on_c, 0, 79, 75
2, 22848, Note_on_c, 0, 79, 0
2, 22848, Note_on_c, 0, 79, 75
2, 22882, Note_on_c, 0, 79, 0
2, 22884, Note_on_c, 0, 77, 75
2, 22896, Note_on_c, 0, 77, 0
2, 22896, Note_on_c, 0, 77, 75
2, 22941, Note_on_c, 0, 77, 0
2, 22960, Note_on_c, 0, 84, 75
2, 22975, Note_on_c, 0, 84, 0
2, 22976, Note_on_c, 0, 82, 75
2, 22991, Note_on_c, 0, 82, 0
2, 22992, Note_on_c, 0, 80, 75
2, 23007, Note_on_c, 0, 80, 0
2, 23008, Note_on_c, 0, 79, 75
2, 23023, Note_on_c, 0, 79, 0
2, 23024, Note_on_c, 0, 77, 75
2, 23039, Note_on_c, 0, 77, 0
2, 23040, Note_on_c, 0, 75, 75
2, 23055, Note_on_c, 0, 75, 0
2, 23056, Note_on_c, 0, 74, 75
2, 23071, Note_on_c, 0, 74, 0
2, 23072, Note_on_c, 0, 73, 75
2, 23087, Note_on_c, 0, 73, 0
2, 23088, Note_on_c, 0, 74, 75
2, 23133, Note_on_c, 0, 74, 0
2, 23152, Note_on_c, 0, 82, 75
2, 23167, Note_on_c, 0, 82, 0
2, 23168, Note_on_c, 0, 80, 75
2, 23183, Note_on_c, 0, 80, 0
2, 23184, Note_on_c, 0, 79, 75
2, 23199, Note_on_c, 0, 79, 0
2, 23200, Note_on_c, 0, 77, 75
2, 23215, Note_on_c, 0, 77, 0
2, 23216, Note_on_c, 0, 75, 75
2, 23231, Note_on_c, 0, 75, 0
2, 23232, Note_on_c, 0, 74, 75
2, 23247, Note_on_c, 0, 74, 0
2, 23248, Note_on_c, 0, 72, 75
2, 23263, Note_on_c, 0, 72, 0
2, 23264, Note_on_c, 0, 71, 75
2, 23279, Note_on_c, 0, 71, 0
2, 23280, Note_on_c, 0, 72, 75
2, 23295, Note_on_c, 0, 72, 0
2, 23296, Note_on_c, 0, 74, 75
2, 23311, Note_on_c, 0, 74, 0
2, 23312, Note_on_c, 0, 75, 75
2, 23327, Note_on_c, 0, 75, 0
2, 23328, Note_on_c, 0, 77, 75
2, 23343, Note_on_c, 0, 77, 0
2, 23344, Note_on_c, 0, 80, 75
2, 23359, Note_on_c, 0, 80, 0
2, 23360, Note_on_c, 0, 79, 75
2, 23375, Note_on_c, 0, 79, 0
2, 23376, Note_on_c, 0, 77, 75
2, 23391, Note_on_c, 0, 77, 0
2, 23392, Note_on_c, 0, 75, 75
2, 23407, Note_on_c, 0, 75, 0
2, 23408, Note_on_c, 0, 74, 75
2, 23423, Note_on_c, 0, 74, 0
2, 23424, Note_on_c, 0, 72, 75
2, 23439, Note_on_c, 0, 72, 0
2, 23440, Note_on_c, 0, 71, 75
2, 23455, Note_on_c, 0, 71, 0
2, 23456, Note_on_c, 0, 74, 75
2, 23471, Note_on_c, 0, 74, 0
2, 23472, Note_on_c, 0, 79, 75
2, 23517, Note_on_c, 0, 79, 0
2, 23616, Note_on_c, 0, 69, 75
2, 23622, Note_on_c, 0, 69, 0
2, 23622, Note_on_c, 0, 67, 75
2, 23628, Note_on_c, 0, 67, 0
2, 23628, Note_on_c, 0, 65, 75
2, 23634, Note_on_c, 0, 65, 0
2, 23634, Note_on_c, 0, 67, 75
2, 23727, Note_on_c, 0, 67, 0
2, 23728, Note_on_c, 0, 68, 75
2, 23743, Note_on_c, 0, 68, 0
2, 23744, Note_on_c, 0, 67, 75
2, 23759, Note_on_c, 0, 67, 0
2, 23760, Note_on_c, 0, 68, 75
2, 23775, Note_on_c, 0, 68, 0
2, 23776, Note_on_c, 0, 67, 75
2, 23791, Note_on_c, 0, 67, 0
2, 23792, Note_on_c, 0, 65, 75
2, 23807, Note_on_c, 0, 65, 0
2, 23808, Note_on_c, 0, 63, 75
2, 23823, Note_on_c, 0, 63, 0
2, 23824, Note_on_c, 0, 67, 75
2, 23839, Note_on_c, 0, 67, 0
2, 23840, Note_on_c, 0, 71, 75
2, 23856, Note_on_c, 0, 71, 0
2, 23856, Note_on_c, 0, 72, 75
2, 23871, Note_on_c, 0, 72, 0
2, 23872, Note_on_c, 0, 67, 75
2, 23887, Note_on_c, 0, 67, 0
2, 23888, Note_on_c, 0, 74, 75
2, 23904, Note_on_c, 0, 74, 0
2, 23904, Note_on_c, 0, 75, 75
2, 23919, Note_on_c, 0, 75, 0
2, 23920, Note_on_c, 0, 72, 75
2, 23935, Note_on_c, 0, 72, 0
2, 23936, Note_on_c, 0, 78, 75
2, 23952, Note_on_c, 0, 78, 0
2, 23952, Note_on_c, 0, 79, 75
2, 23997, Note_on_c, 0, 79, 0
2, 24000, Note_on_c, 0, 67, 75
2, 24006, Note_on_c, 0, 67, 0
2, 24006, Note_on_c, 0, 65, 75
2, 24012, Note_on_c, 0, 65, 0
2, 24012, Note_on_c, 0, 63, 75
2, 24018, Note_on_c, 0, 63, 0
2, 24018, Note_on_c, 0, 65, 75
2, 24111, Note_on_c, 0, 65, 0
2, 24112, Note_on_c, 0, 67, 75
2, 24127, Note_on_c, 0, 67, 0
2, 24128, Note_on_c, 0, 65, 75
2, 24143, Note_on_c, 0, 65, 0
2, 24144, Note_on_c, 0, 67, 75
2, 24159, Note_on_c, 0, 67, 0
2, 24160, Note_on_c, 0, 65, 75
2, 24175, Note_on_c, 0, 65, 0
2, 24176, Note_on_c, 0, 63, 75
2, 24191, Note_on_c, 0, 63, 0
2, 24192, Note_on_c, 0, 62, 75
2, 24207, Note_on_c, 0, 62, 0
2, 24208, Note_on_c, 0, 65, 75
2, 24223, Note_on_c, 0, 65, 0
2, 24224, Note_on_c, 0, 69, 75
2, 24240, Note_on_c, 0, 69, 0
2, 24240, Note_on_c, 0, 70, 75
2, 24255, Note_on_c, 0, 70, 0
2, 24256, Note_on_c, 0, 65, 75
2, 24271, Note_on_c, 0, 65, 0
2, 24272, Note_on_c, 0, 73, 75
2, 24288, Note_on_c, 0, 73, 0
2, 24288, Note_on_c, 0, 74, 75
2, 24303, Note_on_c, 0, 74, 0
2, 24304, Note_on_c, 0, 70, 75
2, 24319, Note_on_c, 0, 70, 0
2, 24320, Note_on_c, 0, 76, 75
2, 24336, Note_on_c, 0, 76, 0
2, 24336, Note_on_c, 0, 77, 75
2, 24429, Note_on_c, 0, 77, 0
2, 24552, Note_on_c, 0, 77, 64
2, 24562, Note_on_c, 0, 77, 0
2, 24576, Note_on_c, 0, 77, 64
2, 24599, Note_on_c, 0, 77, 0
2, 24600, Note_on_c, 0, 75, 64
2, 24645, Note_on_c, 0, 75, 0
2, 24648, Note_on_c, 0, 66, 64
2, 24693, Note_on_c, 0, 66, 0
2, 24696, Note_on_c, 0, 65, 64
2, 24741, Note_on_c, 0, 65, 0
2, 24744, Note_on_c, 0, 77, 64
2, 24754, Note_on_c, 0, 77, 0
2, 24768, Note_on_c, 0, 77, 64
2, 24791, Note_on_c, 0, 77, 0
2, 24792, Note_on_c, 0, 75, 64
2, 24837, Note_on_c, 0, 75, 0
2, 24840, Note_on_c, 0, 66, 64
2, 24885, Note_on_c, 0, 66, 0
2, 24888, Note_on_c, 0, 65, 64
2, 24933, Note_on_c, 0, 65, 0
2, 24936, Note_on_c, 0, 77, 64
2, 24946, Note_on_c, 0, 77, 0
2, 24960, Note_on_c, 0, 77, 80
2, 24983, Note_on_c, 0, 77, 0
2, 24984, Note_on_c, 0, 75, 80
2, 25029, Note_on_c, 0, 75, 0
2, 25032, Note_on_c, 0, 66, 80
2, 25077, Note_on_c, 0, 66, 0
2, 25080, Note_on_c, 0, 65, 80
2, 25125, Note_on_c, 0, 65, 0
2, 25128, Note_on_c, 0, 77, 80
2, 25138, Note_on_c, 0, 77, 0
2, 25152, Note_on_c, 0, 76, 80
2, 25164, Note_on_c, 0, 76, 0
2, 25164, Note_on_c, 0, 77, 64
2, 25176, Note_on_c, 0, 77, 0
2, 25176, Note_on_c, 0, 79, 64
2, 25188, Note_on_c, 0, 79, 0
2, 25188, Note_on_c, 0, 77, 65
2, 25200, Note_on_c, 0, 77, 0
2, 25200, Note_on_c, 0, 77, 66
2, 25271, Note_on_c, 0, 77, 0
2, 25272, Note_on_c, 0, 77, 70
2, 25284, Note_on_c, 0, 77, 0
2, 25284, Note_on_c, 0, 79, 70
2, 25296, Note_on_c, 0, 79, 0
2, 25296, Note_on_c, 0, 82, 70
2, 25308, Note_on_c, 0, 82, 0
2, 25308, Note_on_c, 0, 81, 70
2, 25320, Note_on_c, 0, 81, 0
2, 25320, Note_on_c, 0, 79, 70
2, 25332, Note_on_c, 0, 79, 0
2, 25332, Note_on_c, 0, 77, 70
2, 25344, Note_on_c, 0, 77, 0
2, 25344, Note_on_c, 0, 82, 70
2, 25367, Note_on_c, 0, 82, 0
2, 25368, Note_on_c, 0, 77, 70
2, 25380, Note_on_c, 0, 77, 0
2, 25380, Note_on_c, 0, 79, 70
2, 25392, Note_on_c, 0, 79, 0
2, 25392, Note_on_c, 0, 82, 70
2, 25404, Note_on_c, 0, 82, 0
2, 25404, Note_on_c, 0, 81, 70
2, 25416, Note_on_c, 0, 81, 0
2, 25416, Note_on_c, 0, 79, 70
2, 25428, Note_on_c, 0, 79, 0
2, 25428, Note_on_c, 0, 77, 70
2, 25440, Note_on_c, 0, 77, 0
2, 25440, Note_on_c, 0, 82, 70
2, 25463, Note_on_c, 0, 82, 0
2, 25464, Note_on_c, 0, 74, 70
2, 25476, Note_on_c, 0, 74, 0
2, 25476, Note_on_c, 0, 75, 70
2, 25488, Note_on_c, 0, 75, 0
2, 25488, Note_on_c, 0, 79, 70
2, 25500, Note_on_c, 0, 79, 0
2, 25500, Note_on_c, 0, 77, 70
2, 25512, Note_on_c, 0, 77, 0
2, 25512, Note_on_c, 0, 75, 70
2, 25524, Note_on_c, 0, 75, 0
2, 25524, Note_on_c, 0, 74, 70
2, 25536, Note_on_c, 0, 74, 0
2, 25536, Note_on_c, 0, 72, 70
2, 25559, Note_on_c, 0, 72, 0
2, 25560, Note_on_c, 0, 72, 70
2, 25572, Note_on_c, 0, 72, 0
2, 25572, Note_on_c, 0, 74, 70
2, 25584, Note_on_c, 0, 74, 0
2, 25584, Note_on_c, 0, 77, 70
2, 25596, Note_on_c, 0, 77, 0
2, 25596, Note_on_c, 0, 75, 70
2, 25608, Note_on_c, 0, 75, 0
2, 25608, Note_on_c, 0, 74, 70
2, 25620, Note_on_c, 0, 74, 0
2, 25620, Note_on_c, 0, 72, 70
2, 25632, Note_on_c, 0, 72, 0
2, 25632, Note_on_c, 0, 70, 80
2, 25655, Note_on_c, 0, 70, 0
2, 25656, Note_on_c, 0, 69, 78
2, 25668, Note_on_c, 0, 69, 0
2, 25668, Note_on_c, 0, 70, 78
2, 25680, Note_on_c, 0, 70, 0
2, 25680, Note_on_c, 0, 74, 77
2, 25692, Note_on_c, 0, 74, 0
2, 25692, Note_on_c, 0, 72, 76
2, 25704, Note_on_c, 0, 72, 0
2, 25704, Note_on_c, 0, 70, 76
2, 25716, Note_on_c, 0, 70, 0
2, 25716, Note_on_c, 0, 69, 75
2, 25728, Note_on_c, 0, 69, 0
2, 25728, Note_on_c, 0, 70, 75
2, 25738, Note_on_c, 0, 70, 0
2, 25752, Note_on_c, 0, 74, 75
2, 25762, Note_on_c, 0, 74, 0
2, 25776, Note_on_c, 0, 75, 75
2, 25788, Note_on_c, 0, 75, 0
2, 25788, Note_on_c, 0, 74, 75
2, 25800, Note_on_c, 0, 74, 0
2, 25800, Note_on_c, 0, 72, 75
2, 25812, Note_on_c, 0, 72, 0
2, 25812, Note_on_c, 0, 70, 75
2, 25824, Note_on_c, 0, 70, 0
2, 25824, Note_on_c, 0, 69, 75
2, 25834, Note_on_c, 0, 69, 0
2, 25848, Note_on_c, 0, 69, 75
2, 25858, Note_on_c, 0, 69, 0
2, 25872, Note_on_c, 0, 70, 75
2, 25884, Note_on_c, 0, 70, 0
2, 25884, Note_on_c, 0, 69, 75
2, 25896, Note_on_c, 0, 69, 0
2, 25896, Note_on_c, 0, 67, 75
2, 25908, Note_on_c, 0, 67, 0
2, 25908, Note_on_c, 0, 65, 75
2, 25920, Note_on_c, 0, 65, 0
2, 25920, Note_on_c, 0, 70, 75
2, 25930, Note_on_c, 0, 70, 0
2, 25944, Note_on_c, 0, 70, 75
2, 25954, Note_on_c, 0, 70, 0
2, 25992, Note_on_c, 0, 74, 75
2, 26002, Note_on_c, 0, 74, 0
2, 26016, Note_on_c, 0, 71, 75
2, 26040, Note_on_c, 0, 71, 0
2, 26040, Note_on_c, 0, 72, 75
2, 26063, Note_on_c, 0, 72, 0
2, 26088, Note_on_c, 0, 75, 75
2, 26098, Note_on_c, 0, 75, 0
2, 26112, Note_on_c, 0, 74, 75
2, 26127, Note_on_c, 0, 74, 0
2, 26128, Note_on_c, 0, 79, 75
2, 26143, Note_on_c, 0, 79, 0
2, 26144, Note_on_c, 0, 77, 75
2, 26159, Note_on_c, 0, 77, 0
2, 26160, Note_on_c, 0, 75, 75
2, 26175, Note_on_c, 0, 75, 0
2, 26176, Note_on_c, 0, 74, 75
2, 26191, Note_on_c, 0, 74, 0
2, 26192, Note_on_c, 0, 72, 75
2, 26207, Note_on_c, 0, 72, 0
2, 26208, Note_on_c, 0, 70, 75
2, 26218, Note_on_c, 0, 70, 0
2, 26232, Note_on_c, 0, 69, 75
2, 26277, Note_on_c, 0, 69, 0
2, 26280, Note_on_c, 0, 72, 75
2, 26327, Note_on_c, 0, 72, 0
2, 26328, Note_on_c, 0, 70, 75
2, 26373, Note_on_c, 0, 70, 0
2, 26376, Note_on_c, 0, 74, 75
2, 26421, Note_on_c, 0, 74, 0
2, 26424, Note_on_c, 0, 72, 75
2, 26469, Note_on_c, 0, 72, 0
2, 26472, Note_on_c, 0, 75, 75
2, 26482, Note_on_c, 0, 75, 0
2, 26496, Note_on_c, 0, 74, 75
2, 26506, Note_on_c, 0, 74, 0
2, 26520, Note_on_c, 0, 74, 75
2, 26530, Note_on_c, 0, 74, 0
2, 26544, Note_on_c, 0, 75, 75
2, 26556, Note_on_c, 0, 75, 0
2, 26556, Note_on_c, 0, 74, 75
2, 26568, Note_on_c, 0, 74, 0
2, 26568, Note_on_c, 0, 72, 75
2, 26580, Note_on_c, 0, 72, 0
2, 26580, Note_on_c, 0, 70, 75
2, 26592, Note_on_c, 0, 70, 0
2, 26592, Note_on_c, 0, 69, 75
2, 26602, Note_on_c, 0, 69, 0
2, 26616, Note_on_c, 0, 69, 75
2, 26626, Note_on_c, 0, 69, 0
2, 26640, Note_on_c, 0, 70, 75
2, 26652, Note_on_c, 0, 70, 0
2, 26652, Note_on_c, 0, 69, 75
2, 26664, Note_on_c, 0, 69, 0
2, 26664, Note_on_c, 0, 67, 75
2, 26676, Note_on_c, 0, 67, 0
2, 26676, Note_on_c, 0, 65, 75
2, 26688, Note_on_c, 0, 65, 0
2, 26688, Note_on_c, 0, 70, 75
2, 26698, Note_on_c, 0, 70, 0
2, 26712, Note_on_c, 0, 70, 75
2, 26757, Note_on_c, 0, 70, 0
2, 26760, Note_on_c, 0, 71, 75
2, 26805, Note_on_c, 0, 71, 0
2, 26808, Note_on_c, 0, 72, 75
2, 26853, Note_on_c, 0, 72, 0
2, 26856, Note_on_c, 0, 73, 75
2, 26903, Note_on_c, 0, 73, 0
2, 26904, Note_on_c, 0, 74, 75
2, 26949, Note_on_c, 0, 74, 0
2, 26952, Note_on_c, 0, 75, 75
2, 26997, Note_on_c, 0, 75, 0
2, 27000, Note_on_c, 0, 76, 76
2, 27045, Note_on_c, 0, 76, 0
2, 27048, Note_on_c, 0, 77, 77
2, 27095, Note_on_c, 0, 77, 0
2, 27096, Note_on_c, 0, 78, 77
2, 27141, Note_on_c, 0, 78, 0
2, 27144, Note_on_c, 0, 79, 78
2, 27189, Note_on_c, 0, 79, 0
2, 27192, Note_on_c, 0, 80, 78
2, 27237, Note_on_c, 0, 80, 0
2, 27240, Note_on_c, 0, 78, 79
2, 27287, Note_on_c, 0, 78, 0
2, 27288, Note_on_c, 0, 79, 80
2, 27311, Note_on_c, 0, 79, 0
2, 27312, Note_on_c, 0, 74, 79
2, 27335, Note_on_c, 0, 74, 0
2, 27336, Note_on_c, 0, 75, 78
2, 27359, Note_on_c, 0, 75, 0
2, 27360, Note_on_c, 0, 71, 77
2, 27383, Note_on_c, 0, 71, 0
2, 27384, Note_on_c, 0, 72, 77
2, 27407, Note_on_c, 0, 72, 0
2, 27408, Note_on_c, 0, 75, 76
2, 27431, Note_on_c, 0, 75, 0
2, 27432, Note_on_c, 0, 79, 75
2, 27455, Note_on_c, 0, 79, 0
2, 27456, Note_on_c, 0, 70, 75
2, 27501, Note_on_c, 0, 70, 0
2, 27504, Note_on_c, 0, 69, 75
2, 27549, Note_on_c, 0, 69, 0
2, 27552, Note_on_c, 0, 70, 75
2, 27597, Note_on_c, 0, 70, 0
2, 27672, Note_on_c, 0, 65, 75
2, 27684, Note_on_c, 0, 65, 0
2, 27684, Note_on_c, 0, 72, 75
2, 27696, Note_on_c, 0, 72, 0
2, 27696, Note_on_c, 0, 77, 75
2, 27719, Note_on_c, 0, 77, 0
2, 27720, Note_on_c, 0, 72, 75
2, 27743, Note_on_c, 0, 72, 0
2, 27744, Note_on_c, 0, 75, 75
2, 27767, Note_on_c, 0, 75, 0
2, 27768, Note_on_c, 0, 74, 75
2, 27791, Note_on_c, 0, 74, 0
2, 27792, Note_on_c, 0, 72, 75
2, 27815, Note_on_c, 0, 72, 0
2, 27816, Note_on_c, 0, 70, 75
2, 27839, Note_on_c, 0, 70, 0
2, 27840, Note_on_c, 0, 70, 75
2, 27888, Note_on_c, 0, 70, 0
2, 27888, Note_on_c, 0, 69, 75
2, 27929, Note_on_c, 0, 69, 0
2, 27936, Note_on_c, 0, 70, 75
2, 27981, Note_on_c, 0, 70, 0
2, 28056, Note_on_c, 0, 53, 75
2, 28068, Note_on_c, 0, 53, 0
2, 28068, Note_on_c, 0, 60, 75
2, 28080, Note_on_c, 0, 60, 0
2, 28080, Note_on_c, 0, 65, 75
2, 28103, Note_on_c, 0, 65, 0
2, 28104, Note_on_c, 0, 60, 75
2, 28127, Note_on_c, 0, 60, 0
2, 28128, Note_on_c, 0, 63, 75
2, 28151, Note_on_c, 0, 63, 0
2, 28152, Note_on_c, 0, 62, 75
2, 28175, Note_on_c, 0, 62, 0
2, 28176, Note_on_c, 0, 60, 75
2, 28182, Note_on_c, 0, 60, 0
2, 28182, Note_on_c, 0, 62, 75
2, 28188, Note_on_c, 0, 62, 0
2, 28188, Note_on_c, 0, 60, 75
2, 28199, Note_on_c, 0, 60, 0
2, 28200, Note_on_c, 0, 58, 75
2, 28223, Note_on_c, 0, 58, 0
2, 28236, Note_on_c, 0, 67, 75
2, 28248, Note_on_c, 0, 67, 0
2, 28248, Note_on_c, 0, 72, 75
2, 28260, Note_on_c, 0, 72, 0
2, 28260, Note_on_c, 0, 74, 75
2, 28272, Note_on_c, 0, 74, 0
2, 28272, Note_on_c, 0, 75, 75
2, 28284, Note_on_c, 0, 75, 0
2, 28284, Note_on_c, 0, 72, 75
2, 28296, Note_on_c, 0, 72, 0
2, 28296, Note_on_c, 0, 75, 75
2, 28308, Note_on_c, 0, 75, 0
2, 28308, Note_on_c, 0, 77, 75
2, 28320, Note_on_c, 0, 77, 0
2, 28320, Note_on_c, 0, 79, 75
2, 28332, Note_on_c, 0, 79, 0
2, 28332, Note_on_c, 0, 77, 75
2, 28344, Note_on_c, 0, 77, 0
2, 28344, Note_on_c, 0, 75, 75
2, 28356, Note_on_c, 0, 75, 0
2, 28356, Note_on_c, 0, 74, 75
2, 28368, Note_on_c, 0, 74, 0
2, 28368, Note_on_c, 0, 72, 75
2, 28380, Note_on_c, 0, 72, 0
2, 28380, Note_on_c, 0, 70, 75
2, 28392, Note_on_c, 0, 70, 0
2, 28392, Note_on_c, 0, 69, 75
2, 28404, Note_on_c, 0, 69, 0
2, 28404, Note_on_c, 0, 67, 75
2, 28416, Note_on_c, 0, 67, 0
2, 28416, Note_on_c, 0, 65, 75
2, 28439, Note_on_c, 0, 65, 0
2, 28440, Note_on_c, 0, 81, 75
2, 28463, Note_on_c, 0, 81, 0
2, 28488, Note_on_c, 0, 84, 75
2, 28511, Note_on_c, 0, 84, 0
2, 28536, Note_on_c, 0, 82, 75
2, 28559, Note_on_c, 0, 82, 0
2, 28584, Note_on_c, 0, 78, 75
2, 28607, Note_on_c, 0, 78, 0
2, 28632, Note_on_c, 0, 78, 75
2, 28644, Note_on_c, 0, 78, 0
2, 28644, Note_on_c, 0, 79, 75
2, 28656, Note_on_c, 0, 79, 0
2, 28656, Note_on_c, 0, 77, 75
2, 28668, Note_on_c, 0, 77, 0
2, 28668, Note_on_c, 0, 75, 75
2, 28680, Note_on_c, 0, 75, 0
2, 28680, Note_on_c, 0, 74, 75
2, 28692, Note_on_c, 0, 74, 0
2, 28692, Note_on_c, 0, 72, 75
2, 28704, Note_on_c, 0, 72, 0
2, 28704, Note_on_c, 0, 70, 75
2, 28749, Note_on_c, 0, 70, 0
2, 28752, Note_on_c, 0, 69, 75
2, 28759, Note_on_c, 0, 69, 0
2, 28759, Note_on_c, 0, 70, 75
2, 28766, Note_on_c, 0, 70, 0
2, 28766, Note_on_c, 0, 69, 75
2, 28773, Note_on_c, 0, 69, 0
2, 28773, Note_on_c, 0, 70, 75
2, 28780, Note_on_c, 0, 70, 0
2, 28780, Note_on_c, 0, 69, 75
2, 28787, Note_on_c, 0, 69, 0
2, 28787, Note_on_c, 0, 67, 75
2, 28794, Note_on_c, 0, 67, 0
2, 28794, Note_on_c, 0, 69, 75
2, 28800, Note_on_c, 0, 69, 0
2, 28800, Note_on_c, 0, 70, 75
2, 28834, Note_on_c, 0, 70, 0
2, 28836, Note_on_c, 0, 82, 75
2, 28848, Note_on_c, 0, 82, 0
2, 28848, Note_on_c, 0, 84, 75
2, 28860, Note_on_c, 0, 84, 0
2, 28860, Note_on_c, 0, 82, 75
2, 28872, Note_on_c, 0, 82, 0
2, 28872, Note_on_c, 0, 81, 75
2, 28884, Note_on_c, 0, 81, 0
2, 28884, Note_on_c, 0, 79, 75
2, 28896, Note_on_c, 0, 79, 0
2, 28896, Note_on_c, 0, 81, 75
2, 28908, Note_on_c, 0, 81, 0
2, 28908, Note_on_c, 0, 79, 75
2, 28920, Note_on_c, 0, 79, 0
2, 28920, Note_on_c, 0, 77, 75
2, 28932, Note_on_c, 0, 77, 0
2, 28932, Note_on_c, 0, 76, 75
2, 28944, Note_on_c, 0, 76, 0
2, 28944, Note_on_c, 0, 81, 75
2, 28956, Note_on_c, 0, 81, 0
2, 28956, Note_on_c, 0, 79, 75
2, 28968, Note_on_c, 0, 79, 0
2, 28968, Note_on_c, 0, 77, 75
2, 28980, Note_on_c, 0, 77, 0
2, 28980, Note_on_c, 0, 76, 75
2, 28992, Note_on_c, 0, 76, 0
2, 28992, Note_on_c, 0, 77, 75
2, 29026, Note_on_c, 0, 77, 0
2, 29028, Note_on_c, 0, 84, 75
2, 29040, Note_on_c, 0, 84, 0
2, 29040, Note_on_c, 0, 86, 75
2, 29052, Note_on_c, 0, 86, 0
2, 29052, Note_on_c, 0, 84, 75
2, 29064, Note_on_c, 0, 84, 0
2, 29064, Note_on_c, 0, 82, 75
2, 29076, Note_on_c, 0, 82, 0
2, 29076, Note_on_c, 0, 81, 75
2, 29088, Note_on_c, 0, 81, 0
2, 29088, Note_on_c, 0, 82, 75
2, 29100, Note_on_c, 0, 82, 0
2, 29100, Note_on_c, 0, 81, 75
2, 29112, Note_on_c, 0, 81, 0
2, 29112, Note_on_c, 0, 79, 75
2, 29124, Note_on_c, 0, 79, 0
2, 29124, Note_on_c, 0, 77, 75
2, 29136, Note_on_c, 0, 77, 0
2, 29136, Note_on_c, 0, 77, 75
2, 29148, Note_on_c, 0, 77, 0
2, 29148, Note_on_c, 0, 75, 75
2, 29160, Note_on_c, 0, 75, 0
2, 29160, Note_on_c, 0, 74, 75
2, 29172, Note_on_c, 0, 74, 0
2, 29172, Note_on_c, 0, 72, 75
2, 29184, Note_on_c, 0, 72, 0
2, 29184, Note_on_c, 0, 74, 75
2, 29196, Note_on_c, 0, 74, 0
2, 29196, Note_on_c, 0, 77, 75
2, 29208, Note_on_c, 0, 77, 0
2, 29208, Note_on_c, 0, 75, 75
2, 29220, Note_on_c, 0, 75, 0
2, 29220, Note_on_c, 0, 74, 75
2, 29232, Note_on_c, 0, 74, 0
2, 29232, Note_on_c, 0, 79, 75
2, 29244, Note_on_c, 0, 79, 0
2, 29244, Note_on_c, 0, 75, 75
2, 29256, Note_on_c, 0, 75, 0
2, 29256, Note_on_c, 0, 74, 75
2, 29268, Note_on_c, 0, 74, 0
2, 29268, Note_on_c, 0, 72, 75
2, 29280, Note_on_c, 0, 72, 0
2, 29280, Note_on_c, 0, 70, 75
2, 29325, Note_on_c, 0, 70, 0
2, 29328, Note_on_c, 0, 69, 75
2, 29335, Note_on_c, 0, 69, 0
2, 29335, Note_on_c, 0, 70, 75
2, 29342, Note_on_c, 0, 70, 0
2, 29342, Note_on_c, 0, 69, 75
2, 29349, Note_on_c, 0, 69, 0
2, 29349, Note_on_c, 0, 70, 75
2, 29356, Note_on_c, 0, 70, 0
2, 29356, Note_on_c, 0, 69, 75
2, 29363, Note_on_c, 0, 69, 0
2, 29363, Note_on_c, 0, 67, 75
2, 29370, Note_on_c, 0, 67, 0
2, 29370, Note_on_c, 0, 69, 75
2, 29376, Note_on_c, 0, 69, 0
2, 29376, Note_on_c, 0, 70, 75
2, 29410, Note_on_c, 0, 70, 0
2, 29412, Note_on_c, 0, 70, 75
2, 29424, Note_on_c, 0, 70, 0
2, 29424, Note_on_c, 0, 72, 75
2, 29436, Note_on_c, 0, 72, 0
2, 29436, Note_on_c, 0, 70, 75
2, 29448, Note_on_c, 0, 70, 0
2, 29448, Note_on_c, 0, 69, 75
2, 29460, Note_on_c, 0, 69, 0
2, 29460, Note_on_c, 0, 67, 75
2, 29472, Note_on_c, 0, 67, 0
2, 29472, Note_on_c, 0, 69, 75
2, 29484, Note_on_c, 0, 69, 0
2, 29484, Note_on_c, 0, 67, 75
2, 29496, Note_on_c, 0, 67, 0
2, 29496, Note_on_c, 0, 65, 75
2, 29508, Note_on_c, 0, 65, 0
2, 29508, Note_on_c, 0, 64, 75
2, 29520, Note_on_c, 0, 64, 0
2, 29520, Note_on_c, 0, 69, 75
2, 29532, Note_on_c, 0, 69, 0
2, 29532, Note_on_c, 0, 67, 75
2, 29544, Note_on_c, 0, 67, 0
2, 29544, Note_on_c, 0, 65, 75
2, 29556, Note_on_c, 0, 65, 0
2, 29556, Note_on_c, 0, 64, 75
2, 29568, Note_on_c, 0, 64, 0
2, 29568, Note_on_c, 0, 65, 75
2, 29602, Note_on_c, 0, 65, 0
2, 29604, Note_on_c, 0, 72, 75
2, 29616, Note_on_c, 0, 72, 0
2, 29616, Note_on_c, 0, 74, 75
2, 29628, Note_on_c, 0, 74, 0
2, 29628, Note_on_c, 0, 72, 75
2, 29640, Note_on_c, 0, 72, 0
2, 29640, Note_on_c, 0, 70, 75
2, 29652, Note_on_c, 0, 70, 0
2, 29652, Note_on_c, 0, 69, 75
2, 29664, Note_on_c, 0, 69, 0
2, 29664, Note_on_c, 0, 75, 75
2, 29676, Note_on_c, 0, 75, 0
2, 29676, Note_on_c, 0, 74, 75
2, 29688, Note_on_c, 0, 74, 0
2, 29688, Note_on_c, 0, 72, 75
2, 29700, Note_on_c, 0, 72, 0
2, 29700, Note_on_c, 0, 70, 75
2, 29712, Note_on_c, 0, 70, 0
2, 29712, Note_on_c, 0, 69, 75
2, 29724, Note_on_c, 0, 69, 0
2, 29724, Note_on_c, 0, 67, 75
2, 29736, Note_on_c, 0, 67, 0
2, 29736, Note_on_c, 0, 65, 75
2, 29748, Note_on_c, 0, 65, 0
2, 29748, Note_on_c, 0, 63, 75
2, 29760, Note_on_c, 0, 63, 0
2, 29760, Note_on_c, 0, 62, 75
2, 29772, Note_on_c, 0, 62, 0
2, 29772, Note_on_c, 0, 65, 75
2, 29784, Note_on_c, 0, 65, 0
2, 29784, Note_on_c, 0, 69, 75
2, 29796, Note_on_c, 0, 69, 0
2, 29796, Note_on_c, 0, 70, 75
2, 29808, Note_on_c, 0, 70, 0
2, 29808, Note_on_c, 0, 69, 75
2, 29820, Note_on_c, 0, 69, 0
2, 29820, Note_on_c, 0, 67, 75
2, 29832, Note_on_c, 0, 67, 0
2, 29832, Note_on_c, 0, 65, 75
2, 29844, Note_on_c, 0, 65, 0
2, 29844, Note_on_c, 0, 63, 75
2, 29856, Note_on_c, 0, 63, 0
2, 29856, Note_on_c, 0, 62, 75
2, 29901, Note_on_c, 0, 62, 0
2, 29904, Note_on_c, 0, 60, 75
2, 29911, Note_on_c, 0, 60, 0
2, 29911, Note_on_c, 0, 62, 75
2, 29918, Note_on_c, 0, 62, 0
2, 29918, Note_on_c, 0, 60, 75
2, 29925, Note_on_c, 0, 60, 0
2, 29925, Note_on_c, 0, 62, 75
2, 29932, Note_on_c, 0, 62, 0
2, 29932, Note_on_c, 0, 60, 75
2, 29939, Note_on_c, 0, 60, 0
2, 29939, Note_on_c, 0, 58, 75
2, 29946, Note_on_c, 0, 58, 0
2, 29946, Note_on_c, 0, 60, 75
2, 29952, Note_on_c, 0, 60, 0
2, 29952, Note_on_c, 0, 58, 75
2, 30041, Note_on_c, 0, 58, 0
2, 30120, Note_on_c, 0, 65, 75
2, 30143, Note_on_c, 0, 65, 0
2, 30144, Note_on_c, 0, 67, 75
2, 30150, Note_on_c, 0, 67, 0
2, 30150, Note_on_c, 0, 65, 75
2, 30156, Note_on_c, 0, 65, 0
2, 30156, Note_on_c, 0, 63, 75
2, 30162, Note_on_c, 0, 63, 0
2, 30162, Note_on_c, 0, 65, 75
2, 30178, Note_on_c, 0, 65, 0
2, 30180, Note_on_c, 0, 69, 75
2, 30192, Note_on_c, 0, 69, 0
2, 30192, Note_on_c, 0, 70, 75
2, 30198, Note_on_c, 0, 70, 0
2, 30198, Note_on_c, 0, 69, 75
2, 30204, Note_on_c, 0, 69, 0
2, 30204, Note_on_c, 0, 67, 75
2, 30210, Note_on_c, 0, 67, 0
2, 30210, Note_on_c, 0, 69, 75
2, 30226, Note_on_c, 0, 69, 0
2, 30228, Note_on_c, 0, 72, 75
2, 30240, Note_on_c, 0, 72, 0
2, 30240, Note_on_c, 0, 74, 75
2, 30246, Note_on_c, 0, 74, 0
2, 30246, Note_on_c, 0, 72, 75
2, 30252, Note_on_c, 0, 72, 0
2, 30252, Note_on_c, 0, 71, 75
2, 30258, Note_on_c, 0, 71, 0
2, 30258, Note_on_c, 0, 72, 75
2, 30274, Note_on_c, 0, 72, 0
2, 30276, Note_on_c, 0, 77, 75
2, 30288, Note_on_c, 0, 77, 0
2, 30288, Note_on_c, 0, 76, 75
2, 30322, Note_on_c, 0, 76, 0
2, 30324, Note_on_c, 0, 74, 75
2, 30336, Note_on_c, 0, 74, 0
2, 30336, Note_on_c, 0, 74, 75
2, 30359, Note_on_c, 0, 74, 0
2, 30360, Note_on_c, 0, 72, 75
2, 30383, Note_on_c, 0, 72, 0
2, 30384, Note_on_c, 0, 72, 75
2, 30466, Note_on_c, 0, 72, 0
2, 30468, Note_on_c, 0, 74, 75
2, 30480, Note_on_c, 0, 74, 0
2, 30480, Note_on_c, 0, 70, 75
2, 30514, Note_on_c, 0, 70, 0
2, 30516, Note_on_c, 0, 72, 75
2, 30528, Note_on_c, 0, 72, 0
2, 30528, Note_on_c, 0, 69, 75
2, 30562, Note_on_c, 0, 69, 0
2, 30564, Note_on_c, 0, 70, 75
2, 30576, Note_on_c, 0, 70, 0
2, 30576, Note_on_c, 0, 67, 75
2, 30610, Note_on_c, 0, 67, 0
2, 30612, Note_on_c, 0, 69, 75
2, 30624, Note_on_c, 0, 69, 0
2, 30624, Note_on_c, 0, 65, 75
2, 30658, Note_on_c, 0, 65, 0
2, 30660, Note_on_c, 0, 67, 75
2, 30672, Note_on_c, 0, 67, 0
2, 30672, Note_on_c, 0, 64, 75
2, 30706, Note_on_c, 0, 64, 0
2, 30708, Note_on_c, 0, 67, 75
2, 30720, Note_on_c, 0, 67, 0
2, 30720, Note_on_c, 0, 67, 75
2, 30732, Note_on_c, 0, 67, 0
2, 30732, Note_on_c, 0, 65, 75
2, 30744, Note_on_c, 0, 65, 0
2, 30744, Note_on_c, 0, 64, 75
2, 30756, Note_on_c, 0, 64, 0
2, 30756, Note_on_c, 0, 65, 75
2, 30768, Note_on_c, 0, 65, 0
2, 30768, Note_on_c, 0, 60, 75
2, 30813, Note_on_c, 0, 60, 0
2, 30888, Note_on_c, 0, 65, 75
2, 30911, Note_on_c, 0, 65, 0
2, 30912, Note_on_c, 0, 67, 75
2, 30918, Note_on_c, 0, 67, 0
2, 30918, Note_on_c, 0, 65, 75
2, 30924, Note_on_c, 0, 65, 0
2, 30924, Note_on_c, 0, 63, 75
2, 30930, Note_on_c, 0, 63, 0
2, 30930, Note_on_c, 0, 65, 75
2, 30946, Note_on_c, 0, 65, 0
2, 30948, Note_on_c, 0, 69, 75
2, 30960, Note_on_c, 0, 69, 0
2, 30960, Note_on_c, 0, 70, 75
2, 30966, Note_on_c, 0, 70, 0
2, 30966, Note_on_c, 0, 69, 75
2, 30972, Note_on_c, 0, 69, 0
2, 30972, Note_on_c, 0, 67, 75
2, 30978, Note_on_c, 0, 67, 0
2, 30978, Note_on_c, 0, 69, 75
2, 30994, Note_on_c, 0, 69, 0
2, 30996, Note_on_c, 0, 72, 75
2, 31008, Note_on_c, 0, 72, 0
2, 31008, Note_on_c, 0, 74, 75
2, 31014, Note_on_c, 0, 74, 0
2, 31014, Note_on_c, 0, 72, 75
2, 31020, Note_on_c, 0, 72, 0
2, 31020, Note_on_c, 0, 71, 75
2, 31026, Note_on_c, 0, 71, 0
2, 31026, Note_on_c, 0, 72, 75
2, 31042, Note_on_c, 0, 72, 0
2, 31044, Note_on_c, 0, 77, 75
2, 31056, Note_on_c, 0, 77, 0
2, 31056, Note_on_c, 0, 79, 75
2, 31062, Note_on_c, 0, 79, 0
2, 31062, Note_on_c, 0, 77, 75
2, 31068, Note_on_c, 0, 77, 0
2, 31068, Note_on_c, 0, 75, 75
2, 31074, Note_on_c, 0, 75, 0
2, 31074, Note_on_c, 0, 77, 75
2, 31090, Note_on_c, 0, 77, 0
2, 31092, Note_on_c, 0, 80, 75
2, 31104, Note_on_c, 0, 80, 0
2, 31104, Note_on_c, 0, 80, 64
2, 31128, Note_on_c, 0, 80, 0
2, 31128, Note_on_c, 0, 71, 64
2, 31151, Note_on_c, 0, 71, 0
2, 31176, Note_on_c, 0, 71, 64
2, 31186, Note_on_c, 0, 71, 0
2, 31200, Note_on_c, 0, 74, 64
2, 31224, Note_on_c, 0, 74, 0
2, 31224, Note_on_c, 0, 72, 64
2, 31247, Note_on_c, 0, 72, 0
2, 31272, Note_on_c, 0, 72, 64
2, 31282, Note_on_c, 0, 72, 0
2, 31296, Note_on_c, 0, 82, 64
2, 31320, Note_on_c, 0, 82, 0
2, 31320, Note_on_c, 0, 73, 64
2, 31343, Note_on_c, 0, 73, 0
2, 31368, Note_on_c, 0, 73, 64
2, 31378, Note_on_c, 0, 73, 0
2, 31392, Note_on_c, 0, 76, 64
2, 31416, Note_on_c, 0, 76, 0
2, 31416, Note_on_c, 0, 74, 64
2, 31439, Note_on_c, 0, 74, 0
2, 31656, Note_on_c, 0, 86, 64
2, 31666, Note_on_c, 0, 86, 0
2, 31680, Note_on_c, 0, 86, 64
2, 31703, Note_on_c, 0, 86, 0
2, 31704, Note_on_c, 0, 84, 64
2, 31749, Note_on_c, 0, 84, 0
2, 31752, Note_on_c, 0, 75, 64
2, 31797, Note_on_c, 0, 75, 0
2, 31800, Note_on_c, 0, 74, 64
2, 31845, Note_on_c, 0, 74, 0
2, 31848, Note_on_c, 0, 86, 64
2, 31858, Note_on_c, 0, 86, 0
2, 31872, Note_on_c, 0, 86, 64
2, 31895, Note_on_c, 0, 86, 0
2, 31896, Note_on_c, 0, 84, 64
2, 31941, Note_on_c, 0, 84, 0
2, 31944, Note_on_c, 0, 75, 64
2, 31989, Note_on_c, 0, 75, 0
2, 31992, Note_on_c, 0, 74, 64
2, 32037, Note_on_c, 0, 74, 0
2, 32040, Note_on_c, 0, 86, 71
2, 32050, Note_on_c, 0, 86, 0
2, 32064, Note_on_c, 0, 84, 80
2, 32087, Note_on_c, 0, 84, 0
2, 32088, Note_on_c, 0, 83, 80
2, 32133, Note_on_c, 0, 83, 0
2, 32136, Note_on_c, 0, 77, 80
2, 32181, Note_on_c, 0, 77, 0
2, 32184, Note_on_c, 0, 76, 80
2, 32229, Note_on_c, 0, 76, 0
2, 32232, Note_on_c, 0, 84, 80
2, 32242, Note_on_c, 0, 84, 0
2, 32256, Note_on_c, 0, 82, 80
2, 32279, Note_on_c, 0, 82, 0
2, 32280, Note_on_c, 0, 81, 80
2, 32325, Note_on_c, 0, 81, 0
2, 32328, Note_on_c, 0, 75, 80
2, 32373, Note_on_c, 0, 75, 0
2, 32376, Note_on_c, 0, 74, 80
2, 32421, Note_on_c, 0, 74, 0
2, 32424, Note_on_c, 0, 82, 80
2, 32434, Note_on_c, 0, 82, 0
2, 32448, Note_on_c, 0, 81, 80
2, 32471, Note_on_c, 0, 81, 0
2, 32472, Note_on_c, 0, 79, 80
2, 32517, Note_on_c, 0, 79, 0
2, 32520, Note_on_c, 0, 74, 80
2, 32565, Note_on_c, 0, 74, 0
2, 32568, Note_on_c, 0, 72, 80
2, 32613, Note_on_c, 0, 72, 0
2, 32616, Note_on_c, 0, 81, 80
2, 32626, Note_on_c, 0, 81, 0
2, 32640, Note_on_c, 0, 79, 80
2, 32663, Note_on_c, 0, 79, 0
2, 32664, Note_on_c, 0, 78, 80
2, 32709, Note_on_c, 0, 78, 0
2, 32712, Note_on_c, 0, 72, 80
2, 32757, Note_on_c, 0, 72, 0
2, 32760, Note_on_c, 0, 70, 80
2, 32805, Note_on_c, 0, 70, 0
2, 32808, Note_on_c, 0, 79, 80
2, 32818, Note_on_c, 0, 79, 0
2, 32832, Note_on_c, 0, 70, 80
2, 32839, Note_on_c, 0, 70, 0
2, 32839, Note_on_c, 0, 72, 80
2, 32846, Note_on_c, 0, 72, 0
2, 32846, Note_on_c, 0, 70, 80
2, 32853, Note_on_c, 0, 70, 0
2, 32853, Note_on_c, 0, 72, 80
2, 32860, Note_on_c, 0, 72, 0
2, 32860, Note_on_c, 0, 70, 80
2, 32867, Note_on_c, 0, 70, 0
2, 32867, Note_on_c, 0, 69, 80
2, 32874, Note_on_c, 0, 69, 0
2, 32874, Note_on_c, 0, 70, 80
2, 32880, Note_on_c, 0, 70, 0
2, 32880, Note_on_c, 0, 69, 80
2, 32925, Note_on_c, 0, 69, 0
2, 32952, Note_on_c, 0, 74, 80
2, 32964, Note_on_c, 0, 74, 0
2, 32964, Note_on_c, 0, 76, 80
2, 32976, Note_on_c, 0, 76, 0
2, 32976, Note_on_c, 0, 79, 80
2, 32988, Note_on_c, 0, 79, 0
2, 32988, Note_on_c, 0, 78, 80
2, 33000, Note_on_c, 0, 78, 0
2, 33000, Note_on_c, 0, 76, 80
2, 33012, Note_on_c, 0, 76, 0
2, 33012, Note_on_c, 0, 74, 80
2, 33024, Note_on_c, 0, 74, 0
2, 33024, Note_on_c, 0, 79, 80
2, 33047, Note_on_c, 0, 79, 0
2, 33048, Note_on_c, 0, 74, 80
2, 33060, Note_on_c, 0, 74, 0
2, 33060, Note_on_c, 0, 76, 80
2, 33072, Note_on_c, 0, 76, 0
2, 33072, Note_on_c, 0, 79, 80
2, 33084, Note_on_c, 0, 79, 0
2, 33084, Note_on_c, 0, 78, 80
2, 33096, Note_on_c, 0, 78, 0
2, 33096, Note_on_c, 0, 76, 80
2, 33108, Note_on_c, 0, 76, 0
2, 33108, Note_on_c, 0, 74, 80
2, 33120, Note_on_c, 0, 74, 0
2, 33120, Note_on_c, 0, 79, 80
2, 33143, Note_on_c, 0, 79, 0
2, 33144, Note_on_c, 0, 79, 80
2, 33156, Note_on_c, 0, 79, 0
2, 33156, Note_on_c, 0, 81, 80
2, 33168, Note_on_c, 0, 81, 0
2, 33168, Note_on_c, 0, 84, 80
2, 33180, Note_on_c, 0, 84, 0
2, 33180, Note_on_c, 0, 82, 78
2, 33192, Note_on_c, 0, 82, 0
2, 33192, Note_on_c, 0, 81, 77
2, 33204, Note_on_c, 0, 81, 0
2, 33204, Note_on_c, 0, 79, 76
2, 33216, Note_on_c, 0, 79, 0
2, 33216, Note_on_c, 0, 82, 75
2, 33226, Note_on_c, 0, 82, 0
2, 33240, Note_on_c, 0, 82, 75
2, 33250, Note_on_c, 0, 82, 0
2, 33288, Note_on_c, 0, 86, 75
2, 33312, Note_on_c, 0, 86, 0
2, 33312, Note_on_c, 0, 78, 75
2, 33322, Note_on_c, 0, 78, 0
2, 33336, Note_on_c, 0, 78, 75
2, 33346, Note_on_c, 0, 78, 0
2, 33384, Note_on_c, 0, 81, 75
2, 33408, Note_on_c, 0, 81, 0
2, 33408, Note_on_c, 0, 79, 75
2, 33431, Note_on_c, 0, 79, 0
2, 33432, Note_on_c, 0, 79, 75
2, 33442, Note_on_c, 0, 79, 0
2, 33480, Note_on_c, 0, 82, 75
2, 33504, Note_on_c, 0, 82, 0
2, 33504, Note_on_c, 0, 81, 75
2, 33527, Note_on_c, 0, 81, 0
2, 33528, Note_on_c, 0, 81, 75
2, 33538, Note_on_c, 0, 81, 0
2, 33576, Note_on_c, 0, 84, 75
2, 33600, Note_on_c, 0, 84, 0
2, 33600, Note_on_c, 0, 82, 75
2, 33610, Note_on_c, 0, 82, 0
2, 33624, Note_on_c, 0, 82, 75
2, 33634, Note_on_c, 0, 82, 0
2, 33648, Note_on_c, 0, 84, 75
2, 33660, Note_on_c, 0, 84, 0
2, 33660, Note_on_c, 0, 82, 75
2, 33672, Note_on_c, 0, 82, 0
2, 33672, Note_on_c, 0, 81, 75
2, 33684, Note_on_c, 0, 81, 0
2, 33684, Note_on_c, 0, 79, 75
2, 33696, Note_on_c, 0, 79, 0
2, 33696, Note_on_c, 0, 78, 75
2, 33706, Note_on_c, 0, 78, 0
2, 33720, Note_on_c, 0, 78, 75
2, 33730, Note_on_c, 0, 78, 0
2, 33744, Note_on_c, 0, 79, 75
2, 33756, Note_on_c, 0, 79, 0
2, 33756, Note_on_c, 0, 78, 75
2, 33768, Note_on_c, 0, 78, 0
2, 33768, Note_on_c, 0, 76, 75
2, 33780, Note_on_c, 0, 76, 0
2, 33780, Note_on_c, 0, 74, 75
2, 33792, Note_on_c, 0, 74, 0
2, 33792, Note_on_c, 0, 79, 75
2, 33802, Note_on_c, 0, 79, 0
2, 33816, Note_on_c, 0, 79, 75
2, 33826, Note_on_c, 0, 79, 0
2, 33864, Note_on_c, 0, 82, 75
2, 33887, Note_on_c, 0, 82, 0
2, 33888, Note_on_c, 0, 80, 75
2, 33912, Note_on_c, 0, 80, 0
2, 33912, Note_on_c, 0, 81, 75
2, 33935, Note_on_c, 0, 81, 0
2, 33960, Note_on_c, 0, 84, 75
2, 34007, Note_on_c, 0, 84, 0
2, 34008, Note_on_c, 0, 82, 75
2, 34053, Note_on_c, 0, 82, 0
2, 34056, Note_on_c, 0, 81, 75
2, 34101, Note_on_c, 0, 81, 0
2, 34104, Note_on_c, 0, 79, 76
2, 34149, Note_on_c, 0, 79, 0
2, 34152, Note_on_c, 0, 77, 77
2, 34199, Note_on_c, 0, 77, 0
2, 34200, Note_on_c, 0, 75, 77
2, 34245, Note_on_c, 0, 75, 0
2, 34248, Note_on_c, 0, 74, 78
2, 34293, Note_on_c, 0, 74, 0
2, 34296, Note_on_c, 0, 72, 78
2, 34341, Note_on_c, 0, 72, 0
2, 34344, Note_on_c, 0, 71, 79
2, 34391, Note_on_c, 0, 71, 0
2, 34392, Note_on_c, 0, 72, 80
2, 34415, Note_on_c, 0, 72, 0
2, 34416, Note_on_c, 0, 79, 80
2, 34439, Note_on_c, 0, 79, 0
2, 34440, Note_on_c, 0, 75, 80
2, 34463, Note_on_c, 0, 75, 0
2, 34464, Note_on_c, 0, 74, 80
2, 34487, Note_on_c, 0, 74, 0
2, 34488, Note_on_c, 0, 72, 80
2, 34533, Note_on_c, 0, 72, 0
2, 34536, Note_on_c, 0, 71, 75
2, 34583, Note_on_c, 0, 71, 0
2, 34584, Note_on_c, 0, 72, 75
2, 34607, Note_on_c, 0, 72, 0
2, 34608, Note_on_c, 0, 79, 75
2, 34631, Note_on_c, 0, 79, 0
2, 34632, Note_on_c, 0, 75, 75
2, 34655, Note_on_c, 0, 75, 0
2, 34656, Note_on_c, 0, 74, 75
2, 34679, Note_on_c, 0, 74, 0
2, 34680, Note_on_c, 0, 72, 75
2, 34725, Note_on_c, 0, 72, 0
2, 34728, Note_on_c, 0, 71, 75
2, 34775, Note_on_c, 0, 71, 0
2, 34776, Note_on_c, 0, 72, 75
2, 34799, Note_on_c, 0, 72, 0
2, 34800, Note_on_c, 0, 79, 75
2, 34823, Note_on_c, 0, 79, 0
2, 34824, Note_on_c, 0, 75, 75
2, 34847, Note_on_c, 0, 75, 0
2, 34848, Note_on_c, 0, 79, 75
2, 34871, Note_on_c, 0, 79, 0
2, 34872, Note_on_c, 0, 75, 75
2, 34895, Note_on_c, 0, 75, 0
2, 34896, Note_on_c, 0, 79, 75
2, 34919, Note_on_c, 0, 79, 0
2, 34920, Note_on_c, 0, 75, 75
2, 34943, Note_on_c, 0, 75, 0
2, 34944, Note_on_c, 0, 74, 75
2, 35040, Note_on_c, 0, 74, 0
2, 35040, Note_on_c, 0, 73, 75
2, 35129, Note_on_c, 0, 73, 0
2, 35136, Note_on_c, 0, 74, 75
2, 35181, Note_on_c, 0, 74, 0
2, 35352, Note_on_c, 0, 62, 75
2, 35364, Note_on_c, 0, 62, 0
2, 35364, Note_on_c, 0, 69, 75
2, 35376, Note_on_c, 0, 69, 0
2, 35376, Note_on_c, 0, 74, 75
2, 35399, Note_on_c, 0, 74, 0
2, 35400, Note_on_c, 0, 69, 75
2, 35423, Note_on_c, 0, 69, 0
2, 35424, Note_on_c, 0, 72, 75
2, 35447, Note_on_c, 0, 72, 0
2, 35448, Note_on_c, 0, 70, 75
2, 35471, Note_on_c, 0, 70, 0
2, 35472, Note_on_c, 0, 69, 75
2, 35495, Note_on_c, 0, 69, 0
2, 35496, Note_on_c, 0, 67, 75
2, 35519, Note_on_c, 0, 67, 0
2, 35520, Note_on_c, 0, 67, 75
2, 35565, Note_on_c, 0, 67, 0
2, 35568, Note_on_c, 0, 66, 75
2, 35613, Note_on_c, 0, 66, 0
2, 35616, Note_on_c, 0, 67, 75
2, 35661, Note_on_c, 0, 67, 0
2, 35736, Note_on_c, 0, 74, 75
2, 35748, Note_on_c, 0, 74, 0
2, 35748, Note_on_c, 0, 81, 75
2, 35760, Note_on_c, 0, 81, 0
2, 35760, Note_on_c, 0, 86, 75
2, 35783, Note_on_c, 0, 86, 0
2, 35784, Note_on_c, 0, 81, 76
2, 35807, Note_on_c, 0, 81, 0
2, 35808, Note_on_c, 0, 84, 77
2, 35831, Note_on_c, 0, 84, 0
2, 35832, Note_on_c, 0, 82, 77
2, 35855, Note_on_c, 0, 82, 0
2, 35856, Note_on_c, 0, 81, 78
2, 35862, Note_on_c, 0, 81, 0
2, 35862, Note_on_c, 0, 82, 78
2, 35868, Note_on_c, 0, 82, 0
2, 35868, Note_on_c, 0, 81, 78
2, 35879, Note_on_c, 0, 81, 0
2, 35880, Note_on_c, 0, 79, 79
2, 35903, Note_on_c, 0, 79, 0
2, 35916, Note_on_c, 0, 67, 80
2, 35928, Note_on_c, 0, 67, 0
2, 35928, Note_on_c, 0, 72, 80
2, 35940, Note_on_c, 0, 72, 0
2, 35940, Note_on_c, 0, 75, 80
2, 35952, Note_on_c, 0, 75, 0
2, 35952, Note_on_c, 0, 79, 80
2, 35964, Note_on_c, 0, 79, 0
2, 35964, Note_on_c, 0, 71, 80
2, 35976, Note_on_c, 0, 71, 0
2, 35976, Note_on_c, 0, 72, 80
2, 35988, Note_on_c, 0, 72, 0
2, 35988, Note_on_c, 0, 75, 80
2, 36000, Note_on_c, 0, 75, 0
2, 36000, Note_on_c, 0, 79, 80
2, 36012, Note_on_c, 0, 79, 0
2, 36012, Note_on_c, 0, 71, 80
2, 36024, Note_on_c, 0, 71, 0
2, 36024, Note_on_c, 0, 72, 80
2, 36036, Note_on_c, 0, 72, 0
2, 36036, Note_on_c, 0, 75, 80
2, 36048, Note_on_c, 0, 75, 0
2, 36048, Note_on_c, 0, 79, 80
2, 36071, Note_on_c, 0, 79, 0
2, 36108, Note_on_c, 0, 67, 80
2, 36120, Note_on_c, 0, 67, 0
2, 36120, Note_on_c, 0, 70, 80
2, 36132, Note_on_c, 0, 70, 0
2, 36132, Note_on_c, 0, 74, 80
2, 36144, Note_on_c, 0, 74, 0
2, 36144, Note_on_c, 0, 79, 80
2, 36164, Note_on_c, 0, 79, 0
2, 36204, Note_on_c, 0, 67, 80
2, 36216, Note_on_c, 0, 67, 0
2, 36216, Note_on_c, 0, 70, 80
2, 36228, Note_on_c, 0, 70, 0
2, 36228, Note_on_c, 0, 76, 80
2, 36240, Note_on_c, 0, 76, 0
2, 36240, Note_on_c, 0, 79, 80
2, 36260, Note_on_c, 0, 79, 0
2, 36336, Note_on_c, 0, 82, 80
2, 36336, Note_on_c, 0, 79, 80
2, 36381, Note_on_c, 0, 82, 0
2, 36381, Note_on_c, 0, 79, 0
2, 36432, Note_on_c, 0, 66, 80
2, 36477, Note_on_c, 0, 66, 0
2, 36480, Note_on_c, 0, 66, 80
2, 36599, Note_on_c, 0, 66, 0
2, 36600, Note_on_c, 0, 67, 80
2, 36606, Note_on_c, 0, 67, 0
2, 36606, Note_on_c, 0, 66, 80
2, 36612, Note_on_c, 0, 66, 0
2, 36612, Note_on_c, 0, 64, 80
2, 36618, Note_on_c, 0, 64, 0
2, 36618, Note_on_c, 0, 66, 80
2, 36624, Note_on_c, 0, 66, 0
2, 36624, Note_on_c, 0, 69, 80
2, 36658, Note_on_c, 0, 69, 0
2, 36660, Note_on_c, 0, 67, 80
2, 36672, Note_on_c, 0, 67, 0
2, 36672, Note_on_c, 0, 67, 70
2, 36717, Note_on_c, 0, 67, 0
2, 36840, Note_on_c, 0, 70, 75
2, 36850, Note_on_c, 0, 70, 0
2, 36864, Note_on_c, 0, 72, 75
2, 36870, Note_on_c, 0, 72, 0
2, 36870, Note_on_c, 0, 70, 75
2, 36876, Note_on_c, 0, 70, 0
2, 36876, Note_on_c, 0, 69, 75
2, 36882, Note_on_c, 0, 69, 0
2, 36882, Note_on_c, 0, 70, 75
2, 36898, Note_on_c, 0, 70, 0
2, 36900, Note_on_c, 0, 74, 75
2, 36912, Note_on_c, 0, 74, 0
2, 36912, Note_on_c, 0, 75, 75
2, 36918, Note_on_c, 0, 75, 0
2, 36918, Note_on_c, 0, 74, 75
2, 36924, Note_on_c, 0, 74, 0
2, 36924, Note_on_c, 0, 72, 75
2, 36930, Note_on_c, 0, 72, 0
2, 36930, Note_on_c, 0, 74, 75
2, 36946, Note_on_c, 0, 74, 0
2, 36948, Note_on_c, 0, 77, 75
2, 36960, Note_on_c, 0, 77, 0
2, 36960, Note_on_c, 0, 79, 75
2, 36966, Note_on_c, 0, 79, 0
2, 36966, Note_on_c, 0, 77, 75
2, 36972, Note_on_c, 0, 77, 0
2, 36972, Note_on_c, 0, 75, 75
2, 36978, Note_on_c, 0, 75, 0
2, 36978, Note_on_c, 0, 77, 75
2, 36994, Note_on_c, 0, 77, 0
2, 36996, Note_on_c, 0, 82, 75
2, 37008, Note_on_c, 0, 82, 0
2, 37008, Note_on_c, 0, 81, 75
2, 37042, Note_on_c, 0, 81, 0
2, 37044, Note_on_c, 0, 79, 75
2, 37056, Note_on_c, 0, 79, 0
2, 37056, Note_on_c, 0, 79, 75
2, 37090, Note_on_c, 0, 79, 0
2, 37092, Note_on_c, 0, 77, 75
2, 37104, Note_on_c, 0, 77, 0
2, 37104, Note_on_c, 0, 77, 75
2, 37186, Note_on_c, 0, 77, 0
2, 37188, Note_on_c, 0, 79, 75
2, 37200, Note_on_c, 0, 79, 0
2, 37200, Note_on_c, 0, 75, 75
2, 37234, Note_on_c, 0, 75, 0
2, 37236, Note_on_c, 0, 77, 75
2, 37248, Note_on_c, 0, 77, 0
2, 37248, Note_on_c, 0, 74, 75
2, 37282, Note_on_c, 0, 74, 0
2, 37284, Note_on_c, 0, 75, 75
2, 37296, Note_on_c, 0, 75, 0
2, 37296, Note_on_c, 0, 72, 75
2, 37330, Note_on_c, 0, 72, 0
2, 37332, Note_on_c, 0, 74, 75
2, 37344, Note_on_c, 0, 74, 0
2, 37344, Note_on_c, 0, 70, 75
2, 37378, Note_on_c, 0, 70, 0
2, 37380, Note_on_c, 0, 72, 75
2, 37392, Note_on_c, 0, 72, 0
2, 37392, Note_on_c, 0, 69, 75
2, 37426, Note_on_c, 0, 69, 0
2, 37428, Note_on_c, 0, 72, 75
2, 37440, Note_on_c, 0, 72, 0
2, 37440, Note_on_c, 0, 72, 75
2, 37452, Note_on_c, 0, 72, 0
2, 37452, Note_on_c, 0, 70, 75
2, 37464, Note_on_c, 0, 70, 0
2, 37464, Note_on_c, 0, 69, 75
2, 37476, Note_on_c, 0, 69, 0
2, 37476, Note_on_c, 0, 70, 75
2, 37488, Note_on_c, 0, 70, 0
2, 37488, Note_on_c, 0, 65, 75
2, 37508, Note_on_c, 0, 65, 0
2, 37620, Note_on_c, 0, 70, 75
2, 37632, Note_on_c, 0, 70, 0
2, 37632, Note_on_c, 0, 72, 75
2, 37638, Note_on_c, 0, 72, 0
2, 37638, Note_on_c, 0, 70, 75
2, 37644, Note_on_c, 0, 70, 0
2, 37644, Note_on_c, 0, 69, 75
2, 37650, Note_on_c, 0, 69, 0
2, 37650, Note_on_c, 0, 70, 75
2, 37666, Note_on_c, 0, 70, 0
2, 37668, Note_on_c, 0, 74, 75
2, 37680, Note_on_c, 0, 74, 0
2, 37680, Note_on_c, 0, 75, 75
2, 37686, Note_on_c, 0, 75, 0
2, 37686, Note_on_c, 0, 74, 75
2, 37692, Note_on_c, 0, 74, 0
2, 37692, Note_on_c, 0, 72, 75
2, 37698, Note_on_c, 0, 72, 0
2, 37698, Note_on_c, 0, 74, 75
2, 37714, Note_on_c, 0, 74, 0
2, 37716, Note_on_c, 0, 77, 75
2, 37728, Note_on_c, 0, 77, 0
2, 37728, Note_on_c, 0, 79, 75
2, 37734, Note_on_c, 0, 79, 0
2, 37734, Note_on_c, 0, 77, 75
2, 37740, Note_on_c, 0, 77, 0
2, 37740, Note_on_c, 0, 75, 75
2, 37746, Note_on_c, 0, 75, 0
2, 37746, Note_on_c, 0, 77, 75
2, 37762, Note_on_c, 0, 77, 0
2, 37764, Note_on_c, 0, 82, 75
2, 37776, Note_on_c, 0, 82, 0
2, 37776, Note_on_c, 0, 81, 75
2, 37810, Note_on_c, 0, 81, 0
2, 37812, Note_on_c, 0, 79, 75
2, 37824, Note_on_c, 0, 79, 0
2, 37824, Note_on_c, 0, 79, 75
2, 37858, Note_on_c, 0, 79, 0
2, 37860, Note_on_c, 0, 77, 75
2, 37872, Note_on_c, 0, 77, 0
2, 37872, Note_on_c, 0, 77, 75
2, 37917, Note_on_c, 0, 77, 0
2, 37936, Note_on_c, 0, 84, 75
2, 37951, Note_on_c, 0, 84, 0
2, 37952, Note_on_c, 0, 82, 75
2, 37967, Note_on_c, 0, 82, 0
2, 37968, Note_on_c, 0, 80, 75
2, 37983, Note_on_c, 0, 80, 0
2, 37984, Note_on_c, 0, 79, 75
2, 37999, Note_on_c, 0, 79, 0
2, 38000, Note_on_c, 0, 77, 75
2, 38015, Note_on_c, 0, 77, 0
2, 38016, Note_on_c, 0, 75, 75
2, 38031, Note_on_c, 0, 75, 0
2, 38032, Note_on_c, 0, 74, 75
2, 38047, Note_on_c, 0, 74, 0
2, 38048, Note_on_c, 0, 73, 75
2, 38063, Note_on_c, 0, 73, 0
2, 38064, Note_on_c, 0, 74, 75
2, 38109, Note_on_c, 0, 74, 0
2, 38128, Note_on_c, 0, 82, 75
2, 38143, Note_on_c, 0, 82, 0
2, 38144, Note_on_c, 0, 80, 75
2, 38159, Note_on_c, 0, 80, 0
2, 38160, Note_on_c, 0, 79, 75
2, 38175, Note_on_c, 0, 79, 0
2, 38176, Note_on_c, 0, 77, 75
2, 38191, Note_on_c, 0, 77, 0
2, 38192, Note_on_c, 0, 75, 75
2, 38207, Note_on_c, 0, 75, 0
2, 38208, Note_on_c, 0, 74, 75
2, 38223, Note_on_c, 0, 74, 0
2, 38224, Note_on_c, 0, 72, 75
2, 38239, Note_on_c, 0, 72, 0
2, 38240, Note_on_c, 0, 71, 75
2, 38255, Note_on_c, 0, 71, 0
2, 38256, Note_on_c, 0, 72, 75
2, 38271, Note_on_c, 0, 72, 0
2, 38272, Note_on_c, 0, 74, 75
2, 38287, Note_on_c, 0, 74, 0
2, 38288, Note_on_c, 0, 75, 75
2, 38303, Note_on_c, 0, 75, 0
2, 38304, Note_on_c, 0, 77, 75
2, 38319, Note_on_c, 0, 77, 0
2, 38320, Note_on_c, 0, 80, 75
2, 38335, Note_on_c, 0, 80, 0
2, 38336, Note_on_c, 0, 79, 75
2, 38351, Note_on_c, 0, 79, 0
2, 38352, Note_on_c, 0, 77, 75
2, 38367, Note_on_c, 0, 77, 0
2, 38368, Note_on_c, 0, 75, 75
2, 38383, Note_on_c, 0, 75, 0
2, 38384, Note_on_c, 0, 74, 75
2, 38399, Note_on_c, 0, 74, 0
2, 38400, Note_on_c, 0, 72, 75
2, 38415, Note_on_c, 0, 72, 0
2, 38416, Note_on_c, 0, 71, 75
2, 38431, Note_on_c, 0, 71, 0
2, 38432, Note_on_c, 0, 74, 75
2, 38447, Note_on_c, 0, 74, 0
2, 38448, Note_on_c, 0, 79, 75
2, 38493, Note_on_c, 0, 79, 0
2, 38592, Note_on_c, 0, 69, 75
2, 38598, Note_on_c, 0, 69, 0
2, 38598, Note_on_c, 0, 67, 75
2, 38604, Note_on_c, 0, 67, 0
2, 38604, Note_on_c, 0, 65, 75
2, 38610, Note_on_c, 0, 65, 0
2, 38610, Note_on_c, 0, 67, 75
2, 38703, Note_on_c, 0, 67, 0
2, 38704, Note_on_c, 0, 68, 75
2, 38719, Note_on_c, 0, 68, 0
2, 38720, Note_on_c, 0, 67, 75
2, 38735, Note_on_c, 0, 67, 0
2, 38736, Note_on_c, 0, 68, 75
2, 38751, Note_on_c, 0, 68, 0
2, 38752, Note_on_c, 0, 67, 75
2, 38767, Note_on_c, 0, 67, 0
2, 38768, Note_on_c, 0, 65, 75
2, 38783, Note_on_c, 0, 65, 0
2, 38784, Note_on_c, 0, 63, 75
2, 38799, Note_on_c, 0, 63, 0
2, 38800, Note_on_c, 0, 67, 75
2, 38815, Note_on_c, 0, 67, 0
2, 38816, Note_on_c, 0, 71, 75
2, 38832, Note_on_c, 0, 71, 0
2, 38832, Note_on_c, 0, 72, 75
2, 38847, Note_on_c, 0, 72, 0
2, 38848, Note_on_c, 0, 67, 75
2, 38863, Note_on_c, 0, 67, 0
2, 38864, Note_on_c, 0, 74, 75
2, 38880, Note_on_c, 0, 74, 0
2, 38880, Note_on_c, 0, 75, 75
2, 38895, Note_on_c, 0, 75, 0
2, 38896, Note_on_c, 0, 72, 75
2, 38911, Note_on_c, 0, 72, 0
2, 38912, Note_on_c, 0, 78, 75
2, 38928, Note_on_c, 0, 78, 0
2, 38928, Note_on_c, 0, 79, 75
2, 38973, Note_on_c, 0, 79, 0
2, 38976, Note_on_c, 0, 67, 75
2, 38982, Note_on_c, 0, 67, 0
2, 38982, Note_on_c, 0, 65, 75
2, 38988, Note_on_c, 0, 65, 0
2, 38988, Note_on_c, 0, 63, 75
2, 38994, Note_on_c, 0, 63, 0
2, 38994, Note_on_c, 0, 65, 75
2, 39087, Note_on_c, 0, 65, 0
2, 39088, Note_on_c, 0, 67, 75
2, 39103, Note_on_c, 0, 67, 0
2, 39104, Note_on_c, 0, 65, 75
2, 39119, Note_on_c, 0, 65, 0
2, 39120, Note_on_c, 0, 67, 75
2, 39135, Note_on_c, 0, 67, 0
2, 39136, Note_on_c, 0, 65, 75
2, 39151, Note_on_c, 0, 65, 0
2, 39152, Note_on_c, 0, 63, 75
2, 39167, Note_on_c, 0, 63, 0
2, 39168, Note_on_c, 0, 62, 75
2, 39183, Note_on_c, 0, 62, 0
2, 39184, Note_on_c, 0, 65, 75
2, 39199, Note_on_c, 0, 65, 0
2, 39200, Note_on_c, 0, 69, 75
2, 39216, Note_on_c, 0, 69, 0
2, 39216, Note_on_c, 0, 70, 75
2, 39231, Note_on_c, 0, 70, 0
2, 39232, Note_on_c, 0, 65, 75
2, 39247, Note_on_c, 0, 65, 0
2, 39248, Note_on_c, 0, 73, 75
2, 39264, Note_on_c, 0, 73, 0
2, 39264, Note_on_c, 0, 74, 75
2, 39279, Note_on_c, 0, 74, 0
2, 39280, Note_on_c, 0, 70, 75
2, 39295, Note_on_c, 0, 70, 0
2, 39296, Note_on_c, 0, 76, 75
2, 39312, Note_on_c, 0, 76, 0
2, 39312, Note_on_c, 0, 77, 75
2, 39405, Note_on_c, 0, 77, 0
2, 39528, Note_on_c, 0, 77, 64
2, 39538, Note_on_c, 0, 77, 0
2, 39552, Note_on_c, 0, 77, 64
2, 39575, Note_on_c, 0, 77, 0
2, 39576, Note_on_c, 0, 75, 64
2, 39621, Note_on_c, 0, 75, 0
2, 39624, Note_on_c, 0, 66, 64
2, 39669, Note_on_c, 0, 66, 0
2, 39672, Note_on_c, 0, 65, 64
2, 39717, Note_on_c, 0, 65, 0
2, 39720, Note_on_c, 0, 77, 64
2, 39730, Note_on_c, 0, 77, 0
2, 39744, Note_on_c, 0, 77, 64
2, 39767, Note_on_c, 0, 77, 0
2, 39768, Note_on_c, 0, 75, 64
2, 39813, Note_on_c, 0, 75, 0
2, 39816, Note_on_c, 0, 66, 64
2, 39861, Note_on_c, 0, 66, 0
2, 39864, Note_on_c, 0, 65, 64
2, 39909, Note_on_c, 0, 65, 0
2, 39912, Note_on_c, 0, 77, 64
2, 39922, Note_on_c, 0, 77, 0
2, 39936, Note_on_c, 0, 77, 80
2, 39959, Note_on_c, 0, 77, 0
2, 39960, Note_on_c, 0, 75, 80
2, 40005, Note_on_c, 0, 75, 0
2, 40008, Note_on_c, 0, 66, 80
2, 40053, Note_on_c, 0, 66, 0
2, 40056, Note_on_c, 0, 65, 80
2, 40101, Note_on_c, 0, 65, 0
2, 40104, Note_on_c, 0, 77, 80
2, 40114, Note_on_c, 0, 77, 0
2, 40128, Note_on_c, 0, 76, 80
2, 40140, Note_on_c, 0, 76, 0
2, 40140, Note_on_c, 0, 77, 64
2, 40152, Note_on_c, 0, 77, 0
2, 40152, Note_on_c, 0, 79, 64
2, 40164, Note_on_c, 0, 79, 0
2, 40164, Note_on_c, 0, 77, 65
2, 40176, Note_on_c, 0, 77, 0
2, 40176, Note_on_c, 0, 77, 66
2, 40247, Note_on_c, 0, 77, 0
2, 40248, Note_on_c, 0, 77, 70
2, 40260, Note_on_c, 0, 77, 0
2, 40260, Note_on_c, 0, 79, 70
2, 40272, Note_on_c, 0, 79, 0
2, 40272, Note_on_c, 0, 82, 70
2, 40284, Note_on_c, 0, 82, 0
2, 40284, Note_on_c, 0, 81, 70
2, 40296, Note_on_c, 0, 81, 0
2, 40296, Note_on_c, 0, 79, 70
2, 40308, Note_on_c, 0, 79, 0
2, 40308, Note_on_c, 0, 77, 70
2, 40320, Note_on_c, 0, 77, 0
2, 40320, Note_on_c, 0, 82, 70
2, 40343, Note_on_c, 0, 82, 0
2, 40344, Note_on_c, 0, 77, 70
2, 40356, Note_on_c, 0, 77, 0
2, 40356, Note_on_c, 0, 79, 70
2, 40368, Note_on_c, 0, 79, 0
2, 40368, Note_on_c, 0, 82, 70
2, 40380, Note_on_c, 0, 82, 0
2, 40380, Note_on_c, 0, 81, 70
2, 40392, Note_on_c, 0, 81, 0
2, 40392, Note_on_c, 0, 79, 70
2, 40404, Note_on_c, 0, 79, 0
2, 40404, Note_on_c, 0, 77, 70
2, 40416, Note_on_c, 0, 77, 0
2, 40416, Note_on_c, 0, 82, 70
2, 40439, Note_on_c, 0, 82, 0
2, 40440, Note_on_c, 0, 74, 70
2, 40452, Note_on_c, 0, 74, 0
2, 40452, Note_on_c, 0, 75, 70
2, 40464, Note_on_c, 0, 75, 0
2, 40464, Note_on_c, 0, 79, 70
2, 40476, Note_on_c, 0, 79, 0
2, 40476, Note_on_c, 0, 77, 70
2, 40488, Note_on_c, 0, 77, 0
2, 40488, Note_on_c, 0, 75, 70
2, 40500, Note_on_c, 0, 75, 0
2, 40500, Note_on_c, 0, 74, 70
2, 40512, Note_on_c, 0, 74, 0
2, 40512, Note_on_c, 0, 72, 70
2, 40535, Note_on_c, 0, 72, 0
2, 40536, Note_on_c, 0, 72, 70
2, 40548, Note_on_c, 0, 72, 0
2, 40548, Note_on_c, 0, 74, 70
2, 40560, Note_on_c, 0, 74, 0
2, 40560, Note_on_c, 0, 77, 70
2, 40572, Note_on_c, 0, 77, 0
2, 40572, Note_on_c, 0, 75, 70
2, 40584, Note_on_c, 0, 75, 0
2, 40584, Note_on_c, 0, 74, 70
2, 40596, Note_on_c, 0, 74, 0
2, 40596, Note_on_c, 0, 72, 70
2, 40608, Note_on_c, 0, 72, 0
2, 40608, Note_on_c, 0, 70, 80
2, 40631, Note_on_c, 0, 70, 0
2, 40632, Note_on_c, 0, 69, 78
2, 40644, Note_on_c, 0, 69, 0
2, 40644, Note_on_c, 0, 70, 78
2, 40656, Note_on_c, 0, 70, 0
2, 40656, Note_on_c, 0, 74, 77
2, 40668, Note_on_c, 0, 74, 0
2, 40668, Note_on_c, 0, 72, 76
2, 40680, Note_on_c, 0, 72, 0
2, 40680, Note_on_c, 0, 70, 76
2, 40692, Note_on_c, 0, 70, 0
2, 40692, Note_on_c, 0, 69, 75
2, 40704, Note_on_c, 0, 69, 0
2, 40704, Note_on_c, 0, 70, 75
2, 40714, Note_on_c, 0, 70, 0
2, 40728, Note_on_c, 0, 74, 75
2, 40738, Note_on_c, 0, 74, 0
2, 40752, Note_on_c, 0, 75, 75
2, 40764, Note_on_c, 0, 75, 0
2, 40764, Note_on_c, 0, 74, 75
2, 40776, Note_on_c, 0, 74, 0
2, 40776, Note_on_c, 0, 72, 75
2, 40788, Note_on_c, 0, 72, 0
2, 40788, Note_on_c, 0, 70, 75
2, 40800, Note_on_c, 0, 70, 0
2, 40800, Note_on_c, 0, 69, 75
2, 40810, Note_on_c, 0, 69, 0
2, 40824, Note_on_c, 0, 69, 75
2, 40834, Note_on_c, 0, 69, 0
2, 40848, Note_on_c, 0, 70, 75
2, 40860, Note_on_c, 0, 70, 0
2, 40860, Note_on_c, 0, 69, 75
2, 40872, Note_on_c, 0, 69, 0
2, 40872, Note_on_c, 0, 67, 75
2, 40884, Note_on_c, 0, 67, 0
2, 40884, Note_on_c, 0, 65, 75
2, 40896, Note_on_c, 0, 65, 0
2, 40896, Note_on_c, 0, 70, 75
2, 40906, Note_on_c, 0, 70, 0
2, 40920, Note_on_c, 0, 70, 75
2, 40930, Note_on_c, 0, 70, 0
2, 40968, Note_on_c, 0, 74, 75
2, 40978, Note_on_c, 0, 74, 0
2, 40992, Note_on_c, 0, 71, 75
2, 41016, Note_on_c, 0, 71, 0
2, 41016, Note_on_c, 0, 72, 75
2, 41039, Note_on_c, 0, 72, 0
2, 41064, Note_on_c, 0, 75, 75
2, 41074, Note_on_c, 0, 75, 0
2, 41088, Note_on_c, 0, 74, 75
2, 41103, Note_on_c, 0, 74, 0
2, 41104, Note_on_c, 0, 79, 75
2, 41119, Note_on_c, 0, 79, 0
2, 41120, Note_on_c, 0, 77, 75
2, 41135, Note_on_c, 0, 77, 0
2, 41136, Note_on_c, 0, 75, 75
2, 41151, Note_on_c, 0, 75, 0
2, 41152, Note_on_c, 0, 74, 75
2, 41167, Note_on_c, 0, 74, 0
2, 41168, Note_on_c, 0, 72, 75
2, 41183, Note_on_c, 0, 72, 0
2, 41184, Note_on_c, 0, 70, 75
2, 41194, Note_on_c, 0, 70, 0
2, 41208, Note_on_c, 0, 69, 75
2, 41253, Note_on_c, 0, 69, 0
2, 41256, Note_on_c, 0, 72, 75
2, 41303, Note_on_c, 0, 72, 0
2, 41304, Note_on_c, 0, 70, 75
2, 41349, Note_on_c, 0, 70, 0
2, 41352, Note_on_c, 0, 74, 75
2, 41397, Note_on_c, 0, 74, 0
2, 41400, Note_on_c, 0, 72, 75
2, 41445, Note_on_c, 0, 72, 0
2, 41448, Note_on_c, 0, 75, 75
2, 41458, Note_on_c, 0, 75, 0
2, 41472, Note_on_c, 0, 74, 75
2, 41482, Note_on_c, 0, 74, 0
2, 41496, Note_on_c, 0, 74, 75
2, 41506, Note_on_c, 0, 74, 0
2, 41520, Note_on_c, 0, 75, 75
2, 41532, Note_on_c, 0, 75, 0
2, 41532, Note_on_c, 0, 74, 75
2, 41544, Note_on_c, 0, 74, 0
2, 41544, Note_on_c, 0, 72, 75
2, 41556, Note_on_c, 0, 72, 0
2, 41556, Note_on_c, 0, 70, 75
2, 41568, Note_on_c, 0, 70, 0
2, 41568, Note_on_c, 0, 69, 75
2, 41578, Note_on_c, 0, 69, 0
2, 41592, Note_on_c, 0, 69, 75
2, 41602, Note_on_c, 0, 69, 0
2, 41616, Note_on_c, 0, 70, 75
2, 41628, Note_on_c, 0, 70, 0
2, 41628, Note_on_c, 0, 69, 75
2, 41640, Note_on_c, 0, 69, 0
2, 41640, Note_on_c, 0, 67, 75
2, 41652, Note_on_c, 0, 67, 0
2, 41652, Note_on_c, 0, 65, 75
2, 41664, Note_on_c, 0, 65, 0
2, 41664, Note_on_c, 0, 70, 75
2, 41674, Note_on_c, 0, 70, 0
2, 41688, Note_on_c, 0, 70, 75
2, 41733, Note_on_c, 0, 70, 0
2, 41736, Note_on_c, 0, 71, 75
2, 41781, Note_on_c, 0, 71, 0
2, 41784, Note_on_c, 0, 72, 75
2, 41829, Note_on_c, 0, 72, 0
2, 41832, Note_on_c, 0, 73, 75
2, 41879, Note_on_c, 0, 73, 0
2, 41880, Note_on_c, 0, 74, 75
2, 41925, Note_on_c, 0, 74, 0
2, 41928, Note_on_c, 0, 75, 75
2, 41973, Note_on_c, 0, 75, 0
2, 41976, Note_on_c, 0, 76, 76
2, 42021, Note_on_c, 0, 76, 0
2, 42024, Note_on_c, 0, 77, 77
2, 42071, Note_on_c, 0, 77, 0
2, 42072, Note_on_c, 0, 78, 77
2, 42117, Note_on_c, 0, 78, 0
2, 42120, Note_on_c, 0, 79, 78
2, 42165, Note_on_c, 0, 79, 0
2, 42168, Note_on_c, 0, 80, 78
2, 42213, Note_on_c, 0, 80, 0
2, 42216, Note_on_c, 0, 78, 79
2, 42263, Note_on_c, 0, 78, 0
2, 42264, Note_on_c, 0, 79, 80
2, 42287, Note_on_c, 0, 79, 0
2, 42288, Note_on_c, 0, 74, 79
2, 42311, Note_on_c, 0, 74, 0
2, 42312, Note_on_c, 0, 75, 78
2, 42335, Note_on_c, 0, 75, 0
2, 42336, Note_on_c, 0, 71, 77
2, 42359, Note_on_c, 0, 71, 0
2, 42360, Note_on_c, 0, 72, 77
2, 42383, Note_on_c, 0, 72, 0
2, 42384, Note_on_c, 0, 75, 76
2, 42407, Note_on_c, 0, 75, 0
2, 42408, Note_on_c, 0, 79, 75
2, 42431, Note_on_c, 0, 79, 0
2, 42432, Note_on_c, 0, 70, 75
2, 42477, Note_on_c, 0, 70, 0
2, 42480, Note_on_c, 0, 69, 75
2, 42525, Note_on_c, 0, 69, 0
2, 42528, Note_on_c, 0, 70, 75
2, 42573, Note_on_c, 0, 70, 0
2, 42648, Note_on_c, 0, 65, 75
2, 42660, Note_on_c, 0, 65, 0
2, 42660, Note_on_c, 0, 72, 75
2, 42672, Note_on_c, 0, 72, 0
2, 42672, Note_on_c, 0, 77, 75
2, 42695, Note_on_c, 0, 77, 0
2, 42696, Note_on_c, 0, 72, 75
2, 42719, Note_on_c, 0, 72, 0
2, 42720, Note_on_c, 0, 75, 75
2, 42743, Note_on_c, 0, 75, 0
2, 42744, Note_on_c, 0, 74, 75
2, 42767, Note_on_c, 0, 74, 0
2, 42768, Note_on_c, 0, 72, 75
2, 42791, Note_on_c, 0, 72, 0
2, 42792, Note_on_c, 0, 70, 75
2, 42815, Note_on_c, 0, 70, 0
2, 42816, Note_on_c, 0, 70, 75
2, 42864, Note_on_c, 0, 70, 0
2, 42864, Note_on_c, 0, 69, 75
2, 42905, Note_on_c, 0, 69, 0
2, 42912, Note_on_c, 0, 70, 75
2, 42957, Note_on_c, 0, 70, 0
2, 43032, Note_on_c, 0, 53, 75
2, 43044, Note_on_c, 0, 53, 0
2, 43044, Note_on_c, 0, 60, 75
2, 43056, Note_on_c, 0, 60, 0
2, 43056, Note_on_c, 0, 65, 75
2, 43079, Note_on_c, 0, 65, 0
2, 43080, Note_on_c, 0, 60, 75
2, 43103, Note_on_c, 0, 60, 0
2, 43104, Note_on_c, 0, 63, 75
2, 43127, Note_on_c, 0, 63, 0
2, 43128, Note_on_c, 0, 62, 75
2, 43151, Note_on_c, 0, 62, 0
2, 43152, Note_on_c, 0, 60, 75
2, 43158, Note_on_c, 0, 60, 0
2, 43158, Note_on_c, 0, 62, 75
2, 43164, Note_on_c, 0, 62, 0
2, 43164, Note_on_c, 0, 60, 75
2, 43175, Note_on_c, 0, 60, 0
2, 43176, Note_on_c, 0, 58, 75
2, 43199, Note_on_c, 0, 58, 0
2, 43212, Note_on_c, 0, 67, 75
2, 43224, Note_on_c, 0, 67, 0
2, 43224, Note_on_c, 0, 72, 75
2, 43236, Note_on_c, 0, 72, 0
2, 43236, Note_on_c, 0, 74, 75
2, 43248, Note_on_c, 0, 74, 0
2, 43248, Note_on_c, 0, 75, 75
2, 43260, Note_on_c, 0, 75, 0
2, 43260, Note_on_c, 0, 72, 75
2, 43272, Note_on_c, 0, 72, 0
2, 43272, Note_on_c, 0, 75, 75
2, 43284, Note_on_c, 0, 75, 0
2, 43284, Note_on_c, 0, 77, 75
2, 43296, Note_on_c, 0, 77, 0
2, 43296, Note_on_c, 0, 79, 75
2, 43308, Note_on_c, 0, 79, 0
2, 43308, Note_on_c, 0, 77, 75
2, 43320, Note_on_c, 0, 77, 0
2, 43320, Note_on_c, 0, 75, 75
2, 43332, Note_on_c, 0, 75, 0
2, 43332, Note_on_c, 0, 74, 75
2, 43344, Note_on_c, 0, 74, 0
2, 43344, Note_on_c, 0, 72, 75
2, 43356, Note_on_c, 0, 72, 0
2, 43356, Note_on_c, 0, 70, 75
2, 43368, Note_on_c, 0, 70, 0
2, 43368, Note_on_c, 0, 69, 75
2, 43380, Note_on_c, 0, 69, 0
2, 43380, Note_on_c, 0, 67, 75
2, 43392, Note_on_c, 0, 67, 0
2, 43392, Note_on_c, 0, 65, 75
2, 43415, Note_on_c, 0, 65, 0
2, 43416, Note_on_c, 0, 81, 75
2, 43439, Note_on_c, 0, 81, 0
2, 43464, Note_on_c, 0, 84, 75
2, 43487, Note_on_c, 0, 84, 0
2, 43512, Note_on_c, 0, 82, 75
2, 43535, Note_on_c, 0, 82, 0
2, 43560, Note_on_c, 0, 78, 75
2, 43583, Note_on_c, 0, 78, 0
2, 43608, Note_on_c, 0, 78, 75
2, 43620, Note_on_c, 0, 78, 0
2, 43620, Note_on_c, 0, 79, 75
2, 43632, Note_on_c, 0, 79, 0
2, 43632, Note_on_c, 0, 77, 75
2, 43644, Note_on_c, 0, 77, 0
2, 43644, Note_on_c, 0, 75, 75
2, 43656, Note_on_c, 0, 75, 0
2, 43656, Note_on_c, 0, 74, 75
2, 43668, Note_on_c, 0, 74, 0
2, 43668, Note_on_c, 0, 72, 75
2, 43680, Note_on_c, 0, 72, 0
2, 43680, Note_on_c, 0, 70, 75
2, 43725, Note_on_c, 0, 70, 0
2, 43728, Note_on_c, 0, 69, 75
2, 43735, Note_on_c, 0, 69, 0
2, 43735, Note_on_c, 0, 70, 75
2, 43742, Note_on_c, 0, 70, 0
2, 43742, Note_on_c, 0, 69, 75
2, 43749, Note_on_c, 0, 69, 0
2, 43749, Note_on_c, 0, 70, 75
2, 43756, Note_on_c, 0, 70, 0
2, 43756, Note_on_c, 0, 69, 75
2, 43763, Note_on_c, 0, 69, 0
2, 43763, Note_on_c, 0, 67, 75
2, 43770, Note_on_c, 0, 67, 0
2, 43770, Note_on_c, 0, 69, 75
2, 43776, Note_on_c, 0, 69, 0
2, 43776, Note_on_c, 0, 70, 75
2, 43810, Note_on_c, 0, 70, 0
2, 43812, Note_on_c, 0, 82, 75
2, 43824, Note_on_c, 0, 82, 0
2, 43824, Note_on_c, 0, 84, 75
2, 43836, Note_on_c, 0, 84, 0
2, 43836, Note_on_c, 0, 82, 75
2, 43848, Note_on_c, 0, 82, 0
2, 43848, Note_on_c, 0, 81, 75
2, 43860, Note_on_c, 0, 81, 0
2, 43860, Note_on_c, 0, 79, 75
2, 43872, Note_on_c, 0, 79, 0
2, 43872, Note_on_c, 0, 81, 75
2, 43884, Note_on_c, 0, 81, 0
2, 43884, Note_on_c, 0, 79, 75
2, 43896, Note_on_c, 0, 79, 0
2, 43896, Note_on_c, 0, 77, 75
2, 43908, Note_on_c, 0, 77, 0
2, 43908, Note_on_c, 0, 76, 75
2, 43920, Note_on_c, 0, 76, 0
2, 43920, Note_on_c, 0, 81, 75
2, 43932, Note_on_c, 0, 81, 0
2, 43932, Note_on_c, 0, 79, 75
2, 43944, Note_on_c, 0, 79, 0
2, 43944, Note_on_c, 0, 77, 75
2, 43956, Note_on_c, 0, 77, 0
2, 43956, Note_on_c, 0, 76, 75
2, 43968, Note_on_c, 0, 76, 0
2, 43968, Note_on_c, 0, 77, 75
2, 44002, Note_on_c, 0, 77, 0
2, 44004, Note_on_c, 0, 84, 75
2, 44016, Note_on_c, 0, 84, 0
2, 44016, Note_on_c, 0, 86, 75
2, 44028, Note_on_c, 0, 86, 0
2, 44028, Note_on_c, 0, 84, 75
2, 44040, Note_on_c, 0, 84, 0
2, 44040, Note_on_c, 0, 82, 75
2, 44052, Note_on_c, 0, 82, 0
2, 44052, Note_on_c, 0, 81, 75
2, 44064, Note_on_c, 0, 81, 0
2, 44064, Note_on_c, 0, 82, 75
2, 44076, Note_on_c, 0, 82, 0
2, 44076, Note_on_c, 0, 81, 75
2, 44088, Note_on_c, 0, 81, 0
2, 44088, Note_on_c, 0, 79, 75
2, 44100, Note_on_c, 0, 79, 0
2, 44100, Note_on_c, 0, 77, 75
2, 44112, Note_on_c, 0, 77, 0
2, 44112, Note_on_c, 0, 77, 75
2, 44124, Note_on_c, 0, 77, 0
2, 44124, Note_on_c, 0, 75, 75
2, 44136, Note_on_c, 0, 75, 0
2, 44136, Note_on_c, 0, 74, 75
2, 44148, Note_on_c, 0, 74, 0
2, 44148, Note_on_c, 0, 72, 75
2, 44160, Note_on_c, 0, 72, 0
2, 44160, Note_on_c, 0, 74, 75
2, 44172, Note_on_c, 0, 74, 0
2, 44172, Note_on_c, 0, 77, 75
2, 44184, Note_on_c, 0, 77, 0
2, 44184, Note_on_c, 0, 75, 75
2, 44196, Note_on_c, 0, 75, 0
2, 44196, Note_on_c, 0, 74, 75
2, 44208, Note_on_c, 0, 74, 0
2, 44208, Note_on_c, 0, 79, 75
2, 44220, Note_on_c, 0, 79, 0
2, 44220, Note_on_c, 0, 75, 75
2, 44232, Note_on_c, 0, 75, 0
2, 44232, Note_on_c, 0, 74, 75
2, 44244, Note_on_c, 0, 74, 0
2, 44244, Note_on_c, 0, 72, 75
2, 44256, Note_on_c, 0, 72, 0
2, 44256, Note_on_c, 0, 70, 75
2, 44301, Note_on_c, 0, 70, 0
2, 44304, Note_on_c, 0, 69, 75
2, 44311, Note_on_c, 0, 69, 0
2, 44311, Note_on_c, 0, 70, 75
2, 44318, Note_on_c, 0, 70, 0
2, 44318, Note_on_c, 0, 69, 75
2, 44325, Note_on_c, 0, 69, 0
2, 44325, Note_on_c, 0, 70, 75
2, 44332, Note_on_c, 0, 70, 0
2, 44332, Note_on_c, 0, 69, 75
2, 44339, Note_on_c, 0, 69, 0
2, 44339, Note_on_c, 0, 67, 75
2, 44346, Note_on_c, 0, 67, 0
2, 44346, Note_on_c, 0, 69, 75
2, 44352, Note_on_c, 0, 69, 0
2, 44352, Note_on_c, 0, 70, 75
2, 44386, Note_on_c, 0, 70, 0
2, 44388, Note_on_c, 0, 70, 75
2, 44400, Note_on_c, 0, 70, 0
2, 44400, Note_on_c, 0, 72, 75
2, 44412, Note_on_c, 0, 72, 0
2, 44412, Note_on_c, 0, 70, 75
2, 44424, Note_on_c, 0, 70, 0
2, 44424, Note_on_c, 0, 69, 75
2, 44436, Note_on_c, 0, 69, 0
2, 44436, Note_on_c, 0, 67, 75
2, 44448, Note_on_c, 0, 67, 0
2, 44448, Note_on_c, 0, 69, 75
2, 44460, Note_on_c, 0, 69, 0
2, 44460, Note_on_c, 0, 67, 75
2, 44472, Note_on_c, 0, 67, 0
2, 44472, Note_on_c, 0, 65, 75
2, 44484, Note_on_c, 0, 65, 0
2, 44484, Note_on_c, 0, 64, 75
2, 44496, Note_on_c, 0, 64, 0
2, 44496, Note_on_c, 0, 69, 75
2, 44508, Note_on_c, 0, 69, 0
2, 44508, Note_on_c, 0, 67, 75
2, 44520, Note_on_c, 0, 67, 0
2, 44520, Note_on_c, 0, 65, 75
2, 44532, Note_on_c, 0, 65, 0
2, 44532, Note_on_c, 0, 64, 75
2, 44544, Note_on_c, 0, 64, 0
2, 44544, Note_on_c, 0, 65, 75
2, 44578, Note_on_c, 0, 65, 0
2, 44580, Note_on_c, 0, 72, 75
2, 44592, Note_on_c, 0, 72, 0
2, 44592, Note_on_c, 0, 74, 75
2, 44604, Note_on_c, 0, 74, 0
2, 44604, Note_on_c, 0, 72, 75
2, 44616, Note_on_c, 0, 72, 0
2, 44616, Note_on_c, 0, 70, 75
2, 44628, Note_on_c, 0, 70, 0
2, 44628, Note_on_c, 0, 69, 75
2, 44640, Note_on_c, 0, 69, 0
2, 44640, Note_on_c, 0, 75, 75
2, 44652, Note_on_c, 0, 75, 0
2, 44652, Note_on_c, 0, 74, 75
2, 44664, Note_on_c, 0, 74, 0
2, 44664, Note_on_c, 0, 72, 75
2, 44676, Note_on_c, 0, 72, 0
2, 44676, Note_on_c, 0, 70, 75
2, 44688, Note_on_c, 0, 70, 0
2, 44688, Note_on_c, 0, 69, 75
2, 44700, Note_on_c, 0, 69, 0
2, 44700, Note_on_c, 0, 67, 75
2, 44712, Note_on_c, 0, 67, 0
2, 44712, Note_on_c, 0, 65, 75
2, 44724, Note_on_c, 0, 65, 0
2, 44724, Note_on_c, 0, 63, 75
2, 44736, Note_on_c, 0, 63, 0
2, 44736, Note_on_c, 0, 62, 75
2, 44748, Note_on_c, 0, 62, 0
2, 44748, Note_on_c, 0, 65, 75
2, 44760, Note_on_c, 0, 65, 0
2, 44760, Note_on_c, 0, 69, 75
2, 44772, Note_on_c, 0, 69, 0
2, 44772, Note_on_c, 0, 70, 75
2, 44784, Note_on_c, 0, 70, 0
2, 44784, Note_on_c, 0, 69, 75
2, 44796, Note_on_c, 0, 69, 0
2, 44796, Note_on_c, 0, 67, 75
2, 44808, Note_on_c, 0, 67, 0
2, 44808, Note_on_c, 0, 65, 75
2, 44820, Note_on_c, 0, 65, 0
2, 44820, Note_on_c, 0, 63, 75
2, 44832, Note_on_c, 0, 63, 0
2, 44832, Note_on_c, 0, 62, 75
2, 44877, Note_on_c, 0, 62, 0
2, 44880, Note_on_c, 0, 60, 75
2, 44887, Note_on_c, 0, 60, 0
2, 44887, Note_on_c, 0, 62, 75
2, 44894, Note_on_c, 0, 62, 0
2, 44894, Note_on_c, 0, 60, 75
2, 44901, Note_on_c, 0, 60, 0
2, 44901, Note_on_c, 0, 62, 75
2, 44908, Note_on_c, 0, 62, 0
2, 44908, Note_on_c, 0, 60, 75
2, 44915, Note_on_c, 0, 60, 0
2, 44915, Note_on_c, 0, 58, 75
2, 44922, Note_on_c, 0, 58, 0
2, 44922, Note_on_c, 0, 60, 75
2, 44928, Note_on_c, 0, 60, 0
2, 44928, Note_on_c, 0, 58, 75
2, 45017, Note_on_c, 0, 58, 0
2, 45120, End_track
3, 0, Start_track
3, 0, Program_c, 0, 0
3, 0, Control_c, 0, 7, 127
3, 0, Control_c, 0, 10, 64
3, 20016, Note_on_c, 0, 70, 64
3, 20039, Note_on_c, 0, 70, 0
3, 20040, Note_on_c, 0, 67, 64
3, 20063, Note_on_c, 0, 67, 0
3, 20064, Note_on_c, 0, 70, 64
3, 20087, Note_on_c, 0, 70, 0
3, 20088, Note_on_c, 0, 67, 64
3, 20111, Note_on_c, 0, 67, 0
3, 20112, Note_on_c, 0, 70, 64
3, 20135, Note_on_c, 0, 70, 0
3, 20136, Note_on_c, 0, 67, 64
3, 20159, Note_on_c, 0, 67, 0
3, 20160, Note_on_c, 0, 66, 64
3, 20205, Note_on_c, 0, 66, 0
3, 21504, Note_on_c, 0, 60, 64
3, 21696, Note_on_c, 0, 60, 0
3, 21696, Note_on_c, 0, 58, 70
3, 21785, Note_on_c, 0, 58, 0
3, 34992, Note_on_c, 0, 70, 64
3, 35015, Note_on_c, 0, 70, 0
3, 35016, Note_on_c, 0, 67, 64
3, 35039, Note_on_c, 0, 67, 0
3, 35040, Note_on_c, 0, 70, 64
3, 35063, Note_on_c, 0, 70, 0
3, 35064, Note_on_c, 0, 67, 64
3, 35087, Note_on_c, 0, 67, 0
3, 35088, Note_on_c, 0, 70, 64
3, 35111, Note_on_c, 0, 70, 0
3, 35112, Note_on_c, 0, 67, 64
3, 35135, Note_on_c, 0, 67, 0
3, 35136, Note_on_c, 0, 66, 64
3, 35181, Note_on_c, 0, 66, 0
3, 36480, Note_on_c, 0, 60, 64
3, 36672, Note_on_c, 0, 60, 0
3, 36672, Note_on_c, 0, 58, 70
3, 36761, Note_on_c, 0, 58, 0
3, 45120, End_track
4, 0, Start_track
4, 0, Program_c, 1, 0
4, 0, Control_c, 1, 7, 127
4, 0, Control_c, 1, 10, 64
4, 192, Note_on_c, 1, 62, 64
4, 192, Note_on_c, 1, 58, 64
4, 281, Note_on_c, 1, 62, 0
4, 281, Note_on_c, 1, 58, 0
4, 336, Note_on_c, 1, 74, 64
4, 336, Note_on_c, 1, 70, 64
4, 381, Note_on_c, 1, 74, 0
4, 381, Note_on_c, 1, 70, 0
4, 384, Note_on_c, 1, 72, 64
4, 384, Note_on_c, 1, 69, 64
4, 473, Note_on_c, 1, 72, 0
4, 473, Note_on_c, 1, 69, 0
4, 480, Note_on_c, 1, 69, 64
4, 480, Note_on_c, 1, 65, 64
4, 525, Note_on_c, 1, 69, 0
4, 525, Note_on_c, 1, 65, 0
4, 576, Note_on_c, 1, 70, 64
4, 576, Note_on_c, 1, 58, 64
4, 621, Note_on_c, 1, 70, 0
4, 621, Note_on_c, 1, 58, 0
4, 624, Note_on_c, 1, 67, 64
4, 624, Note_on_c, 1, 63, 64
4, 669, Note_on_c, 1, 67, 0
4, 669, Note_on_c, 1, 63, 0
4, 672, Note_on_c, 1, 65, 64
4, 672, Note_on_c, 1, 62, 64
4, 717, Note_on_c, 1, 65, 0
4, 717, Note_on_c, 1, 62, 0
4, 720, Note_on_c, 1, 63, 64
4, 720, Note_on_c, 1, 53, 64
4, 765, Note_on_c, 1, 63, 0
4, 765, Note_on_c, 1, 53, 0
4, 768, Note_on_c, 1, 62, 64
4, 768, Note_on_c, 1, 58, 64
4, 813, Note_on_c, 1, 62, 0
4, 813, Note_on_c, 1, 58, 0
4, 852, Note_on_c, 1, 58, 80
4, 864, Note_on_c, 1, 58, 0
4, 864, Note_on_c, 1, 58, 80
4, 876, Note_on_c, 1, 58, 0
4, 876, Note_on_c, 1, 57, 80
4, 888, Note_on_c, 1, 57, 0
4, 888, Note_on_c, 1, 55, 80
4, 900, Note_on_c, 1, 55, 0
4, 900, Note_on_c, 1, 53, 80
4, 912, Note_on_c, 1, 53, 0
4, 912, Note_on_c, 1, 53, 80
4, 924, Note_on_c, 1, 53, 0
4, 924, Note_on_c, 1, 51, 80
4, 936, Note_on_c, 1, 51, 0
4, 936, Note_on_c, 1, 50, 80
4, 948, Note_on_c, 1, 50, 0
4, 948, Note_on_c, 1, 48, 80
4, 960, Note_on_c, 1, 48, 0
4, 960, Note_on_c, 1, 46, 80
4, 1049, Note_on_c, 1, 46, 0
4, 1104, Note_on_c, 1, 74, 75
4, 1104, Note_on_c, 1, 70, 75
4, 1149, Note_on_c, 1, 74, 0
4, 1149, Note_on_c, 1, 70, 0
4, 1152, Note_on_c, 1, 72, 75
4, 1152, Note_on_c, 1, 69, 75
4, 1241, Note_on_c, 1, 72, 0
4, 1241, Note_on_c, 1, 69, 0
4, 1248, Note_on_c, 1, 69, 75
4, 1248, Note_on_c, 1, 65, 75
4, 1293, Note_on_c, 1, 69, 0
4, 1293, Note_on_c, 1, 65, 0
4, 1344, Note_on_c, 1, 70, 75
4, 1389, Note_on_c, 1, 70, 0
4, 1440, Note_on_c, 1, 63, 75
4, 1485, Note_on_c, 1, 63, 0
4, 1584, Note_on_c, 1, 63, 75
4, 1584, Note_on_c, 1, 53, 75
4, 1629, Note_on_c, 1, 63, 0
4, 1629, Note_on_c, 1, 53, 0
4, 1632, Note_on_c, 1, 62, 75
4, 1632, Note_on_c, 1, 58, 75
4, 1677, Note_on_c, 1, 62, 0
4, 1677, Note_on_c, 1, 58, 0
4, 1680, Note_on_c, 1, 46, 75
4, 1725, Note_on_c, 1, 46, 0
4, 1744, Note_on_c, 1, 70, 75
4, 1759, Note_on_c, 1, 70, 0
4, 1760, Note_on_c, 1, 69, 75
4, 1775, Note_on_c, 1, 69, 0
4, 1776, Note_on_c, 1, 70, 75
4, 1791, Note_on_c, 1, 70, 0
4, 1792, Note_on_c, 1, 69, 75
4, 1807, Note_on_c, 1, 69, 0
4, 1808, Note_on_c, 1, 67, 75
4, 1823, Note_on_c, 1, 67, 0
4, 1824, Note_on_c, 1, 66, 75
4, 1913, Note_on_c, 1, 66, 0
4, 1920, Note_on_c, 1, 67, 75
4, 1965, Note_on_c, 1, 67, 0
4, 2128, Note_on_c, 1, 69, 75
4, 2143, Note_on_c, 1, 69, 0
4, 2144, Note_on_c, 1, 67, 75
4, 2159, Note_on_c, 1, 67, 0
4, 2160, Note_on_c, 1, 69, 75
4, 2175, Note_on_c, 1, 69, 0
4, 2176, Note_on_c, 1, 67, 75
4, 2191, Note_on_c, 1, 67, 0
4, 2192, Note_on_c, 1, 65, 75
4, 2207, Note_on_c, 1, 65, 0
4, 2208, Note_on_c, 1, 64, 75
4, 2297, Note_on_c, 1, 64, 0
4, 2304, Note_on_c, 1, 65, 75
4, 2349, Note_on_c, 1, 65, 0
4, 2832, Note_on_c, 1, 70, 64
4, 2877, Note_on_c, 1, 70, 0
4, 3024, Note_on_c, 1, 70, 64
4, 3069, Note_on_c, 1, 70, 0
4, 3216, Note_on_c, 1, 70, 80
4, 3397, Note_on_c, 1, 70, 0
4, 3408, Note_on_c, 1, 72, 80
4, 3408, Note_on_c, 1, 70, 80
4, 3453, Note_on_c, 1, 72, 0
4, 3453, Note_on_c, 1, 70, 0
4, 3456, Note_on_c, 1, 72, 80
4, 3456, Note_on_c, 1, 69, 80
4, 3501, Note_on_c, 1, 72, 0
4, 3501, Note_on_c, 1, 69, 0
4, 3504, Note_on_c, 1, 72, 80
4, 3504, Note_on_c, 1, 70, 80
4, 3549, Note_on_c, 1, 72, 0
4, 3549, Note_on_c, 1, 70, 0
4, 3552, Note_on_c, 1, 72, 80
4, 3552, Note_on_c, 1, 69, 80
4, 3597, Note_on_c, 1, 72, 0
4, 3597, Note_on_c, 1, 69, 0
4, 3648, Note_on_c, 1, 74, 80
4, 3648, Note_on_c, 1, 70, 80
4, 3693, Note_on_c, 1, 74, 0
4, 3693, Note_on_c, 1, 70, 0
4, 3744, Note_on_c, 1, 69, 64
4, 3744, Note_on_c, 1, 60, 64
4, 3789, Note_on_c, 1, 69, 0
4, 3789, Note_on_c, 1, 60, 0
4, 3792, Note_on_c, 1, 67, 64
4, 3792, Note_on_c, 1, 60, 64
4, 3839, Note_on_c, 1, 67, 0
4, 3839, Note_on_c, 1, 60, 0
4, 3888, Note_on_c, 1, 60, 75
4, 3977, Note_on_c, 1, 60, 0
4, 3984, Note_on_c, 1, 60, 75
4, 4077, Note_on_c, 1, 60, 0
4, 4080, Note_on_c, 1, 60, 75
4, 4169, Note_on_c, 1, 60, 0
4, 4176, Note_on_c, 1, 60, 75
4, 4269, Note_on_c, 1, 60, 0
4, 4272, Note_on_c, 1, 60, 75
4, 4361, Note_on_c, 1, 60, 0
4, 4368, Note_on_c, 1, 60, 75
4, 4461, Note_on_c, 1, 60, 0
4, 4464, Note_on_c, 1, 60, 75
4, 4553, Note_on_c, 1, 60, 0
4, 4560, Note_on_c, 1, 60, 75
4, 4653, Note_on_c, 1, 60, 0
4, 4656, Note_on_c, 1, 60, 75
4, 4745, Note_on_c, 1, 60, 0
4, 4752, Note_on_c, 1, 60, 75
4, 4845, Note_on_c, 1, 60, 0
4, 4848, Note_on_c, 1, 60, 75
4, 4937, Note_on_c, 1, 60, 0
4, 4944, Note_on_c, 1, 60, 75
4, 5037, Note_on_c, 1, 60, 0
4, 5040, Note_on_c, 1, 65, 75
4, 5465, Note_on_c, 1, 65, 0
4, 5592, Note_on_c, 1, 48, 75
4, 5604, Note_on_c, 1, 48, 0
4, 5604, Note_on_c, 1, 55, 75
4, 5616, Note_on_c, 1, 55, 0
4, 5616, Note_on_c, 1, 60, 75
4, 5639, Note_on_c, 1, 60, 0
4, 5640, Note_on_c, 1, 55, 75
4, 5663, Note_on_c, 1, 55, 0
4, 5664, Note_on_c, 1, 58, 75
4, 5687, Note_on_c, 1, 58, 0
4, 5688, Note_on_c, 1, 57, 75
4, 5711, Note_on_c, 1, 57, 0
4, 5712, Note_on_c, 1, 55, 75
4, 5735, Note_on_c, 1, 55, 0
4, 5736, Note_on_c, 1, 53, 75
4, 5759, Note_on_c, 1, 53, 0
4, 5760, Note_on_c, 1, 53, 75
4, 5808, Note_on_c, 1, 53, 0
4, 5808, Note_on_c, 1, 52, 75
4, 5849, Note_on_c, 1, 52, 0
4, 5856, Note_on_c, 1, 53, 75
4, 5901, Note_on_c, 1, 53, 0
4, 5976, Note_on_c, 1, 48, 75
4, 5988, Note_on_c, 1, 48, 0
4, 5988, Note_on_c, 1, 55, 75
4, 6000, Note_on_c, 1, 55, 0
4, 6000, Note_on_c, 1, 60, 75
4, 6023, Note_on_c, 1, 60, 0
4, 6024, Note_on_c, 1, 55, 75
4, 6047, Note_on_c, 1, 55, 0
4, 6048, Note_on_c, 1, 58, 75
4, 6071, Note_on_c, 1, 58, 0
4, 6072, Note_on_c, 1, 57, 75
4, 6095, Note_on_c, 1, 57, 0
4, 6096, Note_on_c, 1, 55, 75
4, 6102, Note_on_c, 1, 55, 0
4, 6102, Note_on_c, 1, 57, 75
4, 6108, Note_on_c, 1, 57, 0
4, 6108, Note_on_c, 1, 55, 75
4, 6119, Note_on_c, 1, 55, 0
4, 6120, Note_on_c, 1, 53, 75
4, 6143, Note_on_c, 1, 53, 0
4, 6144, Note_on_c, 1, 53, 75
4, 6192, Note_on_c, 1, 53, 0
4, 6192, Note_on_c, 1, 52, 75
4, 6233, Note_on_c, 1, 52, 0
4, 6240, Note_on_c, 1, 53, 75
4, 6285, Note_on_c, 1, 53, 0
4, 6336, Note_on_c, 1, 46, 75
4, 6381, Note_on_c, 1, 46, 0
4, 6528, Note_on_c, 1, 58, 75
4, 6573, Note_on_c, 1, 58, 0
4, 6624, Note_on_c, 1, 57, 75
4, 6669, Note_on_c, 1, 57, 0
4, 6720, Note_on_c, 1, 58, 75
4, 6765, Note_on_c, 1, 58, 0
4, 6804, Note_on_c, 1, 59, 75
4, 6804, Note_on_c, 1, 47, 75
4, 6816, Note_on_c, 1, 59, 0
4, 6816, Note_on_c, 1, 47, 0
4, 6816, Note_on_c, 1, 60, 75
4, 6816, Note_on_c, 1, 48, 75
4, 6861, Note_on_c, 1, 60, 0
4, 6861, Note_on_c, 1, 48, 0
4, 6864, Note_on_c, 1, 48, 75
4, 6864, Note_on_c, 1, 36, 75
4, 6909, Note_on_c, 1, 48, 0
4, 6909, Note_on_c, 1, 36, 0
4, 6912, Note_on_c, 1, 50, 75
4, 6912, Note_on_c, 1, 38, 75
4, 7001, Note_on_c, 1, 50, 0
4, 7001, Note_on_c, 1, 38, 0
4, 7056, Note_on_c, 1, 65, 75
4, 7056, Note_on_c, 1, 62, 75
4, 7101, Note_on_c, 1, 65, 0
4, 7101, Note_on_c, 1, 62, 0
4, 7104, Note_on_c, 1, 67, 75
4, 7104, Note_on_c, 1, 64, 75
4, 7149, Note_on_c, 1, 67, 0
4, 7149, Note_on_c, 1, 64, 0
4, 7248, Note_on_c, 1, 60, 75
4, 7293, Note_on_c, 1, 60, 0
4, 7296, Note_on_c, 1, 65, 75
4, 7341, Note_on_c, 1, 65, 0
4, 7344, Note_on_c, 1, 58, 75
4, 7389, Note_on_c, 1, 58, 0
4, 7392, Note_on_c, 1, 60, 75
4, 7437, Note_on_c, 1, 60, 0
4, 7440, Note_on_c, 1, 48, 75
4, 7485, Note_on_c, 1, 48, 0
4, 7488, Note_on_c, 1, 53, 75
4, 7533, Note_on_c, 1, 53, 0
4, 7536, Note_on_c, 1, 48, 75
4, 7570, Note_on_c, 1, 48, 0
4, 7572, Note_on_c, 1, 45, 75
4, 7584, Note_on_c, 1, 45, 0
4, 7584, Note_on_c, 1, 41, 75
4, 7629, Note_on_c, 1, 41, 0
4, 7680, Note_on_c, 1, 62, 64
4, 7680, Note_on_c, 1, 58, 64
4, 7769, Note_on_c, 1, 62, 0
4, 7769, Note_on_c, 1, 58, 0
4, 7824, Note_on_c, 1, 74, 64
4, 7824, Note_on_c, 1, 70, 64
4, 7869, Note_on_c, 1, 74, 0
4, 7869, Note_on_c, 1, 70, 0
4, 7872, Note_on_c, 1, 72, 64
4, 7872, Note_on_c, 1, 69, 64
4, 7961, Note_on_c, 1, 72, 0
4, 7961, Note_on_c, 1, 69, 0
4, 7968, Note_on_c, 1, 69, 64
4, 7968, Note_on_c, 1, 65, 64
4, 8013, Note_on_c, 1, 69, 0
4, 8013, Note_on_c, 1, 65, 0
4, 8064, Note_on_c, 1, 70, 64
4, 8064, Note_on_c, 1, 58, 64
4, 8109, Note_on_c, 1, 70, 0
4, 8109, Note_on_c, 1, 58, 0
4, 8112, Note_on_c, 1, 67, 64
4, 8112, Note_on_c, 1, 63, 64
4, 8157, Note_on_c, 1, 67, 0
4, 8157, Note_on_c, 1, 63, 0
4, 8160, Note_on_c, 1, 65, 64
4, 8160, Note_on_c, 1, 62, 64
4, 8205, Note_on_c, 1, 65, 0
4, 8205, Note_on_c, 1, 62, 0
4, 8208, Note_on_c, 1, 63, 64
4, 8208, Note_on_c, 1, 53, 64
4, 8253, Note_on_c, 1, 63, 0
4, 8253, Note_on_c, 1, 53, 0
4, 8256, Note_on_c, 1, 62, 64
4, 8256, Note_on_c, 1, 58, 64
4, 8301, Note_on_c, 1, 62, 0
4, 8301, Note_on_c, 1, 58, 0
4, 8340, Note_on_c, 1, 58, 80
4, 8352, Note_on_c, 1, 58, 0
4, 8352, Note_on_c, 1, 58, 80
4, 8364, Note_on_c, 1, 58, 0
4, 8364, Note_on_c, 1, 57, 80
4, 8376, Note_on_c, 1, 57, 0
4, 8376, Note_on_c, 1, 55, 80
4, 8388, Note_on_c, 1, 55, 0
4, 8388, Note_on_c, 1, 53, 80
4, 8400, Note_on_c, 1, 53, 0
4, 8400, Note_on_c, 1, 53, 80
4, 8412, Note_on_c, 1, 53, 0
4, 8412, Note_on_c, 1, 51, 80
4, 8424, Note_on_c, 1, 51, 0
4, 8424, Note_on_c, 1, 50, 80
4, 8436, Note_on_c, 1, 50, 0
4, 8436, Note_on_c, 1, 48, 80
4, 8448, Note_on_c, 1, 48, 0
4, 8448, Note_on_c, 1, 46, 80
4, 8537, Note_on_c, 1, 46, 0
4, 8592, Note_on_c, 1, 74, 75
4, 8592, Note_on_c, 1, 70, 75
4, 8637, Note_on_c, 1, 74, 0
4, 8637, Note_on_c, 1, 70, 0
4, 8640, Note_on_c, 1, 72, 75
4, 8640, Note_on_c, 1, 69, 75
4, 8729, Note_on_c, 1, 72, 0
4, 8729, Note_on_c, 1, 69, 0
4, 8736, Note_on_c, 1, 69, 75
4, 8736, Note_on_c, 1, 65, 75
4, 8781, Note_on_c, 1, 69, 0
4, 8781, Note_on_c, 1, 65, 0
4, 8832, Note_on_c, 1, 70, 75
4, 8877, Note_on_c, 1, 70, 0
4, 8928, Note_on_c, 1, 63, 75
4, 8973, Note_on_c, 1, 63, 0
4, 9072, Note_on_c, 1, 63, 75
4, 9072, Note_on_c, 1, 53, 75
4, 9117, Note_on_c, 1, 63, 0
4, 9117, Note_on_c, 1, 53, 0
4, 9120, Note_on_c, 1, 62, 75
4, 9120, Note_on_c, 1, 58, 75
4, 9165, Note_on_c, 1, 62, 0
4, 9165, Note_on_c, 1, 58, 0
4, 9168, Note_on_c, 1, 46, 75
4, 9213, Note_on_c, 1, 46, 0
4, 9232, Note_on_c, 1, 70, 75
4, 9247, Note_on_c, 1, 70, 0
4, 9248, Note_on_c, 1, 69, 75
4, 9263, Note_on_c, 1, 69, 0
4, 9264, Note_on_c, 1, 70, 75
4, 9279, Note_on_c, 1, 70, 0
4, 9280, Note_on_c, 1, 69, 75
4, 9295, Note_on_c, 1, 69, 0
4, 9296, Note_on_c, 1, 67, 75
4, 9311, Note_on_c, 1, 67, 0
4, 9312, Note_on_c, 1, 66, 75
4, 9401, Note_on_c, 1, 66, 0
4, 9408, Note_on_c, 1, 67, 75
4, 9453, Note_on_c, 1, 67, 0
4, 9616, Note_on_c, 1, 69, 75
4, 9631, Note_on_c, 1, 69, 0
4, 9632, Note_on_c, 1, 67, 75
4, 9647, Note_on_c, 1, 67, 0
4, 9648, Note_on_c, 1, 69, 75
4, 9663, Note_on_c, 1, 69, 0
4, 9664, Note_on_c, 1, 67, 75
4, 9679, Note_on_c, 1, 67, 0
4, 9680, Note_on_c, 1, 65, 75
4, 9695, Note_on_c, 1, 65, 0
4, 9696, Note_on_c, 1, 64, 75
4, 9785, Note_on_c, 1, 64, 0
4, 9792, Note_on_c, 1, 65, 75
4, 9837, Note_on_c, 1, 65, 0
4, 10320, Note_on_c, 1, 70, 64
4, 10365, Note_on_c, 1, 70, 0
4, 10512, Note_on_c, 1, 70, 64
4, 10557, Note_on_c, 1, 70, 0
4, 10704, Note_on_c, 1, 70, 80
4, 10885, Note_on_c, 1, 70, 0
4, 10896, Note_on_c, 1, 72, 80
4, 10896, Note_on_c, 1, 70, 80
4, 10941, Note_on_c, 1, 72, 0
4, 10941, Note_on_c, 1, 70, 0
4, 10944, Note_on_c, 1, 72, 80
4, 10944, Note_on_c, 1, 69, 80
4, 10989, Note_on_c, 1, 72, 0
4, 10989, Note_on_c, 1, 69, 0
4, 10992, Note_on_c, 1, 72, 80
4, 10992, Note_on_c, 1, 70, 80
4, 11037, Note_on_c, 1, 72, 0
4, 11037, Note_on_c, 1, 70, 0
4, 11040, Note_on_c, 1, 72, 80
4, 11040, Note_on_c, 1, 69, 80
4, 11085, Note_on_c, 1, 72, 0
4, 11085, Note_on_c, 1, 69, 0
4, 11136, Note_on_c, 1, 74, 80
4, 11136, Note_on_c, 1, 70, 80
4, 11181, Note_on_c, 1, 74, 0
4, 11181, Note_on_c, 1, 70, 0
4, 11232, Note_on_c, 1, 69, 64
4, 11232, Note_on_c, 1, 60, 64
4, 11277, Note_on_c, 1, 69, 0
4, 11277, Note_on_c, 1, 60, 0
4, 11280, Note_on_c, 1, 67, 64
4, 11280, Note_on_c, 1, 60, 64
4, 11327, Note_on_c, 1, 67, 0
4, 11327, Note_on_c, 1, 60, 0
4, 11376, Note_on_c, 1, 60, 75
4, 11465, Note_on_c, 1, 60, 0
4, 11472, Note_on_c, 1, 60, 75
4, 11565, Note_on_c, 1, 60, 0
4, 11568, Note_on_c, 1, 60, 75
4, 11657, Note_on_c, 1, 60, 0
4, 11664, Note_on_c, 1, 60, 75
4, 11757, Note_on_c, 1, 60, 0
4, 11760, Note_on_c, 1, 60, 75
4, 11849, Note_on_c, 1, 60, 0
4, 11856, Note_on_c, 1, 60, 75
4, 11949, Note_on_c, 1, 60, 0
4, 11952, Note_on_c, 1, 60, 75
4, 12041, Note_on_c, 1, 60, 0
4, 12048, Note_on_c, 1, 60, 75
4, 12141, Note_on_c, 1, 60, 0
4, 12144, Note_on_c, 1, 60, 75
4, 12233, Note_on_c, 1, 60, 0
4, 12240, Note_on_c, 1, 60, 75
4, 12333, Note_on_c, 1, 60, 0
4, 12336, Note_on_c, 1, 60, 75
4, 12425, Note_on_c, 1, 60, 0
4, 12432, Note_on_c, 1, 60, 75
4, 12525, Note_on_c, 1, 60, 0
4, 12528, Note_on_c, 1, 65, 75
4, 12953, Note_on_c, 1, 65, 0
4, 13080, Note_on_c, 1, 48, 75
4, 13092, Note_on_c, 1, 48, 0
4, 13092, Note_on_c, 1, 55, 75
4, 13104, Note_on_c, 1, 55, 0
4, 13104, Note_on_c, 1, 60, 75
4, 13127, Note_on_c, 1, 60, 0
4, 13128, Note_on_c, 1, 55, 75
4, 13151, Note_on_c, 1, 55, 0
4, 13152, Note_on_c, 1, 58, 75
4, 13175, Note_on_c, 1, 58, 0
4, 13176, Note_on_c, 1, 57, 75
4, 13199, Note_on_c, 1, 57, 0
4, 13200, Note_on_c, 1, 55, 75
4, 13223, Note_on_c, 1, 55, 0
4, 13224, Note_on_c, 1, 53, 75
4, 13247, Note_on_c, 1, 53, 0
4, 13248, Note_on_c, 1, 53, 75
4, 13296, Note_on_c, 1, 53, 0
4, 13296, Note_on_c, 1, 52, 75
4, 13337, Note_on_c, 1, 52, 0
4, 13344, Note_on_c, 1, 53, 75
4, 13389, Note_on_c, 1, 53, 0
4, 13464, Note_on_c, 1, 48, 75
4, 13476, Note_on_c, 1, 48, 0
4, 13476, Note_on_c, 1, 55, 75
4, 13488, Note_on_c, 1, 55, 0
4, 13488, Note_on_c, 1, 60, 75
4, 13511, Note_on_c, 1, 60, 0
4, 13512, Note_on_c, 1, 55, 75
4, 13535, Note_on_c, 1, 55, 0
4, 13536, Note_on_c, 1, 58, 75
4, 13559, Note_on_c, 1, 58, 0
4, 13560, Note_on_c, 1, 57, 75
4, 13583, Note_on_c, 1, 57, 0
4, 13584, Note_on_c, 1, 55, 75
4, 13590, Note_on_c, 1, 55, 0
4, 13590, Note_on_c, 1, 57, 75
4, 13596, Note_on_c, 1, 57, 0
4, 13596, Note_on_c, 1, 55, 75
4, 13607, Note_on_c, 1, 55, 0
4, 13608, Note_on_c, 1, 53, 75
4, 13631, Note_on_c, 1, 53, 0
4, 13632, Note_on_c, 1, 53, 75
4, 13680, Note_on_c, 1, 53, 0
4, 13680, Note_on_c, 1, 52, 75
4, 13721, Note_on_c, 1, 52, 0
4, 13728, Note_on_c, 1, 53, 75
4, 13773, Note_on_c, 1, 53, 0
4, 13824, Note_on_c, 1, 46, 75
4, 13869, Note_on_c, 1, 46, 0
4, 14016, Note_on_c, 1, 58, 75
4, 14061, Note_on_c, 1, 58, 0
4, 14112, Note_on_c, 1, 57, 75
4, 14157, Note_on_c, 1, 57, 0
4, 14208, Note_on_c, 1, 58, 75
4, 14253, Note_on_c, 1, 58, 0
4, 14292, Note_on_c, 1, 59, 75
4, 14292, Note_on_c, 1, 47, 75
4, 14304, Note_on_c, 1, 59, 0
4, 14304, Note_on_c, 1, 47, 0
4, 14304, Note_on_c, 1, 60, 75
4, 14304, Note_on_c, 1, 48, 75
4, 14349, Note_on_c, 1, 60, 0
4, 14349, Note_on_c, 1, 48, 0
4, 14352, Note_on_c, 1, 48, 75
4, 14352, Note_on_c, 1, 36, 75
4, 14397, Note_on_c, 1, 48, 0
4, 14397, Note_on_c, 1, 36, 0
4, 14400, Note_on_c, 1, 50, 75
4, 14400, Note_on_c, 1, 38, 75
4, 14489, Note_on_c, 1, 50, 0
4, 14489, Note_on_c, 1, 38, 0
4, 14544, Note_on_c, 1, 65, 75
4, 14544, Note_on_c, 1, 62, 75
4, 14589, Note_on_c, 1, 65, 0
4, 14589, Note_on_c, 1, 62, 0
4, 14592, Note_on_c, 1, 67, 75
4, 14592, Note_on_c, 1, 64, 75
4, 14637, Note_on_c, 1, 67, 0
4, 14637, Note_on_c, 1, 64, 0
4, 14736, Note_on_c, 1, 60, 75
4, 14781, Note_on_c, 1, 60, 0
4, 14784, Note_on_c, 1, 65, 75
4, 14829, Note_on_c, 1, 65, 0
4, 14832, Note_on_c, 1, 58, 75
4, 14877, Note_on_c, 1, 58, 0
4, 14880, Note_on_c, 1, 60, 75
4, 14925, Note_on_c, 1, 60, 0
4, 14928, Note_on_c, 1, 48, 75
4, 14973, Note_on_c, 1, 48, 0
4, 14976, Note_on_c, 1, 53, 75
4, 15021, Note_on_c, 1, 53, 0
4, 15024, Note_on_c, 1, 48, 75
4, 15058, Note_on_c, 1, 48, 0
4, 15060, Note_on_c, 1, 45, 75
4, 15072, Note_on_c, 1, 45, 0
4, 15072, Note_on_c, 1, 41, 75
4, 15117, Note_on_c, 1, 41, 0
4, 15168, Note_on_c, 1, 57, 75
4, 15168, Note_on_c, 1, 53, 75
4, 15257, Note_on_c, 1, 57, 0
4, 15257, Note_on_c, 1, 53, 0
4, 15312, Note_on_c, 1, 69, 75
4, 15312, Note_on_c, 1, 65, 75
4, 15357, Note_on_c, 1, 69, 0
4, 15357, Note_on_c, 1, 65, 0
4, 15360, Note_on_c, 1, 67, 75
4, 15360, Note_on_c, 1, 64, 75
4, 15449, Note_on_c, 1, 67, 0
4, 15449, Note_on_c, 1, 64, 0
4, 15456, Note_on_c, 1, 64, 75
4, 15456, Note_on_c, 1, 60, 75
4, 15501, Note_on_c, 1, 64, 0
4, 15501, Note_on_c, 1, 60, 0
4, 15552, Note_on_c, 1, 65, 75
4, 15552, Note_on_c, 1, 53, 75
4, 15597, Note_on_c, 1, 65, 0
4, 15597, Note_on_c, 1, 53, 0
4, 15600, Note_on_c, 1, 62, 75
4, 15600, Note_on_c, 1, 58, 75
4, 15645, Note_on_c, 1, 62, 0
4, 15645, Note_on_c, 1, 58, 0
4, 15648, Note_on_c, 1, 60, 75
4, 15648, Note_on_c, 1, 57, 75
4, 15693, Note_on_c, 1, 60, 0
4, 15693, Note_on_c, 1, 57, 0
4, 15696, Note_on_c, 1, 58, 75
4, 15696, Note_on_c, 1, 48, 75
4, 15741, Note_on_c, 1, 58, 0
4, 15741, Note_on_c, 1, 48, 0
4, 15744, Note_on_c, 1, 57, 75
4, 15744, Note_on_c, 1, 53, 75
4, 15789, Note_on_c, 1, 57, 0
4, 15789, Note_on_c, 1, 53, 0
4, 15828, Note_on_c, 1, 53, 75
4, 15840, Note_on_c, 1, 53, 0
4, 15840, Note_on_c, 1, 53, 75
4, 15852, Note_on_c, 1, 53, 0
4, 15852, Note_on_c, 1, 52, 75
4, 15864, Note_on_c, 1, 52, 0
4, 15864, Note_on_c, 1, 50, 75
4, 15876, Note_on_c, 1, 50, 0
4, 15876, Note_on_c, 1, 48, 75
4, 15888, Note_on_c, 1, 48, 0
4, 15888, Note_on_c, 1, 48, 75
4, 15900, Note_on_c, 1, 48, 0
4, 15900, Note_on_c, 1, 46, 75
4, 15912, Note_on_c, 1, 46, 0
4, 15912, Note_on_c, 1, 45, 75
4, 15924, Note_on_c, 1, 45, 0
4, 15924, Note_on_c, 1, 43, 75
4, 15936, Note_on_c, 1, 43, 0
4, 15936, Note_on_c, 1, 41, 75
4, 16025, Note_on_c, 1, 41, 0
4, 16176, Note_on_c, 1, 65, 64
4, 16221, Note_on_c, 1, 65, 0
4, 16272, Note_on_c, 1, 63, 64
4, 16317, Note_on_c, 1, 63, 0
4, 16368, Note_on_c, 1, 67, 64
4, 16413, Note_on_c, 1, 67, 0
4, 16464, Note_on_c, 1, 66, 64
4, 16509, Note_on_c, 1, 66, 0
4, 16848, Note_on_c, 1, 72, 64
4, 16893, Note_on_c, 1, 72, 0
4, 17040, Note_on_c, 1, 72, 75
4, 17085, Note_on_c, 1, 72, 0
4, 17136, Note_on_c, 1, 74, 80
4, 17181, Note_on_c, 1, 74, 0
4, 17184, Note_on_c, 1, 72, 80
4, 17273, Note_on_c, 1, 72, 0
4, 17328, Note_on_c, 1, 72, 80
4, 17373, Note_on_c, 1, 72, 0
4, 17376, Note_on_c, 1, 70, 80
4, 17465, Note_on_c, 1, 70, 0
4, 17520, Note_on_c, 1, 70, 80
4, 17565, Note_on_c, 1, 70, 0
4, 17568, Note_on_c, 1, 69, 80
4, 17657, Note_on_c, 1, 69, 0
4, 17712, Note_on_c, 1, 69, 80
4, 17757, Note_on_c, 1, 69, 0
4, 17760, Note_on_c, 1, 67, 80
4, 17849, Note_on_c, 1, 67, 0
4, 17856, Note_on_c, 1, 67, 80
4, 17901, Note_on_c, 1, 67, 0
4, 17904, Note_on_c, 1, 66, 80
4, 17949, Note_on_c, 1, 66, 0
4, 17952, Note_on_c, 1, 50, 80
4, 17997, Note_on_c, 1, 50, 0
4, 18000, Note_on_c, 1, 62, 80
4, 18000, Note_on_c, 1, 60, 80
4, 18045, Note_on_c, 1, 62, 0
4, 18045, Note_on_c, 1, 60, 0
4, 18240, Note_on_c, 1, 62, 75
4, 18285, Note_on_c, 1, 62, 0
4, 18288, Note_on_c, 1, 62, 75
4, 18377, Note_on_c, 1, 62, 0
4, 18384, Note_on_c, 1, 62, 75
4, 18477, Note_on_c, 1, 62, 0
4, 18480, Note_on_c, 1, 62, 75
4, 18569, Note_on_c, 1, 62, 0
4, 18576, Note_on_c, 1, 62, 75
4, 18669, Note_on_c, 1, 62, 0
4, 18672, Note_on_c, 1, 62, 75
4, 18761, Note_on_c, 1, 62, 0
4, 18768, Note_on_c, 1, 62, 75
4, 18836, Note_on_c, 1, 62, 0
4, 18864, Note_on_c, 1, 62, 75
4, 18953, Note_on_c, 1, 62, 0
4, 18960, Note_on_c, 1, 62, 75
4, 19185, Note_on_c, 1, 62, 0
4, 19200, Note_on_c, 1, 63, 75
4, 19200, Note_on_c, 1, 60, 75
4, 19245, Note_on_c, 1, 63, 0
4, 19245, Note_on_c, 1, 60, 0
4, 19248, Note_on_c, 1, 65, 75
4, 19248, Note_on_c, 1, 62, 75
4, 19293, Note_on_c, 1, 65, 0
4, 19293, Note_on_c, 1, 62, 0
4, 19296, Note_on_c, 1, 67, 75
4, 19296, Note_on_c, 1, 63, 75
4, 19341, Note_on_c, 1, 67, 0
4, 19341, Note_on_c, 1, 63, 0
4, 19344, Note_on_c, 1, 68, 75
4, 19344, Note_on_c, 1, 65, 75
4, 19392, Note_on_c, 1, 68, 0
4, 19392, Note_on_c, 1, 65, 0
4, 19392, Note_on_c, 1, 67, 75
4, 19392, Note_on_c, 1, 63, 75
4, 19481, Note_on_c, 1, 67, 0
4, 19481, Note_on_c, 1, 63, 0
4, 19536, Note_on_c, 1, 68, 75
4, 19536, Note_on_c, 1, 65, 75
4, 19584, Note_on_c, 1, 68, 0
4, 19584, Note_on_c, 1, 65, 0
4, 19584, Note_on_c, 1, 67, 75
4, 19584, Note_on_c, 1, 63, 75
4, 19673, Note_on_c, 1, 67, 0
4, 19673, Note_on_c, 1, 63, 0
4, 19728, Note_on_c, 1, 68, 75
4, 19728, Note_on_c, 1, 65, 75
4, 19776, Note_on_c, 1, 68, 0
4, 19776, Note_on_c, 1, 65, 0
4, 19776, Note_on_c, 1, 67, 75
4, 19776, Note_on_c, 1, 63, 75
4, 19953, Note_on_c, 1, 67, 0
4, 19953, Note_on_c, 1, 63, 0
4, 20016, Note_on_c, 1, 63, 75
4, 20061, Note_on_c, 1, 63, 0
4, 20064, Note_on_c, 1, 63, 75
4, 20109, Note_on_c, 1, 63, 0
4, 20112, Note_on_c, 1, 63, 75
4, 20157, Note_on_c, 1, 63, 0
4, 20184, Note_on_c, 1, 50, 80
4, 20196, Note_on_c, 1, 50, 0
4, 20196, Note_on_c, 1, 57, 80
4, 20208, Note_on_c, 1, 57, 0
4, 20208, Note_on_c, 1, 62, 80
4, 20231, Note_on_c, 1, 62, 0
4, 20232, Note_on_c, 1, 57, 80
4, 20255, Note_on_c, 1, 57, 0
4, 20256, Note_on_c, 1, 60, 80
4, 20279, Note_on_c, 1, 60, 0
4, 20280, Note_on_c, 1, 58, 80
4, 20303, Note_on_c, 1, 58, 0
4, 20304, Note_on_c, 1, 57, 80
4, 20327, Note_on_c, 1, 57, 0
4, 20328, Note_on_c, 1, 55, 80
4, 20351, Note_on_c, 1, 55, 0
4, 20352, Note_on_c, 1, 55, 80
4, 20397, Note_on_c, 1, 55, 0
4, 20400, Note_on_c, 1, 54, 80
4, 20445, Note_on_c, 1, 54, 0
4, 20448, Note_on_c, 1, 55, 80
4, 20493, Note_on_c, 1, 55, 0
4, 20568, Note_on_c, 1, 38, 80
4, 20580, Note_on_c, 1, 38, 0
4, 20580, Note_on_c, 1, 45, 80
4, 20592, Note_on_c, 1, 45, 0
4, 20592, Note_on_c, 1, 50, 80
4, 20615, Note_on_c, 1, 50, 0
4, 20616, Note_on_c, 1, 45, 80
4, 20639, Note_on_c, 1, 45, 0
4, 20640, Note_on_c, 1, 48, 80
4, 20663, Note_on_c, 1, 48, 0
4, 20664, Note_on_c, 1, 46, 80
4, 20687, Note_on_c, 1, 46, 0
4, 20688, Note_on_c, 1, 45, 80
4, 20694, Note_on_c, 1, 45, 0
4, 20694, Note_on_c, 1, 46, 80
4, 20700, Note_on_c, 1, 46, 0
4, 20700, Note_on_c, 1, 45, 80
4, 20711, Note_on_c, 1, 45, 0
4, 20712, Note_on_c, 1, 43, 80
4, 20735, Note_on_c, 1, 43, 0
4, 20736, Note_on_c, 1, 43, 80
4, 20781, Note_on_c, 1, 43, 0
4, 20784, Note_on_c, 1, 42, 80
4, 20829, Note_on_c, 1, 42, 0
4, 20832, Note_on_c, 1, 43, 80
4, 20877, Note_on_c, 1, 43, 0
4, 20928, Note_on_c, 1, 51, 80
4, 20928, Note_on_c, 1, 39, 80
4, 21017, Note_on_c, 1, 51, 0
4, 21017, Note_on_c, 1, 39, 0
4, 21096, Note_on_c, 1, 51, 80
4, 21096, Note_on_c, 1, 39, 80
4, 21106, Note_on_c, 1, 51, 0
4, 21106, Note_on_c, 1, 39, 0
4, 21120, Note_on_c, 1, 50, 80
4, 21120, Note_on_c, 1, 38, 80
4, 21165, Note_on_c, 1, 50, 0
4, 21165, Note_on_c, 1, 38, 0
4, 21192, Note_on_c, 1, 50, 80
4, 21192, Note_on_c, 1, 38, 80
4, 21202, Note_on_c, 1, 50, 0
4, 21202, Note_on_c, 1, 38, 0
4, 21216, Note_on_c, 1, 49, 80
4, 21216, Note_on_c, 1, 37, 80
4, 21261, Note_on_c, 1, 49, 0
4, 21261, Note_on_c, 1, 37, 0
4, 21288, Note_on_c, 1, 49, 80
4, 21288, Note_on_c, 1, 37, 80
4, 21298, Note_on_c, 1, 49, 0
4, 21298, Note_on_c, 1, 37, 0
4, 21312, Note_on_c, 1, 50, 80
4, 21312, Note_on_c, 1, 38, 80
4, 21357, Note_on_c, 1, 50, 0
4, 21357, Note_on_c, 1, 38, 0
4, 21408, Note_on_c, 1, 38, 80
4, 21453, Note_on_c, 1, 38, 0
4, 21504, Note_on_c, 1, 55, 80
4, 21696, Note_on_c, 1, 55, 0
4, 21696, Note_on_c, 1, 43, 70
4, 21741, Note_on_c, 1, 43, 0
4, 21768, Note_on_c, 1, 58, 80
4, 21791, Note_on_c, 1, 58, 0
4, 21792, Note_on_c, 1, 58, 80
4, 21804, Note_on_c, 1, 58, 0
4, 21804, Note_on_c, 1, 57, 80
4, 21816, Note_on_c, 1, 57, 0
4, 21816, Note_on_c, 1, 55, 80
4, 21828, Note_on_c, 1, 55, 0
4, 21828, Note_on_c, 1, 53, 80
4, 21840, Note_on_c, 1, 53, 0
4, 21840, Note_on_c, 1, 53, 80
4, 21852, Note_on_c, 1, 53, 0
4, 21852, Note_on_c, 1, 51, 80
4, 21864, Note_on_c, 1, 51, 0
4, 21864, Note_on_c, 1, 50, 80
4, 21876, Note_on_c, 1, 50, 0
4, 21876, Note_on_c, 1, 48, 80
4, 21888, Note_on_c, 1, 48, 0
4, 21888, Note_on_c, 1, 46, 80
4, 21977, Note_on_c, 1, 46, 0
4, 22032, Note_on_c, 1, 74, 75
4, 22032, Note_on_c, 1, 70, 75
4, 22077, Note_on_c, 1, 74, 0
4, 22077, Note_on_c, 1, 70, 0
4, 22080, Note_on_c, 1, 72, 75
4, 22080, Note_on_c, 1, 69, 75
4, 22169, Note_on_c, 1, 72, 0
4, 22169, Note_on_c, 1, 69, 0
4, 22176, Note_on_c, 1, 69, 75
4, 22176, Note_on_c, 1, 65, 75
4, 22221, Note_on_c, 1, 69, 0
4, 22221, Note_on_c, 1, 65, 0
4, 22272, Note_on_c, 1, 70, 75
4, 22272, Note_on_c, 1, 58, 75
4, 22317, Note_on_c, 1, 70, 0
4, 22317, Note_on_c, 1, 58, 0
4, 22320, Note_on_c, 1, 67, 75
4, 22320, Note_on_c, 1, 63, 75
4, 22365, Note_on_c, 1, 67, 0
4, 22365, Note_on_c, 1, 63, 0
4, 22368, Note_on_c, 1, 65, 75
4, 22368, Note_on_c, 1, 62, 75
4, 22413, Note_on_c, 1, 65, 0
4, 22413, Note_on_c, 1, 62, 0
4, 22416, Note_on_c, 1, 63, 75
4, 22416, Note_on_c, 1, 53, 75
4, 22461, Note_on_c, 1, 63, 0
4, 22461, Note_on_c, 1, 53, 0
4, 22464, Note_on_c, 1, 62, 75
4, 22464, Note_on_c, 1, 58, 75
4, 22509, Note_on_c, 1, 62, 0
4, 22509, Note_on_c, 1, 58, 0
4, 22548, Note_on_c, 1, 58, 80
4, 22560, Note_on_c, 1, 58, 0
4, 22560, Note_on_c, 1, 58, 80
4, 22572, Note_on_c, 1, 58, 0
4, 22572, Note_on_c, 1, 57, 80
4, 22584, Note_on_c, 1, 57, 0
4, 22584, Note_on_c, 1, 55, 80
4, 22596, Note_on_c, 1, 55, 0
4, 22596, Note_on_c, 1, 53, 80
4, 22608, Note_on_c, 1, 53, 0
4, 22608, Note_on_c, 1, 53, 80
4, 22620, Note_on_c, 1, 53, 0
4, 22620, Note_on_c, 1, 51, 80
4, 22632, Note_on_c, 1, 51, 0
4, 22632, Note_on_c, 1, 50, 80
4, 22644, Note_on_c, 1, 50, 0
4, 22644, Note_on_c, 1, 48, 80
4, 22656, Note_on_c, 1, 48, 0
4, 22656, Note_on_c, 1, 46, 80
4, 22745, Note_on_c, 1, 46, 0
4, 22800, Note_on_c, 1, 74, 75
4, 22800, Note_on_c, 1, 70, 75
4, 22845, Note_on_c, 1, 74, 0
4, 22845, Note_on_c, 1, 70, 0
4, 22848, Note_on_c, 1, 72, 75
4, 22937, Note_on_c, 1, 72, 0
4, 22944, Note_on_c, 1, 72, 75
4, 23033, Note_on_c, 1, 72, 0
4, 23040, Note_on_c, 1, 70, 75
4, 23217, Note_on_c, 1, 70, 0
4, 23232, Note_on_c, 1, 68, 75
4, 23409, Note_on_c, 1, 68, 0
4, 23424, Note_on_c, 1, 67, 75
4, 23513, Note_on_c, 1, 67, 0
4, 23632, Note_on_c, 1, 63, 75
4, 23647, Note_on_c, 1, 63, 0
4, 23648, Note_on_c, 1, 62, 75
4, 23663, Note_on_c, 1, 62, 0
4, 23664, Note_on_c, 1, 63, 75
4, 23679, Note_on_c, 1, 63, 0
4, 23680, Note_on_c, 1, 62, 75
4, 23695, Note_on_c, 1, 62, 0
4, 23696, Note_on_c, 1, 60, 75
4, 23711, Note_on_c, 1, 60, 0
4, 23712, Note_on_c, 1, 59, 75
4, 23801, Note_on_c, 1, 59, 0
4, 23808, Note_on_c, 1, 60, 75
4, 23897, Note_on_c, 1, 60, 0
4, 24016, Note_on_c, 1, 62, 75
4, 24031, Note_on_c, 1, 62, 0
4, 24032, Note_on_c, 1, 60, 75
4, 24047, Note_on_c, 1, 60, 0
4, 24048, Note_on_c, 1, 62, 75
4, 24063, Note_on_c, 1, 62, 0
4, 24064, Note_on_c, 1, 60, 75
4, 24079, Note_on_c, 1, 60, 0
4, 24080, Note_on_c, 1, 58, 75
4, 24095, Note_on_c, 1, 58, 0
4, 24096, Note_on_c, 1, 57, 75
4, 24185, Note_on_c, 1, 57, 0
4, 24192, Note_on_c, 1, 58, 75
4, 24281, Note_on_c, 1, 58, 0
4, 24720, Note_on_c, 1, 63, 64
4, 24765, Note_on_c, 1, 63, 0
4, 24912, Note_on_c, 1, 63, 64
4, 24957, Note_on_c, 1, 63, 0
4, 25104, Note_on_c, 1, 63, 64
4, 25149, Note_on_c, 1, 63, 0
4, 25152, Note_on_c, 1, 63, 64
4, 25285, Note_on_c, 1, 63, 0
4, 25296, Note_on_c, 1, 65, 80
4, 25296, Note_on_c, 1, 63, 80
4, 25341, Note_on_c, 1, 65, 0
4, 25341, Note_on_c, 1, 63, 0
4, 25344, Note_on_c, 1, 65, 80
4, 25344, Note_on_c, 1, 62, 80
4, 25389, Note_on_c, 1, 65, 0
4, 25389, Note_on_c, 1, 62, 0
4, 25392, Note_on_c, 1, 65, 80
4, 25392, Note_on_c, 1, 63, 80
4, 25437, Note_on_c, 1, 65, 0
4, 25437, Note_on_c, 1, 63, 0
4, 25440, Note_on_c, 1, 65, 80
4, 25440, Note_on_c, 1, 62, 80
4, 25485, Note_on_c, 1, 65, 0
4, 25485, Note_on_c, 1, 62, 0
4, 25536, Note_on_c, 1, 67, 80
4, 25536, Note_on_c, 1, 63, 80
4, 25581, Note_on_c, 1, 67, 0
4, 25581, Note_on_c, 1, 63, 0
4, 25632, Note_on_c, 1, 62, 80
4, 25677, Note_on_c, 1, 62, 0
4, 25680, Note_on_c, 1, 60, 77
4, 25725, Note_on_c, 1, 60, 0
4, 25776, Note_on_c, 1, 65, 75
4, 25865, Note_on_c, 1, 65, 0
4, 25872, Note_on_c, 1, 65, 75
4, 25965, Note_on_c, 1, 65, 0
4, 25968, Note_on_c, 1, 65, 75
4, 26057, Note_on_c, 1, 65, 0
4, 26064, Note_on_c, 1, 65, 75
4, 26157, Note_on_c, 1, 65, 0
4, 26160, Note_on_c, 1, 65, 75
4, 26249, Note_on_c, 1, 65, 0
4, 26256, Note_on_c, 1, 65, 75
4, 26349, Note_on_c, 1, 65, 0
4, 26352, Note_on_c, 1, 65, 75
4, 26441, Note_on_c, 1, 65, 0
4, 26448, Note_on_c, 1, 65, 75
4, 26541, Note_on_c, 1, 65, 0
4, 26544, Note_on_c, 1, 65, 75
4, 26633, Note_on_c, 1, 65, 0
4, 26640, Note_on_c, 1, 65, 75
4, 26733, Note_on_c, 1, 65, 0
4, 26736, Note_on_c, 1, 65, 75
4, 26825, Note_on_c, 1, 65, 0
4, 26832, Note_on_c, 1, 65, 75
4, 26925, Note_on_c, 1, 65, 0
4, 26928, Note_on_c, 1, 70, 75
4, 27353, Note_on_c, 1, 70, 0
4, 27480, Note_on_c, 1, 53, 75
4, 27492, Note_on_c, 1, 53, 0
4, 27492, Note_on_c, 1, 60, 75
4, 27504, Note_on_c, 1, 60, 0
4, 27504, Note_on_c, 1, 65, 75
4, 27527, Note_on_c, 1, 65, 0
4, 27528, Note_on_c, 1, 60, 75
4, 27551, Note_on_c, 1, 60, 0
4, 27552, Note_on_c, 1, 63, 75
4, 27575, Note_on_c, 1, 63, 0
4, 27576, Note_on_c, 1, 62, 75
4, 27599, Note_on_c, 1, 62, 0
4, 27600, Note_on_c, 1, 60, 75
4, 27623, Note_on_c, 1, 60, 0
4, 27624, Note_on_c, 1, 58, 75
4, 27647, Note_on_c, 1, 58, 0
4, 27648, Note_on_c, 1, 58, 75
4, 27696, Note_on_c, 1, 58, 0
4, 27696, Note_on_c, 1, 57, 75
4, 27737, Note_on_c, 1, 57, 0
4, 27744, Note_on_c, 1, 58, 75
4, 27789, Note_on_c, 1, 58, 0
4, 27864, Note_on_c, 1, 41, 75
4, 27876, Note_on_c, 1, 41, 0
4, 27876, Note_on_c, 1, 48, 75
4, 27888, Note_on_c, 1, 48, 0
4, 27888, Note_on_c, 1, 53, 75
4, 27911, Note_on_c, 1, 53, 0
4, 27912, Note_on_c, 1, 48, 75
4, 27935, Note_on_c, 1, 48, 0
4, 27936, Note_on_c, 1, 51, 75
4, 27959, Note_on_c, 1, 51, 0
4, 27960, Note_on_c, 1, 50, 75
4, 27983, Note_on_c, 1, 50, 0
4, 27984, Note_on_c, 1, 48, 75
4, 27990, Note_on_c, 1, 48, 0
4, 27990, Note_on_c, 1, 50, 75
4, 27996, Note_on_c, 1, 50, 0
4, 27996, Note_on_c, 1, 48, 75
4, 28007, Note_on_c, 1, 48, 0
4, 28008, Note_on_c, 1, 46, 75
4, 28031, Note_on_c, 1, 46, 0
4, 28032, Note_on_c, 1, 46, 75
4, 28080, Note_on_c, 1, 46, 0
4, 28080, Note_on_c, 1, 45, 75
4, 28121, Note_on_c, 1, 45, 0
4, 28128, Note_on_c, 1, 46, 75
4, 28173, Note_on_c, 1, 46, 0
4, 28224, Note_on_c, 1, 51, 75
4, 28224, Note_on_c, 1, 39, 75
4, 28313, Note_on_c, 1, 51, 0
4, 28313, Note_on_c, 1, 39, 0
4, 28464, Note_on_c, 1, 63, 75
4, 28509, Note_on_c, 1, 63, 0
4, 28512, Note_on_c, 1, 62, 75
4, 28557, Note_on_c, 1, 62, 0
4, 28560, Note_on_c, 1, 70, 75
4, 28605, Note_on_c, 1, 70, 0
4, 28608, Note_on_c, 1, 63, 75
4, 28653, Note_on_c, 1, 63, 0
4, 28704, Note_on_c, 1, 62, 75
4, 28749, Note_on_c, 1, 62, 0
4, 28752, Note_on_c, 1, 60, 75
4, 28797, Note_on_c, 1, 60, 0
4, 28800, Note_on_c, 1, 58, 75
4, 28800, Note_on_c, 1, 55, 75
4, 28889, Note_on_c, 1, 58, 0
4, 28889, Note_on_c, 1, 55, 0
4, 28944, Note_on_c, 1, 70, 75
4, 28944, Note_on_c, 1, 67, 75
4, 28989, Note_on_c, 1, 70, 0
4, 28989, Note_on_c, 1, 67, 0
4, 28992, Note_on_c, 1, 72, 75
4, 28992, Note_on_c, 1, 69, 75
4, 29081, Note_on_c, 1, 72, 0
4, 29081, Note_on_c, 1, 69, 0
4, 29136, Note_on_c, 1, 65, 75
4, 29229, Note_on_c, 1, 65, 0
4, 29232, Note_on_c, 1, 63, 75
4, 29277, Note_on_c, 1, 63, 0
4, 29280, Note_on_c, 1, 62, 75
4, 29325, Note_on_c, 1, 62, 0
4, 29328, Note_on_c, 1, 60, 75
4, 29373, Note_on_c, 1, 60, 0
4, 29376, Note_on_c, 1, 58, 75
4, 29376, Note_on_c, 1, 55, 75
4, 29465, Note_on_c, 1, 58, 0
4, 29465, Note_on_c, 1, 55, 0
4, 29520, Note_on_c, 1, 58, 75
4, 29520, Note_on_c, 1, 55, 75
4, 29565, Note_on_c, 1, 58, 0
4, 29565, Note_on_c, 1, 55, 0
4, 29568, Note_on_c, 1, 60, 75
4, 29568, Note_on_c, 1, 57, 75
4, 29657, Note_on_c, 1, 60, 0
4, 29657, Note_on_c, 1, 57, 0
4, 29712, Note_on_c, 1, 53, 75
4, 29805, Note_on_c, 1, 53, 0
4, 29856, Note_on_c, 1, 53, 75
4, 29901, Note_on_c, 1, 53, 0
4, 29904, Note_on_c, 1, 41, 75
4, 29949, Note_on_c, 1, 41, 0
4, 29952, Note_on_c, 1, 46, 75
4, 29997, Note_on_c, 1, 46, 0
4, 30000, Note_on_c, 1, 34, 75
4, 30045, Note_on_c, 1, 34, 0
4, 30144, Note_on_c, 1, 57, 75
4, 30144, Note_on_c, 1, 53, 75
4, 30233, Note_on_c, 1, 57, 0
4, 30233, Note_on_c, 1, 53, 0
4, 30288, Note_on_c, 1, 69, 75
4, 30288, Note_on_c, 1, 65, 75
4, 30333, Note_on_c, 1, 69, 0
4, 30333, Note_on_c, 1, 65, 0
4, 30336, Note_on_c, 1, 67, 75
4, 30336, Note_on_c, 1, 64, 75
4, 30425, Note_on_c, 1, 67, 0
4, 30425, Note_on_c, 1, 64, 0
4, 30432, Note_on_c, 1, 64, 75
4, 30432, Note_on_c, 1, 60, 75
4, 30477, Note_on_c, 1, 64, 0
4, 30477, Note_on_c, 1, 60, 0
4, 30528, Note_on_c, 1, 65, 75
4, 30528, Note_on_c, 1, 53, 75
4, 30573, Note_on_c, 1, 65, 0
4, 30573, Note_on_c, 1, 53, 0
4, 30576, Note_on_c, 1, 62, 75
4, 30576, Note_on_c, 1, 58, 75
4, 30621, Note_on_c, 1, 62, 0
4, 30621, Note_on_c, 1, 58, 0
4, 30624, Note_on_c, 1, 60, 75
4, 30624, Note_on_c, 1, 57, 75
4, 30669, Note_on_c, 1, 60, 0
4, 30669, Note_on_c, 1, 57, 0
4, 30672, Note_on_c, 1, 58, 75
4, 30672, Note_on_c, 1, 48, 75
4, 30717, Note_on_c, 1, 58, 0
4, 30717, Note_on_c, 1, 48, 0
4, 30720, Note_on_c, 1, 57, 75
4, 30720, Note_on_c, 1, 53, 75
4, 30765, Note_on_c, 1, 57, 0
4, 30765, Note_on_c, 1, 53, 0
4, 30804, Note_on_c, 1, 53, 75
4, 30816, Note_on_c, 1, 53, 0
4, 30816, Note_on_c, 1, 53, 75
4, 30828, Note_on_c, 1, 53, 0
4, 30828, Note_on_c, 1, 52, 75
4, 30840, Note_on_c, 1, 52, 0
4, 30840, Note_on_c, 1, 50, 75
4, 30852, Note_on_c, 1, 50, 0
4, 30852, Note_on_c, 1, 48, 75
4, 30864, Note_on_c, 1, 48, 0
4, 30864, Note_on_c, 1, 48, 75
4, 30876, Note_on_c, 1, 48, 0
4, 30876, Note_on_c, 1, 46, 75
4, 30888, Note_on_c, 1, 46, 0
4, 30888, Note_on_c, 1, 45, 75
4, 30900, Note_on_c, 1, 45, 0
4, 30900, Note_on_c, 1, 43, 75
4, 30912, Note_on_c, 1, 43, 0
4, 30912, Note_on_c, 1, 41, 75
4, 31001, Note_on_c, 1, 41, 0
4, 31152, Note_on_c, 1, 65, 64
4, 31197, Note_on_c, 1, 65, 0
4, 31248, Note_on_c, 1, 63, 64
4, 31293, Note_on_c, 1, 63, 0
4, 31344, Note_on_c, 1, 67, 64
4, 31389, Note_on_c, 1, 67, 0
4, 31440, Note_on_c, 1, 66, 64
4, 31485, Note_on_c, 1, 66, 0
4, 31824, Note_on_c, 1, 72, 64
4, 31869, Note_on_c, 1, 72, 0
4, 32016, Note_on_c, 1, 72, 75
4, 32061, Note_on_c, 1, 72, 0
4, 32112, Note_on_c, 1, 74, 80
4, 32157, Note_on_c, 1, 74, 0
4, 32160, Note_on_c, 1, 72, 80
4, 32249, Note_on_c, 1, 72, 0
4, 32304, Note_on_c, 1, 72, 80
4, 32349, Note_on_c, 1, 72, 0
4, 32352, Note_on_c, 1, 70, 80
4, 32441, Note_on_c, 1, 70, 0
4, 32496, Note_on_c, 1, 70, 80
4, 32541, Note_on_c, 1, 70, 0
4, 32544, Note_on_c, 1, 69, 80
4, 32633, Note_on_c, 1, 69, 0
4, 32688, Note_on_c, 1, 69, 80
4, 32733, Note_on_c, 1, 69, 0
4, 32736, Note_on_c, 1, 67, 80
4, 32825, Note_on_c, 1, 67, 0
4, 32832, Note_on_c, 1, 67, 80
4, 32877, Note_on_c, 1, 67, 0
4, 32880, Note_on_c, 1, 66, 80
4, 32925, Note_on_c, 1, 66, 0
4, 32928, Note_on_c, 1, 50, 80
4, 32973, Note_on_c, 1, 50, 0
4, 32976, Note_on_c, 1, 62, 80
4, 32976, Note_on_c, 1, 60, 80
4, 33021, Note_on_c, 1, 62, 0
4, 33021, Note_on_c, 1, 60, 0
4, 33216, Note_on_c, 1, 62, 75
4, 33261, Note_on_c, 1, 62, 0
4, 33264, Note_on_c, 1, 62, 75
4, 33353, Note_on_c, 1, 62, 0
4, 33360, Note_on_c, 1, 62, 75
4, 33453, Note_on_c, 1, 62, 0
4, 33456, Note_on_c, 1, 62, 75
4, 33545, Note_on_c, 1, 62, 0
4, 33552, Note_on_c, 1, 62, 75
4, 33645, Note_on_c, 1, 62, 0
4, 33648, Note_on_c, 1, 62, 75
4, 33737, Note_on_c, 1, 62, 0
4, 33744, Note_on_c, 1, 62, 75
4, 33812, Note_on_c, 1, 62, 0
4, 33840, Note_on_c, 1, 62, 75
4, 33929, Note_on_c, 1, 62, 0
4, 33936, Note_on_c, 1, 62, 75
4, 34161, Note_on_c, 1, 62, 0
4, 34176, Note_on_c, 1, 63, 75
4, 34176, Note_on_c, 1, 60, 75
4, 34221, Note_on_c, 1, 63, 0
4, 34221, Note_on_c, 1, 60, 0
4, 34224, Note_on_c, 1, 65, 75
4, 34224, Note_on_c, 1, 62, 75
4, 34269, Note_on_c, 1, 65, 0
4, 34269, Note_on_c, 1, 62, 0
4, 34272, Note_on_c, 1, 67, 75
4, 34272, Note_on_c, 1, 63, 75
4, 34317, Note_on_c, 1, 67, 0
4, 34317, Note_on_c, 1, 63, 0
4, 34320, Note_on_c, 1, 68, 75
4, 34320, Note_on_c, 1, 65, 75
4, 34368, Note_on_c, 1, 68, 0
4, 34368, Note_on_c, 1, 65, 0
4, 34368, Note_on_c, 1, 67, 75
4, 34368, Note_on_c, 1, 63, 75
4, 34457, Note_on_c, 1, 67, 0
4, 34457, Note_on_c, 1, 63, 0
4, 34512, Note_on_c, 1, 68, 75
4, 34512, Note_on_c, 1, 65, 75
4, 34560, Note_on_c, 1, 68, 0
4, 34560, Note_on_c, 1, 65, 0
4, 34560, Note_on_c, 1, 67, 75
4, 34560, Note_on_c, 1, 63, 75
4, 34649, Note_on_c, 1, 67, 0
4, 34649, Note_on_c, 1, 63, 0
4, 34704, Note_on_c, 1, 68, 75
4, 34704, Note_on_c, 1, 65, 75
4, 34752, Note_on_c, 1, 68, 0
4, 34752, Note_on_c, 1, 65, 0
4, 34752, Note_on_c, 1, 67, 75
4, 34752, Note_on_c, 1, 63, 75
4, 34929, Note_on_c, 1, 67, 0
4, 34929, Note_on_c, 1, 63, 0
4, 34992, Note_on_c, 1, 63, 75
4, 35037, Note_on_c, 1, 63, 0
4, 35040, Note_on_c, 1, 63, 75
4, 35085, Note_on_c, 1, 63, 0
4, 35088, Note_on_c, 1, 63, 75
4, 35133, Note_on_c, 1, 63, 0
4, 35160, Note_on_c, 1, 50, 80
4, 35172, Note_on_c, 1, 50, 0
4, 35172, Note_on_c, 1, 57, 80
4, 35184, Note_on_c, 1, 57, 0
4, 35184, Note_on_c, 1, 62, 80
4, 35207, Note_on_c, 1, 62, 0
4, 35208, Note_on_c, 1, 57, 80
4, 35231, Note_on_c, 1, 57, 0
4, 35232, Note_on_c, 1, 60, 80
4, 35255, Note_on_c, 1, 60, 0
4, 35256, Note_on_c, 1, 58, 80
4, 35279, Note_on_c, 1, 58, 0
4, 35280, Note_on_c, 1, 57, 80
4, 35303, Note_on_c, 1, 57, 0
4, 35304, Note_on_c, 1, 55, 80
4, 35327, Note_on_c, 1, 55, 0
4, 35328, Note_on_c, 1, 55, 80
4, 35373, Note_on_c, 1, 55, 0
4, 35376, Note_on_c, 1, 54, 80
4, 35421, Note_on_c, 1, 54, 0
4, 35424, Note_on_c, 1, 55, 80
4, 35469, Note_on_c, 1, 55, 0
4, 35544, Note_on_c, 1, 38, 80
4, 35556, Note_on_c, 1, 38, 0
4, 35556, Note_on_c, 1, 45, 80
4, 35568, Note_on_c, 1, 45, 0
4, 35568, Note_on_c, 1, 50, 80
4, 35591, Note_on_c, 1, 50, 0
4, 35592, Note_on_c, 1, 45, 80
4, 35615, Note_on_c, 1, 45, 0
4, 35616, Note_on_c, 1, 48, 80
4, 35639, Note_on_c, 1, 48, 0
4, 35640, Note_on_c, 1, 46, 80
4, 35663, Note_on_c, 1, 46, 0
4, 35664, Note_on_c, 1, 45, 80
4, 35670, Note_on_c, 1, 45, 0
4, 35670, Note_on_c, 1, 46, 80
4, 35676, Note_on_c, 1, 46, 0
4, 35676, Note_on_c, 1, 45, 80
4, 35687, Note_on_c, 1, 45, 0
4, 35688, Note_on_c, 1, 43, 80
4, 35711, Note_on_c, 1, 43, 0
4, 35712, Note_on_c, 1, 43, 80
4, 35757, Note_on_c, 1, 43, 0
4, 35760, Note_on_c, 1, 42, 80
4, 35805, Note_on_c, 1, 42, 0
4, 35808, Note_on_c, 1, 43, 80
4, 35853, Note_on_c, 1, 43, 0
4, 35904, Note_on_c, 1, 51, 80
4, 35904, Note_on_c, 1, 39, 80
4, 35993, Note_on_c, 1, 51, 0
4, 35993, Note_on_c, 1, 39, 0
4, 36072, Note_on_c, 1, 51, 80
4, 36072, Note_on_c, 1, 39, 80
4, 36082, Note_on_c, 1, 51, 0
4, 36082, Note_on_c, 1, 39, 0
4, 36096, Note_on_c, 1, 50, 80
4, 36096, Note_on_c, 1, 38, 80
4, 36141, Note_on_c, 1, 50, 0
4, 36141, Note_on_c, 1, 38, 0
4, 36168, Note_on_c, 1, 50, 80
4, 36168, Note_on_c, 1, 38, 80
4, 36178, Note_on_c, 1, 50, 0
4, 36178, Note_on_c, 1, 38, 0
4, 36192, Note_on_c, 1, 49, 80
4, 36192, Note_on_c, 1, 37, 80
4, 36237, Note_on_c, 1, 49, 0
4, 36237, Note_on_c, 1, 37, 0
4, 36264, Note_on_c, 1, 49, 80
4, 36264, Note_on_c, 1, 37, 80
4, 36274, Note_on_c, 1, 49, 0
4, 36274, Note_on_c, 1, 37, 0
4, 36288, Note_on_c, 1, 50, 80
4, 36288, Note_on_c, 1, 38, 80
4, 36333, Note_on_c, 1, 50, 0
4, 36333, Note_on_c, 1, 38, 0
4, 36384, Note_on_c, 1, 38, 80
4, 36429, Note_on_c, 1, 38, 0
4, 36480, Note_on_c, 1, 55, 80
4, 36672, Note_on_c, 1, 55, 0
4, 36672, Note_on_c, 1, 43, 70
4, 36717, Note_on_c, 1, 43, 0
4, 36744, Note_on_c, 1, 58, 80
4, 36767, Note_on_c, 1, 58, 0
4, 36768, Note_on_c, 1, 58, 80
4, 36780, Note_on_c, 1, 58, 0
4, 36780, Note_on_c, 1, 57, 80
4, 36792, Note_on_c, 1, 57, 0
4, 36792, Note_on_c, 1, 55, 80
4, 36804, Note_on_c, 1, 55, 0
4, 36804, Note_on_c, 1, 53, 80
4, 36816, Note_on_c, 1, 53, 0
4, 36816, Note_on_c, 1, 53, 80
4, 36828, Note_on_c, 1, 53, 0
4, 36828, Note_on_c, 1, 51, 80
4, 36840, Note_on_c, 1, 51, 0
4, 36840, Note_on_c, 1, 50, 80
4, 36852, Note_on_c, 1, 50, 0
4, 36852, Note_on_c, 1, 48, 80
4, 36864, Note_on_c, 1, 48, 0
4, 36864, Note_on_c, 1, 46, 80
4, 36953, Note_on_c, 1, 46, 0
4, 37008, Note_on_c, 1, 74, 75
4, 37008, Note_on_c, 1, 70, 75
4, 37053, Note_on_c, 1, 74, 0
4, 37053, Note_on_c, 1, 70, 0
4, 37056, Note_on_c, 1, 72, 75
4, 37056, Note_on_c, 1, 69, 75
4, 37145, Note_on_c, 1, 72, 0
4, 37145, Note_on_c, 1, 69, 0
4, 37152, Note_on_c, 1, 69, 75
4, 37152, Note_on_c, 1, 65, 75
4, 37197, Note_on_c, 1, 69, 0
4, 37197, Note_on_c, 1, 65, 0
4, 37248, Note_on_c, 1, 70, 75
4, 37248, Note_on_c, 1, 58, 75
4, 37293, Note_on_c, 1, 70, 0
4, 37293, Note_on_c, 1, 58, 0
4, 37296, Note_on_c, 1, 67, 75
4, 37296, Note_on_c, 1, 63, 75
4, 37341, Note_on_c, 1, 67, 0
4, 37341, Note_on_c, 1, 63, 0
4, 37344, Note_on_c, 1, 65, 75
4, 37344, Note_on_c, 1, 62, 75
4, 37389, Note_on_c, 1, 65, 0
4, 37389, Note_on_c, 1, 62, 0
4, 37392, Note_on_c, 1, 63, 75
4, 37392, Note_on_c, 1, 53, 75
4, 37437, Note_on_c, 1, 63, 0
4, 37437, Note_on_c, 1, 53, 0
4, 37440, Note_on_c, 1, 62, 75
4, 37440, Note_on_c, 1, 58, 75
4, 37485, Note_on_c, 1, 62, 0
4, 37485, Note_on_c, 1, 58, 0
4, 37524, Note_on_c, 1, 58, 80
4, 37536, Note_on_c, 1, 58, 0
4, 37536, Note_on_c, 1, 58, 80
4, 37548, Note_on_c, 1, 58, 0
4, 37548, Note_on_c, 1, 57, 80
4, 37560, Note_on_c, 1, 57, 0
4, 37560, Note_on_c, 1, 55, 80
4, 37572, Note_on_c, 1, 55, 0
4, 37572, Note_on_c, 1, 53, 80
4, 37584, Note_on_c, 1, 53, 0
4, 37584, Note_on_c, 1, 53, 80
4, 37596, Note_on_c, 1, 53, 0
4, 37596, Note_on_c, 1, 51, 80
4, 37608, Note_on_c, 1, 51, 0
4, 37608, Note_on_c, 1, 50, 80
4, 37620, Note_on_c, 1, 50, 0
4, 37620, Note_on_c, 1, 48, 80
4, 37632, Note_on_c, 1, 48, 0
4, 37632, Note_on_c, 1, 46, 80
4, 37721, Note_on_c, 1, 46, 0
4, 37776, Note_on_c, 1, 74, 75
4, 37776, Note_on_c, 1, 70, 75
4, 37821, Note_on_c, 1, 74, 0
4, 37821, Note_on_c, 1, 70, 0
4, 37824, Note_on_c, 1, 72, 75
4, 37913, Note_on_c, 1, 72, 0
4, 37920, Note_on_c, 1, 72, 75
4, 38009, Note_on_c, 1, 72, 0
4, 38016, Note_on_c, 1, 70, 75
4, 38193, Note_on_c, 1, 70, 0
4, 38208, Note_on_c, 1, 68, 75
4, 38385, Note_on_c, 1, 68, 0
4, 38400, Note_on_c, 1, 67, 75
4, 38489, Note_on_c, 1, 67, 0
4, 38608, Note_on_c, 1, 63, 75
4, 38623, Note_on_c, 1, 63, 0
4, 38624, Note_on_c, 1, 62, 75
4, 38639, Note_on_c, 1, 62, 0
4, 38640, Note_on_c, 1, 63, 75
4, 38655, Note_on_c, 1, 63, 0
4, 38656, Note_on_c, 1, 62, 75
4, 38671, Note_on_c, 1, 62, 0
4, 38672, Note_on_c, 1, 60, 75
4, 38687, Note_on_c, 1, 60, 0
4, 38688, Note_on_c, 1, 59, 75
4, 38777, Note_on_c, 1, 59, 0
4, 38784, Note_on_c, 1, 60, 75
4, 38873, Note_on_c, 1, 60, 0
4, 38992, Note_on_c, 1, 62, 75
4, 39007, Note_on_c, 1, 62, 0
4, 39008, Note_on_c, 1, 60, 75
4, 39023, Note_on_c, 1, 60, 0
4, 39024, Note_on_c, 1, 62, 75
4, 39039, Note_on_c, 1, 62, 0
4, 39040, Note_on_c, 1, 60, 75
4, 39055, Note_on_c, 1, 60, 0
4, 39056, Note_on_c, 1, 58, 75
4, 39071, Note_on_c, 1, 58, 0
4, 39072, Note_on_c, 1, 57, 75
4, 39161, Note_on_c, 1, 57, 0
4, 39168, Note_on_c, 1, 58, 75
4, 39257, Note_on_c, 1, 58, 0
4, 39696, Note_on_c, 1, 63, 64
4, 39741, Note_on_c, 1, 63, 0
4, 39888, Note_on_c, 1, 63, 64
4, 39933, Note_on_c, 1, 63, 0
4, 40080, Note_on_c, 1, 63, 64
4, 40125, Note_on_c, 1, 63, 0
4, 40128, Note_on_c, 1, 63, 64
4, 40261, Note_on_c, 1, 63, 0
4, 40272, Note_on_c, 1, 65, 80
4, 40272, Note_on_c, 1, 63, 80
4, 40317, Note_on_c, 1, 65, 0
4, 40317, Note_on_c, 1, 63, 0
4, 40320, Note_on_c, 1, 65, 80
4, 40320, Note_on_c, 1, 62, 80
4, 40365, Note_on_c, 1, 65, 0
4, 40365, Note_on_c, 1, 62, 0
4, 40368, Note_on_c, 1, 65, 80
4, 40368, Note_on_c, 1, 63, 80
4, 40413, Note_on_c, 1, 65, 0
4, 40413, Note_on_c, 1, 63, 0
4, 40416, Note_on_c, 1, 65, 80
4, 40416, Note_on_c, 1, 62, 80
4, 40461, Note_on_c, 1, 65, 0
4, 40461, Note_on_c, 1, 62, 0
4, 40512, Note_on_c, 1, 67, 80
4, 40512, Note_on_c, 1, 63, 80
4, 40557, Note_on_c, 1, 67, 0
4, 40557, Note_on_c, 1, 63, 0
4, 40608, Note_on_c, 1, 62, 80
4, 40653, Note_on_c, 1, 62, 0
4, 40656, Note_on_c, 1, 60, 77
4, 40701, Note_on_c, 1, 60, 0
4, 40752, Note_on_c, 1, 65, 75
4, 40841, Note_on_c, 1, 65, 0
4, 40848, Note_on_c, 1, 65, 75
4, 40941, Note_on_c, 1, 65, 0
4, 40944, Note_on_c, 1, 65, 75
4, 41033, Note_on_c, 1, 65, 0
4, 41040, Note_on_c, 1, 65, 75
4, 41133, Note_on_c, 1, 65, 0
4, 41136, Note_on_c, 1, 65, 75
4, 41225, Note_on_c, 1, 65, 0
4, 41232, Note_on_c, 1, 65, 75
4, 41325, Note_on_c, 1, 65, 0
4, 41328, Note_on_c, 1, 65, 75
4, 41417, Note_on_c, 1, 65, 0
4, 41424, Note_on_c, 1, 65, 75
4, 41517, Note_on_c, 1, 65, 0
4, 41520, Note_on_c, 1, 65, 75
4, 41609, Note_on_c, 1, 65, 0
4, 41616, Note_on_c, 1, 65, 75
4, 41709, Note_on_c, 1, 65, 0
4, 41712, Note_on_c, 1, 65, 75
4, 41801, Note_on_c, 1, 65, 0
4, 41808, Note_on_c, 1, 65, 75
4, 41901, Note_on_c, 1, 65, 0
4, 41904, Note_on_c, 1, 70, 75
4, 42329, Note_on_c, 1, 70, 0
4, 42456, Note_on_c, 1, 53, 75
4, 42468, Note_on_c, 1, 53, 0
4, 42468, Note_on_c, 1, 60, 75
4, 42480, Note_on_c, 1, 60, 0
4, 42480, Note_on_c, 1, 65, 75
4, 42503, Note_on_c, 1, 65, 0
4, 42504, Note_on_c, 1, 60, 75
4, 42527, Note_on_c, 1, 60, 0
4, 42528, Note_on_c, 1, 63, 75
4, 42551, Note_on_c, 1, 63, 0
4, 42552, Note_on_c, 1, 62, 75
4, 42575, Note_on_c, 1, 62, 0
4, 42576, Note_on_c, 1, 60, 75
4, 42599, Note_on_c, 1, 60, 0
4, 42600, Note_on_c, 1, 58, 75
4, 42623, Note_on_c, 1, 58, 0
4, 42624, Note_on_c, 1, 58, 75
4, 42672, Note_on_c, 1, 58, 0
4, 42672, Note_on_c, 1, 57, 75
4, 42713, Note_on_c, 1, 57, 0
4, 42720, Note_on_c, 1, 58, 75
4, 42765, Note_on_c, 1, 58, 0
4, 42840, Note_on_c, 1, 41, 75
4, 42852, Note_on_c, 1, 41, 0
4, 42852, Note_on_c, 1, 48, 75
4, 42864, Note_on_c, 1, 48, 0
4, 42864, Note_on_c, 1, 53, 75
4, 42887, Note_on_c, 1, 53, 0
4, 42888, Note_on_c, 1, 48, 75
4, 42911, Note_on_c, 1, 48, 0
4, 42912, Note_on_c, 1, 51, 75
4, 42935, Note_on_c, 1, 51, 0
4, 42936, Note_on_c, 1, 50, 75
4, 42959, Note_on_c, 1, 50, 0
4, 42960, Note_on_c, 1, 48, 75
4, 42966, Note_on_c, 1, 48, 0
4, 42966, Note_on_c, 1, 50, 75
4, 42972, Note_on_c, 1, 50, 0
4, 42972, Note_on_c, 1, 48, 75
4, 42983, Note_on_c, 1, 48, 0
4, 42984, Note_on_c, 1, 46, 75
4, 43007, Note_on_c, 1, 46, 0
4, 43008, Note_on_c, 1, 46, 75
4, 43056, Note_on_c, 1, 46, 0
4, 43056, Note_on_c, 1, 45, 75
4, 43097, Note_on_c, 1, 45, 0
4, 43104, Note_on_c, 1, 46, 75
4, 43149, Note_on_c, 1, 46, 0
4, 43200, Note_on_c, 1, 51, 75
4, 43200, Note_on_c, 1, 39, 75
4, 43289, Note_on_c, 1, 51, 0
4, 43289, Note_on_c, 1, 39, 0
4, 43440, Note_on_c, 1, 63, 75
4, 43485, Note_on_c, 1, 63, 0
4, 43488, Note_on_c, 1, 62, 75
4, 43533, Note_on_c, 1, 62, 0
4, 43536, Note_on_c, 1, 70, 75
4, 43581, Note_on_c, 1, 70, 0
4, 43584, Note_on_c, 1, 63, 75
4, 43629, Note_on_c, 1, 63, 0
4, 43680, Note_on_c, 1, 62, 75
4, 43725, Note_on_c, 1, 62, 0
4, 43728, Note_on_c, 1, 60, 75
4, 43773, Note_on_c, 1, 60, 0
4, 43776, Note_on_c, 1, 58, 75
4, 43776, Note_on_c, 1, 55, 75
4, 43865, Note_on_c, 1, 58, 0
4, 43865, Note_on_c, 1, 55, 0
4, 43920, Note_on_c, 1, 70, 75
4, 43920, Note_on_c, 1, 67, 75
4, 43965, Note_on_c, 1, 70, 0
4, 43965, Note_on_c, 1, 67, 0
4, 43968, Note_on_c, 1, 72, 75
4, 43968, Note_on_c, 1, 69, 75
4, 44057, Note_on_c, 1, 72, 0
4, 44057, Note_on_c, 1, 69, 0
4, 44112, Note_on_c, 1, 65, 75
4, 44205, Note_on_c, 1, 65, 0
4, 44208, Note_on_c, 1, 63, 75
4, 44253, Note_on_c, 1, 63, 0
4, 44256, Note_on_c, 1, 62, 75
4, 44301, Note_on_c, 1, 62, 0
4, 44304, Note_on_c, 1, 60, 75
4, 44349, Note_on_c, 1, 60, 0
4, 44352, Note_on_c, 1, 58, 75
4, 44352, Note_on_c, 1, 55, 75
4, 44441, Note_on_c, 1, 58, 0
4, 44441, Note_on_c, 1, 55, 0
4, 44496, Note_on_c, 1, 58, 75
4, 44496, Note_on_c, 1, 55, 75
4, 44541, Note_on_c, 1, 58, 0
4, 44541, Note_on_c, 1, 55, 0
4, 44544, Note_on_c, 1, 60, 75
4, 44544, Note_on_c, 1, 57, 75
4, 44633, Note_on_c, 1, 60, 0
4, 44633, Note_on_c, 1, 57, 0
4, 44688, Note_on_c, 1, 53, 75
4, 44781, Note_on_c, 1, 53, 0
4, 44832, Note_on_c, 1, 53, 75
4, 44877, Note_on_c, 1, 53, 0
4, 44880, Note_on_c, 1, 41, 75
4, 44925, Note_on_c, 1, 41, 0
4, 44928, Note_on_c, 1, 46, 75
4, 44973, Note_on_c, 1, 46, 0
4, 44976, Note_on_c, 1, 34, 75
4, 45021, Note_on_c, 1, 34, 0
4, 45120, End_track
5, 0, Start_track
5, 0, Program_c, 1, 0
5, 0, Control_c, 1, 7, 127
5, 0, Control_c, 1, 10, 64
5, 2736, Note_on_c, 1, 65, 64
5, 2781, Note_on_c, 1, 65, 0
5, 2784, Note_on_c, 1, 64, 64
5, 2873, Note_on_c, 1, 64, 0
5, 2928, Note_on_c, 1, 65, 64
5, 2973, Note_on_c, 1, 65, 0
5, 2976, Note_on_c, 1, 64, 64
5, 3065, Note_on_c, 1, 64, 0
5, 3120, Note_on_c, 1, 65, 80
5, 3165, Note_on_c, 1, 65, 0
5, 3168, Note_on_c, 1, 64, 80
5, 3397, Note_on_c, 1, 64, 0
5, 3840, Note_on_c, 1, 53, 75
5, 3929, Note_on_c, 1, 53, 0
5, 3936, Note_on_c, 1, 55, 75
5, 4025, Note_on_c, 1, 55, 0
5, 4032, Note_on_c, 1, 57, 75
5, 4121, Note_on_c, 1, 57, 0
5, 4128, Note_on_c, 1, 52, 75
5, 4217, Note_on_c, 1, 52, 0
5, 4224, Note_on_c, 1, 53, 75
5, 4313, Note_on_c, 1, 53, 0
5, 4320, Note_on_c, 1, 55, 75
5, 4409, Note_on_c, 1, 55, 0
5, 4416, Note_on_c, 1, 57, 75
5, 4505, Note_on_c, 1, 57, 0
5, 4512, Note_on_c, 1, 52, 75
5, 4601, Note_on_c, 1, 52, 0
5, 4608, Note_on_c, 1, 53, 75
5, 4697, Note_on_c, 1, 53, 0
5, 4704, Note_on_c, 1, 55, 75
5, 4793, Note_on_c, 1, 55, 0
5, 4800, Note_on_c, 1, 57, 75
5, 4889, Note_on_c, 1, 57, 0
5, 4896, Note_on_c, 1, 52, 75
5, 4985, Note_on_c, 1, 52, 0
5, 4992, Note_on_c, 1, 53, 75
5, 5081, Note_on_c, 1, 53, 0
5, 5088, Note_on_c, 1, 55, 76
5, 5133, Note_on_c, 1, 55, 0
5, 5136, Note_on_c, 1, 56, 76
5, 5181, Note_on_c, 1, 56, 0
5, 5184, Note_on_c, 1, 57, 77
5, 5229, Note_on_c, 1, 57, 0
5, 5232, Note_on_c, 1, 58, 77
5, 5277, Note_on_c, 1, 58, 0
5, 5280, Note_on_c, 1, 60, 78
5, 5325, Note_on_c, 1, 60, 0
5, 5328, Note_on_c, 1, 57, 78
5, 5373, Note_on_c, 1, 57, 0
5, 5376, Note_on_c, 1, 58, 79
5, 5465, Note_on_c, 1, 58, 0
5, 10224, Note_on_c, 1, 65, 64
5, 10269, Note_on_c, 1, 65, 0
5, 10272, Note_on_c, 1, 64, 64
5, 10361, Note_on_c, 1, 64, 0
5, 10416, Note_on_c, 1, 65, 64
5, 10461, Note_on_c, 1, 65, 0
5, 10464, Note_on_c, 1, 64, 64
5, 10553, Note_on_c, 1, 64, 0
5, 10608, Note_on_c, 1, 65, 80
5, 10653, Note_on_c, 1, 65, 0
5, 10656, Note_on_c, 1, 64, 80
5, 10885, Note_on_c, 1, 64, 0
5, 11328, Note_on_c, 1, 53, 75
5, 11417, Note_on_c, 1, 53, 0
5, 11424, Note_on_c, 1, 55, 75
5, 11513, Note_on_c, 1, 55, 0
5, 11520, Note_on_c, 1, 57, 75
5, 11609, Note_on_c, 1, 57, 0
5, 11616, Note_on_c, 1, 52, 75
5, 11705, Note_on_c, 1, 52, 0
5, 11712, Note_on_c, 1, 53, 75
5, 11801, Note_on_c, 1, 53, 0
5, 11808, Note_on_c, 1, 55, 75
5, 11897, Note_on_c, 1, 55, 0
5, 11904, Note_on_c, 1, 57, 75
5, 11993, Note_on_c, 1, 57, 0
5, 12000, Note_on_c, 1, 52, 75
5, 12089, Note_on_c, 1, 52, 0
5, 12096, Note_on_c, 1, 53, 75
5, 12185, Note_on_c, 1, 53, 0
5, 12192, Note_on_c, 1, 55, 75
5, 12281, Note_on_c, 1, 55, 0
5, 12288, Note_on_c, 1, 57, 75
5, 12377, Note_on_c, 1, 57, 0
5, 12384, Note_on_c, 1, 52, 75
5, 12473, Note_on_c, 1, 52, 0
5, 12480, Note_on_c, 1, 53, 75
5, 12569, Note_on_c, 1, 53, 0
5, 12576, Note_on_c, 1, 55, 76
5, 12621, Note_on_c, 1, 55, 0
5, 12624, Note_on_c, 1, 56, 76
5, 12669, Note_on_c, 1, 56, 0
5, 12672, Note_on_c, 1, 57, 77
5, 12717, Note_on_c, 1, 57, 0
5, 12720, Note_on_c, 1, 58, 77
5, 12765, Note_on_c, 1, 58, 0
5, 12768, Note_on_c, 1, 60, 78
5, 12813, Note_on_c, 1, 60, 0
5, 12816, Note_on_c, 1, 57, 78
5, 12861, Note_on_c, 1, 57, 0
5, 12864, Note_on_c, 1, 58, 79
5, 12953, Note_on_c, 1, 58, 0
5, 16752, Note_on_c, 1, 67, 80
5, 16797, Note_on_c, 1, 67, 0
5, 16800, Note_on_c, 1, 66, 80
5, 16889, Note_on_c, 1, 66, 0
5, 16944, Note_on_c, 1, 67, 80
5, 16989, Note_on_c, 1, 67, 0
5, 16992, Note_on_c, 1, 66, 80
5, 17081, Note_on_c, 1, 66, 0
5, 17088, Note_on_c, 1, 67, 80
5, 17177, Note_on_c, 1, 67, 0
5, 17184, Note_on_c, 1, 72, 80
5, 17229, Note_on_c, 1, 72, 0
5, 17232, Note_on_c, 1, 60, 80
5, 17277, Note_on_c, 1, 60, 0
5, 17280, Note_on_c, 1, 65, 80
5, 17369, Note_on_c, 1, 65, 0
5, 17376, Note_on_c, 1, 70, 80
5, 17421, Note_on_c, 1, 70, 0
5, 17424, Note_on_c, 1, 58, 80
5, 17469, Note_on_c, 1, 58, 0
5, 17472, Note_on_c, 1, 63, 80
5, 17561, Note_on_c, 1, 63, 0
5, 17568, Note_on_c, 1, 69, 80
5, 17613, Note_on_c, 1, 69, 0
5, 17616, Note_on_c, 1, 57, 80
5, 17661, Note_on_c, 1, 57, 0
5, 17664, Note_on_c, 1, 62, 80
5, 17753, Note_on_c, 1, 62, 0
5, 17760, Note_on_c, 1, 67, 80
5, 17805, Note_on_c, 1, 67, 0
5, 17808, Note_on_c, 1, 61, 80
5, 17853, Note_on_c, 1, 61, 0
5, 17856, Note_on_c, 1, 62, 80
5, 17945, Note_on_c, 1, 62, 0
5, 18048, Note_on_c, 1, 62, 80
5, 18048, Note_on_c, 1, 58, 80
5, 18093, Note_on_c, 1, 62, 0
5, 18093, Note_on_c, 1, 58, 0
5, 18096, Note_on_c, 1, 62, 80
5, 18096, Note_on_c, 1, 60, 80
5, 18141, Note_on_c, 1, 62, 0
5, 18141, Note_on_c, 1, 60, 0
5, 18144, Note_on_c, 1, 62, 80
5, 18144, Note_on_c, 1, 58, 80
5, 18189, Note_on_c, 1, 62, 0
5, 18189, Note_on_c, 1, 58, 0
5, 18192, Note_on_c, 1, 62, 80
5, 18192, Note_on_c, 1, 54, 80
5, 18237, Note_on_c, 1, 62, 0
5, 18237, Note_on_c, 1, 54, 0
5, 18240, Note_on_c, 1, 55, 75
5, 18329, Note_on_c, 1, 55, 0
5, 18336, Note_on_c, 1, 57, 75
5, 18425, Note_on_c, 1, 57, 0
5, 18432, Note_on_c, 1, 58, 75
5, 18521, Note_on_c, 1, 58, 0
5, 18528, Note_on_c, 1, 54, 75
5, 18617, Note_on_c, 1, 54, 0
5, 18624, Note_on_c, 1, 55, 75
5, 18713, Note_on_c, 1, 55, 0
5, 18720, Note_on_c, 1, 57, 75
5, 18759, Note_on_c, 1, 57, 0
5, 18816, Note_on_c, 1, 58, 75
5, 18855, Note_on_c, 1, 58, 0
5, 18912, Note_on_c, 1, 54, 75
5, 19001, Note_on_c, 1, 54, 0
5, 19008, Note_on_c, 1, 55, 75
5, 19053, Note_on_c, 1, 55, 0
5, 19056, Note_on_c, 1, 57, 75
5, 19101, Note_on_c, 1, 57, 0
5, 19104, Note_on_c, 1, 58, 75
5, 19149, Note_on_c, 1, 58, 0
5, 19152, Note_on_c, 1, 59, 75
5, 19197, Note_on_c, 1, 59, 0
5, 22848, Note_on_c, 1, 69, 75
5, 22937, Note_on_c, 1, 69, 0
5, 22944, Note_on_c, 1, 68, 75
5, 23129, Note_on_c, 1, 68, 0
5, 23136, Note_on_c, 1, 67, 75
5, 23321, Note_on_c, 1, 67, 0
5, 23328, Note_on_c, 1, 65, 75
5, 23513, Note_on_c, 1, 65, 0
5, 24624, Note_on_c, 1, 58, 64
5, 24669, Note_on_c, 1, 58, 0
5, 24672, Note_on_c, 1, 57, 64
5, 24761, Note_on_c, 1, 57, 0
5, 24816, Note_on_c, 1, 58, 64
5, 24861, Note_on_c, 1, 58, 0
5, 24864, Note_on_c, 1, 57, 64
5, 24953, Note_on_c, 1, 57, 0
5, 25008, Note_on_c, 1, 58, 80
5, 25053, Note_on_c, 1, 58, 0
5, 25056, Note_on_c, 1, 57, 80
5, 25285, Note_on_c, 1, 57, 0
5, 25632, Note_on_c, 1, 53, 80
5, 25721, Note_on_c, 1, 53, 0
5, 25728, Note_on_c, 1, 58, 80
5, 25817, Note_on_c, 1, 58, 0
5, 25824, Note_on_c, 1, 60, 80
5, 25913, Note_on_c, 1, 60, 0
5, 25920, Note_on_c, 1, 62, 80
5, 26009, Note_on_c, 1, 62, 0
5, 26016, Note_on_c, 1, 57, 80
5, 26105, Note_on_c, 1, 57, 0
5, 26112, Note_on_c, 1, 58, 80
5, 26201, Note_on_c, 1, 58, 0
5, 26208, Note_on_c, 1, 60, 80
5, 26297, Note_on_c, 1, 60, 0
5, 26304, Note_on_c, 1, 62, 80
5, 26393, Note_on_c, 1, 62, 0
5, 26400, Note_on_c, 1, 57, 80
5, 26489, Note_on_c, 1, 57, 0
5, 26496, Note_on_c, 1, 58, 80
5, 26585, Note_on_c, 1, 58, 0
5, 26592, Note_on_c, 1, 60, 80
5, 26681, Note_on_c, 1, 60, 0
5, 26688, Note_on_c, 1, 62, 80
5, 26777, Note_on_c, 1, 62, 0
5, 26784, Note_on_c, 1, 57, 80
5, 26873, Note_on_c, 1, 57, 0
5, 26880, Note_on_c, 1, 58, 80
5, 26969, Note_on_c, 1, 58, 0
5, 26976, Note_on_c, 1, 60, 81
5, 27021, Note_on_c, 1, 60, 0
5, 27024, Note_on_c, 1, 61, 81
5, 27069, Note_on_c, 1, 61, 0
5, 27072, Note_on_c, 1, 62, 82
5, 27117, Note_on_c, 1, 62, 0
5, 27120, Note_on_c, 1, 63, 83
5, 27165, Note_on_c, 1, 63, 0
5, 27168, Note_on_c, 1, 65, 83
5, 27213, Note_on_c, 1, 65, 0
5, 27216, Note_on_c, 1, 62, 84
5, 27261, Note_on_c, 1, 62, 0
5, 27264, Note_on_c, 1, 63, 84
5, 27353, Note_on_c, 1, 63, 0
5, 28704, Note_on_c, 1, 53, 86
5, 28793, Note_on_c, 1, 53, 0
5, 29136, Note_on_c, 1, 57, 86
5, 29181, Note_on_c, 1, 57, 0
5, 29184, Note_on_c, 1, 58, 86
5, 29229, Note_on_c, 1, 58, 0
5, 29232, Note_on_c, 1, 51, 86
5, 29277, Note_on_c, 1, 51, 0
5, 29280, Note_on_c, 1, 53, 86
5, 29369, Note_on_c, 1, 53, 0
5, 29712, Note_on_c, 1, 45, 86
5, 29757, Note_on_c, 1, 45, 0
5, 29760, Note_on_c, 1, 46, 86
5, 29805, Note_on_c, 1, 46, 0
5, 29808, Note_on_c, 1, 51, 86
5, 29853, Note_on_c, 1, 51, 0
5, 31728, Note_on_c, 1, 67, 80
5, 31773, Note_on_c, 1, 67, 0
5, 31776, Note_on_c, 1, 66, 80
5, 31865, Note_on_c, 1, 66, 0
5, 31920, Note_on_c, 1, 67, 80
5, 31965, Note_on_c, 1, 67, 0
5, 31968, Note_on_c, 1, 66, 80
5, 32057, Note_on_c, 1, 66, 0
5, 32064, Note_on_c, 1, 67, 80
5, 32153, Note_on_c, 1, 67, 0
5, 32160, Note_on_c, 1, 72, 80
5, 32205, Note_on_c, 1, 72, 0
5, 32208, Note_on_c, 1, 60, 80
5, 32253, Note_on_c, 1, 60, 0
5, 32256, Note_on_c, 1, 65, 80
5, 32345, Note_on_c, 1, 65, 0
5, 32352, Note_on_c, 1, 70, 80
5, 32397, Note_on_c, 1, 70, 0
5, 32400, Note_on_c, 1, 58, 80
5, 32445, Note_on_c, 1, 58, 0
5, 32448, Note_on_c, 1, 63, 80
5, 32537, Note_on_c, 1, 63, 0
5, 32544, Note_on_c, 1, 69, 80
5, 32589, Note_on_c, 1, 69, 0
5, 32592, Note_on_c, 1, 57, 80
5, 32637, Note_on_c, 1, 57, 0
5, 32640, Note_on_c, 1, 62, 80
5, 32729, Note_on_c, 1, 62, 0
5, 32736, Note_on_c, 1, 67, 80
5, 32781, Note_on_c, 1, 67, 0
5, 32784, Note_on_c, 1, 61, 80
5, 32829, Note_on_c, 1, 61, 0
5, 32832, Note_on_c, 1, 62, 80
5, 32921, Note_on_c, 1, 62, 0
5, 33024, Note_on_c, 1, 62, 80
5, 33024, Note_on_c, 1, 58, 80
5, 33069, Note_on_c, 1, 62, 0
5, 33069, Note_on_c, 1, 58, 0
5, 33072, Note_on_c, 1, 62, 80
5, 33072, Note_on_c, 1, 60, 80
5, 33117, Note_on_c, 1, 62, 0
5, 33117, Note_on_c, 1, 60, 0
5, 33120, Note_on_c, 1, 62, 80
5, 33120, Note_on_c, 1, 58, 80
5, 33165, Note_on_c, 1, 62, 0
5, 33165, Note_on_c, 1, 58, 0
5, 33168, Note_on_c, 1, 62, 80
5, 33168, Note_on_c, 1, 54, 80
5, 33213, Note_on_c, 1, 62, 0
5, 33213, Note_on_c, 1, 54, 0
5, 33216, Note_on_c, 1, 55, 75
5, 33305, Note_on_c, 1, 55, 0
5, 33312, Note_on_c, 1, 57, 75
5, 33401, Note_on_c, 1, 57, 0
5, 33408, Note_on_c, 1, 58, 75
5, 33497, Note_on_c, 1, 58, 0
5, 33504, Note_on_c, 1, 54, 75
5, 33593, Note_on_c, 1, 54, 0
5, 33600, Note_on_c, 1, 55, 75
5, 33689, Note_on_c, 1, 55, 0
5, 33696, Note_on_c, 1, 57, 75
5, 33735, Note_on_c, 1, 57, 0
5, 33792, Note_on_c, 1, 58, 75
5, 33831, Note_on_c, 1, 58, 0
5, 33888, Note_on_c, 1, 54, 75
5, 33977, Note_on_c, 1, 54, 0
5, 33984, Note_on_c, 1, 55, 75
5, 34029, Note_on_c, 1, 55, 0
5, 34032, Note_on_c, 1, 57, 75
5, 34077, Note_on_c, 1, 57, 0
5, 34080, Note_on_c, 1, 58, 75
5, 34125, Note_on_c, 1, 58, 0
5, 34128, Note_on_c, 1, 59, 75
5, 34173, Note_on_c, 1, 59, 0
5, 37824, Note_on_c, 1, 69, 75
5, 37913, Note_on_c, 1, 69, 0
5, 37920, Note_on_c, 1, 68, 75
5, 38105, Note_on_c, 1, 68, 0
5, 38112, Note_on_c, 1, 67, 75
5, 38297, Note_on_c, 1, 67, 0
5, 38304, Note_on_c, 1, 65, 75
5, 38489, Note_on_c, 1, 65, 0
5, 39600, Note_on_c, 1, 58, 64
5, 39645, Note_on_c, 1, 58, 0
5, 39648, Note_on_c, 1, 57, 64
5, 39737, Note_on_c, 1, 57, 0
5, 39792, Note_on_c, 1, 58, 64
5, 39837, Note_on_c, 1, 58, 0
5, 39840, Note_on_c, 1, 57, 64
5, 39929, Note_on_c, 1, 57, 0
5, 39984, Note_on_c, 1, 58, 80
5, 40029, Note_on_c, 1, 58, 0
5, 40032, Note_on_c, 1, 57, 80
5, 40261, Note_on_c, 1, 57, 0
5, 40608, Note_on_c, 1, 53, 80
5, 40697, Note_on_c, 1, 53, 0
5, 40704, Note_on_c, 1, 58, 80
5, 40793, Note_on_c, 1, 58, 0
5, 40800, Note_on_c, 1, 60, 80
5, 40889, Note_on_c, 1, 60, 0
5, 40896, Note_on_c, 1, 62, 80
5, 40985, Note_on_c, 1, 62, 0
5, 40992, Note_on_c, 1, 57, 80
5, 41081, Note_on_c, 1, 57, 0
5, 41088, Note_on_c, 1, 58, 80
5, 41177, Note_on_c, 1, 58, 0
5, 41184, Note_on_c, 1, 60, 80
5, 41273, Note_on_c, 1, 60, 0
5, 41280, Note_on_c, 1, 62, 80
5, 41369, Note_on_c, 1, 62, 0
5, 41376, Note_on_c, 1, 57, 80
5, 41465, Note_on_c, 1, 57, 0
5, 41472, Note_on_c, 1, 58, 80
5, 41561, Note_on_c, 1, 58, 0
5, 41568, Note_on_c, 1, 60, 80
5, 41657, Note_on_c, 1, 60, 0
5, 41664, Note_on_c, 1, 62, 80
5, 41753, Note_on_c, 1, 62, 0
5, 41760, Note_on_c, 1, 57, 80
5, 41849, Note_on_c, 1, 57, 0
5, 41856, Note_on_c, 1, 58, 80
5, 41945, Note_on_c, 1, 58, 0
5, 41952, Note_on_c, 1, 60, 81
5, 41997, Note_on_c, 1, 60, 0
5, 42000, Note_on_c, 1, 61, 81
5, 42045, Note_on_c, 1, 61, 0
5, 42048, Note_on_c, 1, 62, 82
5, 42093, Note_on_c, 1, 62, 0
5, 42096, Note_on_c, 1, 63, 83
5, 42141, Note_on_c, 1, 63, 0
5, 42144, Note_on_c, 1, 65, 83
5, 42189, Note_on_c, 1, 65, 0
5, 42192, Note_on_c, 1, 62, 84
5, 42237, Note_on_c, 1, 62, 0
5, 42240, Note_on_c, 1, 63, 84
5, 42329, Note_on_c, 1, 63, 0
5, 43680, Note_on_c, 1, 53, 86
5, 43769, Note_on_c, 1, 53, 0
5, 44112, Note_on_c, 1, 57, 86
5, 44157, Note_on_c, 1, 57, 0
5, 44160, Note_on_c, 1, 58, 86
5, 44205, Note_on_c, 1, 58, 0
5, 44208, Note_on_c, 1, 51, 86
5, 44253, Note_on_c, 1, 51, 0
5, 44256, Note_on_c, 1, 53, 86
5, 44345, Note_on_c, 1, 53, 0
5, 44688, Note_on_c, 1, 45, 86
5, 44733, Note_on_c, 1, 45, 0
5, 44736, Note_on_c, 1, 46, 86
5, 44781, Note_on_c, 1, 46, 0
5, 44784, Note_on_c, 1, 51, 86
5, 44829, Note_on_c, 1, 51, 0
5, 45120, End_track
6, 0, Start_track
6, 0, Title_t, "Sonata I   Haydn  "
6, 0, End_track
0, 0, End_of_file
