0, 0, Header, 1, 6, 96
1, 0, Start_track
1, 0, Copyright_t, "Copyright  2000 <copyright holder>"
1, 0, Text_t, "Sonata I\015\012"
1, 0, Text_t, "Haydn\015\012"
1, 0, Sequencer_specific, 16, 68, 87, 77, 90, 86, 82, 83, 78, 32, 55, 46, 49, 46, 50, 46, 48
1, 0, Time_signature, 3, 2, 24, 8
1, 0, Tempo, 1090909
1, 0, Key_signature, -3, "major"
1, 4656, Tempo, 3000000
1, 4680, Tempo, 1090909
1, 6048, Tempo, 1132075
1, 6072, Tempo, 1250000
1, 6120, Tempo, 1395348
1, 6168, Tempo, 2000000
1, 6192, Tempo, 1395348
1, 6336, Time_signature, 4, 2, 24, 8
1, 6336, Tempo, 1090909
1, 6720, Time_signature, 3, 2, 24, 8
1, 7008, Tempo, 1500000
1, 7200, Tempo, 1090909
1, 11952, Tempo, 3000000
1, 11976, Tempo, 1090909
1, 13344, Tempo, 1132075
1, 13368, Tempo, 1250000
1, 13416, Tempo, 1395348
1, 13464, Tempo, 2000000
1, 13488, Tempo, 1395348
1, 13632, Time_signature, 4, 2, 24, 8
1, 13632, Tempo, 1090909
1, 14016, Time_signature, 3, 2, 24, 8
1, 14304, Tempo, 1500000
1, 14496, Tempo, 1090909
1, 16560, Tempo, 1200000
1, 16584, Tempo, 1333333
1, 16608, Tempo, 1500000
1, 16752, Tempo, 1090909
1, 19008, Tempo, 1500000
1, 19488, Tempo, 1090909
1, 23520, Tempo, 1132075
1, 23544, Tempo, 1250000
1, 23592, Tempo, 1395348
1, 23640, Tempo, 2000000
1, 23664, Tempo, 1395348
1, 23808, Tempo, 1090909
1, 24624, Tempo, 1200000
1, 24720, Tempo, 3000000
1, 24744, Tempo, 1090909
1, 25824, Tempo, 1500000
1, 26016, Tempo, 1090909
1, 28080, Tempo, 1200000
1, 28104, Tempo, 1333333
1, 28128, Tempo, 1500000
1, 28272, Tempo, 1090909
1, 30528, Tempo, 1500000
1, 31008, Tempo, 1090909
1, 35040, Tempo, 1132075
1, 35064, Tempo, 1250000
1, 35112, Tempo, 1395348
1, 35160, Tempo, 2000000
1, 35184, Tempo, 1395348
1, 35328, Tempo, 1090909
1, 36144, Tempo, 1200000
1, 36240, Tempo, 3000000
1, 36264, Tempo, 1090909
1, 37344, Tempo, 1500000
1, 37536, Tempo, 1090909
1, 37632, End_track
2, 0, Start_track
2, 0, Program_c, 0, 0
2, 0, Control_c, 0, 7, 127
2, 0, Control_c, 0, 10, 64
2, 0, Note_on_c, 0, 58, 64
2, 0, Note_on_c, 0, 55, 64
2, 89, Note_on_c, 0, 58, 0
2, 89, Note_on_c, 0, 55, 0
2, 96, Note_on_c, 0, 63, 64
2, 96, Note_on_c, 0, 60, 64
2, 185, Note_on_c, 0, 63, 0
2, 185, Note_on_c, 0, 60, 0
2, 192, Note_on_c, 0, 62, 64
2, 192, Note_on_c, 0, 58, 64
2, 281, Note_on_c, 0, 62, 0
2, 281, Note_on_c, 0, 58, 0
2, 288, Note_on_c, 0, 60, 64
2, 288, Note_on_c, 0, 56, 64
2, 327, Note_on_c, 0, 60, 0
2, 327, Note_on_c, 0, 56, 0
2, 384, Note_on_c, 0, 58, 64
2, 384, Note_on_c, 0, 55, 64
2, 423, Note_on_c, 0, 58, 0
2, 423, Note_on_c, 0, 55, 0
2, 576, Note_on_c, 0, 65, 75
2, 576, Note_on_c, 0, 62, 75
2, 665, Note_on_c, 0, 65, 0
2, 665, Note_on_c, 0, 62, 0
2, 672, Note_on_c, 0, 67, 76
2, 672, Note_on_c, 0, 63, 76
2, 717, Note_on_c, 0, 67, 0
2, 717, Note_on_c, 0, 63, 0
2, 720, Note_on_c, 0, 68, 77
2, 720, Note_on_c, 0, 65, 77
2, 765, Note_on_c, 0, 68, 0
2, 765, Note_on_c, 0, 65, 0
2, 768, Note_on_c, 0, 70, 78
2, 786, Note_on_c, 0, 70, 0
2, 786, Note_on_c, 0, 68, 78
2, 857, Note_on_c, 0, 68, 0
2, 864, Note_on_c, 0, 67, 80
2, 864, Note_on_c, 0, 63, 80
2, 1051, Note_on_c, 0, 67, 0
2, 1051, Note_on_c, 0, 63, 0
2, 1152, Note_on_c, 0, 65, 75
2, 1197, Note_on_c, 0, 65, 0
2, 1200, Note_on_c, 0, 72, 91
2, 1271, Note_on_c, 0, 72, 0
2, 1272, Note_on_c, 0, 70, 75
2, 1295, Note_on_c, 0, 70, 0
2, 1296, Note_on_c, 0, 68, 75
2, 1363, Note_on_c, 0, 68, 0
2, 1368, Note_on_c, 0, 67, 75
2, 1391, Note_on_c, 0, 67, 0
2, 1392, Note_on_c, 0, 65, 75
2, 1415, Note_on_c, 0, 65, 0
2, 1416, Note_on_c, 0, 63, 75
2, 1439, Note_on_c, 0, 63, 0
2, 1440, Note_on_c, 0, 62, 75
2, 1485, Note_on_c, 0, 62, 0
2, 1488, Note_on_c, 0, 70, 75
2, 1494, Note_on_c, 0, 70, 0
2, 1494, Note_on_c, 0, 72, 75
2, 1500, Note_on_c, 0, 72, 0
2, 1500, Note_on_c, 0, 70, 75
2, 1559, Note_on_c, 0, 70, 0
2, 1560, Note_on_c, 0, 68, 75
2, 1583, Note_on_c, 0, 68, 0
2, 1584, Note_on_c, 0, 67, 75
2, 1651, Note_on_c, 0, 67, 0
2, 1656, Note_on_c, 0, 65, 75
2, 1679, Note_on_c, 0, 65, 0
2, 1680, Note_on_c, 0, 63, 75
2, 1703, Note_on_c, 0, 63, 0
2, 1704, Note_on_c, 0, 62, 75
2, 1727, Note_on_c, 0, 62, 0
2, 1728, Note_on_c, 0, 60, 75
2, 1734, Note_on_c, 0, 60, 0
2, 1734, Note_on_c, 0, 62, 75
2, 1740, Note_on_c, 0, 62, 0
2, 1740, Note_on_c, 0, 60, 75
2, 1773, Note_on_c, 0, 60, 0
2, 1776, Note_on_c, 0, 68, 76
2, 1799, Note_on_c, 0, 68, 0
2, 1800, Note_on_c, 0, 67, 76
2, 1823, Note_on_c, 0, 67, 0
2, 1824, Note_on_c, 0, 65, 77
2, 1847, Note_on_c, 0, 65, 0
2, 1848, Note_on_c, 0, 63, 77
2, 1871, Note_on_c, 0, 63, 0
2, 1872, Note_on_c, 0, 62, 78
2, 1895, Note_on_c, 0, 62, 0
2, 1896, Note_on_c, 0, 60, 78
2, 1919, Note_on_c, 0, 60, 0
2, 1920, Note_on_c, 0, 58, 79
2, 1943, Note_on_c, 0, 58, 0
2, 1944, Note_on_c, 0, 62, 80
2, 1967, Note_on_c, 0, 62, 0
2, 1968, Note_on_c, 0, 63, 79
2, 1991, Note_on_c, 0, 63, 0
2, 1992, Note_on_c, 0, 55, 79
2, 2015, Note_on_c, 0, 55, 0
2, 2016, Note_on_c, 0, 58, 79
2, 2105, Note_on_c, 0, 58, 0
2, 2112, Note_on_c, 0, 56, 77
2, 2118, Note_on_c, 0, 56, 0
2, 2118, Note_on_c, 0, 58, 77
2, 2124, Note_on_c, 0, 58, 0
2, 2124, Note_on_c, 0, 56, 77
2, 2135, Note_on_c, 0, 56, 0
2, 2136, Note_on_c, 0, 55, 77
2, 2159, Note_on_c, 0, 55, 0
2, 2160, Note_on_c, 0, 56, 77
2, 2205, Note_on_c, 0, 56, 0
2, 2208, Note_on_c, 0, 55, 76
2, 2297, Note_on_c, 0, 55, 0
2, 2304, Note_on_c, 0, 60, 75
2, 2304, Note_on_c, 0, 56, 75
2, 2423, Note_on_c, 0, 60, 0
2, 2423, Note_on_c, 0, 56, 0
2, 2424, Note_on_c, 0, 56, 75
2, 2424, Note_on_c, 0, 53, 75
2, 2447, Note_on_c, 0, 56, 0
2, 2447, Note_on_c, 0, 53, 0
2, 2448, Note_on_c, 0, 56, 75
2, 2448, Note_on_c, 0, 53, 75
2, 2471, Note_on_c, 0, 56, 0
2, 2471, Note_on_c, 0, 53, 0
2, 2472, Note_on_c, 0, 60, 75
2, 2472, Note_on_c, 0, 56, 75
2, 2495, Note_on_c, 0, 60, 0
2, 2495, Note_on_c, 0, 56, 0
2, 2496, Note_on_c, 0, 60, 75
2, 2496, Note_on_c, 0, 56, 75
2, 2519, Note_on_c, 0, 60, 0
2, 2519, Note_on_c, 0, 56, 0
2, 2520, Note_on_c, 0, 56, 75
2, 2520, Note_on_c, 0, 53, 75
2, 2543, Note_on_c, 0, 56, 0
2, 2543, Note_on_c, 0, 53, 0
2, 2544, Note_on_c, 0, 56, 75
2, 2544, Note_on_c, 0, 53, 75
2, 2567, Note_on_c, 0, 56, 0
2, 2567, Note_on_c, 0, 53, 0
2, 2568, Note_on_c, 0, 60, 75
2, 2568, Note_on_c, 0, 56, 75
2, 2591, Note_on_c, 0, 60, 0
2, 2591, Note_on_c, 0, 56, 0
2, 2592, Note_on_c, 0, 58, 75
2, 2592, Note_on_c, 0, 55, 75
2, 2711, Note_on_c, 0, 58, 0
2, 2711, Note_on_c, 0, 55, 0
2, 2712, Note_on_c, 0, 55, 75
2, 2712, Note_on_c, 0, 51, 75
2, 2735, Note_on_c, 0, 55, 0
2, 2735, Note_on_c, 0, 51, 0
2, 2736, Note_on_c, 0, 55, 75
2, 2736, Note_on_c, 0, 51, 75
2, 2759, Note_on_c, 0, 55, 0
2, 2759, Note_on_c, 0, 51, 0
2, 2760, Note_on_c, 0, 58, 75
2, 2760, Note_on_c, 0, 55, 75
2, 2783, Note_on_c, 0, 58, 0
2, 2783, Note_on_c, 0, 55, 0
2, 2784, Note_on_c, 0, 58, 75
2, 2784, Note_on_c, 0, 55, 75
2, 2807, Note_on_c, 0, 58, 0
2, 2807, Note_on_c, 0, 55, 0
2, 2808, Note_on_c, 0, 55, 75
2, 2808, Note_on_c, 0, 51, 75
2, 2831, Note_on_c, 0, 55, 0
2, 2831, Note_on_c, 0, 51, 0
2, 2832, Note_on_c, 0, 55, 75
2, 2832, Note_on_c, 0, 51, 75
2, 2855, Note_on_c, 0, 55, 0
2, 2855, Note_on_c, 0, 51, 0
2, 2856, Note_on_c, 0, 58, 75
2, 2856, Note_on_c, 0, 55, 75
2, 2879, Note_on_c, 0, 58, 0
2, 2879, Note_on_c, 0, 55, 0
2, 2880, Note_on_c, 0, 56, 75
2, 2880, Note_on_c, 0, 53, 75
2, 2999, Note_on_c, 0, 56, 0
2, 2999, Note_on_c, 0, 53, 0
2, 3000, Note_on_c, 0, 53, 75
2, 3000, Note_on_c, 0, 50, 75
2, 3023, Note_on_c, 0, 53, 0
2, 3023, Note_on_c, 0, 50, 0
2, 3024, Note_on_c, 0, 53, 75
2, 3024, Note_on_c, 0, 50, 75
2, 3047, Note_on_c, 0, 53, 0
2, 3047, Note_on_c, 0, 50, 0
2, 3048, Note_on_c, 0, 56, 75
2, 3048, Note_on_c, 0, 53, 75
2, 3071, Note_on_c, 0, 56, 0
2, 3071, Note_on_c, 0, 53, 0
2, 3072, Note_on_c, 0, 56, 75
2, 3072, Note_on_c, 0, 53, 75
2, 3095, Note_on_c, 0, 56, 0
2, 3095, Note_on_c, 0, 53, 0
2, 3096, Note_on_c, 0, 55, 75
2, 3096, Note_on_c, 0, 51, 75
2, 3119, Note_on_c, 0, 55, 0
2, 3119, Note_on_c, 0, 51, 0
2, 3120, Note_on_c, 0, 55, 75
2, 3120, Note_on_c, 0, 51, 75
2, 3143, Note_on_c, 0, 55, 0
2, 3143, Note_on_c, 0, 51, 0
2, 3144, Note_on_c, 0, 53, 75
2, 3144, Note_on_c, 0, 50, 75
2, 3167, Note_on_c, 0, 53, 0
2, 3167, Note_on_c, 0, 50, 0
2, 3168, Note_on_c, 0, 55, 75
2, 3168, Note_on_c, 0, 51, 75
2, 3213, Note_on_c, 0, 55, 0
2, 3213, Note_on_c, 0, 51, 0
2, 3216, Note_on_c, 0, 68, 91
2, 3216, Note_on_c, 0, 65, 91
2, 3312, Note_on_c, 0, 68, 0
2, 3312, Note_on_c, 0, 65, 0
2, 3312, Note_on_c, 0, 67, 77
2, 3312, Note_on_c, 0, 63, 77
2, 3401, Note_on_c, 0, 67, 0
2, 3401, Note_on_c, 0, 63, 0
2, 3408, Note_on_c, 0, 65, 79
2, 3408, Note_on_c, 0, 62, 79
2, 3453, Note_on_c, 0, 65, 0
2, 3453, Note_on_c, 0, 62, 0
2, 3456, Note_on_c, 0, 63, 80
2, 3523, Note_on_c, 0, 63, 0
2, 3528, Note_on_c, 0, 69, 80
2, 3551, Note_on_c, 0, 69, 0
2, 3552, Note_on_c, 0, 69, 80
2, 3558, Note_on_c, 0, 69, 0
2, 3558, Note_on_c, 0, 70, 80
2, 3564, Note_on_c, 0, 70, 0
2, 3564, Note_on_c, 0, 69, 80
2, 3570, Note_on_c, 0, 69, 0
2, 3570, Note_on_c, 0, 67, 80
2, 3576, Note_on_c, 0, 67, 0
2, 3576, Note_on_c, 0, 69, 80
2, 3729, Note_on_c, 0, 69, 0
2, 3744, Note_on_c, 0, 84, 75
2, 3767, Note_on_c, 0, 84, 0
2, 3768, Note_on_c, 0, 81, 75
2, 3791, Note_on_c, 0, 81, 0
2, 3792, Note_on_c, 0, 77, 75
2, 3815, Note_on_c, 0, 77, 0
2, 3816, Note_on_c, 0, 75, 75
2, 3839, Note_on_c, 0, 75, 0
2, 3840, Note_on_c, 0, 74, 75
2, 3863, Note_on_c, 0, 74, 0
2, 3864, Note_on_c, 0, 82, 75
2, 3874, Note_on_c, 0, 82, 0
2, 3888, Note_on_c, 0, 78, 75
2, 3912, Note_on_c, 0, 78, 0
2, 3912, Note_on_c, 0, 79, 75
2, 3935, Note_on_c, 0, 79, 0
2, 3936, Note_on_c, 0, 72, 75
2, 3959, Note_on_c, 0, 72, 0
2, 3960, Note_on_c, 0, 74, 75
2, 3983, Note_on_c, 0, 74, 0
2, 3984, Note_on_c, 0, 75, 75
2, 4007, Note_on_c, 0, 75, 0
2, 4008, Note_on_c, 0, 74, 75
2, 4031, Note_on_c, 0, 74, 0
2, 4032, Note_on_c, 0, 75, 75
2, 4077, Note_on_c, 0, 75, 0
2, 4080, Note_on_c, 0, 84, 91
2, 4176, Note_on_c, 0, 84, 0
2, 4176, Note_on_c, 0, 81, 75
2, 4200, Note_on_c, 0, 81, 0
2, 4200, Note_on_c, 0, 82, 75
2, 4223, Note_on_c, 0, 82, 0
2, 4224, Note_on_c, 0, 75, 75
2, 4224, Note_on_c, 0, 74, 75
2, 4269, Note_on_c, 0, 75, 0
2, 4269, Note_on_c, 0, 74, 0
2, 4272, Note_on_c, 0, 75, 75
2, 4272, Note_on_c, 0, 72, 75
2, 4272, Note_on_c, 0, 67, 75
2, 4365, Note_on_c, 0, 75, 0
2, 4365, Note_on_c, 0, 72, 0
2, 4365, Note_on_c, 0, 67, 0
2, 4368, Note_on_c, 0, 75, 75
2, 4368, Note_on_c, 0, 72, 75
2, 4368, Note_on_c, 0, 67, 75
2, 4457, Note_on_c, 0, 75, 0
2, 4457, Note_on_c, 0, 72, 0
2, 4457, Note_on_c, 0, 67, 0
2, 4464, Note_on_c, 0, 75, 77
2, 4464, Note_on_c, 0, 72, 77
2, 4464, Note_on_c, 0, 67, 77
2, 4553, Note_on_c, 0, 75, 0
2, 4553, Note_on_c, 0, 72, 0
2, 4553, Note_on_c, 0, 67, 0
2, 4560, Note_on_c, 0, 75, 79
2, 4560, Note_on_c, 0, 72, 79
2, 4560, Note_on_c, 0, 67, 79
2, 4605, Note_on_c, 0, 75, 0
2, 4605, Note_on_c, 0, 72, 0
2, 4605, Note_on_c, 0, 67, 0
2, 4608, Note_on_c, 0, 65, 80
2, 4614, Note_on_c, 0, 69, 80
2, 4620, Note_on_c, 0, 72, 80
2, 4626, Note_on_c, 0, 75, 80
2, 4679, Note_on_c, 0, 75, 0
2, 4679, Note_on_c, 0, 72, 0
2, 4679, Note_on_c, 0, 69, 0
2, 4679, Note_on_c, 0, 65, 0
2, 4680, Note_on_c, 0, 72, 75
2, 4703, Note_on_c, 0, 72, 0
2, 4704, Note_on_c, 0, 74, 76
2, 4719, Note_on_c, 0, 74, 0
2, 4720, Note_on_c, 0, 72, 77
2, 4735, Note_on_c, 0, 72, 0
2, 4736, Note_on_c, 0, 74, 78
2, 4751, Note_on_c, 0, 74, 0
2, 4752, Note_on_c, 0, 75, 79
2, 4767, Note_on_c, 0, 75, 0
2, 4768, Note_on_c, 0, 74, 80
2, 4783, Note_on_c, 0, 74, 0
2, 4784, Note_on_c, 0, 72, 79
2, 4799, Note_on_c, 0, 72, 0
2, 4800, Note_on_c, 0, 70, 79
2, 4845, Note_on_c, 0, 70, 0
2, 4848, Note_on_c, 0, 69, 77
2, 4854, Note_on_c, 0, 69, 0
2, 4854, Note_on_c, 0, 70, 77
2, 4860, Note_on_c, 0, 70, 0
2, 4860, Note_on_c, 0, 69, 77
2, 4893, Note_on_c, 0, 69, 0
2, 4896, Note_on_c, 0, 70, 75
2, 4920, Note_on_c, 0, 70, 0
2, 4920, Note_on_c, 0, 64, 75
2, 4943, Note_on_c, 0, 64, 0
2, 4944, Note_on_c, 0, 64, 76
2, 4944, Note_on_c, 0, 60, 76
2, 4944, Note_on_c, 0, 58, 76
2, 4944, Note_on_c, 0, 55, 76
2, 5033, Note_on_c, 0, 64, 0
2, 5033, Note_on_c, 0, 60, 0
2, 5033, Note_on_c, 0, 58, 0
2, 5033, Note_on_c, 0, 55, 0
2, 5112, Note_on_c, 0, 67, 64
2, 5112, Note_on_c, 0, 63, 64
2, 5135, Note_on_c, 0, 67, 0
2, 5135, Note_on_c, 0, 63, 0
2, 5136, Note_on_c, 0, 65, 64
2, 5136, Note_on_c, 0, 62, 64
2, 5159, Note_on_c, 0, 65, 0
2, 5159, Note_on_c, 0, 62, 0
2, 5160, Note_on_c, 0, 63, 64
2, 5160, Note_on_c, 0, 60, 64
2, 5183, Note_on_c, 0, 63, 0
2, 5183, Note_on_c, 0, 60, 0
2, 5184, Note_on_c, 0, 62, 64
2, 5184, Note_on_c, 0, 58, 64
2, 5207, Note_on_c, 0, 62, 0
2, 5207, Note_on_c, 0, 58, 0
2, 5208, Note_on_c, 0, 89, 64
2, 5208, Note_on_c, 0, 86, 64
2, 5231, Note_on_c, 0, 89, 0
2, 5231, Note_on_c, 0, 86, 0
2, 5232, Note_on_c, 0, 87, 64
2, 5232, Note_on_c, 0, 84, 64
2, 5255, Note_on_c, 0, 87, 0
2, 5255, Note_on_c, 0, 84, 0
2, 5256, Note_on_c, 0, 86, 64
2, 5256, Note_on_c, 0, 82, 64
2, 5279, Note_on_c, 0, 86, 0
2, 5279, Note_on_c, 0, 82, 0
2, 5280, Note_on_c, 0, 84, 64
2, 5280, Note_on_c, 0, 81, 64
2, 5303, Note_on_c, 0, 84, 0
2, 5303, Note_on_c, 0, 81, 0
2, 5304, Note_on_c, 0, 82, 65
2, 5304, Note_on_c, 0, 79, 65
2, 5327, Note_on_c, 0, 82, 0
2, 5327, Note_on_c, 0, 79, 0
2, 5328, Note_on_c, 0, 81, 65
2, 5328, Note_on_c, 0, 77, 65
2, 5351, Note_on_c, 0, 81, 0
2, 5351, Note_on_c, 0, 77, 0
2, 5352, Note_on_c, 0, 79, 65
2, 5352, Note_on_c, 0, 75, 65
2, 5375, Note_on_c, 0, 79, 0
2, 5375, Note_on_c, 0, 75, 0
2, 5376, Note_on_c, 0, 77, 66
2, 5376, Note_on_c, 0, 74, 66
2, 5399, Note_on_c, 0, 77, 0
2, 5399, Note_on_c, 0, 74, 0
2, 5400, Note_on_c, 0, 75, 66
2, 5400, Note_on_c, 0, 72, 66
2, 5423, Note_on_c, 0, 75, 0
2, 5423, Note_on_c, 0, 72, 0
2, 5424, Note_on_c, 0, 74, 66
2, 5424, Note_on_c, 0, 70, 66
2, 5447, Note_on_c, 0, 74, 0
2, 5447, Note_on_c, 0, 70, 0
2, 5448, Note_on_c, 0, 72, 67
2, 5448, Note_on_c, 0, 69, 67
2, 5471, Note_on_c, 0, 72, 0
2, 5471, Note_on_c, 0, 69, 0
2, 5472, Note_on_c, 0, 70, 67
2, 5472, Note_on_c, 0, 67, 67
2, 5495, Note_on_c, 0, 70, 0
2, 5495, Note_on_c, 0, 67, 0
2, 5496, Note_on_c, 0, 69, 67
2, 5496, Note_on_c, 0, 65, 67
2, 5519, Note_on_c, 0, 69, 0
2, 5519, Note_on_c, 0, 65, 0
2, 5520, Note_on_c, 0, 67, 68
2, 5520, Note_on_c, 0, 63, 68
2, 5543, Note_on_c, 0, 67, 0
2, 5543, Note_on_c, 0, 63, 0
2, 5544, Note_on_c, 0, 65, 68
2, 5544, Note_on_c, 0, 62, 68
2, 5567, Note_on_c, 0, 65, 0
2, 5567, Note_on_c, 0, 62, 0
2, 5568, Note_on_c, 0, 63, 68
2, 5568, Note_on_c, 0, 60, 68
2, 5613, Note_on_c, 0, 63, 0
2, 5613, Note_on_c, 0, 60, 0
2, 5688, Note_on_c, 0, 82, 80
2, 5688, Note_on_c, 0, 70, 80
2, 5711, Note_on_c, 0, 82, 0
2, 5711, Note_on_c, 0, 70, 0
2, 5712, Note_on_c, 0, 81, 80
2, 5712, Note_on_c, 0, 69, 80
2, 5735, Note_on_c, 0, 81, 0
2, 5735, Note_on_c, 0, 69, 0
2, 5736, Note_on_c, 0, 79, 80
2, 5736, Note_on_c, 0, 67, 80
2, 5759, Note_on_c, 0, 79, 0
2, 5759, Note_on_c, 0, 67, 0
2, 5760, Note_on_c, 0, 77, 80
2, 5760, Note_on_c, 0, 65, 80
2, 5783, Note_on_c, 0, 77, 0
2, 5783, Note_on_c, 0, 65, 0
2, 5784, Note_on_c, 0, 78, 75
2, 5808, Note_on_c, 0, 78, 0
2, 5808, Note_on_c, 0, 79, 75
2, 5831, Note_on_c, 0, 79, 0
2, 5832, Note_on_c, 0, 74, 75
2, 5856, Note_on_c, 0, 74, 0
2, 5856, Note_on_c, 0, 75, 75
2, 5879, Note_on_c, 0, 75, 0
2, 5880, Note_on_c, 0, 76, 75
2, 5904, Note_on_c, 0, 76, 0
2, 5904, Note_on_c, 0, 77, 75
2, 5927, Note_on_c, 0, 77, 0
2, 5928, Note_on_c, 0, 72, 75
2, 5952, Note_on_c, 0, 72, 0
2, 5952, Note_on_c, 0, 73, 75
2, 5975, Note_on_c, 0, 73, 0
2, 5976, Note_on_c, 0, 74, 75
2, 5999, Note_on_c, 0, 74, 0
2, 6000, Note_on_c, 0, 67, 75
2, 6023, Note_on_c, 0, 67, 0
2, 6024, Note_on_c, 0, 75, 75
2, 6047, Note_on_c, 0, 75, 0
2, 6048, Note_on_c, 0, 70, 75
2, 6048, Note_on_c, 0, 62, 75
2, 6071, Note_on_c, 0, 70, 0
2, 6071, Note_on_c, 0, 62, 0
2, 6072, Note_on_c, 0, 70, 75
2, 6072, Note_on_c, 0, 62, 75
2, 6117, Note_on_c, 0, 70, 0
2, 6117, Note_on_c, 0, 62, 0
2, 6120, Note_on_c, 0, 70, 76
2, 6120, Note_on_c, 0, 62, 76
2, 6165, Note_on_c, 0, 70, 0
2, 6165, Note_on_c, 0, 62, 0
2, 6168, Note_on_c, 0, 70, 77
2, 6168, Note_on_c, 0, 62, 77
2, 6191, Note_on_c, 0, 70, 0
2, 6191, Note_on_c, 0, 62, 0
2, 6192, Note_on_c, 0, 70, 77
2, 6192, Note_on_c, 0, 62, 77
2, 6325, Note_on_c, 0, 70, 0
2, 6325, Note_on_c, 0, 62, 0
2, 6336, Note_on_c, 0, 65, 80
2, 6359, Note_on_c, 0, 65, 0
2, 6360, Note_on_c, 0, 67, 80
2, 6372, Note_on_c, 0, 67, 0
2, 6372, Note_on_c, 0, 69, 80
2, 6384, Note_on_c, 0, 69, 0
2, 6384, Note_on_c, 0, 70, 80
2, 6396, Note_on_c, 0, 70, 0
2, 6396, Note_on_c, 0, 72, 80
2, 6408, Note_on_c, 0, 72, 0
2, 6408, Note_on_c, 0, 74, 80
2, 6420, Note_on_c, 0, 74, 0
2, 6420, Note_on_c, 0, 75, 80
2, 6432, Note_on_c, 0, 75, 0
2, 6432, Note_on_c, 0, 77, 80
2, 6444, Note_on_c, 0, 77, 0
2, 6444, Note_on_c, 0, 79, 80
2, 6456, Note_on_c, 0, 79, 0
2, 6456, Note_on_c, 0, 81, 80
2, 6468, Note_on_c, 0, 81, 0
2, 6468, Note_on_c, 0, 82, 80
2, 6480, Note_on_c, 0, 82, 0
2, 6480, Note_on_c, 0, 81, 80
2, 6492, Note_on_c, 0, 81, 0
2, 6492, Note_on_c, 0, 82, 80
2, 6504, Note_on_c, 0, 82, 0
2, 6504, Note_on_c, 0, 81, 80
2, 6516, Note_on_c, 0, 81, 0
2, 6516, Note_on_c, 0, 82, 80
2, 6528, Note_on_c, 0, 82, 0
2, 6528, Note_on_c, 0, 74, 80
2, 6544, Note_on_c, 0, 74, 0
2, 6544, Note_on_c, 0, 72, 80
2, 6552, Note_on_c, 0, 72, 0
2, 6552, Note_on_c, 0, 74, 80
2, 6560, Note_on_c, 0, 74, 0
2, 6560, Note_on_c, 0, 72, 80
2, 6568, Note_on_c, 0, 72, 0
2, 6568, Note_on_c, 0, 74, 80
2, 6576, Note_on_c, 0, 74, 0
2, 6576, Note_on_c, 0, 72, 80
2, 6584, Note_on_c, 0, 72, 0
2, 6584, Note_on_c, 0, 74, 80
2, 6592, Note_on_c, 0, 74, 0
2, 6592, Note_on_c, 0, 72, 80
2, 6600, Note_on_c, 0, 72, 0
2, 6600, Note_on_c, 0, 74, 80
2, 6608, Note_on_c, 0, 74, 0
2, 6608, Note_on_c, 0, 72, 80
2, 6616, Note_on_c, 0, 72, 0
2, 6616, Note_on_c, 0, 74, 80
2, 6624, Note_on_c, 0, 74, 0
2, 6624, Note_on_c, 0, 72, 80
2, 6632, Note_on_c, 0, 72, 0
2, 6632, Note_on_c, 0, 74, 80
2, 6640, Note_on_c, 0, 74, 0
2, 6640, Note_on_c, 0, 72, 80
2, 6648, Note_on_c, 0, 72, 0
2, 6648, Note_on_c, 0, 74, 80
2, 6656, Note_on_c, 0, 74, 0
2, 6656, Note_on_c, 0, 72, 80
2, 6664, Note_on_c, 0, 72, 0
2, 6664, Note_on_c, 0, 74, 80
2, 6671, Note_on_c, 0, 74, 0
2, 6671, Note_on_c, 0, 72, 80
2, 6678, Note_on_c, 0, 72, 0
2, 6678, Note_on_c, 0, 74, 80
2, 6685, Note_on_c, 0, 74, 0
2, 6685, Note_on_c, 0, 72, 80
2, 6692, Note_on_c, 0, 72, 0
2, 6692, Note_on_c, 0, 70, 80
2, 6706, Note_on_c, 0, 70, 0
2, 6706, Note_on_c, 0, 72, 80
2, 6720, Note_on_c, 0, 72, 0
2, 6720, Note_on_c, 0, 70, 80
2, 6743, Note_on_c, 0, 70, 0
2, 6744, Note_on_c, 0, 65, 78
2, 6744, Note_on_c, 0, 62, 78
2, 6767, Note_on_c, 0, 65, 0
2, 6767, Note_on_c, 0, 62, 0
2, 6768, Note_on_c, 0, 65, 77
2, 6768, Note_on_c, 0, 62, 77
2, 6792, Note_on_c, 0, 65, 0
2, 6792, Note_on_c, 0, 62, 0
2, 6792, Note_on_c, 0, 67, 76
2, 6792, Note_on_c, 0, 63, 76
2, 6815, Note_on_c, 0, 67, 0
2, 6815, Note_on_c, 0, 63, 0
2, 6816, Note_on_c, 0, 67, 74
2, 6816, Note_on_c, 0, 63, 74
2, 6840, Note_on_c, 0, 67, 0
2, 6840, Note_on_c, 0, 60, 73
2, 6863, Note_on_c, 0, 63, 0
2, 6863, Note_on_c, 0, 60, 0
2, 6864, Note_on_c, 0, 63, 72
2, 6864, Note_on_c, 0, 60, 72
2, 6888, Note_on_c, 0, 63, 0
2, 6888, Note_on_c, 0, 60, 0
2, 6888, Note_on_c, 0, 65, 70
2, 6888, Note_on_c, 0, 62, 70
2, 6911, Note_on_c, 0, 65, 0
2, 6911, Note_on_c, 0, 62, 0
2, 6912, Note_on_c, 0, 65, 69
2, 6912, Note_on_c, 0, 62, 69
2, 6936, Note_on_c, 0, 65, 0
2, 6936, Note_on_c, 0, 62, 0
2, 6936, Note_on_c, 0, 60, 68
2, 6936, Note_on_c, 0, 57, 68
2, 6959, Note_on_c, 0, 60, 0
2, 6959, Note_on_c, 0, 57, 0
2, 6960, Note_on_c, 0, 62, 66
2, 6960, Note_on_c, 0, 58, 66
2, 6984, Note_on_c, 0, 62, 0
2, 6984, Note_on_c, 0, 58, 0
2, 6984, Note_on_c, 0, 63, 65
2, 6984, Note_on_c, 0, 60, 65
2, 7007, Note_on_c, 0, 63, 0
2, 7007, Note_on_c, 0, 60, 0
2, 7008, Note_on_c, 0, 63, 64
2, 7008, Note_on_c, 0, 60, 64
2, 7008, Note_on_c, 0, 57, 64
2, 7104, Note_on_c, 0, 63, 0
2, 7104, Note_on_c, 0, 60, 0
2, 7104, Note_on_c, 0, 57, 0
2, 7104, Note_on_c, 0, 62, 64
2, 7104, Note_on_c, 0, 58, 64
2, 7193, Note_on_c, 0, 62, 0
2, 7193, Note_on_c, 0, 58, 0
2, 7296, Note_on_c, 0, 58, 64
2, 7296, Note_on_c, 0, 55, 64
2, 7385, Note_on_c, 0, 58, 0
2, 7385, Note_on_c, 0, 55, 0
2, 7392, Note_on_c, 0, 63, 64
2, 7392, Note_on_c, 0, 60, 64
2, 7481, Note_on_c, 0, 63, 0
2, 7481, Note_on_c, 0, 60, 0
2, 7488, Note_on_c, 0, 62, 64
2, 7488, Note_on_c, 0, 58, 64
2, 7577, Note_on_c, 0, 62, 0
2, 7577, Note_on_c, 0, 58, 0
2, 7584, Note_on_c, 0, 60, 64
2, 7584, Note_on_c, 0, 56, 64
2, 7623, Note_on_c, 0, 60, 0
2, 7623, Note_on_c, 0, 56, 0
2, 7680, Note_on_c, 0, 58, 64
2, 7680, Note_on_c, 0, 55, 64
2, 7719, Note_on_c, 0, 58, 0
2, 7719, Note_on_c, 0, 55, 0
2, 7872, Note_on_c, 0, 65, 75
2, 7872, Note_on_c, 0, 62, 75
2, 7961, Note_on_c, 0, 65, 0
2, 7961, Note_on_c, 0, 62, 0
2, 7968, Note_on_c, 0, 67, 76
2, 7968, Note_on_c, 0, 63, 76
2, 8013, Note_on_c, 0, 67, 0
2, 8013, Note_on_c, 0, 63, 0
2, 8016, Note_on_c, 0, 68, 77
2, 8016, Note_on_c, 0, 65, 77
2, 8061, Note_on_c, 0, 68, 0
2, 8061, Note_on_c, 0, 65, 0
2, 8064, Note_on_c, 0, 70, 78
2, 8082, Note_on_c, 0, 70, 0
2, 8082, Note_on_c, 0, 68, 78
2, 8153, Note_on_c, 0, 68, 0
2, 8160, Note_on_c, 0, 67, 80
2, 8160, Note_on_c, 0, 63, 80
2, 8347, Note_on_c, 0, 67, 0
2, 8347, Note_on_c, 0, 63, 0
2, 8448, Note_on_c, 0, 65, 75
2, 8493, Note_on_c, 0, 65, 0
2, 8496, Note_on_c, 0, 72, 91
2, 8567, Note_on_c, 0, 72, 0
2, 8568, Note_on_c, 0, 70, 75
2, 8591, Note_on_c, 0, 70, 0
2, 8592, Note_on_c, 0, 68, 75
2, 8659, Note_on_c, 0, 68, 0
2, 8664, Note_on_c, 0, 67, 75
2, 8687, Note_on_c, 0, 67, 0
2, 8688, Note_on_c, 0, 65, 75
2, 8711, Note_on_c, 0, 65, 0
2, 8712, Note_on_c, 0, 63, 75
2, 8735, Note_on_c, 0, 63, 0
2, 8736, Note_on_c, 0, 62, 75
2, 8781, Note_on_c, 0, 62, 0
2, 8784, Note_on_c, 0, 70, 75
2, 8790, Note_on_c, 0, 70, 0
2, 8790, Note_on_c, 0, 72, 75
2, 8796, Note_on_c, 0, 72, 0
2, 8796, Note_on_c, 0, 70, 75
2, 8855, Note_on_c, 0, 70, 0
2, 8856, Note_on_c, 0, 68, 75
2, 8879, Note_on_c, 0, 68, 0
2, 8880, Note_on_c, 0, 67, 75
2, 8947, Note_on_c, 0, 67, 0
2, 8952, Note_on_c, 0, 65, 75
2, 8975, Note_on_c, 0, 65, 0
2, 8976, Note_on_c, 0, 63, 75
2, 8999, Note_on_c, 0, 63, 0
2, 9000, Note_on_c, 0, 62, 75
2, 9023, Note_on_c, 0, 62, 0
2, 9024, Note_on_c, 0, 60, 75
2, 9030, Note_on_c, 0, 60, 0
2, 9030, Note_on_c, 0, 62, 75
2, 9036, Note_on_c, 0, 62, 0
2, 9036, Note_on_c, 0, 60, 75
2, 9069, Note_on_c, 0, 60, 0
2, 9072, Note_on_c, 0, 68, 76
2, 9095, Note_on_c, 0, 68, 0
2, 9096, Note_on_c, 0, 67, 76
2, 9119, Note_on_c, 0, 67, 0
2, 9120, Note_on_c, 0, 65, 77
2, 9143, Note_on_c, 0, 65, 0
2, 9144, Note_on_c, 0, 63, 77
2, 9167, Note_on_c, 0, 63, 0
2, 9168, Note_on_c, 0, 62, 78
2, 9191, Note_on_c, 0, 62, 0
2, 9192, Note_on_c, 0, 60, 78
2, 9215, Note_on_c, 0, 60, 0
2, 9216, Note_on_c, 0, 58, 79
2, 9239, Note_on_c, 0, 58, 0
2, 9240, Note_on_c, 0, 62, 80
2, 9263, Note_on_c, 0, 62, 0
2, 9264, Note_on_c, 0, 63, 79
2, 9287, Note_on_c, 0, 63, 0
2, 9288, Note_on_c, 0, 55, 79
2, 9311, Note_on_c, 0, 55, 0
2, 9312, Note_on_c, 0, 58, 79
2, 9401, Note_on_c, 0, 58, 0
2, 9408, Note_on_c, 0, 56, 77
2, 9414, Note_on_c, 0, 56, 0
2, 9414, Note_on_c, 0, 58, 77
2, 9420, Note_on_c, 0, 58, 0
2, 9420, Note_on_c, 0, 56, 77
2, 9431, Note_on_c, 0, 56, 0
2, 9432, Note_on_c, 0, 55, 77
2, 9455, Note_on_c, 0, 55, 0
2, 9456, Note_on_c, 0, 56, 77
2, 9501, Note_on_c, 0, 56, 0
2, 9504, Note_on_c, 0, 55, 76
2, 9593, Note_on_c, 0, 55, 0
2, 9600, Note_on_c, 0, 60, 75
2, 9600, Note_on_c, 0, 56, 75
2, 9719, Note_on_c, 0, 60, 0
2, 9719, Note_on_c, 0, 56, 0
2, 9720, Note_on_c, 0, 56, 75
2, 9720, Note_on_c, 0, 53, 75
2, 9743, Note_on_c, 0, 56, 0
2, 9743, Note_on_c, 0, 53, 0
2, 9744, Note_on_c, 0, 56, 75
2, 9744, Note_on_c, 0, 53, 75
2, 9767, Note_on_c, 0, 56, 0
2, 9767, Note_on_c, 0, 53, 0
2, 9768, Note_on_c, 0, 60, 75
2, 9768, Note_on_c, 0, 56, 75
2, 9791, Note_on_c, 0, 60, 0
2, 9791, Note_on_c, 0, 56, 0
2, 9792, Note_on_c, 0, 60, 75
2, 9792, Note_on_c, 0, 56, 75
2, 9815, Note_on_c, 0, 60, 0
2, 9815, Note_on_c, 0, 56, 0
2, 9816, Note_on_c, 0, 56, 75
2, 9816, Note_on_c, 0, 53, 75
2, 9839, Note_on_c, 0, 56, 0
2, 9839, Note_on_c, 0, 53, 0
2, 9840, Note_on_c, 0, 56, 75
2, 9840, Note_on_c, 0, 53, 75
2, 9863, Note_on_c, 0, 56, 0
2, 9863, Note_on_c, 0, 53, 0
2, 9864, Note_on_c, 0, 60, 75
2, 9864, Note_on_c, 0, 56, 75
2, 9887, Note_on_c, 0, 60, 0
2, 9887, Note_on_c, 0, 56, 0
2, 9888, Note_on_c, 0, 58, 75
2, 9888, Note_on_c, 0, 55, 75
2, 10007, Note_on_c, 0, 58, 0
2, 10007, Note_on_c, 0, 55, 0
2, 10008, Note_on_c, 0, 55, 75
2, 10008, Note_on_c, 0, 51, 75
2, 10031, Note_on_c, 0, 55, 0
2, 10031, Note_on_c, 0, 51, 0
2, 10032, Note_on_c, 0, 55, 75
2, 10032, Note_on_c, 0, 51, 75
2, 10055, Note_on_c, 0, 55, 0
2, 10055, Note_on_c, 0, 51, 0
2, 10056, Note_on_c, 0, 58, 75
2, 10056, Note_on_c, 0, 55, 75
2, 10079, Note_on_c, 0, 58, 0
2, 10079, Note_on_c, 0, 55, 0
2, 10080, Note_on_c, 0, 58, 75
2, 10080, Note_on_c, 0, 55, 75
2, 10103, Note_on_c, 0, 58, 0
2, 10103, Note_on_c, 0, 55, 0
2, 10104, Note_on_c, 0, 55, 75
2, 10104, Note_on_c, 0, 51, 75
2, 10127, Note_on_c, 0, 55, 0
2, 10127, Note_on_c, 0, 51, 0
2, 10128, Note_on_c, 0, 55, 75
2, 10128, Note_on_c, 0, 51, 75
2, 10151, Note_on_c, 0, 55, 0
2, 10151, Note_on_c, 0, 51, 0
2, 10152, Note_on_c, 0, 58, 75
2, 10152, Note_on_c, 0, 55, 75
2, 10175, Note_on_c, 0, 58, 0
2, 10175, Note_on_c, 0, 55, 0
2, 10176, Note_on_c, 0, 56, 75
2, 10176, Note_on_c, 0, 53, 75
2, 10295, Note_on_c, 0, 56, 0
2, 10295, Note_on_c, 0, 53, 0
2, 10296, Note_on_c, 0, 53, 75
2, 10296, Note_on_c, 0, 50, 75
2, 10319, Note_on_c, 0, 53, 0
2, 10319, Note_on_c, 0, 50, 0
2, 10320, Note_on_c, 0, 53, 75
2, 10320, Note_on_c, 0, 50, 75
2, 10343, Note_on_c, 0, 53, 0
2, 10343, Note_on_c, 0, 50, 0
2, 10344, Note_on_c, 0, 56, 75
2, 10344, Note_on_c, 0, 53, 75
2, 10367, Note_on_c, 0, 56, 0
2, 10367, Note_on_c, 0, 53, 0
2, 10368, Note_on_c, 0, 56, 75
2, 10368, Note_on_c, 0, 53, 75
2, 10391, Note_on_c, 0, 56, 0
2, 10391, Note_on_c, 0, 53, 0
2, 10392, Note_on_c, 0, 55, 75
2, 10392, Note_on_c, 0, 51, 75
2, 10415, Note_on_c, 0, 55, 0
2, 10415, Note_on_c, 0, 51, 0
2, 10416, Note_on_c, 0, 55, 75
2, 10416, Note_on_c, 0, 51, 75
2, 10439, Note_on_c, 0, 55, 0
2, 10439, Note_on_c, 0, 51, 0
2, 10440, Note_on_c, 0, 53, 75
2, 10440, Note_on_c, 0, 50, 75
2, 10463, Note_on_c, 0, 53, 0
2, 10463, Note_on_c, 0, 50, 0
2, 10464, Note_on_c, 0, 55, 75
2, 10464, Note_on_c, 0, 51, 75
2, 10509, Note_on_c, 0, 55, 0
2, 10509, Note_on_c, 0, 51, 0
2, 10512, Note_on_c, 0, 68, 91
2, 10512, Note_on_c, 0, 65, 91
2, 10608, Note_on_c, 0, 68, 0
2, 10608, Note_on_c, 0, 65, 0
2, 10608, Note_on_c, 0, 67, 77
2, 10608, Note_on_c, 0, 63, 77
2, 10697, Note_on_c, 0, 67, 0
2, 10697, Note_on_c, 0, 63, 0
2, 10704, Note_on_c, 0, 65, 79
2, 10704, Note_on_c, 0, 62, 79
2, 10749, Note_on_c, 0, 65, 0
2, 10749, Note_on_c, 0, 62, 0
2, 10752, Note_on_c, 0, 63, 80
2, 10819, Note_on_c, 0, 63, 0
2, 10824, Note_on_c, 0, 69, 80
2, 10847, Note_on_c, 0, 69, 0
2, 10848, Note_on_c, 0, 69, 80
2, 10854, Note_on_c, 0, 69, 0
2, 10854, Note_on_c, 0, 70, 80
2, 10860, Note_on_c, 0, 70, 0
2, 10860, Note_on_c, 0, 69, 80
2, 10866, Note_on_c, 0, 69, 0
2, 10866, Note_on_c, 0, 67, 80
2, 10872, Note_on_c, 0, 67, 0
2, 10872, Note_on_c, 0, 69, 80
2, 11025, Note_on_c, 0, 69, 0
2, 11040, Note_on_c, 0, 84, 75
2, 11063, Note_on_c, 0, 84, 0
2, 11064, Note_on_c, 0, 81, 75
2, 11087, Note_on_c, 0, 81, 0
2, 11088, Note_on_c, 0, 77, 75
2, 11111, Note_on_c, 0, 77, 0
2, 11112, Note_on_c, 0, 75, 75
2, 11135, Note_on_c, 0, 75, 0
2, 11136, Note_on_c, 0, 74, 75
2, 11159, Note_on_c, 0, 74, 0
2, 11160, Note_on_c, 0, 82, 75
2, 11170, Note_on_c, 0, 82, 0
2, 11184, Note_on_c, 0, 78, 75
2, 11208, Note_on_c, 0, 78, 0
2, 11208, Note_on_c, 0, 79, 75
2, 11231, Note_on_c, 0, 79, 0
2, 11232, Note_on_c, 0, 72, 75
2, 11255, Note_on_c, 0, 72, 0
2, 11256, Note_on_c, 0, 74, 75
2, 11279, Note_on_c, 0, 74, 0
2, 11280, Note_on_c, 0, 75, 75
2, 11303, Note_on_c, 0, 75, 0
2, 11304, Note_on_c, 0, 74, 75
2, 11327, Note_on_c, 0, 74, 0
2, 11328, Note_on_c, 0, 75, 75
2, 11373, Note_on_c, 0, 75, 0
2, 11376, Note_on_c, 0, 84, 91
2, 11472, Note_on_c, 0, 84, 0
2, 11472, Note_on_c, 0, 81, 75
2, 11496, Note_on_c, 0, 81, 0
2, 11496, Note_on_c, 0, 82, 75
2, 11519, Note_on_c, 0, 82, 0
2, 11520, Note_on_c, 0, 75, 75
2, 11520, Note_on_c, 0, 74, 75
2, 11565, Note_on_c, 0, 75, 0
2, 11565, Note_on_c, 0, 74, 0
2, 11568, Note_on_c, 0, 75, 75
2, 11568, Note_on_c, 0, 72, 75
2, 11568, Note_on_c, 0, 67, 75
2, 11661, Note_on_c, 0, 75, 0
2, 11661, Note_on_c, 0, 72, 0
2, 11661, Note_on_c, 0, 67, 0
2, 11664, Note_on_c, 0, 75, 75
2, 11664, Note_on_c, 0, 72, 75
2, 11664, Note_on_c, 0, 67, 75
2, 11753, Note_on_c, 0, 75, 0
2, 11753, Note_on_c, 0, 72, 0
2, 11753, Note_on_c, 0, 67, 0
2, 11760, Note_on_c, 0, 75, 77
2, 11760, Note_on_c, 0, 72, 77
2, 11760, Note_on_c, 0, 67, 77
2, 11849, Note_on_c, 0, 75, 0
2, 11849, Note_on_c, 0, 72, 0
2, 11849, Note_on_c, 0, 67, 0
2, 11856, Note_on_c, 0, 75, 79
2, 11856, Note_on_c, 0, 72, 79
2, 11856, Note_on_c, 0, 67, 79
2, 11901, Note_on_c, 0, 75, 0
2, 11901, Note_on_c, 0, 72, 0
2, 11901, Note_on_c, 0, 67, 0
2, 11904, Note_on_c, 0, 65, 80
2, 11910, Note_on_c, 0, 69, 80
2, 11916, Note_on_c, 0, 72, 80
2, 11922, Note_on_c, 0, 75, 80
2, 11975, Note_on_c, 0, 75, 0
2, 11975, Note_on_c, 0, 72, 0
2, 11975, Note_on_c, 0, 69, 0
2, 11975, Note_on_c, 0, 65, 0
2, 11976, Note_on_c, 0, 72, 75
2, 11999, Note_on_c, 0, 72, 0
2, 12000, Note_on_c, 0, 74, 76
2, 12015, Note_on_c, 0, 74, 0
2, 12016, Note_on_c, 0, 72, 77
2, 12031, Note_on_c, 0, 72, 0
2, 12032, Note_on_c, 0, 74, 78
2, 12047, Note_on_c, 0, 74, 0
2, 12048, Note_on_c, 0, 75, 79
2, 12063, Note_on_c, 0, 75, 0
2, 12064, Note_on_c, 0, 74, 80
2, 12079, Note_on_c, 0, 74, 0
2, 12080, Note_on_c, 0, 72, 79
2, 12095, Note_on_c, 0, 72, 0
2, 12096, Note_on_c, 0, 70, 79
2, 12141, Note_on_c, 0, 70, 0
2, 12144, Note_on_c, 0, 69, 77
2, 12150, Note_on_c, 0, 69, 0
2, 12150, Note_on_c, 0, 70, 77
2, 12156, Note_on_c, 0, 70, 0
2, 12156, Note_on_c, 0, 69, 77
2, 12189, Note_on_c, 0, 69, 0
2, 12192, Note_on_c, 0, 70, 75
2, 12216, Note_on_c, 0, 70, 0
2, 12216, Note_on_c, 0, 64, 75
2, 12239, Note_on_c, 0, 64, 0
2, 12240, Note_on_c, 0, 64, 76
2, 12240, Note_on_c, 0, 60, 76
2, 12240, Note_on_c, 0, 58, 76
2, 12240, Note_on_c, 0, 55, 76
2, 12329, Note_on_c, 0, 64, 0
2, 12329, Note_on_c, 0, 60, 0
2, 12329, Note_on_c, 0, 58, 0
2, 12329, Note_on_c, 0, 55, 0
2, 12408, Note_on_c, 0, 67, 64
2, 12408, Note_on_c, 0, 63, 64
2, 12431, Note_on_c, 0, 67, 0
2, 12431, Note_on_c, 0, 63, 0
2, 12432, Note_on_c, 0, 65, 64
2, 12432, Note_on_c, 0, 62, 64
2, 12455, Note_on_c, 0, 65, 0
2, 12455, Note_on_c, 0, 62, 0
2, 12456, Note_on_c, 0, 63, 64
2, 12456, Note_on_c, 0, 60, 64
2, 12479, Note_on_c, 0, 63, 0
2, 12479, Note_on_c, 0, 60, 0
2, 12480, Note_on_c, 0, 62, 64
2, 12480, Note_on_c, 0, 58, 64
2, 12503, Note_on_c, 0, 62, 0
2, 12503, Note_on_c, 0, 58, 0
2, 12504, Note_on_c, 0, 89, 64
2, 12504, Note_on_c, 0, 86, 64
2, 12527, Note_on_c, 0, 89, 0
2, 12527, Note_on_c, 0, 86, 0
2, 12528, Note_on_c, 0, 87, 64
2, 12528, Note_on_c, 0, 84, 64
2, 12551, Note_on_c, 0, 87, 0
2, 12551, Note_on_c, 0, 84, 0
2, 12552, Note_on_c, 0, 86, 64
2, 12552, Note_on_c, 0, 82, 64
2, 12575, Note_on_c, 0, 86, 0
2, 12575, Note_on_c, 0, 82, 0
2, 12576, Note_on_c, 0, 84, 64
2, 12576, Note_on_c, 0, 81, 64
2, 12599, Note_on_c, 0, 84, 0
2, 12599, Note_on_c, 0, 81, 0
2, 12600, Note_on_c, 0, 82, 65
2, 12600, Note_on_c, 0, 79, 65
2, 12623, Note_on_c, 0, 82, 0
2, 12623, Note_on_c, 0, 79, 0
2, 12624, Note_on_c, 0, 81, 65
2, 12624, Note_on_c, 0, 77, 65
2, 12647, Note_on_c, 0, 81, 0
2, 12647, Note_on_c, 0, 77, 0
2, 12648, Note_on_c, 0, 79, 65
2, 12648, Note_on_c, 0, 75, 65
2, 12671, Note_on_c, 0, 79, 0
2, 12671, Note_on_c, 0, 75, 0
2, 12672, Note_on_c, 0, 77, 66
2, 12672, Note_on_c, 0, 74, 66
2, 12695, Note_on_c, 0, 77, 0
2, 12695, Note_on_c, 0, 74, 0
2, 12696, Note_on_c, 0, 75, 66
2, 12696, Note_on_c, 0, 72, 66
2, 12719, Note_on_c, 0, 75, 0
2, 12719, Note_on_c, 0, 72, 0
2, 12720, Note_on_c, 0, 74, 66
2, 12720, Note_on_c, 0, 70, 66
2, 12743, Note_on_c, 0, 74, 0
2, 12743, Note_on_c, 0, 70, 0
2, 12744, Note_on_c, 0, 72, 67
2, 12744, Note_on_c, 0, 69, 67
2, 12767, Note_on_c, 0, 72, 0
2, 12767, Note_on_c, 0, 69, 0
2, 12768, Note_on_c, 0, 70, 67
2, 12768, Note_on_c, 0, 67, 67
2, 12791, Note_on_c, 0, 70, 0
2, 12791, Note_on_c, 0, 67, 0
2, 12792, Note_on_c, 0, 69, 67
2, 12792, Note_on_c, 0, 65, 67
2, 12815, Note_on_c, 0, 69, 0
2, 12815, Note_on_c, 0, 65, 0
2, 12816, Note_on_c, 0, 67, 68
2, 12816, Note_on_c, 0, 63, 68
2, 12839, Note_on_c, 0, 67, 0
2, 12839, Note_on_c, 0, 63, 0
2, 12840, Note_on_c, 0, 65, 68
2, 12840, Note_on_c, 0, 62, 68
2, 12863, Note_on_c, 0, 65, 0
2, 12863, Note_on_c, 0, 62, 0
2, 12864, Note_on_c, 0, 63, 68
2, 12864, Note_on_c, 0, 60, 68
2, 12909, Note_on_c, 0, 63, 0
2, 12909, Note_on_c, 0, 60, 0
2, 12984, Note_on_c, 0, 82, 80
2, 12984, Note_on_c, 0, 70, 80
2, 13007, Note_on_c, 0, 82, 0
2, 13007, Note_on_c, 0, 70, 0
2, 13008, Note_on_c, 0, 81, 80
2, 13008, Note_on_c, 0, 69, 80
2, 13031, Note_on_c, 0, 81, 0
2, 13031, Note_on_c, 0, 69, 0
2, 13032, Note_on_c, 0, 79, 80
2, 13032, Note_on_c, 0, 67, 80
2, 13055, Note_on_c, 0, 79, 0
2, 13055, Note_on_c, 0, 67, 0
2, 13056, Note_on_c, 0, 77, 80
2, 13056, Note_on_c, 0, 65, 80
2, 13079, Note_on_c, 0, 77, 0
2, 13079, Note_on_c, 0, 65, 0
2, 13080, Note_on_c, 0, 78, 75
2, 13104, Note_on_c, 0, 78, 0
2, 13104, Note_on_c, 0, 79, 75
2, 13127, Note_on_c, 0, 79, 0
2, 13128, Note_on_c, 0, 74, 75
2, 13152, Note_on_c, 0, 74, 0
2, 13152, Note_on_c, 0, 75, 75
2, 13175, Note_on_c, 0, 75, 0
2, 13176, Note_on_c, 0, 76, 75
2, 13200, Note_on_c, 0, 76, 0
2, 13200, Note_on_c, 0, 77, 75
2, 13223, Note_on_c, 0, 77, 0
2, 13224, Note_on_c, 0, 72, 75
2, 13248, Note_on_c, 0, 72, 0
2, 13248, Note_on_c, 0, 73, 75
2, 13271, Note_on_c, 0, 73, 0
2, 13272, Note_on_c, 0, 74, 75
2, 13295, Note_on_c, 0, 74, 0
2, 13296, Note_on_c, 0, 67, 75
2, 13319, Note_on_c, 0, 67, 0
2, 13320, Note_on_c, 0, 75, 75
2, 13343, Note_on_c, 0, 75, 0
2, 13344, Note_on_c, 0, 70, 75
2, 13344, Note_on_c, 0, 62, 75
2, 13367, Note_on_c, 0, 70, 0
2, 13367, Note_on_c, 0, 62, 0
2, 13368, Note_on_c, 0, 70, 75
2, 13368, Note_on_c, 0, 62, 75
2, 13413, Note_on_c, 0, 70, 0
2, 13413, Note_on_c, 0, 62, 0
2, 13416, Note_on_c, 0, 70, 76
2, 13416, Note_on_c, 0, 62, 76
2, 13461, Note_on_c, 0, 70, 0
2, 13461, Note_on_c, 0, 62, 0
2, 13464, Note_on_c, 0, 70, 77
2, 13464, Note_on_c, 0, 62, 77
2, 13487, Note_on_c, 0, 70, 0
2, 13487, Note_on_c, 0, 62, 0
2, 13488, Note_on_c, 0, 70, 77
2, 13488, Note_on_c, 0, 62, 77
2, 13621, Note_on_c, 0, 70, 0
2, 13621, Note_on_c, 0, 62, 0
2, 13632, Note_on_c, 0, 65, 80
2, 13655, Note_on_c, 0, 65, 0
2, 13656, Note_on_c, 0, 67, 80
2, 13668, Note_on_c, 0, 67, 0
2, 13668, Note_on_c, 0, 69, 80
2, 13680, Note_on_c, 0, 69, 0
2, 13680, Note_on_c, 0, 70, 80
2, 13692, Note_on_c, 0, 70, 0
2, 13692, Note_on_c, 0, 72, 80
2, 13704, Note_on_c, 0, 72, 0
2, 13704, Note_on_c, 0, 74, 80
2, 13716, Note_on_c, 0, 74, 0
2, 13716, Note_on_c, 0, 75, 80
2, 13728, Note_on_c, 0, 75, 0
2, 13728, Note_on_c, 0, 77, 80
2, 13740, Note_on_c, 0, 77, 0
2, 13740, Note_on_c, 0, 79, 80
2, 13752, Note_on_c, 0, 79, 0
2, 13752, Note_on_c, 0, 81, 80
2, 13764, Note_on_c, 0, 81, 0
2, 13764, Note_on_c, 0, 82, 80
2, 13776, Note_on_c, 0, 82, 0
2, 13776, Note_on_c, 0, 81, 80
2, 13788, Note_on_c, 0, 81, 0
2, 13788, Note_on_c, 0, 82, 80
2, 13800, Note_on_c, 0, 82, 0
2, 13800, Note_on_c, 0, 81, 80
2, 13812, Note_on_c, 0, 81, 0
2, 13812, Note_on_c, 0, 82, 80
2, 13824, Note_on_c, 0, 82, 0
2, 13824, Note_on_c, 0, 74, 80
2, 13840, Note_on_c, 0, 74, 0
2, 13840, Note_on_c, 0, 72, 80
2, 13848, Note_on_c, 0, 72, 0
2, 13848, Note_on_c, 0, 74, 80
2, 13856, Note_on_c, 0, 74, 0
2, 13856, Note_on_c, 0, 72, 80
2, 13864, Note_on_c, 0, 72, 0
2, 13864, Note_on_c, 0, 74, 80
2, 13872, Note_on_c, 0, 74, 0
2, 13872, Note_on_c, 0, 72, 80
2, 13880, Note_on_c, 0, 72, 0
2, 13880, Note_on_c, 0, 74, 80
2, 13888, Note_on_c, 0, 74, 0
2, 13888, Note_on_c, 0, 72, 80
2, 13896, Note_on_c, 0, 72, 0
2, 13896, Note_on_c, 0, 74, 80
2, 13904, Note_on_c, 0, 74, 0
2, 13904, Note_on_c, 0, 72, 80
2, 13912, Note_on_c, 0, 72, 0
2, 13912, Note_on_c, 0, 74, 80
2, 13920, Note_on_c, 0, 74, 0
2, 13920, Note_on_c, 0, 72, 80
2, 13928, Note_on_c, 0, 72, 0
2, 13928, Note_on_c, 0, 74, 80
2, 13936, Note_on_c, 0, 74, 0
2, 13936, Note_on_c, 0, 72, 80
2, 13944, Note_on_c, 0, 72, 0
2, 13944, Note_on_c, 0, 74, 80
2, 13952, Note_on_c, 0, 74, 0
2, 13952, Note_on_c, 0, 72, 80
2, 13960, Note_on_c, 0, 72, 0
2, 13960, Note_on_c, 0, 74, 80
2, 13967, Note_on_c, 0, 74, 0
2, 13967, Note_on_c, 0, 72, 80
2, 13974, Note_on_c, 0, 72, 0
2, 13974, Note_on_c, 0, 74, 80
2, 13981, Note_on_c, 0, 74, 0
2, 13981, Note_on_c, 0, 72, 80
2, 13988, Note_on_c, 0, 72, 0
2, 13988, Note_on_c, 0, 70, 80
2, 14002, Note_on_c, 0, 70, 0
2, 14002, Note_on_c, 0, 72, 80
2, 14016, Note_on_c, 0, 72, 0
2, 14016, Note_on_c, 0, 70, 80
2, 14039, Note_on_c, 0, 70, 0
2, 14040, Note_on_c, 0, 65, 78
2, 14040, Note_on_c, 0, 62, 78
2, 14063, Note_on_c, 0, 65, 0
2, 14063, Note_on_c, 0, 62, 0
2, 14064, Note_on_c, 0, 65, 77
2, 14064, Note_on_c, 0, 62, 77
2, 14088, Note_on_c, 0, 65, 0
2, 14088, Note_on_c, 0, 62, 0
2, 14088, Note_on_c, 0, 67, 76
2, 14088, Note_on_c, 0, 63, 76
2, 14111, Note_on_c, 0, 67, 0
2, 14111, Note_on_c, 0, 63, 0
2, 14112, Note_on_c, 0, 67, 74
2, 14112, Note_on_c, 0, 63, 74
2, 14136, Note_on_c, 0, 67, 0
2, 14136, Note_on_c, 0, 60, 73
2, 14159, Note_on_c, 0, 63, 0
2, 14159, Note_on_c, 0, 60, 0
2, 14160, Note_on_c, 0, 63, 72
2, 14160, Note_on_c, 0, 60, 72
2, 14184, Note_on_c, 0, 63, 0
2, 14184, Note_on_c, 0, 60, 0
2, 14184, Note_on_c, 0, 65, 70
2, 14184, Note_on_c, 0, 62, 70
2, 14207, Note_on_c, 0, 65, 0
2, 14207, Note_on_c, 0, 62, 0
2, 14208, Note_on_c, 0, 65, 69
2, 14208, Note_on_c, 0, 62, 69
2, 14232, Note_on_c, 0, 65, 0
2, 14232, Note_on_c, 0, 62, 0
2, 14232, Note_on_c, 0, 60, 68
2, 14232, Note_on_c, 0, 57, 68
2, 14255, Note_on_c, 0, 60, 0
2, 14255, Note_on_c, 0, 57, 0
2, 14256, Note_on_c, 0, 62, 66
2, 14256, Note_on_c, 0, 58, 66
2, 14280, Note_on_c, 0, 62, 0
2, 14280, Note_on_c, 0, 58, 0
2, 14280, Note_on_c, 0, 63, 65
2, 14280, Note_on_c, 0, 60, 65
2, 14303, Note_on_c, 0, 63, 0
2, 14303, Note_on_c, 0, 60, 0
2, 14304, Note_on_c, 0, 63, 64
2, 14304, Note_on_c, 0, 60, 64
2, 14304, Note_on_c, 0, 57, 64
2, 14400, Note_on_c, 0, 63, 0
2, 14400, Note_on_c, 0, 60, 0
2, 14400, Note_on_c, 0, 57, 0
2, 14400, Note_on_c, 0, 62, 64
2, 14400, Note_on_c, 0, 58, 64
2, 14489, Note_on_c, 0, 62, 0
2, 14489, Note_on_c, 0, 58, 0
2, 14880, Note_on_c, 0, 71, 75
2, 14947, Note_on_c, 0, 71, 0
2, 14952, Note_on_c, 0, 72, 75
2, 14964, Note_on_c, 0, 72, 0
2, 14964, Note_on_c, 0, 74, 75
2, 14976, Note_on_c, 0, 74, 0
2, 14976, Note_on_c, 0, 72, 75
2, 15065, Note_on_c, 0, 72, 0
2, 15408, Note_on_c, 0, 77, 75
2, 15453, Note_on_c, 0, 77, 0
2, 15480, Note_on_c, 0, 76, 75
2, 15503, Note_on_c, 0, 76, 0
2, 15504, Note_on_c, 0, 77, 75
2, 15527, Note_on_c, 0, 77, 0
2, 15528, Note_on_c, 0, 79, 75
2, 15551, Note_on_c, 0, 79, 0
2, 15552, Note_on_c, 0, 80, 75
2, 15575, Note_on_c, 0, 80, 0
2, 15576, Note_on_c, 0, 77, 75
2, 15599, Note_on_c, 0, 77, 0
2, 15600, Note_on_c, 0, 76, 75
2, 15623, Note_on_c, 0, 76, 0
2, 15624, Note_on_c, 0, 77, 75
2, 15647, Note_on_c, 0, 77, 0
2, 15648, Note_on_c, 0, 72, 75
2, 15671, Note_on_c, 0, 72, 0
2, 15672, Note_on_c, 0, 77, 75
2, 15695, Note_on_c, 0, 77, 0
2, 15696, Note_on_c, 0, 76, 75
2, 15719, Note_on_c, 0, 76, 0
2, 15720, Note_on_c, 0, 77, 75
2, 15743, Note_on_c, 0, 77, 0
2, 15744, Note_on_c, 0, 73, 75
2, 15767, Note_on_c, 0, 73, 0
2, 15768, Note_on_c, 0, 77, 75
2, 15791, Note_on_c, 0, 77, 0
2, 15792, Note_on_c, 0, 76, 75
2, 15815, Note_on_c, 0, 76, 0
2, 15816, Note_on_c, 0, 77, 75
2, 15839, Note_on_c, 0, 77, 0
2, 15840, Note_on_c, 0, 72, 75
2, 15863, Note_on_c, 0, 72, 0
2, 15864, Note_on_c, 0, 77, 75
2, 15887, Note_on_c, 0, 77, 0
2, 15888, Note_on_c, 0, 76, 75
2, 15911, Note_on_c, 0, 76, 0
2, 15912, Note_on_c, 0, 77, 75
2, 15935, Note_on_c, 0, 77, 0
2, 15936, Note_on_c, 0, 80, 75
2, 15959, Note_on_c, 0, 80, 0
2, 15960, Note_on_c, 0, 79, 75
2, 15983, Note_on_c, 0, 79, 0
2, 15984, Note_on_c, 0, 77, 75
2, 16007, Note_on_c, 0, 77, 0
2, 16008, Note_on_c, 0, 75, 75
2, 16031, Note_on_c, 0, 75, 0
2, 16032, Note_on_c, 0, 74, 75
2, 16055, Note_on_c, 0, 74, 0
2, 16056, Note_on_c, 0, 77, 75
2, 16079, Note_on_c, 0, 77, 0
2, 16080, Note_on_c, 0, 83, 75
2, 16103, Note_on_c, 0, 83, 0
2, 16104, Note_on_c, 0, 77, 75
2, 16127, Note_on_c, 0, 77, 0
2, 16128, Note_on_c, 0, 75, 75
2, 16151, Note_on_c, 0, 75, 0
2, 16152, Note_on_c, 0, 79, 75
2, 16175, Note_on_c, 0, 79, 0
2, 16176, Note_on_c, 0, 84, 75
2, 16199, Note_on_c, 0, 84, 0
2, 16200, Note_on_c, 0, 72, 75
2, 16223, Note_on_c, 0, 72, 0
2, 16224, Note_on_c, 0, 71, 75
2, 16247, Note_on_c, 0, 71, 0
2, 16248, Note_on_c, 0, 74, 75
2, 16271, Note_on_c, 0, 74, 0
2, 16272, Note_on_c, 0, 80, 75
2, 16295, Note_on_c, 0, 80, 0
2, 16296, Note_on_c, 0, 79, 75
2, 16319, Note_on_c, 0, 79, 0
2, 16320, Note_on_c, 0, 77, 75
2, 16343, Note_on_c, 0, 77, 0
2, 16344, Note_on_c, 0, 75, 75
2, 16367, Note_on_c, 0, 75, 0
2, 16368, Note_on_c, 0, 74, 75
2, 16391, Note_on_c, 0, 74, 0
2, 16392, Note_on_c, 0, 72, 75
2, 16415, Note_on_c, 0, 72, 0
2, 16416, Note_on_c, 0, 71, 75
2, 16439, Note_on_c, 0, 71, 0
2, 16440, Note_on_c, 0, 80, 75
2, 16463, Note_on_c, 0, 80, 0
2, 16464, Note_on_c, 0, 79, 75
2, 16487, Note_on_c, 0, 79, 0
2, 16488, Note_on_c, 0, 77, 75
2, 16511, Note_on_c, 0, 77, 0
2, 16512, Note_on_c, 0, 75, 75
2, 16535, Note_on_c, 0, 75, 0
2, 16536, Note_on_c, 0, 74, 75
2, 16559, Note_on_c, 0, 74, 0
2, 16560, Note_on_c, 0, 72, 75
2, 16583, Note_on_c, 0, 72, 0
2, 16584, Note_on_c, 0, 74, 75
2, 16584, Note_on_c, 0, 70, 75
2, 16607, Note_on_c, 0, 74, 0
2, 16607, Note_on_c, 0, 70, 0
2, 16608, Note_on_c, 0, 66, 75
2, 16614, Note_on_c, 0, 69, 75
2, 16620, Note_on_c, 0, 72, 75
2, 16626, Note_on_c, 0, 75, 75
2, 16701, Note_on_c, 0, 75, 0
2, 16701, Note_on_c, 0, 72, 0
2, 16701, Note_on_c, 0, 69, 0
2, 16701, Note_on_c, 0, 66, 0
2, 16752, Note_on_c, 0, 74, 75
2, 16775, Note_on_c, 0, 74, 0
2, 16776, Note_on_c, 0, 75, 75
2, 16799, Note_on_c, 0, 75, 0
2, 16800, Note_on_c, 0, 77, 75
2, 16823, Note_on_c, 0, 77, 0
2, 16824, Note_on_c, 0, 75, 75
2, 16847, Note_on_c, 0, 75, 0
2, 16848, Note_on_c, 0, 74, 75
2, 16871, Note_on_c, 0, 74, 0
2, 16872, Note_on_c, 0, 75, 75
2, 16895, Note_on_c, 0, 75, 0
2, 16896, Note_on_c, 0, 74, 75
2, 16896, Note_on_c, 0, 71, 75
2, 17073, Note_on_c, 0, 74, 0
2, 17073, Note_on_c, 0, 71, 0
2, 17184, Note_on_c, 0, 67, 64
2, 17184, Note_on_c, 0, 63, 64
2, 17303, Note_on_c, 0, 67, 0
2, 17303, Note_on_c, 0, 63, 0
2, 17304, Note_on_c, 0, 63, 64
2, 17304, Note_on_c, 0, 60, 64
2, 17327, Note_on_c, 0, 63, 0
2, 17327, Note_on_c, 0, 60, 0
2, 17328, Note_on_c, 0, 63, 64
2, 17328, Note_on_c, 0, 60, 64
2, 17351, Note_on_c, 0, 63, 0
2, 17351, Note_on_c, 0, 60, 0
2, 17352, Note_on_c, 0, 67, 64
2, 17352, Note_on_c, 0, 63, 64
2, 17375, Note_on_c, 0, 67, 0
2, 17375, Note_on_c, 0, 63, 0
2, 17376, Note_on_c, 0, 67, 64
2, 17376, Note_on_c, 0, 63, 64
2, 17399, Note_on_c, 0, 67, 0
2, 17399, Note_on_c, 0, 63, 0
2, 17400, Note_on_c, 0, 63, 64
2, 17400, Note_on_c, 0, 60, 64
2, 17423, Note_on_c, 0, 63, 0
2, 17423, Note_on_c, 0, 60, 0
2, 17424, Note_on_c, 0, 63, 64
2, 17424, Note_on_c, 0, 60, 64
2, 17447, Note_on_c, 0, 63, 0
2, 17447, Note_on_c, 0, 60, 0
2, 17448, Note_on_c, 0, 67, 64
2, 17448, Note_on_c, 0, 63, 64
2, 17471, Note_on_c, 0, 67, 0
2, 17471, Note_on_c, 0, 63, 0
2, 17472, Note_on_c, 0, 65, 64
2, 17472, Note_on_c, 0, 62, 64
2, 17591, Note_on_c, 0, 65, 0
2, 17591, Note_on_c, 0, 62, 0
2, 17592, Note_on_c, 0, 62, 64
2, 17592, Note_on_c, 0, 59, 64
2, 17615, Note_on_c, 0, 62, 0
2, 17615, Note_on_c, 0, 59, 0
2, 17616, Note_on_c, 0, 62, 64
2, 17616, Note_on_c, 0, 59, 64
2, 17639, Note_on_c, 0, 62, 0
2, 17639, Note_on_c, 0, 59, 0
2, 17640, Note_on_c, 0, 65, 64
2, 17640, Note_on_c, 0, 62, 64
2, 17663, Note_on_c, 0, 65, 0
2, 17663, Note_on_c, 0, 62, 0
2, 17664, Note_on_c, 0, 65, 64
2, 17664, Note_on_c, 0, 62, 64
2, 17687, Note_on_c, 0, 65, 0
2, 17687, Note_on_c, 0, 62, 0
2, 17688, Note_on_c, 0, 62, 64
2, 17688, Note_on_c, 0, 59, 64
2, 17711, Note_on_c, 0, 62, 0
2, 17711, Note_on_c, 0, 59, 0
2, 17712, Note_on_c, 0, 62, 64
2, 17712, Note_on_c, 0, 59, 64
2, 17735, Note_on_c, 0, 62, 0
2, 17735, Note_on_c, 0, 59, 0
2, 17736, Note_on_c, 0, 65, 64
2, 17736, Note_on_c, 0, 62, 64
2, 17759, Note_on_c, 0, 65, 0
2, 17759, Note_on_c, 0, 62, 0
2, 17760, Note_on_c, 0, 68, 64
2, 17760, Note_on_c, 0, 65, 64
2, 17879, Note_on_c, 0, 68, 0
2, 17879, Note_on_c, 0, 65, 0
2, 17880, Note_on_c, 0, 65, 64
2, 17880, Note_on_c, 0, 62, 64
2, 17903, Note_on_c, 0, 65, 0
2, 17903, Note_on_c, 0, 62, 0
2, 17904, Note_on_c, 0, 65, 64
2, 17904, Note_on_c, 0, 62, 64
2, 17927, Note_on_c, 0, 65, 0
2, 17927, Note_on_c, 0, 62, 0
2, 17928, Note_on_c, 0, 68, 64
2, 17928, Note_on_c, 0, 65, 64
2, 17951, Note_on_c, 0, 68, 0
2, 17951, Note_on_c, 0, 65, 0
2, 17952, Note_on_c, 0, 71, 64
2, 17952, Note_on_c, 0, 65, 64
2, 17975, Note_on_c, 0, 71, 0
2, 17975, Note_on_c, 0, 65, 0
2, 17976, Note_on_c, 0, 65, 64
2, 17976, Note_on_c, 0, 62, 64
2, 17999, Note_on_c, 0, 65, 0
2, 17999, Note_on_c, 0, 62, 0
2, 18000, Note_on_c, 0, 65, 64
2, 18000, Note_on_c, 0, 62, 64
2, 18023, Note_on_c, 0, 65, 0
2, 18023, Note_on_c, 0, 62, 0
2, 18024, Note_on_c, 0, 71, 64
2, 18024, Note_on_c, 0, 65, 64
2, 18047, Note_on_c, 0, 71, 0
2, 18047, Note_on_c, 0, 65, 0
2, 18048, Note_on_c, 0, 72, 64
2, 18048, Note_on_c, 0, 67, 64
2, 18071, Note_on_c, 0, 72, 0
2, 18071, Note_on_c, 0, 67, 0
2, 18072, Note_on_c, 0, 67, 64
2, 18072, Note_on_c, 0, 63, 64
2, 18095, Note_on_c, 0, 67, 0
2, 18095, Note_on_c, 0, 63, 0
2, 18096, Note_on_c, 0, 67, 65
2, 18096, Note_on_c, 0, 63, 65
2, 18119, Note_on_c, 0, 67, 0
2, 18119, Note_on_c, 0, 63, 0
2, 18120, Note_on_c, 0, 72, 65
2, 18120, Note_on_c, 0, 67, 65
2, 18143, Note_on_c, 0, 72, 0
2, 18143, Note_on_c, 0, 67, 0
2, 18144, Note_on_c, 0, 74, 66
2, 18144, Note_on_c, 0, 71, 66
2, 18167, Note_on_c, 0, 74, 0
2, 18167, Note_on_c, 0, 71, 0
2, 18168, Note_on_c, 0, 71, 67
2, 18168, Note_on_c, 0, 67, 67
2, 18191, Note_on_c, 0, 71, 0
2, 18191, Note_on_c, 0, 67, 0
2, 18192, Note_on_c, 0, 71, 67
2, 18192, Note_on_c, 0, 67, 67
2, 18215, Note_on_c, 0, 71, 0
2, 18215, Note_on_c, 0, 67, 0
2, 18216, Note_on_c, 0, 74, 68
2, 18216, Note_on_c, 0, 71, 68
2, 18239, Note_on_c, 0, 74, 0
2, 18239, Note_on_c, 0, 71, 0
2, 18240, Note_on_c, 0, 75, 68
2, 18240, Note_on_c, 0, 72, 68
2, 18263, Note_on_c, 0, 75, 0
2, 18263, Note_on_c, 0, 72, 0
2, 18264, Note_on_c, 0, 72, 69
2, 18264, Note_on_c, 0, 67, 69
2, 18287, Note_on_c, 0, 72, 0
2, 18287, Note_on_c, 0, 67, 0
2, 18288, Note_on_c, 0, 72, 70
2, 18288, Note_on_c, 0, 67, 70
2, 18311, Note_on_c, 0, 72, 0
2, 18311, Note_on_c, 0, 67, 0
2, 18312, Note_on_c, 0, 75, 70
2, 18312, Note_on_c, 0, 72, 70
2, 18335, Note_on_c, 0, 75, 0
2, 18335, Note_on_c, 0, 72, 0
2, 18336, Note_on_c, 0, 78, 71
2, 18336, Note_on_c, 0, 72, 71
2, 18359, Note_on_c, 0, 78, 0
2, 18359, Note_on_c, 0, 72, 0
2, 18360, Note_on_c, 0, 72, 71
2, 18360, Note_on_c, 0, 69, 71
2, 18383, Note_on_c, 0, 72, 0
2, 18383, Note_on_c, 0, 69, 0
2, 18384, Note_on_c, 0, 72, 72
2, 18384, Note_on_c, 0, 69, 72
2, 18407, Note_on_c, 0, 72, 0
2, 18407, Note_on_c, 0, 69, 0
2, 18408, Note_on_c, 0, 78, 73
2, 18408, Note_on_c, 0, 72, 73
2, 18431, Note_on_c, 0, 78, 0
2, 18431, Note_on_c, 0, 72, 0
2, 18432, Note_on_c, 0, 79, 73
2, 18432, Note_on_c, 0, 74, 73
2, 18455, Note_on_c, 0, 79, 0
2, 18455, Note_on_c, 0, 74, 0
2, 18456, Note_on_c, 0, 74, 74
2, 18456, Note_on_c, 0, 71, 74
2, 18479, Note_on_c, 0, 74, 0
2, 18479, Note_on_c, 0, 71, 0
2, 18480, Note_on_c, 0, 74, 75
2, 18480, Note_on_c, 0, 71, 75
2, 18503, Note_on_c, 0, 74, 0
2, 18503, Note_on_c, 0, 71, 0
2, 18504, Note_on_c, 0, 79, 75
2, 18504, Note_on_c, 0, 74, 75
2, 18527, Note_on_c, 0, 79, 0
2, 18527, Note_on_c, 0, 74, 0
2, 18528, Note_on_c, 0, 80, 76
2, 18528, Note_on_c, 0, 77, 76
2, 18551, Note_on_c, 0, 80, 0
2, 18551, Note_on_c, 0, 77, 0
2, 18552, Note_on_c, 0, 77, 76
2, 18552, Note_on_c, 0, 74, 76
2, 18575, Note_on_c, 0, 77, 0
2, 18575, Note_on_c, 0, 74, 0
2, 18576, Note_on_c, 0, 77, 77
2, 18576, Note_on_c, 0, 74, 77
2, 18599, Note_on_c, 0, 77, 0
2, 18599, Note_on_c, 0, 74, 0
2, 18600, Note_on_c, 0, 80, 78
2, 18600, Note_on_c, 0, 77, 78
2, 18623, Note_on_c, 0, 80, 0
2, 18623, Note_on_c, 0, 77, 0
2, 18624, Note_on_c, 0, 83, 78
2, 18624, Note_on_c, 0, 77, 78
2, 18647, Note_on_c, 0, 83, 0
2, 18647, Note_on_c, 0, 77, 0
2, 18648, Note_on_c, 0, 77, 79
2, 18648, Note_on_c, 0, 74, 79
2, 18671, Note_on_c, 0, 77, 0
2, 18671, Note_on_c, 0, 74, 0
2, 18672, Note_on_c, 0, 77, 79
2, 18672, Note_on_c, 0, 74, 79
2, 18695, Note_on_c, 0, 77, 0
2, 18695, Note_on_c, 0, 74, 0
2, 18696, Note_on_c, 0, 83, 80
2, 18696, Note_on_c, 0, 77, 80
2, 18719, Note_on_c, 0, 83, 0
2, 18719, Note_on_c, 0, 77, 0
2, 18720, Note_on_c, 0, 84, 81
2, 18720, Note_on_c, 0, 79, 81
2, 18743, Note_on_c, 0, 84, 0
2, 18743, Note_on_c, 0, 79, 0
2, 18744, Note_on_c, 0, 79, 81
2, 18744, Note_on_c, 0, 75, 81
2, 18767, Note_on_c, 0, 79, 0
2, 18767, Note_on_c, 0, 75, 0
2, 18768, Note_on_c, 0, 79, 82
2, 18768, Note_on_c, 0, 75, 82
2, 18791, Note_on_c, 0, 79, 0
2, 18791, Note_on_c, 0, 75, 0
2, 18792, Note_on_c, 0, 84, 82
2, 18792, Note_on_c, 0, 79, 82
2, 18815, Note_on_c, 0, 84, 0
2, 18815, Note_on_c, 0, 79, 0
2, 18816, Note_on_c, 0, 86, 83
2, 18816, Note_on_c, 0, 83, 83
2, 18839, Note_on_c, 0, 86, 0
2, 18839, Note_on_c, 0, 83, 0
2, 18840, Note_on_c, 0, 83, 84
2, 18840, Note_on_c, 0, 79, 84
2, 18863, Note_on_c, 0, 83, 0
2, 18863, Note_on_c, 0, 79, 0
2, 18864, Note_on_c, 0, 83, 84
2, 18864, Note_on_c, 0, 79, 84
2, 18887, Note_on_c, 0, 83, 0
2, 18887, Note_on_c, 0, 79, 0
2, 18888, Note_on_c, 0, 86, 85
2, 18888, Note_on_c, 0, 83, 85
2, 18911, Note_on_c, 0, 86, 0
2, 18911, Note_on_c, 0, 83, 0
2, 18912, Note_on_c, 0, 87, 86
2, 19031, Note_on_c, 0, 87, 0
2, 19032, Note_on_c, 0, 86, 86
2, 19055, Note_on_c, 0, 86, 0
2, 19056, Note_on_c, 0, 84, 86
2, 19079, Note_on_c, 0, 84, 0
2, 19080, Note_on_c, 0, 82, 86
2, 19103, Note_on_c, 0, 82, 0
2, 19104, Note_on_c, 0, 81, 86
2, 19127, Note_on_c, 0, 81, 0
2, 19128, Note_on_c, 0, 79, 86
2, 19151, Note_on_c, 0, 79, 0
2, 19152, Note_on_c, 0, 78, 86
2, 19175, Note_on_c, 0, 78, 0
2, 19176, Note_on_c, 0, 79, 86
2, 19199, Note_on_c, 0, 79, 0
2, 19200, Note_on_c, 0, 82, 86
2, 19200, Note_on_c, 0, 79, 86
2, 19239, Note_on_c, 0, 82, 0
2, 19239, Note_on_c, 0, 79, 0
2, 19296, Note_on_c, 0, 81, 86
2, 19296, Note_on_c, 0, 78, 86
2, 19335, Note_on_c, 0, 81, 0
2, 19335, Note_on_c, 0, 78, 0
2, 19488, Note_on_c, 0, 65, 75
2, 19488, Note_on_c, 0, 62, 75
2, 19577, Note_on_c, 0, 65, 0
2, 19577, Note_on_c, 0, 62, 0
2, 19584, Note_on_c, 0, 70, 75
2, 19584, Note_on_c, 0, 67, 75
2, 19673, Note_on_c, 0, 70, 0
2, 19673, Note_on_c, 0, 67, 0
2, 19680, Note_on_c, 0, 69, 75
2, 19680, Note_on_c, 0, 65, 75
2, 19769, Note_on_c, 0, 69, 0
2, 19769, Note_on_c, 0, 65, 0
2, 19776, Note_on_c, 0, 67, 75
2, 19776, Note_on_c, 0, 63, 75
2, 19815, Note_on_c, 0, 67, 0
2, 19815, Note_on_c, 0, 63, 0
2, 19872, Note_on_c, 0, 65, 75
2, 19872, Note_on_c, 0, 62, 75
2, 19911, Note_on_c, 0, 65, 0
2, 19911, Note_on_c, 0, 62, 0
2, 20064, Note_on_c, 0, 77, 64
2, 20064, Note_on_c, 0, 74, 64
2, 20153, Note_on_c, 0, 77, 0
2, 20153, Note_on_c, 0, 74, 0
2, 20160, Note_on_c, 0, 79, 64
2, 20160, Note_on_c, 0, 75, 64
2, 20205, Note_on_c, 0, 79, 0
2, 20205, Note_on_c, 0, 75, 0
2, 20208, Note_on_c, 0, 80, 64
2, 20208, Note_on_c, 0, 77, 64
2, 20345, Note_on_c, 0, 80, 0
2, 20345, Note_on_c, 0, 77, 0
2, 20352, Note_on_c, 0, 79, 64
2, 20352, Note_on_c, 0, 75, 64
2, 20529, Note_on_c, 0, 79, 0
2, 20529, Note_on_c, 0, 75, 0
2, 20640, Note_on_c, 0, 82, 75
2, 20640, Note_on_c, 0, 79, 75
2, 20729, Note_on_c, 0, 82, 0
2, 20729, Note_on_c, 0, 79, 0
2, 20736, Note_on_c, 0, 84, 76
2, 20736, Note_on_c, 0, 80, 76
2, 20781, Note_on_c, 0, 84, 0
2, 20781, Note_on_c, 0, 80, 0
2, 20784, Note_on_c, 0, 85, 77
2, 20784, Note_on_c, 0, 82, 77
2, 20829, Note_on_c, 0, 85, 0
2, 20829, Note_on_c, 0, 82, 0
2, 20832, Note_on_c, 0, 87, 78
2, 20850, Note_on_c, 0, 87, 0
2, 20850, Note_on_c, 0, 85, 78
2, 20921, Note_on_c, 0, 85, 0
2, 20928, Note_on_c, 0, 84, 70
2, 20928, Note_on_c, 0, 80, 70
2, 21115, Note_on_c, 0, 84, 0
2, 21115, Note_on_c, 0, 80, 0
2, 21216, Note_on_c, 0, 70, 75
2, 21261, Note_on_c, 0, 70, 0
2, 21264, Note_on_c, 0, 77, 75
2, 21335, Note_on_c, 0, 77, 0
2, 21336, Note_on_c, 0, 75, 75
2, 21359, Note_on_c, 0, 75, 0
2, 21360, Note_on_c, 0, 73, 75
2, 21427, Note_on_c, 0, 73, 0
2, 21432, Note_on_c, 0, 72, 75
2, 21455, Note_on_c, 0, 72, 0
2, 21456, Note_on_c, 0, 70, 75
2, 21479, Note_on_c, 0, 70, 0
2, 21480, Note_on_c, 0, 68, 75
2, 21503, Note_on_c, 0, 68, 0
2, 21504, Note_on_c, 0, 67, 75
2, 21549, Note_on_c, 0, 67, 0
2, 21552, Note_on_c, 0, 75, 75
2, 21623, Note_on_c, 0, 75, 0
2, 21624, Note_on_c, 0, 73, 75
2, 21647, Note_on_c, 0, 73, 0
2, 21648, Note_on_c, 0, 72, 75
2, 21715, Note_on_c, 0, 72, 0
2, 21720, Note_on_c, 0, 70, 75
2, 21743, Note_on_c, 0, 70, 0
2, 21744, Note_on_c, 0, 68, 75
2, 21767, Note_on_c, 0, 68, 0
2, 21768, Note_on_c, 0, 67, 75
2, 21791, Note_on_c, 0, 67, 0
2, 21792, Note_on_c, 0, 65, 75
2, 21798, Note_on_c, 0, 65, 0
2, 21798, Note_on_c, 0, 67, 75
2, 21804, Note_on_c, 0, 67, 0
2, 21804, Note_on_c, 0, 65, 75
2, 21837, Note_on_c, 0, 65, 0
2, 21840, Note_on_c, 0, 73, 74
2, 21863, Note_on_c, 0, 73, 0
2, 21864, Note_on_c, 0, 72, 73
2, 21887, Note_on_c, 0, 72, 0
2, 21888, Note_on_c, 0, 70, 73
2, 21911, Note_on_c, 0, 70, 0
2, 21912, Note_on_c, 0, 68, 72
2, 21935, Note_on_c, 0, 68, 0
2, 21936, Note_on_c, 0, 67, 72
2, 21959, Note_on_c, 0, 67, 0
2, 21960, Note_on_c, 0, 65, 72
2, 21983, Note_on_c, 0, 65, 0
2, 21984, Note_on_c, 0, 63, 71
2, 22007, Note_on_c, 0, 63, 0
2, 22008, Note_on_c, 0, 67, 71
2, 22031, Note_on_c, 0, 67, 0
2, 22032, Note_on_c, 0, 68, 70
2, 22055, Note_on_c, 0, 68, 0
2, 22056, Note_on_c, 0, 60, 70
2, 22079, Note_on_c, 0, 60, 0
2, 22080, Note_on_c, 0, 63, 70
2, 22169, Note_on_c, 0, 63, 0
2, 22176, Note_on_c, 0, 61, 67
2, 22182, Note_on_c, 0, 61, 0
2, 22182, Note_on_c, 0, 63, 67
2, 22188, Note_on_c, 0, 63, 0
2, 22188, Note_on_c, 0, 61, 67
2, 22199, Note_on_c, 0, 61, 0
2, 22200, Note_on_c, 0, 60, 67
2, 22223, Note_on_c, 0, 60, 0
2, 22224, Note_on_c, 0, 61, 66
2, 22269, Note_on_c, 0, 61, 0
2, 22272, Note_on_c, 0, 60, 65
2, 22319, Note_on_c, 0, 60, 0
2, 22320, Note_on_c, 0, 68, 80
2, 22326, Note_on_c, 0, 68, 0
2, 22326, Note_on_c, 0, 70, 80
2, 22332, Note_on_c, 0, 70, 0
2, 22332, Note_on_c, 0, 68, 80
2, 22380, Note_on_c, 0, 68, 0
2, 22380, Note_on_c, 0, 67, 64
2, 22392, Note_on_c, 0, 67, 0
2, 22392, Note_on_c, 0, 65, 64
2, 22404, Note_on_c, 0, 65, 0
2, 22404, Note_on_c, 0, 63, 64
2, 22416, Note_on_c, 0, 63, 0
2, 22416, Note_on_c, 0, 62, 64
2, 22505, Note_on_c, 0, 62, 0
2, 22584, Note_on_c, 0, 72, 75
2, 22584, Note_on_c, 0, 68, 75
2, 22607, Note_on_c, 0, 72, 0
2, 22607, Note_on_c, 0, 68, 0
2, 22608, Note_on_c, 0, 70, 75
2, 22608, Note_on_c, 0, 67, 75
2, 22631, Note_on_c, 0, 70, 0
2, 22631, Note_on_c, 0, 67, 0
2, 22632, Note_on_c, 0, 68, 75
2, 22632, Note_on_c, 0, 65, 75
2, 22655, Note_on_c, 0, 68, 0
2, 22655, Note_on_c, 0, 65, 0
2, 22656, Note_on_c, 0, 67, 75
2, 22656, Note_on_c, 0, 63, 75
2, 22679, Note_on_c, 0, 67, 0
2, 22679, Note_on_c, 0, 63, 0
2, 22680, Note_on_c, 0, 82, 75
2, 22680, Note_on_c, 0, 79, 75
2, 22703, Note_on_c, 0, 82, 0
2, 22703, Note_on_c, 0, 79, 0
2, 22704, Note_on_c, 0, 80, 75
2, 22704, Note_on_c, 0, 77, 75
2, 22727, Note_on_c, 0, 80, 0
2, 22727, Note_on_c, 0, 77, 0
2, 22728, Note_on_c, 0, 79, 75
2, 22728, Note_on_c, 0, 75, 75
2, 22751, Note_on_c, 0, 79, 0
2, 22751, Note_on_c, 0, 75, 0
2, 22752, Note_on_c, 0, 77, 75
2, 22752, Note_on_c, 0, 74, 75
2, 22775, Note_on_c, 0, 77, 0
2, 22775, Note_on_c, 0, 74, 0
2, 22776, Note_on_c, 0, 75, 76
2, 22776, Note_on_c, 0, 72, 76
2, 22799, Note_on_c, 0, 75, 0
2, 22799, Note_on_c, 0, 72, 0
2, 22800, Note_on_c, 0, 74, 76
2, 22800, Note_on_c, 0, 70, 76
2, 22823, Note_on_c, 0, 74, 0
2, 22823, Note_on_c, 0, 70, 0
2, 22824, Note_on_c, 0, 72, 76
2, 22824, Note_on_c, 0, 68, 76
2, 22847, Note_on_c, 0, 72, 0
2, 22847, Note_on_c, 0, 68, 0
2, 22848, Note_on_c, 0, 70, 76
2, 22848, Note_on_c, 0, 67, 76
2, 22871, Note_on_c, 0, 70, 0
2, 22871, Note_on_c, 0, 67, 0
2, 22872, Note_on_c, 0, 68, 77
2, 22872, Note_on_c, 0, 65, 77
2, 22895, Note_on_c, 0, 68, 0
2, 22895, Note_on_c, 0, 65, 0
2, 22896, Note_on_c, 0, 67, 77
2, 22896, Note_on_c, 0, 63, 77
2, 22919, Note_on_c, 0, 67, 0
2, 22919, Note_on_c, 0, 63, 0
2, 22920, Note_on_c, 0, 65, 77
2, 22920, Note_on_c, 0, 62, 77
2, 22943, Note_on_c, 0, 65, 0
2, 22943, Note_on_c, 0, 62, 0
2, 22944, Note_on_c, 0, 63, 77
2, 22944, Note_on_c, 0, 60, 77
2, 22967, Note_on_c, 0, 63, 0
2, 22967, Note_on_c, 0, 60, 0
2, 22968, Note_on_c, 0, 62, 78
2, 22968, Note_on_c, 0, 58, 78
2, 22991, Note_on_c, 0, 62, 0
2, 22991, Note_on_c, 0, 58, 0
2, 22992, Note_on_c, 0, 60, 78
2, 22992, Note_on_c, 0, 56, 78
2, 23015, Note_on_c, 0, 60, 0
2, 23015, Note_on_c, 0, 56, 0
2, 23016, Note_on_c, 0, 58, 78
2, 23016, Note_on_c, 0, 55, 78
2, 23039, Note_on_c, 0, 58, 0
2, 23039, Note_on_c, 0, 55, 0
2, 23040, Note_on_c, 0, 56, 78
2, 23052, Note_on_c, 0, 56, 0
2, 23052, Note_on_c, 0, 68, 94
2, 23159, Note_on_c, 0, 68, 0
2, 23160, Note_on_c, 0, 87, 80
2, 23160, Note_on_c, 0, 75, 80
2, 23183, Note_on_c, 0, 87, 0
2, 23183, Note_on_c, 0, 75, 0
2, 23184, Note_on_c, 0, 86, 80
2, 23184, Note_on_c, 0, 74, 80
2, 23207, Note_on_c, 0, 86, 0
2, 23207, Note_on_c, 0, 74, 0
2, 23208, Note_on_c, 0, 84, 80
2, 23208, Note_on_c, 0, 72, 80
2, 23231, Note_on_c, 0, 84, 0
2, 23231, Note_on_c, 0, 72, 0
2, 23232, Note_on_c, 0, 82, 80
2, 23232, Note_on_c, 0, 70, 80
2, 23255, Note_on_c, 0, 82, 0
2, 23255, Note_on_c, 0, 70, 0
2, 23256, Note_on_c, 0, 83, 75
2, 23280, Note_on_c, 0, 83, 0
2, 23280, Note_on_c, 0, 84, 75
2, 23303, Note_on_c, 0, 84, 0
2, 23304, Note_on_c, 0, 79, 75
2, 23328, Note_on_c, 0, 79, 0
2, 23328, Note_on_c, 0, 80, 75
2, 23351, Note_on_c, 0, 80, 0
2, 23352, Note_on_c, 0, 81, 75
2, 23376, Note_on_c, 0, 81, 0
2, 23376, Note_on_c, 0, 82, 75
2, 23399, Note_on_c, 0, 82, 0
2, 23400, Note_on_c, 0, 77, 75
2, 23424, Note_on_c, 0, 77, 0
2, 23424, Note_on_c, 0, 78, 75
2, 23447, Note_on_c, 0, 78, 0
2, 23448, Note_on_c, 0, 79, 76
2, 23471, Note_on_c, 0, 79, 0
2, 23472, Note_on_c, 0, 72, 77
2, 23495, Note_on_c, 0, 72, 0
2, 23496, Note_on_c, 0, 80, 78
2, 23519, Note_on_c, 0, 80, 0
2, 23520, Note_on_c, 0, 75, 80
2, 23520, Note_on_c, 0, 67, 80
2, 23543, Note_on_c, 0, 75, 0
2, 23543, Note_on_c, 0, 67, 0
2, 23544, Note_on_c, 0, 75, 80
2, 23544, Note_on_c, 0, 67, 80
2, 23589, Note_on_c, 0, 75, 0
2, 23589, Note_on_c, 0, 67, 0
2, 23592, Note_on_c, 0, 75, 80
2, 23592, Note_on_c, 0, 67, 80
2, 23637, Note_on_c, 0, 75, 0
2, 23637, Note_on_c, 0, 67, 0
2, 23640, Note_on_c, 0, 75, 80
2, 23640, Note_on_c, 0, 67, 80
2, 23663, Note_on_c, 0, 75, 0
2, 23663, Note_on_c, 0, 67, 0
2, 23664, Note_on_c, 0, 75, 80
2, 23664, Note_on_c, 0, 67, 80
2, 23797, Note_on_c, 0, 75, 0
2, 23797, Note_on_c, 0, 67, 0
2, 23808, Note_on_c, 0, 87, 75
2, 23831, Note_on_c, 0, 87, 0
2, 23832, Note_on_c, 0, 84, 75
2, 23855, Note_on_c, 0, 84, 0
2, 23856, Note_on_c, 0, 82, 75
2, 23879, Note_on_c, 0, 82, 0
2, 23880, Note_on_c, 0, 80, 75
2, 23903, Note_on_c, 0, 80, 0
2, 23904, Note_on_c, 0, 79, 75
2, 23927, Note_on_c, 0, 79, 0
2, 23928, Note_on_c, 0, 87, 75
2, 23951, Note_on_c, 0, 87, 0
2, 23952, Note_on_c, 0, 83, 75
2, 23976, Note_on_c, 0, 83, 0
2, 23976, Note_on_c, 0, 84, 75
2, 23999, Note_on_c, 0, 84, 0
2, 24000, Note_on_c, 0, 77, 75
2, 24023, Note_on_c, 0, 77, 0
2, 24024, Note_on_c, 0, 79, 75
2, 24047, Note_on_c, 0, 79, 0
2, 24048, Note_on_c, 0, 80, 75
2, 24071, Note_on_c, 0, 80, 0
2, 24072, Note_on_c, 0, 77, 75
2, 24095, Note_on_c, 0, 77, 0
2, 24096, Note_on_c, 0, 79, 75
2, 24141, Note_on_c, 0, 79, 0
2, 24144, Note_on_c, 0, 87, 91
2, 24215, Note_on_c, 0, 87, 0
2, 24216, Note_on_c, 0, 79, 75
2, 24239, Note_on_c, 0, 79, 0
2, 24240, Note_on_c, 0, 74, 75
2, 24264, Note_on_c, 0, 74, 0
2, 24264, Note_on_c, 0, 75, 75
2, 24287, Note_on_c, 0, 75, 0
2, 24288, Note_on_c, 0, 80, 75
2, 24288, Note_on_c, 0, 79, 75
2, 24288, Note_on_c, 0, 72, 75
2, 24333, Note_on_c, 0, 80, 0
2, 24333, Note_on_c, 0, 79, 0
2, 24333, Note_on_c, 0, 72, 0
2, 24336, Note_on_c, 0, 80, 75
2, 24336, Note_on_c, 0, 77, 75
2, 24336, Note_on_c, 0, 72, 75
2, 24429, Note_on_c, 0, 80, 0
2, 24429, Note_on_c, 0, 77, 0
2, 24429, Note_on_c, 0, 72, 0
2, 24432, Note_on_c, 0, 80, 75
2, 24432, Note_on_c, 0, 77, 75
2, 24432, Note_on_c, 0, 72, 75
2, 24521, Note_on_c, 0, 80, 0
2, 24521, Note_on_c, 0, 77, 0
2, 24521, Note_on_c, 0, 72, 0
2, 24528, Note_on_c, 0, 80, 75
2, 24528, Note_on_c, 0, 77, 75
2, 24528, Note_on_c, 0, 72, 75
2, 24617, Note_on_c, 0, 80, 0
2, 24617, Note_on_c, 0, 77, 0
2, 24617, Note_on_c, 0, 72, 0
2, 24624, Note_on_c, 0, 80, 75
2, 24624, Note_on_c, 0, 77, 75
2, 24624, Note_on_c, 0, 72, 75
2, 24669, Note_on_c, 0, 80, 0
2, 24669, Note_on_c, 0, 77, 0
2, 24669, Note_on_c, 0, 72, 0
2, 24672, Note_on_c, 0, 74, 75
2, 24680, Note_on_c, 0, 77, 75
2, 24688, Note_on_c, 0, 80, 75
2, 24743, Note_on_c, 0, 80, 0
2, 24743, Note_on_c, 0, 77, 0
2, 24743, Note_on_c, 0, 74, 0
2, 24744, Note_on_c, 0, 77, 75
2, 24767, Note_on_c, 0, 77, 0
2, 24768, Note_on_c, 0, 79, 75
2, 24783, Note_on_c, 0, 79, 0
2, 24784, Note_on_c, 0, 77, 75
2, 24799, Note_on_c, 0, 77, 0
2, 24800, Note_on_c, 0, 79, 75
2, 24815, Note_on_c, 0, 79, 0
2, 24816, Note_on_c, 0, 80, 75
2, 24831, Note_on_c, 0, 80, 0
2, 24832, Note_on_c, 0, 79, 75
2, 24847, Note_on_c, 0, 79, 0
2, 24848, Note_on_c, 0, 77, 75
2, 24863, Note_on_c, 0, 77, 0
2, 24864, Note_on_c, 0, 75, 75
2, 24909, Note_on_c, 0, 75, 0
2, 24912, Note_on_c, 0, 74, 75
2, 24918, Note_on_c, 0, 74, 0
2, 24918, Note_on_c, 0, 75, 75
2, 24924, Note_on_c, 0, 75, 0
2, 24924, Note_on_c, 0, 74, 75
2, 24957, Note_on_c, 0, 74, 0
2, 24960, Note_on_c, 0, 63, 75
2, 24975, Note_on_c, 0, 63, 0
2, 24976, Note_on_c, 0, 58, 75
2, 24991, Note_on_c, 0, 58, 0
2, 24992, Note_on_c, 0, 63, 75
2, 25007, Note_on_c, 0, 63, 0
2, 25008, Note_on_c, 0, 67, 75
2, 25023, Note_on_c, 0, 67, 0
2, 25024, Note_on_c, 0, 63, 75
2, 25039, Note_on_c, 0, 63, 0
2, 25040, Note_on_c, 0, 67, 75
2, 25055, Note_on_c, 0, 67, 0
2, 25056, Note_on_c, 0, 70, 76
2, 25071, Note_on_c, 0, 70, 0
2, 25072, Note_on_c, 0, 67, 76
2, 25087, Note_on_c, 0, 67, 0
2, 25088, Note_on_c, 0, 70, 76
2, 25103, Note_on_c, 0, 70, 0
2, 25104, Note_on_c, 0, 75, 76
2, 25119, Note_on_c, 0, 75, 0
2, 25120, Note_on_c, 0, 70, 76
2, 25135, Note_on_c, 0, 70, 0
2, 25136, Note_on_c, 0, 75, 76
2, 25151, Note_on_c, 0, 75, 0
2, 25152, Note_on_c, 0, 79, 77
2, 25167, Note_on_c, 0, 79, 0
2, 25168, Note_on_c, 0, 75, 77
2, 25183, Note_on_c, 0, 75, 0
2, 25184, Note_on_c, 0, 79, 77
2, 25199, Note_on_c, 0, 79, 0
2, 25200, Note_on_c, 0, 82, 77
2, 25215, Note_on_c, 0, 82, 0
2, 25216, Note_on_c, 0, 79, 77
2, 25231, Note_on_c, 0, 79, 0
2, 25232, Note_on_c, 0, 82, 78
2, 25247, Note_on_c, 0, 82, 0
2, 25248, Note_on_c, 0, 87, 78
2, 25293, Note_on_c, 0, 87, 0
2, 25296, Note_on_c, 0, 79, 80
2, 25341, Note_on_c, 0, 79, 0
2, 25344, Note_on_c, 0, 76, 80
2, 25359, Note_on_c, 0, 76, 0
2, 25360, Note_on_c, 0, 77, 79
2, 25375, Note_on_c, 0, 77, 0
2, 25376, Note_on_c, 0, 80, 79
2, 25391, Note_on_c, 0, 80, 0
2, 25392, Note_on_c, 0, 84, 79
2, 25407, Note_on_c, 0, 84, 0
2, 25408, Note_on_c, 0, 80, 78
2, 25423, Note_on_c, 0, 80, 0
2, 25424, Note_on_c, 0, 77, 78
2, 25439, Note_on_c, 0, 77, 0
2, 25440, Note_on_c, 0, 82, 78
2, 25455, Note_on_c, 0, 82, 0
2, 25456, Note_on_c, 0, 79, 77
2, 25471, Note_on_c, 0, 79, 0
2, 25472, Note_on_c, 0, 75, 77
2, 25487, Note_on_c, 0, 75, 0
2, 25488, Note_on_c, 0, 80, 77
2, 25503, Note_on_c, 0, 80, 0
2, 25504, Note_on_c, 0, 77, 76
2, 25519, Note_on_c, 0, 77, 0
2, 25520, Note_on_c, 0, 74, 76
2, 25535, Note_on_c, 0, 74, 0
2, 25536, Note_on_c, 0, 75, 80
2, 25559, Note_on_c, 0, 75, 0
2, 25560, Note_on_c, 0, 70, 78
2, 25560, Note_on_c, 0, 67, 78
2, 25583, Note_on_c, 0, 70, 0
2, 25583, Note_on_c, 0, 67, 0
2, 25584, Note_on_c, 0, 70, 77
2, 25584, Note_on_c, 0, 67, 77
2, 25608, Note_on_c, 0, 70, 0
2, 25608, Note_on_c, 0, 67, 0
2, 25608, Note_on_c, 0, 72, 76
2, 25608, Note_on_c, 0, 68, 76
2, 25631, Note_on_c, 0, 72, 0
2, 25631, Note_on_c, 0, 68, 0
2, 25632, Note_on_c, 0, 72, 74
2, 25632, Note_on_c, 0, 68, 74
2, 25656, Note_on_c, 0, 72, 0
2, 25656, Note_on_c, 0, 65, 73
2, 25679, Note_on_c, 0, 68, 0
2, 25679, Note_on_c, 0, 65, 0
2, 25680, Note_on_c, 0, 68, 72
2, 25680, Note_on_c, 0, 65, 72
2, 25704, Note_on_c, 0, 68, 0
2, 25704, Note_on_c, 0, 65, 0
2, 25704, Note_on_c, 0, 70, 70
2, 25704, Note_on_c, 0, 67, 70
2, 25727, Note_on_c, 0, 70, 0
2, 25727, Note_on_c, 0, 67, 0
2, 25728, Note_on_c, 0, 70, 69
2, 25728, Note_on_c, 0, 67, 69
2, 25752, Note_on_c, 0, 70, 0
2, 25752, Note_on_c, 0, 67, 0
2, 25752, Note_on_c, 0, 65, 68
2, 25752, Note_on_c, 0, 62, 68
2, 25775, Note_on_c, 0, 65, 0
2, 25775, Note_on_c, 0, 62, 0
2, 25776, Note_on_c, 0, 67, 66
2, 25776, Note_on_c, 0, 63, 66
2, 25800, Note_on_c, 0, 67, 0
2, 25800, Note_on_c, 0, 63, 0
2, 25800, Note_on_c, 0, 68, 65
2, 25800, Note_on_c, 0, 65, 65
2, 25823, Note_on_c, 0, 68, 0
2, 25823, Note_on_c, 0, 65, 0
2, 25824, Note_on_c, 0, 68, 64
2, 25824, Note_on_c, 0, 65, 64
2, 25824, Note_on_c, 0, 62, 64
2, 25920, Note_on_c, 0, 68, 0
2, 25920, Note_on_c, 0, 65, 0
2, 25920, Note_on_c, 0, 62, 0
2, 25920, Note_on_c, 0, 67, 64
2, 25920, Note_on_c, 0, 63, 64
2, 26009, Note_on_c, 0, 67, 0
2, 26009, Note_on_c, 0, 63, 0
2, 26400, Note_on_c, 0, 71, 75
2, 26467, Note_on_c, 0, 71, 0
2, 26472, Note_on_c, 0, 72, 75
2, 26484, Note_on_c, 0, 72, 0
2, 26484, Note_on_c, 0, 74, 75
2, 26496, Note_on_c, 0, 74, 0
2, 26496, Note_on_c, 0, 72, 75
2, 26585, Note_on_c, 0, 72, 0
2, 26928, Note_on_c, 0, 77, 75
2, 26973, Note_on_c, 0, 77, 0
2, 27000, Note_on_c, 0, 76, 75
2, 27023, Note_on_c, 0, 76, 0
2, 27024, Note_on_c, 0, 77, 75
2, 27047, Note_on_c, 0, 77, 0
2, 27048, Note_on_c, 0, 79, 75
2, 27071, Note_on_c, 0, 79, 0
2, 27072, Note_on_c, 0, 80, 75
2, 27095, Note_on_c, 0, 80, 0
2, 27096, Note_on_c, 0, 77, 75
2, 27119, Note_on_c, 0, 77, 0
2, 27120, Note_on_c, 0, 76, 75
2, 27143, Note_on_c, 0, 76, 0
2, 27144, Note_on_c, 0, 77, 75
2, 27167, Note_on_c, 0, 77, 0
2, 27168, Note_on_c, 0, 72, 75
2, 27191, Note_on_c, 0, 72, 0
2, 27192, Note_on_c, 0, 77, 75
2, 27215, Note_on_c, 0, 77, 0
2, 27216, Note_on_c, 0, 76, 75
2, 27239, Note_on_c, 0, 76, 0
2, 27240, Note_on_c, 0, 77, 75
2, 27263, Note_on_c, 0, 77, 0
2, 27264, Note_on_c, 0, 73, 75
2, 27287, Note_on_c, 0, 73, 0
2, 27288, Note_on_c, 0, 77, 75
2, 27311, Note_on_c, 0, 77, 0
2, 27312, Note_on_c, 0, 76, 75
2, 27335, Note_on_c, 0, 76, 0
2, 27336, Note_on_c, 0, 77, 75
2, 27359, Note_on_c, 0, 77, 0
2, 27360, Note_on_c, 0, 72, 75
2, 27383, Note_on_c, 0, 72, 0
2, 27384, Note_on_c, 0, 77, 75
2, 27407, Note_on_c, 0, 77, 0
2, 27408, Note_on_c, 0, 76, 75
2, 27431, Note_on_c, 0, 76, 0
2, 27432, Note_on_c, 0, 77, 75
2, 27455, Note_on_c, 0, 77, 0
2, 27456, Note_on_c, 0, 80, 75
2, 27479, Note_on_c, 0, 80, 0
2, 27480, Note_on_c, 0, 79, 75
2, 27503, Note_on_c, 0, 79, 0
2, 27504, Note_on_c, 0, 77, 75
2, 27527, Note_on_c, 0, 77, 0
2, 27528, Note_on_c, 0, 75, 75
2, 27551, Note_on_c, 0, 75, 0
2, 27552, Note_on_c, 0, 74, 75
2, 27575, Note_on_c, 0, 74, 0
2, 27576, Note_on_c, 0, 77, 75
2, 27599, Note_on_c, 0, 77, 0
2, 27600, Note_on_c, 0, 83, 75
2, 27623, Note_on_c, 0, 83, 0
2, 27624, Note_on_c, 0, 77, 75
2, 27647, Note_on_c, 0, 77, 0
2, 27648, Note_on_c, 0, 75, 75
2, 27671, Note_on_c, 0, 75, 0
2, 27672, Note_on_c, 0, 79, 75
2, 27695, Note_on_c, 0, 79, 0
2, 27696, Note_on_c, 0, 84, 75
2, 27719, Note_on_c, 0, 84, 0
2, 27720, Note_on_c, 0, 72, 75
2, 27743, Note_on_c, 0, 72, 0
2, 27744, Note_on_c, 0, 71, 75
2, 27767, Note_on_c, 0, 71, 0
2, 27768, Note_on_c, 0, 74, 75
2, 27791, Note_on_c, 0, 74, 0
2, 27792, Note_on_c, 0, 80, 75
2, 27815, Note_on_c, 0, 80, 0
2, 27816, Note_on_c, 0, 79, 75
2, 27839, Note_on_c, 0, 79, 0
2, 27840, Note_on_c, 0, 77, 75
2, 27863, Note_on_c, 0, 77, 0
2, 27864, Note_on_c, 0, 75, 75
2, 27887, Note_on_c, 0, 75, 0
2, 27888, Note_on_c, 0, 74, 75
2, 27911, Note_on_c, 0, 74, 0
2, 27912, Note_on_c, 0, 72, 75
2, 27935, Note_on_c, 0, 72, 0
2, 27936, Note_on_c, 0, 71, 75
2, 27959, Note_on_c, 0, 71, 0
2, 27960, Note_on_c, 0, 80, 75
2, 27983, Note_on_c, 0, 80, 0
2, 27984, Note_on_c, 0, 79, 75
2, 28007, Note_on_c, 0, 79, 0
2, 28008, Note_on_c, 0, 77, 75
2, 28031, Note_on_c, 0, 77, 0
2, 28032, Note_on_c, 0, 75, 75
2, 28055, Note_on_c, 0, 75, 0
2, 28056, Note_on_c, 0, 74, 75
2, 28079, Note_on_c, 0, 74, 0
2, 28080, Note_on_c, 0, 72, 75
2, 28103, Note_on_c, 0, 72, 0
2, 28104, Note_on_c, 0, 74, 75
2, 28104, Note_on_c, 0, 70, 75
2, 28127, Note_on_c, 0, 74, 0
2, 28127, Note_on_c, 0, 70, 0
2, 28128, Note_on_c, 0, 66, 75
2, 28134, Note_on_c, 0, 69, 75
2, 28140, Note_on_c, 0, 72, 75
2, 28146, Note_on_c, 0, 75, 75
2, 28221, Note_on_c, 0, 75, 0
2, 28221, Note_on_c, 0, 72, 0
2, 28221, Note_on_c, 0, 69, 0
2, 28221, Note_on_c, 0, 66, 0
2, 28272, Note_on_c, 0, 74, 75
2, 28295, Note_on_c, 0, 74, 0
2, 28296, Note_on_c, 0, 75, 75
2, 28319, Note_on_c, 0, 75, 0
2, 28320, Note_on_c, 0, 77, 75
2, 28343, Note_on_c, 0, 77, 0
2, 28344, Note_on_c, 0, 75, 75
2, 28367, Note_on_c, 0, 75, 0
2, 28368, Note_on_c, 0, 74, 75
2, 28391, Note_on_c, 0, 74, 0
2, 28392, Note_on_c, 0, 75, 75
2, 28415, Note_on_c, 0, 75, 0
2, 28416, Note_on_c, 0, 74, 75
2, 28416, Note_on_c, 0, 71, 75
2, 28593, Note_on_c, 0, 74, 0
2, 28593, Note_on_c, 0, 71, 0
2, 28704, Note_on_c, 0, 67, 64
2, 28704, Note_on_c, 0, 63, 64
2, 28823, Note_on_c, 0, 67, 0
2, 28823, Note_on_c, 0, 63, 0
2, 28824, Note_on_c, 0, 63, 64
2, 28824, Note_on_c, 0, 60, 64
2, 28847, Note_on_c, 0, 63, 0
2, 28847, Note_on_c, 0, 60, 0
2, 28848, Note_on_c, 0, 63, 64
2, 28848, Note_on_c, 0, 60, 64
2, 28871, Note_on_c, 0, 63, 0
2, 28871, Note_on_c, 0, 60, 0
2, 28872, Note_on_c, 0, 67, 64
2, 28872, Note_on_c, 0, 63, 64
2, 28895, Note_on_c, 0, 67, 0
2, 28895, Note_on_c, 0, 63, 0
2, 28896, Note_on_c, 0, 67, 64
2, 28896, Note_on_c, 0, 63, 64
2, 28919, Note_on_c, 0, 67, 0
2, 28919, Note_on_c, 0, 63, 0
2, 28920, Note_on_c, 0, 63, 64
2, 28920, Note_on_c, 0, 60, 64
2, 28943, Note_on_c, 0, 63, 0
2, 28943, Note_on_c, 0, 60, 0
2, 28944, Note_on_c, 0, 63, 64
2, 28944, Note_on_c, 0, 60, 64
2, 28967, Note_on_c, 0, 63, 0
2, 28967, Note_on_c, 0, 60, 0
2, 28968, Note_on_c, 0, 67, 64
2, 28968, Note_on_c, 0, 63, 64
2, 28991, Note_on_c, 0, 67, 0
2, 28991, Note_on_c, 0, 63, 0
2, 28992, Note_on_c, 0, 65, 64
2, 28992, Note_on_c, 0, 62, 64
2, 29111, Note_on_c, 0, 65, 0
2, 29111, Note_on_c, 0, 62, 0
2, 29112, Note_on_c, 0, 62, 64
2, 29112, Note_on_c, 0, 59, 64
2, 29135, Note_on_c, 0, 62, 0
2, 29135, Note_on_c, 0, 59, 0
2, 29136, Note_on_c, 0, 62, 64
2, 29136, Note_on_c, 0, 59, 64
2, 29159, Note_on_c, 0, 62, 0
2, 29159, Note_on_c, 0, 59, 0
2, 29160, Note_on_c, 0, 65, 64
2, 29160, Note_on_c, 0, 62, 64
2, 29183, Note_on_c, 0, 65, 0
2, 29183, Note_on_c, 0, 62, 0
2, 29184, Note_on_c, 0, 65, 64
2, 29184, Note_on_c, 0, 62, 64
2, 29207, Note_on_c, 0, 65, 0
2, 29207, Note_on_c, 0, 62, 0
2, 29208, Note_on_c, 0, 62, 64
2, 29208, Note_on_c, 0, 59, 64
2, 29231, Note_on_c, 0, 62, 0
2, 29231, Note_on_c, 0, 59, 0
2, 29232, Note_on_c, 0, 62, 64
2, 29232, Note_on_c, 0, 59, 64
2, 29255, Note_on_c, 0, 62, 0
2, 29255, Note_on_c, 0, 59, 0
2, 29256, Note_on_c, 0, 65, 64
2, 29256, Note_on_c, 0, 62, 64
2, 29279, Note_on_c, 0, 65, 0
2, 29279, Note_on_c, 0, 62, 0
2, 29280, Note_on_c, 0, 68, 64
2, 29280, Note_on_c, 0, 65, 64
2, 29399, Note_on_c, 0, 68, 0
2, 29399, Note_on_c, 0, 65, 0
2, 29400, Note_on_c, 0, 65, 64
2, 29400, Note_on_c, 0, 62, 64
2, 29423, Note_on_c, 0, 65, 0
2, 29423, Note_on_c, 0, 62, 0
2, 29424, Note_on_c, 0, 65, 64
2, 29424, Note_on_c, 0, 62, 64
2, 29447, Note_on_c, 0, 65, 0
2, 29447, Note_on_c, 0, 62, 0
2, 29448, Note_on_c, 0, 68, 64
2, 29448, Note_on_c, 0, 65, 64
2, 29471, Note_on_c, 0, 68, 0
2, 29471, Note_on_c, 0, 65, 0
2, 29472, Note_on_c, 0, 71, 64
2, 29472, Note_on_c, 0, 65, 64
2, 29495, Note_on_c, 0, 71, 0
2, 29495, Note_on_c, 0, 65, 0
2, 29496, Note_on_c, 0, 65, 64
2, 29496, Note_on_c, 0, 62, 64
2, 29519, Note_on_c, 0, 65, 0
2, 29519, Note_on_c, 0, 62, 0
2, 29520, Note_on_c, 0, 65, 64
2, 29520, Note_on_c, 0, 62, 64
2, 29543, Note_on_c, 0, 65, 0
2, 29543, Note_on_c, 0, 62, 0
2, 29544, Note_on_c, 0, 71, 64
2, 29544, Note_on_c, 0, 65, 64
2, 29567, Note_on_c, 0, 71, 0
2, 29567, Note_on_c, 0, 65, 0
2, 29568, Note_on_c, 0, 72, 64
2, 29568, Note_on_c, 0, 67, 64
2, 29591, Note_on_c, 0, 72, 0
2, 29591, Note_on_c, 0, 67, 0
2, 29592, Note_on_c, 0, 67, 64
2, 29592, Note_on_c, 0, 63, 64
2, 29615, Note_on_c, 0, 67, 0
2, 29615, Note_on_c, 0, 63, 0
2, 29616, Note_on_c, 0, 67, 65
2, 29616, Note_on_c, 0, 63, 65
2, 29639, Note_on_c, 0, 67, 0
2, 29639, Note_on_c, 0, 63, 0
2, 29640, Note_on_c, 0, 72, 65
2, 29640, Note_on_c, 0, 67, 65
2, 29663, Note_on_c, 0, 72, 0
2, 29663, Note_on_c, 0, 67, 0
2, 29664, Note_on_c, 0, 74, 66
2, 29664, Note_on_c, 0, 71, 66
2, 29687, Note_on_c, 0, 74, 0
2, 29687, Note_on_c, 0, 71, 0
2, 29688, Note_on_c, 0, 71, 67
2, 29688, Note_on_c, 0, 67, 67
2, 29711, Note_on_c, 0, 71, 0
2, 29711, Note_on_c, 0, 67, 0
2, 29712, Note_on_c, 0, 71, 67
2, 29712, Note_on_c, 0, 67, 67
2, 29735, Note_on_c, 0, 71, 0
2, 29735, Note_on_c, 0, 67, 0
2, 29736, Note_on_c, 0, 74, 68
2, 29736, Note_on_c, 0, 71, 68
2, 29759, Note_on_c, 0, 74, 0
2, 29759, Note_on_c, 0, 71, 0
2, 29760, Note_on_c, 0, 75, 68
2, 29760, Note_on_c, 0, 72, 68
2, 29783, Note_on_c, 0, 75, 0
2, 29783, Note_on_c, 0, 72, 0
2, 29784, Note_on_c, 0, 72, 69
2, 29784, Note_on_c, 0, 67, 69
2, 29807, Note_on_c, 0, 72, 0
2, 29807, Note_on_c, 0, 67, 0
2, 29808, Note_on_c, 0, 72, 70
2, 29808, Note_on_c, 0, 67, 70
2, 29831, Note_on_c, 0, 72, 0
2, 29831, Note_on_c, 0, 67, 0
2, 29832, Note_on_c, 0, 75, 70
2, 29832, Note_on_c, 0, 72, 70
2, 29855, Note_on_c, 0, 75, 0
2, 29855, Note_on_c, 0, 72, 0
2, 29856, Note_on_c, 0, 78, 71
2, 29856, Note_on_c, 0, 72, 71
2, 29879, Note_on_c, 0, 78, 0
2, 29879, Note_on_c, 0, 72, 0
2, 29880, Note_on_c, 0, 72, 71
2, 29880, Note_on_c, 0, 69, 71
2, 29903, Note_on_c, 0, 72, 0
2, 29903, Note_on_c, 0, 69, 0
2, 29904, Note_on_c, 0, 72, 72
2, 29904, Note_on_c, 0, 69, 72
2, 29927, Note_on_c, 0, 72, 0
2, 29927, Note_on_c, 0, 69, 0
2, 29928, Note_on_c, 0, 78, 73
2, 29928, Note_on_c, 0, 72, 73
2, 29951, Note_on_c, 0, 78, 0
2, 29951, Note_on_c, 0, 72, 0
2, 29952, Note_on_c, 0, 79, 73
2, 29952, Note_on_c, 0, 74, 73
2, 29975, Note_on_c, 0, 79, 0
2, 29975, Note_on_c, 0, 74, 0
2, 29976, Note_on_c, 0, 74, 74
2, 29976, Note_on_c, 0, 71, 74
2, 29999, Note_on_c, 0, 74, 0
2, 29999, Note_on_c, 0, 71, 0
2, 30000, Note_on_c, 0, 74, 75
2, 30000, Note_on_c, 0, 71, 75
2, 30023, Note_on_c, 0, 74, 0
2, 30023, Note_on_c, 0, 71, 0
2, 30024, Note_on_c, 0, 79, 75
2, 30024, Note_on_c, 0, 74, 75
2, 30047, Note_on_c, 0, 79, 0
2, 30047, Note_on_c, 0, 74, 0
2, 30048, Note_on_c, 0, 80, 76
2, 30048, Note_on_c, 0, 77, 76
2, 30071, Note_on_c, 0, 80, 0
2, 30071, Note_on_c, 0, 77, 0
2, 30072, Note_on_c, 0, 77, 76
2, 30072, Note_on_c, 0, 74, 76
2, 30095, Note_on_c, 0, 77, 0
2, 30095, Note_on_c, 0, 74, 0
2, 30096, Note_on_c, 0, 77, 77
2, 30096, Note_on_c, 0, 74, 77
2, 30119, Note_on_c, 0, 77, 0
2, 30119, Note_on_c, 0, 74, 0
2, 30120, Note_on_c, 0, 80, 78
2, 30120, Note_on_c, 0, 77, 78
2, 30143, Note_on_c, 0, 80, 0
2, 30143, Note_on_c, 0, 77, 0
2, 30144, Note_on_c, 0, 83, 78
2, 30144, Note_on_c, 0, 77, 78
2, 30167, Note_on_c, 0, 83, 0
2, 30167, Note_on_c, 0, 77, 0
2, 30168, Note_on_c, 0, 77, 79
2, 30168, Note_on_c, 0, 74, 79
2, 30191, Note_on_c, 0, 77, 0
2, 30191, Note_on_c, 0, 74, 0
2, 30192, Note_on_c, 0, 77, 79
2, 30192, Note_on_c, 0, 74, 79
2, 30215, Note_on_c, 0, 77, 0
2, 30215, Note_on_c, 0, 74, 0
2, 30216, Note_on_c, 0, 83, 80
2, 30216, Note_on_c, 0, 77, 80
2, 30239, Note_on_c, 0, 83, 0
2, 30239, Note_on_c, 0, 77, 0
2, 30240, Note_on_c, 0, 84, 81
2, 30240, Note_on_c, 0, 79, 81
2, 30263, Note_on_c, 0, 84, 0
2, 30263, Note_on_c, 0, 79, 0
2, 30264, Note_on_c, 0, 79, 81
2, 30264, Note_on_c, 0, 75, 81
2, 30287, Note_on_c, 0, 79, 0
2, 30287, Note_on_c, 0, 75, 0
2, 30288, Note_on_c, 0, 79, 82
2, 30288, Note_on_c, 0, 75, 82
2, 30311, Note_on_c, 0, 79, 0
2, 30311, Note_on_c, 0, 75, 0
2, 30312, Note_on_c, 0, 84, 82
2, 30312, Note_on_c, 0, 79, 82
2, 30335, Note_on_c, 0, 84, 0
2, 30335, Note_on_c, 0, 79, 0
2, 30336, Note_on_c, 0, 86, 83
2, 30336, Note_on_c, 0, 83, 83
2, 30359, Note_on_c, 0, 86, 0
2, 30359, Note_on_c, 0, 83, 0
2, 30360, Note_on_c, 0, 83, 84
2, 30360, Note_on_c, 0, 79, 84
2, 30383, Note_on_c, 0, 83, 0
2, 30383, Note_on_c, 0, 79, 0
2, 30384, Note_on_c, 0, 83, 84
2, 30384, Note_on_c, 0, 79, 84
2, 30407, Note_on_c, 0, 83, 0
2, 30407, Note_on_c, 0, 79, 0
2, 30408, Note_on_c, 0, 86, 85
2, 30408, Note_on_c, 0, 83, 85
2, 30431, Note_on_c, 0, 86, 0
2, 30431, Note_on_c, 0, 83, 0
2, 30432, Note_on_c, 0, 87, 86
2, 30551, Note_on_c, 0, 87, 0
2, 30552, Note_on_c, 0, 86, 86
2, 30575, Note_on_c, 0, 86, 0
2, 30576, Note_on_c, 0, 84, 86
2, 30599, Note_on_c, 0, 84, 0
2, 30600, Note_on_c, 0, 82, 86
2, 30623, Note_on_c, 0, 82, 0
2, 30624, Note_on_c, 0, 81, 86
2, 30647, Note_on_c, 0, 81, 0
2, 30648, Note_on_c, 0, 79, 86
2, 30671, Note_on_c, 0, 79, 0
2, 30672, Note_on_c, 0, 78, 86
2, 30695, Note_on_c, 0, 78, 0
2, 30696, Note_on_c, 0, 79, 86
2, 30719, Note_on_c, 0, 79, 0
2, 30720, Note_on_c, 0, 82, 86
2, 30720, Note_on_c, 0, 79, 86
2, 30759, Note_on_c, 0, 82, 0
2, 30759, Note_on_c, 0, 79, 0
2, 30816, Note_on_c, 0, 81, 86
2, 30816, Note_on_c, 0, 78, 86
2, 30855, Note_on_c, 0, 81, 0
2, 30855, Note_on_c, 0, 78, 0
2, 31008, Note_on_c, 0, 65, 75
2, 31008, Note_on_c, 0, 62, 75
2, 31097, Note_on_c, 0, 65, 0
2, 31097, Note_on_c, 0, 62, 0
2, 31104, Note_on_c, 0, 70, 75
2, 31104, Note_on_c, 0, 67, 75
2, 31193, Note_on_c, 0, 70, 0
2, 31193, Note_on_c, 0, 67, 0
2, 31200, Note_on_c, 0, 69, 75
2, 31200, Note_on_c, 0, 65, 75
2, 31289, Note_on_c, 0, 69, 0
2, 31289, Note_on_c, 0, 65, 0
2, 31296, Note_on_c, 0, 67, 75
2, 31296, Note_on_c, 0, 63, 75
2, 31335, Note_on_c, 0, 67, 0
2, 31335, Note_on_c, 0, 63, 0
2, 31392, Note_on_c, 0, 65, 75
2, 31392, Note_on_c, 0, 62, 75
2, 31431, Note_on_c, 0, 65, 0
2, 31431, Note_on_c, 0, 62, 0
2, 31584, Note_on_c, 0, 77, 64
2, 31584, Note_on_c, 0, 74, 64
2, 31673, Note_on_c, 0, 77, 0
2, 31673, Note_on_c, 0, 74, 0
2, 31680, Note_on_c, 0, 79, 64
2, 31680, Note_on_c, 0, 75, 64
2, 31725, Note_on_c, 0, 79, 0
2, 31725, Note_on_c, 0, 75, 0
2, 31728, Note_on_c, 0, 80, 64
2, 31728, Note_on_c, 0, 77, 64
2, 31865, Note_on_c, 0, 80, 0
2, 31865, Note_on_c, 0, 77, 0
2, 31872, Note_on_c, 0, 79, 64
2, 31872, Note_on_c, 0, 75, 64
2, 32049, Note_on_c, 0, 79, 0
2, 32049, Note_on_c, 0, 75, 0
2, 32160, Note_on_c, 0, 82, 75
2, 32160, Note_on_c, 0, 79, 75
2, 32249, Note_on_c, 0, 82, 0
2, 32249, Note_on_c, 0, 79, 0
2, 32256, Note_on_c, 0, 84, 76
2, 32256, Note_on_c, 0, 80, 76
2, 32301, Note_on_c, 0, 84, 0
2, 32301, Note_on_c, 0, 80, 0
2, 32304, Note_on_c, 0, 85, 77
2, 32304, Note_on_c, 0, 82, 77
2, 32349, Note_on_c, 0, 85, 0
2, 32349, Note_on_c, 0, 82, 0
2, 32352, Note_on_c, 0, 87, 78
2, 32370, Note_on_c, 0, 87, 0
2, 32370, Note_on_c, 0, 85, 78
2, 32441, Note_on_c, 0, 85, 0
2, 32448, Note_on_c, 0, 84, 70
2, 32448, Note_on_c, 0, 80, 70
2, 32635, Note_on_c, 0, 84, 0
2, 32635, Note_on_c, 0, 80, 0
2, 32736, Note_on_c, 0, 70, 75
2, 32781, Note_on_c, 0, 70, 0
2, 32784, Note_on_c, 0, 77, 75
2, 32855, Note_on_c, 0, 77, 0
2, 32856, Note_on_c, 0, 75, 75
2, 32879, Note_on_c, 0, 75, 0
2, 32880, Note_on_c, 0, 73, 75
2, 32947, Note_on_c, 0, 73, 0
2, 32952, Note_on_c, 0, 72, 75
2, 32975, Note_on_c, 0, 72, 0
2, 32976, Note_on_c, 0, 70, 75
2, 32999, Note_on_c, 0, 70, 0
2, 33000, Note_on_c, 0, 68, 75
2, 33023, Note_on_c, 0, 68, 0
2, 33024, Note_on_c, 0, 67, 75
2, 33069, Note_on_c, 0, 67, 0
2, 33072, Note_on_c, 0, 75, 75
2, 33143, Note_on_c, 0, 75, 0
2, 33144, Note_on_c, 0, 73, 75
2, 33167, Note_on_c, 0, 73, 0
2, 33168, Note_on_c, 0, 72, 75
2, 33235, Note_on_c, 0, 72, 0
2, 33240, Note_on_c, 0, 70, 75
2, 33263, Note_on_c, 0, 70, 0
2, 33264, Note_on_c, 0, 68, 75
2, 33287, Note_on_c, 0, 68, 0
2, 33288, Note_on_c, 0, 67, 75
2, 33311, Note_on_c, 0, 67, 0
2, 33312, Note_on_c, 0, 65, 75
2, 33318, Note_on_c, 0, 65, 0
2, 33318, Note_on_c, 0, 67, 75
2, 33324, Note_on_c, 0, 67, 0
2, 33324, Note_on_c, 0, 65, 75
2, 33357, Note_on_c, 0, 65, 0
2, 33360, Note_on_c, 0, 73, 74
2, 33383, Note_on_c, 0, 73, 0
2, 33384, Note_on_c, 0, 72, 73
2, 33407, Note_on_c, 0, 72, 0
2, 33408, Note_on_c, 0, 70, 73
2, 33431, Note_on_c, 0, 70, 0
2, 33432, Note_on_c, 0, 68, 72
2, 33455, Note_on_c, 0, 68, 0
2, 33456, Note_on_c, 0, 67, 72
2, 33479, Note_on_c, 0, 67, 0
2, 33480, Note_on_c, 0, 65, 72
2, 33503, Note_on_c, 0, 65, 0
2, 33504, Note_on_c, 0, 63, 71
2, 33527, Note_on_c, 0, 63, 0
2, 33528, Note_on_c, 0, 67, 71
2, 33551, Note_on_c, 0, 67, 0
2, 33552, Note_on_c, 0, 68, 70
2, 33575, Note_on_c, 0, 68, 0
2, 33576, Note_on_c, 0, 60, 70
2, 33599, Note_on_c, 0, 60, 0
2, 33600, Note_on_c, 0, 63, 70
2, 33689, Note_on_c, 0, 63, 0
2, 33696, Note_on_c, 0, 61, 67
2, 33702, Note_on_c, 0, 61, 0
2, 33702, Note_on_c, 0, 63, 67
2, 33708, Note_on_c, 0, 63, 0
2, 33708, Note_on_c, 0, 61, 67
2, 33719, Note_on_c, 0, 61, 0
2, 33720, Note_on_c, 0, 60, 67
2, 33743, Note_on_c, 0, 60, 0
2, 33744, Note_on_c, 0, 61, 66
2, 33789, Note_on_c, 0, 61, 0
2, 33792, Note_on_c, 0, 60, 65
2, 33839, Note_on_c, 0, 60, 0
2, 33840, Note_on_c, 0, 68, 80
2, 33846, Note_on_c, 0, 68, 0
2, 33846, Note_on_c, 0, 70, 80
2, 33852, Note_on_c, 0, 70, 0
2, 33852, Note_on_c, 0, 68, 80
2, 33900, Note_on_c, 0, 68, 0
2, 33900, Note_on_c, 0, 67, 64
2, 33912, Note_on_c, 0, 67, 0
2, 33912, Note_on_c, 0, 65, 64
2, 33924, Note_on_c, 0, 65, 0
2, 33924, Note_on_c, 0, 63, 64
2, 33936, Note_on_c, 0, 63, 0
2, 33936, Note_on_c, 0, 62, 64
2, 34025, Note_on_c, 0, 62, 0
2, 34104, Note_on_c, 0, 72, 75
2, 34104, Note_on_c, 0, 68, 75
2, 34127, Note_on_c, 0, 72, 0
2, 34127, Note_on_c, 0, 68, 0
2, 34128, Note_on_c, 0, 70, 75
2, 34128, Note_on_c, 0, 67, 75
2, 34151, Note_on_c, 0, 70, 0
2, 34151, Note_on_c, 0, 67, 0
2, 34152, Note_on_c, 0, 68, 75
2, 34152, Note_on_c, 0, 65, 75
2, 34175, Note_on_c, 0, 68, 0
2, 34175, Note_on_c, 0, 65, 0
2, 34176, Note_on_c, 0, 67, 75
2, 34176, Note_on_c, 0, 63, 75
2, 34199, Note_on_c, 0, 67, 0
2, 34199, Note_on_c, 0, 63, 0
2, 34200, Note_on_c, 0, 82, 75
2, 34200, Note_on_c, 0, 79, 75
2, 34223, Note_on_c, 0, 82, 0
2, 34223, Note_on_c, 0, 79, 0
2, 34224, Note_on_c, 0, 80, 75
2, 34224, Note_on_c, 0, 77, 75
2, 34247, Note_on_c, 0, 80, 0
2, 34247, Note_on_c, 0, 77, 0
2, 34248, Note_on_c, 0, 79, 75
2, 34248, Note_on_c, 0, 75, 75
2, 34271, Note_on_c, 0, 79, 0
2, 34271, Note_on_c, 0, 75, 0
2, 34272, Note_on_c, 0, 77, 75
2, 34272, Note_on_c, 0, 74, 75
2, 34295, Note_on_c, 0, 77, 0
2, 34295, Note_on_c, 0, 74, 0
2, 34296, Note_on_c, 0, 75, 76
2, 34296, Note_on_c, 0, 72, 76
2, 34319, Note_on_c, 0, 75, 0
2, 34319, Note_on_c, 0, 72, 0
2, 34320, Note_on_c, 0, 74, 76
2, 34320, Note_on_c, 0, 70, 76
2, 34343, Note_on_c, 0, 74, 0
2, 34343, Note_on_c, 0, 70, 0
2, 34344, Note_on_c, 0, 72, 76
2, 34344, Note_on_c, 0, 68, 76
2, 34367, Note_on_c, 0, 72, 0
2, 34367, Note_on_c, 0, 68, 0
2, 34368, Note_on_c, 0, 70, 76
2, 34368, Note_on_c, 0, 67, 76
2, 34391, Note_on_c, 0, 70, 0
2, 34391, Note_on_c, 0, 67, 0
2, 34392, Note_on_c, 0, 68, 77
2, 34392, Note_on_c, 0, 65, 77
2, 34415, Note_on_c, 0, 68, 0
2, 34415, Note_on_c, 0, 65, 0
2, 34416, Note_on_c, 0, 67, 77
2, 34416, Note_on_c, 0, 63, 77
2, 34439, Note_on_c, 0, 67, 0
2, 34439, Note_on_c, 0, 63, 0
2, 34440, Note_on_c, 0, 65, 77
2, 34440, Note_on_c, 0, 62, 77
2, 34463, Note_on_c, 0, 65, 0
2, 34463, Note_on_c, 0, 62, 0
2, 34464, Note_on_c, 0, 63, 77
2, 34464, Note_on_c, 0, 60, 77
2, 34487, Note_on_c, 0, 63, 0
2, 34487, Note_on_c, 0, 60, 0
2, 34488, Note_on_c, 0, 62, 78
2, 34488, Note_on_c, 0, 58, 78
2, 34511, Note_on_c, 0, 62, 0
2, 34511, Note_on_c, 0, 58, 0
2, 34512, Note_on_c, 0, 60, 78
2, 34512, Note_on_c, 0, 56, 78
2, 34535, Note_on_c, 0, 60, 0
2, 34535, Note_on_c, 0, 56, 0
2, 34536, Note_on_c, 0, 58, 78
2, 34536, Note_on_c, 0, 55, 78
2, 34559, Note_on_c, 0, 58, 0
2, 34559, Note_on_c, 0, 55, 0
2, 34560, Note_on_c, 0, 56, 78
2, 34572, Note_on_c, 0, 56, 0
2, 34572, Note_on_c, 0, 68, 94
2, 34679, Note_on_c, 0, 68, 0
2, 34680, Note_on_c, 0, 87, 80
2, 34680, Note_on_c, 0, 75, 80
2, 34703, Note_on_c, 0, 87, 0
2, 34703, Note_on_c, 0, 75, 0
2, 34704, Note_on_c, 0, 86, 80
2, 34704, Note_on_c, 0, 74, 80
2, 34727, Note_on_c, 0, 86, 0
2, 34727, Note_on_c, 0, 74, 0
2, 34728, Note_on_c, 0, 84, 80
2, 34728, Note_on_c, 0, 72, 80
2, 34751, Note_on_c, 0, 84, 0
2, 34751, Note_on_c, 0, 72, 0
2, 34752, Note_on_c, 0, 82, 80
2, 34752, Note_on_c, 0, 70, 80
2, 34775, Note_on_c, 0, 82, 0
2, 34775, Note_on_c, 0, 70, 0
2, 34776, Note_on_c, 0, 83, 75
2, 34800, Note_on_c, 0, 83, 0
2, 34800, Note_on_c, 0, 84, 75
2, 34823, Note_on_c, 0, 84, 0
2, 34824, Note_on_c, 0, 79, 75
2, 34848, Note_on_c, 0, 79, 0
2, 34848, Note_on_c, 0, 80, 75
2, 34871, Note_on_c, 0, 80, 0
2, 34872, Note_on_c, 0, 81, 75
2, 34896, Note_on_c, 0, 81, 0
2, 34896, Note_on_c, 0, 82, 75
2, 34919, Note_on_c, 0, 82, 0
2, 34920, Note_on_c, 0, 77, 75
2, 34944, Note_on_c, 0, 77, 0
2, 34944, Note_on_c, 0, 78, 75
2, 34967, Note_on_c, 0, 78, 0
2, 34968, Note_on_c, 0, 79, 76
2, 34991, Note_on_c, 0, 79, 0
2, 34992, Note_on_c, 0, 72, 77
2, 35015, Note_on_c, 0, 72, 0
2, 35016, Note_on_c, 0, 80, 78
2, 35039, Note_on_c, 0, 80, 0
2, 35040, Note_on_c, 0, 75, 80
2, 35040, Note_on_c, 0, 67, 80
2, 35063, Note_on_c, 0, 75, 0
2, 35063, Note_on_c, 0, 67, 0
2, 35064, Note_on_c, 0, 75, 80
2, 35064, Note_on_c, 0, 67, 80
2, 35109, Note_on_c, 0, 75, 0
2, 35109, Note_on_c, 0, 67, 0
2, 35112, Note_on_c, 0, 75, 80
2, 35112, Note_on_c, 0, 67, 80
2, 35157, Note_on_c, 0, 75, 0
2, 35157, Note_on_c, 0, 67, 0
2, 35160, Note_on_c, 0, 75, 80
2, 35160, Note_on_c, 0, 67, 80
2, 35183, Note_on_c, 0, 75, 0
2, 35183, Note_on_c, 0, 67, 0
2, 35184, Note_on_c, 0, 75, 80
2, 35184, Note_on_c, 0, 67, 80
2, 35317, Note_on_c, 0, 75, 0
2, 35317, Note_on_c, 0, 67, 0
2, 35328, Note_on_c, 0, 87, 75
2, 35351, Note_on_c, 0, 87, 0
2, 35352, Note_on_c, 0, 84, 75
2, 35375, Note_on_c, 0, 84, 0
2, 35376, Note_on_c, 0, 82, 75
2, 35399, Note_on_c, 0, 82, 0
2, 35400, Note_on_c, 0, 80, 75
2, 35423, Note_on_c, 0, 80, 0
2, 35424, Note_on_c, 0, 79, 75
2, 35447, Note_on_c, 0, 79, 0
2, 35448, Note_on_c, 0, 87, 75
2, 35471, Note_on_c, 0, 87, 0
2, 35472, Note_on_c, 0, 83, 75
2, 35496, Note_on_c, 0, 83, 0
2, 35496, Note_on_c, 0, 84, 75
2, 35519, Note_on_c, 0, 84, 0
2, 35520, Note_on_c, 0, 77, 75
2, 35543, Note_on_c, 0, 77, 0
2, 35544, Note_on_c, 0, 79, 75
2, 35567, Note_on_c, 0, 79, 0
2, 35568, Note_on_c, 0, 80, 75
2, 35591, Note_on_c, 0, 80, 0
2, 35592, Note_on_c, 0, 77, 75
2, 35615, Note_on_c, 0, 77, 0
2, 35616, Note_on_c, 0, 79, 75
2, 35661, Note_on_c, 0, 79, 0
2, 35664, Note_on_c, 0, 87, 91
2, 35735, Note_on_c, 0, 87, 0
2, 35736, Note_on_c, 0, 79, 75
2, 35759, Note_on_c, 0, 79, 0
2, 35760, Note_on_c, 0, 74, 75
2, 35784, Note_on_c, 0, 74, 0
2, 35784, Note_on_c, 0, 75, 75
2, 35807, Note_on_c, 0, 75, 0
2, 35808, Note_on_c, 0, 80, 75
2, 35808, Note_on_c, 0, 79, 75
2, 35808, Note_on_c, 0, 72, 75
2, 35853, Note_on_c, 0, 80, 0
2, 35853, Note_on_c, 0, 79, 0
2, 35853, Note_on_c, 0, 72, 0
2, 35856, Note_on_c, 0, 80, 75
2, 35856, Note_on_c, 0, 77, 75
2, 35856, Note_on_c, 0, 72, 75
2, 35949, Note_on_c, 0, 80, 0
2, 35949, Note_on_c, 0, 77, 0
2, 35949, Note_on_c, 0, 72, 0
2, 35952, Note_on_c, 0, 80, 75
2, 35952, Note_on_c, 0, 77, 75
2, 35952, Note_on_c, 0, 72, 75
2, 36041, Note_on_c, 0, 80, 0
2, 36041, Note_on_c, 0, 77, 0
2, 36041, Note_on_c, 0, 72, 0
2, 36048, Note_on_c, 0, 80, 75
2, 36048, Note_on_c, 0, 77, 75
2, 36048, Note_on_c, 0, 72, 75
2, 36137, Note_on_c, 0, 80, 0
2, 36137, Note_on_c, 0, 77, 0
2, 36137, Note_on_c, 0, 72, 0
2, 36144, Note_on_c, 0, 80, 75
2, 36144, Note_on_c, 0, 77, 75
2, 36144, Note_on_c, 0, 72, 75
2, 36189, Note_on_c, 0, 80, 0
2, 36189, Note_on_c, 0, 77, 0
2, 36189, Note_on_c, 0, 72, 0
2, 36192, Note_on_c, 0, 74, 75
2, 36200, Note_on_c, 0, 77, 75
2, 36208, Note_on_c, 0, 80, 75
2, 36263, Note_on_c, 0, 80, 0
2, 36263, Note_on_c, 0, 77, 0
2, 36263, Note_on_c, 0, 74, 0
2, 36264, Note_on_c, 0, 77, 75
2, 36287, Note_on_c, 0, 77, 0
2, 36288, Note_on_c, 0, 79, 75
2, 36303, Note_on_c, 0, 79, 0
2, 36304, Note_on_c, 0, 77, 75
2, 36319, Note_on_c, 0, 77, 0
2, 36320, Note_on_c, 0, 79, 75
2, 36335, Note_on_c, 0, 79, 0
2, 36336, Note_on_c, 0, 80, 75
2, 36351, Note_on_c, 0, 80, 0
2, 36352, Note_on_c, 0, 79, 75
2, 36367, Note_on_c, 0, 79, 0
2, 36368, Note_on_c, 0, 77, 75
2, 36383, Note_on_c, 0, 77, 0
2, 36384, Note_on_c, 0, 75, 75
2, 36429, Note_on_c, 0, 75, 0
2, 36432, Note_on_c, 0, 74, 75
2, 36438, Note_on_c, 0, 74, 0
2, 36438, Note_on_c, 0, 75, 75
2, 36444, Note_on_c, 0, 75, 0
2, 36444, Note_on_c, 0, 74, 75
2, 36477, Note_on_c, 0, 74, 0
2, 36480, Note_on_c, 0, 63, 75
2, 36495, Note_on_c, 0, 63, 0
2, 36496, Note_on_c, 0, 58, 75
2, 36511, Note_on_c, 0, 58, 0
2, 36512, Note_on_c, 0, 63, 75
2, 36527, Note_on_c, 0, 63, 0
2, 36528, Note_on_c, 0, 67, 75
2, 36543, Note_on_c, 0, 67, 0
2, 36544, Note_on_c, 0, 63, 75
2, 36559, Note_on_c, 0, 63, 0
2, 36560, Note_on_c, 0, 67, 75
2, 36575, Note_on_c, 0, 67, 0
2, 36576, Note_on_c, 0, 70, 76
2, 36591, Note_on_c, 0, 70, 0
2, 36592, Note_on_c, 0, 67, 76
2, 36607, Note_on_c, 0, 67, 0
2, 36608, Note_on_c, 0, 70, 76
2, 36623, Note_on_c, 0, 70, 0
2, 36624, Note_on_c, 0, 75, 76
2, 36639, Note_on_c, 0, 75, 0
2, 36640, Note_on_c, 0, 70, 76
2, 36655, Note_on_c, 0, 70, 0
2, 36656, Note_on_c, 0, 75, 76
2, 36671, Note_on_c, 0, 75, 0
2, 36672, Note_on_c, 0, 79, 77
2, 36687, Note_on_c, 0, 79, 0
2, 36688, Note_on_c, 0, 75, 77
2, 36703, Note_on_c, 0, 75, 0
2, 36704, Note_on_c, 0, 79, 77
2, 36719, Note_on_c, 0, 79, 0
2, 36720, Note_on_c, 0, 82, 77
2, 36735, Note_on_c, 0, 82, 0
2, 36736, Note_on_c, 0, 79, 77
2, 36751, Note_on_c, 0, 79, 0
2, 36752, Note_on_c, 0, 82, 78
2, 36767, Note_on_c, 0, 82, 0
2, 36768, Note_on_c, 0, 87, 78
2, 36813, Note_on_c, 0, 87, 0
2, 36816, Note_on_c, 0, 79, 80
2, 36861, Note_on_c, 0, 79, 0
2, 36864, Note_on_c, 0, 76, 80
2, 36879, Note_on_c, 0, 76, 0
2, 36880, Note_on_c, 0, 77, 79
2, 36895, Note_on_c, 0, 77, 0
2, 36896, Note_on_c, 0, 80, 79
2, 36911, Note_on_c, 0, 80, 0
2, 36912, Note_on_c, 0, 84, 79
2, 36927, Note_on_c, 0, 84, 0
2, 36928, Note_on_c, 0, 80, 78
2, 36943, Note_on_c, 0, 80, 0
2, 36944, Note_on_c, 0, 77, 78
2, 36959, Note_on_c, 0, 77, 0
2, 36960, Note_on_c, 0, 82, 78
2, 36975, Note_on_c, 0, 82, 0
2, 36976, Note_on_c, 0, 79, 77
2, 36991, Note_on_c, 0, 79, 0
2, 36992, Note_on_c, 0, 75, 77
2, 37007, Note_on_c, 0, 75, 0
2, 37008, Note_on_c, 0, 80, 77
2, 37023, Note_on_c, 0, 80, 0
2, 37024, Note_on_c, 0, 77, 76
2, 37039, Note_on_c, 0, 77, 0
2, 37040, Note_on_c, 0, 74, 76
2, 37055, Note_on_c, 0, 74, 0
2, 37056, Note_on_c, 0, 75, 80
2, 37079, Note_on_c, 0, 75, 0
2, 37080, Note_on_c, 0, 70, 78
2, 37080, Note_on_c, 0, 67, 78
2, 37103, Note_on_c, 0, 70, 0
2, 37103, Note_on_c, 0, 67, 0
2, 37104, Note_on_c, 0, 70, 77
2, 37104, Note_on_c, 0, 67, 77
2, 37128, Note_on_c, 0, 70, 0
2, 37128, Note_on_c, 0, 67, 0
2, 37128, Note_on_c, 0, 72, 76
2, 37128, Note_on_c, 0, 68, 76
2, 37151, Note_on_c, 0, 72, 0
2, 37151, Note_on_c, 0, 68, 0
2, 37152, Note_on_c, 0, 72, 74
2, 37152, Note_on_c, 0, 68, 74
2, 37176, Note_on_c, 0, 72, 0
2, 37176, Note_on_c, 0, 65, 73
2, 37199, Note_on_c, 0, 68, 0
2, 37199, Note_on_c, 0, 65, 0
2, 37200, Note_on_c, 0, 68, 72
2, 37200, Note_on_c, 0, 65, 72
2, 37224, Note_on_c, 0, 68, 0
2, 37224, Note_on_c, 0, 65, 0
2, 37224, Note_on_c, 0, 70, 70
2, 37224, Note_on_c, 0, 67, 70
2, 37247, Note_on_c, 0, 70, 0
2, 37247, Note_on_c, 0, 67, 0
2, 37248, Note_on_c, 0, 70, 69
2, 37248, Note_on_c, 0, 67, 69
2, 37272, Note_on_c, 0, 70, 0
2, 37272, Note_on_c, 0, 67, 0
2, 37272, Note_on_c, 0, 65, 68
2, 37272, Note_on_c, 0, 62, 68
2, 37295, Note_on_c, 0, 65, 0
2, 37295, Note_on_c, 0, 62, 0
2, 37296, Note_on_c, 0, 67, 66
2, 37296, Note_on_c, 0, 63, 66
2, 37320, Note_on_c, 0, 67, 0
2, 37320, Note_on_c, 0, 63, 0
2, 37320, Note_on_c, 0, 68, 65
2, 37320, Note_on_c, 0, 65, 65
2, 37343, Note_on_c, 0, 68, 0
2, 37343, Note_on_c, 0, 65, 0
2, 37344, Note_on_c, 0, 68, 64
2, 37344, Note_on_c, 0, 65, 64
2, 37344, Note_on_c, 0, 62, 64
2, 37440, Note_on_c, 0, 68, 0
2, 37440, Note_on_c, 0, 65, 0
2, 37440, Note_on_c, 0, 62, 0
2, 37440, Note_on_c, 0, 67, 64
2, 37440, Note_on_c, 0, 63, 64
2, 37529, Note_on_c, 0, 67, 0
2, 37529, Note_on_c, 0, 63, 0
2, 37632, End_track
3, 0, Start_track
3, 0, Program_c, 0, 0
3, 0, Control_c, 0, 7, 127
3, 0, Control_c, 0, 10, 64
3, 768, Note_on_c, 0, 67, 64
3, 786, Note_on_c, 0, 67, 0
3, 786, Note_on_c, 0, 65, 64
3, 857, Note_on_c, 0, 65, 0
3, 2016, Note_on_c, 0, 55, 64
3, 2105, Note_on_c, 0, 55, 0
3, 2112, Note_on_c, 0, 53, 64
3, 2201, Note_on_c, 0, 53, 0
3, 2208, Note_on_c, 0, 51, 64
3, 2297, Note_on_c, 0, 51, 0
3, 3456, Note_on_c, 0, 60, 64
3, 3545, Note_on_c, 0, 60, 0
3, 8064, Note_on_c, 0, 67, 64
3, 8082, Note_on_c, 0, 67, 0
3, 8082, Note_on_c, 0, 65, 64
3, 8153, Note_on_c, 0, 65, 0
3, 9312, Note_on_c, 0, 55, 64
3, 9401, Note_on_c, 0, 55, 0
3, 9408, Note_on_c, 0, 53, 64
3, 9497, Note_on_c, 0, 53, 0
3, 9504, Note_on_c, 0, 51, 64
3, 9593, Note_on_c, 0, 51, 0
3, 10752, Note_on_c, 0, 60, 64
3, 10841, Note_on_c, 0, 60, 0
3, 20832, Note_on_c, 0, 84, 64
3, 20850, Note_on_c, 0, 84, 0
3, 20850, Note_on_c, 0, 82, 64
3, 20921, Note_on_c, 0, 82, 0
3, 22080, Note_on_c, 0, 60, 64
3, 22169, Note_on_c, 0, 60, 0
3, 22176, Note_on_c, 0, 58, 64
3, 22265, Note_on_c, 0, 58, 0
3, 22272, Note_on_c, 0, 56, 64
3, 22366, Note_on_c, 0, 56, 0
3, 24864, Note_on_c, 0, 67, 64
3, 24909, Note_on_c, 0, 67, 0
3, 24912, Note_on_c, 0, 65, 64
3, 24957, Note_on_c, 0, 65, 0
3, 32352, Note_on_c, 0, 84, 64
3, 32370, Note_on_c, 0, 84, 0
3, 32370, Note_on_c, 0, 82, 64
3, 32441, Note_on_c, 0, 82, 0
3, 33600, Note_on_c, 0, 60, 64
3, 33689, Note_on_c, 0, 60, 0
3, 33696, Note_on_c, 0, 58, 64
3, 33785, Note_on_c, 0, 58, 0
3, 33792, Note_on_c, 0, 56, 64
3, 33886, Note_on_c, 0, 56, 0
3, 36384, Note_on_c, 0, 67, 64
3, 36429, Note_on_c, 0, 67, 0
3, 36432, Note_on_c, 0, 65, 64
3, 36477, Note_on_c, 0, 65, 0
3, 37632, End_track
4, 0, Start_track
4, 0, Program_c, 1, 0
4, 0, Control_c, 1, 7, 127
4, 0, Control_c, 1, 10, 64
4, 0, Note_on_c, 1, 51, 64
4, 89, Note_on_c, 1, 51, 0
4, 576, Note_on_c, 1, 58, 75
4, 753, Note_on_c, 1, 58, 0
4, 768, Note_on_c, 1, 59, 78
4, 857, Note_on_c, 1, 59, 0
4, 864, Note_on_c, 1, 60, 80
4, 1051, Note_on_c, 1, 60, 0
4, 1248, Note_on_c, 1, 56, 70
4, 1287, Note_on_c, 1, 56, 0
4, 1344, Note_on_c, 1, 53, 70
4, 1383, Note_on_c, 1, 53, 0
4, 1440, Note_on_c, 1, 58, 70
4, 1529, Note_on_c, 1, 58, 0
4, 1536, Note_on_c, 1, 55, 70
4, 1575, Note_on_c, 1, 55, 0
4, 1632, Note_on_c, 1, 51, 70
4, 1671, Note_on_c, 1, 51, 0
4, 1728, Note_on_c, 1, 56, 70
4, 1773, Note_on_c, 1, 56, 0
4, 1776, Note_on_c, 1, 44, 70
4, 1821, Note_on_c, 1, 44, 0
4, 1824, Note_on_c, 1, 44, 70
4, 1869, Note_on_c, 1, 44, 0
4, 1872, Note_on_c, 1, 44, 70
4, 1917, Note_on_c, 1, 44, 0
4, 1920, Note_on_c, 1, 46, 70
4, 1965, Note_on_c, 1, 46, 0
4, 1968, Note_on_c, 1, 46, 70
4, 2013, Note_on_c, 1, 46, 0
4, 2016, Note_on_c, 1, 46, 70
4, 2061, Note_on_c, 1, 46, 0
4, 2064, Note_on_c, 1, 46, 70
4, 2109, Note_on_c, 1, 46, 0
4, 2112, Note_on_c, 1, 46, 70
4, 2157, Note_on_c, 1, 46, 0
4, 2160, Note_on_c, 1, 46, 70
4, 2205, Note_on_c, 1, 46, 0
4, 2208, Note_on_c, 1, 39, 70
4, 2253, Note_on_c, 1, 39, 0
4, 2256, Note_on_c, 1, 39, 70
4, 2301, Note_on_c, 1, 39, 0
4, 2304, Note_on_c, 1, 39, 70
4, 2349, Note_on_c, 1, 39, 0
4, 2352, Note_on_c, 1, 39, 70
4, 2397, Note_on_c, 1, 39, 0
4, 2400, Note_on_c, 1, 39, 70
4, 2445, Note_on_c, 1, 39, 0
4, 2448, Note_on_c, 1, 39, 70
4, 2493, Note_on_c, 1, 39, 0
4, 2496, Note_on_c, 1, 39, 70
4, 2541, Note_on_c, 1, 39, 0
4, 2544, Note_on_c, 1, 39, 70
4, 2589, Note_on_c, 1, 39, 0
4, 2592, Note_on_c, 1, 39, 70
4, 2637, Note_on_c, 1, 39, 0
4, 2640, Note_on_c, 1, 39, 70
4, 2685, Note_on_c, 1, 39, 0
4, 2688, Note_on_c, 1, 39, 70
4, 2733, Note_on_c, 1, 39, 0
4, 2736, Note_on_c, 1, 39, 70
4, 2781, Note_on_c, 1, 39, 0
4, 2784, Note_on_c, 1, 39, 70
4, 2829, Note_on_c, 1, 39, 0
4, 2832, Note_on_c, 1, 39, 70
4, 2877, Note_on_c, 1, 39, 0
4, 2880, Note_on_c, 1, 39, 70
4, 2925, Note_on_c, 1, 39, 0
4, 2928, Note_on_c, 1, 39, 70
4, 2973, Note_on_c, 1, 39, 0
4, 2976, Note_on_c, 1, 39, 70
4, 3021, Note_on_c, 1, 39, 0
4, 3024, Note_on_c, 1, 39, 70
4, 3069, Note_on_c, 1, 39, 0
4, 3072, Note_on_c, 1, 39, 70
4, 3117, Note_on_c, 1, 39, 0
4, 3120, Note_on_c, 1, 39, 70
4, 3165, Note_on_c, 1, 39, 0
4, 3168, Note_on_c, 1, 39, 75
4, 3257, Note_on_c, 1, 39, 0
4, 3264, Note_on_c, 1, 46, 76
4, 3353, Note_on_c, 1, 46, 0
4, 3360, Note_on_c, 1, 47, 78
4, 3449, Note_on_c, 1, 47, 0
4, 3456, Note_on_c, 1, 48, 80
4, 3545, Note_on_c, 1, 48, 0
4, 4032, Note_on_c, 1, 60, 75
4, 4055, Note_on_c, 1, 60, 0
4, 4056, Note_on_c, 1, 57, 75
4, 4079, Note_on_c, 1, 57, 0
4, 4080, Note_on_c, 1, 53, 75
4, 4103, Note_on_c, 1, 53, 0
4, 4104, Note_on_c, 1, 51, 75
4, 4127, Note_on_c, 1, 51, 0
4, 4128, Note_on_c, 1, 50, 75
4, 4151, Note_on_c, 1, 50, 0
4, 4152, Note_on_c, 1, 58, 75
4, 4162, Note_on_c, 1, 58, 0
4, 4176, Note_on_c, 1, 54, 75
4, 4200, Note_on_c, 1, 54, 0
4, 4200, Note_on_c, 1, 55, 75
4, 4223, Note_on_c, 1, 55, 0
4, 4224, Note_on_c, 1, 48, 75
4, 4247, Note_on_c, 1, 48, 0
4, 4248, Note_on_c, 1, 50, 75
4, 4271, Note_on_c, 1, 50, 0
4, 4272, Note_on_c, 1, 51, 75
4, 4295, Note_on_c, 1, 51, 0
4, 4296, Note_on_c, 1, 50, 75
4, 4319, Note_on_c, 1, 50, 0
4, 4320, Note_on_c, 1, 48, 75
4, 4343, Note_on_c, 1, 48, 0
4, 4344, Note_on_c, 1, 50, 75
4, 4367, Note_on_c, 1, 50, 0
4, 4368, Note_on_c, 1, 51, 75
4, 4391, Note_on_c, 1, 51, 0
4, 4392, Note_on_c, 1, 50, 76
4, 4415, Note_on_c, 1, 50, 0
4, 4416, Note_on_c, 1, 48, 76
4, 4439, Note_on_c, 1, 48, 0
4, 4440, Note_on_c, 1, 50, 77
4, 4463, Note_on_c, 1, 50, 0
4, 4464, Note_on_c, 1, 51, 77
4, 4487, Note_on_c, 1, 51, 0
4, 4488, Note_on_c, 1, 48, 77
4, 4511, Note_on_c, 1, 48, 0
4, 4512, Note_on_c, 1, 46, 78
4, 4535, Note_on_c, 1, 46, 0
4, 4536, Note_on_c, 1, 50, 78
4, 4559, Note_on_c, 1, 50, 0
4, 4560, Note_on_c, 1, 51, 79
4, 4583, Note_on_c, 1, 51, 0
4, 4584, Note_on_c, 1, 46, 79
4, 4607, Note_on_c, 1, 46, 0
4, 4608, Note_on_c, 1, 45, 80
4, 4614, Note_on_c, 1, 48, 80
4, 4620, Note_on_c, 1, 53, 80
4, 4626, Note_on_c, 1, 57, 80
4, 4679, Note_on_c, 1, 57, 0
4, 4679, Note_on_c, 1, 53, 0
4, 4679, Note_on_c, 1, 48, 0
4, 4679, Note_on_c, 1, 45, 0
4, 4704, Note_on_c, 1, 46, 80
4, 4749, Note_on_c, 1, 46, 0
4, 4752, Note_on_c, 1, 51, 81
4, 4797, Note_on_c, 1, 51, 0
4, 4800, Note_on_c, 1, 53, 83
4, 4845, Note_on_c, 1, 53, 0
4, 4848, Note_on_c, 1, 54, 84
4, 4893, Note_on_c, 1, 54, 0
4, 4896, Note_on_c, 1, 55, 86
4, 4941, Note_on_c, 1, 55, 0
4, 4944, Note_on_c, 1, 52, 86
4, 4944, Note_on_c, 1, 48, 86
4, 5033, Note_on_c, 1, 52, 0
4, 5033, Note_on_c, 1, 48, 0
4, 5112, Note_on_c, 1, 51, 64
4, 5112, Note_on_c, 1, 48, 64
4, 5135, Note_on_c, 1, 51, 0
4, 5135, Note_on_c, 1, 48, 0
4, 5136, Note_on_c, 1, 53, 64
4, 5136, Note_on_c, 1, 50, 64
4, 5159, Note_on_c, 1, 53, 0
4, 5159, Note_on_c, 1, 50, 0
4, 5160, Note_on_c, 1, 55, 64
4, 5160, Note_on_c, 1, 51, 64
4, 5183, Note_on_c, 1, 55, 0
4, 5183, Note_on_c, 1, 51, 0
4, 5184, Note_on_c, 1, 50, 64
4, 5184, Note_on_c, 1, 46, 64
4, 5229, Note_on_c, 1, 50, 0
4, 5229, Note_on_c, 1, 46, 0
4, 5568, Note_on_c, 1, 51, 80
4, 5591, Note_on_c, 1, 51, 0
4, 5592, Note_on_c, 1, 50, 80
4, 5615, Note_on_c, 1, 50, 0
4, 5616, Note_on_c, 1, 60, 80
4, 5616, Note_on_c, 1, 48, 80
4, 5639, Note_on_c, 1, 60, 0
4, 5639, Note_on_c, 1, 48, 0
4, 5640, Note_on_c, 1, 58, 80
4, 5640, Note_on_c, 1, 46, 80
4, 5663, Note_on_c, 1, 58, 0
4, 5663, Note_on_c, 1, 46, 0
4, 5664, Note_on_c, 1, 57, 80
4, 5664, Note_on_c, 1, 45, 80
4, 5687, Note_on_c, 1, 57, 0
4, 5687, Note_on_c, 1, 45, 0
4, 5688, Note_on_c, 1, 55, 80
4, 5688, Note_on_c, 1, 43, 80
4, 5711, Note_on_c, 1, 55, 0
4, 5711, Note_on_c, 1, 43, 0
4, 5712, Note_on_c, 1, 53, 80
4, 5712, Note_on_c, 1, 41, 80
4, 5735, Note_on_c, 1, 53, 0
4, 5735, Note_on_c, 1, 41, 0
4, 5736, Note_on_c, 1, 51, 80
4, 5736, Note_on_c, 1, 39, 80
4, 5759, Note_on_c, 1, 51, 0
4, 5759, Note_on_c, 1, 39, 0
4, 5760, Note_on_c, 1, 50, 80
4, 5760, Note_on_c, 1, 38, 80
4, 5805, Note_on_c, 1, 50, 0
4, 5805, Note_on_c, 1, 38, 0
4, 5808, Note_on_c, 1, 59, 75
4, 5808, Note_on_c, 1, 47, 75
4, 5853, Note_on_c, 1, 59, 0
4, 5853, Note_on_c, 1, 47, 0
4, 5856, Note_on_c, 1, 60, 75
4, 5856, Note_on_c, 1, 48, 75
4, 5901, Note_on_c, 1, 60, 0
4, 5901, Note_on_c, 1, 48, 0
4, 5904, Note_on_c, 1, 57, 75
4, 5904, Note_on_c, 1, 45, 75
4, 5949, Note_on_c, 1, 57, 0
4, 5949, Note_on_c, 1, 45, 0
4, 5952, Note_on_c, 1, 58, 75
4, 5952, Note_on_c, 1, 46, 75
4, 5997, Note_on_c, 1, 58, 0
4, 5997, Note_on_c, 1, 46, 0
4, 6000, Note_on_c, 1, 51, 75
4, 6000, Note_on_c, 1, 39, 75
4, 6045, Note_on_c, 1, 51, 0
4, 6045, Note_on_c, 1, 39, 0
4, 6048, Note_on_c, 1, 53, 75
4, 6048, Note_on_c, 1, 41, 75
4, 6071, Note_on_c, 1, 53, 0
4, 6071, Note_on_c, 1, 41, 0
4, 6072, Note_on_c, 1, 54, 75
4, 6072, Note_on_c, 1, 42, 75
4, 6095, Note_on_c, 1, 54, 0
4, 6095, Note_on_c, 1, 42, 0
4, 6096, Note_on_c, 1, 55, 75
4, 6096, Note_on_c, 1, 43, 75
4, 6119, Note_on_c, 1, 55, 0
4, 6119, Note_on_c, 1, 43, 0
4, 6120, Note_on_c, 1, 50, 76
4, 6120, Note_on_c, 1, 38, 76
4, 6143, Note_on_c, 1, 50, 0
4, 6143, Note_on_c, 1, 38, 0
4, 6144, Note_on_c, 1, 51, 76
4, 6144, Note_on_c, 1, 39, 76
4, 6167, Note_on_c, 1, 51, 0
4, 6167, Note_on_c, 1, 39, 0
4, 6168, Note_on_c, 1, 52, 77
4, 6168, Note_on_c, 1, 40, 77
4, 6191, Note_on_c, 1, 52, 0
4, 6191, Note_on_c, 1, 40, 0
4, 6192, Note_on_c, 1, 53, 77
4, 6192, Note_on_c, 1, 41, 77
4, 6325, Note_on_c, 1, 53, 0
4, 6325, Note_on_c, 1, 41, 0
4, 6624, Note_on_c, 1, 63, 80
4, 6624, Note_on_c, 1, 57, 80
4, 6624, Note_on_c, 1, 53, 80
4, 6713, Note_on_c, 1, 63, 0
4, 6713, Note_on_c, 1, 57, 0
4, 6713, Note_on_c, 1, 53, 0
4, 6720, Note_on_c, 1, 58, 80
4, 6765, Note_on_c, 1, 58, 0
4, 6768, Note_on_c, 1, 46, 77
4, 6813, Note_on_c, 1, 46, 0
4, 6816, Note_on_c, 1, 46, 74
4, 6861, Note_on_c, 1, 46, 0
4, 6864, Note_on_c, 1, 46, 72
4, 6909, Note_on_c, 1, 46, 0
4, 6912, Note_on_c, 1, 46, 69
4, 6957, Note_on_c, 1, 46, 0
4, 6960, Note_on_c, 1, 46, 66
4, 7005, Note_on_c, 1, 46, 0
4, 7008, Note_on_c, 1, 46, 64
4, 7185, Note_on_c, 1, 46, 0
4, 7296, Note_on_c, 1, 51, 64
4, 7385, Note_on_c, 1, 51, 0
4, 7872, Note_on_c, 1, 58, 75
4, 8049, Note_on_c, 1, 58, 0
4, 8064, Note_on_c, 1, 59, 78
4, 8153, Note_on_c, 1, 59, 0
4, 8160, Note_on_c, 1, 60, 80
4, 8347, Note_on_c, 1, 60, 0
4, 8544, Note_on_c, 1, 56, 70
4, 8583, Note_on_c, 1, 56, 0
4, 8640, Note_on_c, 1, 53, 70
4, 8679, Note_on_c, 1, 53, 0
4, 8736, Note_on_c, 1, 58, 70
4, 8825, Note_on_c, 1, 58, 0
4, 8832, Note_on_c, 1, 55, 70
4, 8871, Note_on_c, 1, 55, 0
4, 8928, Note_on_c, 1, 51, 70
4, 8967, Note_on_c, 1, 51, 0
4, 9024, Note_on_c, 1, 56, 70
4, 9069, Note_on_c, 1, 56, 0
4, 9072, Note_on_c, 1, 44, 70
4, 9117, Note_on_c, 1, 44, 0
4, 9120, Note_on_c, 1, 44, 70
4, 9165, Note_on_c, 1, 44, 0
4, 9168, Note_on_c, 1, 44, 70
4, 9213, Note_on_c, 1, 44, 0
4, 9216, Note_on_c, 1, 46, 70
4, 9261, Note_on_c, 1, 46, 0
4, 9264, Note_on_c, 1, 46, 70
4, 9309, Note_on_c, 1, 46, 0
4, 9312, Note_on_c, 1, 46, 70
4, 9357, Note_on_c, 1, 46, 0
4, 9360, Note_on_c, 1, 46, 70
4, 9405, Note_on_c, 1, 46, 0
4, 9408, Note_on_c, 1, 46, 70
4, 9453, Note_on_c, 1, 46, 0
4, 9456, Note_on_c, 1, 46, 70
4, 9501, Note_on_c, 1, 46, 0
4, 9504, Note_on_c, 1, 39, 70
4, 9549, Note_on_c, 1, 39, 0
4, 9552, Note_on_c, 1, 39, 70
4, 9597, Note_on_c, 1, 39, 0
4, 9600, Note_on_c, 1, 39, 70
4, 9645, Note_on_c, 1, 39, 0
4, 9648, Note_on_c, 1, 39, 70
4, 9693, Note_on_c, 1, 39, 0
4, 9696, Note_on_c, 1, 39, 70
4, 9741, Note_on_c, 1, 39, 0
4, 9744, Note_on_c, 1, 39, 70
4, 9789, Note_on_c, 1, 39, 0
4, 9792, Note_on_c, 1, 39, 70
4, 9837, Note_on_c, 1, 39, 0
4, 9840, Note_on_c, 1, 39, 70
4, 9885, Note_on_c, 1, 39, 0
4, 9888, Note_on_c, 1, 39, 70
4, 9933, Note_on_c, 1, 39, 0
4, 9936, Note_on_c, 1, 39, 70
4, 9981, Note_on_c, 1, 39, 0
4, 9984, Note_on_c, 1, 39, 70
4, 10029, Note_on_c, 1, 39, 0
4, 10032, Note_on_c, 1, 39, 70
4, 10077, Note_on_c, 1, 39, 0
4, 10080, Note_on_c, 1, 39, 70
4, 10125, Note_on_c, 1, 39, 0
4, 10128, Note_on_c, 1, 39, 70
4, 10173, Note_on_c, 1, 39, 0
4, 10176, Note_on_c, 1, 39, 70
4, 10221, Note_on_c, 1, 39, 0
4, 10224, Note_on_c, 1, 39, 70
4, 10269, Note_on_c, 1, 39, 0
4, 10272, Note_on_c, 1, 39, 70
4, 10317, Note_on_c, 1, 39, 0
4, 10320, Note_on_c, 1, 39, 70
4, 10365, Note_on_c, 1, 39, 0
4, 10368, Note_on_c, 1, 39, 70
4, 10413, Note_on_c, 1, 39, 0
4, 10416, Note_on_c, 1, 39, 70
4, 10461, Note_on_c, 1, 39, 0
4, 10464, Note_on_c, 1, 39, 75
4, 10553, Note_on_c, 1, 39, 0
4, 10560, Note_on_c, 1, 46, 76
4, 10649, Note_on_c, 1, 46, 0
4, 10656, Note_on_c, 1, 47, 78
4, 10745, Note_on_c, 1, 47, 0
4, 10752, Note_on_c, 1, 48, 80
4, 10841, Note_on_c, 1, 48, 0
4, 11328, Note_on_c, 1, 60, 75
4, 11351, Note_on_c, 1, 60, 0
4, 11352, Note_on_c, 1, 57, 75
4, 11375, Note_on_c, 1, 57, 0
4, 11376, Note_on_c, 1, 53, 75
4, 11399, Note_on_c, 1, 53, 0
4, 11400, Note_on_c, 1, 51, 75
4, 11423, Note_on_c, 1, 51, 0
4, 11424, Note_on_c, 1, 50, 75
4, 11447, Note_on_c, 1, 50, 0
4, 11448, Note_on_c, 1, 58, 75
4, 11458, Note_on_c, 1, 58, 0
4, 11472, Note_on_c, 1, 54, 75
4, 11496, Note_on_c, 1, 54, 0
4, 11496, Note_on_c, 1, 55, 75
4, 11519, Note_on_c, 1, 55, 0
4, 11520, Note_on_c, 1, 48, 75
4, 11543, Note_on_c, 1, 48, 0
4, 11544, Note_on_c, 1, 50, 75
4, 11567, Note_on_c, 1, 50, 0
4, 11568, Note_on_c, 1, 51, 75
4, 11591, Note_on_c, 1, 51, 0
4, 11592, Note_on_c, 1, 50, 75
4, 11615, Note_on_c, 1, 50, 0
4, 11616, Note_on_c, 1, 48, 75
4, 11639, Note_on_c, 1, 48, 0
4, 11640, Note_on_c, 1, 50, 75
4, 11663, Note_on_c, 1, 50, 0
4, 11664, Note_on_c, 1, 51, 75
4, 11687, Note_on_c, 1, 51, 0
4, 11688, Note_on_c, 1, 50, 76
4, 11711, Note_on_c, 1, 50, 0
4, 11712, Note_on_c, 1, 48, 76
4, 11735, Note_on_c, 1, 48, 0
4, 11736, Note_on_c, 1, 50, 77
4, 11759, Note_on_c, 1, 50, 0
4, 11760, Note_on_c, 1, 51, 77
4, 11783, Note_on_c, 1, 51, 0
4, 11784, Note_on_c, 1, 48, 77
4, 11807, Note_on_c, 1, 48, 0
4, 11808, Note_on_c, 1, 46, 78
4, 11831, Note_on_c, 1, 46, 0
4, 11832, Note_on_c, 1, 50, 78
4, 11855, Note_on_c, 1, 50, 0
4, 11856, Note_on_c, 1, 51, 79
4, 11879, Note_on_c, 1, 51, 0
4, 11880, Note_on_c, 1, 46, 79
4, 11903, Note_on_c, 1, 46, 0
4, 11904, Note_on_c, 1, 45, 80
4, 11910, Note_on_c, 1, 48, 80
4, 11916, Note_on_c, 1, 53, 80
4, 11922, Note_on_c, 1, 57, 80
4, 11975, Note_on_c, 1, 57, 0
4, 11975, Note_on_c, 1, 53, 0
4, 11975, Note_on_c, 1, 48, 0
4, 11975, Note_on_c, 1, 45, 0
4, 12000, Note_on_c, 1, 46, 80
4, 12045, Note_on_c, 1, 46, 0
4, 12048, Note_on_c, 1, 51, 81
4, 12093, Note_on_c, 1, 51, 0
4, 12096, Note_on_c, 1, 53, 83
4, 12141, Note_on_c, 1, 53, 0
4, 12144, Note_on_c, 1, 54, 84
4, 12189, Note_on_c, 1, 54, 0
4, 12192, Note_on_c, 1, 55, 86
4, 12237, Note_on_c, 1, 55, 0
4, 12240, Note_on_c, 1, 52, 86
4, 12240, Note_on_c, 1, 48, 86
4, 12329, Note_on_c, 1, 52, 0
4, 12329, Note_on_c, 1, 48, 0
4, 12408, Note_on_c, 1, 51, 64
4, 12408, Note_on_c, 1, 48, 64
4, 12431, Note_on_c, 1, 51, 0
4, 12431, Note_on_c, 1, 48, 0
4, 12432, Note_on_c, 1, 53, 64
4, 12432, Note_on_c, 1, 50, 64
4, 12455, Note_on_c, 1, 53, 0
4, 12455, Note_on_c, 1, 50, 0
4, 12456, Note_on_c, 1, 55, 64
4, 12456, Note_on_c, 1, 51, 64
4, 12479, Note_on_c, 1, 55, 0
4, 12479, Note_on_c, 1, 51, 0
4, 12480, Note_on_c, 1, 50, 64
4, 12480, Note_on_c, 1, 46, 64
4, 12525, Note_on_c, 1, 50, 0
4, 12525, Note_on_c, 1, 46, 0
4, 12864, Note_on_c, 1, 51, 80
4, 12887, Note_on_c, 1, 51, 0
4, 12888, Note_on_c, 1, 50, 80
4, 12911, Note_on_c, 1, 50, 0
4, 12912, Note_on_c, 1, 60, 80
4, 12912, Note_on_c, 1, 48, 80
4, 12935, Note_on_c, 1, 60, 0
4, 12935, Note_on_c, 1, 48, 0
4, 12936, Note_on_c, 1, 58, 80
4, 12936, Note_on_c, 1, 46, 80
4, 12959, Note_on_c, 1, 58, 0
4, 12959, Note_on_c, 1, 46, 0
4, 12960, Note_on_c, 1, 57, 80
4, 12960, Note_on_c, 1, 45, 80
4, 12983, Note_on_c, 1, 57, 0
4, 12983, Note_on_c, 1, 45, 0
4, 12984, Note_on_c, 1, 55, 80
4, 12984, Note_on_c, 1, 43, 80
4, 13007, Note_on_c, 1, 55, 0
4, 13007, Note_on_c, 1, 43, 0
4, 13008, Note_on_c, 1, 53, 80
4, 13008, Note_on_c, 1, 41, 80
4, 13031, Note_on_c, 1, 53, 0
4, 13031, Note_on_c, 1, 41, 0
4, 13032, Note_on_c, 1, 51, 80
4, 13032, Note_on_c, 1, 39, 80
4, 13055, Note_on_c, 1, 51, 0
4, 13055, Note_on_c, 1, 39, 0
4, 13056, Note_on_c, 1, 50, 80
4, 13056, Note_on_c, 1, 38, 80
4, 13101, Note_on_c, 1, 50, 0
4, 13101, Note_on_c, 1, 38, 0
4, 13104, Note_on_c, 1, 59, 75
4, 13104, Note_on_c, 1, 47, 75
4, 13149, Note_on_c, 1, 59, 0
4, 13149, Note_on_c, 1, 47, 0
4, 13152, Note_on_c, 1, 60, 75
4, 13152, Note_on_c, 1, 48, 75
4, 13197, Note_on_c, 1, 60, 0
4, 13197, Note_on_c, 1, 48, 0
4, 13200, Note_on_c, 1, 57, 75
4, 13200, Note_on_c, 1, 45, 75
4, 13245, Note_on_c, 1, 57, 0
4, 13245, Note_on_c, 1, 45, 0
4, 13248, Note_on_c, 1, 58, 75
4, 13248, Note_on_c, 1, 46, 75
4, 13293, Note_on_c, 1, 58, 0
4, 13293, Note_on_c, 1, 46, 0
4, 13296, Note_on_c, 1, 51, 75
4, 13296, Note_on_c, 1, 39, 75
4, 13341, Note_on_c, 1, 51, 0
4, 13341, Note_on_c, 1, 39, 0
4, 13344, Note_on_c, 1, 53, 75
4, 13344, Note_on_c, 1, 41, 75
4, 13367, Note_on_c, 1, 53, 0
4, 13367, Note_on_c, 1, 41, 0
4, 13368, Note_on_c, 1, 54, 75
4, 13368, Note_on_c, 1, 42, 75
4, 13391, Note_on_c, 1, 54, 0
4, 13391, Note_on_c, 1, 42, 0
4, 13392, Note_on_c, 1, 55, 75
4, 13392, Note_on_c, 1, 43, 75
4, 13415, Note_on_c, 1, 55, 0
4, 13415, Note_on_c, 1, 43, 0
4, 13416, Note_on_c, 1, 50, 76
4, 13416, Note_on_c, 1, 38, 76
4, 13439, Note_on_c, 1, 50, 0
4, 13439, Note_on_c, 1, 38, 0
4, 13440, Note_on_c, 1, 51, 76
4, 13440, Note_on_c, 1, 39, 76
4, 13463, Note_on_c, 1, 51, 0
4, 13463, Note_on_c, 1, 39, 0
4, 13464, Note_on_c, 1, 52, 77
4, 13464, Note_on_c, 1, 40, 77
4, 13487, Note_on_c, 1, 52, 0
4, 13487, Note_on_c, 1, 40, 0
4, 13488, Note_on_c, 1, 53, 77
4, 13488, Note_on_c, 1, 41, 77
4, 13621, Note_on_c, 1, 53, 0
4, 13621, Note_on_c, 1, 41, 0
4, 13920, Note_on_c, 1, 63, 80
4, 13920, Note_on_c, 1, 57, 80
4, 13920, Note_on_c, 1, 53, 80
4, 14009, Note_on_c, 1, 63, 0
4, 14009, Note_on_c, 1, 57, 0
4, 14009, Note_on_c, 1, 53, 0
4, 14016, Note_on_c, 1, 58, 80
4, 14061, Note_on_c, 1, 58, 0
4, 14064, Note_on_c, 1, 46, 77
4, 14109, Note_on_c, 1, 46, 0
4, 14112, Note_on_c, 1, 46, 74
4, 14157, Note_on_c, 1, 46, 0
4, 14160, Note_on_c, 1, 46, 72
4, 14205, Note_on_c, 1, 46, 0
4, 14208, Note_on_c, 1, 46, 69
4, 14253, Note_on_c, 1, 46, 0
4, 14256, Note_on_c, 1, 46, 66
4, 14301, Note_on_c, 1, 46, 0
4, 14304, Note_on_c, 1, 46, 64
4, 14481, Note_on_c, 1, 46, 0
4, 14592, Note_on_c, 1, 53, 75
4, 14592, Note_on_c, 1, 50, 75
4, 14681, Note_on_c, 1, 53, 0
4, 14681, Note_on_c, 1, 50, 0
4, 14688, Note_on_c, 1, 56, 75
4, 14688, Note_on_c, 1, 53, 75
4, 14777, Note_on_c, 1, 56, 0
4, 14777, Note_on_c, 1, 53, 0
4, 14784, Note_on_c, 1, 55, 75
4, 14784, Note_on_c, 1, 51, 75
4, 14873, Note_on_c, 1, 55, 0
4, 14873, Note_on_c, 1, 51, 0
4, 14880, Note_on_c, 1, 53, 75
4, 14880, Note_on_c, 1, 50, 75
4, 14969, Note_on_c, 1, 53, 0
4, 14969, Note_on_c, 1, 50, 0
4, 14976, Note_on_c, 1, 55, 75
4, 14976, Note_on_c, 1, 51, 75
4, 15065, Note_on_c, 1, 55, 0
4, 15065, Note_on_c, 1, 51, 0
4, 15168, Note_on_c, 1, 67, 75
4, 15168, Note_on_c, 1, 64, 75
4, 15257, Note_on_c, 1, 67, 0
4, 15257, Note_on_c, 1, 64, 0
4, 15264, Note_on_c, 1, 73, 75
4, 15264, Note_on_c, 1, 70, 75
4, 15353, Note_on_c, 1, 73, 0
4, 15353, Note_on_c, 1, 70, 0
4, 15360, Note_on_c, 1, 72, 75
4, 15360, Note_on_c, 1, 68, 75
4, 15449, Note_on_c, 1, 72, 0
4, 15449, Note_on_c, 1, 68, 0
4, 15456, Note_on_c, 1, 70, 75
4, 15456, Note_on_c, 1, 67, 75
4, 15545, Note_on_c, 1, 70, 0
4, 15545, Note_on_c, 1, 67, 0
4, 15552, Note_on_c, 1, 68, 75
4, 15552, Note_on_c, 1, 65, 75
4, 15641, Note_on_c, 1, 68, 0
4, 15641, Note_on_c, 1, 65, 0
4, 15696, Note_on_c, 1, 44, 75
4, 15741, Note_on_c, 1, 44, 0
4, 15792, Note_on_c, 1, 56, 91
4, 15864, Note_on_c, 1, 56, 0
4, 15864, Note_on_c, 1, 55, 75
4, 15887, Note_on_c, 1, 55, 0
4, 15888, Note_on_c, 1, 53, 75
4, 15955, Note_on_c, 1, 53, 0
4, 15960, Note_on_c, 1, 51, 75
4, 15983, Note_on_c, 1, 51, 0
4, 15984, Note_on_c, 1, 50, 75
4, 16007, Note_on_c, 1, 50, 0
4, 16008, Note_on_c, 1, 48, 75
4, 16031, Note_on_c, 1, 48, 0
4, 16032, Note_on_c, 1, 47, 75
4, 16077, Note_on_c, 1, 47, 0
4, 16080, Note_on_c, 1, 55, 91
4, 16086, Note_on_c, 1, 55, 0
4, 16086, Note_on_c, 1, 56, 91
4, 16092, Note_on_c, 1, 56, 0
4, 16092, Note_on_c, 1, 55, 91
4, 16152, Note_on_c, 1, 55, 0
4, 16152, Note_on_c, 1, 53, 75
4, 16175, Note_on_c, 1, 53, 0
4, 16176, Note_on_c, 1, 51, 75
4, 16243, Note_on_c, 1, 51, 0
4, 16248, Note_on_c, 1, 50, 75
4, 16271, Note_on_c, 1, 50, 0
4, 16272, Note_on_c, 1, 48, 75
4, 16295, Note_on_c, 1, 48, 0
4, 16296, Note_on_c, 1, 46, 75
4, 16319, Note_on_c, 1, 46, 0
4, 16320, Note_on_c, 1, 44, 75
4, 16365, Note_on_c, 1, 44, 0
4, 16368, Note_on_c, 1, 53, 91
4, 16374, Note_on_c, 1, 53, 0
4, 16374, Note_on_c, 1, 55, 91
4, 16380, Note_on_c, 1, 55, 0
4, 16380, Note_on_c, 1, 53, 91
4, 16440, Note_on_c, 1, 53, 0
4, 16440, Note_on_c, 1, 53, 75
4, 16463, Note_on_c, 1, 53, 0
4, 16464, Note_on_c, 1, 51, 75
4, 16487, Note_on_c, 1, 51, 0
4, 16488, Note_on_c, 1, 50, 75
4, 16511, Note_on_c, 1, 50, 0
4, 16512, Note_on_c, 1, 48, 75
4, 16535, Note_on_c, 1, 48, 0
4, 16536, Note_on_c, 1, 46, 75
4, 16559, Note_on_c, 1, 46, 0
4, 16560, Note_on_c, 1, 44, 75
4, 16583, Note_on_c, 1, 44, 0
4, 16584, Note_on_c, 1, 43, 75
4, 16607, Note_on_c, 1, 43, 0
4, 16608, Note_on_c, 1, 42, 75
4, 16614, Note_on_c, 1, 45, 75
4, 16620, Note_on_c, 1, 48, 75
4, 16626, Note_on_c, 1, 51, 75
4, 16701, Note_on_c, 1, 51, 0
4, 16701, Note_on_c, 1, 48, 0
4, 16701, Note_on_c, 1, 45, 0
4, 16701, Note_on_c, 1, 42, 0
4, 16896, Note_on_c, 1, 43, 75
4, 17073, Note_on_c, 1, 43, 0
4, 17184, Note_on_c, 1, 43, 64
4, 17184, Note_on_c, 1, 31, 64
4, 17229, Note_on_c, 1, 43, 0
4, 17229, Note_on_c, 1, 31, 0
4, 17232, Note_on_c, 1, 43, 64
4, 17232, Note_on_c, 1, 31, 64
4, 17277, Note_on_c, 1, 43, 0
4, 17277, Note_on_c, 1, 31, 0
4, 17280, Note_on_c, 1, 43, 64
4, 17280, Note_on_c, 1, 31, 64
4, 17325, Note_on_c, 1, 43, 0
4, 17325, Note_on_c, 1, 31, 0
4, 17328, Note_on_c, 1, 43, 64
4, 17328, Note_on_c, 1, 31, 64
4, 17373, Note_on_c, 1, 43, 0
4, 17373, Note_on_c, 1, 31, 0
4, 17376, Note_on_c, 1, 43, 64
4, 17376, Note_on_c, 1, 31, 64
4, 17421, Note_on_c, 1, 43, 0
4, 17421, Note_on_c, 1, 31, 0
4, 17424, Note_on_c, 1, 43, 64
4, 17424, Note_on_c, 1, 31, 64
4, 17469, Note_on_c, 1, 43, 0
4, 17469, Note_on_c, 1, 31, 0
4, 17472, Note_on_c, 1, 43, 64
4, 17472, Note_on_c, 1, 31, 64
4, 17517, Note_on_c, 1, 43, 0
4, 17517, Note_on_c, 1, 31, 0
4, 17520, Note_on_c, 1, 43, 64
4, 17520, Note_on_c, 1, 31, 64
4, 17565, Note_on_c, 1, 43, 0
4, 17565, Note_on_c, 1, 31, 0
4, 17568, Note_on_c, 1, 43, 64
4, 17568, Note_on_c, 1, 31, 64
4, 17613, Note_on_c, 1, 43, 0
4, 17613, Note_on_c, 1, 31, 0
4, 17616, Note_on_c, 1, 43, 64
4, 17616, Note_on_c, 1, 31, 64
4, 17661, Note_on_c, 1, 43, 0
4, 17661, Note_on_c, 1, 31, 0
4, 17664, Note_on_c, 1, 43, 64
4, 17664, Note_on_c, 1, 31, 64
4, 17709, Note_on_c, 1, 43, 0
4, 17709, Note_on_c, 1, 31, 0
4, 17712, Note_on_c, 1, 43, 64
4, 17712, Note_on_c, 1, 31, 64
4, 17757, Note_on_c, 1, 43, 0
4, 17757, Note_on_c, 1, 31, 0
4, 17760, Note_on_c, 1, 43, 64
4, 17760, Note_on_c, 1, 31, 64
4, 17805, Note_on_c, 1, 43, 0
4, 17805, Note_on_c, 1, 31, 0
4, 17808, Note_on_c, 1, 43, 64
4, 17808, Note_on_c, 1, 31, 64
4, 17853, Note_on_c, 1, 43, 0
4, 17853, Note_on_c, 1, 31, 0
4, 17856, Note_on_c, 1, 43, 64
4, 17856, Note_on_c, 1, 31, 64
4, 17901, Note_on_c, 1, 43, 0
4, 17901, Note_on_c, 1, 31, 0
4, 17904, Note_on_c, 1, 43, 64
4, 17904, Note_on_c, 1, 31, 64
4, 17949, Note_on_c, 1, 43, 0
4, 17949, Note_on_c, 1, 31, 0
4, 17952, Note_on_c, 1, 43, 64
4, 17952, Note_on_c, 1, 31, 64
4, 17997, Note_on_c, 1, 43, 0
4, 17997, Note_on_c, 1, 31, 0
4, 18000, Note_on_c, 1, 43, 64
4, 18000, Note_on_c, 1, 31, 64
4, 18045, Note_on_c, 1, 43, 0
4, 18045, Note_on_c, 1, 31, 0
4, 18048, Note_on_c, 1, 43, 64
4, 18048, Note_on_c, 1, 31, 64
4, 18093, Note_on_c, 1, 43, 0
4, 18093, Note_on_c, 1, 31, 0
4, 18096, Note_on_c, 1, 43, 65
4, 18096, Note_on_c, 1, 31, 65
4, 18141, Note_on_c, 1, 43, 0
4, 18141, Note_on_c, 1, 31, 0
4, 18144, Note_on_c, 1, 43, 66
4, 18144, Note_on_c, 1, 31, 66
4, 18189, Note_on_c, 1, 43, 0
4, 18189, Note_on_c, 1, 31, 0
4, 18192, Note_on_c, 1, 43, 67
4, 18192, Note_on_c, 1, 31, 67
4, 18237, Note_on_c, 1, 43, 0
4, 18237, Note_on_c, 1, 31, 0
4, 18240, Note_on_c, 1, 43, 68
4, 18240, Note_on_c, 1, 31, 68
4, 18285, Note_on_c, 1, 43, 0
4, 18285, Note_on_c, 1, 31, 0
4, 18288, Note_on_c, 1, 43, 70
4, 18288, Note_on_c, 1, 31, 70
4, 18333, Note_on_c, 1, 43, 0
4, 18333, Note_on_c, 1, 31, 0
4, 18336, Note_on_c, 1, 43, 71
4, 18336, Note_on_c, 1, 31, 71
4, 18381, Note_on_c, 1, 43, 0
4, 18381, Note_on_c, 1, 31, 0
4, 18384, Note_on_c, 1, 43, 72
4, 18384, Note_on_c, 1, 31, 72
4, 18429, Note_on_c, 1, 43, 0
4, 18429, Note_on_c, 1, 31, 0
4, 18432, Note_on_c, 1, 43, 73
4, 18432, Note_on_c, 1, 31, 73
4, 18477, Note_on_c, 1, 43, 0
4, 18477, Note_on_c, 1, 31, 0
4, 18480, Note_on_c, 1, 43, 75
4, 18480, Note_on_c, 1, 31, 75
4, 18525, Note_on_c, 1, 43, 0
4, 18525, Note_on_c, 1, 31, 0
4, 18528, Note_on_c, 1, 43, 76
4, 18528, Note_on_c, 1, 31, 76
4, 18573, Note_on_c, 1, 43, 0
4, 18573, Note_on_c, 1, 31, 0
4, 18576, Note_on_c, 1, 43, 77
4, 18576, Note_on_c, 1, 31, 77
4, 18621, Note_on_c, 1, 43, 0
4, 18621, Note_on_c, 1, 31, 0
4, 18624, Note_on_c, 1, 43, 78
4, 18624, Note_on_c, 1, 31, 78
4, 18669, Note_on_c, 1, 43, 0
4, 18669, Note_on_c, 1, 31, 0
4, 18672, Note_on_c, 1, 43, 79
4, 18672, Note_on_c, 1, 31, 79
4, 18717, Note_on_c, 1, 43, 0
4, 18717, Note_on_c, 1, 31, 0
4, 18720, Note_on_c, 1, 43, 81
4, 18720, Note_on_c, 1, 31, 81
4, 18765, Note_on_c, 1, 43, 0
4, 18765, Note_on_c, 1, 31, 0
4, 18768, Note_on_c, 1, 43, 82
4, 18768, Note_on_c, 1, 31, 82
4, 18813, Note_on_c, 1, 43, 0
4, 18813, Note_on_c, 1, 31, 0
4, 18816, Note_on_c, 1, 43, 83
4, 18816, Note_on_c, 1, 31, 83
4, 18861, Note_on_c, 1, 43, 0
4, 18861, Note_on_c, 1, 31, 0
4, 18864, Note_on_c, 1, 43, 84
4, 18864, Note_on_c, 1, 31, 84
4, 18909, Note_on_c, 1, 43, 0
4, 18909, Note_on_c, 1, 31, 0
4, 18912, Note_on_c, 1, 42, 86
4, 18912, Note_on_c, 1, 30, 86
4, 19001, Note_on_c, 1, 42, 0
4, 19001, Note_on_c, 1, 30, 0
4, 19200, Note_on_c, 1, 49, 86
4, 19200, Note_on_c, 1, 37, 86
4, 19239, Note_on_c, 1, 49, 0
4, 19239, Note_on_c, 1, 37, 0
4, 19296, Note_on_c, 1, 50, 86
4, 19296, Note_on_c, 1, 38, 86
4, 19335, Note_on_c, 1, 50, 0
4, 19335, Note_on_c, 1, 38, 0
4, 19488, Note_on_c, 1, 46, 75
4, 19577, Note_on_c, 1, 46, 0
4, 20064, Note_on_c, 1, 58, 64
4, 20241, Note_on_c, 1, 58, 0
4, 20256, Note_on_c, 1, 63, 64
4, 20529, Note_on_c, 1, 63, 0
4, 20640, Note_on_c, 1, 75, 75
4, 20832, Note_on_c, 1, 75, 0
4, 20832, Note_on_c, 1, 76, 78
4, 20921, Note_on_c, 1, 76, 0
4, 20928, Note_on_c, 1, 77, 80
4, 21115, Note_on_c, 1, 77, 0
4, 21312, Note_on_c, 1, 61, 70
4, 21351, Note_on_c, 1, 61, 0
4, 21408, Note_on_c, 1, 58, 70
4, 21447, Note_on_c, 1, 58, 0
4, 21504, Note_on_c, 1, 51, 70
4, 21593, Note_on_c, 1, 51, 0
4, 21600, Note_on_c, 1, 60, 70
4, 21639, Note_on_c, 1, 60, 0
4, 21696, Note_on_c, 1, 56, 70
4, 21735, Note_on_c, 1, 56, 0
4, 21792, Note_on_c, 1, 49, 70
4, 21837, Note_on_c, 1, 49, 0
4, 21840, Note_on_c, 1, 49, 70
4, 21885, Note_on_c, 1, 49, 0
4, 21888, Note_on_c, 1, 49, 70
4, 21933, Note_on_c, 1, 49, 0
4, 21936, Note_on_c, 1, 49, 70
4, 21981, Note_on_c, 1, 49, 0
4, 21984, Note_on_c, 1, 51, 70
4, 22029, Note_on_c, 1, 51, 0
4, 22032, Note_on_c, 1, 51, 70
4, 22077, Note_on_c, 1, 51, 0
4, 22080, Note_on_c, 1, 51, 70
4, 22125, Note_on_c, 1, 51, 0
4, 22128, Note_on_c, 1, 51, 71
4, 22173, Note_on_c, 1, 51, 0
4, 22176, Note_on_c, 1, 52, 72
4, 22221, Note_on_c, 1, 52, 0
4, 22224, Note_on_c, 1, 52, 73
4, 22269, Note_on_c, 1, 52, 0
4, 22272, Note_on_c, 1, 53, 75
4, 22366, Note_on_c, 1, 53, 0
4, 22368, Note_on_c, 1, 58, 75
4, 22368, Note_on_c, 1, 53, 75
4, 22368, Note_on_c, 1, 50, 75
4, 22501, Note_on_c, 1, 58, 0
4, 22501, Note_on_c, 1, 53, 0
4, 22501, Note_on_c, 1, 50, 0
4, 22584, Note_on_c, 1, 50, 75
4, 22584, Note_on_c, 1, 46, 75
4, 22607, Note_on_c, 1, 50, 0
4, 22607, Note_on_c, 1, 46, 0
4, 22608, Note_on_c, 1, 51, 75
4, 22608, Note_on_c, 1, 48, 75
4, 22631, Note_on_c, 1, 51, 0
4, 22631, Note_on_c, 1, 48, 0
4, 22632, Note_on_c, 1, 53, 75
4, 22632, Note_on_c, 1, 50, 75
4, 22655, Note_on_c, 1, 53, 0
4, 22655, Note_on_c, 1, 50, 0
4, 22656, Note_on_c, 1, 55, 75
4, 22656, Note_on_c, 1, 51, 75
4, 22701, Note_on_c, 1, 55, 0
4, 22701, Note_on_c, 1, 51, 0
4, 23040, Note_on_c, 1, 56, 75
4, 23040, Note_on_c, 1, 53, 75
4, 23063, Note_on_c, 1, 56, 0
4, 23063, Note_on_c, 1, 53, 0
4, 23064, Note_on_c, 1, 55, 75
4, 23064, Note_on_c, 1, 51, 75
4, 23087, Note_on_c, 1, 55, 0
4, 23087, Note_on_c, 1, 51, 0
4, 23088, Note_on_c, 1, 53, 76
4, 23088, Note_on_c, 1, 50, 76
4, 23111, Note_on_c, 1, 53, 0
4, 23111, Note_on_c, 1, 50, 0
4, 23112, Note_on_c, 1, 51, 77
4, 23112, Note_on_c, 1, 48, 77
4, 23135, Note_on_c, 1, 51, 0
4, 23135, Note_on_c, 1, 48, 0
4, 23136, Note_on_c, 1, 50, 78
4, 23136, Note_on_c, 1, 38, 78
4, 23159, Note_on_c, 1, 50, 0
4, 23159, Note_on_c, 1, 38, 0
4, 23160, Note_on_c, 1, 48, 79
4, 23160, Note_on_c, 1, 36, 79
4, 23183, Note_on_c, 1, 48, 0
4, 23183, Note_on_c, 1, 36, 0
4, 23184, Note_on_c, 1, 46, 80
4, 23184, Note_on_c, 1, 34, 80
4, 23207, Note_on_c, 1, 46, 0
4, 23207, Note_on_c, 1, 34, 0
4, 23208, Note_on_c, 1, 44, 80
4, 23208, Note_on_c, 1, 32, 80
4, 23231, Note_on_c, 1, 44, 0
4, 23231, Note_on_c, 1, 32, 0
4, 23232, Note_on_c, 1, 43, 80
4, 23232, Note_on_c, 1, 31, 80
4, 23277, Note_on_c, 1, 43, 0
4, 23277, Note_on_c, 1, 31, 0
4, 23280, Note_on_c, 1, 52, 75
4, 23280, Note_on_c, 1, 40, 75
4, 23325, Note_on_c, 1, 52, 0
4, 23325, Note_on_c, 1, 40, 0
4, 23328, Note_on_c, 1, 53, 75
4, 23328, Note_on_c, 1, 41, 75
4, 23373, Note_on_c, 1, 53, 0
4, 23373, Note_on_c, 1, 41, 0
4, 23376, Note_on_c, 1, 50, 75
4, 23376, Note_on_c, 1, 38, 75
4, 23421, Note_on_c, 1, 50, 0
4, 23421, Note_on_c, 1, 38, 0
4, 23424, Note_on_c, 1, 51, 75
4, 23424, Note_on_c, 1, 39, 75
4, 23469, Note_on_c, 1, 51, 0
4, 23469, Note_on_c, 1, 39, 0
4, 23472, Note_on_c, 1, 44, 77
4, 23472, Note_on_c, 1, 32, 77
4, 23517, Note_on_c, 1, 44, 0
4, 23517, Note_on_c, 1, 32, 0
4, 23520, Note_on_c, 1, 46, 80
4, 23543, Note_on_c, 1, 46, 0
4, 23544, Note_on_c, 1, 47, 80
4, 23567, Note_on_c, 1, 47, 0
4, 23568, Note_on_c, 1, 48, 80
4, 23591, Note_on_c, 1, 48, 0
4, 23592, Note_on_c, 1, 43, 80
4, 23615, Note_on_c, 1, 43, 0
4, 23616, Note_on_c, 1, 44, 80
4, 23639, Note_on_c, 1, 44, 0
4, 23640, Note_on_c, 1, 45, 80
4, 23663, Note_on_c, 1, 45, 0
4, 23664, Note_on_c, 1, 46, 80
4, 23797, Note_on_c, 1, 46, 0
4, 24096, Note_on_c, 1, 75, 75
4, 24119, Note_on_c, 1, 75, 0
4, 24120, Note_on_c, 1, 72, 75
4, 24143, Note_on_c, 1, 72, 0
4, 24144, Note_on_c, 1, 70, 75
4, 24167, Note_on_c, 1, 70, 0
4, 24168, Note_on_c, 1, 68, 75
4, 24191, Note_on_c, 1, 68, 0
4, 24192, Note_on_c, 1, 67, 75
4, 24215, Note_on_c, 1, 67, 0
4, 24216, Note_on_c, 1, 75, 75
4, 24239, Note_on_c, 1, 75, 0
4, 24240, Note_on_c, 1, 71, 75
4, 24264, Note_on_c, 1, 71, 0
4, 24264, Note_on_c, 1, 72, 75
4, 24287, Note_on_c, 1, 72, 0
4, 24288, Note_on_c, 1, 65, 75
4, 24311, Note_on_c, 1, 65, 0
4, 24312, Note_on_c, 1, 67, 75
4, 24335, Note_on_c, 1, 67, 0
4, 24336, Note_on_c, 1, 68, 75
4, 24359, Note_on_c, 1, 68, 0
4, 24360, Note_on_c, 1, 67, 75
4, 24383, Note_on_c, 1, 67, 0
4, 24384, Note_on_c, 1, 65, 75
4, 24407, Note_on_c, 1, 65, 0
4, 24408, Note_on_c, 1, 67, 75
4, 24431, Note_on_c, 1, 67, 0
4, 24432, Note_on_c, 1, 68, 75
4, 24455, Note_on_c, 1, 68, 0
4, 24456, Note_on_c, 1, 67, 75
4, 24479, Note_on_c, 1, 67, 0
4, 24480, Note_on_c, 1, 65, 75
4, 24503, Note_on_c, 1, 65, 0
4, 24504, Note_on_c, 1, 67, 75
4, 24527, Note_on_c, 1, 67, 0
4, 24528, Note_on_c, 1, 68, 75
4, 24551, Note_on_c, 1, 68, 0
4, 24552, Note_on_c, 1, 65, 75
4, 24575, Note_on_c, 1, 65, 0
4, 24576, Note_on_c, 1, 63, 75
4, 24599, Note_on_c, 1, 63, 0
4, 24600, Note_on_c, 1, 67, 75
4, 24623, Note_on_c, 1, 67, 0
4, 24624, Note_on_c, 1, 68, 75
4, 24647, Note_on_c, 1, 68, 0
4, 24648, Note_on_c, 1, 63, 75
4, 24671, Note_on_c, 1, 63, 0
4, 24672, Note_on_c, 1, 62, 75
4, 24678, Note_on_c, 1, 65, 75
4, 24684, Note_on_c, 1, 68, 75
4, 24690, Note_on_c, 1, 74, 75
4, 24743, Note_on_c, 1, 74, 0
4, 24743, Note_on_c, 1, 68, 0
4, 24743, Note_on_c, 1, 65, 0
4, 24743, Note_on_c, 1, 62, 0
4, 24768, Note_on_c, 1, 63, 75
4, 24813, Note_on_c, 1, 63, 0
4, 24816, Note_on_c, 1, 56, 75
4, 24861, Note_on_c, 1, 56, 0
4, 24864, Note_on_c, 1, 58, 75
4, 24909, Note_on_c, 1, 58, 0
4, 24912, Note_on_c, 1, 46, 75
4, 24957, Note_on_c, 1, 46, 0
4, 24960, Note_on_c, 1, 55, 64
4, 24960, Note_on_c, 1, 51, 64
4, 25005, Note_on_c, 1, 55, 0
4, 25005, Note_on_c, 1, 51, 0
4, 25008, Note_on_c, 1, 55, 64
4, 25008, Note_on_c, 1, 51, 64
4, 25053, Note_on_c, 1, 55, 0
4, 25053, Note_on_c, 1, 51, 0
4, 25056, Note_on_c, 1, 55, 64
4, 25056, Note_on_c, 1, 51, 64
4, 25101, Note_on_c, 1, 55, 0
4, 25101, Note_on_c, 1, 51, 0
4, 25104, Note_on_c, 1, 55, 64
4, 25104, Note_on_c, 1, 51, 64
4, 25149, Note_on_c, 1, 55, 0
4, 25149, Note_on_c, 1, 51, 0
4, 25152, Note_on_c, 1, 51, 64
4, 25152, Note_on_c, 1, 43, 64
4, 25197, Note_on_c, 1, 51, 0
4, 25197, Note_on_c, 1, 43, 0
4, 25200, Note_on_c, 1, 51, 64
4, 25200, Note_on_c, 1, 43, 64
4, 25245, Note_on_c, 1, 51, 0
4, 25245, Note_on_c, 1, 43, 0
4, 25248, Note_on_c, 1, 51, 64
4, 25248, Note_on_c, 1, 43, 64
4, 25293, Note_on_c, 1, 51, 0
4, 25293, Note_on_c, 1, 43, 0
4, 25296, Note_on_c, 1, 51, 64
4, 25296, Note_on_c, 1, 43, 64
4, 25341, Note_on_c, 1, 51, 0
4, 25341, Note_on_c, 1, 43, 0
4, 25344, Note_on_c, 1, 53, 64
4, 25344, Note_on_c, 1, 44, 64
4, 25389, Note_on_c, 1, 53, 0
4, 25389, Note_on_c, 1, 44, 0
4, 25392, Note_on_c, 1, 53, 64
4, 25392, Note_on_c, 1, 44, 64
4, 25437, Note_on_c, 1, 53, 0
4, 25437, Note_on_c, 1, 44, 0
4, 25440, Note_on_c, 1, 55, 64
4, 25440, Note_on_c, 1, 46, 64
4, 25485, Note_on_c, 1, 55, 0
4, 25485, Note_on_c, 1, 46, 0
4, 25488, Note_on_c, 1, 53, 64
4, 25488, Note_on_c, 1, 46, 64
4, 25533, Note_on_c, 1, 53, 0
4, 25533, Note_on_c, 1, 46, 0
4, 25536, Note_on_c, 1, 51, 80
4, 25581, Note_on_c, 1, 51, 0
4, 25584, Note_on_c, 1, 39, 77
4, 25629, Note_on_c, 1, 39, 0
4, 25632, Note_on_c, 1, 39, 74
4, 25677, Note_on_c, 1, 39, 0
4, 25680, Note_on_c, 1, 39, 72
4, 25725, Note_on_c, 1, 39, 0
4, 25728, Note_on_c, 1, 39, 69
4, 25773, Note_on_c, 1, 39, 0
4, 25776, Note_on_c, 1, 39, 66
4, 25821, Note_on_c, 1, 39, 0
4, 25824, Note_on_c, 1, 39, 64
4, 26001, Note_on_c, 1, 39, 0
4, 26112, Note_on_c, 1, 53, 75
4, 26112, Note_on_c, 1, 50, 75
4, 26201, Note_on_c, 1, 53, 0
4, 26201, Note_on_c, 1, 50, 0
4, 26208, Note_on_c, 1, 56, 75
4, 26208, Note_on_c, 1, 53, 75
4, 26297, Note_on_c, 1, 56, 0
4, 26297, Note_on_c, 1, 53, 0
4, 26304, Note_on_c, 1, 55, 75
4, 26304, Note_on_c, 1, 51, 75
4, 26393, Note_on_c, 1, 55, 0
4, 26393, Note_on_c, 1, 51, 0
4, 26400, Note_on_c, 1, 53, 75
4, 26400, Note_on_c, 1, 50, 75
4, 26489, Note_on_c, 1, 53, 0
4, 26489, Note_on_c, 1, 50, 0
4, 26496, Note_on_c, 1, 55, 75
4, 26496, Note_on_c, 1, 51, 75
4, 26585, Note_on_c, 1, 55, 0
4, 26585, Note_on_c, 1, 51, 0
4, 26688, Note_on_c, 1, 67, 75
4, 26688, Note_on_c, 1, 64, 75
4, 26777, Note_on_c, 1, 67, 0
4, 26777, Note_on_c, 1, 64, 0
4, 26784, Note_on_c, 1, 73, 75
4, 26784, Note_on_c, 1, 70, 75
4, 26873, Note_on_c, 1, 73, 0
4, 26873, Note_on_c, 1, 70, 0
4, 26880, Note_on_c, 1, 72, 75
4, 26880, Note_on_c, 1, 68, 75
4, 26969, Note_on_c, 1, 72, 0
4, 26969, Note_on_c, 1, 68, 0
4, 26976, Note_on_c, 1, 70, 75
4, 26976, Note_on_c, 1, 67, 75
4, 27065, Note_on_c, 1, 70, 0
4, 27065, Note_on_c, 1, 67, 0
4, 27072, Note_on_c, 1, 68, 75
4, 27072, Note_on_c, 1, 65, 75
4, 27161, Note_on_c, 1, 68, 0
4, 27161, Note_on_c, 1, 65, 0
4, 27216, Note_on_c, 1, 44, 75
4, 27261, Note_on_c, 1, 44, 0
4, 27312, Note_on_c, 1, 56, 91
4, 27384, Note_on_c, 1, 56, 0
4, 27384, Note_on_c, 1, 55, 75
4, 27407, Note_on_c, 1, 55, 0
4, 27408, Note_on_c, 1, 53, 75
4, 27475, Note_on_c, 1, 53, 0
4, 27480, Note_on_c, 1, 51, 75
4, 27503, Note_on_c, 1, 51, 0
4, 27504, Note_on_c, 1, 50, 75
4, 27527, Note_on_c, 1, 50, 0
4, 27528, Note_on_c, 1, 48, 75
4, 27551, Note_on_c, 1, 48, 0
4, 27552, Note_on_c, 1, 47, 75
4, 27597, Note_on_c, 1, 47, 0
4, 27600, Note_on_c, 1, 55, 91
4, 27606, Note_on_c, 1, 55, 0
4, 27606, Note_on_c, 1, 56, 91
4, 27612, Note_on_c, 1, 56, 0
4, 27612, Note_on_c, 1, 55, 91
4, 27672, Note_on_c, 1, 55, 0
4, 27672, Note_on_c, 1, 53, 75
4, 27695, Note_on_c, 1, 53, 0
4, 27696, Note_on_c, 1, 51, 75
4, 27763, Note_on_c, 1, 51, 0
4, 27768, Note_on_c, 1, 50, 75
4, 27791, Note_on_c, 1, 50, 0
4, 27792, Note_on_c, 1, 48, 75
4, 27815, Note_on_c, 1, 48, 0
4, 27816, Note_on_c, 1, 46, 75
4, 27839, Note_on_c, 1, 46, 0
4, 27840, Note_on_c, 1, 44, 75
4, 27885, Note_on_c, 1, 44, 0
4, 27888, Note_on_c, 1, 53, 91
4, 27894, Note_on_c, 1, 53, 0
4, 27894, Note_on_c, 1, 55, 91
4, 27900, Note_on_c, 1, 55, 0
4, 27900, Note_on_c, 1, 53, 91
4, 27960, Note_on_c, 1, 53, 0
4, 27960, Note_on_c, 1, 53, 75
4, 27983, Note_on_c, 1, 53, 0
4, 27984, Note_on_c, 1, 51, 75
4, 28007, Note_on_c, 1, 51, 0
4, 28008, Note_on_c, 1, 50, 75
4, 28031, Note_on_c, 1, 50, 0
4, 28032, Note_on_c, 1, 48, 75
4, 28055, Note_on_c, 1, 48, 0
4, 28056, Note_on_c, 1, 46, 75
4, 28079, Note_on_c, 1, 46, 0
4, 28080, Note_on_c, 1, 44, 75
4, 28103, Note_on_c, 1, 44, 0
4, 28104, Note_on_c, 1, 43, 75
4, 28127, Note_on_c, 1, 43, 0
4, 28128, Note_on_c, 1, 42, 75
4, 28134, Note_on_c, 1, 45, 75
4, 28140, Note_on_c, 1, 48, 75
4, 28146, Note_on_c, 1, 51, 75
4, 28221, Note_on_c, 1, 51, 0
4, 28221, Note_on_c, 1, 48, 0
4, 28221, Note_on_c, 1, 45, 0
4, 28221, Note_on_c, 1, 42, 0
4, 28416, Note_on_c, 1, 43, 75
4, 28593, Note_on_c, 1, 43, 0
4, 28704, Note_on_c, 1, 43, 64
4, 28704, Note_on_c, 1, 31, 64
4, 28749, Note_on_c, 1, 43, 0
4, 28749, Note_on_c, 1, 31, 0
4, 28752, Note_on_c, 1, 43, 64
4, 28752, Note_on_c, 1, 31, 64
4, 28797, Note_on_c, 1, 43, 0
4, 28797, Note_on_c, 1, 31, 0
4, 28800, Note_on_c, 1, 43, 64
4, 28800, Note_on_c, 1, 31, 64
4, 28845, Note_on_c, 1, 43, 0
4, 28845, Note_on_c, 1, 31, 0
4, 28848, Note_on_c, 1, 43, 64
4, 28848, Note_on_c, 1, 31, 64
4, 28893, Note_on_c, 1, 43, 0
4, 28893, Note_on_c, 1, 31, 0
4, 28896, Note_on_c, 1, 43, 64
4, 28896, Note_on_c, 1, 31, 64
4, 28941, Note_on_c, 1, 43, 0
4, 28941, Note_on_c, 1, 31, 0
4, 28944, Note_on_c, 1, 43, 64
4, 28944, Note_on_c, 1, 31, 64
4, 28989, Note_on_c, 1, 43, 0
4, 28989, Note_on_c, 1, 31, 0
4, 28992, Note_on_c, 1, 43, 64
4, 28992, Note_on_c, 1, 31, 64
4, 29037, Note_on_c, 1, 43, 0
4, 29037, Note_on_c, 1, 31, 0
4, 29040, Note_on_c, 1, 43, 64
4, 29040, Note_on_c, 1, 31, 64
4, 29085, Note_on_c, 1, 43, 0
4, 29085, Note_on_c, 1, 31, 0
4, 29088, Note_on_c, 1, 43, 64
4, 29088, Note_on_c, 1, 31, 64
4, 29133, Note_on_c, 1, 43, 0
4, 29133, Note_on_c, 1, 31, 0
4, 29136, Note_on_c, 1, 43, 64
4, 29136, Note_on_c, 1, 31, 64
4, 29181, Note_on_c, 1, 43, 0
4, 29181, Note_on_c, 1, 31, 0
4, 29184, Note_on_c, 1, 43, 64
4, 29184, Note_on_c, 1, 31, 64
4, 29229, Note_on_c, 1, 43, 0
4, 29229, Note_on_c, 1, 31, 0
4, 29232, Note_on_c, 1, 43, 64
4, 29232, Note_on_c, 1, 31, 64
4, 29277, Note_on_c, 1, 43, 0
4, 29277, Note_on_c, 1, 31, 0
4, 29280, Note_on_c, 1, 43, 64
4, 29280, Note_on_c, 1, 31, 64
4, 29325, Note_on_c, 1, 43, 0
4, 29325, Note_on_c, 1, 31, 0
4, 29328, Note_on_c, 1, 43, 64
4, 29328, Note_on_c, 1, 31, 64
4, 29373, Note_on_c, 1, 43, 0
4, 29373, Note_on_c, 1, 31, 0
4, 29376, Note_on_c, 1, 43, 64
4, 29376, Note_on_c, 1, 31, 64
4, 29421, Note_on_c, 1, 43, 0
4, 29421, Note_on_c, 1, 31, 0
4, 29424, Note_on_c, 1, 43, 64
4, 29424, Note_on_c, 1, 31, 64
4, 29469, Note_on_c, 1, 43, 0
4, 29469, Note_on_c, 1, 31, 0
4, 29472, Note_on_c, 1, 43, 64
4, 29472, Note_on_c, 1, 31, 64
4, 29517, Note_on_c, 1, 43, 0
4, 29517, Note_on_c, 1, 31, 0
4, 29520, Note_on_c, 1, 43, 64
4, 29520, Note_on_c, 1, 31, 64
4, 29565, Note_on_c, 1, 43, 0
4, 29565, Note_on_c, 1, 31, 0
4, 29568, Note_on_c, 1, 43, 64
4, 29568, Note_on_c, 1, 31, 64
4, 29613, Note_on_c, 1, 43, 0
4, 29613, Note_on_c, 1, 31, 0
4, 29616, Note_on_c, 1, 43, 65
4, 29616, Note_on_c, 1, 31, 65
4, 29661, Note_on_c, 1, 43, 0
4, 29661, Note_on_c, 1, 31, 0
4, 29664, Note_on_c, 1, 43, 66
4, 29664, Note_on_c, 1, 31, 66
4, 29709, Note_on_c, 1, 43, 0
4, 29709, Note_on_c, 1, 31, 0
4, 29712, Note_on_c, 1, 43, 67
4, 29712, Note_on_c, 1, 31, 67
4, 29757, Note_on_c, 1, 43, 0
4, 29757, Note_on_c, 1, 31, 0
4, 29760, Note_on_c, 1, 43, 68
4, 29760, Note_on_c, 1, 31, 68
4, 29805, Note_on_c, 1, 43, 0
4, 29805, Note_on_c, 1, 31, 0
4, 29808, Note_on_c, 1, 43, 70
4, 29808, Note_on_c, 1, 31, 70
4, 29853, Note_on_c, 1, 43, 0
4, 29853, Note_on_c, 1, 31, 0
4, 29856, Note_on_c, 1, 43, 71
4, 29856, Note_on_c, 1, 31, 71
4, 29901, Note_on_c, 1, 43, 0
4, 29901, Note_on_c, 1, 31, 0
4, 29904, Note_on_c, 1, 43, 72
4, 29904, Note_on_c, 1, 31, 72
4, 29949, Note_on_c, 1, 43, 0
4, 29949, Note_on_c, 1, 31, 0
4, 29952, Note_on_c, 1, 43, 73
4, 29952, Note_on_c, 1, 31, 73
4, 29997, Note_on_c, 1, 43, 0
4, 29997, Note_on_c, 1, 31, 0
4, 30000, Note_on_c, 1, 43, 75
4, 30000, Note_on_c, 1, 31, 75
4, 30045, Note_on_c, 1, 43, 0
4, 30045, Note_on_c, 1, 31, 0
4, 30048, Note_on_c, 1, 43, 76
4, 30048, Note_on_c, 1, 31, 76
4, 30093, Note_on_c, 1, 43, 0
4, 30093, Note_on_c, 1, 31, 0
4, 30096, Note_on_c, 1, 43, 77
4, 30096, Note_on_c, 1, 31, 77
4, 30141, Note_on_c, 1, 43, 0
4, 30141, Note_on_c, 1, 31, 0
4, 30144, Note_on_c, 1, 43, 78
4, 30144, Note_on_c, 1, 31, 78
4, 30189, Note_on_c, 1, 43, 0
4, 30189, Note_on_c, 1, 31, 0
4, 30192, Note_on_c, 1, 43, 79
4, 30192, Note_on_c, 1, 31, 79
4, 30237, Note_on_c, 1, 43, 0
4, 30237, Note_on_c, 1, 31, 0
4, 30240, Note_on_c, 1, 43, 81
4, 30240, Note_on_c, 1, 31, 81
4, 30285, Note_on_c, 1, 43, 0
4, 30285, Note_on_c, 1, 31, 0
4, 30288, Note_on_c, 1, 43, 82
4, 30288, Note_on_c, 1, 31, 82
4, 30333, Note_on_c, 1, 43, 0
4, 30333, Note_on_c, 1, 31, 0
4, 30336, Note_on_c, 1, 43, 83
4, 30336, Note_on_c, 1, 31, 83
4, 30381, Note_on_c, 1, 43, 0
4, 30381, Note_on_c, 1, 31, 0
4, 30384, Note_on_c, 1, 43, 84
4, 30384, Note_on_c, 1, 31, 84
4, 30429, Note_on_c, 1, 43, 0
4, 30429, Note_on_c, 1, 31, 0
4, 30432, Note_on_c, 1, 42, 86
4, 30432, Note_on_c, 1, 30, 86
4, 30521, Note_on_c, 1, 42, 0
4, 30521, Note_on_c, 1, 30, 0
4, 30720, Note_on_c, 1, 49, 86
4, 30720, Note_on_c, 1, 37, 86
4, 30759, Note_on_c, 1, 49, 0
4, 30759, Note_on_c, 1, 37, 0
4, 30816, Note_on_c, 1, 50, 86
4, 30816, Note_on_c, 1, 38, 86
4, 30855, Note_on_c, 1, 50, 0
4, 30855, Note_on_c, 1, 38, 0
4, 31008, Note_on_c, 1, 46, 75
4, 31097, Note_on_c, 1, 46, 0
4, 31584, Note_on_c, 1, 58, 64
4, 31761, Note_on_c, 1, 58, 0
4, 31776, Note_on_c, 1, 63, 64
4, 32049, Note_on_c, 1, 63, 0
4, 32160, Note_on_c, 1, 75, 75
4, 32352, Note_on_c, 1, 75, 0
4, 32352, Note_on_c, 1, 76, 78
4, 32441, Note_on_c, 1, 76, 0
4, 32448, Note_on_c, 1, 77, 80
4, 32635, Note_on_c, 1, 77, 0
4, 32832, Note_on_c, 1, 61, 70
4, 32871, Note_on_c, 1, 61, 0
4, 32928, Note_on_c, 1, 58, 70
4, 32967, Note_on_c, 1, 58, 0
4, 33024, Note_on_c, 1, 51, 70
4, 33113, Note_on_c, 1, 51, 0
4, 33120, Note_on_c, 1, 60, 70
4, 33159, Note_on_c, 1, 60, 0
4, 33216, Note_on_c, 1, 56, 70
4, 33255, Note_on_c, 1, 56, 0
4, 33312, Note_on_c, 1, 49, 70
4, 33357, Note_on_c, 1, 49, 0
4, 33360, Note_on_c, 1, 49, 70
4, 33405, Note_on_c, 1, 49, 0
4, 33408, Note_on_c, 1, 49, 70
4, 33453, Note_on_c, 1, 49, 0
4, 33456, Note_on_c, 1, 49, 70
4, 33501, Note_on_c, 1, 49, 0
4, 33504, Note_on_c, 1, 51, 70
4, 33549, Note_on_c, 1, 51, 0
4, 33552, Note_on_c, 1, 51, 70
4, 33597, Note_on_c, 1, 51, 0
4, 33600, Note_on_c, 1, 51, 70
4, 33645, Note_on_c, 1, 51, 0
4, 33648, Note_on_c, 1, 51, 71
4, 33693, Note_on_c, 1, 51, 0
4, 33696, Note_on_c, 1, 52, 72
4, 33741, Note_on_c, 1, 52, 0
4, 33744, Note_on_c, 1, 52, 73
4, 33789, Note_on_c, 1, 52, 0
4, 33792, Note_on_c, 1, 53, 75
4, 33886, Note_on_c, 1, 53, 0
4, 33888, Note_on_c, 1, 58, 75
4, 33888, Note_on_c, 1, 53, 75
4, 33888, Note_on_c, 1, 50, 75
4, 34021, Note_on_c, 1, 58, 0
4, 34021, Note_on_c, 1, 53, 0
4, 34021, Note_on_c, 1, 50, 0
4, 34104, Note_on_c, 1, 50, 75
4, 34104, Note_on_c, 1, 46, 75
4, 34127, Note_on_c, 1, 50, 0
4, 34127, Note_on_c, 1, 46, 0
4, 34128, Note_on_c, 1, 51, 75
4, 34128, Note_on_c, 1, 48, 75
4, 34151, Note_on_c, 1, 51, 0
4, 34151, Note_on_c, 1, 48, 0
4, 34152, Note_on_c, 1, 53, 75
4, 34152, Note_on_c, 1, 50, 75
4, 34175, Note_on_c, 1, 53, 0
4, 34175, Note_on_c, 1, 50, 0
4, 34176, Note_on_c, 1, 55, 75
4, 34176, Note_on_c, 1, 51, 75
4, 34221, Note_on_c, 1, 55, 0
4, 34221, Note_on_c, 1, 51, 0
4, 34560, Note_on_c, 1, 56, 75
4, 34560, Note_on_c, 1, 53, 75
4, 34583, Note_on_c, 1, 56, 0
4, 34583, Note_on_c, 1, 53, 0
4, 34584, Note_on_c, 1, 55, 75
4, 34584, Note_on_c, 1, 51, 75
4, 34607, Note_on_c, 1, 55, 0
4, 34607, Note_on_c, 1, 51, 0
4, 34608, Note_on_c, 1, 53, 76
4, 34608, Note_on_c, 1, 50, 76
4, 34631, Note_on_c, 1, 53, 0
4, 34631, Note_on_c, 1, 50, 0
4, 34632, Note_on_c, 1, 51, 77
4, 34632, Note_on_c, 1, 48, 77
4, 34655, Note_on_c, 1, 51, 0
4, 34655, Note_on_c, 1, 48, 0
4, 34656, Note_on_c, 1, 50, 78
4, 34656, Note_on_c, 1, 38, 78
4, 34679, Note_on_c, 1, 50, 0
4, 34679, Note_on_c, 1, 38, 0
4, 34680, Note_on_c, 1, 48, 79
4, 34680, Note_on_c, 1, 36, 79
4, 34703, Note_on_c, 1, 48, 0
4, 34703, Note_on_c, 1, 36, 0
4, 34704, Note_on_c, 1, 46, 80
4, 34704, Note_on_c, 1, 34, 80
4, 34727, Note_on_c, 1, 46, 0
4, 34727, Note_on_c, 1, 34, 0
4, 34728, Note_on_c, 1, 44, 80
4, 34728, Note_on_c, 1, 32, 80
4, 34751, Note_on_c, 1, 44, 0
4, 34751, Note_on_c, 1, 32, 0
4, 34752, Note_on_c, 1, 43, 80
4, 34752, Note_on_c, 1, 31, 80
4, 34797, Note_on_c, 1, 43, 0
4, 34797, Note_on_c, 1, 31, 0
4, 34800, Note_on_c, 1, 52, 75
4, 34800, Note_on_c, 1, 40, 75
4, 34845, Note_on_c, 1, 52, 0
4, 34845, Note_on_c, 1, 40, 0
4, 34848, Note_on_c, 1, 53, 75
4, 34848, Note_on_c, 1, 41, 75
4, 34893, Note_on_c, 1, 53, 0
4, 34893, Note_on_c, 1, 41, 0
4, 34896, Note_on_c, 1, 50, 75
4, 34896, Note_on_c, 1, 38, 75
4, 34941, Note_on_c, 1, 50, 0
4, 34941, Note_on_c, 1, 38, 0
4, 34944, Note_on_c, 1, 51, 75
4, 34944, Note_on_c, 1, 39, 75
4, 34989, Note_on_c, 1, 51, 0
4, 34989, Note_on_c, 1, 39, 0
4, 34992, Note_on_c, 1, 44, 77
4, 34992, Note_on_c, 1, 32, 77
4, 35037, Note_on_c, 1, 44, 0
4, 35037, Note_on_c, 1, 32, 0
4, 35040, Note_on_c, 1, 46, 80
4, 35063, Note_on_c, 1, 46, 0
4, 35064, Note_on_c, 1, 47, 80
4, 35087, Note_on_c, 1, 47, 0
4, 35088, Note_on_c, 1, 48, 80
4, 35111, Note_on_c, 1, 48, 0
4, 35112, Note_on_c, 1, 43, 80
4, 35135, Note_on_c, 1, 43, 0
4, 35136, Note_on_c, 1, 44, 80
4, 35159, Note_on_c, 1, 44, 0
4, 35160, Note_on_c, 1, 45, 80
4, 35183, Note_on_c, 1, 45, 0
4, 35184, Note_on_c, 1, 46, 80
4, 35317, Note_on_c, 1, 46, 0
4, 35616, Note_on_c, 1, 75, 75
4, 35639, Note_on_c, 1, 75, 0
4, 35640, Note_on_c, 1, 72, 75
4, 35663, Note_on_c, 1, 72, 0
4, 35664, Note_on_c, 1, 70, 75
4, 35687, Note_on_c, 1, 70, 0
4, 35688, Note_on_c, 1, 68, 75
4, 35711, Note_on_c, 1, 68, 0
4, 35712, Note_on_c, 1, 67, 75
4, 35735, Note_on_c, 1, 67, 0
4, 35736, Note_on_c, 1, 75, 75
4, 35759, Note_on_c, 1, 75, 0
4, 35760, Note_on_c, 1, 71, 75
4, 35784, Note_on_c, 1, 71, 0
4, 35784, Note_on_c, 1, 72, 75
4, 35807, Note_on_c, 1, 72, 0
4, 35808, Note_on_c, 1, 65, 75
4, 35831, Note_on_c, 1, 65, 0
4, 35832, Note_on_c, 1, 67, 75
4, 35855, Note_on_c, 1, 67, 0
4, 35856, Note_on_c, 1, 68, 75
4, 35879, Note_on_c, 1, 68, 0
4, 35880, Note_on_c, 1, 67, 75
4, 35903, Note_on_c, 1, 67, 0
4, 35904, Note_on_c, 1, 65, 75
4, 35927, Note_on_c, 1, 65, 0
4, 35928, Note_on_c, 1, 67, 75
4, 35951, Note_on_c, 1, 67, 0
4, 35952, Note_on_c, 1, 68, 75
4, 35975, Note_on_c, 1, 68, 0
4, 35976, Note_on_c, 1, 67, 75
4, 35999, Note_on_c, 1, 67, 0
4, 36000, Note_on_c, 1, 65, 75
4, 36023, Note_on_c, 1, 65, 0
4, 36024, Note_on_c, 1, 67, 75
4, 36047, Note_on_c, 1, 67, 0
4, 36048, Note_on_c, 1, 68, 75
4, 36071, Note_on_c, 1, 68, 0
4, 36072, Note_on_c, 1, 65, 75
4, 36095, Note_on_c, 1, 65, 0
4, 36096, Note_on_c, 1, 63, 75
4, 36119, Note_on_c, 1, 63, 0
4, 36120, Note_on_c, 1, 67, 75
4, 36143, Note_on_c, 1, 67, 0
4, 36144, Note_on_c, 1, 68, 75
4, 36167, Note_on_c, 1, 68, 0
4, 36168, Note_on_c, 1, 63, 75
4, 36191, Note_on_c, 1, 63, 0
4, 36192, Note_on_c, 1, 62, 75
4, 36198, Note_on_c, 1, 65, 75
4, 36204, Note_on_c, 1, 68, 75
4, 36210, Note_on_c, 1, 74, 75
4, 36263, Note_on_c, 1, 74, 0
4, 36263, Note_on_c, 1, 68, 0
4, 36263, Note_on_c, 1, 65, 0
4, 36263, Note_on_c, 1, 62, 0
4, 36288, Note_on_c, 1, 63, 75
4, 36333, Note_on_c, 1, 63, 0
4, 36336, Note_on_c, 1, 56, 75
4, 36381, Note_on_c, 1, 56, 0
4, 36384, Note_on_c, 1, 58, 75
4, 36429, Note_on_c, 1, 58, 0
4, 36432, Note_on_c, 1, 46, 75
4, 36477, Note_on_c, 1, 46, 0
4, 36480, Note_on_c, 1, 55, 64
4, 36480, Note_on_c, 1, 51, 64
4, 36525, Note_on_c, 1, 55, 0
4, 36525, Note_on_c, 1, 51, 0
4, 36528, Note_on_c, 1, 55, 64
4, 36528, Note_on_c, 1, 51, 64
4, 36573, Note_on_c, 1, 55, 0
4, 36573, Note_on_c, 1, 51, 0
4, 36576, Note_on_c, 1, 55, 64
4, 36576, Note_on_c, 1, 51, 64
4, 36621, Note_on_c, 1, 55, 0
4, 36621, Note_on_c, 1, 51, 0
4, 36624, Note_on_c, 1, 55, 64
4, 36624, Note_on_c, 1, 51, 64
4, 36669, Note_on_c, 1, 55, 0
4, 36669, Note_on_c, 1, 51, 0
4, 36672, Note_on_c, 1, 51, 64
4, 36672, Note_on_c, 1, 43, 64
4, 36717, Note_on_c, 1, 51, 0
4, 36717, Note_on_c, 1, 43, 0
4, 36720, Note_on_c, 1, 51, 64
4, 36720, Note_on_c, 1, 43, 64
4, 36765, Note_on_c, 1, 51, 0
4, 36765, Note_on_c, 1, 43, 0
4, 36768, Note_on_c, 1, 51, 64
4, 36768, Note_on_c, 1, 43, 64
4, 36813, Note_on_c, 1, 51, 0
4, 36813, Note_on_c, 1, 43, 0
4, 36816, Note_on_c, 1, 51, 64
4, 36816, Note_on_c, 1, 43, 64
4, 36861, Note_on_c, 1, 51, 0
4, 36861, Note_on_c, 1, 43, 0
4, 36864, Note_on_c, 1, 53, 64
4, 36864, Note_on_c, 1, 44, 64
4, 36909, Note_on_c, 1, 53, 0
4, 36909, Note_on_c, 1, 44, 0
4, 36912, Note_on_c, 1, 53, 64
4, 36912, Note_on_c, 1, 44, 64
4, 36957, Note_on_c, 1, 53, 0
4, 36957, Note_on_c, 1, 44, 0
4, 36960, Note_on_c, 1, 55, 64
4, 36960, Note_on_c, 1, 46, 64
4, 37005, Note_on_c, 1, 55, 0
4, 37005, Note_on_c, 1, 46, 0
4, 37008, Note_on_c, 1, 53, 64
4, 37008, Note_on_c, 1, 46, 64
4, 37053, Note_on_c, 1, 53, 0
4, 37053, Note_on_c, 1, 46, 0
4, 37056, Note_on_c, 1, 51, 80
4, 37101, Note_on_c, 1, 51, 0
4, 37104, Note_on_c, 1, 39, 77
4, 37149, Note_on_c, 1, 39, 0
4, 37152, Note_on_c, 1, 39, 74
4, 37197, Note_on_c, 1, 39, 0
4, 37200, Note_on_c, 1, 39, 72
4, 37245, Note_on_c, 1, 39, 0
4, 37248, Note_on_c, 1, 39, 69
4, 37293, Note_on_c, 1, 39, 0
4, 37296, Note_on_c, 1, 39, 66
4, 37341, Note_on_c, 1, 39, 0
4, 37344, Note_on_c, 1, 39, 64
4, 37521, Note_on_c, 1, 39, 0
4, 37632, Note_on_c, 1, 39, 0
4, 37809, Note_on_c, 1, 39, 0
4, 37824, End_track
5, 0, Start_track
5, 0, Program_c, 1, 0
5, 0, Control_c, 1, 7, 127
5, 0, Control_c, 1, 10, 64
5, 37632, End_track
6, 0, Start_track
6, 0, Title_t, "Sonata I   Haydn  "
6, 0, End_track
0, 0, End_of_file
