0, 0, Header, 1, 6, 96
1, 0, Start_track
1, 0, Copyright_t, "Copyright  2000 <copyright holder>"
1, 0, Text_t, "Sonata I\015\012"
1, 0, Text_t, "Haydn\015\012"
1, 0, Sequencer_specific, 16, 68, 87, 77, 90, 86, 82, 83, 78, 32, 55, 46, 49, 46, 51, 46, 48
1, 0, Time_signature, 3, 2, 24, 8
1, 0, Tempo, 1428571
1, 0, Key_signature, 4, "major"
1, 10368, Key_signature, 1, "major"
1, 14400, Key_signature, 4, "major"
1, 20736, End_track
2, 0, Start_track
2, 0, Program_c, 0, 0
2, 0, Control_c, 0, 7, 127
2, 0, Control_c, 0, 10, 64
2, 0, Note_on_c, 0, 64, 64
2, 78, Note_on_c, 0, 64, 0
2, 84, Note_on_c, 0, 63, 64
2, 96, Note_on_c, 0, 63, 0
2, 96, Note_on_c, 0, 66, 64
2, 185, Note_on_c, 0, 66, 0
2, 192, Note_on_c, 0, 59, 64
2, 270, Note_on_c, 0, 59, 0
2, 276, Note_on_c, 0, 59, 64
2, 288, Note_on_c, 0, 59, 0
2, 288, Note_on_c, 0, 71, 64
2, 372, Note_on_c, 0, 71, 0
2, 372, Note_on_c, 0, 69, 64
2, 384, Note_on_c, 0, 69, 0
2, 384, Note_on_c, 0, 73, 64
2, 473, Note_on_c, 0, 73, 0
2, 480, Note_on_c, 0, 66, 69
2, 480, Note_on_c, 0, 63, 69
2, 569, Note_on_c, 0, 66, 0
2, 569, Note_on_c, 0, 63, 0
2, 576, Note_on_c, 0, 64, 74
2, 579, Note_on_c, 0, 68, 74
2, 582, Note_on_c, 0, 71, 74
2, 585, Note_on_c, 0, 76, 74
2, 660, Note_on_c, 0, 76, 0
2, 660, Note_on_c, 0, 71, 0
2, 660, Note_on_c, 0, 68, 0
2, 660, Note_on_c, 0, 64, 0
2, 660, Note_on_c, 0, 75, 78
2, 672, Note_on_c, 0, 75, 0
2, 672, Note_on_c, 0, 71, 78
2, 675, Note_on_c, 0, 75, 78
2, 678, Note_on_c, 0, 78, 78
2, 681, Note_on_c, 0, 81, 78
2, 720, Note_on_c, 0, 78, 0
2, 720, Note_on_c, 0, 75, 0
2, 720, Note_on_c, 0, 71, 0
2, 754, Note_on_c, 0, 81, 0
2, 756, Note_on_c, 0, 80, 80
2, 756, Note_on_c, 0, 76, 80
2, 768, Note_on_c, 0, 80, 0
2, 768, Note_on_c, 0, 76, 0
2, 768, Note_on_c, 0, 73, 80
2, 774, Note_on_c, 0, 73, 0
2, 774, Note_on_c, 0, 85, 80
2, 774, Note_on_c, 0, 81, 80
2, 791, Note_on_c, 0, 85, 0
2, 791, Note_on_c, 0, 81, 0
2, 804, Note_on_c, 0, 83, 80
2, 804, Note_on_c, 0, 80, 80
2, 816, Note_on_c, 0, 83, 0
2, 816, Note_on_c, 0, 80, 0
2, 816, Note_on_c, 0, 83, 80
2, 822, Note_on_c, 0, 83, 0
2, 822, Note_on_c, 0, 81, 80
2, 822, Note_on_c, 0, 78, 80
2, 855, Note_on_c, 0, 81, 0
2, 855, Note_on_c, 0, 78, 0
2, 858, Note_on_c, 0, 80, 78
2, 858, Note_on_c, 0, 76, 78
2, 864, Note_on_c, 0, 80, 0
2, 864, Note_on_c, 0, 76, 0
2, 864, Note_on_c, 0, 80, 78
2, 948, Note_on_c, 0, 80, 0
2, 948, Note_on_c, 0, 81, 76
2, 960, Note_on_c, 0, 81, 0
2, 960, Note_on_c, 0, 78, 76
2, 1005, Note_on_c, 0, 78, 0
2, 1032, Note_on_c, 0, 76, 91
2, 1032, Note_on_c, 0, 73, 91
2, 1056, Note_on_c, 0, 76, 0
2, 1056, Note_on_c, 0, 73, 0
2, 1056, Note_on_c, 0, 75, 75
2, 1056, Note_on_c, 0, 71, 75
2, 1063, Note_on_c, 0, 75, 0
2, 1063, Note_on_c, 0, 71, 0
2, 1072, Note_on_c, 0, 73, 73
2, 1072, Note_on_c, 0, 69, 73
2, 1079, Note_on_c, 0, 73, 0
2, 1079, Note_on_c, 0, 69, 0
2, 1088, Note_on_c, 0, 71, 72
2, 1088, Note_on_c, 0, 68, 72
2, 1095, Note_on_c, 0, 71, 0
2, 1095, Note_on_c, 0, 68, 0
2, 1104, Note_on_c, 0, 69, 70
2, 1104, Note_on_c, 0, 66, 70
2, 1111, Note_on_c, 0, 69, 0
2, 1111, Note_on_c, 0, 66, 0
2, 1120, Note_on_c, 0, 68, 69
2, 1120, Note_on_c, 0, 64, 69
2, 1127, Note_on_c, 0, 68, 0
2, 1127, Note_on_c, 0, 64, 0
2, 1136, Note_on_c, 0, 66, 68
2, 1136, Note_on_c, 0, 59, 68
2, 1143, Note_on_c, 0, 66, 0
2, 1143, Note_on_c, 0, 59, 0
2, 1152, Note_on_c, 0, 64, 64
2, 1230, Note_on_c, 0, 64, 0
2, 1236, Note_on_c, 0, 63, 64
2, 1248, Note_on_c, 0, 63, 0
2, 1248, Note_on_c, 0, 66, 64
2, 1337, Note_on_c, 0, 66, 0
2, 1344, Note_on_c, 0, 59, 64
2, 1422, Note_on_c, 0, 59, 0
2, 1428, Note_on_c, 0, 59, 64
2, 1440, Note_on_c, 0, 59, 0
2, 1440, Note_on_c, 0, 71, 64
2, 1518, Note_on_c, 0, 71, 0
2, 1524, Note_on_c, 0, 69, 67
2, 1536, Note_on_c, 0, 69, 0
2, 1536, Note_on_c, 0, 72, 67
2, 1614, Note_on_c, 0, 72, 0
2, 1620, Note_on_c, 0, 66, 71
2, 1632, Note_on_c, 0, 66, 0
2, 1632, Note_on_c, 0, 73, 71
2, 1632, Note_on_c, 0, 69, 71
2, 1632, Note_on_c, 0, 66, 71
2, 1632, Note_on_c, 0, 61, 71
2, 1710, Note_on_c, 0, 73, 0
2, 1710, Note_on_c, 0, 69, 0
2, 1710, Note_on_c, 0, 66, 0
2, 1710, Note_on_c, 0, 61, 0
2, 1716, Note_on_c, 0, 66, 75
2, 1728, Note_on_c, 0, 66, 0
2, 1728, Note_on_c, 0, 75, 80
2, 1806, Note_on_c, 0, 75, 0
2, 1812, Note_on_c, 0, 68, 80
2, 1824, Note_on_c, 0, 68, 0
2, 1824, Note_on_c, 0, 64, 80
2, 1828, Note_on_c, 0, 64, 0
2, 1828, Note_on_c, 0, 68, 80
2, 1832, Note_on_c, 0, 68, 0
2, 1832, Note_on_c, 0, 73, 80
2, 1836, Note_on_c, 0, 73, 0
2, 1836, Note_on_c, 0, 76, 80
2, 1842, Note_on_c, 0, 76, 0
2, 1842, Note_on_c, 0, 78, 80
2, 1848, Note_on_c, 0, 78, 0
2, 1848, Note_on_c, 0, 76, 80
2, 1854, Note_on_c, 0, 76, 0
2, 1854, Note_on_c, 0, 75, 79
2, 1860, Note_on_c, 0, 75, 0
2, 1860, Note_on_c, 0, 76, 79
2, 1866, Note_on_c, 0, 76, 0
2, 1866, Note_on_c, 0, 78, 78
2, 1869, Note_on_c, 0, 78, 0
2, 1872, Note_on_c, 0, 80, 78
2, 1887, Note_on_c, 0, 80, 0
2, 1888, Note_on_c, 0, 76, 77
2, 1903, Note_on_c, 0, 76, 0
2, 1904, Note_on_c, 0, 73, 76
2, 1919, Note_on_c, 0, 73, 0
2, 1920, Note_on_c, 0, 71, 64
2, 1930, Note_on_c, 0, 71, 0
2, 1968, Note_on_c, 0, 70, 64
2, 1968, Note_on_c, 0, 64, 64
2, 1991, Note_on_c, 0, 70, 0
2, 1991, Note_on_c, 0, 64, 0
2, 2016, Note_on_c, 0, 73, 64
2, 2016, Note_on_c, 0, 70, 64
2, 2112, Note_on_c, 0, 73, 0
2, 2112, Note_on_c, 0, 70, 0
2, 2112, Note_on_c, 0, 71, 64
2, 2157, Note_on_c, 0, 71, 0
2, 2304, Note_on_c, 0, 64, 64
2, 2382, Note_on_c, 0, 64, 0
2, 2388, Note_on_c, 0, 63, 64
2, 2400, Note_on_c, 0, 63, 0
2, 2400, Note_on_c, 0, 66, 64
2, 2489, Note_on_c, 0, 66, 0
2, 2496, Note_on_c, 0, 59, 64
2, 2574, Note_on_c, 0, 59, 0
2, 2580, Note_on_c, 0, 59, 64
2, 2592, Note_on_c, 0, 59, 0
2, 2592, Note_on_c, 0, 71, 64
2, 2676, Note_on_c, 0, 71, 0
2, 2676, Note_on_c, 0, 69, 64
2, 2688, Note_on_c, 0, 69, 0
2, 2688, Note_on_c, 0, 73, 64
2, 2777, Note_on_c, 0, 73, 0
2, 2784, Note_on_c, 0, 66, 69
2, 2784, Note_on_c, 0, 63, 69
2, 2873, Note_on_c, 0, 66, 0
2, 2873, Note_on_c, 0, 63, 0
2, 2880, Note_on_c, 0, 64, 74
2, 2883, Note_on_c, 0, 68, 74
2, 2886, Note_on_c, 0, 71, 74
2, 2889, Note_on_c, 0, 76, 74
2, 2964, Note_on_c, 0, 76, 0
2, 2964, Note_on_c, 0, 71, 0
2, 2964, Note_on_c, 0, 68, 0
2, 2964, Note_on_c, 0, 64, 0
2, 2964, Note_on_c, 0, 75, 78
2, 2976, Note_on_c, 0, 75, 0
2, 2976, Note_on_c, 0, 71, 78
2, 2979, Note_on_c, 0, 75, 78
2, 2982, Note_on_c, 0, 78, 78
2, 2985, Note_on_c, 0, 81, 78
2, 3024, Note_on_c, 0, 78, 0
2, 3024, Note_on_c, 0, 75, 0
2, 3024, Note_on_c, 0, 71, 0
2, 3058, Note_on_c, 0, 81, 0
2, 3060, Note_on_c, 0, 80, 80
2, 3060, Note_on_c, 0, 76, 80
2, 3072, Note_on_c, 0, 80, 0
2, 3072, Note_on_c, 0, 76, 0
2, 3072, Note_on_c, 0, 73, 80
2, 3078, Note_on_c, 0, 73, 0
2, 3078, Note_on_c, 0, 85, 80
2, 3078, Note_on_c, 0, 81, 80
2, 3095, Note_on_c, 0, 85, 0
2, 3095, Note_on_c, 0, 81, 0
2, 3108, Note_on_c, 0, 83, 80
2, 3108, Note_on_c, 0, 80, 80
2, 3120, Note_on_c, 0, 83, 0
2, 3120, Note_on_c, 0, 80, 0
2, 3120, Note_on_c, 0, 83, 80
2, 3126, Note_on_c, 0, 83, 0
2, 3126, Note_on_c, 0, 81, 80
2, 3126, Note_on_c, 0, 78, 80
2, 3159, Note_on_c, 0, 81, 0
2, 3159, Note_on_c, 0, 78, 0
2, 3162, Note_on_c, 0, 80, 78
2, 3162, Note_on_c, 0, 76, 78
2, 3168, Note_on_c, 0, 80, 0
2, 3168, Note_on_c, 0, 76, 0
2, 3168, Note_on_c, 0, 80, 78
2, 3252, Note_on_c, 0, 80, 0
2, 3252, Note_on_c, 0, 81, 76
2, 3264, Note_on_c, 0, 81, 0
2, 3264, Note_on_c, 0, 78, 76
2, 3309, Note_on_c, 0, 78, 0
2, 3336, Note_on_c, 0, 76, 91
2, 3336, Note_on_c, 0, 73, 91
2, 3360, Note_on_c, 0, 76, 0
2, 3360, Note_on_c, 0, 73, 0
2, 3360, Note_on_c, 0, 75, 75
2, 3360, Note_on_c, 0, 71, 75
2, 3367, Note_on_c, 0, 75, 0
2, 3367, Note_on_c, 0, 71, 0
2, 3376, Note_on_c, 0, 73, 73
2, 3376, Note_on_c, 0, 69, 73
2, 3383, Note_on_c, 0, 73, 0
2, 3383, Note_on_c, 0, 69, 0
2, 3392, Note_on_c, 0, 71, 72
2, 3392, Note_on_c, 0, 68, 72
2, 3399, Note_on_c, 0, 71, 0
2, 3399, Note_on_c, 0, 68, 0
2, 3408, Note_on_c, 0, 69, 70
2, 3408, Note_on_c, 0, 66, 70
2, 3415, Note_on_c, 0, 69, 0
2, 3415, Note_on_c, 0, 66, 0
2, 3424, Note_on_c, 0, 68, 69
2, 3424, Note_on_c, 0, 64, 69
2, 3431, Note_on_c, 0, 68, 0
2, 3431, Note_on_c, 0, 64, 0
2, 3440, Note_on_c, 0, 66, 68
2, 3440, Note_on_c, 0, 59, 68
2, 3447, Note_on_c, 0, 66, 0
2, 3447, Note_on_c, 0, 59, 0
2, 3456, Note_on_c, 0, 64, 64
2, 3534, Note_on_c, 0, 64, 0
2, 3540, Note_on_c, 0, 63, 64
2, 3552, Note_on_c, 0, 63, 0
2, 3552, Note_on_c, 0, 66, 64
2, 3641, Note_on_c, 0, 66, 0
2, 3648, Note_on_c, 0, 59, 64
2, 3726, Note_on_c, 0, 59, 0
2, 3732, Note_on_c, 0, 59, 64
2, 3744, Note_on_c, 0, 59, 0
2, 3744, Note_on_c, 0, 71, 64
2, 3822, Note_on_c, 0, 71, 0
2, 3828, Note_on_c, 0, 69, 67
2, 3840, Note_on_c, 0, 69, 0
2, 3840, Note_on_c, 0, 72, 67
2, 3918, Note_on_c, 0, 72, 0
2, 3924, Note_on_c, 0, 66, 71
2, 3936, Note_on_c, 0, 66, 0
2, 3936, Note_on_c, 0, 73, 71
2, 3936, Note_on_c, 0, 69, 71
2, 3936, Note_on_c, 0, 66, 71
2, 3936, Note_on_c, 0, 61, 71
2, 4014, Note_on_c, 0, 73, 0
2, 4014, Note_on_c, 0, 69, 0
2, 4014, Note_on_c, 0, 66, 0
2, 4014, Note_on_c, 0, 61, 0
2, 4020, Note_on_c, 0, 66, 75
2, 4032, Note_on_c, 0, 66, 0
2, 4032, Note_on_c, 0, 75, 80
2, 4110, Note_on_c, 0, 75, 0
2, 4116, Note_on_c, 0, 68, 80
2, 4128, Note_on_c, 0, 68, 0
2, 4128, Note_on_c, 0, 64, 80
2, 4132, Note_on_c, 0, 64, 0
2, 4132, Note_on_c, 0, 68, 80
2, 4136, Note_on_c, 0, 68, 0
2, 4136, Note_on_c, 0, 73, 80
2, 4140, Note_on_c, 0, 73, 0
2, 4140, Note_on_c, 0, 76, 80
2, 4146, Note_on_c, 0, 76, 0
2, 4146, Note_on_c, 0, 78, 80
2, 4152, Note_on_c, 0, 78, 0
2, 4152, Note_on_c, 0, 76, 80
2, 4158, Note_on_c, 0, 76, 0
2, 4158, Note_on_c, 0, 75, 79
2, 4164, Note_on_c, 0, 75, 0
2, 4164, Note_on_c, 0, 76, 79
2, 4170, Note_on_c, 0, 76, 0
2, 4170, Note_on_c, 0, 78, 78
2, 4173, Note_on_c, 0, 78, 0
2, 4176, Note_on_c, 0, 80, 78
2, 4191, Note_on_c, 0, 80, 0
2, 4192, Note_on_c, 0, 76, 77
2, 4207, Note_on_c, 0, 76, 0
2, 4208, Note_on_c, 0, 73, 76
2, 4223, Note_on_c, 0, 73, 0
2, 4224, Note_on_c, 0, 71, 64
2, 4234, Note_on_c, 0, 71, 0
2, 4272, Note_on_c, 0, 70, 64
2, 4272, Note_on_c, 0, 64, 64
2, 4295, Note_on_c, 0, 70, 0
2, 4295, Note_on_c, 0, 64, 0
2, 4320, Note_on_c, 0, 73, 64
2, 4320, Note_on_c, 0, 70, 64
2, 4416, Note_on_c, 0, 73, 0
2, 4416, Note_on_c, 0, 70, 0
2, 4416, Note_on_c, 0, 71, 64
2, 4461, Note_on_c, 0, 71, 0
2, 4608, Note_on_c, 0, 72, 64
2, 4692, Note_on_c, 0, 72, 0
2, 4692, Note_on_c, 0, 71, 70
2, 4704, Note_on_c, 0, 71, 0
2, 4704, Note_on_c, 0, 78, 71
2, 4788, Note_on_c, 0, 78, 0
2, 4788, Note_on_c, 0, 71, 77
2, 4800, Note_on_c, 0, 71, 0
2, 4800, Note_on_c, 0, 71, 78
2, 4806, Note_on_c, 0, 71, 0
2, 4806, Note_on_c, 0, 79, 78
2, 4884, Note_on_c, 0, 79, 0
2, 4884, Note_on_c, 0, 71, 85
2, 4896, Note_on_c, 0, 71, 0
2, 4896, Note_on_c, 0, 81, 86
2, 4896, Note_on_c, 0, 77, 86
2, 4896, Note_on_c, 0, 74, 86
2, 4896, Note_on_c, 0, 71, 86
2, 4990, Note_on_c, 0, 81, 0
2, 4990, Note_on_c, 0, 77, 0
2, 4990, Note_on_c, 0, 74, 0
2, 4990, Note_on_c, 0, 71, 0
2, 4992, Note_on_c, 0, 77, 86
2, 4992, Note_on_c, 0, 74, 86
2, 4992, Note_on_c, 0, 71, 86
2, 4992, Note_on_c, 0, 67, 86
2, 5081, Note_on_c, 0, 77, 0
2, 5081, Note_on_c, 0, 74, 0
2, 5081, Note_on_c, 0, 71, 0
2, 5081, Note_on_c, 0, 67, 0
2, 5088, Note_on_c, 0, 76, 86
2, 5088, Note_on_c, 0, 72, 86
2, 5172, Note_on_c, 0, 76, 0
2, 5172, Note_on_c, 0, 72, 0
2, 5172, Note_on_c, 0, 74, 86
2, 5184, Note_on_c, 0, 74, 0
2, 5184, Note_on_c, 0, 74, 86
2, 5268, Note_on_c, 0, 74, 0
2, 5268, Note_on_c, 0, 72, 86
2, 5280, Note_on_c, 0, 72, 0
2, 5280, Note_on_c, 0, 72, 86
2, 5364, Note_on_c, 0, 72, 0
2, 5364, Note_on_c, 0, 71, 81
2, 5376, Note_on_c, 0, 71, 0
2, 5376, Note_on_c, 0, 71, 80
2, 5460, Note_on_c, 0, 71, 0
2, 5460, Note_on_c, 0, 70, 75
2, 5472, Note_on_c, 0, 70, 0
2, 5472, Note_on_c, 0, 70, 75
2, 5605, Note_on_c, 0, 70, 0
2, 5616, Note_on_c, 0, 71, 66
2, 5661, Note_on_c, 0, 71, 0
2, 5664, Note_on_c, 0, 69, 64
2, 5709, Note_on_c, 0, 69, 0
2, 5712, Note_on_c, 0, 66, 64
2, 5757, Note_on_c, 0, 66, 0
2, 5760, Note_on_c, 0, 64, 64
2, 5838, Note_on_c, 0, 64, 0
2, 5844, Note_on_c, 0, 63, 64
2, 5856, Note_on_c, 0, 63, 0
2, 5856, Note_on_c, 0, 66, 64
2, 5945, Note_on_c, 0, 66, 0
2, 5952, Note_on_c, 0, 59, 64
2, 5957, Note_on_c, 0, 59, 0
2, 5964, Note_on_c, 0, 61, 64
2, 5969, Note_on_c, 0, 61, 0
2, 5976, Note_on_c, 0, 63, 64
2, 5981, Note_on_c, 0, 63, 0
2, 5988, Note_on_c, 0, 64, 64
2, 5993, Note_on_c, 0, 64, 0
2, 6000, Note_on_c, 0, 66, 64
2, 6005, Note_on_c, 0, 66, 0
2, 6012, Note_on_c, 0, 68, 64
2, 6017, Note_on_c, 0, 68, 0
2, 6024, Note_on_c, 0, 69, 64
2, 6029, Note_on_c, 0, 69, 0
2, 6036, Note_on_c, 0, 70, 64
2, 6041, Note_on_c, 0, 70, 0
2, 6048, Note_on_c, 0, 71, 64
2, 6058, Note_on_c, 0, 71, 0
2, 6072, Note_on_c, 0, 71, 66
2, 6082, Note_on_c, 0, 71, 0
2, 6096, Note_on_c, 0, 71, 68
2, 6106, Note_on_c, 0, 71, 0
2, 6120, Note_on_c, 0, 71, 71
2, 6130, Note_on_c, 0, 71, 0
2, 6144, Note_on_c, 0, 71, 73
2, 6151, Note_on_c, 0, 71, 0
2, 6160, Note_on_c, 0, 71, 75
2, 6167, Note_on_c, 0, 71, 0
2, 6176, Note_on_c, 0, 71, 76
2, 6183, Note_on_c, 0, 71, 0
2, 6192, Note_on_c, 0, 71, 77
2, 6197, Note_on_c, 0, 71, 0
2, 6204, Note_on_c, 0, 71, 80
2, 6209, Note_on_c, 0, 71, 0
2, 6216, Note_on_c, 0, 71, 80
2, 6221, Note_on_c, 0, 71, 0
2, 6228, Note_on_c, 0, 71, 80
2, 6233, Note_on_c, 0, 71, 0
2, 6240, Note_on_c, 0, 71, 80
2, 6251, Note_on_c, 0, 71, 0
2, 6258, Note_on_c, 0, 73, 80
2, 6264, Note_on_c, 0, 73, 0
2, 6264, Note_on_c, 0, 71, 80
2, 6270, Note_on_c, 0, 71, 0
2, 6270, Note_on_c, 0, 70, 80
2, 6276, Note_on_c, 0, 70, 0
2, 6276, Note_on_c, 0, 71, 80
2, 6282, Note_on_c, 0, 71, 0
2, 6282, Note_on_c, 0, 73, 80
2, 6288, Note_on_c, 0, 73, 0
2, 6288, Note_on_c, 0, 75, 80
2, 6294, Note_on_c, 0, 75, 0
2, 6294, Note_on_c, 0, 76, 80
2, 6300, Note_on_c, 0, 76, 0
2, 6300, Note_on_c, 0, 78, 80
2, 6306, Note_on_c, 0, 78, 0
2, 6306, Note_on_c, 0, 80, 80
2, 6312, Note_on_c, 0, 80, 0
2, 6312, Note_on_c, 0, 81, 80
2, 6318, Note_on_c, 0, 81, 0
2, 6318, Note_on_c, 0, 83, 80
2, 6324, Note_on_c, 0, 83, 0
2, 6324, Note_on_c, 0, 85, 80
2, 6330, Note_on_c, 0, 85, 0
2, 6330, Note_on_c, 0, 87, 80
2, 6336, Note_on_c, 0, 87, 0
2, 6336, Note_on_c, 0, 88, 99
2, 6420, Note_on_c, 0, 88, 0
2, 6420, Note_on_c, 0, 87, 86
2, 6432, Note_on_c, 0, 87, 0
2, 6432, Note_on_c, 0, 86, 86
2, 6521, Note_on_c, 0, 86, 0
2, 6528, Note_on_c, 0, 85, 86
2, 6617, Note_on_c, 0, 85, 0
2, 6624, Note_on_c, 0, 71, 86
2, 6630, Note_on_c, 0, 71, 0
2, 6630, Note_on_c, 0, 76, 86
2, 6636, Note_on_c, 0, 76, 0
2, 6636, Note_on_c, 0, 80, 86
2, 6642, Note_on_c, 0, 80, 0
2, 6642, Note_on_c, 0, 83, 102
2, 6708, Note_on_c, 0, 83, 0
2, 6708, Note_on_c, 0, 82, 86
2, 6720, Note_on_c, 0, 82, 0
2, 6720, Note_on_c, 0, 88, 102
2, 6912, Note_on_c, 0, 88, 0
2, 6912, Note_on_c, 0, 81, 64
2, 6912, Note_on_c, 0, 78, 64
2, 6996, Note_on_c, 0, 81, 0
2, 6996, Note_on_c, 0, 78, 0
2, 6996, Note_on_c, 0, 80, 64
2, 6996, Note_on_c, 0, 76, 64
2, 7008, Note_on_c, 0, 80, 0
2, 7008, Note_on_c, 0, 76, 0
2, 7008, Note_on_c, 0, 85, 64
2, 7008, Note_on_c, 0, 76, 64
2, 7028, Note_on_c, 0, 85, 0
2, 7028, Note_on_c, 0, 76, 0
2, 7104, Note_on_c, 0, 75, 64
2, 7104, Note_on_c, 0, 69, 64
2, 7149, Note_on_c, 0, 75, 0
2, 7149, Note_on_c, 0, 69, 0
2, 7200, Note_on_c, 0, 75, 64
2, 7200, Note_on_c, 0, 66, 64
2, 7296, Note_on_c, 0, 75, 0
2, 7296, Note_on_c, 0, 66, 0
2, 7296, Note_on_c, 0, 76, 64
2, 7296, Note_on_c, 0, 68, 64
2, 7296, Note_on_c, 0, 64, 64
2, 7473, Note_on_c, 0, 76, 0
2, 7473, Note_on_c, 0, 68, 0
2, 7473, Note_on_c, 0, 64, 0
2, 7488, Note_on_c, 0, 72, 64
2, 7572, Note_on_c, 0, 72, 0
2, 7572, Note_on_c, 0, 71, 70
2, 7584, Note_on_c, 0, 71, 0
2, 7584, Note_on_c, 0, 78, 71
2, 7668, Note_on_c, 0, 78, 0
2, 7668, Note_on_c, 0, 71, 77
2, 7680, Note_on_c, 0, 71, 0
2, 7680, Note_on_c, 0, 71, 78
2, 7686, Note_on_c, 0, 71, 0
2, 7686, Note_on_c, 0, 79, 78
2, 7764, Note_on_c, 0, 79, 0
2, 7764, Note_on_c, 0, 71, 85
2, 7776, Note_on_c, 0, 71, 0
2, 7776, Note_on_c, 0, 81, 86
2, 7776, Note_on_c, 0, 77, 86
2, 7776, Note_on_c, 0, 74, 86
2, 7776, Note_on_c, 0, 71, 86
2, 7870, Note_on_c, 0, 81, 0
2, 7870, Note_on_c, 0, 77, 0
2, 7870, Note_on_c, 0, 74, 0
2, 7870, Note_on_c, 0, 71, 0
2, 7872, Note_on_c, 0, 77, 86
2, 7872, Note_on_c, 0, 74, 86
2, 7872, Note_on_c, 0, 71, 86
2, 7872, Note_on_c, 0, 67, 86
2, 7961, Note_on_c, 0, 77, 0
2, 7961, Note_on_c, 0, 74, 0
2, 7961, Note_on_c, 0, 71, 0
2, 7961, Note_on_c, 0, 67, 0
2, 7968, Note_on_c, 0, 76, 86
2, 7968, Note_on_c, 0, 72, 86
2, 8052, Note_on_c, 0, 76, 0
2, 8052, Note_on_c, 0, 72, 0
2, 8052, Note_on_c, 0, 74, 86
2, 8064, Note_on_c, 0, 74, 0
2, 8064, Note_on_c, 0, 74, 86
2, 8148, Note_on_c, 0, 74, 0
2, 8148, Note_on_c, 0, 72, 86
2, 8160, Note_on_c, 0, 72, 0
2, 8160, Note_on_c, 0, 72, 86
2, 8244, Note_on_c, 0, 72, 0
2, 8244, Note_on_c, 0, 71, 81
2, 8256, Note_on_c, 0, 71, 0
2, 8256, Note_on_c, 0, 71, 80
2, 8340, Note_on_c, 0, 71, 0
2, 8340, Note_on_c, 0, 70, 75
2, 8352, Note_on_c, 0, 70, 0
2, 8352, Note_on_c, 0, 70, 75
2, 8485, Note_on_c, 0, 70, 0
2, 8496, Note_on_c, 0, 71, 66
2, 8541, Note_on_c, 0, 71, 0
2, 8544, Note_on_c, 0, 69, 64
2, 8589, Note_on_c, 0, 69, 0
2, 8592, Note_on_c, 0, 66, 64
2, 8637, Note_on_c, 0, 66, 0
2, 8640, Note_on_c, 0, 64, 64
2, 8718, Note_on_c, 0, 64, 0
2, 8724, Note_on_c, 0, 63, 64
2, 8736, Note_on_c, 0, 63, 0
2, 8736, Note_on_c, 0, 66, 64
2, 8825, Note_on_c, 0, 66, 0
2, 8832, Note_on_c, 0, 59, 64
2, 8837, Note_on_c, 0, 59, 0
2, 8844, Note_on_c, 0, 61, 64
2, 8849, Note_on_c, 0, 61, 0
2, 8856, Note_on_c, 0, 63, 64
2, 8861, Note_on_c, 0, 63, 0
2, 8868, Note_on_c, 0, 64, 64
2, 8873, Note_on_c, 0, 64, 0
2, 8880, Note_on_c, 0, 66, 64
2, 8885, Note_on_c, 0, 66, 0
2, 8892, Note_on_c, 0, 68, 64
2, 8897, Note_on_c, 0, 68, 0
2, 8904, Note_on_c, 0, 69, 64
2, 8909, Note_on_c, 0, 69, 0
2, 8916, Note_on_c, 0, 70, 64
2, 8921, Note_on_c, 0, 70, 0
2, 8928, Note_on_c, 0, 71, 64
2, 8938, Note_on_c, 0, 71, 0
2, 8952, Note_on_c, 0, 71, 66
2, 8962, Note_on_c, 0, 71, 0
2, 8976, Note_on_c, 0, 71, 68
2, 8986, Note_on_c, 0, 71, 0
2, 9000, Note_on_c, 0, 71, 71
2, 9010, Note_on_c, 0, 71, 0
2, 9024, Note_on_c, 0, 71, 73
2, 9031, Note_on_c, 0, 71, 0
2, 9040, Note_on_c, 0, 71, 75
2, 9047, Note_on_c, 0, 71, 0
2, 9056, Note_on_c, 0, 71, 76
2, 9063, Note_on_c, 0, 71, 0
2, 9072, Note_on_c, 0, 71, 77
2, 9077, Note_on_c, 0, 71, 0
2, 9084, Note_on_c, 0, 71, 80
2, 9089, Note_on_c, 0, 71, 0
2, 9096, Note_on_c, 0, 71, 80
2, 9101, Note_on_c, 0, 71, 0
2, 9108, Note_on_c, 0, 71, 80
2, 9113, Note_on_c, 0, 71, 0
2, 9120, Note_on_c, 0, 71, 80
2, 9131, Note_on_c, 0, 71, 0
2, 9138, Note_on_c, 0, 73, 80
2, 9144, Note_on_c, 0, 73, 0
2, 9144, Note_on_c, 0, 71, 80
2, 9150, Note_on_c, 0, 71, 0
2, 9150, Note_on_c, 0, 70, 80
2, 9156, Note_on_c, 0, 70, 0
2, 9156, Note_on_c, 0, 71, 80
2, 9162, Note_on_c, 0, 71, 0
2, 9162, Note_on_c, 0, 73, 80
2, 9168, Note_on_c, 0, 73, 0
2, 9168, Note_on_c, 0, 75, 80
2, 9174, Note_on_c, 0, 75, 0
2, 9174, Note_on_c, 0, 76, 80
2, 9180, Note_on_c, 0, 76, 0
2, 9180, Note_on_c, 0, 78, 80
2, 9186, Note_on_c, 0, 78, 0
2, 9186, Note_on_c, 0, 80, 80
2, 9192, Note_on_c, 0, 80, 0
2, 9192, Note_on_c, 0, 81, 80
2, 9198, Note_on_c, 0, 81, 0
2, 9198, Note_on_c, 0, 83, 80
2, 9204, Note_on_c, 0, 83, 0
2, 9204, Note_on_c, 0, 85, 80
2, 9210, Note_on_c, 0, 85, 0
2, 9210, Note_on_c, 0, 87, 80
2, 9216, Note_on_c, 0, 87, 0
2, 9216, Note_on_c, 0, 88, 99
2, 9300, Note_on_c, 0, 88, 0
2, 9300, Note_on_c, 0, 87, 86
2, 9312, Note_on_c, 0, 87, 0
2, 9312, Note_on_c, 0, 86, 86
2, 9401, Note_on_c, 0, 86, 0
2, 9408, Note_on_c, 0, 85, 86
2, 9497, Note_on_c, 0, 85, 0
2, 9504, Note_on_c, 0, 71, 86
2, 9510, Note_on_c, 0, 71, 0
2, 9510, Note_on_c, 0, 76, 86
2, 9516, Note_on_c, 0, 76, 0
2, 9516, Note_on_c, 0, 80, 86
2, 9522, Note_on_c, 0, 80, 0
2, 9522, Note_on_c, 0, 83, 102
2, 9588, Note_on_c, 0, 83, 0
2, 9588, Note_on_c, 0, 82, 86
2, 9600, Note_on_c, 0, 82, 0
2, 9600, Note_on_c, 0, 88, 102
2, 9792, Note_on_c, 0, 88, 0
2, 9792, Note_on_c, 0, 81, 64
2, 9792, Note_on_c, 0, 78, 64
2, 9876, Note_on_c, 0, 81, 0
2, 9876, Note_on_c, 0, 78, 0
2, 9876, Note_on_c, 0, 80, 64
2, 9876, Note_on_c, 0, 76, 64
2, 9888, Note_on_c, 0, 80, 0
2, 9888, Note_on_c, 0, 76, 0
2, 9888, Note_on_c, 0, 85, 64
2, 9888, Note_on_c, 0, 76, 64
2, 9908, Note_on_c, 0, 85, 0
2, 9908, Note_on_c, 0, 76, 0
2, 9984, Note_on_c, 0, 75, 64
2, 9984, Note_on_c, 0, 69, 64
2, 10029, Note_on_c, 0, 75, 0
2, 10029, Note_on_c, 0, 69, 0
2, 10080, Note_on_c, 0, 75, 64
2, 10080, Note_on_c, 0, 66, 64
2, 10176, Note_on_c, 0, 75, 0
2, 10176, Note_on_c, 0, 66, 0
2, 10176, Note_on_c, 0, 76, 64
2, 10176, Note_on_c, 0, 68, 64
2, 10176, Note_on_c, 0, 64, 64
2, 10353, Note_on_c, 0, 76, 0
2, 10353, Note_on_c, 0, 68, 0
2, 10353, Note_on_c, 0, 64, 0
2, 10368, Note_on_c, 0, 52, 80
2, 10452, Note_on_c, 0, 52, 0
2, 10452, Note_on_c, 0, 51, 80
2, 10464, Note_on_c, 0, 51, 0
2, 10464, Note_on_c, 0, 54, 80
2, 10498, Note_on_c, 0, 54, 0
2, 10500, Note_on_c, 0, 52, 80
2, 10512, Note_on_c, 0, 52, 0
2, 10512, Note_on_c, 0, 55, 80
2, 10546, Note_on_c, 0, 55, 0
2, 10548, Note_on_c, 0, 54, 80
2, 10560, Note_on_c, 0, 54, 0
2, 10560, Note_on_c, 0, 57, 80
2, 10594, Note_on_c, 0, 57, 0
2, 10596, Note_on_c, 0, 55, 80
2, 10608, Note_on_c, 0, 55, 0
2, 10608, Note_on_c, 0, 59, 80
2, 10642, Note_on_c, 0, 59, 0
2, 10644, Note_on_c, 0, 57, 80
2, 10656, Note_on_c, 0, 57, 0
2, 10656, Note_on_c, 0, 60, 80
2, 10745, Note_on_c, 0, 60, 0
2, 10752, Note_on_c, 0, 50, 80
2, 10768, Note_on_c, 0, 50, 0
2, 10768, Note_on_c, 0, 52, 80
2, 10772, Note_on_c, 0, 52, 0
2, 10772, Note_on_c, 0, 54, 80
2, 10776, Note_on_c, 0, 54, 0
2, 10776, Note_on_c, 0, 55, 80
2, 10780, Note_on_c, 0, 55, 0
2, 10780, Note_on_c, 0, 57, 80
2, 10784, Note_on_c, 0, 57, 0
2, 10784, Note_on_c, 0, 59, 80
2, 10788, Note_on_c, 0, 59, 0
2, 10788, Note_on_c, 0, 60, 80
2, 10792, Note_on_c, 0, 60, 0
2, 10792, Note_on_c, 0, 62, 80
2, 10796, Note_on_c, 0, 62, 0
2, 10796, Note_on_c, 0, 64, 80
2, 10800, Note_on_c, 0, 64, 0
2, 10800, Note_on_c, 0, 66, 80
2, 10804, Note_on_c, 0, 66, 0
2, 10804, Note_on_c, 0, 67, 80
2, 10808, Note_on_c, 0, 67, 0
2, 10808, Note_on_c, 0, 69, 80
2, 10812, Note_on_c, 0, 69, 0
2, 10812, Note_on_c, 0, 71, 80
2, 10816, Note_on_c, 0, 71, 0
2, 10816, Note_on_c, 0, 72, 80
2, 10820, Note_on_c, 0, 72, 0
2, 10820, Note_on_c, 0, 74, 80
2, 10824, Note_on_c, 0, 74, 0
2, 10824, Note_on_c, 0, 76, 80
2, 10828, Note_on_c, 0, 76, 0
2, 10828, Note_on_c, 0, 78, 80
2, 10832, Note_on_c, 0, 78, 0
2, 10832, Note_on_c, 0, 79, 80
2, 10836, Note_on_c, 0, 79, 0
2, 10836, Note_on_c, 0, 81, 80
2, 10839, Note_on_c, 0, 81, 0
2, 10839, Note_on_c, 0, 83, 80
2, 10842, Note_on_c, 0, 83, 0
2, 10842, Note_on_c, 0, 84, 80
2, 10845, Note_on_c, 0, 84, 0
2, 10845, Note_on_c, 0, 86, 80
2, 10848, Note_on_c, 0, 86, 0
2, 10848, Note_on_c, 0, 88, 80
2, 10868, Note_on_c, 0, 88, 0
2, 10932, Note_on_c, 0, 88, 64
2, 10932, Note_on_c, 0, 84, 64
2, 10944, Note_on_c, 0, 88, 0
2, 10944, Note_on_c, 0, 84, 0
2, 10944, Note_on_c, 0, 86, 64
2, 10944, Note_on_c, 0, 83, 64
2, 10989, Note_on_c, 0, 86, 0
2, 10989, Note_on_c, 0, 83, 0
2, 11016, Note_on_c, 0, 81, 64
2, 11024, Note_on_c, 0, 81, 0
2, 11024, Note_on_c, 0, 84, 64
2, 11032, Note_on_c, 0, 84, 0
2, 11032, Note_on_c, 0, 88, 64
2, 11040, Note_on_c, 0, 88, 0
2, 11040, Note_on_c, 0, 86, 64
2, 11040, Note_on_c, 0, 83, 64
2, 11085, Note_on_c, 0, 86, 0
2, 11085, Note_on_c, 0, 83, 0
2, 11112, Note_on_c, 0, 86, 64
2, 11120, Note_on_c, 0, 86, 0
2, 11120, Note_on_c, 0, 83, 64
2, 11128, Note_on_c, 0, 83, 0
2, 11128, Note_on_c, 0, 79, 64
2, 11136, Note_on_c, 0, 79, 0
2, 11136, Note_on_c, 0, 78, 64
2, 11146, Note_on_c, 0, 78, 0
2, 11160, Note_on_c, 0, 83, 64
2, 11168, Note_on_c, 0, 83, 0
2, 11168, Note_on_c, 0, 79, 64
2, 11176, Note_on_c, 0, 79, 0
2, 11176, Note_on_c, 0, 76, 64
2, 11184, Note_on_c, 0, 76, 0
2, 11184, Note_on_c, 0, 74, 64
2, 11194, Note_on_c, 0, 74, 0
2, 11208, Note_on_c, 0, 79, 64
2, 11216, Note_on_c, 0, 79, 0
2, 11216, Note_on_c, 0, 76, 64
2, 11224, Note_on_c, 0, 76, 0
2, 11224, Note_on_c, 0, 72, 64
2, 11232, Note_on_c, 0, 72, 0
2, 11232, Note_on_c, 0, 71, 64
2, 11252, Note_on_c, 0, 71, 0
2, 11304, Note_on_c, 0, 76, 64
2, 11312, Note_on_c, 0, 76, 0
2, 11312, Note_on_c, 0, 72, 64
2, 11320, Note_on_c, 0, 72, 0
2, 11320, Note_on_c, 0, 69, 64
2, 11328, Note_on_c, 0, 69, 0
2, 11328, Note_on_c, 0, 67, 64
2, 11348, Note_on_c, 0, 67, 0
2, 11400, Note_on_c, 0, 74, 64
2, 11408, Note_on_c, 0, 74, 0
2, 11408, Note_on_c, 0, 71, 64
2, 11416, Note_on_c, 0, 71, 0
2, 11416, Note_on_c, 0, 68, 64
2, 11424, Note_on_c, 0, 68, 0
2, 11424, Note_on_c, 0, 69, 64
2, 11458, Note_on_c, 0, 69, 0
2, 11460, Note_on_c, 0, 71, 66
2, 11472, Note_on_c, 0, 71, 0
2, 11472, Note_on_c, 0, 72, 67
2, 11506, Note_on_c, 0, 72, 0
2, 11508, Note_on_c, 0, 73, 69
2, 11520, Note_on_c, 0, 73, 0
2, 11520, Note_on_c, 0, 74, 70
2, 11543, Note_on_c, 0, 74, 0
2, 11550, Note_on_c, 0, 75, 70
2, 11556, Note_on_c, 0, 75, 0
2, 11556, Note_on_c, 0, 76, 70
2, 11562, Note_on_c, 0, 76, 0
2, 11562, Note_on_c, 0, 77, 70
2, 11568, Note_on_c, 0, 77, 0
2, 11568, Note_on_c, 0, 78, 70
2, 11574, Note_on_c, 0, 78, 0
2, 11574, Note_on_c, 0, 79, 70
2, 11580, Note_on_c, 0, 79, 0
2, 11580, Note_on_c, 0, 80, 70
2, 11586, Note_on_c, 0, 80, 0
2, 11586, Note_on_c, 0, 81, 70
2, 11592, Note_on_c, 0, 81, 0
2, 11592, Note_on_c, 0, 82, 70
2, 11598, Note_on_c, 0, 82, 0
2, 11598, Note_on_c, 0, 83, 70
2, 11604, Note_on_c, 0, 83, 0
2, 11604, Note_on_c, 0, 84, 70
2, 11610, Note_on_c, 0, 84, 0
2, 11610, Note_on_c, 0, 85, 70
2, 11616, Note_on_c, 0, 85, 0
2, 11616, Note_on_c, 0, 86, 76
2, 11661, Note_on_c, 0, 86, 0
2, 11664, Note_on_c, 0, 62, 80
2, 11669, Note_on_c, 0, 62, 0
2, 11669, Note_on_c, 0, 63, 80
2, 11674, Note_on_c, 0, 63, 0
2, 11674, Note_on_c, 0, 64, 80
2, 11679, Note_on_c, 0, 64, 0
2, 11679, Note_on_c, 0, 65, 80
2, 11684, Note_on_c, 0, 65, 0
2, 11684, Note_on_c, 0, 66, 80
2, 11689, Note_on_c, 0, 66, 0
2, 11689, Note_on_c, 0, 67, 80
2, 11694, Note_on_c, 0, 67, 0
2, 11694, Note_on_c, 0, 68, 80
2, 11699, Note_on_c, 0, 68, 0
2, 11699, Note_on_c, 0, 69, 80
2, 11704, Note_on_c, 0, 69, 0
2, 11704, Note_on_c, 0, 70, 80
2, 11708, Note_on_c, 0, 70, 0
2, 11708, Note_on_c, 0, 71, 80
2, 11712, Note_on_c, 0, 71, 0
2, 11712, Note_on_c, 0, 72, 80
2, 11735, Note_on_c, 0, 72, 0
2, 11760, Note_on_c, 0, 66, 72
2, 11760, Note_on_c, 0, 60, 72
2, 11783, Note_on_c, 0, 66, 0
2, 11783, Note_on_c, 0, 60, 0
2, 11808, Note_on_c, 0, 69, 64
2, 11808, Note_on_c, 0, 60, 64
2, 12000, Note_on_c, 0, 69, 0
2, 12000, Note_on_c, 0, 60, 0
2, 12000, Note_on_c, 0, 67, 64
2, 12000, Note_on_c, 0, 59, 64
2, 12045, Note_on_c, 0, 67, 0
2, 12045, Note_on_c, 0, 59, 0
2, 12096, Note_on_c, 0, 74, 64
2, 12106, Note_on_c, 0, 74, 0
2, 12120, Note_on_c, 0, 74, 65
2, 12130, Note_on_c, 0, 74, 0
2, 12144, Note_on_c, 0, 74, 66
2, 12154, Note_on_c, 0, 74, 0
2, 12168, Note_on_c, 0, 74, 68
2, 12178, Note_on_c, 0, 74, 0
2, 12192, Note_on_c, 0, 74, 69
2, 12202, Note_on_c, 0, 74, 0
2, 12216, Note_on_c, 0, 74, 70
2, 12226, Note_on_c, 0, 74, 0
2, 12240, Note_on_c, 0, 74, 72
2, 12250, Note_on_c, 0, 74, 0
2, 12264, Note_on_c, 0, 74, 73
2, 12274, Note_on_c, 0, 74, 0
2, 12288, Note_on_c, 0, 74, 74
2, 12298, Note_on_c, 0, 74, 0
2, 12312, Note_on_c, 0, 74, 76
2, 12322, Note_on_c, 0, 74, 0
2, 12336, Note_on_c, 0, 74, 77
2, 12346, Note_on_c, 0, 74, 0
2, 12360, Note_on_c, 0, 74, 78
2, 12370, Note_on_c, 0, 74, 0
2, 12384, Note_on_c, 0, 75, 98
2, 12462, Note_on_c, 0, 75, 0
2, 12468, Note_on_c, 0, 83, 80
2, 12474, Note_on_c, 0, 83, 0
2, 12474, Note_on_c, 0, 75, 80
2, 12480, Note_on_c, 0, 75, 0
2, 12480, Note_on_c, 0, 76, 80
2, 12514, Note_on_c, 0, 76, 0
2, 12516, Note_on_c, 0, 83, 80
2, 12522, Note_on_c, 0, 83, 0
2, 12522, Note_on_c, 0, 76, 80
2, 12528, Note_on_c, 0, 76, 0
2, 12528, Note_on_c, 0, 78, 80
2, 12562, Note_on_c, 0, 78, 0
2, 12564, Note_on_c, 0, 83, 80
2, 12570, Note_on_c, 0, 83, 0
2, 12570, Note_on_c, 0, 78, 80
2, 12576, Note_on_c, 0, 78, 0
2, 12576, Note_on_c, 0, 79, 80
2, 12610, Note_on_c, 0, 79, 0
2, 12612, Note_on_c, 0, 83, 80
2, 12618, Note_on_c, 0, 83, 0
2, 12618, Note_on_c, 0, 79, 80
2, 12624, Note_on_c, 0, 79, 0
2, 12624, Note_on_c, 0, 78, 80
2, 12658, Note_on_c, 0, 78, 0
2, 12660, Note_on_c, 0, 83, 80
2, 12666, Note_on_c, 0, 83, 0
2, 12666, Note_on_c, 0, 78, 80
2, 12672, Note_on_c, 0, 78, 0
2, 12672, Note_on_c, 0, 78, 80
2, 12678, Note_on_c, 0, 78, 0
2, 12678, Note_on_c, 0, 76, 80
2, 12706, Note_on_c, 0, 76, 0
2, 12708, Note_on_c, 0, 88, 80
2, 12720, Note_on_c, 0, 88, 0
2, 12720, Note_on_c, 0, 88, 80
2, 12726, Note_on_c, 0, 88, 0
2, 12726, Note_on_c, 0, 76, 80
2, 12754, Note_on_c, 0, 76, 0
2, 12756, Note_on_c, 0, 86, 80
2, 12768, Note_on_c, 0, 86, 0
2, 12768, Note_on_c, 0, 86, 80
2, 12774, Note_on_c, 0, 86, 0
2, 12774, Note_on_c, 0, 76, 80
2, 12802, Note_on_c, 0, 76, 0
2, 12804, Note_on_c, 0, 84, 80
2, 12816, Note_on_c, 0, 84, 0
2, 12816, Note_on_c, 0, 84, 80
2, 12822, Note_on_c, 0, 84, 0
2, 12822, Note_on_c, 0, 76, 80
2, 12850, Note_on_c, 0, 76, 0
2, 12852, Note_on_c, 0, 83, 80
2, 12864, Note_on_c, 0, 83, 0
2, 12864, Note_on_c, 0, 83, 80
2, 12870, Note_on_c, 0, 83, 0
2, 12870, Note_on_c, 0, 82, 80
2, 12898, Note_on_c, 0, 82, 0
2, 12900, Note_on_c, 0, 82, 80
2, 12912, Note_on_c, 0, 82, 0
2, 12912, Note_on_c, 0, 82, 80
2, 12957, Note_on_c, 0, 82, 0
2, 12960, Note_on_c, 0, 83, 80
2, 13101, Note_on_c, 0, 83, 0
2, 13140, Note_on_c, 0, 60, 64
2, 13152, Note_on_c, 0, 60, 0
2, 13152, Note_on_c, 0, 60, 64
2, 13158, Note_on_c, 0, 60, 0
2, 13158, Note_on_c, 0, 59, 64
2, 13186, Note_on_c, 0, 59, 0
2, 13188, Note_on_c, 0, 57, 64
2, 13200, Note_on_c, 0, 57, 0
2, 13200, Note_on_c, 0, 57, 64
2, 13206, Note_on_c, 0, 57, 0
2, 13206, Note_on_c, 0, 55, 64
2, 13234, Note_on_c, 0, 55, 0
2, 13236, Note_on_c, 0, 54, 64
2, 13248, Note_on_c, 0, 54, 0
2, 13248, Note_on_c, 0, 52, 80
2, 13326, Note_on_c, 0, 52, 0
2, 13332, Note_on_c, 0, 51, 80
2, 13344, Note_on_c, 0, 51, 0
2, 13344, Note_on_c, 0, 54, 80
2, 13378, Note_on_c, 0, 54, 0
2, 13380, Note_on_c, 0, 52, 80
2, 13392, Note_on_c, 0, 52, 0
2, 13392, Note_on_c, 0, 55, 80
2, 13426, Note_on_c, 0, 55, 0
2, 13428, Note_on_c, 0, 54, 80
2, 13440, Note_on_c, 0, 54, 0
2, 13440, Note_on_c, 0, 57, 80
2, 13474, Note_on_c, 0, 57, 0
2, 13476, Note_on_c, 0, 55, 80
2, 13488, Note_on_c, 0, 55, 0
2, 13488, Note_on_c, 0, 59, 80
2, 13522, Note_on_c, 0, 59, 0
2, 13524, Note_on_c, 0, 57, 80
2, 13536, Note_on_c, 0, 57, 0
2, 13536, Note_on_c, 0, 60, 80
2, 13625, Note_on_c, 0, 60, 0
2, 13632, Note_on_c, 0, 51, 80
2, 13721, Note_on_c, 0, 51, 0
2, 13728, Note_on_c, 0, 59, 80
2, 13762, Note_on_c, 0, 59, 0
2, 13764, Note_on_c, 0, 50, 80
2, 13776, Note_on_c, 0, 50, 0
2, 13776, Note_on_c, 0, 58, 80
2, 13810, Note_on_c, 0, 58, 0
2, 13812, Note_on_c, 0, 49, 80
2, 13824, Note_on_c, 0, 49, 0
2, 13824, Note_on_c, 0, 57, 80
2, 13913, Note_on_c, 0, 57, 0
2, 13920, Note_on_c, 0, 48, 80
2, 14009, Note_on_c, 0, 48, 0
2, 14016, Note_on_c, 0, 57, 80
2, 14050, Note_on_c, 0, 57, 0
2, 14052, Note_on_c, 0, 47, 80
2, 14064, Note_on_c, 0, 47, 0
2, 14064, Note_on_c, 0, 57, 80
2, 14098, Note_on_c, 0, 57, 0
2, 14100, Note_on_c, 0, 47, 80
2, 14112, Note_on_c, 0, 47, 0
2, 14112, Note_on_c, 0, 57, 80
2, 14124, Note_on_c, 0, 57, 0
2, 14124, Note_on_c, 0, 47, 80
2, 14136, Note_on_c, 0, 47, 0
2, 14136, Note_on_c, 0, 51, 80
2, 14148, Note_on_c, 0, 51, 0
2, 14148, Note_on_c, 0, 54, 80
2, 14160, Note_on_c, 0, 54, 0
2, 14160, Note_on_c, 0, 57, 80
2, 14172, Note_on_c, 0, 57, 0
2, 14172, Note_on_c, 0, 60, 80
2, 14184, Note_on_c, 0, 60, 0
2, 14184, Note_on_c, 0, 63, 80
2, 14196, Note_on_c, 0, 63, 0
2, 14196, Note_on_c, 0, 66, 80
2, 14208, Note_on_c, 0, 66, 0
2, 14208, Note_on_c, 0, 69, 80
2, 14220, Note_on_c, 0, 69, 0
2, 14220, Note_on_c, 0, 72, 80
2, 14232, Note_on_c, 0, 72, 0
2, 14232, Note_on_c, 0, 75, 80
2, 14244, Note_on_c, 0, 75, 0
2, 14244, Note_on_c, 0, 78, 80
2, 14256, Note_on_c, 0, 78, 0
2, 14256, Note_on_c, 0, 81, 80
2, 14266, Note_on_c, 0, 81, 0
2, 14280, Note_on_c, 0, 84, 80
2, 14290, Note_on_c, 0, 84, 0
2, 14304, Note_on_c, 0, 87, 80
2, 14314, Note_on_c, 0, 87, 0
2, 14400, Note_on_c, 0, 64, 64
2, 14478, Note_on_c, 0, 64, 0
2, 14484, Note_on_c, 0, 63, 64
2, 14496, Note_on_c, 0, 63, 0
2, 14496, Note_on_c, 0, 66, 64
2, 14585, Note_on_c, 0, 66, 0
2, 14592, Note_on_c, 0, 59, 64
2, 14670, Note_on_c, 0, 59, 0
2, 14676, Note_on_c, 0, 59, 64
2, 14688, Note_on_c, 0, 59, 0
2, 14688, Note_on_c, 0, 52, 64
2, 14694, Note_on_c, 0, 52, 0
2, 14694, Note_on_c, 0, 56, 64
2, 14700, Note_on_c, 0, 56, 0
2, 14700, Note_on_c, 0, 59, 64
2, 14706, Note_on_c, 0, 59, 0
2, 14706, Note_on_c, 0, 64, 64
2, 14712, Note_on_c, 0, 64, 0
2, 14712, Note_on_c, 0, 68, 64
2, 14718, Note_on_c, 0, 68, 0
2, 14718, Note_on_c, 0, 71, 64
2, 14766, Note_on_c, 0, 71, 0
2, 14772, Note_on_c, 0, 69, 64
2, 14784, Note_on_c, 0, 69, 0
2, 14784, Note_on_c, 0, 73, 64
2, 14873, Note_on_c, 0, 73, 0
2, 14880, Note_on_c, 0, 66, 69
2, 14880, Note_on_c, 0, 63, 69
2, 14969, Note_on_c, 0, 66, 0
2, 14969, Note_on_c, 0, 63, 0
2, 14976, Note_on_c, 0, 64, 74
2, 14979, Note_on_c, 0, 68, 74
2, 14982, Note_on_c, 0, 71, 74
2, 14985, Note_on_c, 0, 76, 74
2, 15060, Note_on_c, 0, 76, 0
2, 15060, Note_on_c, 0, 71, 0
2, 15060, Note_on_c, 0, 68, 0
2, 15060, Note_on_c, 0, 64, 0
2, 15060, Note_on_c, 0, 75, 78
2, 15072, Note_on_c, 0, 75, 0
2, 15072, Note_on_c, 0, 71, 78
2, 15075, Note_on_c, 0, 75, 78
2, 15078, Note_on_c, 0, 78, 78
2, 15081, Note_on_c, 0, 81, 78
2, 15120, Note_on_c, 0, 78, 0
2, 15120, Note_on_c, 0, 75, 0
2, 15120, Note_on_c, 0, 71, 0
2, 15154, Note_on_c, 0, 81, 0
2, 15156, Note_on_c, 0, 80, 80
2, 15156, Note_on_c, 0, 76, 80
2, 15168, Note_on_c, 0, 80, 0
2, 15168, Note_on_c, 0, 76, 0
2, 15168, Note_on_c, 0, 85, 80
2, 15168, Note_on_c, 0, 81, 80
2, 15178, Note_on_c, 0, 85, 0
2, 15178, Note_on_c, 0, 81, 0
2, 15204, Note_on_c, 0, 83, 80
2, 15204, Note_on_c, 0, 80, 80
2, 15216, Note_on_c, 0, 83, 0
2, 15216, Note_on_c, 0, 80, 0
2, 15216, Note_on_c, 0, 81, 80
2, 15216, Note_on_c, 0, 78, 80
2, 15255, Note_on_c, 0, 81, 0
2, 15255, Note_on_c, 0, 78, 0
2, 15258, Note_on_c, 0, 80, 80
2, 15258, Note_on_c, 0, 76, 80
2, 15264, Note_on_c, 0, 80, 0
2, 15264, Note_on_c, 0, 76, 0
2, 15264, Note_on_c, 0, 81, 80
2, 15270, Note_on_c, 0, 81, 0
2, 15270, Note_on_c, 0, 80, 80
2, 15276, Note_on_c, 0, 80, 0
2, 15276, Note_on_c, 0, 78, 80
2, 15282, Note_on_c, 0, 78, 0
2, 15282, Note_on_c, 0, 80, 80
2, 15298, Note_on_c, 0, 80, 0
2, 15300, Note_on_c, 0, 81, 80
2, 15312, Note_on_c, 0, 81, 0
2, 15312, Note_on_c, 0, 82, 80
2, 15346, Note_on_c, 0, 82, 0
2, 15348, Note_on_c, 0, 83, 80
2, 15360, Note_on_c, 0, 83, 0
2, 15360, Note_on_c, 0, 78, 80
2, 15405, Note_on_c, 0, 78, 0
2, 15432, Note_on_c, 0, 76, 96
2, 15432, Note_on_c, 0, 73, 96
2, 15456, Note_on_c, 0, 76, 0
2, 15456, Note_on_c, 0, 73, 0
2, 15456, Note_on_c, 0, 75, 75
2, 15456, Note_on_c, 0, 71, 75
2, 15463, Note_on_c, 0, 75, 0
2, 15463, Note_on_c, 0, 71, 0
2, 15472, Note_on_c, 0, 73, 73
2, 15472, Note_on_c, 0, 69, 73
2, 15479, Note_on_c, 0, 73, 0
2, 15479, Note_on_c, 0, 69, 0
2, 15488, Note_on_c, 0, 71, 72
2, 15488, Note_on_c, 0, 68, 72
2, 15495, Note_on_c, 0, 71, 0
2, 15495, Note_on_c, 0, 68, 0
2, 15504, Note_on_c, 0, 69, 70
2, 15504, Note_on_c, 0, 66, 70
2, 15511, Note_on_c, 0, 69, 0
2, 15511, Note_on_c, 0, 66, 0
2, 15520, Note_on_c, 0, 68, 69
2, 15520, Note_on_c, 0, 64, 69
2, 15527, Note_on_c, 0, 68, 0
2, 15527, Note_on_c, 0, 64, 0
2, 15536, Note_on_c, 0, 66, 68
2, 15536, Note_on_c, 0, 63, 68
2, 15543, Note_on_c, 0, 66, 0
2, 15543, Note_on_c, 0, 63, 0
2, 15552, Note_on_c, 0, 64, 64
2, 15597, Note_on_c, 0, 64, 0
2, 15600, Note_on_c, 0, 63, 64
2, 15615, Note_on_c, 0, 63, 0
2, 15616, Note_on_c, 0, 64, 64
2, 15631, Note_on_c, 0, 64, 0
2, 15632, Note_on_c, 0, 65, 64
2, 15647, Note_on_c, 0, 65, 0
2, 15648, Note_on_c, 0, 66, 64
2, 15737, Note_on_c, 0, 66, 0
2, 15744, Note_on_c, 0, 59, 64
2, 15759, Note_on_c, 0, 59, 0
2, 15760, Note_on_c, 0, 63, 64
2, 15775, Note_on_c, 0, 63, 0
2, 15776, Note_on_c, 0, 66, 64
2, 15791, Note_on_c, 0, 66, 0
2, 15792, Note_on_c, 0, 68, 64
2, 15807, Note_on_c, 0, 68, 0
2, 15808, Note_on_c, 0, 69, 64
2, 15823, Note_on_c, 0, 69, 0
2, 15824, Note_on_c, 0, 63, 64
2, 15839, Note_on_c, 0, 63, 0
2, 15840, Note_on_c, 0, 71, 64
2, 15885, Note_on_c, 0, 71, 0
2, 15888, Note_on_c, 0, 69, 65
2, 15903, Note_on_c, 0, 69, 0
2, 15904, Note_on_c, 0, 70, 66
2, 15919, Note_on_c, 0, 70, 0
2, 15920, Note_on_c, 0, 71, 66
2, 15935, Note_on_c, 0, 71, 0
2, 15936, Note_on_c, 0, 72, 67
2, 16020, Note_on_c, 0, 72, 0
2, 16020, Note_on_c, 0, 66, 70
2, 16032, Note_on_c, 0, 66, 0
2, 16032, Note_on_c, 0, 66, 71
2, 16044, Note_on_c, 0, 66, 0
2, 16044, Note_on_c, 0, 73, 71
2, 16116, Note_on_c, 0, 73, 0
2, 16116, Note_on_c, 0, 66, 75
2, 16128, Note_on_c, 0, 66, 0
2, 16128, Note_on_c, 0, 75, 80
2, 16206, Note_on_c, 0, 75, 0
2, 16212, Note_on_c, 0, 68, 80
2, 16224, Note_on_c, 0, 68, 0
2, 16320, Note_on_c, 0, 71, 67
2, 16330, Note_on_c, 0, 71, 0
2, 16368, Note_on_c, 0, 70, 64
2, 16368, Note_on_c, 0, 64, 64
2, 16391, Note_on_c, 0, 70, 0
2, 16391, Note_on_c, 0, 64, 0
2, 16416, Note_on_c, 0, 73, 64
2, 16416, Note_on_c, 0, 70, 64
2, 16512, Note_on_c, 0, 73, 0
2, 16512, Note_on_c, 0, 70, 0
2, 16512, Note_on_c, 0, 71, 64
2, 16590, Note_on_c, 0, 71, 0
2, 16704, Note_on_c, 0, 72, 64
2, 16788, Note_on_c, 0, 72, 0
2, 16788, Note_on_c, 0, 71, 64
2, 16800, Note_on_c, 0, 71, 0
2, 16800, Note_on_c, 0, 71, 64
2, 16806, Note_on_c, 0, 71, 0
2, 16806, Note_on_c, 0, 78, 64
2, 16884, Note_on_c, 0, 78, 0
2, 16884, Note_on_c, 0, 71, 64
2, 16896, Note_on_c, 0, 71, 0
2, 16896, Note_on_c, 0, 71, 64
2, 16902, Note_on_c, 0, 71, 0
2, 16902, Note_on_c, 0, 79, 64
2, 16980, Note_on_c, 0, 79, 0
2, 16980, Note_on_c, 0, 71, 83
2, 16992, Note_on_c, 0, 71, 0
2, 16992, Note_on_c, 0, 71, 86
2, 16998, Note_on_c, 0, 71, 0
2, 16998, Note_on_c, 0, 81, 86
2, 16998, Note_on_c, 0, 77, 86
2, 16998, Note_on_c, 0, 74, 86
2, 16998, Note_on_c, 0, 71, 86
2, 17081, Note_on_c, 0, 81, 0
2, 17081, Note_on_c, 0, 77, 0
2, 17081, Note_on_c, 0, 74, 0
2, 17081, Note_on_c, 0, 71, 0
2, 17088, Note_on_c, 0, 77, 86
2, 17088, Note_on_c, 0, 74, 86
2, 17088, Note_on_c, 0, 71, 86
2, 17088, Note_on_c, 0, 67, 86
2, 17177, Note_on_c, 0, 77, 0
2, 17177, Note_on_c, 0, 74, 0
2, 17177, Note_on_c, 0, 71, 0
2, 17177, Note_on_c, 0, 67, 0
2, 17184, Note_on_c, 0, 76, 86
2, 17184, Note_on_c, 0, 72, 86
2, 17262, Note_on_c, 0, 76, 0
2, 17262, Note_on_c, 0, 72, 0
2, 17268, Note_on_c, 0, 74, 86
2, 17280, Note_on_c, 0, 74, 0
2, 17280, Note_on_c, 0, 74, 86
2, 17358, Note_on_c, 0, 74, 0
2, 17364, Note_on_c, 0, 72, 86
2, 17370, Note_on_c, 0, 72, 0
2, 17370, Note_on_c, 0, 84, 86
2, 17376, Note_on_c, 0, 84, 0
2, 17376, Note_on_c, 0, 72, 86
2, 17454, Note_on_c, 0, 72, 0
2, 17460, Note_on_c, 0, 71, 81
2, 17466, Note_on_c, 0, 71, 0
2, 17466, Note_on_c, 0, 83, 80
2, 17472, Note_on_c, 0, 83, 0
2, 17472, Note_on_c, 0, 71, 80
2, 17550, Note_on_c, 0, 71, 0
2, 17556, Note_on_c, 0, 70, 75
2, 17562, Note_on_c, 0, 70, 0
2, 17562, Note_on_c, 0, 82, 75
2, 17568, Note_on_c, 0, 82, 0
2, 17568, Note_on_c, 0, 70, 75
2, 17701, Note_on_c, 0, 70, 0
2, 17712, Note_on_c, 0, 71, 66
2, 17757, Note_on_c, 0, 71, 0
2, 17760, Note_on_c, 0, 69, 64
2, 17805, Note_on_c, 0, 69, 0
2, 17808, Note_on_c, 0, 66, 64
2, 17853, Note_on_c, 0, 66, 0
2, 17856, Note_on_c, 0, 64, 64
2, 17934, Note_on_c, 0, 64, 0
2, 17940, Note_on_c, 0, 63, 64
2, 17952, Note_on_c, 0, 63, 0
2, 17952, Note_on_c, 0, 66, 64
2, 18041, Note_on_c, 0, 66, 0
2, 18048, Note_on_c, 0, 59, 64
2, 18053, Note_on_c, 0, 59, 0
2, 18060, Note_on_c, 0, 61, 64
2, 18065, Note_on_c, 0, 61, 0
2, 18072, Note_on_c, 0, 63, 64
2, 18077, Note_on_c, 0, 63, 0
2, 18084, Note_on_c, 0, 64, 64
2, 18089, Note_on_c, 0, 64, 0
2, 18096, Note_on_c, 0, 66, 64
2, 18101, Note_on_c, 0, 66, 0
2, 18108, Note_on_c, 0, 68, 64
2, 18113, Note_on_c, 0, 68, 0
2, 18120, Note_on_c, 0, 69, 64
2, 18125, Note_on_c, 0, 69, 0
2, 18132, Note_on_c, 0, 70, 64
2, 18137, Note_on_c, 0, 70, 0
2, 18144, Note_on_c, 0, 71, 64
2, 18154, Note_on_c, 0, 71, 0
2, 18168, Note_on_c, 0, 71, 66
2, 18178, Note_on_c, 0, 71, 0
2, 18192, Note_on_c, 0, 71, 68
2, 18202, Note_on_c, 0, 71, 0
2, 18216, Note_on_c, 0, 71, 71
2, 18226, Note_on_c, 0, 71, 0
2, 18240, Note_on_c, 0, 71, 73
2, 18247, Note_on_c, 0, 71, 0
2, 18256, Note_on_c, 0, 71, 75
2, 18263, Note_on_c, 0, 71, 0
2, 18272, Note_on_c, 0, 71, 76
2, 18279, Note_on_c, 0, 71, 0
2, 18288, Note_on_c, 0, 71, 77
2, 18293, Note_on_c, 0, 71, 0
2, 18300, Note_on_c, 0, 71, 80
2, 18305, Note_on_c, 0, 71, 0
2, 18312, Note_on_c, 0, 71, 80
2, 18317, Note_on_c, 0, 71, 0
2, 18324, Note_on_c, 0, 71, 80
2, 18329, Note_on_c, 0, 71, 0
2, 18336, Note_on_c, 0, 71, 80
2, 18347, Note_on_c, 0, 71, 0
2, 18354, Note_on_c, 0, 73, 80
2, 18360, Note_on_c, 0, 73, 0
2, 18360, Note_on_c, 0, 71, 80
2, 18366, Note_on_c, 0, 71, 0
2, 18366, Note_on_c, 0, 70, 80
2, 18372, Note_on_c, 0, 70, 0
2, 18372, Note_on_c, 0, 71, 80
2, 18378, Note_on_c, 0, 71, 0
2, 18378, Note_on_c, 0, 73, 80
2, 18384, Note_on_c, 0, 73, 0
2, 18384, Note_on_c, 0, 75, 80
2, 18390, Note_on_c, 0, 75, 0
2, 18390, Note_on_c, 0, 76, 80
2, 18396, Note_on_c, 0, 76, 0
2, 18396, Note_on_c, 0, 78, 80
2, 18402, Note_on_c, 0, 78, 0
2, 18402, Note_on_c, 0, 80, 80
2, 18408, Note_on_c, 0, 80, 0
2, 18408, Note_on_c, 0, 81, 80
2, 18414, Note_on_c, 0, 81, 0
2, 18414, Note_on_c, 0, 83, 80
2, 18420, Note_on_c, 0, 83, 0
2, 18420, Note_on_c, 0, 85, 80
2, 18426, Note_on_c, 0, 85, 0
2, 18426, Note_on_c, 0, 87, 80
2, 18432, Note_on_c, 0, 87, 0
2, 18432, Note_on_c, 0, 88, 83
2, 18516, Note_on_c, 0, 88, 0
2, 18516, Note_on_c, 0, 87, 86
2, 18528, Note_on_c, 0, 87, 0
2, 18528, Note_on_c, 0, 86, 86
2, 18617, Note_on_c, 0, 86, 0
2, 18624, Note_on_c, 0, 85, 86
2, 18713, Note_on_c, 0, 85, 0
2, 18720, Note_on_c, 0, 59, 86
2, 18726, Note_on_c, 0, 59, 0
2, 18726, Note_on_c, 0, 64, 86
2, 18732, Note_on_c, 0, 64, 0
2, 18732, Note_on_c, 0, 68, 86
2, 18738, Note_on_c, 0, 68, 0
2, 18738, Note_on_c, 0, 71, 86
2, 18744, Note_on_c, 0, 71, 0
2, 18744, Note_on_c, 0, 76, 86
2, 18750, Note_on_c, 0, 76, 0
2, 18750, Note_on_c, 0, 80, 86
2, 18756, Note_on_c, 0, 80, 0
2, 18756, Note_on_c, 0, 83, 86
2, 18804, Note_on_c, 0, 83, 0
2, 18804, Note_on_c, 0, 82, 86
2, 18816, Note_on_c, 0, 82, 0
2, 18816, Note_on_c, 0, 88, 102
2, 18816, Note_on_c, 0, 79, 102
2, 18852, Note_on_c, 0, 88, 0
2, 18852, Note_on_c, 0, 79, 0
2, 18852, Note_on_c, 0, 85, 86
2, 18859, Note_on_c, 0, 85, 0
2, 18859, Note_on_c, 0, 82, 84
2, 18866, Note_on_c, 0, 82, 0
2, 18866, Note_on_c, 0, 79, 83
2, 18873, Note_on_c, 0, 79, 0
2, 18873, Note_on_c, 0, 76, 81
2, 18880, Note_on_c, 0, 76, 0
2, 18880, Note_on_c, 0, 73, 80
2, 18887, Note_on_c, 0, 73, 0
2, 18887, Note_on_c, 0, 70, 79
2, 18894, Note_on_c, 0, 70, 0
2, 18894, Note_on_c, 0, 67, 77
2, 18901, Note_on_c, 0, 67, 0
2, 18901, Note_on_c, 0, 64, 76
2, 18908, Note_on_c, 0, 64, 0
2, 18908, Note_on_c, 0, 61, 75
2, 18915, Note_on_c, 0, 61, 0
2, 18915, Note_on_c, 0, 58, 73
2, 18922, Note_on_c, 0, 58, 0
2, 18922, Note_on_c, 0, 55, 72
2, 18929, Note_on_c, 0, 55, 0
2, 18929, Note_on_c, 0, 52, 70
2, 18936, Note_on_c, 0, 52, 0
2, 18936, Note_on_c, 0, 49, 69
2, 18942, Note_on_c, 0, 49, 0
2, 18942, Note_on_c, 0, 46, 68
2, 18971, Note_on_c, 0, 46, 0
2, 19008, Note_on_c, 0, 81, 64
2, 19008, Note_on_c, 0, 78, 64
2, 19092, Note_on_c, 0, 81, 0
2, 19092, Note_on_c, 0, 78, 0
2, 19092, Note_on_c, 0, 80, 64
2, 19092, Note_on_c, 0, 76, 64
2, 19104, Note_on_c, 0, 80, 0
2, 19104, Note_on_c, 0, 76, 0
2, 19104, Note_on_c, 0, 85, 64
2, 19104, Note_on_c, 0, 76, 64
2, 19124, Note_on_c, 0, 85, 0
2, 19124, Note_on_c, 0, 76, 0
2, 19200, Note_on_c, 0, 75, 64
2, 19200, Note_on_c, 0, 69, 64
2, 19245, Note_on_c, 0, 75, 0
2, 19245, Note_on_c, 0, 69, 0
2, 19296, Note_on_c, 0, 75, 64
2, 19296, Note_on_c, 0, 66, 64
2, 19392, Note_on_c, 0, 75, 0
2, 19392, Note_on_c, 0, 66, 0
2, 19392, Note_on_c, 0, 76, 64
2, 19392, Note_on_c, 0, 68, 64
2, 19437, Note_on_c, 0, 76, 0
2, 19437, Note_on_c, 0, 68, 0
2, 19440, Note_on_c, 0, 40, 64
2, 19460, Note_on_c, 0, 40, 0
2, 19488, Note_on_c, 0, 40, 64
2, 19508, Note_on_c, 0, 40, 0
2, 19536, Note_on_c, 0, 40, 64
2, 19556, Note_on_c, 0, 40, 0
2, 19584, Note_on_c, 0, 40, 64
2, 19604, Note_on_c, 0, 40, 0
2, 19632, Note_on_c, 0, 40, 64
2, 19652, Note_on_c, 0, 40, 0
2, 19680, Note_on_c, 0, 40, 64
2, 19700, Note_on_c, 0, 40, 0
2, 19728, Note_on_c, 0, 40, 64
2, 19748, Note_on_c, 0, 40, 0
2, 19776, Note_on_c, 0, 40, 64
2, 19796, Note_on_c, 0, 40, 0
2, 19824, Note_on_c, 0, 40, 64
2, 19844, Note_on_c, 0, 40, 0
2, 19872, Note_on_c, 0, 40, 64
2, 20049, Note_on_c, 0, 40, 0
2, 20064, Note_on_c, 0, 81, 70
2, 20091, Note_on_c, 0, 81, 0
2, 20094, Note_on_c, 0, 83, 70
2, 20100, Note_on_c, 0, 83, 0
2, 20100, Note_on_c, 0, 81, 70
2, 20106, Note_on_c, 0, 81, 0
2, 20106, Note_on_c, 0, 80, 70
2, 20112, Note_on_c, 0, 80, 0
2, 20112, Note_on_c, 0, 81, 70
2, 20127, Note_on_c, 0, 81, 0
2, 20128, Note_on_c, 0, 85, 69
2, 20143, Note_on_c, 0, 85, 0
2, 20144, Note_on_c, 0, 83, 69
2, 20159, Note_on_c, 0, 83, 0
2, 20160, Note_on_c, 0, 81, 69
2, 20256, Note_on_c, 0, 81, 0
2, 20256, Note_on_c, 0, 80, 66
2, 20345, Note_on_c, 0, 80, 0
2, 20352, Note_on_c, 0, 40, 58
2, 20419, Note_on_c, 0, 40, 0
2, 20424, Note_on_c, 0, 40, 58
2, 20447, Note_on_c, 0, 40, 0
2, 20448, Note_on_c, 0, 40, 58
2, 20713, Note_on_c, 0, 40, 0
2, 20736, End_track
3, 0, Start_track
3, 0, Program_c, 0, 0
3, 0, Control_c, 0, 7, 127
3, 0, Control_c, 0, 10, 64
3, 816, Note_on_c, 0, 80, 64
3, 822, Note_on_c, 0, 80, 0
3, 822, Note_on_c, 0, 78, 64
3, 855, Note_on_c, 0, 78, 0
3, 864, Note_on_c, 0, 76, 64
3, 953, Note_on_c, 0, 76, 0
3, 960, Note_on_c, 0, 75, 64
3, 1005, Note_on_c, 0, 75, 0
3, 1728, Note_on_c, 0, 68, 64
3, 1728, Note_on_c, 0, 66, 64
3, 1817, Note_on_c, 0, 68, 0
3, 1817, Note_on_c, 0, 66, 0
3, 2016, Note_on_c, 0, 64, 64
3, 2094, Note_on_c, 0, 64, 0
3, 2100, Note_on_c, 0, 66, 64
3, 2112, Note_on_c, 0, 66, 0
3, 2112, Note_on_c, 0, 63, 64
3, 2157, Note_on_c, 0, 63, 0
3, 3120, Note_on_c, 0, 80, 64
3, 3126, Note_on_c, 0, 80, 0
3, 3126, Note_on_c, 0, 78, 64
3, 3159, Note_on_c, 0, 78, 0
3, 3168, Note_on_c, 0, 76, 64
3, 3257, Note_on_c, 0, 76, 0
3, 3264, Note_on_c, 0, 75, 64
3, 3309, Note_on_c, 0, 75, 0
3, 4032, Note_on_c, 0, 68, 64
3, 4032, Note_on_c, 0, 66, 64
3, 4121, Note_on_c, 0, 68, 0
3, 4121, Note_on_c, 0, 66, 0
3, 4320, Note_on_c, 0, 64, 64
3, 4398, Note_on_c, 0, 64, 0
3, 4404, Note_on_c, 0, 66, 64
3, 4416, Note_on_c, 0, 66, 0
3, 4416, Note_on_c, 0, 63, 64
3, 4461, Note_on_c, 0, 63, 0
3, 5088, Note_on_c, 0, 67, 64
3, 5177, Note_on_c, 0, 67, 0
3, 7200, Note_on_c, 0, 69, 64
3, 7278, Note_on_c, 0, 69, 0
3, 7284, Note_on_c, 0, 71, 64
3, 7296, Note_on_c, 0, 71, 0
3, 7968, Note_on_c, 0, 67, 64
3, 8057, Note_on_c, 0, 67, 0
3, 10080, Note_on_c, 0, 69, 64
3, 10158, Note_on_c, 0, 69, 0
3, 10164, Note_on_c, 0, 71, 64
3, 10176, Note_on_c, 0, 71, 0
3, 12864, Note_on_c, 0, 76, 80
3, 12898, Note_on_c, 0, 76, 0
3, 12900, Note_on_c, 0, 79, 80
3, 12912, Note_on_c, 0, 79, 0
3, 12912, Note_on_c, 0, 78, 80
3, 12946, Note_on_c, 0, 78, 0
3, 12948, Note_on_c, 0, 76, 80
3, 12960, Note_on_c, 0, 76, 0
3, 12960, Note_on_c, 0, 76, 80
3, 12994, Note_on_c, 0, 76, 0
3, 12996, Note_on_c, 0, 75, 80
3, 13008, Note_on_c, 0, 75, 0
3, 13008, Note_on_c, 0, 78, 80
3, 13042, Note_on_c, 0, 78, 0
3, 13044, Note_on_c, 0, 75, 80
3, 13056, Note_on_c, 0, 75, 0
3, 13056, Note_on_c, 0, 71, 80
3, 13101, Note_on_c, 0, 71, 0
3, 15162, Note_on_c, 0, 73, 80
3, 15168, Note_on_c, 0, 73, 0
3, 15210, Note_on_c, 0, 83, 80
3, 15210, Note_on_c, 0, 80, 80
3, 15216, Note_on_c, 0, 83, 0
3, 15216, Note_on_c, 0, 80, 0
3, 15264, Note_on_c, 0, 76, 80
3, 15353, Note_on_c, 0, 76, 0
3, 15360, Note_on_c, 0, 75, 80
3, 15405, Note_on_c, 0, 75, 0
3, 15450, Note_on_c, 0, 76, 80
3, 15450, Note_on_c, 0, 73, 80
3, 15453, Note_on_c, 0, 76, 0
3, 15453, Note_on_c, 0, 73, 0
3, 15498, Note_on_c, 0, 71, 80
3, 15498, Note_on_c, 0, 68, 80
3, 15501, Note_on_c, 0, 71, 0
3, 15501, Note_on_c, 0, 68, 0
3, 16128, Note_on_c, 0, 68, 80
3, 16128, Note_on_c, 0, 66, 80
3, 16217, Note_on_c, 0, 68, 0
3, 16217, Note_on_c, 0, 66, 0
3, 16224, Note_on_c, 0, 49, 80
3, 16231, Note_on_c, 0, 49, 0
3, 16231, Note_on_c, 0, 52, 79
3, 16238, Note_on_c, 0, 52, 0
3, 16238, Note_on_c, 0, 56, 79
3, 16245, Note_on_c, 0, 56, 0
3, 16245, Note_on_c, 0, 61, 78
3, 16252, Note_on_c, 0, 61, 0
3, 16252, Note_on_c, 0, 64, 78
3, 16259, Note_on_c, 0, 64, 0
3, 16259, Note_on_c, 0, 68, 77
3, 16266, Note_on_c, 0, 68, 0
3, 16266, Note_on_c, 0, 73, 77
3, 16272, Note_on_c, 0, 73, 0
3, 16272, Note_on_c, 0, 76, 76
3, 16278, Note_on_c, 0, 76, 0
3, 16278, Note_on_c, 0, 80, 76
3, 16284, Note_on_c, 0, 80, 0
3, 16284, Note_on_c, 0, 85, 75
3, 16290, Note_on_c, 0, 85, 0
3, 16290, Note_on_c, 0, 88, 75
3, 16296, Note_on_c, 0, 88, 0
3, 16296, Note_on_c, 0, 85, 74
3, 16302, Note_on_c, 0, 85, 0
3, 16302, Note_on_c, 0, 80, 74
3, 16308, Note_on_c, 0, 80, 0
3, 16308, Note_on_c, 0, 76, 73
3, 16314, Note_on_c, 0, 76, 0
3, 16314, Note_on_c, 0, 73, 73
3, 16320, Note_on_c, 0, 73, 0
3, 16416, Note_on_c, 0, 64, 64
3, 16494, Note_on_c, 0, 64, 0
3, 16500, Note_on_c, 0, 66, 64
3, 16512, Note_on_c, 0, 66, 0
3, 16512, Note_on_c, 0, 63, 64
3, 16590, Note_on_c, 0, 63, 0
3, 17184, Note_on_c, 0, 67, 64
3, 17273, Note_on_c, 0, 67, 0
3, 19296, Note_on_c, 0, 69, 64
3, 19374, Note_on_c, 0, 69, 0
3, 19380, Note_on_c, 0, 71, 64
3, 19392, Note_on_c, 0, 71, 0
3, 20736, End_track
4, 0, Start_track
4, 0, Program_c, 1, 0
4, 0, Control_c, 1, 7, 127
4, 0, Control_c, 1, 10, 64
4, 0, Note_on_c, 1, 56, 64
4, 78, Note_on_c, 1, 56, 0
4, 84, Note_on_c, 1, 54, 64
4, 96, Note_on_c, 1, 54, 0
4, 96, Note_on_c, 1, 57, 64
4, 273, Note_on_c, 1, 57, 0
4, 288, Note_on_c, 1, 56, 64
4, 366, Note_on_c, 1, 56, 0
4, 372, Note_on_c, 1, 54, 64
4, 384, Note_on_c, 1, 54, 0
4, 384, Note_on_c, 1, 57, 64
4, 561, Note_on_c, 1, 57, 0
4, 576, Note_on_c, 1, 52, 74
4, 580, Note_on_c, 1, 56, 74
4, 584, Note_on_c, 1, 59, 74
4, 623, Note_on_c, 1, 59, 0
4, 623, Note_on_c, 1, 56, 0
4, 623, Note_on_c, 1, 52, 0
4, 660, Note_on_c, 1, 57, 78
4, 660, Note_on_c, 1, 54, 78
4, 672, Note_on_c, 1, 57, 0
4, 672, Note_on_c, 1, 54, 0
4, 672, Note_on_c, 1, 51, 78
4, 676, Note_on_c, 1, 54, 78
4, 680, Note_on_c, 1, 59, 78
4, 719, Note_on_c, 1, 59, 0
4, 719, Note_on_c, 1, 54, 0
4, 719, Note_on_c, 1, 51, 0
4, 756, Note_on_c, 1, 59, 80
4, 756, Note_on_c, 1, 52, 80
4, 768, Note_on_c, 1, 59, 0
4, 768, Note_on_c, 1, 52, 0
4, 768, Note_on_c, 1, 57, 80
4, 768, Note_on_c, 1, 52, 80
4, 768, Note_on_c, 1, 49, 80
4, 768, Note_on_c, 1, 45, 80
4, 813, Note_on_c, 1, 57, 0
4, 813, Note_on_c, 1, 52, 0
4, 813, Note_on_c, 1, 49, 0
4, 813, Note_on_c, 1, 45, 0
4, 864, Note_on_c, 1, 47, 79
4, 953, Note_on_c, 1, 47, 0
4, 960, Note_on_c, 1, 59, 77
4, 1049, Note_on_c, 1, 59, 0
4, 1152, Note_on_c, 1, 56, 64
4, 1236, Note_on_c, 1, 56, 0
4, 1236, Note_on_c, 1, 54, 64
4, 1248, Note_on_c, 1, 54, 0
4, 1248, Note_on_c, 1, 57, 64
4, 1425, Note_on_c, 1, 57, 0
4, 1440, Note_on_c, 1, 56, 64
4, 1518, Note_on_c, 1, 56, 0
4, 1524, Note_on_c, 1, 54, 68
4, 1536, Note_on_c, 1, 54, 0
4, 1536, Note_on_c, 1, 57, 69
4, 1536, Note_on_c, 1, 51, 69
4, 1625, Note_on_c, 1, 57, 0
4, 1625, Note_on_c, 1, 51, 0
4, 1632, Note_on_c, 1, 57, 74
4, 1632, Note_on_c, 1, 54, 74
4, 1632, Note_on_c, 1, 49, 74
4, 1721, Note_on_c, 1, 57, 0
4, 1721, Note_on_c, 1, 54, 0
4, 1721, Note_on_c, 1, 49, 0
4, 1728, Note_on_c, 1, 60, 80
4, 1728, Note_on_c, 1, 56, 80
4, 1728, Note_on_c, 1, 51, 80
4, 1728, Note_on_c, 1, 48, 80
4, 1817, Note_on_c, 1, 60, 0
4, 1817, Note_on_c, 1, 56, 0
4, 1817, Note_on_c, 1, 51, 0
4, 1817, Note_on_c, 1, 48, 0
4, 1824, Note_on_c, 1, 61, 80
4, 1824, Note_on_c, 1, 56, 80
4, 1824, Note_on_c, 1, 52, 80
4, 1824, Note_on_c, 1, 49, 80
4, 1869, Note_on_c, 1, 61, 0
4, 1869, Note_on_c, 1, 56, 0
4, 1869, Note_on_c, 1, 52, 0
4, 1869, Note_on_c, 1, 49, 0
4, 1920, Note_on_c, 1, 63, 64
4, 1920, Note_on_c, 1, 54, 64
4, 1943, Note_on_c, 1, 63, 0
4, 1943, Note_on_c, 1, 54, 0
4, 1968, Note_on_c, 1, 61, 64
4, 1968, Note_on_c, 1, 54, 64
4, 1991, Note_on_c, 1, 61, 0
4, 1991, Note_on_c, 1, 54, 0
4, 2016, Note_on_c, 1, 47, 64
4, 2127, Note_on_c, 1, 47, 0
4, 2128, Note_on_c, 1, 35, 66
4, 2143, Note_on_c, 1, 35, 0
4, 2144, Note_on_c, 1, 39, 68
4, 2159, Note_on_c, 1, 39, 0
4, 2160, Note_on_c, 1, 42, 71
4, 2175, Note_on_c, 1, 42, 0
4, 2176, Note_on_c, 1, 47, 73
4, 2191, Note_on_c, 1, 47, 0
4, 2192, Note_on_c, 1, 51, 76
4, 2207, Note_on_c, 1, 51, 0
4, 2208, Note_on_c, 1, 54, 78
4, 2223, Note_on_c, 1, 54, 0
4, 2224, Note_on_c, 1, 57, 79
4, 2239, Note_on_c, 1, 57, 0
4, 2240, Note_on_c, 1, 56, 77
4, 2255, Note_on_c, 1, 56, 0
4, 2256, Note_on_c, 1, 59, 75
4, 2271, Note_on_c, 1, 59, 0
4, 2272, Note_on_c, 1, 57, 74
4, 2287, Note_on_c, 1, 57, 0
4, 2288, Note_on_c, 1, 54, 72
4, 2303, Note_on_c, 1, 54, 0
4, 2304, Note_on_c, 1, 56, 64
4, 2382, Note_on_c, 1, 56, 0
4, 2388, Note_on_c, 1, 54, 64
4, 2400, Note_on_c, 1, 54, 0
4, 2400, Note_on_c, 1, 57, 64
4, 2577, Note_on_c, 1, 57, 0
4, 2592, Note_on_c, 1, 56, 64
4, 2670, Note_on_c, 1, 56, 0
4, 2676, Note_on_c, 1, 54, 64
4, 2688, Note_on_c, 1, 54, 0
4, 2688, Note_on_c, 1, 57, 64
4, 2865, Note_on_c, 1, 57, 0
4, 2880, Note_on_c, 1, 52, 74
4, 2884, Note_on_c, 1, 56, 74
4, 2888, Note_on_c, 1, 59, 74
4, 2927, Note_on_c, 1, 59, 0
4, 2927, Note_on_c, 1, 56, 0
4, 2927, Note_on_c, 1, 52, 0
4, 2964, Note_on_c, 1, 57, 78
4, 2964, Note_on_c, 1, 54, 78
4, 2976, Note_on_c, 1, 57, 0
4, 2976, Note_on_c, 1, 54, 0
4, 2976, Note_on_c, 1, 51, 78
4, 2980, Note_on_c, 1, 54, 78
4, 2984, Note_on_c, 1, 59, 78
4, 3023, Note_on_c, 1, 59, 0
4, 3023, Note_on_c, 1, 54, 0
4, 3023, Note_on_c, 1, 51, 0
4, 3060, Note_on_c, 1, 59, 80
4, 3060, Note_on_c, 1, 52, 80
4, 3072, Note_on_c, 1, 59, 0
4, 3072, Note_on_c, 1, 52, 0
4, 3072, Note_on_c, 1, 57, 80
4, 3072, Note_on_c, 1, 52, 80
4, 3072, Note_on_c, 1, 49, 80
4, 3072, Note_on_c, 1, 45, 80
4, 3117, Note_on_c, 1, 57, 0
4, 3117, Note_on_c, 1, 52, 0
4, 3117, Note_on_c, 1, 49, 0
4, 3117, Note_on_c, 1, 45, 0
4, 3168, Note_on_c, 1, 47, 79
4, 3257, Note_on_c, 1, 47, 0
4, 3264, Note_on_c, 1, 59, 77
4, 3353, Note_on_c, 1, 59, 0
4, 3456, Note_on_c, 1, 56, 64
4, 3540, Note_on_c, 1, 56, 0
4, 3540, Note_on_c, 1, 54, 64
4, 3552, Note_on_c, 1, 54, 0
4, 3552, Note_on_c, 1, 57, 64
4, 3729, Note_on_c, 1, 57, 0
4, 3744, Note_on_c, 1, 56, 64
4, 3822, Note_on_c, 1, 56, 0
4, 3828, Note_on_c, 1, 54, 68
4, 3840, Note_on_c, 1, 54, 0
4, 3840, Note_on_c, 1, 57, 69
4, 3840, Note_on_c, 1, 51, 69
4, 3929, Note_on_c, 1, 57, 0
4, 3929, Note_on_c, 1, 51, 0
4, 3936, Note_on_c, 1, 57, 74
4, 3936, Note_on_c, 1, 54, 74
4, 3936, Note_on_c, 1, 49, 74
4, 4025, Note_on_c, 1, 57, 0
4, 4025, Note_on_c, 1, 54, 0
4, 4025, Note_on_c, 1, 49, 0
4, 4032, Note_on_c, 1, 60, 80
4, 4032, Note_on_c, 1, 56, 80
4, 4032, Note_on_c, 1, 51, 80
4, 4032, Note_on_c, 1, 48, 80
4, 4121, Note_on_c, 1, 60, 0
4, 4121, Note_on_c, 1, 56, 0
4, 4121, Note_on_c, 1, 51, 0
4, 4121, Note_on_c, 1, 48, 0
4, 4128, Note_on_c, 1, 61, 80
4, 4128, Note_on_c, 1, 56, 80
4, 4128, Note_on_c, 1, 52, 80
4, 4128, Note_on_c, 1, 49, 80
4, 4173, Note_on_c, 1, 61, 0
4, 4173, Note_on_c, 1, 56, 0
4, 4173, Note_on_c, 1, 52, 0
4, 4173, Note_on_c, 1, 49, 0
4, 4224, Note_on_c, 1, 63, 64
4, 4224, Note_on_c, 1, 54, 64
4, 4247, Note_on_c, 1, 63, 0
4, 4247, Note_on_c, 1, 54, 0
4, 4272, Note_on_c, 1, 61, 64
4, 4272, Note_on_c, 1, 54, 64
4, 4295, Note_on_c, 1, 61, 0
4, 4295, Note_on_c, 1, 54, 0
4, 4320, Note_on_c, 1, 47, 64
4, 4431, Note_on_c, 1, 47, 0
4, 4432, Note_on_c, 1, 35, 66
4, 4447, Note_on_c, 1, 35, 0
4, 4448, Note_on_c, 1, 39, 68
4, 4463, Note_on_c, 1, 39, 0
4, 4464, Note_on_c, 1, 42, 70
4, 4479, Note_on_c, 1, 42, 0
4, 4480, Note_on_c, 1, 47, 72
4, 4495, Note_on_c, 1, 47, 0
4, 4496, Note_on_c, 1, 51, 74
4, 4511, Note_on_c, 1, 51, 0
4, 4512, Note_on_c, 1, 54, 76
4, 4527, Note_on_c, 1, 54, 0
4, 4528, Note_on_c, 1, 57, 78
4, 4543, Note_on_c, 1, 57, 0
4, 4544, Note_on_c, 1, 59, 80
4, 4559, Note_on_c, 1, 59, 0
4, 4560, Note_on_c, 1, 63, 78
4, 4575, Note_on_c, 1, 63, 0
4, 4576, Note_on_c, 1, 66, 76
4, 4591, Note_on_c, 1, 66, 0
4, 4592, Note_on_c, 1, 69, 74
4, 4607, Note_on_c, 1, 69, 0
4, 4608, Note_on_c, 1, 66, 64
4, 4608, Note_on_c, 1, 63, 64
4, 4608, Note_on_c, 1, 57, 64
4, 4785, Note_on_c, 1, 66, 0
4, 4785, Note_on_c, 1, 63, 0
4, 4785, Note_on_c, 1, 57, 0
4, 4800, Note_on_c, 1, 64, 78
4, 4800, Note_on_c, 1, 59, 78
4, 4800, Note_on_c, 1, 55, 78
4, 4889, Note_on_c, 1, 64, 0
4, 4889, Note_on_c, 1, 59, 0
4, 4889, Note_on_c, 1, 55, 0
4, 4896, Note_on_c, 1, 65, 86
4, 4896, Note_on_c, 1, 62, 86
4, 4896, Note_on_c, 1, 59, 86
4, 4896, Note_on_c, 1, 55, 86
4, 4978, Note_on_c, 1, 65, 0
4, 4978, Note_on_c, 1, 62, 0
4, 4978, Note_on_c, 1, 59, 0
4, 4978, Note_on_c, 1, 55, 0
4, 4980, Note_on_c, 1, 59, 86
4, 4980, Note_on_c, 1, 55, 86
4, 4992, Note_on_c, 1, 59, 0
4, 4992, Note_on_c, 1, 55, 0
4, 4992, Note_on_c, 1, 62, 86
4, 4992, Note_on_c, 1, 59, 86
4, 5070, Note_on_c, 1, 62, 0
4, 5070, Note_on_c, 1, 59, 0
4, 5076, Note_on_c, 1, 59, 86
4, 5076, Note_on_c, 1, 55, 86
4, 5088, Note_on_c, 1, 59, 0
4, 5088, Note_on_c, 1, 55, 0
4, 5088, Note_on_c, 1, 64, 86
4, 5088, Note_on_c, 1, 60, 86
4, 5166, Note_on_c, 1, 64, 0
4, 5166, Note_on_c, 1, 60, 0
4, 5172, Note_on_c, 1, 65, 86
4, 5172, Note_on_c, 1, 62, 86
4, 5184, Note_on_c, 1, 65, 0
4, 5184, Note_on_c, 1, 62, 0
4, 5184, Note_on_c, 1, 67, 86
4, 5184, Note_on_c, 1, 64, 86
4, 5273, Note_on_c, 1, 67, 0
4, 5273, Note_on_c, 1, 64, 0
4, 5280, Note_on_c, 1, 65, 86
4, 5280, Note_on_c, 1, 62, 86
4, 5369, Note_on_c, 1, 65, 0
4, 5369, Note_on_c, 1, 62, 0
4, 5376, Note_on_c, 1, 64, 81
4, 5376, Note_on_c, 1, 60, 81
4, 5465, Note_on_c, 1, 64, 0
4, 5465, Note_on_c, 1, 60, 0
4, 5472, Note_on_c, 1, 64, 77
4, 5568, Note_on_c, 1, 64, 0
4, 5568, Note_on_c, 1, 63, 72
4, 5745, Note_on_c, 1, 63, 0
4, 5760, Note_on_c, 1, 56, 64
4, 5838, Note_on_c, 1, 56, 0
4, 5844, Note_on_c, 1, 54, 64
4, 5856, Note_on_c, 1, 54, 0
4, 5856, Note_on_c, 1, 57, 64
4, 6033, Note_on_c, 1, 57, 0
4, 6048, Note_on_c, 1, 64, 64
4, 6048, Note_on_c, 1, 56, 64
4, 6126, Note_on_c, 1, 64, 0
4, 6126, Note_on_c, 1, 56, 0
4, 6132, Note_on_c, 1, 63, 71
4, 6132, Note_on_c, 1, 54, 71
4, 6144, Note_on_c, 1, 63, 0
4, 6144, Note_on_c, 1, 54, 0
4, 6144, Note_on_c, 1, 66, 72
4, 6144, Note_on_c, 1, 57, 72
4, 6233, Note_on_c, 1, 66, 0
4, 6233, Note_on_c, 1, 57, 0
4, 6240, Note_on_c, 1, 66, 80
4, 6240, Note_on_c, 1, 63, 80
4, 6240, Note_on_c, 1, 59, 80
4, 6240, Note_on_c, 1, 57, 80
4, 6329, Note_on_c, 1, 66, 0
4, 6329, Note_on_c, 1, 63, 0
4, 6329, Note_on_c, 1, 59, 0
4, 6329, Note_on_c, 1, 57, 0
4, 6336, Note_on_c, 1, 64, 83
4, 6336, Note_on_c, 1, 59, 83
4, 6336, Note_on_c, 1, 56, 83
4, 6425, Note_on_c, 1, 64, 0
4, 6425, Note_on_c, 1, 59, 0
4, 6425, Note_on_c, 1, 56, 0
4, 6432, Note_on_c, 1, 65, 86
4, 6432, Note_on_c, 1, 59, 86
4, 6432, Note_on_c, 1, 56, 86
4, 6521, Note_on_c, 1, 65, 0
4, 6521, Note_on_c, 1, 59, 0
4, 6521, Note_on_c, 1, 56, 0
4, 6528, Note_on_c, 1, 66, 86
4, 6528, Note_on_c, 1, 61, 86
4, 6528, Note_on_c, 1, 57, 86
4, 6617, Note_on_c, 1, 66, 0
4, 6617, Note_on_c, 1, 61, 0
4, 6617, Note_on_c, 1, 57, 0
4, 6624, Note_on_c, 1, 68, 86
4, 6624, Note_on_c, 1, 64, 86
4, 6624, Note_on_c, 1, 59, 86
4, 6713, Note_on_c, 1, 68, 0
4, 6713, Note_on_c, 1, 64, 0
4, 6713, Note_on_c, 1, 59, 0
4, 6720, Note_on_c, 1, 67, 86
4, 6720, Note_on_c, 1, 64, 86
4, 6720, Note_on_c, 1, 61, 86
4, 6897, Note_on_c, 1, 67, 0
4, 6897, Note_on_c, 1, 64, 0
4, 6897, Note_on_c, 1, 61, 0
4, 6912, Note_on_c, 1, 71, 64
4, 7001, Note_on_c, 1, 71, 0
4, 7008, Note_on_c, 1, 69, 64
4, 7008, Note_on_c, 1, 57, 64
4, 7053, Note_on_c, 1, 69, 0
4, 7053, Note_on_c, 1, 57, 0
4, 7104, Note_on_c, 1, 66, 64
4, 7104, Note_on_c, 1, 59, 64
4, 7149, Note_on_c, 1, 66, 0
4, 7149, Note_on_c, 1, 59, 0
4, 7200, Note_on_c, 1, 64, 64
4, 7289, Note_on_c, 1, 64, 0
4, 7296, Note_on_c, 1, 52, 64
4, 7473, Note_on_c, 1, 52, 0
4, 7488, Note_on_c, 1, 66, 64
4, 7488, Note_on_c, 1, 63, 64
4, 7488, Note_on_c, 1, 57, 64
4, 7665, Note_on_c, 1, 66, 0
4, 7665, Note_on_c, 1, 63, 0
4, 7665, Note_on_c, 1, 57, 0
4, 7680, Note_on_c, 1, 64, 78
4, 7680, Note_on_c, 1, 59, 78
4, 7680, Note_on_c, 1, 55, 78
4, 7769, Note_on_c, 1, 64, 0
4, 7769, Note_on_c, 1, 59, 0
4, 7769, Note_on_c, 1, 55, 0
4, 7776, Note_on_c, 1, 65, 86
4, 7776, Note_on_c, 1, 62, 86
4, 7776, Note_on_c, 1, 59, 86
4, 7776, Note_on_c, 1, 55, 86
4, 7858, Note_on_c, 1, 65, 0
4, 7858, Note_on_c, 1, 62, 0
4, 7858, Note_on_c, 1, 59, 0
4, 7858, Note_on_c, 1, 55, 0
4, 7860, Note_on_c, 1, 59, 86
4, 7860, Note_on_c, 1, 55, 86
4, 7872, Note_on_c, 1, 59, 0
4, 7872, Note_on_c, 1, 55, 0
4, 7872, Note_on_c, 1, 62, 86
4, 7872, Note_on_c, 1, 59, 86
4, 7950, Note_on_c, 1, 62, 0
4, 7950, Note_on_c, 1, 59, 0
4, 7956, Note_on_c, 1, 59, 86
4, 7956, Note_on_c, 1, 55, 86
4, 7968, Note_on_c, 1, 59, 0
4, 7968, Note_on_c, 1, 55, 0
4, 7968, Note_on_c, 1, 64, 86
4, 7968, Note_on_c, 1, 60, 86
4, 8046, Note_on_c, 1, 64, 0
4, 8046, Note_on_c, 1, 60, 0
4, 8052, Note_on_c, 1, 65, 86
4, 8052, Note_on_c, 1, 62, 86
4, 8064, Note_on_c, 1, 65, 0
4, 8064, Note_on_c, 1, 62, 0
4, 8064, Note_on_c, 1, 67, 86
4, 8064, Note_on_c, 1, 64, 86
4, 8153, Note_on_c, 1, 67, 0
4, 8153, Note_on_c, 1, 64, 0
4, 8160, Note_on_c, 1, 65, 86
4, 8160, Note_on_c, 1, 62, 86
4, 8249, Note_on_c, 1, 65, 0
4, 8249, Note_on_c, 1, 62, 0
4, 8256, Note_on_c, 1, 64, 81
4, 8256, Note_on_c, 1, 60, 81
4, 8345, Note_on_c, 1, 64, 0
4, 8345, Note_on_c, 1, 60, 0
4, 8352, Note_on_c, 1, 64, 77
4, 8448, Note_on_c, 1, 64, 0
4, 8448, Note_on_c, 1, 63, 72
4, 8625, Note_on_c, 1, 63, 0
4, 8640, Note_on_c, 1, 56, 64
4, 8718, Note_on_c, 1, 56, 0
4, 8724, Note_on_c, 1, 54, 64
4, 8736, Note_on_c, 1, 54, 0
4, 8736, Note_on_c, 1, 57, 64
4, 8913, Note_on_c, 1, 57, 0
4, 8928, Note_on_c, 1, 64, 64
4, 8928, Note_on_c, 1, 56, 64
4, 9006, Note_on_c, 1, 64, 0
4, 9006, Note_on_c, 1, 56, 0
4, 9012, Note_on_c, 1, 63, 71
4, 9012, Note_on_c, 1, 54, 71
4, 9024, Note_on_c, 1, 63, 0
4, 9024, Note_on_c, 1, 54, 0
4, 9024, Note_on_c, 1, 66, 72
4, 9024, Note_on_c, 1, 57, 72
4, 9113, Note_on_c, 1, 66, 0
4, 9113, Note_on_c, 1, 57, 0
4, 9120, Note_on_c, 1, 66, 80
4, 9120, Note_on_c, 1, 63, 80
4, 9120, Note_on_c, 1, 59, 80
4, 9120, Note_on_c, 1, 57, 80
4, 9209, Note_on_c, 1, 66, 0
4, 9209, Note_on_c, 1, 63, 0
4, 9209, Note_on_c, 1, 59, 0
4, 9209, Note_on_c, 1, 57, 0
4, 9216, Note_on_c, 1, 64, 83
4, 9216, Note_on_c, 1, 59, 83
4, 9216, Note_on_c, 1, 56, 83
4, 9305, Note_on_c, 1, 64, 0
4, 9305, Note_on_c, 1, 59, 0
4, 9305, Note_on_c, 1, 56, 0
4, 9312, Note_on_c, 1, 65, 86
4, 9312, Note_on_c, 1, 59, 86
4, 9312, Note_on_c, 1, 56, 86
4, 9401, Note_on_c, 1, 65, 0
4, 9401, Note_on_c, 1, 59, 0
4, 9401, Note_on_c, 1, 56, 0
4, 9408, Note_on_c, 1, 66, 86
4, 9408, Note_on_c, 1, 61, 86
4, 9408, Note_on_c, 1, 57, 86
4, 9497, Note_on_c, 1, 66, 0
4, 9497, Note_on_c, 1, 61, 0
4, 9497, Note_on_c, 1, 57, 0
4, 9504, Note_on_c, 1, 68, 86
4, 9504, Note_on_c, 1, 64, 86
4, 9504, Note_on_c, 1, 59, 86
4, 9593, Note_on_c, 1, 68, 0
4, 9593, Note_on_c, 1, 64, 0
4, 9593, Note_on_c, 1, 59, 0
4, 9600, Note_on_c, 1, 67, 86
4, 9600, Note_on_c, 1, 64, 86
4, 9600, Note_on_c, 1, 61, 86
4, 9777, Note_on_c, 1, 67, 0
4, 9777, Note_on_c, 1, 64, 0
4, 9777, Note_on_c, 1, 61, 0
4, 9792, Note_on_c, 1, 71, 64
4, 9881, Note_on_c, 1, 71, 0
4, 9888, Note_on_c, 1, 69, 64
4, 9888, Note_on_c, 1, 57, 64
4, 9933, Note_on_c, 1, 69, 0
4, 9933, Note_on_c, 1, 57, 0
4, 9984, Note_on_c, 1, 66, 64
4, 9984, Note_on_c, 1, 59, 64
4, 10029, Note_on_c, 1, 66, 0
4, 10029, Note_on_c, 1, 59, 0
4, 10080, Note_on_c, 1, 64, 64
4, 10169, Note_on_c, 1, 64, 0
4, 10176, Note_on_c, 1, 52, 64
4, 10353, Note_on_c, 1, 52, 0
4, 10368, Note_on_c, 1, 40, 80
4, 10452, Note_on_c, 1, 40, 0
4, 10452, Note_on_c, 1, 39, 80
4, 10464, Note_on_c, 1, 39, 0
4, 10464, Note_on_c, 1, 42, 80
4, 10498, Note_on_c, 1, 42, 0
4, 10500, Note_on_c, 1, 40, 80
4, 10512, Note_on_c, 1, 40, 0
4, 10512, Note_on_c, 1, 43, 80
4, 10546, Note_on_c, 1, 43, 0
4, 10548, Note_on_c, 1, 42, 80
4, 10560, Note_on_c, 1, 42, 0
4, 10560, Note_on_c, 1, 45, 80
4, 10594, Note_on_c, 1, 45, 0
4, 10596, Note_on_c, 1, 43, 80
4, 10608, Note_on_c, 1, 43, 0
4, 10608, Note_on_c, 1, 47, 80
4, 10642, Note_on_c, 1, 47, 0
4, 10644, Note_on_c, 1, 45, 80
4, 10656, Note_on_c, 1, 45, 0
4, 10656, Note_on_c, 1, 48, 80
4, 10745, Note_on_c, 1, 48, 0
4, 10752, Note_on_c, 1, 48, 98
4, 10752, Note_on_c, 1, 45, 98
4, 10752, Note_on_c, 1, 42, 98
4, 10893, Note_on_c, 1, 48, 0
4, 10893, Note_on_c, 1, 45, 0
4, 10893, Note_on_c, 1, 42, 0
4, 10932, Note_on_c, 1, 66, 64
4, 10944, Note_on_c, 1, 66, 0
4, 10944, Note_on_c, 1, 67, 64
4, 10989, Note_on_c, 1, 67, 0
4, 11016, Note_on_c, 1, 66, 64
4, 11039, Note_on_c, 1, 66, 0
4, 11040, Note_on_c, 1, 67, 64
4, 11085, Note_on_c, 1, 67, 0
4, 11112, Note_on_c, 1, 74, 64
4, 11112, Note_on_c, 1, 71, 64
4, 11122, Note_on_c, 1, 74, 0
4, 11122, Note_on_c, 1, 71, 0
4, 11136, Note_on_c, 1, 72, 64
4, 11136, Note_on_c, 1, 69, 64
4, 11146, Note_on_c, 1, 72, 0
4, 11146, Note_on_c, 1, 69, 0
4, 11160, Note_on_c, 1, 71, 64
4, 11160, Note_on_c, 1, 67, 64
4, 11170, Note_on_c, 1, 71, 0
4, 11170, Note_on_c, 1, 67, 0
4, 11184, Note_on_c, 1, 69, 64
4, 11184, Note_on_c, 1, 66, 64
4, 11194, Note_on_c, 1, 69, 0
4, 11194, Note_on_c, 1, 66, 0
4, 11208, Note_on_c, 1, 67, 64
4, 11208, Note_on_c, 1, 64, 64
4, 11218, Note_on_c, 1, 67, 0
4, 11218, Note_on_c, 1, 64, 0
4, 11232, Note_on_c, 1, 66, 64
4, 11232, Note_on_c, 1, 62, 64
4, 11252, Note_on_c, 1, 66, 0
4, 11252, Note_on_c, 1, 62, 0
4, 11304, Note_on_c, 1, 64, 64
4, 11304, Note_on_c, 1, 60, 64
4, 11314, Note_on_c, 1, 64, 0
4, 11314, Note_on_c, 1, 60, 0
4, 11328, Note_on_c, 1, 62, 64
4, 11328, Note_on_c, 1, 59, 64
4, 11348, Note_on_c, 1, 62, 0
4, 11348, Note_on_c, 1, 59, 0
4, 11400, Note_on_c, 1, 62, 64
4, 11400, Note_on_c, 1, 59, 64
4, 11410, Note_on_c, 1, 62, 0
4, 11410, Note_on_c, 1, 59, 0
4, 11424, Note_on_c, 1, 64, 64
4, 11424, Note_on_c, 1, 60, 64
4, 11458, Note_on_c, 1, 64, 0
4, 11458, Note_on_c, 1, 60, 0
4, 11460, Note_on_c, 1, 66, 66
4, 11460, Note_on_c, 1, 62, 66
4, 11472, Note_on_c, 1, 66, 0
4, 11472, Note_on_c, 1, 62, 0
4, 11472, Note_on_c, 1, 67, 67
4, 11472, Note_on_c, 1, 64, 67
4, 11506, Note_on_c, 1, 67, 0
4, 11506, Note_on_c, 1, 64, 0
4, 11508, Note_on_c, 1, 70, 69
4, 11508, Note_on_c, 1, 67, 69
4, 11508, Note_on_c, 1, 64, 69
4, 11520, Note_on_c, 1, 70, 0
4, 11520, Note_on_c, 1, 67, 0
4, 11520, Note_on_c, 1, 64, 0
4, 11520, Note_on_c, 1, 71, 70
4, 11520, Note_on_c, 1, 67, 70
4, 11520, Note_on_c, 1, 62, 70
4, 11653, Note_on_c, 1, 71, 0
4, 11653, Note_on_c, 1, 67, 0
4, 11653, Note_on_c, 1, 62, 0
4, 11664, Note_on_c, 1, 50, 80
4, 11669, Note_on_c, 1, 50, 0
4, 11669, Note_on_c, 1, 51, 80
4, 11674, Note_on_c, 1, 51, 0
4, 11674, Note_on_c, 1, 52, 80
4, 11679, Note_on_c, 1, 52, 0
4, 11679, Note_on_c, 1, 53, 80
4, 11684, Note_on_c, 1, 53, 0
4, 11684, Note_on_c, 1, 54, 80
4, 11689, Note_on_c, 1, 54, 0
4, 11689, Note_on_c, 1, 55, 80
4, 11694, Note_on_c, 1, 55, 0
4, 11694, Note_on_c, 1, 56, 80
4, 11699, Note_on_c, 1, 56, 0
4, 11699, Note_on_c, 1, 57, 80
4, 11704, Note_on_c, 1, 57, 0
4, 11704, Note_on_c, 1, 58, 80
4, 11708, Note_on_c, 1, 58, 0
4, 11708, Note_on_c, 1, 59, 80
4, 11712, Note_on_c, 1, 59, 0
4, 11712, Note_on_c, 1, 60, 80
4, 11735, Note_on_c, 1, 60, 0
4, 11760, Note_on_c, 1, 50, 72
4, 11783, Note_on_c, 1, 50, 0
4, 11808, Note_on_c, 1, 31, 64
4, 11853, Note_on_c, 1, 31, 0
4, 11904, Note_on_c, 1, 43, 64
4, 11920, Note_on_c, 1, 43, 0
4, 11920, Note_on_c, 1, 45, 64
4, 11928, Note_on_c, 1, 45, 0
4, 11928, Note_on_c, 1, 47, 64
4, 11936, Note_on_c, 1, 47, 0
4, 11936, Note_on_c, 1, 48, 64
4, 11944, Note_on_c, 1, 48, 0
4, 11944, Note_on_c, 1, 49, 64
4, 11951, Note_on_c, 1, 49, 0
4, 11951, Note_on_c, 1, 50, 64
4, 11958, Note_on_c, 1, 50, 0
4, 11958, Note_on_c, 1, 51, 64
4, 11965, Note_on_c, 1, 51, 0
4, 11965, Note_on_c, 1, 52, 64
4, 11972, Note_on_c, 1, 52, 0
4, 11972, Note_on_c, 1, 53, 64
4, 11979, Note_on_c, 1, 53, 0
4, 11979, Note_on_c, 1, 54, 64
4, 11986, Note_on_c, 1, 54, 0
4, 11986, Note_on_c, 1, 55, 64
4, 12000, Note_on_c, 1, 55, 0
4, 12000, Note_on_c, 1, 43, 64
4, 12045, Note_on_c, 1, 43, 0
4, 12096, Note_on_c, 1, 71, 64
4, 12096, Note_on_c, 1, 67, 64
4, 12174, Note_on_c, 1, 71, 0
4, 12174, Note_on_c, 1, 67, 0
4, 12180, Note_on_c, 1, 69, 68
4, 12180, Note_on_c, 1, 66, 68
4, 12192, Note_on_c, 1, 69, 0
4, 12192, Note_on_c, 1, 66, 0
4, 12192, Note_on_c, 1, 72, 69
4, 12192, Note_on_c, 1, 69, 69
4, 12281, Note_on_c, 1, 72, 0
4, 12281, Note_on_c, 1, 69, 0
4, 12288, Note_on_c, 1, 69, 74
4, 12288, Note_on_c, 1, 62, 74
4, 12377, Note_on_c, 1, 69, 0
4, 12377, Note_on_c, 1, 62, 0
4, 12384, Note_on_c, 1, 71, 64
4, 12384, Note_on_c, 1, 69, 64
4, 12384, Note_on_c, 1, 66, 64
4, 12394, Note_on_c, 1, 71, 0
4, 12394, Note_on_c, 1, 69, 0
4, 12394, Note_on_c, 1, 66, 0
4, 12408, Note_on_c, 1, 71, 64
4, 12408, Note_on_c, 1, 69, 64
4, 12408, Note_on_c, 1, 66, 64
4, 12418, Note_on_c, 1, 71, 0
4, 12418, Note_on_c, 1, 69, 0
4, 12418, Note_on_c, 1, 66, 0
4, 12432, Note_on_c, 1, 71, 64
4, 12432, Note_on_c, 1, 69, 64
4, 12432, Note_on_c, 1, 66, 64
4, 12442, Note_on_c, 1, 71, 0
4, 12442, Note_on_c, 1, 69, 0
4, 12442, Note_on_c, 1, 66, 0
4, 12456, Note_on_c, 1, 71, 64
4, 12456, Note_on_c, 1, 69, 64
4, 12456, Note_on_c, 1, 66, 64
4, 12466, Note_on_c, 1, 71, 0
4, 12466, Note_on_c, 1, 69, 0
4, 12466, Note_on_c, 1, 66, 0
4, 12480, Note_on_c, 1, 71, 70
4, 12480, Note_on_c, 1, 67, 70
4, 12490, Note_on_c, 1, 71, 0
4, 12490, Note_on_c, 1, 67, 0
4, 12504, Note_on_c, 1, 71, 70
4, 12504, Note_on_c, 1, 67, 70
4, 12514, Note_on_c, 1, 71, 0
4, 12514, Note_on_c, 1, 67, 0
4, 12528, Note_on_c, 1, 71, 70
4, 12528, Note_on_c, 1, 63, 70
4, 12538, Note_on_c, 1, 71, 0
4, 12538, Note_on_c, 1, 63, 0
4, 12552, Note_on_c, 1, 71, 70
4, 12552, Note_on_c, 1, 63, 70
4, 12562, Note_on_c, 1, 71, 0
4, 12562, Note_on_c, 1, 63, 0
4, 12576, Note_on_c, 1, 71, 70
4, 12576, Note_on_c, 1, 64, 70
4, 12586, Note_on_c, 1, 71, 0
4, 12586, Note_on_c, 1, 64, 0
4, 12600, Note_on_c, 1, 71, 70
4, 12600, Note_on_c, 1, 64, 70
4, 12610, Note_on_c, 1, 71, 0
4, 12610, Note_on_c, 1, 64, 0
4, 12624, Note_on_c, 1, 71, 70
4, 12624, Note_on_c, 1, 63, 70
4, 12634, Note_on_c, 1, 71, 0
4, 12634, Note_on_c, 1, 63, 0
4, 12648, Note_on_c, 1, 71, 70
4, 12648, Note_on_c, 1, 63, 70
4, 12658, Note_on_c, 1, 71, 0
4, 12658, Note_on_c, 1, 63, 0
4, 12672, Note_on_c, 1, 67, 70
4, 12672, Note_on_c, 1, 60, 70
4, 12682, Note_on_c, 1, 67, 0
4, 12682, Note_on_c, 1, 60, 0
4, 12696, Note_on_c, 1, 67, 70
4, 12696, Note_on_c, 1, 60, 70
4, 12706, Note_on_c, 1, 67, 0
4, 12706, Note_on_c, 1, 60, 0
4, 12720, Note_on_c, 1, 68, 70
4, 12720, Note_on_c, 1, 60, 70
4, 12730, Note_on_c, 1, 68, 0
4, 12730, Note_on_c, 1, 60, 0
4, 12744, Note_on_c, 1, 68, 70
4, 12744, Note_on_c, 1, 60, 70
4, 12754, Note_on_c, 1, 68, 0
4, 12754, Note_on_c, 1, 60, 0
4, 12768, Note_on_c, 1, 69, 70
4, 12768, Note_on_c, 1, 60, 70
4, 12778, Note_on_c, 1, 69, 0
4, 12778, Note_on_c, 1, 60, 0
4, 12792, Note_on_c, 1, 69, 70
4, 12792, Note_on_c, 1, 60, 70
4, 12802, Note_on_c, 1, 69, 0
4, 12802, Note_on_c, 1, 60, 0
4, 12816, Note_on_c, 1, 71, 70
4, 12816, Note_on_c, 1, 60, 70
4, 12826, Note_on_c, 1, 71, 0
4, 12826, Note_on_c, 1, 60, 0
4, 12840, Note_on_c, 1, 71, 70
4, 12840, Note_on_c, 1, 60, 70
4, 12850, Note_on_c, 1, 71, 0
4, 12850, Note_on_c, 1, 60, 0
4, 12864, Note_on_c, 1, 72, 70
4, 12864, Note_on_c, 1, 60, 70
4, 12874, Note_on_c, 1, 72, 0
4, 12874, Note_on_c, 1, 60, 0
4, 12888, Note_on_c, 1, 72, 70
4, 12888, Note_on_c, 1, 60, 70
4, 12898, Note_on_c, 1, 72, 0
4, 12898, Note_on_c, 1, 60, 0
4, 12912, Note_on_c, 1, 72, 70
4, 12912, Note_on_c, 1, 60, 70
4, 12922, Note_on_c, 1, 72, 0
4, 12922, Note_on_c, 1, 60, 0
4, 12936, Note_on_c, 1, 72, 70
4, 12936, Note_on_c, 1, 60, 70
4, 12946, Note_on_c, 1, 72, 0
4, 12946, Note_on_c, 1, 60, 0
4, 12960, Note_on_c, 1, 59, 70
4, 13101, Note_on_c, 1, 59, 0
4, 13140, Note_on_c, 1, 48, 64
4, 13152, Note_on_c, 1, 48, 0
4, 13152, Note_on_c, 1, 48, 64
4, 13158, Note_on_c, 1, 48, 0
4, 13158, Note_on_c, 1, 47, 64
4, 13186, Note_on_c, 1, 47, 0
4, 13188, Note_on_c, 1, 45, 64
4, 13200, Note_on_c, 1, 45, 0
4, 13200, Note_on_c, 1, 45, 64
4, 13206, Note_on_c, 1, 45, 0
4, 13206, Note_on_c, 1, 43, 64
4, 13234, Note_on_c, 1, 43, 0
4, 13236, Note_on_c, 1, 42, 64
4, 13248, Note_on_c, 1, 42, 0
4, 13248, Note_on_c, 1, 40, 80
4, 13326, Note_on_c, 1, 40, 0
4, 13332, Note_on_c, 1, 39, 80
4, 13344, Note_on_c, 1, 39, 0
4, 13344, Note_on_c, 1, 42, 80
4, 13378, Note_on_c, 1, 42, 0
4, 13380, Note_on_c, 1, 40, 80
4, 13392, Note_on_c, 1, 40, 0
4, 13392, Note_on_c, 1, 43, 80
4, 13426, Note_on_c, 1, 43, 0
4, 13428, Note_on_c, 1, 42, 80
4, 13440, Note_on_c, 1, 42, 0
4, 13440, Note_on_c, 1, 45, 80
4, 13474, Note_on_c, 1, 45, 0
4, 13476, Note_on_c, 1, 43, 80
4, 13488, Note_on_c, 1, 43, 0
4, 13488, Note_on_c, 1, 47, 80
4, 13522, Note_on_c, 1, 47, 0
4, 13524, Note_on_c, 1, 45, 80
4, 13536, Note_on_c, 1, 45, 0
4, 13536, Note_on_c, 1, 48, 80
4, 13625, Note_on_c, 1, 48, 0
4, 13632, Note_on_c, 1, 39, 80
4, 13721, Note_on_c, 1, 39, 0
4, 13728, Note_on_c, 1, 47, 80
4, 13762, Note_on_c, 1, 47, 0
4, 13764, Note_on_c, 1, 38, 80
4, 13776, Note_on_c, 1, 38, 0
4, 13776, Note_on_c, 1, 46, 80
4, 13810, Note_on_c, 1, 46, 0
4, 13812, Note_on_c, 1, 37, 80
4, 13824, Note_on_c, 1, 37, 0
4, 13824, Note_on_c, 1, 45, 80
4, 13913, Note_on_c, 1, 45, 0
4, 13920, Note_on_c, 1, 36, 80
4, 14009, Note_on_c, 1, 36, 0
4, 14016, Note_on_c, 1, 45, 80
4, 14050, Note_on_c, 1, 45, 0
4, 14052, Note_on_c, 1, 35, 80
4, 14064, Note_on_c, 1, 35, 0
4, 14064, Note_on_c, 1, 45, 80
4, 14098, Note_on_c, 1, 45, 0
4, 14100, Note_on_c, 1, 35, 80
4, 14112, Note_on_c, 1, 35, 0
4, 14112, Note_on_c, 1, 45, 80
4, 14124, Note_on_c, 1, 45, 0
4, 14124, Note_on_c, 1, 35, 80
4, 14136, Note_on_c, 1, 35, 0
4, 14136, Note_on_c, 1, 39, 80
4, 14148, Note_on_c, 1, 39, 0
4, 14148, Note_on_c, 1, 42, 80
4, 14160, Note_on_c, 1, 42, 0
4, 14160, Note_on_c, 1, 45, 80
4, 14172, Note_on_c, 1, 45, 0
4, 14172, Note_on_c, 1, 48, 80
4, 14184, Note_on_c, 1, 48, 0
4, 14184, Note_on_c, 1, 51, 80
4, 14196, Note_on_c, 1, 51, 0
4, 14196, Note_on_c, 1, 54, 80
4, 14208, Note_on_c, 1, 54, 0
4, 14208, Note_on_c, 1, 57, 80
4, 14220, Note_on_c, 1, 57, 0
4, 14220, Note_on_c, 1, 60, 80
4, 14232, Note_on_c, 1, 60, 0
4, 14232, Note_on_c, 1, 63, 80
4, 14244, Note_on_c, 1, 63, 0
4, 14244, Note_on_c, 1, 66, 80
4, 14256, Note_on_c, 1, 66, 0
4, 14256, Note_on_c, 1, 69, 80
4, 14266, Note_on_c, 1, 69, 0
4, 14280, Note_on_c, 1, 72, 80
4, 14290, Note_on_c, 1, 72, 0
4, 14304, Note_on_c, 1, 75, 80
4, 14314, Note_on_c, 1, 75, 0
4, 14400, Note_on_c, 1, 56, 64
4, 14478, Note_on_c, 1, 56, 0
4, 14484, Note_on_c, 1, 54, 64
4, 14496, Note_on_c, 1, 54, 0
4, 14496, Note_on_c, 1, 57, 64
4, 14673, Note_on_c, 1, 57, 0
4, 14688, Note_on_c, 1, 56, 64
4, 14766, Note_on_c, 1, 56, 0
4, 14772, Note_on_c, 1, 54, 64
4, 14784, Note_on_c, 1, 54, 0
4, 14784, Note_on_c, 1, 57, 64
4, 14961, Note_on_c, 1, 57, 0
4, 14976, Note_on_c, 1, 52, 74
4, 14980, Note_on_c, 1, 56, 74
4, 14984, Note_on_c, 1, 59, 74
4, 15023, Note_on_c, 1, 59, 0
4, 15023, Note_on_c, 1, 56, 0
4, 15023, Note_on_c, 1, 52, 0
4, 15060, Note_on_c, 1, 57, 78
4, 15060, Note_on_c, 1, 54, 78
4, 15072, Note_on_c, 1, 57, 0
4, 15072, Note_on_c, 1, 54, 0
4, 15072, Note_on_c, 1, 51, 78
4, 15076, Note_on_c, 1, 54, 78
4, 15080, Note_on_c, 1, 59, 78
4, 15119, Note_on_c, 1, 59, 0
4, 15119, Note_on_c, 1, 54, 0
4, 15119, Note_on_c, 1, 51, 0
4, 15156, Note_on_c, 1, 59, 80
4, 15156, Note_on_c, 1, 52, 80
4, 15168, Note_on_c, 1, 59, 0
4, 15168, Note_on_c, 1, 52, 0
4, 15168, Note_on_c, 1, 57, 80
4, 15168, Note_on_c, 1, 52, 80
4, 15168, Note_on_c, 1, 49, 80
4, 15168, Note_on_c, 1, 45, 80
4, 15213, Note_on_c, 1, 57, 0
4, 15213, Note_on_c, 1, 52, 0
4, 15213, Note_on_c, 1, 49, 0
4, 15213, Note_on_c, 1, 45, 0
4, 15264, Note_on_c, 1, 47, 80
4, 15353, Note_on_c, 1, 47, 0
4, 15360, Note_on_c, 1, 59, 80
4, 15449, Note_on_c, 1, 59, 0
4, 15552, Note_on_c, 1, 56, 64
4, 15597, Note_on_c, 1, 56, 0
4, 15600, Note_on_c, 1, 54, 64
4, 15615, Note_on_c, 1, 54, 0
4, 15616, Note_on_c, 1, 55, 64
4, 15631, Note_on_c, 1, 55, 0
4, 15632, Note_on_c, 1, 56, 64
4, 15647, Note_on_c, 1, 56, 0
4, 15648, Note_on_c, 1, 57, 64
4, 15825, Note_on_c, 1, 57, 0
4, 15840, Note_on_c, 1, 56, 64
4, 15885, Note_on_c, 1, 56, 0
4, 15888, Note_on_c, 1, 54, 66
4, 15903, Note_on_c, 1, 54, 0
4, 15904, Note_on_c, 1, 55, 67
4, 15919, Note_on_c, 1, 55, 0
4, 15920, Note_on_c, 1, 56, 68
4, 15935, Note_on_c, 1, 56, 0
4, 15936, Note_on_c, 1, 57, 68
4, 15936, Note_on_c, 1, 51, 68
4, 16025, Note_on_c, 1, 57, 0
4, 16025, Note_on_c, 1, 51, 0
4, 16032, Note_on_c, 1, 57, 74
4, 16032, Note_on_c, 1, 54, 74
4, 16032, Note_on_c, 1, 49, 74
4, 16121, Note_on_c, 1, 57, 0
4, 16121, Note_on_c, 1, 54, 0
4, 16121, Note_on_c, 1, 49, 0
4, 16128, Note_on_c, 1, 60, 80
4, 16128, Note_on_c, 1, 56, 80
4, 16128, Note_on_c, 1, 51, 80
4, 16128, Note_on_c, 1, 48, 80
4, 16217, Note_on_c, 1, 60, 0
4, 16217, Note_on_c, 1, 56, 0
4, 16217, Note_on_c, 1, 51, 0
4, 16217, Note_on_c, 1, 48, 0
4, 16320, Note_on_c, 1, 63, 67
4, 16320, Note_on_c, 1, 54, 67
4, 16343, Note_on_c, 1, 63, 0
4, 16343, Note_on_c, 1, 54, 0
4, 16368, Note_on_c, 1, 61, 64
4, 16368, Note_on_c, 1, 54, 64
4, 16391, Note_on_c, 1, 61, 0
4, 16391, Note_on_c, 1, 54, 0
4, 16416, Note_on_c, 1, 47, 64
4, 16557, Note_on_c, 1, 47, 0
4, 16560, Note_on_c, 1, 51, 64
4, 16566, Note_on_c, 1, 51, 0
4, 16566, Note_on_c, 1, 54, 68
4, 16572, Note_on_c, 1, 54, 0
4, 16572, Note_on_c, 1, 59, 72
4, 16578, Note_on_c, 1, 59, 0
4, 16578, Note_on_c, 1, 54, 76
4, 16584, Note_on_c, 1, 54, 0
4, 16584, Note_on_c, 1, 51, 80
4, 16590, Note_on_c, 1, 51, 0
4, 16590, Note_on_c, 1, 47, 78
4, 16596, Note_on_c, 1, 47, 0
4, 16596, Note_on_c, 1, 42, 77
4, 16602, Note_on_c, 1, 42, 0
4, 16602, Note_on_c, 1, 39, 76
4, 16608, Note_on_c, 1, 39, 0
4, 16608, Note_on_c, 1, 35, 74
4, 16653, Note_on_c, 1, 35, 0
4, 16704, Note_on_c, 1, 66, 64
4, 16704, Note_on_c, 1, 63, 64
4, 16704, Note_on_c, 1, 57, 64
4, 16881, Note_on_c, 1, 66, 0
4, 16881, Note_on_c, 1, 63, 0
4, 16881, Note_on_c, 1, 57, 0
4, 16896, Note_on_c, 1, 64, 64
4, 16896, Note_on_c, 1, 59, 64
4, 16896, Note_on_c, 1, 55, 64
4, 16985, Note_on_c, 1, 64, 0
4, 16985, Note_on_c, 1, 59, 0
4, 16985, Note_on_c, 1, 55, 0
4, 16992, Note_on_c, 1, 65, 86
4, 16992, Note_on_c, 1, 62, 86
4, 16992, Note_on_c, 1, 59, 86
4, 16992, Note_on_c, 1, 55, 86
4, 17070, Note_on_c, 1, 65, 0
4, 17070, Note_on_c, 1, 62, 0
4, 17070, Note_on_c, 1, 59, 0
4, 17070, Note_on_c, 1, 55, 0
4, 17076, Note_on_c, 1, 59, 86
4, 17076, Note_on_c, 1, 55, 86
4, 17088, Note_on_c, 1, 59, 0
4, 17088, Note_on_c, 1, 55, 0
4, 17088, Note_on_c, 1, 62, 86
4, 17088, Note_on_c, 1, 59, 86
4, 17166, Note_on_c, 1, 62, 0
4, 17166, Note_on_c, 1, 59, 0
4, 17172, Note_on_c, 1, 59, 86
4, 17172, Note_on_c, 1, 55, 86
4, 17184, Note_on_c, 1, 59, 0
4, 17184, Note_on_c, 1, 55, 0
4, 17184, Note_on_c, 1, 64, 86
4, 17184, Note_on_c, 1, 60, 86
4, 17262, Note_on_c, 1, 64, 0
4, 17262, Note_on_c, 1, 60, 0
4, 17268, Note_on_c, 1, 65, 86
4, 17268, Note_on_c, 1, 62, 86
4, 17280, Note_on_c, 1, 65, 0
4, 17280, Note_on_c, 1, 62, 0
4, 17280, Note_on_c, 1, 67, 86
4, 17280, Note_on_c, 1, 64, 86
4, 17369, Note_on_c, 1, 67, 0
4, 17369, Note_on_c, 1, 64, 0
4, 17376, Note_on_c, 1, 65, 86
4, 17376, Note_on_c, 1, 62, 86
4, 17465, Note_on_c, 1, 65, 0
4, 17465, Note_on_c, 1, 62, 0
4, 17472, Note_on_c, 1, 64, 81
4, 17472, Note_on_c, 1, 60, 81
4, 17561, Note_on_c, 1, 64, 0
4, 17561, Note_on_c, 1, 60, 0
4, 17568, Note_on_c, 1, 64, 77
4, 17664, Note_on_c, 1, 64, 0
4, 17664, Note_on_c, 1, 63, 72
4, 17841, Note_on_c, 1, 63, 0
4, 17856, Note_on_c, 1, 56, 64
4, 17934, Note_on_c, 1, 56, 0
4, 17940, Note_on_c, 1, 54, 64
4, 17952, Note_on_c, 1, 54, 0
4, 17952, Note_on_c, 1, 57, 64
4, 18129, Note_on_c, 1, 57, 0
4, 18144, Note_on_c, 1, 64, 64
4, 18144, Note_on_c, 1, 56, 64
4, 18222, Note_on_c, 1, 64, 0
4, 18222, Note_on_c, 1, 56, 0
4, 18228, Note_on_c, 1, 63, 71
4, 18228, Note_on_c, 1, 54, 71
4, 18240, Note_on_c, 1, 63, 0
4, 18240, Note_on_c, 1, 54, 0
4, 18240, Note_on_c, 1, 66, 72
4, 18240, Note_on_c, 1, 57, 72
4, 18329, Note_on_c, 1, 66, 0
4, 18329, Note_on_c, 1, 57, 0
4, 18336, Note_on_c, 1, 66, 80
4, 18336, Note_on_c, 1, 63, 80
4, 18336, Note_on_c, 1, 59, 80
4, 18336, Note_on_c, 1, 57, 80
4, 18425, Note_on_c, 1, 66, 0
4, 18425, Note_on_c, 1, 63, 0
4, 18425, Note_on_c, 1, 59, 0
4, 18425, Note_on_c, 1, 57, 0
4, 18432, Note_on_c, 1, 64, 83
4, 18432, Note_on_c, 1, 59, 83
4, 18432, Note_on_c, 1, 56, 83
4, 18521, Note_on_c, 1, 64, 0
4, 18521, Note_on_c, 1, 59, 0
4, 18521, Note_on_c, 1, 56, 0
4, 18528, Note_on_c, 1, 65, 86
4, 18528, Note_on_c, 1, 59, 86
4, 18528, Note_on_c, 1, 56, 86
4, 18617, Note_on_c, 1, 65, 0
4, 18617, Note_on_c, 1, 59, 0
4, 18617, Note_on_c, 1, 56, 0
4, 18624, Note_on_c, 1, 66, 86
4, 18624, Note_on_c, 1, 61, 86
4, 18624, Note_on_c, 1, 57, 86
4, 18713, Note_on_c, 1, 66, 0
4, 18713, Note_on_c, 1, 61, 0
4, 18713, Note_on_c, 1, 57, 0
4, 19008, Note_on_c, 1, 71, 64
4, 19097, Note_on_c, 1, 71, 0
4, 19104, Note_on_c, 1, 69, 64
4, 19104, Note_on_c, 1, 57, 64
4, 19149, Note_on_c, 1, 69, 0
4, 19149, Note_on_c, 1, 57, 0
4, 19200, Note_on_c, 1, 66, 64
4, 19200, Note_on_c, 1, 59, 64
4, 19245, Note_on_c, 1, 66, 0
4, 19245, Note_on_c, 1, 59, 0
4, 19296, Note_on_c, 1, 64, 64
4, 19296, Note_on_c, 1, 52, 64
4, 19576, Note_on_c, 1, 64, 0
4, 19576, Note_on_c, 1, 52, 0
4, 19584, Note_on_c, 1, 62, 82
4, 19662, Note_on_c, 1, 62, 0
4, 19668, Note_on_c, 1, 64, 64
4, 19691, Note_on_c, 1, 64, 0
4, 19872, Note_on_c, 1, 63, 82
4, 19872, Note_on_c, 1, 59, 82
4, 19872, Note_on_c, 1, 57, 82
4, 19872, Note_on_c, 1, 54, 82
4, 20137, Note_on_c, 1, 63, 0
4, 20137, Note_on_c, 1, 59, 0
4, 20137, Note_on_c, 1, 57, 0
4, 20137, Note_on_c, 1, 54, 0
4, 20160, Note_on_c, 1, 64, 64
4, 20160, Note_on_c, 1, 59, 64
4, 20160, Note_on_c, 1, 52, 64
4, 20337, Note_on_c, 1, 64, 0
4, 20337, Note_on_c, 1, 59, 0
4, 20337, Note_on_c, 1, 52, 0
4, 20352, Note_on_c, 1, 64, 58
4, 20352, Note_on_c, 1, 59, 58
4, 20352, Note_on_c, 1, 56, 58
4, 20352, Note_on_c, 1, 52, 58
4, 20419, Note_on_c, 1, 64, 0
4, 20419, Note_on_c, 1, 59, 0
4, 20419, Note_on_c, 1, 56, 0
4, 20419, Note_on_c, 1, 52, 0
4, 20424, Note_on_c, 1, 64, 58
4, 20424, Note_on_c, 1, 59, 58
4, 20424, Note_on_c, 1, 56, 58
4, 20424, Note_on_c, 1, 52, 58
4, 20447, Note_on_c, 1, 64, 0
4, 20447, Note_on_c, 1, 59, 0
4, 20447, Note_on_c, 1, 56, 0
4, 20447, Note_on_c, 1, 52, 0
4, 20448, Note_on_c, 1, 64, 58
4, 20448, Note_on_c, 1, 59, 58
4, 20448, Note_on_c, 1, 56, 58
4, 20448, Note_on_c, 1, 52, 58
4, 20713, Note_on_c, 1, 64, 0
4, 20713, Note_on_c, 1, 59, 0
4, 20713, Note_on_c, 1, 56, 0
4, 20713, Note_on_c, 1, 52, 0
4, 20736, Note_on_c, 1, 40, 4
4, 20781, Note_on_c, 1, 40, 0
4, 20784, End_track
5, 0, Start_track
5, 0, Program_c, 1, 0
5, 0, Control_c, 1, 7, 127
5, 0, Control_c, 1, 10, 64
5, 0, Note_on_c, 1, 52, 64
5, 265, Note_on_c, 1, 52, 0
5, 288, Note_on_c, 1, 52, 64
5, 553, Note_on_c, 1, 52, 0
5, 1152, Note_on_c, 1, 52, 64
5, 1417, Note_on_c, 1, 52, 0
5, 2304, Note_on_c, 1, 52, 64
5, 2569, Note_on_c, 1, 52, 0
5, 2592, Note_on_c, 1, 52, 64
5, 2857, Note_on_c, 1, 52, 0
5, 3456, Note_on_c, 1, 52, 64
5, 3721, Note_on_c, 1, 52, 0
5, 5472, Note_on_c, 1, 59, 64
5, 5737, Note_on_c, 1, 59, 0
5, 5760, Note_on_c, 1, 52, 64
5, 6025, Note_on_c, 1, 52, 0
5, 6912, Note_on_c, 1, 63, 64
5, 6990, Note_on_c, 1, 63, 0
5, 6996, Note_on_c, 1, 64, 64
5, 7008, Note_on_c, 1, 64, 0
5, 8352, Note_on_c, 1, 59, 64
5, 8617, Note_on_c, 1, 59, 0
5, 8640, Note_on_c, 1, 52, 64
5, 8905, Note_on_c, 1, 52, 0
5, 9792, Note_on_c, 1, 63, 64
5, 9870, Note_on_c, 1, 63, 0
5, 9876, Note_on_c, 1, 64, 64
5, 9888, Note_on_c, 1, 64, 0
5, 14400, Note_on_c, 1, 52, 64
5, 14665, Note_on_c, 1, 52, 0
5, 14688, Note_on_c, 1, 52, 64
5, 14953, Note_on_c, 1, 52, 0
5, 15552, Note_on_c, 1, 52, 64
5, 15641, Note_on_c, 1, 52, 0
5, 15648, Note_on_c, 1, 52, 64
5, 15825, Note_on_c, 1, 52, 0
5, 15840, Note_on_c, 1, 52, 64
5, 15929, Note_on_c, 1, 52, 0
5, 17568, Note_on_c, 1, 59, 64
5, 17833, Note_on_c, 1, 59, 0
5, 17856, Note_on_c, 1, 52, 64
5, 18121, Note_on_c, 1, 52, 0
5, 19008, Note_on_c, 1, 63, 64
5, 19086, Note_on_c, 1, 63, 0
5, 19092, Note_on_c, 1, 64, 64
5, 19104, Note_on_c, 1, 64, 0
5, 19584, Note_on_c, 1, 59, 82
5, 19584, Note_on_c, 1, 56, 82
5, 19673, Note_on_c, 1, 59, 0
5, 19673, Note_on_c, 1, 56, 0
5, 19680, Note_on_c, 1, 61, 64
5, 19680, Note_on_c, 1, 57, 64
5, 19857, Note_on_c, 1, 61, 0
5, 19857, Note_on_c, 1, 57, 0
5, 20736, End_track
6, 0, Start_track
6, 0, Title_t, "Sonata I   Haydn  "
6, 0, End_track
0, 0, End_of_file
