0, 0, Header, 1, 6, 96
1, 0, Start_track
1, 0, Copyright_t, "Copyright  2000 <copyright holder>"
1, 0, Text_t, "Sonata I\015\012"
1, 0, Text_t, "Haydn\015\012"
1, 0, Sequencer_specific, 16, 68, 87, 77, 90, 86, 82, 83, 78, 32, 55, 46, 49, 46, 50, 46, 48
1, 0, Time_signature, 3, 2, 24, 8
1, 0, Tempo, 100000
1, 0, Key_signature, 2, "major"
1, 264, Tempo, 1000000
1, 2568, Tempo, 1000000
1, 23304, Key_signature, -1, "major"
1, 25608, Key_signature, -1, "major"
1, 34464, Tempo, 1428571
1, 34536, Tempo, 1000000
1, 34560, Key_signature, 2, "major"
1, 47232, End_track
2, 0, Start_track
2, 0, Program_c, 0, 0
2, 0, Control_c, 0, 7, 127
2, 0, Control_c, 0, 10, 64
2, 264, Note_on_c, 0, 69, 66
2, 287, Note_on_c, 0, 69, 0
2, 288, Note_on_c, 0, 74, 66
2, 355, Note_on_c, 0, 74, 0
2, 360, Note_on_c, 0, 74, 66
2, 370, Note_on_c, 0, 74, 0
2, 384, Note_on_c, 0, 74, 66
2, 404, Note_on_c, 0, 74, 0
2, 552, Note_on_c, 0, 69, 66
2, 560, Note_on_c, 0, 69, 0
2, 560, Note_on_c, 0, 74, 66
2, 568, Note_on_c, 0, 74, 0
2, 568, Note_on_c, 0, 78, 66
2, 576, Note_on_c, 0, 78, 0
2, 576, Note_on_c, 0, 76, 66
2, 648, Note_on_c, 0, 76, 0
2, 648, Note_on_c, 0, 73, 66
2, 671, Note_on_c, 0, 73, 0
2, 672, Note_on_c, 0, 74, 66
2, 692, Note_on_c, 0, 74, 0
2, 816, Note_on_c, 0, 69, 66
2, 828, Note_on_c, 0, 69, 0
2, 828, Note_on_c, 0, 74, 66
2, 840, Note_on_c, 0, 74, 0
2, 840, Note_on_c, 0, 78, 66
2, 852, Note_on_c, 0, 78, 0
2, 852, Note_on_c, 0, 81, 66
2, 864, Note_on_c, 0, 81, 0
2, 864, Note_on_c, 0, 81, 106
2, 912, Note_on_c, 0, 81, 0
2, 912, Note_on_c, 0, 79, 66
2, 922, Note_on_c, 0, 79, 0
2, 948, Note_on_c, 0, 78, 66
2, 960, Note_on_c, 0, 78, 0
2, 960, Note_on_c, 0, 78, 106
2, 1008, Note_on_c, 0, 78, 0
2, 1008, Note_on_c, 0, 76, 66
2, 1018, Note_on_c, 0, 76, 0
2, 1044, Note_on_c, 0, 74, 66
2, 1056, Note_on_c, 0, 74, 0
2, 1056, Note_on_c, 0, 74, 106
2, 1104, Note_on_c, 0, 74, 0
2, 1104, Note_on_c, 0, 73, 66
2, 1114, Note_on_c, 0, 73, 0
2, 1140, Note_on_c, 0, 74, 66
2, 1152, Note_on_c, 0, 74, 0
2, 1152, Note_on_c, 0, 78, 66
2, 1248, Note_on_c, 0, 78, 0
2, 1248, Note_on_c, 0, 76, 66
2, 1268, Note_on_c, 0, 76, 0
2, 1416, Note_on_c, 0, 74, 80
2, 1424, Note_on_c, 0, 74, 0
2, 1424, Note_on_c, 0, 78, 80
2, 1432, Note_on_c, 0, 78, 0
2, 1432, Note_on_c, 0, 81, 80
2, 1440, Note_on_c, 0, 81, 0
2, 1440, Note_on_c, 0, 86, 80
2, 1460, Note_on_c, 0, 86, 0
2, 1488, Note_on_c, 0, 88, 80
2, 1494, Note_on_c, 0, 88, 0
2, 1494, Note_on_c, 0, 86, 80
2, 1500, Note_on_c, 0, 86, 0
2, 1500, Note_on_c, 0, 85, 80
2, 1506, Note_on_c, 0, 85, 0
2, 1506, Note_on_c, 0, 86, 80
2, 1522, Note_on_c, 0, 86, 0
2, 1524, Note_on_c, 0, 88, 80
2, 1536, Note_on_c, 0, 88, 0
2, 1536, Note_on_c, 0, 85, 80
2, 1556, Note_on_c, 0, 85, 0
2, 1632, Note_on_c, 0, 81, 80
2, 1677, Note_on_c, 0, 81, 0
2, 1680, Note_on_c, 0, 83, 80
2, 1686, Note_on_c, 0, 83, 0
2, 1686, Note_on_c, 0, 81, 80
2, 1692, Note_on_c, 0, 81, 0
2, 1692, Note_on_c, 0, 80, 80
2, 1698, Note_on_c, 0, 80, 0
2, 1698, Note_on_c, 0, 81, 80
2, 1714, Note_on_c, 0, 81, 0
2, 1716, Note_on_c, 0, 83, 80
2, 1728, Note_on_c, 0, 83, 0
2, 1728, Note_on_c, 0, 86, 80
2, 1752, Note_on_c, 0, 86, 0
2, 1752, Note_on_c, 0, 84, 96
2, 1776, Note_on_c, 0, 84, 0
2, 1776, Note_on_c, 0, 84, 76
2, 1810, Note_on_c, 0, 84, 0
2, 1812, Note_on_c, 0, 83, 74
2, 1824, Note_on_c, 0, 83, 0
2, 1824, Note_on_c, 0, 83, 73
2, 1944, Note_on_c, 0, 83, 0
2, 1944, Note_on_c, 0, 81, 66
2, 1967, Note_on_c, 0, 81, 0
2, 1968, Note_on_c, 0, 84, 66
2, 1992, Note_on_c, 0, 84, 0
2, 1992, Note_on_c, 0, 81, 66
2, 2015, Note_on_c, 0, 81, 0
2, 2016, Note_on_c, 0, 81, 66
2, 2040, Note_on_c, 0, 81, 0
2, 2040, Note_on_c, 0, 79, 66
2, 2063, Note_on_c, 0, 79, 0
2, 2064, Note_on_c, 0, 83, 66
2, 2088, Note_on_c, 0, 83, 0
2, 2088, Note_on_c, 0, 79, 66
2, 2111, Note_on_c, 0, 79, 0
2, 2112, Note_on_c, 0, 79, 66
2, 2136, Note_on_c, 0, 79, 0
2, 2136, Note_on_c, 0, 78, 66
2, 2159, Note_on_c, 0, 78, 0
2, 2160, Note_on_c, 0, 81, 66
2, 2184, Note_on_c, 0, 81, 0
2, 2184, Note_on_c, 0, 78, 66
2, 2207, Note_on_c, 0, 78, 0
2, 2208, Note_on_c, 0, 78, 66
2, 2232, Note_on_c, 0, 78, 0
2, 2232, Note_on_c, 0, 76, 66
2, 2255, Note_on_c, 0, 76, 0
2, 2256, Note_on_c, 0, 77, 106
2, 2280, Note_on_c, 0, 77, 0
2, 2280, Note_on_c, 0, 74, 66
2, 2303, Note_on_c, 0, 74, 0
2, 2304, Note_on_c, 0, 74, 66
2, 2400, Note_on_c, 0, 74, 0
2, 2400, Note_on_c, 0, 73, 66
2, 2445, Note_on_c, 0, 73, 0
2, 2568, Note_on_c, 0, 69, 66
2, 2591, Note_on_c, 0, 69, 0
2, 2592, Note_on_c, 0, 74, 66
2, 2659, Note_on_c, 0, 74, 0
2, 2664, Note_on_c, 0, 74, 66
2, 2674, Note_on_c, 0, 74, 0
2, 2688, Note_on_c, 0, 74, 66
2, 2708, Note_on_c, 0, 74, 0
2, 2856, Note_on_c, 0, 69, 66
2, 2864, Note_on_c, 0, 69, 0
2, 2864, Note_on_c, 0, 74, 66
2, 2872, Note_on_c, 0, 74, 0
2, 2872, Note_on_c, 0, 78, 66
2, 2880, Note_on_c, 0, 78, 0
2, 2880, Note_on_c, 0, 76, 66
2, 2952, Note_on_c, 0, 76, 0
2, 2952, Note_on_c, 0, 73, 66
2, 2975, Note_on_c, 0, 73, 0
2, 2976, Note_on_c, 0, 74, 66
2, 2996, Note_on_c, 0, 74, 0
2, 3120, Note_on_c, 0, 69, 66
2, 3132, Note_on_c, 0, 69, 0
2, 3132, Note_on_c, 0, 74, 66
2, 3144, Note_on_c, 0, 74, 0
2, 3144, Note_on_c, 0, 78, 66
2, 3156, Note_on_c, 0, 78, 0
2, 3156, Note_on_c, 0, 81, 66
2, 3168, Note_on_c, 0, 81, 0
2, 3168, Note_on_c, 0, 81, 106
2, 3216, Note_on_c, 0, 81, 0
2, 3216, Note_on_c, 0, 79, 66
2, 3226, Note_on_c, 0, 79, 0
2, 3252, Note_on_c, 0, 78, 66
2, 3264, Note_on_c, 0, 78, 0
2, 3264, Note_on_c, 0, 78, 106
2, 3312, Note_on_c, 0, 78, 0
2, 3312, Note_on_c, 0, 76, 66
2, 3322, Note_on_c, 0, 76, 0
2, 3348, Note_on_c, 0, 74, 66
2, 3360, Note_on_c, 0, 74, 0
2, 3360, Note_on_c, 0, 74, 106
2, 3408, Note_on_c, 0, 74, 0
2, 3408, Note_on_c, 0, 73, 66
2, 3418, Note_on_c, 0, 73, 0
2, 3444, Note_on_c, 0, 74, 66
2, 3456, Note_on_c, 0, 74, 0
2, 3456, Note_on_c, 0, 78, 66
2, 3552, Note_on_c, 0, 78, 0
2, 3552, Note_on_c, 0, 76, 66
2, 3572, Note_on_c, 0, 76, 0
2, 3720, Note_on_c, 0, 74, 80
2, 3728, Note_on_c, 0, 74, 0
2, 3728, Note_on_c, 0, 78, 80
2, 3736, Note_on_c, 0, 78, 0
2, 3736, Note_on_c, 0, 81, 80
2, 3744, Note_on_c, 0, 81, 0
2, 3744, Note_on_c, 0, 86, 80
2, 3764, Note_on_c, 0, 86, 0
2, 3792, Note_on_c, 0, 88, 80
2, 3798, Note_on_c, 0, 88, 0
2, 3798, Note_on_c, 0, 86, 80
2, 3804, Note_on_c, 0, 86, 0
2, 3804, Note_on_c, 0, 85, 80
2, 3810, Note_on_c, 0, 85, 0
2, 3810, Note_on_c, 0, 86, 80
2, 3826, Note_on_c, 0, 86, 0
2, 3828, Note_on_c, 0, 88, 80
2, 3840, Note_on_c, 0, 88, 0
2, 3840, Note_on_c, 0, 85, 80
2, 3860, Note_on_c, 0, 85, 0
2, 3936, Note_on_c, 0, 81, 80
2, 3981, Note_on_c, 0, 81, 0
2, 3984, Note_on_c, 0, 83, 80
2, 3990, Note_on_c, 0, 83, 0
2, 3990, Note_on_c, 0, 81, 80
2, 3996, Note_on_c, 0, 81, 0
2, 3996, Note_on_c, 0, 80, 80
2, 4002, Note_on_c, 0, 80, 0
2, 4002, Note_on_c, 0, 81, 80
2, 4018, Note_on_c, 0, 81, 0
2, 4020, Note_on_c, 0, 83, 80
2, 4032, Note_on_c, 0, 83, 0
2, 4032, Note_on_c, 0, 86, 80
2, 4056, Note_on_c, 0, 86, 0
2, 4056, Note_on_c, 0, 84, 96
2, 4080, Note_on_c, 0, 84, 0
2, 4080, Note_on_c, 0, 84, 76
2, 4114, Note_on_c, 0, 84, 0
2, 4116, Note_on_c, 0, 83, 74
2, 4128, Note_on_c, 0, 83, 0
2, 4128, Note_on_c, 0, 83, 73
2, 4248, Note_on_c, 0, 83, 0
2, 4248, Note_on_c, 0, 81, 66
2, 4271, Note_on_c, 0, 81, 0
2, 4272, Note_on_c, 0, 84, 66
2, 4296, Note_on_c, 0, 84, 0
2, 4296, Note_on_c, 0, 81, 66
2, 4319, Note_on_c, 0, 81, 0
2, 4320, Note_on_c, 0, 81, 66
2, 4344, Note_on_c, 0, 81, 0
2, 4344, Note_on_c, 0, 79, 66
2, 4367, Note_on_c, 0, 79, 0
2, 4368, Note_on_c, 0, 83, 66
2, 4392, Note_on_c, 0, 83, 0
2, 4392, Note_on_c, 0, 79, 66
2, 4415, Note_on_c, 0, 79, 0
2, 4416, Note_on_c, 0, 79, 66
2, 4440, Note_on_c, 0, 79, 0
2, 4440, Note_on_c, 0, 78, 66
2, 4463, Note_on_c, 0, 78, 0
2, 4464, Note_on_c, 0, 81, 66
2, 4488, Note_on_c, 0, 81, 0
2, 4488, Note_on_c, 0, 78, 66
2, 4511, Note_on_c, 0, 78, 0
2, 4512, Note_on_c, 0, 78, 66
2, 4536, Note_on_c, 0, 78, 0
2, 4536, Note_on_c, 0, 76, 66
2, 4559, Note_on_c, 0, 76, 0
2, 4560, Note_on_c, 0, 77, 106
2, 4584, Note_on_c, 0, 77, 0
2, 4584, Note_on_c, 0, 74, 66
2, 4607, Note_on_c, 0, 74, 0
2, 4608, Note_on_c, 0, 74, 66
2, 4704, Note_on_c, 0, 74, 0
2, 4704, Note_on_c, 0, 73, 66
2, 4749, Note_on_c, 0, 73, 0
2, 5040, Note_on_c, 0, 84, 66
2, 5064, Note_on_c, 0, 84, 0
2, 5064, Note_on_c, 0, 81, 66
2, 5087, Note_on_c, 0, 81, 0
2, 5088, Note_on_c, 0, 83, 66
2, 5112, Note_on_c, 0, 83, 0
2, 5112, Note_on_c, 0, 79, 66
2, 5135, Note_on_c, 0, 79, 0
2, 5136, Note_on_c, 0, 81, 66
2, 5160, Note_on_c, 0, 81, 0
2, 5160, Note_on_c, 0, 78, 66
2, 5183, Note_on_c, 0, 78, 0
2, 5184, Note_on_c, 0, 79, 66
2, 5229, Note_on_c, 0, 79, 0
2, 5328, Note_on_c, 0, 83, 66
2, 5352, Note_on_c, 0, 83, 0
2, 5352, Note_on_c, 0, 79, 66
2, 5375, Note_on_c, 0, 79, 0
2, 5376, Note_on_c, 0, 81, 66
2, 5400, Note_on_c, 0, 81, 0
2, 5400, Note_on_c, 0, 78, 66
2, 5423, Note_on_c, 0, 78, 0
2, 5424, Note_on_c, 0, 79, 66
2, 5448, Note_on_c, 0, 79, 0
2, 5448, Note_on_c, 0, 76, 66
2, 5471, Note_on_c, 0, 76, 0
2, 5472, Note_on_c, 0, 78, 66
2, 5517, Note_on_c, 0, 78, 0
2, 5592, Note_on_c, 0, 81, 80
2, 5615, Note_on_c, 0, 81, 0
2, 5616, Note_on_c, 0, 74, 80
2, 5639, Note_on_c, 0, 74, 0
2, 5640, Note_on_c, 0, 86, 80
2, 5663, Note_on_c, 0, 86, 0
2, 5664, Note_on_c, 0, 85, 80
2, 5664, Note_on_c, 0, 81, 80
2, 5687, Note_on_c, 0, 85, 0
2, 5687, Note_on_c, 0, 81, 0
2, 5688, Note_on_c, 0, 83, 79
2, 5688, Note_on_c, 0, 79, 79
2, 5711, Note_on_c, 0, 83, 0
2, 5711, Note_on_c, 0, 79, 0
2, 5712, Note_on_c, 0, 81, 79
2, 5712, Note_on_c, 0, 78, 79
2, 5735, Note_on_c, 0, 81, 0
2, 5735, Note_on_c, 0, 78, 0
2, 5736, Note_on_c, 0, 79, 78
2, 5736, Note_on_c, 0, 76, 78
2, 5759, Note_on_c, 0, 79, 0
2, 5759, Note_on_c, 0, 76, 0
2, 5760, Note_on_c, 0, 78, 78
2, 5760, Note_on_c, 0, 74, 78
2, 5856, Note_on_c, 0, 78, 0
2, 5856, Note_on_c, 0, 74, 0
2, 5856, Note_on_c, 0, 76, 76
2, 5856, Note_on_c, 0, 73, 76
2, 5901, Note_on_c, 0, 76, 0
2, 5901, Note_on_c, 0, 73, 0
2, 6024, Note_on_c, 0, 69, 66
2, 6047, Note_on_c, 0, 69, 0
2, 6048, Note_on_c, 0, 74, 66
2, 6115, Note_on_c, 0, 74, 0
2, 6120, Note_on_c, 0, 74, 66
2, 6130, Note_on_c, 0, 74, 0
2, 6144, Note_on_c, 0, 74, 66
2, 6164, Note_on_c, 0, 74, 0
2, 6312, Note_on_c, 0, 69, 66
2, 6320, Note_on_c, 0, 69, 0
2, 6320, Note_on_c, 0, 74, 66
2, 6328, Note_on_c, 0, 74, 0
2, 6328, Note_on_c, 0, 78, 66
2, 6336, Note_on_c, 0, 78, 0
2, 6336, Note_on_c, 0, 78, 66
2, 6360, Note_on_c, 0, 78, 0
2, 6360, Note_on_c, 0, 76, 66
2, 6383, Note_on_c, 0, 76, 0
2, 6384, Note_on_c, 0, 79, 66
2, 6408, Note_on_c, 0, 79, 0
2, 6408, Note_on_c, 0, 73, 66
2, 6431, Note_on_c, 0, 73, 0
2, 6432, Note_on_c, 0, 76, 66
2, 6480, Note_on_c, 0, 76, 0
2, 6480, Note_on_c, 0, 74, 66
2, 6525, Note_on_c, 0, 74, 0
2, 6576, Note_on_c, 0, 74, 66
2, 6591, Note_on_c, 0, 74, 0
2, 6592, Note_on_c, 0, 78, 66
2, 6607, Note_on_c, 0, 78, 0
2, 6608, Note_on_c, 0, 81, 66
2, 6623, Note_on_c, 0, 81, 0
2, 6624, Note_on_c, 0, 81, 106
2, 6672, Note_on_c, 0, 81, 0
2, 6672, Note_on_c, 0, 79, 66
2, 6682, Note_on_c, 0, 79, 0
2, 6708, Note_on_c, 0, 78, 66
2, 6720, Note_on_c, 0, 78, 0
2, 6720, Note_on_c, 0, 78, 106
2, 6768, Note_on_c, 0, 78, 0
2, 6768, Note_on_c, 0, 76, 66
2, 6778, Note_on_c, 0, 76, 0
2, 6804, Note_on_c, 0, 74, 66
2, 6816, Note_on_c, 0, 74, 0
2, 6816, Note_on_c, 0, 74, 106
2, 6864, Note_on_c, 0, 74, 0
2, 6864, Note_on_c, 0, 73, 66
2, 6874, Note_on_c, 0, 73, 0
2, 6900, Note_on_c, 0, 74, 66
2, 6912, Note_on_c, 0, 74, 0
2, 6912, Note_on_c, 0, 78, 66
2, 6946, Note_on_c, 0, 78, 0
2, 6948, Note_on_c, 0, 79, 66
2, 6960, Note_on_c, 0, 79, 0
2, 6960, Note_on_c, 0, 80, 66
2, 6994, Note_on_c, 0, 80, 0
2, 6996, Note_on_c, 0, 81, 66
2, 7008, Note_on_c, 0, 81, 0
2, 7008, Note_on_c, 0, 76, 66
2, 7028, Note_on_c, 0, 76, 0
2, 7176, Note_on_c, 0, 74, 80
2, 7184, Note_on_c, 0, 74, 0
2, 7184, Note_on_c, 0, 78, 80
2, 7192, Note_on_c, 0, 78, 0
2, 7192, Note_on_c, 0, 81, 80
2, 7200, Note_on_c, 0, 81, 0
2, 7200, Note_on_c, 0, 86, 80
2, 7220, Note_on_c, 0, 86, 0
2, 7248, Note_on_c, 0, 88, 80
2, 7254, Note_on_c, 0, 88, 0
2, 7254, Note_on_c, 0, 86, 80
2, 7260, Note_on_c, 0, 86, 0
2, 7260, Note_on_c, 0, 85, 80
2, 7266, Note_on_c, 0, 85, 0
2, 7266, Note_on_c, 0, 86, 80
2, 7282, Note_on_c, 0, 86, 0
2, 7284, Note_on_c, 0, 88, 80
2, 7296, Note_on_c, 0, 88, 0
2, 7296, Note_on_c, 0, 85, 80
2, 7316, Note_on_c, 0, 85, 0
2, 7392, Note_on_c, 0, 69, 80
2, 7404, Note_on_c, 0, 69, 0
2, 7404, Note_on_c, 0, 71, 80
2, 7416, Note_on_c, 0, 71, 0
2, 7416, Note_on_c, 0, 73, 81
2, 7428, Note_on_c, 0, 73, 0
2, 7428, Note_on_c, 0, 74, 81
2, 7440, Note_on_c, 0, 74, 0
2, 7440, Note_on_c, 0, 76, 82
2, 7450, Note_on_c, 0, 76, 0
2, 7450, Note_on_c, 0, 78, 82
2, 7460, Note_on_c, 0, 78, 0
2, 7460, Note_on_c, 0, 79, 82
2, 7470, Note_on_c, 0, 79, 0
2, 7470, Note_on_c, 0, 81, 82
2, 7479, Note_on_c, 0, 81, 0
2, 7479, Note_on_c, 0, 83, 83
2, 7488, Note_on_c, 0, 83, 0
2, 7488, Note_on_c, 0, 85, 100
2, 7536, Note_on_c, 0, 85, 0
2, 7536, Note_on_c, 0, 86, 108
2, 7542, Note_on_c, 0, 86, 0
2, 7542, Note_on_c, 0, 85, 108
2, 7548, Note_on_c, 0, 85, 0
2, 7548, Note_on_c, 0, 83, 108
2, 7554, Note_on_c, 0, 83, 0
2, 7554, Note_on_c, 0, 85, 124
2, 7572, Note_on_c, 0, 85, 0
2, 7572, Note_on_c, 0, 86, 84
2, 7584, Note_on_c, 0, 86, 0
2, 7584, Note_on_c, 0, 84, 84
2, 7629, Note_on_c, 0, 84, 0
2, 7632, Note_on_c, 0, 86, 108
2, 7638, Note_on_c, 0, 86, 0
2, 7638, Note_on_c, 0, 84, 108
2, 7644, Note_on_c, 0, 84, 0
2, 7644, Note_on_c, 0, 83, 108
2, 7650, Note_on_c, 0, 83, 0
2, 7650, Note_on_c, 0, 84, 124
2, 7668, Note_on_c, 0, 84, 0
2, 7668, Note_on_c, 0, 86, 84
2, 7680, Note_on_c, 0, 86, 0
2, 7680, Note_on_c, 0, 83, 84
2, 7725, Note_on_c, 0, 83, 0
2, 7728, Note_on_c, 0, 81, 84
2, 7740, Note_on_c, 0, 81, 0
2, 7740, Note_on_c, 0, 79, 84
2, 7752, Note_on_c, 0, 79, 0
2, 7752, Note_on_c, 0, 78, 84
2, 7764, Note_on_c, 0, 78, 0
2, 7764, Note_on_c, 0, 76, 84
2, 7776, Note_on_c, 0, 76, 0
2, 7776, Note_on_c, 0, 81, 96
2, 7917, Note_on_c, 0, 81, 0
2, 7920, Note_on_c, 0, 79, 69
2, 7932, Note_on_c, 0, 79, 0
2, 7932, Note_on_c, 0, 78, 68
2, 7944, Note_on_c, 0, 78, 0
2, 7944, Note_on_c, 0, 76, 67
2, 7956, Note_on_c, 0, 76, 0
2, 7956, Note_on_c, 0, 74, 66
2, 7968, Note_on_c, 0, 74, 0
2, 7968, Note_on_c, 0, 73, 66
2, 7988, Note_on_c, 0, 73, 0
2, 8016, Note_on_c, 0, 76, 66
2, 8016, Note_on_c, 0, 67, 66
2, 8036, Note_on_c, 0, 76, 0
2, 8036, Note_on_c, 0, 67, 0
2, 8064, Note_on_c, 0, 74, 66
2, 8064, Note_on_c, 0, 66, 66
2, 8084, Note_on_c, 0, 74, 0
2, 8084, Note_on_c, 0, 66, 0
2, 8496, Note_on_c, 0, 84, 66
2, 8520, Note_on_c, 0, 84, 0
2, 8520, Note_on_c, 0, 81, 66
2, 8543, Note_on_c, 0, 81, 0
2, 8544, Note_on_c, 0, 83, 66
2, 8568, Note_on_c, 0, 83, 0
2, 8568, Note_on_c, 0, 79, 66
2, 8591, Note_on_c, 0, 79, 0
2, 8592, Note_on_c, 0, 81, 66
2, 8616, Note_on_c, 0, 81, 0
2, 8616, Note_on_c, 0, 78, 66
2, 8639, Note_on_c, 0, 78, 0
2, 8640, Note_on_c, 0, 79, 66
2, 8685, Note_on_c, 0, 79, 0
2, 8784, Note_on_c, 0, 83, 66
2, 8808, Note_on_c, 0, 83, 0
2, 8808, Note_on_c, 0, 79, 66
2, 8831, Note_on_c, 0, 79, 0
2, 8832, Note_on_c, 0, 81, 66
2, 8856, Note_on_c, 0, 81, 0
2, 8856, Note_on_c, 0, 78, 66
2, 8879, Note_on_c, 0, 78, 0
2, 8880, Note_on_c, 0, 79, 66
2, 8904, Note_on_c, 0, 79, 0
2, 8904, Note_on_c, 0, 76, 66
2, 8927, Note_on_c, 0, 76, 0
2, 8928, Note_on_c, 0, 78, 66
2, 8973, Note_on_c, 0, 78, 0
2, 9048, Note_on_c, 0, 81, 80
2, 9071, Note_on_c, 0, 81, 0
2, 9072, Note_on_c, 0, 74, 80
2, 9095, Note_on_c, 0, 74, 0
2, 9096, Note_on_c, 0, 86, 80
2, 9119, Note_on_c, 0, 86, 0
2, 9120, Note_on_c, 0, 85, 80
2, 9120, Note_on_c, 0, 81, 80
2, 9143, Note_on_c, 0, 85, 0
2, 9143, Note_on_c, 0, 81, 0
2, 9144, Note_on_c, 0, 83, 79
2, 9144, Note_on_c, 0, 79, 79
2, 9167, Note_on_c, 0, 83, 0
2, 9167, Note_on_c, 0, 79, 0
2, 9168, Note_on_c, 0, 81, 79
2, 9168, Note_on_c, 0, 78, 79
2, 9191, Note_on_c, 0, 81, 0
2, 9191, Note_on_c, 0, 78, 0
2, 9192, Note_on_c, 0, 79, 78
2, 9192, Note_on_c, 0, 76, 78
2, 9215, Note_on_c, 0, 79, 0
2, 9215, Note_on_c, 0, 76, 0
2, 9216, Note_on_c, 0, 78, 78
2, 9216, Note_on_c, 0, 74, 78
2, 9312, Note_on_c, 0, 78, 0
2, 9312, Note_on_c, 0, 74, 0
2, 9312, Note_on_c, 0, 76, 76
2, 9312, Note_on_c, 0, 73, 76
2, 9357, Note_on_c, 0, 76, 0
2, 9357, Note_on_c, 0, 73, 0
2, 9480, Note_on_c, 0, 69, 66
2, 9503, Note_on_c, 0, 69, 0
2, 9504, Note_on_c, 0, 74, 66
2, 9571, Note_on_c, 0, 74, 0
2, 9576, Note_on_c, 0, 74, 66
2, 9586, Note_on_c, 0, 74, 0
2, 9600, Note_on_c, 0, 74, 66
2, 9620, Note_on_c, 0, 74, 0
2, 9768, Note_on_c, 0, 69, 66
2, 9776, Note_on_c, 0, 69, 0
2, 9776, Note_on_c, 0, 74, 66
2, 9784, Note_on_c, 0, 74, 0
2, 9784, Note_on_c, 0, 78, 66
2, 9792, Note_on_c, 0, 78, 0
2, 9792, Note_on_c, 0, 78, 66
2, 9816, Note_on_c, 0, 78, 0
2, 9816, Note_on_c, 0, 76, 66
2, 9839, Note_on_c, 0, 76, 0
2, 9840, Note_on_c, 0, 79, 66
2, 9864, Note_on_c, 0, 79, 0
2, 9864, Note_on_c, 0, 73, 66
2, 9887, Note_on_c, 0, 73, 0
2, 9888, Note_on_c, 0, 76, 66
2, 9936, Note_on_c, 0, 76, 0
2, 9936, Note_on_c, 0, 74, 66
2, 9981, Note_on_c, 0, 74, 0
2, 10032, Note_on_c, 0, 74, 66
2, 10047, Note_on_c, 0, 74, 0
2, 10048, Note_on_c, 0, 78, 66
2, 10063, Note_on_c, 0, 78, 0
2, 10064, Note_on_c, 0, 81, 66
2, 10079, Note_on_c, 0, 81, 0
2, 10080, Note_on_c, 0, 81, 106
2, 10128, Note_on_c, 0, 81, 0
2, 10128, Note_on_c, 0, 79, 66
2, 10138, Note_on_c, 0, 79, 0
2, 10164, Note_on_c, 0, 78, 66
2, 10176, Note_on_c, 0, 78, 0
2, 10176, Note_on_c, 0, 78, 106
2, 10224, Note_on_c, 0, 78, 0
2, 10224, Note_on_c, 0, 76, 66
2, 10234, Note_on_c, 0, 76, 0
2, 10260, Note_on_c, 0, 74, 66
2, 10272, Note_on_c, 0, 74, 0
2, 10272, Note_on_c, 0, 74, 106
2, 10320, Note_on_c, 0, 74, 0
2, 10320, Note_on_c, 0, 73, 66
2, 10330, Note_on_c, 0, 73, 0
2, 10356, Note_on_c, 0, 74, 66
2, 10368, Note_on_c, 0, 74, 0
2, 10368, Note_on_c, 0, 78, 66
2, 10402, Note_on_c, 0, 78, 0
2, 10404, Note_on_c, 0, 79, 66
2, 10416, Note_on_c, 0, 79, 0
2, 10416, Note_on_c, 0, 80, 66
2, 10450, Note_on_c, 0, 80, 0
2, 10452, Note_on_c, 0, 81, 66
2, 10464, Note_on_c, 0, 81, 0
2, 10464, Note_on_c, 0, 76, 66
2, 10484, Note_on_c, 0, 76, 0
2, 10632, Note_on_c, 0, 74, 80
2, 10640, Note_on_c, 0, 74, 0
2, 10640, Note_on_c, 0, 78, 80
2, 10648, Note_on_c, 0, 78, 0
2, 10648, Note_on_c, 0, 81, 80
2, 10656, Note_on_c, 0, 81, 0
2, 10656, Note_on_c, 0, 86, 80
2, 10676, Note_on_c, 0, 86, 0
2, 10704, Note_on_c, 0, 88, 80
2, 10710, Note_on_c, 0, 88, 0
2, 10710, Note_on_c, 0, 86, 80
2, 10716, Note_on_c, 0, 86, 0
2, 10716, Note_on_c, 0, 85, 80
2, 10722, Note_on_c, 0, 85, 0
2, 10722, Note_on_c, 0, 86, 80
2, 10738, Note_on_c, 0, 86, 0
2, 10740, Note_on_c, 0, 88, 80
2, 10752, Note_on_c, 0, 88, 0
2, 10752, Note_on_c, 0, 85, 80
2, 10772, Note_on_c, 0, 85, 0
2, 10848, Note_on_c, 0, 69, 80
2, 10860, Note_on_c, 0, 69, 0
2, 10860, Note_on_c, 0, 71, 80
2, 10872, Note_on_c, 0, 71, 0
2, 10872, Note_on_c, 0, 73, 81
2, 10884, Note_on_c, 0, 73, 0
2, 10884, Note_on_c, 0, 74, 81
2, 10896, Note_on_c, 0, 74, 0
2, 10896, Note_on_c, 0, 76, 82
2, 10906, Note_on_c, 0, 76, 0
2, 10906, Note_on_c, 0, 78, 82
2, 10916, Note_on_c, 0, 78, 0
2, 10916, Note_on_c, 0, 79, 82
2, 10926, Note_on_c, 0, 79, 0
2, 10926, Note_on_c, 0, 81, 82
2, 10935, Note_on_c, 0, 81, 0
2, 10935, Note_on_c, 0, 83, 83
2, 10944, Note_on_c, 0, 83, 0
2, 10944, Note_on_c, 0, 85, 100
2, 10992, Note_on_c, 0, 85, 0
2, 10992, Note_on_c, 0, 86, 108
2, 10998, Note_on_c, 0, 86, 0
2, 10998, Note_on_c, 0, 85, 108
2, 11004, Note_on_c, 0, 85, 0
2, 11004, Note_on_c, 0, 83, 108
2, 11010, Note_on_c, 0, 83, 0
2, 11010, Note_on_c, 0, 85, 124
2, 11028, Note_on_c, 0, 85, 0
2, 11028, Note_on_c, 0, 86, 84
2, 11040, Note_on_c, 0, 86, 0
2, 11040, Note_on_c, 0, 84, 84
2, 11085, Note_on_c, 0, 84, 0
2, 11088, Note_on_c, 0, 86, 108
2, 11094, Note_on_c, 0, 86, 0
2, 11094, Note_on_c, 0, 84, 108
2, 11100, Note_on_c, 0, 84, 0
2, 11100, Note_on_c, 0, 83, 108
2, 11106, Note_on_c, 0, 83, 0
2, 11106, Note_on_c, 0, 84, 124
2, 11124, Note_on_c, 0, 84, 0
2, 11124, Note_on_c, 0, 86, 84
2, 11136, Note_on_c, 0, 86, 0
2, 11136, Note_on_c, 0, 83, 84
2, 11181, Note_on_c, 0, 83, 0
2, 11184, Note_on_c, 0, 81, 84
2, 11196, Note_on_c, 0, 81, 0
2, 11196, Note_on_c, 0, 79, 84
2, 11208, Note_on_c, 0, 79, 0
2, 11208, Note_on_c, 0, 78, 84
2, 11220, Note_on_c, 0, 78, 0
2, 11220, Note_on_c, 0, 76, 84
2, 11232, Note_on_c, 0, 76, 0
2, 11232, Note_on_c, 0, 81, 96
2, 11373, Note_on_c, 0, 81, 0
2, 11376, Note_on_c, 0, 79, 69
2, 11388, Note_on_c, 0, 79, 0
2, 11388, Note_on_c, 0, 78, 68
2, 11400, Note_on_c, 0, 78, 0
2, 11400, Note_on_c, 0, 76, 67
2, 11412, Note_on_c, 0, 76, 0
2, 11412, Note_on_c, 0, 74, 66
2, 11424, Note_on_c, 0, 74, 0
2, 11424, Note_on_c, 0, 73, 66
2, 11444, Note_on_c, 0, 73, 0
2, 11472, Note_on_c, 0, 76, 66
2, 11472, Note_on_c, 0, 67, 66
2, 11492, Note_on_c, 0, 76, 0
2, 11492, Note_on_c, 0, 67, 0
2, 11520, Note_on_c, 0, 74, 66
2, 11520, Note_on_c, 0, 66, 66
2, 11540, Note_on_c, 0, 74, 0
2, 11540, Note_on_c, 0, 66, 0
2, 11784, Note_on_c, 0, 57, 66
2, 11807, Note_on_c, 0, 57, 0
2, 11808, Note_on_c, 0, 62, 66
2, 11875, Note_on_c, 0, 62, 0
2, 11880, Note_on_c, 0, 62, 66
2, 11903, Note_on_c, 0, 62, 0
2, 11904, Note_on_c, 0, 62, 66
2, 11949, Note_on_c, 0, 62, 0
2, 12000, Note_on_c, 0, 62, 66
2, 12015, Note_on_c, 0, 62, 0
2, 12016, Note_on_c, 0, 66, 68
2, 12031, Note_on_c, 0, 66, 0
2, 12032, Note_on_c, 0, 69, 70
2, 12047, Note_on_c, 0, 69, 0
2, 12048, Note_on_c, 0, 74, 72
2, 12063, Note_on_c, 0, 74, 0
2, 12064, Note_on_c, 0, 69, 75
2, 12079, Note_on_c, 0, 69, 0
2, 12080, Note_on_c, 0, 66, 72
2, 12095, Note_on_c, 0, 66, 0
2, 12096, Note_on_c, 0, 64, 66
2, 12168, Note_on_c, 0, 64, 0
2, 12168, Note_on_c, 0, 61, 66
2, 12191, Note_on_c, 0, 61, 0
2, 12192, Note_on_c, 0, 62, 66
2, 12207, Note_on_c, 0, 62, 0
2, 12208, Note_on_c, 0, 69, 66
2, 12223, Note_on_c, 0, 69, 0
2, 12224, Note_on_c, 0, 66, 66
2, 12239, Note_on_c, 0, 66, 0
2, 12240, Note_on_c, 0, 74, 66
2, 12255, Note_on_c, 0, 74, 0
2, 12256, Note_on_c, 0, 69, 66
2, 12271, Note_on_c, 0, 69, 0
2, 12272, Note_on_c, 0, 78, 66
2, 12287, Note_on_c, 0, 78, 0
2, 12288, Note_on_c, 0, 74, 66
2, 12303, Note_on_c, 0, 74, 0
2, 12304, Note_on_c, 0, 81, 66
2, 12319, Note_on_c, 0, 81, 0
2, 12320, Note_on_c, 0, 78, 66
2, 12335, Note_on_c, 0, 78, 0
2, 12336, Note_on_c, 0, 86, 66
2, 12351, Note_on_c, 0, 86, 0
2, 12352, Note_on_c, 0, 85, 66
2, 12367, Note_on_c, 0, 85, 0
2, 12368, Note_on_c, 0, 83, 66
2, 12383, Note_on_c, 0, 83, 0
2, 12384, Note_on_c, 0, 81, 106
2, 12400, Note_on_c, 0, 81, 0
2, 12400, Note_on_c, 0, 79, 66
2, 12415, Note_on_c, 0, 79, 0
2, 12416, Note_on_c, 0, 81, 66
2, 12431, Note_on_c, 0, 81, 0
2, 12432, Note_on_c, 0, 79, 106
2, 12448, Note_on_c, 0, 79, 0
2, 12448, Note_on_c, 0, 78, 66
2, 12463, Note_on_c, 0, 78, 0
2, 12464, Note_on_c, 0, 79, 66
2, 12479, Note_on_c, 0, 79, 0
2, 12480, Note_on_c, 0, 78, 106
2, 12496, Note_on_c, 0, 78, 0
2, 12496, Note_on_c, 0, 76, 66
2, 12511, Note_on_c, 0, 76, 0
2, 12512, Note_on_c, 0, 78, 66
2, 12527, Note_on_c, 0, 78, 0
2, 12528, Note_on_c, 0, 76, 106
2, 12544, Note_on_c, 0, 76, 0
2, 12544, Note_on_c, 0, 74, 66
2, 12559, Note_on_c, 0, 74, 0
2, 12560, Note_on_c, 0, 76, 66
2, 12575, Note_on_c, 0, 76, 0
2, 12576, Note_on_c, 0, 74, 66
2, 12591, Note_on_c, 0, 74, 0
2, 12592, Note_on_c, 0, 73, 66
2, 12607, Note_on_c, 0, 73, 0
2, 12608, Note_on_c, 0, 81, 66
2, 12623, Note_on_c, 0, 81, 0
2, 12624, Note_on_c, 0, 79, 66
2, 12639, Note_on_c, 0, 79, 0
2, 12640, Note_on_c, 0, 78, 66
2, 12655, Note_on_c, 0, 78, 0
2, 12656, Note_on_c, 0, 86, 66
2, 12671, Note_on_c, 0, 86, 0
2, 12672, Note_on_c, 0, 79, 66
2, 12680, Note_on_c, 0, 79, 0
2, 12680, Note_on_c, 0, 78, 66
2, 12688, Note_on_c, 0, 78, 0
2, 12688, Note_on_c, 0, 79, 66
2, 12696, Note_on_c, 0, 79, 0
2, 12696, Note_on_c, 0, 78, 66
2, 12704, Note_on_c, 0, 78, 0
2, 12704, Note_on_c, 0, 79, 66
2, 12712, Note_on_c, 0, 79, 0
2, 12712, Note_on_c, 0, 78, 66
2, 12720, Note_on_c, 0, 78, 0
2, 12720, Note_on_c, 0, 79, 66
2, 12728, Note_on_c, 0, 79, 0
2, 12728, Note_on_c, 0, 78, 66
2, 12736, Note_on_c, 0, 78, 0
2, 12736, Note_on_c, 0, 79, 66
2, 12744, Note_on_c, 0, 79, 0
2, 12744, Note_on_c, 0, 78, 66
2, 12752, Note_on_c, 0, 78, 0
2, 12752, Note_on_c, 0, 76, 66
2, 12760, Note_on_c, 0, 76, 0
2, 12760, Note_on_c, 0, 78, 66
2, 12768, Note_on_c, 0, 78, 0
2, 12768, Note_on_c, 0, 76, 66
2, 12788, Note_on_c, 0, 76, 0
2, 12912, Note_on_c, 0, 74, 66
2, 12927, Note_on_c, 0, 74, 0
2, 12928, Note_on_c, 0, 78, 66
2, 12943, Note_on_c, 0, 78, 0
2, 12944, Note_on_c, 0, 81, 66
2, 12959, Note_on_c, 0, 81, 0
2, 12960, Note_on_c, 0, 86, 66
2, 12980, Note_on_c, 0, 86, 0
2, 13008, Note_on_c, 0, 88, 66
2, 13014, Note_on_c, 0, 88, 0
2, 13014, Note_on_c, 0, 86, 66
2, 13020, Note_on_c, 0, 86, 0
2, 13020, Note_on_c, 0, 85, 66
2, 13026, Note_on_c, 0, 85, 0
2, 13026, Note_on_c, 0, 86, 66
2, 13042, Note_on_c, 0, 86, 0
2, 13044, Note_on_c, 0, 88, 66
2, 13056, Note_on_c, 0, 88, 0
2, 13056, Note_on_c, 0, 85, 66
2, 13103, Note_on_c, 0, 85, 0
2, 13152, Note_on_c, 0, 81, 66
2, 13167, Note_on_c, 0, 81, 0
2, 13168, Note_on_c, 0, 80, 66
2, 13183, Note_on_c, 0, 80, 0
2, 13184, Note_on_c, 0, 83, 66
2, 13199, Note_on_c, 0, 83, 0
2, 13200, Note_on_c, 0, 81, 66
2, 13215, Note_on_c, 0, 81, 0
2, 13216, Note_on_c, 0, 84, 66
2, 13231, Note_on_c, 0, 84, 0
2, 13232, Note_on_c, 0, 83, 66
2, 13247, Note_on_c, 0, 83, 0
2, 13248, Note_on_c, 0, 86, 66
2, 13293, Note_on_c, 0, 86, 0
2, 13296, Note_on_c, 0, 84, 80
2, 13385, Note_on_c, 0, 84, 0
2, 13392, Note_on_c, 0, 83, 120
2, 13463, Note_on_c, 0, 83, 0
2, 13464, Note_on_c, 0, 81, 80
2, 13476, Note_on_c, 0, 81, 0
2, 13476, Note_on_c, 0, 83, 80
2, 13488, Note_on_c, 0, 83, 0
2, 13488, Note_on_c, 0, 86, 80
2, 13500, Note_on_c, 0, 86, 0
2, 13500, Note_on_c, 0, 84, 80
2, 13512, Note_on_c, 0, 84, 0
2, 13512, Note_on_c, 0, 83, 80
2, 13524, Note_on_c, 0, 83, 0
2, 13524, Note_on_c, 0, 81, 80
2, 13536, Note_on_c, 0, 81, 0
2, 13536, Note_on_c, 0, 81, 80
2, 13581, Note_on_c, 0, 81, 0
2, 13584, Note_on_c, 0, 79, 78
2, 13666, Note_on_c, 0, 79, 0
2, 13668, Note_on_c, 0, 78, 75
2, 13680, Note_on_c, 0, 78, 0
2, 13680, Note_on_c, 0, 79, 74
2, 13686, Note_on_c, 0, 79, 0
2, 13686, Note_on_c, 0, 78, 74
2, 13692, Note_on_c, 0, 78, 0
2, 13692, Note_on_c, 0, 76, 74
2, 13698, Note_on_c, 0, 76, 0
2, 13698, Note_on_c, 0, 78, 74
2, 13725, Note_on_c, 0, 78, 0
2, 13728, Note_on_c, 0, 76, 73
2, 13743, Note_on_c, 0, 76, 0
2, 13744, Note_on_c, 0, 82, 72
2, 13759, Note_on_c, 0, 82, 0
2, 13760, Note_on_c, 0, 83, 72
2, 13775, Note_on_c, 0, 83, 0
2, 13776, Note_on_c, 0, 78, 71
2, 13791, Note_on_c, 0, 78, 0
2, 13792, Note_on_c, 0, 79, 71
2, 13807, Note_on_c, 0, 79, 0
2, 13808, Note_on_c, 0, 76, 70
2, 13823, Note_on_c, 0, 76, 0
2, 13824, Note_on_c, 0, 74, 70
2, 13920, Note_on_c, 0, 74, 0
2, 13920, Note_on_c, 0, 73, 66
2, 13965, Note_on_c, 0, 73, 0
2, 14088, Note_on_c, 0, 57, 66
2, 14111, Note_on_c, 0, 57, 0
2, 14112, Note_on_c, 0, 62, 66
2, 14179, Note_on_c, 0, 62, 0
2, 14184, Note_on_c, 0, 62, 66
2, 14207, Note_on_c, 0, 62, 0
2, 14208, Note_on_c, 0, 62, 66
2, 14253, Note_on_c, 0, 62, 0
2, 14304, Note_on_c, 0, 62, 66
2, 14319, Note_on_c, 0, 62, 0
2, 14320, Note_on_c, 0, 66, 68
2, 14335, Note_on_c, 0, 66, 0
2, 14336, Note_on_c, 0, 69, 70
2, 14351, Note_on_c, 0, 69, 0
2, 14352, Note_on_c, 0, 74, 72
2, 14367, Note_on_c, 0, 74, 0
2, 14368, Note_on_c, 0, 69, 75
2, 14383, Note_on_c, 0, 69, 0
2, 14384, Note_on_c, 0, 66, 72
2, 14399, Note_on_c, 0, 66, 0
2, 14400, Note_on_c, 0, 64, 66
2, 14472, Note_on_c, 0, 64, 0
2, 14472, Note_on_c, 0, 61, 66
2, 14495, Note_on_c, 0, 61, 0
2, 14496, Note_on_c, 0, 62, 66
2, 14511, Note_on_c, 0, 62, 0
2, 14512, Note_on_c, 0, 69, 66
2, 14527, Note_on_c, 0, 69, 0
2, 14528, Note_on_c, 0, 66, 66
2, 14543, Note_on_c, 0, 66, 0
2, 14544, Note_on_c, 0, 74, 66
2, 14559, Note_on_c, 0, 74, 0
2, 14560, Note_on_c, 0, 69, 66
2, 14575, Note_on_c, 0, 69, 0
2, 14576, Note_on_c, 0, 78, 66
2, 14591, Note_on_c, 0, 78, 0
2, 14592, Note_on_c, 0, 74, 66
2, 14607, Note_on_c, 0, 74, 0
2, 14608, Note_on_c, 0, 81, 66
2, 14623, Note_on_c, 0, 81, 0
2, 14624, Note_on_c, 0, 78, 66
2, 14639, Note_on_c, 0, 78, 0
2, 14640, Note_on_c, 0, 86, 66
2, 14655, Note_on_c, 0, 86, 0
2, 14656, Note_on_c, 0, 85, 66
2, 14671, Note_on_c, 0, 85, 0
2, 14672, Note_on_c, 0, 83, 66
2, 14687, Note_on_c, 0, 83, 0
2, 14688, Note_on_c, 0, 81, 106
2, 14704, Note_on_c, 0, 81, 0
2, 14704, Note_on_c, 0, 79, 66
2, 14719, Note_on_c, 0, 79, 0
2, 14720, Note_on_c, 0, 81, 66
2, 14735, Note_on_c, 0, 81, 0
2, 14736, Note_on_c, 0, 79, 106
2, 14752, Note_on_c, 0, 79, 0
2, 14752, Note_on_c, 0, 78, 66
2, 14767, Note_on_c, 0, 78, 0
2, 14768, Note_on_c, 0, 79, 66
2, 14783, Note_on_c, 0, 79, 0
2, 14784, Note_on_c, 0, 78, 106
2, 14800, Note_on_c, 0, 78, 0
2, 14800, Note_on_c, 0, 76, 66
2, 14815, Note_on_c, 0, 76, 0
2, 14816, Note_on_c, 0, 78, 66
2, 14831, Note_on_c, 0, 78, 0
2, 14832, Note_on_c, 0, 76, 106
2, 14848, Note_on_c, 0, 76, 0
2, 14848, Note_on_c, 0, 74, 66
2, 14863, Note_on_c, 0, 74, 0
2, 14864, Note_on_c, 0, 76, 66
2, 14879, Note_on_c, 0, 76, 0
2, 14880, Note_on_c, 0, 74, 66
2, 14895, Note_on_c, 0, 74, 0
2, 14896, Note_on_c, 0, 73, 66
2, 14911, Note_on_c, 0, 73, 0
2, 14912, Note_on_c, 0, 81, 66
2, 14927, Note_on_c, 0, 81, 0
2, 14928, Note_on_c, 0, 79, 66
2, 14943, Note_on_c, 0, 79, 0
2, 14944, Note_on_c, 0, 78, 66
2, 14959, Note_on_c, 0, 78, 0
2, 14960, Note_on_c, 0, 86, 66
2, 14975, Note_on_c, 0, 86, 0
2, 14976, Note_on_c, 0, 79, 66
2, 14984, Note_on_c, 0, 79, 0
2, 14984, Note_on_c, 0, 78, 66
2, 14992, Note_on_c, 0, 78, 0
2, 14992, Note_on_c, 0, 79, 66
2, 15000, Note_on_c, 0, 79, 0
2, 15000, Note_on_c, 0, 78, 66
2, 15008, Note_on_c, 0, 78, 0
2, 15008, Note_on_c, 0, 79, 66
2, 15016, Note_on_c, 0, 79, 0
2, 15016, Note_on_c, 0, 78, 66
2, 15024, Note_on_c, 0, 78, 0
2, 15024, Note_on_c, 0, 79, 66
2, 15032, Note_on_c, 0, 79, 0
2, 15032, Note_on_c, 0, 78, 66
2, 15040, Note_on_c, 0, 78, 0
2, 15040, Note_on_c, 0, 79, 66
2, 15048, Note_on_c, 0, 79, 0
2, 15048, Note_on_c, 0, 78, 66
2, 15056, Note_on_c, 0, 78, 0
2, 15056, Note_on_c, 0, 76, 66
2, 15064, Note_on_c, 0, 76, 0
2, 15064, Note_on_c, 0, 78, 66
2, 15072, Note_on_c, 0, 78, 0
2, 15072, Note_on_c, 0, 76, 66
2, 15092, Note_on_c, 0, 76, 0
2, 15216, Note_on_c, 0, 74, 66
2, 15231, Note_on_c, 0, 74, 0
2, 15232, Note_on_c, 0, 78, 66
2, 15247, Note_on_c, 0, 78, 0
2, 15248, Note_on_c, 0, 81, 66
2, 15263, Note_on_c, 0, 81, 0
2, 15264, Note_on_c, 0, 86, 66
2, 15284, Note_on_c, 0, 86, 0
2, 15312, Note_on_c, 0, 88, 66
2, 15318, Note_on_c, 0, 88, 0
2, 15318, Note_on_c, 0, 86, 66
2, 15324, Note_on_c, 0, 86, 0
2, 15324, Note_on_c, 0, 85, 66
2, 15330, Note_on_c, 0, 85, 0
2, 15330, Note_on_c, 0, 86, 66
2, 15346, Note_on_c, 0, 86, 0
2, 15348, Note_on_c, 0, 88, 66
2, 15360, Note_on_c, 0, 88, 0
2, 15360, Note_on_c, 0, 85, 66
2, 15407, Note_on_c, 0, 85, 0
2, 15456, Note_on_c, 0, 81, 66
2, 15471, Note_on_c, 0, 81, 0
2, 15472, Note_on_c, 0, 80, 66
2, 15487, Note_on_c, 0, 80, 0
2, 15488, Note_on_c, 0, 83, 66
2, 15503, Note_on_c, 0, 83, 0
2, 15504, Note_on_c, 0, 81, 66
2, 15519, Note_on_c, 0, 81, 0
2, 15520, Note_on_c, 0, 84, 66
2, 15535, Note_on_c, 0, 84, 0
2, 15536, Note_on_c, 0, 83, 66
2, 15551, Note_on_c, 0, 83, 0
2, 15552, Note_on_c, 0, 86, 66
2, 15597, Note_on_c, 0, 86, 0
2, 15600, Note_on_c, 0, 84, 80
2, 15689, Note_on_c, 0, 84, 0
2, 15696, Note_on_c, 0, 83, 120
2, 15767, Note_on_c, 0, 83, 0
2, 15768, Note_on_c, 0, 81, 80
2, 15780, Note_on_c, 0, 81, 0
2, 15780, Note_on_c, 0, 83, 80
2, 15792, Note_on_c, 0, 83, 0
2, 15792, Note_on_c, 0, 86, 80
2, 15804, Note_on_c, 0, 86, 0
2, 15804, Note_on_c, 0, 84, 80
2, 15816, Note_on_c, 0, 84, 0
2, 15816, Note_on_c, 0, 83, 80
2, 15828, Note_on_c, 0, 83, 0
2, 15828, Note_on_c, 0, 81, 80
2, 15840, Note_on_c, 0, 81, 0
2, 15840, Note_on_c, 0, 81, 80
2, 15885, Note_on_c, 0, 81, 0
2, 15888, Note_on_c, 0, 79, 78
2, 15970, Note_on_c, 0, 79, 0
2, 15972, Note_on_c, 0, 78, 75
2, 15984, Note_on_c, 0, 78, 0
2, 15984, Note_on_c, 0, 79, 74
2, 15990, Note_on_c, 0, 79, 0
2, 15990, Note_on_c, 0, 78, 74
2, 15996, Note_on_c, 0, 78, 0
2, 15996, Note_on_c, 0, 76, 74
2, 16002, Note_on_c, 0, 76, 0
2, 16002, Note_on_c, 0, 78, 74
2, 16029, Note_on_c, 0, 78, 0
2, 16032, Note_on_c, 0, 76, 73
2, 16047, Note_on_c, 0, 76, 0
2, 16048, Note_on_c, 0, 82, 72
2, 16063, Note_on_c, 0, 82, 0
2, 16064, Note_on_c, 0, 83, 72
2, 16079, Note_on_c, 0, 83, 0
2, 16080, Note_on_c, 0, 78, 71
2, 16095, Note_on_c, 0, 78, 0
2, 16096, Note_on_c, 0, 79, 71
2, 16111, Note_on_c, 0, 79, 0
2, 16112, Note_on_c, 0, 76, 70
2, 16127, Note_on_c, 0, 76, 0
2, 16128, Note_on_c, 0, 74, 70
2, 16224, Note_on_c, 0, 74, 0
2, 16224, Note_on_c, 0, 73, 66
2, 16269, Note_on_c, 0, 73, 0
2, 16392, Note_on_c, 0, 59, 66
2, 16400, Note_on_c, 0, 59, 0
2, 16400, Note_on_c, 0, 63, 66
2, 16408, Note_on_c, 0, 63, 0
2, 16408, Note_on_c, 0, 66, 66
2, 16416, Note_on_c, 0, 66, 0
2, 16416, Note_on_c, 0, 71, 66
2, 16483, Note_on_c, 0, 71, 0
2, 16488, Note_on_c, 0, 71, 66
2, 16511, Note_on_c, 0, 71, 0
2, 16512, Note_on_c, 0, 71, 66
2, 16557, Note_on_c, 0, 71, 0
2, 16680, Note_on_c, 0, 75, 66
2, 16703, Note_on_c, 0, 75, 0
2, 16704, Note_on_c, 0, 76, 66
2, 16727, Note_on_c, 0, 76, 0
2, 16728, Note_on_c, 0, 79, 66
2, 16751, Note_on_c, 0, 79, 0
2, 16752, Note_on_c, 0, 78, 66
2, 16775, Note_on_c, 0, 78, 0
2, 16776, Note_on_c, 0, 81, 66
2, 16799, Note_on_c, 0, 81, 0
2, 16800, Note_on_c, 0, 79, 66
2, 16845, Note_on_c, 0, 79, 0
2, 16968, Note_on_c, 0, 73, 66
2, 16991, Note_on_c, 0, 73, 0
2, 16992, Note_on_c, 0, 74, 66
2, 17015, Note_on_c, 0, 74, 0
2, 17016, Note_on_c, 0, 78, 68
2, 17039, Note_on_c, 0, 78, 0
2, 17040, Note_on_c, 0, 76, 70
2, 17063, Note_on_c, 0, 76, 0
2, 17064, Note_on_c, 0, 79, 73
2, 17087, Note_on_c, 0, 79, 0
2, 17088, Note_on_c, 0, 78, 75
2, 17111, Note_on_c, 0, 78, 0
2, 17112, Note_on_c, 0, 81, 77
2, 17135, Note_on_c, 0, 81, 0
2, 17136, Note_on_c, 0, 74, 80
2, 17159, Note_on_c, 0, 74, 0
2, 17160, Note_on_c, 0, 86, 80
2, 17183, Note_on_c, 0, 86, 0
2, 17184, Note_on_c, 0, 82, 80
2, 17208, Note_on_c, 0, 82, 0
2, 17208, Note_on_c, 0, 83, 80
2, 17231, Note_on_c, 0, 83, 0
2, 17232, Note_on_c, 0, 71, 80
2, 17255, Note_on_c, 0, 71, 0
2, 17256, Note_on_c, 0, 76, 80
2, 17279, Note_on_c, 0, 76, 0
2, 17280, Note_on_c, 0, 74, 80
2, 17376, Note_on_c, 0, 74, 0
2, 17376, Note_on_c, 0, 73, 80
2, 17382, Note_on_c, 0, 73, 0
2, 17382, Note_on_c, 0, 74, 80
2, 17388, Note_on_c, 0, 74, 0
2, 17388, Note_on_c, 0, 73, 80
2, 17423, Note_on_c, 0, 73, 0
2, 17544, Note_on_c, 0, 69, 66
2, 17567, Note_on_c, 0, 69, 0
2, 17568, Note_on_c, 0, 74, 66
2, 17635, Note_on_c, 0, 74, 0
2, 17640, Note_on_c, 0, 74, 66
2, 17650, Note_on_c, 0, 74, 0
2, 17664, Note_on_c, 0, 74, 66
2, 17674, Note_on_c, 0, 74, 0
2, 17688, Note_on_c, 0, 76, 67
2, 17698, Note_on_c, 0, 76, 0
2, 17712, Note_on_c, 0, 78, 69
2, 17722, Note_on_c, 0, 78, 0
2, 17736, Note_on_c, 0, 79, 71
2, 17746, Note_on_c, 0, 79, 0
2, 17760, Note_on_c, 0, 81, 73
2, 17770, Note_on_c, 0, 81, 0
2, 17784, Note_on_c, 0, 83, 74
2, 17794, Note_on_c, 0, 83, 0
2, 17808, Note_on_c, 0, 85, 76
2, 17818, Note_on_c, 0, 85, 0
2, 17832, Note_on_c, 0, 86, 78
2, 17842, Note_on_c, 0, 86, 0
2, 17856, Note_on_c, 0, 76, 80
2, 17928, Note_on_c, 0, 76, 0
2, 17928, Note_on_c, 0, 73, 80
2, 17951, Note_on_c, 0, 73, 0
2, 17952, Note_on_c, 0, 74, 80
2, 17972, Note_on_c, 0, 74, 0
2, 18048, Note_on_c, 0, 62, 80
2, 18056, Note_on_c, 0, 62, 0
2, 18056, Note_on_c, 0, 64, 80
2, 18064, Note_on_c, 0, 64, 0
2, 18064, Note_on_c, 0, 66, 80
2, 18072, Note_on_c, 0, 66, 0
2, 18072, Note_on_c, 0, 67, 80
2, 18080, Note_on_c, 0, 67, 0
2, 18080, Note_on_c, 0, 69, 80
2, 18088, Note_on_c, 0, 69, 0
2, 18088, Note_on_c, 0, 71, 80
2, 18096, Note_on_c, 0, 71, 0
2, 18096, Note_on_c, 0, 73, 80
2, 18104, Note_on_c, 0, 73, 0
2, 18104, Note_on_c, 0, 74, 80
2, 18112, Note_on_c, 0, 74, 0
2, 18112, Note_on_c, 0, 76, 80
2, 18120, Note_on_c, 0, 76, 0
2, 18120, Note_on_c, 0, 78, 80
2, 18128, Note_on_c, 0, 78, 0
2, 18128, Note_on_c, 0, 79, 80
2, 18136, Note_on_c, 0, 79, 0
2, 18136, Note_on_c, 0, 81, 80
2, 18144, Note_on_c, 0, 81, 0
2, 18144, Note_on_c, 0, 81, 120
2, 18192, Note_on_c, 0, 81, 0
2, 18192, Note_on_c, 0, 79, 80
2, 18202, Note_on_c, 0, 79, 0
2, 18228, Note_on_c, 0, 78, 80
2, 18240, Note_on_c, 0, 78, 0
2, 18240, Note_on_c, 0, 78, 120
2, 18288, Note_on_c, 0, 78, 0
2, 18288, Note_on_c, 0, 76, 80
2, 18298, Note_on_c, 0, 76, 0
2, 18324, Note_on_c, 0, 74, 80
2, 18336, Note_on_c, 0, 74, 0
2, 18336, Note_on_c, 0, 74, 120
2, 18384, Note_on_c, 0, 74, 0
2, 18384, Note_on_c, 0, 73, 80
2, 18394, Note_on_c, 0, 73, 0
2, 18420, Note_on_c, 0, 74, 80
2, 18432, Note_on_c, 0, 74, 0
2, 18432, Note_on_c, 0, 79, 80
2, 18438, Note_on_c, 0, 79, 0
2, 18438, Note_on_c, 0, 78, 80
2, 18444, Note_on_c, 0, 78, 0
2, 18444, Note_on_c, 0, 76, 80
2, 18450, Note_on_c, 0, 76, 0
2, 18450, Note_on_c, 0, 78, 80
2, 18466, Note_on_c, 0, 78, 0
2, 18468, Note_on_c, 0, 79, 80
2, 18480, Note_on_c, 0, 79, 0
2, 18480, Note_on_c, 0, 80, 80
2, 18514, Note_on_c, 0, 80, 0
2, 18516, Note_on_c, 0, 81, 80
2, 18528, Note_on_c, 0, 81, 0
2, 18528, Note_on_c, 0, 76, 80
2, 18548, Note_on_c, 0, 76, 0
2, 18696, Note_on_c, 0, 74, 80
2, 18704, Note_on_c, 0, 74, 0
2, 18704, Note_on_c, 0, 78, 80
2, 18712, Note_on_c, 0, 78, 0
2, 18712, Note_on_c, 0, 81, 80
2, 18720, Note_on_c, 0, 81, 0
2, 18720, Note_on_c, 0, 86, 80
2, 18740, Note_on_c, 0, 86, 0
2, 18768, Note_on_c, 0, 88, 80
2, 18774, Note_on_c, 0, 88, 0
2, 18774, Note_on_c, 0, 86, 80
2, 18780, Note_on_c, 0, 86, 0
2, 18780, Note_on_c, 0, 85, 80
2, 18786, Note_on_c, 0, 85, 0
2, 18786, Note_on_c, 0, 86, 80
2, 18802, Note_on_c, 0, 86, 0
2, 18804, Note_on_c, 0, 88, 80
2, 18816, Note_on_c, 0, 88, 0
2, 18816, Note_on_c, 0, 85, 80
2, 18863, Note_on_c, 0, 85, 0
2, 18912, Note_on_c, 0, 69, 80
2, 18924, Note_on_c, 0, 69, 0
2, 18924, Note_on_c, 0, 73, 80
2, 18936, Note_on_c, 0, 73, 0
2, 18936, Note_on_c, 0, 71, 81
2, 18948, Note_on_c, 0, 71, 0
2, 18948, Note_on_c, 0, 74, 81
2, 18960, Note_on_c, 0, 74, 0
2, 18960, Note_on_c, 0, 73, 82
2, 18972, Note_on_c, 0, 73, 0
2, 18972, Note_on_c, 0, 76, 82
2, 18984, Note_on_c, 0, 76, 0
2, 18984, Note_on_c, 0, 74, 83
2, 18996, Note_on_c, 0, 74, 0
2, 18996, Note_on_c, 0, 78, 83
2, 19008, Note_on_c, 0, 78, 0
2, 19008, Note_on_c, 0, 76, 124
2, 19020, Note_on_c, 0, 76, 0
2, 19020, Note_on_c, 0, 79, 84
2, 19032, Note_on_c, 0, 79, 0
2, 19032, Note_on_c, 0, 78, 84
2, 19044, Note_on_c, 0, 78, 0
2, 19044, Note_on_c, 0, 81, 84
2, 19056, Note_on_c, 0, 81, 0
2, 19056, Note_on_c, 0, 79, 84
2, 19068, Note_on_c, 0, 79, 0
2, 19068, Note_on_c, 0, 83, 84
2, 19080, Note_on_c, 0, 83, 0
2, 19080, Note_on_c, 0, 81, 84
2, 19092, Note_on_c, 0, 81, 0
2, 19092, Note_on_c, 0, 79, 84
2, 19104, Note_on_c, 0, 79, 0
2, 19104, Note_on_c, 0, 78, 124
2, 19116, Note_on_c, 0, 78, 0
2, 19116, Note_on_c, 0, 81, 84
2, 19128, Note_on_c, 0, 81, 0
2, 19128, Note_on_c, 0, 79, 84
2, 19140, Note_on_c, 0, 79, 0
2, 19140, Note_on_c, 0, 83, 84
2, 19152, Note_on_c, 0, 83, 0
2, 19152, Note_on_c, 0, 81, 84
2, 19164, Note_on_c, 0, 81, 0
2, 19164, Note_on_c, 0, 84, 84
2, 19176, Note_on_c, 0, 84, 0
2, 19176, Note_on_c, 0, 83, 84
2, 19188, Note_on_c, 0, 83, 0
2, 19188, Note_on_c, 0, 81, 84
2, 19200, Note_on_c, 0, 81, 0
2, 19200, Note_on_c, 0, 79, 124
2, 19212, Note_on_c, 0, 79, 0
2, 19212, Note_on_c, 0, 83, 84
2, 19224, Note_on_c, 0, 83, 0
2, 19224, Note_on_c, 0, 81, 84
2, 19236, Note_on_c, 0, 81, 0
2, 19236, Note_on_c, 0, 79, 84
2, 19248, Note_on_c, 0, 79, 0
2, 19248, Note_on_c, 0, 78, 84
2, 19260, Note_on_c, 0, 78, 0
2, 19260, Note_on_c, 0, 76, 84
2, 19272, Note_on_c, 0, 76, 0
2, 19272, Note_on_c, 0, 75, 84
2, 19284, Note_on_c, 0, 75, 0
2, 19284, Note_on_c, 0, 76, 84
2, 19296, Note_on_c, 0, 76, 0
2, 19308, Note_on_c, 0, 69, 79
2, 19320, Note_on_c, 0, 69, 0
2, 19320, Note_on_c, 0, 71, 78
2, 19332, Note_on_c, 0, 71, 0
2, 19332, Note_on_c, 0, 73, 77
2, 19344, Note_on_c, 0, 73, 0
2, 19344, Note_on_c, 0, 74, 76
2, 19356, Note_on_c, 0, 74, 0
2, 19356, Note_on_c, 0, 75, 75
2, 19368, Note_on_c, 0, 75, 0
2, 19368, Note_on_c, 0, 76, 74
2, 19380, Note_on_c, 0, 76, 0
2, 19380, Note_on_c, 0, 77, 73
2, 19392, Note_on_c, 0, 77, 0
2, 19392, Note_on_c, 0, 78, 73
2, 19404, Note_on_c, 0, 78, 0
2, 19404, Note_on_c, 0, 79, 72
2, 19416, Note_on_c, 0, 79, 0
2, 19416, Note_on_c, 0, 80, 71
2, 19428, Note_on_c, 0, 80, 0
2, 19428, Note_on_c, 0, 81, 70
2, 19440, Note_on_c, 0, 81, 0
2, 19440, Note_on_c, 0, 79, 69
2, 19452, Note_on_c, 0, 79, 0
2, 19452, Note_on_c, 0, 78, 68
2, 19464, Note_on_c, 0, 78, 0
2, 19464, Note_on_c, 0, 76, 67
2, 19476, Note_on_c, 0, 76, 0
2, 19476, Note_on_c, 0, 74, 66
2, 19488, Note_on_c, 0, 74, 0
2, 19488, Note_on_c, 0, 73, 66
2, 19508, Note_on_c, 0, 73, 0
2, 19536, Note_on_c, 0, 76, 66
2, 19536, Note_on_c, 0, 67, 66
2, 19556, Note_on_c, 0, 76, 0
2, 19556, Note_on_c, 0, 67, 0
2, 19584, Note_on_c, 0, 76, 66
2, 19584, Note_on_c, 0, 67, 66
2, 19680, Note_on_c, 0, 76, 0
2, 19680, Note_on_c, 0, 67, 0
2, 19680, Note_on_c, 0, 74, 66
2, 19680, Note_on_c, 0, 66, 66
2, 19725, Note_on_c, 0, 74, 0
2, 19725, Note_on_c, 0, 66, 0
2, 19848, Note_on_c, 0, 59, 66
2, 19856, Note_on_c, 0, 59, 0
2, 19856, Note_on_c, 0, 63, 66
2, 19864, Note_on_c, 0, 63, 0
2, 19864, Note_on_c, 0, 66, 66
2, 19872, Note_on_c, 0, 66, 0
2, 19872, Note_on_c, 0, 71, 66
2, 19939, Note_on_c, 0, 71, 0
2, 19944, Note_on_c, 0, 71, 66
2, 19967, Note_on_c, 0, 71, 0
2, 19968, Note_on_c, 0, 71, 66
2, 20013, Note_on_c, 0, 71, 0
2, 20136, Note_on_c, 0, 75, 66
2, 20159, Note_on_c, 0, 75, 0
2, 20160, Note_on_c, 0, 76, 66
2, 20183, Note_on_c, 0, 76, 0
2, 20184, Note_on_c, 0, 79, 66
2, 20207, Note_on_c, 0, 79, 0
2, 20208, Note_on_c, 0, 78, 66
2, 20231, Note_on_c, 0, 78, 0
2, 20232, Note_on_c, 0, 81, 66
2, 20255, Note_on_c, 0, 81, 0
2, 20256, Note_on_c, 0, 79, 66
2, 20301, Note_on_c, 0, 79, 0
2, 20424, Note_on_c, 0, 73, 66
2, 20447, Note_on_c, 0, 73, 0
2, 20448, Note_on_c, 0, 74, 66
2, 20471, Note_on_c, 0, 74, 0
2, 20472, Note_on_c, 0, 78, 68
2, 20495, Note_on_c, 0, 78, 0
2, 20496, Note_on_c, 0, 76, 70
2, 20519, Note_on_c, 0, 76, 0
2, 20520, Note_on_c, 0, 79, 73
2, 20543, Note_on_c, 0, 79, 0
2, 20544, Note_on_c, 0, 78, 75
2, 20567, Note_on_c, 0, 78, 0
2, 20568, Note_on_c, 0, 81, 77
2, 20591, Note_on_c, 0, 81, 0
2, 20592, Note_on_c, 0, 74, 80
2, 20615, Note_on_c, 0, 74, 0
2, 20616, Note_on_c, 0, 86, 80
2, 20639, Note_on_c, 0, 86, 0
2, 20640, Note_on_c, 0, 82, 80
2, 20664, Note_on_c, 0, 82, 0
2, 20664, Note_on_c, 0, 83, 80
2, 20687, Note_on_c, 0, 83, 0
2, 20688, Note_on_c, 0, 71, 80
2, 20711, Note_on_c, 0, 71, 0
2, 20712, Note_on_c, 0, 76, 80
2, 20735, Note_on_c, 0, 76, 0
2, 20736, Note_on_c, 0, 74, 80
2, 20832, Note_on_c, 0, 74, 0
2, 20832, Note_on_c, 0, 73, 80
2, 20838, Note_on_c, 0, 73, 0
2, 20838, Note_on_c, 0, 74, 80
2, 20844, Note_on_c, 0, 74, 0
2, 20844, Note_on_c, 0, 73, 80
2, 20879, Note_on_c, 0, 73, 0
2, 21000, Note_on_c, 0, 69, 66
2, 21023, Note_on_c, 0, 69, 0
2, 21024, Note_on_c, 0, 74, 66
2, 21091, Note_on_c, 0, 74, 0
2, 21096, Note_on_c, 0, 74, 66
2, 21106, Note_on_c, 0, 74, 0
2, 21120, Note_on_c, 0, 74, 66
2, 21130, Note_on_c, 0, 74, 0
2, 21144, Note_on_c, 0, 76, 67
2, 21154, Note_on_c, 0, 76, 0
2, 21168, Note_on_c, 0, 78, 69
2, 21178, Note_on_c, 0, 78, 0
2, 21192, Note_on_c, 0, 79, 71
2, 21202, Note_on_c, 0, 79, 0
2, 21216, Note_on_c, 0, 81, 73
2, 21226, Note_on_c, 0, 81, 0
2, 21240, Note_on_c, 0, 83, 74
2, 21250, Note_on_c, 0, 83, 0
2, 21264, Note_on_c, 0, 85, 76
2, 21274, Note_on_c, 0, 85, 0
2, 21288, Note_on_c, 0, 86, 78
2, 21298, Note_on_c, 0, 86, 0
2, 21312, Note_on_c, 0, 76, 80
2, 21384, Note_on_c, 0, 76, 0
2, 21384, Note_on_c, 0, 73, 80
2, 21407, Note_on_c, 0, 73, 0
2, 21408, Note_on_c, 0, 74, 80
2, 21428, Note_on_c, 0, 74, 0
2, 21504, Note_on_c, 0, 62, 80
2, 21512, Note_on_c, 0, 62, 0
2, 21512, Note_on_c, 0, 64, 80
2, 21520, Note_on_c, 0, 64, 0
2, 21520, Note_on_c, 0, 66, 80
2, 21528, Note_on_c, 0, 66, 0
2, 21528, Note_on_c, 0, 67, 80
2, 21536, Note_on_c, 0, 67, 0
2, 21536, Note_on_c, 0, 69, 80
2, 21544, Note_on_c, 0, 69, 0
2, 21544, Note_on_c, 0, 71, 80
2, 21552, Note_on_c, 0, 71, 0
2, 21552, Note_on_c, 0, 73, 80
2, 21560, Note_on_c, 0, 73, 0
2, 21560, Note_on_c, 0, 74, 80
2, 21568, Note_on_c, 0, 74, 0
2, 21568, Note_on_c, 0, 76, 80
2, 21576, Note_on_c, 0, 76, 0
2, 21576, Note_on_c, 0, 78, 80
2, 21584, Note_on_c, 0, 78, 0
2, 21584, Note_on_c, 0, 79, 80
2, 21592, Note_on_c, 0, 79, 0
2, 21592, Note_on_c, 0, 81, 80
2, 21600, Note_on_c, 0, 81, 0
2, 21600, Note_on_c, 0, 81, 120
2, 21648, Note_on_c, 0, 81, 0
2, 21648, Note_on_c, 0, 79, 80
2, 21658, Note_on_c, 0, 79, 0
2, 21684, Note_on_c, 0, 78, 80
2, 21696, Note_on_c, 0, 78, 0
2, 21696, Note_on_c, 0, 78, 120
2, 21744, Note_on_c, 0, 78, 0
2, 21744, Note_on_c, 0, 76, 80
2, 21754, Note_on_c, 0, 76, 0
2, 21780, Note_on_c, 0, 74, 80
2, 21792, Note_on_c, 0, 74, 0
2, 21792, Note_on_c, 0, 74, 120
2, 21840, Note_on_c, 0, 74, 0
2, 21840, Note_on_c, 0, 73, 80
2, 21850, Note_on_c, 0, 73, 0
2, 21876, Note_on_c, 0, 74, 80
2, 21888, Note_on_c, 0, 74, 0
2, 21888, Note_on_c, 0, 79, 80
2, 21894, Note_on_c, 0, 79, 0
2, 21894, Note_on_c, 0, 78, 80
2, 21900, Note_on_c, 0, 78, 0
2, 21900, Note_on_c, 0, 76, 80
2, 21906, Note_on_c, 0, 76, 0
2, 21906, Note_on_c, 0, 78, 80
2, 21922, Note_on_c, 0, 78, 0
2, 21924, Note_on_c, 0, 79, 80
2, 21936, Note_on_c, 0, 79, 0
2, 21936, Note_on_c, 0, 80, 80
2, 21970, Note_on_c, 0, 80, 0
2, 21972, Note_on_c, 0, 81, 80
2, 21984, Note_on_c, 0, 81, 0
2, 21984, Note_on_c, 0, 76, 80
2, 22004, Note_on_c, 0, 76, 0
2, 22152, Note_on_c, 0, 74, 80
2, 22160, Note_on_c, 0, 74, 0
2, 22160, Note_on_c, 0, 78, 80
2, 22168, Note_on_c, 0, 78, 0
2, 22168, Note_on_c, 0, 81, 80
2, 22176, Note_on_c, 0, 81, 0
2, 22176, Note_on_c, 0, 86, 80
2, 22196, Note_on_c, 0, 86, 0
2, 22224, Note_on_c, 0, 88, 80
2, 22230, Note_on_c, 0, 88, 0
2, 22230, Note_on_c, 0, 86, 80
2, 22236, Note_on_c, 0, 86, 0
2, 22236, Note_on_c, 0, 85, 80
2, 22242, Note_on_c, 0, 85, 0
2, 22242, Note_on_c, 0, 86, 80
2, 22258, Note_on_c, 0, 86, 0
2, 22260, Note_on_c, 0, 88, 80
2, 22272, Note_on_c, 0, 88, 0
2, 22272, Note_on_c, 0, 85, 80
2, 22319, Note_on_c, 0, 85, 0
2, 22368, Note_on_c, 0, 69, 80
2, 22380, Note_on_c, 0, 69, 0
2, 22380, Note_on_c, 0, 73, 80
2, 22392, Note_on_c, 0, 73, 0
2, 22392, Note_on_c, 0, 71, 81
2, 22404, Note_on_c, 0, 71, 0
2, 22404, Note_on_c, 0, 74, 81
2, 22416, Note_on_c, 0, 74, 0
2, 22416, Note_on_c, 0, 73, 82
2, 22428, Note_on_c, 0, 73, 0
2, 22428, Note_on_c, 0, 76, 82
2, 22440, Note_on_c, 0, 76, 0
2, 22440, Note_on_c, 0, 74, 83
2, 22452, Note_on_c, 0, 74, 0
2, 22452, Note_on_c, 0, 78, 83
2, 22464, Note_on_c, 0, 78, 0
2, 22464, Note_on_c, 0, 76, 124
2, 22476, Note_on_c, 0, 76, 0
2, 22476, Note_on_c, 0, 79, 84
2, 22488, Note_on_c, 0, 79, 0
2, 22488, Note_on_c, 0, 78, 84
2, 22500, Note_on_c, 0, 78, 0
2, 22500, Note_on_c, 0, 81, 84
2, 22512, Note_on_c, 0, 81, 0
2, 22512, Note_on_c, 0, 79, 84
2, 22524, Note_on_c, 0, 79, 0
2, 22524, Note_on_c, 0, 83, 84
2, 22536, Note_on_c, 0, 83, 0
2, 22536, Note_on_c, 0, 81, 84
2, 22548, Note_on_c, 0, 81, 0
2, 22548, Note_on_c, 0, 79, 84
2, 22560, Note_on_c, 0, 79, 0
2, 22560, Note_on_c, 0, 78, 124
2, 22572, Note_on_c, 0, 78, 0
2, 22572, Note_on_c, 0, 81, 84
2, 22584, Note_on_c, 0, 81, 0
2, 22584, Note_on_c, 0, 79, 84
2, 22596, Note_on_c, 0, 79, 0
2, 22596, Note_on_c, 0, 83, 84
2, 22608, Note_on_c, 0, 83, 0
2, 22608, Note_on_c, 0, 81, 84
2, 22620, Note_on_c, 0, 81, 0
2, 22620, Note_on_c, 0, 84, 84
2, 22632, Note_on_c, 0, 84, 0
2, 22632, Note_on_c, 0, 83, 84
2, 22644, Note_on_c, 0, 83, 0
2, 22644, Note_on_c, 0, 81, 84
2, 22656, Note_on_c, 0, 81, 0
2, 22656, Note_on_c, 0, 79, 124
2, 22668, Note_on_c, 0, 79, 0
2, 22668, Note_on_c, 0, 83, 84
2, 22680, Note_on_c, 0, 83, 0
2, 22680, Note_on_c, 0, 81, 84
2, 22692, Note_on_c, 0, 81, 0
2, 22692, Note_on_c, 0, 79, 84
2, 22704, Note_on_c, 0, 79, 0
2, 22704, Note_on_c, 0, 78, 84
2, 22716, Note_on_c, 0, 78, 0
2, 22716, Note_on_c, 0, 76, 84
2, 22728, Note_on_c, 0, 76, 0
2, 22728, Note_on_c, 0, 75, 84
2, 22740, Note_on_c, 0, 75, 0
2, 22740, Note_on_c, 0, 76, 84
2, 22752, Note_on_c, 0, 76, 0
2, 22764, Note_on_c, 0, 69, 79
2, 22776, Note_on_c, 0, 69, 0
2, 22776, Note_on_c, 0, 71, 78
2, 22788, Note_on_c, 0, 71, 0
2, 22788, Note_on_c, 0, 73, 77
2, 22800, Note_on_c, 0, 73, 0
2, 22800, Note_on_c, 0, 74, 76
2, 22812, Note_on_c, 0, 74, 0
2, 22812, Note_on_c, 0, 75, 75
2, 22824, Note_on_c, 0, 75, 0
2, 22824, Note_on_c, 0, 76, 74
2, 22836, Note_on_c, 0, 76, 0
2, 22836, Note_on_c, 0, 77, 73
2, 22848, Note_on_c, 0, 77, 0
2, 22848, Note_on_c, 0, 78, 73
2, 22860, Note_on_c, 0, 78, 0
2, 22860, Note_on_c, 0, 79, 72
2, 22872, Note_on_c, 0, 79, 0
2, 22872, Note_on_c, 0, 80, 71
2, 22884, Note_on_c, 0, 80, 0
2, 22884, Note_on_c, 0, 81, 70
2, 22896, Note_on_c, 0, 81, 0
2, 22896, Note_on_c, 0, 79, 69
2, 22908, Note_on_c, 0, 79, 0
2, 22908, Note_on_c, 0, 78, 68
2, 22920, Note_on_c, 0, 78, 0
2, 22920, Note_on_c, 0, 76, 67
2, 22932, Note_on_c, 0, 76, 0
2, 22932, Note_on_c, 0, 74, 66
2, 22944, Note_on_c, 0, 74, 0
2, 22944, Note_on_c, 0, 73, 66
2, 22964, Note_on_c, 0, 73, 0
2, 22992, Note_on_c, 0, 76, 66
2, 22992, Note_on_c, 0, 67, 66
2, 23012, Note_on_c, 0, 76, 0
2, 23012, Note_on_c, 0, 67, 0
2, 23040, Note_on_c, 0, 76, 66
2, 23040, Note_on_c, 0, 67, 66
2, 23136, Note_on_c, 0, 76, 0
2, 23136, Note_on_c, 0, 67, 0
2, 23136, Note_on_c, 0, 74, 66
2, 23136, Note_on_c, 0, 66, 66
2, 23181, Note_on_c, 0, 74, 0
2, 23181, Note_on_c, 0, 66, 0
2, 23304, Note_on_c, 0, 69, 75
2, 23327, Note_on_c, 0, 69, 0
2, 23328, Note_on_c, 0, 74, 75
2, 23328, Note_on_c, 0, 65, 75
2, 23395, Note_on_c, 0, 74, 0
2, 23395, Note_on_c, 0, 65, 0
2, 23400, Note_on_c, 0, 74, 75
2, 23400, Note_on_c, 0, 65, 75
2, 23423, Note_on_c, 0, 74, 0
2, 23423, Note_on_c, 0, 65, 0
2, 23424, Note_on_c, 0, 74, 75
2, 23424, Note_on_c, 0, 65, 75
2, 23469, Note_on_c, 0, 74, 0
2, 23469, Note_on_c, 0, 65, 0
2, 23592, Note_on_c, 0, 74, 75
2, 23615, Note_on_c, 0, 74, 0
2, 23616, Note_on_c, 0, 76, 75
2, 23683, Note_on_c, 0, 76, 0
2, 23688, Note_on_c, 0, 76, 75
2, 23711, Note_on_c, 0, 76, 0
2, 23712, Note_on_c, 0, 76, 75
2, 23801, Note_on_c, 0, 76, 0
2, 23808, Note_on_c, 0, 76, 75
2, 23853, Note_on_c, 0, 76, 0
2, 23856, Note_on_c, 0, 79, 75
2, 23901, Note_on_c, 0, 79, 0
2, 23904, Note_on_c, 0, 77, 75
2, 23993, Note_on_c, 0, 77, 0
2, 24000, Note_on_c, 0, 82, 75
2, 24089, Note_on_c, 0, 82, 0
2, 24096, Note_on_c, 0, 82, 91
2, 24096, Note_on_c, 0, 79, 91
2, 24096, Note_on_c, 0, 76, 91
2, 24192, Note_on_c, 0, 82, 0
2, 24192, Note_on_c, 0, 79, 0
2, 24192, Note_on_c, 0, 76, 0
2, 24192, Note_on_c, 0, 81, 75
2, 24207, Note_on_c, 0, 81, 0
2, 24208, Note_on_c, 0, 84, 75
2, 24223, Note_on_c, 0, 84, 0
2, 24224, Note_on_c, 0, 82, 75
2, 24239, Note_on_c, 0, 82, 0
2, 24240, Note_on_c, 0, 81, 75
2, 24255, Note_on_c, 0, 81, 0
2, 24256, Note_on_c, 0, 79, 75
2, 24271, Note_on_c, 0, 79, 0
2, 24272, Note_on_c, 0, 77, 75
2, 24287, Note_on_c, 0, 77, 0
2, 24288, Note_on_c, 0, 76, 75
2, 24303, Note_on_c, 0, 76, 0
2, 24304, Note_on_c, 0, 82, 75
2, 24319, Note_on_c, 0, 82, 0
2, 24320, Note_on_c, 0, 81, 75
2, 24335, Note_on_c, 0, 81, 0
2, 24336, Note_on_c, 0, 79, 75
2, 24351, Note_on_c, 0, 79, 0
2, 24352, Note_on_c, 0, 77, 75
2, 24367, Note_on_c, 0, 77, 0
2, 24368, Note_on_c, 0, 76, 75
2, 24383, Note_on_c, 0, 76, 0
2, 24384, Note_on_c, 0, 77, 75
2, 24399, Note_on_c, 0, 77, 0
2, 24400, Note_on_c, 0, 79, 75
2, 24415, Note_on_c, 0, 79, 0
2, 24416, Note_on_c, 0, 77, 75
2, 24431, Note_on_c, 0, 77, 0
2, 24432, Note_on_c, 0, 75, 75
2, 24447, Note_on_c, 0, 75, 0
2, 24448, Note_on_c, 0, 74, 75
2, 24463, Note_on_c, 0, 74, 0
2, 24464, Note_on_c, 0, 73, 75
2, 24479, Note_on_c, 0, 73, 0
2, 24480, Note_on_c, 0, 74, 75
2, 24495, Note_on_c, 0, 74, 0
2, 24496, Note_on_c, 0, 85, 75
2, 24512, Note_on_c, 0, 85, 0
2, 24512, Note_on_c, 0, 86, 75
2, 24527, Note_on_c, 0, 86, 0
2, 24528, Note_on_c, 0, 81, 75
2, 24544, Note_on_c, 0, 81, 0
2, 24544, Note_on_c, 0, 82, 75
2, 24559, Note_on_c, 0, 82, 0
2, 24560, Note_on_c, 0, 79, 75
2, 24576, Note_on_c, 0, 79, 0
2, 24576, Note_on_c, 0, 77, 75
2, 24591, Note_on_c, 0, 77, 0
2, 24592, Note_on_c, 0, 84, 75
2, 24607, Note_on_c, 0, 84, 0
2, 24608, Note_on_c, 0, 84, 75
2, 24623, Note_on_c, 0, 84, 0
2, 24624, Note_on_c, 0, 84, 75
2, 24639, Note_on_c, 0, 84, 0
2, 24640, Note_on_c, 0, 81, 75
2, 24655, Note_on_c, 0, 81, 0
2, 24656, Note_on_c, 0, 77, 75
2, 24671, Note_on_c, 0, 77, 0
2, 24672, Note_on_c, 0, 81, 75
2, 24680, Note_on_c, 0, 81, 0
2, 24680, Note_on_c, 0, 79, 75
2, 24688, Note_on_c, 0, 79, 0
2, 24688, Note_on_c, 0, 81, 75
2, 24696, Note_on_c, 0, 81, 0
2, 24696, Note_on_c, 0, 79, 75
2, 24704, Note_on_c, 0, 79, 0
2, 24704, Note_on_c, 0, 81, 75
2, 24712, Note_on_c, 0, 81, 0
2, 24712, Note_on_c, 0, 79, 75
2, 24720, Note_on_c, 0, 79, 0
2, 24720, Note_on_c, 0, 81, 75
2, 24728, Note_on_c, 0, 81, 0
2, 24728, Note_on_c, 0, 79, 75
2, 24736, Note_on_c, 0, 79, 0
2, 24736, Note_on_c, 0, 81, 75
2, 24744, Note_on_c, 0, 81, 0
2, 24744, Note_on_c, 0, 79, 75
2, 24752, Note_on_c, 0, 79, 0
2, 24752, Note_on_c, 0, 77, 75
2, 24760, Note_on_c, 0, 77, 0
2, 24760, Note_on_c, 0, 79, 75
2, 24768, Note_on_c, 0, 79, 0
2, 24768, Note_on_c, 0, 89, 75
2, 24783, Note_on_c, 0, 89, 0
2, 24784, Note_on_c, 0, 81, 75
2, 24800, Note_on_c, 0, 81, 0
2, 24800, Note_on_c, 0, 82, 75
2, 24815, Note_on_c, 0, 82, 0
2, 24816, Note_on_c, 0, 88, 75
2, 24831, Note_on_c, 0, 88, 0
2, 24832, Note_on_c, 0, 80, 75
2, 24848, Note_on_c, 0, 80, 0
2, 24848, Note_on_c, 0, 81, 75
2, 24863, Note_on_c, 0, 81, 0
2, 24864, Note_on_c, 0, 86, 75
2, 24879, Note_on_c, 0, 86, 0
2, 24880, Note_on_c, 0, 78, 75
2, 24896, Note_on_c, 0, 78, 0
2, 24896, Note_on_c, 0, 79, 75
2, 24911, Note_on_c, 0, 79, 0
2, 24912, Note_on_c, 0, 84, 75
2, 24927, Note_on_c, 0, 84, 0
2, 24928, Note_on_c, 0, 76, 75
2, 24944, Note_on_c, 0, 76, 0
2, 24944, Note_on_c, 0, 77, 75
2, 24959, Note_on_c, 0, 77, 0
2, 24960, Note_on_c, 0, 82, 75
2, 24975, Note_on_c, 0, 82, 0
2, 24976, Note_on_c, 0, 79, 75
2, 24991, Note_on_c, 0, 79, 0
2, 24992, Note_on_c, 0, 76, 75
2, 25007, Note_on_c, 0, 76, 0
2, 25008, Note_on_c, 0, 72, 75
2, 25023, Note_on_c, 0, 72, 0
2, 25024, Note_on_c, 0, 74, 75
2, 25039, Note_on_c, 0, 74, 0
2, 25040, Note_on_c, 0, 70, 75
2, 25055, Note_on_c, 0, 70, 0
2, 25056, Note_on_c, 0, 69, 75
2, 25071, Note_on_c, 0, 69, 0
2, 25072, Note_on_c, 0, 77, 75
2, 25087, Note_on_c, 0, 77, 0
2, 25088, Note_on_c, 0, 73, 75
2, 25103, Note_on_c, 0, 73, 0
2, 25104, Note_on_c, 0, 74, 75
2, 25119, Note_on_c, 0, 74, 0
2, 25120, Note_on_c, 0, 70, 75
2, 25135, Note_on_c, 0, 70, 0
2, 25136, Note_on_c, 0, 67, 75
2, 25151, Note_on_c, 0, 67, 0
2, 25152, Note_on_c, 0, 65, 75
2, 25167, Note_on_c, 0, 65, 0
2, 25168, Note_on_c, 0, 72, 75
2, 25175, Note_on_c, 0, 72, 0
2, 25184, Note_on_c, 0, 72, 75
2, 25191, Note_on_c, 0, 72, 0
2, 25200, Note_on_c, 0, 72, 75
2, 25207, Note_on_c, 0, 72, 0
2, 25216, Note_on_c, 0, 69, 75
2, 25231, Note_on_c, 0, 69, 0
2, 25232, Note_on_c, 0, 65, 75
2, 25247, Note_on_c, 0, 65, 0
2, 25248, Note_on_c, 0, 69, 75
2, 25256, Note_on_c, 0, 69, 0
2, 25256, Note_on_c, 0, 67, 75
2, 25264, Note_on_c, 0, 67, 0
2, 25264, Note_on_c, 0, 69, 75
2, 25272, Note_on_c, 0, 69, 0
2, 25272, Note_on_c, 0, 67, 75
2, 25280, Note_on_c, 0, 67, 0
2, 25280, Note_on_c, 0, 69, 75
2, 25288, Note_on_c, 0, 69, 0
2, 25288, Note_on_c, 0, 67, 75
2, 25296, Note_on_c, 0, 67, 0
2, 25296, Note_on_c, 0, 69, 75
2, 25304, Note_on_c, 0, 69, 0
2, 25304, Note_on_c, 0, 67, 75
2, 25312, Note_on_c, 0, 67, 0
2, 25312, Note_on_c, 0, 69, 75
2, 25320, Note_on_c, 0, 69, 0
2, 25320, Note_on_c, 0, 67, 75
2, 25328, Note_on_c, 0, 67, 0
2, 25328, Note_on_c, 0, 65, 75
2, 25336, Note_on_c, 0, 65, 0
2, 25336, Note_on_c, 0, 67, 75
2, 25344, Note_on_c, 0, 67, 0
2, 25344, Note_on_c, 0, 65, 75
2, 25433, Note_on_c, 0, 65, 0
2, 25608, Note_on_c, 0, 69, 75
2, 25631, Note_on_c, 0, 69, 0
2, 25632, Note_on_c, 0, 74, 75
2, 25632, Note_on_c, 0, 65, 75
2, 25699, Note_on_c, 0, 74, 0
2, 25699, Note_on_c, 0, 65, 0
2, 25704, Note_on_c, 0, 74, 75
2, 25704, Note_on_c, 0, 65, 75
2, 25727, Note_on_c, 0, 74, 0
2, 25727, Note_on_c, 0, 65, 0
2, 25728, Note_on_c, 0, 74, 75
2, 25728, Note_on_c, 0, 65, 75
2, 25773, Note_on_c, 0, 74, 0
2, 25773, Note_on_c, 0, 65, 0
2, 25896, Note_on_c, 0, 74, 75
2, 25919, Note_on_c, 0, 74, 0
2, 25920, Note_on_c, 0, 76, 75
2, 25987, Note_on_c, 0, 76, 0
2, 25992, Note_on_c, 0, 76, 75
2, 26015, Note_on_c, 0, 76, 0
2, 26016, Note_on_c, 0, 76, 75
2, 26105, Note_on_c, 0, 76, 0
2, 26112, Note_on_c, 0, 76, 75
2, 26157, Note_on_c, 0, 76, 0
2, 26160, Note_on_c, 0, 79, 75
2, 26205, Note_on_c, 0, 79, 0
2, 26208, Note_on_c, 0, 77, 75
2, 26297, Note_on_c, 0, 77, 0
2, 26304, Note_on_c, 0, 82, 75
2, 26393, Note_on_c, 0, 82, 0
2, 26400, Note_on_c, 0, 82, 91
2, 26400, Note_on_c, 0, 79, 91
2, 26400, Note_on_c, 0, 76, 91
2, 26496, Note_on_c, 0, 82, 0
2, 26496, Note_on_c, 0, 79, 0
2, 26496, Note_on_c, 0, 76, 0
2, 26496, Note_on_c, 0, 81, 75
2, 26511, Note_on_c, 0, 81, 0
2, 26512, Note_on_c, 0, 84, 75
2, 26527, Note_on_c, 0, 84, 0
2, 26528, Note_on_c, 0, 82, 75
2, 26543, Note_on_c, 0, 82, 0
2, 26544, Note_on_c, 0, 81, 75
2, 26559, Note_on_c, 0, 81, 0
2, 26560, Note_on_c, 0, 79, 75
2, 26575, Note_on_c, 0, 79, 0
2, 26576, Note_on_c, 0, 77, 75
2, 26591, Note_on_c, 0, 77, 0
2, 26592, Note_on_c, 0, 76, 75
2, 26607, Note_on_c, 0, 76, 0
2, 26608, Note_on_c, 0, 82, 75
2, 26623, Note_on_c, 0, 82, 0
2, 26624, Note_on_c, 0, 81, 75
2, 26639, Note_on_c, 0, 81, 0
2, 26640, Note_on_c, 0, 79, 75
2, 26655, Note_on_c, 0, 79, 0
2, 26656, Note_on_c, 0, 77, 75
2, 26671, Note_on_c, 0, 77, 0
2, 26672, Note_on_c, 0, 76, 75
2, 26687, Note_on_c, 0, 76, 0
2, 26688, Note_on_c, 0, 77, 75
2, 26703, Note_on_c, 0, 77, 0
2, 26704, Note_on_c, 0, 79, 75
2, 26719, Note_on_c, 0, 79, 0
2, 26720, Note_on_c, 0, 77, 75
2, 26735, Note_on_c, 0, 77, 0
2, 26736, Note_on_c, 0, 75, 75
2, 26751, Note_on_c, 0, 75, 0
2, 26752, Note_on_c, 0, 74, 75
2, 26767, Note_on_c, 0, 74, 0
2, 26768, Note_on_c, 0, 73, 75
2, 26783, Note_on_c, 0, 73, 0
2, 26784, Note_on_c, 0, 74, 75
2, 26799, Note_on_c, 0, 74, 0
2, 26800, Note_on_c, 0, 85, 75
2, 26816, Note_on_c, 0, 85, 0
2, 26816, Note_on_c, 0, 86, 75
2, 26831, Note_on_c, 0, 86, 0
2, 26832, Note_on_c, 0, 81, 75
2, 26848, Note_on_c, 0, 81, 0
2, 26848, Note_on_c, 0, 82, 75
2, 26863, Note_on_c, 0, 82, 0
2, 26864, Note_on_c, 0, 79, 75
2, 26880, Note_on_c, 0, 79, 0
2, 26880, Note_on_c, 0, 77, 75
2, 26895, Note_on_c, 0, 77, 0
2, 26896, Note_on_c, 0, 84, 75
2, 26911, Note_on_c, 0, 84, 0
2, 26912, Note_on_c, 0, 84, 75
2, 26927, Note_on_c, 0, 84, 0
2, 26928, Note_on_c, 0, 84, 75
2, 26943, Note_on_c, 0, 84, 0
2, 26944, Note_on_c, 0, 81, 75
2, 26959, Note_on_c, 0, 81, 0
2, 26960, Note_on_c, 0, 77, 75
2, 26975, Note_on_c, 0, 77, 0
2, 26976, Note_on_c, 0, 81, 75
2, 26984, Note_on_c, 0, 81, 0
2, 26984, Note_on_c, 0, 79, 75
2, 26992, Note_on_c, 0, 79, 0
2, 26992, Note_on_c, 0, 81, 75
2, 27000, Note_on_c, 0, 81, 0
2, 27000, Note_on_c, 0, 79, 75
2, 27008, Note_on_c, 0, 79, 0
2, 27008, Note_on_c, 0, 81, 75
2, 27016, Note_on_c, 0, 81, 0
2, 27016, Note_on_c, 0, 79, 75
2, 27024, Note_on_c, 0, 79, 0
2, 27024, Note_on_c, 0, 81, 75
2, 27032, Note_on_c, 0, 81, 0
2, 27032, Note_on_c, 0, 79, 75
2, 27040, Note_on_c, 0, 79, 0
2, 27040, Note_on_c, 0, 81, 75
2, 27048, Note_on_c, 0, 81, 0
2, 27048, Note_on_c, 0, 79, 75
2, 27056, Note_on_c, 0, 79, 0
2, 27056, Note_on_c, 0, 77, 75
2, 27064, Note_on_c, 0, 77, 0
2, 27064, Note_on_c, 0, 79, 75
2, 27072, Note_on_c, 0, 79, 0
2, 27072, Note_on_c, 0, 89, 75
2, 27087, Note_on_c, 0, 89, 0
2, 27088, Note_on_c, 0, 81, 75
2, 27104, Note_on_c, 0, 81, 0
2, 27104, Note_on_c, 0, 82, 75
2, 27119, Note_on_c, 0, 82, 0
2, 27120, Note_on_c, 0, 88, 75
2, 27135, Note_on_c, 0, 88, 0
2, 27136, Note_on_c, 0, 80, 75
2, 27152, Note_on_c, 0, 80, 0
2, 27152, Note_on_c, 0, 81, 75
2, 27167, Note_on_c, 0, 81, 0
2, 27168, Note_on_c, 0, 86, 75
2, 27183, Note_on_c, 0, 86, 0
2, 27184, Note_on_c, 0, 78, 75
2, 27200, Note_on_c, 0, 78, 0
2, 27200, Note_on_c, 0, 79, 75
2, 27215, Note_on_c, 0, 79, 0
2, 27216, Note_on_c, 0, 84, 75
2, 27231, Note_on_c, 0, 84, 0
2, 27232, Note_on_c, 0, 76, 75
2, 27248, Note_on_c, 0, 76, 0
2, 27248, Note_on_c, 0, 77, 75
2, 27263, Note_on_c, 0, 77, 0
2, 27264, Note_on_c, 0, 82, 75
2, 27279, Note_on_c, 0, 82, 0
2, 27280, Note_on_c, 0, 79, 75
2, 27295, Note_on_c, 0, 79, 0
2, 27296, Note_on_c, 0, 76, 75
2, 27311, Note_on_c, 0, 76, 0
2, 27312, Note_on_c, 0, 72, 75
2, 27327, Note_on_c, 0, 72, 0
2, 27328, Note_on_c, 0, 74, 75
2, 27343, Note_on_c, 0, 74, 0
2, 27344, Note_on_c, 0, 70, 75
2, 27359, Note_on_c, 0, 70, 0
2, 27360, Note_on_c, 0, 69, 75
2, 27375, Note_on_c, 0, 69, 0
2, 27376, Note_on_c, 0, 77, 75
2, 27391, Note_on_c, 0, 77, 0
2, 27392, Note_on_c, 0, 73, 75
2, 27407, Note_on_c, 0, 73, 0
2, 27408, Note_on_c, 0, 74, 75
2, 27423, Note_on_c, 0, 74, 0
2, 27424, Note_on_c, 0, 70, 75
2, 27439, Note_on_c, 0, 70, 0
2, 27440, Note_on_c, 0, 67, 75
2, 27455, Note_on_c, 0, 67, 0
2, 27456, Note_on_c, 0, 65, 75
2, 27471, Note_on_c, 0, 65, 0
2, 27472, Note_on_c, 0, 72, 75
2, 27479, Note_on_c, 0, 72, 0
2, 27488, Note_on_c, 0, 72, 75
2, 27495, Note_on_c, 0, 72, 0
2, 27504, Note_on_c, 0, 72, 75
2, 27511, Note_on_c, 0, 72, 0
2, 27520, Note_on_c, 0, 69, 75
2, 27535, Note_on_c, 0, 69, 0
2, 27536, Note_on_c, 0, 65, 75
2, 27551, Note_on_c, 0, 65, 0
2, 27552, Note_on_c, 0, 69, 75
2, 27560, Note_on_c, 0, 69, 0
2, 27560, Note_on_c, 0, 67, 75
2, 27568, Note_on_c, 0, 67, 0
2, 27568, Note_on_c, 0, 69, 75
2, 27576, Note_on_c, 0, 69, 0
2, 27576, Note_on_c, 0, 67, 75
2, 27584, Note_on_c, 0, 67, 0
2, 27584, Note_on_c, 0, 69, 75
2, 27592, Note_on_c, 0, 69, 0
2, 27592, Note_on_c, 0, 67, 75
2, 27600, Note_on_c, 0, 67, 0
2, 27600, Note_on_c, 0, 69, 75
2, 27608, Note_on_c, 0, 69, 0
2, 27608, Note_on_c, 0, 67, 75
2, 27616, Note_on_c, 0, 67, 0
2, 27616, Note_on_c, 0, 69, 75
2, 27624, Note_on_c, 0, 69, 0
2, 27624, Note_on_c, 0, 67, 75
2, 27632, Note_on_c, 0, 67, 0
2, 27632, Note_on_c, 0, 65, 75
2, 27640, Note_on_c, 0, 65, 0
2, 27640, Note_on_c, 0, 67, 75
2, 27648, Note_on_c, 0, 67, 0
2, 27648, Note_on_c, 0, 65, 75
2, 27737, Note_on_c, 0, 65, 0
2, 28008, Note_on_c, 0, 65, 75
2, 28031, Note_on_c, 0, 65, 0
2, 28032, Note_on_c, 0, 81, 75
2, 28032, Note_on_c, 0, 72, 75
2, 28099, Note_on_c, 0, 81, 0
2, 28099, Note_on_c, 0, 72, 0
2, 28104, Note_on_c, 0, 81, 75
2, 28104, Note_on_c, 0, 72, 75
2, 28127, Note_on_c, 0, 81, 0
2, 28127, Note_on_c, 0, 72, 0
2, 28128, Note_on_c, 0, 81, 75
2, 28128, Note_on_c, 0, 72, 75
2, 28217, Note_on_c, 0, 81, 0
2, 28217, Note_on_c, 0, 72, 0
2, 28296, Note_on_c, 0, 72, 75
2, 28319, Note_on_c, 0, 72, 0
2, 28320, Note_on_c, 0, 87, 75
2, 28320, Note_on_c, 0, 84, 75
2, 28387, Note_on_c, 0, 87, 0
2, 28387, Note_on_c, 0, 84, 0
2, 28392, Note_on_c, 0, 87, 75
2, 28392, Note_on_c, 0, 84, 75
2, 28415, Note_on_c, 0, 87, 0
2, 28415, Note_on_c, 0, 84, 0
2, 28416, Note_on_c, 0, 87, 75
2, 28416, Note_on_c, 0, 84, 75
2, 28483, Note_on_c, 0, 87, 0
2, 28483, Note_on_c, 0, 84, 0
2, 28488, Note_on_c, 0, 86, 66
2, 28500, Note_on_c, 0, 86, 0
2, 28500, Note_on_c, 0, 84, 66
2, 28512, Note_on_c, 0, 84, 0
2, 28512, Note_on_c, 0, 82, 66
2, 28527, Note_on_c, 0, 82, 0
2, 28528, Note_on_c, 0, 84, 66
2, 28543, Note_on_c, 0, 84, 0
2, 28544, Note_on_c, 0, 82, 66
2, 28559, Note_on_c, 0, 82, 0
2, 28560, Note_on_c, 0, 81, 66
2, 28575, Note_on_c, 0, 81, 0
2, 28576, Note_on_c, 0, 82, 66
2, 28591, Note_on_c, 0, 82, 0
2, 28592, Note_on_c, 0, 81, 66
2, 28607, Note_on_c, 0, 81, 0
2, 28608, Note_on_c, 0, 79, 66
2, 28623, Note_on_c, 0, 79, 0
2, 28624, Note_on_c, 0, 81, 66
2, 28639, Note_on_c, 0, 81, 0
2, 28640, Note_on_c, 0, 79, 66
2, 28655, Note_on_c, 0, 79, 0
2, 28656, Note_on_c, 0, 77, 66
2, 28671, Note_on_c, 0, 77, 0
2, 28672, Note_on_c, 0, 79, 66
2, 28687, Note_on_c, 0, 79, 0
2, 28688, Note_on_c, 0, 77, 66
2, 28703, Note_on_c, 0, 77, 0
2, 28704, Note_on_c, 0, 76, 66
2, 28719, Note_on_c, 0, 76, 0
2, 28720, Note_on_c, 0, 77, 66
2, 28735, Note_on_c, 0, 77, 0
2, 28736, Note_on_c, 0, 76, 66
2, 28751, Note_on_c, 0, 76, 0
2, 28752, Note_on_c, 0, 77, 66
2, 28767, Note_on_c, 0, 77, 0
2, 28768, Note_on_c, 0, 76, 66
2, 28783, Note_on_c, 0, 76, 0
2, 28784, Note_on_c, 0, 74, 66
2, 28799, Note_on_c, 0, 74, 0
2, 28800, Note_on_c, 0, 74, 66
2, 28896, Note_on_c, 0, 74, 0
2, 28896, Note_on_c, 0, 73, 66
2, 28911, Note_on_c, 0, 73, 0
2, 28912, Note_on_c, 0, 74, 66
2, 28927, Note_on_c, 0, 74, 0
2, 28928, Note_on_c, 0, 76, 66
2, 28943, Note_on_c, 0, 76, 0
2, 28944, Note_on_c, 0, 74, 66
2, 28959, Note_on_c, 0, 74, 0
2, 28960, Note_on_c, 0, 73, 66
2, 28975, Note_on_c, 0, 73, 0
2, 28976, Note_on_c, 0, 70, 66
2, 28991, Note_on_c, 0, 70, 0
2, 28992, Note_on_c, 0, 69, 66
2, 29007, Note_on_c, 0, 69, 0
2, 29008, Note_on_c, 0, 70, 67
2, 29023, Note_on_c, 0, 70, 0
2, 29024, Note_on_c, 0, 69, 69
2, 29039, Note_on_c, 0, 69, 0
2, 29040, Note_on_c, 0, 67, 71
2, 29055, Note_on_c, 0, 67, 0
2, 29056, Note_on_c, 0, 65, 73
2, 29071, Note_on_c, 0, 65, 0
2, 29072, Note_on_c, 0, 64, 74
2, 29087, Note_on_c, 0, 64, 0
2, 29104, Note_on_c, 0, 81, 80
2, 29104, Note_on_c, 0, 77, 80
2, 29119, Note_on_c, 0, 81, 0
2, 29119, Note_on_c, 0, 77, 0
2, 29120, Note_on_c, 0, 81, 80
2, 29120, Note_on_c, 0, 77, 80
2, 29135, Note_on_c, 0, 81, 0
2, 29135, Note_on_c, 0, 77, 0
2, 29136, Note_on_c, 0, 81, 80
2, 29136, Note_on_c, 0, 77, 80
2, 29151, Note_on_c, 0, 81, 0
2, 29151, Note_on_c, 0, 77, 0
2, 29152, Note_on_c, 0, 79, 80
2, 29152, Note_on_c, 0, 76, 80
2, 29167, Note_on_c, 0, 79, 0
2, 29167, Note_on_c, 0, 76, 0
2, 29168, Note_on_c, 0, 77, 80
2, 29168, Note_on_c, 0, 74, 80
2, 29183, Note_on_c, 0, 77, 0
2, 29183, Note_on_c, 0, 74, 0
2, 29200, Note_on_c, 0, 85, 80
2, 29200, Note_on_c, 0, 82, 80
2, 29215, Note_on_c, 0, 85, 0
2, 29215, Note_on_c, 0, 82, 0
2, 29216, Note_on_c, 0, 85, 80
2, 29216, Note_on_c, 0, 82, 80
2, 29231, Note_on_c, 0, 85, 0
2, 29231, Note_on_c, 0, 82, 0
2, 29232, Note_on_c, 0, 85, 80
2, 29232, Note_on_c, 0, 82, 80
2, 29247, Note_on_c, 0, 85, 0
2, 29247, Note_on_c, 0, 82, 0
2, 29248, Note_on_c, 0, 86, 80
2, 29248, Note_on_c, 0, 81, 80
2, 29263, Note_on_c, 0, 86, 0
2, 29263, Note_on_c, 0, 81, 0
2, 29264, Note_on_c, 0, 88, 80
2, 29264, Note_on_c, 0, 79, 80
2, 29279, Note_on_c, 0, 88, 0
2, 29279, Note_on_c, 0, 79, 0
2, 29296, Note_on_c, 0, 86, 80
2, 29296, Note_on_c, 0, 74, 80
2, 29311, Note_on_c, 0, 86, 0
2, 29311, Note_on_c, 0, 74, 0
2, 29312, Note_on_c, 0, 86, 80
2, 29312, Note_on_c, 0, 74, 80
2, 29327, Note_on_c, 0, 86, 0
2, 29327, Note_on_c, 0, 74, 0
2, 29344, Note_on_c, 0, 84, 80
2, 29344, Note_on_c, 0, 72, 80
2, 29359, Note_on_c, 0, 84, 0
2, 29359, Note_on_c, 0, 72, 0
2, 29360, Note_on_c, 0, 84, 80
2, 29360, Note_on_c, 0, 72, 80
2, 29375, Note_on_c, 0, 84, 0
2, 29375, Note_on_c, 0, 72, 0
2, 29392, Note_on_c, 0, 82, 80
2, 29392, Note_on_c, 0, 70, 80
2, 29407, Note_on_c, 0, 82, 0
2, 29407, Note_on_c, 0, 70, 0
2, 29408, Note_on_c, 0, 82, 80
2, 29408, Note_on_c, 0, 70, 80
2, 29423, Note_on_c, 0, 82, 0
2, 29423, Note_on_c, 0, 70, 0
2, 29440, Note_on_c, 0, 79, 80
2, 29440, Note_on_c, 0, 67, 80
2, 29455, Note_on_c, 0, 79, 0
2, 29455, Note_on_c, 0, 67, 0
2, 29456, Note_on_c, 0, 79, 80
2, 29456, Note_on_c, 0, 67, 80
2, 29471, Note_on_c, 0, 79, 0
2, 29471, Note_on_c, 0, 67, 0
2, 29520, Note_on_c, 0, 69, 80
2, 29527, Note_on_c, 0, 69, 0
2, 29536, Note_on_c, 0, 74, 80
2, 29543, Note_on_c, 0, 74, 0
2, 29552, Note_on_c, 0, 77, 80
2, 29559, Note_on_c, 0, 77, 0
2, 29568, Note_on_c, 0, 81, 80
2, 29615, Note_on_c, 0, 81, 0
2, 29664, Control_c, 0, 64, 127
2, 29664, Note_on_c, 0, 57, 66
2, 29679, Note_on_c, 0, 57, 0
2, 29680, Note_on_c, 0, 61, 66
2, 29695, Note_on_c, 0, 61, 0
2, 29696, Note_on_c, 0, 64, 66
2, 29711, Note_on_c, 0, 64, 0
2, 29712, Note_on_c, 0, 67, 66
2, 29727, Note_on_c, 0, 67, 0
2, 29728, Note_on_c, 0, 73, 66
2, 29743, Note_on_c, 0, 73, 0
2, 29744, Note_on_c, 0, 76, 66
2, 29759, Note_on_c, 0, 76, 0
2, 29760, Note_on_c, 0, 79, 66
2, 29849, Note_on_c, 0, 79, 0
2, 29856, Control_c, 0, 64, 0
2, 29968, Note_on_c, 0, 88, 80
2, 29984, Note_on_c, 0, 88, 0
2, 29984, Note_on_c, 0, 89, 80
2, 29999, Note_on_c, 0, 89, 0
2, 30000, Note_on_c, 0, 85, 80
2, 30016, Note_on_c, 0, 85, 0
2, 30016, Note_on_c, 0, 86, 80
2, 30031, Note_on_c, 0, 86, 0
2, 30032, Note_on_c, 0, 81, 80
2, 30048, Note_on_c, 0, 81, 0
2, 30048, Note_on_c, 0, 82, 80
2, 30063, Note_on_c, 0, 82, 0
2, 30064, Note_on_c, 0, 80, 80
2, 30080, Note_on_c, 0, 80, 0
2, 30080, Note_on_c, 0, 81, 80
2, 30095, Note_on_c, 0, 81, 0
2, 30096, Note_on_c, 0, 76, 80
2, 30112, Note_on_c, 0, 76, 0
2, 30112, Note_on_c, 0, 77, 80
2, 30127, Note_on_c, 0, 77, 0
2, 30128, Note_on_c, 0, 73, 80
2, 30144, Note_on_c, 0, 73, 0
2, 30144, Note_on_c, 0, 74, 80
2, 30159, Note_on_c, 0, 74, 0
2, 30160, Note_on_c, 0, 77, 80
2, 30175, Note_on_c, 0, 77, 0
2, 30176, Note_on_c, 0, 69, 80
2, 30192, Note_on_c, 0, 69, 0
2, 30192, Note_on_c, 0, 70, 80
2, 30207, Note_on_c, 0, 70, 0
2, 30208, Note_on_c, 0, 74, 80
2, 30223, Note_on_c, 0, 74, 0
2, 30224, Note_on_c, 0, 68, 80
2, 30240, Note_on_c, 0, 68, 0
2, 30240, Note_on_c, 0, 69, 80
2, 30255, Note_on_c, 0, 69, 0
2, 30256, Note_on_c, 0, 70, 79
2, 30271, Note_on_c, 0, 70, 0
2, 30272, Note_on_c, 0, 71, 78
2, 30287, Note_on_c, 0, 71, 0
2, 30288, Note_on_c, 0, 72, 77
2, 30303, Note_on_c, 0, 72, 0
2, 30304, Note_on_c, 0, 73, 77
2, 30319, Note_on_c, 0, 73, 0
2, 30320, Note_on_c, 0, 74, 76
2, 30335, Note_on_c, 0, 74, 0
2, 30336, Note_on_c, 0, 75, 75
2, 30351, Note_on_c, 0, 75, 0
2, 30352, Note_on_c, 0, 76, 75
2, 30367, Note_on_c, 0, 76, 0
2, 30368, Note_on_c, 0, 77, 74
2, 30383, Note_on_c, 0, 77, 0
2, 30384, Note_on_c, 0, 78, 73
2, 30399, Note_on_c, 0, 78, 0
2, 30400, Note_on_c, 0, 79, 73
2, 30415, Note_on_c, 0, 79, 0
2, 30416, Note_on_c, 0, 80, 72
2, 30431, Note_on_c, 0, 80, 0
2, 30432, Note_on_c, 0, 81, 71
2, 30477, Note_on_c, 0, 81, 0
2, 30480, Note_on_c, 0, 73, 66
2, 30480, Note_on_c, 0, 67, 66
2, 30525, Note_on_c, 0, 73, 0
2, 30525, Note_on_c, 0, 67, 0
2, 30528, Note_on_c, 0, 73, 66
2, 30528, Note_on_c, 0, 67, 66
2, 30624, Note_on_c, 0, 73, 0
2, 30624, Note_on_c, 0, 67, 0
2, 30624, Note_on_c, 0, 74, 66
2, 30624, Note_on_c, 0, 65, 66
2, 30671, Note_on_c, 0, 74, 0
2, 30671, Note_on_c, 0, 65, 0
2, 30888, Note_on_c, 0, 65, 75
2, 30911, Note_on_c, 0, 65, 0
2, 30912, Note_on_c, 0, 81, 75
2, 30912, Note_on_c, 0, 72, 75
2, 30979, Note_on_c, 0, 81, 0
2, 30979, Note_on_c, 0, 72, 0
2, 30984, Note_on_c, 0, 81, 75
2, 30984, Note_on_c, 0, 72, 75
2, 31007, Note_on_c, 0, 81, 0
2, 31007, Note_on_c, 0, 72, 0
2, 31008, Note_on_c, 0, 81, 75
2, 31008, Note_on_c, 0, 72, 75
2, 31097, Note_on_c, 0, 81, 0
2, 31097, Note_on_c, 0, 72, 0
2, 31176, Note_on_c, 0, 72, 75
2, 31199, Note_on_c, 0, 72, 0
2, 31200, Note_on_c, 0, 87, 75
2, 31200, Note_on_c, 0, 84, 75
2, 31267, Note_on_c, 0, 87, 0
2, 31267, Note_on_c, 0, 84, 0
2, 31272, Note_on_c, 0, 87, 75
2, 31272, Note_on_c, 0, 84, 75
2, 31295, Note_on_c, 0, 87, 0
2, 31295, Note_on_c, 0, 84, 0
2, 31296, Note_on_c, 0, 87, 75
2, 31296, Note_on_c, 0, 84, 75
2, 31363, Note_on_c, 0, 87, 0
2, 31363, Note_on_c, 0, 84, 0
2, 31368, Note_on_c, 0, 86, 66
2, 31380, Note_on_c, 0, 86, 0
2, 31380, Note_on_c, 0, 84, 66
2, 31392, Note_on_c, 0, 84, 0
2, 31392, Note_on_c, 0, 82, 66
2, 31407, Note_on_c, 0, 82, 0
2, 31408, Note_on_c, 0, 84, 66
2, 31423, Note_on_c, 0, 84, 0
2, 31424, Note_on_c, 0, 82, 66
2, 31439, Note_on_c, 0, 82, 0
2, 31440, Note_on_c, 0, 81, 66
2, 31455, Note_on_c, 0, 81, 0
2, 31456, Note_on_c, 0, 82, 66
2, 31471, Note_on_c, 0, 82, 0
2, 31472, Note_on_c, 0, 81, 66
2, 31487, Note_on_c, 0, 81, 0
2, 31488, Note_on_c, 0, 79, 66
2, 31503, Note_on_c, 0, 79, 0
2, 31504, Note_on_c, 0, 81, 66
2, 31519, Note_on_c, 0, 81, 0
2, 31520, Note_on_c, 0, 79, 66
2, 31535, Note_on_c, 0, 79, 0
2, 31536, Note_on_c, 0, 77, 66
2, 31551, Note_on_c, 0, 77, 0
2, 31552, Note_on_c, 0, 79, 66
2, 31567, Note_on_c, 0, 79, 0
2, 31568, Note_on_c, 0, 77, 66
2, 31583, Note_on_c, 0, 77, 0
2, 31584, Note_on_c, 0, 76, 66
2, 31599, Note_on_c, 0, 76, 0
2, 31600, Note_on_c, 0, 77, 66
2, 31615, Note_on_c, 0, 77, 0
2, 31616, Note_on_c, 0, 76, 66
2, 31631, Note_on_c, 0, 76, 0
2, 31632, Note_on_c, 0, 77, 66
2, 31647, Note_on_c, 0, 77, 0
2, 31648, Note_on_c, 0, 76, 66
2, 31663, Note_on_c, 0, 76, 0
2, 31664, Note_on_c, 0, 74, 66
2, 31679, Note_on_c, 0, 74, 0
2, 31680, Note_on_c, 0, 74, 66
2, 31776, Note_on_c, 0, 74, 0
2, 31776, Note_on_c, 0, 73, 66
2, 31791, Note_on_c, 0, 73, 0
2, 31792, Note_on_c, 0, 74, 66
2, 31807, Note_on_c, 0, 74, 0
2, 31808, Note_on_c, 0, 76, 66
2, 31823, Note_on_c, 0, 76, 0
2, 31824, Note_on_c, 0, 74, 66
2, 31839, Note_on_c, 0, 74, 0
2, 31840, Note_on_c, 0, 73, 66
2, 31855, Note_on_c, 0, 73, 0
2, 31856, Note_on_c, 0, 70, 66
2, 31871, Note_on_c, 0, 70, 0
2, 31872, Note_on_c, 0, 69, 66
2, 31887, Note_on_c, 0, 69, 0
2, 31888, Note_on_c, 0, 70, 67
2, 31903, Note_on_c, 0, 70, 0
2, 31904, Note_on_c, 0, 69, 69
2, 31919, Note_on_c, 0, 69, 0
2, 31920, Note_on_c, 0, 67, 71
2, 31935, Note_on_c, 0, 67, 0
2, 31936, Note_on_c, 0, 65, 73
2, 31951, Note_on_c, 0, 65, 0
2, 31952, Note_on_c, 0, 64, 74
2, 31967, Note_on_c, 0, 64, 0
2, 31984, Note_on_c, 0, 81, 80
2, 31984, Note_on_c, 0, 77, 80
2, 31999, Note_on_c, 0, 81, 0
2, 31999, Note_on_c, 0, 77, 0
2, 32000, Note_on_c, 0, 81, 80
2, 32000, Note_on_c, 0, 77, 80
2, 32015, Note_on_c, 0, 81, 0
2, 32015, Note_on_c, 0, 77, 0
2, 32016, Note_on_c, 0, 81, 80
2, 32016, Note_on_c, 0, 77, 80
2, 32031, Note_on_c, 0, 81, 0
2, 32031, Note_on_c, 0, 77, 0
2, 32032, Note_on_c, 0, 79, 80
2, 32032, Note_on_c, 0, 76, 80
2, 32047, Note_on_c, 0, 79, 0
2, 32047, Note_on_c, 0, 76, 0
2, 32048, Note_on_c, 0, 77, 80
2, 32048, Note_on_c, 0, 74, 80
2, 32063, Note_on_c, 0, 77, 0
2, 32063, Note_on_c, 0, 74, 0
2, 32080, Note_on_c, 0, 85, 80
2, 32080, Note_on_c, 0, 82, 80
2, 32095, Note_on_c, 0, 85, 0
2, 32095, Note_on_c, 0, 82, 0
2, 32096, Note_on_c, 0, 85, 80
2, 32096, Note_on_c, 0, 82, 80
2, 32111, Note_on_c, 0, 85, 0
2, 32111, Note_on_c, 0, 82, 0
2, 32112, Note_on_c, 0, 85, 80
2, 32112, Note_on_c, 0, 82, 80
2, 32127, Note_on_c, 0, 85, 0
2, 32127, Note_on_c, 0, 82, 0
2, 32128, Note_on_c, 0, 86, 80
2, 32128, Note_on_c, 0, 81, 80
2, 32143, Note_on_c, 0, 86, 0
2, 32143, Note_on_c, 0, 81, 0
2, 32144, Note_on_c, 0, 88, 80
2, 32144, Note_on_c, 0, 79, 80
2, 32159, Note_on_c, 0, 88, 0
2, 32159, Note_on_c, 0, 79, 0
2, 32176, Note_on_c, 0, 86, 80
2, 32176, Note_on_c, 0, 74, 80
2, 32191, Note_on_c, 0, 86, 0
2, 32191, Note_on_c, 0, 74, 0
2, 32192, Note_on_c, 0, 86, 80
2, 32192, Note_on_c, 0, 74, 80
2, 32207, Note_on_c, 0, 86, 0
2, 32207, Note_on_c, 0, 74, 0
2, 32224, Note_on_c, 0, 84, 80
2, 32224, Note_on_c, 0, 72, 80
2, 32239, Note_on_c, 0, 84, 0
2, 32239, Note_on_c, 0, 72, 0
2, 32240, Note_on_c, 0, 84, 80
2, 32240, Note_on_c, 0, 72, 80
2, 32255, Note_on_c, 0, 84, 0
2, 32255, Note_on_c, 0, 72, 0
2, 32272, Note_on_c, 0, 82, 80
2, 32272, Note_on_c, 0, 70, 80
2, 32287, Note_on_c, 0, 82, 0
2, 32287, Note_on_c, 0, 70, 0
2, 32288, Note_on_c, 0, 82, 80
2, 32288, Note_on_c, 0, 70, 80
2, 32303, Note_on_c, 0, 82, 0
2, 32303, Note_on_c, 0, 70, 0
2, 32320, Note_on_c, 0, 79, 80
2, 32320, Note_on_c, 0, 67, 80
2, 32335, Note_on_c, 0, 79, 0
2, 32335, Note_on_c, 0, 67, 0
2, 32336, Note_on_c, 0, 79, 80
2, 32336, Note_on_c, 0, 67, 80
2, 32351, Note_on_c, 0, 79, 0
2, 32351, Note_on_c, 0, 67, 0
2, 32400, Note_on_c, 0, 69, 80
2, 32407, Note_on_c, 0, 69, 0
2, 32416, Note_on_c, 0, 74, 80
2, 32423, Note_on_c, 0, 74, 0
2, 32432, Note_on_c, 0, 77, 80
2, 32439, Note_on_c, 0, 77, 0
2, 32448, Note_on_c, 0, 81, 80
2, 32495, Note_on_c, 0, 81, 0
2, 32544, Control_c, 0, 64, 127
2, 32544, Note_on_c, 0, 57, 66
2, 32559, Note_on_c, 0, 57, 0
2, 32560, Note_on_c, 0, 61, 66
2, 32575, Note_on_c, 0, 61, 0
2, 32576, Note_on_c, 0, 64, 66
2, 32591, Note_on_c, 0, 64, 0
2, 32592, Note_on_c, 0, 67, 66
2, 32607, Note_on_c, 0, 67, 0
2, 32608, Note_on_c, 0, 73, 66
2, 32623, Note_on_c, 0, 73, 0
2, 32624, Note_on_c, 0, 76, 66
2, 32639, Note_on_c, 0, 76, 0
2, 32640, Note_on_c, 0, 79, 66
2, 32729, Note_on_c, 0, 79, 0
2, 32736, Control_c, 0, 64, 0
2, 32848, Note_on_c, 0, 88, 80
2, 32864, Note_on_c, 0, 88, 0
2, 32864, Note_on_c, 0, 89, 80
2, 32879, Note_on_c, 0, 89, 0
2, 32880, Note_on_c, 0, 85, 80
2, 32896, Note_on_c, 0, 85, 0
2, 32896, Note_on_c, 0, 86, 80
2, 32911, Note_on_c, 0, 86, 0
2, 32912, Note_on_c, 0, 81, 80
2, 32928, Note_on_c, 0, 81, 0
2, 32928, Note_on_c, 0, 82, 80
2, 32943, Note_on_c, 0, 82, 0
2, 32944, Note_on_c, 0, 80, 80
2, 32960, Note_on_c, 0, 80, 0
2, 32960, Note_on_c, 0, 81, 80
2, 32975, Note_on_c, 0, 81, 0
2, 32976, Note_on_c, 0, 76, 80
2, 32992, Note_on_c, 0, 76, 0
2, 32992, Note_on_c, 0, 77, 80
2, 33007, Note_on_c, 0, 77, 0
2, 33008, Note_on_c, 0, 73, 80
2, 33024, Note_on_c, 0, 73, 0
2, 33024, Note_on_c, 0, 74, 80
2, 33039, Note_on_c, 0, 74, 0
2, 33040, Note_on_c, 0, 77, 80
2, 33055, Note_on_c, 0, 77, 0
2, 33056, Note_on_c, 0, 69, 80
2, 33072, Note_on_c, 0, 69, 0
2, 33072, Note_on_c, 0, 70, 80
2, 33087, Note_on_c, 0, 70, 0
2, 33088, Note_on_c, 0, 74, 80
2, 33103, Note_on_c, 0, 74, 0
2, 33104, Note_on_c, 0, 68, 80
2, 33120, Note_on_c, 0, 68, 0
2, 33120, Note_on_c, 0, 69, 80
2, 33135, Note_on_c, 0, 69, 0
2, 33136, Note_on_c, 0, 70, 79
2, 33151, Note_on_c, 0, 70, 0
2, 33152, Note_on_c, 0, 71, 78
2, 33167, Note_on_c, 0, 71, 0
2, 33168, Note_on_c, 0, 72, 77
2, 33183, Note_on_c, 0, 72, 0
2, 33184, Note_on_c, 0, 73, 77
2, 33199, Note_on_c, 0, 73, 0
2, 33200, Note_on_c, 0, 74, 76
2, 33215, Note_on_c, 0, 74, 0
2, 33216, Note_on_c, 0, 75, 75
2, 33231, Note_on_c, 0, 75, 0
2, 33232, Note_on_c, 0, 76, 75
2, 33247, Note_on_c, 0, 76, 0
2, 33248, Note_on_c, 0, 77, 74
2, 33263, Note_on_c, 0, 77, 0
2, 33264, Note_on_c, 0, 78, 73
2, 33279, Note_on_c, 0, 78, 0
2, 33280, Note_on_c, 0, 79, 73
2, 33295, Note_on_c, 0, 79, 0
2, 33296, Note_on_c, 0, 80, 72
2, 33311, Note_on_c, 0, 80, 0
2, 33312, Note_on_c, 0, 81, 71
2, 33357, Note_on_c, 0, 81, 0
2, 33360, Note_on_c, 0, 73, 66
2, 33360, Note_on_c, 0, 67, 66
2, 33405, Note_on_c, 0, 73, 0
2, 33405, Note_on_c, 0, 67, 0
2, 33408, Note_on_c, 0, 73, 66
2, 33408, Note_on_c, 0, 67, 66
2, 33504, Note_on_c, 0, 73, 0
2, 33504, Note_on_c, 0, 67, 0
2, 33504, Note_on_c, 0, 74, 66
2, 33504, Note_on_c, 0, 65, 66
2, 33551, Note_on_c, 0, 74, 0
2, 33551, Note_on_c, 0, 65, 0
2, 33672, Note_on_c, 0, 62, 66
2, 33672, Note_on_c, 0, 58, 66
2, 33695, Note_on_c, 0, 62, 0
2, 33695, Note_on_c, 0, 58, 0
2, 33696, Note_on_c, 0, 65, 66
2, 33696, Note_on_c, 0, 62, 66
2, 33763, Note_on_c, 0, 65, 0
2, 33763, Note_on_c, 0, 62, 0
2, 33768, Note_on_c, 0, 65, 66
2, 33768, Note_on_c, 0, 62, 66
2, 33791, Note_on_c, 0, 65, 0
2, 33791, Note_on_c, 0, 62, 0
2, 33792, Note_on_c, 0, 65, 66
2, 33792, Note_on_c, 0, 62, 66
2, 33881, Note_on_c, 0, 65, 0
2, 33881, Note_on_c, 0, 62, 0
2, 33960, Note_on_c, 0, 65, 80
2, 33960, Note_on_c, 0, 62, 80
2, 33983, Note_on_c, 0, 65, 0
2, 33983, Note_on_c, 0, 62, 0
2, 33984, Note_on_c, 0, 68, 80
2, 33984, Note_on_c, 0, 65, 80
2, 34051, Note_on_c, 0, 68, 0
2, 34051, Note_on_c, 0, 65, 0
2, 34056, Note_on_c, 0, 68, 80
2, 34056, Note_on_c, 0, 65, 80
2, 34079, Note_on_c, 0, 68, 0
2, 34079, Note_on_c, 0, 65, 0
2, 34080, Note_on_c, 0, 68, 80
2, 34080, Note_on_c, 0, 65, 80
2, 34169, Note_on_c, 0, 68, 0
2, 34169, Note_on_c, 0, 65, 0
2, 34248, Note_on_c, 0, 68, 80
2, 34271, Note_on_c, 0, 68, 0
2, 34272, Note_on_c, 0, 69, 80
2, 34339, Note_on_c, 0, 69, 0
2, 34344, Note_on_c, 0, 69, 80
2, 34367, Note_on_c, 0, 69, 0
2, 34368, Note_on_c, 0, 71, 80
2, 34435, Note_on_c, 0, 71, 0
2, 34440, Note_on_c, 0, 71, 80
2, 34463, Note_on_c, 0, 71, 0
2, 34464, Note_on_c, 0, 73, 80
2, 34464, Note_on_c, 0, 67, 80
2, 34531, Note_on_c, 0, 73, 0
2, 34531, Note_on_c, 0, 67, 0
2, 34536, Note_on_c, 0, 69, 82
2, 34560, Note_on_c, 0, 69, 0
2, 34560, Note_on_c, 0, 74, 66
2, 34627, Note_on_c, 0, 74, 0
2, 34632, Note_on_c, 0, 74, 66
2, 34642, Note_on_c, 0, 74, 0
2, 34656, Note_on_c, 0, 74, 66
2, 34676, Note_on_c, 0, 74, 0
2, 34824, Note_on_c, 0, 69, 66
2, 34832, Note_on_c, 0, 69, 0
2, 34832, Note_on_c, 0, 74, 66
2, 34840, Note_on_c, 0, 74, 0
2, 34840, Note_on_c, 0, 78, 66
2, 34848, Note_on_c, 0, 78, 0
2, 34848, Note_on_c, 0, 76, 66
2, 34920, Note_on_c, 0, 76, 0
2, 34920, Note_on_c, 0, 73, 66
2, 34943, Note_on_c, 0, 73, 0
2, 34944, Note_on_c, 0, 74, 66
2, 34964, Note_on_c, 0, 74, 0
2, 35088, Note_on_c, 0, 69, 66
2, 35100, Note_on_c, 0, 69, 0
2, 35100, Note_on_c, 0, 74, 66
2, 35112, Note_on_c, 0, 74, 0
2, 35112, Note_on_c, 0, 78, 66
2, 35124, Note_on_c, 0, 78, 0
2, 35124, Note_on_c, 0, 81, 66
2, 35136, Note_on_c, 0, 81, 0
2, 35136, Note_on_c, 0, 81, 106
2, 35184, Note_on_c, 0, 81, 0
2, 35184, Note_on_c, 0, 79, 66
2, 35194, Note_on_c, 0, 79, 0
2, 35220, Note_on_c, 0, 78, 66
2, 35232, Note_on_c, 0, 78, 0
2, 35232, Note_on_c, 0, 78, 106
2, 35280, Note_on_c, 0, 78, 0
2, 35280, Note_on_c, 0, 76, 66
2, 35290, Note_on_c, 0, 76, 0
2, 35316, Note_on_c, 0, 74, 66
2, 35328, Note_on_c, 0, 74, 0
2, 35328, Note_on_c, 0, 74, 106
2, 35376, Note_on_c, 0, 74, 0
2, 35376, Note_on_c, 0, 73, 66
2, 35386, Note_on_c, 0, 73, 0
2, 35412, Note_on_c, 0, 74, 66
2, 35424, Note_on_c, 0, 74, 0
2, 35424, Note_on_c, 0, 78, 66
2, 35520, Note_on_c, 0, 78, 0
2, 35520, Note_on_c, 0, 76, 66
2, 35540, Note_on_c, 0, 76, 0
2, 35688, Note_on_c, 0, 74, 80
2, 35696, Note_on_c, 0, 74, 0
2, 35696, Note_on_c, 0, 78, 80
2, 35704, Note_on_c, 0, 78, 0
2, 35704, Note_on_c, 0, 81, 80
2, 35712, Note_on_c, 0, 81, 0
2, 35712, Note_on_c, 0, 86, 80
2, 35732, Note_on_c, 0, 86, 0
2, 35760, Note_on_c, 0, 88, 80
2, 35766, Note_on_c, 0, 88, 0
2, 35766, Note_on_c, 0, 86, 80
2, 35772, Note_on_c, 0, 86, 0
2, 35772, Note_on_c, 0, 85, 80
2, 35778, Note_on_c, 0, 85, 0
2, 35778, Note_on_c, 0, 86, 80
2, 35794, Note_on_c, 0, 86, 0
2, 35796, Note_on_c, 0, 88, 80
2, 35808, Note_on_c, 0, 88, 0
2, 35808, Note_on_c, 0, 85, 80
2, 35855, Note_on_c, 0, 85, 0
2, 35904, Note_on_c, 0, 81, 80
2, 35949, Note_on_c, 0, 81, 0
2, 35952, Note_on_c, 0, 83, 80
2, 35958, Note_on_c, 0, 83, 0
2, 35958, Note_on_c, 0, 81, 80
2, 35964, Note_on_c, 0, 81, 0
2, 35964, Note_on_c, 0, 80, 80
2, 35970, Note_on_c, 0, 80, 0
2, 35970, Note_on_c, 0, 81, 80
2, 35986, Note_on_c, 0, 81, 0
2, 35988, Note_on_c, 0, 83, 80
2, 36000, Note_on_c, 0, 83, 0
2, 36000, Note_on_c, 0, 86, 80
2, 36024, Note_on_c, 0, 86, 0
2, 36024, Note_on_c, 0, 84, 96
2, 36048, Note_on_c, 0, 84, 0
2, 36048, Note_on_c, 0, 84, 76
2, 36082, Note_on_c, 0, 84, 0
2, 36084, Note_on_c, 0, 83, 74
2, 36096, Note_on_c, 0, 83, 0
2, 36096, Note_on_c, 0, 83, 73
2, 36216, Note_on_c, 0, 83, 0
2, 36216, Note_on_c, 0, 81, 66
2, 36239, Note_on_c, 0, 81, 0
2, 36240, Note_on_c, 0, 84, 66
2, 36264, Note_on_c, 0, 84, 0
2, 36264, Note_on_c, 0, 81, 66
2, 36287, Note_on_c, 0, 81, 0
2, 36288, Note_on_c, 0, 81, 66
2, 36312, Note_on_c, 0, 81, 0
2, 36312, Note_on_c, 0, 79, 66
2, 36335, Note_on_c, 0, 79, 0
2, 36336, Note_on_c, 0, 83, 66
2, 36360, Note_on_c, 0, 83, 0
2, 36360, Note_on_c, 0, 79, 66
2, 36383, Note_on_c, 0, 79, 0
2, 36384, Note_on_c, 0, 79, 66
2, 36408, Note_on_c, 0, 79, 0
2, 36408, Note_on_c, 0, 78, 66
2, 36431, Note_on_c, 0, 78, 0
2, 36432, Note_on_c, 0, 81, 66
2, 36456, Note_on_c, 0, 81, 0
2, 36456, Note_on_c, 0, 78, 66
2, 36479, Note_on_c, 0, 78, 0
2, 36480, Note_on_c, 0, 78, 66
2, 36504, Note_on_c, 0, 78, 0
2, 36504, Note_on_c, 0, 76, 66
2, 36527, Note_on_c, 0, 76, 0
2, 36528, Note_on_c, 0, 77, 106
2, 36552, Note_on_c, 0, 77, 0
2, 36552, Note_on_c, 0, 74, 66
2, 36575, Note_on_c, 0, 74, 0
2, 36576, Note_on_c, 0, 74, 66
2, 36672, Note_on_c, 0, 74, 0
2, 36672, Note_on_c, 0, 73, 66
2, 36717, Note_on_c, 0, 73, 0
2, 36840, Note_on_c, 0, 69, 80
2, 36863, Note_on_c, 0, 69, 0
2, 36864, Note_on_c, 0, 74, 80
2, 36924, Note_on_c, 0, 74, 0
2, 36924, Note_on_c, 0, 73, 80
2, 36930, Note_on_c, 0, 73, 0
2, 36930, Note_on_c, 0, 71, 80
2, 36936, Note_on_c, 0, 71, 0
2, 36936, Note_on_c, 0, 69, 80
2, 36942, Note_on_c, 0, 69, 0
2, 36942, Note_on_c, 0, 67, 80
2, 36948, Note_on_c, 0, 67, 0
2, 36948, Note_on_c, 0, 66, 80
2, 36954, Note_on_c, 0, 66, 0
2, 36954, Note_on_c, 0, 64, 80
2, 36960, Note_on_c, 0, 64, 0
2, 36960, Note_on_c, 0, 62, 80
2, 37005, Note_on_c, 0, 62, 0
2, 37032, Note_on_c, 0, 81, 80
2, 37040, Note_on_c, 0, 81, 0
2, 37040, Note_on_c, 0, 83, 80
2, 37048, Note_on_c, 0, 83, 0
2, 37048, Note_on_c, 0, 81, 80
2, 37056, Note_on_c, 0, 81, 0
2, 37056, Note_on_c, 0, 86, 80
2, 37116, Note_on_c, 0, 86, 0
2, 37116, Note_on_c, 0, 85, 80
2, 37128, Note_on_c, 0, 85, 0
2, 37128, Note_on_c, 0, 83, 80
2, 37134, Note_on_c, 0, 83, 0
2, 37134, Note_on_c, 0, 81, 80
2, 37140, Note_on_c, 0, 81, 0
2, 37140, Note_on_c, 0, 79, 80
2, 37146, Note_on_c, 0, 79, 0
2, 37146, Note_on_c, 0, 78, 80
2, 37152, Note_on_c, 0, 78, 0
2, 37152, Note_on_c, 0, 76, 80
2, 37212, Note_on_c, 0, 76, 0
2, 37212, Note_on_c, 0, 74, 80
2, 37224, Note_on_c, 0, 74, 0
2, 37224, Note_on_c, 0, 73, 80
2, 37236, Note_on_c, 0, 73, 0
2, 37236, Note_on_c, 0, 71, 80
2, 37242, Note_on_c, 0, 71, 0
2, 37242, Note_on_c, 0, 69, 80
2, 37248, Note_on_c, 0, 69, 0
2, 37248, Note_on_c, 0, 74, 80
2, 37295, Note_on_c, 0, 74, 0
2, 37332, Note_on_c, 0, 73, 80
2, 37344, Note_on_c, 0, 73, 0
2, 37344, Note_on_c, 0, 74, 80
2, 37356, Note_on_c, 0, 74, 0
2, 37356, Note_on_c, 0, 78, 78
2, 37368, Note_on_c, 0, 78, 0
2, 37368, Note_on_c, 0, 76, 77
2, 37380, Note_on_c, 0, 76, 0
2, 37380, Note_on_c, 0, 79, 75
2, 37392, Note_on_c, 0, 79, 0
2, 37392, Note_on_c, 0, 78, 74
2, 37404, Note_on_c, 0, 78, 0
2, 37404, Note_on_c, 0, 81, 73
2, 37416, Note_on_c, 0, 81, 0
2, 37416, Note_on_c, 0, 79, 71
2, 37428, Note_on_c, 0, 79, 0
2, 37428, Note_on_c, 0, 83, 70
2, 37440, Note_on_c, 0, 83, 0
2, 37440, Note_on_c, 0, 81, 68
2, 37464, Note_on_c, 0, 81, 0
2, 37464, Note_on_c, 0, 79, 66
2, 37487, Note_on_c, 0, 79, 0
2, 37512, Note_on_c, 0, 78, 66
2, 37535, Note_on_c, 0, 78, 0
2, 37560, Note_on_c, 0, 76, 68
2, 37583, Note_on_c, 0, 76, 0
2, 37608, Note_on_c, 0, 74, 71
2, 37631, Note_on_c, 0, 74, 0
2, 37656, Note_on_c, 0, 73, 74
2, 37679, Note_on_c, 0, 73, 0
2, 37704, Note_on_c, 0, 74, 76
2, 37727, Note_on_c, 0, 74, 0
2, 37728, Note_on_c, 0, 79, 78
2, 37734, Note_on_c, 0, 79, 0
2, 37734, Note_on_c, 0, 78, 78
2, 37740, Note_on_c, 0, 78, 0
2, 37740, Note_on_c, 0, 76, 78
2, 37746, Note_on_c, 0, 76, 0
2, 37746, Note_on_c, 0, 78, 78
2, 37762, Note_on_c, 0, 78, 0
2, 37764, Note_on_c, 0, 79, 80
2, 37776, Note_on_c, 0, 79, 0
2, 37776, Note_on_c, 0, 80, 80
2, 37804, Note_on_c, 0, 80, 0
2, 37806, Note_on_c, 0, 83, 80
2, 37812, Note_on_c, 0, 83, 0
2, 37812, Note_on_c, 0, 81, 80
2, 37824, Note_on_c, 0, 81, 0
2, 37824, Note_on_c, 0, 79, 80
2, 37830, Note_on_c, 0, 79, 0
2, 37830, Note_on_c, 0, 78, 80
2, 37836, Note_on_c, 0, 78, 0
2, 37836, Note_on_c, 0, 76, 80
2, 37842, Note_on_c, 0, 76, 0
2, 37842, Note_on_c, 0, 78, 80
2, 37848, Note_on_c, 0, 78, 0
2, 37848, Note_on_c, 0, 76, 80
2, 37869, Note_on_c, 0, 76, 0
2, 37992, Note_on_c, 0, 74, 80
2, 38000, Note_on_c, 0, 74, 0
2, 38000, Note_on_c, 0, 78, 80
2, 38008, Note_on_c, 0, 78, 0
2, 38008, Note_on_c, 0, 81, 80
2, 38016, Note_on_c, 0, 81, 0
2, 38016, Note_on_c, 0, 86, 80
2, 38036, Note_on_c, 0, 86, 0
2, 38064, Note_on_c, 0, 88, 80
2, 38070, Note_on_c, 0, 88, 0
2, 38070, Note_on_c, 0, 86, 80
2, 38076, Note_on_c, 0, 86, 0
2, 38076, Note_on_c, 0, 85, 80
2, 38082, Note_on_c, 0, 85, 0
2, 38082, Note_on_c, 0, 86, 80
2, 38098, Note_on_c, 0, 86, 0
2, 38100, Note_on_c, 0, 88, 80
2, 38112, Note_on_c, 0, 88, 0
2, 38112, Note_on_c, 0, 85, 80
2, 38159, Note_on_c, 0, 85, 0
2, 38304, Note_on_c, 0, 62, 80
2, 38349, Note_on_c, 0, 62, 0
2, 38352, Note_on_c, 0, 60, 80
2, 38434, Note_on_c, 0, 60, 0
2, 38436, Note_on_c, 0, 59, 80
2, 38448, Note_on_c, 0, 59, 0
2, 38448, Note_on_c, 0, 72, 104
2, 38519, Note_on_c, 0, 72, 0
2, 38520, Note_on_c, 0, 71, 76
2, 38543, Note_on_c, 0, 71, 0
2, 38544, Note_on_c, 0, 70, 73
2, 38567, Note_on_c, 0, 70, 0
2, 38568, Note_on_c, 0, 69, 69
2, 38591, Note_on_c, 0, 69, 0
2, 38592, Note_on_c, 0, 69, 66
2, 38615, Note_on_c, 0, 69, 0
2, 38616, Note_on_c, 0, 67, 66
2, 38661, Note_on_c, 0, 67, 0
2, 38664, Note_on_c, 0, 71, 66
2, 38670, Note_on_c, 0, 71, 0
2, 38670, Note_on_c, 0, 69, 66
2, 38687, Note_on_c, 0, 69, 0
2, 38688, Note_on_c, 0, 67, 66
2, 38711, Note_on_c, 0, 67, 0
2, 38712, Note_on_c, 0, 66, 66
2, 38757, Note_on_c, 0, 66, 0
2, 38760, Note_on_c, 0, 81, 80
2, 38760, Note_on_c, 0, 69, 80
2, 38805, Note_on_c, 0, 81, 0
2, 38805, Note_on_c, 0, 69, 0
2, 38808, Note_on_c, 0, 82, 80
2, 38808, Note_on_c, 0, 70, 80
2, 38853, Note_on_c, 0, 82, 0
2, 38853, Note_on_c, 0, 70, 0
2, 38856, Note_on_c, 0, 83, 80
2, 38856, Note_on_c, 0, 71, 80
2, 38879, Note_on_c, 0, 83, 0
2, 38879, Note_on_c, 0, 71, 0
2, 38880, Note_on_c, 0, 78, 80
2, 38880, Note_on_c, 0, 74, 80
2, 38976, Note_on_c, 0, 78, 0
2, 38976, Note_on_c, 0, 74, 0
2, 38976, Note_on_c, 0, 76, 73
2, 38976, Note_on_c, 0, 73, 73
2, 39065, Note_on_c, 0, 76, 0
2, 39065, Note_on_c, 0, 73, 0
2, 39312, Note_on_c, 0, 84, 66
2, 39336, Note_on_c, 0, 84, 0
2, 39336, Note_on_c, 0, 81, 66
2, 39359, Note_on_c, 0, 81, 0
2, 39360, Note_on_c, 0, 83, 66
2, 39384, Note_on_c, 0, 83, 0
2, 39384, Note_on_c, 0, 79, 66
2, 39407, Note_on_c, 0, 79, 0
2, 39408, Note_on_c, 0, 81, 66
2, 39432, Note_on_c, 0, 81, 0
2, 39432, Note_on_c, 0, 78, 66
2, 39455, Note_on_c, 0, 78, 0
2, 39456, Note_on_c, 0, 79, 66
2, 39501, Note_on_c, 0, 79, 0
2, 39600, Note_on_c, 0, 84, 66
2, 39615, Note_on_c, 0, 84, 0
2, 39616, Note_on_c, 0, 83, 66
2, 39631, Note_on_c, 0, 83, 0
2, 39632, Note_on_c, 0, 79, 66
2, 39647, Note_on_c, 0, 79, 0
2, 39648, Note_on_c, 0, 83, 66
2, 39663, Note_on_c, 0, 83, 0
2, 39664, Note_on_c, 0, 81, 66
2, 39679, Note_on_c, 0, 81, 0
2, 39680, Note_on_c, 0, 78, 66
2, 39695, Note_on_c, 0, 78, 0
2, 39696, Note_on_c, 0, 81, 66
2, 39711, Note_on_c, 0, 81, 0
2, 39712, Note_on_c, 0, 79, 66
2, 39727, Note_on_c, 0, 79, 0
2, 39728, Note_on_c, 0, 76, 66
2, 39743, Note_on_c, 0, 76, 0
2, 39744, Note_on_c, 0, 78, 66
2, 39789, Note_on_c, 0, 78, 0
2, 39856, Note_on_c, 0, 86, 66
2, 39871, Note_on_c, 0, 86, 0
2, 39872, Note_on_c, 0, 85, 66
2, 39887, Note_on_c, 0, 85, 0
2, 39888, Note_on_c, 0, 84, 66
2, 39903, Note_on_c, 0, 84, 0
2, 39904, Note_on_c, 0, 83, 66
2, 39919, Note_on_c, 0, 83, 0
2, 39920, Note_on_c, 0, 82, 66
2, 39935, Note_on_c, 0, 82, 0
2, 39936, Note_on_c, 0, 81, 66
2, 39951, Note_on_c, 0, 81, 0
2, 39952, Note_on_c, 0, 80, 66
2, 39967, Note_on_c, 0, 80, 0
2, 39968, Note_on_c, 0, 79, 66
2, 39983, Note_on_c, 0, 79, 0
2, 39984, Note_on_c, 0, 78, 66
2, 39999, Note_on_c, 0, 78, 0
2, 40000, Note_on_c, 0, 77, 66
2, 40015, Note_on_c, 0, 77, 0
2, 40016, Note_on_c, 0, 76, 66
2, 40031, Note_on_c, 0, 76, 0
2, 40032, Note_on_c, 0, 74, 66
2, 40128, Note_on_c, 0, 74, 0
2, 40128, Note_on_c, 0, 73, 66
2, 40173, Note_on_c, 0, 73, 0
2, 40296, Note_on_c, 0, 69, 66
2, 40319, Note_on_c, 0, 69, 0
2, 40320, Note_on_c, 0, 74, 66
2, 40387, Note_on_c, 0, 74, 0
2, 40392, Note_on_c, 0, 74, 66
2, 40402, Note_on_c, 0, 74, 0
2, 40416, Note_on_c, 0, 74, 66
2, 40436, Note_on_c, 0, 74, 0
2, 40584, Note_on_c, 0, 69, 66
2, 40592, Note_on_c, 0, 69, 0
2, 40592, Note_on_c, 0, 74, 66
2, 40600, Note_on_c, 0, 74, 0
2, 40600, Note_on_c, 0, 78, 66
2, 40608, Note_on_c, 0, 78, 0
2, 40608, Note_on_c, 0, 78, 66
2, 40632, Note_on_c, 0, 78, 0
2, 40632, Note_on_c, 0, 76, 66
2, 40655, Note_on_c, 0, 76, 0
2, 40656, Note_on_c, 0, 83, 66
2, 40680, Note_on_c, 0, 83, 0
2, 40680, Note_on_c, 0, 73, 66
2, 40703, Note_on_c, 0, 73, 0
2, 40704, Note_on_c, 0, 76, 66
2, 40727, Note_on_c, 0, 76, 0
2, 40728, Note_on_c, 0, 74, 66
2, 40751, Note_on_c, 0, 74, 0
2, 40752, Note_on_c, 0, 86, 66
2, 40823, Note_on_c, 0, 86, 0
2, 40824, Note_on_c, 0, 85, 67
2, 40836, Note_on_c, 0, 85, 0
2, 40836, Note_on_c, 0, 86, 68
2, 40848, Note_on_c, 0, 86, 0
2, 40848, Note_on_c, 0, 88, 69
2, 40860, Note_on_c, 0, 88, 0
2, 40860, Note_on_c, 0, 86, 70
2, 40872, Note_on_c, 0, 86, 0
2, 40872, Note_on_c, 0, 85, 71
2, 40884, Note_on_c, 0, 85, 0
2, 40884, Note_on_c, 0, 83, 72
2, 40896, Note_on_c, 0, 83, 0
2, 40896, Note_on_c, 0, 79, 73
2, 40906, Note_on_c, 0, 79, 0
2, 40920, Note_on_c, 0, 79, 75
2, 40932, Note_on_c, 0, 79, 0
2, 40932, Note_on_c, 0, 81, 75
2, 40944, Note_on_c, 0, 81, 0
2, 40944, Note_on_c, 0, 83, 75
2, 40956, Note_on_c, 0, 83, 0
2, 40956, Note_on_c, 0, 81, 75
2, 40968, Note_on_c, 0, 81, 0
2, 40968, Note_on_c, 0, 79, 75
2, 40980, Note_on_c, 0, 79, 0
2, 40980, Note_on_c, 0, 78, 75
2, 40992, Note_on_c, 0, 78, 0
2, 40992, Note_on_c, 0, 76, 75
2, 41002, Note_on_c, 0, 76, 0
2, 41016, Note_on_c, 0, 76, 73
2, 41028, Note_on_c, 0, 76, 0
2, 41028, Note_on_c, 0, 78, 72
2, 41040, Note_on_c, 0, 78, 0
2, 41040, Note_on_c, 0, 79, 71
2, 41052, Note_on_c, 0, 79, 0
2, 41052, Note_on_c, 0, 78, 70
2, 41064, Note_on_c, 0, 78, 0
2, 41064, Note_on_c, 0, 76, 69
2, 41076, Note_on_c, 0, 76, 0
2, 41076, Note_on_c, 0, 74, 68
2, 41088, Note_on_c, 0, 74, 0
2, 41088, Note_on_c, 0, 73, 67
2, 41111, Note_on_c, 0, 73, 0
2, 41136, Note_on_c, 0, 74, 66
2, 41146, Note_on_c, 0, 74, 0
2, 41184, Note_on_c, 0, 78, 66
2, 41280, Note_on_c, 0, 78, 0
2, 41280, Note_on_c, 0, 76, 66
2, 41369, Note_on_c, 0, 76, 0
2, 41448, Note_on_c, 0, 74, 80
2, 41456, Note_on_c, 0, 74, 0
2, 41456, Note_on_c, 0, 78, 80
2, 41464, Note_on_c, 0, 78, 0
2, 41464, Note_on_c, 0, 81, 80
2, 41472, Note_on_c, 0, 81, 0
2, 41472, Note_on_c, 0, 86, 80
2, 41492, Note_on_c, 0, 86, 0
2, 41520, Note_on_c, 0, 88, 80
2, 41526, Note_on_c, 0, 88, 0
2, 41526, Note_on_c, 0, 86, 80
2, 41532, Note_on_c, 0, 86, 0
2, 41532, Note_on_c, 0, 85, 80
2, 41538, Note_on_c, 0, 85, 0
2, 41538, Note_on_c, 0, 86, 80
2, 41554, Note_on_c, 0, 86, 0
2, 41556, Note_on_c, 0, 88, 80
2, 41568, Note_on_c, 0, 88, 0
2, 41568, Note_on_c, 0, 85, 80
2, 41615, Note_on_c, 0, 85, 0
2, 41664, Note_on_c, 0, 69, 80
2, 41676, Note_on_c, 0, 69, 0
2, 41676, Note_on_c, 0, 71, 80
2, 41688, Note_on_c, 0, 71, 0
2, 41688, Note_on_c, 0, 73, 81
2, 41700, Note_on_c, 0, 73, 0
2, 41700, Note_on_c, 0, 74, 81
2, 41712, Note_on_c, 0, 74, 0
2, 41712, Note_on_c, 0, 76, 82
2, 41722, Note_on_c, 0, 76, 0
2, 41722, Note_on_c, 0, 78, 82
2, 41732, Note_on_c, 0, 78, 0
2, 41732, Note_on_c, 0, 79, 82
2, 41742, Note_on_c, 0, 79, 0
2, 41742, Note_on_c, 0, 81, 82
2, 41751, Note_on_c, 0, 81, 0
2, 41751, Note_on_c, 0, 83, 83
2, 41760, Note_on_c, 0, 83, 0
2, 41760, Note_on_c, 0, 85, 84
2, 41805, Note_on_c, 0, 85, 0
2, 41808, Note_on_c, 0, 86, 108
2, 41814, Note_on_c, 0, 86, 0
2, 41814, Note_on_c, 0, 85, 108
2, 41820, Note_on_c, 0, 85, 0
2, 41820, Note_on_c, 0, 83, 108
2, 41826, Note_on_c, 0, 83, 0
2, 41826, Note_on_c, 0, 85, 124
2, 41844, Note_on_c, 0, 85, 0
2, 41844, Note_on_c, 0, 86, 84
2, 41856, Note_on_c, 0, 86, 0
2, 41856, Note_on_c, 0, 84, 84
2, 41901, Note_on_c, 0, 84, 0
2, 41904, Note_on_c, 0, 86, 108
2, 41910, Note_on_c, 0, 86, 0
2, 41910, Note_on_c, 0, 84, 108
2, 41916, Note_on_c, 0, 84, 0
2, 41916, Note_on_c, 0, 83, 108
2, 41922, Note_on_c, 0, 83, 0
2, 41922, Note_on_c, 0, 84, 124
2, 41940, Note_on_c, 0, 84, 0
2, 41940, Note_on_c, 0, 86, 84
2, 41952, Note_on_c, 0, 86, 0
2, 41952, Note_on_c, 0, 83, 84
2, 41997, Note_on_c, 0, 83, 0
2, 42000, Note_on_c, 0, 81, 84
2, 42012, Note_on_c, 0, 81, 0
2, 42012, Note_on_c, 0, 79, 84
2, 42024, Note_on_c, 0, 79, 0
2, 42024, Note_on_c, 0, 78, 84
2, 42036, Note_on_c, 0, 78, 0
2, 42036, Note_on_c, 0, 76, 84
2, 42048, Note_on_c, 0, 76, 0
2, 42048, Note_on_c, 0, 81, 80
2, 42189, Note_on_c, 0, 81, 0
2, 42192, Note_on_c, 0, 79, 69
2, 42204, Note_on_c, 0, 79, 0
2, 42204, Note_on_c, 0, 78, 68
2, 42216, Note_on_c, 0, 78, 0
2, 42216, Note_on_c, 0, 76, 67
2, 42228, Note_on_c, 0, 76, 0
2, 42228, Note_on_c, 0, 74, 66
2, 42240, Note_on_c, 0, 74, 0
2, 42240, Note_on_c, 0, 73, 66
2, 42260, Note_on_c, 0, 73, 0
2, 42288, Note_on_c, 0, 76, 66
2, 42288, Note_on_c, 0, 67, 66
2, 42308, Note_on_c, 0, 76, 0
2, 42308, Note_on_c, 0, 67, 0
2, 42336, Note_on_c, 0, 74, 66
2, 42336, Note_on_c, 0, 66, 66
2, 42356, Note_on_c, 0, 74, 0
2, 42356, Note_on_c, 0, 66, 0
2, 42636, Control_c, 0, 64, 127
2, 42636, Note_on_c, 0, 71, 80
2, 42648, Note_on_c, 0, 71, 0
2, 42648, Note_on_c, 0, 75, 80
2, 42660, Note_on_c, 0, 75, 0
2, 42660, Note_on_c, 0, 78, 80
2, 42672, Note_on_c, 0, 78, 0
2, 42672, Note_on_c, 0, 83, 80
2, 42684, Note_on_c, 0, 83, 0
2, 42720, Control_c, 0, 64, 0
2, 42720, Control_c, 0, 64, 127
2, 42732, Note_on_c, 0, 71, 80
2, 42744, Note_on_c, 0, 71, 0
2, 42744, Note_on_c, 0, 75, 80
2, 42756, Note_on_c, 0, 75, 0
2, 42756, Note_on_c, 0, 78, 80
2, 42768, Note_on_c, 0, 78, 0
2, 42768, Note_on_c, 0, 81, 80
2, 42780, Note_on_c, 0, 81, 0
2, 42828, Note_on_c, 0, 75, 80
2, 42840, Note_on_c, 0, 75, 0
2, 42840, Note_on_c, 0, 78, 80
2, 42852, Note_on_c, 0, 78, 0
2, 42852, Note_on_c, 0, 81, 80
2, 42864, Note_on_c, 0, 81, 0
2, 42864, Note_on_c, 0, 84, 80
2, 42876, Note_on_c, 0, 84, 0
2, 42876, Note_on_c, 0, 81, 80
2, 42888, Note_on_c, 0, 81, 0
2, 42888, Note_on_c, 0, 79, 80
2, 42900, Note_on_c, 0, 79, 0
2, 42900, Control_c, 0, 64, 0
2, 42900, Note_on_c, 0, 78, 80
2, 42912, Note_on_c, 0, 78, 0
2, 42912, Control_c, 0, 64, 127
2, 42912, Note_on_c, 0, 79, 80
2, 42924, Note_on_c, 0, 79, 0
2, 42924, Note_on_c, 0, 64, 80
2, 42936, Note_on_c, 0, 64, 0
2, 42936, Note_on_c, 0, 67, 80
2, 42948, Note_on_c, 0, 67, 0
2, 42948, Note_on_c, 0, 71, 80
2, 42960, Note_on_c, 0, 71, 0
2, 42960, Note_on_c, 0, 76, 80
2, 42972, Note_on_c, 0, 76, 0
2, 42972, Note_on_c, 0, 79, 80
2, 42984, Note_on_c, 0, 79, 0
2, 42984, Note_on_c, 0, 83, 80
2, 42996, Note_on_c, 0, 83, 0
2, 42996, Note_on_c, 0, 87, 80
2, 43008, Note_on_c, 0, 87, 0
2, 43008, Note_on_c, 0, 88, 80
2, 43020, Note_on_c, 0, 88, 0
2, 43020, Note_on_c, 0, 83, 80
2, 43032, Note_on_c, 0, 83, 0
2, 43032, Control_c, 0, 64, 0
2, 43032, Note_on_c, 0, 84, 80
2, 43044, Note_on_c, 0, 84, 0
2, 43044, Note_on_c, 0, 81, 80
2, 43056, Note_on_c, 0, 81, 0
2, 43056, Note_on_c, 0, 83, 80
2, 43068, Note_on_c, 0, 83, 0
2, 43068, Note_on_c, 0, 79, 80
2, 43080, Note_on_c, 0, 79, 0
2, 43080, Note_on_c, 0, 81, 80
2, 43092, Note_on_c, 0, 81, 0
2, 43092, Note_on_c, 0, 78, 80
2, 43104, Note_on_c, 0, 78, 0
2, 43104, Note_on_c, 0, 79, 80
2, 43116, Note_on_c, 0, 79, 0
2, 43116, Note_on_c, 0, 81, 80
2, 43128, Note_on_c, 0, 81, 0
2, 43128, Note_on_c, 0, 83, 80
2, 43140, Note_on_c, 0, 83, 0
2, 43140, Note_on_c, 0, 81, 80
2, 43152, Note_on_c, 0, 81, 0
2, 43152, Note_on_c, 0, 79, 80
2, 43164, Note_on_c, 0, 79, 0
2, 43164, Note_on_c, 0, 78, 80
2, 43176, Note_on_c, 0, 78, 0
2, 43176, Note_on_c, 0, 76, 80
2, 43188, Note_on_c, 0, 76, 0
2, 43188, Note_on_c, 0, 74, 80
2, 43200, Note_on_c, 0, 74, 0
2, 43200, Control_c, 0, 64, 127
2, 43200, Note_on_c, 0, 73, 80
2, 43212, Note_on_c, 0, 73, 0
2, 43212, Note_on_c, 0, 57, 80
2, 43224, Note_on_c, 0, 57, 0
2, 43224, Note_on_c, 0, 61, 80
2, 43236, Note_on_c, 0, 61, 0
2, 43236, Note_on_c, 0, 64, 80
2, 43248, Note_on_c, 0, 64, 0
2, 43248, Note_on_c, 0, 67, 80
2, 43260, Note_on_c, 0, 67, 0
2, 43260, Note_on_c, 0, 69, 80
2, 43272, Note_on_c, 0, 69, 0
2, 43272, Note_on_c, 0, 73, 80
2, 43284, Note_on_c, 0, 73, 0
2, 43284, Note_on_c, 0, 76, 80
2, 43296, Note_on_c, 0, 76, 0
2, 43296, Note_on_c, 0, 79, 80
2, 43308, Note_on_c, 0, 79, 0
2, 43308, Note_on_c, 0, 57, 80
2, 43320, Note_on_c, 0, 57, 0
2, 43320, Control_c, 0, 64, 0
2, 43320, Note_on_c, 0, 61, 80
2, 43332, Note_on_c, 0, 61, 0
2, 43332, Control_c, 0, 64, 127
2, 43332, Note_on_c, 0, 62, 80
2, 43344, Note_on_c, 0, 62, 0
2, 43344, Note_on_c, 0, 66, 80
2, 43356, Note_on_c, 0, 66, 0
2, 43356, Note_on_c, 0, 69, 80
2, 43368, Note_on_c, 0, 69, 0
2, 43368, Note_on_c, 0, 74, 80
2, 43380, Note_on_c, 0, 74, 0
2, 43380, Note_on_c, 0, 78, 80
2, 43392, Note_on_c, 0, 78, 0
2, 43392, Note_on_c, 0, 81, 80
2, 43404, Note_on_c, 0, 81, 0
2, 43404, Note_on_c, 0, 74, 80
2, 43416, Note_on_c, 0, 74, 0
2, 43416, Note_on_c, 0, 78, 80
2, 43428, Note_on_c, 0, 78, 0
2, 43428, Note_on_c, 0, 81, 80
2, 43440, Note_on_c, 0, 81, 0
2, 43440, Note_on_c, 0, 86, 80
2, 43474, Note_on_c, 0, 86, 0
2, 43476, Note_on_c, 0, 78, 80
2, 43488, Note_on_c, 0, 78, 0
2, 43488, Control_c, 0, 64, 0
2, 43488, Note_on_c, 0, 79, 80
2, 43496, Note_on_c, 0, 79, 0
2, 43496, Note_on_c, 0, 78, 79
2, 43504, Note_on_c, 0, 78, 0
2, 43504, Note_on_c, 0, 79, 79
2, 43512, Note_on_c, 0, 79, 0
2, 43512, Note_on_c, 0, 78, 79
2, 43520, Note_on_c, 0, 78, 0
2, 43520, Note_on_c, 0, 79, 78
2, 43528, Note_on_c, 0, 79, 0
2, 43528, Note_on_c, 0, 78, 78
2, 43536, Note_on_c, 0, 78, 0
2, 43536, Note_on_c, 0, 79, 78
2, 43544, Note_on_c, 0, 79, 0
2, 43544, Note_on_c, 0, 78, 77
2, 43552, Note_on_c, 0, 78, 0
2, 43552, Note_on_c, 0, 79, 77
2, 43560, Note_on_c, 0, 79, 0
2, 43560, Note_on_c, 0, 78, 77
2, 43568, Note_on_c, 0, 78, 0
2, 43568, Note_on_c, 0, 76, 76
2, 43576, Note_on_c, 0, 76, 0
2, 43576, Note_on_c, 0, 78, 76
2, 43584, Note_on_c, 0, 78, 0
2, 43584, Note_on_c, 0, 76, 76
2, 43673, Note_on_c, 0, 76, 0
2, 43752, Note_on_c, 0, 69, 66
2, 43775, Note_on_c, 0, 69, 0
2, 43776, Note_on_c, 0, 74, 66
2, 43843, Note_on_c, 0, 74, 0
2, 43848, Note_on_c, 0, 74, 66
2, 43871, Note_on_c, 0, 74, 0
2, 43872, Note_on_c, 0, 74, 66
2, 43884, Note_on_c, 0, 74, 0
2, 43884, Note_on_c, 0, 78, 66
2, 43896, Note_on_c, 0, 78, 0
2, 43896, Note_on_c, 0, 76, 66
2, 43908, Note_on_c, 0, 76, 0
2, 43908, Note_on_c, 0, 79, 66
2, 43920, Note_on_c, 0, 79, 0
2, 43920, Note_on_c, 0, 78, 66
2, 43932, Note_on_c, 0, 78, 0
2, 43932, Note_on_c, 0, 81, 66
2, 43944, Note_on_c, 0, 81, 0
2, 43944, Note_on_c, 0, 79, 66
2, 43956, Note_on_c, 0, 79, 0
2, 43956, Note_on_c, 0, 83, 66
2, 43968, Note_on_c, 0, 83, 0
2, 43968, Note_on_c, 0, 81, 66
2, 43978, Note_on_c, 0, 81, 0
2, 43992, Note_on_c, 0, 83, 66
2, 44002, Note_on_c, 0, 83, 0
2, 44016, Note_on_c, 0, 85, 66
2, 44026, Note_on_c, 0, 85, 0
2, 44040, Note_on_c, 0, 86, 66
2, 44050, Note_on_c, 0, 86, 0
2, 44064, Note_on_c, 0, 88, 66
2, 44087, Note_on_c, 0, 88, 0
2, 44088, Note_on_c, 0, 76, 90
2, 44124, Note_on_c, 0, 76, 0
2, 44124, Note_on_c, 0, 79, 66
2, 44136, Note_on_c, 0, 79, 0
2, 44136, Note_on_c, 0, 76, 66
2, 44148, Note_on_c, 0, 76, 0
2, 44148, Note_on_c, 0, 73, 66
2, 44160, Note_on_c, 0, 73, 0
2, 44160, Note_on_c, 0, 74, 66
2, 44205, Note_on_c, 0, 74, 0
2, 44256, Note_on_c, 0, 62, 66
2, 44264, Note_on_c, 0, 62, 0
2, 44264, Note_on_c, 0, 64, 66
2, 44272, Note_on_c, 0, 64, 0
2, 44272, Note_on_c, 0, 66, 66
2, 44280, Note_on_c, 0, 66, 0
2, 44280, Note_on_c, 0, 67, 66
2, 44288, Note_on_c, 0, 67, 0
2, 44288, Note_on_c, 0, 69, 66
2, 44296, Note_on_c, 0, 69, 0
2, 44296, Note_on_c, 0, 71, 66
2, 44304, Note_on_c, 0, 71, 0
2, 44304, Note_on_c, 0, 73, 66
2, 44312, Note_on_c, 0, 73, 0
2, 44312, Note_on_c, 0, 74, 66
2, 44320, Note_on_c, 0, 74, 0
2, 44320, Note_on_c, 0, 76, 66
2, 44328, Note_on_c, 0, 76, 0
2, 44328, Note_on_c, 0, 78, 66
2, 44336, Note_on_c, 0, 78, 0
2, 44336, Note_on_c, 0, 79, 66
2, 44344, Note_on_c, 0, 79, 0
2, 44344, Note_on_c, 0, 81, 66
2, 44352, Note_on_c, 0, 81, 0
2, 44352, Note_on_c, 0, 79, 66
2, 44362, Note_on_c, 0, 79, 0
2, 44376, Note_on_c, 0, 79, 66
2, 44388, Note_on_c, 0, 79, 0
2, 44388, Note_on_c, 0, 83, 66
2, 44400, Note_on_c, 0, 83, 0
2, 44400, Note_on_c, 0, 86, 66
2, 44412, Note_on_c, 0, 86, 0
2, 44412, Note_on_c, 0, 83, 66
2, 44424, Note_on_c, 0, 83, 0
2, 44424, Note_on_c, 0, 79, 66
2, 44436, Note_on_c, 0, 79, 0
2, 44436, Note_on_c, 0, 78, 66
2, 44448, Note_on_c, 0, 78, 0
2, 44448, Note_on_c, 0, 76, 66
2, 44458, Note_on_c, 0, 76, 0
2, 44472, Note_on_c, 0, 76, 66
2, 44484, Note_on_c, 0, 76, 0
2, 44484, Note_on_c, 0, 79, 66
2, 44496, Note_on_c, 0, 79, 0
2, 44496, Note_on_c, 0, 83, 66
2, 44508, Note_on_c, 0, 83, 0
2, 44508, Note_on_c, 0, 79, 66
2, 44520, Note_on_c, 0, 79, 0
2, 44520, Note_on_c, 0, 76, 66
2, 44532, Note_on_c, 0, 76, 0
2, 44532, Note_on_c, 0, 74, 66
2, 44544, Note_on_c, 0, 74, 0
2, 44544, Note_on_c, 0, 73, 66
2, 44567, Note_on_c, 0, 73, 0
2, 44592, Note_on_c, 0, 74, 66
2, 44615, Note_on_c, 0, 74, 0
2, 44640, Note_on_c, 0, 78, 66
2, 44640, Note_on_c, 0, 74, 66
2, 44832, Note_on_c, 0, 78, 0
2, 44832, Note_on_c, 0, 74, 0
2, 44832, Note_on_c, 0, 76, 66
2, 44832, Note_on_c, 0, 73, 66
2, 44877, Note_on_c, 0, 76, 0
2, 44877, Note_on_c, 0, 73, 0
2, 44892, Note_on_c, 0, 74, 66
2, 44904, Note_on_c, 0, 74, 0
2, 44904, Note_on_c, 0, 78, 68
2, 44916, Note_on_c, 0, 78, 0
2, 44916, Note_on_c, 0, 81, 70
2, 44928, Note_on_c, 0, 81, 0
2, 44928, Note_on_c, 0, 86, 72
2, 44948, Note_on_c, 0, 86, 0
2, 44976, Note_on_c, 0, 88, 80
2, 44982, Note_on_c, 0, 88, 0
2, 44982, Note_on_c, 0, 86, 80
2, 44988, Note_on_c, 0, 86, 0
2, 44988, Note_on_c, 0, 85, 80
2, 44994, Note_on_c, 0, 85, 0
2, 44994, Note_on_c, 0, 86, 80
2, 45010, Note_on_c, 0, 86, 0
2, 45012, Note_on_c, 0, 88, 80
2, 45024, Note_on_c, 0, 88, 0
2, 45024, Note_on_c, 0, 85, 80
2, 45071, Note_on_c, 0, 85, 0
2, 45120, Note_on_c, 0, 69, 80
2, 45132, Note_on_c, 0, 69, 0
2, 45132, Note_on_c, 0, 68, 80
2, 45144, Note_on_c, 0, 68, 0
2, 45144, Note_on_c, 0, 71, 80
2, 45156, Note_on_c, 0, 71, 0
2, 45156, Note_on_c, 0, 69, 80
2, 45168, Note_on_c, 0, 69, 0
2, 45168, Note_on_c, 0, 73, 80
2, 45180, Note_on_c, 0, 73, 0
2, 45180, Note_on_c, 0, 71, 80
2, 45192, Note_on_c, 0, 71, 0
2, 45192, Note_on_c, 0, 74, 80
2, 45204, Note_on_c, 0, 74, 0
2, 45204, Note_on_c, 0, 73, 80
2, 45216, Note_on_c, 0, 73, 0
2, 45216, Note_on_c, 0, 76, 80
2, 45228, Note_on_c, 0, 76, 0
2, 45228, Note_on_c, 0, 74, 80
2, 45240, Note_on_c, 0, 74, 0
2, 45240, Note_on_c, 0, 78, 80
2, 45252, Note_on_c, 0, 78, 0
2, 45252, Note_on_c, 0, 76, 80
2, 45264, Note_on_c, 0, 76, 0
2, 45264, Note_on_c, 0, 79, 80
2, 45276, Note_on_c, 0, 79, 0
2, 45276, Note_on_c, 0, 78, 80
2, 45288, Note_on_c, 0, 78, 0
2, 45288, Note_on_c, 0, 81, 80
2, 45300, Note_on_c, 0, 81, 0
2, 45300, Note_on_c, 0, 79, 80
2, 45312, Note_on_c, 0, 79, 0
2, 45312, Note_on_c, 0, 83, 80
2, 45324, Note_on_c, 0, 83, 0
2, 45324, Note_on_c, 0, 81, 80
2, 45336, Note_on_c, 0, 81, 0
2, 45336, Note_on_c, 0, 84, 80
2, 45348, Note_on_c, 0, 84, 0
2, 45348, Note_on_c, 0, 83, 80
2, 45360, Note_on_c, 0, 83, 0
2, 45360, Note_on_c, 0, 86, 80
2, 45372, Note_on_c, 0, 86, 0
2, 45372, Note_on_c, 0, 84, 80
2, 45384, Note_on_c, 0, 84, 0
2, 45384, Note_on_c, 0, 83, 80
2, 45396, Note_on_c, 0, 83, 0
2, 45396, Note_on_c, 0, 81, 80
2, 45408, Note_on_c, 0, 81, 0
2, 45408, Note_on_c, 0, 81, 80
2, 45420, Note_on_c, 0, 81, 0
2, 45420, Note_on_c, 0, 79, 80
2, 45432, Note_on_c, 0, 79, 0
2, 45432, Note_on_c, 0, 83, 80
2, 45444, Note_on_c, 0, 83, 0
2, 45444, Note_on_c, 0, 81, 80
2, 45456, Note_on_c, 0, 81, 0
2, 45456, Note_on_c, 0, 84, 80
2, 45468, Note_on_c, 0, 84, 0
2, 45468, Note_on_c, 0, 83, 80
2, 45480, Note_on_c, 0, 83, 0
2, 45480, Note_on_c, 0, 81, 80
2, 45492, Note_on_c, 0, 81, 0
2, 45492, Note_on_c, 0, 79, 80
2, 45504, Note_on_c, 0, 79, 0
2, 45504, Note_on_c, 0, 78, 80
2, 45524, Note_on_c, 0, 78, 0
2, 45552, Note_on_c, 0, 81, 80
2, 45572, Note_on_c, 0, 81, 0
2, 45648, Note_on_c, 0, 79, 66
2, 45660, Note_on_c, 0, 79, 0
2, 45660, Note_on_c, 0, 78, 66
2, 45672, Note_on_c, 0, 78, 0
2, 45672, Note_on_c, 0, 76, 66
2, 45684, Note_on_c, 0, 76, 0
2, 45684, Note_on_c, 0, 74, 66
2, 45696, Note_on_c, 0, 74, 0
2, 45696, Note_on_c, 0, 73, 66
2, 45741, Note_on_c, 0, 73, 0
2, 45744, Note_on_c, 0, 76, 66
2, 45744, Note_on_c, 0, 67, 66
2, 45789, Note_on_c, 0, 76, 0
2, 45789, Note_on_c, 0, 67, 0
2, 45888, Note_on_c, 0, 74, 66
2, 45888, Note_on_c, 0, 66, 66
2, 45977, Note_on_c, 0, 74, 0
2, 45977, Note_on_c, 0, 66, 0
2, 46056, Note_on_c, 0, 74, 66
2, 46064, Note_on_c, 0, 74, 0
2, 46064, Note_on_c, 0, 78, 66
2, 46072, Note_on_c, 0, 78, 0
2, 46072, Note_on_c, 0, 81, 66
2, 46080, Note_on_c, 0, 81, 0
2, 46080, Note_on_c, 0, 86, 66
2, 46100, Note_on_c, 0, 86, 0
2, 46128, Note_on_c, 0, 88, 66
2, 46134, Note_on_c, 0, 88, 0
2, 46134, Note_on_c, 0, 86, 66
2, 46140, Note_on_c, 0, 86, 0
2, 46140, Note_on_c, 0, 85, 66
2, 46146, Note_on_c, 0, 85, 0
2, 46146, Note_on_c, 0, 86, 66
2, 46164, Note_on_c, 0, 86, 0
2, 46164, Note_on_c, 0, 88, 66
2, 46176, Note_on_c, 0, 88, 0
2, 46176, Note_on_c, 0, 85, 66
2, 46223, Note_on_c, 0, 85, 0
2, 46344, Note_on_c, 0, 69, 66
2, 46352, Note_on_c, 0, 69, 0
2, 46352, Note_on_c, 0, 73, 66
2, 46360, Note_on_c, 0, 73, 0
2, 46360, Note_on_c, 0, 76, 66
2, 46368, Note_on_c, 0, 76, 0
2, 46368, Note_on_c, 0, 79, 82
2, 46416, Note_on_c, 0, 79, 0
2, 46416, Note_on_c, 0, 76, 67
2, 46428, Note_on_c, 0, 76, 0
2, 46428, Note_on_c, 0, 73, 67
2, 46440, Note_on_c, 0, 73, 0
2, 46464, Note_on_c, 0, 81, 85
2, 46512, Note_on_c, 0, 81, 0
2, 46512, Note_on_c, 0, 78, 70
2, 46524, Note_on_c, 0, 78, 0
2, 46524, Note_on_c, 0, 75, 70
2, 46536, Note_on_c, 0, 75, 0
2, 46560, Note_on_c, 0, 83, 88
2, 46608, Note_on_c, 0, 83, 0
2, 46608, Note_on_c, 0, 79, 73
2, 46620, Note_on_c, 0, 79, 0
2, 46620, Note_on_c, 0, 76, 73
2, 46632, Note_on_c, 0, 76, 0
2, 46656, Note_on_c, 0, 81, 91
2, 46767, Note_on_c, 0, 81, 0
2, 46768, Note_on_c, 0, 80, 71
2, 46783, Note_on_c, 0, 80, 0
2, 46784, Note_on_c, 0, 79, 71
2, 46799, Note_on_c, 0, 79, 0
2, 46800, Note_on_c, 0, 78, 70
2, 46815, Note_on_c, 0, 78, 0
2, 46816, Note_on_c, 0, 77, 70
2, 46831, Note_on_c, 0, 77, 0
2, 46832, Note_on_c, 0, 76, 70
2, 46847, Note_on_c, 0, 76, 0
2, 46848, Note_on_c, 0, 74, 69
2, 46858, Note_on_c, 0, 74, 0
2, 46896, Note_on_c, 0, 73, 68
2, 46896, Note_on_c, 0, 67, 68
2, 46919, Note_on_c, 0, 73, 0
2, 46919, Note_on_c, 0, 67, 0
2, 46944, Note_on_c, 0, 76, 62
2, 46944, Note_on_c, 0, 67, 62
2, 47040, Note_on_c, 0, 76, 0
2, 47040, Note_on_c, 0, 67, 0
2, 47040, Note_on_c, 0, 74, 62
2, 47040, Note_on_c, 0, 66, 62
2, 47107, Note_on_c, 0, 74, 0
2, 47107, Note_on_c, 0, 66, 0
2, 47232, End_track
3, 0, Start_track
3, 0, Program_c, 0, 0
3, 0, Control_c, 0, 7, 127
3, 0, Control_c, 0, 10, 64
3, 5592, Note_on_c, 0, 81, 64
3, 5637, Note_on_c, 0, 81, 0
3, 9048, Note_on_c, 0, 81, 64
3, 9093, Note_on_c, 0, 81, 0
3, 23592, Note_on_c, 0, 74, 64
3, 23615, Note_on_c, 0, 74, 0
3, 23616, Note_on_c, 0, 74, 64
3, 23683, Note_on_c, 0, 74, 0
3, 23688, Note_on_c, 0, 74, 64
3, 23711, Note_on_c, 0, 74, 0
3, 23712, Note_on_c, 0, 74, 64
3, 23801, Note_on_c, 0, 74, 0
3, 23808, Note_on_c, 0, 73, 64
3, 23853, Note_on_c, 0, 73, 0
3, 23856, Note_on_c, 0, 76, 64
3, 23901, Note_on_c, 0, 76, 0
3, 23904, Note_on_c, 0, 76, 64
3, 23949, Note_on_c, 0, 76, 0
3, 23952, Note_on_c, 0, 74, 64
3, 23997, Note_on_c, 0, 74, 0
3, 24000, Note_on_c, 0, 74, 64
3, 24089, Note_on_c, 0, 74, 0
3, 25896, Note_on_c, 0, 74, 64
3, 25919, Note_on_c, 0, 74, 0
3, 25920, Note_on_c, 0, 74, 64
3, 25987, Note_on_c, 0, 74, 0
3, 25992, Note_on_c, 0, 74, 64
3, 26015, Note_on_c, 0, 74, 0
3, 26016, Note_on_c, 0, 74, 64
3, 26105, Note_on_c, 0, 74, 0
3, 26112, Note_on_c, 0, 73, 64
3, 26157, Note_on_c, 0, 73, 0
3, 26160, Note_on_c, 0, 76, 64
3, 26205, Note_on_c, 0, 76, 0
3, 26208, Note_on_c, 0, 76, 64
3, 26253, Note_on_c, 0, 76, 0
3, 26256, Note_on_c, 0, 74, 64
3, 26301, Note_on_c, 0, 74, 0
3, 26304, Note_on_c, 0, 74, 64
3, 26393, Note_on_c, 0, 74, 0
3, 47232, End_track
4, 0, Start_track
4, 0, Program_c, 1, 0
4, 0, Control_c, 1, 7, 127
4, 0, Control_c, 1, 10, 64
4, 288, Note_on_c, 1, 66, 66
4, 288, Note_on_c, 1, 62, 66
4, 333, Note_on_c, 1, 66, 0
4, 333, Note_on_c, 1, 62, 0
4, 384, Note_on_c, 1, 66, 66
4, 384, Note_on_c, 1, 62, 66
4, 429, Note_on_c, 1, 66, 0
4, 429, Note_on_c, 1, 62, 0
4, 576, Note_on_c, 1, 67, 66
4, 576, Note_on_c, 1, 62, 66
4, 672, Note_on_c, 1, 67, 0
4, 672, Note_on_c, 1, 66, 66
4, 717, Note_on_c, 1, 66, 0
4, 717, Note_on_c, 1, 62, 0
4, 864, Note_on_c, 1, 71, 66
4, 884, Note_on_c, 1, 71, 0
4, 948, Note_on_c, 1, 69, 66
4, 953, Note_on_c, 1, 69, 0
4, 960, Note_on_c, 1, 67, 66
4, 980, Note_on_c, 1, 67, 0
4, 1044, Note_on_c, 1, 66, 66
4, 1049, Note_on_c, 1, 66, 0
4, 1056, Note_on_c, 1, 64, 66
4, 1076, Note_on_c, 1, 64, 0
4, 1140, Note_on_c, 1, 62, 66
4, 1152, Note_on_c, 1, 62, 0
4, 1152, Note_on_c, 1, 62, 66
4, 1152, Note_on_c, 1, 57, 66
4, 1248, Note_on_c, 1, 62, 0
4, 1248, Note_on_c, 1, 61, 66
4, 1293, Note_on_c, 1, 61, 0
4, 1293, Note_on_c, 1, 57, 0
4, 1440, Note_on_c, 1, 57, 80
4, 1440, Note_on_c, 1, 54, 80
4, 1440, Note_on_c, 1, 50, 80
4, 1529, Note_on_c, 1, 57, 0
4, 1529, Note_on_c, 1, 54, 0
4, 1529, Note_on_c, 1, 50, 0
4, 1536, Note_on_c, 1, 61, 80
4, 1536, Note_on_c, 1, 57, 80
4, 1536, Note_on_c, 1, 55, 80
4, 1536, Note_on_c, 1, 52, 80
4, 1625, Note_on_c, 1, 61, 0
4, 1625, Note_on_c, 1, 57, 0
4, 1625, Note_on_c, 1, 55, 0
4, 1625, Note_on_c, 1, 52, 0
4, 1728, Note_on_c, 1, 79, 80
4, 1728, Note_on_c, 1, 76, 80
4, 1817, Note_on_c, 1, 79, 0
4, 1817, Note_on_c, 1, 76, 0
4, 1824, Note_on_c, 1, 78, 74
4, 1824, Note_on_c, 1, 75, 74
4, 1957, Note_on_c, 1, 78, 0
4, 1957, Note_on_c, 1, 75, 0
4, 1968, Note_on_c, 1, 75, 66
4, 2016, Note_on_c, 1, 75, 0
4, 2016, Note_on_c, 1, 76, 66
4, 2061, Note_on_c, 1, 76, 0
4, 2064, Note_on_c, 1, 73, 66
4, 2109, Note_on_c, 1, 73, 0
4, 2112, Note_on_c, 1, 74, 66
4, 2157, Note_on_c, 1, 74, 0
4, 2160, Note_on_c, 1, 66, 66
4, 2205, Note_on_c, 1, 66, 0
4, 2208, Note_on_c, 1, 67, 66
4, 2253, Note_on_c, 1, 67, 0
4, 2256, Note_on_c, 1, 68, 66
4, 2301, Note_on_c, 1, 68, 0
4, 2304, Note_on_c, 1, 69, 66
4, 2393, Note_on_c, 1, 69, 0
4, 2400, Note_on_c, 1, 57, 66
4, 2445, Note_on_c, 1, 57, 0
4, 2592, Note_on_c, 1, 66, 66
4, 2592, Note_on_c, 1, 62, 66
4, 2637, Note_on_c, 1, 66, 0
4, 2637, Note_on_c, 1, 62, 0
4, 2688, Note_on_c, 1, 66, 66
4, 2688, Note_on_c, 1, 62, 66
4, 2733, Note_on_c, 1, 66, 0
4, 2733, Note_on_c, 1, 62, 0
4, 2880, Note_on_c, 1, 67, 66
4, 2880, Note_on_c, 1, 62, 66
4, 2976, Note_on_c, 1, 67, 0
4, 2976, Note_on_c, 1, 66, 66
4, 3021, Note_on_c, 1, 66, 0
4, 3021, Note_on_c, 1, 62, 0
4, 3168, Note_on_c, 1, 71, 66
4, 3188, Note_on_c, 1, 71, 0
4, 3252, Note_on_c, 1, 69, 66
4, 3257, Note_on_c, 1, 69, 0
4, 3264, Note_on_c, 1, 67, 66
4, 3284, Note_on_c, 1, 67, 0
4, 3348, Note_on_c, 1, 66, 66
4, 3353, Note_on_c, 1, 66, 0
4, 3360, Note_on_c, 1, 64, 66
4, 3380, Note_on_c, 1, 64, 0
4, 3444, Note_on_c, 1, 62, 66
4, 3456, Note_on_c, 1, 62, 0
4, 3456, Note_on_c, 1, 62, 66
4, 3456, Note_on_c, 1, 57, 66
4, 3552, Note_on_c, 1, 62, 0
4, 3552, Note_on_c, 1, 61, 66
4, 3597, Note_on_c, 1, 61, 0
4, 3597, Note_on_c, 1, 57, 0
4, 3744, Note_on_c, 1, 57, 80
4, 3744, Note_on_c, 1, 54, 80
4, 3744, Note_on_c, 1, 50, 80
4, 3833, Note_on_c, 1, 57, 0
4, 3833, Note_on_c, 1, 54, 0
4, 3833, Note_on_c, 1, 50, 0
4, 3840, Note_on_c, 1, 61, 80
4, 3840, Note_on_c, 1, 57, 80
4, 3840, Note_on_c, 1, 55, 80
4, 3840, Note_on_c, 1, 52, 80
4, 3929, Note_on_c, 1, 61, 0
4, 3929, Note_on_c, 1, 57, 0
4, 3929, Note_on_c, 1, 55, 0
4, 3929, Note_on_c, 1, 52, 0
4, 4032, Note_on_c, 1, 79, 80
4, 4032, Note_on_c, 1, 76, 80
4, 4121, Note_on_c, 1, 79, 0
4, 4121, Note_on_c, 1, 76, 0
4, 4128, Note_on_c, 1, 78, 74
4, 4128, Note_on_c, 1, 75, 74
4, 4261, Note_on_c, 1, 78, 0
4, 4261, Note_on_c, 1, 75, 0
4, 4272, Note_on_c, 1, 75, 66
4, 4320, Note_on_c, 1, 75, 0
4, 4320, Note_on_c, 1, 76, 66
4, 4365, Note_on_c, 1, 76, 0
4, 4368, Note_on_c, 1, 73, 66
4, 4413, Note_on_c, 1, 73, 0
4, 4416, Note_on_c, 1, 74, 66
4, 4461, Note_on_c, 1, 74, 0
4, 4464, Note_on_c, 1, 66, 66
4, 4509, Note_on_c, 1, 66, 0
4, 4512, Note_on_c, 1, 67, 66
4, 4557, Note_on_c, 1, 67, 0
4, 4560, Note_on_c, 1, 68, 66
4, 4605, Note_on_c, 1, 68, 0
4, 4608, Note_on_c, 1, 69, 66
4, 4697, Note_on_c, 1, 69, 0
4, 4704, Note_on_c, 1, 57, 66
4, 4749, Note_on_c, 1, 57, 0
4, 4872, Note_on_c, 1, 47, 80
4, 4880, Note_on_c, 1, 47, 0
4, 4880, Note_on_c, 1, 51, 80
4, 4888, Note_on_c, 1, 51, 0
4, 4888, Note_on_c, 1, 54, 80
4, 4896, Note_on_c, 1, 54, 0
4, 4896, Note_on_c, 1, 59, 80
4, 4963, Note_on_c, 1, 59, 0
4, 4968, Note_on_c, 1, 59, 80
4, 4978, Note_on_c, 1, 59, 0
4, 4992, Note_on_c, 1, 59, 80
4, 5012, Note_on_c, 1, 59, 0
4, 5160, Note_on_c, 1, 63, 66
4, 5183, Note_on_c, 1, 63, 0
4, 5184, Note_on_c, 1, 64, 66
4, 5208, Note_on_c, 1, 64, 0
4, 5208, Note_on_c, 1, 67, 66
4, 5231, Note_on_c, 1, 67, 0
4, 5232, Note_on_c, 1, 66, 66
4, 5256, Note_on_c, 1, 66, 0
4, 5256, Note_on_c, 1, 69, 66
4, 5279, Note_on_c, 1, 69, 0
4, 5280, Note_on_c, 1, 67, 66
4, 5325, Note_on_c, 1, 67, 0
4, 5448, Note_on_c, 1, 61, 66
4, 5471, Note_on_c, 1, 61, 0
4, 5472, Note_on_c, 1, 62, 67
4, 5496, Note_on_c, 1, 62, 0
4, 5496, Note_on_c, 1, 66, 68
4, 5519, Note_on_c, 1, 66, 0
4, 5520, Note_on_c, 1, 64, 69
4, 5544, Note_on_c, 1, 64, 0
4, 5544, Note_on_c, 1, 67, 70
4, 5567, Note_on_c, 1, 67, 0
4, 5568, Note_on_c, 1, 66, 71
4, 5664, Note_on_c, 1, 66, 0
4, 5664, Note_on_c, 1, 67, 75
4, 5731, Note_on_c, 1, 67, 0
4, 5736, Note_on_c, 1, 68, 75
4, 5759, Note_on_c, 1, 68, 0
4, 5760, Note_on_c, 1, 69, 75
4, 5879, Note_on_c, 1, 69, 0
4, 5880, Note_on_c, 1, 68, 67
4, 5903, Note_on_c, 1, 68, 0
4, 5904, Note_on_c, 1, 69, 68
4, 5927, Note_on_c, 1, 69, 0
4, 5928, Note_on_c, 1, 70, 69
4, 5951, Note_on_c, 1, 70, 0
4, 5952, Note_on_c, 1, 71, 70
4, 5975, Note_on_c, 1, 71, 0
4, 5976, Note_on_c, 1, 67, 69
4, 5999, Note_on_c, 1, 67, 0
4, 6000, Note_on_c, 1, 66, 68
4, 6023, Note_on_c, 1, 66, 0
4, 6024, Note_on_c, 1, 64, 68
4, 6047, Note_on_c, 1, 64, 0
4, 6048, Note_on_c, 1, 66, 67
4, 6048, Note_on_c, 1, 62, 67
4, 6093, Note_on_c, 1, 66, 0
4, 6093, Note_on_c, 1, 62, 0
4, 6144, Note_on_c, 1, 66, 66
4, 6144, Note_on_c, 1, 62, 66
4, 6189, Note_on_c, 1, 66, 0
4, 6189, Note_on_c, 1, 62, 0
4, 6336, Note_on_c, 1, 67, 66
4, 6336, Note_on_c, 1, 62, 66
4, 6432, Note_on_c, 1, 67, 0
4, 6432, Note_on_c, 1, 66, 66
4, 6477, Note_on_c, 1, 66, 0
4, 6477, Note_on_c, 1, 62, 0
4, 6528, Note_on_c, 1, 62, 82
4, 6544, Note_on_c, 1, 62, 0
4, 6544, Note_on_c, 1, 66, 66
4, 6559, Note_on_c, 1, 66, 0
4, 6560, Note_on_c, 1, 69, 66
4, 6575, Note_on_c, 1, 69, 0
4, 6624, Note_on_c, 1, 74, 66
4, 6624, Note_on_c, 1, 71, 66
4, 6644, Note_on_c, 1, 74, 0
4, 6644, Note_on_c, 1, 71, 0
4, 6708, Note_on_c, 1, 73, 66
4, 6708, Note_on_c, 1, 69, 66
4, 6713, Note_on_c, 1, 73, 0
4, 6713, Note_on_c, 1, 69, 0
4, 6720, Note_on_c, 1, 71, 66
4, 6720, Note_on_c, 1, 67, 66
4, 6740, Note_on_c, 1, 71, 0
4, 6740, Note_on_c, 1, 67, 0
4, 6804, Note_on_c, 1, 69, 66
4, 6804, Note_on_c, 1, 66, 66
4, 6809, Note_on_c, 1, 69, 0
4, 6809, Note_on_c, 1, 66, 0
4, 6816, Note_on_c, 1, 67, 66
4, 6816, Note_on_c, 1, 64, 66
4, 6836, Note_on_c, 1, 67, 0
4, 6836, Note_on_c, 1, 64, 0
4, 6900, Note_on_c, 1, 66, 66
4, 6900, Note_on_c, 1, 62, 66
4, 6905, Note_on_c, 1, 66, 0
4, 6905, Note_on_c, 1, 62, 0
4, 6912, Note_on_c, 1, 62, 66
4, 6912, Note_on_c, 1, 57, 66
4, 7008, Note_on_c, 1, 62, 0
4, 7008, Note_on_c, 1, 61, 66
4, 7053, Note_on_c, 1, 61, 0
4, 7053, Note_on_c, 1, 57, 0
4, 7200, Note_on_c, 1, 57, 84
4, 7200, Note_on_c, 1, 54, 84
4, 7200, Note_on_c, 1, 50, 84
4, 7289, Note_on_c, 1, 57, 0
4, 7289, Note_on_c, 1, 54, 0
4, 7289, Note_on_c, 1, 50, 0
4, 7296, Note_on_c, 1, 61, 84
4, 7296, Note_on_c, 1, 57, 84
4, 7296, Note_on_c, 1, 55, 84
4, 7296, Note_on_c, 1, 52, 84
4, 7385, Note_on_c, 1, 61, 0
4, 7385, Note_on_c, 1, 57, 0
4, 7385, Note_on_c, 1, 55, 0
4, 7385, Note_on_c, 1, 52, 0
4, 7488, Note_on_c, 1, 61, 84
4, 7488, Note_on_c, 1, 55, 84
4, 7488, Note_on_c, 1, 52, 84
4, 7577, Note_on_c, 1, 61, 0
4, 7577, Note_on_c, 1, 55, 0
4, 7577, Note_on_c, 1, 52, 0
4, 7584, Note_on_c, 1, 63, 84
4, 7584, Note_on_c, 1, 60, 84
4, 7584, Note_on_c, 1, 57, 84
4, 7584, Note_on_c, 1, 54, 84
4, 7673, Note_on_c, 1, 63, 0
4, 7673, Note_on_c, 1, 60, 0
4, 7673, Note_on_c, 1, 57, 0
4, 7673, Note_on_c, 1, 54, 0
4, 7680, Note_on_c, 1, 64, 84
4, 7680, Note_on_c, 1, 59, 84
4, 7680, Note_on_c, 1, 55, 84
4, 7769, Note_on_c, 1, 64, 0
4, 7769, Note_on_c, 1, 59, 0
4, 7769, Note_on_c, 1, 55, 0
4, 7776, Note_on_c, 1, 66, 84
4, 7776, Note_on_c, 1, 62, 84
4, 7776, Note_on_c, 1, 57, 84
4, 7953, Note_on_c, 1, 66, 0
4, 7953, Note_on_c, 1, 62, 0
4, 7953, Note_on_c, 1, 57, 0
4, 7968, Note_on_c, 1, 67, 66
4, 7968, Note_on_c, 1, 64, 66
4, 7968, Note_on_c, 1, 57, 66
4, 8013, Note_on_c, 1, 67, 0
4, 8013, Note_on_c, 1, 64, 0
4, 8013, Note_on_c, 1, 57, 0
4, 8064, Note_on_c, 1, 50, 62
4, 8109, Note_on_c, 1, 50, 0
4, 8160, Note_on_c, 1, 62, 62
4, 8205, Note_on_c, 1, 62, 0
4, 8328, Note_on_c, 1, 47, 80
4, 8336, Note_on_c, 1, 47, 0
4, 8336, Note_on_c, 1, 51, 80
4, 8344, Note_on_c, 1, 51, 0
4, 8344, Note_on_c, 1, 54, 80
4, 8352, Note_on_c, 1, 54, 0
4, 8352, Note_on_c, 1, 59, 80
4, 8419, Note_on_c, 1, 59, 0
4, 8424, Note_on_c, 1, 59, 80
4, 8434, Note_on_c, 1, 59, 0
4, 8448, Note_on_c, 1, 59, 80
4, 8468, Note_on_c, 1, 59, 0
4, 8616, Note_on_c, 1, 63, 66
4, 8639, Note_on_c, 1, 63, 0
4, 8640, Note_on_c, 1, 64, 66
4, 8664, Note_on_c, 1, 64, 0
4, 8664, Note_on_c, 1, 67, 66
4, 8687, Note_on_c, 1, 67, 0
4, 8688, Note_on_c, 1, 66, 66
4, 8712, Note_on_c, 1, 66, 0
4, 8712, Note_on_c, 1, 69, 66
4, 8735, Note_on_c, 1, 69, 0
4, 8736, Note_on_c, 1, 67, 66
4, 8781, Note_on_c, 1, 67, 0
4, 8904, Note_on_c, 1, 61, 66
4, 8927, Note_on_c, 1, 61, 0
4, 8928, Note_on_c, 1, 62, 67
4, 8952, Note_on_c, 1, 62, 0
4, 8952, Note_on_c, 1, 66, 68
4, 8975, Note_on_c, 1, 66, 0
4, 8976, Note_on_c, 1, 64, 69
4, 9000, Note_on_c, 1, 64, 0
4, 9000, Note_on_c, 1, 67, 70
4, 9023, Note_on_c, 1, 67, 0
4, 9024, Note_on_c, 1, 66, 71
4, 9120, Note_on_c, 1, 66, 0
4, 9120, Note_on_c, 1, 67, 75
4, 9187, Note_on_c, 1, 67, 0
4, 9192, Note_on_c, 1, 68, 75
4, 9215, Note_on_c, 1, 68, 0
4, 9216, Note_on_c, 1, 69, 75
4, 9335, Note_on_c, 1, 69, 0
4, 9336, Note_on_c, 1, 68, 67
4, 9359, Note_on_c, 1, 68, 0
4, 9360, Note_on_c, 1, 69, 68
4, 9383, Note_on_c, 1, 69, 0
4, 9384, Note_on_c, 1, 70, 69
4, 9407, Note_on_c, 1, 70, 0
4, 9408, Note_on_c, 1, 71, 70
4, 9431, Note_on_c, 1, 71, 0
4, 9432, Note_on_c, 1, 67, 69
4, 9455, Note_on_c, 1, 67, 0
4, 9456, Note_on_c, 1, 66, 68
4, 9479, Note_on_c, 1, 66, 0
4, 9480, Note_on_c, 1, 64, 68
4, 9503, Note_on_c, 1, 64, 0
4, 9504, Note_on_c, 1, 66, 67
4, 9504, Note_on_c, 1, 62, 67
4, 9549, Note_on_c, 1, 66, 0
4, 9549, Note_on_c, 1, 62, 0
4, 9600, Note_on_c, 1, 66, 66
4, 9600, Note_on_c, 1, 62, 66
4, 9645, Note_on_c, 1, 66, 0
4, 9645, Note_on_c, 1, 62, 0
4, 9792, Note_on_c, 1, 67, 66
4, 9792, Note_on_c, 1, 62, 66
4, 9888, Note_on_c, 1, 67, 0
4, 9888, Note_on_c, 1, 66, 66
4, 9933, Note_on_c, 1, 66, 0
4, 9933, Note_on_c, 1, 62, 0
4, 9984, Note_on_c, 1, 62, 82
4, 10000, Note_on_c, 1, 62, 0
4, 10000, Note_on_c, 1, 66, 66
4, 10015, Note_on_c, 1, 66, 0
4, 10016, Note_on_c, 1, 69, 66
4, 10031, Note_on_c, 1, 69, 0
4, 10080, Note_on_c, 1, 74, 66
4, 10080, Note_on_c, 1, 71, 66
4, 10100, Note_on_c, 1, 74, 0
4, 10100, Note_on_c, 1, 71, 0
4, 10164, Note_on_c, 1, 73, 66
4, 10164, Note_on_c, 1, 69, 66
4, 10169, Note_on_c, 1, 73, 0
4, 10169, Note_on_c, 1, 69, 0
4, 10176, Note_on_c, 1, 71, 66
4, 10176, Note_on_c, 1, 67, 66
4, 10196, Note_on_c, 1, 71, 0
4, 10196, Note_on_c, 1, 67, 0
4, 10260, Note_on_c, 1, 69, 66
4, 10260, Note_on_c, 1, 66, 66
4, 10265, Note_on_c, 1, 69, 0
4, 10265, Note_on_c, 1, 66, 0
4, 10272, Note_on_c, 1, 67, 66
4, 10272, Note_on_c, 1, 64, 66
4, 10292, Note_on_c, 1, 67, 0
4, 10292, Note_on_c, 1, 64, 0
4, 10356, Note_on_c, 1, 66, 66
4, 10356, Note_on_c, 1, 62, 66
4, 10361, Note_on_c, 1, 66, 0
4, 10361, Note_on_c, 1, 62, 0
4, 10368, Note_on_c, 1, 62, 66
4, 10368, Note_on_c, 1, 57, 66
4, 10464, Note_on_c, 1, 62, 0
4, 10464, Note_on_c, 1, 61, 66
4, 10509, Note_on_c, 1, 61, 0
4, 10509, Note_on_c, 1, 57, 0
4, 10656, Note_on_c, 1, 57, 84
4, 10656, Note_on_c, 1, 54, 84
4, 10656, Note_on_c, 1, 50, 84
4, 10745, Note_on_c, 1, 57, 0
4, 10745, Note_on_c, 1, 54, 0
4, 10745, Note_on_c, 1, 50, 0
4, 10752, Note_on_c, 1, 61, 84
4, 10752, Note_on_c, 1, 57, 84
4, 10752, Note_on_c, 1, 55, 84
4, 10752, Note_on_c, 1, 52, 84
4, 10841, Note_on_c, 1, 61, 0
4, 10841, Note_on_c, 1, 57, 0
4, 10841, Note_on_c, 1, 55, 0
4, 10841, Note_on_c, 1, 52, 0
4, 10944, Note_on_c, 1, 61, 84
4, 10944, Note_on_c, 1, 55, 84
4, 10944, Note_on_c, 1, 52, 84
4, 11033, Note_on_c, 1, 61, 0
4, 11033, Note_on_c, 1, 55, 0
4, 11033, Note_on_c, 1, 52, 0
4, 11040, Note_on_c, 1, 63, 84
4, 11040, Note_on_c, 1, 60, 84
4, 11040, Note_on_c, 1, 57, 84
4, 11040, Note_on_c, 1, 54, 84
4, 11129, Note_on_c, 1, 63, 0
4, 11129, Note_on_c, 1, 60, 0
4, 11129, Note_on_c, 1, 57, 0
4, 11129, Note_on_c, 1, 54, 0
4, 11136, Note_on_c, 1, 64, 84
4, 11136, Note_on_c, 1, 59, 84
4, 11136, Note_on_c, 1, 55, 84
4, 11225, Note_on_c, 1, 64, 0
4, 11225, Note_on_c, 1, 59, 0
4, 11225, Note_on_c, 1, 55, 0
4, 11232, Note_on_c, 1, 66, 84
4, 11232, Note_on_c, 1, 62, 84
4, 11232, Note_on_c, 1, 57, 84
4, 11409, Note_on_c, 1, 66, 0
4, 11409, Note_on_c, 1, 62, 0
4, 11409, Note_on_c, 1, 57, 0
4, 11424, Note_on_c, 1, 67, 66
4, 11424, Note_on_c, 1, 64, 66
4, 11424, Note_on_c, 1, 57, 66
4, 11469, Note_on_c, 1, 67, 0
4, 11469, Note_on_c, 1, 64, 0
4, 11469, Note_on_c, 1, 57, 0
4, 11520, Note_on_c, 1, 50, 62
4, 11565, Note_on_c, 1, 50, 0
4, 11616, Note_on_c, 1, 62, 62
4, 11661, Note_on_c, 1, 62, 0
4, 11808, Note_on_c, 1, 57, 66
4, 11808, Note_on_c, 1, 54, 66
4, 11808, Note_on_c, 1, 50, 66
4, 11808, Note_on_c, 1, 45, 66
4, 11808, Note_on_c, 1, 42, 66
4, 11808, Note_on_c, 1, 38, 66
4, 11897, Note_on_c, 1, 57, 0
4, 11897, Note_on_c, 1, 54, 0
4, 11897, Note_on_c, 1, 50, 0
4, 11897, Note_on_c, 1, 45, 0
4, 11897, Note_on_c, 1, 42, 0
4, 11897, Note_on_c, 1, 38, 0
4, 11920, Note_on_c, 1, 49, 66
4, 11935, Note_on_c, 1, 49, 0
4, 11936, Note_on_c, 1, 50, 66
4, 11951, Note_on_c, 1, 50, 0
4, 11952, Note_on_c, 1, 54, 66
4, 11967, Note_on_c, 1, 54, 0
4, 11968, Note_on_c, 1, 57, 66
4, 11983, Note_on_c, 1, 57, 0
4, 11984, Note_on_c, 1, 61, 66
4, 11999, Note_on_c, 1, 61, 0
4, 12096, Note_on_c, 1, 55, 66
4, 12096, Note_on_c, 1, 50, 66
4, 12192, Note_on_c, 1, 55, 0
4, 12192, Note_on_c, 1, 54, 66
4, 12237, Note_on_c, 1, 54, 0
4, 12237, Note_on_c, 1, 50, 0
4, 12384, Note_on_c, 1, 71, 66
4, 12429, Note_on_c, 1, 71, 0
4, 12432, Note_on_c, 1, 69, 66
4, 12477, Note_on_c, 1, 69, 0
4, 12480, Note_on_c, 1, 67, 66
4, 12525, Note_on_c, 1, 67, 0
4, 12528, Note_on_c, 1, 66, 66
4, 12573, Note_on_c, 1, 66, 0
4, 12576, Note_on_c, 1, 64, 66
4, 12621, Note_on_c, 1, 64, 0
4, 12624, Note_on_c, 1, 62, 66
4, 12669, Note_on_c, 1, 62, 0
4, 12672, Note_on_c, 1, 62, 66
4, 12672, Note_on_c, 1, 57, 66
4, 12768, Note_on_c, 1, 62, 0
4, 12768, Note_on_c, 1, 61, 66
4, 12813, Note_on_c, 1, 61, 0
4, 12813, Note_on_c, 1, 57, 0
4, 12960, Note_on_c, 1, 57, 66
4, 12960, Note_on_c, 1, 54, 66
4, 12960, Note_on_c, 1, 50, 66
4, 13049, Note_on_c, 1, 57, 0
4, 13049, Note_on_c, 1, 54, 0
4, 13049, Note_on_c, 1, 50, 0
4, 13056, Note_on_c, 1, 61, 66
4, 13056, Note_on_c, 1, 57, 66
4, 13056, Note_on_c, 1, 55, 66
4, 13056, Note_on_c, 1, 52, 66
4, 13145, Note_on_c, 1, 61, 0
4, 13145, Note_on_c, 1, 57, 0
4, 13145, Note_on_c, 1, 55, 0
4, 13145, Note_on_c, 1, 52, 0
4, 13248, Note_on_c, 1, 67, 66
4, 13337, Note_on_c, 1, 67, 0
4, 13344, Note_on_c, 1, 66, 80
4, 13433, Note_on_c, 1, 66, 0
4, 13440, Note_on_c, 1, 72, 80
4, 13529, Note_on_c, 1, 72, 0
4, 13536, Note_on_c, 1, 71, 80
4, 13581, Note_on_c, 1, 71, 0
4, 13584, Note_on_c, 1, 73, 78
4, 13629, Note_on_c, 1, 73, 0
4, 13632, Note_on_c, 1, 74, 76
4, 13677, Note_on_c, 1, 74, 0
4, 13680, Note_on_c, 1, 69, 74
4, 13725, Note_on_c, 1, 69, 0
4, 13728, Note_on_c, 1, 71, 73
4, 13817, Note_on_c, 1, 71, 0
4, 13824, Note_on_c, 1, 66, 69
4, 13824, Note_on_c, 1, 57, 69
4, 13920, Note_on_c, 1, 66, 0
4, 13920, Note_on_c, 1, 64, 66
4, 13965, Note_on_c, 1, 64, 0
4, 13965, Note_on_c, 1, 57, 0
4, 14112, Note_on_c, 1, 57, 66
4, 14112, Note_on_c, 1, 54, 66
4, 14112, Note_on_c, 1, 50, 66
4, 14112, Note_on_c, 1, 45, 66
4, 14112, Note_on_c, 1, 42, 66
4, 14112, Note_on_c, 1, 38, 66
4, 14201, Note_on_c, 1, 57, 0
4, 14201, Note_on_c, 1, 54, 0
4, 14201, Note_on_c, 1, 50, 0
4, 14201, Note_on_c, 1, 45, 0
4, 14201, Note_on_c, 1, 42, 0
4, 14201, Note_on_c, 1, 38, 0
4, 14224, Note_on_c, 1, 49, 66
4, 14239, Note_on_c, 1, 49, 0
4, 14240, Note_on_c, 1, 50, 66
4, 14255, Note_on_c, 1, 50, 0
4, 14256, Note_on_c, 1, 54, 66
4, 14271, Note_on_c, 1, 54, 0
4, 14272, Note_on_c, 1, 57, 66
4, 14287, Note_on_c, 1, 57, 0
4, 14288, Note_on_c, 1, 61, 66
4, 14303, Note_on_c, 1, 61, 0
4, 14400, Note_on_c, 1, 55, 66
4, 14400, Note_on_c, 1, 50, 66
4, 14496, Note_on_c, 1, 55, 0
4, 14496, Note_on_c, 1, 54, 66
4, 14541, Note_on_c, 1, 54, 0
4, 14541, Note_on_c, 1, 50, 0
4, 14688, Note_on_c, 1, 71, 66
4, 14733, Note_on_c, 1, 71, 0
4, 14736, Note_on_c, 1, 69, 66
4, 14781, Note_on_c, 1, 69, 0
4, 14784, Note_on_c, 1, 67, 66
4, 14829, Note_on_c, 1, 67, 0
4, 14832, Note_on_c, 1, 66, 66
4, 14877, Note_on_c, 1, 66, 0
4, 14880, Note_on_c, 1, 64, 66
4, 14925, Note_on_c, 1, 64, 0
4, 14928, Note_on_c, 1, 62, 66
4, 14973, Note_on_c, 1, 62, 0
4, 14976, Note_on_c, 1, 62, 66
4, 14976, Note_on_c, 1, 57, 66
4, 15072, Note_on_c, 1, 62, 0
4, 15072, Note_on_c, 1, 61, 66
4, 15117, Note_on_c, 1, 61, 0
4, 15117, Note_on_c, 1, 57, 0
4, 15264, Note_on_c, 1, 57, 66
4, 15264, Note_on_c, 1, 54, 66
4, 15264, Note_on_c, 1, 50, 66
4, 15353, Note_on_c, 1, 57, 0
4, 15353, Note_on_c, 1, 54, 0
4, 15353, Note_on_c, 1, 50, 0
4, 15360, Note_on_c, 1, 61, 66
4, 15360, Note_on_c, 1, 57, 66
4, 15360, Note_on_c, 1, 55, 66
4, 15360, Note_on_c, 1, 52, 66
4, 15449, Note_on_c, 1, 61, 0
4, 15449, Note_on_c, 1, 57, 0
4, 15449, Note_on_c, 1, 55, 0
4, 15449, Note_on_c, 1, 52, 0
4, 15552, Note_on_c, 1, 67, 66
4, 15641, Note_on_c, 1, 67, 0
4, 15648, Note_on_c, 1, 66, 80
4, 15737, Note_on_c, 1, 66, 0
4, 15744, Note_on_c, 1, 72, 80
4, 15833, Note_on_c, 1, 72, 0
4, 15840, Note_on_c, 1, 71, 80
4, 15885, Note_on_c, 1, 71, 0
4, 15888, Note_on_c, 1, 73, 78
4, 15933, Note_on_c, 1, 73, 0
4, 15936, Note_on_c, 1, 74, 76
4, 15981, Note_on_c, 1, 74, 0
4, 15984, Note_on_c, 1, 69, 74
4, 16029, Note_on_c, 1, 69, 0
4, 16032, Note_on_c, 1, 71, 73
4, 16121, Note_on_c, 1, 71, 0
4, 16128, Note_on_c, 1, 66, 69
4, 16128, Note_on_c, 1, 57, 69
4, 16224, Note_on_c, 1, 66, 0
4, 16224, Note_on_c, 1, 64, 66
4, 16269, Note_on_c, 1, 64, 0
4, 16269, Note_on_c, 1, 57, 0
4, 16560, Note_on_c, 1, 60, 66
4, 16584, Note_on_c, 1, 60, 0
4, 16584, Note_on_c, 1, 57, 66
4, 16607, Note_on_c, 1, 57, 0
4, 16608, Note_on_c, 1, 59, 66
4, 16632, Note_on_c, 1, 59, 0
4, 16632, Note_on_c, 1, 55, 66
4, 16655, Note_on_c, 1, 55, 0
4, 16656, Note_on_c, 1, 57, 66
4, 16680, Note_on_c, 1, 57, 0
4, 16680, Note_on_c, 1, 54, 66
4, 16703, Note_on_c, 1, 54, 0
4, 16704, Note_on_c, 1, 55, 66
4, 16749, Note_on_c, 1, 55, 0
4, 16848, Note_on_c, 1, 59, 66
4, 16872, Note_on_c, 1, 59, 0
4, 16872, Note_on_c, 1, 55, 66
4, 16895, Note_on_c, 1, 55, 0
4, 16896, Note_on_c, 1, 57, 66
4, 16920, Note_on_c, 1, 57, 0
4, 16920, Note_on_c, 1, 54, 66
4, 16943, Note_on_c, 1, 54, 0
4, 16944, Note_on_c, 1, 55, 66
4, 16968, Note_on_c, 1, 55, 0
4, 16968, Note_on_c, 1, 52, 66
4, 16991, Note_on_c, 1, 52, 0
4, 16992, Note_on_c, 1, 54, 66
4, 17037, Note_on_c, 1, 54, 0
4, 17112, Note_on_c, 1, 54, 80
4, 17135, Note_on_c, 1, 54, 0
4, 17136, Note_on_c, 1, 42, 80
4, 17159, Note_on_c, 1, 42, 0
4, 17160, Note_on_c, 1, 54, 80
4, 17183, Note_on_c, 1, 54, 0
4, 17184, Note_on_c, 1, 43, 80
4, 17207, Note_on_c, 1, 43, 0
4, 17208, Note_on_c, 1, 55, 80
4, 17231, Note_on_c, 1, 55, 0
4, 17232, Note_on_c, 1, 44, 80
4, 17255, Note_on_c, 1, 44, 0
4, 17256, Note_on_c, 1, 56, 80
4, 17279, Note_on_c, 1, 56, 0
4, 17304, Note_on_c, 1, 45, 80
4, 17327, Note_on_c, 1, 45, 0
4, 17328, Note_on_c, 1, 57, 80
4, 17351, Note_on_c, 1, 57, 0
4, 17352, Note_on_c, 1, 56, 80
4, 17375, Note_on_c, 1, 56, 0
4, 17376, Note_on_c, 1, 57, 80
4, 17386, Note_on_c, 1, 57, 0
4, 17400, Note_on_c, 1, 57, 80
4, 17423, Note_on_c, 1, 57, 0
4, 17424, Note_on_c, 1, 61, 80
4, 17447, Note_on_c, 1, 61, 0
4, 17448, Note_on_c, 1, 64, 80
4, 17471, Note_on_c, 1, 64, 0
4, 17472, Note_on_c, 1, 69, 80
4, 17495, Note_on_c, 1, 69, 0
4, 17496, Note_on_c, 1, 66, 76
4, 17519, Note_on_c, 1, 66, 0
4, 17520, Note_on_c, 1, 67, 73
4, 17543, Note_on_c, 1, 67, 0
4, 17544, Note_on_c, 1, 64, 69
4, 17567, Note_on_c, 1, 64, 0
4, 17568, Note_on_c, 1, 66, 66
4, 17568, Note_on_c, 1, 62, 66
4, 17613, Note_on_c, 1, 66, 0
4, 17613, Note_on_c, 1, 62, 0
4, 17664, Note_on_c, 1, 66, 66
4, 17664, Note_on_c, 1, 62, 66
4, 17709, Note_on_c, 1, 66, 0
4, 17709, Note_on_c, 1, 62, 0
4, 17856, Note_on_c, 1, 67, 80
4, 17856, Note_on_c, 1, 62, 80
4, 17952, Note_on_c, 1, 67, 0
4, 17952, Note_on_c, 1, 66, 80
4, 17997, Note_on_c, 1, 66, 0
4, 17997, Note_on_c, 1, 62, 0
4, 18144, Note_on_c, 1, 74, 80
4, 18144, Note_on_c, 1, 71, 80
4, 18164, Note_on_c, 1, 74, 0
4, 18164, Note_on_c, 1, 71, 0
4, 18228, Note_on_c, 1, 73, 80
4, 18228, Note_on_c, 1, 69, 80
4, 18233, Note_on_c, 1, 73, 0
4, 18233, Note_on_c, 1, 69, 0
4, 18240, Note_on_c, 1, 71, 80
4, 18240, Note_on_c, 1, 67, 80
4, 18260, Note_on_c, 1, 71, 0
4, 18260, Note_on_c, 1, 67, 0
4, 18324, Note_on_c, 1, 69, 80
4, 18324, Note_on_c, 1, 66, 80
4, 18329, Note_on_c, 1, 69, 0
4, 18329, Note_on_c, 1, 66, 0
4, 18336, Note_on_c, 1, 67, 80
4, 18336, Note_on_c, 1, 64, 80
4, 18356, Note_on_c, 1, 67, 0
4, 18356, Note_on_c, 1, 64, 0
4, 18420, Note_on_c, 1, 66, 80
4, 18420, Note_on_c, 1, 62, 80
4, 18432, Note_on_c, 1, 66, 0
4, 18432, Note_on_c, 1, 62, 0
4, 18432, Note_on_c, 1, 62, 80
4, 18432, Note_on_c, 1, 57, 80
4, 18528, Note_on_c, 1, 62, 0
4, 18528, Note_on_c, 1, 61, 80
4, 18573, Note_on_c, 1, 61, 0
4, 18573, Note_on_c, 1, 57, 0
4, 18720, Note_on_c, 1, 57, 84
4, 18720, Note_on_c, 1, 54, 84
4, 18720, Note_on_c, 1, 50, 84
4, 18809, Note_on_c, 1, 57, 0
4, 18809, Note_on_c, 1, 54, 0
4, 18809, Note_on_c, 1, 50, 0
4, 18816, Note_on_c, 1, 61, 84
4, 18816, Note_on_c, 1, 57, 84
4, 18816, Note_on_c, 1, 55, 84
4, 18816, Note_on_c, 1, 52, 84
4, 18905, Note_on_c, 1, 61, 0
4, 18905, Note_on_c, 1, 57, 0
4, 18905, Note_on_c, 1, 55, 0
4, 18905, Note_on_c, 1, 52, 0
4, 19008, Note_on_c, 1, 61, 108
4, 19008, Note_on_c, 1, 55, 108
4, 19008, Note_on_c, 1, 52, 108
4, 19097, Note_on_c, 1, 61, 0
4, 19097, Note_on_c, 1, 55, 0
4, 19097, Note_on_c, 1, 52, 0
4, 19104, Note_on_c, 1, 63, 108
4, 19104, Note_on_c, 1, 60, 108
4, 19104, Note_on_c, 1, 57, 108
4, 19104, Note_on_c, 1, 54, 108
4, 19193, Note_on_c, 1, 63, 0
4, 19193, Note_on_c, 1, 60, 0
4, 19193, Note_on_c, 1, 57, 0
4, 19193, Note_on_c, 1, 54, 0
4, 19200, Note_on_c, 1, 64, 108
4, 19200, Note_on_c, 1, 59, 108
4, 19200, Note_on_c, 1, 55, 108
4, 19289, Note_on_c, 1, 64, 0
4, 19289, Note_on_c, 1, 59, 0
4, 19289, Note_on_c, 1, 55, 0
4, 19296, Note_on_c, 1, 66, 108
4, 19296, Note_on_c, 1, 62, 108
4, 19296, Note_on_c, 1, 57, 108
4, 19473, Note_on_c, 1, 66, 0
4, 19473, Note_on_c, 1, 62, 0
4, 19473, Note_on_c, 1, 57, 0
4, 19488, Note_on_c, 1, 67, 66
4, 19488, Note_on_c, 1, 64, 66
4, 19488, Note_on_c, 1, 57, 66
4, 19533, Note_on_c, 1, 67, 0
4, 19533, Note_on_c, 1, 64, 0
4, 19533, Note_on_c, 1, 57, 0
4, 19584, Note_on_c, 1, 50, 66
4, 19680, Note_on_c, 1, 50, 0
4, 19680, Note_on_c, 1, 62, 66
4, 19725, Note_on_c, 1, 62, 0
4, 20016, Note_on_c, 1, 60, 66
4, 20040, Note_on_c, 1, 60, 0
4, 20040, Note_on_c, 1, 57, 66
4, 20063, Note_on_c, 1, 57, 0
4, 20064, Note_on_c, 1, 59, 66
4, 20088, Note_on_c, 1, 59, 0
4, 20088, Note_on_c, 1, 55, 66
4, 20111, Note_on_c, 1, 55, 0
4, 20112, Note_on_c, 1, 57, 66
4, 20136, Note_on_c, 1, 57, 0
4, 20136, Note_on_c, 1, 54, 66
4, 20159, Note_on_c, 1, 54, 0
4, 20160, Note_on_c, 1, 55, 66
4, 20205, Note_on_c, 1, 55, 0
4, 20304, Note_on_c, 1, 59, 66
4, 20328, Note_on_c, 1, 59, 0
4, 20328, Note_on_c, 1, 55, 66
4, 20351, Note_on_c, 1, 55, 0
4, 20352, Note_on_c, 1, 57, 66
4, 20376, Note_on_c, 1, 57, 0
4, 20376, Note_on_c, 1, 54, 66
4, 20399, Note_on_c, 1, 54, 0
4, 20400, Note_on_c, 1, 55, 66
4, 20424, Note_on_c, 1, 55, 0
4, 20424, Note_on_c, 1, 52, 66
4, 20447, Note_on_c, 1, 52, 0
4, 20448, Note_on_c, 1, 54, 66
4, 20493, Note_on_c, 1, 54, 0
4, 20568, Note_on_c, 1, 54, 80
4, 20591, Note_on_c, 1, 54, 0
4, 20592, Note_on_c, 1, 42, 80
4, 20615, Note_on_c, 1, 42, 0
4, 20616, Note_on_c, 1, 54, 80
4, 20639, Note_on_c, 1, 54, 0
4, 20640, Note_on_c, 1, 43, 80
4, 20663, Note_on_c, 1, 43, 0
4, 20664, Note_on_c, 1, 55, 80
4, 20687, Note_on_c, 1, 55, 0
4, 20688, Note_on_c, 1, 44, 80
4, 20711, Note_on_c, 1, 44, 0
4, 20712, Note_on_c, 1, 56, 80
4, 20735, Note_on_c, 1, 56, 0
4, 20760, Note_on_c, 1, 45, 80
4, 20783, Note_on_c, 1, 45, 0
4, 20784, Note_on_c, 1, 57, 80
4, 20807, Note_on_c, 1, 57, 0
4, 20808, Note_on_c, 1, 56, 80
4, 20831, Note_on_c, 1, 56, 0
4, 20832, Note_on_c, 1, 57, 80
4, 20842, Note_on_c, 1, 57, 0
4, 20856, Note_on_c, 1, 57, 80
4, 20879, Note_on_c, 1, 57, 0
4, 20880, Note_on_c, 1, 61, 80
4, 20903, Note_on_c, 1, 61, 0
4, 20904, Note_on_c, 1, 64, 80
4, 20927, Note_on_c, 1, 64, 0
4, 20928, Note_on_c, 1, 69, 80
4, 20951, Note_on_c, 1, 69, 0
4, 20952, Note_on_c, 1, 66, 76
4, 20975, Note_on_c, 1, 66, 0
4, 20976, Note_on_c, 1, 67, 73
4, 20999, Note_on_c, 1, 67, 0
4, 21000, Note_on_c, 1, 64, 69
4, 21023, Note_on_c, 1, 64, 0
4, 21024, Note_on_c, 1, 66, 66
4, 21024, Note_on_c, 1, 62, 66
4, 21069, Note_on_c, 1, 66, 0
4, 21069, Note_on_c, 1, 62, 0
4, 21120, Note_on_c, 1, 66, 66
4, 21120, Note_on_c, 1, 62, 66
4, 21165, Note_on_c, 1, 66, 0
4, 21165, Note_on_c, 1, 62, 0
4, 21312, Note_on_c, 1, 67, 80
4, 21312, Note_on_c, 1, 62, 80
4, 21408, Note_on_c, 1, 67, 0
4, 21408, Note_on_c, 1, 66, 80
4, 21453, Note_on_c, 1, 66, 0
4, 21453, Note_on_c, 1, 62, 0
4, 21600, Note_on_c, 1, 74, 80
4, 21600, Note_on_c, 1, 71, 80
4, 21620, Note_on_c, 1, 74, 0
4, 21620, Note_on_c, 1, 71, 0
4, 21684, Note_on_c, 1, 73, 80
4, 21684, Note_on_c, 1, 69, 80
4, 21689, Note_on_c, 1, 73, 0
4, 21689, Note_on_c, 1, 69, 0
4, 21696, Note_on_c, 1, 71, 80
4, 21696, Note_on_c, 1, 67, 80
4, 21716, Note_on_c, 1, 71, 0
4, 21716, Note_on_c, 1, 67, 0
4, 21780, Note_on_c, 1, 69, 80
4, 21780, Note_on_c, 1, 66, 80
4, 21785, Note_on_c, 1, 69, 0
4, 21785, Note_on_c, 1, 66, 0
4, 21792, Note_on_c, 1, 67, 80
4, 21792, Note_on_c, 1, 64, 80
4, 21812, Note_on_c, 1, 67, 0
4, 21812, Note_on_c, 1, 64, 0
4, 21876, Note_on_c, 1, 66, 80
4, 21876, Note_on_c, 1, 62, 80
4, 21888, Note_on_c, 1, 66, 0
4, 21888, Note_on_c, 1, 62, 0
4, 21888, Note_on_c, 1, 62, 80
4, 21888, Note_on_c, 1, 57, 80
4, 21984, Note_on_c, 1, 62, 0
4, 21984, Note_on_c, 1, 61, 80
4, 22029, Note_on_c, 1, 61, 0
4, 22029, Note_on_c, 1, 57, 0
4, 22176, Note_on_c, 1, 57, 84
4, 22176, Note_on_c, 1, 54, 84
4, 22176, Note_on_c, 1, 50, 84
4, 22265, Note_on_c, 1, 57, 0
4, 22265, Note_on_c, 1, 54, 0
4, 22265, Note_on_c, 1, 50, 0
4, 22272, Note_on_c, 1, 61, 84
4, 22272, Note_on_c, 1, 57, 84
4, 22272, Note_on_c, 1, 55, 84
4, 22272, Note_on_c, 1, 52, 84
4, 22361, Note_on_c, 1, 61, 0
4, 22361, Note_on_c, 1, 57, 0
4, 22361, Note_on_c, 1, 55, 0
4, 22361, Note_on_c, 1, 52, 0
4, 22464, Note_on_c, 1, 61, 108
4, 22464, Note_on_c, 1, 55, 108
4, 22464, Note_on_c, 1, 52, 108
4, 22553, Note_on_c, 1, 61, 0
4, 22553, Note_on_c, 1, 55, 0
4, 22553, Note_on_c, 1, 52, 0
4, 22560, Note_on_c, 1, 63, 108
4, 22560, Note_on_c, 1, 60, 108
4, 22560, Note_on_c, 1, 57, 108
4, 22560, Note_on_c, 1, 54, 108
4, 22649, Note_on_c, 1, 63, 0
4, 22649, Note_on_c, 1, 60, 0
4, 22649, Note_on_c, 1, 57, 0
4, 22649, Note_on_c, 1, 54, 0
4, 22656, Note_on_c, 1, 64, 108
4, 22656, Note_on_c, 1, 59, 108
4, 22656, Note_on_c, 1, 55, 108
4, 22745, Note_on_c, 1, 64, 0
4, 22745, Note_on_c, 1, 59, 0
4, 22745, Note_on_c, 1, 55, 0
4, 22752, Note_on_c, 1, 66, 108
4, 22752, Note_on_c, 1, 62, 108
4, 22752, Note_on_c, 1, 57, 108
4, 22929, Note_on_c, 1, 66, 0
4, 22929, Note_on_c, 1, 62, 0
4, 22929, Note_on_c, 1, 57, 0
4, 22944, Note_on_c, 1, 67, 66
4, 22944, Note_on_c, 1, 64, 66
4, 22944, Note_on_c, 1, 57, 66
4, 22989, Note_on_c, 1, 67, 0
4, 22989, Note_on_c, 1, 64, 0
4, 22989, Note_on_c, 1, 57, 0
4, 23040, Note_on_c, 1, 50, 66
4, 23136, Note_on_c, 1, 50, 0
4, 23136, Note_on_c, 1, 62, 66
4, 23181, Note_on_c, 1, 62, 0
4, 23328, Note_on_c, 1, 62, 75
4, 23328, Note_on_c, 1, 57, 75
4, 23328, Note_on_c, 1, 53, 75
4, 23328, Note_on_c, 1, 50, 75
4, 23417, Note_on_c, 1, 62, 0
4, 23417, Note_on_c, 1, 57, 0
4, 23417, Note_on_c, 1, 53, 0
4, 23417, Note_on_c, 1, 50, 0
4, 23440, Note_on_c, 1, 62, 75
4, 23455, Note_on_c, 1, 62, 0
4, 23456, Note_on_c, 1, 60, 75
4, 23471, Note_on_c, 1, 60, 0
4, 23472, Note_on_c, 1, 58, 75
4, 23487, Note_on_c, 1, 58, 0
4, 23488, Note_on_c, 1, 57, 75
4, 23503, Note_on_c, 1, 57, 0
4, 23504, Note_on_c, 1, 55, 75
4, 23519, Note_on_c, 1, 55, 0
4, 23520, Note_on_c, 1, 53, 75
4, 23535, Note_on_c, 1, 53, 0
4, 23536, Note_on_c, 1, 52, 75
4, 23551, Note_on_c, 1, 52, 0
4, 23552, Note_on_c, 1, 50, 75
4, 23567, Note_on_c, 1, 50, 0
4, 23568, Note_on_c, 1, 48, 75
4, 23583, Note_on_c, 1, 48, 0
4, 23584, Note_on_c, 1, 46, 75
4, 23599, Note_on_c, 1, 46, 0
4, 23600, Note_on_c, 1, 45, 75
4, 23615, Note_on_c, 1, 45, 0
4, 23616, Note_on_c, 1, 43, 75
4, 23705, Note_on_c, 1, 43, 0
4, 23728, Note_on_c, 1, 55, 75
4, 23743, Note_on_c, 1, 55, 0
4, 23744, Note_on_c, 1, 57, 75
4, 23759, Note_on_c, 1, 57, 0
4, 23760, Note_on_c, 1, 58, 75
4, 23775, Note_on_c, 1, 58, 0
4, 23776, Note_on_c, 1, 60, 75
4, 23791, Note_on_c, 1, 60, 0
4, 23792, Note_on_c, 1, 62, 75
4, 23807, Note_on_c, 1, 62, 0
4, 23808, Note_on_c, 1, 64, 75
4, 23823, Note_on_c, 1, 64, 0
4, 23824, Note_on_c, 1, 65, 75
4, 23839, Note_on_c, 1, 65, 0
4, 23840, Note_on_c, 1, 67, 75
4, 23855, Note_on_c, 1, 67, 0
4, 23856, Note_on_c, 1, 57, 75
4, 23871, Note_on_c, 1, 57, 0
4, 23872, Note_on_c, 1, 59, 75
4, 23887, Note_on_c, 1, 59, 0
4, 23888, Note_on_c, 1, 61, 75
4, 23903, Note_on_c, 1, 61, 0
4, 23904, Note_on_c, 1, 62, 75
4, 23919, Note_on_c, 1, 62, 0
4, 23920, Note_on_c, 1, 64, 75
4, 23935, Note_on_c, 1, 64, 0
4, 23936, Note_on_c, 1, 65, 75
4, 23951, Note_on_c, 1, 65, 0
4, 23952, Note_on_c, 1, 58, 75
4, 23967, Note_on_c, 1, 58, 0
4, 23968, Note_on_c, 1, 60, 75
4, 23983, Note_on_c, 1, 60, 0
4, 23984, Note_on_c, 1, 62, 75
4, 23999, Note_on_c, 1, 62, 0
4, 24000, Note_on_c, 1, 55, 75
4, 24015, Note_on_c, 1, 55, 0
4, 24016, Note_on_c, 1, 57, 75
4, 24031, Note_on_c, 1, 57, 0
4, 24032, Note_on_c, 1, 58, 75
4, 24047, Note_on_c, 1, 58, 0
4, 24048, Note_on_c, 1, 52, 75
4, 24063, Note_on_c, 1, 52, 0
4, 24064, Note_on_c, 1, 53, 75
4, 24079, Note_on_c, 1, 53, 0
4, 24080, Note_on_c, 1, 55, 75
4, 24095, Note_on_c, 1, 55, 0
4, 24096, Note_on_c, 1, 48, 75
4, 24111, Note_on_c, 1, 48, 0
4, 24112, Note_on_c, 1, 52, 75
4, 24127, Note_on_c, 1, 52, 0
4, 24128, Note_on_c, 1, 55, 75
4, 24143, Note_on_c, 1, 55, 0
4, 24144, Note_on_c, 1, 60, 75
4, 24159, Note_on_c, 1, 60, 0
4, 24160, Note_on_c, 1, 64, 75
4, 24175, Note_on_c, 1, 64, 0
4, 24176, Note_on_c, 1, 60, 75
4, 24191, Note_on_c, 1, 60, 0
4, 24192, Note_on_c, 1, 65, 75
4, 24281, Note_on_c, 1, 65, 0
4, 24288, Note_on_c, 1, 67, 75
4, 24377, Note_on_c, 1, 67, 0
4, 24384, Note_on_c, 1, 69, 75
4, 24473, Note_on_c, 1, 69, 0
4, 24480, Note_on_c, 1, 70, 75
4, 24569, Note_on_c, 1, 70, 0
4, 24576, Note_on_c, 1, 69, 75
4, 24665, Note_on_c, 1, 69, 0
4, 24672, Note_on_c, 1, 70, 75
4, 24761, Note_on_c, 1, 70, 0
4, 24768, Note_on_c, 1, 74, 75
4, 24816, Note_on_c, 1, 74, 0
4, 24816, Note_on_c, 1, 72, 75
4, 24861, Note_on_c, 1, 72, 0
4, 24864, Note_on_c, 1, 70, 75
4, 24909, Note_on_c, 1, 70, 0
4, 24912, Note_on_c, 1, 69, 75
4, 24957, Note_on_c, 1, 69, 0
4, 24960, Note_on_c, 1, 67, 75
4, 25005, Note_on_c, 1, 67, 0
4, 25008, Note_on_c, 1, 64, 75
4, 25053, Note_on_c, 1, 64, 0
4, 25056, Note_on_c, 1, 65, 75
4, 25101, Note_on_c, 1, 65, 0
4, 25104, Note_on_c, 1, 58, 75
4, 25149, Note_on_c, 1, 58, 0
4, 25152, Note_on_c, 1, 57, 75
4, 25241, Note_on_c, 1, 57, 0
4, 25248, Note_on_c, 1, 58, 75
4, 25337, Note_on_c, 1, 58, 0
4, 25344, Note_on_c, 1, 41, 75
4, 25359, Note_on_c, 1, 41, 0
4, 25360, Note_on_c, 1, 45, 75
4, 25375, Note_on_c, 1, 45, 0
4, 25376, Note_on_c, 1, 48, 75
4, 25391, Note_on_c, 1, 48, 0
4, 25392, Note_on_c, 1, 53, 75
4, 25407, Note_on_c, 1, 53, 0
4, 25408, Note_on_c, 1, 57, 75
4, 25423, Note_on_c, 1, 57, 0
4, 25424, Note_on_c, 1, 53, 75
4, 25439, Note_on_c, 1, 53, 0
4, 25440, Note_on_c, 1, 48, 75
4, 25455, Note_on_c, 1, 48, 0
4, 25456, Note_on_c, 1, 53, 75
4, 25471, Note_on_c, 1, 53, 0
4, 25472, Note_on_c, 1, 48, 75
4, 25487, Note_on_c, 1, 48, 0
4, 25488, Note_on_c, 1, 45, 75
4, 25503, Note_on_c, 1, 45, 0
4, 25504, Note_on_c, 1, 48, 75
4, 25519, Note_on_c, 1, 48, 0
4, 25520, Note_on_c, 1, 45, 75
4, 25535, Note_on_c, 1, 45, 0
4, 25536, Note_on_c, 1, 41, 75
4, 25581, Note_on_c, 1, 41, 0
4, 25632, Note_on_c, 1, 62, 75
4, 25632, Note_on_c, 1, 57, 75
4, 25632, Note_on_c, 1, 53, 75
4, 25632, Note_on_c, 1, 50, 75
4, 25721, Note_on_c, 1, 62, 0
4, 25721, Note_on_c, 1, 57, 0
4, 25721, Note_on_c, 1, 53, 0
4, 25721, Note_on_c, 1, 50, 0
4, 25744, Note_on_c, 1, 62, 75
4, 25759, Note_on_c, 1, 62, 0
4, 25760, Note_on_c, 1, 60, 75
4, 25775, Note_on_c, 1, 60, 0
4, 25776, Note_on_c, 1, 58, 75
4, 25791, Note_on_c, 1, 58, 0
4, 25792, Note_on_c, 1, 57, 75
4, 25807, Note_on_c, 1, 57, 0
4, 25808, Note_on_c, 1, 55, 75
4, 25823, Note_on_c, 1, 55, 0
4, 25824, Note_on_c, 1, 53, 75
4, 25839, Note_on_c, 1, 53, 0
4, 25840, Note_on_c, 1, 52, 75
4, 25855, Note_on_c, 1, 52, 0
4, 25856, Note_on_c, 1, 50, 75
4, 25871, Note_on_c, 1, 50, 0
4, 25872, Note_on_c, 1, 48, 75
4, 25887, Note_on_c, 1, 48, 0
4, 25888, Note_on_c, 1, 46, 75
4, 25903, Note_on_c, 1, 46, 0
4, 25904, Note_on_c, 1, 45, 75
4, 25919, Note_on_c, 1, 45, 0
4, 25920, Note_on_c, 1, 43, 75
4, 26009, Note_on_c, 1, 43, 0
4, 26032, Note_on_c, 1, 55, 75
4, 26047, Note_on_c, 1, 55, 0
4, 26048, Note_on_c, 1, 57, 75
4, 26063, Note_on_c, 1, 57, 0
4, 26064, Note_on_c, 1, 58, 75
4, 26079, Note_on_c, 1, 58, 0
4, 26080, Note_on_c, 1, 60, 75
4, 26095, Note_on_c, 1, 60, 0
4, 26096, Note_on_c, 1, 62, 75
4, 26111, Note_on_c, 1, 62, 0
4, 26112, Note_on_c, 1, 64, 75
4, 26127, Note_on_c, 1, 64, 0
4, 26128, Note_on_c, 1, 65, 75
4, 26143, Note_on_c, 1, 65, 0
4, 26144, Note_on_c, 1, 67, 75
4, 26159, Note_on_c, 1, 67, 0
4, 26160, Note_on_c, 1, 57, 75
4, 26175, Note_on_c, 1, 57, 0
4, 26176, Note_on_c, 1, 59, 75
4, 26191, Note_on_c, 1, 59, 0
4, 26192, Note_on_c, 1, 61, 75
4, 26207, Note_on_c, 1, 61, 0
4, 26208, Note_on_c, 1, 62, 75
4, 26223, Note_on_c, 1, 62, 0
4, 26224, Note_on_c, 1, 64, 75
4, 26239, Note_on_c, 1, 64, 0
4, 26240, Note_on_c, 1, 65, 75
4, 26255, Note_on_c, 1, 65, 0
4, 26256, Note_on_c, 1, 58, 75
4, 26271, Note_on_c, 1, 58, 0
4, 26272, Note_on_c, 1, 60, 75
4, 26287, Note_on_c, 1, 60, 0
4, 26288, Note_on_c, 1, 62, 75
4, 26303, Note_on_c, 1, 62, 0
4, 26304, Note_on_c, 1, 55, 75
4, 26319, Note_on_c, 1, 55, 0
4, 26320, Note_on_c, 1, 57, 75
4, 26335, Note_on_c, 1, 57, 0
4, 26336, Note_on_c, 1, 58, 75
4, 26351, Note_on_c, 1, 58, 0
4, 26352, Note_on_c, 1, 52, 75
4, 26367, Note_on_c, 1, 52, 0
4, 26368, Note_on_c, 1, 53, 75
4, 26383, Note_on_c, 1, 53, 0
4, 26384, Note_on_c, 1, 55, 75
4, 26399, Note_on_c, 1, 55, 0
4, 26400, Note_on_c, 1, 48, 75
4, 26415, Note_on_c, 1, 48, 0
4, 26416, Note_on_c, 1, 52, 75
4, 26431, Note_on_c, 1, 52, 0
4, 26432, Note_on_c, 1, 55, 75
4, 26447, Note_on_c, 1, 55, 0
4, 26448, Note_on_c, 1, 60, 75
4, 26463, Note_on_c, 1, 60, 0
4, 26464, Note_on_c, 1, 64, 75
4, 26479, Note_on_c, 1, 64, 0
4, 26480, Note_on_c, 1, 60, 75
4, 26495, Note_on_c, 1, 60, 0
4, 26496, Note_on_c, 1, 65, 75
4, 26585, Note_on_c, 1, 65, 0
4, 26592, Note_on_c, 1, 67, 75
4, 26681, Note_on_c, 1, 67, 0
4, 26688, Note_on_c, 1, 69, 75
4, 26777, Note_on_c, 1, 69, 0
4, 26784, Note_on_c, 1, 70, 75
4, 26873, Note_on_c, 1, 70, 0
4, 26880, Note_on_c, 1, 69, 75
4, 26969, Note_on_c, 1, 69, 0
4, 26976, Note_on_c, 1, 70, 75
4, 27065, Note_on_c, 1, 70, 0
4, 27072, Note_on_c, 1, 74, 75
4, 27120, Note_on_c, 1, 74, 0
4, 27120, Note_on_c, 1, 72, 75
4, 27165, Note_on_c, 1, 72, 0
4, 27168, Note_on_c, 1, 70, 75
4, 27213, Note_on_c, 1, 70, 0
4, 27216, Note_on_c, 1, 69, 75
4, 27261, Note_on_c, 1, 69, 0
4, 27264, Note_on_c, 1, 67, 75
4, 27309, Note_on_c, 1, 67, 0
4, 27312, Note_on_c, 1, 64, 75
4, 27357, Note_on_c, 1, 64, 0
4, 27360, Note_on_c, 1, 65, 75
4, 27405, Note_on_c, 1, 65, 0
4, 27408, Note_on_c, 1, 58, 75
4, 27453, Note_on_c, 1, 58, 0
4, 27456, Note_on_c, 1, 57, 75
4, 27545, Note_on_c, 1, 57, 0
4, 27552, Note_on_c, 1, 58, 75
4, 27641, Note_on_c, 1, 58, 0
4, 27648, Note_on_c, 1, 41, 75
4, 27663, Note_on_c, 1, 41, 0
4, 27664, Note_on_c, 1, 45, 75
4, 27679, Note_on_c, 1, 45, 0
4, 27680, Note_on_c, 1, 48, 75
4, 27695, Note_on_c, 1, 48, 0
4, 27696, Note_on_c, 1, 53, 75
4, 27711, Note_on_c, 1, 53, 0
4, 27712, Note_on_c, 1, 57, 75
4, 27727, Note_on_c, 1, 57, 0
4, 27728, Note_on_c, 1, 53, 75
4, 27743, Note_on_c, 1, 53, 0
4, 27744, Note_on_c, 1, 48, 75
4, 27759, Note_on_c, 1, 48, 0
4, 27760, Note_on_c, 1, 53, 75
4, 27775, Note_on_c, 1, 53, 0
4, 27776, Note_on_c, 1, 48, 75
4, 27791, Note_on_c, 1, 48, 0
4, 27792, Note_on_c, 1, 45, 75
4, 27807, Note_on_c, 1, 45, 0
4, 27808, Note_on_c, 1, 48, 75
4, 27823, Note_on_c, 1, 48, 0
4, 27824, Note_on_c, 1, 45, 75
4, 27839, Note_on_c, 1, 45, 0
4, 27840, Note_on_c, 1, 41, 75
4, 27885, Note_on_c, 1, 41, 0
4, 27912, Note_on_c, 1, 53, 75
4, 27935, Note_on_c, 1, 53, 0
4, 27936, Note_on_c, 1, 63, 75
4, 28003, Note_on_c, 1, 63, 0
4, 28008, Note_on_c, 1, 63, 75
4, 28031, Note_on_c, 1, 63, 0
4, 28032, Note_on_c, 1, 63, 75
4, 28121, Note_on_c, 1, 63, 0
4, 28200, Note_on_c, 1, 50, 75
4, 28223, Note_on_c, 1, 50, 0
4, 28224, Note_on_c, 1, 69, 75
4, 28224, Note_on_c, 1, 66, 75
4, 28291, Note_on_c, 1, 69, 0
4, 28291, Note_on_c, 1, 66, 0
4, 28296, Note_on_c, 1, 69, 75
4, 28296, Note_on_c, 1, 66, 75
4, 28319, Note_on_c, 1, 69, 0
4, 28319, Note_on_c, 1, 66, 0
4, 28320, Note_on_c, 1, 69, 75
4, 28320, Note_on_c, 1, 66, 75
4, 28453, Note_on_c, 1, 69, 0
4, 28453, Note_on_c, 1, 66, 0
4, 28464, Note_on_c, 1, 69, 66
4, 28464, Note_on_c, 1, 66, 66
4, 28509, Note_on_c, 1, 69, 0
4, 28509, Note_on_c, 1, 66, 0
4, 28512, Note_on_c, 1, 70, 66
4, 28512, Note_on_c, 1, 67, 66
4, 28557, Note_on_c, 1, 70, 0
4, 28557, Note_on_c, 1, 67, 0
4, 28560, Note_on_c, 1, 72, 66
4, 28560, Note_on_c, 1, 69, 66
4, 28605, Note_on_c, 1, 72, 0
4, 28605, Note_on_c, 1, 69, 0
4, 28608, Note_on_c, 1, 74, 66
4, 28608, Note_on_c, 1, 70, 66
4, 28653, Note_on_c, 1, 74, 0
4, 28653, Note_on_c, 1, 70, 0
4, 28656, Note_on_c, 1, 72, 66
4, 28656, Note_on_c, 1, 69, 66
4, 28701, Note_on_c, 1, 72, 0
4, 28701, Note_on_c, 1, 69, 0
4, 28704, Note_on_c, 1, 70, 66
4, 28704, Note_on_c, 1, 67, 66
4, 28749, Note_on_c, 1, 70, 0
4, 28749, Note_on_c, 1, 67, 0
4, 28752, Note_on_c, 1, 71, 66
4, 28752, Note_on_c, 1, 68, 66
4, 28797, Note_on_c, 1, 71, 0
4, 28797, Note_on_c, 1, 68, 0
4, 28800, Note_on_c, 1, 69, 66
4, 28889, Note_on_c, 1, 69, 0
4, 28896, Note_on_c, 1, 57, 66
4, 28985, Note_on_c, 1, 57, 0
4, 29064, Note_on_c, 1, 45, 80
4, 29064, Note_on_c, 1, 33, 80
4, 29087, Note_on_c, 1, 45, 0
4, 29087, Note_on_c, 1, 33, 0
4, 29088, Note_on_c, 1, 50, 80
4, 29088, Note_on_c, 1, 38, 80
4, 29155, Note_on_c, 1, 50, 0
4, 29155, Note_on_c, 1, 38, 0
4, 29160, Note_on_c, 1, 50, 80
4, 29160, Note_on_c, 1, 38, 80
4, 29183, Note_on_c, 1, 50, 0
4, 29183, Note_on_c, 1, 38, 0
4, 29184, Note_on_c, 1, 52, 80
4, 29184, Note_on_c, 1, 40, 80
4, 29251, Note_on_c, 1, 52, 0
4, 29251, Note_on_c, 1, 40, 0
4, 29256, Note_on_c, 1, 52, 80
4, 29256, Note_on_c, 1, 40, 80
4, 29279, Note_on_c, 1, 52, 0
4, 29279, Note_on_c, 1, 40, 0
4, 29280, Note_on_c, 1, 53, 80
4, 29280, Note_on_c, 1, 41, 80
4, 29325, Note_on_c, 1, 53, 0
4, 29325, Note_on_c, 1, 41, 0
4, 29328, Note_on_c, 1, 54, 80
4, 29328, Note_on_c, 1, 42, 80
4, 29373, Note_on_c, 1, 54, 0
4, 29373, Note_on_c, 1, 42, 0
4, 29376, Note_on_c, 1, 55, 80
4, 29376, Note_on_c, 1, 43, 80
4, 29421, Note_on_c, 1, 55, 0
4, 29421, Note_on_c, 1, 43, 0
4, 29424, Note_on_c, 1, 58, 80
4, 29424, Note_on_c, 1, 46, 80
4, 29469, Note_on_c, 1, 58, 0
4, 29469, Note_on_c, 1, 46, 0
4, 29472, Note_on_c, 1, 57, 80
4, 29479, Note_on_c, 1, 57, 0
4, 29488, Note_on_c, 1, 62, 80
4, 29495, Note_on_c, 1, 62, 0
4, 29504, Note_on_c, 1, 65, 80
4, 29511, Note_on_c, 1, 65, 0
4, 29952, Note_on_c, 1, 46, 80
4, 29952, Note_on_c, 1, 34, 80
4, 30217, Note_on_c, 1, 46, 0
4, 30217, Note_on_c, 1, 34, 0
4, 30240, Note_on_c, 1, 45, 80
4, 30240, Note_on_c, 1, 33, 80
4, 30417, Note_on_c, 1, 45, 0
4, 30417, Note_on_c, 1, 33, 0
4, 30480, Note_on_c, 1, 57, 66
4, 30525, Note_on_c, 1, 57, 0
4, 30528, Note_on_c, 1, 50, 66
4, 30617, Note_on_c, 1, 50, 0
4, 30624, Note_on_c, 1, 62, 66
4, 30671, Note_on_c, 1, 62, 0
4, 30792, Note_on_c, 1, 53, 75
4, 30815, Note_on_c, 1, 53, 0
4, 30816, Note_on_c, 1, 63, 75
4, 30883, Note_on_c, 1, 63, 0
4, 30888, Note_on_c, 1, 63, 75
4, 30911, Note_on_c, 1, 63, 0
4, 30912, Note_on_c, 1, 63, 75
4, 31001, Note_on_c, 1, 63, 0
4, 31080, Note_on_c, 1, 50, 75
4, 31103, Note_on_c, 1, 50, 0
4, 31104, Note_on_c, 1, 69, 75
4, 31104, Note_on_c, 1, 66, 75
4, 31171, Note_on_c, 1, 69, 0
4, 31171, Note_on_c, 1, 66, 0
4, 31176, Note_on_c, 1, 69, 75
4, 31176, Note_on_c, 1, 66, 75
4, 31199, Note_on_c, 1, 69, 0
4, 31199, Note_on_c, 1, 66, 0
4, 31200, Note_on_c, 1, 69, 75
4, 31200, Note_on_c, 1, 66, 75
4, 31333, Note_on_c, 1, 69, 0
4, 31333, Note_on_c, 1, 66, 0
4, 31344, Note_on_c, 1, 69, 66
4, 31344, Note_on_c, 1, 66, 66
4, 31389, Note_on_c, 1, 69, 0
4, 31389, Note_on_c, 1, 66, 0
4, 31392, Note_on_c, 1, 70, 66
4, 31392, Note_on_c, 1, 67, 66
4, 31437, Note_on_c, 1, 70, 0
4, 31437, Note_on_c, 1, 67, 0
4, 31440, Note_on_c, 1, 72, 66
4, 31440, Note_on_c, 1, 69, 66
4, 31485, Note_on_c, 1, 72, 0
4, 31485, Note_on_c, 1, 69, 0
4, 31488, Note_on_c, 1, 74, 66
4, 31488, Note_on_c, 1, 70, 66
4, 31533, Note_on_c, 1, 74, 0
4, 31533, Note_on_c, 1, 70, 0
4, 31536, Note_on_c, 1, 72, 66
4, 31536, Note_on_c, 1, 69, 66
4, 31581, Note_on_c, 1, 72, 0
4, 31581, Note_on_c, 1, 69, 0
4, 31584, Note_on_c, 1, 70, 66
4, 31584, Note_on_c, 1, 67, 66
4, 31629, Note_on_c, 1, 70, 0
4, 31629, Note_on_c, 1, 67, 0
4, 31632, Note_on_c, 1, 71, 66
4, 31632, Note_on_c, 1, 68, 66
4, 31677, Note_on_c, 1, 71, 0
4, 31677, Note_on_c, 1, 68, 0
4, 31680, Note_on_c, 1, 69, 66
4, 31769, Note_on_c, 1, 69, 0
4, 31776, Note_on_c, 1, 57, 66
4, 31865, Note_on_c, 1, 57, 0
4, 31944, Note_on_c, 1, 45, 80
4, 31944, Note_on_c, 1, 33, 80
4, 31967, Note_on_c, 1, 45, 0
4, 31967, Note_on_c, 1, 33, 0
4, 31968, Note_on_c, 1, 50, 80
4, 31968, Note_on_c, 1, 38, 80
4, 32035, Note_on_c, 1, 50, 0
4, 32035, Note_on_c, 1, 38, 0
4, 32040, Note_on_c, 1, 50, 80
4, 32040, Note_on_c, 1, 38, 80
4, 32063, Note_on_c, 1, 50, 0
4, 32063, Note_on_c, 1, 38, 0
4, 32064, Note_on_c, 1, 52, 80
4, 32064, Note_on_c, 1, 40, 80
4, 32131, Note_on_c, 1, 52, 0
4, 32131, Note_on_c, 1, 40, 0
4, 32136, Note_on_c, 1, 52, 80
4, 32136, Note_on_c, 1, 40, 80
4, 32159, Note_on_c, 1, 52, 0
4, 32159, Note_on_c, 1, 40, 0
4, 32160, Note_on_c, 1, 53, 80
4, 32160, Note_on_c, 1, 41, 80
4, 32205, Note_on_c, 1, 53, 0
4, 32205, Note_on_c, 1, 41, 0
4, 32208, Note_on_c, 1, 54, 80
4, 32208, Note_on_c, 1, 42, 80
4, 32253, Note_on_c, 1, 54, 0
4, 32253, Note_on_c, 1, 42, 0
4, 32256, Note_on_c, 1, 55, 80
4, 32256, Note_on_c, 1, 43, 80
4, 32301, Note_on_c, 1, 55, 0
4, 32301, Note_on_c, 1, 43, 0
4, 32304, Note_on_c, 1, 58, 80
4, 32304, Note_on_c, 1, 46, 80
4, 32349, Note_on_c, 1, 58, 0
4, 32349, Note_on_c, 1, 46, 0
4, 32352, Note_on_c, 1, 57, 80
4, 32359, Note_on_c, 1, 57, 0
4, 32368, Note_on_c, 1, 62, 80
4, 32375, Note_on_c, 1, 62, 0
4, 32384, Note_on_c, 1, 65, 80
4, 32391, Note_on_c, 1, 65, 0
4, 32832, Note_on_c, 1, 46, 80
4, 32832, Note_on_c, 1, 34, 80
4, 33097, Note_on_c, 1, 46, 0
4, 33097, Note_on_c, 1, 34, 0
4, 33120, Note_on_c, 1, 45, 80
4, 33120, Note_on_c, 1, 33, 80
4, 33297, Note_on_c, 1, 45, 0
4, 33297, Note_on_c, 1, 33, 0
4, 33360, Note_on_c, 1, 57, 66
4, 33405, Note_on_c, 1, 57, 0
4, 33408, Note_on_c, 1, 58, 66
4, 33551, Note_on_c, 1, 58, 0
4, 33768, Note_on_c, 1, 46, 66
4, 33791, Note_on_c, 1, 46, 0
4, 33792, Note_on_c, 1, 58, 66
4, 33859, Note_on_c, 1, 58, 0
4, 33864, Note_on_c, 1, 58, 66
4, 33887, Note_on_c, 1, 58, 0
4, 33888, Note_on_c, 1, 58, 66
4, 33933, Note_on_c, 1, 58, 0
4, 34056, Note_on_c, 1, 46, 80
4, 34056, Note_on_c, 1, 34, 80
4, 34079, Note_on_c, 1, 46, 0
4, 34079, Note_on_c, 1, 34, 0
4, 34080, Note_on_c, 1, 62, 80
4, 34080, Note_on_c, 1, 58, 80
4, 34147, Note_on_c, 1, 62, 0
4, 34147, Note_on_c, 1, 58, 0
4, 34152, Note_on_c, 1, 62, 80
4, 34152, Note_on_c, 1, 58, 80
4, 34175, Note_on_c, 1, 62, 0
4, 34175, Note_on_c, 1, 58, 0
4, 34176, Note_on_c, 1, 62, 80
4, 34176, Note_on_c, 1, 58, 80
4, 34243, Note_on_c, 1, 62, 0
4, 34243, Note_on_c, 1, 58, 0
4, 34248, Note_on_c, 1, 62, 80
4, 34248, Note_on_c, 1, 58, 80
4, 34271, Note_on_c, 1, 62, 0
4, 34271, Note_on_c, 1, 58, 0
4, 34272, Note_on_c, 1, 61, 80
4, 34272, Note_on_c, 1, 57, 80
4, 34339, Note_on_c, 1, 61, 0
4, 34339, Note_on_c, 1, 57, 0
4, 34344, Note_on_c, 1, 61, 80
4, 34344, Note_on_c, 1, 57, 80
4, 34367, Note_on_c, 1, 61, 0
4, 34367, Note_on_c, 1, 57, 0
4, 34368, Note_on_c, 1, 62, 80
4, 34368, Note_on_c, 1, 57, 80
4, 34435, Note_on_c, 1, 62, 0
4, 34435, Note_on_c, 1, 57, 0
4, 34440, Note_on_c, 1, 62, 80
4, 34440, Note_on_c, 1, 57, 80
4, 34463, Note_on_c, 1, 62, 0
4, 34463, Note_on_c, 1, 57, 0
4, 34464, Note_on_c, 1, 64, 80
4, 34464, Note_on_c, 1, 57, 80
4, 34531, Note_on_c, 1, 64, 0
4, 34531, Note_on_c, 1, 57, 0
4, 34560, Note_on_c, 1, 66, 66
4, 34560, Note_on_c, 1, 62, 66
4, 34605, Note_on_c, 1, 66, 0
4, 34605, Note_on_c, 1, 62, 0
4, 34656, Note_on_c, 1, 66, 66
4, 34656, Note_on_c, 1, 62, 66
4, 34701, Note_on_c, 1, 66, 0
4, 34701, Note_on_c, 1, 62, 0
4, 34848, Note_on_c, 1, 67, 66
4, 34848, Note_on_c, 1, 62, 66
4, 34944, Note_on_c, 1, 67, 0
4, 34944, Note_on_c, 1, 66, 66
4, 34989, Note_on_c, 1, 66, 0
4, 34989, Note_on_c, 1, 62, 0
4, 35136, Note_on_c, 1, 71, 66
4, 35156, Note_on_c, 1, 71, 0
4, 35220, Note_on_c, 1, 69, 66
4, 35225, Note_on_c, 1, 69, 0
4, 35232, Note_on_c, 1, 67, 66
4, 35252, Note_on_c, 1, 67, 0
4, 35316, Note_on_c, 1, 66, 66
4, 35321, Note_on_c, 1, 66, 0
4, 35328, Note_on_c, 1, 64, 66
4, 35348, Note_on_c, 1, 64, 0
4, 35412, Note_on_c, 1, 62, 66
4, 35424, Note_on_c, 1, 62, 0
4, 35424, Note_on_c, 1, 62, 66
4, 35424, Note_on_c, 1, 57, 66
4, 35520, Note_on_c, 1, 62, 0
4, 35520, Note_on_c, 1, 61, 66
4, 35565, Note_on_c, 1, 61, 0
4, 35565, Note_on_c, 1, 57, 0
4, 35712, Note_on_c, 1, 57, 80
4, 35712, Note_on_c, 1, 54, 80
4, 35712, Note_on_c, 1, 50, 80
4, 35801, Note_on_c, 1, 57, 0
4, 35801, Note_on_c, 1, 54, 0
4, 35801, Note_on_c, 1, 50, 0
4, 35808, Note_on_c, 1, 61, 80
4, 35808, Note_on_c, 1, 57, 80
4, 35808, Note_on_c, 1, 55, 80
4, 35808, Note_on_c, 1, 52, 80
4, 35897, Note_on_c, 1, 61, 0
4, 35897, Note_on_c, 1, 57, 0
4, 35897, Note_on_c, 1, 55, 0
4, 35897, Note_on_c, 1, 52, 0
4, 36000, Note_on_c, 1, 79, 80
4, 36000, Note_on_c, 1, 76, 80
4, 36089, Note_on_c, 1, 79, 0
4, 36089, Note_on_c, 1, 76, 0
4, 36096, Note_on_c, 1, 78, 74
4, 36096, Note_on_c, 1, 75, 74
4, 36229, Note_on_c, 1, 78, 0
4, 36229, Note_on_c, 1, 75, 0
4, 36240, Note_on_c, 1, 75, 66
4, 36288, Note_on_c, 1, 75, 0
4, 36288, Note_on_c, 1, 76, 66
4, 36333, Note_on_c, 1, 76, 0
4, 36336, Note_on_c, 1, 73, 66
4, 36381, Note_on_c, 1, 73, 0
4, 36384, Note_on_c, 1, 74, 66
4, 36429, Note_on_c, 1, 74, 0
4, 36432, Note_on_c, 1, 66, 66
4, 36477, Note_on_c, 1, 66, 0
4, 36480, Note_on_c, 1, 67, 66
4, 36525, Note_on_c, 1, 67, 0
4, 36528, Note_on_c, 1, 68, 66
4, 36573, Note_on_c, 1, 68, 0
4, 36576, Note_on_c, 1, 69, 66
4, 36665, Note_on_c, 1, 69, 0
4, 36672, Note_on_c, 1, 57, 66
4, 36717, Note_on_c, 1, 57, 0
4, 36864, Note_on_c, 1, 50, 80
4, 36864, Note_on_c, 1, 45, 80
4, 36864, Note_on_c, 1, 42, 80
4, 36864, Note_on_c, 1, 38, 80
4, 36953, Note_on_c, 1, 50, 0
4, 36953, Note_on_c, 1, 45, 0
4, 36953, Note_on_c, 1, 42, 0
4, 36953, Note_on_c, 1, 38, 0
4, 37152, Note_on_c, 1, 67, 80
4, 37152, Note_on_c, 1, 62, 80
4, 37241, Note_on_c, 1, 67, 0
4, 37241, Note_on_c, 1, 62, 0
4, 37248, Note_on_c, 1, 66, 80
4, 37248, Note_on_c, 1, 62, 80
4, 37293, Note_on_c, 1, 66, 0
4, 37293, Note_on_c, 1, 62, 0
4, 37440, Note_on_c, 1, 71, 66
4, 37460, Note_on_c, 1, 71, 0
4, 37488, Note_on_c, 1, 69, 66
4, 37508, Note_on_c, 1, 69, 0
4, 37536, Note_on_c, 1, 67, 66
4, 37556, Note_on_c, 1, 67, 0
4, 37584, Note_on_c, 1, 66, 68
4, 37604, Note_on_c, 1, 66, 0
4, 37632, Note_on_c, 1, 64, 70
4, 37652, Note_on_c, 1, 64, 0
4, 37680, Note_on_c, 1, 62, 73
4, 37700, Note_on_c, 1, 62, 0
4, 37728, Note_on_c, 1, 62, 75
4, 37728, Note_on_c, 1, 57, 75
4, 37824, Note_on_c, 1, 62, 0
4, 37824, Note_on_c, 1, 61, 80
4, 37869, Note_on_c, 1, 61, 0
4, 37869, Note_on_c, 1, 57, 0
4, 38016, Note_on_c, 1, 57, 80
4, 38016, Note_on_c, 1, 54, 80
4, 38016, Note_on_c, 1, 50, 80
4, 38105, Note_on_c, 1, 57, 0
4, 38105, Note_on_c, 1, 54, 0
4, 38105, Note_on_c, 1, 50, 0
4, 38112, Note_on_c, 1, 61, 80
4, 38112, Note_on_c, 1, 57, 80
4, 38112, Note_on_c, 1, 55, 80
4, 38112, Note_on_c, 1, 52, 80
4, 38201, Note_on_c, 1, 61, 0
4, 38201, Note_on_c, 1, 57, 0
4, 38201, Note_on_c, 1, 55, 0
4, 38201, Note_on_c, 1, 52, 0
4, 38208, Note_on_c, 1, 57, 80
4, 38253, Note_on_c, 1, 57, 0
4, 38256, Note_on_c, 1, 59, 80
4, 38262, Note_on_c, 1, 59, 0
4, 38262, Note_on_c, 1, 57, 80
4, 38268, Note_on_c, 1, 57, 0
4, 38268, Note_on_c, 1, 56, 80
4, 38274, Note_on_c, 1, 56, 0
4, 38274, Note_on_c, 1, 57, 80
4, 38290, Note_on_c, 1, 57, 0
4, 38292, Note_on_c, 1, 59, 80
4, 38304, Note_on_c, 1, 59, 0
4, 38304, Note_on_c, 1, 55, 80
4, 38304, Note_on_c, 1, 52, 80
4, 38393, Note_on_c, 1, 55, 0
4, 38393, Note_on_c, 1, 52, 0
4, 38400, Note_on_c, 1, 54, 80
4, 38400, Note_on_c, 1, 51, 80
4, 38489, Note_on_c, 1, 54, 0
4, 38489, Note_on_c, 1, 51, 0
4, 38496, Note_on_c, 1, 66, 66
4, 38496, Note_on_c, 1, 63, 66
4, 38585, Note_on_c, 1, 66, 0
4, 38585, Note_on_c, 1, 63, 0
4, 38592, Note_on_c, 1, 64, 66
4, 38637, Note_on_c, 1, 64, 0
4, 38640, Note_on_c, 1, 61, 66
4, 38685, Note_on_c, 1, 61, 0
4, 38688, Note_on_c, 1, 62, 66
4, 38733, Note_on_c, 1, 62, 0
4, 38736, Note_on_c, 1, 54, 80
4, 38736, Note_on_c, 1, 42, 80
4, 38781, Note_on_c, 1, 54, 0
4, 38781, Note_on_c, 1, 42, 0
4, 38784, Note_on_c, 1, 55, 80
4, 38784, Note_on_c, 1, 43, 80
4, 38829, Note_on_c, 1, 55, 0
4, 38829, Note_on_c, 1, 43, 0
4, 38832, Note_on_c, 1, 56, 80
4, 38832, Note_on_c, 1, 44, 80
4, 38877, Note_on_c, 1, 56, 0
4, 38877, Note_on_c, 1, 44, 0
4, 38880, Note_on_c, 1, 66, 80
4, 38947, Note_on_c, 1, 66, 0
4, 38952, Note_on_c, 1, 68, 74
4, 38975, Note_on_c, 1, 68, 0
4, 38976, Note_on_c, 1, 69, 73
4, 39065, Note_on_c, 1, 69, 0
4, 39144, Note_on_c, 1, 47, 80
4, 39152, Note_on_c, 1, 47, 0
4, 39152, Note_on_c, 1, 51, 80
4, 39160, Note_on_c, 1, 51, 0
4, 39160, Note_on_c, 1, 54, 80
4, 39168, Note_on_c, 1, 54, 0
4, 39168, Note_on_c, 1, 59, 80
4, 39235, Note_on_c, 1, 59, 0
4, 39240, Note_on_c, 1, 59, 80
4, 39263, Note_on_c, 1, 59, 0
4, 39264, Note_on_c, 1, 59, 80
4, 39309, Note_on_c, 1, 59, 0
4, 39432, Note_on_c, 1, 63, 66
4, 39455, Note_on_c, 1, 63, 0
4, 39456, Note_on_c, 1, 64, 66
4, 39480, Note_on_c, 1, 64, 0
4, 39480, Note_on_c, 1, 67, 66
4, 39503, Note_on_c, 1, 67, 0
4, 39504, Note_on_c, 1, 66, 66
4, 39528, Note_on_c, 1, 66, 0
4, 39528, Note_on_c, 1, 69, 66
4, 39551, Note_on_c, 1, 69, 0
4, 39552, Note_on_c, 1, 67, 66
4, 39597, Note_on_c, 1, 67, 0
4, 39720, Note_on_c, 1, 61, 66
4, 39743, Note_on_c, 1, 61, 0
4, 39744, Note_on_c, 1, 61, 66
4, 39759, Note_on_c, 1, 61, 0
4, 39760, Note_on_c, 1, 62, 66
4, 39775, Note_on_c, 1, 62, 0
4, 39776, Note_on_c, 1, 66, 66
4, 39791, Note_on_c, 1, 66, 0
4, 39792, Note_on_c, 1, 63, 66
4, 39807, Note_on_c, 1, 63, 0
4, 39808, Note_on_c, 1, 64, 66
4, 39823, Note_on_c, 1, 64, 0
4, 39824, Note_on_c, 1, 67, 66
4, 39839, Note_on_c, 1, 67, 0
4, 39840, Note_on_c, 1, 66, 66
4, 39885, Note_on_c, 1, 66, 0
4, 40032, Note_on_c, 1, 66, 66
4, 40032, Note_on_c, 1, 57, 66
4, 40128, Note_on_c, 1, 66, 0
4, 40128, Note_on_c, 1, 64, 66
4, 40173, Note_on_c, 1, 64, 0
4, 40173, Note_on_c, 1, 57, 0
4, 40176, Note_on_c, 1, 71, 70
4, 40176, Note_on_c, 1, 67, 70
4, 40221, Note_on_c, 1, 71, 0
4, 40221, Note_on_c, 1, 67, 0
4, 40224, Note_on_c, 1, 69, 67
4, 40224, Note_on_c, 1, 66, 67
4, 40269, Note_on_c, 1, 69, 0
4, 40269, Note_on_c, 1, 66, 0
4, 40272, Note_on_c, 1, 67, 64
4, 40272, Note_on_c, 1, 64, 64
4, 40317, Note_on_c, 1, 67, 0
4, 40317, Note_on_c, 1, 64, 0
4, 40320, Note_on_c, 1, 66, 66
4, 40320, Note_on_c, 1, 62, 66
4, 40365, Note_on_c, 1, 66, 0
4, 40365, Note_on_c, 1, 62, 0
4, 40416, Note_on_c, 1, 66, 66
4, 40416, Note_on_c, 1, 62, 66
4, 40461, Note_on_c, 1, 66, 0
4, 40461, Note_on_c, 1, 62, 0
4, 40608, Note_on_c, 1, 67, 66
4, 40608, Note_on_c, 1, 62, 66
4, 40704, Note_on_c, 1, 67, 0
4, 40704, Note_on_c, 1, 66, 66
4, 40749, Note_on_c, 1, 66, 0
4, 40749, Note_on_c, 1, 62, 0
4, 40896, Note_on_c, 1, 74, 75
4, 40896, Note_on_c, 1, 71, 75
4, 40941, Note_on_c, 1, 74, 0
4, 40941, Note_on_c, 1, 71, 0
4, 40980, Note_on_c, 1, 73, 75
4, 40980, Note_on_c, 1, 69, 75
4, 40992, Note_on_c, 1, 73, 0
4, 40992, Note_on_c, 1, 69, 0
4, 40992, Note_on_c, 1, 71, 75
4, 40992, Note_on_c, 1, 67, 75
4, 41037, Note_on_c, 1, 71, 0
4, 41037, Note_on_c, 1, 67, 0
4, 41076, Note_on_c, 1, 69, 69
4, 41076, Note_on_c, 1, 66, 69
4, 41088, Note_on_c, 1, 69, 0
4, 41088, Note_on_c, 1, 66, 0
4, 41088, Note_on_c, 1, 67, 69
4, 41088, Note_on_c, 1, 64, 69
4, 41133, Note_on_c, 1, 67, 0
4, 41133, Note_on_c, 1, 64, 0
4, 41172, Note_on_c, 1, 66, 66
4, 41172, Note_on_c, 1, 62, 66
4, 41184, Note_on_c, 1, 66, 0
4, 41184, Note_on_c, 1, 62, 0
4, 41184, Note_on_c, 1, 62, 66
4, 41280, Note_on_c, 1, 62, 0
4, 41280, Note_on_c, 1, 61, 66
4, 41369, Note_on_c, 1, 61, 0
4, 41472, Note_on_c, 1, 57, 84
4, 41472, Note_on_c, 1, 54, 84
4, 41472, Note_on_c, 1, 50, 84
4, 41561, Note_on_c, 1, 57, 0
4, 41561, Note_on_c, 1, 54, 0
4, 41561, Note_on_c, 1, 50, 0
4, 41568, Note_on_c, 1, 61, 84
4, 41568, Note_on_c, 1, 57, 84
4, 41568, Note_on_c, 1, 55, 84
4, 41568, Note_on_c, 1, 52, 84
4, 41657, Note_on_c, 1, 61, 0
4, 41657, Note_on_c, 1, 57, 0
4, 41657, Note_on_c, 1, 55, 0
4, 41657, Note_on_c, 1, 52, 0
4, 41760, Note_on_c, 1, 61, 84
4, 41760, Note_on_c, 1, 55, 84
4, 41760, Note_on_c, 1, 52, 84
4, 41849, Note_on_c, 1, 61, 0
4, 41849, Note_on_c, 1, 55, 0
4, 41849, Note_on_c, 1, 52, 0
4, 41856, Note_on_c, 1, 63, 84
4, 41856, Note_on_c, 1, 60, 84
4, 41856, Note_on_c, 1, 57, 84
4, 41856, Note_on_c, 1, 54, 84
4, 41945, Note_on_c, 1, 63, 0
4, 41945, Note_on_c, 1, 60, 0
4, 41945, Note_on_c, 1, 57, 0
4, 41945, Note_on_c, 1, 54, 0
4, 41952, Note_on_c, 1, 64, 84
4, 41952, Note_on_c, 1, 59, 84
4, 41952, Note_on_c, 1, 55, 84
4, 42041, Note_on_c, 1, 64, 0
4, 42041, Note_on_c, 1, 59, 0
4, 42041, Note_on_c, 1, 55, 0
4, 42048, Note_on_c, 1, 66, 84
4, 42048, Note_on_c, 1, 62, 84
4, 42048, Note_on_c, 1, 57, 84
4, 42225, Note_on_c, 1, 66, 0
4, 42225, Note_on_c, 1, 62, 0
4, 42225, Note_on_c, 1, 57, 0
4, 42240, Note_on_c, 1, 67, 66
4, 42240, Note_on_c, 1, 64, 66
4, 42240, Note_on_c, 1, 57, 66
4, 42285, Note_on_c, 1, 67, 0
4, 42285, Note_on_c, 1, 64, 0
4, 42285, Note_on_c, 1, 57, 0
4, 42336, Note_on_c, 1, 50, 62
4, 42381, Note_on_c, 1, 50, 0
4, 42432, Note_on_c, 1, 62, 62
4, 42477, Note_on_c, 1, 62, 0
4, 42588, Control_c, 1, 64, 127
4, 42588, Note_on_c, 1, 47, 80
4, 42600, Note_on_c, 1, 47, 0
4, 42600, Note_on_c, 1, 51, 80
4, 42612, Note_on_c, 1, 51, 0
4, 42612, Note_on_c, 1, 54, 80
4, 42624, Note_on_c, 1, 54, 0
4, 42624, Note_on_c, 1, 59, 80
4, 42636, Note_on_c, 1, 59, 0
4, 42684, Note_on_c, 1, 59, 80
4, 42696, Note_on_c, 1, 59, 0
4, 42696, Note_on_c, 1, 63, 80
4, 42708, Note_on_c, 1, 63, 0
4, 42708, Control_c, 1, 64, 0
4, 42708, Note_on_c, 1, 66, 80
4, 42720, Note_on_c, 1, 66, 0
4, 42720, Control_c, 1, 64, 127
4, 42720, Note_on_c, 1, 69, 80
4, 42732, Note_on_c, 1, 69, 0
4, 42780, Note_on_c, 1, 63, 80
4, 42792, Note_on_c, 1, 63, 0
4, 42792, Note_on_c, 1, 66, 80
4, 42804, Note_on_c, 1, 66, 0
4, 42804, Note_on_c, 1, 69, 80
4, 42816, Note_on_c, 1, 69, 0
4, 42816, Note_on_c, 1, 72, 80
4, 42828, Note_on_c, 1, 72, 0
4, 42912, Control_c, 1, 64, 0
4, 43488, Note_on_c, 1, 62, 80
4, 43488, Note_on_c, 1, 57, 80
4, 43584, Note_on_c, 1, 62, 0
4, 43584, Note_on_c, 1, 61, 75
4, 43673, Note_on_c, 1, 61, 0
4, 43673, Note_on_c, 1, 57, 0
4, 43776, Note_on_c, 1, 66, 66
4, 43776, Note_on_c, 1, 62, 66
4, 43821, Note_on_c, 1, 66, 0
4, 43821, Note_on_c, 1, 62, 0
4, 43872, Note_on_c, 1, 66, 66
4, 43872, Note_on_c, 1, 62, 66
4, 43917, Note_on_c, 1, 66, 0
4, 43917, Note_on_c, 1, 62, 0
4, 44064, Note_on_c, 1, 67, 66
4, 44064, Note_on_c, 1, 62, 66
4, 44160, Note_on_c, 1, 67, 0
4, 44160, Note_on_c, 1, 66, 66
4, 44205, Note_on_c, 1, 66, 0
4, 44205, Note_on_c, 1, 62, 0
4, 44352, Note_on_c, 1, 74, 66
4, 44352, Note_on_c, 1, 71, 66
4, 44397, Note_on_c, 1, 74, 0
4, 44397, Note_on_c, 1, 71, 0
4, 44436, Note_on_c, 1, 73, 66
4, 44436, Note_on_c, 1, 69, 66
4, 44448, Note_on_c, 1, 73, 0
4, 44448, Note_on_c, 1, 69, 0
4, 44448, Note_on_c, 1, 71, 66
4, 44448, Note_on_c, 1, 67, 66
4, 44493, Note_on_c, 1, 71, 0
4, 44493, Note_on_c, 1, 67, 0
4, 44532, Note_on_c, 1, 69, 66
4, 44532, Note_on_c, 1, 66, 66
4, 44544, Note_on_c, 1, 69, 0
4, 44544, Note_on_c, 1, 66, 0
4, 44544, Note_on_c, 1, 67, 66
4, 44544, Note_on_c, 1, 64, 66
4, 44589, Note_on_c, 1, 67, 0
4, 44589, Note_on_c, 1, 64, 0
4, 44628, Note_on_c, 1, 66, 66
4, 44628, Note_on_c, 1, 62, 66
4, 44640, Note_on_c, 1, 66, 0
4, 44640, Note_on_c, 1, 62, 0
4, 44640, Note_on_c, 1, 57, 66
4, 44652, Note_on_c, 1, 57, 0
4, 44652, Note_on_c, 1, 59, 66
4, 44664, Note_on_c, 1, 59, 0
4, 44664, Note_on_c, 1, 61, 66
4, 44676, Note_on_c, 1, 61, 0
4, 44676, Note_on_c, 1, 62, 66
4, 44688, Note_on_c, 1, 62, 0
4, 44688, Note_on_c, 1, 64, 66
4, 44700, Note_on_c, 1, 64, 0
4, 44700, Note_on_c, 1, 66, 66
4, 44712, Note_on_c, 1, 66, 0
4, 44712, Note_on_c, 1, 68, 66
4, 44724, Note_on_c, 1, 68, 0
4, 44724, Note_on_c, 1, 69, 66
4, 44736, Note_on_c, 1, 69, 0
4, 44736, Note_on_c, 1, 68, 66
4, 44748, Note_on_c, 1, 68, 0
4, 44748, Note_on_c, 1, 69, 66
4, 44760, Note_on_c, 1, 69, 0
4, 44760, Note_on_c, 1, 68, 66
4, 44772, Note_on_c, 1, 68, 0
4, 44772, Note_on_c, 1, 69, 66
4, 44784, Note_on_c, 1, 69, 0
4, 44784, Note_on_c, 1, 68, 66
4, 44796, Note_on_c, 1, 68, 0
4, 44796, Note_on_c, 1, 69, 66
4, 44808, Note_on_c, 1, 69, 0
4, 44808, Note_on_c, 1, 68, 66
4, 44820, Note_on_c, 1, 68, 0
4, 44820, Note_on_c, 1, 69, 66
4, 44832, Note_on_c, 1, 69, 0
4, 44832, Note_on_c, 1, 57, 66
4, 44852, Note_on_c, 1, 57, 0
4, 44928, Note_on_c, 1, 57, 80
4, 44928, Note_on_c, 1, 54, 80
4, 44928, Note_on_c, 1, 50, 80
4, 45017, Note_on_c, 1, 57, 0
4, 45017, Note_on_c, 1, 54, 0
4, 45017, Note_on_c, 1, 50, 0
4, 45024, Note_on_c, 1, 61, 80
4, 45024, Note_on_c, 1, 57, 80
4, 45024, Note_on_c, 1, 55, 80
4, 45024, Note_on_c, 1, 52, 80
4, 45113, Note_on_c, 1, 61, 0
4, 45113, Note_on_c, 1, 57, 0
4, 45113, Note_on_c, 1, 55, 0
4, 45113, Note_on_c, 1, 52, 0
4, 45216, Note_on_c, 1, 61, 104
4, 45216, Note_on_c, 1, 55, 104
4, 45216, Note_on_c, 1, 52, 104
4, 45305, Note_on_c, 1, 61, 0
4, 45305, Note_on_c, 1, 55, 0
4, 45305, Note_on_c, 1, 52, 0
4, 45312, Note_on_c, 1, 63, 104
4, 45312, Note_on_c, 1, 60, 104
4, 45312, Note_on_c, 1, 57, 104
4, 45312, Note_on_c, 1, 54, 104
4, 45401, Note_on_c, 1, 63, 0
4, 45401, Note_on_c, 1, 60, 0
4, 45401, Note_on_c, 1, 57, 0
4, 45401, Note_on_c, 1, 54, 0
4, 45408, Note_on_c, 1, 64, 104
4, 45408, Note_on_c, 1, 59, 104
4, 45408, Note_on_c, 1, 55, 104
4, 45497, Note_on_c, 1, 64, 0
4, 45497, Note_on_c, 1, 59, 0
4, 45497, Note_on_c, 1, 55, 0
4, 45504, Note_on_c, 1, 66, 80
4, 45504, Note_on_c, 1, 62, 80
4, 45504, Note_on_c, 1, 57, 80
4, 45593, Note_on_c, 1, 66, 0
4, 45593, Note_on_c, 1, 62, 0
4, 45593, Note_on_c, 1, 57, 0
4, 45696, Note_on_c, 1, 64, 66
4, 45696, Note_on_c, 1, 57, 66
4, 45785, Note_on_c, 1, 64, 0
4, 45785, Note_on_c, 1, 57, 0
4, 45792, Note_on_c, 1, 50, 66
4, 45881, Note_on_c, 1, 50, 0
4, 45888, Note_on_c, 1, 62, 66
4, 45977, Note_on_c, 1, 62, 0
4, 46080, Note_on_c, 1, 66, 66
4, 46080, Note_on_c, 1, 62, 66
4, 46169, Note_on_c, 1, 66, 0
4, 46169, Note_on_c, 1, 62, 0
4, 46176, Note_on_c, 1, 67, 66
4, 46176, Note_on_c, 1, 64, 66
4, 46265, Note_on_c, 1, 67, 0
4, 46265, Note_on_c, 1, 64, 0
4, 46368, Note_on_c, 1, 61, 66
4, 46368, Note_on_c, 1, 52, 66
4, 46413, Note_on_c, 1, 61, 0
4, 46413, Note_on_c, 1, 52, 0
4, 46464, Note_on_c, 1, 60, 69
4, 46464, Note_on_c, 1, 54, 69
4, 46509, Note_on_c, 1, 60, 0
4, 46509, Note_on_c, 1, 54, 0
4, 46560, Note_on_c, 1, 59, 72
4, 46560, Note_on_c, 1, 55, 72
4, 46605, Note_on_c, 1, 59, 0
4, 46605, Note_on_c, 1, 55, 0
4, 46656, Note_on_c, 1, 66, 91
4, 46656, Note_on_c, 1, 62, 91
4, 46656, Note_on_c, 1, 57, 91
4, 46848, Note_on_c, 1, 66, 0
4, 46848, Note_on_c, 1, 62, 0
4, 46848, Note_on_c, 1, 57, 0
4, 46896, Note_on_c, 1, 57, 67
4, 46919, Note_on_c, 1, 57, 0
4, 46944, Note_on_c, 1, 50, 62
4, 47040, Note_on_c, 1, 50, 0
4, 47040, Note_on_c, 1, 62, 62
4, 47107, Note_on_c, 1, 62, 0
4, 47232, Note_on_c, 1, 50, 0
4, 47321, Note_on_c, 1, 50, 0
4, 47328, End_track
5, 0, Start_track
5, 0, Program_c, 1, 0
5, 0, Control_c, 1, 7, 127
5, 0, Control_c, 1, 10, 64
5, 13248, Note_on_c, 1, 64, 64
5, 13337, Note_on_c, 1, 64, 0
5, 13344, Note_on_c, 1, 63, 80
5, 13521, Note_on_c, 1, 63, 0
5, 13536, Note_on_c, 1, 64, 80
5, 13625, Note_on_c, 1, 64, 0
5, 13632, Note_on_c, 1, 62, 80
5, 13721, Note_on_c, 1, 62, 0
5, 13728, Note_on_c, 1, 67, 80
5, 13817, Note_on_c, 1, 67, 0
5, 15552, Note_on_c, 1, 64, 64
5, 15641, Note_on_c, 1, 64, 0
5, 15648, Note_on_c, 1, 63, 80
5, 15825, Note_on_c, 1, 63, 0
5, 15840, Note_on_c, 1, 64, 80
5, 15929, Note_on_c, 1, 64, 0
5, 15936, Note_on_c, 1, 62, 80
5, 16025, Note_on_c, 1, 62, 0
5, 16032, Note_on_c, 1, 67, 80
5, 16121, Note_on_c, 1, 67, 0
5, 19848, End_track
6, 0, Start_track
6, 0, Title_t, "Sonata I   Haydn  "
6, 0, End_track
0, 0, End_of_file
