0, 0, Header, 1, 6, 96
1, 0, Start_track
1, 0, Copyright_t, "Copyright  2000 <copyright holder>"
1, 0, Text_t, "Sonata V\015\012"
1, 0, Text_t, "Haydn\015\012"
1, 0, Sequencer_specific, 16, 68, 87, 77, 90, 86, 82, 83, 78, 32, 55, 46, 49, 46, 49, 46, 48
1, 0, Time_signature, 4, 2, 24, 8
1, 0, Tempo, 800000
1, 0, Key_signature, 4, "major"
1, 49920, End_track
2, 0, Start_track
2, 0, Program_c, 0, 0
2, 0, Control_c, 0, 7, 127
2, 0, Control_c, 0, 10, 64
2, 0, Note_on_c, 0, 83, 93
2, 144, Note_on_c, 0, 83, 0
2, 144, Note_on_c, 0, 81, 77
2, 189, Note_on_c, 0, 81, 0
2, 192, Note_on_c, 0, 80, 77
2, 281, Note_on_c, 0, 80, 0
2, 288, Note_on_c, 0, 78, 77
2, 377, Note_on_c, 0, 78, 0
2, 384, Note_on_c, 0, 76, 77
2, 451, Note_on_c, 0, 76, 0
2, 456, Note_on_c, 0, 78, 80
2, 468, Note_on_c, 0, 78, 0
2, 468, Note_on_c, 0, 80, 80
2, 480, Note_on_c, 0, 80, 0
2, 480, Note_on_c, 0, 81, 81
2, 525, Note_on_c, 0, 81, 0
2, 528, Note_on_c, 0, 80, 83
2, 573, Note_on_c, 0, 80, 0
2, 576, Note_on_c, 0, 80, 85
2, 584, Note_on_c, 0, 80, 0
2, 584, Note_on_c, 0, 78, 84
2, 592, Note_on_c, 0, 78, 0
2, 592, Note_on_c, 0, 80, 84
2, 600, Note_on_c, 0, 80, 0
2, 600, Note_on_c, 0, 78, 83
2, 608, Note_on_c, 0, 78, 0
2, 608, Note_on_c, 0, 80, 83
2, 616, Note_on_c, 0, 80, 0
2, 616, Note_on_c, 0, 78, 82
2, 624, Note_on_c, 0, 78, 0
2, 624, Note_on_c, 0, 76, 82
2, 669, Note_on_c, 0, 76, 0
2, 768, Note_on_c, 0, 71, 93
2, 912, Note_on_c, 0, 71, 0
2, 912, Note_on_c, 0, 69, 77
2, 957, Note_on_c, 0, 69, 0
2, 960, Note_on_c, 0, 68, 77
2, 1049, Note_on_c, 0, 68, 0
2, 1056, Note_on_c, 0, 66, 77
2, 1145, Note_on_c, 0, 66, 0
2, 1152, Note_on_c, 0, 64, 77
2, 1219, Note_on_c, 0, 64, 0
2, 1224, Note_on_c, 0, 66, 80
2, 1236, Note_on_c, 0, 66, 0
2, 1236, Note_on_c, 0, 68, 80
2, 1248, Note_on_c, 0, 68, 0
2, 1248, Note_on_c, 0, 69, 81
2, 1293, Note_on_c, 0, 69, 0
2, 1296, Note_on_c, 0, 68, 83
2, 1341, Note_on_c, 0, 68, 0
2, 1344, Note_on_c, 0, 73, 85
2, 1344, Note_on_c, 0, 69, 85
2, 1344, Note_on_c, 0, 64, 85
2, 1364, Note_on_c, 0, 73, 0
2, 1364, Note_on_c, 0, 69, 0
2, 1364, Note_on_c, 0, 64, 0
2, 1392, Note_on_c, 0, 71, 85
2, 1392, Note_on_c, 0, 68, 85
2, 1392, Note_on_c, 0, 64, 85
2, 1412, Note_on_c, 0, 71, 0
2, 1412, Note_on_c, 0, 68, 0
2, 1412, Note_on_c, 0, 64, 0
2, 1536, Note_on_c, 0, 64, 77
2, 1548, Note_on_c, 0, 64, 0
2, 1548, Note_on_c, 0, 76, 77
2, 1647, Note_on_c, 0, 76, 0
2, 1648, Note_on_c, 0, 75, 77
2, 1663, Note_on_c, 0, 75, 0
2, 1664, Note_on_c, 0, 73, 77
2, 1679, Note_on_c, 0, 73, 0
2, 1680, Note_on_c, 0, 71, 77
2, 1695, Note_on_c, 0, 71, 0
2, 1696, Note_on_c, 0, 69, 77
2, 1711, Note_on_c, 0, 69, 0
2, 1712, Note_on_c, 0, 68, 77
2, 1727, Note_on_c, 0, 68, 0
2, 1728, Note_on_c, 0, 66, 77
2, 1748, Note_on_c, 0, 66, 0
2, 1840, Note_on_c, 0, 85, 77
2, 1855, Note_on_c, 0, 85, 0
2, 1856, Note_on_c, 0, 83, 77
2, 1871, Note_on_c, 0, 83, 0
2, 1872, Note_on_c, 0, 81, 77
2, 1887, Note_on_c, 0, 81, 0
2, 1888, Note_on_c, 0, 80, 77
2, 1903, Note_on_c, 0, 80, 0
2, 1904, Note_on_c, 0, 78, 77
2, 1919, Note_on_c, 0, 78, 0
2, 1920, Note_on_c, 0, 76, 77
2, 1935, Note_on_c, 0, 76, 0
2, 1936, Note_on_c, 0, 75, 77
2, 1951, Note_on_c, 0, 75, 0
2, 1952, Note_on_c, 0, 73, 77
2, 1967, Note_on_c, 0, 73, 0
2, 1968, Note_on_c, 0, 71, 77
2, 1983, Note_on_c, 0, 71, 0
2, 1984, Note_on_c, 0, 69, 77
2, 1999, Note_on_c, 0, 69, 0
2, 2000, Note_on_c, 0, 68, 77
2, 2015, Note_on_c, 0, 68, 0
2, 2016, Note_on_c, 0, 66, 77
2, 2031, Note_on_c, 0, 66, 0
2, 2032, Note_on_c, 0, 64, 78
2, 2047, Note_on_c, 0, 64, 0
2, 2048, Note_on_c, 0, 63, 79
2, 2063, Note_on_c, 0, 63, 0
2, 2064, Note_on_c, 0, 61, 80
2, 2079, Note_on_c, 0, 61, 0
2, 2080, Note_on_c, 0, 59, 81
2, 2095, Note_on_c, 0, 59, 0
2, 2096, Note_on_c, 0, 57, 82
2, 2111, Note_on_c, 0, 57, 0
2, 2112, Note_on_c, 0, 59, 85
2, 2157, Note_on_c, 0, 59, 0
2, 2160, Note_on_c, 0, 59, 82
2, 2168, Note_on_c, 0, 59, 0
2, 2168, Note_on_c, 0, 57, 82
2, 2176, Note_on_c, 0, 57, 0
2, 2176, Note_on_c, 0, 59, 81
2, 2184, Note_on_c, 0, 59, 0
2, 2184, Note_on_c, 0, 57, 81
2, 2192, Note_on_c, 0, 57, 0
2, 2192, Note_on_c, 0, 59, 81
2, 2200, Note_on_c, 0, 59, 0
2, 2200, Note_on_c, 0, 57, 80
2, 2208, Note_on_c, 0, 57, 0
2, 2208, Note_on_c, 0, 56, 80
2, 2253, Note_on_c, 0, 56, 0
2, 2304, Note_on_c, 0, 64, 77
2, 2316, Note_on_c, 0, 64, 0
2, 2316, Note_on_c, 0, 76, 77
2, 2415, Note_on_c, 0, 76, 0
2, 2416, Note_on_c, 0, 75, 77
2, 2431, Note_on_c, 0, 75, 0
2, 2432, Note_on_c, 0, 73, 77
2, 2447, Note_on_c, 0, 73, 0
2, 2448, Note_on_c, 0, 71, 77
2, 2463, Note_on_c, 0, 71, 0
2, 2464, Note_on_c, 0, 69, 77
2, 2479, Note_on_c, 0, 69, 0
2, 2480, Note_on_c, 0, 68, 77
2, 2495, Note_on_c, 0, 68, 0
2, 2496, Note_on_c, 0, 66, 77
2, 2516, Note_on_c, 0, 66, 0
2, 2608, Note_on_c, 0, 88, 77
2, 2623, Note_on_c, 0, 88, 0
2, 2624, Note_on_c, 0, 87, 77
2, 2639, Note_on_c, 0, 87, 0
2, 2640, Note_on_c, 0, 85, 77
2, 2655, Note_on_c, 0, 85, 0
2, 2656, Note_on_c, 0, 83, 77
2, 2671, Note_on_c, 0, 83, 0
2, 2672, Note_on_c, 0, 81, 77
2, 2687, Note_on_c, 0, 81, 0
2, 2688, Note_on_c, 0, 80, 77
2, 2703, Note_on_c, 0, 80, 0
2, 2704, Note_on_c, 0, 78, 77
2, 2719, Note_on_c, 0, 78, 0
2, 2720, Note_on_c, 0, 76, 77
2, 2735, Note_on_c, 0, 76, 0
2, 2736, Note_on_c, 0, 75, 77
2, 2751, Note_on_c, 0, 75, 0
2, 2752, Note_on_c, 0, 73, 77
2, 2767, Note_on_c, 0, 73, 0
2, 2768, Note_on_c, 0, 71, 77
2, 2783, Note_on_c, 0, 71, 0
2, 2784, Note_on_c, 0, 69, 77
2, 2799, Note_on_c, 0, 69, 0
2, 2800, Note_on_c, 0, 68, 77
2, 2815, Note_on_c, 0, 68, 0
2, 2816, Note_on_c, 0, 66, 78
2, 2831, Note_on_c, 0, 66, 0
2, 2832, Note_on_c, 0, 64, 79
2, 2847, Note_on_c, 0, 64, 0
2, 2848, Note_on_c, 0, 63, 80
2, 2863, Note_on_c, 0, 63, 0
2, 2864, Note_on_c, 0, 69, 81
2, 2879, Note_on_c, 0, 69, 0
2, 2880, Note_on_c, 0, 68, 82
2, 2895, Note_on_c, 0, 68, 0
2, 2896, Note_on_c, 0, 66, 85
2, 2911, Note_on_c, 0, 66, 0
2, 2912, Note_on_c, 0, 64, 85
2, 2927, Note_on_c, 0, 64, 0
2, 2928, Note_on_c, 0, 64, 85
2, 2973, Note_on_c, 0, 64, 0
2, 3072, Note_on_c, 0, 80, 84
2, 3191, Note_on_c, 0, 80, 0
2, 3192, Note_on_c, 0, 81, 68
2, 3198, Note_on_c, 0, 81, 0
2, 3198, Note_on_c, 0, 80, 68
2, 3204, Note_on_c, 0, 80, 0
2, 3204, Note_on_c, 0, 78, 68
2, 3210, Note_on_c, 0, 78, 0
2, 3210, Note_on_c, 0, 80, 68
2, 3216, Note_on_c, 0, 80, 0
2, 3216, Note_on_c, 0, 81, 68
2, 3250, Note_on_c, 0, 81, 0
2, 3252, Note_on_c, 0, 78, 68
2, 3264, Note_on_c, 0, 78, 0
2, 3264, Note_on_c, 0, 78, 84
2, 3360, Note_on_c, 0, 78, 0
2, 3360, Note_on_c, 0, 76, 68
2, 3366, Note_on_c, 0, 76, 0
2, 3366, Note_on_c, 0, 78, 68
2, 3372, Note_on_c, 0, 78, 0
2, 3372, Note_on_c, 0, 76, 68
2, 3406, Note_on_c, 0, 76, 0
2, 3408, Note_on_c, 0, 80, 68
2, 3442, Note_on_c, 0, 80, 0
2, 3444, Note_on_c, 0, 73, 68
2, 3456, Note_on_c, 0, 73, 0
2, 3456, Note_on_c, 0, 75, 68
2, 3589, Note_on_c, 0, 75, 0
2, 3600, Note_on_c, 0, 76, 68
2, 3634, Note_on_c, 0, 76, 0
2, 3636, Note_on_c, 0, 78, 68
2, 3648, Note_on_c, 0, 78, 0
2, 3648, Note_on_c, 0, 76, 68
2, 3660, Note_on_c, 0, 76, 0
2, 3660, Note_on_c, 0, 75, 68
2, 3672, Note_on_c, 0, 75, 0
2, 3672, Note_on_c, 0, 73, 68
2, 3695, Note_on_c, 0, 73, 0
2, 3712, Note_on_c, 0, 61, 85
2, 3727, Note_on_c, 0, 61, 0
2, 3728, Note_on_c, 0, 63, 85
2, 3743, Note_on_c, 0, 63, 0
2, 3744, Note_on_c, 0, 64, 85
2, 3759, Note_on_c, 0, 64, 0
2, 3760, Note_on_c, 0, 63, 85
2, 3775, Note_on_c, 0, 63, 0
2, 3776, Note_on_c, 0, 61, 85
2, 3791, Note_on_c, 0, 61, 0
2, 3792, Note_on_c, 0, 59, 85
2, 3807, Note_on_c, 0, 59, 0
2, 3808, Note_on_c, 0, 58, 85
2, 3823, Note_on_c, 0, 58, 0
2, 3824, Note_on_c, 0, 56, 85
2, 3839, Note_on_c, 0, 56, 0
2, 3840, Note_on_c, 0, 54, 85
2, 3885, Note_on_c, 0, 54, 0
2, 3888, Note_on_c, 0, 78, 77
2, 3959, Note_on_c, 0, 78, 0
2, 3960, Note_on_c, 0, 80, 77
2, 3966, Note_on_c, 0, 80, 0
2, 3966, Note_on_c, 0, 78, 77
2, 3972, Note_on_c, 0, 78, 0
2, 3972, Note_on_c, 0, 76, 77
2, 3978, Note_on_c, 0, 76, 0
2, 3978, Note_on_c, 0, 78, 77
2, 3984, Note_on_c, 0, 78, 0
2, 3984, Note_on_c, 0, 80, 77
2, 4018, Note_on_c, 0, 80, 0
2, 4020, Note_on_c, 0, 76, 77
2, 4032, Note_on_c, 0, 76, 0
2, 4032, Note_on_c, 0, 76, 93
2, 4128, Note_on_c, 0, 76, 0
2, 4128, Note_on_c, 0, 75, 77
2, 4134, Note_on_c, 0, 75, 0
2, 4134, Note_on_c, 0, 76, 77
2, 4140, Note_on_c, 0, 76, 0
2, 4140, Note_on_c, 0, 75, 77
2, 4174, Note_on_c, 0, 75, 0
2, 4176, Note_on_c, 0, 76, 77
2, 4210, Note_on_c, 0, 76, 0
2, 4212, Note_on_c, 0, 73, 77
2, 4224, Note_on_c, 0, 73, 0
2, 4224, Note_on_c, 0, 71, 77
2, 4239, Note_on_c, 0, 71, 0
2, 4240, Note_on_c, 0, 75, 78
2, 4255, Note_on_c, 0, 75, 0
2, 4256, Note_on_c, 0, 73, 79
2, 4271, Note_on_c, 0, 73, 0
2, 4272, Note_on_c, 0, 71, 80
2, 4287, Note_on_c, 0, 71, 0
2, 4288, Note_on_c, 0, 75, 81
2, 4303, Note_on_c, 0, 75, 0
2, 4304, Note_on_c, 0, 78, 82
2, 4319, Note_on_c, 0, 78, 0
2, 4320, Note_on_c, 0, 83, 83
2, 4335, Note_on_c, 0, 83, 0
2, 4336, Note_on_c, 0, 82, 84
2, 4351, Note_on_c, 0, 82, 0
2, 4352, Note_on_c, 0, 80, 85
2, 4367, Note_on_c, 0, 80, 0
2, 4368, Note_on_c, 0, 78, 84
2, 4383, Note_on_c, 0, 78, 0
2, 4384, Note_on_c, 0, 76, 83
2, 4399, Note_on_c, 0, 76, 0
2, 4400, Note_on_c, 0, 75, 82
2, 4415, Note_on_c, 0, 75, 0
2, 4416, Note_on_c, 0, 76, 77
2, 4424, Note_on_c, 0, 76, 0
2, 4424, Note_on_c, 0, 75, 77
2, 4432, Note_on_c, 0, 75, 0
2, 4432, Note_on_c, 0, 76, 77
2, 4440, Note_on_c, 0, 76, 0
2, 4440, Note_on_c, 0, 75, 77
2, 4448, Note_on_c, 0, 75, 0
2, 4448, Note_on_c, 0, 73, 77
2, 4456, Note_on_c, 0, 73, 0
2, 4456, Note_on_c, 0, 75, 77
2, 4464, Note_on_c, 0, 75, 0
2, 4464, Note_on_c, 0, 73, 77
2, 4509, Note_on_c, 0, 73, 0
2, 4624, Note_on_c, 0, 71, 85
2, 4639, Note_on_c, 0, 71, 0
2, 4640, Note_on_c, 0, 70, 85
2, 4655, Note_on_c, 0, 70, 0
2, 4656, Note_on_c, 0, 68, 85
2, 4671, Note_on_c, 0, 68, 0
2, 4672, Note_on_c, 0, 66, 85
2, 4687, Note_on_c, 0, 66, 0
2, 4688, Note_on_c, 0, 64, 85
2, 4703, Note_on_c, 0, 64, 0
2, 4704, Note_on_c, 0, 63, 85
2, 4719, Note_on_c, 0, 63, 0
2, 4720, Note_on_c, 0, 61, 85
2, 4735, Note_on_c, 0, 61, 0
2, 4736, Note_on_c, 0, 59, 85
2, 4751, Note_on_c, 0, 59, 0
2, 4752, Note_on_c, 0, 58, 85
2, 4767, Note_on_c, 0, 58, 0
2, 4768, Note_on_c, 0, 61, 85
2, 4783, Note_on_c, 0, 61, 0
2, 4784, Note_on_c, 0, 66, 85
2, 4799, Note_on_c, 0, 66, 0
2, 4800, Note_on_c, 0, 59, 85
2, 4815, Note_on_c, 0, 59, 0
2, 4816, Note_on_c, 0, 63, 85
2, 4831, Note_on_c, 0, 63, 0
2, 4832, Note_on_c, 0, 66, 85
2, 4847, Note_on_c, 0, 66, 0
2, 4848, Note_on_c, 0, 61, 85
2, 4863, Note_on_c, 0, 61, 0
2, 4864, Note_on_c, 0, 64, 85
2, 4879, Note_on_c, 0, 64, 0
2, 4880, Note_on_c, 0, 66, 85
2, 4895, Note_on_c, 0, 66, 0
2, 4896, Note_on_c, 0, 63, 85
2, 4911, Note_on_c, 0, 63, 0
2, 4912, Note_on_c, 0, 64, 85
2, 4927, Note_on_c, 0, 64, 0
2, 4928, Note_on_c, 0, 66, 85
2, 4943, Note_on_c, 0, 66, 0
2, 4944, Note_on_c, 0, 64, 85
2, 4959, Note_on_c, 0, 64, 0
2, 4960, Note_on_c, 0, 66, 85
2, 4975, Note_on_c, 0, 66, 0
2, 4976, Note_on_c, 0, 68, 85
2, 4991, Note_on_c, 0, 68, 0
2, 4992, Note_on_c, 0, 66, 85
2, 5007, Note_on_c, 0, 66, 0
2, 5008, Note_on_c, 0, 71, 85
2, 5023, Note_on_c, 0, 71, 0
2, 5024, Note_on_c, 0, 70, 85
2, 5039, Note_on_c, 0, 70, 0
2, 5040, Note_on_c, 0, 68, 85
2, 5055, Note_on_c, 0, 68, 0
2, 5056, Note_on_c, 0, 66, 85
2, 5071, Note_on_c, 0, 66, 0
2, 5072, Note_on_c, 0, 64, 85
2, 5087, Note_on_c, 0, 64, 0
2, 5088, Note_on_c, 0, 63, 85
2, 5103, Note_on_c, 0, 63, 0
2, 5104, Note_on_c, 0, 61, 85
2, 5119, Note_on_c, 0, 61, 0
2, 5120, Note_on_c, 0, 59, 85
2, 5135, Note_on_c, 0, 59, 0
2, 5136, Note_on_c, 0, 58, 85
2, 5151, Note_on_c, 0, 58, 0
2, 5152, Note_on_c, 0, 61, 85
2, 5167, Note_on_c, 0, 61, 0
2, 5168, Note_on_c, 0, 66, 85
2, 5183, Note_on_c, 0, 66, 0
2, 5184, Note_on_c, 0, 59, 85
2, 5199, Note_on_c, 0, 59, 0
2, 5200, Note_on_c, 0, 63, 85
2, 5215, Note_on_c, 0, 63, 0
2, 5216, Note_on_c, 0, 66, 85
2, 5231, Note_on_c, 0, 66, 0
2, 5232, Note_on_c, 0, 61, 85
2, 5247, Note_on_c, 0, 61, 0
2, 5248, Note_on_c, 0, 64, 85
2, 5263, Note_on_c, 0, 64, 0
2, 5264, Note_on_c, 0, 66, 85
2, 5279, Note_on_c, 0, 66, 0
2, 5280, Note_on_c, 0, 63, 85
2, 5295, Note_on_c, 0, 63, 0
2, 5296, Note_on_c, 0, 64, 85
2, 5311, Note_on_c, 0, 64, 0
2, 5312, Note_on_c, 0, 66, 85
2, 5327, Note_on_c, 0, 66, 0
2, 5328, Note_on_c, 0, 64, 85
2, 5343, Note_on_c, 0, 64, 0
2, 5344, Note_on_c, 0, 66, 85
2, 5359, Note_on_c, 0, 66, 0
2, 5360, Note_on_c, 0, 68, 85
2, 5375, Note_on_c, 0, 68, 0
2, 5376, Note_on_c, 0, 66, 85
2, 5391, Note_on_c, 0, 66, 0
2, 5392, Note_on_c, 0, 71, 84
2, 5407, Note_on_c, 0, 71, 0
2, 5408, Note_on_c, 0, 70, 84
2, 5423, Note_on_c, 0, 70, 0
2, 5424, Note_on_c, 0, 68, 83
2, 5439, Note_on_c, 0, 68, 0
2, 5440, Note_on_c, 0, 66, 83
2, 5455, Note_on_c, 0, 66, 0
2, 5456, Note_on_c, 0, 64, 82
2, 5471, Note_on_c, 0, 64, 0
2, 5472, Note_on_c, 0, 63, 82
2, 5487, Note_on_c, 0, 63, 0
2, 5488, Note_on_c, 0, 61, 81
2, 5503, Note_on_c, 0, 61, 0
2, 5504, Note_on_c, 0, 59, 81
2, 5519, Note_on_c, 0, 59, 0
2, 5520, Note_on_c, 0, 69, 80
2, 5535, Note_on_c, 0, 69, 0
2, 5536, Note_on_c, 0, 68, 80
2, 5551, Note_on_c, 0, 68, 0
2, 5552, Note_on_c, 0, 66, 79
2, 5567, Note_on_c, 0, 66, 0
2, 5568, Note_on_c, 0, 67, 93
2, 5664, Note_on_c, 0, 67, 0
2, 5664, Note_on_c, 0, 68, 77
2, 5684, Note_on_c, 0, 68, 0
2, 5712, Note_on_c, 0, 76, 77
2, 5727, Note_on_c, 0, 76, 0
2, 5728, Note_on_c, 0, 75, 77
2, 5743, Note_on_c, 0, 75, 0
2, 5744, Note_on_c, 0, 73, 77
2, 5759, Note_on_c, 0, 73, 0
2, 5760, Note_on_c, 0, 72, 93
2, 5856, Note_on_c, 0, 72, 0
2, 5856, Note_on_c, 0, 73, 77
2, 5876, Note_on_c, 0, 73, 0
2, 5904, Note_on_c, 0, 80, 77
2, 5919, Note_on_c, 0, 80, 0
2, 5920, Note_on_c, 0, 78, 77
2, 5935, Note_on_c, 0, 78, 0
2, 5936, Note_on_c, 0, 76, 77
2, 5951, Note_on_c, 0, 76, 0
2, 5952, Note_on_c, 0, 75, 93
2, 5952, Note_on_c, 0, 71, 93
2, 6048, Note_on_c, 0, 75, 0
2, 6048, Note_on_c, 0, 71, 0
2, 6048, Note_on_c, 0, 73, 77
2, 6048, Note_on_c, 0, 70, 77
2, 6093, Note_on_c, 0, 73, 0
2, 6093, Note_on_c, 0, 70, 0
2, 6144, Note_on_c, 0, 71, 85
2, 6147, Note_on_c, 0, 75, 85
2, 6150, Note_on_c, 0, 78, 85
2, 6153, Note_on_c, 0, 83, 85
2, 6237, Note_on_c, 0, 83, 0
2, 6237, Note_on_c, 0, 78, 0
2, 6237, Note_on_c, 0, 75, 0
2, 6237, Note_on_c, 0, 71, 0
2, 6288, Note_on_c, 0, 66, 85
2, 6303, Note_on_c, 0, 66, 0
2, 6304, Note_on_c, 0, 68, 85
2, 6319, Note_on_c, 0, 68, 0
2, 6320, Note_on_c, 0, 70, 85
2, 6335, Note_on_c, 0, 70, 0
2, 6336, Note_on_c, 0, 71, 85
2, 6351, Note_on_c, 0, 71, 0
2, 6352, Note_on_c, 0, 75, 85
2, 6367, Note_on_c, 0, 75, 0
2, 6368, Note_on_c, 0, 78, 85
2, 6383, Note_on_c, 0, 78, 0
2, 6384, Note_on_c, 0, 83, 85
2, 6399, Note_on_c, 0, 83, 0
2, 6400, Note_on_c, 0, 82, 85
2, 6415, Note_on_c, 0, 82, 0
2, 6416, Note_on_c, 0, 80, 85
2, 6431, Note_on_c, 0, 80, 0
2, 6432, Note_on_c, 0, 78, 85
2, 6447, Note_on_c, 0, 78, 0
2, 6448, Note_on_c, 0, 76, 85
2, 6463, Note_on_c, 0, 76, 0
2, 6464, Note_on_c, 0, 75, 85
2, 6479, Note_on_c, 0, 75, 0
2, 6480, Note_on_c, 0, 73, 85
2, 6495, Note_on_c, 0, 73, 0
2, 6496, Note_on_c, 0, 75, 85
2, 6511, Note_on_c, 0, 75, 0
2, 6512, Note_on_c, 0, 76, 85
2, 6527, Note_on_c, 0, 76, 0
2, 6528, Note_on_c, 0, 75, 85
2, 6617, Note_on_c, 0, 75, 0
2, 6672, Note_on_c, 0, 66, 85
2, 6687, Note_on_c, 0, 66, 0
2, 6688, Note_on_c, 0, 68, 85
2, 6703, Note_on_c, 0, 68, 0
2, 6704, Note_on_c, 0, 70, 85
2, 6719, Note_on_c, 0, 70, 0
2, 6720, Note_on_c, 0, 71, 85
2, 6735, Note_on_c, 0, 71, 0
2, 6736, Note_on_c, 0, 75, 85
2, 6751, Note_on_c, 0, 75, 0
2, 6752, Note_on_c, 0, 78, 85
2, 6767, Note_on_c, 0, 78, 0
2, 6768, Note_on_c, 0, 83, 85
2, 6783, Note_on_c, 0, 83, 0
2, 6784, Note_on_c, 0, 82, 85
2, 6799, Note_on_c, 0, 82, 0
2, 6800, Note_on_c, 0, 80, 85
2, 6815, Note_on_c, 0, 80, 0
2, 6816, Note_on_c, 0, 78, 85
2, 6861, Note_on_c, 0, 78, 0
2, 6864, Note_on_c, 0, 83, 77
2, 6879, Note_on_c, 0, 83, 0
2, 6880, Note_on_c, 0, 82, 77
2, 6895, Note_on_c, 0, 82, 0
2, 6896, Note_on_c, 0, 80, 77
2, 6911, Note_on_c, 0, 80, 0
2, 6912, Note_on_c, 0, 78, 77
2, 6927, Note_on_c, 0, 78, 0
2, 6928, Note_on_c, 0, 80, 77
2, 6943, Note_on_c, 0, 80, 0
2, 6944, Note_on_c, 0, 82, 77
2, 6959, Note_on_c, 0, 82, 0
2, 6960, Note_on_c, 0, 83, 78
2, 6975, Note_on_c, 0, 83, 0
2, 6976, Note_on_c, 0, 82, 78
2, 6991, Note_on_c, 0, 82, 0
2, 6992, Note_on_c, 0, 80, 78
2, 7007, Note_on_c, 0, 80, 0
2, 7008, Note_on_c, 0, 78, 79
2, 7023, Note_on_c, 0, 78, 0
2, 7024, Note_on_c, 0, 80, 79
2, 7039, Note_on_c, 0, 80, 0
2, 7040, Note_on_c, 0, 82, 79
2, 7055, Note_on_c, 0, 82, 0
2, 7056, Note_on_c, 0, 83, 80
2, 7071, Note_on_c, 0, 83, 0
2, 7072, Note_on_c, 0, 82, 80
2, 7087, Note_on_c, 0, 82, 0
2, 7088, Note_on_c, 0, 80, 80
2, 7103, Note_on_c, 0, 80, 0
2, 7104, Note_on_c, 0, 78, 81
2, 7119, Note_on_c, 0, 78, 0
2, 7120, Note_on_c, 0, 80, 81
2, 7135, Note_on_c, 0, 80, 0
2, 7136, Note_on_c, 0, 81, 81
2, 7151, Note_on_c, 0, 81, 0
2, 7152, Note_on_c, 0, 80, 82
2, 7167, Note_on_c, 0, 80, 0
2, 7168, Note_on_c, 0, 81, 82
2, 7183, Note_on_c, 0, 81, 0
2, 7184, Note_on_c, 0, 83, 82
2, 7199, Note_on_c, 0, 83, 0
2, 7200, Note_on_c, 0, 81, 85
2, 7289, Note_on_c, 0, 81, 0
2, 7296, Note_on_c, 0, 80, 85
2, 7311, Note_on_c, 0, 80, 0
2, 7312, Note_on_c, 0, 82, 85
2, 7327, Note_on_c, 0, 82, 0
2, 7328, Note_on_c, 0, 83, 85
2, 7343, Note_on_c, 0, 83, 0
2, 7344, Note_on_c, 0, 82, 85
2, 7359, Note_on_c, 0, 82, 0
2, 7360, Note_on_c, 0, 80, 85
2, 7375, Note_on_c, 0, 80, 0
2, 7376, Note_on_c, 0, 78, 85
2, 7391, Note_on_c, 0, 78, 0
2, 7392, Note_on_c, 0, 76, 85
2, 7407, Note_on_c, 0, 76, 0
2, 7408, Note_on_c, 0, 75, 85
2, 7423, Note_on_c, 0, 75, 0
2, 7424, Note_on_c, 0, 73, 85
2, 7439, Note_on_c, 0, 73, 0
2, 7440, Note_on_c, 0, 71, 85
2, 7455, Note_on_c, 0, 71, 0
2, 7456, Note_on_c, 0, 70, 85
2, 7471, Note_on_c, 0, 70, 0
2, 7472, Note_on_c, 0, 68, 85
2, 7487, Note_on_c, 0, 68, 0
2, 7488, Note_on_c, 0, 66, 85
2, 7577, Note_on_c, 0, 66, 0
2, 7584, Note_on_c, 0, 75, 81
2, 7592, Note_on_c, 0, 75, 0
2, 7592, Note_on_c, 0, 73, 80
2, 7600, Note_on_c, 0, 73, 0
2, 7600, Note_on_c, 0, 75, 80
2, 7608, Note_on_c, 0, 75, 0
2, 7608, Note_on_c, 0, 73, 80
2, 7616, Note_on_c, 0, 73, 0
2, 7616, Note_on_c, 0, 75, 80
2, 7624, Note_on_c, 0, 75, 0
2, 7624, Note_on_c, 0, 73, 79
2, 7632, Note_on_c, 0, 73, 0
2, 7632, Note_on_c, 0, 75, 79
2, 7640, Note_on_c, 0, 75, 0
2, 7640, Note_on_c, 0, 73, 79
2, 7648, Note_on_c, 0, 73, 0
2, 7648, Note_on_c, 0, 75, 79
2, 7656, Note_on_c, 0, 75, 0
2, 7656, Note_on_c, 0, 73, 78
2, 7664, Note_on_c, 0, 73, 0
2, 7664, Note_on_c, 0, 71, 78
2, 7672, Note_on_c, 0, 71, 0
2, 7672, Note_on_c, 0, 73, 78
2, 7680, Note_on_c, 0, 73, 0
2, 7680, Note_on_c, 0, 71, 77
2, 7769, Note_on_c, 0, 71, 0
2, 7824, Note_on_c, 0, 78, 77
2, 7839, Note_on_c, 0, 78, 0
2, 7840, Note_on_c, 0, 80, 77
2, 7855, Note_on_c, 0, 80, 0
2, 7856, Note_on_c, 0, 78, 77
2, 7871, Note_on_c, 0, 78, 0
2, 7872, Note_on_c, 0, 81, 77
2, 7887, Note_on_c, 0, 81, 0
2, 7888, Note_on_c, 0, 80, 77
2, 7903, Note_on_c, 0, 80, 0
2, 7904, Note_on_c, 0, 78, 77
2, 7919, Note_on_c, 0, 78, 0
2, 7920, Note_on_c, 0, 76, 77
2, 7935, Note_on_c, 0, 76, 0
2, 7936, Note_on_c, 0, 78, 77
2, 7951, Note_on_c, 0, 78, 0
2, 7952, Note_on_c, 0, 76, 77
2, 7967, Note_on_c, 0, 76, 0
2, 7968, Note_on_c, 0, 80, 77
2, 7983, Note_on_c, 0, 80, 0
2, 7984, Note_on_c, 0, 78, 77
2, 7999, Note_on_c, 0, 78, 0
2, 8000, Note_on_c, 0, 76, 77
2, 8015, Note_on_c, 0, 76, 0
2, 8016, Note_on_c, 0, 75, 77
2, 8031, Note_on_c, 0, 75, 0
2, 8032, Note_on_c, 0, 78, 77
2, 8047, Note_on_c, 0, 78, 0
2, 8048, Note_on_c, 0, 83, 77
2, 8063, Note_on_c, 0, 83, 0
2, 8064, Note_on_c, 0, 80, 77
2, 8079, Note_on_c, 0, 80, 0
2, 8080, Note_on_c, 0, 78, 78
2, 8095, Note_on_c, 0, 78, 0
2, 8096, Note_on_c, 0, 76, 79
2, 8111, Note_on_c, 0, 76, 0
2, 8112, Note_on_c, 0, 75, 80
2, 8127, Note_on_c, 0, 75, 0
2, 8128, Note_on_c, 0, 76, 81
2, 8143, Note_on_c, 0, 76, 0
2, 8144, Note_on_c, 0, 73, 82
2, 8159, Note_on_c, 0, 73, 0
2, 8160, Note_on_c, 0, 71, 85
2, 8205, Note_on_c, 0, 71, 0
2, 8208, Note_on_c, 0, 75, 85
2, 8220, Note_on_c, 0, 75, 0
2, 8220, Note_on_c, 0, 73, 85
2, 8232, Note_on_c, 0, 73, 0
2, 8232, Note_on_c, 0, 71, 85
2, 8244, Note_on_c, 0, 71, 0
2, 8244, Note_on_c, 0, 73, 85
2, 8256, Note_on_c, 0, 73, 0
2, 8256, Note_on_c, 0, 71, 82
2, 8345, Note_on_c, 0, 71, 0
2, 8400, Note_on_c, 0, 69, 77
2, 8445, Note_on_c, 0, 69, 0
2, 8448, Note_on_c, 0, 68, 77
2, 8544, Note_on_c, 0, 68, 0
2, 8544, Note_on_c, 0, 66, 77
2, 8633, Note_on_c, 0, 66, 0
2, 8640, Control_c, 0, 64, 127
2, 8640, Note_on_c, 0, 64, 93
2, 8648, Note_on_c, 0, 68, 93
2, 8656, Note_on_c, 0, 73, 93
2, 8688, Note_on_c, 0, 73, 0
2, 8688, Note_on_c, 0, 68, 0
2, 8688, Note_on_c, 0, 64, 0
2, 8688, Note_on_c, 0, 68, 77
2, 8703, Note_on_c, 0, 68, 0
2, 8704, Note_on_c, 0, 64, 77
2, 8719, Note_on_c, 0, 64, 0
2, 8720, Control_c, 0, 64, 0
2, 8720, Note_on_c, 0, 61, 77
2, 8735, Note_on_c, 0, 61, 0
2, 8736, Note_on_c, 0, 59, 77
2, 8781, Note_on_c, 0, 59, 0
2, 8784, Note_on_c, 0, 59, 77
2, 8790, Note_on_c, 0, 59, 0
2, 8790, Note_on_c, 0, 58, 77
2, 8796, Note_on_c, 0, 58, 0
2, 8796, Note_on_c, 0, 56, 77
2, 8802, Note_on_c, 0, 56, 0
2, 8802, Note_on_c, 0, 58, 77
2, 8829, Note_on_c, 0, 58, 0
2, 8832, Note_on_c, 0, 59, 77
2, 8847, Note_on_c, 0, 59, 0
2, 8848, Note_on_c, 0, 63, 77
2, 8863, Note_on_c, 0, 63, 0
2, 8864, Note_on_c, 0, 66, 77
2, 8879, Note_on_c, 0, 66, 0
2, 8880, Note_on_c, 0, 71, 77
2, 8895, Note_on_c, 0, 71, 0
2, 8896, Note_on_c, 0, 66, 77
2, 8911, Note_on_c, 0, 66, 0
2, 8912, Note_on_c, 0, 63, 77
2, 8927, Note_on_c, 0, 63, 0
2, 9216, Note_on_c, 0, 83, 93
2, 9360, Note_on_c, 0, 83, 0
2, 9360, Note_on_c, 0, 81, 77
2, 9405, Note_on_c, 0, 81, 0
2, 9408, Note_on_c, 0, 80, 77
2, 9497, Note_on_c, 0, 80, 0
2, 9504, Note_on_c, 0, 78, 77
2, 9593, Note_on_c, 0, 78, 0
2, 9600, Note_on_c, 0, 76, 77
2, 9667, Note_on_c, 0, 76, 0
2, 9672, Note_on_c, 0, 78, 80
2, 9684, Note_on_c, 0, 78, 0
2, 9684, Note_on_c, 0, 80, 80
2, 9696, Note_on_c, 0, 80, 0
2, 9696, Note_on_c, 0, 81, 81
2, 9741, Note_on_c, 0, 81, 0
2, 9744, Note_on_c, 0, 80, 83
2, 9789, Note_on_c, 0, 80, 0
2, 9792, Note_on_c, 0, 80, 85
2, 9800, Note_on_c, 0, 80, 0
2, 9800, Note_on_c, 0, 78, 84
2, 9808, Note_on_c, 0, 78, 0
2, 9808, Note_on_c, 0, 80, 84
2, 9816, Note_on_c, 0, 80, 0
2, 9816, Note_on_c, 0, 78, 83
2, 9824, Note_on_c, 0, 78, 0
2, 9824, Note_on_c, 0, 80, 83
2, 9832, Note_on_c, 0, 80, 0
2, 9832, Note_on_c, 0, 78, 82
2, 9840, Note_on_c, 0, 78, 0
2, 9840, Note_on_c, 0, 76, 82
2, 9885, Note_on_c, 0, 76, 0
2, 9984, Note_on_c, 0, 71, 93
2, 10128, Note_on_c, 0, 71, 0
2, 10128, Note_on_c, 0, 69, 77
2, 10173, Note_on_c, 0, 69, 0
2, 10176, Note_on_c, 0, 68, 77
2, 10265, Note_on_c, 0, 68, 0
2, 10272, Note_on_c, 0, 66, 77
2, 10361, Note_on_c, 0, 66, 0
2, 10368, Note_on_c, 0, 64, 77
2, 10435, Note_on_c, 0, 64, 0
2, 10440, Note_on_c, 0, 66, 80
2, 10452, Note_on_c, 0, 66, 0
2, 10452, Note_on_c, 0, 68, 80
2, 10464, Note_on_c, 0, 68, 0
2, 10464, Note_on_c, 0, 69, 81
2, 10509, Note_on_c, 0, 69, 0
2, 10512, Note_on_c, 0, 68, 83
2, 10557, Note_on_c, 0, 68, 0
2, 10560, Note_on_c, 0, 73, 85
2, 10560, Note_on_c, 0, 69, 85
2, 10560, Note_on_c, 0, 64, 85
2, 10580, Note_on_c, 0, 73, 0
2, 10580, Note_on_c, 0, 69, 0
2, 10580, Note_on_c, 0, 64, 0
2, 10608, Note_on_c, 0, 71, 85
2, 10608, Note_on_c, 0, 68, 85
2, 10608, Note_on_c, 0, 64, 85
2, 10628, Note_on_c, 0, 71, 0
2, 10628, Note_on_c, 0, 68, 0
2, 10628, Note_on_c, 0, 64, 0
2, 10752, Note_on_c, 0, 64, 77
2, 10764, Note_on_c, 0, 64, 0
2, 10764, Note_on_c, 0, 76, 77
2, 10863, Note_on_c, 0, 76, 0
2, 10864, Note_on_c, 0, 75, 77
2, 10879, Note_on_c, 0, 75, 0
2, 10880, Note_on_c, 0, 73, 77
2, 10895, Note_on_c, 0, 73, 0
2, 10896, Note_on_c, 0, 71, 77
2, 10911, Note_on_c, 0, 71, 0
2, 10912, Note_on_c, 0, 69, 77
2, 10927, Note_on_c, 0, 69, 0
2, 10928, Note_on_c, 0, 68, 77
2, 10943, Note_on_c, 0, 68, 0
2, 10944, Note_on_c, 0, 66, 77
2, 10964, Note_on_c, 0, 66, 0
2, 11056, Note_on_c, 0, 85, 77
2, 11071, Note_on_c, 0, 85, 0
2, 11072, Note_on_c, 0, 83, 77
2, 11087, Note_on_c, 0, 83, 0
2, 11088, Note_on_c, 0, 81, 77
2, 11103, Note_on_c, 0, 81, 0
2, 11104, Note_on_c, 0, 80, 77
2, 11119, Note_on_c, 0, 80, 0
2, 11120, Note_on_c, 0, 78, 77
2, 11135, Note_on_c, 0, 78, 0
2, 11136, Note_on_c, 0, 76, 77
2, 11151, Note_on_c, 0, 76, 0
2, 11152, Note_on_c, 0, 75, 77
2, 11167, Note_on_c, 0, 75, 0
2, 11168, Note_on_c, 0, 73, 77
2, 11183, Note_on_c, 0, 73, 0
2, 11184, Note_on_c, 0, 71, 77
2, 11199, Note_on_c, 0, 71, 0
2, 11200, Note_on_c, 0, 69, 77
2, 11215, Note_on_c, 0, 69, 0
2, 11216, Note_on_c, 0, 68, 77
2, 11231, Note_on_c, 0, 68, 0
2, 11232, Note_on_c, 0, 66, 77
2, 11247, Note_on_c, 0, 66, 0
2, 11248, Note_on_c, 0, 64, 78
2, 11263, Note_on_c, 0, 64, 0
2, 11264, Note_on_c, 0, 63, 79
2, 11279, Note_on_c, 0, 63, 0
2, 11280, Note_on_c, 0, 61, 80
2, 11295, Note_on_c, 0, 61, 0
2, 11296, Note_on_c, 0, 59, 81
2, 11311, Note_on_c, 0, 59, 0
2, 11312, Note_on_c, 0, 57, 82
2, 11327, Note_on_c, 0, 57, 0
2, 11328, Note_on_c, 0, 59, 85
2, 11373, Note_on_c, 0, 59, 0
2, 11376, Note_on_c, 0, 59, 82
2, 11384, Note_on_c, 0, 59, 0
2, 11384, Note_on_c, 0, 57, 82
2, 11392, Note_on_c, 0, 57, 0
2, 11392, Note_on_c, 0, 59, 81
2, 11400, Note_on_c, 0, 59, 0
2, 11400, Note_on_c, 0, 57, 81
2, 11408, Note_on_c, 0, 57, 0
2, 11408, Note_on_c, 0, 59, 81
2, 11416, Note_on_c, 0, 59, 0
2, 11416, Note_on_c, 0, 57, 80
2, 11424, Note_on_c, 0, 57, 0
2, 11424, Note_on_c, 0, 56, 80
2, 11469, Note_on_c, 0, 56, 0
2, 11520, Note_on_c, 0, 64, 77
2, 11532, Note_on_c, 0, 64, 0
2, 11532, Note_on_c, 0, 76, 77
2, 11631, Note_on_c, 0, 76, 0
2, 11632, Note_on_c, 0, 75, 77
2, 11647, Note_on_c, 0, 75, 0
2, 11648, Note_on_c, 0, 73, 77
2, 11663, Note_on_c, 0, 73, 0
2, 11664, Note_on_c, 0, 71, 77
2, 11679, Note_on_c, 0, 71, 0
2, 11680, Note_on_c, 0, 69, 77
2, 11695, Note_on_c, 0, 69, 0
2, 11696, Note_on_c, 0, 68, 77
2, 11711, Note_on_c, 0, 68, 0
2, 11712, Note_on_c, 0, 66, 77
2, 11732, Note_on_c, 0, 66, 0
2, 11824, Note_on_c, 0, 88, 77
2, 11839, Note_on_c, 0, 88, 0
2, 11840, Note_on_c, 0, 87, 77
2, 11855, Note_on_c, 0, 87, 0
2, 11856, Note_on_c, 0, 85, 77
2, 11871, Note_on_c, 0, 85, 0
2, 11872, Note_on_c, 0, 83, 77
2, 11887, Note_on_c, 0, 83, 0
2, 11888, Note_on_c, 0, 81, 77
2, 11903, Note_on_c, 0, 81, 0
2, 11904, Note_on_c, 0, 80, 77
2, 11919, Note_on_c, 0, 80, 0
2, 11920, Note_on_c, 0, 78, 77
2, 11935, Note_on_c, 0, 78, 0
2, 11936, Note_on_c, 0, 76, 77
2, 11951, Note_on_c, 0, 76, 0
2, 11952, Note_on_c, 0, 75, 77
2, 11967, Note_on_c, 0, 75, 0
2, 11968, Note_on_c, 0, 73, 77
2, 11983, Note_on_c, 0, 73, 0
2, 11984, Note_on_c, 0, 71, 77
2, 11999, Note_on_c, 0, 71, 0
2, 12000, Note_on_c, 0, 69, 77
2, 12015, Note_on_c, 0, 69, 0
2, 12016, Note_on_c, 0, 68, 77
2, 12031, Note_on_c, 0, 68, 0
2, 12032, Note_on_c, 0, 66, 78
2, 12047, Note_on_c, 0, 66, 0
2, 12048, Note_on_c, 0, 64, 79
2, 12063, Note_on_c, 0, 64, 0
2, 12064, Note_on_c, 0, 63, 80
2, 12079, Note_on_c, 0, 63, 0
2, 12080, Note_on_c, 0, 69, 81
2, 12095, Note_on_c, 0, 69, 0
2, 12096, Note_on_c, 0, 68, 82
2, 12111, Note_on_c, 0, 68, 0
2, 12112, Note_on_c, 0, 66, 85
2, 12127, Note_on_c, 0, 66, 0
2, 12128, Note_on_c, 0, 64, 85
2, 12143, Note_on_c, 0, 64, 0
2, 12144, Note_on_c, 0, 64, 85
2, 12189, Note_on_c, 0, 64, 0
2, 12288, Note_on_c, 0, 80, 84
2, 12407, Note_on_c, 0, 80, 0
2, 12408, Note_on_c, 0, 81, 68
2, 12414, Note_on_c, 0, 81, 0
2, 12414, Note_on_c, 0, 80, 68
2, 12420, Note_on_c, 0, 80, 0
2, 12420, Note_on_c, 0, 78, 68
2, 12426, Note_on_c, 0, 78, 0
2, 12426, Note_on_c, 0, 80, 68
2, 12432, Note_on_c, 0, 80, 0
2, 12432, Note_on_c, 0, 81, 68
2, 12466, Note_on_c, 0, 81, 0
2, 12468, Note_on_c, 0, 78, 68
2, 12480, Note_on_c, 0, 78, 0
2, 12480, Note_on_c, 0, 78, 84
2, 12576, Note_on_c, 0, 78, 0
2, 12576, Note_on_c, 0, 76, 68
2, 12582, Note_on_c, 0, 76, 0
2, 12582, Note_on_c, 0, 78, 68
2, 12588, Note_on_c, 0, 78, 0
2, 12588, Note_on_c, 0, 76, 68
2, 12622, Note_on_c, 0, 76, 0
2, 12624, Note_on_c, 0, 80, 68
2, 12658, Note_on_c, 0, 80, 0
2, 12660, Note_on_c, 0, 73, 68
2, 12672, Note_on_c, 0, 73, 0
2, 12672, Note_on_c, 0, 75, 68
2, 12805, Note_on_c, 0, 75, 0
2, 12816, Note_on_c, 0, 76, 68
2, 12850, Note_on_c, 0, 76, 0
2, 12852, Note_on_c, 0, 78, 68
2, 12864, Note_on_c, 0, 78, 0
2, 12864, Note_on_c, 0, 76, 68
2, 12876, Note_on_c, 0, 76, 0
2, 12876, Note_on_c, 0, 75, 68
2, 12888, Note_on_c, 0, 75, 0
2, 12888, Note_on_c, 0, 73, 68
2, 12911, Note_on_c, 0, 73, 0
2, 12928, Note_on_c, 0, 61, 85
2, 12943, Note_on_c, 0, 61, 0
2, 12944, Note_on_c, 0, 63, 85
2, 12959, Note_on_c, 0, 63, 0
2, 12960, Note_on_c, 0, 64, 85
2, 12975, Note_on_c, 0, 64, 0
2, 12976, Note_on_c, 0, 63, 85
2, 12991, Note_on_c, 0, 63, 0
2, 12992, Note_on_c, 0, 61, 85
2, 13007, Note_on_c, 0, 61, 0
2, 13008, Note_on_c, 0, 59, 85
2, 13023, Note_on_c, 0, 59, 0
2, 13024, Note_on_c, 0, 58, 85
2, 13039, Note_on_c, 0, 58, 0
2, 13040, Note_on_c, 0, 56, 85
2, 13055, Note_on_c, 0, 56, 0
2, 13056, Note_on_c, 0, 54, 85
2, 13101, Note_on_c, 0, 54, 0
2, 13104, Note_on_c, 0, 78, 77
2, 13175, Note_on_c, 0, 78, 0
2, 13176, Note_on_c, 0, 80, 77
2, 13182, Note_on_c, 0, 80, 0
2, 13182, Note_on_c, 0, 78, 77
2, 13188, Note_on_c, 0, 78, 0
2, 13188, Note_on_c, 0, 76, 77
2, 13194, Note_on_c, 0, 76, 0
2, 13194, Note_on_c, 0, 78, 77
2, 13200, Note_on_c, 0, 78, 0
2, 13200, Note_on_c, 0, 80, 77
2, 13234, Note_on_c, 0, 80, 0
2, 13236, Note_on_c, 0, 76, 77
2, 13248, Note_on_c, 0, 76, 0
2, 13248, Note_on_c, 0, 76, 93
2, 13344, Note_on_c, 0, 76, 0
2, 13344, Note_on_c, 0, 75, 77
2, 13350, Note_on_c, 0, 75, 0
2, 13350, Note_on_c, 0, 76, 77
2, 13356, Note_on_c, 0, 76, 0
2, 13356, Note_on_c, 0, 75, 77
2, 13390, Note_on_c, 0, 75, 0
2, 13392, Note_on_c, 0, 76, 77
2, 13426, Note_on_c, 0, 76, 0
2, 13428, Note_on_c, 0, 73, 77
2, 13440, Note_on_c, 0, 73, 0
2, 13440, Note_on_c, 0, 71, 77
2, 13455, Note_on_c, 0, 71, 0
2, 13456, Note_on_c, 0, 75, 78
2, 13471, Note_on_c, 0, 75, 0
2, 13472, Note_on_c, 0, 73, 79
2, 13487, Note_on_c, 0, 73, 0
2, 13488, Note_on_c, 0, 71, 80
2, 13503, Note_on_c, 0, 71, 0
2, 13504, Note_on_c, 0, 75, 81
2, 13519, Note_on_c, 0, 75, 0
2, 13520, Note_on_c, 0, 78, 82
2, 13535, Note_on_c, 0, 78, 0
2, 13536, Note_on_c, 0, 83, 83
2, 13551, Note_on_c, 0, 83, 0
2, 13552, Note_on_c, 0, 82, 84
2, 13567, Note_on_c, 0, 82, 0
2, 13568, Note_on_c, 0, 80, 85
2, 13583, Note_on_c, 0, 80, 0
2, 13584, Note_on_c, 0, 78, 84
2, 13599, Note_on_c, 0, 78, 0
2, 13600, Note_on_c, 0, 76, 83
2, 13615, Note_on_c, 0, 76, 0
2, 13616, Note_on_c, 0, 75, 82
2, 13631, Note_on_c, 0, 75, 0
2, 13632, Note_on_c, 0, 76, 77
2, 13640, Note_on_c, 0, 76, 0
2, 13640, Note_on_c, 0, 75, 77
2, 13648, Note_on_c, 0, 75, 0
2, 13648, Note_on_c, 0, 76, 77
2, 13656, Note_on_c, 0, 76, 0
2, 13656, Note_on_c, 0, 75, 77
2, 13664, Note_on_c, 0, 75, 0
2, 13664, Note_on_c, 0, 73, 77
2, 13672, Note_on_c, 0, 73, 0
2, 13672, Note_on_c, 0, 75, 77
2, 13680, Note_on_c, 0, 75, 0
2, 13680, Note_on_c, 0, 73, 77
2, 13725, Note_on_c, 0, 73, 0
2, 13840, Note_on_c, 0, 71, 85
2, 13855, Note_on_c, 0, 71, 0
2, 13856, Note_on_c, 0, 70, 85
2, 13871, Note_on_c, 0, 70, 0
2, 13872, Note_on_c, 0, 68, 85
2, 13887, Note_on_c, 0, 68, 0
2, 13888, Note_on_c, 0, 66, 85
2, 13903, Note_on_c, 0, 66, 0
2, 13904, Note_on_c, 0, 64, 85
2, 13919, Note_on_c, 0, 64, 0
2, 13920, Note_on_c, 0, 63, 85
2, 13935, Note_on_c, 0, 63, 0
2, 13936, Note_on_c, 0, 61, 85
2, 13951, Note_on_c, 0, 61, 0
2, 13952, Note_on_c, 0, 59, 85
2, 13967, Note_on_c, 0, 59, 0
2, 13968, Note_on_c, 0, 58, 85
2, 13983, Note_on_c, 0, 58, 0
2, 13984, Note_on_c, 0, 61, 85
2, 13999, Note_on_c, 0, 61, 0
2, 14000, Note_on_c, 0, 66, 85
2, 14015, Note_on_c, 0, 66, 0
2, 14016, Note_on_c, 0, 59, 85
2, 14031, Note_on_c, 0, 59, 0
2, 14032, Note_on_c, 0, 63, 85
2, 14047, Note_on_c, 0, 63, 0
2, 14048, Note_on_c, 0, 66, 85
2, 14063, Note_on_c, 0, 66, 0
2, 14064, Note_on_c, 0, 61, 85
2, 14079, Note_on_c, 0, 61, 0
2, 14080, Note_on_c, 0, 64, 85
2, 14095, Note_on_c, 0, 64, 0
2, 14096, Note_on_c, 0, 66, 85
2, 14111, Note_on_c, 0, 66, 0
2, 14112, Note_on_c, 0, 63, 85
2, 14127, Note_on_c, 0, 63, 0
2, 14128, Note_on_c, 0, 64, 85
2, 14143, Note_on_c, 0, 64, 0
2, 14144, Note_on_c, 0, 66, 85
2, 14159, Note_on_c, 0, 66, 0
2, 14160, Note_on_c, 0, 64, 85
2, 14175, Note_on_c, 0, 64, 0
2, 14176, Note_on_c, 0, 66, 85
2, 14191, Note_on_c, 0, 66, 0
2, 14192, Note_on_c, 0, 68, 85
2, 14207, Note_on_c, 0, 68, 0
2, 14208, Note_on_c, 0, 66, 85
2, 14223, Note_on_c, 0, 66, 0
2, 14224, Note_on_c, 0, 71, 85
2, 14239, Note_on_c, 0, 71, 0
2, 14240, Note_on_c, 0, 70, 85
2, 14255, Note_on_c, 0, 70, 0
2, 14256, Note_on_c, 0, 68, 85
2, 14271, Note_on_c, 0, 68, 0
2, 14272, Note_on_c, 0, 66, 85
2, 14287, Note_on_c, 0, 66, 0
2, 14288, Note_on_c, 0, 64, 85
2, 14303, Note_on_c, 0, 64, 0
2, 14304, Note_on_c, 0, 63, 85
2, 14319, Note_on_c, 0, 63, 0
2, 14320, Note_on_c, 0, 61, 85
2, 14335, Note_on_c, 0, 61, 0
2, 14336, Note_on_c, 0, 59, 85
2, 14351, Note_on_c, 0, 59, 0
2, 14352, Note_on_c, 0, 58, 85
2, 14367, Note_on_c, 0, 58, 0
2, 14368, Note_on_c, 0, 61, 85
2, 14383, Note_on_c, 0, 61, 0
2, 14384, Note_on_c, 0, 66, 85
2, 14399, Note_on_c, 0, 66, 0
2, 14400, Note_on_c, 0, 59, 85
2, 14415, Note_on_c, 0, 59, 0
2, 14416, Note_on_c, 0, 63, 85
2, 14431, Note_on_c, 0, 63, 0
2, 14432, Note_on_c, 0, 66, 85
2, 14447, Note_on_c, 0, 66, 0
2, 14448, Note_on_c, 0, 61, 85
2, 14463, Note_on_c, 0, 61, 0
2, 14464, Note_on_c, 0, 64, 85
2, 14479, Note_on_c, 0, 64, 0
2, 14480, Note_on_c, 0, 66, 85
2, 14495, Note_on_c, 0, 66, 0
2, 14496, Note_on_c, 0, 63, 85
2, 14511, Note_on_c, 0, 63, 0
2, 14512, Note_on_c, 0, 64, 85
2, 14527, Note_on_c, 0, 64, 0
2, 14528, Note_on_c, 0, 66, 85
2, 14543, Note_on_c, 0, 66, 0
2, 14544, Note_on_c, 0, 64, 85
2, 14559, Note_on_c, 0, 64, 0
2, 14560, Note_on_c, 0, 66, 85
2, 14575, Note_on_c, 0, 66, 0
2, 14576, Note_on_c, 0, 68, 85
2, 14591, Note_on_c, 0, 68, 0
2, 14592, Note_on_c, 0, 66, 85
2, 14607, Note_on_c, 0, 66, 0
2, 14608, Note_on_c, 0, 71, 84
2, 14623, Note_on_c, 0, 71, 0
2, 14624, Note_on_c, 0, 70, 84
2, 14639, Note_on_c, 0, 70, 0
2, 14640, Note_on_c, 0, 68, 83
2, 14655, Note_on_c, 0, 68, 0
2, 14656, Note_on_c, 0, 66, 83
2, 14671, Note_on_c, 0, 66, 0
2, 14672, Note_on_c, 0, 64, 82
2, 14687, Note_on_c, 0, 64, 0
2, 14688, Note_on_c, 0, 63, 82
2, 14703, Note_on_c, 0, 63, 0
2, 14704, Note_on_c, 0, 61, 81
2, 14719, Note_on_c, 0, 61, 0
2, 14720, Note_on_c, 0, 59, 81
2, 14735, Note_on_c, 0, 59, 0
2, 14736, Note_on_c, 0, 69, 80
2, 14751, Note_on_c, 0, 69, 0
2, 14752, Note_on_c, 0, 68, 80
2, 14767, Note_on_c, 0, 68, 0
2, 14768, Note_on_c, 0, 66, 79
2, 14783, Note_on_c, 0, 66, 0
2, 14784, Note_on_c, 0, 67, 93
2, 14880, Note_on_c, 0, 67, 0
2, 14880, Note_on_c, 0, 68, 77
2, 14900, Note_on_c, 0, 68, 0
2, 14928, Note_on_c, 0, 76, 77
2, 14943, Note_on_c, 0, 76, 0
2, 14944, Note_on_c, 0, 75, 77
2, 14959, Note_on_c, 0, 75, 0
2, 14960, Note_on_c, 0, 73, 77
2, 14975, Note_on_c, 0, 73, 0
2, 14976, Note_on_c, 0, 72, 93
2, 15072, Note_on_c, 0, 72, 0
2, 15072, Note_on_c, 0, 73, 77
2, 15092, Note_on_c, 0, 73, 0
2, 15120, Note_on_c, 0, 80, 77
2, 15135, Note_on_c, 0, 80, 0
2, 15136, Note_on_c, 0, 78, 77
2, 15151, Note_on_c, 0, 78, 0
2, 15152, Note_on_c, 0, 76, 77
2, 15167, Note_on_c, 0, 76, 0
2, 15168, Note_on_c, 0, 75, 93
2, 15168, Note_on_c, 0, 71, 93
2, 15264, Note_on_c, 0, 75, 0
2, 15264, Note_on_c, 0, 71, 0
2, 15264, Note_on_c, 0, 73, 77
2, 15264, Note_on_c, 0, 70, 77
2, 15309, Note_on_c, 0, 73, 0
2, 15309, Note_on_c, 0, 70, 0
2, 15360, Note_on_c, 0, 71, 85
2, 15363, Note_on_c, 0, 75, 85
2, 15366, Note_on_c, 0, 78, 85
2, 15369, Note_on_c, 0, 83, 85
2, 15453, Note_on_c, 0, 83, 0
2, 15453, Note_on_c, 0, 78, 0
2, 15453, Note_on_c, 0, 75, 0
2, 15453, Note_on_c, 0, 71, 0
2, 15504, Note_on_c, 0, 66, 85
2, 15519, Note_on_c, 0, 66, 0
2, 15520, Note_on_c, 0, 68, 85
2, 15535, Note_on_c, 0, 68, 0
2, 15536, Note_on_c, 0, 70, 85
2, 15551, Note_on_c, 0, 70, 0
2, 15552, Note_on_c, 0, 71, 85
2, 15567, Note_on_c, 0, 71, 0
2, 15568, Note_on_c, 0, 75, 85
2, 15583, Note_on_c, 0, 75, 0
2, 15584, Note_on_c, 0, 78, 85
2, 15599, Note_on_c, 0, 78, 0
2, 15600, Note_on_c, 0, 83, 85
2, 15615, Note_on_c, 0, 83, 0
2, 15616, Note_on_c, 0, 82, 85
2, 15631, Note_on_c, 0, 82, 0
2, 15632, Note_on_c, 0, 80, 85
2, 15647, Note_on_c, 0, 80, 0
2, 15648, Note_on_c, 0, 78, 85
2, 15663, Note_on_c, 0, 78, 0
2, 15664, Note_on_c, 0, 76, 85
2, 15679, Note_on_c, 0, 76, 0
2, 15680, Note_on_c, 0, 75, 85
2, 15695, Note_on_c, 0, 75, 0
2, 15696, Note_on_c, 0, 73, 85
2, 15711, Note_on_c, 0, 73, 0
2, 15712, Note_on_c, 0, 75, 85
2, 15727, Note_on_c, 0, 75, 0
2, 15728, Note_on_c, 0, 76, 85
2, 15743, Note_on_c, 0, 76, 0
2, 15744, Note_on_c, 0, 75, 85
2, 15833, Note_on_c, 0, 75, 0
2, 15888, Note_on_c, 0, 66, 85
2, 15903, Note_on_c, 0, 66, 0
2, 15904, Note_on_c, 0, 68, 85
2, 15919, Note_on_c, 0, 68, 0
2, 15920, Note_on_c, 0, 70, 85
2, 15935, Note_on_c, 0, 70, 0
2, 15936, Note_on_c, 0, 71, 85
2, 15951, Note_on_c, 0, 71, 0
2, 15952, Note_on_c, 0, 75, 85
2, 15967, Note_on_c, 0, 75, 0
2, 15968, Note_on_c, 0, 78, 85
2, 15983, Note_on_c, 0, 78, 0
2, 15984, Note_on_c, 0, 83, 85
2, 15999, Note_on_c, 0, 83, 0
2, 16000, Note_on_c, 0, 82, 85
2, 16015, Note_on_c, 0, 82, 0
2, 16016, Note_on_c, 0, 80, 85
2, 16031, Note_on_c, 0, 80, 0
2, 16032, Note_on_c, 0, 78, 85
2, 16077, Note_on_c, 0, 78, 0
2, 16080, Note_on_c, 0, 83, 77
2, 16095, Note_on_c, 0, 83, 0
2, 16096, Note_on_c, 0, 82, 77
2, 16111, Note_on_c, 0, 82, 0
2, 16112, Note_on_c, 0, 80, 77
2, 16127, Note_on_c, 0, 80, 0
2, 16128, Note_on_c, 0, 78, 77
2, 16143, Note_on_c, 0, 78, 0
2, 16144, Note_on_c, 0, 80, 77
2, 16159, Note_on_c, 0, 80, 0
2, 16160, Note_on_c, 0, 82, 77
2, 16175, Note_on_c, 0, 82, 0
2, 16176, Note_on_c, 0, 83, 78
2, 16191, Note_on_c, 0, 83, 0
2, 16192, Note_on_c, 0, 82, 78
2, 16207, Note_on_c, 0, 82, 0
2, 16208, Note_on_c, 0, 80, 78
2, 16223, Note_on_c, 0, 80, 0
2, 16224, Note_on_c, 0, 78, 79
2, 16239, Note_on_c, 0, 78, 0
2, 16240, Note_on_c, 0, 80, 79
2, 16255, Note_on_c, 0, 80, 0
2, 16256, Note_on_c, 0, 82, 79
2, 16271, Note_on_c, 0, 82, 0
2, 16272, Note_on_c, 0, 83, 80
2, 16287, Note_on_c, 0, 83, 0
2, 16288, Note_on_c, 0, 82, 80
2, 16303, Note_on_c, 0, 82, 0
2, 16304, Note_on_c, 0, 80, 80
2, 16319, Note_on_c, 0, 80, 0
2, 16320, Note_on_c, 0, 78, 81
2, 16335, Note_on_c, 0, 78, 0
2, 16336, Note_on_c, 0, 80, 81
2, 16351, Note_on_c, 0, 80, 0
2, 16352, Note_on_c, 0, 81, 81
2, 16367, Note_on_c, 0, 81, 0
2, 16368, Note_on_c, 0, 80, 82
2, 16383, Note_on_c, 0, 80, 0
2, 16384, Note_on_c, 0, 81, 82
2, 16399, Note_on_c, 0, 81, 0
2, 16400, Note_on_c, 0, 83, 82
2, 16415, Note_on_c, 0, 83, 0
2, 16416, Note_on_c, 0, 81, 85
2, 16505, Note_on_c, 0, 81, 0
2, 16512, Note_on_c, 0, 80, 85
2, 16527, Note_on_c, 0, 80, 0
2, 16528, Note_on_c, 0, 82, 85
2, 16543, Note_on_c, 0, 82, 0
2, 16544, Note_on_c, 0, 83, 85
2, 16559, Note_on_c, 0, 83, 0
2, 16560, Note_on_c, 0, 82, 85
2, 16575, Note_on_c, 0, 82, 0
2, 16576, Note_on_c, 0, 80, 85
2, 16591, Note_on_c, 0, 80, 0
2, 16592, Note_on_c, 0, 78, 85
2, 16607, Note_on_c, 0, 78, 0
2, 16608, Note_on_c, 0, 76, 85
2, 16623, Note_on_c, 0, 76, 0
2, 16624, Note_on_c, 0, 75, 85
2, 16639, Note_on_c, 0, 75, 0
2, 16640, Note_on_c, 0, 73, 85
2, 16655, Note_on_c, 0, 73, 0
2, 16656, Note_on_c, 0, 71, 85
2, 16671, Note_on_c, 0, 71, 0
2, 16672, Note_on_c, 0, 70, 85
2, 16687, Note_on_c, 0, 70, 0
2, 16688, Note_on_c, 0, 68, 85
2, 16703, Note_on_c, 0, 68, 0
2, 16704, Note_on_c, 0, 66, 85
2, 16793, Note_on_c, 0, 66, 0
2, 16800, Note_on_c, 0, 75, 81
2, 16808, Note_on_c, 0, 75, 0
2, 16808, Note_on_c, 0, 73, 80
2, 16816, Note_on_c, 0, 73, 0
2, 16816, Note_on_c, 0, 75, 80
2, 16824, Note_on_c, 0, 75, 0
2, 16824, Note_on_c, 0, 73, 80
2, 16832, Note_on_c, 0, 73, 0
2, 16832, Note_on_c, 0, 75, 80
2, 16840, Note_on_c, 0, 75, 0
2, 16840, Note_on_c, 0, 73, 79
2, 16848, Note_on_c, 0, 73, 0
2, 16848, Note_on_c, 0, 75, 79
2, 16856, Note_on_c, 0, 75, 0
2, 16856, Note_on_c, 0, 73, 79
2, 16864, Note_on_c, 0, 73, 0
2, 16864, Note_on_c, 0, 75, 79
2, 16872, Note_on_c, 0, 75, 0
2, 16872, Note_on_c, 0, 73, 78
2, 16880, Note_on_c, 0, 73, 0
2, 16880, Note_on_c, 0, 71, 78
2, 16888, Note_on_c, 0, 71, 0
2, 16888, Note_on_c, 0, 73, 78
2, 16896, Note_on_c, 0, 73, 0
2, 16896, Note_on_c, 0, 71, 77
2, 16985, Note_on_c, 0, 71, 0
2, 17040, Note_on_c, 0, 78, 77
2, 17055, Note_on_c, 0, 78, 0
2, 17056, Note_on_c, 0, 80, 77
2, 17071, Note_on_c, 0, 80, 0
2, 17072, Note_on_c, 0, 78, 77
2, 17087, Note_on_c, 0, 78, 0
2, 17088, Note_on_c, 0, 81, 77
2, 17103, Note_on_c, 0, 81, 0
2, 17104, Note_on_c, 0, 80, 77
2, 17119, Note_on_c, 0, 80, 0
2, 17120, Note_on_c, 0, 78, 77
2, 17135, Note_on_c, 0, 78, 0
2, 17136, Note_on_c, 0, 76, 77
2, 17151, Note_on_c, 0, 76, 0
2, 17152, Note_on_c, 0, 78, 77
2, 17167, Note_on_c, 0, 78, 0
2, 17168, Note_on_c, 0, 76, 77
2, 17183, Note_on_c, 0, 76, 0
2, 17184, Note_on_c, 0, 80, 77
2, 17199, Note_on_c, 0, 80, 0
2, 17200, Note_on_c, 0, 78, 77
2, 17215, Note_on_c, 0, 78, 0
2, 17216, Note_on_c, 0, 76, 77
2, 17231, Note_on_c, 0, 76, 0
2, 17232, Note_on_c, 0, 75, 77
2, 17247, Note_on_c, 0, 75, 0
2, 17248, Note_on_c, 0, 78, 77
2, 17263, Note_on_c, 0, 78, 0
2, 17264, Note_on_c, 0, 83, 77
2, 17279, Note_on_c, 0, 83, 0
2, 17280, Note_on_c, 0, 80, 77
2, 17295, Note_on_c, 0, 80, 0
2, 17296, Note_on_c, 0, 78, 78
2, 17311, Note_on_c, 0, 78, 0
2, 17312, Note_on_c, 0, 76, 79
2, 17327, Note_on_c, 0, 76, 0
2, 17328, Note_on_c, 0, 75, 80
2, 17343, Note_on_c, 0, 75, 0
2, 17344, Note_on_c, 0, 76, 81
2, 17359, Note_on_c, 0, 76, 0
2, 17360, Note_on_c, 0, 73, 82
2, 17375, Note_on_c, 0, 73, 0
2, 17376, Note_on_c, 0, 71, 85
2, 17421, Note_on_c, 0, 71, 0
2, 17424, Note_on_c, 0, 75, 85
2, 17436, Note_on_c, 0, 75, 0
2, 17436, Note_on_c, 0, 73, 85
2, 17448, Note_on_c, 0, 73, 0
2, 17448, Note_on_c, 0, 71, 85
2, 17460, Note_on_c, 0, 71, 0
2, 17460, Note_on_c, 0, 73, 85
2, 17472, Note_on_c, 0, 73, 0
2, 17472, Note_on_c, 0, 71, 82
2, 17561, Note_on_c, 0, 71, 0
2, 17616, Note_on_c, 0, 69, 77
2, 17661, Note_on_c, 0, 69, 0
2, 17664, Note_on_c, 0, 68, 77
2, 17760, Note_on_c, 0, 68, 0
2, 17760, Note_on_c, 0, 66, 77
2, 17849, Note_on_c, 0, 66, 0
2, 17856, Control_c, 0, 64, 127
2, 17856, Note_on_c, 0, 64, 93
2, 17864, Note_on_c, 0, 68, 93
2, 17872, Note_on_c, 0, 73, 93
2, 17904, Note_on_c, 0, 73, 0
2, 17904, Note_on_c, 0, 68, 0
2, 17904, Note_on_c, 0, 64, 0
2, 17904, Note_on_c, 0, 68, 77
2, 17919, Note_on_c, 0, 68, 0
2, 17920, Note_on_c, 0, 64, 77
2, 17935, Note_on_c, 0, 64, 0
2, 17936, Control_c, 0, 64, 0
2, 17936, Note_on_c, 0, 61, 77
2, 17951, Note_on_c, 0, 61, 0
2, 17952, Note_on_c, 0, 59, 77
2, 17997, Note_on_c, 0, 59, 0
2, 18000, Note_on_c, 0, 59, 77
2, 18006, Note_on_c, 0, 59, 0
2, 18006, Note_on_c, 0, 58, 77
2, 18012, Note_on_c, 0, 58, 0
2, 18012, Note_on_c, 0, 56, 77
2, 18018, Note_on_c, 0, 56, 0
2, 18018, Note_on_c, 0, 58, 77
2, 18045, Note_on_c, 0, 58, 0
2, 18048, Note_on_c, 0, 59, 77
2, 18063, Note_on_c, 0, 59, 0
2, 18064, Note_on_c, 0, 63, 77
2, 18079, Note_on_c, 0, 63, 0
2, 18080, Note_on_c, 0, 66, 77
2, 18095, Note_on_c, 0, 66, 0
2, 18096, Note_on_c, 0, 71, 77
2, 18111, Note_on_c, 0, 71, 0
2, 18112, Note_on_c, 0, 66, 77
2, 18127, Note_on_c, 0, 66, 0
2, 18128, Note_on_c, 0, 63, 77
2, 18143, Note_on_c, 0, 63, 0
2, 18432, Note_on_c, 0, 78, 93
2, 18576, Note_on_c, 0, 78, 0
2, 18576, Note_on_c, 0, 76, 77
2, 18621, Note_on_c, 0, 76, 0
2, 18624, Note_on_c, 0, 75, 77
2, 18713, Note_on_c, 0, 75, 0
2, 18720, Note_on_c, 0, 73, 77
2, 18809, Note_on_c, 0, 73, 0
2, 18816, Note_on_c, 0, 71, 77
2, 18883, Note_on_c, 0, 71, 0
2, 18888, Note_on_c, 0, 73, 80
2, 18900, Note_on_c, 0, 73, 0
2, 18900, Note_on_c, 0, 75, 80
2, 18912, Note_on_c, 0, 75, 0
2, 18912, Note_on_c, 0, 76, 81
2, 18957, Note_on_c, 0, 76, 0
2, 18960, Note_on_c, 0, 75, 83
2, 19005, Note_on_c, 0, 75, 0
2, 19008, Note_on_c, 0, 75, 85
2, 19016, Note_on_c, 0, 75, 0
2, 19016, Note_on_c, 0, 73, 84
2, 19024, Note_on_c, 0, 73, 0
2, 19024, Note_on_c, 0, 75, 83
2, 19032, Note_on_c, 0, 75, 0
2, 19032, Note_on_c, 0, 73, 82
2, 19040, Note_on_c, 0, 73, 0
2, 19040, Note_on_c, 0, 75, 81
2, 19048, Note_on_c, 0, 75, 0
2, 19048, Note_on_c, 0, 73, 80
2, 19056, Note_on_c, 0, 73, 0
2, 19056, Note_on_c, 0, 71, 77
2, 19127, Note_on_c, 0, 71, 0
2, 19128, Note_on_c, 0, 73, 68
2, 19140, Note_on_c, 0, 73, 0
2, 19140, Note_on_c, 0, 75, 69
2, 19152, Note_on_c, 0, 75, 0
2, 19152, Note_on_c, 0, 76, 71
2, 19164, Note_on_c, 0, 76, 0
2, 19164, Note_on_c, 0, 78, 72
2, 19176, Note_on_c, 0, 78, 0
2, 19176, Note_on_c, 0, 80, 74
2, 19188, Note_on_c, 0, 80, 0
2, 19188, Note_on_c, 0, 81, 75
2, 19200, Note_on_c, 0, 81, 0
2, 19200, Note_on_c, 0, 83, 93
2, 19344, Note_on_c, 0, 83, 0
2, 19344, Note_on_c, 0, 81, 77
2, 19389, Note_on_c, 0, 81, 0
2, 19392, Note_on_c, 0, 80, 77
2, 19481, Note_on_c, 0, 80, 0
2, 19488, Note_on_c, 0, 78, 77
2, 19577, Note_on_c, 0, 78, 0
2, 19584, Note_on_c, 0, 76, 77
2, 19673, Note_on_c, 0, 76, 0
2, 19680, Note_on_c, 0, 75, 77
2, 19769, Note_on_c, 0, 75, 0
2, 19776, Note_on_c, 0, 73, 77
2, 19843, Note_on_c, 0, 73, 0
2, 19848, Note_on_c, 0, 75, 80
2, 19860, Note_on_c, 0, 75, 0
2, 19860, Note_on_c, 0, 76, 80
2, 19872, Note_on_c, 0, 76, 0
2, 19872, Note_on_c, 0, 78, 81
2, 19917, Note_on_c, 0, 78, 0
2, 19920, Note_on_c, 0, 76, 83
2, 19965, Note_on_c, 0, 76, 0
2, 19968, Control_c, 0, 64, 127
2, 19968, Note_on_c, 0, 75, 85
2, 19968, Note_on_c, 0, 72, 85
2, 19968, Note_on_c, 0, 68, 85
2, 20013, Note_on_c, 0, 75, 0
2, 20013, Note_on_c, 0, 72, 0
2, 20013, Note_on_c, 0, 68, 0
2, 20016, Note_on_c, 0, 80, 85
2, 20061, Note_on_c, 0, 80, 0
2, 20064, Note_on_c, 0, 80, 85
2, 20109, Note_on_c, 0, 80, 0
2, 20112, Note_on_c, 0, 80, 85
2, 20157, Note_on_c, 0, 80, 0
2, 20160, Control_c, 0, 64, 0
2, 20160, Note_on_c, 0, 81, 85
2, 20170, Note_on_c, 0, 81, 0
2, 20170, Note_on_c, 0, 80, 85
2, 20180, Note_on_c, 0, 80, 0
2, 20180, Note_on_c, 0, 81, 85
2, 20190, Note_on_c, 0, 81, 0
2, 20190, Note_on_c, 0, 80, 85
2, 20200, Note_on_c, 0, 80, 0
2, 20200, Note_on_c, 0, 81, 85
2, 20210, Note_on_c, 0, 81, 0
2, 20210, Note_on_c, 0, 80, 85
2, 20220, Note_on_c, 0, 80, 0
2, 20220, Note_on_c, 0, 81, 85
2, 20229, Note_on_c, 0, 81, 0
2, 20229, Note_on_c, 0, 80, 85
2, 20238, Note_on_c, 0, 80, 0
2, 20238, Note_on_c, 0, 81, 85
2, 20247, Note_on_c, 0, 81, 0
2, 20247, Note_on_c, 0, 80, 85
2, 20256, Note_on_c, 0, 80, 0
2, 20256, Note_on_c, 0, 68, 85
2, 20345, Note_on_c, 0, 68, 0
2, 20400, Note_on_c, 0, 80, 85
2, 20445, Note_on_c, 0, 80, 0
2, 20448, Note_on_c, 0, 80, 85
2, 20493, Note_on_c, 0, 80, 0
2, 20496, Note_on_c, 0, 80, 85
2, 20541, Note_on_c, 0, 80, 0
2, 20544, Note_on_c, 0, 81, 85
2, 20554, Note_on_c, 0, 81, 0
2, 20554, Note_on_c, 0, 80, 85
2, 20564, Note_on_c, 0, 80, 0
2, 20564, Note_on_c, 0, 81, 85
2, 20574, Note_on_c, 0, 81, 0
2, 20574, Note_on_c, 0, 80, 85
2, 20584, Note_on_c, 0, 80, 0
2, 20584, Note_on_c, 0, 81, 85
2, 20594, Note_on_c, 0, 81, 0
2, 20594, Note_on_c, 0, 80, 85
2, 20604, Note_on_c, 0, 80, 0
2, 20604, Note_on_c, 0, 81, 85
2, 20613, Note_on_c, 0, 81, 0
2, 20613, Note_on_c, 0, 80, 85
2, 20622, Note_on_c, 0, 80, 0
2, 20622, Note_on_c, 0, 81, 85
2, 20631, Note_on_c, 0, 81, 0
2, 20631, Note_on_c, 0, 80, 85
2, 20640, Note_on_c, 0, 80, 0
2, 20640, Note_on_c, 0, 68, 85
2, 20729, Note_on_c, 0, 68, 0
2, 20784, Note_on_c, 0, 86, 85
2, 20829, Note_on_c, 0, 86, 0
2, 20832, Note_on_c, 0, 86, 85
2, 20877, Note_on_c, 0, 86, 0
2, 20880, Note_on_c, 0, 86, 85
2, 20925, Note_on_c, 0, 86, 0
2, 20928, Note_on_c, 0, 88, 85
2, 20938, Note_on_c, 0, 88, 0
2, 20938, Note_on_c, 0, 86, 85
2, 20948, Note_on_c, 0, 86, 0
2, 20948, Note_on_c, 0, 88, 85
2, 20958, Note_on_c, 0, 88, 0
2, 20958, Note_on_c, 0, 86, 85
2, 20968, Note_on_c, 0, 86, 0
2, 20968, Note_on_c, 0, 88, 85
2, 20978, Note_on_c, 0, 88, 0
2, 20978, Note_on_c, 0, 86, 85
2, 20988, Note_on_c, 0, 86, 0
2, 20988, Note_on_c, 0, 88, 85
2, 20997, Note_on_c, 0, 88, 0
2, 20997, Note_on_c, 0, 86, 85
2, 21006, Note_on_c, 0, 86, 0
2, 21006, Note_on_c, 0, 88, 85
2, 21015, Note_on_c, 0, 88, 0
2, 21015, Note_on_c, 0, 86, 85
2, 21024, Note_on_c, 0, 86, 0
2, 21024, Note_on_c, 0, 77, 85
2, 21113, Note_on_c, 0, 77, 0
2, 21136, Note_on_c, 0, 85, 85
2, 21151, Note_on_c, 0, 85, 0
2, 21152, Note_on_c, 0, 83, 85
2, 21167, Note_on_c, 0, 83, 0
2, 21168, Note_on_c, 0, 81, 85
2, 21183, Note_on_c, 0, 81, 0
2, 21184, Note_on_c, 0, 80, 85
2, 21199, Note_on_c, 0, 80, 0
2, 21200, Note_on_c, 0, 78, 85
2, 21215, Note_on_c, 0, 78, 0
2, 21232, Note_on_c, 0, 85, 85
2, 21247, Note_on_c, 0, 85, 0
2, 21248, Note_on_c, 0, 83, 85
2, 21263, Note_on_c, 0, 83, 0
2, 21264, Note_on_c, 0, 81, 85
2, 21279, Note_on_c, 0, 81, 0
2, 21280, Note_on_c, 0, 80, 85
2, 21295, Note_on_c, 0, 80, 0
2, 21296, Note_on_c, 0, 78, 85
2, 21311, Note_on_c, 0, 78, 0
2, 21328, Note_on_c, 0, 88, 101
2, 21344, Note_on_c, 0, 88, 0
2, 21344, Note_on_c, 0, 87, 86
2, 21359, Note_on_c, 0, 87, 0
2, 21360, Note_on_c, 0, 85, 87
2, 21375, Note_on_c, 0, 85, 0
2, 21376, Note_on_c, 0, 83, 89
2, 21391, Note_on_c, 0, 83, 0
2, 21392, Note_on_c, 0, 81, 90
2, 21407, Note_on_c, 0, 81, 0
2, 21408, Note_on_c, 0, 80, 92
2, 21453, Note_on_c, 0, 80, 0
2, 21456, Note_on_c, 0, 79, 97
2, 21501, Note_on_c, 0, 79, 0
2, 21504, Note_on_c, 0, 79, 106
2, 21593, Note_on_c, 0, 79, 0
2, 21600, Note_on_c, 0, 81, 106
2, 21606, Note_on_c, 0, 81, 0
2, 21606, Note_on_c, 0, 80, 106
2, 21612, Note_on_c, 0, 80, 0
2, 21612, Note_on_c, 0, 79, 106
2, 21618, Note_on_c, 0, 79, 0
2, 21618, Note_on_c, 0, 80, 106
2, 21777, Note_on_c, 0, 80, 0
2, 21904, Note_on_c, 0, 73, 85
2, 21919, Note_on_c, 0, 73, 0
2, 21920, Note_on_c, 0, 71, 85
2, 21935, Note_on_c, 0, 71, 0
2, 21936, Note_on_c, 0, 69, 85
2, 21951, Note_on_c, 0, 69, 0
2, 21952, Note_on_c, 0, 68, 85
2, 21967, Note_on_c, 0, 68, 0
2, 21968, Note_on_c, 0, 66, 85
2, 21983, Note_on_c, 0, 66, 0
2, 21984, Note_on_c, 0, 64, 85
2, 21999, Note_on_c, 0, 64, 0
2, 22000, Note_on_c, 0, 63, 85
2, 22015, Note_on_c, 0, 63, 0
2, 22016, Note_on_c, 0, 61, 85
2, 22031, Note_on_c, 0, 61, 0
2, 22032, Note_on_c, 0, 60, 85
2, 22047, Note_on_c, 0, 60, 0
2, 22048, Note_on_c, 0, 63, 85
2, 22063, Note_on_c, 0, 63, 0
2, 22064, Note_on_c, 0, 68, 85
2, 22079, Note_on_c, 0, 68, 0
2, 22080, Note_on_c, 0, 61, 85
2, 22095, Note_on_c, 0, 61, 0
2, 22096, Note_on_c, 0, 64, 85
2, 22111, Note_on_c, 0, 64, 0
2, 22112, Note_on_c, 0, 68, 85
2, 22127, Note_on_c, 0, 68, 0
2, 22128, Note_on_c, 0, 63, 85
2, 22143, Note_on_c, 0, 63, 0
2, 22144, Note_on_c, 0, 66, 85
2, 22159, Note_on_c, 0, 66, 0
2, 22160, Note_on_c, 0, 68, 85
2, 22175, Note_on_c, 0, 68, 0
2, 22176, Note_on_c, 0, 64, 85
2, 22191, Note_on_c, 0, 64, 0
2, 22192, Note_on_c, 0, 66, 85
2, 22207, Note_on_c, 0, 66, 0
2, 22208, Note_on_c, 0, 68, 85
2, 22223, Note_on_c, 0, 68, 0
2, 22224, Note_on_c, 0, 66, 85
2, 22239, Note_on_c, 0, 66, 0
2, 22240, Note_on_c, 0, 68, 85
2, 22255, Note_on_c, 0, 68, 0
2, 22256, Note_on_c, 0, 69, 85
2, 22271, Note_on_c, 0, 69, 0
2, 22272, Note_on_c, 0, 68, 85
2, 22287, Note_on_c, 0, 68, 0
2, 22288, Note_on_c, 0, 73, 85
2, 22303, Note_on_c, 0, 73, 0
2, 22304, Note_on_c, 0, 71, 85
2, 22319, Note_on_c, 0, 71, 0
2, 22320, Note_on_c, 0, 69, 85
2, 22335, Note_on_c, 0, 69, 0
2, 22336, Note_on_c, 0, 68, 85
2, 22351, Note_on_c, 0, 68, 0
2, 22352, Note_on_c, 0, 66, 85
2, 22367, Note_on_c, 0, 66, 0
2, 22368, Note_on_c, 0, 64, 85
2, 22383, Note_on_c, 0, 64, 0
2, 22384, Note_on_c, 0, 63, 85
2, 22399, Note_on_c, 0, 63, 0
2, 22400, Note_on_c, 0, 61, 85
2, 22415, Note_on_c, 0, 61, 0
2, 22416, Note_on_c, 0, 60, 85
2, 22431, Note_on_c, 0, 60, 0
2, 22432, Note_on_c, 0, 63, 85
2, 22447, Note_on_c, 0, 63, 0
2, 22448, Note_on_c, 0, 68, 85
2, 22463, Note_on_c, 0, 68, 0
2, 22464, Note_on_c, 0, 61, 85
2, 22479, Note_on_c, 0, 61, 0
2, 22480, Note_on_c, 0, 64, 85
2, 22495, Note_on_c, 0, 64, 0
2, 22496, Note_on_c, 0, 68, 85
2, 22511, Note_on_c, 0, 68, 0
2, 22512, Note_on_c, 0, 63, 85
2, 22527, Note_on_c, 0, 63, 0
2, 22528, Note_on_c, 0, 66, 85
2, 22543, Note_on_c, 0, 66, 0
2, 22544, Note_on_c, 0, 68, 85
2, 22559, Note_on_c, 0, 68, 0
2, 22560, Note_on_c, 0, 64, 85
2, 22575, Note_on_c, 0, 64, 0
2, 22576, Note_on_c, 0, 66, 85
2, 22591, Note_on_c, 0, 66, 0
2, 22592, Note_on_c, 0, 68, 85
2, 22607, Note_on_c, 0, 68, 0
2, 22608, Note_on_c, 0, 66, 85
2, 22623, Note_on_c, 0, 66, 0
2, 22624, Note_on_c, 0, 68, 85
2, 22639, Note_on_c, 0, 68, 0
2, 22640, Note_on_c, 0, 69, 85
2, 22655, Note_on_c, 0, 69, 0
2, 22656, Note_on_c, 0, 68, 85
2, 22671, Note_on_c, 0, 68, 0
2, 22672, Note_on_c, 0, 73, 85
2, 22687, Note_on_c, 0, 73, 0
2, 22688, Note_on_c, 0, 71, 85
2, 22703, Note_on_c, 0, 71, 0
2, 22704, Note_on_c, 0, 69, 85
2, 22719, Note_on_c, 0, 69, 0
2, 22720, Note_on_c, 0, 68, 85
2, 22735, Note_on_c, 0, 68, 0
2, 22736, Note_on_c, 0, 66, 85
2, 22751, Note_on_c, 0, 66, 0
2, 22752, Note_on_c, 0, 64, 85
2, 22767, Note_on_c, 0, 64, 0
2, 22768, Note_on_c, 0, 63, 85
2, 22783, Note_on_c, 0, 63, 0
2, 22784, Note_on_c, 0, 61, 85
2, 22799, Note_on_c, 0, 61, 0
2, 22800, Control_c, 0, 64, 127
2, 22800, Note_on_c, 0, 60, 85
2, 22815, Note_on_c, 0, 60, 0
2, 22816, Note_on_c, 0, 63, 85
2, 22831, Note_on_c, 0, 63, 0
2, 22832, Note_on_c, 0, 68, 85
2, 22847, Note_on_c, 0, 68, 0
2, 22848, Control_c, 0, 64, 0
2, 22848, Control_c, 0, 64, 127
2, 22848, Note_on_c, 0, 61, 85
2, 22863, Note_on_c, 0, 61, 0
2, 22864, Note_on_c, 0, 64, 85
2, 22879, Note_on_c, 0, 64, 0
2, 22880, Note_on_c, 0, 68, 85
2, 22895, Note_on_c, 0, 68, 0
2, 22896, Note_on_c, 0, 61, 85
2, 22911, Note_on_c, 0, 61, 0
2, 22912, Note_on_c, 0, 64, 85
2, 22927, Note_on_c, 0, 64, 0
2, 22928, Note_on_c, 0, 68, 85
2, 22943, Note_on_c, 0, 68, 0
2, 22944, Control_c, 0, 64, 0
2, 22944, Control_c, 0, 64, 127
2, 22944, Note_on_c, 0, 59, 85
2, 22959, Note_on_c, 0, 59, 0
2, 22960, Note_on_c, 0, 62, 85
2, 22975, Note_on_c, 0, 62, 0
2, 22976, Note_on_c, 0, 68, 85
2, 22991, Note_on_c, 0, 68, 0
2, 22992, Note_on_c, 0, 59, 85
2, 23007, Note_on_c, 0, 59, 0
2, 23008, Note_on_c, 0, 62, 85
2, 23023, Note_on_c, 0, 62, 0
2, 23024, Note_on_c, 0, 68, 85
2, 23039, Note_on_c, 0, 68, 0
2, 23040, Control_c, 0, 64, 0
2, 23040, Control_c, 0, 64, 127
2, 23040, Note_on_c, 0, 61, 85
2, 23055, Note_on_c, 0, 61, 0
2, 23056, Note_on_c, 0, 64, 85
2, 23071, Note_on_c, 0, 64, 0
2, 23072, Note_on_c, 0, 69, 85
2, 23087, Note_on_c, 0, 69, 0
2, 23088, Note_on_c, 0, 61, 85
2, 23103, Note_on_c, 0, 61, 0
2, 23104, Note_on_c, 0, 64, 85
2, 23119, Note_on_c, 0, 64, 0
2, 23120, Note_on_c, 0, 69, 85
2, 23135, Note_on_c, 0, 69, 0
2, 23136, Control_c, 0, 64, 0
2, 23136, Note_on_c, 0, 64, 85
2, 23151, Note_on_c, 0, 64, 0
2, 23152, Note_on_c, 0, 71, 85
2, 23167, Note_on_c, 0, 71, 0
2, 23168, Note_on_c, 0, 74, 85
2, 23183, Note_on_c, 0, 74, 0
2, 23184, Note_on_c, 0, 64, 85
2, 23199, Note_on_c, 0, 64, 0
2, 23200, Note_on_c, 0, 71, 85
2, 23215, Note_on_c, 0, 71, 0
2, 23216, Note_on_c, 0, 74, 85
2, 23231, Note_on_c, 0, 74, 0
2, 23232, Note_on_c, 0, 64, 85
2, 23247, Note_on_c, 0, 64, 0
2, 23248, Note_on_c, 0, 69, 85
2, 23263, Note_on_c, 0, 69, 0
2, 23264, Note_on_c, 0, 73, 85
2, 23279, Note_on_c, 0, 73, 0
2, 23280, Note_on_c, 0, 64, 85
2, 23295, Note_on_c, 0, 64, 0
2, 23296, Note_on_c, 0, 69, 85
2, 23311, Note_on_c, 0, 69, 0
2, 23312, Note_on_c, 0, 73, 85
2, 23327, Note_on_c, 0, 73, 0
2, 23328, Note_on_c, 0, 61, 85
2, 23343, Note_on_c, 0, 61, 0
2, 23344, Note_on_c, 0, 68, 85
2, 23359, Note_on_c, 0, 68, 0
2, 23360, Note_on_c, 0, 71, 85
2, 23375, Note_on_c, 0, 71, 0
2, 23376, Note_on_c, 0, 61, 85
2, 23391, Note_on_c, 0, 61, 0
2, 23392, Note_on_c, 0, 68, 85
2, 23407, Note_on_c, 0, 68, 0
2, 23408, Note_on_c, 0, 71, 85
2, 23423, Note_on_c, 0, 71, 0
2, 23424, Control_c, 0, 64, 0
2, 23424, Control_c, 0, 64, 127
2, 23424, Note_on_c, 0, 61, 85
2, 23439, Note_on_c, 0, 61, 0
2, 23440, Note_on_c, 0, 66, 101
2, 23456, Note_on_c, 0, 66, 0
2, 23456, Note_on_c, 0, 70, 85
2, 23471, Note_on_c, 0, 70, 0
2, 23472, Note_on_c, 0, 61, 85
2, 23487, Note_on_c, 0, 61, 0
2, 23488, Note_on_c, 0, 67, 101
2, 23504, Note_on_c, 0, 67, 0
2, 23504, Note_on_c, 0, 70, 85
2, 23519, Note_on_c, 0, 70, 0
2, 23520, Note_on_c, 0, 61, 85
2, 23535, Note_on_c, 0, 61, 0
2, 23536, Note_on_c, 0, 66, 101
2, 23552, Note_on_c, 0, 66, 0
2, 23552, Note_on_c, 0, 70, 85
2, 23567, Note_on_c, 0, 70, 0
2, 23568, Note_on_c, 0, 61, 85
2, 23583, Note_on_c, 0, 61, 0
2, 23584, Note_on_c, 0, 64, 101
2, 23600, Note_on_c, 0, 64, 0
2, 23600, Note_on_c, 0, 70, 85
2, 23615, Note_on_c, 0, 70, 0
2, 23616, Control_c, 0, 64, 0
2, 23616, Control_c, 0, 64, 127
2, 23616, Note_on_c, 0, 59, 101
2, 23632, Note_on_c, 0, 59, 0
2, 23632, Note_on_c, 0, 63, 85
2, 23647, Note_on_c, 0, 63, 0
2, 23648, Note_on_c, 0, 69, 85
2, 23663, Note_on_c, 0, 69, 0
2, 23664, Note_on_c, 0, 60, 101
2, 23680, Note_on_c, 0, 60, 0
2, 23680, Note_on_c, 0, 63, 85
2, 23695, Note_on_c, 0, 63, 0
2, 23696, Note_on_c, 0, 69, 85
2, 23711, Note_on_c, 0, 69, 0
2, 23712, Note_on_c, 0, 59, 101
2, 23728, Note_on_c, 0, 59, 0
2, 23728, Note_on_c, 0, 63, 85
2, 23743, Note_on_c, 0, 63, 0
2, 23744, Note_on_c, 0, 69, 85
2, 23759, Note_on_c, 0, 69, 0
2, 23760, Note_on_c, 0, 57, 101
2, 23776, Note_on_c, 0, 57, 0
2, 23776, Note_on_c, 0, 63, 85
2, 23791, Note_on_c, 0, 63, 0
2, 23792, Note_on_c, 0, 69, 85
2, 23807, Note_on_c, 0, 69, 0
2, 23808, Control_c, 0, 64, 0
2, 23808, Control_c, 0, 64, 127
2, 23808, Note_on_c, 0, 59, 85
2, 23823, Note_on_c, 0, 59, 0
2, 23824, Note_on_c, 0, 64, 85
2, 23839, Note_on_c, 0, 64, 0
2, 23840, Note_on_c, 0, 68, 85
2, 23855, Note_on_c, 0, 68, 0
2, 23856, Note_on_c, 0, 59, 85
2, 23871, Note_on_c, 0, 59, 0
2, 23872, Note_on_c, 0, 64, 85
2, 23887, Note_on_c, 0, 64, 0
2, 23888, Note_on_c, 0, 68, 85
2, 23903, Note_on_c, 0, 68, 0
2, 23904, Note_on_c, 0, 59, 85
2, 23919, Note_on_c, 0, 59, 0
2, 23920, Note_on_c, 0, 64, 85
2, 23935, Note_on_c, 0, 64, 0
2, 23936, Note_on_c, 0, 68, 85
2, 23951, Note_on_c, 0, 68, 0
2, 23952, Note_on_c, 0, 59, 85
2, 23967, Note_on_c, 0, 59, 0
2, 23968, Note_on_c, 0, 64, 85
2, 23983, Note_on_c, 0, 64, 0
2, 23984, Note_on_c, 0, 68, 85
2, 23999, Note_on_c, 0, 68, 0
2, 24000, Control_c, 0, 64, 0
2, 24000, Control_c, 0, 64, 127
2, 24000, Note_on_c, 0, 57, 85
2, 24015, Note_on_c, 0, 57, 0
2, 24016, Note_on_c, 0, 64, 85
2, 24031, Note_on_c, 0, 64, 0
2, 24032, Note_on_c, 0, 69, 85
2, 24047, Note_on_c, 0, 69, 0
2, 24048, Note_on_c, 0, 57, 85
2, 24063, Note_on_c, 0, 57, 0
2, 24064, Note_on_c, 0, 64, 85
2, 24079, Note_on_c, 0, 64, 0
2, 24080, Note_on_c, 0, 69, 85
2, 24095, Note_on_c, 0, 69, 0
2, 24096, Note_on_c, 0, 61, 85
2, 24111, Note_on_c, 0, 61, 0
2, 24112, Note_on_c, 0, 64, 85
2, 24127, Note_on_c, 0, 64, 0
2, 24128, Control_c, 0, 64, 0
2, 24128, Control_c, 0, 64, 127
2, 24128, Note_on_c, 0, 70, 85
2, 24143, Note_on_c, 0, 70, 0
2, 24144, Note_on_c, 0, 61, 85
2, 24159, Note_on_c, 0, 61, 0
2, 24160, Note_on_c, 0, 64, 85
2, 24175, Note_on_c, 0, 64, 0
2, 24176, Note_on_c, 0, 70, 85
2, 24191, Note_on_c, 0, 70, 0
2, 24192, Control_c, 0, 64, 0
2, 24192, Control_c, 0, 64, 127
2, 24192, Note_on_c, 0, 59, 85
2, 24207, Note_on_c, 0, 59, 0
2, 24208, Note_on_c, 0, 63, 85
2, 24223, Note_on_c, 0, 63, 0
2, 24224, Note_on_c, 0, 66, 85
2, 24239, Note_on_c, 0, 66, 0
2, 24240, Note_on_c, 0, 71, 85
2, 24255, Note_on_c, 0, 71, 0
2, 24256, Note_on_c, 0, 66, 85
2, 24271, Note_on_c, 0, 66, 0
2, 24272, Note_on_c, 0, 63, 85
2, 24287, Note_on_c, 0, 63, 0
2, 24288, Note_on_c, 0, 59, 85
2, 24303, Note_on_c, 0, 59, 0
2, 24304, Note_on_c, 0, 63, 85
2, 24319, Note_on_c, 0, 63, 0
2, 24320, Control_c, 0, 64, 0
2, 24320, Note_on_c, 0, 66, 85
2, 24335, Note_on_c, 0, 66, 0
2, 24336, Control_c, 0, 64, 127
2, 24336, Note_on_c, 0, 61, 85
2, 24351, Note_on_c, 0, 61, 0
2, 24352, Note_on_c, 0, 64, 85
2, 24367, Note_on_c, 0, 64, 0
2, 24368, Control_c, 0, 64, 0
2, 24368, Note_on_c, 0, 70, 85
2, 24383, Note_on_c, 0, 70, 0
2, 24384, Control_c, 0, 64, 127
2, 24384, Note_on_c, 0, 59, 85
2, 24399, Note_on_c, 0, 59, 0
2, 24400, Note_on_c, 0, 63, 85
2, 24415, Note_on_c, 0, 63, 0
2, 24416, Note_on_c, 0, 66, 85
2, 24431, Note_on_c, 0, 66, 0
2, 24432, Note_on_c, 0, 71, 85
2, 24447, Note_on_c, 0, 71, 0
2, 24448, Note_on_c, 0, 66, 85
2, 24463, Note_on_c, 0, 66, 0
2, 24464, Note_on_c, 0, 63, 85
2, 24479, Note_on_c, 0, 63, 0
2, 24480, Note_on_c, 0, 59, 85
2, 24495, Note_on_c, 0, 59, 0
2, 24496, Note_on_c, 0, 63, 85
2, 24511, Note_on_c, 0, 63, 0
2, 24512, Control_c, 0, 64, 0
2, 24512, Note_on_c, 0, 66, 85
2, 24527, Note_on_c, 0, 66, 0
2, 24528, Control_c, 0, 64, 127
2, 24528, Note_on_c, 0, 61, 85
2, 24543, Note_on_c, 0, 61, 0
2, 24544, Note_on_c, 0, 64, 85
2, 24559, Note_on_c, 0, 64, 0
2, 24560, Control_c, 0, 64, 0
2, 24560, Note_on_c, 0, 70, 85
2, 24575, Note_on_c, 0, 70, 0
2, 24576, Control_c, 0, 64, 127
2, 24576, Note_on_c, 0, 59, 85
2, 24591, Note_on_c, 0, 59, 0
2, 24592, Note_on_c, 0, 63, 85
2, 24607, Note_on_c, 0, 63, 0
2, 24608, Note_on_c, 0, 66, 85
2, 24623, Note_on_c, 0, 66, 0
2, 24624, Note_on_c, 0, 71, 85
2, 24639, Note_on_c, 0, 71, 0
2, 24640, Note_on_c, 0, 66, 85
2, 24655, Note_on_c, 0, 66, 0
2, 24656, Note_on_c, 0, 63, 85
2, 24671, Note_on_c, 0, 63, 0
2, 24864, Control_c, 0, 64, 0
2, 24880, Note_on_c, 0, 75, 85
2, 24895, Note_on_c, 0, 75, 0
2, 24896, Note_on_c, 0, 76, 83
2, 24911, Note_on_c, 0, 76, 0
2, 24912, Note_on_c, 0, 78, 82
2, 24927, Note_on_c, 0, 78, 0
2, 24928, Note_on_c, 0, 80, 81
2, 24943, Note_on_c, 0, 80, 0
2, 24944, Note_on_c, 0, 81, 80
2, 24959, Note_on_c, 0, 81, 0
2, 24960, Note_on_c, 0, 83, 93
2, 25104, Note_on_c, 0, 83, 0
2, 25104, Note_on_c, 0, 81, 77
2, 25149, Note_on_c, 0, 81, 0
2, 25152, Note_on_c, 0, 80, 77
2, 25241, Note_on_c, 0, 80, 0
2, 25248, Note_on_c, 0, 78, 77
2, 25337, Note_on_c, 0, 78, 0
2, 25344, Note_on_c, 0, 76, 77
2, 25411, Note_on_c, 0, 76, 0
2, 25416, Note_on_c, 0, 78, 83
2, 25428, Note_on_c, 0, 78, 0
2, 25428, Note_on_c, 0, 80, 84
2, 25440, Note_on_c, 0, 80, 0
2, 25440, Note_on_c, 0, 81, 85
2, 25485, Note_on_c, 0, 81, 0
2, 25488, Note_on_c, 0, 80, 85
2, 25533, Note_on_c, 0, 80, 0
2, 25536, Note_on_c, 0, 80, 85
2, 25544, Note_on_c, 0, 80, 0
2, 25544, Note_on_c, 0, 78, 84
2, 25552, Note_on_c, 0, 78, 0
2, 25552, Note_on_c, 0, 80, 84
2, 25560, Note_on_c, 0, 80, 0
2, 25560, Note_on_c, 0, 78, 83
2, 25568, Note_on_c, 0, 78, 0
2, 25568, Note_on_c, 0, 80, 83
2, 25576, Note_on_c, 0, 80, 0
2, 25576, Note_on_c, 0, 78, 82
2, 25584, Note_on_c, 0, 78, 0
2, 25584, Note_on_c, 0, 76, 82
2, 25629, Note_on_c, 0, 76, 0
2, 25728, Note_on_c, 0, 71, 93
2, 25872, Note_on_c, 0, 71, 0
2, 25872, Note_on_c, 0, 70, 77
2, 25917, Note_on_c, 0, 70, 0
2, 25920, Note_on_c, 0, 69, 77
2, 25965, Note_on_c, 0, 69, 0
2, 25968, Note_on_c, 0, 68, 77
2, 26013, Note_on_c, 0, 68, 0
2, 26016, Note_on_c, 0, 67, 77
2, 26061, Note_on_c, 0, 67, 0
2, 26064, Note_on_c, 0, 66, 77
2, 26109, Note_on_c, 0, 66, 0
2, 26112, Note_on_c, 0, 64, 77
2, 26179, Note_on_c, 0, 64, 0
2, 26184, Note_on_c, 0, 66, 80
2, 26196, Note_on_c, 0, 66, 0
2, 26196, Note_on_c, 0, 68, 80
2, 26208, Note_on_c, 0, 68, 0
2, 26208, Note_on_c, 0, 69, 81
2, 26253, Note_on_c, 0, 69, 0
2, 26256, Note_on_c, 0, 68, 83
2, 26301, Note_on_c, 0, 68, 0
2, 26304, Note_on_c, 0, 73, 85
2, 26304, Note_on_c, 0, 69, 85
2, 26304, Note_on_c, 0, 64, 85
2, 26324, Note_on_c, 0, 73, 0
2, 26324, Note_on_c, 0, 69, 0
2, 26324, Note_on_c, 0, 64, 0
2, 26352, Note_on_c, 0, 71, 85
2, 26352, Note_on_c, 0, 68, 85
2, 26352, Note_on_c, 0, 64, 85
2, 26372, Note_on_c, 0, 71, 0
2, 26372, Note_on_c, 0, 68, 0
2, 26372, Note_on_c, 0, 64, 0
2, 26496, Note_on_c, 0, 64, 77
2, 26508, Note_on_c, 0, 64, 0
2, 26508, Note_on_c, 0, 76, 77
2, 26607, Note_on_c, 0, 76, 0
2, 26608, Note_on_c, 0, 75, 77
2, 26623, Note_on_c, 0, 75, 0
2, 26624, Note_on_c, 0, 73, 77
2, 26639, Note_on_c, 0, 73, 0
2, 26640, Note_on_c, 0, 71, 77
2, 26655, Note_on_c, 0, 71, 0
2, 26656, Note_on_c, 0, 69, 77
2, 26671, Note_on_c, 0, 69, 0
2, 26672, Note_on_c, 0, 68, 77
2, 26687, Note_on_c, 0, 68, 0
2, 26688, Note_on_c, 0, 66, 77
2, 26708, Note_on_c, 0, 66, 0
2, 26800, Note_on_c, 0, 85, 77
2, 26815, Note_on_c, 0, 85, 0
2, 26816, Note_on_c, 0, 83, 77
2, 26831, Note_on_c, 0, 83, 0
2, 26832, Note_on_c, 0, 81, 77
2, 26847, Note_on_c, 0, 81, 0
2, 26848, Note_on_c, 0, 80, 77
2, 26863, Note_on_c, 0, 80, 0
2, 26864, Note_on_c, 0, 78, 77
2, 26879, Note_on_c, 0, 78, 0
2, 26880, Note_on_c, 0, 76, 77
2, 26895, Note_on_c, 0, 76, 0
2, 26896, Note_on_c, 0, 75, 77
2, 26911, Note_on_c, 0, 75, 0
2, 26912, Note_on_c, 0, 73, 77
2, 26927, Note_on_c, 0, 73, 0
2, 26928, Note_on_c, 0, 71, 77
2, 26943, Note_on_c, 0, 71, 0
2, 26944, Note_on_c, 0, 69, 77
2, 26959, Note_on_c, 0, 69, 0
2, 26960, Note_on_c, 0, 68, 77
2, 26975, Note_on_c, 0, 68, 0
2, 26976, Note_on_c, 0, 66, 77
2, 26991, Note_on_c, 0, 66, 0
2, 26992, Note_on_c, 0, 64, 78
2, 27007, Note_on_c, 0, 64, 0
2, 27008, Note_on_c, 0, 63, 79
2, 27023, Note_on_c, 0, 63, 0
2, 27024, Note_on_c, 0, 61, 80
2, 27039, Note_on_c, 0, 61, 0
2, 27040, Note_on_c, 0, 59, 81
2, 27055, Note_on_c, 0, 59, 0
2, 27056, Note_on_c, 0, 57, 82
2, 27071, Note_on_c, 0, 57, 0
2, 27072, Note_on_c, 0, 59, 85
2, 27117, Note_on_c, 0, 59, 0
2, 27120, Note_on_c, 0, 59, 85
2, 27128, Note_on_c, 0, 59, 0
2, 27128, Note_on_c, 0, 57, 84
2, 27136, Note_on_c, 0, 57, 0
2, 27136, Note_on_c, 0, 59, 84
2, 27144, Note_on_c, 0, 59, 0
2, 27144, Note_on_c, 0, 57, 83
2, 27152, Note_on_c, 0, 57, 0
2, 27152, Note_on_c, 0, 59, 83
2, 27160, Note_on_c, 0, 59, 0
2, 27160, Note_on_c, 0, 57, 82
2, 27168, Note_on_c, 0, 57, 0
2, 27168, Note_on_c, 0, 56, 82
2, 27213, Note_on_c, 0, 56, 0
2, 27264, Note_on_c, 0, 64, 77
2, 27276, Note_on_c, 0, 64, 0
2, 27276, Note_on_c, 0, 76, 77
2, 27375, Note_on_c, 0, 76, 0
2, 27376, Note_on_c, 0, 75, 77
2, 27391, Note_on_c, 0, 75, 0
2, 27392, Note_on_c, 0, 73, 77
2, 27407, Note_on_c, 0, 73, 0
2, 27408, Note_on_c, 0, 71, 77
2, 27423, Note_on_c, 0, 71, 0
2, 27424, Note_on_c, 0, 69, 77
2, 27439, Note_on_c, 0, 69, 0
2, 27440, Note_on_c, 0, 68, 77
2, 27455, Note_on_c, 0, 68, 0
2, 27456, Note_on_c, 0, 66, 77
2, 27501, Note_on_c, 0, 66, 0
2, 27568, Note_on_c, 0, 88, 77
2, 27583, Note_on_c, 0, 88, 0
2, 27584, Note_on_c, 0, 87, 77
2, 27599, Note_on_c, 0, 87, 0
2, 27600, Note_on_c, 0, 85, 77
2, 27615, Note_on_c, 0, 85, 0
2, 27616, Note_on_c, 0, 83, 77
2, 27631, Note_on_c, 0, 83, 0
2, 27632, Note_on_c, 0, 81, 77
2, 27647, Note_on_c, 0, 81, 0
2, 27648, Note_on_c, 0, 80, 77
2, 27663, Note_on_c, 0, 80, 0
2, 27664, Note_on_c, 0, 78, 77
2, 27679, Note_on_c, 0, 78, 0
2, 27680, Note_on_c, 0, 76, 77
2, 27695, Note_on_c, 0, 76, 0
2, 27696, Note_on_c, 0, 75, 77
2, 27711, Note_on_c, 0, 75, 0
2, 27712, Note_on_c, 0, 73, 77
2, 27727, Note_on_c, 0, 73, 0
2, 27728, Note_on_c, 0, 71, 77
2, 27743, Note_on_c, 0, 71, 0
2, 27744, Note_on_c, 0, 69, 77
2, 27759, Note_on_c, 0, 69, 0
2, 27760, Note_on_c, 0, 68, 78
2, 27775, Note_on_c, 0, 68, 0
2, 27776, Note_on_c, 0, 66, 79
2, 27791, Note_on_c, 0, 66, 0
2, 27792, Note_on_c, 0, 64, 80
2, 27807, Note_on_c, 0, 64, 0
2, 27808, Note_on_c, 0, 63, 81
2, 27823, Note_on_c, 0, 63, 0
2, 27824, Note_on_c, 0, 69, 82
2, 27839, Note_on_c, 0, 69, 0
2, 27840, Note_on_c, 0, 68, 85
2, 27855, Note_on_c, 0, 68, 0
2, 27856, Note_on_c, 0, 66, 85
2, 27871, Note_on_c, 0, 66, 0
2, 27872, Note_on_c, 0, 64, 85
2, 27887, Note_on_c, 0, 64, 0
2, 27888, Note_on_c, 0, 64, 85
2, 27908, Note_on_c, 0, 64, 0
2, 28032, Note_on_c, 0, 73, 68
2, 28151, Note_on_c, 0, 73, 0
2, 28152, Note_on_c, 0, 86, 68
2, 28158, Note_on_c, 0, 86, 0
2, 28158, Note_on_c, 0, 85, 68
2, 28164, Note_on_c, 0, 85, 0
2, 28164, Note_on_c, 0, 83, 68
2, 28170, Note_on_c, 0, 83, 0
2, 28170, Note_on_c, 0, 85, 68
2, 28176, Note_on_c, 0, 85, 0
2, 28176, Note_on_c, 0, 86, 68
2, 28210, Note_on_c, 0, 86, 0
2, 28212, Note_on_c, 0, 83, 68
2, 28224, Note_on_c, 0, 83, 0
2, 28224, Note_on_c, 0, 83, 84
2, 28320, Note_on_c, 0, 83, 0
2, 28320, Note_on_c, 0, 81, 68
2, 28326, Note_on_c, 0, 81, 0
2, 28326, Note_on_c, 0, 83, 68
2, 28332, Note_on_c, 0, 83, 0
2, 28332, Note_on_c, 0, 81, 68
2, 28366, Note_on_c, 0, 81, 0
2, 28368, Note_on_c, 0, 85, 68
2, 28402, Note_on_c, 0, 85, 0
2, 28404, Note_on_c, 0, 78, 68
2, 28416, Note_on_c, 0, 78, 0
2, 28416, Note_on_c, 0, 80, 84
2, 28560, Note_on_c, 0, 80, 0
2, 28560, Note_on_c, 0, 81, 68
2, 28594, Note_on_c, 0, 81, 0
2, 28596, Note_on_c, 0, 83, 68
2, 28608, Note_on_c, 0, 83, 0
2, 28608, Note_on_c, 0, 81, 68
2, 28620, Note_on_c, 0, 81, 0
2, 28620, Note_on_c, 0, 80, 68
2, 28632, Note_on_c, 0, 80, 0
2, 28632, Note_on_c, 0, 78, 68
2, 28655, Note_on_c, 0, 78, 0
2, 28672, Note_on_c, 0, 66, 85
2, 28687, Note_on_c, 0, 66, 0
2, 28688, Note_on_c, 0, 68, 85
2, 28703, Note_on_c, 0, 68, 0
2, 28704, Note_on_c, 0, 69, 85
2, 28719, Note_on_c, 0, 69, 0
2, 28720, Note_on_c, 0, 68, 85
2, 28735, Note_on_c, 0, 68, 0
2, 28736, Note_on_c, 0, 66, 85
2, 28751, Note_on_c, 0, 66, 0
2, 28752, Note_on_c, 0, 64, 85
2, 28767, Note_on_c, 0, 64, 0
2, 28768, Note_on_c, 0, 63, 85
2, 28783, Note_on_c, 0, 63, 0
2, 28784, Note_on_c, 0, 61, 85
2, 28799, Note_on_c, 0, 61, 0
2, 28800, Note_on_c, 0, 59, 85
2, 28845, Note_on_c, 0, 59, 0
2, 28848, Note_on_c, 0, 83, 77
2, 28919, Note_on_c, 0, 83, 0
2, 28920, Note_on_c, 0, 85, 77
2, 28926, Note_on_c, 0, 85, 0
2, 28926, Note_on_c, 0, 83, 77
2, 28932, Note_on_c, 0, 83, 0
2, 28932, Note_on_c, 0, 81, 77
2, 28938, Note_on_c, 0, 81, 0
2, 28938, Note_on_c, 0, 83, 77
2, 28944, Note_on_c, 0, 83, 0
2, 28944, Note_on_c, 0, 85, 77
2, 28978, Note_on_c, 0, 85, 0
2, 28980, Note_on_c, 0, 81, 77
2, 28992, Note_on_c, 0, 81, 0
2, 28992, Note_on_c, 0, 81, 93
2, 29088, Note_on_c, 0, 81, 0
2, 29088, Note_on_c, 0, 80, 77
2, 29133, Note_on_c, 0, 80, 0
2, 29136, Note_on_c, 0, 81, 77
2, 29170, Note_on_c, 0, 81, 0
2, 29172, Note_on_c, 0, 78, 77
2, 29184, Note_on_c, 0, 78, 0
2, 29184, Note_on_c, 0, 76, 77
2, 29199, Note_on_c, 0, 76, 0
2, 29200, Note_on_c, 0, 80, 78
2, 29215, Note_on_c, 0, 80, 0
2, 29216, Note_on_c, 0, 78, 79
2, 29231, Note_on_c, 0, 78, 0
2, 29232, Note_on_c, 0, 76, 80
2, 29247, Note_on_c, 0, 76, 0
2, 29248, Note_on_c, 0, 80, 81
2, 29263, Note_on_c, 0, 80, 0
2, 29264, Note_on_c, 0, 83, 82
2, 29279, Note_on_c, 0, 83, 0
2, 29280, Note_on_c, 0, 88, 83
2, 29295, Note_on_c, 0, 88, 0
2, 29296, Note_on_c, 0, 87, 84
2, 29311, Note_on_c, 0, 87, 0
2, 29312, Note_on_c, 0, 85, 85
2, 29327, Note_on_c, 0, 85, 0
2, 29328, Note_on_c, 0, 83, 84
2, 29343, Note_on_c, 0, 83, 0
2, 29344, Note_on_c, 0, 81, 83
2, 29359, Note_on_c, 0, 81, 0
2, 29360, Note_on_c, 0, 80, 82
2, 29375, Note_on_c, 0, 80, 0
2, 29376, Note_on_c, 0, 81, 77
2, 29384, Note_on_c, 0, 81, 0
2, 29384, Note_on_c, 0, 80, 77
2, 29392, Note_on_c, 0, 80, 0
2, 29392, Note_on_c, 0, 81, 77
2, 29400, Note_on_c, 0, 81, 0
2, 29400, Note_on_c, 0, 80, 77
2, 29408, Note_on_c, 0, 80, 0
2, 29408, Note_on_c, 0, 81, 77
2, 29416, Note_on_c, 0, 81, 0
2, 29416, Note_on_c, 0, 80, 77
2, 29424, Note_on_c, 0, 80, 0
2, 29424, Note_on_c, 0, 78, 77
2, 29469, Note_on_c, 0, 78, 0
2, 29584, Note_on_c, 0, 76, 85
2, 29599, Note_on_c, 0, 76, 0
2, 29600, Note_on_c, 0, 75, 85
2, 29615, Note_on_c, 0, 75, 0
2, 29616, Note_on_c, 0, 73, 85
2, 29631, Note_on_c, 0, 73, 0
2, 29632, Note_on_c, 0, 71, 85
2, 29647, Note_on_c, 0, 71, 0
2, 29648, Note_on_c, 0, 69, 85
2, 29663, Note_on_c, 0, 69, 0
2, 29664, Note_on_c, 0, 68, 85
2, 29679, Note_on_c, 0, 68, 0
2, 29680, Note_on_c, 0, 66, 85
2, 29695, Note_on_c, 0, 66, 0
2, 29696, Note_on_c, 0, 64, 85
2, 29711, Note_on_c, 0, 64, 0
2, 29712, Note_on_c, 0, 63, 85
2, 29727, Note_on_c, 0, 63, 0
2, 29728, Note_on_c, 0, 66, 85
2, 29743, Note_on_c, 0, 66, 0
2, 29744, Note_on_c, 0, 71, 85
2, 29759, Note_on_c, 0, 71, 0
2, 29760, Note_on_c, 0, 64, 85
2, 29775, Note_on_c, 0, 64, 0
2, 29776, Note_on_c, 0, 68, 85
2, 29791, Note_on_c, 0, 68, 0
2, 29792, Note_on_c, 0, 71, 85
2, 29807, Note_on_c, 0, 71, 0
2, 29808, Note_on_c, 0, 66, 85
2, 29823, Note_on_c, 0, 66, 0
2, 29824, Note_on_c, 0, 69, 85
2, 29839, Note_on_c, 0, 69, 0
2, 29840, Note_on_c, 0, 71, 85
2, 29855, Note_on_c, 0, 71, 0
2, 29856, Note_on_c, 0, 68, 85
2, 29871, Note_on_c, 0, 68, 0
2, 29872, Note_on_c, 0, 69, 85
2, 29887, Note_on_c, 0, 69, 0
2, 29888, Note_on_c, 0, 71, 85
2, 29903, Note_on_c, 0, 71, 0
2, 29904, Note_on_c, 0, 69, 85
2, 29919, Note_on_c, 0, 69, 0
2, 29920, Note_on_c, 0, 71, 85
2, 29935, Note_on_c, 0, 71, 0
2, 29936, Note_on_c, 0, 73, 85
2, 29951, Note_on_c, 0, 73, 0
2, 29952, Note_on_c, 0, 71, 85
2, 29967, Note_on_c, 0, 71, 0
2, 29968, Note_on_c, 0, 76, 85
2, 29983, Note_on_c, 0, 76, 0
2, 29984, Note_on_c, 0, 75, 85
2, 29999, Note_on_c, 0, 75, 0
2, 30000, Note_on_c, 0, 73, 85
2, 30015, Note_on_c, 0, 73, 0
2, 30016, Note_on_c, 0, 71, 85
2, 30031, Note_on_c, 0, 71, 0
2, 30032, Note_on_c, 0, 69, 85
2, 30047, Note_on_c, 0, 69, 0
2, 30048, Note_on_c, 0, 68, 85
2, 30063, Note_on_c, 0, 68, 0
2, 30064, Note_on_c, 0, 66, 85
2, 30079, Note_on_c, 0, 66, 0
2, 30080, Note_on_c, 0, 64, 85
2, 30095, Note_on_c, 0, 64, 0
2, 30096, Note_on_c, 0, 63, 85
2, 30111, Note_on_c, 0, 63, 0
2, 30112, Note_on_c, 0, 66, 85
2, 30127, Note_on_c, 0, 66, 0
2, 30128, Note_on_c, 0, 71, 85
2, 30143, Note_on_c, 0, 71, 0
2, 30144, Note_on_c, 0, 64, 85
2, 30159, Note_on_c, 0, 64, 0
2, 30160, Note_on_c, 0, 68, 85
2, 30175, Note_on_c, 0, 68, 0
2, 30176, Note_on_c, 0, 71, 85
2, 30191, Note_on_c, 0, 71, 0
2, 30192, Note_on_c, 0, 66, 85
2, 30207, Note_on_c, 0, 66, 0
2, 30208, Note_on_c, 0, 69, 85
2, 30223, Note_on_c, 0, 69, 0
2, 30224, Note_on_c, 0, 71, 85
2, 30239, Note_on_c, 0, 71, 0
2, 30240, Note_on_c, 0, 68, 85
2, 30255, Note_on_c, 0, 68, 0
2, 30256, Note_on_c, 0, 69, 85
2, 30271, Note_on_c, 0, 69, 0
2, 30272, Note_on_c, 0, 71, 85
2, 30287, Note_on_c, 0, 71, 0
2, 30288, Note_on_c, 0, 69, 85
2, 30303, Note_on_c, 0, 69, 0
2, 30304, Note_on_c, 0, 71, 85
2, 30319, Note_on_c, 0, 71, 0
2, 30320, Note_on_c, 0, 73, 85
2, 30335, Note_on_c, 0, 73, 0
2, 30336, Note_on_c, 0, 71, 85
2, 30351, Note_on_c, 0, 71, 0
2, 30352, Note_on_c, 0, 76, 85
2, 30367, Note_on_c, 0, 76, 0
2, 30368, Note_on_c, 0, 75, 85
2, 30383, Note_on_c, 0, 75, 0
2, 30384, Note_on_c, 0, 73, 85
2, 30399, Note_on_c, 0, 73, 0
2, 30400, Note_on_c, 0, 71, 85
2, 30415, Note_on_c, 0, 71, 0
2, 30416, Note_on_c, 0, 69, 85
2, 30431, Note_on_c, 0, 69, 0
2, 30432, Note_on_c, 0, 68, 85
2, 30447, Note_on_c, 0, 68, 0
2, 30448, Note_on_c, 0, 66, 84
2, 30463, Note_on_c, 0, 66, 0
2, 30464, Note_on_c, 0, 64, 83
2, 30479, Note_on_c, 0, 64, 0
2, 30480, Note_on_c, 0, 74, 82
2, 30495, Note_on_c, 0, 74, 0
2, 30496, Note_on_c, 0, 73, 81
2, 30511, Note_on_c, 0, 73, 0
2, 30512, Note_on_c, 0, 71, 80
2, 30527, Note_on_c, 0, 71, 0
2, 30528, Note_on_c, 0, 72, 93
2, 30624, Note_on_c, 0, 72, 0
2, 30624, Note_on_c, 0, 73, 77
2, 30644, Note_on_c, 0, 73, 0
2, 30672, Note_on_c, 0, 81, 77
2, 30687, Note_on_c, 0, 81, 0
2, 30688, Note_on_c, 0, 80, 77
2, 30703, Note_on_c, 0, 80, 0
2, 30704, Note_on_c, 0, 78, 77
2, 30719, Note_on_c, 0, 78, 0
2, 30720, Note_on_c, 0, 77, 93
2, 30816, Note_on_c, 0, 77, 0
2, 30816, Note_on_c, 0, 78, 77
2, 30836, Note_on_c, 0, 78, 0
2, 30864, Note_on_c, 0, 85, 77
2, 30879, Note_on_c, 0, 85, 0
2, 30880, Note_on_c, 0, 81, 77
2, 30895, Note_on_c, 0, 81, 0
2, 30896, Note_on_c, 0, 78, 77
2, 30911, Note_on_c, 0, 78, 0
2, 30912, Note_on_c, 0, 76, 93
2, 31008, Note_on_c, 0, 76, 0
2, 31008, Note_on_c, 0, 75, 77
2, 31053, Note_on_c, 0, 75, 0
2, 31104, Note_on_c, 0, 76, 85
2, 31107, Note_on_c, 0, 80, 85
2, 31110, Note_on_c, 0, 83, 85
2, 31113, Note_on_c, 0, 88, 85
2, 31197, Note_on_c, 0, 88, 0
2, 31197, Note_on_c, 0, 83, 0
2, 31197, Note_on_c, 0, 80, 0
2, 31197, Note_on_c, 0, 76, 0
2, 31248, Note_on_c, 0, 71, 85
2, 31263, Note_on_c, 0, 71, 0
2, 31264, Note_on_c, 0, 73, 85
2, 31279, Note_on_c, 0, 73, 0
2, 31280, Note_on_c, 0, 75, 85
2, 31295, Note_on_c, 0, 75, 0
2, 31296, Note_on_c, 0, 76, 85
2, 31311, Note_on_c, 0, 76, 0
2, 31312, Note_on_c, 0, 80, 85
2, 31327, Note_on_c, 0, 80, 0
2, 31328, Note_on_c, 0, 83, 85
2, 31343, Note_on_c, 0, 83, 0
2, 31344, Note_on_c, 0, 88, 85
2, 31359, Note_on_c, 0, 88, 0
2, 31360, Note_on_c, 0, 87, 85
2, 31375, Note_on_c, 0, 87, 0
2, 31376, Note_on_c, 0, 85, 85
2, 31391, Note_on_c, 0, 85, 0
2, 31392, Note_on_c, 0, 83, 85
2, 31407, Note_on_c, 0, 83, 0
2, 31408, Note_on_c, 0, 81, 85
2, 31423, Note_on_c, 0, 81, 0
2, 31424, Note_on_c, 0, 80, 85
2, 31439, Note_on_c, 0, 80, 0
2, 31440, Note_on_c, 0, 78, 85
2, 31455, Note_on_c, 0, 78, 0
2, 31456, Note_on_c, 0, 80, 85
2, 31471, Note_on_c, 0, 80, 0
2, 31472, Note_on_c, 0, 81, 85
2, 31487, Note_on_c, 0, 81, 0
2, 31488, Note_on_c, 0, 80, 85
2, 31577, Note_on_c, 0, 80, 0
2, 31632, Note_on_c, 0, 71, 85
2, 31647, Note_on_c, 0, 71, 0
2, 31648, Note_on_c, 0, 73, 85
2, 31663, Note_on_c, 0, 73, 0
2, 31664, Note_on_c, 0, 75, 85
2, 31679, Note_on_c, 0, 75, 0
2, 31680, Note_on_c, 0, 76, 85
2, 31695, Note_on_c, 0, 76, 0
2, 31696, Note_on_c, 0, 80, 85
2, 31711, Note_on_c, 0, 80, 0
2, 31712, Note_on_c, 0, 83, 85
2, 31727, Note_on_c, 0, 83, 0
2, 31728, Note_on_c, 0, 88, 85
2, 31743, Note_on_c, 0, 88, 0
2, 31744, Note_on_c, 0, 87, 85
2, 31759, Note_on_c, 0, 87, 0
2, 31760, Note_on_c, 0, 85, 85
2, 31775, Note_on_c, 0, 85, 0
2, 31776, Note_on_c, 0, 83, 85
2, 31796, Note_on_c, 0, 83, 0
2, 31824, Note_on_c, 0, 88, 77
2, 31839, Note_on_c, 0, 88, 0
2, 31840, Note_on_c, 0, 87, 77
2, 31855, Note_on_c, 0, 87, 0
2, 31856, Note_on_c, 0, 85, 77
2, 31871, Note_on_c, 0, 85, 0
2, 31872, Note_on_c, 0, 83, 77
2, 31887, Note_on_c, 0, 83, 0
2, 31888, Note_on_c, 0, 85, 77
2, 31903, Note_on_c, 0, 85, 0
2, 31904, Note_on_c, 0, 87, 77
2, 31919, Note_on_c, 0, 87, 0
2, 31920, Note_on_c, 0, 88, 77
2, 31935, Note_on_c, 0, 88, 0
2, 31936, Note_on_c, 0, 87, 77
2, 31951, Note_on_c, 0, 87, 0
2, 31952, Note_on_c, 0, 85, 77
2, 31967, Note_on_c, 0, 85, 0
2, 31968, Note_on_c, 0, 83, 77
2, 31983, Note_on_c, 0, 83, 0
2, 31984, Note_on_c, 0, 85, 77
2, 31999, Note_on_c, 0, 85, 0
2, 32000, Note_on_c, 0, 87, 78
2, 32015, Note_on_c, 0, 87, 0
2, 32016, Note_on_c, 0, 88, 78
2, 32031, Note_on_c, 0, 88, 0
2, 32032, Note_on_c, 0, 87, 79
2, 32047, Note_on_c, 0, 87, 0
2, 32048, Note_on_c, 0, 85, 79
2, 32063, Note_on_c, 0, 85, 0
2, 32064, Note_on_c, 0, 83, 80
2, 32079, Note_on_c, 0, 83, 0
2, 32080, Note_on_c, 0, 85, 80
2, 32095, Note_on_c, 0, 85, 0
2, 32096, Note_on_c, 0, 86, 81
2, 32111, Note_on_c, 0, 86, 0
2, 32112, Note_on_c, 0, 85, 81
2, 32127, Note_on_c, 0, 85, 0
2, 32128, Note_on_c, 0, 86, 82
2, 32143, Note_on_c, 0, 86, 0
2, 32144, Note_on_c, 0, 88, 82
2, 32159, Note_on_c, 0, 88, 0
2, 32160, Note_on_c, 0, 86, 85
2, 32256, Note_on_c, 0, 86, 0
2, 32256, Note_on_c, 0, 85, 85
2, 32271, Note_on_c, 0, 85, 0
2, 32272, Note_on_c, 0, 87, 85
2, 32287, Note_on_c, 0, 87, 0
2, 32288, Note_on_c, 0, 88, 85
2, 32303, Note_on_c, 0, 88, 0
2, 32304, Note_on_c, 0, 87, 85
2, 32319, Note_on_c, 0, 87, 0
2, 32320, Note_on_c, 0, 85, 85
2, 32335, Note_on_c, 0, 85, 0
2, 32336, Note_on_c, 0, 83, 85
2, 32351, Note_on_c, 0, 83, 0
2, 32352, Note_on_c, 0, 81, 85
2, 32367, Note_on_c, 0, 81, 0
2, 32368, Note_on_c, 0, 80, 85
2, 32383, Note_on_c, 0, 80, 0
2, 32384, Note_on_c, 0, 78, 85
2, 32399, Note_on_c, 0, 78, 0
2, 32400, Note_on_c, 0, 76, 85
2, 32415, Note_on_c, 0, 76, 0
2, 32416, Note_on_c, 0, 75, 85
2, 32431, Note_on_c, 0, 75, 0
2, 32432, Note_on_c, 0, 73, 85
2, 32447, Note_on_c, 0, 73, 0
2, 32448, Note_on_c, 0, 71, 85
2, 32537, Note_on_c, 0, 71, 0
2, 32544, Note_on_c, 0, 80, 81
2, 32552, Note_on_c, 0, 80, 0
2, 32552, Note_on_c, 0, 78, 80
2, 32560, Note_on_c, 0, 78, 0
2, 32560, Note_on_c, 0, 80, 80
2, 32568, Note_on_c, 0, 80, 0
2, 32568, Note_on_c, 0, 78, 80
2, 32576, Note_on_c, 0, 78, 0
2, 32576, Note_on_c, 0, 80, 80
2, 32584, Note_on_c, 0, 80, 0
2, 32584, Note_on_c, 0, 78, 79
2, 32592, Note_on_c, 0, 78, 0
2, 32592, Note_on_c, 0, 80, 79
2, 32600, Note_on_c, 0, 80, 0
2, 32600, Note_on_c, 0, 78, 79
2, 32608, Note_on_c, 0, 78, 0
2, 32608, Note_on_c, 0, 80, 79
2, 32616, Note_on_c, 0, 80, 0
2, 32616, Note_on_c, 0, 78, 78
2, 32624, Note_on_c, 0, 78, 0
2, 32624, Note_on_c, 0, 76, 78
2, 32632, Note_on_c, 0, 76, 0
2, 32632, Note_on_c, 0, 78, 78
2, 32640, Note_on_c, 0, 78, 0
2, 32640, Note_on_c, 0, 76, 77
2, 32729, Note_on_c, 0, 76, 0
2, 32784, Note_on_c, 0, 71, 77
2, 32799, Note_on_c, 0, 71, 0
2, 32800, Note_on_c, 0, 73, 77
2, 32815, Note_on_c, 0, 73, 0
2, 32816, Note_on_c, 0, 71, 77
2, 32831, Note_on_c, 0, 71, 0
2, 32832, Note_on_c, 0, 74, 77
2, 32847, Note_on_c, 0, 74, 0
2, 32848, Note_on_c, 0, 73, 77
2, 32863, Note_on_c, 0, 73, 0
2, 32864, Note_on_c, 0, 71, 77
2, 32879, Note_on_c, 0, 71, 0
2, 32880, Note_on_c, 0, 69, 77
2, 32895, Note_on_c, 0, 69, 0
2, 32896, Note_on_c, 0, 71, 77
2, 32911, Note_on_c, 0, 71, 0
2, 32912, Note_on_c, 0, 69, 77
2, 32927, Note_on_c, 0, 69, 0
2, 32928, Note_on_c, 0, 73, 77
2, 32943, Note_on_c, 0, 73, 0
2, 32944, Note_on_c, 0, 71, 77
2, 32959, Note_on_c, 0, 71, 0
2, 32960, Note_on_c, 0, 69, 77
2, 32975, Note_on_c, 0, 69, 0
2, 32976, Note_on_c, 0, 68, 77
2, 32991, Note_on_c, 0, 68, 0
2, 32992, Note_on_c, 0, 71, 77
2, 33007, Note_on_c, 0, 71, 0
2, 33008, Note_on_c, 0, 76, 77
2, 33023, Note_on_c, 0, 76, 0
2, 33024, Note_on_c, 0, 73, 77
2, 33039, Note_on_c, 0, 73, 0
2, 33040, Note_on_c, 0, 71, 77
2, 33055, Note_on_c, 0, 71, 0
2, 33056, Note_on_c, 0, 69, 77
2, 33071, Note_on_c, 0, 69, 0
2, 33072, Note_on_c, 0, 68, 77
2, 33087, Note_on_c, 0, 68, 0
2, 33088, Note_on_c, 0, 69, 77
2, 33103, Note_on_c, 0, 69, 0
2, 33104, Note_on_c, 0, 66, 77
2, 33119, Note_on_c, 0, 66, 0
2, 33120, Note_on_c, 0, 64, 77
2, 33165, Note_on_c, 0, 64, 0
2, 33168, Note_on_c, 0, 68, 77
2, 33180, Note_on_c, 0, 68, 0
2, 33180, Note_on_c, 0, 66, 77
2, 33192, Note_on_c, 0, 66, 0
2, 33192, Note_on_c, 0, 64, 77
2, 33204, Note_on_c, 0, 64, 0
2, 33204, Note_on_c, 0, 66, 77
2, 33216, Note_on_c, 0, 66, 0
2, 33216, Note_on_c, 0, 64, 77
2, 33305, Note_on_c, 0, 64, 0
2, 33360, Note_on_c, 0, 62, 77
2, 33405, Note_on_c, 0, 62, 0
2, 33408, Note_on_c, 0, 61, 77
2, 33504, Note_on_c, 0, 61, 0
2, 33504, Note_on_c, 0, 59, 77
2, 33593, Note_on_c, 0, 59, 0
2, 33600, Control_c, 0, 64, 127
2, 33600, Note_on_c, 0, 57, 93
2, 33608, Note_on_c, 0, 61, 93
2, 33616, Note_on_c, 0, 66, 93
2, 33648, Note_on_c, 0, 66, 0
2, 33648, Note_on_c, 0, 61, 0
2, 33648, Note_on_c, 0, 57, 0
2, 33648, Note_on_c, 0, 73, 77
2, 33663, Note_on_c, 0, 73, 0
2, 33664, Note_on_c, 0, 69, 77
2, 33679, Note_on_c, 0, 69, 0
2, 33680, Control_c, 0, 64, 0
2, 33680, Note_on_c, 0, 66, 77
2, 33695, Note_on_c, 0, 66, 0
2, 33696, Note_on_c, 0, 64, 77
2, 33741, Note_on_c, 0, 64, 0
2, 33744, Note_on_c, 0, 64, 77
2, 33752, Note_on_c, 0, 64, 0
2, 33752, Note_on_c, 0, 63, 77
2, 33760, Note_on_c, 0, 63, 0
2, 33760, Note_on_c, 0, 64, 77
2, 33768, Note_on_c, 0, 64, 0
2, 33768, Note_on_c, 0, 63, 77
2, 33776, Note_on_c, 0, 63, 0
2, 33776, Note_on_c, 0, 64, 77
2, 33784, Note_on_c, 0, 64, 0
2, 33784, Note_on_c, 0, 63, 77
2, 33792, Note_on_c, 0, 63, 0
2, 33792, Note_on_c, 0, 64, 77
2, 33807, Note_on_c, 0, 64, 0
2, 33808, Note_on_c, 0, 68, 77
2, 33823, Note_on_c, 0, 68, 0
2, 33824, Note_on_c, 0, 71, 77
2, 33839, Note_on_c, 0, 71, 0
2, 33840, Note_on_c, 0, 76, 77
2, 33855, Note_on_c, 0, 76, 0
2, 33856, Note_on_c, 0, 71, 77
2, 33871, Note_on_c, 0, 71, 0
2, 33872, Note_on_c, 0, 68, 77
2, 33887, Note_on_c, 0, 68, 0
2, 34176, Note_on_c, 0, 78, 93
2, 34320, Note_on_c, 0, 78, 0
2, 34320, Note_on_c, 0, 76, 77
2, 34365, Note_on_c, 0, 76, 0
2, 34368, Note_on_c, 0, 75, 77
2, 34457, Note_on_c, 0, 75, 0
2, 34464, Note_on_c, 0, 73, 77
2, 34553, Note_on_c, 0, 73, 0
2, 34560, Note_on_c, 0, 71, 77
2, 34627, Note_on_c, 0, 71, 0
2, 34632, Note_on_c, 0, 73, 80
2, 34644, Note_on_c, 0, 73, 0
2, 34644, Note_on_c, 0, 75, 80
2, 34656, Note_on_c, 0, 75, 0
2, 34656, Note_on_c, 0, 76, 81
2, 34701, Note_on_c, 0, 76, 0
2, 34704, Note_on_c, 0, 75, 83
2, 34749, Note_on_c, 0, 75, 0
2, 34752, Note_on_c, 0, 75, 85
2, 34760, Note_on_c, 0, 75, 0
2, 34760, Note_on_c, 0, 73, 84
2, 34768, Note_on_c, 0, 73, 0
2, 34768, Note_on_c, 0, 75, 83
2, 34776, Note_on_c, 0, 75, 0
2, 34776, Note_on_c, 0, 73, 82
2, 34784, Note_on_c, 0, 73, 0
2, 34784, Note_on_c, 0, 75, 81
2, 34792, Note_on_c, 0, 75, 0
2, 34792, Note_on_c, 0, 73, 80
2, 34800, Note_on_c, 0, 73, 0
2, 34800, Note_on_c, 0, 71, 77
2, 34871, Note_on_c, 0, 71, 0
2, 34872, Note_on_c, 0, 73, 68
2, 34884, Note_on_c, 0, 73, 0
2, 34884, Note_on_c, 0, 75, 69
2, 34896, Note_on_c, 0, 75, 0
2, 34896, Note_on_c, 0, 76, 71
2, 34908, Note_on_c, 0, 76, 0
2, 34908, Note_on_c, 0, 78, 72
2, 34920, Note_on_c, 0, 78, 0
2, 34920, Note_on_c, 0, 80, 74
2, 34932, Note_on_c, 0, 80, 0
2, 34932, Note_on_c, 0, 81, 75
2, 34944, Note_on_c, 0, 81, 0
2, 34944, Note_on_c, 0, 83, 93
2, 35088, Note_on_c, 0, 83, 0
2, 35088, Note_on_c, 0, 81, 77
2, 35133, Note_on_c, 0, 81, 0
2, 35136, Note_on_c, 0, 80, 77
2, 35225, Note_on_c, 0, 80, 0
2, 35232, Note_on_c, 0, 78, 77
2, 35321, Note_on_c, 0, 78, 0
2, 35328, Note_on_c, 0, 76, 77
2, 35417, Note_on_c, 0, 76, 0
2, 35424, Note_on_c, 0, 75, 77
2, 35513, Note_on_c, 0, 75, 0
2, 35520, Note_on_c, 0, 73, 77
2, 35587, Note_on_c, 0, 73, 0
2, 35592, Note_on_c, 0, 75, 80
2, 35604, Note_on_c, 0, 75, 0
2, 35604, Note_on_c, 0, 76, 80
2, 35616, Note_on_c, 0, 76, 0
2, 35616, Note_on_c, 0, 78, 81
2, 35661, Note_on_c, 0, 78, 0
2, 35664, Note_on_c, 0, 76, 83
2, 35709, Note_on_c, 0, 76, 0
2, 35712, Control_c, 0, 64, 127
2, 35712, Note_on_c, 0, 75, 85
2, 35712, Note_on_c, 0, 72, 85
2, 35712, Note_on_c, 0, 68, 85
2, 35757, Note_on_c, 0, 75, 0
2, 35757, Note_on_c, 0, 72, 0
2, 35757, Note_on_c, 0, 68, 0
2, 35760, Note_on_c, 0, 80, 85
2, 35805, Note_on_c, 0, 80, 0
2, 35808, Note_on_c, 0, 80, 85
2, 35853, Note_on_c, 0, 80, 0
2, 35856, Note_on_c, 0, 80, 85
2, 35901, Note_on_c, 0, 80, 0
2, 35904, Control_c, 0, 64, 0
2, 35904, Note_on_c, 0, 81, 85
2, 35914, Note_on_c, 0, 81, 0
2, 35914, Note_on_c, 0, 80, 85
2, 35924, Note_on_c, 0, 80, 0
2, 35924, Note_on_c, 0, 81, 85
2, 35934, Note_on_c, 0, 81, 0
2, 35934, Note_on_c, 0, 80, 85
2, 35944, Note_on_c, 0, 80, 0
2, 35944, Note_on_c, 0, 81, 85
2, 35954, Note_on_c, 0, 81, 0
2, 35954, Note_on_c, 0, 80, 85
2, 35964, Note_on_c, 0, 80, 0
2, 35964, Note_on_c, 0, 81, 85
2, 35973, Note_on_c, 0, 81, 0
2, 35973, Note_on_c, 0, 80, 85
2, 35982, Note_on_c, 0, 80, 0
2, 35982, Note_on_c, 0, 81, 85
2, 35991, Note_on_c, 0, 81, 0
2, 35991, Note_on_c, 0, 80, 85
2, 36000, Note_on_c, 0, 80, 0
2, 36000, Note_on_c, 0, 68, 85
2, 36089, Note_on_c, 0, 68, 0
2, 36144, Note_on_c, 0, 80, 85
2, 36189, Note_on_c, 0, 80, 0
2, 36192, Note_on_c, 0, 80, 85
2, 36237, Note_on_c, 0, 80, 0
2, 36240, Note_on_c, 0, 80, 85
2, 36285, Note_on_c, 0, 80, 0
2, 36288, Note_on_c, 0, 81, 85
2, 36298, Note_on_c, 0, 81, 0
2, 36298, Note_on_c, 0, 80, 85
2, 36308, Note_on_c, 0, 80, 0
2, 36308, Note_on_c, 0, 81, 85
2, 36318, Note_on_c, 0, 81, 0
2, 36318, Note_on_c, 0, 80, 85
2, 36328, Note_on_c, 0, 80, 0
2, 36328, Note_on_c, 0, 81, 85
2, 36338, Note_on_c, 0, 81, 0
2, 36338, Note_on_c, 0, 80, 85
2, 36348, Note_on_c, 0, 80, 0
2, 36348, Note_on_c, 0, 81, 85
2, 36357, Note_on_c, 0, 81, 0
2, 36357, Note_on_c, 0, 80, 85
2, 36366, Note_on_c, 0, 80, 0
2, 36366, Note_on_c, 0, 81, 85
2, 36375, Note_on_c, 0, 81, 0
2, 36375, Note_on_c, 0, 80, 85
2, 36384, Note_on_c, 0, 80, 0
2, 36384, Note_on_c, 0, 68, 85
2, 36473, Note_on_c, 0, 68, 0
2, 36528, Note_on_c, 0, 86, 85
2, 36573, Note_on_c, 0, 86, 0
2, 36576, Note_on_c, 0, 86, 85
2, 36621, Note_on_c, 0, 86, 0
2, 36624, Note_on_c, 0, 86, 85
2, 36669, Note_on_c, 0, 86, 0
2, 36672, Note_on_c, 0, 88, 85
2, 36682, Note_on_c, 0, 88, 0
2, 36682, Note_on_c, 0, 86, 85
2, 36692, Note_on_c, 0, 86, 0
2, 36692, Note_on_c, 0, 88, 85
2, 36702, Note_on_c, 0, 88, 0
2, 36702, Note_on_c, 0, 86, 85
2, 36712, Note_on_c, 0, 86, 0
2, 36712, Note_on_c, 0, 88, 85
2, 36722, Note_on_c, 0, 88, 0
2, 36722, Note_on_c, 0, 86, 85
2, 36732, Note_on_c, 0, 86, 0
2, 36732, Note_on_c, 0, 88, 85
2, 36741, Note_on_c, 0, 88, 0
2, 36741, Note_on_c, 0, 86, 85
2, 36750, Note_on_c, 0, 86, 0
2, 36750, Note_on_c, 0, 88, 85
2, 36759, Note_on_c, 0, 88, 0
2, 36759, Note_on_c, 0, 86, 85
2, 36768, Note_on_c, 0, 86, 0
2, 36768, Note_on_c, 0, 77, 85
2, 36857, Note_on_c, 0, 77, 0
2, 36880, Note_on_c, 0, 85, 85
2, 36895, Note_on_c, 0, 85, 0
2, 36896, Note_on_c, 0, 83, 85
2, 36911, Note_on_c, 0, 83, 0
2, 36912, Note_on_c, 0, 81, 85
2, 36927, Note_on_c, 0, 81, 0
2, 36928, Note_on_c, 0, 80, 85
2, 36943, Note_on_c, 0, 80, 0
2, 36944, Note_on_c, 0, 78, 85
2, 36959, Note_on_c, 0, 78, 0
2, 36976, Note_on_c, 0, 85, 85
2, 36991, Note_on_c, 0, 85, 0
2, 36992, Note_on_c, 0, 83, 85
2, 37007, Note_on_c, 0, 83, 0
2, 37008, Note_on_c, 0, 81, 85
2, 37023, Note_on_c, 0, 81, 0
2, 37024, Note_on_c, 0, 80, 85
2, 37039, Note_on_c, 0, 80, 0
2, 37040, Note_on_c, 0, 78, 85
2, 37055, Note_on_c, 0, 78, 0
2, 37072, Note_on_c, 0, 88, 101
2, 37088, Note_on_c, 0, 88, 0
2, 37088, Note_on_c, 0, 87, 86
2, 37103, Note_on_c, 0, 87, 0
2, 37104, Note_on_c, 0, 85, 87
2, 37119, Note_on_c, 0, 85, 0
2, 37120, Note_on_c, 0, 83, 89
2, 37135, Note_on_c, 0, 83, 0
2, 37136, Note_on_c, 0, 81, 90
2, 37151, Note_on_c, 0, 81, 0
2, 37152, Note_on_c, 0, 80, 92
2, 37197, Note_on_c, 0, 80, 0
2, 37200, Note_on_c, 0, 79, 97
2, 37245, Note_on_c, 0, 79, 0
2, 37248, Note_on_c, 0, 79, 106
2, 37337, Note_on_c, 0, 79, 0
2, 37344, Note_on_c, 0, 81, 106
2, 37350, Note_on_c, 0, 81, 0
2, 37350, Note_on_c, 0, 80, 106
2, 37356, Note_on_c, 0, 80, 0
2, 37356, Note_on_c, 0, 79, 106
2, 37362, Note_on_c, 0, 79, 0
2, 37362, Note_on_c, 0, 80, 106
2, 37521, Note_on_c, 0, 80, 0
2, 37648, Note_on_c, 0, 73, 85
2, 37663, Note_on_c, 0, 73, 0
2, 37664, Note_on_c, 0, 71, 85
2, 37679, Note_on_c, 0, 71, 0
2, 37680, Note_on_c, 0, 69, 85
2, 37695, Note_on_c, 0, 69, 0
2, 37696, Note_on_c, 0, 68, 85
2, 37711, Note_on_c, 0, 68, 0
2, 37712, Note_on_c, 0, 66, 85
2, 37727, Note_on_c, 0, 66, 0
2, 37728, Note_on_c, 0, 64, 85
2, 37743, Note_on_c, 0, 64, 0
2, 37744, Note_on_c, 0, 63, 85
2, 37759, Note_on_c, 0, 63, 0
2, 37760, Note_on_c, 0, 61, 85
2, 37775, Note_on_c, 0, 61, 0
2, 37776, Note_on_c, 0, 60, 85
2, 37791, Note_on_c, 0, 60, 0
2, 37792, Note_on_c, 0, 63, 85
2, 37807, Note_on_c, 0, 63, 0
2, 37808, Note_on_c, 0, 68, 85
2, 37823, Note_on_c, 0, 68, 0
2, 37824, Note_on_c, 0, 61, 85
2, 37839, Note_on_c, 0, 61, 0
2, 37840, Note_on_c, 0, 64, 85
2, 37855, Note_on_c, 0, 64, 0
2, 37856, Note_on_c, 0, 68, 85
2, 37871, Note_on_c, 0, 68, 0
2, 37872, Note_on_c, 0, 63, 85
2, 37887, Note_on_c, 0, 63, 0
2, 37888, Note_on_c, 0, 66, 85
2, 37903, Note_on_c, 0, 66, 0
2, 37904, Note_on_c, 0, 68, 85
2, 37919, Note_on_c, 0, 68, 0
2, 37920, Note_on_c, 0, 64, 85
2, 37935, Note_on_c, 0, 64, 0
2, 37936, Note_on_c, 0, 66, 85
2, 37951, Note_on_c, 0, 66, 0
2, 37952, Note_on_c, 0, 68, 85
2, 37967, Note_on_c, 0, 68, 0
2, 37968, Note_on_c, 0, 66, 85
2, 37983, Note_on_c, 0, 66, 0
2, 37984, Note_on_c, 0, 68, 85
2, 37999, Note_on_c, 0, 68, 0
2, 38000, Note_on_c, 0, 69, 85
2, 38015, Note_on_c, 0, 69, 0
2, 38016, Note_on_c, 0, 68, 85
2, 38031, Note_on_c, 0, 68, 0
2, 38032, Note_on_c, 0, 73, 85
2, 38047, Note_on_c, 0, 73, 0
2, 38048, Note_on_c, 0, 71, 85
2, 38063, Note_on_c, 0, 71, 0
2, 38064, Note_on_c, 0, 69, 85
2, 38079, Note_on_c, 0, 69, 0
2, 38080, Note_on_c, 0, 68, 85
2, 38095, Note_on_c, 0, 68, 0
2, 38096, Note_on_c, 0, 66, 85
2, 38111, Note_on_c, 0, 66, 0
2, 38112, Note_on_c, 0, 64, 85
2, 38127, Note_on_c, 0, 64, 0
2, 38128, Note_on_c, 0, 63, 85
2, 38143, Note_on_c, 0, 63, 0
2, 38144, Note_on_c, 0, 61, 85
2, 38159, Note_on_c, 0, 61, 0
2, 38160, Note_on_c, 0, 60, 85
2, 38175, Note_on_c, 0, 60, 0
2, 38176, Note_on_c, 0, 63, 85
2, 38191, Note_on_c, 0, 63, 0
2, 38192, Note_on_c, 0, 68, 85
2, 38207, Note_on_c, 0, 68, 0
2, 38208, Note_on_c, 0, 61, 85
2, 38223, Note_on_c, 0, 61, 0
2, 38224, Note_on_c, 0, 64, 85
2, 38239, Note_on_c, 0, 64, 0
2, 38240, Note_on_c, 0, 68, 85
2, 38255, Note_on_c, 0, 68, 0
2, 38256, Note_on_c, 0, 63, 85
2, 38271, Note_on_c, 0, 63, 0
2, 38272, Note_on_c, 0, 66, 85
2, 38287, Note_on_c, 0, 66, 0
2, 38288, Note_on_c, 0, 68, 85
2, 38303, Note_on_c, 0, 68, 0
2, 38304, Note_on_c, 0, 64, 85
2, 38319, Note_on_c, 0, 64, 0
2, 38320, Note_on_c, 0, 66, 85
2, 38335, Note_on_c, 0, 66, 0
2, 38336, Note_on_c, 0, 68, 85
2, 38351, Note_on_c, 0, 68, 0
2, 38352, Note_on_c, 0, 66, 85
2, 38367, Note_on_c, 0, 66, 0
2, 38368, Note_on_c, 0, 68, 85
2, 38383, Note_on_c, 0, 68, 0
2, 38384, Note_on_c, 0, 69, 85
2, 38399, Note_on_c, 0, 69, 0
2, 38400, Note_on_c, 0, 68, 85
2, 38415, Note_on_c, 0, 68, 0
2, 38416, Note_on_c, 0, 73, 85
2, 38431, Note_on_c, 0, 73, 0
2, 38432, Note_on_c, 0, 71, 85
2, 38447, Note_on_c, 0, 71, 0
2, 38448, Note_on_c, 0, 69, 85
2, 38463, Note_on_c, 0, 69, 0
2, 38464, Note_on_c, 0, 68, 85
2, 38479, Note_on_c, 0, 68, 0
2, 38480, Note_on_c, 0, 66, 85
2, 38495, Note_on_c, 0, 66, 0
2, 38496, Note_on_c, 0, 64, 85
2, 38511, Note_on_c, 0, 64, 0
2, 38512, Note_on_c, 0, 63, 85
2, 38527, Note_on_c, 0, 63, 0
2, 38528, Note_on_c, 0, 61, 85
2, 38543, Note_on_c, 0, 61, 0
2, 38544, Control_c, 0, 64, 127
2, 38544, Note_on_c, 0, 60, 85
2, 38559, Note_on_c, 0, 60, 0
2, 38560, Note_on_c, 0, 63, 85
2, 38575, Note_on_c, 0, 63, 0
2, 38576, Note_on_c, 0, 68, 85
2, 38591, Note_on_c, 0, 68, 0
2, 38592, Control_c, 0, 64, 0
2, 38592, Control_c, 0, 64, 127
2, 38592, Note_on_c, 0, 61, 85
2, 38607, Note_on_c, 0, 61, 0
2, 38608, Note_on_c, 0, 64, 85
2, 38623, Note_on_c, 0, 64, 0
2, 38624, Note_on_c, 0, 68, 85
2, 38639, Note_on_c, 0, 68, 0
2, 38640, Note_on_c, 0, 61, 85
2, 38655, Note_on_c, 0, 61, 0
2, 38656, Note_on_c, 0, 64, 85
2, 38671, Note_on_c, 0, 64, 0
2, 38672, Note_on_c, 0, 68, 85
2, 38687, Note_on_c, 0, 68, 0
2, 38688, Control_c, 0, 64, 0
2, 38688, Control_c, 0, 64, 127
2, 38688, Note_on_c, 0, 59, 85
2, 38703, Note_on_c, 0, 59, 0
2, 38704, Note_on_c, 0, 62, 85
2, 38719, Note_on_c, 0, 62, 0
2, 38720, Note_on_c, 0, 68, 85
2, 38735, Note_on_c, 0, 68, 0
2, 38736, Note_on_c, 0, 59, 85
2, 38751, Note_on_c, 0, 59, 0
2, 38752, Note_on_c, 0, 62, 85
2, 38767, Note_on_c, 0, 62, 0
2, 38768, Note_on_c, 0, 68, 85
2, 38783, Note_on_c, 0, 68, 0
2, 38784, Control_c, 0, 64, 0
2, 38784, Control_c, 0, 64, 127
2, 38784, Note_on_c, 0, 61, 85
2, 38799, Note_on_c, 0, 61, 0
2, 38800, Note_on_c, 0, 64, 85
2, 38815, Note_on_c, 0, 64, 0
2, 38816, Note_on_c, 0, 69, 85
2, 38831, Note_on_c, 0, 69, 0
2, 38832, Note_on_c, 0, 61, 85
2, 38847, Note_on_c, 0, 61, 0
2, 38848, Note_on_c, 0, 64, 85
2, 38863, Note_on_c, 0, 64, 0
2, 38864, Note_on_c, 0, 69, 85
2, 38879, Note_on_c, 0, 69, 0
2, 38880, Control_c, 0, 64, 0
2, 38880, Note_on_c, 0, 64, 85
2, 38895, Note_on_c, 0, 64, 0
2, 38896, Note_on_c, 0, 71, 85
2, 38911, Note_on_c, 0, 71, 0
2, 38912, Note_on_c, 0, 74, 85
2, 38927, Note_on_c, 0, 74, 0
2, 38928, Note_on_c, 0, 64, 85
2, 38943, Note_on_c, 0, 64, 0
2, 38944, Note_on_c, 0, 71, 85
2, 38959, Note_on_c, 0, 71, 0
2, 38960, Note_on_c, 0, 74, 85
2, 38975, Note_on_c, 0, 74, 0
2, 38976, Note_on_c, 0, 64, 85
2, 38991, Note_on_c, 0, 64, 0
2, 38992, Note_on_c, 0, 69, 85
2, 39007, Note_on_c, 0, 69, 0
2, 39008, Note_on_c, 0, 73, 85
2, 39023, Note_on_c, 0, 73, 0
2, 39024, Note_on_c, 0, 64, 85
2, 39039, Note_on_c, 0, 64, 0
2, 39040, Note_on_c, 0, 69, 85
2, 39055, Note_on_c, 0, 69, 0
2, 39056, Note_on_c, 0, 73, 85
2, 39071, Note_on_c, 0, 73, 0
2, 39072, Note_on_c, 0, 61, 85
2, 39087, Note_on_c, 0, 61, 0
2, 39088, Note_on_c, 0, 68, 85
2, 39103, Note_on_c, 0, 68, 0
2, 39104, Note_on_c, 0, 71, 85
2, 39119, Note_on_c, 0, 71, 0
2, 39120, Note_on_c, 0, 61, 85
2, 39135, Note_on_c, 0, 61, 0
2, 39136, Note_on_c, 0, 68, 85
2, 39151, Note_on_c, 0, 68, 0
2, 39152, Note_on_c, 0, 71, 85
2, 39167, Note_on_c, 0, 71, 0
2, 39168, Control_c, 0, 64, 0
2, 39168, Control_c, 0, 64, 127
2, 39168, Note_on_c, 0, 61, 85
2, 39183, Note_on_c, 0, 61, 0
2, 39184, Note_on_c, 0, 66, 101
2, 39200, Note_on_c, 0, 66, 0
2, 39200, Note_on_c, 0, 70, 85
2, 39215, Note_on_c, 0, 70, 0
2, 39216, Note_on_c, 0, 61, 85
2, 39231, Note_on_c, 0, 61, 0
2, 39232, Note_on_c, 0, 67, 101
2, 39248, Note_on_c, 0, 67, 0
2, 39248, Note_on_c, 0, 70, 85
2, 39263, Note_on_c, 0, 70, 0
2, 39264, Note_on_c, 0, 61, 85
2, 39279, Note_on_c, 0, 61, 0
2, 39280, Note_on_c, 0, 66, 101
2, 39296, Note_on_c, 0, 66, 0
2, 39296, Note_on_c, 0, 70, 85
2, 39311, Note_on_c, 0, 70, 0
2, 39312, Note_on_c, 0, 61, 85
2, 39327, Note_on_c, 0, 61, 0
2, 39328, Note_on_c, 0, 64, 101
2, 39344, Note_on_c, 0, 64, 0
2, 39344, Note_on_c, 0, 70, 85
2, 39359, Note_on_c, 0, 70, 0
2, 39360, Control_c, 0, 64, 0
2, 39360, Control_c, 0, 64, 127
2, 39360, Note_on_c, 0, 59, 101
2, 39376, Note_on_c, 0, 59, 0
2, 39376, Note_on_c, 0, 63, 85
2, 39391, Note_on_c, 0, 63, 0
2, 39392, Note_on_c, 0, 69, 85
2, 39407, Note_on_c, 0, 69, 0
2, 39408, Note_on_c, 0, 60, 101
2, 39424, Note_on_c, 0, 60, 0
2, 39424, Note_on_c, 0, 63, 85
2, 39439, Note_on_c, 0, 63, 0
2, 39440, Note_on_c, 0, 69, 85
2, 39455, Note_on_c, 0, 69, 0
2, 39456, Note_on_c, 0, 59, 101
2, 39472, Note_on_c, 0, 59, 0
2, 39472, Note_on_c, 0, 63, 85
2, 39487, Note_on_c, 0, 63, 0
2, 39488, Note_on_c, 0, 69, 85
2, 39503, Note_on_c, 0, 69, 0
2, 39504, Note_on_c, 0, 57, 101
2, 39520, Note_on_c, 0, 57, 0
2, 39520, Note_on_c, 0, 63, 85
2, 39535, Note_on_c, 0, 63, 0
2, 39536, Note_on_c, 0, 69, 85
2, 39551, Note_on_c, 0, 69, 0
2, 39552, Control_c, 0, 64, 0
2, 39552, Control_c, 0, 64, 127
2, 39552, Note_on_c, 0, 59, 85
2, 39567, Note_on_c, 0, 59, 0
2, 39568, Note_on_c, 0, 64, 85
2, 39583, Note_on_c, 0, 64, 0
2, 39584, Note_on_c, 0, 68, 85
2, 39599, Note_on_c, 0, 68, 0
2, 39600, Note_on_c, 0, 59, 85
2, 39615, Note_on_c, 0, 59, 0
2, 39616, Note_on_c, 0, 64, 85
2, 39631, Note_on_c, 0, 64, 0
2, 39632, Note_on_c, 0, 68, 85
2, 39647, Note_on_c, 0, 68, 0
2, 39648, Note_on_c, 0, 59, 85
2, 39663, Note_on_c, 0, 59, 0
2, 39664, Note_on_c, 0, 64, 85
2, 39679, Note_on_c, 0, 64, 0
2, 39680, Note_on_c, 0, 68, 85
2, 39695, Note_on_c, 0, 68, 0
2, 39696, Note_on_c, 0, 59, 85
2, 39711, Note_on_c, 0, 59, 0
2, 39712, Note_on_c, 0, 64, 85
2, 39727, Note_on_c, 0, 64, 0
2, 39728, Note_on_c, 0, 68, 85
2, 39743, Note_on_c, 0, 68, 0
2, 39744, Control_c, 0, 64, 0
2, 39744, Control_c, 0, 64, 127
2, 39744, Note_on_c, 0, 57, 85
2, 39759, Note_on_c, 0, 57, 0
2, 39760, Note_on_c, 0, 64, 85
2, 39775, Note_on_c, 0, 64, 0
2, 39776, Note_on_c, 0, 69, 85
2, 39791, Note_on_c, 0, 69, 0
2, 39792, Note_on_c, 0, 57, 85
2, 39807, Note_on_c, 0, 57, 0
2, 39808, Note_on_c, 0, 64, 85
2, 39823, Note_on_c, 0, 64, 0
2, 39824, Note_on_c, 0, 69, 85
2, 39839, Note_on_c, 0, 69, 0
2, 39840, Note_on_c, 0, 61, 85
2, 39855, Note_on_c, 0, 61, 0
2, 39856, Note_on_c, 0, 64, 85
2, 39871, Note_on_c, 0, 64, 0
2, 39872, Control_c, 0, 64, 0
2, 39872, Control_c, 0, 64, 127
2, 39872, Note_on_c, 0, 70, 85
2, 39887, Note_on_c, 0, 70, 0
2, 39888, Note_on_c, 0, 61, 85
2, 39903, Note_on_c, 0, 61, 0
2, 39904, Note_on_c, 0, 64, 85
2, 39919, Note_on_c, 0, 64, 0
2, 39920, Note_on_c, 0, 70, 85
2, 39935, Note_on_c, 0, 70, 0
2, 39936, Control_c, 0, 64, 0
2, 39936, Control_c, 0, 64, 127
2, 39936, Note_on_c, 0, 59, 85
2, 39951, Note_on_c, 0, 59, 0
2, 39952, Note_on_c, 0, 63, 85
2, 39967, Note_on_c, 0, 63, 0
2, 39968, Note_on_c, 0, 66, 85
2, 39983, Note_on_c, 0, 66, 0
2, 39984, Note_on_c, 0, 71, 85
2, 39999, Note_on_c, 0, 71, 0
2, 40000, Note_on_c, 0, 66, 85
2, 40015, Note_on_c, 0, 66, 0
2, 40016, Note_on_c, 0, 63, 85
2, 40031, Note_on_c, 0, 63, 0
2, 40032, Note_on_c, 0, 59, 85
2, 40047, Note_on_c, 0, 59, 0
2, 40048, Note_on_c, 0, 63, 85
2, 40063, Note_on_c, 0, 63, 0
2, 40064, Control_c, 0, 64, 0
2, 40064, Note_on_c, 0, 66, 85
2, 40079, Note_on_c, 0, 66, 0
2, 40080, Control_c, 0, 64, 127
2, 40080, Note_on_c, 0, 61, 85
2, 40095, Note_on_c, 0, 61, 0
2, 40096, Note_on_c, 0, 64, 85
2, 40111, Note_on_c, 0, 64, 0
2, 40112, Control_c, 0, 64, 0
2, 40112, Note_on_c, 0, 70, 85
2, 40127, Note_on_c, 0, 70, 0
2, 40128, Control_c, 0, 64, 127
2, 40128, Note_on_c, 0, 59, 85
2, 40143, Note_on_c, 0, 59, 0
2, 40144, Note_on_c, 0, 63, 85
2, 40159, Note_on_c, 0, 63, 0
2, 40160, Note_on_c, 0, 66, 85
2, 40175, Note_on_c, 0, 66, 0
2, 40176, Note_on_c, 0, 71, 85
2, 40191, Note_on_c, 0, 71, 0
2, 40192, Note_on_c, 0, 66, 85
2, 40207, Note_on_c, 0, 66, 0
2, 40208, Note_on_c, 0, 63, 85
2, 40223, Note_on_c, 0, 63, 0
2, 40224, Note_on_c, 0, 59, 85
2, 40239, Note_on_c, 0, 59, 0
2, 40240, Note_on_c, 0, 63, 85
2, 40255, Note_on_c, 0, 63, 0
2, 40256, Control_c, 0, 64, 0
2, 40256, Note_on_c, 0, 66, 85
2, 40271, Note_on_c, 0, 66, 0
2, 40272, Control_c, 0, 64, 127
2, 40272, Note_on_c, 0, 61, 85
2, 40287, Note_on_c, 0, 61, 0
2, 40288, Note_on_c, 0, 64, 85
2, 40303, Note_on_c, 0, 64, 0
2, 40304, Control_c, 0, 64, 0
2, 40304, Note_on_c, 0, 70, 85
2, 40319, Note_on_c, 0, 70, 0
2, 40320, Control_c, 0, 64, 127
2, 40320, Note_on_c, 0, 59, 85
2, 40335, Note_on_c, 0, 59, 0
2, 40336, Note_on_c, 0, 63, 85
2, 40351, Note_on_c, 0, 63, 0
2, 40352, Note_on_c, 0, 66, 85
2, 40367, Note_on_c, 0, 66, 0
2, 40368, Note_on_c, 0, 71, 85
2, 40383, Note_on_c, 0, 71, 0
2, 40384, Note_on_c, 0, 66, 85
2, 40399, Note_on_c, 0, 66, 0
2, 40400, Note_on_c, 0, 63, 85
2, 40415, Note_on_c, 0, 63, 0
2, 40608, Control_c, 0, 64, 0
2, 40624, Note_on_c, 0, 75, 85
2, 40639, Note_on_c, 0, 75, 0
2, 40640, Note_on_c, 0, 76, 83
2, 40655, Note_on_c, 0, 76, 0
2, 40656, Note_on_c, 0, 78, 82
2, 40671, Note_on_c, 0, 78, 0
2, 40672, Note_on_c, 0, 80, 81
2, 40687, Note_on_c, 0, 80, 0
2, 40688, Note_on_c, 0, 81, 80
2, 40703, Note_on_c, 0, 81, 0
2, 40704, Note_on_c, 0, 83, 93
2, 40848, Note_on_c, 0, 83, 0
2, 40848, Note_on_c, 0, 81, 77
2, 40893, Note_on_c, 0, 81, 0
2, 40896, Note_on_c, 0, 80, 77
2, 40985, Note_on_c, 0, 80, 0
2, 40992, Note_on_c, 0, 78, 77
2, 41081, Note_on_c, 0, 78, 0
2, 41088, Note_on_c, 0, 76, 77
2, 41155, Note_on_c, 0, 76, 0
2, 41160, Note_on_c, 0, 78, 83
2, 41172, Note_on_c, 0, 78, 0
2, 41172, Note_on_c, 0, 80, 84
2, 41184, Note_on_c, 0, 80, 0
2, 41184, Note_on_c, 0, 81, 85
2, 41229, Note_on_c, 0, 81, 0
2, 41232, Note_on_c, 0, 80, 85
2, 41277, Note_on_c, 0, 80, 0
2, 41280, Note_on_c, 0, 80, 85
2, 41288, Note_on_c, 0, 80, 0
2, 41288, Note_on_c, 0, 78, 84
2, 41296, Note_on_c, 0, 78, 0
2, 41296, Note_on_c, 0, 80, 84
2, 41304, Note_on_c, 0, 80, 0
2, 41304, Note_on_c, 0, 78, 83
2, 41312, Note_on_c, 0, 78, 0
2, 41312, Note_on_c, 0, 80, 83
2, 41320, Note_on_c, 0, 80, 0
2, 41320, Note_on_c, 0, 78, 82
2, 41328, Note_on_c, 0, 78, 0
2, 41328, Note_on_c, 0, 76, 82
2, 41373, Note_on_c, 0, 76, 0
2, 41472, Note_on_c, 0, 71, 93
2, 41616, Note_on_c, 0, 71, 0
2, 41616, Note_on_c, 0, 70, 77
2, 41661, Note_on_c, 0, 70, 0
2, 41664, Note_on_c, 0, 69, 77
2, 41709, Note_on_c, 0, 69, 0
2, 41712, Note_on_c, 0, 68, 77
2, 41757, Note_on_c, 0, 68, 0
2, 41760, Note_on_c, 0, 67, 77
2, 41805, Note_on_c, 0, 67, 0
2, 41808, Note_on_c, 0, 66, 77
2, 41853, Note_on_c, 0, 66, 0
2, 41856, Note_on_c, 0, 64, 77
2, 41923, Note_on_c, 0, 64, 0
2, 41928, Note_on_c, 0, 66, 80
2, 41940, Note_on_c, 0, 66, 0
2, 41940, Note_on_c, 0, 68, 80
2, 41952, Note_on_c, 0, 68, 0
2, 41952, Note_on_c, 0, 69, 81
2, 41997, Note_on_c, 0, 69, 0
2, 42000, Note_on_c, 0, 68, 83
2, 42045, Note_on_c, 0, 68, 0
2, 42048, Note_on_c, 0, 73, 85
2, 42048, Note_on_c, 0, 69, 85
2, 42048, Note_on_c, 0, 64, 85
2, 42068, Note_on_c, 0, 73, 0
2, 42068, Note_on_c, 0, 69, 0
2, 42068, Note_on_c, 0, 64, 0
2, 42096, Note_on_c, 0, 71, 85
2, 42096, Note_on_c, 0, 68, 85
2, 42096, Note_on_c, 0, 64, 85
2, 42116, Note_on_c, 0, 71, 0
2, 42116, Note_on_c, 0, 68, 0
2, 42116, Note_on_c, 0, 64, 0
2, 42240, Note_on_c, 0, 64, 77
2, 42252, Note_on_c, 0, 64, 0
2, 42252, Note_on_c, 0, 76, 77
2, 42351, Note_on_c, 0, 76, 0
2, 42352, Note_on_c, 0, 75, 77
2, 42367, Note_on_c, 0, 75, 0
2, 42368, Note_on_c, 0, 73, 77
2, 42383, Note_on_c, 0, 73, 0
2, 42384, Note_on_c, 0, 71, 77
2, 42399, Note_on_c, 0, 71, 0
2, 42400, Note_on_c, 0, 69, 77
2, 42415, Note_on_c, 0, 69, 0
2, 42416, Note_on_c, 0, 68, 77
2, 42431, Note_on_c, 0, 68, 0
2, 42432, Note_on_c, 0, 66, 77
2, 42452, Note_on_c, 0, 66, 0
2, 42544, Note_on_c, 0, 85, 77
2, 42559, Note_on_c, 0, 85, 0
2, 42560, Note_on_c, 0, 83, 77
2, 42575, Note_on_c, 0, 83, 0
2, 42576, Note_on_c, 0, 81, 77
2, 42591, Note_on_c, 0, 81, 0
2, 42592, Note_on_c, 0, 80, 77
2, 42607, Note_on_c, 0, 80, 0
2, 42608, Note_on_c, 0, 78, 77
2, 42623, Note_on_c, 0, 78, 0
2, 42624, Note_on_c, 0, 76, 77
2, 42639, Note_on_c, 0, 76, 0
2, 42640, Note_on_c, 0, 75, 77
2, 42655, Note_on_c, 0, 75, 0
2, 42656, Note_on_c, 0, 73, 77
2, 42671, Note_on_c, 0, 73, 0
2, 42672, Note_on_c, 0, 71, 77
2, 42687, Note_on_c, 0, 71, 0
2, 42688, Note_on_c, 0, 69, 77
2, 42703, Note_on_c, 0, 69, 0
2, 42704, Note_on_c, 0, 68, 77
2, 42719, Note_on_c, 0, 68, 0
2, 42720, Note_on_c, 0, 66, 77
2, 42735, Note_on_c, 0, 66, 0
2, 42736, Note_on_c, 0, 64, 78
2, 42751, Note_on_c, 0, 64, 0
2, 42752, Note_on_c, 0, 63, 79
2, 42767, Note_on_c, 0, 63, 0
2, 42768, Note_on_c, 0, 61, 80
2, 42783, Note_on_c, 0, 61, 0
2, 42784, Note_on_c, 0, 59, 81
2, 42799, Note_on_c, 0, 59, 0
2, 42800, Note_on_c, 0, 57, 82
2, 42815, Note_on_c, 0, 57, 0
2, 42816, Note_on_c, 0, 59, 85
2, 42861, Note_on_c, 0, 59, 0
2, 42864, Note_on_c, 0, 59, 85
2, 42872, Note_on_c, 0, 59, 0
2, 42872, Note_on_c, 0, 57, 84
2, 42880, Note_on_c, 0, 57, 0
2, 42880, Note_on_c, 0, 59, 84
2, 42888, Note_on_c, 0, 59, 0
2, 42888, Note_on_c, 0, 57, 83
2, 42896, Note_on_c, 0, 57, 0
2, 42896, Note_on_c, 0, 59, 83
2, 42904, Note_on_c, 0, 59, 0
2, 42904, Note_on_c, 0, 57, 82
2, 42912, Note_on_c, 0, 57, 0
2, 42912, Note_on_c, 0, 56, 82
2, 42957, Note_on_c, 0, 56, 0
2, 43008, Note_on_c, 0, 64, 77
2, 43020, Note_on_c, 0, 64, 0
2, 43020, Note_on_c, 0, 76, 77
2, 43119, Note_on_c, 0, 76, 0
2, 43120, Note_on_c, 0, 75, 77
2, 43135, Note_on_c, 0, 75, 0
2, 43136, Note_on_c, 0, 73, 77
2, 43151, Note_on_c, 0, 73, 0
2, 43152, Note_on_c, 0, 71, 77
2, 43167, Note_on_c, 0, 71, 0
2, 43168, Note_on_c, 0, 69, 77
2, 43183, Note_on_c, 0, 69, 0
2, 43184, Note_on_c, 0, 68, 77
2, 43199, Note_on_c, 0, 68, 0
2, 43200, Note_on_c, 0, 66, 77
2, 43245, Note_on_c, 0, 66, 0
2, 43312, Note_on_c, 0, 88, 77
2, 43327, Note_on_c, 0, 88, 0
2, 43328, Note_on_c, 0, 87, 77
2, 43343, Note_on_c, 0, 87, 0
2, 43344, Note_on_c, 0, 85, 77
2, 43359, Note_on_c, 0, 85, 0
2, 43360, Note_on_c, 0, 83, 77
2, 43375, Note_on_c, 0, 83, 0
2, 43376, Note_on_c, 0, 81, 77
2, 43391, Note_on_c, 0, 81, 0
2, 43392, Note_on_c, 0, 80, 77
2, 43407, Note_on_c, 0, 80, 0
2, 43408, Note_on_c, 0, 78, 77
2, 43423, Note_on_c, 0, 78, 0
2, 43424, Note_on_c, 0, 76, 77
2, 43439, Note_on_c, 0, 76, 0
2, 43440, Note_on_c, 0, 75, 77
2, 43455, Note_on_c, 0, 75, 0
2, 43456, Note_on_c, 0, 73, 77
2, 43471, Note_on_c, 0, 73, 0
2, 43472, Note_on_c, 0, 71, 77
2, 43487, Note_on_c, 0, 71, 0
2, 43488, Note_on_c, 0, 69, 77
2, 43503, Note_on_c, 0, 69, 0
2, 43504, Note_on_c, 0, 68, 78
2, 43519, Note_on_c, 0, 68, 0
2, 43520, Note_on_c, 0, 66, 79
2, 43535, Note_on_c, 0, 66, 0
2, 43536, Note_on_c, 0, 64, 80
2, 43551, Note_on_c, 0, 64, 0
2, 43552, Note_on_c, 0, 63, 81
2, 43567, Note_on_c, 0, 63, 0
2, 43568, Note_on_c, 0, 69, 82
2, 43583, Note_on_c, 0, 69, 0
2, 43584, Note_on_c, 0, 68, 85
2, 43599, Note_on_c, 0, 68, 0
2, 43600, Note_on_c, 0, 66, 85
2, 43615, Note_on_c, 0, 66, 0
2, 43616, Note_on_c, 0, 64, 85
2, 43631, Note_on_c, 0, 64, 0
2, 43632, Note_on_c, 0, 64, 85
2, 43652, Note_on_c, 0, 64, 0
2, 43776, Note_on_c, 0, 73, 68
2, 43895, Note_on_c, 0, 73, 0
2, 43896, Note_on_c, 0, 86, 68
2, 43902, Note_on_c, 0, 86, 0
2, 43902, Note_on_c, 0, 85, 68
2, 43908, Note_on_c, 0, 85, 0
2, 43908, Note_on_c, 0, 83, 68
2, 43914, Note_on_c, 0, 83, 0
2, 43914, Note_on_c, 0, 85, 68
2, 43920, Note_on_c, 0, 85, 0
2, 43920, Note_on_c, 0, 86, 68
2, 43954, Note_on_c, 0, 86, 0
2, 43956, Note_on_c, 0, 83, 68
2, 43968, Note_on_c, 0, 83, 0
2, 43968, Note_on_c, 0, 83, 84
2, 44064, Note_on_c, 0, 83, 0
2, 44064, Note_on_c, 0, 81, 68
2, 44070, Note_on_c, 0, 81, 0
2, 44070, Note_on_c, 0, 83, 68
2, 44076, Note_on_c, 0, 83, 0
2, 44076, Note_on_c, 0, 81, 68
2, 44110, Note_on_c, 0, 81, 0
2, 44112, Note_on_c, 0, 85, 68
2, 44146, Note_on_c, 0, 85, 0
2, 44148, Note_on_c, 0, 78, 68
2, 44160, Note_on_c, 0, 78, 0
2, 44160, Note_on_c, 0, 80, 84
2, 44304, Note_on_c, 0, 80, 0
2, 44304, Note_on_c, 0, 81, 68
2, 44338, Note_on_c, 0, 81, 0
2, 44340, Note_on_c, 0, 83, 68
2, 44352, Note_on_c, 0, 83, 0
2, 44352, Note_on_c, 0, 81, 68
2, 44364, Note_on_c, 0, 81, 0
2, 44364, Note_on_c, 0, 80, 68
2, 44376, Note_on_c, 0, 80, 0
2, 44376, Note_on_c, 0, 78, 68
2, 44399, Note_on_c, 0, 78, 0
2, 44416, Note_on_c, 0, 66, 85
2, 44431, Note_on_c, 0, 66, 0
2, 44432, Note_on_c, 0, 68, 85
2, 44447, Note_on_c, 0, 68, 0
2, 44448, Note_on_c, 0, 69, 85
2, 44463, Note_on_c, 0, 69, 0
2, 44464, Note_on_c, 0, 68, 85
2, 44479, Note_on_c, 0, 68, 0
2, 44480, Note_on_c, 0, 66, 85
2, 44495, Note_on_c, 0, 66, 0
2, 44496, Note_on_c, 0, 64, 85
2, 44511, Note_on_c, 0, 64, 0
2, 44512, Note_on_c, 0, 63, 85
2, 44527, Note_on_c, 0, 63, 0
2, 44528, Note_on_c, 0, 61, 85
2, 44543, Note_on_c, 0, 61, 0
2, 44544, Note_on_c, 0, 59, 85
2, 44589, Note_on_c, 0, 59, 0
2, 44592, Note_on_c, 0, 83, 77
2, 44663, Note_on_c, 0, 83, 0
2, 44664, Note_on_c, 0, 85, 77
2, 44670, Note_on_c, 0, 85, 0
2, 44670, Note_on_c, 0, 83, 77
2, 44676, Note_on_c, 0, 83, 0
2, 44676, Note_on_c, 0, 81, 77
2, 44682, Note_on_c, 0, 81, 0
2, 44682, Note_on_c, 0, 83, 77
2, 44688, Note_on_c, 0, 83, 0
2, 44688, Note_on_c, 0, 85, 77
2, 44722, Note_on_c, 0, 85, 0
2, 44724, Note_on_c, 0, 81, 77
2, 44736, Note_on_c, 0, 81, 0
2, 44736, Note_on_c, 0, 81, 93
2, 44832, Note_on_c, 0, 81, 0
2, 44832, Note_on_c, 0, 80, 77
2, 44877, Note_on_c, 0, 80, 0
2, 44880, Note_on_c, 0, 81, 77
2, 44914, Note_on_c, 0, 81, 0
2, 44916, Note_on_c, 0, 78, 77
2, 44928, Note_on_c, 0, 78, 0
2, 44928, Note_on_c, 0, 76, 77
2, 44943, Note_on_c, 0, 76, 0
2, 44944, Note_on_c, 0, 80, 78
2, 44959, Note_on_c, 0, 80, 0
2, 44960, Note_on_c, 0, 78, 79
2, 44975, Note_on_c, 0, 78, 0
2, 44976, Note_on_c, 0, 76, 80
2, 44991, Note_on_c, 0, 76, 0
2, 44992, Note_on_c, 0, 80, 81
2, 45007, Note_on_c, 0, 80, 0
2, 45008, Note_on_c, 0, 83, 82
2, 45023, Note_on_c, 0, 83, 0
2, 45024, Note_on_c, 0, 88, 83
2, 45039, Note_on_c, 0, 88, 0
2, 45040, Note_on_c, 0, 87, 84
2, 45055, Note_on_c, 0, 87, 0
2, 45056, Note_on_c, 0, 85, 85
2, 45071, Note_on_c, 0, 85, 0
2, 45072, Note_on_c, 0, 83, 84
2, 45087, Note_on_c, 0, 83, 0
2, 45088, Note_on_c, 0, 81, 83
2, 45103, Note_on_c, 0, 81, 0
2, 45104, Note_on_c, 0, 80, 82
2, 45119, Note_on_c, 0, 80, 0
2, 45120, Note_on_c, 0, 81, 77
2, 45128, Note_on_c, 0, 81, 0
2, 45128, Note_on_c, 0, 80, 77
2, 45136, Note_on_c, 0, 80, 0
2, 45136, Note_on_c, 0, 81, 77
2, 45144, Note_on_c, 0, 81, 0
2, 45144, Note_on_c, 0, 80, 77
2, 45152, Note_on_c, 0, 80, 0
2, 45152, Note_on_c, 0, 81, 77
2, 45160, Note_on_c, 0, 81, 0
2, 45160, Note_on_c, 0, 80, 77
2, 45168, Note_on_c, 0, 80, 0
2, 45168, Note_on_c, 0, 78, 77
2, 45213, Note_on_c, 0, 78, 0
2, 45328, Note_on_c, 0, 76, 85
2, 45343, Note_on_c, 0, 76, 0
2, 45344, Note_on_c, 0, 75, 85
2, 45359, Note_on_c, 0, 75, 0
2, 45360, Note_on_c, 0, 73, 85
2, 45375, Note_on_c, 0, 73, 0
2, 45376, Note_on_c, 0, 71, 85
2, 45391, Note_on_c, 0, 71, 0
2, 45392, Note_on_c, 0, 69, 85
2, 45407, Note_on_c, 0, 69, 0
2, 45408, Note_on_c, 0, 68, 85
2, 45423, Note_on_c, 0, 68, 0
2, 45424, Note_on_c, 0, 66, 85
2, 45439, Note_on_c, 0, 66, 0
2, 45440, Note_on_c, 0, 64, 85
2, 45455, Note_on_c, 0, 64, 0
2, 45456, Note_on_c, 0, 63, 85
2, 45471, Note_on_c, 0, 63, 0
2, 45472, Note_on_c, 0, 66, 85
2, 45487, Note_on_c, 0, 66, 0
2, 45488, Note_on_c, 0, 71, 85
2, 45503, Note_on_c, 0, 71, 0
2, 45504, Note_on_c, 0, 64, 85
2, 45519, Note_on_c, 0, 64, 0
2, 45520, Note_on_c, 0, 68, 85
2, 45535, Note_on_c, 0, 68, 0
2, 45536, Note_on_c, 0, 71, 85
2, 45551, Note_on_c, 0, 71, 0
2, 45552, Note_on_c, 0, 66, 85
2, 45567, Note_on_c, 0, 66, 0
2, 45568, Note_on_c, 0, 69, 85
2, 45583, Note_on_c, 0, 69, 0
2, 45584, Note_on_c, 0, 71, 85
2, 45599, Note_on_c, 0, 71, 0
2, 45600, Note_on_c, 0, 68, 85
2, 45615, Note_on_c, 0, 68, 0
2, 45616, Note_on_c, 0, 69, 85
2, 45631, Note_on_c, 0, 69, 0
2, 45632, Note_on_c, 0, 71, 85
2, 45647, Note_on_c, 0, 71, 0
2, 45648, Note_on_c, 0, 69, 85
2, 45663, Note_on_c, 0, 69, 0
2, 45664, Note_on_c, 0, 71, 85
2, 45679, Note_on_c, 0, 71, 0
2, 45680, Note_on_c, 0, 73, 85
2, 45695, Note_on_c, 0, 73, 0
2, 45696, Note_on_c, 0, 71, 85
2, 45711, Note_on_c, 0, 71, 0
2, 45712, Note_on_c, 0, 76, 85
2, 45727, Note_on_c, 0, 76, 0
2, 45728, Note_on_c, 0, 75, 85
2, 45743, Note_on_c, 0, 75, 0
2, 45744, Note_on_c, 0, 73, 85
2, 45759, Note_on_c, 0, 73, 0
2, 45760, Note_on_c, 0, 71, 85
2, 45775, Note_on_c, 0, 71, 0
2, 45776, Note_on_c, 0, 69, 85
2, 45791, Note_on_c, 0, 69, 0
2, 45792, Note_on_c, 0, 68, 85
2, 45807, Note_on_c, 0, 68, 0
2, 45808, Note_on_c, 0, 66, 85
2, 45823, Note_on_c, 0, 66, 0
2, 45824, Note_on_c, 0, 64, 85
2, 45839, Note_on_c, 0, 64, 0
2, 45840, Note_on_c, 0, 63, 85
2, 45855, Note_on_c, 0, 63, 0
2, 45856, Note_on_c, 0, 66, 85
2, 45871, Note_on_c, 0, 66, 0
2, 45872, Note_on_c, 0, 71, 85
2, 45887, Note_on_c, 0, 71, 0
2, 45888, Note_on_c, 0, 64, 85
2, 45903, Note_on_c, 0, 64, 0
2, 45904, Note_on_c, 0, 68, 85
2, 45919, Note_on_c, 0, 68, 0
2, 45920, Note_on_c, 0, 71, 85
2, 45935, Note_on_c, 0, 71, 0
2, 45936, Note_on_c, 0, 66, 85
2, 45951, Note_on_c, 0, 66, 0
2, 45952, Note_on_c, 0, 69, 85
2, 45967, Note_on_c, 0, 69, 0
2, 45968, Note_on_c, 0, 71, 85
2, 45983, Note_on_c, 0, 71, 0
2, 45984, Note_on_c, 0, 68, 85
2, 45999, Note_on_c, 0, 68, 0
2, 46000, Note_on_c, 0, 69, 85
2, 46015, Note_on_c, 0, 69, 0
2, 46016, Note_on_c, 0, 71, 85
2, 46031, Note_on_c, 0, 71, 0
2, 46032, Note_on_c, 0, 69, 85
2, 46047, Note_on_c, 0, 69, 0
2, 46048, Note_on_c, 0, 71, 85
2, 46063, Note_on_c, 0, 71, 0
2, 46064, Note_on_c, 0, 73, 85
2, 46079, Note_on_c, 0, 73, 0
2, 46080, Note_on_c, 0, 71, 85
2, 46095, Note_on_c, 0, 71, 0
2, 46096, Note_on_c, 0, 76, 85
2, 46111, Note_on_c, 0, 76, 0
2, 46112, Note_on_c, 0, 75, 85
2, 46127, Note_on_c, 0, 75, 0
2, 46128, Note_on_c, 0, 73, 85
2, 46143, Note_on_c, 0, 73, 0
2, 46144, Note_on_c, 0, 71, 85
2, 46159, Note_on_c, 0, 71, 0
2, 46160, Note_on_c, 0, 69, 85
2, 46175, Note_on_c, 0, 69, 0
2, 46176, Note_on_c, 0, 68, 85
2, 46191, Note_on_c, 0, 68, 0
2, 46192, Note_on_c, 0, 66, 84
2, 46207, Note_on_c, 0, 66, 0
2, 46208, Note_on_c, 0, 64, 83
2, 46223, Note_on_c, 0, 64, 0
2, 46224, Note_on_c, 0, 74, 82
2, 46239, Note_on_c, 0, 74, 0
2, 46240, Note_on_c, 0, 73, 81
2, 46255, Note_on_c, 0, 73, 0
2, 46256, Note_on_c, 0, 71, 80
2, 46271, Note_on_c, 0, 71, 0
2, 46272, Note_on_c, 0, 72, 93
2, 46368, Note_on_c, 0, 72, 0
2, 46368, Note_on_c, 0, 73, 77
2, 46388, Note_on_c, 0, 73, 0
2, 46416, Note_on_c, 0, 81, 77
2, 46431, Note_on_c, 0, 81, 0
2, 46432, Note_on_c, 0, 80, 77
2, 46447, Note_on_c, 0, 80, 0
2, 46448, Note_on_c, 0, 78, 77
2, 46463, Note_on_c, 0, 78, 0
2, 46464, Note_on_c, 0, 77, 93
2, 46560, Note_on_c, 0, 77, 0
2, 46560, Note_on_c, 0, 78, 77
2, 46580, Note_on_c, 0, 78, 0
2, 46608, Note_on_c, 0, 85, 77
2, 46623, Note_on_c, 0, 85, 0
2, 46624, Note_on_c, 0, 81, 77
2, 46639, Note_on_c, 0, 81, 0
2, 46640, Note_on_c, 0, 78, 77
2, 46655, Note_on_c, 0, 78, 0
2, 46656, Note_on_c, 0, 76, 93
2, 46752, Note_on_c, 0, 76, 0
2, 46752, Note_on_c, 0, 75, 77
2, 46797, Note_on_c, 0, 75, 0
2, 46848, Note_on_c, 0, 76, 85
2, 46851, Note_on_c, 0, 80, 85
2, 46854, Note_on_c, 0, 83, 85
2, 46857, Note_on_c, 0, 88, 85
2, 46941, Note_on_c, 0, 88, 0
2, 46941, Note_on_c, 0, 83, 0
2, 46941, Note_on_c, 0, 80, 0
2, 46941, Note_on_c, 0, 76, 0
2, 46992, Note_on_c, 0, 71, 85
2, 47007, Note_on_c, 0, 71, 0
2, 47008, Note_on_c, 0, 73, 85
2, 47023, Note_on_c, 0, 73, 0
2, 47024, Note_on_c, 0, 75, 85
2, 47039, Note_on_c, 0, 75, 0
2, 47040, Note_on_c, 0, 76, 85
2, 47055, Note_on_c, 0, 76, 0
2, 47056, Note_on_c, 0, 80, 85
2, 47071, Note_on_c, 0, 80, 0
2, 47072, Note_on_c, 0, 83, 85
2, 47087, Note_on_c, 0, 83, 0
2, 47088, Note_on_c, 0, 88, 85
2, 47103, Note_on_c, 0, 88, 0
2, 47104, Note_on_c, 0, 87, 85
2, 47119, Note_on_c, 0, 87, 0
2, 47120, Note_on_c, 0, 85, 85
2, 47135, Note_on_c, 0, 85, 0
2, 47136, Note_on_c, 0, 83, 85
2, 47151, Note_on_c, 0, 83, 0
2, 47152, Note_on_c, 0, 81, 85
2, 47167, Note_on_c, 0, 81, 0
2, 47168, Note_on_c, 0, 80, 85
2, 47183, Note_on_c, 0, 80, 0
2, 47184, Note_on_c, 0, 78, 85
2, 47199, Note_on_c, 0, 78, 0
2, 47200, Note_on_c, 0, 80, 85
2, 47215, Note_on_c, 0, 80, 0
2, 47216, Note_on_c, 0, 81, 85
2, 47231, Note_on_c, 0, 81, 0
2, 47232, Note_on_c, 0, 80, 85
2, 47321, Note_on_c, 0, 80, 0
2, 47376, Note_on_c, 0, 71, 85
2, 47391, Note_on_c, 0, 71, 0
2, 47392, Note_on_c, 0, 73, 85
2, 47407, Note_on_c, 0, 73, 0
2, 47408, Note_on_c, 0, 75, 85
2, 47423, Note_on_c, 0, 75, 0
2, 47424, Note_on_c, 0, 76, 85
2, 47439, Note_on_c, 0, 76, 0
2, 47440, Note_on_c, 0, 80, 85
2, 47455, Note_on_c, 0, 80, 0
2, 47456, Note_on_c, 0, 83, 85
2, 47471, Note_on_c, 0, 83, 0
2, 47472, Note_on_c, 0, 88, 85
2, 47487, Note_on_c, 0, 88, 0
2, 47488, Note_on_c, 0, 87, 85
2, 47503, Note_on_c, 0, 87, 0
2, 47504, Note_on_c, 0, 85, 85
2, 47519, Note_on_c, 0, 85, 0
2, 47520, Note_on_c, 0, 83, 85
2, 47540, Note_on_c, 0, 83, 0
2, 47568, Note_on_c, 0, 88, 77
2, 47583, Note_on_c, 0, 88, 0
2, 47584, Note_on_c, 0, 87, 77
2, 47599, Note_on_c, 0, 87, 0
2, 47600, Note_on_c, 0, 85, 77
2, 47615, Note_on_c, 0, 85, 0
2, 47616, Note_on_c, 0, 83, 77
2, 47631, Note_on_c, 0, 83, 0
2, 47632, Note_on_c, 0, 85, 77
2, 47647, Note_on_c, 0, 85, 0
2, 47648, Note_on_c, 0, 87, 77
2, 47663, Note_on_c, 0, 87, 0
2, 47664, Note_on_c, 0, 88, 77
2, 47679, Note_on_c, 0, 88, 0
2, 47680, Note_on_c, 0, 87, 77
2, 47695, Note_on_c, 0, 87, 0
2, 47696, Note_on_c, 0, 85, 77
2, 47711, Note_on_c, 0, 85, 0
2, 47712, Note_on_c, 0, 83, 77
2, 47727, Note_on_c, 0, 83, 0
2, 47728, Note_on_c, 0, 85, 77
2, 47743, Note_on_c, 0, 85, 0
2, 47744, Note_on_c, 0, 87, 78
2, 47759, Note_on_c, 0, 87, 0
2, 47760, Note_on_c, 0, 88, 78
2, 47775, Note_on_c, 0, 88, 0
2, 47776, Note_on_c, 0, 87, 79
2, 47791, Note_on_c, 0, 87, 0
2, 47792, Note_on_c, 0, 85, 79
2, 47807, Note_on_c, 0, 85, 0
2, 47808, Note_on_c, 0, 83, 80
2, 47823, Note_on_c, 0, 83, 0
2, 47824, Note_on_c, 0, 85, 80
2, 47839, Note_on_c, 0, 85, 0
2, 47840, Note_on_c, 0, 86, 81
2, 47855, Note_on_c, 0, 86, 0
2, 47856, Note_on_c, 0, 85, 81
2, 47871, Note_on_c, 0, 85, 0
2, 47872, Note_on_c, 0, 86, 82
2, 47887, Note_on_c, 0, 86, 0
2, 47888, Note_on_c, 0, 88, 82
2, 47903, Note_on_c, 0, 88, 0
2, 47904, Note_on_c, 0, 86, 85
2, 48000, Note_on_c, 0, 86, 0
2, 48000, Note_on_c, 0, 85, 85
2, 48015, Note_on_c, 0, 85, 0
2, 48016, Note_on_c, 0, 87, 85
2, 48031, Note_on_c, 0, 87, 0
2, 48032, Note_on_c, 0, 88, 85
2, 48047, Note_on_c, 0, 88, 0
2, 48048, Note_on_c, 0, 87, 85
2, 48063, Note_on_c, 0, 87, 0
2, 48064, Note_on_c, 0, 85, 85
2, 48079, Note_on_c, 0, 85, 0
2, 48080, Note_on_c, 0, 83, 85
2, 48095, Note_on_c, 0, 83, 0
2, 48096, Note_on_c, 0, 81, 85
2, 48111, Note_on_c, 0, 81, 0
2, 48112, Note_on_c, 0, 80, 85
2, 48127, Note_on_c, 0, 80, 0
2, 48128, Note_on_c, 0, 78, 85
2, 48143, Note_on_c, 0, 78, 0
2, 48144, Note_on_c, 0, 76, 85
2, 48159, Note_on_c, 0, 76, 0
2, 48160, Note_on_c, 0, 75, 85
2, 48175, Note_on_c, 0, 75, 0
2, 48176, Note_on_c, 0, 73, 85
2, 48191, Note_on_c, 0, 73, 0
2, 48192, Note_on_c, 0, 71, 85
2, 48281, Note_on_c, 0, 71, 0
2, 48288, Note_on_c, 0, 80, 81
2, 48296, Note_on_c, 0, 80, 0
2, 48296, Note_on_c, 0, 78, 80
2, 48304, Note_on_c, 0, 78, 0
2, 48304, Note_on_c, 0, 80, 80
2, 48312, Note_on_c, 0, 80, 0
2, 48312, Note_on_c, 0, 78, 80
2, 48320, Note_on_c, 0, 78, 0
2, 48320, Note_on_c, 0, 80, 80
2, 48328, Note_on_c, 0, 80, 0
2, 48328, Note_on_c, 0, 78, 79
2, 48336, Note_on_c, 0, 78, 0
2, 48336, Note_on_c, 0, 80, 79
2, 48344, Note_on_c, 0, 80, 0
2, 48344, Note_on_c, 0, 78, 79
2, 48352, Note_on_c, 0, 78, 0
2, 48352, Note_on_c, 0, 80, 79
2, 48360, Note_on_c, 0, 80, 0
2, 48360, Note_on_c, 0, 78, 78
2, 48368, Note_on_c, 0, 78, 0
2, 48368, Note_on_c, 0, 76, 78
2, 48376, Note_on_c, 0, 76, 0
2, 48376, Note_on_c, 0, 78, 78
2, 48384, Note_on_c, 0, 78, 0
2, 48384, Note_on_c, 0, 76, 77
2, 48473, Note_on_c, 0, 76, 0
2, 48528, Note_on_c, 0, 71, 77
2, 48543, Note_on_c, 0, 71, 0
2, 48544, Note_on_c, 0, 73, 77
2, 48559, Note_on_c, 0, 73, 0
2, 48560, Note_on_c, 0, 71, 77
2, 48575, Note_on_c, 0, 71, 0
2, 48576, Note_on_c, 0, 74, 77
2, 48591, Note_on_c, 0, 74, 0
2, 48592, Note_on_c, 0, 73, 77
2, 48607, Note_on_c, 0, 73, 0
2, 48608, Note_on_c, 0, 71, 77
2, 48623, Note_on_c, 0, 71, 0
2, 48624, Note_on_c, 0, 69, 77
2, 48639, Note_on_c, 0, 69, 0
2, 48640, Note_on_c, 0, 71, 77
2, 48655, Note_on_c, 0, 71, 0
2, 48656, Note_on_c, 0, 69, 77
2, 48671, Note_on_c, 0, 69, 0
2, 48672, Note_on_c, 0, 73, 77
2, 48687, Note_on_c, 0, 73, 0
2, 48688, Note_on_c, 0, 71, 77
2, 48703, Note_on_c, 0, 71, 0
2, 48704, Note_on_c, 0, 69, 77
2, 48719, Note_on_c, 0, 69, 0
2, 48720, Note_on_c, 0, 68, 77
2, 48735, Note_on_c, 0, 68, 0
2, 48736, Note_on_c, 0, 71, 77
2, 48751, Note_on_c, 0, 71, 0
2, 48752, Note_on_c, 0, 76, 77
2, 48767, Note_on_c, 0, 76, 0
2, 48768, Note_on_c, 0, 73, 77
2, 48783, Note_on_c, 0, 73, 0
2, 48784, Note_on_c, 0, 71, 77
2, 48799, Note_on_c, 0, 71, 0
2, 48800, Note_on_c, 0, 69, 77
2, 48815, Note_on_c, 0, 69, 0
2, 48816, Note_on_c, 0, 68, 77
2, 48831, Note_on_c, 0, 68, 0
2, 48832, Note_on_c, 0, 69, 77
2, 48847, Note_on_c, 0, 69, 0
2, 48848, Note_on_c, 0, 66, 77
2, 48863, Note_on_c, 0, 66, 0
2, 48864, Note_on_c, 0, 64, 77
2, 48909, Note_on_c, 0, 64, 0
2, 48912, Note_on_c, 0, 68, 77
2, 48924, Note_on_c, 0, 68, 0
2, 48924, Note_on_c, 0, 66, 77
2, 48936, Note_on_c, 0, 66, 0
2, 48936, Note_on_c, 0, 64, 77
2, 48948, Note_on_c, 0, 64, 0
2, 48948, Note_on_c, 0, 66, 77
2, 48960, Note_on_c, 0, 66, 0
2, 48960, Note_on_c, 0, 64, 77
2, 49049, Note_on_c, 0, 64, 0
2, 49104, Note_on_c, 0, 62, 77
2, 49149, Note_on_c, 0, 62, 0
2, 49152, Note_on_c, 0, 61, 77
2, 49248, Note_on_c, 0, 61, 0
2, 49248, Note_on_c, 0, 59, 77
2, 49337, Note_on_c, 0, 59, 0
2, 49344, Control_c, 0, 64, 127
2, 49344, Note_on_c, 0, 57, 93
2, 49352, Note_on_c, 0, 61, 93
2, 49360, Note_on_c, 0, 66, 93
2, 49392, Note_on_c, 0, 66, 0
2, 49392, Note_on_c, 0, 61, 0
2, 49392, Note_on_c, 0, 57, 0
2, 49392, Note_on_c, 0, 73, 77
2, 49407, Note_on_c, 0, 73, 0
2, 49408, Note_on_c, 0, 69, 77
2, 49423, Note_on_c, 0, 69, 0
2, 49424, Control_c, 0, 64, 0
2, 49424, Note_on_c, 0, 66, 77
2, 49439, Note_on_c, 0, 66, 0
2, 49440, Note_on_c, 0, 64, 77
2, 49485, Note_on_c, 0, 64, 0
2, 49488, Note_on_c, 0, 64, 77
2, 49496, Note_on_c, 0, 64, 0
2, 49496, Note_on_c, 0, 63, 77
2, 49504, Note_on_c, 0, 63, 0
2, 49504, Note_on_c, 0, 64, 77
2, 49512, Note_on_c, 0, 64, 0
2, 49512, Note_on_c, 0, 63, 77
2, 49520, Note_on_c, 0, 63, 0
2, 49520, Note_on_c, 0, 64, 77
2, 49528, Note_on_c, 0, 64, 0
2, 49528, Note_on_c, 0, 63, 77
2, 49536, Note_on_c, 0, 63, 0
2, 49536, Note_on_c, 0, 64, 77
2, 49551, Note_on_c, 0, 64, 0
2, 49552, Note_on_c, 0, 68, 77
2, 49567, Note_on_c, 0, 68, 0
2, 49568, Note_on_c, 0, 71, 77
2, 49583, Note_on_c, 0, 71, 0
2, 49584, Note_on_c, 0, 76, 77
2, 49599, Note_on_c, 0, 76, 0
2, 49600, Note_on_c, 0, 71, 77
2, 49615, Note_on_c, 0, 71, 0
2, 49616, Note_on_c, 0, 68, 77
2, 49631, Note_on_c, 0, 68, 0
2, 49920, End_track
3, 0, Start_track
3, 0, Program_c, 0, 0
3, 0, Control_c, 0, 7, 127
3, 0, Control_c, 0, 10, 64
3, 0, Note_on_c, 0, 80, 77
3, 133, Note_on_c, 0, 80, 0
3, 144, Note_on_c, 0, 78, 77
3, 189, Note_on_c, 0, 78, 0
3, 192, Note_on_c, 0, 76, 77
3, 325, Note_on_c, 0, 76, 0
3, 336, Note_on_c, 0, 75, 77
3, 381, Note_on_c, 0, 75, 0
3, 768, Note_on_c, 0, 68, 77
3, 901, Note_on_c, 0, 68, 0
3, 912, Note_on_c, 0, 66, 77
3, 957, Note_on_c, 0, 66, 0
3, 960, Note_on_c, 0, 64, 77
3, 1093, Note_on_c, 0, 64, 0
3, 1104, Note_on_c, 0, 63, 77
3, 1149, Note_on_c, 0, 63, 0
3, 8400, Note_on_c, 0, 66, 77
3, 8445, Note_on_c, 0, 66, 0
3, 8448, Note_on_c, 0, 66, 77
3, 8493, Note_on_c, 0, 66, 0
3, 8496, Note_on_c, 0, 64, 77
3, 8589, Note_on_c, 0, 64, 0
3, 8592, Note_on_c, 0, 63, 77
3, 8637, Note_on_c, 0, 63, 0
3, 9216, Note_on_c, 0, 80, 77
3, 9349, Note_on_c, 0, 80, 0
3, 9360, Note_on_c, 0, 78, 77
3, 9405, Note_on_c, 0, 78, 0
3, 9408, Note_on_c, 0, 76, 77
3, 9541, Note_on_c, 0, 76, 0
3, 9552, Note_on_c, 0, 75, 77
3, 9597, Note_on_c, 0, 75, 0
3, 9984, Note_on_c, 0, 68, 77
3, 10117, Note_on_c, 0, 68, 0
3, 10128, Note_on_c, 0, 66, 77
3, 10173, Note_on_c, 0, 66, 0
3, 10176, Note_on_c, 0, 64, 77
3, 10309, Note_on_c, 0, 64, 0
3, 10320, Note_on_c, 0, 63, 77
3, 10365, Note_on_c, 0, 63, 0
3, 17616, Note_on_c, 0, 66, 77
3, 17661, Note_on_c, 0, 66, 0
3, 17664, Note_on_c, 0, 66, 77
3, 17709, Note_on_c, 0, 66, 0
3, 17712, Note_on_c, 0, 64, 77
3, 17805, Note_on_c, 0, 64, 0
3, 17808, Note_on_c, 0, 63, 77
3, 17853, Note_on_c, 0, 63, 0
3, 18432, Note_on_c, 0, 75, 77
3, 18565, Note_on_c, 0, 75, 0
3, 18576, Note_on_c, 0, 73, 77
3, 18621, Note_on_c, 0, 73, 0
3, 18624, Note_on_c, 0, 71, 77
3, 18757, Note_on_c, 0, 71, 0
3, 18768, Note_on_c, 0, 70, 77
3, 18813, Note_on_c, 0, 70, 0
3, 19200, Note_on_c, 0, 80, 77
3, 19333, Note_on_c, 0, 80, 0
3, 19344, Note_on_c, 0, 78, 77
3, 19389, Note_on_c, 0, 78, 0
3, 19392, Note_on_c, 0, 76, 77
3, 19525, Note_on_c, 0, 76, 0
3, 19536, Note_on_c, 0, 75, 77
3, 19629, Note_on_c, 0, 75, 0
3, 19632, Note_on_c, 0, 73, 77
3, 19725, Note_on_c, 0, 73, 0
3, 19728, Note_on_c, 0, 72, 77
3, 19773, Note_on_c, 0, 72, 0
3, 24960, Note_on_c, 0, 80, 77
3, 25093, Note_on_c, 0, 80, 0
3, 25104, Note_on_c, 0, 78, 77
3, 25149, Note_on_c, 0, 78, 0
3, 25152, Note_on_c, 0, 76, 77
3, 25285, Note_on_c, 0, 76, 0
3, 25296, Note_on_c, 0, 75, 77
3, 25341, Note_on_c, 0, 75, 0
3, 25728, Note_on_c, 0, 68, 77
3, 25861, Note_on_c, 0, 68, 0
3, 25872, Note_on_c, 0, 67, 77
3, 25917, Note_on_c, 0, 67, 0
3, 25920, Note_on_c, 0, 66, 77
3, 25965, Note_on_c, 0, 66, 0
3, 25968, Note_on_c, 0, 65, 77
3, 26013, Note_on_c, 0, 65, 0
3, 26016, Note_on_c, 0, 64, 77
3, 26061, Note_on_c, 0, 64, 0
3, 26064, Note_on_c, 0, 63, 77
3, 26109, Note_on_c, 0, 63, 0
3, 33360, Note_on_c, 0, 59, 77
3, 33405, Note_on_c, 0, 59, 0
3, 33408, Note_on_c, 0, 59, 77
3, 33453, Note_on_c, 0, 59, 0
3, 33456, Note_on_c, 0, 57, 77
3, 33549, Note_on_c, 0, 57, 0
3, 33552, Note_on_c, 0, 56, 77
3, 33597, Note_on_c, 0, 56, 0
3, 34176, Note_on_c, 0, 75, 77
3, 34309, Note_on_c, 0, 75, 0
3, 34320, Note_on_c, 0, 73, 77
3, 34365, Note_on_c, 0, 73, 0
3, 34368, Note_on_c, 0, 71, 77
3, 34501, Note_on_c, 0, 71, 0
3, 34512, Note_on_c, 0, 70, 77
3, 34557, Note_on_c, 0, 70, 0
3, 34944, Note_on_c, 0, 80, 77
3, 35077, Note_on_c, 0, 80, 0
3, 35088, Note_on_c, 0, 78, 77
3, 35133, Note_on_c, 0, 78, 0
3, 35136, Note_on_c, 0, 76, 77
3, 35269, Note_on_c, 0, 76, 0
3, 35280, Note_on_c, 0, 75, 77
3, 35373, Note_on_c, 0, 75, 0
3, 35376, Note_on_c, 0, 73, 77
3, 35469, Note_on_c, 0, 73, 0
3, 35472, Note_on_c, 0, 72, 77
3, 35517, Note_on_c, 0, 72, 0
3, 40704, Note_on_c, 0, 80, 77
3, 40837, Note_on_c, 0, 80, 0
3, 40848, Note_on_c, 0, 78, 77
3, 40893, Note_on_c, 0, 78, 0
3, 40896, Note_on_c, 0, 76, 77
3, 41029, Note_on_c, 0, 76, 0
3, 41040, Note_on_c, 0, 75, 77
3, 41085, Note_on_c, 0, 75, 0
3, 41472, Note_on_c, 0, 68, 77
3, 41605, Note_on_c, 0, 68, 0
3, 41616, Note_on_c, 0, 67, 77
3, 41661, Note_on_c, 0, 67, 0
3, 41664, Note_on_c, 0, 66, 77
3, 41709, Note_on_c, 0, 66, 0
3, 41712, Note_on_c, 0, 65, 77
3, 41757, Note_on_c, 0, 65, 0
3, 41760, Note_on_c, 0, 64, 77
3, 41805, Note_on_c, 0, 64, 0
3, 41808, Note_on_c, 0, 63, 77
3, 41853, Note_on_c, 0, 63, 0
3, 49104, Note_on_c, 0, 59, 77
3, 49149, Note_on_c, 0, 59, 0
3, 49152, Note_on_c, 0, 59, 77
3, 49197, Note_on_c, 0, 59, 0
3, 49200, Note_on_c, 0, 57, 77
3, 49293, Note_on_c, 0, 57, 0
3, 49296, Note_on_c, 0, 56, 77
3, 49341, Note_on_c, 0, 56, 0
3, 49920, End_track
4, 0, Start_track
4, 0, Program_c, 1, 0
4, 0, Control_c, 1, 7, 127
4, 0, Control_c, 1, 10, 64
4, 48, Note_on_c, 1, 64, 77
4, 93, Note_on_c, 1, 64, 0
4, 96, Note_on_c, 1, 71, 77
4, 229, Note_on_c, 1, 71, 0
4, 240, Note_on_c, 1, 73, 77
4, 285, Note_on_c, 1, 73, 0
4, 288, Note_on_c, 1, 70, 77
4, 333, Note_on_c, 1, 70, 0
4, 336, Note_on_c, 1, 71, 77
4, 561, Note_on_c, 1, 71, 0
4, 576, Note_on_c, 1, 73, 77
4, 621, Note_on_c, 1, 73, 0
4, 624, Note_on_c, 1, 71, 77
4, 669, Note_on_c, 1, 71, 0
4, 816, Note_on_c, 1, 52, 77
4, 861, Note_on_c, 1, 52, 0
4, 864, Note_on_c, 1, 59, 77
4, 997, Note_on_c, 1, 59, 0
4, 1008, Note_on_c, 1, 61, 77
4, 1053, Note_on_c, 1, 61, 0
4, 1056, Note_on_c, 1, 58, 77
4, 1101, Note_on_c, 1, 58, 0
4, 1104, Note_on_c, 1, 59, 77
4, 1329, Note_on_c, 1, 59, 0
4, 1344, Note_on_c, 1, 45, 77
4, 1364, Note_on_c, 1, 45, 0
4, 1392, Note_on_c, 1, 52, 77
4, 1412, Note_on_c, 1, 52, 0
4, 1584, Note_on_c, 1, 44, 68
4, 1584, Note_on_c, 1, 32, 68
4, 1629, Note_on_c, 1, 44, 0
4, 1629, Note_on_c, 1, 32, 0
4, 1632, Note_on_c, 1, 44, 68
4, 1632, Note_on_c, 1, 32, 68
4, 1677, Note_on_c, 1, 44, 0
4, 1677, Note_on_c, 1, 32, 0
4, 1776, Note_on_c, 1, 45, 68
4, 1776, Note_on_c, 1, 33, 68
4, 1821, Note_on_c, 1, 45, 0
4, 1821, Note_on_c, 1, 33, 0
4, 1824, Note_on_c, 1, 45, 68
4, 1824, Note_on_c, 1, 33, 68
4, 1869, Note_on_c, 1, 45, 0
4, 1869, Note_on_c, 1, 33, 0
4, 1968, Note_on_c, 1, 47, 68
4, 1968, Note_on_c, 1, 35, 68
4, 2013, Note_on_c, 1, 47, 0
4, 2013, Note_on_c, 1, 35, 0
4, 2016, Note_on_c, 1, 47, 68
4, 2016, Note_on_c, 1, 35, 68
4, 2061, Note_on_c, 1, 47, 0
4, 2061, Note_on_c, 1, 35, 0
4, 2064, Note_on_c, 1, 47, 68
4, 2064, Note_on_c, 1, 35, 68
4, 2109, Note_on_c, 1, 47, 0
4, 2109, Note_on_c, 1, 35, 0
4, 2160, Note_on_c, 1, 52, 68
4, 2160, Note_on_c, 1, 40, 68
4, 2205, Note_on_c, 1, 52, 0
4, 2205, Note_on_c, 1, 40, 0
4, 2208, Note_on_c, 1, 52, 68
4, 2208, Note_on_c, 1, 40, 68
4, 2253, Note_on_c, 1, 52, 0
4, 2253, Note_on_c, 1, 40, 0
4, 2256, Note_on_c, 1, 52, 68
4, 2256, Note_on_c, 1, 40, 68
4, 2301, Note_on_c, 1, 52, 0
4, 2301, Note_on_c, 1, 40, 0
4, 2352, Note_on_c, 1, 44, 68
4, 2352, Note_on_c, 1, 32, 68
4, 2397, Note_on_c, 1, 44, 0
4, 2397, Note_on_c, 1, 32, 0
4, 2400, Note_on_c, 1, 44, 68
4, 2400, Note_on_c, 1, 32, 68
4, 2445, Note_on_c, 1, 44, 0
4, 2445, Note_on_c, 1, 32, 0
4, 2544, Note_on_c, 1, 45, 68
4, 2544, Note_on_c, 1, 33, 68
4, 2589, Note_on_c, 1, 45, 0
4, 2589, Note_on_c, 1, 33, 0
4, 2592, Note_on_c, 1, 45, 68
4, 2592, Note_on_c, 1, 33, 68
4, 2637, Note_on_c, 1, 45, 0
4, 2637, Note_on_c, 1, 33, 0
4, 2736, Note_on_c, 1, 47, 68
4, 2736, Note_on_c, 1, 35, 68
4, 2781, Note_on_c, 1, 47, 0
4, 2781, Note_on_c, 1, 35, 0
4, 2784, Note_on_c, 1, 47, 68
4, 2784, Note_on_c, 1, 35, 68
4, 2829, Note_on_c, 1, 47, 0
4, 2829, Note_on_c, 1, 35, 0
4, 2832, Note_on_c, 1, 47, 68
4, 2832, Note_on_c, 1, 35, 68
4, 2877, Note_on_c, 1, 47, 0
4, 2877, Note_on_c, 1, 35, 0
4, 2928, Note_on_c, 1, 52, 77
4, 2943, Note_on_c, 1, 52, 0
4, 2944, Note_on_c, 1, 47, 77
4, 2959, Note_on_c, 1, 47, 0
4, 2960, Note_on_c, 1, 44, 77
4, 2975, Note_on_c, 1, 44, 0
4, 2976, Note_on_c, 1, 40, 77
4, 3021, Note_on_c, 1, 40, 0
4, 3120, Note_on_c, 1, 64, 60
4, 3120, Note_on_c, 1, 61, 60
4, 3168, Note_on_c, 1, 64, 0
4, 3168, Note_on_c, 1, 61, 0
4, 3168, Note_on_c, 1, 63, 60
4, 3168, Note_on_c, 1, 60, 60
4, 3213, Note_on_c, 1, 63, 0
4, 3213, Note_on_c, 1, 60, 0
4, 3216, Note_on_c, 1, 75, 60
4, 3216, Note_on_c, 1, 72, 60
4, 3261, Note_on_c, 1, 75, 0
4, 3261, Note_on_c, 1, 72, 0
4, 3312, Note_on_c, 1, 68, 60
4, 3312, Note_on_c, 1, 61, 60
4, 3357, Note_on_c, 1, 68, 0
4, 3357, Note_on_c, 1, 61, 0
4, 3360, Note_on_c, 1, 68, 60
4, 3360, Note_on_c, 1, 61, 60
4, 3405, Note_on_c, 1, 68, 0
4, 3405, Note_on_c, 1, 61, 0
4, 3408, Note_on_c, 1, 64, 60
4, 3453, Note_on_c, 1, 64, 0
4, 3456, Note_on_c, 1, 66, 60
4, 3501, Note_on_c, 1, 66, 0
4, 3504, Note_on_c, 1, 66, 60
4, 3549, Note_on_c, 1, 66, 0
4, 3552, Note_on_c, 1, 68, 60
4, 3597, Note_on_c, 1, 68, 0
4, 3600, Note_on_c, 1, 68, 60
4, 3645, Note_on_c, 1, 68, 0
4, 3648, Note_on_c, 1, 61, 60
4, 3693, Note_on_c, 1, 61, 0
4, 3712, Note_on_c, 1, 49, 85
4, 3727, Note_on_c, 1, 49, 0
4, 3728, Note_on_c, 1, 51, 85
4, 3743, Note_on_c, 1, 51, 0
4, 3744, Note_on_c, 1, 52, 85
4, 3759, Note_on_c, 1, 52, 0
4, 3760, Note_on_c, 1, 51, 85
4, 3775, Note_on_c, 1, 51, 0
4, 3776, Note_on_c, 1, 49, 85
4, 3791, Note_on_c, 1, 49, 0
4, 3792, Note_on_c, 1, 47, 85
4, 3807, Note_on_c, 1, 47, 0
4, 3808, Note_on_c, 1, 46, 85
4, 3823, Note_on_c, 1, 46, 0
4, 3824, Note_on_c, 1, 44, 85
4, 3839, Note_on_c, 1, 44, 0
4, 3840, Note_on_c, 1, 42, 85
4, 3885, Note_on_c, 1, 42, 0
4, 3936, Note_on_c, 1, 61, 68
4, 3936, Note_on_c, 1, 58, 68
4, 3981, Note_on_c, 1, 61, 0
4, 3981, Note_on_c, 1, 58, 0
4, 4080, Note_on_c, 1, 66, 68
4, 4125, Note_on_c, 1, 66, 0
4, 4128, Note_on_c, 1, 66, 68
4, 4173, Note_on_c, 1, 66, 0
4, 4176, Note_on_c, 1, 64, 68
4, 4221, Note_on_c, 1, 64, 0
4, 4224, Note_on_c, 1, 66, 68
4, 4313, Note_on_c, 1, 66, 0
4, 4368, Note_on_c, 1, 71, 68
4, 4413, Note_on_c, 1, 71, 0
4, 4416, Note_on_c, 1, 71, 68
4, 4461, Note_on_c, 1, 71, 0
4, 4464, Note_on_c, 1, 70, 68
4, 4509, Note_on_c, 1, 70, 0
4, 4608, Note_on_c, 1, 47, 72
4, 4697, Note_on_c, 1, 47, 0
4, 4752, Note_on_c, 1, 52, 77
4, 4772, Note_on_c, 1, 52, 0
4, 4800, Note_on_c, 1, 51, 77
4, 4820, Note_on_c, 1, 51, 0
4, 4848, Note_on_c, 1, 46, 77
4, 4868, Note_on_c, 1, 46, 0
4, 4896, Note_on_c, 1, 47, 77
4, 4916, Note_on_c, 1, 47, 0
4, 4944, Note_on_c, 1, 49, 77
4, 4964, Note_on_c, 1, 49, 0
4, 4992, Note_on_c, 1, 51, 77
4, 5081, Note_on_c, 1, 51, 0
4, 5136, Note_on_c, 1, 52, 77
4, 5156, Note_on_c, 1, 52, 0
4, 5184, Note_on_c, 1, 51, 77
4, 5204, Note_on_c, 1, 51, 0
4, 5232, Note_on_c, 1, 46, 77
4, 5252, Note_on_c, 1, 46, 0
4, 5280, Note_on_c, 1, 47, 77
4, 5300, Note_on_c, 1, 47, 0
4, 5328, Note_on_c, 1, 49, 77
4, 5348, Note_on_c, 1, 49, 0
4, 5376, Note_on_c, 1, 51, 77
4, 5465, Note_on_c, 1, 51, 0
4, 5616, Note_on_c, 1, 59, 68
4, 5661, Note_on_c, 1, 59, 0
4, 5664, Note_on_c, 1, 59, 68
4, 5709, Note_on_c, 1, 59, 0
4, 5808, Note_on_c, 1, 66, 68
4, 5856, Note_on_c, 1, 66, 0
4, 5856, Note_on_c, 1, 68, 68
4, 5901, Note_on_c, 1, 68, 0
4, 6000, Note_on_c, 1, 65, 68
4, 6048, Note_on_c, 1, 65, 0
4, 6048, Note_on_c, 1, 66, 68
4, 6093, Note_on_c, 1, 66, 0
4, 6144, Note_on_c, 1, 47, 85
4, 6159, Note_on_c, 1, 47, 0
4, 6160, Note_on_c, 1, 51, 85
4, 6175, Note_on_c, 1, 51, 0
4, 6176, Note_on_c, 1, 52, 85
4, 6191, Note_on_c, 1, 52, 0
4, 6192, Note_on_c, 1, 54, 85
4, 6207, Note_on_c, 1, 54, 0
4, 6208, Note_on_c, 1, 56, 85
4, 6223, Note_on_c, 1, 56, 0
4, 6224, Note_on_c, 1, 58, 85
4, 6239, Note_on_c, 1, 58, 0
4, 6240, Note_on_c, 1, 59, 85
4, 6255, Note_on_c, 1, 59, 0
4, 6256, Note_on_c, 1, 61, 85
4, 6271, Note_on_c, 1, 61, 0
4, 6272, Note_on_c, 1, 63, 85
4, 6287, Note_on_c, 1, 63, 0
4, 6288, Note_on_c, 1, 64, 85
4, 6336, Note_on_c, 1, 64, 0
4, 6336, Note_on_c, 1, 63, 85
4, 6425, Note_on_c, 1, 63, 0
4, 6480, Note_on_c, 1, 58, 85
4, 6480, Note_on_c, 1, 54, 85
4, 6525, Note_on_c, 1, 58, 0
4, 6525, Note_on_c, 1, 54, 0
4, 6528, Note_on_c, 1, 47, 85
4, 6543, Note_on_c, 1, 47, 0
4, 6544, Note_on_c, 1, 51, 85
4, 6559, Note_on_c, 1, 51, 0
4, 6560, Note_on_c, 1, 52, 85
4, 6575, Note_on_c, 1, 52, 0
4, 6576, Note_on_c, 1, 54, 85
4, 6591, Note_on_c, 1, 54, 0
4, 6592, Note_on_c, 1, 56, 85
4, 6607, Note_on_c, 1, 56, 0
4, 6608, Note_on_c, 1, 58, 85
4, 6623, Note_on_c, 1, 58, 0
4, 6624, Note_on_c, 1, 59, 85
4, 6639, Note_on_c, 1, 59, 0
4, 6640, Note_on_c, 1, 61, 85
4, 6655, Note_on_c, 1, 61, 0
4, 6656, Note_on_c, 1, 63, 85
4, 6671, Note_on_c, 1, 63, 0
4, 6672, Note_on_c, 1, 64, 85
4, 6720, Note_on_c, 1, 64, 0
4, 6720, Note_on_c, 1, 63, 85
4, 6809, Note_on_c, 1, 63, 0
4, 6864, Note_on_c, 1, 68, 77
4, 6879, Note_on_c, 1, 68, 0
4, 6880, Note_on_c, 1, 66, 77
4, 6895, Note_on_c, 1, 66, 0
4, 6896, Note_on_c, 1, 64, 77
4, 6911, Note_on_c, 1, 64, 0
4, 6912, Note_on_c, 1, 63, 77
4, 6927, Note_on_c, 1, 63, 0
4, 6928, Note_on_c, 1, 64, 77
4, 6943, Note_on_c, 1, 64, 0
4, 6944, Note_on_c, 1, 66, 77
4, 6959, Note_on_c, 1, 66, 0
4, 6960, Note_on_c, 1, 68, 77
4, 6975, Note_on_c, 1, 68, 0
4, 6976, Note_on_c, 1, 66, 77
4, 6991, Note_on_c, 1, 66, 0
4, 6992, Note_on_c, 1, 64, 77
4, 7007, Note_on_c, 1, 64, 0
4, 7008, Note_on_c, 1, 63, 77
4, 7023, Note_on_c, 1, 63, 0
4, 7024, Note_on_c, 1, 64, 77
4, 7039, Note_on_c, 1, 64, 0
4, 7040, Note_on_c, 1, 66, 77
4, 7055, Note_on_c, 1, 66, 0
4, 7056, Note_on_c, 1, 68, 77
4, 7071, Note_on_c, 1, 68, 0
4, 7072, Note_on_c, 1, 66, 77
4, 7087, Note_on_c, 1, 66, 0
4, 7088, Note_on_c, 1, 64, 77
4, 7103, Note_on_c, 1, 64, 0
4, 7104, Note_on_c, 1, 63, 77
4, 7149, Note_on_c, 1, 63, 0
4, 7152, Note_on_c, 1, 64, 77
4, 7197, Note_on_c, 1, 64, 0
4, 7200, Note_on_c, 1, 66, 77
4, 7245, Note_on_c, 1, 66, 0
4, 7248, Note_on_c, 1, 59, 77
4, 7293, Note_on_c, 1, 59, 0
4, 7296, Note_on_c, 1, 64, 77
4, 7385, Note_on_c, 1, 64, 0
4, 7536, Note_on_c, 1, 51, 77
4, 7581, Note_on_c, 1, 51, 0
4, 7584, Note_on_c, 1, 52, 77
4, 7629, Note_on_c, 1, 52, 0
4, 7632, Note_on_c, 1, 54, 77
4, 7677, Note_on_c, 1, 54, 0
4, 7680, Note_on_c, 1, 47, 77
4, 7695, Note_on_c, 1, 47, 0
4, 7696, Note_on_c, 1, 51, 77
4, 7711, Note_on_c, 1, 51, 0
4, 7712, Note_on_c, 1, 54, 77
4, 7727, Note_on_c, 1, 54, 0
4, 7728, Note_on_c, 1, 59, 77
4, 7743, Note_on_c, 1, 59, 0
4, 7744, Note_on_c, 1, 54, 77
4, 7759, Note_on_c, 1, 54, 0
4, 7760, Note_on_c, 1, 51, 77
4, 7775, Note_on_c, 1, 51, 0
4, 7776, Note_on_c, 1, 47, 77
4, 7821, Note_on_c, 1, 47, 0
4, 7824, Note_on_c, 1, 75, 68
4, 7869, Note_on_c, 1, 75, 0
4, 7872, Note_on_c, 1, 72, 68
4, 7920, Note_on_c, 1, 72, 0
4, 7920, Note_on_c, 1, 73, 68
4, 7965, Note_on_c, 1, 73, 0
4, 7968, Note_on_c, 1, 70, 68
4, 8016, Note_on_c, 1, 70, 0
4, 8016, Note_on_c, 1, 71, 68
4, 8061, Note_on_c, 1, 71, 0
4, 8064, Note_on_c, 1, 64, 68
4, 8109, Note_on_c, 1, 64, 0
4, 8112, Note_on_c, 1, 65, 71
4, 8157, Note_on_c, 1, 65, 0
4, 8160, Note_on_c, 1, 66, 74
4, 8205, Note_on_c, 1, 66, 0
4, 8208, Note_on_c, 1, 54, 77
4, 8253, Note_on_c, 1, 54, 0
4, 8256, Note_on_c, 1, 59, 77
4, 8271, Note_on_c, 1, 59, 0
4, 8272, Note_on_c, 1, 54, 77
4, 8287, Note_on_c, 1, 54, 0
4, 8288, Note_on_c, 1, 51, 77
4, 8303, Note_on_c, 1, 51, 0
4, 8304, Note_on_c, 1, 47, 77
4, 8319, Note_on_c, 1, 47, 0
4, 8320, Note_on_c, 1, 51, 77
4, 8335, Note_on_c, 1, 51, 0
4, 8336, Note_on_c, 1, 54, 77
4, 8351, Note_on_c, 1, 54, 0
4, 8352, Note_on_c, 1, 59, 77
4, 8372, Note_on_c, 1, 59, 0
4, 8400, Note_on_c, 1, 63, 68
4, 8445, Note_on_c, 1, 63, 0
4, 8448, Note_on_c, 1, 60, 68
4, 8496, Note_on_c, 1, 60, 0
4, 8496, Note_on_c, 1, 61, 68
4, 8541, Note_on_c, 1, 61, 0
4, 8544, Note_on_c, 1, 58, 68
4, 8592, Note_on_c, 1, 58, 0
4, 8592, Note_on_c, 1, 59, 68
4, 8637, Note_on_c, 1, 59, 0
4, 8640, Control_c, 1, 64, 127
4, 8640, Note_on_c, 1, 52, 68
4, 8648, Note_on_c, 1, 56, 68
4, 8656, Note_on_c, 1, 61, 68
4, 8733, Note_on_c, 1, 61, 0
4, 8733, Note_on_c, 1, 56, 0
4, 8733, Note_on_c, 1, 52, 0
4, 8736, Control_c, 1, 64, 0
4, 8736, Note_on_c, 1, 51, 68
4, 8781, Note_on_c, 1, 51, 0
4, 8784, Note_on_c, 1, 49, 68
4, 8829, Note_on_c, 1, 49, 0
4, 8832, Note_on_c, 1, 47, 68
4, 8921, Note_on_c, 1, 47, 0
4, 8928, Note_on_c, 1, 59, 68
4, 8943, Note_on_c, 1, 59, 0
4, 8944, Note_on_c, 1, 54, 68
4, 8959, Note_on_c, 1, 54, 0
4, 8960, Note_on_c, 1, 51, 68
4, 8975, Note_on_c, 1, 51, 0
4, 8976, Note_on_c, 1, 47, 68
4, 8991, Note_on_c, 1, 47, 0
4, 8992, Note_on_c, 1, 42, 68
4, 9007, Note_on_c, 1, 42, 0
4, 9008, Note_on_c, 1, 39, 68
4, 9023, Note_on_c, 1, 39, 0
4, 9024, Note_on_c, 1, 35, 68
4, 9091, Note_on_c, 1, 35, 0
4, 9264, Note_on_c, 1, 64, 77
4, 9309, Note_on_c, 1, 64, 0
4, 9312, Note_on_c, 1, 71, 77
4, 9445, Note_on_c, 1, 71, 0
4, 9456, Note_on_c, 1, 73, 77
4, 9501, Note_on_c, 1, 73, 0
4, 9504, Note_on_c, 1, 70, 77
4, 9549, Note_on_c, 1, 70, 0
4, 9552, Note_on_c, 1, 71, 77
4, 9777, Note_on_c, 1, 71, 0
4, 9792, Note_on_c, 1, 73, 77
4, 9837, Note_on_c, 1, 73, 0
4, 9840, Note_on_c, 1, 71, 77
4, 9885, Note_on_c, 1, 71, 0
4, 10032, Note_on_c, 1, 52, 77
4, 10077, Note_on_c, 1, 52, 0
4, 10080, Note_on_c, 1, 59, 77
4, 10213, Note_on_c, 1, 59, 0
4, 10224, Note_on_c, 1, 61, 77
4, 10269, Note_on_c, 1, 61, 0
4, 10272, Note_on_c, 1, 58, 77
4, 10317, Note_on_c, 1, 58, 0
4, 10320, Note_on_c, 1, 59, 77
4, 10545, Note_on_c, 1, 59, 0
4, 10560, Note_on_c, 1, 45, 77
4, 10580, Note_on_c, 1, 45, 0
4, 10608, Note_on_c, 1, 52, 77
4, 10628, Note_on_c, 1, 52, 0
4, 10800, Note_on_c, 1, 44, 68
4, 10800, Note_on_c, 1, 32, 68
4, 10845, Note_on_c, 1, 44, 0
4, 10845, Note_on_c, 1, 32, 0
4, 10848, Note_on_c, 1, 44, 68
4, 10848, Note_on_c, 1, 32, 68
4, 10893, Note_on_c, 1, 44, 0
4, 10893, Note_on_c, 1, 32, 0
4, 10992, Note_on_c, 1, 45, 68
4, 10992, Note_on_c, 1, 33, 68
4, 11037, Note_on_c, 1, 45, 0
4, 11037, Note_on_c, 1, 33, 0
4, 11040, Note_on_c, 1, 45, 68
4, 11040, Note_on_c, 1, 33, 68
4, 11085, Note_on_c, 1, 45, 0
4, 11085, Note_on_c, 1, 33, 0
4, 11184, Note_on_c, 1, 47, 68
4, 11184, Note_on_c, 1, 35, 68
4, 11229, Note_on_c, 1, 47, 0
4, 11229, Note_on_c, 1, 35, 0
4, 11232, Note_on_c, 1, 47, 68
4, 11232, Note_on_c, 1, 35, 68
4, 11277, Note_on_c, 1, 47, 0
4, 11277, Note_on_c, 1, 35, 0
4, 11280, Note_on_c, 1, 47, 68
4, 11280, Note_on_c, 1, 35, 68
4, 11325, Note_on_c, 1, 47, 0
4, 11325, Note_on_c, 1, 35, 0
4, 11376, Note_on_c, 1, 52, 68
4, 11376, Note_on_c, 1, 40, 68
4, 11421, Note_on_c, 1, 52, 0
4, 11421, Note_on_c, 1, 40, 0
4, 11424, Note_on_c, 1, 52, 68
4, 11424, Note_on_c, 1, 40, 68
4, 11469, Note_on_c, 1, 52, 0
4, 11469, Note_on_c, 1, 40, 0
4, 11472, Note_on_c, 1, 52, 68
4, 11472, Note_on_c, 1, 40, 68
4, 11517, Note_on_c, 1, 52, 0
4, 11517, Note_on_c, 1, 40, 0
4, 11568, Note_on_c, 1, 44, 68
4, 11568, Note_on_c, 1, 32, 68
4, 11613, Note_on_c, 1, 44, 0
4, 11613, Note_on_c, 1, 32, 0
4, 11616, Note_on_c, 1, 44, 68
4, 11616, Note_on_c, 1, 32, 68
4, 11661, Note_on_c, 1, 44, 0
4, 11661, Note_on_c, 1, 32, 0
4, 11760, Note_on_c, 1, 45, 68
4, 11760, Note_on_c, 1, 33, 68
4, 11805, Note_on_c, 1, 45, 0
4, 11805, Note_on_c, 1, 33, 0
4, 11808, Note_on_c, 1, 45, 68
4, 11808, Note_on_c, 1, 33, 68
4, 11853, Note_on_c, 1, 45, 0
4, 11853, Note_on_c, 1, 33, 0
4, 11952, Note_on_c, 1, 47, 68
4, 11952, Note_on_c, 1, 35, 68
4, 11997, Note_on_c, 1, 47, 0
4, 11997, Note_on_c, 1, 35, 0
4, 12000, Note_on_c, 1, 47, 68
4, 12000, Note_on_c, 1, 35, 68
4, 12045, Note_on_c, 1, 47, 0
4, 12045, Note_on_c, 1, 35, 0
4, 12048, Note_on_c, 1, 47, 68
4, 12048, Note_on_c, 1, 35, 68
4, 12093, Note_on_c, 1, 47, 0
4, 12093, Note_on_c, 1, 35, 0
4, 12144, Note_on_c, 1, 52, 77
4, 12159, Note_on_c, 1, 52, 0
4, 12160, Note_on_c, 1, 47, 77
4, 12175, Note_on_c, 1, 47, 0
4, 12176, Note_on_c, 1, 44, 77
4, 12191, Note_on_c, 1, 44, 0
4, 12192, Note_on_c, 1, 40, 77
4, 12237, Note_on_c, 1, 40, 0
4, 12336, Note_on_c, 1, 64, 60
4, 12336, Note_on_c, 1, 61, 60
4, 12384, Note_on_c, 1, 64, 0
4, 12384, Note_on_c, 1, 61, 0
4, 12384, Note_on_c, 1, 63, 60
4, 12384, Note_on_c, 1, 60, 60
4, 12429, Note_on_c, 1, 63, 0
4, 12429, Note_on_c, 1, 60, 0
4, 12432, Note_on_c, 1, 75, 60
4, 12432, Note_on_c, 1, 72, 60
4, 12477, Note_on_c, 1, 75, 0
4, 12477, Note_on_c, 1, 72, 0
4, 12528, Note_on_c, 1, 68, 60
4, 12528, Note_on_c, 1, 61, 60
4, 12573, Note_on_c, 1, 68, 0
4, 12573, Note_on_c, 1, 61, 0
4, 12576, Note_on_c, 1, 68, 60
4, 12576, Note_on_c, 1, 61, 60
4, 12621, Note_on_c, 1, 68, 0
4, 12621, Note_on_c, 1, 61, 0
4, 12624, Note_on_c, 1, 64, 60
4, 12669, Note_on_c, 1, 64, 0
4, 12672, Note_on_c, 1, 66, 60
4, 12717, Note_on_c, 1, 66, 0
4, 12720, Note_on_c, 1, 66, 60
4, 12765, Note_on_c, 1, 66, 0
4, 12768, Note_on_c, 1, 68, 60
4, 12813, Note_on_c, 1, 68, 0
4, 12816, Note_on_c, 1, 68, 60
4, 12861, Note_on_c, 1, 68, 0
4, 12864, Note_on_c, 1, 61, 60
4, 12909, Note_on_c, 1, 61, 0
4, 12928, Note_on_c, 1, 49, 85
4, 12943, Note_on_c, 1, 49, 0
4, 12944, Note_on_c, 1, 51, 85
4, 12959, Note_on_c, 1, 51, 0
4, 12960, Note_on_c, 1, 52, 85
4, 12975, Note_on_c, 1, 52, 0
4, 12976, Note_on_c, 1, 51, 85
4, 12991, Note_on_c, 1, 51, 0
4, 12992, Note_on_c, 1, 49, 85
4, 13007, Note_on_c, 1, 49, 0
4, 13008, Note_on_c, 1, 47, 85
4, 13023, Note_on_c, 1, 47, 0
4, 13024, Note_on_c, 1, 46, 85
4, 13039, Note_on_c, 1, 46, 0
4, 13040, Note_on_c, 1, 44, 85
4, 13055, Note_on_c, 1, 44, 0
4, 13056, Note_on_c, 1, 42, 85
4, 13101, Note_on_c, 1, 42, 0
4, 13152, Note_on_c, 1, 61, 68
4, 13152, Note_on_c, 1, 58, 68
4, 13197, Note_on_c, 1, 61, 0
4, 13197, Note_on_c, 1, 58, 0
4, 13296, Note_on_c, 1, 66, 68
4, 13341, Note_on_c, 1, 66, 0
4, 13344, Note_on_c, 1, 66, 68
4, 13389, Note_on_c, 1, 66, 0
4, 13392, Note_on_c, 1, 64, 68
4, 13437, Note_on_c, 1, 64, 0
4, 13440, Note_on_c, 1, 66, 68
4, 13529, Note_on_c, 1, 66, 0
4, 13584, Note_on_c, 1, 71, 68
4, 13629, Note_on_c, 1, 71, 0
4, 13632, Note_on_c, 1, 71, 68
4, 13677, Note_on_c, 1, 71, 0
4, 13680, Note_on_c, 1, 70, 68
4, 13725, Note_on_c, 1, 70, 0
4, 13824, Note_on_c, 1, 47, 72
4, 13913, Note_on_c, 1, 47, 0
4, 13968, Note_on_c, 1, 52, 77
4, 13988, Note_on_c, 1, 52, 0
4, 14016, Note_on_c, 1, 51, 77
4, 14036, Note_on_c, 1, 51, 0
4, 14064, Note_on_c, 1, 46, 77
4, 14084, Note_on_c, 1, 46, 0
4, 14112, Note_on_c, 1, 47, 77
4, 14132, Note_on_c, 1, 47, 0
4, 14160, Note_on_c, 1, 49, 77
4, 14180, Note_on_c, 1, 49, 0
4, 14208, Note_on_c, 1, 51, 77
4, 14297, Note_on_c, 1, 51, 0
4, 14352, Note_on_c, 1, 52, 77
4, 14372, Note_on_c, 1, 52, 0
4, 14400, Note_on_c, 1, 51, 77
4, 14420, Note_on_c, 1, 51, 0
4, 14448, Note_on_c, 1, 46, 77
4, 14468, Note_on_c, 1, 46, 0
4, 14496, Note_on_c, 1, 47, 77
4, 14516, Note_on_c, 1, 47, 0
4, 14544, Note_on_c, 1, 49, 77
4, 14564, Note_on_c, 1, 49, 0
4, 14592, Note_on_c, 1, 51, 77
4, 14681, Note_on_c, 1, 51, 0
4, 14832, Note_on_c, 1, 59, 68
4, 14877, Note_on_c, 1, 59, 0
4, 14880, Note_on_c, 1, 59, 68
4, 14925, Note_on_c, 1, 59, 0
4, 15024, Note_on_c, 1, 66, 68
4, 15072, Note_on_c, 1, 66, 0
4, 15072, Note_on_c, 1, 68, 68
4, 15117, Note_on_c, 1, 68, 0
4, 15216, Note_on_c, 1, 65, 68
4, 15264, Note_on_c, 1, 65, 0
4, 15264, Note_on_c, 1, 66, 68
4, 15309, Note_on_c, 1, 66, 0
4, 15360, Note_on_c, 1, 47, 85
4, 15375, Note_on_c, 1, 47, 0
4, 15376, Note_on_c, 1, 51, 85
4, 15391, Note_on_c, 1, 51, 0
4, 15392, Note_on_c, 1, 52, 85
4, 15407, Note_on_c, 1, 52, 0
4, 15408, Note_on_c, 1, 54, 85
4, 15423, Note_on_c, 1, 54, 0
4, 15424, Note_on_c, 1, 56, 85
4, 15439, Note_on_c, 1, 56, 0
4, 15440, Note_on_c, 1, 58, 85
4, 15455, Note_on_c, 1, 58, 0
4, 15456, Note_on_c, 1, 59, 85
4, 15471, Note_on_c, 1, 59, 0
4, 15472, Note_on_c, 1, 61, 85
4, 15487, Note_on_c, 1, 61, 0
4, 15488, Note_on_c, 1, 63, 85
4, 15503, Note_on_c, 1, 63, 0
4, 15504, Note_on_c, 1, 64, 85
4, 15552, Note_on_c, 1, 64, 0
4, 15552, Note_on_c, 1, 63, 85
4, 15641, Note_on_c, 1, 63, 0
4, 15696, Note_on_c, 1, 58, 85
4, 15696, Note_on_c, 1, 54, 85
4, 15741, Note_on_c, 1, 58, 0
4, 15741, Note_on_c, 1, 54, 0
4, 15744, Note_on_c, 1, 47, 85
4, 15759, Note_on_c, 1, 47, 0
4, 15760, Note_on_c, 1, 51, 85
4, 15775, Note_on_c, 1, 51, 0
4, 15776, Note_on_c, 1, 52, 85
4, 15791, Note_on_c, 1, 52, 0
4, 15792, Note_on_c, 1, 54, 85
4, 15807, Note_on_c, 1, 54, 0
4, 15808, Note_on_c, 1, 56, 85
4, 15823, Note_on_c, 1, 56, 0
4, 15824, Note_on_c, 1, 58, 85
4, 15839, Note_on_c, 1, 58, 0
4, 15840, Note_on_c, 1, 59, 85
4, 15855, Note_on_c, 1, 59, 0
4, 15856, Note_on_c, 1, 61, 85
4, 15871, Note_on_c, 1, 61, 0
4, 15872, Note_on_c, 1, 63, 85
4, 15887, Note_on_c, 1, 63, 0
4, 15888, Note_on_c, 1, 64, 85
4, 15936, Note_on_c, 1, 64, 0
4, 15936, Note_on_c, 1, 63, 85
4, 16025, Note_on_c, 1, 63, 0
4, 16080, Note_on_c, 1, 68, 77
4, 16095, Note_on_c, 1, 68, 0
4, 16096, Note_on_c, 1, 66, 77
4, 16111, Note_on_c, 1, 66, 0
4, 16112, Note_on_c, 1, 64, 77
4, 16127, Note_on_c, 1, 64, 0
4, 16128, Note_on_c, 1, 63, 77
4, 16143, Note_on_c, 1, 63, 0
4, 16144, Note_on_c, 1, 64, 77
4, 16159, Note_on_c, 1, 64, 0
4, 16160, Note_on_c, 1, 66, 77
4, 16175, Note_on_c, 1, 66, 0
4, 16176, Note_on_c, 1, 68, 77
4, 16191, Note_on_c, 1, 68, 0
4, 16192, Note_on_c, 1, 66, 77
4, 16207, Note_on_c, 1, 66, 0
4, 16208, Note_on_c, 1, 64, 77
4, 16223, Note_on_c, 1, 64, 0
4, 16224, Note_on_c, 1, 63, 77
4, 16239, Note_on_c, 1, 63, 0
4, 16240, Note_on_c, 1, 64, 77
4, 16255, Note_on_c, 1, 64, 0
4, 16256, Note_on_c, 1, 66, 77
4, 16271, Note_on_c, 1, 66, 0
4, 16272, Note_on_c, 1, 68, 77
4, 16287, Note_on_c, 1, 68, 0
4, 16288, Note_on_c, 1, 66, 77
4, 16303, Note_on_c, 1, 66, 0
4, 16304, Note_on_c, 1, 64, 77
4, 16319, Note_on_c, 1, 64, 0
4, 16320, Note_on_c, 1, 63, 77
4, 16365, Note_on_c, 1, 63, 0
4, 16368, Note_on_c, 1, 64, 77
4, 16413, Note_on_c, 1, 64, 0
4, 16416, Note_on_c, 1, 66, 77
4, 16461, Note_on_c, 1, 66, 0
4, 16464, Note_on_c, 1, 59, 77
4, 16509, Note_on_c, 1, 59, 0
4, 16512, Note_on_c, 1, 64, 77
4, 16601, Note_on_c, 1, 64, 0
4, 16752, Note_on_c, 1, 51, 77
4, 16797, Note_on_c, 1, 51, 0
4, 16800, Note_on_c, 1, 52, 77
4, 16845, Note_on_c, 1, 52, 0
4, 16848, Note_on_c, 1, 54, 77
4, 16893, Note_on_c, 1, 54, 0
4, 16896, Note_on_c, 1, 47, 77
4, 16911, Note_on_c, 1, 47, 0
4, 16912, Note_on_c, 1, 51, 77
4, 16927, Note_on_c, 1, 51, 0
4, 16928, Note_on_c, 1, 54, 77
4, 16943, Note_on_c, 1, 54, 0
4, 16944, Note_on_c, 1, 59, 77
4, 16959, Note_on_c, 1, 59, 0
4, 16960, Note_on_c, 1, 54, 77
4, 16975, Note_on_c, 1, 54, 0
4, 16976, Note_on_c, 1, 51, 77
4, 16991, Note_on_c, 1, 51, 0
4, 16992, Note_on_c, 1, 47, 77
4, 17037, Note_on_c, 1, 47, 0
4, 17040, Note_on_c, 1, 75, 68
4, 17085, Note_on_c, 1, 75, 0
4, 17088, Note_on_c, 1, 72, 68
4, 17136, Note_on_c, 1, 72, 0
4, 17136, Note_on_c, 1, 73, 68
4, 17181, Note_on_c, 1, 73, 0
4, 17184, Note_on_c, 1, 70, 68
4, 17232, Note_on_c, 1, 70, 0
4, 17232, Note_on_c, 1, 71, 68
4, 17277, Note_on_c, 1, 71, 0
4, 17280, Note_on_c, 1, 64, 68
4, 17325, Note_on_c, 1, 64, 0
4, 17328, Note_on_c, 1, 65, 71
4, 17373, Note_on_c, 1, 65, 0
4, 17376, Note_on_c, 1, 66, 74
4, 17421, Note_on_c, 1, 66, 0
4, 17424, Note_on_c, 1, 54, 77
4, 17469, Note_on_c, 1, 54, 0
4, 17472, Note_on_c, 1, 59, 77
4, 17487, Note_on_c, 1, 59, 0
4, 17488, Note_on_c, 1, 54, 77
4, 17503, Note_on_c, 1, 54, 0
4, 17504, Note_on_c, 1, 51, 77
4, 17519, Note_on_c, 1, 51, 0
4, 17520, Note_on_c, 1, 47, 77
4, 17535, Note_on_c, 1, 47, 0
4, 17536, Note_on_c, 1, 51, 77
4, 17551, Note_on_c, 1, 51, 0
4, 17552, Note_on_c, 1, 54, 77
4, 17567, Note_on_c, 1, 54, 0
4, 17568, Note_on_c, 1, 59, 77
4, 17588, Note_on_c, 1, 59, 0
4, 17616, Note_on_c, 1, 63, 68
4, 17661, Note_on_c, 1, 63, 0
4, 17664, Note_on_c, 1, 60, 68
4, 17712, Note_on_c, 1, 60, 0
4, 17712, Note_on_c, 1, 61, 68
4, 17757, Note_on_c, 1, 61, 0
4, 17760, Note_on_c, 1, 58, 68
4, 17808, Note_on_c, 1, 58, 0
4, 17808, Note_on_c, 1, 59, 68
4, 17853, Note_on_c, 1, 59, 0
4, 17856, Control_c, 1, 64, 127
4, 17856, Note_on_c, 1, 52, 68
4, 17864, Note_on_c, 1, 56, 68
4, 17872, Note_on_c, 1, 61, 68
4, 17949, Note_on_c, 1, 61, 0
4, 17949, Note_on_c, 1, 56, 0
4, 17949, Note_on_c, 1, 52, 0
4, 17952, Control_c, 1, 64, 0
4, 17952, Note_on_c, 1, 51, 68
4, 17997, Note_on_c, 1, 51, 0
4, 18000, Note_on_c, 1, 49, 68
4, 18045, Note_on_c, 1, 49, 0
4, 18048, Note_on_c, 1, 47, 68
4, 18137, Note_on_c, 1, 47, 0
4, 18144, Note_on_c, 1, 59, 68
4, 18159, Note_on_c, 1, 59, 0
4, 18160, Note_on_c, 1, 54, 68
4, 18175, Note_on_c, 1, 54, 0
4, 18176, Note_on_c, 1, 51, 68
4, 18191, Note_on_c, 1, 51, 0
4, 18192, Note_on_c, 1, 47, 68
4, 18207, Note_on_c, 1, 47, 0
4, 18208, Note_on_c, 1, 42, 68
4, 18223, Note_on_c, 1, 42, 0
4, 18224, Note_on_c, 1, 39, 68
4, 18239, Note_on_c, 1, 39, 0
4, 18240, Note_on_c, 1, 35, 68
4, 18307, Note_on_c, 1, 35, 0
4, 18480, Note_on_c, 1, 59, 77
4, 18525, Note_on_c, 1, 59, 0
4, 18528, Note_on_c, 1, 66, 77
4, 18661, Note_on_c, 1, 66, 0
4, 18672, Note_on_c, 1, 68, 77
4, 18717, Note_on_c, 1, 68, 0
4, 18720, Note_on_c, 1, 65, 77
4, 18765, Note_on_c, 1, 65, 0
4, 18768, Note_on_c, 1, 66, 77
4, 18993, Note_on_c, 1, 66, 0
4, 19008, Note_on_c, 1, 68, 77
4, 19053, Note_on_c, 1, 68, 0
4, 19056, Note_on_c, 1, 66, 77
4, 19101, Note_on_c, 1, 66, 0
4, 19248, Note_on_c, 1, 64, 77
4, 19293, Note_on_c, 1, 64, 0
4, 19296, Note_on_c, 1, 71, 77
4, 19429, Note_on_c, 1, 71, 0
4, 19440, Note_on_c, 1, 73, 77
4, 19485, Note_on_c, 1, 73, 0
4, 19488, Note_on_c, 1, 70, 77
4, 19533, Note_on_c, 1, 70, 0
4, 19536, Note_on_c, 1, 71, 77
4, 19581, Note_on_c, 1, 71, 0
4, 19584, Note_on_c, 1, 68, 77
4, 19629, Note_on_c, 1, 68, 0
4, 19632, Note_on_c, 1, 69, 77
4, 19677, Note_on_c, 1, 69, 0
4, 19680, Note_on_c, 1, 66, 77
4, 19725, Note_on_c, 1, 66, 0
4, 19728, Note_on_c, 1, 68, 77
4, 19953, Note_on_c, 1, 68, 0
4, 19968, Control_c, 1, 64, 127
4, 19968, Note_on_c, 1, 56, 76
4, 19984, Note_on_c, 1, 56, 0
4, 19984, Note_on_c, 1, 60, 60
4, 19999, Note_on_c, 1, 60, 0
4, 20000, Note_on_c, 1, 63, 60
4, 20015, Note_on_c, 1, 63, 0
4, 20016, Note_on_c, 1, 56, 60
4, 20031, Note_on_c, 1, 56, 0
4, 20032, Note_on_c, 1, 60, 60
4, 20047, Note_on_c, 1, 60, 0
4, 20048, Note_on_c, 1, 63, 60
4, 20063, Note_on_c, 1, 63, 0
4, 20064, Note_on_c, 1, 56, 60
4, 20079, Note_on_c, 1, 56, 0
4, 20080, Note_on_c, 1, 60, 60
4, 20095, Note_on_c, 1, 60, 0
4, 20096, Note_on_c, 1, 63, 60
4, 20111, Note_on_c, 1, 63, 0
4, 20112, Note_on_c, 1, 56, 60
4, 20127, Note_on_c, 1, 56, 0
4, 20128, Note_on_c, 1, 60, 60
4, 20143, Note_on_c, 1, 60, 0
4, 20144, Note_on_c, 1, 63, 60
4, 20159, Note_on_c, 1, 63, 0
4, 20160, Control_c, 1, 64, 0
4, 20160, Control_c, 1, 64, 127
4, 20160, Note_on_c, 1, 56, 76
4, 20176, Note_on_c, 1, 56, 0
4, 20176, Note_on_c, 1, 61, 60
4, 20191, Note_on_c, 1, 61, 0
4, 20192, Note_on_c, 1, 64, 60
4, 20207, Note_on_c, 1, 64, 0
4, 20208, Note_on_c, 1, 61, 60
4, 20223, Note_on_c, 1, 61, 0
4, 20224, Note_on_c, 1, 56, 60
4, 20239, Note_on_c, 1, 56, 0
4, 20240, Note_on_c, 1, 64, 60
4, 20255, Note_on_c, 1, 64, 0
4, 20256, Note_on_c, 1, 56, 60
4, 20271, Note_on_c, 1, 56, 0
4, 20272, Note_on_c, 1, 61, 60
4, 20287, Note_on_c, 1, 61, 0
4, 20288, Note_on_c, 1, 64, 60
4, 20303, Note_on_c, 1, 64, 0
4, 20304, Note_on_c, 1, 56, 60
4, 20319, Note_on_c, 1, 56, 0
4, 20320, Note_on_c, 1, 61, 60
4, 20335, Note_on_c, 1, 61, 0
4, 20336, Note_on_c, 1, 64, 60
4, 20351, Note_on_c, 1, 64, 0
4, 20352, Control_c, 1, 64, 0
4, 20352, Control_c, 1, 64, 127
4, 20352, Note_on_c, 1, 56, 76
4, 20368, Note_on_c, 1, 56, 0
4, 20368, Note_on_c, 1, 63, 60
4, 20383, Note_on_c, 1, 63, 0
4, 20384, Note_on_c, 1, 66, 60
4, 20399, Note_on_c, 1, 66, 0
4, 20400, Note_on_c, 1, 56, 60
4, 20415, Note_on_c, 1, 56, 0
4, 20416, Note_on_c, 1, 63, 60
4, 20431, Note_on_c, 1, 63, 0
4, 20432, Note_on_c, 1, 66, 60
4, 20447, Note_on_c, 1, 66, 0
4, 20448, Note_on_c, 1, 56, 60
4, 20463, Note_on_c, 1, 56, 0
4, 20464, Note_on_c, 1, 63, 60
4, 20479, Note_on_c, 1, 63, 0
4, 20480, Note_on_c, 1, 66, 60
4, 20495, Note_on_c, 1, 66, 0
4, 20496, Note_on_c, 1, 56, 60
4, 20511, Note_on_c, 1, 56, 0
4, 20512, Note_on_c, 1, 63, 60
4, 20527, Note_on_c, 1, 63, 0
4, 20528, Note_on_c, 1, 66, 60
4, 20543, Note_on_c, 1, 66, 0
4, 20544, Control_c, 1, 64, 0
4, 20544, Control_c, 1, 64, 127
4, 20544, Note_on_c, 1, 56, 76
4, 20560, Note_on_c, 1, 56, 0
4, 20560, Note_on_c, 1, 61, 60
4, 20575, Note_on_c, 1, 61, 0
4, 20576, Note_on_c, 1, 64, 60
4, 20591, Note_on_c, 1, 64, 0
4, 20592, Note_on_c, 1, 61, 60
4, 20607, Note_on_c, 1, 61, 0
4, 20608, Note_on_c, 1, 56, 60
4, 20623, Note_on_c, 1, 56, 0
4, 20624, Note_on_c, 1, 64, 60
4, 20639, Note_on_c, 1, 64, 0
4, 20640, Note_on_c, 1, 56, 60
4, 20655, Note_on_c, 1, 56, 0
4, 20656, Note_on_c, 1, 61, 60
4, 20671, Note_on_c, 1, 61, 0
4, 20672, Note_on_c, 1, 64, 60
4, 20687, Note_on_c, 1, 64, 0
4, 20688, Note_on_c, 1, 56, 60
4, 20703, Note_on_c, 1, 56, 0
4, 20704, Note_on_c, 1, 61, 60
4, 20719, Note_on_c, 1, 61, 0
4, 20720, Note_on_c, 1, 64, 60
4, 20735, Note_on_c, 1, 64, 0
4, 20736, Control_c, 1, 64, 0
4, 20736, Control_c, 1, 64, 127
4, 20736, Note_on_c, 1, 56, 76
4, 20752, Note_on_c, 1, 56, 0
4, 20752, Note_on_c, 1, 59, 60
4, 20767, Note_on_c, 1, 59, 0
4, 20768, Note_on_c, 1, 65, 60
4, 20783, Note_on_c, 1, 65, 0
4, 20784, Note_on_c, 1, 56, 60
4, 20799, Note_on_c, 1, 56, 0
4, 20800, Note_on_c, 1, 59, 60
4, 20815, Note_on_c, 1, 59, 0
4, 20816, Note_on_c, 1, 65, 60
4, 20831, Note_on_c, 1, 65, 0
4, 20832, Note_on_c, 1, 56, 60
4, 20847, Note_on_c, 1, 56, 0
4, 20848, Note_on_c, 1, 59, 60
4, 20863, Note_on_c, 1, 59, 0
4, 20864, Note_on_c, 1, 65, 60
4, 20879, Note_on_c, 1, 65, 0
4, 20880, Note_on_c, 1, 56, 60
4, 20895, Note_on_c, 1, 56, 0
4, 20896, Note_on_c, 1, 59, 60
4, 20911, Note_on_c, 1, 59, 0
4, 20912, Note_on_c, 1, 65, 60
4, 20927, Note_on_c, 1, 65, 0
4, 20928, Note_on_c, 1, 56, 76
4, 20944, Note_on_c, 1, 56, 0
4, 20944, Note_on_c, 1, 59, 60
4, 20959, Note_on_c, 1, 59, 0
4, 20960, Note_on_c, 1, 65, 60
4, 20975, Note_on_c, 1, 65, 0
4, 20976, Note_on_c, 1, 56, 60
4, 20991, Note_on_c, 1, 56, 0
4, 20992, Note_on_c, 1, 59, 60
4, 21007, Note_on_c, 1, 59, 0
4, 21008, Note_on_c, 1, 65, 60
4, 21023, Note_on_c, 1, 65, 0
4, 21024, Note_on_c, 1, 56, 60
4, 21039, Note_on_c, 1, 56, 0
4, 21040, Note_on_c, 1, 59, 60
4, 21055, Note_on_c, 1, 59, 0
4, 21056, Note_on_c, 1, 65, 60
4, 21071, Note_on_c, 1, 65, 0
4, 21072, Note_on_c, 1, 56, 60
4, 21087, Note_on_c, 1, 56, 0
4, 21088, Note_on_c, 1, 59, 60
4, 21103, Note_on_c, 1, 59, 0
4, 21104, Note_on_c, 1, 65, 60
4, 21119, Note_on_c, 1, 65, 0
4, 21120, Control_c, 1, 64, 0
4, 21120, Note_on_c, 1, 66, 77
4, 21120, Note_on_c, 1, 61, 77
4, 21120, Note_on_c, 1, 57, 77
4, 21165, Note_on_c, 1, 66, 0
4, 21165, Note_on_c, 1, 61, 0
4, 21165, Note_on_c, 1, 57, 0
4, 21216, Note_on_c, 1, 66, 77
4, 21216, Note_on_c, 1, 61, 77
4, 21216, Note_on_c, 1, 57, 77
4, 21261, Note_on_c, 1, 66, 0
4, 21261, Note_on_c, 1, 61, 0
4, 21261, Note_on_c, 1, 57, 0
4, 21312, Note_on_c, 1, 61, 77
4, 21445, Note_on_c, 1, 61, 0
4, 21456, Note_on_c, 1, 61, 77
4, 21501, Note_on_c, 1, 61, 0
4, 21504, Note_on_c, 1, 61, 77
4, 21600, Note_on_c, 1, 61, 0
4, 21600, Note_on_c, 1, 60, 77
4, 21777, Note_on_c, 1, 60, 0
4, 21888, Note_on_c, 1, 49, 85
4, 21888, Note_on_c, 1, 37, 85
4, 21977, Note_on_c, 1, 49, 0
4, 21977, Note_on_c, 1, 37, 0
4, 22032, Note_on_c, 1, 54, 85
4, 22052, Note_on_c, 1, 54, 0
4, 22080, Note_on_c, 1, 52, 85
4, 22100, Note_on_c, 1, 52, 0
4, 22128, Note_on_c, 1, 48, 85
4, 22148, Note_on_c, 1, 48, 0
4, 22176, Note_on_c, 1, 49, 85
4, 22196, Note_on_c, 1, 49, 0
4, 22224, Note_on_c, 1, 51, 85
4, 22244, Note_on_c, 1, 51, 0
4, 22272, Note_on_c, 1, 52, 85
4, 22361, Note_on_c, 1, 52, 0
4, 22416, Note_on_c, 1, 54, 85
4, 22436, Note_on_c, 1, 54, 0
4, 22464, Note_on_c, 1, 52, 85
4, 22484, Note_on_c, 1, 52, 0
4, 22512, Note_on_c, 1, 48, 85
4, 22532, Note_on_c, 1, 48, 0
4, 22560, Note_on_c, 1, 49, 85
4, 22580, Note_on_c, 1, 49, 0
4, 22608, Note_on_c, 1, 51, 85
4, 22628, Note_on_c, 1, 51, 0
4, 22656, Note_on_c, 1, 52, 85
4, 22745, Note_on_c, 1, 52, 0
4, 22800, Note_on_c, 1, 54, 85
4, 22845, Note_on_c, 1, 54, 0
4, 22848, Control_c, 1, 64, 127
4, 22848, Note_on_c, 1, 52, 85
4, 23217, Note_on_c, 1, 52, 0
4, 23232, Note_on_c, 1, 52, 85
4, 23321, Note_on_c, 1, 52, 0
4, 23328, Note_on_c, 1, 49, 85
4, 23417, Note_on_c, 1, 49, 0
4, 23424, Control_c, 1, 64, 0
4, 23424, Control_c, 1, 64, 127
4, 23424, Note_on_c, 1, 54, 85
4, 23424, Note_on_c, 1, 42, 85
4, 23601, Note_on_c, 1, 54, 0
4, 23601, Note_on_c, 1, 42, 0
4, 23616, Control_c, 1, 64, 0
4, 23616, Control_c, 1, 64, 127
4, 23616, Note_on_c, 1, 47, 85
4, 23616, Note_on_c, 1, 35, 85
4, 23793, Note_on_c, 1, 47, 0
4, 23793, Note_on_c, 1, 35, 0
4, 23808, Control_c, 1, 64, 0
4, 23808, Control_c, 1, 64, 127
4, 23808, Note_on_c, 1, 52, 85
4, 23808, Note_on_c, 1, 40, 85
4, 23855, Note_on_c, 1, 52, 0
4, 23855, Note_on_c, 1, 40, 0
4, 23856, Control_c, 1, 64, 0
4, 23856, Control_c, 1, 64, 127
4, 23856, Note_on_c, 1, 53, 85
4, 23856, Note_on_c, 1, 41, 85
4, 23903, Note_on_c, 1, 53, 0
4, 23903, Note_on_c, 1, 41, 0
4, 23904, Control_c, 1, 64, 0
4, 23904, Control_c, 1, 64, 127
4, 23904, Note_on_c, 1, 52, 85
4, 23904, Note_on_c, 1, 40, 85
4, 23951, Note_on_c, 1, 52, 0
4, 23951, Note_on_c, 1, 40, 0
4, 23952, Control_c, 1, 64, 0
4, 23952, Control_c, 1, 64, 127
4, 23952, Note_on_c, 1, 50, 85
4, 23952, Note_on_c, 1, 38, 85
4, 23999, Note_on_c, 1, 50, 0
4, 23999, Note_on_c, 1, 38, 0
4, 24000, Control_c, 1, 64, 127
4, 24000, Note_on_c, 1, 49, 85
4, 24000, Note_on_c, 1, 37, 85
4, 24089, Note_on_c, 1, 49, 0
4, 24089, Note_on_c, 1, 37, 0
4, 24096, Control_c, 1, 64, 0
4, 24096, Control_c, 1, 64, 127
4, 24096, Note_on_c, 1, 54, 85
4, 24096, Note_on_c, 1, 42, 85
4, 24185, Note_on_c, 1, 54, 0
4, 24185, Note_on_c, 1, 42, 0
4, 24192, Control_c, 1, 64, 0
4, 24192, Control_c, 1, 64, 127
4, 24192, Note_on_c, 1, 47, 85
4, 24192, Note_on_c, 1, 35, 85
4, 24281, Note_on_c, 1, 47, 0
4, 24281, Note_on_c, 1, 35, 0
4, 24336, Control_c, 1, 64, 0
4, 24336, Control_c, 1, 64, 127
4, 24336, Note_on_c, 1, 54, 85
4, 24336, Note_on_c, 1, 42, 85
4, 24381, Note_on_c, 1, 54, 0
4, 24381, Note_on_c, 1, 42, 0
4, 24384, Control_c, 1, 64, 0
4, 24384, Control_c, 1, 64, 127
4, 24384, Note_on_c, 1, 47, 85
4, 24384, Note_on_c, 1, 35, 85
4, 24473, Note_on_c, 1, 47, 0
4, 24473, Note_on_c, 1, 35, 0
4, 24528, Control_c, 1, 64, 0
4, 24528, Control_c, 1, 64, 127
4, 24528, Note_on_c, 1, 54, 85
4, 24528, Note_on_c, 1, 42, 85
4, 24573, Note_on_c, 1, 54, 0
4, 24573, Note_on_c, 1, 42, 0
4, 24576, Control_c, 1, 64, 0
4, 24576, Control_c, 1, 64, 127
4, 24576, Note_on_c, 1, 47, 85
4, 24576, Note_on_c, 1, 35, 85
4, 24665, Note_on_c, 1, 47, 0
4, 24665, Note_on_c, 1, 35, 0
4, 24672, Note_on_c, 1, 59, 85
4, 24687, Note_on_c, 1, 59, 0
4, 24688, Note_on_c, 1, 54, 85
4, 24703, Note_on_c, 1, 54, 0
4, 24704, Note_on_c, 1, 51, 85
4, 24719, Note_on_c, 1, 51, 0
4, 24720, Note_on_c, 1, 47, 85
4, 24735, Note_on_c, 1, 47, 0
4, 24736, Note_on_c, 1, 42, 85
4, 24751, Note_on_c, 1, 42, 0
4, 24752, Note_on_c, 1, 39, 85
4, 24767, Note_on_c, 1, 39, 0
4, 24768, Note_on_c, 1, 35, 85
4, 24864, Control_c, 1, 64, 0
4, 24953, Note_on_c, 1, 35, 0
4, 24976, Note_on_c, 1, 63, 85
4, 24991, Note_on_c, 1, 63, 0
4, 24992, Note_on_c, 1, 64, 83
4, 25007, Note_on_c, 1, 64, 0
4, 25008, Note_on_c, 1, 66, 82
4, 25023, Note_on_c, 1, 66, 0
4, 25024, Note_on_c, 1, 68, 81
4, 25039, Note_on_c, 1, 68, 0
4, 25040, Note_on_c, 1, 69, 80
4, 25055, Note_on_c, 1, 69, 0
4, 25056, Note_on_c, 1, 71, 77
4, 25189, Note_on_c, 1, 71, 0
4, 25200, Note_on_c, 1, 73, 77
4, 25245, Note_on_c, 1, 73, 0
4, 25248, Note_on_c, 1, 70, 77
4, 25293, Note_on_c, 1, 70, 0
4, 25296, Note_on_c, 1, 71, 77
4, 25521, Note_on_c, 1, 71, 0
4, 25536, Note_on_c, 1, 73, 77
4, 25581, Note_on_c, 1, 73, 0
4, 25584, Note_on_c, 1, 71, 77
4, 25629, Note_on_c, 1, 71, 0
4, 25776, Note_on_c, 1, 52, 77
4, 25821, Note_on_c, 1, 52, 0
4, 25824, Note_on_c, 1, 59, 77
4, 25957, Note_on_c, 1, 59, 0
4, 25968, Note_on_c, 1, 61, 77
4, 26013, Note_on_c, 1, 61, 0
4, 26016, Note_on_c, 1, 58, 77
4, 26061, Note_on_c, 1, 58, 0
4, 26064, Note_on_c, 1, 59, 77
4, 26289, Note_on_c, 1, 59, 0
4, 26304, Note_on_c, 1, 45, 77
4, 26324, Note_on_c, 1, 45, 0
4, 26352, Note_on_c, 1, 52, 77
4, 26372, Note_on_c, 1, 52, 0
4, 26544, Note_on_c, 1, 44, 68
4, 26544, Note_on_c, 1, 32, 68
4, 26589, Note_on_c, 1, 44, 0
4, 26589, Note_on_c, 1, 32, 0
4, 26592, Note_on_c, 1, 44, 68
4, 26592, Note_on_c, 1, 32, 68
4, 26637, Note_on_c, 1, 44, 0
4, 26637, Note_on_c, 1, 32, 0
4, 26736, Note_on_c, 1, 45, 68
4, 26736, Note_on_c, 1, 33, 68
4, 26781, Note_on_c, 1, 45, 0
4, 26781, Note_on_c, 1, 33, 0
4, 26784, Note_on_c, 1, 45, 68
4, 26784, Note_on_c, 1, 33, 68
4, 26829, Note_on_c, 1, 45, 0
4, 26829, Note_on_c, 1, 33, 0
4, 26928, Note_on_c, 1, 47, 68
4, 26928, Note_on_c, 1, 35, 68
4, 26973, Note_on_c, 1, 47, 0
4, 26973, Note_on_c, 1, 35, 0
4, 26976, Note_on_c, 1, 47, 68
4, 26976, Note_on_c, 1, 35, 68
4, 27021, Note_on_c, 1, 47, 0
4, 27021, Note_on_c, 1, 35, 0
4, 27024, Note_on_c, 1, 47, 68
4, 27024, Note_on_c, 1, 35, 68
4, 27069, Note_on_c, 1, 47, 0
4, 27069, Note_on_c, 1, 35, 0
4, 27120, Note_on_c, 1, 52, 68
4, 27120, Note_on_c, 1, 40, 68
4, 27165, Note_on_c, 1, 52, 0
4, 27165, Note_on_c, 1, 40, 0
4, 27168, Note_on_c, 1, 52, 68
4, 27168, Note_on_c, 1, 40, 68
4, 27213, Note_on_c, 1, 52, 0
4, 27213, Note_on_c, 1, 40, 0
4, 27216, Note_on_c, 1, 52, 68
4, 27216, Note_on_c, 1, 40, 68
4, 27261, Note_on_c, 1, 52, 0
4, 27261, Note_on_c, 1, 40, 0
4, 27312, Note_on_c, 1, 44, 68
4, 27312, Note_on_c, 1, 32, 68
4, 27357, Note_on_c, 1, 44, 0
4, 27357, Note_on_c, 1, 32, 0
4, 27360, Note_on_c, 1, 44, 68
4, 27360, Note_on_c, 1, 32, 68
4, 27405, Note_on_c, 1, 44, 0
4, 27405, Note_on_c, 1, 32, 0
4, 27504, Note_on_c, 1, 45, 68
4, 27504, Note_on_c, 1, 33, 68
4, 27549, Note_on_c, 1, 45, 0
4, 27549, Note_on_c, 1, 33, 0
4, 27552, Note_on_c, 1, 45, 68
4, 27552, Note_on_c, 1, 33, 68
4, 27597, Note_on_c, 1, 45, 0
4, 27597, Note_on_c, 1, 33, 0
4, 27696, Note_on_c, 1, 47, 68
4, 27696, Note_on_c, 1, 35, 68
4, 27741, Note_on_c, 1, 47, 0
4, 27741, Note_on_c, 1, 35, 0
4, 27744, Note_on_c, 1, 47, 68
4, 27744, Note_on_c, 1, 35, 68
4, 27789, Note_on_c, 1, 47, 0
4, 27789, Note_on_c, 1, 35, 0
4, 27792, Note_on_c, 1, 47, 68
4, 27792, Note_on_c, 1, 35, 68
4, 27837, Note_on_c, 1, 47, 0
4, 27837, Note_on_c, 1, 35, 0
4, 27888, Note_on_c, 1, 52, 68
4, 27903, Note_on_c, 1, 52, 0
4, 27904, Note_on_c, 1, 56, 69
4, 27919, Note_on_c, 1, 56, 0
4, 27920, Note_on_c, 1, 59, 71
4, 27935, Note_on_c, 1, 59, 0
4, 27936, Note_on_c, 1, 64, 73
4, 27951, Note_on_c, 1, 64, 0
4, 27952, Note_on_c, 1, 59, 75
4, 27967, Note_on_c, 1, 59, 0
4, 27968, Note_on_c, 1, 56, 77
4, 27983, Note_on_c, 1, 56, 0
4, 27984, Note_on_c, 1, 62, 75
4, 27999, Note_on_c, 1, 62, 0
4, 28000, Note_on_c, 1, 59, 74
4, 28015, Note_on_c, 1, 59, 0
4, 28016, Note_on_c, 1, 56, 73
4, 28031, Note_on_c, 1, 56, 0
4, 28032, Note_on_c, 1, 53, 60
4, 28077, Note_on_c, 1, 53, 0
4, 28080, Note_on_c, 1, 69, 60
4, 28128, Note_on_c, 1, 69, 0
4, 28128, Note_on_c, 1, 68, 60
4, 28173, Note_on_c, 1, 68, 0
4, 28176, Note_on_c, 1, 80, 60
4, 28221, Note_on_c, 1, 80, 0
4, 28272, Note_on_c, 1, 73, 60
4, 28317, Note_on_c, 1, 73, 0
4, 28320, Note_on_c, 1, 73, 60
4, 28365, Note_on_c, 1, 73, 0
4, 28416, Note_on_c, 1, 71, 60
4, 28461, Note_on_c, 1, 71, 0
4, 28464, Note_on_c, 1, 71, 60
4, 28509, Note_on_c, 1, 71, 0
4, 28512, Note_on_c, 1, 73, 60
4, 28557, Note_on_c, 1, 73, 0
4, 28560, Note_on_c, 1, 73, 60
4, 28605, Note_on_c, 1, 73, 0
4, 28608, Note_on_c, 1, 66, 60
4, 28653, Note_on_c, 1, 66, 0
4, 28672, Note_on_c, 1, 54, 85
4, 28687, Note_on_c, 1, 54, 0
4, 28688, Note_on_c, 1, 56, 85
4, 28703, Note_on_c, 1, 56, 0
4, 28704, Note_on_c, 1, 57, 85
4, 28719, Note_on_c, 1, 57, 0
4, 28720, Note_on_c, 1, 56, 85
4, 28735, Note_on_c, 1, 56, 0
4, 28736, Note_on_c, 1, 54, 85
4, 28751, Note_on_c, 1, 54, 0
4, 28752, Note_on_c, 1, 52, 85
4, 28767, Note_on_c, 1, 52, 0
4, 28768, Note_on_c, 1, 51, 85
4, 28783, Note_on_c, 1, 51, 0
4, 28784, Note_on_c, 1, 49, 85
4, 28799, Note_on_c, 1, 49, 0
4, 28800, Note_on_c, 1, 47, 85
4, 28845, Note_on_c, 1, 47, 0
4, 28896, Note_on_c, 1, 66, 68
4, 28941, Note_on_c, 1, 66, 0
4, 29040, Note_on_c, 1, 71, 68
4, 29085, Note_on_c, 1, 71, 0
4, 29088, Note_on_c, 1, 71, 68
4, 29133, Note_on_c, 1, 71, 0
4, 29136, Note_on_c, 1, 69, 68
4, 29181, Note_on_c, 1, 69, 0
4, 29184, Note_on_c, 1, 71, 68
4, 29273, Note_on_c, 1, 71, 0
4, 29328, Note_on_c, 1, 76, 68
4, 29373, Note_on_c, 1, 76, 0
4, 29376, Note_on_c, 1, 76, 68
4, 29421, Note_on_c, 1, 76, 0
4, 29424, Note_on_c, 1, 75, 68
4, 29469, Note_on_c, 1, 75, 0
4, 29472, Note_on_c, 1, 59, 68
4, 29487, Note_on_c, 1, 59, 0
4, 29488, Note_on_c, 1, 61, 69
4, 29503, Note_on_c, 1, 61, 0
4, 29504, Note_on_c, 1, 59, 70
4, 29519, Note_on_c, 1, 59, 0
4, 29520, Note_on_c, 1, 57, 71
4, 29535, Note_on_c, 1, 57, 0
4, 29536, Note_on_c, 1, 56, 72
4, 29551, Note_on_c, 1, 56, 0
4, 29552, Note_on_c, 1, 54, 73
4, 29567, Note_on_c, 1, 54, 0
4, 29568, Note_on_c, 1, 52, 74
4, 29657, Note_on_c, 1, 52, 0
4, 29712, Note_on_c, 1, 57, 85
4, 29732, Note_on_c, 1, 57, 0
4, 29760, Note_on_c, 1, 56, 85
4, 29780, Note_on_c, 1, 56, 0
4, 29808, Note_on_c, 1, 51, 85
4, 29828, Note_on_c, 1, 51, 0
4, 29856, Note_on_c, 1, 52, 85
4, 29876, Note_on_c, 1, 52, 0
4, 29904, Note_on_c, 1, 54, 85
4, 29924, Note_on_c, 1, 54, 0
4, 29952, Note_on_c, 1, 56, 85
4, 30041, Note_on_c, 1, 56, 0
4, 30096, Note_on_c, 1, 57, 85
4, 30116, Note_on_c, 1, 57, 0
4, 30144, Note_on_c, 1, 56, 85
4, 30164, Note_on_c, 1, 56, 0
4, 30192, Note_on_c, 1, 51, 85
4, 30212, Note_on_c, 1, 51, 0
4, 30240, Note_on_c, 1, 52, 85
4, 30260, Note_on_c, 1, 52, 0
4, 30288, Note_on_c, 1, 54, 85
4, 30308, Note_on_c, 1, 54, 0
4, 30336, Note_on_c, 1, 56, 85
4, 30425, Note_on_c, 1, 56, 0
4, 30576, Note_on_c, 1, 64, 68
4, 30621, Note_on_c, 1, 64, 0
4, 30624, Note_on_c, 1, 64, 68
4, 30669, Note_on_c, 1, 64, 0
4, 30768, Note_on_c, 1, 71, 68
4, 30813, Note_on_c, 1, 71, 0
4, 30816, Note_on_c, 1, 73, 68
4, 30861, Note_on_c, 1, 73, 0
4, 30912, Note_on_c, 1, 68, 68
4, 31008, Note_on_c, 1, 68, 0
4, 31008, Note_on_c, 1, 66, 68
4, 31053, Note_on_c, 1, 66, 0
4, 31104, Note_on_c, 1, 52, 85
4, 31119, Note_on_c, 1, 52, 0
4, 31120, Note_on_c, 1, 56, 85
4, 31135, Note_on_c, 1, 56, 0
4, 31136, Note_on_c, 1, 57, 85
4, 31151, Note_on_c, 1, 57, 0
4, 31152, Note_on_c, 1, 59, 85
4, 31167, Note_on_c, 1, 59, 0
4, 31168, Note_on_c, 1, 61, 85
4, 31183, Note_on_c, 1, 61, 0
4, 31184, Note_on_c, 1, 63, 85
4, 31199, Note_on_c, 1, 63, 0
4, 31200, Note_on_c, 1, 64, 85
4, 31215, Note_on_c, 1, 64, 0
4, 31216, Note_on_c, 1, 66, 85
4, 31231, Note_on_c, 1, 66, 0
4, 31232, Note_on_c, 1, 68, 85
4, 31247, Note_on_c, 1, 68, 0
4, 31248, Note_on_c, 1, 69, 85
4, 31293, Note_on_c, 1, 69, 0
4, 31296, Note_on_c, 1, 68, 85
4, 31385, Note_on_c, 1, 68, 0
4, 31440, Note_on_c, 1, 63, 85
4, 31440, Note_on_c, 1, 59, 85
4, 31485, Note_on_c, 1, 63, 0
4, 31485, Note_on_c, 1, 59, 0
4, 31488, Note_on_c, 1, 52, 85
4, 31503, Note_on_c, 1, 52, 0
4, 31504, Note_on_c, 1, 56, 85
4, 31519, Note_on_c, 1, 56, 0
4, 31520, Note_on_c, 1, 57, 85
4, 31535, Note_on_c, 1, 57, 0
4, 31536, Note_on_c, 1, 59, 85
4, 31551, Note_on_c, 1, 59, 0
4, 31552, Note_on_c, 1, 61, 85
4, 31567, Note_on_c, 1, 61, 0
4, 31568, Note_on_c, 1, 63, 85
4, 31583, Note_on_c, 1, 63, 0
4, 31584, Note_on_c, 1, 64, 85
4, 31599, Note_on_c, 1, 64, 0
4, 31600, Note_on_c, 1, 66, 85
4, 31615, Note_on_c, 1, 66, 0
4, 31616, Note_on_c, 1, 68, 85
4, 31631, Note_on_c, 1, 68, 0
4, 31632, Note_on_c, 1, 69, 85
4, 31677, Note_on_c, 1, 69, 0
4, 31680, Note_on_c, 1, 68, 85
4, 31769, Note_on_c, 1, 68, 0
4, 31824, Note_on_c, 1, 73, 77
4, 31839, Note_on_c, 1, 73, 0
4, 31840, Note_on_c, 1, 71, 77
4, 31855, Note_on_c, 1, 71, 0
4, 31856, Note_on_c, 1, 69, 77
4, 31871, Note_on_c, 1, 69, 0
4, 31872, Note_on_c, 1, 68, 77
4, 31887, Note_on_c, 1, 68, 0
4, 31888, Note_on_c, 1, 69, 77
4, 31903, Note_on_c, 1, 69, 0
4, 31904, Note_on_c, 1, 71, 77
4, 31919, Note_on_c, 1, 71, 0
4, 31920, Note_on_c, 1, 73, 77
4, 31935, Note_on_c, 1, 73, 0
4, 31936, Note_on_c, 1, 71, 77
4, 31951, Note_on_c, 1, 71, 0
4, 31952, Note_on_c, 1, 69, 77
4, 31967, Note_on_c, 1, 69, 0
4, 31968, Note_on_c, 1, 68, 77
4, 31983, Note_on_c, 1, 68, 0
4, 31984, Note_on_c, 1, 69, 77
4, 31999, Note_on_c, 1, 69, 0
4, 32000, Note_on_c, 1, 71, 77
4, 32015, Note_on_c, 1, 71, 0
4, 32016, Note_on_c, 1, 73, 77
4, 32031, Note_on_c, 1, 73, 0
4, 32032, Note_on_c, 1, 71, 77
4, 32047, Note_on_c, 1, 71, 0
4, 32048, Note_on_c, 1, 69, 77
4, 32063, Note_on_c, 1, 69, 0
4, 32064, Note_on_c, 1, 68, 77
4, 32109, Note_on_c, 1, 68, 0
4, 32112, Note_on_c, 1, 69, 77
4, 32157, Note_on_c, 1, 69, 0
4, 32160, Note_on_c, 1, 71, 77
4, 32205, Note_on_c, 1, 71, 0
4, 32208, Note_on_c, 1, 64, 77
4, 32253, Note_on_c, 1, 64, 0
4, 32256, Note_on_c, 1, 69, 77
4, 32345, Note_on_c, 1, 69, 0
4, 32496, Note_on_c, 1, 56, 77
4, 32541, Note_on_c, 1, 56, 0
4, 32544, Note_on_c, 1, 57, 77
4, 32589, Note_on_c, 1, 57, 0
4, 32592, Note_on_c, 1, 59, 77
4, 32637, Note_on_c, 1, 59, 0
4, 32640, Note_on_c, 1, 52, 77
4, 32655, Note_on_c, 1, 52, 0
4, 32656, Note_on_c, 1, 56, 77
4, 32671, Note_on_c, 1, 56, 0
4, 32672, Note_on_c, 1, 59, 77
4, 32687, Note_on_c, 1, 59, 0
4, 32688, Note_on_c, 1, 64, 77
4, 32703, Note_on_c, 1, 64, 0
4, 32704, Note_on_c, 1, 59, 77
4, 32719, Note_on_c, 1, 59, 0
4, 32720, Note_on_c, 1, 56, 77
4, 32735, Note_on_c, 1, 56, 0
4, 32736, Note_on_c, 1, 52, 77
4, 32781, Note_on_c, 1, 52, 0
4, 32784, Note_on_c, 1, 68, 68
4, 32829, Note_on_c, 1, 68, 0
4, 32832, Note_on_c, 1, 65, 68
4, 32880, Note_on_c, 1, 65, 0
4, 32880, Note_on_c, 1, 66, 68
4, 32925, Note_on_c, 1, 66, 0
4, 32928, Note_on_c, 1, 63, 68
4, 32976, Note_on_c, 1, 63, 0
4, 32976, Note_on_c, 1, 64, 68
4, 33021, Note_on_c, 1, 64, 0
4, 33024, Note_on_c, 1, 57, 68
4, 33069, Note_on_c, 1, 57, 0
4, 33072, Note_on_c, 1, 58, 68
4, 33117, Note_on_c, 1, 58, 0
4, 33120, Note_on_c, 1, 59, 68
4, 33165, Note_on_c, 1, 59, 0
4, 33168, Note_on_c, 1, 47, 68
4, 33213, Note_on_c, 1, 47, 0
4, 33216, Note_on_c, 1, 52, 68
4, 33231, Note_on_c, 1, 52, 0
4, 33232, Note_on_c, 1, 47, 68
4, 33247, Note_on_c, 1, 47, 0
4, 33248, Note_on_c, 1, 44, 68
4, 33263, Note_on_c, 1, 44, 0
4, 33264, Note_on_c, 1, 40, 68
4, 33279, Note_on_c, 1, 40, 0
4, 33280, Note_on_c, 1, 44, 68
4, 33295, Note_on_c, 1, 44, 0
4, 33296, Note_on_c, 1, 47, 68
4, 33311, Note_on_c, 1, 47, 0
4, 33312, Note_on_c, 1, 52, 68
4, 33357, Note_on_c, 1, 52, 0
4, 33360, Note_on_c, 1, 56, 68
4, 33405, Note_on_c, 1, 56, 0
4, 33408, Note_on_c, 1, 53, 68
4, 33456, Note_on_c, 1, 53, 0
4, 33456, Note_on_c, 1, 54, 68
4, 33501, Note_on_c, 1, 54, 0
4, 33504, Note_on_c, 1, 51, 68
4, 33552, Note_on_c, 1, 51, 0
4, 33552, Note_on_c, 1, 52, 68
4, 33597, Note_on_c, 1, 52, 0
4, 33600, Control_c, 1, 64, 127
4, 33600, Note_on_c, 1, 45, 68
4, 33608, Note_on_c, 1, 49, 68
4, 33616, Note_on_c, 1, 54, 68
4, 33693, Note_on_c, 1, 54, 0
4, 33693, Note_on_c, 1, 49, 0
4, 33693, Note_on_c, 1, 45, 0
4, 33696, Control_c, 1, 64, 0
4, 33696, Note_on_c, 1, 56, 68
4, 33741, Note_on_c, 1, 56, 0
4, 33744, Note_on_c, 1, 54, 68
4, 33789, Note_on_c, 1, 54, 0
4, 33792, Note_on_c, 1, 52, 68
4, 33837, Note_on_c, 1, 52, 0
4, 33888, Note_on_c, 1, 64, 68
4, 33903, Note_on_c, 1, 64, 0
4, 33904, Note_on_c, 1, 59, 68
4, 33919, Note_on_c, 1, 59, 0
4, 33920, Note_on_c, 1, 56, 68
4, 33935, Note_on_c, 1, 56, 0
4, 33936, Note_on_c, 1, 52, 68
4, 33951, Note_on_c, 1, 52, 0
4, 33952, Note_on_c, 1, 47, 68
4, 33967, Note_on_c, 1, 47, 0
4, 33968, Note_on_c, 1, 44, 68
4, 33983, Note_on_c, 1, 44, 0
4, 33984, Note_on_c, 1, 40, 68
4, 34051, Note_on_c, 1, 40, 0
4, 34224, Note_on_c, 1, 59, 77
4, 34269, Note_on_c, 1, 59, 0
4, 34272, Note_on_c, 1, 66, 77
4, 34405, Note_on_c, 1, 66, 0
4, 34416, Note_on_c, 1, 68, 77
4, 34461, Note_on_c, 1, 68, 0
4, 34464, Note_on_c, 1, 65, 77
4, 34509, Note_on_c, 1, 65, 0
4, 34512, Note_on_c, 1, 66, 77
4, 34737, Note_on_c, 1, 66, 0
4, 34752, Note_on_c, 1, 68, 77
4, 34797, Note_on_c, 1, 68, 0
4, 34800, Note_on_c, 1, 66, 77
4, 34845, Note_on_c, 1, 66, 0
4, 34992, Note_on_c, 1, 64, 77
4, 35037, Note_on_c, 1, 64, 0
4, 35040, Note_on_c, 1, 71, 77
4, 35173, Note_on_c, 1, 71, 0
4, 35184, Note_on_c, 1, 73, 77
4, 35229, Note_on_c, 1, 73, 0
4, 35232, Note_on_c, 1, 70, 77
4, 35277, Note_on_c, 1, 70, 0
4, 35280, Note_on_c, 1, 71, 77
4, 35325, Note_on_c, 1, 71, 0
4, 35328, Note_on_c, 1, 68, 77
4, 35373, Note_on_c, 1, 68, 0
4, 35376, Note_on_c, 1, 69, 77
4, 35421, Note_on_c, 1, 69, 0
4, 35424, Note_on_c, 1, 66, 77
4, 35469, Note_on_c, 1, 66, 0
4, 35472, Note_on_c, 1, 68, 77
4, 35697, Note_on_c, 1, 68, 0
4, 35712, Control_c, 1, 64, 127
4, 35712, Note_on_c, 1, 56, 76
4, 35728, Note_on_c, 1, 56, 0
4, 35728, Note_on_c, 1, 60, 60
4, 35743, Note_on_c, 1, 60, 0
4, 35744, Note_on_c, 1, 63, 60
4, 35759, Note_on_c, 1, 63, 0
4, 35760, Note_on_c, 1, 56, 60
4, 35775, Note_on_c, 1, 56, 0
4, 35776, Note_on_c, 1, 60, 60
4, 35791, Note_on_c, 1, 60, 0
4, 35792, Note_on_c, 1, 63, 60
4, 35807, Note_on_c, 1, 63, 0
4, 35808, Note_on_c, 1, 56, 60
4, 35823, Note_on_c, 1, 56, 0
4, 35824, Note_on_c, 1, 60, 60
4, 35839, Note_on_c, 1, 60, 0
4, 35840, Note_on_c, 1, 63, 60
4, 35855, Note_on_c, 1, 63, 0
4, 35856, Note_on_c, 1, 56, 60
4, 35871, Note_on_c, 1, 56, 0
4, 35872, Note_on_c, 1, 60, 60
4, 35887, Note_on_c, 1, 60, 0
4, 35888, Note_on_c, 1, 63, 60
4, 35903, Note_on_c, 1, 63, 0
4, 35904, Control_c, 1, 64, 0
4, 35904, Control_c, 1, 64, 127
4, 35904, Note_on_c, 1, 56, 76
4, 35920, Note_on_c, 1, 56, 0
4, 35920, Note_on_c, 1, 61, 60
4, 35935, Note_on_c, 1, 61, 0
4, 35936, Note_on_c, 1, 64, 60
4, 35951, Note_on_c, 1, 64, 0
4, 35952, Note_on_c, 1, 61, 60
4, 35967, Note_on_c, 1, 61, 0
4, 35968, Note_on_c, 1, 56, 60
4, 35983, Note_on_c, 1, 56, 0
4, 35984, Note_on_c, 1, 64, 60
4, 35999, Note_on_c, 1, 64, 0
4, 36000, Note_on_c, 1, 56, 60
4, 36015, Note_on_c, 1, 56, 0
4, 36016, Note_on_c, 1, 61, 60
4, 36031, Note_on_c, 1, 61, 0
4, 36032, Note_on_c, 1, 64, 60
4, 36047, Note_on_c, 1, 64, 0
4, 36048, Note_on_c, 1, 56, 60
4, 36063, Note_on_c, 1, 56, 0
4, 36064, Note_on_c, 1, 61, 60
4, 36079, Note_on_c, 1, 61, 0
4, 36080, Note_on_c, 1, 64, 60
4, 36095, Note_on_c, 1, 64, 0
4, 36096, Control_c, 1, 64, 0
4, 36096, Control_c, 1, 64, 127
4, 36096, Note_on_c, 1, 56, 76
4, 36112, Note_on_c, 1, 56, 0
4, 36112, Note_on_c, 1, 63, 60
4, 36127, Note_on_c, 1, 63, 0
4, 36128, Note_on_c, 1, 66, 60
4, 36143, Note_on_c, 1, 66, 0
4, 36144, Note_on_c, 1, 56, 60
4, 36159, Note_on_c, 1, 56, 0
4, 36160, Note_on_c, 1, 63, 60
4, 36175, Note_on_c, 1, 63, 0
4, 36176, Note_on_c, 1, 66, 60
4, 36191, Note_on_c, 1, 66, 0
4, 36192, Note_on_c, 1, 56, 60
4, 36207, Note_on_c, 1, 56, 0
4, 36208, Note_on_c, 1, 63, 60
4, 36223, Note_on_c, 1, 63, 0
4, 36224, Note_on_c, 1, 66, 60
4, 36239, Note_on_c, 1, 66, 0
4, 36240, Note_on_c, 1, 56, 60
4, 36255, Note_on_c, 1, 56, 0
4, 36256, Note_on_c, 1, 63, 60
4, 36271, Note_on_c, 1, 63, 0
4, 36272, Note_on_c, 1, 66, 60
4, 36287, Note_on_c, 1, 66, 0
4, 36288, Control_c, 1, 64, 0
4, 36288, Control_c, 1, 64, 127
4, 36288, Note_on_c, 1, 56, 76
4, 36304, Note_on_c, 1, 56, 0
4, 36304, Note_on_c, 1, 61, 60
4, 36319, Note_on_c, 1, 61, 0
4, 36320, Note_on_c, 1, 64, 60
4, 36335, Note_on_c, 1, 64, 0
4, 36336, Note_on_c, 1, 61, 60
4, 36351, Note_on_c, 1, 61, 0
4, 36352, Note_on_c, 1, 56, 60
4, 36367, Note_on_c, 1, 56, 0
4, 36368, Note_on_c, 1, 64, 60
4, 36383, Note_on_c, 1, 64, 0
4, 36384, Note_on_c, 1, 56, 60
4, 36399, Note_on_c, 1, 56, 0
4, 36400, Note_on_c, 1, 61, 60
4, 36415, Note_on_c, 1, 61, 0
4, 36416, Note_on_c, 1, 64, 60
4, 36431, Note_on_c, 1, 64, 0
4, 36432, Note_on_c, 1, 56, 60
4, 36447, Note_on_c, 1, 56, 0
4, 36448, Note_on_c, 1, 61, 60
4, 36463, Note_on_c, 1, 61, 0
4, 36464, Note_on_c, 1, 64, 60
4, 36479, Note_on_c, 1, 64, 0
4, 36480, Control_c, 1, 64, 0
4, 36480, Control_c, 1, 64, 127
4, 36480, Note_on_c, 1, 56, 76
4, 36496, Note_on_c, 1, 56, 0
4, 36496, Note_on_c, 1, 59, 60
4, 36511, Note_on_c, 1, 59, 0
4, 36512, Note_on_c, 1, 65, 60
4, 36527, Note_on_c, 1, 65, 0
4, 36528, Note_on_c, 1, 56, 60
4, 36543, Note_on_c, 1, 56, 0
4, 36544, Note_on_c, 1, 59, 60
4, 36559, Note_on_c, 1, 59, 0
4, 36560, Note_on_c, 1, 65, 60
4, 36575, Note_on_c, 1, 65, 0
4, 36576, Note_on_c, 1, 56, 60
4, 36591, Note_on_c, 1, 56, 0
4, 36592, Note_on_c, 1, 59, 60
4, 36607, Note_on_c, 1, 59, 0
4, 36608, Note_on_c, 1, 65, 60
4, 36623, Note_on_c, 1, 65, 0
4, 36624, Note_on_c, 1, 56, 60
4, 36639, Note_on_c, 1, 56, 0
4, 36640, Note_on_c, 1, 59, 60
4, 36655, Note_on_c, 1, 59, 0
4, 36656, Note_on_c, 1, 65, 60
4, 36671, Note_on_c, 1, 65, 0
4, 36672, Note_on_c, 1, 56, 76
4, 36688, Note_on_c, 1, 56, 0
4, 36688, Note_on_c, 1, 59, 60
4, 36703, Note_on_c, 1, 59, 0
4, 36704, Note_on_c, 1, 65, 60
4, 36719, Note_on_c, 1, 65, 0
4, 36720, Note_on_c, 1, 56, 60
4, 36735, Note_on_c, 1, 56, 0
4, 36736, Note_on_c, 1, 59, 60
4, 36751, Note_on_c, 1, 59, 0
4, 36752, Note_on_c, 1, 65, 60
4, 36767, Note_on_c, 1, 65, 0
4, 36768, Note_on_c, 1, 56, 60
4, 36783, Note_on_c, 1, 56, 0
4, 36784, Note_on_c, 1, 59, 60
4, 36799, Note_on_c, 1, 59, 0
4, 36800, Note_on_c, 1, 65, 60
4, 36815, Note_on_c, 1, 65, 0
4, 36816, Note_on_c, 1, 56, 60
4, 36831, Note_on_c, 1, 56, 0
4, 36832, Note_on_c, 1, 59, 60
4, 36847, Note_on_c, 1, 59, 0
4, 36848, Note_on_c, 1, 65, 60
4, 36863, Note_on_c, 1, 65, 0
4, 36864, Control_c, 1, 64, 0
4, 36864, Note_on_c, 1, 66, 77
4, 36864, Note_on_c, 1, 61, 77
4, 36864, Note_on_c, 1, 57, 77
4, 36909, Note_on_c, 1, 66, 0
4, 36909, Note_on_c, 1, 61, 0
4, 36909, Note_on_c, 1, 57, 0
4, 36960, Note_on_c, 1, 66, 77
4, 36960, Note_on_c, 1, 61, 77
4, 36960, Note_on_c, 1, 57, 77
4, 37005, Note_on_c, 1, 66, 0
4, 37005, Note_on_c, 1, 61, 0
4, 37005, Note_on_c, 1, 57, 0
4, 37056, Note_on_c, 1, 61, 77
4, 37189, Note_on_c, 1, 61, 0
4, 37200, Note_on_c, 1, 61, 77
4, 37245, Note_on_c, 1, 61, 0
4, 37248, Note_on_c, 1, 61, 77
4, 37344, Note_on_c, 1, 61, 0
4, 37344, Note_on_c, 1, 60, 77
4, 37521, Note_on_c, 1, 60, 0
4, 37632, Note_on_c, 1, 49, 85
4, 37632, Note_on_c, 1, 37, 85
4, 37721, Note_on_c, 1, 49, 0
4, 37721, Note_on_c, 1, 37, 0
4, 37776, Note_on_c, 1, 54, 85
4, 37796, Note_on_c, 1, 54, 0
4, 37824, Note_on_c, 1, 52, 85
4, 37844, Note_on_c, 1, 52, 0
4, 37872, Note_on_c, 1, 48, 85
4, 37892, Note_on_c, 1, 48, 0
4, 37920, Note_on_c, 1, 49, 85
4, 37940, Note_on_c, 1, 49, 0
4, 37968, Note_on_c, 1, 51, 85
4, 37988, Note_on_c, 1, 51, 0
4, 38016, Note_on_c, 1, 52, 85
4, 38105, Note_on_c, 1, 52, 0
4, 38160, Note_on_c, 1, 54, 85
4, 38180, Note_on_c, 1, 54, 0
4, 38208, Note_on_c, 1, 52, 85
4, 38228, Note_on_c, 1, 52, 0
4, 38256, Note_on_c, 1, 48, 85
4, 38276, Note_on_c, 1, 48, 0
4, 38304, Note_on_c, 1, 49, 85
4, 38324, Note_on_c, 1, 49, 0
4, 38352, Note_on_c, 1, 51, 85
4, 38372, Note_on_c, 1, 51, 0
4, 38400, Note_on_c, 1, 52, 85
4, 38489, Note_on_c, 1, 52, 0
4, 38544, Note_on_c, 1, 54, 85
4, 38589, Note_on_c, 1, 54, 0
4, 38592, Control_c, 1, 64, 127
4, 38592, Note_on_c, 1, 52, 85
4, 38961, Note_on_c, 1, 52, 0
4, 38976, Note_on_c, 1, 52, 85
4, 39065, Note_on_c, 1, 52, 0
4, 39072, Note_on_c, 1, 49, 85
4, 39161, Note_on_c, 1, 49, 0
4, 39168, Control_c, 1, 64, 0
4, 39168, Control_c, 1, 64, 127
4, 39168, Note_on_c, 1, 54, 85
4, 39168, Note_on_c, 1, 42, 85
4, 39345, Note_on_c, 1, 54, 0
4, 39345, Note_on_c, 1, 42, 0
4, 39360, Control_c, 1, 64, 0
4, 39360, Control_c, 1, 64, 127
4, 39360, Note_on_c, 1, 47, 85
4, 39360, Note_on_c, 1, 35, 85
4, 39537, Note_on_c, 1, 47, 0
4, 39537, Note_on_c, 1, 35, 0
4, 39552, Control_c, 1, 64, 0
4, 39552, Control_c, 1, 64, 127
4, 39552, Note_on_c, 1, 52, 85
4, 39552, Note_on_c, 1, 40, 85
4, 39599, Note_on_c, 1, 52, 0
4, 39599, Note_on_c, 1, 40, 0
4, 39600, Control_c, 1, 64, 0
4, 39600, Control_c, 1, 64, 127
4, 39600, Note_on_c, 1, 53, 85
4, 39600, Note_on_c, 1, 41, 85
4, 39647, Note_on_c, 1, 53, 0
4, 39647, Note_on_c, 1, 41, 0
4, 39648, Control_c, 1, 64, 0
4, 39648, Control_c, 1, 64, 127
4, 39648, Note_on_c, 1, 52, 85
4, 39648, Note_on_c, 1, 40, 85
4, 39695, Note_on_c, 1, 52, 0
4, 39695, Note_on_c, 1, 40, 0
4, 39696, Control_c, 1, 64, 0
4, 39696, Control_c, 1, 64, 127
4, 39696, Note_on_c, 1, 50, 85
4, 39696, Note_on_c, 1, 38, 85
4, 39743, Note_on_c, 1, 50, 0
4, 39743, Note_on_c, 1, 38, 0
4, 39744, Control_c, 1, 64, 127
4, 39744, Note_on_c, 1, 49, 85
4, 39744, Note_on_c, 1, 37, 85
4, 39833, Note_on_c, 1, 49, 0
4, 39833, Note_on_c, 1, 37, 0
4, 39840, Control_c, 1, 64, 0
4, 39840, Control_c, 1, 64, 127
4, 39840, Note_on_c, 1, 54, 85
4, 39840, Note_on_c, 1, 42, 85
4, 39929, Note_on_c, 1, 54, 0
4, 39929, Note_on_c, 1, 42, 0
4, 39936, Control_c, 1, 64, 0
4, 39936, Control_c, 1, 64, 127
4, 39936, Note_on_c, 1, 47, 85
4, 39936, Note_on_c, 1, 35, 85
4, 40025, Note_on_c, 1, 47, 0
4, 40025, Note_on_c, 1, 35, 0
4, 40080, Control_c, 1, 64, 0
4, 40080, Control_c, 1, 64, 127
4, 40080, Note_on_c, 1, 54, 85
4, 40080, Note_on_c, 1, 42, 85
4, 40125, Note_on_c, 1, 54, 0
4, 40125, Note_on_c, 1, 42, 0
4, 40128, Control_c, 1, 64, 0
4, 40128, Control_c, 1, 64, 127
4, 40128, Note_on_c, 1, 47, 85
4, 40128, Note_on_c, 1, 35, 85
4, 40217, Note_on_c, 1, 47, 0
4, 40217, Note_on_c, 1, 35, 0
4, 40272, Control_c, 1, 64, 0
4, 40272, Control_c, 1, 64, 127
4, 40272, Note_on_c, 1, 54, 85
4, 40272, Note_on_c, 1, 42, 85
4, 40317, Note_on_c, 1, 54, 0
4, 40317, Note_on_c, 1, 42, 0
4, 40320, Control_c, 1, 64, 0
4, 40320, Control_c, 1, 64, 127
4, 40320, Note_on_c, 1, 47, 85
4, 40320, Note_on_c, 1, 35, 85
4, 40409, Note_on_c, 1, 47, 0
4, 40409, Note_on_c, 1, 35, 0
4, 40416, Note_on_c, 1, 59, 85
4, 40431, Note_on_c, 1, 59, 0
4, 40432, Note_on_c, 1, 54, 85
4, 40447, Note_on_c, 1, 54, 0
4, 40448, Note_on_c, 1, 51, 85
4, 40463, Note_on_c, 1, 51, 0
4, 40464, Note_on_c, 1, 47, 85
4, 40479, Note_on_c, 1, 47, 0
4, 40480, Note_on_c, 1, 42, 85
4, 40495, Note_on_c, 1, 42, 0
4, 40496, Note_on_c, 1, 39, 85
4, 40511, Note_on_c, 1, 39, 0
4, 40512, Note_on_c, 1, 35, 85
4, 40608, Control_c, 1, 64, 0
4, 40697, Note_on_c, 1, 35, 0
4, 40720, Note_on_c, 1, 63, 85
4, 40735, Note_on_c, 1, 63, 0
4, 40736, Note_on_c, 1, 64, 83
4, 40751, Note_on_c, 1, 64, 0
4, 40752, Note_on_c, 1, 66, 82
4, 40767, Note_on_c, 1, 66, 0
4, 40768, Note_on_c, 1, 68, 81
4, 40783, Note_on_c, 1, 68, 0
4, 40784, Note_on_c, 1, 69, 80
4, 40799, Note_on_c, 1, 69, 0
4, 40800, Note_on_c, 1, 71, 77
4, 40933, Note_on_c, 1, 71, 0
4, 40944, Note_on_c, 1, 73, 77
4, 40989, Note_on_c, 1, 73, 0
4, 40992, Note_on_c, 1, 70, 77
4, 41037, Note_on_c, 1, 70, 0
4, 41040, Note_on_c, 1, 71, 77
4, 41265, Note_on_c, 1, 71, 0
4, 41280, Note_on_c, 1, 73, 77
4, 41325, Note_on_c, 1, 73, 0
4, 41328, Note_on_c, 1, 71, 77
4, 41373, Note_on_c, 1, 71, 0
4, 41520, Note_on_c, 1, 52, 77
4, 41565, Note_on_c, 1, 52, 0
4, 41568, Note_on_c, 1, 59, 77
4, 41701, Note_on_c, 1, 59, 0
4, 41712, Note_on_c, 1, 61, 77
4, 41757, Note_on_c, 1, 61, 0
4, 41760, Note_on_c, 1, 58, 77
4, 41805, Note_on_c, 1, 58, 0
4, 41808, Note_on_c, 1, 59, 77
4, 42033, Note_on_c, 1, 59, 0
4, 42048, Note_on_c, 1, 45, 77
4, 42068, Note_on_c, 1, 45, 0
4, 42096, Note_on_c, 1, 52, 77
4, 42116, Note_on_c, 1, 52, 0
4, 42288, Note_on_c, 1, 44, 68
4, 42288, Note_on_c, 1, 32, 68
4, 42333, Note_on_c, 1, 44, 0
4, 42333, Note_on_c, 1, 32, 0
4, 42336, Note_on_c, 1, 44, 68
4, 42336, Note_on_c, 1, 32, 68
4, 42381, Note_on_c, 1, 44, 0
4, 42381, Note_on_c, 1, 32, 0
4, 42480, Note_on_c, 1, 45, 68
4, 42480, Note_on_c, 1, 33, 68
4, 42525, Note_on_c, 1, 45, 0
4, 42525, Note_on_c, 1, 33, 0
4, 42528, Note_on_c, 1, 45, 68
4, 42528, Note_on_c, 1, 33, 68
4, 42573, Note_on_c, 1, 45, 0
4, 42573, Note_on_c, 1, 33, 0
4, 42672, Note_on_c, 1, 47, 68
4, 42672, Note_on_c, 1, 35, 68
4, 42717, Note_on_c, 1, 47, 0
4, 42717, Note_on_c, 1, 35, 0
4, 42720, Note_on_c, 1, 47, 68
4, 42720, Note_on_c, 1, 35, 68
4, 42765, Note_on_c, 1, 47, 0
4, 42765, Note_on_c, 1, 35, 0
4, 42768, Note_on_c, 1, 47, 68
4, 42768, Note_on_c, 1, 35, 68
4, 42813, Note_on_c, 1, 47, 0
4, 42813, Note_on_c, 1, 35, 0
4, 42864, Note_on_c, 1, 52, 68
4, 42864, Note_on_c, 1, 40, 68
4, 42909, Note_on_c, 1, 52, 0
4, 42909, Note_on_c, 1, 40, 0
4, 42912, Note_on_c, 1, 52, 68
4, 42912, Note_on_c, 1, 40, 68
4, 42957, Note_on_c, 1, 52, 0
4, 42957, Note_on_c, 1, 40, 0
4, 42960, Note_on_c, 1, 52, 68
4, 42960, Note_on_c, 1, 40, 68
4, 43005, Note_on_c, 1, 52, 0
4, 43005, Note_on_c, 1, 40, 0
4, 43056, Note_on_c, 1, 44, 68
4, 43056, Note_on_c, 1, 32, 68
4, 43101, Note_on_c, 1, 44, 0
4, 43101, Note_on_c, 1, 32, 0
4, 43104, Note_on_c, 1, 44, 68
4, 43104, Note_on_c, 1, 32, 68
4, 43149, Note_on_c, 1, 44, 0
4, 43149, Note_on_c, 1, 32, 0
4, 43248, Note_on_c, 1, 45, 68
4, 43248, Note_on_c, 1, 33, 68
4, 43293, Note_on_c, 1, 45, 0
4, 43293, Note_on_c, 1, 33, 0
4, 43296, Note_on_c, 1, 45, 68
4, 43296, Note_on_c, 1, 33, 68
4, 43341, Note_on_c, 1, 45, 0
4, 43341, Note_on_c, 1, 33, 0
4, 43440, Note_on_c, 1, 47, 68
4, 43440, Note_on_c, 1, 35, 68
4, 43485, Note_on_c, 1, 47, 0
4, 43485, Note_on_c, 1, 35, 0
4, 43488, Note_on_c, 1, 47, 68
4, 43488, Note_on_c, 1, 35, 68
4, 43533, Note_on_c, 1, 47, 0
4, 43533, Note_on_c, 1, 35, 0
4, 43536, Note_on_c, 1, 47, 68
4, 43536, Note_on_c, 1, 35, 68
4, 43581, Note_on_c, 1, 47, 0
4, 43581, Note_on_c, 1, 35, 0
4, 43632, Note_on_c, 1, 52, 68
4, 43647, Note_on_c, 1, 52, 0
4, 43648, Note_on_c, 1, 56, 69
4, 43663, Note_on_c, 1, 56, 0
4, 43664, Note_on_c, 1, 59, 71
4, 43679, Note_on_c, 1, 59, 0
4, 43680, Note_on_c, 1, 64, 73
4, 43695, Note_on_c, 1, 64, 0
4, 43696, Note_on_c, 1, 59, 75
4, 43711, Note_on_c, 1, 59, 0
4, 43712, Note_on_c, 1, 56, 77
4, 43727, Note_on_c, 1, 56, 0
4, 43728, Note_on_c, 1, 62, 75
4, 43743, Note_on_c, 1, 62, 0
4, 43744, Note_on_c, 1, 59, 74
4, 43759, Note_on_c, 1, 59, 0
4, 43760, Note_on_c, 1, 56, 73
4, 43775, Note_on_c, 1, 56, 0
4, 43776, Note_on_c, 1, 53, 60
4, 43821, Note_on_c, 1, 53, 0
4, 43824, Note_on_c, 1, 69, 60
4, 43872, Note_on_c, 1, 69, 0
4, 43872, Note_on_c, 1, 68, 60
4, 43917, Note_on_c, 1, 68, 0
4, 43920, Note_on_c, 1, 80, 60
4, 43965, Note_on_c, 1, 80, 0
4, 44016, Note_on_c, 1, 73, 60
4, 44061, Note_on_c, 1, 73, 0
4, 44064, Note_on_c, 1, 73, 60
4, 44109, Note_on_c, 1, 73, 0
4, 44160, Note_on_c, 1, 71, 60
4, 44205, Note_on_c, 1, 71, 0
4, 44208, Note_on_c, 1, 71, 60
4, 44253, Note_on_c, 1, 71, 0
4, 44256, Note_on_c, 1, 73, 60
4, 44301, Note_on_c, 1, 73, 0
4, 44304, Note_on_c, 1, 73, 60
4, 44349, Note_on_c, 1, 73, 0
4, 44352, Note_on_c, 1, 66, 60
4, 44397, Note_on_c, 1, 66, 0
4, 44416, Note_on_c, 1, 54, 85
4, 44431, Note_on_c, 1, 54, 0
4, 44432, Note_on_c, 1, 56, 85
4, 44447, Note_on_c, 1, 56, 0
4, 44448, Note_on_c, 1, 57, 85
4, 44463, Note_on_c, 1, 57, 0
4, 44464, Note_on_c, 1, 56, 85
4, 44479, Note_on_c, 1, 56, 0
4, 44480, Note_on_c, 1, 54, 85
4, 44495, Note_on_c, 1, 54, 0
4, 44496, Note_on_c, 1, 52, 85
4, 44511, Note_on_c, 1, 52, 0
4, 44512, Note_on_c, 1, 51, 85
4, 44527, Note_on_c, 1, 51, 0
4, 44528, Note_on_c, 1, 49, 85
4, 44543, Note_on_c, 1, 49, 0
4, 44544, Note_on_c, 1, 47, 85
4, 44589, Note_on_c, 1, 47, 0
4, 44640, Note_on_c, 1, 66, 68
4, 44685, Note_on_c, 1, 66, 0
4, 44784, Note_on_c, 1, 71, 68
4, 44829, Note_on_c, 1, 71, 0
4, 44832, Note_on_c, 1, 71, 68
4, 44877, Note_on_c, 1, 71, 0
4, 44880, Note_on_c, 1, 69, 68
4, 44925, Note_on_c, 1, 69, 0
4, 44928, Note_on_c, 1, 71, 68
4, 45017, Note_on_c, 1, 71, 0
4, 45072, Note_on_c, 1, 76, 68
4, 45117, Note_on_c, 1, 76, 0
4, 45120, Note_on_c, 1, 76, 68
4, 45165, Note_on_c, 1, 76, 0
4, 45168, Note_on_c, 1, 75, 68
4, 45213, Note_on_c, 1, 75, 0
4, 45216, Note_on_c, 1, 59, 68
4, 45231, Note_on_c, 1, 59, 0
4, 45232, Note_on_c, 1, 61, 69
4, 45247, Note_on_c, 1, 61, 0
4, 45248, Note_on_c, 1, 59, 70
4, 45263, Note_on_c, 1, 59, 0
4, 45264, Note_on_c, 1, 57, 71
4, 45279, Note_on_c, 1, 57, 0
4, 45280, Note_on_c, 1, 56, 72
4, 45295, Note_on_c, 1, 56, 0
4, 45296, Note_on_c, 1, 54, 73
4, 45311, Note_on_c, 1, 54, 0
4, 45312, Note_on_c, 1, 52, 74
4, 45401, Note_on_c, 1, 52, 0
4, 45456, Note_on_c, 1, 57, 85
4, 45476, Note_on_c, 1, 57, 0
4, 45504, Note_on_c, 1, 56, 85
4, 45524, Note_on_c, 1, 56, 0
4, 45552, Note_on_c, 1, 51, 85
4, 45572, Note_on_c, 1, 51, 0
4, 45600, Note_on_c, 1, 52, 85
4, 45620, Note_on_c, 1, 52, 0
4, 45648, Note_on_c, 1, 54, 85
4, 45668, Note_on_c, 1, 54, 0
4, 45696, Note_on_c, 1, 56, 85
4, 45785, Note_on_c, 1, 56, 0
4, 45840, Note_on_c, 1, 57, 85
4, 45860, Note_on_c, 1, 57, 0
4, 45888, Note_on_c, 1, 56, 85
4, 45908, Note_on_c, 1, 56, 0
4, 45936, Note_on_c, 1, 51, 85
4, 45956, Note_on_c, 1, 51, 0
4, 45984, Note_on_c, 1, 52, 85
4, 46004, Note_on_c, 1, 52, 0
4, 46032, Note_on_c, 1, 54, 85
4, 46052, Note_on_c, 1, 54, 0
4, 46080, Note_on_c, 1, 56, 85
4, 46169, Note_on_c, 1, 56, 0
4, 46320, Note_on_c, 1, 64, 68
4, 46365, Note_on_c, 1, 64, 0
4, 46368, Note_on_c, 1, 64, 68
4, 46413, Note_on_c, 1, 64, 0
4, 46512, Note_on_c, 1, 71, 68
4, 46557, Note_on_c, 1, 71, 0
4, 46560, Note_on_c, 1, 73, 68
4, 46605, Note_on_c, 1, 73, 0
4, 46656, Note_on_c, 1, 68, 68
4, 46752, Note_on_c, 1, 68, 0
4, 46752, Note_on_c, 1, 66, 68
4, 46797, Note_on_c, 1, 66, 0
4, 46848, Note_on_c, 1, 52, 85
4, 46863, Note_on_c, 1, 52, 0
4, 46864, Note_on_c, 1, 56, 85
4, 46879, Note_on_c, 1, 56, 0
4, 46880, Note_on_c, 1, 57, 85
4, 46895, Note_on_c, 1, 57, 0
4, 46896, Note_on_c, 1, 59, 85
4, 46911, Note_on_c, 1, 59, 0
4, 46912, Note_on_c, 1, 61, 85
4, 46927, Note_on_c, 1, 61, 0
4, 46928, Note_on_c, 1, 63, 85
4, 46943, Note_on_c, 1, 63, 0
4, 46944, Note_on_c, 1, 64, 85
4, 46959, Note_on_c, 1, 64, 0
4, 46960, Note_on_c, 1, 66, 85
4, 46975, Note_on_c, 1, 66, 0
4, 46976, Note_on_c, 1, 68, 85
4, 46991, Note_on_c, 1, 68, 0
4, 46992, Note_on_c, 1, 69, 85
4, 47037, Note_on_c, 1, 69, 0
4, 47040, Note_on_c, 1, 68, 85
4, 47129, Note_on_c, 1, 68, 0
4, 47184, Note_on_c, 1, 63, 85
4, 47184, Note_on_c, 1, 59, 85
4, 47229, Note_on_c, 1, 63, 0
4, 47229, Note_on_c, 1, 59, 0
4, 47232, Note_on_c, 1, 52, 85
4, 47247, Note_on_c, 1, 52, 0
4, 47248, Note_on_c, 1, 56, 85
4, 47263, Note_on_c, 1, 56, 0
4, 47264, Note_on_c, 1, 57, 85
4, 47279, Note_on_c, 1, 57, 0
4, 47280, Note_on_c, 1, 59, 85
4, 47295, Note_on_c, 1, 59, 0
4, 47296, Note_on_c, 1, 61, 85
4, 47311, Note_on_c, 1, 61, 0
4, 47312, Note_on_c, 1, 63, 85
4, 47327, Note_on_c, 1, 63, 0
4, 47328, Note_on_c, 1, 64, 85
4, 47343, Note_on_c, 1, 64, 0
4, 47344, Note_on_c, 1, 66, 85
4, 47359, Note_on_c, 1, 66, 0
4, 47360, Note_on_c, 1, 68, 85
4, 47375, Note_on_c, 1, 68, 0
4, 47376, Note_on_c, 1, 69, 85
4, 47421, Note_on_c, 1, 69, 0
4, 47424, Note_on_c, 1, 68, 85
4, 47513, Note_on_c, 1, 68, 0
4, 47568, Note_on_c, 1, 73, 77
4, 47583, Note_on_c, 1, 73, 0
4, 47584, Note_on_c, 1, 71, 77
4, 47599, Note_on_c, 1, 71, 0
4, 47600, Note_on_c, 1, 69, 77
4, 47615, Note_on_c, 1, 69, 0
4, 47616, Note_on_c, 1, 68, 77
4, 47631, Note_on_c, 1, 68, 0
4, 47632, Note_on_c, 1, 69, 77
4, 47647, Note_on_c, 1, 69, 0
4, 47648, Note_on_c, 1, 71, 77
4, 47663, Note_on_c, 1, 71, 0
4, 47664, Note_on_c, 1, 73, 77
4, 47679, Note_on_c, 1, 73, 0
4, 47680, Note_on_c, 1, 71, 77
4, 47695, Note_on_c, 1, 71, 0
4, 47696, Note_on_c, 1, 69, 77
4, 47711, Note_on_c, 1, 69, 0
4, 47712, Note_on_c, 1, 68, 77
4, 47727, Note_on_c, 1, 68, 0
4, 47728, Note_on_c, 1, 69, 77
4, 47743, Note_on_c, 1, 69, 0
4, 47744, Note_on_c, 1, 71, 77
4, 47759, Note_on_c, 1, 71, 0
4, 47760, Note_on_c, 1, 73, 77
4, 47775, Note_on_c, 1, 73, 0
4, 47776, Note_on_c, 1, 71, 77
4, 47791, Note_on_c, 1, 71, 0
4, 47792, Note_on_c, 1, 69, 77
4, 47807, Note_on_c, 1, 69, 0
4, 47808, Note_on_c, 1, 68, 77
4, 47853, Note_on_c, 1, 68, 0
4, 47856, Note_on_c, 1, 69, 77
4, 47901, Note_on_c, 1, 69, 0
4, 47904, Note_on_c, 1, 71, 77
4, 47949, Note_on_c, 1, 71, 0
4, 47952, Note_on_c, 1, 64, 77
4, 47997, Note_on_c, 1, 64, 0
4, 48000, Note_on_c, 1, 69, 77
4, 48089, Note_on_c, 1, 69, 0
4, 48240, Note_on_c, 1, 56, 77
4, 48285, Note_on_c, 1, 56, 0
4, 48288, Note_on_c, 1, 57, 77
4, 48333, Note_on_c, 1, 57, 0
4, 48336, Note_on_c, 1, 59, 77
4, 48381, Note_on_c, 1, 59, 0
4, 48384, Note_on_c, 1, 52, 77
4, 48399, Note_on_c, 1, 52, 0
4, 48400, Note_on_c, 1, 56, 77
4, 48415, Note_on_c, 1, 56, 0
4, 48416, Note_on_c, 1, 59, 77
4, 48431, Note_on_c, 1, 59, 0
4, 48432, Note_on_c, 1, 64, 77
4, 48447, Note_on_c, 1, 64, 0
4, 48448, Note_on_c, 1, 59, 77
4, 48463, Note_on_c, 1, 59, 0
4, 48464, Note_on_c, 1, 56, 77
4, 48479, Note_on_c, 1, 56, 0
4, 48480, Note_on_c, 1, 52, 77
4, 48525, Note_on_c, 1, 52, 0
4, 48528, Note_on_c, 1, 68, 68
4, 48573, Note_on_c, 1, 68, 0
4, 48576, Note_on_c, 1, 65, 68
4, 48624, Note_on_c, 1, 65, 0
4, 48624, Note_on_c, 1, 66, 68
4, 48669, Note_on_c, 1, 66, 0
4, 48672, Note_on_c, 1, 63, 68
4, 48720, Note_on_c, 1, 63, 0
4, 48720, Note_on_c, 1, 64, 68
4, 48765, Note_on_c, 1, 64, 0
4, 48768, Note_on_c, 1, 57, 68
4, 48813, Note_on_c, 1, 57, 0
4, 48816, Note_on_c, 1, 58, 68
4, 48861, Note_on_c, 1, 58, 0
4, 48864, Note_on_c, 1, 59, 68
4, 48909, Note_on_c, 1, 59, 0
4, 48912, Note_on_c, 1, 47, 68
4, 48957, Note_on_c, 1, 47, 0
4, 48960, Note_on_c, 1, 52, 68
4, 48975, Note_on_c, 1, 52, 0
4, 48976, Note_on_c, 1, 47, 68
4, 48991, Note_on_c, 1, 47, 0
4, 48992, Note_on_c, 1, 44, 68
4, 49007, Note_on_c, 1, 44, 0
4, 49008, Note_on_c, 1, 40, 68
4, 49023, Note_on_c, 1, 40, 0
4, 49024, Note_on_c, 1, 44, 68
4, 49039, Note_on_c, 1, 44, 0
4, 49040, Note_on_c, 1, 47, 68
4, 49055, Note_on_c, 1, 47, 0
4, 49056, Note_on_c, 1, 52, 68
4, 49101, Note_on_c, 1, 52, 0
4, 49104, Note_on_c, 1, 56, 68
4, 49149, Note_on_c, 1, 56, 0
4, 49152, Note_on_c, 1, 53, 68
4, 49200, Note_on_c, 1, 53, 0
4, 49200, Note_on_c, 1, 54, 68
4, 49245, Note_on_c, 1, 54, 0
4, 49248, Note_on_c, 1, 51, 68
4, 49296, Note_on_c, 1, 51, 0
4, 49296, Note_on_c, 1, 52, 68
4, 49341, Note_on_c, 1, 52, 0
4, 49344, Control_c, 1, 64, 127
4, 49344, Note_on_c, 1, 45, 68
4, 49352, Note_on_c, 1, 49, 68
4, 49360, Note_on_c, 1, 54, 68
4, 49437, Note_on_c, 1, 54, 0
4, 49437, Note_on_c, 1, 49, 0
4, 49437, Note_on_c, 1, 45, 0
4, 49440, Control_c, 1, 64, 0
4, 49440, Note_on_c, 1, 56, 68
4, 49485, Note_on_c, 1, 56, 0
4, 49488, Note_on_c, 1, 54, 68
4, 49533, Note_on_c, 1, 54, 0
4, 49536, Note_on_c, 1, 52, 68
4, 49581, Note_on_c, 1, 52, 0
4, 49632, Note_on_c, 1, 64, 68
4, 49647, Note_on_c, 1, 64, 0
4, 49648, Note_on_c, 1, 59, 68
4, 49663, Note_on_c, 1, 59, 0
4, 49664, Note_on_c, 1, 56, 68
4, 49679, Note_on_c, 1, 56, 0
4, 49680, Note_on_c, 1, 52, 68
4, 49695, Note_on_c, 1, 52, 0
4, 49696, Note_on_c, 1, 47, 68
4, 49711, Note_on_c, 1, 47, 0
4, 49712, Note_on_c, 1, 44, 68
4, 49727, Note_on_c, 1, 44, 0
4, 49728, Note_on_c, 1, 40, 68
4, 49795, Note_on_c, 1, 40, 0
4, 49920, Note_on_c, 1, 61, 4
4, 50009, Note_on_c, 1, 61, 0
4, 50016, End_track
5, 0, Start_track
5, 0, Program_c, 1, 0
5, 0, Control_c, 1, 7, 127
5, 0, Control_c, 1, 10, 64
5, 384, Note_on_c, 1, 68, 77
5, 429, Note_on_c, 1, 68, 0
5, 432, Note_on_c, 1, 64, 77
5, 477, Note_on_c, 1, 64, 0
5, 480, Note_on_c, 1, 63, 77
5, 525, Note_on_c, 1, 63, 0
5, 528, Note_on_c, 1, 64, 77
5, 573, Note_on_c, 1, 64, 0
5, 576, Note_on_c, 1, 69, 77
5, 621, Note_on_c, 1, 69, 0
5, 624, Note_on_c, 1, 68, 77
5, 669, Note_on_c, 1, 68, 0
5, 1152, Note_on_c, 1, 56, 77
5, 1197, Note_on_c, 1, 56, 0
5, 1200, Note_on_c, 1, 52, 77
5, 1245, Note_on_c, 1, 52, 0
5, 1248, Note_on_c, 1, 51, 77
5, 1293, Note_on_c, 1, 51, 0
5, 1296, Note_on_c, 1, 52, 77
5, 1341, Note_on_c, 1, 52, 0
5, 4080, Note_on_c, 1, 59, 77
5, 4125, Note_on_c, 1, 59, 0
5, 4128, Note_on_c, 1, 59, 77
5, 4173, Note_on_c, 1, 59, 0
5, 4176, Note_on_c, 1, 61, 77
5, 4221, Note_on_c, 1, 61, 0
5, 4224, Note_on_c, 1, 63, 77
5, 4313, Note_on_c, 1, 63, 0
5, 4368, Note_on_c, 1, 64, 77
5, 4413, Note_on_c, 1, 64, 0
5, 4416, Note_on_c, 1, 66, 77
5, 4505, Note_on_c, 1, 66, 0
5, 4512, Note_on_c, 1, 54, 77
5, 4527, Note_on_c, 1, 54, 0
5, 4528, Note_on_c, 1, 56, 77
5, 4543, Note_on_c, 1, 56, 0
5, 4544, Note_on_c, 1, 54, 77
5, 4559, Note_on_c, 1, 54, 0
5, 4560, Note_on_c, 1, 52, 77
5, 4575, Note_on_c, 1, 52, 0
5, 4576, Note_on_c, 1, 51, 77
5, 4591, Note_on_c, 1, 51, 0
5, 4592, Note_on_c, 1, 49, 77
5, 4607, Note_on_c, 1, 49, 0
5, 5616, Note_on_c, 1, 52, 68
5, 5661, Note_on_c, 1, 52, 0
5, 5664, Note_on_c, 1, 52, 68
5, 5709, Note_on_c, 1, 52, 0
5, 5808, Note_on_c, 1, 63, 68
5, 5856, Note_on_c, 1, 63, 0
5, 5856, Note_on_c, 1, 64, 68
5, 5901, Note_on_c, 1, 64, 0
5, 8736, Note_on_c, 1, 42, 68
5, 8825, Note_on_c, 1, 42, 0
5, 9600, Note_on_c, 1, 68, 77
5, 9645, Note_on_c, 1, 68, 0
5, 9648, Note_on_c, 1, 64, 77
5, 9693, Note_on_c, 1, 64, 0
5, 9696, Note_on_c, 1, 63, 77
5, 9741, Note_on_c, 1, 63, 0
5, 9744, Note_on_c, 1, 64, 77
5, 9789, Note_on_c, 1, 64, 0
5, 9792, Note_on_c, 1, 69, 77
5, 9837, Note_on_c, 1, 69, 0
5, 9840, Note_on_c, 1, 68, 77
5, 9885, Note_on_c, 1, 68, 0
5, 10368, Note_on_c, 1, 56, 77
5, 10413, Note_on_c, 1, 56, 0
5, 10416, Note_on_c, 1, 52, 77
5, 10461, Note_on_c, 1, 52, 0
5, 10464, Note_on_c, 1, 51, 77
5, 10509, Note_on_c, 1, 51, 0
5, 10512, Note_on_c, 1, 52, 77
5, 10557, Note_on_c, 1, 52, 0
5, 13296, Note_on_c, 1, 59, 77
5, 13341, Note_on_c, 1, 59, 0
5, 13344, Note_on_c, 1, 59, 77
5, 13389, Note_on_c, 1, 59, 0
5, 13392, Note_on_c, 1, 61, 77
5, 13437, Note_on_c, 1, 61, 0
5, 13440, Note_on_c, 1, 63, 77
5, 13529, Note_on_c, 1, 63, 0
5, 13584, Note_on_c, 1, 64, 77
5, 13629, Note_on_c, 1, 64, 0
5, 13632, Note_on_c, 1, 66, 77
5, 13721, Note_on_c, 1, 66, 0
5, 13728, Note_on_c, 1, 54, 77
5, 13743, Note_on_c, 1, 54, 0
5, 13744, Note_on_c, 1, 56, 77
5, 13759, Note_on_c, 1, 56, 0
5, 13760, Note_on_c, 1, 54, 77
5, 13775, Note_on_c, 1, 54, 0
5, 13776, Note_on_c, 1, 52, 77
5, 13791, Note_on_c, 1, 52, 0
5, 13792, Note_on_c, 1, 51, 77
5, 13807, Note_on_c, 1, 51, 0
5, 13808, Note_on_c, 1, 49, 77
5, 13823, Note_on_c, 1, 49, 0
5, 14832, Note_on_c, 1, 52, 68
5, 14877, Note_on_c, 1, 52, 0
5, 14880, Note_on_c, 1, 52, 68
5, 14925, Note_on_c, 1, 52, 0
5, 15024, Note_on_c, 1, 63, 68
5, 15072, Note_on_c, 1, 63, 0
5, 15072, Note_on_c, 1, 64, 68
5, 15117, Note_on_c, 1, 64, 0
5, 17952, Note_on_c, 1, 42, 68
5, 18041, Note_on_c, 1, 42, 0
5, 18816, Note_on_c, 1, 63, 77
5, 18861, Note_on_c, 1, 63, 0
5, 18864, Note_on_c, 1, 59, 77
5, 18909, Note_on_c, 1, 59, 0
5, 18912, Note_on_c, 1, 58, 77
5, 18957, Note_on_c, 1, 58, 0
5, 18960, Note_on_c, 1, 59, 77
5, 19005, Note_on_c, 1, 59, 0
5, 19008, Note_on_c, 1, 64, 77
5, 19053, Note_on_c, 1, 64, 0
5, 19056, Note_on_c, 1, 63, 77
5, 19101, Note_on_c, 1, 63, 0
5, 19776, Note_on_c, 1, 64, 77
5, 19821, Note_on_c, 1, 64, 0
5, 19824, Note_on_c, 1, 61, 77
5, 19869, Note_on_c, 1, 61, 0
5, 19872, Note_on_c, 1, 60, 77
5, 19917, Note_on_c, 1, 60, 0
5, 19920, Note_on_c, 1, 61, 77
5, 19965, Note_on_c, 1, 61, 0
5, 21312, Note_on_c, 1, 57, 77
5, 21445, Note_on_c, 1, 57, 0
5, 21456, Note_on_c, 1, 57, 77
5, 21501, Note_on_c, 1, 57, 0
5, 21504, Note_on_c, 1, 56, 77
5, 21681, Note_on_c, 1, 56, 0
5, 22944, Control_c, 1, 64, 127
5, 22944, Note_on_c, 1, 40, 85
5, 23129, Note_on_c, 1, 40, 0
5, 23136, Note_on_c, 1, 44, 85
5, 23225, Note_on_c, 1, 44, 0
5, 23232, Note_on_c, 1, 45, 85
5, 23321, Note_on_c, 1, 45, 0
5, 23328, Note_on_c, 1, 41, 85
5, 23417, Note_on_c, 1, 41, 0
5, 23424, Control_c, 1, 64, 0
5, 25344, Note_on_c, 1, 68, 85
5, 25389, Note_on_c, 1, 68, 0
5, 25392, Note_on_c, 1, 64, 85
5, 25437, Note_on_c, 1, 64, 0
5, 25440, Note_on_c, 1, 63, 85
5, 25485, Note_on_c, 1, 63, 0
5, 25488, Note_on_c, 1, 64, 85
5, 25533, Note_on_c, 1, 64, 0
5, 25536, Note_on_c, 1, 69, 85
5, 25581, Note_on_c, 1, 69, 0
5, 25584, Note_on_c, 1, 68, 85
5, 25629, Note_on_c, 1, 68, 0
5, 26112, Note_on_c, 1, 56, 85
5, 26157, Note_on_c, 1, 56, 0
5, 26160, Note_on_c, 1, 52, 85
5, 26205, Note_on_c, 1, 52, 0
5, 26208, Note_on_c, 1, 51, 85
5, 26253, Note_on_c, 1, 51, 0
5, 26256, Note_on_c, 1, 52, 85
5, 26301, Note_on_c, 1, 52, 0
5, 28080, Note_on_c, 1, 66, 85
5, 28128, Note_on_c, 1, 66, 0
5, 28128, Note_on_c, 1, 65, 85
5, 28173, Note_on_c, 1, 65, 0
5, 28176, Note_on_c, 1, 77, 85
5, 28221, Note_on_c, 1, 77, 0
5, 28272, Note_on_c, 1, 66, 85
5, 28317, Note_on_c, 1, 66, 0
5, 28320, Note_on_c, 1, 66, 85
5, 28365, Note_on_c, 1, 66, 0
5, 28368, Note_on_c, 1, 69, 85
5, 28413, Note_on_c, 1, 69, 0
5, 28896, Note_on_c, 1, 63, 68
5, 28941, Note_on_c, 1, 63, 0
5, 29040, Note_on_c, 1, 64, 68
5, 29085, Note_on_c, 1, 64, 0
5, 29088, Note_on_c, 1, 64, 68
5, 29133, Note_on_c, 1, 64, 0
5, 29136, Note_on_c, 1, 66, 68
5, 29181, Note_on_c, 1, 66, 0
5, 29184, Note_on_c, 1, 68, 68
5, 29273, Note_on_c, 1, 68, 0
5, 29328, Note_on_c, 1, 69, 68
5, 29373, Note_on_c, 1, 69, 0
5, 29376, Note_on_c, 1, 71, 68
5, 29465, Note_on_c, 1, 71, 0
5, 30576, Note_on_c, 1, 57, 68
5, 30621, Note_on_c, 1, 57, 0
5, 30624, Note_on_c, 1, 57, 68
5, 30669, Note_on_c, 1, 57, 0
5, 30768, Note_on_c, 1, 68, 68
5, 30813, Note_on_c, 1, 68, 0
5, 30816, Note_on_c, 1, 69, 68
5, 30861, Note_on_c, 1, 69, 0
5, 30912, Note_on_c, 1, 59, 68
5, 31053, Note_on_c, 1, 59, 0
5, 33696, Note_on_c, 1, 47, 68
5, 33785, Note_on_c, 1, 47, 0
5, 34560, Note_on_c, 1, 63, 77
5, 34605, Note_on_c, 1, 63, 0
5, 34608, Note_on_c, 1, 59, 77
5, 34653, Note_on_c, 1, 59, 0
5, 34656, Note_on_c, 1, 58, 77
5, 34701, Note_on_c, 1, 58, 0
5, 34704, Note_on_c, 1, 59, 77
5, 34749, Note_on_c, 1, 59, 0
5, 34752, Note_on_c, 1, 64, 77
5, 34797, Note_on_c, 1, 64, 0
5, 34800, Note_on_c, 1, 63, 77
5, 34845, Note_on_c, 1, 63, 0
5, 35520, Note_on_c, 1, 64, 77
5, 35565, Note_on_c, 1, 64, 0
5, 35568, Note_on_c, 1, 61, 77
5, 35613, Note_on_c, 1, 61, 0
5, 35616, Note_on_c, 1, 60, 77
5, 35661, Note_on_c, 1, 60, 0
5, 35664, Note_on_c, 1, 61, 77
5, 35709, Note_on_c, 1, 61, 0
5, 37056, Note_on_c, 1, 57, 77
5, 37189, Note_on_c, 1, 57, 0
5, 37200, Note_on_c, 1, 57, 77
5, 37245, Note_on_c, 1, 57, 0
5, 37248, Note_on_c, 1, 56, 77
5, 37425, Note_on_c, 1, 56, 0
5, 38688, Control_c, 1, 64, 127
5, 38688, Note_on_c, 1, 40, 85
5, 38873, Note_on_c, 1, 40, 0
5, 38880, Note_on_c, 1, 44, 85
5, 38969, Note_on_c, 1, 44, 0
5, 38976, Note_on_c, 1, 45, 85
5, 39065, Note_on_c, 1, 45, 0
5, 39072, Note_on_c, 1, 41, 85
5, 39161, Note_on_c, 1, 41, 0
5, 39168, Control_c, 1, 64, 0
5, 41088, Note_on_c, 1, 68, 85
5, 41133, Note_on_c, 1, 68, 0
5, 41136, Note_on_c, 1, 64, 85
5, 41181, Note_on_c, 1, 64, 0
5, 41184, Note_on_c, 1, 63, 85
5, 41229, Note_on_c, 1, 63, 0
5, 41232, Note_on_c, 1, 64, 85
5, 41277, Note_on_c, 1, 64, 0
5, 41280, Note_on_c, 1, 69, 85
5, 41325, Note_on_c, 1, 69, 0
5, 41328, Note_on_c, 1, 68, 85
5, 41373, Note_on_c, 1, 68, 0
5, 41856, Note_on_c, 1, 56, 85
5, 41901, Note_on_c, 1, 56, 0
5, 41904, Note_on_c, 1, 52, 85
5, 41949, Note_on_c, 1, 52, 0
5, 41952, Note_on_c, 1, 51, 85
5, 41997, Note_on_c, 1, 51, 0
5, 42000, Note_on_c, 1, 52, 85
5, 42045, Note_on_c, 1, 52, 0
5, 43824, Note_on_c, 1, 66, 85
5, 43872, Note_on_c, 1, 66, 0
5, 43872, Note_on_c, 1, 65, 85
5, 43917, Note_on_c, 1, 65, 0
5, 43920, Note_on_c, 1, 77, 85
5, 43965, Note_on_c, 1, 77, 0
5, 44016, Note_on_c, 1, 66, 85
5, 44061, Note_on_c, 1, 66, 0
5, 44064, Note_on_c, 1, 66, 85
5, 44109, Note_on_c, 1, 66, 0
5, 44112, Note_on_c, 1, 69, 85
5, 44157, Note_on_c, 1, 69, 0
5, 44640, Note_on_c, 1, 63, 68
5, 44685, Note_on_c, 1, 63, 0
5, 44784, Note_on_c, 1, 64, 68
5, 44829, Note_on_c, 1, 64, 0
5, 44832, Note_on_c, 1, 64, 68
5, 44877, Note_on_c, 1, 64, 0
5, 44880, Note_on_c, 1, 66, 68
5, 44925, Note_on_c, 1, 66, 0
5, 44928, Note_on_c, 1, 68, 68
5, 45017, Note_on_c, 1, 68, 0
5, 45072, Note_on_c, 1, 69, 68
5, 45117, Note_on_c, 1, 69, 0
5, 45120, Note_on_c, 1, 71, 68
5, 45209, Note_on_c, 1, 71, 0
5, 46320, Note_on_c, 1, 57, 68
5, 46365, Note_on_c, 1, 57, 0
5, 46368, Note_on_c, 1, 57, 68
5, 46413, Note_on_c, 1, 57, 0
5, 46512, Note_on_c, 1, 68, 68
5, 46557, Note_on_c, 1, 68, 0
5, 46560, Note_on_c, 1, 69, 68
5, 46605, Note_on_c, 1, 69, 0
5, 46656, Note_on_c, 1, 59, 68
5, 46797, Note_on_c, 1, 59, 0
5, 49440, Note_on_c, 1, 47, 68
5, 49529, Note_on_c, 1, 47, 0
5, 49920, End_track
6, 0, Start_track
6, 0, Title_t, "Sonata V   Haydn  "
6, 0, End_track
0, 0, End_of_file
