0, 0, Header, 1, 6, 96
1, 0, Start_track
1, 0, Copyright_t, "Copyright  2000 <copyright holder>"
1, 0, Text_t, "Sonata III\015\012"
1, 0, Text_t, "<composer>\015\012"
1, 0, Sequencer_specific, 16, 68, 87, 77, 90, 86, 82, 83, 78, 32, 55, 46, 48, 46, 56, 46, 48
1, 0, Time_signature, 4, 2, 24, 8
1, 0, Tempo, 120000
1, 0, Key_signature, -3, "major"
1, 336, Tempo, 625000
1, 17232, Tempo, 625000
1, 40608, Tempo, 1200000
1, 40656, Tempo, 625000
1, 60576, Tempo, 1200000
1, 60624, Tempo, 625000
1, 74112, End_track
2, 0, Start_track
2, 0, Program_c, 0, 0
2, 0, Control_c, 0, 7, 127
2, 0, Control_c, 0, 10, 64
2, 336, Note_on_c, 0, 67, 75
2, 356, Note_on_c, 0, 67, 0
2, 384, Note_on_c, 0, 70, 75
2, 525, Note_on_c, 0, 70, 0
2, 528, Note_on_c, 0, 67, 75
2, 562, Note_on_c, 0, 67, 0
2, 564, Note_on_c, 0, 68, 75
2, 576, Note_on_c, 0, 68, 0
2, 576, Note_on_c, 0, 70, 75
2, 717, Note_on_c, 0, 70, 0
2, 720, Note_on_c, 0, 67, 75
2, 754, Note_on_c, 0, 67, 0
2, 756, Note_on_c, 0, 68, 75
2, 768, Note_on_c, 0, 68, 0
2, 768, Note_on_c, 0, 70, 75
2, 788, Note_on_c, 0, 70, 0
2, 816, Note_on_c, 0, 67, 75
2, 850, Note_on_c, 0, 67, 0
2, 852, Note_on_c, 0, 68, 75
2, 864, Note_on_c, 0, 68, 0
2, 864, Note_on_c, 0, 70, 75
2, 884, Note_on_c, 0, 70, 0
2, 912, Note_on_c, 0, 67, 75
2, 946, Note_on_c, 0, 67, 0
2, 948, Note_on_c, 0, 68, 75
2, 960, Note_on_c, 0, 68, 0
2, 960, Note_on_c, 0, 70, 75
2, 980, Note_on_c, 0, 70, 0
2, 1008, Note_on_c, 0, 75, 75
2, 1028, Note_on_c, 0, 75, 0
2, 1104, Note_on_c, 0, 63, 75
2, 1124, Note_on_c, 0, 63, 0
2, 1152, Note_on_c, 0, 67, 75
2, 1285, Note_on_c, 0, 67, 0
2, 1296, Note_on_c, 0, 65, 75
2, 1308, Note_on_c, 0, 65, 0
2, 1308, Note_on_c, 0, 63, 75
2, 1341, Note_on_c, 0, 63, 0
2, 1344, Note_on_c, 0, 62, 75
2, 1440, Note_on_c, 0, 62, 0
2, 1440, Note_on_c, 0, 60, 75
2, 1485, Note_on_c, 0, 60, 0
2, 1488, Note_on_c, 0, 68, 75
2, 1511, Note_on_c, 0, 68, 0
2, 1512, Note_on_c, 0, 65, 75
2, 1535, Note_on_c, 0, 65, 0
2, 1536, Note_on_c, 0, 63, 75
2, 1559, Note_on_c, 0, 63, 0
2, 1560, Note_on_c, 0, 62, 75
2, 1583, Note_on_c, 0, 62, 0
2, 1584, Note_on_c, 0, 67, 75
2, 1607, Note_on_c, 0, 67, 0
2, 1608, Note_on_c, 0, 65, 75
2, 1631, Note_on_c, 0, 65, 0
2, 1632, Note_on_c, 0, 63, 75
2, 1655, Note_on_c, 0, 63, 0
2, 1656, Note_on_c, 0, 62, 75
2, 1679, Note_on_c, 0, 62, 0
2, 1680, Note_on_c, 0, 60, 75
2, 1703, Note_on_c, 0, 60, 0
2, 1704, Note_on_c, 0, 58, 75
2, 1727, Note_on_c, 0, 58, 0
2, 1728, Note_on_c, 0, 56, 75
2, 1824, Note_on_c, 0, 56, 0
2, 1824, Note_on_c, 0, 55, 75
2, 1869, Note_on_c, 0, 55, 0
2, 1872, Note_on_c, 0, 67, 75
2, 1892, Note_on_c, 0, 67, 0
2, 1920, Note_on_c, 0, 70, 75
2, 2061, Note_on_c, 0, 70, 0
2, 2064, Note_on_c, 0, 67, 75
2, 2098, Note_on_c, 0, 67, 0
2, 2100, Note_on_c, 0, 68, 75
2, 2112, Note_on_c, 0, 68, 0
2, 2112, Note_on_c, 0, 70, 75
2, 2253, Note_on_c, 0, 70, 0
2, 2256, Note_on_c, 0, 67, 75
2, 2268, Note_on_c, 0, 67, 0
2, 2268, Note_on_c, 0, 68, 75
2, 2280, Note_on_c, 0, 68, 0
2, 2280, Note_on_c, 0, 67, 75
2, 2292, Note_on_c, 0, 67, 0
2, 2292, Note_on_c, 0, 68, 75
2, 2304, Note_on_c, 0, 68, 0
2, 2304, Note_on_c, 0, 70, 75
2, 2324, Note_on_c, 0, 70, 0
2, 2352, Note_on_c, 0, 67, 75
2, 2364, Note_on_c, 0, 67, 0
2, 2364, Note_on_c, 0, 68, 75
2, 2376, Note_on_c, 0, 68, 0
2, 2376, Note_on_c, 0, 67, 75
2, 2388, Note_on_c, 0, 67, 0
2, 2388, Note_on_c, 0, 68, 75
2, 2400, Note_on_c, 0, 68, 0
2, 2400, Note_on_c, 0, 70, 75
2, 2420, Note_on_c, 0, 70, 0
2, 2448, Note_on_c, 0, 67, 75
2, 2460, Note_on_c, 0, 67, 0
2, 2460, Note_on_c, 0, 68, 75
2, 2472, Note_on_c, 0, 68, 0
2, 2472, Note_on_c, 0, 67, 75
2, 2484, Note_on_c, 0, 67, 0
2, 2484, Note_on_c, 0, 68, 75
2, 2496, Note_on_c, 0, 68, 0
2, 2496, Note_on_c, 0, 70, 75
2, 2516, Note_on_c, 0, 70, 0
2, 2544, Note_on_c, 0, 75, 75
2, 2564, Note_on_c, 0, 75, 0
2, 2640, Note_on_c, 0, 63, 75
2, 2660, Note_on_c, 0, 63, 0
2, 2688, Note_on_c, 0, 67, 75
2, 2821, Note_on_c, 0, 67, 0
2, 2832, Note_on_c, 0, 65, 75
2, 2844, Note_on_c, 0, 65, 0
2, 2844, Note_on_c, 0, 63, 75
2, 2877, Note_on_c, 0, 63, 0
2, 2880, Note_on_c, 0, 62, 75
2, 3024, Note_on_c, 0, 62, 0
2, 3024, Note_on_c, 0, 60, 75
2, 3044, Note_on_c, 0, 60, 0
2, 3072, Note_on_c, 0, 68, 75
2, 3205, Note_on_c, 0, 68, 0
2, 3216, Note_on_c, 0, 67, 75
2, 3228, Note_on_c, 0, 67, 0
2, 3228, Note_on_c, 0, 65, 75
2, 3261, Note_on_c, 0, 65, 0
2, 3264, Note_on_c, 0, 63, 75
2, 3408, Note_on_c, 0, 63, 0
2, 3408, Note_on_c, 0, 62, 75
2, 3428, Note_on_c, 0, 62, 0
2, 3456, Note_on_c, 0, 70, 75
2, 3589, Note_on_c, 0, 70, 0
2, 3600, Note_on_c, 0, 68, 76
2, 3612, Note_on_c, 0, 68, 0
2, 3612, Note_on_c, 0, 67, 76
2, 3645, Note_on_c, 0, 67, 0
2, 3648, Note_on_c, 0, 65, 76
2, 3792, Note_on_c, 0, 65, 0
2, 3792, Note_on_c, 0, 63, 78
2, 3812, Note_on_c, 0, 63, 0
2, 3840, Note_on_c, 0, 68, 78
2, 3973, Note_on_c, 0, 68, 0
2, 3984, Note_on_c, 0, 67, 79
2, 4029, Note_on_c, 0, 67, 0
2, 4032, Note_on_c, 0, 72, 80
2, 4121, Note_on_c, 0, 72, 0
2, 4128, Note_on_c, 0, 70, 81
2, 4247, Note_on_c, 0, 70, 0
2, 4248, Note_on_c, 0, 68, 82
2, 4293, Note_on_c, 0, 68, 0
2, 4296, Note_on_c, 0, 67, 82
2, 4341, Note_on_c, 0, 67, 0
2, 4344, Note_on_c, 0, 65, 83
2, 4389, Note_on_c, 0, 65, 0
2, 4392, Note_on_c, 0, 62, 83
2, 4415, Note_on_c, 0, 62, 0
2, 4416, Note_on_c, 0, 63, 83
2, 4439, Note_on_c, 0, 63, 0
2, 4440, Control_c, 0, 64, 127
2, 4440, Note_on_c, 0, 55, 84
2, 4463, Note_on_c, 0, 55, 0
2, 4464, Note_on_c, 0, 58, 84
2, 4487, Note_on_c, 0, 58, 0
2, 4488, Note_on_c, 0, 55, 84
2, 4511, Note_on_c, 0, 55, 0
2, 4512, Note_on_c, 0, 63, 84
2, 4535, Note_on_c, 0, 63, 0
2, 4536, Note_on_c, 0, 58, 84
2, 4559, Note_on_c, 0, 58, 0
2, 4560, Note_on_c, 0, 67, 84
2, 4583, Note_on_c, 0, 67, 0
2, 4584, Note_on_c, 0, 63, 84
2, 4607, Note_on_c, 0, 63, 0
2, 4608, Note_on_c, 0, 70, 84
2, 4631, Note_on_c, 0, 70, 0
2, 4632, Note_on_c, 0, 67, 84
2, 4655, Note_on_c, 0, 67, 0
2, 4656, Note_on_c, 0, 75, 84
2, 4679, Note_on_c, 0, 75, 0
2, 4680, Control_c, 0, 64, 0
2, 4680, Note_on_c, 0, 67, 84
2, 4703, Note_on_c, 0, 67, 0
2, 4704, Note_on_c, 0, 70, 84
2, 4727, Note_on_c, 0, 70, 0
2, 4728, Note_on_c, 0, 68, 84
2, 4751, Note_on_c, 0, 68, 0
2, 4752, Note_on_c, 0, 67, 84
2, 4775, Note_on_c, 0, 67, 0
2, 4776, Note_on_c, 0, 65, 84
2, 4799, Note_on_c, 0, 65, 0
2, 4800, Note_on_c, 0, 67, 84
2, 4848, Note_on_c, 0, 67, 0
2, 4848, Note_on_c, 0, 75, 84
2, 4868, Note_on_c, 0, 75, 0
2, 4896, Note_on_c, 0, 77, 84
2, 4906, Note_on_c, 0, 77, 0
2, 4906, Note_on_c, 0, 75, 84
2, 4916, Note_on_c, 0, 75, 0
2, 4916, Note_on_c, 0, 77, 84
2, 4926, Note_on_c, 0, 77, 0
2, 4926, Note_on_c, 0, 75, 84
2, 4936, Note_on_c, 0, 75, 0
2, 4936, Note_on_c, 0, 77, 84
2, 4946, Note_on_c, 0, 77, 0
2, 4946, Note_on_c, 0, 75, 84
2, 4956, Note_on_c, 0, 75, 0
2, 4956, Note_on_c, 0, 77, 84
2, 4965, Note_on_c, 0, 77, 0
2, 4965, Note_on_c, 0, 75, 84
2, 4974, Note_on_c, 0, 75, 0
2, 4974, Note_on_c, 0, 74, 84
2, 4983, Note_on_c, 0, 74, 0
2, 4983, Note_on_c, 0, 75, 84
2, 5015, Note_on_c, 0, 75, 0
2, 5016, Note_on_c, 0, 70, 84
2, 5039, Note_on_c, 0, 70, 0
2, 5040, Note_on_c, 0, 79, 84
2, 5063, Note_on_c, 0, 79, 0
2, 5064, Note_on_c, 0, 70, 84
2, 5087, Note_on_c, 0, 70, 0
2, 5088, Note_on_c, 0, 70, 84
2, 5111, Note_on_c, 0, 70, 0
2, 5112, Note_on_c, 0, 68, 84
2, 5135, Note_on_c, 0, 68, 0
2, 5136, Note_on_c, 0, 67, 84
2, 5159, Note_on_c, 0, 67, 0
2, 5160, Note_on_c, 0, 65, 84
2, 5183, Note_on_c, 0, 65, 0
2, 5184, Note_on_c, 0, 66, 84
2, 5208, Note_on_c, 0, 66, 0
2, 5208, Note_on_c, 0, 67, 84
2, 5231, Note_on_c, 0, 67, 0
2, 5232, Note_on_c, 0, 75, 84
2, 5255, Note_on_c, 0, 75, 0
2, 5256, Note_on_c, 0, 67, 84
2, 5279, Note_on_c, 0, 67, 0
2, 5280, Note_on_c, 0, 70, 84
2, 5303, Note_on_c, 0, 70, 0
2, 5304, Note_on_c, 0, 68, 84
2, 5327, Note_on_c, 0, 68, 0
2, 5328, Note_on_c, 0, 67, 84
2, 5351, Note_on_c, 0, 67, 0
2, 5352, Note_on_c, 0, 65, 84
2, 5375, Note_on_c, 0, 65, 0
2, 5376, Note_on_c, 0, 67, 84
2, 5391, Note_on_c, 0, 67, 0
2, 5392, Note_on_c, 0, 79, 84
2, 5407, Note_on_c, 0, 79, 0
2, 5408, Note_on_c, 0, 77, 84
2, 5423, Note_on_c, 0, 77, 0
2, 5424, Note_on_c, 0, 75, 84
2, 5439, Note_on_c, 0, 75, 0
2, 5440, Note_on_c, 0, 74, 84
2, 5455, Note_on_c, 0, 74, 0
2, 5456, Note_on_c, 0, 72, 84
2, 5471, Note_on_c, 0, 72, 0
2, 5472, Note_on_c, 0, 70, 84
2, 5517, Note_on_c, 0, 70, 0
2, 5520, Note_on_c, 0, 68, 84
2, 5530, Note_on_c, 0, 68, 0
2, 5530, Note_on_c, 0, 70, 84
2, 5540, Note_on_c, 0, 70, 0
2, 5540, Note_on_c, 0, 68, 84
2, 5550, Note_on_c, 0, 68, 0
2, 5550, Note_on_c, 0, 67, 84
2, 5559, Note_on_c, 0, 67, 0
2, 5559, Note_on_c, 0, 68, 84
2, 5568, Note_on_c, 0, 68, 0
2, 5568, Note_on_c, 0, 67, 84
2, 5613, Note_on_c, 0, 67, 0
2, 5616, Note_on_c, 0, 79, 75
2, 5636, Note_on_c, 0, 79, 0
2, 5664, Note_on_c, 0, 77, 75
2, 5687, Note_on_c, 0, 77, 0
2, 5688, Note_on_c, 0, 75, 75
2, 5711, Note_on_c, 0, 75, 0
2, 5712, Note_on_c, 0, 74, 75
2, 5735, Note_on_c, 0, 74, 0
2, 5736, Note_on_c, 0, 72, 75
2, 5805, Note_on_c, 0, 72, 0
2, 5808, Note_on_c, 0, 71, 75
2, 5897, Note_on_c, 0, 71, 0
2, 5904, Note_on_c, 0, 77, 75
2, 5975, Note_on_c, 0, 77, 0
2, 5976, Note_on_c, 0, 75, 75
2, 5999, Note_on_c, 0, 75, 0
2, 6000, Note_on_c, 0, 79, 75
2, 6024, Note_on_c, 0, 79, 0
2, 6024, Note_on_c, 0, 77, 75
2, 6047, Note_on_c, 0, 77, 0
2, 6048, Note_on_c, 0, 75, 75
2, 6072, Note_on_c, 0, 75, 0
2, 6072, Note_on_c, 0, 74, 75
2, 6095, Note_on_c, 0, 74, 0
2, 6096, Note_on_c, 0, 72, 75
2, 6120, Note_on_c, 0, 72, 0
2, 6120, Note_on_c, 0, 70, 75
2, 6143, Note_on_c, 0, 70, 0
2, 6144, Note_on_c, 0, 70, 91
2, 6192, Note_on_c, 0, 70, 0
2, 6192, Note_on_c, 0, 69, 75
2, 6281, Note_on_c, 0, 69, 0
2, 6288, Note_on_c, 0, 75, 75
2, 6377, Note_on_c, 0, 75, 0
2, 6384, Note_on_c, 0, 74, 75
2, 6473, Note_on_c, 0, 74, 0
2, 6480, Note_on_c, 0, 77, 75
2, 6503, Note_on_c, 0, 77, 0
2, 6504, Note_on_c, 0, 74, 75
2, 6551, Note_on_c, 0, 74, 0
2, 6552, Note_on_c, 0, 72, 76
2, 6597, Note_on_c, 0, 72, 0
2, 6600, Note_on_c, 0, 71, 78
2, 6645, Note_on_c, 0, 71, 0
2, 6648, Note_on_c, 0, 72, 80
2, 6693, Note_on_c, 0, 72, 0
2, 6696, Note_on_c, 0, 70, 82
2, 6743, Note_on_c, 0, 70, 0
2, 6744, Note_on_c, 0, 69, 84
2, 6767, Note_on_c, 0, 69, 0
2, 6768, Note_on_c, 0, 67, 84
2, 6791, Note_on_c, 0, 67, 0
2, 6792, Note_on_c, 0, 65, 84
2, 6815, Note_on_c, 0, 65, 0
2, 6816, Note_on_c, 0, 65, 75
2, 6836, Note_on_c, 0, 65, 0
2, 6864, Note_on_c, 0, 77, 76
2, 6887, Note_on_c, 0, 77, 0
2, 6888, Note_on_c, 0, 74, 77
2, 6935, Note_on_c, 0, 74, 0
2, 6936, Note_on_c, 0, 72, 78
2, 6981, Note_on_c, 0, 72, 0
2, 6984, Note_on_c, 0, 71, 79
2, 7029, Note_on_c, 0, 71, 0
2, 7032, Note_on_c, 0, 72, 81
2, 7077, Note_on_c, 0, 72, 0
2, 7080, Note_on_c, 0, 70, 82
2, 7127, Note_on_c, 0, 70, 0
2, 7128, Note_on_c, 0, 69, 84
2, 7151, Note_on_c, 0, 69, 0
2, 7152, Note_on_c, 0, 67, 84
2, 7175, Note_on_c, 0, 67, 0
2, 7176, Note_on_c, 0, 65, 84
2, 7199, Note_on_c, 0, 65, 0
2, 7200, Note_on_c, 0, 65, 84
2, 7220, Note_on_c, 0, 65, 0
2, 7248, Note_on_c, 0, 70, 75
2, 7268, Note_on_c, 0, 70, 0
2, 7296, Note_on_c, 0, 74, 75
2, 7429, Note_on_c, 0, 74, 0
2, 7440, Note_on_c, 0, 77, 75
2, 7463, Note_on_c, 0, 77, 0
2, 7464, Note_on_c, 0, 74, 75
2, 7487, Note_on_c, 0, 74, 0
2, 7488, Note_on_c, 0, 75, 75
2, 7621, Note_on_c, 0, 75, 0
2, 7632, Note_on_c, 0, 72, 75
2, 7655, Note_on_c, 0, 72, 0
2, 7656, Note_on_c, 0, 69, 75
2, 7679, Note_on_c, 0, 69, 0
2, 7680, Note_on_c, 0, 63, 75
2, 7820, Note_on_c, 0, 63, 0
2, 7824, Note_on_c, 0, 75, 75
2, 7848, Note_on_c, 0, 75, 0
2, 7848, Note_on_c, 0, 72, 75
2, 7871, Note_on_c, 0, 72, 0
2, 7872, Note_on_c, 0, 74, 75
2, 8005, Note_on_c, 0, 74, 0
2, 8016, Note_on_c, 0, 70, 75
2, 8028, Note_on_c, 0, 70, 0
2, 8028, Note_on_c, 0, 72, 75
2, 8040, Note_on_c, 0, 72, 0
2, 8040, Note_on_c, 0, 70, 75
2, 8052, Note_on_c, 0, 70, 0
2, 8052, Note_on_c, 0, 72, 75
2, 8064, Note_on_c, 0, 72, 0
2, 8064, Note_on_c, 0, 74, 75
2, 8084, Note_on_c, 0, 74, 0
2, 8112, Note_on_c, 0, 74, 75
2, 8124, Note_on_c, 0, 74, 0
2, 8124, Note_on_c, 0, 75, 75
2, 8136, Note_on_c, 0, 75, 0
2, 8136, Note_on_c, 0, 74, 75
2, 8148, Note_on_c, 0, 74, 0
2, 8148, Note_on_c, 0, 75, 75
2, 8160, Note_on_c, 0, 75, 0
2, 8160, Note_on_c, 0, 77, 75
2, 8180, Note_on_c, 0, 77, 0
2, 8208, Note_on_c, 0, 82, 75
2, 8253, Note_on_c, 0, 82, 0
2, 8256, Note_on_c, 0, 82, 75
2, 8280, Note_on_c, 0, 82, 0
2, 8280, Note_on_c, 0, 79, 75
2, 8303, Note_on_c, 0, 79, 0
2, 8304, Note_on_c, 0, 79, 75
2, 8393, Note_on_c, 0, 79, 0
2, 8400, Note_on_c, 0, 82, 75
2, 8445, Note_on_c, 0, 82, 0
2, 8448, Note_on_c, 0, 82, 75
2, 8472, Note_on_c, 0, 82, 0
2, 8472, Note_on_c, 0, 77, 75
2, 8495, Note_on_c, 0, 77, 0
2, 8496, Note_on_c, 0, 77, 75
2, 8585, Note_on_c, 0, 77, 0
2, 8592, Note_on_c, 0, 82, 75
2, 8616, Note_on_c, 0, 82, 0
2, 8616, Note_on_c, 0, 77, 75
2, 8639, Note_on_c, 0, 77, 0
2, 8640, Note_on_c, 0, 77, 75
2, 8664, Note_on_c, 0, 77, 0
2, 8664, Note_on_c, 0, 76, 75
2, 8685, Note_on_c, 0, 76, 0
2, 8688, Note_on_c, 0, 76, 75
2, 8733, Note_on_c, 0, 76, 0
2, 8736, Note_on_c, 0, 76, 75
2, 8781, Note_on_c, 0, 76, 0
2, 8784, Note_on_c, 0, 76, 75
2, 8829, Note_on_c, 0, 76, 0
2, 8832, Note_on_c, 0, 73, 75
2, 8844, Note_on_c, 0, 73, 0
2, 8844, Note_on_c, 0, 85, 91
2, 8962, Note_on_c, 0, 85, 0
2, 8964, Note_on_c, 0, 76, 91
2, 8969, Note_on_c, 0, 76, 0
2, 8976, Note_on_c, 0, 77, 75
2, 8984, Note_on_c, 0, 77, 0
2, 8984, Note_on_c, 0, 76, 75
2, 8992, Note_on_c, 0, 76, 0
2, 8992, Note_on_c, 0, 77, 75
2, 9000, Note_on_c, 0, 77, 0
2, 9000, Note_on_c, 0, 76, 75
2, 9008, Note_on_c, 0, 76, 0
2, 9008, Note_on_c, 0, 74, 75
2, 9016, Note_on_c, 0, 74, 0
2, 9016, Note_on_c, 0, 76, 75
2, 9024, Note_on_c, 0, 76, 0
2, 9024, Note_on_c, 0, 77, 75
2, 9069, Note_on_c, 0, 77, 0
2, 9072, Note_on_c, 0, 77, 75
2, 9161, Note_on_c, 0, 77, 0
2, 9168, Note_on_c, 0, 79, 75
2, 9192, Note_on_c, 0, 79, 0
2, 9192, Note_on_c, 0, 75, 75
2, 9215, Note_on_c, 0, 75, 0
2, 9216, Note_on_c, 0, 75, 75
2, 9240, Note_on_c, 0, 75, 0
2, 9240, Note_on_c, 0, 74, 75
2, 9263, Note_on_c, 0, 74, 0
2, 9264, Note_on_c, 0, 77, 75
2, 9288, Note_on_c, 0, 77, 0
2, 9288, Note_on_c, 0, 70, 75
2, 9311, Note_on_c, 0, 70, 0
2, 9312, Note_on_c, 0, 70, 75
2, 9336, Note_on_c, 0, 70, 0
2, 9336, Note_on_c, 0, 69, 75
2, 9359, Note_on_c, 0, 69, 0
2, 9360, Note_on_c, 0, 72, 75
2, 9384, Note_on_c, 0, 72, 0
2, 9384, Note_on_c, 0, 69, 75
2, 9407, Note_on_c, 0, 69, 0
2, 9408, Note_on_c, 0, 70, 75
2, 9428, Note_on_c, 0, 70, 0
2, 9456, Note_on_c, 0, 74, 75
2, 9476, Note_on_c, 0, 74, 0
2, 9504, Note_on_c, 0, 72, 75
2, 9524, Note_on_c, 0, 72, 0
2, 9552, Note_on_c, 0, 75, 75
2, 9572, Note_on_c, 0, 75, 0
2, 9600, Note_on_c, 0, 75, 75
2, 9624, Note_on_c, 0, 75, 0
2, 9624, Note_on_c, 0, 74, 75
2, 9647, Note_on_c, 0, 74, 0
2, 9648, Note_on_c, 0, 77, 75
2, 9672, Note_on_c, 0, 77, 0
2, 9672, Note_on_c, 0, 70, 75
2, 9695, Note_on_c, 0, 70, 0
2, 9696, Note_on_c, 0, 70, 75
2, 9720, Note_on_c, 0, 70, 0
2, 9720, Note_on_c, 0, 69, 75
2, 9743, Note_on_c, 0, 69, 0
2, 9744, Note_on_c, 0, 72, 75
2, 9768, Note_on_c, 0, 72, 0
2, 9768, Note_on_c, 0, 69, 75
2, 9791, Note_on_c, 0, 69, 0
2, 9792, Note_on_c, 0, 70, 75
2, 9812, Note_on_c, 0, 70, 0
2, 9840, Note_on_c, 0, 74, 75
2, 9860, Note_on_c, 0, 74, 0
2, 9888, Note_on_c, 0, 72, 75
2, 9908, Note_on_c, 0, 72, 0
2, 9936, Note_on_c, 0, 75, 75
2, 9956, Note_on_c, 0, 75, 0
2, 9984, Note_on_c, 0, 74, 75
2, 9994, Note_on_c, 0, 74, 0
2, 10008, Note_on_c, 0, 82, 75
2, 10031, Note_on_c, 0, 82, 0
2, 10032, Note_on_c, 0, 81, 75
2, 10055, Note_on_c, 0, 81, 0
2, 10056, Note_on_c, 0, 82, 75
2, 10079, Note_on_c, 0, 82, 0
2, 10104, Note_on_c, 0, 80, 75
2, 10127, Note_on_c, 0, 80, 0
2, 10128, Note_on_c, 0, 79, 75
2, 10151, Note_on_c, 0, 79, 0
2, 10152, Note_on_c, 0, 78, 75
2, 10175, Note_on_c, 0, 78, 0
2, 10200, Note_on_c, 0, 79, 75
2, 10223, Note_on_c, 0, 79, 0
2, 10224, Note_on_c, 0, 78, 75
2, 10247, Note_on_c, 0, 78, 0
2, 10248, Note_on_c, 0, 79, 75
2, 10271, Note_on_c, 0, 79, 0
2, 10272, Note_on_c, 0, 77, 75
2, 10295, Note_on_c, 0, 77, 0
2, 10296, Note_on_c, 0, 75, 75
2, 10319, Note_on_c, 0, 75, 0
2, 10320, Note_on_c, 0, 74, 75
2, 10343, Note_on_c, 0, 74, 0
2, 10344, Note_on_c, 0, 72, 75
2, 10367, Note_on_c, 0, 72, 0
2, 10368, Note_on_c, 0, 70, 75
2, 10457, Note_on_c, 0, 70, 0
2, 10464, Note_on_c, 0, 74, 75
2, 10487, Note_on_c, 0, 74, 0
2, 10488, Note_on_c, 0, 72, 75
2, 10511, Note_on_c, 0, 72, 0
2, 10512, Note_on_c, 0, 70, 75
2, 10535, Note_on_c, 0, 70, 0
2, 10536, Note_on_c, 0, 69, 75
2, 10559, Note_on_c, 0, 69, 0
2, 10560, Note_on_c, 0, 70, 75
2, 10605, Note_on_c, 0, 70, 0
2, 10608, Note_on_c, 0, 86, 75
2, 10653, Note_on_c, 0, 86, 0
2, 10656, Note_on_c, 0, 84, 75
2, 10679, Note_on_c, 0, 84, 0
2, 10680, Note_on_c, 0, 82, 75
2, 10703, Note_on_c, 0, 82, 0
2, 10704, Note_on_c, 0, 81, 75
2, 10727, Note_on_c, 0, 81, 0
2, 10728, Note_on_c, 0, 79, 75
2, 10797, Note_on_c, 0, 79, 0
2, 10800, Note_on_c, 0, 77, 75
2, 10882, Note_on_c, 0, 77, 0
2, 10884, Note_on_c, 0, 76, 75
2, 10896, Note_on_c, 0, 76, 0
2, 10896, Note_on_c, 0, 82, 75
2, 10944, Note_on_c, 0, 82, 0
2, 10944, Note_on_c, 0, 81, 75
2, 10964, Note_on_c, 0, 81, 0
2, 10992, Note_on_c, 0, 82, 75
2, 11037, Note_on_c, 0, 82, 0
2, 11040, Note_on_c, 0, 81, 75
2, 11063, Note_on_c, 0, 81, 0
2, 11064, Note_on_c, 0, 79, 75
2, 11087, Note_on_c, 0, 79, 0
2, 11088, Note_on_c, 0, 77, 75
2, 11111, Note_on_c, 0, 77, 0
2, 11112, Note_on_c, 0, 75, 75
2, 11181, Note_on_c, 0, 75, 0
2, 11184, Note_on_c, 0, 74, 75
2, 11266, Note_on_c, 0, 74, 0
2, 11268, Note_on_c, 0, 73, 75
2, 11280, Note_on_c, 0, 73, 0
2, 11280, Note_on_c, 0, 79, 75
2, 11328, Note_on_c, 0, 79, 0
2, 11328, Note_on_c, 0, 77, 75
2, 11348, Note_on_c, 0, 77, 0
2, 11376, Note_on_c, 0, 79, 75
2, 11421, Note_on_c, 0, 79, 0
2, 11424, Note_on_c, 0, 77, 75
2, 11447, Note_on_c, 0, 77, 0
2, 11448, Note_on_c, 0, 75, 75
2, 11471, Note_on_c, 0, 75, 0
2, 11472, Note_on_c, 0, 74, 75
2, 11495, Note_on_c, 0, 74, 0
2, 11496, Note_on_c, 0, 72, 75
2, 11565, Note_on_c, 0, 72, 0
2, 11568, Note_on_c, 0, 70, 75
2, 11650, Note_on_c, 0, 70, 0
2, 11652, Note_on_c, 0, 69, 75
2, 11664, Note_on_c, 0, 69, 0
2, 11664, Note_on_c, 0, 75, 75
2, 11757, Note_on_c, 0, 75, 0
2, 11760, Note_on_c, 0, 74, 75
2, 11805, Note_on_c, 0, 74, 0
2, 11844, Note_on_c, 0, 75, 75
2, 11856, Note_on_c, 0, 75, 0
2, 11856, Note_on_c, 0, 77, 75
2, 11862, Note_on_c, 0, 77, 0
2, 11862, Note_on_c, 0, 75, 75
2, 11868, Note_on_c, 0, 75, 0
2, 11868, Note_on_c, 0, 74, 75
2, 11874, Note_on_c, 0, 74, 0
2, 11874, Note_on_c, 0, 75, 75
2, 11938, Note_on_c, 0, 75, 0
2, 11940, Note_on_c, 0, 74, 75
2, 11952, Note_on_c, 0, 74, 0
2, 11952, Note_on_c, 0, 75, 75
2, 11958, Note_on_c, 0, 75, 0
2, 11958, Note_on_c, 0, 74, 75
2, 11964, Note_on_c, 0, 74, 0
2, 11964, Note_on_c, 0, 72, 75
2, 11970, Note_on_c, 0, 72, 0
2, 11970, Note_on_c, 0, 74, 75
2, 11999, Note_on_c, 0, 74, 0
2, 12036, Note_on_c, 0, 75, 75
2, 12048, Note_on_c, 0, 75, 0
2, 12048, Note_on_c, 0, 77, 75
2, 12054, Note_on_c, 0, 77, 0
2, 12054, Note_on_c, 0, 75, 75
2, 12060, Note_on_c, 0, 75, 0
2, 12060, Note_on_c, 0, 74, 75
2, 12066, Note_on_c, 0, 74, 0
2, 12066, Note_on_c, 0, 75, 75
2, 12095, Note_on_c, 0, 75, 0
2, 12096, Note_on_c, 0, 74, 75
2, 12163, Note_on_c, 0, 74, 0
2, 12168, Note_on_c, 0, 75, 75
2, 12178, Note_on_c, 0, 75, 0
2, 12192, Note_on_c, 0, 77, 75
2, 12202, Note_on_c, 0, 77, 0
2, 12202, Note_on_c, 0, 75, 75
2, 12212, Note_on_c, 0, 75, 0
2, 12212, Note_on_c, 0, 77, 75
2, 12222, Note_on_c, 0, 77, 0
2, 12222, Note_on_c, 0, 75, 75
2, 12232, Note_on_c, 0, 75, 0
2, 12232, Note_on_c, 0, 77, 75
2, 12242, Note_on_c, 0, 77, 0
2, 12242, Note_on_c, 0, 75, 75
2, 12252, Note_on_c, 0, 75, 0
2, 12252, Note_on_c, 0, 74, 75
2, 12270, Note_on_c, 0, 74, 0
2, 12270, Note_on_c, 0, 75, 75
2, 12288, Note_on_c, 0, 75, 0
2, 12288, Note_on_c, 0, 77, 75
2, 12333, Note_on_c, 0, 77, 0
2, 12336, Note_on_c, 0, 82, 91
2, 12432, Note_on_c, 0, 82, 0
2, 12432, Note_on_c, 0, 80, 75
2, 12503, Note_on_c, 0, 80, 0
2, 12504, Note_on_c, 0, 79, 75
2, 12527, Note_on_c, 0, 79, 0
2, 12528, Note_on_c, 0, 78, 75
2, 12551, Note_on_c, 0, 78, 0
2, 12552, Note_on_c, 0, 79, 75
2, 12575, Note_on_c, 0, 79, 0
2, 12576, Note_on_c, 0, 77, 75
2, 12599, Note_on_c, 0, 77, 0
2, 12600, Note_on_c, 0, 75, 75
2, 12623, Note_on_c, 0, 75, 0
2, 12624, Note_on_c, 0, 74, 75
2, 12647, Note_on_c, 0, 74, 0
2, 12648, Note_on_c, 0, 72, 75
2, 12671, Note_on_c, 0, 72, 0
2, 12672, Note_on_c, 0, 77, 75
2, 12682, Note_on_c, 0, 77, 0
2, 12696, Note_on_c, 0, 79, 75
2, 12704, Note_on_c, 0, 79, 0
2, 12704, Note_on_c, 0, 77, 75
2, 12712, Note_on_c, 0, 77, 0
2, 12712, Note_on_c, 0, 75, 75
2, 12720, Note_on_c, 0, 75, 0
2, 12720, Note_on_c, 0, 77, 75
2, 12743, Note_on_c, 0, 77, 0
2, 12744, Note_on_c, 0, 79, 75
2, 12767, Note_on_c, 0, 79, 0
2, 12768, Note_on_c, 0, 70, 75
2, 12813, Note_on_c, 0, 70, 0
2, 12816, Note_on_c, 0, 69, 75
2, 12861, Note_on_c, 0, 69, 0
2, 12864, Note_on_c, 0, 70, 75
2, 12909, Note_on_c, 0, 70, 0
2, 12912, Note_on_c, 0, 74, 75
2, 12957, Note_on_c, 0, 74, 0
2, 12960, Note_on_c, 0, 72, 75
2, 12983, Note_on_c, 0, 72, 0
2, 12984, Note_on_c, 0, 70, 75
2, 13007, Note_on_c, 0, 70, 0
2, 13008, Note_on_c, 0, 69, 75
2, 13031, Note_on_c, 0, 69, 0
2, 13032, Note_on_c, 0, 67, 75
2, 13101, Note_on_c, 0, 67, 0
2, 13104, Note_on_c, 0, 65, 75
2, 13186, Note_on_c, 0, 65, 0
2, 13188, Note_on_c, 0, 64, 75
2, 13200, Note_on_c, 0, 64, 0
2, 13200, Note_on_c, 0, 70, 75
2, 13248, Note_on_c, 0, 70, 0
2, 13248, Note_on_c, 0, 69, 75
2, 13268, Note_on_c, 0, 69, 0
2, 13296, Note_on_c, 0, 70, 75
2, 13341, Note_on_c, 0, 70, 0
2, 13344, Note_on_c, 0, 69, 75
2, 13367, Note_on_c, 0, 69, 0
2, 13368, Note_on_c, 0, 67, 75
2, 13391, Note_on_c, 0, 67, 0
2, 13392, Note_on_c, 0, 65, 75
2, 13415, Note_on_c, 0, 65, 0
2, 13416, Note_on_c, 0, 63, 75
2, 13485, Note_on_c, 0, 63, 0
2, 13488, Note_on_c, 0, 62, 75
2, 13570, Note_on_c, 0, 62, 0
2, 13572, Note_on_c, 0, 61, 75
2, 13584, Note_on_c, 0, 61, 0
2, 13584, Note_on_c, 0, 67, 75
2, 13632, Note_on_c, 0, 67, 0
2, 13632, Note_on_c, 0, 65, 75
2, 13652, Note_on_c, 0, 65, 0
2, 13680, Note_on_c, 0, 67, 75
2, 13725, Note_on_c, 0, 67, 0
2, 13728, Note_on_c, 0, 65, 75
2, 13751, Note_on_c, 0, 65, 0
2, 13752, Note_on_c, 0, 63, 75
2, 13775, Note_on_c, 0, 63, 0
2, 13776, Note_on_c, 0, 62, 75
2, 13799, Note_on_c, 0, 62, 0
2, 13800, Note_on_c, 0, 60, 75
2, 13869, Note_on_c, 0, 60, 0
2, 13872, Note_on_c, 0, 58, 75
2, 13954, Note_on_c, 0, 58, 0
2, 13956, Note_on_c, 0, 57, 75
2, 13968, Note_on_c, 0, 57, 0
2, 13968, Note_on_c, 0, 63, 75
2, 14061, Note_on_c, 0, 63, 0
2, 14064, Note_on_c, 0, 62, 75
2, 14109, Note_on_c, 0, 62, 0
2, 14148, Note_on_c, 0, 63, 75
2, 14160, Note_on_c, 0, 63, 0
2, 14160, Note_on_c, 0, 65, 75
2, 14166, Note_on_c, 0, 65, 0
2, 14166, Note_on_c, 0, 63, 75
2, 14172, Note_on_c, 0, 63, 0
2, 14172, Note_on_c, 0, 62, 75
2, 14178, Note_on_c, 0, 62, 0
2, 14178, Note_on_c, 0, 63, 75
2, 14242, Note_on_c, 0, 63, 0
2, 14244, Note_on_c, 0, 62, 75
2, 14256, Note_on_c, 0, 62, 0
2, 14256, Note_on_c, 0, 63, 75
2, 14262, Note_on_c, 0, 63, 0
2, 14262, Note_on_c, 0, 62, 75
2, 14268, Note_on_c, 0, 62, 0
2, 14268, Note_on_c, 0, 60, 75
2, 14274, Note_on_c, 0, 60, 0
2, 14274, Note_on_c, 0, 62, 75
2, 14303, Note_on_c, 0, 62, 0
2, 14340, Note_on_c, 0, 63, 75
2, 14345, Note_on_c, 0, 63, 0
2, 14352, Note_on_c, 0, 65, 75
2, 14358, Note_on_c, 0, 65, 0
2, 14358, Note_on_c, 0, 63, 75
2, 14364, Note_on_c, 0, 63, 0
2, 14364, Note_on_c, 0, 62, 75
2, 14370, Note_on_c, 0, 62, 0
2, 14370, Note_on_c, 0, 63, 75
2, 14399, Note_on_c, 0, 63, 0
2, 14400, Note_on_c, 0, 62, 75
2, 14467, Note_on_c, 0, 62, 0
2, 14472, Note_on_c, 0, 63, 75
2, 14482, Note_on_c, 0, 63, 0
2, 14496, Note_on_c, 0, 65, 75
2, 14506, Note_on_c, 0, 65, 0
2, 14506, Note_on_c, 0, 63, 75
2, 14516, Note_on_c, 0, 63, 0
2, 14516, Note_on_c, 0, 65, 75
2, 14526, Note_on_c, 0, 65, 0
2, 14526, Note_on_c, 0, 63, 75
2, 14536, Note_on_c, 0, 63, 0
2, 14536, Note_on_c, 0, 65, 75
2, 14546, Note_on_c, 0, 65, 0
2, 14546, Note_on_c, 0, 63, 75
2, 14556, Note_on_c, 0, 63, 0
2, 14556, Note_on_c, 0, 62, 75
2, 14574, Note_on_c, 0, 62, 0
2, 14574, Note_on_c, 0, 63, 75
2, 14592, Note_on_c, 0, 63, 0
2, 14592, Note_on_c, 0, 65, 75
2, 14637, Note_on_c, 0, 65, 0
2, 14640, Note_on_c, 0, 70, 91
2, 14736, Note_on_c, 0, 70, 0
2, 14736, Note_on_c, 0, 68, 75
2, 14825, Note_on_c, 0, 68, 0
2, 14832, Note_on_c, 0, 67, 75
2, 14921, Note_on_c, 0, 67, 0
2, 14928, Note_on_c, 0, 66, 75
2, 14973, Note_on_c, 0, 66, 0
2, 14976, Note_on_c, 0, 67, 75
2, 15024, Note_on_c, 0, 67, 0
2, 15024, Note_on_c, 0, 66, 76
2, 15069, Note_on_c, 0, 66, 0
2, 15072, Note_on_c, 0, 67, 77
2, 15120, Note_on_c, 0, 67, 0
2, 15120, Note_on_c, 0, 66, 78
2, 15165, Note_on_c, 0, 66, 0
2, 15168, Control_c, 0, 64, 127
2, 15168, Note_on_c, 0, 67, 79
2, 15213, Note_on_c, 0, 67, 0
2, 15216, Note_on_c, 0, 79, 80
2, 15261, Note_on_c, 0, 79, 0
2, 15264, Note_on_c, 0, 79, 81
2, 15309, Note_on_c, 0, 79, 0
2, 15312, Note_on_c, 0, 79, 82
2, 15357, Note_on_c, 0, 79, 0
2, 15360, Control_c, 0, 64, 0
2, 15360, Note_on_c, 0, 79, 84
2, 15449, Note_on_c, 0, 79, 0
2, 15456, Note_on_c, 0, 77, 84
2, 15479, Note_on_c, 0, 77, 0
2, 15480, Note_on_c, 0, 75, 84
2, 15503, Note_on_c, 0, 75, 0
2, 15504, Note_on_c, 0, 74, 84
2, 15527, Note_on_c, 0, 74, 0
2, 15528, Note_on_c, 0, 72, 84
2, 15551, Note_on_c, 0, 72, 0
2, 15552, Note_on_c, 0, 70, 84
2, 15671, Note_on_c, 0, 70, 0
2, 15672, Note_on_c, 0, 72, 84
2, 15684, Note_on_c, 0, 72, 0
2, 15684, Note_on_c, 0, 74, 84
2, 15696, Note_on_c, 0, 74, 0
2, 15696, Note_on_c, 0, 75, 84
2, 15708, Note_on_c, 0, 75, 0
2, 15708, Note_on_c, 0, 77, 84
2, 15720, Note_on_c, 0, 77, 0
2, 15720, Note_on_c, 0, 79, 84
2, 15732, Note_on_c, 0, 79, 0
2, 15732, Note_on_c, 0, 81, 84
2, 15744, Note_on_c, 0, 81, 0
2, 15744, Note_on_c, 0, 82, 84
2, 15789, Note_on_c, 0, 82, 0
2, 15792, Note_on_c, 0, 77, 84
2, 15837, Note_on_c, 0, 77, 0
2, 15840, Note_on_c, 0, 75, 84
2, 15863, Note_on_c, 0, 75, 0
2, 15864, Note_on_c, 0, 74, 84
2, 15887, Note_on_c, 0, 74, 0
2, 15888, Note_on_c, 0, 72, 84
2, 15911, Note_on_c, 0, 72, 0
2, 15912, Note_on_c, 0, 70, 84
2, 15935, Note_on_c, 0, 70, 0
2, 15936, Note_on_c, 0, 65, 84
2, 16099, Note_on_c, 0, 65, 0
2, 16104, Note_on_c, 0, 70, 84
2, 16116, Note_on_c, 0, 70, 0
2, 16116, Note_on_c, 0, 72, 84
2, 16128, Note_on_c, 0, 72, 0
2, 16128, Note_on_c, 0, 74, 84
2, 16139, Note_on_c, 0, 74, 0
2, 16139, Note_on_c, 0, 72, 84
2, 16150, Note_on_c, 0, 72, 0
2, 16150, Note_on_c, 0, 74, 84
2, 16161, Note_on_c, 0, 74, 0
2, 16161, Note_on_c, 0, 72, 84
2, 16172, Note_on_c, 0, 72, 0
2, 16172, Note_on_c, 0, 74, 84
2, 16183, Note_on_c, 0, 74, 0
2, 16183, Note_on_c, 0, 72, 84
2, 16194, Note_on_c, 0, 72, 0
2, 16194, Note_on_c, 0, 74, 84
2, 16205, Note_on_c, 0, 74, 0
2, 16205, Note_on_c, 0, 72, 84
2, 16216, Note_on_c, 0, 72, 0
2, 16216, Note_on_c, 0, 74, 84
2, 16227, Note_on_c, 0, 74, 0
2, 16227, Note_on_c, 0, 72, 84
2, 16238, Note_on_c, 0, 72, 0
2, 16238, Note_on_c, 0, 74, 84
2, 16249, Note_on_c, 0, 74, 0
2, 16249, Note_on_c, 0, 72, 84
2, 16260, Note_on_c, 0, 72, 0
2, 16260, Note_on_c, 0, 74, 84
2, 16270, Note_on_c, 0, 74, 0
2, 16270, Note_on_c, 0, 72, 84
2, 16280, Note_on_c, 0, 72, 0
2, 16280, Note_on_c, 0, 70, 84
2, 16300, Note_on_c, 0, 70, 0
2, 16300, Note_on_c, 0, 72, 84
2, 16320, Note_on_c, 0, 72, 0
2, 16320, Note_on_c, 0, 70, 84
2, 16409, Note_on_c, 0, 70, 0
2, 16440, Note_on_c, 0, 65, 75
2, 16450, Note_on_c, 0, 65, 0
2, 16464, Note_on_c, 0, 67, 75
2, 16476, Note_on_c, 0, 67, 0
2, 16476, Note_on_c, 0, 65, 75
2, 16488, Note_on_c, 0, 65, 0
2, 16488, Note_on_c, 0, 64, 75
2, 16500, Note_on_c, 0, 64, 0
2, 16500, Note_on_c, 0, 65, 75
2, 16512, Note_on_c, 0, 65, 0
2, 16536, Note_on_c, 0, 67, 75
2, 16546, Note_on_c, 0, 67, 0
2, 16560, Note_on_c, 0, 69, 75
2, 16572, Note_on_c, 0, 69, 0
2, 16572, Note_on_c, 0, 67, 75
2, 16584, Note_on_c, 0, 67, 0
2, 16584, Note_on_c, 0, 66, 75
2, 16596, Note_on_c, 0, 66, 0
2, 16596, Note_on_c, 0, 67, 75
2, 16608, Note_on_c, 0, 67, 0
2, 16632, Note_on_c, 0, 69, 75
2, 16655, Note_on_c, 0, 69, 0
2, 16656, Note_on_c, 0, 72, 75
2, 16679, Note_on_c, 0, 72, 0
2, 16680, Note_on_c, 0, 75, 75
2, 16703, Note_on_c, 0, 75, 0
2, 16704, Note_on_c, 0, 75, 75
2, 16727, Note_on_c, 0, 75, 0
2, 16728, Note_on_c, 0, 74, 75
2, 16751, Note_on_c, 0, 74, 0
2, 16752, Note_on_c, 0, 72, 75
2, 16775, Note_on_c, 0, 72, 0
2, 16776, Note_on_c, 0, 70, 75
2, 16799, Note_on_c, 0, 70, 0
2, 16824, Note_on_c, 0, 65, 75
2, 16834, Note_on_c, 0, 65, 0
2, 16848, Note_on_c, 0, 67, 75
2, 16860, Note_on_c, 0, 67, 0
2, 16860, Note_on_c, 0, 65, 75
2, 16872, Note_on_c, 0, 65, 0
2, 16872, Note_on_c, 0, 64, 75
2, 16884, Note_on_c, 0, 64, 0
2, 16884, Note_on_c, 0, 65, 75
2, 16896, Note_on_c, 0, 65, 0
2, 16920, Note_on_c, 0, 67, 75
2, 16930, Note_on_c, 0, 67, 0
2, 16944, Note_on_c, 0, 69, 75
2, 16956, Note_on_c, 0, 69, 0
2, 16956, Note_on_c, 0, 67, 75
2, 16968, Note_on_c, 0, 67, 0
2, 16968, Note_on_c, 0, 66, 75
2, 16980, Note_on_c, 0, 66, 0
2, 16980, Note_on_c, 0, 67, 75
2, 16992, Note_on_c, 0, 67, 0
2, 17016, Note_on_c, 0, 63, 75
2, 17039, Note_on_c, 0, 63, 0
2, 17040, Note_on_c, 0, 60, 75
2, 17063, Note_on_c, 0, 60, 0
2, 17064, Note_on_c, 0, 57, 75
2, 17074, Note_on_c, 0, 57, 0
2, 17088, Note_on_c, 0, 60, 75
2, 17100, Note_on_c, 0, 60, 0
2, 17100, Note_on_c, 0, 58, 75
2, 17112, Note_on_c, 0, 58, 0
2, 17112, Note_on_c, 0, 57, 75
2, 17124, Note_on_c, 0, 57, 0
2, 17124, Note_on_c, 0, 58, 75
2, 17136, Note_on_c, 0, 58, 0
2, 17136, Note_on_c, 0, 58, 75
2, 17166, Note_on_c, 0, 58, 0
2, 17232, Note_on_c, 0, 67, 75
2, 17252, Note_on_c, 0, 67, 0
2, 17280, Note_on_c, 0, 70, 75
2, 17421, Note_on_c, 0, 70, 0
2, 17424, Note_on_c, 0, 67, 75
2, 17458, Note_on_c, 0, 67, 0
2, 17460, Note_on_c, 0, 68, 75
2, 17472, Note_on_c, 0, 68, 0
2, 17472, Note_on_c, 0, 70, 75
2, 17613, Note_on_c, 0, 70, 0
2, 17616, Note_on_c, 0, 67, 75
2, 17650, Note_on_c, 0, 67, 0
2, 17652, Note_on_c, 0, 68, 75
2, 17664, Note_on_c, 0, 68, 0
2, 17664, Note_on_c, 0, 70, 75
2, 17684, Note_on_c, 0, 70, 0
2, 17712, Note_on_c, 0, 67, 75
2, 17746, Note_on_c, 0, 67, 0
2, 17748, Note_on_c, 0, 68, 75
2, 17760, Note_on_c, 0, 68, 0
2, 17760, Note_on_c, 0, 70, 75
2, 17780, Note_on_c, 0, 70, 0
2, 17808, Note_on_c, 0, 67, 75
2, 17842, Note_on_c, 0, 67, 0
2, 17844, Note_on_c, 0, 68, 75
2, 17856, Note_on_c, 0, 68, 0
2, 17856, Note_on_c, 0, 70, 75
2, 17876, Note_on_c, 0, 70, 0
2, 17904, Note_on_c, 0, 75, 75
2, 17924, Note_on_c, 0, 75, 0
2, 18000, Note_on_c, 0, 63, 75
2, 18020, Note_on_c, 0, 63, 0
2, 18048, Note_on_c, 0, 67, 75
2, 18181, Note_on_c, 0, 67, 0
2, 18192, Note_on_c, 0, 65, 75
2, 18204, Note_on_c, 0, 65, 0
2, 18204, Note_on_c, 0, 63, 75
2, 18237, Note_on_c, 0, 63, 0
2, 18240, Note_on_c, 0, 62, 75
2, 18336, Note_on_c, 0, 62, 0
2, 18336, Note_on_c, 0, 60, 75
2, 18381, Note_on_c, 0, 60, 0
2, 18384, Note_on_c, 0, 68, 75
2, 18407, Note_on_c, 0, 68, 0
2, 18408, Note_on_c, 0, 65, 75
2, 18431, Note_on_c, 0, 65, 0
2, 18432, Note_on_c, 0, 63, 75
2, 18455, Note_on_c, 0, 63, 0
2, 18456, Note_on_c, 0, 62, 75
2, 18479, Note_on_c, 0, 62, 0
2, 18480, Note_on_c, 0, 67, 75
2, 18503, Note_on_c, 0, 67, 0
2, 18504, Note_on_c, 0, 65, 75
2, 18527, Note_on_c, 0, 65, 0
2, 18528, Note_on_c, 0, 63, 75
2, 18551, Note_on_c, 0, 63, 0
2, 18552, Note_on_c, 0, 62, 75
2, 18575, Note_on_c, 0, 62, 0
2, 18576, Note_on_c, 0, 60, 75
2, 18599, Note_on_c, 0, 60, 0
2, 18600, Note_on_c, 0, 58, 75
2, 18623, Note_on_c, 0, 58, 0
2, 18624, Note_on_c, 0, 56, 75
2, 18720, Note_on_c, 0, 56, 0
2, 18720, Note_on_c, 0, 55, 75
2, 18765, Note_on_c, 0, 55, 0
2, 18768, Note_on_c, 0, 67, 75
2, 18788, Note_on_c, 0, 67, 0
2, 18816, Note_on_c, 0, 70, 75
2, 18957, Note_on_c, 0, 70, 0
2, 18960, Note_on_c, 0, 67, 75
2, 18994, Note_on_c, 0, 67, 0
2, 18996, Note_on_c, 0, 68, 75
2, 19008, Note_on_c, 0, 68, 0
2, 19008, Note_on_c, 0, 70, 75
2, 19149, Note_on_c, 0, 70, 0
2, 19152, Note_on_c, 0, 67, 75
2, 19164, Note_on_c, 0, 67, 0
2, 19164, Note_on_c, 0, 68, 75
2, 19176, Note_on_c, 0, 68, 0
2, 19176, Note_on_c, 0, 67, 75
2, 19188, Note_on_c, 0, 67, 0
2, 19188, Note_on_c, 0, 68, 75
2, 19200, Note_on_c, 0, 68, 0
2, 19200, Note_on_c, 0, 70, 75
2, 19220, Note_on_c, 0, 70, 0
2, 19248, Note_on_c, 0, 67, 75
2, 19260, Note_on_c, 0, 67, 0
2, 19260, Note_on_c, 0, 68, 75
2, 19272, Note_on_c, 0, 68, 0
2, 19272, Note_on_c, 0, 67, 75
2, 19284, Note_on_c, 0, 67, 0
2, 19284, Note_on_c, 0, 68, 75
2, 19296, Note_on_c, 0, 68, 0
2, 19296, Note_on_c, 0, 70, 75
2, 19316, Note_on_c, 0, 70, 0
2, 19344, Note_on_c, 0, 67, 75
2, 19356, Note_on_c, 0, 67, 0
2, 19356, Note_on_c, 0, 68, 75
2, 19368, Note_on_c, 0, 68, 0
2, 19368, Note_on_c, 0, 67, 75
2, 19380, Note_on_c, 0, 67, 0
2, 19380, Note_on_c, 0, 68, 75
2, 19392, Note_on_c, 0, 68, 0
2, 19392, Note_on_c, 0, 70, 75
2, 19412, Note_on_c, 0, 70, 0
2, 19440, Note_on_c, 0, 75, 75
2, 19460, Note_on_c, 0, 75, 0
2, 19536, Note_on_c, 0, 63, 75
2, 19556, Note_on_c, 0, 63, 0
2, 19584, Note_on_c, 0, 67, 75
2, 19717, Note_on_c, 0, 67, 0
2, 19728, Note_on_c, 0, 65, 75
2, 19740, Note_on_c, 0, 65, 0
2, 19740, Note_on_c, 0, 63, 75
2, 19773, Note_on_c, 0, 63, 0
2, 19776, Note_on_c, 0, 62, 75
2, 19920, Note_on_c, 0, 62, 0
2, 19920, Note_on_c, 0, 60, 75
2, 19940, Note_on_c, 0, 60, 0
2, 19968, Note_on_c, 0, 68, 75
2, 20101, Note_on_c, 0, 68, 0
2, 20112, Note_on_c, 0, 67, 75
2, 20124, Note_on_c, 0, 67, 0
2, 20124, Note_on_c, 0, 65, 75
2, 20157, Note_on_c, 0, 65, 0
2, 20160, Note_on_c, 0, 63, 75
2, 20304, Note_on_c, 0, 63, 0
2, 20304, Note_on_c, 0, 62, 75
2, 20324, Note_on_c, 0, 62, 0
2, 20352, Note_on_c, 0, 70, 75
2, 20485, Note_on_c, 0, 70, 0
2, 20496, Note_on_c, 0, 68, 76
2, 20508, Note_on_c, 0, 68, 0
2, 20508, Note_on_c, 0, 67, 76
2, 20541, Note_on_c, 0, 67, 0
2, 20544, Note_on_c, 0, 65, 76
2, 20688, Note_on_c, 0, 65, 0
2, 20688, Note_on_c, 0, 63, 78
2, 20708, Note_on_c, 0, 63, 0
2, 20736, Note_on_c, 0, 68, 78
2, 20869, Note_on_c, 0, 68, 0
2, 20880, Note_on_c, 0, 67, 79
2, 20925, Note_on_c, 0, 67, 0
2, 20928, Note_on_c, 0, 72, 80
2, 21017, Note_on_c, 0, 72, 0
2, 21024, Note_on_c, 0, 70, 81
2, 21143, Note_on_c, 0, 70, 0
2, 21144, Note_on_c, 0, 68, 82
2, 21189, Note_on_c, 0, 68, 0
2, 21192, Note_on_c, 0, 67, 82
2, 21237, Note_on_c, 0, 67, 0
2, 21240, Note_on_c, 0, 65, 83
2, 21285, Note_on_c, 0, 65, 0
2, 21288, Note_on_c, 0, 62, 83
2, 21311, Note_on_c, 0, 62, 0
2, 21312, Note_on_c, 0, 63, 83
2, 21335, Note_on_c, 0, 63, 0
2, 21336, Control_c, 0, 64, 127
2, 21336, Note_on_c, 0, 55, 84
2, 21359, Note_on_c, 0, 55, 0
2, 21360, Note_on_c, 0, 58, 84
2, 21383, Note_on_c, 0, 58, 0
2, 21384, Note_on_c, 0, 55, 84
2, 21407, Note_on_c, 0, 55, 0
2, 21408, Note_on_c, 0, 63, 84
2, 21431, Note_on_c, 0, 63, 0
2, 21432, Note_on_c, 0, 58, 84
2, 21455, Note_on_c, 0, 58, 0
2, 21456, Note_on_c, 0, 67, 84
2, 21479, Note_on_c, 0, 67, 0
2, 21480, Note_on_c, 0, 63, 84
2, 21503, Note_on_c, 0, 63, 0
2, 21504, Note_on_c, 0, 70, 84
2, 21527, Note_on_c, 0, 70, 0
2, 21528, Note_on_c, 0, 67, 84
2, 21551, Note_on_c, 0, 67, 0
2, 21552, Note_on_c, 0, 75, 84
2, 21575, Note_on_c, 0, 75, 0
2, 21576, Control_c, 0, 64, 0
2, 21576, Note_on_c, 0, 67, 84
2, 21599, Note_on_c, 0, 67, 0
2, 21600, Note_on_c, 0, 70, 84
2, 21623, Note_on_c, 0, 70, 0
2, 21624, Note_on_c, 0, 68, 84
2, 21647, Note_on_c, 0, 68, 0
2, 21648, Note_on_c, 0, 67, 84
2, 21671, Note_on_c, 0, 67, 0
2, 21672, Note_on_c, 0, 65, 84
2, 21695, Note_on_c, 0, 65, 0
2, 21696, Note_on_c, 0, 67, 84
2, 21744, Note_on_c, 0, 67, 0
2, 21744, Note_on_c, 0, 75, 84
2, 21764, Note_on_c, 0, 75, 0
2, 21792, Note_on_c, 0, 77, 84
2, 21802, Note_on_c, 0, 77, 0
2, 21802, Note_on_c, 0, 75, 84
2, 21812, Note_on_c, 0, 75, 0
2, 21812, Note_on_c, 0, 77, 84
2, 21822, Note_on_c, 0, 77, 0
2, 21822, Note_on_c, 0, 75, 84
2, 21832, Note_on_c, 0, 75, 0
2, 21832, Note_on_c, 0, 77, 84
2, 21842, Note_on_c, 0, 77, 0
2, 21842, Note_on_c, 0, 75, 84
2, 21852, Note_on_c, 0, 75, 0
2, 21852, Note_on_c, 0, 77, 84
2, 21861, Note_on_c, 0, 77, 0
2, 21861, Note_on_c, 0, 75, 84
2, 21870, Note_on_c, 0, 75, 0
2, 21870, Note_on_c, 0, 74, 84
2, 21879, Note_on_c, 0, 74, 0
2, 21879, Note_on_c, 0, 75, 84
2, 21911, Note_on_c, 0, 75, 0
2, 21912, Note_on_c, 0, 70, 84
2, 21935, Note_on_c, 0, 70, 0
2, 21936, Note_on_c, 0, 79, 84
2, 21959, Note_on_c, 0, 79, 0
2, 21960, Note_on_c, 0, 70, 84
2, 21983, Note_on_c, 0, 70, 0
2, 21984, Note_on_c, 0, 70, 84
2, 22007, Note_on_c, 0, 70, 0
2, 22008, Note_on_c, 0, 68, 84
2, 22031, Note_on_c, 0, 68, 0
2, 22032, Note_on_c, 0, 67, 84
2, 22055, Note_on_c, 0, 67, 0
2, 22056, Note_on_c, 0, 65, 84
2, 22079, Note_on_c, 0, 65, 0
2, 22080, Note_on_c, 0, 66, 84
2, 22104, Note_on_c, 0, 66, 0
2, 22104, Note_on_c, 0, 67, 84
2, 22127, Note_on_c, 0, 67, 0
2, 22128, Note_on_c, 0, 75, 84
2, 22151, Note_on_c, 0, 75, 0
2, 22152, Note_on_c, 0, 67, 84
2, 22175, Note_on_c, 0, 67, 0
2, 22176, Note_on_c, 0, 70, 84
2, 22199, Note_on_c, 0, 70, 0
2, 22200, Note_on_c, 0, 68, 84
2, 22223, Note_on_c, 0, 68, 0
2, 22224, Note_on_c, 0, 67, 84
2, 22247, Note_on_c, 0, 67, 0
2, 22248, Note_on_c, 0, 65, 84
2, 22271, Note_on_c, 0, 65, 0
2, 22272, Note_on_c, 0, 67, 84
2, 22287, Note_on_c, 0, 67, 0
2, 22288, Note_on_c, 0, 79, 84
2, 22303, Note_on_c, 0, 79, 0
2, 22304, Note_on_c, 0, 77, 84
2, 22319, Note_on_c, 0, 77, 0
2, 22320, Note_on_c, 0, 75, 84
2, 22335, Note_on_c, 0, 75, 0
2, 22336, Note_on_c, 0, 74, 84
2, 22351, Note_on_c, 0, 74, 0
2, 22352, Note_on_c, 0, 72, 84
2, 22367, Note_on_c, 0, 72, 0
2, 22368, Note_on_c, 0, 70, 84
2, 22413, Note_on_c, 0, 70, 0
2, 22416, Note_on_c, 0, 68, 84
2, 22426, Note_on_c, 0, 68, 0
2, 22426, Note_on_c, 0, 70, 84
2, 22436, Note_on_c, 0, 70, 0
2, 22436, Note_on_c, 0, 68, 84
2, 22446, Note_on_c, 0, 68, 0
2, 22446, Note_on_c, 0, 67, 84
2, 22455, Note_on_c, 0, 67, 0
2, 22455, Note_on_c, 0, 68, 84
2, 22464, Note_on_c, 0, 68, 0
2, 22464, Note_on_c, 0, 67, 84
2, 22509, Note_on_c, 0, 67, 0
2, 22512, Note_on_c, 0, 79, 75
2, 22532, Note_on_c, 0, 79, 0
2, 22560, Note_on_c, 0, 77, 75
2, 22583, Note_on_c, 0, 77, 0
2, 22584, Note_on_c, 0, 75, 75
2, 22607, Note_on_c, 0, 75, 0
2, 22608, Note_on_c, 0, 74, 75
2, 22631, Note_on_c, 0, 74, 0
2, 22632, Note_on_c, 0, 72, 75
2, 22701, Note_on_c, 0, 72, 0
2, 22704, Note_on_c, 0, 71, 75
2, 22793, Note_on_c, 0, 71, 0
2, 22800, Note_on_c, 0, 77, 75
2, 22871, Note_on_c, 0, 77, 0
2, 22872, Note_on_c, 0, 75, 75
2, 22895, Note_on_c, 0, 75, 0
2, 22896, Note_on_c, 0, 79, 75
2, 22920, Note_on_c, 0, 79, 0
2, 22920, Note_on_c, 0, 77, 75
2, 22943, Note_on_c, 0, 77, 0
2, 22944, Note_on_c, 0, 75, 75
2, 22968, Note_on_c, 0, 75, 0
2, 22968, Note_on_c, 0, 74, 75
2, 22991, Note_on_c, 0, 74, 0
2, 22992, Note_on_c, 0, 72, 75
2, 23016, Note_on_c, 0, 72, 0
2, 23016, Note_on_c, 0, 70, 75
2, 23039, Note_on_c, 0, 70, 0
2, 23040, Note_on_c, 0, 70, 91
2, 23088, Note_on_c, 0, 70, 0
2, 23088, Note_on_c, 0, 69, 75
2, 23177, Note_on_c, 0, 69, 0
2, 23184, Note_on_c, 0, 75, 75
2, 23273, Note_on_c, 0, 75, 0
2, 23280, Note_on_c, 0, 74, 75
2, 23369, Note_on_c, 0, 74, 0
2, 23376, Note_on_c, 0, 77, 75
2, 23399, Note_on_c, 0, 77, 0
2, 23400, Note_on_c, 0, 74, 75
2, 23447, Note_on_c, 0, 74, 0
2, 23448, Note_on_c, 0, 72, 76
2, 23493, Note_on_c, 0, 72, 0
2, 23496, Note_on_c, 0, 71, 78
2, 23541, Note_on_c, 0, 71, 0
2, 23544, Note_on_c, 0, 72, 80
2, 23589, Note_on_c, 0, 72, 0
2, 23592, Note_on_c, 0, 70, 82
2, 23639, Note_on_c, 0, 70, 0
2, 23640, Note_on_c, 0, 69, 84
2, 23663, Note_on_c, 0, 69, 0
2, 23664, Note_on_c, 0, 67, 84
2, 23687, Note_on_c, 0, 67, 0
2, 23688, Note_on_c, 0, 65, 84
2, 23711, Note_on_c, 0, 65, 0
2, 23712, Note_on_c, 0, 65, 75
2, 23732, Note_on_c, 0, 65, 0
2, 23760, Note_on_c, 0, 77, 76
2, 23783, Note_on_c, 0, 77, 0
2, 23784, Note_on_c, 0, 74, 77
2, 23831, Note_on_c, 0, 74, 0
2, 23832, Note_on_c, 0, 72, 78
2, 23877, Note_on_c, 0, 72, 0
2, 23880, Note_on_c, 0, 71, 79
2, 23925, Note_on_c, 0, 71, 0
2, 23928, Note_on_c, 0, 72, 81
2, 23973, Note_on_c, 0, 72, 0
2, 23976, Note_on_c, 0, 70, 82
2, 24023, Note_on_c, 0, 70, 0
2, 24024, Note_on_c, 0, 69, 84
2, 24047, Note_on_c, 0, 69, 0
2, 24048, Note_on_c, 0, 67, 84
2, 24071, Note_on_c, 0, 67, 0
2, 24072, Note_on_c, 0, 65, 84
2, 24095, Note_on_c, 0, 65, 0
2, 24096, Note_on_c, 0, 65, 84
2, 24116, Note_on_c, 0, 65, 0
2, 24144, Note_on_c, 0, 70, 75
2, 24164, Note_on_c, 0, 70, 0
2, 24192, Note_on_c, 0, 74, 75
2, 24325, Note_on_c, 0, 74, 0
2, 24336, Note_on_c, 0, 77, 75
2, 24359, Note_on_c, 0, 77, 0
2, 24360, Note_on_c, 0, 74, 75
2, 24383, Note_on_c, 0, 74, 0
2, 24384, Note_on_c, 0, 75, 75
2, 24517, Note_on_c, 0, 75, 0
2, 24528, Note_on_c, 0, 72, 75
2, 24551, Note_on_c, 0, 72, 0
2, 24552, Note_on_c, 0, 69, 75
2, 24575, Note_on_c, 0, 69, 0
2, 24576, Note_on_c, 0, 63, 75
2, 24716, Note_on_c, 0, 63, 0
2, 24720, Note_on_c, 0, 75, 75
2, 24744, Note_on_c, 0, 75, 0
2, 24744, Note_on_c, 0, 72, 75
2, 24767, Note_on_c, 0, 72, 0
2, 24768, Note_on_c, 0, 74, 75
2, 24901, Note_on_c, 0, 74, 0
2, 24912, Note_on_c, 0, 70, 75
2, 24924, Note_on_c, 0, 70, 0
2, 24924, Note_on_c, 0, 72, 75
2, 24936, Note_on_c, 0, 72, 0
2, 24936, Note_on_c, 0, 70, 75
2, 24948, Note_on_c, 0, 70, 0
2, 24948, Note_on_c, 0, 72, 75
2, 24960, Note_on_c, 0, 72, 0
2, 24960, Note_on_c, 0, 74, 75
2, 24980, Note_on_c, 0, 74, 0
2, 25008, Note_on_c, 0, 74, 75
2, 25020, Note_on_c, 0, 74, 0
2, 25020, Note_on_c, 0, 75, 75
2, 25032, Note_on_c, 0, 75, 0
2, 25032, Note_on_c, 0, 74, 75
2, 25044, Note_on_c, 0, 74, 0
2, 25044, Note_on_c, 0, 75, 75
2, 25056, Note_on_c, 0, 75, 0
2, 25056, Note_on_c, 0, 77, 75
2, 25076, Note_on_c, 0, 77, 0
2, 25104, Note_on_c, 0, 82, 75
2, 25149, Note_on_c, 0, 82, 0
2, 25152, Note_on_c, 0, 82, 75
2, 25176, Note_on_c, 0, 82, 0
2, 25176, Note_on_c, 0, 79, 75
2, 25199, Note_on_c, 0, 79, 0
2, 25200, Note_on_c, 0, 79, 75
2, 25289, Note_on_c, 0, 79, 0
2, 25296, Note_on_c, 0, 82, 75
2, 25341, Note_on_c, 0, 82, 0
2, 25344, Note_on_c, 0, 82, 75
2, 25368, Note_on_c, 0, 82, 0
2, 25368, Note_on_c, 0, 77, 75
2, 25391, Note_on_c, 0, 77, 0
2, 25392, Note_on_c, 0, 77, 75
2, 25481, Note_on_c, 0, 77, 0
2, 25488, Note_on_c, 0, 82, 75
2, 25512, Note_on_c, 0, 82, 0
2, 25512, Note_on_c, 0, 77, 75
2, 25535, Note_on_c, 0, 77, 0
2, 25536, Note_on_c, 0, 77, 75
2, 25560, Note_on_c, 0, 77, 0
2, 25560, Note_on_c, 0, 76, 75
2, 25581, Note_on_c, 0, 76, 0
2, 25584, Note_on_c, 0, 76, 75
2, 25629, Note_on_c, 0, 76, 0
2, 25632, Note_on_c, 0, 76, 75
2, 25677, Note_on_c, 0, 76, 0
2, 25680, Note_on_c, 0, 76, 75
2, 25725, Note_on_c, 0, 76, 0
2, 25728, Note_on_c, 0, 73, 75
2, 25740, Note_on_c, 0, 73, 0
2, 25740, Note_on_c, 0, 85, 91
2, 25858, Note_on_c, 0, 85, 0
2, 25860, Note_on_c, 0, 76, 91
2, 25865, Note_on_c, 0, 76, 0
2, 25872, Note_on_c, 0, 77, 75
2, 25880, Note_on_c, 0, 77, 0
2, 25880, Note_on_c, 0, 76, 75
2, 25888, Note_on_c, 0, 76, 0
2, 25888, Note_on_c, 0, 77, 75
2, 25896, Note_on_c, 0, 77, 0
2, 25896, Note_on_c, 0, 76, 75
2, 25904, Note_on_c, 0, 76, 0
2, 25904, Note_on_c, 0, 74, 75
2, 25912, Note_on_c, 0, 74, 0
2, 25912, Note_on_c, 0, 76, 75
2, 25920, Note_on_c, 0, 76, 0
2, 25920, Note_on_c, 0, 77, 75
2, 25965, Note_on_c, 0, 77, 0
2, 25968, Note_on_c, 0, 77, 75
2, 26057, Note_on_c, 0, 77, 0
2, 26064, Note_on_c, 0, 79, 75
2, 26088, Note_on_c, 0, 79, 0
2, 26088, Note_on_c, 0, 75, 75
2, 26111, Note_on_c, 0, 75, 0
2, 26112, Note_on_c, 0, 75, 75
2, 26136, Note_on_c, 0, 75, 0
2, 26136, Note_on_c, 0, 74, 75
2, 26159, Note_on_c, 0, 74, 0
2, 26160, Note_on_c, 0, 77, 75
2, 26184, Note_on_c, 0, 77, 0
2, 26184, Note_on_c, 0, 70, 75
2, 26207, Note_on_c, 0, 70, 0
2, 26208, Note_on_c, 0, 70, 75
2, 26232, Note_on_c, 0, 70, 0
2, 26232, Note_on_c, 0, 69, 75
2, 26255, Note_on_c, 0, 69, 0
2, 26256, Note_on_c, 0, 72, 75
2, 26280, Note_on_c, 0, 72, 0
2, 26280, Note_on_c, 0, 69, 75
2, 26303, Note_on_c, 0, 69, 0
2, 26304, Note_on_c, 0, 70, 75
2, 26324, Note_on_c, 0, 70, 0
2, 26352, Note_on_c, 0, 74, 75
2, 26372, Note_on_c, 0, 74, 0
2, 26400, Note_on_c, 0, 72, 75
2, 26420, Note_on_c, 0, 72, 0
2, 26448, Note_on_c, 0, 75, 75
2, 26468, Note_on_c, 0, 75, 0
2, 26496, Note_on_c, 0, 75, 75
2, 26520, Note_on_c, 0, 75, 0
2, 26520, Note_on_c, 0, 74, 75
2, 26543, Note_on_c, 0, 74, 0
2, 26544, Note_on_c, 0, 77, 75
2, 26568, Note_on_c, 0, 77, 0
2, 26568, Note_on_c, 0, 70, 75
2, 26591, Note_on_c, 0, 70, 0
2, 26592, Note_on_c, 0, 70, 75
2, 26616, Note_on_c, 0, 70, 0
2, 26616, Note_on_c, 0, 69, 75
2, 26639, Note_on_c, 0, 69, 0
2, 26640, Note_on_c, 0, 72, 75
2, 26664, Note_on_c, 0, 72, 0
2, 26664, Note_on_c, 0, 69, 75
2, 26687, Note_on_c, 0, 69, 0
2, 26688, Note_on_c, 0, 70, 75
2, 26708, Note_on_c, 0, 70, 0
2, 26736, Note_on_c, 0, 74, 75
2, 26756, Note_on_c, 0, 74, 0
2, 26784, Note_on_c, 0, 72, 75
2, 26804, Note_on_c, 0, 72, 0
2, 26832, Note_on_c, 0, 75, 75
2, 26852, Note_on_c, 0, 75, 0
2, 26880, Note_on_c, 0, 74, 75
2, 26890, Note_on_c, 0, 74, 0
2, 26904, Note_on_c, 0, 82, 75
2, 26927, Note_on_c, 0, 82, 0
2, 26928, Note_on_c, 0, 81, 75
2, 26951, Note_on_c, 0, 81, 0
2, 26952, Note_on_c, 0, 82, 75
2, 26975, Note_on_c, 0, 82, 0
2, 27000, Note_on_c, 0, 80, 75
2, 27023, Note_on_c, 0, 80, 0
2, 27024, Note_on_c, 0, 79, 75
2, 27047, Note_on_c, 0, 79, 0
2, 27048, Note_on_c, 0, 78, 75
2, 27071, Note_on_c, 0, 78, 0
2, 27096, Note_on_c, 0, 79, 75
2, 27119, Note_on_c, 0, 79, 0
2, 27120, Note_on_c, 0, 78, 75
2, 27143, Note_on_c, 0, 78, 0
2, 27144, Note_on_c, 0, 79, 75
2, 27167, Note_on_c, 0, 79, 0
2, 27168, Note_on_c, 0, 77, 75
2, 27191, Note_on_c, 0, 77, 0
2, 27192, Note_on_c, 0, 75, 75
2, 27215, Note_on_c, 0, 75, 0
2, 27216, Note_on_c, 0, 74, 75
2, 27239, Note_on_c, 0, 74, 0
2, 27240, Note_on_c, 0, 72, 75
2, 27263, Note_on_c, 0, 72, 0
2, 27264, Note_on_c, 0, 70, 75
2, 27353, Note_on_c, 0, 70, 0
2, 27360, Note_on_c, 0, 74, 75
2, 27383, Note_on_c, 0, 74, 0
2, 27384, Note_on_c, 0, 72, 75
2, 27407, Note_on_c, 0, 72, 0
2, 27408, Note_on_c, 0, 70, 75
2, 27431, Note_on_c, 0, 70, 0
2, 27432, Note_on_c, 0, 69, 75
2, 27455, Note_on_c, 0, 69, 0
2, 27456, Note_on_c, 0, 70, 75
2, 27501, Note_on_c, 0, 70, 0
2, 27504, Note_on_c, 0, 86, 75
2, 27549, Note_on_c, 0, 86, 0
2, 27552, Note_on_c, 0, 84, 75
2, 27575, Note_on_c, 0, 84, 0
2, 27576, Note_on_c, 0, 82, 75
2, 27599, Note_on_c, 0, 82, 0
2, 27600, Note_on_c, 0, 81, 75
2, 27623, Note_on_c, 0, 81, 0
2, 27624, Note_on_c, 0, 79, 75
2, 27693, Note_on_c, 0, 79, 0
2, 27696, Note_on_c, 0, 77, 75
2, 27778, Note_on_c, 0, 77, 0
2, 27780, Note_on_c, 0, 76, 75
2, 27792, Note_on_c, 0, 76, 0
2, 27792, Note_on_c, 0, 82, 75
2, 27840, Note_on_c, 0, 82, 0
2, 27840, Note_on_c, 0, 81, 75
2, 27860, Note_on_c, 0, 81, 0
2, 27888, Note_on_c, 0, 82, 75
2, 27933, Note_on_c, 0, 82, 0
2, 27936, Note_on_c, 0, 81, 75
2, 27959, Note_on_c, 0, 81, 0
2, 27960, Note_on_c, 0, 79, 75
2, 27983, Note_on_c, 0, 79, 0
2, 27984, Note_on_c, 0, 77, 75
2, 28007, Note_on_c, 0, 77, 0
2, 28008, Note_on_c, 0, 75, 75
2, 28077, Note_on_c, 0, 75, 0
2, 28080, Note_on_c, 0, 74, 75
2, 28162, Note_on_c, 0, 74, 0
2, 28164, Note_on_c, 0, 73, 75
2, 28176, Note_on_c, 0, 73, 0
2, 28176, Note_on_c, 0, 79, 75
2, 28224, Note_on_c, 0, 79, 0
2, 28224, Note_on_c, 0, 77, 75
2, 28244, Note_on_c, 0, 77, 0
2, 28272, Note_on_c, 0, 79, 75
2, 28317, Note_on_c, 0, 79, 0
2, 28320, Note_on_c, 0, 77, 75
2, 28343, Note_on_c, 0, 77, 0
2, 28344, Note_on_c, 0, 75, 75
2, 28367, Note_on_c, 0, 75, 0
2, 28368, Note_on_c, 0, 74, 75
2, 28391, Note_on_c, 0, 74, 0
2, 28392, Note_on_c, 0, 72, 75
2, 28461, Note_on_c, 0, 72, 0
2, 28464, Note_on_c, 0, 70, 75
2, 28546, Note_on_c, 0, 70, 0
2, 28548, Note_on_c, 0, 69, 75
2, 28560, Note_on_c, 0, 69, 0
2, 28560, Note_on_c, 0, 75, 75
2, 28653, Note_on_c, 0, 75, 0
2, 28656, Note_on_c, 0, 74, 75
2, 28701, Note_on_c, 0, 74, 0
2, 28740, Note_on_c, 0, 75, 75
2, 28752, Note_on_c, 0, 75, 0
2, 28752, Note_on_c, 0, 77, 75
2, 28758, Note_on_c, 0, 77, 0
2, 28758, Note_on_c, 0, 75, 75
2, 28764, Note_on_c, 0, 75, 0
2, 28764, Note_on_c, 0, 74, 75
2, 28770, Note_on_c, 0, 74, 0
2, 28770, Note_on_c, 0, 75, 75
2, 28834, Note_on_c, 0, 75, 0
2, 28836, Note_on_c, 0, 74, 75
2, 28848, Note_on_c, 0, 74, 0
2, 28848, Note_on_c, 0, 75, 75
2, 28854, Note_on_c, 0, 75, 0
2, 28854, Note_on_c, 0, 74, 75
2, 28860, Note_on_c, 0, 74, 0
2, 28860, Note_on_c, 0, 72, 75
2, 28866, Note_on_c, 0, 72, 0
2, 28866, Note_on_c, 0, 74, 75
2, 28895, Note_on_c, 0, 74, 0
2, 28932, Note_on_c, 0, 75, 75
2, 28944, Note_on_c, 0, 75, 0
2, 28944, Note_on_c, 0, 77, 75
2, 28950, Note_on_c, 0, 77, 0
2, 28950, Note_on_c, 0, 75, 75
2, 28956, Note_on_c, 0, 75, 0
2, 28956, Note_on_c, 0, 74, 75
2, 28962, Note_on_c, 0, 74, 0
2, 28962, Note_on_c, 0, 75, 75
2, 28991, Note_on_c, 0, 75, 0
2, 28992, Note_on_c, 0, 74, 75
2, 29059, Note_on_c, 0, 74, 0
2, 29064, Note_on_c, 0, 75, 75
2, 29074, Note_on_c, 0, 75, 0
2, 29088, Note_on_c, 0, 77, 75
2, 29098, Note_on_c, 0, 77, 0
2, 29098, Note_on_c, 0, 75, 75
2, 29108, Note_on_c, 0, 75, 0
2, 29108, Note_on_c, 0, 77, 75
2, 29118, Note_on_c, 0, 77, 0
2, 29118, Note_on_c, 0, 75, 75
2, 29128, Note_on_c, 0, 75, 0
2, 29128, Note_on_c, 0, 77, 75
2, 29138, Note_on_c, 0, 77, 0
2, 29138, Note_on_c, 0, 75, 75
2, 29148, Note_on_c, 0, 75, 0
2, 29148, Note_on_c, 0, 74, 75
2, 29166, Note_on_c, 0, 74, 0
2, 29166, Note_on_c, 0, 75, 75
2, 29184, Note_on_c, 0, 75, 0
2, 29184, Note_on_c, 0, 77, 75
2, 29229, Note_on_c, 0, 77, 0
2, 29232, Note_on_c, 0, 82, 91
2, 29328, Note_on_c, 0, 82, 0
2, 29328, Note_on_c, 0, 80, 75
2, 29399, Note_on_c, 0, 80, 0
2, 29400, Note_on_c, 0, 79, 75
2, 29423, Note_on_c, 0, 79, 0
2, 29424, Note_on_c, 0, 78, 75
2, 29447, Note_on_c, 0, 78, 0
2, 29448, Note_on_c, 0, 79, 75
2, 29471, Note_on_c, 0, 79, 0
2, 29472, Note_on_c, 0, 77, 75
2, 29495, Note_on_c, 0, 77, 0
2, 29496, Note_on_c, 0, 75, 75
2, 29519, Note_on_c, 0, 75, 0
2, 29520, Note_on_c, 0, 74, 75
2, 29543, Note_on_c, 0, 74, 0
2, 29544, Note_on_c, 0, 72, 75
2, 29567, Note_on_c, 0, 72, 0
2, 29568, Note_on_c, 0, 77, 75
2, 29578, Note_on_c, 0, 77, 0
2, 29592, Note_on_c, 0, 79, 75
2, 29600, Note_on_c, 0, 79, 0
2, 29600, Note_on_c, 0, 77, 75
2, 29608, Note_on_c, 0, 77, 0
2, 29608, Note_on_c, 0, 75, 75
2, 29616, Note_on_c, 0, 75, 0
2, 29616, Note_on_c, 0, 77, 75
2, 29639, Note_on_c, 0, 77, 0
2, 29640, Note_on_c, 0, 79, 75
2, 29663, Note_on_c, 0, 79, 0
2, 29664, Note_on_c, 0, 70, 75
2, 29709, Note_on_c, 0, 70, 0
2, 29712, Note_on_c, 0, 69, 75
2, 29757, Note_on_c, 0, 69, 0
2, 29760, Note_on_c, 0, 70, 75
2, 29805, Note_on_c, 0, 70, 0
2, 29808, Note_on_c, 0, 74, 75
2, 29853, Note_on_c, 0, 74, 0
2, 29856, Note_on_c, 0, 72, 75
2, 29879, Note_on_c, 0, 72, 0
2, 29880, Note_on_c, 0, 70, 75
2, 29903, Note_on_c, 0, 70, 0
2, 29904, Note_on_c, 0, 69, 75
2, 29927, Note_on_c, 0, 69, 0
2, 29928, Note_on_c, 0, 67, 75
2, 29997, Note_on_c, 0, 67, 0
2, 30000, Note_on_c, 0, 65, 75
2, 30082, Note_on_c, 0, 65, 0
2, 30084, Note_on_c, 0, 64, 75
2, 30096, Note_on_c, 0, 64, 0
2, 30096, Note_on_c, 0, 70, 75
2, 30144, Note_on_c, 0, 70, 0
2, 30144, Note_on_c, 0, 69, 75
2, 30164, Note_on_c, 0, 69, 0
2, 30192, Note_on_c, 0, 70, 75
2, 30237, Note_on_c, 0, 70, 0
2, 30240, Note_on_c, 0, 69, 75
2, 30263, Note_on_c, 0, 69, 0
2, 30264, Note_on_c, 0, 67, 75
2, 30287, Note_on_c, 0, 67, 0
2, 30288, Note_on_c, 0, 65, 75
2, 30311, Note_on_c, 0, 65, 0
2, 30312, Note_on_c, 0, 63, 75
2, 30381, Note_on_c, 0, 63, 0
2, 30384, Note_on_c, 0, 62, 75
2, 30466, Note_on_c, 0, 62, 0
2, 30468, Note_on_c, 0, 61, 75
2, 30480, Note_on_c, 0, 61, 0
2, 30480, Note_on_c, 0, 67, 75
2, 30528, Note_on_c, 0, 67, 0
2, 30528, Note_on_c, 0, 65, 75
2, 30548, Note_on_c, 0, 65, 0
2, 30576, Note_on_c, 0, 67, 75
2, 30621, Note_on_c, 0, 67, 0
2, 30624, Note_on_c, 0, 65, 75
2, 30647, Note_on_c, 0, 65, 0
2, 30648, Note_on_c, 0, 63, 75
2, 30671, Note_on_c, 0, 63, 0
2, 30672, Note_on_c, 0, 62, 75
2, 30695, Note_on_c, 0, 62, 0
2, 30696, Note_on_c, 0, 60, 75
2, 30765, Note_on_c, 0, 60, 0
2, 30768, Note_on_c, 0, 58, 75
2, 30850, Note_on_c, 0, 58, 0
2, 30852, Note_on_c, 0, 57, 75
2, 30864, Note_on_c, 0, 57, 0
2, 30864, Note_on_c, 0, 63, 75
2, 30957, Note_on_c, 0, 63, 0
2, 30960, Note_on_c, 0, 62, 75
2, 31005, Note_on_c, 0, 62, 0
2, 31044, Note_on_c, 0, 63, 75
2, 31056, Note_on_c, 0, 63, 0
2, 31056, Note_on_c, 0, 65, 75
2, 31062, Note_on_c, 0, 65, 0
2, 31062, Note_on_c, 0, 63, 75
2, 31068, Note_on_c, 0, 63, 0
2, 31068, Note_on_c, 0, 62, 75
2, 31074, Note_on_c, 0, 62, 0
2, 31074, Note_on_c, 0, 63, 75
2, 31138, Note_on_c, 0, 63, 0
2, 31140, Note_on_c, 0, 62, 75
2, 31152, Note_on_c, 0, 62, 0
2, 31152, Note_on_c, 0, 63, 75
2, 31158, Note_on_c, 0, 63, 0
2, 31158, Note_on_c, 0, 62, 75
2, 31164, Note_on_c, 0, 62, 0
2, 31164, Note_on_c, 0, 60, 75
2, 31170, Note_on_c, 0, 60, 0
2, 31170, Note_on_c, 0, 62, 75
2, 31199, Note_on_c, 0, 62, 0
2, 31236, Note_on_c, 0, 63, 75
2, 31241, Note_on_c, 0, 63, 0
2, 31248, Note_on_c, 0, 65, 75
2, 31254, Note_on_c, 0, 65, 0
2, 31254, Note_on_c, 0, 63, 75
2, 31260, Note_on_c, 0, 63, 0
2, 31260, Note_on_c, 0, 62, 75
2, 31266, Note_on_c, 0, 62, 0
2, 31266, Note_on_c, 0, 63, 75
2, 31295, Note_on_c, 0, 63, 0
2, 31296, Note_on_c, 0, 62, 75
2, 31363, Note_on_c, 0, 62, 0
2, 31368, Note_on_c, 0, 63, 75
2, 31378, Note_on_c, 0, 63, 0
2, 31392, Note_on_c, 0, 65, 75
2, 31402, Note_on_c, 0, 65, 0
2, 31402, Note_on_c, 0, 63, 75
2, 31412, Note_on_c, 0, 63, 0
2, 31412, Note_on_c, 0, 65, 75
2, 31422, Note_on_c, 0, 65, 0
2, 31422, Note_on_c, 0, 63, 75
2, 31432, Note_on_c, 0, 63, 0
2, 31432, Note_on_c, 0, 65, 75
2, 31442, Note_on_c, 0, 65, 0
2, 31442, Note_on_c, 0, 63, 75
2, 31452, Note_on_c, 0, 63, 0
2, 31452, Note_on_c, 0, 62, 75
2, 31470, Note_on_c, 0, 62, 0
2, 31470, Note_on_c, 0, 63, 75
2, 31488, Note_on_c, 0, 63, 0
2, 31488, Note_on_c, 0, 65, 75
2, 31533, Note_on_c, 0, 65, 0
2, 31536, Note_on_c, 0, 70, 91
2, 31632, Note_on_c, 0, 70, 0
2, 31632, Note_on_c, 0, 68, 75
2, 31721, Note_on_c, 0, 68, 0
2, 31728, Note_on_c, 0, 67, 75
2, 31817, Note_on_c, 0, 67, 0
2, 31824, Note_on_c, 0, 66, 75
2, 31869, Note_on_c, 0, 66, 0
2, 31872, Note_on_c, 0, 67, 75
2, 31920, Note_on_c, 0, 67, 0
2, 31920, Note_on_c, 0, 66, 76
2, 31965, Note_on_c, 0, 66, 0
2, 31968, Note_on_c, 0, 67, 77
2, 32016, Note_on_c, 0, 67, 0
2, 32016, Note_on_c, 0, 66, 78
2, 32061, Note_on_c, 0, 66, 0
2, 32064, Control_c, 0, 64, 127
2, 32064, Note_on_c, 0, 67, 79
2, 32109, Note_on_c, 0, 67, 0
2, 32112, Note_on_c, 0, 79, 80
2, 32157, Note_on_c, 0, 79, 0
2, 32160, Note_on_c, 0, 79, 81
2, 32205, Note_on_c, 0, 79, 0
2, 32208, Note_on_c, 0, 79, 82
2, 32253, Note_on_c, 0, 79, 0
2, 32256, Control_c, 0, 64, 0
2, 32256, Note_on_c, 0, 79, 84
2, 32345, Note_on_c, 0, 79, 0
2, 32352, Note_on_c, 0, 77, 84
2, 32375, Note_on_c, 0, 77, 0
2, 32376, Note_on_c, 0, 75, 84
2, 32399, Note_on_c, 0, 75, 0
2, 32400, Note_on_c, 0, 74, 84
2, 32423, Note_on_c, 0, 74, 0
2, 32424, Note_on_c, 0, 72, 84
2, 32447, Note_on_c, 0, 72, 0
2, 32448, Note_on_c, 0, 70, 84
2, 32567, Note_on_c, 0, 70, 0
2, 32568, Note_on_c, 0, 72, 84
2, 32580, Note_on_c, 0, 72, 0
2, 32580, Note_on_c, 0, 74, 84
2, 32592, Note_on_c, 0, 74, 0
2, 32592, Note_on_c, 0, 75, 84
2, 32604, Note_on_c, 0, 75, 0
2, 32604, Note_on_c, 0, 77, 84
2, 32616, Note_on_c, 0, 77, 0
2, 32616, Note_on_c, 0, 79, 84
2, 32628, Note_on_c, 0, 79, 0
2, 32628, Note_on_c, 0, 81, 84
2, 32640, Note_on_c, 0, 81, 0
2, 32640, Note_on_c, 0, 82, 84
2, 32685, Note_on_c, 0, 82, 0
2, 32688, Note_on_c, 0, 77, 84
2, 32733, Note_on_c, 0, 77, 0
2, 32736, Note_on_c, 0, 75, 84
2, 32759, Note_on_c, 0, 75, 0
2, 32760, Note_on_c, 0, 74, 84
2, 32783, Note_on_c, 0, 74, 0
2, 32784, Note_on_c, 0, 72, 84
2, 32807, Note_on_c, 0, 72, 0
2, 32808, Note_on_c, 0, 70, 84
2, 32831, Note_on_c, 0, 70, 0
2, 32832, Note_on_c, 0, 65, 84
2, 32995, Note_on_c, 0, 65, 0
2, 33000, Note_on_c, 0, 70, 84
2, 33012, Note_on_c, 0, 70, 0
2, 33012, Note_on_c, 0, 72, 84
2, 33024, Note_on_c, 0, 72, 0
2, 33024, Note_on_c, 0, 74, 84
2, 33035, Note_on_c, 0, 74, 0
2, 33035, Note_on_c, 0, 72, 84
2, 33046, Note_on_c, 0, 72, 0
2, 33046, Note_on_c, 0, 74, 84
2, 33057, Note_on_c, 0, 74, 0
2, 33057, Note_on_c, 0, 72, 84
2, 33068, Note_on_c, 0, 72, 0
2, 33068, Note_on_c, 0, 74, 84
2, 33079, Note_on_c, 0, 74, 0
2, 33079, Note_on_c, 0, 72, 84
2, 33090, Note_on_c, 0, 72, 0
2, 33090, Note_on_c, 0, 74, 84
2, 33101, Note_on_c, 0, 74, 0
2, 33101, Note_on_c, 0, 72, 84
2, 33112, Note_on_c, 0, 72, 0
2, 33112, Note_on_c, 0, 74, 84
2, 33123, Note_on_c, 0, 74, 0
2, 33123, Note_on_c, 0, 72, 84
2, 33134, Note_on_c, 0, 72, 0
2, 33134, Note_on_c, 0, 74, 84
2, 33145, Note_on_c, 0, 74, 0
2, 33145, Note_on_c, 0, 72, 84
2, 33156, Note_on_c, 0, 72, 0
2, 33156, Note_on_c, 0, 74, 84
2, 33166, Note_on_c, 0, 74, 0
2, 33166, Note_on_c, 0, 72, 84
2, 33176, Note_on_c, 0, 72, 0
2, 33176, Note_on_c, 0, 70, 84
2, 33196, Note_on_c, 0, 70, 0
2, 33196, Note_on_c, 0, 72, 84
2, 33216, Note_on_c, 0, 72, 0
2, 33216, Note_on_c, 0, 70, 84
2, 33305, Note_on_c, 0, 70, 0
2, 33336, Note_on_c, 0, 65, 75
2, 33346, Note_on_c, 0, 65, 0
2, 33360, Note_on_c, 0, 67, 75
2, 33372, Note_on_c, 0, 67, 0
2, 33372, Note_on_c, 0, 65, 75
2, 33384, Note_on_c, 0, 65, 0
2, 33384, Note_on_c, 0, 64, 75
2, 33396, Note_on_c, 0, 64, 0
2, 33396, Note_on_c, 0, 65, 75
2, 33408, Note_on_c, 0, 65, 0
2, 33432, Note_on_c, 0, 67, 75
2, 33442, Note_on_c, 0, 67, 0
2, 33456, Note_on_c, 0, 69, 75
2, 33468, Note_on_c, 0, 69, 0
2, 33468, Note_on_c, 0, 67, 75
2, 33480, Note_on_c, 0, 67, 0
2, 33480, Note_on_c, 0, 66, 75
2, 33492, Note_on_c, 0, 66, 0
2, 33492, Note_on_c, 0, 67, 75
2, 33504, Note_on_c, 0, 67, 0
2, 33528, Note_on_c, 0, 69, 75
2, 33551, Note_on_c, 0, 69, 0
2, 33552, Note_on_c, 0, 72, 75
2, 33575, Note_on_c, 0, 72, 0
2, 33576, Note_on_c, 0, 75, 75
2, 33599, Note_on_c, 0, 75, 0
2, 33600, Note_on_c, 0, 75, 75
2, 33623, Note_on_c, 0, 75, 0
2, 33624, Note_on_c, 0, 74, 75
2, 33647, Note_on_c, 0, 74, 0
2, 33648, Note_on_c, 0, 72, 75
2, 33671, Note_on_c, 0, 72, 0
2, 33672, Note_on_c, 0, 70, 75
2, 33695, Note_on_c, 0, 70, 0
2, 33720, Note_on_c, 0, 65, 75
2, 33730, Note_on_c, 0, 65, 0
2, 33744, Note_on_c, 0, 67, 75
2, 33756, Note_on_c, 0, 67, 0
2, 33756, Note_on_c, 0, 65, 75
2, 33768, Note_on_c, 0, 65, 0
2, 33768, Note_on_c, 0, 64, 75
2, 33780, Note_on_c, 0, 64, 0
2, 33780, Note_on_c, 0, 65, 75
2, 33792, Note_on_c, 0, 65, 0
2, 33816, Note_on_c, 0, 67, 75
2, 33826, Note_on_c, 0, 67, 0
2, 33840, Note_on_c, 0, 69, 75
2, 33852, Note_on_c, 0, 69, 0
2, 33852, Note_on_c, 0, 67, 75
2, 33864, Note_on_c, 0, 67, 0
2, 33864, Note_on_c, 0, 66, 75
2, 33876, Note_on_c, 0, 66, 0
2, 33876, Note_on_c, 0, 67, 75
2, 33888, Note_on_c, 0, 67, 0
2, 33912, Note_on_c, 0, 63, 75
2, 33935, Note_on_c, 0, 63, 0
2, 33936, Note_on_c, 0, 60, 75
2, 33959, Note_on_c, 0, 60, 0
2, 33960, Note_on_c, 0, 57, 75
2, 33970, Note_on_c, 0, 57, 0
2, 33984, Note_on_c, 0, 60, 75
2, 33996, Note_on_c, 0, 60, 0
2, 33996, Note_on_c, 0, 58, 75
2, 34008, Note_on_c, 0, 58, 0
2, 34008, Note_on_c, 0, 57, 75
2, 34020, Note_on_c, 0, 57, 0
2, 34020, Note_on_c, 0, 58, 75
2, 34032, Note_on_c, 0, 58, 0
2, 34032, Note_on_c, 0, 58, 75
2, 34062, Note_on_c, 0, 58, 0
2, 34128, Note_on_c, 0, 70, 75
2, 34148, Note_on_c, 0, 70, 0
2, 34176, Note_on_c, 0, 73, 75
2, 34306, Note_on_c, 0, 73, 0
2, 34308, Note_on_c, 0, 70, 91
2, 34320, Note_on_c, 0, 70, 0
2, 34320, Note_on_c, 0, 72, 75
2, 34328, Note_on_c, 0, 72, 0
2, 34328, Note_on_c, 0, 70, 75
2, 34336, Note_on_c, 0, 70, 0
2, 34336, Note_on_c, 0, 72, 75
2, 34344, Note_on_c, 0, 72, 0
2, 34344, Note_on_c, 0, 70, 75
2, 34352, Note_on_c, 0, 70, 0
2, 34352, Note_on_c, 0, 68, 75
2, 34360, Note_on_c, 0, 68, 0
2, 34360, Note_on_c, 0, 70, 75
2, 34368, Note_on_c, 0, 70, 0
2, 34368, Note_on_c, 0, 77, 75
2, 34498, Note_on_c, 0, 77, 0
2, 34500, Note_on_c, 0, 73, 91
2, 34512, Note_on_c, 0, 73, 0
2, 34512, Note_on_c, 0, 75, 75
2, 34520, Note_on_c, 0, 75, 0
2, 34520, Note_on_c, 0, 73, 75
2, 34528, Note_on_c, 0, 73, 0
2, 34528, Note_on_c, 0, 75, 75
2, 34536, Note_on_c, 0, 75, 0
2, 34536, Note_on_c, 0, 73, 75
2, 34544, Note_on_c, 0, 73, 0
2, 34544, Note_on_c, 0, 72, 75
2, 34552, Note_on_c, 0, 72, 0
2, 34552, Note_on_c, 0, 73, 75
2, 34560, Note_on_c, 0, 73, 0
2, 34560, Note_on_c, 0, 82, 75
2, 34679, Note_on_c, 0, 82, 0
2, 34680, Note_on_c, 0, 80, 75
2, 34703, Note_on_c, 0, 80, 0
2, 34704, Note_on_c, 0, 79, 75
2, 34727, Note_on_c, 0, 79, 0
2, 34728, Note_on_c, 0, 77, 75
2, 34751, Note_on_c, 0, 77, 0
2, 34752, Note_on_c, 0, 77, 75
2, 34848, Note_on_c, 0, 77, 0
2, 34848, Note_on_c, 0, 76, 75
2, 34882, Note_on_c, 0, 76, 0
2, 34884, Note_on_c, 0, 72, 91
2, 34896, Note_on_c, 0, 72, 0
2, 34896, Note_on_c, 0, 73, 75
2, 34904, Note_on_c, 0, 73, 0
2, 34904, Note_on_c, 0, 72, 75
2, 34912, Note_on_c, 0, 72, 0
2, 34912, Note_on_c, 0, 73, 75
2, 34920, Note_on_c, 0, 73, 0
2, 34920, Note_on_c, 0, 72, 75
2, 34928, Note_on_c, 0, 72, 0
2, 34928, Note_on_c, 0, 70, 75
2, 34936, Note_on_c, 0, 70, 0
2, 34936, Note_on_c, 0, 72, 75
2, 34944, Note_on_c, 0, 72, 0
2, 34944, Note_on_c, 0, 77, 75
2, 35074, Note_on_c, 0, 77, 0
2, 35076, Note_on_c, 0, 72, 91
2, 35088, Note_on_c, 0, 72, 0
2, 35088, Note_on_c, 0, 73, 75
2, 35096, Note_on_c, 0, 73, 0
2, 35096, Note_on_c, 0, 72, 75
2, 35104, Note_on_c, 0, 72, 0
2, 35104, Note_on_c, 0, 73, 75
2, 35112, Note_on_c, 0, 73, 0
2, 35112, Note_on_c, 0, 72, 75
2, 35120, Note_on_c, 0, 72, 0
2, 35120, Note_on_c, 0, 70, 75
2, 35128, Note_on_c, 0, 70, 0
2, 35128, Note_on_c, 0, 72, 75
2, 35136, Note_on_c, 0, 72, 0
2, 35136, Note_on_c, 0, 80, 75
2, 35266, Note_on_c, 0, 80, 0
2, 35268, Note_on_c, 0, 77, 91
2, 35280, Note_on_c, 0, 77, 0
2, 35280, Note_on_c, 0, 79, 75
2, 35288, Note_on_c, 0, 79, 0
2, 35288, Note_on_c, 0, 77, 75
2, 35296, Note_on_c, 0, 77, 0
2, 35296, Note_on_c, 0, 79, 75
2, 35304, Note_on_c, 0, 79, 0
2, 35304, Note_on_c, 0, 77, 75
2, 35312, Note_on_c, 0, 77, 0
2, 35312, Note_on_c, 0, 75, 75
2, 35320, Note_on_c, 0, 75, 0
2, 35320, Note_on_c, 0, 77, 75
2, 35328, Note_on_c, 0, 77, 0
2, 35328, Note_on_c, 0, 84, 75
2, 35447, Note_on_c, 0, 84, 0
2, 35448, Note_on_c, 0, 82, 75
2, 35471, Note_on_c, 0, 82, 0
2, 35472, Note_on_c, 0, 80, 75
2, 35495, Note_on_c, 0, 80, 0
2, 35496, Note_on_c, 0, 79, 75
2, 35519, Note_on_c, 0, 79, 0
2, 35520, Note_on_c, 0, 79, 75
2, 35616, Note_on_c, 0, 79, 0
2, 35616, Note_on_c, 0, 78, 75
2, 35650, Note_on_c, 0, 78, 0
2, 35652, Note_on_c, 0, 72, 91
2, 35664, Note_on_c, 0, 72, 0
2, 35664, Note_on_c, 0, 74, 75
2, 35672, Note_on_c, 0, 74, 0
2, 35672, Note_on_c, 0, 72, 75
2, 35680, Note_on_c, 0, 72, 0
2, 35680, Note_on_c, 0, 74, 75
2, 35688, Note_on_c, 0, 74, 0
2, 35688, Note_on_c, 0, 72, 75
2, 35696, Note_on_c, 0, 72, 0
2, 35696, Note_on_c, 0, 71, 75
2, 35704, Note_on_c, 0, 71, 0
2, 35704, Note_on_c, 0, 72, 75
2, 35712, Note_on_c, 0, 72, 0
2, 35712, Note_on_c, 0, 75, 75
2, 35842, Note_on_c, 0, 75, 0
2, 35844, Note_on_c, 0, 72, 91
2, 35856, Note_on_c, 0, 72, 0
2, 35856, Note_on_c, 0, 74, 75
2, 35864, Note_on_c, 0, 74, 0
2, 35864, Note_on_c, 0, 72, 75
2, 35872, Note_on_c, 0, 72, 0
2, 35872, Note_on_c, 0, 74, 75
2, 35880, Note_on_c, 0, 74, 0
2, 35880, Note_on_c, 0, 72, 75
2, 35888, Note_on_c, 0, 72, 0
2, 35888, Note_on_c, 0, 70, 75
2, 35896, Note_on_c, 0, 70, 0
2, 35896, Note_on_c, 0, 72, 75
2, 35904, Note_on_c, 0, 72, 0
2, 35904, Note_on_c, 0, 79, 75
2, 36034, Note_on_c, 0, 79, 0
2, 36036, Note_on_c, 0, 72, 91
2, 36048, Note_on_c, 0, 72, 0
2, 36048, Note_on_c, 0, 74, 75
2, 36056, Note_on_c, 0, 74, 0
2, 36056, Note_on_c, 0, 72, 75
2, 36064, Note_on_c, 0, 72, 0
2, 36064, Note_on_c, 0, 74, 75
2, 36072, Note_on_c, 0, 74, 0
2, 36072, Note_on_c, 0, 72, 75
2, 36080, Note_on_c, 0, 72, 0
2, 36080, Note_on_c, 0, 70, 75
2, 36088, Note_on_c, 0, 70, 0
2, 36088, Note_on_c, 0, 72, 75
2, 36096, Note_on_c, 0, 72, 0
2, 36096, Note_on_c, 0, 71, 75
2, 36185, Note_on_c, 0, 71, 0
2, 36216, Note_on_c, 0, 77, 75
2, 36226, Note_on_c, 0, 77, 0
2, 36240, Note_on_c, 0, 79, 75
2, 36252, Note_on_c, 0, 79, 0
2, 36252, Note_on_c, 0, 77, 75
2, 36264, Note_on_c, 0, 77, 0
2, 36264, Note_on_c, 0, 75, 75
2, 36276, Note_on_c, 0, 75, 0
2, 36276, Note_on_c, 0, 77, 75
2, 36288, Note_on_c, 0, 77, 0
2, 36288, Note_on_c, 0, 77, 75
2, 36312, Note_on_c, 0, 77, 0
2, 36312, Note_on_c, 0, 75, 75
2, 36335, Note_on_c, 0, 75, 0
2, 36336, Note_on_c, 0, 79, 75
2, 36360, Note_on_c, 0, 79, 0
2, 36360, Note_on_c, 0, 72, 75
2, 36383, Note_on_c, 0, 72, 0
2, 36384, Note_on_c, 0, 72, 75
2, 36408, Note_on_c, 0, 72, 0
2, 36408, Note_on_c, 0, 71, 75
2, 36431, Note_on_c, 0, 71, 0
2, 36432, Note_on_c, 0, 74, 75
2, 36456, Note_on_c, 0, 74, 0
2, 36456, Note_on_c, 0, 71, 75
2, 36479, Note_on_c, 0, 71, 0
2, 36480, Note_on_c, 0, 72, 75
2, 36500, Note_on_c, 0, 72, 0
2, 36528, Note_on_c, 0, 75, 75
2, 36548, Note_on_c, 0, 75, 0
2, 36576, Note_on_c, 0, 74, 75
2, 36596, Note_on_c, 0, 74, 0
2, 36624, Note_on_c, 0, 77, 75
2, 36644, Note_on_c, 0, 77, 0
2, 36672, Note_on_c, 0, 77, 75
2, 36696, Note_on_c, 0, 77, 0
2, 36696, Note_on_c, 0, 75, 75
2, 36719, Note_on_c, 0, 75, 0
2, 36720, Note_on_c, 0, 79, 75
2, 36744, Note_on_c, 0, 79, 0
2, 36744, Note_on_c, 0, 72, 75
2, 36767, Note_on_c, 0, 72, 0
2, 36768, Note_on_c, 0, 72, 75
2, 36792, Note_on_c, 0, 72, 0
2, 36792, Note_on_c, 0, 71, 75
2, 36815, Note_on_c, 0, 71, 0
2, 36816, Note_on_c, 0, 74, 75
2, 36840, Note_on_c, 0, 74, 0
2, 36840, Note_on_c, 0, 71, 75
2, 36863, Note_on_c, 0, 71, 0
2, 36864, Note_on_c, 0, 72, 75
2, 36884, Note_on_c, 0, 72, 0
2, 36912, Note_on_c, 0, 75, 75
2, 36932, Note_on_c, 0, 75, 0
2, 36960, Note_on_c, 0, 74, 75
2, 36980, Note_on_c, 0, 74, 0
2, 37008, Note_on_c, 0, 77, 75
2, 37028, Note_on_c, 0, 77, 0
2, 37056, Note_on_c, 0, 75, 75
2, 37076, Note_on_c, 0, 75, 0
2, 37104, Note_on_c, 0, 84, 75
2, 37124, Note_on_c, 0, 84, 0
2, 37152, Note_on_c, 0, 82, 75
2, 37172, Note_on_c, 0, 82, 0
2, 37200, Note_on_c, 0, 80, 75
2, 37210, Note_on_c, 0, 80, 0
2, 37210, Note_on_c, 0, 82, 75
2, 37220, Note_on_c, 0, 82, 0
2, 37220, Note_on_c, 0, 80, 75
2, 37230, Note_on_c, 0, 80, 0
2, 37230, Note_on_c, 0, 79, 75
2, 37239, Note_on_c, 0, 79, 0
2, 37239, Note_on_c, 0, 80, 75
2, 37272, Note_on_c, 0, 80, 0
2, 37272, Note_on_c, 0, 79, 75
2, 37295, Note_on_c, 0, 79, 0
2, 37296, Note_on_c, 0, 82, 75
2, 37320, Note_on_c, 0, 82, 0
2, 37320, Note_on_c, 0, 75, 75
2, 37343, Note_on_c, 0, 75, 0
2, 37344, Note_on_c, 0, 75, 75
2, 37368, Note_on_c, 0, 75, 0
2, 37368, Note_on_c, 0, 74, 75
2, 37391, Note_on_c, 0, 74, 0
2, 37392, Note_on_c, 0, 77, 75
2, 37416, Note_on_c, 0, 77, 0
2, 37416, Note_on_c, 0, 74, 75
2, 37439, Note_on_c, 0, 74, 0
2, 37440, Note_on_c, 0, 75, 75
2, 37460, Note_on_c, 0, 75, 0
2, 37488, Note_on_c, 0, 79, 75
2, 37508, Note_on_c, 0, 79, 0
2, 37536, Note_on_c, 0, 77, 75
2, 37556, Note_on_c, 0, 77, 0
2, 37584, Note_on_c, 0, 80, 75
2, 37604, Note_on_c, 0, 80, 0
2, 37632, Note_on_c, 0, 80, 75
2, 37656, Note_on_c, 0, 80, 0
2, 37656, Note_on_c, 0, 79, 75
2, 37679, Note_on_c, 0, 79, 0
2, 37680, Note_on_c, 0, 82, 75
2, 37704, Note_on_c, 0, 82, 0
2, 37704, Note_on_c, 0, 75, 75
2, 37727, Note_on_c, 0, 75, 0
2, 37728, Note_on_c, 0, 75, 75
2, 37752, Note_on_c, 0, 75, 0
2, 37752, Note_on_c, 0, 74, 75
2, 37775, Note_on_c, 0, 74, 0
2, 37776, Note_on_c, 0, 77, 75
2, 37800, Note_on_c, 0, 77, 0
2, 37800, Note_on_c, 0, 74, 75
2, 37823, Note_on_c, 0, 74, 0
2, 37824, Note_on_c, 0, 75, 75
2, 37844, Note_on_c, 0, 75, 0
2, 37872, Note_on_c, 0, 79, 75
2, 37892, Note_on_c, 0, 79, 0
2, 37920, Note_on_c, 0, 77, 75
2, 37940, Note_on_c, 0, 77, 0
2, 37968, Note_on_c, 0, 80, 75
2, 37988, Note_on_c, 0, 80, 0
2, 38016, Note_on_c, 0, 79, 75
2, 38064, Note_on_c, 0, 79, 0
2, 38064, Note_on_c, 0, 82, 75
2, 38109, Note_on_c, 0, 82, 0
2, 38136, Note_on_c, 0, 75, 75
2, 38146, Note_on_c, 0, 75, 0
2, 38160, Note_on_c, 0, 77, 75
2, 38172, Note_on_c, 0, 77, 0
2, 38172, Note_on_c, 0, 75, 75
2, 38184, Note_on_c, 0, 75, 0
2, 38184, Note_on_c, 0, 74, 75
2, 38196, Note_on_c, 0, 74, 0
2, 38196, Note_on_c, 0, 75, 75
2, 38208, Note_on_c, 0, 75, 0
2, 38208, Note_on_c, 0, 80, 75
2, 38256, Note_on_c, 0, 80, 0
2, 38256, Note_on_c, 0, 84, 75
2, 38301, Note_on_c, 0, 84, 0
2, 38328, Note_on_c, 0, 75, 75
2, 38338, Note_on_c, 0, 75, 0
2, 38352, Note_on_c, 0, 77, 75
2, 38364, Note_on_c, 0, 77, 0
2, 38364, Note_on_c, 0, 75, 75
2, 38376, Note_on_c, 0, 75, 0
2, 38376, Note_on_c, 0, 74, 75
2, 38388, Note_on_c, 0, 74, 0
2, 38388, Note_on_c, 0, 75, 75
2, 38400, Note_on_c, 0, 75, 0
2, 38400, Note_on_c, 0, 73, 75
2, 38448, Note_on_c, 0, 73, 0
2, 38448, Note_on_c, 0, 82, 75
2, 38493, Note_on_c, 0, 82, 0
2, 38520, Note_on_c, 0, 73, 75
2, 38530, Note_on_c, 0, 73, 0
2, 38544, Note_on_c, 0, 75, 75
2, 38556, Note_on_c, 0, 75, 0
2, 38556, Note_on_c, 0, 73, 75
2, 38568, Note_on_c, 0, 73, 0
2, 38568, Note_on_c, 0, 72, 75
2, 38580, Note_on_c, 0, 72, 0
2, 38580, Note_on_c, 0, 73, 75
2, 38592, Note_on_c, 0, 73, 0
2, 38592, Note_on_c, 0, 73, 75
2, 38616, Note_on_c, 0, 73, 0
2, 38616, Note_on_c, 0, 72, 75
2, 38639, Note_on_c, 0, 72, 0
2, 38640, Note_on_c, 0, 75, 75
2, 38664, Note_on_c, 0, 75, 0
2, 38664, Note_on_c, 0, 68, 75
2, 38687, Note_on_c, 0, 68, 0
2, 38688, Note_on_c, 0, 68, 75
2, 38712, Note_on_c, 0, 68, 0
2, 38712, Note_on_c, 0, 67, 75
2, 38735, Note_on_c, 0, 67, 0
2, 38736, Note_on_c, 0, 70, 75
2, 38760, Note_on_c, 0, 70, 0
2, 38760, Note_on_c, 0, 67, 75
2, 38783, Note_on_c, 0, 67, 0
2, 38784, Note_on_c, 0, 68, 75
2, 38804, Note_on_c, 0, 68, 0
2, 38832, Note_on_c, 0, 72, 75
2, 38852, Note_on_c, 0, 72, 0
2, 38880, Note_on_c, 0, 70, 75
2, 38900, Note_on_c, 0, 70, 0
2, 38928, Note_on_c, 0, 73, 75
2, 38948, Note_on_c, 0, 73, 0
2, 38976, Note_on_c, 0, 73, 75
2, 39000, Note_on_c, 0, 73, 0
2, 39000, Note_on_c, 0, 72, 75
2, 39023, Note_on_c, 0, 72, 0
2, 39024, Note_on_c, 0, 75, 75
2, 39048, Note_on_c, 0, 75, 0
2, 39048, Note_on_c, 0, 68, 75
2, 39071, Note_on_c, 0, 68, 0
2, 39072, Note_on_c, 0, 68, 75
2, 39096, Note_on_c, 0, 68, 0
2, 39096, Note_on_c, 0, 67, 75
2, 39119, Note_on_c, 0, 67, 0
2, 39120, Note_on_c, 0, 70, 75
2, 39144, Note_on_c, 0, 70, 0
2, 39144, Note_on_c, 0, 67, 75
2, 39167, Note_on_c, 0, 67, 0
2, 39168, Note_on_c, 0, 68, 75
2, 39188, Note_on_c, 0, 68, 0
2, 39216, Note_on_c, 0, 72, 75
2, 39236, Note_on_c, 0, 72, 0
2, 39264, Note_on_c, 0, 70, 75
2, 39284, Note_on_c, 0, 70, 0
2, 39312, Note_on_c, 0, 73, 75
2, 39332, Note_on_c, 0, 73, 0
2, 39360, Note_on_c, 0, 72, 75
2, 39380, Note_on_c, 0, 72, 0
2, 39408, Note_on_c, 0, 80, 91
2, 39479, Note_on_c, 0, 80, 0
2, 39480, Note_on_c, 0, 79, 75
2, 39503, Note_on_c, 0, 79, 0
2, 39504, Note_on_c, 0, 77, 75
2, 39527, Note_on_c, 0, 77, 0
2, 39528, Note_on_c, 0, 75, 75
2, 39551, Note_on_c, 0, 75, 0
2, 39552, Note_on_c, 0, 75, 75
2, 39619, Note_on_c, 0, 75, 0
2, 39624, Note_on_c, 0, 74, 75
2, 39634, Note_on_c, 0, 74, 0
2, 39648, Note_on_c, 0, 75, 75
2, 39658, Note_on_c, 0, 75, 0
2, 39658, Note_on_c, 0, 74, 75
2, 39668, Note_on_c, 0, 74, 0
2, 39668, Note_on_c, 0, 75, 75
2, 39678, Note_on_c, 0, 75, 0
2, 39678, Note_on_c, 0, 74, 75
2, 39688, Note_on_c, 0, 74, 0
2, 39688, Note_on_c, 0, 75, 75
2, 39698, Note_on_c, 0, 75, 0
2, 39698, Note_on_c, 0, 74, 75
2, 39708, Note_on_c, 0, 74, 0
2, 39708, Note_on_c, 0, 75, 75
2, 39717, Note_on_c, 0, 75, 0
2, 39717, Note_on_c, 0, 74, 75
2, 39726, Note_on_c, 0, 74, 0
2, 39726, Note_on_c, 0, 72, 75
2, 39735, Note_on_c, 0, 72, 0
2, 39735, Note_on_c, 0, 74, 75
2, 39744, Note_on_c, 0, 74, 0
2, 39744, Note_on_c, 0, 75, 75
2, 39789, Note_on_c, 0, 75, 0
2, 39792, Note_on_c, 0, 82, 75
2, 39837, Note_on_c, 0, 82, 0
2, 39840, Note_on_c, 0, 84, 75
2, 39864, Note_on_c, 0, 84, 0
2, 39864, Note_on_c, 0, 82, 75
2, 39887, Note_on_c, 0, 82, 0
2, 39888, Note_on_c, 0, 80, 75
2, 39911, Note_on_c, 0, 80, 0
2, 39912, Note_on_c, 0, 79, 75
2, 39935, Note_on_c, 0, 79, 0
2, 39936, Note_on_c, 0, 77, 75
2, 39981, Note_on_c, 0, 77, 0
2, 39984, Note_on_c, 0, 77, 76
2, 39996, Note_on_c, 0, 77, 0
2, 39996, Note_on_c, 0, 79, 76
2, 40008, Note_on_c, 0, 79, 0
2, 40008, Note_on_c, 0, 77, 77
2, 40020, Note_on_c, 0, 77, 0
2, 40020, Note_on_c, 0, 79, 77
2, 40032, Note_on_c, 0, 79, 0
2, 40032, Note_on_c, 0, 80, 78
2, 40077, Note_on_c, 0, 80, 0
2, 40080, Note_on_c, 0, 80, 79
2, 40092, Note_on_c, 0, 80, 0
2, 40092, Note_on_c, 0, 82, 79
2, 40104, Note_on_c, 0, 82, 0
2, 40104, Note_on_c, 0, 80, 80
2, 40116, Note_on_c, 0, 80, 0
2, 40116, Note_on_c, 0, 82, 80
2, 40128, Note_on_c, 0, 82, 0
2, 40128, Note_on_c, 0, 84, 97
2, 40258, Note_on_c, 0, 84, 0
2, 40260, Note_on_c, 0, 75, 84
2, 40265, Note_on_c, 0, 75, 0
2, 40272, Note_on_c, 0, 77, 84
2, 40282, Note_on_c, 0, 77, 0
2, 40282, Note_on_c, 0, 75, 84
2, 40292, Note_on_c, 0, 75, 0
2, 40292, Note_on_c, 0, 77, 84
2, 40302, Note_on_c, 0, 77, 0
2, 40302, Note_on_c, 0, 74, 84
2, 40311, Note_on_c, 0, 74, 0
2, 40311, Note_on_c, 0, 75, 84
2, 40320, Note_on_c, 0, 75, 0
2, 40320, Note_on_c, 0, 74, 84
2, 40343, Note_on_c, 0, 74, 0
2, 40344, Note_on_c, 0, 82, 84
2, 40367, Note_on_c, 0, 82, 0
2, 40368, Note_on_c, 0, 77, 84
2, 40391, Note_on_c, 0, 77, 0
2, 40392, Note_on_c, 0, 74, 84
2, 40415, Note_on_c, 0, 74, 0
2, 40416, Note_on_c, 0, 70, 84
2, 40461, Note_on_c, 0, 70, 0
2, 40464, Note_on_c, 0, 70, 84
2, 40509, Note_on_c, 0, 70, 0
2, 40512, Note_on_c, 0, 72, 84
2, 40522, Note_on_c, 0, 72, 0
2, 40522, Note_on_c, 0, 70, 84
2, 40532, Note_on_c, 0, 70, 0
2, 40532, Note_on_c, 0, 72, 84
2, 40542, Note_on_c, 0, 72, 0
2, 40542, Note_on_c, 0, 70, 84
2, 40552, Note_on_c, 0, 70, 0
2, 40552, Note_on_c, 0, 72, 84
2, 40562, Note_on_c, 0, 72, 0
2, 40562, Note_on_c, 0, 70, 84
2, 40572, Note_on_c, 0, 70, 0
2, 40572, Note_on_c, 0, 72, 84
2, 40581, Note_on_c, 0, 72, 0
2, 40581, Note_on_c, 0, 70, 84
2, 40608, Note_on_c, 0, 70, 0
2, 40656, Note_on_c, 0, 67, 75
2, 40701, Note_on_c, 0, 67, 0
2, 40704, Note_on_c, 0, 70, 75
2, 40845, Note_on_c, 0, 70, 0
2, 40848, Note_on_c, 0, 67, 75
2, 40882, Note_on_c, 0, 67, 0
2, 40884, Note_on_c, 0, 68, 75
2, 40896, Note_on_c, 0, 68, 0
2, 40896, Note_on_c, 0, 70, 75
2, 41037, Note_on_c, 0, 70, 0
2, 41040, Note_on_c, 0, 67, 75
2, 41052, Note_on_c, 0, 67, 0
2, 41052, Note_on_c, 0, 68, 75
2, 41064, Note_on_c, 0, 68, 0
2, 41064, Note_on_c, 0, 67, 75
2, 41076, Note_on_c, 0, 67, 0
2, 41076, Note_on_c, 0, 68, 75
2, 41088, Note_on_c, 0, 68, 0
2, 41088, Note_on_c, 0, 70, 75
2, 41108, Note_on_c, 0, 70, 0
2, 41136, Note_on_c, 0, 67, 75
2, 41148, Note_on_c, 0, 67, 0
2, 41148, Note_on_c, 0, 68, 75
2, 41160, Note_on_c, 0, 68, 0
2, 41160, Note_on_c, 0, 67, 75
2, 41172, Note_on_c, 0, 67, 0
2, 41172, Note_on_c, 0, 68, 75
2, 41184, Note_on_c, 0, 68, 0
2, 41184, Note_on_c, 0, 70, 75
2, 41204, Note_on_c, 0, 70, 0
2, 41232, Note_on_c, 0, 67, 75
2, 41244, Note_on_c, 0, 67, 0
2, 41244, Note_on_c, 0, 68, 75
2, 41256, Note_on_c, 0, 68, 0
2, 41256, Note_on_c, 0, 67, 75
2, 41268, Note_on_c, 0, 67, 0
2, 41268, Note_on_c, 0, 68, 75
2, 41280, Note_on_c, 0, 68, 0
2, 41280, Note_on_c, 0, 70, 75
2, 41300, Note_on_c, 0, 70, 0
2, 41328, Note_on_c, 0, 75, 75
2, 41348, Note_on_c, 0, 75, 0
2, 41424, Note_on_c, 0, 63, 75
2, 41444, Note_on_c, 0, 63, 0
2, 41472, Note_on_c, 0, 67, 75
2, 41605, Note_on_c, 0, 67, 0
2, 41616, Note_on_c, 0, 65, 75
2, 41628, Note_on_c, 0, 65, 0
2, 41628, Note_on_c, 0, 63, 75
2, 41661, Note_on_c, 0, 63, 0
2, 41664, Note_on_c, 0, 62, 75
2, 41808, Note_on_c, 0, 62, 0
2, 41808, Note_on_c, 0, 60, 75
2, 41828, Note_on_c, 0, 60, 0
2, 41856, Note_on_c, 0, 68, 75
2, 41989, Note_on_c, 0, 68, 0
2, 42000, Note_on_c, 0, 67, 75
2, 42012, Note_on_c, 0, 67, 0
2, 42012, Note_on_c, 0, 65, 75
2, 42045, Note_on_c, 0, 65, 0
2, 42048, Note_on_c, 0, 63, 75
2, 42192, Note_on_c, 0, 63, 0
2, 42192, Note_on_c, 0, 62, 75
2, 42212, Note_on_c, 0, 62, 0
2, 42240, Note_on_c, 0, 70, 75
2, 42373, Note_on_c, 0, 70, 0
2, 42384, Note_on_c, 0, 68, 75
2, 42396, Note_on_c, 0, 68, 0
2, 42396, Note_on_c, 0, 67, 75
2, 42429, Note_on_c, 0, 67, 0
2, 42432, Note_on_c, 0, 65, 75
2, 42576, Note_on_c, 0, 65, 0
2, 42576, Note_on_c, 0, 63, 75
2, 42596, Note_on_c, 0, 63, 0
2, 42624, Note_on_c, 0, 68, 75
2, 42757, Note_on_c, 0, 68, 0
2, 42768, Note_on_c, 0, 67, 75
2, 42813, Note_on_c, 0, 67, 0
2, 42816, Note_on_c, 0, 72, 75
2, 42905, Note_on_c, 0, 72, 0
2, 42912, Note_on_c, 0, 70, 75
2, 43001, Note_on_c, 0, 70, 0
2, 43032, Note_on_c, 0, 68, 91
2, 43042, Note_on_c, 0, 68, 0
2, 43056, Note_on_c, 0, 70, 75
2, 43068, Note_on_c, 0, 70, 0
2, 43068, Note_on_c, 0, 68, 75
2, 43080, Note_on_c, 0, 68, 0
2, 43080, Note_on_c, 0, 67, 76
2, 43092, Note_on_c, 0, 67, 0
2, 43092, Note_on_c, 0, 68, 76
2, 43104, Note_on_c, 0, 68, 0
2, 43128, Note_on_c, 0, 67, 93
2, 43138, Note_on_c, 0, 67, 0
2, 43152, Note_on_c, 0, 68, 77
2, 43164, Note_on_c, 0, 68, 0
2, 43164, Note_on_c, 0, 67, 78
2, 43176, Note_on_c, 0, 67, 0
2, 43176, Note_on_c, 0, 65, 78
2, 43188, Note_on_c, 0, 65, 0
2, 43188, Note_on_c, 0, 67, 78
2, 43200, Note_on_c, 0, 67, 0
2, 43224, Note_on_c, 0, 65, 95
2, 43234, Note_on_c, 0, 65, 0
2, 43248, Note_on_c, 0, 67, 80
2, 43260, Note_on_c, 0, 67, 0
2, 43260, Note_on_c, 0, 65, 80
2, 43272, Note_on_c, 0, 65, 0
2, 43272, Note_on_c, 0, 63, 80
2, 43284, Note_on_c, 0, 63, 0
2, 43284, Note_on_c, 0, 65, 80
2, 43296, Note_on_c, 0, 65, 0
2, 43320, Note_on_c, 0, 62, 97
2, 43330, Note_on_c, 0, 62, 0
2, 43344, Note_on_c, 0, 63, 82
2, 43356, Note_on_c, 0, 63, 0
2, 43356, Note_on_c, 0, 62, 82
2, 43368, Note_on_c, 0, 62, 0
2, 43368, Note_on_c, 0, 60, 82
2, 43380, Note_on_c, 0, 60, 0
2, 43380, Note_on_c, 0, 62, 83
2, 43392, Note_on_c, 0, 62, 0
2, 43392, Control_c, 0, 64, 127
2, 43392, Note_on_c, 0, 63, 83
2, 43392, Note_on_c, 0, 55, 83
2, 43415, Note_on_c, 0, 63, 0
2, 43415, Note_on_c, 0, 55, 0
2, 43416, Note_on_c, 0, 55, 84
2, 43439, Note_on_c, 0, 55, 0
2, 43440, Note_on_c, 0, 58, 84
2, 43463, Note_on_c, 0, 58, 0
2, 43464, Note_on_c, 0, 55, 84
2, 43487, Note_on_c, 0, 55, 0
2, 43488, Note_on_c, 0, 63, 84
2, 43511, Note_on_c, 0, 63, 0
2, 43512, Note_on_c, 0, 58, 84
2, 43535, Note_on_c, 0, 58, 0
2, 43536, Note_on_c, 0, 67, 84
2, 43559, Note_on_c, 0, 67, 0
2, 43560, Note_on_c, 0, 63, 84
2, 43583, Note_on_c, 0, 63, 0
2, 43584, Note_on_c, 0, 70, 84
2, 43607, Note_on_c, 0, 70, 0
2, 43608, Note_on_c, 0, 67, 84
2, 43631, Note_on_c, 0, 67, 0
2, 43632, Note_on_c, 0, 75, 84
2, 43655, Note_on_c, 0, 75, 0
2, 43656, Note_on_c, 0, 67, 84
2, 43679, Note_on_c, 0, 67, 0
2, 43680, Control_c, 0, 64, 0
2, 43680, Note_on_c, 0, 70, 84
2, 43703, Note_on_c, 0, 70, 0
2, 43704, Note_on_c, 0, 68, 84
2, 43727, Note_on_c, 0, 68, 0
2, 43728, Note_on_c, 0, 67, 84
2, 43751, Note_on_c, 0, 67, 0
2, 43752, Note_on_c, 0, 65, 84
2, 43775, Note_on_c, 0, 65, 0
2, 43776, Note_on_c, 0, 67, 84
2, 43821, Note_on_c, 0, 67, 0
2, 43824, Note_on_c, 0, 75, 84
2, 43844, Note_on_c, 0, 75, 0
2, 43872, Note_on_c, 0, 77, 84
2, 43882, Note_on_c, 0, 77, 0
2, 43882, Note_on_c, 0, 75, 84
2, 43892, Note_on_c, 0, 75, 0
2, 43892, Note_on_c, 0, 77, 84
2, 43902, Note_on_c, 0, 77, 0
2, 43902, Note_on_c, 0, 75, 84
2, 43912, Note_on_c, 0, 75, 0
2, 43912, Note_on_c, 0, 77, 84
2, 43922, Note_on_c, 0, 77, 0
2, 43922, Note_on_c, 0, 75, 84
2, 43932, Note_on_c, 0, 75, 0
2, 43932, Note_on_c, 0, 77, 84
2, 43941, Note_on_c, 0, 77, 0
2, 43941, Note_on_c, 0, 75, 84
2, 43950, Note_on_c, 0, 75, 0
2, 43950, Note_on_c, 0, 77, 84
2, 43959, Note_on_c, 0, 77, 0
2, 43959, Note_on_c, 0, 75, 84
2, 43968, Note_on_c, 0, 75, 0
2, 43968, Note_on_c, 0, 72, 84
2, 44013, Note_on_c, 0, 72, 0
2, 44016, Note_on_c, 0, 80, 84
2, 44036, Note_on_c, 0, 80, 0
2, 44064, Note_on_c, 0, 82, 84
2, 44074, Note_on_c, 0, 82, 0
2, 44074, Note_on_c, 0, 80, 84
2, 44084, Note_on_c, 0, 80, 0
2, 44084, Note_on_c, 0, 82, 84
2, 44094, Note_on_c, 0, 82, 0
2, 44094, Note_on_c, 0, 80, 84
2, 44104, Note_on_c, 0, 80, 0
2, 44104, Note_on_c, 0, 82, 84
2, 44114, Note_on_c, 0, 82, 0
2, 44114, Note_on_c, 0, 80, 84
2, 44124, Note_on_c, 0, 80, 0
2, 44124, Note_on_c, 0, 82, 84
2, 44133, Note_on_c, 0, 82, 0
2, 44133, Note_on_c, 0, 80, 84
2, 44142, Note_on_c, 0, 80, 0
2, 44142, Note_on_c, 0, 82, 84
2, 44151, Note_on_c, 0, 82, 0
2, 44151, Note_on_c, 0, 80, 84
2, 44160, Note_on_c, 0, 80, 0
2, 44160, Note_on_c, 0, 70, 84
2, 44205, Note_on_c, 0, 70, 0
2, 44208, Note_on_c, 0, 79, 84
2, 44228, Note_on_c, 0, 79, 0
2, 44256, Note_on_c, 0, 80, 84
2, 44266, Note_on_c, 0, 80, 0
2, 44266, Note_on_c, 0, 79, 84
2, 44276, Note_on_c, 0, 79, 0
2, 44276, Note_on_c, 0, 80, 84
2, 44286, Note_on_c, 0, 80, 0
2, 44286, Note_on_c, 0, 79, 84
2, 44296, Note_on_c, 0, 79, 0
2, 44296, Note_on_c, 0, 80, 84
2, 44306, Note_on_c, 0, 80, 0
2, 44306, Note_on_c, 0, 79, 84
2, 44316, Note_on_c, 0, 79, 0
2, 44316, Note_on_c, 0, 80, 84
2, 44325, Note_on_c, 0, 80, 0
2, 44325, Note_on_c, 0, 79, 84
2, 44334, Note_on_c, 0, 79, 0
2, 44334, Note_on_c, 0, 80, 84
2, 44343, Note_on_c, 0, 80, 0
2, 44343, Note_on_c, 0, 79, 84
2, 44352, Note_on_c, 0, 79, 0
2, 44352, Note_on_c, 0, 68, 84
2, 44397, Note_on_c, 0, 68, 0
2, 44400, Note_on_c, 0, 77, 84
2, 44420, Note_on_c, 0, 77, 0
2, 44448, Note_on_c, 0, 79, 84
2, 44458, Note_on_c, 0, 79, 0
2, 44458, Note_on_c, 0, 77, 84
2, 44468, Note_on_c, 0, 77, 0
2, 44468, Note_on_c, 0, 79, 84
2, 44478, Note_on_c, 0, 79, 0
2, 44478, Note_on_c, 0, 77, 84
2, 44488, Note_on_c, 0, 77, 0
2, 44488, Note_on_c, 0, 79, 84
2, 44498, Note_on_c, 0, 79, 0
2, 44498, Note_on_c, 0, 77, 84
2, 44508, Note_on_c, 0, 77, 0
2, 44508, Note_on_c, 0, 79, 84
2, 44517, Note_on_c, 0, 79, 0
2, 44517, Note_on_c, 0, 77, 84
2, 44526, Note_on_c, 0, 77, 0
2, 44526, Note_on_c, 0, 79, 84
2, 44535, Note_on_c, 0, 79, 0
2, 44535, Note_on_c, 0, 77, 84
2, 44544, Note_on_c, 0, 77, 0
2, 44544, Control_c, 0, 64, 127
2, 44568, Note_on_c, 0, 70, 69
2, 44591, Note_on_c, 0, 70, 0
2, 44592, Note_on_c, 0, 75, 69
2, 44615, Note_on_c, 0, 75, 0
2, 44616, Note_on_c, 0, 70, 69
2, 44639, Note_on_c, 0, 70, 0
2, 44640, Note_on_c, 0, 79, 69
2, 44663, Note_on_c, 0, 79, 0
2, 44664, Note_on_c, 0, 75, 69
2, 44687, Note_on_c, 0, 75, 0
2, 44688, Note_on_c, 0, 82, 69
2, 44711, Note_on_c, 0, 82, 0
2, 44712, Control_c, 0, 64, 0
2, 44712, Note_on_c, 0, 79, 69
2, 44735, Note_on_c, 0, 79, 0
2, 44736, Control_c, 0, 64, 127
2, 44760, Note_on_c, 0, 70, 69
2, 44783, Note_on_c, 0, 70, 0
2, 44784, Note_on_c, 0, 75, 69
2, 44807, Note_on_c, 0, 75, 0
2, 44808, Note_on_c, 0, 70, 69
2, 44831, Note_on_c, 0, 70, 0
2, 44832, Note_on_c, 0, 78, 69
2, 44855, Note_on_c, 0, 78, 0
2, 44856, Note_on_c, 0, 75, 69
2, 44879, Note_on_c, 0, 75, 0
2, 44880, Note_on_c, 0, 82, 69
2, 44903, Note_on_c, 0, 82, 0
2, 44904, Note_on_c, 0, 78, 69
2, 44927, Note_on_c, 0, 78, 0
2, 44928, Control_c, 0, 64, 0
2, 44928, Control_c, 0, 64, 127
2, 44928, Control_c, 0, 64, 127
2, 44952, Note_on_c, 0, 72, 69
2, 44975, Note_on_c, 0, 72, 0
2, 44976, Note_on_c, 0, 75, 69
2, 44999, Note_on_c, 0, 75, 0
2, 45000, Note_on_c, 0, 72, 69
2, 45023, Note_on_c, 0, 72, 0
2, 45024, Note_on_c, 0, 78, 69
2, 45047, Note_on_c, 0, 78, 0
2, 45048, Note_on_c, 0, 75, 69
2, 45071, Note_on_c, 0, 75, 0
2, 45072, Note_on_c, 0, 81, 69
2, 45095, Note_on_c, 0, 81, 0
2, 45096, Note_on_c, 0, 78, 69
2, 45119, Note_on_c, 0, 78, 0
2, 45120, Control_c, 0, 64, 0
2, 45120, Control_c, 0, 64, 127
2, 45144, Note_on_c, 0, 75, 69
2, 45167, Note_on_c, 0, 75, 0
2, 45168, Note_on_c, 0, 78, 69
2, 45191, Note_on_c, 0, 78, 0
2, 45192, Note_on_c, 0, 75, 69
2, 45215, Note_on_c, 0, 75, 0
2, 45216, Note_on_c, 0, 81, 69
2, 45239, Note_on_c, 0, 81, 0
2, 45240, Note_on_c, 0, 78, 69
2, 45263, Note_on_c, 0, 78, 0
2, 45264, Note_on_c, 0, 84, 69
2, 45287, Note_on_c, 0, 84, 0
2, 45288, Note_on_c, 0, 81, 69
2, 45311, Note_on_c, 0, 81, 0
2, 45312, Control_c, 0, 64, 0
2, 45312, Control_c, 0, 64, 127
2, 45312, Control_c, 0, 64, 127
2, 45336, Note_on_c, 0, 70, 69
2, 45359, Note_on_c, 0, 70, 0
2, 45360, Note_on_c, 0, 74, 69
2, 45383, Note_on_c, 0, 74, 0
2, 45384, Note_on_c, 0, 70, 69
2, 45407, Note_on_c, 0, 70, 0
2, 45408, Note_on_c, 0, 77, 69
2, 45431, Note_on_c, 0, 77, 0
2, 45432, Note_on_c, 0, 74, 69
2, 45455, Note_on_c, 0, 74, 0
2, 45456, Note_on_c, 0, 80, 69
2, 45479, Note_on_c, 0, 80, 0
2, 45480, Control_c, 0, 64, 0
2, 45480, Note_on_c, 0, 77, 69
2, 45503, Note_on_c, 0, 77, 0
2, 45504, Control_c, 0, 64, 127
2, 45528, Note_on_c, 0, 70, 69
2, 45551, Note_on_c, 0, 70, 0
2, 45552, Note_on_c, 0, 75, 69
2, 45575, Note_on_c, 0, 75, 0
2, 45576, Note_on_c, 0, 70, 69
2, 45599, Note_on_c, 0, 70, 0
2, 45600, Note_on_c, 0, 79, 69
2, 45623, Note_on_c, 0, 79, 0
2, 45624, Note_on_c, 0, 75, 69
2, 45647, Note_on_c, 0, 75, 0
2, 45648, Note_on_c, 0, 82, 69
2, 45671, Note_on_c, 0, 82, 0
2, 45672, Note_on_c, 0, 79, 69
2, 45696, Control_c, 0, 64, 0
2, 45719, Note_on_c, 0, 79, 0
2, 45720, Note_on_c, 0, 77, 75
2, 45765, Note_on_c, 0, 77, 0
2, 45768, Note_on_c, 0, 76, 77
2, 45813, Note_on_c, 0, 76, 0
2, 45816, Note_on_c, 0, 77, 80
2, 45861, Note_on_c, 0, 77, 0
2, 45864, Note_on_c, 0, 75, 82
2, 45911, Note_on_c, 0, 75, 0
2, 45912, Note_on_c, 0, 74, 84
2, 45935, Note_on_c, 0, 74, 0
2, 45936, Note_on_c, 0, 72, 84
2, 45959, Note_on_c, 0, 72, 0
2, 45960, Note_on_c, 0, 70, 84
2, 45983, Note_on_c, 0, 70, 0
2, 45984, Note_on_c, 0, 70, 84
2, 46004, Note_on_c, 0, 70, 0
2, 46032, Note_on_c, 0, 70, 75
2, 46055, Note_on_c, 0, 70, 0
2, 46056, Note_on_c, 0, 67, 75
2, 46103, Note_on_c, 0, 67, 0
2, 46104, Note_on_c, 0, 65, 77
2, 46149, Note_on_c, 0, 65, 0
2, 46152, Note_on_c, 0, 64, 79
2, 46197, Note_on_c, 0, 64, 0
2, 46200, Note_on_c, 0, 65, 81
2, 46245, Note_on_c, 0, 65, 0
2, 46248, Note_on_c, 0, 63, 83
2, 46295, Note_on_c, 0, 63, 0
2, 46296, Note_on_c, 0, 62, 84
2, 46319, Note_on_c, 0, 62, 0
2, 46320, Note_on_c, 0, 60, 84
2, 46343, Note_on_c, 0, 60, 0
2, 46344, Note_on_c, 0, 58, 84
2, 46367, Note_on_c, 0, 58, 0
2, 46368, Note_on_c, 0, 58, 84
2, 46388, Note_on_c, 0, 58, 0
2, 46416, Note_on_c, 0, 63, 75
2, 46436, Note_on_c, 0, 63, 0
2, 46464, Note_on_c, 0, 67, 75
2, 46597, Note_on_c, 0, 67, 0
2, 46608, Note_on_c, 0, 70, 75
2, 46631, Note_on_c, 0, 70, 0
2, 46632, Note_on_c, 0, 67, 75
2, 46655, Note_on_c, 0, 67, 0
2, 46656, Note_on_c, 0, 68, 75
2, 46789, Note_on_c, 0, 68, 0
2, 46800, Note_on_c, 0, 65, 75
2, 46823, Note_on_c, 0, 65, 0
2, 46824, Note_on_c, 0, 62, 75
2, 46847, Note_on_c, 0, 62, 0
2, 46848, Note_on_c, 0, 56, 75
2, 46988, Note_on_c, 0, 56, 0
2, 46992, Note_on_c, 0, 68, 75
2, 47015, Note_on_c, 0, 68, 0
2, 47016, Note_on_c, 0, 65, 75
2, 47039, Note_on_c, 0, 65, 0
2, 47040, Note_on_c, 0, 67, 75
2, 47173, Note_on_c, 0, 67, 0
2, 47184, Note_on_c, 0, 63, 75
2, 47196, Note_on_c, 0, 63, 0
2, 47196, Note_on_c, 0, 65, 75
2, 47208, Note_on_c, 0, 65, 0
2, 47208, Note_on_c, 0, 63, 75
2, 47220, Note_on_c, 0, 63, 0
2, 47220, Note_on_c, 0, 65, 75
2, 47232, Note_on_c, 0, 65, 0
2, 47232, Note_on_c, 0, 67, 75
2, 47277, Note_on_c, 0, 67, 0
2, 47280, Note_on_c, 0, 67, 75
2, 47292, Note_on_c, 0, 67, 0
2, 47292, Note_on_c, 0, 68, 75
2, 47304, Note_on_c, 0, 68, 0
2, 47304, Note_on_c, 0, 67, 75
2, 47316, Note_on_c, 0, 67, 0
2, 47316, Note_on_c, 0, 68, 75
2, 47328, Note_on_c, 0, 68, 0
2, 47328, Note_on_c, 0, 70, 75
2, 47373, Note_on_c, 0, 70, 0
2, 47376, Note_on_c, 0, 75, 75
2, 47421, Note_on_c, 0, 75, 0
2, 47424, Note_on_c, 0, 75, 75
2, 47448, Note_on_c, 0, 75, 0
2, 47448, Note_on_c, 0, 72, 75
2, 47471, Note_on_c, 0, 72, 0
2, 47472, Note_on_c, 0, 72, 75
2, 47561, Note_on_c, 0, 72, 0
2, 47568, Note_on_c, 0, 75, 75
2, 47613, Note_on_c, 0, 75, 0
2, 47616, Note_on_c, 0, 75, 75
2, 47640, Note_on_c, 0, 75, 0
2, 47640, Note_on_c, 0, 70, 75
2, 47663, Note_on_c, 0, 70, 0
2, 47664, Note_on_c, 0, 70, 75
2, 47753, Note_on_c, 0, 70, 0
2, 47760, Note_on_c, 0, 75, 75
2, 47784, Note_on_c, 0, 75, 0
2, 47784, Note_on_c, 0, 70, 75
2, 47807, Note_on_c, 0, 70, 0
2, 47808, Note_on_c, 0, 70, 75
2, 47832, Note_on_c, 0, 70, 0
2, 47832, Note_on_c, 0, 69, 75
2, 47855, Note_on_c, 0, 69, 0
2, 47856, Note_on_c, 0, 69, 75
2, 47901, Note_on_c, 0, 69, 0
2, 47904, Note_on_c, 0, 69, 75
2, 47949, Note_on_c, 0, 69, 0
2, 47952, Note_on_c, 0, 69, 75
2, 47997, Note_on_c, 0, 69, 0
2, 48000, Note_on_c, 0, 69, 75
2, 48012, Note_on_c, 0, 69, 0
2, 48012, Note_on_c, 0, 78, 91
2, 48130, Note_on_c, 0, 78, 0
2, 48132, Note_on_c, 0, 69, 91
2, 48144, Note_on_c, 0, 69, 0
2, 48144, Note_on_c, 0, 70, 75
2, 48156, Note_on_c, 0, 70, 0
2, 48156, Note_on_c, 0, 69, 75
2, 48168, Note_on_c, 0, 69, 0
2, 48168, Note_on_c, 0, 67, 75
2, 48180, Note_on_c, 0, 67, 0
2, 48180, Note_on_c, 0, 69, 75
2, 48192, Note_on_c, 0, 69, 0
2, 48192, Note_on_c, 0, 70, 75
2, 48212, Note_on_c, 0, 70, 0
2, 48240, Note_on_c, 0, 70, 75
2, 48329, Note_on_c, 0, 70, 0
2, 48336, Note_on_c, 0, 72, 75
2, 48359, Note_on_c, 0, 72, 0
2, 48360, Note_on_c, 0, 68, 75
2, 48383, Note_on_c, 0, 68, 0
2, 48384, Note_on_c, 0, 68, 75
2, 48407, Note_on_c, 0, 68, 0
2, 48408, Note_on_c, 0, 67, 75
2, 48431, Note_on_c, 0, 67, 0
2, 48432, Note_on_c, 0, 70, 75
2, 48455, Note_on_c, 0, 70, 0
2, 48456, Note_on_c, 0, 63, 75
2, 48479, Note_on_c, 0, 63, 0
2, 48480, Note_on_c, 0, 63, 75
2, 48503, Note_on_c, 0, 63, 0
2, 48504, Note_on_c, 0, 62, 75
2, 48527, Note_on_c, 0, 62, 0
2, 48528, Note_on_c, 0, 65, 75
2, 48551, Note_on_c, 0, 65, 0
2, 48552, Note_on_c, 0, 62, 75
2, 48575, Note_on_c, 0, 62, 0
2, 48576, Note_on_c, 0, 63, 75
2, 48596, Note_on_c, 0, 63, 0
2, 48624, Note_on_c, 0, 67, 75
2, 48644, Note_on_c, 0, 67, 0
2, 48672, Note_on_c, 0, 65, 75
2, 48692, Note_on_c, 0, 65, 0
2, 48720, Note_on_c, 0, 68, 75
2, 48740, Note_on_c, 0, 68, 0
2, 48768, Note_on_c, 0, 68, 75
2, 48791, Note_on_c, 0, 68, 0
2, 48792, Note_on_c, 0, 67, 75
2, 48815, Note_on_c, 0, 67, 0
2, 48816, Note_on_c, 0, 70, 75
2, 48839, Note_on_c, 0, 70, 0
2, 48840, Note_on_c, 0, 63, 75
2, 48863, Note_on_c, 0, 63, 0
2, 48864, Note_on_c, 0, 63, 75
2, 48887, Note_on_c, 0, 63, 0
2, 48888, Note_on_c, 0, 62, 75
2, 48911, Note_on_c, 0, 62, 0
2, 48912, Note_on_c, 0, 65, 75
2, 48935, Note_on_c, 0, 65, 0
2, 48936, Note_on_c, 0, 62, 75
2, 48959, Note_on_c, 0, 62, 0
2, 48960, Note_on_c, 0, 63, 75
2, 48980, Note_on_c, 0, 63, 0
2, 49008, Note_on_c, 0, 67, 75
2, 49028, Note_on_c, 0, 67, 0
2, 49056, Note_on_c, 0, 65, 75
2, 49076, Note_on_c, 0, 65, 0
2, 49104, Note_on_c, 0, 68, 75
2, 49124, Note_on_c, 0, 68, 0
2, 49152, Note_on_c, 0, 67, 75
2, 49162, Note_on_c, 0, 67, 0
2, 49176, Note_on_c, 0, 75, 75
2, 49199, Note_on_c, 0, 75, 0
2, 49200, Note_on_c, 0, 74, 75
2, 49223, Note_on_c, 0, 74, 0
2, 49224, Note_on_c, 0, 75, 75
2, 49247, Note_on_c, 0, 75, 0
2, 49272, Note_on_c, 0, 73, 75
2, 49295, Note_on_c, 0, 73, 0
2, 49296, Note_on_c, 0, 72, 75
2, 49319, Note_on_c, 0, 72, 0
2, 49320, Note_on_c, 0, 71, 75
2, 49343, Note_on_c, 0, 71, 0
2, 49368, Note_on_c, 0, 72, 75
2, 49391, Note_on_c, 0, 72, 0
2, 49392, Note_on_c, 0, 71, 75
2, 49415, Note_on_c, 0, 71, 0
2, 49416, Note_on_c, 0, 72, 75
2, 49439, Note_on_c, 0, 72, 0
2, 49440, Note_on_c, 0, 70, 75
2, 49463, Note_on_c, 0, 70, 0
2, 49464, Note_on_c, 0, 68, 75
2, 49487, Note_on_c, 0, 68, 0
2, 49488, Note_on_c, 0, 67, 75
2, 49511, Note_on_c, 0, 67, 0
2, 49512, Note_on_c, 0, 65, 75
2, 49535, Note_on_c, 0, 65, 0
2, 49536, Note_on_c, 0, 70, 91
2, 49546, Note_on_c, 0, 70, 0
2, 49560, Note_on_c, 0, 72, 75
2, 49568, Note_on_c, 0, 72, 0
2, 49568, Note_on_c, 0, 70, 75
2, 49576, Note_on_c, 0, 70, 0
2, 49576, Note_on_c, 0, 68, 75
2, 49584, Note_on_c, 0, 68, 0
2, 49584, Note_on_c, 0, 70, 75
2, 49607, Note_on_c, 0, 70, 0
2, 49608, Note_on_c, 0, 72, 75
2, 49631, Note_on_c, 0, 72, 0
2, 49632, Note_on_c, 0, 63, 75
2, 49677, Note_on_c, 0, 63, 0
2, 49680, Note_on_c, 0, 62, 75
2, 49725, Note_on_c, 0, 62, 0
2, 49728, Note_on_c, 0, 63, 75
2, 49773, Note_on_c, 0, 63, 0
2, 49776, Note_on_c, 0, 79, 75
2, 49796, Note_on_c, 0, 79, 0
2, 49824, Note_on_c, 0, 77, 75
2, 49847, Note_on_c, 0, 77, 0
2, 49848, Note_on_c, 0, 75, 75
2, 49871, Note_on_c, 0, 75, 0
2, 49872, Note_on_c, 0, 74, 75
2, 49895, Note_on_c, 0, 74, 0
2, 49896, Note_on_c, 0, 72, 75
2, 49965, Note_on_c, 0, 72, 0
2, 49968, Note_on_c, 0, 70, 75
2, 50050, Note_on_c, 0, 70, 0
2, 50052, Note_on_c, 0, 69, 75
2, 50064, Note_on_c, 0, 69, 0
2, 50064, Note_on_c, 0, 75, 75
2, 50112, Note_on_c, 0, 75, 0
2, 50112, Note_on_c, 0, 74, 75
2, 50132, Note_on_c, 0, 74, 0
2, 50160, Note_on_c, 0, 75, 75
2, 50205, Note_on_c, 0, 75, 0
2, 50208, Note_on_c, 0, 74, 75
2, 50231, Note_on_c, 0, 74, 0
2, 50232, Note_on_c, 0, 72, 75
2, 50255, Note_on_c, 0, 72, 0
2, 50256, Note_on_c, 0, 70, 75
2, 50279, Note_on_c, 0, 70, 0
2, 50280, Note_on_c, 0, 68, 75
2, 50349, Note_on_c, 0, 68, 0
2, 50352, Note_on_c, 0, 67, 75
2, 50434, Note_on_c, 0, 67, 0
2, 50436, Note_on_c, 0, 66, 75
2, 50448, Note_on_c, 0, 66, 0
2, 50448, Note_on_c, 0, 72, 75
2, 50496, Note_on_c, 0, 72, 0
2, 50496, Note_on_c, 0, 70, 75
2, 50516, Note_on_c, 0, 70, 0
2, 50544, Note_on_c, 0, 71, 75
2, 50568, Note_on_c, 0, 71, 0
2, 50568, Note_on_c, 0, 72, 75
2, 50591, Note_on_c, 0, 72, 0
2, 50592, Note_on_c, 0, 70, 75
2, 50615, Note_on_c, 0, 70, 0
2, 50616, Note_on_c, 0, 68, 75
2, 50639, Note_on_c, 0, 68, 0
2, 50640, Note_on_c, 0, 67, 75
2, 50663, Note_on_c, 0, 67, 0
2, 50664, Note_on_c, 0, 65, 75
2, 50733, Note_on_c, 0, 65, 0
2, 50736, Note_on_c, 0, 63, 75
2, 50818, Note_on_c, 0, 63, 0
2, 50820, Note_on_c, 0, 62, 75
2, 50832, Note_on_c, 0, 62, 0
2, 50832, Note_on_c, 0, 68, 75
2, 50925, Note_on_c, 0, 68, 0
2, 50928, Note_on_c, 0, 67, 75
2, 50973, Note_on_c, 0, 67, 0
2, 51012, Note_on_c, 0, 68, 75
2, 51024, Note_on_c, 0, 68, 0
2, 51024, Note_on_c, 0, 70, 75
2, 51030, Note_on_c, 0, 70, 0
2, 51030, Note_on_c, 0, 68, 75
2, 51036, Note_on_c, 0, 68, 0
2, 51036, Note_on_c, 0, 67, 75
2, 51042, Note_on_c, 0, 67, 0
2, 51042, Note_on_c, 0, 68, 75
2, 51106, Note_on_c, 0, 68, 0
2, 51108, Note_on_c, 0, 67, 75
2, 51120, Note_on_c, 0, 67, 0
2, 51120, Note_on_c, 0, 68, 75
2, 51126, Note_on_c, 0, 68, 0
2, 51126, Note_on_c, 0, 67, 75
2, 51132, Note_on_c, 0, 67, 0
2, 51132, Note_on_c, 0, 65, 75
2, 51138, Note_on_c, 0, 65, 0
2, 51138, Note_on_c, 0, 67, 75
2, 51167, Note_on_c, 0, 67, 0
2, 51204, Note_on_c, 0, 68, 75
2, 51216, Note_on_c, 0, 68, 0
2, 51216, Note_on_c, 0, 70, 75
2, 51222, Note_on_c, 0, 70, 0
2, 51222, Note_on_c, 0, 68, 75
2, 51228, Note_on_c, 0, 68, 0
2, 51228, Note_on_c, 0, 67, 75
2, 51234, Note_on_c, 0, 67, 0
2, 51234, Note_on_c, 0, 68, 75
2, 51263, Note_on_c, 0, 68, 0
2, 51264, Note_on_c, 0, 67, 75
2, 51331, Note_on_c, 0, 67, 0
2, 51336, Note_on_c, 0, 68, 75
2, 51359, Note_on_c, 0, 68, 0
2, 51360, Note_on_c, 0, 70, 75
2, 51370, Note_on_c, 0, 70, 0
2, 51370, Note_on_c, 0, 68, 75
2, 51380, Note_on_c, 0, 68, 0
2, 51380, Note_on_c, 0, 70, 75
2, 51390, Note_on_c, 0, 70, 0
2, 51390, Note_on_c, 0, 68, 75
2, 51400, Note_on_c, 0, 68, 0
2, 51400, Note_on_c, 0, 70, 75
2, 51410, Note_on_c, 0, 70, 0
2, 51410, Note_on_c, 0, 68, 75
2, 51420, Note_on_c, 0, 68, 0
2, 51420, Note_on_c, 0, 70, 75
2, 51429, Note_on_c, 0, 70, 0
2, 51429, Note_on_c, 0, 68, 75
2, 51438, Note_on_c, 0, 68, 0
2, 51438, Note_on_c, 0, 67, 75
2, 51447, Note_on_c, 0, 67, 0
2, 51447, Note_on_c, 0, 68, 75
2, 51456, Note_on_c, 0, 68, 0
2, 51456, Note_on_c, 0, 70, 75
2, 51476, Note_on_c, 0, 70, 0
2, 51504, Note_on_c, 0, 75, 75
2, 51593, Note_on_c, 0, 75, 0
2, 51600, Note_on_c, 0, 73, 75
2, 51689, Note_on_c, 0, 73, 0
2, 51696, Note_on_c, 0, 72, 75
2, 51785, Note_on_c, 0, 72, 0
2, 51792, Note_on_c, 0, 71, 75
2, 51837, Note_on_c, 0, 71, 0
2, 51840, Note_on_c, 0, 72, 75
2, 51888, Note_on_c, 0, 72, 0
2, 51888, Note_on_c, 0, 71, 75
2, 51933, Note_on_c, 0, 71, 0
2, 51936, Note_on_c, 0, 72, 76
2, 51984, Note_on_c, 0, 72, 0
2, 51984, Note_on_c, 0, 71, 77
2, 52029, Note_on_c, 0, 71, 0
2, 52032, Control_c, 0, 64, 127
2, 52032, Note_on_c, 0, 72, 78
2, 52077, Note_on_c, 0, 72, 0
2, 52080, Note_on_c, 0, 84, 79
2, 52125, Note_on_c, 0, 84, 0
2, 52128, Control_c, 0, 64, 0
2, 52128, Control_c, 0, 64, 127
2, 52128, Note_on_c, 0, 84, 80
2, 52173, Note_on_c, 0, 84, 0
2, 52176, Note_on_c, 0, 84, 81
2, 52221, Note_on_c, 0, 84, 0
2, 52224, Control_c, 0, 64, 0
2, 52224, Control_c, 0, 64, 127
2, 52224, Note_on_c, 0, 84, 82
2, 52313, Note_on_c, 0, 84, 0
2, 52320, Control_c, 0, 64, 0
2, 52320, Note_on_c, 0, 82, 84
2, 52343, Note_on_c, 0, 82, 0
2, 52344, Note_on_c, 0, 80, 84
2, 52367, Note_on_c, 0, 80, 0
2, 52368, Note_on_c, 0, 79, 84
2, 52391, Note_on_c, 0, 79, 0
2, 52392, Note_on_c, 0, 77, 84
2, 52415, Note_on_c, 0, 77, 0
2, 52416, Note_on_c, 0, 75, 84
2, 52505, Note_on_c, 0, 75, 0
2, 52512, Note_on_c, 0, 75, 84
2, 52524, Note_on_c, 0, 75, 0
2, 52524, Note_on_c, 0, 74, 84
2, 52536, Note_on_c, 0, 74, 0
2, 52536, Note_on_c, 0, 75, 84
2, 52548, Note_on_c, 0, 75, 0
2, 52548, Note_on_c, 0, 77, 84
2, 52560, Note_on_c, 0, 77, 0
2, 52560, Note_on_c, 0, 79, 84
2, 52572, Note_on_c, 0, 79, 0
2, 52572, Note_on_c, 0, 77, 84
2, 52584, Note_on_c, 0, 77, 0
2, 52584, Note_on_c, 0, 79, 84
2, 52596, Note_on_c, 0, 79, 0
2, 52596, Note_on_c, 0, 80, 84
2, 52608, Note_on_c, 0, 80, 0
2, 52608, Note_on_c, 0, 82, 100
2, 52727, Note_on_c, 0, 82, 0
2, 52728, Note_on_c, 0, 80, 84
2, 52740, Note_on_c, 0, 80, 0
2, 52740, Note_on_c, 0, 79, 84
2, 52752, Note_on_c, 0, 79, 0
2, 52752, Note_on_c, 0, 77, 84
2, 52764, Note_on_c, 0, 77, 0
2, 52764, Note_on_c, 0, 75, 84
2, 52776, Note_on_c, 0, 75, 0
2, 52776, Note_on_c, 0, 74, 84
2, 52788, Note_on_c, 0, 74, 0
2, 52788, Note_on_c, 0, 72, 84
2, 52800, Note_on_c, 0, 72, 0
2, 52800, Note_on_c, 0, 70, 84
2, 52963, Note_on_c, 0, 70, 0
2, 52968, Note_on_c, 0, 75, 84
2, 52980, Note_on_c, 0, 75, 0
2, 52980, Note_on_c, 0, 77, 84
2, 52992, Note_on_c, 0, 77, 0
2, 52992, Note_on_c, 0, 79, 84
2, 53003, Note_on_c, 0, 79, 0
2, 53003, Note_on_c, 0, 77, 84
2, 53014, Note_on_c, 0, 77, 0
2, 53014, Note_on_c, 0, 79, 84
2, 53025, Note_on_c, 0, 79, 0
2, 53025, Note_on_c, 0, 77, 84
2, 53036, Note_on_c, 0, 77, 0
2, 53036, Note_on_c, 0, 79, 84
2, 53047, Note_on_c, 0, 79, 0
2, 53047, Note_on_c, 0, 77, 84
2, 53058, Note_on_c, 0, 77, 0
2, 53058, Note_on_c, 0, 79, 84
2, 53069, Note_on_c, 0, 79, 0
2, 53069, Note_on_c, 0, 77, 84
2, 53080, Note_on_c, 0, 77, 0
2, 53080, Note_on_c, 0, 79, 84
2, 53091, Note_on_c, 0, 79, 0
2, 53091, Note_on_c, 0, 77, 84
2, 53102, Note_on_c, 0, 77, 0
2, 53102, Note_on_c, 0, 79, 84
2, 53113, Note_on_c, 0, 79, 0
2, 53113, Note_on_c, 0, 77, 84
2, 53124, Note_on_c, 0, 77, 0
2, 53124, Note_on_c, 0, 79, 84
2, 53134, Note_on_c, 0, 79, 0
2, 53134, Note_on_c, 0, 77, 84
2, 53144, Note_on_c, 0, 77, 0
2, 53144, Note_on_c, 0, 75, 84
2, 53164, Note_on_c, 0, 75, 0
2, 53164, Note_on_c, 0, 77, 84
2, 53184, Note_on_c, 0, 77, 0
2, 53184, Note_on_c, 0, 75, 84
2, 53273, Note_on_c, 0, 75, 0
2, 53304, Note_on_c, 0, 70, 75
2, 53314, Note_on_c, 0, 70, 0
2, 53328, Note_on_c, 0, 72, 75
2, 53340, Note_on_c, 0, 72, 0
2, 53340, Note_on_c, 0, 70, 75
2, 53352, Note_on_c, 0, 70, 0
2, 53352, Note_on_c, 0, 69, 75
2, 53364, Note_on_c, 0, 69, 0
2, 53364, Note_on_c, 0, 70, 75
2, 53376, Note_on_c, 0, 70, 0
2, 53400, Note_on_c, 0, 72, 75
2, 53410, Note_on_c, 0, 72, 0
2, 53424, Note_on_c, 0, 74, 75
2, 53436, Note_on_c, 0, 74, 0
2, 53436, Note_on_c, 0, 72, 75
2, 53448, Note_on_c, 0, 72, 0
2, 53448, Note_on_c, 0, 71, 75
2, 53460, Note_on_c, 0, 71, 0
2, 53460, Note_on_c, 0, 72, 75
2, 53472, Note_on_c, 0, 72, 0
2, 53496, Note_on_c, 0, 74, 75
2, 53519, Note_on_c, 0, 74, 0
2, 53520, Note_on_c, 0, 77, 75
2, 53543, Note_on_c, 0, 77, 0
2, 53544, Note_on_c, 0, 80, 75
2, 53567, Note_on_c, 0, 80, 0
2, 53568, Note_on_c, 0, 80, 75
2, 53591, Note_on_c, 0, 80, 0
2, 53592, Note_on_c, 0, 79, 75
2, 53615, Note_on_c, 0, 79, 0
2, 53616, Note_on_c, 0, 77, 75
2, 53639, Note_on_c, 0, 77, 0
2, 53640, Note_on_c, 0, 75, 75
2, 53663, Note_on_c, 0, 75, 0
2, 53688, Note_on_c, 0, 70, 75
2, 53698, Note_on_c, 0, 70, 0
2, 53712, Note_on_c, 0, 72, 75
2, 53724, Note_on_c, 0, 72, 0
2, 53724, Note_on_c, 0, 70, 75
2, 53736, Note_on_c, 0, 70, 0
2, 53736, Note_on_c, 0, 69, 75
2, 53748, Note_on_c, 0, 69, 0
2, 53748, Note_on_c, 0, 70, 75
2, 53760, Note_on_c, 0, 70, 0
2, 53784, Note_on_c, 0, 72, 75
2, 53794, Note_on_c, 0, 72, 0
2, 53808, Note_on_c, 0, 74, 75
2, 53820, Note_on_c, 0, 74, 0
2, 53820, Note_on_c, 0, 72, 75
2, 53832, Note_on_c, 0, 72, 0
2, 53832, Note_on_c, 0, 71, 75
2, 53844, Note_on_c, 0, 71, 0
2, 53844, Note_on_c, 0, 72, 75
2, 53856, Note_on_c, 0, 72, 0
2, 53880, Note_on_c, 0, 68, 75
2, 53903, Note_on_c, 0, 68, 0
2, 53904, Note_on_c, 0, 65, 75
2, 53927, Note_on_c, 0, 65, 0
2, 53928, Note_on_c, 0, 62, 75
2, 53938, Note_on_c, 0, 62, 0
2, 53952, Note_on_c, 0, 65, 75
2, 53964, Note_on_c, 0, 65, 0
2, 53964, Note_on_c, 0, 63, 75
2, 53976, Note_on_c, 0, 63, 0
2, 53976, Note_on_c, 0, 62, 75
2, 53988, Note_on_c, 0, 62, 0
2, 53988, Note_on_c, 0, 63, 75
2, 54000, Note_on_c, 0, 63, 0
2, 54000, Note_on_c, 0, 63, 75
2, 54030, Note_on_c, 0, 63, 0
2, 54096, Note_on_c, 0, 70, 75
2, 54116, Note_on_c, 0, 70, 0
2, 54144, Note_on_c, 0, 73, 75
2, 54274, Note_on_c, 0, 73, 0
2, 54276, Note_on_c, 0, 70, 91
2, 54288, Note_on_c, 0, 70, 0
2, 54288, Note_on_c, 0, 72, 75
2, 54296, Note_on_c, 0, 72, 0
2, 54296, Note_on_c, 0, 70, 75
2, 54304, Note_on_c, 0, 70, 0
2, 54304, Note_on_c, 0, 72, 75
2, 54312, Note_on_c, 0, 72, 0
2, 54312, Note_on_c, 0, 70, 75
2, 54320, Note_on_c, 0, 70, 0
2, 54320, Note_on_c, 0, 68, 75
2, 54328, Note_on_c, 0, 68, 0
2, 54328, Note_on_c, 0, 70, 75
2, 54336, Note_on_c, 0, 70, 0
2, 54336, Note_on_c, 0, 77, 75
2, 54466, Note_on_c, 0, 77, 0
2, 54468, Note_on_c, 0, 73, 91
2, 54480, Note_on_c, 0, 73, 0
2, 54480, Note_on_c, 0, 75, 75
2, 54488, Note_on_c, 0, 75, 0
2, 54488, Note_on_c, 0, 73, 75
2, 54496, Note_on_c, 0, 73, 0
2, 54496, Note_on_c, 0, 75, 75
2, 54504, Note_on_c, 0, 75, 0
2, 54504, Note_on_c, 0, 73, 75
2, 54512, Note_on_c, 0, 73, 0
2, 54512, Note_on_c, 0, 72, 75
2, 54520, Note_on_c, 0, 72, 0
2, 54520, Note_on_c, 0, 73, 75
2, 54528, Note_on_c, 0, 73, 0
2, 54528, Note_on_c, 0, 82, 75
2, 54647, Note_on_c, 0, 82, 0
2, 54648, Note_on_c, 0, 80, 75
2, 54671, Note_on_c, 0, 80, 0
2, 54672, Note_on_c, 0, 79, 75
2, 54695, Note_on_c, 0, 79, 0
2, 54696, Note_on_c, 0, 77, 75
2, 54719, Note_on_c, 0, 77, 0
2, 54720, Note_on_c, 0, 77, 75
2, 54816, Note_on_c, 0, 77, 0
2, 54816, Note_on_c, 0, 76, 75
2, 54850, Note_on_c, 0, 76, 0
2, 54852, Note_on_c, 0, 72, 91
2, 54864, Note_on_c, 0, 72, 0
2, 54864, Note_on_c, 0, 73, 75
2, 54872, Note_on_c, 0, 73, 0
2, 54872, Note_on_c, 0, 72, 75
2, 54880, Note_on_c, 0, 72, 0
2, 54880, Note_on_c, 0, 73, 75
2, 54888, Note_on_c, 0, 73, 0
2, 54888, Note_on_c, 0, 72, 75
2, 54896, Note_on_c, 0, 72, 0
2, 54896, Note_on_c, 0, 70, 75
2, 54904, Note_on_c, 0, 70, 0
2, 54904, Note_on_c, 0, 72, 75
2, 54912, Note_on_c, 0, 72, 0
2, 54912, Note_on_c, 0, 77, 75
2, 55042, Note_on_c, 0, 77, 0
2, 55044, Note_on_c, 0, 72, 91
2, 55056, Note_on_c, 0, 72, 0
2, 55056, Note_on_c, 0, 73, 75
2, 55064, Note_on_c, 0, 73, 0
2, 55064, Note_on_c, 0, 72, 75
2, 55072, Note_on_c, 0, 72, 0
2, 55072, Note_on_c, 0, 73, 75
2, 55080, Note_on_c, 0, 73, 0
2, 55080, Note_on_c, 0, 72, 75
2, 55088, Note_on_c, 0, 72, 0
2, 55088, Note_on_c, 0, 70, 75
2, 55096, Note_on_c, 0, 70, 0
2, 55096, Note_on_c, 0, 72, 75
2, 55104, Note_on_c, 0, 72, 0
2, 55104, Note_on_c, 0, 80, 75
2, 55234, Note_on_c, 0, 80, 0
2, 55236, Note_on_c, 0, 77, 91
2, 55248, Note_on_c, 0, 77, 0
2, 55248, Note_on_c, 0, 79, 75
2, 55256, Note_on_c, 0, 79, 0
2, 55256, Note_on_c, 0, 77, 75
2, 55264, Note_on_c, 0, 77, 0
2, 55264, Note_on_c, 0, 79, 75
2, 55272, Note_on_c, 0, 79, 0
2, 55272, Note_on_c, 0, 77, 75
2, 55280, Note_on_c, 0, 77, 0
2, 55280, Note_on_c, 0, 75, 75
2, 55288, Note_on_c, 0, 75, 0
2, 55288, Note_on_c, 0, 77, 75
2, 55296, Note_on_c, 0, 77, 0
2, 55296, Note_on_c, 0, 84, 75
2, 55415, Note_on_c, 0, 84, 0
2, 55416, Note_on_c, 0, 82, 75
2, 55439, Note_on_c, 0, 82, 0
2, 55440, Note_on_c, 0, 80, 75
2, 55463, Note_on_c, 0, 80, 0
2, 55464, Note_on_c, 0, 79, 75
2, 55487, Note_on_c, 0, 79, 0
2, 55488, Note_on_c, 0, 79, 75
2, 55584, Note_on_c, 0, 79, 0
2, 55584, Note_on_c, 0, 78, 75
2, 55618, Note_on_c, 0, 78, 0
2, 55620, Note_on_c, 0, 72, 91
2, 55632, Note_on_c, 0, 72, 0
2, 55632, Note_on_c, 0, 74, 75
2, 55640, Note_on_c, 0, 74, 0
2, 55640, Note_on_c, 0, 72, 75
2, 55648, Note_on_c, 0, 72, 0
2, 55648, Note_on_c, 0, 74, 75
2, 55656, Note_on_c, 0, 74, 0
2, 55656, Note_on_c, 0, 72, 75
2, 55664, Note_on_c, 0, 72, 0
2, 55664, Note_on_c, 0, 71, 75
2, 55672, Note_on_c, 0, 71, 0
2, 55672, Note_on_c, 0, 72, 75
2, 55680, Note_on_c, 0, 72, 0
2, 55680, Note_on_c, 0, 75, 75
2, 55810, Note_on_c, 0, 75, 0
2, 55812, Note_on_c, 0, 72, 91
2, 55824, Note_on_c, 0, 72, 0
2, 55824, Note_on_c, 0, 74, 75
2, 55832, Note_on_c, 0, 74, 0
2, 55832, Note_on_c, 0, 72, 75
2, 55840, Note_on_c, 0, 72, 0
2, 55840, Note_on_c, 0, 74, 75
2, 55848, Note_on_c, 0, 74, 0
2, 55848, Note_on_c, 0, 72, 75
2, 55856, Note_on_c, 0, 72, 0
2, 55856, Note_on_c, 0, 70, 75
2, 55864, Note_on_c, 0, 70, 0
2, 55864, Note_on_c, 0, 72, 75
2, 55872, Note_on_c, 0, 72, 0
2, 55872, Note_on_c, 0, 79, 75
2, 56002, Note_on_c, 0, 79, 0
2, 56004, Note_on_c, 0, 72, 91
2, 56016, Note_on_c, 0, 72, 0
2, 56016, Note_on_c, 0, 74, 75
2, 56024, Note_on_c, 0, 74, 0
2, 56024, Note_on_c, 0, 72, 75
2, 56032, Note_on_c, 0, 72, 0
2, 56032, Note_on_c, 0, 74, 75
2, 56040, Note_on_c, 0, 74, 0
2, 56040, Note_on_c, 0, 72, 75
2, 56048, Note_on_c, 0, 72, 0
2, 56048, Note_on_c, 0, 70, 75
2, 56056, Note_on_c, 0, 70, 0
2, 56056, Note_on_c, 0, 72, 75
2, 56064, Note_on_c, 0, 72, 0
2, 56064, Note_on_c, 0, 71, 75
2, 56153, Note_on_c, 0, 71, 0
2, 56184, Note_on_c, 0, 77, 75
2, 56194, Note_on_c, 0, 77, 0
2, 56208, Note_on_c, 0, 79, 75
2, 56220, Note_on_c, 0, 79, 0
2, 56220, Note_on_c, 0, 77, 75
2, 56232, Note_on_c, 0, 77, 0
2, 56232, Note_on_c, 0, 75, 75
2, 56244, Note_on_c, 0, 75, 0
2, 56244, Note_on_c, 0, 77, 75
2, 56256, Note_on_c, 0, 77, 0
2, 56256, Note_on_c, 0, 77, 75
2, 56280, Note_on_c, 0, 77, 0
2, 56280, Note_on_c, 0, 75, 75
2, 56303, Note_on_c, 0, 75, 0
2, 56304, Note_on_c, 0, 79, 75
2, 56328, Note_on_c, 0, 79, 0
2, 56328, Note_on_c, 0, 72, 75
2, 56351, Note_on_c, 0, 72, 0
2, 56352, Note_on_c, 0, 72, 75
2, 56376, Note_on_c, 0, 72, 0
2, 56376, Note_on_c, 0, 71, 75
2, 56399, Note_on_c, 0, 71, 0
2, 56400, Note_on_c, 0, 74, 75
2, 56424, Note_on_c, 0, 74, 0
2, 56424, Note_on_c, 0, 71, 75
2, 56447, Note_on_c, 0, 71, 0
2, 56448, Note_on_c, 0, 72, 75
2, 56468, Note_on_c, 0, 72, 0
2, 56496, Note_on_c, 0, 75, 75
2, 56516, Note_on_c, 0, 75, 0
2, 56544, Note_on_c, 0, 74, 75
2, 56564, Note_on_c, 0, 74, 0
2, 56592, Note_on_c, 0, 77, 75
2, 56612, Note_on_c, 0, 77, 0
2, 56640, Note_on_c, 0, 77, 75
2, 56664, Note_on_c, 0, 77, 0
2, 56664, Note_on_c, 0, 75, 75
2, 56687, Note_on_c, 0, 75, 0
2, 56688, Note_on_c, 0, 79, 75
2, 56712, Note_on_c, 0, 79, 0
2, 56712, Note_on_c, 0, 72, 75
2, 56735, Note_on_c, 0, 72, 0
2, 56736, Note_on_c, 0, 72, 75
2, 56760, Note_on_c, 0, 72, 0
2, 56760, Note_on_c, 0, 71, 75
2, 56783, Note_on_c, 0, 71, 0
2, 56784, Note_on_c, 0, 74, 75
2, 56808, Note_on_c, 0, 74, 0
2, 56808, Note_on_c, 0, 71, 75
2, 56831, Note_on_c, 0, 71, 0
2, 56832, Note_on_c, 0, 72, 75
2, 56852, Note_on_c, 0, 72, 0
2, 56880, Note_on_c, 0, 75, 75
2, 56900, Note_on_c, 0, 75, 0
2, 56928, Note_on_c, 0, 74, 75
2, 56948, Note_on_c, 0, 74, 0
2, 56976, Note_on_c, 0, 77, 75
2, 56996, Note_on_c, 0, 77, 0
2, 57024, Note_on_c, 0, 75, 75
2, 57044, Note_on_c, 0, 75, 0
2, 57072, Note_on_c, 0, 84, 75
2, 57092, Note_on_c, 0, 84, 0
2, 57120, Note_on_c, 0, 82, 75
2, 57140, Note_on_c, 0, 82, 0
2, 57168, Note_on_c, 0, 80, 75
2, 57178, Note_on_c, 0, 80, 0
2, 57178, Note_on_c, 0, 82, 75
2, 57188, Note_on_c, 0, 82, 0
2, 57188, Note_on_c, 0, 80, 75
2, 57198, Note_on_c, 0, 80, 0
2, 57198, Note_on_c, 0, 79, 75
2, 57207, Note_on_c, 0, 79, 0
2, 57207, Note_on_c, 0, 80, 75
2, 57240, Note_on_c, 0, 80, 0
2, 57240, Note_on_c, 0, 79, 75
2, 57263, Note_on_c, 0, 79, 0
2, 57264, Note_on_c, 0, 82, 75
2, 57288, Note_on_c, 0, 82, 0
2, 57288, Note_on_c, 0, 75, 75
2, 57311, Note_on_c, 0, 75, 0
2, 57312, Note_on_c, 0, 75, 75
2, 57336, Note_on_c, 0, 75, 0
2, 57336, Note_on_c, 0, 74, 75
2, 57359, Note_on_c, 0, 74, 0
2, 57360, Note_on_c, 0, 77, 75
2, 57384, Note_on_c, 0, 77, 0
2, 57384, Note_on_c, 0, 74, 75
2, 57407, Note_on_c, 0, 74, 0
2, 57408, Note_on_c, 0, 75, 75
2, 57428, Note_on_c, 0, 75, 0
2, 57456, Note_on_c, 0, 79, 75
2, 57476, Note_on_c, 0, 79, 0
2, 57504, Note_on_c, 0, 77, 75
2, 57524, Note_on_c, 0, 77, 0
2, 57552, Note_on_c, 0, 80, 75
2, 57572, Note_on_c, 0, 80, 0
2, 57600, Note_on_c, 0, 80, 75
2, 57624, Note_on_c, 0, 80, 0
2, 57624, Note_on_c, 0, 79, 75
2, 57647, Note_on_c, 0, 79, 0
2, 57648, Note_on_c, 0, 82, 75
2, 57672, Note_on_c, 0, 82, 0
2, 57672, Note_on_c, 0, 75, 75
2, 57695, Note_on_c, 0, 75, 0
2, 57696, Note_on_c, 0, 75, 75
2, 57720, Note_on_c, 0, 75, 0
2, 57720, Note_on_c, 0, 74, 75
2, 57743, Note_on_c, 0, 74, 0
2, 57744, Note_on_c, 0, 77, 75
2, 57768, Note_on_c, 0, 77, 0
2, 57768, Note_on_c, 0, 74, 75
2, 57791, Note_on_c, 0, 74, 0
2, 57792, Note_on_c, 0, 75, 75
2, 57812, Note_on_c, 0, 75, 0
2, 57840, Note_on_c, 0, 79, 75
2, 57860, Note_on_c, 0, 79, 0
2, 57888, Note_on_c, 0, 77, 75
2, 57908, Note_on_c, 0, 77, 0
2, 57936, Note_on_c, 0, 80, 75
2, 57956, Note_on_c, 0, 80, 0
2, 57984, Note_on_c, 0, 79, 75
2, 58032, Note_on_c, 0, 79, 0
2, 58032, Note_on_c, 0, 82, 75
2, 58077, Note_on_c, 0, 82, 0
2, 58104, Note_on_c, 0, 75, 75
2, 58114, Note_on_c, 0, 75, 0
2, 58128, Note_on_c, 0, 77, 75
2, 58140, Note_on_c, 0, 77, 0
2, 58140, Note_on_c, 0, 75, 75
2, 58152, Note_on_c, 0, 75, 0
2, 58152, Note_on_c, 0, 74, 75
2, 58164, Note_on_c, 0, 74, 0
2, 58164, Note_on_c, 0, 75, 75
2, 58176, Note_on_c, 0, 75, 0
2, 58176, Note_on_c, 0, 80, 75
2, 58224, Note_on_c, 0, 80, 0
2, 58224, Note_on_c, 0, 84, 75
2, 58269, Note_on_c, 0, 84, 0
2, 58296, Note_on_c, 0, 75, 75
2, 58306, Note_on_c, 0, 75, 0
2, 58320, Note_on_c, 0, 77, 75
2, 58332, Note_on_c, 0, 77, 0
2, 58332, Note_on_c, 0, 75, 75
2, 58344, Note_on_c, 0, 75, 0
2, 58344, Note_on_c, 0, 74, 75
2, 58356, Note_on_c, 0, 74, 0
2, 58356, Note_on_c, 0, 75, 75
2, 58368, Note_on_c, 0, 75, 0
2, 58368, Note_on_c, 0, 73, 75
2, 58416, Note_on_c, 0, 73, 0
2, 58416, Note_on_c, 0, 82, 75
2, 58461, Note_on_c, 0, 82, 0
2, 58488, Note_on_c, 0, 73, 75
2, 58498, Note_on_c, 0, 73, 0
2, 58512, Note_on_c, 0, 75, 75
2, 58524, Note_on_c, 0, 75, 0
2, 58524, Note_on_c, 0, 73, 75
2, 58536, Note_on_c, 0, 73, 0
2, 58536, Note_on_c, 0, 72, 75
2, 58548, Note_on_c, 0, 72, 0
2, 58548, Note_on_c, 0, 73, 75
2, 58560, Note_on_c, 0, 73, 0
2, 58560, Note_on_c, 0, 73, 75
2, 58584, Note_on_c, 0, 73, 0
2, 58584, Note_on_c, 0, 72, 75
2, 58607, Note_on_c, 0, 72, 0
2, 58608, Note_on_c, 0, 75, 75
2, 58632, Note_on_c, 0, 75, 0
2, 58632, Note_on_c, 0, 68, 75
2, 58655, Note_on_c, 0, 68, 0
2, 58656, Note_on_c, 0, 68, 75
2, 58680, Note_on_c, 0, 68, 0
2, 58680, Note_on_c, 0, 67, 75
2, 58703, Note_on_c, 0, 67, 0
2, 58704, Note_on_c, 0, 70, 75
2, 58728, Note_on_c, 0, 70, 0
2, 58728, Note_on_c, 0, 67, 75
2, 58751, Note_on_c, 0, 67, 0
2, 58752, Note_on_c, 0, 68, 75
2, 58772, Note_on_c, 0, 68, 0
2, 58800, Note_on_c, 0, 72, 75
2, 58820, Note_on_c, 0, 72, 0
2, 58848, Note_on_c, 0, 70, 75
2, 58868, Note_on_c, 0, 70, 0
2, 58896, Note_on_c, 0, 73, 75
2, 58916, Note_on_c, 0, 73, 0
2, 58944, Note_on_c, 0, 73, 75
2, 58968, Note_on_c, 0, 73, 0
2, 58968, Note_on_c, 0, 72, 75
2, 58991, Note_on_c, 0, 72, 0
2, 58992, Note_on_c, 0, 75, 75
2, 59016, Note_on_c, 0, 75, 0
2, 59016, Note_on_c, 0, 68, 75
2, 59039, Note_on_c, 0, 68, 0
2, 59040, Note_on_c, 0, 68, 75
2, 59064, Note_on_c, 0, 68, 0
2, 59064, Note_on_c, 0, 67, 75
2, 59087, Note_on_c, 0, 67, 0
2, 59088, Note_on_c, 0, 70, 75
2, 59112, Note_on_c, 0, 70, 0
2, 59112, Note_on_c, 0, 67, 75
2, 59135, Note_on_c, 0, 67, 0
2, 59136, Note_on_c, 0, 68, 75
2, 59156, Note_on_c, 0, 68, 0
2, 59184, Note_on_c, 0, 72, 75
2, 59204, Note_on_c, 0, 72, 0
2, 59232, Note_on_c, 0, 70, 75
2, 59252, Note_on_c, 0, 70, 0
2, 59280, Note_on_c, 0, 73, 75
2, 59300, Note_on_c, 0, 73, 0
2, 59328, Note_on_c, 0, 72, 75
2, 59348, Note_on_c, 0, 72, 0
2, 59376, Note_on_c, 0, 80, 91
2, 59447, Note_on_c, 0, 80, 0
2, 59448, Note_on_c, 0, 79, 75
2, 59471, Note_on_c, 0, 79, 0
2, 59472, Note_on_c, 0, 77, 75
2, 59495, Note_on_c, 0, 77, 0
2, 59496, Note_on_c, 0, 75, 75
2, 59519, Note_on_c, 0, 75, 0
2, 59520, Note_on_c, 0, 75, 75
2, 59587, Note_on_c, 0, 75, 0
2, 59592, Note_on_c, 0, 74, 75
2, 59602, Note_on_c, 0, 74, 0
2, 59616, Note_on_c, 0, 75, 75
2, 59626, Note_on_c, 0, 75, 0
2, 59626, Note_on_c, 0, 74, 75
2, 59636, Note_on_c, 0, 74, 0
2, 59636, Note_on_c, 0, 75, 75
2, 59646, Note_on_c, 0, 75, 0
2, 59646, Note_on_c, 0, 74, 75
2, 59656, Note_on_c, 0, 74, 0
2, 59656, Note_on_c, 0, 75, 75
2, 59666, Note_on_c, 0, 75, 0
2, 59666, Note_on_c, 0, 74, 75
2, 59676, Note_on_c, 0, 74, 0
2, 59676, Note_on_c, 0, 75, 75
2, 59685, Note_on_c, 0, 75, 0
2, 59685, Note_on_c, 0, 74, 75
2, 59694, Note_on_c, 0, 74, 0
2, 59694, Note_on_c, 0, 72, 75
2, 59703, Note_on_c, 0, 72, 0
2, 59703, Note_on_c, 0, 74, 75
2, 59712, Note_on_c, 0, 74, 0
2, 59712, Note_on_c, 0, 75, 75
2, 59757, Note_on_c, 0, 75, 0
2, 59760, Note_on_c, 0, 82, 75
2, 59805, Note_on_c, 0, 82, 0
2, 59808, Note_on_c, 0, 84, 75
2, 59832, Note_on_c, 0, 84, 0
2, 59832, Note_on_c, 0, 82, 75
2, 59855, Note_on_c, 0, 82, 0
2, 59856, Note_on_c, 0, 80, 75
2, 59879, Note_on_c, 0, 80, 0
2, 59880, Note_on_c, 0, 79, 75
2, 59903, Note_on_c, 0, 79, 0
2, 59904, Note_on_c, 0, 77, 75
2, 59949, Note_on_c, 0, 77, 0
2, 59952, Note_on_c, 0, 77, 76
2, 59964, Note_on_c, 0, 77, 0
2, 59964, Note_on_c, 0, 79, 76
2, 59976, Note_on_c, 0, 79, 0
2, 59976, Note_on_c, 0, 77, 77
2, 59988, Note_on_c, 0, 77, 0
2, 59988, Note_on_c, 0, 79, 77
2, 60000, Note_on_c, 0, 79, 0
2, 60000, Note_on_c, 0, 80, 78
2, 60045, Note_on_c, 0, 80, 0
2, 60048, Note_on_c, 0, 80, 79
2, 60060, Note_on_c, 0, 80, 0
2, 60060, Note_on_c, 0, 82, 79
2, 60072, Note_on_c, 0, 82, 0
2, 60072, Note_on_c, 0, 80, 80
2, 60084, Note_on_c, 0, 80, 0
2, 60084, Note_on_c, 0, 82, 80
2, 60096, Note_on_c, 0, 82, 0
2, 60096, Note_on_c, 0, 84, 97
2, 60226, Note_on_c, 0, 84, 0
2, 60228, Note_on_c, 0, 75, 84
2, 60233, Note_on_c, 0, 75, 0
2, 60240, Note_on_c, 0, 77, 84
2, 60250, Note_on_c, 0, 77, 0
2, 60250, Note_on_c, 0, 75, 84
2, 60260, Note_on_c, 0, 75, 0
2, 60260, Note_on_c, 0, 77, 84
2, 60270, Note_on_c, 0, 77, 0
2, 60270, Note_on_c, 0, 74, 84
2, 60279, Note_on_c, 0, 74, 0
2, 60279, Note_on_c, 0, 75, 84
2, 60288, Note_on_c, 0, 75, 0
2, 60288, Note_on_c, 0, 74, 84
2, 60311, Note_on_c, 0, 74, 0
2, 60312, Note_on_c, 0, 82, 84
2, 60335, Note_on_c, 0, 82, 0
2, 60336, Note_on_c, 0, 77, 84
2, 60359, Note_on_c, 0, 77, 0
2, 60360, Note_on_c, 0, 74, 84
2, 60383, Note_on_c, 0, 74, 0
2, 60384, Note_on_c, 0, 70, 84
2, 60429, Note_on_c, 0, 70, 0
2, 60432, Note_on_c, 0, 70, 84
2, 60477, Note_on_c, 0, 70, 0
2, 60480, Note_on_c, 0, 72, 84
2, 60490, Note_on_c, 0, 72, 0
2, 60490, Note_on_c, 0, 70, 84
2, 60500, Note_on_c, 0, 70, 0
2, 60500, Note_on_c, 0, 72, 84
2, 60510, Note_on_c, 0, 72, 0
2, 60510, Note_on_c, 0, 70, 84
2, 60520, Note_on_c, 0, 70, 0
2, 60520, Note_on_c, 0, 72, 84
2, 60530, Note_on_c, 0, 72, 0
2, 60530, Note_on_c, 0, 70, 84
2, 60540, Note_on_c, 0, 70, 0
2, 60540, Note_on_c, 0, 72, 84
2, 60549, Note_on_c, 0, 72, 0
2, 60549, Note_on_c, 0, 70, 84
2, 60576, Note_on_c, 0, 70, 0
2, 60624, Note_on_c, 0, 67, 75
2, 60669, Note_on_c, 0, 67, 0
2, 60672, Note_on_c, 0, 70, 75
2, 60813, Note_on_c, 0, 70, 0
2, 60816, Note_on_c, 0, 67, 75
2, 60850, Note_on_c, 0, 67, 0
2, 60852, Note_on_c, 0, 68, 75
2, 60864, Note_on_c, 0, 68, 0
2, 60864, Note_on_c, 0, 70, 75
2, 61005, Note_on_c, 0, 70, 0
2, 61008, Note_on_c, 0, 67, 75
2, 61020, Note_on_c, 0, 67, 0
2, 61020, Note_on_c, 0, 68, 75
2, 61032, Note_on_c, 0, 68, 0
2, 61032, Note_on_c, 0, 67, 75
2, 61044, Note_on_c, 0, 67, 0
2, 61044, Note_on_c, 0, 68, 75
2, 61056, Note_on_c, 0, 68, 0
2, 61056, Note_on_c, 0, 70, 75
2, 61076, Note_on_c, 0, 70, 0
2, 61104, Note_on_c, 0, 67, 75
2, 61116, Note_on_c, 0, 67, 0
2, 61116, Note_on_c, 0, 68, 75
2, 61128, Note_on_c, 0, 68, 0
2, 61128, Note_on_c, 0, 67, 75
2, 61140, Note_on_c, 0, 67, 0
2, 61140, Note_on_c, 0, 68, 75
2, 61152, Note_on_c, 0, 68, 0
2, 61152, Note_on_c, 0, 70, 75
2, 61172, Note_on_c, 0, 70, 0
2, 61200, Note_on_c, 0, 67, 75
2, 61212, Note_on_c, 0, 67, 0
2, 61212, Note_on_c, 0, 68, 75
2, 61224, Note_on_c, 0, 68, 0
2, 61224, Note_on_c, 0, 67, 75
2, 61236, Note_on_c, 0, 67, 0
2, 61236, Note_on_c, 0, 68, 75
2, 61248, Note_on_c, 0, 68, 0
2, 61248, Note_on_c, 0, 70, 75
2, 61268, Note_on_c, 0, 70, 0
2, 61296, Note_on_c, 0, 75, 75
2, 61316, Note_on_c, 0, 75, 0
2, 61392, Note_on_c, 0, 63, 75
2, 61412, Note_on_c, 0, 63, 0
2, 61440, Note_on_c, 0, 67, 75
2, 61573, Note_on_c, 0, 67, 0
2, 61584, Note_on_c, 0, 65, 75
2, 61596, Note_on_c, 0, 65, 0
2, 61596, Note_on_c, 0, 63, 75
2, 61629, Note_on_c, 0, 63, 0
2, 61632, Note_on_c, 0, 62, 75
2, 61776, Note_on_c, 0, 62, 0
2, 61776, Note_on_c, 0, 60, 75
2, 61796, Note_on_c, 0, 60, 0
2, 61824, Note_on_c, 0, 68, 75
2, 61957, Note_on_c, 0, 68, 0
2, 61968, Note_on_c, 0, 67, 75
2, 61980, Note_on_c, 0, 67, 0
2, 61980, Note_on_c, 0, 65, 75
2, 62013, Note_on_c, 0, 65, 0
2, 62016, Note_on_c, 0, 63, 75
2, 62160, Note_on_c, 0, 63, 0
2, 62160, Note_on_c, 0, 62, 75
2, 62180, Note_on_c, 0, 62, 0
2, 62208, Note_on_c, 0, 70, 75
2, 62341, Note_on_c, 0, 70, 0
2, 62352, Note_on_c, 0, 68, 75
2, 62364, Note_on_c, 0, 68, 0
2, 62364, Note_on_c, 0, 67, 75
2, 62397, Note_on_c, 0, 67, 0
2, 62400, Note_on_c, 0, 65, 75
2, 62544, Note_on_c, 0, 65, 0
2, 62544, Note_on_c, 0, 63, 75
2, 62564, Note_on_c, 0, 63, 0
2, 62592, Note_on_c, 0, 68, 75
2, 62725, Note_on_c, 0, 68, 0
2, 62736, Note_on_c, 0, 67, 75
2, 62781, Note_on_c, 0, 67, 0
2, 62784, Note_on_c, 0, 72, 75
2, 62873, Note_on_c, 0, 72, 0
2, 62880, Note_on_c, 0, 70, 75
2, 62969, Note_on_c, 0, 70, 0
2, 63000, Note_on_c, 0, 68, 91
2, 63010, Note_on_c, 0, 68, 0
2, 63024, Note_on_c, 0, 70, 75
2, 63036, Note_on_c, 0, 70, 0
2, 63036, Note_on_c, 0, 68, 75
2, 63048, Note_on_c, 0, 68, 0
2, 63048, Note_on_c, 0, 67, 76
2, 63060, Note_on_c, 0, 67, 0
2, 63060, Note_on_c, 0, 68, 76
2, 63072, Note_on_c, 0, 68, 0
2, 63096, Note_on_c, 0, 67, 93
2, 63106, Note_on_c, 0, 67, 0
2, 63120, Note_on_c, 0, 68, 77
2, 63132, Note_on_c, 0, 68, 0
2, 63132, Note_on_c, 0, 67, 78
2, 63144, Note_on_c, 0, 67, 0
2, 63144, Note_on_c, 0, 65, 78
2, 63156, Note_on_c, 0, 65, 0
2, 63156, Note_on_c, 0, 67, 78
2, 63168, Note_on_c, 0, 67, 0
2, 63192, Note_on_c, 0, 65, 95
2, 63202, Note_on_c, 0, 65, 0
2, 63216, Note_on_c, 0, 67, 80
2, 63228, Note_on_c, 0, 67, 0
2, 63228, Note_on_c, 0, 65, 80
2, 63240, Note_on_c, 0, 65, 0
2, 63240, Note_on_c, 0, 63, 80
2, 63252, Note_on_c, 0, 63, 0
2, 63252, Note_on_c, 0, 65, 80
2, 63264, Note_on_c, 0, 65, 0
2, 63288, Note_on_c, 0, 62, 97
2, 63298, Note_on_c, 0, 62, 0
2, 63312, Note_on_c, 0, 63, 82
2, 63324, Note_on_c, 0, 63, 0
2, 63324, Note_on_c, 0, 62, 82
2, 63336, Note_on_c, 0, 62, 0
2, 63336, Note_on_c, 0, 60, 82
2, 63348, Note_on_c, 0, 60, 0
2, 63348, Note_on_c, 0, 62, 83
2, 63360, Note_on_c, 0, 62, 0
2, 63360, Control_c, 0, 64, 127
2, 63360, Note_on_c, 0, 63, 83
2, 63360, Note_on_c, 0, 55, 83
2, 63383, Note_on_c, 0, 63, 0
2, 63383, Note_on_c, 0, 55, 0
2, 63384, Note_on_c, 0, 55, 84
2, 63407, Note_on_c, 0, 55, 0
2, 63408, Note_on_c, 0, 58, 84
2, 63431, Note_on_c, 0, 58, 0
2, 63432, Note_on_c, 0, 55, 84
2, 63455, Note_on_c, 0, 55, 0
2, 63456, Note_on_c, 0, 63, 84
2, 63479, Note_on_c, 0, 63, 0
2, 63480, Note_on_c, 0, 58, 84
2, 63503, Note_on_c, 0, 58, 0
2, 63504, Note_on_c, 0, 67, 84
2, 63527, Note_on_c, 0, 67, 0
2, 63528, Note_on_c, 0, 63, 84
2, 63551, Note_on_c, 0, 63, 0
2, 63552, Note_on_c, 0, 70, 84
2, 63575, Note_on_c, 0, 70, 0
2, 63576, Note_on_c, 0, 67, 84
2, 63599, Note_on_c, 0, 67, 0
2, 63600, Note_on_c, 0, 75, 84
2, 63623, Note_on_c, 0, 75, 0
2, 63624, Note_on_c, 0, 67, 84
2, 63647, Note_on_c, 0, 67, 0
2, 63648, Control_c, 0, 64, 0
2, 63648, Note_on_c, 0, 70, 84
2, 63671, Note_on_c, 0, 70, 0
2, 63672, Note_on_c, 0, 68, 84
2, 63695, Note_on_c, 0, 68, 0
2, 63696, Note_on_c, 0, 67, 84
2, 63719, Note_on_c, 0, 67, 0
2, 63720, Note_on_c, 0, 65, 84
2, 63743, Note_on_c, 0, 65, 0
2, 63744, Note_on_c, 0, 67, 84
2, 63789, Note_on_c, 0, 67, 0
2, 63792, Note_on_c, 0, 75, 84
2, 63812, Note_on_c, 0, 75, 0
2, 63840, Note_on_c, 0, 77, 84
2, 63850, Note_on_c, 0, 77, 0
2, 63850, Note_on_c, 0, 75, 84
2, 63860, Note_on_c, 0, 75, 0
2, 63860, Note_on_c, 0, 77, 84
2, 63870, Note_on_c, 0, 77, 0
2, 63870, Note_on_c, 0, 75, 84
2, 63880, Note_on_c, 0, 75, 0
2, 63880, Note_on_c, 0, 77, 84
2, 63890, Note_on_c, 0, 77, 0
2, 63890, Note_on_c, 0, 75, 84
2, 63900, Note_on_c, 0, 75, 0
2, 63900, Note_on_c, 0, 77, 84
2, 63909, Note_on_c, 0, 77, 0
2, 63909, Note_on_c, 0, 75, 84
2, 63918, Note_on_c, 0, 75, 0
2, 63918, Note_on_c, 0, 77, 84
2, 63927, Note_on_c, 0, 77, 0
2, 63927, Note_on_c, 0, 75, 84
2, 63936, Note_on_c, 0, 75, 0
2, 63936, Note_on_c, 0, 72, 84
2, 63981, Note_on_c, 0, 72, 0
2, 63984, Note_on_c, 0, 80, 84
2, 64004, Note_on_c, 0, 80, 0
2, 64032, Note_on_c, 0, 82, 84
2, 64042, Note_on_c, 0, 82, 0
2, 64042, Note_on_c, 0, 80, 84
2, 64052, Note_on_c, 0, 80, 0
2, 64052, Note_on_c, 0, 82, 84
2, 64062, Note_on_c, 0, 82, 0
2, 64062, Note_on_c, 0, 80, 84
2, 64072, Note_on_c, 0, 80, 0
2, 64072, Note_on_c, 0, 82, 84
2, 64082, Note_on_c, 0, 82, 0
2, 64082, Note_on_c, 0, 80, 84
2, 64092, Note_on_c, 0, 80, 0
2, 64092, Note_on_c, 0, 82, 84
2, 64101, Note_on_c, 0, 82, 0
2, 64101, Note_on_c, 0, 80, 84
2, 64110, Note_on_c, 0, 80, 0
2, 64110, Note_on_c, 0, 82, 84
2, 64119, Note_on_c, 0, 82, 0
2, 64119, Note_on_c, 0, 80, 84
2, 64128, Note_on_c, 0, 80, 0
2, 64128, Note_on_c, 0, 70, 84
2, 64173, Note_on_c, 0, 70, 0
2, 64176, Note_on_c, 0, 79, 84
2, 64196, Note_on_c, 0, 79, 0
2, 64224, Note_on_c, 0, 80, 84
2, 64234, Note_on_c, 0, 80, 0
2, 64234, Note_on_c, 0, 79, 84
2, 64244, Note_on_c, 0, 79, 0
2, 64244, Note_on_c, 0, 80, 84
2, 64254, Note_on_c, 0, 80, 0
2, 64254, Note_on_c, 0, 79, 84
2, 64264, Note_on_c, 0, 79, 0
2, 64264, Note_on_c, 0, 80, 84
2, 64274, Note_on_c, 0, 80, 0
2, 64274, Note_on_c, 0, 79, 84
2, 64284, Note_on_c, 0, 79, 0
2, 64284, Note_on_c, 0, 80, 84
2, 64293, Note_on_c, 0, 80, 0
2, 64293, Note_on_c, 0, 79, 84
2, 64302, Note_on_c, 0, 79, 0
2, 64302, Note_on_c, 0, 80, 84
2, 64311, Note_on_c, 0, 80, 0
2, 64311, Note_on_c, 0, 79, 84
2, 64320, Note_on_c, 0, 79, 0
2, 64320, Note_on_c, 0, 68, 84
2, 64365, Note_on_c, 0, 68, 0
2, 64368, Note_on_c, 0, 77, 84
2, 64388, Note_on_c, 0, 77, 0
2, 64416, Note_on_c, 0, 79, 84
2, 64426, Note_on_c, 0, 79, 0
2, 64426, Note_on_c, 0, 77, 84
2, 64436, Note_on_c, 0, 77, 0
2, 64436, Note_on_c, 0, 79, 84
2, 64446, Note_on_c, 0, 79, 0
2, 64446, Note_on_c, 0, 77, 84
2, 64456, Note_on_c, 0, 77, 0
2, 64456, Note_on_c, 0, 79, 84
2, 64466, Note_on_c, 0, 79, 0
2, 64466, Note_on_c, 0, 77, 84
2, 64476, Note_on_c, 0, 77, 0
2, 64476, Note_on_c, 0, 79, 84
2, 64485, Note_on_c, 0, 79, 0
2, 64485, Note_on_c, 0, 77, 84
2, 64494, Note_on_c, 0, 77, 0
2, 64494, Note_on_c, 0, 79, 84
2, 64503, Note_on_c, 0, 79, 0
2, 64503, Note_on_c, 0, 77, 84
2, 64512, Note_on_c, 0, 77, 0
2, 64512, Control_c, 0, 64, 127
2, 64536, Note_on_c, 0, 70, 69
2, 64559, Note_on_c, 0, 70, 0
2, 64560, Note_on_c, 0, 75, 69
2, 64583, Note_on_c, 0, 75, 0
2, 64584, Note_on_c, 0, 70, 69
2, 64607, Note_on_c, 0, 70, 0
2, 64608, Note_on_c, 0, 79, 69
2, 64631, Note_on_c, 0, 79, 0
2, 64632, Note_on_c, 0, 75, 69
2, 64655, Note_on_c, 0, 75, 0
2, 64656, Note_on_c, 0, 82, 69
2, 64679, Note_on_c, 0, 82, 0
2, 64680, Control_c, 0, 64, 0
2, 64680, Note_on_c, 0, 79, 69
2, 64703, Note_on_c, 0, 79, 0
2, 64704, Control_c, 0, 64, 127
2, 64728, Note_on_c, 0, 70, 69
2, 64751, Note_on_c, 0, 70, 0
2, 64752, Note_on_c, 0, 75, 69
2, 64775, Note_on_c, 0, 75, 0
2, 64776, Note_on_c, 0, 70, 69
2, 64799, Note_on_c, 0, 70, 0
2, 64800, Note_on_c, 0, 78, 69
2, 64823, Note_on_c, 0, 78, 0
2, 64824, Note_on_c, 0, 75, 69
2, 64847, Note_on_c, 0, 75, 0
2, 64848, Note_on_c, 0, 82, 69
2, 64871, Note_on_c, 0, 82, 0
2, 64872, Note_on_c, 0, 78, 69
2, 64895, Note_on_c, 0, 78, 0
2, 64896, Control_c, 0, 64, 0
2, 64896, Control_c, 0, 64, 127
2, 64896, Control_c, 0, 64, 127
2, 64920, Note_on_c, 0, 72, 69
2, 64943, Note_on_c, 0, 72, 0
2, 64944, Note_on_c, 0, 75, 69
2, 64967, Note_on_c, 0, 75, 0
2, 64968, Note_on_c, 0, 72, 69
2, 64991, Note_on_c, 0, 72, 0
2, 64992, Note_on_c, 0, 78, 69
2, 65015, Note_on_c, 0, 78, 0
2, 65016, Note_on_c, 0, 75, 69
2, 65039, Note_on_c, 0, 75, 0
2, 65040, Note_on_c, 0, 81, 69
2, 65063, Note_on_c, 0, 81, 0
2, 65064, Note_on_c, 0, 78, 69
2, 65087, Note_on_c, 0, 78, 0
2, 65088, Control_c, 0, 64, 0
2, 65088, Control_c, 0, 64, 127
2, 65112, Note_on_c, 0, 75, 69
2, 65135, Note_on_c, 0, 75, 0
2, 65136, Note_on_c, 0, 78, 69
2, 65159, Note_on_c, 0, 78, 0
2, 65160, Note_on_c, 0, 75, 69
2, 65183, Note_on_c, 0, 75, 0
2, 65184, Note_on_c, 0, 81, 69
2, 65207, Note_on_c, 0, 81, 0
2, 65208, Note_on_c, 0, 78, 69
2, 65231, Note_on_c, 0, 78, 0
2, 65232, Note_on_c, 0, 84, 69
2, 65255, Note_on_c, 0, 84, 0
2, 65256, Note_on_c, 0, 81, 69
2, 65279, Note_on_c, 0, 81, 0
2, 65280, Control_c, 0, 64, 0
2, 65280, Control_c, 0, 64, 127
2, 65280, Control_c, 0, 64, 127
2, 65304, Note_on_c, 0, 70, 69
2, 65327, Note_on_c, 0, 70, 0
2, 65328, Note_on_c, 0, 74, 69
2, 65351, Note_on_c, 0, 74, 0
2, 65352, Note_on_c, 0, 70, 69
2, 65375, Note_on_c, 0, 70, 0
2, 65376, Note_on_c, 0, 77, 69
2, 65399, Note_on_c, 0, 77, 0
2, 65400, Note_on_c, 0, 74, 69
2, 65423, Note_on_c, 0, 74, 0
2, 65424, Note_on_c, 0, 80, 69
2, 65447, Note_on_c, 0, 80, 0
2, 65448, Control_c, 0, 64, 0
2, 65448, Note_on_c, 0, 77, 69
2, 65471, Note_on_c, 0, 77, 0
2, 65472, Control_c, 0, 64, 127
2, 65496, Note_on_c, 0, 70, 69
2, 65519, Note_on_c, 0, 70, 0
2, 65520, Note_on_c, 0, 75, 69
2, 65543, Note_on_c, 0, 75, 0
2, 65544, Note_on_c, 0, 70, 69
2, 65567, Note_on_c, 0, 70, 0
2, 65568, Note_on_c, 0, 79, 69
2, 65591, Note_on_c, 0, 79, 0
2, 65592, Note_on_c, 0, 75, 69
2, 65615, Note_on_c, 0, 75, 0
2, 65616, Note_on_c, 0, 82, 69
2, 65639, Note_on_c, 0, 82, 0
2, 65640, Note_on_c, 0, 79, 69
2, 65664, Control_c, 0, 64, 0
2, 65687, Note_on_c, 0, 79, 0
2, 65688, Note_on_c, 0, 77, 75
2, 65733, Note_on_c, 0, 77, 0
2, 65736, Note_on_c, 0, 76, 77
2, 65781, Note_on_c, 0, 76, 0
2, 65784, Note_on_c, 0, 77, 80
2, 65829, Note_on_c, 0, 77, 0
2, 65832, Note_on_c, 0, 75, 82
2, 65879, Note_on_c, 0, 75, 0
2, 65880, Note_on_c, 0, 74, 84
2, 65903, Note_on_c, 0, 74, 0
2, 65904, Note_on_c, 0, 72, 84
2, 65927, Note_on_c, 0, 72, 0
2, 65928, Note_on_c, 0, 70, 84
2, 65951, Note_on_c, 0, 70, 0
2, 65952, Note_on_c, 0, 70, 84
2, 65972, Note_on_c, 0, 70, 0
2, 66000, Note_on_c, 0, 70, 75
2, 66023, Note_on_c, 0, 70, 0
2, 66024, Note_on_c, 0, 67, 75
2, 66071, Note_on_c, 0, 67, 0
2, 66072, Note_on_c, 0, 65, 77
2, 66117, Note_on_c, 0, 65, 0
2, 66120, Note_on_c, 0, 64, 79
2, 66165, Note_on_c, 0, 64, 0
2, 66168, Note_on_c, 0, 65, 81
2, 66213, Note_on_c, 0, 65, 0
2, 66216, Note_on_c, 0, 63, 83
2, 66263, Note_on_c, 0, 63, 0
2, 66264, Note_on_c, 0, 62, 84
2, 66287, Note_on_c, 0, 62, 0
2, 66288, Note_on_c, 0, 60, 84
2, 66311, Note_on_c, 0, 60, 0
2, 66312, Note_on_c, 0, 58, 84
2, 66335, Note_on_c, 0, 58, 0
2, 66336, Note_on_c, 0, 58, 84
2, 66356, Note_on_c, 0, 58, 0
2, 66384, Note_on_c, 0, 63, 75
2, 66404, Note_on_c, 0, 63, 0
2, 66432, Note_on_c, 0, 67, 75
2, 66565, Note_on_c, 0, 67, 0
2, 66576, Note_on_c, 0, 70, 75
2, 66599, Note_on_c, 0, 70, 0
2, 66600, Note_on_c, 0, 67, 75
2, 66623, Note_on_c, 0, 67, 0
2, 66624, Note_on_c, 0, 68, 75
2, 66757, Note_on_c, 0, 68, 0
2, 66768, Note_on_c, 0, 65, 75
2, 66791, Note_on_c, 0, 65, 0
2, 66792, Note_on_c, 0, 62, 75
2, 66815, Note_on_c, 0, 62, 0
2, 66816, Note_on_c, 0, 56, 75
2, 66956, Note_on_c, 0, 56, 0
2, 66960, Note_on_c, 0, 68, 75
2, 66983, Note_on_c, 0, 68, 0
2, 66984, Note_on_c, 0, 65, 75
2, 67007, Note_on_c, 0, 65, 0
2, 67008, Note_on_c, 0, 67, 75
2, 67141, Note_on_c, 0, 67, 0
2, 67152, Note_on_c, 0, 63, 75
2, 67164, Note_on_c, 0, 63, 0
2, 67164, Note_on_c, 0, 65, 75
2, 67176, Note_on_c, 0, 65, 0
2, 67176, Note_on_c, 0, 63, 75
2, 67188, Note_on_c, 0, 63, 0
2, 67188, Note_on_c, 0, 65, 75
2, 67200, Note_on_c, 0, 65, 0
2, 67200, Note_on_c, 0, 67, 75
2, 67245, Note_on_c, 0, 67, 0
2, 67248, Note_on_c, 0, 67, 75
2, 67260, Note_on_c, 0, 67, 0
2, 67260, Note_on_c, 0, 68, 75
2, 67272, Note_on_c, 0, 68, 0
2, 67272, Note_on_c, 0, 67, 75
2, 67284, Note_on_c, 0, 67, 0
2, 67284, Note_on_c, 0, 68, 75
2, 67296, Note_on_c, 0, 68, 0
2, 67296, Note_on_c, 0, 70, 75
2, 67341, Note_on_c, 0, 70, 0
2, 67344, Note_on_c, 0, 75, 75
2, 67389, Note_on_c, 0, 75, 0
2, 67392, Note_on_c, 0, 75, 75
2, 67416, Note_on_c, 0, 75, 0
2, 67416, Note_on_c, 0, 72, 75
2, 67439, Note_on_c, 0, 72, 0
2, 67440, Note_on_c, 0, 72, 75
2, 67529, Note_on_c, 0, 72, 0
2, 67536, Note_on_c, 0, 75, 75
2, 67581, Note_on_c, 0, 75, 0
2, 67584, Note_on_c, 0, 75, 75
2, 67608, Note_on_c, 0, 75, 0
2, 67608, Note_on_c, 0, 70, 75
2, 67631, Note_on_c, 0, 70, 0
2, 67632, Note_on_c, 0, 70, 75
2, 67721, Note_on_c, 0, 70, 0
2, 67728, Note_on_c, 0, 75, 75
2, 67752, Note_on_c, 0, 75, 0
2, 67752, Note_on_c, 0, 70, 75
2, 67775, Note_on_c, 0, 70, 0
2, 67776, Note_on_c, 0, 70, 75
2, 67800, Note_on_c, 0, 70, 0
2, 67800, Note_on_c, 0, 69, 75
2, 67823, Note_on_c, 0, 69, 0
2, 67824, Note_on_c, 0, 69, 75
2, 67869, Note_on_c, 0, 69, 0
2, 67872, Note_on_c, 0, 69, 75
2, 67917, Note_on_c, 0, 69, 0
2, 67920, Note_on_c, 0, 69, 75
2, 67965, Note_on_c, 0, 69, 0
2, 67968, Note_on_c, 0, 69, 75
2, 67980, Note_on_c, 0, 69, 0
2, 67980, Note_on_c, 0, 78, 91
2, 68098, Note_on_c, 0, 78, 0
2, 68100, Note_on_c, 0, 69, 91
2, 68112, Note_on_c, 0, 69, 0
2, 68112, Note_on_c, 0, 70, 75
2, 68124, Note_on_c, 0, 70, 0
2, 68124, Note_on_c, 0, 69, 75
2, 68136, Note_on_c, 0, 69, 0
2, 68136, Note_on_c, 0, 67, 75
2, 68148, Note_on_c, 0, 67, 0
2, 68148, Note_on_c, 0, 69, 75
2, 68160, Note_on_c, 0, 69, 0
2, 68160, Note_on_c, 0, 70, 75
2, 68180, Note_on_c, 0, 70, 0
2, 68208, Note_on_c, 0, 70, 75
2, 68297, Note_on_c, 0, 70, 0
2, 68304, Note_on_c, 0, 72, 75
2, 68327, Note_on_c, 0, 72, 0
2, 68328, Note_on_c, 0, 68, 75
2, 68351, Note_on_c, 0, 68, 0
2, 68352, Note_on_c, 0, 68, 75
2, 68375, Note_on_c, 0, 68, 0
2, 68376, Note_on_c, 0, 67, 75
2, 68399, Note_on_c, 0, 67, 0
2, 68400, Note_on_c, 0, 70, 75
2, 68423, Note_on_c, 0, 70, 0
2, 68424, Note_on_c, 0, 63, 75
2, 68447, Note_on_c, 0, 63, 0
2, 68448, Note_on_c, 0, 63, 75
2, 68471, Note_on_c, 0, 63, 0
2, 68472, Note_on_c, 0, 62, 75
2, 68495, Note_on_c, 0, 62, 0
2, 68496, Note_on_c, 0, 65, 75
2, 68519, Note_on_c, 0, 65, 0
2, 68520, Note_on_c, 0, 62, 75
2, 68543, Note_on_c, 0, 62, 0
2, 68544, Note_on_c, 0, 63, 75
2, 68564, Note_on_c, 0, 63, 0
2, 68592, Note_on_c, 0, 67, 75
2, 68612, Note_on_c, 0, 67, 0
2, 68640, Note_on_c, 0, 65, 75
2, 68660, Note_on_c, 0, 65, 0
2, 68688, Note_on_c, 0, 68, 75
2, 68708, Note_on_c, 0, 68, 0
2, 68736, Note_on_c, 0, 68, 75
2, 68759, Note_on_c, 0, 68, 0
2, 68760, Note_on_c, 0, 67, 75
2, 68783, Note_on_c, 0, 67, 0
2, 68784, Note_on_c, 0, 70, 75
2, 68807, Note_on_c, 0, 70, 0
2, 68808, Note_on_c, 0, 63, 75
2, 68831, Note_on_c, 0, 63, 0
2, 68832, Note_on_c, 0, 63, 75
2, 68855, Note_on_c, 0, 63, 0
2, 68856, Note_on_c, 0, 62, 75
2, 68879, Note_on_c, 0, 62, 0
2, 68880, Note_on_c, 0, 65, 75
2, 68903, Note_on_c, 0, 65, 0
2, 68904, Note_on_c, 0, 62, 75
2, 68927, Note_on_c, 0, 62, 0
2, 68928, Note_on_c, 0, 63, 75
2, 68948, Note_on_c, 0, 63, 0
2, 68976, Note_on_c, 0, 67, 75
2, 68996, Note_on_c, 0, 67, 0
2, 69024, Note_on_c, 0, 65, 75
2, 69044, Note_on_c, 0, 65, 0
2, 69072, Note_on_c, 0, 68, 75
2, 69092, Note_on_c, 0, 68, 0
2, 69120, Note_on_c, 0, 67, 75
2, 69130, Note_on_c, 0, 67, 0
2, 69144, Note_on_c, 0, 75, 75
2, 69167, Note_on_c, 0, 75, 0
2, 69168, Note_on_c, 0, 74, 75
2, 69191, Note_on_c, 0, 74, 0
2, 69192, Note_on_c, 0, 75, 75
2, 69215, Note_on_c, 0, 75, 0
2, 69240, Note_on_c, 0, 73, 75
2, 69263, Note_on_c, 0, 73, 0
2, 69264, Note_on_c, 0, 72, 75
2, 69287, Note_on_c, 0, 72, 0
2, 69288, Note_on_c, 0, 71, 75
2, 69311, Note_on_c, 0, 71, 0
2, 69336, Note_on_c, 0, 72, 75
2, 69359, Note_on_c, 0, 72, 0
2, 69360, Note_on_c, 0, 71, 75
2, 69383, Note_on_c, 0, 71, 0
2, 69384, Note_on_c, 0, 72, 75
2, 69407, Note_on_c, 0, 72, 0
2, 69408, Note_on_c, 0, 70, 75
2, 69431, Note_on_c, 0, 70, 0
2, 69432, Note_on_c, 0, 68, 75
2, 69455, Note_on_c, 0, 68, 0
2, 69456, Note_on_c, 0, 67, 75
2, 69479, Note_on_c, 0, 67, 0
2, 69480, Note_on_c, 0, 65, 75
2, 69503, Note_on_c, 0, 65, 0
2, 69504, Note_on_c, 0, 70, 91
2, 69514, Note_on_c, 0, 70, 0
2, 69528, Note_on_c, 0, 72, 75
2, 69536, Note_on_c, 0, 72, 0
2, 69536, Note_on_c, 0, 70, 75
2, 69544, Note_on_c, 0, 70, 0
2, 69544, Note_on_c, 0, 68, 75
2, 69552, Note_on_c, 0, 68, 0
2, 69552, Note_on_c, 0, 70, 75
2, 69575, Note_on_c, 0, 70, 0
2, 69576, Note_on_c, 0, 72, 75
2, 69599, Note_on_c, 0, 72, 0
2, 69600, Note_on_c, 0, 63, 75
2, 69645, Note_on_c, 0, 63, 0
2, 69648, Note_on_c, 0, 62, 75
2, 69693, Note_on_c, 0, 62, 0
2, 69696, Note_on_c, 0, 63, 75
2, 69741, Note_on_c, 0, 63, 0
2, 69744, Note_on_c, 0, 79, 75
2, 69764, Note_on_c, 0, 79, 0
2, 69792, Note_on_c, 0, 77, 75
2, 69815, Note_on_c, 0, 77, 0
2, 69816, Note_on_c, 0, 75, 75
2, 69839, Note_on_c, 0, 75, 0
2, 69840, Note_on_c, 0, 74, 75
2, 69863, Note_on_c, 0, 74, 0
2, 69864, Note_on_c, 0, 72, 75
2, 69933, Note_on_c, 0, 72, 0
2, 69936, Note_on_c, 0, 70, 75
2, 70018, Note_on_c, 0, 70, 0
2, 70020, Note_on_c, 0, 69, 75
2, 70032, Note_on_c, 0, 69, 0
2, 70032, Note_on_c, 0, 75, 75
2, 70080, Note_on_c, 0, 75, 0
2, 70080, Note_on_c, 0, 74, 75
2, 70100, Note_on_c, 0, 74, 0
2, 70128, Note_on_c, 0, 75, 75
2, 70173, Note_on_c, 0, 75, 0
2, 70176, Note_on_c, 0, 74, 75
2, 70199, Note_on_c, 0, 74, 0
2, 70200, Note_on_c, 0, 72, 75
2, 70223, Note_on_c, 0, 72, 0
2, 70224, Note_on_c, 0, 70, 75
2, 70247, Note_on_c, 0, 70, 0
2, 70248, Note_on_c, 0, 68, 75
2, 70317, Note_on_c, 0, 68, 0
2, 70320, Note_on_c, 0, 67, 75
2, 70402, Note_on_c, 0, 67, 0
2, 70404, Note_on_c, 0, 66, 75
2, 70416, Note_on_c, 0, 66, 0
2, 70416, Note_on_c, 0, 72, 75
2, 70464, Note_on_c, 0, 72, 0
2, 70464, Note_on_c, 0, 70, 75
2, 70484, Note_on_c, 0, 70, 0
2, 70512, Note_on_c, 0, 71, 75
2, 70536, Note_on_c, 0, 71, 0
2, 70536, Note_on_c, 0, 72, 75
2, 70559, Note_on_c, 0, 72, 0
2, 70560, Note_on_c, 0, 70, 75
2, 70583, Note_on_c, 0, 70, 0
2, 70584, Note_on_c, 0, 68, 75
2, 70607, Note_on_c, 0, 68, 0
2, 70608, Note_on_c, 0, 67, 75
2, 70631, Note_on_c, 0, 67, 0
2, 70632, Note_on_c, 0, 65, 75
2, 70701, Note_on_c, 0, 65, 0
2, 70704, Note_on_c, 0, 63, 75
2, 70786, Note_on_c, 0, 63, 0
2, 70788, Note_on_c, 0, 62, 75
2, 70800, Note_on_c, 0, 62, 0
2, 70800, Note_on_c, 0, 68, 75
2, 70893, Note_on_c, 0, 68, 0
2, 70896, Note_on_c, 0, 67, 75
2, 70941, Note_on_c, 0, 67, 0
2, 70980, Note_on_c, 0, 68, 75
2, 70992, Note_on_c, 0, 68, 0
2, 70992, Note_on_c, 0, 70, 75
2, 70998, Note_on_c, 0, 70, 0
2, 70998, Note_on_c, 0, 68, 75
2, 71004, Note_on_c, 0, 68, 0
2, 71004, Note_on_c, 0, 67, 75
2, 71010, Note_on_c, 0, 67, 0
2, 71010, Note_on_c, 0, 68, 75
2, 71074, Note_on_c, 0, 68, 0
2, 71076, Note_on_c, 0, 67, 75
2, 71088, Note_on_c, 0, 67, 0
2, 71088, Note_on_c, 0, 68, 75
2, 71094, Note_on_c, 0, 68, 0
2, 71094, Note_on_c, 0, 67, 75
2, 71100, Note_on_c, 0, 67, 0
2, 71100, Note_on_c, 0, 65, 75
2, 71106, Note_on_c, 0, 65, 0
2, 71106, Note_on_c, 0, 67, 75
2, 71135, Note_on_c, 0, 67, 0
2, 71172, Note_on_c, 0, 68, 75
2, 71184, Note_on_c, 0, 68, 0
2, 71184, Note_on_c, 0, 70, 75
2, 71190, Note_on_c, 0, 70, 0
2, 71190, Note_on_c, 0, 68, 75
2, 71196, Note_on_c, 0, 68, 0
2, 71196, Note_on_c, 0, 67, 75
2, 71202, Note_on_c, 0, 67, 0
2, 71202, Note_on_c, 0, 68, 75
2, 71231, Note_on_c, 0, 68, 0
2, 71232, Note_on_c, 0, 67, 75
2, 71299, Note_on_c, 0, 67, 0
2, 71304, Note_on_c, 0, 68, 75
2, 71327, Note_on_c, 0, 68, 0
2, 71328, Note_on_c, 0, 70, 75
2, 71338, Note_on_c, 0, 70, 0
2, 71338, Note_on_c, 0, 68, 75
2, 71348, Note_on_c, 0, 68, 0
2, 71348, Note_on_c, 0, 70, 75
2, 71358, Note_on_c, 0, 70, 0
2, 71358, Note_on_c, 0, 68, 75
2, 71368, Note_on_c, 0, 68, 0
2, 71368, Note_on_c, 0, 70, 75
2, 71378, Note_on_c, 0, 70, 0
2, 71378, Note_on_c, 0, 68, 75
2, 71388, Note_on_c, 0, 68, 0
2, 71388, Note_on_c, 0, 70, 75
2, 71397, Note_on_c, 0, 70, 0
2, 71397, Note_on_c, 0, 68, 75
2, 71406, Note_on_c, 0, 68, 0
2, 71406, Note_on_c, 0, 67, 75
2, 71415, Note_on_c, 0, 67, 0
2, 71415, Note_on_c, 0, 68, 75
2, 71424, Note_on_c, 0, 68, 0
2, 71424, Note_on_c, 0, 70, 75
2, 71444, Note_on_c, 0, 70, 0
2, 71472, Note_on_c, 0, 75, 75
2, 71561, Note_on_c, 0, 75, 0
2, 71568, Note_on_c, 0, 73, 75
2, 71657, Note_on_c, 0, 73, 0
2, 71664, Note_on_c, 0, 72, 75
2, 71753, Note_on_c, 0, 72, 0
2, 71760, Note_on_c, 0, 71, 75
2, 71805, Note_on_c, 0, 71, 0
2, 71808, Note_on_c, 0, 72, 75
2, 71856, Note_on_c, 0, 72, 0
2, 71856, Note_on_c, 0, 71, 75
2, 71901, Note_on_c, 0, 71, 0
2, 71904, Note_on_c, 0, 72, 76
2, 71952, Note_on_c, 0, 72, 0
2, 71952, Note_on_c, 0, 71, 77
2, 71997, Note_on_c, 0, 71, 0
2, 72000, Control_c, 0, 64, 127
2, 72000, Note_on_c, 0, 72, 78
2, 72045, Note_on_c, 0, 72, 0
2, 72048, Note_on_c, 0, 84, 79
2, 72093, Note_on_c, 0, 84, 0
2, 72096, Control_c, 0, 64, 0
2, 72096, Control_c, 0, 64, 127
2, 72096, Note_on_c, 0, 84, 80
2, 72141, Note_on_c, 0, 84, 0
2, 72144, Note_on_c, 0, 84, 81
2, 72189, Note_on_c, 0, 84, 0
2, 72192, Control_c, 0, 64, 0
2, 72192, Control_c, 0, 64, 127
2, 72192, Note_on_c, 0, 84, 82
2, 72281, Note_on_c, 0, 84, 0
2, 72288, Control_c, 0, 64, 0
2, 72288, Note_on_c, 0, 82, 84
2, 72311, Note_on_c, 0, 82, 0
2, 72312, Note_on_c, 0, 80, 84
2, 72335, Note_on_c, 0, 80, 0
2, 72336, Note_on_c, 0, 79, 84
2, 72359, Note_on_c, 0, 79, 0
2, 72360, Note_on_c, 0, 77, 84
2, 72383, Note_on_c, 0, 77, 0
2, 72384, Note_on_c, 0, 75, 84
2, 72473, Note_on_c, 0, 75, 0
2, 72480, Note_on_c, 0, 75, 84
2, 72492, Note_on_c, 0, 75, 0
2, 72492, Note_on_c, 0, 74, 84
2, 72504, Note_on_c, 0, 74, 0
2, 72504, Note_on_c, 0, 75, 84
2, 72516, Note_on_c, 0, 75, 0
2, 72516, Note_on_c, 0, 77, 84
2, 72528, Note_on_c, 0, 77, 0
2, 72528, Note_on_c, 0, 79, 84
2, 72540, Note_on_c, 0, 79, 0
2, 72540, Note_on_c, 0, 77, 84
2, 72552, Note_on_c, 0, 77, 0
2, 72552, Note_on_c, 0, 79, 84
2, 72564, Note_on_c, 0, 79, 0
2, 72564, Note_on_c, 0, 80, 84
2, 72576, Note_on_c, 0, 80, 0
2, 72576, Note_on_c, 0, 82, 100
2, 72695, Note_on_c, 0, 82, 0
2, 72696, Note_on_c, 0, 80, 84
2, 72708, Note_on_c, 0, 80, 0
2, 72708, Note_on_c, 0, 79, 84
2, 72720, Note_on_c, 0, 79, 0
2, 72720, Note_on_c, 0, 77, 84
2, 72732, Note_on_c, 0, 77, 0
2, 72732, Note_on_c, 0, 75, 84
2, 72744, Note_on_c, 0, 75, 0
2, 72744, Note_on_c, 0, 74, 84
2, 72756, Note_on_c, 0, 74, 0
2, 72756, Note_on_c, 0, 72, 84
2, 72768, Note_on_c, 0, 72, 0
2, 72768, Note_on_c, 0, 70, 84
2, 72931, Note_on_c, 0, 70, 0
2, 72936, Note_on_c, 0, 75, 84
2, 72948, Note_on_c, 0, 75, 0
2, 72948, Note_on_c, 0, 77, 84
2, 72960, Note_on_c, 0, 77, 0
2, 72960, Note_on_c, 0, 79, 84
2, 72971, Note_on_c, 0, 79, 0
2, 72971, Note_on_c, 0, 77, 84
2, 72982, Note_on_c, 0, 77, 0
2, 72982, Note_on_c, 0, 79, 84
2, 72993, Note_on_c, 0, 79, 0
2, 72993, Note_on_c, 0, 77, 84
2, 73004, Note_on_c, 0, 77, 0
2, 73004, Note_on_c, 0, 79, 84
2, 73015, Note_on_c, 0, 79, 0
2, 73015, Note_on_c, 0, 77, 84
2, 73026, Note_on_c, 0, 77, 0
2, 73026, Note_on_c, 0, 79, 84
2, 73037, Note_on_c, 0, 79, 0
2, 73037, Note_on_c, 0, 77, 84
2, 73048, Note_on_c, 0, 77, 0
2, 73048, Note_on_c, 0, 79, 84
2, 73059, Note_on_c, 0, 79, 0
2, 73059, Note_on_c, 0, 77, 84
2, 73070, Note_on_c, 0, 77, 0
2, 73070, Note_on_c, 0, 79, 84
2, 73081, Note_on_c, 0, 79, 0
2, 73081, Note_on_c, 0, 77, 84
2, 73092, Note_on_c, 0, 77, 0
2, 73092, Note_on_c, 0, 79, 84
2, 73102, Note_on_c, 0, 79, 0
2, 73102, Note_on_c, 0, 77, 84
2, 73112, Note_on_c, 0, 77, 0
2, 73112, Note_on_c, 0, 75, 84
2, 73132, Note_on_c, 0, 75, 0
2, 73132, Note_on_c, 0, 77, 84
2, 73152, Note_on_c, 0, 77, 0
2, 73152, Note_on_c, 0, 75, 84
2, 73241, Note_on_c, 0, 75, 0
2, 73272, Note_on_c, 0, 70, 75
2, 73282, Note_on_c, 0, 70, 0
2, 73296, Note_on_c, 0, 72, 75
2, 73308, Note_on_c, 0, 72, 0
2, 73308, Note_on_c, 0, 70, 75
2, 73320, Note_on_c, 0, 70, 0
2, 73320, Note_on_c, 0, 69, 75
2, 73332, Note_on_c, 0, 69, 0
2, 73332, Note_on_c, 0, 70, 75
2, 73344, Note_on_c, 0, 70, 0
2, 73368, Note_on_c, 0, 72, 75
2, 73378, Note_on_c, 0, 72, 0
2, 73392, Note_on_c, 0, 74, 75
2, 73404, Note_on_c, 0, 74, 0
2, 73404, Note_on_c, 0, 72, 75
2, 73416, Note_on_c, 0, 72, 0
2, 73416, Note_on_c, 0, 71, 75
2, 73428, Note_on_c, 0, 71, 0
2, 73428, Note_on_c, 0, 72, 75
2, 73440, Note_on_c, 0, 72, 0
2, 73464, Note_on_c, 0, 74, 75
2, 73487, Note_on_c, 0, 74, 0
2, 73488, Note_on_c, 0, 77, 75
2, 73511, Note_on_c, 0, 77, 0
2, 73512, Note_on_c, 0, 80, 75
2, 73535, Note_on_c, 0, 80, 0
2, 73536, Note_on_c, 0, 80, 75
2, 73559, Note_on_c, 0, 80, 0
2, 73560, Note_on_c, 0, 79, 75
2, 73583, Note_on_c, 0, 79, 0
2, 73584, Note_on_c, 0, 77, 75
2, 73607, Note_on_c, 0, 77, 0
2, 73608, Note_on_c, 0, 75, 75
2, 73631, Note_on_c, 0, 75, 0
2, 73656, Note_on_c, 0, 70, 75
2, 73666, Note_on_c, 0, 70, 0
2, 73680, Note_on_c, 0, 72, 75
2, 73692, Note_on_c, 0, 72, 0
2, 73692, Note_on_c, 0, 70, 75
2, 73704, Note_on_c, 0, 70, 0
2, 73704, Note_on_c, 0, 69, 75
2, 73716, Note_on_c, 0, 69, 0
2, 73716, Note_on_c, 0, 70, 75
2, 73728, Note_on_c, 0, 70, 0
2, 73752, Note_on_c, 0, 72, 75
2, 73762, Note_on_c, 0, 72, 0
2, 73776, Note_on_c, 0, 74, 75
2, 73788, Note_on_c, 0, 74, 0
2, 73788, Note_on_c, 0, 72, 75
2, 73800, Note_on_c, 0, 72, 0
2, 73800, Note_on_c, 0, 71, 75
2, 73812, Note_on_c, 0, 71, 0
2, 73812, Note_on_c, 0, 72, 75
2, 73824, Note_on_c, 0, 72, 0
2, 73848, Note_on_c, 0, 68, 75
2, 73871, Note_on_c, 0, 68, 0
2, 73872, Note_on_c, 0, 65, 75
2, 73895, Note_on_c, 0, 65, 0
2, 73896, Note_on_c, 0, 62, 75
2, 73906, Note_on_c, 0, 62, 0
2, 73920, Note_on_c, 0, 65, 75
2, 73932, Note_on_c, 0, 65, 0
2, 73932, Note_on_c, 0, 63, 75
2, 73944, Note_on_c, 0, 63, 0
2, 73944, Note_on_c, 0, 62, 75
2, 73956, Note_on_c, 0, 62, 0
2, 73956, Note_on_c, 0, 63, 75
2, 73968, Note_on_c, 0, 63, 0
2, 73968, Note_on_c, 0, 63, 75
2, 73998, Note_on_c, 0, 63, 0
2, 74112, End_track
3, 0, Start_track
3, 0, Program_c, 0, 0
3, 0, Control_c, 0, 7, 127
3, 0, Control_c, 0, 10, 64
3, 74112, End_track
4, 0, Start_track
4, 0, Program_c, 1, 0
4, 0, Control_c, 1, 7, 127
4, 0, Control_c, 1, 10, 64
4, 432, Note_on_c, 1, 51, 75
4, 452, Note_on_c, 1, 51, 0
4, 480, Note_on_c, 1, 55, 75
4, 569, Note_on_c, 1, 55, 0
4, 624, Note_on_c, 1, 51, 75
4, 658, Note_on_c, 1, 51, 0
4, 660, Note_on_c, 1, 53, 75
4, 672, Note_on_c, 1, 53, 0
4, 672, Note_on_c, 1, 55, 75
4, 761, Note_on_c, 1, 55, 0
4, 816, Note_on_c, 1, 63, 75
4, 850, Note_on_c, 1, 63, 0
4, 852, Note_on_c, 1, 65, 75
4, 864, Note_on_c, 1, 65, 0
4, 864, Note_on_c, 1, 67, 75
4, 884, Note_on_c, 1, 67, 0
4, 912, Note_on_c, 1, 63, 75
4, 946, Note_on_c, 1, 63, 0
4, 948, Note_on_c, 1, 65, 75
4, 960, Note_on_c, 1, 65, 0
4, 960, Note_on_c, 1, 67, 75
4, 999, Note_on_c, 1, 67, 0
4, 1200, Note_on_c, 1, 51, 75
4, 1220, Note_on_c, 1, 51, 0
4, 1248, Note_on_c, 1, 55, 75
4, 1337, Note_on_c, 1, 55, 0
4, 1392, Note_on_c, 1, 44, 75
4, 1412, Note_on_c, 1, 44, 0
4, 1440, Note_on_c, 1, 56, 75
4, 1485, Note_on_c, 1, 56, 0
4, 1488, Note_on_c, 1, 53, 75
4, 1533, Note_on_c, 1, 53, 0
4, 1536, Note_on_c, 1, 58, 75
4, 1625, Note_on_c, 1, 58, 0
4, 1632, Note_on_c, 1, 46, 75
4, 1677, Note_on_c, 1, 46, 0
4, 1680, Note_on_c, 1, 50, 75
4, 1725, Note_on_c, 1, 50, 0
4, 1728, Note_on_c, 1, 51, 75
4, 1773, Note_on_c, 1, 51, 0
4, 1776, Note_on_c, 1, 46, 75
4, 1821, Note_on_c, 1, 46, 0
4, 1824, Note_on_c, 1, 51, 75
4, 1913, Note_on_c, 1, 51, 0
4, 1968, Note_on_c, 1, 51, 75
4, 1988, Note_on_c, 1, 51, 0
4, 2016, Note_on_c, 1, 55, 75
4, 2105, Note_on_c, 1, 55, 0
4, 2160, Note_on_c, 1, 51, 75
4, 2194, Note_on_c, 1, 51, 0
4, 2196, Note_on_c, 1, 53, 75
4, 2208, Note_on_c, 1, 53, 0
4, 2208, Note_on_c, 1, 55, 75
4, 2297, Note_on_c, 1, 55, 0
4, 2352, Note_on_c, 1, 63, 75
4, 2364, Note_on_c, 1, 63, 0
4, 2364, Note_on_c, 1, 65, 75
4, 2376, Note_on_c, 1, 65, 0
4, 2376, Note_on_c, 1, 63, 75
4, 2388, Note_on_c, 1, 63, 0
4, 2388, Note_on_c, 1, 65, 75
4, 2400, Note_on_c, 1, 65, 0
4, 2400, Note_on_c, 1, 67, 75
4, 2420, Note_on_c, 1, 67, 0
4, 2448, Note_on_c, 1, 63, 75
4, 2460, Note_on_c, 1, 63, 0
4, 2460, Note_on_c, 1, 65, 75
4, 2472, Note_on_c, 1, 65, 0
4, 2472, Note_on_c, 1, 63, 75
4, 2484, Note_on_c, 1, 63, 0
4, 2484, Note_on_c, 1, 65, 75
4, 2496, Note_on_c, 1, 65, 0
4, 2496, Note_on_c, 1, 67, 75
4, 2535, Note_on_c, 1, 67, 0
4, 2736, Note_on_c, 1, 51, 75
4, 2756, Note_on_c, 1, 51, 0
4, 2784, Note_on_c, 1, 55, 75
4, 2873, Note_on_c, 1, 55, 0
4, 2928, Note_on_c, 1, 56, 75
4, 2948, Note_on_c, 1, 56, 0
4, 2976, Note_on_c, 1, 44, 75
4, 3065, Note_on_c, 1, 44, 0
4, 3120, Note_on_c, 1, 53, 75
4, 3140, Note_on_c, 1, 53, 0
4, 3168, Note_on_c, 1, 56, 75
4, 3257, Note_on_c, 1, 56, 0
4, 3312, Note_on_c, 1, 58, 75
4, 3332, Note_on_c, 1, 58, 0
4, 3360, Note_on_c, 1, 46, 75
4, 3449, Note_on_c, 1, 46, 0
4, 3504, Note_on_c, 1, 55, 75
4, 3524, Note_on_c, 1, 55, 0
4, 3552, Note_on_c, 1, 58, 75
4, 3641, Note_on_c, 1, 58, 0
4, 3696, Note_on_c, 1, 60, 77
4, 3716, Note_on_c, 1, 60, 0
4, 3744, Note_on_c, 1, 48, 77
4, 3833, Note_on_c, 1, 48, 0
4, 3888, Note_on_c, 1, 60, 78
4, 3908, Note_on_c, 1, 60, 0
4, 3936, Note_on_c, 1, 58, 79
4, 4077, Note_on_c, 1, 58, 0
4, 4080, Note_on_c, 1, 56, 80
4, 4169, Note_on_c, 1, 56, 0
4, 4176, Note_on_c, 1, 55, 81
4, 4221, Note_on_c, 1, 55, 0
4, 4224, Note_on_c, 1, 50, 81
4, 4269, Note_on_c, 1, 50, 0
4, 4272, Note_on_c, 1, 51, 81
4, 4317, Note_on_c, 1, 51, 0
4, 4320, Note_on_c, 1, 44, 82
4, 4365, Note_on_c, 1, 44, 0
4, 4368, Note_on_c, 1, 46, 82
4, 4413, Note_on_c, 1, 46, 0
4, 4416, Note_on_c, 1, 51, 83
4, 4505, Note_on_c, 1, 51, 0
4, 4656, Note_on_c, 1, 51, 84
4, 4701, Note_on_c, 1, 51, 0
4, 4704, Note_on_c, 1, 53, 84
4, 4749, Note_on_c, 1, 53, 0
4, 4752, Note_on_c, 1, 46, 84
4, 4797, Note_on_c, 1, 46, 0
4, 4824, Control_c, 1, 64, 127
4, 4824, Note_on_c, 1, 51, 84
4, 4847, Note_on_c, 1, 51, 0
4, 4848, Note_on_c, 1, 55, 84
4, 4871, Note_on_c, 1, 55, 0
4, 4872, Note_on_c, 1, 51, 84
4, 4895, Note_on_c, 1, 51, 0
4, 4896, Note_on_c, 1, 58, 84
4, 4919, Note_on_c, 1, 58, 0
4, 4920, Note_on_c, 1, 55, 84
4, 4943, Note_on_c, 1, 55, 0
4, 4944, Note_on_c, 1, 63, 84
4, 4967, Note_on_c, 1, 63, 0
4, 4968, Note_on_c, 1, 58, 84
4, 4991, Note_on_c, 1, 58, 0
4, 4992, Control_c, 1, 64, 0
4, 4992, Note_on_c, 1, 67, 84
4, 5081, Note_on_c, 1, 67, 0
4, 5088, Note_on_c, 1, 65, 84
4, 5133, Note_on_c, 1, 65, 0
4, 5136, Note_on_c, 1, 58, 84
4, 5181, Note_on_c, 1, 58, 0
4, 5184, Note_on_c, 1, 63, 84
4, 5273, Note_on_c, 1, 63, 0
4, 5280, Note_on_c, 1, 65, 84
4, 5325, Note_on_c, 1, 65, 0
4, 5328, Note_on_c, 1, 58, 84
4, 5373, Note_on_c, 1, 58, 0
4, 5376, Note_on_c, 1, 63, 84
4, 5465, Note_on_c, 1, 63, 0
4, 5472, Note_on_c, 1, 65, 84
4, 5517, Note_on_c, 1, 65, 0
4, 5520, Note_on_c, 1, 58, 84
4, 5565, Note_on_c, 1, 58, 0
4, 5568, Note_on_c, 1, 63, 84
4, 5657, Note_on_c, 1, 63, 0
4, 5712, Note_on_c, 1, 63, 75
4, 5757, Note_on_c, 1, 63, 0
4, 5760, Note_on_c, 1, 62, 75
4, 5849, Note_on_c, 1, 62, 0
4, 5856, Note_on_c, 1, 55, 75
4, 5945, Note_on_c, 1, 55, 0
4, 5952, Note_on_c, 1, 60, 75
4, 6041, Note_on_c, 1, 60, 0
4, 6096, Note_on_c, 1, 63, 75
4, 6141, Note_on_c, 1, 63, 0
4, 6144, Note_on_c, 1, 65, 75
4, 6233, Note_on_c, 1, 65, 0
4, 6240, Note_on_c, 1, 53, 75
4, 6329, Note_on_c, 1, 53, 0
4, 6336, Note_on_c, 1, 58, 75
4, 6425, Note_on_c, 1, 58, 0
4, 6432, Note_on_c, 1, 62, 75
4, 6521, Note_on_c, 1, 62, 0
4, 6528, Note_on_c, 1, 63, 75
4, 6573, Note_on_c, 1, 63, 0
4, 6576, Note_on_c, 1, 62, 76
4, 6621, Note_on_c, 1, 62, 0
4, 6624, Note_on_c, 1, 63, 78
4, 6669, Note_on_c, 1, 63, 0
4, 6672, Note_on_c, 1, 64, 79
4, 6717, Note_on_c, 1, 64, 0
4, 6720, Note_on_c, 1, 65, 81
4, 6809, Note_on_c, 1, 65, 0
4, 6864, Note_on_c, 1, 58, 76
4, 6909, Note_on_c, 1, 58, 0
4, 6912, Note_on_c, 1, 63, 77
4, 6957, Note_on_c, 1, 63, 0
4, 6960, Note_on_c, 1, 62, 78
4, 7005, Note_on_c, 1, 62, 0
4, 7008, Note_on_c, 1, 63, 79
4, 7053, Note_on_c, 1, 63, 0
4, 7056, Note_on_c, 1, 64, 80
4, 7101, Note_on_c, 1, 64, 0
4, 7104, Note_on_c, 1, 65, 81
4, 7193, Note_on_c, 1, 65, 0
4, 7296, Note_on_c, 1, 58, 61
4, 7319, Note_on_c, 1, 58, 0
4, 7320, Note_on_c, 1, 65, 61
4, 7343, Note_on_c, 1, 65, 0
4, 7344, Note_on_c, 1, 62, 61
4, 7367, Note_on_c, 1, 62, 0
4, 7368, Note_on_c, 1, 65, 61
4, 7391, Note_on_c, 1, 65, 0
4, 7392, Note_on_c, 1, 58, 61
4, 7415, Note_on_c, 1, 58, 0
4, 7416, Note_on_c, 1, 65, 61
4, 7439, Note_on_c, 1, 65, 0
4, 7440, Note_on_c, 1, 62, 61
4, 7463, Note_on_c, 1, 62, 0
4, 7464, Note_on_c, 1, 65, 61
4, 7487, Note_on_c, 1, 65, 0
4, 7488, Note_on_c, 1, 57, 61
4, 7511, Note_on_c, 1, 57, 0
4, 7512, Note_on_c, 1, 65, 61
4, 7535, Note_on_c, 1, 65, 0
4, 7536, Note_on_c, 1, 60, 61
4, 7559, Note_on_c, 1, 60, 0
4, 7560, Note_on_c, 1, 65, 61
4, 7583, Note_on_c, 1, 65, 0
4, 7584, Note_on_c, 1, 57, 61
4, 7607, Note_on_c, 1, 57, 0
4, 7608, Note_on_c, 1, 65, 61
4, 7631, Note_on_c, 1, 65, 0
4, 7632, Note_on_c, 1, 60, 61
4, 7655, Note_on_c, 1, 60, 0
4, 7656, Note_on_c, 1, 65, 61
4, 7679, Note_on_c, 1, 65, 0
4, 7680, Note_on_c, 1, 57, 61
4, 7703, Note_on_c, 1, 57, 0
4, 7704, Note_on_c, 1, 65, 61
4, 7727, Note_on_c, 1, 65, 0
4, 7728, Note_on_c, 1, 60, 61
4, 7751, Note_on_c, 1, 60, 0
4, 7752, Note_on_c, 1, 65, 61
4, 7775, Note_on_c, 1, 65, 0
4, 7776, Note_on_c, 1, 57, 61
4, 7799, Note_on_c, 1, 57, 0
4, 7800, Note_on_c, 1, 65, 61
4, 7823, Note_on_c, 1, 65, 0
4, 7824, Note_on_c, 1, 60, 61
4, 7847, Note_on_c, 1, 60, 0
4, 7848, Note_on_c, 1, 65, 61
4, 7871, Note_on_c, 1, 65, 0
4, 7872, Note_on_c, 1, 58, 61
4, 7895, Note_on_c, 1, 58, 0
4, 7896, Note_on_c, 1, 65, 61
4, 7919, Note_on_c, 1, 65, 0
4, 7920, Note_on_c, 1, 62, 61
4, 7943, Note_on_c, 1, 62, 0
4, 7944, Note_on_c, 1, 65, 61
4, 7967, Note_on_c, 1, 65, 0
4, 7968, Note_on_c, 1, 58, 61
4, 7991, Note_on_c, 1, 58, 0
4, 7992, Note_on_c, 1, 65, 61
4, 8015, Note_on_c, 1, 65, 0
4, 8016, Note_on_c, 1, 62, 61
4, 8039, Note_on_c, 1, 62, 0
4, 8040, Note_on_c, 1, 65, 61
4, 8063, Note_on_c, 1, 65, 0
4, 8064, Note_on_c, 1, 58, 61
4, 8087, Note_on_c, 1, 58, 0
4, 8088, Note_on_c, 1, 65, 61
4, 8111, Note_on_c, 1, 65, 0
4, 8112, Note_on_c, 1, 62, 61
4, 8135, Note_on_c, 1, 62, 0
4, 8136, Note_on_c, 1, 65, 61
4, 8159, Note_on_c, 1, 65, 0
4, 8160, Note_on_c, 1, 58, 61
4, 8183, Note_on_c, 1, 58, 0
4, 8184, Note_on_c, 1, 65, 61
4, 8207, Note_on_c, 1, 65, 0
4, 8208, Note_on_c, 1, 62, 61
4, 8231, Note_on_c, 1, 62, 0
4, 8232, Note_on_c, 1, 65, 61
4, 8255, Note_on_c, 1, 65, 0
4, 8256, Note_on_c, 1, 58, 61
4, 8279, Note_on_c, 1, 58, 0
4, 8280, Note_on_c, 1, 67, 61
4, 8303, Note_on_c, 1, 67, 0
4, 8304, Note_on_c, 1, 63, 61
4, 8327, Note_on_c, 1, 63, 0
4, 8328, Note_on_c, 1, 67, 61
4, 8351, Note_on_c, 1, 67, 0
4, 8352, Note_on_c, 1, 58, 61
4, 8375, Note_on_c, 1, 58, 0
4, 8376, Note_on_c, 1, 67, 61
4, 8399, Note_on_c, 1, 67, 0
4, 8400, Note_on_c, 1, 63, 61
4, 8423, Note_on_c, 1, 63, 0
4, 8424, Note_on_c, 1, 67, 61
4, 8447, Note_on_c, 1, 67, 0
4, 8448, Note_on_c, 1, 58, 61
4, 8471, Note_on_c, 1, 58, 0
4, 8472, Note_on_c, 1, 65, 61
4, 8495, Note_on_c, 1, 65, 0
4, 8496, Note_on_c, 1, 62, 61
4, 8519, Note_on_c, 1, 62, 0
4, 8520, Note_on_c, 1, 65, 61
4, 8543, Note_on_c, 1, 65, 0
4, 8544, Note_on_c, 1, 58, 61
4, 8567, Note_on_c, 1, 58, 0
4, 8568, Note_on_c, 1, 65, 61
4, 8591, Note_on_c, 1, 65, 0
4, 8592, Note_on_c, 1, 62, 61
4, 8615, Note_on_c, 1, 62, 0
4, 8616, Note_on_c, 1, 65, 61
4, 8639, Note_on_c, 1, 65, 0
4, 8640, Note_on_c, 1, 58, 61
4, 8663, Note_on_c, 1, 58, 0
4, 8664, Note_on_c, 1, 67, 61
4, 8687, Note_on_c, 1, 67, 0
4, 8688, Note_on_c, 1, 61, 61
4, 8711, Note_on_c, 1, 61, 0
4, 8712, Note_on_c, 1, 67, 61
4, 8735, Note_on_c, 1, 67, 0
4, 8736, Note_on_c, 1, 58, 61
4, 8759, Note_on_c, 1, 58, 0
4, 8760, Note_on_c, 1, 67, 61
4, 8783, Note_on_c, 1, 67, 0
4, 8784, Note_on_c, 1, 61, 61
4, 8807, Note_on_c, 1, 61, 0
4, 8808, Note_on_c, 1, 67, 61
4, 8831, Note_on_c, 1, 67, 0
4, 8832, Note_on_c, 1, 58, 61
4, 8855, Note_on_c, 1, 58, 0
4, 8856, Note_on_c, 1, 67, 61
4, 8879, Note_on_c, 1, 67, 0
4, 8880, Note_on_c, 1, 61, 61
4, 8903, Note_on_c, 1, 61, 0
4, 8904, Note_on_c, 1, 67, 61
4, 8927, Note_on_c, 1, 67, 0
4, 8928, Note_on_c, 1, 58, 61
4, 8951, Note_on_c, 1, 58, 0
4, 8952, Note_on_c, 1, 67, 61
4, 8975, Note_on_c, 1, 67, 0
4, 8976, Note_on_c, 1, 61, 61
4, 8999, Note_on_c, 1, 61, 0
4, 9000, Note_on_c, 1, 65, 61
4, 9023, Note_on_c, 1, 65, 0
4, 9024, Note_on_c, 1, 57, 61
4, 9047, Note_on_c, 1, 57, 0
4, 9048, Note_on_c, 1, 65, 61
4, 9071, Note_on_c, 1, 65, 0
4, 9072, Note_on_c, 1, 60, 61
4, 9095, Note_on_c, 1, 60, 0
4, 9096, Note_on_c, 1, 65, 61
4, 9119, Note_on_c, 1, 65, 0
4, 9120, Note_on_c, 1, 57, 61
4, 9143, Note_on_c, 1, 57, 0
4, 9144, Note_on_c, 1, 65, 61
4, 9167, Note_on_c, 1, 65, 0
4, 9168, Note_on_c, 1, 60, 61
4, 9191, Note_on_c, 1, 60, 0
4, 9192, Note_on_c, 1, 65, 61
4, 9215, Note_on_c, 1, 65, 0
4, 9216, Note_on_c, 1, 58, 61
4, 9239, Note_on_c, 1, 58, 0
4, 9240, Note_on_c, 1, 65, 61
4, 9263, Note_on_c, 1, 65, 0
4, 9264, Note_on_c, 1, 62, 61
4, 9287, Note_on_c, 1, 62, 0
4, 9288, Note_on_c, 1, 65, 61
4, 9311, Note_on_c, 1, 65, 0
4, 9312, Note_on_c, 1, 60, 61
4, 9335, Note_on_c, 1, 60, 0
4, 9336, Note_on_c, 1, 65, 61
4, 9359, Note_on_c, 1, 65, 0
4, 9360, Note_on_c, 1, 63, 61
4, 9383, Note_on_c, 1, 63, 0
4, 9384, Note_on_c, 1, 65, 61
4, 9407, Note_on_c, 1, 65, 0
4, 9408, Note_on_c, 1, 62, 61
4, 9431, Note_on_c, 1, 62, 0
4, 9432, Note_on_c, 1, 65, 61
4, 9455, Note_on_c, 1, 65, 0
4, 9456, Note_on_c, 1, 58, 61
4, 9479, Note_on_c, 1, 58, 0
4, 9480, Note_on_c, 1, 65, 61
4, 9503, Note_on_c, 1, 65, 0
4, 9504, Note_on_c, 1, 57, 61
4, 9527, Note_on_c, 1, 57, 0
4, 9528, Note_on_c, 1, 65, 61
4, 9551, Note_on_c, 1, 65, 0
4, 9552, Note_on_c, 1, 60, 61
4, 9575, Note_on_c, 1, 60, 0
4, 9576, Note_on_c, 1, 63, 61
4, 9599, Note_on_c, 1, 63, 0
4, 9600, Note_on_c, 1, 58, 61
4, 9623, Note_on_c, 1, 58, 0
4, 9624, Note_on_c, 1, 65, 61
4, 9647, Note_on_c, 1, 65, 0
4, 9648, Note_on_c, 1, 62, 61
4, 9671, Note_on_c, 1, 62, 0
4, 9672, Note_on_c, 1, 65, 61
4, 9695, Note_on_c, 1, 65, 0
4, 9696, Note_on_c, 1, 60, 61
4, 9719, Note_on_c, 1, 60, 0
4, 9720, Note_on_c, 1, 65, 61
4, 9743, Note_on_c, 1, 65, 0
4, 9744, Note_on_c, 1, 63, 61
4, 9767, Note_on_c, 1, 63, 0
4, 9768, Note_on_c, 1, 65, 61
4, 9791, Note_on_c, 1, 65, 0
4, 9792, Note_on_c, 1, 62, 61
4, 9815, Note_on_c, 1, 62, 0
4, 9816, Note_on_c, 1, 65, 61
4, 9839, Note_on_c, 1, 65, 0
4, 9840, Note_on_c, 1, 58, 61
4, 9863, Note_on_c, 1, 58, 0
4, 9864, Note_on_c, 1, 65, 61
4, 9887, Note_on_c, 1, 65, 0
4, 9888, Note_on_c, 1, 57, 61
4, 9911, Note_on_c, 1, 57, 0
4, 9912, Note_on_c, 1, 65, 61
4, 9935, Note_on_c, 1, 65, 0
4, 9936, Note_on_c, 1, 60, 61
4, 9959, Note_on_c, 1, 60, 0
4, 9960, Note_on_c, 1, 63, 61
4, 9983, Note_on_c, 1, 63, 0
4, 9984, Note_on_c, 1, 58, 75
4, 10073, Note_on_c, 1, 58, 0
4, 10080, Note_on_c, 1, 62, 75
4, 10169, Note_on_c, 1, 62, 0
4, 10176, Note_on_c, 1, 63, 75
4, 10265, Note_on_c, 1, 63, 0
4, 10416, Note_on_c, 1, 62, 75
4, 10461, Note_on_c, 1, 62, 0
4, 10464, Note_on_c, 1, 63, 75
4, 10509, Note_on_c, 1, 63, 0
4, 10512, Note_on_c, 1, 65, 75
4, 10557, Note_on_c, 1, 65, 0
4, 10560, Note_on_c, 1, 58, 75
4, 10649, Note_on_c, 1, 58, 0
4, 10704, Note_on_c, 1, 74, 61
4, 10704, Note_on_c, 1, 70, 61
4, 10749, Note_on_c, 1, 74, 0
4, 10749, Note_on_c, 1, 70, 0
4, 10752, Note_on_c, 1, 72, 61
4, 10752, Note_on_c, 1, 69, 61
4, 10841, Note_on_c, 1, 72, 0
4, 10841, Note_on_c, 1, 69, 0
4, 10848, Note_on_c, 1, 70, 61
4, 10848, Note_on_c, 1, 67, 61
4, 10896, Note_on_c, 1, 70, 0
4, 10896, Note_on_c, 1, 76, 61
4, 10943, Note_on_c, 1, 76, 0
4, 10943, Note_on_c, 1, 67, 0
4, 10944, Note_on_c, 1, 77, 61
4, 10944, Note_on_c, 1, 65, 61
4, 10989, Note_on_c, 1, 77, 0
4, 10989, Note_on_c, 1, 65, 0
4, 10992, Note_on_c, 1, 74, 61
4, 10992, Note_on_c, 1, 67, 61
4, 11037, Note_on_c, 1, 74, 0
4, 11037, Note_on_c, 1, 67, 0
4, 11088, Note_on_c, 1, 70, 61
4, 11088, Note_on_c, 1, 67, 61
4, 11133, Note_on_c, 1, 70, 0
4, 11133, Note_on_c, 1, 67, 0
4, 11136, Note_on_c, 1, 69, 61
4, 11136, Note_on_c, 1, 65, 61
4, 11225, Note_on_c, 1, 69, 0
4, 11225, Note_on_c, 1, 65, 0
4, 11232, Note_on_c, 1, 67, 61
4, 11232, Note_on_c, 1, 64, 61
4, 11280, Note_on_c, 1, 67, 0
4, 11280, Note_on_c, 1, 73, 61
4, 11327, Note_on_c, 1, 73, 0
4, 11327, Note_on_c, 1, 64, 0
4, 11328, Note_on_c, 1, 74, 61
4, 11328, Note_on_c, 1, 62, 61
4, 11373, Note_on_c, 1, 74, 0
4, 11373, Note_on_c, 1, 62, 0
4, 11376, Note_on_c, 1, 70, 61
4, 11376, Note_on_c, 1, 63, 61
4, 11421, Note_on_c, 1, 70, 0
4, 11421, Note_on_c, 1, 63, 0
4, 11472, Note_on_c, 1, 67, 61
4, 11472, Note_on_c, 1, 63, 61
4, 11517, Note_on_c, 1, 67, 0
4, 11517, Note_on_c, 1, 63, 0
4, 11520, Note_on_c, 1, 65, 61
4, 11520, Note_on_c, 1, 62, 61
4, 11609, Note_on_c, 1, 65, 0
4, 11609, Note_on_c, 1, 62, 0
4, 11616, Note_on_c, 1, 63, 61
4, 11616, Note_on_c, 1, 60, 61
4, 11664, Note_on_c, 1, 63, 0
4, 11664, Note_on_c, 1, 69, 61
4, 11711, Note_on_c, 1, 69, 0
4, 11711, Note_on_c, 1, 60, 0
4, 11712, Note_on_c, 1, 70, 61
4, 11712, Note_on_c, 1, 65, 61
4, 11712, Note_on_c, 1, 58, 61
4, 11801, Note_on_c, 1, 70, 0
4, 11801, Note_on_c, 1, 65, 0
4, 11801, Note_on_c, 1, 58, 0
4, 11808, Note_on_c, 1, 69, 61
4, 11808, Note_on_c, 1, 65, 61
4, 11808, Note_on_c, 1, 60, 61
4, 11897, Note_on_c, 1, 69, 0
4, 11897, Note_on_c, 1, 65, 0
4, 11897, Note_on_c, 1, 60, 0
4, 11904, Note_on_c, 1, 70, 61
4, 11904, Note_on_c, 1, 65, 61
4, 11904, Note_on_c, 1, 58, 61
4, 11993, Note_on_c, 1, 70, 0
4, 11993, Note_on_c, 1, 65, 0
4, 11993, Note_on_c, 1, 58, 0
4, 12000, Note_on_c, 1, 69, 61
4, 12000, Note_on_c, 1, 65, 61
4, 12000, Note_on_c, 1, 60, 61
4, 12089, Note_on_c, 1, 69, 0
4, 12089, Note_on_c, 1, 65, 0
4, 12089, Note_on_c, 1, 60, 0
4, 12096, Note_on_c, 1, 58, 61
4, 12119, Note_on_c, 1, 58, 0
4, 12120, Note_on_c, 1, 70, 61
4, 12143, Note_on_c, 1, 70, 0
4, 12144, Note_on_c, 1, 65, 61
4, 12167, Note_on_c, 1, 65, 0
4, 12168, Note_on_c, 1, 70, 61
4, 12191, Note_on_c, 1, 70, 0
4, 12192, Note_on_c, 1, 60, 61
4, 12215, Note_on_c, 1, 60, 0
4, 12216, Note_on_c, 1, 70, 61
4, 12239, Note_on_c, 1, 70, 0
4, 12240, Note_on_c, 1, 65, 61
4, 12263, Note_on_c, 1, 65, 0
4, 12264, Note_on_c, 1, 70, 61
4, 12287, Note_on_c, 1, 70, 0
4, 12288, Note_on_c, 1, 62, 61
4, 12311, Note_on_c, 1, 62, 0
4, 12312, Note_on_c, 1, 70, 61
4, 12335, Note_on_c, 1, 70, 0
4, 12336, Note_on_c, 1, 65, 61
4, 12359, Note_on_c, 1, 65, 0
4, 12360, Note_on_c, 1, 70, 61
4, 12383, Note_on_c, 1, 70, 0
4, 12384, Note_on_c, 1, 62, 61
4, 12407, Note_on_c, 1, 62, 0
4, 12408, Note_on_c, 1, 70, 61
4, 12431, Note_on_c, 1, 70, 0
4, 12432, Note_on_c, 1, 65, 61
4, 12455, Note_on_c, 1, 65, 0
4, 12456, Note_on_c, 1, 70, 61
4, 12479, Note_on_c, 1, 70, 0
4, 12480, Note_on_c, 1, 63, 61
4, 12569, Note_on_c, 1, 63, 0
4, 12720, Note_on_c, 1, 62, 75
4, 12765, Note_on_c, 1, 62, 0
4, 12768, Note_on_c, 1, 63, 75
4, 12813, Note_on_c, 1, 63, 0
4, 12816, Note_on_c, 1, 65, 75
4, 12861, Note_on_c, 1, 65, 0
4, 12864, Note_on_c, 1, 58, 75
4, 12953, Note_on_c, 1, 58, 0
4, 13008, Note_on_c, 1, 62, 61
4, 13008, Note_on_c, 1, 58, 61
4, 13053, Note_on_c, 1, 62, 0
4, 13053, Note_on_c, 1, 58, 0
4, 13056, Note_on_c, 1, 60, 61
4, 13056, Note_on_c, 1, 57, 61
4, 13145, Note_on_c, 1, 60, 0
4, 13145, Note_on_c, 1, 57, 0
4, 13152, Note_on_c, 1, 58, 61
4, 13152, Note_on_c, 1, 55, 61
4, 13200, Note_on_c, 1, 58, 0
4, 13200, Note_on_c, 1, 64, 61
4, 13247, Note_on_c, 1, 64, 0
4, 13247, Note_on_c, 1, 55, 0
4, 13248, Note_on_c, 1, 65, 61
4, 13248, Note_on_c, 1, 53, 61
4, 13293, Note_on_c, 1, 65, 0
4, 13293, Note_on_c, 1, 53, 0
4, 13296, Note_on_c, 1, 62, 61
4, 13296, Note_on_c, 1, 55, 61
4, 13341, Note_on_c, 1, 62, 0
4, 13341, Note_on_c, 1, 55, 0
4, 13392, Note_on_c, 1, 58, 61
4, 13392, Note_on_c, 1, 55, 61
4, 13437, Note_on_c, 1, 58, 0
4, 13437, Note_on_c, 1, 55, 0
4, 13440, Note_on_c, 1, 57, 61
4, 13440, Note_on_c, 1, 53, 61
4, 13529, Note_on_c, 1, 57, 0
4, 13529, Note_on_c, 1, 53, 0
4, 13536, Note_on_c, 1, 55, 61
4, 13536, Note_on_c, 1, 52, 61
4, 13584, Note_on_c, 1, 55, 0
4, 13584, Note_on_c, 1, 61, 61
4, 13631, Note_on_c, 1, 61, 0
4, 13631, Note_on_c, 1, 52, 0
4, 13632, Note_on_c, 1, 62, 61
4, 13632, Note_on_c, 1, 50, 61
4, 13677, Note_on_c, 1, 62, 0
4, 13677, Note_on_c, 1, 50, 0
4, 13680, Note_on_c, 1, 58, 61
4, 13680, Note_on_c, 1, 51, 61
4, 13725, Note_on_c, 1, 58, 0
4, 13725, Note_on_c, 1, 51, 0
4, 13776, Note_on_c, 1, 55, 61
4, 13776, Note_on_c, 1, 51, 61
4, 13821, Note_on_c, 1, 55, 0
4, 13821, Note_on_c, 1, 51, 0
4, 13824, Note_on_c, 1, 53, 61
4, 13824, Note_on_c, 1, 50, 61
4, 13913, Note_on_c, 1, 53, 0
4, 13913, Note_on_c, 1, 50, 0
4, 13920, Note_on_c, 1, 51, 61
4, 13920, Note_on_c, 1, 48, 61
4, 13968, Note_on_c, 1, 51, 0
4, 13968, Note_on_c, 1, 57, 61
4, 14015, Note_on_c, 1, 57, 0
4, 14015, Note_on_c, 1, 48, 0
4, 14016, Note_on_c, 1, 58, 61
4, 14016, Note_on_c, 1, 53, 61
4, 14016, Note_on_c, 1, 46, 61
4, 14105, Note_on_c, 1, 58, 0
4, 14105, Note_on_c, 1, 53, 0
4, 14105, Note_on_c, 1, 46, 0
4, 14112, Note_on_c, 1, 57, 61
4, 14112, Note_on_c, 1, 53, 61
4, 14112, Note_on_c, 1, 48, 61
4, 14201, Note_on_c, 1, 57, 0
4, 14201, Note_on_c, 1, 53, 0
4, 14201, Note_on_c, 1, 48, 0
4, 14208, Note_on_c, 1, 58, 61
4, 14208, Note_on_c, 1, 53, 61
4, 14208, Note_on_c, 1, 46, 61
4, 14297, Note_on_c, 1, 58, 0
4, 14297, Note_on_c, 1, 53, 0
4, 14297, Note_on_c, 1, 46, 0
4, 14304, Note_on_c, 1, 57, 61
4, 14304, Note_on_c, 1, 53, 61
4, 14304, Note_on_c, 1, 48, 61
4, 14393, Note_on_c, 1, 57, 0
4, 14393, Note_on_c, 1, 53, 0
4, 14393, Note_on_c, 1, 48, 0
4, 14400, Note_on_c, 1, 46, 61
4, 14423, Note_on_c, 1, 46, 0
4, 14424, Note_on_c, 1, 58, 61
4, 14447, Note_on_c, 1, 58, 0
4, 14448, Note_on_c, 1, 53, 61
4, 14471, Note_on_c, 1, 53, 0
4, 14472, Note_on_c, 1, 58, 61
4, 14495, Note_on_c, 1, 58, 0
4, 14496, Note_on_c, 1, 48, 61
4, 14519, Note_on_c, 1, 48, 0
4, 14520, Note_on_c, 1, 58, 61
4, 14543, Note_on_c, 1, 58, 0
4, 14544, Note_on_c, 1, 53, 61
4, 14567, Note_on_c, 1, 53, 0
4, 14568, Note_on_c, 1, 58, 61
4, 14591, Note_on_c, 1, 58, 0
4, 14592, Note_on_c, 1, 50, 61
4, 14615, Note_on_c, 1, 50, 0
4, 14616, Note_on_c, 1, 58, 61
4, 14639, Note_on_c, 1, 58, 0
4, 14640, Note_on_c, 1, 53, 61
4, 14663, Note_on_c, 1, 53, 0
4, 14664, Note_on_c, 1, 58, 61
4, 14687, Note_on_c, 1, 58, 0
4, 14688, Note_on_c, 1, 50, 61
4, 14711, Note_on_c, 1, 50, 0
4, 14712, Note_on_c, 1, 58, 61
4, 14735, Note_on_c, 1, 58, 0
4, 14736, Note_on_c, 1, 53, 61
4, 14759, Note_on_c, 1, 53, 0
4, 14760, Note_on_c, 1, 58, 61
4, 14783, Note_on_c, 1, 58, 0
4, 14784, Note_on_c, 1, 51, 61
4, 14807, Note_on_c, 1, 51, 0
4, 14808, Note_on_c, 1, 58, 61
4, 14831, Note_on_c, 1, 58, 0
4, 14832, Note_on_c, 1, 55, 61
4, 14855, Note_on_c, 1, 55, 0
4, 14856, Note_on_c, 1, 58, 61
4, 14879, Note_on_c, 1, 58, 0
4, 14880, Note_on_c, 1, 51, 61
4, 14903, Note_on_c, 1, 51, 0
4, 14904, Note_on_c, 1, 58, 61
4, 14927, Note_on_c, 1, 58, 0
4, 14928, Note_on_c, 1, 50, 61
4, 14951, Note_on_c, 1, 50, 0
4, 14952, Note_on_c, 1, 58, 61
4, 14975, Note_on_c, 1, 58, 0
4, 14976, Note_on_c, 1, 51, 61
4, 14999, Note_on_c, 1, 51, 0
4, 15000, Note_on_c, 1, 58, 62
4, 15023, Note_on_c, 1, 58, 0
4, 15024, Note_on_c, 1, 50, 63
4, 15047, Note_on_c, 1, 50, 0
4, 15048, Note_on_c, 1, 58, 65
4, 15071, Note_on_c, 1, 58, 0
4, 15072, Note_on_c, 1, 51, 66
4, 15095, Note_on_c, 1, 51, 0
4, 15096, Note_on_c, 1, 58, 67
4, 15119, Note_on_c, 1, 58, 0
4, 15120, Note_on_c, 1, 50, 69
4, 15143, Note_on_c, 1, 50, 0
4, 15144, Note_on_c, 1, 58, 70
4, 15167, Note_on_c, 1, 58, 0
4, 15168, Control_c, 1, 64, 127
4, 15168, Note_on_c, 1, 51, 71
4, 15191, Note_on_c, 1, 51, 0
4, 15192, Note_on_c, 1, 58, 73
4, 15215, Note_on_c, 1, 58, 0
4, 15216, Note_on_c, 1, 55, 74
4, 15239, Note_on_c, 1, 55, 0
4, 15240, Control_c, 1, 64, 0
4, 15240, Note_on_c, 1, 58, 75
4, 15263, Note_on_c, 1, 58, 0
4, 15264, Control_c, 1, 64, 127
4, 15264, Note_on_c, 1, 51, 77
4, 15287, Note_on_c, 1, 51, 0
4, 15288, Note_on_c, 1, 59, 78
4, 15311, Note_on_c, 1, 59, 0
4, 15312, Note_on_c, 1, 55, 79
4, 15335, Note_on_c, 1, 55, 0
4, 15336, Note_on_c, 1, 59, 81
4, 15359, Note_on_c, 1, 59, 0
4, 15360, Control_c, 1, 64, 0
4, 15360, Control_c, 1, 64, 127
4, 15360, Note_on_c, 1, 51, 82
4, 15383, Note_on_c, 1, 51, 0
4, 15384, Note_on_c, 1, 60, 84
4, 15407, Note_on_c, 1, 60, 0
4, 15408, Note_on_c, 1, 55, 84
4, 15431, Note_on_c, 1, 55, 0
4, 15432, Note_on_c, 1, 60, 84
4, 15455, Note_on_c, 1, 60, 0
4, 15456, Note_on_c, 1, 51, 84
4, 15479, Note_on_c, 1, 51, 0
4, 15480, Note_on_c, 1, 60, 82
4, 15503, Note_on_c, 1, 60, 0
4, 15504, Note_on_c, 1, 55, 80
4, 15527, Note_on_c, 1, 55, 0
4, 15528, Control_c, 1, 64, 0
4, 15528, Note_on_c, 1, 60, 78
4, 15551, Note_on_c, 1, 60, 0
4, 15552, Note_on_c, 1, 53, 76
4, 15575, Note_on_c, 1, 53, 0
4, 15576, Note_on_c, 1, 62, 74
4, 15599, Note_on_c, 1, 62, 0
4, 15600, Note_on_c, 1, 58, 72
4, 15623, Note_on_c, 1, 58, 0
4, 15624, Note_on_c, 1, 62, 70
4, 15647, Note_on_c, 1, 62, 0
4, 15648, Note_on_c, 1, 53, 68
4, 15671, Note_on_c, 1, 53, 0
4, 15672, Note_on_c, 1, 62, 66
4, 15695, Note_on_c, 1, 62, 0
4, 15696, Note_on_c, 1, 58, 64
4, 15719, Note_on_c, 1, 58, 0
4, 15720, Note_on_c, 1, 62, 62
4, 15743, Note_on_c, 1, 62, 0
4, 15744, Note_on_c, 1, 53, 61
4, 15767, Note_on_c, 1, 53, 0
4, 15768, Note_on_c, 1, 62, 61
4, 15791, Note_on_c, 1, 62, 0
4, 15792, Note_on_c, 1, 58, 61
4, 15815, Note_on_c, 1, 58, 0
4, 15816, Note_on_c, 1, 62, 61
4, 15839, Note_on_c, 1, 62, 0
4, 15840, Note_on_c, 1, 53, 61
4, 15863, Note_on_c, 1, 53, 0
4, 15864, Note_on_c, 1, 62, 61
4, 15887, Note_on_c, 1, 62, 0
4, 15888, Note_on_c, 1, 58, 61
4, 15911, Note_on_c, 1, 58, 0
4, 15912, Note_on_c, 1, 62, 61
4, 15935, Note_on_c, 1, 62, 0
4, 15936, Note_on_c, 1, 53, 61
4, 15959, Note_on_c, 1, 53, 0
4, 15960, Note_on_c, 1, 62, 61
4, 15983, Note_on_c, 1, 62, 0
4, 15984, Note_on_c, 1, 58, 61
4, 16007, Note_on_c, 1, 58, 0
4, 16008, Note_on_c, 1, 62, 61
4, 16031, Note_on_c, 1, 62, 0
4, 16032, Note_on_c, 1, 53, 61
4, 16055, Note_on_c, 1, 53, 0
4, 16056, Note_on_c, 1, 62, 61
4, 16079, Note_on_c, 1, 62, 0
4, 16080, Note_on_c, 1, 58, 61
4, 16103, Note_on_c, 1, 58, 0
4, 16104, Note_on_c, 1, 62, 61
4, 16127, Note_on_c, 1, 62, 0
4, 16128, Note_on_c, 1, 53, 61
4, 16151, Note_on_c, 1, 53, 0
4, 16152, Note_on_c, 1, 63, 61
4, 16175, Note_on_c, 1, 63, 0
4, 16176, Note_on_c, 1, 60, 61
4, 16199, Note_on_c, 1, 60, 0
4, 16200, Note_on_c, 1, 63, 61
4, 16223, Note_on_c, 1, 63, 0
4, 16224, Note_on_c, 1, 53, 61
4, 16247, Note_on_c, 1, 53, 0
4, 16248, Note_on_c, 1, 63, 61
4, 16271, Note_on_c, 1, 63, 0
4, 16272, Note_on_c, 1, 60, 61
4, 16295, Note_on_c, 1, 60, 0
4, 16296, Note_on_c, 1, 63, 61
4, 16319, Note_on_c, 1, 63, 0
4, 16320, Note_on_c, 1, 62, 61
4, 16320, Note_on_c, 1, 58, 61
4, 16409, Note_on_c, 1, 62, 0
4, 16409, Note_on_c, 1, 58, 0
4, 16416, Note_on_c, 1, 58, 75
4, 16416, Note_on_c, 1, 50, 75
4, 16505, Note_on_c, 1, 58, 0
4, 16505, Note_on_c, 1, 50, 0
4, 16512, Note_on_c, 1, 58, 75
4, 16512, Note_on_c, 1, 51, 75
4, 16601, Note_on_c, 1, 58, 0
4, 16601, Note_on_c, 1, 51, 0
4, 16608, Note_on_c, 1, 57, 75
4, 16608, Note_on_c, 1, 53, 75
4, 16697, Note_on_c, 1, 57, 0
4, 16697, Note_on_c, 1, 53, 0
4, 16704, Note_on_c, 1, 58, 75
4, 16704, Note_on_c, 1, 46, 75
4, 16793, Note_on_c, 1, 58, 0
4, 16793, Note_on_c, 1, 46, 0
4, 16800, Note_on_c, 1, 58, 75
4, 16800, Note_on_c, 1, 50, 75
4, 16889, Note_on_c, 1, 58, 0
4, 16889, Note_on_c, 1, 50, 0
4, 16896, Note_on_c, 1, 58, 75
4, 16896, Note_on_c, 1, 51, 75
4, 16985, Note_on_c, 1, 58, 0
4, 16985, Note_on_c, 1, 51, 0
4, 16992, Note_on_c, 1, 53, 75
4, 16992, Note_on_c, 1, 41, 75
4, 17081, Note_on_c, 1, 53, 0
4, 17081, Note_on_c, 1, 41, 0
4, 17088, Note_on_c, 1, 46, 75
4, 17088, Note_on_c, 1, 34, 75
4, 17182, Note_on_c, 1, 46, 0
4, 17182, Note_on_c, 1, 34, 0
4, 17328, Note_on_c, 1, 51, 75
4, 17348, Note_on_c, 1, 51, 0
4, 17376, Note_on_c, 1, 55, 75
4, 17465, Note_on_c, 1, 55, 0
4, 17520, Note_on_c, 1, 51, 75
4, 17554, Note_on_c, 1, 51, 0
4, 17556, Note_on_c, 1, 53, 75
4, 17568, Note_on_c, 1, 53, 0
4, 17568, Note_on_c, 1, 55, 75
4, 17657, Note_on_c, 1, 55, 0
4, 17712, Note_on_c, 1, 63, 75
4, 17746, Note_on_c, 1, 63, 0
4, 17748, Note_on_c, 1, 65, 75
4, 17760, Note_on_c, 1, 65, 0
4, 17760, Note_on_c, 1, 67, 75
4, 17780, Note_on_c, 1, 67, 0
4, 17808, Note_on_c, 1, 63, 75
4, 17842, Note_on_c, 1, 63, 0
4, 17844, Note_on_c, 1, 65, 75
4, 17856, Note_on_c, 1, 65, 0
4, 17856, Note_on_c, 1, 67, 75
4, 17895, Note_on_c, 1, 67, 0
4, 18096, Note_on_c, 1, 51, 75
4, 18116, Note_on_c, 1, 51, 0
4, 18144, Note_on_c, 1, 55, 75
4, 18233, Note_on_c, 1, 55, 0
4, 18288, Note_on_c, 1, 44, 75
4, 18308, Note_on_c, 1, 44, 0
4, 18336, Note_on_c, 1, 56, 75
4, 18381, Note_on_c, 1, 56, 0
4, 18384, Note_on_c, 1, 53, 75
4, 18429, Note_on_c, 1, 53, 0
4, 18432, Note_on_c, 1, 58, 75
4, 18521, Note_on_c, 1, 58, 0
4, 18528, Note_on_c, 1, 46, 75
4, 18573, Note_on_c, 1, 46, 0
4, 18576, Note_on_c, 1, 50, 75
4, 18621, Note_on_c, 1, 50, 0
4, 18624, Note_on_c, 1, 51, 75
4, 18669, Note_on_c, 1, 51, 0
4, 18672, Note_on_c, 1, 46, 75
4, 18717, Note_on_c, 1, 46, 0
4, 18720, Note_on_c, 1, 51, 75
4, 18809, Note_on_c, 1, 51, 0
4, 18864, Note_on_c, 1, 51, 75
4, 18884, Note_on_c, 1, 51, 0
4, 18912, Note_on_c, 1, 55, 75
4, 19001, Note_on_c, 1, 55, 0
4, 19056, Note_on_c, 1, 51, 75
4, 19090, Note_on_c, 1, 51, 0
4, 19092, Note_on_c, 1, 53, 75
4, 19104, Note_on_c, 1, 53, 0
4, 19104, Note_on_c, 1, 55, 75
4, 19193, Note_on_c, 1, 55, 0
4, 19248, Note_on_c, 1, 63, 75
4, 19260, Note_on_c, 1, 63, 0
4, 19260, Note_on_c, 1, 65, 75
4, 19272, Note_on_c, 1, 65, 0
4, 19272, Note_on_c, 1, 63, 75
4, 19284, Note_on_c, 1, 63, 0
4, 19284, Note_on_c, 1, 65, 75
4, 19296, Note_on_c, 1, 65, 0
4, 19296, Note_on_c, 1, 67, 75
4, 19316, Note_on_c, 1, 67, 0
4, 19344, Note_on_c, 1, 63, 75
4, 19356, Note_on_c, 1, 63, 0
4, 19356, Note_on_c, 1, 65, 75
4, 19368, Note_on_c, 1, 65, 0
4, 19368, Note_on_c, 1, 63, 75
4, 19380, Note_on_c, 1, 63, 0
4, 19380, Note_on_c, 1, 65, 75
4, 19392, Note_on_c, 1, 65, 0
4, 19392, Note_on_c, 1, 67, 75
4, 19431, Note_on_c, 1, 67, 0
4, 19632, Note_on_c, 1, 51, 75
4, 19652, Note_on_c, 1, 51, 0
4, 19680, Note_on_c, 1, 55, 75
4, 19769, Note_on_c, 1, 55, 0
4, 19824, Note_on_c, 1, 56, 75
4, 19844, Note_on_c, 1, 56, 0
4, 19872, Note_on_c, 1, 44, 75
4, 19961, Note_on_c, 1, 44, 0
4, 20016, Note_on_c, 1, 53, 75
4, 20036, Note_on_c, 1, 53, 0
4, 20064, Note_on_c, 1, 56, 75
4, 20153, Note_on_c, 1, 56, 0
4, 20208, Note_on_c, 1, 58, 75
4, 20228, Note_on_c, 1, 58, 0
4, 20256, Note_on_c, 1, 46, 75
4, 20345, Note_on_c, 1, 46, 0
4, 20400, Note_on_c, 1, 55, 75
4, 20420, Note_on_c, 1, 55, 0
4, 20448, Note_on_c, 1, 58, 75
4, 20537, Note_on_c, 1, 58, 0
4, 20592, Note_on_c, 1, 60, 77
4, 20612, Note_on_c, 1, 60, 0
4, 20640, Note_on_c, 1, 48, 77
4, 20729, Note_on_c, 1, 48, 0
4, 20784, Note_on_c, 1, 60, 78
4, 20804, Note_on_c, 1, 60, 0
4, 20832, Note_on_c, 1, 58, 79
4, 20973, Note_on_c, 1, 58, 0
4, 20976, Note_on_c, 1, 56, 80
4, 21065, Note_on_c, 1, 56, 0
4, 21072, Note_on_c, 1, 55, 81
4, 21117, Note_on_c, 1, 55, 0
4, 21120, Note_on_c, 1, 50, 81
4, 21165, Note_on_c, 1, 50, 0
4, 21168, Note_on_c, 1, 51, 81
4, 21213, Note_on_c, 1, 51, 0
4, 21216, Note_on_c, 1, 44, 82
4, 21261, Note_on_c, 1, 44, 0
4, 21264, Note_on_c, 1, 46, 82
4, 21309, Note_on_c, 1, 46, 0
4, 21312, Note_on_c, 1, 51, 83
4, 21401, Note_on_c, 1, 51, 0
4, 21552, Note_on_c, 1, 51, 84
4, 21597, Note_on_c, 1, 51, 0
4, 21600, Note_on_c, 1, 53, 84
4, 21645, Note_on_c, 1, 53, 0
4, 21648, Note_on_c, 1, 46, 84
4, 21693, Note_on_c, 1, 46, 0
4, 21720, Control_c, 1, 64, 127
4, 21720, Note_on_c, 1, 51, 84
4, 21743, Note_on_c, 1, 51, 0
4, 21744, Note_on_c, 1, 55, 84
4, 21767, Note_on_c, 1, 55, 0
4, 21768, Note_on_c, 1, 51, 84
4, 21791, Note_on_c, 1, 51, 0
4, 21792, Note_on_c, 1, 58, 84
4, 21815, Note_on_c, 1, 58, 0
4, 21816, Note_on_c, 1, 55, 84
4, 21839, Note_on_c, 1, 55, 0
4, 21840, Note_on_c, 1, 63, 84
4, 21863, Note_on_c, 1, 63, 0
4, 21864, Note_on_c, 1, 58, 84
4, 21887, Note_on_c, 1, 58, 0
4, 21888, Control_c, 1, 64, 0
4, 21888, Note_on_c, 1, 67, 84
4, 21977, Note_on_c, 1, 67, 0
4, 21984, Note_on_c, 1, 65, 84
4, 22029, Note_on_c, 1, 65, 0
4, 22032, Note_on_c, 1, 58, 84
4, 22077, Note_on_c, 1, 58, 0
4, 22080, Note_on_c, 1, 63, 84
4, 22169, Note_on_c, 1, 63, 0
4, 22176, Note_on_c, 1, 65, 84
4, 22221, Note_on_c, 1, 65, 0
4, 22224, Note_on_c, 1, 58, 84
4, 22269, Note_on_c, 1, 58, 0
4, 22272, Note_on_c, 1, 63, 84
4, 22361, Note_on_c, 1, 63, 0
4, 22368, Note_on_c, 1, 65, 84
4, 22413, Note_on_c, 1, 65, 0
4, 22416, Note_on_c, 1, 58, 84
4, 22461, Note_on_c, 1, 58, 0
4, 22464, Note_on_c, 1, 63, 84
4, 22553, Note_on_c, 1, 63, 0
4, 22608, Note_on_c, 1, 63, 75
4, 22653, Note_on_c, 1, 63, 0
4, 22656, Note_on_c, 1, 62, 75
4, 22745, Note_on_c, 1, 62, 0
4, 22752, Note_on_c, 1, 55, 75
4, 22841, Note_on_c, 1, 55, 0
4, 22848, Note_on_c, 1, 60, 75
4, 22937, Note_on_c, 1, 60, 0
4, 22992, Note_on_c, 1, 63, 75
4, 23037, Note_on_c, 1, 63, 0
4, 23040, Note_on_c, 1, 65, 75
4, 23129, Note_on_c, 1, 65, 0
4, 23136, Note_on_c, 1, 53, 75
4, 23225, Note_on_c, 1, 53, 0
4, 23232, Note_on_c, 1, 58, 75
4, 23321, Note_on_c, 1, 58, 0
4, 23328, Note_on_c, 1, 62, 75
4, 23417, Note_on_c, 1, 62, 0
4, 23424, Note_on_c, 1, 63, 75
4, 23469, Note_on_c, 1, 63, 0
4, 23472, Note_on_c, 1, 62, 76
4, 23517, Note_on_c, 1, 62, 0
4, 23520, Note_on_c, 1, 63, 78
4, 23565, Note_on_c, 1, 63, 0
4, 23568, Note_on_c, 1, 64, 79
4, 23613, Note_on_c, 1, 64, 0
4, 23616, Note_on_c, 1, 65, 81
4, 23705, Note_on_c, 1, 65, 0
4, 23760, Note_on_c, 1, 58, 76
4, 23805, Note_on_c, 1, 58, 0
4, 23808, Note_on_c, 1, 63, 77
4, 23853, Note_on_c, 1, 63, 0
4, 23856, Note_on_c, 1, 62, 78
4, 23901, Note_on_c, 1, 62, 0
4, 23904, Note_on_c, 1, 63, 79
4, 23949, Note_on_c, 1, 63, 0
4, 23952, Note_on_c, 1, 64, 80
4, 23997, Note_on_c, 1, 64, 0
4, 24000, Note_on_c, 1, 65, 81
4, 24089, Note_on_c, 1, 65, 0
4, 24192, Note_on_c, 1, 58, 61
4, 24215, Note_on_c, 1, 58, 0
4, 24216, Note_on_c, 1, 65, 61
4, 24239, Note_on_c, 1, 65, 0
4, 24240, Note_on_c, 1, 62, 61
4, 24263, Note_on_c, 1, 62, 0
4, 24264, Note_on_c, 1, 65, 61
4, 24287, Note_on_c, 1, 65, 0
4, 24288, Note_on_c, 1, 58, 61
4, 24311, Note_on_c, 1, 58, 0
4, 24312, Note_on_c, 1, 65, 61
4, 24335, Note_on_c, 1, 65, 0
4, 24336, Note_on_c, 1, 62, 61
4, 24359, Note_on_c, 1, 62, 0
4, 24360, Note_on_c, 1, 65, 61
4, 24383, Note_on_c, 1, 65, 0
4, 24384, Note_on_c, 1, 57, 61
4, 24407, Note_on_c, 1, 57, 0
4, 24408, Note_on_c, 1, 65, 61
4, 24431, Note_on_c, 1, 65, 0
4, 24432, Note_on_c, 1, 60, 61
4, 24455, Note_on_c, 1, 60, 0
4, 24456, Note_on_c, 1, 65, 61
4, 24479, Note_on_c, 1, 65, 0
4, 24480, Note_on_c, 1, 57, 61
4, 24503, Note_on_c, 1, 57, 0
4, 24504, Note_on_c, 1, 65, 61
4, 24527, Note_on_c, 1, 65, 0
4, 24528, Note_on_c, 1, 60, 61
4, 24551, Note_on_c, 1, 60, 0
4, 24552, Note_on_c, 1, 65, 61
4, 24575, Note_on_c, 1, 65, 0
4, 24576, Note_on_c, 1, 57, 61
4, 24599, Note_on_c, 1, 57, 0
4, 24600, Note_on_c, 1, 65, 61
4, 24623, Note_on_c, 1, 65, 0
4, 24624, Note_on_c, 1, 60, 61
4, 24647, Note_on_c, 1, 60, 0
4, 24648, Note_on_c, 1, 65, 61
4, 24671, Note_on_c, 1, 65, 0
4, 24672, Note_on_c, 1, 57, 61
4, 24695, Note_on_c, 1, 57, 0
4, 24696, Note_on_c, 1, 65, 61
4, 24719, Note_on_c, 1, 65, 0
4, 24720, Note_on_c, 1, 60, 61
4, 24743, Note_on_c, 1, 60, 0
4, 24744, Note_on_c, 1, 65, 61
4, 24767, Note_on_c, 1, 65, 0
4, 24768, Note_on_c, 1, 58, 61
4, 24791, Note_on_c, 1, 58, 0
4, 24792, Note_on_c, 1, 65, 61
4, 24815, Note_on_c, 1, 65, 0
4, 24816, Note_on_c, 1, 62, 61
4, 24839, Note_on_c, 1, 62, 0
4, 24840, Note_on_c, 1, 65, 61
4, 24863, Note_on_c, 1, 65, 0
4, 24864, Note_on_c, 1, 58, 61
4, 24887, Note_on_c, 1, 58, 0
4, 24888, Note_on_c, 1, 65, 61
4, 24911, Note_on_c, 1, 65, 0
4, 24912, Note_on_c, 1, 62, 61
4, 24935, Note_on_c, 1, 62, 0
4, 24936, Note_on_c, 1, 65, 61
4, 24959, Note_on_c, 1, 65, 0
4, 24960, Note_on_c, 1, 58, 61
4, 24983, Note_on_c, 1, 58, 0
4, 24984, Note_on_c, 1, 65, 61
4, 25007, Note_on_c, 1, 65, 0
4, 25008, Note_on_c, 1, 62, 61
4, 25031, Note_on_c, 1, 62, 0
4, 25032, Note_on_c, 1, 65, 61
4, 25055, Note_on_c, 1, 65, 0
4, 25056, Note_on_c, 1, 58, 61
4, 25079, Note_on_c, 1, 58, 0
4, 25080, Note_on_c, 1, 65, 61
4, 25103, Note_on_c, 1, 65, 0
4, 25104, Note_on_c, 1, 62, 61
4, 25127, Note_on_c, 1, 62, 0
4, 25128, Note_on_c, 1, 65, 61
4, 25151, Note_on_c, 1, 65, 0
4, 25152, Note_on_c, 1, 58, 61
4, 25175, Note_on_c, 1, 58, 0
4, 25176, Note_on_c, 1, 67, 61
4, 25199, Note_on_c, 1, 67, 0
4, 25200, Note_on_c, 1, 63, 61
4, 25223, Note_on_c, 1, 63, 0
4, 25224, Note_on_c, 1, 67, 61
4, 25247, Note_on_c, 1, 67, 0
4, 25248, Note_on_c, 1, 58, 61
4, 25271, Note_on_c, 1, 58, 0
4, 25272, Note_on_c, 1, 67, 61
4, 25295, Note_on_c, 1, 67, 0
4, 25296, Note_on_c, 1, 63, 61
4, 25319, Note_on_c, 1, 63, 0
4, 25320, Note_on_c, 1, 67, 61
4, 25343, Note_on_c, 1, 67, 0
4, 25344, Note_on_c, 1, 58, 61
4, 25367, Note_on_c, 1, 58, 0
4, 25368, Note_on_c, 1, 65, 61
4, 25391, Note_on_c, 1, 65, 0
4, 25392, Note_on_c, 1, 62, 61
4, 25415, Note_on_c, 1, 62, 0
4, 25416, Note_on_c, 1, 65, 61
4, 25439, Note_on_c, 1, 65, 0
4, 25440, Note_on_c, 1, 58, 61
4, 25463, Note_on_c, 1, 58, 0
4, 25464, Note_on_c, 1, 65, 61
4, 25487, Note_on_c, 1, 65, 0
4, 25488, Note_on_c, 1, 62, 61
4, 25511, Note_on_c, 1, 62, 0
4, 25512, Note_on_c, 1, 65, 61
4, 25535, Note_on_c, 1, 65, 0
4, 25536, Note_on_c, 1, 58, 61
4, 25559, Note_on_c, 1, 58, 0
4, 25560, Note_on_c, 1, 67, 61
4, 25583, Note_on_c, 1, 67, 0
4, 25584, Note_on_c, 1, 61, 61
4, 25607, Note_on_c, 1, 61, 0
4, 25608, Note_on_c, 1, 67, 61
4, 25631, Note_on_c, 1, 67, 0
4, 25632, Note_on_c, 1, 58, 61
4, 25655, Note_on_c, 1, 58, 0
4, 25656, Note_on_c, 1, 67, 61
4, 25679, Note_on_c, 1, 67, 0
4, 25680, Note_on_c, 1, 61, 61
4, 25703, Note_on_c, 1, 61, 0
4, 25704, Note_on_c, 1, 67, 61
4, 25727, Note_on_c, 1, 67, 0
4, 25728, Note_on_c, 1, 58, 61
4, 25751, Note_on_c, 1, 58, 0
4, 25752, Note_on_c, 1, 67, 61
4, 25775, Note_on_c, 1, 67, 0
4, 25776, Note_on_c, 1, 61, 61
4, 25799, Note_on_c, 1, 61, 0
4, 25800, Note_on_c, 1, 67, 61
4, 25823, Note_on_c, 1, 67, 0
4, 25824, Note_on_c, 1, 58, 61
4, 25847, Note_on_c, 1, 58, 0
4, 25848, Note_on_c, 1, 67, 61
4, 25871, Note_on_c, 1, 67, 0
4, 25872, Note_on_c, 1, 61, 61
4, 25895, Note_on_c, 1, 61, 0
4, 25896, Note_on_c, 1, 65, 61
4, 25919, Note_on_c, 1, 65, 0
4, 25920, Note_on_c, 1, 57, 61
4, 25943, Note_on_c, 1, 57, 0
4, 25944, Note_on_c, 1, 65, 61
4, 25967, Note_on_c, 1, 65, 0
4, 25968, Note_on_c, 1, 60, 61
4, 25991, Note_on_c, 1, 60, 0
4, 25992, Note_on_c, 1, 65, 61
4, 26015, Note_on_c, 1, 65, 0
4, 26016, Note_on_c, 1, 57, 61
4, 26039, Note_on_c, 1, 57, 0
4, 26040, Note_on_c, 1, 65, 61
4, 26063, Note_on_c, 1, 65, 0
4, 26064, Note_on_c, 1, 60, 61
4, 26087, Note_on_c, 1, 60, 0
4, 26088, Note_on_c, 1, 65, 61
4, 26111, Note_on_c, 1, 65, 0
4, 26112, Note_on_c, 1, 58, 61
4, 26135, Note_on_c, 1, 58, 0
4, 26136, Note_on_c, 1, 65, 61
4, 26159, Note_on_c, 1, 65, 0
4, 26160, Note_on_c, 1, 62, 61
4, 26183, Note_on_c, 1, 62, 0
4, 26184, Note_on_c, 1, 65, 61
4, 26207, Note_on_c, 1, 65, 0
4, 26208, Note_on_c, 1, 60, 61
4, 26231, Note_on_c, 1, 60, 0
4, 26232, Note_on_c, 1, 65, 61
4, 26255, Note_on_c, 1, 65, 0
4, 26256, Note_on_c, 1, 63, 61
4, 26279, Note_on_c, 1, 63, 0
4, 26280, Note_on_c, 1, 65, 61
4, 26303, Note_on_c, 1, 65, 0
4, 26304, Note_on_c, 1, 62, 61
4, 26327, Note_on_c, 1, 62, 0
4, 26328, Note_on_c, 1, 65, 61
4, 26351, Note_on_c, 1, 65, 0
4, 26352, Note_on_c, 1, 58, 61
4, 26375, Note_on_c, 1, 58, 0
4, 26376, Note_on_c, 1, 65, 61
4, 26399, Note_on_c, 1, 65, 0
4, 26400, Note_on_c, 1, 57, 61
4, 26423, Note_on_c, 1, 57, 0
4, 26424, Note_on_c, 1, 65, 61
4, 26447, Note_on_c, 1, 65, 0
4, 26448, Note_on_c, 1, 60, 61
4, 26471, Note_on_c, 1, 60, 0
4, 26472, Note_on_c, 1, 63, 61
4, 26495, Note_on_c, 1, 63, 0
4, 26496, Note_on_c, 1, 58, 61
4, 26519, Note_on_c, 1, 58, 0
4, 26520, Note_on_c, 1, 65, 61
4, 26543, Note_on_c, 1, 65, 0
4, 26544, Note_on_c, 1, 62, 61
4, 26567, Note_on_c, 1, 62, 0
4, 26568, Note_on_c, 1, 65, 61
4, 26591, Note_on_c, 1, 65, 0
4, 26592, Note_on_c, 1, 60, 61
4, 26615, Note_on_c, 1, 60, 0
4, 26616, Note_on_c, 1, 65, 61
4, 26639, Note_on_c, 1, 65, 0
4, 26640, Note_on_c, 1, 63, 61
4, 26663, Note_on_c, 1, 63, 0
4, 26664, Note_on_c, 1, 65, 61
4, 26687, Note_on_c, 1, 65, 0
4, 26688, Note_on_c, 1, 62, 61
4, 26711, Note_on_c, 1, 62, 0
4, 26712, Note_on_c, 1, 65, 61
4, 26735, Note_on_c, 1, 65, 0
4, 26736, Note_on_c, 1, 58, 61
4, 26759, Note_on_c, 1, 58, 0
4, 26760, Note_on_c, 1, 65, 61
4, 26783, Note_on_c, 1, 65, 0
4, 26784, Note_on_c, 1, 57, 61
4, 26807, Note_on_c, 1, 57, 0
4, 26808, Note_on_c, 1, 65, 61
4, 26831, Note_on_c, 1, 65, 0
4, 26832, Note_on_c, 1, 60, 61
4, 26855, Note_on_c, 1, 60, 0
4, 26856, Note_on_c, 1, 63, 61
4, 26879, Note_on_c, 1, 63, 0
4, 26880, Note_on_c, 1, 58, 75
4, 26969, Note_on_c, 1, 58, 0
4, 26976, Note_on_c, 1, 62, 75
4, 27065, Note_on_c, 1, 62, 0
4, 27072, Note_on_c, 1, 63, 75
4, 27161, Note_on_c, 1, 63, 0
4, 27312, Note_on_c, 1, 62, 75
4, 27357, Note_on_c, 1, 62, 0
4, 27360, Note_on_c, 1, 63, 75
4, 27405, Note_on_c, 1, 63, 0
4, 27408, Note_on_c, 1, 65, 75
4, 27453, Note_on_c, 1, 65, 0
4, 27456, Note_on_c, 1, 58, 75
4, 27545, Note_on_c, 1, 58, 0
4, 27600, Note_on_c, 1, 74, 61
4, 27600, Note_on_c, 1, 70, 61
4, 27645, Note_on_c, 1, 74, 0
4, 27645, Note_on_c, 1, 70, 0
4, 27648, Note_on_c, 1, 72, 61
4, 27648, Note_on_c, 1, 69, 61
4, 27737, Note_on_c, 1, 72, 0
4, 27737, Note_on_c, 1, 69, 0
4, 27744, Note_on_c, 1, 70, 61
4, 27744, Note_on_c, 1, 67, 61
4, 27792, Note_on_c, 1, 70, 0
4, 27792, Note_on_c, 1, 76, 61
4, 27839, Note_on_c, 1, 76, 0
4, 27839, Note_on_c, 1, 67, 0
4, 27840, Note_on_c, 1, 77, 61
4, 27840, Note_on_c, 1, 65, 61
4, 27885, Note_on_c, 1, 77, 0
4, 27885, Note_on_c, 1, 65, 0
4, 27888, Note_on_c, 1, 74, 61
4, 27888, Note_on_c, 1, 67, 61
4, 27933, Note_on_c, 1, 74, 0
4, 27933, Note_on_c, 1, 67, 0
4, 27984, Note_on_c, 1, 70, 61
4, 27984, Note_on_c, 1, 67, 61
4, 28029, Note_on_c, 1, 70, 0
4, 28029, Note_on_c, 1, 67, 0
4, 28032, Note_on_c, 1, 69, 61
4, 28032, Note_on_c, 1, 65, 61
4, 28121, Note_on_c, 1, 69, 0
4, 28121, Note_on_c, 1, 65, 0
4, 28128, Note_on_c, 1, 67, 61
4, 28128, Note_on_c, 1, 64, 61
4, 28176, Note_on_c, 1, 67, 0
4, 28176, Note_on_c, 1, 73, 61
4, 28223, Note_on_c, 1, 73, 0
4, 28223, Note_on_c, 1, 64, 0
4, 28224, Note_on_c, 1, 74, 61
4, 28224, Note_on_c, 1, 62, 61
4, 28269, Note_on_c, 1, 74, 0
4, 28269, Note_on_c, 1, 62, 0
4, 28272, Note_on_c, 1, 70, 61
4, 28272, Note_on_c, 1, 63, 61
4, 28317, Note_on_c, 1, 70, 0
4, 28317, Note_on_c, 1, 63, 0
4, 28368, Note_on_c, 1, 67, 61
4, 28368, Note_on_c, 1, 63, 61
4, 28413, Note_on_c, 1, 67, 0
4, 28413, Note_on_c, 1, 63, 0
4, 28416, Note_on_c, 1, 65, 61
4, 28416, Note_on_c, 1, 62, 61
4, 28505, Note_on_c, 1, 65, 0
4, 28505, Note_on_c, 1, 62, 0
4, 28512, Note_on_c, 1, 63, 61
4, 28512, Note_on_c, 1, 60, 61
4, 28560, Note_on_c, 1, 63, 0
4, 28560, Note_on_c, 1, 69, 61
4, 28607, Note_on_c, 1, 69, 0
4, 28607, Note_on_c, 1, 60, 0
4, 28608, Note_on_c, 1, 70, 61
4, 28608, Note_on_c, 1, 65, 61
4, 28608, Note_on_c, 1, 58, 61
4, 28697, Note_on_c, 1, 70, 0
4, 28697, Note_on_c, 1, 65, 0
4, 28697, Note_on_c, 1, 58, 0
4, 28704, Note_on_c, 1, 69, 61
4, 28704, Note_on_c, 1, 65, 61
4, 28704, Note_on_c, 1, 60, 61
4, 28793, Note_on_c, 1, 69, 0
4, 28793, Note_on_c, 1, 65, 0
4, 28793, Note_on_c, 1, 60, 0
4, 28800, Note_on_c, 1, 70, 61
4, 28800, Note_on_c, 1, 65, 61
4, 28800, Note_on_c, 1, 58, 61
4, 28889, Note_on_c, 1, 70, 0
4, 28889, Note_on_c, 1, 65, 0
4, 28889, Note_on_c, 1, 58, 0
4, 28896, Note_on_c, 1, 69, 61
4, 28896, Note_on_c, 1, 65, 61
4, 28896, Note_on_c, 1, 60, 61
4, 28985, Note_on_c, 1, 69, 0
4, 28985, Note_on_c, 1, 65, 0
4, 28985, Note_on_c, 1, 60, 0
4, 28992, Note_on_c, 1, 58, 61
4, 29015, Note_on_c, 1, 58, 0
4, 29016, Note_on_c, 1, 70, 61
4, 29039, Note_on_c, 1, 70, 0
4, 29040, Note_on_c, 1, 65, 61
4, 29063, Note_on_c, 1, 65, 0
4, 29064, Note_on_c, 1, 70, 61
4, 29087, Note_on_c, 1, 70, 0
4, 29088, Note_on_c, 1, 60, 61
4, 29111, Note_on_c, 1, 60, 0
4, 29112, Note_on_c, 1, 70, 61
4, 29135, Note_on_c, 1, 70, 0
4, 29136, Note_on_c, 1, 65, 61
4, 29159, Note_on_c, 1, 65, 0
4, 29160, Note_on_c, 1, 70, 61
4, 29183, Note_on_c, 1, 70, 0
4, 29184, Note_on_c, 1, 62, 61
4, 29207, Note_on_c, 1, 62, 0
4, 29208, Note_on_c, 1, 70, 61
4, 29231, Note_on_c, 1, 70, 0
4, 29232, Note_on_c, 1, 65, 61
4, 29255, Note_on_c, 1, 65, 0
4, 29256, Note_on_c, 1, 70, 61
4, 29279, Note_on_c, 1, 70, 0
4, 29280, Note_on_c, 1, 62, 61
4, 29303, Note_on_c, 1, 62, 0
4, 29304, Note_on_c, 1, 70, 61
4, 29327, Note_on_c, 1, 70, 0
4, 29328, Note_on_c, 1, 65, 61
4, 29351, Note_on_c, 1, 65, 0
4, 29352, Note_on_c, 1, 70, 61
4, 29375, Note_on_c, 1, 70, 0
4, 29376, Note_on_c, 1, 63, 61
4, 29465, Note_on_c, 1, 63, 0
4, 29616, Note_on_c, 1, 62, 75
4, 29661, Note_on_c, 1, 62, 0
4, 29664, Note_on_c, 1, 63, 75
4, 29709, Note_on_c, 1, 63, 0
4, 29712, Note_on_c, 1, 65, 75
4, 29757, Note_on_c, 1, 65, 0
4, 29760, Note_on_c, 1, 58, 75
4, 29849, Note_on_c, 1, 58, 0
4, 29904, Note_on_c, 1, 62, 61
4, 29904, Note_on_c, 1, 58, 61
4, 29949, Note_on_c, 1, 62, 0
4, 29949, Note_on_c, 1, 58, 0
4, 29952, Note_on_c, 1, 60, 61
4, 29952, Note_on_c, 1, 57, 61
4, 30041, Note_on_c, 1, 60, 0
4, 30041, Note_on_c, 1, 57, 0
4, 30048, Note_on_c, 1, 58, 61
4, 30048, Note_on_c, 1, 55, 61
4, 30096, Note_on_c, 1, 58, 0
4, 30096, Note_on_c, 1, 64, 61
4, 30143, Note_on_c, 1, 64, 0
4, 30143, Note_on_c, 1, 55, 0
4, 30144, Note_on_c, 1, 65, 61
4, 30144, Note_on_c, 1, 53, 61
4, 30189, Note_on_c, 1, 65, 0
4, 30189, Note_on_c, 1, 53, 0
4, 30192, Note_on_c, 1, 62, 61
4, 30192, Note_on_c, 1, 55, 61
4, 30237, Note_on_c, 1, 62, 0
4, 30237, Note_on_c, 1, 55, 0
4, 30288, Note_on_c, 1, 58, 61
4, 30288, Note_on_c, 1, 55, 61
4, 30333, Note_on_c, 1, 58, 0
4, 30333, Note_on_c, 1, 55, 0
4, 30336, Note_on_c, 1, 57, 61
4, 30336, Note_on_c, 1, 53, 61
4, 30425, Note_on_c, 1, 57, 0
4, 30425, Note_on_c, 1, 53, 0
4, 30432, Note_on_c, 1, 55, 61
4, 30432, Note_on_c, 1, 52, 61
4, 30480, Note_on_c, 1, 55, 0
4, 30480, Note_on_c, 1, 61, 61
4, 30527, Note_on_c, 1, 61, 0
4, 30527, Note_on_c, 1, 52, 0
4, 30528, Note_on_c, 1, 62, 61
4, 30528, Note_on_c, 1, 50, 61
4, 30573, Note_on_c, 1, 62, 0
4, 30573, Note_on_c, 1, 50, 0
4, 30576, Note_on_c, 1, 58, 61
4, 30576, Note_on_c, 1, 51, 61
4, 30621, Note_on_c, 1, 58, 0
4, 30621, Note_on_c, 1, 51, 0
4, 30672, Note_on_c, 1, 55, 61
4, 30672, Note_on_c, 1, 51, 61
4, 30717, Note_on_c, 1, 55, 0
4, 30717, Note_on_c, 1, 51, 0
4, 30720, Note_on_c, 1, 53, 61
4, 30720, Note_on_c, 1, 50, 61
4, 30809, Note_on_c, 1, 53, 0
4, 30809, Note_on_c, 1, 50, 0
4, 30816, Note_on_c, 1, 51, 61
4, 30816, Note_on_c, 1, 48, 61
4, 30864, Note_on_c, 1, 51, 0
4, 30864, Note_on_c, 1, 57, 61
4, 30911, Note_on_c, 1, 57, 0
4, 30911, Note_on_c, 1, 48, 0
4, 30912, Note_on_c, 1, 58, 61
4, 30912, Note_on_c, 1, 53, 61
4, 30912, Note_on_c, 1, 46, 61
4, 31001, Note_on_c, 1, 58, 0
4, 31001, Note_on_c, 1, 53, 0
4, 31001, Note_on_c, 1, 46, 0
4, 31008, Note_on_c, 1, 57, 61
4, 31008, Note_on_c, 1, 53, 61
4, 31008, Note_on_c, 1, 48, 61
4, 31097, Note_on_c, 1, 57, 0
4, 31097, Note_on_c, 1, 53, 0
4, 31097, Note_on_c, 1, 48, 0
4, 31104, Note_on_c, 1, 58, 61
4, 31104, Note_on_c, 1, 53, 61
4, 31104, Note_on_c, 1, 46, 61
4, 31193, Note_on_c, 1, 58, 0
4, 31193, Note_on_c, 1, 53, 0
4, 31193, Note_on_c, 1, 46, 0
4, 31200, Note_on_c, 1, 57, 61
4, 31200, Note_on_c, 1, 53, 61
4, 31200, Note_on_c, 1, 48, 61
4, 31289, Note_on_c, 1, 57, 0
4, 31289, Note_on_c, 1, 53, 0
4, 31289, Note_on_c, 1, 48, 0
4, 31296, Note_on_c, 1, 46, 61
4, 31319, Note_on_c, 1, 46, 0
4, 31320, Note_on_c, 1, 58, 61
4, 31343, Note_on_c, 1, 58, 0
4, 31344, Note_on_c, 1, 53, 61
4, 31367, Note_on_c, 1, 53, 0
4, 31368, Note_on_c, 1, 58, 61
4, 31391, Note_on_c, 1, 58, 0
4, 31392, Note_on_c, 1, 48, 61
4, 31415, Note_on_c, 1, 48, 0
4, 31416, Note_on_c, 1, 58, 61
4, 31439, Note_on_c, 1, 58, 0
4, 31440, Note_on_c, 1, 53, 61
4, 31463, Note_on_c, 1, 53, 0
4, 31464, Note_on_c, 1, 58, 61
4, 31487, Note_on_c, 1, 58, 0
4, 31488, Note_on_c, 1, 50, 61
4, 31511, Note_on_c, 1, 50, 0
4, 31512, Note_on_c, 1, 58, 61
4, 31535, Note_on_c, 1, 58, 0
4, 31536, Note_on_c, 1, 53, 61
4, 31559, Note_on_c, 1, 53, 0
4, 31560, Note_on_c, 1, 58, 61
4, 31583, Note_on_c, 1, 58, 0
4, 31584, Note_on_c, 1, 50, 61
4, 31607, Note_on_c, 1, 50, 0
4, 31608, Note_on_c, 1, 58, 61
4, 31631, Note_on_c, 1, 58, 0
4, 31632, Note_on_c, 1, 53, 61
4, 31655, Note_on_c, 1, 53, 0
4, 31656, Note_on_c, 1, 58, 61
4, 31679, Note_on_c, 1, 58, 0
4, 31680, Note_on_c, 1, 51, 61
4, 31703, Note_on_c, 1, 51, 0
4, 31704, Note_on_c, 1, 58, 61
4, 31727, Note_on_c, 1, 58, 0
4, 31728, Note_on_c, 1, 55, 61
4, 31751, Note_on_c, 1, 55, 0
4, 31752, Note_on_c, 1, 58, 61
4, 31775, Note_on_c, 1, 58, 0
4, 31776, Note_on_c, 1, 51, 61
4, 31799, Note_on_c, 1, 51, 0
4, 31800, Note_on_c, 1, 58, 61
4, 31823, Note_on_c, 1, 58, 0
4, 31824, Note_on_c, 1, 50, 61
4, 31847, Note_on_c, 1, 50, 0
4, 31848, Note_on_c, 1, 58, 61
4, 31871, Note_on_c, 1, 58, 0
4, 31872, Note_on_c, 1, 51, 61
4, 31895, Note_on_c, 1, 51, 0
4, 31896, Note_on_c, 1, 58, 62
4, 31919, Note_on_c, 1, 58, 0
4, 31920, Note_on_c, 1, 50, 63
4, 31943, Note_on_c, 1, 50, 0
4, 31944, Note_on_c, 1, 58, 65
4, 31967, Note_on_c, 1, 58, 0
4, 31968, Note_on_c, 1, 51, 66
4, 31991, Note_on_c, 1, 51, 0
4, 31992, Note_on_c, 1, 58, 67
4, 32015, Note_on_c, 1, 58, 0
4, 32016, Note_on_c, 1, 50, 69
4, 32039, Note_on_c, 1, 50, 0
4, 32040, Note_on_c, 1, 58, 70
4, 32063, Note_on_c, 1, 58, 0
4, 32064, Control_c, 1, 64, 127
4, 32064, Note_on_c, 1, 51, 71
4, 32087, Note_on_c, 1, 51, 0
4, 32088, Note_on_c, 1, 58, 73
4, 32111, Note_on_c, 1, 58, 0
4, 32112, Note_on_c, 1, 55, 74
4, 32135, Note_on_c, 1, 55, 0
4, 32136, Control_c, 1, 64, 0
4, 32136, Note_on_c, 1, 58, 75
4, 32159, Note_on_c, 1, 58, 0
4, 32160, Control_c, 1, 64, 127
4, 32160, Note_on_c, 1, 51, 77
4, 32183, Note_on_c, 1, 51, 0
4, 32184, Note_on_c, 1, 59, 78
4, 32207, Note_on_c, 1, 59, 0
4, 32208, Note_on_c, 1, 55, 79
4, 32231, Note_on_c, 1, 55, 0
4, 32232, Note_on_c, 1, 59, 81
4, 32255, Note_on_c, 1, 59, 0
4, 32256, Control_c, 1, 64, 0
4, 32256, Control_c, 1, 64, 127
4, 32256, Note_on_c, 1, 51, 82
4, 32279, Note_on_c, 1, 51, 0
4, 32280, Note_on_c, 1, 60, 84
4, 32303, Note_on_c, 1, 60, 0
4, 32304, Note_on_c, 1, 55, 84
4, 32327, Note_on_c, 1, 55, 0
4, 32328, Note_on_c, 1, 60, 84
4, 32351, Note_on_c, 1, 60, 0
4, 32352, Note_on_c, 1, 51, 84
4, 32375, Note_on_c, 1, 51, 0
4, 32376, Note_on_c, 1, 60, 82
4, 32399, Note_on_c, 1, 60, 0
4, 32400, Note_on_c, 1, 55, 80
4, 32423, Note_on_c, 1, 55, 0
4, 32424, Control_c, 1, 64, 0
4, 32424, Note_on_c, 1, 60, 78
4, 32447, Note_on_c, 1, 60, 0
4, 32448, Note_on_c, 1, 53, 76
4, 32471, Note_on_c, 1, 53, 0
4, 32472, Note_on_c, 1, 62, 74
4, 32495, Note_on_c, 1, 62, 0
4, 32496, Note_on_c, 1, 58, 72
4, 32519, Note_on_c, 1, 58, 0
4, 32520, Note_on_c, 1, 62, 70
4, 32543, Note_on_c, 1, 62, 0
4, 32544, Note_on_c, 1, 53, 68
4, 32567, Note_on_c, 1, 53, 0
4, 32568, Note_on_c, 1, 62, 66
4, 32591, Note_on_c, 1, 62, 0
4, 32592, Note_on_c, 1, 58, 64
4, 32615, Note_on_c, 1, 58, 0
4, 32616, Note_on_c, 1, 62, 62
4, 32639, Note_on_c, 1, 62, 0
4, 32640, Note_on_c, 1, 53, 61
4, 32663, Note_on_c, 1, 53, 0
4, 32664, Note_on_c, 1, 62, 61
4, 32687, Note_on_c, 1, 62, 0
4, 32688, Note_on_c, 1, 58, 61
4, 32711, Note_on_c, 1, 58, 0
4, 32712, Note_on_c, 1, 62, 61
4, 32735, Note_on_c, 1, 62, 0
4, 32736, Note_on_c, 1, 53, 61
4, 32759, Note_on_c, 1, 53, 0
4, 32760, Note_on_c, 1, 62, 61
4, 32783, Note_on_c, 1, 62, 0
4, 32784, Note_on_c, 1, 58, 61
4, 32807, Note_on_c, 1, 58, 0
4, 32808, Note_on_c, 1, 62, 61
4, 32831, Note_on_c, 1, 62, 0
4, 32832, Note_on_c, 1, 53, 61
4, 32855, Note_on_c, 1, 53, 0
4, 32856, Note_on_c, 1, 62, 61
4, 32879, Note_on_c, 1, 62, 0
4, 32880, Note_on_c, 1, 58, 61
4, 32903, Note_on_c, 1, 58, 0
4, 32904, Note_on_c, 1, 62, 61
4, 32927, Note_on_c, 1, 62, 0
4, 32928, Note_on_c, 1, 53, 61
4, 32951, Note_on_c, 1, 53, 0
4, 32952, Note_on_c, 1, 62, 61
4, 32975, Note_on_c, 1, 62, 0
4, 32976, Note_on_c, 1, 58, 61
4, 32999, Note_on_c, 1, 58, 0
4, 33000, Note_on_c, 1, 62, 61
4, 33023, Note_on_c, 1, 62, 0
4, 33024, Note_on_c, 1, 53, 61
4, 33047, Note_on_c, 1, 53, 0
4, 33048, Note_on_c, 1, 63, 61
4, 33071, Note_on_c, 1, 63, 0
4, 33072, Note_on_c, 1, 60, 61
4, 33095, Note_on_c, 1, 60, 0
4, 33096, Note_on_c, 1, 63, 61
4, 33119, Note_on_c, 1, 63, 0
4, 33120, Note_on_c, 1, 53, 61
4, 33143, Note_on_c, 1, 53, 0
4, 33144, Note_on_c, 1, 63, 61
4, 33167, Note_on_c, 1, 63, 0
4, 33168, Note_on_c, 1, 60, 61
4, 33191, Note_on_c, 1, 60, 0
4, 33192, Note_on_c, 1, 63, 61
4, 33215, Note_on_c, 1, 63, 0
4, 33216, Note_on_c, 1, 62, 61
4, 33216, Note_on_c, 1, 58, 61
4, 33305, Note_on_c, 1, 62, 0
4, 33305, Note_on_c, 1, 58, 0
4, 33312, Note_on_c, 1, 58, 75
4, 33312, Note_on_c, 1, 50, 75
4, 33401, Note_on_c, 1, 58, 0
4, 33401, Note_on_c, 1, 50, 0
4, 33408, Note_on_c, 1, 58, 75
4, 33408, Note_on_c, 1, 51, 75
4, 33497, Note_on_c, 1, 58, 0
4, 33497, Note_on_c, 1, 51, 0
4, 33504, Note_on_c, 1, 57, 75
4, 33504, Note_on_c, 1, 53, 75
4, 33593, Note_on_c, 1, 57, 0
4, 33593, Note_on_c, 1, 53, 0
4, 33600, Note_on_c, 1, 58, 75
4, 33600, Note_on_c, 1, 46, 75
4, 33689, Note_on_c, 1, 58, 0
4, 33689, Note_on_c, 1, 46, 0
4, 33696, Note_on_c, 1, 58, 75
4, 33696, Note_on_c, 1, 50, 75
4, 33785, Note_on_c, 1, 58, 0
4, 33785, Note_on_c, 1, 50, 0
4, 33792, Note_on_c, 1, 58, 75
4, 33792, Note_on_c, 1, 51, 75
4, 33881, Note_on_c, 1, 58, 0
4, 33881, Note_on_c, 1, 51, 0
4, 33888, Note_on_c, 1, 53, 75
4, 33888, Note_on_c, 1, 41, 75
4, 33977, Note_on_c, 1, 53, 0
4, 33977, Note_on_c, 1, 41, 0
4, 33984, Note_on_c, 1, 46, 75
4, 33984, Note_on_c, 1, 34, 75
4, 34078, Note_on_c, 1, 46, 0
4, 34078, Note_on_c, 1, 34, 0
4, 34176, Note_on_c, 1, 58, 61
4, 34199, Note_on_c, 1, 58, 0
4, 34200, Note_on_c, 1, 65, 61
4, 34223, Note_on_c, 1, 65, 0
4, 34224, Note_on_c, 1, 61, 61
4, 34247, Note_on_c, 1, 61, 0
4, 34248, Note_on_c, 1, 65, 61
4, 34271, Note_on_c, 1, 65, 0
4, 34272, Note_on_c, 1, 58, 61
4, 34295, Note_on_c, 1, 58, 0
4, 34296, Note_on_c, 1, 65, 61
4, 34319, Note_on_c, 1, 65, 0
4, 34320, Note_on_c, 1, 61, 61
4, 34343, Note_on_c, 1, 61, 0
4, 34344, Note_on_c, 1, 65, 61
4, 34367, Note_on_c, 1, 65, 0
4, 34368, Note_on_c, 1, 58, 61
4, 34391, Note_on_c, 1, 58, 0
4, 34392, Note_on_c, 1, 65, 61
4, 34415, Note_on_c, 1, 65, 0
4, 34416, Note_on_c, 1, 61, 61
4, 34439, Note_on_c, 1, 61, 0
4, 34440, Note_on_c, 1, 65, 61
4, 34463, Note_on_c, 1, 65, 0
4, 34464, Note_on_c, 1, 58, 61
4, 34487, Note_on_c, 1, 58, 0
4, 34488, Note_on_c, 1, 65, 61
4, 34511, Note_on_c, 1, 65, 0
4, 34512, Note_on_c, 1, 61, 61
4, 34535, Note_on_c, 1, 61, 0
4, 34536, Note_on_c, 1, 65, 61
4, 34559, Note_on_c, 1, 65, 0
4, 34560, Note_on_c, 1, 58, 61
4, 34583, Note_on_c, 1, 58, 0
4, 34584, Note_on_c, 1, 67, 61
4, 34607, Note_on_c, 1, 67, 0
4, 34608, Note_on_c, 1, 61, 61
4, 34631, Note_on_c, 1, 61, 0
4, 34632, Note_on_c, 1, 67, 61
4, 34655, Note_on_c, 1, 67, 0
4, 34656, Note_on_c, 1, 58, 61
4, 34679, Note_on_c, 1, 58, 0
4, 34680, Note_on_c, 1, 67, 61
4, 34703, Note_on_c, 1, 67, 0
4, 34704, Note_on_c, 1, 61, 61
4, 34727, Note_on_c, 1, 61, 0
4, 34728, Note_on_c, 1, 67, 61
4, 34751, Note_on_c, 1, 67, 0
4, 34752, Note_on_c, 1, 58, 61
4, 34775, Note_on_c, 1, 58, 0
4, 34776, Note_on_c, 1, 67, 61
4, 34799, Note_on_c, 1, 67, 0
4, 34800, Note_on_c, 1, 60, 61
4, 34823, Note_on_c, 1, 60, 0
4, 34824, Note_on_c, 1, 67, 61
4, 34847, Note_on_c, 1, 67, 0
4, 34848, Note_on_c, 1, 58, 61
4, 34871, Note_on_c, 1, 58, 0
4, 34872, Note_on_c, 1, 67, 61
4, 34895, Note_on_c, 1, 67, 0
4, 34896, Note_on_c, 1, 64, 61
4, 34919, Note_on_c, 1, 64, 0
4, 34920, Note_on_c, 1, 67, 61
4, 34943, Note_on_c, 1, 67, 0
4, 34944, Note_on_c, 1, 56, 61
4, 34967, Note_on_c, 1, 56, 0
4, 34968, Note_on_c, 1, 65, 61
4, 34991, Note_on_c, 1, 65, 0
4, 34992, Note_on_c, 1, 60, 61
4, 35015, Note_on_c, 1, 60, 0
4, 35016, Note_on_c, 1, 65, 61
4, 35039, Note_on_c, 1, 65, 0
4, 35040, Note_on_c, 1, 56, 61
4, 35063, Note_on_c, 1, 56, 0
4, 35064, Note_on_c, 1, 65, 61
4, 35087, Note_on_c, 1, 65, 0
4, 35088, Note_on_c, 1, 60, 61
4, 35111, Note_on_c, 1, 60, 0
4, 35112, Note_on_c, 1, 65, 61
4, 35135, Note_on_c, 1, 65, 0
4, 35136, Note_on_c, 1, 56, 61
4, 35159, Note_on_c, 1, 56, 0
4, 35160, Note_on_c, 1, 65, 61
4, 35183, Note_on_c, 1, 65, 0
4, 35184, Note_on_c, 1, 60, 61
4, 35207, Note_on_c, 1, 60, 0
4, 35208, Note_on_c, 1, 65, 61
4, 35231, Note_on_c, 1, 65, 0
4, 35232, Note_on_c, 1, 56, 61
4, 35255, Note_on_c, 1, 56, 0
4, 35256, Note_on_c, 1, 65, 61
4, 35279, Note_on_c, 1, 65, 0
4, 35280, Note_on_c, 1, 60, 61
4, 35303, Note_on_c, 1, 60, 0
4, 35304, Note_on_c, 1, 65, 61
4, 35327, Note_on_c, 1, 65, 0
4, 35328, Note_on_c, 1, 56, 61
4, 35351, Note_on_c, 1, 56, 0
4, 35352, Note_on_c, 1, 65, 61
4, 35375, Note_on_c, 1, 65, 0
4, 35376, Note_on_c, 1, 60, 61
4, 35399, Note_on_c, 1, 60, 0
4, 35400, Note_on_c, 1, 65, 61
4, 35423, Note_on_c, 1, 65, 0
4, 35424, Note_on_c, 1, 56, 61
4, 35447, Note_on_c, 1, 56, 0
4, 35448, Note_on_c, 1, 65, 61
4, 35471, Note_on_c, 1, 65, 0
4, 35472, Note_on_c, 1, 60, 61
4, 35495, Note_on_c, 1, 60, 0
4, 35496, Note_on_c, 1, 65, 61
4, 35519, Note_on_c, 1, 65, 0
4, 35520, Note_on_c, 1, 56, 61
4, 35543, Note_on_c, 1, 56, 0
4, 35544, Note_on_c, 1, 63, 61
4, 35567, Note_on_c, 1, 63, 0
4, 35568, Note_on_c, 1, 60, 61
4, 35591, Note_on_c, 1, 60, 0
4, 35592, Note_on_c, 1, 63, 61
4, 35615, Note_on_c, 1, 63, 0
4, 35616, Note_on_c, 1, 56, 61
4, 35639, Note_on_c, 1, 56, 0
4, 35640, Note_on_c, 1, 63, 61
4, 35663, Note_on_c, 1, 63, 0
4, 35664, Note_on_c, 1, 60, 61
4, 35687, Note_on_c, 1, 60, 0
4, 35688, Note_on_c, 1, 63, 61
4, 35711, Note_on_c, 1, 63, 0
4, 35712, Note_on_c, 1, 55, 61
4, 35735, Note_on_c, 1, 55, 0
4, 35736, Note_on_c, 1, 63, 61
4, 35759, Note_on_c, 1, 63, 0
4, 35760, Note_on_c, 1, 60, 61
4, 35783, Note_on_c, 1, 60, 0
4, 35784, Note_on_c, 1, 63, 61
4, 35807, Note_on_c, 1, 63, 0
4, 35808, Note_on_c, 1, 55, 61
4, 35831, Note_on_c, 1, 55, 0
4, 35832, Note_on_c, 1, 63, 61
4, 35855, Note_on_c, 1, 63, 0
4, 35856, Note_on_c, 1, 60, 61
4, 35879, Note_on_c, 1, 60, 0
4, 35880, Note_on_c, 1, 63, 61
4, 35903, Note_on_c, 1, 63, 0
4, 35904, Note_on_c, 1, 55, 61
4, 35927, Note_on_c, 1, 55, 0
4, 35928, Note_on_c, 1, 63, 61
4, 35951, Note_on_c, 1, 63, 0
4, 35952, Note_on_c, 1, 60, 61
4, 35975, Note_on_c, 1, 60, 0
4, 35976, Note_on_c, 1, 63, 61
4, 35999, Note_on_c, 1, 63, 0
4, 36000, Note_on_c, 1, 55, 61
4, 36023, Note_on_c, 1, 55, 0
4, 36024, Note_on_c, 1, 63, 61
4, 36047, Note_on_c, 1, 63, 0
4, 36048, Note_on_c, 1, 60, 61
4, 36071, Note_on_c, 1, 60, 0
4, 36072, Note_on_c, 1, 63, 61
4, 36095, Note_on_c, 1, 63, 0
4, 36096, Note_on_c, 1, 55, 61
4, 36119, Note_on_c, 1, 55, 0
4, 36120, Note_on_c, 1, 62, 61
4, 36143, Note_on_c, 1, 62, 0
4, 36144, Note_on_c, 1, 59, 61
4, 36167, Note_on_c, 1, 59, 0
4, 36168, Note_on_c, 1, 62, 61
4, 36191, Note_on_c, 1, 62, 0
4, 36192, Note_on_c, 1, 59, 61
4, 36215, Note_on_c, 1, 59, 0
4, 36216, Note_on_c, 1, 67, 61
4, 36239, Note_on_c, 1, 67, 0
4, 36240, Note_on_c, 1, 62, 61
4, 36263, Note_on_c, 1, 62, 0
4, 36264, Note_on_c, 1, 67, 61
4, 36287, Note_on_c, 1, 67, 0
4, 36288, Note_on_c, 1, 60, 61
4, 36311, Note_on_c, 1, 60, 0
4, 36312, Note_on_c, 1, 67, 61
4, 36335, Note_on_c, 1, 67, 0
4, 36336, Note_on_c, 1, 63, 61
4, 36359, Note_on_c, 1, 63, 0
4, 36360, Note_on_c, 1, 67, 61
4, 36383, Note_on_c, 1, 67, 0
4, 36384, Note_on_c, 1, 62, 61
4, 36407, Note_on_c, 1, 62, 0
4, 36408, Note_on_c, 1, 67, 61
4, 36431, Note_on_c, 1, 67, 0
4, 36432, Note_on_c, 1, 65, 61
4, 36455, Note_on_c, 1, 65, 0
4, 36456, Note_on_c, 1, 67, 61
4, 36479, Note_on_c, 1, 67, 0
4, 36480, Note_on_c, 1, 63, 61
4, 36503, Note_on_c, 1, 63, 0
4, 36504, Note_on_c, 1, 67, 61
4, 36527, Note_on_c, 1, 67, 0
4, 36528, Note_on_c, 1, 60, 61
4, 36551, Note_on_c, 1, 60, 0
4, 36552, Note_on_c, 1, 67, 61
4, 36575, Note_on_c, 1, 67, 0
4, 36576, Note_on_c, 1, 59, 61
4, 36599, Note_on_c, 1, 59, 0
4, 36600, Note_on_c, 1, 67, 61
4, 36623, Note_on_c, 1, 67, 0
4, 36624, Note_on_c, 1, 62, 61
4, 36647, Note_on_c, 1, 62, 0
4, 36648, Note_on_c, 1, 67, 61
4, 36671, Note_on_c, 1, 67, 0
4, 36672, Note_on_c, 1, 60, 61
4, 36695, Note_on_c, 1, 60, 0
4, 36696, Note_on_c, 1, 67, 61
4, 36719, Note_on_c, 1, 67, 0
4, 36720, Note_on_c, 1, 63, 61
4, 36743, Note_on_c, 1, 63, 0
4, 36744, Note_on_c, 1, 67, 61
4, 36767, Note_on_c, 1, 67, 0
4, 36768, Note_on_c, 1, 62, 61
4, 36791, Note_on_c, 1, 62, 0
4, 36792, Note_on_c, 1, 67, 61
4, 36815, Note_on_c, 1, 67, 0
4, 36816, Note_on_c, 1, 65, 61
4, 36839, Note_on_c, 1, 65, 0
4, 36840, Note_on_c, 1, 67, 61
4, 36863, Note_on_c, 1, 67, 0
4, 36864, Note_on_c, 1, 63, 61
4, 36887, Note_on_c, 1, 63, 0
4, 36888, Note_on_c, 1, 67, 61
4, 36911, Note_on_c, 1, 67, 0
4, 36912, Note_on_c, 1, 60, 61
4, 36935, Note_on_c, 1, 60, 0
4, 36936, Note_on_c, 1, 67, 61
4, 36959, Note_on_c, 1, 67, 0
4, 36960, Note_on_c, 1, 59, 61
4, 36983, Note_on_c, 1, 59, 0
4, 36984, Note_on_c, 1, 67, 61
4, 37007, Note_on_c, 1, 67, 0
4, 37008, Note_on_c, 1, 62, 61
4, 37031, Note_on_c, 1, 62, 0
4, 37032, Note_on_c, 1, 67, 61
4, 37055, Note_on_c, 1, 67, 0
4, 37056, Note_on_c, 1, 60, 61
4, 37079, Note_on_c, 1, 60, 0
4, 37080, Note_on_c, 1, 68, 61
4, 37103, Note_on_c, 1, 68, 0
4, 37104, Note_on_c, 1, 63, 61
4, 37127, Note_on_c, 1, 63, 0
4, 37128, Note_on_c, 1, 68, 61
4, 37151, Note_on_c, 1, 68, 0
4, 37152, Note_on_c, 1, 62, 61
4, 37175, Note_on_c, 1, 62, 0
4, 37176, Note_on_c, 1, 70, 61
4, 37199, Note_on_c, 1, 70, 0
4, 37200, Note_on_c, 1, 65, 61
4, 37223, Note_on_c, 1, 65, 0
4, 37224, Note_on_c, 1, 70, 61
4, 37247, Note_on_c, 1, 70, 0
4, 37248, Note_on_c, 1, 63, 61
4, 37271, Note_on_c, 1, 63, 0
4, 37272, Note_on_c, 1, 70, 61
4, 37295, Note_on_c, 1, 70, 0
4, 37296, Note_on_c, 1, 67, 61
4, 37319, Note_on_c, 1, 67, 0
4, 37320, Note_on_c, 1, 70, 61
4, 37343, Note_on_c, 1, 70, 0
4, 37344, Note_on_c, 1, 65, 61
4, 37367, Note_on_c, 1, 65, 0
4, 37368, Note_on_c, 1, 70, 61
4, 37391, Note_on_c, 1, 70, 0
4, 37392, Note_on_c, 1, 68, 61
4, 37415, Note_on_c, 1, 68, 0
4, 37416, Note_on_c, 1, 70, 61
4, 37439, Note_on_c, 1, 70, 0
4, 37440, Note_on_c, 1, 67, 61
4, 37463, Note_on_c, 1, 67, 0
4, 37464, Note_on_c, 1, 70, 61
4, 37487, Note_on_c, 1, 70, 0
4, 37488, Note_on_c, 1, 63, 61
4, 37511, Note_on_c, 1, 63, 0
4, 37512, Note_on_c, 1, 70, 61
4, 37535, Note_on_c, 1, 70, 0
4, 37536, Note_on_c, 1, 62, 61
4, 37559, Note_on_c, 1, 62, 0
4, 37560, Note_on_c, 1, 70, 61
4, 37583, Note_on_c, 1, 70, 0
4, 37584, Note_on_c, 1, 65, 61
4, 37607, Note_on_c, 1, 65, 0
4, 37608, Note_on_c, 1, 70, 61
4, 37631, Note_on_c, 1, 70, 0
4, 37632, Note_on_c, 1, 63, 61
4, 37655, Note_on_c, 1, 63, 0
4, 37656, Note_on_c, 1, 70, 61
4, 37679, Note_on_c, 1, 70, 0
4, 37680, Note_on_c, 1, 67, 61
4, 37703, Note_on_c, 1, 67, 0
4, 37704, Note_on_c, 1, 70, 61
4, 37727, Note_on_c, 1, 70, 0
4, 37728, Note_on_c, 1, 65, 61
4, 37751, Note_on_c, 1, 65, 0
4, 37752, Note_on_c, 1, 70, 61
4, 37775, Note_on_c, 1, 70, 0
4, 37776, Note_on_c, 1, 68, 61
4, 37799, Note_on_c, 1, 68, 0
4, 37800, Note_on_c, 1, 70, 61
4, 37823, Note_on_c, 1, 70, 0
4, 37824, Note_on_c, 1, 67, 61
4, 37847, Note_on_c, 1, 67, 0
4, 37848, Note_on_c, 1, 70, 61
4, 37871, Note_on_c, 1, 70, 0
4, 37872, Note_on_c, 1, 63, 61
4, 37895, Note_on_c, 1, 63, 0
4, 37896, Note_on_c, 1, 70, 61
4, 37919, Note_on_c, 1, 70, 0
4, 37920, Note_on_c, 1, 62, 61
4, 37943, Note_on_c, 1, 62, 0
4, 37944, Note_on_c, 1, 70, 61
4, 37967, Note_on_c, 1, 70, 0
4, 37968, Note_on_c, 1, 65, 61
4, 37991, Note_on_c, 1, 65, 0
4, 37992, Note_on_c, 1, 70, 61
4, 38015, Note_on_c, 1, 70, 0
4, 38016, Note_on_c, 1, 63, 61
4, 38039, Note_on_c, 1, 63, 0
4, 38040, Note_on_c, 1, 70, 61
4, 38063, Note_on_c, 1, 70, 0
4, 38064, Note_on_c, 1, 67, 61
4, 38087, Note_on_c, 1, 67, 0
4, 38088, Note_on_c, 1, 70, 61
4, 38111, Note_on_c, 1, 70, 0
4, 38112, Note_on_c, 1, 61, 61
4, 38135, Note_on_c, 1, 61, 0
4, 38136, Note_on_c, 1, 70, 61
4, 38159, Note_on_c, 1, 70, 0
4, 38160, Note_on_c, 1, 67, 61
4, 38183, Note_on_c, 1, 67, 0
4, 38184, Note_on_c, 1, 70, 61
4, 38207, Note_on_c, 1, 70, 0
4, 38208, Note_on_c, 1, 60, 61
4, 38231, Note_on_c, 1, 60, 0
4, 38232, Note_on_c, 1, 68, 61
4, 38255, Note_on_c, 1, 68, 0
4, 38256, Note_on_c, 1, 63, 61
4, 38279, Note_on_c, 1, 63, 0
4, 38280, Note_on_c, 1, 68, 61
4, 38303, Note_on_c, 1, 68, 0
4, 38304, Note_on_c, 1, 60, 61
4, 38327, Note_on_c, 1, 60, 0
4, 38328, Note_on_c, 1, 68, 61
4, 38351, Note_on_c, 1, 68, 0
4, 38352, Note_on_c, 1, 63, 61
4, 38375, Note_on_c, 1, 63, 0
4, 38376, Note_on_c, 1, 68, 61
4, 38399, Note_on_c, 1, 68, 0
4, 38400, Note_on_c, 1, 58, 61
4, 38423, Note_on_c, 1, 58, 0
4, 38424, Note_on_c, 1, 68, 61
4, 38447, Note_on_c, 1, 68, 0
4, 38448, Note_on_c, 1, 65, 61
4, 38471, Note_on_c, 1, 65, 0
4, 38472, Note_on_c, 1, 68, 61
4, 38495, Note_on_c, 1, 68, 0
4, 38496, Note_on_c, 1, 58, 61
4, 38519, Note_on_c, 1, 58, 0
4, 38520, Note_on_c, 1, 67, 61
4, 38543, Note_on_c, 1, 67, 0
4, 38544, Note_on_c, 1, 63, 61
4, 38567, Note_on_c, 1, 63, 0
4, 38568, Note_on_c, 1, 67, 61
4, 38591, Note_on_c, 1, 67, 0
4, 38592, Note_on_c, 1, 56, 61
4, 38615, Note_on_c, 1, 56, 0
4, 38616, Note_on_c, 1, 63, 61
4, 38639, Note_on_c, 1, 63, 0
4, 38640, Note_on_c, 1, 60, 61
4, 38663, Note_on_c, 1, 60, 0
4, 38664, Note_on_c, 1, 63, 61
4, 38687, Note_on_c, 1, 63, 0
4, 38688, Note_on_c, 1, 58, 61
4, 38711, Note_on_c, 1, 58, 0
4, 38712, Note_on_c, 1, 63, 61
4, 38735, Note_on_c, 1, 63, 0
4, 38736, Note_on_c, 1, 61, 61
4, 38759, Note_on_c, 1, 61, 0
4, 38760, Note_on_c, 1, 63, 61
4, 38783, Note_on_c, 1, 63, 0
4, 38784, Note_on_c, 1, 60, 61
4, 38807, Note_on_c, 1, 60, 0
4, 38808, Note_on_c, 1, 63, 61
4, 38831, Note_on_c, 1, 63, 0
4, 38832, Note_on_c, 1, 56, 61
4, 38855, Note_on_c, 1, 56, 0
4, 38856, Note_on_c, 1, 63, 61
4, 38879, Note_on_c, 1, 63, 0
4, 38880, Note_on_c, 1, 55, 61
4, 38903, Note_on_c, 1, 55, 0
4, 38904, Note_on_c, 1, 63, 61
4, 38927, Note_on_c, 1, 63, 0
4, 38928, Note_on_c, 1, 58, 61
4, 38951, Note_on_c, 1, 58, 0
4, 38952, Note_on_c, 1, 63, 61
4, 38975, Note_on_c, 1, 63, 0
4, 38976, Note_on_c, 1, 56, 61
4, 38999, Note_on_c, 1, 56, 0
4, 39000, Note_on_c, 1, 63, 61
4, 39023, Note_on_c, 1, 63, 0
4, 39024, Note_on_c, 1, 60, 61
4, 39047, Note_on_c, 1, 60, 0
4, 39048, Note_on_c, 1, 63, 61
4, 39071, Note_on_c, 1, 63, 0
4, 39072, Note_on_c, 1, 58, 61
4, 39095, Note_on_c, 1, 58, 0
4, 39096, Note_on_c, 1, 63, 61
4, 39119, Note_on_c, 1, 63, 0
4, 39120, Note_on_c, 1, 61, 61
4, 39143, Note_on_c, 1, 61, 0
4, 39144, Note_on_c, 1, 63, 61
4, 39167, Note_on_c, 1, 63, 0
4, 39168, Note_on_c, 1, 60, 61
4, 39191, Note_on_c, 1, 60, 0
4, 39192, Note_on_c, 1, 63, 61
4, 39215, Note_on_c, 1, 63, 0
4, 39216, Note_on_c, 1, 56, 61
4, 39239, Note_on_c, 1, 56, 0
4, 39240, Note_on_c, 1, 63, 61
4, 39263, Note_on_c, 1, 63, 0
4, 39264, Note_on_c, 1, 55, 61
4, 39287, Note_on_c, 1, 55, 0
4, 39288, Note_on_c, 1, 63, 61
4, 39311, Note_on_c, 1, 63, 0
4, 39312, Note_on_c, 1, 58, 61
4, 39335, Note_on_c, 1, 58, 0
4, 39336, Note_on_c, 1, 63, 61
4, 39359, Note_on_c, 1, 63, 0
4, 39360, Note_on_c, 1, 56, 61
4, 39383, Note_on_c, 1, 56, 0
4, 39384, Note_on_c, 1, 63, 61
4, 39407, Note_on_c, 1, 63, 0
4, 39408, Note_on_c, 1, 60, 61
4, 39431, Note_on_c, 1, 60, 0
4, 39432, Note_on_c, 1, 63, 61
4, 39455, Note_on_c, 1, 63, 0
4, 39456, Note_on_c, 1, 56, 61
4, 39479, Note_on_c, 1, 56, 0
4, 39480, Note_on_c, 1, 63, 61
4, 39503, Note_on_c, 1, 63, 0
4, 39504, Note_on_c, 1, 60, 61
4, 39527, Note_on_c, 1, 60, 0
4, 39528, Note_on_c, 1, 63, 61
4, 39551, Note_on_c, 1, 63, 0
4, 39552, Note_on_c, 1, 56, 61
4, 39575, Note_on_c, 1, 56, 0
4, 39576, Note_on_c, 1, 65, 61
4, 39599, Note_on_c, 1, 65, 0
4, 39600, Note_on_c, 1, 58, 61
4, 39623, Note_on_c, 1, 58, 0
4, 39624, Note_on_c, 1, 65, 61
4, 39647, Note_on_c, 1, 65, 0
4, 39648, Note_on_c, 1, 56, 61
4, 39671, Note_on_c, 1, 56, 0
4, 39672, Note_on_c, 1, 65, 61
4, 39695, Note_on_c, 1, 65, 0
4, 39696, Note_on_c, 1, 58, 61
4, 39719, Note_on_c, 1, 58, 0
4, 39720, Note_on_c, 1, 65, 61
4, 39743, Note_on_c, 1, 65, 0
4, 39744, Note_on_c, 1, 55, 61
4, 39767, Note_on_c, 1, 55, 0
4, 39768, Note_on_c, 1, 63, 61
4, 39791, Note_on_c, 1, 63, 0
4, 39792, Note_on_c, 1, 58, 61
4, 39815, Note_on_c, 1, 58, 0
4, 39816, Note_on_c, 1, 63, 61
4, 39839, Note_on_c, 1, 63, 0
4, 39840, Note_on_c, 1, 55, 61
4, 39863, Note_on_c, 1, 55, 0
4, 39864, Note_on_c, 1, 63, 61
4, 39887, Note_on_c, 1, 63, 0
4, 39888, Note_on_c, 1, 58, 61
4, 39911, Note_on_c, 1, 58, 0
4, 39912, Note_on_c, 1, 63, 61
4, 39935, Note_on_c, 1, 63, 0
4, 39936, Note_on_c, 1, 56, 61
4, 39959, Note_on_c, 1, 56, 0
4, 39960, Note_on_c, 1, 63, 61
4, 39983, Note_on_c, 1, 63, 0
4, 39984, Note_on_c, 1, 60, 62
4, 40007, Note_on_c, 1, 60, 0
4, 40008, Note_on_c, 1, 63, 63
4, 40031, Note_on_c, 1, 63, 0
4, 40032, Note_on_c, 1, 56, 64
4, 40055, Note_on_c, 1, 56, 0
4, 40056, Note_on_c, 1, 63, 65
4, 40079, Note_on_c, 1, 63, 0
4, 40080, Note_on_c, 1, 60, 65
4, 40103, Note_on_c, 1, 60, 0
4, 40104, Note_on_c, 1, 63, 66
4, 40127, Note_on_c, 1, 63, 0
4, 40128, Note_on_c, 1, 56, 67
4, 40151, Note_on_c, 1, 56, 0
4, 40152, Note_on_c, 1, 65, 68
4, 40175, Note_on_c, 1, 65, 0
4, 40176, Note_on_c, 1, 60, 69
4, 40199, Note_on_c, 1, 60, 0
4, 40200, Note_on_c, 1, 65, 70
4, 40223, Note_on_c, 1, 65, 0
4, 40224, Note_on_c, 1, 57, 70
4, 40247, Note_on_c, 1, 57, 0
4, 40248, Note_on_c, 1, 65, 71
4, 40271, Note_on_c, 1, 65, 0
4, 40272, Note_on_c, 1, 60, 72
4, 40295, Note_on_c, 1, 60, 0
4, 40296, Note_on_c, 1, 65, 73
4, 40319, Note_on_c, 1, 65, 0
4, 40320, Note_on_c, 1, 58, 74
4, 40343, Note_on_c, 1, 58, 0
4, 40344, Note_on_c, 1, 65, 75
4, 40367, Note_on_c, 1, 65, 0
4, 40368, Note_on_c, 1, 62, 75
4, 40391, Note_on_c, 1, 62, 0
4, 40392, Note_on_c, 1, 65, 75
4, 40415, Note_on_c, 1, 65, 0
4, 40416, Note_on_c, 1, 58, 75
4, 40439, Note_on_c, 1, 58, 0
4, 40440, Note_on_c, 1, 65, 75
4, 40463, Note_on_c, 1, 65, 0
4, 40464, Note_on_c, 1, 62, 75
4, 40487, Note_on_c, 1, 62, 0
4, 40488, Note_on_c, 1, 65, 75
4, 40511, Note_on_c, 1, 65, 0
4, 40512, Note_on_c, 1, 58, 75
4, 40601, Note_on_c, 1, 58, 0
4, 40752, Note_on_c, 1, 51, 75
4, 40772, Note_on_c, 1, 51, 0
4, 40800, Note_on_c, 1, 55, 75
4, 40889, Note_on_c, 1, 55, 0
4, 40944, Note_on_c, 1, 51, 75
4, 40978, Note_on_c, 1, 51, 0
4, 40980, Note_on_c, 1, 53, 75
4, 40992, Note_on_c, 1, 53, 0
4, 40992, Note_on_c, 1, 55, 75
4, 41081, Note_on_c, 1, 55, 0
4, 41136, Note_on_c, 1, 63, 75
4, 41148, Note_on_c, 1, 63, 0
4, 41148, Note_on_c, 1, 65, 75
4, 41160, Note_on_c, 1, 65, 0
4, 41160, Note_on_c, 1, 63, 75
4, 41172, Note_on_c, 1, 63, 0
4, 41172, Note_on_c, 1, 65, 75
4, 41184, Note_on_c, 1, 65, 0
4, 41184, Note_on_c, 1, 67, 75
4, 41204, Note_on_c, 1, 67, 0
4, 41232, Note_on_c, 1, 63, 75
4, 41244, Note_on_c, 1, 63, 0
4, 41244, Note_on_c, 1, 65, 75
4, 41256, Note_on_c, 1, 65, 0
4, 41256, Note_on_c, 1, 63, 75
4, 41268, Note_on_c, 1, 63, 0
4, 41268, Note_on_c, 1, 65, 75
4, 41280, Note_on_c, 1, 65, 0
4, 41280, Note_on_c, 1, 67, 75
4, 41319, Note_on_c, 1, 67, 0
4, 41520, Note_on_c, 1, 55, 69
4, 41520, Note_on_c, 1, 51, 69
4, 41540, Note_on_c, 1, 55, 0
4, 41540, Note_on_c, 1, 51, 0
4, 41568, Note_on_c, 1, 58, 69
4, 41568, Note_on_c, 1, 55, 69
4, 41657, Note_on_c, 1, 58, 0
4, 41657, Note_on_c, 1, 55, 0
4, 41712, Note_on_c, 1, 48, 69
4, 41712, Note_on_c, 1, 44, 69
4, 41732, Note_on_c, 1, 48, 0
4, 41732, Note_on_c, 1, 44, 0
4, 41760, Note_on_c, 1, 51, 69
4, 41760, Note_on_c, 1, 48, 69
4, 41849, Note_on_c, 1, 51, 0
4, 41849, Note_on_c, 1, 48, 0
4, 41904, Note_on_c, 1, 56, 69
4, 41904, Note_on_c, 1, 53, 69
4, 41924, Note_on_c, 1, 56, 0
4, 41924, Note_on_c, 1, 53, 0
4, 41952, Note_on_c, 1, 60, 69
4, 41952, Note_on_c, 1, 56, 69
4, 42041, Note_on_c, 1, 60, 0
4, 42041, Note_on_c, 1, 56, 0
4, 42096, Note_on_c, 1, 50, 69
4, 42096, Note_on_c, 1, 46, 69
4, 42116, Note_on_c, 1, 50, 0
4, 42116, Note_on_c, 1, 46, 0
4, 42144, Note_on_c, 1, 53, 69
4, 42144, Note_on_c, 1, 50, 69
4, 42233, Note_on_c, 1, 53, 0
4, 42233, Note_on_c, 1, 50, 0
4, 42288, Note_on_c, 1, 58, 69
4, 42288, Note_on_c, 1, 55, 69
4, 42308, Note_on_c, 1, 58, 0
4, 42308, Note_on_c, 1, 55, 0
4, 42336, Note_on_c, 1, 62, 69
4, 42336, Note_on_c, 1, 58, 69
4, 42425, Note_on_c, 1, 62, 0
4, 42425, Note_on_c, 1, 58, 0
4, 42480, Note_on_c, 1, 51, 69
4, 42480, Note_on_c, 1, 48, 69
4, 42500, Note_on_c, 1, 51, 0
4, 42500, Note_on_c, 1, 48, 0
4, 42528, Note_on_c, 1, 55, 69
4, 42528, Note_on_c, 1, 51, 69
4, 42617, Note_on_c, 1, 55, 0
4, 42617, Note_on_c, 1, 51, 0
4, 42672, Note_on_c, 1, 63, 69
4, 42672, Note_on_c, 1, 60, 69
4, 42692, Note_on_c, 1, 63, 0
4, 42692, Note_on_c, 1, 60, 0
4, 42720, Note_on_c, 1, 58, 69
4, 42809, Note_on_c, 1, 58, 0
4, 42816, Note_on_c, 1, 56, 69
4, 42905, Note_on_c, 1, 56, 0
4, 42912, Note_on_c, 1, 55, 69
4, 43001, Note_on_c, 1, 55, 0
4, 43008, Note_on_c, 1, 58, 69
4, 43008, Note_on_c, 1, 50, 69
4, 43097, Note_on_c, 1, 58, 0
4, 43097, Note_on_c, 1, 50, 0
4, 43104, Note_on_c, 1, 58, 70
4, 43104, Note_on_c, 1, 51, 70
4, 43193, Note_on_c, 1, 58, 0
4, 43193, Note_on_c, 1, 51, 0
4, 43200, Note_on_c, 1, 56, 71
4, 43200, Note_on_c, 1, 44, 71
4, 43289, Note_on_c, 1, 56, 0
4, 43289, Note_on_c, 1, 44, 0
4, 43296, Note_on_c, 1, 56, 72
4, 43296, Note_on_c, 1, 53, 72
4, 43296, Note_on_c, 1, 46, 72
4, 43385, Note_on_c, 1, 56, 0
4, 43385, Note_on_c, 1, 53, 0
4, 43385, Note_on_c, 1, 46, 0
4, 43392, Note_on_c, 1, 51, 73
4, 43481, Note_on_c, 1, 51, 0
4, 43632, Note_on_c, 1, 51, 75
4, 43677, Note_on_c, 1, 51, 0
4, 43680, Note_on_c, 1, 53, 75
4, 43725, Note_on_c, 1, 53, 0
4, 43728, Note_on_c, 1, 46, 75
4, 43773, Note_on_c, 1, 46, 0
4, 43776, Control_c, 1, 64, 127
4, 43800, Note_on_c, 1, 51, 84
4, 43823, Note_on_c, 1, 51, 0
4, 43824, Note_on_c, 1, 55, 84
4, 43847, Note_on_c, 1, 55, 0
4, 43848, Note_on_c, 1, 51, 84
4, 43871, Note_on_c, 1, 51, 0
4, 43872, Note_on_c, 1, 58, 84
4, 43895, Note_on_c, 1, 58, 0
4, 43896, Note_on_c, 1, 55, 84
4, 43919, Note_on_c, 1, 55, 0
4, 43920, Note_on_c, 1, 63, 84
4, 43943, Note_on_c, 1, 63, 0
4, 43944, Note_on_c, 1, 58, 84
4, 43967, Note_on_c, 1, 58, 0
4, 43968, Control_c, 1, 64, 0
4, 43968, Control_c, 1, 64, 127
4, 43992, Note_on_c, 1, 51, 84
4, 44015, Note_on_c, 1, 51, 0
4, 44016, Note_on_c, 1, 56, 84
4, 44039, Note_on_c, 1, 56, 0
4, 44040, Note_on_c, 1, 51, 84
4, 44063, Note_on_c, 1, 51, 0
4, 44064, Note_on_c, 1, 60, 84
4, 44087, Note_on_c, 1, 60, 0
4, 44088, Note_on_c, 1, 56, 84
4, 44111, Note_on_c, 1, 56, 0
4, 44112, Note_on_c, 1, 63, 84
4, 44135, Note_on_c, 1, 63, 0
4, 44136, Note_on_c, 1, 60, 84
4, 44159, Note_on_c, 1, 60, 0
4, 44160, Control_c, 1, 64, 0
4, 44160, Control_c, 1, 64, 127
4, 44184, Note_on_c, 1, 51, 84
4, 44207, Note_on_c, 1, 51, 0
4, 44208, Note_on_c, 1, 55, 84
4, 44231, Note_on_c, 1, 55, 0
4, 44232, Note_on_c, 1, 51, 84
4, 44255, Note_on_c, 1, 51, 0
4, 44256, Note_on_c, 1, 58, 84
4, 44279, Note_on_c, 1, 58, 0
4, 44280, Note_on_c, 1, 55, 84
4, 44303, Note_on_c, 1, 55, 0
4, 44304, Note_on_c, 1, 63, 84
4, 44327, Note_on_c, 1, 63, 0
4, 44328, Note_on_c, 1, 58, 84
4, 44351, Note_on_c, 1, 58, 0
4, 44352, Control_c, 1, 64, 0
4, 44352, Control_c, 1, 64, 127
4, 44376, Note_on_c, 1, 46, 84
4, 44399, Note_on_c, 1, 46, 0
4, 44400, Note_on_c, 1, 50, 84
4, 44423, Note_on_c, 1, 50, 0
4, 44424, Note_on_c, 1, 46, 84
4, 44447, Note_on_c, 1, 46, 0
4, 44448, Note_on_c, 1, 56, 84
4, 44471, Note_on_c, 1, 56, 0
4, 44472, Note_on_c, 1, 53, 84
4, 44495, Note_on_c, 1, 53, 0
4, 44496, Note_on_c, 1, 62, 84
4, 44519, Note_on_c, 1, 62, 0
4, 44520, Note_on_c, 1, 58, 84
4, 44543, Note_on_c, 1, 58, 0
4, 44544, Control_c, 1, 64, 0
4, 44544, Control_c, 1, 64, 127
4, 44544, Note_on_c, 1, 63, 75
4, 44544, Note_on_c, 1, 58, 75
4, 44544, Note_on_c, 1, 55, 75
4, 44721, Note_on_c, 1, 63, 0
4, 44721, Note_on_c, 1, 58, 0
4, 44721, Note_on_c, 1, 55, 0
4, 44736, Control_c, 1, 64, 0
4, 44736, Control_c, 1, 64, 127
4, 44736, Note_on_c, 1, 63, 75
4, 44736, Note_on_c, 1, 58, 75
4, 44736, Note_on_c, 1, 54, 75
4, 44913, Note_on_c, 1, 63, 0
4, 44913, Note_on_c, 1, 58, 0
4, 44913, Note_on_c, 1, 54, 0
4, 44928, Control_c, 1, 64, 0
4, 44928, Control_c, 1, 64, 127
4, 44928, Control_c, 1, 64, 127
4, 44928, Note_on_c, 1, 63, 75
4, 44928, Note_on_c, 1, 60, 75
4, 44928, Note_on_c, 1, 57, 75
4, 44928, Note_on_c, 1, 54, 75
4, 45105, Note_on_c, 1, 63, 0
4, 45105, Note_on_c, 1, 60, 0
4, 45105, Note_on_c, 1, 57, 0
4, 45105, Note_on_c, 1, 54, 0
4, 45120, Control_c, 1, 64, 0
4, 45120, Control_c, 1, 64, 127
4, 45120, Note_on_c, 1, 60, 75
4, 45120, Note_on_c, 1, 57, 75
4, 45120, Note_on_c, 1, 54, 75
4, 45120, Note_on_c, 1, 51, 75
4, 45297, Note_on_c, 1, 60, 0
4, 45297, Note_on_c, 1, 57, 0
4, 45297, Note_on_c, 1, 54, 0
4, 45297, Note_on_c, 1, 51, 0
4, 45312, Control_c, 1, 64, 0
4, 45312, Control_c, 1, 64, 127
4, 45312, Note_on_c, 1, 58, 75
4, 45312, Note_on_c, 1, 53, 75
4, 45312, Note_on_c, 1, 50, 75
4, 45489, Note_on_c, 1, 58, 0
4, 45489, Note_on_c, 1, 53, 0
4, 45489, Note_on_c, 1, 50, 0
4, 45504, Control_c, 1, 64, 0
4, 45504, Control_c, 1, 64, 127
4, 45504, Note_on_c, 1, 58, 75
4, 45504, Note_on_c, 1, 55, 75
4, 45504, Note_on_c, 1, 51, 75
4, 45593, Note_on_c, 1, 58, 0
4, 45593, Note_on_c, 1, 55, 0
4, 45593, Note_on_c, 1, 51, 0
4, 45648, Note_on_c, 1, 63, 75
4, 45693, Note_on_c, 1, 63, 0
4, 45696, Control_c, 1, 64, 0
4, 45696, Note_on_c, 1, 68, 75
4, 45741, Note_on_c, 1, 68, 0
4, 45744, Note_on_c, 1, 67, 75
4, 45789, Note_on_c, 1, 67, 0
4, 45792, Note_on_c, 1, 68, 78
4, 45837, Note_on_c, 1, 68, 0
4, 45840, Note_on_c, 1, 69, 81
4, 45885, Note_on_c, 1, 69, 0
4, 45888, Note_on_c, 1, 70, 84
4, 45977, Note_on_c, 1, 70, 0
4, 46032, Note_on_c, 1, 51, 75
4, 46077, Note_on_c, 1, 51, 0
4, 46080, Note_on_c, 1, 56, 76
4, 46125, Note_on_c, 1, 56, 0
4, 46128, Note_on_c, 1, 55, 78
4, 46173, Note_on_c, 1, 55, 0
4, 46176, Note_on_c, 1, 56, 80
4, 46221, Note_on_c, 1, 56, 0
4, 46224, Note_on_c, 1, 57, 82
4, 46269, Note_on_c, 1, 57, 0
4, 46272, Note_on_c, 1, 58, 84
4, 46361, Note_on_c, 1, 58, 0
4, 46464, Note_on_c, 1, 51, 61
4, 46487, Note_on_c, 1, 51, 0
4, 46488, Note_on_c, 1, 58, 61
4, 46511, Note_on_c, 1, 58, 0
4, 46512, Note_on_c, 1, 55, 61
4, 46535, Note_on_c, 1, 55, 0
4, 46536, Note_on_c, 1, 58, 61
4, 46559, Note_on_c, 1, 58, 0
4, 46560, Note_on_c, 1, 51, 61
4, 46583, Note_on_c, 1, 51, 0
4, 46584, Note_on_c, 1, 58, 61
4, 46607, Note_on_c, 1, 58, 0
4, 46608, Note_on_c, 1, 55, 61
4, 46631, Note_on_c, 1, 55, 0
4, 46632, Note_on_c, 1, 58, 61
4, 46655, Note_on_c, 1, 58, 0
4, 46656, Note_on_c, 1, 50, 61
4, 46679, Note_on_c, 1, 50, 0
4, 46680, Note_on_c, 1, 58, 61
4, 46703, Note_on_c, 1, 58, 0
4, 46704, Note_on_c, 1, 53, 61
4, 46727, Note_on_c, 1, 53, 0
4, 46728, Note_on_c, 1, 58, 61
4, 46751, Note_on_c, 1, 58, 0
4, 46752, Note_on_c, 1, 50, 61
4, 46775, Note_on_c, 1, 50, 0
4, 46776, Note_on_c, 1, 58, 61
4, 46799, Note_on_c, 1, 58, 0
4, 46800, Note_on_c, 1, 53, 61
4, 46823, Note_on_c, 1, 53, 0
4, 46824, Note_on_c, 1, 58, 61
4, 46847, Note_on_c, 1, 58, 0
4, 46848, Note_on_c, 1, 50, 61
4, 46871, Note_on_c, 1, 50, 0
4, 46872, Note_on_c, 1, 58, 61
4, 46895, Note_on_c, 1, 58, 0
4, 46896, Note_on_c, 1, 53, 61
4, 46919, Note_on_c, 1, 53, 0
4, 46920, Note_on_c, 1, 58, 61
4, 46943, Note_on_c, 1, 58, 0
4, 46944, Note_on_c, 1, 50, 61
4, 46967, Note_on_c, 1, 50, 0
4, 46968, Note_on_c, 1, 58, 61
4, 46991, Note_on_c, 1, 58, 0
4, 46992, Note_on_c, 1, 53, 61
4, 47015, Note_on_c, 1, 53, 0
4, 47016, Note_on_c, 1, 58, 61
4, 47039, Note_on_c, 1, 58, 0
4, 47040, Note_on_c, 1, 51, 61
4, 47063, Note_on_c, 1, 51, 0
4, 47064, Note_on_c, 1, 58, 61
4, 47087, Note_on_c, 1, 58, 0
4, 47088, Note_on_c, 1, 55, 61
4, 47111, Note_on_c, 1, 55, 0
4, 47112, Note_on_c, 1, 58, 61
4, 47135, Note_on_c, 1, 58, 0
4, 47136, Note_on_c, 1, 51, 61
4, 47159, Note_on_c, 1, 51, 0
4, 47160, Note_on_c, 1, 58, 61
4, 47183, Note_on_c, 1, 58, 0
4, 47184, Note_on_c, 1, 55, 61
4, 47207, Note_on_c, 1, 55, 0
4, 47208, Note_on_c, 1, 58, 61
4, 47231, Note_on_c, 1, 58, 0
4, 47232, Note_on_c, 1, 51, 61
4, 47255, Note_on_c, 1, 51, 0
4, 47256, Note_on_c, 1, 58, 61
4, 47279, Note_on_c, 1, 58, 0
4, 47280, Note_on_c, 1, 55, 61
4, 47303, Note_on_c, 1, 55, 0
4, 47304, Note_on_c, 1, 58, 61
4, 47327, Note_on_c, 1, 58, 0
4, 47328, Note_on_c, 1, 51, 61
4, 47351, Note_on_c, 1, 51, 0
4, 47352, Note_on_c, 1, 58, 61
4, 47375, Note_on_c, 1, 58, 0
4, 47376, Note_on_c, 1, 55, 61
4, 47399, Note_on_c, 1, 55, 0
4, 47400, Note_on_c, 1, 58, 61
4, 47423, Note_on_c, 1, 58, 0
4, 47424, Note_on_c, 1, 51, 61
4, 47447, Note_on_c, 1, 51, 0
4, 47448, Note_on_c, 1, 60, 61
4, 47471, Note_on_c, 1, 60, 0
4, 47472, Note_on_c, 1, 56, 61
4, 47495, Note_on_c, 1, 56, 0
4, 47496, Note_on_c, 1, 60, 61
4, 47519, Note_on_c, 1, 60, 0
4, 47520, Note_on_c, 1, 51, 61
4, 47543, Note_on_c, 1, 51, 0
4, 47544, Note_on_c, 1, 60, 61
4, 47567, Note_on_c, 1, 60, 0
4, 47568, Note_on_c, 1, 56, 61
4, 47591, Note_on_c, 1, 56, 0
4, 47592, Note_on_c, 1, 60, 61
4, 47615, Note_on_c, 1, 60, 0
4, 47616, Note_on_c, 1, 51, 61
4, 47639, Note_on_c, 1, 51, 0
4, 47640, Note_on_c, 1, 58, 61
4, 47663, Note_on_c, 1, 58, 0
4, 47664, Note_on_c, 1, 55, 61
4, 47687, Note_on_c, 1, 55, 0
4, 47688, Note_on_c, 1, 58, 61
4, 47711, Note_on_c, 1, 58, 0
4, 47712, Note_on_c, 1, 51, 61
4, 47735, Note_on_c, 1, 51, 0
4, 47736, Note_on_c, 1, 58, 61
4, 47759, Note_on_c, 1, 58, 0
4, 47760, Note_on_c, 1, 55, 61
4, 47783, Note_on_c, 1, 55, 0
4, 47784, Note_on_c, 1, 58, 61
4, 47807, Note_on_c, 1, 58, 0
4, 47808, Note_on_c, 1, 51, 61
4, 47831, Note_on_c, 1, 51, 0
4, 47832, Note_on_c, 1, 60, 61
4, 47855, Note_on_c, 1, 60, 0
4, 47856, Note_on_c, 1, 54, 61
4, 47879, Note_on_c, 1, 54, 0
4, 47880, Note_on_c, 1, 60, 61
4, 47903, Note_on_c, 1, 60, 0
4, 47904, Note_on_c, 1, 51, 61
4, 47927, Note_on_c, 1, 51, 0
4, 47928, Note_on_c, 1, 60, 61
4, 47951, Note_on_c, 1, 60, 0
4, 47952, Note_on_c, 1, 54, 61
4, 47975, Note_on_c, 1, 54, 0
4, 47976, Note_on_c, 1, 60, 61
4, 47999, Note_on_c, 1, 60, 0
4, 48000, Note_on_c, 1, 51, 61
4, 48023, Note_on_c, 1, 51, 0
4, 48024, Note_on_c, 1, 60, 61
4, 48047, Note_on_c, 1, 60, 0
4, 48048, Note_on_c, 1, 57, 61
4, 48071, Note_on_c, 1, 57, 0
4, 48072, Note_on_c, 1, 60, 61
4, 48095, Note_on_c, 1, 60, 0
4, 48096, Note_on_c, 1, 51, 61
4, 48119, Note_on_c, 1, 51, 0
4, 48120, Note_on_c, 1, 60, 61
4, 48143, Note_on_c, 1, 60, 0
4, 48144, Note_on_c, 1, 57, 61
4, 48167, Note_on_c, 1, 57, 0
4, 48168, Note_on_c, 1, 60, 61
4, 48191, Note_on_c, 1, 60, 0
4, 48192, Note_on_c, 1, 50, 61
4, 48215, Note_on_c, 1, 50, 0
4, 48216, Note_on_c, 1, 58, 61
4, 48239, Note_on_c, 1, 58, 0
4, 48240, Note_on_c, 1, 53, 61
4, 48263, Note_on_c, 1, 53, 0
4, 48264, Note_on_c, 1, 58, 61
4, 48287, Note_on_c, 1, 58, 0
4, 48288, Note_on_c, 1, 50, 61
4, 48311, Note_on_c, 1, 50, 0
4, 48312, Note_on_c, 1, 58, 61
4, 48335, Note_on_c, 1, 58, 0
4, 48336, Note_on_c, 1, 53, 61
4, 48359, Note_on_c, 1, 53, 0
4, 48360, Note_on_c, 1, 58, 61
4, 48383, Note_on_c, 1, 58, 0
4, 48384, Note_on_c, 1, 51, 61
4, 48407, Note_on_c, 1, 51, 0
4, 48408, Note_on_c, 1, 58, 61
4, 48431, Note_on_c, 1, 58, 0
4, 48432, Note_on_c, 1, 55, 61
4, 48455, Note_on_c, 1, 55, 0
4, 48456, Note_on_c, 1, 58, 61
4, 48479, Note_on_c, 1, 58, 0
4, 48480, Note_on_c, 1, 53, 61
4, 48503, Note_on_c, 1, 53, 0
4, 48504, Note_on_c, 1, 58, 61
4, 48527, Note_on_c, 1, 58, 0
4, 48528, Note_on_c, 1, 56, 61
4, 48551, Note_on_c, 1, 56, 0
4, 48552, Note_on_c, 1, 58, 61
4, 48575, Note_on_c, 1, 58, 0
4, 48576, Note_on_c, 1, 55, 61
4, 48599, Note_on_c, 1, 55, 0
4, 48600, Note_on_c, 1, 58, 61
4, 48623, Note_on_c, 1, 58, 0
4, 48624, Note_on_c, 1, 51, 61
4, 48647, Note_on_c, 1, 51, 0
4, 48648, Note_on_c, 1, 58, 61
4, 48671, Note_on_c, 1, 58, 0
4, 48672, Note_on_c, 1, 50, 61
4, 48695, Note_on_c, 1, 50, 0
4, 48696, Note_on_c, 1, 58, 61
4, 48719, Note_on_c, 1, 58, 0
4, 48720, Note_on_c, 1, 53, 61
4, 48743, Note_on_c, 1, 53, 0
4, 48744, Note_on_c, 1, 58, 61
4, 48767, Note_on_c, 1, 58, 0
4, 48768, Note_on_c, 1, 51, 61
4, 48791, Note_on_c, 1, 51, 0
4, 48792, Note_on_c, 1, 58, 61
4, 48815, Note_on_c, 1, 58, 0
4, 48816, Note_on_c, 1, 55, 61
4, 48839, Note_on_c, 1, 55, 0
4, 48840, Note_on_c, 1, 58, 61
4, 48863, Note_on_c, 1, 58, 0
4, 48864, Note_on_c, 1, 53, 61
4, 48887, Note_on_c, 1, 53, 0
4, 48888, Note_on_c, 1, 58, 61
4, 48911, Note_on_c, 1, 58, 0
4, 48912, Note_on_c, 1, 56, 61
4, 48935, Note_on_c, 1, 56, 0
4, 48936, Note_on_c, 1, 58, 61
4, 48959, Note_on_c, 1, 58, 0
4, 48960, Note_on_c, 1, 55, 61
4, 48983, Note_on_c, 1, 55, 0
4, 48984, Note_on_c, 1, 58, 61
4, 49007, Note_on_c, 1, 58, 0
4, 49008, Note_on_c, 1, 51, 61
4, 49031, Note_on_c, 1, 51, 0
4, 49032, Note_on_c, 1, 58, 61
4, 49055, Note_on_c, 1, 58, 0
4, 49056, Note_on_c, 1, 50, 61
4, 49079, Note_on_c, 1, 50, 0
4, 49080, Note_on_c, 1, 58, 61
4, 49103, Note_on_c, 1, 58, 0
4, 49104, Note_on_c, 1, 53, 61
4, 49127, Note_on_c, 1, 53, 0
4, 49128, Note_on_c, 1, 58, 61
4, 49151, Note_on_c, 1, 58, 0
4, 49152, Note_on_c, 1, 51, 61
4, 49241, Note_on_c, 1, 51, 0
4, 49248, Note_on_c, 1, 55, 65
4, 49337, Note_on_c, 1, 55, 0
4, 49344, Note_on_c, 1, 56, 70
4, 49433, Note_on_c, 1, 56, 0
4, 49584, Note_on_c, 1, 55, 75
4, 49629, Note_on_c, 1, 55, 0
4, 49632, Note_on_c, 1, 56, 75
4, 49677, Note_on_c, 1, 56, 0
4, 49680, Note_on_c, 1, 58, 75
4, 49725, Note_on_c, 1, 58, 0
4, 49728, Note_on_c, 1, 51, 75
4, 49817, Note_on_c, 1, 51, 0
4, 49872, Note_on_c, 1, 67, 61
4, 49872, Note_on_c, 1, 63, 61
4, 49917, Note_on_c, 1, 67, 0
4, 49917, Note_on_c, 1, 63, 0
4, 49920, Note_on_c, 1, 65, 61
4, 49920, Note_on_c, 1, 62, 61
4, 50009, Note_on_c, 1, 65, 0
4, 50009, Note_on_c, 1, 62, 0
4, 50016, Note_on_c, 1, 63, 61
4, 50016, Note_on_c, 1, 60, 61
4, 50064, Note_on_c, 1, 63, 0
4, 50064, Note_on_c, 1, 69, 61
4, 50109, Note_on_c, 1, 69, 0
4, 50109, Note_on_c, 1, 60, 0
4, 50112, Note_on_c, 1, 70, 61
4, 50112, Note_on_c, 1, 58, 61
4, 50157, Note_on_c, 1, 70, 0
4, 50157, Note_on_c, 1, 58, 0
4, 50160, Note_on_c, 1, 67, 61
4, 50160, Note_on_c, 1, 60, 61
4, 50205, Note_on_c, 1, 67, 0
4, 50205, Note_on_c, 1, 60, 0
4, 50256, Note_on_c, 1, 63, 61
4, 50256, Note_on_c, 1, 60, 61
4, 50301, Note_on_c, 1, 63, 0
4, 50301, Note_on_c, 1, 60, 0
4, 50304, Note_on_c, 1, 62, 61
4, 50304, Note_on_c, 1, 58, 61
4, 50393, Note_on_c, 1, 62, 0
4, 50393, Note_on_c, 1, 58, 0
4, 50400, Note_on_c, 1, 60, 61
4, 50400, Note_on_c, 1, 57, 61
4, 50448, Note_on_c, 1, 60, 0
4, 50448, Note_on_c, 1, 66, 61
4, 50493, Note_on_c, 1, 66, 0
4, 50493, Note_on_c, 1, 57, 0
4, 50496, Note_on_c, 1, 67, 61
4, 50496, Note_on_c, 1, 55, 61
4, 50541, Note_on_c, 1, 67, 0
4, 50541, Note_on_c, 1, 55, 0
4, 50544, Note_on_c, 1, 63, 61
4, 50544, Note_on_c, 1, 56, 61
4, 50589, Note_on_c, 1, 63, 0
4, 50589, Note_on_c, 1, 56, 0
4, 50640, Note_on_c, 1, 60, 61
4, 50640, Note_on_c, 1, 56, 61
4, 50685, Note_on_c, 1, 60, 0
4, 50685, Note_on_c, 1, 56, 0
4, 50688, Note_on_c, 1, 58, 61
4, 50688, Note_on_c, 1, 55, 61
4, 50777, Note_on_c, 1, 58, 0
4, 50777, Note_on_c, 1, 55, 0
4, 50784, Note_on_c, 1, 56, 61
4, 50784, Note_on_c, 1, 53, 61
4, 50832, Note_on_c, 1, 56, 0
4, 50832, Note_on_c, 1, 62, 61
4, 50877, Note_on_c, 1, 62, 0
4, 50877, Note_on_c, 1, 53, 0
4, 50880, Note_on_c, 1, 63, 61
4, 50880, Note_on_c, 1, 58, 61
4, 50880, Note_on_c, 1, 51, 61
4, 50969, Note_on_c, 1, 63, 0
4, 50969, Note_on_c, 1, 58, 0
4, 50969, Note_on_c, 1, 51, 0
4, 50976, Note_on_c, 1, 62, 61
4, 50976, Note_on_c, 1, 58, 61
4, 50976, Note_on_c, 1, 53, 61
4, 51065, Note_on_c, 1, 62, 0
4, 51065, Note_on_c, 1, 58, 0
4, 51065, Note_on_c, 1, 53, 0
4, 51072, Note_on_c, 1, 63, 61
4, 51072, Note_on_c, 1, 58, 61
4, 51072, Note_on_c, 1, 51, 61
4, 51161, Note_on_c, 1, 63, 0
4, 51161, Note_on_c, 1, 58, 0
4, 51161, Note_on_c, 1, 51, 0
4, 51168, Note_on_c, 1, 62, 61
4, 51168, Note_on_c, 1, 58, 61
4, 51168, Note_on_c, 1, 53, 61
4, 51257, Note_on_c, 1, 62, 0
4, 51257, Note_on_c, 1, 58, 0
4, 51257, Note_on_c, 1, 53, 0
4, 51264, Note_on_c, 1, 51, 61
4, 51287, Note_on_c, 1, 51, 0
4, 51288, Note_on_c, 1, 63, 61
4, 51311, Note_on_c, 1, 63, 0
4, 51312, Note_on_c, 1, 58, 61
4, 51335, Note_on_c, 1, 58, 0
4, 51336, Note_on_c, 1, 63, 61
4, 51359, Note_on_c, 1, 63, 0
4, 51360, Note_on_c, 1, 53, 61
4, 51383, Note_on_c, 1, 53, 0
4, 51384, Note_on_c, 1, 63, 61
4, 51407, Note_on_c, 1, 63, 0
4, 51408, Note_on_c, 1, 58, 61
4, 51431, Note_on_c, 1, 58, 0
4, 51432, Note_on_c, 1, 63, 61
4, 51455, Note_on_c, 1, 63, 0
4, 51456, Note_on_c, 1, 55, 61
4, 51479, Note_on_c, 1, 55, 0
4, 51480, Note_on_c, 1, 63, 61
4, 51503, Note_on_c, 1, 63, 0
4, 51504, Note_on_c, 1, 58, 61
4, 51527, Note_on_c, 1, 58, 0
4, 51528, Note_on_c, 1, 63, 61
4, 51551, Note_on_c, 1, 63, 0
4, 51552, Note_on_c, 1, 55, 61
4, 51575, Note_on_c, 1, 55, 0
4, 51576, Note_on_c, 1, 63, 61
4, 51599, Note_on_c, 1, 63, 0
4, 51600, Note_on_c, 1, 58, 61
4, 51623, Note_on_c, 1, 58, 0
4, 51624, Note_on_c, 1, 63, 61
4, 51647, Note_on_c, 1, 63, 0
4, 51648, Note_on_c, 1, 56, 61
4, 51671, Note_on_c, 1, 56, 0
4, 51672, Note_on_c, 1, 63, 61
4, 51695, Note_on_c, 1, 63, 0
4, 51696, Note_on_c, 1, 60, 61
4, 51719, Note_on_c, 1, 60, 0
4, 51720, Note_on_c, 1, 63, 61
4, 51743, Note_on_c, 1, 63, 0
4, 51744, Note_on_c, 1, 56, 61
4, 51767, Note_on_c, 1, 56, 0
4, 51768, Note_on_c, 1, 63, 61
4, 51791, Note_on_c, 1, 63, 0
4, 51792, Note_on_c, 1, 55, 61
4, 51815, Note_on_c, 1, 55, 0
4, 51816, Note_on_c, 1, 63, 61
4, 51839, Note_on_c, 1, 63, 0
4, 51840, Note_on_c, 1, 56, 61
4, 51863, Note_on_c, 1, 56, 0
4, 51864, Note_on_c, 1, 63, 61
4, 51887, Note_on_c, 1, 63, 0
4, 51888, Note_on_c, 1, 55, 61
4, 51911, Note_on_c, 1, 55, 0
4, 51912, Note_on_c, 1, 63, 61
4, 51935, Note_on_c, 1, 63, 0
4, 51936, Note_on_c, 1, 56, 61
4, 51959, Note_on_c, 1, 56, 0
4, 51960, Note_on_c, 1, 63, 61
4, 51983, Note_on_c, 1, 63, 0
4, 51984, Note_on_c, 1, 55, 61
4, 52007, Note_on_c, 1, 55, 0
4, 52008, Note_on_c, 1, 63, 61
4, 52031, Note_on_c, 1, 63, 0
4, 52032, Control_c, 1, 64, 127
4, 52032, Note_on_c, 1, 56, 61
4, 52055, Note_on_c, 1, 56, 0
4, 52056, Note_on_c, 1, 63, 61
4, 52079, Note_on_c, 1, 63, 0
4, 52080, Note_on_c, 1, 60, 61
4, 52103, Note_on_c, 1, 60, 0
4, 52104, Control_c, 1, 64, 0
4, 52104, Note_on_c, 1, 63, 61
4, 52127, Note_on_c, 1, 63, 0
4, 52128, Control_c, 1, 64, 127
4, 52128, Note_on_c, 1, 56, 61
4, 52151, Note_on_c, 1, 56, 0
4, 52152, Note_on_c, 1, 64, 61
4, 52175, Note_on_c, 1, 64, 0
4, 52176, Note_on_c, 1, 60, 61
4, 52199, Note_on_c, 1, 60, 0
4, 52200, Control_c, 1, 64, 0
4, 52200, Note_on_c, 1, 64, 61
4, 52223, Note_on_c, 1, 64, 0
4, 52224, Control_c, 1, 64, 127
4, 52224, Note_on_c, 1, 56, 61
4, 52247, Note_on_c, 1, 56, 0
4, 52248, Note_on_c, 1, 65, 61
4, 52271, Note_on_c, 1, 65, 0
4, 52272, Note_on_c, 1, 60, 61
4, 52295, Note_on_c, 1, 60, 0
4, 52296, Note_on_c, 1, 65, 61
4, 52319, Note_on_c, 1, 65, 0
4, 52320, Control_c, 1, 64, 0
4, 52320, Note_on_c, 1, 56, 61
4, 52343, Note_on_c, 1, 56, 0
4, 52344, Note_on_c, 1, 65, 61
4, 52367, Note_on_c, 1, 65, 0
4, 52368, Note_on_c, 1, 60, 61
4, 52391, Note_on_c, 1, 60, 0
4, 52392, Note_on_c, 1, 65, 61
4, 52415, Note_on_c, 1, 65, 0
4, 52416, Note_on_c, 1, 58, 61
4, 52439, Note_on_c, 1, 58, 0
4, 52440, Note_on_c, 1, 67, 61
4, 52463, Note_on_c, 1, 67, 0
4, 52464, Note_on_c, 1, 63, 61
4, 52487, Note_on_c, 1, 63, 0
4, 52488, Note_on_c, 1, 67, 61
4, 52511, Note_on_c, 1, 67, 0
4, 52512, Note_on_c, 1, 58, 61
4, 52535, Note_on_c, 1, 58, 0
4, 52536, Note_on_c, 1, 67, 61
4, 52559, Note_on_c, 1, 67, 0
4, 52560, Note_on_c, 1, 63, 61
4, 52583, Note_on_c, 1, 63, 0
4, 52584, Note_on_c, 1, 67, 61
4, 52607, Note_on_c, 1, 67, 0
4, 52608, Note_on_c, 1, 58, 61
4, 52631, Note_on_c, 1, 58, 0
4, 52632, Note_on_c, 1, 67, 61
4, 52655, Note_on_c, 1, 67, 0
4, 52656, Note_on_c, 1, 63, 61
4, 52679, Note_on_c, 1, 63, 0
4, 52680, Note_on_c, 1, 67, 61
4, 52703, Note_on_c, 1, 67, 0
4, 52704, Note_on_c, 1, 58, 61
4, 52727, Note_on_c, 1, 58, 0
4, 52728, Note_on_c, 1, 67, 61
4, 52751, Note_on_c, 1, 67, 0
4, 52752, Note_on_c, 1, 63, 61
4, 52775, Note_on_c, 1, 63, 0
4, 52776, Note_on_c, 1, 67, 61
4, 52799, Note_on_c, 1, 67, 0
4, 52800, Note_on_c, 1, 58, 61
4, 52823, Note_on_c, 1, 58, 0
4, 52824, Note_on_c, 1, 67, 61
4, 52847, Note_on_c, 1, 67, 0
4, 52848, Note_on_c, 1, 63, 61
4, 52871, Note_on_c, 1, 63, 0
4, 52872, Note_on_c, 1, 67, 61
4, 52895, Note_on_c, 1, 67, 0
4, 52896, Note_on_c, 1, 58, 61
4, 52919, Note_on_c, 1, 58, 0
4, 52920, Note_on_c, 1, 67, 61
4, 52943, Note_on_c, 1, 67, 0
4, 52944, Note_on_c, 1, 63, 61
4, 52967, Note_on_c, 1, 63, 0
4, 52968, Note_on_c, 1, 67, 61
4, 52991, Note_on_c, 1, 67, 0
4, 52992, Note_on_c, 1, 58, 61
4, 53015, Note_on_c, 1, 58, 0
4, 53016, Note_on_c, 1, 68, 61
4, 53039, Note_on_c, 1, 68, 0
4, 53040, Note_on_c, 1, 65, 61
4, 53063, Note_on_c, 1, 65, 0
4, 53064, Note_on_c, 1, 68, 61
4, 53087, Note_on_c, 1, 68, 0
4, 53088, Note_on_c, 1, 58, 61
4, 53111, Note_on_c, 1, 58, 0
4, 53112, Note_on_c, 1, 68, 61
4, 53135, Note_on_c, 1, 68, 0
4, 53136, Note_on_c, 1, 65, 61
4, 53159, Note_on_c, 1, 65, 0
4, 53160, Note_on_c, 1, 68, 61
4, 53183, Note_on_c, 1, 68, 0
4, 53184, Note_on_c, 1, 67, 61
4, 53184, Note_on_c, 1, 63, 61
4, 53273, Note_on_c, 1, 67, 0
4, 53273, Note_on_c, 1, 63, 0
4, 53280, Note_on_c, 1, 63, 75
4, 53280, Note_on_c, 1, 55, 75
4, 53369, Note_on_c, 1, 63, 0
4, 53369, Note_on_c, 1, 55, 0
4, 53376, Note_on_c, 1, 63, 75
4, 53376, Note_on_c, 1, 56, 75
4, 53465, Note_on_c, 1, 63, 0
4, 53465, Note_on_c, 1, 56, 0
4, 53472, Note_on_c, 1, 62, 75
4, 53472, Note_on_c, 1, 58, 75
4, 53561, Note_on_c, 1, 62, 0
4, 53561, Note_on_c, 1, 58, 0
4, 53568, Note_on_c, 1, 63, 75
4, 53568, Note_on_c, 1, 51, 75
4, 53657, Note_on_c, 1, 63, 0
4, 53657, Note_on_c, 1, 51, 0
4, 53664, Note_on_c, 1, 63, 75
4, 53664, Note_on_c, 1, 55, 75
4, 53753, Note_on_c, 1, 63, 0
4, 53753, Note_on_c, 1, 55, 0
4, 53760, Note_on_c, 1, 63, 75
4, 53760, Note_on_c, 1, 56, 75
4, 53849, Note_on_c, 1, 63, 0
4, 53849, Note_on_c, 1, 56, 0
4, 53856, Note_on_c, 1, 58, 75
4, 53856, Note_on_c, 1, 46, 75
4, 53945, Note_on_c, 1, 58, 0
4, 53945, Note_on_c, 1, 46, 0
4, 53952, Note_on_c, 1, 55, 75
4, 53952, Note_on_c, 1, 51, 75
4, 54046, Note_on_c, 1, 55, 0
4, 54046, Note_on_c, 1, 51, 0
4, 54144, Note_on_c, 1, 58, 61
4, 54167, Note_on_c, 1, 58, 0
4, 54168, Note_on_c, 1, 65, 61
4, 54191, Note_on_c, 1, 65, 0
4, 54192, Note_on_c, 1, 61, 61
4, 54215, Note_on_c, 1, 61, 0
4, 54216, Note_on_c, 1, 65, 61
4, 54239, Note_on_c, 1, 65, 0
4, 54240, Note_on_c, 1, 58, 61
4, 54263, Note_on_c, 1, 58, 0
4, 54264, Note_on_c, 1, 65, 61
4, 54287, Note_on_c, 1, 65, 0
4, 54288, Note_on_c, 1, 61, 61
4, 54311, Note_on_c, 1, 61, 0
4, 54312, Note_on_c, 1, 65, 61
4, 54335, Note_on_c, 1, 65, 0
4, 54336, Note_on_c, 1, 58, 61
4, 54359, Note_on_c, 1, 58, 0
4, 54360, Note_on_c, 1, 65, 61
4, 54383, Note_on_c, 1, 65, 0
4, 54384, Note_on_c, 1, 61, 61
4, 54407, Note_on_c, 1, 61, 0
4, 54408, Note_on_c, 1, 65, 61
4, 54431, Note_on_c, 1, 65, 0
4, 54432, Note_on_c, 1, 58, 61
4, 54455, Note_on_c, 1, 58, 0
4, 54456, Note_on_c, 1, 65, 61
4, 54479, Note_on_c, 1, 65, 0
4, 54480, Note_on_c, 1, 61, 61
4, 54503, Note_on_c, 1, 61, 0
4, 54504, Note_on_c, 1, 65, 61
4, 54527, Note_on_c, 1, 65, 0
4, 54528, Note_on_c, 1, 58, 61
4, 54551, Note_on_c, 1, 58, 0
4, 54552, Note_on_c, 1, 67, 61
4, 54575, Note_on_c, 1, 67, 0
4, 54576, Note_on_c, 1, 61, 61
4, 54599, Note_on_c, 1, 61, 0
4, 54600, Note_on_c, 1, 67, 61
4, 54623, Note_on_c, 1, 67, 0
4, 54624, Note_on_c, 1, 58, 61
4, 54647, Note_on_c, 1, 58, 0
4, 54648, Note_on_c, 1, 67, 61
4, 54671, Note_on_c, 1, 67, 0
4, 54672, Note_on_c, 1, 61, 61
4, 54695, Note_on_c, 1, 61, 0
4, 54696, Note_on_c, 1, 67, 61
4, 54719, Note_on_c, 1, 67, 0
4, 54720, Note_on_c, 1, 58, 61
4, 54743, Note_on_c, 1, 58, 0
4, 54744, Note_on_c, 1, 67, 61
4, 54767, Note_on_c, 1, 67, 0
4, 54768, Note_on_c, 1, 60, 61
4, 54791, Note_on_c, 1, 60, 0
4, 54792, Note_on_c, 1, 67, 61
4, 54815, Note_on_c, 1, 67, 0
4, 54816, Note_on_c, 1, 58, 61
4, 54839, Note_on_c, 1, 58, 0
4, 54840, Note_on_c, 1, 67, 61
4, 54863, Note_on_c, 1, 67, 0
4, 54864, Note_on_c, 1, 64, 61
4, 54887, Note_on_c, 1, 64, 0
4, 54888, Note_on_c, 1, 67, 61
4, 54911, Note_on_c, 1, 67, 0
4, 54912, Note_on_c, 1, 56, 61
4, 54935, Note_on_c, 1, 56, 0
4, 54936, Note_on_c, 1, 65, 61
4, 54959, Note_on_c, 1, 65, 0
4, 54960, Note_on_c, 1, 60, 61
4, 54983, Note_on_c, 1, 60, 0
4, 54984, Note_on_c, 1, 65, 61
4, 55007, Note_on_c, 1, 65, 0
4, 55008, Note_on_c, 1, 56, 61
4, 55031, Note_on_c, 1, 56, 0
4, 55032, Note_on_c, 1, 65, 61
4, 55055, Note_on_c, 1, 65, 0
4, 55056, Note_on_c, 1, 60, 61
4, 55079, Note_on_c, 1, 60, 0
4, 55080, Note_on_c, 1, 65, 61
4, 55103, Note_on_c, 1, 65, 0
4, 55104, Note_on_c, 1, 56, 61
4, 55127, Note_on_c, 1, 56, 0
4, 55128, Note_on_c, 1, 65, 61
4, 55151, Note_on_c, 1, 65, 0
4, 55152, Note_on_c, 1, 60, 61
4, 55175, Note_on_c, 1, 60, 0
4, 55176, Note_on_c, 1, 65, 61
4, 55199, Note_on_c, 1, 65, 0
4, 55200, Note_on_c, 1, 56, 61
4, 55223, Note_on_c, 1, 56, 0
4, 55224, Note_on_c, 1, 65, 61
4, 55247, Note_on_c, 1, 65, 0
4, 55248, Note_on_c, 1, 60, 61
4, 55271, Note_on_c, 1, 60, 0
4, 55272, Note_on_c, 1, 65, 61
4, 55295, Note_on_c, 1, 65, 0
4, 55296, Note_on_c, 1, 56, 61
4, 55319, Note_on_c, 1, 56, 0
4, 55320, Note_on_c, 1, 65, 61
4, 55343, Note_on_c, 1, 65, 0
4, 55344, Note_on_c, 1, 60, 61
4, 55367, Note_on_c, 1, 60, 0
4, 55368, Note_on_c, 1, 65, 61
4, 55391, Note_on_c, 1, 65, 0
4, 55392, Note_on_c, 1, 56, 61
4, 55415, Note_on_c, 1, 56, 0
4, 55416, Note_on_c, 1, 65, 61
4, 55439, Note_on_c, 1, 65, 0
4, 55440, Note_on_c, 1, 60, 61
4, 55463, Note_on_c, 1, 60, 0
4, 55464, Note_on_c, 1, 65, 61
4, 55487, Note_on_c, 1, 65, 0
4, 55488, Note_on_c, 1, 56, 61
4, 55511, Note_on_c, 1, 56, 0
4, 55512, Note_on_c, 1, 63, 61
4, 55535, Note_on_c, 1, 63, 0
4, 55536, Note_on_c, 1, 60, 61
4, 55559, Note_on_c, 1, 60, 0
4, 55560, Note_on_c, 1, 63, 61
4, 55583, Note_on_c, 1, 63, 0
4, 55584, Note_on_c, 1, 56, 61
4, 55607, Note_on_c, 1, 56, 0
4, 55608, Note_on_c, 1, 63, 61
4, 55631, Note_on_c, 1, 63, 0
4, 55632, Note_on_c, 1, 60, 61
4, 55655, Note_on_c, 1, 60, 0
4, 55656, Note_on_c, 1, 63, 61
4, 55679, Note_on_c, 1, 63, 0
4, 55680, Note_on_c, 1, 55, 61
4, 55703, Note_on_c, 1, 55, 0
4, 55704, Note_on_c, 1, 63, 61
4, 55727, Note_on_c, 1, 63, 0
4, 55728, Note_on_c, 1, 60, 61
4, 55751, Note_on_c, 1, 60, 0
4, 55752, Note_on_c, 1, 63, 61
4, 55775, Note_on_c, 1, 63, 0
4, 55776, Note_on_c, 1, 55, 61
4, 55799, Note_on_c, 1, 55, 0
4, 55800, Note_on_c, 1, 63, 61
4, 55823, Note_on_c, 1, 63, 0
4, 55824, Note_on_c, 1, 60, 61
4, 55847, Note_on_c, 1, 60, 0
4, 55848, Note_on_c, 1, 63, 61
4, 55871, Note_on_c, 1, 63, 0
4, 55872, Note_on_c, 1, 55, 61
4, 55895, Note_on_c, 1, 55, 0
4, 55896, Note_on_c, 1, 63, 61
4, 55919, Note_on_c, 1, 63, 0
4, 55920, Note_on_c, 1, 60, 61
4, 55943, Note_on_c, 1, 60, 0
4, 55944, Note_on_c, 1, 63, 61
4, 55967, Note_on_c, 1, 63, 0
4, 55968, Note_on_c, 1, 55, 61
4, 55991, Note_on_c, 1, 55, 0
4, 55992, Note_on_c, 1, 63, 61
4, 56015, Note_on_c, 1, 63, 0
4, 56016, Note_on_c, 1, 60, 61
4, 56039, Note_on_c, 1, 60, 0
4, 56040, Note_on_c, 1, 63, 61
4, 56063, Note_on_c, 1, 63, 0
4, 56064, Note_on_c, 1, 55, 61
4, 56087, Note_on_c, 1, 55, 0
4, 56088, Note_on_c, 1, 62, 61
4, 56111, Note_on_c, 1, 62, 0
4, 56112, Note_on_c, 1, 59, 61
4, 56135, Note_on_c, 1, 59, 0
4, 56136, Note_on_c, 1, 62, 61
4, 56159, Note_on_c, 1, 62, 0
4, 56160, Note_on_c, 1, 59, 61
4, 56183, Note_on_c, 1, 59, 0
4, 56184, Note_on_c, 1, 67, 61
4, 56207, Note_on_c, 1, 67, 0
4, 56208, Note_on_c, 1, 62, 61
4, 56231, Note_on_c, 1, 62, 0
4, 56232, Note_on_c, 1, 67, 61
4, 56255, Note_on_c, 1, 67, 0
4, 56256, Note_on_c, 1, 60, 61
4, 56279, Note_on_c, 1, 60, 0
4, 56280, Note_on_c, 1, 67, 61
4, 56303, Note_on_c, 1, 67, 0
4, 56304, Note_on_c, 1, 63, 61
4, 56327, Note_on_c, 1, 63, 0
4, 56328, Note_on_c, 1, 67, 61
4, 56351, Note_on_c, 1, 67, 0
4, 56352, Note_on_c, 1, 62, 61
4, 56375, Note_on_c, 1, 62, 0
4, 56376, Note_on_c, 1, 67, 61
4, 56399, Note_on_c, 1, 67, 0
4, 56400, Note_on_c, 1, 65, 61
4, 56423, Note_on_c, 1, 65, 0
4, 56424, Note_on_c, 1, 67, 61
4, 56447, Note_on_c, 1, 67, 0
4, 56448, Note_on_c, 1, 63, 61
4, 56471, Note_on_c, 1, 63, 0
4, 56472, Note_on_c, 1, 67, 61
4, 56495, Note_on_c, 1, 67, 0
4, 56496, Note_on_c, 1, 60, 61
4, 56519, Note_on_c, 1, 60, 0
4, 56520, Note_on_c, 1, 67, 61
4, 56543, Note_on_c, 1, 67, 0
4, 56544, Note_on_c, 1, 59, 61
4, 56567, Note_on_c, 1, 59, 0
4, 56568, Note_on_c, 1, 67, 61
4, 56591, Note_on_c, 1, 67, 0
4, 56592, Note_on_c, 1, 62, 61
4, 56615, Note_on_c, 1, 62, 0
4, 56616, Note_on_c, 1, 67, 61
4, 56639, Note_on_c, 1, 67, 0
4, 56640, Note_on_c, 1, 60, 61
4, 56663, Note_on_c, 1, 60, 0
4, 56664, Note_on_c, 1, 67, 61
4, 56687, Note_on_c, 1, 67, 0
4, 56688, Note_on_c, 1, 63, 61
4, 56711, Note_on_c, 1, 63, 0
4, 56712, Note_on_c, 1, 67, 61
4, 56735, Note_on_c, 1, 67, 0
4, 56736, Note_on_c, 1, 62, 61
4, 56759, Note_on_c, 1, 62, 0
4, 56760, Note_on_c, 1, 67, 61
4, 56783, Note_on_c, 1, 67, 0
4, 56784, Note_on_c, 1, 65, 61
4, 56807, Note_on_c, 1, 65, 0
4, 56808, Note_on_c, 1, 67, 61
4, 56831, Note_on_c, 1, 67, 0
4, 56832, Note_on_c, 1, 63, 61
4, 56855, Note_on_c, 1, 63, 0
4, 56856, Note_on_c, 1, 67, 61
4, 56879, Note_on_c, 1, 67, 0
4, 56880, Note_on_c, 1, 60, 61
4, 56903, Note_on_c, 1, 60, 0
4, 56904, Note_on_c, 1, 67, 61
4, 56927, Note_on_c, 1, 67, 0
4, 56928, Note_on_c, 1, 59, 61
4, 56951, Note_on_c, 1, 59, 0
4, 56952, Note_on_c, 1, 67, 61
4, 56975, Note_on_c, 1, 67, 0
4, 56976, Note_on_c, 1, 62, 61
4, 56999, Note_on_c, 1, 62, 0
4, 57000, Note_on_c, 1, 67, 61
4, 57023, Note_on_c, 1, 67, 0
4, 57024, Note_on_c, 1, 60, 61
4, 57047, Note_on_c, 1, 60, 0
4, 57048, Note_on_c, 1, 68, 61
4, 57071, Note_on_c, 1, 68, 0
4, 57072, Note_on_c, 1, 63, 61
4, 57095, Note_on_c, 1, 63, 0
4, 57096, Note_on_c, 1, 68, 61
4, 57119, Note_on_c, 1, 68, 0
4, 57120, Note_on_c, 1, 62, 61
4, 57143, Note_on_c, 1, 62, 0
4, 57144, Note_on_c, 1, 70, 61
4, 57167, Note_on_c, 1, 70, 0
4, 57168, Note_on_c, 1, 65, 61
4, 57191, Note_on_c, 1, 65, 0
4, 57192, Note_on_c, 1, 70, 61
4, 57215, Note_on_c, 1, 70, 0
4, 57216, Note_on_c, 1, 63, 61
4, 57239, Note_on_c, 1, 63, 0
4, 57240, Note_on_c, 1, 70, 61
4, 57263, Note_on_c, 1, 70, 0
4, 57264, Note_on_c, 1, 67, 61
4, 57287, Note_on_c, 1, 67, 0
4, 57288, Note_on_c, 1, 70, 61
4, 57311, Note_on_c, 1, 70, 0
4, 57312, Note_on_c, 1, 65, 61
4, 57335, Note_on_c, 1, 65, 0
4, 57336, Note_on_c, 1, 70, 61
4, 57359, Note_on_c, 1, 70, 0
4, 57360, Note_on_c, 1, 68, 61
4, 57383, Note_on_c, 1, 68, 0
4, 57384, Note_on_c, 1, 70, 61
4, 57407, Note_on_c, 1, 70, 0
4, 57408, Note_on_c, 1, 67, 61
4, 57431, Note_on_c, 1, 67, 0
4, 57432, Note_on_c, 1, 70, 61
4, 57455, Note_on_c, 1, 70, 0
4, 57456, Note_on_c, 1, 63, 61
4, 57479, Note_on_c, 1, 63, 0
4, 57480, Note_on_c, 1, 70, 61
4, 57503, Note_on_c, 1, 70, 0
4, 57504, Note_on_c, 1, 62, 61
4, 57527, Note_on_c, 1, 62, 0
4, 57528, Note_on_c, 1, 70, 61
4, 57551, Note_on_c, 1, 70, 0
4, 57552, Note_on_c, 1, 65, 61
4, 57575, Note_on_c, 1, 65, 0
4, 57576, Note_on_c, 1, 70, 61
4, 57599, Note_on_c, 1, 70, 0
4, 57600, Note_on_c, 1, 63, 61
4, 57623, Note_on_c, 1, 63, 0
4, 57624, Note_on_c, 1, 70, 61
4, 57647, Note_on_c, 1, 70, 0
4, 57648, Note_on_c, 1, 67, 61
4, 57671, Note_on_c, 1, 67, 0
4, 57672, Note_on_c, 1, 70, 61
4, 57695, Note_on_c, 1, 70, 0
4, 57696, Note_on_c, 1, 65, 61
4, 57719, Note_on_c, 1, 65, 0
4, 57720, Note_on_c, 1, 70, 61
4, 57743, Note_on_c, 1, 70, 0
4, 57744, Note_on_c, 1, 68, 61
4, 57767, Note_on_c, 1, 68, 0
4, 57768, Note_on_c, 1, 70, 61
4, 57791, Note_on_c, 1, 70, 0
4, 57792, Note_on_c, 1, 67, 61
4, 57815, Note_on_c, 1, 67, 0
4, 57816, Note_on_c, 1, 70, 61
4, 57839, Note_on_c, 1, 70, 0
4, 57840, Note_on_c, 1, 63, 61
4, 57863, Note_on_c, 1, 63, 0
4, 57864, Note_on_c, 1, 70, 61
4, 57887, Note_on_c, 1, 70, 0
4, 57888, Note_on_c, 1, 62, 61
4, 57911, Note_on_c, 1, 62, 0
4, 57912, Note_on_c, 1, 70, 61
4, 57935, Note_on_c, 1, 70, 0
4, 57936, Note_on_c, 1, 65, 61
4, 57959, Note_on_c, 1, 65, 0
4, 57960, Note_on_c, 1, 70, 61
4, 57983, Note_on_c, 1, 70, 0
4, 57984, Note_on_c, 1, 63, 61
4, 58007, Note_on_c, 1, 63, 0
4, 58008, Note_on_c, 1, 70, 61
4, 58031, Note_on_c, 1, 70, 0
4, 58032, Note_on_c, 1, 67, 61
4, 58055, Note_on_c, 1, 67, 0
4, 58056, Note_on_c, 1, 70, 61
4, 58079, Note_on_c, 1, 70, 0
4, 58080, Note_on_c, 1, 61, 61
4, 58103, Note_on_c, 1, 61, 0
4, 58104, Note_on_c, 1, 70, 61
4, 58127, Note_on_c, 1, 70, 0
4, 58128, Note_on_c, 1, 67, 61
4, 58151, Note_on_c, 1, 67, 0
4, 58152, Note_on_c, 1, 70, 61
4, 58175, Note_on_c, 1, 70, 0
4, 58176, Note_on_c, 1, 60, 61
4, 58199, Note_on_c, 1, 60, 0
4, 58200, Note_on_c, 1, 68, 61
4, 58223, Note_on_c, 1, 68, 0
4, 58224, Note_on_c, 1, 63, 61
4, 58247, Note_on_c, 1, 63, 0
4, 58248, Note_on_c, 1, 68, 61
4, 58271, Note_on_c, 1, 68, 0
4, 58272, Note_on_c, 1, 60, 61
4, 58295, Note_on_c, 1, 60, 0
4, 58296, Note_on_c, 1, 68, 61
4, 58319, Note_on_c, 1, 68, 0
4, 58320, Note_on_c, 1, 63, 61
4, 58343, Note_on_c, 1, 63, 0
4, 58344, Note_on_c, 1, 68, 61
4, 58367, Note_on_c, 1, 68, 0
4, 58368, Note_on_c, 1, 58, 61
4, 58391, Note_on_c, 1, 58, 0
4, 58392, Note_on_c, 1, 68, 61
4, 58415, Note_on_c, 1, 68, 0
4, 58416, Note_on_c, 1, 65, 61
4, 58439, Note_on_c, 1, 65, 0
4, 58440, Note_on_c, 1, 68, 61
4, 58463, Note_on_c, 1, 68, 0
4, 58464, Note_on_c, 1, 58, 61
4, 58487, Note_on_c, 1, 58, 0
4, 58488, Note_on_c, 1, 67, 61
4, 58511, Note_on_c, 1, 67, 0
4, 58512, Note_on_c, 1, 63, 61
4, 58535, Note_on_c, 1, 63, 0
4, 58536, Note_on_c, 1, 67, 61
4, 58559, Note_on_c, 1, 67, 0
4, 58560, Note_on_c, 1, 56, 61
4, 58583, Note_on_c, 1, 56, 0
4, 58584, Note_on_c, 1, 63, 61
4, 58607, Note_on_c, 1, 63, 0
4, 58608, Note_on_c, 1, 60, 61
4, 58631, Note_on_c, 1, 60, 0
4, 58632, Note_on_c, 1, 63, 61
4, 58655, Note_on_c, 1, 63, 0
4, 58656, Note_on_c, 1, 58, 61
4, 58679, Note_on_c, 1, 58, 0
4, 58680, Note_on_c, 1, 63, 61
4, 58703, Note_on_c, 1, 63, 0
4, 58704, Note_on_c, 1, 61, 61
4, 58727, Note_on_c, 1, 61, 0
4, 58728, Note_on_c, 1, 63, 61
4, 58751, Note_on_c, 1, 63, 0
4, 58752, Note_on_c, 1, 60, 61
4, 58775, Note_on_c, 1, 60, 0
4, 58776, Note_on_c, 1, 63, 61
4, 58799, Note_on_c, 1, 63, 0
4, 58800, Note_on_c, 1, 56, 61
4, 58823, Note_on_c, 1, 56, 0
4, 58824, Note_on_c, 1, 63, 61
4, 58847, Note_on_c, 1, 63, 0
4, 58848, Note_on_c, 1, 55, 61
4, 58871, Note_on_c, 1, 55, 0
4, 58872, Note_on_c, 1, 63, 61
4, 58895, Note_on_c, 1, 63, 0
4, 58896, Note_on_c, 1, 58, 61
4, 58919, Note_on_c, 1, 58, 0
4, 58920, Note_on_c, 1, 63, 61
4, 58943, Note_on_c, 1, 63, 0
4, 58944, Note_on_c, 1, 56, 61
4, 58967, Note_on_c, 1, 56, 0
4, 58968, Note_on_c, 1, 63, 61
4, 58991, Note_on_c, 1, 63, 0
4, 58992, Note_on_c, 1, 60, 61
4, 59015, Note_on_c, 1, 60, 0
4, 59016, Note_on_c, 1, 63, 61
4, 59039, Note_on_c, 1, 63, 0
4, 59040, Note_on_c, 1, 58, 61
4, 59063, Note_on_c, 1, 58, 0
4, 59064, Note_on_c, 1, 63, 61
4, 59087, Note_on_c, 1, 63, 0
4, 59088, Note_on_c, 1, 61, 61
4, 59111, Note_on_c, 1, 61, 0
4, 59112, Note_on_c, 1, 63, 61
4, 59135, Note_on_c, 1, 63, 0
4, 59136, Note_on_c, 1, 60, 61
4, 59159, Note_on_c, 1, 60, 0
4, 59160, Note_on_c, 1, 63, 61
4, 59183, Note_on_c, 1, 63, 0
4, 59184, Note_on_c, 1, 56, 61
4, 59207, Note_on_c, 1, 56, 0
4, 59208, Note_on_c, 1, 63, 61
4, 59231, Note_on_c, 1, 63, 0
4, 59232, Note_on_c, 1, 55, 61
4, 59255, Note_on_c, 1, 55, 0
4, 59256, Note_on_c, 1, 63, 61
4, 59279, Note_on_c, 1, 63, 0
4, 59280, Note_on_c, 1, 58, 61
4, 59303, Note_on_c, 1, 58, 0
4, 59304, Note_on_c, 1, 63, 61
4, 59327, Note_on_c, 1, 63, 0
4, 59328, Note_on_c, 1, 56, 61
4, 59351, Note_on_c, 1, 56, 0
4, 59352, Note_on_c, 1, 63, 61
4, 59375, Note_on_c, 1, 63, 0
4, 59376, Note_on_c, 1, 60, 61
4, 59399, Note_on_c, 1, 60, 0
4, 59400, Note_on_c, 1, 63, 61
4, 59423, Note_on_c, 1, 63, 0
4, 59424, Note_on_c, 1, 56, 61
4, 59447, Note_on_c, 1, 56, 0
4, 59448, Note_on_c, 1, 63, 61
4, 59471, Note_on_c, 1, 63, 0
4, 59472, Note_on_c, 1, 60, 61
4, 59495, Note_on_c, 1, 60, 0
4, 59496, Note_on_c, 1, 63, 61
4, 59519, Note_on_c, 1, 63, 0
4, 59520, Note_on_c, 1, 56, 61
4, 59543, Note_on_c, 1, 56, 0
4, 59544, Note_on_c, 1, 65, 61
4, 59567, Note_on_c, 1, 65, 0
4, 59568, Note_on_c, 1, 58, 61
4, 59591, Note_on_c, 1, 58, 0
4, 59592, Note_on_c, 1, 65, 61
4, 59615, Note_on_c, 1, 65, 0
4, 59616, Note_on_c, 1, 56, 61
4, 59639, Note_on_c, 1, 56, 0
4, 59640, Note_on_c, 1, 65, 61
4, 59663, Note_on_c, 1, 65, 0
4, 59664, Note_on_c, 1, 58, 61
4, 59687, Note_on_c, 1, 58, 0
4, 59688, Note_on_c, 1, 65, 61
4, 59711, Note_on_c, 1, 65, 0
4, 59712, Note_on_c, 1, 55, 61
4, 59735, Note_on_c, 1, 55, 0
4, 59736, Note_on_c, 1, 63, 61
4, 59759, Note_on_c, 1, 63, 0
4, 59760, Note_on_c, 1, 58, 61
4, 59783, Note_on_c, 1, 58, 0
4, 59784, Note_on_c, 1, 63, 61
4, 59807, Note_on_c, 1, 63, 0
4, 59808, Note_on_c, 1, 55, 61
4, 59831, Note_on_c, 1, 55, 0
4, 59832, Note_on_c, 1, 63, 61
4, 59855, Note_on_c, 1, 63, 0
4, 59856, Note_on_c, 1, 58, 61
4, 59879, Note_on_c, 1, 58, 0
4, 59880, Note_on_c, 1, 63, 61
4, 59903, Note_on_c, 1, 63, 0
4, 59904, Note_on_c, 1, 56, 61
4, 59927, Note_on_c, 1, 56, 0
4, 59928, Note_on_c, 1, 63, 61
4, 59951, Note_on_c, 1, 63, 0
4, 59952, Note_on_c, 1, 60, 62
4, 59975, Note_on_c, 1, 60, 0
4, 59976, Note_on_c, 1, 63, 63
4, 59999, Note_on_c, 1, 63, 0
4, 60000, Note_on_c, 1, 56, 64
4, 60023, Note_on_c, 1, 56, 0
4, 60024, Note_on_c, 1, 63, 65
4, 60047, Note_on_c, 1, 63, 0
4, 60048, Note_on_c, 1, 60, 65
4, 60071, Note_on_c, 1, 60, 0
4, 60072, Note_on_c, 1, 63, 66
4, 60095, Note_on_c, 1, 63, 0
4, 60096, Note_on_c, 1, 56, 67
4, 60119, Note_on_c, 1, 56, 0
4, 60120, Note_on_c, 1, 65, 68
4, 60143, Note_on_c, 1, 65, 0
4, 60144, Note_on_c, 1, 60, 69
4, 60167, Note_on_c, 1, 60, 0
4, 60168, Note_on_c, 1, 65, 70
4, 60191, Note_on_c, 1, 65, 0
4, 60192, Note_on_c, 1, 57, 70
4, 60215, Note_on_c, 1, 57, 0
4, 60216, Note_on_c, 1, 65, 71
4, 60239, Note_on_c, 1, 65, 0
4, 60240, Note_on_c, 1, 60, 72
4, 60263, Note_on_c, 1, 60, 0
4, 60264, Note_on_c, 1, 65, 73
4, 60287, Note_on_c, 1, 65, 0
4, 60288, Note_on_c, 1, 58, 74
4, 60311, Note_on_c, 1, 58, 0
4, 60312, Note_on_c, 1, 65, 75
4, 60335, Note_on_c, 1, 65, 0
4, 60336, Note_on_c, 1, 62, 75
4, 60359, Note_on_c, 1, 62, 0
4, 60360, Note_on_c, 1, 65, 75
4, 60383, Note_on_c, 1, 65, 0
4, 60384, Note_on_c, 1, 58, 75
4, 60407, Note_on_c, 1, 58, 0
4, 60408, Note_on_c, 1, 65, 75
4, 60431, Note_on_c, 1, 65, 0
4, 60432, Note_on_c, 1, 62, 75
4, 60455, Note_on_c, 1, 62, 0
4, 60456, Note_on_c, 1, 65, 75
4, 60479, Note_on_c, 1, 65, 0
4, 60480, Note_on_c, 1, 58, 75
4, 60569, Note_on_c, 1, 58, 0
4, 60720, Note_on_c, 1, 51, 75
4, 60740, Note_on_c, 1, 51, 0
4, 60768, Note_on_c, 1, 55, 75
4, 60857, Note_on_c, 1, 55, 0
4, 60912, Note_on_c, 1, 51, 75
4, 60946, Note_on_c, 1, 51, 0
4, 60948, Note_on_c, 1, 53, 75
4, 60960, Note_on_c, 1, 53, 0
4, 60960, Note_on_c, 1, 55, 75
4, 61049, Note_on_c, 1, 55, 0
4, 61104, Note_on_c, 1, 63, 75
4, 61116, Note_on_c, 1, 63, 0
4, 61116, Note_on_c, 1, 65, 75
4, 61128, Note_on_c, 1, 65, 0
4, 61128, Note_on_c, 1, 63, 75
4, 61140, Note_on_c, 1, 63, 0
4, 61140, Note_on_c, 1, 65, 75
4, 61152, Note_on_c, 1, 65, 0
4, 61152, Note_on_c, 1, 67, 75
4, 61172, Note_on_c, 1, 67, 0
4, 61200, Note_on_c, 1, 63, 75
4, 61212, Note_on_c, 1, 63, 0
4, 61212, Note_on_c, 1, 65, 75
4, 61224, Note_on_c, 1, 65, 0
4, 61224, Note_on_c, 1, 63, 75
4, 61236, Note_on_c, 1, 63, 0
4, 61236, Note_on_c, 1, 65, 75
4, 61248, Note_on_c, 1, 65, 0
4, 61248, Note_on_c, 1, 67, 75
4, 61287, Note_on_c, 1, 67, 0
4, 61488, Note_on_c, 1, 55, 69
4, 61488, Note_on_c, 1, 51, 69
4, 61508, Note_on_c, 1, 55, 0
4, 61508, Note_on_c, 1, 51, 0
4, 61536, Note_on_c, 1, 58, 69
4, 61536, Note_on_c, 1, 55, 69
4, 61625, Note_on_c, 1, 58, 0
4, 61625, Note_on_c, 1, 55, 0
4, 61680, Note_on_c, 1, 48, 69
4, 61680, Note_on_c, 1, 44, 69
4, 61700, Note_on_c, 1, 48, 0
4, 61700, Note_on_c, 1, 44, 0
4, 61728, Note_on_c, 1, 51, 69
4, 61728, Note_on_c, 1, 48, 69
4, 61817, Note_on_c, 1, 51, 0
4, 61817, Note_on_c, 1, 48, 0
4, 61872, Note_on_c, 1, 56, 69
4, 61872, Note_on_c, 1, 53, 69
4, 61892, Note_on_c, 1, 56, 0
4, 61892, Note_on_c, 1, 53, 0
4, 61920, Note_on_c, 1, 60, 69
4, 61920, Note_on_c, 1, 56, 69
4, 62009, Note_on_c, 1, 60, 0
4, 62009, Note_on_c, 1, 56, 0
4, 62064, Note_on_c, 1, 50, 69
4, 62064, Note_on_c, 1, 46, 69
4, 62084, Note_on_c, 1, 50, 0
4, 62084, Note_on_c, 1, 46, 0
4, 62112, Note_on_c, 1, 53, 69
4, 62112, Note_on_c, 1, 50, 69
4, 62201, Note_on_c, 1, 53, 0
4, 62201, Note_on_c, 1, 50, 0
4, 62256, Note_on_c, 1, 58, 69
4, 62256, Note_on_c, 1, 55, 69
4, 62276, Note_on_c, 1, 58, 0
4, 62276, Note_on_c, 1, 55, 0
4, 62304, Note_on_c, 1, 62, 69
4, 62304, Note_on_c, 1, 58, 69
4, 62393, Note_on_c, 1, 62, 0
4, 62393, Note_on_c, 1, 58, 0
4, 62448, Note_on_c, 1, 51, 69
4, 62448, Note_on_c, 1, 48, 69
4, 62468, Note_on_c, 1, 51, 0
4, 62468, Note_on_c, 1, 48, 0
4, 62496, Note_on_c, 1, 55, 69
4, 62496, Note_on_c, 1, 51, 69
4, 62585, Note_on_c, 1, 55, 0
4, 62585, Note_on_c, 1, 51, 0
4, 62640, Note_on_c, 1, 63, 69
4, 62640, Note_on_c, 1, 60, 69
4, 62660, Note_on_c, 1, 63, 0
4, 62660, Note_on_c, 1, 60, 0
4, 62688, Note_on_c, 1, 58, 69
4, 62777, Note_on_c, 1, 58, 0
4, 62784, Note_on_c, 1, 56, 69
4, 62873, Note_on_c, 1, 56, 0
4, 62880, Note_on_c, 1, 55, 69
4, 62969, Note_on_c, 1, 55, 0
4, 62976, Note_on_c, 1, 58, 69
4, 62976, Note_on_c, 1, 50, 69
4, 63065, Note_on_c, 1, 58, 0
4, 63065, Note_on_c, 1, 50, 0
4, 63072, Note_on_c, 1, 58, 70
4, 63072, Note_on_c, 1, 51, 70
4, 63161, Note_on_c, 1, 58, 0
4, 63161, Note_on_c, 1, 51, 0
4, 63168, Note_on_c, 1, 56, 71
4, 63168, Note_on_c, 1, 44, 71
4, 63257, Note_on_c, 1, 56, 0
4, 63257, Note_on_c, 1, 44, 0
4, 63264, Note_on_c, 1, 56, 72
4, 63264, Note_on_c, 1, 53, 72
4, 63264, Note_on_c, 1, 46, 72
4, 63353, Note_on_c, 1, 56, 0
4, 63353, Note_on_c, 1, 53, 0
4, 63353, Note_on_c, 1, 46, 0
4, 63360, Note_on_c, 1, 51, 73
4, 63449, Note_on_c, 1, 51, 0
4, 63600, Note_on_c, 1, 51, 75
4, 63645, Note_on_c, 1, 51, 0
4, 63648, Note_on_c, 1, 53, 75
4, 63693, Note_on_c, 1, 53, 0
4, 63696, Note_on_c, 1, 46, 75
4, 63741, Note_on_c, 1, 46, 0
4, 63744, Control_c, 1, 64, 127
4, 63768, Note_on_c, 1, 51, 84
4, 63791, Note_on_c, 1, 51, 0
4, 63792, Note_on_c, 1, 55, 84
4, 63815, Note_on_c, 1, 55, 0
4, 63816, Note_on_c, 1, 51, 84
4, 63839, Note_on_c, 1, 51, 0
4, 63840, Note_on_c, 1, 58, 84
4, 63863, Note_on_c, 1, 58, 0
4, 63864, Note_on_c, 1, 55, 84
4, 63887, Note_on_c, 1, 55, 0
4, 63888, Note_on_c, 1, 63, 84
4, 63911, Note_on_c, 1, 63, 0
4, 63912, Note_on_c, 1, 58, 84
4, 63935, Note_on_c, 1, 58, 0
4, 63936, Control_c, 1, 64, 0
4, 63936, Control_c, 1, 64, 127
4, 63960, Note_on_c, 1, 51, 84
4, 63983, Note_on_c, 1, 51, 0
4, 63984, Note_on_c, 1, 56, 84
4, 64007, Note_on_c, 1, 56, 0
4, 64008, Note_on_c, 1, 51, 84
4, 64031, Note_on_c, 1, 51, 0
4, 64032, Note_on_c, 1, 60, 84
4, 64055, Note_on_c, 1, 60, 0
4, 64056, Note_on_c, 1, 56, 84
4, 64079, Note_on_c, 1, 56, 0
4, 64080, Note_on_c, 1, 63, 84
4, 64103, Note_on_c, 1, 63, 0
4, 64104, Note_on_c, 1, 60, 84
4, 64127, Note_on_c, 1, 60, 0
4, 64128, Control_c, 1, 64, 0
4, 64128, Control_c, 1, 64, 127
4, 64152, Note_on_c, 1, 51, 84
4, 64175, Note_on_c, 1, 51, 0
4, 64176, Note_on_c, 1, 55, 84
4, 64199, Note_on_c, 1, 55, 0
4, 64200, Note_on_c, 1, 51, 84
4, 64223, Note_on_c, 1, 51, 0
4, 64224, Note_on_c, 1, 58, 84
4, 64247, Note_on_c, 1, 58, 0
4, 64248, Note_on_c, 1, 55, 84
4, 64271, Note_on_c, 1, 55, 0
4, 64272, Note_on_c, 1, 63, 84
4, 64295, Note_on_c, 1, 63, 0
4, 64296, Note_on_c, 1, 58, 84
4, 64319, Note_on_c, 1, 58, 0
4, 64320, Control_c, 1, 64, 0
4, 64320, Control_c, 1, 64, 127
4, 64344, Note_on_c, 1, 46, 84
4, 64367, Note_on_c, 1, 46, 0
4, 64368, Note_on_c, 1, 50, 84
4, 64391, Note_on_c, 1, 50, 0
4, 64392, Note_on_c, 1, 46, 84
4, 64415, Note_on_c, 1, 46, 0
4, 64416, Note_on_c, 1, 56, 84
4, 64439, Note_on_c, 1, 56, 0
4, 64440, Note_on_c, 1, 53, 84
4, 64463, Note_on_c, 1, 53, 0
4, 64464, Note_on_c, 1, 62, 84
4, 64487, Note_on_c, 1, 62, 0
4, 64488, Note_on_c, 1, 58, 84
4, 64511, Note_on_c, 1, 58, 0
4, 64512, Control_c, 1, 64, 0
4, 64512, Control_c, 1, 64, 127
4, 64512, Note_on_c, 1, 63, 75
4, 64512, Note_on_c, 1, 58, 75
4, 64512, Note_on_c, 1, 55, 75
4, 64689, Note_on_c, 1, 63, 0
4, 64689, Note_on_c, 1, 58, 0
4, 64689, Note_on_c, 1, 55, 0
4, 64704, Control_c, 1, 64, 0
4, 64704, Control_c, 1, 64, 127
4, 64704, Note_on_c, 1, 63, 75
4, 64704, Note_on_c, 1, 58, 75
4, 64704, Note_on_c, 1, 54, 75
4, 64881, Note_on_c, 1, 63, 0
4, 64881, Note_on_c, 1, 58, 0
4, 64881, Note_on_c, 1, 54, 0
4, 64896, Control_c, 1, 64, 0
4, 64896, Control_c, 1, 64, 127
4, 64896, Control_c, 1, 64, 127
4, 64896, Note_on_c, 1, 63, 75
4, 64896, Note_on_c, 1, 60, 75
4, 64896, Note_on_c, 1, 57, 75
4, 64896, Note_on_c, 1, 54, 75
4, 65073, Note_on_c, 1, 63, 0
4, 65073, Note_on_c, 1, 60, 0
4, 65073, Note_on_c, 1, 57, 0
4, 65073, Note_on_c, 1, 54, 0
4, 65088, Control_c, 1, 64, 0
4, 65088, Control_c, 1, 64, 127
4, 65088, Note_on_c, 1, 60, 75
4, 65088, Note_on_c, 1, 57, 75
4, 65088, Note_on_c, 1, 54, 75
4, 65088, Note_on_c, 1, 51, 75
4, 65265, Note_on_c, 1, 60, 0
4, 65265, Note_on_c, 1, 57, 0
4, 65265, Note_on_c, 1, 54, 0
4, 65265, Note_on_c, 1, 51, 0
4, 65280, Control_c, 1, 64, 0
4, 65280, Control_c, 1, 64, 127
4, 65280, Note_on_c, 1, 58, 75
4, 65280, Note_on_c, 1, 53, 75
4, 65280, Note_on_c, 1, 50, 75
4, 65457, Note_on_c, 1, 58, 0
4, 65457, Note_on_c, 1, 53, 0
4, 65457, Note_on_c, 1, 50, 0
4, 65472, Control_c, 1, 64, 0
4, 65472, Control_c, 1, 64, 127
4, 65472, Note_on_c, 1, 58, 75
4, 65472, Note_on_c, 1, 55, 75
4, 65472, Note_on_c, 1, 51, 75
4, 65561, Note_on_c, 1, 58, 0
4, 65561, Note_on_c, 1, 55, 0
4, 65561, Note_on_c, 1, 51, 0
4, 65616, Note_on_c, 1, 63, 75
4, 65661, Note_on_c, 1, 63, 0
4, 65664, Control_c, 1, 64, 0
4, 65664, Note_on_c, 1, 68, 75
4, 65709, Note_on_c, 1, 68, 0
4, 65712, Note_on_c, 1, 67, 75
4, 65757, Note_on_c, 1, 67, 0
4, 65760, Note_on_c, 1, 68, 78
4, 65805, Note_on_c, 1, 68, 0
4, 65808, Note_on_c, 1, 69, 81
4, 65853, Note_on_c, 1, 69, 0
4, 65856, Note_on_c, 1, 70, 84
4, 65945, Note_on_c, 1, 70, 0
4, 66000, Note_on_c, 1, 51, 75
4, 66045, Note_on_c, 1, 51, 0
4, 66048, Note_on_c, 1, 56, 76
4, 66093, Note_on_c, 1, 56, 0
4, 66096, Note_on_c, 1, 55, 78
4, 66141, Note_on_c, 1, 55, 0
4, 66144, Note_on_c, 1, 56, 80
4, 66189, Note_on_c, 1, 56, 0
4, 66192, Note_on_c, 1, 57, 82
4, 66237, Note_on_c, 1, 57, 0
4, 66240, Note_on_c, 1, 58, 84
4, 66329, Note_on_c, 1, 58, 0
4, 66432, Note_on_c, 1, 51, 61
4, 66455, Note_on_c, 1, 51, 0
4, 66456, Note_on_c, 1, 58, 61
4, 66479, Note_on_c, 1, 58, 0
4, 66480, Note_on_c, 1, 55, 61
4, 66503, Note_on_c, 1, 55, 0
4, 66504, Note_on_c, 1, 58, 61
4, 66527, Note_on_c, 1, 58, 0
4, 66528, Note_on_c, 1, 51, 61
4, 66551, Note_on_c, 1, 51, 0
4, 66552, Note_on_c, 1, 58, 61
4, 66575, Note_on_c, 1, 58, 0
4, 66576, Note_on_c, 1, 55, 61
4, 66599, Note_on_c, 1, 55, 0
4, 66600, Note_on_c, 1, 58, 61
4, 66623, Note_on_c, 1, 58, 0
4, 66624, Note_on_c, 1, 50, 61
4, 66647, Note_on_c, 1, 50, 0
4, 66648, Note_on_c, 1, 58, 61
4, 66671, Note_on_c, 1, 58, 0
4, 66672, Note_on_c, 1, 53, 61
4, 66695, Note_on_c, 1, 53, 0
4, 66696, Note_on_c, 1, 58, 61
4, 66719, Note_on_c, 1, 58, 0
4, 66720, Note_on_c, 1, 50, 61
4, 66743, Note_on_c, 1, 50, 0
4, 66744, Note_on_c, 1, 58, 61
4, 66767, Note_on_c, 1, 58, 0
4, 66768, Note_on_c, 1, 53, 61
4, 66791, Note_on_c, 1, 53, 0
4, 66792, Note_on_c, 1, 58, 61
4, 66815, Note_on_c, 1, 58, 0
4, 66816, Note_on_c, 1, 50, 61
4, 66839, Note_on_c, 1, 50, 0
4, 66840, Note_on_c, 1, 58, 61
4, 66863, Note_on_c, 1, 58, 0
4, 66864, Note_on_c, 1, 53, 61
4, 66887, Note_on_c, 1, 53, 0
4, 66888, Note_on_c, 1, 58, 61
4, 66911, Note_on_c, 1, 58, 0
4, 66912, Note_on_c, 1, 50, 61
4, 66935, Note_on_c, 1, 50, 0
4, 66936, Note_on_c, 1, 58, 61
4, 66959, Note_on_c, 1, 58, 0
4, 66960, Note_on_c, 1, 53, 61
4, 66983, Note_on_c, 1, 53, 0
4, 66984, Note_on_c, 1, 58, 61
4, 67007, Note_on_c, 1, 58, 0
4, 67008, Note_on_c, 1, 51, 61
4, 67031, Note_on_c, 1, 51, 0
4, 67032, Note_on_c, 1, 58, 61
4, 67055, Note_on_c, 1, 58, 0
4, 67056, Note_on_c, 1, 55, 61
4, 67079, Note_on_c, 1, 55, 0
4, 67080, Note_on_c, 1, 58, 61
4, 67103, Note_on_c, 1, 58, 0
4, 67104, Note_on_c, 1, 51, 61
4, 67127, Note_on_c, 1, 51, 0
4, 67128, Note_on_c, 1, 58, 61
4, 67151, Note_on_c, 1, 58, 0
4, 67152, Note_on_c, 1, 55, 61
4, 67175, Note_on_c, 1, 55, 0
4, 67176, Note_on_c, 1, 58, 61
4, 67199, Note_on_c, 1, 58, 0
4, 67200, Note_on_c, 1, 51, 61
4, 67223, Note_on_c, 1, 51, 0
4, 67224, Note_on_c, 1, 58, 61
4, 67247, Note_on_c, 1, 58, 0
4, 67248, Note_on_c, 1, 55, 61
4, 67271, Note_on_c, 1, 55, 0
4, 67272, Note_on_c, 1, 58, 61
4, 67295, Note_on_c, 1, 58, 0
4, 67296, Note_on_c, 1, 51, 61
4, 67319, Note_on_c, 1, 51, 0
4, 67320, Note_on_c, 1, 58, 61
4, 67343, Note_on_c, 1, 58, 0
4, 67344, Note_on_c, 1, 55, 61
4, 67367, Note_on_c, 1, 55, 0
4, 67368, Note_on_c, 1, 58, 61
4, 67391, Note_on_c, 1, 58, 0
4, 67392, Note_on_c, 1, 51, 61
4, 67415, Note_on_c, 1, 51, 0
4, 67416, Note_on_c, 1, 60, 61
4, 67439, Note_on_c, 1, 60, 0
4, 67440, Note_on_c, 1, 56, 61
4, 67463, Note_on_c, 1, 56, 0
4, 67464, Note_on_c, 1, 60, 61
4, 67487, Note_on_c, 1, 60, 0
4, 67488, Note_on_c, 1, 51, 61
4, 67511, Note_on_c, 1, 51, 0
4, 67512, Note_on_c, 1, 60, 61
4, 67535, Note_on_c, 1, 60, 0
4, 67536, Note_on_c, 1, 56, 61
4, 67559, Note_on_c, 1, 56, 0
4, 67560, Note_on_c, 1, 60, 61
4, 67583, Note_on_c, 1, 60, 0
4, 67584, Note_on_c, 1, 51, 61
4, 67607, Note_on_c, 1, 51, 0
4, 67608, Note_on_c, 1, 58, 61
4, 67631, Note_on_c, 1, 58, 0
4, 67632, Note_on_c, 1, 55, 61
4, 67655, Note_on_c, 1, 55, 0
4, 67656, Note_on_c, 1, 58, 61
4, 67679, Note_on_c, 1, 58, 0
4, 67680, Note_on_c, 1, 51, 61
4, 67703, Note_on_c, 1, 51, 0
4, 67704, Note_on_c, 1, 58, 61
4, 67727, Note_on_c, 1, 58, 0
4, 67728, Note_on_c, 1, 55, 61
4, 67751, Note_on_c, 1, 55, 0
4, 67752, Note_on_c, 1, 58, 61
4, 67775, Note_on_c, 1, 58, 0
4, 67776, Note_on_c, 1, 51, 61
4, 67799, Note_on_c, 1, 51, 0
4, 67800, Note_on_c, 1, 60, 61
4, 67823, Note_on_c, 1, 60, 0
4, 67824, Note_on_c, 1, 54, 61
4, 67847, Note_on_c, 1, 54, 0
4, 67848, Note_on_c, 1, 60, 61
4, 67871, Note_on_c, 1, 60, 0
4, 67872, Note_on_c, 1, 51, 61
4, 67895, Note_on_c, 1, 51, 0
4, 67896, Note_on_c, 1, 60, 61
4, 67919, Note_on_c, 1, 60, 0
4, 67920, Note_on_c, 1, 54, 61
4, 67943, Note_on_c, 1, 54, 0
4, 67944, Note_on_c, 1, 60, 61
4, 67967, Note_on_c, 1, 60, 0
4, 67968, Note_on_c, 1, 51, 61
4, 67991, Note_on_c, 1, 51, 0
4, 67992, Note_on_c, 1, 60, 61
4, 68015, Note_on_c, 1, 60, 0
4, 68016, Note_on_c, 1, 57, 61
4, 68039, Note_on_c, 1, 57, 0
4, 68040, Note_on_c, 1, 60, 61
4, 68063, Note_on_c, 1, 60, 0
4, 68064, Note_on_c, 1, 51, 61
4, 68087, Note_on_c, 1, 51, 0
4, 68088, Note_on_c, 1, 60, 61
4, 68111, Note_on_c, 1, 60, 0
4, 68112, Note_on_c, 1, 57, 61
4, 68135, Note_on_c, 1, 57, 0
4, 68136, Note_on_c, 1, 60, 61
4, 68159, Note_on_c, 1, 60, 0
4, 68160, Note_on_c, 1, 50, 61
4, 68183, Note_on_c, 1, 50, 0
4, 68184, Note_on_c, 1, 58, 61
4, 68207, Note_on_c, 1, 58, 0
4, 68208, Note_on_c, 1, 53, 61
4, 68231, Note_on_c, 1, 53, 0
4, 68232, Note_on_c, 1, 58, 61
4, 68255, Note_on_c, 1, 58, 0
4, 68256, Note_on_c, 1, 50, 61
4, 68279, Note_on_c, 1, 50, 0
4, 68280, Note_on_c, 1, 58, 61
4, 68303, Note_on_c, 1, 58, 0
4, 68304, Note_on_c, 1, 53, 61
4, 68327, Note_on_c, 1, 53, 0
4, 68328, Note_on_c, 1, 58, 61
4, 68351, Note_on_c, 1, 58, 0
4, 68352, Note_on_c, 1, 51, 61
4, 68375, Note_on_c, 1, 51, 0
4, 68376, Note_on_c, 1, 58, 61
4, 68399, Note_on_c, 1, 58, 0
4, 68400, Note_on_c, 1, 55, 61
4, 68423, Note_on_c, 1, 55, 0
4, 68424, Note_on_c, 1, 58, 61
4, 68447, Note_on_c, 1, 58, 0
4, 68448, Note_on_c, 1, 53, 61
4, 68471, Note_on_c, 1, 53, 0
4, 68472, Note_on_c, 1, 58, 61
4, 68495, Note_on_c, 1, 58, 0
4, 68496, Note_on_c, 1, 56, 61
4, 68519, Note_on_c, 1, 56, 0
4, 68520, Note_on_c, 1, 58, 61
4, 68543, Note_on_c, 1, 58, 0
4, 68544, Note_on_c, 1, 55, 61
4, 68567, Note_on_c, 1, 55, 0
4, 68568, Note_on_c, 1, 58, 61
4, 68591, Note_on_c, 1, 58, 0
4, 68592, Note_on_c, 1, 51, 61
4, 68615, Note_on_c, 1, 51, 0
4, 68616, Note_on_c, 1, 58, 61
4, 68639, Note_on_c, 1, 58, 0
4, 68640, Note_on_c, 1, 50, 61
4, 68663, Note_on_c, 1, 50, 0
4, 68664, Note_on_c, 1, 58, 61
4, 68687, Note_on_c, 1, 58, 0
4, 68688, Note_on_c, 1, 53, 61
4, 68711, Note_on_c, 1, 53, 0
4, 68712, Note_on_c, 1, 58, 61
4, 68735, Note_on_c, 1, 58, 0
4, 68736, Note_on_c, 1, 51, 61
4, 68759, Note_on_c, 1, 51, 0
4, 68760, Note_on_c, 1, 58, 61
4, 68783, Note_on_c, 1, 58, 0
4, 68784, Note_on_c, 1, 55, 61
4, 68807, Note_on_c, 1, 55, 0
4, 68808, Note_on_c, 1, 58, 61
4, 68831, Note_on_c, 1, 58, 0
4, 68832, Note_on_c, 1, 53, 61
4, 68855, Note_on_c, 1, 53, 0
4, 68856, Note_on_c, 1, 58, 61
4, 68879, Note_on_c, 1, 58, 0
4, 68880, Note_on_c, 1, 56, 61
4, 68903, Note_on_c, 1, 56, 0
4, 68904, Note_on_c, 1, 58, 61
4, 68927, Note_on_c, 1, 58, 0
4, 68928, Note_on_c, 1, 55, 61
4, 68951, Note_on_c, 1, 55, 0
4, 68952, Note_on_c, 1, 58, 61
4, 68975, Note_on_c, 1, 58, 0
4, 68976, Note_on_c, 1, 51, 61
4, 68999, Note_on_c, 1, 51, 0
4, 69000, Note_on_c, 1, 58, 61
4, 69023, Note_on_c, 1, 58, 0
4, 69024, Note_on_c, 1, 50, 61
4, 69047, Note_on_c, 1, 50, 0
4, 69048, Note_on_c, 1, 58, 61
4, 69071, Note_on_c, 1, 58, 0
4, 69072, Note_on_c, 1, 53, 61
4, 69095, Note_on_c, 1, 53, 0
4, 69096, Note_on_c, 1, 58, 61
4, 69119, Note_on_c, 1, 58, 0
4, 69120, Note_on_c, 1, 51, 61
4, 69209, Note_on_c, 1, 51, 0
4, 69216, Note_on_c, 1, 55, 65
4, 69305, Note_on_c, 1, 55, 0
4, 69312, Note_on_c, 1, 56, 70
4, 69401, Note_on_c, 1, 56, 0
4, 69552, Note_on_c, 1, 55, 75
4, 69597, Note_on_c, 1, 55, 0
4, 69600, Note_on_c, 1, 56, 75
4, 69645, Note_on_c, 1, 56, 0
4, 69648, Note_on_c, 1, 58, 75
4, 69693, Note_on_c, 1, 58, 0
4, 69696, Note_on_c, 1, 51, 75
4, 69785, Note_on_c, 1, 51, 0
4, 69840, Note_on_c, 1, 67, 61
4, 69840, Note_on_c, 1, 63, 61
4, 69885, Note_on_c, 1, 67, 0
4, 69885, Note_on_c, 1, 63, 0
4, 69888, Note_on_c, 1, 65, 61
4, 69888, Note_on_c, 1, 62, 61
4, 69977, Note_on_c, 1, 65, 0
4, 69977, Note_on_c, 1, 62, 0
4, 69984, Note_on_c, 1, 63, 61
4, 69984, Note_on_c, 1, 60, 61
4, 70032, Note_on_c, 1, 63, 0
4, 70032, Note_on_c, 1, 69, 61
4, 70077, Note_on_c, 1, 69, 0
4, 70077, Note_on_c, 1, 60, 0
4, 70080, Note_on_c, 1, 70, 61
4, 70080, Note_on_c, 1, 58, 61
4, 70125, Note_on_c, 1, 70, 0
4, 70125, Note_on_c, 1, 58, 0
4, 70128, Note_on_c, 1, 67, 61
4, 70128, Note_on_c, 1, 60, 61
4, 70173, Note_on_c, 1, 67, 0
4, 70173, Note_on_c, 1, 60, 0
4, 70224, Note_on_c, 1, 63, 61
4, 70224, Note_on_c, 1, 60, 61
4, 70269, Note_on_c, 1, 63, 0
4, 70269, Note_on_c, 1, 60, 0
4, 70272, Note_on_c, 1, 62, 61
4, 70272, Note_on_c, 1, 58, 61
4, 70361, Note_on_c, 1, 62, 0
4, 70361, Note_on_c, 1, 58, 0
4, 70368, Note_on_c, 1, 60, 61
4, 70368, Note_on_c, 1, 57, 61
4, 70416, Note_on_c, 1, 60, 0
4, 70416, Note_on_c, 1, 66, 61
4, 70461, Note_on_c, 1, 66, 0
4, 70461, Note_on_c, 1, 57, 0
4, 70464, Note_on_c, 1, 67, 61
4, 70464, Note_on_c, 1, 55, 61
4, 70509, Note_on_c, 1, 67, 0
4, 70509, Note_on_c, 1, 55, 0
4, 70512, Note_on_c, 1, 63, 61
4, 70512, Note_on_c, 1, 56, 61
4, 70557, Note_on_c, 1, 63, 0
4, 70557, Note_on_c, 1, 56, 0
4, 70608, Note_on_c, 1, 60, 61
4, 70608, Note_on_c, 1, 56, 61
4, 70653, Note_on_c, 1, 60, 0
4, 70653, Note_on_c, 1, 56, 0
4, 70656, Note_on_c, 1, 58, 61
4, 70656, Note_on_c, 1, 55, 61
4, 70745, Note_on_c, 1, 58, 0
4, 70745, Note_on_c, 1, 55, 0
4, 70752, Note_on_c, 1, 56, 61
4, 70752, Note_on_c, 1, 53, 61
4, 70800, Note_on_c, 1, 56, 0
4, 70800, Note_on_c, 1, 62, 61
4, 70845, Note_on_c, 1, 62, 0
4, 70845, Note_on_c, 1, 53, 0
4, 70848, Note_on_c, 1, 63, 61
4, 70848, Note_on_c, 1, 58, 61
4, 70848, Note_on_c, 1, 51, 61
4, 70937, Note_on_c, 1, 63, 0
4, 70937, Note_on_c, 1, 58, 0
4, 70937, Note_on_c, 1, 51, 0
4, 70944, Note_on_c, 1, 62, 61
4, 70944, Note_on_c, 1, 58, 61
4, 70944, Note_on_c, 1, 53, 61
4, 71033, Note_on_c, 1, 62, 0
4, 71033, Note_on_c, 1, 58, 0
4, 71033, Note_on_c, 1, 53, 0
4, 71040, Note_on_c, 1, 63, 61
4, 71040, Note_on_c, 1, 58, 61
4, 71040, Note_on_c, 1, 51, 61
4, 71129, Note_on_c, 1, 63, 0
4, 71129, Note_on_c, 1, 58, 0
4, 71129, Note_on_c, 1, 51, 0
4, 71136, Note_on_c, 1, 62, 61
4, 71136, Note_on_c, 1, 58, 61
4, 71136, Note_on_c, 1, 53, 61
4, 71225, Note_on_c, 1, 62, 0
4, 71225, Note_on_c, 1, 58, 0
4, 71225, Note_on_c, 1, 53, 0
4, 71232, Note_on_c, 1, 51, 61
4, 71255, Note_on_c, 1, 51, 0
4, 71256, Note_on_c, 1, 63, 61
4, 71279, Note_on_c, 1, 63, 0
4, 71280, Note_on_c, 1, 58, 61
4, 71303, Note_on_c, 1, 58, 0
4, 71304, Note_on_c, 1, 63, 61
4, 71327, Note_on_c, 1, 63, 0
4, 71328, Note_on_c, 1, 53, 61
4, 71351, Note_on_c, 1, 53, 0
4, 71352, Note_on_c, 1, 63, 61
4, 71375, Note_on_c, 1, 63, 0
4, 71376, Note_on_c, 1, 58, 61
4, 71399, Note_on_c, 1, 58, 0
4, 71400, Note_on_c, 1, 63, 61
4, 71423, Note_on_c, 1, 63, 0
4, 71424, Note_on_c, 1, 55, 61
4, 71447, Note_on_c, 1, 55, 0
4, 71448, Note_on_c, 1, 63, 61
4, 71471, Note_on_c, 1, 63, 0
4, 71472, Note_on_c, 1, 58, 61
4, 71495, Note_on_c, 1, 58, 0
4, 71496, Note_on_c, 1, 63, 61
4, 71519, Note_on_c, 1, 63, 0
4, 71520, Note_on_c, 1, 55, 61
4, 71543, Note_on_c, 1, 55, 0
4, 71544, Note_on_c, 1, 63, 61
4, 71567, Note_on_c, 1, 63, 0
4, 71568, Note_on_c, 1, 58, 61
4, 71591, Note_on_c, 1, 58, 0
4, 71592, Note_on_c, 1, 63, 61
4, 71615, Note_on_c, 1, 63, 0
4, 71616, Note_on_c, 1, 56, 61
4, 71639, Note_on_c, 1, 56, 0
4, 71640, Note_on_c, 1, 63, 61
4, 71663, Note_on_c, 1, 63, 0
4, 71664, Note_on_c, 1, 60, 61
4, 71687, Note_on_c, 1, 60, 0
4, 71688, Note_on_c, 1, 63, 61
4, 71711, Note_on_c, 1, 63, 0
4, 71712, Note_on_c, 1, 56, 61
4, 71735, Note_on_c, 1, 56, 0
4, 71736, Note_on_c, 1, 63, 61
4, 71759, Note_on_c, 1, 63, 0
4, 71760, Note_on_c, 1, 55, 61
4, 71783, Note_on_c, 1, 55, 0
4, 71784, Note_on_c, 1, 63, 61
4, 71807, Note_on_c, 1, 63, 0
4, 71808, Note_on_c, 1, 56, 61
4, 71831, Note_on_c, 1, 56, 0
4, 71832, Note_on_c, 1, 63, 61
4, 71855, Note_on_c, 1, 63, 0
4, 71856, Note_on_c, 1, 55, 61
4, 71879, Note_on_c, 1, 55, 0
4, 71880, Note_on_c, 1, 63, 61
4, 71903, Note_on_c, 1, 63, 0
4, 71904, Note_on_c, 1, 56, 61
4, 71927, Note_on_c, 1, 56, 0
4, 71928, Note_on_c, 1, 63, 61
4, 71951, Note_on_c, 1, 63, 0
4, 71952, Note_on_c, 1, 55, 61
4, 71975, Note_on_c, 1, 55, 0
4, 71976, Note_on_c, 1, 63, 61
4, 71999, Note_on_c, 1, 63, 0
4, 72000, Control_c, 1, 64, 127
4, 72000, Note_on_c, 1, 56, 61
4, 72023, Note_on_c, 1, 56, 0
4, 72024, Note_on_c, 1, 63, 61
4, 72047, Note_on_c, 1, 63, 0
4, 72048, Note_on_c, 1, 60, 61
4, 72071, Note_on_c, 1, 60, 0
4, 72072, Control_c, 1, 64, 0
4, 72072, Note_on_c, 1, 63, 61
4, 72095, Note_on_c, 1, 63, 0
4, 72096, Control_c, 1, 64, 127
4, 72096, Note_on_c, 1, 56, 61
4, 72119, Note_on_c, 1, 56, 0
4, 72120, Note_on_c, 1, 64, 61
4, 72143, Note_on_c, 1, 64, 0
4, 72144, Note_on_c, 1, 60, 61
4, 72167, Note_on_c, 1, 60, 0
4, 72168, Control_c, 1, 64, 0
4, 72168, Note_on_c, 1, 64, 61
4, 72191, Note_on_c, 1, 64, 0
4, 72192, Control_c, 1, 64, 127
4, 72192, Note_on_c, 1, 56, 61
4, 72215, Note_on_c, 1, 56, 0
4, 72216, Note_on_c, 1, 65, 61
4, 72239, Note_on_c, 1, 65, 0
4, 72240, Note_on_c, 1, 60, 61
4, 72263, Note_on_c, 1, 60, 0
4, 72264, Note_on_c, 1, 65, 61
4, 72287, Note_on_c, 1, 65, 0
4, 72288, Control_c, 1, 64, 0
4, 72288, Note_on_c, 1, 56, 61
4, 72311, Note_on_c, 1, 56, 0
4, 72312, Note_on_c, 1, 65, 61
4, 72335, Note_on_c, 1, 65, 0
4, 72336, Note_on_c, 1, 60, 61
4, 72359, Note_on_c, 1, 60, 0
4, 72360, Note_on_c, 1, 65, 61
4, 72383, Note_on_c, 1, 65, 0
4, 72384, Note_on_c, 1, 58, 61
4, 72407, Note_on_c, 1, 58, 0
4, 72408, Note_on_c, 1, 67, 61
4, 72431, Note_on_c, 1, 67, 0
4, 72432, Note_on_c, 1, 63, 61
4, 72455, Note_on_c, 1, 63, 0
4, 72456, Note_on_c, 1, 67, 61
4, 72479, Note_on_c, 1, 67, 0
4, 72480, Note_on_c, 1, 58, 61
4, 72503, Note_on_c, 1, 58, 0
4, 72504, Note_on_c, 1, 67, 61
4, 72527, Note_on_c, 1, 67, 0
4, 72528, Note_on_c, 1, 63, 61
4, 72551, Note_on_c, 1, 63, 0
4, 72552, Note_on_c, 1, 67, 61
4, 72575, Note_on_c, 1, 67, 0
4, 72576, Note_on_c, 1, 58, 61
4, 72599, Note_on_c, 1, 58, 0
4, 72600, Note_on_c, 1, 67, 61
4, 72623, Note_on_c, 1, 67, 0
4, 72624, Note_on_c, 1, 63, 61
4, 72647, Note_on_c, 1, 63, 0
4, 72648, Note_on_c, 1, 67, 61
4, 72671, Note_on_c, 1, 67, 0
4, 72672, Note_on_c, 1, 58, 61
4, 72695, Note_on_c, 1, 58, 0
4, 72696, Note_on_c, 1, 67, 61
4, 72719, Note_on_c, 1, 67, 0
4, 72720, Note_on_c, 1, 63, 61
4, 72743, Note_on_c, 1, 63, 0
4, 72744, Note_on_c, 1, 67, 61
4, 72767, Note_on_c, 1, 67, 0
4, 72768, Note_on_c, 1, 58, 61
4, 72791, Note_on_c, 1, 58, 0
4, 72792, Note_on_c, 1, 67, 61
4, 72815, Note_on_c, 1, 67, 0
4, 72816, Note_on_c, 1, 63, 61
4, 72839, Note_on_c, 1, 63, 0
4, 72840, Note_on_c, 1, 67, 61
4, 72863, Note_on_c, 1, 67, 0
4, 72864, Note_on_c, 1, 58, 61
4, 72887, Note_on_c, 1, 58, 0
4, 72888, Note_on_c, 1, 67, 61
4, 72911, Note_on_c, 1, 67, 0
4, 72912, Note_on_c, 1, 63, 61
4, 72935, Note_on_c, 1, 63, 0
4, 72936, Note_on_c, 1, 67, 61
4, 72959, Note_on_c, 1, 67, 0
4, 72960, Note_on_c, 1, 58, 61
4, 72983, Note_on_c, 1, 58, 0
4, 72984, Note_on_c, 1, 68, 61
4, 73007, Note_on_c, 1, 68, 0
4, 73008, Note_on_c, 1, 65, 61
4, 73031, Note_on_c, 1, 65, 0
4, 73032, Note_on_c, 1, 68, 61
4, 73055, Note_on_c, 1, 68, 0
4, 73056, Note_on_c, 1, 58, 61
4, 73079, Note_on_c, 1, 58, 0
4, 73080, Note_on_c, 1, 68, 61
4, 73103, Note_on_c, 1, 68, 0
4, 73104, Note_on_c, 1, 65, 61
4, 73127, Note_on_c, 1, 65, 0
4, 73128, Note_on_c, 1, 68, 61
4, 73151, Note_on_c, 1, 68, 0
4, 73152, Note_on_c, 1, 67, 61
4, 73152, Note_on_c, 1, 63, 61
4, 73241, Note_on_c, 1, 67, 0
4, 73241, Note_on_c, 1, 63, 0
4, 73248, Note_on_c, 1, 63, 75
4, 73248, Note_on_c, 1, 55, 75
4, 73337, Note_on_c, 1, 63, 0
4, 73337, Note_on_c, 1, 55, 0
4, 73344, Note_on_c, 1, 63, 75
4, 73344, Note_on_c, 1, 56, 75
4, 73433, Note_on_c, 1, 63, 0
4, 73433, Note_on_c, 1, 56, 0
4, 73440, Note_on_c, 1, 62, 75
4, 73440, Note_on_c, 1, 58, 75
4, 73529, Note_on_c, 1, 62, 0
4, 73529, Note_on_c, 1, 58, 0
4, 73536, Note_on_c, 1, 63, 75
4, 73536, Note_on_c, 1, 51, 75
4, 73625, Note_on_c, 1, 63, 0
4, 73625, Note_on_c, 1, 51, 0
4, 73632, Note_on_c, 1, 63, 75
4, 73632, Note_on_c, 1, 55, 75
4, 73721, Note_on_c, 1, 63, 0
4, 73721, Note_on_c, 1, 55, 0
4, 73728, Note_on_c, 1, 63, 75
4, 73728, Note_on_c, 1, 56, 75
4, 73817, Note_on_c, 1, 63, 0
4, 73817, Note_on_c, 1, 56, 0
4, 73824, Note_on_c, 1, 58, 75
4, 73824, Note_on_c, 1, 46, 75
4, 73913, Note_on_c, 1, 58, 0
4, 73913, Note_on_c, 1, 46, 0
4, 73920, Note_on_c, 1, 55, 75
4, 73920, Note_on_c, 1, 51, 75
4, 74014, Note_on_c, 1, 55, 0
4, 74014, Note_on_c, 1, 51, 0
4, 74064, Note_on_c, 1, 51, 0
4, 74109, Note_on_c, 1, 51, 0
4, 74112, End_track
5, 0, Start_track
5, 0, Program_c, 1, 0
5, 0, Control_c, 1, 7, 127
5, 0, Control_c, 1, 10, 64
5, 42720, Note_on_c, 1, 62, 64
5, 42765, Note_on_c, 1, 62, 0
5, 42768, Note_on_c, 1, 67, 64
5, 42861, Note_on_c, 1, 67, 0
5, 42864, Note_on_c, 1, 65, 64
5, 42953, Note_on_c, 1, 65, 0
5, 42960, Note_on_c, 1, 63, 64
5, 43005, Note_on_c, 1, 63, 0
5, 62688, Note_on_c, 1, 62, 64
5, 62733, Note_on_c, 1, 62, 0
5, 62736, Note_on_c, 1, 67, 64
5, 62829, Note_on_c, 1, 67, 0
5, 62832, Note_on_c, 1, 65, 64
5, 62921, Note_on_c, 1, 65, 0
5, 62928, Note_on_c, 1, 63, 64
5, 62973, Note_on_c, 1, 63, 0
5, 74112, End_track
6, 0, Start_track
6, 0, Title_t, "Sonata III   <composer>  "
6, 0, End_track
0, 0, End_of_file
