0, 0, Header, 1, 6, 96
1, 0, Start_track
1, 0, Copyright_t, "Copyright  2000 <copyright holder>"
1, 0, Text_t, "Sonata II\015\012"
1, 0, Text_t, "Haydn\015\012"
1, 0, Sequencer_specific, 16, 68, 87, 77, 90, 86, 82, 83, 78, 32, 55, 46, 49, 46, 50, 46, 48
1, 0, Time_signature, 2, 2, 24, 8
1, 0, Tempo, 200000
1, 0, Key_signature, -2, "major"
1, 144, Tempo, 461538
1, 1680, Tempo, 461538
1, 11664, Key_signature, -5, "major"
1, 14160, Key_signature, -5, "major"
1, 20160, Key_signature, -2, "major"
1, 31680, End_track
2, 0, Start_track
2, 0, Program_c, 0, 0
2, 0, Control_c, 0, 7, 127
2, 0, Control_c, 0, 10, 64
2, 144, Note_on_c, 0, 65, 64
2, 164, Note_on_c, 0, 65, 0
2, 192, Note_on_c, 0, 70, 80
2, 429, Note_on_c, 0, 70, 0
2, 432, Note_on_c, 0, 69, 64
2, 452, Note_on_c, 0, 69, 0
2, 480, Note_on_c, 0, 72, 64
2, 500, Note_on_c, 0, 72, 0
2, 528, Note_on_c, 0, 65, 64
2, 548, Note_on_c, 0, 65, 0
2, 576, Note_on_c, 0, 74, 80
2, 576, Note_on_c, 0, 70, 80
2, 813, Note_on_c, 0, 74, 0
2, 813, Note_on_c, 0, 70, 0
2, 816, Note_on_c, 0, 72, 64
2, 816, Note_on_c, 0, 69, 64
2, 836, Note_on_c, 0, 72, 0
2, 836, Note_on_c, 0, 69, 0
2, 864, Note_on_c, 0, 75, 64
2, 864, Note_on_c, 0, 72, 64
2, 884, Note_on_c, 0, 75, 0
2, 884, Note_on_c, 0, 72, 0
2, 912, Note_on_c, 0, 65, 64
2, 932, Note_on_c, 0, 65, 0
2, 960, Note_on_c, 0, 77, 75
2, 1093, Note_on_c, 0, 77, 0
2, 1104, Note_on_c, 0, 79, 76
2, 1149, Note_on_c, 0, 79, 0
2, 1152, Note_on_c, 0, 77, 77
2, 1197, Note_on_c, 0, 77, 0
2, 1200, Note_on_c, 0, 76, 78
2, 1245, Note_on_c, 0, 76, 0
2, 1248, Note_on_c, 0, 75, 78
2, 1293, Note_on_c, 0, 75, 0
2, 1296, Note_on_c, 0, 74, 79
2, 1389, Note_on_c, 0, 74, 0
2, 1392, Note_on_c, 0, 72, 80
2, 1437, Note_on_c, 0, 72, 0
2, 1440, Note_on_c, 0, 77, 80
2, 1463, Note_on_c, 0, 77, 0
2, 1464, Note_on_c, 0, 75, 79
2, 1487, Note_on_c, 0, 75, 0
2, 1488, Note_on_c, 0, 74, 79
2, 1511, Note_on_c, 0, 74, 0
2, 1512, Note_on_c, 0, 72, 78
2, 1535, Note_on_c, 0, 72, 0
2, 1536, Note_on_c, 0, 70, 78
2, 1632, Note_on_c, 0, 70, 0
2, 1632, Note_on_c, 0, 69, 76
2, 1677, Note_on_c, 0, 69, 0
2, 1680, Note_on_c, 0, 65, 64
2, 1700, Note_on_c, 0, 65, 0
2, 1728, Note_on_c, 0, 70, 80
2, 1965, Note_on_c, 0, 70, 0
2, 1968, Note_on_c, 0, 69, 64
2, 1988, Note_on_c, 0, 69, 0
2, 2016, Note_on_c, 0, 72, 64
2, 2036, Note_on_c, 0, 72, 0
2, 2064, Note_on_c, 0, 65, 64
2, 2084, Note_on_c, 0, 65, 0
2, 2112, Note_on_c, 0, 74, 80
2, 2112, Note_on_c, 0, 70, 80
2, 2349, Note_on_c, 0, 74, 0
2, 2349, Note_on_c, 0, 70, 0
2, 2352, Note_on_c, 0, 72, 64
2, 2352, Note_on_c, 0, 69, 64
2, 2372, Note_on_c, 0, 72, 0
2, 2372, Note_on_c, 0, 69, 0
2, 2400, Note_on_c, 0, 75, 64
2, 2400, Note_on_c, 0, 72, 64
2, 2420, Note_on_c, 0, 75, 0
2, 2420, Note_on_c, 0, 72, 0
2, 2448, Note_on_c, 0, 65, 64
2, 2468, Note_on_c, 0, 65, 0
2, 2496, Note_on_c, 0, 77, 75
2, 2629, Note_on_c, 0, 77, 0
2, 2640, Note_on_c, 0, 79, 76
2, 2685, Note_on_c, 0, 79, 0
2, 2688, Note_on_c, 0, 77, 77
2, 2733, Note_on_c, 0, 77, 0
2, 2736, Note_on_c, 0, 76, 78
2, 2781, Note_on_c, 0, 76, 0
2, 2784, Note_on_c, 0, 75, 78
2, 2829, Note_on_c, 0, 75, 0
2, 2832, Note_on_c, 0, 74, 79
2, 2925, Note_on_c, 0, 74, 0
2, 2928, Note_on_c, 0, 72, 80
2, 2973, Note_on_c, 0, 72, 0
2, 2976, Note_on_c, 0, 77, 80
2, 2999, Note_on_c, 0, 77, 0
2, 3000, Note_on_c, 0, 75, 79
2, 3023, Note_on_c, 0, 75, 0
2, 3024, Note_on_c, 0, 74, 79
2, 3047, Note_on_c, 0, 74, 0
2, 3048, Note_on_c, 0, 72, 78
2, 3071, Note_on_c, 0, 72, 0
2, 3072, Note_on_c, 0, 70, 78
2, 3168, Note_on_c, 0, 70, 0
2, 3168, Note_on_c, 0, 69, 76
2, 3213, Note_on_c, 0, 69, 0
2, 3216, Note_on_c, 0, 72, 75
2, 3236, Note_on_c, 0, 72, 0
2, 3264, Note_on_c, 0, 63, 75
2, 3397, Note_on_c, 0, 63, 0
2, 3408, Note_on_c, 0, 67, 75
2, 3420, Note_on_c, 0, 67, 0
2, 3420, Note_on_c, 0, 65, 75
2, 3454, Note_on_c, 0, 65, 0
2, 3456, Note_on_c, 0, 63, 75
2, 3552, Note_on_c, 0, 63, 0
2, 3552, Note_on_c, 0, 62, 75
2, 3572, Note_on_c, 0, 62, 0
2, 3600, Note_on_c, 0, 77, 75
2, 3620, Note_on_c, 0, 77, 0
2, 3648, Note_on_c, 0, 68, 75
2, 3781, Note_on_c, 0, 68, 0
2, 3792, Note_on_c, 0, 72, 75
2, 3804, Note_on_c, 0, 72, 0
2, 3804, Note_on_c, 0, 70, 75
2, 3838, Note_on_c, 0, 70, 0
2, 3840, Note_on_c, 0, 68, 75
2, 3936, Note_on_c, 0, 68, 0
2, 3936, Note_on_c, 0, 67, 75
2, 3956, Note_on_c, 0, 67, 0
2, 3984, Note_on_c, 0, 79, 75
2, 4004, Note_on_c, 0, 79, 0
2, 4032, Note_on_c, 0, 71, 75
2, 4176, Note_on_c, 0, 71, 0
2, 4176, Note_on_c, 0, 74, 78
2, 4221, Note_on_c, 0, 74, 0
2, 4224, Note_on_c, 0, 72, 79
2, 4269, Note_on_c, 0, 72, 0
2, 4272, Note_on_c, 0, 79, 96
2, 4368, Note_on_c, 0, 79, 0
2, 4368, Note_on_c, 0, 77, 80
2, 4461, Note_on_c, 0, 77, 0
2, 4464, Note_on_c, 0, 75, 80
2, 4553, Note_on_c, 0, 75, 0
2, 4560, Note_on_c, 0, 74, 80
2, 4653, Note_on_c, 0, 74, 0
2, 4656, Note_on_c, 0, 72, 76
2, 4701, Note_on_c, 0, 72, 0
2, 4848, Note_on_c, 0, 70, 75
2, 4893, Note_on_c, 0, 70, 0
2, 4896, Note_on_c, 0, 75, 75
2, 4919, Note_on_c, 0, 75, 0
2, 4920, Note_on_c, 0, 74, 75
2, 4943, Note_on_c, 0, 74, 0
2, 4944, Note_on_c, 0, 72, 75
2, 4967, Note_on_c, 0, 72, 0
2, 4968, Note_on_c, 0, 70, 75
2, 4991, Note_on_c, 0, 70, 0
2, 4992, Note_on_c, 0, 77, 75
2, 5081, Note_on_c, 0, 77, 0
2, 5208, Note_on_c, 0, 82, 75
2, 5231, Note_on_c, 0, 82, 0
2, 5232, Note_on_c, 0, 84, 76
2, 5255, Note_on_c, 0, 84, 0
2, 5256, Note_on_c, 0, 86, 78
2, 5279, Note_on_c, 0, 86, 0
2, 5280, Note_on_c, 0, 84, 80
2, 5303, Note_on_c, 0, 84, 0
2, 5304, Note_on_c, 0, 82, 78
2, 5327, Note_on_c, 0, 82, 0
2, 5328, Note_on_c, 0, 81, 77
2, 5351, Note_on_c, 0, 81, 0
2, 5352, Note_on_c, 0, 79, 76
2, 5375, Note_on_c, 0, 79, 0
2, 5376, Note_on_c, 0, 77, 75
2, 5465, Note_on_c, 0, 77, 0
2, 5592, Note_on_c, 0, 80, 80
2, 5615, Note_on_c, 0, 80, 0
2, 5616, Note_on_c, 0, 79, 79
2, 5639, Note_on_c, 0, 79, 0
2, 5640, Note_on_c, 0, 77, 79
2, 5663, Note_on_c, 0, 77, 0
2, 5664, Note_on_c, 0, 75, 79
2, 5687, Note_on_c, 0, 75, 0
2, 5688, Note_on_c, 0, 74, 79
2, 5711, Note_on_c, 0, 74, 0
2, 5712, Note_on_c, 0, 72, 78
2, 5735, Note_on_c, 0, 72, 0
2, 5736, Note_on_c, 0, 70, 78
2, 5759, Note_on_c, 0, 70, 0
2, 5760, Note_on_c, 0, 72, 78
2, 5805, Note_on_c, 0, 72, 0
2, 5808, Note_on_c, 0, 74, 78
2, 5853, Note_on_c, 0, 74, 0
2, 5856, Note_on_c, 0, 77, 77
2, 5879, Note_on_c, 0, 77, 0
2, 5880, Note_on_c, 0, 75, 77
2, 5903, Note_on_c, 0, 75, 0
2, 5904, Note_on_c, 0, 74, 77
2, 5927, Note_on_c, 0, 74, 0
2, 5928, Note_on_c, 0, 72, 76
2, 5951, Note_on_c, 0, 72, 0
2, 5952, Note_on_c, 0, 70, 76
2, 5997, Note_on_c, 0, 70, 0
2, 6000, Note_on_c, 0, 72, 76
2, 6012, Note_on_c, 0, 72, 0
2, 6012, Note_on_c, 0, 70, 76
2, 6024, Note_on_c, 0, 70, 0
2, 6024, Note_on_c, 0, 69, 76
2, 6036, Note_on_c, 0, 69, 0
2, 6036, Note_on_c, 0, 70, 76
2, 6089, Note_on_c, 0, 70, 0
2, 6096, Note_on_c, 0, 72, 75
2, 6119, Note_on_c, 0, 72, 0
2, 6120, Note_on_c, 0, 69, 75
2, 6143, Note_on_c, 0, 69, 0
2, 6144, Note_on_c, 0, 70, 75
2, 6164, Note_on_c, 0, 70, 0
2, 6192, Note_on_c, 0, 77, 75
2, 6212, Note_on_c, 0, 77, 0
2, 6240, Note_on_c, 0, 82, 76
2, 6359, Note_on_c, 0, 82, 0
2, 6360, Note_on_c, 0, 79, 77
2, 6383, Note_on_c, 0, 79, 0
2, 6384, Note_on_c, 0, 81, 77
2, 6396, Note_on_c, 0, 81, 0
2, 6396, Note_on_c, 0, 79, 77
2, 6408, Note_on_c, 0, 79, 0
2, 6408, Note_on_c, 0, 77, 77
2, 6420, Note_on_c, 0, 77, 0
2, 6420, Note_on_c, 0, 79, 77
2, 6432, Note_on_c, 0, 79, 0
2, 6432, Note_on_c, 0, 84, 78
2, 6551, Note_on_c, 0, 84, 0
2, 6552, Note_on_c, 0, 81, 79
2, 6575, Note_on_c, 0, 81, 0
2, 6576, Note_on_c, 0, 82, 79
2, 6588, Note_on_c, 0, 82, 0
2, 6588, Note_on_c, 0, 81, 79
2, 6600, Note_on_c, 0, 81, 0
2, 6600, Note_on_c, 0, 79, 79
2, 6612, Note_on_c, 0, 79, 0
2, 6612, Note_on_c, 0, 81, 79
2, 6624, Note_on_c, 0, 81, 0
2, 6624, Note_on_c, 0, 89, 80
2, 6743, Note_on_c, 0, 89, 0
2, 6744, Note_on_c, 0, 87, 79
2, 6767, Note_on_c, 0, 87, 0
2, 6768, Note_on_c, 0, 86, 79
2, 6791, Note_on_c, 0, 86, 0
2, 6792, Note_on_c, 0, 84, 79
2, 6815, Note_on_c, 0, 84, 0
2, 6816, Note_on_c, 0, 82, 79
2, 6839, Note_on_c, 0, 82, 0
2, 6840, Note_on_c, 0, 81, 79
2, 6863, Note_on_c, 0, 81, 0
2, 6864, Note_on_c, 0, 79, 78
2, 6887, Note_on_c, 0, 79, 0
2, 6888, Note_on_c, 0, 77, 78
2, 6911, Note_on_c, 0, 77, 0
2, 6912, Note_on_c, 0, 75, 78
2, 6935, Note_on_c, 0, 75, 0
2, 6936, Note_on_c, 0, 77, 78
2, 6959, Note_on_c, 0, 77, 0
2, 6960, Note_on_c, 0, 74, 78
2, 6983, Note_on_c, 0, 74, 0
2, 6984, Note_on_c, 0, 75, 78
2, 7007, Note_on_c, 0, 75, 0
2, 7008, Note_on_c, 0, 72, 77
2, 7031, Note_on_c, 0, 72, 0
2, 7032, Note_on_c, 0, 74, 77
2, 7055, Note_on_c, 0, 74, 0
2, 7056, Note_on_c, 0, 70, 77
2, 7079, Note_on_c, 0, 70, 0
2, 7080, Note_on_c, 0, 74, 77
2, 7103, Note_on_c, 0, 74, 0
2, 7104, Note_on_c, 0, 72, 77
2, 7149, Note_on_c, 0, 72, 0
2, 7152, Note_on_c, 0, 75, 92
2, 7200, Note_on_c, 0, 75, 0
2, 7248, Note_on_c, 0, 69, 76
2, 7248, Note_on_c, 0, 63, 76
2, 7268, Note_on_c, 0, 69, 0
2, 7268, Note_on_c, 0, 63, 0
2, 7296, Note_on_c, 0, 70, 75
2, 7296, Note_on_c, 0, 62, 75
2, 7385, Note_on_c, 0, 70, 0
2, 7385, Note_on_c, 0, 62, 0
2, 7440, Note_on_c, 0, 72, 75
2, 7460, Note_on_c, 0, 72, 0
2, 7488, Note_on_c, 0, 63, 75
2, 7621, Note_on_c, 0, 63, 0
2, 7632, Note_on_c, 0, 67, 75
2, 7644, Note_on_c, 0, 67, 0
2, 7644, Note_on_c, 0, 65, 75
2, 7678, Note_on_c, 0, 65, 0
2, 7680, Note_on_c, 0, 63, 75
2, 7776, Note_on_c, 0, 63, 0
2, 7776, Note_on_c, 0, 62, 75
2, 7796, Note_on_c, 0, 62, 0
2, 7824, Note_on_c, 0, 77, 75
2, 7844, Note_on_c, 0, 77, 0
2, 7872, Note_on_c, 0, 68, 75
2, 8005, Note_on_c, 0, 68, 0
2, 8016, Note_on_c, 0, 72, 75
2, 8028, Note_on_c, 0, 72, 0
2, 8028, Note_on_c, 0, 70, 75
2, 8062, Note_on_c, 0, 70, 0
2, 8064, Note_on_c, 0, 68, 75
2, 8160, Note_on_c, 0, 68, 0
2, 8160, Note_on_c, 0, 67, 75
2, 8180, Note_on_c, 0, 67, 0
2, 8208, Note_on_c, 0, 79, 75
2, 8228, Note_on_c, 0, 79, 0
2, 8256, Note_on_c, 0, 71, 75
2, 8400, Note_on_c, 0, 71, 0
2, 8400, Note_on_c, 0, 74, 78
2, 8445, Note_on_c, 0, 74, 0
2, 8448, Note_on_c, 0, 72, 79
2, 8493, Note_on_c, 0, 72, 0
2, 8496, Note_on_c, 0, 79, 96
2, 8592, Note_on_c, 0, 79, 0
2, 8592, Note_on_c, 0, 77, 80
2, 8685, Note_on_c, 0, 77, 0
2, 8688, Note_on_c, 0, 75, 80
2, 8777, Note_on_c, 0, 75, 0
2, 8784, Note_on_c, 0, 74, 80
2, 8877, Note_on_c, 0, 74, 0
2, 8880, Note_on_c, 0, 72, 76
2, 8925, Note_on_c, 0, 72, 0
2, 9072, Note_on_c, 0, 70, 75
2, 9117, Note_on_c, 0, 70, 0
2, 9120, Note_on_c, 0, 75, 75
2, 9143, Note_on_c, 0, 75, 0
2, 9144, Note_on_c, 0, 74, 75
2, 9167, Note_on_c, 0, 74, 0
2, 9168, Note_on_c, 0, 72, 75
2, 9191, Note_on_c, 0, 72, 0
2, 9192, Note_on_c, 0, 70, 75
2, 9215, Note_on_c, 0, 70, 0
2, 9216, Note_on_c, 0, 77, 75
2, 9305, Note_on_c, 0, 77, 0
2, 9432, Note_on_c, 0, 82, 75
2, 9455, Note_on_c, 0, 82, 0
2, 9456, Note_on_c, 0, 84, 76
2, 9479, Note_on_c, 0, 84, 0
2, 9480, Note_on_c, 0, 86, 78
2, 9503, Note_on_c, 0, 86, 0
2, 9504, Note_on_c, 0, 84, 80
2, 9527, Note_on_c, 0, 84, 0
2, 9528, Note_on_c, 0, 82, 78
2, 9551, Note_on_c, 0, 82, 0
2, 9552, Note_on_c, 0, 81, 77
2, 9575, Note_on_c, 0, 81, 0
2, 9576, Note_on_c, 0, 79, 76
2, 9599, Note_on_c, 0, 79, 0
2, 9600, Note_on_c, 0, 77, 75
2, 9689, Note_on_c, 0, 77, 0
2, 9816, Note_on_c, 0, 80, 80
2, 9839, Note_on_c, 0, 80, 0
2, 9840, Note_on_c, 0, 79, 79
2, 9863, Note_on_c, 0, 79, 0
2, 9864, Note_on_c, 0, 77, 79
2, 9887, Note_on_c, 0, 77, 0
2, 9888, Note_on_c, 0, 75, 79
2, 9911, Note_on_c, 0, 75, 0
2, 9912, Note_on_c, 0, 74, 79
2, 9935, Note_on_c, 0, 74, 0
2, 9936, Note_on_c, 0, 72, 78
2, 9959, Note_on_c, 0, 72, 0
2, 9960, Note_on_c, 0, 70, 78
2, 9983, Note_on_c, 0, 70, 0
2, 9984, Note_on_c, 0, 72, 78
2, 10029, Note_on_c, 0, 72, 0
2, 10032, Note_on_c, 0, 74, 78
2, 10077, Note_on_c, 0, 74, 0
2, 10080, Note_on_c, 0, 77, 77
2, 10103, Note_on_c, 0, 77, 0
2, 10104, Note_on_c, 0, 75, 77
2, 10127, Note_on_c, 0, 75, 0
2, 10128, Note_on_c, 0, 74, 77
2, 10151, Note_on_c, 0, 74, 0
2, 10152, Note_on_c, 0, 72, 76
2, 10175, Note_on_c, 0, 72, 0
2, 10176, Note_on_c, 0, 70, 76
2, 10221, Note_on_c, 0, 70, 0
2, 10224, Note_on_c, 0, 72, 76
2, 10236, Note_on_c, 0, 72, 0
2, 10236, Note_on_c, 0, 70, 76
2, 10248, Note_on_c, 0, 70, 0
2, 10248, Note_on_c, 0, 69, 76
2, 10260, Note_on_c, 0, 69, 0
2, 10260, Note_on_c, 0, 70, 76
2, 10313, Note_on_c, 0, 70, 0
2, 10320, Note_on_c, 0, 72, 75
2, 10343, Note_on_c, 0, 72, 0
2, 10344, Note_on_c, 0, 69, 75
2, 10367, Note_on_c, 0, 69, 0
2, 10368, Note_on_c, 0, 70, 75
2, 10388, Note_on_c, 0, 70, 0
2, 10416, Note_on_c, 0, 77, 75
2, 10436, Note_on_c, 0, 77, 0
2, 10464, Note_on_c, 0, 82, 76
2, 10583, Note_on_c, 0, 82, 0
2, 10584, Note_on_c, 0, 79, 77
2, 10607, Note_on_c, 0, 79, 0
2, 10608, Note_on_c, 0, 81, 77
2, 10620, Note_on_c, 0, 81, 0
2, 10620, Note_on_c, 0, 79, 77
2, 10632, Note_on_c, 0, 79, 0
2, 10632, Note_on_c, 0, 77, 77
2, 10644, Note_on_c, 0, 77, 0
2, 10644, Note_on_c, 0, 79, 77
2, 10656, Note_on_c, 0, 79, 0
2, 10656, Note_on_c, 0, 84, 78
2, 10775, Note_on_c, 0, 84, 0
2, 10776, Note_on_c, 0, 81, 79
2, 10799, Note_on_c, 0, 81, 0
2, 10800, Note_on_c, 0, 82, 79
2, 10812, Note_on_c, 0, 82, 0
2, 10812, Note_on_c, 0, 81, 79
2, 10824, Note_on_c, 0, 81, 0
2, 10824, Note_on_c, 0, 79, 79
2, 10836, Note_on_c, 0, 79, 0
2, 10836, Note_on_c, 0, 81, 79
2, 10848, Note_on_c, 0, 81, 0
2, 10848, Note_on_c, 0, 89, 80
2, 10967, Note_on_c, 0, 89, 0
2, 10968, Note_on_c, 0, 87, 79
2, 10991, Note_on_c, 0, 87, 0
2, 10992, Note_on_c, 0, 86, 79
2, 11015, Note_on_c, 0, 86, 0
2, 11016, Note_on_c, 0, 84, 79
2, 11039, Note_on_c, 0, 84, 0
2, 11040, Note_on_c, 0, 82, 79
2, 11063, Note_on_c, 0, 82, 0
2, 11064, Note_on_c, 0, 81, 79
2, 11087, Note_on_c, 0, 81, 0
2, 11088, Note_on_c, 0, 79, 78
2, 11111, Note_on_c, 0, 79, 0
2, 11112, Note_on_c, 0, 77, 78
2, 11135, Note_on_c, 0, 77, 0
2, 11136, Note_on_c, 0, 75, 78
2, 11159, Note_on_c, 0, 75, 0
2, 11160, Note_on_c, 0, 77, 78
2, 11183, Note_on_c, 0, 77, 0
2, 11184, Note_on_c, 0, 74, 78
2, 11207, Note_on_c, 0, 74, 0
2, 11208, Note_on_c, 0, 75, 78
2, 11231, Note_on_c, 0, 75, 0
2, 11232, Note_on_c, 0, 72, 77
2, 11255, Note_on_c, 0, 72, 0
2, 11256, Note_on_c, 0, 74, 77
2, 11279, Note_on_c, 0, 74, 0
2, 11280, Note_on_c, 0, 70, 77
2, 11303, Note_on_c, 0, 70, 0
2, 11304, Note_on_c, 0, 74, 77
2, 11327, Note_on_c, 0, 74, 0
2, 11328, Note_on_c, 0, 72, 77
2, 11373, Note_on_c, 0, 72, 0
2, 11376, Note_on_c, 0, 75, 92
2, 11424, Note_on_c, 0, 75, 0
2, 11472, Note_on_c, 0, 69, 76
2, 11472, Note_on_c, 0, 63, 76
2, 11492, Note_on_c, 0, 69, 0
2, 11492, Note_on_c, 0, 63, 0
2, 11520, Note_on_c, 0, 70, 75
2, 11520, Note_on_c, 0, 62, 75
2, 11609, Note_on_c, 0, 70, 0
2, 11609, Note_on_c, 0, 62, 0
2, 11664, Note_on_c, 0, 53, 75
2, 11684, Note_on_c, 0, 53, 0
2, 11712, Note_on_c, 0, 58, 75
2, 11949, Note_on_c, 0, 58, 0
2, 11952, Note_on_c, 0, 57, 70
2, 11975, Note_on_c, 0, 57, 0
2, 11976, Note_on_c, 0, 60, 70
2, 11999, Note_on_c, 0, 60, 0
2, 12000, Note_on_c, 0, 58, 71
2, 12023, Note_on_c, 0, 58, 0
2, 12024, Note_on_c, 0, 61, 72
2, 12047, Note_on_c, 0, 61, 0
2, 12048, Note_on_c, 0, 60, 73
2, 12071, Note_on_c, 0, 60, 0
2, 12072, Note_on_c, 0, 63, 74
2, 12095, Note_on_c, 0, 63, 0
2, 12096, Note_on_c, 0, 61, 75
2, 12311, Note_on_c, 0, 61, 0
2, 12312, Note_on_c, 0, 58, 70
2, 12335, Note_on_c, 0, 58, 0
2, 12336, Note_on_c, 0, 60, 70
2, 12359, Note_on_c, 0, 60, 0
2, 12360, Note_on_c, 0, 61, 71
2, 12383, Note_on_c, 0, 61, 0
2, 12384, Note_on_c, 0, 63, 72
2, 12407, Note_on_c, 0, 63, 0
2, 12408, Note_on_c, 0, 65, 72
2, 12431, Note_on_c, 0, 65, 0
2, 12432, Note_on_c, 0, 66, 73
2, 12455, Note_on_c, 0, 66, 0
2, 12456, Note_on_c, 0, 63, 74
2, 12479, Note_on_c, 0, 63, 0
2, 12504, Note_on_c, 0, 60, 70
2, 12527, Note_on_c, 0, 60, 0
2, 12528, Note_on_c, 0, 61, 70
2, 12551, Note_on_c, 0, 61, 0
2, 12552, Note_on_c, 0, 63, 71
2, 12575, Note_on_c, 0, 63, 0
2, 12576, Note_on_c, 0, 65, 72
2, 12599, Note_on_c, 0, 65, 0
2, 12600, Note_on_c, 0, 66, 72
2, 12623, Note_on_c, 0, 66, 0
2, 12624, Note_on_c, 0, 68, 73
2, 12647, Note_on_c, 0, 68, 0
2, 12648, Note_on_c, 0, 65, 74
2, 12671, Note_on_c, 0, 65, 0
2, 12672, Note_on_c, 0, 61, 75
2, 12695, Note_on_c, 0, 61, 0
2, 12696, Note_on_c, 0, 66, 75
2, 12719, Note_on_c, 0, 66, 0
2, 12720, Note_on_c, 0, 70, 75
2, 12743, Note_on_c, 0, 70, 0
2, 12744, Note_on_c, 0, 66, 75
2, 12767, Note_on_c, 0, 66, 0
2, 12768, Note_on_c, 0, 63, 75
2, 12791, Note_on_c, 0, 63, 0
2, 12792, Note_on_c, 0, 66, 75
2, 12815, Note_on_c, 0, 66, 0
2, 12816, Note_on_c, 0, 68, 75
2, 12839, Note_on_c, 0, 68, 0
2, 12840, Note_on_c, 0, 66, 75
2, 12863, Note_on_c, 0, 66, 0
2, 12864, Note_on_c, 0, 65, 75
2, 12887, Note_on_c, 0, 65, 0
2, 12888, Note_on_c, 0, 68, 75
2, 12911, Note_on_c, 0, 68, 0
2, 12912, Note_on_c, 0, 73, 75
2, 12935, Note_on_c, 0, 73, 0
2, 12936, Note_on_c, 0, 68, 75
2, 12959, Note_on_c, 0, 68, 0
2, 12960, Note_on_c, 0, 66, 75
2, 12983, Note_on_c, 0, 66, 0
2, 12984, Note_on_c, 0, 68, 75
2, 13007, Note_on_c, 0, 68, 0
2, 13008, Note_on_c, 0, 75, 75
2, 13031, Note_on_c, 0, 75, 0
2, 13032, Note_on_c, 0, 68, 75
2, 13055, Note_on_c, 0, 68, 0
2, 13056, Note_on_c, 0, 65, 75
2, 13079, Note_on_c, 0, 65, 0
2, 13080, Note_on_c, 0, 68, 75
2, 13103, Note_on_c, 0, 68, 0
2, 13104, Note_on_c, 0, 73, 75
2, 13127, Note_on_c, 0, 73, 0
2, 13128, Note_on_c, 0, 68, 75
2, 13151, Note_on_c, 0, 68, 0
2, 13152, Note_on_c, 0, 66, 75
2, 13175, Note_on_c, 0, 66, 0
2, 13176, Note_on_c, 0, 68, 75
2, 13199, Note_on_c, 0, 68, 0
2, 13200, Note_on_c, 0, 75, 75
2, 13223, Note_on_c, 0, 75, 0
2, 13224, Note_on_c, 0, 66, 75
2, 13247, Note_on_c, 0, 66, 0
2, 13248, Note_on_c, 0, 65, 75
2, 13271, Note_on_c, 0, 65, 0
2, 13272, Note_on_c, 0, 68, 75
2, 13295, Note_on_c, 0, 68, 0
2, 13296, Note_on_c, 0, 73, 75
2, 13319, Note_on_c, 0, 73, 0
2, 13320, Note_on_c, 0, 68, 75
2, 13343, Note_on_c, 0, 68, 0
2, 13344, Note_on_c, 0, 65, 76
2, 13367, Note_on_c, 0, 65, 0
2, 13368, Note_on_c, 0, 68, 76
2, 13391, Note_on_c, 0, 68, 0
2, 13392, Note_on_c, 0, 74, 76
2, 13415, Note_on_c, 0, 74, 0
2, 13416, Note_on_c, 0, 68, 77
2, 13439, Note_on_c, 0, 68, 0
2, 13440, Note_on_c, 0, 66, 77
2, 13463, Note_on_c, 0, 66, 0
2, 13464, Note_on_c, 0, 70, 77
2, 13487, Note_on_c, 0, 70, 0
2, 13488, Note_on_c, 0, 73, 77
2, 13511, Note_on_c, 0, 73, 0
2, 13512, Note_on_c, 0, 70, 78
2, 13535, Note_on_c, 0, 70, 0
2, 13536, Note_on_c, 0, 66, 78
2, 13559, Note_on_c, 0, 66, 0
2, 13560, Note_on_c, 0, 73, 78
2, 13583, Note_on_c, 0, 73, 0
2, 13584, Note_on_c, 0, 78, 79
2, 13607, Note_on_c, 0, 78, 0
2, 13608, Note_on_c, 0, 73, 79
2, 13631, Note_on_c, 0, 73, 0
2, 13632, Note_on_c, 0, 72, 79
2, 13655, Note_on_c, 0, 72, 0
2, 13656, Note_on_c, 0, 75, 80
2, 13679, Note_on_c, 0, 75, 0
2, 13680, Note_on_c, 0, 78, 80
2, 13703, Note_on_c, 0, 78, 0
2, 13704, Note_on_c, 0, 75, 80
2, 13727, Note_on_c, 0, 75, 0
2, 13728, Note_on_c, 0, 73, 80
2, 13751, Note_on_c, 0, 73, 0
2, 13752, Note_on_c, 0, 77, 79
2, 13775, Note_on_c, 0, 77, 0
2, 13776, Note_on_c, 0, 73, 78
2, 13799, Note_on_c, 0, 73, 0
2, 13800, Note_on_c, 0, 77, 77
2, 13823, Note_on_c, 0, 77, 0
2, 13824, Note_on_c, 0, 73, 76
2, 13847, Note_on_c, 0, 73, 0
2, 13848, Note_on_c, 0, 75, 75
2, 13871, Note_on_c, 0, 75, 0
2, 13872, Note_on_c, 0, 73, 75
2, 13895, Note_on_c, 0, 73, 0
2, 13896, Note_on_c, 0, 75, 74
2, 13919, Note_on_c, 0, 75, 0
2, 13920, Note_on_c, 0, 72, 73
2, 13943, Note_on_c, 0, 72, 0
2, 13944, Note_on_c, 0, 75, 72
2, 13967, Note_on_c, 0, 75, 0
2, 13968, Note_on_c, 0, 72, 71
2, 13991, Note_on_c, 0, 72, 0
2, 13992, Note_on_c, 0, 75, 70
2, 14015, Note_on_c, 0, 75, 0
2, 14016, Note_on_c, 0, 73, 70
2, 14105, Note_on_c, 0, 73, 0
2, 14160, Note_on_c, 0, 53, 75
2, 14180, Note_on_c, 0, 53, 0
2, 14208, Note_on_c, 0, 58, 75
2, 14445, Note_on_c, 0, 58, 0
2, 14448, Note_on_c, 0, 57, 70
2, 14471, Note_on_c, 0, 57, 0
2, 14472, Note_on_c, 0, 60, 70
2, 14495, Note_on_c, 0, 60, 0
2, 14496, Note_on_c, 0, 58, 71
2, 14519, Note_on_c, 0, 58, 0
2, 14520, Note_on_c, 0, 61, 72
2, 14543, Note_on_c, 0, 61, 0
2, 14544, Note_on_c, 0, 60, 73
2, 14567, Note_on_c, 0, 60, 0
2, 14568, Note_on_c, 0, 63, 74
2, 14591, Note_on_c, 0, 63, 0
2, 14592, Note_on_c, 0, 61, 75
2, 14807, Note_on_c, 0, 61, 0
2, 14808, Note_on_c, 0, 58, 70
2, 14831, Note_on_c, 0, 58, 0
2, 14832, Note_on_c, 0, 60, 70
2, 14855, Note_on_c, 0, 60, 0
2, 14856, Note_on_c, 0, 61, 71
2, 14879, Note_on_c, 0, 61, 0
2, 14880, Note_on_c, 0, 63, 72
2, 14903, Note_on_c, 0, 63, 0
2, 14904, Note_on_c, 0, 65, 72
2, 14927, Note_on_c, 0, 65, 0
2, 14928, Note_on_c, 0, 66, 73
2, 14951, Note_on_c, 0, 66, 0
2, 14952, Note_on_c, 0, 63, 74
2, 14975, Note_on_c, 0, 63, 0
2, 15000, Note_on_c, 0, 60, 70
2, 15023, Note_on_c, 0, 60, 0
2, 15024, Note_on_c, 0, 61, 70
2, 15047, Note_on_c, 0, 61, 0
2, 15048, Note_on_c, 0, 63, 71
2, 15071, Note_on_c, 0, 63, 0
2, 15072, Note_on_c, 0, 65, 72
2, 15095, Note_on_c, 0, 65, 0
2, 15096, Note_on_c, 0, 66, 72
2, 15119, Note_on_c, 0, 66, 0
2, 15120, Note_on_c, 0, 68, 73
2, 15143, Note_on_c, 0, 68, 0
2, 15144, Note_on_c, 0, 65, 74
2, 15167, Note_on_c, 0, 65, 0
2, 15168, Note_on_c, 0, 61, 75
2, 15191, Note_on_c, 0, 61, 0
2, 15192, Note_on_c, 0, 66, 75
2, 15215, Note_on_c, 0, 66, 0
2, 15216, Note_on_c, 0, 70, 75
2, 15239, Note_on_c, 0, 70, 0
2, 15240, Note_on_c, 0, 66, 75
2, 15263, Note_on_c, 0, 66, 0
2, 15264, Note_on_c, 0, 63, 75
2, 15287, Note_on_c, 0, 63, 0
2, 15288, Note_on_c, 0, 66, 75
2, 15311, Note_on_c, 0, 66, 0
2, 15312, Note_on_c, 0, 68, 75
2, 15335, Note_on_c, 0, 68, 0
2, 15336, Note_on_c, 0, 66, 75
2, 15359, Note_on_c, 0, 66, 0
2, 15360, Note_on_c, 0, 65, 75
2, 15383, Note_on_c, 0, 65, 0
2, 15384, Note_on_c, 0, 68, 75
2, 15407, Note_on_c, 0, 68, 0
2, 15408, Note_on_c, 0, 73, 75
2, 15431, Note_on_c, 0, 73, 0
2, 15432, Note_on_c, 0, 68, 75
2, 15455, Note_on_c, 0, 68, 0
2, 15456, Note_on_c, 0, 66, 75
2, 15479, Note_on_c, 0, 66, 0
2, 15480, Note_on_c, 0, 68, 75
2, 15503, Note_on_c, 0, 68, 0
2, 15504, Note_on_c, 0, 75, 75
2, 15527, Note_on_c, 0, 75, 0
2, 15528, Note_on_c, 0, 68, 75
2, 15551, Note_on_c, 0, 68, 0
2, 15552, Note_on_c, 0, 65, 75
2, 15575, Note_on_c, 0, 65, 0
2, 15576, Note_on_c, 0, 68, 75
2, 15599, Note_on_c, 0, 68, 0
2, 15600, Note_on_c, 0, 73, 75
2, 15623, Note_on_c, 0, 73, 0
2, 15624, Note_on_c, 0, 68, 75
2, 15647, Note_on_c, 0, 68, 0
2, 15648, Note_on_c, 0, 66, 75
2, 15671, Note_on_c, 0, 66, 0
2, 15672, Note_on_c, 0, 68, 75
2, 15695, Note_on_c, 0, 68, 0
2, 15696, Note_on_c, 0, 75, 75
2, 15719, Note_on_c, 0, 75, 0
2, 15720, Note_on_c, 0, 66, 75
2, 15743, Note_on_c, 0, 66, 0
2, 15744, Note_on_c, 0, 65, 75
2, 15767, Note_on_c, 0, 65, 0
2, 15768, Note_on_c, 0, 68, 75
2, 15791, Note_on_c, 0, 68, 0
2, 15792, Note_on_c, 0, 73, 75
2, 15815, Note_on_c, 0, 73, 0
2, 15816, Note_on_c, 0, 68, 75
2, 15839, Note_on_c, 0, 68, 0
2, 15840, Note_on_c, 0, 65, 76
2, 15863, Note_on_c, 0, 65, 0
2, 15864, Note_on_c, 0, 68, 76
2, 15887, Note_on_c, 0, 68, 0
2, 15888, Note_on_c, 0, 74, 76
2, 15911, Note_on_c, 0, 74, 0
2, 15912, Note_on_c, 0, 68, 77
2, 15935, Note_on_c, 0, 68, 0
2, 15936, Note_on_c, 0, 66, 77
2, 15959, Note_on_c, 0, 66, 0
2, 15960, Note_on_c, 0, 70, 77
2, 15983, Note_on_c, 0, 70, 0
2, 15984, Note_on_c, 0, 73, 77
2, 16007, Note_on_c, 0, 73, 0
2, 16008, Note_on_c, 0, 70, 78
2, 16031, Note_on_c, 0, 70, 0
2, 16032, Note_on_c, 0, 66, 78
2, 16055, Note_on_c, 0, 66, 0
2, 16056, Note_on_c, 0, 73, 78
2, 16079, Note_on_c, 0, 73, 0
2, 16080, Note_on_c, 0, 78, 79
2, 16103, Note_on_c, 0, 78, 0
2, 16104, Note_on_c, 0, 73, 79
2, 16127, Note_on_c, 0, 73, 0
2, 16128, Note_on_c, 0, 72, 79
2, 16151, Note_on_c, 0, 72, 0
2, 16152, Note_on_c, 0, 75, 80
2, 16175, Note_on_c, 0, 75, 0
2, 16176, Note_on_c, 0, 78, 80
2, 16199, Note_on_c, 0, 78, 0
2, 16200, Note_on_c, 0, 75, 80
2, 16223, Note_on_c, 0, 75, 0
2, 16224, Note_on_c, 0, 73, 80
2, 16247, Note_on_c, 0, 73, 0
2, 16248, Note_on_c, 0, 77, 79
2, 16271, Note_on_c, 0, 77, 0
2, 16272, Note_on_c, 0, 73, 78
2, 16295, Note_on_c, 0, 73, 0
2, 16296, Note_on_c, 0, 77, 77
2, 16319, Note_on_c, 0, 77, 0
2, 16320, Note_on_c, 0, 73, 76
2, 16343, Note_on_c, 0, 73, 0
2, 16344, Note_on_c, 0, 75, 75
2, 16367, Note_on_c, 0, 75, 0
2, 16368, Note_on_c, 0, 73, 75
2, 16391, Note_on_c, 0, 73, 0
2, 16392, Note_on_c, 0, 75, 74
2, 16415, Note_on_c, 0, 75, 0
2, 16416, Note_on_c, 0, 72, 73
2, 16439, Note_on_c, 0, 72, 0
2, 16440, Note_on_c, 0, 75, 72
2, 16463, Note_on_c, 0, 75, 0
2, 16464, Note_on_c, 0, 72, 71
2, 16487, Note_on_c, 0, 72, 0
2, 16488, Note_on_c, 0, 75, 70
2, 16511, Note_on_c, 0, 75, 0
2, 16512, Note_on_c, 0, 73, 70
2, 16601, Note_on_c, 0, 73, 0
2, 16656, Note_on_c, 0, 68, 75
2, 16676, Note_on_c, 0, 68, 0
2, 16704, Note_on_c, 0, 73, 91
2, 16704, Note_on_c, 0, 65, 91
2, 16896, Note_on_c, 0, 65, 0
2, 16896, Note_on_c, 0, 63, 75
2, 16941, Note_on_c, 0, 73, 0
2, 16941, Note_on_c, 0, 63, 0
2, 16944, Note_on_c, 0, 72, 75
2, 16944, Note_on_c, 0, 68, 75
2, 16989, Note_on_c, 0, 72, 0
2, 16989, Note_on_c, 0, 68, 0
2, 16992, Note_on_c, 0, 73, 76
2, 16992, Note_on_c, 0, 70, 76
2, 17037, Note_on_c, 0, 73, 0
2, 17037, Note_on_c, 0, 70, 0
2, 17040, Note_on_c, 0, 75, 78
2, 17040, Note_on_c, 0, 72, 78
2, 17060, Note_on_c, 0, 75, 0
2, 17060, Note_on_c, 0, 72, 0
2, 17088, Note_on_c, 0, 77, 96
2, 17088, Note_on_c, 0, 73, 96
2, 17325, Note_on_c, 0, 77, 0
2, 17325, Note_on_c, 0, 73, 0
2, 17328, Note_on_c, 0, 75, 80
2, 17328, Note_on_c, 0, 72, 80
2, 17373, Note_on_c, 0, 75, 0
2, 17373, Note_on_c, 0, 72, 0
2, 17376, Note_on_c, 0, 77, 82
2, 17376, Note_on_c, 0, 73, 82
2, 17421, Note_on_c, 0, 77, 0
2, 17421, Note_on_c, 0, 73, 0
2, 17424, Note_on_c, 0, 78, 84
2, 17424, Note_on_c, 0, 75, 84
2, 17469, Note_on_c, 0, 78, 0
2, 17469, Note_on_c, 0, 75, 0
2, 17472, Note_on_c, 0, 80, 102
2, 17664, Note_on_c, 0, 80, 0
2, 17664, Note_on_c, 0, 78, 86
2, 17841, Note_on_c, 0, 78, 0
2, 17856, Note_on_c, 0, 77, 86
2, 18033, Note_on_c, 0, 77, 0
2, 18048, Note_on_c, 0, 75, 86
2, 18225, Note_on_c, 0, 75, 0
2, 18240, Note_on_c, 0, 73, 86
2, 18263, Note_on_c, 0, 73, 0
2, 18264, Note_on_c, 0, 75, 85
2, 18287, Note_on_c, 0, 75, 0
2, 18288, Note_on_c, 0, 77, 85
2, 18311, Note_on_c, 0, 77, 0
2, 18312, Note_on_c, 0, 73, 84
2, 18335, Note_on_c, 0, 73, 0
2, 18336, Note_on_c, 0, 72, 84
2, 18359, Note_on_c, 0, 72, 0
2, 18360, Note_on_c, 0, 75, 84
2, 18383, Note_on_c, 0, 75, 0
2, 18384, Note_on_c, 0, 73, 83
2, 18407, Note_on_c, 0, 73, 0
2, 18408, Note_on_c, 0, 72, 83
2, 18431, Note_on_c, 0, 72, 0
2, 18432, Note_on_c, 0, 70, 83
2, 18455, Note_on_c, 0, 70, 0
2, 18456, Note_on_c, 0, 69, 82
2, 18479, Note_on_c, 0, 69, 0
2, 18480, Note_on_c, 0, 70, 82
2, 18503, Note_on_c, 0, 70, 0
2, 18504, Note_on_c, 0, 69, 81
2, 18527, Note_on_c, 0, 69, 0
2, 18528, Note_on_c, 0, 70, 81
2, 18551, Note_on_c, 0, 70, 0
2, 18552, Note_on_c, 0, 73, 81
2, 18575, Note_on_c, 0, 73, 0
2, 18576, Note_on_c, 0, 72, 80
2, 18599, Note_on_c, 0, 72, 0
2, 18600, Note_on_c, 0, 70, 80
2, 18623, Note_on_c, 0, 70, 0
2, 18624, Note_on_c, 0, 69, 80
2, 18669, Note_on_c, 0, 69, 0
2, 18672, Note_on_c, 0, 77, 80
2, 18695, Note_on_c, 0, 77, 0
2, 18696, Note_on_c, 0, 65, 80
2, 18719, Note_on_c, 0, 65, 0
2, 18720, Note_on_c, 0, 76, 80
2, 18743, Note_on_c, 0, 76, 0
2, 18744, Note_on_c, 0, 65, 80
2, 18767, Note_on_c, 0, 65, 0
2, 18768, Note_on_c, 0, 75, 80
2, 18791, Note_on_c, 0, 75, 0
2, 18792, Note_on_c, 0, 65, 80
2, 18815, Note_on_c, 0, 65, 0
2, 18816, Note_on_c, 0, 74, 80
2, 18839, Note_on_c, 0, 74, 0
2, 18840, Note_on_c, 0, 65, 80
2, 18863, Note_on_c, 0, 65, 0
2, 18864, Note_on_c, 0, 73, 80
2, 18887, Note_on_c, 0, 73, 0
2, 18888, Note_on_c, 0, 65, 80
2, 18911, Note_on_c, 0, 65, 0
2, 18912, Note_on_c, 0, 72, 80
2, 18935, Note_on_c, 0, 72, 0
2, 18936, Note_on_c, 0, 65, 80
2, 18959, Note_on_c, 0, 65, 0
2, 18960, Note_on_c, 0, 70, 80
2, 18983, Note_on_c, 0, 70, 0
2, 18984, Note_on_c, 0, 65, 80
2, 19007, Note_on_c, 0, 65, 0
2, 19008, Note_on_c, 0, 69, 80
2, 19031, Note_on_c, 0, 69, 0
2, 19032, Note_on_c, 0, 65, 80
2, 19055, Note_on_c, 0, 65, 0
2, 19056, Note_on_c, 0, 77, 80
2, 19079, Note_on_c, 0, 77, 0
2, 19080, Note_on_c, 0, 65, 80
2, 19103, Note_on_c, 0, 65, 0
2, 19104, Note_on_c, 0, 76, 80
2, 19127, Note_on_c, 0, 76, 0
2, 19128, Note_on_c, 0, 65, 80
2, 19151, Note_on_c, 0, 65, 0
2, 19152, Note_on_c, 0, 75, 80
2, 19175, Note_on_c, 0, 75, 0
2, 19176, Note_on_c, 0, 65, 80
2, 19199, Note_on_c, 0, 65, 0
2, 19200, Note_on_c, 0, 74, 80
2, 19223, Note_on_c, 0, 74, 0
2, 19224, Note_on_c, 0, 65, 80
2, 19247, Note_on_c, 0, 65, 0
2, 19248, Note_on_c, 0, 73, 80
2, 19271, Note_on_c, 0, 73, 0
2, 19272, Note_on_c, 0, 65, 80
2, 19295, Note_on_c, 0, 65, 0
2, 19296, Note_on_c, 0, 72, 80
2, 19319, Note_on_c, 0, 72, 0
2, 19320, Note_on_c, 0, 65, 80
2, 19343, Note_on_c, 0, 65, 0
2, 19344, Note_on_c, 0, 70, 80
2, 19367, Note_on_c, 0, 70, 0
2, 19368, Note_on_c, 0, 65, 80
2, 19391, Note_on_c, 0, 65, 0
2, 19392, Note_on_c, 0, 69, 80
2, 19415, Note_on_c, 0, 69, 0
2, 19416, Note_on_c, 0, 65, 80
2, 19439, Note_on_c, 0, 65, 0
2, 19440, Note_on_c, 0, 77, 80
2, 19463, Note_on_c, 0, 77, 0
2, 19464, Note_on_c, 0, 65, 80
2, 19487, Note_on_c, 0, 65, 0
2, 19488, Note_on_c, 0, 76, 80
2, 19511, Note_on_c, 0, 76, 0
2, 19512, Note_on_c, 0, 65, 80
2, 19535, Note_on_c, 0, 65, 0
2, 19536, Note_on_c, 0, 75, 80
2, 19559, Note_on_c, 0, 75, 0
2, 19560, Note_on_c, 0, 65, 80
2, 19583, Note_on_c, 0, 65, 0
2, 19584, Note_on_c, 0, 74, 80
2, 19607, Note_on_c, 0, 74, 0
2, 19608, Note_on_c, 0, 65, 80
2, 19631, Note_on_c, 0, 65, 0
2, 19632, Note_on_c, 0, 73, 80
2, 19655, Note_on_c, 0, 73, 0
2, 19656, Note_on_c, 0, 65, 80
2, 19679, Note_on_c, 0, 65, 0
2, 19680, Note_on_c, 0, 72, 80
2, 19703, Note_on_c, 0, 72, 0
2, 19704, Note_on_c, 0, 65, 80
2, 19727, Note_on_c, 0, 65, 0
2, 19728, Note_on_c, 0, 70, 80
2, 19751, Note_on_c, 0, 70, 0
2, 19752, Note_on_c, 0, 65, 80
2, 19775, Note_on_c, 0, 65, 0
2, 19776, Note_on_c, 0, 69, 80
2, 19799, Note_on_c, 0, 69, 0
2, 19800, Note_on_c, 0, 65, 79
2, 19823, Note_on_c, 0, 65, 0
2, 19824, Note_on_c, 0, 70, 78
2, 19847, Note_on_c, 0, 70, 0
2, 19848, Note_on_c, 0, 65, 78
2, 19871, Note_on_c, 0, 65, 0
2, 19872, Note_on_c, 0, 69, 77
2, 19895, Note_on_c, 0, 69, 0
2, 19896, Note_on_c, 0, 65, 76
2, 19919, Note_on_c, 0, 65, 0
2, 19920, Note_on_c, 0, 70, 76
2, 19943, Note_on_c, 0, 70, 0
2, 19944, Note_on_c, 0, 65, 75
2, 19967, Note_on_c, 0, 65, 0
2, 19968, Note_on_c, 0, 69, 75
2, 20057, Note_on_c, 0, 69, 0
2, 20112, Note_on_c, 0, 65, 75
2, 20132, Note_on_c, 0, 65, 0
2, 20160, Note_on_c, 0, 70, 91
2, 20397, Note_on_c, 0, 70, 0
2, 20400, Note_on_c, 0, 69, 75
2, 20420, Note_on_c, 0, 69, 0
2, 20448, Note_on_c, 0, 72, 75
2, 20468, Note_on_c, 0, 72, 0
2, 20496, Note_on_c, 0, 65, 75
2, 20516, Note_on_c, 0, 65, 0
2, 20544, Note_on_c, 0, 74, 91
2, 20544, Note_on_c, 0, 70, 91
2, 20781, Note_on_c, 0, 74, 0
2, 20781, Note_on_c, 0, 70, 0
2, 20784, Note_on_c, 0, 72, 75
2, 20784, Note_on_c, 0, 69, 75
2, 20804, Note_on_c, 0, 72, 0
2, 20804, Note_on_c, 0, 69, 0
2, 20832, Note_on_c, 0, 75, 75
2, 20832, Note_on_c, 0, 72, 75
2, 20852, Note_on_c, 0, 75, 0
2, 20852, Note_on_c, 0, 72, 0
2, 20880, Note_on_c, 0, 65, 75
2, 20900, Note_on_c, 0, 65, 0
2, 20928, Note_on_c, 0, 77, 75
2, 21061, Note_on_c, 0, 77, 0
2, 21072, Note_on_c, 0, 79, 78
2, 21117, Note_on_c, 0, 79, 0
2, 21120, Note_on_c, 0, 77, 79
2, 21165, Note_on_c, 0, 77, 0
2, 21168, Note_on_c, 0, 76, 80
2, 21213, Note_on_c, 0, 76, 0
2, 21216, Note_on_c, 0, 75, 80
2, 21261, Note_on_c, 0, 75, 0
2, 21264, Note_on_c, 0, 74, 80
2, 21357, Note_on_c, 0, 74, 0
2, 21360, Note_on_c, 0, 72, 80
2, 21405, Note_on_c, 0, 72, 0
2, 21408, Note_on_c, 0, 77, 80
2, 21431, Note_on_c, 0, 77, 0
2, 21432, Note_on_c, 0, 75, 79
2, 21455, Note_on_c, 0, 75, 0
2, 21456, Note_on_c, 0, 74, 78
2, 21479, Note_on_c, 0, 74, 0
2, 21480, Note_on_c, 0, 72, 78
2, 21503, Note_on_c, 0, 72, 0
2, 21504, Note_on_c, 0, 70, 77
2, 21600, Note_on_c, 0, 70, 0
2, 21600, Note_on_c, 0, 69, 75
2, 21623, Note_on_c, 0, 69, 0
2, 21624, Note_on_c, 0, 65, 75
2, 21647, Note_on_c, 0, 65, 0
2, 21648, Note_on_c, 0, 67, 75
2, 21660, Note_on_c, 0, 67, 0
2, 21660, Note_on_c, 0, 65, 75
2, 21672, Note_on_c, 0, 65, 0
2, 21672, Note_on_c, 0, 63, 75
2, 21684, Note_on_c, 0, 63, 0
2, 21684, Note_on_c, 0, 65, 75
2, 21696, Note_on_c, 0, 65, 0
2, 21792, Note_on_c, 0, 62, 80
2, 21815, Note_on_c, 0, 62, 0
2, 21816, Note_on_c, 0, 65, 80
2, 21839, Note_on_c, 0, 65, 0
2, 21840, Note_on_c, 0, 69, 80
2, 21863, Note_on_c, 0, 69, 0
2, 21864, Note_on_c, 0, 70, 80
2, 21887, Note_on_c, 0, 70, 0
2, 21888, Note_on_c, 0, 70, 80
2, 21911, Note_on_c, 0, 70, 0
2, 21912, Note_on_c, 0, 69, 80
2, 21935, Note_on_c, 0, 69, 0
2, 21936, Note_on_c, 0, 74, 80
2, 21959, Note_on_c, 0, 74, 0
2, 21960, Note_on_c, 0, 72, 80
2, 21983, Note_on_c, 0, 72, 0
2, 21984, Note_on_c, 0, 70, 80
2, 22007, Note_on_c, 0, 70, 0
2, 22008, Note_on_c, 0, 69, 80
2, 22031, Note_on_c, 0, 69, 0
2, 22032, Note_on_c, 0, 67, 80
2, 22055, Note_on_c, 0, 67, 0
2, 22056, Note_on_c, 0, 65, 80
2, 22079, Note_on_c, 0, 65, 0
2, 22152, Note_on_c, 0, 69, 80
2, 22175, Note_on_c, 0, 69, 0
2, 22176, Note_on_c, 0, 70, 80
2, 22199, Note_on_c, 0, 70, 0
2, 22200, Note_on_c, 0, 72, 80
2, 22223, Note_on_c, 0, 72, 0
2, 22224, Note_on_c, 0, 74, 80
2, 22247, Note_on_c, 0, 74, 0
2, 22248, Note_on_c, 0, 75, 80
2, 22271, Note_on_c, 0, 75, 0
2, 22272, Note_on_c, 0, 77, 80
2, 22295, Note_on_c, 0, 77, 0
2, 22296, Note_on_c, 0, 75, 80
2, 22319, Note_on_c, 0, 75, 0
2, 22320, Note_on_c, 0, 74, 80
2, 22343, Note_on_c, 0, 74, 0
2, 22344, Note_on_c, 0, 72, 80
2, 22367, Note_on_c, 0, 72, 0
2, 22368, Note_on_c, 0, 74, 80
2, 22391, Note_on_c, 0, 74, 0
2, 22392, Note_on_c, 0, 72, 80
2, 22415, Note_on_c, 0, 72, 0
2, 22416, Note_on_c, 0, 70, 80
2, 22439, Note_on_c, 0, 70, 0
2, 22440, Note_on_c, 0, 69, 80
2, 22463, Note_on_c, 0, 69, 0
2, 22464, Note_on_c, 0, 77, 75
2, 22597, Note_on_c, 0, 77, 0
2, 22608, Note_on_c, 0, 79, 75
2, 22653, Note_on_c, 0, 79, 0
2, 22656, Note_on_c, 0, 77, 77
2, 22701, Note_on_c, 0, 77, 0
2, 22704, Note_on_c, 0, 76, 80
2, 22749, Note_on_c, 0, 76, 0
2, 22752, Note_on_c, 0, 75, 80
2, 22797, Note_on_c, 0, 75, 0
2, 22800, Note_on_c, 0, 74, 77
2, 22845, Note_on_c, 0, 74, 0
2, 22944, Note_on_c, 0, 67, 75
2, 22967, Note_on_c, 0, 67, 0
2, 22968, Note_on_c, 0, 72, 76
2, 22991, Note_on_c, 0, 72, 0
2, 22992, Note_on_c, 0, 75, 77
2, 23015, Note_on_c, 0, 75, 0
2, 23016, Note_on_c, 0, 79, 78
2, 23039, Note_on_c, 0, 79, 0
2, 23040, Note_on_c, 0, 70, 80
2, 23136, Note_on_c, 0, 70, 0
2, 23136, Note_on_c, 0, 69, 76
2, 23181, Note_on_c, 0, 69, 0
2, 23184, Note_on_c, 0, 72, 75
2, 23204, Note_on_c, 0, 72, 0
2, 23232, Note_on_c, 0, 63, 75
2, 23365, Note_on_c, 0, 63, 0
2, 23376, Note_on_c, 0, 67, 75
2, 23388, Note_on_c, 0, 67, 0
2, 23388, Note_on_c, 0, 65, 75
2, 23422, Note_on_c, 0, 65, 0
2, 23424, Note_on_c, 0, 63, 75
2, 23520, Note_on_c, 0, 63, 0
2, 23520, Note_on_c, 0, 62, 75
2, 23540, Note_on_c, 0, 62, 0
2, 23568, Note_on_c, 0, 77, 75
2, 23588, Note_on_c, 0, 77, 0
2, 23616, Note_on_c, 0, 68, 75
2, 23749, Note_on_c, 0, 68, 0
2, 23760, Note_on_c, 0, 72, 75
2, 23772, Note_on_c, 0, 72, 0
2, 23772, Note_on_c, 0, 70, 75
2, 23806, Note_on_c, 0, 70, 0
2, 23808, Note_on_c, 0, 68, 75
2, 23904, Note_on_c, 0, 68, 0
2, 23904, Note_on_c, 0, 67, 75
2, 23924, Note_on_c, 0, 67, 0
2, 23952, Note_on_c, 0, 79, 75
2, 23972, Note_on_c, 0, 79, 0
2, 24000, Note_on_c, 0, 71, 75
2, 24144, Note_on_c, 0, 71, 0
2, 24144, Note_on_c, 0, 74, 78
2, 24189, Note_on_c, 0, 74, 0
2, 24192, Note_on_c, 0, 72, 79
2, 24237, Note_on_c, 0, 72, 0
2, 24240, Note_on_c, 0, 79, 96
2, 24336, Note_on_c, 0, 79, 0
2, 24336, Note_on_c, 0, 77, 80
2, 24429, Note_on_c, 0, 77, 0
2, 24432, Note_on_c, 0, 75, 80
2, 24521, Note_on_c, 0, 75, 0
2, 24528, Note_on_c, 0, 74, 78
2, 24621, Note_on_c, 0, 74, 0
2, 24624, Note_on_c, 0, 72, 76
2, 24669, Note_on_c, 0, 72, 0
2, 24816, Note_on_c, 0, 70, 75
2, 24861, Note_on_c, 0, 70, 0
2, 24864, Note_on_c, 0, 75, 75
2, 24887, Note_on_c, 0, 75, 0
2, 24888, Note_on_c, 0, 74, 75
2, 24911, Note_on_c, 0, 74, 0
2, 24912, Note_on_c, 0, 72, 75
2, 24935, Note_on_c, 0, 72, 0
2, 24936, Note_on_c, 0, 70, 75
2, 24959, Note_on_c, 0, 70, 0
2, 24960, Note_on_c, 0, 77, 75
2, 25049, Note_on_c, 0, 77, 0
2, 25176, Note_on_c, 0, 82, 75
2, 25199, Note_on_c, 0, 82, 0
2, 25200, Note_on_c, 0, 84, 76
2, 25223, Note_on_c, 0, 84, 0
2, 25224, Note_on_c, 0, 86, 78
2, 25247, Note_on_c, 0, 86, 0
2, 25248, Note_on_c, 0, 84, 80
2, 25271, Note_on_c, 0, 84, 0
2, 25272, Note_on_c, 0, 82, 78
2, 25295, Note_on_c, 0, 82, 0
2, 25296, Note_on_c, 0, 81, 77
2, 25319, Note_on_c, 0, 81, 0
2, 25320, Note_on_c, 0, 79, 76
2, 25343, Note_on_c, 0, 79, 0
2, 25344, Note_on_c, 0, 77, 75
2, 25433, Note_on_c, 0, 77, 0
2, 25560, Note_on_c, 0, 80, 80
2, 25583, Note_on_c, 0, 80, 0
2, 25584, Note_on_c, 0, 79, 79
2, 25607, Note_on_c, 0, 79, 0
2, 25608, Note_on_c, 0, 77, 79
2, 25631, Note_on_c, 0, 77, 0
2, 25632, Note_on_c, 0, 75, 79
2, 25655, Note_on_c, 0, 75, 0
2, 25656, Note_on_c, 0, 74, 79
2, 25679, Note_on_c, 0, 74, 0
2, 25680, Note_on_c, 0, 72, 78
2, 25703, Note_on_c, 0, 72, 0
2, 25704, Note_on_c, 0, 70, 78
2, 25727, Note_on_c, 0, 70, 0
2, 25728, Note_on_c, 0, 72, 78
2, 25773, Note_on_c, 0, 72, 0
2, 25776, Note_on_c, 0, 74, 78
2, 25821, Note_on_c, 0, 74, 0
2, 25824, Note_on_c, 0, 77, 77
2, 25847, Note_on_c, 0, 77, 0
2, 25848, Note_on_c, 0, 75, 77
2, 25871, Note_on_c, 0, 75, 0
2, 25872, Note_on_c, 0, 74, 77
2, 25895, Note_on_c, 0, 74, 0
2, 25896, Note_on_c, 0, 72, 76
2, 25919, Note_on_c, 0, 72, 0
2, 25920, Note_on_c, 0, 70, 76
2, 25965, Note_on_c, 0, 70, 0
2, 25968, Note_on_c, 0, 72, 76
2, 25980, Note_on_c, 0, 72, 0
2, 25980, Note_on_c, 0, 70, 76
2, 25992, Note_on_c, 0, 70, 0
2, 25992, Note_on_c, 0, 69, 76
2, 26004, Note_on_c, 0, 69, 0
2, 26004, Note_on_c, 0, 70, 76
2, 26057, Note_on_c, 0, 70, 0
2, 26064, Note_on_c, 0, 72, 75
2, 26087, Note_on_c, 0, 72, 0
2, 26088, Note_on_c, 0, 69, 75
2, 26111, Note_on_c, 0, 69, 0
2, 26112, Note_on_c, 0, 70, 75
2, 26132, Note_on_c, 0, 70, 0
2, 26160, Note_on_c, 0, 77, 75
2, 26180, Note_on_c, 0, 77, 0
2, 26208, Note_on_c, 0, 82, 76
2, 26327, Note_on_c, 0, 82, 0
2, 26328, Note_on_c, 0, 79, 77
2, 26351, Note_on_c, 0, 79, 0
2, 26352, Note_on_c, 0, 81, 77
2, 26364, Note_on_c, 0, 81, 0
2, 26364, Note_on_c, 0, 79, 77
2, 26376, Note_on_c, 0, 79, 0
2, 26376, Note_on_c, 0, 77, 77
2, 26388, Note_on_c, 0, 77, 0
2, 26388, Note_on_c, 0, 79, 77
2, 26400, Note_on_c, 0, 79, 0
2, 26400, Note_on_c, 0, 84, 78
2, 26519, Note_on_c, 0, 84, 0
2, 26520, Note_on_c, 0, 81, 79
2, 26543, Note_on_c, 0, 81, 0
2, 26544, Note_on_c, 0, 82, 79
2, 26556, Note_on_c, 0, 82, 0
2, 26556, Note_on_c, 0, 81, 79
2, 26568, Note_on_c, 0, 81, 0
2, 26568, Note_on_c, 0, 79, 79
2, 26580, Note_on_c, 0, 79, 0
2, 26580, Note_on_c, 0, 81, 79
2, 26592, Note_on_c, 0, 81, 0
2, 26592, Note_on_c, 0, 89, 96
2, 26711, Note_on_c, 0, 89, 0
2, 26712, Note_on_c, 0, 87, 79
2, 26735, Note_on_c, 0, 87, 0
2, 26736, Note_on_c, 0, 86, 79
2, 26759, Note_on_c, 0, 86, 0
2, 26760, Note_on_c, 0, 84, 79
2, 26783, Note_on_c, 0, 84, 0
2, 26784, Note_on_c, 0, 82, 78
2, 26807, Note_on_c, 0, 82, 0
2, 26808, Note_on_c, 0, 81, 78
2, 26831, Note_on_c, 0, 81, 0
2, 26832, Note_on_c, 0, 79, 78
2, 26855, Note_on_c, 0, 79, 0
2, 26856, Note_on_c, 0, 77, 77
2, 26879, Note_on_c, 0, 77, 0
2, 26880, Note_on_c, 0, 75, 77
2, 26903, Note_on_c, 0, 75, 0
2, 26904, Note_on_c, 0, 77, 77
2, 26927, Note_on_c, 0, 77, 0
2, 26928, Note_on_c, 0, 74, 76
2, 26951, Note_on_c, 0, 74, 0
2, 26952, Note_on_c, 0, 75, 76
2, 26975, Note_on_c, 0, 75, 0
2, 26976, Note_on_c, 0, 72, 76
2, 26999, Note_on_c, 0, 72, 0
2, 27000, Note_on_c, 0, 74, 75
2, 27023, Note_on_c, 0, 74, 0
2, 27024, Note_on_c, 0, 70, 75
2, 27047, Note_on_c, 0, 70, 0
2, 27048, Note_on_c, 0, 74, 75
2, 27071, Note_on_c, 0, 74, 0
2, 27072, Note_on_c, 0, 72, 75
2, 27117, Note_on_c, 0, 72, 0
2, 27120, Note_on_c, 0, 75, 91
2, 27168, Note_on_c, 0, 75, 0
2, 27216, Note_on_c, 0, 69, 75
2, 27216, Note_on_c, 0, 63, 75
2, 27236, Note_on_c, 0, 69, 0
2, 27236, Note_on_c, 0, 63, 0
2, 27264, Note_on_c, 0, 70, 75
2, 27264, Note_on_c, 0, 62, 75
2, 27353, Note_on_c, 0, 70, 0
2, 27353, Note_on_c, 0, 62, 0
2, 27384, Note_on_c, 0, 69, 75
2, 27407, Note_on_c, 0, 69, 0
2, 27408, Note_on_c, 0, 70, 75
2, 27431, Note_on_c, 0, 70, 0
2, 27432, Note_on_c, 0, 72, 75
2, 27455, Note_on_c, 0, 72, 0
2, 27456, Note_on_c, 0, 63, 75
2, 27501, Note_on_c, 0, 63, 0
2, 27576, Note_on_c, 0, 67, 75
2, 27599, Note_on_c, 0, 67, 0
2, 27600, Note_on_c, 0, 65, 75
2, 27623, Note_on_c, 0, 65, 0
2, 27624, Note_on_c, 0, 63, 75
2, 27647, Note_on_c, 0, 63, 0
2, 27648, Note_on_c, 0, 62, 75
2, 27693, Note_on_c, 0, 62, 0
2, 27768, Note_on_c, 0, 74, 75
2, 27791, Note_on_c, 0, 74, 0
2, 27792, Note_on_c, 0, 75, 75
2, 27815, Note_on_c, 0, 75, 0
2, 27816, Note_on_c, 0, 77, 75
2, 27839, Note_on_c, 0, 77, 0
2, 27840, Note_on_c, 0, 68, 75
2, 27885, Note_on_c, 0, 68, 0
2, 27960, Note_on_c, 0, 72, 75
2, 27983, Note_on_c, 0, 72, 0
2, 27984, Note_on_c, 0, 70, 75
2, 28007, Note_on_c, 0, 70, 0
2, 28008, Note_on_c, 0, 68, 75
2, 28031, Note_on_c, 0, 68, 0
2, 28032, Note_on_c, 0, 67, 75
2, 28077, Note_on_c, 0, 67, 0
2, 28152, Note_on_c, 0, 79, 75
2, 28175, Note_on_c, 0, 79, 0
2, 28176, Note_on_c, 0, 75, 75
2, 28199, Note_on_c, 0, 75, 0
2, 28200, Note_on_c, 0, 72, 75
2, 28223, Note_on_c, 0, 72, 0
2, 28224, Note_on_c, 0, 71, 75
2, 28269, Note_on_c, 0, 71, 0
2, 28344, Note_on_c, 0, 80, 75
2, 28367, Note_on_c, 0, 80, 0
2, 28368, Note_on_c, 0, 71, 75
2, 28391, Note_on_c, 0, 71, 0
2, 28392, Note_on_c, 0, 74, 75
2, 28415, Note_on_c, 0, 74, 0
2, 28416, Note_on_c, 0, 72, 75
2, 28439, Note_on_c, 0, 72, 0
2, 28440, Note_on_c, 0, 75, 75
2, 28463, Note_on_c, 0, 75, 0
2, 28464, Note_on_c, 0, 74, 75
2, 28487, Note_on_c, 0, 74, 0
2, 28488, Note_on_c, 0, 77, 75
2, 28511, Note_on_c, 0, 77, 0
2, 28512, Note_on_c, 0, 75, 76
2, 28535, Note_on_c, 0, 75, 0
2, 28536, Note_on_c, 0, 79, 76
2, 28559, Note_on_c, 0, 79, 0
2, 28560, Note_on_c, 0, 74, 76
2, 28583, Note_on_c, 0, 74, 0
2, 28584, Note_on_c, 0, 77, 77
2, 28607, Note_on_c, 0, 77, 0
2, 28608, Note_on_c, 0, 72, 77
2, 28631, Note_on_c, 0, 72, 0
2, 28632, Note_on_c, 0, 75, 77
2, 28655, Note_on_c, 0, 75, 0
2, 28656, Note_on_c, 0, 71, 78
2, 28679, Note_on_c, 0, 71, 0
2, 28680, Note_on_c, 0, 74, 78
2, 28703, Note_on_c, 0, 74, 0
2, 28704, Note_on_c, 0, 72, 78
2, 28727, Note_on_c, 0, 72, 0
2, 28728, Note_on_c, 0, 74, 79
2, 28751, Note_on_c, 0, 74, 0
2, 28752, Note_on_c, 0, 72, 79
2, 28775, Note_on_c, 0, 72, 0
2, 28776, Note_on_c, 0, 70, 79
2, 28799, Note_on_c, 0, 70, 0
2, 28800, Note_on_c, 0, 69, 80
2, 28845, Note_on_c, 0, 69, 0
2, 28848, Note_on_c, 0, 72, 78
2, 28871, Note_on_c, 0, 72, 0
2, 28872, Note_on_c, 0, 70, 78
2, 28895, Note_on_c, 0, 70, 0
2, 28896, Note_on_c, 0, 69, 77
2, 28919, Note_on_c, 0, 69, 0
2, 28920, Note_on_c, 0, 67, 76
2, 28943, Note_on_c, 0, 67, 0
2, 28944, Note_on_c, 0, 65, 76
2, 28967, Note_on_c, 0, 65, 0
2, 28968, Note_on_c, 0, 63, 75
2, 28991, Note_on_c, 0, 63, 0
2, 28992, Note_on_c, 0, 62, 75
2, 29012, Note_on_c, 0, 62, 0
2, 29040, Note_on_c, 0, 70, 80
2, 29060, Note_on_c, 0, 70, 0
2, 29088, Note_on_c, 0, 75, 80
2, 29111, Note_on_c, 0, 75, 0
2, 29112, Note_on_c, 0, 74, 80
2, 29135, Note_on_c, 0, 74, 0
2, 29136, Note_on_c, 0, 72, 80
2, 29159, Note_on_c, 0, 72, 0
2, 29160, Note_on_c, 0, 70, 80
2, 29183, Note_on_c, 0, 70, 0
2, 29184, Note_on_c, 0, 77, 80
2, 29273, Note_on_c, 0, 77, 0
2, 29400, Note_on_c, 0, 82, 80
2, 29423, Note_on_c, 0, 82, 0
2, 29424, Note_on_c, 0, 84, 82
2, 29447, Note_on_c, 0, 84, 0
2, 29448, Note_on_c, 0, 86, 84
2, 29471, Note_on_c, 0, 86, 0
2, 29472, Note_on_c, 0, 84, 86
2, 29495, Note_on_c, 0, 84, 0
2, 29496, Note_on_c, 0, 82, 84
2, 29519, Note_on_c, 0, 82, 0
2, 29520, Note_on_c, 0, 81, 83
2, 29543, Note_on_c, 0, 81, 0
2, 29544, Note_on_c, 0, 79, 81
2, 29567, Note_on_c, 0, 79, 0
2, 29568, Note_on_c, 0, 77, 80
2, 29745, Note_on_c, 0, 77, 0
2, 29784, Note_on_c, 0, 80, 80
2, 29807, Note_on_c, 0, 80, 0
2, 29808, Note_on_c, 0, 79, 80
2, 29831, Note_on_c, 0, 79, 0
2, 29832, Note_on_c, 0, 77, 80
2, 29855, Note_on_c, 0, 77, 0
2, 29856, Note_on_c, 0, 75, 80
2, 29879, Note_on_c, 0, 75, 0
2, 29880, Note_on_c, 0, 74, 80
2, 29903, Note_on_c, 0, 74, 0
2, 29904, Note_on_c, 0, 72, 80
2, 29927, Note_on_c, 0, 72, 0
2, 29928, Note_on_c, 0, 70, 80
2, 29951, Note_on_c, 0, 70, 0
2, 29952, Note_on_c, 0, 72, 80
2, 29997, Note_on_c, 0, 72, 0
2, 30000, Note_on_c, 0, 74, 80
2, 30045, Note_on_c, 0, 74, 0
2, 30048, Note_on_c, 0, 77, 80
2, 30071, Note_on_c, 0, 77, 0
2, 30072, Note_on_c, 0, 75, 80
2, 30095, Note_on_c, 0, 75, 0
2, 30096, Note_on_c, 0, 74, 80
2, 30119, Note_on_c, 0, 74, 0
2, 30120, Note_on_c, 0, 72, 80
2, 30143, Note_on_c, 0, 72, 0
2, 30144, Note_on_c, 0, 70, 80
2, 30189, Note_on_c, 0, 70, 0
2, 30192, Note_on_c, 0, 72, 78
2, 30204, Note_on_c, 0, 72, 0
2, 30204, Note_on_c, 0, 70, 78
2, 30216, Note_on_c, 0, 70, 0
2, 30216, Note_on_c, 0, 69, 78
2, 30228, Note_on_c, 0, 69, 0
2, 30228, Note_on_c, 0, 70, 78
2, 30281, Note_on_c, 0, 70, 0
2, 30288, Note_on_c, 0, 72, 76
2, 30311, Note_on_c, 0, 72, 0
2, 30312, Note_on_c, 0, 69, 75
2, 30335, Note_on_c, 0, 69, 0
2, 30336, Note_on_c, 0, 70, 75
2, 30359, Note_on_c, 0, 70, 0
2, 30360, Note_on_c, 0, 77, 75
2, 30383, Note_on_c, 0, 77, 0
2, 30384, Note_on_c, 0, 79, 76
2, 30407, Note_on_c, 0, 79, 0
2, 30408, Note_on_c, 0, 81, 76
2, 30431, Note_on_c, 0, 81, 0
2, 30432, Note_on_c, 0, 82, 77
2, 30551, Note_on_c, 0, 82, 0
2, 30552, Note_on_c, 0, 79, 75
2, 30575, Note_on_c, 0, 79, 0
2, 30576, Note_on_c, 0, 81, 75
2, 30599, Note_on_c, 0, 81, 0
2, 30600, Note_on_c, 0, 82, 76
2, 30623, Note_on_c, 0, 82, 0
2, 30624, Note_on_c, 0, 84, 77
2, 30743, Note_on_c, 0, 84, 0
2, 30744, Note_on_c, 0, 84, 75
2, 30767, Note_on_c, 0, 84, 0
2, 30768, Note_on_c, 0, 86, 75
2, 30791, Note_on_c, 0, 86, 0
2, 30792, Note_on_c, 0, 87, 76
2, 30815, Note_on_c, 0, 87, 0
2, 30816, Note_on_c, 0, 89, 77
2, 30935, Note_on_c, 0, 89, 0
2, 30936, Note_on_c, 0, 87, 79
2, 30959, Note_on_c, 0, 87, 0
2, 30960, Note_on_c, 0, 86, 79
2, 30983, Note_on_c, 0, 86, 0
2, 30984, Note_on_c, 0, 84, 79
2, 31007, Note_on_c, 0, 84, 0
2, 31008, Note_on_c, 0, 82, 79
2, 31031, Note_on_c, 0, 82, 0
2, 31032, Note_on_c, 0, 81, 78
2, 31055, Note_on_c, 0, 81, 0
2, 31056, Note_on_c, 0, 79, 78
2, 31079, Note_on_c, 0, 79, 0
2, 31080, Note_on_c, 0, 77, 78
2, 31103, Note_on_c, 0, 77, 0
2, 31104, Note_on_c, 0, 75, 78
2, 31127, Note_on_c, 0, 75, 0
2, 31128, Note_on_c, 0, 77, 78
2, 31151, Note_on_c, 0, 77, 0
2, 31152, Note_on_c, 0, 74, 77
2, 31175, Note_on_c, 0, 74, 0
2, 31176, Note_on_c, 0, 75, 77
2, 31199, Note_on_c, 0, 75, 0
2, 31200, Note_on_c, 0, 72, 77
2, 31223, Note_on_c, 0, 72, 0
2, 31224, Note_on_c, 0, 74, 77
2, 31247, Note_on_c, 0, 74, 0
2, 31248, Note_on_c, 0, 70, 77
2, 31271, Note_on_c, 0, 70, 0
2, 31272, Note_on_c, 0, 74, 76
2, 31295, Note_on_c, 0, 74, 0
2, 31296, Note_on_c, 0, 72, 76
2, 31341, Note_on_c, 0, 72, 0
2, 31344, Note_on_c, 0, 75, 92
2, 31392, Note_on_c, 0, 75, 0
2, 31440, Note_on_c, 0, 69, 75
2, 31440, Note_on_c, 0, 63, 75
2, 31460, Note_on_c, 0, 69, 0
2, 31460, Note_on_c, 0, 63, 0
2, 31488, Note_on_c, 0, 70, 91
2, 31488, Note_on_c, 0, 62, 91
2, 31584, Note_on_c, 0, 70, 0
2, 31584, Note_on_c, 0, 62, 0
2, 31680, End_track
3, 0, Start_track
3, 0, Program_c, 0, 0
3, 0, Control_c, 0, 7, 127
3, 0, Control_c, 0, 10, 64
3, 960, Note_on_c, 0, 74, 64
3, 1197, Note_on_c, 0, 74, 0
3, 1200, Note_on_c, 0, 67, 64
3, 1245, Note_on_c, 0, 67, 0
3, 1248, Note_on_c, 0, 72, 64
3, 1293, Note_on_c, 0, 72, 0
3, 1296, Note_on_c, 0, 65, 64
3, 1341, Note_on_c, 0, 65, 0
3, 1344, Note_on_c, 0, 67, 64
3, 1477, Note_on_c, 0, 67, 0
3, 1488, Note_on_c, 0, 63, 64
3, 1533, Note_on_c, 0, 63, 0
3, 2496, Note_on_c, 0, 74, 64
3, 2733, Note_on_c, 0, 74, 0
3, 2736, Note_on_c, 0, 67, 64
3, 2781, Note_on_c, 0, 67, 0
3, 2784, Note_on_c, 0, 72, 64
3, 2829, Note_on_c, 0, 72, 0
3, 2832, Note_on_c, 0, 65, 64
3, 2877, Note_on_c, 0, 65, 0
3, 2880, Note_on_c, 0, 67, 64
3, 3013, Note_on_c, 0, 67, 0
3, 3024, Note_on_c, 0, 63, 64
3, 3069, Note_on_c, 0, 63, 0
3, 4272, Note_on_c, 0, 67, 64
3, 4317, Note_on_c, 0, 67, 0
3, 4320, Note_on_c, 0, 69, 64
3, 4365, Note_on_c, 0, 69, 0
3, 4368, Note_on_c, 0, 71, 64
3, 4413, Note_on_c, 0, 71, 0
3, 4416, Note_on_c, 0, 72, 64
3, 4549, Note_on_c, 0, 72, 0
3, 4560, Note_on_c, 0, 70, 64
3, 4653, Note_on_c, 0, 70, 0
3, 4656, Note_on_c, 0, 69, 64
3, 4701, Note_on_c, 0, 69, 0
3, 8496, Note_on_c, 0, 67, 64
3, 8541, Note_on_c, 0, 67, 0
3, 8544, Note_on_c, 0, 69, 64
3, 8589, Note_on_c, 0, 69, 0
3, 8592, Note_on_c, 0, 71, 64
3, 8637, Note_on_c, 0, 71, 0
3, 8640, Note_on_c, 0, 72, 64
3, 8773, Note_on_c, 0, 72, 0
3, 8784, Note_on_c, 0, 70, 64
3, 8877, Note_on_c, 0, 70, 0
3, 8880, Note_on_c, 0, 69, 64
3, 8925, Note_on_c, 0, 69, 0
3, 17472, Note_on_c, 0, 75, 64
3, 17561, Note_on_c, 0, 75, 0
3, 17568, Note_on_c, 0, 73, 64
3, 17657, Note_on_c, 0, 73, 0
3, 17664, Note_on_c, 0, 73, 64
3, 17753, Note_on_c, 0, 73, 0
3, 17760, Note_on_c, 0, 72, 64
3, 17849, Note_on_c, 0, 72, 0
3, 17856, Note_on_c, 0, 72, 64
3, 17945, Note_on_c, 0, 72, 0
3, 17952, Note_on_c, 0, 70, 64
3, 18041, Note_on_c, 0, 70, 0
3, 18048, Note_on_c, 0, 70, 64
3, 18137, Note_on_c, 0, 70, 0
3, 18144, Note_on_c, 0, 69, 64
3, 18167, Note_on_c, 0, 69, 0
3, 18168, Note_on_c, 0, 70, 64
3, 18191, Note_on_c, 0, 70, 0
3, 18192, Note_on_c, 0, 72, 64
3, 18215, Note_on_c, 0, 72, 0
3, 18216, Note_on_c, 0, 69, 64
3, 18239, Note_on_c, 0, 69, 0
3, 20928, Note_on_c, 0, 74, 64
3, 21165, Note_on_c, 0, 74, 0
3, 21168, Note_on_c, 0, 67, 64
3, 21213, Note_on_c, 0, 67, 0
3, 21216, Note_on_c, 0, 72, 64
3, 21261, Note_on_c, 0, 72, 0
3, 21264, Note_on_c, 0, 65, 64
3, 21309, Note_on_c, 0, 65, 0
3, 21312, Note_on_c, 0, 67, 64
3, 21445, Note_on_c, 0, 67, 0
3, 21456, Note_on_c, 0, 63, 64
3, 21501, Note_on_c, 0, 63, 0
3, 22464, Note_on_c, 0, 74, 64
3, 22641, Note_on_c, 0, 74, 0
3, 22656, Note_on_c, 0, 74, 64
3, 22679, Note_on_c, 0, 74, 0
3, 22680, Note_on_c, 0, 67, 64
3, 22703, Note_on_c, 0, 67, 0
3, 22704, Note_on_c, 0, 72, 64
3, 22727, Note_on_c, 0, 72, 0
3, 22728, Note_on_c, 0, 67, 64
3, 22751, Note_on_c, 0, 67, 0
3, 22752, Note_on_c, 0, 72, 64
3, 22775, Note_on_c, 0, 72, 0
3, 22776, Note_on_c, 0, 65, 64
3, 22799, Note_on_c, 0, 65, 0
3, 22800, Note_on_c, 0, 70, 64
3, 22823, Note_on_c, 0, 70, 0
3, 22824, Note_on_c, 0, 65, 64
3, 22847, Note_on_c, 0, 65, 0
3, 24240, Note_on_c, 0, 67, 64
3, 24285, Note_on_c, 0, 67, 0
3, 24288, Note_on_c, 0, 69, 64
3, 24333, Note_on_c, 0, 69, 0
3, 24336, Note_on_c, 0, 71, 64
3, 24381, Note_on_c, 0, 71, 0
3, 24384, Note_on_c, 0, 72, 64
3, 24517, Note_on_c, 0, 72, 0
3, 24528, Note_on_c, 0, 70, 64
3, 24621, Note_on_c, 0, 70, 0
3, 24624, Note_on_c, 0, 69, 64
3, 24669, Note_on_c, 0, 69, 0
3, 31680, End_track
4, 0, Start_track
4, 0, Program_c, 1, 0
4, 0, Control_c, 1, 7, 127
4, 0, Control_c, 1, 10, 64
4, 240, Note_on_c, 1, 58, 64
4, 285, Note_on_c, 1, 58, 0
4, 288, Note_on_c, 1, 63, 64
4, 311, Note_on_c, 1, 63, 0
4, 312, Note_on_c, 1, 62, 64
4, 335, Note_on_c, 1, 62, 0
4, 336, Note_on_c, 1, 60, 64
4, 359, Note_on_c, 1, 60, 0
4, 360, Note_on_c, 1, 58, 64
4, 383, Note_on_c, 1, 58, 0
4, 384, Note_on_c, 1, 65, 64
4, 473, Note_on_c, 1, 65, 0
4, 600, Note_on_c, 1, 58, 75
4, 623, Note_on_c, 1, 58, 0
4, 624, Note_on_c, 1, 60, 76
4, 647, Note_on_c, 1, 60, 0
4, 648, Note_on_c, 1, 62, 78
4, 671, Note_on_c, 1, 62, 0
4, 672, Note_on_c, 1, 60, 80
4, 695, Note_on_c, 1, 60, 0
4, 696, Note_on_c, 1, 58, 78
4, 719, Note_on_c, 1, 58, 0
4, 720, Note_on_c, 1, 57, 77
4, 743, Note_on_c, 1, 57, 0
4, 744, Note_on_c, 1, 55, 76
4, 767, Note_on_c, 1, 55, 0
4, 768, Note_on_c, 1, 53, 75
4, 857, Note_on_c, 1, 53, 0
4, 984, Note_on_c, 1, 68, 75
4, 1007, Note_on_c, 1, 68, 0
4, 1008, Note_on_c, 1, 67, 75
4, 1031, Note_on_c, 1, 67, 0
4, 1032, Note_on_c, 1, 65, 75
4, 1055, Note_on_c, 1, 65, 0
4, 1056, Note_on_c, 1, 63, 75
4, 1079, Note_on_c, 1, 63, 0
4, 1080, Note_on_c, 1, 62, 75
4, 1103, Note_on_c, 1, 62, 0
4, 1104, Note_on_c, 1, 60, 75
4, 1127, Note_on_c, 1, 60, 0
4, 1128, Note_on_c, 1, 59, 75
4, 1151, Note_on_c, 1, 59, 0
4, 1152, Note_on_c, 1, 60, 75
4, 1241, Note_on_c, 1, 60, 0
4, 1248, Note_on_c, 1, 57, 75
4, 1293, Note_on_c, 1, 57, 0
4, 1296, Note_on_c, 1, 58, 75
4, 1341, Note_on_c, 1, 58, 0
4, 1344, Note_on_c, 1, 51, 75
4, 1521, Note_on_c, 1, 51, 0
4, 1536, Note_on_c, 1, 62, 75
4, 1536, Note_on_c, 1, 53, 75
4, 1632, Note_on_c, 1, 62, 0
4, 1632, Note_on_c, 1, 60, 75
4, 1677, Note_on_c, 1, 60, 0
4, 1677, Note_on_c, 1, 53, 0
4, 1776, Note_on_c, 1, 58, 64
4, 1821, Note_on_c, 1, 58, 0
4, 1824, Note_on_c, 1, 63, 64
4, 1847, Note_on_c, 1, 63, 0
4, 1848, Note_on_c, 1, 62, 64
4, 1871, Note_on_c, 1, 62, 0
4, 1872, Note_on_c, 1, 60, 64
4, 1895, Note_on_c, 1, 60, 0
4, 1896, Note_on_c, 1, 58, 64
4, 1919, Note_on_c, 1, 58, 0
4, 1920, Note_on_c, 1, 65, 64
4, 2009, Note_on_c, 1, 65, 0
4, 2136, Note_on_c, 1, 58, 75
4, 2159, Note_on_c, 1, 58, 0
4, 2160, Note_on_c, 1, 60, 76
4, 2183, Note_on_c, 1, 60, 0
4, 2184, Note_on_c, 1, 62, 78
4, 2207, Note_on_c, 1, 62, 0
4, 2208, Note_on_c, 1, 60, 80
4, 2231, Note_on_c, 1, 60, 0
4, 2232, Note_on_c, 1, 58, 78
4, 2255, Note_on_c, 1, 58, 0
4, 2256, Note_on_c, 1, 57, 77
4, 2279, Note_on_c, 1, 57, 0
4, 2280, Note_on_c, 1, 55, 76
4, 2303, Note_on_c, 1, 55, 0
4, 2304, Note_on_c, 1, 53, 75
4, 2393, Note_on_c, 1, 53, 0
4, 2520, Note_on_c, 1, 68, 75
4, 2543, Note_on_c, 1, 68, 0
4, 2544, Note_on_c, 1, 67, 75
4, 2567, Note_on_c, 1, 67, 0
4, 2568, Note_on_c, 1, 65, 75
4, 2591, Note_on_c, 1, 65, 0
4, 2592, Note_on_c, 1, 63, 75
4, 2615, Note_on_c, 1, 63, 0
4, 2616, Note_on_c, 1, 62, 75
4, 2639, Note_on_c, 1, 62, 0
4, 2640, Note_on_c, 1, 60, 75
4, 2663, Note_on_c, 1, 60, 0
4, 2664, Note_on_c, 1, 59, 75
4, 2687, Note_on_c, 1, 59, 0
4, 2688, Note_on_c, 1, 60, 75
4, 2777, Note_on_c, 1, 60, 0
4, 2784, Note_on_c, 1, 57, 75
4, 2829, Note_on_c, 1, 57, 0
4, 2832, Note_on_c, 1, 58, 75
4, 2877, Note_on_c, 1, 58, 0
4, 2880, Note_on_c, 1, 51, 75
4, 3057, Note_on_c, 1, 51, 0
4, 3072, Note_on_c, 1, 62, 75
4, 3072, Note_on_c, 1, 53, 75
4, 3168, Note_on_c, 1, 62, 0
4, 3168, Note_on_c, 1, 60, 75
4, 3213, Note_on_c, 1, 60, 0
4, 3213, Note_on_c, 1, 53, 0
4, 3312, Note_on_c, 1, 53, 75
4, 3332, Note_on_c, 1, 53, 0
4, 3360, Note_on_c, 1, 45, 75
4, 3501, Note_on_c, 1, 45, 0
4, 3504, Note_on_c, 1, 50, 75
4, 3516, Note_on_c, 1, 50, 0
4, 3516, Note_on_c, 1, 48, 75
4, 3550, Note_on_c, 1, 48, 0
4, 3552, Note_on_c, 1, 46, 75
4, 3597, Note_on_c, 1, 46, 0
4, 3696, Note_on_c, 1, 58, 75
4, 3716, Note_on_c, 1, 58, 0
4, 3744, Note_on_c, 1, 50, 75
4, 3885, Note_on_c, 1, 50, 0
4, 3888, Note_on_c, 1, 55, 75
4, 3900, Note_on_c, 1, 55, 0
4, 3900, Note_on_c, 1, 53, 75
4, 3934, Note_on_c, 1, 53, 0
4, 4080, Note_on_c, 1, 68, 75
4, 4125, Note_on_c, 1, 68, 0
4, 4128, Note_on_c, 1, 62, 75
4, 4173, Note_on_c, 1, 62, 0
4, 4176, Note_on_c, 1, 65, 75
4, 4221, Note_on_c, 1, 65, 0
4, 4224, Note_on_c, 1, 63, 75
4, 4313, Note_on_c, 1, 63, 0
4, 4320, Note_on_c, 1, 62, 75
4, 4409, Note_on_c, 1, 62, 0
4, 4416, Note_on_c, 1, 60, 75
4, 4461, Note_on_c, 1, 60, 0
4, 4464, Note_on_c, 1, 57, 75
4, 4509, Note_on_c, 1, 57, 0
4, 4512, Note_on_c, 1, 58, 75
4, 4557, Note_on_c, 1, 58, 0
4, 4560, Note_on_c, 1, 52, 91
4, 4608, Note_on_c, 1, 52, 0
4, 4608, Note_on_c, 1, 53, 75
4, 4697, Note_on_c, 1, 53, 0
4, 4704, Note_on_c, 1, 41, 75
4, 4724, Note_on_c, 1, 41, 0
4, 4752, Note_on_c, 1, 53, 75
4, 4772, Note_on_c, 1, 53, 0
4, 4800, Note_on_c, 1, 58, 91
4, 5037, Note_on_c, 1, 58, 0
4, 5040, Note_on_c, 1, 57, 75
4, 5060, Note_on_c, 1, 57, 0
4, 5088, Note_on_c, 1, 60, 75
4, 5108, Note_on_c, 1, 60, 0
4, 5136, Note_on_c, 1, 53, 75
4, 5156, Note_on_c, 1, 53, 0
4, 5184, Note_on_c, 1, 62, 91
4, 5184, Note_on_c, 1, 58, 91
4, 5421, Note_on_c, 1, 62, 0
4, 5421, Note_on_c, 1, 58, 0
4, 5424, Note_on_c, 1, 60, 75
4, 5424, Note_on_c, 1, 57, 75
4, 5444, Note_on_c, 1, 60, 0
4, 5444, Note_on_c, 1, 57, 0
4, 5472, Note_on_c, 1, 63, 75
4, 5472, Note_on_c, 1, 60, 75
4, 5492, Note_on_c, 1, 63, 0
4, 5492, Note_on_c, 1, 60, 0
4, 5520, Note_on_c, 1, 53, 75
4, 5540, Note_on_c, 1, 53, 0
4, 5568, Note_on_c, 1, 65, 91
4, 5568, Note_on_c, 1, 62, 91
4, 5664, Note_on_c, 1, 65, 0
4, 5664, Note_on_c, 1, 62, 0
4, 5664, Note_on_c, 1, 67, 77
4, 5664, Note_on_c, 1, 63, 77
4, 5709, Note_on_c, 1, 67, 0
4, 5709, Note_on_c, 1, 63, 0
4, 5712, Note_on_c, 1, 68, 78
4, 5712, Note_on_c, 1, 65, 78
4, 5757, Note_on_c, 1, 68, 0
4, 5757, Note_on_c, 1, 65, 0
4, 5760, Note_on_c, 1, 67, 80
4, 5760, Note_on_c, 1, 63, 80
4, 5805, Note_on_c, 1, 67, 0
4, 5805, Note_on_c, 1, 63, 0
4, 5808, Note_on_c, 1, 65, 78
4, 5808, Note_on_c, 1, 62, 78
4, 5853, Note_on_c, 1, 65, 0
4, 5853, Note_on_c, 1, 62, 0
4, 5856, Note_on_c, 1, 63, 77
4, 5856, Note_on_c, 1, 60, 77
4, 5901, Note_on_c, 1, 63, 0
4, 5901, Note_on_c, 1, 60, 0
4, 5904, Note_on_c, 1, 67, 76
4, 5904, Note_on_c, 1, 63, 76
4, 5949, Note_on_c, 1, 67, 0
4, 5949, Note_on_c, 1, 63, 0
4, 5952, Note_on_c, 1, 62, 75
4, 6041, Note_on_c, 1, 62, 0
4, 6048, Note_on_c, 1, 63, 75
4, 6137, Note_on_c, 1, 63, 0
4, 6144, Note_on_c, 1, 62, 75
4, 6144, Note_on_c, 1, 58, 75
4, 6233, Note_on_c, 1, 62, 0
4, 6233, Note_on_c, 1, 58, 0
4, 6288, Note_on_c, 1, 62, 75
4, 6288, Note_on_c, 1, 58, 75
4, 6333, Note_on_c, 1, 62, 0
4, 6333, Note_on_c, 1, 58, 0
4, 6336, Note_on_c, 1, 67, 75
4, 6336, Note_on_c, 1, 63, 75
4, 6469, Note_on_c, 1, 67, 0
4, 6469, Note_on_c, 1, 63, 0
4, 6480, Note_on_c, 1, 63, 75
4, 6480, Note_on_c, 1, 60, 75
4, 6525, Note_on_c, 1, 63, 0
4, 6525, Note_on_c, 1, 60, 0
4, 6528, Note_on_c, 1, 69, 75
4, 6528, Note_on_c, 1, 65, 75
4, 6661, Note_on_c, 1, 69, 0
4, 6661, Note_on_c, 1, 65, 0
4, 6672, Note_on_c, 1, 65, 75
4, 6672, Note_on_c, 1, 62, 75
4, 6717, Note_on_c, 1, 65, 0
4, 6717, Note_on_c, 1, 62, 0
4, 6720, Note_on_c, 1, 74, 75
4, 6720, Note_on_c, 1, 70, 75
4, 6853, Note_on_c, 1, 74, 0
4, 6853, Note_on_c, 1, 70, 0
4, 6864, Note_on_c, 1, 72, 73
4, 6864, Note_on_c, 1, 69, 73
4, 6909, Note_on_c, 1, 72, 0
4, 6909, Note_on_c, 1, 69, 0
4, 6912, Note_on_c, 1, 70, 73
4, 6912, Note_on_c, 1, 67, 73
4, 6957, Note_on_c, 1, 70, 0
4, 6957, Note_on_c, 1, 67, 0
4, 6960, Note_on_c, 1, 69, 73
4, 6960, Note_on_c, 1, 65, 73
4, 7005, Note_on_c, 1, 69, 0
4, 7005, Note_on_c, 1, 65, 0
4, 7008, Note_on_c, 1, 67, 72
4, 7008, Note_on_c, 1, 63, 72
4, 7053, Note_on_c, 1, 67, 0
4, 7053, Note_on_c, 1, 63, 0
4, 7056, Note_on_c, 1, 65, 72
4, 7056, Note_on_c, 1, 62, 72
4, 7101, Note_on_c, 1, 65, 0
4, 7101, Note_on_c, 1, 62, 0
4, 7104, Note_on_c, 1, 67, 71
4, 7104, Note_on_c, 1, 63, 71
4, 7193, Note_on_c, 1, 67, 0
4, 7193, Note_on_c, 1, 63, 0
4, 7200, Note_on_c, 1, 60, 71
4, 7200, Note_on_c, 1, 53, 71
4, 7239, Note_on_c, 1, 60, 0
4, 7239, Note_on_c, 1, 53, 0
4, 7344, Note_on_c, 1, 58, 70
4, 7389, Note_on_c, 1, 58, 0
4, 7392, Note_on_c, 1, 46, 70
4, 7437, Note_on_c, 1, 46, 0
4, 7536, Note_on_c, 1, 53, 75
4, 7556, Note_on_c, 1, 53, 0
4, 7584, Note_on_c, 1, 45, 75
4, 7725, Note_on_c, 1, 45, 0
4, 7728, Note_on_c, 1, 50, 75
4, 7740, Note_on_c, 1, 50, 0
4, 7740, Note_on_c, 1, 48, 75
4, 7774, Note_on_c, 1, 48, 0
4, 7776, Note_on_c, 1, 46, 75
4, 7821, Note_on_c, 1, 46, 0
4, 7920, Note_on_c, 1, 58, 75
4, 7940, Note_on_c, 1, 58, 0
4, 7968, Note_on_c, 1, 50, 75
4, 8109, Note_on_c, 1, 50, 0
4, 8112, Note_on_c, 1, 55, 75
4, 8124, Note_on_c, 1, 55, 0
4, 8124, Note_on_c, 1, 53, 75
4, 8158, Note_on_c, 1, 53, 0
4, 8304, Note_on_c, 1, 68, 75
4, 8349, Note_on_c, 1, 68, 0
4, 8352, Note_on_c, 1, 62, 75
4, 8397, Note_on_c, 1, 62, 0
4, 8400, Note_on_c, 1, 65, 75
4, 8445, Note_on_c, 1, 65, 0
4, 8448, Note_on_c, 1, 63, 75
4, 8537, Note_on_c, 1, 63, 0
4, 8544, Note_on_c, 1, 62, 75
4, 8633, Note_on_c, 1, 62, 0
4, 8640, Note_on_c, 1, 60, 75
4, 8685, Note_on_c, 1, 60, 0
4, 8688, Note_on_c, 1, 57, 75
4, 8733, Note_on_c, 1, 57, 0
4, 8736, Note_on_c, 1, 58, 75
4, 8781, Note_on_c, 1, 58, 0
4, 8784, Note_on_c, 1, 52, 91
4, 8832, Note_on_c, 1, 52, 0
4, 8832, Note_on_c, 1, 53, 75
4, 8921, Note_on_c, 1, 53, 0
4, 8928, Note_on_c, 1, 41, 75
4, 8948, Note_on_c, 1, 41, 0
4, 8976, Note_on_c, 1, 53, 75
4, 8996, Note_on_c, 1, 53, 0
4, 9024, Note_on_c, 1, 58, 91
4, 9261, Note_on_c, 1, 58, 0
4, 9264, Note_on_c, 1, 57, 75
4, 9284, Note_on_c, 1, 57, 0
4, 9312, Note_on_c, 1, 60, 75
4, 9332, Note_on_c, 1, 60, 0
4, 9360, Note_on_c, 1, 53, 75
4, 9380, Note_on_c, 1, 53, 0
4, 9408, Note_on_c, 1, 62, 91
4, 9408, Note_on_c, 1, 58, 91
4, 9645, Note_on_c, 1, 62, 0
4, 9645, Note_on_c, 1, 58, 0
4, 9648, Note_on_c, 1, 60, 75
4, 9648, Note_on_c, 1, 57, 75
4, 9668, Note_on_c, 1, 60, 0
4, 9668, Note_on_c, 1, 57, 0
4, 9696, Note_on_c, 1, 63, 75
4, 9696, Note_on_c, 1, 60, 75
4, 9716, Note_on_c, 1, 63, 0
4, 9716, Note_on_c, 1, 60, 0
4, 9744, Note_on_c, 1, 53, 75
4, 9764, Note_on_c, 1, 53, 0
4, 9792, Note_on_c, 1, 65, 91
4, 9792, Note_on_c, 1, 62, 91
4, 9888, Note_on_c, 1, 65, 0
4, 9888, Note_on_c, 1, 62, 0
4, 9888, Note_on_c, 1, 67, 77
4, 9888, Note_on_c, 1, 63, 77
4, 9933, Note_on_c, 1, 67, 0
4, 9933, Note_on_c, 1, 63, 0
4, 9936, Note_on_c, 1, 68, 78
4, 9936, Note_on_c, 1, 65, 78
4, 9981, Note_on_c, 1, 68, 0
4, 9981, Note_on_c, 1, 65, 0
4, 9984, Note_on_c, 1, 67, 80
4, 9984, Note_on_c, 1, 63, 80
4, 10029, Note_on_c, 1, 67, 0
4, 10029, Note_on_c, 1, 63, 0
4, 10032, Note_on_c, 1, 65, 78
4, 10032, Note_on_c, 1, 62, 78
4, 10077, Note_on_c, 1, 65, 0
4, 10077, Note_on_c, 1, 62, 0
4, 10080, Note_on_c, 1, 63, 77
4, 10080, Note_on_c, 1, 60, 77
4, 10125, Note_on_c, 1, 63, 0
4, 10125, Note_on_c, 1, 60, 0
4, 10128, Note_on_c, 1, 67, 76
4, 10128, Note_on_c, 1, 63, 76
4, 10173, Note_on_c, 1, 67, 0
4, 10173, Note_on_c, 1, 63, 0
4, 10176, Note_on_c, 1, 62, 75
4, 10265, Note_on_c, 1, 62, 0
4, 10272, Note_on_c, 1, 63, 75
4, 10361, Note_on_c, 1, 63, 0
4, 10368, Note_on_c, 1, 62, 75
4, 10368, Note_on_c, 1, 58, 75
4, 10457, Note_on_c, 1, 62, 0
4, 10457, Note_on_c, 1, 58, 0
4, 10512, Note_on_c, 1, 62, 75
4, 10512, Note_on_c, 1, 58, 75
4, 10557, Note_on_c, 1, 62, 0
4, 10557, Note_on_c, 1, 58, 0
4, 10560, Note_on_c, 1, 67, 75
4, 10560, Note_on_c, 1, 63, 75
4, 10693, Note_on_c, 1, 67, 0
4, 10693, Note_on_c, 1, 63, 0
4, 10704, Note_on_c, 1, 63, 75
4, 10704, Note_on_c, 1, 60, 75
4, 10749, Note_on_c, 1, 63, 0
4, 10749, Note_on_c, 1, 60, 0
4, 10752, Note_on_c, 1, 69, 75
4, 10752, Note_on_c, 1, 65, 75
4, 10885, Note_on_c, 1, 69, 0
4, 10885, Note_on_c, 1, 65, 0
4, 10896, Note_on_c, 1, 65, 75
4, 10896, Note_on_c, 1, 62, 75
4, 10941, Note_on_c, 1, 65, 0
4, 10941, Note_on_c, 1, 62, 0
4, 10944, Note_on_c, 1, 74, 75
4, 10944, Note_on_c, 1, 70, 75
4, 11077, Note_on_c, 1, 74, 0
4, 11077, Note_on_c, 1, 70, 0
4, 11088, Note_on_c, 1, 72, 73
4, 11088, Note_on_c, 1, 69, 73
4, 11133, Note_on_c, 1, 72, 0
4, 11133, Note_on_c, 1, 69, 0
4, 11136, Note_on_c, 1, 70, 73
4, 11136, Note_on_c, 1, 67, 73
4, 11181, Note_on_c, 1, 70, 0
4, 11181, Note_on_c, 1, 67, 0
4, 11184, Note_on_c, 1, 69, 73
4, 11184, Note_on_c, 1, 65, 73
4, 11229, Note_on_c, 1, 69, 0
4, 11229, Note_on_c, 1, 65, 0
4, 11232, Note_on_c, 1, 67, 72
4, 11232, Note_on_c, 1, 63, 72
4, 11277, Note_on_c, 1, 67, 0
4, 11277, Note_on_c, 1, 63, 0
4, 11280, Note_on_c, 1, 65, 72
4, 11280, Note_on_c, 1, 62, 72
4, 11325, Note_on_c, 1, 65, 0
4, 11325, Note_on_c, 1, 62, 0
4, 11328, Note_on_c, 1, 67, 71
4, 11328, Note_on_c, 1, 63, 71
4, 11417, Note_on_c, 1, 67, 0
4, 11417, Note_on_c, 1, 63, 0
4, 11424, Note_on_c, 1, 60, 71
4, 11424, Note_on_c, 1, 53, 71
4, 11463, Note_on_c, 1, 60, 0
4, 11463, Note_on_c, 1, 53, 0
4, 11568, Note_on_c, 1, 58, 70
4, 11613, Note_on_c, 1, 58, 0
4, 11616, Note_on_c, 1, 46, 70
4, 11661, Note_on_c, 1, 46, 0
4, 11760, Note_on_c, 1, 46, 70
4, 11780, Note_on_c, 1, 46, 0
4, 11808, Note_on_c, 1, 51, 70
4, 11831, Note_on_c, 1, 51, 0
4, 11832, Note_on_c, 1, 49, 70
4, 11855, Note_on_c, 1, 49, 0
4, 11856, Note_on_c, 1, 48, 70
4, 11879, Note_on_c, 1, 48, 0
4, 11880, Note_on_c, 1, 46, 70
4, 11903, Note_on_c, 1, 46, 0
4, 11904, Note_on_c, 1, 53, 70
4, 11993, Note_on_c, 1, 53, 0
4, 12144, Note_on_c, 1, 46, 70
4, 12164, Note_on_c, 1, 46, 0
4, 12192, Note_on_c, 1, 51, 70
4, 12215, Note_on_c, 1, 51, 0
4, 12216, Note_on_c, 1, 49, 70
4, 12239, Note_on_c, 1, 49, 0
4, 12240, Note_on_c, 1, 48, 70
4, 12263, Note_on_c, 1, 48, 0
4, 12264, Note_on_c, 1, 46, 70
4, 12287, Note_on_c, 1, 46, 0
4, 12288, Note_on_c, 1, 54, 70
4, 12421, Note_on_c, 1, 54, 0
4, 12432, Note_on_c, 1, 51, 71
4, 12477, Note_on_c, 1, 51, 0
4, 12480, Note_on_c, 1, 56, 72
4, 12613, Note_on_c, 1, 56, 0
4, 12624, Note_on_c, 1, 53, 74
4, 12669, Note_on_c, 1, 53, 0
4, 12672, Note_on_c, 1, 58, 75
4, 12717, Note_on_c, 1, 58, 0
4, 12720, Note_on_c, 1, 53, 75
4, 12765, Note_on_c, 1, 53, 0
4, 12768, Note_on_c, 1, 60, 75
4, 12813, Note_on_c, 1, 60, 0
4, 12816, Note_on_c, 1, 56, 75
4, 12861, Note_on_c, 1, 56, 0
4, 12864, Note_on_c, 1, 61, 75
4, 12909, Note_on_c, 1, 61, 0
4, 12912, Note_on_c, 1, 56, 75
4, 12957, Note_on_c, 1, 56, 0
4, 12960, Note_on_c, 1, 60, 75
4, 13005, Note_on_c, 1, 60, 0
4, 13008, Note_on_c, 1, 56, 75
4, 13053, Note_on_c, 1, 56, 0
4, 13056, Note_on_c, 1, 61, 75
4, 13101, Note_on_c, 1, 61, 0
4, 13104, Note_on_c, 1, 56, 75
4, 13149, Note_on_c, 1, 56, 0
4, 13152, Note_on_c, 1, 60, 75
4, 13197, Note_on_c, 1, 60, 0
4, 13200, Note_on_c, 1, 56, 75
4, 13245, Note_on_c, 1, 56, 0
4, 13248, Note_on_c, 1, 61, 75
4, 13293, Note_on_c, 1, 61, 0
4, 13296, Note_on_c, 1, 49, 75
4, 13341, Note_on_c, 1, 49, 0
4, 13344, Note_on_c, 1, 59, 76
4, 13389, Note_on_c, 1, 59, 0
4, 13392, Note_on_c, 1, 47, 76
4, 13437, Note_on_c, 1, 47, 0
4, 13440, Note_on_c, 1, 58, 77
4, 13485, Note_on_c, 1, 58, 0
4, 13488, Note_on_c, 1, 46, 77
4, 13533, Note_on_c, 1, 46, 0
4, 13536, Note_on_c, 1, 57, 78
4, 13581, Note_on_c, 1, 57, 0
4, 13584, Note_on_c, 1, 45, 78
4, 13629, Note_on_c, 1, 45, 0
4, 13632, Note_on_c, 1, 56, 79
4, 13677, Note_on_c, 1, 56, 0
4, 13680, Note_on_c, 1, 44, 80
4, 13725, Note_on_c, 1, 44, 0
4, 13728, Note_on_c, 1, 58, 80
4, 13773, Note_on_c, 1, 58, 0
4, 13776, Note_on_c, 1, 46, 78
4, 13821, Note_on_c, 1, 46, 0
4, 13824, Note_on_c, 1, 54, 76
4, 13869, Note_on_c, 1, 54, 0
4, 13872, Note_on_c, 1, 42, 75
4, 13917, Note_on_c, 1, 42, 0
4, 13920, Note_on_c, 1, 56, 73
4, 13965, Note_on_c, 1, 56, 0
4, 13968, Note_on_c, 1, 44, 71
4, 14013, Note_on_c, 1, 44, 0
4, 14016, Note_on_c, 1, 49, 70
4, 14061, Note_on_c, 1, 49, 0
4, 14064, Note_on_c, 1, 44, 70
4, 14109, Note_on_c, 1, 44, 0
4, 14112, Note_on_c, 1, 37, 70
4, 14157, Note_on_c, 1, 37, 0
4, 14256, Note_on_c, 1, 46, 70
4, 14276, Note_on_c, 1, 46, 0
4, 14304, Note_on_c, 1, 51, 70
4, 14327, Note_on_c, 1, 51, 0
4, 14328, Note_on_c, 1, 49, 70
4, 14351, Note_on_c, 1, 49, 0
4, 14352, Note_on_c, 1, 48, 70
4, 14375, Note_on_c, 1, 48, 0
4, 14376, Note_on_c, 1, 46, 70
4, 14399, Note_on_c, 1, 46, 0
4, 14400, Note_on_c, 1, 53, 70
4, 14489, Note_on_c, 1, 53, 0
4, 14640, Note_on_c, 1, 46, 70
4, 14660, Note_on_c, 1, 46, 0
4, 14688, Note_on_c, 1, 51, 70
4, 14711, Note_on_c, 1, 51, 0
4, 14712, Note_on_c, 1, 49, 70
4, 14735, Note_on_c, 1, 49, 0
4, 14736, Note_on_c, 1, 48, 70
4, 14759, Note_on_c, 1, 48, 0
4, 14760, Note_on_c, 1, 46, 70
4, 14783, Note_on_c, 1, 46, 0
4, 14784, Note_on_c, 1, 54, 70
4, 14917, Note_on_c, 1, 54, 0
4, 14928, Note_on_c, 1, 51, 71
4, 14973, Note_on_c, 1, 51, 0
4, 14976, Note_on_c, 1, 56, 72
4, 15109, Note_on_c, 1, 56, 0
4, 15120, Note_on_c, 1, 53, 74
4, 15165, Note_on_c, 1, 53, 0
4, 15168, Note_on_c, 1, 58, 75
4, 15213, Note_on_c, 1, 58, 0
4, 15216, Note_on_c, 1, 53, 75
4, 15261, Note_on_c, 1, 53, 0
4, 15264, Note_on_c, 1, 60, 75
4, 15309, Note_on_c, 1, 60, 0
4, 15312, Note_on_c, 1, 56, 75
4, 15357, Note_on_c, 1, 56, 0
4, 15360, Note_on_c, 1, 61, 75
4, 15405, Note_on_c, 1, 61, 0
4, 15408, Note_on_c, 1, 56, 75
4, 15453, Note_on_c, 1, 56, 0
4, 15456, Note_on_c, 1, 60, 75
4, 15501, Note_on_c, 1, 60, 0
4, 15504, Note_on_c, 1, 56, 75
4, 15549, Note_on_c, 1, 56, 0
4, 15552, Note_on_c, 1, 61, 75
4, 15597, Note_on_c, 1, 61, 0
4, 15600, Note_on_c, 1, 56, 75
4, 15645, Note_on_c, 1, 56, 0
4, 15648, Note_on_c, 1, 60, 75
4, 15693, Note_on_c, 1, 60, 0
4, 15696, Note_on_c, 1, 56, 75
4, 15741, Note_on_c, 1, 56, 0
4, 15744, Note_on_c, 1, 61, 75
4, 15789, Note_on_c, 1, 61, 0
4, 15792, Note_on_c, 1, 49, 75
4, 15837, Note_on_c, 1, 49, 0
4, 15840, Note_on_c, 1, 59, 76
4, 15885, Note_on_c, 1, 59, 0
4, 15888, Note_on_c, 1, 47, 76
4, 15933, Note_on_c, 1, 47, 0
4, 15936, Note_on_c, 1, 58, 77
4, 15981, Note_on_c, 1, 58, 0
4, 15984, Note_on_c, 1, 46, 77
4, 16029, Note_on_c, 1, 46, 0
4, 16032, Note_on_c, 1, 57, 78
4, 16077, Note_on_c, 1, 57, 0
4, 16080, Note_on_c, 1, 45, 78
4, 16125, Note_on_c, 1, 45, 0
4, 16128, Note_on_c, 1, 56, 79
4, 16173, Note_on_c, 1, 56, 0
4, 16176, Note_on_c, 1, 44, 80
4, 16221, Note_on_c, 1, 44, 0
4, 16224, Note_on_c, 1, 58, 80
4, 16269, Note_on_c, 1, 58, 0
4, 16272, Note_on_c, 1, 46, 78
4, 16317, Note_on_c, 1, 46, 0
4, 16320, Note_on_c, 1, 54, 76
4, 16365, Note_on_c, 1, 54, 0
4, 16368, Note_on_c, 1, 42, 75
4, 16413, Note_on_c, 1, 42, 0
4, 16416, Note_on_c, 1, 56, 73
4, 16461, Note_on_c, 1, 56, 0
4, 16464, Note_on_c, 1, 44, 71
4, 16509, Note_on_c, 1, 44, 0
4, 16512, Note_on_c, 1, 49, 70
4, 16557, Note_on_c, 1, 49, 0
4, 16560, Note_on_c, 1, 44, 70
4, 16605, Note_on_c, 1, 44, 0
4, 16608, Note_on_c, 1, 37, 70
4, 16653, Note_on_c, 1, 37, 0
4, 16752, Note_on_c, 1, 49, 75
4, 16772, Note_on_c, 1, 49, 0
4, 16800, Note_on_c, 1, 54, 75
4, 16823, Note_on_c, 1, 54, 0
4, 16824, Note_on_c, 1, 53, 75
4, 16847, Note_on_c, 1, 53, 0
4, 16848, Note_on_c, 1, 51, 75
4, 16871, Note_on_c, 1, 51, 0
4, 16872, Note_on_c, 1, 49, 75
4, 16895, Note_on_c, 1, 49, 0
4, 16896, Note_on_c, 1, 56, 75
4, 16985, Note_on_c, 1, 56, 0
4, 17136, Note_on_c, 1, 61, 75
4, 17156, Note_on_c, 1, 61, 0
4, 17184, Note_on_c, 1, 60, 75
4, 17207, Note_on_c, 1, 60, 0
4, 17208, Note_on_c, 1, 58, 75
4, 17231, Note_on_c, 1, 58, 0
4, 17232, Note_on_c, 1, 56, 75
4, 17255, Note_on_c, 1, 56, 0
4, 17256, Note_on_c, 1, 55, 75
4, 17279, Note_on_c, 1, 55, 0
4, 17280, Note_on_c, 1, 56, 75
4, 17413, Note_on_c, 1, 56, 0
4, 17424, Note_on_c, 1, 54, 78
4, 17469, Note_on_c, 1, 54, 0
4, 17496, Note_on_c, 1, 53, 80
4, 17519, Note_on_c, 1, 53, 0
4, 17520, Note_on_c, 1, 54, 80
4, 17543, Note_on_c, 1, 54, 0
4, 17544, Note_on_c, 1, 56, 80
4, 17567, Note_on_c, 1, 56, 0
4, 17568, Note_on_c, 1, 58, 80
4, 17591, Note_on_c, 1, 58, 0
4, 17592, Note_on_c, 1, 56, 80
4, 17615, Note_on_c, 1, 56, 0
4, 17616, Note_on_c, 1, 58, 80
4, 17639, Note_on_c, 1, 58, 0
4, 17640, Note_on_c, 1, 46, 80
4, 17663, Note_on_c, 1, 46, 0
4, 17688, Note_on_c, 1, 51, 80
4, 17711, Note_on_c, 1, 51, 0
4, 17712, Note_on_c, 1, 53, 80
4, 17735, Note_on_c, 1, 53, 0
4, 17736, Note_on_c, 1, 54, 80
4, 17759, Note_on_c, 1, 54, 0
4, 17760, Note_on_c, 1, 56, 80
4, 17783, Note_on_c, 1, 56, 0
4, 17784, Note_on_c, 1, 54, 80
4, 17807, Note_on_c, 1, 54, 0
4, 17808, Note_on_c, 1, 56, 80
4, 17831, Note_on_c, 1, 56, 0
4, 17832, Note_on_c, 1, 44, 80
4, 17855, Note_on_c, 1, 44, 0
4, 17880, Note_on_c, 1, 49, 80
4, 17903, Note_on_c, 1, 49, 0
4, 17904, Note_on_c, 1, 51, 80
4, 17927, Note_on_c, 1, 51, 0
4, 17928, Note_on_c, 1, 53, 80
4, 17951, Note_on_c, 1, 53, 0
4, 17952, Note_on_c, 1, 54, 80
4, 17975, Note_on_c, 1, 54, 0
4, 17976, Note_on_c, 1, 56, 80
4, 17999, Note_on_c, 1, 56, 0
4, 18000, Note_on_c, 1, 58, 80
4, 18023, Note_on_c, 1, 58, 0
4, 18024, Note_on_c, 1, 54, 80
4, 18047, Note_on_c, 1, 54, 0
4, 18072, Note_on_c, 1, 60, 80
4, 18095, Note_on_c, 1, 60, 0
4, 18096, Note_on_c, 1, 61, 80
4, 18119, Note_on_c, 1, 61, 0
4, 18120, Note_on_c, 1, 63, 80
4, 18143, Note_on_c, 1, 63, 0
4, 18144, Note_on_c, 1, 65, 80
4, 18233, Note_on_c, 1, 65, 0
4, 18240, Note_on_c, 1, 65, 80
4, 18521, Note_on_c, 1, 65, 0
4, 18528, Note_on_c, 1, 64, 75
4, 18617, Note_on_c, 1, 64, 0
4, 18624, Note_on_c, 1, 65, 80
4, 18669, Note_on_c, 1, 65, 0
4, 18672, Note_on_c, 1, 53, 121
4, 18717, Note_on_c, 1, 53, 0
4, 18720, Note_on_c, 1, 55, 80
4, 18765, Note_on_c, 1, 55, 0
4, 18768, Note_on_c, 1, 57, 80
4, 18813, Note_on_c, 1, 57, 0
4, 18816, Note_on_c, 1, 58, 80
4, 18861, Note_on_c, 1, 58, 0
4, 18864, Note_on_c, 1, 58, 80
4, 18909, Note_on_c, 1, 58, 0
4, 18912, Note_on_c, 1, 60, 80
4, 18957, Note_on_c, 1, 60, 0
4, 18960, Note_on_c, 1, 61, 80
4, 19005, Note_on_c, 1, 61, 0
4, 19008, Note_on_c, 1, 60, 80
4, 19053, Note_on_c, 1, 60, 0
4, 19056, Note_on_c, 1, 53, 127
4, 19104, Note_on_c, 1, 53, 0
4, 19104, Note_on_c, 1, 55, 80
4, 19149, Note_on_c, 1, 55, 0
4, 19152, Note_on_c, 1, 57, 80
4, 19197, Note_on_c, 1, 57, 0
4, 19200, Note_on_c, 1, 58, 80
4, 19245, Note_on_c, 1, 58, 0
4, 19248, Note_on_c, 1, 58, 80
4, 19293, Note_on_c, 1, 58, 0
4, 19296, Note_on_c, 1, 60, 80
4, 19341, Note_on_c, 1, 60, 0
4, 19344, Note_on_c, 1, 61, 80
4, 19389, Note_on_c, 1, 61, 0
4, 19392, Note_on_c, 1, 60, 80
4, 19437, Note_on_c, 1, 60, 0
4, 19440, Note_on_c, 1, 53, 127
4, 19488, Note_on_c, 1, 53, 0
4, 19488, Note_on_c, 1, 55, 80
4, 19533, Note_on_c, 1, 55, 0
4, 19536, Note_on_c, 1, 57, 80
4, 19581, Note_on_c, 1, 57, 0
4, 19584, Note_on_c, 1, 58, 80
4, 19629, Note_on_c, 1, 58, 0
4, 19632, Note_on_c, 1, 58, 80
4, 19677, Note_on_c, 1, 58, 0
4, 19680, Note_on_c, 1, 60, 80
4, 19725, Note_on_c, 1, 60, 0
4, 19728, Note_on_c, 1, 61, 80
4, 19773, Note_on_c, 1, 61, 0
4, 19776, Note_on_c, 1, 60, 80
4, 19821, Note_on_c, 1, 60, 0
4, 19824, Note_on_c, 1, 61, 78
4, 19869, Note_on_c, 1, 61, 0
4, 19872, Note_on_c, 1, 60, 77
4, 19917, Note_on_c, 1, 60, 0
4, 19920, Note_on_c, 1, 61, 76
4, 19965, Note_on_c, 1, 61, 0
4, 19968, Note_on_c, 1, 60, 75
4, 20057, Note_on_c, 1, 60, 0
4, 20208, Note_on_c, 1, 58, 75
4, 20253, Note_on_c, 1, 58, 0
4, 20256, Note_on_c, 1, 63, 75
4, 20279, Note_on_c, 1, 63, 0
4, 20280, Note_on_c, 1, 62, 75
4, 20303, Note_on_c, 1, 62, 0
4, 20304, Note_on_c, 1, 60, 75
4, 20327, Note_on_c, 1, 60, 0
4, 20328, Note_on_c, 1, 58, 75
4, 20351, Note_on_c, 1, 58, 0
4, 20352, Note_on_c, 1, 65, 75
4, 20441, Note_on_c, 1, 65, 0
4, 20568, Note_on_c, 1, 58, 75
4, 20591, Note_on_c, 1, 58, 0
4, 20592, Note_on_c, 1, 60, 76
4, 20615, Note_on_c, 1, 60, 0
4, 20616, Note_on_c, 1, 62, 78
4, 20639, Note_on_c, 1, 62, 0
4, 20640, Note_on_c, 1, 60, 80
4, 20663, Note_on_c, 1, 60, 0
4, 20664, Note_on_c, 1, 58, 78
4, 20687, Note_on_c, 1, 58, 0
4, 20688, Note_on_c, 1, 57, 77
4, 20711, Note_on_c, 1, 57, 0
4, 20712, Note_on_c, 1, 55, 76
4, 20735, Note_on_c, 1, 55, 0
4, 20736, Note_on_c, 1, 53, 75
4, 20825, Note_on_c, 1, 53, 0
4, 20952, Note_on_c, 1, 68, 75
4, 20975, Note_on_c, 1, 68, 0
4, 20976, Note_on_c, 1, 67, 75
4, 20999, Note_on_c, 1, 67, 0
4, 21000, Note_on_c, 1, 65, 75
4, 21023, Note_on_c, 1, 65, 0
4, 21024, Note_on_c, 1, 63, 75
4, 21047, Note_on_c, 1, 63, 0
4, 21048, Note_on_c, 1, 62, 75
4, 21071, Note_on_c, 1, 62, 0
4, 21072, Note_on_c, 1, 60, 75
4, 21095, Note_on_c, 1, 60, 0
4, 21096, Note_on_c, 1, 59, 75
4, 21119, Note_on_c, 1, 59, 0
4, 21120, Note_on_c, 1, 60, 75
4, 21209, Note_on_c, 1, 60, 0
4, 21216, Note_on_c, 1, 57, 75
4, 21261, Note_on_c, 1, 57, 0
4, 21264, Note_on_c, 1, 58, 75
4, 21309, Note_on_c, 1, 58, 0
4, 21312, Note_on_c, 1, 51, 75
4, 21489, Note_on_c, 1, 51, 0
4, 21504, Note_on_c, 1, 62, 75
4, 21504, Note_on_c, 1, 53, 75
4, 21600, Note_on_c, 1, 62, 0
4, 21600, Note_on_c, 1, 60, 75
4, 21645, Note_on_c, 1, 60, 0
4, 21645, Note_on_c, 1, 53, 0
4, 21696, Note_on_c, 1, 46, 96
4, 21720, Note_on_c, 1, 46, 0
4, 21720, Note_on_c, 1, 50, 80
4, 21743, Note_on_c, 1, 50, 0
4, 21744, Note_on_c, 1, 53, 80
4, 21767, Note_on_c, 1, 53, 0
4, 21768, Note_on_c, 1, 58, 80
4, 21791, Note_on_c, 1, 58, 0
4, 21888, Note_on_c, 1, 60, 80
4, 21888, Note_on_c, 1, 53, 80
4, 21977, Note_on_c, 1, 60, 0
4, 21977, Note_on_c, 1, 53, 0
4, 22080, Note_on_c, 1, 58, 80
4, 22103, Note_on_c, 1, 58, 0
4, 22104, Note_on_c, 1, 62, 80
4, 22127, Note_on_c, 1, 62, 0
4, 22128, Note_on_c, 1, 65, 80
4, 22151, Note_on_c, 1, 65, 0
4, 22272, Note_on_c, 1, 63, 80
4, 22272, Note_on_c, 1, 60, 80
4, 22361, Note_on_c, 1, 63, 0
4, 22361, Note_on_c, 1, 60, 0
4, 22488, Note_on_c, 1, 68, 80
4, 22511, Note_on_c, 1, 68, 0
4, 22512, Note_on_c, 1, 67, 80
4, 22535, Note_on_c, 1, 67, 0
4, 22536, Note_on_c, 1, 65, 80
4, 22559, Note_on_c, 1, 65, 0
4, 22560, Note_on_c, 1, 63, 80
4, 22583, Note_on_c, 1, 63, 0
4, 22584, Note_on_c, 1, 62, 80
4, 22607, Note_on_c, 1, 62, 0
4, 22608, Note_on_c, 1, 60, 80
4, 22631, Note_on_c, 1, 60, 0
4, 22632, Note_on_c, 1, 59, 80
4, 22655, Note_on_c, 1, 59, 0
4, 22656, Note_on_c, 1, 60, 80
4, 22745, Note_on_c, 1, 60, 0
4, 22752, Note_on_c, 1, 57, 80
4, 22797, Note_on_c, 1, 57, 0
4, 22800, Note_on_c, 1, 58, 80
4, 22845, Note_on_c, 1, 58, 0
4, 22848, Note_on_c, 1, 51, 96
4, 22872, Note_on_c, 1, 51, 0
4, 22872, Note_on_c, 1, 55, 80
4, 22895, Note_on_c, 1, 55, 0
4, 22896, Note_on_c, 1, 60, 80
4, 22919, Note_on_c, 1, 60, 0
4, 22920, Note_on_c, 1, 63, 80
4, 22943, Note_on_c, 1, 63, 0
4, 23040, Note_on_c, 1, 62, 80
4, 23040, Note_on_c, 1, 53, 80
4, 23136, Note_on_c, 1, 62, 0
4, 23136, Note_on_c, 1, 60, 76
4, 23181, Note_on_c, 1, 60, 0
4, 23181, Note_on_c, 1, 53, 0
4, 23280, Note_on_c, 1, 53, 75
4, 23300, Note_on_c, 1, 53, 0
4, 23328, Note_on_c, 1, 45, 75
4, 23469, Note_on_c, 1, 45, 0
4, 23472, Note_on_c, 1, 50, 75
4, 23484, Note_on_c, 1, 50, 0
4, 23484, Note_on_c, 1, 48, 75
4, 23518, Note_on_c, 1, 48, 0
4, 23520, Note_on_c, 1, 46, 75
4, 23565, Note_on_c, 1, 46, 0
4, 23664, Note_on_c, 1, 58, 75
4, 23684, Note_on_c, 1, 58, 0
4, 23712, Note_on_c, 1, 50, 75
4, 23853, Note_on_c, 1, 50, 0
4, 23856, Note_on_c, 1, 55, 75
4, 23868, Note_on_c, 1, 55, 0
4, 23868, Note_on_c, 1, 53, 75
4, 23902, Note_on_c, 1, 53, 0
4, 23904, Note_on_c, 1, 51, 75
4, 23993, Note_on_c, 1, 51, 0
4, 24048, Note_on_c, 1, 68, 75
4, 24093, Note_on_c, 1, 68, 0
4, 24096, Note_on_c, 1, 62, 75
4, 24141, Note_on_c, 1, 62, 0
4, 24144, Note_on_c, 1, 65, 75
4, 24189, Note_on_c, 1, 65, 0
4, 24192, Note_on_c, 1, 63, 75
4, 24281, Note_on_c, 1, 63, 0
4, 24288, Note_on_c, 1, 62, 75
4, 24377, Note_on_c, 1, 62, 0
4, 24384, Note_on_c, 1, 60, 75
4, 24429, Note_on_c, 1, 60, 0
4, 24432, Note_on_c, 1, 57, 75
4, 24477, Note_on_c, 1, 57, 0
4, 24480, Note_on_c, 1, 58, 75
4, 24525, Note_on_c, 1, 58, 0
4, 24528, Note_on_c, 1, 52, 91
4, 24576, Note_on_c, 1, 52, 0
4, 24576, Note_on_c, 1, 53, 75
4, 24665, Note_on_c, 1, 53, 0
4, 24672, Note_on_c, 1, 41, 75
4, 24692, Note_on_c, 1, 41, 0
4, 24720, Note_on_c, 1, 53, 75
4, 24740, Note_on_c, 1, 53, 0
4, 24768, Note_on_c, 1, 58, 91
4, 25005, Note_on_c, 1, 58, 0
4, 25008, Note_on_c, 1, 57, 75
4, 25028, Note_on_c, 1, 57, 0
4, 25056, Note_on_c, 1, 60, 75
4, 25076, Note_on_c, 1, 60, 0
4, 25104, Note_on_c, 1, 53, 75
4, 25124, Note_on_c, 1, 53, 0
4, 25152, Note_on_c, 1, 62, 91
4, 25152, Note_on_c, 1, 58, 91
4, 25389, Note_on_c, 1, 62, 0
4, 25389, Note_on_c, 1, 58, 0
4, 25392, Note_on_c, 1, 60, 75
4, 25392, Note_on_c, 1, 57, 75
4, 25412, Note_on_c, 1, 60, 0
4, 25412, Note_on_c, 1, 57, 0
4, 25440, Note_on_c, 1, 63, 75
4, 25440, Note_on_c, 1, 60, 75
4, 25460, Note_on_c, 1, 63, 0
4, 25460, Note_on_c, 1, 60, 0
4, 25488, Note_on_c, 1, 53, 75
4, 25508, Note_on_c, 1, 53, 0
4, 25536, Note_on_c, 1, 65, 91
4, 25536, Note_on_c, 1, 62, 91
4, 25632, Note_on_c, 1, 65, 0
4, 25632, Note_on_c, 1, 62, 0
4, 25632, Note_on_c, 1, 67, 77
4, 25632, Note_on_c, 1, 63, 77
4, 25677, Note_on_c, 1, 67, 0
4, 25677, Note_on_c, 1, 63, 0
4, 25680, Note_on_c, 1, 68, 78
4, 25680, Note_on_c, 1, 65, 78
4, 25725, Note_on_c, 1, 68, 0
4, 25725, Note_on_c, 1, 65, 0
4, 25728, Note_on_c, 1, 67, 80
4, 25728, Note_on_c, 1, 63, 80
4, 25773, Note_on_c, 1, 67, 0
4, 25773, Note_on_c, 1, 63, 0
4, 25776, Note_on_c, 1, 65, 78
4, 25776, Note_on_c, 1, 62, 78
4, 25821, Note_on_c, 1, 65, 0
4, 25821, Note_on_c, 1, 62, 0
4, 25824, Note_on_c, 1, 63, 77
4, 25824, Note_on_c, 1, 60, 77
4, 25869, Note_on_c, 1, 63, 0
4, 25869, Note_on_c, 1, 60, 0
4, 25872, Note_on_c, 1, 67, 76
4, 25872, Note_on_c, 1, 63, 76
4, 25917, Note_on_c, 1, 67, 0
4, 25917, Note_on_c, 1, 63, 0
4, 25920, Note_on_c, 1, 62, 75
4, 26009, Note_on_c, 1, 62, 0
4, 26016, Note_on_c, 1, 63, 75
4, 26105, Note_on_c, 1, 63, 0
4, 26112, Note_on_c, 1, 62, 75
4, 26112, Note_on_c, 1, 58, 75
4, 26201, Note_on_c, 1, 62, 0
4, 26201, Note_on_c, 1, 58, 0
4, 26256, Note_on_c, 1, 62, 76
4, 26256, Note_on_c, 1, 58, 76
4, 26301, Note_on_c, 1, 62, 0
4, 26301, Note_on_c, 1, 58, 0
4, 26304, Note_on_c, 1, 67, 76
4, 26304, Note_on_c, 1, 63, 76
4, 26437, Note_on_c, 1, 67, 0
4, 26437, Note_on_c, 1, 63, 0
4, 26448, Note_on_c, 1, 63, 78
4, 26448, Note_on_c, 1, 60, 78
4, 26493, Note_on_c, 1, 63, 0
4, 26493, Note_on_c, 1, 60, 0
4, 26496, Note_on_c, 1, 69, 78
4, 26496, Note_on_c, 1, 65, 78
4, 26629, Note_on_c, 1, 69, 0
4, 26629, Note_on_c, 1, 65, 0
4, 26640, Note_on_c, 1, 65, 80
4, 26640, Note_on_c, 1, 62, 80
4, 26685, Note_on_c, 1, 65, 0
4, 26685, Note_on_c, 1, 62, 0
4, 26688, Note_on_c, 1, 74, 80
4, 26688, Note_on_c, 1, 70, 80
4, 26821, Note_on_c, 1, 74, 0
4, 26821, Note_on_c, 1, 70, 0
4, 26832, Note_on_c, 1, 72, 78
4, 26832, Note_on_c, 1, 69, 78
4, 26877, Note_on_c, 1, 72, 0
4, 26877, Note_on_c, 1, 69, 0
4, 26880, Note_on_c, 1, 70, 77
4, 26880, Note_on_c, 1, 67, 77
4, 26925, Note_on_c, 1, 70, 0
4, 26925, Note_on_c, 1, 67, 0
4, 26928, Note_on_c, 1, 69, 76
4, 26928, Note_on_c, 1, 65, 76
4, 26973, Note_on_c, 1, 69, 0
4, 26973, Note_on_c, 1, 65, 0
4, 26976, Note_on_c, 1, 67, 76
4, 26976, Note_on_c, 1, 63, 76
4, 27021, Note_on_c, 1, 67, 0
4, 27021, Note_on_c, 1, 63, 0
4, 27024, Note_on_c, 1, 65, 75
4, 27024, Note_on_c, 1, 62, 75
4, 27069, Note_on_c, 1, 65, 0
4, 27069, Note_on_c, 1, 62, 0
4, 27072, Note_on_c, 1, 67, 75
4, 27072, Note_on_c, 1, 63, 75
4, 27161, Note_on_c, 1, 67, 0
4, 27161, Note_on_c, 1, 63, 0
4, 27168, Note_on_c, 1, 60, 75
4, 27168, Note_on_c, 1, 53, 75
4, 27207, Note_on_c, 1, 60, 0
4, 27207, Note_on_c, 1, 53, 0
4, 27312, Note_on_c, 1, 58, 75
4, 27357, Note_on_c, 1, 58, 0
4, 27360, Note_on_c, 1, 46, 75
4, 27405, Note_on_c, 1, 46, 0
4, 27480, Note_on_c, 1, 51, 75
4, 27503, Note_on_c, 1, 51, 0
4, 27504, Note_on_c, 1, 53, 75
4, 27527, Note_on_c, 1, 53, 0
4, 27528, Note_on_c, 1, 55, 75
4, 27551, Note_on_c, 1, 55, 0
4, 27552, Note_on_c, 1, 45, 75
4, 27597, Note_on_c, 1, 45, 0
4, 27672, Note_on_c, 1, 51, 75
4, 27695, Note_on_c, 1, 51, 0
4, 27696, Note_on_c, 1, 50, 75
4, 27719, Note_on_c, 1, 50, 0
4, 27720, Note_on_c, 1, 48, 75
4, 27743, Note_on_c, 1, 48, 0
4, 27744, Note_on_c, 1, 46, 75
4, 27789, Note_on_c, 1, 46, 0
4, 27864, Note_on_c, 1, 56, 75
4, 27887, Note_on_c, 1, 56, 0
4, 27888, Note_on_c, 1, 58, 75
4, 27911, Note_on_c, 1, 58, 0
4, 27912, Note_on_c, 1, 60, 75
4, 27935, Note_on_c, 1, 60, 0
4, 27936, Note_on_c, 1, 50, 75
4, 27981, Note_on_c, 1, 50, 0
4, 28056, Note_on_c, 1, 56, 75
4, 28079, Note_on_c, 1, 56, 0
4, 28080, Note_on_c, 1, 55, 75
4, 28103, Note_on_c, 1, 55, 0
4, 28104, Note_on_c, 1, 53, 75
4, 28127, Note_on_c, 1, 53, 0
4, 28128, Note_on_c, 1, 51, 75
4, 28173, Note_on_c, 1, 51, 0
4, 28248, Note_on_c, 1, 68, 75
4, 28271, Note_on_c, 1, 68, 0
4, 28272, Note_on_c, 1, 65, 75
4, 28295, Note_on_c, 1, 65, 0
4, 28296, Note_on_c, 1, 63, 75
4, 28319, Note_on_c, 1, 63, 0
4, 28320, Note_on_c, 1, 62, 75
4, 28365, Note_on_c, 1, 62, 0
4, 28416, Note_on_c, 1, 63, 75
4, 28461, Note_on_c, 1, 63, 0
4, 28464, Note_on_c, 1, 59, 75
4, 28509, Note_on_c, 1, 59, 0
4, 28512, Note_on_c, 1, 60, 76
4, 28557, Note_on_c, 1, 60, 0
4, 28560, Note_on_c, 1, 62, 76
4, 28605, Note_on_c, 1, 62, 0
4, 28608, Note_on_c, 1, 63, 77
4, 28653, Note_on_c, 1, 63, 0
4, 28656, Note_on_c, 1, 62, 78
4, 28701, Note_on_c, 1, 62, 0
4, 28704, Note_on_c, 1, 63, 78
4, 28749, Note_on_c, 1, 63, 0
4, 28752, Note_on_c, 1, 64, 79
4, 28797, Note_on_c, 1, 64, 0
4, 28800, Note_on_c, 1, 65, 80
4, 28889, Note_on_c, 1, 65, 0
4, 28944, Note_on_c, 1, 53, 80
4, 28944, Note_on_c, 1, 41, 80
4, 28964, Note_on_c, 1, 53, 0
4, 28964, Note_on_c, 1, 41, 0
4, 28992, Note_on_c, 1, 58, 96
4, 28992, Note_on_c, 1, 46, 96
4, 29229, Note_on_c, 1, 58, 0
4, 29229, Note_on_c, 1, 46, 0
4, 29232, Note_on_c, 1, 57, 80
4, 29232, Note_on_c, 1, 45, 80
4, 29252, Note_on_c, 1, 57, 0
4, 29252, Note_on_c, 1, 45, 0
4, 29280, Note_on_c, 1, 60, 80
4, 29280, Note_on_c, 1, 48, 80
4, 29300, Note_on_c, 1, 60, 0
4, 29300, Note_on_c, 1, 48, 0
4, 29328, Note_on_c, 1, 53, 80
4, 29328, Note_on_c, 1, 41, 80
4, 29348, Note_on_c, 1, 53, 0
4, 29348, Note_on_c, 1, 41, 0
4, 29376, Note_on_c, 1, 62, 96
4, 29376, Note_on_c, 1, 58, 96
4, 29613, Note_on_c, 1, 62, 0
4, 29613, Note_on_c, 1, 58, 0
4, 29616, Note_on_c, 1, 60, 80
4, 29616, Note_on_c, 1, 57, 80
4, 29636, Note_on_c, 1, 60, 0
4, 29636, Note_on_c, 1, 57, 0
4, 29664, Note_on_c, 1, 63, 80
4, 29664, Note_on_c, 1, 60, 80
4, 29684, Note_on_c, 1, 63, 0
4, 29684, Note_on_c, 1, 60, 0
4, 29712, Note_on_c, 1, 53, 80
4, 29732, Note_on_c, 1, 53, 0
4, 29760, Note_on_c, 1, 65, 96
4, 29760, Note_on_c, 1, 62, 96
4, 29856, Note_on_c, 1, 65, 0
4, 29856, Note_on_c, 1, 62, 0
4, 29856, Note_on_c, 1, 67, 83
4, 29856, Note_on_c, 1, 63, 83
4, 29901, Note_on_c, 1, 67, 0
4, 29901, Note_on_c, 1, 63, 0
4, 29904, Note_on_c, 1, 68, 84
4, 29904, Note_on_c, 1, 65, 84
4, 29949, Note_on_c, 1, 68, 0
4, 29949, Note_on_c, 1, 65, 0
4, 29952, Note_on_c, 1, 67, 86
4, 29952, Note_on_c, 1, 63, 86
4, 29997, Note_on_c, 1, 67, 0
4, 29997, Note_on_c, 1, 63, 0
4, 30000, Note_on_c, 1, 65, 84
4, 30000, Note_on_c, 1, 62, 84
4, 30045, Note_on_c, 1, 65, 0
4, 30045, Note_on_c, 1, 62, 0
4, 30048, Note_on_c, 1, 63, 83
4, 30048, Note_on_c, 1, 60, 83
4, 30093, Note_on_c, 1, 63, 0
4, 30093, Note_on_c, 1, 60, 0
4, 30096, Note_on_c, 1, 67, 81
4, 30096, Note_on_c, 1, 63, 81
4, 30141, Note_on_c, 1, 67, 0
4, 30141, Note_on_c, 1, 63, 0
4, 30144, Note_on_c, 1, 62, 80
4, 30233, Note_on_c, 1, 62, 0
4, 30240, Note_on_c, 1, 63, 77
4, 30329, Note_on_c, 1, 63, 0
4, 30336, Note_on_c, 1, 62, 75
4, 30336, Note_on_c, 1, 58, 75
4, 30425, Note_on_c, 1, 62, 0
4, 30425, Note_on_c, 1, 58, 0
4, 30456, Note_on_c, 1, 62, 75
4, 30456, Note_on_c, 1, 58, 75
4, 30479, Note_on_c, 1, 62, 0
4, 30479, Note_on_c, 1, 58, 0
4, 30480, Note_on_c, 1, 63, 76
4, 30480, Note_on_c, 1, 60, 76
4, 30503, Note_on_c, 1, 63, 0
4, 30503, Note_on_c, 1, 60, 0
4, 30504, Note_on_c, 1, 65, 78
4, 30504, Note_on_c, 1, 62, 78
4, 30527, Note_on_c, 1, 65, 0
4, 30527, Note_on_c, 1, 62, 0
4, 30528, Note_on_c, 1, 67, 80
4, 30528, Note_on_c, 1, 63, 80
4, 30647, Note_on_c, 1, 67, 0
4, 30647, Note_on_c, 1, 63, 0
4, 30648, Note_on_c, 1, 63, 75
4, 30648, Note_on_c, 1, 60, 75
4, 30671, Note_on_c, 1, 63, 0
4, 30671, Note_on_c, 1, 60, 0
4, 30672, Note_on_c, 1, 65, 75
4, 30672, Note_on_c, 1, 62, 75
4, 30695, Note_on_c, 1, 65, 0
4, 30695, Note_on_c, 1, 62, 0
4, 30696, Note_on_c, 1, 67, 76
4, 30696, Note_on_c, 1, 63, 76
4, 30719, Note_on_c, 1, 67, 0
4, 30719, Note_on_c, 1, 63, 0
4, 30720, Note_on_c, 1, 69, 77
4, 30720, Note_on_c, 1, 65, 77
4, 30839, Note_on_c, 1, 69, 0
4, 30839, Note_on_c, 1, 65, 0
4, 30840, Note_on_c, 1, 69, 75
4, 30840, Note_on_c, 1, 65, 75
4, 30863, Note_on_c, 1, 69, 0
4, 30863, Note_on_c, 1, 65, 0
4, 30864, Note_on_c, 1, 70, 76
4, 30864, Note_on_c, 1, 67, 76
4, 30887, Note_on_c, 1, 70, 0
4, 30887, Note_on_c, 1, 67, 0
4, 30888, Note_on_c, 1, 72, 78
4, 30888, Note_on_c, 1, 69, 78
4, 30911, Note_on_c, 1, 72, 0
4, 30911, Note_on_c, 1, 69, 0
4, 30912, Note_on_c, 1, 74, 80
4, 30912, Note_on_c, 1, 70, 80
4, 31045, Note_on_c, 1, 74, 0
4, 31045, Note_on_c, 1, 70, 0
4, 31056, Note_on_c, 1, 72, 78
4, 31056, Note_on_c, 1, 69, 78
4, 31101, Note_on_c, 1, 72, 0
4, 31101, Note_on_c, 1, 69, 0
4, 31104, Note_on_c, 1, 70, 78
4, 31104, Note_on_c, 1, 67, 78
4, 31149, Note_on_c, 1, 70, 0
4, 31149, Note_on_c, 1, 67, 0
4, 31152, Note_on_c, 1, 69, 77
4, 31152, Note_on_c, 1, 65, 77
4, 31197, Note_on_c, 1, 69, 0
4, 31197, Note_on_c, 1, 65, 0
4, 31200, Note_on_c, 1, 67, 77
4, 31200, Note_on_c, 1, 63, 77
4, 31245, Note_on_c, 1, 67, 0
4, 31245, Note_on_c, 1, 63, 0
4, 31248, Note_on_c, 1, 65, 77
4, 31248, Note_on_c, 1, 62, 77
4, 31293, Note_on_c, 1, 65, 0
4, 31293, Note_on_c, 1, 62, 0
4, 31296, Note_on_c, 1, 67, 76
4, 31296, Note_on_c, 1, 63, 76
4, 31385, Note_on_c, 1, 67, 0
4, 31385, Note_on_c, 1, 63, 0
4, 31392, Note_on_c, 1, 60, 75
4, 31392, Note_on_c, 1, 53, 75
4, 31431, Note_on_c, 1, 60, 0
4, 31431, Note_on_c, 1, 53, 0
4, 31536, Note_on_c, 1, 58, 75
4, 31556, Note_on_c, 1, 58, 0
4, 31584, Note_on_c, 1, 46, 75
4, 31677, Note_on_c, 1, 46, 0
4, 31680, Note_on_c, 1, 46, 4
4, 31769, Note_on_c, 1, 46, 0
4, 31776, End_track
5, 0, Start_track
5, 0, Program_c, 1, 0
5, 0, Control_c, 1, 7, 127
5, 0, Control_c, 1, 10, 64
5, 5952, Note_on_c, 1, 53, 64
5, 6129, Note_on_c, 1, 53, 0
5, 10176, Note_on_c, 1, 53, 64
5, 10353, Note_on_c, 1, 53, 0
5, 18240, Note_on_c, 1, 58, 75
5, 18329, Note_on_c, 1, 58, 0
5, 18336, Note_on_c, 1, 56, 73
5, 18425, Note_on_c, 1, 56, 0
5, 18432, Note_on_c, 1, 54, 72
5, 18609, Note_on_c, 1, 54, 0
5, 18624, Note_on_c, 1, 53, 80
5, 18669, Note_on_c, 1, 53, 0
5, 18672, Note_on_c, 1, 53, 121
5, 19053, Note_on_c, 1, 53, 0
5, 19056, Note_on_c, 1, 53, 121
5, 19437, Note_on_c, 1, 53, 0
5, 19440, Note_on_c, 1, 53, 121
5, 19761, Note_on_c, 1, 53, 0
5, 19776, Note_on_c, 1, 53, 80
5, 19953, Note_on_c, 1, 53, 0
5, 19968, Note_on_c, 1, 53, 75
5, 20057, Note_on_c, 1, 53, 0
5, 25920, Note_on_c, 1, 53, 75
5, 26097, Note_on_c, 1, 53, 0
5, 30144, Note_on_c, 1, 53, 75
5, 30321, Note_on_c, 1, 53, 0
5, 31680, End_track
6, 0, Start_track
6, 0, Title_t, "Sonata II   Haydn  "
6, 0, End_track
0, 0, End_of_file
