0, 0, Header, 1, 6, 96
1, 0, Start_track
1, 0, Copyright_t, "Copyright  2000 <copyright holder>"
1, 0, Text_t, "Piano Solo\015\012"
1, 0, Text_t, "<composer>\015\012"
1, 0, Sequencer_specific, 16, 68, 87, 77, 90, 86, 82, 83, 78, 32, 55, 46, 48, 46, 56, 46, 48
1, 0, Time_signature, 3, 2, 24, 8
1, 0, Tempo, 857142
1, 0, Key_signature, 3, "major"
1, 45888, Tempo, 923076
1, 45936, Tempo, 1000000
1, 45984, Tempo, 1090909
1, 46032, Tempo, 1200000
1, 46080, Tempo, 857142
1, 69216, Tempo, 923076
1, 69264, Tempo, 1000000
1, 69312, Tempo, 1090909
1, 69360, Tempo, 1200000
1, 69408, Tempo, 857142
1, 74880, End_track
2, 0, Start_track
2, 0, Program_c, 0, 0
2, 0, Control_c, 0, 7, 127
2, 0, Control_c, 0, 10, 64
2, 48, Note_on_c, 0, 76, 64
2, 68, Note_on_c, 0, 76, 0
2, 96, Note_on_c, 0, 76, 64
2, 116, Note_on_c, 0, 76, 0
2, 144, Note_on_c, 0, 76, 64
2, 164, Note_on_c, 0, 76, 0
2, 192, Note_on_c, 0, 76, 64
2, 215, Note_on_c, 0, 76, 0
2, 216, Note_on_c, 0, 78, 64
2, 239, Note_on_c, 0, 78, 0
2, 240, Note_on_c, 0, 76, 64
2, 263, Note_on_c, 0, 76, 0
2, 264, Note_on_c, 0, 74, 64
2, 287, Note_on_c, 0, 74, 0
2, 336, Note_on_c, 0, 73, 64
2, 356, Note_on_c, 0, 73, 0
2, 384, Note_on_c, 0, 73, 64
2, 404, Note_on_c, 0, 73, 0
2, 432, Note_on_c, 0, 73, 64
2, 452, Note_on_c, 0, 73, 0
2, 480, Note_on_c, 0, 73, 64
2, 503, Note_on_c, 0, 73, 0
2, 504, Note_on_c, 0, 74, 64
2, 527, Note_on_c, 0, 74, 0
2, 528, Note_on_c, 0, 73, 64
2, 551, Note_on_c, 0, 73, 0
2, 552, Note_on_c, 0, 71, 64
2, 575, Note_on_c, 0, 71, 0
2, 624, Note_on_c, 0, 69, 64
2, 644, Note_on_c, 0, 69, 0
2, 672, Note_on_c, 0, 69, 64
2, 692, Note_on_c, 0, 69, 0
2, 720, Note_on_c, 0, 69, 64
2, 740, Note_on_c, 0, 69, 0
2, 768, Note_on_c, 0, 69, 64
2, 791, Note_on_c, 0, 69, 0
2, 792, Note_on_c, 0, 71, 64
2, 815, Note_on_c, 0, 71, 0
2, 816, Note_on_c, 0, 69, 64
2, 839, Note_on_c, 0, 69, 0
2, 840, Note_on_c, 0, 68, 64
2, 863, Note_on_c, 0, 68, 0
2, 864, Note_on_c, 0, 66, 64
2, 909, Note_on_c, 0, 66, 0
2, 912, Note_on_c, 0, 71, 64
2, 957, Note_on_c, 0, 71, 0
2, 960, Note_on_c, 0, 71, 64
2, 983, Note_on_c, 0, 71, 0
2, 984, Note_on_c, 0, 73, 64
2, 1007, Note_on_c, 0, 73, 0
2, 1008, Note_on_c, 0, 74, 64
2, 1031, Note_on_c, 0, 74, 0
2, 1032, Note_on_c, 0, 73, 64
2, 1055, Note_on_c, 0, 73, 0
2, 1056, Note_on_c, 0, 76, 75
2, 1079, Note_on_c, 0, 76, 0
2, 1080, Note_on_c, 0, 74, 73
2, 1103, Note_on_c, 0, 74, 0
2, 1104, Note_on_c, 0, 73, 72
2, 1127, Note_on_c, 0, 73, 0
2, 1128, Note_on_c, 0, 71, 70
2, 1151, Note_on_c, 0, 71, 0
2, 1152, Note_on_c, 0, 69, 69
2, 1197, Note_on_c, 0, 69, 0
2, 1200, Note_on_c, 0, 76, 69
2, 1245, Note_on_c, 0, 76, 0
2, 1248, Note_on_c, 0, 76, 69
2, 1293, Note_on_c, 0, 76, 0
2, 1296, Note_on_c, 0, 76, 69
2, 1341, Note_on_c, 0, 76, 0
2, 1344, Note_on_c, 0, 76, 69
2, 1378, Note_on_c, 0, 76, 0
2, 1380, Note_on_c, 0, 74, 69
2, 1386, Note_on_c, 0, 74, 0
2, 1386, Note_on_c, 0, 76, 69
2, 1392, Note_on_c, 0, 76, 0
2, 1392, Note_on_c, 0, 78, 69
2, 1407, Note_on_c, 0, 78, 0
2, 1408, Note_on_c, 0, 76, 69
2, 1423, Note_on_c, 0, 76, 0
2, 1424, Note_on_c, 0, 74, 69
2, 1439, Note_on_c, 0, 74, 0
2, 1440, Note_on_c, 0, 73, 69
2, 1485, Note_on_c, 0, 73, 0
2, 1488, Note_on_c, 0, 73, 69
2, 1533, Note_on_c, 0, 73, 0
2, 1536, Note_on_c, 0, 73, 69
2, 1581, Note_on_c, 0, 73, 0
2, 1584, Note_on_c, 0, 73, 69
2, 1629, Note_on_c, 0, 73, 0
2, 1632, Note_on_c, 0, 73, 69
2, 1666, Note_on_c, 0, 73, 0
2, 1668, Note_on_c, 0, 71, 69
2, 1674, Note_on_c, 0, 71, 0
2, 1674, Note_on_c, 0, 73, 69
2, 1680, Note_on_c, 0, 73, 0
2, 1680, Note_on_c, 0, 74, 69
2, 1695, Note_on_c, 0, 74, 0
2, 1696, Note_on_c, 0, 73, 69
2, 1711, Note_on_c, 0, 73, 0
2, 1712, Note_on_c, 0, 71, 69
2, 1727, Note_on_c, 0, 71, 0
2, 1728, Note_on_c, 0, 69, 69
2, 1773, Note_on_c, 0, 69, 0
2, 1776, Note_on_c, 0, 69, 69
2, 1821, Note_on_c, 0, 69, 0
2, 1824, Note_on_c, 0, 69, 69
2, 1869, Note_on_c, 0, 69, 0
2, 1872, Note_on_c, 0, 69, 69
2, 1917, Note_on_c, 0, 69, 0
2, 1920, Note_on_c, 0, 69, 69
2, 1954, Note_on_c, 0, 69, 0
2, 1956, Note_on_c, 0, 67, 69
2, 1962, Note_on_c, 0, 67, 0
2, 1962, Note_on_c, 0, 69, 69
2, 1968, Note_on_c, 0, 69, 0
2, 1968, Note_on_c, 0, 71, 69
2, 1983, Note_on_c, 0, 71, 0
2, 1984, Note_on_c, 0, 69, 69
2, 1999, Note_on_c, 0, 69, 0
2, 2000, Note_on_c, 0, 67, 69
2, 2015, Note_on_c, 0, 67, 0
2, 2016, Note_on_c, 0, 66, 69
2, 2061, Note_on_c, 0, 66, 0
2, 2064, Note_on_c, 0, 71, 69
2, 2109, Note_on_c, 0, 71, 0
2, 2112, Note_on_c, 0, 71, 69
2, 2135, Note_on_c, 0, 71, 0
2, 2136, Note_on_c, 0, 73, 69
2, 2159, Note_on_c, 0, 73, 0
2, 2160, Note_on_c, 0, 74, 69
2, 2183, Note_on_c, 0, 74, 0
2, 2184, Note_on_c, 0, 73, 69
2, 2207, Note_on_c, 0, 73, 0
2, 2208, Note_on_c, 0, 76, 69
2, 2231, Note_on_c, 0, 76, 0
2, 2232, Note_on_c, 0, 74, 69
2, 2255, Note_on_c, 0, 74, 0
2, 2256, Note_on_c, 0, 73, 69
2, 2279, Note_on_c, 0, 73, 0
2, 2280, Note_on_c, 0, 71, 69
2, 2303, Note_on_c, 0, 71, 0
2, 2304, Note_on_c, 0, 69, 69
2, 2349, Note_on_c, 0, 69, 0
2, 2352, Note_on_c, 0, 64, 84
2, 2372, Note_on_c, 0, 64, 0
2, 2400, Note_on_c, 0, 64, 84
2, 2420, Note_on_c, 0, 64, 0
2, 2448, Note_on_c, 0, 64, 84
2, 2468, Note_on_c, 0, 64, 0
2, 2496, Note_on_c, 0, 64, 84
2, 2519, Note_on_c, 0, 64, 0
2, 2520, Note_on_c, 0, 66, 84
2, 2543, Note_on_c, 0, 66, 0
2, 2544, Note_on_c, 0, 64, 84
2, 2567, Note_on_c, 0, 64, 0
2, 2568, Note_on_c, 0, 62, 84
2, 2591, Note_on_c, 0, 62, 0
2, 2592, Note_on_c, 0, 61, 84
2, 2612, Note_on_c, 0, 61, 0
2, 2640, Note_on_c, 0, 61, 84
2, 2660, Note_on_c, 0, 61, 0
2, 2688, Note_on_c, 0, 61, 84
2, 2708, Note_on_c, 0, 61, 0
2, 2736, Note_on_c, 0, 61, 84
2, 2756, Note_on_c, 0, 61, 0
2, 2784, Note_on_c, 0, 61, 84
2, 2807, Note_on_c, 0, 61, 0
2, 2808, Note_on_c, 0, 62, 84
2, 2831, Note_on_c, 0, 62, 0
2, 2832, Note_on_c, 0, 61, 84
2, 2855, Note_on_c, 0, 61, 0
2, 2856, Note_on_c, 0, 59, 84
2, 2879, Note_on_c, 0, 59, 0
2, 2880, Note_on_c, 0, 57, 75
2, 3145, Note_on_c, 0, 57, 0
2, 3168, Note_on_c, 0, 57, 75
2, 3176, Note_on_c, 0, 62, 75
2, 3184, Note_on_c, 0, 66, 75
2, 3441, Note_on_c, 0, 66, 0
2, 3441, Note_on_c, 0, 62, 0
2, 3441, Note_on_c, 0, 57, 0
2, 3456, Note_on_c, 0, 57, 75
2, 3468, Note_on_c, 0, 57, 0
2, 3468, Note_on_c, 0, 64, 75
2, 3545, Note_on_c, 0, 64, 0
2, 3552, Note_on_c, 0, 69, 75
2, 3682, Note_on_c, 0, 69, 0
2, 3684, Note_on_c, 0, 68, 75
2, 3696, Note_on_c, 0, 68, 0
2, 3696, Note_on_c, 0, 66, 75
2, 3730, Note_on_c, 0, 66, 0
2, 3732, Note_on_c, 0, 64, 75
2, 3744, Note_on_c, 0, 64, 0
2, 3744, Note_on_c, 0, 64, 75
2, 3885, Note_on_c, 0, 64, 0
2, 3888, Note_on_c, 0, 66, 75
2, 3911, Note_on_c, 0, 66, 0
2, 3912, Note_on_c, 0, 64, 75
2, 3935, Note_on_c, 0, 64, 0
2, 3936, Note_on_c, 0, 64, 75
2, 3959, Note_on_c, 0, 64, 0
2, 3960, Note_on_c, 0, 62, 75
2, 3983, Note_on_c, 0, 62, 0
2, 3984, Note_on_c, 0, 61, 75
2, 4007, Note_on_c, 0, 61, 0
2, 4008, Note_on_c, 0, 62, 75
2, 4031, Note_on_c, 0, 62, 0
2, 4032, Note_on_c, 0, 62, 75
2, 4032, Note_on_c, 0, 59, 75
2, 4128, Note_on_c, 0, 62, 0
2, 4128, Note_on_c, 0, 59, 0
2, 4128, Note_on_c, 0, 61, 75
2, 4128, Note_on_c, 0, 57, 75
2, 4217, Note_on_c, 0, 61, 0
2, 4217, Note_on_c, 0, 57, 0
2, 4296, Note_on_c, 0, 61, 75
2, 4319, Note_on_c, 0, 61, 0
2, 4320, Note_on_c, 0, 61, 75
2, 4343, Note_on_c, 0, 61, 0
2, 4344, Note_on_c, 0, 59, 75
2, 4367, Note_on_c, 0, 59, 0
2, 4368, Note_on_c, 0, 56, 75
2, 4391, Note_on_c, 0, 56, 0
2, 4392, Note_on_c, 0, 52, 75
2, 4415, Note_on_c, 0, 52, 0
2, 4416, Note_on_c, 0, 57, 75
2, 4579, Note_on_c, 0, 57, 0
2, 4584, Note_on_c, 0, 61, 75
2, 4607, Note_on_c, 0, 61, 0
2, 4608, Note_on_c, 0, 61, 75
2, 4631, Note_on_c, 0, 61, 0
2, 4632, Note_on_c, 0, 59, 75
2, 4655, Note_on_c, 0, 59, 0
2, 4656, Note_on_c, 0, 56, 75
2, 4679, Note_on_c, 0, 56, 0
2, 4680, Note_on_c, 0, 52, 75
2, 4703, Note_on_c, 0, 52, 0
2, 4704, Note_on_c, 0, 57, 75
2, 4867, Note_on_c, 0, 57, 0
2, 4872, Note_on_c, 0, 61, 75
2, 4895, Note_on_c, 0, 61, 0
2, 4896, Note_on_c, 0, 61, 75
2, 4919, Note_on_c, 0, 61, 0
2, 4920, Note_on_c, 0, 59, 75
2, 4943, Note_on_c, 0, 59, 0
2, 4944, Note_on_c, 0, 56, 75
2, 4967, Note_on_c, 0, 56, 0
2, 4968, Note_on_c, 0, 52, 75
2, 4991, Note_on_c, 0, 52, 0
2, 4992, Note_on_c, 0, 59, 75
2, 5016, Note_on_c, 0, 59, 0
2, 5016, Note_on_c, 0, 57, 75
2, 5039, Note_on_c, 0, 57, 0
2, 5040, Note_on_c, 0, 52, 75
2, 5050, Note_on_c, 0, 52, 0
2, 5064, Note_on_c, 0, 61, 75
2, 5074, Note_on_c, 0, 61, 0
2, 5088, Note_on_c, 0, 61, 75
2, 5112, Note_on_c, 0, 61, 0
2, 5112, Note_on_c, 0, 59, 75
2, 5135, Note_on_c, 0, 59, 0
2, 5136, Note_on_c, 0, 52, 75
2, 5146, Note_on_c, 0, 52, 0
2, 5160, Note_on_c, 0, 62, 75
2, 5170, Note_on_c, 0, 62, 0
2, 5184, Note_on_c, 0, 62, 75
2, 5208, Note_on_c, 0, 62, 0
2, 5208, Note_on_c, 0, 61, 75
2, 5231, Note_on_c, 0, 61, 0
2, 5232, Note_on_c, 0, 52, 75
2, 5242, Note_on_c, 0, 52, 0
2, 5256, Note_on_c, 0, 64, 75
2, 5266, Note_on_c, 0, 64, 0
2, 5280, Note_on_c, 0, 64, 75
2, 5304, Note_on_c, 0, 64, 0
2, 5304, Note_on_c, 0, 62, 79
2, 5327, Note_on_c, 0, 62, 0
2, 5328, Note_on_c, 0, 62, 83
2, 5352, Note_on_c, 0, 62, 0
2, 5352, Note_on_c, 0, 61, 88
2, 5375, Note_on_c, 0, 61, 0
2, 5376, Note_on_c, 0, 61, 92
2, 5400, Note_on_c, 0, 61, 0
2, 5400, Note_on_c, 0, 59, 97
2, 5423, Note_on_c, 0, 59, 0
2, 5424, Note_on_c, 0, 59, 101
2, 5448, Note_on_c, 0, 59, 0
2, 5448, Note_on_c, 0, 57, 106
2, 5471, Note_on_c, 0, 57, 0
2, 5472, Note_on_c, 0, 57, 103
2, 5495, Note_on_c, 0, 57, 0
2, 5496, Note_on_c, 0, 56, 101
2, 5519, Note_on_c, 0, 56, 0
2, 5520, Note_on_c, 0, 59, 98
2, 5543, Note_on_c, 0, 59, 0
2, 5544, Note_on_c, 0, 56, 96
2, 5567, Note_on_c, 0, 56, 0
2, 5568, Note_on_c, 0, 52, 93
2, 5607, Note_on_c, 0, 52, 0
2, 5736, Note_on_c, 0, 59, 84
2, 5759, Note_on_c, 0, 59, 0
2, 5760, Note_on_c, 0, 59, 84
2, 5849, Note_on_c, 0, 59, 0
2, 5856, Note_on_c, 0, 47, 84
2, 5945, Note_on_c, 0, 47, 0
2, 5952, Note_on_c, 0, 52, 84
2, 6019, Note_on_c, 0, 52, 0
2, 6024, Note_on_c, 0, 56, 84
2, 6047, Note_on_c, 0, 56, 0
2, 6048, Note_on_c, 0, 53, 84
2, 6144, Note_on_c, 0, 53, 0
2, 6144, Note_on_c, 0, 54, 84
2, 6307, Note_on_c, 0, 54, 0
2, 6312, Note_on_c, 0, 61, 84
2, 6335, Note_on_c, 0, 61, 0
2, 6336, Note_on_c, 0, 61, 84
2, 6425, Note_on_c, 0, 61, 0
2, 6432, Note_on_c, 0, 49, 84
2, 6521, Note_on_c, 0, 49, 0
2, 6528, Note_on_c, 0, 54, 84
2, 6617, Note_on_c, 0, 54, 0
2, 6624, Note_on_c, 0, 52, 84
2, 6720, Note_on_c, 0, 52, 0
2, 6720, Note_on_c, 0, 51, 84
2, 6809, Note_on_c, 0, 51, 0
2, 6864, Note_on_c, 0, 59, 84
2, 6909, Note_on_c, 0, 59, 0
2, 6912, Note_on_c, 0, 58, 84
2, 6924, Note_on_c, 0, 58, 0
2, 6924, Note_on_c, 0, 59, 84
2, 6936, Note_on_c, 0, 59, 0
2, 6936, Note_on_c, 0, 61, 84
2, 6948, Note_on_c, 0, 61, 0
2, 6948, Note_on_c, 0, 59, 84
2, 7053, Note_on_c, 0, 59, 0
2, 7056, Note_on_c, 0, 61, 84
2, 7079, Note_on_c, 0, 61, 0
2, 7080, Note_on_c, 0, 59, 84
2, 7103, Note_on_c, 0, 59, 0
2, 7104, Note_on_c, 0, 59, 84
2, 7127, Note_on_c, 0, 59, 0
2, 7128, Note_on_c, 0, 57, 84
2, 7151, Note_on_c, 0, 57, 0
2, 7152, Note_on_c, 0, 56, 84
2, 7175, Note_on_c, 0, 56, 0
2, 7176, Note_on_c, 0, 57, 84
2, 7199, Note_on_c, 0, 57, 0
2, 7200, Note_on_c, 0, 57, 84
2, 7289, Note_on_c, 0, 57, 0
2, 7296, Note_on_c, 0, 56, 84
2, 7308, Note_on_c, 0, 56, 0
2, 7308, Note_on_c, 0, 54, 84
2, 7320, Note_on_c, 0, 54, 0
2, 7320, Note_on_c, 0, 56, 84
2, 7385, Note_on_c, 0, 56, 0
2, 7440, Note_on_c, 0, 59, 84
2, 7485, Note_on_c, 0, 59, 0
2, 7488, Note_on_c, 0, 58, 84
2, 7500, Note_on_c, 0, 58, 0
2, 7500, Note_on_c, 0, 59, 84
2, 7512, Note_on_c, 0, 59, 0
2, 7512, Note_on_c, 0, 61, 84
2, 7524, Note_on_c, 0, 61, 0
2, 7524, Note_on_c, 0, 59, 84
2, 7629, Note_on_c, 0, 59, 0
2, 7632, Note_on_c, 0, 57, 84
2, 7655, Note_on_c, 0, 57, 0
2, 7656, Note_on_c, 0, 56, 84
2, 7679, Note_on_c, 0, 56, 0
2, 7680, Note_on_c, 0, 56, 84
2, 7703, Note_on_c, 0, 56, 0
2, 7704, Note_on_c, 0, 54, 84
2, 7727, Note_on_c, 0, 54, 0
2, 7728, Note_on_c, 0, 52, 84
2, 7751, Note_on_c, 0, 52, 0
2, 7752, Note_on_c, 0, 51, 84
2, 7775, Note_on_c, 0, 51, 0
2, 7776, Note_on_c, 0, 51, 84
2, 7872, Note_on_c, 0, 51, 0
2, 7872, Note_on_c, 0, 52, 84
2, 7961, Note_on_c, 0, 52, 0
2, 8016, Note_on_c, 0, 59, 84
2, 8061, Note_on_c, 0, 59, 0
2, 8064, Note_on_c, 0, 58, 84
2, 8087, Note_on_c, 0, 58, 0
2, 8088, Note_on_c, 0, 59, 84
2, 8111, Note_on_c, 0, 59, 0
2, 8112, Note_on_c, 0, 61, 84
2, 8135, Note_on_c, 0, 61, 0
2, 8136, Note_on_c, 0, 59, 84
2, 8159, Note_on_c, 0, 59, 0
2, 8160, Note_on_c, 0, 59, 84
2, 8170, Note_on_c, 0, 59, 0
2, 8184, Note_on_c, 0, 59, 84
2, 8194, Note_on_c, 0, 59, 0
2, 8208, Note_on_c, 0, 61, 84
2, 8232, Note_on_c, 0, 61, 0
2, 8232, Note_on_c, 0, 59, 84
2, 8255, Note_on_c, 0, 59, 0
2, 8256, Note_on_c, 0, 59, 84
2, 8279, Note_on_c, 0, 59, 0
2, 8280, Note_on_c, 0, 57, 84
2, 8303, Note_on_c, 0, 57, 0
2, 8304, Note_on_c, 0, 56, 84
2, 8327, Note_on_c, 0, 56, 0
2, 8328, Note_on_c, 0, 57, 84
2, 8351, Note_on_c, 0, 57, 0
2, 8352, Note_on_c, 0, 57, 84
2, 8441, Note_on_c, 0, 57, 0
2, 8448, Note_on_c, 0, 56, 84
2, 8460, Note_on_c, 0, 56, 0
2, 8460, Note_on_c, 0, 54, 84
2, 8472, Note_on_c, 0, 54, 0
2, 8472, Note_on_c, 0, 56, 84
2, 8537, Note_on_c, 0, 56, 0
2, 8592, Note_on_c, 0, 59, 84
2, 8637, Note_on_c, 0, 59, 0
2, 8640, Note_on_c, 0, 58, 84
2, 8663, Note_on_c, 0, 58, 0
2, 8664, Note_on_c, 0, 59, 84
2, 8687, Note_on_c, 0, 59, 0
2, 8688, Note_on_c, 0, 61, 84
2, 8711, Note_on_c, 0, 61, 0
2, 8712, Note_on_c, 0, 59, 84
2, 8735, Note_on_c, 0, 59, 0
2, 8736, Note_on_c, 0, 61, 84
2, 8759, Note_on_c, 0, 61, 0
2, 8760, Note_on_c, 0, 59, 84
2, 8783, Note_on_c, 0, 59, 0
2, 8784, Note_on_c, 0, 57, 84
2, 8807, Note_on_c, 0, 57, 0
2, 8808, Note_on_c, 0, 56, 84
2, 8831, Note_on_c, 0, 56, 0
2, 8832, Note_on_c, 0, 56, 84
2, 8855, Note_on_c, 0, 56, 0
2, 8856, Note_on_c, 0, 54, 84
2, 8879, Note_on_c, 0, 54, 0
2, 8880, Note_on_c, 0, 52, 84
2, 8903, Note_on_c, 0, 52, 0
2, 8904, Note_on_c, 0, 51, 84
2, 8927, Note_on_c, 0, 51, 0
2, 8928, Note_on_c, 0, 51, 84
2, 9024, Note_on_c, 0, 51, 0
2, 9024, Note_on_c, 0, 52, 75
2, 9069, Note_on_c, 0, 52, 0
2, 9072, Note_on_c, 0, 47, 92
2, 9120, Note_on_c, 0, 47, 0
2, 9120, Note_on_c, 0, 47, 94
2, 9168, Note_on_c, 0, 47, 0
2, 9168, Note_on_c, 0, 48, 95
2, 9216, Note_on_c, 0, 48, 0
2, 9216, Note_on_c, 0, 49, 97
2, 9346, Note_on_c, 0, 49, 0
2, 9348, Note_on_c, 0, 54, 88
2, 9360, Note_on_c, 0, 54, 0
2, 9360, Note_on_c, 0, 53, 89
2, 9394, Note_on_c, 0, 53, 0
2, 9396, Note_on_c, 0, 56, 93
2, 9408, Note_on_c, 0, 56, 0
2, 9408, Note_on_c, 0, 54, 95
2, 9442, Note_on_c, 0, 54, 0
2, 9444, Note_on_c, 0, 57, 99
2, 9456, Note_on_c, 0, 57, 0
2, 9456, Note_on_c, 0, 56, 100
2, 9490, Note_on_c, 0, 56, 0
2, 9492, Note_on_c, 0, 59, 104
2, 9504, Note_on_c, 0, 59, 0
2, 9504, Note_on_c, 0, 57, 84
2, 9538, Note_on_c, 0, 57, 0
2, 9540, Note_on_c, 0, 61, 82
2, 9552, Note_on_c, 0, 61, 0
2, 9552, Note_on_c, 0, 56, 81
2, 9586, Note_on_c, 0, 56, 0
2, 9588, Note_on_c, 0, 59, 79
2, 9600, Note_on_c, 0, 59, 0
2, 9600, Note_on_c, 0, 54, 79
2, 9634, Note_on_c, 0, 54, 0
2, 9636, Note_on_c, 0, 57, 77
2, 9648, Note_on_c, 0, 57, 0
2, 9648, Note_on_c, 0, 53, 76
2, 9682, Note_on_c, 0, 53, 0
2, 9684, Note_on_c, 0, 56, 74
2, 9696, Note_on_c, 0, 56, 0
2, 9696, Note_on_c, 0, 54, 74
2, 9730, Note_on_c, 0, 54, 0
2, 9732, Note_on_c, 0, 57, 72
2, 9744, Note_on_c, 0, 57, 0
2, 9744, Note_on_c, 0, 49, 71
2, 9778, Note_on_c, 0, 49, 0
2, 9780, Note_on_c, 0, 54, 69
2, 9792, Note_on_c, 0, 54, 0
2, 9792, Note_on_c, 0, 47, 84
2, 9922, Note_on_c, 0, 47, 0
2, 9924, Note_on_c, 0, 52, 88
2, 9936, Note_on_c, 0, 52, 0
2, 9936, Note_on_c, 0, 51, 89
2, 9970, Note_on_c, 0, 51, 0
2, 9972, Note_on_c, 0, 54, 93
2, 9984, Note_on_c, 0, 54, 0
2, 9984, Note_on_c, 0, 52, 95
2, 10018, Note_on_c, 0, 52, 0
2, 10020, Note_on_c, 0, 56, 99
2, 10032, Note_on_c, 0, 56, 0
2, 10032, Note_on_c, 0, 54, 100
2, 10066, Note_on_c, 0, 54, 0
2, 10068, Note_on_c, 0, 57, 104
2, 10080, Note_on_c, 0, 57, 0
2, 10080, Note_on_c, 0, 56, 84
2, 10114, Note_on_c, 0, 56, 0
2, 10116, Note_on_c, 0, 59, 82
2, 10128, Note_on_c, 0, 59, 0
2, 10128, Note_on_c, 0, 54, 82
2, 10162, Note_on_c, 0, 54, 0
2, 10164, Note_on_c, 0, 57, 80
2, 10176, Note_on_c, 0, 57, 0
2, 10176, Note_on_c, 0, 52, 80
2, 10210, Note_on_c, 0, 52, 0
2, 10212, Note_on_c, 0, 56, 78
2, 10224, Note_on_c, 0, 56, 0
2, 10224, Note_on_c, 0, 51, 78
2, 10258, Note_on_c, 0, 51, 0
2, 10260, Note_on_c, 0, 54, 76
2, 10272, Note_on_c, 0, 54, 0
2, 10272, Note_on_c, 0, 52, 76
2, 10306, Note_on_c, 0, 52, 0
2, 10308, Note_on_c, 0, 56, 75
2, 10320, Note_on_c, 0, 56, 0
2, 10320, Note_on_c, 0, 47, 74
2, 10354, Note_on_c, 0, 47, 0
2, 10356, Note_on_c, 0, 52, 73
2, 10368, Note_on_c, 0, 52, 0
2, 10368, Note_on_c, 0, 45, 72
2, 10457, Note_on_c, 0, 45, 0
2, 10464, Note_on_c, 0, 57, 75
2, 10464, Note_on_c, 0, 51, 75
2, 10560, Note_on_c, 0, 57, 0
2, 10560, Note_on_c, 0, 51, 0
2, 10560, Note_on_c, 0, 56, 75
2, 10560, Note_on_c, 0, 52, 75
2, 10649, Note_on_c, 0, 56, 0
2, 10649, Note_on_c, 0, 52, 0
2, 10656, Note_on_c, 0, 51, 75
2, 10656, Note_on_c, 0, 45, 75
2, 10701, Note_on_c, 0, 51, 0
2, 10701, Note_on_c, 0, 45, 0
2, 10752, Note_on_c, 0, 57, 75
2, 10752, Note_on_c, 0, 51, 75
2, 10848, Note_on_c, 0, 57, 0
2, 10848, Note_on_c, 0, 51, 0
2, 10848, Note_on_c, 0, 56, 75
2, 10848, Note_on_c, 0, 52, 75
2, 10937, Note_on_c, 0, 56, 0
2, 10937, Note_on_c, 0, 52, 0
2, 10992, Note_on_c, 0, 49, 75
2, 11012, Note_on_c, 0, 49, 0
2, 11040, Note_on_c, 0, 54, 75
2, 11060, Note_on_c, 0, 54, 0
2, 11088, Note_on_c, 0, 57, 75
2, 11108, Note_on_c, 0, 57, 0
2, 11136, Note_on_c, 0, 61, 75
2, 11156, Note_on_c, 0, 61, 0
2, 11184, Note_on_c, 0, 61, 75
2, 11204, Note_on_c, 0, 61, 0
2, 11232, Note_on_c, 0, 61, 75
2, 11351, Note_on_c, 0, 61, 0
2, 11352, Note_on_c, 0, 59, 75
2, 11375, Note_on_c, 0, 59, 0
2, 11376, Note_on_c, 0, 57, 75
2, 11399, Note_on_c, 0, 57, 0
2, 11400, Note_on_c, 0, 56, 75
2, 11423, Note_on_c, 0, 56, 0
2, 11424, Note_on_c, 0, 56, 75
2, 11447, Note_on_c, 0, 56, 0
2, 11448, Note_on_c, 0, 54, 75
2, 11471, Note_on_c, 0, 54, 0
2, 11472, Note_on_c, 0, 52, 75
2, 11495, Note_on_c, 0, 52, 0
2, 11496, Note_on_c, 0, 51, 75
2, 11519, Note_on_c, 0, 51, 0
2, 11520, Note_on_c, 0, 52, 75
2, 11565, Note_on_c, 0, 52, 0
2, 11568, Note_on_c, 0, 83, 61
2, 11588, Note_on_c, 0, 83, 0
2, 11616, Note_on_c, 0, 83, 61
2, 11636, Note_on_c, 0, 83, 0
2, 11664, Note_on_c, 0, 83, 61
2, 11684, Note_on_c, 0, 83, 0
2, 11712, Note_on_c, 0, 83, 61
2, 11735, Note_on_c, 0, 83, 0
2, 11736, Note_on_c, 0, 85, 61
2, 11759, Note_on_c, 0, 85, 0
2, 11760, Note_on_c, 0, 83, 61
2, 11783, Note_on_c, 0, 83, 0
2, 11784, Note_on_c, 0, 81, 61
2, 11807, Note_on_c, 0, 81, 0
2, 11808, Note_on_c, 0, 80, 61
2, 11853, Note_on_c, 0, 80, 0
2, 11856, Note_on_c, 0, 59, 75
2, 11901, Note_on_c, 0, 59, 0
2, 11904, Note_on_c, 0, 59, 75
2, 11927, Note_on_c, 0, 59, 0
2, 11928, Note_on_c, 0, 57, 75
2, 11951, Note_on_c, 0, 57, 0
2, 11952, Note_on_c, 0, 56, 75
2, 11975, Note_on_c, 0, 56, 0
2, 11976, Note_on_c, 0, 57, 75
2, 11999, Note_on_c, 0, 57, 0
2, 12000, Note_on_c, 0, 59, 75
2, 12023, Note_on_c, 0, 59, 0
2, 12024, Note_on_c, 0, 61, 75
2, 12047, Note_on_c, 0, 61, 0
2, 12048, Note_on_c, 0, 63, 75
2, 12071, Note_on_c, 0, 63, 0
2, 12072, Note_on_c, 0, 64, 75
2, 12095, Note_on_c, 0, 64, 0
2, 12096, Note_on_c, 0, 63, 75
2, 12119, Note_on_c, 0, 63, 0
2, 12120, Note_on_c, 0, 61, 75
2, 12143, Note_on_c, 0, 61, 0
2, 12144, Note_on_c, 0, 59, 75
2, 12167, Note_on_c, 0, 59, 0
2, 12168, Note_on_c, 0, 57, 75
2, 12191, Note_on_c, 0, 57, 0
2, 12192, Note_on_c, 0, 57, 75
2, 12215, Note_on_c, 0, 57, 0
2, 12216, Note_on_c, 0, 56, 75
2, 12239, Note_on_c, 0, 56, 0
2, 12240, Note_on_c, 0, 59, 75
2, 12263, Note_on_c, 0, 59, 0
2, 12264, Note_on_c, 0, 52, 75
2, 12287, Note_on_c, 0, 52, 0
2, 12288, Note_on_c, 0, 56, 75
2, 12311, Note_on_c, 0, 56, 0
2, 12312, Note_on_c, 0, 54, 75
2, 12335, Note_on_c, 0, 54, 0
2, 12336, Note_on_c, 0, 52, 75
2, 12359, Note_on_c, 0, 52, 0
2, 12360, Note_on_c, 0, 51, 75
2, 12383, Note_on_c, 0, 51, 0
2, 12384, Note_on_c, 0, 52, 75
2, 12429, Note_on_c, 0, 52, 0
2, 12432, Note_on_c, 0, 83, 61
2, 12477, Note_on_c, 0, 83, 0
2, 12480, Note_on_c, 0, 83, 61
2, 12525, Note_on_c, 0, 83, 0
2, 12528, Note_on_c, 0, 83, 61
2, 12573, Note_on_c, 0, 83, 0
2, 12576, Note_on_c, 0, 83, 61
2, 12610, Note_on_c, 0, 83, 0
2, 12612, Note_on_c, 0, 81, 61
2, 12618, Note_on_c, 0, 81, 0
2, 12618, Note_on_c, 0, 83, 61
2, 12624, Note_on_c, 0, 83, 0
2, 12624, Note_on_c, 0, 85, 61
2, 12639, Note_on_c, 0, 85, 0
2, 12640, Note_on_c, 0, 83, 61
2, 12655, Note_on_c, 0, 83, 0
2, 12656, Note_on_c, 0, 81, 61
2, 12671, Note_on_c, 0, 81, 0
2, 12672, Note_on_c, 0, 80, 61
2, 12717, Note_on_c, 0, 80, 0
2, 12720, Note_on_c, 0, 59, 75
2, 12730, Note_on_c, 0, 59, 0
2, 12744, Note_on_c, 0, 61, 75
2, 12754, Note_on_c, 0, 61, 0
2, 12768, Note_on_c, 0, 59, 75
2, 12778, Note_on_c, 0, 59, 0
2, 12792, Note_on_c, 0, 57, 75
2, 12802, Note_on_c, 0, 57, 0
2, 12816, Note_on_c, 0, 56, 75
2, 12826, Note_on_c, 0, 56, 0
2, 12840, Note_on_c, 0, 57, 75
2, 12850, Note_on_c, 0, 57, 0
2, 12864, Note_on_c, 0, 59, 75
2, 12874, Note_on_c, 0, 59, 0
2, 12888, Note_on_c, 0, 61, 75
2, 12898, Note_on_c, 0, 61, 0
2, 12912, Note_on_c, 0, 63, 75
2, 12922, Note_on_c, 0, 63, 0
2, 12936, Note_on_c, 0, 64, 75
2, 12946, Note_on_c, 0, 64, 0
2, 12960, Note_on_c, 0, 63, 75
2, 12984, Note_on_c, 0, 63, 0
2, 12984, Note_on_c, 0, 61, 75
2, 13007, Note_on_c, 0, 61, 0
2, 13008, Note_on_c, 0, 59, 75
2, 13018, Note_on_c, 0, 59, 0
2, 13032, Note_on_c, 0, 57, 75
2, 13042, Note_on_c, 0, 57, 0
2, 13056, Note_on_c, 0, 57, 75
2, 13080, Note_on_c, 0, 57, 0
2, 13080, Note_on_c, 0, 56, 75
2, 13103, Note_on_c, 0, 56, 0
2, 13104, Note_on_c, 0, 59, 75
2, 13114, Note_on_c, 0, 59, 0
2, 13128, Note_on_c, 0, 52, 75
2, 13138, Note_on_c, 0, 52, 0
2, 13152, Note_on_c, 0, 56, 75
2, 13176, Note_on_c, 0, 56, 0
2, 13176, Note_on_c, 0, 54, 75
2, 13199, Note_on_c, 0, 54, 0
2, 13200, Note_on_c, 0, 52, 75
2, 13210, Note_on_c, 0, 52, 0
2, 13224, Note_on_c, 0, 51, 75
2, 13234, Note_on_c, 0, 51, 0
2, 13248, Note_on_c, 0, 52, 75
2, 13337, Note_on_c, 0, 52, 0
2, 13392, Note_on_c, 0, 59, 75
2, 13392, Note_on_c, 0, 56, 75
2, 13426, Note_on_c, 0, 59, 0
2, 13426, Note_on_c, 0, 56, 0
2, 13428, Note_on_c, 0, 61, 75
2, 13428, Note_on_c, 0, 57, 75
2, 13440, Note_on_c, 0, 61, 0
2, 13440, Note_on_c, 0, 57, 0
2, 13440, Note_on_c, 0, 59, 75
2, 13440, Note_on_c, 0, 56, 75
2, 13460, Note_on_c, 0, 59, 0
2, 13460, Note_on_c, 0, 56, 0
2, 13488, Note_on_c, 0, 57, 75
2, 13488, Note_on_c, 0, 54, 75
2, 13508, Note_on_c, 0, 57, 0
2, 13508, Note_on_c, 0, 54, 0
2, 13536, Note_on_c, 0, 57, 75
2, 13536, Note_on_c, 0, 54, 75
2, 13632, Note_on_c, 0, 57, 0
2, 13632, Note_on_c, 0, 54, 0
2, 13632, Note_on_c, 0, 56, 75
2, 13632, Note_on_c, 0, 52, 75
2, 13677, Note_on_c, 0, 56, 0
2, 13677, Note_on_c, 0, 52, 0
2, 13680, Note_on_c, 0, 59, 75
2, 13680, Note_on_c, 0, 56, 75
2, 13714, Note_on_c, 0, 59, 0
2, 13714, Note_on_c, 0, 56, 0
2, 13716, Note_on_c, 0, 61, 75
2, 13716, Note_on_c, 0, 57, 75
2, 13728, Note_on_c, 0, 61, 0
2, 13728, Note_on_c, 0, 57, 0
2, 13728, Note_on_c, 0, 59, 75
2, 13728, Note_on_c, 0, 56, 75
2, 13748, Note_on_c, 0, 59, 0
2, 13748, Note_on_c, 0, 56, 0
2, 13776, Note_on_c, 0, 63, 75
2, 13776, Note_on_c, 0, 54, 75
2, 13796, Note_on_c, 0, 63, 0
2, 13796, Note_on_c, 0, 54, 0
2, 13824, Note_on_c, 0, 63, 75
2, 13824, Note_on_c, 0, 54, 75
2, 13920, Note_on_c, 0, 63, 0
2, 13920, Note_on_c, 0, 54, 0
2, 13920, Note_on_c, 0, 64, 75
2, 13920, Note_on_c, 0, 52, 75
2, 14009, Note_on_c, 0, 64, 0
2, 14009, Note_on_c, 0, 52, 0
2, 14160, Note_on_c, 0, 76, 64
2, 14180, Note_on_c, 0, 76, 0
2, 14208, Note_on_c, 0, 76, 64
2, 14228, Note_on_c, 0, 76, 0
2, 14256, Note_on_c, 0, 76, 64
2, 14276, Note_on_c, 0, 76, 0
2, 14304, Note_on_c, 0, 76, 64
2, 14327, Note_on_c, 0, 76, 0
2, 14328, Note_on_c, 0, 78, 64
2, 14351, Note_on_c, 0, 78, 0
2, 14352, Note_on_c, 0, 76, 64
2, 14375, Note_on_c, 0, 76, 0
2, 14376, Note_on_c, 0, 74, 64
2, 14399, Note_on_c, 0, 74, 0
2, 14448, Note_on_c, 0, 73, 64
2, 14468, Note_on_c, 0, 73, 0
2, 14496, Note_on_c, 0, 73, 64
2, 14516, Note_on_c, 0, 73, 0
2, 14544, Note_on_c, 0, 73, 64
2, 14564, Note_on_c, 0, 73, 0
2, 14592, Note_on_c, 0, 73, 64
2, 14615, Note_on_c, 0, 73, 0
2, 14616, Note_on_c, 0, 74, 64
2, 14639, Note_on_c, 0, 74, 0
2, 14640, Note_on_c, 0, 73, 64
2, 14663, Note_on_c, 0, 73, 0
2, 14664, Note_on_c, 0, 71, 64
2, 14687, Note_on_c, 0, 71, 0
2, 14736, Note_on_c, 0, 69, 64
2, 14756, Note_on_c, 0, 69, 0
2, 14784, Note_on_c, 0, 69, 64
2, 14804, Note_on_c, 0, 69, 0
2, 14832, Note_on_c, 0, 69, 64
2, 14852, Note_on_c, 0, 69, 0
2, 14880, Note_on_c, 0, 69, 64
2, 14903, Note_on_c, 0, 69, 0
2, 14904, Note_on_c, 0, 71, 64
2, 14927, Note_on_c, 0, 71, 0
2, 14928, Note_on_c, 0, 69, 64
2, 14951, Note_on_c, 0, 69, 0
2, 14952, Note_on_c, 0, 68, 64
2, 14975, Note_on_c, 0, 68, 0
2, 14976, Note_on_c, 0, 66, 64
2, 15021, Note_on_c, 0, 66, 0
2, 15024, Note_on_c, 0, 71, 64
2, 15069, Note_on_c, 0, 71, 0
2, 15072, Note_on_c, 0, 71, 64
2, 15095, Note_on_c, 0, 71, 0
2, 15096, Note_on_c, 0, 73, 64
2, 15119, Note_on_c, 0, 73, 0
2, 15120, Note_on_c, 0, 74, 64
2, 15143, Note_on_c, 0, 74, 0
2, 15144, Note_on_c, 0, 73, 64
2, 15167, Note_on_c, 0, 73, 0
2, 15168, Note_on_c, 0, 76, 75
2, 15191, Note_on_c, 0, 76, 0
2, 15192, Note_on_c, 0, 74, 73
2, 15215, Note_on_c, 0, 74, 0
2, 15216, Note_on_c, 0, 73, 72
2, 15239, Note_on_c, 0, 73, 0
2, 15240, Note_on_c, 0, 71, 70
2, 15263, Note_on_c, 0, 71, 0
2, 15264, Note_on_c, 0, 69, 69
2, 15309, Note_on_c, 0, 69, 0
2, 15312, Note_on_c, 0, 76, 69
2, 15357, Note_on_c, 0, 76, 0
2, 15360, Note_on_c, 0, 76, 69
2, 15405, Note_on_c, 0, 76, 0
2, 15408, Note_on_c, 0, 76, 69
2, 15453, Note_on_c, 0, 76, 0
2, 15456, Note_on_c, 0, 76, 69
2, 15490, Note_on_c, 0, 76, 0
2, 15492, Note_on_c, 0, 74, 69
2, 15498, Note_on_c, 0, 74, 0
2, 15498, Note_on_c, 0, 76, 69
2, 15504, Note_on_c, 0, 76, 0
2, 15504, Note_on_c, 0, 78, 69
2, 15519, Note_on_c, 0, 78, 0
2, 15520, Note_on_c, 0, 76, 69
2, 15535, Note_on_c, 0, 76, 0
2, 15536, Note_on_c, 0, 74, 69
2, 15551, Note_on_c, 0, 74, 0
2, 15552, Note_on_c, 0, 73, 69
2, 15597, Note_on_c, 0, 73, 0
2, 15600, Note_on_c, 0, 73, 69
2, 15645, Note_on_c, 0, 73, 0
2, 15648, Note_on_c, 0, 73, 69
2, 15693, Note_on_c, 0, 73, 0
2, 15696, Note_on_c, 0, 73, 69
2, 15741, Note_on_c, 0, 73, 0
2, 15744, Note_on_c, 0, 73, 69
2, 15778, Note_on_c, 0, 73, 0
2, 15780, Note_on_c, 0, 71, 69
2, 15786, Note_on_c, 0, 71, 0
2, 15786, Note_on_c, 0, 73, 69
2, 15792, Note_on_c, 0, 73, 0
2, 15792, Note_on_c, 0, 74, 69
2, 15807, Note_on_c, 0, 74, 0
2, 15808, Note_on_c, 0, 73, 69
2, 15823, Note_on_c, 0, 73, 0
2, 15824, Note_on_c, 0, 71, 69
2, 15839, Note_on_c, 0, 71, 0
2, 15840, Note_on_c, 0, 69, 69
2, 15885, Note_on_c, 0, 69, 0
2, 15888, Note_on_c, 0, 69, 69
2, 15933, Note_on_c, 0, 69, 0
2, 15936, Note_on_c, 0, 69, 69
2, 15981, Note_on_c, 0, 69, 0
2, 15984, Note_on_c, 0, 69, 69
2, 16029, Note_on_c, 0, 69, 0
2, 16032, Note_on_c, 0, 69, 69
2, 16066, Note_on_c, 0, 69, 0
2, 16068, Note_on_c, 0, 67, 69
2, 16074, Note_on_c, 0, 67, 0
2, 16074, Note_on_c, 0, 69, 69
2, 16080, Note_on_c, 0, 69, 0
2, 16080, Note_on_c, 0, 71, 69
2, 16095, Note_on_c, 0, 71, 0
2, 16096, Note_on_c, 0, 69, 69
2, 16111, Note_on_c, 0, 69, 0
2, 16112, Note_on_c, 0, 67, 69
2, 16127, Note_on_c, 0, 67, 0
2, 16128, Note_on_c, 0, 66, 69
2, 16173, Note_on_c, 0, 66, 0
2, 16176, Note_on_c, 0, 71, 69
2, 16221, Note_on_c, 0, 71, 0
2, 16224, Note_on_c, 0, 71, 69
2, 16247, Note_on_c, 0, 71, 0
2, 16248, Note_on_c, 0, 73, 69
2, 16271, Note_on_c, 0, 73, 0
2, 16272, Note_on_c, 0, 74, 69
2, 16295, Note_on_c, 0, 74, 0
2, 16296, Note_on_c, 0, 73, 69
2, 16319, Note_on_c, 0, 73, 0
2, 16320, Note_on_c, 0, 76, 69
2, 16343, Note_on_c, 0, 76, 0
2, 16344, Note_on_c, 0, 74, 69
2, 16367, Note_on_c, 0, 74, 0
2, 16368, Note_on_c, 0, 73, 69
2, 16391, Note_on_c, 0, 73, 0
2, 16392, Note_on_c, 0, 71, 69
2, 16415, Note_on_c, 0, 71, 0
2, 16416, Note_on_c, 0, 69, 69
2, 16461, Note_on_c, 0, 69, 0
2, 16464, Note_on_c, 0, 64, 84
2, 16484, Note_on_c, 0, 64, 0
2, 16512, Note_on_c, 0, 64, 84
2, 16532, Note_on_c, 0, 64, 0
2, 16560, Note_on_c, 0, 64, 84
2, 16580, Note_on_c, 0, 64, 0
2, 16608, Note_on_c, 0, 64, 84
2, 16631, Note_on_c, 0, 64, 0
2, 16632, Note_on_c, 0, 66, 84
2, 16655, Note_on_c, 0, 66, 0
2, 16656, Note_on_c, 0, 64, 84
2, 16679, Note_on_c, 0, 64, 0
2, 16680, Note_on_c, 0, 62, 84
2, 16703, Note_on_c, 0, 62, 0
2, 16704, Note_on_c, 0, 61, 84
2, 16724, Note_on_c, 0, 61, 0
2, 16752, Note_on_c, 0, 61, 84
2, 16772, Note_on_c, 0, 61, 0
2, 16800, Note_on_c, 0, 61, 84
2, 16820, Note_on_c, 0, 61, 0
2, 16848, Note_on_c, 0, 61, 84
2, 16868, Note_on_c, 0, 61, 0
2, 16896, Note_on_c, 0, 61, 84
2, 16919, Note_on_c, 0, 61, 0
2, 16920, Note_on_c, 0, 62, 84
2, 16943, Note_on_c, 0, 62, 0
2, 16944, Note_on_c, 0, 61, 84
2, 16967, Note_on_c, 0, 61, 0
2, 16968, Note_on_c, 0, 59, 84
2, 16991, Note_on_c, 0, 59, 0
2, 16992, Note_on_c, 0, 57, 75
2, 17257, Note_on_c, 0, 57, 0
2, 17280, Note_on_c, 0, 57, 75
2, 17288, Note_on_c, 0, 62, 75
2, 17296, Note_on_c, 0, 66, 75
2, 17553, Note_on_c, 0, 66, 0
2, 17553, Note_on_c, 0, 62, 0
2, 17553, Note_on_c, 0, 57, 0
2, 17568, Note_on_c, 0, 57, 75
2, 17580, Note_on_c, 0, 57, 0
2, 17580, Note_on_c, 0, 64, 75
2, 17657, Note_on_c, 0, 64, 0
2, 17664, Note_on_c, 0, 69, 75
2, 17794, Note_on_c, 0, 69, 0
2, 17796, Note_on_c, 0, 68, 75
2, 17808, Note_on_c, 0, 68, 0
2, 17808, Note_on_c, 0, 66, 75
2, 17842, Note_on_c, 0, 66, 0
2, 17844, Note_on_c, 0, 64, 75
2, 17856, Note_on_c, 0, 64, 0
2, 17856, Note_on_c, 0, 64, 75
2, 17997, Note_on_c, 0, 64, 0
2, 18000, Note_on_c, 0, 66, 75
2, 18023, Note_on_c, 0, 66, 0
2, 18024, Note_on_c, 0, 64, 75
2, 18047, Note_on_c, 0, 64, 0
2, 18048, Note_on_c, 0, 64, 75
2, 18071, Note_on_c, 0, 64, 0
2, 18072, Note_on_c, 0, 62, 75
2, 18095, Note_on_c, 0, 62, 0
2, 18096, Note_on_c, 0, 61, 75
2, 18119, Note_on_c, 0, 61, 0
2, 18120, Note_on_c, 0, 62, 75
2, 18143, Note_on_c, 0, 62, 0
2, 18144, Note_on_c, 0, 62, 75
2, 18144, Note_on_c, 0, 59, 75
2, 18240, Note_on_c, 0, 62, 0
2, 18240, Note_on_c, 0, 59, 0
2, 18240, Note_on_c, 0, 61, 75
2, 18240, Note_on_c, 0, 57, 75
2, 18329, Note_on_c, 0, 61, 0
2, 18329, Note_on_c, 0, 57, 0
2, 18408, Note_on_c, 0, 61, 75
2, 18431, Note_on_c, 0, 61, 0
2, 18432, Note_on_c, 0, 61, 75
2, 18455, Note_on_c, 0, 61, 0
2, 18456, Note_on_c, 0, 59, 75
2, 18479, Note_on_c, 0, 59, 0
2, 18480, Note_on_c, 0, 56, 75
2, 18503, Note_on_c, 0, 56, 0
2, 18504, Note_on_c, 0, 52, 75
2, 18527, Note_on_c, 0, 52, 0
2, 18528, Note_on_c, 0, 57, 75
2, 18691, Note_on_c, 0, 57, 0
2, 18696, Note_on_c, 0, 61, 75
2, 18719, Note_on_c, 0, 61, 0
2, 18720, Note_on_c, 0, 61, 75
2, 18743, Note_on_c, 0, 61, 0
2, 18744, Note_on_c, 0, 59, 75
2, 18767, Note_on_c, 0, 59, 0
2, 18768, Note_on_c, 0, 56, 75
2, 18791, Note_on_c, 0, 56, 0
2, 18792, Note_on_c, 0, 52, 75
2, 18815, Note_on_c, 0, 52, 0
2, 18816, Note_on_c, 0, 57, 75
2, 18979, Note_on_c, 0, 57, 0
2, 18984, Note_on_c, 0, 61, 75
2, 19007, Note_on_c, 0, 61, 0
2, 19008, Note_on_c, 0, 61, 75
2, 19031, Note_on_c, 0, 61, 0
2, 19032, Note_on_c, 0, 59, 75
2, 19055, Note_on_c, 0, 59, 0
2, 19056, Note_on_c, 0, 56, 75
2, 19079, Note_on_c, 0, 56, 0
2, 19080, Note_on_c, 0, 52, 75
2, 19103, Note_on_c, 0, 52, 0
2, 19104, Note_on_c, 0, 59, 75
2, 19128, Note_on_c, 0, 59, 0
2, 19128, Note_on_c, 0, 57, 75
2, 19151, Note_on_c, 0, 57, 0
2, 19152, Note_on_c, 0, 52, 75
2, 19162, Note_on_c, 0, 52, 0
2, 19176, Note_on_c, 0, 61, 75
2, 19186, Note_on_c, 0, 61, 0
2, 19200, Note_on_c, 0, 61, 75
2, 19224, Note_on_c, 0, 61, 0
2, 19224, Note_on_c, 0, 59, 75
2, 19247, Note_on_c, 0, 59, 0
2, 19248, Note_on_c, 0, 52, 75
2, 19258, Note_on_c, 0, 52, 0
2, 19272, Note_on_c, 0, 62, 75
2, 19282, Note_on_c, 0, 62, 0
2, 19296, Note_on_c, 0, 62, 75
2, 19320, Note_on_c, 0, 62, 0
2, 19320, Note_on_c, 0, 61, 75
2, 19343, Note_on_c, 0, 61, 0
2, 19344, Note_on_c, 0, 52, 75
2, 19354, Note_on_c, 0, 52, 0
2, 19368, Note_on_c, 0, 64, 75
2, 19378, Note_on_c, 0, 64, 0
2, 19392, Note_on_c, 0, 64, 75
2, 19416, Note_on_c, 0, 64, 0
2, 19416, Note_on_c, 0, 62, 79
2, 19439, Note_on_c, 0, 62, 0
2, 19440, Note_on_c, 0, 62, 83
2, 19464, Note_on_c, 0, 62, 0
2, 19464, Note_on_c, 0, 61, 88
2, 19487, Note_on_c, 0, 61, 0
2, 19488, Note_on_c, 0, 61, 92
2, 19512, Note_on_c, 0, 61, 0
2, 19512, Note_on_c, 0, 59, 97
2, 19535, Note_on_c, 0, 59, 0
2, 19536, Note_on_c, 0, 59, 101
2, 19560, Note_on_c, 0, 59, 0
2, 19560, Note_on_c, 0, 57, 106
2, 19583, Note_on_c, 0, 57, 0
2, 19584, Note_on_c, 0, 57, 103
2, 19607, Note_on_c, 0, 57, 0
2, 19608, Note_on_c, 0, 56, 101
2, 19631, Note_on_c, 0, 56, 0
2, 19632, Note_on_c, 0, 59, 98
2, 19655, Note_on_c, 0, 59, 0
2, 19656, Note_on_c, 0, 56, 96
2, 19679, Note_on_c, 0, 56, 0
2, 19680, Note_on_c, 0, 52, 93
2, 19719, Note_on_c, 0, 52, 0
2, 19848, Note_on_c, 0, 59, 84
2, 19871, Note_on_c, 0, 59, 0
2, 19872, Note_on_c, 0, 59, 84
2, 19961, Note_on_c, 0, 59, 0
2, 19968, Note_on_c, 0, 47, 84
2, 20057, Note_on_c, 0, 47, 0
2, 20064, Note_on_c, 0, 52, 84
2, 20131, Note_on_c, 0, 52, 0
2, 20136, Note_on_c, 0, 56, 84
2, 20159, Note_on_c, 0, 56, 0
2, 20160, Note_on_c, 0, 53, 84
2, 20256, Note_on_c, 0, 53, 0
2, 20256, Note_on_c, 0, 54, 84
2, 20419, Note_on_c, 0, 54, 0
2, 20424, Note_on_c, 0, 61, 84
2, 20447, Note_on_c, 0, 61, 0
2, 20448, Note_on_c, 0, 61, 84
2, 20537, Note_on_c, 0, 61, 0
2, 20544, Note_on_c, 0, 49, 84
2, 20633, Note_on_c, 0, 49, 0
2, 20640, Note_on_c, 0, 54, 84
2, 20729, Note_on_c, 0, 54, 0
2, 20736, Note_on_c, 0, 52, 84
2, 20832, Note_on_c, 0, 52, 0
2, 20832, Note_on_c, 0, 51, 84
2, 20921, Note_on_c, 0, 51, 0
2, 20976, Note_on_c, 0, 59, 84
2, 21021, Note_on_c, 0, 59, 0
2, 21024, Note_on_c, 0, 58, 84
2, 21036, Note_on_c, 0, 58, 0
2, 21036, Note_on_c, 0, 59, 84
2, 21048, Note_on_c, 0, 59, 0
2, 21048, Note_on_c, 0, 61, 84
2, 21060, Note_on_c, 0, 61, 0
2, 21060, Note_on_c, 0, 59, 84
2, 21165, Note_on_c, 0, 59, 0
2, 21168, Note_on_c, 0, 61, 84
2, 21191, Note_on_c, 0, 61, 0
2, 21192, Note_on_c, 0, 59, 84
2, 21215, Note_on_c, 0, 59, 0
2, 21216, Note_on_c, 0, 59, 84
2, 21239, Note_on_c, 0, 59, 0
2, 21240, Note_on_c, 0, 57, 84
2, 21263, Note_on_c, 0, 57, 0
2, 21264, Note_on_c, 0, 56, 84
2, 21287, Note_on_c, 0, 56, 0
2, 21288, Note_on_c, 0, 57, 84
2, 21311, Note_on_c, 0, 57, 0
2, 21312, Note_on_c, 0, 57, 84
2, 21401, Note_on_c, 0, 57, 0
2, 21408, Note_on_c, 0, 56, 84
2, 21420, Note_on_c, 0, 56, 0
2, 21420, Note_on_c, 0, 54, 84
2, 21432, Note_on_c, 0, 54, 0
2, 21432, Note_on_c, 0, 56, 84
2, 21497, Note_on_c, 0, 56, 0
2, 21552, Note_on_c, 0, 59, 84
2, 21597, Note_on_c, 0, 59, 0
2, 21600, Note_on_c, 0, 58, 84
2, 21612, Note_on_c, 0, 58, 0
2, 21612, Note_on_c, 0, 59, 84
2, 21624, Note_on_c, 0, 59, 0
2, 21624, Note_on_c, 0, 61, 84
2, 21636, Note_on_c, 0, 61, 0
2, 21636, Note_on_c, 0, 59, 84
2, 21741, Note_on_c, 0, 59, 0
2, 21744, Note_on_c, 0, 57, 84
2, 21767, Note_on_c, 0, 57, 0
2, 21768, Note_on_c, 0, 56, 84
2, 21791, Note_on_c, 0, 56, 0
2, 21792, Note_on_c, 0, 56, 84
2, 21815, Note_on_c, 0, 56, 0
2, 21816, Note_on_c, 0, 54, 84
2, 21839, Note_on_c, 0, 54, 0
2, 21840, Note_on_c, 0, 52, 84
2, 21863, Note_on_c, 0, 52, 0
2, 21864, Note_on_c, 0, 51, 84
2, 21887, Note_on_c, 0, 51, 0
2, 21888, Note_on_c, 0, 51, 84
2, 21984, Note_on_c, 0, 51, 0
2, 21984, Note_on_c, 0, 52, 84
2, 22073, Note_on_c, 0, 52, 0
2, 22128, Note_on_c, 0, 59, 84
2, 22173, Note_on_c, 0, 59, 0
2, 22176, Note_on_c, 0, 58, 84
2, 22199, Note_on_c, 0, 58, 0
2, 22200, Note_on_c, 0, 59, 84
2, 22223, Note_on_c, 0, 59, 0
2, 22224, Note_on_c, 0, 61, 84
2, 22247, Note_on_c, 0, 61, 0
2, 22248, Note_on_c, 0, 59, 84
2, 22271, Note_on_c, 0, 59, 0
2, 22272, Note_on_c, 0, 59, 84
2, 22282, Note_on_c, 0, 59, 0
2, 22296, Note_on_c, 0, 59, 84
2, 22306, Note_on_c, 0, 59, 0
2, 22320, Note_on_c, 0, 61, 84
2, 22344, Note_on_c, 0, 61, 0
2, 22344, Note_on_c, 0, 59, 84
2, 22367, Note_on_c, 0, 59, 0
2, 22368, Note_on_c, 0, 59, 84
2, 22391, Note_on_c, 0, 59, 0
2, 22392, Note_on_c, 0, 57, 84
2, 22415, Note_on_c, 0, 57, 0
2, 22416, Note_on_c, 0, 56, 84
2, 22439, Note_on_c, 0, 56, 0
2, 22440, Note_on_c, 0, 57, 84
2, 22463, Note_on_c, 0, 57, 0
2, 22464, Note_on_c, 0, 57, 84
2, 22553, Note_on_c, 0, 57, 0
2, 22560, Note_on_c, 0, 56, 84
2, 22572, Note_on_c, 0, 56, 0
2, 22572, Note_on_c, 0, 54, 84
2, 22584, Note_on_c, 0, 54, 0
2, 22584, Note_on_c, 0, 56, 84
2, 22649, Note_on_c, 0, 56, 0
2, 22704, Note_on_c, 0, 59, 84
2, 22749, Note_on_c, 0, 59, 0
2, 22752, Note_on_c, 0, 58, 84
2, 22775, Note_on_c, 0, 58, 0
2, 22776, Note_on_c, 0, 59, 84
2, 22799, Note_on_c, 0, 59, 0
2, 22800, Note_on_c, 0, 61, 84
2, 22823, Note_on_c, 0, 61, 0
2, 22824, Note_on_c, 0, 59, 84
2, 22847, Note_on_c, 0, 59, 0
2, 22848, Note_on_c, 0, 61, 84
2, 22871, Note_on_c, 0, 61, 0
2, 22872, Note_on_c, 0, 59, 84
2, 22895, Note_on_c, 0, 59, 0
2, 22896, Note_on_c, 0, 57, 84
2, 22919, Note_on_c, 0, 57, 0
2, 22920, Note_on_c, 0, 56, 84
2, 22943, Note_on_c, 0, 56, 0
2, 22944, Note_on_c, 0, 56, 84
2, 22967, Note_on_c, 0, 56, 0
2, 22968, Note_on_c, 0, 54, 84
2, 22991, Note_on_c, 0, 54, 0
2, 22992, Note_on_c, 0, 52, 84
2, 23015, Note_on_c, 0, 52, 0
2, 23016, Note_on_c, 0, 51, 84
2, 23039, Note_on_c, 0, 51, 0
2, 23040, Note_on_c, 0, 51, 84
2, 23136, Note_on_c, 0, 51, 0
2, 23136, Note_on_c, 0, 52, 75
2, 23181, Note_on_c, 0, 52, 0
2, 23184, Note_on_c, 0, 47, 92
2, 23232, Note_on_c, 0, 47, 0
2, 23232, Note_on_c, 0, 47, 94
2, 23280, Note_on_c, 0, 47, 0
2, 23280, Note_on_c, 0, 48, 95
2, 23328, Note_on_c, 0, 48, 0
2, 23328, Note_on_c, 0, 49, 97
2, 23458, Note_on_c, 0, 49, 0
2, 23460, Note_on_c, 0, 54, 88
2, 23472, Note_on_c, 0, 54, 0
2, 23472, Note_on_c, 0, 53, 89
2, 23506, Note_on_c, 0, 53, 0
2, 23508, Note_on_c, 0, 56, 93
2, 23520, Note_on_c, 0, 56, 0
2, 23520, Note_on_c, 0, 54, 95
2, 23554, Note_on_c, 0, 54, 0
2, 23556, Note_on_c, 0, 57, 99
2, 23568, Note_on_c, 0, 57, 0
2, 23568, Note_on_c, 0, 56, 100
2, 23602, Note_on_c, 0, 56, 0
2, 23604, Note_on_c, 0, 59, 104
2, 23616, Note_on_c, 0, 59, 0
2, 23616, Note_on_c, 0, 57, 84
2, 23650, Note_on_c, 0, 57, 0
2, 23652, Note_on_c, 0, 61, 82
2, 23664, Note_on_c, 0, 61, 0
2, 23664, Note_on_c, 0, 56, 81
2, 23698, Note_on_c, 0, 56, 0
2, 23700, Note_on_c, 0, 59, 79
2, 23712, Note_on_c, 0, 59, 0
2, 23712, Note_on_c, 0, 54, 79
2, 23746, Note_on_c, 0, 54, 0
2, 23748, Note_on_c, 0, 57, 77
2, 23760, Note_on_c, 0, 57, 0
2, 23760, Note_on_c, 0, 53, 76
2, 23794, Note_on_c, 0, 53, 0
2, 23796, Note_on_c, 0, 56, 74
2, 23808, Note_on_c, 0, 56, 0
2, 23808, Note_on_c, 0, 54, 74
2, 23842, Note_on_c, 0, 54, 0
2, 23844, Note_on_c, 0, 57, 72
2, 23856, Note_on_c, 0, 57, 0
2, 23856, Note_on_c, 0, 49, 71
2, 23890, Note_on_c, 0, 49, 0
2, 23892, Note_on_c, 0, 54, 69
2, 23904, Note_on_c, 0, 54, 0
2, 23904, Note_on_c, 0, 47, 84
2, 24034, Note_on_c, 0, 47, 0
2, 24036, Note_on_c, 0, 52, 88
2, 24048, Note_on_c, 0, 52, 0
2, 24048, Note_on_c, 0, 51, 89
2, 24082, Note_on_c, 0, 51, 0
2, 24084, Note_on_c, 0, 54, 93
2, 24096, Note_on_c, 0, 54, 0
2, 24096, Note_on_c, 0, 52, 95
2, 24130, Note_on_c, 0, 52, 0
2, 24132, Note_on_c, 0, 56, 99
2, 24144, Note_on_c, 0, 56, 0
2, 24144, Note_on_c, 0, 54, 100
2, 24178, Note_on_c, 0, 54, 0
2, 24180, Note_on_c, 0, 57, 104
2, 24192, Note_on_c, 0, 57, 0
2, 24192, Note_on_c, 0, 56, 84
2, 24226, Note_on_c, 0, 56, 0
2, 24228, Note_on_c, 0, 59, 82
2, 24240, Note_on_c, 0, 59, 0
2, 24240, Note_on_c, 0, 54, 82
2, 24274, Note_on_c, 0, 54, 0
2, 24276, Note_on_c, 0, 57, 80
2, 24288, Note_on_c, 0, 57, 0
2, 24288, Note_on_c, 0, 52, 80
2, 24322, Note_on_c, 0, 52, 0
2, 24324, Note_on_c, 0, 56, 78
2, 24336, Note_on_c, 0, 56, 0
2, 24336, Note_on_c, 0, 51, 78
2, 24370, Note_on_c, 0, 51, 0
2, 24372, Note_on_c, 0, 54, 76
2, 24384, Note_on_c, 0, 54, 0
2, 24384, Note_on_c, 0, 52, 76
2, 24418, Note_on_c, 0, 52, 0
2, 24420, Note_on_c, 0, 56, 75
2, 24432, Note_on_c, 0, 56, 0
2, 24432, Note_on_c, 0, 47, 74
2, 24466, Note_on_c, 0, 47, 0
2, 24468, Note_on_c, 0, 52, 73
2, 24480, Note_on_c, 0, 52, 0
2, 24480, Note_on_c, 0, 45, 72
2, 24569, Note_on_c, 0, 45, 0
2, 24576, Note_on_c, 0, 57, 75
2, 24576, Note_on_c, 0, 51, 75
2, 24672, Note_on_c, 0, 57, 0
2, 24672, Note_on_c, 0, 51, 0
2, 24672, Note_on_c, 0, 56, 75
2, 24672, Note_on_c, 0, 52, 75
2, 24761, Note_on_c, 0, 56, 0
2, 24761, Note_on_c, 0, 52, 0
2, 24768, Note_on_c, 0, 51, 75
2, 24768, Note_on_c, 0, 45, 75
2, 24813, Note_on_c, 0, 51, 0
2, 24813, Note_on_c, 0, 45, 0
2, 24864, Note_on_c, 0, 57, 75
2, 24864, Note_on_c, 0, 51, 75
2, 24960, Note_on_c, 0, 57, 0
2, 24960, Note_on_c, 0, 51, 0
2, 24960, Note_on_c, 0, 56, 75
2, 24960, Note_on_c, 0, 52, 75
2, 25049, Note_on_c, 0, 56, 0
2, 25049, Note_on_c, 0, 52, 0
2, 25104, Note_on_c, 0, 49, 75
2, 25124, Note_on_c, 0, 49, 0
2, 25152, Note_on_c, 0, 54, 75
2, 25172, Note_on_c, 0, 54, 0
2, 25200, Note_on_c, 0, 57, 75
2, 25220, Note_on_c, 0, 57, 0
2, 25248, Note_on_c, 0, 61, 75
2, 25268, Note_on_c, 0, 61, 0
2, 25296, Note_on_c, 0, 61, 75
2, 25316, Note_on_c, 0, 61, 0
2, 25344, Note_on_c, 0, 61, 75
2, 25463, Note_on_c, 0, 61, 0
2, 25464, Note_on_c, 0, 59, 75
2, 25487, Note_on_c, 0, 59, 0
2, 25488, Note_on_c, 0, 57, 75
2, 25511, Note_on_c, 0, 57, 0
2, 25512, Note_on_c, 0, 56, 75
2, 25535, Note_on_c, 0, 56, 0
2, 25536, Note_on_c, 0, 56, 75
2, 25559, Note_on_c, 0, 56, 0
2, 25560, Note_on_c, 0, 54, 75
2, 25583, Note_on_c, 0, 54, 0
2, 25584, Note_on_c, 0, 52, 75
2, 25607, Note_on_c, 0, 52, 0
2, 25608, Note_on_c, 0, 51, 75
2, 25631, Note_on_c, 0, 51, 0
2, 25632, Note_on_c, 0, 52, 75
2, 25677, Note_on_c, 0, 52, 0
2, 25680, Note_on_c, 0, 83, 61
2, 25700, Note_on_c, 0, 83, 0
2, 25728, Note_on_c, 0, 83, 61
2, 25748, Note_on_c, 0, 83, 0
2, 25776, Note_on_c, 0, 83, 61
2, 25796, Note_on_c, 0, 83, 0
2, 25824, Note_on_c, 0, 83, 61
2, 25847, Note_on_c, 0, 83, 0
2, 25848, Note_on_c, 0, 85, 61
2, 25871, Note_on_c, 0, 85, 0
2, 25872, Note_on_c, 0, 83, 61
2, 25895, Note_on_c, 0, 83, 0
2, 25896, Note_on_c, 0, 81, 61
2, 25919, Note_on_c, 0, 81, 0
2, 25920, Note_on_c, 0, 80, 61
2, 25965, Note_on_c, 0, 80, 0
2, 25968, Note_on_c, 0, 59, 75
2, 26013, Note_on_c, 0, 59, 0
2, 26016, Note_on_c, 0, 59, 75
2, 26039, Note_on_c, 0, 59, 0
2, 26040, Note_on_c, 0, 57, 75
2, 26063, Note_on_c, 0, 57, 0
2, 26064, Note_on_c, 0, 56, 75
2, 26087, Note_on_c, 0, 56, 0
2, 26088, Note_on_c, 0, 57, 75
2, 26111, Note_on_c, 0, 57, 0
2, 26112, Note_on_c, 0, 59, 75
2, 26135, Note_on_c, 0, 59, 0
2, 26136, Note_on_c, 0, 61, 75
2, 26159, Note_on_c, 0, 61, 0
2, 26160, Note_on_c, 0, 63, 75
2, 26183, Note_on_c, 0, 63, 0
2, 26184, Note_on_c, 0, 64, 75
2, 26207, Note_on_c, 0, 64, 0
2, 26208, Note_on_c, 0, 63, 75
2, 26231, Note_on_c, 0, 63, 0
2, 26232, Note_on_c, 0, 61, 75
2, 26255, Note_on_c, 0, 61, 0
2, 26256, Note_on_c, 0, 59, 75
2, 26279, Note_on_c, 0, 59, 0
2, 26280, Note_on_c, 0, 57, 75
2, 26303, Note_on_c, 0, 57, 0
2, 26304, Note_on_c, 0, 57, 75
2, 26327, Note_on_c, 0, 57, 0
2, 26328, Note_on_c, 0, 56, 75
2, 26351, Note_on_c, 0, 56, 0
2, 26352, Note_on_c, 0, 59, 75
2, 26375, Note_on_c, 0, 59, 0
2, 26376, Note_on_c, 0, 52, 75
2, 26399, Note_on_c, 0, 52, 0
2, 26400, Note_on_c, 0, 56, 75
2, 26423, Note_on_c, 0, 56, 0
2, 26424, Note_on_c, 0, 54, 75
2, 26447, Note_on_c, 0, 54, 0
2, 26448, Note_on_c, 0, 52, 75
2, 26471, Note_on_c, 0, 52, 0
2, 26472, Note_on_c, 0, 51, 75
2, 26495, Note_on_c, 0, 51, 0
2, 26496, Note_on_c, 0, 52, 75
2, 26541, Note_on_c, 0, 52, 0
2, 26544, Note_on_c, 0, 83, 61
2, 26589, Note_on_c, 0, 83, 0
2, 26592, Note_on_c, 0, 83, 61
2, 26637, Note_on_c, 0, 83, 0
2, 26640, Note_on_c, 0, 83, 61
2, 26685, Note_on_c, 0, 83, 0
2, 26688, Note_on_c, 0, 83, 61
2, 26722, Note_on_c, 0, 83, 0
2, 26724, Note_on_c, 0, 81, 61
2, 26730, Note_on_c, 0, 81, 0
2, 26730, Note_on_c, 0, 83, 61
2, 26736, Note_on_c, 0, 83, 0
2, 26736, Note_on_c, 0, 85, 61
2, 26751, Note_on_c, 0, 85, 0
2, 26752, Note_on_c, 0, 83, 61
2, 26767, Note_on_c, 0, 83, 0
2, 26768, Note_on_c, 0, 81, 61
2, 26783, Note_on_c, 0, 81, 0
2, 26784, Note_on_c, 0, 80, 61
2, 26829, Note_on_c, 0, 80, 0
2, 26832, Note_on_c, 0, 59, 75
2, 26842, Note_on_c, 0, 59, 0
2, 26856, Note_on_c, 0, 61, 75
2, 26866, Note_on_c, 0, 61, 0
2, 26880, Note_on_c, 0, 59, 75
2, 26890, Note_on_c, 0, 59, 0
2, 26904, Note_on_c, 0, 57, 75
2, 26914, Note_on_c, 0, 57, 0
2, 26928, Note_on_c, 0, 56, 75
2, 26938, Note_on_c, 0, 56, 0
2, 26952, Note_on_c, 0, 57, 75
2, 26962, Note_on_c, 0, 57, 0
2, 26976, Note_on_c, 0, 59, 75
2, 26986, Note_on_c, 0, 59, 0
2, 27000, Note_on_c, 0, 61, 75
2, 27010, Note_on_c, 0, 61, 0
2, 27024, Note_on_c, 0, 63, 75
2, 27034, Note_on_c, 0, 63, 0
2, 27048, Note_on_c, 0, 64, 75
2, 27058, Note_on_c, 0, 64, 0
2, 27072, Note_on_c, 0, 63, 75
2, 27096, Note_on_c, 0, 63, 0
2, 27096, Note_on_c, 0, 61, 75
2, 27119, Note_on_c, 0, 61, 0
2, 27120, Note_on_c, 0, 59, 75
2, 27130, Note_on_c, 0, 59, 0
2, 27144, Note_on_c, 0, 57, 75
2, 27154, Note_on_c, 0, 57, 0
2, 27168, Note_on_c, 0, 57, 75
2, 27192, Note_on_c, 0, 57, 0
2, 27192, Note_on_c, 0, 56, 75
2, 27215, Note_on_c, 0, 56, 0
2, 27216, Note_on_c, 0, 59, 75
2, 27226, Note_on_c, 0, 59, 0
2, 27240, Note_on_c, 0, 52, 75
2, 27250, Note_on_c, 0, 52, 0
2, 27264, Note_on_c, 0, 56, 75
2, 27288, Note_on_c, 0, 56, 0
2, 27288, Note_on_c, 0, 54, 75
2, 27311, Note_on_c, 0, 54, 0
2, 27312, Note_on_c, 0, 52, 75
2, 27322, Note_on_c, 0, 52, 0
2, 27336, Note_on_c, 0, 51, 75
2, 27346, Note_on_c, 0, 51, 0
2, 27360, Note_on_c, 0, 52, 75
2, 27449, Note_on_c, 0, 52, 0
2, 27504, Note_on_c, 0, 59, 75
2, 27504, Note_on_c, 0, 56, 75
2, 27538, Note_on_c, 0, 59, 0
2, 27538, Note_on_c, 0, 56, 0
2, 27540, Note_on_c, 0, 61, 75
2, 27540, Note_on_c, 0, 57, 75
2, 27552, Note_on_c, 0, 61, 0
2, 27552, Note_on_c, 0, 57, 0
2, 27552, Note_on_c, 0, 59, 75
2, 27552, Note_on_c, 0, 56, 75
2, 27572, Note_on_c, 0, 59, 0
2, 27572, Note_on_c, 0, 56, 0
2, 27600, Note_on_c, 0, 57, 75
2, 27600, Note_on_c, 0, 54, 75
2, 27620, Note_on_c, 0, 57, 0
2, 27620, Note_on_c, 0, 54, 0
2, 27648, Note_on_c, 0, 57, 75
2, 27648, Note_on_c, 0, 54, 75
2, 27744, Note_on_c, 0, 57, 0
2, 27744, Note_on_c, 0, 54, 0
2, 27744, Note_on_c, 0, 56, 75
2, 27744, Note_on_c, 0, 52, 75
2, 27789, Note_on_c, 0, 56, 0
2, 27789, Note_on_c, 0, 52, 0
2, 27792, Note_on_c, 0, 59, 75
2, 27792, Note_on_c, 0, 56, 75
2, 27826, Note_on_c, 0, 59, 0
2, 27826, Note_on_c, 0, 56, 0
2, 27828, Note_on_c, 0, 61, 75
2, 27828, Note_on_c, 0, 57, 75
2, 27840, Note_on_c, 0, 61, 0
2, 27840, Note_on_c, 0, 57, 0
2, 27840, Note_on_c, 0, 59, 75
2, 27840, Note_on_c, 0, 56, 75
2, 27860, Note_on_c, 0, 59, 0
2, 27860, Note_on_c, 0, 56, 0
2, 27888, Note_on_c, 0, 63, 75
2, 27888, Note_on_c, 0, 54, 75
2, 27908, Note_on_c, 0, 63, 0
2, 27908, Note_on_c, 0, 54, 0
2, 27936, Note_on_c, 0, 63, 75
2, 27936, Note_on_c, 0, 54, 75
2, 28032, Note_on_c, 0, 63, 0
2, 28032, Note_on_c, 0, 54, 0
2, 28032, Note_on_c, 0, 64, 75
2, 28032, Note_on_c, 0, 52, 75
2, 28121, Note_on_c, 0, 64, 0
2, 28121, Note_on_c, 0, 52, 0
2, 28272, Note_on_c, 0, 83, 75
2, 28292, Note_on_c, 0, 83, 0
2, 28320, Note_on_c, 0, 83, 75
2, 28340, Note_on_c, 0, 83, 0
2, 28368, Note_on_c, 0, 83, 75
2, 28388, Note_on_c, 0, 83, 0
2, 28416, Note_on_c, 0, 83, 75
2, 28439, Note_on_c, 0, 83, 0
2, 28440, Note_on_c, 0, 85, 75
2, 28463, Note_on_c, 0, 85, 0
2, 28464, Note_on_c, 0, 83, 75
2, 28487, Note_on_c, 0, 83, 0
2, 28488, Note_on_c, 0, 81, 75
2, 28511, Note_on_c, 0, 81, 0
2, 28560, Note_on_c, 0, 80, 75
2, 28580, Note_on_c, 0, 80, 0
2, 28608, Note_on_c, 0, 80, 75
2, 28628, Note_on_c, 0, 80, 0
2, 28656, Note_on_c, 0, 80, 75
2, 28676, Note_on_c, 0, 80, 0
2, 28704, Note_on_c, 0, 80, 75
2, 28727, Note_on_c, 0, 80, 0
2, 28728, Note_on_c, 0, 81, 75
2, 28751, Note_on_c, 0, 81, 0
2, 28752, Note_on_c, 0, 80, 75
2, 28775, Note_on_c, 0, 80, 0
2, 28776, Note_on_c, 0, 78, 75
2, 28799, Note_on_c, 0, 78, 0
2, 28848, Note_on_c, 0, 76, 75
2, 28868, Note_on_c, 0, 76, 0
2, 28896, Note_on_c, 0, 76, 75
2, 28916, Note_on_c, 0, 76, 0
2, 28944, Note_on_c, 0, 76, 75
2, 28964, Note_on_c, 0, 76, 0
2, 28992, Note_on_c, 0, 76, 75
2, 29015, Note_on_c, 0, 76, 0
2, 29016, Note_on_c, 0, 78, 75
2, 29039, Note_on_c, 0, 78, 0
2, 29040, Note_on_c, 0, 76, 75
2, 29063, Note_on_c, 0, 76, 0
2, 29064, Note_on_c, 0, 75, 75
2, 29087, Note_on_c, 0, 75, 0
2, 29088, Note_on_c, 0, 73, 75
2, 29133, Note_on_c, 0, 73, 0
2, 29136, Note_on_c, 0, 78, 75
2, 29181, Note_on_c, 0, 78, 0
2, 29184, Note_on_c, 0, 78, 75
2, 29207, Note_on_c, 0, 78, 0
2, 29208, Note_on_c, 0, 80, 75
2, 29231, Note_on_c, 0, 80, 0
2, 29232, Note_on_c, 0, 81, 75
2, 29255, Note_on_c, 0, 81, 0
2, 29256, Note_on_c, 0, 80, 75
2, 29279, Note_on_c, 0, 80, 0
2, 29280, Note_on_c, 0, 83, 75
2, 29303, Note_on_c, 0, 83, 0
2, 29304, Note_on_c, 0, 81, 73
2, 29327, Note_on_c, 0, 81, 0
2, 29328, Note_on_c, 0, 80, 72
2, 29351, Note_on_c, 0, 80, 0
2, 29352, Note_on_c, 0, 78, 70
2, 29375, Note_on_c, 0, 78, 0
2, 29376, Note_on_c, 0, 76, 69
2, 29421, Note_on_c, 0, 76, 0
2, 29424, Note_on_c, 0, 83, 69
2, 29469, Note_on_c, 0, 83, 0
2, 29472, Note_on_c, 0, 83, 69
2, 29517, Note_on_c, 0, 83, 0
2, 29520, Note_on_c, 0, 83, 69
2, 29565, Note_on_c, 0, 83, 0
2, 29568, Note_on_c, 0, 83, 69
2, 29602, Note_on_c, 0, 83, 0
2, 29604, Note_on_c, 0, 81, 69
2, 29610, Note_on_c, 0, 81, 0
2, 29610, Note_on_c, 0, 83, 69
2, 29616, Note_on_c, 0, 83, 0
2, 29616, Note_on_c, 0, 85, 69
2, 29631, Note_on_c, 0, 85, 0
2, 29632, Note_on_c, 0, 83, 69
2, 29647, Note_on_c, 0, 83, 0
2, 29648, Note_on_c, 0, 81, 69
2, 29663, Note_on_c, 0, 81, 0
2, 29664, Note_on_c, 0, 80, 69
2, 29709, Note_on_c, 0, 80, 0
2, 29712, Note_on_c, 0, 80, 69
2, 29757, Note_on_c, 0, 80, 0
2, 29760, Note_on_c, 0, 80, 69
2, 29805, Note_on_c, 0, 80, 0
2, 29808, Note_on_c, 0, 80, 69
2, 29853, Note_on_c, 0, 80, 0
2, 29856, Note_on_c, 0, 80, 69
2, 29890, Note_on_c, 0, 80, 0
2, 29892, Note_on_c, 0, 78, 69
2, 29898, Note_on_c, 0, 78, 0
2, 29898, Note_on_c, 0, 80, 69
2, 29904, Note_on_c, 0, 80, 0
2, 29904, Note_on_c, 0, 81, 69
2, 29919, Note_on_c, 0, 81, 0
2, 29920, Note_on_c, 0, 80, 69
2, 29935, Note_on_c, 0, 80, 0
2, 29936, Note_on_c, 0, 78, 69
2, 29951, Note_on_c, 0, 78, 0
2, 29952, Note_on_c, 0, 76, 69
2, 29997, Note_on_c, 0, 76, 0
2, 30000, Note_on_c, 0, 76, 69
2, 30045, Note_on_c, 0, 76, 0
2, 30048, Note_on_c, 0, 76, 69
2, 30093, Note_on_c, 0, 76, 0
2, 30096, Note_on_c, 0, 76, 69
2, 30141, Note_on_c, 0, 76, 0
2, 30144, Note_on_c, 0, 76, 69
2, 30178, Note_on_c, 0, 76, 0
2, 30180, Note_on_c, 0, 74, 69
2, 30186, Note_on_c, 0, 74, 0
2, 30186, Note_on_c, 0, 76, 69
2, 30192, Note_on_c, 0, 76, 0
2, 30192, Note_on_c, 0, 78, 69
2, 30207, Note_on_c, 0, 78, 0
2, 30208, Note_on_c, 0, 76, 69
2, 30223, Note_on_c, 0, 76, 0
2, 30224, Note_on_c, 0, 74, 69
2, 30239, Note_on_c, 0, 74, 0
2, 30240, Note_on_c, 0, 73, 69
2, 30285, Note_on_c, 0, 73, 0
2, 30288, Note_on_c, 0, 78, 69
2, 30333, Note_on_c, 0, 78, 0
2, 30336, Note_on_c, 0, 78, 69
2, 30359, Note_on_c, 0, 78, 0
2, 30360, Note_on_c, 0, 80, 69
2, 30383, Note_on_c, 0, 80, 0
2, 30384, Note_on_c, 0, 81, 69
2, 30407, Note_on_c, 0, 81, 0
2, 30408, Note_on_c, 0, 80, 69
2, 30431, Note_on_c, 0, 80, 0
2, 30432, Note_on_c, 0, 83, 69
2, 30455, Note_on_c, 0, 83, 0
2, 30456, Note_on_c, 0, 81, 69
2, 30479, Note_on_c, 0, 81, 0
2, 30480, Note_on_c, 0, 80, 69
2, 30503, Note_on_c, 0, 80, 0
2, 30504, Note_on_c, 0, 78, 69
2, 30527, Note_on_c, 0, 78, 0
2, 30528, Note_on_c, 0, 76, 69
2, 30617, Note_on_c, 0, 76, 0
2, 30864, Note_on_c, 0, 79, 69
2, 30864, Note_on_c, 0, 76, 69
2, 30884, Note_on_c, 0, 79, 0
2, 30884, Note_on_c, 0, 76, 0
2, 30912, Note_on_c, 0, 79, 69
2, 30912, Note_on_c, 0, 76, 69
2, 30932, Note_on_c, 0, 79, 0
2, 30932, Note_on_c, 0, 76, 0
2, 30960, Note_on_c, 0, 79, 69
2, 30960, Note_on_c, 0, 76, 69
2, 30980, Note_on_c, 0, 79, 0
2, 30980, Note_on_c, 0, 76, 0
2, 31008, Note_on_c, 0, 79, 69
2, 31008, Note_on_c, 0, 76, 69
2, 31031, Note_on_c, 0, 79, 0
2, 31031, Note_on_c, 0, 76, 0
2, 31032, Note_on_c, 0, 81, 69
2, 31032, Note_on_c, 0, 78, 69
2, 31055, Note_on_c, 0, 81, 0
2, 31055, Note_on_c, 0, 78, 0
2, 31056, Note_on_c, 0, 79, 69
2, 31056, Note_on_c, 0, 76, 69
2, 31079, Note_on_c, 0, 79, 0
2, 31079, Note_on_c, 0, 76, 0
2, 31080, Note_on_c, 0, 78, 69
2, 31080, Note_on_c, 0, 74, 69
2, 31103, Note_on_c, 0, 78, 0
2, 31103, Note_on_c, 0, 74, 0
2, 31104, Note_on_c, 0, 76, 69
2, 31437, Note_on_c, 0, 76, 0
2, 31440, Note_on_c, 0, 85, 69
2, 31485, Note_on_c, 0, 85, 0
2, 31488, Note_on_c, 0, 85, 69
2, 31533, Note_on_c, 0, 85, 0
2, 31536, Note_on_c, 0, 79, 69
2, 31581, Note_on_c, 0, 79, 0
2, 31584, Note_on_c, 0, 78, 69
2, 31590, Note_on_c, 0, 78, 0
2, 31590, Note_on_c, 0, 79, 69
2, 31596, Note_on_c, 0, 79, 0
2, 31596, Note_on_c, 0, 78, 69
2, 31631, Note_on_c, 0, 78, 0
2, 31632, Note_on_c, 0, 76, 69
2, 31677, Note_on_c, 0, 76, 0
2, 31680, Note_on_c, 0, 74, 69
2, 32013, Note_on_c, 0, 74, 0
2, 32016, Note_on_c, 0, 83, 69
2, 32061, Note_on_c, 0, 83, 0
2, 32064, Note_on_c, 0, 83, 69
2, 32109, Note_on_c, 0, 83, 0
2, 32112, Note_on_c, 0, 78, 69
2, 32157, Note_on_c, 0, 78, 0
2, 32160, Note_on_c, 0, 76, 69
2, 32166, Note_on_c, 0, 76, 0
2, 32166, Note_on_c, 0, 78, 69
2, 32172, Note_on_c, 0, 78, 0
2, 32172, Note_on_c, 0, 76, 69
2, 32207, Note_on_c, 0, 76, 0
2, 32208, Note_on_c, 0, 74, 69
2, 32253, Note_on_c, 0, 74, 0
2, 32280, Note_on_c, 0, 73, 69
2, 32303, Note_on_c, 0, 73, 0
2, 32304, Note_on_c, 0, 74, 69
2, 32310, Note_on_c, 0, 74, 0
2, 32310, Note_on_c, 0, 73, 69
2, 32316, Note_on_c, 0, 73, 0
2, 32316, Note_on_c, 0, 71, 69
2, 32322, Note_on_c, 0, 71, 0
2, 32322, Note_on_c, 0, 73, 69
2, 32349, Note_on_c, 0, 73, 0
2, 32376, Note_on_c, 0, 74, 70
2, 32399, Note_on_c, 0, 74, 0
2, 32400, Note_on_c, 0, 76, 70
2, 32406, Note_on_c, 0, 76, 0
2, 32406, Note_on_c, 0, 74, 70
2, 32412, Note_on_c, 0, 74, 0
2, 32412, Note_on_c, 0, 73, 70
2, 32418, Note_on_c, 0, 73, 0
2, 32418, Note_on_c, 0, 74, 70
2, 32445, Note_on_c, 0, 74, 0
2, 32472, Note_on_c, 0, 76, 71
2, 32495, Note_on_c, 0, 76, 0
2, 32496, Note_on_c, 0, 78, 71
2, 32502, Note_on_c, 0, 78, 0
2, 32502, Note_on_c, 0, 76, 71
2, 32508, Note_on_c, 0, 76, 0
2, 32508, Note_on_c, 0, 74, 71
2, 32514, Note_on_c, 0, 74, 0
2, 32514, Note_on_c, 0, 76, 71
2, 32567, Note_on_c, 0, 76, 0
2, 32568, Note_on_c, 0, 77, 72
2, 32591, Note_on_c, 0, 77, 0
2, 32592, Note_on_c, 0, 78, 72
2, 32615, Note_on_c, 0, 78, 0
2, 32616, Note_on_c, 0, 77, 73
2, 32639, Note_on_c, 0, 77, 0
2, 32640, Note_on_c, 0, 78, 73
2, 32663, Note_on_c, 0, 78, 0
2, 32664, Note_on_c, 0, 80, 73
2, 32687, Note_on_c, 0, 80, 0
2, 32688, Note_on_c, 0, 81, 73
2, 32711, Note_on_c, 0, 81, 0
2, 32712, Note_on_c, 0, 80, 74
2, 32735, Note_on_c, 0, 80, 0
2, 32736, Note_on_c, 0, 81, 74
2, 32781, Note_on_c, 0, 81, 0
2, 32784, Note_on_c, 0, 73, 75
2, 32829, Note_on_c, 0, 73, 0
2, 32832, Note_on_c, 0, 74, 75
2, 32840, Note_on_c, 0, 74, 0
2, 32840, Note_on_c, 0, 73, 74
2, 32848, Note_on_c, 0, 73, 0
2, 32848, Note_on_c, 0, 74, 74
2, 32856, Note_on_c, 0, 74, 0
2, 32856, Note_on_c, 0, 73, 74
2, 32864, Note_on_c, 0, 73, 0
2, 32864, Note_on_c, 0, 74, 74
2, 32872, Note_on_c, 0, 74, 0
2, 32872, Note_on_c, 0, 73, 74
2, 32880, Note_on_c, 0, 73, 0
2, 32880, Note_on_c, 0, 74, 73
2, 32888, Note_on_c, 0, 74, 0
2, 32888, Note_on_c, 0, 73, 73
2, 32896, Note_on_c, 0, 73, 0
2, 32896, Note_on_c, 0, 74, 73
2, 32904, Note_on_c, 0, 74, 0
2, 32904, Note_on_c, 0, 73, 73
2, 32912, Note_on_c, 0, 73, 0
2, 32912, Note_on_c, 0, 71, 73
2, 32920, Note_on_c, 0, 71, 0
2, 32920, Note_on_c, 0, 73, 72
2, 32928, Note_on_c, 0, 73, 0
2, 32928, Note_on_c, 0, 71, 72
2, 33017, Note_on_c, 0, 71, 0
2, 33120, Note_on_c, 0, 52, 69
2, 33379, Note_on_c, 0, 52, 0
2, 33384, Note_on_c, 0, 57, 69
2, 33407, Note_on_c, 0, 57, 0
2, 33408, Note_on_c, 0, 57, 69
2, 33497, Note_on_c, 0, 57, 0
2, 33504, Note_on_c, 0, 56, 69
2, 33667, Note_on_c, 0, 56, 0
2, 33672, Note_on_c, 0, 59, 69
2, 33695, Note_on_c, 0, 59, 0
2, 33696, Note_on_c, 0, 59, 69
2, 33785, Note_on_c, 0, 59, 0
2, 33792, Note_on_c, 0, 57, 69
2, 33955, Note_on_c, 0, 57, 0
2, 33960, Note_on_c, 0, 60, 69
2, 33983, Note_on_c, 0, 60, 0
2, 33984, Note_on_c, 0, 60, 69
2, 34073, Note_on_c, 0, 60, 0
2, 34080, Note_on_c, 0, 59, 69
2, 34169, Note_on_c, 0, 59, 0
2, 34176, Note_on_c, 0, 65, 69
2, 34176, Note_on_c, 0, 57, 69
2, 34265, Note_on_c, 0, 65, 0
2, 34265, Note_on_c, 0, 57, 0
2, 34272, Note_on_c, 0, 65, 69
2, 34361, Note_on_c, 0, 65, 0
2, 34368, Note_on_c, 0, 64, 69
2, 34457, Note_on_c, 0, 64, 0
2, 34464, Note_on_c, 0, 62, 69
2, 34553, Note_on_c, 0, 62, 0
2, 34560, Note_on_c, 0, 62, 69
2, 34737, Note_on_c, 0, 62, 0
2, 34752, Note_on_c, 0, 60, 69
2, 34761, Note_on_c, 0, 60, 0
2, 34761, Note_on_c, 0, 62, 69
2, 34770, Note_on_c, 0, 62, 0
2, 34770, Note_on_c, 0, 60, 69
2, 34779, Note_on_c, 0, 60, 0
2, 34779, Note_on_c, 0, 62, 69
2, 34788, Note_on_c, 0, 62, 0
2, 34788, Note_on_c, 0, 60, 69
2, 34797, Note_on_c, 0, 60, 0
2, 34797, Note_on_c, 0, 62, 69
2, 34806, Note_on_c, 0, 62, 0
2, 34806, Note_on_c, 0, 60, 69
2, 34815, Note_on_c, 0, 60, 0
2, 34815, Note_on_c, 0, 62, 69
2, 34824, Note_on_c, 0, 62, 0
2, 34824, Note_on_c, 0, 60, 69
2, 34832, Note_on_c, 0, 60, 0
2, 34832, Note_on_c, 0, 59, 69
2, 34840, Note_on_c, 0, 59, 0
2, 34840, Note_on_c, 0, 60, 69
2, 34848, Note_on_c, 0, 60, 0
2, 34848, Note_on_c, 0, 60, 69
2, 34944, Note_on_c, 0, 60, 0
2, 34944, Note_on_c, 0, 59, 69
2, 35033, Note_on_c, 0, 59, 0
2, 35136, Note_on_c, 0, 57, 75
2, 35401, Note_on_c, 0, 57, 0
2, 35424, Note_on_c, 0, 57, 75
2, 35432, Note_on_c, 0, 62, 75
2, 35440, Note_on_c, 0, 66, 75
2, 35697, Note_on_c, 0, 66, 0
2, 35697, Note_on_c, 0, 62, 0
2, 35697, Note_on_c, 0, 57, 0
2, 35712, Note_on_c, 0, 57, 75
2, 35724, Note_on_c, 0, 57, 0
2, 35724, Note_on_c, 0, 64, 75
2, 35801, Note_on_c, 0, 64, 0
2, 35808, Note_on_c, 0, 69, 75
2, 35938, Note_on_c, 0, 69, 0
2, 35940, Note_on_c, 0, 68, 75
2, 35952, Note_on_c, 0, 68, 0
2, 35952, Note_on_c, 0, 66, 75
2, 35986, Note_on_c, 0, 66, 0
2, 35988, Note_on_c, 0, 64, 75
2, 36000, Note_on_c, 0, 64, 0
2, 36000, Note_on_c, 0, 64, 75
2, 36141, Note_on_c, 0, 64, 0
2, 36144, Note_on_c, 0, 66, 75
2, 36167, Note_on_c, 0, 66, 0
2, 36168, Note_on_c, 0, 64, 75
2, 36191, Note_on_c, 0, 64, 0
2, 36192, Note_on_c, 0, 64, 75
2, 36215, Note_on_c, 0, 64, 0
2, 36216, Note_on_c, 0, 62, 75
2, 36239, Note_on_c, 0, 62, 0
2, 36240, Note_on_c, 0, 61, 75
2, 36263, Note_on_c, 0, 61, 0
2, 36264, Note_on_c, 0, 62, 75
2, 36287, Note_on_c, 0, 62, 0
2, 36288, Note_on_c, 0, 62, 75
2, 36288, Note_on_c, 0, 59, 75
2, 36384, Note_on_c, 0, 62, 0
2, 36384, Note_on_c, 0, 59, 0
2, 36384, Note_on_c, 0, 61, 75
2, 36384, Note_on_c, 0, 57, 75
2, 36473, Note_on_c, 0, 61, 0
2, 36473, Note_on_c, 0, 57, 0
2, 36552, Note_on_c, 0, 61, 75
2, 36575, Note_on_c, 0, 61, 0
2, 36576, Note_on_c, 0, 61, 75
2, 36599, Note_on_c, 0, 61, 0
2, 36600, Note_on_c, 0, 59, 75
2, 36623, Note_on_c, 0, 59, 0
2, 36624, Note_on_c, 0, 56, 75
2, 36647, Note_on_c, 0, 56, 0
2, 36648, Note_on_c, 0, 52, 75
2, 36671, Note_on_c, 0, 52, 0
2, 36672, Note_on_c, 0, 57, 75
2, 36835, Note_on_c, 0, 57, 0
2, 36840, Note_on_c, 0, 61, 75
2, 36863, Note_on_c, 0, 61, 0
2, 36864, Note_on_c, 0, 61, 75
2, 36887, Note_on_c, 0, 61, 0
2, 36888, Note_on_c, 0, 59, 75
2, 36911, Note_on_c, 0, 59, 0
2, 36912, Note_on_c, 0, 56, 75
2, 36935, Note_on_c, 0, 56, 0
2, 36936, Note_on_c, 0, 52, 75
2, 36959, Note_on_c, 0, 52, 0
2, 36960, Note_on_c, 0, 57, 75
2, 37123, Note_on_c, 0, 57, 0
2, 37128, Note_on_c, 0, 61, 75
2, 37151, Note_on_c, 0, 61, 0
2, 37152, Note_on_c, 0, 61, 75
2, 37176, Note_on_c, 0, 61, 0
2, 37176, Note_on_c, 0, 59, 75
2, 37199, Note_on_c, 0, 59, 0
2, 37200, Note_on_c, 0, 56, 75
2, 37210, Note_on_c, 0, 56, 0
2, 37224, Note_on_c, 0, 52, 75
2, 37234, Note_on_c, 0, 52, 0
2, 37248, Note_on_c, 0, 59, 75
2, 37272, Note_on_c, 0, 59, 0
2, 37272, Note_on_c, 0, 57, 75
2, 37295, Note_on_c, 0, 57, 0
2, 37296, Note_on_c, 0, 52, 75
2, 37306, Note_on_c, 0, 52, 0
2, 37320, Note_on_c, 0, 61, 75
2, 37330, Note_on_c, 0, 61, 0
2, 37344, Note_on_c, 0, 61, 75
2, 37368, Note_on_c, 0, 61, 0
2, 37368, Note_on_c, 0, 59, 75
2, 37391, Note_on_c, 0, 59, 0
2, 37392, Note_on_c, 0, 52, 75
2, 37402, Note_on_c, 0, 52, 0
2, 37416, Note_on_c, 0, 62, 75
2, 37426, Note_on_c, 0, 62, 0
2, 37440, Note_on_c, 0, 62, 75
2, 37464, Note_on_c, 0, 62, 0
2, 37464, Note_on_c, 0, 61, 75
2, 37487, Note_on_c, 0, 61, 0
2, 37488, Note_on_c, 0, 52, 75
2, 37498, Note_on_c, 0, 52, 0
2, 37512, Note_on_c, 0, 64, 75
2, 37522, Note_on_c, 0, 64, 0
2, 37536, Note_on_c, 0, 64, 75
2, 37560, Note_on_c, 0, 64, 0
2, 37560, Note_on_c, 0, 62, 75
2, 37583, Note_on_c, 0, 62, 0
2, 37584, Note_on_c, 0, 62, 75
2, 37608, Note_on_c, 0, 62, 0
2, 37608, Note_on_c, 0, 61, 75
2, 37631, Note_on_c, 0, 61, 0
2, 37632, Note_on_c, 0, 61, 75
2, 37656, Note_on_c, 0, 61, 0
2, 37656, Note_on_c, 0, 59, 75
2, 37679, Note_on_c, 0, 59, 0
2, 37680, Note_on_c, 0, 59, 75
2, 37704, Note_on_c, 0, 59, 0
2, 37704, Note_on_c, 0, 57, 75
2, 37727, Note_on_c, 0, 57, 0
2, 37728, Note_on_c, 0, 56, 75
2, 37752, Note_on_c, 0, 56, 0
2, 37752, Note_on_c, 0, 57, 75
2, 37775, Note_on_c, 0, 57, 0
2, 37776, Note_on_c, 0, 57, 76
2, 37800, Note_on_c, 0, 57, 0
2, 37800, Note_on_c, 0, 59, 77
2, 37823, Note_on_c, 0, 59, 0
2, 37824, Note_on_c, 0, 59, 78
2, 37848, Note_on_c, 0, 59, 0
2, 37848, Note_on_c, 0, 61, 78
2, 37871, Note_on_c, 0, 61, 0
2, 37872, Note_on_c, 0, 61, 79
2, 37896, Note_on_c, 0, 61, 0
2, 37896, Note_on_c, 0, 62, 80
2, 37919, Note_on_c, 0, 62, 0
2, 37920, Note_on_c, 0, 62, 81
2, 37944, Note_on_c, 0, 62, 0
2, 37944, Note_on_c, 0, 66, 81
2, 37967, Note_on_c, 0, 66, 0
2, 37968, Note_on_c, 0, 64, 82
2, 37992, Note_on_c, 0, 64, 0
2, 37992, Note_on_c, 0, 62, 83
2, 38015, Note_on_c, 0, 62, 0
2, 38016, Note_on_c, 0, 62, 84
2, 38039, Note_on_c, 0, 62, 0
2, 38040, Note_on_c, 0, 61, 83
2, 38063, Note_on_c, 0, 61, 0
2, 38064, Note_on_c, 0, 61, 82
2, 38087, Note_on_c, 0, 61, 0
2, 38088, Note_on_c, 0, 69, 81
2, 38111, Note_on_c, 0, 69, 0
2, 38112, Note_on_c, 0, 69, 81
2, 38231, Note_on_c, 0, 69, 0
2, 38232, Note_on_c, 0, 64, 77
2, 38255, Note_on_c, 0, 64, 0
2, 38256, Note_on_c, 0, 66, 76
2, 38279, Note_on_c, 0, 66, 0
2, 38280, Note_on_c, 0, 67, 75
2, 38303, Note_on_c, 0, 67, 0
2, 38304, Note_on_c, 0, 67, 75
2, 38327, Note_on_c, 0, 67, 0
2, 38328, Note_on_c, 0, 66, 75
2, 38351, Note_on_c, 0, 66, 0
2, 38352, Note_on_c, 0, 64, 75
2, 38375, Note_on_c, 0, 64, 0
2, 38376, Note_on_c, 0, 62, 75
2, 38399, Note_on_c, 0, 62, 0
2, 38400, Note_on_c, 0, 61, 75
2, 38489, Note_on_c, 0, 61, 0
2, 38496, Note_on_c, 0, 64, 75
2, 38519, Note_on_c, 0, 64, 0
2, 38520, Note_on_c, 0, 62, 75
2, 38543, Note_on_c, 0, 62, 0
2, 38544, Note_on_c, 0, 61, 75
2, 38567, Note_on_c, 0, 61, 0
2, 38568, Note_on_c, 0, 59, 75
2, 38591, Note_on_c, 0, 59, 0
2, 38592, Note_on_c, 0, 57, 75
2, 38681, Note_on_c, 0, 57, 0
2, 38832, Note_on_c, 0, 64, 75
2, 38877, Note_on_c, 0, 64, 0
2, 38880, Note_on_c, 0, 63, 75
2, 38892, Note_on_c, 0, 63, 0
2, 38892, Note_on_c, 0, 64, 75
2, 38904, Note_on_c, 0, 64, 0
2, 38904, Note_on_c, 0, 66, 75
2, 38916, Note_on_c, 0, 66, 0
2, 38916, Note_on_c, 0, 64, 75
2, 39021, Note_on_c, 0, 64, 0
2, 39024, Note_on_c, 0, 66, 75
2, 39047, Note_on_c, 0, 66, 0
2, 39048, Note_on_c, 0, 64, 75
2, 39071, Note_on_c, 0, 64, 0
2, 39072, Note_on_c, 0, 64, 75
2, 39095, Note_on_c, 0, 64, 0
2, 39096, Note_on_c, 0, 62, 75
2, 39119, Note_on_c, 0, 62, 0
2, 39120, Note_on_c, 0, 61, 75
2, 39143, Note_on_c, 0, 61, 0
2, 39144, Note_on_c, 0, 62, 75
2, 39167, Note_on_c, 0, 62, 0
2, 39168, Note_on_c, 0, 62, 75
2, 39257, Note_on_c, 0, 62, 0
2, 39264, Note_on_c, 0, 61, 75
2, 39276, Note_on_c, 0, 61, 0
2, 39276, Note_on_c, 0, 59, 75
2, 39288, Note_on_c, 0, 59, 0
2, 39288, Note_on_c, 0, 61, 75
2, 39353, Note_on_c, 0, 61, 0
2, 39408, Note_on_c, 0, 64, 75
2, 39453, Note_on_c, 0, 64, 0
2, 39456, Note_on_c, 0, 63, 75
2, 39468, Note_on_c, 0, 63, 0
2, 39468, Note_on_c, 0, 64, 75
2, 39480, Note_on_c, 0, 64, 0
2, 39480, Note_on_c, 0, 66, 75
2, 39492, Note_on_c, 0, 66, 0
2, 39492, Note_on_c, 0, 64, 75
2, 39597, Note_on_c, 0, 64, 0
2, 39600, Note_on_c, 0, 62, 75
2, 39623, Note_on_c, 0, 62, 0
2, 39624, Note_on_c, 0, 61, 75
2, 39647, Note_on_c, 0, 61, 0
2, 39648, Note_on_c, 0, 61, 75
2, 39671, Note_on_c, 0, 61, 0
2, 39672, Note_on_c, 0, 59, 75
2, 39695, Note_on_c, 0, 59, 0
2, 39696, Note_on_c, 0, 57, 75
2, 39719, Note_on_c, 0, 57, 0
2, 39720, Note_on_c, 0, 56, 75
2, 39743, Note_on_c, 0, 56, 0
2, 39744, Note_on_c, 0, 56, 75
2, 39840, Note_on_c, 0, 56, 0
2, 39840, Note_on_c, 0, 57, 75
2, 39929, Note_on_c, 0, 57, 0
2, 39984, Note_on_c, 0, 64, 75
2, 40029, Note_on_c, 0, 64, 0
2, 40032, Note_on_c, 0, 63, 75
2, 40055, Note_on_c, 0, 63, 0
2, 40056, Note_on_c, 0, 64, 75
2, 40079, Note_on_c, 0, 64, 0
2, 40080, Note_on_c, 0, 66, 75
2, 40103, Note_on_c, 0, 66, 0
2, 40104, Note_on_c, 0, 64, 75
2, 40127, Note_on_c, 0, 64, 0
2, 40128, Note_on_c, 0, 64, 75
2, 40138, Note_on_c, 0, 64, 0
2, 40152, Note_on_c, 0, 64, 75
2, 40162, Note_on_c, 0, 64, 0
2, 40176, Note_on_c, 0, 66, 75
2, 40200, Note_on_c, 0, 66, 0
2, 40200, Note_on_c, 0, 64, 75
2, 40223, Note_on_c, 0, 64, 0
2, 40224, Note_on_c, 0, 64, 75
2, 40247, Note_on_c, 0, 64, 0
2, 40248, Note_on_c, 0, 62, 75
2, 40271, Note_on_c, 0, 62, 0
2, 40272, Note_on_c, 0, 61, 75
2, 40295, Note_on_c, 0, 61, 0
2, 40296, Note_on_c, 0, 62, 75
2, 40319, Note_on_c, 0, 62, 0
2, 40320, Note_on_c, 0, 62, 75
2, 40409, Note_on_c, 0, 62, 0
2, 40416, Note_on_c, 0, 61, 75
2, 40428, Note_on_c, 0, 61, 0
2, 40428, Note_on_c, 0, 59, 75
2, 40440, Note_on_c, 0, 59, 0
2, 40440, Note_on_c, 0, 61, 75
2, 40505, Note_on_c, 0, 61, 0
2, 40560, Note_on_c, 0, 64, 75
2, 40605, Note_on_c, 0, 64, 0
2, 40608, Note_on_c, 0, 63, 75
2, 40631, Note_on_c, 0, 63, 0
2, 40632, Note_on_c, 0, 64, 75
2, 40655, Note_on_c, 0, 64, 0
2, 40656, Note_on_c, 0, 66, 75
2, 40679, Note_on_c, 0, 66, 0
2, 40680, Note_on_c, 0, 64, 75
2, 40703, Note_on_c, 0, 64, 0
2, 40704, Note_on_c, 0, 66, 75
2, 40727, Note_on_c, 0, 66, 0
2, 40728, Note_on_c, 0, 64, 75
2, 40751, Note_on_c, 0, 64, 0
2, 40752, Note_on_c, 0, 62, 75
2, 40775, Note_on_c, 0, 62, 0
2, 40776, Note_on_c, 0, 61, 75
2, 40799, Note_on_c, 0, 61, 0
2, 40800, Note_on_c, 0, 61, 75
2, 40823, Note_on_c, 0, 61, 0
2, 40824, Note_on_c, 0, 59, 75
2, 40847, Note_on_c, 0, 59, 0
2, 40848, Note_on_c, 0, 57, 75
2, 40871, Note_on_c, 0, 57, 0
2, 40872, Note_on_c, 0, 56, 75
2, 40895, Note_on_c, 0, 56, 0
2, 40896, Note_on_c, 0, 56, 75
2, 40992, Note_on_c, 0, 56, 0
2, 40992, Note_on_c, 0, 57, 75
2, 41037, Note_on_c, 0, 57, 0
2, 41040, Note_on_c, 0, 52, 93
2, 41088, Note_on_c, 0, 52, 0
2, 41088, Note_on_c, 0, 52, 95
2, 41136, Note_on_c, 0, 52, 0
2, 41136, Note_on_c, 0, 53, 97
2, 41184, Note_on_c, 0, 53, 0
2, 41184, Note_on_c, 0, 54, 100
2, 41314, Note_on_c, 0, 54, 0
2, 41316, Note_on_c, 0, 59, 94
2, 41328, Note_on_c, 0, 59, 0
2, 41328, Note_on_c, 0, 58, 95
2, 41362, Note_on_c, 0, 58, 0
2, 41364, Note_on_c, 0, 61, 97
2, 41376, Note_on_c, 0, 61, 0
2, 41376, Note_on_c, 0, 59, 98
2, 41410, Note_on_c, 0, 59, 0
2, 41412, Note_on_c, 0, 62, 101
2, 41424, Note_on_c, 0, 62, 0
2, 41424, Note_on_c, 0, 61, 102
2, 41458, Note_on_c, 0, 61, 0
2, 41460, Note_on_c, 0, 64, 105
2, 41472, Note_on_c, 0, 64, 0
2, 41472, Note_on_c, 0, 62, 106
2, 41506, Note_on_c, 0, 62, 0
2, 41508, Note_on_c, 0, 66, 103
2, 41520, Note_on_c, 0, 66, 0
2, 41520, Note_on_c, 0, 61, 102
2, 41554, Note_on_c, 0, 61, 0
2, 41556, Note_on_c, 0, 64, 99
2, 41568, Note_on_c, 0, 64, 0
2, 41568, Note_on_c, 0, 59, 98
2, 41602, Note_on_c, 0, 59, 0
2, 41604, Note_on_c, 0, 62, 95
2, 41616, Note_on_c, 0, 62, 0
2, 41616, Note_on_c, 0, 58, 95
2, 41650, Note_on_c, 0, 58, 0
2, 41652, Note_on_c, 0, 61, 92
2, 41664, Note_on_c, 0, 61, 0
2, 41664, Note_on_c, 0, 59, 91
2, 41698, Note_on_c, 0, 59, 0
2, 41700, Note_on_c, 0, 62, 88
2, 41712, Note_on_c, 0, 62, 0
2, 41712, Note_on_c, 0, 54, 87
2, 41746, Note_on_c, 0, 54, 0
2, 41748, Note_on_c, 0, 59, 84
2, 41760, Note_on_c, 0, 59, 0
2, 41760, Note_on_c, 0, 52, 84
2, 41890, Note_on_c, 0, 52, 0
2, 41892, Note_on_c, 0, 57, 87
2, 41904, Note_on_c, 0, 57, 0
2, 41904, Note_on_c, 0, 56, 88
2, 41938, Note_on_c, 0, 56, 0
2, 41940, Note_on_c, 0, 59, 92
2, 41952, Note_on_c, 0, 59, 0
2, 41952, Note_on_c, 0, 57, 93
2, 41986, Note_on_c, 0, 57, 0
2, 41988, Note_on_c, 0, 61, 96
2, 42000, Note_on_c, 0, 61, 0
2, 42000, Note_on_c, 0, 59, 97
2, 42034, Note_on_c, 0, 59, 0
2, 42036, Note_on_c, 0, 62, 101
2, 42048, Note_on_c, 0, 62, 0
2, 42048, Note_on_c, 0, 61, 102
2, 42082, Note_on_c, 0, 61, 0
2, 42084, Note_on_c, 0, 64, 106
2, 42096, Note_on_c, 0, 64, 0
2, 42096, Note_on_c, 0, 59, 104
2, 42130, Note_on_c, 0, 59, 0
2, 42132, Note_on_c, 0, 62, 101
2, 42144, Note_on_c, 0, 62, 0
2, 42144, Note_on_c, 0, 57, 100
2, 42178, Note_on_c, 0, 57, 0
2, 42180, Note_on_c, 0, 61, 97
2, 42192, Note_on_c, 0, 61, 0
2, 42192, Note_on_c, 0, 56, 96
2, 42226, Note_on_c, 0, 56, 0
2, 42228, Note_on_c, 0, 59, 93
2, 42240, Note_on_c, 0, 59, 0
2, 42240, Note_on_c, 0, 57, 92
2, 42274, Note_on_c, 0, 57, 0
2, 42276, Note_on_c, 0, 61, 89
2, 42288, Note_on_c, 0, 61, 0
2, 42288, Note_on_c, 0, 52, 88
2, 42322, Note_on_c, 0, 52, 0
2, 42324, Note_on_c, 0, 57, 85
2, 42336, Note_on_c, 0, 57, 0
2, 42336, Note_on_c, 0, 50, 84
2, 42425, Note_on_c, 0, 50, 0
2, 42432, Note_on_c, 0, 62, 75
2, 42432, Note_on_c, 0, 56, 75
2, 42528, Note_on_c, 0, 62, 0
2, 42528, Note_on_c, 0, 56, 0
2, 42528, Note_on_c, 0, 61, 75
2, 42528, Note_on_c, 0, 57, 75
2, 42617, Note_on_c, 0, 61, 0
2, 42617, Note_on_c, 0, 57, 0
2, 42624, Note_on_c, 0, 56, 75
2, 42624, Note_on_c, 0, 50, 75
2, 42669, Note_on_c, 0, 56, 0
2, 42669, Note_on_c, 0, 50, 0
2, 42720, Note_on_c, 0, 62, 75
2, 42720, Note_on_c, 0, 56, 75
2, 42816, Note_on_c, 0, 62, 0
2, 42816, Note_on_c, 0, 56, 0
2, 42816, Note_on_c, 0, 61, 75
2, 42816, Note_on_c, 0, 57, 75
2, 42905, Note_on_c, 0, 61, 0
2, 42905, Note_on_c, 0, 57, 0
2, 42960, Note_on_c, 0, 54, 75
2, 42980, Note_on_c, 0, 54, 0
2, 43008, Note_on_c, 0, 59, 75
2, 43028, Note_on_c, 0, 59, 0
2, 43056, Note_on_c, 0, 62, 75
2, 43076, Note_on_c, 0, 62, 0
2, 43104, Note_on_c, 0, 66, 75
2, 43124, Note_on_c, 0, 66, 0
2, 43152, Note_on_c, 0, 66, 75
2, 43172, Note_on_c, 0, 66, 0
2, 43200, Note_on_c, 0, 66, 75
2, 43319, Note_on_c, 0, 66, 0
2, 43320, Note_on_c, 0, 64, 75
2, 43343, Note_on_c, 0, 64, 0
2, 43344, Note_on_c, 0, 62, 75
2, 43367, Note_on_c, 0, 62, 0
2, 43368, Note_on_c, 0, 61, 75
2, 43391, Note_on_c, 0, 61, 0
2, 43392, Note_on_c, 0, 61, 75
2, 43415, Note_on_c, 0, 61, 0
2, 43416, Note_on_c, 0, 59, 75
2, 43439, Note_on_c, 0, 59, 0
2, 43440, Note_on_c, 0, 57, 75
2, 43463, Note_on_c, 0, 57, 0
2, 43464, Note_on_c, 0, 56, 75
2, 43487, Note_on_c, 0, 56, 0
2, 43488, Note_on_c, 0, 57, 75
2, 43533, Note_on_c, 0, 57, 0
2, 43536, Note_on_c, 0, 76, 61
2, 43556, Note_on_c, 0, 76, 0
2, 43584, Note_on_c, 0, 76, 61
2, 43604, Note_on_c, 0, 76, 0
2, 43632, Note_on_c, 0, 76, 61
2, 43652, Note_on_c, 0, 76, 0
2, 43680, Note_on_c, 0, 76, 61
2, 43703, Note_on_c, 0, 76, 0
2, 43704, Note_on_c, 0, 78, 61
2, 43727, Note_on_c, 0, 78, 0
2, 43728, Note_on_c, 0, 76, 61
2, 43751, Note_on_c, 0, 76, 0
2, 43752, Note_on_c, 0, 74, 61
2, 43775, Note_on_c, 0, 74, 0
2, 43776, Note_on_c, 0, 73, 61
2, 43796, Note_on_c, 0, 73, 0
2, 43824, Note_on_c, 0, 52, 75
2, 43869, Note_on_c, 0, 52, 0
2, 43872, Note_on_c, 0, 52, 75
2, 43895, Note_on_c, 0, 52, 0
2, 43896, Note_on_c, 0, 50, 75
2, 43919, Note_on_c, 0, 50, 0
2, 43920, Note_on_c, 0, 49, 75
2, 43943, Note_on_c, 0, 49, 0
2, 43944, Note_on_c, 0, 50, 75
2, 43967, Note_on_c, 0, 50, 0
2, 43968, Note_on_c, 0, 52, 75
2, 43991, Note_on_c, 0, 52, 0
2, 43992, Note_on_c, 0, 54, 75
2, 44015, Note_on_c, 0, 54, 0
2, 44016, Note_on_c, 0, 56, 75
2, 44039, Note_on_c, 0, 56, 0
2, 44040, Note_on_c, 0, 57, 75
2, 44063, Note_on_c, 0, 57, 0
2, 44064, Note_on_c, 0, 56, 75
2, 44087, Note_on_c, 0, 56, 0
2, 44088, Note_on_c, 0, 54, 75
2, 44111, Note_on_c, 0, 54, 0
2, 44112, Note_on_c, 0, 52, 75
2, 44135, Note_on_c, 0, 52, 0
2, 44136, Note_on_c, 0, 50, 75
2, 44159, Note_on_c, 0, 50, 0
2, 44160, Note_on_c, 0, 50, 75
2, 44183, Note_on_c, 0, 50, 0
2, 44184, Note_on_c, 0, 49, 75
2, 44207, Note_on_c, 0, 49, 0
2, 44208, Note_on_c, 0, 52, 75
2, 44231, Note_on_c, 0, 52, 0
2, 44232, Note_on_c, 0, 45, 75
2, 44255, Note_on_c, 0, 45, 0
2, 44256, Note_on_c, 0, 49, 75
2, 44279, Note_on_c, 0, 49, 0
2, 44280, Note_on_c, 0, 47, 75
2, 44303, Note_on_c, 0, 47, 0
2, 44304, Note_on_c, 0, 45, 75
2, 44327, Note_on_c, 0, 45, 0
2, 44328, Note_on_c, 0, 44, 75
2, 44351, Note_on_c, 0, 44, 0
2, 44352, Note_on_c, 0, 45, 75
2, 44397, Note_on_c, 0, 45, 0
2, 44400, Note_on_c, 0, 76, 61
2, 44445, Note_on_c, 0, 76, 0
2, 44448, Note_on_c, 0, 76, 61
2, 44493, Note_on_c, 0, 76, 0
2, 44496, Note_on_c, 0, 76, 61
2, 44541, Note_on_c, 0, 76, 0
2, 44544, Note_on_c, 0, 76, 61
2, 44578, Note_on_c, 0, 76, 0
2, 44580, Note_on_c, 0, 74, 61
2, 44586, Note_on_c, 0, 74, 0
2, 44586, Note_on_c, 0, 76, 61
2, 44592, Note_on_c, 0, 76, 0
2, 44592, Note_on_c, 0, 78, 61
2, 44607, Note_on_c, 0, 78, 0
2, 44608, Note_on_c, 0, 76, 61
2, 44623, Note_on_c, 0, 76, 0
2, 44624, Note_on_c, 0, 74, 61
2, 44639, Note_on_c, 0, 74, 0
2, 44640, Note_on_c, 0, 73, 61
2, 44685, Note_on_c, 0, 73, 0
2, 44688, Note_on_c, 0, 52, 75
2, 44698, Note_on_c, 0, 52, 0
2, 44712, Note_on_c, 0, 54, 75
2, 44722, Note_on_c, 0, 54, 0
2, 44736, Note_on_c, 0, 52, 75
2, 44746, Note_on_c, 0, 52, 0
2, 44760, Note_on_c, 0, 50, 75
2, 44770, Note_on_c, 0, 50, 0
2, 44784, Note_on_c, 0, 49, 75
2, 44794, Note_on_c, 0, 49, 0
2, 44808, Note_on_c, 0, 50, 75
2, 44818, Note_on_c, 0, 50, 0
2, 44832, Note_on_c, 0, 52, 75
2, 44842, Note_on_c, 0, 52, 0
2, 44856, Note_on_c, 0, 54, 75
2, 44866, Note_on_c, 0, 54, 0
2, 44880, Note_on_c, 0, 56, 75
2, 44890, Note_on_c, 0, 56, 0
2, 44904, Note_on_c, 0, 57, 75
2, 44914, Note_on_c, 0, 57, 0
2, 44928, Note_on_c, 0, 56, 75
2, 44952, Note_on_c, 0, 56, 0
2, 44952, Note_on_c, 0, 54, 75
2, 44975, Note_on_c, 0, 54, 0
2, 44976, Note_on_c, 0, 57, 75
2, 44986, Note_on_c, 0, 57, 0
2, 45000, Note_on_c, 0, 54, 75
2, 45010, Note_on_c, 0, 54, 0
2, 45024, Note_on_c, 0, 54, 75
2, 45048, Note_on_c, 0, 54, 0
2, 45048, Note_on_c, 0, 52, 75
2, 45071, Note_on_c, 0, 52, 0
2, 45072, Note_on_c, 0, 57, 75
2, 45082, Note_on_c, 0, 57, 0
2, 45096, Note_on_c, 0, 52, 75
2, 45106, Note_on_c, 0, 52, 0
2, 45120, Note_on_c, 0, 52, 75
2, 45144, Note_on_c, 0, 52, 0
2, 45144, Note_on_c, 0, 50, 75
2, 45167, Note_on_c, 0, 50, 0
2, 45168, Note_on_c, 0, 59, 75
2, 45178, Note_on_c, 0, 59, 0
2, 45192, Note_on_c, 0, 50, 75
2, 45202, Note_on_c, 0, 50, 0
2, 45216, Note_on_c, 0, 49, 75
2, 45240, Note_on_c, 0, 49, 0
2, 45240, Note_on_c, 0, 52, 75
2, 45263, Note_on_c, 0, 52, 0
2, 45264, Note_on_c, 0, 50, 76
2, 45288, Note_on_c, 0, 50, 0
2, 45288, Note_on_c, 0, 54, 76
2, 45311, Note_on_c, 0, 54, 0
2, 45312, Note_on_c, 0, 52, 77
2, 45336, Note_on_c, 0, 52, 0
2, 45336, Note_on_c, 0, 56, 78
2, 45359, Note_on_c, 0, 56, 0
2, 45360, Note_on_c, 0, 54, 78
2, 45384, Note_on_c, 0, 54, 0
2, 45384, Note_on_c, 0, 57, 79
2, 45407, Note_on_c, 0, 57, 0
2, 45408, Note_on_c, 0, 56, 80
2, 45432, Note_on_c, 0, 56, 0
2, 45432, Note_on_c, 0, 59, 80
2, 45455, Note_on_c, 0, 59, 0
2, 45456, Note_on_c, 0, 57, 81
2, 45480, Note_on_c, 0, 57, 0
2, 45480, Note_on_c, 0, 61, 82
2, 45503, Note_on_c, 0, 61, 0
2, 45504, Note_on_c, 0, 59, 82
2, 45528, Note_on_c, 0, 59, 0
2, 45528, Note_on_c, 0, 62, 83
2, 45551, Note_on_c, 0, 62, 0
2, 45552, Note_on_c, 0, 61, 84
2, 45576, Note_on_c, 0, 61, 0
2, 45576, Note_on_c, 0, 64, 84
2, 45599, Note_on_c, 0, 64, 0
2, 45600, Note_on_c, 0, 62, 85
2, 45624, Note_on_c, 0, 62, 0
2, 45624, Note_on_c, 0, 66, 85
2, 45647, Note_on_c, 0, 66, 0
2, 45648, Note_on_c, 0, 59, 86
2, 45672, Note_on_c, 0, 59, 0
2, 45672, Note_on_c, 0, 62, 87
2, 45695, Note_on_c, 0, 62, 0
2, 45696, Note_on_c, 0, 61, 87
2, 45720, Note_on_c, 0, 61, 0
2, 45720, Note_on_c, 0, 64, 88
2, 45743, Note_on_c, 0, 64, 0
2, 45744, Note_on_c, 0, 57, 89
2, 45768, Note_on_c, 0, 57, 0
2, 45768, Note_on_c, 0, 61, 89
2, 45791, Note_on_c, 0, 61, 0
2, 45840, Note_on_c, 0, 69, 91
2, 45840, Note_on_c, 0, 61, 91
2, 45885, Note_on_c, 0, 69, 0
2, 45885, Note_on_c, 0, 61, 0
2, 45888, Note_on_c, 0, 69, 93
2, 45888, Note_on_c, 0, 61, 93
2, 45933, Note_on_c, 0, 69, 0
2, 45933, Note_on_c, 0, 61, 0
2, 45936, Note_on_c, 0, 69, 94
2, 45936, Note_on_c, 0, 61, 94
2, 45981, Note_on_c, 0, 69, 0
2, 45981, Note_on_c, 0, 61, 0
2, 45984, Note_on_c, 0, 69, 95
2, 45984, Note_on_c, 0, 61, 95
2, 46029, Note_on_c, 0, 69, 0
2, 46029, Note_on_c, 0, 61, 0
2, 46032, Note_on_c, 0, 69, 96
2, 46032, Note_on_c, 0, 61, 96
2, 46077, Note_on_c, 0, 69, 0
2, 46077, Note_on_c, 0, 61, 0
2, 46080, Note_on_c, 0, 69, 98
2, 46080, Note_on_c, 0, 61, 98
2, 46345, Note_on_c, 0, 69, 0
2, 46345, Note_on_c, 0, 61, 0
2, 46416, Note_on_c, 0, 76, 75
2, 46436, Note_on_c, 0, 76, 0
2, 46464, Note_on_c, 0, 76, 75
2, 46484, Note_on_c, 0, 76, 0
2, 46512, Note_on_c, 0, 76, 75
2, 46532, Note_on_c, 0, 76, 0
2, 46560, Note_on_c, 0, 76, 75
2, 46583, Note_on_c, 0, 76, 0
2, 46584, Note_on_c, 0, 78, 75
2, 46607, Note_on_c, 0, 78, 0
2, 46608, Note_on_c, 0, 76, 75
2, 46631, Note_on_c, 0, 76, 0
2, 46632, Note_on_c, 0, 74, 75
2, 46655, Note_on_c, 0, 74, 0
2, 46656, Note_on_c, 0, 73, 91
2, 46676, Note_on_c, 0, 73, 0
2, 46704, Note_on_c, 0, 73, 75
2, 46704, Note_on_c, 0, 69, 75
2, 46724, Note_on_c, 0, 73, 0
2, 46724, Note_on_c, 0, 69, 0
2, 46752, Note_on_c, 0, 73, 75
2, 46752, Note_on_c, 0, 69, 75
2, 46772, Note_on_c, 0, 73, 0
2, 46772, Note_on_c, 0, 69, 0
2, 46800, Note_on_c, 0, 73, 75
2, 46800, Note_on_c, 0, 69, 75
2, 46820, Note_on_c, 0, 73, 0
2, 46820, Note_on_c, 0, 69, 0
2, 46848, Note_on_c, 0, 73, 75
2, 46848, Note_on_c, 0, 69, 75
2, 46871, Note_on_c, 0, 73, 0
2, 46871, Note_on_c, 0, 69, 0
2, 46872, Note_on_c, 0, 74, 75
2, 46872, Note_on_c, 0, 71, 75
2, 46895, Note_on_c, 0, 74, 0
2, 46895, Note_on_c, 0, 71, 0
2, 46896, Note_on_c, 0, 73, 75
2, 46896, Note_on_c, 0, 69, 75
2, 46919, Note_on_c, 0, 73, 0
2, 46919, Note_on_c, 0, 69, 0
2, 46920, Note_on_c, 0, 71, 75
2, 46920, Note_on_c, 0, 68, 75
2, 46943, Note_on_c, 0, 71, 0
2, 46943, Note_on_c, 0, 68, 0
2, 46944, Note_on_c, 0, 69, 75
2, 46944, Note_on_c, 0, 66, 75
2, 46967, Note_on_c, 0, 69, 0
2, 46967, Note_on_c, 0, 66, 0
2, 46968, Note_on_c, 0, 71, 75
2, 46968, Note_on_c, 0, 68, 75
2, 46991, Note_on_c, 0, 71, 0
2, 46991, Note_on_c, 0, 68, 0
2, 46992, Note_on_c, 0, 69, 75
2, 46992, Note_on_c, 0, 66, 75
2, 47015, Note_on_c, 0, 69, 0
2, 47015, Note_on_c, 0, 66, 0
2, 47016, Note_on_c, 0, 68, 75
2, 47016, Note_on_c, 0, 64, 75
2, 47039, Note_on_c, 0, 68, 0
2, 47039, Note_on_c, 0, 64, 0
2, 47040, Note_on_c, 0, 66, 75
2, 47040, Note_on_c, 0, 62, 75
2, 47063, Note_on_c, 0, 66, 0
2, 47063, Note_on_c, 0, 62, 0
2, 47064, Note_on_c, 0, 68, 75
2, 47064, Note_on_c, 0, 64, 75
2, 47087, Note_on_c, 0, 68, 0
2, 47087, Note_on_c, 0, 64, 0
2, 47088, Note_on_c, 0, 66, 75
2, 47088, Note_on_c, 0, 62, 75
2, 47111, Note_on_c, 0, 66, 0
2, 47111, Note_on_c, 0, 62, 0
2, 47112, Note_on_c, 0, 64, 75
2, 47112, Note_on_c, 0, 61, 75
2, 47135, Note_on_c, 0, 64, 0
2, 47135, Note_on_c, 0, 61, 0
2, 47136, Note_on_c, 0, 62, 75
2, 47136, Note_on_c, 0, 59, 75
2, 47159, Note_on_c, 0, 62, 0
2, 47159, Note_on_c, 0, 59, 0
2, 47160, Note_on_c, 0, 64, 75
2, 47160, Note_on_c, 0, 61, 75
2, 47183, Note_on_c, 0, 64, 0
2, 47183, Note_on_c, 0, 61, 0
2, 47184, Note_on_c, 0, 62, 75
2, 47184, Note_on_c, 0, 59, 75
2, 47207, Note_on_c, 0, 62, 0
2, 47207, Note_on_c, 0, 59, 0
2, 47208, Note_on_c, 0, 61, 75
2, 47208, Note_on_c, 0, 57, 75
2, 47231, Note_on_c, 0, 61, 0
2, 47231, Note_on_c, 0, 57, 0
2, 47280, Note_on_c, 0, 74, 75
2, 47300, Note_on_c, 0, 74, 0
2, 47328, Note_on_c, 0, 74, 75
2, 47348, Note_on_c, 0, 74, 0
2, 47376, Note_on_c, 0, 74, 75
2, 47396, Note_on_c, 0, 74, 0
2, 47424, Note_on_c, 0, 74, 75
2, 47447, Note_on_c, 0, 74, 0
2, 47448, Note_on_c, 0, 76, 75
2, 47471, Note_on_c, 0, 76, 0
2, 47472, Note_on_c, 0, 74, 75
2, 47495, Note_on_c, 0, 74, 0
2, 47496, Note_on_c, 0, 73, 75
2, 47519, Note_on_c, 0, 73, 0
2, 47520, Note_on_c, 0, 71, 91
2, 47540, Note_on_c, 0, 71, 0
2, 47568, Note_on_c, 0, 71, 75
2, 47568, Note_on_c, 0, 68, 75
2, 47588, Note_on_c, 0, 71, 0
2, 47588, Note_on_c, 0, 68, 0
2, 47616, Note_on_c, 0, 71, 75
2, 47616, Note_on_c, 0, 68, 75
2, 47636, Note_on_c, 0, 71, 0
2, 47636, Note_on_c, 0, 68, 0
2, 47664, Note_on_c, 0, 71, 75
2, 47664, Note_on_c, 0, 68, 75
2, 47684, Note_on_c, 0, 71, 0
2, 47684, Note_on_c, 0, 68, 0
2, 47712, Note_on_c, 0, 71, 75
2, 47712, Note_on_c, 0, 68, 75
2, 47735, Note_on_c, 0, 71, 0
2, 47735, Note_on_c, 0, 68, 0
2, 47736, Note_on_c, 0, 73, 75
2, 47736, Note_on_c, 0, 69, 75
2, 47759, Note_on_c, 0, 73, 0
2, 47759, Note_on_c, 0, 69, 0
2, 47760, Note_on_c, 0, 71, 75
2, 47760, Note_on_c, 0, 68, 75
2, 47783, Note_on_c, 0, 71, 0
2, 47783, Note_on_c, 0, 68, 0
2, 47784, Note_on_c, 0, 69, 75
2, 47784, Note_on_c, 0, 66, 75
2, 47807, Note_on_c, 0, 69, 0
2, 47807, Note_on_c, 0, 66, 0
2, 47808, Note_on_c, 0, 68, 75
2, 47808, Note_on_c, 0, 64, 75
2, 47831, Note_on_c, 0, 68, 0
2, 47831, Note_on_c, 0, 64, 0
2, 47832, Note_on_c, 0, 69, 75
2, 47832, Note_on_c, 0, 66, 75
2, 47855, Note_on_c, 0, 69, 0
2, 47855, Note_on_c, 0, 66, 0
2, 47856, Note_on_c, 0, 68, 75
2, 47856, Note_on_c, 0, 64, 75
2, 47879, Note_on_c, 0, 68, 0
2, 47879, Note_on_c, 0, 64, 0
2, 47880, Note_on_c, 0, 66, 75
2, 47880, Note_on_c, 0, 62, 75
2, 47903, Note_on_c, 0, 66, 0
2, 47903, Note_on_c, 0, 62, 0
2, 47904, Note_on_c, 0, 64, 75
2, 47904, Note_on_c, 0, 61, 75
2, 47927, Note_on_c, 0, 64, 0
2, 47927, Note_on_c, 0, 61, 0
2, 47928, Note_on_c, 0, 66, 75
2, 47928, Note_on_c, 0, 62, 75
2, 47951, Note_on_c, 0, 66, 0
2, 47951, Note_on_c, 0, 62, 0
2, 47952, Note_on_c, 0, 64, 75
2, 47952, Note_on_c, 0, 61, 75
2, 47975, Note_on_c, 0, 64, 0
2, 47975, Note_on_c, 0, 61, 0
2, 47976, Note_on_c, 0, 62, 75
2, 47976, Note_on_c, 0, 59, 75
2, 47999, Note_on_c, 0, 62, 0
2, 47999, Note_on_c, 0, 59, 0
2, 48000, Note_on_c, 0, 61, 75
2, 48000, Note_on_c, 0, 57, 75
2, 48023, Note_on_c, 0, 61, 0
2, 48023, Note_on_c, 0, 57, 0
2, 48024, Note_on_c, 0, 62, 75
2, 48024, Note_on_c, 0, 59, 75
2, 48047, Note_on_c, 0, 62, 0
2, 48047, Note_on_c, 0, 59, 0
2, 48048, Note_on_c, 0, 61, 75
2, 48048, Note_on_c, 0, 57, 75
2, 48071, Note_on_c, 0, 61, 0
2, 48071, Note_on_c, 0, 57, 0
2, 48072, Note_on_c, 0, 59, 75
2, 48072, Note_on_c, 0, 56, 75
2, 48095, Note_on_c, 0, 59, 0
2, 48095, Note_on_c, 0, 56, 0
2, 48144, Note_on_c, 0, 64, 75
2, 48164, Note_on_c, 0, 64, 0
2, 48192, Note_on_c, 0, 69, 75
2, 48212, Note_on_c, 0, 69, 0
2, 48240, Note_on_c, 0, 73, 75
2, 48260, Note_on_c, 0, 73, 0
2, 48288, Note_on_c, 0, 76, 75
2, 48308, Note_on_c, 0, 76, 0
2, 48336, Note_on_c, 0, 73, 75
2, 48356, Note_on_c, 0, 73, 0
2, 48432, Note_on_c, 0, 64, 75
2, 48452, Note_on_c, 0, 64, 0
2, 48480, Note_on_c, 0, 69, 75
2, 48500, Note_on_c, 0, 69, 0
2, 48528, Note_on_c, 0, 72, 75
2, 48548, Note_on_c, 0, 72, 0
2, 48576, Note_on_c, 0, 76, 75
2, 48596, Note_on_c, 0, 76, 0
2, 48624, Note_on_c, 0, 72, 75
2, 48644, Note_on_c, 0, 72, 0
2, 48696, Note_on_c, 0, 60, 75
2, 48719, Note_on_c, 0, 60, 0
2, 48720, Note_on_c, 0, 62, 75
2, 48743, Note_on_c, 0, 62, 0
2, 48744, Note_on_c, 0, 64, 75
2, 48767, Note_on_c, 0, 64, 0
2, 48768, Note_on_c, 0, 65, 75
2, 48791, Note_on_c, 0, 65, 0
2, 48792, Note_on_c, 0, 67, 75
2, 48815, Note_on_c, 0, 67, 0
2, 48816, Note_on_c, 0, 69, 75
2, 48839, Note_on_c, 0, 69, 0
2, 48840, Note_on_c, 0, 70, 75
2, 48863, Note_on_c, 0, 70, 0
2, 48864, Note_on_c, 0, 72, 75
2, 48884, Note_on_c, 0, 72, 0
2, 48912, Note_on_c, 0, 72, 75
2, 48932, Note_on_c, 0, 72, 0
2, 48984, Note_on_c, 0, 60, 75
2, 49007, Note_on_c, 0, 60, 0
2, 49008, Note_on_c, 0, 62, 75
2, 49031, Note_on_c, 0, 62, 0
2, 49032, Note_on_c, 0, 64, 75
2, 49055, Note_on_c, 0, 64, 0
2, 49056, Note_on_c, 0, 66, 75
2, 49079, Note_on_c, 0, 66, 0
2, 49080, Note_on_c, 0, 68, 75
2, 49103, Note_on_c, 0, 68, 0
2, 49104, Note_on_c, 0, 69, 75
2, 49127, Note_on_c, 0, 69, 0
2, 49128, Note_on_c, 0, 71, 75
2, 49151, Note_on_c, 0, 71, 0
2, 49152, Note_on_c, 0, 72, 75
2, 49172, Note_on_c, 0, 72, 0
2, 49200, Note_on_c, 0, 72, 75
2, 49220, Note_on_c, 0, 72, 0
2, 49272, Note_on_c, 0, 60, 75
2, 49282, Note_on_c, 0, 60, 0
2, 49296, Note_on_c, 0, 63, 75
2, 49306, Note_on_c, 0, 63, 0
2, 49320, Note_on_c, 0, 66, 75
2, 49330, Note_on_c, 0, 66, 0
2, 49344, Note_on_c, 0, 69, 75
2, 49354, Note_on_c, 0, 69, 0
2, 49368, Note_on_c, 0, 72, 75
2, 49378, Note_on_c, 0, 72, 0
2, 49392, Note_on_c, 0, 75, 75
2, 49402, Note_on_c, 0, 75, 0
2, 49416, Note_on_c, 0, 78, 75
2, 49426, Note_on_c, 0, 78, 0
2, 49440, Note_on_c, 0, 81, 75
2, 49450, Note_on_c, 0, 81, 0
2, 49464, Note_on_c, 0, 78, 75
2, 49474, Note_on_c, 0, 78, 0
2, 49488, Note_on_c, 0, 75, 75
2, 49498, Note_on_c, 0, 75, 0
2, 49512, Note_on_c, 0, 72, 75
2, 49522, Note_on_c, 0, 72, 0
2, 49536, Note_on_c, 0, 69, 75
2, 49546, Note_on_c, 0, 69, 0
2, 49560, Note_on_c, 0, 66, 75
2, 49570, Note_on_c, 0, 66, 0
2, 49584, Note_on_c, 0, 63, 75
2, 49594, Note_on_c, 0, 63, 0
2, 49608, Note_on_c, 0, 60, 75
2, 49618, Note_on_c, 0, 60, 0
2, 49632, Note_on_c, 0, 61, 75
2, 49677, Note_on_c, 0, 61, 0
2, 49680, Note_on_c, 0, 69, 91
2, 49751, Note_on_c, 0, 69, 0
2, 49752, Note_on_c, 0, 64, 75
2, 49775, Note_on_c, 0, 64, 0
2, 49776, Note_on_c, 0, 66, 75
2, 49799, Note_on_c, 0, 66, 0
2, 49800, Note_on_c, 0, 67, 75
2, 49823, Note_on_c, 0, 67, 0
2, 49824, Note_on_c, 0, 67, 75
2, 49847, Note_on_c, 0, 67, 0
2, 49848, Note_on_c, 0, 66, 75
2, 49871, Note_on_c, 0, 66, 0
2, 49872, Note_on_c, 0, 64, 75
2, 49895, Note_on_c, 0, 64, 0
2, 49896, Note_on_c, 0, 62, 75
2, 49919, Note_on_c, 0, 62, 0
2, 49920, Note_on_c, 0, 61, 75
2, 50009, Note_on_c, 0, 61, 0
2, 50016, Note_on_c, 0, 64, 75
2, 50039, Note_on_c, 0, 64, 0
2, 50040, Note_on_c, 0, 62, 75
2, 50063, Note_on_c, 0, 62, 0
2, 50064, Note_on_c, 0, 61, 75
2, 50087, Note_on_c, 0, 61, 0
2, 50088, Note_on_c, 0, 59, 75
2, 50111, Note_on_c, 0, 59, 0
2, 50112, Note_on_c, 0, 61, 75
2, 50127, Note_on_c, 0, 61, 0
2, 50128, Note_on_c, 0, 57, 75
2, 50143, Note_on_c, 0, 57, 0
2, 50144, Note_on_c, 0, 61, 75
2, 50159, Note_on_c, 0, 61, 0
2, 50160, Note_on_c, 0, 64, 75
2, 50175, Note_on_c, 0, 64, 0
2, 50176, Note_on_c, 0, 61, 75
2, 50191, Note_on_c, 0, 61, 0
2, 50192, Note_on_c, 0, 64, 75
2, 50207, Note_on_c, 0, 64, 0
2, 50208, Note_on_c, 0, 69, 75
2, 50223, Note_on_c, 0, 69, 0
2, 50224, Note_on_c, 0, 64, 75
2, 50239, Note_on_c, 0, 64, 0
2, 50240, Note_on_c, 0, 69, 75
2, 50255, Note_on_c, 0, 69, 0
2, 50256, Note_on_c, 0, 73, 75
2, 50271, Note_on_c, 0, 73, 0
2, 50272, Note_on_c, 0, 69, 75
2, 50287, Note_on_c, 0, 69, 0
2, 50288, Note_on_c, 0, 73, 75
2, 50303, Note_on_c, 0, 73, 0
2, 50304, Note_on_c, 0, 76, 75
2, 50314, Note_on_c, 0, 76, 0
2, 50328, Note_on_c, 0, 64, 75
2, 50351, Note_on_c, 0, 64, 0
2, 50352, Note_on_c, 0, 66, 75
2, 50375, Note_on_c, 0, 66, 0
2, 50376, Note_on_c, 0, 67, 75
2, 50399, Note_on_c, 0, 67, 0
2, 50400, Note_on_c, 0, 67, 75
2, 50424, Note_on_c, 0, 67, 0
2, 50424, Note_on_c, 0, 66, 75
2, 50447, Note_on_c, 0, 66, 0
2, 50448, Note_on_c, 0, 74, 75
2, 50472, Note_on_c, 0, 74, 0
2, 50472, Note_on_c, 0, 71, 75
2, 50495, Note_on_c, 0, 71, 0
2, 50496, Note_on_c, 0, 69, 75
2, 50585, Note_on_c, 0, 69, 0
2, 50592, Note_on_c, 0, 68, 75
2, 50601, Note_on_c, 0, 68, 0
2, 50601, Note_on_c, 0, 69, 75
2, 50610, Note_on_c, 0, 69, 0
2, 50610, Note_on_c, 0, 68, 75
2, 50619, Note_on_c, 0, 68, 0
2, 50619, Note_on_c, 0, 69, 75
2, 50628, Note_on_c, 0, 69, 0
2, 50628, Note_on_c, 0, 68, 75
2, 50637, Note_on_c, 0, 68, 0
2, 50637, Note_on_c, 0, 69, 75
2, 50646, Note_on_c, 0, 69, 0
2, 50646, Note_on_c, 0, 68, 75
2, 50655, Note_on_c, 0, 68, 0
2, 50655, Note_on_c, 0, 69, 75
2, 50664, Note_on_c, 0, 69, 0
2, 50664, Note_on_c, 0, 68, 75
2, 50672, Note_on_c, 0, 68, 0
2, 50672, Note_on_c, 0, 66, 75
2, 50680, Note_on_c, 0, 66, 0
2, 50680, Note_on_c, 0, 68, 75
2, 50688, Note_on_c, 0, 68, 0
2, 50688, Note_on_c, 0, 69, 75
2, 50777, Note_on_c, 0, 69, 0
2, 50832, Note_on_c, 0, 64, 75
2, 50832, Note_on_c, 0, 61, 75
2, 50866, Note_on_c, 0, 64, 0
2, 50866, Note_on_c, 0, 61, 0
2, 50868, Note_on_c, 0, 66, 75
2, 50868, Note_on_c, 0, 62, 75
2, 50880, Note_on_c, 0, 66, 0
2, 50880, Note_on_c, 0, 62, 0
2, 50880, Note_on_c, 0, 64, 75
2, 50880, Note_on_c, 0, 61, 75
2, 50900, Note_on_c, 0, 64, 0
2, 50900, Note_on_c, 0, 61, 0
2, 50928, Note_on_c, 0, 62, 75
2, 50928, Note_on_c, 0, 59, 75
2, 50948, Note_on_c, 0, 62, 0
2, 50948, Note_on_c, 0, 59, 0
2, 50976, Note_on_c, 0, 62, 75
2, 50976, Note_on_c, 0, 59, 75
2, 51065, Note_on_c, 0, 62, 0
2, 51065, Note_on_c, 0, 59, 0
2, 51072, Note_on_c, 0, 61, 75
2, 51072, Note_on_c, 0, 57, 75
2, 51117, Note_on_c, 0, 61, 0
2, 51117, Note_on_c, 0, 57, 0
2, 51120, Note_on_c, 0, 64, 75
2, 51120, Note_on_c, 0, 61, 75
2, 51154, Note_on_c, 0, 64, 0
2, 51154, Note_on_c, 0, 61, 0
2, 51156, Note_on_c, 0, 66, 75
2, 51156, Note_on_c, 0, 62, 75
2, 51168, Note_on_c, 0, 66, 0
2, 51168, Note_on_c, 0, 62, 0
2, 51168, Note_on_c, 0, 64, 75
2, 51168, Note_on_c, 0, 61, 75
2, 51188, Note_on_c, 0, 64, 0
2, 51188, Note_on_c, 0, 61, 0
2, 51216, Note_on_c, 0, 68, 75
2, 51216, Note_on_c, 0, 59, 75
2, 51236, Note_on_c, 0, 68, 0
2, 51236, Note_on_c, 0, 59, 0
2, 51264, Note_on_c, 0, 68, 75
2, 51264, Note_on_c, 0, 59, 75
2, 51360, Note_on_c, 0, 68, 0
2, 51360, Note_on_c, 0, 59, 0
2, 51360, Note_on_c, 0, 69, 75
2, 51360, Note_on_c, 0, 61, 75
2, 51449, Note_on_c, 0, 69, 0
2, 51449, Note_on_c, 0, 61, 0
2, 51600, Note_on_c, 0, 83, 75
2, 51620, Note_on_c, 0, 83, 0
2, 51648, Note_on_c, 0, 83, 75
2, 51668, Note_on_c, 0, 83, 0
2, 51696, Note_on_c, 0, 83, 75
2, 51716, Note_on_c, 0, 83, 0
2, 51744, Note_on_c, 0, 83, 75
2, 51767, Note_on_c, 0, 83, 0
2, 51768, Note_on_c, 0, 85, 75
2, 51791, Note_on_c, 0, 85, 0
2, 51792, Note_on_c, 0, 83, 75
2, 51815, Note_on_c, 0, 83, 0
2, 51816, Note_on_c, 0, 81, 75
2, 51839, Note_on_c, 0, 81, 0
2, 51888, Note_on_c, 0, 80, 75
2, 51908, Note_on_c, 0, 80, 0
2, 51936, Note_on_c, 0, 80, 75
2, 51956, Note_on_c, 0, 80, 0
2, 51984, Note_on_c, 0, 80, 75
2, 52004, Note_on_c, 0, 80, 0
2, 52032, Note_on_c, 0, 80, 75
2, 52055, Note_on_c, 0, 80, 0
2, 52056, Note_on_c, 0, 81, 75
2, 52079, Note_on_c, 0, 81, 0
2, 52080, Note_on_c, 0, 80, 75
2, 52103, Note_on_c, 0, 80, 0
2, 52104, Note_on_c, 0, 78, 75
2, 52127, Note_on_c, 0, 78, 0
2, 52176, Note_on_c, 0, 76, 75
2, 52196, Note_on_c, 0, 76, 0
2, 52224, Note_on_c, 0, 76, 75
2, 52244, Note_on_c, 0, 76, 0
2, 52272, Note_on_c, 0, 76, 75
2, 52292, Note_on_c, 0, 76, 0
2, 52320, Note_on_c, 0, 76, 75
2, 52343, Note_on_c, 0, 76, 0
2, 52344, Note_on_c, 0, 78, 75
2, 52367, Note_on_c, 0, 78, 0
2, 52368, Note_on_c, 0, 76, 75
2, 52391, Note_on_c, 0, 76, 0
2, 52392, Note_on_c, 0, 75, 75
2, 52415, Note_on_c, 0, 75, 0
2, 52416, Note_on_c, 0, 73, 75
2, 52461, Note_on_c, 0, 73, 0
2, 52464, Note_on_c, 0, 78, 75
2, 52509, Note_on_c, 0, 78, 0
2, 52512, Note_on_c, 0, 78, 75
2, 52535, Note_on_c, 0, 78, 0
2, 52536, Note_on_c, 0, 80, 75
2, 52559, Note_on_c, 0, 80, 0
2, 52560, Note_on_c, 0, 81, 75
2, 52583, Note_on_c, 0, 81, 0
2, 52584, Note_on_c, 0, 80, 75
2, 52607, Note_on_c, 0, 80, 0
2, 52608, Note_on_c, 0, 83, 75
2, 52631, Note_on_c, 0, 83, 0
2, 52632, Note_on_c, 0, 81, 73
2, 52655, Note_on_c, 0, 81, 0
2, 52656, Note_on_c, 0, 80, 72
2, 52679, Note_on_c, 0, 80, 0
2, 52680, Note_on_c, 0, 78, 70
2, 52703, Note_on_c, 0, 78, 0
2, 52704, Note_on_c, 0, 76, 69
2, 52749, Note_on_c, 0, 76, 0
2, 52752, Note_on_c, 0, 83, 69
2, 52797, Note_on_c, 0, 83, 0
2, 52800, Note_on_c, 0, 83, 69
2, 52845, Note_on_c, 0, 83, 0
2, 52848, Note_on_c, 0, 83, 69
2, 52893, Note_on_c, 0, 83, 0
2, 52896, Note_on_c, 0, 83, 69
2, 52930, Note_on_c, 0, 83, 0
2, 52932, Note_on_c, 0, 81, 69
2, 52938, Note_on_c, 0, 81, 0
2, 52938, Note_on_c, 0, 83, 69
2, 52944, Note_on_c, 0, 83, 0
2, 52944, Note_on_c, 0, 85, 69
2, 52959, Note_on_c, 0, 85, 0
2, 52960, Note_on_c, 0, 83, 69
2, 52975, Note_on_c, 0, 83, 0
2, 52976, Note_on_c, 0, 81, 69
2, 52991, Note_on_c, 0, 81, 0
2, 52992, Note_on_c, 0, 80, 69
2, 53037, Note_on_c, 0, 80, 0
2, 53040, Note_on_c, 0, 80, 69
2, 53085, Note_on_c, 0, 80, 0
2, 53088, Note_on_c, 0, 80, 69
2, 53133, Note_on_c, 0, 80, 0
2, 53136, Note_on_c, 0, 80, 69
2, 53181, Note_on_c, 0, 80, 0
2, 53184, Note_on_c, 0, 80, 69
2, 53218, Note_on_c, 0, 80, 0
2, 53220, Note_on_c, 0, 78, 69
2, 53226, Note_on_c, 0, 78, 0
2, 53226, Note_on_c, 0, 80, 69
2, 53232, Note_on_c, 0, 80, 0
2, 53232, Note_on_c, 0, 81, 69
2, 53247, Note_on_c, 0, 81, 0
2, 53248, Note_on_c, 0, 80, 69
2, 53263, Note_on_c, 0, 80, 0
2, 53264, Note_on_c, 0, 78, 69
2, 53279, Note_on_c, 0, 78, 0
2, 53280, Note_on_c, 0, 76, 69
2, 53325, Note_on_c, 0, 76, 0
2, 53328, Note_on_c, 0, 76, 69
2, 53373, Note_on_c, 0, 76, 0
2, 53376, Note_on_c, 0, 76, 69
2, 53421, Note_on_c, 0, 76, 0
2, 53424, Note_on_c, 0, 76, 69
2, 53469, Note_on_c, 0, 76, 0
2, 53472, Note_on_c, 0, 76, 69
2, 53506, Note_on_c, 0, 76, 0
2, 53508, Note_on_c, 0, 74, 69
2, 53514, Note_on_c, 0, 74, 0
2, 53514, Note_on_c, 0, 76, 69
2, 53520, Note_on_c, 0, 76, 0
2, 53520, Note_on_c, 0, 78, 69
2, 53535, Note_on_c, 0, 78, 0
2, 53536, Note_on_c, 0, 76, 69
2, 53551, Note_on_c, 0, 76, 0
2, 53552, Note_on_c, 0, 74, 69
2, 53567, Note_on_c, 0, 74, 0
2, 53568, Note_on_c, 0, 73, 69
2, 53613, Note_on_c, 0, 73, 0
2, 53616, Note_on_c, 0, 78, 69
2, 53661, Note_on_c, 0, 78, 0
2, 53664, Note_on_c, 0, 78, 69
2, 53687, Note_on_c, 0, 78, 0
2, 53688, Note_on_c, 0, 80, 69
2, 53711, Note_on_c, 0, 80, 0
2, 53712, Note_on_c, 0, 81, 69
2, 53735, Note_on_c, 0, 81, 0
2, 53736, Note_on_c, 0, 80, 69
2, 53759, Note_on_c, 0, 80, 0
2, 53760, Note_on_c, 0, 83, 69
2, 53783, Note_on_c, 0, 83, 0
2, 53784, Note_on_c, 0, 81, 69
2, 53807, Note_on_c, 0, 81, 0
2, 53808, Note_on_c, 0, 80, 69
2, 53831, Note_on_c, 0, 80, 0
2, 53832, Note_on_c, 0, 78, 69
2, 53855, Note_on_c, 0, 78, 0
2, 53856, Note_on_c, 0, 76, 69
2, 53945, Note_on_c, 0, 76, 0
2, 54192, Note_on_c, 0, 79, 69
2, 54192, Note_on_c, 0, 76, 69
2, 54212, Note_on_c, 0, 79, 0
2, 54212, Note_on_c, 0, 76, 0
2, 54240, Note_on_c, 0, 79, 69
2, 54240, Note_on_c, 0, 76, 69
2, 54260, Note_on_c, 0, 79, 0
2, 54260, Note_on_c, 0, 76, 0
2, 54288, Note_on_c, 0, 79, 69
2, 54288, Note_on_c, 0, 76, 69
2, 54308, Note_on_c, 0, 79, 0
2, 54308, Note_on_c, 0, 76, 0
2, 54336, Note_on_c, 0, 79, 69
2, 54336, Note_on_c, 0, 76, 69
2, 54359, Note_on_c, 0, 79, 0
2, 54359, Note_on_c, 0, 76, 0
2, 54360, Note_on_c, 0, 81, 69
2, 54360, Note_on_c, 0, 78, 69
2, 54383, Note_on_c, 0, 81, 0
2, 54383, Note_on_c, 0, 78, 0
2, 54384, Note_on_c, 0, 79, 69
2, 54384, Note_on_c, 0, 76, 69
2, 54407, Note_on_c, 0, 79, 0
2, 54407, Note_on_c, 0, 76, 0
2, 54408, Note_on_c, 0, 78, 69
2, 54408, Note_on_c, 0, 74, 69
2, 54431, Note_on_c, 0, 78, 0
2, 54431, Note_on_c, 0, 74, 0
2, 54432, Note_on_c, 0, 76, 69
2, 54765, Note_on_c, 0, 76, 0
2, 54768, Note_on_c, 0, 85, 69
2, 54813, Note_on_c, 0, 85, 0
2, 54816, Note_on_c, 0, 85, 69
2, 54861, Note_on_c, 0, 85, 0
2, 54864, Note_on_c, 0, 79, 69
2, 54909, Note_on_c, 0, 79, 0
2, 54912, Note_on_c, 0, 78, 69
2, 54918, Note_on_c, 0, 78, 0
2, 54918, Note_on_c, 0, 79, 69
2, 54924, Note_on_c, 0, 79, 0
2, 54924, Note_on_c, 0, 78, 69
2, 54959, Note_on_c, 0, 78, 0
2, 54960, Note_on_c, 0, 76, 69
2, 55005, Note_on_c, 0, 76, 0
2, 55008, Note_on_c, 0, 74, 69
2, 55341, Note_on_c, 0, 74, 0
2, 55344, Note_on_c, 0, 83, 69
2, 55389, Note_on_c, 0, 83, 0
2, 55392, Note_on_c, 0, 83, 69
2, 55437, Note_on_c, 0, 83, 0
2, 55440, Note_on_c, 0, 78, 69
2, 55485, Note_on_c, 0, 78, 0
2, 55488, Note_on_c, 0, 76, 69
2, 55494, Note_on_c, 0, 76, 0
2, 55494, Note_on_c, 0, 78, 69
2, 55500, Note_on_c, 0, 78, 0
2, 55500, Note_on_c, 0, 76, 69
2, 55535, Note_on_c, 0, 76, 0
2, 55536, Note_on_c, 0, 74, 69
2, 55581, Note_on_c, 0, 74, 0
2, 55608, Note_on_c, 0, 73, 69
2, 55631, Note_on_c, 0, 73, 0
2, 55632, Note_on_c, 0, 74, 69
2, 55638, Note_on_c, 0, 74, 0
2, 55638, Note_on_c, 0, 73, 69
2, 55644, Note_on_c, 0, 73, 0
2, 55644, Note_on_c, 0, 71, 69
2, 55650, Note_on_c, 0, 71, 0
2, 55650, Note_on_c, 0, 73, 69
2, 55677, Note_on_c, 0, 73, 0
2, 55704, Note_on_c, 0, 74, 70
2, 55727, Note_on_c, 0, 74, 0
2, 55728, Note_on_c, 0, 76, 70
2, 55734, Note_on_c, 0, 76, 0
2, 55734, Note_on_c, 0, 74, 70
2, 55740, Note_on_c, 0, 74, 0
2, 55740, Note_on_c, 0, 73, 70
2, 55746, Note_on_c, 0, 73, 0
2, 55746, Note_on_c, 0, 74, 70
2, 55773, Note_on_c, 0, 74, 0
2, 55800, Note_on_c, 0, 76, 71
2, 55823, Note_on_c, 0, 76, 0
2, 55824, Note_on_c, 0, 78, 71
2, 55830, Note_on_c, 0, 78, 0
2, 55830, Note_on_c, 0, 76, 71
2, 55836, Note_on_c, 0, 76, 0
2, 55836, Note_on_c, 0, 74, 71
2, 55842, Note_on_c, 0, 74, 0
2, 55842, Note_on_c, 0, 76, 71
2, 55895, Note_on_c, 0, 76, 0
2, 55896, Note_on_c, 0, 77, 72
2, 55919, Note_on_c, 0, 77, 0
2, 55920, Note_on_c, 0, 78, 72
2, 55943, Note_on_c, 0, 78, 0
2, 55944, Note_on_c, 0, 77, 73
2, 55967, Note_on_c, 0, 77, 0
2, 55968, Note_on_c, 0, 78, 73
2, 55991, Note_on_c, 0, 78, 0
2, 55992, Note_on_c, 0, 80, 73
2, 56015, Note_on_c, 0, 80, 0
2, 56016, Note_on_c, 0, 81, 73
2, 56039, Note_on_c, 0, 81, 0
2, 56040, Note_on_c, 0, 80, 74
2, 56063, Note_on_c, 0, 80, 0
2, 56064, Note_on_c, 0, 81, 74
2, 56109, Note_on_c, 0, 81, 0
2, 56112, Note_on_c, 0, 73, 75
2, 56157, Note_on_c, 0, 73, 0
2, 56160, Note_on_c, 0, 74, 75
2, 56168, Note_on_c, 0, 74, 0
2, 56168, Note_on_c, 0, 73, 74
2, 56176, Note_on_c, 0, 73, 0
2, 56176, Note_on_c, 0, 74, 74
2, 56184, Note_on_c, 0, 74, 0
2, 56184, Note_on_c, 0, 73, 74
2, 56192, Note_on_c, 0, 73, 0
2, 56192, Note_on_c, 0, 74, 74
2, 56200, Note_on_c, 0, 74, 0
2, 56200, Note_on_c, 0, 73, 74
2, 56208, Note_on_c, 0, 73, 0
2, 56208, Note_on_c, 0, 74, 73
2, 56216, Note_on_c, 0, 74, 0
2, 56216, Note_on_c, 0, 73, 73
2, 56224, Note_on_c, 0, 73, 0
2, 56224, Note_on_c, 0, 74, 73
2, 56232, Note_on_c, 0, 74, 0
2, 56232, Note_on_c, 0, 73, 73
2, 56240, Note_on_c, 0, 73, 0
2, 56240, Note_on_c, 0, 71, 73
2, 56248, Note_on_c, 0, 71, 0
2, 56248, Note_on_c, 0, 73, 72
2, 56256, Note_on_c, 0, 73, 0
2, 56256, Note_on_c, 0, 71, 72
2, 56345, Note_on_c, 0, 71, 0
2, 56448, Note_on_c, 0, 52, 69
2, 56707, Note_on_c, 0, 52, 0
2, 56712, Note_on_c, 0, 57, 69
2, 56735, Note_on_c, 0, 57, 0
2, 56736, Note_on_c, 0, 57, 69
2, 56825, Note_on_c, 0, 57, 0
2, 56832, Note_on_c, 0, 56, 69
2, 56995, Note_on_c, 0, 56, 0
2, 57000, Note_on_c, 0, 59, 69
2, 57023, Note_on_c, 0, 59, 0
2, 57024, Note_on_c, 0, 59, 69
2, 57113, Note_on_c, 0, 59, 0
2, 57120, Note_on_c, 0, 57, 69
2, 57283, Note_on_c, 0, 57, 0
2, 57288, Note_on_c, 0, 60, 69
2, 57311, Note_on_c, 0, 60, 0
2, 57312, Note_on_c, 0, 60, 69
2, 57401, Note_on_c, 0, 60, 0
2, 57408, Note_on_c, 0, 59, 69
2, 57497, Note_on_c, 0, 59, 0
2, 57504, Note_on_c, 0, 65, 69
2, 57504, Note_on_c, 0, 57, 69
2, 57593, Note_on_c, 0, 65, 0
2, 57593, Note_on_c, 0, 57, 0
2, 57600, Note_on_c, 0, 65, 69
2, 57689, Note_on_c, 0, 65, 0
2, 57696, Note_on_c, 0, 64, 69
2, 57785, Note_on_c, 0, 64, 0
2, 57792, Note_on_c, 0, 62, 69
2, 57881, Note_on_c, 0, 62, 0
2, 57888, Note_on_c, 0, 62, 69
2, 58065, Note_on_c, 0, 62, 0
2, 58080, Note_on_c, 0, 60, 69
2, 58089, Note_on_c, 0, 60, 0
2, 58089, Note_on_c, 0, 62, 69
2, 58098, Note_on_c, 0, 62, 0
2, 58098, Note_on_c, 0, 60, 69
2, 58107, Note_on_c, 0, 60, 0
2, 58107, Note_on_c, 0, 62, 69
2, 58116, Note_on_c, 0, 62, 0
2, 58116, Note_on_c, 0, 60, 69
2, 58125, Note_on_c, 0, 60, 0
2, 58125, Note_on_c, 0, 62, 69
2, 58134, Note_on_c, 0, 62, 0
2, 58134, Note_on_c, 0, 60, 69
2, 58143, Note_on_c, 0, 60, 0
2, 58143, Note_on_c, 0, 62, 69
2, 58152, Note_on_c, 0, 62, 0
2, 58152, Note_on_c, 0, 60, 69
2, 58160, Note_on_c, 0, 60, 0
2, 58160, Note_on_c, 0, 59, 69
2, 58168, Note_on_c, 0, 59, 0
2, 58168, Note_on_c, 0, 60, 69
2, 58176, Note_on_c, 0, 60, 0
2, 58176, Note_on_c, 0, 60, 69
2, 58272, Note_on_c, 0, 60, 0
2, 58272, Note_on_c, 0, 59, 69
2, 58361, Note_on_c, 0, 59, 0
2, 58464, Note_on_c, 0, 57, 75
2, 58729, Note_on_c, 0, 57, 0
2, 58752, Note_on_c, 0, 57, 75
2, 58760, Note_on_c, 0, 62, 75
2, 58768, Note_on_c, 0, 66, 75
2, 59025, Note_on_c, 0, 66, 0
2, 59025, Note_on_c, 0, 62, 0
2, 59025, Note_on_c, 0, 57, 0
2, 59040, Note_on_c, 0, 57, 75
2, 59052, Note_on_c, 0, 57, 0
2, 59052, Note_on_c, 0, 64, 75
2, 59129, Note_on_c, 0, 64, 0
2, 59136, Note_on_c, 0, 69, 75
2, 59266, Note_on_c, 0, 69, 0
2, 59268, Note_on_c, 0, 68, 75
2, 59280, Note_on_c, 0, 68, 0
2, 59280, Note_on_c, 0, 66, 75
2, 59314, Note_on_c, 0, 66, 0
2, 59316, Note_on_c, 0, 64, 75
2, 59328, Note_on_c, 0, 64, 0
2, 59328, Note_on_c, 0, 64, 75
2, 59469, Note_on_c, 0, 64, 0
2, 59472, Note_on_c, 0, 66, 75
2, 59495, Note_on_c, 0, 66, 0
2, 59496, Note_on_c, 0, 64, 75
2, 59519, Note_on_c, 0, 64, 0
2, 59520, Note_on_c, 0, 64, 75
2, 59543, Note_on_c, 0, 64, 0
2, 59544, Note_on_c, 0, 62, 75
2, 59567, Note_on_c, 0, 62, 0
2, 59568, Note_on_c, 0, 61, 75
2, 59591, Note_on_c, 0, 61, 0
2, 59592, Note_on_c, 0, 62, 75
2, 59615, Note_on_c, 0, 62, 0
2, 59616, Note_on_c, 0, 62, 75
2, 59616, Note_on_c, 0, 59, 75
2, 59712, Note_on_c, 0, 62, 0
2, 59712, Note_on_c, 0, 59, 0
2, 59712, Note_on_c, 0, 61, 75
2, 59712, Note_on_c, 0, 57, 75
2, 59801, Note_on_c, 0, 61, 0
2, 59801, Note_on_c, 0, 57, 0
2, 59880, Note_on_c, 0, 61, 75
2, 59903, Note_on_c, 0, 61, 0
2, 59904, Note_on_c, 0, 61, 75
2, 59927, Note_on_c, 0, 61, 0
2, 59928, Note_on_c, 0, 59, 75
2, 59951, Note_on_c, 0, 59, 0
2, 59952, Note_on_c, 0, 56, 75
2, 59975, Note_on_c, 0, 56, 0
2, 59976, Note_on_c, 0, 52, 75
2, 59999, Note_on_c, 0, 52, 0
2, 60000, Note_on_c, 0, 57, 75
2, 60163, Note_on_c, 0, 57, 0
2, 60168, Note_on_c, 0, 61, 75
2, 60191, Note_on_c, 0, 61, 0
2, 60192, Note_on_c, 0, 61, 75
2, 60215, Note_on_c, 0, 61, 0
2, 60216, Note_on_c, 0, 59, 75
2, 60239, Note_on_c, 0, 59, 0
2, 60240, Note_on_c, 0, 56, 75
2, 60263, Note_on_c, 0, 56, 0
2, 60264, Note_on_c, 0, 52, 75
2, 60287, Note_on_c, 0, 52, 0
2, 60288, Note_on_c, 0, 57, 75
2, 60451, Note_on_c, 0, 57, 0
2, 60456, Note_on_c, 0, 61, 75
2, 60479, Note_on_c, 0, 61, 0
2, 60480, Note_on_c, 0, 61, 75
2, 60504, Note_on_c, 0, 61, 0
2, 60504, Note_on_c, 0, 59, 75
2, 60527, Note_on_c, 0, 59, 0
2, 60528, Note_on_c, 0, 56, 75
2, 60538, Note_on_c, 0, 56, 0
2, 60552, Note_on_c, 0, 52, 75
2, 60562, Note_on_c, 0, 52, 0
2, 60576, Note_on_c, 0, 59, 75
2, 60600, Note_on_c, 0, 59, 0
2, 60600, Note_on_c, 0, 57, 75
2, 60623, Note_on_c, 0, 57, 0
2, 60624, Note_on_c, 0, 52, 75
2, 60634, Note_on_c, 0, 52, 0
2, 60648, Note_on_c, 0, 61, 75
2, 60658, Note_on_c, 0, 61, 0
2, 60672, Note_on_c, 0, 61, 75
2, 60696, Note_on_c, 0, 61, 0
2, 60696, Note_on_c, 0, 59, 75
2, 60719, Note_on_c, 0, 59, 0
2, 60720, Note_on_c, 0, 52, 75
2, 60730, Note_on_c, 0, 52, 0
2, 60744, Note_on_c, 0, 62, 75
2, 60754, Note_on_c, 0, 62, 0
2, 60768, Note_on_c, 0, 62, 75
2, 60792, Note_on_c, 0, 62, 0
2, 60792, Note_on_c, 0, 61, 75
2, 60815, Note_on_c, 0, 61, 0
2, 60816, Note_on_c, 0, 52, 75
2, 60826, Note_on_c, 0, 52, 0
2, 60840, Note_on_c, 0, 64, 75
2, 60850, Note_on_c, 0, 64, 0
2, 60864, Note_on_c, 0, 64, 75
2, 60888, Note_on_c, 0, 64, 0
2, 60888, Note_on_c, 0, 62, 75
2, 60911, Note_on_c, 0, 62, 0
2, 60912, Note_on_c, 0, 62, 75
2, 60936, Note_on_c, 0, 62, 0
2, 60936, Note_on_c, 0, 61, 75
2, 60959, Note_on_c, 0, 61, 0
2, 60960, Note_on_c, 0, 61, 75
2, 60984, Note_on_c, 0, 61, 0
2, 60984, Note_on_c, 0, 59, 75
2, 61007, Note_on_c, 0, 59, 0
2, 61008, Note_on_c, 0, 59, 75
2, 61032, Note_on_c, 0, 59, 0
2, 61032, Note_on_c, 0, 57, 75
2, 61055, Note_on_c, 0, 57, 0
2, 61056, Note_on_c, 0, 56, 75
2, 61080, Note_on_c, 0, 56, 0
2, 61080, Note_on_c, 0, 57, 75
2, 61103, Note_on_c, 0, 57, 0
2, 61104, Note_on_c, 0, 57, 76
2, 61128, Note_on_c, 0, 57, 0
2, 61128, Note_on_c, 0, 59, 77
2, 61151, Note_on_c, 0, 59, 0
2, 61152, Note_on_c, 0, 59, 78
2, 61176, Note_on_c, 0, 59, 0
2, 61176, Note_on_c, 0, 61, 78
2, 61199, Note_on_c, 0, 61, 0
2, 61200, Note_on_c, 0, 61, 79
2, 61224, Note_on_c, 0, 61, 0
2, 61224, Note_on_c, 0, 62, 80
2, 61247, Note_on_c, 0, 62, 0
2, 61248, Note_on_c, 0, 62, 81
2, 61272, Note_on_c, 0, 62, 0
2, 61272, Note_on_c, 0, 66, 81
2, 61295, Note_on_c, 0, 66, 0
2, 61296, Note_on_c, 0, 64, 82
2, 61320, Note_on_c, 0, 64, 0
2, 61320, Note_on_c, 0, 62, 83
2, 61343, Note_on_c, 0, 62, 0
2, 61344, Note_on_c, 0, 62, 84
2, 61367, Note_on_c, 0, 62, 0
2, 61368, Note_on_c, 0, 61, 83
2, 61391, Note_on_c, 0, 61, 0
2, 61392, Note_on_c, 0, 61, 82
2, 61415, Note_on_c, 0, 61, 0
2, 61416, Note_on_c, 0, 69, 81
2, 61439, Note_on_c, 0, 69, 0
2, 61440, Note_on_c, 0, 69, 81
2, 61559, Note_on_c, 0, 69, 0
2, 61560, Note_on_c, 0, 64, 77
2, 61583, Note_on_c, 0, 64, 0
2, 61584, Note_on_c, 0, 66, 76
2, 61607, Note_on_c, 0, 66, 0
2, 61608, Note_on_c, 0, 67, 75
2, 61631, Note_on_c, 0, 67, 0
2, 61632, Note_on_c, 0, 67, 75
2, 61655, Note_on_c, 0, 67, 0
2, 61656, Note_on_c, 0, 66, 75
2, 61679, Note_on_c, 0, 66, 0
2, 61680, Note_on_c, 0, 64, 75
2, 61703, Note_on_c, 0, 64, 0
2, 61704, Note_on_c, 0, 62, 75
2, 61727, Note_on_c, 0, 62, 0
2, 61728, Note_on_c, 0, 61, 75
2, 61817, Note_on_c, 0, 61, 0
2, 61824, Note_on_c, 0, 64, 75
2, 61847, Note_on_c, 0, 64, 0
2, 61848, Note_on_c, 0, 62, 75
2, 61871, Note_on_c, 0, 62, 0
2, 61872, Note_on_c, 0, 61, 75
2, 61895, Note_on_c, 0, 61, 0
2, 61896, Note_on_c, 0, 59, 75
2, 61919, Note_on_c, 0, 59, 0
2, 61920, Note_on_c, 0, 57, 75
2, 62009, Note_on_c, 0, 57, 0
2, 62160, Note_on_c, 0, 64, 75
2, 62205, Note_on_c, 0, 64, 0
2, 62208, Note_on_c, 0, 63, 75
2, 62220, Note_on_c, 0, 63, 0
2, 62220, Note_on_c, 0, 64, 75
2, 62232, Note_on_c, 0, 64, 0
2, 62232, Note_on_c, 0, 66, 75
2, 62244, Note_on_c, 0, 66, 0
2, 62244, Note_on_c, 0, 64, 75
2, 62349, Note_on_c, 0, 64, 0
2, 62352, Note_on_c, 0, 66, 75
2, 62375, Note_on_c, 0, 66, 0
2, 62376, Note_on_c, 0, 64, 75
2, 62399, Note_on_c, 0, 64, 0
2, 62400, Note_on_c, 0, 64, 75
2, 62423, Note_on_c, 0, 64, 0
2, 62424, Note_on_c, 0, 62, 75
2, 62447, Note_on_c, 0, 62, 0
2, 62448, Note_on_c, 0, 61, 75
2, 62471, Note_on_c, 0, 61, 0
2, 62472, Note_on_c, 0, 62, 75
2, 62495, Note_on_c, 0, 62, 0
2, 62496, Note_on_c, 0, 62, 75
2, 62585, Note_on_c, 0, 62, 0
2, 62592, Note_on_c, 0, 61, 75
2, 62604, Note_on_c, 0, 61, 0
2, 62604, Note_on_c, 0, 59, 75
2, 62616, Note_on_c, 0, 59, 0
2, 62616, Note_on_c, 0, 61, 75
2, 62681, Note_on_c, 0, 61, 0
2, 62736, Note_on_c, 0, 64, 75
2, 62781, Note_on_c, 0, 64, 0
2, 62784, Note_on_c, 0, 63, 75
2, 62796, Note_on_c, 0, 63, 0
2, 62796, Note_on_c, 0, 64, 75
2, 62808, Note_on_c, 0, 64, 0
2, 62808, Note_on_c, 0, 66, 75
2, 62820, Note_on_c, 0, 66, 0
2, 62820, Note_on_c, 0, 64, 75
2, 62925, Note_on_c, 0, 64, 0
2, 62928, Note_on_c, 0, 62, 75
2, 62951, Note_on_c, 0, 62, 0
2, 62952, Note_on_c, 0, 61, 75
2, 62975, Note_on_c, 0, 61, 0
2, 62976, Note_on_c, 0, 61, 75
2, 62999, Note_on_c, 0, 61, 0
2, 63000, Note_on_c, 0, 59, 75
2, 63023, Note_on_c, 0, 59, 0
2, 63024, Note_on_c, 0, 57, 75
2, 63047, Note_on_c, 0, 57, 0
2, 63048, Note_on_c, 0, 56, 75
2, 63071, Note_on_c, 0, 56, 0
2, 63072, Note_on_c, 0, 56, 75
2, 63168, Note_on_c, 0, 56, 0
2, 63168, Note_on_c, 0, 57, 75
2, 63257, Note_on_c, 0, 57, 0
2, 63312, Note_on_c, 0, 64, 75
2, 63357, Note_on_c, 0, 64, 0
2, 63360, Note_on_c, 0, 63, 75
2, 63383, Note_on_c, 0, 63, 0
2, 63384, Note_on_c, 0, 64, 75
2, 63407, Note_on_c, 0, 64, 0
2, 63408, Note_on_c, 0, 66, 75
2, 63431, Note_on_c, 0, 66, 0
2, 63432, Note_on_c, 0, 64, 75
2, 63455, Note_on_c, 0, 64, 0
2, 63456, Note_on_c, 0, 64, 75
2, 63466, Note_on_c, 0, 64, 0
2, 63480, Note_on_c, 0, 64, 75
2, 63490, Note_on_c, 0, 64, 0
2, 63504, Note_on_c, 0, 66, 75
2, 63528, Note_on_c, 0, 66, 0
2, 63528, Note_on_c, 0, 64, 75
2, 63551, Note_on_c, 0, 64, 0
2, 63552, Note_on_c, 0, 64, 75
2, 63575, Note_on_c, 0, 64, 0
2, 63576, Note_on_c, 0, 62, 75
2, 63599, Note_on_c, 0, 62, 0
2, 63600, Note_on_c, 0, 61, 75
2, 63623, Note_on_c, 0, 61, 0
2, 63624, Note_on_c, 0, 62, 75
2, 63647, Note_on_c, 0, 62, 0
2, 63648, Note_on_c, 0, 62, 75
2, 63737, Note_on_c, 0, 62, 0
2, 63744, Note_on_c, 0, 61, 75
2, 63756, Note_on_c, 0, 61, 0
2, 63756, Note_on_c, 0, 59, 75
2, 63768, Note_on_c, 0, 59, 0
2, 63768, Note_on_c, 0, 61, 75
2, 63833, Note_on_c, 0, 61, 0
2, 63888, Note_on_c, 0, 64, 75
2, 63933, Note_on_c, 0, 64, 0
2, 63936, Note_on_c, 0, 63, 75
2, 63959, Note_on_c, 0, 63, 0
2, 63960, Note_on_c, 0, 64, 75
2, 63983, Note_on_c, 0, 64, 0
2, 63984, Note_on_c, 0, 66, 75
2, 64007, Note_on_c, 0, 66, 0
2, 64008, Note_on_c, 0, 64, 75
2, 64031, Note_on_c, 0, 64, 0
2, 64032, Note_on_c, 0, 66, 75
2, 64055, Note_on_c, 0, 66, 0
2, 64056, Note_on_c, 0, 64, 75
2, 64079, Note_on_c, 0, 64, 0
2, 64080, Note_on_c, 0, 62, 75
2, 64103, Note_on_c, 0, 62, 0
2, 64104, Note_on_c, 0, 61, 75
2, 64127, Note_on_c, 0, 61, 0
2, 64128, Note_on_c, 0, 61, 75
2, 64151, Note_on_c, 0, 61, 0
2, 64152, Note_on_c, 0, 59, 75
2, 64175, Note_on_c, 0, 59, 0
2, 64176, Note_on_c, 0, 57, 75
2, 64199, Note_on_c, 0, 57, 0
2, 64200, Note_on_c, 0, 56, 75
2, 64223, Note_on_c, 0, 56, 0
2, 64224, Note_on_c, 0, 56, 75
2, 64320, Note_on_c, 0, 56, 0
2, 64320, Note_on_c, 0, 57, 75
2, 64365, Note_on_c, 0, 57, 0
2, 64368, Note_on_c, 0, 52, 93
2, 64416, Note_on_c, 0, 52, 0
2, 64416, Note_on_c, 0, 52, 95
2, 64464, Note_on_c, 0, 52, 0
2, 64464, Note_on_c, 0, 53, 97
2, 64512, Note_on_c, 0, 53, 0
2, 64512, Note_on_c, 0, 54, 100
2, 64642, Note_on_c, 0, 54, 0
2, 64644, Note_on_c, 0, 59, 94
2, 64656, Note_on_c, 0, 59, 0
2, 64656, Note_on_c, 0, 58, 95
2, 64690, Note_on_c, 0, 58, 0
2, 64692, Note_on_c, 0, 61, 97
2, 64704, Note_on_c, 0, 61, 0
2, 64704, Note_on_c, 0, 59, 98
2, 64738, Note_on_c, 0, 59, 0
2, 64740, Note_on_c, 0, 62, 101
2, 64752, Note_on_c, 0, 62, 0
2, 64752, Note_on_c, 0, 61, 102
2, 64786, Note_on_c, 0, 61, 0
2, 64788, Note_on_c, 0, 64, 105
2, 64800, Note_on_c, 0, 64, 0
2, 64800, Note_on_c, 0, 62, 106
2, 64834, Note_on_c, 0, 62, 0
2, 64836, Note_on_c, 0, 66, 103
2, 64848, Note_on_c, 0, 66, 0
2, 64848, Note_on_c, 0, 61, 102
2, 64882, Note_on_c, 0, 61, 0
2, 64884, Note_on_c, 0, 64, 99
2, 64896, Note_on_c, 0, 64, 0
2, 64896, Note_on_c, 0, 59, 98
2, 64930, Note_on_c, 0, 59, 0
2, 64932, Note_on_c, 0, 62, 95
2, 64944, Note_on_c, 0, 62, 0
2, 64944, Note_on_c, 0, 58, 95
2, 64978, Note_on_c, 0, 58, 0
2, 64980, Note_on_c, 0, 61, 92
2, 64992, Note_on_c, 0, 61, 0
2, 64992, Note_on_c, 0, 59, 91
2, 65026, Note_on_c, 0, 59, 0
2, 65028, Note_on_c, 0, 62, 88
2, 65040, Note_on_c, 0, 62, 0
2, 65040, Note_on_c, 0, 54, 87
2, 65074, Note_on_c, 0, 54, 0
2, 65076, Note_on_c, 0, 59, 84
2, 65088, Note_on_c, 0, 59, 0
2, 65088, Note_on_c, 0, 52, 84
2, 65218, Note_on_c, 0, 52, 0
2, 65220, Note_on_c, 0, 57, 87
2, 65232, Note_on_c, 0, 57, 0
2, 65232, Note_on_c, 0, 56, 88
2, 65266, Note_on_c, 0, 56, 0
2, 65268, Note_on_c, 0, 59, 92
2, 65280, Note_on_c, 0, 59, 0
2, 65280, Note_on_c, 0, 57, 93
2, 65314, Note_on_c, 0, 57, 0
2, 65316, Note_on_c, 0, 61, 96
2, 65328, Note_on_c, 0, 61, 0
2, 65328, Note_on_c, 0, 59, 97
2, 65362, Note_on_c, 0, 59, 0
2, 65364, Note_on_c, 0, 62, 101
2, 65376, Note_on_c, 0, 62, 0
2, 65376, Note_on_c, 0, 61, 102
2, 65410, Note_on_c, 0, 61, 0
2, 65412, Note_on_c, 0, 64, 106
2, 65424, Note_on_c, 0, 64, 0
2, 65424, Note_on_c, 0, 59, 104
2, 65458, Note_on_c, 0, 59, 0
2, 65460, Note_on_c, 0, 62, 101
2, 65472, Note_on_c, 0, 62, 0
2, 65472, Note_on_c, 0, 57, 100
2, 65506, Note_on_c, 0, 57, 0
2, 65508, Note_on_c, 0, 61, 97
2, 65520, Note_on_c, 0, 61, 0
2, 65520, Note_on_c, 0, 56, 96
2, 65554, Note_on_c, 0, 56, 0
2, 65556, Note_on_c, 0, 59, 93
2, 65568, Note_on_c, 0, 59, 0
2, 65568, Note_on_c, 0, 57, 92
2, 65602, Note_on_c, 0, 57, 0
2, 65604, Note_on_c, 0, 61, 89
2, 65616, Note_on_c, 0, 61, 0
2, 65616, Note_on_c, 0, 52, 88
2, 65650, Note_on_c, 0, 52, 0
2, 65652, Note_on_c, 0, 57, 85
2, 65664, Note_on_c, 0, 57, 0
2, 65664, Note_on_c, 0, 50, 84
2, 65753, Note_on_c, 0, 50, 0
2, 65760, Note_on_c, 0, 62, 75
2, 65760, Note_on_c, 0, 56, 75
2, 65856, Note_on_c, 0, 62, 0
2, 65856, Note_on_c, 0, 56, 0
2, 65856, Note_on_c, 0, 61, 75
2, 65856, Note_on_c, 0, 57, 75
2, 65945, Note_on_c, 0, 61, 0
2, 65945, Note_on_c, 0, 57, 0
2, 65952, Note_on_c, 0, 56, 75
2, 65952, Note_on_c, 0, 50, 75
2, 65997, Note_on_c, 0, 56, 0
2, 65997, Note_on_c, 0, 50, 0
2, 66048, Note_on_c, 0, 62, 75
2, 66048, Note_on_c, 0, 56, 75
2, 66144, Note_on_c, 0, 62, 0
2, 66144, Note_on_c, 0, 56, 0
2, 66144, Note_on_c, 0, 61, 75
2, 66144, Note_on_c, 0, 57, 75
2, 66233, Note_on_c, 0, 61, 0
2, 66233, Note_on_c, 0, 57, 0
2, 66288, Note_on_c, 0, 54, 75
2, 66308, Note_on_c, 0, 54, 0
2, 66336, Note_on_c, 0, 59, 75
2, 66356, Note_on_c, 0, 59, 0
2, 66384, Note_on_c, 0, 62, 75
2, 66404, Note_on_c, 0, 62, 0
2, 66432, Note_on_c, 0, 66, 75
2, 66452, Note_on_c, 0, 66, 0
2, 66480, Note_on_c, 0, 66, 75
2, 66500, Note_on_c, 0, 66, 0
2, 66528, Note_on_c, 0, 66, 75
2, 66647, Note_on_c, 0, 66, 0
2, 66648, Note_on_c, 0, 64, 75
2, 66671, Note_on_c, 0, 64, 0
2, 66672, Note_on_c, 0, 62, 75
2, 66695, Note_on_c, 0, 62, 0
2, 66696, Note_on_c, 0, 61, 75
2, 66719, Note_on_c, 0, 61, 0
2, 66720, Note_on_c, 0, 61, 75
2, 66743, Note_on_c, 0, 61, 0
2, 66744, Note_on_c, 0, 59, 75
2, 66767, Note_on_c, 0, 59, 0
2, 66768, Note_on_c, 0, 57, 75
2, 66791, Note_on_c, 0, 57, 0
2, 66792, Note_on_c, 0, 56, 75
2, 66815, Note_on_c, 0, 56, 0
2, 66816, Note_on_c, 0, 57, 75
2, 66861, Note_on_c, 0, 57, 0
2, 66864, Note_on_c, 0, 76, 61
2, 66884, Note_on_c, 0, 76, 0
2, 66912, Note_on_c, 0, 76, 61
2, 66932, Note_on_c, 0, 76, 0
2, 66960, Note_on_c, 0, 76, 61
2, 66980, Note_on_c, 0, 76, 0
2, 67008, Note_on_c, 0, 76, 61
2, 67031, Note_on_c, 0, 76, 0
2, 67032, Note_on_c, 0, 78, 61
2, 67055, Note_on_c, 0, 78, 0
2, 67056, Note_on_c, 0, 76, 61
2, 67079, Note_on_c, 0, 76, 0
2, 67080, Note_on_c, 0, 74, 61
2, 67103, Note_on_c, 0, 74, 0
2, 67104, Note_on_c, 0, 73, 61
2, 67124, Note_on_c, 0, 73, 0
2, 67152, Note_on_c, 0, 52, 75
2, 67197, Note_on_c, 0, 52, 0
2, 67200, Note_on_c, 0, 52, 75
2, 67223, Note_on_c, 0, 52, 0
2, 67224, Note_on_c, 0, 50, 75
2, 67247, Note_on_c, 0, 50, 0
2, 67248, Note_on_c, 0, 49, 75
2, 67271, Note_on_c, 0, 49, 0
2, 67272, Note_on_c, 0, 50, 75
2, 67295, Note_on_c, 0, 50, 0
2, 67296, Note_on_c, 0, 52, 75
2, 67319, Note_on_c, 0, 52, 0
2, 67320, Note_on_c, 0, 54, 75
2, 67343, Note_on_c, 0, 54, 0
2, 67344, Note_on_c, 0, 56, 75
2, 67367, Note_on_c, 0, 56, 0
2, 67368, Note_on_c, 0, 57, 75
2, 67391, Note_on_c, 0, 57, 0
2, 67392, Note_on_c, 0, 56, 75
2, 67415, Note_on_c, 0, 56, 0
2, 67416, Note_on_c, 0, 54, 75
2, 67439, Note_on_c, 0, 54, 0
2, 67440, Note_on_c, 0, 52, 75
2, 67463, Note_on_c, 0, 52, 0
2, 67464, Note_on_c, 0, 50, 75
2, 67487, Note_on_c, 0, 50, 0
2, 67488, Note_on_c, 0, 50, 75
2, 67511, Note_on_c, 0, 50, 0
2, 67512, Note_on_c, 0, 49, 75
2, 67535, Note_on_c, 0, 49, 0
2, 67536, Note_on_c, 0, 52, 75
2, 67559, Note_on_c, 0, 52, 0
2, 67560, Note_on_c, 0, 45, 75
2, 67583, Note_on_c, 0, 45, 0
2, 67584, Note_on_c, 0, 49, 75
2, 67607, Note_on_c, 0, 49, 0
2, 67608, Note_on_c, 0, 47, 75
2, 67631, Note_on_c, 0, 47, 0
2, 67632, Note_on_c, 0, 45, 75
2, 67655, Note_on_c, 0, 45, 0
2, 67656, Note_on_c, 0, 44, 75
2, 67679, Note_on_c, 0, 44, 0
2, 67680, Note_on_c, 0, 45, 75
2, 67725, Note_on_c, 0, 45, 0
2, 67728, Note_on_c, 0, 76, 61
2, 67773, Note_on_c, 0, 76, 0
2, 67776, Note_on_c, 0, 76, 61
2, 67821, Note_on_c, 0, 76, 0
2, 67824, Note_on_c, 0, 76, 61
2, 67869, Note_on_c, 0, 76, 0
2, 67872, Note_on_c, 0, 76, 61
2, 67906, Note_on_c, 0, 76, 0
2, 67908, Note_on_c, 0, 74, 61
2, 67914, Note_on_c, 0, 74, 0
2, 67914, Note_on_c, 0, 76, 61
2, 67920, Note_on_c, 0, 76, 0
2, 67920, Note_on_c, 0, 78, 61
2, 67935, Note_on_c, 0, 78, 0
2, 67936, Note_on_c, 0, 76, 61
2, 67951, Note_on_c, 0, 76, 0
2, 67952, Note_on_c, 0, 74, 61
2, 67967, Note_on_c, 0, 74, 0
2, 67968, Note_on_c, 0, 73, 61
2, 68013, Note_on_c, 0, 73, 0
2, 68016, Note_on_c, 0, 52, 75
2, 68026, Note_on_c, 0, 52, 0
2, 68040, Note_on_c, 0, 54, 75
2, 68050, Note_on_c, 0, 54, 0
2, 68064, Note_on_c, 0, 52, 75
2, 68074, Note_on_c, 0, 52, 0
2, 68088, Note_on_c, 0, 50, 75
2, 68098, Note_on_c, 0, 50, 0
2, 68112, Note_on_c, 0, 49, 75
2, 68122, Note_on_c, 0, 49, 0
2, 68136, Note_on_c, 0, 50, 75
2, 68146, Note_on_c, 0, 50, 0
2, 68160, Note_on_c, 0, 52, 75
2, 68170, Note_on_c, 0, 52, 0
2, 68184, Note_on_c, 0, 54, 75
2, 68194, Note_on_c, 0, 54, 0
2, 68208, Note_on_c, 0, 56, 75
2, 68218, Note_on_c, 0, 56, 0
2, 68232, Note_on_c, 0, 57, 75
2, 68242, Note_on_c, 0, 57, 0
2, 68256, Note_on_c, 0, 56, 75
2, 68280, Note_on_c, 0, 56, 0
2, 68280, Note_on_c, 0, 54, 75
2, 68303, Note_on_c, 0, 54, 0
2, 68304, Note_on_c, 0, 57, 75
2, 68314, Note_on_c, 0, 57, 0
2, 68328, Note_on_c, 0, 54, 75
2, 68338, Note_on_c, 0, 54, 0
2, 68352, Note_on_c, 0, 54, 75
2, 68376, Note_on_c, 0, 54, 0
2, 68376, Note_on_c, 0, 52, 75
2, 68399, Note_on_c, 0, 52, 0
2, 68400, Note_on_c, 0, 57, 75
2, 68410, Note_on_c, 0, 57, 0
2, 68424, Note_on_c, 0, 52, 75
2, 68434, Note_on_c, 0, 52, 0
2, 68448, Note_on_c, 0, 52, 75
2, 68472, Note_on_c, 0, 52, 0
2, 68472, Note_on_c, 0, 50, 75
2, 68495, Note_on_c, 0, 50, 0
2, 68496, Note_on_c, 0, 59, 75
2, 68506, Note_on_c, 0, 59, 0
2, 68520, Note_on_c, 0, 50, 75
2, 68530, Note_on_c, 0, 50, 0
2, 68544, Note_on_c, 0, 49, 75
2, 68568, Note_on_c, 0, 49, 0
2, 68568, Note_on_c, 0, 52, 75
2, 68591, Note_on_c, 0, 52, 0
2, 68592, Note_on_c, 0, 50, 76
2, 68616, Note_on_c, 0, 50, 0
2, 68616, Note_on_c, 0, 54, 76
2, 68639, Note_on_c, 0, 54, 0
2, 68640, Note_on_c, 0, 52, 77
2, 68664, Note_on_c, 0, 52, 0
2, 68664, Note_on_c, 0, 56, 78
2, 68687, Note_on_c, 0, 56, 0
2, 68688, Note_on_c, 0, 54, 78
2, 68712, Note_on_c, 0, 54, 0
2, 68712, Note_on_c, 0, 57, 79
2, 68735, Note_on_c, 0, 57, 0
2, 68736, Note_on_c, 0, 56, 80
2, 68760, Note_on_c, 0, 56, 0
2, 68760, Note_on_c, 0, 59, 80
2, 68783, Note_on_c, 0, 59, 0
2, 68784, Note_on_c, 0, 57, 81
2, 68808, Note_on_c, 0, 57, 0
2, 68808, Note_on_c, 0, 61, 82
2, 68831, Note_on_c, 0, 61, 0
2, 68832, Note_on_c, 0, 59, 82
2, 68856, Note_on_c, 0, 59, 0
2, 68856, Note_on_c, 0, 62, 83
2, 68879, Note_on_c, 0, 62, 0
2, 68880, Note_on_c, 0, 61, 84
2, 68904, Note_on_c, 0, 61, 0
2, 68904, Note_on_c, 0, 64, 84
2, 68927, Note_on_c, 0, 64, 0
2, 68928, Note_on_c, 0, 62, 85
2, 68952, Note_on_c, 0, 62, 0
2, 68952, Note_on_c, 0, 66, 85
2, 68975, Note_on_c, 0, 66, 0
2, 68976, Note_on_c, 0, 59, 86
2, 69000, Note_on_c, 0, 59, 0
2, 69000, Note_on_c, 0, 62, 87
2, 69023, Note_on_c, 0, 62, 0
2, 69024, Note_on_c, 0, 61, 87
2, 69048, Note_on_c, 0, 61, 0
2, 69048, Note_on_c, 0, 64, 88
2, 69071, Note_on_c, 0, 64, 0
2, 69072, Note_on_c, 0, 57, 89
2, 69096, Note_on_c, 0, 57, 0
2, 69096, Note_on_c, 0, 61, 89
2, 69119, Note_on_c, 0, 61, 0
2, 69168, Note_on_c, 0, 69, 91
2, 69168, Note_on_c, 0, 61, 91
2, 69213, Note_on_c, 0, 69, 0
2, 69213, Note_on_c, 0, 61, 0
2, 69216, Note_on_c, 0, 69, 93
2, 69216, Note_on_c, 0, 61, 93
2, 69261, Note_on_c, 0, 69, 0
2, 69261, Note_on_c, 0, 61, 0
2, 69264, Note_on_c, 0, 69, 94
2, 69264, Note_on_c, 0, 61, 94
2, 69309, Note_on_c, 0, 69, 0
2, 69309, Note_on_c, 0, 61, 0
2, 69312, Note_on_c, 0, 69, 95
2, 69312, Note_on_c, 0, 61, 95
2, 69357, Note_on_c, 0, 69, 0
2, 69357, Note_on_c, 0, 61, 0
2, 69360, Note_on_c, 0, 69, 96
2, 69360, Note_on_c, 0, 61, 96
2, 69405, Note_on_c, 0, 69, 0
2, 69405, Note_on_c, 0, 61, 0
2, 69408, Note_on_c, 0, 69, 98
2, 69408, Note_on_c, 0, 61, 98
2, 69673, Note_on_c, 0, 69, 0
2, 69673, Note_on_c, 0, 61, 0
2, 69744, Note_on_c, 0, 76, 75
2, 69764, Note_on_c, 0, 76, 0
2, 69792, Note_on_c, 0, 76, 75
2, 69812, Note_on_c, 0, 76, 0
2, 69840, Note_on_c, 0, 76, 75
2, 69860, Note_on_c, 0, 76, 0
2, 69888, Note_on_c, 0, 76, 75
2, 69911, Note_on_c, 0, 76, 0
2, 69912, Note_on_c, 0, 78, 75
2, 69935, Note_on_c, 0, 78, 0
2, 69936, Note_on_c, 0, 76, 75
2, 69959, Note_on_c, 0, 76, 0
2, 69960, Note_on_c, 0, 74, 75
2, 69983, Note_on_c, 0, 74, 0
2, 69984, Note_on_c, 0, 73, 91
2, 70004, Note_on_c, 0, 73, 0
2, 70032, Note_on_c, 0, 73, 75
2, 70032, Note_on_c, 0, 69, 75
2, 70052, Note_on_c, 0, 73, 0
2, 70052, Note_on_c, 0, 69, 0
2, 70080, Note_on_c, 0, 73, 75
2, 70080, Note_on_c, 0, 69, 75
2, 70100, Note_on_c, 0, 73, 0
2, 70100, Note_on_c, 0, 69, 0
2, 70128, Note_on_c, 0, 73, 75
2, 70128, Note_on_c, 0, 69, 75
2, 70148, Note_on_c, 0, 73, 0
2, 70148, Note_on_c, 0, 69, 0
2, 70176, Note_on_c, 0, 73, 75
2, 70176, Note_on_c, 0, 69, 75
2, 70199, Note_on_c, 0, 73, 0
2, 70199, Note_on_c, 0, 69, 0
2, 70200, Note_on_c, 0, 74, 75
2, 70200, Note_on_c, 0, 71, 75
2, 70223, Note_on_c, 0, 74, 0
2, 70223, Note_on_c, 0, 71, 0
2, 70224, Note_on_c, 0, 73, 75
2, 70224, Note_on_c, 0, 69, 75
2, 70247, Note_on_c, 0, 73, 0
2, 70247, Note_on_c, 0, 69, 0
2, 70248, Note_on_c, 0, 71, 75
2, 70248, Note_on_c, 0, 68, 75
2, 70271, Note_on_c, 0, 71, 0
2, 70271, Note_on_c, 0, 68, 0
2, 70272, Note_on_c, 0, 69, 75
2, 70272, Note_on_c, 0, 66, 75
2, 70295, Note_on_c, 0, 69, 0
2, 70295, Note_on_c, 0, 66, 0
2, 70296, Note_on_c, 0, 71, 75
2, 70296, Note_on_c, 0, 68, 75
2, 70319, Note_on_c, 0, 71, 0
2, 70319, Note_on_c, 0, 68, 0
2, 70320, Note_on_c, 0, 69, 75
2, 70320, Note_on_c, 0, 66, 75
2, 70343, Note_on_c, 0, 69, 0
2, 70343, Note_on_c, 0, 66, 0
2, 70344, Note_on_c, 0, 68, 75
2, 70344, Note_on_c, 0, 64, 75
2, 70367, Note_on_c, 0, 68, 0
2, 70367, Note_on_c, 0, 64, 0
2, 70368, Note_on_c, 0, 66, 75
2, 70368, Note_on_c, 0, 62, 75
2, 70391, Note_on_c, 0, 66, 0
2, 70391, Note_on_c, 0, 62, 0
2, 70392, Note_on_c, 0, 68, 75
2, 70392, Note_on_c, 0, 64, 75
2, 70415, Note_on_c, 0, 68, 0
2, 70415, Note_on_c, 0, 64, 0
2, 70416, Note_on_c, 0, 66, 75
2, 70416, Note_on_c, 0, 62, 75
2, 70439, Note_on_c, 0, 66, 0
2, 70439, Note_on_c, 0, 62, 0
2, 70440, Note_on_c, 0, 64, 75
2, 70440, Note_on_c, 0, 61, 75
2, 70463, Note_on_c, 0, 64, 0
2, 70463, Note_on_c, 0, 61, 0
2, 70464, Note_on_c, 0, 62, 75
2, 70464, Note_on_c, 0, 59, 75
2, 70487, Note_on_c, 0, 62, 0
2, 70487, Note_on_c, 0, 59, 0
2, 70488, Note_on_c, 0, 64, 75
2, 70488, Note_on_c, 0, 61, 75
2, 70511, Note_on_c, 0, 64, 0
2, 70511, Note_on_c, 0, 61, 0
2, 70512, Note_on_c, 0, 62, 75
2, 70512, Note_on_c, 0, 59, 75
2, 70535, Note_on_c, 0, 62, 0
2, 70535, Note_on_c, 0, 59, 0
2, 70536, Note_on_c, 0, 61, 75
2, 70536, Note_on_c, 0, 57, 75
2, 70559, Note_on_c, 0, 61, 0
2, 70559, Note_on_c, 0, 57, 0
2, 70608, Note_on_c, 0, 74, 75
2, 70628, Note_on_c, 0, 74, 0
2, 70656, Note_on_c, 0, 74, 75
2, 70676, Note_on_c, 0, 74, 0
2, 70704, Note_on_c, 0, 74, 75
2, 70724, Note_on_c, 0, 74, 0
2, 70752, Note_on_c, 0, 74, 75
2, 70775, Note_on_c, 0, 74, 0
2, 70776, Note_on_c, 0, 76, 75
2, 70799, Note_on_c, 0, 76, 0
2, 70800, Note_on_c, 0, 74, 75
2, 70823, Note_on_c, 0, 74, 0
2, 70824, Note_on_c, 0, 73, 75
2, 70847, Note_on_c, 0, 73, 0
2, 70848, Note_on_c, 0, 71, 91
2, 70868, Note_on_c, 0, 71, 0
2, 70896, Note_on_c, 0, 71, 75
2, 70896, Note_on_c, 0, 68, 75
2, 70916, Note_on_c, 0, 71, 0
2, 70916, Note_on_c, 0, 68, 0
2, 70944, Note_on_c, 0, 71, 75
2, 70944, Note_on_c, 0, 68, 75
2, 70964, Note_on_c, 0, 71, 0
2, 70964, Note_on_c, 0, 68, 0
2, 70992, Note_on_c, 0, 71, 75
2, 70992, Note_on_c, 0, 68, 75
2, 71012, Note_on_c, 0, 71, 0
2, 71012, Note_on_c, 0, 68, 0
2, 71040, Note_on_c, 0, 71, 75
2, 71040, Note_on_c, 0, 68, 75
2, 71063, Note_on_c, 0, 71, 0
2, 71063, Note_on_c, 0, 68, 0
2, 71064, Note_on_c, 0, 73, 75
2, 71064, Note_on_c, 0, 69, 75
2, 71087, Note_on_c, 0, 73, 0
2, 71087, Note_on_c, 0, 69, 0
2, 71088, Note_on_c, 0, 71, 75
2, 71088, Note_on_c, 0, 68, 75
2, 71111, Note_on_c, 0, 71, 0
2, 71111, Note_on_c, 0, 68, 0
2, 71112, Note_on_c, 0, 69, 75
2, 71112, Note_on_c, 0, 66, 75
2, 71135, Note_on_c, 0, 69, 0
2, 71135, Note_on_c, 0, 66, 0
2, 71136, Note_on_c, 0, 68, 75
2, 71136, Note_on_c, 0, 64, 75
2, 71159, Note_on_c, 0, 68, 0
2, 71159, Note_on_c, 0, 64, 0
2, 71160, Note_on_c, 0, 69, 75
2, 71160, Note_on_c, 0, 66, 75
2, 71183, Note_on_c, 0, 69, 0
2, 71183, Note_on_c, 0, 66, 0
2, 71184, Note_on_c, 0, 68, 75
2, 71184, Note_on_c, 0, 64, 75
2, 71207, Note_on_c, 0, 68, 0
2, 71207, Note_on_c, 0, 64, 0
2, 71208, Note_on_c, 0, 66, 75
2, 71208, Note_on_c, 0, 62, 75
2, 71231, Note_on_c, 0, 66, 0
2, 71231, Note_on_c, 0, 62, 0
2, 71232, Note_on_c, 0, 64, 75
2, 71232, Note_on_c, 0, 61, 75
2, 71255, Note_on_c, 0, 64, 0
2, 71255, Note_on_c, 0, 61, 0
2, 71256, Note_on_c, 0, 66, 75
2, 71256, Note_on_c, 0, 62, 75
2, 71279, Note_on_c, 0, 66, 0
2, 71279, Note_on_c, 0, 62, 0
2, 71280, Note_on_c, 0, 64, 75
2, 71280, Note_on_c, 0, 61, 75
2, 71303, Note_on_c, 0, 64, 0
2, 71303, Note_on_c, 0, 61, 0
2, 71304, Note_on_c, 0, 62, 75
2, 71304, Note_on_c, 0, 59, 75
2, 71327, Note_on_c, 0, 62, 0
2, 71327, Note_on_c, 0, 59, 0
2, 71328, Note_on_c, 0, 61, 75
2, 71328, Note_on_c, 0, 57, 75
2, 71351, Note_on_c, 0, 61, 0
2, 71351, Note_on_c, 0, 57, 0
2, 71352, Note_on_c, 0, 62, 75
2, 71352, Note_on_c, 0, 59, 75
2, 71375, Note_on_c, 0, 62, 0
2, 71375, Note_on_c, 0, 59, 0
2, 71376, Note_on_c, 0, 61, 75
2, 71376, Note_on_c, 0, 57, 75
2, 71399, Note_on_c, 0, 61, 0
2, 71399, Note_on_c, 0, 57, 0
2, 71400, Note_on_c, 0, 59, 75
2, 71400, Note_on_c, 0, 56, 75
2, 71423, Note_on_c, 0, 59, 0
2, 71423, Note_on_c, 0, 56, 0
2, 71472, Note_on_c, 0, 64, 75
2, 71492, Note_on_c, 0, 64, 0
2, 71520, Note_on_c, 0, 69, 75
2, 71540, Note_on_c, 0, 69, 0
2, 71568, Note_on_c, 0, 73, 75
2, 71588, Note_on_c, 0, 73, 0
2, 71616, Note_on_c, 0, 76, 75
2, 71636, Note_on_c, 0, 76, 0
2, 71664, Note_on_c, 0, 73, 75
2, 71684, Note_on_c, 0, 73, 0
2, 71760, Note_on_c, 0, 64, 75
2, 71780, Note_on_c, 0, 64, 0
2, 71808, Note_on_c, 0, 69, 75
2, 71828, Note_on_c, 0, 69, 0
2, 71856, Note_on_c, 0, 72, 75
2, 71876, Note_on_c, 0, 72, 0
2, 71904, Note_on_c, 0, 76, 75
2, 71924, Note_on_c, 0, 76, 0
2, 71952, Note_on_c, 0, 72, 75
2, 71972, Note_on_c, 0, 72, 0
2, 72024, Note_on_c, 0, 60, 75
2, 72047, Note_on_c, 0, 60, 0
2, 72048, Note_on_c, 0, 62, 75
2, 72071, Note_on_c, 0, 62, 0
2, 72072, Note_on_c, 0, 64, 75
2, 72095, Note_on_c, 0, 64, 0
2, 72096, Note_on_c, 0, 65, 75
2, 72119, Note_on_c, 0, 65, 0
2, 72120, Note_on_c, 0, 67, 75
2, 72143, Note_on_c, 0, 67, 0
2, 72144, Note_on_c, 0, 69, 75
2, 72167, Note_on_c, 0, 69, 0
2, 72168, Note_on_c, 0, 70, 75
2, 72191, Note_on_c, 0, 70, 0
2, 72192, Note_on_c, 0, 72, 75
2, 72212, Note_on_c, 0, 72, 0
2, 72240, Note_on_c, 0, 72, 75
2, 72260, Note_on_c, 0, 72, 0
2, 72312, Note_on_c, 0, 60, 75
2, 72335, Note_on_c, 0, 60, 0
2, 72336, Note_on_c, 0, 62, 75
2, 72359, Note_on_c, 0, 62, 0
2, 72360, Note_on_c, 0, 64, 75
2, 72383, Note_on_c, 0, 64, 0
2, 72384, Note_on_c, 0, 66, 75
2, 72407, Note_on_c, 0, 66, 0
2, 72408, Note_on_c, 0, 68, 75
2, 72431, Note_on_c, 0, 68, 0
2, 72432, Note_on_c, 0, 69, 75
2, 72455, Note_on_c, 0, 69, 0
2, 72456, Note_on_c, 0, 71, 75
2, 72479, Note_on_c, 0, 71, 0
2, 72480, Note_on_c, 0, 72, 75
2, 72500, Note_on_c, 0, 72, 0
2, 72528, Note_on_c, 0, 72, 75
2, 72548, Note_on_c, 0, 72, 0
2, 72600, Note_on_c, 0, 60, 75
2, 72610, Note_on_c, 0, 60, 0
2, 72624, Note_on_c, 0, 63, 75
2, 72634, Note_on_c, 0, 63, 0
2, 72648, Note_on_c, 0, 66, 75
2, 72658, Note_on_c, 0, 66, 0
2, 72672, Note_on_c, 0, 69, 75
2, 72682, Note_on_c, 0, 69, 0
2, 72696, Note_on_c, 0, 72, 75
2, 72706, Note_on_c, 0, 72, 0
2, 72720, Note_on_c, 0, 75, 75
2, 72730, Note_on_c, 0, 75, 0
2, 72744, Note_on_c, 0, 78, 75
2, 72754, Note_on_c, 0, 78, 0
2, 72768, Note_on_c, 0, 81, 75
2, 72778, Note_on_c, 0, 81, 0
2, 72792, Note_on_c, 0, 78, 75
2, 72802, Note_on_c, 0, 78, 0
2, 72816, Note_on_c, 0, 75, 75
2, 72826, Note_on_c, 0, 75, 0
2, 72840, Note_on_c, 0, 72, 75
2, 72850, Note_on_c, 0, 72, 0
2, 72864, Note_on_c, 0, 69, 75
2, 72874, Note_on_c, 0, 69, 0
2, 72888, Note_on_c, 0, 66, 75
2, 72898, Note_on_c, 0, 66, 0
2, 72912, Note_on_c, 0, 63, 75
2, 72922, Note_on_c, 0, 63, 0
2, 72936, Note_on_c, 0, 60, 75
2, 72946, Note_on_c, 0, 60, 0
2, 72960, Note_on_c, 0, 61, 75
2, 73005, Note_on_c, 0, 61, 0
2, 73008, Note_on_c, 0, 69, 91
2, 73079, Note_on_c, 0, 69, 0
2, 73080, Note_on_c, 0, 64, 75
2, 73103, Note_on_c, 0, 64, 0
2, 73104, Note_on_c, 0, 66, 75
2, 73127, Note_on_c, 0, 66, 0
2, 73128, Note_on_c, 0, 67, 75
2, 73151, Note_on_c, 0, 67, 0
2, 73152, Note_on_c, 0, 67, 75
2, 73175, Note_on_c, 0, 67, 0
2, 73176, Note_on_c, 0, 66, 75
2, 73199, Note_on_c, 0, 66, 0
2, 73200, Note_on_c, 0, 64, 75
2, 73223, Note_on_c, 0, 64, 0
2, 73224, Note_on_c, 0, 62, 75
2, 73247, Note_on_c, 0, 62, 0
2, 73248, Note_on_c, 0, 61, 75
2, 73337, Note_on_c, 0, 61, 0
2, 73344, Note_on_c, 0, 64, 75
2, 73367, Note_on_c, 0, 64, 0
2, 73368, Note_on_c, 0, 62, 75
2, 73391, Note_on_c, 0, 62, 0
2, 73392, Note_on_c, 0, 61, 75
2, 73415, Note_on_c, 0, 61, 0
2, 73416, Note_on_c, 0, 59, 75
2, 73439, Note_on_c, 0, 59, 0
2, 73440, Note_on_c, 0, 61, 75
2, 73455, Note_on_c, 0, 61, 0
2, 73456, Note_on_c, 0, 57, 75
2, 73471, Note_on_c, 0, 57, 0
2, 73472, Note_on_c, 0, 61, 75
2, 73487, Note_on_c, 0, 61, 0
2, 73488, Note_on_c, 0, 64, 75
2, 73503, Note_on_c, 0, 64, 0
2, 73504, Note_on_c, 0, 61, 75
2, 73519, Note_on_c, 0, 61, 0
2, 73520, Note_on_c, 0, 64, 75
2, 73535, Note_on_c, 0, 64, 0
2, 73536, Note_on_c, 0, 69, 75
2, 73551, Note_on_c, 0, 69, 0
2, 73552, Note_on_c, 0, 64, 75
2, 73567, Note_on_c, 0, 64, 0
2, 73568, Note_on_c, 0, 69, 75
2, 73583, Note_on_c, 0, 69, 0
2, 73584, Note_on_c, 0, 73, 75
2, 73599, Note_on_c, 0, 73, 0
2, 73600, Note_on_c, 0, 69, 75
2, 73615, Note_on_c, 0, 69, 0
2, 73616, Note_on_c, 0, 73, 75
2, 73631, Note_on_c, 0, 73, 0
2, 73632, Note_on_c, 0, 76, 75
2, 73642, Note_on_c, 0, 76, 0
2, 73656, Note_on_c, 0, 64, 75
2, 73679, Note_on_c, 0, 64, 0
2, 73680, Note_on_c, 0, 66, 75
2, 73703, Note_on_c, 0, 66, 0
2, 73704, Note_on_c, 0, 67, 75
2, 73727, Note_on_c, 0, 67, 0
2, 73728, Note_on_c, 0, 67, 75
2, 73752, Note_on_c, 0, 67, 0
2, 73752, Note_on_c, 0, 66, 75
2, 73775, Note_on_c, 0, 66, 0
2, 73776, Note_on_c, 0, 74, 75
2, 73800, Note_on_c, 0, 74, 0
2, 73800, Note_on_c, 0, 71, 75
2, 73823, Note_on_c, 0, 71, 0
2, 73824, Note_on_c, 0, 69, 75
2, 73913, Note_on_c, 0, 69, 0
2, 73920, Note_on_c, 0, 68, 75
2, 73929, Note_on_c, 0, 68, 0
2, 73929, Note_on_c, 0, 69, 75
2, 73938, Note_on_c, 0, 69, 0
2, 73938, Note_on_c, 0, 68, 75
2, 73947, Note_on_c, 0, 68, 0
2, 73947, Note_on_c, 0, 69, 75
2, 73956, Note_on_c, 0, 69, 0
2, 73956, Note_on_c, 0, 68, 75
2, 73965, Note_on_c, 0, 68, 0
2, 73965, Note_on_c, 0, 69, 75
2, 73974, Note_on_c, 0, 69, 0
2, 73974, Note_on_c, 0, 68, 75
2, 73983, Note_on_c, 0, 68, 0
2, 73983, Note_on_c, 0, 69, 75
2, 73992, Note_on_c, 0, 69, 0
2, 73992, Note_on_c, 0, 68, 75
2, 74000, Note_on_c, 0, 68, 0
2, 74000, Note_on_c, 0, 66, 75
2, 74008, Note_on_c, 0, 66, 0
2, 74008, Note_on_c, 0, 68, 75
2, 74016, Note_on_c, 0, 68, 0
2, 74016, Note_on_c, 0, 69, 75
2, 74105, Note_on_c, 0, 69, 0
2, 74160, Note_on_c, 0, 64, 75
2, 74160, Note_on_c, 0, 61, 75
2, 74194, Note_on_c, 0, 64, 0
2, 74194, Note_on_c, 0, 61, 0
2, 74196, Note_on_c, 0, 66, 75
2, 74196, Note_on_c, 0, 62, 75
2, 74208, Note_on_c, 0, 66, 0
2, 74208, Note_on_c, 0, 62, 0
2, 74208, Note_on_c, 0, 64, 75
2, 74208, Note_on_c, 0, 61, 75
2, 74228, Note_on_c, 0, 64, 0
2, 74228, Note_on_c, 0, 61, 0
2, 74256, Note_on_c, 0, 62, 75
2, 74256, Note_on_c, 0, 59, 75
2, 74276, Note_on_c, 0, 62, 0
2, 74276, Note_on_c, 0, 59, 0
2, 74304, Note_on_c, 0, 62, 75
2, 74304, Note_on_c, 0, 59, 75
2, 74393, Note_on_c, 0, 62, 0
2, 74393, Note_on_c, 0, 59, 0
2, 74400, Note_on_c, 0, 61, 75
2, 74400, Note_on_c, 0, 57, 75
2, 74445, Note_on_c, 0, 61, 0
2, 74445, Note_on_c, 0, 57, 0
2, 74448, Note_on_c, 0, 64, 75
2, 74448, Note_on_c, 0, 61, 75
2, 74482, Note_on_c, 0, 64, 0
2, 74482, Note_on_c, 0, 61, 0
2, 74484, Note_on_c, 0, 66, 75
2, 74484, Note_on_c, 0, 62, 75
2, 74496, Note_on_c, 0, 66, 0
2, 74496, Note_on_c, 0, 62, 0
2, 74496, Note_on_c, 0, 64, 75
2, 74496, Note_on_c, 0, 61, 75
2, 74516, Note_on_c, 0, 64, 0
2, 74516, Note_on_c, 0, 61, 0
2, 74544, Note_on_c, 0, 68, 75
2, 74544, Note_on_c, 0, 59, 75
2, 74564, Note_on_c, 0, 68, 0
2, 74564, Note_on_c, 0, 59, 0
2, 74592, Note_on_c, 0, 68, 75
2, 74592, Note_on_c, 0, 59, 75
2, 74688, Note_on_c, 0, 68, 0
2, 74688, Note_on_c, 0, 59, 0
2, 74688, Note_on_c, 0, 69, 75
2, 74688, Note_on_c, 0, 61, 75
2, 74777, Note_on_c, 0, 69, 0
2, 74777, Note_on_c, 0, 61, 0
2, 74880, End_track
3, 0, Start_track
3, 0, Program_c, 0, 0
3, 0, Control_c, 0, 7, 127
3, 0, Control_c, 0, 10, 64
3, 3552, Note_on_c, 0, 57, 64
3, 3729, Note_on_c, 0, 57, 0
3, 3744, Note_on_c, 0, 59, 64
3, 3921, Note_on_c, 0, 59, 0
3, 17664, Note_on_c, 0, 57, 64
3, 17841, Note_on_c, 0, 57, 0
3, 17856, Note_on_c, 0, 59, 64
3, 18033, Note_on_c, 0, 59, 0
3, 31104, Note_on_c, 0, 73, 64
3, 31437, Note_on_c, 0, 73, 0
3, 31440, Note_on_c, 0, 76, 64
3, 31485, Note_on_c, 0, 76, 0
3, 31488, Note_on_c, 0, 76, 64
3, 31533, Note_on_c, 0, 76, 0
3, 31536, Note_on_c, 0, 76, 64
3, 31581, Note_on_c, 0, 76, 0
3, 31584, Note_on_c, 0, 74, 64
3, 31629, Note_on_c, 0, 74, 0
3, 31632, Note_on_c, 0, 73, 64
3, 31677, Note_on_c, 0, 73, 0
3, 31680, Note_on_c, 0, 71, 64
3, 32013, Note_on_c, 0, 71, 0
3, 32016, Note_on_c, 0, 74, 64
3, 32061, Note_on_c, 0, 74, 0
3, 32064, Note_on_c, 0, 74, 64
3, 32109, Note_on_c, 0, 74, 0
3, 32112, Note_on_c, 0, 74, 64
3, 32157, Note_on_c, 0, 74, 0
3, 32160, Note_on_c, 0, 73, 64
3, 32205, Note_on_c, 0, 73, 0
3, 32208, Note_on_c, 0, 71, 64
3, 32253, Note_on_c, 0, 71, 0
3, 34272, Note_on_c, 0, 56, 64
3, 34435, Note_on_c, 0, 56, 0
3, 34440, Note_on_c, 0, 57, 64
3, 34463, Note_on_c, 0, 57, 0
3, 34464, Note_on_c, 0, 59, 64
3, 34553, Note_on_c, 0, 59, 0
3, 34560, Note_on_c, 0, 59, 64
3, 34737, Note_on_c, 0, 59, 0
3, 34752, Note_on_c, 0, 57, 64
3, 34841, Note_on_c, 0, 57, 0
3, 34848, Note_on_c, 0, 57, 64
3, 34937, Note_on_c, 0, 57, 0
3, 34944, Note_on_c, 0, 56, 64
3, 35033, Note_on_c, 0, 56, 0
3, 35808, Note_on_c, 0, 57, 64
3, 35985, Note_on_c, 0, 57, 0
3, 36000, Note_on_c, 0, 59, 64
3, 36177, Note_on_c, 0, 59, 0
3, 54432, Note_on_c, 0, 73, 64
3, 54765, Note_on_c, 0, 73, 0
3, 54768, Note_on_c, 0, 76, 64
3, 54813, Note_on_c, 0, 76, 0
3, 54816, Note_on_c, 0, 76, 64
3, 54861, Note_on_c, 0, 76, 0
3, 54864, Note_on_c, 0, 76, 64
3, 54909, Note_on_c, 0, 76, 0
3, 54912, Note_on_c, 0, 74, 64
3, 54957, Note_on_c, 0, 74, 0
3, 54960, Note_on_c, 0, 73, 64
3, 55005, Note_on_c, 0, 73, 0
3, 55008, Note_on_c, 0, 71, 64
3, 55341, Note_on_c, 0, 71, 0
3, 55344, Note_on_c, 0, 74, 64
3, 55389, Note_on_c, 0, 74, 0
3, 55392, Note_on_c, 0, 74, 64
3, 55437, Note_on_c, 0, 74, 0
3, 55440, Note_on_c, 0, 74, 64
3, 55485, Note_on_c, 0, 74, 0
3, 55488, Note_on_c, 0, 73, 64
3, 55533, Note_on_c, 0, 73, 0
3, 55536, Note_on_c, 0, 71, 64
3, 55581, Note_on_c, 0, 71, 0
3, 57600, Note_on_c, 0, 56, 64
3, 57763, Note_on_c, 0, 56, 0
3, 57768, Note_on_c, 0, 57, 64
3, 57791, Note_on_c, 0, 57, 0
3, 57792, Note_on_c, 0, 59, 64
3, 57881, Note_on_c, 0, 59, 0
3, 57888, Note_on_c, 0, 59, 64
3, 58065, Note_on_c, 0, 59, 0
3, 58080, Note_on_c, 0, 57, 64
3, 58169, Note_on_c, 0, 57, 0
3, 58176, Note_on_c, 0, 57, 64
3, 58265, Note_on_c, 0, 57, 0
3, 58272, Note_on_c, 0, 56, 64
3, 58361, Note_on_c, 0, 56, 0
3, 59136, Note_on_c, 0, 57, 64
3, 59313, Note_on_c, 0, 57, 0
3, 59328, Note_on_c, 0, 59, 64
3, 59505, Note_on_c, 0, 59, 0
3, 74880, End_track
4, 0, Start_track
4, 0, Program_c, 1, 0
4, 0, Control_c, 1, 7, 127
4, 0, Control_c, 1, 10, 64
4, 0, Note_on_c, 1, 33, 64
4, 89, Note_on_c, 1, 33, 0
4, 96, Note_on_c, 1, 73, 64
4, 135, Note_on_c, 1, 73, 0
4, 192, Note_on_c, 1, 68, 64
4, 231, Note_on_c, 1, 68, 0
4, 288, Note_on_c, 1, 69, 64
4, 327, Note_on_c, 1, 69, 0
4, 480, Note_on_c, 1, 64, 64
4, 519, Note_on_c, 1, 64, 0
4, 576, Note_on_c, 1, 66, 64
4, 615, Note_on_c, 1, 66, 0
4, 768, Note_on_c, 1, 61, 64
4, 807, Note_on_c, 1, 61, 0
4, 864, Note_on_c, 1, 62, 64
4, 903, Note_on_c, 1, 62, 0
4, 1056, Note_on_c, 1, 64, 64
4, 1145, Note_on_c, 1, 64, 0
4, 1152, Note_on_c, 1, 33, 64
4, 1241, Note_on_c, 1, 33, 0
4, 1248, Note_on_c, 1, 73, 69
4, 1248, Note_on_c, 1, 69, 69
4, 1344, Note_on_c, 1, 73, 0
4, 1344, Note_on_c, 1, 69, 0
4, 1344, Note_on_c, 1, 71, 69
4, 1344, Note_on_c, 1, 68, 69
4, 1433, Note_on_c, 1, 71, 0
4, 1433, Note_on_c, 1, 68, 0
4, 1536, Note_on_c, 1, 69, 69
4, 1536, Note_on_c, 1, 66, 69
4, 1632, Note_on_c, 1, 69, 0
4, 1632, Note_on_c, 1, 66, 0
4, 1632, Note_on_c, 1, 68, 69
4, 1632, Note_on_c, 1, 64, 69
4, 1721, Note_on_c, 1, 68, 0
4, 1721, Note_on_c, 1, 64, 0
4, 1824, Note_on_c, 1, 66, 69
4, 1824, Note_on_c, 1, 62, 69
4, 1920, Note_on_c, 1, 66, 0
4, 1920, Note_on_c, 1, 62, 0
4, 1920, Note_on_c, 1, 64, 69
4, 1920, Note_on_c, 1, 61, 69
4, 2009, Note_on_c, 1, 64, 0
4, 2009, Note_on_c, 1, 61, 0
4, 2016, Note_on_c, 1, 62, 69
4, 2105, Note_on_c, 1, 62, 0
4, 2208, Note_on_c, 1, 64, 69
4, 2297, Note_on_c, 1, 64, 0
4, 2304, Note_on_c, 1, 57, 69
4, 2349, Note_on_c, 1, 57, 0
4, 2352, Note_on_c, 1, 52, 84
4, 2397, Note_on_c, 1, 52, 0
4, 2400, Note_on_c, 1, 52, 84
4, 2445, Note_on_c, 1, 52, 0
4, 2448, Note_on_c, 1, 52, 84
4, 2493, Note_on_c, 1, 52, 0
4, 2496, Note_on_c, 1, 52, 84
4, 2519, Note_on_c, 1, 52, 0
4, 2520, Note_on_c, 1, 54, 84
4, 2543, Note_on_c, 1, 54, 0
4, 2544, Note_on_c, 1, 52, 84
4, 2567, Note_on_c, 1, 52, 0
4, 2568, Note_on_c, 1, 50, 84
4, 2591, Note_on_c, 1, 50, 0
4, 2592, Note_on_c, 1, 49, 84
4, 2637, Note_on_c, 1, 49, 0
4, 2640, Note_on_c, 1, 49, 84
4, 2685, Note_on_c, 1, 49, 0
4, 2688, Note_on_c, 1, 49, 84
4, 2733, Note_on_c, 1, 49, 0
4, 2736, Note_on_c, 1, 49, 84
4, 2781, Note_on_c, 1, 49, 0
4, 2784, Note_on_c, 1, 49, 84
4, 2807, Note_on_c, 1, 49, 0
4, 2808, Note_on_c, 1, 50, 84
4, 2831, Note_on_c, 1, 50, 0
4, 2832, Note_on_c, 1, 49, 84
4, 2855, Note_on_c, 1, 49, 0
4, 2856, Note_on_c, 1, 47, 84
4, 2879, Note_on_c, 1, 47, 0
4, 2880, Note_on_c, 1, 45, 75
4, 2925, Note_on_c, 1, 45, 0
4, 2928, Note_on_c, 1, 33, 75
4, 2948, Note_on_c, 1, 33, 0
4, 2976, Note_on_c, 1, 45, 75
4, 2996, Note_on_c, 1, 45, 0
4, 3024, Note_on_c, 1, 49, 75
4, 3044, Note_on_c, 1, 49, 0
4, 3072, Note_on_c, 1, 52, 75
4, 3092, Note_on_c, 1, 52, 0
4, 3120, Note_on_c, 1, 49, 75
4, 3140, Note_on_c, 1, 49, 0
4, 3216, Note_on_c, 1, 33, 75
4, 3236, Note_on_c, 1, 33, 0
4, 3264, Note_on_c, 1, 45, 75
4, 3284, Note_on_c, 1, 45, 0
4, 3312, Note_on_c, 1, 50, 75
4, 3332, Note_on_c, 1, 50, 0
4, 3360, Note_on_c, 1, 54, 75
4, 3380, Note_on_c, 1, 54, 0
4, 3408, Note_on_c, 1, 50, 75
4, 3428, Note_on_c, 1, 50, 0
4, 3504, Note_on_c, 1, 52, 69
4, 3504, Note_on_c, 1, 49, 69
4, 3551, Note_on_c, 1, 52, 0
4, 3551, Note_on_c, 1, 49, 0
4, 3600, Note_on_c, 1, 52, 69
4, 3600, Note_on_c, 1, 49, 69
4, 3647, Note_on_c, 1, 52, 0
4, 3647, Note_on_c, 1, 49, 0
4, 3648, Note_on_c, 1, 52, 69
4, 3648, Note_on_c, 1, 49, 69
4, 3695, Note_on_c, 1, 52, 0
4, 3695, Note_on_c, 1, 49, 0
4, 3696, Note_on_c, 1, 52, 69
4, 3696, Note_on_c, 1, 49, 69
4, 3743, Note_on_c, 1, 52, 0
4, 3743, Note_on_c, 1, 49, 0
4, 3792, Note_on_c, 1, 52, 69
4, 3792, Note_on_c, 1, 44, 69
4, 3839, Note_on_c, 1, 52, 0
4, 3839, Note_on_c, 1, 44, 0
4, 3840, Note_on_c, 1, 52, 69
4, 3840, Note_on_c, 1, 44, 69
4, 3887, Note_on_c, 1, 52, 0
4, 3887, Note_on_c, 1, 44, 0
4, 3888, Note_on_c, 1, 52, 69
4, 3888, Note_on_c, 1, 44, 69
4, 3935, Note_on_c, 1, 52, 0
4, 3935, Note_on_c, 1, 44, 0
4, 3936, Note_on_c, 1, 52, 69
4, 3936, Note_on_c, 1, 44, 69
4, 3983, Note_on_c, 1, 52, 0
4, 3983, Note_on_c, 1, 44, 0
4, 3984, Note_on_c, 1, 52, 69
4, 3984, Note_on_c, 1, 44, 69
4, 4031, Note_on_c, 1, 52, 0
4, 4031, Note_on_c, 1, 44, 0
4, 4080, Note_on_c, 1, 52, 69
4, 4080, Note_on_c, 1, 45, 69
4, 4127, Note_on_c, 1, 52, 0
4, 4127, Note_on_c, 1, 45, 0
4, 4128, Note_on_c, 1, 52, 69
4, 4128, Note_on_c, 1, 45, 69
4, 4175, Note_on_c, 1, 52, 0
4, 4175, Note_on_c, 1, 45, 0
4, 4176, Note_on_c, 1, 52, 69
4, 4176, Note_on_c, 1, 45, 69
4, 4223, Note_on_c, 1, 52, 0
4, 4223, Note_on_c, 1, 45, 0
4, 4224, Note_on_c, 1, 52, 69
4, 4224, Note_on_c, 1, 45, 69
4, 4271, Note_on_c, 1, 52, 0
4, 4271, Note_on_c, 1, 45, 0
4, 4272, Note_on_c, 1, 52, 69
4, 4272, Note_on_c, 1, 45, 69
4, 4319, Note_on_c, 1, 52, 0
4, 4319, Note_on_c, 1, 45, 0
4, 4368, Note_on_c, 1, 52, 69
4, 4368, Note_on_c, 1, 50, 69
4, 4415, Note_on_c, 1, 52, 0
4, 4415, Note_on_c, 1, 50, 0
4, 4416, Note_on_c, 1, 52, 69
4, 4416, Note_on_c, 1, 49, 69
4, 4463, Note_on_c, 1, 52, 0
4, 4463, Note_on_c, 1, 49, 0
4, 4464, Note_on_c, 1, 52, 69
4, 4464, Note_on_c, 1, 49, 69
4, 4511, Note_on_c, 1, 52, 0
4, 4511, Note_on_c, 1, 49, 0
4, 4512, Note_on_c, 1, 52, 69
4, 4512, Note_on_c, 1, 49, 69
4, 4559, Note_on_c, 1, 52, 0
4, 4559, Note_on_c, 1, 49, 0
4, 4560, Note_on_c, 1, 52, 69
4, 4560, Note_on_c, 1, 49, 69
4, 4607, Note_on_c, 1, 52, 0
4, 4607, Note_on_c, 1, 49, 0
4, 4656, Note_on_c, 1, 52, 69
4, 4656, Note_on_c, 1, 50, 69
4, 4703, Note_on_c, 1, 52, 0
4, 4703, Note_on_c, 1, 50, 0
4, 4704, Note_on_c, 1, 52, 69
4, 4704, Note_on_c, 1, 49, 69
4, 4751, Note_on_c, 1, 52, 0
4, 4751, Note_on_c, 1, 49, 0
4, 4752, Note_on_c, 1, 52, 69
4, 4752, Note_on_c, 1, 49, 69
4, 4799, Note_on_c, 1, 52, 0
4, 4799, Note_on_c, 1, 49, 0
4, 4800, Note_on_c, 1, 52, 69
4, 4800, Note_on_c, 1, 49, 69
4, 4847, Note_on_c, 1, 52, 0
4, 4847, Note_on_c, 1, 49, 0
4, 4848, Note_on_c, 1, 52, 69
4, 4848, Note_on_c, 1, 49, 69
4, 4895, Note_on_c, 1, 52, 0
4, 4895, Note_on_c, 1, 49, 0
4, 4896, Note_on_c, 1, 52, 69
4, 4896, Note_on_c, 1, 50, 69
4, 4941, Note_on_c, 1, 52, 0
4, 4941, Note_on_c, 1, 50, 0
4, 4992, Note_on_c, 1, 52, 69
4, 4992, Note_on_c, 1, 49, 69
4, 5037, Note_on_c, 1, 52, 0
4, 5037, Note_on_c, 1, 49, 0
4, 5088, Note_on_c, 1, 44, 75
4, 5133, Note_on_c, 1, 44, 0
4, 5184, Note_on_c, 1, 45, 75
4, 5229, Note_on_c, 1, 45, 0
4, 5280, Note_on_c, 1, 54, 75
4, 5325, Note_on_c, 1, 54, 0
4, 5328, Note_on_c, 1, 52, 85
4, 5373, Note_on_c, 1, 52, 0
4, 5376, Note_on_c, 1, 50, 95
4, 5421, Note_on_c, 1, 50, 0
4, 5424, Note_on_c, 1, 51, 106
4, 5469, Note_on_c, 1, 51, 0
4, 5472, Note_on_c, 1, 52, 101
4, 5511, Note_on_c, 1, 52, 0
4, 5568, Note_on_c, 1, 40, 92
4, 5657, Note_on_c, 1, 40, 0
4, 5808, Note_on_c, 1, 44, 69
4, 5855, Note_on_c, 1, 44, 0
4, 5856, Note_on_c, 1, 44, 69
4, 5903, Note_on_c, 1, 44, 0
4, 5904, Note_on_c, 1, 44, 69
4, 5951, Note_on_c, 1, 44, 0
4, 5952, Note_on_c, 1, 44, 69
4, 5999, Note_on_c, 1, 44, 0
4, 6000, Note_on_c, 1, 44, 69
4, 6047, Note_on_c, 1, 44, 0
4, 6096, Note_on_c, 1, 33, 69
4, 6143, Note_on_c, 1, 33, 0
4, 6144, Note_on_c, 1, 33, 69
4, 6191, Note_on_c, 1, 33, 0
4, 6192, Note_on_c, 1, 33, 69
4, 6239, Note_on_c, 1, 33, 0
4, 6240, Note_on_c, 1, 33, 69
4, 6287, Note_on_c, 1, 33, 0
4, 6288, Note_on_c, 1, 33, 69
4, 6335, Note_on_c, 1, 33, 0
4, 6384, Note_on_c, 1, 34, 69
4, 6431, Note_on_c, 1, 34, 0
4, 6432, Note_on_c, 1, 34, 69
4, 6479, Note_on_c, 1, 34, 0
4, 6480, Note_on_c, 1, 34, 69
4, 6527, Note_on_c, 1, 34, 0
4, 6528, Note_on_c, 1, 34, 69
4, 6575, Note_on_c, 1, 34, 0
4, 6576, Note_on_c, 1, 34, 69
4, 6623, Note_on_c, 1, 34, 0
4, 6672, Note_on_c, 1, 35, 69
4, 6719, Note_on_c, 1, 35, 0
4, 6720, Note_on_c, 1, 35, 69
4, 6767, Note_on_c, 1, 35, 0
4, 6768, Note_on_c, 1, 35, 69
4, 6815, Note_on_c, 1, 35, 0
4, 6816, Note_on_c, 1, 35, 69
4, 6910, Note_on_c, 1, 35, 0
4, 6960, Note_on_c, 1, 54, 69
4, 6960, Note_on_c, 1, 51, 69
4, 7007, Note_on_c, 1, 54, 0
4, 7007, Note_on_c, 1, 51, 0
4, 7008, Note_on_c, 1, 54, 69
4, 7008, Note_on_c, 1, 51, 69
4, 7055, Note_on_c, 1, 54, 0
4, 7055, Note_on_c, 1, 51, 0
4, 7056, Note_on_c, 1, 54, 69
4, 7056, Note_on_c, 1, 51, 69
4, 7103, Note_on_c, 1, 54, 0
4, 7103, Note_on_c, 1, 51, 0
4, 7104, Note_on_c, 1, 54, 69
4, 7104, Note_on_c, 1, 51, 69
4, 7151, Note_on_c, 1, 54, 0
4, 7151, Note_on_c, 1, 51, 0
4, 7152, Note_on_c, 1, 54, 69
4, 7152, Note_on_c, 1, 51, 69
4, 7199, Note_on_c, 1, 54, 0
4, 7199, Note_on_c, 1, 51, 0
4, 7248, Note_on_c, 1, 47, 61
4, 7248, Note_on_c, 1, 40, 61
4, 7295, Note_on_c, 1, 47, 0
4, 7295, Note_on_c, 1, 40, 0
4, 7296, Note_on_c, 1, 47, 61
4, 7296, Note_on_c, 1, 40, 61
4, 7343, Note_on_c, 1, 47, 0
4, 7343, Note_on_c, 1, 40, 0
4, 7344, Note_on_c, 1, 47, 61
4, 7344, Note_on_c, 1, 40, 61
4, 7391, Note_on_c, 1, 47, 0
4, 7391, Note_on_c, 1, 40, 0
4, 7392, Note_on_c, 1, 47, 61
4, 7392, Note_on_c, 1, 40, 61
4, 7439, Note_on_c, 1, 47, 0
4, 7439, Note_on_c, 1, 40, 0
4, 7440, Note_on_c, 1, 47, 61
4, 7440, Note_on_c, 1, 40, 61
4, 7487, Note_on_c, 1, 47, 0
4, 7487, Note_on_c, 1, 40, 0
4, 7536, Note_on_c, 1, 54, 69
4, 7536, Note_on_c, 1, 51, 69
4, 7536, Note_on_c, 1, 45, 69
4, 7583, Note_on_c, 1, 54, 0
4, 7583, Note_on_c, 1, 51, 0
4, 7583, Note_on_c, 1, 45, 0
4, 7584, Note_on_c, 1, 54, 69
4, 7584, Note_on_c, 1, 51, 69
4, 7584, Note_on_c, 1, 45, 69
4, 7631, Note_on_c, 1, 54, 0
4, 7631, Note_on_c, 1, 51, 0
4, 7631, Note_on_c, 1, 45, 0
4, 7632, Note_on_c, 1, 54, 69
4, 7632, Note_on_c, 1, 51, 69
4, 7632, Note_on_c, 1, 45, 69
4, 7679, Note_on_c, 1, 54, 0
4, 7679, Note_on_c, 1, 51, 0
4, 7679, Note_on_c, 1, 45, 0
4, 7680, Note_on_c, 1, 47, 69
4, 7680, Note_on_c, 1, 45, 69
4, 7727, Note_on_c, 1, 47, 0
4, 7727, Note_on_c, 1, 45, 0
4, 7728, Note_on_c, 1, 47, 69
4, 7728, Note_on_c, 1, 45, 69
4, 7775, Note_on_c, 1, 47, 0
4, 7775, Note_on_c, 1, 45, 0
4, 7824, Note_on_c, 1, 47, 69
4, 7824, Note_on_c, 1, 44, 69
4, 7871, Note_on_c, 1, 47, 0
4, 7871, Note_on_c, 1, 44, 0
4, 7872, Note_on_c, 1, 47, 69
4, 7872, Note_on_c, 1, 44, 69
4, 7919, Note_on_c, 1, 47, 0
4, 7919, Note_on_c, 1, 44, 0
4, 7920, Note_on_c, 1, 47, 69
4, 7920, Note_on_c, 1, 44, 69
4, 7967, Note_on_c, 1, 47, 0
4, 7967, Note_on_c, 1, 44, 0
4, 7968, Note_on_c, 1, 47, 69
4, 7968, Note_on_c, 1, 44, 69
4, 8015, Note_on_c, 1, 47, 0
4, 8015, Note_on_c, 1, 44, 0
4, 8016, Note_on_c, 1, 47, 69
4, 8016, Note_on_c, 1, 44, 69
4, 8063, Note_on_c, 1, 47, 0
4, 8063, Note_on_c, 1, 44, 0
4, 8112, Note_on_c, 1, 54, 69
4, 8112, Note_on_c, 1, 51, 69
4, 8159, Note_on_c, 1, 54, 0
4, 8159, Note_on_c, 1, 51, 0
4, 8160, Note_on_c, 1, 54, 69
4, 8160, Note_on_c, 1, 51, 69
4, 8207, Note_on_c, 1, 54, 0
4, 8207, Note_on_c, 1, 51, 0
4, 8208, Note_on_c, 1, 54, 69
4, 8208, Note_on_c, 1, 51, 69
4, 8255, Note_on_c, 1, 54, 0
4, 8255, Note_on_c, 1, 51, 0
4, 8256, Note_on_c, 1, 54, 69
4, 8256, Note_on_c, 1, 51, 69
4, 8303, Note_on_c, 1, 54, 0
4, 8303, Note_on_c, 1, 51, 0
4, 8304, Note_on_c, 1, 54, 69
4, 8304, Note_on_c, 1, 51, 69
4, 8351, Note_on_c, 1, 54, 0
4, 8351, Note_on_c, 1, 51, 0
4, 8400, Note_on_c, 1, 47, 61
4, 8400, Note_on_c, 1, 40, 61
4, 8447, Note_on_c, 1, 47, 0
4, 8447, Note_on_c, 1, 40, 0
4, 8448, Note_on_c, 1, 47, 61
4, 8448, Note_on_c, 1, 40, 61
4, 8495, Note_on_c, 1, 47, 0
4, 8495, Note_on_c, 1, 40, 0
4, 8496, Note_on_c, 1, 47, 61
4, 8496, Note_on_c, 1, 40, 61
4, 8543, Note_on_c, 1, 47, 0
4, 8543, Note_on_c, 1, 40, 0
4, 8544, Note_on_c, 1, 47, 61
4, 8544, Note_on_c, 1, 40, 61
4, 8591, Note_on_c, 1, 47, 0
4, 8591, Note_on_c, 1, 40, 0
4, 8592, Note_on_c, 1, 47, 61
4, 8592, Note_on_c, 1, 40, 61
4, 8639, Note_on_c, 1, 47, 0
4, 8639, Note_on_c, 1, 40, 0
4, 8688, Note_on_c, 1, 54, 69
4, 8688, Note_on_c, 1, 51, 69
4, 8688, Note_on_c, 1, 45, 69
4, 8735, Note_on_c, 1, 54, 0
4, 8735, Note_on_c, 1, 51, 0
4, 8735, Note_on_c, 1, 45, 0
4, 8736, Note_on_c, 1, 54, 69
4, 8736, Note_on_c, 1, 51, 69
4, 8736, Note_on_c, 1, 45, 69
4, 8783, Note_on_c, 1, 54, 0
4, 8783, Note_on_c, 1, 51, 0
4, 8783, Note_on_c, 1, 45, 0
4, 8784, Note_on_c, 1, 54, 69
4, 8784, Note_on_c, 1, 51, 69
4, 8784, Note_on_c, 1, 45, 69
4, 8831, Note_on_c, 1, 54, 0
4, 8831, Note_on_c, 1, 51, 0
4, 8831, Note_on_c, 1, 45, 0
4, 8832, Note_on_c, 1, 47, 69
4, 8832, Note_on_c, 1, 45, 69
4, 8879, Note_on_c, 1, 47, 0
4, 8879, Note_on_c, 1, 45, 0
4, 8880, Note_on_c, 1, 47, 69
4, 8880, Note_on_c, 1, 45, 69
4, 8927, Note_on_c, 1, 47, 0
4, 8927, Note_on_c, 1, 45, 0
4, 8976, Note_on_c, 1, 47, 69
4, 8976, Note_on_c, 1, 44, 69
4, 9023, Note_on_c, 1, 47, 0
4, 9023, Note_on_c, 1, 44, 0
4, 9024, Note_on_c, 1, 47, 69
4, 9024, Note_on_c, 1, 44, 69
4, 9071, Note_on_c, 1, 47, 0
4, 9071, Note_on_c, 1, 44, 0
4, 9072, Note_on_c, 1, 44, 72
4, 9119, Note_on_c, 1, 44, 0
4, 9120, Note_on_c, 1, 44, 75
4, 9167, Note_on_c, 1, 44, 0
4, 9168, Note_on_c, 1, 44, 78
4, 9215, Note_on_c, 1, 44, 0
4, 9264, Note_on_c, 1, 33, 84
4, 9311, Note_on_c, 1, 33, 0
4, 9312, Note_on_c, 1, 33, 84
4, 9359, Note_on_c, 1, 33, 0
4, 9360, Note_on_c, 1, 33, 89
4, 9407, Note_on_c, 1, 33, 0
4, 9408, Note_on_c, 1, 33, 95
4, 9455, Note_on_c, 1, 33, 0
4, 9456, Note_on_c, 1, 33, 100
4, 9503, Note_on_c, 1, 33, 0
4, 9504, Note_on_c, 1, 33, 106
4, 9593, Note_on_c, 1, 33, 0
4, 9840, Note_on_c, 1, 44, 106
4, 9885, Note_on_c, 1, 44, 0
4, 9888, Note_on_c, 1, 44, 75
4, 9933, Note_on_c, 1, 44, 0
4, 9936, Note_on_c, 1, 44, 77
4, 9981, Note_on_c, 1, 44, 0
4, 9984, Note_on_c, 1, 44, 79
4, 10029, Note_on_c, 1, 44, 0
4, 10032, Note_on_c, 1, 44, 81
4, 10077, Note_on_c, 1, 44, 0
4, 10080, Note_on_c, 1, 44, 84
4, 10169, Note_on_c, 1, 44, 0
4, 10416, Note_on_c, 1, 42, 75
4, 10461, Note_on_c, 1, 42, 0
4, 10512, Note_on_c, 1, 35, 75
4, 10557, Note_on_c, 1, 35, 0
4, 10608, Note_on_c, 1, 40, 75
4, 10653, Note_on_c, 1, 40, 0
4, 10704, Note_on_c, 1, 42, 75
4, 10749, Note_on_c, 1, 42, 0
4, 10800, Note_on_c, 1, 35, 75
4, 10845, Note_on_c, 1, 35, 0
4, 10896, Note_on_c, 1, 40, 75
4, 10941, Note_on_c, 1, 40, 0
4, 10944, Note_on_c, 1, 33, 75
4, 11033, Note_on_c, 1, 33, 0
4, 11280, Note_on_c, 1, 44, 75
4, 11325, Note_on_c, 1, 44, 0
4, 11328, Note_on_c, 1, 44, 75
4, 11373, Note_on_c, 1, 44, 0
4, 11376, Note_on_c, 1, 44, 75
4, 11421, Note_on_c, 1, 44, 0
4, 11424, Note_on_c, 1, 45, 75
4, 11469, Note_on_c, 1, 45, 0
4, 11472, Note_on_c, 1, 47, 75
4, 11517, Note_on_c, 1, 47, 0
4, 11520, Note_on_c, 1, 40, 75
4, 11609, Note_on_c, 1, 40, 0
4, 11616, Note_on_c, 1, 80, 61
4, 11655, Note_on_c, 1, 80, 0
4, 11712, Note_on_c, 1, 75, 61
4, 11751, Note_on_c, 1, 75, 0
4, 11808, Note_on_c, 1, 76, 61
4, 11853, Note_on_c, 1, 76, 0
4, 12000, Note_on_c, 1, 44, 75
4, 12089, Note_on_c, 1, 44, 0
4, 12096, Note_on_c, 1, 45, 75
4, 12185, Note_on_c, 1, 45, 0
4, 12192, Note_on_c, 1, 47, 75
4, 12281, Note_on_c, 1, 47, 0
4, 12288, Note_on_c, 1, 35, 75
4, 12377, Note_on_c, 1, 35, 0
4, 12384, Note_on_c, 1, 40, 75
4, 12473, Note_on_c, 1, 40, 0
4, 12480, Note_on_c, 1, 80, 61
4, 12480, Note_on_c, 1, 76, 61
4, 12576, Note_on_c, 1, 80, 0
4, 12576, Note_on_c, 1, 76, 0
4, 12576, Note_on_c, 1, 78, 61
4, 12576, Note_on_c, 1, 75, 61
4, 12665, Note_on_c, 1, 78, 0
4, 12665, Note_on_c, 1, 75, 0
4, 12672, Note_on_c, 1, 76, 61
4, 12717, Note_on_c, 1, 76, 0
4, 12864, Note_on_c, 1, 44, 75
4, 12953, Note_on_c, 1, 44, 0
4, 12960, Note_on_c, 1, 45, 75
4, 13049, Note_on_c, 1, 45, 0
4, 13056, Note_on_c, 1, 47, 75
4, 13145, Note_on_c, 1, 47, 0
4, 13152, Note_on_c, 1, 35, 75
4, 13241, Note_on_c, 1, 35, 0
4, 13248, Note_on_c, 1, 40, 75
4, 13293, Note_on_c, 1, 40, 0
4, 13296, Note_on_c, 1, 40, 75
4, 13341, Note_on_c, 1, 40, 0
4, 13344, Note_on_c, 1, 40, 75
4, 13389, Note_on_c, 1, 40, 0
4, 13392, Note_on_c, 1, 40, 75
4, 13437, Note_on_c, 1, 40, 0
4, 13440, Note_on_c, 1, 40, 75
4, 13485, Note_on_c, 1, 40, 0
4, 13488, Note_on_c, 1, 40, 75
4, 13533, Note_on_c, 1, 40, 0
4, 13536, Note_on_c, 1, 40, 75
4, 13581, Note_on_c, 1, 40, 0
4, 13584, Note_on_c, 1, 40, 75
4, 13629, Note_on_c, 1, 40, 0
4, 13632, Note_on_c, 1, 40, 75
4, 13677, Note_on_c, 1, 40, 0
4, 13680, Note_on_c, 1, 40, 75
4, 13725, Note_on_c, 1, 40, 0
4, 13728, Note_on_c, 1, 40, 75
4, 13773, Note_on_c, 1, 40, 0
4, 13776, Note_on_c, 1, 40, 75
4, 13821, Note_on_c, 1, 40, 0
4, 13824, Note_on_c, 1, 40, 75
4, 14089, Note_on_c, 1, 40, 0
4, 14112, Note_on_c, 1, 33, 64
4, 14201, Note_on_c, 1, 33, 0
4, 14208, Note_on_c, 1, 73, 64
4, 14247, Note_on_c, 1, 73, 0
4, 14304, Note_on_c, 1, 68, 64
4, 14343, Note_on_c, 1, 68, 0
4, 14400, Note_on_c, 1, 69, 64
4, 14439, Note_on_c, 1, 69, 0
4, 14592, Note_on_c, 1, 64, 64
4, 14631, Note_on_c, 1, 64, 0
4, 14688, Note_on_c, 1, 66, 64
4, 14727, Note_on_c, 1, 66, 0
4, 14880, Note_on_c, 1, 61, 64
4, 14919, Note_on_c, 1, 61, 0
4, 14976, Note_on_c, 1, 62, 64
4, 15015, Note_on_c, 1, 62, 0
4, 15168, Note_on_c, 1, 64, 64
4, 15257, Note_on_c, 1, 64, 0
4, 15264, Note_on_c, 1, 33, 64
4, 15353, Note_on_c, 1, 33, 0
4, 15360, Note_on_c, 1, 73, 69
4, 15360, Note_on_c, 1, 69, 69
4, 15456, Note_on_c, 1, 73, 0
4, 15456, Note_on_c, 1, 69, 0
4, 15456, Note_on_c, 1, 71, 69
4, 15456, Note_on_c, 1, 68, 69
4, 15545, Note_on_c, 1, 71, 0
4, 15545, Note_on_c, 1, 68, 0
4, 15648, Note_on_c, 1, 69, 69
4, 15648, Note_on_c, 1, 66, 69
4, 15744, Note_on_c, 1, 69, 0
4, 15744, Note_on_c, 1, 66, 0
4, 15744, Note_on_c, 1, 68, 69
4, 15744, Note_on_c, 1, 64, 69
4, 15833, Note_on_c, 1, 68, 0
4, 15833, Note_on_c, 1, 64, 0
4, 15936, Note_on_c, 1, 66, 69
4, 15936, Note_on_c, 1, 62, 69
4, 16032, Note_on_c, 1, 66, 0
4, 16032, Note_on_c, 1, 62, 0
4, 16032, Note_on_c, 1, 64, 69
4, 16032, Note_on_c, 1, 61, 69
4, 16121, Note_on_c, 1, 64, 0
4, 16121, Note_on_c, 1, 61, 0
4, 16128, Note_on_c, 1, 62, 69
4, 16217, Note_on_c, 1, 62, 0
4, 16320, Note_on_c, 1, 64, 69
4, 16409, Note_on_c, 1, 64, 0
4, 16416, Note_on_c, 1, 57, 69
4, 16461, Note_on_c, 1, 57, 0
4, 16464, Note_on_c, 1, 52, 84
4, 16509, Note_on_c, 1, 52, 0
4, 16512, Note_on_c, 1, 52, 84
4, 16557, Note_on_c, 1, 52, 0
4, 16560, Note_on_c, 1, 52, 84
4, 16605, Note_on_c, 1, 52, 0
4, 16608, Note_on_c, 1, 52, 84
4, 16631, Note_on_c, 1, 52, 0
4, 16632, Note_on_c, 1, 54, 84
4, 16655, Note_on_c, 1, 54, 0
4, 16656, Note_on_c, 1, 52, 84
4, 16679, Note_on_c, 1, 52, 0
4, 16680, Note_on_c, 1, 50, 84
4, 16703, Note_on_c, 1, 50, 0
4, 16704, Note_on_c, 1, 49, 84
4, 16749, Note_on_c, 1, 49, 0
4, 16752, Note_on_c, 1, 49, 84
4, 16797, Note_on_c, 1, 49, 0
4, 16800, Note_on_c, 1, 49, 84
4, 16845, Note_on_c, 1, 49, 0
4, 16848, Note_on_c, 1, 49, 84
4, 16893, Note_on_c, 1, 49, 0
4, 16896, Note_on_c, 1, 49, 84
4, 16919, Note_on_c, 1, 49, 0
4, 16920, Note_on_c, 1, 50, 84
4, 16943, Note_on_c, 1, 50, 0
4, 16944, Note_on_c, 1, 49, 84
4, 16967, Note_on_c, 1, 49, 0
4, 16968, Note_on_c, 1, 47, 84
4, 16991, Note_on_c, 1, 47, 0
4, 16992, Note_on_c, 1, 45, 75
4, 17037, Note_on_c, 1, 45, 0
4, 17040, Note_on_c, 1, 33, 75
4, 17060, Note_on_c, 1, 33, 0
4, 17088, Note_on_c, 1, 45, 75
4, 17108, Note_on_c, 1, 45, 0
4, 17136, Note_on_c, 1, 49, 75
4, 17156, Note_on_c, 1, 49, 0
4, 17184, Note_on_c, 1, 52, 75
4, 17204, Note_on_c, 1, 52, 0
4, 17232, Note_on_c, 1, 49, 75
4, 17252, Note_on_c, 1, 49, 0
4, 17328, Note_on_c, 1, 33, 75
4, 17348, Note_on_c, 1, 33, 0
4, 17376, Note_on_c, 1, 45, 75
4, 17396, Note_on_c, 1, 45, 0
4, 17424, Note_on_c, 1, 50, 75
4, 17444, Note_on_c, 1, 50, 0
4, 17472, Note_on_c, 1, 54, 75
4, 17492, Note_on_c, 1, 54, 0
4, 17520, Note_on_c, 1, 50, 75
4, 17540, Note_on_c, 1, 50, 0
4, 17616, Note_on_c, 1, 52, 69
4, 17616, Note_on_c, 1, 49, 69
4, 17663, Note_on_c, 1, 52, 0
4, 17663, Note_on_c, 1, 49, 0
4, 17712, Note_on_c, 1, 52, 69
4, 17712, Note_on_c, 1, 49, 69
4, 17759, Note_on_c, 1, 52, 0
4, 17759, Note_on_c, 1, 49, 0
4, 17760, Note_on_c, 1, 52, 69
4, 17760, Note_on_c, 1, 49, 69
4, 17807, Note_on_c, 1, 52, 0
4, 17807, Note_on_c, 1, 49, 0
4, 17808, Note_on_c, 1, 52, 69
4, 17808, Note_on_c, 1, 49, 69
4, 17855, Note_on_c, 1, 52, 0
4, 17855, Note_on_c, 1, 49, 0
4, 17904, Note_on_c, 1, 52, 69
4, 17904, Note_on_c, 1, 44, 69
4, 17951, Note_on_c, 1, 52, 0
4, 17951, Note_on_c, 1, 44, 0
4, 17952, Note_on_c, 1, 52, 69
4, 17952, Note_on_c, 1, 44, 69
4, 17999, Note_on_c, 1, 52, 0
4, 17999, Note_on_c, 1, 44, 0
4, 18000, Note_on_c, 1, 52, 69
4, 18000, Note_on_c, 1, 44, 69
4, 18047, Note_on_c, 1, 52, 0
4, 18047, Note_on_c, 1, 44, 0
4, 18048, Note_on_c, 1, 52, 69
4, 18048, Note_on_c, 1, 44, 69
4, 18095, Note_on_c, 1, 52, 0
4, 18095, Note_on_c, 1, 44, 0
4, 18096, Note_on_c, 1, 52, 69
4, 18096, Note_on_c, 1, 44, 69
4, 18143, Note_on_c, 1, 52, 0
4, 18143, Note_on_c, 1, 44, 0
4, 18192, Note_on_c, 1, 52, 69
4, 18192, Note_on_c, 1, 45, 69
4, 18239, Note_on_c, 1, 52, 0
4, 18239, Note_on_c, 1, 45, 0
4, 18240, Note_on_c, 1, 52, 69
4, 18240, Note_on_c, 1, 45, 69
4, 18287, Note_on_c, 1, 52, 0
4, 18287, Note_on_c, 1, 45, 0
4, 18288, Note_on_c, 1, 52, 69
4, 18288, Note_on_c, 1, 45, 69
4, 18335, Note_on_c, 1, 52, 0
4, 18335, Note_on_c, 1, 45, 0
4, 18336, Note_on_c, 1, 52, 69
4, 18336, Note_on_c, 1, 45, 69
4, 18383, Note_on_c, 1, 52, 0
4, 18383, Note_on_c, 1, 45, 0
4, 18384, Note_on_c, 1, 52, 69
4, 18384, Note_on_c, 1, 45, 69
4, 18431, Note_on_c, 1, 52, 0
4, 18431, Note_on_c, 1, 45, 0
4, 18480, Note_on_c, 1, 52, 69
4, 18480, Note_on_c, 1, 50, 69
4, 18527, Note_on_c, 1, 52, 0
4, 18527, Note_on_c, 1, 50, 0
4, 18528, Note_on_c, 1, 52, 69
4, 18528, Note_on_c, 1, 49, 69
4, 18575, Note_on_c, 1, 52, 0
4, 18575, Note_on_c, 1, 49, 0
4, 18576, Note_on_c, 1, 52, 69
4, 18576, Note_on_c, 1, 49, 69
4, 18623, Note_on_c, 1, 52, 0
4, 18623, Note_on_c, 1, 49, 0
4, 18624, Note_on_c, 1, 52, 69
4, 18624, Note_on_c, 1, 49, 69
4, 18671, Note_on_c, 1, 52, 0
4, 18671, Note_on_c, 1, 49, 0
4, 18672, Note_on_c, 1, 52, 69
4, 18672, Note_on_c, 1, 49, 69
4, 18719, Note_on_c, 1, 52, 0
4, 18719, Note_on_c, 1, 49, 0
4, 18768, Note_on_c, 1, 52, 69
4, 18768, Note_on_c, 1, 50, 69
4, 18815, Note_on_c, 1, 52, 0
4, 18815, Note_on_c, 1, 50, 0
4, 18816, Note_on_c, 1, 52, 69
4, 18816, Note_on_c, 1, 49, 69
4, 18863, Note_on_c, 1, 52, 0
4, 18863, Note_on_c, 1, 49, 0
4, 18864, Note_on_c, 1, 52, 69
4, 18864, Note_on_c, 1, 49, 69
4, 18911, Note_on_c, 1, 52, 0
4, 18911, Note_on_c, 1, 49, 0
4, 18912, Note_on_c, 1, 52, 69
4, 18912, Note_on_c, 1, 49, 69
4, 18959, Note_on_c, 1, 52, 0
4, 18959, Note_on_c, 1, 49, 0
4, 18960, Note_on_c, 1, 52, 69
4, 18960, Note_on_c, 1, 49, 69
4, 19007, Note_on_c, 1, 52, 0
4, 19007, Note_on_c, 1, 49, 0
4, 19008, Note_on_c, 1, 52, 69
4, 19008, Note_on_c, 1, 50, 69
4, 19053, Note_on_c, 1, 52, 0
4, 19053, Note_on_c, 1, 50, 0
4, 19104, Note_on_c, 1, 52, 69
4, 19104, Note_on_c, 1, 49, 69
4, 19149, Note_on_c, 1, 52, 0
4, 19149, Note_on_c, 1, 49, 0
4, 19200, Note_on_c, 1, 44, 75
4, 19245, Note_on_c, 1, 44, 0
4, 19296, Note_on_c, 1, 45, 75
4, 19341, Note_on_c, 1, 45, 0
4, 19392, Note_on_c, 1, 54, 75
4, 19437, Note_on_c, 1, 54, 0
4, 19440, Note_on_c, 1, 52, 85
4, 19485, Note_on_c, 1, 52, 0
4, 19488, Note_on_c, 1, 50, 95
4, 19533, Note_on_c, 1, 50, 0
4, 19536, Note_on_c, 1, 51, 106
4, 19581, Note_on_c, 1, 51, 0
4, 19584, Note_on_c, 1, 52, 101
4, 19623, Note_on_c, 1, 52, 0
4, 19680, Note_on_c, 1, 40, 92
4, 19769, Note_on_c, 1, 40, 0
4, 19920, Note_on_c, 1, 44, 69
4, 19967, Note_on_c, 1, 44, 0
4, 19968, Note_on_c, 1, 44, 69
4, 20015, Note_on_c, 1, 44, 0
4, 20016, Note_on_c, 1, 44, 69
4, 20063, Note_on_c, 1, 44, 0
4, 20064, Note_on_c, 1, 44, 69
4, 20111, Note_on_c, 1, 44, 0
4, 20112, Note_on_c, 1, 44, 69
4, 20159, Note_on_c, 1, 44, 0
4, 20208, Note_on_c, 1, 33, 69
4, 20255, Note_on_c, 1, 33, 0
4, 20256, Note_on_c, 1, 33, 69
4, 20303, Note_on_c, 1, 33, 0
4, 20304, Note_on_c, 1, 33, 69
4, 20351, Note_on_c, 1, 33, 0
4, 20352, Note_on_c, 1, 33, 69
4, 20399, Note_on_c, 1, 33, 0
4, 20400, Note_on_c, 1, 33, 69
4, 20447, Note_on_c, 1, 33, 0
4, 20496, Note_on_c, 1, 34, 69
4, 20543, Note_on_c, 1, 34, 0
4, 20544, Note_on_c, 1, 34, 69
4, 20591, Note_on_c, 1, 34, 0
4, 20592, Note_on_c, 1, 34, 69
4, 20639, Note_on_c, 1, 34, 0
4, 20640, Note_on_c, 1, 34, 69
4, 20687, Note_on_c, 1, 34, 0
4, 20688, Note_on_c, 1, 34, 69
4, 20735, Note_on_c, 1, 34, 0
4, 20784, Note_on_c, 1, 35, 69
4, 20831, Note_on_c, 1, 35, 0
4, 20832, Note_on_c, 1, 35, 69
4, 20879, Note_on_c, 1, 35, 0
4, 20880, Note_on_c, 1, 35, 69
4, 20927, Note_on_c, 1, 35, 0
4, 20928, Note_on_c, 1, 35, 69
4, 21022, Note_on_c, 1, 35, 0
4, 21072, Note_on_c, 1, 54, 69
4, 21072, Note_on_c, 1, 51, 69
4, 21119, Note_on_c, 1, 54, 0
4, 21119, Note_on_c, 1, 51, 0
4, 21120, Note_on_c, 1, 54, 69
4, 21120, Note_on_c, 1, 51, 69
4, 21167, Note_on_c, 1, 54, 0
4, 21167, Note_on_c, 1, 51, 0
4, 21168, Note_on_c, 1, 54, 69
4, 21168, Note_on_c, 1, 51, 69
4, 21215, Note_on_c, 1, 54, 0
4, 21215, Note_on_c, 1, 51, 0
4, 21216, Note_on_c, 1, 54, 69
4, 21216, Note_on_c, 1, 51, 69
4, 21263, Note_on_c, 1, 54, 0
4, 21263, Note_on_c, 1, 51, 0
4, 21264, Note_on_c, 1, 54, 69
4, 21264, Note_on_c, 1, 51, 69
4, 21311, Note_on_c, 1, 54, 0
4, 21311, Note_on_c, 1, 51, 0
4, 21360, Note_on_c, 1, 47, 61
4, 21360, Note_on_c, 1, 40, 61
4, 21407, Note_on_c, 1, 47, 0
4, 21407, Note_on_c, 1, 40, 0
4, 21408, Note_on_c, 1, 47, 61
4, 21408, Note_on_c, 1, 40, 61
4, 21455, Note_on_c, 1, 47, 0
4, 21455, Note_on_c, 1, 40, 0
4, 21456, Note_on_c, 1, 47, 61
4, 21456, Note_on_c, 1, 40, 61
4, 21503, Note_on_c, 1, 47, 0
4, 21503, Note_on_c, 1, 40, 0
4, 21504, Note_on_c, 1, 47, 61
4, 21504, Note_on_c, 1, 40, 61
4, 21551, Note_on_c, 1, 47, 0
4, 21551, Note_on_c, 1, 40, 0
4, 21552, Note_on_c, 1, 47, 61
4, 21552, Note_on_c, 1, 40, 61
4, 21599, Note_on_c, 1, 47, 0
4, 21599, Note_on_c, 1, 40, 0
4, 21648, Note_on_c, 1, 54, 69
4, 21648, Note_on_c, 1, 51, 69
4, 21648, Note_on_c, 1, 45, 69
4, 21695, Note_on_c, 1, 54, 0
4, 21695, Note_on_c, 1, 51, 0
4, 21695, Note_on_c, 1, 45, 0
4, 21696, Note_on_c, 1, 54, 69
4, 21696, Note_on_c, 1, 51, 69
4, 21696, Note_on_c, 1, 45, 69
4, 21743, Note_on_c, 1, 54, 0
4, 21743, Note_on_c, 1, 51, 0
4, 21743, Note_on_c, 1, 45, 0
4, 21744, Note_on_c, 1, 54, 69
4, 21744, Note_on_c, 1, 51, 69
4, 21744, Note_on_c, 1, 45, 69
4, 21791, Note_on_c, 1, 54, 0
4, 21791, Note_on_c, 1, 51, 0
4, 21791, Note_on_c, 1, 45, 0
4, 21792, Note_on_c, 1, 47, 69
4, 21792, Note_on_c, 1, 45, 69
4, 21839, Note_on_c, 1, 47, 0
4, 21839, Note_on_c, 1, 45, 0
4, 21840, Note_on_c, 1, 47, 69
4, 21840, Note_on_c, 1, 45, 69
4, 21887, Note_on_c, 1, 47, 0
4, 21887, Note_on_c, 1, 45, 0
4, 21936, Note_on_c, 1, 47, 69
4, 21936, Note_on_c, 1, 44, 69
4, 21983, Note_on_c, 1, 47, 0
4, 21983, Note_on_c, 1, 44, 0
4, 21984, Note_on_c, 1, 47, 69
4, 21984, Note_on_c, 1, 44, 69
4, 22031, Note_on_c, 1, 47, 0
4, 22031, Note_on_c, 1, 44, 0
4, 22032, Note_on_c, 1, 47, 69
4, 22032, Note_on_c, 1, 44, 69
4, 22079, Note_on_c, 1, 47, 0
4, 22079, Note_on_c, 1, 44, 0
4, 22080, Note_on_c, 1, 47, 69
4, 22080, Note_on_c, 1, 44, 69
4, 22127, Note_on_c, 1, 47, 0
4, 22127, Note_on_c, 1, 44, 0
4, 22128, Note_on_c, 1, 47, 69
4, 22128, Note_on_c, 1, 44, 69
4, 22175, Note_on_c, 1, 47, 0
4, 22175, Note_on_c, 1, 44, 0
4, 22224, Note_on_c, 1, 54, 69
4, 22224, Note_on_c, 1, 51, 69
4, 22271, Note_on_c, 1, 54, 0
4, 22271, Note_on_c, 1, 51, 0
4, 22272, Note_on_c, 1, 54, 69
4, 22272, Note_on_c, 1, 51, 69
4, 22319, Note_on_c, 1, 54, 0
4, 22319, Note_on_c, 1, 51, 0
4, 22320, Note_on_c, 1, 54, 69
4, 22320, Note_on_c, 1, 51, 69
4, 22367, Note_on_c, 1, 54, 0
4, 22367, Note_on_c, 1, 51, 0
4, 22368, Note_on_c, 1, 54, 69
4, 22368, Note_on_c, 1, 51, 69
4, 22415, Note_on_c, 1, 54, 0
4, 22415, Note_on_c, 1, 51, 0
4, 22416, Note_on_c, 1, 54, 69
4, 22416, Note_on_c, 1, 51, 69
4, 22463, Note_on_c, 1, 54, 0
4, 22463, Note_on_c, 1, 51, 0
4, 22512, Note_on_c, 1, 47, 61
4, 22512, Note_on_c, 1, 40, 61
4, 22559, Note_on_c, 1, 47, 0
4, 22559, Note_on_c, 1, 40, 0
4, 22560, Note_on_c, 1, 47, 61
4, 22560, Note_on_c, 1, 40, 61
4, 22607, Note_on_c, 1, 47, 0
4, 22607, Note_on_c, 1, 40, 0
4, 22608, Note_on_c, 1, 47, 61
4, 22608, Note_on_c, 1, 40, 61
4, 22655, Note_on_c, 1, 47, 0
4, 22655, Note_on_c, 1, 40, 0
4, 22656, Note_on_c, 1, 47, 61
4, 22656, Note_on_c, 1, 40, 61
4, 22703, Note_on_c, 1, 47, 0
4, 22703, Note_on_c, 1, 40, 0
4, 22704, Note_on_c, 1, 47, 61
4, 22704, Note_on_c, 1, 40, 61
4, 22751, Note_on_c, 1, 47, 0
4, 22751, Note_on_c, 1, 40, 0
4, 22800, Note_on_c, 1, 54, 69
4, 22800, Note_on_c, 1, 51, 69
4, 22800, Note_on_c, 1, 45, 69
4, 22847, Note_on_c, 1, 54, 0
4, 22847, Note_on_c, 1, 51, 0
4, 22847, Note_on_c, 1, 45, 0
4, 22848, Note_on_c, 1, 54, 69
4, 22848, Note_on_c, 1, 51, 69
4, 22848, Note_on_c, 1, 45, 69
4, 22895, Note_on_c, 1, 54, 0
4, 22895, Note_on_c, 1, 51, 0
4, 22895, Note_on_c, 1, 45, 0
4, 22896, Note_on_c, 1, 54, 69
4, 22896, Note_on_c, 1, 51, 69
4, 22896, Note_on_c, 1, 45, 69
4, 22943, Note_on_c, 1, 54, 0
4, 22943, Note_on_c, 1, 51, 0
4, 22943, Note_on_c, 1, 45, 0
4, 22944, Note_on_c, 1, 47, 69
4, 22944, Note_on_c, 1, 45, 69
4, 22991, Note_on_c, 1, 47, 0
4, 22991, Note_on_c, 1, 45, 0
4, 22992, Note_on_c, 1, 47, 69
4, 22992, Note_on_c, 1, 45, 69
4, 23039, Note_on_c, 1, 47, 0
4, 23039, Note_on_c, 1, 45, 0
4, 23088, Note_on_c, 1, 47, 69
4, 23088, Note_on_c, 1, 44, 69
4, 23135, Note_on_c, 1, 47, 0
4, 23135, Note_on_c, 1, 44, 0
4, 23136, Note_on_c, 1, 47, 69
4, 23136, Note_on_c, 1, 44, 69
4, 23183, Note_on_c, 1, 47, 0
4, 23183, Note_on_c, 1, 44, 0
4, 23184, Note_on_c, 1, 44, 72
4, 23231, Note_on_c, 1, 44, 0
4, 23232, Note_on_c, 1, 44, 75
4, 23279, Note_on_c, 1, 44, 0
4, 23280, Note_on_c, 1, 44, 78
4, 23327, Note_on_c, 1, 44, 0
4, 23376, Note_on_c, 1, 33, 84
4, 23423, Note_on_c, 1, 33, 0
4, 23424, Note_on_c, 1, 33, 84
4, 23471, Note_on_c, 1, 33, 0
4, 23472, Note_on_c, 1, 33, 89
4, 23519, Note_on_c, 1, 33, 0
4, 23520, Note_on_c, 1, 33, 95
4, 23567, Note_on_c, 1, 33, 0
4, 23568, Note_on_c, 1, 33, 100
4, 23615, Note_on_c, 1, 33, 0
4, 23616, Note_on_c, 1, 33, 106
4, 23705, Note_on_c, 1, 33, 0
4, 23952, Note_on_c, 1, 44, 106
4, 23997, Note_on_c, 1, 44, 0
4, 24000, Note_on_c, 1, 44, 75
4, 24045, Note_on_c, 1, 44, 0
4, 24048, Note_on_c, 1, 44, 77
4, 24093, Note_on_c, 1, 44, 0
4, 24096, Note_on_c, 1, 44, 79
4, 24141, Note_on_c, 1, 44, 0
4, 24144, Note_on_c, 1, 44, 81
4, 24189, Note_on_c, 1, 44, 0
4, 24192, Note_on_c, 1, 44, 84
4, 24281, Note_on_c, 1, 44, 0
4, 24528, Note_on_c, 1, 42, 75
4, 24573, Note_on_c, 1, 42, 0
4, 24624, Note_on_c, 1, 35, 75
4, 24669, Note_on_c, 1, 35, 0
4, 24720, Note_on_c, 1, 40, 75
4, 24765, Note_on_c, 1, 40, 0
4, 24816, Note_on_c, 1, 42, 75
4, 24861, Note_on_c, 1, 42, 0
4, 24912, Note_on_c, 1, 35, 75
4, 24957, Note_on_c, 1, 35, 0
4, 25008, Note_on_c, 1, 40, 75
4, 25053, Note_on_c, 1, 40, 0
4, 25056, Note_on_c, 1, 33, 75
4, 25145, Note_on_c, 1, 33, 0
4, 25392, Note_on_c, 1, 44, 75
4, 25437, Note_on_c, 1, 44, 0
4, 25440, Note_on_c, 1, 44, 75
4, 25485, Note_on_c, 1, 44, 0
4, 25488, Note_on_c, 1, 44, 75
4, 25533, Note_on_c, 1, 44, 0
4, 25536, Note_on_c, 1, 45, 75
4, 25581, Note_on_c, 1, 45, 0
4, 25584, Note_on_c, 1, 47, 75
4, 25629, Note_on_c, 1, 47, 0
4, 25632, Note_on_c, 1, 40, 75
4, 25721, Note_on_c, 1, 40, 0
4, 25728, Note_on_c, 1, 80, 61
4, 25767, Note_on_c, 1, 80, 0
4, 25824, Note_on_c, 1, 75, 61
4, 25863, Note_on_c, 1, 75, 0
4, 25920, Note_on_c, 1, 76, 61
4, 25965, Note_on_c, 1, 76, 0
4, 26112, Note_on_c, 1, 44, 75
4, 26201, Note_on_c, 1, 44, 0
4, 26208, Note_on_c, 1, 45, 75
4, 26297, Note_on_c, 1, 45, 0
4, 26304, Note_on_c, 1, 47, 75
4, 26393, Note_on_c, 1, 47, 0
4, 26400, Note_on_c, 1, 35, 75
4, 26489, Note_on_c, 1, 35, 0
4, 26496, Note_on_c, 1, 40, 75
4, 26585, Note_on_c, 1, 40, 0
4, 26592, Note_on_c, 1, 80, 61
4, 26592, Note_on_c, 1, 76, 61
4, 26688, Note_on_c, 1, 80, 0
4, 26688, Note_on_c, 1, 76, 0
4, 26688, Note_on_c, 1, 78, 61
4, 26688, Note_on_c, 1, 75, 61
4, 26777, Note_on_c, 1, 78, 0
4, 26777, Note_on_c, 1, 75, 0
4, 26784, Note_on_c, 1, 76, 61
4, 26829, Note_on_c, 1, 76, 0
4, 26976, Note_on_c, 1, 44, 75
4, 27065, Note_on_c, 1, 44, 0
4, 27072, Note_on_c, 1, 45, 75
4, 27161, Note_on_c, 1, 45, 0
4, 27168, Note_on_c, 1, 47, 75
4, 27257, Note_on_c, 1, 47, 0
4, 27264, Note_on_c, 1, 35, 75
4, 27353, Note_on_c, 1, 35, 0
4, 27360, Note_on_c, 1, 40, 75
4, 27405, Note_on_c, 1, 40, 0
4, 27408, Note_on_c, 1, 40, 75
4, 27453, Note_on_c, 1, 40, 0
4, 27456, Note_on_c, 1, 40, 75
4, 27501, Note_on_c, 1, 40, 0
4, 27504, Note_on_c, 1, 40, 75
4, 27549, Note_on_c, 1, 40, 0
4, 27552, Note_on_c, 1, 40, 75
4, 27597, Note_on_c, 1, 40, 0
4, 27600, Note_on_c, 1, 40, 75
4, 27645, Note_on_c, 1, 40, 0
4, 27648, Note_on_c, 1, 40, 75
4, 27693, Note_on_c, 1, 40, 0
4, 27696, Note_on_c, 1, 40, 75
4, 27741, Note_on_c, 1, 40, 0
4, 27744, Note_on_c, 1, 40, 75
4, 27789, Note_on_c, 1, 40, 0
4, 27792, Note_on_c, 1, 40, 75
4, 27837, Note_on_c, 1, 40, 0
4, 27840, Note_on_c, 1, 40, 75
4, 27885, Note_on_c, 1, 40, 0
4, 27888, Note_on_c, 1, 40, 75
4, 27933, Note_on_c, 1, 40, 0
4, 27936, Note_on_c, 1, 40, 75
4, 28201, Note_on_c, 1, 40, 0
4, 28224, Note_on_c, 1, 40, 75
4, 28313, Note_on_c, 1, 40, 0
4, 28320, Note_on_c, 1, 80, 75
4, 28359, Note_on_c, 1, 80, 0
4, 28416, Note_on_c, 1, 75, 75
4, 28455, Note_on_c, 1, 75, 0
4, 28512, Note_on_c, 1, 76, 75
4, 28551, Note_on_c, 1, 76, 0
4, 28704, Note_on_c, 1, 71, 75
4, 28743, Note_on_c, 1, 71, 0
4, 28800, Note_on_c, 1, 73, 75
4, 28839, Note_on_c, 1, 73, 0
4, 28992, Note_on_c, 1, 68, 75
4, 29031, Note_on_c, 1, 68, 0
4, 29088, Note_on_c, 1, 69, 75
4, 29127, Note_on_c, 1, 69, 0
4, 29280, Note_on_c, 1, 71, 75
4, 29369, Note_on_c, 1, 71, 0
4, 29376, Note_on_c, 1, 64, 69
4, 29465, Note_on_c, 1, 64, 0
4, 29472, Note_on_c, 1, 80, 69
4, 29472, Note_on_c, 1, 76, 69
4, 29568, Note_on_c, 1, 80, 0
4, 29568, Note_on_c, 1, 76, 0
4, 29568, Note_on_c, 1, 78, 69
4, 29568, Note_on_c, 1, 75, 69
4, 29657, Note_on_c, 1, 78, 0
4, 29657, Note_on_c, 1, 75, 0
4, 29760, Note_on_c, 1, 76, 69
4, 29760, Note_on_c, 1, 73, 69
4, 29856, Note_on_c, 1, 76, 0
4, 29856, Note_on_c, 1, 73, 0
4, 29856, Note_on_c, 1, 75, 69
4, 29856, Note_on_c, 1, 71, 69
4, 29945, Note_on_c, 1, 75, 0
4, 29945, Note_on_c, 1, 71, 0
4, 30048, Note_on_c, 1, 73, 69
4, 30048, Note_on_c, 1, 69, 69
4, 30144, Note_on_c, 1, 73, 0
4, 30144, Note_on_c, 1, 69, 0
4, 30144, Note_on_c, 1, 71, 69
4, 30144, Note_on_c, 1, 68, 69
4, 30233, Note_on_c, 1, 71, 0
4, 30233, Note_on_c, 1, 68, 0
4, 30240, Note_on_c, 1, 69, 69
4, 30329, Note_on_c, 1, 69, 0
4, 30432, Note_on_c, 1, 71, 69
4, 30521, Note_on_c, 1, 71, 0
4, 30576, Note_on_c, 1, 64, 69
4, 30596, Note_on_c, 1, 64, 0
4, 30624, Note_on_c, 1, 64, 69
4, 30644, Note_on_c, 1, 64, 0
4, 30672, Note_on_c, 1, 64, 69
4, 30692, Note_on_c, 1, 64, 0
4, 30720, Note_on_c, 1, 64, 69
4, 30743, Note_on_c, 1, 64, 0
4, 30744, Note_on_c, 1, 66, 69
4, 30767, Note_on_c, 1, 66, 0
4, 30768, Note_on_c, 1, 64, 69
4, 30791, Note_on_c, 1, 64, 0
4, 30792, Note_on_c, 1, 62, 69
4, 30815, Note_on_c, 1, 62, 0
4, 30816, Note_on_c, 1, 61, 69
4, 30993, Note_on_c, 1, 61, 0
4, 31152, Note_on_c, 1, 64, 69
4, 31175, Note_on_c, 1, 64, 0
4, 31176, Note_on_c, 1, 66, 69
4, 31199, Note_on_c, 1, 66, 0
4, 31200, Note_on_c, 1, 67, 69
4, 31223, Note_on_c, 1, 67, 0
4, 31224, Note_on_c, 1, 69, 69
4, 31247, Note_on_c, 1, 69, 0
4, 31248, Note_on_c, 1, 67, 69
4, 31271, Note_on_c, 1, 67, 0
4, 31272, Note_on_c, 1, 66, 69
4, 31295, Note_on_c, 1, 66, 0
4, 31296, Note_on_c, 1, 64, 69
4, 31319, Note_on_c, 1, 64, 0
4, 31320, Note_on_c, 1, 62, 69
4, 31343, Note_on_c, 1, 62, 0
4, 31344, Note_on_c, 1, 61, 69
4, 31367, Note_on_c, 1, 61, 0
4, 31368, Note_on_c, 1, 59, 69
4, 31391, Note_on_c, 1, 59, 0
4, 31392, Note_on_c, 1, 58, 69
4, 31657, Note_on_c, 1, 58, 0
4, 31728, Note_on_c, 1, 62, 69
4, 31751, Note_on_c, 1, 62, 0
4, 31752, Note_on_c, 1, 64, 69
4, 31775, Note_on_c, 1, 64, 0
4, 31776, Note_on_c, 1, 66, 69
4, 31799, Note_on_c, 1, 66, 0
4, 31800, Note_on_c, 1, 67, 69
4, 31823, Note_on_c, 1, 67, 0
4, 31824, Note_on_c, 1, 66, 69
4, 31847, Note_on_c, 1, 66, 0
4, 31848, Note_on_c, 1, 64, 69
4, 31871, Note_on_c, 1, 64, 0
4, 31872, Note_on_c, 1, 62, 69
4, 31895, Note_on_c, 1, 62, 0
4, 31896, Note_on_c, 1, 61, 69
4, 31919, Note_on_c, 1, 61, 0
4, 31920, Note_on_c, 1, 59, 69
4, 31943, Note_on_c, 1, 59, 0
4, 31944, Note_on_c, 1, 57, 69
4, 31967, Note_on_c, 1, 57, 0
4, 31968, Note_on_c, 1, 56, 69
4, 32233, Note_on_c, 1, 56, 0
4, 32256, Note_on_c, 1, 64, 69
4, 32256, Note_on_c, 1, 57, 69
4, 32345, Note_on_c, 1, 64, 0
4, 32345, Note_on_c, 1, 57, 0
4, 32352, Note_on_c, 1, 68, 69
4, 32352, Note_on_c, 1, 59, 69
4, 32441, Note_on_c, 1, 68, 0
4, 32441, Note_on_c, 1, 59, 0
4, 32448, Note_on_c, 1, 69, 70
4, 32448, Note_on_c, 1, 61, 70
4, 32537, Note_on_c, 1, 69, 0
4, 32537, Note_on_c, 1, 61, 0
4, 32544, Note_on_c, 1, 71, 71
4, 32544, Note_on_c, 1, 62, 71
4, 32721, Note_on_c, 1, 71, 0
4, 32721, Note_on_c, 1, 62, 0
4, 32736, Note_on_c, 1, 71, 73
4, 32736, Note_on_c, 1, 63, 73
4, 32825, Note_on_c, 1, 71, 0
4, 32825, Note_on_c, 1, 63, 0
4, 32832, Note_on_c, 1, 69, 75
4, 32921, Note_on_c, 1, 69, 0
4, 32928, Note_on_c, 1, 68, 72
4, 33017, Note_on_c, 1, 68, 0
4, 33168, Note_on_c, 1, 33, 69
4, 33188, Note_on_c, 1, 33, 0
4, 33216, Note_on_c, 1, 45, 69
4, 33236, Note_on_c, 1, 45, 0
4, 33264, Note_on_c, 1, 48, 69
4, 33284, Note_on_c, 1, 48, 0
4, 33312, Note_on_c, 1, 45, 69
4, 33332, Note_on_c, 1, 45, 0
4, 33360, Note_on_c, 1, 48, 69
4, 33380, Note_on_c, 1, 48, 0
4, 33456, Note_on_c, 1, 35, 69
4, 33476, Note_on_c, 1, 35, 0
4, 33504, Note_on_c, 1, 47, 69
4, 33524, Note_on_c, 1, 47, 0
4, 33552, Note_on_c, 1, 50, 69
4, 33572, Note_on_c, 1, 50, 0
4, 33600, Note_on_c, 1, 47, 69
4, 33620, Note_on_c, 1, 47, 0
4, 33648, Note_on_c, 1, 50, 69
4, 33668, Note_on_c, 1, 50, 0
4, 33744, Note_on_c, 1, 36, 69
4, 33764, Note_on_c, 1, 36, 0
4, 33792, Note_on_c, 1, 48, 69
4, 33812, Note_on_c, 1, 48, 0
4, 33840, Note_on_c, 1, 52, 69
4, 33860, Note_on_c, 1, 52, 0
4, 33888, Note_on_c, 1, 48, 69
4, 33908, Note_on_c, 1, 48, 0
4, 33936, Note_on_c, 1, 52, 69
4, 33956, Note_on_c, 1, 52, 0
4, 34032, Note_on_c, 1, 50, 69
4, 34032, Note_on_c, 1, 38, 69
4, 34079, Note_on_c, 1, 50, 0
4, 34079, Note_on_c, 1, 38, 0
4, 34080, Note_on_c, 1, 50, 69
4, 34080, Note_on_c, 1, 38, 69
4, 34127, Note_on_c, 1, 50, 0
4, 34127, Note_on_c, 1, 38, 0
4, 34128, Note_on_c, 1, 50, 69
4, 34128, Note_on_c, 1, 38, 69
4, 34175, Note_on_c, 1, 50, 0
4, 34175, Note_on_c, 1, 38, 0
4, 34176, Note_on_c, 1, 50, 69
4, 34176, Note_on_c, 1, 38, 69
4, 34223, Note_on_c, 1, 50, 0
4, 34223, Note_on_c, 1, 38, 0
4, 34224, Note_on_c, 1, 50, 69
4, 34224, Note_on_c, 1, 38, 69
4, 34271, Note_on_c, 1, 50, 0
4, 34271, Note_on_c, 1, 38, 0
4, 34320, Note_on_c, 1, 52, 69
4, 34320, Note_on_c, 1, 40, 69
4, 34367, Note_on_c, 1, 52, 0
4, 34367, Note_on_c, 1, 40, 0
4, 34368, Note_on_c, 1, 52, 69
4, 34368, Note_on_c, 1, 40, 69
4, 34415, Note_on_c, 1, 52, 0
4, 34415, Note_on_c, 1, 40, 0
4, 34416, Note_on_c, 1, 52, 69
4, 34416, Note_on_c, 1, 40, 69
4, 34463, Note_on_c, 1, 52, 0
4, 34463, Note_on_c, 1, 40, 0
4, 34464, Note_on_c, 1, 52, 69
4, 34464, Note_on_c, 1, 44, 69
4, 34511, Note_on_c, 1, 52, 0
4, 34511, Note_on_c, 1, 44, 0
4, 34512, Note_on_c, 1, 52, 69
4, 34512, Note_on_c, 1, 44, 69
4, 34559, Note_on_c, 1, 52, 0
4, 34559, Note_on_c, 1, 44, 0
4, 34608, Note_on_c, 1, 52, 69
4, 34608, Note_on_c, 1, 45, 69
4, 34655, Note_on_c, 1, 52, 0
4, 34655, Note_on_c, 1, 45, 0
4, 34656, Note_on_c, 1, 52, 69
4, 34656, Note_on_c, 1, 45, 69
4, 34703, Note_on_c, 1, 52, 0
4, 34703, Note_on_c, 1, 45, 0
4, 34704, Note_on_c, 1, 52, 69
4, 34704, Note_on_c, 1, 45, 69
4, 34751, Note_on_c, 1, 52, 0
4, 34751, Note_on_c, 1, 45, 0
4, 34752, Note_on_c, 1, 54, 69
4, 34752, Note_on_c, 1, 51, 69
4, 34799, Note_on_c, 1, 54, 0
4, 34799, Note_on_c, 1, 51, 0
4, 34800, Note_on_c, 1, 54, 69
4, 34800, Note_on_c, 1, 51, 69
4, 34847, Note_on_c, 1, 54, 0
4, 34847, Note_on_c, 1, 51, 0
4, 34896, Note_on_c, 1, 40, 69
4, 34941, Note_on_c, 1, 40, 0
4, 34944, Note_on_c, 1, 52, 69
4, 34967, Note_on_c, 1, 52, 0
4, 34968, Note_on_c, 1, 54, 69
4, 34991, Note_on_c, 1, 54, 0
4, 34992, Note_on_c, 1, 52, 69
4, 35015, Note_on_c, 1, 52, 0
4, 35016, Note_on_c, 1, 50, 69
4, 35039, Note_on_c, 1, 50, 0
4, 35040, Note_on_c, 1, 49, 69
4, 35063, Note_on_c, 1, 49, 0
4, 35064, Note_on_c, 1, 50, 69
4, 35087, Note_on_c, 1, 50, 0
4, 35088, Note_on_c, 1, 49, 69
4, 35111, Note_on_c, 1, 49, 0
4, 35112, Note_on_c, 1, 47, 69
4, 35135, Note_on_c, 1, 47, 0
4, 35136, Note_on_c, 1, 45, 75
4, 35183, Note_on_c, 1, 45, 0
4, 35184, Note_on_c, 1, 33, 75
4, 35204, Note_on_c, 1, 33, 0
4, 35232, Note_on_c, 1, 45, 75
4, 35252, Note_on_c, 1, 45, 0
4, 35280, Note_on_c, 1, 49, 75
4, 35300, Note_on_c, 1, 49, 0
4, 35328, Note_on_c, 1, 52, 75
4, 35348, Note_on_c, 1, 52, 0
4, 35376, Note_on_c, 1, 49, 75
4, 35396, Note_on_c, 1, 49, 0
4, 35472, Note_on_c, 1, 33, 75
4, 35492, Note_on_c, 1, 33, 0
4, 35520, Note_on_c, 1, 45, 75
4, 35540, Note_on_c, 1, 45, 0
4, 35568, Note_on_c, 1, 50, 75
4, 35588, Note_on_c, 1, 50, 0
4, 35616, Note_on_c, 1, 54, 75
4, 35636, Note_on_c, 1, 54, 0
4, 35664, Note_on_c, 1, 50, 75
4, 35684, Note_on_c, 1, 50, 0
4, 35760, Note_on_c, 1, 52, 69
4, 35760, Note_on_c, 1, 49, 69
4, 35807, Note_on_c, 1, 52, 0
4, 35807, Note_on_c, 1, 49, 0
4, 35856, Note_on_c, 1, 52, 69
4, 35856, Note_on_c, 1, 49, 69
4, 35903, Note_on_c, 1, 52, 0
4, 35903, Note_on_c, 1, 49, 0
4, 35904, Note_on_c, 1, 52, 69
4, 35904, Note_on_c, 1, 49, 69
4, 35951, Note_on_c, 1, 52, 0
4, 35951, Note_on_c, 1, 49, 0
4, 35952, Note_on_c, 1, 52, 69
4, 35952, Note_on_c, 1, 49, 69
4, 35999, Note_on_c, 1, 52, 0
4, 35999, Note_on_c, 1, 49, 0
4, 36048, Note_on_c, 1, 52, 69
4, 36048, Note_on_c, 1, 44, 69
4, 36095, Note_on_c, 1, 52, 0
4, 36095, Note_on_c, 1, 44, 0
4, 36096, Note_on_c, 1, 52, 69
4, 36096, Note_on_c, 1, 44, 69
4, 36143, Note_on_c, 1, 52, 0
4, 36143, Note_on_c, 1, 44, 0
4, 36144, Note_on_c, 1, 52, 69
4, 36144, Note_on_c, 1, 44, 69
4, 36191, Note_on_c, 1, 52, 0
4, 36191, Note_on_c, 1, 44, 0
4, 36192, Note_on_c, 1, 52, 69
4, 36192, Note_on_c, 1, 44, 69
4, 36239, Note_on_c, 1, 52, 0
4, 36239, Note_on_c, 1, 44, 0
4, 36240, Note_on_c, 1, 52, 69
4, 36240, Note_on_c, 1, 44, 69
4, 36287, Note_on_c, 1, 52, 0
4, 36287, Note_on_c, 1, 44, 0
4, 36336, Note_on_c, 1, 52, 69
4, 36336, Note_on_c, 1, 45, 69
4, 36383, Note_on_c, 1, 52, 0
4, 36383, Note_on_c, 1, 45, 0
4, 36384, Note_on_c, 1, 52, 69
4, 36384, Note_on_c, 1, 45, 69
4, 36431, Note_on_c, 1, 52, 0
4, 36431, Note_on_c, 1, 45, 0
4, 36432, Note_on_c, 1, 52, 69
4, 36432, Note_on_c, 1, 45, 69
4, 36479, Note_on_c, 1, 52, 0
4, 36479, Note_on_c, 1, 45, 0
4, 36480, Note_on_c, 1, 52, 69
4, 36480, Note_on_c, 1, 45, 69
4, 36527, Note_on_c, 1, 52, 0
4, 36527, Note_on_c, 1, 45, 0
4, 36528, Note_on_c, 1, 52, 69
4, 36528, Note_on_c, 1, 45, 69
4, 36575, Note_on_c, 1, 52, 0
4, 36575, Note_on_c, 1, 45, 0
4, 36624, Note_on_c, 1, 52, 69
4, 36624, Note_on_c, 1, 50, 69
4, 36671, Note_on_c, 1, 52, 0
4, 36671, Note_on_c, 1, 50, 0
4, 36672, Note_on_c, 1, 52, 69
4, 36672, Note_on_c, 1, 49, 69
4, 36719, Note_on_c, 1, 52, 0
4, 36719, Note_on_c, 1, 49, 0
4, 36720, Note_on_c, 1, 52, 69
4, 36720, Note_on_c, 1, 49, 69
4, 36767, Note_on_c, 1, 52, 0
4, 36767, Note_on_c, 1, 49, 0
4, 36768, Note_on_c, 1, 52, 69
4, 36768, Note_on_c, 1, 49, 69
4, 36815, Note_on_c, 1, 52, 0
4, 36815, Note_on_c, 1, 49, 0
4, 36816, Note_on_c, 1, 52, 69
4, 36816, Note_on_c, 1, 49, 69
4, 36863, Note_on_c, 1, 52, 0
4, 36863, Note_on_c, 1, 49, 0
4, 36912, Note_on_c, 1, 52, 69
4, 36912, Note_on_c, 1, 50, 69
4, 36959, Note_on_c, 1, 52, 0
4, 36959, Note_on_c, 1, 50, 0
4, 36960, Note_on_c, 1, 52, 69
4, 36960, Note_on_c, 1, 49, 69
4, 37007, Note_on_c, 1, 52, 0
4, 37007, Note_on_c, 1, 49, 0
4, 37008, Note_on_c, 1, 52, 69
4, 37008, Note_on_c, 1, 49, 69
4, 37055, Note_on_c, 1, 52, 0
4, 37055, Note_on_c, 1, 49, 0
4, 37056, Note_on_c, 1, 52, 69
4, 37056, Note_on_c, 1, 49, 69
4, 37103, Note_on_c, 1, 52, 0
4, 37103, Note_on_c, 1, 49, 0
4, 37104, Note_on_c, 1, 52, 69
4, 37104, Note_on_c, 1, 49, 69
4, 37151, Note_on_c, 1, 52, 0
4, 37151, Note_on_c, 1, 49, 0
4, 37152, Note_on_c, 1, 52, 69
4, 37152, Note_on_c, 1, 50, 69
4, 37197, Note_on_c, 1, 52, 0
4, 37197, Note_on_c, 1, 50, 0
4, 37248, Note_on_c, 1, 52, 69
4, 37248, Note_on_c, 1, 49, 69
4, 37293, Note_on_c, 1, 52, 0
4, 37293, Note_on_c, 1, 49, 0
4, 37344, Note_on_c, 1, 44, 75
4, 37389, Note_on_c, 1, 44, 0
4, 37440, Note_on_c, 1, 45, 75
4, 37485, Note_on_c, 1, 45, 0
4, 37536, Note_on_c, 1, 54, 75
4, 37581, Note_on_c, 1, 54, 0
4, 37584, Note_on_c, 1, 52, 75
4, 37629, Note_on_c, 1, 52, 0
4, 37632, Note_on_c, 1, 50, 75
4, 37677, Note_on_c, 1, 50, 0
4, 37680, Note_on_c, 1, 51, 75
4, 37725, Note_on_c, 1, 51, 0
4, 37728, Note_on_c, 1, 52, 75
4, 37773, Note_on_c, 1, 52, 0
4, 37776, Note_on_c, 1, 54, 76
4, 37821, Note_on_c, 1, 54, 0
4, 37824, Note_on_c, 1, 56, 78
4, 37869, Note_on_c, 1, 56, 0
4, 37872, Note_on_c, 1, 57, 79
4, 37917, Note_on_c, 1, 57, 0
4, 37920, Note_on_c, 1, 59, 81
4, 37965, Note_on_c, 1, 59, 0
4, 37968, Note_on_c, 1, 56, 82
4, 38013, Note_on_c, 1, 56, 0
4, 38016, Note_on_c, 1, 57, 84
4, 38061, Note_on_c, 1, 57, 0
4, 38064, Note_on_c, 1, 45, 82
4, 38109, Note_on_c, 1, 45, 0
4, 38160, Note_on_c, 1, 57, 79
4, 38160, Note_on_c, 1, 49, 79
4, 38207, Note_on_c, 1, 57, 0
4, 38207, Note_on_c, 1, 49, 0
4, 38208, Note_on_c, 1, 57, 78
4, 38208, Note_on_c, 1, 49, 78
4, 38255, Note_on_c, 1, 57, 0
4, 38255, Note_on_c, 1, 49, 0
4, 38256, Note_on_c, 1, 57, 76
4, 38256, Note_on_c, 1, 49, 76
4, 38303, Note_on_c, 1, 57, 0
4, 38303, Note_on_c, 1, 49, 0
4, 38304, Note_on_c, 1, 57, 75
4, 38304, Note_on_c, 1, 50, 75
4, 38351, Note_on_c, 1, 57, 0
4, 38351, Note_on_c, 1, 50, 0
4, 38352, Note_on_c, 1, 57, 75
4, 38352, Note_on_c, 1, 50, 75
4, 38399, Note_on_c, 1, 57, 0
4, 38399, Note_on_c, 1, 50, 0
4, 38400, Note_on_c, 1, 57, 75
4, 38400, Note_on_c, 1, 52, 75
4, 38447, Note_on_c, 1, 57, 0
4, 38447, Note_on_c, 1, 52, 0
4, 38448, Note_on_c, 1, 57, 75
4, 38448, Note_on_c, 1, 52, 75
4, 38495, Note_on_c, 1, 57, 0
4, 38495, Note_on_c, 1, 52, 0
4, 38496, Note_on_c, 1, 56, 75
4, 38496, Note_on_c, 1, 52, 75
4, 38543, Note_on_c, 1, 56, 0
4, 38543, Note_on_c, 1, 52, 0
4, 38544, Note_on_c, 1, 56, 75
4, 38544, Note_on_c, 1, 52, 75
4, 38591, Note_on_c, 1, 56, 0
4, 38591, Note_on_c, 1, 52, 0
4, 38640, Note_on_c, 1, 33, 75
4, 38685, Note_on_c, 1, 33, 0
4, 38688, Note_on_c, 1, 45, 75
4, 38733, Note_on_c, 1, 45, 0
4, 38736, Note_on_c, 1, 49, 75
4, 38781, Note_on_c, 1, 49, 0
4, 38784, Note_on_c, 1, 33, 75
4, 38873, Note_on_c, 1, 33, 0
4, 38928, Note_on_c, 1, 59, 69
4, 38928, Note_on_c, 1, 56, 69
4, 38975, Note_on_c, 1, 59, 0
4, 38975, Note_on_c, 1, 56, 0
4, 38976, Note_on_c, 1, 59, 69
4, 38976, Note_on_c, 1, 56, 69
4, 39023, Note_on_c, 1, 59, 0
4, 39023, Note_on_c, 1, 56, 0
4, 39024, Note_on_c, 1, 59, 69
4, 39024, Note_on_c, 1, 56, 69
4, 39071, Note_on_c, 1, 59, 0
4, 39071, Note_on_c, 1, 56, 0
4, 39072, Note_on_c, 1, 59, 69
4, 39072, Note_on_c, 1, 56, 69
4, 39119, Note_on_c, 1, 59, 0
4, 39119, Note_on_c, 1, 56, 0
4, 39120, Note_on_c, 1, 59, 69
4, 39120, Note_on_c, 1, 56, 69
4, 39167, Note_on_c, 1, 59, 0
4, 39167, Note_on_c, 1, 56, 0
4, 39216, Note_on_c, 1, 52, 61
4, 39216, Note_on_c, 1, 45, 61
4, 39263, Note_on_c, 1, 52, 0
4, 39263, Note_on_c, 1, 45, 0
4, 39264, Note_on_c, 1, 52, 61
4, 39264, Note_on_c, 1, 45, 61
4, 39311, Note_on_c, 1, 52, 0
4, 39311, Note_on_c, 1, 45, 0
4, 39312, Note_on_c, 1, 52, 61
4, 39312, Note_on_c, 1, 45, 61
4, 39359, Note_on_c, 1, 52, 0
4, 39359, Note_on_c, 1, 45, 0
4, 39360, Note_on_c, 1, 52, 61
4, 39360, Note_on_c, 1, 45, 61
4, 39407, Note_on_c, 1, 52, 0
4, 39407, Note_on_c, 1, 45, 0
4, 39408, Note_on_c, 1, 52, 61
4, 39408, Note_on_c, 1, 45, 61
4, 39455, Note_on_c, 1, 52, 0
4, 39455, Note_on_c, 1, 45, 0
4, 39504, Note_on_c, 1, 59, 61
4, 39504, Note_on_c, 1, 56, 61
4, 39504, Note_on_c, 1, 50, 61
4, 39551, Note_on_c, 1, 59, 0
4, 39551, Note_on_c, 1, 56, 0
4, 39551, Note_on_c, 1, 50, 0
4, 39552, Note_on_c, 1, 59, 61
4, 39552, Note_on_c, 1, 56, 61
4, 39552, Note_on_c, 1, 50, 61
4, 39599, Note_on_c, 1, 59, 0
4, 39599, Note_on_c, 1, 56, 0
4, 39599, Note_on_c, 1, 50, 0
4, 39600, Note_on_c, 1, 59, 61
4, 39600, Note_on_c, 1, 56, 61
4, 39600, Note_on_c, 1, 50, 61
4, 39647, Note_on_c, 1, 59, 0
4, 39647, Note_on_c, 1, 56, 0
4, 39647, Note_on_c, 1, 50, 0
4, 39648, Note_on_c, 1, 52, 69
4, 39648, Note_on_c, 1, 50, 69
4, 39695, Note_on_c, 1, 52, 0
4, 39695, Note_on_c, 1, 50, 0
4, 39696, Note_on_c, 1, 52, 69
4, 39696, Note_on_c, 1, 50, 69
4, 39743, Note_on_c, 1, 52, 0
4, 39743, Note_on_c, 1, 50, 0
4, 39792, Note_on_c, 1, 52, 69
4, 39792, Note_on_c, 1, 49, 69
4, 39839, Note_on_c, 1, 52, 0
4, 39839, Note_on_c, 1, 49, 0
4, 39840, Note_on_c, 1, 52, 69
4, 39840, Note_on_c, 1, 49, 69
4, 39887, Note_on_c, 1, 52, 0
4, 39887, Note_on_c, 1, 49, 0
4, 39888, Note_on_c, 1, 52, 69
4, 39888, Note_on_c, 1, 49, 69
4, 39935, Note_on_c, 1, 52, 0
4, 39935, Note_on_c, 1, 49, 0
4, 39936, Note_on_c, 1, 52, 69
4, 39936, Note_on_c, 1, 49, 69
4, 39983, Note_on_c, 1, 52, 0
4, 39983, Note_on_c, 1, 49, 0
4, 39984, Note_on_c, 1, 52, 69
4, 39984, Note_on_c, 1, 49, 69
4, 40031, Note_on_c, 1, 52, 0
4, 40031, Note_on_c, 1, 49, 0
4, 40080, Note_on_c, 1, 59, 69
4, 40080, Note_on_c, 1, 56, 69
4, 40127, Note_on_c, 1, 59, 0
4, 40127, Note_on_c, 1, 56, 0
4, 40128, Note_on_c, 1, 59, 69
4, 40128, Note_on_c, 1, 56, 69
4, 40175, Note_on_c, 1, 59, 0
4, 40175, Note_on_c, 1, 56, 0
4, 40176, Note_on_c, 1, 59, 69
4, 40176, Note_on_c, 1, 56, 69
4, 40223, Note_on_c, 1, 59, 0
4, 40223, Note_on_c, 1, 56, 0
4, 40224, Note_on_c, 1, 59, 69
4, 40224, Note_on_c, 1, 56, 69
4, 40271, Note_on_c, 1, 59, 0
4, 40271, Note_on_c, 1, 56, 0
4, 40272, Note_on_c, 1, 59, 69
4, 40272, Note_on_c, 1, 56, 69
4, 40319, Note_on_c, 1, 59, 0
4, 40319, Note_on_c, 1, 56, 0
4, 40368, Note_on_c, 1, 52, 61
4, 40368, Note_on_c, 1, 45, 61
4, 40415, Note_on_c, 1, 52, 0
4, 40415, Note_on_c, 1, 45, 0
4, 40416, Note_on_c, 1, 52, 61
4, 40416, Note_on_c, 1, 45, 61
4, 40463, Note_on_c, 1, 52, 0
4, 40463, Note_on_c, 1, 45, 0
4, 40464, Note_on_c, 1, 52, 61
4, 40464, Note_on_c, 1, 45, 61
4, 40511, Note_on_c, 1, 52, 0
4, 40511, Note_on_c, 1, 45, 0
4, 40512, Note_on_c, 1, 52, 61
4, 40512, Note_on_c, 1, 45, 61
4, 40559, Note_on_c, 1, 52, 0
4, 40559, Note_on_c, 1, 45, 0
4, 40560, Note_on_c, 1, 52, 61
4, 40560, Note_on_c, 1, 45, 61
4, 40607, Note_on_c, 1, 52, 0
4, 40607, Note_on_c, 1, 45, 0
4, 40656, Note_on_c, 1, 59, 61
4, 40656, Note_on_c, 1, 56, 61
4, 40656, Note_on_c, 1, 50, 61
4, 40703, Note_on_c, 1, 59, 0
4, 40703, Note_on_c, 1, 56, 0
4, 40703, Note_on_c, 1, 50, 0
4, 40704, Note_on_c, 1, 59, 61
4, 40704, Note_on_c, 1, 56, 61
4, 40704, Note_on_c, 1, 50, 61
4, 40751, Note_on_c, 1, 59, 0
4, 40751, Note_on_c, 1, 56, 0
4, 40751, Note_on_c, 1, 50, 0
4, 40752, Note_on_c, 1, 59, 61
4, 40752, Note_on_c, 1, 56, 61
4, 40752, Note_on_c, 1, 50, 61
4, 40799, Note_on_c, 1, 59, 0
4, 40799, Note_on_c, 1, 56, 0
4, 40799, Note_on_c, 1, 50, 0
4, 40800, Note_on_c, 1, 52, 69
4, 40800, Note_on_c, 1, 50, 69
4, 40847, Note_on_c, 1, 52, 0
4, 40847, Note_on_c, 1, 50, 0
4, 40848, Note_on_c, 1, 52, 69
4, 40848, Note_on_c, 1, 50, 69
4, 40895, Note_on_c, 1, 52, 0
4, 40895, Note_on_c, 1, 50, 0
4, 40944, Note_on_c, 1, 52, 69
4, 40944, Note_on_c, 1, 49, 69
4, 40991, Note_on_c, 1, 52, 0
4, 40991, Note_on_c, 1, 49, 0
4, 40992, Note_on_c, 1, 52, 72
4, 40992, Note_on_c, 1, 49, 72
4, 41039, Note_on_c, 1, 52, 0
4, 41039, Note_on_c, 1, 49, 0
4, 41040, Note_on_c, 1, 49, 75
4, 41085, Note_on_c, 1, 49, 0
4, 41088, Note_on_c, 1, 49, 78
4, 41133, Note_on_c, 1, 49, 0
4, 41136, Note_on_c, 1, 49, 81
4, 41181, Note_on_c, 1, 49, 0
4, 41232, Note_on_c, 1, 38, 84
4, 41277, Note_on_c, 1, 38, 0
4, 41280, Note_on_c, 1, 38, 87
4, 41325, Note_on_c, 1, 38, 0
4, 41328, Note_on_c, 1, 38, 90
4, 41373, Note_on_c, 1, 38, 0
4, 41376, Note_on_c, 1, 38, 93
4, 41421, Note_on_c, 1, 38, 0
4, 41424, Note_on_c, 1, 38, 96
4, 41469, Note_on_c, 1, 38, 0
4, 41472, Note_on_c, 1, 38, 99
4, 41561, Note_on_c, 1, 38, 0
4, 41808, Note_on_c, 1, 49, 75
4, 41853, Note_on_c, 1, 49, 0
4, 41856, Note_on_c, 1, 49, 76
4, 41901, Note_on_c, 1, 49, 0
4, 41904, Note_on_c, 1, 49, 77
4, 41949, Note_on_c, 1, 49, 0
4, 41952, Note_on_c, 1, 49, 78
4, 41997, Note_on_c, 1, 49, 0
4, 42000, Note_on_c, 1, 49, 80
4, 42045, Note_on_c, 1, 49, 0
4, 42048, Note_on_c, 1, 49, 81
4, 42137, Note_on_c, 1, 49, 0
4, 42384, Note_on_c, 1, 47, 75
4, 42429, Note_on_c, 1, 47, 0
4, 42480, Note_on_c, 1, 40, 75
4, 42525, Note_on_c, 1, 40, 0
4, 42576, Note_on_c, 1, 45, 75
4, 42621, Note_on_c, 1, 45, 0
4, 42672, Note_on_c, 1, 47, 75
4, 42717, Note_on_c, 1, 47, 0
4, 42768, Note_on_c, 1, 40, 75
4, 42813, Note_on_c, 1, 40, 0
4, 42864, Note_on_c, 1, 45, 75
4, 42909, Note_on_c, 1, 45, 0
4, 42912, Note_on_c, 1, 38, 75
4, 43001, Note_on_c, 1, 38, 0
4, 43248, Note_on_c, 1, 49, 75
4, 43293, Note_on_c, 1, 49, 0
4, 43296, Note_on_c, 1, 49, 75
4, 43341, Note_on_c, 1, 49, 0
4, 43344, Note_on_c, 1, 49, 75
4, 43389, Note_on_c, 1, 49, 0
4, 43392, Note_on_c, 1, 50, 75
4, 43437, Note_on_c, 1, 50, 0
4, 43440, Note_on_c, 1, 52, 75
4, 43485, Note_on_c, 1, 52, 0
4, 43488, Note_on_c, 1, 45, 75
4, 43577, Note_on_c, 1, 45, 0
4, 43584, Note_on_c, 1, 73, 61
4, 43623, Note_on_c, 1, 73, 0
4, 43680, Note_on_c, 1, 68, 61
4, 43719, Note_on_c, 1, 68, 0
4, 43776, Note_on_c, 1, 69, 61
4, 43815, Note_on_c, 1, 69, 0
4, 43968, Note_on_c, 1, 33, 75
4, 44057, Note_on_c, 1, 33, 0
4, 44064, Note_on_c, 1, 38, 75
4, 44153, Note_on_c, 1, 38, 0
4, 44160, Note_on_c, 1, 40, 75
4, 44249, Note_on_c, 1, 40, 0
4, 44256, Note_on_c, 1, 40, 75
4, 44345, Note_on_c, 1, 40, 0
4, 44352, Note_on_c, 1, 33, 75
4, 44441, Note_on_c, 1, 33, 0
4, 44448, Note_on_c, 1, 73, 61
4, 44448, Note_on_c, 1, 69, 61
4, 44544, Note_on_c, 1, 73, 0
4, 44544, Note_on_c, 1, 69, 0
4, 44544, Note_on_c, 1, 71, 61
4, 44544, Note_on_c, 1, 68, 61
4, 44633, Note_on_c, 1, 71, 0
4, 44633, Note_on_c, 1, 68, 0
4, 44640, Note_on_c, 1, 69, 61
4, 44729, Note_on_c, 1, 69, 0
4, 44832, Note_on_c, 1, 33, 75
4, 44921, Note_on_c, 1, 33, 0
4, 44928, Note_on_c, 1, 38, 75
4, 44967, Note_on_c, 1, 38, 0
4, 45024, Note_on_c, 1, 49, 75
4, 45063, Note_on_c, 1, 49, 0
4, 45120, Note_on_c, 1, 47, 75
4, 45140, Note_on_c, 1, 47, 0
4, 45168, Note_on_c, 1, 40, 75
4, 45188, Note_on_c, 1, 40, 0
4, 45216, Note_on_c, 1, 45, 75
4, 45261, Note_on_c, 1, 45, 0
4, 45264, Note_on_c, 1, 47, 76
4, 45309, Note_on_c, 1, 47, 0
4, 45312, Note_on_c, 1, 49, 77
4, 45357, Note_on_c, 1, 49, 0
4, 45360, Note_on_c, 1, 50, 78
4, 45405, Note_on_c, 1, 50, 0
4, 45408, Note_on_c, 1, 52, 80
4, 45453, Note_on_c, 1, 52, 0
4, 45456, Note_on_c, 1, 54, 81
4, 45501, Note_on_c, 1, 54, 0
4, 45504, Note_on_c, 1, 56, 82
4, 45549, Note_on_c, 1, 56, 0
4, 45552, Note_on_c, 1, 57, 84
4, 45597, Note_on_c, 1, 57, 0
4, 45600, Note_on_c, 1, 59, 85
4, 45645, Note_on_c, 1, 59, 0
4, 45648, Note_on_c, 1, 56, 86
4, 45693, Note_on_c, 1, 56, 0
4, 45696, Note_on_c, 1, 57, 87
4, 45741, Note_on_c, 1, 57, 0
4, 45744, Note_on_c, 1, 54, 89
4, 45789, Note_on_c, 1, 54, 0
4, 45792, Note_on_c, 1, 51, 90
4, 45981, Note_on_c, 1, 51, 0
4, 45984, Note_on_c, 1, 51, 95
4, 45984, Note_on_c, 1, 39, 95
4, 46077, Note_on_c, 1, 51, 0
4, 46077, Note_on_c, 1, 39, 0
4, 46080, Note_on_c, 1, 52, 98
4, 46080, Note_on_c, 1, 40, 98
4, 46345, Note_on_c, 1, 52, 0
4, 46345, Note_on_c, 1, 40, 0
4, 47232, Note_on_c, 1, 59, 106
4, 47232, Note_on_c, 1, 56, 106
4, 47409, Note_on_c, 1, 59, 0
4, 47409, Note_on_c, 1, 56, 0
4, 48096, Note_on_c, 1, 61, 106
4, 48096, Note_on_c, 1, 57, 106
4, 48361, Note_on_c, 1, 61, 0
4, 48361, Note_on_c, 1, 57, 0
4, 48384, Note_on_c, 1, 60, 106
4, 48384, Note_on_c, 1, 57, 106
4, 48649, Note_on_c, 1, 60, 0
4, 48649, Note_on_c, 1, 57, 0
4, 48672, Note_on_c, 1, 57, 106
4, 48672, Note_on_c, 1, 53, 106
4, 48937, Note_on_c, 1, 57, 0
4, 48937, Note_on_c, 1, 53, 0
4, 48960, Note_on_c, 1, 57, 106
4, 48960, Note_on_c, 1, 52, 106
4, 49225, Note_on_c, 1, 57, 0
4, 49225, Note_on_c, 1, 52, 0
4, 49248, Note_on_c, 1, 57, 106
4, 49248, Note_on_c, 1, 54, 106
4, 49248, Note_on_c, 1, 51, 106
4, 49425, Note_on_c, 1, 57, 0
4, 49425, Note_on_c, 1, 54, 0
4, 49425, Note_on_c, 1, 51, 0
4, 49680, Note_on_c, 1, 57, 106
4, 49680, Note_on_c, 1, 49, 106
4, 49727, Note_on_c, 1, 57, 0
4, 49727, Note_on_c, 1, 49, 0
4, 49728, Note_on_c, 1, 57, 106
4, 49728, Note_on_c, 1, 49, 106
4, 49775, Note_on_c, 1, 57, 0
4, 49775, Note_on_c, 1, 49, 0
4, 49776, Note_on_c, 1, 57, 106
4, 49776, Note_on_c, 1, 49, 106
4, 49823, Note_on_c, 1, 57, 0
4, 49823, Note_on_c, 1, 49, 0
4, 49824, Note_on_c, 1, 57, 106
4, 49824, Note_on_c, 1, 50, 106
4, 49871, Note_on_c, 1, 57, 0
4, 49871, Note_on_c, 1, 50, 0
4, 49872, Note_on_c, 1, 57, 106
4, 49872, Note_on_c, 1, 50, 106
4, 49919, Note_on_c, 1, 57, 0
4, 49919, Note_on_c, 1, 50, 0
4, 49920, Note_on_c, 1, 57, 106
4, 49920, Note_on_c, 1, 52, 106
4, 49967, Note_on_c, 1, 57, 0
4, 49967, Note_on_c, 1, 52, 0
4, 49968, Note_on_c, 1, 57, 106
4, 49968, Note_on_c, 1, 52, 106
4, 50015, Note_on_c, 1, 57, 0
4, 50015, Note_on_c, 1, 52, 0
4, 50016, Note_on_c, 1, 56, 106
4, 50016, Note_on_c, 1, 52, 106
4, 50063, Note_on_c, 1, 56, 0
4, 50063, Note_on_c, 1, 52, 0
4, 50064, Note_on_c, 1, 56, 106
4, 50064, Note_on_c, 1, 52, 106
4, 50111, Note_on_c, 1, 56, 0
4, 50111, Note_on_c, 1, 52, 0
4, 50112, Note_on_c, 1, 57, 106
4, 50112, Note_on_c, 1, 45, 106
4, 50299, Note_on_c, 1, 57, 0
4, 50299, Note_on_c, 1, 45, 0
4, 50400, Note_on_c, 1, 57, 106
4, 50400, Note_on_c, 1, 50, 106
4, 50447, Note_on_c, 1, 57, 0
4, 50447, Note_on_c, 1, 50, 0
4, 50448, Note_on_c, 1, 57, 106
4, 50448, Note_on_c, 1, 50, 106
4, 50495, Note_on_c, 1, 57, 0
4, 50495, Note_on_c, 1, 50, 0
4, 50496, Note_on_c, 1, 57, 106
4, 50496, Note_on_c, 1, 52, 106
4, 50543, Note_on_c, 1, 57, 0
4, 50543, Note_on_c, 1, 52, 0
4, 50544, Note_on_c, 1, 57, 106
4, 50544, Note_on_c, 1, 52, 106
4, 50591, Note_on_c, 1, 57, 0
4, 50591, Note_on_c, 1, 52, 0
4, 50592, Note_on_c, 1, 52, 106
4, 50592, Note_on_c, 1, 40, 106
4, 50639, Note_on_c, 1, 52, 0
4, 50639, Note_on_c, 1, 40, 0
4, 50640, Note_on_c, 1, 52, 106
4, 50640, Note_on_c, 1, 40, 106
4, 50687, Note_on_c, 1, 52, 0
4, 50687, Note_on_c, 1, 40, 0
4, 50688, Note_on_c, 1, 57, 106
4, 50688, Note_on_c, 1, 45, 106
4, 50733, Note_on_c, 1, 57, 0
4, 50733, Note_on_c, 1, 45, 0
4, 50736, Note_on_c, 1, 45, 106
4, 50736, Note_on_c, 1, 33, 106
4, 50781, Note_on_c, 1, 45, 0
4, 50781, Note_on_c, 1, 33, 0
4, 50784, Note_on_c, 1, 45, 106
4, 50784, Note_on_c, 1, 33, 106
4, 50829, Note_on_c, 1, 45, 0
4, 50829, Note_on_c, 1, 33, 0
4, 50832, Note_on_c, 1, 45, 106
4, 50832, Note_on_c, 1, 33, 106
4, 50877, Note_on_c, 1, 45, 0
4, 50877, Note_on_c, 1, 33, 0
4, 50880, Note_on_c, 1, 45, 106
4, 50880, Note_on_c, 1, 33, 106
4, 50925, Note_on_c, 1, 45, 0
4, 50925, Note_on_c, 1, 33, 0
4, 50928, Note_on_c, 1, 45, 106
4, 50928, Note_on_c, 1, 33, 106
4, 50973, Note_on_c, 1, 45, 0
4, 50973, Note_on_c, 1, 33, 0
4, 50976, Note_on_c, 1, 45, 106
4, 50976, Note_on_c, 1, 33, 106
4, 51021, Note_on_c, 1, 45, 0
4, 51021, Note_on_c, 1, 33, 0
4, 51024, Note_on_c, 1, 45, 106
4, 51024, Note_on_c, 1, 33, 106
4, 51069, Note_on_c, 1, 45, 0
4, 51069, Note_on_c, 1, 33, 0
4, 51072, Note_on_c, 1, 45, 106
4, 51072, Note_on_c, 1, 33, 106
4, 51117, Note_on_c, 1, 45, 0
4, 51117, Note_on_c, 1, 33, 0
4, 51120, Note_on_c, 1, 45, 106
4, 51120, Note_on_c, 1, 33, 106
4, 51165, Note_on_c, 1, 45, 0
4, 51165, Note_on_c, 1, 33, 0
4, 51168, Note_on_c, 1, 45, 106
4, 51168, Note_on_c, 1, 33, 106
4, 51213, Note_on_c, 1, 45, 0
4, 51213, Note_on_c, 1, 33, 0
4, 51216, Note_on_c, 1, 45, 106
4, 51216, Note_on_c, 1, 33, 106
4, 51261, Note_on_c, 1, 45, 0
4, 51261, Note_on_c, 1, 33, 0
4, 51264, Note_on_c, 1, 45, 106
4, 51264, Note_on_c, 1, 33, 106
4, 51529, Note_on_c, 1, 45, 0
4, 51529, Note_on_c, 1, 33, 0
4, 51552, Note_on_c, 1, 40, 75
4, 51641, Note_on_c, 1, 40, 0
4, 51648, Note_on_c, 1, 80, 75
4, 51687, Note_on_c, 1, 80, 0
4, 51744, Note_on_c, 1, 75, 75
4, 51783, Note_on_c, 1, 75, 0
4, 51840, Note_on_c, 1, 76, 75
4, 51879, Note_on_c, 1, 76, 0
4, 52032, Note_on_c, 1, 71, 75
4, 52071, Note_on_c, 1, 71, 0
4, 52128, Note_on_c, 1, 73, 75
4, 52167, Note_on_c, 1, 73, 0
4, 52320, Note_on_c, 1, 68, 75
4, 52359, Note_on_c, 1, 68, 0
4, 52416, Note_on_c, 1, 69, 75
4, 52455, Note_on_c, 1, 69, 0
4, 52608, Note_on_c, 1, 71, 75
4, 52697, Note_on_c, 1, 71, 0
4, 52704, Note_on_c, 1, 64, 69
4, 52793, Note_on_c, 1, 64, 0
4, 52800, Note_on_c, 1, 80, 69
4, 52800, Note_on_c, 1, 76, 69
4, 52896, Note_on_c, 1, 80, 0
4, 52896, Note_on_c, 1, 76, 0
4, 52896, Note_on_c, 1, 78, 69
4, 52896, Note_on_c, 1, 75, 69
4, 52985, Note_on_c, 1, 78, 0
4, 52985, Note_on_c, 1, 75, 0
4, 53088, Note_on_c, 1, 76, 69
4, 53088, Note_on_c, 1, 73, 69
4, 53184, Note_on_c, 1, 76, 0
4, 53184, Note_on_c, 1, 73, 0
4, 53184, Note_on_c, 1, 75, 69
4, 53184, Note_on_c, 1, 71, 69
4, 53273, Note_on_c, 1, 75, 0
4, 53273, Note_on_c, 1, 71, 0
4, 53376, Note_on_c, 1, 73, 69
4, 53376, Note_on_c, 1, 69, 69
4, 53472, Note_on_c, 1, 73, 0
4, 53472, Note_on_c, 1, 69, 0
4, 53472, Note_on_c, 1, 71, 69
4, 53472, Note_on_c, 1, 68, 69
4, 53561, Note_on_c, 1, 71, 0
4, 53561, Note_on_c, 1, 68, 0
4, 53568, Note_on_c, 1, 69, 69
4, 53657, Note_on_c, 1, 69, 0
4, 53760, Note_on_c, 1, 71, 69
4, 53849, Note_on_c, 1, 71, 0
4, 53904, Note_on_c, 1, 64, 69
4, 53924, Note_on_c, 1, 64, 0
4, 53952, Note_on_c, 1, 64, 69
4, 53972, Note_on_c, 1, 64, 0
4, 54000, Note_on_c, 1, 64, 69
4, 54020, Note_on_c, 1, 64, 0
4, 54048, Note_on_c, 1, 64, 69
4, 54071, Note_on_c, 1, 64, 0
4, 54072, Note_on_c, 1, 66, 69
4, 54095, Note_on_c, 1, 66, 0
4, 54096, Note_on_c, 1, 64, 69
4, 54119, Note_on_c, 1, 64, 0
4, 54120, Note_on_c, 1, 62, 69
4, 54143, Note_on_c, 1, 62, 0
4, 54144, Note_on_c, 1, 61, 69
4, 54321, Note_on_c, 1, 61, 0
4, 54480, Note_on_c, 1, 64, 69
4, 54503, Note_on_c, 1, 64, 0
4, 54504, Note_on_c, 1, 66, 69
4, 54527, Note_on_c, 1, 66, 0
4, 54528, Note_on_c, 1, 67, 69
4, 54551, Note_on_c, 1, 67, 0
4, 54552, Note_on_c, 1, 69, 69
4, 54575, Note_on_c, 1, 69, 0
4, 54576, Note_on_c, 1, 67, 69
4, 54599, Note_on_c, 1, 67, 0
4, 54600, Note_on_c, 1, 66, 69
4, 54623, Note_on_c, 1, 66, 0
4, 54624, Note_on_c, 1, 64, 69
4, 54647, Note_on_c, 1, 64, 0
4, 54648, Note_on_c, 1, 62, 69
4, 54671, Note_on_c, 1, 62, 0
4, 54672, Note_on_c, 1, 61, 69
4, 54695, Note_on_c, 1, 61, 0
4, 54696, Note_on_c, 1, 59, 69
4, 54719, Note_on_c, 1, 59, 0
4, 54720, Note_on_c, 1, 58, 69
4, 54985, Note_on_c, 1, 58, 0
4, 55056, Note_on_c, 1, 62, 69
4, 55079, Note_on_c, 1, 62, 0
4, 55080, Note_on_c, 1, 64, 69
4, 55103, Note_on_c, 1, 64, 0
4, 55104, Note_on_c, 1, 66, 69
4, 55127, Note_on_c, 1, 66, 0
4, 55128, Note_on_c, 1, 67, 69
4, 55151, Note_on_c, 1, 67, 0
4, 55152, Note_on_c, 1, 66, 69
4, 55175, Note_on_c, 1, 66, 0
4, 55176, Note_on_c, 1, 64, 69
4, 55199, Note_on_c, 1, 64, 0
4, 55200, Note_on_c, 1, 62, 69
4, 55223, Note_on_c, 1, 62, 0
4, 55224, Note_on_c, 1, 61, 69
4, 55247, Note_on_c, 1, 61, 0
4, 55248, Note_on_c, 1, 59, 69
4, 55271, Note_on_c, 1, 59, 0
4, 55272, Note_on_c, 1, 57, 69
4, 55295, Note_on_c, 1, 57, 0
4, 55296, Note_on_c, 1, 56, 69
4, 55561, Note_on_c, 1, 56, 0
4, 55584, Note_on_c, 1, 64, 69
4, 55584, Note_on_c, 1, 57, 69
4, 55673, Note_on_c, 1, 64, 0
4, 55673, Note_on_c, 1, 57, 0
4, 55680, Note_on_c, 1, 68, 69
4, 55680, Note_on_c, 1, 59, 69
4, 55769, Note_on_c, 1, 68, 0
4, 55769, Note_on_c, 1, 59, 0
4, 55776, Note_on_c, 1, 69, 70
4, 55776, Note_on_c, 1, 61, 70
4, 55865, Note_on_c, 1, 69, 0
4, 55865, Note_on_c, 1, 61, 0
4, 55872, Note_on_c, 1, 71, 71
4, 55872, Note_on_c, 1, 62, 71
4, 56049, Note_on_c, 1, 71, 0
4, 56049, Note_on_c, 1, 62, 0
4, 56064, Note_on_c, 1, 71, 73
4, 56064, Note_on_c, 1, 63, 73
4, 56153, Note_on_c, 1, 71, 0
4, 56153, Note_on_c, 1, 63, 0
4, 56160, Note_on_c, 1, 69, 75
4, 56249, Note_on_c, 1, 69, 0
4, 56256, Note_on_c, 1, 68, 72
4, 56345, Note_on_c, 1, 68, 0
4, 56496, Note_on_c, 1, 33, 69
4, 56516, Note_on_c, 1, 33, 0
4, 56544, Note_on_c, 1, 45, 69
4, 56564, Note_on_c, 1, 45, 0
4, 56592, Note_on_c, 1, 48, 69
4, 56612, Note_on_c, 1, 48, 0
4, 56640, Note_on_c, 1, 45, 69
4, 56660, Note_on_c, 1, 45, 0
4, 56688, Note_on_c, 1, 48, 69
4, 56708, Note_on_c, 1, 48, 0
4, 56784, Note_on_c, 1, 35, 69
4, 56804, Note_on_c, 1, 35, 0
4, 56832, Note_on_c, 1, 47, 69
4, 56852, Note_on_c, 1, 47, 0
4, 56880, Note_on_c, 1, 50, 69
4, 56900, Note_on_c, 1, 50, 0
4, 56928, Note_on_c, 1, 47, 69
4, 56948, Note_on_c, 1, 47, 0
4, 56976, Note_on_c, 1, 50, 69
4, 56996, Note_on_c, 1, 50, 0
4, 57072, Note_on_c, 1, 36, 69
4, 57092, Note_on_c, 1, 36, 0
4, 57120, Note_on_c, 1, 48, 69
4, 57140, Note_on_c, 1, 48, 0
4, 57168, Note_on_c, 1, 52, 69
4, 57188, Note_on_c, 1, 52, 0
4, 57216, Note_on_c, 1, 48, 69
4, 57236, Note_on_c, 1, 48, 0
4, 57264, Note_on_c, 1, 52, 69
4, 57284, Note_on_c, 1, 52, 0
4, 57360, Note_on_c, 1, 50, 69
4, 57360, Note_on_c, 1, 38, 69
4, 57407, Note_on_c, 1, 50, 0
4, 57407, Note_on_c, 1, 38, 0
4, 57408, Note_on_c, 1, 50, 69
4, 57408, Note_on_c, 1, 38, 69
4, 57455, Note_on_c, 1, 50, 0
4, 57455, Note_on_c, 1, 38, 0
4, 57456, Note_on_c, 1, 50, 69
4, 57456, Note_on_c, 1, 38, 69
4, 57503, Note_on_c, 1, 50, 0
4, 57503, Note_on_c, 1, 38, 0
4, 57504, Note_on_c, 1, 50, 69
4, 57504, Note_on_c, 1, 38, 69
4, 57551, Note_on_c, 1, 50, 0
4, 57551, Note_on_c, 1, 38, 0
4, 57552, Note_on_c, 1, 50, 69
4, 57552, Note_on_c, 1, 38, 69
4, 57599, Note_on_c, 1, 50, 0
4, 57599, Note_on_c, 1, 38, 0
4, 57648, Note_on_c, 1, 52, 69
4, 57648, Note_on_c, 1, 40, 69
4, 57695, Note_on_c, 1, 52, 0
4, 57695, Note_on_c, 1, 40, 0
4, 57696, Note_on_c, 1, 52, 69
4, 57696, Note_on_c, 1, 40, 69
4, 57743, Note_on_c, 1, 52, 0
4, 57743, Note_on_c, 1, 40, 0
4, 57744, Note_on_c, 1, 52, 69
4, 57744, Note_on_c, 1, 40, 69
4, 57791, Note_on_c, 1, 52, 0
4, 57791, Note_on_c, 1, 40, 0
4, 57792, Note_on_c, 1, 52, 69
4, 57792, Note_on_c, 1, 44, 69
4, 57839, Note_on_c, 1, 52, 0
4, 57839, Note_on_c, 1, 44, 0
4, 57840, Note_on_c, 1, 52, 69
4, 57840, Note_on_c, 1, 44, 69
4, 57887, Note_on_c, 1, 52, 0
4, 57887, Note_on_c, 1, 44, 0
4, 57936, Note_on_c, 1, 52, 69
4, 57936, Note_on_c, 1, 45, 69
4, 57983, Note_on_c, 1, 52, 0
4, 57983, Note_on_c, 1, 45, 0
4, 57984, Note_on_c, 1, 52, 69
4, 57984, Note_on_c, 1, 45, 69
4, 58031, Note_on_c, 1, 52, 0
4, 58031, Note_on_c, 1, 45, 0
4, 58032, Note_on_c, 1, 52, 69
4, 58032, Note_on_c, 1, 45, 69
4, 58079, Note_on_c, 1, 52, 0
4, 58079, Note_on_c, 1, 45, 0
4, 58080, Note_on_c, 1, 54, 69
4, 58080, Note_on_c, 1, 51, 69
4, 58127, Note_on_c, 1, 54, 0
4, 58127, Note_on_c, 1, 51, 0
4, 58128, Note_on_c, 1, 54, 69
4, 58128, Note_on_c, 1, 51, 69
4, 58175, Note_on_c, 1, 54, 0
4, 58175, Note_on_c, 1, 51, 0
4, 58224, Note_on_c, 1, 40, 69
4, 58269, Note_on_c, 1, 40, 0
4, 58272, Note_on_c, 1, 52, 69
4, 58295, Note_on_c, 1, 52, 0
4, 58296, Note_on_c, 1, 54, 69
4, 58319, Note_on_c, 1, 54, 0
4, 58320, Note_on_c, 1, 52, 69
4, 58343, Note_on_c, 1, 52, 0
4, 58344, Note_on_c, 1, 50, 69
4, 58367, Note_on_c, 1, 50, 0
4, 58368, Note_on_c, 1, 49, 69
4, 58391, Note_on_c, 1, 49, 0
4, 58392, Note_on_c, 1, 50, 69
4, 58415, Note_on_c, 1, 50, 0
4, 58416, Note_on_c, 1, 49, 69
4, 58439, Note_on_c, 1, 49, 0
4, 58440, Note_on_c, 1, 47, 69
4, 58463, Note_on_c, 1, 47, 0
4, 58464, Note_on_c, 1, 45, 75
4, 58511, Note_on_c, 1, 45, 0
4, 58512, Note_on_c, 1, 33, 75
4, 58532, Note_on_c, 1, 33, 0
4, 58560, Note_on_c, 1, 45, 75
4, 58580, Note_on_c, 1, 45, 0
4, 58608, Note_on_c, 1, 49, 75
4, 58628, Note_on_c, 1, 49, 0
4, 58656, Note_on_c, 1, 52, 75
4, 58676, Note_on_c, 1, 52, 0
4, 58704, Note_on_c, 1, 49, 75
4, 58724, Note_on_c, 1, 49, 0
4, 58800, Note_on_c, 1, 33, 75
4, 58820, Note_on_c, 1, 33, 0
4, 58848, Note_on_c, 1, 45, 75
4, 58868, Note_on_c, 1, 45, 0
4, 58896, Note_on_c, 1, 50, 75
4, 58916, Note_on_c, 1, 50, 0
4, 58944, Note_on_c, 1, 54, 75
4, 58964, Note_on_c, 1, 54, 0
4, 58992, Note_on_c, 1, 50, 75
4, 59012, Note_on_c, 1, 50, 0
4, 59088, Note_on_c, 1, 52, 69
4, 59088, Note_on_c, 1, 49, 69
4, 59135, Note_on_c, 1, 52, 0
4, 59135, Note_on_c, 1, 49, 0
4, 59184, Note_on_c, 1, 52, 69
4, 59184, Note_on_c, 1, 49, 69
4, 59231, Note_on_c, 1, 52, 0
4, 59231, Note_on_c, 1, 49, 0
4, 59232, Note_on_c, 1, 52, 69
4, 59232, Note_on_c, 1, 49, 69
4, 59279, Note_on_c, 1, 52, 0
4, 59279, Note_on_c, 1, 49, 0
4, 59280, Note_on_c, 1, 52, 69
4, 59280, Note_on_c, 1, 49, 69
4, 59327, Note_on_c, 1, 52, 0
4, 59327, Note_on_c, 1, 49, 0
4, 59376, Note_on_c, 1, 52, 69
4, 59376, Note_on_c, 1, 44, 69
4, 59423, Note_on_c, 1, 52, 0
4, 59423, Note_on_c, 1, 44, 0
4, 59424, Note_on_c, 1, 52, 69
4, 59424, Note_on_c, 1, 44, 69
4, 59471, Note_on_c, 1, 52, 0
4, 59471, Note_on_c, 1, 44, 0
4, 59472, Note_on_c, 1, 52, 69
4, 59472, Note_on_c, 1, 44, 69
4, 59519, Note_on_c, 1, 52, 0
4, 59519, Note_on_c, 1, 44, 0
4, 59520, Note_on_c, 1, 52, 69
4, 59520, Note_on_c, 1, 44, 69
4, 59567, Note_on_c, 1, 52, 0
4, 59567, Note_on_c, 1, 44, 0
4, 59568, Note_on_c, 1, 52, 69
4, 59568, Note_on_c, 1, 44, 69
4, 59615, Note_on_c, 1, 52, 0
4, 59615, Note_on_c, 1, 44, 0
4, 59664, Note_on_c, 1, 52, 69
4, 59664, Note_on_c, 1, 45, 69
4, 59711, Note_on_c, 1, 52, 0
4, 59711, Note_on_c, 1, 45, 0
4, 59712, Note_on_c, 1, 52, 69
4, 59712, Note_on_c, 1, 45, 69
4, 59759, Note_on_c, 1, 52, 0
4, 59759, Note_on_c, 1, 45, 0
4, 59760, Note_on_c, 1, 52, 69
4, 59760, Note_on_c, 1, 45, 69
4, 59807, Note_on_c, 1, 52, 0
4, 59807, Note_on_c, 1, 45, 0
4, 59808, Note_on_c, 1, 52, 69
4, 59808, Note_on_c, 1, 45, 69
4, 59855, Note_on_c, 1, 52, 0
4, 59855, Note_on_c, 1, 45, 0
4, 59856, Note_on_c, 1, 52, 69
4, 59856, Note_on_c, 1, 45, 69
4, 59903, Note_on_c, 1, 52, 0
4, 59903, Note_on_c, 1, 45, 0
4, 59952, Note_on_c, 1, 52, 69
4, 59952, Note_on_c, 1, 50, 69
4, 59999, Note_on_c, 1, 52, 0
4, 59999, Note_on_c, 1, 50, 0
4, 60000, Note_on_c, 1, 52, 69
4, 60000, Note_on_c, 1, 49, 69
4, 60047, Note_on_c, 1, 52, 0
4, 60047, Note_on_c, 1, 49, 0
4, 60048, Note_on_c, 1, 52, 69
4, 60048, Note_on_c, 1, 49, 69
4, 60095, Note_on_c, 1, 52, 0
4, 60095, Note_on_c, 1, 49, 0
4, 60096, Note_on_c, 1, 52, 69
4, 60096, Note_on_c, 1, 49, 69
4, 60143, Note_on_c, 1, 52, 0
4, 60143, Note_on_c, 1, 49, 0
4, 60144, Note_on_c, 1, 52, 69
4, 60144, Note_on_c, 1, 49, 69
4, 60191, Note_on_c, 1, 52, 0
4, 60191, Note_on_c, 1, 49, 0
4, 60240, Note_on_c, 1, 52, 69
4, 60240, Note_on_c, 1, 50, 69
4, 60287, Note_on_c, 1, 52, 0
4, 60287, Note_on_c, 1, 50, 0
4, 60288, Note_on_c, 1, 52, 69
4, 60288, Note_on_c, 1, 49, 69
4, 60335, Note_on_c, 1, 52, 0
4, 60335, Note_on_c, 1, 49, 0
4, 60336, Note_on_c, 1, 52, 69
4, 60336, Note_on_c, 1, 49, 69
4, 60383, Note_on_c, 1, 52, 0
4, 60383, Note_on_c, 1, 49, 0
4, 60384, Note_on_c, 1, 52, 69
4, 60384, Note_on_c, 1, 49, 69
4, 60431, Note_on_c, 1, 52, 0
4, 60431, Note_on_c, 1, 49, 0
4, 60432, Note_on_c, 1, 52, 69
4, 60432, Note_on_c, 1, 49, 69
4, 60479, Note_on_c, 1, 52, 0
4, 60479, Note_on_c, 1, 49, 0
4, 60480, Note_on_c, 1, 52, 69
4, 60480, Note_on_c, 1, 50, 69
4, 60525, Note_on_c, 1, 52, 0
4, 60525, Note_on_c, 1, 50, 0
4, 60576, Note_on_c, 1, 52, 69
4, 60576, Note_on_c, 1, 49, 69
4, 60621, Note_on_c, 1, 52, 0
4, 60621, Note_on_c, 1, 49, 0
4, 60672, Note_on_c, 1, 44, 75
4, 60717, Note_on_c, 1, 44, 0
4, 60768, Note_on_c, 1, 45, 75
4, 60813, Note_on_c, 1, 45, 0
4, 60864, Note_on_c, 1, 54, 75
4, 60909, Note_on_c, 1, 54, 0
4, 60912, Note_on_c, 1, 52, 75
4, 60957, Note_on_c, 1, 52, 0
4, 60960, Note_on_c, 1, 50, 75
4, 61005, Note_on_c, 1, 50, 0
4, 61008, Note_on_c, 1, 51, 75
4, 61053, Note_on_c, 1, 51, 0
4, 61056, Note_on_c, 1, 52, 75
4, 61101, Note_on_c, 1, 52, 0
4, 61104, Note_on_c, 1, 54, 76
4, 61149, Note_on_c, 1, 54, 0
4, 61152, Note_on_c, 1, 56, 78
4, 61197, Note_on_c, 1, 56, 0
4, 61200, Note_on_c, 1, 57, 79
4, 61245, Note_on_c, 1, 57, 0
4, 61248, Note_on_c, 1, 59, 81
4, 61293, Note_on_c, 1, 59, 0
4, 61296, Note_on_c, 1, 56, 82
4, 61341, Note_on_c, 1, 56, 0
4, 61344, Note_on_c, 1, 57, 84
4, 61389, Note_on_c, 1, 57, 0
4, 61392, Note_on_c, 1, 45, 82
4, 61437, Note_on_c, 1, 45, 0
4, 61488, Note_on_c, 1, 57, 79
4, 61488, Note_on_c, 1, 49, 79
4, 61535, Note_on_c, 1, 57, 0
4, 61535, Note_on_c, 1, 49, 0
4, 61536, Note_on_c, 1, 57, 78
4, 61536, Note_on_c, 1, 49, 78
4, 61583, Note_on_c, 1, 57, 0
4, 61583, Note_on_c, 1, 49, 0
4, 61584, Note_on_c, 1, 57, 76
4, 61584, Note_on_c, 1, 49, 76
4, 61631, Note_on_c, 1, 57, 0
4, 61631, Note_on_c, 1, 49, 0
4, 61632, Note_on_c, 1, 57, 75
4, 61632, Note_on_c, 1, 50, 75
4, 61679, Note_on_c, 1, 57, 0
4, 61679, Note_on_c, 1, 50, 0
4, 61680, Note_on_c, 1, 57, 75
4, 61680, Note_on_c, 1, 50, 75
4, 61727, Note_on_c, 1, 57, 0
4, 61727, Note_on_c, 1, 50, 0
4, 61728, Note_on_c, 1, 57, 75
4, 61728, Note_on_c, 1, 52, 75
4, 61775, Note_on_c, 1, 57, 0
4, 61775, Note_on_c, 1, 52, 0
4, 61776, Note_on_c, 1, 57, 75
4, 61776, Note_on_c, 1, 52, 75
4, 61823, Note_on_c, 1, 57, 0
4, 61823, Note_on_c, 1, 52, 0
4, 61824, Note_on_c, 1, 56, 75
4, 61824, Note_on_c, 1, 52, 75
4, 61871, Note_on_c, 1, 56, 0
4, 61871, Note_on_c, 1, 52, 0
4, 61872, Note_on_c, 1, 56, 75
4, 61872, Note_on_c, 1, 52, 75
4, 61919, Note_on_c, 1, 56, 0
4, 61919, Note_on_c, 1, 52, 0
4, 61968, Note_on_c, 1, 33, 75
4, 62013, Note_on_c, 1, 33, 0
4, 62016, Note_on_c, 1, 45, 75
4, 62061, Note_on_c, 1, 45, 0
4, 62064, Note_on_c, 1, 49, 75
4, 62109, Note_on_c, 1, 49, 0
4, 62112, Note_on_c, 1, 33, 75
4, 62201, Note_on_c, 1, 33, 0
4, 62256, Note_on_c, 1, 59, 69
4, 62256, Note_on_c, 1, 56, 69
4, 62303, Note_on_c, 1, 59, 0
4, 62303, Note_on_c, 1, 56, 0
4, 62304, Note_on_c, 1, 59, 69
4, 62304, Note_on_c, 1, 56, 69
4, 62351, Note_on_c, 1, 59, 0
4, 62351, Note_on_c, 1, 56, 0
4, 62352, Note_on_c, 1, 59, 69
4, 62352, Note_on_c, 1, 56, 69
4, 62399, Note_on_c, 1, 59, 0
4, 62399, Note_on_c, 1, 56, 0
4, 62400, Note_on_c, 1, 59, 69
4, 62400, Note_on_c, 1, 56, 69
4, 62447, Note_on_c, 1, 59, 0
4, 62447, Note_on_c, 1, 56, 0
4, 62448, Note_on_c, 1, 59, 69
4, 62448, Note_on_c, 1, 56, 69
4, 62495, Note_on_c, 1, 59, 0
4, 62495, Note_on_c, 1, 56, 0
4, 62544, Note_on_c, 1, 52, 61
4, 62544, Note_on_c, 1, 45, 61
4, 62591, Note_on_c, 1, 52, 0
4, 62591, Note_on_c, 1, 45, 0
4, 62592, Note_on_c, 1, 52, 61
4, 62592, Note_on_c, 1, 45, 61
4, 62639, Note_on_c, 1, 52, 0
4, 62639, Note_on_c, 1, 45, 0
4, 62640, Note_on_c, 1, 52, 61
4, 62640, Note_on_c, 1, 45, 61
4, 62687, Note_on_c, 1, 52, 0
4, 62687, Note_on_c, 1, 45, 0
4, 62688, Note_on_c, 1, 52, 61
4, 62688, Note_on_c, 1, 45, 61
4, 62735, Note_on_c, 1, 52, 0
4, 62735, Note_on_c, 1, 45, 0
4, 62736, Note_on_c, 1, 52, 61
4, 62736, Note_on_c, 1, 45, 61
4, 62783, Note_on_c, 1, 52, 0
4, 62783, Note_on_c, 1, 45, 0
4, 62832, Note_on_c, 1, 59, 61
4, 62832, Note_on_c, 1, 56, 61
4, 62832, Note_on_c, 1, 50, 61
4, 62879, Note_on_c, 1, 59, 0
4, 62879, Note_on_c, 1, 56, 0
4, 62879, Note_on_c, 1, 50, 0
4, 62880, Note_on_c, 1, 59, 61
4, 62880, Note_on_c, 1, 56, 61
4, 62880, Note_on_c, 1, 50, 61
4, 62927, Note_on_c, 1, 59, 0
4, 62927, Note_on_c, 1, 56, 0
4, 62927, Note_on_c, 1, 50, 0
4, 62928, Note_on_c, 1, 59, 61
4, 62928, Note_on_c, 1, 56, 61
4, 62928, Note_on_c, 1, 50, 61
4, 62975, Note_on_c, 1, 59, 0
4, 62975, Note_on_c, 1, 56, 0
4, 62975, Note_on_c, 1, 50, 0
4, 62976, Note_on_c, 1, 52, 69
4, 62976, Note_on_c, 1, 50, 69
4, 63023, Note_on_c, 1, 52, 0
4, 63023, Note_on_c, 1, 50, 0
4, 63024, Note_on_c, 1, 52, 69
4, 63024, Note_on_c, 1, 50, 69
4, 63071, Note_on_c, 1, 52, 0
4, 63071, Note_on_c, 1, 50, 0
4, 63120, Note_on_c, 1, 52, 69
4, 63120, Note_on_c, 1, 49, 69
4, 63167, Note_on_c, 1, 52, 0
4, 63167, Note_on_c, 1, 49, 0
4, 63168, Note_on_c, 1, 52, 69
4, 63168, Note_on_c, 1, 49, 69
4, 63215, Note_on_c, 1, 52, 0
4, 63215, Note_on_c, 1, 49, 0
4, 63216, Note_on_c, 1, 52, 69
4, 63216, Note_on_c, 1, 49, 69
4, 63263, Note_on_c, 1, 52, 0
4, 63263, Note_on_c, 1, 49, 0
4, 63264, Note_on_c, 1, 52, 69
4, 63264, Note_on_c, 1, 49, 69
4, 63311, Note_on_c, 1, 52, 0
4, 63311, Note_on_c, 1, 49, 0
4, 63312, Note_on_c, 1, 52, 69
4, 63312, Note_on_c, 1, 49, 69
4, 63359, Note_on_c, 1, 52, 0
4, 63359, Note_on_c, 1, 49, 0
4, 63408, Note_on_c, 1, 59, 69
4, 63408, Note_on_c, 1, 56, 69
4, 63455, Note_on_c, 1, 59, 0
4, 63455, Note_on_c, 1, 56, 0
4, 63456, Note_on_c, 1, 59, 69
4, 63456, Note_on_c, 1, 56, 69
4, 63503, Note_on_c, 1, 59, 0
4, 63503, Note_on_c, 1, 56, 0
4, 63504, Note_on_c, 1, 59, 69
4, 63504, Note_on_c, 1, 56, 69
4, 63551, Note_on_c, 1, 59, 0
4, 63551, Note_on_c, 1, 56, 0
4, 63552, Note_on_c, 1, 59, 69
4, 63552, Note_on_c, 1, 56, 69
4, 63599, Note_on_c, 1, 59, 0
4, 63599, Note_on_c, 1, 56, 0
4, 63600, Note_on_c, 1, 59, 69
4, 63600, Note_on_c, 1, 56, 69
4, 63647, Note_on_c, 1, 59, 0
4, 63647, Note_on_c, 1, 56, 0
4, 63696, Note_on_c, 1, 52, 61
4, 63696, Note_on_c, 1, 45, 61
4, 63743, Note_on_c, 1, 52, 0
4, 63743, Note_on_c, 1, 45, 0
4, 63744, Note_on_c, 1, 52, 61
4, 63744, Note_on_c, 1, 45, 61
4, 63791, Note_on_c, 1, 52, 0
4, 63791, Note_on_c, 1, 45, 0
4, 63792, Note_on_c, 1, 52, 61
4, 63792, Note_on_c, 1, 45, 61
4, 63839, Note_on_c, 1, 52, 0
4, 63839, Note_on_c, 1, 45, 0
4, 63840, Note_on_c, 1, 52, 61
4, 63840, Note_on_c, 1, 45, 61
4, 63887, Note_on_c, 1, 52, 0
4, 63887, Note_on_c, 1, 45, 0
4, 63888, Note_on_c, 1, 52, 61
4, 63888, Note_on_c, 1, 45, 61
4, 63935, Note_on_c, 1, 52, 0
4, 63935, Note_on_c, 1, 45, 0
4, 63984, Note_on_c, 1, 59, 61
4, 63984, Note_on_c, 1, 56, 61
4, 63984, Note_on_c, 1, 50, 61
4, 64031, Note_on_c, 1, 59, 0
4, 64031, Note_on_c, 1, 56, 0
4, 64031, Note_on_c, 1, 50, 0
4, 64032, Note_on_c, 1, 59, 61
4, 64032, Note_on_c, 1, 56, 61
4, 64032, Note_on_c, 1, 50, 61
4, 64079, Note_on_c, 1, 59, 0
4, 64079, Note_on_c, 1, 56, 0
4, 64079, Note_on_c, 1, 50, 0
4, 64080, Note_on_c, 1, 59, 61
4, 64080, Note_on_c, 1, 56, 61
4, 64080, Note_on_c, 1, 50, 61
4, 64127, Note_on_c, 1, 59, 0
4, 64127, Note_on_c, 1, 56, 0
4, 64127, Note_on_c, 1, 50, 0
4, 64128, Note_on_c, 1, 52, 69
4, 64128, Note_on_c, 1, 50, 69
4, 64175, Note_on_c, 1, 52, 0
4, 64175, Note_on_c, 1, 50, 0
4, 64176, Note_on_c, 1, 52, 69
4, 64176, Note_on_c, 1, 50, 69
4, 64223, Note_on_c, 1, 52, 0
4, 64223, Note_on_c, 1, 50, 0
4, 64272, Note_on_c, 1, 52, 69
4, 64272, Note_on_c, 1, 49, 69
4, 64319, Note_on_c, 1, 52, 0
4, 64319, Note_on_c, 1, 49, 0
4, 64320, Note_on_c, 1, 52, 72
4, 64320, Note_on_c, 1, 49, 72
4, 64367, Note_on_c, 1, 52, 0
4, 64367, Note_on_c, 1, 49, 0
4, 64368, Note_on_c, 1, 49, 75
4, 64413, Note_on_c, 1, 49, 0
4, 64416, Note_on_c, 1, 49, 78
4, 64461, Note_on_c, 1, 49, 0
4, 64464, Note_on_c, 1, 49, 81
4, 64509, Note_on_c, 1, 49, 0
4, 64560, Note_on_c, 1, 38, 84
4, 64605, Note_on_c, 1, 38, 0
4, 64608, Note_on_c, 1, 38, 87
4, 64653, Note_on_c, 1, 38, 0
4, 64656, Note_on_c, 1, 38, 90
4, 64701, Note_on_c, 1, 38, 0
4, 64704, Note_on_c, 1, 38, 93
4, 64749, Note_on_c, 1, 38, 0
4, 64752, Note_on_c, 1, 38, 96
4, 64797, Note_on_c, 1, 38, 0
4, 64800, Note_on_c, 1, 38, 99
4, 64889, Note_on_c, 1, 38, 0
4, 65136, Note_on_c, 1, 49, 75
4, 65181, Note_on_c, 1, 49, 0
4, 65184, Note_on_c, 1, 49, 76
4, 65229, Note_on_c, 1, 49, 0
4, 65232, Note_on_c, 1, 49, 77
4, 65277, Note_on_c, 1, 49, 0
4, 65280, Note_on_c, 1, 49, 78
4, 65325, Note_on_c, 1, 49, 0
4, 65328, Note_on_c, 1, 49, 80
4, 65373, Note_on_c, 1, 49, 0
4, 65376, Note_on_c, 1, 49, 81
4, 65465, Note_on_c, 1, 49, 0
4, 65712, Note_on_c, 1, 47, 75
4, 65757, Note_on_c, 1, 47, 0
4, 65808, Note_on_c, 1, 40, 75
4, 65853, Note_on_c, 1, 40, 0
4, 65904, Note_on_c, 1, 45, 75
4, 65949, Note_on_c, 1, 45, 0
4, 66000, Note_on_c, 1, 47, 75
4, 66045, Note_on_c, 1, 47, 0
4, 66096, Note_on_c, 1, 40, 75
4, 66141, Note_on_c, 1, 40, 0
4, 66192, Note_on_c, 1, 45, 75
4, 66237, Note_on_c, 1, 45, 0
4, 66240, Note_on_c, 1, 38, 75
4, 66329, Note_on_c, 1, 38, 0
4, 66576, Note_on_c, 1, 49, 75
4, 66621, Note_on_c, 1, 49, 0
4, 66624, Note_on_c, 1, 49, 75
4, 66669, Note_on_c, 1, 49, 0
4, 66672, Note_on_c, 1, 49, 75
4, 66717, Note_on_c, 1, 49, 0
4, 66720, Note_on_c, 1, 50, 75
4, 66765, Note_on_c, 1, 50, 0
4, 66768, Note_on_c, 1, 52, 75
4, 66813, Note_on_c, 1, 52, 0
4, 66816, Note_on_c, 1, 45, 75
4, 66905, Note_on_c, 1, 45, 0
4, 66912, Note_on_c, 1, 73, 61
4, 66951, Note_on_c, 1, 73, 0
4, 67008, Note_on_c, 1, 68, 61
4, 67047, Note_on_c, 1, 68, 0
4, 67104, Note_on_c, 1, 69, 61
4, 67143, Note_on_c, 1, 69, 0
4, 67296, Note_on_c, 1, 33, 75
4, 67385, Note_on_c, 1, 33, 0
4, 67392, Note_on_c, 1, 38, 75
4, 67481, Note_on_c, 1, 38, 0
4, 67488, Note_on_c, 1, 40, 75
4, 67577, Note_on_c, 1, 40, 0
4, 67584, Note_on_c, 1, 40, 75
4, 67673, Note_on_c, 1, 40, 0
4, 67680, Note_on_c, 1, 33, 75
4, 67769, Note_on_c, 1, 33, 0
4, 67776, Note_on_c, 1, 73, 61
4, 67776, Note_on_c, 1, 69, 61
4, 67872, Note_on_c, 1, 73, 0
4, 67872, Note_on_c, 1, 69, 0
4, 67872, Note_on_c, 1, 71, 61
4, 67872, Note_on_c, 1, 68, 61
4, 67961, Note_on_c, 1, 71, 0
4, 67961, Note_on_c, 1, 68, 0
4, 67968, Note_on_c, 1, 69, 61
4, 68057, Note_on_c, 1, 69, 0
4, 68160, Note_on_c, 1, 33, 75
4, 68249, Note_on_c, 1, 33, 0
4, 68256, Note_on_c, 1, 38, 75
4, 68295, Note_on_c, 1, 38, 0
4, 68352, Note_on_c, 1, 49, 75
4, 68391, Note_on_c, 1, 49, 0
4, 68448, Note_on_c, 1, 47, 75
4, 68468, Note_on_c, 1, 47, 0
4, 68496, Note_on_c, 1, 40, 75
4, 68516, Note_on_c, 1, 40, 0
4, 68544, Note_on_c, 1, 45, 75
4, 68589, Note_on_c, 1, 45, 0
4, 68592, Note_on_c, 1, 47, 76
4, 68637, Note_on_c, 1, 47, 0
4, 68640, Note_on_c, 1, 49, 77
4, 68685, Note_on_c, 1, 49, 0
4, 68688, Note_on_c, 1, 50, 78
4, 68733, Note_on_c, 1, 50, 0
4, 68736, Note_on_c, 1, 52, 80
4, 68781, Note_on_c, 1, 52, 0
4, 68784, Note_on_c, 1, 54, 81
4, 68829, Note_on_c, 1, 54, 0
4, 68832, Note_on_c, 1, 56, 82
4, 68877, Note_on_c, 1, 56, 0
4, 68880, Note_on_c, 1, 57, 84
4, 68925, Note_on_c, 1, 57, 0
4, 68928, Note_on_c, 1, 59, 85
4, 68973, Note_on_c, 1, 59, 0
4, 68976, Note_on_c, 1, 56, 86
4, 69021, Note_on_c, 1, 56, 0
4, 69024, Note_on_c, 1, 57, 87
4, 69069, Note_on_c, 1, 57, 0
4, 69072, Note_on_c, 1, 54, 89
4, 69117, Note_on_c, 1, 54, 0
4, 69120, Note_on_c, 1, 51, 90
4, 69309, Note_on_c, 1, 51, 0
4, 69312, Note_on_c, 1, 51, 95
4, 69312, Note_on_c, 1, 39, 95
4, 69405, Note_on_c, 1, 51, 0
4, 69405, Note_on_c, 1, 39, 0
4, 69408, Note_on_c, 1, 52, 98
4, 69408, Note_on_c, 1, 40, 98
4, 69673, Note_on_c, 1, 52, 0
4, 69673, Note_on_c, 1, 40, 0
4, 70560, Note_on_c, 1, 59, 106
4, 70560, Note_on_c, 1, 56, 106
4, 70737, Note_on_c, 1, 59, 0
4, 70737, Note_on_c, 1, 56, 0
4, 71424, Note_on_c, 1, 61, 106
4, 71424, Note_on_c, 1, 57, 106
4, 71689, Note_on_c, 1, 61, 0
4, 71689, Note_on_c, 1, 57, 0
4, 71712, Note_on_c, 1, 60, 106
4, 71712, Note_on_c, 1, 57, 106
4, 71977, Note_on_c, 1, 60, 0
4, 71977, Note_on_c, 1, 57, 0
4, 72000, Note_on_c, 1, 57, 106
4, 72000, Note_on_c, 1, 53, 106
4, 72265, Note_on_c, 1, 57, 0
4, 72265, Note_on_c, 1, 53, 0
4, 72288, Note_on_c, 1, 57, 106
4, 72288, Note_on_c, 1, 52, 106
4, 72553, Note_on_c, 1, 57, 0
4, 72553, Note_on_c, 1, 52, 0
4, 72576, Note_on_c, 1, 57, 106
4, 72576, Note_on_c, 1, 54, 106
4, 72576, Note_on_c, 1, 51, 106
4, 72753, Note_on_c, 1, 57, 0
4, 72753, Note_on_c, 1, 54, 0
4, 72753, Note_on_c, 1, 51, 0
4, 73008, Note_on_c, 1, 57, 106
4, 73008, Note_on_c, 1, 49, 106
4, 73055, Note_on_c, 1, 57, 0
4, 73055, Note_on_c, 1, 49, 0
4, 73056, Note_on_c, 1, 57, 106
4, 73056, Note_on_c, 1, 49, 106
4, 73103, Note_on_c, 1, 57, 0
4, 73103, Note_on_c, 1, 49, 0
4, 73104, Note_on_c, 1, 57, 106
4, 73104, Note_on_c, 1, 49, 106
4, 73151, Note_on_c, 1, 57, 0
4, 73151, Note_on_c, 1, 49, 0
4, 73152, Note_on_c, 1, 57, 106
4, 73152, Note_on_c, 1, 50, 106
4, 73199, Note_on_c, 1, 57, 0
4, 73199, Note_on_c, 1, 50, 0
4, 73200, Note_on_c, 1, 57, 106
4, 73200, Note_on_c, 1, 50, 106
4, 73247, Note_on_c, 1, 57, 0
4, 73247, Note_on_c, 1, 50, 0
4, 73248, Note_on_c, 1, 57, 106
4, 73248, Note_on_c, 1, 52, 106
4, 73295, Note_on_c, 1, 57, 0
4, 73295, Note_on_c, 1, 52, 0
4, 73296, Note_on_c, 1, 57, 106
4, 73296, Note_on_c, 1, 52, 106
4, 73343, Note_on_c, 1, 57, 0
4, 73343, Note_on_c, 1, 52, 0
4, 73344, Note_on_c, 1, 56, 106
4, 73344, Note_on_c, 1, 52, 106
4, 73391, Note_on_c, 1, 56, 0
4, 73391, Note_on_c, 1, 52, 0
4, 73392, Note_on_c, 1, 56, 106
4, 73392, Note_on_c, 1, 52, 106
4, 73439, Note_on_c, 1, 56, 0
4, 73439, Note_on_c, 1, 52, 0
4, 73440, Note_on_c, 1, 57, 106
4, 73440, Note_on_c, 1, 45, 106
4, 73627, Note_on_c, 1, 57, 0
4, 73627, Note_on_c, 1, 45, 0
4, 73728, Note_on_c, 1, 57, 106
4, 73728, Note_on_c, 1, 50, 106
4, 73775, Note_on_c, 1, 57, 0
4, 73775, Note_on_c, 1, 50, 0
4, 73776, Note_on_c, 1, 57, 106
4, 73776, Note_on_c, 1, 50, 106
4, 73823, Note_on_c, 1, 57, 0
4, 73823, Note_on_c, 1, 50, 0
4, 73824, Note_on_c, 1, 57, 106
4, 73824, Note_on_c, 1, 52, 106
4, 73871, Note_on_c, 1, 57, 0
4, 73871, Note_on_c, 1, 52, 0
4, 73872, Note_on_c, 1, 57, 106
4, 73872, Note_on_c, 1, 52, 106
4, 73919, Note_on_c, 1, 57, 0
4, 73919, Note_on_c, 1, 52, 0
4, 73920, Note_on_c, 1, 52, 106
4, 73920, Note_on_c, 1, 40, 106
4, 73967, Note_on_c, 1, 52, 0
4, 73967, Note_on_c, 1, 40, 0
4, 73968, Note_on_c, 1, 52, 106
4, 73968, Note_on_c, 1, 40, 106
4, 74015, Note_on_c, 1, 52, 0
4, 74015, Note_on_c, 1, 40, 0
4, 74016, Note_on_c, 1, 57, 106
4, 74016, Note_on_c, 1, 45, 106
4, 74061, Note_on_c, 1, 57, 0
4, 74061, Note_on_c, 1, 45, 0
4, 74064, Note_on_c, 1, 45, 106
4, 74064, Note_on_c, 1, 33, 106
4, 74109, Note_on_c, 1, 45, 0
4, 74109, Note_on_c, 1, 33, 0
4, 74112, Note_on_c, 1, 45, 106
4, 74112, Note_on_c, 1, 33, 106
4, 74157, Note_on_c, 1, 45, 0
4, 74157, Note_on_c, 1, 33, 0
4, 74160, Note_on_c, 1, 45, 106
4, 74160, Note_on_c, 1, 33, 106
4, 74205, Note_on_c, 1, 45, 0
4, 74205, Note_on_c, 1, 33, 0
4, 74208, Note_on_c, 1, 45, 106
4, 74208, Note_on_c, 1, 33, 106
4, 74253, Note_on_c, 1, 45, 0
4, 74253, Note_on_c, 1, 33, 0
4, 74256, Note_on_c, 1, 45, 106
4, 74256, Note_on_c, 1, 33, 106
4, 74301, Note_on_c, 1, 45, 0
4, 74301, Note_on_c, 1, 33, 0
4, 74304, Note_on_c, 1, 45, 106
4, 74304, Note_on_c, 1, 33, 106
4, 74349, Note_on_c, 1, 45, 0
4, 74349, Note_on_c, 1, 33, 0
4, 74352, Note_on_c, 1, 45, 106
4, 74352, Note_on_c, 1, 33, 106
4, 74397, Note_on_c, 1, 45, 0
4, 74397, Note_on_c, 1, 33, 0
4, 74400, Note_on_c, 1, 45, 106
4, 74400, Note_on_c, 1, 33, 106
4, 74445, Note_on_c, 1, 45, 0
4, 74445, Note_on_c, 1, 33, 0
4, 74448, Note_on_c, 1, 45, 106
4, 74448, Note_on_c, 1, 33, 106
4, 74493, Note_on_c, 1, 45, 0
4, 74493, Note_on_c, 1, 33, 0
4, 74496, Note_on_c, 1, 45, 106
4, 74496, Note_on_c, 1, 33, 106
4, 74541, Note_on_c, 1, 45, 0
4, 74541, Note_on_c, 1, 33, 0
4, 74544, Note_on_c, 1, 45, 106
4, 74544, Note_on_c, 1, 33, 106
4, 74589, Note_on_c, 1, 45, 0
4, 74589, Note_on_c, 1, 33, 0
4, 74592, Note_on_c, 1, 45, 106
4, 74592, Note_on_c, 1, 33, 106
4, 74857, Note_on_c, 1, 45, 0
4, 74857, Note_on_c, 1, 33, 0
4, 74880, Note_on_c, 1, 45, 0
4, 74880, Note_on_c, 1, 33, 0
4, 75057, Note_on_c, 1, 45, 0
4, 75057, Note_on_c, 1, 33, 0
4, 75072, End_track
5, 0, Start_track
5, 0, Program_c, 1, 0
5, 0, Control_c, 1, 7, 127
5, 0, Control_c, 1, 10, 64
5, 32832, Note_on_c, 1, 64, 64
5, 33009, Note_on_c, 1, 64, 0
5, 56160, Note_on_c, 1, 64, 64
5, 56337, Note_on_c, 1, 64, 0
5, 74880, End_track
6, 0, Start_track
6, 0, Title_t, "Piano Solo   <composer>  "
6, 0, End_track
0, 0, End_of_file
