0, 0, Header, 1, 4, 96
1, 0, Start_track
1, 0, Copyright_t, "Copyright  1994-2002 Mozart Music Software"
1, 0, Sequencer_specific, 16, 68, 87, 77, 90, 86, 82, 83, 78, 32, 55, 46, 48, 46, 55, 46, 48
1, 0, Time_signature, 3, 3, 24, 8
1, 0, Tempo, 444444
1, 0, Key_signature, 0, "major"
1, 15984, End_track
2, 0, Start_track
2, 0, Program_c, 0, 0
2, 0, Control_c, 0, 7, 127
2, 0, Control_c, 0, 10, 64
2, 0, Note_on_c, 0, 74, 72
2, 12, Note_on_c, 0, 74, 0
2, 12, Note_on_c, 0, 72, 72
2, 24, Note_on_c, 0, 72, 0
2, 24, Note_on_c, 0, 71, 72
2, 36, Note_on_c, 0, 71, 0
2, 36, Note_on_c, 0, 72, 72
2, 89, Note_on_c, 0, 72, 0
2, 96, Note_on_c, 0, 76, 72
2, 111, Note_on_c, 0, 76, 0
2, 112, Note_on_c, 0, 74, 72
2, 127, Note_on_c, 0, 74, 0
2, 128, Note_on_c, 0, 72, 72
2, 143, Note_on_c, 0, 72, 0
2, 144, Note_on_c, 0, 79, 72
2, 233, Note_on_c, 0, 79, 0
2, 240, Note_on_c, 0, 77, 72
2, 285, Note_on_c, 0, 77, 0
2, 288, Note_on_c, 0, 76, 88
2, 360, Note_on_c, 0, 76, 0
2, 384, Note_on_c, 0, 76, 72
2, 407, Note_on_c, 0, 76, 0
2, 408, Note_on_c, 0, 67, 72
2, 431, Note_on_c, 0, 67, 0
2, 432, Note_on_c, 0, 74, 72
2, 455, Note_on_c, 0, 74, 0
2, 456, Note_on_c, 0, 67, 72
2, 479, Note_on_c, 0, 67, 0
2, 480, Note_on_c, 0, 74, 72
2, 503, Note_on_c, 0, 74, 0
2, 504, Note_on_c, 0, 67, 72
2, 527, Note_on_c, 0, 67, 0
2, 528, Note_on_c, 0, 76, 72
2, 551, Note_on_c, 0, 76, 0
2, 552, Note_on_c, 0, 67, 72
2, 575, Note_on_c, 0, 67, 0
2, 576, Note_on_c, 0, 77, 72
2, 599, Note_on_c, 0, 77, 0
2, 600, Note_on_c, 0, 67, 72
2, 623, Note_on_c, 0, 67, 0
2, 624, Note_on_c, 0, 76, 72
2, 647, Note_on_c, 0, 76, 0
2, 648, Note_on_c, 0, 67, 72
2, 671, Note_on_c, 0, 67, 0
2, 672, Note_on_c, 0, 74, 72
2, 695, Note_on_c, 0, 74, 0
2, 696, Note_on_c, 0, 67, 72
2, 719, Note_on_c, 0, 67, 0
2, 720, Note_on_c, 0, 77, 72
2, 732, Note_on_c, 0, 77, 0
2, 732, Note_on_c, 0, 76, 72
2, 744, Note_on_c, 0, 76, 0
2, 744, Note_on_c, 0, 74, 72
2, 756, Note_on_c, 0, 74, 0
2, 756, Note_on_c, 0, 76, 72
2, 787, Note_on_c, 0, 76, 0
2, 816, Note_on_c, 0, 67, 72
2, 831, Note_on_c, 0, 67, 0
2, 832, Note_on_c, 0, 69, 72
2, 847, Note_on_c, 0, 69, 0
2, 848, Note_on_c, 0, 71, 72
2, 863, Note_on_c, 0, 71, 0
2, 864, Note_on_c, 0, 72, 72
2, 953, Note_on_c, 0, 72, 0
2, 960, Note_on_c, 0, 76, 72
2, 975, Note_on_c, 0, 76, 0
2, 976, Note_on_c, 0, 74, 72
2, 991, Note_on_c, 0, 74, 0
2, 992, Note_on_c, 0, 72, 72
2, 1007, Note_on_c, 0, 72, 0
2, 1008, Note_on_c, 0, 79, 72
2, 1097, Note_on_c, 0, 79, 0
2, 1104, Note_on_c, 0, 77, 72
2, 1149, Note_on_c, 0, 77, 0
2, 1152, Note_on_c, 0, 76, 72
2, 1219, Note_on_c, 0, 76, 0
2, 1248, Note_on_c, 0, 76, 72
2, 1271, Note_on_c, 0, 76, 0
2, 1272, Note_on_c, 0, 67, 72
2, 1295, Note_on_c, 0, 67, 0
2, 1296, Note_on_c, 0, 74, 72
2, 1319, Note_on_c, 0, 74, 0
2, 1320, Note_on_c, 0, 67, 72
2, 1343, Note_on_c, 0, 67, 0
2, 1344, Note_on_c, 0, 74, 72
2, 1367, Note_on_c, 0, 74, 0
2, 1368, Note_on_c, 0, 67, 72
2, 1391, Note_on_c, 0, 67, 0
2, 1392, Note_on_c, 0, 76, 72
2, 1415, Note_on_c, 0, 76, 0
2, 1416, Note_on_c, 0, 67, 72
2, 1439, Note_on_c, 0, 67, 0
2, 1440, Note_on_c, 0, 74, 72
2, 1463, Note_on_c, 0, 74, 0
2, 1464, Note_on_c, 0, 67, 72
2, 1487, Note_on_c, 0, 67, 0
2, 1488, Note_on_c, 0, 74, 72
2, 1511, Note_on_c, 0, 74, 0
2, 1512, Note_on_c, 0, 67, 72
2, 1535, Note_on_c, 0, 67, 0
2, 1536, Note_on_c, 0, 72, 72
2, 1559, Note_on_c, 0, 72, 0
2, 1560, Note_on_c, 0, 67, 72
2, 1583, Note_on_c, 0, 67, 0
2, 1584, Note_on_c, 0, 71, 72
2, 1607, Note_on_c, 0, 71, 0
2, 1608, Note_on_c, 0, 74, 72
2, 1631, Note_on_c, 0, 74, 0
2, 1632, Note_on_c, 0, 71, 72
2, 1655, Note_on_c, 0, 71, 0
2, 1656, Note_on_c, 0, 67, 72
2, 1679, Note_on_c, 0, 67, 0
2, 1680, Note_on_c, 0, 69, 72
2, 1703, Note_on_c, 0, 69, 0
2, 1704, Note_on_c, 0, 66, 72
2, 1727, Note_on_c, 0, 66, 0
2, 1728, Note_on_c, 0, 67, 72
2, 1817, Note_on_c, 0, 67, 0
2, 2208, Note_on_c, 0, 84, 72
2, 2223, Note_on_c, 0, 84, 0
2, 2224, Note_on_c, 0, 83, 72
2, 2239, Note_on_c, 0, 83, 0
2, 2240, Note_on_c, 0, 81, 72
2, 2255, Note_on_c, 0, 81, 0
2, 2256, Note_on_c, 0, 79, 72
2, 2271, Note_on_c, 0, 79, 0
2, 2272, Note_on_c, 0, 78, 72
2, 2287, Note_on_c, 0, 78, 0
2, 2288, Note_on_c, 0, 76, 72
2, 2303, Note_on_c, 0, 76, 0
2, 2304, Note_on_c, 0, 74, 72
2, 2327, Note_on_c, 0, 74, 0
2, 2328, Note_on_c, 0, 81, 72
2, 2351, Note_on_c, 0, 81, 0
2, 2352, Note_on_c, 0, 84, 72
2, 2375, Note_on_c, 0, 84, 0
2, 2376, Note_on_c, 0, 81, 72
2, 2399, Note_on_c, 0, 81, 0
2, 2400, Note_on_c, 0, 83, 72
2, 2423, Note_on_c, 0, 83, 0
2, 2424, Note_on_c, 0, 79, 72
2, 2447, Note_on_c, 0, 79, 0
2, 2448, Note_on_c, 0, 81, 72
2, 2493, Note_on_c, 0, 81, 0
2, 2496, Note_on_c, 0, 79, 72
2, 2541, Note_on_c, 0, 79, 0
2, 2544, Note_on_c, 0, 79, 72
2, 2556, Note_on_c, 0, 79, 0
2, 2556, Note_on_c, 0, 78, 72
2, 2568, Note_on_c, 0, 78, 0
2, 2568, Note_on_c, 0, 79, 72
2, 2580, Note_on_c, 0, 79, 0
2, 2580, Note_on_c, 0, 78, 72
2, 2592, Note_on_c, 0, 78, 0
2, 2592, Note_on_c, 0, 79, 72
2, 2592, Note_on_c, 0, 74, 72
2, 2592, Note_on_c, 0, 71, 72
2, 2681, Note_on_c, 0, 79, 0
2, 2681, Note_on_c, 0, 74, 0
2, 2681, Note_on_c, 0, 71, 0
2, 3072, Note_on_c, 0, 84, 72
2, 3087, Note_on_c, 0, 84, 0
2, 3088, Note_on_c, 0, 83, 72
2, 3103, Note_on_c, 0, 83, 0
2, 3104, Note_on_c, 0, 81, 72
2, 3119, Note_on_c, 0, 81, 0
2, 3120, Note_on_c, 0, 79, 72
2, 3135, Note_on_c, 0, 79, 0
2, 3136, Note_on_c, 0, 78, 72
2, 3151, Note_on_c, 0, 78, 0
2, 3152, Note_on_c, 0, 76, 72
2, 3167, Note_on_c, 0, 76, 0
2, 3168, Note_on_c, 0, 74, 72
2, 3191, Note_on_c, 0, 74, 0
2, 3192, Note_on_c, 0, 81, 72
2, 3215, Note_on_c, 0, 81, 0
2, 3216, Note_on_c, 0, 84, 72
2, 3239, Note_on_c, 0, 84, 0
2, 3240, Note_on_c, 0, 81, 72
2, 3263, Note_on_c, 0, 81, 0
2, 3264, Note_on_c, 0, 83, 72
2, 3287, Note_on_c, 0, 83, 0
2, 3288, Note_on_c, 0, 79, 72
2, 3311, Note_on_c, 0, 79, 0
2, 3312, Note_on_c, 0, 81, 72
2, 3357, Note_on_c, 0, 81, 0
2, 3360, Note_on_c, 0, 79, 72
2, 3405, Note_on_c, 0, 79, 0
2, 3408, Note_on_c, 0, 79, 72
2, 3420, Note_on_c, 0, 79, 0
2, 3420, Note_on_c, 0, 78, 72
2, 3432, Note_on_c, 0, 78, 0
2, 3432, Note_on_c, 0, 79, 72
2, 3444, Note_on_c, 0, 79, 0
2, 3444, Note_on_c, 0, 78, 72
2, 3456, Note_on_c, 0, 78, 0
2, 3456, Note_on_c, 0, 71, 72
2, 3464, Note_on_c, 0, 74, 72
2, 3472, Note_on_c, 0, 79, 72
2, 3549, Note_on_c, 0, 79, 0
2, 3549, Note_on_c, 0, 74, 0
2, 3549, Note_on_c, 0, 71, 0
2, 3600, Note_on_c, 0, 74, 72
2, 3612, Note_on_c, 0, 74, 0
2, 3612, Note_on_c, 0, 72, 72
2, 3624, Note_on_c, 0, 72, 0
2, 3624, Note_on_c, 0, 71, 72
2, 3636, Note_on_c, 0, 71, 0
2, 3636, Note_on_c, 0, 72, 72
2, 3689, Note_on_c, 0, 72, 0
2, 3696, Note_on_c, 0, 76, 72
2, 3711, Note_on_c, 0, 76, 0
2, 3712, Note_on_c, 0, 74, 72
2, 3727, Note_on_c, 0, 74, 0
2, 3728, Note_on_c, 0, 72, 72
2, 3743, Note_on_c, 0, 72, 0
2, 3744, Note_on_c, 0, 79, 72
2, 3833, Note_on_c, 0, 79, 0
2, 3840, Note_on_c, 0, 77, 72
2, 3885, Note_on_c, 0, 77, 0
2, 3888, Note_on_c, 0, 76, 88
2, 3960, Note_on_c, 0, 76, 0
2, 3984, Note_on_c, 0, 76, 72
2, 4007, Note_on_c, 0, 76, 0
2, 4008, Note_on_c, 0, 67, 72
2, 4031, Note_on_c, 0, 67, 0
2, 4032, Note_on_c, 0, 74, 72
2, 4055, Note_on_c, 0, 74, 0
2, 4056, Note_on_c, 0, 67, 72
2, 4079, Note_on_c, 0, 67, 0
2, 4080, Note_on_c, 0, 74, 72
2, 4103, Note_on_c, 0, 74, 0
2, 4104, Note_on_c, 0, 67, 72
2, 4127, Note_on_c, 0, 67, 0
2, 4128, Note_on_c, 0, 76, 72
2, 4151, Note_on_c, 0, 76, 0
2, 4152, Note_on_c, 0, 67, 72
2, 4175, Note_on_c, 0, 67, 0
2, 4176, Note_on_c, 0, 77, 72
2, 4199, Note_on_c, 0, 77, 0
2, 4200, Note_on_c, 0, 67, 72
2, 4223, Note_on_c, 0, 67, 0
2, 4224, Note_on_c, 0, 76, 72
2, 4247, Note_on_c, 0, 76, 0
2, 4248, Note_on_c, 0, 67, 72
2, 4271, Note_on_c, 0, 67, 0
2, 4272, Note_on_c, 0, 74, 72
2, 4295, Note_on_c, 0, 74, 0
2, 4296, Note_on_c, 0, 67, 72
2, 4319, Note_on_c, 0, 67, 0
2, 4320, Note_on_c, 0, 77, 72
2, 4332, Note_on_c, 0, 77, 0
2, 4332, Note_on_c, 0, 76, 72
2, 4344, Note_on_c, 0, 76, 0
2, 4344, Note_on_c, 0, 74, 72
2, 4356, Note_on_c, 0, 74, 0
2, 4356, Note_on_c, 0, 76, 72
2, 4387, Note_on_c, 0, 76, 0
2, 4416, Note_on_c, 0, 67, 72
2, 4431, Note_on_c, 0, 67, 0
2, 4432, Note_on_c, 0, 69, 72
2, 4447, Note_on_c, 0, 69, 0
2, 4448, Note_on_c, 0, 71, 72
2, 4463, Note_on_c, 0, 71, 0
2, 4464, Note_on_c, 0, 72, 72
2, 4553, Note_on_c, 0, 72, 0
2, 4560, Note_on_c, 0, 76, 72
2, 4575, Note_on_c, 0, 76, 0
2, 4576, Note_on_c, 0, 74, 72
2, 4591, Note_on_c, 0, 74, 0
2, 4592, Note_on_c, 0, 72, 72
2, 4607, Note_on_c, 0, 72, 0
2, 4608, Note_on_c, 0, 79, 72
2, 4697, Note_on_c, 0, 79, 0
2, 4704, Note_on_c, 0, 77, 72
2, 4749, Note_on_c, 0, 77, 0
2, 4752, Note_on_c, 0, 76, 72
2, 4819, Note_on_c, 0, 76, 0
2, 4848, Note_on_c, 0, 76, 72
2, 4871, Note_on_c, 0, 76, 0
2, 4872, Note_on_c, 0, 67, 72
2, 4895, Note_on_c, 0, 67, 0
2, 4896, Note_on_c, 0, 74, 72
2, 4919, Note_on_c, 0, 74, 0
2, 4920, Note_on_c, 0, 67, 72
2, 4943, Note_on_c, 0, 67, 0
2, 4944, Note_on_c, 0, 74, 72
2, 4967, Note_on_c, 0, 74, 0
2, 4968, Note_on_c, 0, 67, 72
2, 4991, Note_on_c, 0, 67, 0
2, 4992, Note_on_c, 0, 76, 72
2, 5015, Note_on_c, 0, 76, 0
2, 5016, Note_on_c, 0, 67, 72
2, 5039, Note_on_c, 0, 67, 0
2, 5040, Note_on_c, 0, 74, 72
2, 5063, Note_on_c, 0, 74, 0
2, 5064, Note_on_c, 0, 67, 72
2, 5087, Note_on_c, 0, 67, 0
2, 5088, Note_on_c, 0, 74, 72
2, 5111, Note_on_c, 0, 74, 0
2, 5112, Note_on_c, 0, 67, 72
2, 5135, Note_on_c, 0, 67, 0
2, 5136, Note_on_c, 0, 72, 72
2, 5159, Note_on_c, 0, 72, 0
2, 5160, Note_on_c, 0, 67, 72
2, 5183, Note_on_c, 0, 67, 0
2, 5184, Note_on_c, 0, 71, 72
2, 5207, Note_on_c, 0, 71, 0
2, 5208, Note_on_c, 0, 74, 72
2, 5231, Note_on_c, 0, 74, 0
2, 5232, Note_on_c, 0, 71, 72
2, 5255, Note_on_c, 0, 71, 0
2, 5256, Note_on_c, 0, 67, 72
2, 5279, Note_on_c, 0, 67, 0
2, 5280, Note_on_c, 0, 69, 72
2, 5303, Note_on_c, 0, 69, 0
2, 5304, Note_on_c, 0, 66, 72
2, 5327, Note_on_c, 0, 66, 0
2, 5328, Note_on_c, 0, 67, 72
2, 5417, Note_on_c, 0, 67, 0
2, 5808, Note_on_c, 0, 84, 72
2, 5823, Note_on_c, 0, 84, 0
2, 5824, Note_on_c, 0, 83, 72
2, 5839, Note_on_c, 0, 83, 0
2, 5840, Note_on_c, 0, 81, 72
2, 5855, Note_on_c, 0, 81, 0
2, 5856, Note_on_c, 0, 79, 72
2, 5871, Note_on_c, 0, 79, 0
2, 5872, Note_on_c, 0, 78, 72
2, 5887, Note_on_c, 0, 78, 0
2, 5888, Note_on_c, 0, 76, 72
2, 5903, Note_on_c, 0, 76, 0
2, 5904, Note_on_c, 0, 74, 72
2, 5927, Note_on_c, 0, 74, 0
2, 5928, Note_on_c, 0, 81, 72
2, 5951, Note_on_c, 0, 81, 0
2, 5952, Note_on_c, 0, 84, 72
2, 5975, Note_on_c, 0, 84, 0
2, 5976, Note_on_c, 0, 81, 72
2, 5999, Note_on_c, 0, 81, 0
2, 6000, Note_on_c, 0, 83, 72
2, 6023, Note_on_c, 0, 83, 0
2, 6024, Note_on_c, 0, 79, 72
2, 6047, Note_on_c, 0, 79, 0
2, 6048, Note_on_c, 0, 81, 72
2, 6093, Note_on_c, 0, 81, 0
2, 6096, Note_on_c, 0, 79, 72
2, 6141, Note_on_c, 0, 79, 0
2, 6144, Note_on_c, 0, 79, 72
2, 6156, Note_on_c, 0, 79, 0
2, 6156, Note_on_c, 0, 78, 72
2, 6168, Note_on_c, 0, 78, 0
2, 6168, Note_on_c, 0, 79, 72
2, 6180, Note_on_c, 0, 79, 0
2, 6180, Note_on_c, 0, 78, 72
2, 6192, Note_on_c, 0, 78, 0
2, 6192, Note_on_c, 0, 79, 72
2, 6192, Note_on_c, 0, 74, 72
2, 6192, Note_on_c, 0, 71, 72
2, 6281, Note_on_c, 0, 79, 0
2, 6281, Note_on_c, 0, 74, 0
2, 6281, Note_on_c, 0, 71, 0
2, 6672, Note_on_c, 0, 84, 72
2, 6687, Note_on_c, 0, 84, 0
2, 6688, Note_on_c, 0, 83, 72
2, 6703, Note_on_c, 0, 83, 0
2, 6704, Note_on_c, 0, 81, 72
2, 6719, Note_on_c, 0, 81, 0
2, 6720, Note_on_c, 0, 79, 72
2, 6735, Note_on_c, 0, 79, 0
2, 6736, Note_on_c, 0, 78, 72
2, 6751, Note_on_c, 0, 78, 0
2, 6752, Note_on_c, 0, 76, 72
2, 6767, Note_on_c, 0, 76, 0
2, 6768, Note_on_c, 0, 74, 72
2, 6791, Note_on_c, 0, 74, 0
2, 6792, Note_on_c, 0, 81, 72
2, 6815, Note_on_c, 0, 81, 0
2, 6816, Note_on_c, 0, 84, 72
2, 6839, Note_on_c, 0, 84, 0
2, 6840, Note_on_c, 0, 81, 72
2, 6863, Note_on_c, 0, 81, 0
2, 6864, Note_on_c, 0, 83, 72
2, 6887, Note_on_c, 0, 83, 0
2, 6888, Note_on_c, 0, 79, 72
2, 6911, Note_on_c, 0, 79, 0
2, 6912, Note_on_c, 0, 81, 72
2, 6957, Note_on_c, 0, 81, 0
2, 6960, Note_on_c, 0, 79, 72
2, 7005, Note_on_c, 0, 79, 0
2, 7008, Note_on_c, 0, 79, 72
2, 7020, Note_on_c, 0, 79, 0
2, 7020, Note_on_c, 0, 78, 72
2, 7032, Note_on_c, 0, 78, 0
2, 7032, Note_on_c, 0, 79, 72
2, 7044, Note_on_c, 0, 79, 0
2, 7044, Note_on_c, 0, 78, 72
2, 7056, Note_on_c, 0, 78, 0
2, 7056, Note_on_c, 0, 71, 72
2, 7064, Note_on_c, 0, 74, 72
2, 7072, Note_on_c, 0, 79, 72
2, 7149, Note_on_c, 0, 79, 0
2, 7149, Note_on_c, 0, 74, 0
2, 7149, Note_on_c, 0, 71, 0
2, 7200, Note_on_c, 0, 81, 72
2, 7212, Note_on_c, 0, 81, 0
2, 7212, Note_on_c, 0, 79, 72
2, 7224, Note_on_c, 0, 79, 0
2, 7224, Note_on_c, 0, 78, 72
2, 7236, Note_on_c, 0, 78, 0
2, 7236, Note_on_c, 0, 79, 72
2, 7289, Note_on_c, 0, 79, 0
2, 7296, Note_on_c, 0, 83, 72
2, 7311, Note_on_c, 0, 83, 0
2, 7312, Note_on_c, 0, 81, 72
2, 7327, Note_on_c, 0, 81, 0
2, 7328, Note_on_c, 0, 79, 72
2, 7343, Note_on_c, 0, 79, 0
2, 7344, Note_on_c, 0, 86, 72
2, 7433, Note_on_c, 0, 86, 0
2, 7440, Note_on_c, 0, 77, 72
2, 7485, Note_on_c, 0, 77, 0
2, 7488, Note_on_c, 0, 76, 72
2, 7511, Note_on_c, 0, 76, 0
2, 7512, Note_on_c, 0, 67, 72
2, 7535, Note_on_c, 0, 67, 0
2, 7536, Note_on_c, 0, 74, 72
2, 7559, Note_on_c, 0, 74, 0
2, 7560, Note_on_c, 0, 67, 72
2, 7583, Note_on_c, 0, 67, 0
2, 7584, Note_on_c, 0, 77, 72
2, 7607, Note_on_c, 0, 77, 0
2, 7608, Note_on_c, 0, 67, 72
2, 7631, Note_on_c, 0, 67, 0
2, 7632, Note_on_c, 0, 76, 72
2, 7655, Note_on_c, 0, 76, 0
2, 7656, Note_on_c, 0, 67, 72
2, 7679, Note_on_c, 0, 67, 0
2, 7680, Note_on_c, 0, 74, 72
2, 7703, Note_on_c, 0, 74, 0
2, 7704, Note_on_c, 0, 67, 72
2, 7727, Note_on_c, 0, 67, 0
2, 7728, Note_on_c, 0, 79, 72
2, 7751, Note_on_c, 0, 79, 0
2, 7752, Note_on_c, 0, 67, 72
2, 7775, Note_on_c, 0, 67, 0
2, 7776, Note_on_c, 0, 79, 72
2, 7799, Note_on_c, 0, 79, 0
2, 7800, Note_on_c, 0, 67, 72
2, 7823, Note_on_c, 0, 67, 0
2, 7824, Note_on_c, 0, 77, 72
2, 7847, Note_on_c, 0, 77, 0
2, 7848, Note_on_c, 0, 67, 72
2, 7871, Note_on_c, 0, 67, 0
2, 7872, Note_on_c, 0, 76, 72
2, 7895, Note_on_c, 0, 76, 0
2, 7896, Note_on_c, 0, 67, 72
2, 7919, Note_on_c, 0, 67, 0
2, 7920, Note_on_c, 0, 74, 72
2, 8009, Note_on_c, 0, 74, 0
2, 8064, Note_on_c, 0, 81, 72
2, 8076, Note_on_c, 0, 81, 0
2, 8076, Note_on_c, 0, 79, 72
2, 8088, Note_on_c, 0, 79, 0
2, 8088, Note_on_c, 0, 78, 72
2, 8100, Note_on_c, 0, 78, 0
2, 8100, Note_on_c, 0, 79, 72
2, 8153, Note_on_c, 0, 79, 0
2, 8160, Note_on_c, 0, 83, 72
2, 8175, Note_on_c, 0, 83, 0
2, 8176, Note_on_c, 0, 81, 72
2, 8191, Note_on_c, 0, 81, 0
2, 8192, Note_on_c, 0, 79, 72
2, 8207, Note_on_c, 0, 79, 0
2, 8208, Note_on_c, 0, 86, 72
2, 8297, Note_on_c, 0, 86, 0
2, 8304, Note_on_c, 0, 77, 72
2, 8349, Note_on_c, 0, 77, 0
2, 8352, Note_on_c, 0, 75, 72
2, 8375, Note_on_c, 0, 75, 0
2, 8376, Note_on_c, 0, 67, 72
2, 8399, Note_on_c, 0, 67, 0
2, 8400, Note_on_c, 0, 74, 72
2, 8423, Note_on_c, 0, 74, 0
2, 8424, Note_on_c, 0, 67, 72
2, 8447, Note_on_c, 0, 67, 0
2, 8448, Note_on_c, 0, 77, 72
2, 8471, Note_on_c, 0, 77, 0
2, 8472, Note_on_c, 0, 67, 72
2, 8495, Note_on_c, 0, 67, 0
2, 8496, Note_on_c, 0, 75, 72
2, 8519, Note_on_c, 0, 75, 0
2, 8520, Note_on_c, 0, 67, 72
2, 8543, Note_on_c, 0, 67, 0
2, 8544, Note_on_c, 0, 74, 72
2, 8567, Note_on_c, 0, 74, 0
2, 8568, Note_on_c, 0, 67, 72
2, 8591, Note_on_c, 0, 67, 0
2, 8592, Note_on_c, 0, 79, 72
2, 8615, Note_on_c, 0, 79, 0
2, 8616, Note_on_c, 0, 67, 72
2, 8639, Note_on_c, 0, 67, 0
2, 8640, Note_on_c, 0, 79, 72
2, 8663, Note_on_c, 0, 79, 0
2, 8664, Note_on_c, 0, 67, 72
2, 8687, Note_on_c, 0, 67, 0
2, 8688, Note_on_c, 0, 77, 72
2, 8711, Note_on_c, 0, 77, 0
2, 8712, Note_on_c, 0, 67, 72
2, 8735, Note_on_c, 0, 67, 0
2, 8736, Note_on_c, 0, 75, 72
2, 8759, Note_on_c, 0, 75, 0
2, 8760, Note_on_c, 0, 67, 72
2, 8783, Note_on_c, 0, 67, 0
2, 8784, Note_on_c, 0, 74, 72
2, 8873, Note_on_c, 0, 74, 0
2, 8928, Note_on_c, 0, 74, 72
2, 8940, Note_on_c, 0, 74, 0
2, 8940, Note_on_c, 0, 72, 72
2, 8952, Note_on_c, 0, 72, 0
2, 8952, Note_on_c, 0, 71, 72
2, 8964, Note_on_c, 0, 71, 0
2, 8964, Note_on_c, 0, 72, 72
2, 9017, Note_on_c, 0, 72, 0
2, 9024, Note_on_c, 0, 76, 72
2, 9039, Note_on_c, 0, 76, 0
2, 9040, Note_on_c, 0, 74, 72
2, 9055, Note_on_c, 0, 74, 0
2, 9056, Note_on_c, 0, 72, 72
2, 9071, Note_on_c, 0, 72, 0
2, 9072, Note_on_c, 0, 79, 72
2, 9161, Note_on_c, 0, 79, 0
2, 9168, Note_on_c, 0, 77, 72
2, 9213, Note_on_c, 0, 77, 0
2, 9216, Note_on_c, 0, 76, 72
2, 9283, Note_on_c, 0, 76, 0
2, 9312, Note_on_c, 0, 76, 72
2, 9335, Note_on_c, 0, 76, 0
2, 9336, Note_on_c, 0, 67, 72
2, 9359, Note_on_c, 0, 67, 0
2, 9360, Note_on_c, 0, 74, 72
2, 9383, Note_on_c, 0, 74, 0
2, 9384, Note_on_c, 0, 67, 72
2, 9407, Note_on_c, 0, 67, 0
2, 9408, Note_on_c, 0, 74, 72
2, 9431, Note_on_c, 0, 74, 0
2, 9432, Note_on_c, 0, 67, 72
2, 9455, Note_on_c, 0, 67, 0
2, 9456, Note_on_c, 0, 76, 72
2, 9479, Note_on_c, 0, 76, 0
2, 9480, Note_on_c, 0, 67, 72
2, 9503, Note_on_c, 0, 67, 0
2, 9504, Note_on_c, 0, 77, 72
2, 9527, Note_on_c, 0, 77, 0
2, 9528, Note_on_c, 0, 67, 72
2, 9551, Note_on_c, 0, 67, 0
2, 9552, Note_on_c, 0, 76, 72
2, 9575, Note_on_c, 0, 76, 0
2, 9576, Note_on_c, 0, 67, 72
2, 9599, Note_on_c, 0, 67, 0
2, 9600, Note_on_c, 0, 74, 72
2, 9623, Note_on_c, 0, 74, 0
2, 9624, Note_on_c, 0, 67, 72
2, 9647, Note_on_c, 0, 67, 0
2, 9648, Note_on_c, 0, 72, 72
2, 9737, Note_on_c, 0, 72, 0
2, 10128, Note_on_c, 0, 77, 72
2, 10143, Note_on_c, 0, 77, 0
2, 10144, Note_on_c, 0, 76, 72
2, 10159, Note_on_c, 0, 76, 0
2, 10160, Note_on_c, 0, 74, 72
2, 10175, Note_on_c, 0, 74, 0
2, 10176, Note_on_c, 0, 72, 72
2, 10191, Note_on_c, 0, 72, 0
2, 10192, Note_on_c, 0, 71, 72
2, 10207, Note_on_c, 0, 71, 0
2, 10208, Note_on_c, 0, 69, 72
2, 10223, Note_on_c, 0, 69, 0
2, 10224, Note_on_c, 0, 67, 72
2, 10247, Note_on_c, 0, 67, 0
2, 10248, Note_on_c, 0, 74, 72
2, 10271, Note_on_c, 0, 74, 0
2, 10272, Note_on_c, 0, 77, 72
2, 10295, Note_on_c, 0, 77, 0
2, 10296, Note_on_c, 0, 74, 72
2, 10319, Note_on_c, 0, 74, 0
2, 10320, Note_on_c, 0, 76, 72
2, 10343, Note_on_c, 0, 76, 0
2, 10344, Note_on_c, 0, 72, 72
2, 10367, Note_on_c, 0, 72, 0
2, 10368, Note_on_c, 0, 74, 72
2, 10413, Note_on_c, 0, 74, 0
2, 10416, Note_on_c, 0, 72, 72
2, 10461, Note_on_c, 0, 72, 0
2, 10464, Note_on_c, 0, 72, 72
2, 10476, Note_on_c, 0, 72, 0
2, 10476, Note_on_c, 0, 71, 72
2, 10488, Note_on_c, 0, 71, 0
2, 10488, Note_on_c, 0, 72, 72
2, 10500, Note_on_c, 0, 72, 0
2, 10500, Note_on_c, 0, 71, 72
2, 10512, Note_on_c, 0, 71, 0
2, 10512, Note_on_c, 0, 72, 72
2, 10601, Note_on_c, 0, 72, 0
2, 10992, Note_on_c, 0, 77, 72
2, 11007, Note_on_c, 0, 77, 0
2, 11008, Note_on_c, 0, 76, 72
2, 11023, Note_on_c, 0, 76, 0
2, 11024, Note_on_c, 0, 74, 72
2, 11039, Note_on_c, 0, 74, 0
2, 11040, Note_on_c, 0, 72, 72
2, 11055, Note_on_c, 0, 72, 0
2, 11056, Note_on_c, 0, 71, 72
2, 11071, Note_on_c, 0, 71, 0
2, 11072, Note_on_c, 0, 69, 72
2, 11087, Note_on_c, 0, 69, 0
2, 11088, Note_on_c, 0, 67, 72
2, 11111, Note_on_c, 0, 67, 0
2, 11112, Note_on_c, 0, 74, 72
2, 11135, Note_on_c, 0, 74, 0
2, 11136, Note_on_c, 0, 77, 72
2, 11159, Note_on_c, 0, 77, 0
2, 11160, Note_on_c, 0, 74, 72
2, 11183, Note_on_c, 0, 74, 0
2, 11184, Note_on_c, 0, 76, 72
2, 11207, Note_on_c, 0, 76, 0
2, 11208, Note_on_c, 0, 72, 72
2, 11231, Note_on_c, 0, 72, 0
2, 11232, Note_on_c, 0, 74, 72
2, 11277, Note_on_c, 0, 74, 0
2, 11280, Note_on_c, 0, 72, 72
2, 11325, Note_on_c, 0, 72, 0
2, 11328, Note_on_c, 0, 72, 72
2, 11340, Note_on_c, 0, 72, 0
2, 11340, Note_on_c, 0, 71, 72
2, 11352, Note_on_c, 0, 71, 0
2, 11352, Note_on_c, 0, 72, 72
2, 11364, Note_on_c, 0, 72, 0
2, 11364, Note_on_c, 0, 71, 72
2, 11376, Note_on_c, 0, 71, 0
2, 11376, Note_on_c, 0, 72, 72
2, 11465, Note_on_c, 0, 72, 0
2, 11520, Note_on_c, 0, 81, 72
2, 11532, Note_on_c, 0, 81, 0
2, 11532, Note_on_c, 0, 79, 72
2, 11544, Note_on_c, 0, 79, 0
2, 11544, Note_on_c, 0, 78, 72
2, 11556, Note_on_c, 0, 78, 0
2, 11556, Note_on_c, 0, 79, 72
2, 11609, Note_on_c, 0, 79, 0
2, 11616, Note_on_c, 0, 83, 72
2, 11631, Note_on_c, 0, 83, 0
2, 11632, Note_on_c, 0, 81, 72
2, 11647, Note_on_c, 0, 81, 0
2, 11648, Note_on_c, 0, 79, 72
2, 11663, Note_on_c, 0, 79, 0
2, 11664, Note_on_c, 0, 86, 72
2, 11753, Note_on_c, 0, 86, 0
2, 11760, Note_on_c, 0, 77, 72
2, 11805, Note_on_c, 0, 77, 0
2, 11808, Note_on_c, 0, 76, 72
2, 11831, Note_on_c, 0, 76, 0
2, 11832, Note_on_c, 0, 67, 72
2, 11855, Note_on_c, 0, 67, 0
2, 11856, Note_on_c, 0, 74, 72
2, 11879, Note_on_c, 0, 74, 0
2, 11880, Note_on_c, 0, 67, 72
2, 11903, Note_on_c, 0, 67, 0
2, 11904, Note_on_c, 0, 77, 72
2, 11927, Note_on_c, 0, 77, 0
2, 11928, Note_on_c, 0, 67, 72
2, 11951, Note_on_c, 0, 67, 0
2, 11952, Note_on_c, 0, 76, 72
2, 11975, Note_on_c, 0, 76, 0
2, 11976, Note_on_c, 0, 67, 72
2, 11999, Note_on_c, 0, 67, 0
2, 12000, Note_on_c, 0, 74, 72
2, 12023, Note_on_c, 0, 74, 0
2, 12024, Note_on_c, 0, 67, 72
2, 12047, Note_on_c, 0, 67, 0
2, 12048, Note_on_c, 0, 79, 72
2, 12071, Note_on_c, 0, 79, 0
2, 12072, Note_on_c, 0, 67, 72
2, 12095, Note_on_c, 0, 67, 0
2, 12096, Note_on_c, 0, 79, 72
2, 12119, Note_on_c, 0, 79, 0
2, 12120, Note_on_c, 0, 67, 72
2, 12143, Note_on_c, 0, 67, 0
2, 12144, Note_on_c, 0, 77, 72
2, 12167, Note_on_c, 0, 77, 0
2, 12168, Note_on_c, 0, 67, 72
2, 12191, Note_on_c, 0, 67, 0
2, 12192, Note_on_c, 0, 76, 72
2, 12215, Note_on_c, 0, 76, 0
2, 12216, Note_on_c, 0, 67, 72
2, 12239, Note_on_c, 0, 67, 0
2, 12240, Note_on_c, 0, 74, 72
2, 12329, Note_on_c, 0, 74, 0
2, 12384, Note_on_c, 0, 81, 72
2, 12396, Note_on_c, 0, 81, 0
2, 12396, Note_on_c, 0, 79, 72
2, 12408, Note_on_c, 0, 79, 0
2, 12408, Note_on_c, 0, 78, 72
2, 12420, Note_on_c, 0, 78, 0
2, 12420, Note_on_c, 0, 79, 72
2, 12473, Note_on_c, 0, 79, 0
2, 12480, Note_on_c, 0, 83, 72
2, 12495, Note_on_c, 0, 83, 0
2, 12496, Note_on_c, 0, 81, 72
2, 12511, Note_on_c, 0, 81, 0
2, 12512, Note_on_c, 0, 79, 72
2, 12527, Note_on_c, 0, 79, 0
2, 12528, Note_on_c, 0, 86, 72
2, 12617, Note_on_c, 0, 86, 0
2, 12624, Note_on_c, 0, 77, 72
2, 12669, Note_on_c, 0, 77, 0
2, 12672, Note_on_c, 0, 75, 72
2, 12695, Note_on_c, 0, 75, 0
2, 12696, Note_on_c, 0, 67, 72
2, 12719, Note_on_c, 0, 67, 0
2, 12720, Note_on_c, 0, 74, 72
2, 12743, Note_on_c, 0, 74, 0
2, 12744, Note_on_c, 0, 67, 72
2, 12767, Note_on_c, 0, 67, 0
2, 12768, Note_on_c, 0, 77, 72
2, 12791, Note_on_c, 0, 77, 0
2, 12792, Note_on_c, 0, 67, 72
2, 12815, Note_on_c, 0, 67, 0
2, 12816, Note_on_c, 0, 75, 72
2, 12839, Note_on_c, 0, 75, 0
2, 12840, Note_on_c, 0, 67, 72
2, 12863, Note_on_c, 0, 67, 0
2, 12864, Note_on_c, 0, 74, 72
2, 12887, Note_on_c, 0, 74, 0
2, 12888, Note_on_c, 0, 67, 72
2, 12911, Note_on_c, 0, 67, 0
2, 12912, Note_on_c, 0, 79, 72
2, 12935, Note_on_c, 0, 79, 0
2, 12936, Note_on_c, 0, 67, 72
2, 12959, Note_on_c, 0, 67, 0
2, 12960, Note_on_c, 0, 79, 72
2, 12983, Note_on_c, 0, 79, 0
2, 12984, Note_on_c, 0, 67, 72
2, 13007, Note_on_c, 0, 67, 0
2, 13008, Note_on_c, 0, 77, 72
2, 13031, Note_on_c, 0, 77, 0
2, 13032, Note_on_c, 0, 67, 72
2, 13055, Note_on_c, 0, 67, 0
2, 13056, Note_on_c, 0, 75, 72
2, 13079, Note_on_c, 0, 75, 0
2, 13080, Note_on_c, 0, 67, 72
2, 13103, Note_on_c, 0, 67, 0
2, 13104, Note_on_c, 0, 74, 72
2, 13193, Note_on_c, 0, 74, 0
2, 13248, Note_on_c, 0, 74, 72
2, 13260, Note_on_c, 0, 74, 0
2, 13260, Note_on_c, 0, 72, 72
2, 13272, Note_on_c, 0, 72, 0
2, 13272, Note_on_c, 0, 71, 72
2, 13284, Note_on_c, 0, 71, 0
2, 13284, Note_on_c, 0, 72, 72
2, 13337, Note_on_c, 0, 72, 0
2, 13344, Note_on_c, 0, 76, 72
2, 13359, Note_on_c, 0, 76, 0
2, 13360, Note_on_c, 0, 74, 72
2, 13375, Note_on_c, 0, 74, 0
2, 13376, Note_on_c, 0, 72, 72
2, 13391, Note_on_c, 0, 72, 0
2, 13392, Note_on_c, 0, 79, 72
2, 13481, Note_on_c, 0, 79, 0
2, 13488, Note_on_c, 0, 77, 72
2, 13533, Note_on_c, 0, 77, 0
2, 13536, Note_on_c, 0, 76, 72
2, 13603, Note_on_c, 0, 76, 0
2, 13632, Note_on_c, 0, 76, 72
2, 13655, Note_on_c, 0, 76, 0
2, 13656, Note_on_c, 0, 67, 72
2, 13679, Note_on_c, 0, 67, 0
2, 13680, Note_on_c, 0, 74, 72
2, 13703, Note_on_c, 0, 74, 0
2, 13704, Note_on_c, 0, 67, 72
2, 13727, Note_on_c, 0, 67, 0
2, 13728, Note_on_c, 0, 74, 72
2, 13751, Note_on_c, 0, 74, 0
2, 13752, Note_on_c, 0, 67, 72
2, 13775, Note_on_c, 0, 67, 0
2, 13776, Note_on_c, 0, 76, 72
2, 13799, Note_on_c, 0, 76, 0
2, 13800, Note_on_c, 0, 67, 72
2, 13823, Note_on_c, 0, 67, 0
2, 13824, Note_on_c, 0, 77, 72
2, 13847, Note_on_c, 0, 77, 0
2, 13848, Note_on_c, 0, 67, 72
2, 13871, Note_on_c, 0, 67, 0
2, 13872, Note_on_c, 0, 76, 72
2, 13895, Note_on_c, 0, 76, 0
2, 13896, Note_on_c, 0, 67, 72
2, 13919, Note_on_c, 0, 67, 0
2, 13920, Note_on_c, 0, 74, 72
2, 13943, Note_on_c, 0, 74, 0
2, 13944, Note_on_c, 0, 67, 72
2, 13967, Note_on_c, 0, 67, 0
2, 13968, Note_on_c, 0, 72, 72
2, 14057, Note_on_c, 0, 72, 0
2, 14448, Note_on_c, 0, 77, 72
2, 14463, Note_on_c, 0, 77, 0
2, 14464, Note_on_c, 0, 76, 72
2, 14479, Note_on_c, 0, 76, 0
2, 14480, Note_on_c, 0, 74, 72
2, 14495, Note_on_c, 0, 74, 0
2, 14496, Note_on_c, 0, 72, 72
2, 14511, Note_on_c, 0, 72, 0
2, 14512, Note_on_c, 0, 71, 72
2, 14527, Note_on_c, 0, 71, 0
2, 14528, Note_on_c, 0, 69, 72
2, 14543, Note_on_c, 0, 69, 0
2, 14544, Note_on_c, 0, 67, 72
2, 14567, Note_on_c, 0, 67, 0
2, 14568, Note_on_c, 0, 74, 72
2, 14591, Note_on_c, 0, 74, 0
2, 14592, Note_on_c, 0, 77, 72
2, 14615, Note_on_c, 0, 77, 0
2, 14616, Note_on_c, 0, 74, 72
2, 14639, Note_on_c, 0, 74, 0
2, 14640, Note_on_c, 0, 76, 72
2, 14663, Note_on_c, 0, 76, 0
2, 14664, Note_on_c, 0, 72, 72
2, 14687, Note_on_c, 0, 72, 0
2, 14688, Note_on_c, 0, 74, 72
2, 14733, Note_on_c, 0, 74, 0
2, 14736, Note_on_c, 0, 72, 72
2, 14781, Note_on_c, 0, 72, 0
2, 14784, Note_on_c, 0, 72, 72
2, 14796, Note_on_c, 0, 72, 0
2, 14796, Note_on_c, 0, 71, 72
2, 14808, Note_on_c, 0, 71, 0
2, 14808, Note_on_c, 0, 72, 72
2, 14820, Note_on_c, 0, 72, 0
2, 14820, Note_on_c, 0, 71, 72
2, 14832, Note_on_c, 0, 71, 0
2, 14832, Note_on_c, 0, 72, 72
2, 14921, Note_on_c, 0, 72, 0
2, 15312, Note_on_c, 0, 77, 72
2, 15327, Note_on_c, 0, 77, 0
2, 15328, Note_on_c, 0, 76, 72
2, 15343, Note_on_c, 0, 76, 0
2, 15344, Note_on_c, 0, 74, 72
2, 15359, Note_on_c, 0, 74, 0
2, 15360, Note_on_c, 0, 72, 72
2, 15375, Note_on_c, 0, 72, 0
2, 15376, Note_on_c, 0, 71, 72
2, 15391, Note_on_c, 0, 71, 0
2, 15392, Note_on_c, 0, 69, 72
2, 15407, Note_on_c, 0, 69, 0
2, 15408, Note_on_c, 0, 67, 72
2, 15431, Note_on_c, 0, 67, 0
2, 15432, Note_on_c, 0, 74, 72
2, 15455, Note_on_c, 0, 74, 0
2, 15456, Note_on_c, 0, 77, 72
2, 15479, Note_on_c, 0, 77, 0
2, 15480, Note_on_c, 0, 74, 72
2, 15503, Note_on_c, 0, 74, 0
2, 15504, Note_on_c, 0, 76, 72
2, 15527, Note_on_c, 0, 76, 0
2, 15528, Note_on_c, 0, 72, 72
2, 15551, Note_on_c, 0, 72, 0
2, 15552, Note_on_c, 0, 74, 72
2, 15597, Note_on_c, 0, 74, 0
2, 15600, Note_on_c, 0, 72, 72
2, 15645, Note_on_c, 0, 72, 0
2, 15648, Note_on_c, 0, 72, 72
2, 15660, Note_on_c, 0, 72, 0
2, 15660, Note_on_c, 0, 71, 72
2, 15672, Note_on_c, 0, 71, 0
2, 15672, Note_on_c, 0, 72, 72
2, 15684, Note_on_c, 0, 72, 0
2, 15684, Note_on_c, 0, 71, 72
2, 15696, Note_on_c, 0, 71, 0
2, 15696, Note_on_c, 0, 72, 72
2, 15785, Note_on_c, 0, 72, 0
2, 15984, End_track
3, 0, Start_track
3, 0, Program_c, 1, 0
3, 0, Control_c, 1, 7, 127
3, 0, Control_c, 1, 10, 64
3, 0, Note_on_c, 1, 60, 72
3, 23, Note_on_c, 1, 60, 0
3, 24, Note_on_c, 1, 67, 72
3, 47, Note_on_c, 1, 67, 0
3, 48, Note_on_c, 1, 64, 72
3, 71, Note_on_c, 1, 64, 0
3, 72, Note_on_c, 1, 67, 72
3, 95, Note_on_c, 1, 67, 0
3, 96, Note_on_c, 1, 60, 72
3, 119, Note_on_c, 1, 60, 0
3, 120, Note_on_c, 1, 67, 72
3, 143, Note_on_c, 1, 67, 0
3, 144, Note_on_c, 1, 59, 72
3, 167, Note_on_c, 1, 59, 0
3, 168, Note_on_c, 1, 67, 72
3, 191, Note_on_c, 1, 67, 0
3, 192, Note_on_c, 1, 62, 72
3, 215, Note_on_c, 1, 62, 0
3, 216, Note_on_c, 1, 67, 72
3, 239, Note_on_c, 1, 67, 0
3, 240, Note_on_c, 1, 59, 72
3, 263, Note_on_c, 1, 59, 0
3, 264, Note_on_c, 1, 67, 72
3, 287, Note_on_c, 1, 67, 0
3, 288, Note_on_c, 1, 60, 72
3, 358, Note_on_c, 1, 60, 0
3, 384, Note_on_c, 1, 60, 72
3, 429, Note_on_c, 1, 60, 0
3, 432, Note_on_c, 1, 59, 72
3, 521, Note_on_c, 1, 59, 0
3, 528, Note_on_c, 1, 60, 72
3, 573, Note_on_c, 1, 60, 0
3, 576, Note_on_c, 1, 62, 72
3, 621, Note_on_c, 1, 62, 0
3, 624, Note_on_c, 1, 60, 72
3, 669, Note_on_c, 1, 60, 0
3, 672, Note_on_c, 1, 59, 72
3, 717, Note_on_c, 1, 59, 0
3, 720, Note_on_c, 1, 60, 72
3, 809, Note_on_c, 1, 60, 0
3, 864, Note_on_c, 1, 60, 72
3, 887, Note_on_c, 1, 60, 0
3, 888, Note_on_c, 1, 67, 72
3, 911, Note_on_c, 1, 67, 0
3, 912, Note_on_c, 1, 64, 72
3, 935, Note_on_c, 1, 64, 0
3, 936, Note_on_c, 1, 67, 72
3, 959, Note_on_c, 1, 67, 0
3, 960, Note_on_c, 1, 60, 72
3, 983, Note_on_c, 1, 60, 0
3, 984, Note_on_c, 1, 67, 72
3, 1007, Note_on_c, 1, 67, 0
3, 1008, Note_on_c, 1, 59, 72
3, 1031, Note_on_c, 1, 59, 0
3, 1032, Note_on_c, 1, 67, 72
3, 1055, Note_on_c, 1, 67, 0
3, 1056, Note_on_c, 1, 62, 72
3, 1079, Note_on_c, 1, 62, 0
3, 1080, Note_on_c, 1, 67, 72
3, 1103, Note_on_c, 1, 67, 0
3, 1104, Note_on_c, 1, 59, 72
3, 1127, Note_on_c, 1, 59, 0
3, 1128, Note_on_c, 1, 67, 72
3, 1151, Note_on_c, 1, 67, 0
3, 1152, Note_on_c, 1, 60, 72
3, 1219, Note_on_c, 1, 60, 0
3, 1248, Note_on_c, 1, 60, 72
3, 1293, Note_on_c, 1, 60, 0
3, 1296, Note_on_c, 1, 59, 72
3, 1385, Note_on_c, 1, 59, 0
3, 1392, Note_on_c, 1, 60, 72
3, 1437, Note_on_c, 1, 60, 0
3, 1440, Note_on_c, 1, 62, 72
3, 1529, Note_on_c, 1, 62, 0
3, 1536, Note_on_c, 1, 52, 72
3, 1581, Note_on_c, 1, 52, 0
3, 1584, Note_on_c, 1, 50, 72
3, 1673, Note_on_c, 1, 50, 0
3, 1680, Note_on_c, 1, 38, 72
3, 1725, Note_on_c, 1, 38, 0
3, 1728, Note_on_c, 1, 43, 72
3, 1751, Note_on_c, 1, 43, 0
3, 1752, Note_on_c, 1, 55, 72
3, 1775, Note_on_c, 1, 55, 0
3, 1776, Note_on_c, 1, 45, 72
3, 1799, Note_on_c, 1, 45, 0
3, 1800, Note_on_c, 1, 57, 72
3, 1823, Note_on_c, 1, 57, 0
3, 1824, Note_on_c, 1, 47, 72
3, 1847, Note_on_c, 1, 47, 0
3, 1848, Note_on_c, 1, 59, 72
3, 1871, Note_on_c, 1, 59, 0
3, 1872, Note_on_c, 1, 45, 72
3, 1895, Note_on_c, 1, 45, 0
3, 1896, Note_on_c, 1, 57, 72
3, 1919, Note_on_c, 1, 57, 0
3, 1920, Note_on_c, 1, 47, 72
3, 1943, Note_on_c, 1, 47, 0
3, 1944, Note_on_c, 1, 59, 72
3, 1967, Note_on_c, 1, 59, 0
3, 1968, Note_on_c, 1, 48, 72
3, 1991, Note_on_c, 1, 48, 0
3, 1992, Note_on_c, 1, 60, 72
3, 2015, Note_on_c, 1, 60, 0
3, 2016, Note_on_c, 1, 47, 72
3, 2039, Note_on_c, 1, 47, 0
3, 2040, Note_on_c, 1, 59, 72
3, 2063, Note_on_c, 1, 59, 0
3, 2064, Note_on_c, 1, 48, 72
3, 2087, Note_on_c, 1, 48, 0
3, 2088, Note_on_c, 1, 60, 72
3, 2111, Note_on_c, 1, 60, 0
3, 2112, Note_on_c, 1, 50, 72
3, 2135, Note_on_c, 1, 50, 0
3, 2136, Note_on_c, 1, 62, 72
3, 2159, Note_on_c, 1, 62, 0
3, 2160, Note_on_c, 1, 64, 72
3, 2160, Note_on_c, 1, 52, 72
3, 2249, Note_on_c, 1, 64, 0
3, 2249, Note_on_c, 1, 52, 0
3, 2304, Note_on_c, 1, 54, 72
3, 2393, Note_on_c, 1, 54, 0
3, 2400, Note_on_c, 1, 55, 72
3, 2445, Note_on_c, 1, 55, 0
3, 2448, Note_on_c, 1, 60, 72
3, 2493, Note_on_c, 1, 60, 0
3, 2496, Note_on_c, 1, 62, 72
3, 2541, Note_on_c, 1, 62, 0
3, 2544, Note_on_c, 1, 50, 72
3, 2589, Note_on_c, 1, 50, 0
3, 2592, Note_on_c, 1, 43, 72
3, 2615, Note_on_c, 1, 43, 0
3, 2616, Note_on_c, 1, 55, 72
3, 2639, Note_on_c, 1, 55, 0
3, 2640, Note_on_c, 1, 45, 72
3, 2663, Note_on_c, 1, 45, 0
3, 2664, Note_on_c, 1, 57, 72
3, 2687, Note_on_c, 1, 57, 0
3, 2688, Note_on_c, 1, 47, 72
3, 2711, Note_on_c, 1, 47, 0
3, 2712, Note_on_c, 1, 59, 72
3, 2735, Note_on_c, 1, 59, 0
3, 2736, Note_on_c, 1, 45, 72
3, 2759, Note_on_c, 1, 45, 0
3, 2760, Note_on_c, 1, 57, 72
3, 2783, Note_on_c, 1, 57, 0
3, 2784, Note_on_c, 1, 47, 72
3, 2807, Note_on_c, 1, 47, 0
3, 2808, Note_on_c, 1, 59, 72
3, 2831, Note_on_c, 1, 59, 0
3, 2832, Note_on_c, 1, 48, 72
3, 2855, Note_on_c, 1, 48, 0
3, 2856, Note_on_c, 1, 60, 72
3, 2879, Note_on_c, 1, 60, 0
3, 2880, Note_on_c, 1, 47, 72
3, 2903, Note_on_c, 1, 47, 0
3, 2904, Note_on_c, 1, 59, 72
3, 2927, Note_on_c, 1, 59, 0
3, 2928, Note_on_c, 1, 48, 72
3, 2951, Note_on_c, 1, 48, 0
3, 2952, Note_on_c, 1, 60, 72
3, 2975, Note_on_c, 1, 60, 0
3, 2976, Note_on_c, 1, 50, 72
3, 2999, Note_on_c, 1, 50, 0
3, 3000, Note_on_c, 1, 62, 72
3, 3023, Note_on_c, 1, 62, 0
3, 3024, Note_on_c, 1, 64, 72
3, 3024, Note_on_c, 1, 52, 72
3, 3113, Note_on_c, 1, 64, 0
3, 3113, Note_on_c, 1, 52, 0
3, 3168, Note_on_c, 1, 54, 72
3, 3257, Note_on_c, 1, 54, 0
3, 3264, Note_on_c, 1, 55, 72
3, 3309, Note_on_c, 1, 55, 0
3, 3312, Note_on_c, 1, 60, 72
3, 3357, Note_on_c, 1, 60, 0
3, 3360, Note_on_c, 1, 62, 72
3, 3405, Note_on_c, 1, 62, 0
3, 3408, Note_on_c, 1, 50, 72
3, 3453, Note_on_c, 1, 50, 0
3, 3456, Note_on_c, 1, 55, 72
3, 3501, Note_on_c, 1, 55, 0
3, 3504, Note_on_c, 1, 50, 72
3, 3549, Note_on_c, 1, 50, 0
3, 3552, Note_on_c, 1, 43, 72
3, 3597, Note_on_c, 1, 43, 0
3, 3600, Note_on_c, 1, 60, 72
3, 3623, Note_on_c, 1, 60, 0
3, 3624, Note_on_c, 1, 67, 72
3, 3647, Note_on_c, 1, 67, 0
3, 3648, Note_on_c, 1, 64, 72
3, 3671, Note_on_c, 1, 64, 0
3, 3672, Note_on_c, 1, 67, 72
3, 3695, Note_on_c, 1, 67, 0
3, 3696, Note_on_c, 1, 60, 72
3, 3719, Note_on_c, 1, 60, 0
3, 3720, Note_on_c, 1, 67, 72
3, 3743, Note_on_c, 1, 67, 0
3, 3744, Note_on_c, 1, 59, 72
3, 3767, Note_on_c, 1, 59, 0
3, 3768, Note_on_c, 1, 67, 72
3, 3791, Note_on_c, 1, 67, 0
3, 3792, Note_on_c, 1, 62, 72
3, 3815, Note_on_c, 1, 62, 0
3, 3816, Note_on_c, 1, 67, 72
3, 3839, Note_on_c, 1, 67, 0
3, 3840, Note_on_c, 1, 59, 72
3, 3863, Note_on_c, 1, 59, 0
3, 3864, Note_on_c, 1, 67, 72
3, 3887, Note_on_c, 1, 67, 0
3, 3888, Note_on_c, 1, 60, 72
3, 3958, Note_on_c, 1, 60, 0
3, 3984, Note_on_c, 1, 60, 72
3, 4029, Note_on_c, 1, 60, 0
3, 4032, Note_on_c, 1, 59, 72
3, 4121, Note_on_c, 1, 59, 0
3, 4128, Note_on_c, 1, 60, 72
3, 4173, Note_on_c, 1, 60, 0
3, 4176, Note_on_c, 1, 62, 72
3, 4221, Note_on_c, 1, 62, 0
3, 4224, Note_on_c, 1, 60, 72
3, 4269, Note_on_c, 1, 60, 0
3, 4272, Note_on_c, 1, 59, 72
3, 4317, Note_on_c, 1, 59, 0
3, 4320, Note_on_c, 1, 60, 72
3, 4409, Note_on_c, 1, 60, 0
3, 4464, Note_on_c, 1, 60, 72
3, 4487, Note_on_c, 1, 60, 0
3, 4488, Note_on_c, 1, 67, 72
3, 4511, Note_on_c, 1, 67, 0
3, 4512, Note_on_c, 1, 64, 72
3, 4535, Note_on_c, 1, 64, 0
3, 4536, Note_on_c, 1, 67, 72
3, 4559, Note_on_c, 1, 67, 0
3, 4560, Note_on_c, 1, 60, 72
3, 4583, Note_on_c, 1, 60, 0
3, 4584, Note_on_c, 1, 67, 72
3, 4607, Note_on_c, 1, 67, 0
3, 4608, Note_on_c, 1, 59, 72
3, 4631, Note_on_c, 1, 59, 0
3, 4632, Note_on_c, 1, 67, 72
3, 4655, Note_on_c, 1, 67, 0
3, 4656, Note_on_c, 1, 62, 72
3, 4679, Note_on_c, 1, 62, 0
3, 4680, Note_on_c, 1, 67, 72
3, 4703, Note_on_c, 1, 67, 0
3, 4704, Note_on_c, 1, 59, 72
3, 4727, Note_on_c, 1, 59, 0
3, 4728, Note_on_c, 1, 67, 72
3, 4751, Note_on_c, 1, 67, 0
3, 4752, Note_on_c, 1, 60, 72
3, 4819, Note_on_c, 1, 60, 0
3, 4848, Note_on_c, 1, 60, 72
3, 4893, Note_on_c, 1, 60, 0
3, 4896, Note_on_c, 1, 59, 72
3, 4985, Note_on_c, 1, 59, 0
3, 4992, Note_on_c, 1, 60, 72
3, 5037, Note_on_c, 1, 60, 0
3, 5040, Note_on_c, 1, 62, 72
3, 5129, Note_on_c, 1, 62, 0
3, 5136, Note_on_c, 1, 52, 72
3, 5181, Note_on_c, 1, 52, 0
3, 5184, Note_on_c, 1, 50, 72
3, 5273, Note_on_c, 1, 50, 0
3, 5280, Note_on_c, 1, 38, 72
3, 5325, Note_on_c, 1, 38, 0
3, 5328, Note_on_c, 1, 43, 72
3, 5351, Note_on_c, 1, 43, 0
3, 5352, Note_on_c, 1, 55, 72
3, 5375, Note_on_c, 1, 55, 0
3, 5376, Note_on_c, 1, 45, 72
3, 5399, Note_on_c, 1, 45, 0
3, 5400, Note_on_c, 1, 57, 72
3, 5423, Note_on_c, 1, 57, 0
3, 5424, Note_on_c, 1, 47, 72
3, 5447, Note_on_c, 1, 47, 0
3, 5448, Note_on_c, 1, 59, 72
3, 5471, Note_on_c, 1, 59, 0
3, 5472, Note_on_c, 1, 45, 72
3, 5495, Note_on_c, 1, 45, 0
3, 5496, Note_on_c, 1, 57, 72
3, 5519, Note_on_c, 1, 57, 0
3, 5520, Note_on_c, 1, 47, 72
3, 5543, Note_on_c, 1, 47, 0
3, 5544, Note_on_c, 1, 59, 72
3, 5567, Note_on_c, 1, 59, 0
3, 5568, Note_on_c, 1, 48, 72
3, 5591, Note_on_c, 1, 48, 0
3, 5592, Note_on_c, 1, 60, 72
3, 5615, Note_on_c, 1, 60, 0
3, 5616, Note_on_c, 1, 47, 72
3, 5639, Note_on_c, 1, 47, 0
3, 5640, Note_on_c, 1, 59, 72
3, 5663, Note_on_c, 1, 59, 0
3, 5664, Note_on_c, 1, 48, 72
3, 5687, Note_on_c, 1, 48, 0
3, 5688, Note_on_c, 1, 60, 72
3, 5711, Note_on_c, 1, 60, 0
3, 5712, Note_on_c, 1, 50, 72
3, 5735, Note_on_c, 1, 50, 0
3, 5736, Note_on_c, 1, 62, 72
3, 5759, Note_on_c, 1, 62, 0
3, 5760, Note_on_c, 1, 64, 72
3, 5760, Note_on_c, 1, 52, 72
3, 5849, Note_on_c, 1, 64, 0
3, 5849, Note_on_c, 1, 52, 0
3, 5904, Note_on_c, 1, 54, 72
3, 5993, Note_on_c, 1, 54, 0
3, 6000, Note_on_c, 1, 55, 72
3, 6045, Note_on_c, 1, 55, 0
3, 6048, Note_on_c, 1, 60, 72
3, 6093, Note_on_c, 1, 60, 0
3, 6096, Note_on_c, 1, 62, 72
3, 6141, Note_on_c, 1, 62, 0
3, 6144, Note_on_c, 1, 50, 72
3, 6189, Note_on_c, 1, 50, 0
3, 6192, Note_on_c, 1, 43, 72
3, 6215, Note_on_c, 1, 43, 0
3, 6216, Note_on_c, 1, 55, 72
3, 6239, Note_on_c, 1, 55, 0
3, 6240, Note_on_c, 1, 45, 72
3, 6263, Note_on_c, 1, 45, 0
3, 6264, Note_on_c, 1, 57, 72
3, 6287, Note_on_c, 1, 57, 0
3, 6288, Note_on_c, 1, 47, 72
3, 6311, Note_on_c, 1, 47, 0
3, 6312, Note_on_c, 1, 59, 72
3, 6335, Note_on_c, 1, 59, 0
3, 6336, Note_on_c, 1, 45, 72
3, 6359, Note_on_c, 1, 45, 0
3, 6360, Note_on_c, 1, 57, 72
3, 6383, Note_on_c, 1, 57, 0
3, 6384, Note_on_c, 1, 47, 72
3, 6407, Note_on_c, 1, 47, 0
3, 6408, Note_on_c, 1, 59, 72
3, 6431, Note_on_c, 1, 59, 0
3, 6432, Note_on_c, 1, 48, 72
3, 6455, Note_on_c, 1, 48, 0
3, 6456, Note_on_c, 1, 60, 72
3, 6479, Note_on_c, 1, 60, 0
3, 6480, Note_on_c, 1, 47, 72
3, 6503, Note_on_c, 1, 47, 0
3, 6504, Note_on_c, 1, 59, 72
3, 6527, Note_on_c, 1, 59, 0
3, 6528, Note_on_c, 1, 48, 72
3, 6551, Note_on_c, 1, 48, 0
3, 6552, Note_on_c, 1, 60, 72
3, 6575, Note_on_c, 1, 60, 0
3, 6576, Note_on_c, 1, 50, 72
3, 6599, Note_on_c, 1, 50, 0
3, 6600, Note_on_c, 1, 62, 72
3, 6623, Note_on_c, 1, 62, 0
3, 6624, Note_on_c, 1, 64, 72
3, 6624, Note_on_c, 1, 52, 72
3, 6713, Note_on_c, 1, 64, 0
3, 6713, Note_on_c, 1, 52, 0
3, 6768, Note_on_c, 1, 54, 72
3, 6857, Note_on_c, 1, 54, 0
3, 6864, Note_on_c, 1, 55, 72
3, 6909, Note_on_c, 1, 55, 0
3, 6912, Note_on_c, 1, 60, 72
3, 6957, Note_on_c, 1, 60, 0
3, 6960, Note_on_c, 1, 62, 72
3, 7005, Note_on_c, 1, 62, 0
3, 7008, Note_on_c, 1, 50, 72
3, 7053, Note_on_c, 1, 50, 0
3, 7056, Note_on_c, 1, 55, 72
3, 7101, Note_on_c, 1, 55, 0
3, 7104, Note_on_c, 1, 50, 72
3, 7149, Note_on_c, 1, 50, 0
3, 7152, Note_on_c, 1, 43, 72
3, 7197, Note_on_c, 1, 43, 0
3, 7200, Note_on_c, 1, 55, 72
3, 7223, Note_on_c, 1, 55, 0
3, 7224, Note_on_c, 1, 62, 72
3, 7247, Note_on_c, 1, 62, 0
3, 7248, Note_on_c, 1, 59, 72
3, 7271, Note_on_c, 1, 59, 0
3, 7272, Note_on_c, 1, 62, 72
3, 7295, Note_on_c, 1, 62, 0
3, 7296, Note_on_c, 1, 55, 72
3, 7319, Note_on_c, 1, 55, 0
3, 7320, Note_on_c, 1, 62, 72
3, 7343, Note_on_c, 1, 62, 0
3, 7344, Note_on_c, 1, 55, 72
3, 7367, Note_on_c, 1, 55, 0
3, 7368, Note_on_c, 1, 62, 72
3, 7391, Note_on_c, 1, 62, 0
3, 7392, Note_on_c, 1, 59, 72
3, 7415, Note_on_c, 1, 59, 0
3, 7416, Note_on_c, 1, 62, 72
3, 7439, Note_on_c, 1, 62, 0
3, 7440, Note_on_c, 1, 55, 72
3, 7463, Note_on_c, 1, 55, 0
3, 7464, Note_on_c, 1, 62, 72
3, 7487, Note_on_c, 1, 62, 0
3, 7488, Note_on_c, 1, 60, 72
3, 7533, Note_on_c, 1, 60, 0
3, 7536, Note_on_c, 1, 59, 72
3, 7581, Note_on_c, 1, 59, 0
3, 7584, Note_on_c, 1, 62, 72
3, 7629, Note_on_c, 1, 62, 0
3, 7632, Note_on_c, 1, 60, 72
3, 7677, Note_on_c, 1, 60, 0
3, 7680, Note_on_c, 1, 59, 72
3, 7725, Note_on_c, 1, 59, 0
3, 7728, Note_on_c, 1, 64, 72
3, 7773, Note_on_c, 1, 64, 0
3, 7776, Note_on_c, 1, 64, 72
3, 7821, Note_on_c, 1, 64, 0
3, 7824, Note_on_c, 1, 62, 72
3, 7869, Note_on_c, 1, 62, 0
3, 7872, Note_on_c, 1, 60, 72
3, 7917, Note_on_c, 1, 60, 0
3, 7920, Note_on_c, 1, 55, 72
3, 7943, Note_on_c, 1, 55, 0
3, 7944, Note_on_c, 1, 62, 72
3, 7967, Note_on_c, 1, 62, 0
3, 7968, Note_on_c, 1, 59, 72
3, 7991, Note_on_c, 1, 59, 0
3, 7992, Note_on_c, 1, 62, 72
3, 8015, Note_on_c, 1, 62, 0
3, 8016, Note_on_c, 1, 55, 72
3, 8039, Note_on_c, 1, 55, 0
3, 8040, Note_on_c, 1, 62, 72
3, 8063, Note_on_c, 1, 62, 0
3, 8064, Note_on_c, 1, 55, 72
3, 8087, Note_on_c, 1, 55, 0
3, 8088, Note_on_c, 1, 62, 72
3, 8111, Note_on_c, 1, 62, 0
3, 8112, Note_on_c, 1, 59, 72
3, 8135, Note_on_c, 1, 59, 0
3, 8136, Note_on_c, 1, 62, 72
3, 8159, Note_on_c, 1, 62, 0
3, 8160, Note_on_c, 1, 55, 72
3, 8183, Note_on_c, 1, 55, 0
3, 8184, Note_on_c, 1, 62, 72
3, 8207, Note_on_c, 1, 62, 0
3, 8208, Note_on_c, 1, 55, 72
3, 8231, Note_on_c, 1, 55, 0
3, 8232, Note_on_c, 1, 62, 72
3, 8255, Note_on_c, 1, 62, 0
3, 8256, Note_on_c, 1, 59, 72
3, 8279, Note_on_c, 1, 59, 0
3, 8280, Note_on_c, 1, 62, 72
3, 8303, Note_on_c, 1, 62, 0
3, 8304, Note_on_c, 1, 55, 72
3, 8327, Note_on_c, 1, 55, 0
3, 8328, Note_on_c, 1, 62, 72
3, 8351, Note_on_c, 1, 62, 0
3, 8352, Note_on_c, 1, 60, 72
3, 8397, Note_on_c, 1, 60, 0
3, 8400, Note_on_c, 1, 59, 72
3, 8445, Note_on_c, 1, 59, 0
3, 8448, Note_on_c, 1, 62, 72
3, 8493, Note_on_c, 1, 62, 0
3, 8496, Note_on_c, 1, 60, 72
3, 8541, Note_on_c, 1, 60, 0
3, 8544, Note_on_c, 1, 59, 72
3, 8589, Note_on_c, 1, 59, 0
3, 8592, Note_on_c, 1, 63, 72
3, 8637, Note_on_c, 1, 63, 0
3, 8640, Note_on_c, 1, 63, 72
3, 8685, Note_on_c, 1, 63, 0
3, 8688, Note_on_c, 1, 62, 72
3, 8733, Note_on_c, 1, 62, 0
3, 8736, Note_on_c, 1, 60, 72
3, 8781, Note_on_c, 1, 60, 0
3, 8784, Note_on_c, 1, 55, 72
3, 8807, Note_on_c, 1, 55, 0
3, 8808, Note_on_c, 1, 62, 72
3, 8831, Note_on_c, 1, 62, 0
3, 8832, Note_on_c, 1, 59, 72
3, 8855, Note_on_c, 1, 59, 0
3, 8856, Note_on_c, 1, 62, 72
3, 8879, Note_on_c, 1, 62, 0
3, 8880, Note_on_c, 1, 55, 72
3, 8903, Note_on_c, 1, 55, 0
3, 8904, Note_on_c, 1, 62, 72
3, 8927, Note_on_c, 1, 62, 0
3, 8928, Note_on_c, 1, 60, 72
3, 8951, Note_on_c, 1, 60, 0
3, 8952, Note_on_c, 1, 67, 72
3, 8975, Note_on_c, 1, 67, 0
3, 8976, Note_on_c, 1, 64, 72
3, 8999, Note_on_c, 1, 64, 0
3, 9000, Note_on_c, 1, 67, 72
3, 9023, Note_on_c, 1, 67, 0
3, 9024, Note_on_c, 1, 60, 72
3, 9047, Note_on_c, 1, 60, 0
3, 9048, Note_on_c, 1, 67, 72
3, 9071, Note_on_c, 1, 67, 0
3, 9072, Note_on_c, 1, 59, 72
3, 9095, Note_on_c, 1, 59, 0
3, 9096, Note_on_c, 1, 67, 72
3, 9119, Note_on_c, 1, 67, 0
3, 9120, Note_on_c, 1, 62, 72
3, 9143, Note_on_c, 1, 62, 0
3, 9144, Note_on_c, 1, 67, 72
3, 9167, Note_on_c, 1, 67, 0
3, 9168, Note_on_c, 1, 59, 72
3, 9191, Note_on_c, 1, 59, 0
3, 9192, Note_on_c, 1, 67, 72
3, 9215, Note_on_c, 1, 67, 0
3, 9216, Note_on_c, 1, 60, 72
3, 9283, Note_on_c, 1, 60, 0
3, 9312, Note_on_c, 1, 60, 72
3, 9357, Note_on_c, 1, 60, 0
3, 9360, Note_on_c, 1, 59, 72
3, 9449, Note_on_c, 1, 59, 0
3, 9456, Note_on_c, 1, 60, 72
3, 9501, Note_on_c, 1, 60, 0
3, 9504, Note_on_c, 1, 62, 72
3, 9549, Note_on_c, 1, 62, 0
3, 9552, Note_on_c, 1, 60, 72
3, 9597, Note_on_c, 1, 60, 0
3, 9600, Note_on_c, 1, 59, 72
3, 9645, Note_on_c, 1, 59, 0
3, 9648, Note_on_c, 1, 48, 72
3, 9671, Note_on_c, 1, 48, 0
3, 9672, Note_on_c, 1, 60, 72
3, 9695, Note_on_c, 1, 60, 0
3, 9696, Note_on_c, 1, 50, 72
3, 9719, Note_on_c, 1, 50, 0
3, 9720, Note_on_c, 1, 62, 72
3, 9743, Note_on_c, 1, 62, 0
3, 9744, Note_on_c, 1, 52, 72
3, 9767, Note_on_c, 1, 52, 0
3, 9768, Note_on_c, 1, 64, 72
3, 9791, Note_on_c, 1, 64, 0
3, 9792, Note_on_c, 1, 50, 72
3, 9815, Note_on_c, 1, 50, 0
3, 9816, Note_on_c, 1, 62, 72
3, 9839, Note_on_c, 1, 62, 0
3, 9840, Note_on_c, 1, 52, 72
3, 9863, Note_on_c, 1, 52, 0
3, 9864, Note_on_c, 1, 64, 72
3, 9887, Note_on_c, 1, 64, 0
3, 9888, Note_on_c, 1, 53, 72
3, 9911, Note_on_c, 1, 53, 0
3, 9912, Note_on_c, 1, 65, 72
3, 9935, Note_on_c, 1, 65, 0
3, 9936, Note_on_c, 1, 52, 72
3, 9959, Note_on_c, 1, 52, 0
3, 9960, Note_on_c, 1, 64, 72
3, 9983, Note_on_c, 1, 64, 0
3, 9984, Note_on_c, 1, 53, 72
3, 10007, Note_on_c, 1, 53, 0
3, 10008, Note_on_c, 1, 65, 72
3, 10031, Note_on_c, 1, 65, 0
3, 10032, Note_on_c, 1, 55, 72
3, 10055, Note_on_c, 1, 55, 0
3, 10056, Note_on_c, 1, 67, 72
3, 10079, Note_on_c, 1, 67, 0
3, 10080, Note_on_c, 1, 57, 72
3, 10080, Note_on_c, 1, 45, 72
3, 10169, Note_on_c, 1, 57, 0
3, 10169, Note_on_c, 1, 45, 0
3, 10224, Note_on_c, 1, 59, 72
3, 10313, Note_on_c, 1, 59, 0
3, 10320, Note_on_c, 1, 60, 72
3, 10365, Note_on_c, 1, 60, 0
3, 10368, Note_on_c, 1, 53, 72
3, 10413, Note_on_c, 1, 53, 0
3, 10416, Note_on_c, 1, 55, 72
3, 10461, Note_on_c, 1, 55, 0
3, 10464, Note_on_c, 1, 43, 72
3, 10509, Note_on_c, 1, 43, 0
3, 10512, Note_on_c, 1, 48, 72
3, 10535, Note_on_c, 1, 48, 0
3, 10536, Note_on_c, 1, 60, 72
3, 10559, Note_on_c, 1, 60, 0
3, 10560, Note_on_c, 1, 50, 72
3, 10583, Note_on_c, 1, 50, 0
3, 10584, Note_on_c, 1, 62, 72
3, 10607, Note_on_c, 1, 62, 0
3, 10608, Note_on_c, 1, 52, 72
3, 10631, Note_on_c, 1, 52, 0
3, 10632, Note_on_c, 1, 64, 72
3, 10655, Note_on_c, 1, 64, 0
3, 10656, Note_on_c, 1, 50, 72
3, 10679, Note_on_c, 1, 50, 0
3, 10680, Note_on_c, 1, 62, 72
3, 10703, Note_on_c, 1, 62, 0
3, 10704, Note_on_c, 1, 52, 72
3, 10727, Note_on_c, 1, 52, 0
3, 10728, Note_on_c, 1, 64, 72
3, 10751, Note_on_c, 1, 64, 0
3, 10752, Note_on_c, 1, 53, 72
3, 10775, Note_on_c, 1, 53, 0
3, 10776, Note_on_c, 1, 65, 72
3, 10799, Note_on_c, 1, 65, 0
3, 10800, Note_on_c, 1, 52, 72
3, 10823, Note_on_c, 1, 52, 0
3, 10824, Note_on_c, 1, 64, 72
3, 10847, Note_on_c, 1, 64, 0
3, 10848, Note_on_c, 1, 53, 72
3, 10871, Note_on_c, 1, 53, 0
3, 10872, Note_on_c, 1, 65, 72
3, 10895, Note_on_c, 1, 65, 0
3, 10896, Note_on_c, 1, 55, 72
3, 10919, Note_on_c, 1, 55, 0
3, 10920, Note_on_c, 1, 67, 72
3, 10943, Note_on_c, 1, 67, 0
3, 10944, Note_on_c, 1, 57, 72
3, 10944, Note_on_c, 1, 45, 72
3, 11033, Note_on_c, 1, 57, 0
3, 11033, Note_on_c, 1, 45, 0
3, 11088, Note_on_c, 1, 59, 72
3, 11177, Note_on_c, 1, 59, 0
3, 11184, Note_on_c, 1, 60, 72
3, 11229, Note_on_c, 1, 60, 0
3, 11232, Note_on_c, 1, 53, 72
3, 11277, Note_on_c, 1, 53, 0
3, 11280, Note_on_c, 1, 55, 72
3, 11325, Note_on_c, 1, 55, 0
3, 11328, Note_on_c, 1, 43, 72
3, 11373, Note_on_c, 1, 43, 0
3, 11376, Note_on_c, 1, 48, 72
3, 11421, Note_on_c, 1, 48, 0
3, 11424, Note_on_c, 1, 36, 72
3, 11469, Note_on_c, 1, 36, 0
3, 11520, Note_on_c, 1, 55, 72
3, 11543, Note_on_c, 1, 55, 0
3, 11544, Note_on_c, 1, 62, 72
3, 11567, Note_on_c, 1, 62, 0
3, 11568, Note_on_c, 1, 59, 72
3, 11591, Note_on_c, 1, 59, 0
3, 11592, Note_on_c, 1, 62, 72
3, 11615, Note_on_c, 1, 62, 0
3, 11616, Note_on_c, 1, 55, 72
3, 11639, Note_on_c, 1, 55, 0
3, 11640, Note_on_c, 1, 62, 72
3, 11663, Note_on_c, 1, 62, 0
3, 11664, Note_on_c, 1, 55, 72
3, 11687, Note_on_c, 1, 55, 0
3, 11688, Note_on_c, 1, 62, 72
3, 11711, Note_on_c, 1, 62, 0
3, 11712, Note_on_c, 1, 59, 72
3, 11735, Note_on_c, 1, 59, 0
3, 11736, Note_on_c, 1, 62, 72
3, 11759, Note_on_c, 1, 62, 0
3, 11760, Note_on_c, 1, 55, 72
3, 11783, Note_on_c, 1, 55, 0
3, 11784, Note_on_c, 1, 62, 72
3, 11807, Note_on_c, 1, 62, 0
3, 11808, Note_on_c, 1, 60, 72
3, 11853, Note_on_c, 1, 60, 0
3, 11856, Note_on_c, 1, 59, 72
3, 11901, Note_on_c, 1, 59, 0
3, 11904, Note_on_c, 1, 62, 72
3, 11949, Note_on_c, 1, 62, 0
3, 11952, Note_on_c, 1, 60, 72
3, 11997, Note_on_c, 1, 60, 0
3, 12000, Note_on_c, 1, 59, 72
3, 12045, Note_on_c, 1, 59, 0
3, 12048, Note_on_c, 1, 64, 72
3, 12093, Note_on_c, 1, 64, 0
3, 12096, Note_on_c, 1, 64, 72
3, 12141, Note_on_c, 1, 64, 0
3, 12144, Note_on_c, 1, 62, 72
3, 12189, Note_on_c, 1, 62, 0
3, 12192, Note_on_c, 1, 60, 72
3, 12237, Note_on_c, 1, 60, 0
3, 12240, Note_on_c, 1, 55, 72
3, 12263, Note_on_c, 1, 55, 0
3, 12264, Note_on_c, 1, 62, 72
3, 12287, Note_on_c, 1, 62, 0
3, 12288, Note_on_c, 1, 59, 72
3, 12311, Note_on_c, 1, 59, 0
3, 12312, Note_on_c, 1, 62, 72
3, 12335, Note_on_c, 1, 62, 0
3, 12336, Note_on_c, 1, 55, 72
3, 12359, Note_on_c, 1, 55, 0
3, 12360, Note_on_c, 1, 62, 72
3, 12383, Note_on_c, 1, 62, 0
3, 12384, Note_on_c, 1, 55, 72
3, 12407, Note_on_c, 1, 55, 0
3, 12408, Note_on_c, 1, 62, 72
3, 12431, Note_on_c, 1, 62, 0
3, 12432, Note_on_c, 1, 59, 72
3, 12455, Note_on_c, 1, 59, 0
3, 12456, Note_on_c, 1, 62, 72
3, 12479, Note_on_c, 1, 62, 0
3, 12480, Note_on_c, 1, 55, 72
3, 12503, Note_on_c, 1, 55, 0
3, 12504, Note_on_c, 1, 62, 72
3, 12527, Note_on_c, 1, 62, 0
3, 12528, Note_on_c, 1, 55, 72
3, 12551, Note_on_c, 1, 55, 0
3, 12552, Note_on_c, 1, 62, 72
3, 12575, Note_on_c, 1, 62, 0
3, 12576, Note_on_c, 1, 59, 72
3, 12599, Note_on_c, 1, 59, 0
3, 12600, Note_on_c, 1, 62, 72
3, 12623, Note_on_c, 1, 62, 0
3, 12624, Note_on_c, 1, 55, 72
3, 12647, Note_on_c, 1, 55, 0
3, 12648, Note_on_c, 1, 62, 72
3, 12671, Note_on_c, 1, 62, 0
3, 12672, Note_on_c, 1, 60, 72
3, 12717, Note_on_c, 1, 60, 0
3, 12720, Note_on_c, 1, 59, 72
3, 12765, Note_on_c, 1, 59, 0
3, 12768, Note_on_c, 1, 62, 72
3, 12813, Note_on_c, 1, 62, 0
3, 12816, Note_on_c, 1, 60, 72
3, 12861, Note_on_c, 1, 60, 0
3, 12864, Note_on_c, 1, 59, 72
3, 12909, Note_on_c, 1, 59, 0
3, 12912, Note_on_c, 1, 63, 72
3, 12957, Note_on_c, 1, 63, 0
3, 12960, Note_on_c, 1, 63, 72
3, 13005, Note_on_c, 1, 63, 0
3, 13008, Note_on_c, 1, 62, 72
3, 13053, Note_on_c, 1, 62, 0
3, 13056, Note_on_c, 1, 60, 72
3, 13101, Note_on_c, 1, 60, 0
3, 13104, Note_on_c, 1, 55, 72
3, 13127, Note_on_c, 1, 55, 0
3, 13128, Note_on_c, 1, 62, 72
3, 13151, Note_on_c, 1, 62, 0
3, 13152, Note_on_c, 1, 59, 72
3, 13175, Note_on_c, 1, 59, 0
3, 13176, Note_on_c, 1, 62, 72
3, 13199, Note_on_c, 1, 62, 0
3, 13200, Note_on_c, 1, 55, 72
3, 13223, Note_on_c, 1, 55, 0
3, 13224, Note_on_c, 1, 62, 72
3, 13247, Note_on_c, 1, 62, 0
3, 13248, Note_on_c, 1, 60, 72
3, 13271, Note_on_c, 1, 60, 0
3, 13272, Note_on_c, 1, 67, 72
3, 13295, Note_on_c, 1, 67, 0
3, 13296, Note_on_c, 1, 64, 72
3, 13319, Note_on_c, 1, 64, 0
3, 13320, Note_on_c, 1, 67, 72
3, 13343, Note_on_c, 1, 67, 0
3, 13344, Note_on_c, 1, 60, 72
3, 13367, Note_on_c, 1, 60, 0
3, 13368, Note_on_c, 1, 67, 72
3, 13391, Note_on_c, 1, 67, 0
3, 13392, Note_on_c, 1, 59, 72
3, 13415, Note_on_c, 1, 59, 0
3, 13416, Note_on_c, 1, 67, 72
3, 13439, Note_on_c, 1, 67, 0
3, 13440, Note_on_c, 1, 62, 72
3, 13463, Note_on_c, 1, 62, 0
3, 13464, Note_on_c, 1, 67, 72
3, 13487, Note_on_c, 1, 67, 0
3, 13488, Note_on_c, 1, 59, 72
3, 13511, Note_on_c, 1, 59, 0
3, 13512, Note_on_c, 1, 67, 72
3, 13535, Note_on_c, 1, 67, 0
3, 13536, Note_on_c, 1, 60, 72
3, 13603, Note_on_c, 1, 60, 0
3, 13632, Note_on_c, 1, 60, 72
3, 13677, Note_on_c, 1, 60, 0
3, 13680, Note_on_c, 1, 59, 72
3, 13769, Note_on_c, 1, 59, 0
3, 13776, Note_on_c, 1, 60, 72
3, 13821, Note_on_c, 1, 60, 0
3, 13824, Note_on_c, 1, 62, 72
3, 13869, Note_on_c, 1, 62, 0
3, 13872, Note_on_c, 1, 60, 72
3, 13917, Note_on_c, 1, 60, 0
3, 13920, Note_on_c, 1, 59, 72
3, 13965, Note_on_c, 1, 59, 0
3, 13968, Note_on_c, 1, 48, 72
3, 13991, Note_on_c, 1, 48, 0
3, 13992, Note_on_c, 1, 60, 72
3, 14015, Note_on_c, 1, 60, 0
3, 14016, Note_on_c, 1, 50, 72
3, 14039, Note_on_c, 1, 50, 0
3, 14040, Note_on_c, 1, 62, 72
3, 14063, Note_on_c, 1, 62, 0
3, 14064, Note_on_c, 1, 52, 72
3, 14087, Note_on_c, 1, 52, 0
3, 14088, Note_on_c, 1, 64, 72
3, 14111, Note_on_c, 1, 64, 0
3, 14112, Note_on_c, 1, 50, 72
3, 14135, Note_on_c, 1, 50, 0
3, 14136, Note_on_c, 1, 62, 72
3, 14159, Note_on_c, 1, 62, 0
3, 14160, Note_on_c, 1, 52, 72
3, 14183, Note_on_c, 1, 52, 0
3, 14184, Note_on_c, 1, 64, 72
3, 14207, Note_on_c, 1, 64, 0
3, 14208, Note_on_c, 1, 53, 72
3, 14231, Note_on_c, 1, 53, 0
3, 14232, Note_on_c, 1, 65, 72
3, 14255, Note_on_c, 1, 65, 0
3, 14256, Note_on_c, 1, 52, 72
3, 14279, Note_on_c, 1, 52, 0
3, 14280, Note_on_c, 1, 64, 72
3, 14303, Note_on_c, 1, 64, 0
3, 14304, Note_on_c, 1, 53, 72
3, 14327, Note_on_c, 1, 53, 0
3, 14328, Note_on_c, 1, 65, 72
3, 14351, Note_on_c, 1, 65, 0
3, 14352, Note_on_c, 1, 55, 72
3, 14375, Note_on_c, 1, 55, 0
3, 14376, Note_on_c, 1, 67, 72
3, 14399, Note_on_c, 1, 67, 0
3, 14400, Note_on_c, 1, 57, 72
3, 14400, Note_on_c, 1, 45, 72
3, 14489, Note_on_c, 1, 57, 0
3, 14489, Note_on_c, 1, 45, 0
3, 14544, Note_on_c, 1, 59, 72
3, 14633, Note_on_c, 1, 59, 0
3, 14640, Note_on_c, 1, 60, 72
3, 14685, Note_on_c, 1, 60, 0
3, 14688, Note_on_c, 1, 53, 72
3, 14733, Note_on_c, 1, 53, 0
3, 14736, Note_on_c, 1, 55, 72
3, 14781, Note_on_c, 1, 55, 0
3, 14784, Note_on_c, 1, 43, 72
3, 14829, Note_on_c, 1, 43, 0
3, 14832, Note_on_c, 1, 48, 72
3, 14855, Note_on_c, 1, 48, 0
3, 14856, Note_on_c, 1, 60, 72
3, 14879, Note_on_c, 1, 60, 0
3, 14880, Note_on_c, 1, 50, 72
3, 14903, Note_on_c, 1, 50, 0
3, 14904, Note_on_c, 1, 62, 72
3, 14927, Note_on_c, 1, 62, 0
3, 14928, Note_on_c, 1, 52, 72
3, 14951, Note_on_c, 1, 52, 0
3, 14952, Note_on_c, 1, 64, 72
3, 14975, Note_on_c, 1, 64, 0
3, 14976, Note_on_c, 1, 50, 72
3, 14999, Note_on_c, 1, 50, 0
3, 15000, Note_on_c, 1, 62, 72
3, 15023, Note_on_c, 1, 62, 0
3, 15024, Note_on_c, 1, 52, 72
3, 15047, Note_on_c, 1, 52, 0
3, 15048, Note_on_c, 1, 64, 72
3, 15071, Note_on_c, 1, 64, 0
3, 15072, Note_on_c, 1, 53, 72
3, 15095, Note_on_c, 1, 53, 0
3, 15096, Note_on_c, 1, 65, 72
3, 15119, Note_on_c, 1, 65, 0
3, 15120, Note_on_c, 1, 52, 72
3, 15143, Note_on_c, 1, 52, 0
3, 15144, Note_on_c, 1, 64, 72
3, 15167, Note_on_c, 1, 64, 0
3, 15168, Note_on_c, 1, 53, 72
3, 15191, Note_on_c, 1, 53, 0
3, 15192, Note_on_c, 1, 65, 72
3, 15215, Note_on_c, 1, 65, 0
3, 15216, Note_on_c, 1, 55, 72
3, 15239, Note_on_c, 1, 55, 0
3, 15240, Note_on_c, 1, 67, 72
3, 15263, Note_on_c, 1, 67, 0
3, 15264, Note_on_c, 1, 57, 72
3, 15264, Note_on_c, 1, 45, 72
3, 15353, Note_on_c, 1, 57, 0
3, 15353, Note_on_c, 1, 45, 0
3, 15408, Note_on_c, 1, 59, 72
3, 15497, Note_on_c, 1, 59, 0
3, 15504, Note_on_c, 1, 60, 72
3, 15549, Note_on_c, 1, 60, 0
3, 15552, Note_on_c, 1, 53, 72
3, 15597, Note_on_c, 1, 53, 0
3, 15600, Note_on_c, 1, 55, 72
3, 15645, Note_on_c, 1, 55, 0
3, 15648, Note_on_c, 1, 43, 72
3, 15693, Note_on_c, 1, 43, 0
3, 15696, Note_on_c, 1, 48, 72
3, 15741, Note_on_c, 1, 48, 0
3, 15744, Note_on_c, 1, 36, 72
3, 15789, Note_on_c, 1, 36, 0
3, 15840, Note_on_c, 1, 36, 0
3, 15929, Note_on_c, 1, 36, 0
3, 15984, End_track
4, 0, Start_track
4, 0, Title_t, "<No Title>"
4, 0, End_track
0, 0, End_of_file
