0, 0, Header, 1, 6, 96
1, 0, Start_track
1, 0, Copyright_t, "Copyright  2000 <copyright holder>"
1, 0, Text_t, "Piano Solo\015\012"
1, 0, Text_t, "<composer>\015\012"
1, 0, Sequencer_specific, 16, 68, 87, 77, 90, 86, 82, 83, 78, 32, 55, 46, 48, 46, 56, 46, 48
1, 0, Time_signature, 4, 2, 24, 8
1, 0, Tempo, 100000
1, 0, Key_signature, 2, "major"
1, 372, Tempo, 750000
1, 7152, Tempo, 1500000
1, 7248, Tempo, 750000
1, 16500, Tempo, 750000
1, 23280, Tempo, 1500000
1, 23376, Tempo, 750000
1, 42480, Tempo, 1500000
1, 42576, Tempo, 750000
1, 65520, Tempo, 1500000
1, 65616, Tempo, 750000
1, 78720, End_track
2, 0, Start_track
2, 0, Program_c, 0, 0
2, 0, Control_c, 0, 7, 127
2, 0, Control_c, 0, 10, 64
2, 372, Note_on_c, 0, 57, 75
2, 384, Note_on_c, 0, 57, 0
2, 384, Note_on_c, 0, 66, 75
2, 514, Note_on_c, 0, 66, 0
2, 516, Note_on_c, 0, 57, 80
2, 528, Note_on_c, 0, 57, 0
2, 528, Note_on_c, 0, 67, 80
2, 562, Note_on_c, 0, 67, 0
2, 564, Note_on_c, 0, 57, 82
2, 576, Note_on_c, 0, 57, 0
2, 576, Note_on_c, 0, 66, 82
2, 610, Note_on_c, 0, 66, 0
2, 612, Note_on_c, 0, 57, 84
2, 624, Note_on_c, 0, 57, 0
2, 624, Note_on_c, 0, 64, 83
2, 658, Note_on_c, 0, 64, 0
2, 660, Note_on_c, 0, 57, 81
2, 672, Note_on_c, 0, 57, 0
2, 672, Note_on_c, 0, 62, 80
2, 706, Note_on_c, 0, 62, 0
2, 708, Note_on_c, 0, 57, 78
2, 720, Note_on_c, 0, 57, 0
2, 720, Note_on_c, 0, 64, 77
2, 754, Note_on_c, 0, 64, 0
2, 756, Note_on_c, 0, 57, 75
2, 768, Note_on_c, 0, 57, 0
2, 768, Note_on_c, 0, 66, 75
2, 898, Note_on_c, 0, 66, 0
2, 900, Note_on_c, 0, 57, 80
2, 912, Note_on_c, 0, 57, 0
2, 912, Note_on_c, 0, 67, 80
2, 946, Note_on_c, 0, 67, 0
2, 948, Note_on_c, 0, 57, 82
2, 960, Note_on_c, 0, 57, 0
2, 960, Note_on_c, 0, 66, 82
2, 994, Note_on_c, 0, 66, 0
2, 996, Note_on_c, 0, 57, 84
2, 1008, Note_on_c, 0, 57, 0
2, 1008, Note_on_c, 0, 64, 83
2, 1042, Note_on_c, 0, 64, 0
2, 1044, Note_on_c, 0, 57, 81
2, 1056, Note_on_c, 0, 57, 0
2, 1056, Note_on_c, 0, 62, 80
2, 1090, Note_on_c, 0, 62, 0
2, 1092, Note_on_c, 0, 57, 78
2, 1104, Note_on_c, 0, 57, 0
2, 1104, Note_on_c, 0, 64, 77
2, 1138, Note_on_c, 0, 64, 0
2, 1140, Note_on_c, 0, 57, 75
2, 1152, Note_on_c, 0, 57, 0
2, 1152, Note_on_c, 0, 66, 75
2, 1186, Note_on_c, 0, 66, 0
2, 1188, Note_on_c, 0, 57, 77
2, 1200, Note_on_c, 0, 57, 0
2, 1200, Note_on_c, 0, 67, 78
2, 1234, Note_on_c, 0, 67, 0
2, 1236, Note_on_c, 0, 57, 80
2, 1248, Note_on_c, 0, 57, 0
2, 1248, Note_on_c, 0, 69, 81
2, 1268, Note_on_c, 0, 69, 0
2, 1344, Note_on_c, 0, 66, 75
2, 1359, Note_on_c, 0, 66, 0
2, 1360, Note_on_c, 0, 62, 75
2, 1375, Note_on_c, 0, 62, 0
2, 1376, Note_on_c, 0, 57, 76
2, 1391, Note_on_c, 0, 57, 0
2, 1392, Note_on_c, 0, 67, 77
2, 1407, Note_on_c, 0, 67, 0
2, 1408, Note_on_c, 0, 64, 78
2, 1423, Note_on_c, 0, 64, 0
2, 1424, Note_on_c, 0, 57, 78
2, 1439, Note_on_c, 0, 57, 0
2, 1440, Note_on_c, 0, 69, 79
2, 1460, Note_on_c, 0, 69, 0
2, 1536, Note_on_c, 0, 78, 75
2, 1669, Note_on_c, 0, 78, 0
2, 1680, Note_on_c, 0, 69, 75
2, 1725, Note_on_c, 0, 69, 0
2, 1728, Note_on_c, 0, 66, 91
2, 1776, Note_on_c, 0, 66, 0
2, 1776, Note_on_c, 0, 67, 75
2, 1909, Note_on_c, 0, 67, 0
2, 1920, Note_on_c, 0, 81, 75
2, 1932, Note_on_c, 0, 81, 0
2, 1932, Note_on_c, 0, 79, 75
2, 1944, Note_on_c, 0, 79, 0
2, 1944, Note_on_c, 0, 78, 75
2, 1956, Note_on_c, 0, 78, 0
2, 1956, Note_on_c, 0, 79, 75
2, 2053, Note_on_c, 0, 79, 0
2, 2064, Note_on_c, 0, 67, 75
2, 2109, Note_on_c, 0, 67, 0
2, 2112, Note_on_c, 0, 65, 91
2, 2160, Note_on_c, 0, 65, 0
2, 2160, Note_on_c, 0, 66, 75
2, 2293, Note_on_c, 0, 66, 0
2, 2304, Note_on_c, 0, 62, 75
2, 2437, Note_on_c, 0, 62, 0
2, 2448, Note_on_c, 0, 66, 75
2, 2460, Note_on_c, 0, 66, 0
2, 2460, Note_on_c, 0, 62, 75
2, 2493, Note_on_c, 0, 62, 0
2, 2496, Note_on_c, 0, 61, 75
2, 2508, Note_on_c, 0, 61, 0
2, 2508, Note_on_c, 0, 59, 75
2, 2629, Note_on_c, 0, 59, 0
2, 2640, Note_on_c, 0, 62, 75
2, 2652, Note_on_c, 0, 62, 0
2, 2652, Note_on_c, 0, 59, 75
2, 2685, Note_on_c, 0, 59, 0
2, 2688, Note_on_c, 0, 59, 75
2, 2700, Note_on_c, 0, 59, 0
2, 2700, Note_on_c, 0, 57, 75
2, 2821, Note_on_c, 0, 57, 0
2, 2832, Note_on_c, 0, 66, 75
2, 2844, Note_on_c, 0, 66, 0
2, 2844, Note_on_c, 0, 62, 75
2, 2877, Note_on_c, 0, 62, 0
2, 2880, Note_on_c, 0, 61, 75
2, 2892, Note_on_c, 0, 61, 0
2, 2892, Note_on_c, 0, 59, 75
2, 2925, Note_on_c, 0, 59, 0
2, 2928, Note_on_c, 0, 62, 75
2, 2940, Note_on_c, 0, 62, 0
2, 2940, Note_on_c, 0, 59, 75
2, 2973, Note_on_c, 0, 59, 0
2, 2976, Note_on_c, 0, 59, 75
2, 2988, Note_on_c, 0, 59, 0
2, 2988, Note_on_c, 0, 57, 75
2, 3021, Note_on_c, 0, 57, 0
2, 3024, Note_on_c, 0, 57, 75
2, 3036, Note_on_c, 0, 57, 0
2, 3036, Note_on_c, 0, 62, 75
2, 3048, Note_on_c, 0, 62, 0
2, 3048, Note_on_c, 0, 66, 75
2, 3060, Note_on_c, 0, 66, 0
2, 3060, Note_on_c, 0, 69, 75
2, 3072, Note_on_c, 0, 69, 0
2, 3072, Note_on_c, 0, 57, 75
2, 3161, Note_on_c, 0, 57, 0
2, 3168, Note_on_c, 0, 55, 75
2, 3177, Note_on_c, 0, 55, 0
2, 3177, Note_on_c, 0, 57, 75
2, 3186, Note_on_c, 0, 57, 0
2, 3186, Note_on_c, 0, 55, 75
2, 3195, Note_on_c, 0, 55, 0
2, 3195, Note_on_c, 0, 57, 75
2, 3204, Note_on_c, 0, 57, 0
2, 3204, Note_on_c, 0, 55, 75
2, 3213, Note_on_c, 0, 55, 0
2, 3213, Note_on_c, 0, 57, 75
2, 3222, Note_on_c, 0, 57, 0
2, 3222, Note_on_c, 0, 55, 75
2, 3231, Note_on_c, 0, 55, 0
2, 3231, Note_on_c, 0, 57, 75
2, 3240, Note_on_c, 0, 57, 0
2, 3240, Note_on_c, 0, 55, 75
2, 3248, Note_on_c, 0, 55, 0
2, 3248, Note_on_c, 0, 54, 75
2, 3256, Note_on_c, 0, 54, 0
2, 3256, Note_on_c, 0, 55, 75
2, 3264, Note_on_c, 0, 55, 0
2, 3264, Note_on_c, 0, 55, 75
2, 3312, Note_on_c, 0, 55, 0
2, 3312, Note_on_c, 0, 54, 75
2, 3353, Note_on_c, 0, 54, 0
2, 3444, Note_on_c, 0, 57, 75
2, 3456, Note_on_c, 0, 57, 0
2, 3456, Note_on_c, 0, 66, 75
2, 3586, Note_on_c, 0, 66, 0
2, 3588, Note_on_c, 0, 57, 80
2, 3600, Note_on_c, 0, 57, 0
2, 3600, Note_on_c, 0, 67, 80
2, 3634, Note_on_c, 0, 67, 0
2, 3636, Note_on_c, 0, 57, 82
2, 3648, Note_on_c, 0, 57, 0
2, 3648, Note_on_c, 0, 66, 82
2, 3682, Note_on_c, 0, 66, 0
2, 3684, Note_on_c, 0, 57, 84
2, 3696, Note_on_c, 0, 57, 0
2, 3696, Note_on_c, 0, 64, 83
2, 3730, Note_on_c, 0, 64, 0
2, 3732, Note_on_c, 0, 57, 81
2, 3744, Note_on_c, 0, 57, 0
2, 3744, Note_on_c, 0, 62, 80
2, 3778, Note_on_c, 0, 62, 0
2, 3780, Note_on_c, 0, 57, 78
2, 3792, Note_on_c, 0, 57, 0
2, 3792, Note_on_c, 0, 64, 77
2, 3826, Note_on_c, 0, 64, 0
2, 3828, Note_on_c, 0, 57, 75
2, 3840, Note_on_c, 0, 57, 0
2, 3840, Note_on_c, 0, 66, 75
2, 3951, Note_on_c, 0, 66, 0
2, 3952, Note_on_c, 0, 62, 75
2, 3967, Note_on_c, 0, 62, 0
2, 3968, Note_on_c, 0, 57, 75
2, 3983, Note_on_c, 0, 57, 0
2, 3984, Note_on_c, 0, 67, 75
2, 3999, Note_on_c, 0, 67, 0
2, 4000, Note_on_c, 0, 64, 76
2, 4015, Note_on_c, 0, 64, 0
2, 4016, Note_on_c, 0, 57, 76
2, 4031, Note_on_c, 0, 57, 0
2, 4032, Note_on_c, 0, 66, 76
2, 4047, Note_on_c, 0, 66, 0
2, 4048, Note_on_c, 0, 62, 76
2, 4063, Note_on_c, 0, 62, 0
2, 4064, Note_on_c, 0, 57, 77
2, 4079, Note_on_c, 0, 57, 0
2, 4080, Note_on_c, 0, 64, 77
2, 4095, Note_on_c, 0, 64, 0
2, 4096, Note_on_c, 0, 61, 77
2, 4111, Note_on_c, 0, 61, 0
2, 4112, Note_on_c, 0, 57, 77
2, 4127, Note_on_c, 0, 57, 0
2, 4128, Note_on_c, 0, 61, 78
2, 4143, Note_on_c, 0, 61, 0
2, 4144, Note_on_c, 0, 62, 78
2, 4159, Note_on_c, 0, 62, 0
2, 4160, Note_on_c, 0, 57, 78
2, 4175, Note_on_c, 0, 57, 0
2, 4176, Note_on_c, 0, 63, 78
2, 4191, Note_on_c, 0, 63, 0
2, 4192, Note_on_c, 0, 64, 79
2, 4207, Note_on_c, 0, 64, 0
2, 4208, Note_on_c, 0, 57, 79
2, 4223, Note_on_c, 0, 57, 0
2, 4224, Note_on_c, 0, 65, 79
2, 4239, Note_on_c, 0, 65, 0
2, 4240, Note_on_c, 0, 66, 79
2, 4255, Note_on_c, 0, 66, 0
2, 4256, Note_on_c, 0, 57, 80
2, 4271, Note_on_c, 0, 57, 0
2, 4272, Note_on_c, 0, 66, 80
2, 4287, Note_on_c, 0, 66, 0
2, 4288, Note_on_c, 0, 67, 80
2, 4303, Note_on_c, 0, 67, 0
2, 4304, Note_on_c, 0, 57, 80
2, 4319, Note_on_c, 0, 57, 0
2, 4320, Note_on_c, 0, 69, 81
2, 4340, Note_on_c, 0, 69, 0
2, 4416, Note_on_c, 0, 66, 75
2, 4431, Note_on_c, 0, 66, 0
2, 4432, Note_on_c, 0, 62, 75
2, 4447, Note_on_c, 0, 62, 0
2, 4448, Note_on_c, 0, 57, 76
2, 4463, Note_on_c, 0, 57, 0
2, 4464, Note_on_c, 0, 67, 77
2, 4479, Note_on_c, 0, 67, 0
2, 4480, Note_on_c, 0, 64, 78
2, 4495, Note_on_c, 0, 64, 0
2, 4496, Note_on_c, 0, 57, 78
2, 4511, Note_on_c, 0, 57, 0
2, 4512, Note_on_c, 0, 69, 79
2, 4532, Note_on_c, 0, 69, 0
2, 4608, Note_on_c, 0, 78, 75
2, 4697, Note_on_c, 0, 78, 0
2, 4704, Note_on_c, 0, 79, 75
2, 4716, Note_on_c, 0, 79, 0
2, 4716, Note_on_c, 0, 78, 75
2, 4728, Note_on_c, 0, 78, 0
2, 4728, Note_on_c, 0, 76, 75
2, 4740, Note_on_c, 0, 76, 0
2, 4740, Note_on_c, 0, 74, 75
2, 4752, Note_on_c, 0, 74, 0
2, 4752, Note_on_c, 0, 74, 75
2, 4764, Note_on_c, 0, 74, 0
2, 4764, Note_on_c, 0, 73, 75
2, 4776, Note_on_c, 0, 73, 0
2, 4776, Note_on_c, 0, 71, 75
2, 4788, Note_on_c, 0, 71, 0
2, 4788, Note_on_c, 0, 69, 75
2, 4800, Note_on_c, 0, 69, 0
2, 4800, Note_on_c, 0, 69, 75
2, 4896, Note_on_c, 0, 69, 0
2, 4896, Note_on_c, 0, 67, 75
2, 4919, Note_on_c, 0, 67, 0
2, 4920, Note_on_c, 0, 69, 75
2, 4932, Note_on_c, 0, 69, 0
2, 4932, Note_on_c, 0, 71, 75
2, 4944, Note_on_c, 0, 71, 0
2, 4944, Note_on_c, 0, 73, 75
2, 4956, Note_on_c, 0, 73, 0
2, 4956, Note_on_c, 0, 74, 75
2, 4968, Note_on_c, 0, 74, 0
2, 4968, Note_on_c, 0, 76, 75
2, 4980, Note_on_c, 0, 76, 0
2, 4980, Note_on_c, 0, 78, 75
2, 4992, Note_on_c, 0, 78, 0
2, 4992, Note_on_c, 0, 79, 75
2, 5059, Note_on_c, 0, 79, 0
2, 5064, Note_on_c, 0, 81, 75
2, 5087, Note_on_c, 0, 81, 0
2, 5088, Note_on_c, 0, 79, 75
2, 5100, Note_on_c, 0, 79, 0
2, 5100, Note_on_c, 0, 78, 75
2, 5112, Note_on_c, 0, 78, 0
2, 5112, Note_on_c, 0, 76, 75
2, 5124, Note_on_c, 0, 76, 0
2, 5124, Note_on_c, 0, 74, 75
2, 5136, Note_on_c, 0, 74, 0
2, 5136, Note_on_c, 0, 73, 75
2, 5148, Note_on_c, 0, 73, 0
2, 5148, Note_on_c, 0, 71, 75
2, 5160, Note_on_c, 0, 71, 0
2, 5160, Note_on_c, 0, 69, 75
2, 5172, Note_on_c, 0, 69, 0
2, 5172, Note_on_c, 0, 67, 75
2, 5184, Note_on_c, 0, 67, 0
2, 5184, Note_on_c, 0, 67, 75
2, 5280, Note_on_c, 0, 67, 0
2, 5280, Note_on_c, 0, 66, 75
2, 5325, Note_on_c, 0, 66, 0
2, 5376, Note_on_c, 0, 62, 75
2, 5509, Note_on_c, 0, 62, 0
2, 5520, Note_on_c, 0, 66, 75
2, 5532, Note_on_c, 0, 66, 0
2, 5532, Note_on_c, 0, 62, 75
2, 5565, Note_on_c, 0, 62, 0
2, 5568, Note_on_c, 0, 61, 75
2, 5580, Note_on_c, 0, 61, 0
2, 5580, Note_on_c, 0, 59, 75
2, 5701, Note_on_c, 0, 59, 0
2, 5712, Note_on_c, 0, 62, 75
2, 5724, Note_on_c, 0, 62, 0
2, 5724, Note_on_c, 0, 59, 75
2, 5757, Note_on_c, 0, 59, 0
2, 5760, Note_on_c, 0, 59, 75
2, 5772, Note_on_c, 0, 59, 0
2, 5772, Note_on_c, 0, 57, 75
2, 5893, Note_on_c, 0, 57, 0
2, 5904, Note_on_c, 0, 66, 75
2, 5916, Note_on_c, 0, 66, 0
2, 5916, Note_on_c, 0, 62, 75
2, 5949, Note_on_c, 0, 62, 0
2, 5952, Note_on_c, 0, 61, 75
2, 5964, Note_on_c, 0, 61, 0
2, 5964, Note_on_c, 0, 59, 75
2, 5997, Note_on_c, 0, 59, 0
2, 6000, Note_on_c, 0, 62, 75
2, 6012, Note_on_c, 0, 62, 0
2, 6012, Note_on_c, 0, 59, 75
2, 6045, Note_on_c, 0, 59, 0
2, 6048, Note_on_c, 0, 59, 75
2, 6060, Note_on_c, 0, 59, 0
2, 6060, Note_on_c, 0, 57, 75
2, 6093, Note_on_c, 0, 57, 0
2, 6096, Note_on_c, 0, 66, 75
2, 6108, Note_on_c, 0, 66, 0
2, 6108, Note_on_c, 0, 62, 75
2, 6141, Note_on_c, 0, 62, 0
2, 6144, Note_on_c, 0, 61, 75
2, 6156, Note_on_c, 0, 61, 0
2, 6156, Note_on_c, 0, 59, 75
2, 6189, Note_on_c, 0, 59, 0
2, 6192, Note_on_c, 0, 62, 75
2, 6204, Note_on_c, 0, 62, 0
2, 6204, Note_on_c, 0, 59, 75
2, 6237, Note_on_c, 0, 59, 0
2, 6240, Note_on_c, 0, 59, 75
2, 6252, Note_on_c, 0, 59, 0
2, 6252, Note_on_c, 0, 57, 75
2, 6285, Note_on_c, 0, 57, 0
2, 6288, Note_on_c, 0, 57, 75
2, 6292, Note_on_c, 0, 57, 0
2, 6292, Note_on_c, 0, 62, 75
2, 6296, Note_on_c, 0, 62, 0
2, 6296, Note_on_c, 0, 66, 75
2, 6300, Note_on_c, 0, 66, 0
2, 6300, Note_on_c, 0, 69, 75
2, 6335, Note_on_c, 0, 69, 0
2, 6336, Note_on_c, 0, 64, 75
2, 6348, Note_on_c, 0, 64, 0
2, 6348, Note_on_c, 0, 67, 75
2, 6360, Note_on_c, 0, 67, 0
2, 6360, Note_on_c, 0, 69, 75
2, 6384, Note_on_c, 0, 69, 0
2, 6384, Note_on_c, 0, 62, 76
2, 6396, Note_on_c, 0, 62, 0
2, 6396, Note_on_c, 0, 66, 76
2, 6408, Note_on_c, 0, 66, 0
2, 6408, Note_on_c, 0, 69, 76
2, 6432, Note_on_c, 0, 69, 0
2, 6432, Note_on_c, 0, 61, 77
2, 6444, Note_on_c, 0, 61, 0
2, 6444, Note_on_c, 0, 64, 77
2, 6456, Note_on_c, 0, 64, 0
2, 6456, Note_on_c, 0, 69, 77
2, 6480, Note_on_c, 0, 69, 0
2, 6480, Note_on_c, 0, 62, 78
2, 6492, Note_on_c, 0, 62, 0
2, 6492, Note_on_c, 0, 66, 78
2, 6504, Note_on_c, 0, 66, 0
2, 6504, Note_on_c, 0, 69, 78
2, 6528, Note_on_c, 0, 69, 0
2, 6528, Note_on_c, 0, 64, 79
2, 6540, Note_on_c, 0, 64, 0
2, 6540, Note_on_c, 0, 67, 79
2, 6552, Note_on_c, 0, 67, 0
2, 6552, Note_on_c, 0, 69, 79
2, 6576, Note_on_c, 0, 69, 0
2, 6576, Note_on_c, 0, 62, 80
2, 6588, Note_on_c, 0, 62, 0
2, 6588, Note_on_c, 0, 66, 80
2, 6600, Note_on_c, 0, 66, 0
2, 6600, Note_on_c, 0, 69, 80
2, 6624, Note_on_c, 0, 69, 0
2, 6624, Note_on_c, 0, 61, 81
2, 6636, Note_on_c, 0, 61, 0
2, 6636, Note_on_c, 0, 64, 81
2, 6648, Note_on_c, 0, 64, 0
2, 6648, Note_on_c, 0, 69, 81
2, 6672, Note_on_c, 0, 69, 0
2, 6672, Note_on_c, 0, 62, 82
2, 6684, Note_on_c, 0, 62, 0
2, 6684, Note_on_c, 0, 66, 82
2, 6696, Note_on_c, 0, 66, 0
2, 6696, Note_on_c, 0, 69, 83
2, 6720, Note_on_c, 0, 69, 0
2, 6720, Note_on_c, 0, 64, 83
2, 6732, Note_on_c, 0, 64, 0
2, 6732, Note_on_c, 0, 67, 83
2, 6744, Note_on_c, 0, 67, 0
2, 6744, Note_on_c, 0, 69, 84
2, 6768, Note_on_c, 0, 69, 0
2, 6768, Note_on_c, 0, 62, 84
2, 6780, Note_on_c, 0, 62, 0
2, 6780, Note_on_c, 0, 66, 84
2, 6792, Note_on_c, 0, 66, 0
2, 6792, Note_on_c, 0, 69, 85
2, 6816, Note_on_c, 0, 69, 0
2, 6816, Note_on_c, 0, 64, 85
2, 6828, Note_on_c, 0, 64, 0
2, 6828, Note_on_c, 0, 67, 85
2, 6840, Note_on_c, 0, 67, 0
2, 6840, Note_on_c, 0, 69, 86
2, 6864, Note_on_c, 0, 69, 0
2, 6864, Note_on_c, 0, 62, 86
2, 6876, Note_on_c, 0, 62, 0
2, 6876, Note_on_c, 0, 66, 87
2, 6888, Note_on_c, 0, 66, 0
2, 6888, Note_on_c, 0, 69, 87
2, 6912, Note_on_c, 0, 69, 0
2, 6912, Note_on_c, 0, 69, 87
2, 6912, Note_on_c, 0, 64, 87
2, 6912, Note_on_c, 0, 61, 87
2, 7001, Note_on_c, 0, 69, 0
2, 7001, Note_on_c, 0, 64, 0
2, 7001, Note_on_c, 0, 61, 0
2, 7008, Control_c, 0, 64, 127
2, 7008, Note_on_c, 0, 57, 90
2, 7014, Note_on_c, 0, 61, 90
2, 7020, Note_on_c, 0, 64, 90
2, 7026, Note_on_c, 0, 69, 90
2, 7101, Note_on_c, 0, 69, 0
2, 7101, Note_on_c, 0, 64, 0
2, 7101, Note_on_c, 0, 61, 0
2, 7101, Note_on_c, 0, 57, 0
2, 7104, Note_on_c, 0, 57, 86
2, 7110, Note_on_c, 0, 61, 86
2, 7116, Note_on_c, 0, 64, 86
2, 7122, Note_on_c, 0, 69, 86
2, 7197, Note_on_c, 0, 69, 0
2, 7197, Note_on_c, 0, 64, 0
2, 7197, Note_on_c, 0, 61, 0
2, 7197, Note_on_c, 0, 57, 0
2, 7248, Control_c, 0, 64, 0
2, 7296, Note_on_c, 0, 76, 75
2, 7320, Note_on_c, 0, 76, 0
2, 7320, Note_on_c, 0, 64, 75
2, 7343, Note_on_c, 0, 64, 0
2, 7344, Note_on_c, 0, 76, 75
2, 7354, Note_on_c, 0, 76, 0
2, 7368, Note_on_c, 0, 76, 75
2, 7378, Note_on_c, 0, 76, 0
2, 7392, Note_on_c, 0, 76, 75
2, 7402, Note_on_c, 0, 76, 0
2, 7416, Note_on_c, 0, 76, 75
2, 7426, Note_on_c, 0, 76, 0
2, 7440, Note_on_c, 0, 76, 75
2, 7450, Note_on_c, 0, 76, 0
2, 7464, Note_on_c, 0, 76, 75
2, 7474, Note_on_c, 0, 76, 0
2, 7488, Note_on_c, 0, 76, 75
2, 7498, Note_on_c, 0, 76, 0
2, 7512, Note_on_c, 0, 76, 75
2, 7522, Note_on_c, 0, 76, 0
2, 7536, Note_on_c, 0, 76, 75
2, 7546, Note_on_c, 0, 76, 0
2, 7560, Note_on_c, 0, 76, 75
2, 7570, Note_on_c, 0, 76, 0
2, 7584, Note_on_c, 0, 76, 75
2, 7594, Note_on_c, 0, 76, 0
2, 7608, Note_on_c, 0, 76, 75
2, 7618, Note_on_c, 0, 76, 0
2, 7632, Note_on_c, 0, 76, 75
2, 7642, Note_on_c, 0, 76, 0
2, 7656, Note_on_c, 0, 76, 75
2, 7666, Note_on_c, 0, 76, 0
2, 7680, Note_on_c, 0, 76, 75
2, 7704, Note_on_c, 0, 76, 0
2, 7704, Note_on_c, 0, 64, 75
2, 7727, Note_on_c, 0, 64, 0
2, 7728, Note_on_c, 0, 76, 75
2, 7738, Note_on_c, 0, 76, 0
2, 7752, Note_on_c, 0, 76, 75
2, 7762, Note_on_c, 0, 76, 0
2, 7776, Note_on_c, 0, 76, 75
2, 7786, Note_on_c, 0, 76, 0
2, 7800, Note_on_c, 0, 76, 75
2, 7810, Note_on_c, 0, 76, 0
2, 7824, Note_on_c, 0, 76, 75
2, 7834, Note_on_c, 0, 76, 0
2, 7848, Note_on_c, 0, 76, 75
2, 7858, Note_on_c, 0, 76, 0
2, 7872, Note_on_c, 0, 76, 75
2, 7882, Note_on_c, 0, 76, 0
2, 7896, Note_on_c, 0, 76, 75
2, 7906, Note_on_c, 0, 76, 0
2, 7920, Note_on_c, 0, 76, 75
2, 7930, Note_on_c, 0, 76, 0
2, 7944, Note_on_c, 0, 76, 75
2, 7954, Note_on_c, 0, 76, 0
2, 7968, Note_on_c, 0, 76, 75
2, 7978, Note_on_c, 0, 76, 0
2, 7992, Note_on_c, 0, 76, 75
2, 8002, Note_on_c, 0, 76, 0
2, 8016, Note_on_c, 0, 76, 75
2, 8026, Note_on_c, 0, 76, 0
2, 8040, Note_on_c, 0, 76, 75
2, 8050, Note_on_c, 0, 76, 0
2, 8064, Note_on_c, 0, 76, 75
2, 8088, Note_on_c, 0, 76, 0
2, 8088, Note_on_c, 0, 64, 75
2, 8111, Note_on_c, 0, 64, 0
2, 8112, Note_on_c, 0, 76, 75
2, 8122, Note_on_c, 0, 76, 0
2, 8136, Note_on_c, 0, 76, 75
2, 8146, Note_on_c, 0, 76, 0
2, 8160, Note_on_c, 0, 76, 75
2, 8184, Note_on_c, 0, 76, 0
2, 8184, Note_on_c, 0, 64, 75
2, 8207, Note_on_c, 0, 64, 0
2, 8208, Note_on_c, 0, 76, 75
2, 8218, Note_on_c, 0, 76, 0
2, 8232, Note_on_c, 0, 76, 75
2, 8242, Note_on_c, 0, 76, 0
2, 8256, Note_on_c, 0, 78, 75
2, 8280, Note_on_c, 0, 78, 0
2, 8280, Note_on_c, 0, 66, 76
2, 8303, Note_on_c, 0, 66, 0
2, 8304, Note_on_c, 0, 78, 76
2, 8314, Note_on_c, 0, 78, 0
2, 8328, Note_on_c, 0, 78, 76
2, 8338, Note_on_c, 0, 78, 0
2, 8352, Note_on_c, 0, 80, 77
2, 8376, Note_on_c, 0, 80, 0
2, 8376, Note_on_c, 0, 68, 77
2, 8399, Note_on_c, 0, 68, 0
2, 8400, Note_on_c, 0, 80, 77
2, 8410, Note_on_c, 0, 80, 0
2, 8424, Note_on_c, 0, 80, 78
2, 8434, Note_on_c, 0, 80, 0
2, 8448, Note_on_c, 0, 81, 78
2, 8472, Note_on_c, 0, 81, 0
2, 8472, Note_on_c, 0, 69, 78
2, 8495, Note_on_c, 0, 69, 0
2, 8496, Note_on_c, 0, 81, 79
2, 8506, Note_on_c, 0, 81, 0
2, 8520, Note_on_c, 0, 81, 79
2, 8530, Note_on_c, 0, 81, 0
2, 8544, Note_on_c, 0, 83, 79
2, 8568, Note_on_c, 0, 83, 0
2, 8568, Note_on_c, 0, 71, 80
2, 8591, Note_on_c, 0, 71, 0
2, 8592, Note_on_c, 0, 83, 80
2, 8602, Note_on_c, 0, 83, 0
2, 8616, Note_on_c, 0, 83, 80
2, 8626, Note_on_c, 0, 83, 0
2, 8640, Note_on_c, 0, 84, 81
2, 8664, Note_on_c, 0, 84, 0
2, 8664, Note_on_c, 0, 72, 81
2, 8687, Note_on_c, 0, 72, 0
2, 8688, Note_on_c, 0, 84, 81
2, 8698, Note_on_c, 0, 84, 0
2, 8712, Note_on_c, 0, 84, 82
2, 8722, Note_on_c, 0, 84, 0
2, 8736, Note_on_c, 0, 84, 82
2, 8760, Note_on_c, 0, 84, 0
2, 8760, Note_on_c, 0, 72, 82
2, 8783, Note_on_c, 0, 72, 0
2, 8784, Note_on_c, 0, 84, 83
2, 8794, Note_on_c, 0, 84, 0
2, 8808, Note_on_c, 0, 84, 83
2, 8818, Note_on_c, 0, 84, 0
2, 8832, Note_on_c, 0, 84, 69
2, 8856, Note_on_c, 0, 84, 0
2, 8856, Note_on_c, 0, 83, 69
2, 8879, Note_on_c, 0, 83, 0
2, 8880, Note_on_c, 0, 83, 69
2, 8904, Note_on_c, 0, 83, 0
2, 8904, Note_on_c, 0, 81, 69
2, 8927, Note_on_c, 0, 81, 0
2, 8928, Note_on_c, 0, 81, 69
2, 8952, Note_on_c, 0, 81, 0
2, 8952, Note_on_c, 0, 79, 69
2, 8975, Note_on_c, 0, 79, 0
2, 8976, Note_on_c, 0, 79, 69
2, 9000, Note_on_c, 0, 79, 0
2, 9000, Note_on_c, 0, 77, 69
2, 9023, Note_on_c, 0, 77, 0
2, 9024, Note_on_c, 0, 77, 69
2, 9039, Note_on_c, 0, 77, 0
2, 9040, Note_on_c, 0, 81, 69
2, 9055, Note_on_c, 0, 81, 0
2, 9056, Note_on_c, 0, 84, 69
2, 9071, Note_on_c, 0, 84, 0
2, 9072, Note_on_c, 0, 77, 69
2, 9087, Note_on_c, 0, 77, 0
2, 9088, Note_on_c, 0, 81, 69
2, 9103, Note_on_c, 0, 81, 0
2, 9104, Note_on_c, 0, 84, 69
2, 9119, Note_on_c, 0, 84, 0
2, 9120, Note_on_c, 0, 77, 69
2, 9140, Note_on_c, 0, 77, 0
2, 9216, Note_on_c, 0, 77, 69
2, 9228, Note_on_c, 0, 77, 0
2, 9228, Note_on_c, 0, 81, 69
2, 9240, Note_on_c, 0, 81, 0
2, 9240, Note_on_c, 0, 84, 69
2, 9264, Note_on_c, 0, 84, 0
2, 9264, Note_on_c, 0, 72, 69
2, 9276, Note_on_c, 0, 72, 0
2, 9276, Note_on_c, 0, 77, 69
2, 9288, Note_on_c, 0, 77, 0
2, 9288, Note_on_c, 0, 81, 69
2, 9312, Note_on_c, 0, 81, 0
2, 9312, Note_on_c, 0, 69, 69
2, 9324, Note_on_c, 0, 69, 0
2, 9324, Note_on_c, 0, 72, 69
2, 9336, Note_on_c, 0, 72, 0
2, 9336, Note_on_c, 0, 77, 69
2, 9360, Note_on_c, 0, 77, 0
2, 9360, Note_on_c, 0, 65, 69
2, 9372, Note_on_c, 0, 65, 0
2, 9372, Note_on_c, 0, 69, 69
2, 9384, Note_on_c, 0, 69, 0
2, 9384, Note_on_c, 0, 72, 69
2, 9408, Note_on_c, 0, 72, 0
2, 9408, Note_on_c, 0, 60, 69
2, 9420, Note_on_c, 0, 60, 0
2, 9420, Note_on_c, 0, 65, 69
2, 9432, Note_on_c, 0, 65, 0
2, 9432, Note_on_c, 0, 69, 69
2, 9456, Note_on_c, 0, 69, 0
2, 9456, Note_on_c, 0, 57, 69
2, 9468, Note_on_c, 0, 57, 0
2, 9468, Note_on_c, 0, 60, 69
2, 9480, Note_on_c, 0, 60, 0
2, 9480, Note_on_c, 0, 65, 69
2, 9504, Note_on_c, 0, 65, 0
2, 9504, Note_on_c, 0, 53, 69
2, 9516, Note_on_c, 0, 53, 0
2, 9516, Note_on_c, 0, 57, 69
2, 9528, Note_on_c, 0, 57, 0
2, 9528, Note_on_c, 0, 60, 69
2, 9552, Note_on_c, 0, 60, 0
2, 9552, Note_on_c, 0, 48, 69
2, 9564, Note_on_c, 0, 48, 0
2, 9564, Note_on_c, 0, 53, 69
2, 9576, Note_on_c, 0, 53, 0
2, 9576, Control_c, 0, 64, 127
2, 9576, Note_on_c, 0, 57, 69
2, 9600, Note_on_c, 0, 57, 0
2, 9624, Note_on_c, 0, 75, 69
2, 9647, Note_on_c, 0, 75, 0
2, 9648, Note_on_c, 0, 63, 69
2, 9671, Note_on_c, 0, 63, 0
2, 9672, Note_on_c, 0, 75, 69
2, 9695, Note_on_c, 0, 75, 0
2, 9696, Note_on_c, 0, 63, 70
2, 9719, Note_on_c, 0, 63, 0
2, 9720, Note_on_c, 0, 75, 70
2, 9743, Note_on_c, 0, 75, 0
2, 9744, Note_on_c, 0, 69, 71
2, 9767, Note_on_c, 0, 69, 0
2, 9768, Note_on_c, 0, 81, 71
2, 9791, Note_on_c, 0, 81, 0
2, 9792, Note_on_c, 0, 72, 71
2, 9815, Note_on_c, 0, 72, 0
2, 9816, Note_on_c, 0, 84, 72
2, 9839, Note_on_c, 0, 84, 0
2, 9840, Note_on_c, 0, 71, 72
2, 9863, Note_on_c, 0, 71, 0
2, 9864, Note_on_c, 0, 83, 73
2, 9887, Note_on_c, 0, 83, 0
2, 9888, Note_on_c, 0, 69, 73
2, 9911, Note_on_c, 0, 69, 0
2, 9912, Note_on_c, 0, 81, 73
2, 9935, Note_on_c, 0, 81, 0
2, 9936, Note_on_c, 0, 63, 74
2, 9959, Note_on_c, 0, 63, 0
2, 9960, Note_on_c, 0, 75, 74
2, 9983, Note_on_c, 0, 75, 0
2, 9984, Control_c, 0, 64, 0
2, 9984, Note_on_c, 0, 64, 75
2, 9996, Note_on_c, 0, 64, 0
2, 9996, Note_on_c, 0, 76, 75
2, 10073, Note_on_c, 0, 76, 0
2, 10128, Note_on_c, 0, 59, 75
2, 10128, Note_on_c, 0, 56, 75
2, 10148, Note_on_c, 0, 59, 0
2, 10148, Note_on_c, 0, 56, 0
2, 10176, Note_on_c, 0, 61, 75
2, 10176, Note_on_c, 0, 57, 75
2, 10196, Note_on_c, 0, 61, 0
2, 10196, Note_on_c, 0, 57, 0
2, 10224, Note_on_c, 0, 59, 75
2, 10224, Note_on_c, 0, 56, 75
2, 10244, Note_on_c, 0, 59, 0
2, 10244, Note_on_c, 0, 56, 0
2, 10272, Note_on_c, 0, 61, 75
2, 10272, Note_on_c, 0, 57, 75
2, 10292, Note_on_c, 0, 61, 0
2, 10292, Note_on_c, 0, 57, 0
2, 10320, Note_on_c, 0, 64, 75
2, 10332, Note_on_c, 0, 64, 0
2, 10332, Note_on_c, 0, 62, 75
2, 10344, Note_on_c, 0, 62, 0
2, 10344, Note_on_c, 0, 61, 75
2, 10356, Note_on_c, 0, 61, 0
2, 10356, Note_on_c, 0, 62, 75
2, 10368, Note_on_c, 0, 62, 0
2, 10368, Note_on_c, 0, 64, 75
2, 10368, Note_on_c, 0, 61, 75
2, 10457, Note_on_c, 0, 64, 0
2, 10457, Note_on_c, 0, 61, 0
2, 10512, Note_on_c, 0, 66, 75
2, 10512, Note_on_c, 0, 62, 75
2, 10532, Note_on_c, 0, 66, 0
2, 10532, Note_on_c, 0, 62, 0
2, 10560, Note_on_c, 0, 68, 75
2, 10560, Note_on_c, 0, 59, 75
2, 10580, Note_on_c, 0, 68, 0
2, 10580, Note_on_c, 0, 59, 0
2, 10608, Note_on_c, 0, 69, 75
2, 10608, Note_on_c, 0, 61, 75
2, 10628, Note_on_c, 0, 69, 0
2, 10628, Note_on_c, 0, 61, 0
2, 10656, Note_on_c, 0, 71, 75
2, 10656, Note_on_c, 0, 68, 75
2, 10676, Note_on_c, 0, 71, 0
2, 10676, Note_on_c, 0, 68, 0
2, 10704, Note_on_c, 0, 74, 75
2, 10716, Note_on_c, 0, 74, 0
2, 10716, Note_on_c, 0, 73, 75
2, 10728, Note_on_c, 0, 73, 0
2, 10728, Note_on_c, 0, 71, 75
2, 10740, Note_on_c, 0, 71, 0
2, 10740, Note_on_c, 0, 73, 75
2, 10752, Note_on_c, 0, 73, 0
2, 10752, Note_on_c, 0, 74, 75
2, 10752, Note_on_c, 0, 71, 75
2, 10841, Note_on_c, 0, 74, 0
2, 10841, Note_on_c, 0, 71, 0
2, 10896, Note_on_c, 0, 71, 75
2, 10896, Note_on_c, 0, 68, 75
2, 10916, Note_on_c, 0, 71, 0
2, 10916, Note_on_c, 0, 68, 0
2, 10944, Note_on_c, 0, 73, 75
2, 10944, Note_on_c, 0, 69, 75
2, 10964, Note_on_c, 0, 73, 0
2, 10964, Note_on_c, 0, 69, 0
2, 10992, Note_on_c, 0, 71, 75
2, 10992, Note_on_c, 0, 68, 75
2, 11012, Note_on_c, 0, 71, 0
2, 11012, Note_on_c, 0, 68, 0
2, 11040, Note_on_c, 0, 73, 75
2, 11040, Note_on_c, 0, 69, 75
2, 11060, Note_on_c, 0, 73, 0
2, 11060, Note_on_c, 0, 69, 0
2, 11088, Note_on_c, 0, 76, 75
2, 11100, Note_on_c, 0, 76, 0
2, 11100, Note_on_c, 0, 74, 75
2, 11112, Note_on_c, 0, 74, 0
2, 11112, Note_on_c, 0, 73, 75
2, 11124, Note_on_c, 0, 73, 0
2, 11124, Note_on_c, 0, 74, 75
2, 11136, Note_on_c, 0, 74, 0
2, 11136, Note_on_c, 0, 76, 75
2, 11136, Note_on_c, 0, 73, 75
2, 11225, Note_on_c, 0, 76, 0
2, 11225, Note_on_c, 0, 73, 0
2, 11280, Note_on_c, 0, 78, 75
2, 11280, Note_on_c, 0, 74, 75
2, 11300, Note_on_c, 0, 78, 0
2, 11300, Note_on_c, 0, 74, 0
2, 11328, Note_on_c, 0, 80, 75
2, 11328, Note_on_c, 0, 71, 75
2, 11348, Note_on_c, 0, 80, 0
2, 11348, Note_on_c, 0, 71, 0
2, 11376, Note_on_c, 0, 81, 75
2, 11376, Note_on_c, 0, 73, 75
2, 11396, Note_on_c, 0, 81, 0
2, 11396, Note_on_c, 0, 73, 0
2, 11424, Note_on_c, 0, 83, 75
2, 11424, Note_on_c, 0, 80, 75
2, 11444, Note_on_c, 0, 83, 0
2, 11444, Note_on_c, 0, 80, 0
2, 11472, Note_on_c, 0, 86, 75
2, 11484, Note_on_c, 0, 86, 0
2, 11484, Note_on_c, 0, 85, 75
2, 11496, Note_on_c, 0, 85, 0
2, 11496, Note_on_c, 0, 83, 75
2, 11508, Note_on_c, 0, 83, 0
2, 11508, Note_on_c, 0, 85, 75
2, 11520, Note_on_c, 0, 85, 0
2, 11520, Note_on_c, 0, 86, 75
2, 11520, Note_on_c, 0, 83, 75
2, 11609, Note_on_c, 0, 86, 0
2, 11609, Note_on_c, 0, 83, 0
2, 11664, Note_on_c, 0, 86, 75
2, 11676, Note_on_c, 0, 86, 0
2, 11676, Note_on_c, 0, 85, 75
2, 11688, Note_on_c, 0, 85, 0
2, 11688, Note_on_c, 0, 83, 75
2, 11700, Note_on_c, 0, 83, 0
2, 11700, Note_on_c, 0, 81, 75
2, 11712, Note_on_c, 0, 81, 0
2, 11712, Note_on_c, 0, 80, 75
2, 11757, Note_on_c, 0, 80, 0
2, 11856, Note_on_c, 0, 83, 75
2, 11868, Note_on_c, 0, 83, 0
2, 11868, Note_on_c, 0, 80, 75
2, 11880, Note_on_c, 0, 80, 0
2, 11880, Note_on_c, 0, 78, 75
2, 11892, Note_on_c, 0, 78, 0
2, 11892, Note_on_c, 0, 76, 75
2, 11904, Note_on_c, 0, 76, 0
2, 11904, Note_on_c, 0, 81, 75
2, 11949, Note_on_c, 0, 81, 0
2, 12048, Note_on_c, 0, 86, 75
2, 12060, Note_on_c, 0, 86, 0
2, 12060, Note_on_c, 0, 85, 75
2, 12072, Note_on_c, 0, 85, 0
2, 12072, Note_on_c, 0, 83, 75
2, 12084, Note_on_c, 0, 83, 0
2, 12084, Note_on_c, 0, 81, 75
2, 12096, Note_on_c, 0, 81, 0
2, 12096, Note_on_c, 0, 80, 75
2, 12141, Note_on_c, 0, 80, 0
2, 12240, Note_on_c, 0, 83, 75
2, 12252, Note_on_c, 0, 83, 0
2, 12252, Note_on_c, 0, 80, 75
2, 12264, Note_on_c, 0, 80, 0
2, 12264, Note_on_c, 0, 78, 75
2, 12276, Note_on_c, 0, 78, 0
2, 12276, Note_on_c, 0, 76, 75
2, 12288, Note_on_c, 0, 76, 0
2, 12288, Note_on_c, 0, 81, 75
2, 12308, Note_on_c, 0, 81, 0
2, 12336, Note_on_c, 0, 85, 75
2, 12348, Note_on_c, 0, 85, 0
2, 12348, Note_on_c, 0, 83, 75
2, 12360, Note_on_c, 0, 83, 0
2, 12360, Note_on_c, 0, 81, 75
2, 12372, Note_on_c, 0, 81, 0
2, 12372, Note_on_c, 0, 80, 75
2, 12384, Note_on_c, 0, 80, 0
2, 12384, Note_on_c, 0, 78, 75
2, 12404, Note_on_c, 0, 78, 0
2, 12432, Note_on_c, 0, 81, 75
2, 12444, Note_on_c, 0, 81, 0
2, 12444, Note_on_c, 0, 80, 75
2, 12456, Note_on_c, 0, 80, 0
2, 12456, Note_on_c, 0, 78, 75
2, 12468, Note_on_c, 0, 78, 0
2, 12468, Note_on_c, 0, 76, 75
2, 12480, Note_on_c, 0, 76, 0
2, 12480, Note_on_c, 0, 74, 75
2, 12500, Note_on_c, 0, 74, 0
2, 12528, Note_on_c, 0, 78, 75
2, 12540, Note_on_c, 0, 78, 0
2, 12540, Note_on_c, 0, 76, 75
2, 12552, Note_on_c, 0, 76, 0
2, 12552, Note_on_c, 0, 74, 75
2, 12564, Note_on_c, 0, 74, 0
2, 12564, Note_on_c, 0, 73, 75
2, 12576, Note_on_c, 0, 73, 0
2, 12576, Note_on_c, 0, 71, 75
2, 12596, Note_on_c, 0, 71, 0
2, 12624, Note_on_c, 0, 78, 75
2, 12636, Note_on_c, 0, 78, 0
2, 12636, Note_on_c, 0, 74, 75
2, 12648, Note_on_c, 0, 74, 0
2, 12648, Note_on_c, 0, 73, 75
2, 12660, Note_on_c, 0, 73, 0
2, 12660, Note_on_c, 0, 71, 75
2, 12672, Note_on_c, 0, 71, 0
2, 12672, Note_on_c, 0, 76, 75
2, 12692, Note_on_c, 0, 76, 0
2, 12720, Note_on_c, 0, 74, 75
2, 12732, Note_on_c, 0, 74, 0
2, 12732, Note_on_c, 0, 73, 75
2, 12744, Note_on_c, 0, 73, 0
2, 12744, Note_on_c, 0, 71, 75
2, 12756, Note_on_c, 0, 71, 0
2, 12756, Note_on_c, 0, 69, 75
2, 12768, Note_on_c, 0, 69, 0
2, 12768, Note_on_c, 0, 71, 75
2, 12777, Note_on_c, 0, 71, 0
2, 12777, Note_on_c, 0, 73, 75
2, 12786, Note_on_c, 0, 73, 0
2, 12786, Note_on_c, 0, 71, 75
2, 12795, Note_on_c, 0, 71, 0
2, 12795, Note_on_c, 0, 73, 75
2, 12804, Note_on_c, 0, 73, 0
2, 12804, Note_on_c, 0, 71, 75
2, 12813, Note_on_c, 0, 71, 0
2, 12813, Note_on_c, 0, 73, 75
2, 12822, Note_on_c, 0, 73, 0
2, 12822, Note_on_c, 0, 71, 75
2, 12831, Note_on_c, 0, 71, 0
2, 12831, Note_on_c, 0, 73, 75
2, 12840, Note_on_c, 0, 73, 0
2, 12840, Note_on_c, 0, 71, 75
2, 12848, Note_on_c, 0, 71, 0
2, 12848, Note_on_c, 0, 69, 75
2, 12856, Note_on_c, 0, 69, 0
2, 12856, Note_on_c, 0, 71, 75
2, 12864, Note_on_c, 0, 71, 0
2, 12864, Note_on_c, 0, 69, 75
2, 12909, Note_on_c, 0, 69, 0
2, 12960, Note_on_c, 0, 76, 75
2, 12972, Note_on_c, 0, 76, 0
2, 12972, Note_on_c, 0, 74, 75
2, 13005, Note_on_c, 0, 74, 0
2, 13008, Note_on_c, 0, 74, 75
2, 13053, Note_on_c, 0, 74, 0
2, 13056, Note_on_c, 0, 73, 75
2, 13101, Note_on_c, 0, 73, 0
2, 13152, Note_on_c, 0, 73, 75
2, 13176, Note_on_c, 0, 73, 0
2, 13176, Note_on_c, 0, 71, 75
2, 13199, Note_on_c, 0, 71, 0
2, 13200, Note_on_c, 0, 71, 75
2, 13236, Note_on_c, 0, 71, 0
2, 13236, Note_on_c, 0, 68, 75
2, 13248, Note_on_c, 0, 68, 0
2, 13248, Note_on_c, 0, 69, 75
2, 13293, Note_on_c, 0, 69, 0
2, 13344, Note_on_c, 0, 74, 75
2, 13359, Note_on_c, 0, 74, 0
2, 13360, Note_on_c, 0, 76, 75
2, 13375, Note_on_c, 0, 76, 0
2, 13376, Note_on_c, 0, 74, 75
2, 13391, Note_on_c, 0, 74, 0
2, 13392, Note_on_c, 0, 78, 75
2, 13407, Note_on_c, 0, 78, 0
2, 13408, Note_on_c, 0, 76, 75
2, 13423, Note_on_c, 0, 76, 0
2, 13424, Note_on_c, 0, 74, 75
2, 13439, Note_on_c, 0, 74, 0
2, 13440, Note_on_c, 0, 73, 75
2, 13485, Note_on_c, 0, 73, 0
2, 13536, Note_on_c, 0, 74, 75
2, 13551, Note_on_c, 0, 74, 0
2, 13552, Note_on_c, 0, 73, 75
2, 13567, Note_on_c, 0, 73, 0
2, 13568, Note_on_c, 0, 71, 75
2, 13583, Note_on_c, 0, 71, 0
2, 13584, Note_on_c, 0, 69, 75
2, 13599, Note_on_c, 0, 69, 0
2, 13600, Note_on_c, 0, 71, 75
2, 13615, Note_on_c, 0, 71, 0
2, 13616, Note_on_c, 0, 68, 75
2, 13631, Note_on_c, 0, 68, 0
2, 13632, Note_on_c, 0, 69, 75
2, 13652, Note_on_c, 0, 69, 0
2, 13680, Note_on_c, 0, 69, 75
2, 13700, Note_on_c, 0, 69, 0
2, 13728, Note_on_c, 0, 71, 75
2, 13748, Note_on_c, 0, 71, 0
2, 13776, Note_on_c, 0, 71, 75
2, 13796, Note_on_c, 0, 71, 0
2, 13824, Note_on_c, 0, 73, 75
2, 13844, Note_on_c, 0, 73, 0
2, 13872, Note_on_c, 0, 73, 75
2, 13892, Note_on_c, 0, 73, 0
2, 13920, Note_on_c, 0, 76, 75
2, 13944, Note_on_c, 0, 76, 0
2, 13944, Note_on_c, 0, 74, 75
2, 13967, Note_on_c, 0, 74, 0
2, 13968, Note_on_c, 0, 71, 75
2, 13992, Note_on_c, 0, 71, 0
2, 13992, Note_on_c, 0, 68, 75
2, 14015, Note_on_c, 0, 68, 0
2, 14016, Note_on_c, 0, 68, 75
2, 14028, Note_on_c, 0, 68, 0
2, 14028, Note_on_c, 0, 69, 75
2, 14061, Note_on_c, 0, 69, 0
2, 14064, Note_on_c, 0, 68, 75
2, 14076, Note_on_c, 0, 68, 0
2, 14076, Note_on_c, 0, 69, 75
2, 14109, Note_on_c, 0, 69, 0
2, 14112, Note_on_c, 0, 70, 75
2, 14124, Note_on_c, 0, 70, 0
2, 14124, Note_on_c, 0, 71, 75
2, 14157, Note_on_c, 0, 71, 0
2, 14160, Note_on_c, 0, 70, 75
2, 14172, Note_on_c, 0, 70, 0
2, 14172, Note_on_c, 0, 71, 75
2, 14205, Note_on_c, 0, 71, 0
2, 14208, Note_on_c, 0, 72, 75
2, 14220, Note_on_c, 0, 72, 0
2, 14220, Note_on_c, 0, 73, 75
2, 14253, Note_on_c, 0, 73, 0
2, 14256, Note_on_c, 0, 72, 75
2, 14268, Note_on_c, 0, 72, 0
2, 14268, Note_on_c, 0, 73, 75
2, 14301, Note_on_c, 0, 73, 0
2, 14304, Note_on_c, 0, 74, 75
2, 14313, Note_on_c, 0, 74, 0
2, 14313, Note_on_c, 0, 76, 75
2, 14322, Note_on_c, 0, 76, 0
2, 14322, Note_on_c, 0, 74, 75
2, 14331, Note_on_c, 0, 74, 0
2, 14331, Note_on_c, 0, 76, 75
2, 14340, Note_on_c, 0, 76, 0
2, 14340, Note_on_c, 0, 74, 75
2, 14349, Note_on_c, 0, 74, 0
2, 14349, Note_on_c, 0, 76, 75
2, 14358, Note_on_c, 0, 76, 0
2, 14358, Note_on_c, 0, 74, 75
2, 14367, Note_on_c, 0, 74, 0
2, 14367, Note_on_c, 0, 76, 75
2, 14376, Note_on_c, 0, 76, 0
2, 14376, Note_on_c, 0, 74, 75
2, 14384, Note_on_c, 0, 74, 0
2, 14384, Note_on_c, 0, 73, 75
2, 14392, Note_on_c, 0, 73, 0
2, 14392, Note_on_c, 0, 74, 75
2, 14400, Note_on_c, 0, 74, 0
2, 14400, Note_on_c, 0, 72, 75
2, 14412, Note_on_c, 0, 72, 0
2, 14412, Note_on_c, 0, 73, 75
2, 14445, Note_on_c, 0, 73, 0
2, 14448, Note_on_c, 0, 72, 75
2, 14460, Note_on_c, 0, 72, 0
2, 14460, Note_on_c, 0, 73, 75
2, 14493, Note_on_c, 0, 73, 0
2, 14496, Note_on_c, 0, 74, 75
2, 14505, Note_on_c, 0, 74, 0
2, 14505, Note_on_c, 0, 76, 75
2, 14514, Note_on_c, 0, 76, 0
2, 14514, Note_on_c, 0, 74, 75
2, 14523, Note_on_c, 0, 74, 0
2, 14523, Note_on_c, 0, 76, 75
2, 14532, Note_on_c, 0, 76, 0
2, 14532, Note_on_c, 0, 74, 75
2, 14541, Note_on_c, 0, 74, 0
2, 14541, Note_on_c, 0, 76, 75
2, 14550, Note_on_c, 0, 76, 0
2, 14550, Note_on_c, 0, 74, 75
2, 14559, Note_on_c, 0, 74, 0
2, 14559, Note_on_c, 0, 76, 75
2, 14568, Note_on_c, 0, 76, 0
2, 14568, Note_on_c, 0, 74, 75
2, 14576, Note_on_c, 0, 74, 0
2, 14576, Note_on_c, 0, 76, 75
2, 14584, Note_on_c, 0, 76, 0
2, 14584, Note_on_c, 0, 74, 75
2, 14592, Note_on_c, 0, 74, 0
2, 14592, Note_on_c, 0, 80, 75
2, 14607, Note_on_c, 0, 80, 0
2, 14608, Note_on_c, 0, 81, 75
2, 14623, Note_on_c, 0, 81, 0
2, 14624, Note_on_c, 0, 85, 75
2, 14639, Note_on_c, 0, 85, 0
2, 14640, Note_on_c, 0, 80, 75
2, 14655, Note_on_c, 0, 80, 0
2, 14656, Note_on_c, 0, 81, 75
2, 14671, Note_on_c, 0, 81, 0
2, 14672, Note_on_c, 0, 85, 75
2, 14687, Note_on_c, 0, 85, 0
2, 14688, Note_on_c, 0, 77, 75
2, 14703, Note_on_c, 0, 77, 0
2, 14704, Note_on_c, 0, 78, 75
2, 14719, Note_on_c, 0, 78, 0
2, 14720, Note_on_c, 0, 81, 75
2, 14735, Note_on_c, 0, 81, 0
2, 14736, Note_on_c, 0, 77, 75
2, 14751, Note_on_c, 0, 77, 0
2, 14752, Note_on_c, 0, 78, 75
2, 14767, Note_on_c, 0, 78, 0
2, 14768, Note_on_c, 0, 81, 75
2, 14783, Note_on_c, 0, 81, 0
2, 14784, Note_on_c, 0, 73, 75
2, 14799, Note_on_c, 0, 73, 0
2, 14800, Note_on_c, 0, 74, 75
2, 14815, Note_on_c, 0, 74, 0
2, 14816, Note_on_c, 0, 78, 75
2, 14831, Note_on_c, 0, 78, 0
2, 14832, Note_on_c, 0, 73, 75
2, 14847, Note_on_c, 0, 73, 0
2, 14848, Note_on_c, 0, 74, 75
2, 14863, Note_on_c, 0, 74, 0
2, 14864, Note_on_c, 0, 78, 75
2, 14879, Note_on_c, 0, 78, 0
2, 14880, Note_on_c, 0, 70, 75
2, 14895, Note_on_c, 0, 70, 0
2, 14896, Note_on_c, 0, 71, 75
2, 14911, Note_on_c, 0, 71, 0
2, 14912, Note_on_c, 0, 74, 75
2, 14927, Note_on_c, 0, 74, 0
2, 14928, Note_on_c, 0, 70, 75
2, 14943, Note_on_c, 0, 70, 0
2, 14944, Note_on_c, 0, 71, 75
2, 14959, Note_on_c, 0, 71, 0
2, 14960, Note_on_c, 0, 74, 75
2, 14975, Note_on_c, 0, 74, 0
2, 14976, Note_on_c, 0, 64, 75
2, 15065, Note_on_c, 0, 64, 0
2, 15072, Note_on_c, 0, 71, 75
2, 15081, Note_on_c, 0, 71, 0
2, 15081, Note_on_c, 0, 73, 75
2, 15090, Note_on_c, 0, 73, 0
2, 15090, Note_on_c, 0, 71, 75
2, 15099, Note_on_c, 0, 71, 0
2, 15099, Note_on_c, 0, 73, 75
2, 15108, Note_on_c, 0, 73, 0
2, 15108, Note_on_c, 0, 71, 75
2, 15117, Note_on_c, 0, 71, 0
2, 15117, Note_on_c, 0, 73, 75
2, 15126, Note_on_c, 0, 73, 0
2, 15126, Note_on_c, 0, 71, 75
2, 15135, Note_on_c, 0, 71, 0
2, 15135, Note_on_c, 0, 73, 75
2, 15144, Note_on_c, 0, 73, 0
2, 15144, Note_on_c, 0, 71, 75
2, 15152, Note_on_c, 0, 71, 0
2, 15152, Note_on_c, 0, 73, 75
2, 15160, Note_on_c, 0, 73, 0
2, 15160, Note_on_c, 0, 71, 75
2, 15168, Note_on_c, 0, 71, 0
2, 15168, Note_on_c, 0, 80, 75
2, 15183, Note_on_c, 0, 80, 0
2, 15184, Note_on_c, 0, 81, 75
2, 15199, Note_on_c, 0, 81, 0
2, 15200, Note_on_c, 0, 85, 75
2, 15215, Note_on_c, 0, 85, 0
2, 15216, Note_on_c, 0, 80, 75
2, 15231, Note_on_c, 0, 80, 0
2, 15232, Note_on_c, 0, 81, 75
2, 15247, Note_on_c, 0, 81, 0
2, 15248, Note_on_c, 0, 85, 75
2, 15263, Note_on_c, 0, 85, 0
2, 15264, Note_on_c, 0, 77, 75
2, 15279, Note_on_c, 0, 77, 0
2, 15280, Note_on_c, 0, 78, 75
2, 15295, Note_on_c, 0, 78, 0
2, 15296, Note_on_c, 0, 81, 75
2, 15311, Note_on_c, 0, 81, 0
2, 15312, Note_on_c, 0, 77, 75
2, 15327, Note_on_c, 0, 77, 0
2, 15328, Note_on_c, 0, 78, 75
2, 15343, Note_on_c, 0, 78, 0
2, 15344, Note_on_c, 0, 81, 75
2, 15359, Note_on_c, 0, 81, 0
2, 15360, Note_on_c, 0, 73, 75
2, 15375, Note_on_c, 0, 73, 0
2, 15376, Note_on_c, 0, 74, 75
2, 15391, Note_on_c, 0, 74, 0
2, 15392, Note_on_c, 0, 78, 75
2, 15407, Note_on_c, 0, 78, 0
2, 15408, Note_on_c, 0, 73, 75
2, 15423, Note_on_c, 0, 73, 0
2, 15424, Note_on_c, 0, 74, 75
2, 15439, Note_on_c, 0, 74, 0
2, 15440, Note_on_c, 0, 78, 75
2, 15455, Note_on_c, 0, 78, 0
2, 15456, Note_on_c, 0, 70, 75
2, 15471, Note_on_c, 0, 70, 0
2, 15472, Note_on_c, 0, 71, 75
2, 15487, Note_on_c, 0, 71, 0
2, 15488, Note_on_c, 0, 74, 75
2, 15503, Note_on_c, 0, 74, 0
2, 15504, Note_on_c, 0, 70, 75
2, 15519, Note_on_c, 0, 70, 0
2, 15520, Note_on_c, 0, 71, 75
2, 15535, Note_on_c, 0, 71, 0
2, 15536, Note_on_c, 0, 74, 75
2, 15551, Note_on_c, 0, 74, 0
2, 15552, Note_on_c, 0, 64, 75
2, 15641, Note_on_c, 0, 64, 0
2, 15648, Note_on_c, 0, 71, 75
2, 15657, Note_on_c, 0, 71, 0
2, 15657, Note_on_c, 0, 73, 75
2, 15666, Note_on_c, 0, 73, 0
2, 15666, Note_on_c, 0, 71, 75
2, 15675, Note_on_c, 0, 71, 0
2, 15675, Note_on_c, 0, 73, 75
2, 15684, Note_on_c, 0, 73, 0
2, 15684, Note_on_c, 0, 71, 75
2, 15693, Note_on_c, 0, 71, 0
2, 15693, Note_on_c, 0, 73, 75
2, 15702, Note_on_c, 0, 73, 0
2, 15702, Note_on_c, 0, 71, 75
2, 15711, Note_on_c, 0, 71, 0
2, 15711, Note_on_c, 0, 73, 75
2, 15720, Note_on_c, 0, 73, 0
2, 15720, Note_on_c, 0, 71, 75
2, 15728, Note_on_c, 0, 71, 0
2, 15728, Note_on_c, 0, 69, 75
2, 15736, Note_on_c, 0, 69, 0
2, 15736, Note_on_c, 0, 71, 75
2, 15744, Note_on_c, 0, 71, 0
2, 15744, Note_on_c, 0, 69, 75
2, 15789, Note_on_c, 0, 69, 0
2, 15840, Note_on_c, 0, 76, 69
2, 15864, Note_on_c, 0, 76, 0
2, 15864, Note_on_c, 0, 74, 69
2, 15887, Note_on_c, 0, 74, 0
2, 15888, Note_on_c, 0, 71, 69
2, 15922, Note_on_c, 0, 71, 0
2, 15924, Note_on_c, 0, 68, 69
2, 15936, Note_on_c, 0, 68, 0
2, 15936, Note_on_c, 0, 69, 69
2, 15981, Note_on_c, 0, 69, 0
2, 16032, Note_on_c, 0, 76, 61
2, 16056, Note_on_c, 0, 76, 0
2, 16056, Note_on_c, 0, 74, 61
2, 16079, Note_on_c, 0, 74, 0
2, 16080, Note_on_c, 0, 71, 61
2, 16114, Note_on_c, 0, 71, 0
2, 16116, Note_on_c, 0, 68, 61
2, 16128, Note_on_c, 0, 68, 0
2, 16128, Note_on_c, 0, 69, 61
2, 16217, Note_on_c, 0, 69, 0
2, 16224, Note_on_c, 0, 33, 75
2, 16291, Note_on_c, 0, 33, 0
2, 16296, Note_on_c, 0, 33, 75
2, 16319, Note_on_c, 0, 33, 0
2, 16320, Control_c, 0, 64, 127
2, 16320, Note_on_c, 0, 33, 75
2, 16409, Note_on_c, 0, 33, 0
2, 16416, Control_c, 0, 64, 0
2, 16500, Note_on_c, 0, 57, 75
2, 16512, Note_on_c, 0, 57, 0
2, 16512, Note_on_c, 0, 66, 75
2, 16642, Note_on_c, 0, 66, 0
2, 16644, Note_on_c, 0, 57, 80
2, 16656, Note_on_c, 0, 57, 0
2, 16656, Note_on_c, 0, 67, 80
2, 16690, Note_on_c, 0, 67, 0
2, 16692, Note_on_c, 0, 57, 82
2, 16704, Note_on_c, 0, 57, 0
2, 16704, Note_on_c, 0, 66, 82
2, 16738, Note_on_c, 0, 66, 0
2, 16740, Note_on_c, 0, 57, 84
2, 16752, Note_on_c, 0, 57, 0
2, 16752, Note_on_c, 0, 64, 83
2, 16786, Note_on_c, 0, 64, 0
2, 16788, Note_on_c, 0, 57, 81
2, 16800, Note_on_c, 0, 57, 0
2, 16800, Note_on_c, 0, 62, 80
2, 16834, Note_on_c, 0, 62, 0
2, 16836, Note_on_c, 0, 57, 78
2, 16848, Note_on_c, 0, 57, 0
2, 16848, Note_on_c, 0, 64, 77
2, 16882, Note_on_c, 0, 64, 0
2, 16884, Note_on_c, 0, 57, 75
2, 16896, Note_on_c, 0, 57, 0
2, 16896, Note_on_c, 0, 66, 75
2, 17026, Note_on_c, 0, 66, 0
2, 17028, Note_on_c, 0, 57, 80
2, 17040, Note_on_c, 0, 57, 0
2, 17040, Note_on_c, 0, 67, 80
2, 17074, Note_on_c, 0, 67, 0
2, 17076, Note_on_c, 0, 57, 82
2, 17088, Note_on_c, 0, 57, 0
2, 17088, Note_on_c, 0, 66, 82
2, 17122, Note_on_c, 0, 66, 0
2, 17124, Note_on_c, 0, 57, 84
2, 17136, Note_on_c, 0, 57, 0
2, 17136, Note_on_c, 0, 64, 83
2, 17170, Note_on_c, 0, 64, 0
2, 17172, Note_on_c, 0, 57, 81
2, 17184, Note_on_c, 0, 57, 0
2, 17184, Note_on_c, 0, 62, 80
2, 17218, Note_on_c, 0, 62, 0
2, 17220, Note_on_c, 0, 57, 78
2, 17232, Note_on_c, 0, 57, 0
2, 17232, Note_on_c, 0, 64, 77
2, 17266, Note_on_c, 0, 64, 0
2, 17268, Note_on_c, 0, 57, 75
2, 17280, Note_on_c, 0, 57, 0
2, 17280, Note_on_c, 0, 66, 75
2, 17314, Note_on_c, 0, 66, 0
2, 17316, Note_on_c, 0, 57, 77
2, 17328, Note_on_c, 0, 57, 0
2, 17328, Note_on_c, 0, 67, 78
2, 17362, Note_on_c, 0, 67, 0
2, 17364, Note_on_c, 0, 57, 80
2, 17376, Note_on_c, 0, 57, 0
2, 17376, Note_on_c, 0, 69, 81
2, 17396, Note_on_c, 0, 69, 0
2, 17472, Note_on_c, 0, 66, 75
2, 17487, Note_on_c, 0, 66, 0
2, 17488, Note_on_c, 0, 62, 75
2, 17503, Note_on_c, 0, 62, 0
2, 17504, Note_on_c, 0, 57, 76
2, 17519, Note_on_c, 0, 57, 0
2, 17520, Note_on_c, 0, 67, 77
2, 17535, Note_on_c, 0, 67, 0
2, 17536, Note_on_c, 0, 64, 78
2, 17551, Note_on_c, 0, 64, 0
2, 17552, Note_on_c, 0, 57, 78
2, 17567, Note_on_c, 0, 57, 0
2, 17568, Note_on_c, 0, 69, 79
2, 17588, Note_on_c, 0, 69, 0
2, 17664, Note_on_c, 0, 78, 75
2, 17797, Note_on_c, 0, 78, 0
2, 17808, Note_on_c, 0, 69, 75
2, 17853, Note_on_c, 0, 69, 0
2, 17856, Note_on_c, 0, 66, 91
2, 17904, Note_on_c, 0, 66, 0
2, 17904, Note_on_c, 0, 67, 75
2, 18037, Note_on_c, 0, 67, 0
2, 18048, Note_on_c, 0, 81, 75
2, 18060, Note_on_c, 0, 81, 0
2, 18060, Note_on_c, 0, 79, 75
2, 18072, Note_on_c, 0, 79, 0
2, 18072, Note_on_c, 0, 78, 75
2, 18084, Note_on_c, 0, 78, 0
2, 18084, Note_on_c, 0, 79, 75
2, 18181, Note_on_c, 0, 79, 0
2, 18192, Note_on_c, 0, 67, 75
2, 18237, Note_on_c, 0, 67, 0
2, 18240, Note_on_c, 0, 65, 91
2, 18288, Note_on_c, 0, 65, 0
2, 18288, Note_on_c, 0, 66, 75
2, 18421, Note_on_c, 0, 66, 0
2, 18432, Note_on_c, 0, 62, 75
2, 18565, Note_on_c, 0, 62, 0
2, 18576, Note_on_c, 0, 66, 75
2, 18588, Note_on_c, 0, 66, 0
2, 18588, Note_on_c, 0, 62, 75
2, 18621, Note_on_c, 0, 62, 0
2, 18624, Note_on_c, 0, 61, 75
2, 18636, Note_on_c, 0, 61, 0
2, 18636, Note_on_c, 0, 59, 75
2, 18757, Note_on_c, 0, 59, 0
2, 18768, Note_on_c, 0, 62, 75
2, 18780, Note_on_c, 0, 62, 0
2, 18780, Note_on_c, 0, 59, 75
2, 18813, Note_on_c, 0, 59, 0
2, 18816, Note_on_c, 0, 59, 75
2, 18828, Note_on_c, 0, 59, 0
2, 18828, Note_on_c, 0, 57, 75
2, 18949, Note_on_c, 0, 57, 0
2, 18960, Note_on_c, 0, 66, 75
2, 18972, Note_on_c, 0, 66, 0
2, 18972, Note_on_c, 0, 62, 75
2, 19005, Note_on_c, 0, 62, 0
2, 19008, Note_on_c, 0, 61, 75
2, 19020, Note_on_c, 0, 61, 0
2, 19020, Note_on_c, 0, 59, 75
2, 19053, Note_on_c, 0, 59, 0
2, 19056, Note_on_c, 0, 62, 75
2, 19068, Note_on_c, 0, 62, 0
2, 19068, Note_on_c, 0, 59, 75
2, 19101, Note_on_c, 0, 59, 0
2, 19104, Note_on_c, 0, 59, 75
2, 19116, Note_on_c, 0, 59, 0
2, 19116, Note_on_c, 0, 57, 75
2, 19149, Note_on_c, 0, 57, 0
2, 19152, Note_on_c, 0, 57, 75
2, 19164, Note_on_c, 0, 57, 0
2, 19164, Note_on_c, 0, 62, 75
2, 19176, Note_on_c, 0, 62, 0
2, 19176, Note_on_c, 0, 66, 75
2, 19188, Note_on_c, 0, 66, 0
2, 19188, Note_on_c, 0, 69, 75
2, 19200, Note_on_c, 0, 69, 0
2, 19200, Note_on_c, 0, 57, 75
2, 19289, Note_on_c, 0, 57, 0
2, 19296, Note_on_c, 0, 55, 75
2, 19305, Note_on_c, 0, 55, 0
2, 19305, Note_on_c, 0, 57, 75
2, 19314, Note_on_c, 0, 57, 0
2, 19314, Note_on_c, 0, 55, 75
2, 19323, Note_on_c, 0, 55, 0
2, 19323, Note_on_c, 0, 57, 75
2, 19332, Note_on_c, 0, 57, 0
2, 19332, Note_on_c, 0, 55, 75
2, 19341, Note_on_c, 0, 55, 0
2, 19341, Note_on_c, 0, 57, 75
2, 19350, Note_on_c, 0, 57, 0
2, 19350, Note_on_c, 0, 55, 75
2, 19359, Note_on_c, 0, 55, 0
2, 19359, Note_on_c, 0, 57, 75
2, 19368, Note_on_c, 0, 57, 0
2, 19368, Note_on_c, 0, 55, 75
2, 19376, Note_on_c, 0, 55, 0
2, 19376, Note_on_c, 0, 54, 75
2, 19384, Note_on_c, 0, 54, 0
2, 19384, Note_on_c, 0, 55, 75
2, 19392, Note_on_c, 0, 55, 0
2, 19392, Note_on_c, 0, 55, 75
2, 19440, Note_on_c, 0, 55, 0
2, 19440, Note_on_c, 0, 54, 75
2, 19481, Note_on_c, 0, 54, 0
2, 19572, Note_on_c, 0, 57, 75
2, 19584, Note_on_c, 0, 57, 0
2, 19584, Note_on_c, 0, 66, 75
2, 19714, Note_on_c, 0, 66, 0
2, 19716, Note_on_c, 0, 57, 80
2, 19728, Note_on_c, 0, 57, 0
2, 19728, Note_on_c, 0, 67, 80
2, 19762, Note_on_c, 0, 67, 0
2, 19764, Note_on_c, 0, 57, 82
2, 19776, Note_on_c, 0, 57, 0
2, 19776, Note_on_c, 0, 66, 82
2, 19810, Note_on_c, 0, 66, 0
2, 19812, Note_on_c, 0, 57, 84
2, 19824, Note_on_c, 0, 57, 0
2, 19824, Note_on_c, 0, 64, 83
2, 19858, Note_on_c, 0, 64, 0
2, 19860, Note_on_c, 0, 57, 81
2, 19872, Note_on_c, 0, 57, 0
2, 19872, Note_on_c, 0, 62, 80
2, 19906, Note_on_c, 0, 62, 0
2, 19908, Note_on_c, 0, 57, 78
2, 19920, Note_on_c, 0, 57, 0
2, 19920, Note_on_c, 0, 64, 77
2, 19954, Note_on_c, 0, 64, 0
2, 19956, Note_on_c, 0, 57, 75
2, 19968, Note_on_c, 0, 57, 0
2, 19968, Note_on_c, 0, 66, 75
2, 20079, Note_on_c, 0, 66, 0
2, 20080, Note_on_c, 0, 62, 75
2, 20095, Note_on_c, 0, 62, 0
2, 20096, Note_on_c, 0, 57, 75
2, 20111, Note_on_c, 0, 57, 0
2, 20112, Note_on_c, 0, 67, 75
2, 20127, Note_on_c, 0, 67, 0
2, 20128, Note_on_c, 0, 64, 76
2, 20143, Note_on_c, 0, 64, 0
2, 20144, Note_on_c, 0, 57, 76
2, 20159, Note_on_c, 0, 57, 0
2, 20160, Note_on_c, 0, 66, 76
2, 20175, Note_on_c, 0, 66, 0
2, 20176, Note_on_c, 0, 62, 76
2, 20191, Note_on_c, 0, 62, 0
2, 20192, Note_on_c, 0, 57, 77
2, 20207, Note_on_c, 0, 57, 0
2, 20208, Note_on_c, 0, 64, 77
2, 20223, Note_on_c, 0, 64, 0
2, 20224, Note_on_c, 0, 61, 77
2, 20239, Note_on_c, 0, 61, 0
2, 20240, Note_on_c, 0, 57, 77
2, 20255, Note_on_c, 0, 57, 0
2, 20256, Note_on_c, 0, 61, 78
2, 20271, Note_on_c, 0, 61, 0
2, 20272, Note_on_c, 0, 62, 78
2, 20287, Note_on_c, 0, 62, 0
2, 20288, Note_on_c, 0, 57, 78
2, 20303, Note_on_c, 0, 57, 0
2, 20304, Note_on_c, 0, 63, 78
2, 20319, Note_on_c, 0, 63, 0
2, 20320, Note_on_c, 0, 64, 79
2, 20335, Note_on_c, 0, 64, 0
2, 20336, Note_on_c, 0, 57, 79
2, 20351, Note_on_c, 0, 57, 0
2, 20352, Note_on_c, 0, 65, 79
2, 20367, Note_on_c, 0, 65, 0
2, 20368, Note_on_c, 0, 66, 79
2, 20383, Note_on_c, 0, 66, 0
2, 20384, Note_on_c, 0, 57, 80
2, 20399, Note_on_c, 0, 57, 0
2, 20400, Note_on_c, 0, 66, 80
2, 20415, Note_on_c, 0, 66, 0
2, 20416, Note_on_c, 0, 67, 80
2, 20431, Note_on_c, 0, 67, 0
2, 20432, Note_on_c, 0, 57, 80
2, 20447, Note_on_c, 0, 57, 0
2, 20448, Note_on_c, 0, 69, 81
2, 20468, Note_on_c, 0, 69, 0
2, 20544, Note_on_c, 0, 66, 75
2, 20559, Note_on_c, 0, 66, 0
2, 20560, Note_on_c, 0, 62, 75
2, 20575, Note_on_c, 0, 62, 0
2, 20576, Note_on_c, 0, 57, 76
2, 20591, Note_on_c, 0, 57, 0
2, 20592, Note_on_c, 0, 67, 77
2, 20607, Note_on_c, 0, 67, 0
2, 20608, Note_on_c, 0, 64, 78
2, 20623, Note_on_c, 0, 64, 0
2, 20624, Note_on_c, 0, 57, 78
2, 20639, Note_on_c, 0, 57, 0
2, 20640, Note_on_c, 0, 69, 79
2, 20660, Note_on_c, 0, 69, 0
2, 20736, Note_on_c, 0, 78, 75
2, 20825, Note_on_c, 0, 78, 0
2, 20832, Note_on_c, 0, 79, 75
2, 20844, Note_on_c, 0, 79, 0
2, 20844, Note_on_c, 0, 78, 75
2, 20856, Note_on_c, 0, 78, 0
2, 20856, Note_on_c, 0, 76, 75
2, 20868, Note_on_c, 0, 76, 0
2, 20868, Note_on_c, 0, 74, 75
2, 20880, Note_on_c, 0, 74, 0
2, 20880, Note_on_c, 0, 74, 75
2, 20892, Note_on_c, 0, 74, 0
2, 20892, Note_on_c, 0, 73, 75
2, 20904, Note_on_c, 0, 73, 0
2, 20904, Note_on_c, 0, 71, 75
2, 20916, Note_on_c, 0, 71, 0
2, 20916, Note_on_c, 0, 69, 75
2, 20928, Note_on_c, 0, 69, 0
2, 20928, Note_on_c, 0, 69, 75
2, 21024, Note_on_c, 0, 69, 0
2, 21024, Note_on_c, 0, 67, 75
2, 21047, Note_on_c, 0, 67, 0
2, 21048, Note_on_c, 0, 69, 75
2, 21060, Note_on_c, 0, 69, 0
2, 21060, Note_on_c, 0, 71, 75
2, 21072, Note_on_c, 0, 71, 0
2, 21072, Note_on_c, 0, 73, 75
2, 21084, Note_on_c, 0, 73, 0
2, 21084, Note_on_c, 0, 74, 75
2, 21096, Note_on_c, 0, 74, 0
2, 21096, Note_on_c, 0, 76, 75
2, 21108, Note_on_c, 0, 76, 0
2, 21108, Note_on_c, 0, 78, 75
2, 21120, Note_on_c, 0, 78, 0
2, 21120, Note_on_c, 0, 79, 75
2, 21187, Note_on_c, 0, 79, 0
2, 21192, Note_on_c, 0, 81, 75
2, 21215, Note_on_c, 0, 81, 0
2, 21216, Note_on_c, 0, 79, 75
2, 21228, Note_on_c, 0, 79, 0
2, 21228, Note_on_c, 0, 78, 75
2, 21240, Note_on_c, 0, 78, 0
2, 21240, Note_on_c, 0, 76, 75
2, 21252, Note_on_c, 0, 76, 0
2, 21252, Note_on_c, 0, 74, 75
2, 21264, Note_on_c, 0, 74, 0
2, 21264, Note_on_c, 0, 73, 75
2, 21276, Note_on_c, 0, 73, 0
2, 21276, Note_on_c, 0, 71, 75
2, 21288, Note_on_c, 0, 71, 0
2, 21288, Note_on_c, 0, 69, 75
2, 21300, Note_on_c, 0, 69, 0
2, 21300, Note_on_c, 0, 67, 75
2, 21312, Note_on_c, 0, 67, 0
2, 21312, Note_on_c, 0, 67, 75
2, 21408, Note_on_c, 0, 67, 0
2, 21408, Note_on_c, 0, 66, 75
2, 21453, Note_on_c, 0, 66, 0
2, 21504, Note_on_c, 0, 62, 75
2, 21637, Note_on_c, 0, 62, 0
2, 21648, Note_on_c, 0, 66, 75
2, 21660, Note_on_c, 0, 66, 0
2, 21660, Note_on_c, 0, 62, 75
2, 21693, Note_on_c, 0, 62, 0
2, 21696, Note_on_c, 0, 61, 75
2, 21708, Note_on_c, 0, 61, 0
2, 21708, Note_on_c, 0, 59, 75
2, 21829, Note_on_c, 0, 59, 0
2, 21840, Note_on_c, 0, 62, 75
2, 21852, Note_on_c, 0, 62, 0
2, 21852, Note_on_c, 0, 59, 75
2, 21885, Note_on_c, 0, 59, 0
2, 21888, Note_on_c, 0, 59, 75
2, 21900, Note_on_c, 0, 59, 0
2, 21900, Note_on_c, 0, 57, 75
2, 22021, Note_on_c, 0, 57, 0
2, 22032, Note_on_c, 0, 66, 75
2, 22044, Note_on_c, 0, 66, 0
2, 22044, Note_on_c, 0, 62, 75
2, 22077, Note_on_c, 0, 62, 0
2, 22080, Note_on_c, 0, 61, 75
2, 22092, Note_on_c, 0, 61, 0
2, 22092, Note_on_c, 0, 59, 75
2, 22125, Note_on_c, 0, 59, 0
2, 22128, Note_on_c, 0, 62, 75
2, 22140, Note_on_c, 0, 62, 0
2, 22140, Note_on_c, 0, 59, 75
2, 22173, Note_on_c, 0, 59, 0
2, 22176, Note_on_c, 0, 59, 75
2, 22188, Note_on_c, 0, 59, 0
2, 22188, Note_on_c, 0, 57, 75
2, 22221, Note_on_c, 0, 57, 0
2, 22224, Note_on_c, 0, 66, 75
2, 22236, Note_on_c, 0, 66, 0
2, 22236, Note_on_c, 0, 62, 75
2, 22269, Note_on_c, 0, 62, 0
2, 22272, Note_on_c, 0, 61, 75
2, 22284, Note_on_c, 0, 61, 0
2, 22284, Note_on_c, 0, 59, 75
2, 22317, Note_on_c, 0, 59, 0
2, 22320, Note_on_c, 0, 62, 75
2, 22332, Note_on_c, 0, 62, 0
2, 22332, Note_on_c, 0, 59, 75
2, 22365, Note_on_c, 0, 59, 0
2, 22368, Note_on_c, 0, 59, 75
2, 22380, Note_on_c, 0, 59, 0
2, 22380, Note_on_c, 0, 57, 75
2, 22413, Note_on_c, 0, 57, 0
2, 22416, Note_on_c, 0, 57, 75
2, 22420, Note_on_c, 0, 57, 0
2, 22420, Note_on_c, 0, 62, 75
2, 22424, Note_on_c, 0, 62, 0
2, 22424, Note_on_c, 0, 66, 75
2, 22428, Note_on_c, 0, 66, 0
2, 22428, Note_on_c, 0, 69, 75
2, 22463, Note_on_c, 0, 69, 0
2, 22464, Note_on_c, 0, 64, 75
2, 22476, Note_on_c, 0, 64, 0
2, 22476, Note_on_c, 0, 67, 75
2, 22488, Note_on_c, 0, 67, 0
2, 22488, Note_on_c, 0, 69, 75
2, 22512, Note_on_c, 0, 69, 0
2, 22512, Note_on_c, 0, 62, 76
2, 22524, Note_on_c, 0, 62, 0
2, 22524, Note_on_c, 0, 66, 76
2, 22536, Note_on_c, 0, 66, 0
2, 22536, Note_on_c, 0, 69, 76
2, 22560, Note_on_c, 0, 69, 0
2, 22560, Note_on_c, 0, 61, 77
2, 22572, Note_on_c, 0, 61, 0
2, 22572, Note_on_c, 0, 64, 77
2, 22584, Note_on_c, 0, 64, 0
2, 22584, Note_on_c, 0, 69, 77
2, 22608, Note_on_c, 0, 69, 0
2, 22608, Note_on_c, 0, 62, 78
2, 22620, Note_on_c, 0, 62, 0
2, 22620, Note_on_c, 0, 66, 78
2, 22632, Note_on_c, 0, 66, 0
2, 22632, Note_on_c, 0, 69, 78
2, 22656, Note_on_c, 0, 69, 0
2, 22656, Note_on_c, 0, 64, 79
2, 22668, Note_on_c, 0, 64, 0
2, 22668, Note_on_c, 0, 67, 79
2, 22680, Note_on_c, 0, 67, 0
2, 22680, Note_on_c, 0, 69, 79
2, 22704, Note_on_c, 0, 69, 0
2, 22704, Note_on_c, 0, 62, 80
2, 22716, Note_on_c, 0, 62, 0
2, 22716, Note_on_c, 0, 66, 80
2, 22728, Note_on_c, 0, 66, 0
2, 22728, Note_on_c, 0, 69, 80
2, 22752, Note_on_c, 0, 69, 0
2, 22752, Note_on_c, 0, 61, 81
2, 22764, Note_on_c, 0, 61, 0
2, 22764, Note_on_c, 0, 64, 81
2, 22776, Note_on_c, 0, 64, 0
2, 22776, Note_on_c, 0, 69, 81
2, 22800, Note_on_c, 0, 69, 0
2, 22800, Note_on_c, 0, 62, 82
2, 22812, Note_on_c, 0, 62, 0
2, 22812, Note_on_c, 0, 66, 82
2, 22824, Note_on_c, 0, 66, 0
2, 22824, Note_on_c, 0, 69, 83
2, 22848, Note_on_c, 0, 69, 0
2, 22848, Note_on_c, 0, 64, 83
2, 22860, Note_on_c, 0, 64, 0
2, 22860, Note_on_c, 0, 67, 83
2, 22872, Note_on_c, 0, 67, 0
2, 22872, Note_on_c, 0, 69, 84
2, 22896, Note_on_c, 0, 69, 0
2, 22896, Note_on_c, 0, 62, 84
2, 22908, Note_on_c, 0, 62, 0
2, 22908, Note_on_c, 0, 66, 84
2, 22920, Note_on_c, 0, 66, 0
2, 22920, Note_on_c, 0, 69, 85
2, 22944, Note_on_c, 0, 69, 0
2, 22944, Note_on_c, 0, 64, 85
2, 22956, Note_on_c, 0, 64, 0
2, 22956, Note_on_c, 0, 67, 85
2, 22968, Note_on_c, 0, 67, 0
2, 22968, Note_on_c, 0, 69, 86
2, 22992, Note_on_c, 0, 69, 0
2, 22992, Note_on_c, 0, 62, 86
2, 23004, Note_on_c, 0, 62, 0
2, 23004, Note_on_c, 0, 66, 87
2, 23016, Note_on_c, 0, 66, 0
2, 23016, Note_on_c, 0, 69, 87
2, 23040, Note_on_c, 0, 69, 0
2, 23040, Note_on_c, 0, 69, 87
2, 23040, Note_on_c, 0, 64, 87
2, 23040, Note_on_c, 0, 61, 87
2, 23129, Note_on_c, 0, 69, 0
2, 23129, Note_on_c, 0, 64, 0
2, 23129, Note_on_c, 0, 61, 0
2, 23136, Control_c, 0, 64, 127
2, 23136, Note_on_c, 0, 57, 90
2, 23142, Note_on_c, 0, 61, 90
2, 23148, Note_on_c, 0, 64, 90
2, 23154, Note_on_c, 0, 69, 90
2, 23229, Note_on_c, 0, 69, 0
2, 23229, Note_on_c, 0, 64, 0
2, 23229, Note_on_c, 0, 61, 0
2, 23229, Note_on_c, 0, 57, 0
2, 23232, Note_on_c, 0, 57, 86
2, 23238, Note_on_c, 0, 61, 86
2, 23244, Note_on_c, 0, 64, 86
2, 23250, Note_on_c, 0, 69, 86
2, 23325, Note_on_c, 0, 69, 0
2, 23325, Note_on_c, 0, 64, 0
2, 23325, Note_on_c, 0, 61, 0
2, 23325, Note_on_c, 0, 57, 0
2, 23376, Control_c, 0, 64, 0
2, 23424, Note_on_c, 0, 76, 75
2, 23448, Note_on_c, 0, 76, 0
2, 23448, Note_on_c, 0, 64, 75
2, 23471, Note_on_c, 0, 64, 0
2, 23472, Note_on_c, 0, 76, 75
2, 23482, Note_on_c, 0, 76, 0
2, 23496, Note_on_c, 0, 76, 75
2, 23506, Note_on_c, 0, 76, 0
2, 23520, Note_on_c, 0, 76, 75
2, 23530, Note_on_c, 0, 76, 0
2, 23544, Note_on_c, 0, 76, 75
2, 23554, Note_on_c, 0, 76, 0
2, 23568, Note_on_c, 0, 76, 75
2, 23578, Note_on_c, 0, 76, 0
2, 23592, Note_on_c, 0, 76, 75
2, 23602, Note_on_c, 0, 76, 0
2, 23616, Note_on_c, 0, 76, 75
2, 23626, Note_on_c, 0, 76, 0
2, 23640, Note_on_c, 0, 76, 75
2, 23650, Note_on_c, 0, 76, 0
2, 23664, Note_on_c, 0, 76, 75
2, 23674, Note_on_c, 0, 76, 0
2, 23688, Note_on_c, 0, 76, 75
2, 23698, Note_on_c, 0, 76, 0
2, 23712, Note_on_c, 0, 76, 75
2, 23722, Note_on_c, 0, 76, 0
2, 23736, Note_on_c, 0, 76, 75
2, 23746, Note_on_c, 0, 76, 0
2, 23760, Note_on_c, 0, 76, 75
2, 23770, Note_on_c, 0, 76, 0
2, 23784, Note_on_c, 0, 76, 75
2, 23794, Note_on_c, 0, 76, 0
2, 23808, Note_on_c, 0, 76, 75
2, 23832, Note_on_c, 0, 76, 0
2, 23832, Note_on_c, 0, 64, 75
2, 23855, Note_on_c, 0, 64, 0
2, 23856, Note_on_c, 0, 76, 75
2, 23866, Note_on_c, 0, 76, 0
2, 23880, Note_on_c, 0, 76, 75
2, 23890, Note_on_c, 0, 76, 0
2, 23904, Note_on_c, 0, 76, 75
2, 23914, Note_on_c, 0, 76, 0
2, 23928, Note_on_c, 0, 76, 75
2, 23938, Note_on_c, 0, 76, 0
2, 23952, Note_on_c, 0, 76, 75
2, 23962, Note_on_c, 0, 76, 0
2, 23976, Note_on_c, 0, 76, 75
2, 23986, Note_on_c, 0, 76, 0
2, 24000, Note_on_c, 0, 76, 75
2, 24010, Note_on_c, 0, 76, 0
2, 24024, Note_on_c, 0, 76, 75
2, 24034, Note_on_c, 0, 76, 0
2, 24048, Note_on_c, 0, 76, 75
2, 24058, Note_on_c, 0, 76, 0
2, 24072, Note_on_c, 0, 76, 75
2, 24082, Note_on_c, 0, 76, 0
2, 24096, Note_on_c, 0, 76, 75
2, 24106, Note_on_c, 0, 76, 0
2, 24120, Note_on_c, 0, 76, 75
2, 24130, Note_on_c, 0, 76, 0
2, 24144, Note_on_c, 0, 76, 75
2, 24154, Note_on_c, 0, 76, 0
2, 24168, Note_on_c, 0, 76, 75
2, 24178, Note_on_c, 0, 76, 0
2, 24192, Note_on_c, 0, 76, 75
2, 24216, Note_on_c, 0, 76, 0
2, 24216, Note_on_c, 0, 64, 75
2, 24239, Note_on_c, 0, 64, 0
2, 24240, Note_on_c, 0, 76, 75
2, 24250, Note_on_c, 0, 76, 0
2, 24264, Note_on_c, 0, 76, 75
2, 24274, Note_on_c, 0, 76, 0
2, 24288, Note_on_c, 0, 76, 75
2, 24312, Note_on_c, 0, 76, 0
2, 24312, Note_on_c, 0, 64, 75
2, 24335, Note_on_c, 0, 64, 0
2, 24336, Note_on_c, 0, 76, 75
2, 24346, Note_on_c, 0, 76, 0
2, 24360, Note_on_c, 0, 76, 75
2, 24370, Note_on_c, 0, 76, 0
2, 24384, Note_on_c, 0, 78, 75
2, 24408, Note_on_c, 0, 78, 0
2, 24408, Note_on_c, 0, 66, 76
2, 24431, Note_on_c, 0, 66, 0
2, 24432, Note_on_c, 0, 78, 76
2, 24442, Note_on_c, 0, 78, 0
2, 24456, Note_on_c, 0, 78, 76
2, 24466, Note_on_c, 0, 78, 0
2, 24480, Note_on_c, 0, 80, 77
2, 24504, Note_on_c, 0, 80, 0
2, 24504, Note_on_c, 0, 68, 77
2, 24527, Note_on_c, 0, 68, 0
2, 24528, Note_on_c, 0, 80, 77
2, 24538, Note_on_c, 0, 80, 0
2, 24552, Note_on_c, 0, 80, 78
2, 24562, Note_on_c, 0, 80, 0
2, 24576, Note_on_c, 0, 81, 78
2, 24600, Note_on_c, 0, 81, 0
2, 24600, Note_on_c, 0, 69, 78
2, 24623, Note_on_c, 0, 69, 0
2, 24624, Note_on_c, 0, 81, 79
2, 24634, Note_on_c, 0, 81, 0
2, 24648, Note_on_c, 0, 81, 79
2, 24658, Note_on_c, 0, 81, 0
2, 24672, Note_on_c, 0, 83, 79
2, 24696, Note_on_c, 0, 83, 0
2, 24696, Note_on_c, 0, 71, 80
2, 24719, Note_on_c, 0, 71, 0
2, 24720, Note_on_c, 0, 83, 80
2, 24730, Note_on_c, 0, 83, 0
2, 24744, Note_on_c, 0, 83, 80
2, 24754, Note_on_c, 0, 83, 0
2, 24768, Note_on_c, 0, 84, 81
2, 24792, Note_on_c, 0, 84, 0
2, 24792, Note_on_c, 0, 72, 81
2, 24815, Note_on_c, 0, 72, 0
2, 24816, Note_on_c, 0, 84, 81
2, 24826, Note_on_c, 0, 84, 0
2, 24840, Note_on_c, 0, 84, 82
2, 24850, Note_on_c, 0, 84, 0
2, 24864, Note_on_c, 0, 84, 82
2, 24888, Note_on_c, 0, 84, 0
2, 24888, Note_on_c, 0, 72, 82
2, 24911, Note_on_c, 0, 72, 0
2, 24912, Note_on_c, 0, 84, 83
2, 24922, Note_on_c, 0, 84, 0
2, 24936, Note_on_c, 0, 84, 83
2, 24946, Note_on_c, 0, 84, 0
2, 24960, Note_on_c, 0, 84, 69
2, 24984, Note_on_c, 0, 84, 0
2, 24984, Note_on_c, 0, 83, 69
2, 25007, Note_on_c, 0, 83, 0
2, 25008, Note_on_c, 0, 83, 69
2, 25032, Note_on_c, 0, 83, 0
2, 25032, Note_on_c, 0, 81, 69
2, 25055, Note_on_c, 0, 81, 0
2, 25056, Note_on_c, 0, 81, 69
2, 25080, Note_on_c, 0, 81, 0
2, 25080, Note_on_c, 0, 79, 69
2, 25103, Note_on_c, 0, 79, 0
2, 25104, Note_on_c, 0, 79, 69
2, 25128, Note_on_c, 0, 79, 0
2, 25128, Note_on_c, 0, 77, 69
2, 25151, Note_on_c, 0, 77, 0
2, 25152, Note_on_c, 0, 77, 69
2, 25167, Note_on_c, 0, 77, 0
2, 25168, Note_on_c, 0, 81, 69
2, 25183, Note_on_c, 0, 81, 0
2, 25184, Note_on_c, 0, 84, 69
2, 25199, Note_on_c, 0, 84, 0
2, 25200, Note_on_c, 0, 77, 69
2, 25215, Note_on_c, 0, 77, 0
2, 25216, Note_on_c, 0, 81, 69
2, 25231, Note_on_c, 0, 81, 0
2, 25232, Note_on_c, 0, 84, 69
2, 25247, Note_on_c, 0, 84, 0
2, 25248, Note_on_c, 0, 77, 69
2, 25268, Note_on_c, 0, 77, 0
2, 25344, Note_on_c, 0, 77, 69
2, 25356, Note_on_c, 0, 77, 0
2, 25356, Note_on_c, 0, 81, 69
2, 25368, Note_on_c, 0, 81, 0
2, 25368, Note_on_c, 0, 84, 69
2, 25392, Note_on_c, 0, 84, 0
2, 25392, Note_on_c, 0, 72, 69
2, 25404, Note_on_c, 0, 72, 0
2, 25404, Note_on_c, 0, 77, 69
2, 25416, Note_on_c, 0, 77, 0
2, 25416, Note_on_c, 0, 81, 69
2, 25440, Note_on_c, 0, 81, 0
2, 25440, Note_on_c, 0, 69, 69
2, 25452, Note_on_c, 0, 69, 0
2, 25452, Note_on_c, 0, 72, 69
2, 25464, Note_on_c, 0, 72, 0
2, 25464, Note_on_c, 0, 77, 69
2, 25488, Note_on_c, 0, 77, 0
2, 25488, Note_on_c, 0, 65, 69
2, 25500, Note_on_c, 0, 65, 0
2, 25500, Note_on_c, 0, 69, 69
2, 25512, Note_on_c, 0, 69, 0
2, 25512, Note_on_c, 0, 72, 69
2, 25536, Note_on_c, 0, 72, 0
2, 25536, Note_on_c, 0, 60, 69
2, 25548, Note_on_c, 0, 60, 0
2, 25548, Note_on_c, 0, 65, 69
2, 25560, Note_on_c, 0, 65, 0
2, 25560, Note_on_c, 0, 69, 69
2, 25584, Note_on_c, 0, 69, 0
2, 25584, Note_on_c, 0, 57, 69
2, 25596, Note_on_c, 0, 57, 0
2, 25596, Note_on_c, 0, 60, 69
2, 25608, Note_on_c, 0, 60, 0
2, 25608, Note_on_c, 0, 65, 69
2, 25632, Note_on_c, 0, 65, 0
2, 25632, Note_on_c, 0, 53, 69
2, 25644, Note_on_c, 0, 53, 0
2, 25644, Note_on_c, 0, 57, 69
2, 25656, Note_on_c, 0, 57, 0
2, 25656, Note_on_c, 0, 60, 69
2, 25680, Note_on_c, 0, 60, 0
2, 25680, Note_on_c, 0, 48, 69
2, 25692, Note_on_c, 0, 48, 0
2, 25692, Note_on_c, 0, 53, 69
2, 25704, Note_on_c, 0, 53, 0
2, 25704, Control_c, 0, 64, 127
2, 25704, Note_on_c, 0, 57, 69
2, 25728, Note_on_c, 0, 57, 0
2, 25752, Note_on_c, 0, 75, 69
2, 25775, Note_on_c, 0, 75, 0
2, 25776, Note_on_c, 0, 63, 69
2, 25799, Note_on_c, 0, 63, 0
2, 25800, Note_on_c, 0, 75, 69
2, 25823, Note_on_c, 0, 75, 0
2, 25824, Note_on_c, 0, 63, 70
2, 25847, Note_on_c, 0, 63, 0
2, 25848, Note_on_c, 0, 75, 70
2, 25871, Note_on_c, 0, 75, 0
2, 25872, Note_on_c, 0, 69, 71
2, 25895, Note_on_c, 0, 69, 0
2, 25896, Note_on_c, 0, 81, 71
2, 25919, Note_on_c, 0, 81, 0
2, 25920, Note_on_c, 0, 72, 71
2, 25943, Note_on_c, 0, 72, 0
2, 25944, Note_on_c, 0, 84, 72
2, 25967, Note_on_c, 0, 84, 0
2, 25968, Note_on_c, 0, 71, 72
2, 25991, Note_on_c, 0, 71, 0
2, 25992, Note_on_c, 0, 83, 73
2, 26015, Note_on_c, 0, 83, 0
2, 26016, Note_on_c, 0, 69, 73
2, 26039, Note_on_c, 0, 69, 0
2, 26040, Note_on_c, 0, 81, 73
2, 26063, Note_on_c, 0, 81, 0
2, 26064, Note_on_c, 0, 63, 74
2, 26087, Note_on_c, 0, 63, 0
2, 26088, Note_on_c, 0, 75, 74
2, 26111, Note_on_c, 0, 75, 0
2, 26112, Control_c, 0, 64, 0
2, 26112, Note_on_c, 0, 64, 75
2, 26124, Note_on_c, 0, 64, 0
2, 26124, Note_on_c, 0, 76, 75
2, 26201, Note_on_c, 0, 76, 0
2, 26256, Note_on_c, 0, 59, 75
2, 26256, Note_on_c, 0, 56, 75
2, 26276, Note_on_c, 0, 59, 0
2, 26276, Note_on_c, 0, 56, 0
2, 26304, Note_on_c, 0, 61, 75
2, 26304, Note_on_c, 0, 57, 75
2, 26324, Note_on_c, 0, 61, 0
2, 26324, Note_on_c, 0, 57, 0
2, 26352, Note_on_c, 0, 59, 75
2, 26352, Note_on_c, 0, 56, 75
2, 26372, Note_on_c, 0, 59, 0
2, 26372, Note_on_c, 0, 56, 0
2, 26400, Note_on_c, 0, 61, 75
2, 26400, Note_on_c, 0, 57, 75
2, 26420, Note_on_c, 0, 61, 0
2, 26420, Note_on_c, 0, 57, 0
2, 26448, Note_on_c, 0, 64, 75
2, 26460, Note_on_c, 0, 64, 0
2, 26460, Note_on_c, 0, 62, 75
2, 26472, Note_on_c, 0, 62, 0
2, 26472, Note_on_c, 0, 61, 75
2, 26484, Note_on_c, 0, 61, 0
2, 26484, Note_on_c, 0, 62, 75
2, 26496, Note_on_c, 0, 62, 0
2, 26496, Note_on_c, 0, 64, 75
2, 26496, Note_on_c, 0, 61, 75
2, 26585, Note_on_c, 0, 64, 0
2, 26585, Note_on_c, 0, 61, 0
2, 26640, Note_on_c, 0, 66, 75
2, 26640, Note_on_c, 0, 62, 75
2, 26660, Note_on_c, 0, 66, 0
2, 26660, Note_on_c, 0, 62, 0
2, 26688, Note_on_c, 0, 68, 75
2, 26688, Note_on_c, 0, 59, 75
2, 26708, Note_on_c, 0, 68, 0
2, 26708, Note_on_c, 0, 59, 0
2, 26736, Note_on_c, 0, 69, 75
2, 26736, Note_on_c, 0, 61, 75
2, 26756, Note_on_c, 0, 69, 0
2, 26756, Note_on_c, 0, 61, 0
2, 26784, Note_on_c, 0, 71, 75
2, 26784, Note_on_c, 0, 68, 75
2, 26804, Note_on_c, 0, 71, 0
2, 26804, Note_on_c, 0, 68, 0
2, 26832, Note_on_c, 0, 74, 75
2, 26844, Note_on_c, 0, 74, 0
2, 26844, Note_on_c, 0, 73, 75
2, 26856, Note_on_c, 0, 73, 0
2, 26856, Note_on_c, 0, 71, 75
2, 26868, Note_on_c, 0, 71, 0
2, 26868, Note_on_c, 0, 73, 75
2, 26880, Note_on_c, 0, 73, 0
2, 26880, Note_on_c, 0, 74, 75
2, 26880, Note_on_c, 0, 71, 75
2, 26969, Note_on_c, 0, 74, 0
2, 26969, Note_on_c, 0, 71, 0
2, 27024, Note_on_c, 0, 71, 75
2, 27024, Note_on_c, 0, 68, 75
2, 27044, Note_on_c, 0, 71, 0
2, 27044, Note_on_c, 0, 68, 0
2, 27072, Note_on_c, 0, 73, 75
2, 27072, Note_on_c, 0, 69, 75
2, 27092, Note_on_c, 0, 73, 0
2, 27092, Note_on_c, 0, 69, 0
2, 27120, Note_on_c, 0, 71, 75
2, 27120, Note_on_c, 0, 68, 75
2, 27140, Note_on_c, 0, 71, 0
2, 27140, Note_on_c, 0, 68, 0
2, 27168, Note_on_c, 0, 73, 75
2, 27168, Note_on_c, 0, 69, 75
2, 27188, Note_on_c, 0, 73, 0
2, 27188, Note_on_c, 0, 69, 0
2, 27216, Note_on_c, 0, 76, 75
2, 27228, Note_on_c, 0, 76, 0
2, 27228, Note_on_c, 0, 74, 75
2, 27240, Note_on_c, 0, 74, 0
2, 27240, Note_on_c, 0, 73, 75
2, 27252, Note_on_c, 0, 73, 0
2, 27252, Note_on_c, 0, 74, 75
2, 27264, Note_on_c, 0, 74, 0
2, 27264, Note_on_c, 0, 76, 75
2, 27264, Note_on_c, 0, 73, 75
2, 27353, Note_on_c, 0, 76, 0
2, 27353, Note_on_c, 0, 73, 0
2, 27408, Note_on_c, 0, 78, 75
2, 27408, Note_on_c, 0, 74, 75
2, 27428, Note_on_c, 0, 78, 0
2, 27428, Note_on_c, 0, 74, 0
2, 27456, Note_on_c, 0, 80, 75
2, 27456, Note_on_c, 0, 71, 75
2, 27476, Note_on_c, 0, 80, 0
2, 27476, Note_on_c, 0, 71, 0
2, 27504, Note_on_c, 0, 81, 75
2, 27504, Note_on_c, 0, 73, 75
2, 27524, Note_on_c, 0, 81, 0
2, 27524, Note_on_c, 0, 73, 0
2, 27552, Note_on_c, 0, 83, 75
2, 27552, Note_on_c, 0, 80, 75
2, 27572, Note_on_c, 0, 83, 0
2, 27572, Note_on_c, 0, 80, 0
2, 27600, Note_on_c, 0, 86, 75
2, 27612, Note_on_c, 0, 86, 0
2, 27612, Note_on_c, 0, 85, 75
2, 27624, Note_on_c, 0, 85, 0
2, 27624, Note_on_c, 0, 83, 75
2, 27636, Note_on_c, 0, 83, 0
2, 27636, Note_on_c, 0, 85, 75
2, 27648, Note_on_c, 0, 85, 0
2, 27648, Note_on_c, 0, 86, 75
2, 27648, Note_on_c, 0, 83, 75
2, 27737, Note_on_c, 0, 86, 0
2, 27737, Note_on_c, 0, 83, 0
2, 27792, Note_on_c, 0, 86, 75
2, 27804, Note_on_c, 0, 86, 0
2, 27804, Note_on_c, 0, 85, 75
2, 27816, Note_on_c, 0, 85, 0
2, 27816, Note_on_c, 0, 83, 75
2, 27828, Note_on_c, 0, 83, 0
2, 27828, Note_on_c, 0, 81, 75
2, 27840, Note_on_c, 0, 81, 0
2, 27840, Note_on_c, 0, 80, 75
2, 27885, Note_on_c, 0, 80, 0
2, 27984, Note_on_c, 0, 83, 75
2, 27996, Note_on_c, 0, 83, 0
2, 27996, Note_on_c, 0, 80, 75
2, 28008, Note_on_c, 0, 80, 0
2, 28008, Note_on_c, 0, 78, 75
2, 28020, Note_on_c, 0, 78, 0
2, 28020, Note_on_c, 0, 76, 75
2, 28032, Note_on_c, 0, 76, 0
2, 28032, Note_on_c, 0, 81, 75
2, 28077, Note_on_c, 0, 81, 0
2, 28176, Note_on_c, 0, 86, 75
2, 28188, Note_on_c, 0, 86, 0
2, 28188, Note_on_c, 0, 85, 75
2, 28200, Note_on_c, 0, 85, 0
2, 28200, Note_on_c, 0, 83, 75
2, 28212, Note_on_c, 0, 83, 0
2, 28212, Note_on_c, 0, 81, 75
2, 28224, Note_on_c, 0, 81, 0
2, 28224, Note_on_c, 0, 80, 75
2, 28269, Note_on_c, 0, 80, 0
2, 28368, Note_on_c, 0, 83, 75
2, 28380, Note_on_c, 0, 83, 0
2, 28380, Note_on_c, 0, 80, 75
2, 28392, Note_on_c, 0, 80, 0
2, 28392, Note_on_c, 0, 78, 75
2, 28404, Note_on_c, 0, 78, 0
2, 28404, Note_on_c, 0, 76, 75
2, 28416, Note_on_c, 0, 76, 0
2, 28416, Note_on_c, 0, 81, 75
2, 28436, Note_on_c, 0, 81, 0
2, 28464, Note_on_c, 0, 85, 75
2, 28476, Note_on_c, 0, 85, 0
2, 28476, Note_on_c, 0, 83, 75
2, 28488, Note_on_c, 0, 83, 0
2, 28488, Note_on_c, 0, 81, 75
2, 28500, Note_on_c, 0, 81, 0
2, 28500, Note_on_c, 0, 80, 75
2, 28512, Note_on_c, 0, 80, 0
2, 28512, Note_on_c, 0, 78, 75
2, 28532, Note_on_c, 0, 78, 0
2, 28560, Note_on_c, 0, 81, 75
2, 28572, Note_on_c, 0, 81, 0
2, 28572, Note_on_c, 0, 80, 75
2, 28584, Note_on_c, 0, 80, 0
2, 28584, Note_on_c, 0, 78, 75
2, 28596, Note_on_c, 0, 78, 0
2, 28596, Note_on_c, 0, 76, 75
2, 28608, Note_on_c, 0, 76, 0
2, 28608, Note_on_c, 0, 74, 75
2, 28628, Note_on_c, 0, 74, 0
2, 28656, Note_on_c, 0, 78, 75
2, 28668, Note_on_c, 0, 78, 0
2, 28668, Note_on_c, 0, 76, 75
2, 28680, Note_on_c, 0, 76, 0
2, 28680, Note_on_c, 0, 74, 75
2, 28692, Note_on_c, 0, 74, 0
2, 28692, Note_on_c, 0, 73, 75
2, 28704, Note_on_c, 0, 73, 0
2, 28704, Note_on_c, 0, 71, 75
2, 28724, Note_on_c, 0, 71, 0
2, 28752, Note_on_c, 0, 78, 75
2, 28764, Note_on_c, 0, 78, 0
2, 28764, Note_on_c, 0, 74, 75
2, 28776, Note_on_c, 0, 74, 0
2, 28776, Note_on_c, 0, 73, 75
2, 28788, Note_on_c, 0, 73, 0
2, 28788, Note_on_c, 0, 71, 75
2, 28800, Note_on_c, 0, 71, 0
2, 28800, Note_on_c, 0, 76, 75
2, 28820, Note_on_c, 0, 76, 0
2, 28848, Note_on_c, 0, 74, 75
2, 28860, Note_on_c, 0, 74, 0
2, 28860, Note_on_c, 0, 73, 75
2, 28872, Note_on_c, 0, 73, 0
2, 28872, Note_on_c, 0, 71, 75
2, 28884, Note_on_c, 0, 71, 0
2, 28884, Note_on_c, 0, 69, 75
2, 28896, Note_on_c, 0, 69, 0
2, 28896, Note_on_c, 0, 71, 75
2, 28905, Note_on_c, 0, 71, 0
2, 28905, Note_on_c, 0, 73, 75
2, 28914, Note_on_c, 0, 73, 0
2, 28914, Note_on_c, 0, 71, 75
2, 28923, Note_on_c, 0, 71, 0
2, 28923, Note_on_c, 0, 73, 75
2, 28932, Note_on_c, 0, 73, 0
2, 28932, Note_on_c, 0, 71, 75
2, 28941, Note_on_c, 0, 71, 0
2, 28941, Note_on_c, 0, 73, 75
2, 28950, Note_on_c, 0, 73, 0
2, 28950, Note_on_c, 0, 71, 75
2, 28959, Note_on_c, 0, 71, 0
2, 28959, Note_on_c, 0, 73, 75
2, 28968, Note_on_c, 0, 73, 0
2, 28968, Note_on_c, 0, 71, 75
2, 28976, Note_on_c, 0, 71, 0
2, 28976, Note_on_c, 0, 69, 75
2, 28984, Note_on_c, 0, 69, 0
2, 28984, Note_on_c, 0, 71, 75
2, 28992, Note_on_c, 0, 71, 0
2, 28992, Note_on_c, 0, 69, 75
2, 29037, Note_on_c, 0, 69, 0
2, 29088, Note_on_c, 0, 76, 75
2, 29100, Note_on_c, 0, 76, 0
2, 29100, Note_on_c, 0, 74, 75
2, 29133, Note_on_c, 0, 74, 0
2, 29136, Note_on_c, 0, 74, 75
2, 29181, Note_on_c, 0, 74, 0
2, 29184, Note_on_c, 0, 73, 75
2, 29229, Note_on_c, 0, 73, 0
2, 29280, Note_on_c, 0, 73, 75
2, 29304, Note_on_c, 0, 73, 0
2, 29304, Note_on_c, 0, 71, 75
2, 29327, Note_on_c, 0, 71, 0
2, 29328, Note_on_c, 0, 71, 75
2, 29364, Note_on_c, 0, 71, 0
2, 29364, Note_on_c, 0, 68, 75
2, 29376, Note_on_c, 0, 68, 0
2, 29376, Note_on_c, 0, 69, 75
2, 29421, Note_on_c, 0, 69, 0
2, 29472, Note_on_c, 0, 74, 75
2, 29487, Note_on_c, 0, 74, 0
2, 29488, Note_on_c, 0, 76, 75
2, 29503, Note_on_c, 0, 76, 0
2, 29504, Note_on_c, 0, 74, 75
2, 29519, Note_on_c, 0, 74, 0
2, 29520, Note_on_c, 0, 78, 75
2, 29535, Note_on_c, 0, 78, 0
2, 29536, Note_on_c, 0, 76, 75
2, 29551, Note_on_c, 0, 76, 0
2, 29552, Note_on_c, 0, 74, 75
2, 29567, Note_on_c, 0, 74, 0
2, 29568, Note_on_c, 0, 73, 75
2, 29613, Note_on_c, 0, 73, 0
2, 29664, Note_on_c, 0, 74, 75
2, 29679, Note_on_c, 0, 74, 0
2, 29680, Note_on_c, 0, 73, 75
2, 29695, Note_on_c, 0, 73, 0
2, 29696, Note_on_c, 0, 71, 75
2, 29711, Note_on_c, 0, 71, 0
2, 29712, Note_on_c, 0, 69, 75
2, 29727, Note_on_c, 0, 69, 0
2, 29728, Note_on_c, 0, 71, 75
2, 29743, Note_on_c, 0, 71, 0
2, 29744, Note_on_c, 0, 68, 75
2, 29759, Note_on_c, 0, 68, 0
2, 29760, Note_on_c, 0, 69, 75
2, 29780, Note_on_c, 0, 69, 0
2, 29808, Note_on_c, 0, 69, 75
2, 29828, Note_on_c, 0, 69, 0
2, 29856, Note_on_c, 0, 71, 75
2, 29876, Note_on_c, 0, 71, 0
2, 29904, Note_on_c, 0, 71, 75
2, 29924, Note_on_c, 0, 71, 0
2, 29952, Note_on_c, 0, 73, 75
2, 29972, Note_on_c, 0, 73, 0
2, 30000, Note_on_c, 0, 73, 75
2, 30020, Note_on_c, 0, 73, 0
2, 30048, Note_on_c, 0, 76, 75
2, 30072, Note_on_c, 0, 76, 0
2, 30072, Note_on_c, 0, 74, 75
2, 30095, Note_on_c, 0, 74, 0
2, 30096, Note_on_c, 0, 71, 75
2, 30120, Note_on_c, 0, 71, 0
2, 30120, Note_on_c, 0, 68, 75
2, 30143, Note_on_c, 0, 68, 0
2, 30144, Note_on_c, 0, 68, 75
2, 30156, Note_on_c, 0, 68, 0
2, 30156, Note_on_c, 0, 69, 75
2, 30189, Note_on_c, 0, 69, 0
2, 30192, Note_on_c, 0, 68, 75
2, 30204, Note_on_c, 0, 68, 0
2, 30204, Note_on_c, 0, 69, 75
2, 30237, Note_on_c, 0, 69, 0
2, 30240, Note_on_c, 0, 70, 75
2, 30252, Note_on_c, 0, 70, 0
2, 30252, Note_on_c, 0, 71, 75
2, 30285, Note_on_c, 0, 71, 0
2, 30288, Note_on_c, 0, 70, 75
2, 30300, Note_on_c, 0, 70, 0
2, 30300, Note_on_c, 0, 71, 75
2, 30333, Note_on_c, 0, 71, 0
2, 30336, Note_on_c, 0, 72, 75
2, 30348, Note_on_c, 0, 72, 0
2, 30348, Note_on_c, 0, 73, 75
2, 30381, Note_on_c, 0, 73, 0
2, 30384, Note_on_c, 0, 72, 75
2, 30396, Note_on_c, 0, 72, 0
2, 30396, Note_on_c, 0, 73, 75
2, 30429, Note_on_c, 0, 73, 0
2, 30432, Note_on_c, 0, 74, 75
2, 30441, Note_on_c, 0, 74, 0
2, 30441, Note_on_c, 0, 76, 75
2, 30450, Note_on_c, 0, 76, 0
2, 30450, Note_on_c, 0, 74, 75
2, 30459, Note_on_c, 0, 74, 0
2, 30459, Note_on_c, 0, 76, 75
2, 30468, Note_on_c, 0, 76, 0
2, 30468, Note_on_c, 0, 74, 75
2, 30477, Note_on_c, 0, 74, 0
2, 30477, Note_on_c, 0, 76, 75
2, 30486, Note_on_c, 0, 76, 0
2, 30486, Note_on_c, 0, 74, 75
2, 30495, Note_on_c, 0, 74, 0
2, 30495, Note_on_c, 0, 76, 75
2, 30504, Note_on_c, 0, 76, 0
2, 30504, Note_on_c, 0, 74, 75
2, 30512, Note_on_c, 0, 74, 0
2, 30512, Note_on_c, 0, 73, 75
2, 30520, Note_on_c, 0, 73, 0
2, 30520, Note_on_c, 0, 74, 75
2, 30528, Note_on_c, 0, 74, 0
2, 30528, Note_on_c, 0, 72, 75
2, 30540, Note_on_c, 0, 72, 0
2, 30540, Note_on_c, 0, 73, 75
2, 30573, Note_on_c, 0, 73, 0
2, 30576, Note_on_c, 0, 72, 75
2, 30588, Note_on_c, 0, 72, 0
2, 30588, Note_on_c, 0, 73, 75
2, 30621, Note_on_c, 0, 73, 0
2, 30624, Note_on_c, 0, 74, 75
2, 30633, Note_on_c, 0, 74, 0
2, 30633, Note_on_c, 0, 76, 75
2, 30642, Note_on_c, 0, 76, 0
2, 30642, Note_on_c, 0, 74, 75
2, 30651, Note_on_c, 0, 74, 0
2, 30651, Note_on_c, 0, 76, 75
2, 30660, Note_on_c, 0, 76, 0
2, 30660, Note_on_c, 0, 74, 75
2, 30669, Note_on_c, 0, 74, 0
2, 30669, Note_on_c, 0, 76, 75
2, 30678, Note_on_c, 0, 76, 0
2, 30678, Note_on_c, 0, 74, 75
2, 30687, Note_on_c, 0, 74, 0
2, 30687, Note_on_c, 0, 76, 75
2, 30696, Note_on_c, 0, 76, 0
2, 30696, Note_on_c, 0, 74, 75
2, 30704, Note_on_c, 0, 74, 0
2, 30704, Note_on_c, 0, 76, 75
2, 30712, Note_on_c, 0, 76, 0
2, 30712, Note_on_c, 0, 74, 75
2, 30720, Note_on_c, 0, 74, 0
2, 30720, Note_on_c, 0, 80, 75
2, 30735, Note_on_c, 0, 80, 0
2, 30736, Note_on_c, 0, 81, 75
2, 30751, Note_on_c, 0, 81, 0
2, 30752, Note_on_c, 0, 85, 75
2, 30767, Note_on_c, 0, 85, 0
2, 30768, Note_on_c, 0, 80, 75
2, 30783, Note_on_c, 0, 80, 0
2, 30784, Note_on_c, 0, 81, 75
2, 30799, Note_on_c, 0, 81, 0
2, 30800, Note_on_c, 0, 85, 75
2, 30815, Note_on_c, 0, 85, 0
2, 30816, Note_on_c, 0, 77, 75
2, 30831, Note_on_c, 0, 77, 0
2, 30832, Note_on_c, 0, 78, 75
2, 30847, Note_on_c, 0, 78, 0
2, 30848, Note_on_c, 0, 81, 75
2, 30863, Note_on_c, 0, 81, 0
2, 30864, Note_on_c, 0, 77, 75
2, 30879, Note_on_c, 0, 77, 0
2, 30880, Note_on_c, 0, 78, 75
2, 30895, Note_on_c, 0, 78, 0
2, 30896, Note_on_c, 0, 81, 75
2, 30911, Note_on_c, 0, 81, 0
2, 30912, Note_on_c, 0, 73, 75
2, 30927, Note_on_c, 0, 73, 0
2, 30928, Note_on_c, 0, 74, 75
2, 30943, Note_on_c, 0, 74, 0
2, 30944, Note_on_c, 0, 78, 75
2, 30959, Note_on_c, 0, 78, 0
2, 30960, Note_on_c, 0, 73, 75
2, 30975, Note_on_c, 0, 73, 0
2, 30976, Note_on_c, 0, 74, 75
2, 30991, Note_on_c, 0, 74, 0
2, 30992, Note_on_c, 0, 78, 75
2, 31007, Note_on_c, 0, 78, 0
2, 31008, Note_on_c, 0, 70, 75
2, 31023, Note_on_c, 0, 70, 0
2, 31024, Note_on_c, 0, 71, 75
2, 31039, Note_on_c, 0, 71, 0
2, 31040, Note_on_c, 0, 74, 75
2, 31055, Note_on_c, 0, 74, 0
2, 31056, Note_on_c, 0, 70, 75
2, 31071, Note_on_c, 0, 70, 0
2, 31072, Note_on_c, 0, 71, 75
2, 31087, Note_on_c, 0, 71, 0
2, 31088, Note_on_c, 0, 74, 75
2, 31103, Note_on_c, 0, 74, 0
2, 31104, Note_on_c, 0, 64, 75
2, 31193, Note_on_c, 0, 64, 0
2, 31200, Note_on_c, 0, 71, 75
2, 31209, Note_on_c, 0, 71, 0
2, 31209, Note_on_c, 0, 73, 75
2, 31218, Note_on_c, 0, 73, 0
2, 31218, Note_on_c, 0, 71, 75
2, 31227, Note_on_c, 0, 71, 0
2, 31227, Note_on_c, 0, 73, 75
2, 31236, Note_on_c, 0, 73, 0
2, 31236, Note_on_c, 0, 71, 75
2, 31245, Note_on_c, 0, 71, 0
2, 31245, Note_on_c, 0, 73, 75
2, 31254, Note_on_c, 0, 73, 0
2, 31254, Note_on_c, 0, 71, 75
2, 31263, Note_on_c, 0, 71, 0
2, 31263, Note_on_c, 0, 73, 75
2, 31272, Note_on_c, 0, 73, 0
2, 31272, Note_on_c, 0, 71, 75
2, 31280, Note_on_c, 0, 71, 0
2, 31280, Note_on_c, 0, 73, 75
2, 31288, Note_on_c, 0, 73, 0
2, 31288, Note_on_c, 0, 71, 75
2, 31296, Note_on_c, 0, 71, 0
2, 31296, Note_on_c, 0, 80, 75
2, 31311, Note_on_c, 0, 80, 0
2, 31312, Note_on_c, 0, 81, 75
2, 31327, Note_on_c, 0, 81, 0
2, 31328, Note_on_c, 0, 85, 75
2, 31343, Note_on_c, 0, 85, 0
2, 31344, Note_on_c, 0, 80, 75
2, 31359, Note_on_c, 0, 80, 0
2, 31360, Note_on_c, 0, 81, 75
2, 31375, Note_on_c, 0, 81, 0
2, 31376, Note_on_c, 0, 85, 75
2, 31391, Note_on_c, 0, 85, 0
2, 31392, Note_on_c, 0, 77, 75
2, 31407, Note_on_c, 0, 77, 0
2, 31408, Note_on_c, 0, 78, 75
2, 31423, Note_on_c, 0, 78, 0
2, 31424, Note_on_c, 0, 81, 75
2, 31439, Note_on_c, 0, 81, 0
2, 31440, Note_on_c, 0, 77, 75
2, 31455, Note_on_c, 0, 77, 0
2, 31456, Note_on_c, 0, 78, 75
2, 31471, Note_on_c, 0, 78, 0
2, 31472, Note_on_c, 0, 81, 75
2, 31487, Note_on_c, 0, 81, 0
2, 31488, Note_on_c, 0, 73, 75
2, 31503, Note_on_c, 0, 73, 0
2, 31504, Note_on_c, 0, 74, 75
2, 31519, Note_on_c, 0, 74, 0
2, 31520, Note_on_c, 0, 78, 75
2, 31535, Note_on_c, 0, 78, 0
2, 31536, Note_on_c, 0, 73, 75
2, 31551, Note_on_c, 0, 73, 0
2, 31552, Note_on_c, 0, 74, 75
2, 31567, Note_on_c, 0, 74, 0
2, 31568, Note_on_c, 0, 78, 75
2, 31583, Note_on_c, 0, 78, 0
2, 31584, Note_on_c, 0, 70, 75
2, 31599, Note_on_c, 0, 70, 0
2, 31600, Note_on_c, 0, 71, 75
2, 31615, Note_on_c, 0, 71, 0
2, 31616, Note_on_c, 0, 74, 75
2, 31631, Note_on_c, 0, 74, 0
2, 31632, Note_on_c, 0, 70, 75
2, 31647, Note_on_c, 0, 70, 0
2, 31648, Note_on_c, 0, 71, 75
2, 31663, Note_on_c, 0, 71, 0
2, 31664, Note_on_c, 0, 74, 75
2, 31679, Note_on_c, 0, 74, 0
2, 31680, Note_on_c, 0, 64, 75
2, 31769, Note_on_c, 0, 64, 0
2, 31776, Note_on_c, 0, 71, 75
2, 31785, Note_on_c, 0, 71, 0
2, 31785, Note_on_c, 0, 73, 75
2, 31794, Note_on_c, 0, 73, 0
2, 31794, Note_on_c, 0, 71, 75
2, 31803, Note_on_c, 0, 71, 0
2, 31803, Note_on_c, 0, 73, 75
2, 31812, Note_on_c, 0, 73, 0
2, 31812, Note_on_c, 0, 71, 75
2, 31821, Note_on_c, 0, 71, 0
2, 31821, Note_on_c, 0, 73, 75
2, 31830, Note_on_c, 0, 73, 0
2, 31830, Note_on_c, 0, 71, 75
2, 31839, Note_on_c, 0, 71, 0
2, 31839, Note_on_c, 0, 73, 75
2, 31848, Note_on_c, 0, 73, 0
2, 31848, Note_on_c, 0, 71, 75
2, 31856, Note_on_c, 0, 71, 0
2, 31856, Note_on_c, 0, 69, 75
2, 31864, Note_on_c, 0, 69, 0
2, 31864, Note_on_c, 0, 71, 75
2, 31872, Note_on_c, 0, 71, 0
2, 31872, Note_on_c, 0, 69, 75
2, 31917, Note_on_c, 0, 69, 0
2, 31968, Note_on_c, 0, 76, 69
2, 31992, Note_on_c, 0, 76, 0
2, 31992, Note_on_c, 0, 74, 69
2, 32015, Note_on_c, 0, 74, 0
2, 32016, Note_on_c, 0, 71, 69
2, 32050, Note_on_c, 0, 71, 0
2, 32052, Note_on_c, 0, 68, 69
2, 32064, Note_on_c, 0, 68, 0
2, 32064, Note_on_c, 0, 69, 69
2, 32109, Note_on_c, 0, 69, 0
2, 32160, Note_on_c, 0, 76, 61
2, 32184, Note_on_c, 0, 76, 0
2, 32184, Note_on_c, 0, 74, 61
2, 32207, Note_on_c, 0, 74, 0
2, 32208, Note_on_c, 0, 71, 61
2, 32242, Note_on_c, 0, 71, 0
2, 32244, Note_on_c, 0, 68, 61
2, 32256, Note_on_c, 0, 68, 0
2, 32256, Note_on_c, 0, 69, 61
2, 32345, Note_on_c, 0, 69, 0
2, 32352, Note_on_c, 0, 33, 75
2, 32419, Note_on_c, 0, 33, 0
2, 32424, Note_on_c, 0, 33, 75
2, 32447, Note_on_c, 0, 33, 0
2, 32448, Control_c, 0, 64, 127
2, 32448, Note_on_c, 0, 33, 75
2, 32537, Note_on_c, 0, 33, 0
2, 32544, Control_c, 0, 64, 0
2, 32628, Note_on_c, 0, 64, 75
2, 32640, Note_on_c, 0, 64, 0
2, 32640, Note_on_c, 0, 73, 75
2, 32770, Note_on_c, 0, 73, 0
2, 32772, Note_on_c, 0, 64, 80
2, 32784, Note_on_c, 0, 64, 0
2, 32784, Note_on_c, 0, 74, 80
2, 32818, Note_on_c, 0, 74, 0
2, 32820, Note_on_c, 0, 64, 82
2, 32832, Note_on_c, 0, 64, 0
2, 32832, Note_on_c, 0, 73, 82
2, 32866, Note_on_c, 0, 73, 0
2, 32868, Note_on_c, 0, 64, 84
2, 32880, Note_on_c, 0, 64, 0
2, 32880, Note_on_c, 0, 71, 83
2, 32914, Note_on_c, 0, 71, 0
2, 32916, Note_on_c, 0, 64, 81
2, 32928, Note_on_c, 0, 64, 0
2, 32928, Note_on_c, 0, 69, 80
2, 32962, Note_on_c, 0, 69, 0
2, 32964, Note_on_c, 0, 64, 78
2, 32976, Note_on_c, 0, 64, 0
2, 32976, Note_on_c, 0, 71, 77
2, 33010, Note_on_c, 0, 71, 0
2, 33012, Note_on_c, 0, 64, 75
2, 33024, Note_on_c, 0, 64, 0
2, 33024, Note_on_c, 0, 73, 75
2, 33154, Note_on_c, 0, 73, 0
2, 33156, Note_on_c, 0, 64, 80
2, 33168, Note_on_c, 0, 64, 0
2, 33168, Note_on_c, 0, 74, 80
2, 33202, Note_on_c, 0, 74, 0
2, 33204, Note_on_c, 0, 64, 82
2, 33216, Note_on_c, 0, 64, 0
2, 33216, Note_on_c, 0, 73, 82
2, 33250, Note_on_c, 0, 73, 0
2, 33252, Note_on_c, 0, 64, 84
2, 33264, Note_on_c, 0, 64, 0
2, 33264, Note_on_c, 0, 71, 83
2, 33298, Note_on_c, 0, 71, 0
2, 33300, Note_on_c, 0, 64, 81
2, 33312, Note_on_c, 0, 64, 0
2, 33312, Note_on_c, 0, 69, 80
2, 33346, Note_on_c, 0, 69, 0
2, 33348, Note_on_c, 0, 64, 78
2, 33360, Note_on_c, 0, 64, 0
2, 33360, Note_on_c, 0, 71, 77
2, 33394, Note_on_c, 0, 71, 0
2, 33396, Note_on_c, 0, 64, 75
2, 33408, Note_on_c, 0, 64, 0
2, 33408, Note_on_c, 0, 73, 75
2, 33442, Note_on_c, 0, 73, 0
2, 33444, Note_on_c, 0, 64, 77
2, 33456, Note_on_c, 0, 64, 0
2, 33456, Note_on_c, 0, 74, 78
2, 33490, Note_on_c, 0, 74, 0
2, 33492, Note_on_c, 0, 64, 80
2, 33504, Note_on_c, 0, 64, 0
2, 33504, Note_on_c, 0, 76, 81
2, 33524, Note_on_c, 0, 76, 0
2, 33600, Note_on_c, 0, 73, 75
2, 33615, Note_on_c, 0, 73, 0
2, 33616, Note_on_c, 0, 69, 75
2, 33631, Note_on_c, 0, 69, 0
2, 33632, Note_on_c, 0, 64, 76
2, 33647, Note_on_c, 0, 64, 0
2, 33648, Note_on_c, 0, 74, 77
2, 33663, Note_on_c, 0, 74, 0
2, 33664, Note_on_c, 0, 71, 78
2, 33679, Note_on_c, 0, 71, 0
2, 33680, Note_on_c, 0, 64, 78
2, 33695, Note_on_c, 0, 64, 0
2, 33696, Note_on_c, 0, 76, 79
2, 33716, Note_on_c, 0, 76, 0
2, 33792, Note_on_c, 0, 83, 75
2, 33804, Note_on_c, 0, 83, 0
2, 33804, Note_on_c, 0, 81, 75
2, 33816, Note_on_c, 0, 81, 0
2, 33816, Note_on_c, 0, 80, 75
2, 33828, Note_on_c, 0, 80, 0
2, 33828, Note_on_c, 0, 81, 75
2, 33925, Note_on_c, 0, 81, 0
2, 33936, Note_on_c, 0, 69, 75
2, 33981, Note_on_c, 0, 69, 0
2, 33984, Note_on_c, 0, 70, 75
2, 34032, Note_on_c, 0, 70, 0
2, 34032, Note_on_c, 0, 71, 75
2, 34165, Note_on_c, 0, 71, 0
2, 34176, Note_on_c, 0, 86, 75
2, 34320, Note_on_c, 0, 86, 0
2, 34320, Note_on_c, 0, 74, 75
2, 34365, Note_on_c, 0, 74, 0
2, 34368, Note_on_c, 0, 73, 75
2, 34380, Note_on_c, 0, 73, 0
2, 34380, Note_on_c, 0, 71, 75
2, 34392, Note_on_c, 0, 71, 0
2, 34392, Note_on_c, 0, 69, 75
2, 34404, Note_on_c, 0, 69, 0
2, 34404, Note_on_c, 0, 71, 75
2, 34416, Note_on_c, 0, 71, 0
2, 34416, Note_on_c, 0, 69, 75
2, 34436, Note_on_c, 0, 69, 0
2, 34560, Note_on_c, 0, 81, 75
2, 34584, Note_on_c, 0, 81, 0
2, 34584, Note_on_c, 0, 69, 75
2, 34607, Note_on_c, 0, 69, 0
2, 34608, Note_on_c, 0, 81, 75
2, 34618, Note_on_c, 0, 81, 0
2, 34632, Note_on_c, 0, 81, 75
2, 34642, Note_on_c, 0, 81, 0
2, 34656, Note_on_c, 0, 81, 75
2, 34666, Note_on_c, 0, 81, 0
2, 34680, Note_on_c, 0, 81, 75
2, 34690, Note_on_c, 0, 81, 0
2, 34704, Note_on_c, 0, 81, 75
2, 34714, Note_on_c, 0, 81, 0
2, 34728, Note_on_c, 0, 81, 75
2, 34738, Note_on_c, 0, 81, 0
2, 34752, Note_on_c, 0, 81, 75
2, 34775, Note_on_c, 0, 81, 0
2, 34776, Note_on_c, 0, 69, 75
2, 34799, Note_on_c, 0, 69, 0
2, 34800, Note_on_c, 0, 79, 75
2, 34823, Note_on_c, 0, 79, 0
2, 34824, Note_on_c, 0, 67, 75
2, 34847, Note_on_c, 0, 67, 0
2, 34848, Note_on_c, 0, 78, 75
2, 34871, Note_on_c, 0, 78, 0
2, 34872, Note_on_c, 0, 66, 75
2, 34895, Note_on_c, 0, 66, 0
2, 34896, Note_on_c, 0, 76, 75
2, 34919, Note_on_c, 0, 76, 0
2, 34920, Note_on_c, 0, 64, 75
2, 34943, Note_on_c, 0, 64, 0
2, 34944, Note_on_c, 0, 75, 75
2, 35033, Note_on_c, 0, 75, 0
2, 35088, Note_on_c, 0, 66, 75
2, 35088, Note_on_c, 0, 63, 75
2, 35108, Note_on_c, 0, 66, 0
2, 35108, Note_on_c, 0, 63, 0
2, 35136, Note_on_c, 0, 67, 75
2, 35136, Note_on_c, 0, 64, 75
2, 35156, Note_on_c, 0, 67, 0
2, 35156, Note_on_c, 0, 64, 0
2, 35184, Note_on_c, 0, 66, 75
2, 35184, Note_on_c, 0, 63, 75
2, 35204, Note_on_c, 0, 66, 0
2, 35204, Note_on_c, 0, 63, 0
2, 35232, Note_on_c, 0, 67, 75
2, 35232, Note_on_c, 0, 64, 75
2, 35252, Note_on_c, 0, 67, 0
2, 35252, Note_on_c, 0, 64, 0
2, 35280, Note_on_c, 0, 71, 75
2, 35292, Note_on_c, 0, 71, 0
2, 35292, Note_on_c, 0, 69, 75
2, 35304, Note_on_c, 0, 69, 0
2, 35304, Note_on_c, 0, 67, 75
2, 35316, Note_on_c, 0, 67, 0
2, 35316, Note_on_c, 0, 69, 75
2, 35328, Note_on_c, 0, 69, 0
2, 35328, Note_on_c, 0, 71, 75
2, 35328, Note_on_c, 0, 67, 75
2, 35417, Note_on_c, 0, 71, 0
2, 35417, Note_on_c, 0, 67, 0
2, 35472, Note_on_c, 0, 83, 75
2, 35492, Note_on_c, 0, 83, 0
2, 35520, Note_on_c, 0, 81, 75
2, 35540, Note_on_c, 0, 81, 0
2, 35568, Note_on_c, 0, 79, 75
2, 35588, Note_on_c, 0, 79, 0
2, 35616, Note_on_c, 0, 78, 75
2, 35636, Note_on_c, 0, 78, 0
2, 35664, Note_on_c, 0, 76, 75
2, 35684, Note_on_c, 0, 76, 0
2, 35712, Note_on_c, 0, 75, 75
2, 35712, Note_on_c, 0, 71, 75
2, 35801, Note_on_c, 0, 75, 0
2, 35801, Note_on_c, 0, 71, 0
2, 35856, Note_on_c, 0, 66, 75
2, 35856, Note_on_c, 0, 63, 75
2, 35876, Note_on_c, 0, 66, 0
2, 35876, Note_on_c, 0, 63, 0
2, 35904, Note_on_c, 0, 67, 75
2, 35904, Note_on_c, 0, 64, 75
2, 35924, Note_on_c, 0, 67, 0
2, 35924, Note_on_c, 0, 64, 0
2, 35952, Note_on_c, 0, 66, 75
2, 35952, Note_on_c, 0, 63, 75
2, 35972, Note_on_c, 0, 66, 0
2, 35972, Note_on_c, 0, 63, 0
2, 36000, Note_on_c, 0, 67, 75
2, 36000, Note_on_c, 0, 64, 75
2, 36020, Note_on_c, 0, 67, 0
2, 36020, Note_on_c, 0, 64, 0
2, 36048, Note_on_c, 0, 71, 75
2, 36060, Note_on_c, 0, 71, 0
2, 36060, Note_on_c, 0, 69, 75
2, 36072, Note_on_c, 0, 69, 0
2, 36072, Note_on_c, 0, 67, 75
2, 36084, Note_on_c, 0, 67, 0
2, 36084, Note_on_c, 0, 69, 75
2, 36096, Note_on_c, 0, 69, 0
2, 36096, Note_on_c, 0, 71, 75
2, 36096, Note_on_c, 0, 67, 75
2, 36185, Note_on_c, 0, 71, 0
2, 36185, Note_on_c, 0, 67, 0
2, 36240, Note_on_c, 0, 83, 75
2, 36260, Note_on_c, 0, 83, 0
2, 36288, Note_on_c, 0, 81, 75
2, 36308, Note_on_c, 0, 81, 0
2, 36336, Note_on_c, 0, 79, 75
2, 36356, Note_on_c, 0, 79, 0
2, 36384, Note_on_c, 0, 78, 75
2, 36404, Note_on_c, 0, 78, 0
2, 36432, Note_on_c, 0, 76, 75
2, 36452, Note_on_c, 0, 76, 0
2, 36480, Note_on_c, 0, 75, 75
2, 36480, Note_on_c, 0, 71, 75
2, 36569, Note_on_c, 0, 75, 0
2, 36569, Note_on_c, 0, 71, 0
2, 36672, Note_on_c, 0, 72, 75
2, 36695, Note_on_c, 0, 72, 0
2, 36696, Note_on_c, 0, 60, 75
2, 36719, Note_on_c, 0, 60, 0
2, 36720, Note_on_c, 0, 72, 75
2, 36730, Note_on_c, 0, 72, 0
2, 36744, Note_on_c, 0, 72, 75
2, 36768, Note_on_c, 0, 72, 0
2, 36768, Note_on_c, 0, 75, 75
2, 36791, Note_on_c, 0, 75, 0
2, 36792, Note_on_c, 0, 63, 75
2, 36815, Note_on_c, 0, 63, 0
2, 36816, Note_on_c, 0, 75, 75
2, 36826, Note_on_c, 0, 75, 0
2, 36840, Note_on_c, 0, 75, 75
2, 36864, Note_on_c, 0, 75, 0
2, 36864, Note_on_c, 0, 76, 75
2, 36887, Note_on_c, 0, 76, 0
2, 36888, Note_on_c, 0, 64, 75
2, 36911, Note_on_c, 0, 64, 0
2, 36912, Note_on_c, 0, 76, 75
2, 36922, Note_on_c, 0, 76, 0
2, 36936, Note_on_c, 0, 76, 75
2, 36960, Note_on_c, 0, 76, 0
2, 36960, Note_on_c, 0, 78, 75
2, 36983, Note_on_c, 0, 78, 0
2, 36984, Note_on_c, 0, 66, 75
2, 37007, Note_on_c, 0, 66, 0
2, 37008, Note_on_c, 0, 78, 76
2, 37018, Note_on_c, 0, 78, 0
2, 37032, Note_on_c, 0, 78, 76
2, 37056, Note_on_c, 0, 78, 0
2, 37056, Note_on_c, 0, 79, 77
2, 37079, Note_on_c, 0, 79, 0
2, 37080, Note_on_c, 0, 67, 78
2, 37103, Note_on_c, 0, 67, 0
2, 37104, Note_on_c, 0, 79, 78
2, 37114, Note_on_c, 0, 79, 0
2, 37128, Note_on_c, 0, 79, 79
2, 37152, Note_on_c, 0, 79, 0
2, 37152, Note_on_c, 0, 82, 80
2, 37175, Note_on_c, 0, 82, 0
2, 37176, Note_on_c, 0, 70, 80
2, 37199, Note_on_c, 0, 70, 0
2, 37200, Note_on_c, 0, 82, 81
2, 37210, Note_on_c, 0, 82, 0
2, 37224, Note_on_c, 0, 82, 82
2, 37248, Note_on_c, 0, 82, 0
2, 37248, Note_on_c, 0, 83, 82
2, 37271, Note_on_c, 0, 83, 0
2, 37272, Note_on_c, 0, 71, 83
2, 37295, Note_on_c, 0, 71, 0
2, 37296, Note_on_c, 0, 83, 84
2, 37306, Note_on_c, 0, 83, 0
2, 37320, Note_on_c, 0, 83, 84
2, 37344, Note_on_c, 0, 83, 0
2, 37344, Note_on_c, 0, 85, 85
2, 37367, Note_on_c, 0, 85, 0
2, 37368, Note_on_c, 0, 73, 86
2, 37391, Note_on_c, 0, 73, 0
2, 37392, Note_on_c, 0, 85, 86
2, 37402, Note_on_c, 0, 85, 0
2, 37416, Note_on_c, 0, 85, 87
2, 37440, Note_on_c, 0, 85, 0
2, 37440, Note_on_c, 0, 86, 88
2, 37463, Note_on_c, 0, 86, 0
2, 37464, Note_on_c, 0, 74, 88
2, 37487, Note_on_c, 0, 74, 0
2, 37488, Note_on_c, 0, 83, 89
2, 37511, Note_on_c, 0, 83, 0
2, 37512, Note_on_c, 0, 83, 90
2, 37535, Note_on_c, 0, 83, 0
2, 37536, Note_on_c, 0, 83, 90
2, 37559, Note_on_c, 0, 83, 0
2, 37560, Note_on_c, 0, 74, 90
2, 37583, Note_on_c, 0, 74, 0
2, 37584, Note_on_c, 0, 83, 90
2, 37607, Note_on_c, 0, 83, 0
2, 37608, Note_on_c, 0, 83, 90
2, 37631, Note_on_c, 0, 83, 0
2, 37632, Note_on_c, 0, 83, 90
2, 37655, Note_on_c, 0, 83, 0
2, 37656, Note_on_c, 0, 71, 90
2, 37679, Note_on_c, 0, 71, 0
2, 37680, Note_on_c, 0, 83, 90
2, 37703, Note_on_c, 0, 83, 0
2, 37704, Note_on_c, 0, 83, 90
2, 37727, Note_on_c, 0, 83, 0
2, 37728, Note_on_c, 0, 83, 90
2, 37751, Note_on_c, 0, 83, 0
2, 37752, Note_on_c, 0, 71, 90
2, 37775, Note_on_c, 0, 71, 0
2, 37776, Note_on_c, 0, 83, 90
2, 37799, Note_on_c, 0, 83, 0
2, 37800, Note_on_c, 0, 83, 90
2, 37823, Note_on_c, 0, 83, 0
2, 37824, Note_on_c, 0, 82, 90
2, 37839, Note_on_c, 0, 82, 0
2, 37840, Note_on_c, 0, 83, 90
2, 37855, Note_on_c, 0, 83, 0
2, 37856, Note_on_c, 0, 86, 90
2, 37871, Note_on_c, 0, 86, 0
2, 37872, Note_on_c, 0, 82, 90
2, 37887, Note_on_c, 0, 82, 0
2, 37888, Note_on_c, 0, 83, 90
2, 37903, Note_on_c, 0, 83, 0
2, 37904, Note_on_c, 0, 86, 90
2, 37919, Note_on_c, 0, 86, 0
2, 37920, Note_on_c, 0, 77, 90
2, 37935, Note_on_c, 0, 77, 0
2, 37936, Note_on_c, 0, 78, 90
2, 37951, Note_on_c, 0, 78, 0
2, 37952, Note_on_c, 0, 83, 90
2, 37967, Note_on_c, 0, 83, 0
2, 37968, Note_on_c, 0, 77, 90
2, 37983, Note_on_c, 0, 77, 0
2, 37984, Note_on_c, 0, 78, 90
2, 37999, Note_on_c, 0, 78, 0
2, 38000, Note_on_c, 0, 83, 90
2, 38015, Note_on_c, 0, 83, 0
2, 38016, Note_on_c, 0, 73, 90
2, 38031, Note_on_c, 0, 73, 0
2, 38032, Note_on_c, 0, 74, 89
2, 38047, Note_on_c, 0, 74, 0
2, 38048, Note_on_c, 0, 78, 88
2, 38063, Note_on_c, 0, 78, 0
2, 38064, Note_on_c, 0, 73, 88
2, 38079, Note_on_c, 0, 73, 0
2, 38080, Note_on_c, 0, 74, 87
2, 38095, Note_on_c, 0, 74, 0
2, 38096, Note_on_c, 0, 78, 86
2, 38111, Note_on_c, 0, 78, 0
2, 38112, Note_on_c, 0, 70, 86
2, 38127, Note_on_c, 0, 70, 0
2, 38128, Note_on_c, 0, 71, 85
2, 38143, Note_on_c, 0, 71, 0
2, 38144, Note_on_c, 0, 74, 85
2, 38159, Note_on_c, 0, 74, 0
2, 38160, Note_on_c, 0, 70, 84
2, 38175, Note_on_c, 0, 70, 0
2, 38176, Note_on_c, 0, 71, 83
2, 38191, Note_on_c, 0, 71, 0
2, 38192, Note_on_c, 0, 74, 83
2, 38207, Note_on_c, 0, 74, 0
2, 38208, Note_on_c, 0, 65, 82
2, 38327, Note_on_c, 0, 65, 0
2, 38328, Note_on_c, 0, 70, 75
2, 38351, Note_on_c, 0, 70, 0
2, 38352, Note_on_c, 0, 71, 75
2, 38375, Note_on_c, 0, 71, 0
2, 38376, Note_on_c, 0, 74, 75
2, 38399, Note_on_c, 0, 74, 0
2, 38400, Note_on_c, 0, 65, 75
2, 38519, Note_on_c, 0, 65, 0
2, 38520, Note_on_c, 0, 70, 75
2, 38543, Note_on_c, 0, 70, 0
2, 38544, Note_on_c, 0, 71, 75
2, 38567, Note_on_c, 0, 71, 0
2, 38568, Note_on_c, 0, 74, 75
2, 38591, Note_on_c, 0, 74, 0
2, 38592, Note_on_c, 0, 64, 75
2, 38711, Note_on_c, 0, 64, 0
2, 38712, Note_on_c, 0, 73, 75
2, 38735, Note_on_c, 0, 73, 0
2, 38736, Note_on_c, 0, 70, 75
2, 38759, Note_on_c, 0, 70, 0
2, 38760, Note_on_c, 0, 64, 75
2, 38783, Note_on_c, 0, 64, 0
2, 38784, Note_on_c, 0, 62, 75
2, 38903, Note_on_c, 0, 62, 0
2, 38904, Note_on_c, 0, 78, 75
2, 38927, Note_on_c, 0, 78, 0
2, 38928, Note_on_c, 0, 74, 75
2, 38951, Note_on_c, 0, 74, 0
2, 38952, Note_on_c, 0, 71, 75
2, 38975, Note_on_c, 0, 71, 0
2, 38976, Note_on_c, 0, 71, 75
2, 39072, Note_on_c, 0, 71, 0
2, 39072, Note_on_c, 0, 70, 75
2, 39095, Note_on_c, 0, 70, 0
2, 39096, Note_on_c, 0, 78, 75
2, 39119, Note_on_c, 0, 78, 0
2, 39120, Note_on_c, 0, 73, 75
2, 39143, Note_on_c, 0, 73, 0
2, 39144, Note_on_c, 0, 70, 75
2, 39167, Note_on_c, 0, 70, 0
2, 39168, Note_on_c, 0, 73, 75
2, 39264, Note_on_c, 0, 73, 0
2, 39264, Note_on_c, 0, 71, 75
2, 39287, Note_on_c, 0, 71, 0
2, 39288, Note_on_c, 0, 78, 75
2, 39311, Note_on_c, 0, 78, 0
2, 39312, Note_on_c, 0, 71, 75
2, 39335, Note_on_c, 0, 71, 0
2, 39336, Note_on_c, 0, 69, 75
2, 39359, Note_on_c, 0, 69, 0
2, 39360, Note_on_c, 0, 69, 75
2, 39456, Note_on_c, 0, 69, 0
2, 39456, Note_on_c, 0, 67, 75
2, 39479, Note_on_c, 0, 67, 0
2, 39480, Note_on_c, 0, 83, 75
2, 39503, Note_on_c, 0, 83, 0
2, 39504, Note_on_c, 0, 79, 75
2, 39527, Note_on_c, 0, 79, 0
2, 39528, Note_on_c, 0, 76, 75
2, 39551, Note_on_c, 0, 76, 0
2, 39552, Note_on_c, 0, 74, 75
2, 39648, Note_on_c, 0, 74, 0
2, 39648, Note_on_c, 0, 73, 75
2, 39671, Note_on_c, 0, 73, 0
2, 39672, Note_on_c, 0, 76, 75
2, 39695, Note_on_c, 0, 76, 0
2, 39696, Note_on_c, 0, 73, 75
2, 39719, Note_on_c, 0, 73, 0
2, 39720, Note_on_c, 0, 69, 75
2, 39743, Note_on_c, 0, 69, 0
2, 39744, Note_on_c, 0, 67, 75
2, 39840, Note_on_c, 0, 67, 0
2, 39840, Note_on_c, 0, 66, 75
2, 39850, Note_on_c, 0, 66, 0
2, 39864, Note_on_c, 0, 74, 75
2, 39864, Note_on_c, 0, 66, 75
2, 39874, Note_on_c, 0, 74, 0
2, 39874, Note_on_c, 0, 66, 0
2, 39888, Note_on_c, 0, 74, 75
2, 39888, Note_on_c, 0, 66, 75
2, 39898, Note_on_c, 0, 74, 0
2, 39898, Note_on_c, 0, 66, 0
2, 39912, Note_on_c, 0, 74, 75
2, 39912, Note_on_c, 0, 66, 75
2, 39922, Note_on_c, 0, 74, 0
2, 39922, Note_on_c, 0, 66, 0
2, 39936, Note_on_c, 0, 76, 75
2, 39936, Note_on_c, 0, 67, 75
2, 40003, Note_on_c, 0, 76, 0
2, 40003, Note_on_c, 0, 67, 0
2, 40008, Note_on_c, 0, 76, 77
2, 40008, Note_on_c, 0, 67, 77
2, 40031, Note_on_c, 0, 76, 0
2, 40031, Note_on_c, 0, 67, 0
2, 40032, Note_on_c, 0, 78, 78
2, 40032, Note_on_c, 0, 69, 78
2, 40099, Note_on_c, 0, 78, 0
2, 40099, Note_on_c, 0, 69, 0
2, 40104, Note_on_c, 0, 78, 80
2, 40104, Note_on_c, 0, 74, 80
2, 40104, Note_on_c, 0, 69, 80
2, 40127, Note_on_c, 0, 78, 0
2, 40127, Note_on_c, 0, 74, 0
2, 40127, Note_on_c, 0, 69, 0
2, 40128, Note_on_c, 0, 79, 81
2, 40128, Note_on_c, 0, 74, 81
2, 40128, Note_on_c, 0, 67, 81
2, 40195, Note_on_c, 0, 79, 0
2, 40195, Note_on_c, 0, 74, 0
2, 40195, Note_on_c, 0, 67, 0
2, 40200, Note_on_c, 0, 79, 84
2, 40200, Note_on_c, 0, 74, 84
2, 40223, Note_on_c, 0, 79, 0
2, 40223, Note_on_c, 0, 74, 0
2, 40224, Note_on_c, 0, 81, 84
2, 40224, Note_on_c, 0, 74, 84
2, 40291, Note_on_c, 0, 81, 0
2, 40291, Note_on_c, 0, 74, 0
2, 40296, Note_on_c, 0, 81, 84
2, 40296, Note_on_c, 0, 74, 84
2, 40319, Note_on_c, 0, 81, 0
2, 40319, Note_on_c, 0, 74, 0
2, 40320, Note_on_c, 0, 83, 84
2, 40320, Note_on_c, 0, 71, 84
2, 40387, Note_on_c, 0, 83, 0
2, 40387, Note_on_c, 0, 71, 0
2, 40392, Note_on_c, 0, 83, 84
2, 40392, Note_on_c, 0, 79, 84
2, 40415, Note_on_c, 0, 83, 0
2, 40415, Note_on_c, 0, 79, 0
2, 40416, Note_on_c, 0, 83, 84
2, 40416, Note_on_c, 0, 79, 84
2, 40483, Note_on_c, 0, 83, 0
2, 40483, Note_on_c, 0, 79, 0
2, 40488, Note_on_c, 0, 83, 84
2, 40488, Note_on_c, 0, 79, 84
2, 40511, Note_on_c, 0, 83, 0
2, 40511, Note_on_c, 0, 79, 0
2, 40512, Note_on_c, 0, 83, 84
2, 40512, Note_on_c, 0, 79, 84
2, 40579, Note_on_c, 0, 83, 0
2, 40579, Note_on_c, 0, 79, 0
2, 40584, Note_on_c, 0, 83, 84
2, 40584, Note_on_c, 0, 79, 84
2, 40607, Note_on_c, 0, 83, 0
2, 40607, Note_on_c, 0, 79, 0
2, 40608, Note_on_c, 0, 83, 84
2, 40608, Note_on_c, 0, 79, 84
2, 40675, Note_on_c, 0, 83, 0
2, 40675, Note_on_c, 0, 79, 0
2, 40680, Note_on_c, 0, 83, 84
2, 40680, Note_on_c, 0, 79, 84
2, 40703, Note_on_c, 0, 83, 0
2, 40703, Note_on_c, 0, 79, 0
2, 40704, Note_on_c, 0, 83, 84
2, 40704, Note_on_c, 0, 79, 84
2, 40728, Note_on_c, 0, 83, 0
2, 40728, Note_on_c, 0, 79, 0
2, 40728, Note_on_c, 0, 81, 84
2, 40728, Note_on_c, 0, 78, 84
2, 40751, Note_on_c, 0, 81, 0
2, 40751, Note_on_c, 0, 78, 0
2, 40752, Note_on_c, 0, 81, 84
2, 40752, Note_on_c, 0, 78, 84
2, 40776, Note_on_c, 0, 81, 0
2, 40776, Note_on_c, 0, 78, 0
2, 40776, Note_on_c, 0, 79, 84
2, 40776, Note_on_c, 0, 76, 84
2, 40799, Note_on_c, 0, 79, 0
2, 40799, Note_on_c, 0, 76, 0
2, 40800, Note_on_c, 0, 79, 84
2, 40800, Note_on_c, 0, 76, 84
2, 40824, Note_on_c, 0, 76, 0
2, 40824, Note_on_c, 0, 83, 84
2, 40847, Note_on_c, 0, 83, 0
2, 40847, Note_on_c, 0, 79, 0
2, 40848, Note_on_c, 0, 81, 84
2, 40848, Note_on_c, 0, 78, 84
2, 40872, Note_on_c, 0, 81, 0
2, 40872, Note_on_c, 0, 78, 0
2, 40872, Note_on_c, 0, 79, 84
2, 40872, Note_on_c, 0, 76, 84
2, 40895, Note_on_c, 0, 79, 0
2, 40895, Note_on_c, 0, 76, 0
2, 40896, Note_on_c, 0, 78, 84
2, 40941, Note_on_c, 0, 78, 0
2, 40944, Note_on_c, 0, 78, 84
2, 40954, Note_on_c, 0, 78, 0
2, 40968, Note_on_c, 0, 78, 84
2, 40978, Note_on_c, 0, 78, 0
2, 40992, Note_on_c, 0, 78, 84
2, 41037, Note_on_c, 0, 78, 0
2, 41040, Note_on_c, 0, 78, 84
2, 41050, Note_on_c, 0, 78, 0
2, 41064, Note_on_c, 0, 78, 84
2, 41074, Note_on_c, 0, 78, 0
2, 41088, Note_on_c, 0, 78, 84
2, 41133, Note_on_c, 0, 78, 0
2, 41136, Note_on_c, 0, 78, 84
2, 41146, Note_on_c, 0, 78, 0
2, 41160, Note_on_c, 0, 78, 84
2, 41170, Note_on_c, 0, 78, 0
2, 41184, Note_on_c, 0, 78, 84
2, 41229, Note_on_c, 0, 78, 0
2, 41232, Note_on_c, 0, 78, 84
2, 41242, Note_on_c, 0, 78, 0
2, 41256, Note_on_c, 0, 78, 84
2, 41266, Note_on_c, 0, 78, 0
2, 41280, Note_on_c, 0, 76, 84
2, 41325, Note_on_c, 0, 76, 0
2, 41328, Note_on_c, 0, 81, 84
2, 41373, Note_on_c, 0, 81, 0
2, 41376, Note_on_c, 0, 79, 84
2, 41421, Note_on_c, 0, 79, 0
2, 41424, Note_on_c, 0, 78, 84
2, 41469, Note_on_c, 0, 78, 0
2, 41472, Note_on_c, 0, 76, 84
2, 41517, Note_on_c, 0, 76, 0
2, 41520, Note_on_c, 0, 78, 84
2, 41565, Note_on_c, 0, 78, 0
2, 41568, Note_on_c, 0, 76, 84
2, 41613, Note_on_c, 0, 76, 0
2, 41616, Note_on_c, 0, 74, 84
2, 41661, Note_on_c, 0, 74, 0
2, 41664, Note_on_c, 0, 73, 84
2, 41664, Note_on_c, 0, 69, 84
2, 41709, Note_on_c, 0, 73, 0
2, 41709, Note_on_c, 0, 69, 0
2, 41712, Note_on_c, 0, 57, 84
2, 41724, Note_on_c, 0, 57, 0
2, 41724, Note_on_c, 0, 62, 84
2, 41736, Note_on_c, 0, 62, 0
2, 41736, Note_on_c, 0, 66, 84
2, 41748, Note_on_c, 0, 66, 0
2, 41748, Note_on_c, 0, 69, 84
2, 41760, Note_on_c, 0, 69, 0
2, 41760, Note_on_c, 0, 64, 84
2, 41772, Note_on_c, 0, 64, 0
2, 41772, Note_on_c, 0, 67, 84
2, 41784, Note_on_c, 0, 67, 0
2, 41784, Note_on_c, 0, 69, 84
2, 41808, Note_on_c, 0, 69, 0
2, 41808, Note_on_c, 0, 62, 84
2, 41820, Note_on_c, 0, 62, 0
2, 41820, Note_on_c, 0, 66, 85
2, 41832, Note_on_c, 0, 66, 0
2, 41832, Note_on_c, 0, 69, 85
2, 41856, Note_on_c, 0, 69, 0
2, 41856, Note_on_c, 0, 61, 85
2, 41868, Note_on_c, 0, 61, 0
2, 41868, Note_on_c, 0, 64, 85
2, 41880, Note_on_c, 0, 64, 0
2, 41880, Note_on_c, 0, 69, 85
2, 41904, Note_on_c, 0, 69, 0
2, 41904, Note_on_c, 0, 62, 85
2, 41916, Note_on_c, 0, 62, 0
2, 41916, Note_on_c, 0, 66, 85
2, 41928, Note_on_c, 0, 66, 0
2, 41928, Note_on_c, 0, 69, 86
2, 41952, Note_on_c, 0, 69, 0
2, 41952, Note_on_c, 0, 64, 86
2, 41964, Note_on_c, 0, 64, 0
2, 41964, Note_on_c, 0, 67, 86
2, 41976, Note_on_c, 0, 67, 0
2, 41976, Note_on_c, 0, 69, 86
2, 42000, Note_on_c, 0, 69, 0
2, 42000, Note_on_c, 0, 62, 86
2, 42012, Note_on_c, 0, 62, 0
2, 42012, Note_on_c, 0, 66, 86
2, 42024, Note_on_c, 0, 66, 0
2, 42024, Note_on_c, 0, 69, 87
2, 42048, Note_on_c, 0, 69, 0
2, 42048, Note_on_c, 0, 64, 87
2, 42060, Note_on_c, 0, 64, 0
2, 42060, Note_on_c, 0, 67, 87
2, 42072, Note_on_c, 0, 67, 0
2, 42072, Note_on_c, 0, 69, 87
2, 42096, Note_on_c, 0, 69, 0
2, 42096, Note_on_c, 0, 62, 87
2, 42108, Note_on_c, 0, 62, 0
2, 42108, Note_on_c, 0, 66, 87
2, 42120, Note_on_c, 0, 66, 0
2, 42120, Note_on_c, 0, 69, 87
2, 42144, Note_on_c, 0, 69, 0
2, 42144, Note_on_c, 0, 64, 88
2, 42156, Note_on_c, 0, 64, 0
2, 42156, Note_on_c, 0, 67, 88
2, 42168, Note_on_c, 0, 67, 0
2, 42168, Note_on_c, 0, 69, 88
2, 42192, Note_on_c, 0, 69, 0
2, 42192, Note_on_c, 0, 62, 88
2, 42204, Note_on_c, 0, 62, 0
2, 42204, Note_on_c, 0, 66, 88
2, 42216, Note_on_c, 0, 66, 0
2, 42216, Note_on_c, 0, 69, 88
2, 42240, Note_on_c, 0, 69, 0
2, 42240, Note_on_c, 0, 61, 89
2, 42248, Note_on_c, 0, 64, 89
2, 42256, Note_on_c, 0, 69, 89
2, 42333, Note_on_c, 0, 69, 0
2, 42333, Note_on_c, 0, 64, 0
2, 42333, Note_on_c, 0, 61, 0
2, 42336, Control_c, 0, 64, 127
2, 42336, Note_on_c, 0, 57, 90
2, 42342, Note_on_c, 0, 61, 90
2, 42348, Note_on_c, 0, 64, 90
2, 42354, Note_on_c, 0, 69, 90
2, 42429, Note_on_c, 0, 69, 0
2, 42429, Note_on_c, 0, 64, 0
2, 42429, Note_on_c, 0, 61, 0
2, 42429, Note_on_c, 0, 57, 0
2, 42432, Note_on_c, 0, 57, 86
2, 42438, Note_on_c, 0, 61, 86
2, 42444, Note_on_c, 0, 64, 86
2, 42450, Note_on_c, 0, 69, 86
2, 42525, Note_on_c, 0, 69, 0
2, 42525, Note_on_c, 0, 64, 0
2, 42525, Note_on_c, 0, 61, 0
2, 42525, Note_on_c, 0, 57, 0
2, 42576, Control_c, 0, 64, 0
2, 42612, Note_on_c, 0, 57, 75
2, 42624, Note_on_c, 0, 57, 0
2, 42624, Note_on_c, 0, 66, 75
2, 42754, Note_on_c, 0, 66, 0
2, 42756, Note_on_c, 0, 57, 80
2, 42768, Note_on_c, 0, 57, 0
2, 42768, Note_on_c, 0, 67, 80
2, 42802, Note_on_c, 0, 67, 0
2, 42804, Note_on_c, 0, 57, 82
2, 42816, Note_on_c, 0, 57, 0
2, 42816, Note_on_c, 0, 66, 82
2, 42850, Note_on_c, 0, 66, 0
2, 42852, Note_on_c, 0, 57, 84
2, 42864, Note_on_c, 0, 57, 0
2, 42864, Note_on_c, 0, 64, 83
2, 42898, Note_on_c, 0, 64, 0
2, 42900, Note_on_c, 0, 57, 81
2, 42912, Note_on_c, 0, 57, 0
2, 42912, Note_on_c, 0, 62, 80
2, 42946, Note_on_c, 0, 62, 0
2, 42948, Note_on_c, 0, 57, 78
2, 42960, Note_on_c, 0, 57, 0
2, 42960, Note_on_c, 0, 64, 77
2, 42994, Note_on_c, 0, 64, 0
2, 42996, Note_on_c, 0, 57, 75
2, 43008, Note_on_c, 0, 57, 0
2, 43008, Note_on_c, 0, 66, 75
2, 43119, Note_on_c, 0, 66, 0
2, 43120, Note_on_c, 0, 62, 76
2, 43135, Note_on_c, 0, 62, 0
2, 43136, Note_on_c, 0, 57, 77
2, 43151, Note_on_c, 0, 57, 0
2, 43152, Note_on_c, 0, 67, 77
2, 43167, Note_on_c, 0, 67, 0
2, 43168, Note_on_c, 0, 64, 77
2, 43183, Note_on_c, 0, 64, 0
2, 43184, Note_on_c, 0, 57, 77
2, 43199, Note_on_c, 0, 57, 0
2, 43200, Note_on_c, 0, 66, 77
2, 43215, Note_on_c, 0, 66, 0
2, 43216, Note_on_c, 0, 62, 78
2, 43231, Note_on_c, 0, 62, 0
2, 43232, Note_on_c, 0, 57, 78
2, 43247, Note_on_c, 0, 57, 0
2, 43248, Note_on_c, 0, 64, 78
2, 43263, Note_on_c, 0, 64, 0
2, 43264, Note_on_c, 0, 61, 78
2, 43279, Note_on_c, 0, 61, 0
2, 43280, Note_on_c, 0, 57, 78
2, 43295, Note_on_c, 0, 57, 0
2, 43296, Note_on_c, 0, 61, 79
2, 43311, Note_on_c, 0, 61, 0
2, 43312, Note_on_c, 0, 62, 79
2, 43327, Note_on_c, 0, 62, 0
2, 43328, Note_on_c, 0, 57, 79
2, 43343, Note_on_c, 0, 57, 0
2, 43344, Note_on_c, 0, 63, 79
2, 43359, Note_on_c, 0, 63, 0
2, 43360, Note_on_c, 0, 64, 79
2, 43375, Note_on_c, 0, 64, 0
2, 43376, Note_on_c, 0, 57, 80
2, 43391, Note_on_c, 0, 57, 0
2, 43392, Note_on_c, 0, 65, 80
2, 43407, Note_on_c, 0, 65, 0
2, 43408, Note_on_c, 0, 66, 80
2, 43423, Note_on_c, 0, 66, 0
2, 43424, Note_on_c, 0, 57, 80
2, 43439, Note_on_c, 0, 57, 0
2, 43440, Note_on_c, 0, 66, 80
2, 43455, Note_on_c, 0, 66, 0
2, 43456, Note_on_c, 0, 67, 81
2, 43471, Note_on_c, 0, 67, 0
2, 43472, Note_on_c, 0, 57, 81
2, 43487, Note_on_c, 0, 57, 0
2, 43488, Note_on_c, 0, 69, 81
2, 43508, Note_on_c, 0, 69, 0
2, 43584, Note_on_c, 0, 66, 75
2, 43599, Note_on_c, 0, 66, 0
2, 43600, Note_on_c, 0, 62, 75
2, 43615, Note_on_c, 0, 62, 0
2, 43616, Note_on_c, 0, 57, 76
2, 43631, Note_on_c, 0, 57, 0
2, 43632, Note_on_c, 0, 67, 77
2, 43647, Note_on_c, 0, 67, 0
2, 43648, Note_on_c, 0, 64, 78
2, 43663, Note_on_c, 0, 64, 0
2, 43664, Note_on_c, 0, 57, 78
2, 43679, Note_on_c, 0, 57, 0
2, 43680, Note_on_c, 0, 69, 79
2, 43700, Note_on_c, 0, 69, 0
2, 43776, Note_on_c, 0, 78, 75
2, 43865, Note_on_c, 0, 78, 0
2, 43872, Note_on_c, 0, 79, 75
2, 43884, Note_on_c, 0, 79, 0
2, 43884, Note_on_c, 0, 78, 75
2, 43896, Note_on_c, 0, 78, 0
2, 43896, Note_on_c, 0, 76, 75
2, 43908, Note_on_c, 0, 76, 0
2, 43908, Note_on_c, 0, 74, 75
2, 43920, Note_on_c, 0, 74, 0
2, 43920, Note_on_c, 0, 74, 75
2, 43932, Note_on_c, 0, 74, 0
2, 43932, Note_on_c, 0, 73, 75
2, 43944, Note_on_c, 0, 73, 0
2, 43944, Note_on_c, 0, 71, 75
2, 43956, Note_on_c, 0, 71, 0
2, 43956, Note_on_c, 0, 69, 75
2, 43968, Note_on_c, 0, 69, 0
2, 43968, Note_on_c, 0, 69, 75
2, 44064, Note_on_c, 0, 69, 0
2, 44064, Note_on_c, 0, 67, 75
2, 44087, Note_on_c, 0, 67, 0
2, 44088, Note_on_c, 0, 69, 75
2, 44100, Note_on_c, 0, 69, 0
2, 44100, Note_on_c, 0, 71, 75
2, 44112, Note_on_c, 0, 71, 0
2, 44112, Note_on_c, 0, 73, 75
2, 44124, Note_on_c, 0, 73, 0
2, 44124, Note_on_c, 0, 74, 75
2, 44136, Note_on_c, 0, 74, 0
2, 44136, Note_on_c, 0, 76, 75
2, 44148, Note_on_c, 0, 76, 0
2, 44148, Note_on_c, 0, 78, 75
2, 44160, Note_on_c, 0, 78, 0
2, 44160, Note_on_c, 0, 79, 75
2, 44227, Note_on_c, 0, 79, 0
2, 44232, Note_on_c, 0, 81, 75
2, 44255, Note_on_c, 0, 81, 0
2, 44256, Note_on_c, 0, 79, 75
2, 44268, Note_on_c, 0, 79, 0
2, 44268, Note_on_c, 0, 78, 75
2, 44280, Note_on_c, 0, 78, 0
2, 44280, Note_on_c, 0, 76, 75
2, 44292, Note_on_c, 0, 76, 0
2, 44292, Note_on_c, 0, 74, 75
2, 44304, Note_on_c, 0, 74, 0
2, 44304, Note_on_c, 0, 73, 75
2, 44316, Note_on_c, 0, 73, 0
2, 44316, Note_on_c, 0, 71, 75
2, 44328, Note_on_c, 0, 71, 0
2, 44328, Note_on_c, 0, 69, 75
2, 44340, Note_on_c, 0, 69, 0
2, 44340, Note_on_c, 0, 67, 75
2, 44352, Note_on_c, 0, 67, 0
2, 44352, Note_on_c, 0, 67, 75
2, 44448, Note_on_c, 0, 67, 0
2, 44448, Note_on_c, 0, 66, 75
2, 44493, Note_on_c, 0, 66, 0
2, 44544, Note_on_c, 0, 62, 75
2, 44677, Note_on_c, 0, 62, 0
2, 44688, Note_on_c, 0, 66, 75
2, 44700, Note_on_c, 0, 66, 0
2, 44700, Note_on_c, 0, 62, 75
2, 44733, Note_on_c, 0, 62, 0
2, 44736, Note_on_c, 0, 61, 75
2, 44748, Note_on_c, 0, 61, 0
2, 44748, Note_on_c, 0, 59, 75
2, 44869, Note_on_c, 0, 59, 0
2, 44880, Note_on_c, 0, 62, 75
2, 44892, Note_on_c, 0, 62, 0
2, 44892, Note_on_c, 0, 59, 75
2, 44925, Note_on_c, 0, 59, 0
2, 44928, Note_on_c, 0, 59, 75
2, 44940, Note_on_c, 0, 59, 0
2, 44940, Note_on_c, 0, 57, 75
2, 45061, Note_on_c, 0, 57, 0
2, 45072, Note_on_c, 0, 66, 75
2, 45084, Note_on_c, 0, 66, 0
2, 45084, Note_on_c, 0, 62, 75
2, 45117, Note_on_c, 0, 62, 0
2, 45120, Note_on_c, 0, 61, 75
2, 45132, Note_on_c, 0, 61, 0
2, 45132, Note_on_c, 0, 59, 75
2, 45165, Note_on_c, 0, 59, 0
2, 45168, Note_on_c, 0, 62, 75
2, 45180, Note_on_c, 0, 62, 0
2, 45180, Note_on_c, 0, 59, 75
2, 45213, Note_on_c, 0, 59, 0
2, 45216, Note_on_c, 0, 59, 75
2, 45228, Note_on_c, 0, 59, 0
2, 45228, Note_on_c, 0, 57, 75
2, 45261, Note_on_c, 0, 57, 0
2, 45264, Note_on_c, 0, 66, 75
2, 45276, Note_on_c, 0, 66, 0
2, 45276, Note_on_c, 0, 62, 75
2, 45309, Note_on_c, 0, 62, 0
2, 45312, Note_on_c, 0, 61, 75
2, 45324, Note_on_c, 0, 61, 0
2, 45324, Note_on_c, 0, 59, 75
2, 45357, Note_on_c, 0, 59, 0
2, 45360, Note_on_c, 0, 62, 75
2, 45372, Note_on_c, 0, 62, 0
2, 45372, Note_on_c, 0, 59, 75
2, 45405, Note_on_c, 0, 59, 0
2, 45408, Note_on_c, 0, 59, 75
2, 45420, Note_on_c, 0, 59, 0
2, 45420, Note_on_c, 0, 57, 75
2, 45453, Note_on_c, 0, 57, 0
2, 45456, Note_on_c, 0, 66, 75
2, 45468, Note_on_c, 0, 66, 0
2, 45468, Note_on_c, 0, 62, 75
2, 45501, Note_on_c, 0, 62, 0
2, 45504, Note_on_c, 0, 67, 75
2, 45516, Note_on_c, 0, 67, 0
2, 45516, Note_on_c, 0, 64, 75
2, 45549, Note_on_c, 0, 64, 0
2, 45552, Note_on_c, 0, 69, 75
2, 45564, Note_on_c, 0, 69, 0
2, 45564, Note_on_c, 0, 66, 75
2, 45597, Note_on_c, 0, 66, 0
2, 45600, Note_on_c, 0, 67, 75
2, 45612, Note_on_c, 0, 67, 0
2, 45612, Note_on_c, 0, 64, 75
2, 45645, Note_on_c, 0, 64, 0
2, 45648, Note_on_c, 0, 66, 75
2, 45660, Note_on_c, 0, 66, 0
2, 45660, Note_on_c, 0, 62, 75
2, 45693, Note_on_c, 0, 62, 0
2, 45696, Note_on_c, 0, 62, 75
2, 45708, Note_on_c, 0, 62, 0
2, 45708, Note_on_c, 0, 60, 75
2, 45829, Note_on_c, 0, 60, 0
2, 45840, Note_on_c, 0, 64, 75
2, 45852, Note_on_c, 0, 64, 0
2, 45852, Note_on_c, 0, 60, 75
2, 45885, Note_on_c, 0, 60, 0
2, 45888, Note_on_c, 0, 60, 75
2, 45900, Note_on_c, 0, 60, 0
2, 45900, Note_on_c, 0, 59, 75
2, 46021, Note_on_c, 0, 59, 0
2, 46032, Note_on_c, 0, 69, 75
2, 46044, Note_on_c, 0, 69, 0
2, 46044, Note_on_c, 0, 66, 75
2, 46077, Note_on_c, 0, 66, 0
2, 46080, Note_on_c, 0, 69, 75
2, 46092, Note_on_c, 0, 69, 0
2, 46092, Note_on_c, 0, 67, 75
2, 46125, Note_on_c, 0, 67, 0
2, 46128, Note_on_c, 0, 67, 75
2, 46140, Note_on_c, 0, 67, 0
2, 46140, Note_on_c, 0, 66, 75
2, 46173, Note_on_c, 0, 66, 0
2, 46176, Note_on_c, 0, 66, 75
2, 46188, Note_on_c, 0, 66, 0
2, 46188, Note_on_c, 0, 64, 75
2, 46221, Note_on_c, 0, 64, 0
2, 46224, Note_on_c, 0, 67, 75
2, 46236, Note_on_c, 0, 67, 0
2, 46236, Note_on_c, 0, 66, 75
2, 46269, Note_on_c, 0, 66, 0
2, 46272, Note_on_c, 0, 69, 75
2, 46284, Note_on_c, 0, 69, 0
2, 46284, Note_on_c, 0, 67, 75
2, 46317, Note_on_c, 0, 67, 0
2, 46320, Note_on_c, 0, 67, 75
2, 46332, Note_on_c, 0, 67, 0
2, 46332, Note_on_c, 0, 66, 75
2, 46365, Note_on_c, 0, 66, 0
2, 46368, Note_on_c, 0, 66, 75
2, 46380, Note_on_c, 0, 66, 0
2, 46380, Note_on_c, 0, 64, 75
2, 46413, Note_on_c, 0, 64, 0
2, 46416, Note_on_c, 0, 64, 75
2, 46428, Note_on_c, 0, 64, 0
2, 46428, Note_on_c, 0, 62, 75
2, 46461, Note_on_c, 0, 62, 0
2, 46464, Note_on_c, 0, 61, 75
2, 46470, Note_on_c, 0, 61, 0
2, 46470, Note_on_c, 0, 64, 75
2, 46476, Note_on_c, 0, 64, 0
2, 46476, Note_on_c, 0, 69, 75
2, 46487, Note_on_c, 0, 69, 0
2, 46488, Note_on_c, 0, 69, 75
2, 46498, Note_on_c, 0, 69, 0
2, 46512, Note_on_c, 0, 69, 75
2, 46522, Note_on_c, 0, 69, 0
2, 46536, Note_on_c, 0, 69, 75
2, 46546, Note_on_c, 0, 69, 0
2, 46560, Note_on_c, 0, 69, 75
2, 46570, Note_on_c, 0, 69, 0
2, 46584, Note_on_c, 0, 69, 75
2, 46594, Note_on_c, 0, 69, 0
2, 46608, Note_on_c, 0, 69, 75
2, 46618, Note_on_c, 0, 69, 0
2, 46632, Note_on_c, 0, 69, 75
2, 46642, Note_on_c, 0, 69, 0
2, 46656, Note_on_c, 0, 69, 75
2, 46666, Note_on_c, 0, 69, 0
2, 46680, Note_on_c, 0, 69, 75
2, 46690, Note_on_c, 0, 69, 0
2, 46704, Note_on_c, 0, 69, 75
2, 46714, Note_on_c, 0, 69, 0
2, 46728, Note_on_c, 0, 69, 75
2, 46738, Note_on_c, 0, 69, 0
2, 46752, Note_on_c, 0, 69, 75
2, 46762, Note_on_c, 0, 69, 0
2, 46776, Note_on_c, 0, 69, 75
2, 46786, Note_on_c, 0, 69, 0
2, 46800, Note_on_c, 0, 69, 75
2, 46810, Note_on_c, 0, 69, 0
2, 46824, Note_on_c, 0, 69, 75
2, 46834, Note_on_c, 0, 69, 0
2, 46848, Note_on_c, 0, 74, 75
2, 46872, Note_on_c, 0, 74, 0
2, 46872, Note_on_c, 0, 62, 75
2, 46895, Note_on_c, 0, 62, 0
2, 46896, Note_on_c, 0, 74, 75
2, 46906, Note_on_c, 0, 74, 0
2, 46920, Note_on_c, 0, 74, 75
2, 46930, Note_on_c, 0, 74, 0
2, 46944, Note_on_c, 0, 74, 75
2, 46954, Note_on_c, 0, 74, 0
2, 46968, Note_on_c, 0, 74, 75
2, 46978, Note_on_c, 0, 74, 0
2, 46992, Note_on_c, 0, 74, 75
2, 47002, Note_on_c, 0, 74, 0
2, 47016, Note_on_c, 0, 74, 75
2, 47026, Note_on_c, 0, 74, 0
2, 47040, Note_on_c, 0, 74, 75
2, 47050, Note_on_c, 0, 74, 0
2, 47064, Note_on_c, 0, 74, 75
2, 47074, Note_on_c, 0, 74, 0
2, 47088, Note_on_c, 0, 74, 75
2, 47098, Note_on_c, 0, 74, 0
2, 47112, Note_on_c, 0, 74, 75
2, 47122, Note_on_c, 0, 74, 0
2, 47136, Note_on_c, 0, 74, 75
2, 47146, Note_on_c, 0, 74, 0
2, 47160, Note_on_c, 0, 74, 75
2, 47170, Note_on_c, 0, 74, 0
2, 47184, Note_on_c, 0, 74, 75
2, 47194, Note_on_c, 0, 74, 0
2, 47208, Note_on_c, 0, 74, 75
2, 47218, Note_on_c, 0, 74, 0
2, 47232, Note_on_c, 0, 79, 75
2, 47256, Note_on_c, 0, 79, 0
2, 47256, Note_on_c, 0, 67, 75
2, 47279, Note_on_c, 0, 67, 0
2, 47280, Note_on_c, 0, 79, 75
2, 47290, Note_on_c, 0, 79, 0
2, 47304, Note_on_c, 0, 79, 75
2, 47314, Note_on_c, 0, 79, 0
2, 47328, Note_on_c, 0, 79, 75
2, 47352, Note_on_c, 0, 79, 0
2, 47352, Note_on_c, 0, 67, 75
2, 47375, Note_on_c, 0, 67, 0
2, 47376, Note_on_c, 0, 79, 75
2, 47386, Note_on_c, 0, 79, 0
2, 47400, Note_on_c, 0, 79, 75
2, 47410, Note_on_c, 0, 79, 0
2, 47424, Note_on_c, 0, 79, 75
2, 47448, Note_on_c, 0, 79, 0
2, 47448, Note_on_c, 0, 71, 75
2, 47471, Note_on_c, 0, 71, 0
2, 47472, Note_on_c, 0, 79, 75
2, 47482, Note_on_c, 0, 79, 0
2, 47496, Note_on_c, 0, 79, 75
2, 47506, Note_on_c, 0, 79, 0
2, 47520, Note_on_c, 0, 79, 75
2, 47544, Note_on_c, 0, 79, 0
2, 47544, Note_on_c, 0, 69, 75
2, 47567, Note_on_c, 0, 69, 0
2, 47568, Note_on_c, 0, 79, 76
2, 47578, Note_on_c, 0, 79, 0
2, 47592, Note_on_c, 0, 79, 77
2, 47602, Note_on_c, 0, 79, 0
2, 47616, Note_on_c, 0, 78, 77
2, 47640, Note_on_c, 0, 78, 0
2, 47640, Note_on_c, 0, 69, 78
2, 47663, Note_on_c, 0, 69, 0
2, 47664, Note_on_c, 0, 78, 79
2, 47674, Note_on_c, 0, 78, 0
2, 47688, Note_on_c, 0, 78, 79
2, 47712, Note_on_c, 0, 78, 0
2, 47712, Note_on_c, 0, 79, 80
2, 47735, Note_on_c, 0, 79, 0
2, 47736, Note_on_c, 0, 69, 81
2, 47759, Note_on_c, 0, 69, 0
2, 47760, Note_on_c, 0, 79, 81
2, 47770, Note_on_c, 0, 79, 0
2, 47784, Note_on_c, 0, 79, 82
2, 47808, Note_on_c, 0, 79, 0
2, 47808, Note_on_c, 0, 77, 83
2, 47831, Note_on_c, 0, 77, 0
2, 47832, Note_on_c, 0, 65, 84
2, 47855, Note_on_c, 0, 65, 0
2, 47856, Note_on_c, 0, 77, 84
2, 47866, Note_on_c, 0, 77, 0
2, 47880, Note_on_c, 0, 77, 84
2, 47903, Note_on_c, 0, 77, 0
2, 47904, Note_on_c, 0, 77, 84
2, 47928, Note_on_c, 0, 77, 0
2, 47928, Note_on_c, 0, 65, 84
2, 47951, Note_on_c, 0, 65, 0
2, 47952, Note_on_c, 0, 77, 84
2, 47962, Note_on_c, 0, 77, 0
2, 47976, Note_on_c, 0, 77, 84
2, 47986, Note_on_c, 0, 77, 0
2, 48000, Note_on_c, 0, 77, 69
2, 48024, Note_on_c, 0, 77, 0
2, 48024, Note_on_c, 0, 76, 69
2, 48047, Note_on_c, 0, 76, 0
2, 48048, Note_on_c, 0, 76, 69
2, 48072, Note_on_c, 0, 76, 0
2, 48072, Note_on_c, 0, 74, 69
2, 48095, Note_on_c, 0, 74, 0
2, 48096, Note_on_c, 0, 74, 69
2, 48120, Note_on_c, 0, 74, 0
2, 48120, Note_on_c, 0, 72, 69
2, 48143, Note_on_c, 0, 72, 0
2, 48144, Note_on_c, 0, 72, 69
2, 48168, Note_on_c, 0, 72, 0
2, 48168, Note_on_c, 0, 70, 69
2, 48191, Note_on_c, 0, 70, 0
2, 48192, Note_on_c, 0, 70, 69
2, 48207, Note_on_c, 0, 70, 0
2, 48208, Note_on_c, 0, 74, 69
2, 48223, Note_on_c, 0, 74, 0
2, 48224, Note_on_c, 0, 77, 69
2, 48239, Note_on_c, 0, 77, 0
2, 48240, Note_on_c, 0, 70, 69
2, 48255, Note_on_c, 0, 70, 0
2, 48256, Note_on_c, 0, 74, 69
2, 48271, Note_on_c, 0, 74, 0
2, 48272, Note_on_c, 0, 77, 69
2, 48287, Note_on_c, 0, 77, 0
2, 48288, Note_on_c, 0, 70, 69
2, 48333, Note_on_c, 0, 70, 0
2, 48384, Note_on_c, 0, 77, 69
2, 48396, Note_on_c, 0, 77, 0
2, 48396, Note_on_c, 0, 82, 69
2, 48408, Note_on_c, 0, 82, 0
2, 48408, Note_on_c, 0, 86, 69
2, 48432, Note_on_c, 0, 86, 0
2, 48432, Note_on_c, 0, 74, 69
2, 48444, Note_on_c, 0, 74, 0
2, 48444, Note_on_c, 0, 77, 69
2, 48456, Note_on_c, 0, 77, 0
2, 48456, Note_on_c, 0, 82, 69
2, 48480, Note_on_c, 0, 82, 0
2, 48480, Note_on_c, 0, 70, 69
2, 48492, Note_on_c, 0, 70, 0
2, 48492, Note_on_c, 0, 74, 69
2, 48504, Note_on_c, 0, 74, 0
2, 48504, Note_on_c, 0, 77, 69
2, 48528, Note_on_c, 0, 77, 0
2, 48528, Note_on_c, 0, 65, 69
2, 48540, Note_on_c, 0, 65, 0
2, 48540, Note_on_c, 0, 70, 69
2, 48552, Note_on_c, 0, 70, 0
2, 48552, Note_on_c, 0, 74, 69
2, 48576, Note_on_c, 0, 74, 0
2, 48576, Note_on_c, 0, 62, 69
2, 48588, Note_on_c, 0, 62, 0
2, 48588, Note_on_c, 0, 65, 69
2, 48600, Note_on_c, 0, 65, 0
2, 48600, Note_on_c, 0, 70, 69
2, 48624, Note_on_c, 0, 70, 0
2, 48624, Note_on_c, 0, 58, 69
2, 48636, Note_on_c, 0, 58, 0
2, 48636, Note_on_c, 0, 62, 69
2, 48648, Note_on_c, 0, 62, 0
2, 48648, Note_on_c, 0, 65, 69
2, 48672, Note_on_c, 0, 65, 0
2, 48672, Note_on_c, 0, 53, 69
2, 48684, Note_on_c, 0, 53, 0
2, 48684, Note_on_c, 0, 58, 69
2, 48696, Note_on_c, 0, 58, 0
2, 48696, Note_on_c, 0, 62, 69
2, 48720, Note_on_c, 0, 62, 0
2, 48720, Note_on_c, 0, 50, 69
2, 48732, Note_on_c, 0, 50, 0
2, 48732, Note_on_c, 0, 53, 69
2, 48744, Note_on_c, 0, 53, 0
2, 48744, Note_on_c, 0, 58, 69
2, 48768, Note_on_c, 0, 58, 0
2, 48768, Control_c, 0, 64, 127
2, 48792, Note_on_c, 0, 74, 61
2, 48815, Note_on_c, 0, 74, 0
2, 48816, Note_on_c, 0, 62, 61
2, 48839, Note_on_c, 0, 62, 0
2, 48840, Note_on_c, 0, 74, 62
2, 48863, Note_on_c, 0, 74, 0
2, 48864, Note_on_c, 0, 62, 63
2, 48887, Note_on_c, 0, 62, 0
2, 48888, Note_on_c, 0, 74, 63
2, 48911, Note_on_c, 0, 74, 0
2, 48912, Note_on_c, 0, 64, 64
2, 48935, Note_on_c, 0, 64, 0
2, 48936, Note_on_c, 0, 76, 65
2, 48959, Note_on_c, 0, 76, 0
2, 48960, Control_c, 0, 64, 0
2, 48960, Note_on_c, 0, 65, 66
2, 48983, Note_on_c, 0, 65, 0
2, 48984, Note_on_c, 0, 77, 66
2, 49007, Note_on_c, 0, 77, 0
2, 49008, Control_c, 0, 64, 127
2, 49008, Note_on_c, 0, 64, 67
2, 49031, Note_on_c, 0, 64, 0
2, 49032, Control_c, 0, 64, 0
2, 49032, Note_on_c, 0, 76, 68
2, 49055, Note_on_c, 0, 76, 0
2, 49056, Control_c, 0, 64, 127
2, 49056, Note_on_c, 0, 65, 69
2, 49079, Note_on_c, 0, 65, 0
2, 49080, Note_on_c, 0, 77, 69
2, 49103, Note_on_c, 0, 77, 0
2, 49104, Note_on_c, 0, 68, 70
2, 49127, Note_on_c, 0, 68, 0
2, 49128, Note_on_c, 0, 80, 71
2, 49151, Note_on_c, 0, 80, 0
2, 49152, Control_c, 0, 64, 0
2, 49152, Note_on_c, 0, 69, 72
2, 49158, Note_on_c, 0, 69, 0
2, 49158, Note_on_c, 0, 81, 72
2, 49241, Note_on_c, 0, 81, 0
2, 49296, Note_on_c, 0, 64, 75
2, 49296, Note_on_c, 0, 61, 75
2, 49316, Note_on_c, 0, 64, 0
2, 49316, Note_on_c, 0, 61, 0
2, 49344, Note_on_c, 0, 66, 75
2, 49344, Note_on_c, 0, 62, 75
2, 49364, Note_on_c, 0, 66, 0
2, 49364, Note_on_c, 0, 62, 0
2, 49392, Note_on_c, 0, 64, 75
2, 49392, Note_on_c, 0, 61, 75
2, 49412, Note_on_c, 0, 64, 0
2, 49412, Note_on_c, 0, 61, 0
2, 49440, Note_on_c, 0, 66, 75
2, 49440, Note_on_c, 0, 62, 75
2, 49460, Note_on_c, 0, 66, 0
2, 49460, Note_on_c, 0, 62, 0
2, 49488, Note_on_c, 0, 69, 75
2, 49500, Note_on_c, 0, 69, 0
2, 49500, Note_on_c, 0, 67, 75
2, 49512, Note_on_c, 0, 67, 0
2, 49512, Note_on_c, 0, 66, 75
2, 49524, Note_on_c, 0, 66, 0
2, 49524, Note_on_c, 0, 67, 75
2, 49536, Note_on_c, 0, 67, 0
2, 49536, Note_on_c, 0, 69, 75
2, 49536, Note_on_c, 0, 66, 75
2, 49625, Note_on_c, 0, 69, 0
2, 49625, Note_on_c, 0, 66, 0
2, 49680, Note_on_c, 0, 71, 75
2, 49680, Note_on_c, 0, 67, 75
2, 49700, Note_on_c, 0, 71, 0
2, 49700, Note_on_c, 0, 67, 0
2, 49728, Note_on_c, 0, 73, 75
2, 49728, Note_on_c, 0, 64, 75
2, 49748, Note_on_c, 0, 73, 0
2, 49748, Note_on_c, 0, 64, 0
2, 49776, Note_on_c, 0, 74, 75
2, 49776, Note_on_c, 0, 66, 75
2, 49796, Note_on_c, 0, 74, 0
2, 49796, Note_on_c, 0, 66, 0
2, 49824, Note_on_c, 0, 67, 75
2, 49824, Note_on_c, 0, 61, 75
2, 49844, Note_on_c, 0, 67, 0
2, 49844, Note_on_c, 0, 61, 0
2, 49872, Note_on_c, 0, 67, 75
2, 49884, Note_on_c, 0, 67, 0
2, 49884, Note_on_c, 0, 66, 75
2, 49896, Note_on_c, 0, 66, 0
2, 49896, Note_on_c, 0, 64, 75
2, 49908, Note_on_c, 0, 64, 0
2, 49908, Note_on_c, 0, 66, 75
2, 49920, Note_on_c, 0, 66, 0
2, 49920, Note_on_c, 0, 64, 75
2, 49920, Note_on_c, 0, 61, 75
2, 50009, Note_on_c, 0, 64, 0
2, 50009, Note_on_c, 0, 61, 0
2, 50064, Note_on_c, 0, 64, 75
2, 50064, Note_on_c, 0, 61, 75
2, 50084, Note_on_c, 0, 64, 0
2, 50084, Note_on_c, 0, 61, 0
2, 50112, Note_on_c, 0, 66, 75
2, 50112, Note_on_c, 0, 62, 75
2, 50132, Note_on_c, 0, 66, 0
2, 50132, Note_on_c, 0, 62, 0
2, 50160, Note_on_c, 0, 64, 75
2, 50160, Note_on_c, 0, 61, 75
2, 50180, Note_on_c, 0, 64, 0
2, 50180, Note_on_c, 0, 61, 0
2, 50208, Note_on_c, 0, 66, 75
2, 50208, Note_on_c, 0, 62, 75
2, 50228, Note_on_c, 0, 66, 0
2, 50228, Note_on_c, 0, 62, 0
2, 50256, Note_on_c, 0, 69, 75
2, 50268, Note_on_c, 0, 69, 0
2, 50268, Note_on_c, 0, 67, 75
2, 50280, Note_on_c, 0, 67, 0
2, 50280, Note_on_c, 0, 66, 75
2, 50292, Note_on_c, 0, 66, 0
2, 50292, Note_on_c, 0, 67, 75
2, 50304, Note_on_c, 0, 67, 0
2, 50304, Note_on_c, 0, 69, 75
2, 50304, Note_on_c, 0, 66, 75
2, 50393, Note_on_c, 0, 69, 0
2, 50393, Note_on_c, 0, 66, 0
2, 50448, Note_on_c, 0, 71, 75
2, 50448, Note_on_c, 0, 67, 75
2, 50468, Note_on_c, 0, 71, 0
2, 50468, Note_on_c, 0, 67, 0
2, 50496, Note_on_c, 0, 73, 75
2, 50496, Note_on_c, 0, 64, 75
2, 50516, Note_on_c, 0, 73, 0
2, 50516, Note_on_c, 0, 64, 0
2, 50544, Note_on_c, 0, 74, 75
2, 50544, Note_on_c, 0, 66, 75
2, 50564, Note_on_c, 0, 74, 0
2, 50564, Note_on_c, 0, 66, 0
2, 50592, Note_on_c, 0, 76, 75
2, 50592, Note_on_c, 0, 73, 75
2, 50612, Note_on_c, 0, 76, 0
2, 50612, Note_on_c, 0, 73, 0
2, 50640, Note_on_c, 0, 79, 75
2, 50652, Note_on_c, 0, 79, 0
2, 50652, Note_on_c, 0, 78, 75
2, 50664, Note_on_c, 0, 78, 0
2, 50664, Note_on_c, 0, 76, 75
2, 50676, Note_on_c, 0, 76, 0
2, 50676, Note_on_c, 0, 78, 75
2, 50688, Note_on_c, 0, 78, 0
2, 50688, Note_on_c, 0, 79, 75
2, 50688, Note_on_c, 0, 76, 75
2, 50777, Note_on_c, 0, 79, 0
2, 50777, Note_on_c, 0, 76, 0
2, 50832, Note_on_c, 0, 79, 75
2, 50844, Note_on_c, 0, 79, 0
2, 50844, Note_on_c, 0, 78, 75
2, 50856, Note_on_c, 0, 78, 0
2, 50856, Note_on_c, 0, 76, 75
2, 50868, Note_on_c, 0, 76, 0
2, 50868, Note_on_c, 0, 74, 75
2, 50880, Note_on_c, 0, 74, 0
2, 50880, Note_on_c, 0, 73, 75
2, 50969, Note_on_c, 0, 73, 0
2, 51024, Note_on_c, 0, 76, 75
2, 51036, Note_on_c, 0, 76, 0
2, 51036, Note_on_c, 0, 73, 75
2, 51048, Note_on_c, 0, 73, 0
2, 51048, Note_on_c, 0, 71, 75
2, 51060, Note_on_c, 0, 71, 0
2, 51060, Note_on_c, 0, 69, 75
2, 51072, Note_on_c, 0, 69, 0
2, 51072, Note_on_c, 0, 74, 75
2, 51161, Note_on_c, 0, 74, 0
2, 51216, Note_on_c, 0, 79, 75
2, 51228, Note_on_c, 0, 79, 0
2, 51228, Note_on_c, 0, 78, 75
2, 51240, Note_on_c, 0, 78, 0
2, 51240, Note_on_c, 0, 76, 75
2, 51252, Note_on_c, 0, 76, 0
2, 51252, Note_on_c, 0, 74, 75
2, 51264, Note_on_c, 0, 74, 0
2, 51264, Note_on_c, 0, 73, 75
2, 51353, Note_on_c, 0, 73, 0
2, 51408, Note_on_c, 0, 76, 75
2, 51420, Note_on_c, 0, 76, 0
2, 51420, Note_on_c, 0, 73, 75
2, 51432, Note_on_c, 0, 73, 0
2, 51432, Note_on_c, 0, 71, 75
2, 51444, Note_on_c, 0, 71, 0
2, 51444, Note_on_c, 0, 69, 75
2, 51456, Note_on_c, 0, 69, 0
2, 51456, Note_on_c, 0, 74, 75
2, 51476, Note_on_c, 0, 74, 0
2, 51504, Note_on_c, 0, 78, 75
2, 51516, Note_on_c, 0, 78, 0
2, 51516, Note_on_c, 0, 76, 75
2, 51528, Note_on_c, 0, 76, 0
2, 51528, Note_on_c, 0, 74, 75
2, 51540, Note_on_c, 0, 74, 0
2, 51540, Note_on_c, 0, 73, 75
2, 51552, Note_on_c, 0, 73, 0
2, 51552, Note_on_c, 0, 71, 75
2, 51572, Note_on_c, 0, 71, 0
2, 51600, Note_on_c, 0, 74, 75
2, 51612, Note_on_c, 0, 74, 0
2, 51612, Note_on_c, 0, 73, 75
2, 51624, Note_on_c, 0, 73, 0
2, 51624, Note_on_c, 0, 71, 75
2, 51636, Note_on_c, 0, 71, 0
2, 51636, Note_on_c, 0, 69, 75
2, 51648, Note_on_c, 0, 69, 0
2, 51648, Note_on_c, 0, 67, 75
2, 51668, Note_on_c, 0, 67, 0
2, 51696, Note_on_c, 0, 71, 75
2, 51708, Note_on_c, 0, 71, 0
2, 51708, Note_on_c, 0, 69, 75
2, 51720, Note_on_c, 0, 69, 0
2, 51720, Note_on_c, 0, 67, 75
2, 51732, Note_on_c, 0, 67, 0
2, 51732, Note_on_c, 0, 66, 75
2, 51744, Note_on_c, 0, 66, 0
2, 51744, Note_on_c, 0, 64, 75
2, 51764, Note_on_c, 0, 64, 0
2, 51792, Note_on_c, 0, 83, 75
2, 51804, Note_on_c, 0, 83, 0
2, 51804, Note_on_c, 0, 79, 75
2, 51816, Note_on_c, 0, 79, 0
2, 51816, Note_on_c, 0, 78, 75
2, 51828, Note_on_c, 0, 78, 0
2, 51828, Note_on_c, 0, 76, 75
2, 51840, Note_on_c, 0, 76, 0
2, 51840, Note_on_c, 0, 81, 75
2, 51860, Note_on_c, 0, 81, 0
2, 51888, Note_on_c, 0, 79, 75
2, 51900, Note_on_c, 0, 79, 0
2, 51900, Note_on_c, 0, 78, 75
2, 51912, Note_on_c, 0, 78, 0
2, 51912, Note_on_c, 0, 76, 75
2, 51924, Note_on_c, 0, 76, 0
2, 51924, Note_on_c, 0, 74, 75
2, 51936, Note_on_c, 0, 74, 0
2, 51936, Note_on_c, 0, 76, 75
2, 51945, Note_on_c, 0, 76, 0
2, 51945, Note_on_c, 0, 78, 75
2, 51954, Note_on_c, 0, 78, 0
2, 51954, Note_on_c, 0, 76, 75
2, 51963, Note_on_c, 0, 76, 0
2, 51963, Note_on_c, 0, 78, 75
2, 51972, Note_on_c, 0, 78, 0
2, 51972, Note_on_c, 0, 76, 75
2, 51981, Note_on_c, 0, 76, 0
2, 51981, Note_on_c, 0, 78, 75
2, 51990, Note_on_c, 0, 78, 0
2, 51990, Note_on_c, 0, 76, 75
2, 51999, Note_on_c, 0, 76, 0
2, 51999, Note_on_c, 0, 78, 75
2, 52008, Note_on_c, 0, 78, 0
2, 52008, Note_on_c, 0, 76, 75
2, 52016, Note_on_c, 0, 76, 0
2, 52016, Note_on_c, 0, 74, 75
2, 52024, Note_on_c, 0, 74, 0
2, 52024, Note_on_c, 0, 76, 75
2, 52032, Note_on_c, 0, 76, 0
2, 52032, Note_on_c, 0, 74, 75
2, 52077, Note_on_c, 0, 74, 0
2, 52128, Note_on_c, 0, 81, 75
2, 52140, Note_on_c, 0, 81, 0
2, 52140, Note_on_c, 0, 79, 75
2, 52173, Note_on_c, 0, 79, 0
2, 52176, Note_on_c, 0, 79, 75
2, 52221, Note_on_c, 0, 79, 0
2, 52224, Note_on_c, 0, 78, 75
2, 52269, Note_on_c, 0, 78, 0
2, 52320, Note_on_c, 0, 78, 75
2, 52344, Note_on_c, 0, 78, 0
2, 52344, Note_on_c, 0, 76, 75
2, 52365, Note_on_c, 0, 76, 0
2, 52368, Note_on_c, 0, 76, 75
2, 52391, Note_on_c, 0, 76, 0
2, 52392, Note_on_c, 0, 73, 75
2, 52415, Note_on_c, 0, 73, 0
2, 52416, Note_on_c, 0, 74, 75
2, 52461, Note_on_c, 0, 74, 0
2, 52512, Note_on_c, 0, 79, 75
2, 52527, Note_on_c, 0, 79, 0
2, 52528, Note_on_c, 0, 81, 75
2, 52543, Note_on_c, 0, 81, 0
2, 52544, Note_on_c, 0, 79, 75
2, 52559, Note_on_c, 0, 79, 0
2, 52560, Note_on_c, 0, 83, 75
2, 52575, Note_on_c, 0, 83, 0
2, 52576, Note_on_c, 0, 81, 75
2, 52591, Note_on_c, 0, 81, 0
2, 52592, Note_on_c, 0, 79, 75
2, 52607, Note_on_c, 0, 79, 0
2, 52608, Note_on_c, 0, 78, 75
2, 52653, Note_on_c, 0, 78, 0
2, 52704, Note_on_c, 0, 79, 75
2, 52719, Note_on_c, 0, 79, 0
2, 52720, Note_on_c, 0, 78, 75
2, 52735, Note_on_c, 0, 78, 0
2, 52736, Note_on_c, 0, 76, 75
2, 52751, Note_on_c, 0, 76, 0
2, 52752, Note_on_c, 0, 74, 75
2, 52767, Note_on_c, 0, 74, 0
2, 52768, Note_on_c, 0, 76, 75
2, 52783, Note_on_c, 0, 76, 0
2, 52784, Note_on_c, 0, 73, 75
2, 52799, Note_on_c, 0, 73, 0
2, 52800, Note_on_c, 0, 74, 75
2, 52820, Note_on_c, 0, 74, 0
2, 52848, Note_on_c, 0, 74, 75
2, 52868, Note_on_c, 0, 74, 0
2, 52896, Note_on_c, 0, 76, 75
2, 52916, Note_on_c, 0, 76, 0
2, 52944, Note_on_c, 0, 76, 75
2, 52964, Note_on_c, 0, 76, 0
2, 52992, Note_on_c, 0, 78, 75
2, 53012, Note_on_c, 0, 78, 0
2, 53040, Note_on_c, 0, 78, 75
2, 53060, Note_on_c, 0, 78, 0
2, 53088, Note_on_c, 0, 81, 75
2, 53112, Note_on_c, 0, 81, 0
2, 53112, Note_on_c, 0, 79, 75
2, 53135, Note_on_c, 0, 79, 0
2, 53136, Note_on_c, 0, 76, 75
2, 53160, Note_on_c, 0, 76, 0
2, 53160, Note_on_c, 0, 73, 75
2, 53183, Note_on_c, 0, 73, 0
2, 53184, Note_on_c, 0, 73, 75
2, 53196, Note_on_c, 0, 73, 0
2, 53196, Note_on_c, 0, 74, 75
2, 53229, Note_on_c, 0, 74, 0
2, 53232, Note_on_c, 0, 73, 75
2, 53244, Note_on_c, 0, 73, 0
2, 53244, Note_on_c, 0, 74, 75
2, 53277, Note_on_c, 0, 74, 0
2, 53280, Note_on_c, 0, 75, 75
2, 53292, Note_on_c, 0, 75, 0
2, 53292, Note_on_c, 0, 76, 75
2, 53325, Note_on_c, 0, 76, 0
2, 53328, Note_on_c, 0, 75, 75
2, 53340, Note_on_c, 0, 75, 0
2, 53340, Note_on_c, 0, 76, 75
2, 53373, Note_on_c, 0, 76, 0
2, 53376, Note_on_c, 0, 77, 75
2, 53388, Note_on_c, 0, 77, 0
2, 53388, Note_on_c, 0, 78, 75
2, 53421, Note_on_c, 0, 78, 0
2, 53424, Note_on_c, 0, 77, 75
2, 53436, Note_on_c, 0, 77, 0
2, 53436, Note_on_c, 0, 78, 75
2, 53469, Note_on_c, 0, 78, 0
2, 53472, Note_on_c, 0, 79, 75
2, 53481, Note_on_c, 0, 79, 0
2, 53481, Note_on_c, 0, 81, 75
2, 53490, Note_on_c, 0, 81, 0
2, 53490, Note_on_c, 0, 79, 75
2, 53499, Note_on_c, 0, 79, 0
2, 53499, Note_on_c, 0, 81, 75
2, 53508, Note_on_c, 0, 81, 0
2, 53508, Note_on_c, 0, 79, 75
2, 53517, Note_on_c, 0, 79, 0
2, 53517, Note_on_c, 0, 81, 75
2, 53526, Note_on_c, 0, 81, 0
2, 53526, Note_on_c, 0, 79, 75
2, 53535, Note_on_c, 0, 79, 0
2, 53535, Note_on_c, 0, 81, 75
2, 53544, Note_on_c, 0, 81, 0
2, 53544, Note_on_c, 0, 79, 75
2, 53552, Note_on_c, 0, 79, 0
2, 53552, Note_on_c, 0, 78, 75
2, 53560, Note_on_c, 0, 78, 0
2, 53560, Note_on_c, 0, 79, 75
2, 53568, Note_on_c, 0, 79, 0
2, 53568, Note_on_c, 0, 77, 75
2, 53580, Note_on_c, 0, 77, 0
2, 53580, Note_on_c, 0, 78, 75
2, 53613, Note_on_c, 0, 78, 0
2, 53616, Note_on_c, 0, 77, 75
2, 53628, Note_on_c, 0, 77, 0
2, 53628, Note_on_c, 0, 78, 75
2, 53661, Note_on_c, 0, 78, 0
2, 53664, Note_on_c, 0, 79, 75
2, 53673, Note_on_c, 0, 79, 0
2, 53673, Note_on_c, 0, 81, 75
2, 53682, Note_on_c, 0, 81, 0
2, 53682, Note_on_c, 0, 79, 75
2, 53691, Note_on_c, 0, 79, 0
2, 53691, Note_on_c, 0, 81, 75
2, 53700, Note_on_c, 0, 81, 0
2, 53700, Note_on_c, 0, 79, 75
2, 53709, Note_on_c, 0, 79, 0
2, 53709, Note_on_c, 0, 81, 75
2, 53718, Note_on_c, 0, 81, 0
2, 53718, Note_on_c, 0, 79, 75
2, 53727, Note_on_c, 0, 79, 0
2, 53727, Note_on_c, 0, 81, 75
2, 53736, Note_on_c, 0, 81, 0
2, 53736, Note_on_c, 0, 79, 75
2, 53744, Note_on_c, 0, 79, 0
2, 53744, Note_on_c, 0, 81, 75
2, 53752, Note_on_c, 0, 81, 0
2, 53752, Note_on_c, 0, 79, 75
2, 53760, Note_on_c, 0, 79, 0
2, 53760, Note_on_c, 0, 77, 75
2, 53775, Note_on_c, 0, 77, 0
2, 53776, Note_on_c, 0, 78, 75
2, 53791, Note_on_c, 0, 78, 0
2, 53792, Note_on_c, 0, 81, 75
2, 53807, Note_on_c, 0, 81, 0
2, 53808, Note_on_c, 0, 77, 75
2, 53823, Note_on_c, 0, 77, 0
2, 53824, Note_on_c, 0, 78, 75
2, 53839, Note_on_c, 0, 78, 0
2, 53840, Note_on_c, 0, 81, 75
2, 53855, Note_on_c, 0, 81, 0
2, 53856, Note_on_c, 0, 73, 75
2, 53871, Note_on_c, 0, 73, 0
2, 53872, Note_on_c, 0, 74, 75
2, 53887, Note_on_c, 0, 74, 0
2, 53888, Note_on_c, 0, 78, 75
2, 53903, Note_on_c, 0, 78, 0
2, 53904, Note_on_c, 0, 73, 75
2, 53919, Note_on_c, 0, 73, 0
2, 53920, Note_on_c, 0, 74, 75
2, 53935, Note_on_c, 0, 74, 0
2, 53936, Note_on_c, 0, 78, 75
2, 53951, Note_on_c, 0, 78, 0
2, 53952, Note_on_c, 0, 70, 75
2, 53967, Note_on_c, 0, 70, 0
2, 53968, Note_on_c, 0, 71, 75
2, 53983, Note_on_c, 0, 71, 0
2, 53984, Note_on_c, 0, 74, 75
2, 53999, Note_on_c, 0, 74, 0
2, 54000, Note_on_c, 0, 70, 75
2, 54015, Note_on_c, 0, 70, 0
2, 54016, Note_on_c, 0, 71, 75
2, 54031, Note_on_c, 0, 71, 0
2, 54032, Note_on_c, 0, 74, 75
2, 54047, Note_on_c, 0, 74, 0
2, 54048, Note_on_c, 0, 75, 75
2, 54063, Note_on_c, 0, 75, 0
2, 54064, Note_on_c, 0, 76, 75
2, 54079, Note_on_c, 0, 76, 0
2, 54080, Note_on_c, 0, 79, 75
2, 54095, Note_on_c, 0, 79, 0
2, 54096, Note_on_c, 0, 75, 75
2, 54111, Note_on_c, 0, 75, 0
2, 54112, Note_on_c, 0, 76, 75
2, 54127, Note_on_c, 0, 76, 0
2, 54128, Note_on_c, 0, 79, 75
2, 54143, Note_on_c, 0, 79, 0
2, 54144, Note_on_c, 0, 69, 75
2, 54233, Note_on_c, 0, 69, 0
2, 54240, Note_on_c, 0, 76, 75
2, 54249, Note_on_c, 0, 76, 0
2, 54249, Note_on_c, 0, 78, 75
2, 54258, Note_on_c, 0, 78, 0
2, 54258, Note_on_c, 0, 76, 75
2, 54267, Note_on_c, 0, 76, 0
2, 54267, Note_on_c, 0, 78, 75
2, 54276, Note_on_c, 0, 78, 0
2, 54276, Note_on_c, 0, 76, 75
2, 54285, Note_on_c, 0, 76, 0
2, 54285, Note_on_c, 0, 78, 75
2, 54294, Note_on_c, 0, 78, 0
2, 54294, Note_on_c, 0, 76, 75
2, 54303, Note_on_c, 0, 76, 0
2, 54303, Note_on_c, 0, 78, 75
2, 54312, Note_on_c, 0, 78, 0
2, 54312, Note_on_c, 0, 76, 75
2, 54320, Note_on_c, 0, 76, 0
2, 54320, Note_on_c, 0, 78, 75
2, 54328, Note_on_c, 0, 78, 0
2, 54328, Note_on_c, 0, 76, 75
2, 54336, Note_on_c, 0, 76, 0
2, 54336, Note_on_c, 0, 73, 75
2, 54351, Note_on_c, 0, 73, 0
2, 54352, Note_on_c, 0, 74, 75
2, 54367, Note_on_c, 0, 74, 0
2, 54368, Note_on_c, 0, 78, 75
2, 54383, Note_on_c, 0, 78, 0
2, 54384, Note_on_c, 0, 73, 75
2, 54399, Note_on_c, 0, 73, 0
2, 54400, Note_on_c, 0, 74, 75
2, 54415, Note_on_c, 0, 74, 0
2, 54416, Note_on_c, 0, 78, 75
2, 54431, Note_on_c, 0, 78, 0
2, 54432, Note_on_c, 0, 70, 75
2, 54447, Note_on_c, 0, 70, 0
2, 54448, Note_on_c, 0, 71, 75
2, 54463, Note_on_c, 0, 71, 0
2, 54464, Note_on_c, 0, 74, 75
2, 54479, Note_on_c, 0, 74, 0
2, 54480, Note_on_c, 0, 70, 75
2, 54495, Note_on_c, 0, 70, 0
2, 54496, Note_on_c, 0, 71, 75
2, 54511, Note_on_c, 0, 71, 0
2, 54512, Note_on_c, 0, 74, 75
2, 54527, Note_on_c, 0, 74, 0
2, 54528, Note_on_c, 0, 66, 75
2, 54543, Note_on_c, 0, 66, 0
2, 54544, Note_on_c, 0, 67, 75
2, 54559, Note_on_c, 0, 67, 0
2, 54560, Note_on_c, 0, 71, 75
2, 54575, Note_on_c, 0, 71, 0
2, 54576, Note_on_c, 0, 66, 75
2, 54591, Note_on_c, 0, 66, 0
2, 54592, Note_on_c, 0, 67, 75
2, 54607, Note_on_c, 0, 67, 0
2, 54608, Note_on_c, 0, 71, 75
2, 54623, Note_on_c, 0, 71, 0
2, 54624, Note_on_c, 0, 63, 75
2, 54639, Note_on_c, 0, 63, 0
2, 54640, Note_on_c, 0, 64, 75
2, 54655, Note_on_c, 0, 64, 0
2, 54656, Note_on_c, 0, 67, 75
2, 54671, Note_on_c, 0, 67, 0
2, 54672, Note_on_c, 0, 63, 75
2, 54687, Note_on_c, 0, 63, 0
2, 54688, Note_on_c, 0, 64, 75
2, 54703, Note_on_c, 0, 64, 0
2, 54704, Note_on_c, 0, 67, 75
2, 54719, Note_on_c, 0, 67, 0
2, 54720, Note_on_c, 0, 57, 75
2, 54809, Note_on_c, 0, 57, 0
2, 54816, Note_on_c, 0, 64, 75
2, 54825, Note_on_c, 0, 64, 0
2, 54825, Note_on_c, 0, 66, 75
2, 54834, Note_on_c, 0, 66, 0
2, 54834, Note_on_c, 0, 64, 75
2, 54843, Note_on_c, 0, 64, 0
2, 54843, Note_on_c, 0, 66, 75
2, 54852, Note_on_c, 0, 66, 0
2, 54852, Note_on_c, 0, 64, 75
2, 54861, Note_on_c, 0, 64, 0
2, 54861, Note_on_c, 0, 66, 75
2, 54870, Note_on_c, 0, 66, 0
2, 54870, Note_on_c, 0, 64, 75
2, 54879, Note_on_c, 0, 64, 0
2, 54879, Note_on_c, 0, 66, 75
2, 54888, Note_on_c, 0, 66, 0
2, 54888, Note_on_c, 0, 64, 75
2, 54896, Note_on_c, 0, 64, 0
2, 54896, Note_on_c, 0, 62, 75
2, 54904, Note_on_c, 0, 62, 0
2, 54904, Note_on_c, 0, 64, 75
2, 54912, Note_on_c, 0, 64, 0
2, 54912, Note_on_c, 0, 62, 75
2, 54957, Note_on_c, 0, 62, 0
2, 55008, Note_on_c, 0, 69, 69
2, 55031, Note_on_c, 0, 69, 0
2, 55032, Note_on_c, 0, 67, 69
2, 55055, Note_on_c, 0, 67, 0
2, 55056, Note_on_c, 0, 64, 69
2, 55090, Note_on_c, 0, 64, 0
2, 55092, Note_on_c, 0, 61, 69
2, 55104, Note_on_c, 0, 61, 0
2, 55104, Note_on_c, 0, 62, 69
2, 55149, Note_on_c, 0, 62, 0
2, 55200, Note_on_c, 0, 81, 61
2, 55223, Note_on_c, 0, 81, 0
2, 55224, Note_on_c, 0, 79, 61
2, 55247, Note_on_c, 0, 79, 0
2, 55248, Note_on_c, 0, 76, 61
2, 55282, Note_on_c, 0, 76, 0
2, 55284, Note_on_c, 0, 73, 61
2, 55296, Note_on_c, 0, 73, 0
2, 55296, Note_on_c, 0, 74, 61
2, 55385, Note_on_c, 0, 74, 0
2, 55392, Note_on_c, 0, 38, 75
2, 55459, Note_on_c, 0, 38, 0
2, 55464, Note_on_c, 0, 38, 75
2, 55487, Note_on_c, 0, 38, 0
2, 55488, Control_c, 0, 64, 127
2, 55488, Note_on_c, 0, 38, 75
2, 55621, Note_on_c, 0, 38, 0
2, 55632, Control_c, 0, 64, 0
2, 55668, Note_on_c, 0, 64, 75
2, 55680, Note_on_c, 0, 64, 0
2, 55680, Note_on_c, 0, 73, 75
2, 55810, Note_on_c, 0, 73, 0
2, 55812, Note_on_c, 0, 64, 80
2, 55824, Note_on_c, 0, 64, 0
2, 55824, Note_on_c, 0, 74, 80
2, 55858, Note_on_c, 0, 74, 0
2, 55860, Note_on_c, 0, 64, 82
2, 55872, Note_on_c, 0, 64, 0
2, 55872, Note_on_c, 0, 73, 82
2, 55906, Note_on_c, 0, 73, 0
2, 55908, Note_on_c, 0, 64, 84
2, 55920, Note_on_c, 0, 64, 0
2, 55920, Note_on_c, 0, 71, 83
2, 55954, Note_on_c, 0, 71, 0
2, 55956, Note_on_c, 0, 64, 81
2, 55968, Note_on_c, 0, 64, 0
2, 55968, Note_on_c, 0, 69, 80
2, 56002, Note_on_c, 0, 69, 0
2, 56004, Note_on_c, 0, 64, 78
2, 56016, Note_on_c, 0, 64, 0
2, 56016, Note_on_c, 0, 71, 77
2, 56050, Note_on_c, 0, 71, 0
2, 56052, Note_on_c, 0, 64, 75
2, 56064, Note_on_c, 0, 64, 0
2, 56064, Note_on_c, 0, 73, 75
2, 56194, Note_on_c, 0, 73, 0
2, 56196, Note_on_c, 0, 64, 80
2, 56208, Note_on_c, 0, 64, 0
2, 56208, Note_on_c, 0, 74, 80
2, 56242, Note_on_c, 0, 74, 0
2, 56244, Note_on_c, 0, 64, 82
2, 56256, Note_on_c, 0, 64, 0
2, 56256, Note_on_c, 0, 73, 82
2, 56290, Note_on_c, 0, 73, 0
2, 56292, Note_on_c, 0, 64, 84
2, 56304, Note_on_c, 0, 64, 0
2, 56304, Note_on_c, 0, 71, 83
2, 56338, Note_on_c, 0, 71, 0
2, 56340, Note_on_c, 0, 64, 81
2, 56352, Note_on_c, 0, 64, 0
2, 56352, Note_on_c, 0, 69, 80
2, 56386, Note_on_c, 0, 69, 0
2, 56388, Note_on_c, 0, 64, 78
2, 56400, Note_on_c, 0, 64, 0
2, 56400, Note_on_c, 0, 71, 77
2, 56434, Note_on_c, 0, 71, 0
2, 56436, Note_on_c, 0, 64, 75
2, 56448, Note_on_c, 0, 64, 0
2, 56448, Note_on_c, 0, 73, 75
2, 56482, Note_on_c, 0, 73, 0
2, 56484, Note_on_c, 0, 64, 77
2, 56496, Note_on_c, 0, 64, 0
2, 56496, Note_on_c, 0, 74, 78
2, 56530, Note_on_c, 0, 74, 0
2, 56532, Note_on_c, 0, 64, 80
2, 56544, Note_on_c, 0, 64, 0
2, 56544, Note_on_c, 0, 76, 81
2, 56564, Note_on_c, 0, 76, 0
2, 56640, Note_on_c, 0, 73, 75
2, 56655, Note_on_c, 0, 73, 0
2, 56656, Note_on_c, 0, 69, 75
2, 56671, Note_on_c, 0, 69, 0
2, 56672, Note_on_c, 0, 64, 76
2, 56687, Note_on_c, 0, 64, 0
2, 56688, Note_on_c, 0, 74, 77
2, 56703, Note_on_c, 0, 74, 0
2, 56704, Note_on_c, 0, 71, 78
2, 56719, Note_on_c, 0, 71, 0
2, 56720, Note_on_c, 0, 64, 78
2, 56735, Note_on_c, 0, 64, 0
2, 56736, Note_on_c, 0, 76, 79
2, 56756, Note_on_c, 0, 76, 0
2, 56832, Note_on_c, 0, 83, 75
2, 56844, Note_on_c, 0, 83, 0
2, 56844, Note_on_c, 0, 81, 75
2, 56856, Note_on_c, 0, 81, 0
2, 56856, Note_on_c, 0, 80, 75
2, 56868, Note_on_c, 0, 80, 0
2, 56868, Note_on_c, 0, 81, 75
2, 56965, Note_on_c, 0, 81, 0
2, 56976, Note_on_c, 0, 69, 75
2, 57021, Note_on_c, 0, 69, 0
2, 57024, Note_on_c, 0, 70, 75
2, 57072, Note_on_c, 0, 70, 0
2, 57072, Note_on_c, 0, 71, 75
2, 57205, Note_on_c, 0, 71, 0
2, 57216, Note_on_c, 0, 86, 75
2, 57360, Note_on_c, 0, 86, 0
2, 57360, Note_on_c, 0, 74, 75
2, 57405, Note_on_c, 0, 74, 0
2, 57408, Note_on_c, 0, 73, 75
2, 57420, Note_on_c, 0, 73, 0
2, 57420, Note_on_c, 0, 71, 75
2, 57432, Note_on_c, 0, 71, 0
2, 57432, Note_on_c, 0, 69, 75
2, 57444, Note_on_c, 0, 69, 0
2, 57444, Note_on_c, 0, 71, 75
2, 57456, Note_on_c, 0, 71, 0
2, 57456, Note_on_c, 0, 69, 75
2, 57476, Note_on_c, 0, 69, 0
2, 57600, Note_on_c, 0, 81, 75
2, 57624, Note_on_c, 0, 81, 0
2, 57624, Note_on_c, 0, 69, 75
2, 57647, Note_on_c, 0, 69, 0
2, 57648, Note_on_c, 0, 81, 75
2, 57658, Note_on_c, 0, 81, 0
2, 57672, Note_on_c, 0, 81, 75
2, 57682, Note_on_c, 0, 81, 0
2, 57696, Note_on_c, 0, 81, 75
2, 57706, Note_on_c, 0, 81, 0
2, 57720, Note_on_c, 0, 81, 75
2, 57730, Note_on_c, 0, 81, 0
2, 57744, Note_on_c, 0, 81, 75
2, 57754, Note_on_c, 0, 81, 0
2, 57768, Note_on_c, 0, 81, 75
2, 57778, Note_on_c, 0, 81, 0
2, 57792, Note_on_c, 0, 81, 75
2, 57815, Note_on_c, 0, 81, 0
2, 57816, Note_on_c, 0, 69, 75
2, 57839, Note_on_c, 0, 69, 0
2, 57840, Note_on_c, 0, 79, 75
2, 57863, Note_on_c, 0, 79, 0
2, 57864, Note_on_c, 0, 67, 75
2, 57887, Note_on_c, 0, 67, 0
2, 57888, Note_on_c, 0, 78, 75
2, 57911, Note_on_c, 0, 78, 0
2, 57912, Note_on_c, 0, 66, 75
2, 57935, Note_on_c, 0, 66, 0
2, 57936, Note_on_c, 0, 76, 75
2, 57959, Note_on_c, 0, 76, 0
2, 57960, Note_on_c, 0, 64, 75
2, 57983, Note_on_c, 0, 64, 0
2, 57984, Note_on_c, 0, 75, 75
2, 58073, Note_on_c, 0, 75, 0
2, 58128, Note_on_c, 0, 66, 75
2, 58128, Note_on_c, 0, 63, 75
2, 58148, Note_on_c, 0, 66, 0
2, 58148, Note_on_c, 0, 63, 0
2, 58176, Note_on_c, 0, 67, 75
2, 58176, Note_on_c, 0, 64, 75
2, 58196, Note_on_c, 0, 67, 0
2, 58196, Note_on_c, 0, 64, 0
2, 58224, Note_on_c, 0, 66, 75
2, 58224, Note_on_c, 0, 63, 75
2, 58244, Note_on_c, 0, 66, 0
2, 58244, Note_on_c, 0, 63, 0
2, 58272, Note_on_c, 0, 67, 75
2, 58272, Note_on_c, 0, 64, 75
2, 58292, Note_on_c, 0, 67, 0
2, 58292, Note_on_c, 0, 64, 0
2, 58320, Note_on_c, 0, 71, 75
2, 58332, Note_on_c, 0, 71, 0
2, 58332, Note_on_c, 0, 69, 75
2, 58344, Note_on_c, 0, 69, 0
2, 58344, Note_on_c, 0, 67, 75
2, 58356, Note_on_c, 0, 67, 0
2, 58356, Note_on_c, 0, 69, 75
2, 58368, Note_on_c, 0, 69, 0
2, 58368, Note_on_c, 0, 71, 75
2, 58368, Note_on_c, 0, 67, 75
2, 58457, Note_on_c, 0, 71, 0
2, 58457, Note_on_c, 0, 67, 0
2, 58512, Note_on_c, 0, 83, 75
2, 58532, Note_on_c, 0, 83, 0
2, 58560, Note_on_c, 0, 81, 75
2, 58580, Note_on_c, 0, 81, 0
2, 58608, Note_on_c, 0, 79, 75
2, 58628, Note_on_c, 0, 79, 0
2, 58656, Note_on_c, 0, 78, 75
2, 58676, Note_on_c, 0, 78, 0
2, 58704, Note_on_c, 0, 76, 75
2, 58724, Note_on_c, 0, 76, 0
2, 58752, Note_on_c, 0, 75, 75
2, 58752, Note_on_c, 0, 71, 75
2, 58841, Note_on_c, 0, 75, 0
2, 58841, Note_on_c, 0, 71, 0
2, 58896, Note_on_c, 0, 66, 75
2, 58896, Note_on_c, 0, 63, 75
2, 58916, Note_on_c, 0, 66, 0
2, 58916, Note_on_c, 0, 63, 0
2, 58944, Note_on_c, 0, 67, 75
2, 58944, Note_on_c, 0, 64, 75
2, 58964, Note_on_c, 0, 67, 0
2, 58964, Note_on_c, 0, 64, 0
2, 58992, Note_on_c, 0, 66, 75
2, 58992, Note_on_c, 0, 63, 75
2, 59012, Note_on_c, 0, 66, 0
2, 59012, Note_on_c, 0, 63, 0
2, 59040, Note_on_c, 0, 67, 75
2, 59040, Note_on_c, 0, 64, 75
2, 59060, Note_on_c, 0, 67, 0
2, 59060, Note_on_c, 0, 64, 0
2, 59088, Note_on_c, 0, 71, 75
2, 59100, Note_on_c, 0, 71, 0
2, 59100, Note_on_c, 0, 69, 75
2, 59112, Note_on_c, 0, 69, 0
2, 59112, Note_on_c, 0, 67, 75
2, 59124, Note_on_c, 0, 67, 0
2, 59124, Note_on_c, 0, 69, 75
2, 59136, Note_on_c, 0, 69, 0
2, 59136, Note_on_c, 0, 71, 75
2, 59136, Note_on_c, 0, 67, 75
2, 59225, Note_on_c, 0, 71, 0
2, 59225, Note_on_c, 0, 67, 0
2, 59280, Note_on_c, 0, 83, 75
2, 59300, Note_on_c, 0, 83, 0
2, 59328, Note_on_c, 0, 81, 75
2, 59348, Note_on_c, 0, 81, 0
2, 59376, Note_on_c, 0, 79, 75
2, 59396, Note_on_c, 0, 79, 0
2, 59424, Note_on_c, 0, 78, 75
2, 59444, Note_on_c, 0, 78, 0
2, 59472, Note_on_c, 0, 76, 75
2, 59492, Note_on_c, 0, 76, 0
2, 59520, Note_on_c, 0, 75, 75
2, 59520, Note_on_c, 0, 71, 75
2, 59609, Note_on_c, 0, 75, 0
2, 59609, Note_on_c, 0, 71, 0
2, 59712, Note_on_c, 0, 72, 75
2, 59735, Note_on_c, 0, 72, 0
2, 59736, Note_on_c, 0, 60, 75
2, 59759, Note_on_c, 0, 60, 0
2, 59760, Note_on_c, 0, 72, 75
2, 59770, Note_on_c, 0, 72, 0
2, 59784, Note_on_c, 0, 72, 75
2, 59808, Note_on_c, 0, 72, 0
2, 59808, Note_on_c, 0, 75, 75
2, 59831, Note_on_c, 0, 75, 0
2, 59832, Note_on_c, 0, 63, 75
2, 59855, Note_on_c, 0, 63, 0
2, 59856, Note_on_c, 0, 75, 75
2, 59866, Note_on_c, 0, 75, 0
2, 59880, Note_on_c, 0, 75, 75
2, 59904, Note_on_c, 0, 75, 0
2, 59904, Note_on_c, 0, 76, 75
2, 59927, Note_on_c, 0, 76, 0
2, 59928, Note_on_c, 0, 64, 75
2, 59951, Note_on_c, 0, 64, 0
2, 59952, Note_on_c, 0, 76, 75
2, 59962, Note_on_c, 0, 76, 0
2, 59976, Note_on_c, 0, 76, 75
2, 60000, Note_on_c, 0, 76, 0
2, 60000, Note_on_c, 0, 78, 75
2, 60023, Note_on_c, 0, 78, 0
2, 60024, Note_on_c, 0, 66, 75
2, 60047, Note_on_c, 0, 66, 0
2, 60048, Note_on_c, 0, 78, 76
2, 60058, Note_on_c, 0, 78, 0
2, 60072, Note_on_c, 0, 78, 76
2, 60096, Note_on_c, 0, 78, 0
2, 60096, Note_on_c, 0, 79, 77
2, 60119, Note_on_c, 0, 79, 0
2, 60120, Note_on_c, 0, 67, 78
2, 60143, Note_on_c, 0, 67, 0
2, 60144, Note_on_c, 0, 79, 78
2, 60154, Note_on_c, 0, 79, 0
2, 60168, Note_on_c, 0, 79, 79
2, 60192, Note_on_c, 0, 79, 0
2, 60192, Note_on_c, 0, 82, 80
2, 60215, Note_on_c, 0, 82, 0
2, 60216, Note_on_c, 0, 70, 80
2, 60239, Note_on_c, 0, 70, 0
2, 60240, Note_on_c, 0, 82, 81
2, 60250, Note_on_c, 0, 82, 0
2, 60264, Note_on_c, 0, 82, 82
2, 60288, Note_on_c, 0, 82, 0
2, 60288, Note_on_c, 0, 83, 82
2, 60311, Note_on_c, 0, 83, 0
2, 60312, Note_on_c, 0, 71, 83
2, 60335, Note_on_c, 0, 71, 0
2, 60336, Note_on_c, 0, 83, 84
2, 60346, Note_on_c, 0, 83, 0
2, 60360, Note_on_c, 0, 83, 84
2, 60384, Note_on_c, 0, 83, 0
2, 60384, Note_on_c, 0, 85, 85
2, 60407, Note_on_c, 0, 85, 0
2, 60408, Note_on_c, 0, 73, 86
2, 60431, Note_on_c, 0, 73, 0
2, 60432, Note_on_c, 0, 85, 86
2, 60442, Note_on_c, 0, 85, 0
2, 60456, Note_on_c, 0, 85, 87
2, 60480, Note_on_c, 0, 85, 0
2, 60480, Note_on_c, 0, 86, 88
2, 60503, Note_on_c, 0, 86, 0
2, 60504, Note_on_c, 0, 74, 88
2, 60527, Note_on_c, 0, 74, 0
2, 60528, Note_on_c, 0, 83, 89
2, 60551, Note_on_c, 0, 83, 0
2, 60552, Note_on_c, 0, 83, 90
2, 60575, Note_on_c, 0, 83, 0
2, 60576, Note_on_c, 0, 83, 90
2, 60599, Note_on_c, 0, 83, 0
2, 60600, Note_on_c, 0, 74, 90
2, 60623, Note_on_c, 0, 74, 0
2, 60624, Note_on_c, 0, 83, 90
2, 60647, Note_on_c, 0, 83, 0
2, 60648, Note_on_c, 0, 83, 90
2, 60671, Note_on_c, 0, 83, 0
2, 60672, Note_on_c, 0, 83, 90
2, 60695, Note_on_c, 0, 83, 0
2, 60696, Note_on_c, 0, 71, 90
2, 60719, Note_on_c, 0, 71, 0
2, 60720, Note_on_c, 0, 83, 90
2, 60743, Note_on_c, 0, 83, 0
2, 60744, Note_on_c, 0, 83, 90
2, 60767, Note_on_c, 0, 83, 0
2, 60768, Note_on_c, 0, 83, 90
2, 60791, Note_on_c, 0, 83, 0
2, 60792, Note_on_c, 0, 71, 90
2, 60815, Note_on_c, 0, 71, 0
2, 60816, Note_on_c, 0, 83, 90
2, 60839, Note_on_c, 0, 83, 0
2, 60840, Note_on_c, 0, 83, 90
2, 60863, Note_on_c, 0, 83, 0
2, 60864, Note_on_c, 0, 82, 90
2, 60879, Note_on_c, 0, 82, 0
2, 60880, Note_on_c, 0, 83, 90
2, 60895, Note_on_c, 0, 83, 0
2, 60896, Note_on_c, 0, 86, 90
2, 60911, Note_on_c, 0, 86, 0
2, 60912, Note_on_c, 0, 82, 90
2, 60927, Note_on_c, 0, 82, 0
2, 60928, Note_on_c, 0, 83, 90
2, 60943, Note_on_c, 0, 83, 0
2, 60944, Note_on_c, 0, 86, 90
2, 60959, Note_on_c, 0, 86, 0
2, 60960, Note_on_c, 0, 77, 90
2, 60975, Note_on_c, 0, 77, 0
2, 60976, Note_on_c, 0, 78, 90
2, 60991, Note_on_c, 0, 78, 0
2, 60992, Note_on_c, 0, 83, 90
2, 61007, Note_on_c, 0, 83, 0
2, 61008, Note_on_c, 0, 77, 90
2, 61023, Note_on_c, 0, 77, 0
2, 61024, Note_on_c, 0, 78, 90
2, 61039, Note_on_c, 0, 78, 0
2, 61040, Note_on_c, 0, 83, 90
2, 61055, Note_on_c, 0, 83, 0
2, 61056, Note_on_c, 0, 73, 90
2, 61071, Note_on_c, 0, 73, 0
2, 61072, Note_on_c, 0, 74, 89
2, 61087, Note_on_c, 0, 74, 0
2, 61088, Note_on_c, 0, 78, 88
2, 61103, Note_on_c, 0, 78, 0
2, 61104, Note_on_c, 0, 73, 88
2, 61119, Note_on_c, 0, 73, 0
2, 61120, Note_on_c, 0, 74, 87
2, 61135, Note_on_c, 0, 74, 0
2, 61136, Note_on_c, 0, 78, 86
2, 61151, Note_on_c, 0, 78, 0
2, 61152, Note_on_c, 0, 70, 86
2, 61167, Note_on_c, 0, 70, 0
2, 61168, Note_on_c, 0, 71, 85
2, 61183, Note_on_c, 0, 71, 0
2, 61184, Note_on_c, 0, 74, 85
2, 61199, Note_on_c, 0, 74, 0
2, 61200, Note_on_c, 0, 70, 84
2, 61215, Note_on_c, 0, 70, 0
2, 61216, Note_on_c, 0, 71, 83
2, 61231, Note_on_c, 0, 71, 0
2, 61232, Note_on_c, 0, 74, 83
2, 61247, Note_on_c, 0, 74, 0
2, 61248, Note_on_c, 0, 65, 82
2, 61367, Note_on_c, 0, 65, 0
2, 61368, Note_on_c, 0, 70, 75
2, 61391, Note_on_c, 0, 70, 0
2, 61392, Note_on_c, 0, 71, 75
2, 61415, Note_on_c, 0, 71, 0
2, 61416, Note_on_c, 0, 74, 75
2, 61439, Note_on_c, 0, 74, 0
2, 61440, Note_on_c, 0, 65, 75
2, 61559, Note_on_c, 0, 65, 0
2, 61560, Note_on_c, 0, 70, 75
2, 61583, Note_on_c, 0, 70, 0
2, 61584, Note_on_c, 0, 71, 75
2, 61607, Note_on_c, 0, 71, 0
2, 61608, Note_on_c, 0, 74, 75
2, 61631, Note_on_c, 0, 74, 0
2, 61632, Note_on_c, 0, 64, 75
2, 61751, Note_on_c, 0, 64, 0
2, 61752, Note_on_c, 0, 73, 75
2, 61775, Note_on_c, 0, 73, 0
2, 61776, Note_on_c, 0, 70, 75
2, 61799, Note_on_c, 0, 70, 0
2, 61800, Note_on_c, 0, 64, 75
2, 61823, Note_on_c, 0, 64, 0
2, 61824, Note_on_c, 0, 62, 75
2, 61943, Note_on_c, 0, 62, 0
2, 61944, Note_on_c, 0, 78, 75
2, 61967, Note_on_c, 0, 78, 0
2, 61968, Note_on_c, 0, 74, 75
2, 61991, Note_on_c, 0, 74, 0
2, 61992, Note_on_c, 0, 71, 75
2, 62015, Note_on_c, 0, 71, 0
2, 62016, Note_on_c, 0, 71, 75
2, 62112, Note_on_c, 0, 71, 0
2, 62112, Note_on_c, 0, 70, 75
2, 62135, Note_on_c, 0, 70, 0
2, 62136, Note_on_c, 0, 78, 75
2, 62159, Note_on_c, 0, 78, 0
2, 62160, Note_on_c, 0, 73, 75
2, 62183, Note_on_c, 0, 73, 0
2, 62184, Note_on_c, 0, 70, 75
2, 62207, Note_on_c, 0, 70, 0
2, 62208, Note_on_c, 0, 73, 75
2, 62304, Note_on_c, 0, 73, 0
2, 62304, Note_on_c, 0, 71, 75
2, 62327, Note_on_c, 0, 71, 0
2, 62328, Note_on_c, 0, 78, 75
2, 62351, Note_on_c, 0, 78, 0
2, 62352, Note_on_c, 0, 71, 75
2, 62375, Note_on_c, 0, 71, 0
2, 62376, Note_on_c, 0, 69, 75
2, 62399, Note_on_c, 0, 69, 0
2, 62400, Note_on_c, 0, 69, 75
2, 62496, Note_on_c, 0, 69, 0
2, 62496, Note_on_c, 0, 67, 75
2, 62519, Note_on_c, 0, 67, 0
2, 62520, Note_on_c, 0, 83, 75
2, 62543, Note_on_c, 0, 83, 0
2, 62544, Note_on_c, 0, 79, 75
2, 62567, Note_on_c, 0, 79, 0
2, 62568, Note_on_c, 0, 76, 75
2, 62591, Note_on_c, 0, 76, 0
2, 62592, Note_on_c, 0, 74, 75
2, 62688, Note_on_c, 0, 74, 0
2, 62688, Note_on_c, 0, 73, 75
2, 62711, Note_on_c, 0, 73, 0
2, 62712, Note_on_c, 0, 76, 75
2, 62735, Note_on_c, 0, 76, 0
2, 62736, Note_on_c, 0, 73, 75
2, 62759, Note_on_c, 0, 73, 0
2, 62760, Note_on_c, 0, 69, 75
2, 62783, Note_on_c, 0, 69, 0
2, 62784, Note_on_c, 0, 67, 75
2, 62880, Note_on_c, 0, 67, 0
2, 62880, Note_on_c, 0, 66, 75
2, 62890, Note_on_c, 0, 66, 0
2, 62904, Note_on_c, 0, 74, 75
2, 62904, Note_on_c, 0, 66, 75
2, 62914, Note_on_c, 0, 74, 0
2, 62914, Note_on_c, 0, 66, 0
2, 62928, Note_on_c, 0, 74, 75
2, 62928, Note_on_c, 0, 66, 75
2, 62938, Note_on_c, 0, 74, 0
2, 62938, Note_on_c, 0, 66, 0
2, 62952, Note_on_c, 0, 74, 75
2, 62952, Note_on_c, 0, 66, 75
2, 62962, Note_on_c, 0, 74, 0
2, 62962, Note_on_c, 0, 66, 0
2, 62976, Note_on_c, 0, 76, 75
2, 62976, Note_on_c, 0, 67, 75
2, 63043, Note_on_c, 0, 76, 0
2, 63043, Note_on_c, 0, 67, 0
2, 63048, Note_on_c, 0, 76, 77
2, 63048, Note_on_c, 0, 67, 77
2, 63071, Note_on_c, 0, 76, 0
2, 63071, Note_on_c, 0, 67, 0
2, 63072, Note_on_c, 0, 78, 78
2, 63072, Note_on_c, 0, 69, 78
2, 63139, Note_on_c, 0, 78, 0
2, 63139, Note_on_c, 0, 69, 0
2, 63144, Note_on_c, 0, 78, 80
2, 63144, Note_on_c, 0, 74, 80
2, 63144, Note_on_c, 0, 69, 80
2, 63167, Note_on_c, 0, 78, 0
2, 63167, Note_on_c, 0, 74, 0
2, 63167, Note_on_c, 0, 69, 0
2, 63168, Note_on_c, 0, 79, 81
2, 63168, Note_on_c, 0, 74, 81
2, 63168, Note_on_c, 0, 67, 81
2, 63235, Note_on_c, 0, 79, 0
2, 63235, Note_on_c, 0, 74, 0
2, 63235, Note_on_c, 0, 67, 0
2, 63240, Note_on_c, 0, 79, 84
2, 63240, Note_on_c, 0, 74, 84
2, 63263, Note_on_c, 0, 79, 0
2, 63263, Note_on_c, 0, 74, 0
2, 63264, Note_on_c, 0, 81, 84
2, 63264, Note_on_c, 0, 74, 84
2, 63331, Note_on_c, 0, 81, 0
2, 63331, Note_on_c, 0, 74, 0
2, 63336, Note_on_c, 0, 81, 84
2, 63336, Note_on_c, 0, 74, 84
2, 63359, Note_on_c, 0, 81, 0
2, 63359, Note_on_c, 0, 74, 0
2, 63360, Note_on_c, 0, 83, 84
2, 63360, Note_on_c, 0, 71, 84
2, 63427, Note_on_c, 0, 83, 0
2, 63427, Note_on_c, 0, 71, 0
2, 63432, Note_on_c, 0, 83, 84
2, 63432, Note_on_c, 0, 79, 84
2, 63455, Note_on_c, 0, 83, 0
2, 63455, Note_on_c, 0, 79, 0
2, 63456, Note_on_c, 0, 83, 84
2, 63456, Note_on_c, 0, 79, 84
2, 63523, Note_on_c, 0, 83, 0
2, 63523, Note_on_c, 0, 79, 0
2, 63528, Note_on_c, 0, 83, 84
2, 63528, Note_on_c, 0, 79, 84
2, 63551, Note_on_c, 0, 83, 0
2, 63551, Note_on_c, 0, 79, 0
2, 63552, Note_on_c, 0, 83, 84
2, 63552, Note_on_c, 0, 79, 84
2, 63619, Note_on_c, 0, 83, 0
2, 63619, Note_on_c, 0, 79, 0
2, 63624, Note_on_c, 0, 83, 84
2, 63624, Note_on_c, 0, 79, 84
2, 63647, Note_on_c, 0, 83, 0
2, 63647, Note_on_c, 0, 79, 0
2, 63648, Note_on_c, 0, 83, 84
2, 63648, Note_on_c, 0, 79, 84
2, 63715, Note_on_c, 0, 83, 0
2, 63715, Note_on_c, 0, 79, 0
2, 63720, Note_on_c, 0, 83, 84
2, 63720, Note_on_c, 0, 79, 84
2, 63743, Note_on_c, 0, 83, 0
2, 63743, Note_on_c, 0, 79, 0
2, 63744, Note_on_c, 0, 83, 84
2, 63744, Note_on_c, 0, 79, 84
2, 63768, Note_on_c, 0, 83, 0
2, 63768, Note_on_c, 0, 79, 0
2, 63768, Note_on_c, 0, 81, 84
2, 63768, Note_on_c, 0, 78, 84
2, 63791, Note_on_c, 0, 81, 0
2, 63791, Note_on_c, 0, 78, 0
2, 63792, Note_on_c, 0, 81, 84
2, 63792, Note_on_c, 0, 78, 84
2, 63816, Note_on_c, 0, 81, 0
2, 63816, Note_on_c, 0, 78, 0
2, 63816, Note_on_c, 0, 79, 84
2, 63816, Note_on_c, 0, 76, 84
2, 63839, Note_on_c, 0, 79, 0
2, 63839, Note_on_c, 0, 76, 0
2, 63840, Note_on_c, 0, 79, 84
2, 63840, Note_on_c, 0, 76, 84
2, 63864, Note_on_c, 0, 76, 0
2, 63864, Note_on_c, 0, 83, 84
2, 63887, Note_on_c, 0, 83, 0
2, 63887, Note_on_c, 0, 79, 0
2, 63888, Note_on_c, 0, 81, 84
2, 63888, Note_on_c, 0, 78, 84
2, 63912, Note_on_c, 0, 81, 0
2, 63912, Note_on_c, 0, 78, 0
2, 63912, Note_on_c, 0, 79, 84
2, 63912, Note_on_c, 0, 76, 84
2, 63935, Note_on_c, 0, 79, 0
2, 63935, Note_on_c, 0, 76, 0
2, 63936, Note_on_c, 0, 78, 84
2, 63981, Note_on_c, 0, 78, 0
2, 63984, Note_on_c, 0, 78, 84
2, 63994, Note_on_c, 0, 78, 0
2, 64008, Note_on_c, 0, 78, 84
2, 64018, Note_on_c, 0, 78, 0
2, 64032, Note_on_c, 0, 78, 84
2, 64077, Note_on_c, 0, 78, 0
2, 64080, Note_on_c, 0, 78, 84
2, 64090, Note_on_c, 0, 78, 0
2, 64104, Note_on_c, 0, 78, 84
2, 64114, Note_on_c, 0, 78, 0
2, 64128, Note_on_c, 0, 78, 84
2, 64173, Note_on_c, 0, 78, 0
2, 64176, Note_on_c, 0, 78, 84
2, 64186, Note_on_c, 0, 78, 0
2, 64200, Note_on_c, 0, 78, 84
2, 64210, Note_on_c, 0, 78, 0
2, 64224, Note_on_c, 0, 78, 84
2, 64269, Note_on_c, 0, 78, 0
2, 64272, Note_on_c, 0, 78, 84
2, 64282, Note_on_c, 0, 78, 0
2, 64296, Note_on_c, 0, 78, 84
2, 64306, Note_on_c, 0, 78, 0
2, 64320, Note_on_c, 0, 76, 84
2, 64365, Note_on_c, 0, 76, 0
2, 64368, Note_on_c, 0, 81, 84
2, 64413, Note_on_c, 0, 81, 0
2, 64416, Note_on_c, 0, 79, 84
2, 64461, Note_on_c, 0, 79, 0
2, 64464, Note_on_c, 0, 78, 84
2, 64509, Note_on_c, 0, 78, 0
2, 64512, Note_on_c, 0, 76, 84
2, 64557, Note_on_c, 0, 76, 0
2, 64560, Note_on_c, 0, 78, 84
2, 64605, Note_on_c, 0, 78, 0
2, 64608, Note_on_c, 0, 76, 84
2, 64653, Note_on_c, 0, 76, 0
2, 64656, Note_on_c, 0, 74, 84
2, 64701, Note_on_c, 0, 74, 0
2, 64704, Note_on_c, 0, 73, 84
2, 64704, Note_on_c, 0, 69, 84
2, 64749, Note_on_c, 0, 73, 0
2, 64749, Note_on_c, 0, 69, 0
2, 64752, Note_on_c, 0, 57, 84
2, 64764, Note_on_c, 0, 57, 0
2, 64764, Note_on_c, 0, 62, 84
2, 64776, Note_on_c, 0, 62, 0
2, 64776, Note_on_c, 0, 66, 84
2, 64788, Note_on_c, 0, 66, 0
2, 64788, Note_on_c, 0, 69, 84
2, 64800, Note_on_c, 0, 69, 0
2, 64800, Note_on_c, 0, 64, 84
2, 64812, Note_on_c, 0, 64, 0
2, 64812, Note_on_c, 0, 67, 84
2, 64824, Note_on_c, 0, 67, 0
2, 64824, Note_on_c, 0, 69, 84
2, 64848, Note_on_c, 0, 69, 0
2, 64848, Note_on_c, 0, 62, 84
2, 64860, Note_on_c, 0, 62, 0
2, 64860, Note_on_c, 0, 66, 85
2, 64872, Note_on_c, 0, 66, 0
2, 64872, Note_on_c, 0, 69, 85
2, 64896, Note_on_c, 0, 69, 0
2, 64896, Note_on_c, 0, 61, 85
2, 64908, Note_on_c, 0, 61, 0
2, 64908, Note_on_c, 0, 64, 85
2, 64920, Note_on_c, 0, 64, 0
2, 64920, Note_on_c, 0, 69, 85
2, 64944, Note_on_c, 0, 69, 0
2, 64944, Note_on_c, 0, 62, 85
2, 64956, Note_on_c, 0, 62, 0
2, 64956, Note_on_c, 0, 66, 85
2, 64968, Note_on_c, 0, 66, 0
2, 64968, Note_on_c, 0, 69, 86
2, 64992, Note_on_c, 0, 69, 0
2, 64992, Note_on_c, 0, 64, 86
2, 65004, Note_on_c, 0, 64, 0
2, 65004, Note_on_c, 0, 67, 86
2, 65016, Note_on_c, 0, 67, 0
2, 65016, Note_on_c, 0, 69, 86
2, 65040, Note_on_c, 0, 69, 0
2, 65040, Note_on_c, 0, 62, 86
2, 65052, Note_on_c, 0, 62, 0
2, 65052, Note_on_c, 0, 66, 86
2, 65064, Note_on_c, 0, 66, 0
2, 65064, Note_on_c, 0, 69, 87
2, 65088, Note_on_c, 0, 69, 0
2, 65088, Note_on_c, 0, 64, 87
2, 65100, Note_on_c, 0, 64, 0
2, 65100, Note_on_c, 0, 67, 87
2, 65112, Note_on_c, 0, 67, 0
2, 65112, Note_on_c, 0, 69, 87
2, 65136, Note_on_c, 0, 69, 0
2, 65136, Note_on_c, 0, 62, 87
2, 65148, Note_on_c, 0, 62, 0
2, 65148, Note_on_c, 0, 66, 87
2, 65160, Note_on_c, 0, 66, 0
2, 65160, Note_on_c, 0, 69, 87
2, 65184, Note_on_c, 0, 69, 0
2, 65184, Note_on_c, 0, 64, 88
2, 65196, Note_on_c, 0, 64, 0
2, 65196, Note_on_c, 0, 67, 88
2, 65208, Note_on_c, 0, 67, 0
2, 65208, Note_on_c, 0, 69, 88
2, 65232, Note_on_c, 0, 69, 0
2, 65232, Note_on_c, 0, 62, 88
2, 65244, Note_on_c, 0, 62, 0
2, 65244, Note_on_c, 0, 66, 88
2, 65256, Note_on_c, 0, 66, 0
2, 65256, Note_on_c, 0, 69, 88
2, 65280, Note_on_c, 0, 69, 0
2, 65280, Note_on_c, 0, 61, 89
2, 65288, Note_on_c, 0, 64, 89
2, 65296, Note_on_c, 0, 69, 89
2, 65373, Note_on_c, 0, 69, 0
2, 65373, Note_on_c, 0, 64, 0
2, 65373, Note_on_c, 0, 61, 0
2, 65376, Control_c, 0, 64, 127
2, 65376, Note_on_c, 0, 57, 90
2, 65382, Note_on_c, 0, 61, 90
2, 65388, Note_on_c, 0, 64, 90
2, 65394, Note_on_c, 0, 69, 90
2, 65469, Note_on_c, 0, 69, 0
2, 65469, Note_on_c, 0, 64, 0
2, 65469, Note_on_c, 0, 61, 0
2, 65469, Note_on_c, 0, 57, 0
2, 65472, Note_on_c, 0, 57, 86
2, 65478, Note_on_c, 0, 61, 86
2, 65484, Note_on_c, 0, 64, 86
2, 65490, Note_on_c, 0, 69, 86
2, 65565, Note_on_c, 0, 69, 0
2, 65565, Note_on_c, 0, 64, 0
2, 65565, Note_on_c, 0, 61, 0
2, 65565, Note_on_c, 0, 57, 0
2, 65616, Control_c, 0, 64, 0
2, 65652, Note_on_c, 0, 57, 75
2, 65664, Note_on_c, 0, 57, 0
2, 65664, Note_on_c, 0, 66, 75
2, 65794, Note_on_c, 0, 66, 0
2, 65796, Note_on_c, 0, 57, 80
2, 65808, Note_on_c, 0, 57, 0
2, 65808, Note_on_c, 0, 67, 80
2, 65842, Note_on_c, 0, 67, 0
2, 65844, Note_on_c, 0, 57, 82
2, 65856, Note_on_c, 0, 57, 0
2, 65856, Note_on_c, 0, 66, 82
2, 65890, Note_on_c, 0, 66, 0
2, 65892, Note_on_c, 0, 57, 84
2, 65904, Note_on_c, 0, 57, 0
2, 65904, Note_on_c, 0, 64, 83
2, 65938, Note_on_c, 0, 64, 0
2, 65940, Note_on_c, 0, 57, 81
2, 65952, Note_on_c, 0, 57, 0
2, 65952, Note_on_c, 0, 62, 80
2, 65986, Note_on_c, 0, 62, 0
2, 65988, Note_on_c, 0, 57, 78
2, 66000, Note_on_c, 0, 57, 0
2, 66000, Note_on_c, 0, 64, 77
2, 66034, Note_on_c, 0, 64, 0
2, 66036, Note_on_c, 0, 57, 75
2, 66048, Note_on_c, 0, 57, 0
2, 66048, Note_on_c, 0, 66, 75
2, 66159, Note_on_c, 0, 66, 0
2, 66160, Note_on_c, 0, 62, 76
2, 66175, Note_on_c, 0, 62, 0
2, 66176, Note_on_c, 0, 57, 77
2, 66191, Note_on_c, 0, 57, 0
2, 66192, Note_on_c, 0, 67, 77
2, 66207, Note_on_c, 0, 67, 0
2, 66208, Note_on_c, 0, 64, 77
2, 66223, Note_on_c, 0, 64, 0
2, 66224, Note_on_c, 0, 57, 77
2, 66239, Note_on_c, 0, 57, 0
2, 66240, Note_on_c, 0, 66, 77
2, 66255, Note_on_c, 0, 66, 0
2, 66256, Note_on_c, 0, 62, 78
2, 66271, Note_on_c, 0, 62, 0
2, 66272, Note_on_c, 0, 57, 78
2, 66287, Note_on_c, 0, 57, 0
2, 66288, Note_on_c, 0, 64, 78
2, 66303, Note_on_c, 0, 64, 0
2, 66304, Note_on_c, 0, 61, 78
2, 66319, Note_on_c, 0, 61, 0
2, 66320, Note_on_c, 0, 57, 78
2, 66335, Note_on_c, 0, 57, 0
2, 66336, Note_on_c, 0, 61, 79
2, 66351, Note_on_c, 0, 61, 0
2, 66352, Note_on_c, 0, 62, 79
2, 66367, Note_on_c, 0, 62, 0
2, 66368, Note_on_c, 0, 57, 79
2, 66383, Note_on_c, 0, 57, 0
2, 66384, Note_on_c, 0, 63, 79
2, 66399, Note_on_c, 0, 63, 0
2, 66400, Note_on_c, 0, 64, 79
2, 66415, Note_on_c, 0, 64, 0
2, 66416, Note_on_c, 0, 57, 80
2, 66431, Note_on_c, 0, 57, 0
2, 66432, Note_on_c, 0, 65, 80
2, 66447, Note_on_c, 0, 65, 0
2, 66448, Note_on_c, 0, 66, 80
2, 66463, Note_on_c, 0, 66, 0
2, 66464, Note_on_c, 0, 57, 80
2, 66479, Note_on_c, 0, 57, 0
2, 66480, Note_on_c, 0, 66, 80
2, 66495, Note_on_c, 0, 66, 0
2, 66496, Note_on_c, 0, 67, 81
2, 66511, Note_on_c, 0, 67, 0
2, 66512, Note_on_c, 0, 57, 81
2, 66527, Note_on_c, 0, 57, 0
2, 66528, Note_on_c, 0, 69, 81
2, 66548, Note_on_c, 0, 69, 0
2, 66624, Note_on_c, 0, 66, 75
2, 66639, Note_on_c, 0, 66, 0
2, 66640, Note_on_c, 0, 62, 75
2, 66655, Note_on_c, 0, 62, 0
2, 66656, Note_on_c, 0, 57, 76
2, 66671, Note_on_c, 0, 57, 0
2, 66672, Note_on_c, 0, 67, 77
2, 66687, Note_on_c, 0, 67, 0
2, 66688, Note_on_c, 0, 64, 78
2, 66703, Note_on_c, 0, 64, 0
2, 66704, Note_on_c, 0, 57, 78
2, 66719, Note_on_c, 0, 57, 0
2, 66720, Note_on_c, 0, 69, 79
2, 66740, Note_on_c, 0, 69, 0
2, 66816, Note_on_c, 0, 78, 75
2, 66905, Note_on_c, 0, 78, 0
2, 66912, Note_on_c, 0, 79, 75
2, 66924, Note_on_c, 0, 79, 0
2, 66924, Note_on_c, 0, 78, 75
2, 66936, Note_on_c, 0, 78, 0
2, 66936, Note_on_c, 0, 76, 75
2, 66948, Note_on_c, 0, 76, 0
2, 66948, Note_on_c, 0, 74, 75
2, 66960, Note_on_c, 0, 74, 0
2, 66960, Note_on_c, 0, 74, 75
2, 66972, Note_on_c, 0, 74, 0
2, 66972, Note_on_c, 0, 73, 75
2, 66984, Note_on_c, 0, 73, 0
2, 66984, Note_on_c, 0, 71, 75
2, 66996, Note_on_c, 0, 71, 0
2, 66996, Note_on_c, 0, 69, 75
2, 67008, Note_on_c, 0, 69, 0
2, 67008, Note_on_c, 0, 69, 75
2, 67104, Note_on_c, 0, 69, 0
2, 67104, Note_on_c, 0, 67, 75
2, 67127, Note_on_c, 0, 67, 0
2, 67128, Note_on_c, 0, 69, 75
2, 67140, Note_on_c, 0, 69, 0
2, 67140, Note_on_c, 0, 71, 75
2, 67152, Note_on_c, 0, 71, 0
2, 67152, Note_on_c, 0, 73, 75
2, 67164, Note_on_c, 0, 73, 0
2, 67164, Note_on_c, 0, 74, 75
2, 67176, Note_on_c, 0, 74, 0
2, 67176, Note_on_c, 0, 76, 75
2, 67188, Note_on_c, 0, 76, 0
2, 67188, Note_on_c, 0, 78, 75
2, 67200, Note_on_c, 0, 78, 0
2, 67200, Note_on_c, 0, 79, 75
2, 67267, Note_on_c, 0, 79, 0
2, 67272, Note_on_c, 0, 81, 75
2, 67295, Note_on_c, 0, 81, 0
2, 67296, Note_on_c, 0, 79, 75
2, 67308, Note_on_c, 0, 79, 0
2, 67308, Note_on_c, 0, 78, 75
2, 67320, Note_on_c, 0, 78, 0
2, 67320, Note_on_c, 0, 76, 75
2, 67332, Note_on_c, 0, 76, 0
2, 67332, Note_on_c, 0, 74, 75
2, 67344, Note_on_c, 0, 74, 0
2, 67344, Note_on_c, 0, 73, 75
2, 67356, Note_on_c, 0, 73, 0
2, 67356, Note_on_c, 0, 71, 75
2, 67368, Note_on_c, 0, 71, 0
2, 67368, Note_on_c, 0, 69, 75
2, 67380, Note_on_c, 0, 69, 0
2, 67380, Note_on_c, 0, 67, 75
2, 67392, Note_on_c, 0, 67, 0
2, 67392, Note_on_c, 0, 67, 75
2, 67488, Note_on_c, 0, 67, 0
2, 67488, Note_on_c, 0, 66, 75
2, 67533, Note_on_c, 0, 66, 0
2, 67584, Note_on_c, 0, 62, 75
2, 67717, Note_on_c, 0, 62, 0
2, 67728, Note_on_c, 0, 66, 75
2, 67740, Note_on_c, 0, 66, 0
2, 67740, Note_on_c, 0, 62, 75
2, 67773, Note_on_c, 0, 62, 0
2, 67776, Note_on_c, 0, 61, 75
2, 67788, Note_on_c, 0, 61, 0
2, 67788, Note_on_c, 0, 59, 75
2, 67909, Note_on_c, 0, 59, 0
2, 67920, Note_on_c, 0, 62, 75
2, 67932, Note_on_c, 0, 62, 0
2, 67932, Note_on_c, 0, 59, 75
2, 67965, Note_on_c, 0, 59, 0
2, 67968, Note_on_c, 0, 59, 75
2, 67980, Note_on_c, 0, 59, 0
2, 67980, Note_on_c, 0, 57, 75
2, 68101, Note_on_c, 0, 57, 0
2, 68112, Note_on_c, 0, 66, 75
2, 68124, Note_on_c, 0, 66, 0
2, 68124, Note_on_c, 0, 62, 75
2, 68157, Note_on_c, 0, 62, 0
2, 68160, Note_on_c, 0, 61, 75
2, 68172, Note_on_c, 0, 61, 0
2, 68172, Note_on_c, 0, 59, 75
2, 68205, Note_on_c, 0, 59, 0
2, 68208, Note_on_c, 0, 62, 75
2, 68220, Note_on_c, 0, 62, 0
2, 68220, Note_on_c, 0, 59, 75
2, 68253, Note_on_c, 0, 59, 0
2, 68256, Note_on_c, 0, 59, 75
2, 68268, Note_on_c, 0, 59, 0
2, 68268, Note_on_c, 0, 57, 75
2, 68301, Note_on_c, 0, 57, 0
2, 68304, Note_on_c, 0, 66, 75
2, 68316, Note_on_c, 0, 66, 0
2, 68316, Note_on_c, 0, 62, 75
2, 68349, Note_on_c, 0, 62, 0
2, 68352, Note_on_c, 0, 61, 75
2, 68364, Note_on_c, 0, 61, 0
2, 68364, Note_on_c, 0, 59, 75
2, 68397, Note_on_c, 0, 59, 0
2, 68400, Note_on_c, 0, 62, 75
2, 68412, Note_on_c, 0, 62, 0
2, 68412, Note_on_c, 0, 59, 75
2, 68445, Note_on_c, 0, 59, 0
2, 68448, Note_on_c, 0, 59, 75
2, 68460, Note_on_c, 0, 59, 0
2, 68460, Note_on_c, 0, 57, 75
2, 68493, Note_on_c, 0, 57, 0
2, 68496, Note_on_c, 0, 66, 75
2, 68508, Note_on_c, 0, 66, 0
2, 68508, Note_on_c, 0, 62, 75
2, 68541, Note_on_c, 0, 62, 0
2, 68544, Note_on_c, 0, 67, 75
2, 68556, Note_on_c, 0, 67, 0
2, 68556, Note_on_c, 0, 64, 75
2, 68589, Note_on_c, 0, 64, 0
2, 68592, Note_on_c, 0, 69, 75
2, 68604, Note_on_c, 0, 69, 0
2, 68604, Note_on_c, 0, 66, 75
2, 68637, Note_on_c, 0, 66, 0
2, 68640, Note_on_c, 0, 67, 75
2, 68652, Note_on_c, 0, 67, 0
2, 68652, Note_on_c, 0, 64, 75
2, 68685, Note_on_c, 0, 64, 0
2, 68688, Note_on_c, 0, 66, 75
2, 68700, Note_on_c, 0, 66, 0
2, 68700, Note_on_c, 0, 62, 75
2, 68733, Note_on_c, 0, 62, 0
2, 68736, Note_on_c, 0, 62, 75
2, 68748, Note_on_c, 0, 62, 0
2, 68748, Note_on_c, 0, 60, 75
2, 68869, Note_on_c, 0, 60, 0
2, 68880, Note_on_c, 0, 64, 75
2, 68892, Note_on_c, 0, 64, 0
2, 68892, Note_on_c, 0, 60, 75
2, 68925, Note_on_c, 0, 60, 0
2, 68928, Note_on_c, 0, 60, 75
2, 68940, Note_on_c, 0, 60, 0
2, 68940, Note_on_c, 0, 59, 75
2, 69061, Note_on_c, 0, 59, 0
2, 69072, Note_on_c, 0, 69, 75
2, 69084, Note_on_c, 0, 69, 0
2, 69084, Note_on_c, 0, 66, 75
2, 69117, Note_on_c, 0, 66, 0
2, 69120, Note_on_c, 0, 69, 75
2, 69132, Note_on_c, 0, 69, 0
2, 69132, Note_on_c, 0, 67, 75
2, 69165, Note_on_c, 0, 67, 0
2, 69168, Note_on_c, 0, 67, 75
2, 69180, Note_on_c, 0, 67, 0
2, 69180, Note_on_c, 0, 66, 75
2, 69213, Note_on_c, 0, 66, 0
2, 69216, Note_on_c, 0, 66, 75
2, 69228, Note_on_c, 0, 66, 0
2, 69228, Note_on_c, 0, 64, 75
2, 69261, Note_on_c, 0, 64, 0
2, 69264, Note_on_c, 0, 67, 75
2, 69276, Note_on_c, 0, 67, 0
2, 69276, Note_on_c, 0, 66, 75
2, 69309, Note_on_c, 0, 66, 0
2, 69312, Note_on_c, 0, 69, 75
2, 69324, Note_on_c, 0, 69, 0
2, 69324, Note_on_c, 0, 67, 75
2, 69357, Note_on_c, 0, 67, 0
2, 69360, Note_on_c, 0, 67, 75
2, 69372, Note_on_c, 0, 67, 0
2, 69372, Note_on_c, 0, 66, 75
2, 69405, Note_on_c, 0, 66, 0
2, 69408, Note_on_c, 0, 66, 75
2, 69420, Note_on_c, 0, 66, 0
2, 69420, Note_on_c, 0, 64, 75
2, 69453, Note_on_c, 0, 64, 0
2, 69456, Note_on_c, 0, 64, 75
2, 69468, Note_on_c, 0, 64, 0
2, 69468, Note_on_c, 0, 62, 75
2, 69501, Note_on_c, 0, 62, 0
2, 69504, Note_on_c, 0, 61, 75
2, 69510, Note_on_c, 0, 61, 0
2, 69510, Note_on_c, 0, 64, 75
2, 69516, Note_on_c, 0, 64, 0
2, 69516, Note_on_c, 0, 69, 75
2, 69527, Note_on_c, 0, 69, 0
2, 69528, Note_on_c, 0, 69, 75
2, 69538, Note_on_c, 0, 69, 0
2, 69552, Note_on_c, 0, 69, 75
2, 69562, Note_on_c, 0, 69, 0
2, 69576, Note_on_c, 0, 69, 75
2, 69586, Note_on_c, 0, 69, 0
2, 69600, Note_on_c, 0, 69, 75
2, 69610, Note_on_c, 0, 69, 0
2, 69624, Note_on_c, 0, 69, 75
2, 69634, Note_on_c, 0, 69, 0
2, 69648, Note_on_c, 0, 69, 75
2, 69658, Note_on_c, 0, 69, 0
2, 69672, Note_on_c, 0, 69, 75
2, 69682, Note_on_c, 0, 69, 0
2, 69696, Note_on_c, 0, 69, 75
2, 69706, Note_on_c, 0, 69, 0
2, 69720, Note_on_c, 0, 69, 75
2, 69730, Note_on_c, 0, 69, 0
2, 69744, Note_on_c, 0, 69, 75
2, 69754, Note_on_c, 0, 69, 0
2, 69768, Note_on_c, 0, 69, 75
2, 69778, Note_on_c, 0, 69, 0
2, 69792, Note_on_c, 0, 69, 75
2, 69802, Note_on_c, 0, 69, 0
2, 69816, Note_on_c, 0, 69, 75
2, 69826, Note_on_c, 0, 69, 0
2, 69840, Note_on_c, 0, 69, 75
2, 69850, Note_on_c, 0, 69, 0
2, 69864, Note_on_c, 0, 69, 75
2, 69874, Note_on_c, 0, 69, 0
2, 69888, Note_on_c, 0, 74, 75
2, 69912, Note_on_c, 0, 74, 0
2, 69912, Note_on_c, 0, 62, 75
2, 69935, Note_on_c, 0, 62, 0
2, 69936, Note_on_c, 0, 74, 75
2, 69946, Note_on_c, 0, 74, 0
2, 69960, Note_on_c, 0, 74, 75
2, 69970, Note_on_c, 0, 74, 0
2, 69984, Note_on_c, 0, 74, 75
2, 69994, Note_on_c, 0, 74, 0
2, 70008, Note_on_c, 0, 74, 75
2, 70018, Note_on_c, 0, 74, 0
2, 70032, Note_on_c, 0, 74, 75
2, 70042, Note_on_c, 0, 74, 0
2, 70056, Note_on_c, 0, 74, 75
2, 70066, Note_on_c, 0, 74, 0
2, 70080, Note_on_c, 0, 74, 75
2, 70090, Note_on_c, 0, 74, 0
2, 70104, Note_on_c, 0, 74, 75
2, 70114, Note_on_c, 0, 74, 0
2, 70128, Note_on_c, 0, 74, 75
2, 70138, Note_on_c, 0, 74, 0
2, 70152, Note_on_c, 0, 74, 75
2, 70162, Note_on_c, 0, 74, 0
2, 70176, Note_on_c, 0, 74, 75
2, 70186, Note_on_c, 0, 74, 0
2, 70200, Note_on_c, 0, 74, 75
2, 70210, Note_on_c, 0, 74, 0
2, 70224, Note_on_c, 0, 74, 75
2, 70234, Note_on_c, 0, 74, 0
2, 70248, Note_on_c, 0, 74, 75
2, 70258, Note_on_c, 0, 74, 0
2, 70272, Note_on_c, 0, 79, 75
2, 70296, Note_on_c, 0, 79, 0
2, 70296, Note_on_c, 0, 67, 75
2, 70319, Note_on_c, 0, 67, 0
2, 70320, Note_on_c, 0, 79, 75
2, 70330, Note_on_c, 0, 79, 0
2, 70344, Note_on_c, 0, 79, 75
2, 70354, Note_on_c, 0, 79, 0
2, 70368, Note_on_c, 0, 79, 75
2, 70392, Note_on_c, 0, 79, 0
2, 70392, Note_on_c, 0, 67, 75
2, 70415, Note_on_c, 0, 67, 0
2, 70416, Note_on_c, 0, 79, 75
2, 70426, Note_on_c, 0, 79, 0
2, 70440, Note_on_c, 0, 79, 75
2, 70450, Note_on_c, 0, 79, 0
2, 70464, Note_on_c, 0, 79, 75
2, 70488, Note_on_c, 0, 79, 0
2, 70488, Note_on_c, 0, 71, 75
2, 70511, Note_on_c, 0, 71, 0
2, 70512, Note_on_c, 0, 79, 75
2, 70522, Note_on_c, 0, 79, 0
2, 70536, Note_on_c, 0, 79, 75
2, 70546, Note_on_c, 0, 79, 0
2, 70560, Note_on_c, 0, 79, 75
2, 70584, Note_on_c, 0, 79, 0
2, 70584, Note_on_c, 0, 69, 75
2, 70607, Note_on_c, 0, 69, 0
2, 70608, Note_on_c, 0, 79, 76
2, 70618, Note_on_c, 0, 79, 0
2, 70632, Note_on_c, 0, 79, 77
2, 70642, Note_on_c, 0, 79, 0
2, 70656, Note_on_c, 0, 78, 77
2, 70680, Note_on_c, 0, 78, 0
2, 70680, Note_on_c, 0, 69, 78
2, 70703, Note_on_c, 0, 69, 0
2, 70704, Note_on_c, 0, 78, 79
2, 70714, Note_on_c, 0, 78, 0
2, 70728, Note_on_c, 0, 78, 79
2, 70752, Note_on_c, 0, 78, 0
2, 70752, Note_on_c, 0, 79, 80
2, 70775, Note_on_c, 0, 79, 0
2, 70776, Note_on_c, 0, 69, 81
2, 70799, Note_on_c, 0, 69, 0
2, 70800, Note_on_c, 0, 79, 81
2, 70810, Note_on_c, 0, 79, 0
2, 70824, Note_on_c, 0, 79, 82
2, 70848, Note_on_c, 0, 79, 0
2, 70848, Note_on_c, 0, 77, 83
2, 70871, Note_on_c, 0, 77, 0
2, 70872, Note_on_c, 0, 65, 84
2, 70895, Note_on_c, 0, 65, 0
2, 70896, Note_on_c, 0, 77, 84
2, 70906, Note_on_c, 0, 77, 0
2, 70920, Note_on_c, 0, 77, 84
2, 70943, Note_on_c, 0, 77, 0
2, 70944, Note_on_c, 0, 77, 84
2, 70968, Note_on_c, 0, 77, 0
2, 70968, Note_on_c, 0, 65, 84
2, 70991, Note_on_c, 0, 65, 0
2, 70992, Note_on_c, 0, 77, 84
2, 71002, Note_on_c, 0, 77, 0
2, 71016, Note_on_c, 0, 77, 84
2, 71026, Note_on_c, 0, 77, 0
2, 71040, Note_on_c, 0, 77, 69
2, 71064, Note_on_c, 0, 77, 0
2, 71064, Note_on_c, 0, 76, 69
2, 71087, Note_on_c, 0, 76, 0
2, 71088, Note_on_c, 0, 76, 69
2, 71112, Note_on_c, 0, 76, 0
2, 71112, Note_on_c, 0, 74, 69
2, 71135, Note_on_c, 0, 74, 0
2, 71136, Note_on_c, 0, 74, 69
2, 71160, Note_on_c, 0, 74, 0
2, 71160, Note_on_c, 0, 72, 69
2, 71183, Note_on_c, 0, 72, 0
2, 71184, Note_on_c, 0, 72, 69
2, 71208, Note_on_c, 0, 72, 0
2, 71208, Note_on_c, 0, 70, 69
2, 71231, Note_on_c, 0, 70, 0
2, 71232, Note_on_c, 0, 70, 69
2, 71247, Note_on_c, 0, 70, 0
2, 71248, Note_on_c, 0, 74, 69
2, 71263, Note_on_c, 0, 74, 0
2, 71264, Note_on_c, 0, 77, 69
2, 71279, Note_on_c, 0, 77, 0
2, 71280, Note_on_c, 0, 70, 69
2, 71295, Note_on_c, 0, 70, 0
2, 71296, Note_on_c, 0, 74, 69
2, 71311, Note_on_c, 0, 74, 0
2, 71312, Note_on_c, 0, 77, 69
2, 71327, Note_on_c, 0, 77, 0
2, 71328, Note_on_c, 0, 70, 69
2, 71373, Note_on_c, 0, 70, 0
2, 71424, Note_on_c, 0, 77, 69
2, 71436, Note_on_c, 0, 77, 0
2, 71436, Note_on_c, 0, 82, 69
2, 71448, Note_on_c, 0, 82, 0
2, 71448, Note_on_c, 0, 86, 69
2, 71472, Note_on_c, 0, 86, 0
2, 71472, Note_on_c, 0, 74, 69
2, 71484, Note_on_c, 0, 74, 0
2, 71484, Note_on_c, 0, 77, 69
2, 71496, Note_on_c, 0, 77, 0
2, 71496, Note_on_c, 0, 82, 69
2, 71520, Note_on_c, 0, 82, 0
2, 71520, Note_on_c, 0, 70, 69
2, 71532, Note_on_c, 0, 70, 0
2, 71532, Note_on_c, 0, 74, 69
2, 71544, Note_on_c, 0, 74, 0
2, 71544, Note_on_c, 0, 77, 69
2, 71568, Note_on_c, 0, 77, 0
2, 71568, Note_on_c, 0, 65, 69
2, 71580, Note_on_c, 0, 65, 0
2, 71580, Note_on_c, 0, 70, 69
2, 71592, Note_on_c, 0, 70, 0
2, 71592, Note_on_c, 0, 74, 69
2, 71616, Note_on_c, 0, 74, 0
2, 71616, Note_on_c, 0, 62, 69
2, 71628, Note_on_c, 0, 62, 0
2, 71628, Note_on_c, 0, 65, 69
2, 71640, Note_on_c, 0, 65, 0
2, 71640, Note_on_c, 0, 70, 69
2, 71664, Note_on_c, 0, 70, 0
2, 71664, Note_on_c, 0, 58, 69
2, 71676, Note_on_c, 0, 58, 0
2, 71676, Note_on_c, 0, 62, 69
2, 71688, Note_on_c, 0, 62, 0
2, 71688, Note_on_c, 0, 65, 69
2, 71712, Note_on_c, 0, 65, 0
2, 71712, Note_on_c, 0, 53, 69
2, 71724, Note_on_c, 0, 53, 0
2, 71724, Note_on_c, 0, 58, 69
2, 71736, Note_on_c, 0, 58, 0
2, 71736, Note_on_c, 0, 62, 69
2, 71760, Note_on_c, 0, 62, 0
2, 71760, Note_on_c, 0, 50, 69
2, 71772, Note_on_c, 0, 50, 0
2, 71772, Note_on_c, 0, 53, 69
2, 71784, Note_on_c, 0, 53, 0
2, 71784, Note_on_c, 0, 58, 69
2, 71808, Note_on_c, 0, 58, 0
2, 71808, Control_c, 0, 64, 127
2, 71832, Note_on_c, 0, 74, 61
2, 71855, Note_on_c, 0, 74, 0
2, 71856, Note_on_c, 0, 62, 61
2, 71879, Note_on_c, 0, 62, 0
2, 71880, Note_on_c, 0, 74, 62
2, 71903, Note_on_c, 0, 74, 0
2, 71904, Note_on_c, 0, 62, 63
2, 71927, Note_on_c, 0, 62, 0
2, 71928, Note_on_c, 0, 74, 63
2, 71951, Note_on_c, 0, 74, 0
2, 71952, Note_on_c, 0, 64, 64
2, 71975, Note_on_c, 0, 64, 0
2, 71976, Note_on_c, 0, 76, 65
2, 71999, Note_on_c, 0, 76, 0
2, 72000, Control_c, 0, 64, 0
2, 72000, Note_on_c, 0, 65, 66
2, 72023, Note_on_c, 0, 65, 0
2, 72024, Note_on_c, 0, 77, 66
2, 72047, Note_on_c, 0, 77, 0
2, 72048, Control_c, 0, 64, 127
2, 72048, Note_on_c, 0, 64, 67
2, 72071, Note_on_c, 0, 64, 0
2, 72072, Control_c, 0, 64, 0
2, 72072, Note_on_c, 0, 76, 68
2, 72095, Note_on_c, 0, 76, 0
2, 72096, Control_c, 0, 64, 127
2, 72096, Note_on_c, 0, 65, 69
2, 72119, Note_on_c, 0, 65, 0
2, 72120, Note_on_c, 0, 77, 69
2, 72143, Note_on_c, 0, 77, 0
2, 72144, Note_on_c, 0, 68, 70
2, 72167, Note_on_c, 0, 68, 0
2, 72168, Note_on_c, 0, 80, 71
2, 72191, Note_on_c, 0, 80, 0
2, 72192, Control_c, 0, 64, 0
2, 72192, Note_on_c, 0, 69, 72
2, 72198, Note_on_c, 0, 69, 0
2, 72198, Note_on_c, 0, 81, 72
2, 72281, Note_on_c, 0, 81, 0
2, 72336, Note_on_c, 0, 64, 75
2, 72336, Note_on_c, 0, 61, 75
2, 72356, Note_on_c, 0, 64, 0
2, 72356, Note_on_c, 0, 61, 0
2, 72384, Note_on_c, 0, 66, 75
2, 72384, Note_on_c, 0, 62, 75
2, 72404, Note_on_c, 0, 66, 0
2, 72404, Note_on_c, 0, 62, 0
2, 72432, Note_on_c, 0, 64, 75
2, 72432, Note_on_c, 0, 61, 75
2, 72452, Note_on_c, 0, 64, 0
2, 72452, Note_on_c, 0, 61, 0
2, 72480, Note_on_c, 0, 66, 75
2, 72480, Note_on_c, 0, 62, 75
2, 72500, Note_on_c, 0, 66, 0
2, 72500, Note_on_c, 0, 62, 0
2, 72528, Note_on_c, 0, 69, 75
2, 72540, Note_on_c, 0, 69, 0
2, 72540, Note_on_c, 0, 67, 75
2, 72552, Note_on_c, 0, 67, 0
2, 72552, Note_on_c, 0, 66, 75
2, 72564, Note_on_c, 0, 66, 0
2, 72564, Note_on_c, 0, 67, 75
2, 72576, Note_on_c, 0, 67, 0
2, 72576, Note_on_c, 0, 69, 75
2, 72576, Note_on_c, 0, 66, 75
2, 72665, Note_on_c, 0, 69, 0
2, 72665, Note_on_c, 0, 66, 0
2, 72720, Note_on_c, 0, 71, 75
2, 72720, Note_on_c, 0, 67, 75
2, 72740, Note_on_c, 0, 71, 0
2, 72740, Note_on_c, 0, 67, 0
2, 72768, Note_on_c, 0, 73, 75
2, 72768, Note_on_c, 0, 64, 75
2, 72788, Note_on_c, 0, 73, 0
2, 72788, Note_on_c, 0, 64, 0
2, 72816, Note_on_c, 0, 74, 75
2, 72816, Note_on_c, 0, 66, 75
2, 72836, Note_on_c, 0, 74, 0
2, 72836, Note_on_c, 0, 66, 0
2, 72864, Note_on_c, 0, 67, 75
2, 72864, Note_on_c, 0, 61, 75
2, 72884, Note_on_c, 0, 67, 0
2, 72884, Note_on_c, 0, 61, 0
2, 72912, Note_on_c, 0, 67, 75
2, 72924, Note_on_c, 0, 67, 0
2, 72924, Note_on_c, 0, 66, 75
2, 72936, Note_on_c, 0, 66, 0
2, 72936, Note_on_c, 0, 64, 75
2, 72948, Note_on_c, 0, 64, 0
2, 72948, Note_on_c, 0, 66, 75
2, 72960, Note_on_c, 0, 66, 0
2, 72960, Note_on_c, 0, 64, 75
2, 72960, Note_on_c, 0, 61, 75
2, 73049, Note_on_c, 0, 64, 0
2, 73049, Note_on_c, 0, 61, 0
2, 73104, Note_on_c, 0, 64, 75
2, 73104, Note_on_c, 0, 61, 75
2, 73124, Note_on_c, 0, 64, 0
2, 73124, Note_on_c, 0, 61, 0
2, 73152, Note_on_c, 0, 66, 75
2, 73152, Note_on_c, 0, 62, 75
2, 73172, Note_on_c, 0, 66, 0
2, 73172, Note_on_c, 0, 62, 0
2, 73200, Note_on_c, 0, 64, 75
2, 73200, Note_on_c, 0, 61, 75
2, 73220, Note_on_c, 0, 64, 0
2, 73220, Note_on_c, 0, 61, 0
2, 73248, Note_on_c, 0, 66, 75
2, 73248, Note_on_c, 0, 62, 75
2, 73268, Note_on_c, 0, 66, 0
2, 73268, Note_on_c, 0, 62, 0
2, 73296, Note_on_c, 0, 69, 75
2, 73308, Note_on_c, 0, 69, 0
2, 73308, Note_on_c, 0, 67, 75
2, 73320, Note_on_c, 0, 67, 0
2, 73320, Note_on_c, 0, 66, 75
2, 73332, Note_on_c, 0, 66, 0
2, 73332, Note_on_c, 0, 67, 75
2, 73344, Note_on_c, 0, 67, 0
2, 73344, Note_on_c, 0, 69, 75
2, 73344, Note_on_c, 0, 66, 75
2, 73433, Note_on_c, 0, 69, 0
2, 73433, Note_on_c, 0, 66, 0
2, 73488, Note_on_c, 0, 71, 75
2, 73488, Note_on_c, 0, 67, 75
2, 73508, Note_on_c, 0, 71, 0
2, 73508, Note_on_c, 0, 67, 0
2, 73536, Note_on_c, 0, 73, 75
2, 73536, Note_on_c, 0, 64, 75
2, 73556, Note_on_c, 0, 73, 0
2, 73556, Note_on_c, 0, 64, 0
2, 73584, Note_on_c, 0, 74, 75
2, 73584, Note_on_c, 0, 66, 75
2, 73604, Note_on_c, 0, 74, 0
2, 73604, Note_on_c, 0, 66, 0
2, 73632, Note_on_c, 0, 76, 75
2, 73632, Note_on_c, 0, 73, 75
2, 73652, Note_on_c, 0, 76, 0
2, 73652, Note_on_c, 0, 73, 0
2, 73680, Note_on_c, 0, 79, 75
2, 73692, Note_on_c, 0, 79, 0
2, 73692, Note_on_c, 0, 78, 75
2, 73704, Note_on_c, 0, 78, 0
2, 73704, Note_on_c, 0, 76, 75
2, 73716, Note_on_c, 0, 76, 0
2, 73716, Note_on_c, 0, 78, 75
2, 73728, Note_on_c, 0, 78, 0
2, 73728, Note_on_c, 0, 79, 75
2, 73728, Note_on_c, 0, 76, 75
2, 73817, Note_on_c, 0, 79, 0
2, 73817, Note_on_c, 0, 76, 0
2, 73872, Note_on_c, 0, 79, 75
2, 73884, Note_on_c, 0, 79, 0
2, 73884, Note_on_c, 0, 78, 75
2, 73896, Note_on_c, 0, 78, 0
2, 73896, Note_on_c, 0, 76, 75
2, 73908, Note_on_c, 0, 76, 0
2, 73908, Note_on_c, 0, 74, 75
2, 73920, Note_on_c, 0, 74, 0
2, 73920, Note_on_c, 0, 73, 75
2, 74009, Note_on_c, 0, 73, 0
2, 74064, Note_on_c, 0, 76, 75
2, 74076, Note_on_c, 0, 76, 0
2, 74076, Note_on_c, 0, 73, 75
2, 74088, Note_on_c, 0, 73, 0
2, 74088, Note_on_c, 0, 71, 75
2, 74100, Note_on_c, 0, 71, 0
2, 74100, Note_on_c, 0, 69, 75
2, 74112, Note_on_c, 0, 69, 0
2, 74112, Note_on_c, 0, 74, 75
2, 74201, Note_on_c, 0, 74, 0
2, 74256, Note_on_c, 0, 79, 75
2, 74268, Note_on_c, 0, 79, 0
2, 74268, Note_on_c, 0, 78, 75
2, 74280, Note_on_c, 0, 78, 0
2, 74280, Note_on_c, 0, 76, 75
2, 74292, Note_on_c, 0, 76, 0
2, 74292, Note_on_c, 0, 74, 75
2, 74304, Note_on_c, 0, 74, 0
2, 74304, Note_on_c, 0, 73, 75
2, 74393, Note_on_c, 0, 73, 0
2, 74448, Note_on_c, 0, 76, 75
2, 74460, Note_on_c, 0, 76, 0
2, 74460, Note_on_c, 0, 73, 75
2, 74472, Note_on_c, 0, 73, 0
2, 74472, Note_on_c, 0, 71, 75
2, 74484, Note_on_c, 0, 71, 0
2, 74484, Note_on_c, 0, 69, 75
2, 74496, Note_on_c, 0, 69, 0
2, 74496, Note_on_c, 0, 74, 75
2, 74516, Note_on_c, 0, 74, 0
2, 74544, Note_on_c, 0, 78, 75
2, 74556, Note_on_c, 0, 78, 0
2, 74556, Note_on_c, 0, 76, 75
2, 74568, Note_on_c, 0, 76, 0
2, 74568, Note_on_c, 0, 74, 75
2, 74580, Note_on_c, 0, 74, 0
2, 74580, Note_on_c, 0, 73, 75
2, 74592, Note_on_c, 0, 73, 0
2, 74592, Note_on_c, 0, 71, 75
2, 74612, Note_on_c, 0, 71, 0
2, 74640, Note_on_c, 0, 74, 75
2, 74652, Note_on_c, 0, 74, 0
2, 74652, Note_on_c, 0, 73, 75
2, 74664, Note_on_c, 0, 73, 0
2, 74664, Note_on_c, 0, 71, 75
2, 74676, Note_on_c, 0, 71, 0
2, 74676, Note_on_c, 0, 69, 75
2, 74688, Note_on_c, 0, 69, 0
2, 74688, Note_on_c, 0, 67, 75
2, 74708, Note_on_c, 0, 67, 0
2, 74736, Note_on_c, 0, 71, 75
2, 74748, Note_on_c, 0, 71, 0
2, 74748, Note_on_c, 0, 69, 75
2, 74760, Note_on_c, 0, 69, 0
2, 74760, Note_on_c, 0, 67, 75
2, 74772, Note_on_c, 0, 67, 0
2, 74772, Note_on_c, 0, 66, 75
2, 74784, Note_on_c, 0, 66, 0
2, 74784, Note_on_c, 0, 64, 75
2, 74804, Note_on_c, 0, 64, 0
2, 74832, Note_on_c, 0, 83, 75
2, 74844, Note_on_c, 0, 83, 0
2, 74844, Note_on_c, 0, 79, 75
2, 74856, Note_on_c, 0, 79, 0
2, 74856, Note_on_c, 0, 78, 75
2, 74868, Note_on_c, 0, 78, 0
2, 74868, Note_on_c, 0, 76, 75
2, 74880, Note_on_c, 0, 76, 0
2, 74880, Note_on_c, 0, 81, 75
2, 74900, Note_on_c, 0, 81, 0
2, 74928, Note_on_c, 0, 79, 75
2, 74940, Note_on_c, 0, 79, 0
2, 74940, Note_on_c, 0, 78, 75
2, 74952, Note_on_c, 0, 78, 0
2, 74952, Note_on_c, 0, 76, 75
2, 74964, Note_on_c, 0, 76, 0
2, 74964, Note_on_c, 0, 74, 75
2, 74976, Note_on_c, 0, 74, 0
2, 74976, Note_on_c, 0, 76, 75
2, 74985, Note_on_c, 0, 76, 0
2, 74985, Note_on_c, 0, 78, 75
2, 74994, Note_on_c, 0, 78, 0
2, 74994, Note_on_c, 0, 76, 75
2, 75003, Note_on_c, 0, 76, 0
2, 75003, Note_on_c, 0, 78, 75
2, 75012, Note_on_c, 0, 78, 0
2, 75012, Note_on_c, 0, 76, 75
2, 75021, Note_on_c, 0, 76, 0
2, 75021, Note_on_c, 0, 78, 75
2, 75030, Note_on_c, 0, 78, 0
2, 75030, Note_on_c, 0, 76, 75
2, 75039, Note_on_c, 0, 76, 0
2, 75039, Note_on_c, 0, 78, 75
2, 75048, Note_on_c, 0, 78, 0
2, 75048, Note_on_c, 0, 76, 75
2, 75056, Note_on_c, 0, 76, 0
2, 75056, Note_on_c, 0, 74, 75
2, 75064, Note_on_c, 0, 74, 0
2, 75064, Note_on_c, 0, 76, 75
2, 75072, Note_on_c, 0, 76, 0
2, 75072, Note_on_c, 0, 74, 75
2, 75117, Note_on_c, 0, 74, 0
2, 75168, Note_on_c, 0, 81, 75
2, 75180, Note_on_c, 0, 81, 0
2, 75180, Note_on_c, 0, 79, 75
2, 75213, Note_on_c, 0, 79, 0
2, 75216, Note_on_c, 0, 79, 75
2, 75261, Note_on_c, 0, 79, 0
2, 75264, Note_on_c, 0, 78, 75
2, 75309, Note_on_c, 0, 78, 0
2, 75360, Note_on_c, 0, 78, 75
2, 75384, Note_on_c, 0, 78, 0
2, 75384, Note_on_c, 0, 76, 75
2, 75405, Note_on_c, 0, 76, 0
2, 75408, Note_on_c, 0, 76, 75
2, 75431, Note_on_c, 0, 76, 0
2, 75432, Note_on_c, 0, 73, 75
2, 75455, Note_on_c, 0, 73, 0
2, 75456, Note_on_c, 0, 74, 75
2, 75501, Note_on_c, 0, 74, 0
2, 75552, Note_on_c, 0, 79, 75
2, 75567, Note_on_c, 0, 79, 0
2, 75568, Note_on_c, 0, 81, 75
2, 75583, Note_on_c, 0, 81, 0
2, 75584, Note_on_c, 0, 79, 75
2, 75599, Note_on_c, 0, 79, 0
2, 75600, Note_on_c, 0, 83, 75
2, 75615, Note_on_c, 0, 83, 0
2, 75616, Note_on_c, 0, 81, 75
2, 75631, Note_on_c, 0, 81, 0
2, 75632, Note_on_c, 0, 79, 75
2, 75647, Note_on_c, 0, 79, 0
2, 75648, Note_on_c, 0, 78, 75
2, 75693, Note_on_c, 0, 78, 0
2, 75744, Note_on_c, 0, 79, 75
2, 75759, Note_on_c, 0, 79, 0
2, 75760, Note_on_c, 0, 78, 75
2, 75775, Note_on_c, 0, 78, 0
2, 75776, Note_on_c, 0, 76, 75
2, 75791, Note_on_c, 0, 76, 0
2, 75792, Note_on_c, 0, 74, 75
2, 75807, Note_on_c, 0, 74, 0
2, 75808, Note_on_c, 0, 76, 75
2, 75823, Note_on_c, 0, 76, 0
2, 75824, Note_on_c, 0, 73, 75
2, 75839, Note_on_c, 0, 73, 0
2, 75840, Note_on_c, 0, 74, 75
2, 75860, Note_on_c, 0, 74, 0
2, 75888, Note_on_c, 0, 74, 75
2, 75908, Note_on_c, 0, 74, 0
2, 75936, Note_on_c, 0, 76, 75
2, 75956, Note_on_c, 0, 76, 0
2, 75984, Note_on_c, 0, 76, 75
2, 76004, Note_on_c, 0, 76, 0
2, 76032, Note_on_c, 0, 78, 75
2, 76052, Note_on_c, 0, 78, 0
2, 76080, Note_on_c, 0, 78, 75
2, 76100, Note_on_c, 0, 78, 0
2, 76128, Note_on_c, 0, 81, 75
2, 76152, Note_on_c, 0, 81, 0
2, 76152, Note_on_c, 0, 79, 75
2, 76175, Note_on_c, 0, 79, 0
2, 76176, Note_on_c, 0, 76, 75
2, 76200, Note_on_c, 0, 76, 0
2, 76200, Note_on_c, 0, 73, 75
2, 76223, Note_on_c, 0, 73, 0
2, 76224, Note_on_c, 0, 73, 75
2, 76236, Note_on_c, 0, 73, 0
2, 76236, Note_on_c, 0, 74, 75
2, 76269, Note_on_c, 0, 74, 0
2, 76272, Note_on_c, 0, 73, 75
2, 76284, Note_on_c, 0, 73, 0
2, 76284, Note_on_c, 0, 74, 75
2, 76317, Note_on_c, 0, 74, 0
2, 76320, Note_on_c, 0, 75, 75
2, 76332, Note_on_c, 0, 75, 0
2, 76332, Note_on_c, 0, 76, 75
2, 76365, Note_on_c, 0, 76, 0
2, 76368, Note_on_c, 0, 75, 75
2, 76380, Note_on_c, 0, 75, 0
2, 76380, Note_on_c, 0, 76, 75
2, 76413, Note_on_c, 0, 76, 0
2, 76416, Note_on_c, 0, 77, 75
2, 76428, Note_on_c, 0, 77, 0
2, 76428, Note_on_c, 0, 78, 75
2, 76461, Note_on_c, 0, 78, 0
2, 76464, Note_on_c, 0, 77, 75
2, 76476, Note_on_c, 0, 77, 0
2, 76476, Note_on_c, 0, 78, 75
2, 76509, Note_on_c, 0, 78, 0
2, 76512, Note_on_c, 0, 79, 75
2, 76521, Note_on_c, 0, 79, 0
2, 76521, Note_on_c, 0, 81, 75
2, 76530, Note_on_c, 0, 81, 0
2, 76530, Note_on_c, 0, 79, 75
2, 76539, Note_on_c, 0, 79, 0
2, 76539, Note_on_c, 0, 81, 75
2, 76548, Note_on_c, 0, 81, 0
2, 76548, Note_on_c, 0, 79, 75
2, 76557, Note_on_c, 0, 79, 0
2, 76557, Note_on_c, 0, 81, 75
2, 76566, Note_on_c, 0, 81, 0
2, 76566, Note_on_c, 0, 79, 75
2, 76575, Note_on_c, 0, 79, 0
2, 76575, Note_on_c, 0, 81, 75
2, 76584, Note_on_c, 0, 81, 0
2, 76584, Note_on_c, 0, 79, 75
2, 76592, Note_on_c, 0, 79, 0
2, 76592, Note_on_c, 0, 78, 75
2, 76600, Note_on_c, 0, 78, 0
2, 76600, Note_on_c, 0, 79, 75
2, 76608, Note_on_c, 0, 79, 0
2, 76608, Note_on_c, 0, 77, 75
2, 76620, Note_on_c, 0, 77, 0
2, 76620, Note_on_c, 0, 78, 75
2, 76653, Note_on_c, 0, 78, 0
2, 76656, Note_on_c, 0, 77, 75
2, 76668, Note_on_c, 0, 77, 0
2, 76668, Note_on_c, 0, 78, 75
2, 76701, Note_on_c, 0, 78, 0
2, 76704, Note_on_c, 0, 79, 75
2, 76713, Note_on_c, 0, 79, 0
2, 76713, Note_on_c, 0, 81, 75
2, 76722, Note_on_c, 0, 81, 0
2, 76722, Note_on_c, 0, 79, 75
2, 76731, Note_on_c, 0, 79, 0
2, 76731, Note_on_c, 0, 81, 75
2, 76740, Note_on_c, 0, 81, 0
2, 76740, Note_on_c, 0, 79, 75
2, 76749, Note_on_c, 0, 79, 0
2, 76749, Note_on_c, 0, 81, 75
2, 76758, Note_on_c, 0, 81, 0
2, 76758, Note_on_c, 0, 79, 75
2, 76767, Note_on_c, 0, 79, 0
2, 76767, Note_on_c, 0, 81, 75
2, 76776, Note_on_c, 0, 81, 0
2, 76776, Note_on_c, 0, 79, 75
2, 76784, Note_on_c, 0, 79, 0
2, 76784, Note_on_c, 0, 81, 75
2, 76792, Note_on_c, 0, 81, 0
2, 76792, Note_on_c, 0, 79, 75
2, 76800, Note_on_c, 0, 79, 0
2, 76800, Note_on_c, 0, 77, 75
2, 76815, Note_on_c, 0, 77, 0
2, 76816, Note_on_c, 0, 78, 75
2, 76831, Note_on_c, 0, 78, 0
2, 76832, Note_on_c, 0, 81, 75
2, 76847, Note_on_c, 0, 81, 0
2, 76848, Note_on_c, 0, 77, 75
2, 76863, Note_on_c, 0, 77, 0
2, 76864, Note_on_c, 0, 78, 75
2, 76879, Note_on_c, 0, 78, 0
2, 76880, Note_on_c, 0, 81, 75
2, 76895, Note_on_c, 0, 81, 0
2, 76896, Note_on_c, 0, 73, 75
2, 76911, Note_on_c, 0, 73, 0
2, 76912, Note_on_c, 0, 74, 75
2, 76927, Note_on_c, 0, 74, 0
2, 76928, Note_on_c, 0, 78, 75
2, 76943, Note_on_c, 0, 78, 0
2, 76944, Note_on_c, 0, 73, 75
2, 76959, Note_on_c, 0, 73, 0
2, 76960, Note_on_c, 0, 74, 75
2, 76975, Note_on_c, 0, 74, 0
2, 76976, Note_on_c, 0, 78, 75
2, 76991, Note_on_c, 0, 78, 0
2, 76992, Note_on_c, 0, 70, 75
2, 77007, Note_on_c, 0, 70, 0
2, 77008, Note_on_c, 0, 71, 75
2, 77023, Note_on_c, 0, 71, 0
2, 77024, Note_on_c, 0, 74, 75
2, 77039, Note_on_c, 0, 74, 0
2, 77040, Note_on_c, 0, 70, 75
2, 77055, Note_on_c, 0, 70, 0
2, 77056, Note_on_c, 0, 71, 75
2, 77071, Note_on_c, 0, 71, 0
2, 77072, Note_on_c, 0, 74, 75
2, 77087, Note_on_c, 0, 74, 0
2, 77088, Note_on_c, 0, 75, 75
2, 77103, Note_on_c, 0, 75, 0
2, 77104, Note_on_c, 0, 76, 75
2, 77119, Note_on_c, 0, 76, 0
2, 77120, Note_on_c, 0, 79, 75
2, 77135, Note_on_c, 0, 79, 0
2, 77136, Note_on_c, 0, 75, 75
2, 77151, Note_on_c, 0, 75, 0
2, 77152, Note_on_c, 0, 76, 75
2, 77167, Note_on_c, 0, 76, 0
2, 77168, Note_on_c, 0, 79, 75
2, 77183, Note_on_c, 0, 79, 0
2, 77184, Note_on_c, 0, 69, 75
2, 77273, Note_on_c, 0, 69, 0
2, 77280, Note_on_c, 0, 76, 75
2, 77289, Note_on_c, 0, 76, 0
2, 77289, Note_on_c, 0, 78, 75
2, 77298, Note_on_c, 0, 78, 0
2, 77298, Note_on_c, 0, 76, 75
2, 77307, Note_on_c, 0, 76, 0
2, 77307, Note_on_c, 0, 78, 75
2, 77316, Note_on_c, 0, 78, 0
2, 77316, Note_on_c, 0, 76, 75
2, 77325, Note_on_c, 0, 76, 0
2, 77325, Note_on_c, 0, 78, 75
2, 77334, Note_on_c, 0, 78, 0
2, 77334, Note_on_c, 0, 76, 75
2, 77343, Note_on_c, 0, 76, 0
2, 77343, Note_on_c, 0, 78, 75
2, 77352, Note_on_c, 0, 78, 0
2, 77352, Note_on_c, 0, 76, 75
2, 77360, Note_on_c, 0, 76, 0
2, 77360, Note_on_c, 0, 78, 75
2, 77368, Note_on_c, 0, 78, 0
2, 77368, Note_on_c, 0, 76, 75
2, 77376, Note_on_c, 0, 76, 0
2, 77376, Note_on_c, 0, 73, 75
2, 77391, Note_on_c, 0, 73, 0
2, 77392, Note_on_c, 0, 74, 75
2, 77407, Note_on_c, 0, 74, 0
2, 77408, Note_on_c, 0, 78, 75
2, 77423, Note_on_c, 0, 78, 0
2, 77424, Note_on_c, 0, 73, 75
2, 77439, Note_on_c, 0, 73, 0
2, 77440, Note_on_c, 0, 74, 75
2, 77455, Note_on_c, 0, 74, 0
2, 77456, Note_on_c, 0, 78, 75
2, 77471, Note_on_c, 0, 78, 0
2, 77472, Note_on_c, 0, 70, 75
2, 77487, Note_on_c, 0, 70, 0
2, 77488, Note_on_c, 0, 71, 75
2, 77503, Note_on_c, 0, 71, 0
2, 77504, Note_on_c, 0, 74, 75
2, 77519, Note_on_c, 0, 74, 0
2, 77520, Note_on_c, 0, 70, 75
2, 77535, Note_on_c, 0, 70, 0
2, 77536, Note_on_c, 0, 71, 75
2, 77551, Note_on_c, 0, 71, 0
2, 77552, Note_on_c, 0, 74, 75
2, 77567, Note_on_c, 0, 74, 0
2, 77568, Note_on_c, 0, 66, 75
2, 77583, Note_on_c, 0, 66, 0
2, 77584, Note_on_c, 0, 67, 75
2, 77599, Note_on_c, 0, 67, 0
2, 77600, Note_on_c, 0, 71, 75
2, 77615, Note_on_c, 0, 71, 0
2, 77616, Note_on_c, 0, 66, 75
2, 77631, Note_on_c, 0, 66, 0
2, 77632, Note_on_c, 0, 67, 75
2, 77647, Note_on_c, 0, 67, 0
2, 77648, Note_on_c, 0, 71, 75
2, 77663, Note_on_c, 0, 71, 0
2, 77664, Note_on_c, 0, 63, 75
2, 77679, Note_on_c, 0, 63, 0
2, 77680, Note_on_c, 0, 64, 75
2, 77695, Note_on_c, 0, 64, 0
2, 77696, Note_on_c, 0, 67, 75
2, 77711, Note_on_c, 0, 67, 0
2, 77712, Note_on_c, 0, 63, 75
2, 77727, Note_on_c, 0, 63, 0
2, 77728, Note_on_c, 0, 64, 75
2, 77743, Note_on_c, 0, 64, 0
2, 77744, Note_on_c, 0, 67, 75
2, 77759, Note_on_c, 0, 67, 0
2, 77760, Note_on_c, 0, 57, 75
2, 77849, Note_on_c, 0, 57, 0
2, 77856, Note_on_c, 0, 64, 75
2, 77865, Note_on_c, 0, 64, 0
2, 77865, Note_on_c, 0, 66, 75
2, 77874, Note_on_c, 0, 66, 0
2, 77874, Note_on_c, 0, 64, 75
2, 77883, Note_on_c, 0, 64, 0
2, 77883, Note_on_c, 0, 66, 75
2, 77892, Note_on_c, 0, 66, 0
2, 77892, Note_on_c, 0, 64, 75
2, 77901, Note_on_c, 0, 64, 0
2, 77901, Note_on_c, 0, 66, 75
2, 77910, Note_on_c, 0, 66, 0
2, 77910, Note_on_c, 0, 64, 75
2, 77919, Note_on_c, 0, 64, 0
2, 77919, Note_on_c, 0, 66, 75
2, 77928, Note_on_c, 0, 66, 0
2, 77928, Note_on_c, 0, 64, 75
2, 77936, Note_on_c, 0, 64, 0
2, 77936, Note_on_c, 0, 62, 75
2, 77944, Note_on_c, 0, 62, 0
2, 77944, Note_on_c, 0, 64, 75
2, 77952, Note_on_c, 0, 64, 0
2, 77952, Note_on_c, 0, 62, 75
2, 77997, Note_on_c, 0, 62, 0
2, 78048, Note_on_c, 0, 69, 69
2, 78071, Note_on_c, 0, 69, 0
2, 78072, Note_on_c, 0, 67, 69
2, 78095, Note_on_c, 0, 67, 0
2, 78096, Note_on_c, 0, 64, 69
2, 78130, Note_on_c, 0, 64, 0
2, 78132, Note_on_c, 0, 61, 69
2, 78144, Note_on_c, 0, 61, 0
2, 78144, Note_on_c, 0, 62, 69
2, 78189, Note_on_c, 0, 62, 0
2, 78240, Note_on_c, 0, 81, 61
2, 78263, Note_on_c, 0, 81, 0
2, 78264, Note_on_c, 0, 79, 61
2, 78287, Note_on_c, 0, 79, 0
2, 78288, Note_on_c, 0, 76, 61
2, 78322, Note_on_c, 0, 76, 0
2, 78324, Note_on_c, 0, 73, 61
2, 78336, Note_on_c, 0, 73, 0
2, 78336, Note_on_c, 0, 74, 61
2, 78425, Note_on_c, 0, 74, 0
2, 78432, Note_on_c, 0, 38, 75
2, 78499, Note_on_c, 0, 38, 0
2, 78504, Note_on_c, 0, 38, 75
2, 78527, Note_on_c, 0, 38, 0
2, 78528, Control_c, 0, 64, 127
2, 78528, Note_on_c, 0, 38, 75
2, 78661, Note_on_c, 0, 38, 0
2, 78672, Control_c, 0, 64, 0
2, 78720, End_track
3, 0, Start_track
3, 0, Program_c, 0, 0
3, 0, Control_c, 0, 7, 127
3, 0, Control_c, 0, 10, 64
3, 10320, Note_on_c, 0, 59, 64
3, 10340, Note_on_c, 0, 59, 0
3, 10704, Note_on_c, 0, 69, 64
3, 10724, Note_on_c, 0, 69, 0
3, 11088, Note_on_c, 0, 71, 64
3, 11108, Note_on_c, 0, 71, 0
3, 11472, Note_on_c, 0, 81, 64
3, 11519, Note_on_c, 0, 81, 0
3, 26448, Note_on_c, 0, 59, 64
3, 26468, Note_on_c, 0, 59, 0
3, 26832, Note_on_c, 0, 69, 64
3, 26852, Note_on_c, 0, 69, 0
3, 27216, Note_on_c, 0, 71, 64
3, 27236, Note_on_c, 0, 71, 0
3, 27600, Note_on_c, 0, 81, 64
3, 27647, Note_on_c, 0, 81, 0
3, 35280, Note_on_c, 0, 66, 64
3, 35300, Note_on_c, 0, 66, 0
3, 35472, Note_on_c, 0, 79, 64
3, 35495, Note_on_c, 0, 79, 0
3, 35496, Note_on_c, 0, 71, 64
3, 35519, Note_on_c, 0, 71, 0
3, 35520, Note_on_c, 0, 78, 64
3, 35543, Note_on_c, 0, 78, 0
3, 35544, Note_on_c, 0, 71, 64
3, 35567, Note_on_c, 0, 71, 0
3, 35568, Note_on_c, 0, 76, 64
3, 35591, Note_on_c, 0, 76, 0
3, 35592, Note_on_c, 0, 71, 64
3, 35615, Note_on_c, 0, 71, 0
3, 35616, Note_on_c, 0, 75, 64
3, 35639, Note_on_c, 0, 75, 0
3, 35640, Note_on_c, 0, 71, 64
3, 35663, Note_on_c, 0, 71, 0
3, 35664, Note_on_c, 0, 73, 64
3, 35687, Note_on_c, 0, 73, 0
3, 35688, Note_on_c, 0, 70, 64
3, 35711, Note_on_c, 0, 70, 0
3, 36048, Note_on_c, 0, 66, 64
3, 36068, Note_on_c, 0, 66, 0
3, 36240, Note_on_c, 0, 79, 64
3, 36263, Note_on_c, 0, 79, 0
3, 36264, Note_on_c, 0, 71, 64
3, 36287, Note_on_c, 0, 71, 0
3, 36288, Note_on_c, 0, 78, 64
3, 36311, Note_on_c, 0, 78, 0
3, 36312, Note_on_c, 0, 71, 64
3, 36335, Note_on_c, 0, 71, 0
3, 36336, Note_on_c, 0, 76, 64
3, 36359, Note_on_c, 0, 76, 0
3, 36360, Note_on_c, 0, 71, 64
3, 36383, Note_on_c, 0, 71, 0
3, 36384, Note_on_c, 0, 75, 64
3, 36407, Note_on_c, 0, 75, 0
3, 36408, Note_on_c, 0, 71, 64
3, 36431, Note_on_c, 0, 71, 0
3, 36432, Note_on_c, 0, 73, 64
3, 36455, Note_on_c, 0, 73, 0
3, 36456, Note_on_c, 0, 70, 64
3, 36479, Note_on_c, 0, 70, 0
3, 37488, Note_on_c, 0, 86, 90
3, 37511, Note_on_c, 0, 86, 0
3, 37512, Note_on_c, 0, 86, 90
3, 37535, Note_on_c, 0, 86, 0
3, 37536, Note_on_c, 0, 86, 90
3, 37581, Note_on_c, 0, 86, 0
3, 37584, Note_on_c, 0, 86, 90
3, 37607, Note_on_c, 0, 86, 0
3, 37608, Note_on_c, 0, 86, 90
3, 37631, Note_on_c, 0, 86, 0
3, 37632, Note_on_c, 0, 86, 90
3, 37677, Note_on_c, 0, 86, 0
3, 37680, Note_on_c, 0, 86, 90
3, 37703, Note_on_c, 0, 86, 0
3, 37704, Note_on_c, 0, 86, 90
3, 37727, Note_on_c, 0, 86, 0
3, 37728, Note_on_c, 0, 86, 90
3, 37773, Note_on_c, 0, 86, 0
3, 37776, Note_on_c, 0, 86, 90
3, 37799, Note_on_c, 0, 86, 0
3, 37800, Note_on_c, 0, 86, 90
3, 37823, Note_on_c, 0, 86, 0
3, 40896, Note_on_c, 0, 74, 84
3, 40920, Note_on_c, 0, 74, 0
3, 40920, Note_on_c, 0, 62, 84
3, 40943, Note_on_c, 0, 62, 0
3, 40944, Note_on_c, 0, 74, 84
3, 40954, Note_on_c, 0, 74, 0
3, 40968, Note_on_c, 0, 74, 84
3, 40978, Note_on_c, 0, 74, 0
3, 40992, Note_on_c, 0, 74, 84
3, 41016, Note_on_c, 0, 74, 0
3, 41016, Note_on_c, 0, 62, 84
3, 41039, Note_on_c, 0, 62, 0
3, 41040, Note_on_c, 0, 74, 84
3, 41050, Note_on_c, 0, 74, 0
3, 41064, Note_on_c, 0, 74, 84
3, 41074, Note_on_c, 0, 74, 0
3, 41088, Note_on_c, 0, 74, 84
3, 41112, Note_on_c, 0, 74, 0
3, 41112, Note_on_c, 0, 62, 84
3, 41135, Note_on_c, 0, 62, 0
3, 41136, Note_on_c, 0, 74, 84
3, 41146, Note_on_c, 0, 74, 0
3, 41160, Note_on_c, 0, 74, 84
3, 41170, Note_on_c, 0, 74, 0
3, 41184, Note_on_c, 0, 74, 84
3, 41208, Note_on_c, 0, 74, 0
3, 41208, Note_on_c, 0, 62, 84
3, 41231, Note_on_c, 0, 62, 0
3, 41232, Note_on_c, 0, 74, 84
3, 41242, Note_on_c, 0, 74, 0
3, 41256, Note_on_c, 0, 74, 84
3, 41266, Note_on_c, 0, 74, 0
3, 41280, Note_on_c, 0, 73, 84
3, 41303, Note_on_c, 0, 73, 0
3, 41304, Note_on_c, 0, 69, 84
3, 41327, Note_on_c, 0, 69, 0
3, 41328, Note_on_c, 0, 78, 84
3, 41351, Note_on_c, 0, 78, 0
3, 41352, Note_on_c, 0, 69, 84
3, 41375, Note_on_c, 0, 69, 0
3, 41376, Note_on_c, 0, 76, 84
3, 41399, Note_on_c, 0, 76, 0
3, 41400, Note_on_c, 0, 69, 84
3, 41423, Note_on_c, 0, 69, 0
3, 41424, Note_on_c, 0, 74, 84
3, 41447, Note_on_c, 0, 74, 0
3, 41448, Note_on_c, 0, 69, 84
3, 41471, Note_on_c, 0, 69, 0
3, 41472, Note_on_c, 0, 73, 84
3, 41495, Note_on_c, 0, 73, 0
3, 41496, Note_on_c, 0, 69, 84
3, 41519, Note_on_c, 0, 69, 0
3, 41520, Note_on_c, 0, 74, 84
3, 41543, Note_on_c, 0, 74, 0
3, 41544, Note_on_c, 0, 69, 84
3, 41567, Note_on_c, 0, 69, 0
3, 41568, Note_on_c, 0, 73, 84
3, 41591, Note_on_c, 0, 73, 0
3, 41592, Note_on_c, 0, 69, 84
3, 41615, Note_on_c, 0, 69, 0
3, 41616, Note_on_c, 0, 71, 84
3, 41639, Note_on_c, 0, 71, 0
3, 41640, Note_on_c, 0, 68, 84
3, 41663, Note_on_c, 0, 68, 0
3, 49488, Note_on_c, 0, 64, 84
3, 49508, Note_on_c, 0, 64, 0
3, 49872, Note_on_c, 0, 62, 84
3, 49892, Note_on_c, 0, 62, 0
3, 50256, Note_on_c, 0, 64, 84
3, 50301, Note_on_c, 0, 64, 0
3, 50640, Note_on_c, 0, 74, 84
3, 50685, Note_on_c, 0, 74, 0
3, 58320, Note_on_c, 0, 66, 64
3, 58340, Note_on_c, 0, 66, 0
3, 58512, Note_on_c, 0, 79, 64
3, 58535, Note_on_c, 0, 79, 0
3, 58536, Note_on_c, 0, 71, 64
3, 58559, Note_on_c, 0, 71, 0
3, 58560, Note_on_c, 0, 78, 64
3, 58583, Note_on_c, 0, 78, 0
3, 58584, Note_on_c, 0, 71, 64
3, 58607, Note_on_c, 0, 71, 0
3, 58608, Note_on_c, 0, 76, 64
3, 58631, Note_on_c, 0, 76, 0
3, 58632, Note_on_c, 0, 71, 64
3, 58655, Note_on_c, 0, 71, 0
3, 58656, Note_on_c, 0, 75, 64
3, 58679, Note_on_c, 0, 75, 0
3, 58680, Note_on_c, 0, 71, 64
3, 58703, Note_on_c, 0, 71, 0
3, 58704, Note_on_c, 0, 73, 64
3, 58727, Note_on_c, 0, 73, 0
3, 58728, Note_on_c, 0, 70, 64
3, 58751, Note_on_c, 0, 70, 0
3, 59088, Note_on_c, 0, 66, 64
3, 59108, Note_on_c, 0, 66, 0
3, 59280, Note_on_c, 0, 79, 64
3, 59303, Note_on_c, 0, 79, 0
3, 59304, Note_on_c, 0, 71, 64
3, 59327, Note_on_c, 0, 71, 0
3, 59328, Note_on_c, 0, 78, 64
3, 59351, Note_on_c, 0, 78, 0
3, 59352, Note_on_c, 0, 71, 64
3, 59375, Note_on_c, 0, 71, 0
3, 59376, Note_on_c, 0, 76, 64
3, 59399, Note_on_c, 0, 76, 0
3, 59400, Note_on_c, 0, 71, 64
3, 59423, Note_on_c, 0, 71, 0
3, 59424, Note_on_c, 0, 75, 64
3, 59447, Note_on_c, 0, 75, 0
3, 59448, Note_on_c, 0, 71, 64
3, 59471, Note_on_c, 0, 71, 0
3, 59472, Note_on_c, 0, 73, 64
3, 59495, Note_on_c, 0, 73, 0
3, 59496, Note_on_c, 0, 70, 64
3, 59519, Note_on_c, 0, 70, 0
3, 60528, Note_on_c, 0, 86, 90
3, 60551, Note_on_c, 0, 86, 0
3, 60552, Note_on_c, 0, 86, 90
3, 60575, Note_on_c, 0, 86, 0
3, 60576, Note_on_c, 0, 86, 90
3, 60621, Note_on_c, 0, 86, 0
3, 60624, Note_on_c, 0, 86, 90
3, 60647, Note_on_c, 0, 86, 0
3, 60648, Note_on_c, 0, 86, 90
3, 60671, Note_on_c, 0, 86, 0
3, 60672, Note_on_c, 0, 86, 90
3, 60717, Note_on_c, 0, 86, 0
3, 60720, Note_on_c, 0, 86, 90
3, 60743, Note_on_c, 0, 86, 0
3, 60744, Note_on_c, 0, 86, 90
3, 60767, Note_on_c, 0, 86, 0
3, 60768, Note_on_c, 0, 86, 90
3, 60813, Note_on_c, 0, 86, 0
3, 60816, Note_on_c, 0, 86, 90
3, 60839, Note_on_c, 0, 86, 0
3, 60840, Note_on_c, 0, 86, 90
3, 60863, Note_on_c, 0, 86, 0
3, 63936, Note_on_c, 0, 74, 84
3, 63960, Note_on_c, 0, 74, 0
3, 63960, Note_on_c, 0, 62, 84
3, 63983, Note_on_c, 0, 62, 0
3, 63984, Note_on_c, 0, 74, 84
3, 63994, Note_on_c, 0, 74, 0
3, 64008, Note_on_c, 0, 74, 84
3, 64018, Note_on_c, 0, 74, 0
3, 64032, Note_on_c, 0, 74, 84
3, 64056, Note_on_c, 0, 74, 0
3, 64056, Note_on_c, 0, 62, 84
3, 64079, Note_on_c, 0, 62, 0
3, 64080, Note_on_c, 0, 74, 84
3, 64090, Note_on_c, 0, 74, 0
3, 64104, Note_on_c, 0, 74, 84
3, 64114, Note_on_c, 0, 74, 0
3, 64128, Note_on_c, 0, 74, 84
3, 64152, Note_on_c, 0, 74, 0
3, 64152, Note_on_c, 0, 62, 84
3, 64175, Note_on_c, 0, 62, 0
3, 64176, Note_on_c, 0, 74, 84
3, 64186, Note_on_c, 0, 74, 0
3, 64200, Note_on_c, 0, 74, 84
3, 64210, Note_on_c, 0, 74, 0
3, 64224, Note_on_c, 0, 74, 84
3, 64248, Note_on_c, 0, 74, 0
3, 64248, Note_on_c, 0, 62, 84
3, 64271, Note_on_c, 0, 62, 0
3, 64272, Note_on_c, 0, 74, 84
3, 64282, Note_on_c, 0, 74, 0
3, 64296, Note_on_c, 0, 74, 84
3, 64306, Note_on_c, 0, 74, 0
3, 64320, Note_on_c, 0, 73, 84
3, 64343, Note_on_c, 0, 73, 0
3, 64344, Note_on_c, 0, 69, 84
3, 64367, Note_on_c, 0, 69, 0
3, 64368, Note_on_c, 0, 78, 84
3, 64391, Note_on_c, 0, 78, 0
3, 64392, Note_on_c, 0, 69, 84
3, 64415, Note_on_c, 0, 69, 0
3, 64416, Note_on_c, 0, 76, 84
3, 64439, Note_on_c, 0, 76, 0
3, 64440, Note_on_c, 0, 69, 84
3, 64463, Note_on_c, 0, 69, 0
3, 64464, Note_on_c, 0, 74, 84
3, 64487, Note_on_c, 0, 74, 0
3, 64488, Note_on_c, 0, 69, 84
3, 64511, Note_on_c, 0, 69, 0
3, 64512, Note_on_c, 0, 73, 84
3, 64535, Note_on_c, 0, 73, 0
3, 64536, Note_on_c, 0, 69, 84
3, 64559, Note_on_c, 0, 69, 0
3, 64560, Note_on_c, 0, 74, 84
3, 64583, Note_on_c, 0, 74, 0
3, 64584, Note_on_c, 0, 69, 84
3, 64607, Note_on_c, 0, 69, 0
3, 64608, Note_on_c, 0, 73, 84
3, 64631, Note_on_c, 0, 73, 0
3, 64632, Note_on_c, 0, 69, 84
3, 64655, Note_on_c, 0, 69, 0
3, 64656, Note_on_c, 0, 71, 84
3, 64679, Note_on_c, 0, 71, 0
3, 64680, Note_on_c, 0, 68, 84
3, 64703, Note_on_c, 0, 68, 0
3, 72528, Note_on_c, 0, 64, 84
3, 72548, Note_on_c, 0, 64, 0
3, 72912, Note_on_c, 0, 62, 84
3, 72932, Note_on_c, 0, 62, 0
3, 73296, Note_on_c, 0, 64, 84
3, 73341, Note_on_c, 0, 64, 0
3, 73680, Note_on_c, 0, 74, 84
3, 73725, Note_on_c, 0, 74, 0
3, 78720, End_track
4, 0, Start_track
4, 0, Program_c, 1, 0
4, 0, Control_c, 1, 7, 127
4, 0, Control_c, 1, 10, 64
4, 432, Note_on_c, 1, 38, 77
4, 477, Note_on_c, 1, 38, 0
4, 480, Note_on_c, 1, 50, 79
4, 525, Note_on_c, 1, 50, 0
4, 528, Note_on_c, 1, 49, 81
4, 573, Note_on_c, 1, 49, 0
4, 576, Note_on_c, 1, 50, 84
4, 621, Note_on_c, 1, 50, 0
4, 624, Note_on_c, 1, 55, 81
4, 669, Note_on_c, 1, 55, 0
4, 672, Note_on_c, 1, 54, 79
4, 717, Note_on_c, 1, 54, 0
4, 720, Note_on_c, 1, 49, 77
4, 765, Note_on_c, 1, 49, 0
4, 816, Note_on_c, 1, 38, 77
4, 861, Note_on_c, 1, 38, 0
4, 864, Note_on_c, 1, 50, 79
4, 909, Note_on_c, 1, 50, 0
4, 912, Note_on_c, 1, 49, 81
4, 957, Note_on_c, 1, 49, 0
4, 960, Note_on_c, 1, 50, 84
4, 1005, Note_on_c, 1, 50, 0
4, 1008, Note_on_c, 1, 55, 81
4, 1053, Note_on_c, 1, 55, 0
4, 1056, Note_on_c, 1, 54, 79
4, 1101, Note_on_c, 1, 54, 0
4, 1104, Note_on_c, 1, 49, 77
4, 1149, Note_on_c, 1, 49, 0
4, 1152, Note_on_c, 1, 50, 75
4, 1197, Note_on_c, 1, 50, 0
4, 1200, Note_on_c, 1, 52, 78
4, 1245, Note_on_c, 1, 52, 0
4, 1248, Note_on_c, 1, 54, 81
4, 1293, Note_on_c, 1, 54, 0
4, 1344, Note_on_c, 1, 50, 75
4, 1389, Note_on_c, 1, 50, 0
4, 1392, Note_on_c, 1, 52, 78
4, 1437, Note_on_c, 1, 52, 0
4, 1440, Note_on_c, 1, 54, 81
4, 1485, Note_on_c, 1, 54, 0
4, 1584, Note_on_c, 1, 38, 69
4, 1629, Note_on_c, 1, 38, 0
4, 1632, Note_on_c, 1, 38, 69
4, 1677, Note_on_c, 1, 38, 0
4, 1680, Note_on_c, 1, 38, 69
4, 1725, Note_on_c, 1, 38, 0
4, 1776, Note_on_c, 1, 40, 69
4, 1821, Note_on_c, 1, 40, 0
4, 1824, Note_on_c, 1, 40, 69
4, 1869, Note_on_c, 1, 40, 0
4, 1872, Note_on_c, 1, 40, 69
4, 1917, Note_on_c, 1, 40, 0
4, 1968, Note_on_c, 1, 33, 69
4, 2013, Note_on_c, 1, 33, 0
4, 2016, Note_on_c, 1, 33, 69
4, 2061, Note_on_c, 1, 33, 0
4, 2064, Note_on_c, 1, 33, 69
4, 2109, Note_on_c, 1, 33, 0
4, 2160, Note_on_c, 1, 38, 69
4, 2205, Note_on_c, 1, 38, 0
4, 2208, Note_on_c, 1, 38, 69
4, 2253, Note_on_c, 1, 38, 0
4, 2256, Note_on_c, 1, 38, 69
4, 2301, Note_on_c, 1, 38, 0
4, 2352, Note_on_c, 1, 42, 69
4, 2397, Note_on_c, 1, 42, 0
4, 2400, Note_on_c, 1, 42, 69
4, 2445, Note_on_c, 1, 42, 0
4, 2448, Note_on_c, 1, 42, 69
4, 2493, Note_on_c, 1, 42, 0
4, 2544, Note_on_c, 1, 43, 69
4, 2589, Note_on_c, 1, 43, 0
4, 2592, Note_on_c, 1, 43, 69
4, 2637, Note_on_c, 1, 43, 0
4, 2640, Note_on_c, 1, 43, 69
4, 2685, Note_on_c, 1, 43, 0
4, 2736, Note_on_c, 1, 42, 69
4, 2781, Note_on_c, 1, 42, 0
4, 2784, Note_on_c, 1, 42, 69
4, 2829, Note_on_c, 1, 42, 0
4, 2832, Note_on_c, 1, 42, 69
4, 2877, Note_on_c, 1, 42, 0
4, 2880, Note_on_c, 1, 43, 69
4, 2925, Note_on_c, 1, 43, 0
4, 2976, Note_on_c, 1, 42, 69
4, 3021, Note_on_c, 1, 42, 0
4, 3120, Note_on_c, 1, 54, 69
4, 3165, Note_on_c, 1, 54, 0
4, 3168, Note_on_c, 1, 52, 69
4, 3213, Note_on_c, 1, 52, 0
4, 3216, Note_on_c, 1, 45, 69
4, 3261, Note_on_c, 1, 45, 0
4, 3264, Note_on_c, 1, 50, 69
4, 3309, Note_on_c, 1, 50, 0
4, 3312, Note_on_c, 1, 45, 69
4, 3357, Note_on_c, 1, 45, 0
4, 3360, Note_on_c, 1, 38, 69
4, 3407, Note_on_c, 1, 38, 0
4, 3504, Note_on_c, 1, 38, 76
4, 3549, Note_on_c, 1, 38, 0
4, 3552, Note_on_c, 1, 50, 78
4, 3597, Note_on_c, 1, 50, 0
4, 3600, Note_on_c, 1, 49, 80
4, 3645, Note_on_c, 1, 49, 0
4, 3648, Note_on_c, 1, 50, 82
4, 3693, Note_on_c, 1, 50, 0
4, 3696, Note_on_c, 1, 55, 84
4, 3741, Note_on_c, 1, 55, 0
4, 3744, Note_on_c, 1, 54, 81
4, 3789, Note_on_c, 1, 54, 0
4, 3792, Note_on_c, 1, 49, 78
4, 3837, Note_on_c, 1, 49, 0
4, 3888, Note_on_c, 1, 38, 75
4, 3933, Note_on_c, 1, 38, 0
4, 3936, Note_on_c, 1, 50, 75
4, 3981, Note_on_c, 1, 50, 0
4, 3984, Note_on_c, 1, 49, 76
4, 4029, Note_on_c, 1, 49, 0
4, 4032, Note_on_c, 1, 50, 77
4, 4077, Note_on_c, 1, 50, 0
4, 4080, Note_on_c, 1, 55, 78
4, 4125, Note_on_c, 1, 55, 0
4, 4128, Note_on_c, 1, 54, 79
4, 4173, Note_on_c, 1, 54, 0
4, 4176, Note_on_c, 1, 49, 80
4, 4221, Note_on_c, 1, 49, 0
4, 4224, Note_on_c, 1, 50, 81
4, 4269, Note_on_c, 1, 50, 0
4, 4272, Note_on_c, 1, 52, 82
4, 4317, Note_on_c, 1, 52, 0
4, 4320, Note_on_c, 1, 54, 83
4, 4365, Note_on_c, 1, 54, 0
4, 4416, Note_on_c, 1, 50, 75
4, 4461, Note_on_c, 1, 50, 0
4, 4464, Note_on_c, 1, 52, 78
4, 4509, Note_on_c, 1, 52, 0
4, 4512, Note_on_c, 1, 54, 81
4, 4557, Note_on_c, 1, 54, 0
4, 4656, Note_on_c, 1, 38, 69
4, 4701, Note_on_c, 1, 38, 0
4, 4704, Note_on_c, 1, 38, 69
4, 4749, Note_on_c, 1, 38, 0
4, 4752, Note_on_c, 1, 38, 69
4, 4797, Note_on_c, 1, 38, 0
4, 4848, Note_on_c, 1, 40, 69
4, 4893, Note_on_c, 1, 40, 0
4, 4896, Note_on_c, 1, 40, 69
4, 4941, Note_on_c, 1, 40, 0
4, 4944, Note_on_c, 1, 40, 69
4, 4989, Note_on_c, 1, 40, 0
4, 5040, Note_on_c, 1, 33, 69
4, 5085, Note_on_c, 1, 33, 0
4, 5088, Note_on_c, 1, 33, 69
4, 5133, Note_on_c, 1, 33, 0
4, 5136, Note_on_c, 1, 33, 69
4, 5181, Note_on_c, 1, 33, 0
4, 5232, Note_on_c, 1, 38, 69
4, 5277, Note_on_c, 1, 38, 0
4, 5280, Note_on_c, 1, 38, 69
4, 5325, Note_on_c, 1, 38, 0
4, 5328, Note_on_c, 1, 38, 69
4, 5373, Note_on_c, 1, 38, 0
4, 5424, Note_on_c, 1, 50, 69
4, 5424, Note_on_c, 1, 42, 69
4, 5471, Note_on_c, 1, 50, 0
4, 5471, Note_on_c, 1, 42, 0
4, 5472, Note_on_c, 1, 50, 69
4, 5472, Note_on_c, 1, 42, 69
4, 5519, Note_on_c, 1, 50, 0
4, 5519, Note_on_c, 1, 42, 0
4, 5520, Note_on_c, 1, 50, 69
4, 5520, Note_on_c, 1, 42, 69
4, 5567, Note_on_c, 1, 50, 0
4, 5567, Note_on_c, 1, 42, 0
4, 5616, Note_on_c, 1, 50, 69
4, 5616, Note_on_c, 1, 43, 69
4, 5663, Note_on_c, 1, 50, 0
4, 5663, Note_on_c, 1, 43, 0
4, 5664, Note_on_c, 1, 50, 69
4, 5664, Note_on_c, 1, 43, 69
4, 5711, Note_on_c, 1, 50, 0
4, 5711, Note_on_c, 1, 43, 0
4, 5712, Note_on_c, 1, 50, 69
4, 5712, Note_on_c, 1, 43, 69
4, 5759, Note_on_c, 1, 50, 0
4, 5759, Note_on_c, 1, 43, 0
4, 5808, Note_on_c, 1, 50, 69
4, 5808, Note_on_c, 1, 42, 69
4, 5855, Note_on_c, 1, 50, 0
4, 5855, Note_on_c, 1, 42, 0
4, 5856, Note_on_c, 1, 50, 69
4, 5856, Note_on_c, 1, 42, 69
4, 5903, Note_on_c, 1, 50, 0
4, 5903, Note_on_c, 1, 42, 0
4, 5904, Note_on_c, 1, 50, 69
4, 5904, Note_on_c, 1, 42, 69
4, 5951, Note_on_c, 1, 50, 0
4, 5951, Note_on_c, 1, 42, 0
4, 5952, Note_on_c, 1, 50, 69
4, 5952, Note_on_c, 1, 43, 69
4, 5997, Note_on_c, 1, 50, 0
4, 5997, Note_on_c, 1, 43, 0
4, 6048, Note_on_c, 1, 50, 69
4, 6048, Note_on_c, 1, 42, 69
4, 6093, Note_on_c, 1, 50, 0
4, 6093, Note_on_c, 1, 42, 0
4, 6144, Note_on_c, 1, 50, 69
4, 6144, Note_on_c, 1, 43, 69
4, 6189, Note_on_c, 1, 50, 0
4, 6189, Note_on_c, 1, 43, 0
4, 6240, Note_on_c, 1, 50, 69
4, 6240, Note_on_c, 1, 42, 69
4, 6285, Note_on_c, 1, 50, 0
4, 6285, Note_on_c, 1, 42, 0
4, 6336, Note_on_c, 1, 49, 75
4, 6336, Note_on_c, 1, 45, 75
4, 6381, Note_on_c, 1, 49, 0
4, 6381, Note_on_c, 1, 45, 0
4, 6384, Note_on_c, 1, 50, 76
4, 6384, Note_on_c, 1, 45, 76
4, 6429, Note_on_c, 1, 50, 0
4, 6429, Note_on_c, 1, 45, 0
4, 6432, Note_on_c, 1, 55, 77
4, 6432, Note_on_c, 1, 45, 77
4, 6477, Note_on_c, 1, 55, 0
4, 6477, Note_on_c, 1, 45, 0
4, 6480, Note_on_c, 1, 54, 78
4, 6480, Note_on_c, 1, 45, 78
4, 6525, Note_on_c, 1, 54, 0
4, 6525, Note_on_c, 1, 45, 0
4, 6528, Note_on_c, 1, 49, 79
4, 6528, Note_on_c, 1, 45, 79
4, 6573, Note_on_c, 1, 49, 0
4, 6573, Note_on_c, 1, 45, 0
4, 6576, Note_on_c, 1, 50, 80
4, 6576, Note_on_c, 1, 45, 80
4, 6621, Note_on_c, 1, 50, 0
4, 6621, Note_on_c, 1, 45, 0
4, 6624, Note_on_c, 1, 55, 81
4, 6624, Note_on_c, 1, 45, 81
4, 6669, Note_on_c, 1, 55, 0
4, 6669, Note_on_c, 1, 45, 0
4, 6672, Note_on_c, 1, 54, 82
4, 6672, Note_on_c, 1, 45, 82
4, 6717, Note_on_c, 1, 54, 0
4, 6717, Note_on_c, 1, 45, 0
4, 6720, Note_on_c, 1, 49, 83
4, 6720, Note_on_c, 1, 45, 83
4, 6765, Note_on_c, 1, 49, 0
4, 6765, Note_on_c, 1, 45, 0
4, 6768, Note_on_c, 1, 50, 84
4, 6768, Note_on_c, 1, 45, 84
4, 6813, Note_on_c, 1, 50, 0
4, 6813, Note_on_c, 1, 45, 0
4, 6816, Note_on_c, 1, 49, 85
4, 6816, Note_on_c, 1, 45, 85
4, 6861, Note_on_c, 1, 49, 0
4, 6861, Note_on_c, 1, 45, 0
4, 6864, Note_on_c, 1, 50, 86
4, 6864, Note_on_c, 1, 45, 86
4, 6909, Note_on_c, 1, 50, 0
4, 6909, Note_on_c, 1, 45, 0
4, 6912, Note_on_c, 1, 57, 87
4, 6912, Note_on_c, 1, 52, 87
4, 6912, Note_on_c, 1, 49, 87
4, 6912, Note_on_c, 1, 45, 87
4, 7001, Note_on_c, 1, 57, 0
4, 7001, Note_on_c, 1, 52, 0
4, 7001, Note_on_c, 1, 49, 0
4, 7001, Note_on_c, 1, 45, 0
4, 7008, Control_c, 1, 64, 127
4, 7008, Note_on_c, 1, 45, 90
4, 7008, Note_on_c, 1, 33, 90
4, 7097, Note_on_c, 1, 45, 0
4, 7097, Note_on_c, 1, 33, 0
4, 7104, Note_on_c, 1, 45, 87
4, 7104, Note_on_c, 1, 33, 87
4, 7197, Note_on_c, 1, 45, 0
4, 7197, Note_on_c, 1, 33, 0
4, 7248, Control_c, 1, 64, 0
4, 7440, Note_on_c, 1, 73, 75
4, 7460, Note_on_c, 1, 73, 0
4, 7488, Note_on_c, 1, 71, 75
4, 7508, Note_on_c, 1, 71, 0
4, 7536, Note_on_c, 1, 69, 75
4, 7556, Note_on_c, 1, 69, 0
4, 7584, Note_on_c, 1, 68, 75
4, 7604, Note_on_c, 1, 68, 0
4, 7632, Note_on_c, 1, 66, 75
4, 7652, Note_on_c, 1, 66, 0
4, 7680, Note_on_c, 1, 64, 75
4, 7769, Note_on_c, 1, 64, 0
4, 7824, Note_on_c, 1, 73, 75
4, 7824, Note_on_c, 1, 69, 75
4, 7844, Note_on_c, 1, 73, 0
4, 7844, Note_on_c, 1, 69, 0
4, 7872, Note_on_c, 1, 71, 75
4, 7872, Note_on_c, 1, 68, 75
4, 7892, Note_on_c, 1, 71, 0
4, 7892, Note_on_c, 1, 68, 0
4, 7920, Note_on_c, 1, 69, 75
4, 7920, Note_on_c, 1, 66, 75
4, 7940, Note_on_c, 1, 69, 0
4, 7940, Note_on_c, 1, 66, 0
4, 7968, Note_on_c, 1, 68, 75
4, 7968, Note_on_c, 1, 64, 75
4, 7988, Note_on_c, 1, 68, 0
4, 7988, Note_on_c, 1, 64, 0
4, 8016, Note_on_c, 1, 66, 75
4, 8016, Note_on_c, 1, 62, 75
4, 8036, Note_on_c, 1, 66, 0
4, 8036, Note_on_c, 1, 62, 0
4, 8064, Note_on_c, 1, 64, 75
4, 8064, Note_on_c, 1, 61, 75
4, 8153, Note_on_c, 1, 64, 0
4, 8153, Note_on_c, 1, 61, 0
4, 8208, Note_on_c, 1, 61, 75
4, 8208, Note_on_c, 1, 49, 75
4, 8253, Note_on_c, 1, 61, 0
4, 8253, Note_on_c, 1, 49, 0
4, 8256, Note_on_c, 1, 62, 75
4, 8256, Note_on_c, 1, 50, 75
4, 8345, Note_on_c, 1, 62, 0
4, 8345, Note_on_c, 1, 50, 0
4, 8352, Note_on_c, 1, 59, 77
4, 8352, Note_on_c, 1, 47, 77
4, 8441, Note_on_c, 1, 59, 0
4, 8441, Note_on_c, 1, 47, 0
4, 8448, Note_on_c, 1, 61, 79
4, 8448, Note_on_c, 1, 49, 79
4, 8537, Note_on_c, 1, 61, 0
4, 8537, Note_on_c, 1, 49, 0
4, 8544, Note_on_c, 1, 56, 80
4, 8544, Note_on_c, 1, 44, 80
4, 8633, Note_on_c, 1, 56, 0
4, 8633, Note_on_c, 1, 44, 0
4, 8640, Note_on_c, 1, 57, 82
4, 8640, Note_on_c, 1, 45, 82
4, 8729, Note_on_c, 1, 57, 0
4, 8729, Note_on_c, 1, 45, 0
4, 8832, Control_c, 1, 64, 127
4, 8832, Note_on_c, 1, 45, 61
4, 8832, Note_on_c, 1, 33, 61
4, 8877, Note_on_c, 1, 45, 0
4, 8877, Note_on_c, 1, 33, 0
4, 8880, Note_on_c, 1, 72, 61
4, 8880, Note_on_c, 1, 69, 61
4, 8927, Note_on_c, 1, 72, 0
4, 8927, Note_on_c, 1, 69, 0
4, 8928, Note_on_c, 1, 72, 61
4, 8928, Note_on_c, 1, 69, 61
4, 8975, Note_on_c, 1, 72, 0
4, 8975, Note_on_c, 1, 69, 0
4, 8976, Note_on_c, 1, 72, 61
4, 8976, Note_on_c, 1, 69, 61
4, 9023, Note_on_c, 1, 72, 0
4, 9023, Note_on_c, 1, 69, 0
4, 9024, Note_on_c, 1, 72, 61
4, 9024, Note_on_c, 1, 69, 61
4, 9071, Note_on_c, 1, 72, 0
4, 9071, Note_on_c, 1, 69, 0
4, 9072, Note_on_c, 1, 72, 61
4, 9072, Note_on_c, 1, 69, 61
4, 9119, Note_on_c, 1, 72, 0
4, 9119, Note_on_c, 1, 69, 0
4, 9120, Note_on_c, 1, 72, 61
4, 9120, Note_on_c, 1, 69, 61
4, 9167, Note_on_c, 1, 72, 0
4, 9167, Note_on_c, 1, 69, 0
4, 9168, Note_on_c, 1, 72, 61
4, 9168, Note_on_c, 1, 69, 61
4, 9215, Note_on_c, 1, 72, 0
4, 9215, Note_on_c, 1, 69, 0
4, 9216, Note_on_c, 1, 72, 61
4, 9216, Note_on_c, 1, 69, 61
4, 9305, Note_on_c, 1, 72, 0
4, 9305, Note_on_c, 1, 69, 0
4, 9600, Note_on_c, 1, 41, 61
4, 9600, Note_on_c, 1, 29, 61
4, 9777, Note_on_c, 1, 41, 0
4, 9777, Note_on_c, 1, 29, 0
4, 9792, Note_on_c, 1, 41, 61
4, 9792, Note_on_c, 1, 29, 61
4, 9925, Note_on_c, 1, 41, 0
4, 9925, Note_on_c, 1, 29, 0
4, 9936, Note_on_c, 1, 53, 61
4, 9936, Note_on_c, 1, 41, 61
4, 9981, Note_on_c, 1, 53, 0
4, 9981, Note_on_c, 1, 41, 0
4, 9984, Control_c, 1, 64, 0
4, 9984, Note_on_c, 1, 52, 75
4, 10008, Note_on_c, 1, 52, 0
4, 10008, Note_on_c, 1, 40, 75
4, 10031, Note_on_c, 1, 40, 0
4, 10032, Note_on_c, 1, 52, 75
4, 10042, Note_on_c, 1, 52, 0
4, 10056, Note_on_c, 1, 52, 75
4, 10066, Note_on_c, 1, 52, 0
4, 10080, Note_on_c, 1, 52, 75
4, 10090, Note_on_c, 1, 52, 0
4, 10104, Note_on_c, 1, 52, 75
4, 10114, Note_on_c, 1, 52, 0
4, 10128, Note_on_c, 1, 52, 75
4, 10138, Note_on_c, 1, 52, 0
4, 10152, Note_on_c, 1, 52, 75
4, 10162, Note_on_c, 1, 52, 0
4, 10176, Note_on_c, 1, 52, 75
4, 10186, Note_on_c, 1, 52, 0
4, 10200, Note_on_c, 1, 52, 75
4, 10210, Note_on_c, 1, 52, 0
4, 10224, Note_on_c, 1, 52, 75
4, 10234, Note_on_c, 1, 52, 0
4, 10248, Note_on_c, 1, 52, 75
4, 10258, Note_on_c, 1, 52, 0
4, 10272, Note_on_c, 1, 52, 75
4, 10282, Note_on_c, 1, 52, 0
4, 10296, Note_on_c, 1, 52, 75
4, 10306, Note_on_c, 1, 52, 0
4, 10320, Note_on_c, 1, 52, 75
4, 10330, Note_on_c, 1, 52, 0
4, 10344, Note_on_c, 1, 52, 75
4, 10354, Note_on_c, 1, 52, 0
4, 10368, Note_on_c, 1, 52, 75
4, 10392, Note_on_c, 1, 52, 0
4, 10392, Note_on_c, 1, 40, 75
4, 10415, Note_on_c, 1, 40, 0
4, 10416, Note_on_c, 1, 52, 75
4, 10426, Note_on_c, 1, 52, 0
4, 10440, Note_on_c, 1, 52, 75
4, 10450, Note_on_c, 1, 52, 0
4, 10464, Note_on_c, 1, 52, 75
4, 10474, Note_on_c, 1, 52, 0
4, 10488, Note_on_c, 1, 52, 75
4, 10498, Note_on_c, 1, 52, 0
4, 10512, Note_on_c, 1, 52, 75
4, 10522, Note_on_c, 1, 52, 0
4, 10536, Note_on_c, 1, 52, 75
4, 10546, Note_on_c, 1, 52, 0
4, 10560, Note_on_c, 1, 52, 75
4, 10570, Note_on_c, 1, 52, 0
4, 10584, Note_on_c, 1, 52, 75
4, 10594, Note_on_c, 1, 52, 0
4, 10608, Note_on_c, 1, 52, 75
4, 10618, Note_on_c, 1, 52, 0
4, 10632, Note_on_c, 1, 52, 75
4, 10642, Note_on_c, 1, 52, 0
4, 10656, Note_on_c, 1, 52, 75
4, 10666, Note_on_c, 1, 52, 0
4, 10680, Note_on_c, 1, 52, 75
4, 10690, Note_on_c, 1, 52, 0
4, 10704, Note_on_c, 1, 52, 75
4, 10714, Note_on_c, 1, 52, 0
4, 10728, Note_on_c, 1, 52, 75
4, 10738, Note_on_c, 1, 52, 0
4, 10752, Note_on_c, 1, 52, 75
4, 10776, Note_on_c, 1, 52, 0
4, 10776, Note_on_c, 1, 40, 75
4, 10799, Note_on_c, 1, 40, 0
4, 10800, Note_on_c, 1, 52, 75
4, 10810, Note_on_c, 1, 52, 0
4, 10824, Note_on_c, 1, 52, 75
4, 10834, Note_on_c, 1, 52, 0
4, 10848, Note_on_c, 1, 52, 75
4, 10858, Note_on_c, 1, 52, 0
4, 10872, Note_on_c, 1, 52, 75
4, 10882, Note_on_c, 1, 52, 0
4, 10896, Note_on_c, 1, 52, 75
4, 10906, Note_on_c, 1, 52, 0
4, 10920, Note_on_c, 1, 52, 75
4, 10930, Note_on_c, 1, 52, 0
4, 10944, Note_on_c, 1, 52, 75
4, 10954, Note_on_c, 1, 52, 0
4, 10968, Note_on_c, 1, 52, 75
4, 10978, Note_on_c, 1, 52, 0
4, 10992, Note_on_c, 1, 52, 75
4, 11002, Note_on_c, 1, 52, 0
4, 11016, Note_on_c, 1, 52, 75
4, 11026, Note_on_c, 1, 52, 0
4, 11040, Note_on_c, 1, 52, 75
4, 11050, Note_on_c, 1, 52, 0
4, 11064, Note_on_c, 1, 52, 75
4, 11074, Note_on_c, 1, 52, 0
4, 11088, Note_on_c, 1, 52, 75
4, 11098, Note_on_c, 1, 52, 0
4, 11112, Note_on_c, 1, 52, 75
4, 11122, Note_on_c, 1, 52, 0
4, 11136, Note_on_c, 1, 52, 75
4, 11160, Note_on_c, 1, 52, 0
4, 11160, Note_on_c, 1, 40, 75
4, 11183, Note_on_c, 1, 40, 0
4, 11184, Note_on_c, 1, 52, 75
4, 11194, Note_on_c, 1, 52, 0
4, 11208, Note_on_c, 1, 52, 75
4, 11218, Note_on_c, 1, 52, 0
4, 11232, Note_on_c, 1, 52, 75
4, 11242, Note_on_c, 1, 52, 0
4, 11256, Note_on_c, 1, 52, 75
4, 11266, Note_on_c, 1, 52, 0
4, 11280, Note_on_c, 1, 52, 75
4, 11290, Note_on_c, 1, 52, 0
4, 11304, Note_on_c, 1, 52, 75
4, 11314, Note_on_c, 1, 52, 0
4, 11328, Note_on_c, 1, 52, 75
4, 11338, Note_on_c, 1, 52, 0
4, 11352, Note_on_c, 1, 52, 75
4, 11362, Note_on_c, 1, 52, 0
4, 11376, Note_on_c, 1, 52, 75
4, 11386, Note_on_c, 1, 52, 0
4, 11400, Note_on_c, 1, 52, 75
4, 11410, Note_on_c, 1, 52, 0
4, 11424, Note_on_c, 1, 52, 75
4, 11434, Note_on_c, 1, 52, 0
4, 11448, Note_on_c, 1, 52, 75
4, 11458, Note_on_c, 1, 52, 0
4, 11472, Note_on_c, 1, 52, 75
4, 11482, Note_on_c, 1, 52, 0
4, 11496, Note_on_c, 1, 52, 75
4, 11506, Note_on_c, 1, 52, 0
4, 11520, Note_on_c, 1, 52, 75
4, 11544, Note_on_c, 1, 52, 0
4, 11544, Note_on_c, 1, 40, 75
4, 11567, Note_on_c, 1, 40, 0
4, 11568, Note_on_c, 1, 52, 75
4, 11578, Note_on_c, 1, 52, 0
4, 11592, Note_on_c, 1, 52, 75
4, 11602, Note_on_c, 1, 52, 0
4, 11616, Note_on_c, 1, 52, 75
4, 11661, Note_on_c, 1, 52, 0
4, 11760, Note_on_c, 1, 74, 61
4, 11760, Note_on_c, 1, 71, 61
4, 11760, Note_on_c, 1, 64, 61
4, 11780, Note_on_c, 1, 74, 0
4, 11780, Note_on_c, 1, 71, 0
4, 11780, Note_on_c, 1, 64, 0
4, 11808, Note_on_c, 1, 74, 61
4, 11808, Note_on_c, 1, 71, 61
4, 11808, Note_on_c, 1, 64, 61
4, 11855, Note_on_c, 1, 74, 0
4, 11855, Note_on_c, 1, 71, 0
4, 11855, Note_on_c, 1, 64, 0
4, 11952, Note_on_c, 1, 69, 61
4, 11952, Note_on_c, 1, 64, 61
4, 11952, Note_on_c, 1, 61, 61
4, 11972, Note_on_c, 1, 69, 0
4, 11972, Note_on_c, 1, 64, 0
4, 11972, Note_on_c, 1, 61, 0
4, 12000, Note_on_c, 1, 69, 61
4, 12000, Note_on_c, 1, 64, 61
4, 12000, Note_on_c, 1, 61, 61
4, 12047, Note_on_c, 1, 69, 0
4, 12047, Note_on_c, 1, 64, 0
4, 12047, Note_on_c, 1, 61, 0
4, 12144, Note_on_c, 1, 74, 61
4, 12144, Note_on_c, 1, 71, 61
4, 12144, Note_on_c, 1, 64, 61
4, 12164, Note_on_c, 1, 74, 0
4, 12164, Note_on_c, 1, 71, 0
4, 12164, Note_on_c, 1, 64, 0
4, 12192, Note_on_c, 1, 74, 61
4, 12192, Note_on_c, 1, 71, 61
4, 12192, Note_on_c, 1, 64, 61
4, 12239, Note_on_c, 1, 74, 0
4, 12239, Note_on_c, 1, 71, 0
4, 12239, Note_on_c, 1, 64, 0
4, 12288, Note_on_c, 1, 69, 61
4, 12288, Note_on_c, 1, 64, 61
4, 12288, Note_on_c, 1, 61, 61
4, 12333, Note_on_c, 1, 69, 0
4, 12333, Note_on_c, 1, 64, 0
4, 12333, Note_on_c, 1, 61, 0
4, 12384, Note_on_c, 1, 69, 61
4, 12384, Note_on_c, 1, 66, 61
4, 12384, Note_on_c, 1, 62, 61
4, 12429, Note_on_c, 1, 69, 0
4, 12429, Note_on_c, 1, 66, 0
4, 12429, Note_on_c, 1, 62, 0
4, 12480, Note_on_c, 1, 62, 75
4, 12480, Note_on_c, 1, 50, 75
4, 12525, Note_on_c, 1, 62, 0
4, 12525, Note_on_c, 1, 50, 0
4, 12576, Note_on_c, 1, 50, 75
4, 12576, Note_on_c, 1, 38, 75
4, 12621, Note_on_c, 1, 50, 0
4, 12621, Note_on_c, 1, 38, 0
4, 12720, Note_on_c, 1, 57, 75
4, 12809, Note_on_c, 1, 57, 0
4, 12816, Note_on_c, 1, 56, 75
4, 12861, Note_on_c, 1, 56, 0
4, 12864, Note_on_c, 1, 57, 61
4, 12879, Note_on_c, 1, 57, 0
4, 12880, Note_on_c, 1, 61, 61
4, 12895, Note_on_c, 1, 61, 0
4, 12896, Note_on_c, 1, 64, 61
4, 12911, Note_on_c, 1, 64, 0
4, 12912, Note_on_c, 1, 57, 61
4, 12927, Note_on_c, 1, 57, 0
4, 12928, Note_on_c, 1, 61, 61
4, 12943, Note_on_c, 1, 61, 0
4, 12944, Note_on_c, 1, 64, 61
4, 12959, Note_on_c, 1, 64, 0
4, 12960, Note_on_c, 1, 56, 61
4, 12975, Note_on_c, 1, 56, 0
4, 12976, Note_on_c, 1, 59, 61
4, 12991, Note_on_c, 1, 59, 0
4, 12992, Note_on_c, 1, 64, 61
4, 13007, Note_on_c, 1, 64, 0
4, 13008, Note_on_c, 1, 56, 61
4, 13023, Note_on_c, 1, 56, 0
4, 13024, Note_on_c, 1, 59, 61
4, 13039, Note_on_c, 1, 59, 0
4, 13040, Note_on_c, 1, 64, 61
4, 13055, Note_on_c, 1, 64, 0
4, 13056, Note_on_c, 1, 57, 61
4, 13071, Note_on_c, 1, 57, 0
4, 13072, Note_on_c, 1, 61, 61
4, 13087, Note_on_c, 1, 61, 0
4, 13088, Note_on_c, 1, 64, 61
4, 13103, Note_on_c, 1, 64, 0
4, 13104, Note_on_c, 1, 57, 61
4, 13119, Note_on_c, 1, 57, 0
4, 13120, Note_on_c, 1, 61, 61
4, 13135, Note_on_c, 1, 61, 0
4, 13136, Note_on_c, 1, 64, 61
4, 13151, Note_on_c, 1, 64, 0
4, 13152, Note_on_c, 1, 59, 61
4, 13167, Note_on_c, 1, 59, 0
4, 13168, Note_on_c, 1, 62, 61
4, 13183, Note_on_c, 1, 62, 0
4, 13184, Note_on_c, 1, 64, 61
4, 13199, Note_on_c, 1, 64, 0
4, 13200, Note_on_c, 1, 59, 61
4, 13215, Note_on_c, 1, 59, 0
4, 13216, Note_on_c, 1, 62, 61
4, 13231, Note_on_c, 1, 62, 0
4, 13232, Note_on_c, 1, 64, 61
4, 13247, Note_on_c, 1, 64, 0
4, 13248, Note_on_c, 1, 57, 61
4, 13263, Note_on_c, 1, 57, 0
4, 13264, Note_on_c, 1, 61, 61
4, 13279, Note_on_c, 1, 61, 0
4, 13280, Note_on_c, 1, 64, 61
4, 13295, Note_on_c, 1, 64, 0
4, 13296, Note_on_c, 1, 57, 61
4, 13311, Note_on_c, 1, 57, 0
4, 13312, Note_on_c, 1, 61, 61
4, 13327, Note_on_c, 1, 61, 0
4, 13328, Note_on_c, 1, 64, 61
4, 13343, Note_on_c, 1, 64, 0
4, 13344, Note_on_c, 1, 56, 61
4, 13359, Note_on_c, 1, 56, 0
4, 13360, Note_on_c, 1, 59, 61
4, 13375, Note_on_c, 1, 59, 0
4, 13376, Note_on_c, 1, 64, 61
4, 13391, Note_on_c, 1, 64, 0
4, 13392, Note_on_c, 1, 56, 61
4, 13407, Note_on_c, 1, 56, 0
4, 13408, Note_on_c, 1, 59, 61
4, 13423, Note_on_c, 1, 59, 0
4, 13424, Note_on_c, 1, 64, 61
4, 13439, Note_on_c, 1, 64, 0
4, 13440, Note_on_c, 1, 57, 61
4, 13455, Note_on_c, 1, 57, 0
4, 13456, Note_on_c, 1, 61, 61
4, 13471, Note_on_c, 1, 61, 0
4, 13472, Note_on_c, 1, 64, 61
4, 13487, Note_on_c, 1, 64, 0
4, 13488, Note_on_c, 1, 57, 61
4, 13503, Note_on_c, 1, 57, 0
4, 13504, Note_on_c, 1, 61, 61
4, 13519, Note_on_c, 1, 61, 0
4, 13520, Note_on_c, 1, 64, 61
4, 13535, Note_on_c, 1, 64, 0
4, 13536, Note_on_c, 1, 59, 61
4, 13551, Note_on_c, 1, 59, 0
4, 13552, Note_on_c, 1, 62, 61
4, 13567, Note_on_c, 1, 62, 0
4, 13568, Note_on_c, 1, 64, 61
4, 13583, Note_on_c, 1, 64, 0
4, 13584, Note_on_c, 1, 59, 61
4, 13599, Note_on_c, 1, 59, 0
4, 13600, Note_on_c, 1, 62, 61
4, 13615, Note_on_c, 1, 62, 0
4, 13616, Note_on_c, 1, 64, 61
4, 13631, Note_on_c, 1, 64, 0
4, 13632, Note_on_c, 1, 57, 61
4, 13647, Note_on_c, 1, 57, 0
4, 13648, Note_on_c, 1, 61, 61
4, 13663, Note_on_c, 1, 61, 0
4, 13664, Note_on_c, 1, 64, 61
4, 13679, Note_on_c, 1, 64, 0
4, 13680, Note_on_c, 1, 57, 61
4, 13695, Note_on_c, 1, 57, 0
4, 13696, Note_on_c, 1, 61, 61
4, 13711, Note_on_c, 1, 61, 0
4, 13712, Note_on_c, 1, 64, 61
4, 13727, Note_on_c, 1, 64, 0
4, 13728, Note_on_c, 1, 56, 61
4, 13743, Note_on_c, 1, 56, 0
4, 13744, Note_on_c, 1, 59, 61
4, 13759, Note_on_c, 1, 59, 0
4, 13760, Note_on_c, 1, 64, 61
4, 13775, Note_on_c, 1, 64, 0
4, 13776, Note_on_c, 1, 56, 61
4, 13791, Note_on_c, 1, 56, 0
4, 13792, Note_on_c, 1, 59, 61
4, 13807, Note_on_c, 1, 59, 0
4, 13808, Note_on_c, 1, 64, 61
4, 13823, Note_on_c, 1, 64, 0
4, 13824, Note_on_c, 1, 57, 61
4, 13839, Note_on_c, 1, 57, 0
4, 13840, Note_on_c, 1, 61, 61
4, 13855, Note_on_c, 1, 61, 0
4, 13856, Note_on_c, 1, 64, 61
4, 13871, Note_on_c, 1, 64, 0
4, 13872, Note_on_c, 1, 57, 61
4, 13887, Note_on_c, 1, 57, 0
4, 13888, Note_on_c, 1, 61, 61
4, 13903, Note_on_c, 1, 61, 0
4, 13904, Note_on_c, 1, 64, 61
4, 13919, Note_on_c, 1, 64, 0
4, 13920, Note_on_c, 1, 52, 61
4, 13935, Note_on_c, 1, 52, 0
4, 13936, Note_on_c, 1, 59, 61
4, 13951, Note_on_c, 1, 59, 0
4, 13952, Note_on_c, 1, 64, 61
4, 13967, Note_on_c, 1, 64, 0
4, 13968, Note_on_c, 1, 52, 61
4, 13983, Note_on_c, 1, 52, 0
4, 13984, Note_on_c, 1, 59, 61
4, 13999, Note_on_c, 1, 59, 0
4, 14000, Note_on_c, 1, 64, 61
4, 14015, Note_on_c, 1, 64, 0
4, 14016, Note_on_c, 1, 57, 61
4, 14031, Note_on_c, 1, 57, 0
4, 14032, Note_on_c, 1, 61, 61
4, 14047, Note_on_c, 1, 61, 0
4, 14048, Note_on_c, 1, 64, 61
4, 14063, Note_on_c, 1, 64, 0
4, 14064, Note_on_c, 1, 57, 61
4, 14079, Note_on_c, 1, 57, 0
4, 14080, Note_on_c, 1, 61, 61
4, 14095, Note_on_c, 1, 61, 0
4, 14096, Note_on_c, 1, 64, 61
4, 14111, Note_on_c, 1, 64, 0
4, 14112, Note_on_c, 1, 56, 61
4, 14127, Note_on_c, 1, 56, 0
4, 14128, Note_on_c, 1, 59, 61
4, 14143, Note_on_c, 1, 59, 0
4, 14144, Note_on_c, 1, 64, 61
4, 14159, Note_on_c, 1, 64, 0
4, 14160, Note_on_c, 1, 56, 61
4, 14175, Note_on_c, 1, 56, 0
4, 14176, Note_on_c, 1, 59, 61
4, 14191, Note_on_c, 1, 59, 0
4, 14192, Note_on_c, 1, 64, 61
4, 14207, Note_on_c, 1, 64, 0
4, 14208, Note_on_c, 1, 57, 61
4, 14223, Note_on_c, 1, 57, 0
4, 14224, Note_on_c, 1, 61, 61
4, 14239, Note_on_c, 1, 61, 0
4, 14240, Note_on_c, 1, 64, 61
4, 14255, Note_on_c, 1, 64, 0
4, 14256, Note_on_c, 1, 57, 61
4, 14271, Note_on_c, 1, 57, 0
4, 14272, Note_on_c, 1, 61, 61
4, 14287, Note_on_c, 1, 61, 0
4, 14288, Note_on_c, 1, 64, 61
4, 14303, Note_on_c, 1, 64, 0
4, 14304, Note_on_c, 1, 52, 61
4, 14319, Note_on_c, 1, 52, 0
4, 14320, Note_on_c, 1, 59, 61
4, 14335, Note_on_c, 1, 59, 0
4, 14336, Note_on_c, 1, 64, 61
4, 14351, Note_on_c, 1, 64, 0
4, 14352, Note_on_c, 1, 52, 61
4, 14367, Note_on_c, 1, 52, 0
4, 14368, Note_on_c, 1, 59, 61
4, 14383, Note_on_c, 1, 59, 0
4, 14384, Note_on_c, 1, 64, 61
4, 14399, Note_on_c, 1, 64, 0
4, 14400, Note_on_c, 1, 57, 61
4, 14415, Note_on_c, 1, 57, 0
4, 14416, Note_on_c, 1, 61, 61
4, 14431, Note_on_c, 1, 61, 0
4, 14432, Note_on_c, 1, 64, 61
4, 14447, Note_on_c, 1, 64, 0
4, 14448, Note_on_c, 1, 57, 61
4, 14463, Note_on_c, 1, 57, 0
4, 14464, Note_on_c, 1, 61, 61
4, 14479, Note_on_c, 1, 61, 0
4, 14480, Note_on_c, 1, 64, 61
4, 14495, Note_on_c, 1, 64, 0
4, 14496, Note_on_c, 1, 56, 61
4, 14511, Note_on_c, 1, 56, 0
4, 14512, Note_on_c, 1, 59, 61
4, 14527, Note_on_c, 1, 59, 0
4, 14528, Note_on_c, 1, 64, 61
4, 14543, Note_on_c, 1, 64, 0
4, 14544, Note_on_c, 1, 56, 61
4, 14559, Note_on_c, 1, 56, 0
4, 14560, Note_on_c, 1, 59, 61
4, 14575, Note_on_c, 1, 59, 0
4, 14576, Note_on_c, 1, 64, 61
4, 14591, Note_on_c, 1, 64, 0
4, 14592, Note_on_c, 1, 61, 75
4, 14592, Note_on_c, 1, 57, 75
4, 14637, Note_on_c, 1, 61, 0
4, 14637, Note_on_c, 1, 57, 0
4, 14688, Note_on_c, 1, 62, 75
4, 14688, Note_on_c, 1, 50, 75
4, 14733, Note_on_c, 1, 62, 0
4, 14733, Note_on_c, 1, 50, 0
4, 14784, Note_on_c, 1, 50, 75
4, 14784, Note_on_c, 1, 38, 75
4, 14829, Note_on_c, 1, 50, 0
4, 14829, Note_on_c, 1, 38, 0
4, 14880, Note_on_c, 1, 50, 75
4, 14880, Note_on_c, 1, 38, 75
4, 14925, Note_on_c, 1, 50, 0
4, 14925, Note_on_c, 1, 38, 0
4, 14976, Note_on_c, 1, 49, 61
4, 14991, Note_on_c, 1, 49, 0
4, 14992, Note_on_c, 1, 52, 61
4, 15007, Note_on_c, 1, 52, 0
4, 15008, Note_on_c, 1, 57, 61
4, 15023, Note_on_c, 1, 57, 0
4, 15024, Note_on_c, 1, 49, 61
4, 15039, Note_on_c, 1, 49, 0
4, 15040, Note_on_c, 1, 52, 61
4, 15055, Note_on_c, 1, 52, 0
4, 15056, Note_on_c, 1, 57, 61
4, 15071, Note_on_c, 1, 57, 0
4, 15072, Note_on_c, 1, 50, 61
4, 15087, Note_on_c, 1, 50, 0
4, 15088, Note_on_c, 1, 54, 61
4, 15103, Note_on_c, 1, 54, 0
4, 15104, Note_on_c, 1, 59, 61
4, 15119, Note_on_c, 1, 59, 0
4, 15120, Note_on_c, 1, 52, 61
4, 15135, Note_on_c, 1, 52, 0
4, 15136, Note_on_c, 1, 59, 61
4, 15151, Note_on_c, 1, 59, 0
4, 15152, Note_on_c, 1, 62, 61
4, 15167, Note_on_c, 1, 62, 0
4, 15168, Note_on_c, 1, 61, 75
4, 15168, Note_on_c, 1, 57, 75
4, 15213, Note_on_c, 1, 61, 0
4, 15213, Note_on_c, 1, 57, 0
4, 15264, Note_on_c, 1, 62, 75
4, 15264, Note_on_c, 1, 50, 75
4, 15309, Note_on_c, 1, 62, 0
4, 15309, Note_on_c, 1, 50, 0
4, 15360, Note_on_c, 1, 50, 75
4, 15360, Note_on_c, 1, 38, 75
4, 15405, Note_on_c, 1, 50, 0
4, 15405, Note_on_c, 1, 38, 0
4, 15456, Note_on_c, 1, 50, 75
4, 15456, Note_on_c, 1, 38, 75
4, 15501, Note_on_c, 1, 50, 0
4, 15501, Note_on_c, 1, 38, 0
4, 15552, Note_on_c, 1, 49, 61
4, 15567, Note_on_c, 1, 49, 0
4, 15568, Note_on_c, 1, 52, 61
4, 15583, Note_on_c, 1, 52, 0
4, 15584, Note_on_c, 1, 57, 61
4, 15599, Note_on_c, 1, 57, 0
4, 15600, Note_on_c, 1, 49, 61
4, 15615, Note_on_c, 1, 49, 0
4, 15616, Note_on_c, 1, 52, 61
4, 15631, Note_on_c, 1, 52, 0
4, 15632, Note_on_c, 1, 57, 61
4, 15647, Note_on_c, 1, 57, 0
4, 15648, Note_on_c, 1, 50, 61
4, 15663, Note_on_c, 1, 50, 0
4, 15664, Note_on_c, 1, 54, 61
4, 15679, Note_on_c, 1, 54, 0
4, 15680, Note_on_c, 1, 59, 61
4, 15695, Note_on_c, 1, 59, 0
4, 15696, Note_on_c, 1, 52, 61
4, 15711, Note_on_c, 1, 52, 0
4, 15712, Note_on_c, 1, 59, 61
4, 15727, Note_on_c, 1, 59, 0
4, 15728, Note_on_c, 1, 62, 61
4, 15743, Note_on_c, 1, 62, 0
4, 15744, Note_on_c, 1, 57, 53
4, 15759, Note_on_c, 1, 57, 0
4, 15760, Note_on_c, 1, 61, 53
4, 15775, Note_on_c, 1, 61, 0
4, 15776, Note_on_c, 1, 64, 53
4, 15791, Note_on_c, 1, 64, 0
4, 15792, Note_on_c, 1, 57, 53
4, 15807, Note_on_c, 1, 57, 0
4, 15808, Note_on_c, 1, 61, 53
4, 15823, Note_on_c, 1, 61, 0
4, 15824, Note_on_c, 1, 64, 53
4, 15839, Note_on_c, 1, 64, 0
4, 15840, Note_on_c, 1, 52, 53
4, 15855, Note_on_c, 1, 52, 0
4, 15856, Note_on_c, 1, 59, 53
4, 15871, Note_on_c, 1, 59, 0
4, 15872, Note_on_c, 1, 64, 53
4, 15887, Note_on_c, 1, 64, 0
4, 15888, Note_on_c, 1, 52, 53
4, 15903, Note_on_c, 1, 52, 0
4, 15904, Note_on_c, 1, 59, 53
4, 15919, Note_on_c, 1, 59, 0
4, 15920, Note_on_c, 1, 64, 53
4, 15935, Note_on_c, 1, 64, 0
4, 15936, Note_on_c, 1, 57, 53
4, 15951, Note_on_c, 1, 57, 0
4, 15952, Note_on_c, 1, 61, 53
4, 15967, Note_on_c, 1, 61, 0
4, 15968, Note_on_c, 1, 64, 53
4, 15983, Note_on_c, 1, 64, 0
4, 15984, Note_on_c, 1, 57, 53
4, 15999, Note_on_c, 1, 57, 0
4, 16000, Note_on_c, 1, 61, 53
4, 16015, Note_on_c, 1, 61, 0
4, 16016, Note_on_c, 1, 64, 53
4, 16031, Note_on_c, 1, 64, 0
4, 16032, Note_on_c, 1, 52, 53
4, 16047, Note_on_c, 1, 52, 0
4, 16048, Note_on_c, 1, 59, 53
4, 16063, Note_on_c, 1, 59, 0
4, 16064, Note_on_c, 1, 64, 53
4, 16079, Note_on_c, 1, 64, 0
4, 16080, Note_on_c, 1, 52, 53
4, 16095, Note_on_c, 1, 52, 0
4, 16096, Note_on_c, 1, 59, 53
4, 16111, Note_on_c, 1, 59, 0
4, 16112, Note_on_c, 1, 64, 53
4, 16127, Note_on_c, 1, 64, 0
4, 16128, Note_on_c, 1, 57, 53
4, 16143, Note_on_c, 1, 57, 0
4, 16144, Note_on_c, 1, 61, 53
4, 16159, Note_on_c, 1, 61, 0
4, 16160, Note_on_c, 1, 64, 53
4, 16175, Note_on_c, 1, 64, 0
4, 16176, Note_on_c, 1, 57, 53
4, 16191, Note_on_c, 1, 57, 0
4, 16192, Note_on_c, 1, 61, 53
4, 16207, Note_on_c, 1, 61, 0
4, 16208, Note_on_c, 1, 64, 53
4, 16223, Note_on_c, 1, 64, 0
4, 16224, Note_on_c, 1, 57, 53
4, 16239, Note_on_c, 1, 57, 0
4, 16240, Note_on_c, 1, 61, 53
4, 16255, Note_on_c, 1, 61, 0
4, 16256, Note_on_c, 1, 64, 53
4, 16271, Note_on_c, 1, 64, 0
4, 16272, Note_on_c, 1, 57, 53
4, 16287, Note_on_c, 1, 57, 0
4, 16288, Note_on_c, 1, 61, 53
4, 16303, Note_on_c, 1, 61, 0
4, 16304, Note_on_c, 1, 64, 53
4, 16319, Note_on_c, 1, 64, 0
4, 16320, Note_on_c, 1, 57, 53
4, 16409, Note_on_c, 1, 57, 0
4, 16560, Note_on_c, 1, 38, 77
4, 16605, Note_on_c, 1, 38, 0
4, 16608, Note_on_c, 1, 50, 79
4, 16653, Note_on_c, 1, 50, 0
4, 16656, Note_on_c, 1, 49, 81
4, 16701, Note_on_c, 1, 49, 0
4, 16704, Note_on_c, 1, 50, 84
4, 16749, Note_on_c, 1, 50, 0
4, 16752, Note_on_c, 1, 55, 81
4, 16797, Note_on_c, 1, 55, 0
4, 16800, Note_on_c, 1, 54, 79
4, 16845, Note_on_c, 1, 54, 0
4, 16848, Note_on_c, 1, 49, 77
4, 16893, Note_on_c, 1, 49, 0
4, 16944, Note_on_c, 1, 38, 77
4, 16989, Note_on_c, 1, 38, 0
4, 16992, Note_on_c, 1, 50, 79
4, 17037, Note_on_c, 1, 50, 0
4, 17040, Note_on_c, 1, 49, 81
4, 17085, Note_on_c, 1, 49, 0
4, 17088, Note_on_c, 1, 50, 84
4, 17133, Note_on_c, 1, 50, 0
4, 17136, Note_on_c, 1, 55, 81
4, 17181, Note_on_c, 1, 55, 0
4, 17184, Note_on_c, 1, 54, 79
4, 17229, Note_on_c, 1, 54, 0
4, 17232, Note_on_c, 1, 49, 77
4, 17277, Note_on_c, 1, 49, 0
4, 17280, Note_on_c, 1, 50, 75
4, 17325, Note_on_c, 1, 50, 0
4, 17328, Note_on_c, 1, 52, 78
4, 17373, Note_on_c, 1, 52, 0
4, 17376, Note_on_c, 1, 54, 81
4, 17421, Note_on_c, 1, 54, 0
4, 17472, Note_on_c, 1, 50, 75
4, 17517, Note_on_c, 1, 50, 0
4, 17520, Note_on_c, 1, 52, 78
4, 17565, Note_on_c, 1, 52, 0
4, 17568, Note_on_c, 1, 54, 81
4, 17613, Note_on_c, 1, 54, 0
4, 17712, Note_on_c, 1, 38, 69
4, 17757, Note_on_c, 1, 38, 0
4, 17760, Note_on_c, 1, 38, 69
4, 17805, Note_on_c, 1, 38, 0
4, 17808, Note_on_c, 1, 38, 69
4, 17853, Note_on_c, 1, 38, 0
4, 17904, Note_on_c, 1, 40, 69
4, 17949, Note_on_c, 1, 40, 0
4, 17952, Note_on_c, 1, 40, 69
4, 17997, Note_on_c, 1, 40, 0
4, 18000, Note_on_c, 1, 40, 69
4, 18045, Note_on_c, 1, 40, 0
4, 18096, Note_on_c, 1, 33, 69
4, 18141, Note_on_c, 1, 33, 0
4, 18144, Note_on_c, 1, 33, 69
4, 18189, Note_on_c, 1, 33, 0
4, 18192, Note_on_c, 1, 33, 69
4, 18237, Note_on_c, 1, 33, 0
4, 18288, Note_on_c, 1, 38, 69
4, 18333, Note_on_c, 1, 38, 0
4, 18336, Note_on_c, 1, 38, 69
4, 18381, Note_on_c, 1, 38, 0
4, 18384, Note_on_c, 1, 38, 69
4, 18429, Note_on_c, 1, 38, 0
4, 18480, Note_on_c, 1, 42, 69
4, 18525, Note_on_c, 1, 42, 0
4, 18528, Note_on_c, 1, 42, 69
4, 18573, Note_on_c, 1, 42, 0
4, 18576, Note_on_c, 1, 42, 69
4, 18621, Note_on_c, 1, 42, 0
4, 18672, Note_on_c, 1, 43, 69
4, 18717, Note_on_c, 1, 43, 0
4, 18720, Note_on_c, 1, 43, 69
4, 18765, Note_on_c, 1, 43, 0
4, 18768, Note_on_c, 1, 43, 69
4, 18813, Note_on_c, 1, 43, 0
4, 18864, Note_on_c, 1, 42, 69
4, 18909, Note_on_c, 1, 42, 0
4, 18912, Note_on_c, 1, 42, 69
4, 18957, Note_on_c, 1, 42, 0
4, 18960, Note_on_c, 1, 42, 69
4, 19005, Note_on_c, 1, 42, 0
4, 19008, Note_on_c, 1, 43, 69
4, 19053, Note_on_c, 1, 43, 0
4, 19104, Note_on_c, 1, 42, 69
4, 19149, Note_on_c, 1, 42, 0
4, 19248, Note_on_c, 1, 54, 69
4, 19293, Note_on_c, 1, 54, 0
4, 19296, Note_on_c, 1, 52, 69
4, 19341, Note_on_c, 1, 52, 0
4, 19344, Note_on_c, 1, 45, 69
4, 19389, Note_on_c, 1, 45, 0
4, 19392, Note_on_c, 1, 50, 69
4, 19437, Note_on_c, 1, 50, 0
4, 19440, Note_on_c, 1, 45, 69
4, 19485, Note_on_c, 1, 45, 0
4, 19488, Note_on_c, 1, 38, 69
4, 19535, Note_on_c, 1, 38, 0
4, 19632, Note_on_c, 1, 38, 76
4, 19677, Note_on_c, 1, 38, 0
4, 19680, Note_on_c, 1, 50, 78
4, 19725, Note_on_c, 1, 50, 0
4, 19728, Note_on_c, 1, 49, 80
4, 19773, Note_on_c, 1, 49, 0
4, 19776, Note_on_c, 1, 50, 82
4, 19821, Note_on_c, 1, 50, 0
4, 19824, Note_on_c, 1, 55, 84
4, 19869, Note_on_c, 1, 55, 0
4, 19872, Note_on_c, 1, 54, 81
4, 19917, Note_on_c, 1, 54, 0
4, 19920, Note_on_c, 1, 49, 78
4, 19965, Note_on_c, 1, 49, 0
4, 20016, Note_on_c, 1, 38, 75
4, 20061, Note_on_c, 1, 38, 0
4, 20064, Note_on_c, 1, 50, 75
4, 20109, Note_on_c, 1, 50, 0
4, 20112, Note_on_c, 1, 49, 76
4, 20157, Note_on_c, 1, 49, 0
4, 20160, Note_on_c, 1, 50, 77
4, 20205, Note_on_c, 1, 50, 0
4, 20208, Note_on_c, 1, 55, 78
4, 20253, Note_on_c, 1, 55, 0
4, 20256, Note_on_c, 1, 54, 79
4, 20301, Note_on_c, 1, 54, 0
4, 20304, Note_on_c, 1, 49, 80
4, 20349, Note_on_c, 1, 49, 0
4, 20352, Note_on_c, 1, 50, 81
4, 20397, Note_on_c, 1, 50, 0
4, 20400, Note_on_c, 1, 52, 82
4, 20445, Note_on_c, 1, 52, 0
4, 20448, Note_on_c, 1, 54, 83
4, 20493, Note_on_c, 1, 54, 0
4, 20544, Note_on_c, 1, 50, 75
4, 20589, Note_on_c, 1, 50, 0
4, 20592, Note_on_c, 1, 52, 78
4, 20637, Note_on_c, 1, 52, 0
4, 20640, Note_on_c, 1, 54, 81
4, 20685, Note_on_c, 1, 54, 0
4, 20784, Note_on_c, 1, 38, 69
4, 20829, Note_on_c, 1, 38, 0
4, 20832, Note_on_c, 1, 38, 69
4, 20877, Note_on_c, 1, 38, 0
4, 20880, Note_on_c, 1, 38, 69
4, 20925, Note_on_c, 1, 38, 0
4, 20976, Note_on_c, 1, 40, 69
4, 21021, Note_on_c, 1, 40, 0
4, 21024, Note_on_c, 1, 40, 69
4, 21069, Note_on_c, 1, 40, 0
4, 21072, Note_on_c, 1, 40, 69
4, 21117, Note_on_c, 1, 40, 0
4, 21168, Note_on_c, 1, 33, 69
4, 21213, Note_on_c, 1, 33, 0
4, 21216, Note_on_c, 1, 33, 69
4, 21261, Note_on_c, 1, 33, 0
4, 21264, Note_on_c, 1, 33, 69
4, 21309, Note_on_c, 1, 33, 0
4, 21360, Note_on_c, 1, 38, 69
4, 21405, Note_on_c, 1, 38, 0
4, 21408, Note_on_c, 1, 38, 69
4, 21453, Note_on_c, 1, 38, 0
4, 21456, Note_on_c, 1, 38, 69
4, 21501, Note_on_c, 1, 38, 0
4, 21552, Note_on_c, 1, 50, 69
4, 21552, Note_on_c, 1, 42, 69
4, 21599, Note_on_c, 1, 50, 0
4, 21599, Note_on_c, 1, 42, 0
4, 21600, Note_on_c, 1, 50, 69
4, 21600, Note_on_c, 1, 42, 69
4, 21647, Note_on_c, 1, 50, 0
4, 21647, Note_on_c, 1, 42, 0
4, 21648, Note_on_c, 1, 50, 69
4, 21648, Note_on_c, 1, 42, 69
4, 21695, Note_on_c, 1, 50, 0
4, 21695, Note_on_c, 1, 42, 0
4, 21744, Note_on_c, 1, 50, 69
4, 21744, Note_on_c, 1, 43, 69
4, 21791, Note_on_c, 1, 50, 0
4, 21791, Note_on_c, 1, 43, 0
4, 21792, Note_on_c, 1, 50, 69
4, 21792, Note_on_c, 1, 43, 69
4, 21839, Note_on_c, 1, 50, 0
4, 21839, Note_on_c, 1, 43, 0
4, 21840, Note_on_c, 1, 50, 69
4, 21840, Note_on_c, 1, 43, 69
4, 21887, Note_on_c, 1, 50, 0
4, 21887, Note_on_c, 1, 43, 0
4, 21936, Note_on_c, 1, 50, 69
4, 21936, Note_on_c, 1, 42, 69
4, 21983, Note_on_c, 1, 50, 0
4, 21983, Note_on_c, 1, 42, 0
4, 21984, Note_on_c, 1, 50, 69
4, 21984, Note_on_c, 1, 42, 69
4, 22031, Note_on_c, 1, 50, 0
4, 22031, Note_on_c, 1, 42, 0
4, 22032, Note_on_c, 1, 50, 69
4, 22032, Note_on_c, 1, 42, 69
4, 22079, Note_on_c, 1, 50, 0
4, 22079, Note_on_c, 1, 42, 0
4, 22080, Note_on_c, 1, 50, 69
4, 22080, Note_on_c, 1, 43, 69
4, 22125, Note_on_c, 1, 50, 0
4, 22125, Note_on_c, 1, 43, 0
4, 22176, Note_on_c, 1, 50, 69
4, 22176, Note_on_c, 1, 42, 69
4, 22221, Note_on_c, 1, 50, 0
4, 22221, Note_on_c, 1, 42, 0
4, 22272, Note_on_c, 1, 50, 69
4, 22272, Note_on_c, 1, 43, 69
4, 22317, Note_on_c, 1, 50, 0
4, 22317, Note_on_c, 1, 43, 0
4, 22368, Note_on_c, 1, 50, 69
4, 22368, Note_on_c, 1, 42, 69
4, 22413, Note_on_c, 1, 50, 0
4, 22413, Note_on_c, 1, 42, 0
4, 22464, Note_on_c, 1, 49, 75
4, 22464, Note_on_c, 1, 45, 75
4, 22509, Note_on_c, 1, 49, 0
4, 22509, Note_on_c, 1, 45, 0
4, 22512, Note_on_c, 1, 50, 76
4, 22512, Note_on_c, 1, 45, 76
4, 22557, Note_on_c, 1, 50, 0
4, 22557, Note_on_c, 1, 45, 0
4, 22560, Note_on_c, 1, 55, 77
4, 22560, Note_on_c, 1, 45, 77
4, 22605, Note_on_c, 1, 55, 0
4, 22605, Note_on_c, 1, 45, 0
4, 22608, Note_on_c, 1, 54, 78
4, 22608, Note_on_c, 1, 45, 78
4, 22653, Note_on_c, 1, 54, 0
4, 22653, Note_on_c, 1, 45, 0
4, 22656, Note_on_c, 1, 49, 79
4, 22656, Note_on_c, 1, 45, 79
4, 22701, Note_on_c, 1, 49, 0
4, 22701, Note_on_c, 1, 45, 0
4, 22704, Note_on_c, 1, 50, 80
4, 22704, Note_on_c, 1, 45, 80
4, 22749, Note_on_c, 1, 50, 0
4, 22749, Note_on_c, 1, 45, 0
4, 22752, Note_on_c, 1, 55, 81
4, 22752, Note_on_c, 1, 45, 81
4, 22797, Note_on_c, 1, 55, 0
4, 22797, Note_on_c, 1, 45, 0
4, 22800, Note_on_c, 1, 54, 82
4, 22800, Note_on_c, 1, 45, 82
4, 22845, Note_on_c, 1, 54, 0
4, 22845, Note_on_c, 1, 45, 0
4, 22848, Note_on_c, 1, 49, 83
4, 22848, Note_on_c, 1, 45, 83
4, 22893, Note_on_c, 1, 49, 0
4, 22893, Note_on_c, 1, 45, 0
4, 22896, Note_on_c, 1, 50, 84
4, 22896, Note_on_c, 1, 45, 84
4, 22941, Note_on_c, 1, 50, 0
4, 22941, Note_on_c, 1, 45, 0
4, 22944, Note_on_c, 1, 49, 85
4, 22944, Note_on_c, 1, 45, 85
4, 22989, Note_on_c, 1, 49, 0
4, 22989, Note_on_c, 1, 45, 0
4, 22992, Note_on_c, 1, 50, 86
4, 22992, Note_on_c, 1, 45, 86
4, 23037, Note_on_c, 1, 50, 0
4, 23037, Note_on_c, 1, 45, 0
4, 23040, Note_on_c, 1, 57, 87
4, 23040, Note_on_c, 1, 52, 87
4, 23040, Note_on_c, 1, 49, 87
4, 23040, Note_on_c, 1, 45, 87
4, 23129, Note_on_c, 1, 57, 0
4, 23129, Note_on_c, 1, 52, 0
4, 23129, Note_on_c, 1, 49, 0
4, 23129, Note_on_c, 1, 45, 0
4, 23136, Control_c, 1, 64, 127
4, 23136, Note_on_c, 1, 45, 90
4, 23136, Note_on_c, 1, 33, 90
4, 23225, Note_on_c, 1, 45, 0
4, 23225, Note_on_c, 1, 33, 0
4, 23232, Note_on_c, 1, 45, 87
4, 23232, Note_on_c, 1, 33, 87
4, 23325, Note_on_c, 1, 45, 0
4, 23325, Note_on_c, 1, 33, 0
4, 23376, Control_c, 1, 64, 0
4, 23568, Note_on_c, 1, 73, 75
4, 23588, Note_on_c, 1, 73, 0
4, 23616, Note_on_c, 1, 71, 75
4, 23636, Note_on_c, 1, 71, 0
4, 23664, Note_on_c, 1, 69, 75
4, 23684, Note_on_c, 1, 69, 0
4, 23712, Note_on_c, 1, 68, 75
4, 23732, Note_on_c, 1, 68, 0
4, 23760, Note_on_c, 1, 66, 75
4, 23780, Note_on_c, 1, 66, 0
4, 23808, Note_on_c, 1, 64, 75
4, 23897, Note_on_c, 1, 64, 0
4, 23952, Note_on_c, 1, 73, 75
4, 23952, Note_on_c, 1, 69, 75
4, 23972, Note_on_c, 1, 73, 0
4, 23972, Note_on_c, 1, 69, 0
4, 24000, Note_on_c, 1, 71, 75
4, 24000, Note_on_c, 1, 68, 75
4, 24020, Note_on_c, 1, 71, 0
4, 24020, Note_on_c, 1, 68, 0
4, 24048, Note_on_c, 1, 69, 75
4, 24048, Note_on_c, 1, 66, 75
4, 24068, Note_on_c, 1, 69, 0
4, 24068, Note_on_c, 1, 66, 0
4, 24096, Note_on_c, 1, 68, 75
4, 24096, Note_on_c, 1, 64, 75
4, 24116, Note_on_c, 1, 68, 0
4, 24116, Note_on_c, 1, 64, 0
4, 24144, Note_on_c, 1, 66, 75
4, 24144, Note_on_c, 1, 62, 75
4, 24164, Note_on_c, 1, 66, 0
4, 24164, Note_on_c, 1, 62, 0
4, 24192, Note_on_c, 1, 64, 75
4, 24192, Note_on_c, 1, 61, 75
4, 24281, Note_on_c, 1, 64, 0
4, 24281, Note_on_c, 1, 61, 0
4, 24336, Note_on_c, 1, 61, 75
4, 24336, Note_on_c, 1, 49, 75
4, 24381, Note_on_c, 1, 61, 0
4, 24381, Note_on_c, 1, 49, 0
4, 24384, Note_on_c, 1, 62, 75
4, 24384, Note_on_c, 1, 50, 75
4, 24473, Note_on_c, 1, 62, 0
4, 24473, Note_on_c, 1, 50, 0
4, 24480, Note_on_c, 1, 59, 77
4, 24480, Note_on_c, 1, 47, 77
4, 24569, Note_on_c, 1, 59, 0
4, 24569, Note_on_c, 1, 47, 0
4, 24576, Note_on_c, 1, 61, 79
4, 24576, Note_on_c, 1, 49, 79
4, 24665, Note_on_c, 1, 61, 0
4, 24665, Note_on_c, 1, 49, 0
4, 24672, Note_on_c, 1, 56, 80
4, 24672, Note_on_c, 1, 44, 80
4, 24761, Note_on_c, 1, 56, 0
4, 24761, Note_on_c, 1, 44, 0
4, 24768, Note_on_c, 1, 57, 82
4, 24768, Note_on_c, 1, 45, 82
4, 24857, Note_on_c, 1, 57, 0
4, 24857, Note_on_c, 1, 45, 0
4, 24960, Control_c, 1, 64, 127
4, 24960, Note_on_c, 1, 45, 61
4, 24960, Note_on_c, 1, 33, 61
4, 25005, Note_on_c, 1, 45, 0
4, 25005, Note_on_c, 1, 33, 0
4, 25008, Note_on_c, 1, 72, 61
4, 25008, Note_on_c, 1, 69, 61
4, 25055, Note_on_c, 1, 72, 0
4, 25055, Note_on_c, 1, 69, 0
4, 25056, Note_on_c, 1, 72, 61
4, 25056, Note_on_c, 1, 69, 61
4, 25103, Note_on_c, 1, 72, 0
4, 25103, Note_on_c, 1, 69, 0
4, 25104, Note_on_c, 1, 72, 61
4, 25104, Note_on_c, 1, 69, 61
4, 25151, Note_on_c, 1, 72, 0
4, 25151, Note_on_c, 1, 69, 0
4, 25152, Note_on_c, 1, 72, 61
4, 25152, Note_on_c, 1, 69, 61
4, 25199, Note_on_c, 1, 72, 0
4, 25199, Note_on_c, 1, 69, 0
4, 25200, Note_on_c, 1, 72, 61
4, 25200, Note_on_c, 1, 69, 61
4, 25247, Note_on_c, 1, 72, 0
4, 25247, Note_on_c, 1, 69, 0
4, 25248, Note_on_c, 1, 72, 61
4, 25248, Note_on_c, 1, 69, 61
4, 25295, Note_on_c, 1, 72, 0
4, 25295, Note_on_c, 1, 69, 0
4, 25296, Note_on_c, 1, 72, 61
4, 25296, Note_on_c, 1, 69, 61
4, 25343, Note_on_c, 1, 72, 0
4, 25343, Note_on_c, 1, 69, 0
4, 25344, Note_on_c, 1, 72, 61
4, 25344, Note_on_c, 1, 69, 61
4, 25433, Note_on_c, 1, 72, 0
4, 25433, Note_on_c, 1, 69, 0
4, 25728, Note_on_c, 1, 41, 61
4, 25728, Note_on_c, 1, 29, 61
4, 25905, Note_on_c, 1, 41, 0
4, 25905, Note_on_c, 1, 29, 0
4, 25920, Note_on_c, 1, 41, 61
4, 25920, Note_on_c, 1, 29, 61
4, 26053, Note_on_c, 1, 41, 0
4, 26053, Note_on_c, 1, 29, 0
4, 26064, Note_on_c, 1, 53, 61
4, 26064, Note_on_c, 1, 41, 61
4, 26109, Note_on_c, 1, 53, 0
4, 26109, Note_on_c, 1, 41, 0
4, 26112, Control_c, 1, 64, 0
4, 26112, Note_on_c, 1, 52, 75
4, 26136, Note_on_c, 1, 52, 0
4, 26136, Note_on_c, 1, 40, 75
4, 26159, Note_on_c, 1, 40, 0
4, 26160, Note_on_c, 1, 52, 75
4, 26170, Note_on_c, 1, 52, 0
4, 26184, Note_on_c, 1, 52, 75
4, 26194, Note_on_c, 1, 52, 0
4, 26208, Note_on_c, 1, 52, 75
4, 26218, Note_on_c, 1, 52, 0
4, 26232, Note_on_c, 1, 52, 75
4, 26242, Note_on_c, 1, 52, 0
4, 26256, Note_on_c, 1, 52, 75
4, 26266, Note_on_c, 1, 52, 0
4, 26280, Note_on_c, 1, 52, 75
4, 26290, Note_on_c, 1, 52, 0
4, 26304, Note_on_c, 1, 52, 75
4, 26314, Note_on_c, 1, 52, 0
4, 26328, Note_on_c, 1, 52, 75
4, 26338, Note_on_c, 1, 52, 0
4, 26352, Note_on_c, 1, 52, 75
4, 26362, Note_on_c, 1, 52, 0
4, 26376, Note_on_c, 1, 52, 75
4, 26386, Note_on_c, 1, 52, 0
4, 26400, Note_on_c, 1, 52, 75
4, 26410, Note_on_c, 1, 52, 0
4, 26424, Note_on_c, 1, 52, 75
4, 26434, Note_on_c, 1, 52, 0
4, 26448, Note_on_c, 1, 52, 75
4, 26458, Note_on_c, 1, 52, 0
4, 26472, Note_on_c, 1, 52, 75
4, 26482, Note_on_c, 1, 52, 0
4, 26496, Note_on_c, 1, 52, 75
4, 26520, Note_on_c, 1, 52, 0
4, 26520, Note_on_c, 1, 40, 75
4, 26543, Note_on_c, 1, 40, 0
4, 26544, Note_on_c, 1, 52, 75
4, 26554, Note_on_c, 1, 52, 0
4, 26568, Note_on_c, 1, 52, 75
4, 26578, Note_on_c, 1, 52, 0
4, 26592, Note_on_c, 1, 52, 75
4, 26602, Note_on_c, 1, 52, 0
4, 26616, Note_on_c, 1, 52, 75
4, 26626, Note_on_c, 1, 52, 0
4, 26640, Note_on_c, 1, 52, 75
4, 26650, Note_on_c, 1, 52, 0
4, 26664, Note_on_c, 1, 52, 75
4, 26674, Note_on_c, 1, 52, 0
4, 26688, Note_on_c, 1, 52, 75
4, 26698, Note_on_c, 1, 52, 0
4, 26712, Note_on_c, 1, 52, 75
4, 26722, Note_on_c, 1, 52, 0
4, 26736, Note_on_c, 1, 52, 75
4, 26746, Note_on_c, 1, 52, 0
4, 26760, Note_on_c, 1, 52, 75
4, 26770, Note_on_c, 1, 52, 0
4, 26784, Note_on_c, 1, 52, 75
4, 26794, Note_on_c, 1, 52, 0
4, 26808, Note_on_c, 1, 52, 75
4, 26818, Note_on_c, 1, 52, 0
4, 26832, Note_on_c, 1, 52, 75
4, 26842, Note_on_c, 1, 52, 0
4, 26856, Note_on_c, 1, 52, 75
4, 26866, Note_on_c, 1, 52, 0
4, 26880, Note_on_c, 1, 52, 75
4, 26904, Note_on_c, 1, 52, 0
4, 26904, Note_on_c, 1, 40, 75
4, 26927, Note_on_c, 1, 40, 0
4, 26928, Note_on_c, 1, 52, 75
4, 26938, Note_on_c, 1, 52, 0
4, 26952, Note_on_c, 1, 52, 75
4, 26962, Note_on_c, 1, 52, 0
4, 26976, Note_on_c, 1, 52, 75
4, 26986, Note_on_c, 1, 52, 0
4, 27000, Note_on_c, 1, 52, 75
4, 27010, Note_on_c, 1, 52, 0
4, 27024, Note_on_c, 1, 52, 75
4, 27034, Note_on_c, 1, 52, 0
4, 27048, Note_on_c, 1, 52, 75
4, 27058, Note_on_c, 1, 52, 0
4, 27072, Note_on_c, 1, 52, 75
4, 27082, Note_on_c, 1, 52, 0
4, 27096, Note_on_c, 1, 52, 75
4, 27106, Note_on_c, 1, 52, 0
4, 27120, Note_on_c, 1, 52, 75
4, 27130, Note_on_c, 1, 52, 0
4, 27144, Note_on_c, 1, 52, 75
4, 27154, Note_on_c, 1, 52, 0
4, 27168, Note_on_c, 1, 52, 75
4, 27178, Note_on_c, 1, 52, 0
4, 27192, Note_on_c, 1, 52, 75
4, 27202, Note_on_c, 1, 52, 0
4, 27216, Note_on_c, 1, 52, 75
4, 27226, Note_on_c, 1, 52, 0
4, 27240, Note_on_c, 1, 52, 75
4, 27250, Note_on_c, 1, 52, 0
4, 27264, Note_on_c, 1, 52, 75
4, 27288, Note_on_c, 1, 52, 0
4, 27288, Note_on_c, 1, 40, 75
4, 27311, Note_on_c, 1, 40, 0
4, 27312, Note_on_c, 1, 52, 75
4, 27322, Note_on_c, 1, 52, 0
4, 27336, Note_on_c, 1, 52, 75
4, 27346, Note_on_c, 1, 52, 0
4, 27360, Note_on_c, 1, 52, 75
4, 27370, Note_on_c, 1, 52, 0
4, 27384, Note_on_c, 1, 52, 75
4, 27394, Note_on_c, 1, 52, 0
4, 27408, Note_on_c, 1, 52, 75
4, 27418, Note_on_c, 1, 52, 0
4, 27432, Note_on_c, 1, 52, 75
4, 27442, Note_on_c, 1, 52, 0
4, 27456, Note_on_c, 1, 52, 75
4, 27466, Note_on_c, 1, 52, 0
4, 27480, Note_on_c, 1, 52, 75
4, 27490, Note_on_c, 1, 52, 0
4, 27504, Note_on_c, 1, 52, 75
4, 27514, Note_on_c, 1, 52, 0
4, 27528, Note_on_c, 1, 52, 75
4, 27538, Note_on_c, 1, 52, 0
4, 27552, Note_on_c, 1, 52, 75
4, 27562, Note_on_c, 1, 52, 0
4, 27576, Note_on_c, 1, 52, 75
4, 27586, Note_on_c, 1, 52, 0
4, 27600, Note_on_c, 1, 52, 75
4, 27610, Note_on_c, 1, 52, 0
4, 27624, Note_on_c, 1, 52, 75
4, 27634, Note_on_c, 1, 52, 0
4, 27648, Note_on_c, 1, 52, 75
4, 27672, Note_on_c, 1, 52, 0
4, 27672, Note_on_c, 1, 40, 75
4, 27695, Note_on_c, 1, 40, 0
4, 27696, Note_on_c, 1, 52, 75
4, 27706, Note_on_c, 1, 52, 0
4, 27720, Note_on_c, 1, 52, 75
4, 27730, Note_on_c, 1, 52, 0
4, 27744, Note_on_c, 1, 52, 75
4, 27789, Note_on_c, 1, 52, 0
4, 27888, Note_on_c, 1, 74, 61
4, 27888, Note_on_c, 1, 71, 61
4, 27888, Note_on_c, 1, 64, 61
4, 27908, Note_on_c, 1, 74, 0
4, 27908, Note_on_c, 1, 71, 0
4, 27908, Note_on_c, 1, 64, 0
4, 27936, Note_on_c, 1, 74, 61
4, 27936, Note_on_c, 1, 71, 61
4, 27936, Note_on_c, 1, 64, 61
4, 27983, Note_on_c, 1, 74, 0
4, 27983, Note_on_c, 1, 71, 0
4, 27983, Note_on_c, 1, 64, 0
4, 28080, Note_on_c, 1, 69, 61
4, 28080, Note_on_c, 1, 64, 61
4, 28080, Note_on_c, 1, 61, 61
4, 28100, Note_on_c, 1, 69, 0
4, 28100, Note_on_c, 1, 64, 0
4, 28100, Note_on_c, 1, 61, 0
4, 28128, Note_on_c, 1, 69, 61
4, 28128, Note_on_c, 1, 64, 61
4, 28128, Note_on_c, 1, 61, 61
4, 28175, Note_on_c, 1, 69, 0
4, 28175, Note_on_c, 1, 64, 0
4, 28175, Note_on_c, 1, 61, 0
4, 28272, Note_on_c, 1, 74, 61
4, 28272, Note_on_c, 1, 71, 61
4, 28272, Note_on_c, 1, 64, 61
4, 28292, Note_on_c, 1, 74, 0
4, 28292, Note_on_c, 1, 71, 0
4, 28292, Note_on_c, 1, 64, 0
4, 28320, Note_on_c, 1, 74, 61
4, 28320, Note_on_c, 1, 71, 61
4, 28320, Note_on_c, 1, 64, 61
4, 28367, Note_on_c, 1, 74, 0
4, 28367, Note_on_c, 1, 71, 0
4, 28367, Note_on_c, 1, 64, 0
4, 28416, Note_on_c, 1, 69, 61
4, 28416, Note_on_c, 1, 64, 61
4, 28416, Note_on_c, 1, 61, 61
4, 28461, Note_on_c, 1, 69, 0
4, 28461, Note_on_c, 1, 64, 0
4, 28461, Note_on_c, 1, 61, 0
4, 28512, Note_on_c, 1, 69, 61
4, 28512, Note_on_c, 1, 66, 61
4, 28512, Note_on_c, 1, 62, 61
4, 28557, Note_on_c, 1, 69, 0
4, 28557, Note_on_c, 1, 66, 0
4, 28557, Note_on_c, 1, 62, 0
4, 28608, Note_on_c, 1, 62, 75
4, 28608, Note_on_c, 1, 50, 75
4, 28653, Note_on_c, 1, 62, 0
4, 28653, Note_on_c, 1, 50, 0
4, 28704, Note_on_c, 1, 50, 75
4, 28704, Note_on_c, 1, 38, 75
4, 28749, Note_on_c, 1, 50, 0
4, 28749, Note_on_c, 1, 38, 0
4, 28848, Note_on_c, 1, 57, 75
4, 28937, Note_on_c, 1, 57, 0
4, 28944, Note_on_c, 1, 56, 75
4, 28989, Note_on_c, 1, 56, 0
4, 28992, Note_on_c, 1, 57, 61
4, 29007, Note_on_c, 1, 57, 0
4, 29008, Note_on_c, 1, 61, 61
4, 29023, Note_on_c, 1, 61, 0
4, 29024, Note_on_c, 1, 64, 61
4, 29039, Note_on_c, 1, 64, 0
4, 29040, Note_on_c, 1, 57, 61
4, 29055, Note_on_c, 1, 57, 0
4, 29056, Note_on_c, 1, 61, 61
4, 29071, Note_on_c, 1, 61, 0
4, 29072, Note_on_c, 1, 64, 61
4, 29087, Note_on_c, 1, 64, 0
4, 29088, Note_on_c, 1, 56, 61
4, 29103, Note_on_c, 1, 56, 0
4, 29104, Note_on_c, 1, 59, 61
4, 29119, Note_on_c, 1, 59, 0
4, 29120, Note_on_c, 1, 64, 61
4, 29135, Note_on_c, 1, 64, 0
4, 29136, Note_on_c, 1, 56, 61
4, 29151, Note_on_c, 1, 56, 0
4, 29152, Note_on_c, 1, 59, 61
4, 29167, Note_on_c, 1, 59, 0
4, 29168, Note_on_c, 1, 64, 61
4, 29183, Note_on_c, 1, 64, 0
4, 29184, Note_on_c, 1, 57, 61
4, 29199, Note_on_c, 1, 57, 0
4, 29200, Note_on_c, 1, 61, 61
4, 29215, Note_on_c, 1, 61, 0
4, 29216, Note_on_c, 1, 64, 61
4, 29231, Note_on_c, 1, 64, 0
4, 29232, Note_on_c, 1, 57, 61
4, 29247, Note_on_c, 1, 57, 0
4, 29248, Note_on_c, 1, 61, 61
4, 29263, Note_on_c, 1, 61, 0
4, 29264, Note_on_c, 1, 64, 61
4, 29279, Note_on_c, 1, 64, 0
4, 29280, Note_on_c, 1, 59, 61
4, 29295, Note_on_c, 1, 59, 0
4, 29296, Note_on_c, 1, 62, 61
4, 29311, Note_on_c, 1, 62, 0
4, 29312, Note_on_c, 1, 64, 61
4, 29327, Note_on_c, 1, 64, 0
4, 29328, Note_on_c, 1, 59, 61
4, 29343, Note_on_c, 1, 59, 0
4, 29344, Note_on_c, 1, 62, 61
4, 29359, Note_on_c, 1, 62, 0
4, 29360, Note_on_c, 1, 64, 61
4, 29375, Note_on_c, 1, 64, 0
4, 29376, Note_on_c, 1, 57, 61
4, 29391, Note_on_c, 1, 57, 0
4, 29392, Note_on_c, 1, 61, 61
4, 29407, Note_on_c, 1, 61, 0
4, 29408, Note_on_c, 1, 64, 61
4, 29423, Note_on_c, 1, 64, 0
4, 29424, Note_on_c, 1, 57, 61
4, 29439, Note_on_c, 1, 57, 0
4, 29440, Note_on_c, 1, 61, 61
4, 29455, Note_on_c, 1, 61, 0
4, 29456, Note_on_c, 1, 64, 61
4, 29471, Note_on_c, 1, 64, 0
4, 29472, Note_on_c, 1, 56, 61
4, 29487, Note_on_c, 1, 56, 0
4, 29488, Note_on_c, 1, 59, 61
4, 29503, Note_on_c, 1, 59, 0
4, 29504, Note_on_c, 1, 64, 61
4, 29519, Note_on_c, 1, 64, 0
4, 29520, Note_on_c, 1, 56, 61
4, 29535, Note_on_c, 1, 56, 0
4, 29536, Note_on_c, 1, 59, 61
4, 29551, Note_on_c, 1, 59, 0
4, 29552, Note_on_c, 1, 64, 61
4, 29567, Note_on_c, 1, 64, 0
4, 29568, Note_on_c, 1, 57, 61
4, 29583, Note_on_c, 1, 57, 0
4, 29584, Note_on_c, 1, 61, 61
4, 29599, Note_on_c, 1, 61, 0
4, 29600, Note_on_c, 1, 64, 61
4, 29615, Note_on_c, 1, 64, 0
4, 29616, Note_on_c, 1, 57, 61
4, 29631, Note_on_c, 1, 57, 0
4, 29632, Note_on_c, 1, 61, 61
4, 29647, Note_on_c, 1, 61, 0
4, 29648, Note_on_c, 1, 64, 61
4, 29663, Note_on_c, 1, 64, 0
4, 29664, Note_on_c, 1, 59, 61
4, 29679, Note_on_c, 1, 59, 0
4, 29680, Note_on_c, 1, 62, 61
4, 29695, Note_on_c, 1, 62, 0
4, 29696, Note_on_c, 1, 64, 61
4, 29711, Note_on_c, 1, 64, 0
4, 29712, Note_on_c, 1, 59, 61
4, 29727, Note_on_c, 1, 59, 0
4, 29728, Note_on_c, 1, 62, 61
4, 29743, Note_on_c, 1, 62, 0
4, 29744, Note_on_c, 1, 64, 61
4, 29759, Note_on_c, 1, 64, 0
4, 29760, Note_on_c, 1, 57, 61
4, 29775, Note_on_c, 1, 57, 0
4, 29776, Note_on_c, 1, 61, 61
4, 29791, Note_on_c, 1, 61, 0
4, 29792, Note_on_c, 1, 64, 61
4, 29807, Note_on_c, 1, 64, 0
4, 29808, Note_on_c, 1, 57, 61
4, 29823, Note_on_c, 1, 57, 0
4, 29824, Note_on_c, 1, 61, 61
4, 29839, Note_on_c, 1, 61, 0
4, 29840, Note_on_c, 1, 64, 61
4, 29855, Note_on_c, 1, 64, 0
4, 29856, Note_on_c, 1, 56, 61
4, 29871, Note_on_c, 1, 56, 0
4, 29872, Note_on_c, 1, 59, 61
4, 29887, Note_on_c, 1, 59, 0
4, 29888, Note_on_c, 1, 64, 61
4, 29903, Note_on_c, 1, 64, 0
4, 29904, Note_on_c, 1, 56, 61
4, 29919, Note_on_c, 1, 56, 0
4, 29920, Note_on_c, 1, 59, 61
4, 29935, Note_on_c, 1, 59, 0
4, 29936, Note_on_c, 1, 64, 61
4, 29951, Note_on_c, 1, 64, 0
4, 29952, Note_on_c, 1, 57, 61
4, 29967, Note_on_c, 1, 57, 0
4, 29968, Note_on_c, 1, 61, 61
4, 29983, Note_on_c, 1, 61, 0
4, 29984, Note_on_c, 1, 64, 61
4, 29999, Note_on_c, 1, 64, 0
4, 30000, Note_on_c, 1, 57, 61
4, 30015, Note_on_c, 1, 57, 0
4, 30016, Note_on_c, 1, 61, 61
4, 30031, Note_on_c, 1, 61, 0
4, 30032, Note_on_c, 1, 64, 61
4, 30047, Note_on_c, 1, 64, 0
4, 30048, Note_on_c, 1, 52, 61
4, 30063, Note_on_c, 1, 52, 0
4, 30064, Note_on_c, 1, 59, 61
4, 30079, Note_on_c, 1, 59, 0
4, 30080, Note_on_c, 1, 64, 61
4, 30095, Note_on_c, 1, 64, 0
4, 30096, Note_on_c, 1, 52, 61
4, 30111, Note_on_c, 1, 52, 0
4, 30112, Note_on_c, 1, 59, 61
4, 30127, Note_on_c, 1, 59, 0
4, 30128, Note_on_c, 1, 64, 61
4, 30143, Note_on_c, 1, 64, 0
4, 30144, Note_on_c, 1, 57, 61
4, 30159, Note_on_c, 1, 57, 0
4, 30160, Note_on_c, 1, 61, 61
4, 30175, Note_on_c, 1, 61, 0
4, 30176, Note_on_c, 1, 64, 61
4, 30191, Note_on_c, 1, 64, 0
4, 30192, Note_on_c, 1, 57, 61
4, 30207, Note_on_c, 1, 57, 0
4, 30208, Note_on_c, 1, 61, 61
4, 30223, Note_on_c, 1, 61, 0
4, 30224, Note_on_c, 1, 64, 61
4, 30239, Note_on_c, 1, 64, 0
4, 30240, Note_on_c, 1, 56, 61
4, 30255, Note_on_c, 1, 56, 0
4, 30256, Note_on_c, 1, 59, 61
4, 30271, Note_on_c, 1, 59, 0
4, 30272, Note_on_c, 1, 64, 61
4, 30287, Note_on_c, 1, 64, 0
4, 30288, Note_on_c, 1, 56, 61
4, 30303, Note_on_c, 1, 56, 0
4, 30304, Note_on_c, 1, 59, 61
4, 30319, Note_on_c, 1, 59, 0
4, 30320, Note_on_c, 1, 64, 61
4, 30335, Note_on_c, 1, 64, 0
4, 30336, Note_on_c, 1, 57, 61
4, 30351, Note_on_c, 1, 57, 0
4, 30352, Note_on_c, 1, 61, 61
4, 30367, Note_on_c, 1, 61, 0
4, 30368, Note_on_c, 1, 64, 61
4, 30383, Note_on_c, 1, 64, 0
4, 30384, Note_on_c, 1, 57, 61
4, 30399, Note_on_c, 1, 57, 0
4, 30400, Note_on_c, 1, 61, 61
4, 30415, Note_on_c, 1, 61, 0
4, 30416, Note_on_c, 1, 64, 61
4, 30431, Note_on_c, 1, 64, 0
4, 30432, Note_on_c, 1, 52, 61
4, 30447, Note_on_c, 1, 52, 0
4, 30448, Note_on_c, 1, 59, 61
4, 30463, Note_on_c, 1, 59, 0
4, 30464, Note_on_c, 1, 64, 61
4, 30479, Note_on_c, 1, 64, 0
4, 30480, Note_on_c, 1, 52, 61
4, 30495, Note_on_c, 1, 52, 0
4, 30496, Note_on_c, 1, 59, 61
4, 30511, Note_on_c, 1, 59, 0
4, 30512, Note_on_c, 1, 64, 61
4, 30527, Note_on_c, 1, 64, 0
4, 30528, Note_on_c, 1, 57, 61
4, 30543, Note_on_c, 1, 57, 0
4, 30544, Note_on_c, 1, 61, 61
4, 30559, Note_on_c, 1, 61, 0
4, 30560, Note_on_c, 1, 64, 61
4, 30575, Note_on_c, 1, 64, 0
4, 30576, Note_on_c, 1, 57, 61
4, 30591, Note_on_c, 1, 57, 0
4, 30592, Note_on_c, 1, 61, 61
4, 30607, Note_on_c, 1, 61, 0
4, 30608, Note_on_c, 1, 64, 61
4, 30623, Note_on_c, 1, 64, 0
4, 30624, Note_on_c, 1, 56, 61
4, 30639, Note_on_c, 1, 56, 0
4, 30640, Note_on_c, 1, 59, 61
4, 30655, Note_on_c, 1, 59, 0
4, 30656, Note_on_c, 1, 64, 61
4, 30671, Note_on_c, 1, 64, 0
4, 30672, Note_on_c, 1, 56, 61
4, 30687, Note_on_c, 1, 56, 0
4, 30688, Note_on_c, 1, 59, 61
4, 30703, Note_on_c, 1, 59, 0
4, 30704, Note_on_c, 1, 64, 61
4, 30719, Note_on_c, 1, 64, 0
4, 30720, Note_on_c, 1, 61, 75
4, 30720, Note_on_c, 1, 57, 75
4, 30765, Note_on_c, 1, 61, 0
4, 30765, Note_on_c, 1, 57, 0
4, 30816, Note_on_c, 1, 62, 75
4, 30816, Note_on_c, 1, 50, 75
4, 30861, Note_on_c, 1, 62, 0
4, 30861, Note_on_c, 1, 50, 0
4, 30912, Note_on_c, 1, 50, 75
4, 30912, Note_on_c, 1, 38, 75
4, 30957, Note_on_c, 1, 50, 0
4, 30957, Note_on_c, 1, 38, 0
4, 31008, Note_on_c, 1, 50, 75
4, 31008, Note_on_c, 1, 38, 75
4, 31053, Note_on_c, 1, 50, 0
4, 31053, Note_on_c, 1, 38, 0
4, 31104, Note_on_c, 1, 49, 61
4, 31119, Note_on_c, 1, 49, 0
4, 31120, Note_on_c, 1, 52, 61
4, 31135, Note_on_c, 1, 52, 0
4, 31136, Note_on_c, 1, 57, 61
4, 31151, Note_on_c, 1, 57, 0
4, 31152, Note_on_c, 1, 49, 61
4, 31167, Note_on_c, 1, 49, 0
4, 31168, Note_on_c, 1, 52, 61
4, 31183, Note_on_c, 1, 52, 0
4, 31184, Note_on_c, 1, 57, 61
4, 31199, Note_on_c, 1, 57, 0
4, 31200, Note_on_c, 1, 50, 61
4, 31215, Note_on_c, 1, 50, 0
4, 31216, Note_on_c, 1, 54, 61
4, 31231, Note_on_c, 1, 54, 0
4, 31232, Note_on_c, 1, 59, 61
4, 31247, Note_on_c, 1, 59, 0
4, 31248, Note_on_c, 1, 52, 61
4, 31263, Note_on_c, 1, 52, 0
4, 31264, Note_on_c, 1, 59, 61
4, 31279, Note_on_c, 1, 59, 0
4, 31280, Note_on_c, 1, 62, 61
4, 31295, Note_on_c, 1, 62, 0
4, 31296, Note_on_c, 1, 61, 75
4, 31296, Note_on_c, 1, 57, 75
4, 31341, Note_on_c, 1, 61, 0
4, 31341, Note_on_c, 1, 57, 0
4, 31392, Note_on_c, 1, 62, 75
4, 31392, Note_on_c, 1, 50, 75
4, 31437, Note_on_c, 1, 62, 0
4, 31437, Note_on_c, 1, 50, 0
4, 31488, Note_on_c, 1, 50, 75
4, 31488, Note_on_c, 1, 38, 75
4, 31533, Note_on_c, 1, 50, 0
4, 31533, Note_on_c, 1, 38, 0
4, 31584, Note_on_c, 1, 50, 75
4, 31584, Note_on_c, 1, 38, 75
4, 31629, Note_on_c, 1, 50, 0
4, 31629, Note_on_c, 1, 38, 0
4, 31680, Note_on_c, 1, 49, 61
4, 31695, Note_on_c, 1, 49, 0
4, 31696, Note_on_c, 1, 52, 61
4, 31711, Note_on_c, 1, 52, 0
4, 31712, Note_on_c, 1, 57, 61
4, 31727, Note_on_c, 1, 57, 0
4, 31728, Note_on_c, 1, 49, 61
4, 31743, Note_on_c, 1, 49, 0
4, 31744, Note_on_c, 1, 52, 61
4, 31759, Note_on_c, 1, 52, 0
4, 31760, Note_on_c, 1, 57, 61
4, 31775, Note_on_c, 1, 57, 0
4, 31776, Note_on_c, 1, 50, 61
4, 31791, Note_on_c, 1, 50, 0
4, 31792, Note_on_c, 1, 54, 61
4, 31807, Note_on_c, 1, 54, 0
4, 31808, Note_on_c, 1, 59, 61
4, 31823, Note_on_c, 1, 59, 0
4, 31824, Note_on_c, 1, 52, 61
4, 31839, Note_on_c, 1, 52, 0
4, 31840, Note_on_c, 1, 59, 61
4, 31855, Note_on_c, 1, 59, 0
4, 31856, Note_on_c, 1, 62, 61
4, 31871, Note_on_c, 1, 62, 0
4, 31872, Note_on_c, 1, 57, 53
4, 31887, Note_on_c, 1, 57, 0
4, 31888, Note_on_c, 1, 61, 53
4, 31903, Note_on_c, 1, 61, 0
4, 31904, Note_on_c, 1, 64, 53
4, 31919, Note_on_c, 1, 64, 0
4, 31920, Note_on_c, 1, 57, 53
4, 31935, Note_on_c, 1, 57, 0
4, 31936, Note_on_c, 1, 61, 53
4, 31951, Note_on_c, 1, 61, 0
4, 31952, Note_on_c, 1, 64, 53
4, 31967, Note_on_c, 1, 64, 0
4, 31968, Note_on_c, 1, 52, 53
4, 31983, Note_on_c, 1, 52, 0
4, 31984, Note_on_c, 1, 59, 53
4, 31999, Note_on_c, 1, 59, 0
4, 32000, Note_on_c, 1, 64, 53
4, 32015, Note_on_c, 1, 64, 0
4, 32016, Note_on_c, 1, 52, 53
4, 32031, Note_on_c, 1, 52, 0
4, 32032, Note_on_c, 1, 59, 53
4, 32047, Note_on_c, 1, 59, 0
4, 32048, Note_on_c, 1, 64, 53
4, 32063, Note_on_c, 1, 64, 0
4, 32064, Note_on_c, 1, 57, 53
4, 32079, Note_on_c, 1, 57, 0
4, 32080, Note_on_c, 1, 61, 53
4, 32095, Note_on_c, 1, 61, 0
4, 32096, Note_on_c, 1, 64, 53
4, 32111, Note_on_c, 1, 64, 0
4, 32112, Note_on_c, 1, 57, 53
4, 32127, Note_on_c, 1, 57, 0
4, 32128, Note_on_c, 1, 61, 53
4, 32143, Note_on_c, 1, 61, 0
4, 32144, Note_on_c, 1, 64, 53
4, 32159, Note_on_c, 1, 64, 0
4, 32160, Note_on_c, 1, 52, 53
4, 32175, Note_on_c, 1, 52, 0
4, 32176, Note_on_c, 1, 59, 53
4, 32191, Note_on_c, 1, 59, 0
4, 32192, Note_on_c, 1, 64, 53
4, 32207, Note_on_c, 1, 64, 0
4, 32208, Note_on_c, 1, 52, 53
4, 32223, Note_on_c, 1, 52, 0
4, 32224, Note_on_c, 1, 59, 53
4, 32239, Note_on_c, 1, 59, 0
4, 32240, Note_on_c, 1, 64, 53
4, 32255, Note_on_c, 1, 64, 0
4, 32256, Note_on_c, 1, 57, 53
4, 32271, Note_on_c, 1, 57, 0
4, 32272, Note_on_c, 1, 61, 53
4, 32287, Note_on_c, 1, 61, 0
4, 32288, Note_on_c, 1, 64, 53
4, 32303, Note_on_c, 1, 64, 0
4, 32304, Note_on_c, 1, 57, 53
4, 32319, Note_on_c, 1, 57, 0
4, 32320, Note_on_c, 1, 61, 53
4, 32335, Note_on_c, 1, 61, 0
4, 32336, Note_on_c, 1, 64, 53
4, 32351, Note_on_c, 1, 64, 0
4, 32352, Note_on_c, 1, 57, 53
4, 32367, Note_on_c, 1, 57, 0
4, 32368, Note_on_c, 1, 61, 53
4, 32383, Note_on_c, 1, 61, 0
4, 32384, Note_on_c, 1, 64, 53
4, 32399, Note_on_c, 1, 64, 0
4, 32400, Note_on_c, 1, 57, 53
4, 32415, Note_on_c, 1, 57, 0
4, 32416, Note_on_c, 1, 61, 53
4, 32431, Note_on_c, 1, 61, 0
4, 32432, Note_on_c, 1, 64, 53
4, 32447, Note_on_c, 1, 64, 0
4, 32448, Note_on_c, 1, 57, 53
4, 32537, Note_on_c, 1, 57, 0
4, 32688, Note_on_c, 1, 45, 76
4, 32733, Note_on_c, 1, 45, 0
4, 32736, Note_on_c, 1, 57, 78
4, 32781, Note_on_c, 1, 57, 0
4, 32784, Note_on_c, 1, 56, 80
4, 32829, Note_on_c, 1, 56, 0
4, 32832, Note_on_c, 1, 57, 82
4, 32877, Note_on_c, 1, 57, 0
4, 32880, Note_on_c, 1, 62, 84
4, 32925, Note_on_c, 1, 62, 0
4, 32928, Note_on_c, 1, 61, 81
4, 32973, Note_on_c, 1, 61, 0
4, 32976, Note_on_c, 1, 56, 78
4, 33021, Note_on_c, 1, 56, 0
4, 33072, Note_on_c, 1, 45, 76
4, 33117, Note_on_c, 1, 45, 0
4, 33120, Note_on_c, 1, 57, 78
4, 33165, Note_on_c, 1, 57, 0
4, 33168, Note_on_c, 1, 56, 80
4, 33213, Note_on_c, 1, 56, 0
4, 33216, Note_on_c, 1, 57, 82
4, 33261, Note_on_c, 1, 57, 0
4, 33264, Note_on_c, 1, 62, 84
4, 33309, Note_on_c, 1, 62, 0
4, 33312, Note_on_c, 1, 61, 81
4, 33357, Note_on_c, 1, 61, 0
4, 33360, Note_on_c, 1, 56, 78
4, 33405, Note_on_c, 1, 56, 0
4, 33408, Note_on_c, 1, 57, 75
4, 33453, Note_on_c, 1, 57, 0
4, 33456, Note_on_c, 1, 59, 78
4, 33501, Note_on_c, 1, 59, 0
4, 33504, Note_on_c, 1, 61, 81
4, 33549, Note_on_c, 1, 61, 0
4, 33600, Note_on_c, 1, 57, 75
4, 33645, Note_on_c, 1, 57, 0
4, 33648, Note_on_c, 1, 59, 78
4, 33693, Note_on_c, 1, 59, 0
4, 33696, Note_on_c, 1, 61, 81
4, 33741, Note_on_c, 1, 61, 0
4, 33840, Note_on_c, 1, 52, 69
4, 33840, Note_on_c, 1, 49, 69
4, 33885, Note_on_c, 1, 52, 0
4, 33885, Note_on_c, 1, 49, 0
4, 33888, Note_on_c, 1, 52, 69
4, 33888, Note_on_c, 1, 49, 69
4, 33933, Note_on_c, 1, 52, 0
4, 33933, Note_on_c, 1, 49, 0
4, 33936, Note_on_c, 1, 52, 69
4, 33936, Note_on_c, 1, 49, 69
4, 33981, Note_on_c, 1, 52, 0
4, 33981, Note_on_c, 1, 49, 0
4, 34032, Note_on_c, 1, 54, 69
4, 34032, Note_on_c, 1, 50, 69
4, 34077, Note_on_c, 1, 54, 0
4, 34077, Note_on_c, 1, 50, 0
4, 34080, Note_on_c, 1, 54, 69
4, 34080, Note_on_c, 1, 50, 69
4, 34125, Note_on_c, 1, 54, 0
4, 34125, Note_on_c, 1, 50, 0
4, 34128, Note_on_c, 1, 54, 69
4, 34128, Note_on_c, 1, 50, 69
4, 34173, Note_on_c, 1, 54, 0
4, 34173, Note_on_c, 1, 50, 0
4, 34224, Note_on_c, 1, 56, 69
4, 34224, Note_on_c, 1, 52, 69
4, 34269, Note_on_c, 1, 56, 0
4, 34269, Note_on_c, 1, 52, 0
4, 34272, Note_on_c, 1, 56, 69
4, 34272, Note_on_c, 1, 52, 69
4, 34317, Note_on_c, 1, 56, 0
4, 34317, Note_on_c, 1, 52, 0
4, 34320, Note_on_c, 1, 56, 69
4, 34320, Note_on_c, 1, 52, 69
4, 34365, Note_on_c, 1, 56, 0
4, 34365, Note_on_c, 1, 52, 0
4, 34368, Note_on_c, 1, 57, 75
4, 34392, Note_on_c, 1, 57, 0
4, 34392, Note_on_c, 1, 45, 75
4, 34415, Note_on_c, 1, 45, 0
4, 34416, Note_on_c, 1, 57, 75
4, 34426, Note_on_c, 1, 57, 0
4, 34440, Note_on_c, 1, 57, 75
4, 34450, Note_on_c, 1, 57, 0
4, 34464, Note_on_c, 1, 57, 75
4, 34474, Note_on_c, 1, 57, 0
4, 34488, Note_on_c, 1, 57, 75
4, 34498, Note_on_c, 1, 57, 0
4, 34512, Note_on_c, 1, 57, 75
4, 34522, Note_on_c, 1, 57, 0
4, 34536, Note_on_c, 1, 57, 75
4, 34546, Note_on_c, 1, 57, 0
4, 34560, Note_on_c, 1, 57, 75
4, 34649, Note_on_c, 1, 57, 0
4, 34752, Note_on_c, 1, 60, 75
4, 34775, Note_on_c, 1, 60, 0
4, 34776, Note_on_c, 1, 48, 75
4, 34799, Note_on_c, 1, 48, 0
4, 34800, Note_on_c, 1, 59, 75
4, 34823, Note_on_c, 1, 59, 0
4, 34824, Note_on_c, 1, 47, 75
4, 34847, Note_on_c, 1, 47, 0
4, 34848, Note_on_c, 1, 57, 75
4, 34871, Note_on_c, 1, 57, 0
4, 34872, Note_on_c, 1, 45, 75
4, 34895, Note_on_c, 1, 45, 0
4, 34896, Note_on_c, 1, 58, 75
4, 34919, Note_on_c, 1, 58, 0
4, 34920, Note_on_c, 1, 46, 75
4, 34943, Note_on_c, 1, 46, 0
4, 34944, Note_on_c, 1, 59, 75
4, 34968, Note_on_c, 1, 59, 0
4, 34968, Note_on_c, 1, 47, 75
4, 34991, Note_on_c, 1, 47, 0
4, 34992, Note_on_c, 1, 59, 75
4, 35002, Note_on_c, 1, 59, 0
4, 35016, Note_on_c, 1, 59, 75
4, 35026, Note_on_c, 1, 59, 0
4, 35040, Note_on_c, 1, 59, 75
4, 35050, Note_on_c, 1, 59, 0
4, 35064, Note_on_c, 1, 59, 75
4, 35074, Note_on_c, 1, 59, 0
4, 35088, Note_on_c, 1, 59, 75
4, 35098, Note_on_c, 1, 59, 0
4, 35112, Note_on_c, 1, 59, 75
4, 35122, Note_on_c, 1, 59, 0
4, 35136, Note_on_c, 1, 59, 75
4, 35146, Note_on_c, 1, 59, 0
4, 35160, Note_on_c, 1, 59, 75
4, 35170, Note_on_c, 1, 59, 0
4, 35184, Note_on_c, 1, 59, 75
4, 35194, Note_on_c, 1, 59, 0
4, 35208, Note_on_c, 1, 59, 75
4, 35218, Note_on_c, 1, 59, 0
4, 35232, Note_on_c, 1, 59, 75
4, 35242, Note_on_c, 1, 59, 0
4, 35256, Note_on_c, 1, 59, 75
4, 35266, Note_on_c, 1, 59, 0
4, 35280, Note_on_c, 1, 59, 75
4, 35290, Note_on_c, 1, 59, 0
4, 35304, Note_on_c, 1, 59, 75
4, 35314, Note_on_c, 1, 59, 0
4, 35328, Note_on_c, 1, 59, 75
4, 35352, Note_on_c, 1, 59, 0
4, 35352, Note_on_c, 1, 47, 75
4, 35375, Note_on_c, 1, 47, 0
4, 35376, Note_on_c, 1, 59, 75
4, 35386, Note_on_c, 1, 59, 0
4, 35400, Note_on_c, 1, 59, 75
4, 35410, Note_on_c, 1, 59, 0
4, 35424, Note_on_c, 1, 59, 75
4, 35434, Note_on_c, 1, 59, 0
4, 35448, Note_on_c, 1, 59, 75
4, 35458, Note_on_c, 1, 59, 0
4, 35472, Note_on_c, 1, 59, 75
4, 35482, Note_on_c, 1, 59, 0
4, 35496, Note_on_c, 1, 59, 75
4, 35506, Note_on_c, 1, 59, 0
4, 35520, Note_on_c, 1, 59, 75
4, 35530, Note_on_c, 1, 59, 0
4, 35544, Note_on_c, 1, 59, 75
4, 35554, Note_on_c, 1, 59, 0
4, 35568, Note_on_c, 1, 59, 75
4, 35578, Note_on_c, 1, 59, 0
4, 35592, Note_on_c, 1, 59, 75
4, 35602, Note_on_c, 1, 59, 0
4, 35616, Note_on_c, 1, 59, 75
4, 35626, Note_on_c, 1, 59, 0
4, 35640, Note_on_c, 1, 59, 75
4, 35650, Note_on_c, 1, 59, 0
4, 35664, Note_on_c, 1, 59, 75
4, 35674, Note_on_c, 1, 59, 0
4, 35688, Note_on_c, 1, 59, 75
4, 35698, Note_on_c, 1, 59, 0
4, 35712, Note_on_c, 1, 59, 75
4, 35736, Note_on_c, 1, 59, 0
4, 35736, Note_on_c, 1, 47, 75
4, 35759, Note_on_c, 1, 47, 0
4, 35760, Note_on_c, 1, 59, 75
4, 35770, Note_on_c, 1, 59, 0
4, 35784, Note_on_c, 1, 59, 75
4, 35794, Note_on_c, 1, 59, 0
4, 35808, Note_on_c, 1, 59, 75
4, 35818, Note_on_c, 1, 59, 0
4, 35832, Note_on_c, 1, 59, 75
4, 35842, Note_on_c, 1, 59, 0
4, 35856, Note_on_c, 1, 59, 75
4, 35866, Note_on_c, 1, 59, 0
4, 35880, Note_on_c, 1, 59, 75
4, 35890, Note_on_c, 1, 59, 0
4, 35904, Note_on_c, 1, 59, 75
4, 35914, Note_on_c, 1, 59, 0
4, 35928, Note_on_c, 1, 59, 75
4, 35938, Note_on_c, 1, 59, 0
4, 35952, Note_on_c, 1, 59, 75
4, 35962, Note_on_c, 1, 59, 0
4, 35976, Note_on_c, 1, 59, 75
4, 35986, Note_on_c, 1, 59, 0
4, 36000, Note_on_c, 1, 59, 75
4, 36010, Note_on_c, 1, 59, 0
4, 36024, Note_on_c, 1, 59, 75
4, 36034, Note_on_c, 1, 59, 0
4, 36048, Note_on_c, 1, 59, 75
4, 36058, Note_on_c, 1, 59, 0
4, 36072, Note_on_c, 1, 59, 75
4, 36082, Note_on_c, 1, 59, 0
4, 36096, Note_on_c, 1, 59, 75
4, 36120, Note_on_c, 1, 59, 0
4, 36120, Note_on_c, 1, 47, 75
4, 36143, Note_on_c, 1, 47, 0
4, 36144, Note_on_c, 1, 59, 75
4, 36154, Note_on_c, 1, 59, 0
4, 36168, Note_on_c, 1, 59, 75
4, 36178, Note_on_c, 1, 59, 0
4, 36192, Note_on_c, 1, 59, 75
4, 36202, Note_on_c, 1, 59, 0
4, 36216, Note_on_c, 1, 59, 75
4, 36226, Note_on_c, 1, 59, 0
4, 36240, Note_on_c, 1, 59, 75
4, 36250, Note_on_c, 1, 59, 0
4, 36264, Note_on_c, 1, 59, 75
4, 36274, Note_on_c, 1, 59, 0
4, 36288, Note_on_c, 1, 59, 75
4, 36298, Note_on_c, 1, 59, 0
4, 36312, Note_on_c, 1, 59, 75
4, 36322, Note_on_c, 1, 59, 0
4, 36336, Note_on_c, 1, 59, 75
4, 36346, Note_on_c, 1, 59, 0
4, 36360, Note_on_c, 1, 59, 75
4, 36370, Note_on_c, 1, 59, 0
4, 36384, Note_on_c, 1, 59, 75
4, 36394, Note_on_c, 1, 59, 0
4, 36408, Note_on_c, 1, 59, 75
4, 36418, Note_on_c, 1, 59, 0
4, 36432, Note_on_c, 1, 59, 75
4, 36442, Note_on_c, 1, 59, 0
4, 36456, Note_on_c, 1, 59, 75
4, 36466, Note_on_c, 1, 59, 0
4, 36480, Note_on_c, 1, 59, 75
4, 36504, Note_on_c, 1, 59, 0
4, 36504, Note_on_c, 1, 47, 75
4, 36527, Note_on_c, 1, 47, 0
4, 36528, Note_on_c, 1, 59, 75
4, 36538, Note_on_c, 1, 59, 0
4, 36552, Note_on_c, 1, 59, 75
4, 36562, Note_on_c, 1, 59, 0
4, 36576, Note_on_c, 1, 59, 75
4, 36586, Note_on_c, 1, 59, 0
4, 36600, Note_on_c, 1, 59, 75
4, 36610, Note_on_c, 1, 59, 0
4, 36624, Note_on_c, 1, 59, 75
4, 36634, Note_on_c, 1, 59, 0
4, 36648, Note_on_c, 1, 59, 75
4, 36658, Note_on_c, 1, 59, 0
4, 36672, Note_on_c, 1, 59, 75
4, 36761, Note_on_c, 1, 59, 0
4, 36768, Note_on_c, 1, 60, 69
4, 36768, Note_on_c, 1, 57, 69
4, 36857, Note_on_c, 1, 60, 0
4, 36857, Note_on_c, 1, 57, 0
4, 36864, Note_on_c, 1, 59, 69
4, 36864, Note_on_c, 1, 55, 69
4, 36953, Note_on_c, 1, 59, 0
4, 36953, Note_on_c, 1, 55, 0
4, 36960, Note_on_c, 1, 59, 69
4, 36960, Note_on_c, 1, 54, 69
4, 36960, Note_on_c, 1, 51, 69
4, 37049, Note_on_c, 1, 59, 0
4, 37049, Note_on_c, 1, 54, 0
4, 37049, Note_on_c, 1, 51, 0
4, 37056, Note_on_c, 1, 59, 72
4, 37056, Note_on_c, 1, 55, 72
4, 37056, Note_on_c, 1, 52, 72
4, 37145, Note_on_c, 1, 59, 0
4, 37145, Note_on_c, 1, 55, 0
4, 37145, Note_on_c, 1, 52, 0
4, 37152, Note_on_c, 1, 52, 76
4, 37152, Note_on_c, 1, 49, 76
4, 37241, Note_on_c, 1, 52, 0
4, 37241, Note_on_c, 1, 49, 0
4, 37248, Note_on_c, 1, 54, 79
4, 37248, Note_on_c, 1, 50, 79
4, 37248, Note_on_c, 1, 47, 79
4, 37337, Note_on_c, 1, 54, 0
4, 37337, Note_on_c, 1, 50, 0
4, 37337, Note_on_c, 1, 47, 0
4, 37344, Note_on_c, 1, 54, 83
4, 37344, Note_on_c, 1, 49, 83
4, 37344, Note_on_c, 1, 46, 83
4, 37433, Note_on_c, 1, 54, 0
4, 37433, Note_on_c, 1, 49, 0
4, 37433, Note_on_c, 1, 46, 0
4, 37440, Note_on_c, 1, 54, 86
4, 37440, Note_on_c, 1, 50, 86
4, 37440, Note_on_c, 1, 47, 86
4, 37529, Note_on_c, 1, 54, 0
4, 37529, Note_on_c, 1, 50, 0
4, 37529, Note_on_c, 1, 47, 0
4, 37536, Note_on_c, 1, 55, 90
4, 37536, Note_on_c, 1, 43, 90
4, 37625, Note_on_c, 1, 55, 0
4, 37625, Note_on_c, 1, 43, 0
4, 37632, Note_on_c, 1, 54, 90
4, 37632, Note_on_c, 1, 42, 90
4, 37721, Note_on_c, 1, 54, 0
4, 37721, Note_on_c, 1, 42, 0
4, 37728, Note_on_c, 1, 53, 90
4, 37728, Note_on_c, 1, 41, 90
4, 37817, Note_on_c, 1, 53, 0
4, 37817, Note_on_c, 1, 41, 0
4, 37824, Note_on_c, 1, 54, 90
4, 37824, Note_on_c, 1, 42, 90
4, 38193, Note_on_c, 1, 54, 0
4, 38193, Note_on_c, 1, 42, 0
4, 38208, Note_on_c, 1, 55, 75
4, 38232, Note_on_c, 1, 55, 0
4, 38232, Note_on_c, 1, 43, 75
4, 38255, Note_on_c, 1, 43, 0
4, 38256, Note_on_c, 1, 55, 75
4, 38266, Note_on_c, 1, 55, 0
4, 38280, Note_on_c, 1, 55, 75
4, 38290, Note_on_c, 1, 55, 0
4, 38304, Note_on_c, 1, 55, 75
4, 38349, Note_on_c, 1, 55, 0
4, 38400, Note_on_c, 1, 55, 75
4, 38424, Note_on_c, 1, 55, 0
4, 38424, Note_on_c, 1, 43, 75
4, 38447, Note_on_c, 1, 43, 0
4, 38448, Note_on_c, 1, 55, 75
4, 38458, Note_on_c, 1, 55, 0
4, 38472, Note_on_c, 1, 55, 75
4, 38482, Note_on_c, 1, 55, 0
4, 38496, Note_on_c, 1, 55, 75
4, 38541, Note_on_c, 1, 55, 0
4, 38592, Note_on_c, 1, 54, 75
4, 38616, Note_on_c, 1, 54, 0
4, 38616, Note_on_c, 1, 42, 75
4, 38639, Note_on_c, 1, 42, 0
4, 38640, Note_on_c, 1, 54, 75
4, 38650, Note_on_c, 1, 54, 0
4, 38664, Note_on_c, 1, 54, 75
4, 38674, Note_on_c, 1, 54, 0
4, 38688, Note_on_c, 1, 54, 75
4, 38733, Note_on_c, 1, 54, 0
4, 38784, Note_on_c, 1, 59, 75
4, 38808, Note_on_c, 1, 59, 0
4, 38808, Note_on_c, 1, 47, 75
4, 38831, Note_on_c, 1, 47, 0
4, 38832, Note_on_c, 1, 59, 75
4, 38842, Note_on_c, 1, 59, 0
4, 38856, Note_on_c, 1, 59, 75
4, 38866, Note_on_c, 1, 59, 0
4, 38880, Note_on_c, 1, 59, 75
4, 38925, Note_on_c, 1, 59, 0
4, 38976, Note_on_c, 1, 61, 75
4, 39000, Note_on_c, 1, 61, 0
4, 39000, Note_on_c, 1, 49, 75
4, 39023, Note_on_c, 1, 49, 0
4, 39024, Note_on_c, 1, 61, 75
4, 39034, Note_on_c, 1, 61, 0
4, 39048, Note_on_c, 1, 61, 75
4, 39058, Note_on_c, 1, 61, 0
4, 39072, Note_on_c, 1, 61, 75
4, 39117, Note_on_c, 1, 61, 0
4, 39168, Note_on_c, 1, 62, 75
4, 39192, Note_on_c, 1, 62, 0
4, 39192, Note_on_c, 1, 50, 75
4, 39215, Note_on_c, 1, 50, 0
4, 39216, Note_on_c, 1, 62, 75
4, 39226, Note_on_c, 1, 62, 0
4, 39240, Note_on_c, 1, 62, 75
4, 39250, Note_on_c, 1, 62, 0
4, 39264, Note_on_c, 1, 62, 75
4, 39309, Note_on_c, 1, 62, 0
4, 39360, Note_on_c, 1, 64, 75
4, 39384, Note_on_c, 1, 64, 0
4, 39384, Note_on_c, 1, 52, 75
4, 39407, Note_on_c, 1, 52, 0
4, 39408, Note_on_c, 1, 64, 75
4, 39418, Note_on_c, 1, 64, 0
4, 39432, Note_on_c, 1, 64, 75
4, 39442, Note_on_c, 1, 64, 0
4, 39456, Note_on_c, 1, 64, 75
4, 39501, Note_on_c, 1, 64, 0
4, 39552, Note_on_c, 1, 57, 75
4, 39576, Note_on_c, 1, 57, 0
4, 39576, Note_on_c, 1, 45, 75
4, 39599, Note_on_c, 1, 45, 0
4, 39600, Note_on_c, 1, 57, 75
4, 39610, Note_on_c, 1, 57, 0
4, 39624, Note_on_c, 1, 57, 75
4, 39634, Note_on_c, 1, 57, 0
4, 39648, Note_on_c, 1, 57, 75
4, 39693, Note_on_c, 1, 57, 0
4, 39744, Note_on_c, 1, 62, 75
4, 39768, Note_on_c, 1, 62, 0
4, 39768, Note_on_c, 1, 50, 75
4, 39791, Note_on_c, 1, 50, 0
4, 39792, Note_on_c, 1, 62, 75
4, 39802, Note_on_c, 1, 62, 0
4, 39816, Note_on_c, 1, 62, 75
4, 39826, Note_on_c, 1, 62, 0
4, 39840, Note_on_c, 1, 62, 75
4, 39850, Note_on_c, 1, 62, 0
4, 39864, Note_on_c, 1, 62, 75
4, 39874, Note_on_c, 1, 62, 0
4, 39888, Note_on_c, 1, 62, 75
4, 39898, Note_on_c, 1, 62, 0
4, 39912, Note_on_c, 1, 62, 75
4, 39922, Note_on_c, 1, 62, 0
4, 39936, Note_on_c, 1, 62, 75
4, 39960, Note_on_c, 1, 62, 0
4, 39960, Note_on_c, 1, 50, 76
4, 39983, Note_on_c, 1, 50, 0
4, 39984, Note_on_c, 1, 62, 77
4, 39994, Note_on_c, 1, 62, 0
4, 40008, Note_on_c, 1, 62, 78
4, 40018, Note_on_c, 1, 62, 0
4, 40032, Note_on_c, 1, 60, 79
4, 40056, Note_on_c, 1, 60, 0
4, 40056, Note_on_c, 1, 48, 80
4, 40079, Note_on_c, 1, 48, 0
4, 40080, Note_on_c, 1, 60, 81
4, 40090, Note_on_c, 1, 60, 0
4, 40104, Note_on_c, 1, 60, 82
4, 40114, Note_on_c, 1, 60, 0
4, 40128, Note_on_c, 1, 59, 83
4, 40152, Note_on_c, 1, 59, 0
4, 40152, Note_on_c, 1, 47, 84
4, 40175, Note_on_c, 1, 47, 0
4, 40176, Note_on_c, 1, 59, 84
4, 40186, Note_on_c, 1, 59, 0
4, 40200, Note_on_c, 1, 59, 84
4, 40210, Note_on_c, 1, 59, 0
4, 40224, Note_on_c, 1, 54, 84
4, 40248, Note_on_c, 1, 54, 0
4, 40248, Note_on_c, 1, 42, 84
4, 40271, Note_on_c, 1, 42, 0
4, 40272, Note_on_c, 1, 54, 84
4, 40282, Note_on_c, 1, 54, 0
4, 40296, Note_on_c, 1, 54, 84
4, 40306, Note_on_c, 1, 54, 0
4, 40320, Note_on_c, 1, 55, 84
4, 40344, Note_on_c, 1, 55, 0
4, 40344, Note_on_c, 1, 43, 84
4, 40367, Note_on_c, 1, 43, 0
4, 40368, Note_on_c, 1, 55, 84
4, 40378, Note_on_c, 1, 55, 0
4, 40392, Note_on_c, 1, 55, 84
4, 40402, Note_on_c, 1, 55, 0
4, 40416, Note_on_c, 1, 54, 84
4, 40440, Note_on_c, 1, 54, 0
4, 40440, Note_on_c, 1, 42, 84
4, 40463, Note_on_c, 1, 42, 0
4, 40464, Note_on_c, 1, 54, 84
4, 40474, Note_on_c, 1, 54, 0
4, 40488, Note_on_c, 1, 54, 84
4, 40498, Note_on_c, 1, 54, 0
4, 40512, Note_on_c, 1, 52, 84
4, 40536, Note_on_c, 1, 52, 0
4, 40536, Note_on_c, 1, 40, 84
4, 40559, Note_on_c, 1, 40, 0
4, 40560, Note_on_c, 1, 52, 84
4, 40570, Note_on_c, 1, 52, 0
4, 40584, Note_on_c, 1, 52, 84
4, 40594, Note_on_c, 1, 52, 0
4, 40608, Note_on_c, 1, 50, 84
4, 40632, Note_on_c, 1, 50, 0
4, 40632, Note_on_c, 1, 38, 84
4, 40655, Note_on_c, 1, 38, 0
4, 40656, Note_on_c, 1, 50, 84
4, 40666, Note_on_c, 1, 50, 0
4, 40680, Note_on_c, 1, 50, 84
4, 40690, Note_on_c, 1, 50, 0
4, 40704, Note_on_c, 1, 49, 84
4, 40793, Note_on_c, 1, 49, 0
4, 40848, Note_on_c, 1, 49, 84
4, 40893, Note_on_c, 1, 49, 0
4, 40896, Note_on_c, 1, 50, 84
4, 40896, Note_on_c, 1, 38, 84
4, 40985, Note_on_c, 1, 50, 0
4, 40985, Note_on_c, 1, 38, 0
4, 40992, Note_on_c, 1, 47, 84
4, 40992, Note_on_c, 1, 35, 84
4, 41081, Note_on_c, 1, 47, 0
4, 41081, Note_on_c, 1, 35, 0
4, 41088, Note_on_c, 1, 45, 84
4, 41088, Note_on_c, 1, 33, 84
4, 41177, Note_on_c, 1, 45, 0
4, 41177, Note_on_c, 1, 33, 0
4, 41184, Note_on_c, 1, 44, 84
4, 41184, Note_on_c, 1, 32, 84
4, 41273, Note_on_c, 1, 44, 0
4, 41273, Note_on_c, 1, 32, 0
4, 41280, Note_on_c, 1, 45, 84
4, 41280, Note_on_c, 1, 33, 84
4, 41369, Note_on_c, 1, 45, 0
4, 41369, Note_on_c, 1, 33, 0
4, 41472, Note_on_c, 1, 45, 84
4, 41472, Note_on_c, 1, 33, 84
4, 41561, Note_on_c, 1, 45, 0
4, 41561, Note_on_c, 1, 33, 0
4, 41664, Note_on_c, 1, 45, 84
4, 41664, Note_on_c, 1, 33, 84
4, 41709, Note_on_c, 1, 45, 0
4, 41709, Note_on_c, 1, 33, 0
4, 41712, Note_on_c, 1, 54, 84
4, 41712, Note_on_c, 1, 45, 84
4, 41757, Note_on_c, 1, 54, 0
4, 41757, Note_on_c, 1, 45, 0
4, 41760, Note_on_c, 1, 49, 84
4, 41760, Note_on_c, 1, 45, 84
4, 41805, Note_on_c, 1, 49, 0
4, 41805, Note_on_c, 1, 45, 0
4, 41808, Note_on_c, 1, 50, 85
4, 41808, Note_on_c, 1, 45, 85
4, 41853, Note_on_c, 1, 50, 0
4, 41853, Note_on_c, 1, 45, 0
4, 41856, Note_on_c, 1, 55, 85
4, 41856, Note_on_c, 1, 45, 85
4, 41901, Note_on_c, 1, 55, 0
4, 41901, Note_on_c, 1, 45, 0
4, 41904, Note_on_c, 1, 54, 86
4, 41904, Note_on_c, 1, 45, 86
4, 41949, Note_on_c, 1, 54, 0
4, 41949, Note_on_c, 1, 45, 0
4, 41952, Note_on_c, 1, 49, 86
4, 41952, Note_on_c, 1, 45, 86
4, 41997, Note_on_c, 1, 49, 0
4, 41997, Note_on_c, 1, 45, 0
4, 42000, Note_on_c, 1, 50, 87
4, 42000, Note_on_c, 1, 45, 87
4, 42045, Note_on_c, 1, 50, 0
4, 42045, Note_on_c, 1, 45, 0
4, 42048, Note_on_c, 1, 49, 87
4, 42048, Note_on_c, 1, 45, 87
4, 42093, Note_on_c, 1, 49, 0
4, 42093, Note_on_c, 1, 45, 0
4, 42096, Note_on_c, 1, 50, 87
4, 42096, Note_on_c, 1, 45, 87
4, 42141, Note_on_c, 1, 50, 0
4, 42141, Note_on_c, 1, 45, 0
4, 42144, Note_on_c, 1, 49, 88
4, 42144, Note_on_c, 1, 45, 88
4, 42189, Note_on_c, 1, 49, 0
4, 42189, Note_on_c, 1, 45, 0
4, 42192, Note_on_c, 1, 50, 88
4, 42192, Note_on_c, 1, 45, 88
4, 42237, Note_on_c, 1, 50, 0
4, 42237, Note_on_c, 1, 45, 0
4, 42240, Note_on_c, 1, 57, 89
4, 42240, Note_on_c, 1, 52, 89
4, 42240, Note_on_c, 1, 49, 89
4, 42240, Note_on_c, 1, 45, 89
4, 42329, Note_on_c, 1, 57, 0
4, 42329, Note_on_c, 1, 52, 0
4, 42329, Note_on_c, 1, 49, 0
4, 42329, Note_on_c, 1, 45, 0
4, 42336, Control_c, 1, 64, 127
4, 42336, Note_on_c, 1, 45, 90
4, 42336, Note_on_c, 1, 33, 90
4, 42425, Note_on_c, 1, 45, 0
4, 42425, Note_on_c, 1, 33, 0
4, 42432, Note_on_c, 1, 45, 87
4, 42432, Note_on_c, 1, 33, 87
4, 42525, Note_on_c, 1, 45, 0
4, 42525, Note_on_c, 1, 33, 0
4, 42624, Control_c, 1, 64, 0
4, 42672, Note_on_c, 1, 38, 76
4, 42717, Note_on_c, 1, 38, 0
4, 42720, Note_on_c, 1, 50, 78
4, 42765, Note_on_c, 1, 50, 0
4, 42768, Note_on_c, 1, 49, 80
4, 42813, Note_on_c, 1, 49, 0
4, 42816, Note_on_c, 1, 50, 82
4, 42861, Note_on_c, 1, 50, 0
4, 42864, Note_on_c, 1, 55, 84
4, 42909, Note_on_c, 1, 55, 0
4, 42912, Note_on_c, 1, 54, 81
4, 42957, Note_on_c, 1, 54, 0
4, 42960, Note_on_c, 1, 49, 78
4, 43005, Note_on_c, 1, 49, 0
4, 43056, Note_on_c, 1, 38, 75
4, 43101, Note_on_c, 1, 38, 0
4, 43104, Note_on_c, 1, 50, 76
4, 43149, Note_on_c, 1, 50, 0
4, 43152, Note_on_c, 1, 49, 77
4, 43197, Note_on_c, 1, 49, 0
4, 43200, Note_on_c, 1, 50, 78
4, 43245, Note_on_c, 1, 50, 0
4, 43248, Note_on_c, 1, 55, 79
4, 43293, Note_on_c, 1, 55, 0
4, 43296, Note_on_c, 1, 54, 79
4, 43341, Note_on_c, 1, 54, 0
4, 43344, Note_on_c, 1, 49, 80
4, 43389, Note_on_c, 1, 49, 0
4, 43392, Note_on_c, 1, 50, 81
4, 43437, Note_on_c, 1, 50, 0
4, 43440, Note_on_c, 1, 52, 82
4, 43485, Note_on_c, 1, 52, 0
4, 43488, Note_on_c, 1, 54, 83
4, 43533, Note_on_c, 1, 54, 0
4, 43584, Note_on_c, 1, 50, 75
4, 43629, Note_on_c, 1, 50, 0
4, 43632, Note_on_c, 1, 52, 78
4, 43677, Note_on_c, 1, 52, 0
4, 43680, Note_on_c, 1, 54, 81
4, 43725, Note_on_c, 1, 54, 0
4, 43824, Note_on_c, 1, 38, 69
4, 43869, Note_on_c, 1, 38, 0
4, 43872, Note_on_c, 1, 38, 69
4, 43917, Note_on_c, 1, 38, 0
4, 43920, Note_on_c, 1, 38, 69
4, 43965, Note_on_c, 1, 38, 0
4, 44016, Note_on_c, 1, 40, 69
4, 44061, Note_on_c, 1, 40, 0
4, 44064, Note_on_c, 1, 40, 69
4, 44109, Note_on_c, 1, 40, 0
4, 44112, Note_on_c, 1, 40, 69
4, 44157, Note_on_c, 1, 40, 0
4, 44208, Note_on_c, 1, 33, 69
4, 44253, Note_on_c, 1, 33, 0
4, 44256, Note_on_c, 1, 33, 69
4, 44301, Note_on_c, 1, 33, 0
4, 44304, Note_on_c, 1, 33, 69
4, 44349, Note_on_c, 1, 33, 0
4, 44400, Note_on_c, 1, 38, 69
4, 44445, Note_on_c, 1, 38, 0
4, 44448, Note_on_c, 1, 38, 69
4, 44493, Note_on_c, 1, 38, 0
4, 44496, Note_on_c, 1, 38, 69
4, 44541, Note_on_c, 1, 38, 0
4, 44592, Note_on_c, 1, 50, 69
4, 44592, Note_on_c, 1, 42, 69
4, 44639, Note_on_c, 1, 50, 0
4, 44639, Note_on_c, 1, 42, 0
4, 44640, Note_on_c, 1, 50, 69
4, 44640, Note_on_c, 1, 42, 69
4, 44687, Note_on_c, 1, 50, 0
4, 44687, Note_on_c, 1, 42, 0
4, 44688, Note_on_c, 1, 50, 69
4, 44688, Note_on_c, 1, 42, 69
4, 44735, Note_on_c, 1, 50, 0
4, 44735, Note_on_c, 1, 42, 0
4, 44784, Note_on_c, 1, 50, 69
4, 44784, Note_on_c, 1, 43, 69
4, 44831, Note_on_c, 1, 50, 0
4, 44831, Note_on_c, 1, 43, 0
4, 44832, Note_on_c, 1, 50, 69
4, 44832, Note_on_c, 1, 43, 69
4, 44879, Note_on_c, 1, 50, 0
4, 44879, Note_on_c, 1, 43, 0
4, 44880, Note_on_c, 1, 50, 69
4, 44880, Note_on_c, 1, 43, 69
4, 44927, Note_on_c, 1, 50, 0
4, 44927, Note_on_c, 1, 43, 0
4, 44976, Note_on_c, 1, 50, 69
4, 44976, Note_on_c, 1, 42, 69
4, 45023, Note_on_c, 1, 50, 0
4, 45023, Note_on_c, 1, 42, 0
4, 45024, Note_on_c, 1, 50, 69
4, 45024, Note_on_c, 1, 42, 69
4, 45071, Note_on_c, 1, 50, 0
4, 45071, Note_on_c, 1, 42, 0
4, 45072, Note_on_c, 1, 50, 69
4, 45072, Note_on_c, 1, 42, 69
4, 45119, Note_on_c, 1, 50, 0
4, 45119, Note_on_c, 1, 42, 0
4, 45120, Note_on_c, 1, 50, 69
4, 45120, Note_on_c, 1, 43, 69
4, 45165, Note_on_c, 1, 50, 0
4, 45165, Note_on_c, 1, 43, 0
4, 45216, Note_on_c, 1, 50, 69
4, 45216, Note_on_c, 1, 42, 69
4, 45261, Note_on_c, 1, 50, 0
4, 45261, Note_on_c, 1, 42, 0
4, 45312, Note_on_c, 1, 50, 69
4, 45312, Note_on_c, 1, 43, 69
4, 45357, Note_on_c, 1, 50, 0
4, 45357, Note_on_c, 1, 43, 0
4, 45408, Note_on_c, 1, 50, 69
4, 45408, Note_on_c, 1, 42, 69
4, 45453, Note_on_c, 1, 50, 0
4, 45453, Note_on_c, 1, 42, 0
4, 45744, Note_on_c, 1, 57, 69
4, 45744, Note_on_c, 1, 54, 69
4, 45789, Note_on_c, 1, 57, 0
4, 45789, Note_on_c, 1, 54, 0
4, 45792, Note_on_c, 1, 57, 69
4, 45792, Note_on_c, 1, 54, 69
4, 45837, Note_on_c, 1, 57, 0
4, 45837, Note_on_c, 1, 54, 0
4, 45840, Note_on_c, 1, 57, 69
4, 45840, Note_on_c, 1, 54, 69
4, 45885, Note_on_c, 1, 57, 0
4, 45885, Note_on_c, 1, 54, 0
4, 45936, Note_on_c, 1, 54, 69
4, 45936, Note_on_c, 1, 51, 69
4, 45981, Note_on_c, 1, 54, 0
4, 45981, Note_on_c, 1, 51, 0
4, 45984, Note_on_c, 1, 54, 69
4, 45984, Note_on_c, 1, 51, 69
4, 46029, Note_on_c, 1, 54, 0
4, 46029, Note_on_c, 1, 51, 0
4, 46032, Note_on_c, 1, 54, 69
4, 46032, Note_on_c, 1, 51, 69
4, 46077, Note_on_c, 1, 54, 0
4, 46077, Note_on_c, 1, 51, 0
4, 46080, Note_on_c, 1, 52, 85
4, 46080, Note_on_c, 1, 40, 85
4, 46128, Note_on_c, 1, 52, 0
4, 46128, Note_on_c, 1, 40, 0
4, 46128, Note_on_c, 1, 54, 69
4, 46173, Note_on_c, 1, 54, 0
4, 46176, Note_on_c, 1, 55, 69
4, 46221, Note_on_c, 1, 55, 0
4, 46224, Note_on_c, 1, 51, 69
4, 46269, Note_on_c, 1, 51, 0
4, 46272, Note_on_c, 1, 52, 85
4, 46272, Note_on_c, 1, 40, 85
4, 46320, Note_on_c, 1, 52, 0
4, 46320, Note_on_c, 1, 40, 0
4, 46320, Note_on_c, 1, 54, 69
4, 46365, Note_on_c, 1, 54, 0
4, 46368, Note_on_c, 1, 55, 69
4, 46413, Note_on_c, 1, 55, 0
4, 46416, Note_on_c, 1, 56, 69
4, 46461, Note_on_c, 1, 56, 0
4, 46464, Note_on_c, 1, 57, 85
4, 46560, Note_on_c, 1, 57, 0
4, 46608, Note_on_c, 1, 66, 69
4, 46608, Note_on_c, 1, 62, 69
4, 46628, Note_on_c, 1, 66, 0
4, 46628, Note_on_c, 1, 62, 0
4, 46656, Note_on_c, 1, 64, 69
4, 46656, Note_on_c, 1, 61, 69
4, 46676, Note_on_c, 1, 64, 0
4, 46676, Note_on_c, 1, 61, 0
4, 46704, Note_on_c, 1, 62, 69
4, 46704, Note_on_c, 1, 59, 69
4, 46724, Note_on_c, 1, 62, 0
4, 46724, Note_on_c, 1, 59, 0
4, 46752, Note_on_c, 1, 61, 69
4, 46752, Note_on_c, 1, 57, 69
4, 46772, Note_on_c, 1, 61, 0
4, 46772, Note_on_c, 1, 57, 0
4, 46800, Note_on_c, 1, 59, 69
4, 46800, Note_on_c, 1, 55, 69
4, 46820, Note_on_c, 1, 59, 0
4, 46820, Note_on_c, 1, 55, 0
4, 46848, Note_on_c, 1, 57, 69
4, 46848, Note_on_c, 1, 54, 69
4, 46937, Note_on_c, 1, 57, 0
4, 46937, Note_on_c, 1, 54, 0
4, 46992, Note_on_c, 1, 71, 69
4, 46992, Note_on_c, 1, 67, 69
4, 47012, Note_on_c, 1, 71, 0
4, 47012, Note_on_c, 1, 67, 0
4, 47040, Note_on_c, 1, 69, 69
4, 47040, Note_on_c, 1, 66, 69
4, 47060, Note_on_c, 1, 69, 0
4, 47060, Note_on_c, 1, 66, 0
4, 47088, Note_on_c, 1, 67, 69
4, 47088, Note_on_c, 1, 64, 69
4, 47108, Note_on_c, 1, 67, 0
4, 47108, Note_on_c, 1, 64, 0
4, 47136, Note_on_c, 1, 66, 69
4, 47136, Note_on_c, 1, 62, 69
4, 47156, Note_on_c, 1, 66, 0
4, 47156, Note_on_c, 1, 62, 0
4, 47184, Note_on_c, 1, 64, 69
4, 47184, Note_on_c, 1, 60, 69
4, 47204, Note_on_c, 1, 64, 0
4, 47204, Note_on_c, 1, 60, 0
4, 47232, Note_on_c, 1, 62, 69
4, 47232, Note_on_c, 1, 59, 69
4, 47252, Note_on_c, 1, 62, 0
4, 47252, Note_on_c, 1, 59, 0
4, 47280, Note_on_c, 1, 60, 69
4, 47280, Note_on_c, 1, 57, 69
4, 47300, Note_on_c, 1, 60, 0
4, 47300, Note_on_c, 1, 57, 0
4, 47328, Note_on_c, 1, 59, 69
4, 47328, Note_on_c, 1, 55, 69
4, 47348, Note_on_c, 1, 59, 0
4, 47348, Note_on_c, 1, 55, 0
4, 47376, Note_on_c, 1, 57, 69
4, 47376, Note_on_c, 1, 54, 69
4, 47396, Note_on_c, 1, 57, 0
4, 47396, Note_on_c, 1, 54, 0
4, 47424, Note_on_c, 1, 55, 69
4, 47424, Note_on_c, 1, 52, 69
4, 47444, Note_on_c, 1, 55, 0
4, 47444, Note_on_c, 1, 52, 0
4, 47472, Note_on_c, 1, 54, 69
4, 47472, Note_on_c, 1, 50, 69
4, 47492, Note_on_c, 1, 54, 0
4, 47492, Note_on_c, 1, 50, 0
4, 47520, Note_on_c, 1, 57, 75
4, 47520, Note_on_c, 1, 52, 75
4, 47520, Note_on_c, 1, 49, 75
4, 47609, Note_on_c, 1, 57, 0
4, 47609, Note_on_c, 1, 52, 0
4, 47609, Note_on_c, 1, 49, 0
4, 47616, Note_on_c, 1, 57, 77
4, 47616, Note_on_c, 1, 54, 77
4, 47616, Note_on_c, 1, 50, 77
4, 47705, Note_on_c, 1, 57, 0
4, 47705, Note_on_c, 1, 54, 0
4, 47705, Note_on_c, 1, 50, 0
4, 47712, Note_on_c, 1, 57, 79
4, 47712, Note_on_c, 1, 52, 79
4, 47712, Note_on_c, 1, 49, 79
4, 47801, Note_on_c, 1, 57, 0
4, 47801, Note_on_c, 1, 52, 0
4, 47801, Note_on_c, 1, 49, 0
4, 47808, Note_on_c, 1, 57, 81
4, 47808, Note_on_c, 1, 53, 81
4, 47808, Note_on_c, 1, 50, 81
4, 47897, Note_on_c, 1, 57, 0
4, 47897, Note_on_c, 1, 53, 0
4, 47897, Note_on_c, 1, 50, 0
4, 48000, Control_c, 1, 64, 127
4, 48000, Note_on_c, 1, 50, 84
4, 48000, Note_on_c, 1, 38, 84
4, 48045, Note_on_c, 1, 50, 0
4, 48045, Note_on_c, 1, 38, 0
4, 48048, Note_on_c, 1, 65, 61
4, 48048, Note_on_c, 1, 62, 61
4, 48095, Note_on_c, 1, 65, 0
4, 48095, Note_on_c, 1, 62, 0
4, 48096, Note_on_c, 1, 65, 61
4, 48096, Note_on_c, 1, 62, 61
4, 48143, Note_on_c, 1, 65, 0
4, 48143, Note_on_c, 1, 62, 0
4, 48144, Note_on_c, 1, 65, 61
4, 48144, Note_on_c, 1, 62, 61
4, 48191, Note_on_c, 1, 65, 0
4, 48191, Note_on_c, 1, 62, 0
4, 48192, Note_on_c, 1, 65, 61
4, 48192, Note_on_c, 1, 62, 61
4, 48239, Note_on_c, 1, 65, 0
4, 48239, Note_on_c, 1, 62, 0
4, 48240, Note_on_c, 1, 65, 61
4, 48240, Note_on_c, 1, 62, 61
4, 48287, Note_on_c, 1, 65, 0
4, 48287, Note_on_c, 1, 62, 0
4, 48288, Note_on_c, 1, 65, 61
4, 48288, Note_on_c, 1, 62, 61
4, 48335, Note_on_c, 1, 65, 0
4, 48335, Note_on_c, 1, 62, 0
4, 48336, Note_on_c, 1, 65, 61
4, 48336, Note_on_c, 1, 62, 61
4, 48383, Note_on_c, 1, 65, 0
4, 48383, Note_on_c, 1, 62, 0
4, 48384, Control_c, 1, 64, 0
4, 48384, Note_on_c, 1, 65, 61
4, 48384, Note_on_c, 1, 62, 61
4, 48473, Note_on_c, 1, 65, 0
4, 48473, Note_on_c, 1, 62, 0
4, 48768, Control_c, 1, 64, 127
4, 48768, Note_on_c, 1, 46, 61
4, 48768, Note_on_c, 1, 34, 61
4, 49093, Note_on_c, 1, 46, 0
4, 49093, Note_on_c, 1, 34, 0
4, 49104, Note_on_c, 1, 58, 70
4, 49104, Note_on_c, 1, 46, 70
4, 49149, Note_on_c, 1, 58, 0
4, 49149, Note_on_c, 1, 46, 0
4, 49152, Control_c, 1, 64, 0
4, 49152, Note_on_c, 1, 57, 73
4, 49176, Note_on_c, 1, 57, 0
4, 49176, Note_on_c, 1, 45, 75
4, 49199, Note_on_c, 1, 45, 0
4, 49200, Note_on_c, 1, 57, 75
4, 49210, Note_on_c, 1, 57, 0
4, 49224, Note_on_c, 1, 57, 75
4, 49234, Note_on_c, 1, 57, 0
4, 49248, Note_on_c, 1, 57, 75
4, 49258, Note_on_c, 1, 57, 0
4, 49272, Note_on_c, 1, 57, 75
4, 49282, Note_on_c, 1, 57, 0
4, 49296, Note_on_c, 1, 57, 75
4, 49306, Note_on_c, 1, 57, 0
4, 49320, Note_on_c, 1, 57, 75
4, 49330, Note_on_c, 1, 57, 0
4, 49344, Note_on_c, 1, 57, 75
4, 49354, Note_on_c, 1, 57, 0
4, 49368, Note_on_c, 1, 57, 75
4, 49378, Note_on_c, 1, 57, 0
4, 49392, Note_on_c, 1, 57, 75
4, 49402, Note_on_c, 1, 57, 0
4, 49416, Note_on_c, 1, 57, 75
4, 49426, Note_on_c, 1, 57, 0
4, 49440, Note_on_c, 1, 57, 75
4, 49450, Note_on_c, 1, 57, 0
4, 49464, Note_on_c, 1, 57, 75
4, 49474, Note_on_c, 1, 57, 0
4, 49488, Note_on_c, 1, 57, 75
4, 49498, Note_on_c, 1, 57, 0
4, 49512, Note_on_c, 1, 57, 75
4, 49522, Note_on_c, 1, 57, 0
4, 49536, Note_on_c, 1, 57, 75
4, 49560, Note_on_c, 1, 57, 0
4, 49560, Note_on_c, 1, 45, 75
4, 49583, Note_on_c, 1, 45, 0
4, 49584, Note_on_c, 1, 57, 75
4, 49594, Note_on_c, 1, 57, 0
4, 49608, Note_on_c, 1, 57, 75
4, 49618, Note_on_c, 1, 57, 0
4, 49632, Note_on_c, 1, 57, 75
4, 49642, Note_on_c, 1, 57, 0
4, 49656, Note_on_c, 1, 57, 75
4, 49666, Note_on_c, 1, 57, 0
4, 49680, Note_on_c, 1, 57, 75
4, 49690, Note_on_c, 1, 57, 0
4, 49704, Note_on_c, 1, 57, 75
4, 49714, Note_on_c, 1, 57, 0
4, 49728, Note_on_c, 1, 57, 75
4, 49738, Note_on_c, 1, 57, 0
4, 49752, Note_on_c, 1, 57, 75
4, 49762, Note_on_c, 1, 57, 0
4, 49776, Note_on_c, 1, 57, 75
4, 49786, Note_on_c, 1, 57, 0
4, 49800, Note_on_c, 1, 57, 75
4, 49810, Note_on_c, 1, 57, 0
4, 49824, Note_on_c, 1, 57, 75
4, 49834, Note_on_c, 1, 57, 0
4, 49848, Note_on_c, 1, 57, 75
4, 49858, Note_on_c, 1, 57, 0
4, 49872, Note_on_c, 1, 57, 75
4, 49882, Note_on_c, 1, 57, 0
4, 49896, Note_on_c, 1, 57, 75
4, 49906, Note_on_c, 1, 57, 0
4, 49920, Note_on_c, 1, 57, 75
4, 49944, Note_on_c, 1, 57, 0
4, 49944, Note_on_c, 1, 45, 75
4, 49967, Note_on_c, 1, 45, 0
4, 49968, Note_on_c, 1, 57, 75
4, 49978, Note_on_c, 1, 57, 0
4, 49992, Note_on_c, 1, 57, 75
4, 50002, Note_on_c, 1, 57, 0
4, 50016, Note_on_c, 1, 57, 75
4, 50026, Note_on_c, 1, 57, 0
4, 50040, Note_on_c, 1, 57, 75
4, 50050, Note_on_c, 1, 57, 0
4, 50064, Note_on_c, 1, 57, 75
4, 50074, Note_on_c, 1, 57, 0
4, 50088, Note_on_c, 1, 57, 75
4, 50098, Note_on_c, 1, 57, 0
4, 50112, Note_on_c, 1, 57, 75
4, 50122, Note_on_c, 1, 57, 0
4, 50136, Note_on_c, 1, 57, 75
4, 50146, Note_on_c, 1, 57, 0
4, 50160, Note_on_c, 1, 57, 75
4, 50170, Note_on_c, 1, 57, 0
4, 50184, Note_on_c, 1, 57, 75
4, 50194, Note_on_c, 1, 57, 0
4, 50208, Note_on_c, 1, 57, 75
4, 50218, Note_on_c, 1, 57, 0
4, 50232, Note_on_c, 1, 57, 75
4, 50242, Note_on_c, 1, 57, 0
4, 50256, Note_on_c, 1, 57, 75
4, 50266, Note_on_c, 1, 57, 0
4, 50280, Note_on_c, 1, 57, 75
4, 50290, Note_on_c, 1, 57, 0
4, 50304, Note_on_c, 1, 57, 75
4, 50328, Note_on_c, 1, 57, 0
4, 50328, Note_on_c, 1, 45, 75
4, 50351, Note_on_c, 1, 45, 0
4, 50352, Note_on_c, 1, 57, 75
4, 50362, Note_on_c, 1, 57, 0
4, 50376, Note_on_c, 1, 57, 75
4, 50386, Note_on_c, 1, 57, 0
4, 50400, Note_on_c, 1, 57, 75
4, 50410, Note_on_c, 1, 57, 0
4, 50424, Note_on_c, 1, 57, 75
4, 50434, Note_on_c, 1, 57, 0
4, 50448, Note_on_c, 1, 57, 75
4, 50458, Note_on_c, 1, 57, 0
4, 50472, Note_on_c, 1, 57, 75
4, 50482, Note_on_c, 1, 57, 0
4, 50496, Note_on_c, 1, 57, 75
4, 50506, Note_on_c, 1, 57, 0
4, 50520, Note_on_c, 1, 57, 75
4, 50530, Note_on_c, 1, 57, 0
4, 50544, Note_on_c, 1, 57, 75
4, 50554, Note_on_c, 1, 57, 0
4, 50568, Note_on_c, 1, 57, 75
4, 50578, Note_on_c, 1, 57, 0
4, 50592, Note_on_c, 1, 57, 75
4, 50602, Note_on_c, 1, 57, 0
4, 50616, Note_on_c, 1, 57, 75
4, 50626, Note_on_c, 1, 57, 0
4, 50640, Note_on_c, 1, 57, 75
4, 50650, Note_on_c, 1, 57, 0
4, 50664, Note_on_c, 1, 57, 75
4, 50674, Note_on_c, 1, 57, 0
4, 50688, Note_on_c, 1, 57, 75
4, 50712, Note_on_c, 1, 57, 0
4, 50712, Note_on_c, 1, 45, 75
4, 50735, Note_on_c, 1, 45, 0
4, 50736, Note_on_c, 1, 57, 75
4, 50746, Note_on_c, 1, 57, 0
4, 50760, Note_on_c, 1, 57, 75
4, 50770, Note_on_c, 1, 57, 0
4, 50784, Note_on_c, 1, 57, 75
4, 50829, Note_on_c, 1, 57, 0
4, 50928, Note_on_c, 1, 67, 61
4, 50928, Note_on_c, 1, 64, 61
4, 50928, Note_on_c, 1, 57, 61
4, 50948, Note_on_c, 1, 67, 0
4, 50948, Note_on_c, 1, 64, 0
4, 50948, Note_on_c, 1, 57, 0
4, 50976, Note_on_c, 1, 67, 61
4, 50976, Note_on_c, 1, 64, 61
4, 50976, Note_on_c, 1, 57, 61
4, 51023, Note_on_c, 1, 67, 0
4, 51023, Note_on_c, 1, 64, 0
4, 51023, Note_on_c, 1, 57, 0
4, 51120, Note_on_c, 1, 62, 61
4, 51120, Note_on_c, 1, 57, 61
4, 51120, Note_on_c, 1, 54, 61
4, 51140, Note_on_c, 1, 62, 0
4, 51140, Note_on_c, 1, 57, 0
4, 51140, Note_on_c, 1, 54, 0
4, 51168, Note_on_c, 1, 62, 61
4, 51168, Note_on_c, 1, 57, 61
4, 51168, Note_on_c, 1, 54, 61
4, 51215, Note_on_c, 1, 62, 0
4, 51215, Note_on_c, 1, 57, 0
4, 51215, Note_on_c, 1, 54, 0
4, 51312, Note_on_c, 1, 67, 61
4, 51312, Note_on_c, 1, 64, 61
4, 51312, Note_on_c, 1, 57, 61
4, 51332, Note_on_c, 1, 67, 0
4, 51332, Note_on_c, 1, 64, 0
4, 51332, Note_on_c, 1, 57, 0
4, 51360, Note_on_c, 1, 67, 61
4, 51360, Note_on_c, 1, 64, 61
4, 51360, Note_on_c, 1, 57, 61
4, 51407, Note_on_c, 1, 67, 0
4, 51407, Note_on_c, 1, 64, 0
4, 51407, Note_on_c, 1, 57, 0
4, 51456, Note_on_c, 1, 62, 75
4, 51456, Note_on_c, 1, 54, 75
4, 51501, Note_on_c, 1, 62, 0
4, 51501, Note_on_c, 1, 54, 0
4, 51552, Note_on_c, 1, 62, 75
4, 51552, Note_on_c, 1, 59, 75
4, 51552, Note_on_c, 1, 55, 75
4, 51597, Note_on_c, 1, 62, 0
4, 51597, Note_on_c, 1, 59, 0
4, 51597, Note_on_c, 1, 55, 0
4, 51648, Note_on_c, 1, 55, 75
4, 51648, Note_on_c, 1, 43, 75
4, 51693, Note_on_c, 1, 55, 0
4, 51693, Note_on_c, 1, 43, 0
4, 51744, Note_on_c, 1, 43, 75
4, 51744, Note_on_c, 1, 31, 75
4, 51789, Note_on_c, 1, 43, 0
4, 51789, Note_on_c, 1, 31, 0
4, 51888, Note_on_c, 1, 62, 75
4, 51977, Note_on_c, 1, 62, 0
4, 51984, Note_on_c, 1, 61, 75
4, 52029, Note_on_c, 1, 61, 0
4, 52032, Note_on_c, 1, 62, 61
4, 52047, Note_on_c, 1, 62, 0
4, 52048, Note_on_c, 1, 66, 61
4, 52063, Note_on_c, 1, 66, 0
4, 52064, Note_on_c, 1, 69, 61
4, 52079, Note_on_c, 1, 69, 0
4, 52080, Note_on_c, 1, 62, 61
4, 52095, Note_on_c, 1, 62, 0
4, 52096, Note_on_c, 1, 66, 61
4, 52111, Note_on_c, 1, 66, 0
4, 52112, Note_on_c, 1, 69, 61
4, 52127, Note_on_c, 1, 69, 0
4, 52128, Note_on_c, 1, 61, 61
4, 52143, Note_on_c, 1, 61, 0
4, 52144, Note_on_c, 1, 64, 61
4, 52159, Note_on_c, 1, 64, 0
4, 52160, Note_on_c, 1, 69, 61
4, 52175, Note_on_c, 1, 69, 0
4, 52176, Note_on_c, 1, 61, 61
4, 52191, Note_on_c, 1, 61, 0
4, 52192, Note_on_c, 1, 64, 61
4, 52207, Note_on_c, 1, 64, 0
4, 52208, Note_on_c, 1, 69, 61
4, 52223, Note_on_c, 1, 69, 0
4, 52224, Note_on_c, 1, 62, 61
4, 52239, Note_on_c, 1, 62, 0
4, 52240, Note_on_c, 1, 66, 61
4, 52255, Note_on_c, 1, 66, 0
4, 52256, Note_on_c, 1, 69, 61
4, 52271, Note_on_c, 1, 69, 0
4, 52272, Note_on_c, 1, 62, 61
4, 52287, Note_on_c, 1, 62, 0
4, 52288, Note_on_c, 1, 66, 61
4, 52303, Note_on_c, 1, 66, 0
4, 52304, Note_on_c, 1, 69, 61
4, 52319, Note_on_c, 1, 69, 0
4, 52320, Note_on_c, 1, 64, 61
4, 52335, Note_on_c, 1, 64, 0
4, 52336, Note_on_c, 1, 67, 61
4, 52351, Note_on_c, 1, 67, 0
4, 52352, Note_on_c, 1, 69, 61
4, 52367, Note_on_c, 1, 69, 0
4, 52368, Note_on_c, 1, 64, 61
4, 52383, Note_on_c, 1, 64, 0
4, 52384, Note_on_c, 1, 67, 61
4, 52399, Note_on_c, 1, 67, 0
4, 52400, Note_on_c, 1, 69, 61
4, 52415, Note_on_c, 1, 69, 0
4, 52416, Note_on_c, 1, 62, 61
4, 52431, Note_on_c, 1, 62, 0
4, 52432, Note_on_c, 1, 66, 61
4, 52447, Note_on_c, 1, 66, 0
4, 52448, Note_on_c, 1, 69, 61
4, 52463, Note_on_c, 1, 69, 0
4, 52464, Note_on_c, 1, 62, 61
4, 52479, Note_on_c, 1, 62, 0
4, 52480, Note_on_c, 1, 66, 61
4, 52495, Note_on_c, 1, 66, 0
4, 52496, Note_on_c, 1, 69, 61
4, 52511, Note_on_c, 1, 69, 0
4, 52512, Note_on_c, 1, 61, 61
4, 52527, Note_on_c, 1, 61, 0
4, 52528, Note_on_c, 1, 64, 61
4, 52543, Note_on_c, 1, 64, 0
4, 52544, Note_on_c, 1, 69, 61
4, 52559, Note_on_c, 1, 69, 0
4, 52560, Note_on_c, 1, 61, 61
4, 52575, Note_on_c, 1, 61, 0
4, 52576, Note_on_c, 1, 64, 61
4, 52591, Note_on_c, 1, 64, 0
4, 52592, Note_on_c, 1, 69, 61
4, 52607, Note_on_c, 1, 69, 0
4, 52608, Note_on_c, 1, 62, 61
4, 52623, Note_on_c, 1, 62, 0
4, 52624, Note_on_c, 1, 66, 61
4, 52639, Note_on_c, 1, 66, 0
4, 52640, Note_on_c, 1, 69, 61
4, 52655, Note_on_c, 1, 69, 0
4, 52656, Note_on_c, 1, 62, 61
4, 52671, Note_on_c, 1, 62, 0
4, 52672, Note_on_c, 1, 66, 61
4, 52687, Note_on_c, 1, 66, 0
4, 52688, Note_on_c, 1, 69, 61
4, 52703, Note_on_c, 1, 69, 0
4, 52704, Note_on_c, 1, 64, 61
4, 52719, Note_on_c, 1, 64, 0
4, 52720, Note_on_c, 1, 67, 61
4, 52735, Note_on_c, 1, 67, 0
4, 52736, Note_on_c, 1, 69, 61
4, 52751, Note_on_c, 1, 69, 0
4, 52752, Note_on_c, 1, 64, 61
4, 52767, Note_on_c, 1, 64, 0
4, 52768, Note_on_c, 1, 67, 61
4, 52783, Note_on_c, 1, 67, 0
4, 52784, Note_on_c, 1, 69, 61
4, 52799, Note_on_c, 1, 69, 0
4, 52800, Note_on_c, 1, 62, 61
4, 52815, Note_on_c, 1, 62, 0
4, 52816, Note_on_c, 1, 66, 61
4, 52831, Note_on_c, 1, 66, 0
4, 52832, Note_on_c, 1, 69, 61
4, 52847, Note_on_c, 1, 69, 0
4, 52848, Note_on_c, 1, 62, 61
4, 52863, Note_on_c, 1, 62, 0
4, 52864, Note_on_c, 1, 66, 61
4, 52879, Note_on_c, 1, 66, 0
4, 52880, Note_on_c, 1, 69, 61
4, 52895, Note_on_c, 1, 69, 0
4, 52896, Note_on_c, 1, 61, 61
4, 52911, Note_on_c, 1, 61, 0
4, 52912, Note_on_c, 1, 64, 61
4, 52927, Note_on_c, 1, 64, 0
4, 52928, Note_on_c, 1, 69, 61
4, 52943, Note_on_c, 1, 69, 0
4, 52944, Note_on_c, 1, 61, 61
4, 52959, Note_on_c, 1, 61, 0
4, 52960, Note_on_c, 1, 64, 61
4, 52975, Note_on_c, 1, 64, 0
4, 52976, Note_on_c, 1, 69, 61
4, 52991, Note_on_c, 1, 69, 0
4, 52992, Note_on_c, 1, 62, 61
4, 53007, Note_on_c, 1, 62, 0
4, 53008, Note_on_c, 1, 66, 61
4, 53023, Note_on_c, 1, 66, 0
4, 53024, Note_on_c, 1, 69, 61
4, 53039, Note_on_c, 1, 69, 0
4, 53040, Note_on_c, 1, 62, 61
4, 53055, Note_on_c, 1, 62, 0
4, 53056, Note_on_c, 1, 66, 61
4, 53071, Note_on_c, 1, 66, 0
4, 53072, Note_on_c, 1, 69, 61
4, 53087, Note_on_c, 1, 69, 0
4, 53088, Note_on_c, 1, 57, 61
4, 53103, Note_on_c, 1, 57, 0
4, 53104, Note_on_c, 1, 64, 61
4, 53119, Note_on_c, 1, 64, 0
4, 53120, Note_on_c, 1, 69, 61
4, 53135, Note_on_c, 1, 69, 0
4, 53136, Note_on_c, 1, 57, 61
4, 53151, Note_on_c, 1, 57, 0
4, 53152, Note_on_c, 1, 64, 61
4, 53167, Note_on_c, 1, 64, 0
4, 53168, Note_on_c, 1, 69, 61
4, 53183, Note_on_c, 1, 69, 0
4, 53184, Note_on_c, 1, 62, 61
4, 53199, Note_on_c, 1, 62, 0
4, 53200, Note_on_c, 1, 66, 61
4, 53215, Note_on_c, 1, 66, 0
4, 53216, Note_on_c, 1, 69, 61
4, 53231, Note_on_c, 1, 69, 0
4, 53232, Note_on_c, 1, 62, 61
4, 53247, Note_on_c, 1, 62, 0
4, 53248, Note_on_c, 1, 66, 61
4, 53263, Note_on_c, 1, 66, 0
4, 53264, Note_on_c, 1, 69, 61
4, 53279, Note_on_c, 1, 69, 0
4, 53280, Note_on_c, 1, 61, 61
4, 53295, Note_on_c, 1, 61, 0
4, 53296, Note_on_c, 1, 64, 61
4, 53311, Note_on_c, 1, 64, 0
4, 53312, Note_on_c, 1, 69, 61
4, 53327, Note_on_c, 1, 69, 0
4, 53328, Note_on_c, 1, 61, 61
4, 53343, Note_on_c, 1, 61, 0
4, 53344, Note_on_c, 1, 64, 61
4, 53359, Note_on_c, 1, 64, 0
4, 53360, Note_on_c, 1, 69, 61
4, 53375, Note_on_c, 1, 69, 0
4, 53376, Note_on_c, 1, 62, 61
4, 53391, Note_on_c, 1, 62, 0
4, 53392, Note_on_c, 1, 66, 61
4, 53407, Note_on_c, 1, 66, 0
4, 53408, Note_on_c, 1, 69, 61
4, 53423, Note_on_c, 1, 69, 0
4, 53424, Note_on_c, 1, 62, 61
4, 53439, Note_on_c, 1, 62, 0
4, 53440, Note_on_c, 1, 66, 61
4, 53455, Note_on_c, 1, 66, 0
4, 53456, Note_on_c, 1, 69, 61
4, 53471, Note_on_c, 1, 69, 0
4, 53472, Note_on_c, 1, 57, 61
4, 53487, Note_on_c, 1, 57, 0
4, 53488, Note_on_c, 1, 64, 61
4, 53503, Note_on_c, 1, 64, 0
4, 53504, Note_on_c, 1, 69, 61
4, 53519, Note_on_c, 1, 69, 0
4, 53520, Note_on_c, 1, 57, 61
4, 53535, Note_on_c, 1, 57, 0
4, 53536, Note_on_c, 1, 64, 61
4, 53551, Note_on_c, 1, 64, 0
4, 53552, Note_on_c, 1, 69, 61
4, 53567, Note_on_c, 1, 69, 0
4, 53568, Note_on_c, 1, 62, 61
4, 53583, Note_on_c, 1, 62, 0
4, 53584, Note_on_c, 1, 66, 61
4, 53599, Note_on_c, 1, 66, 0
4, 53600, Note_on_c, 1, 69, 61
4, 53615, Note_on_c, 1, 69, 0
4, 53616, Note_on_c, 1, 62, 61
4, 53631, Note_on_c, 1, 62, 0
4, 53632, Note_on_c, 1, 66, 61
4, 53647, Note_on_c, 1, 66, 0
4, 53648, Note_on_c, 1, 69, 61
4, 53663, Note_on_c, 1, 69, 0
4, 53664, Note_on_c, 1, 61, 61
4, 53679, Note_on_c, 1, 61, 0
4, 53680, Note_on_c, 1, 64, 61
4, 53695, Note_on_c, 1, 64, 0
4, 53696, Note_on_c, 1, 69, 61
4, 53711, Note_on_c, 1, 69, 0
4, 53712, Note_on_c, 1, 61, 61
4, 53727, Note_on_c, 1, 61, 0
4, 53728, Note_on_c, 1, 64, 61
4, 53743, Note_on_c, 1, 64, 0
4, 53744, Note_on_c, 1, 69, 61
4, 53759, Note_on_c, 1, 69, 0
4, 53760, Note_on_c, 1, 62, 75
4, 53805, Note_on_c, 1, 62, 0
4, 53856, Note_on_c, 1, 66, 75
4, 53901, Note_on_c, 1, 66, 0
4, 53952, Note_on_c, 1, 67, 75
4, 53997, Note_on_c, 1, 67, 0
4, 54048, Note_on_c, 1, 55, 75
4, 54093, Note_on_c, 1, 55, 0
4, 54144, Note_on_c, 1, 54, 61
4, 54159, Note_on_c, 1, 54, 0
4, 54160, Note_on_c, 1, 57, 61
4, 54175, Note_on_c, 1, 57, 0
4, 54176, Note_on_c, 1, 62, 61
4, 54191, Note_on_c, 1, 62, 0
4, 54192, Note_on_c, 1, 54, 61
4, 54207, Note_on_c, 1, 54, 0
4, 54208, Note_on_c, 1, 57, 61
4, 54223, Note_on_c, 1, 57, 0
4, 54224, Note_on_c, 1, 62, 61
4, 54239, Note_on_c, 1, 62, 0
4, 54240, Note_on_c, 1, 55, 61
4, 54255, Note_on_c, 1, 55, 0
4, 54256, Note_on_c, 1, 59, 61
4, 54271, Note_on_c, 1, 59, 0
4, 54272, Note_on_c, 1, 64, 61
4, 54287, Note_on_c, 1, 64, 0
4, 54288, Note_on_c, 1, 57, 61
4, 54303, Note_on_c, 1, 57, 0
4, 54304, Note_on_c, 1, 64, 61
4, 54319, Note_on_c, 1, 64, 0
4, 54320, Note_on_c, 1, 67, 61
4, 54335, Note_on_c, 1, 67, 0
4, 54336, Note_on_c, 1, 66, 75
4, 54336, Note_on_c, 1, 62, 75
4, 54381, Note_on_c, 1, 66, 0
4, 54381, Note_on_c, 1, 62, 0
4, 54432, Note_on_c, 1, 55, 75
4, 54477, Note_on_c, 1, 55, 0
4, 54528, Note_on_c, 1, 55, 75
4, 54528, Note_on_c, 1, 43, 75
4, 54573, Note_on_c, 1, 55, 0
4, 54573, Note_on_c, 1, 43, 0
4, 54624, Note_on_c, 1, 43, 75
4, 54624, Note_on_c, 1, 31, 75
4, 54669, Note_on_c, 1, 43, 0
4, 54669, Note_on_c, 1, 31, 0
4, 54720, Note_on_c, 1, 42, 61
4, 54735, Note_on_c, 1, 42, 0
4, 54736, Note_on_c, 1, 45, 61
4, 54751, Note_on_c, 1, 45, 0
4, 54752, Note_on_c, 1, 50, 61
4, 54767, Note_on_c, 1, 50, 0
4, 54768, Note_on_c, 1, 42, 61
4, 54783, Note_on_c, 1, 42, 0
4, 54784, Note_on_c, 1, 45, 61
4, 54799, Note_on_c, 1, 45, 0
4, 54800, Note_on_c, 1, 50, 61
4, 54815, Note_on_c, 1, 50, 0
4, 54816, Note_on_c, 1, 43, 61
4, 54831, Note_on_c, 1, 43, 0
4, 54832, Note_on_c, 1, 47, 61
4, 54847, Note_on_c, 1, 47, 0
4, 54848, Note_on_c, 1, 52, 61
4, 54863, Note_on_c, 1, 52, 0
4, 54864, Note_on_c, 1, 45, 61
4, 54879, Note_on_c, 1, 45, 0
4, 54880, Note_on_c, 1, 47, 61
4, 54895, Note_on_c, 1, 47, 0
4, 54896, Note_on_c, 1, 52, 61
4, 54911, Note_on_c, 1, 52, 0
4, 54912, Note_on_c, 1, 50, 53
4, 54927, Note_on_c, 1, 50, 0
4, 54928, Note_on_c, 1, 54, 53
4, 54943, Note_on_c, 1, 54, 0
4, 54944, Note_on_c, 1, 57, 53
4, 54959, Note_on_c, 1, 57, 0
4, 54960, Note_on_c, 1, 50, 53
4, 54975, Note_on_c, 1, 50, 0
4, 54976, Note_on_c, 1, 54, 53
4, 54991, Note_on_c, 1, 54, 0
4, 54992, Note_on_c, 1, 57, 53
4, 55007, Note_on_c, 1, 57, 0
4, 55008, Note_on_c, 1, 45, 53
4, 55023, Note_on_c, 1, 45, 0
4, 55024, Note_on_c, 1, 52, 53
4, 55039, Note_on_c, 1, 52, 0
4, 55040, Note_on_c, 1, 57, 53
4, 55055, Note_on_c, 1, 57, 0
4, 55056, Note_on_c, 1, 45, 53
4, 55071, Note_on_c, 1, 45, 0
4, 55072, Note_on_c, 1, 52, 53
4, 55087, Note_on_c, 1, 52, 0
4, 55088, Note_on_c, 1, 57, 53
4, 55103, Note_on_c, 1, 57, 0
4, 55104, Note_on_c, 1, 50, 53
4, 55119, Note_on_c, 1, 50, 0
4, 55120, Note_on_c, 1, 54, 53
4, 55135, Note_on_c, 1, 54, 0
4, 55136, Note_on_c, 1, 57, 53
4, 55151, Note_on_c, 1, 57, 0
4, 55152, Note_on_c, 1, 50, 53
4, 55167, Note_on_c, 1, 50, 0
4, 55168, Note_on_c, 1, 54, 53
4, 55183, Note_on_c, 1, 54, 0
4, 55184, Note_on_c, 1, 57, 53
4, 55199, Note_on_c, 1, 57, 0
4, 55200, Note_on_c, 1, 45, 53
4, 55215, Note_on_c, 1, 45, 0
4, 55216, Note_on_c, 1, 52, 53
4, 55231, Note_on_c, 1, 52, 0
4, 55232, Note_on_c, 1, 57, 53
4, 55247, Note_on_c, 1, 57, 0
4, 55248, Note_on_c, 1, 45, 53
4, 55263, Note_on_c, 1, 45, 0
4, 55264, Note_on_c, 1, 52, 53
4, 55279, Note_on_c, 1, 52, 0
4, 55280, Note_on_c, 1, 57, 53
4, 55295, Note_on_c, 1, 57, 0
4, 55296, Note_on_c, 1, 50, 53
4, 55311, Note_on_c, 1, 50, 0
4, 55312, Note_on_c, 1, 54, 53
4, 55327, Note_on_c, 1, 54, 0
4, 55328, Note_on_c, 1, 57, 53
4, 55343, Note_on_c, 1, 57, 0
4, 55344, Note_on_c, 1, 50, 53
4, 55359, Note_on_c, 1, 50, 0
4, 55360, Note_on_c, 1, 54, 53
4, 55375, Note_on_c, 1, 54, 0
4, 55376, Note_on_c, 1, 57, 53
4, 55391, Note_on_c, 1, 57, 0
4, 55392, Note_on_c, 1, 50, 53
4, 55407, Note_on_c, 1, 50, 0
4, 55408, Note_on_c, 1, 54, 53
4, 55423, Note_on_c, 1, 54, 0
4, 55424, Note_on_c, 1, 57, 53
4, 55439, Note_on_c, 1, 57, 0
4, 55440, Note_on_c, 1, 50, 53
4, 55455, Note_on_c, 1, 50, 0
4, 55456, Note_on_c, 1, 54, 53
4, 55471, Note_on_c, 1, 54, 0
4, 55472, Note_on_c, 1, 57, 53
4, 55487, Note_on_c, 1, 57, 0
4, 55488, Note_on_c, 1, 50, 53
4, 55621, Note_on_c, 1, 50, 0
4, 55728, Note_on_c, 1, 45, 76
4, 55773, Note_on_c, 1, 45, 0
4, 55776, Note_on_c, 1, 57, 78
4, 55821, Note_on_c, 1, 57, 0
4, 55824, Note_on_c, 1, 56, 80
4, 55869, Note_on_c, 1, 56, 0
4, 55872, Note_on_c, 1, 57, 82
4, 55917, Note_on_c, 1, 57, 0
4, 55920, Note_on_c, 1, 62, 84
4, 55965, Note_on_c, 1, 62, 0
4, 55968, Note_on_c, 1, 61, 81
4, 56013, Note_on_c, 1, 61, 0
4, 56016, Note_on_c, 1, 56, 78
4, 56061, Note_on_c, 1, 56, 0
4, 56112, Note_on_c, 1, 45, 76
4, 56157, Note_on_c, 1, 45, 0
4, 56160, Note_on_c, 1, 57, 78
4, 56205, Note_on_c, 1, 57, 0
4, 56208, Note_on_c, 1, 56, 80
4, 56253, Note_on_c, 1, 56, 0
4, 56256, Note_on_c, 1, 57, 82
4, 56301, Note_on_c, 1, 57, 0
4, 56304, Note_on_c, 1, 62, 84
4, 56349, Note_on_c, 1, 62, 0
4, 56352, Note_on_c, 1, 61, 81
4, 56397, Note_on_c, 1, 61, 0
4, 56400, Note_on_c, 1, 56, 78
4, 56445, Note_on_c, 1, 56, 0
4, 56448, Note_on_c, 1, 57, 75
4, 56493, Note_on_c, 1, 57, 0
4, 56496, Note_on_c, 1, 59, 78
4, 56541, Note_on_c, 1, 59, 0
4, 56544, Note_on_c, 1, 61, 81
4, 56589, Note_on_c, 1, 61, 0
4, 56640, Note_on_c, 1, 57, 75
4, 56685, Note_on_c, 1, 57, 0
4, 56688, Note_on_c, 1, 59, 78
4, 56733, Note_on_c, 1, 59, 0
4, 56736, Note_on_c, 1, 61, 81
4, 56781, Note_on_c, 1, 61, 0
4, 56880, Note_on_c, 1, 52, 69
4, 56880, Note_on_c, 1, 49, 69
4, 56925, Note_on_c, 1, 52, 0
4, 56925, Note_on_c, 1, 49, 0
4, 56928, Note_on_c, 1, 52, 69
4, 56928, Note_on_c, 1, 49, 69
4, 56973, Note_on_c, 1, 52, 0
4, 56973, Note_on_c, 1, 49, 0
4, 56976, Note_on_c, 1, 52, 69
4, 56976, Note_on_c, 1, 49, 69
4, 57021, Note_on_c, 1, 52, 0
4, 57021, Note_on_c, 1, 49, 0
4, 57072, Note_on_c, 1, 54, 69
4, 57072, Note_on_c, 1, 50, 69
4, 57117, Note_on_c, 1, 54, 0
4, 57117, Note_on_c, 1, 50, 0
4, 57120, Note_on_c, 1, 54, 69
4, 57120, Note_on_c, 1, 50, 69
4, 57165, Note_on_c, 1, 54, 0
4, 57165, Note_on_c, 1, 50, 0
4, 57168, Note_on_c, 1, 54, 69
4, 57168, Note_on_c, 1, 50, 69
4, 57213, Note_on_c, 1, 54, 0
4, 57213, Note_on_c, 1, 50, 0
4, 57264, Note_on_c, 1, 56, 69
4, 57264, Note_on_c, 1, 52, 69
4, 57309, Note_on_c, 1, 56, 0
4, 57309, Note_on_c, 1, 52, 0
4, 57312, Note_on_c, 1, 56, 69
4, 57312, Note_on_c, 1, 52, 69
4, 57357, Note_on_c, 1, 56, 0
4, 57357, Note_on_c, 1, 52, 0
4, 57360, Note_on_c, 1, 56, 69
4, 57360, Note_on_c, 1, 52, 69
4, 57405, Note_on_c, 1, 56, 0
4, 57405, Note_on_c, 1, 52, 0
4, 57408, Note_on_c, 1, 57, 75
4, 57432, Note_on_c, 1, 57, 0
4, 57432, Note_on_c, 1, 45, 75
4, 57455, Note_on_c, 1, 45, 0
4, 57456, Note_on_c, 1, 57, 75
4, 57466, Note_on_c, 1, 57, 0
4, 57480, Note_on_c, 1, 57, 75
4, 57490, Note_on_c, 1, 57, 0
4, 57504, Note_on_c, 1, 57, 75
4, 57514, Note_on_c, 1, 57, 0
4, 57528, Note_on_c, 1, 57, 75
4, 57538, Note_on_c, 1, 57, 0
4, 57552, Note_on_c, 1, 57, 75
4, 57562, Note_on_c, 1, 57, 0
4, 57576, Note_on_c, 1, 57, 75
4, 57586, Note_on_c, 1, 57, 0
4, 57600, Note_on_c, 1, 57, 75
4, 57689, Note_on_c, 1, 57, 0
4, 57792, Note_on_c, 1, 60, 75
4, 57815, Note_on_c, 1, 60, 0
4, 57816, Note_on_c, 1, 48, 75
4, 57839, Note_on_c, 1, 48, 0
4, 57840, Note_on_c, 1, 59, 75
4, 57863, Note_on_c, 1, 59, 0
4, 57864, Note_on_c, 1, 47, 75
4, 57887, Note_on_c, 1, 47, 0
4, 57888, Note_on_c, 1, 57, 75
4, 57911, Note_on_c, 1, 57, 0
4, 57912, Note_on_c, 1, 45, 75
4, 57935, Note_on_c, 1, 45, 0
4, 57936, Note_on_c, 1, 58, 75
4, 57959, Note_on_c, 1, 58, 0
4, 57960, Note_on_c, 1, 46, 75
4, 57983, Note_on_c, 1, 46, 0
4, 57984, Note_on_c, 1, 59, 75
4, 58008, Note_on_c, 1, 59, 0
4, 58008, Note_on_c, 1, 47, 75
4, 58031, Note_on_c, 1, 47, 0
4, 58032, Note_on_c, 1, 59, 75
4, 58042, Note_on_c, 1, 59, 0
4, 58056, Note_on_c, 1, 59, 75
4, 58066, Note_on_c, 1, 59, 0
4, 58080, Note_on_c, 1, 59, 75
4, 58090, Note_on_c, 1, 59, 0
4, 58104, Note_on_c, 1, 59, 75
4, 58114, Note_on_c, 1, 59, 0
4, 58128, Note_on_c, 1, 59, 75
4, 58138, Note_on_c, 1, 59, 0
4, 58152, Note_on_c, 1, 59, 75
4, 58162, Note_on_c, 1, 59, 0
4, 58176, Note_on_c, 1, 59, 75
4, 58186, Note_on_c, 1, 59, 0
4, 58200, Note_on_c, 1, 59, 75
4, 58210, Note_on_c, 1, 59, 0
4, 58224, Note_on_c, 1, 59, 75
4, 58234, Note_on_c, 1, 59, 0
4, 58248, Note_on_c, 1, 59, 75
4, 58258, Note_on_c, 1, 59, 0
4, 58272, Note_on_c, 1, 59, 75
4, 58282, Note_on_c, 1, 59, 0
4, 58296, Note_on_c, 1, 59, 75
4, 58306, Note_on_c, 1, 59, 0
4, 58320, Note_on_c, 1, 59, 75
4, 58330, Note_on_c, 1, 59, 0
4, 58344, Note_on_c, 1, 59, 75
4, 58354, Note_on_c, 1, 59, 0
4, 58368, Note_on_c, 1, 59, 75
4, 58392, Note_on_c, 1, 59, 0
4, 58392, Note_on_c, 1, 47, 75
4, 58415, Note_on_c, 1, 47, 0
4, 58416, Note_on_c, 1, 59, 75
4, 58426, Note_on_c, 1, 59, 0
4, 58440, Note_on_c, 1, 59, 75
4, 58450, Note_on_c, 1, 59, 0
4, 58464, Note_on_c, 1, 59, 75
4, 58474, Note_on_c, 1, 59, 0
4, 58488, Note_on_c, 1, 59, 75
4, 58498, Note_on_c, 1, 59, 0
4, 58512, Note_on_c, 1, 59, 75
4, 58522, Note_on_c, 1, 59, 0
4, 58536, Note_on_c, 1, 59, 75
4, 58546, Note_on_c, 1, 59, 0
4, 58560, Note_on_c, 1, 59, 75
4, 58570, Note_on_c, 1, 59, 0
4, 58584, Note_on_c, 1, 59, 75
4, 58594, Note_on_c, 1, 59, 0
4, 58608, Note_on_c, 1, 59, 75
4, 58618, Note_on_c, 1, 59, 0
4, 58632, Note_on_c, 1, 59, 75
4, 58642, Note_on_c, 1, 59, 0
4, 58656, Note_on_c, 1, 59, 75
4, 58666, Note_on_c, 1, 59, 0
4, 58680, Note_on_c, 1, 59, 75
4, 58690, Note_on_c, 1, 59, 0
4, 58704, Note_on_c, 1, 59, 75
4, 58714, Note_on_c, 1, 59, 0
4, 58728, Note_on_c, 1, 59, 75
4, 58738, Note_on_c, 1, 59, 0
4, 58752, Note_on_c, 1, 59, 75
4, 58776, Note_on_c, 1, 59, 0
4, 58776, Note_on_c, 1, 47, 75
4, 58799, Note_on_c, 1, 47, 0
4, 58800, Note_on_c, 1, 59, 75
4, 58810, Note_on_c, 1, 59, 0
4, 58824, Note_on_c, 1, 59, 75
4, 58834, Note_on_c, 1, 59, 0
4, 58848, Note_on_c, 1, 59, 75
4, 58858, Note_on_c, 1, 59, 0
4, 58872, Note_on_c, 1, 59, 75
4, 58882, Note_on_c, 1, 59, 0
4, 58896, Note_on_c, 1, 59, 75
4, 58906, Note_on_c, 1, 59, 0
4, 58920, Note_on_c, 1, 59, 75
4, 58930, Note_on_c, 1, 59, 0
4, 58944, Note_on_c, 1, 59, 75
4, 58954, Note_on_c, 1, 59, 0
4, 58968, Note_on_c, 1, 59, 75
4, 58978, Note_on_c, 1, 59, 0
4, 58992, Note_on_c, 1, 59, 75
4, 59002, Note_on_c, 1, 59, 0
4, 59016, Note_on_c, 1, 59, 75
4, 59026, Note_on_c, 1, 59, 0
4, 59040, Note_on_c, 1, 59, 75
4, 59050, Note_on_c, 1, 59, 0
4, 59064, Note_on_c, 1, 59, 75
4, 59074, Note_on_c, 1, 59, 0
4, 59088, Note_on_c, 1, 59, 75
4, 59098, Note_on_c, 1, 59, 0
4, 59112, Note_on_c, 1, 59, 75
4, 59122, Note_on_c, 1, 59, 0
4, 59136, Note_on_c, 1, 59, 75
4, 59160, Note_on_c, 1, 59, 0
4, 59160, Note_on_c, 1, 47, 75
4, 59183, Note_on_c, 1, 47, 0
4, 59184, Note_on_c, 1, 59, 75
4, 59194, Note_on_c, 1, 59, 0
4, 59208, Note_on_c, 1, 59, 75
4, 59218, Note_on_c, 1, 59, 0
4, 59232, Note_on_c, 1, 59, 75
4, 59242, Note_on_c, 1, 59, 0
4, 59256, Note_on_c, 1, 59, 75
4, 59266, Note_on_c, 1, 59, 0
4, 59280, Note_on_c, 1, 59, 75
4, 59290, Note_on_c, 1, 59, 0
4, 59304, Note_on_c, 1, 59, 75
4, 59314, Note_on_c, 1, 59, 0
4, 59328, Note_on_c, 1, 59, 75
4, 59338, Note_on_c, 1, 59, 0
4, 59352, Note_on_c, 1, 59, 75
4, 59362, Note_on_c, 1, 59, 0
4, 59376, Note_on_c, 1, 59, 75
4, 59386, Note_on_c, 1, 59, 0
4, 59400, Note_on_c, 1, 59, 75
4, 59410, Note_on_c, 1, 59, 0
4, 59424, Note_on_c, 1, 59, 75
4, 59434, Note_on_c, 1, 59, 0
4, 59448, Note_on_c, 1, 59, 75
4, 59458, Note_on_c, 1, 59, 0
4, 59472, Note_on_c, 1, 59, 75
4, 59482, Note_on_c, 1, 59, 0
4, 59496, Note_on_c, 1, 59, 75
4, 59506, Note_on_c, 1, 59, 0
4, 59520, Note_on_c, 1, 59, 75
4, 59544, Note_on_c, 1, 59, 0
4, 59544, Note_on_c, 1, 47, 75
4, 59567, Note_on_c, 1, 47, 0
4, 59568, Note_on_c, 1, 59, 75
4, 59578, Note_on_c, 1, 59, 0
4, 59592, Note_on_c, 1, 59, 75
4, 59602, Note_on_c, 1, 59, 0
4, 59616, Note_on_c, 1, 59, 75
4, 59626, Note_on_c, 1, 59, 0
4, 59640, Note_on_c, 1, 59, 75
4, 59650, Note_on_c, 1, 59, 0
4, 59664, Note_on_c, 1, 59, 75
4, 59674, Note_on_c, 1, 59, 0
4, 59688, Note_on_c, 1, 59, 75
4, 59698, Note_on_c, 1, 59, 0
4, 59712, Note_on_c, 1, 59, 75
4, 59801, Note_on_c, 1, 59, 0
4, 59808, Note_on_c, 1, 60, 69
4, 59808, Note_on_c, 1, 57, 69
4, 59897, Note_on_c, 1, 60, 0
4, 59897, Note_on_c, 1, 57, 0
4, 59904, Note_on_c, 1, 59, 69
4, 59904, Note_on_c, 1, 55, 69
4, 59993, Note_on_c, 1, 59, 0
4, 59993, Note_on_c, 1, 55, 0
4, 60000, Note_on_c, 1, 59, 69
4, 60000, Note_on_c, 1, 54, 69
4, 60000, Note_on_c, 1, 51, 69
4, 60089, Note_on_c, 1, 59, 0
4, 60089, Note_on_c, 1, 54, 0
4, 60089, Note_on_c, 1, 51, 0
4, 60096, Note_on_c, 1, 59, 72
4, 60096, Note_on_c, 1, 55, 72
4, 60096, Note_on_c, 1, 52, 72
4, 60185, Note_on_c, 1, 59, 0
4, 60185, Note_on_c, 1, 55, 0
4, 60185, Note_on_c, 1, 52, 0
4, 60192, Note_on_c, 1, 52, 76
4, 60192, Note_on_c, 1, 49, 76
4, 60281, Note_on_c, 1, 52, 0
4, 60281, Note_on_c, 1, 49, 0
4, 60288, Note_on_c, 1, 54, 79
4, 60288, Note_on_c, 1, 50, 79
4, 60288, Note_on_c, 1, 47, 79
4, 60377, Note_on_c, 1, 54, 0
4, 60377, Note_on_c, 1, 50, 0
4, 60377, Note_on_c, 1, 47, 0
4, 60384, Note_on_c, 1, 54, 83
4, 60384, Note_on_c, 1, 49, 83
4, 60384, Note_on_c, 1, 46, 83
4, 60473, Note_on_c, 1, 54, 0
4, 60473, Note_on_c, 1, 49, 0
4, 60473, Note_on_c, 1, 46, 0
4, 60480, Note_on_c, 1, 54, 86
4, 60480, Note_on_c, 1, 50, 86
4, 60480, Note_on_c, 1, 47, 86
4, 60569, Note_on_c, 1, 54, 0
4, 60569, Note_on_c, 1, 50, 0
4, 60569, Note_on_c, 1, 47, 0
4, 60576, Note_on_c, 1, 55, 90
4, 60576, Note_on_c, 1, 43, 90
4, 60665, Note_on_c, 1, 55, 0
4, 60665, Note_on_c, 1, 43, 0
4, 60672, Note_on_c, 1, 54, 90
4, 60672, Note_on_c, 1, 42, 90
4, 60761, Note_on_c, 1, 54, 0
4, 60761, Note_on_c, 1, 42, 0
4, 60768, Note_on_c, 1, 53, 90
4, 60768, Note_on_c, 1, 41, 90
4, 60857, Note_on_c, 1, 53, 0
4, 60857, Note_on_c, 1, 41, 0
4, 60864, Note_on_c, 1, 54, 90
4, 60864, Note_on_c, 1, 42, 90
4, 61233, Note_on_c, 1, 54, 0
4, 61233, Note_on_c, 1, 42, 0
4, 61248, Note_on_c, 1, 55, 75
4, 61272, Note_on_c, 1, 55, 0
4, 61272, Note_on_c, 1, 43, 75
4, 61295, Note_on_c, 1, 43, 0
4, 61296, Note_on_c, 1, 55, 75
4, 61306, Note_on_c, 1, 55, 0
4, 61320, Note_on_c, 1, 55, 75
4, 61330, Note_on_c, 1, 55, 0
4, 61344, Note_on_c, 1, 55, 75
4, 61389, Note_on_c, 1, 55, 0
4, 61440, Note_on_c, 1, 55, 75
4, 61464, Note_on_c, 1, 55, 0
4, 61464, Note_on_c, 1, 43, 75
4, 61487, Note_on_c, 1, 43, 0
4, 61488, Note_on_c, 1, 55, 75
4, 61498, Note_on_c, 1, 55, 0
4, 61512, Note_on_c, 1, 55, 75
4, 61522, Note_on_c, 1, 55, 0
4, 61536, Note_on_c, 1, 55, 75
4, 61581, Note_on_c, 1, 55, 0
4, 61632, Note_on_c, 1, 54, 75
4, 61656, Note_on_c, 1, 54, 0
4, 61656, Note_on_c, 1, 42, 75
4, 61679, Note_on_c, 1, 42, 0
4, 61680, Note_on_c, 1, 54, 75
4, 61690, Note_on_c, 1, 54, 0
4, 61704, Note_on_c, 1, 54, 75
4, 61714, Note_on_c, 1, 54, 0
4, 61728, Note_on_c, 1, 54, 75
4, 61773, Note_on_c, 1, 54, 0
4, 61824, Note_on_c, 1, 59, 75
4, 61848, Note_on_c, 1, 59, 0
4, 61848, Note_on_c, 1, 47, 75
4, 61871, Note_on_c, 1, 47, 0
4, 61872, Note_on_c, 1, 59, 75
4, 61882, Note_on_c, 1, 59, 0
4, 61896, Note_on_c, 1, 59, 75
4, 61906, Note_on_c, 1, 59, 0
4, 61920, Note_on_c, 1, 59, 75
4, 61965, Note_on_c, 1, 59, 0
4, 62016, Note_on_c, 1, 61, 75
4, 62040, Note_on_c, 1, 61, 0
4, 62040, Note_on_c, 1, 49, 75
4, 62063, Note_on_c, 1, 49, 0
4, 62064, Note_on_c, 1, 61, 75
4, 62074, Note_on_c, 1, 61, 0
4, 62088, Note_on_c, 1, 61, 75
4, 62098, Note_on_c, 1, 61, 0
4, 62112, Note_on_c, 1, 61, 75
4, 62157, Note_on_c, 1, 61, 0
4, 62208, Note_on_c, 1, 62, 75
4, 62232, Note_on_c, 1, 62, 0
4, 62232, Note_on_c, 1, 50, 75
4, 62255, Note_on_c, 1, 50, 0
4, 62256, Note_on_c, 1, 62, 75
4, 62266, Note_on_c, 1, 62, 0
4, 62280, Note_on_c, 1, 62, 75
4, 62290, Note_on_c, 1, 62, 0
4, 62304, Note_on_c, 1, 62, 75
4, 62349, Note_on_c, 1, 62, 0
4, 62400, Note_on_c, 1, 64, 75
4, 62424, Note_on_c, 1, 64, 0
4, 62424, Note_on_c, 1, 52, 75
4, 62447, Note_on_c, 1, 52, 0
4, 62448, Note_on_c, 1, 64, 75
4, 62458, Note_on_c, 1, 64, 0
4, 62472, Note_on_c, 1, 64, 75
4, 62482, Note_on_c, 1, 64, 0
4, 62496, Note_on_c, 1, 64, 75
4, 62541, Note_on_c, 1, 64, 0
4, 62592, Note_on_c, 1, 57, 75
4, 62616, Note_on_c, 1, 57, 0
4, 62616, Note_on_c, 1, 45, 75
4, 62639, Note_on_c, 1, 45, 0
4, 62640, Note_on_c, 1, 57, 75
4, 62650, Note_on_c, 1, 57, 0
4, 62664, Note_on_c, 1, 57, 75
4, 62674, Note_on_c, 1, 57, 0
4, 62688, Note_on_c, 1, 57, 75
4, 62733, Note_on_c, 1, 57, 0
4, 62784, Note_on_c, 1, 62, 75
4, 62808, Note_on_c, 1, 62, 0
4, 62808, Note_on_c, 1, 50, 75
4, 62831, Note_on_c, 1, 50, 0
4, 62832, Note_on_c, 1, 62, 75
4, 62842, Note_on_c, 1, 62, 0
4, 62856, Note_on_c, 1, 62, 75
4, 62866, Note_on_c, 1, 62, 0
4, 62880, Note_on_c, 1, 62, 75
4, 62890, Note_on_c, 1, 62, 0
4, 62904, Note_on_c, 1, 62, 75
4, 62914, Note_on_c, 1, 62, 0
4, 62928, Note_on_c, 1, 62, 75
4, 62938, Note_on_c, 1, 62, 0
4, 62952, Note_on_c, 1, 62, 75
4, 62962, Note_on_c, 1, 62, 0
4, 62976, Note_on_c, 1, 62, 75
4, 63000, Note_on_c, 1, 62, 0
4, 63000, Note_on_c, 1, 50, 76
4, 63023, Note_on_c, 1, 50, 0
4, 63024, Note_on_c, 1, 62, 77
4, 63034, Note_on_c, 1, 62, 0
4, 63048, Note_on_c, 1, 62, 78
4, 63058, Note_on_c, 1, 62, 0
4, 63072, Note_on_c, 1, 60, 79
4, 63096, Note_on_c, 1, 60, 0
4, 63096, Note_on_c, 1, 48, 80
4, 63119, Note_on_c, 1, 48, 0
4, 63120, Note_on_c, 1, 60, 81
4, 63130, Note_on_c, 1, 60, 0
4, 63144, Note_on_c, 1, 60, 82
4, 63154, Note_on_c, 1, 60, 0
4, 63168, Note_on_c, 1, 59, 83
4, 63192, Note_on_c, 1, 59, 0
4, 63192, Note_on_c, 1, 47, 84
4, 63215, Note_on_c, 1, 47, 0
4, 63216, Note_on_c, 1, 59, 84
4, 63226, Note_on_c, 1, 59, 0
4, 63240, Note_on_c, 1, 59, 84
4, 63250, Note_on_c, 1, 59, 0
4, 63264, Note_on_c, 1, 54, 84
4, 63288, Note_on_c, 1, 54, 0
4, 63288, Note_on_c, 1, 42, 84
4, 63311, Note_on_c, 1, 42, 0
4, 63312, Note_on_c, 1, 54, 84
4, 63322, Note_on_c, 1, 54, 0
4, 63336, Note_on_c, 1, 54, 84
4, 63346, Note_on_c, 1, 54, 0
4, 63360, Note_on_c, 1, 55, 84
4, 63384, Note_on_c, 1, 55, 0
4, 63384, Note_on_c, 1, 43, 84
4, 63407, Note_on_c, 1, 43, 0
4, 63408, Note_on_c, 1, 55, 84
4, 63418, Note_on_c, 1, 55, 0
4, 63432, Note_on_c, 1, 55, 84
4, 63442, Note_on_c, 1, 55, 0
4, 63456, Note_on_c, 1, 54, 84
4, 63480, Note_on_c, 1, 54, 0
4, 63480, Note_on_c, 1, 42, 84
4, 63503, Note_on_c, 1, 42, 0
4, 63504, Note_on_c, 1, 54, 84
4, 63514, Note_on_c, 1, 54, 0
4, 63528, Note_on_c, 1, 54, 84
4, 63538, Note_on_c, 1, 54, 0
4, 63552, Note_on_c, 1, 52, 84
4, 63576, Note_on_c, 1, 52, 0
4, 63576, Note_on_c, 1, 40, 84
4, 63599, Note_on_c, 1, 40, 0
4, 63600, Note_on_c, 1, 52, 84
4, 63610, Note_on_c, 1, 52, 0
4, 63624, Note_on_c, 1, 52, 84
4, 63634, Note_on_c, 1, 52, 0
4, 63648, Note_on_c, 1, 50, 84
4, 63672, Note_on_c, 1, 50, 0
4, 63672, Note_on_c, 1, 38, 84
4, 63695, Note_on_c, 1, 38, 0
4, 63696, Note_on_c, 1, 50, 84
4, 63706, Note_on_c, 1, 50, 0
4, 63720, Note_on_c, 1, 50, 84
4, 63730, Note_on_c, 1, 50, 0
4, 63744, Note_on_c, 1, 49, 84
4, 63833, Note_on_c, 1, 49, 0
4, 63888, Note_on_c, 1, 49, 84
4, 63933, Note_on_c, 1, 49, 0
4, 63936, Note_on_c, 1, 50, 84
4, 63936, Note_on_c, 1, 38, 84
4, 64025, Note_on_c, 1, 50, 0
4, 64025, Note_on_c, 1, 38, 0
4, 64032, Note_on_c, 1, 47, 84
4, 64032, Note_on_c, 1, 35, 84
4, 64121, Note_on_c, 1, 47, 0
4, 64121, Note_on_c, 1, 35, 0
4, 64128, Note_on_c, 1, 45, 84
4, 64128, Note_on_c, 1, 33, 84
4, 64217, Note_on_c, 1, 45, 0
4, 64217, Note_on_c, 1, 33, 0
4, 64224, Note_on_c, 1, 44, 84
4, 64224, Note_on_c, 1, 32, 84
4, 64313, Note_on_c, 1, 44, 0
4, 64313, Note_on_c, 1, 32, 0
4, 64320, Note_on_c, 1, 45, 84
4, 64320, Note_on_c, 1, 33, 84
4, 64409, Note_on_c, 1, 45, 0
4, 64409, Note_on_c, 1, 33, 0
4, 64512, Note_on_c, 1, 45, 84
4, 64512, Note_on_c, 1, 33, 84
4, 64601, Note_on_c, 1, 45, 0
4, 64601, Note_on_c, 1, 33, 0
4, 64704, Note_on_c, 1, 45, 84
4, 64704, Note_on_c, 1, 33, 84
4, 64749, Note_on_c, 1, 45, 0
4, 64749, Note_on_c, 1, 33, 0
4, 64752, Note_on_c, 1, 54, 84
4, 64752, Note_on_c, 1, 45, 84
4, 64797, Note_on_c, 1, 54, 0
4, 64797, Note_on_c, 1, 45, 0
4, 64800, Note_on_c, 1, 49, 84
4, 64800, Note_on_c, 1, 45, 84
4, 64845, Note_on_c, 1, 49, 0
4, 64845, Note_on_c, 1, 45, 0
4, 64848, Note_on_c, 1, 50, 85
4, 64848, Note_on_c, 1, 45, 85
4, 64893, Note_on_c, 1, 50, 0
4, 64893, Note_on_c, 1, 45, 0
4, 64896, Note_on_c, 1, 55, 85
4, 64896, Note_on_c, 1, 45, 85
4, 64941, Note_on_c, 1, 55, 0
4, 64941, Note_on_c, 1, 45, 0
4, 64944, Note_on_c, 1, 54, 86
4, 64944, Note_on_c, 1, 45, 86
4, 64989, Note_on_c, 1, 54, 0
4, 64989, Note_on_c, 1, 45, 0
4, 64992, Note_on_c, 1, 49, 86
4, 64992, Note_on_c, 1, 45, 86
4, 65037, Note_on_c, 1, 49, 0
4, 65037, Note_on_c, 1, 45, 0
4, 65040, Note_on_c, 1, 50, 87
4, 65040, Note_on_c, 1, 45, 87
4, 65085, Note_on_c, 1, 50, 0
4, 65085, Note_on_c, 1, 45, 0
4, 65088, Note_on_c, 1, 49, 87
4, 65088, Note_on_c, 1, 45, 87
4, 65133, Note_on_c, 1, 49, 0
4, 65133, Note_on_c, 1, 45, 0
4, 65136, Note_on_c, 1, 50, 87
4, 65136, Note_on_c, 1, 45, 87
4, 65181, Note_on_c, 1, 50, 0
4, 65181, Note_on_c, 1, 45, 0
4, 65184, Note_on_c, 1, 49, 88
4, 65184, Note_on_c, 1, 45, 88
4, 65229, Note_on_c, 1, 49, 0
4, 65229, Note_on_c, 1, 45, 0
4, 65232, Note_on_c, 1, 50, 88
4, 65232, Note_on_c, 1, 45, 88
4, 65277, Note_on_c, 1, 50, 0
4, 65277, Note_on_c, 1, 45, 0
4, 65280, Note_on_c, 1, 57, 89
4, 65280, Note_on_c, 1, 52, 89
4, 65280, Note_on_c, 1, 49, 89
4, 65280, Note_on_c, 1, 45, 89
4, 65369, Note_on_c, 1, 57, 0
4, 65369, Note_on_c, 1, 52, 0
4, 65369, Note_on_c, 1, 49, 0
4, 65369, Note_on_c, 1, 45, 0
4, 65376, Control_c, 1, 64, 127
4, 65376, Note_on_c, 1, 45, 90
4, 65376, Note_on_c, 1, 33, 90
4, 65465, Note_on_c, 1, 45, 0
4, 65465, Note_on_c, 1, 33, 0
4, 65472, Note_on_c, 1, 45, 87
4, 65472, Note_on_c, 1, 33, 87
4, 65565, Note_on_c, 1, 45, 0
4, 65565, Note_on_c, 1, 33, 0
4, 65664, Control_c, 1, 64, 0
4, 65712, Note_on_c, 1, 38, 76
4, 65757, Note_on_c, 1, 38, 0
4, 65760, Note_on_c, 1, 50, 78
4, 65805, Note_on_c, 1, 50, 0
4, 65808, Note_on_c, 1, 49, 80
4, 65853, Note_on_c, 1, 49, 0
4, 65856, Note_on_c, 1, 50, 82
4, 65901, Note_on_c, 1, 50, 0
4, 65904, Note_on_c, 1, 55, 84
4, 65949, Note_on_c, 1, 55, 0
4, 65952, Note_on_c, 1, 54, 81
4, 65997, Note_on_c, 1, 54, 0
4, 66000, Note_on_c, 1, 49, 78
4, 66045, Note_on_c, 1, 49, 0
4, 66096, Note_on_c, 1, 38, 75
4, 66141, Note_on_c, 1, 38, 0
4, 66144, Note_on_c, 1, 50, 76
4, 66189, Note_on_c, 1, 50, 0
4, 66192, Note_on_c, 1, 49, 77
4, 66237, Note_on_c, 1, 49, 0
4, 66240, Note_on_c, 1, 50, 78
4, 66285, Note_on_c, 1, 50, 0
4, 66288, Note_on_c, 1, 55, 79
4, 66333, Note_on_c, 1, 55, 0
4, 66336, Note_on_c, 1, 54, 79
4, 66381, Note_on_c, 1, 54, 0
4, 66384, Note_on_c, 1, 49, 80
4, 66429, Note_on_c, 1, 49, 0
4, 66432, Note_on_c, 1, 50, 81
4, 66477, Note_on_c, 1, 50, 0
4, 66480, Note_on_c, 1, 52, 82
4, 66525, Note_on_c, 1, 52, 0
4, 66528, Note_on_c, 1, 54, 83
4, 66573, Note_on_c, 1, 54, 0
4, 66624, Note_on_c, 1, 50, 75
4, 66669, Note_on_c, 1, 50, 0
4, 66672, Note_on_c, 1, 52, 78
4, 66717, Note_on_c, 1, 52, 0
4, 66720, Note_on_c, 1, 54, 81
4, 66765, Note_on_c, 1, 54, 0
4, 66864, Note_on_c, 1, 38, 69
4, 66909, Note_on_c, 1, 38, 0
4, 66912, Note_on_c, 1, 38, 69
4, 66957, Note_on_c, 1, 38, 0
4, 66960, Note_on_c, 1, 38, 69
4, 67005, Note_on_c, 1, 38, 0
4, 67056, Note_on_c, 1, 40, 69
4, 67101, Note_on_c, 1, 40, 0
4, 67104, Note_on_c, 1, 40, 69
4, 67149, Note_on_c, 1, 40, 0
4, 67152, Note_on_c, 1, 40, 69
4, 67197, Note_on_c, 1, 40, 0
4, 67248, Note_on_c, 1, 33, 69
4, 67293, Note_on_c, 1, 33, 0
4, 67296, Note_on_c, 1, 33, 69
4, 67341, Note_on_c, 1, 33, 0
4, 67344, Note_on_c, 1, 33, 69
4, 67389, Note_on_c, 1, 33, 0
4, 67440, Note_on_c, 1, 38, 69
4, 67485, Note_on_c, 1, 38, 0
4, 67488, Note_on_c, 1, 38, 69
4, 67533, Note_on_c, 1, 38, 0
4, 67536, Note_on_c, 1, 38, 69
4, 67581, Note_on_c, 1, 38, 0
4, 67632, Note_on_c, 1, 50, 69
4, 67632, Note_on_c, 1, 42, 69
4, 67679, Note_on_c, 1, 50, 0
4, 67679, Note_on_c, 1, 42, 0
4, 67680, Note_on_c, 1, 50, 69
4, 67680, Note_on_c, 1, 42, 69
4, 67727, Note_on_c, 1, 50, 0
4, 67727, Note_on_c, 1, 42, 0
4, 67728, Note_on_c, 1, 50, 69
4, 67728, Note_on_c, 1, 42, 69
4, 67775, Note_on_c, 1, 50, 0
4, 67775, Note_on_c, 1, 42, 0
4, 67824, Note_on_c, 1, 50, 69
4, 67824, Note_on_c, 1, 43, 69
4, 67871, Note_on_c, 1, 50, 0
4, 67871, Note_on_c, 1, 43, 0
4, 67872, Note_on_c, 1, 50, 69
4, 67872, Note_on_c, 1, 43, 69
4, 67919, Note_on_c, 1, 50, 0
4, 67919, Note_on_c, 1, 43, 0
4, 67920, Note_on_c, 1, 50, 69
4, 67920, Note_on_c, 1, 43, 69
4, 67967, Note_on_c, 1, 50, 0
4, 67967, Note_on_c, 1, 43, 0
4, 68016, Note_on_c, 1, 50, 69
4, 68016, Note_on_c, 1, 42, 69
4, 68063, Note_on_c, 1, 50, 0
4, 68063, Note_on_c, 1, 42, 0
4, 68064, Note_on_c, 1, 50, 69
4, 68064, Note_on_c, 1, 42, 69
4, 68111, Note_on_c, 1, 50, 0
4, 68111, Note_on_c, 1, 42, 0
4, 68112, Note_on_c, 1, 50, 69
4, 68112, Note_on_c, 1, 42, 69
4, 68159, Note_on_c, 1, 50, 0
4, 68159, Note_on_c, 1, 42, 0
4, 68160, Note_on_c, 1, 50, 69
4, 68160, Note_on_c, 1, 43, 69
4, 68205, Note_on_c, 1, 50, 0
4, 68205, Note_on_c, 1, 43, 0
4, 68256, Note_on_c, 1, 50, 69
4, 68256, Note_on_c, 1, 42, 69
4, 68301, Note_on_c, 1, 50, 0
4, 68301, Note_on_c, 1, 42, 0
4, 68352, Note_on_c, 1, 50, 69
4, 68352, Note_on_c, 1, 43, 69
4, 68397, Note_on_c, 1, 50, 0
4, 68397, Note_on_c, 1, 43, 0
4, 68448, Note_on_c, 1, 50, 69
4, 68448, Note_on_c, 1, 42, 69
4, 68493, Note_on_c, 1, 50, 0
4, 68493, Note_on_c, 1, 42, 0
4, 68784, Note_on_c, 1, 57, 69
4, 68784, Note_on_c, 1, 54, 69
4, 68829, Note_on_c, 1, 57, 0
4, 68829, Note_on_c, 1, 54, 0
4, 68832, Note_on_c, 1, 57, 69
4, 68832, Note_on_c, 1, 54, 69
4, 68877, Note_on_c, 1, 57, 0
4, 68877, Note_on_c, 1, 54, 0
4, 68880, Note_on_c, 1, 57, 69
4, 68880, Note_on_c, 1, 54, 69
4, 68925, Note_on_c, 1, 57, 0
4, 68925, Note_on_c, 1, 54, 0
4, 68976, Note_on_c, 1, 54, 69
4, 68976, Note_on_c, 1, 51, 69
4, 69021, Note_on_c, 1, 54, 0
4, 69021, Note_on_c, 1, 51, 0
4, 69024, Note_on_c, 1, 54, 69
4, 69024, Note_on_c, 1, 51, 69
4, 69069, Note_on_c, 1, 54, 0
4, 69069, Note_on_c, 1, 51, 0
4, 69072, Note_on_c, 1, 54, 69
4, 69072, Note_on_c, 1, 51, 69
4, 69117, Note_on_c, 1, 54, 0
4, 69117, Note_on_c, 1, 51, 0
4, 69120, Note_on_c, 1, 52, 85
4, 69120, Note_on_c, 1, 40, 85
4, 69168, Note_on_c, 1, 52, 0
4, 69168, Note_on_c, 1, 40, 0
4, 69168, Note_on_c, 1, 54, 69
4, 69213, Note_on_c, 1, 54, 0
4, 69216, Note_on_c, 1, 55, 69
4, 69261, Note_on_c, 1, 55, 0
4, 69264, Note_on_c, 1, 51, 69
4, 69309, Note_on_c, 1, 51, 0
4, 69312, Note_on_c, 1, 52, 85
4, 69312, Note_on_c, 1, 40, 85
4, 69360, Note_on_c, 1, 52, 0
4, 69360, Note_on_c, 1, 40, 0
4, 69360, Note_on_c, 1, 54, 69
4, 69405, Note_on_c, 1, 54, 0
4, 69408, Note_on_c, 1, 55, 69
4, 69453, Note_on_c, 1, 55, 0
4, 69456, Note_on_c, 1, 56, 69
4, 69501, Note_on_c, 1, 56, 0
4, 69504, Note_on_c, 1, 57, 85
4, 69600, Note_on_c, 1, 57, 0
4, 69648, Note_on_c, 1, 66, 69
4, 69648, Note_on_c, 1, 62, 69
4, 69668, Note_on_c, 1, 66, 0
4, 69668, Note_on_c, 1, 62, 0
4, 69696, Note_on_c, 1, 64, 69
4, 69696, Note_on_c, 1, 61, 69
4, 69716, Note_on_c, 1, 64, 0
4, 69716, Note_on_c, 1, 61, 0
4, 69744, Note_on_c, 1, 62, 69
4, 69744, Note_on_c, 1, 59, 69
4, 69764, Note_on_c, 1, 62, 0
4, 69764, Note_on_c, 1, 59, 0
4, 69792, Note_on_c, 1, 61, 69
4, 69792, Note_on_c, 1, 57, 69
4, 69812, Note_on_c, 1, 61, 0
4, 69812, Note_on_c, 1, 57, 0
4, 69840, Note_on_c, 1, 59, 69
4, 69840, Note_on_c, 1, 55, 69
4, 69860, Note_on_c, 1, 59, 0
4, 69860, Note_on_c, 1, 55, 0
4, 69888, Note_on_c, 1, 57, 69
4, 69888, Note_on_c, 1, 54, 69
4, 69977, Note_on_c, 1, 57, 0
4, 69977, Note_on_c, 1, 54, 0
4, 70032, Note_on_c, 1, 71, 69
4, 70032, Note_on_c, 1, 67, 69
4, 70052, Note_on_c, 1, 71, 0
4, 70052, Note_on_c, 1, 67, 0
4, 70080, Note_on_c, 1, 69, 69
4, 70080, Note_on_c, 1, 66, 69
4, 70100, Note_on_c, 1, 69, 0
4, 70100, Note_on_c, 1, 66, 0
4, 70128, Note_on_c, 1, 67, 69
4, 70128, Note_on_c, 1, 64, 69
4, 70148, Note_on_c, 1, 67, 0
4, 70148, Note_on_c, 1, 64, 0
4, 70176, Note_on_c, 1, 66, 69
4, 70176, Note_on_c, 1, 62, 69
4, 70196, Note_on_c, 1, 66, 0
4, 70196, Note_on_c, 1, 62, 0
4, 70224, Note_on_c, 1, 64, 69
4, 70224, Note_on_c, 1, 60, 69
4, 70244, Note_on_c, 1, 64, 0
4, 70244, Note_on_c, 1, 60, 0
4, 70272, Note_on_c, 1, 62, 69
4, 70272, Note_on_c, 1, 59, 69
4, 70292, Note_on_c, 1, 62, 0
4, 70292, Note_on_c, 1, 59, 0
4, 70320, Note_on_c, 1, 60, 69
4, 70320, Note_on_c, 1, 57, 69
4, 70340, Note_on_c, 1, 60, 0
4, 70340, Note_on_c, 1, 57, 0
4, 70368, Note_on_c, 1, 59, 69
4, 70368, Note_on_c, 1, 55, 69
4, 70388, Note_on_c, 1, 59, 0
4, 70388, Note_on_c, 1, 55, 0
4, 70416, Note_on_c, 1, 57, 69
4, 70416, Note_on_c, 1, 54, 69
4, 70436, Note_on_c, 1, 57, 0
4, 70436, Note_on_c, 1, 54, 0
4, 70464, Note_on_c, 1, 55, 69
4, 70464, Note_on_c, 1, 52, 69
4, 70484, Note_on_c, 1, 55, 0
4, 70484, Note_on_c, 1, 52, 0
4, 70512, Note_on_c, 1, 54, 69
4, 70512, Note_on_c, 1, 50, 69
4, 70532, Note_on_c, 1, 54, 0
4, 70532, Note_on_c, 1, 50, 0
4, 70560, Note_on_c, 1, 57, 75
4, 70560, Note_on_c, 1, 52, 75
4, 70560, Note_on_c, 1, 49, 75
4, 70649, Note_on_c, 1, 57, 0
4, 70649, Note_on_c, 1, 52, 0
4, 70649, Note_on_c, 1, 49, 0
4, 70656, Note_on_c, 1, 57, 77
4, 70656, Note_on_c, 1, 54, 77
4, 70656, Note_on_c, 1, 50, 77
4, 70745, Note_on_c, 1, 57, 0
4, 70745, Note_on_c, 1, 54, 0
4, 70745, Note_on_c, 1, 50, 0
4, 70752, Note_on_c, 1, 57, 79
4, 70752, Note_on_c, 1, 52, 79
4, 70752, Note_on_c, 1, 49, 79
4, 70841, Note_on_c, 1, 57, 0
4, 70841, Note_on_c, 1, 52, 0
4, 70841, Note_on_c, 1, 49, 0
4, 70848, Note_on_c, 1, 57, 81
4, 70848, Note_on_c, 1, 53, 81
4, 70848, Note_on_c, 1, 50, 81
4, 70937, Note_on_c, 1, 57, 0
4, 70937, Note_on_c, 1, 53, 0
4, 70937, Note_on_c, 1, 50, 0
4, 71040, Control_c, 1, 64, 127
4, 71040, Note_on_c, 1, 50, 84
4, 71040, Note_on_c, 1, 38, 84
4, 71085, Note_on_c, 1, 50, 0
4, 71085, Note_on_c, 1, 38, 0
4, 71088, Note_on_c, 1, 65, 61
4, 71088, Note_on_c, 1, 62, 61
4, 71135, Note_on_c, 1, 65, 0
4, 71135, Note_on_c, 1, 62, 0
4, 71136, Note_on_c, 1, 65, 61
4, 71136, Note_on_c, 1, 62, 61
4, 71183, Note_on_c, 1, 65, 0
4, 71183, Note_on_c, 1, 62, 0
4, 71184, Note_on_c, 1, 65, 61
4, 71184, Note_on_c, 1, 62, 61
4, 71231, Note_on_c, 1, 65, 0
4, 71231, Note_on_c, 1, 62, 0
4, 71232, Note_on_c, 1, 65, 61
4, 71232, Note_on_c, 1, 62, 61
4, 71279, Note_on_c, 1, 65, 0
4, 71279, Note_on_c, 1, 62, 0
4, 71280, Note_on_c, 1, 65, 61
4, 71280, Note_on_c, 1, 62, 61
4, 71327, Note_on_c, 1, 65, 0
4, 71327, Note_on_c, 1, 62, 0
4, 71328, Note_on_c, 1, 65, 61
4, 71328, Note_on_c, 1, 62, 61
4, 71375, Note_on_c, 1, 65, 0
4, 71375, Note_on_c, 1, 62, 0
4, 71376, Note_on_c, 1, 65, 61
4, 71376, Note_on_c, 1, 62, 61
4, 71423, Note_on_c, 1, 65, 0
4, 71423, Note_on_c, 1, 62, 0
4, 71424, Control_c, 1, 64, 0
4, 71424, Note_on_c, 1, 65, 61
4, 71424, Note_on_c, 1, 62, 61
4, 71513, Note_on_c, 1, 65, 0
4, 71513, Note_on_c, 1, 62, 0
4, 71808, Control_c, 1, 64, 127
4, 71808, Note_on_c, 1, 46, 61
4, 71808, Note_on_c, 1, 34, 61
4, 72133, Note_on_c, 1, 46, 0
4, 72133, Note_on_c, 1, 34, 0
4, 72144, Note_on_c, 1, 58, 70
4, 72144, Note_on_c, 1, 46, 70
4, 72189, Note_on_c, 1, 58, 0
4, 72189, Note_on_c, 1, 46, 0
4, 72192, Control_c, 1, 64, 0
4, 72192, Note_on_c, 1, 57, 73
4, 72216, Note_on_c, 1, 57, 0
4, 72216, Note_on_c, 1, 45, 75
4, 72239, Note_on_c, 1, 45, 0
4, 72240, Note_on_c, 1, 57, 75
4, 72250, Note_on_c, 1, 57, 0
4, 72264, Note_on_c, 1, 57, 75
4, 72274, Note_on_c, 1, 57, 0
4, 72288, Note_on_c, 1, 57, 75
4, 72298, Note_on_c, 1, 57, 0
4, 72312, Note_on_c, 1, 57, 75
4, 72322, Note_on_c, 1, 57, 0
4, 72336, Note_on_c, 1, 57, 75
4, 72346, Note_on_c, 1, 57, 0
4, 72360, Note_on_c, 1, 57, 75
4, 72370, Note_on_c, 1, 57, 0
4, 72384, Note_on_c, 1, 57, 75
4, 72394, Note_on_c, 1, 57, 0
4, 72408, Note_on_c, 1, 57, 75
4, 72418, Note_on_c, 1, 57, 0
4, 72432, Note_on_c, 1, 57, 75
4, 72442, Note_on_c, 1, 57, 0
4, 72456, Note_on_c, 1, 57, 75
4, 72466, Note_on_c, 1, 57, 0
4, 72480, Note_on_c, 1, 57, 75
4, 72490, Note_on_c, 1, 57, 0
4, 72504, Note_on_c, 1, 57, 75
4, 72514, Note_on_c, 1, 57, 0
4, 72528, Note_on_c, 1, 57, 75
4, 72538, Note_on_c, 1, 57, 0
4, 72552, Note_on_c, 1, 57, 75
4, 72562, Note_on_c, 1, 57, 0
4, 72576, Note_on_c, 1, 57, 75
4, 72600, Note_on_c, 1, 57, 0
4, 72600, Note_on_c, 1, 45, 75
4, 72623, Note_on_c, 1, 45, 0
4, 72624, Note_on_c, 1, 57, 75
4, 72634, Note_on_c, 1, 57, 0
4, 72648, Note_on_c, 1, 57, 75
4, 72658, Note_on_c, 1, 57, 0
4, 72672, Note_on_c, 1, 57, 75
4, 72682, Note_on_c, 1, 57, 0
4, 72696, Note_on_c, 1, 57, 75
4, 72706, Note_on_c, 1, 57, 0
4, 72720, Note_on_c, 1, 57, 75
4, 72730, Note_on_c, 1, 57, 0
4, 72744, Note_on_c, 1, 57, 75
4, 72754, Note_on_c, 1, 57, 0
4, 72768, Note_on_c, 1, 57, 75
4, 72778, Note_on_c, 1, 57, 0
4, 72792, Note_on_c, 1, 57, 75
4, 72802, Note_on_c, 1, 57, 0
4, 72816, Note_on_c, 1, 57, 75
4, 72826, Note_on_c, 1, 57, 0
4, 72840, Note_on_c, 1, 57, 75
4, 72850, Note_on_c, 1, 57, 0
4, 72864, Note_on_c, 1, 57, 75
4, 72874, Note_on_c, 1, 57, 0
4, 72888, Note_on_c, 1, 57, 75
4, 72898, Note_on_c, 1, 57, 0
4, 72912, Note_on_c, 1, 57, 75
4, 72922, Note_on_c, 1, 57, 0
4, 72936, Note_on_c, 1, 57, 75
4, 72946, Note_on_c, 1, 57, 0
4, 72960, Note_on_c, 1, 57, 75
4, 72984, Note_on_c, 1, 57, 0
4, 72984, Note_on_c, 1, 45, 75
4, 73007, Note_on_c, 1, 45, 0
4, 73008, Note_on_c, 1, 57, 75
4, 73018, Note_on_c, 1, 57, 0
4, 73032, Note_on_c, 1, 57, 75
4, 73042, Note_on_c, 1, 57, 0
4, 73056, Note_on_c, 1, 57, 75
4, 73066, Note_on_c, 1, 57, 0
4, 73080, Note_on_c, 1, 57, 75
4, 73090, Note_on_c, 1, 57, 0
4, 73104, Note_on_c, 1, 57, 75
4, 73114, Note_on_c, 1, 57, 0
4, 73128, Note_on_c, 1, 57, 75
4, 73138, Note_on_c, 1, 57, 0
4, 73152, Note_on_c, 1, 57, 75
4, 73162, Note_on_c, 1, 57, 0
4, 73176, Note_on_c, 1, 57, 75
4, 73186, Note_on_c, 1, 57, 0
4, 73200, Note_on_c, 1, 57, 75
4, 73210, Note_on_c, 1, 57, 0
4, 73224, Note_on_c, 1, 57, 75
4, 73234, Note_on_c, 1, 57, 0
4, 73248, Note_on_c, 1, 57, 75
4, 73258, Note_on_c, 1, 57, 0
4, 73272, Note_on_c, 1, 57, 75
4, 73282, Note_on_c, 1, 57, 0
4, 73296, Note_on_c, 1, 57, 75
4, 73306, Note_on_c, 1, 57, 0
4, 73320, Note_on_c, 1, 57, 75
4, 73330, Note_on_c, 1, 57, 0
4, 73344, Note_on_c, 1, 57, 75
4, 73368, Note_on_c, 1, 57, 0
4, 73368, Note_on_c, 1, 45, 75
4, 73391, Note_on_c, 1, 45, 0
4, 73392, Note_on_c, 1, 57, 75
4, 73402, Note_on_c, 1, 57, 0
4, 73416, Note_on_c, 1, 57, 75
4, 73426, Note_on_c, 1, 57, 0
4, 73440, Note_on_c, 1, 57, 75
4, 73450, Note_on_c, 1, 57, 0
4, 73464, Note_on_c, 1, 57, 75
4, 73474, Note_on_c, 1, 57, 0
4, 73488, Note_on_c, 1, 57, 75
4, 73498, Note_on_c, 1, 57, 0
4, 73512, Note_on_c, 1, 57, 75
4, 73522, Note_on_c, 1, 57, 0
4, 73536, Note_on_c, 1, 57, 75
4, 73546, Note_on_c, 1, 57, 0
4, 73560, Note_on_c, 1, 57, 75
4, 73570, Note_on_c, 1, 57, 0
4, 73584, Note_on_c, 1, 57, 75
4, 73594, Note_on_c, 1, 57, 0
4, 73608, Note_on_c, 1, 57, 75
4, 73618, Note_on_c, 1, 57, 0
4, 73632, Note_on_c, 1, 57, 75
4, 73642, Note_on_c, 1, 57, 0
4, 73656, Note_on_c, 1, 57, 75
4, 73666, Note_on_c, 1, 57, 0
4, 73680, Note_on_c, 1, 57, 75
4, 73690, Note_on_c, 1, 57, 0
4, 73704, Note_on_c, 1, 57, 75
4, 73714, Note_on_c, 1, 57, 0
4, 73728, Note_on_c, 1, 57, 75
4, 73752, Note_on_c, 1, 57, 0
4, 73752, Note_on_c, 1, 45, 75
4, 73775, Note_on_c, 1, 45, 0
4, 73776, Note_on_c, 1, 57, 75
4, 73786, Note_on_c, 1, 57, 0
4, 73800, Note_on_c, 1, 57, 75
4, 73810, Note_on_c, 1, 57, 0
4, 73824, Note_on_c, 1, 57, 75
4, 73869, Note_on_c, 1, 57, 0
4, 73968, Note_on_c, 1, 67, 61
4, 73968, Note_on_c, 1, 64, 61
4, 73968, Note_on_c, 1, 57, 61
4, 73988, Note_on_c, 1, 67, 0
4, 73988, Note_on_c, 1, 64, 0
4, 73988, Note_on_c, 1, 57, 0
4, 74016, Note_on_c, 1, 67, 61
4, 74016, Note_on_c, 1, 64, 61
4, 74016, Note_on_c, 1, 57, 61
4, 74063, Note_on_c, 1, 67, 0
4, 74063, Note_on_c, 1, 64, 0
4, 74063, Note_on_c, 1, 57, 0
4, 74160, Note_on_c, 1, 62, 61
4, 74160, Note_on_c, 1, 57, 61
4, 74160, Note_on_c, 1, 54, 61
4, 74180, Note_on_c, 1, 62, 0
4, 74180, Note_on_c, 1, 57, 0
4, 74180, Note_on_c, 1, 54, 0
4, 74208, Note_on_c, 1, 62, 61
4, 74208, Note_on_c, 1, 57, 61
4, 74208, Note_on_c, 1, 54, 61
4, 74255, Note_on_c, 1, 62, 0
4, 74255, Note_on_c, 1, 57, 0
4, 74255, Note_on_c, 1, 54, 0
4, 74352, Note_on_c, 1, 67, 61
4, 74352, Note_on_c, 1, 64, 61
4, 74352, Note_on_c, 1, 57, 61
4, 74372, Note_on_c, 1, 67, 0
4, 74372, Note_on_c, 1, 64, 0
4, 74372, Note_on_c, 1, 57, 0
4, 74400, Note_on_c, 1, 67, 61
4, 74400, Note_on_c, 1, 64, 61
4, 74400, Note_on_c, 1, 57, 61
4, 74447, Note_on_c, 1, 67, 0
4, 74447, Note_on_c, 1, 64, 0
4, 74447, Note_on_c, 1, 57, 0
4, 74496, Note_on_c, 1, 62, 75
4, 74496, Note_on_c, 1, 54, 75
4, 74541, Note_on_c, 1, 62, 0
4, 74541, Note_on_c, 1, 54, 0
4, 74592, Note_on_c, 1, 62, 75
4, 74592, Note_on_c, 1, 59, 75
4, 74592, Note_on_c, 1, 55, 75
4, 74637, Note_on_c, 1, 62, 0
4, 74637, Note_on_c, 1, 59, 0
4, 74637, Note_on_c, 1, 55, 0
4, 74688, Note_on_c, 1, 55, 75
4, 74688, Note_on_c, 1, 43, 75
4, 74733, Note_on_c, 1, 55, 0
4, 74733, Note_on_c, 1, 43, 0
4, 74784, Note_on_c, 1, 43, 75
4, 74784, Note_on_c, 1, 31, 75
4, 74829, Note_on_c, 1, 43, 0
4, 74829, Note_on_c, 1, 31, 0
4, 74928, Note_on_c, 1, 62, 75
4, 75017, Note_on_c, 1, 62, 0
4, 75024, Note_on_c, 1, 61, 75
4, 75069, Note_on_c, 1, 61, 0
4, 75072, Note_on_c, 1, 62, 61
4, 75087, Note_on_c, 1, 62, 0
4, 75088, Note_on_c, 1, 66, 61
4, 75103, Note_on_c, 1, 66, 0
4, 75104, Note_on_c, 1, 69, 61
4, 75119, Note_on_c, 1, 69, 0
4, 75120, Note_on_c, 1, 62, 61
4, 75135, Note_on_c, 1, 62, 0
4, 75136, Note_on_c, 1, 66, 61
4, 75151, Note_on_c, 1, 66, 0
4, 75152, Note_on_c, 1, 69, 61
4, 75167, Note_on_c, 1, 69, 0
4, 75168, Note_on_c, 1, 61, 61
4, 75183, Note_on_c, 1, 61, 0
4, 75184, Note_on_c, 1, 64, 61
4, 75199, Note_on_c, 1, 64, 0
4, 75200, Note_on_c, 1, 69, 61
4, 75215, Note_on_c, 1, 69, 0
4, 75216, Note_on_c, 1, 61, 61
4, 75231, Note_on_c, 1, 61, 0
4, 75232, Note_on_c, 1, 64, 61
4, 75247, Note_on_c, 1, 64, 0
4, 75248, Note_on_c, 1, 69, 61
4, 75263, Note_on_c, 1, 69, 0
4, 75264, Note_on_c, 1, 62, 61
4, 75279, Note_on_c, 1, 62, 0
4, 75280, Note_on_c, 1, 66, 61
4, 75295, Note_on_c, 1, 66, 0
4, 75296, Note_on_c, 1, 69, 61
4, 75311, Note_on_c, 1, 69, 0
4, 75312, Note_on_c, 1, 62, 61
4, 75327, Note_on_c, 1, 62, 0
4, 75328, Note_on_c, 1, 66, 61
4, 75343, Note_on_c, 1, 66, 0
4, 75344, Note_on_c, 1, 69, 61
4, 75359, Note_on_c, 1, 69, 0
4, 75360, Note_on_c, 1, 64, 61
4, 75375, Note_on_c, 1, 64, 0
4, 75376, Note_on_c, 1, 67, 61
4, 75391, Note_on_c, 1, 67, 0
4, 75392, Note_on_c, 1, 69, 61
4, 75407, Note_on_c, 1, 69, 0
4, 75408, Note_on_c, 1, 64, 61
4, 75423, Note_on_c, 1, 64, 0
4, 75424, Note_on_c, 1, 67, 61
4, 75439, Note_on_c, 1, 67, 0
4, 75440, Note_on_c, 1, 69, 61
4, 75455, Note_on_c, 1, 69, 0
4, 75456, Note_on_c, 1, 62, 61
4, 75471, Note_on_c, 1, 62, 0
4, 75472, Note_on_c, 1, 66, 61
4, 75487, Note_on_c, 1, 66, 0
4, 75488, Note_on_c, 1, 69, 61
4, 75503, Note_on_c, 1, 69, 0
4, 75504, Note_on_c, 1, 62, 61
4, 75519, Note_on_c, 1, 62, 0
4, 75520, Note_on_c, 1, 66, 61
4, 75535, Note_on_c, 1, 66, 0
4, 75536, Note_on_c, 1, 69, 61
4, 75551, Note_on_c, 1, 69, 0
4, 75552, Note_on_c, 1, 61, 61
4, 75567, Note_on_c, 1, 61, 0
4, 75568, Note_on_c, 1, 64, 61
4, 75583, Note_on_c, 1, 64, 0
4, 75584, Note_on_c, 1, 69, 61
4, 75599, Note_on_c, 1, 69, 0
4, 75600, Note_on_c, 1, 61, 61
4, 75615, Note_on_c, 1, 61, 0
4, 75616, Note_on_c, 1, 64, 61
4, 75631, Note_on_c, 1, 64, 0
4, 75632, Note_on_c, 1, 69, 61
4, 75647, Note_on_c, 1, 69, 0
4, 75648, Note_on_c, 1, 62, 61
4, 75663, Note_on_c, 1, 62, 0
4, 75664, Note_on_c, 1, 66, 61
4, 75679, Note_on_c, 1, 66, 0
4, 75680, Note_on_c, 1, 69, 61
4, 75695, Note_on_c, 1, 69, 0
4, 75696, Note_on_c, 1, 62, 61
4, 75711, Note_on_c, 1, 62, 0
4, 75712, Note_on_c, 1, 66, 61
4, 75727, Note_on_c, 1, 66, 0
4, 75728, Note_on_c, 1, 69, 61
4, 75743, Note_on_c, 1, 69, 0
4, 75744, Note_on_c, 1, 64, 61
4, 75759, Note_on_c, 1, 64, 0
4, 75760, Note_on_c, 1, 67, 61
4, 75775, Note_on_c, 1, 67, 0
4, 75776, Note_on_c, 1, 69, 61
4, 75791, Note_on_c, 1, 69, 0
4, 75792, Note_on_c, 1, 64, 61
4, 75807, Note_on_c, 1, 64, 0
4, 75808, Note_on_c, 1, 67, 61
4, 75823, Note_on_c, 1, 67, 0
4, 75824, Note_on_c, 1, 69, 61
4, 75839, Note_on_c, 1, 69, 0
4, 75840, Note_on_c, 1, 62, 61
4, 75855, Note_on_c, 1, 62, 0
4, 75856, Note_on_c, 1, 66, 61
4, 75871, Note_on_c, 1, 66, 0
4, 75872, Note_on_c, 1, 69, 61
4, 75887, Note_on_c, 1, 69, 0
4, 75888, Note_on_c, 1, 62, 61
4, 75903, Note_on_c, 1, 62, 0
4, 75904, Note_on_c, 1, 66, 61
4, 75919, Note_on_c, 1, 66, 0
4, 75920, Note_on_c, 1, 69, 61
4, 75935, Note_on_c, 1, 69, 0
4, 75936, Note_on_c, 1, 61, 61
4, 75951, Note_on_c, 1, 61, 0
4, 75952, Note_on_c, 1, 64, 61
4, 75967, Note_on_c, 1, 64, 0
4, 75968, Note_on_c, 1, 69, 61
4, 75983, Note_on_c, 1, 69, 0
4, 75984, Note_on_c, 1, 61, 61
4, 75999, Note_on_c, 1, 61, 0
4, 76000, Note_on_c, 1, 64, 61
4, 76015, Note_on_c, 1, 64, 0
4, 76016, Note_on_c, 1, 69, 61
4, 76031, Note_on_c, 1, 69, 0
4, 76032, Note_on_c, 1, 62, 61
4, 76047, Note_on_c, 1, 62, 0
4, 76048, Note_on_c, 1, 66, 61
4, 76063, Note_on_c, 1, 66, 0
4, 76064, Note_on_c, 1, 69, 61
4, 76079, Note_on_c, 1, 69, 0
4, 76080, Note_on_c, 1, 62, 61
4, 76095, Note_on_c, 1, 62, 0
4, 76096, Note_on_c, 1, 66, 61
4, 76111, Note_on_c, 1, 66, 0
4, 76112, Note_on_c, 1, 69, 61
4, 76127, Note_on_c, 1, 69, 0
4, 76128, Note_on_c, 1, 57, 61
4, 76143, Note_on_c, 1, 57, 0
4, 76144, Note_on_c, 1, 64, 61
4, 76159, Note_on_c, 1, 64, 0
4, 76160, Note_on_c, 1, 69, 61
4, 76175, Note_on_c, 1, 69, 0
4, 76176, Note_on_c, 1, 57, 61
4, 76191, Note_on_c, 1, 57, 0
4, 76192, Note_on_c, 1, 64, 61
4, 76207, Note_on_c, 1, 64, 0
4, 76208, Note_on_c, 1, 69, 61
4, 76223, Note_on_c, 1, 69, 0
4, 76224, Note_on_c, 1, 62, 61
4, 76239, Note_on_c, 1, 62, 0
4, 76240, Note_on_c, 1, 66, 61
4, 76255, Note_on_c, 1, 66, 0
4, 76256, Note_on_c, 1, 69, 61
4, 76271, Note_on_c, 1, 69, 0
4, 76272, Note_on_c, 1, 62, 61
4, 76287, Note_on_c, 1, 62, 0
4, 76288, Note_on_c, 1, 66, 61
4, 76303, Note_on_c, 1, 66, 0
4, 76304, Note_on_c, 1, 69, 61
4, 76319, Note_on_c, 1, 69, 0
4, 76320, Note_on_c, 1, 61, 61
4, 76335, Note_on_c, 1, 61, 0
4, 76336, Note_on_c, 1, 64, 61
4, 76351, Note_on_c, 1, 64, 0
4, 76352, Note_on_c, 1, 69, 61
4, 76367, Note_on_c, 1, 69, 0
4, 76368, Note_on_c, 1, 61, 61
4, 76383, Note_on_c, 1, 61, 0
4, 76384, Note_on_c, 1, 64, 61
4, 76399, Note_on_c, 1, 64, 0
4, 76400, Note_on_c, 1, 69, 61
4, 76415, Note_on_c, 1, 69, 0
4, 76416, Note_on_c, 1, 62, 61
4, 76431, Note_on_c, 1, 62, 0
4, 76432, Note_on_c, 1, 66, 61
4, 76447, Note_on_c, 1, 66, 0
4, 76448, Note_on_c, 1, 69, 61
4, 76463, Note_on_c, 1, 69, 0
4, 76464, Note_on_c, 1, 62, 61
4, 76479, Note_on_c, 1, 62, 0
4, 76480, Note_on_c, 1, 66, 61
4, 76495, Note_on_c, 1, 66, 0
4, 76496, Note_on_c, 1, 69, 61
4, 76511, Note_on_c, 1, 69, 0
4, 76512, Note_on_c, 1, 57, 61
4, 76527, Note_on_c, 1, 57, 0
4, 76528, Note_on_c, 1, 64, 61
4, 76543, Note_on_c, 1, 64, 0
4, 76544, Note_on_c, 1, 69, 61
4, 76559, Note_on_c, 1, 69, 0
4, 76560, Note_on_c, 1, 57, 61
4, 76575, Note_on_c, 1, 57, 0
4, 76576, Note_on_c, 1, 64, 61
4, 76591, Note_on_c, 1, 64, 0
4, 76592, Note_on_c, 1, 69, 61
4, 76607, Note_on_c, 1, 69, 0
4, 76608, Note_on_c, 1, 62, 61
4, 76623, Note_on_c, 1, 62, 0
4, 76624, Note_on_c, 1, 66, 61
4, 76639, Note_on_c, 1, 66, 0
4, 76640, Note_on_c, 1, 69, 61
4, 76655, Note_on_c, 1, 69, 0
4, 76656, Note_on_c, 1, 62, 61
4, 76671, Note_on_c, 1, 62, 0
4, 76672, Note_on_c, 1, 66, 61
4, 76687, Note_on_c, 1, 66, 0
4, 76688, Note_on_c, 1, 69, 61
4, 76703, Note_on_c, 1, 69, 0
4, 76704, Note_on_c, 1, 61, 61
4, 76719, Note_on_c, 1, 61, 0
4, 76720, Note_on_c, 1, 64, 61
4, 76735, Note_on_c, 1, 64, 0
4, 76736, Note_on_c, 1, 69, 61
4, 76751, Note_on_c, 1, 69, 0
4, 76752, Note_on_c, 1, 61, 61
4, 76767, Note_on_c, 1, 61, 0
4, 76768, Note_on_c, 1, 64, 61
4, 76783, Note_on_c, 1, 64, 0
4, 76784, Note_on_c, 1, 69, 61
4, 76799, Note_on_c, 1, 69, 0
4, 76800, Note_on_c, 1, 62, 75
4, 76845, Note_on_c, 1, 62, 0
4, 76896, Note_on_c, 1, 66, 75
4, 76941, Note_on_c, 1, 66, 0
4, 76992, Note_on_c, 1, 67, 75
4, 77037, Note_on_c, 1, 67, 0
4, 77088, Note_on_c, 1, 55, 75
4, 77133, Note_on_c, 1, 55, 0
4, 77184, Note_on_c, 1, 54, 61
4, 77199, Note_on_c, 1, 54, 0
4, 77200, Note_on_c, 1, 57, 61
4, 77215, Note_on_c, 1, 57, 0
4, 77216, Note_on_c, 1, 62, 61
4, 77231, Note_on_c, 1, 62, 0
4, 77232, Note_on_c, 1, 54, 61
4, 77247, Note_on_c, 1, 54, 0
4, 77248, Note_on_c, 1, 57, 61
4, 77263, Note_on_c, 1, 57, 0
4, 77264, Note_on_c, 1, 62, 61
4, 77279, Note_on_c, 1, 62, 0
4, 77280, Note_on_c, 1, 55, 61
4, 77295, Note_on_c, 1, 55, 0
4, 77296, Note_on_c, 1, 59, 61
4, 77311, Note_on_c, 1, 59, 0
4, 77312, Note_on_c, 1, 64, 61
4, 77327, Note_on_c, 1, 64, 0
4, 77328, Note_on_c, 1, 57, 61
4, 77343, Note_on_c, 1, 57, 0
4, 77344, Note_on_c, 1, 64, 61
4, 77359, Note_on_c, 1, 64, 0
4, 77360, Note_on_c, 1, 67, 61
4, 77375, Note_on_c, 1, 67, 0
4, 77376, Note_on_c, 1, 66, 75
4, 77376, Note_on_c, 1, 62, 75
4, 77421, Note_on_c, 1, 66, 0
4, 77421, Note_on_c, 1, 62, 0
4, 77472, Note_on_c, 1, 55, 75
4, 77517, Note_on_c, 1, 55, 0
4, 77568, Note_on_c, 1, 55, 75
4, 77568, Note_on_c, 1, 43, 75
4, 77613, Note_on_c, 1, 55, 0
4, 77613, Note_on_c, 1, 43, 0
4, 77664, Note_on_c, 1, 43, 75
4, 77664, Note_on_c, 1, 31, 75
4, 77709, Note_on_c, 1, 43, 0
4, 77709, Note_on_c, 1, 31, 0
4, 77760, Note_on_c, 1, 42, 61
4, 77775, Note_on_c, 1, 42, 0
4, 77776, Note_on_c, 1, 45, 61
4, 77791, Note_on_c, 1, 45, 0
4, 77792, Note_on_c, 1, 50, 61
4, 77807, Note_on_c, 1, 50, 0
4, 77808, Note_on_c, 1, 42, 61
4, 77823, Note_on_c, 1, 42, 0
4, 77824, Note_on_c, 1, 45, 61
4, 77839, Note_on_c, 1, 45, 0
4, 77840, Note_on_c, 1, 50, 61
4, 77855, Note_on_c, 1, 50, 0
4, 77856, Note_on_c, 1, 43, 61
4, 77871, Note_on_c, 1, 43, 0
4, 77872, Note_on_c, 1, 47, 61
4, 77887, Note_on_c, 1, 47, 0
4, 77888, Note_on_c, 1, 52, 61
4, 77903, Note_on_c, 1, 52, 0
4, 77904, Note_on_c, 1, 45, 61
4, 77919, Note_on_c, 1, 45, 0
4, 77920, Note_on_c, 1, 47, 61
4, 77935, Note_on_c, 1, 47, 0
4, 77936, Note_on_c, 1, 52, 61
4, 77951, Note_on_c, 1, 52, 0
4, 77952, Note_on_c, 1, 50, 53
4, 77967, Note_on_c, 1, 50, 0
4, 77968, Note_on_c, 1, 54, 53
4, 77983, Note_on_c, 1, 54, 0
4, 77984, Note_on_c, 1, 57, 53
4, 77999, Note_on_c, 1, 57, 0
4, 78000, Note_on_c, 1, 50, 53
4, 78015, Note_on_c, 1, 50, 0
4, 78016, Note_on_c, 1, 54, 53
4, 78031, Note_on_c, 1, 54, 0
4, 78032, Note_on_c, 1, 57, 53
4, 78047, Note_on_c, 1, 57, 0
4, 78048, Note_on_c, 1, 45, 53
4, 78063, Note_on_c, 1, 45, 0
4, 78064, Note_on_c, 1, 52, 53
4, 78079, Note_on_c, 1, 52, 0
4, 78080, Note_on_c, 1, 57, 53
4, 78095, Note_on_c, 1, 57, 0
4, 78096, Note_on_c, 1, 45, 53
4, 78111, Note_on_c, 1, 45, 0
4, 78112, Note_on_c, 1, 52, 53
4, 78127, Note_on_c, 1, 52, 0
4, 78128, Note_on_c, 1, 57, 53
4, 78143, Note_on_c, 1, 57, 0
4, 78144, Note_on_c, 1, 50, 53
4, 78159, Note_on_c, 1, 50, 0
4, 78160, Note_on_c, 1, 54, 53
4, 78175, Note_on_c, 1, 54, 0
4, 78176, Note_on_c, 1, 57, 53
4, 78191, Note_on_c, 1, 57, 0
4, 78192, Note_on_c, 1, 50, 53
4, 78207, Note_on_c, 1, 50, 0
4, 78208, Note_on_c, 1, 54, 53
4, 78223, Note_on_c, 1, 54, 0
4, 78224, Note_on_c, 1, 57, 53
4, 78239, Note_on_c, 1, 57, 0
4, 78240, Note_on_c, 1, 45, 53
4, 78255, Note_on_c, 1, 45, 0
4, 78256, Note_on_c, 1, 52, 53
4, 78271, Note_on_c, 1, 52, 0
4, 78272, Note_on_c, 1, 57, 53
4, 78287, Note_on_c, 1, 57, 0
4, 78288, Note_on_c, 1, 45, 53
4, 78303, Note_on_c, 1, 45, 0
4, 78304, Note_on_c, 1, 52, 53
4, 78319, Note_on_c, 1, 52, 0
4, 78320, Note_on_c, 1, 57, 53
4, 78335, Note_on_c, 1, 57, 0
4, 78336, Note_on_c, 1, 50, 53
4, 78351, Note_on_c, 1, 50, 0
4, 78352, Note_on_c, 1, 54, 53
4, 78367, Note_on_c, 1, 54, 0
4, 78368, Note_on_c, 1, 57, 53
4, 78383, Note_on_c, 1, 57, 0
4, 78384, Note_on_c, 1, 50, 53
4, 78399, Note_on_c, 1, 50, 0
4, 78400, Note_on_c, 1, 54, 53
4, 78415, Note_on_c, 1, 54, 0
4, 78416, Note_on_c, 1, 57, 53
4, 78431, Note_on_c, 1, 57, 0
4, 78432, Note_on_c, 1, 50, 53
4, 78447, Note_on_c, 1, 50, 0
4, 78448, Note_on_c, 1, 54, 53
4, 78463, Note_on_c, 1, 54, 0
4, 78464, Note_on_c, 1, 57, 53
4, 78479, Note_on_c, 1, 57, 0
4, 78480, Note_on_c, 1, 50, 53
4, 78495, Note_on_c, 1, 50, 0
4, 78496, Note_on_c, 1, 54, 53
4, 78511, Note_on_c, 1, 54, 0
4, 78512, Note_on_c, 1, 57, 53
4, 78527, Note_on_c, 1, 57, 0
4, 78528, Note_on_c, 1, 50, 53
4, 78661, Note_on_c, 1, 50, 0
4, 78708, Note_on_c, 1, 50, 0
4, 78809, Note_on_c, 1, 50, 0
4, 78816, End_track
5, 0, Start_track
5, 0, Program_c, 1, 0
5, 0, Control_c, 1, 7, 127
5, 0, Control_c, 1, 10, 64
5, 12720, Note_on_c, 1, 49, 64
5, 12765, Note_on_c, 1, 49, 0
5, 12768, Note_on_c, 1, 50, 64
5, 12813, Note_on_c, 1, 50, 0
5, 12816, Note_on_c, 1, 52, 64
5, 12861, Note_on_c, 1, 52, 0
5, 28848, Note_on_c, 1, 49, 64
5, 28893, Note_on_c, 1, 49, 0
5, 28896, Note_on_c, 1, 50, 64
5, 28941, Note_on_c, 1, 50, 0
5, 28944, Note_on_c, 1, 52, 64
5, 28989, Note_on_c, 1, 52, 0
5, 51888, Note_on_c, 1, 54, 64
5, 51933, Note_on_c, 1, 54, 0
5, 51936, Note_on_c, 1, 55, 64
5, 51981, Note_on_c, 1, 55, 0
5, 51984, Note_on_c, 1, 57, 64
5, 52029, Note_on_c, 1, 57, 0
5, 74928, Note_on_c, 1, 54, 64
5, 74973, Note_on_c, 1, 54, 0
5, 74976, Note_on_c, 1, 55, 64
5, 75021, Note_on_c, 1, 55, 0
5, 75024, Note_on_c, 1, 57, 64
5, 75069, Note_on_c, 1, 57, 0
5, 78720, End_track
6, 0, Start_track
6, 0, Title_t, "Piano Solo   <composer>  "
6, 0, End_track
0, 0, End_of_file
