0, 0, Header, 1, 6, 96
1, 0, Start_track
1, 0, Copyright_t, "Copyright  2000 <copyright holder>"
1, 0, Text_t, "Sonata III\015\012"
1, 0, Text_t, "Haydn\015\012"
1, 0, Sequencer_specific, 17, 68, 87, 77, 90, 86, 82, 83, 78, 32, 55, 46, 48, 46, 49, 48, 46, 48
1, 0, Time_signature, 4, 2, 24, 8
1, 0, Tempo, 1818181
1, 0, Key_signature, -2, "major"
1, 14208, End_track
2, 0, Start_track
2, 0, Program_c, 0, 0
2, 0, Control_c, 0, 7, 127
2, 0, Control_c, 0, 10, 64
2, 0, Note_on_c, 0, 60, 58
2, 4, Note_on_c, 0, 60, 0
2, 4, Note_on_c, 0, 58, 58
2, 8, Note_on_c, 0, 58, 0
2, 8, Note_on_c, 0, 57, 58
2, 12, Note_on_c, 0, 57, 0
2, 12, Note_on_c, 0, 58, 58
2, 35, Note_on_c, 0, 58, 0
2, 36, Note_on_c, 0, 62, 58
2, 48, Note_on_c, 0, 62, 0
2, 48, Note_on_c, 0, 58, 58
2, 93, Note_on_c, 0, 58, 0
2, 132, Note_on_c, 0, 65, 58
2, 144, Note_on_c, 0, 65, 0
2, 144, Note_on_c, 0, 74, 58
2, 178, Note_on_c, 0, 74, 0
2, 180, Note_on_c, 0, 70, 58
2, 192, Note_on_c, 0, 70, 0
2, 192, Note_on_c, 0, 69, 58
2, 196, Note_on_c, 0, 69, 0
2, 196, Note_on_c, 0, 70, 58
2, 200, Note_on_c, 0, 70, 0
2, 200, Note_on_c, 0, 72, 58
2, 204, Note_on_c, 0, 72, 0
2, 204, Note_on_c, 0, 70, 58
2, 249, Note_on_c, 0, 70, 0
2, 252, Note_on_c, 0, 69, 58
2, 258, Note_on_c, 0, 69, 0
2, 258, Note_on_c, 0, 70, 58
2, 264, Note_on_c, 0, 70, 0
2, 264, Note_on_c, 0, 72, 58
2, 270, Note_on_c, 0, 72, 0
2, 270, Note_on_c, 0, 70, 58
2, 276, Note_on_c, 0, 70, 0
2, 276, Note_on_c, 0, 69, 58
2, 282, Note_on_c, 0, 69, 0
2, 282, Note_on_c, 0, 70, 58
2, 288, Note_on_c, 0, 70, 0
2, 288, Note_on_c, 0, 69, 58
2, 308, Note_on_c, 0, 69, 0
2, 384, Note_on_c, 0, 62, 58
2, 388, Note_on_c, 0, 62, 0
2, 388, Note_on_c, 0, 60, 58
2, 392, Note_on_c, 0, 60, 0
2, 392, Note_on_c, 0, 58, 58
2, 396, Note_on_c, 0, 58, 0
2, 396, Note_on_c, 0, 60, 58
2, 419, Note_on_c, 0, 60, 0
2, 420, Note_on_c, 0, 63, 58
2, 432, Note_on_c, 0, 63, 0
2, 432, Note_on_c, 0, 60, 58
2, 477, Note_on_c, 0, 60, 0
2, 516, Note_on_c, 0, 72, 58
2, 528, Note_on_c, 0, 72, 0
2, 528, Note_on_c, 0, 79, 58
2, 562, Note_on_c, 0, 79, 0
2, 564, Note_on_c, 0, 75, 58
2, 576, Note_on_c, 0, 75, 0
2, 576, Note_on_c, 0, 74, 58
2, 580, Note_on_c, 0, 74, 0
2, 580, Note_on_c, 0, 75, 58
2, 584, Note_on_c, 0, 75, 0
2, 584, Note_on_c, 0, 77, 58
2, 588, Note_on_c, 0, 77, 0
2, 588, Note_on_c, 0, 75, 58
2, 633, Note_on_c, 0, 75, 0
2, 636, Note_on_c, 0, 74, 58
2, 642, Note_on_c, 0, 74, 0
2, 642, Note_on_c, 0, 75, 58
2, 648, Note_on_c, 0, 75, 0
2, 648, Note_on_c, 0, 77, 58
2, 654, Note_on_c, 0, 77, 0
2, 654, Note_on_c, 0, 75, 58
2, 660, Note_on_c, 0, 75, 0
2, 660, Note_on_c, 0, 74, 58
2, 666, Note_on_c, 0, 74, 0
2, 666, Note_on_c, 0, 75, 58
2, 672, Note_on_c, 0, 75, 0
2, 672, Note_on_c, 0, 74, 58
2, 692, Note_on_c, 0, 74, 0
2, 768, Note_on_c, 0, 67, 58
2, 857, Note_on_c, 0, 67, 0
2, 864, Note_on_c, 0, 84, 58
2, 868, Note_on_c, 0, 84, 0
2, 868, Note_on_c, 0, 82, 58
2, 872, Note_on_c, 0, 82, 0
2, 872, Note_on_c, 0, 81, 58
2, 876, Note_on_c, 0, 81, 0
2, 876, Note_on_c, 0, 82, 58
2, 936, Note_on_c, 0, 82, 0
2, 936, Note_on_c, 0, 79, 58
2, 959, Note_on_c, 0, 79, 0
2, 960, Note_on_c, 0, 79, 58
2, 983, Note_on_c, 0, 79, 0
2, 984, Note_on_c, 0, 77, 59
2, 1007, Note_on_c, 0, 77, 0
2, 1008, Note_on_c, 0, 75, 60
2, 1031, Note_on_c, 0, 75, 0
2, 1032, Note_on_c, 0, 74, 61
2, 1055, Note_on_c, 0, 74, 0
2, 1056, Note_on_c, 0, 72, 62
2, 1079, Note_on_c, 0, 72, 0
2, 1080, Note_on_c, 0, 70, 63
2, 1103, Note_on_c, 0, 70, 0
2, 1104, Note_on_c, 0, 69, 64
2, 1127, Note_on_c, 0, 69, 0
2, 1128, Note_on_c, 0, 67, 65
2, 1151, Note_on_c, 0, 67, 0
2, 1152, Note_on_c, 0, 65, 67
2, 1241, Note_on_c, 0, 65, 0
2, 1248, Note_on_c, 0, 63, 67
2, 1253, Note_on_c, 0, 63, 0
2, 1253, Note_on_c, 0, 65, 67
2, 1258, Note_on_c, 0, 65, 0
2, 1258, Note_on_c, 0, 63, 67
2, 1263, Note_on_c, 0, 63, 0
2, 1263, Note_on_c, 0, 65, 67
2, 1268, Note_on_c, 0, 65, 0
2, 1268, Note_on_c, 0, 63, 67
2, 1272, Note_on_c, 0, 63, 0
2, 1272, Note_on_c, 0, 65, 67
2, 1277, Note_on_c, 0, 65, 0
2, 1277, Note_on_c, 0, 63, 67
2, 1282, Note_on_c, 0, 63, 0
2, 1282, Note_on_c, 0, 65, 67
2, 1287, Note_on_c, 0, 65, 0
2, 1287, Note_on_c, 0, 63, 67
2, 1292, Note_on_c, 0, 63, 0
2, 1292, Note_on_c, 0, 65, 67
2, 1296, Note_on_c, 0, 65, 0
2, 1296, Note_on_c, 0, 63, 58
2, 1301, Note_on_c, 0, 63, 0
2, 1301, Note_on_c, 0, 65, 58
2, 1306, Note_on_c, 0, 65, 0
2, 1306, Note_on_c, 0, 63, 58
2, 1311, Note_on_c, 0, 63, 0
2, 1311, Note_on_c, 0, 65, 58
2, 1316, Note_on_c, 0, 65, 0
2, 1316, Note_on_c, 0, 63, 58
2, 1320, Note_on_c, 0, 63, 0
2, 1320, Note_on_c, 0, 62, 58
2, 1332, Note_on_c, 0, 62, 0
2, 1332, Note_on_c, 0, 63, 62
2, 1344, Note_on_c, 0, 63, 0
2, 1344, Note_on_c, 0, 63, 67
2, 1440, Note_on_c, 0, 63, 0
2, 1440, Note_on_c, 0, 62, 61
2, 1485, Note_on_c, 0, 62, 0
2, 1548, Note_on_c, 0, 55, 58
2, 1560, Note_on_c, 0, 55, 0
2, 1560, Note_on_c, 0, 60, 58
2, 1572, Note_on_c, 0, 60, 0
2, 1572, Note_on_c, 0, 59, 59
2, 1584, Note_on_c, 0, 59, 0
2, 1584, Note_on_c, 0, 62, 60
2, 1596, Note_on_c, 0, 62, 0
2, 1596, Note_on_c, 0, 60, 61
2, 1608, Note_on_c, 0, 60, 0
2, 1608, Note_on_c, 0, 63, 62
2, 1620, Note_on_c, 0, 63, 0
2, 1620, Note_on_c, 0, 62, 62
2, 1632, Note_on_c, 0, 62, 0
2, 1632, Note_on_c, 0, 65, 63
2, 1644, Note_on_c, 0, 65, 0
2, 1644, Note_on_c, 0, 63, 64
2, 1656, Note_on_c, 0, 63, 0
2, 1656, Note_on_c, 0, 67, 65
2, 1668, Note_on_c, 0, 67, 0
2, 1668, Note_on_c, 0, 66, 66
2, 1680, Note_on_c, 0, 66, 0
2, 1680, Note_on_c, 0, 67, 67
2, 1692, Note_on_c, 0, 67, 0
2, 1692, Note_on_c, 0, 63, 65
2, 1704, Note_on_c, 0, 63, 0
2, 1704, Note_on_c, 0, 62, 64
2, 1716, Note_on_c, 0, 62, 0
2, 1716, Note_on_c, 0, 60, 63
2, 1728, Note_on_c, 0, 60, 0
2, 1728, Note_on_c, 0, 65, 62
2, 1788, Note_on_c, 0, 65, 0
2, 1788, Note_on_c, 0, 67, 58
2, 1792, Note_on_c, 0, 67, 0
2, 1792, Note_on_c, 0, 65, 58
2, 1796, Note_on_c, 0, 65, 0
2, 1796, Note_on_c, 0, 63, 58
2, 1800, Note_on_c, 0, 63, 0
2, 1800, Note_on_c, 0, 65, 58
2, 1812, Note_on_c, 0, 65, 0
2, 1812, Note_on_c, 0, 67, 58
2, 1824, Note_on_c, 0, 67, 0
2, 1824, Note_on_c, 0, 58, 58
2, 1872, Note_on_c, 0, 58, 0
2, 1872, Note_on_c, 0, 57, 58
2, 1917, Note_on_c, 0, 57, 0
2, 1920, Note_on_c, 0, 58, 58
2, 1932, Note_on_c, 0, 58, 0
2, 1932, Note_on_c, 0, 62, 58
2, 1944, Note_on_c, 0, 62, 0
2, 1944, Note_on_c, 0, 53, 58
2, 1956, Note_on_c, 0, 53, 0
2, 1956, Note_on_c, 0, 58, 58
2, 1968, Note_on_c, 0, 58, 0
2, 2112, Note_on_c, 0, 79, 67
2, 2116, Note_on_c, 0, 79, 0
2, 2116, Note_on_c, 0, 77, 67
2, 2120, Note_on_c, 0, 77, 0
2, 2120, Note_on_c, 0, 76, 67
2, 2124, Note_on_c, 0, 76, 0
2, 2124, Note_on_c, 0, 77, 67
2, 2203, Note_on_c, 0, 77, 0
2, 2220, Note_on_c, 0, 77, 67
2, 2232, Note_on_c, 0, 77, 0
2, 2232, Note_on_c, 0, 76, 67
2, 2244, Note_on_c, 0, 76, 0
2, 2244, Note_on_c, 0, 77, 67
2, 2256, Note_on_c, 0, 77, 0
2, 2256, Note_on_c, 0, 79, 67
2, 2268, Note_on_c, 0, 79, 0
2, 2268, Note_on_c, 0, 77, 67
2, 2280, Note_on_c, 0, 77, 0
2, 2280, Note_on_c, 0, 76, 67
2, 2292, Note_on_c, 0, 76, 0
2, 2292, Note_on_c, 0, 77, 67
2, 2304, Note_on_c, 0, 77, 0
2, 2304, Note_on_c, 0, 79, 67
2, 2308, Note_on_c, 0, 79, 0
2, 2308, Note_on_c, 0, 77, 67
2, 2312, Note_on_c, 0, 77, 0
2, 2312, Note_on_c, 0, 76, 67
2, 2316, Note_on_c, 0, 76, 0
2, 2316, Note_on_c, 0, 77, 67
2, 2395, Note_on_c, 0, 77, 0
2, 2412, Note_on_c, 0, 77, 67
2, 2424, Note_on_c, 0, 77, 0
2, 2424, Note_on_c, 0, 76, 68
2, 2436, Note_on_c, 0, 76, 0
2, 2436, Note_on_c, 0, 77, 69
2, 2448, Note_on_c, 0, 77, 0
2, 2448, Note_on_c, 0, 79, 70
2, 2460, Note_on_c, 0, 79, 0
2, 2460, Note_on_c, 0, 77, 71
2, 2472, Note_on_c, 0, 77, 0
2, 2472, Note_on_c, 0, 81, 72
2, 2484, Note_on_c, 0, 81, 0
2, 2484, Note_on_c, 0, 84, 73
2, 2496, Note_on_c, 0, 84, 0
2, 2496, Note_on_c, 0, 84, 91
2, 2508, Note_on_c, 0, 84, 0
2, 2508, Note_on_c, 0, 82, 73
2, 2520, Note_on_c, 0, 82, 0
2, 2520, Note_on_c, 0, 82, 72
2, 2532, Note_on_c, 0, 82, 0
2, 2532, Note_on_c, 0, 81, 71
2, 2544, Note_on_c, 0, 81, 0
2, 2544, Note_on_c, 0, 81, 70
2, 2556, Note_on_c, 0, 81, 0
2, 2556, Note_on_c, 0, 79, 69
2, 2568, Note_on_c, 0, 79, 0
2, 2568, Note_on_c, 0, 79, 68
2, 2580, Note_on_c, 0, 79, 0
2, 2580, Note_on_c, 0, 77, 67
2, 2592, Note_on_c, 0, 77, 0
2, 2592, Note_on_c, 0, 77, 66
2, 2604, Note_on_c, 0, 77, 0
2, 2604, Note_on_c, 0, 76, 65
2, 2616, Note_on_c, 0, 76, 0
2, 2616, Note_on_c, 0, 76, 64
2, 2628, Note_on_c, 0, 76, 0
2, 2628, Note_on_c, 0, 74, 63
2, 2640, Note_on_c, 0, 74, 0
2, 2640, Note_on_c, 0, 74, 62
2, 2652, Note_on_c, 0, 74, 0
2, 2652, Note_on_c, 0, 72, 61
2, 2664, Note_on_c, 0, 72, 0
2, 2664, Note_on_c, 0, 72, 60
2, 2676, Note_on_c, 0, 72, 0
2, 2676, Note_on_c, 0, 70, 59
2, 2688, Note_on_c, 0, 70, 0
2, 2688, Note_on_c, 0, 69, 67
2, 2700, Note_on_c, 0, 69, 0
2, 2700, Note_on_c, 0, 72, 67
2, 2712, Note_on_c, 0, 72, 0
2, 2712, Note_on_c, 0, 70, 68
2, 2724, Note_on_c, 0, 70, 0
2, 2724, Note_on_c, 0, 69, 69
2, 2736, Note_on_c, 0, 69, 0
2, 2736, Note_on_c, 0, 70, 69
2, 2748, Note_on_c, 0, 70, 0
2, 2748, Note_on_c, 0, 72, 70
2, 2760, Note_on_c, 0, 72, 0
2, 2760, Note_on_c, 0, 74, 71
2, 2772, Note_on_c, 0, 74, 0
2, 2772, Note_on_c, 0, 76, 71
2, 2784, Note_on_c, 0, 76, 0
2, 2784, Note_on_c, 0, 77, 72
2, 2789, Note_on_c, 0, 77, 0
2, 2796, Note_on_c, 0, 79, 73
2, 2801, Note_on_c, 0, 79, 0
2, 2808, Note_on_c, 0, 81, 73
2, 2813, Note_on_c, 0, 81, 0
2, 2820, Note_on_c, 0, 82, 74
2, 2825, Note_on_c, 0, 82, 0
2, 2832, Note_on_c, 0, 84, 83
2, 2847, Note_on_c, 0, 84, 0
2, 2868, Note_on_c, 0, 69, 63
2, 2880, Note_on_c, 0, 69, 0
2, 2880, Note_on_c, 0, 70, 62
2, 2885, Note_on_c, 0, 70, 0
2, 2885, Note_on_c, 0, 69, 62
2, 2890, Note_on_c, 0, 69, 0
2, 2890, Note_on_c, 0, 70, 62
2, 2895, Note_on_c, 0, 70, 0
2, 2895, Note_on_c, 0, 69, 62
2, 2900, Note_on_c, 0, 69, 0
2, 2900, Note_on_c, 0, 70, 62
2, 2905, Note_on_c, 0, 70, 0
2, 2905, Note_on_c, 0, 69, 62
2, 2910, Note_on_c, 0, 69, 0
2, 2910, Note_on_c, 0, 70, 62
2, 2915, Note_on_c, 0, 70, 0
2, 2915, Note_on_c, 0, 69, 62
2, 2920, Note_on_c, 0, 69, 0
2, 2920, Note_on_c, 0, 67, 62
2, 2924, Note_on_c, 0, 67, 0
2, 2924, Note_on_c, 0, 69, 62
2, 2928, Note_on_c, 0, 69, 0
2, 2928, Note_on_c, 0, 67, 58
2, 2973, Note_on_c, 0, 67, 0
2, 3072, Note_on_c, 0, 72, 67
2, 3139, Note_on_c, 0, 72, 0
2, 3144, Note_on_c, 0, 74, 67
2, 3156, Note_on_c, 0, 74, 0
2, 3156, Note_on_c, 0, 72, 67
2, 3168, Note_on_c, 0, 72, 0
2, 3168, Note_on_c, 0, 64, 67
2, 3213, Note_on_c, 0, 64, 0
2, 3276, Note_on_c, 0, 84, 67
2, 3288, Note_on_c, 0, 84, 0
2, 3288, Note_on_c, 0, 82, 67
2, 3300, Note_on_c, 0, 82, 0
2, 3300, Note_on_c, 0, 81, 67
2, 3312, Note_on_c, 0, 81, 0
2, 3312, Note_on_c, 0, 79, 67
2, 3324, Note_on_c, 0, 79, 0
2, 3324, Note_on_c, 0, 77, 67
2, 3336, Note_on_c, 0, 77, 0
2, 3336, Note_on_c, 0, 76, 67
2, 3348, Note_on_c, 0, 76, 0
2, 3348, Note_on_c, 0, 74, 67
2, 3360, Note_on_c, 0, 74, 0
2, 3360, Note_on_c, 0, 72, 67
2, 3405, Note_on_c, 0, 72, 0
2, 3408, Note_on_c, 0, 70, 67
2, 3412, Note_on_c, 0, 70, 0
2, 3412, Note_on_c, 0, 72, 67
2, 3416, Note_on_c, 0, 72, 0
2, 3416, Note_on_c, 0, 70, 67
2, 3420, Note_on_c, 0, 70, 0
2, 3420, Note_on_c, 0, 72, 67
2, 3424, Note_on_c, 0, 72, 0
2, 3424, Note_on_c, 0, 70, 67
2, 3428, Note_on_c, 0, 70, 0
2, 3428, Note_on_c, 0, 72, 67
2, 3432, Note_on_c, 0, 72, 0
2, 3432, Note_on_c, 0, 70, 67
2, 3455, Note_on_c, 0, 70, 0
2, 3456, Note_on_c, 0, 69, 67
2, 3462, Note_on_c, 0, 69, 0
2, 3462, Note_on_c, 0, 72, 67
2, 3523, Note_on_c, 0, 72, 0
2, 3528, Note_on_c, 0, 74, 67
2, 3540, Note_on_c, 0, 74, 0
2, 3540, Note_on_c, 0, 72, 67
2, 3552, Note_on_c, 0, 72, 0
2, 3552, Note_on_c, 0, 64, 67
2, 3597, Note_on_c, 0, 64, 0
2, 3660, Note_on_c, 0, 84, 67
2, 3672, Note_on_c, 0, 84, 0
2, 3672, Note_on_c, 0, 82, 67
2, 3684, Note_on_c, 0, 82, 0
2, 3684, Note_on_c, 0, 81, 67
2, 3696, Note_on_c, 0, 81, 0
2, 3696, Note_on_c, 0, 79, 67
2, 3708, Note_on_c, 0, 79, 0
2, 3708, Note_on_c, 0, 77, 67
2, 3720, Note_on_c, 0, 77, 0
2, 3720, Note_on_c, 0, 76, 67
2, 3732, Note_on_c, 0, 76, 0
2, 3732, Note_on_c, 0, 74, 67
2, 3744, Note_on_c, 0, 74, 0
2, 3744, Note_on_c, 0, 72, 67
2, 3789, Note_on_c, 0, 72, 0
2, 3792, Note_on_c, 0, 70, 67
2, 3796, Note_on_c, 0, 70, 0
2, 3796, Note_on_c, 0, 72, 67
2, 3800, Note_on_c, 0, 72, 0
2, 3800, Note_on_c, 0, 70, 67
2, 3804, Note_on_c, 0, 70, 0
2, 3804, Note_on_c, 0, 72, 67
2, 3808, Note_on_c, 0, 72, 0
2, 3808, Note_on_c, 0, 70, 67
2, 3812, Note_on_c, 0, 70, 0
2, 3812, Note_on_c, 0, 72, 67
2, 3816, Note_on_c, 0, 72, 0
2, 3816, Note_on_c, 0, 70, 67
2, 3839, Note_on_c, 0, 70, 0
2, 3840, Note_on_c, 0, 69, 67
2, 3863, Note_on_c, 0, 69, 0
2, 3864, Note_on_c, 0, 77, 67
2, 3887, Note_on_c, 0, 77, 0
2, 3912, Note_on_c, 0, 77, 68
2, 3935, Note_on_c, 0, 77, 0
2, 3960, Note_on_c, 0, 76, 69
2, 3983, Note_on_c, 0, 76, 0
2, 4008, Note_on_c, 0, 75, 70
2, 4031, Note_on_c, 0, 75, 0
2, 4056, Note_on_c, 0, 74, 71
2, 4079, Note_on_c, 0, 74, 0
2, 4104, Note_on_c, 0, 81, 72
2, 4127, Note_on_c, 0, 81, 0
2, 4152, Note_on_c, 0, 82, 73
2, 4175, Note_on_c, 0, 82, 0
2, 4200, Note_on_c, 0, 86, 74
2, 4223, Note_on_c, 0, 86, 0
2, 4224, Note_on_c, 0, 84, 75
2, 4284, Note_on_c, 0, 84, 0
2, 4284, Note_on_c, 0, 86, 75
2, 4288, Note_on_c, 0, 86, 0
2, 4288, Note_on_c, 0, 84, 75
2, 4292, Note_on_c, 0, 84, 0
2, 4292, Note_on_c, 0, 82, 75
2, 4296, Note_on_c, 0, 82, 0
2, 4296, Note_on_c, 0, 84, 75
2, 4308, Note_on_c, 0, 84, 0
2, 4308, Note_on_c, 0, 86, 75
2, 4320, Note_on_c, 0, 86, 0
2, 4320, Note_on_c, 0, 77, 75
2, 4365, Note_on_c, 0, 77, 0
2, 4368, Note_on_c, 0, 76, 75
2, 4413, Note_on_c, 0, 76, 0
2, 4416, Note_on_c, 0, 79, 75
2, 4420, Note_on_c, 0, 79, 0
2, 4420, Note_on_c, 0, 77, 75
2, 4424, Note_on_c, 0, 77, 0
2, 4424, Note_on_c, 0, 76, 75
2, 4428, Note_on_c, 0, 76, 0
2, 4428, Note_on_c, 0, 77, 75
2, 4440, Note_on_c, 0, 77, 0
2, 4440, Note_on_c, 0, 79, 75
2, 4452, Note_on_c, 0, 79, 0
2, 4452, Note_on_c, 0, 81, 75
2, 4464, Note_on_c, 0, 81, 0
2, 4464, Note_on_c, 0, 79, 75
2, 4476, Note_on_c, 0, 79, 0
2, 4476, Note_on_c, 0, 77, 75
2, 4488, Note_on_c, 0, 77, 0
2, 4488, Note_on_c, 0, 76, 75
2, 4500, Note_on_c, 0, 76, 0
2, 4500, Note_on_c, 0, 74, 75
2, 4512, Note_on_c, 0, 74, 0
2, 4512, Note_on_c, 0, 72, 75
2, 4557, Note_on_c, 0, 72, 0
2, 4560, Note_on_c, 0, 71, 75
2, 4563, Note_on_c, 0, 71, 0
2, 4563, Note_on_c, 0, 72, 75
2, 4566, Note_on_c, 0, 72, 0
2, 4566, Note_on_c, 0, 71, 75
2, 4569, Note_on_c, 0, 71, 0
2, 4569, Note_on_c, 0, 72, 75
2, 4572, Note_on_c, 0, 72, 0
2, 4572, Note_on_c, 0, 71, 75
2, 4606, Note_on_c, 0, 71, 0
2, 4620, Note_on_c, 0, 81, 75
2, 4632, Note_on_c, 0, 81, 0
2, 4632, Note_on_c, 0, 79, 75
2, 4644, Note_on_c, 0, 79, 0
2, 4644, Note_on_c, 0, 77, 75
2, 4656, Note_on_c, 0, 77, 0
2, 4656, Note_on_c, 0, 76, 75
2, 4668, Note_on_c, 0, 76, 0
2, 4668, Note_on_c, 0, 74, 75
2, 4680, Note_on_c, 0, 74, 0
2, 4680, Note_on_c, 0, 72, 75
2, 4692, Note_on_c, 0, 72, 0
2, 4692, Note_on_c, 0, 71, 75
2, 4704, Note_on_c, 0, 71, 0
2, 4716, Note_on_c, 0, 81, 75
2, 4728, Note_on_c, 0, 81, 0
2, 4728, Note_on_c, 0, 79, 75
2, 4740, Note_on_c, 0, 79, 0
2, 4740, Note_on_c, 0, 77, 75
2, 4752, Note_on_c, 0, 77, 0
2, 4752, Note_on_c, 0, 76, 75
2, 4764, Note_on_c, 0, 76, 0
2, 4764, Note_on_c, 0, 74, 75
2, 4776, Note_on_c, 0, 74, 0
2, 4776, Note_on_c, 0, 72, 75
2, 4788, Note_on_c, 0, 72, 0
2, 4788, Note_on_c, 0, 71, 75
2, 4800, Note_on_c, 0, 71, 0
2, 4812, Note_on_c, 0, 70, 75
2, 4824, Note_on_c, 0, 70, 0
2, 4824, Note_on_c, 0, 72, 75
2, 4836, Note_on_c, 0, 72, 0
2, 4836, Note_on_c, 0, 74, 75
2, 4848, Note_on_c, 0, 74, 0
2, 4848, Note_on_c, 0, 76, 75
2, 4860, Note_on_c, 0, 76, 0
2, 4860, Note_on_c, 0, 77, 75
2, 4872, Note_on_c, 0, 77, 0
2, 4872, Note_on_c, 0, 79, 75
2, 4884, Note_on_c, 0, 79, 0
2, 4884, Note_on_c, 0, 81, 75
2, 4896, Note_on_c, 0, 81, 0
2, 4896, Note_on_c, 0, 82, 75
2, 4908, Note_on_c, 0, 82, 0
2, 4908, Note_on_c, 0, 81, 75
2, 4920, Note_on_c, 0, 81, 0
2, 4920, Note_on_c, 0, 84, 75
2, 4932, Note_on_c, 0, 84, 0
2, 4932, Note_on_c, 0, 82, 75
2, 4944, Note_on_c, 0, 82, 0
2, 4944, Note_on_c, 0, 86, 75
2, 4954, Note_on_c, 0, 86, 0
2, 4968, Note_on_c, 0, 86, 75
2, 4978, Note_on_c, 0, 86, 0
2, 4992, Note_on_c, 0, 85, 75
2, 4996, Note_on_c, 0, 85, 0
2, 4996, Note_on_c, 0, 86, 75
2, 5000, Note_on_c, 0, 86, 0
2, 5000, Note_on_c, 0, 88, 75
2, 5004, Note_on_c, 0, 88, 0
2, 5004, Note_on_c, 0, 86, 75
2, 5155, Note_on_c, 0, 86, 0
2, 5160, Note_on_c, 0, 84, 75
2, 5172, Note_on_c, 0, 84, 0
2, 5172, Note_on_c, 0, 82, 75
2, 5184, Note_on_c, 0, 82, 0
2, 5184, Note_on_c, 0, 81, 75
2, 5196, Note_on_c, 0, 81, 0
2, 5196, Note_on_c, 0, 89, 75
2, 5208, Note_on_c, 0, 89, 0
2, 5208, Note_on_c, 0, 88, 75
2, 5220, Note_on_c, 0, 88, 0
2, 5220, Note_on_c, 0, 86, 75
2, 5232, Note_on_c, 0, 86, 0
2, 5232, Note_on_c, 0, 84, 75
2, 5244, Note_on_c, 0, 84, 0
2, 5244, Note_on_c, 0, 83, 75
2, 5256, Note_on_c, 0, 83, 0
2, 5256, Note_on_c, 0, 84, 75
2, 5268, Note_on_c, 0, 84, 0
2, 5268, Note_on_c, 0, 85, 75
2, 5280, Note_on_c, 0, 85, 0
2, 5280, Note_on_c, 0, 86, 75
2, 5292, Note_on_c, 0, 86, 0
2, 5292, Note_on_c, 0, 81, 75
2, 5304, Note_on_c, 0, 81, 0
2, 5304, Note_on_c, 0, 82, 75
2, 5316, Note_on_c, 0, 82, 0
2, 5316, Note_on_c, 0, 78, 75
2, 5328, Note_on_c, 0, 78, 0
2, 5328, Note_on_c, 0, 79, 75
2, 5340, Note_on_c, 0, 79, 0
2, 5340, Note_on_c, 0, 82, 75
2, 5352, Note_on_c, 0, 82, 0
2, 5352, Note_on_c, 0, 74, 75
2, 5364, Note_on_c, 0, 74, 0
2, 5364, Note_on_c, 0, 82, 75
2, 5376, Note_on_c, 0, 82, 0
2, 5376, Note_on_c, 0, 72, 75
2, 5465, Note_on_c, 0, 72, 0
2, 5472, Note_on_c, 0, 81, 75
2, 5477, Note_on_c, 0, 81, 0
2, 5477, Note_on_c, 0, 79, 75
2, 5482, Note_on_c, 0, 79, 0
2, 5482, Note_on_c, 0, 81, 75
2, 5487, Note_on_c, 0, 81, 0
2, 5487, Note_on_c, 0, 79, 75
2, 5492, Note_on_c, 0, 79, 0
2, 5492, Note_on_c, 0, 81, 75
2, 5497, Note_on_c, 0, 81, 0
2, 5497, Note_on_c, 0, 79, 75
2, 5502, Note_on_c, 0, 79, 0
2, 5502, Note_on_c, 0, 81, 75
2, 5507, Note_on_c, 0, 81, 0
2, 5507, Note_on_c, 0, 79, 75
2, 5512, Note_on_c, 0, 79, 0
2, 5512, Note_on_c, 0, 81, 75
2, 5517, Note_on_c, 0, 81, 0
2, 5517, Note_on_c, 0, 79, 75
2, 5522, Note_on_c, 0, 79, 0
2, 5522, Note_on_c, 0, 81, 75
2, 5527, Note_on_c, 0, 81, 0
2, 5527, Note_on_c, 0, 79, 75
2, 5532, Note_on_c, 0, 79, 0
2, 5532, Note_on_c, 0, 81, 75
2, 5537, Note_on_c, 0, 81, 0
2, 5537, Note_on_c, 0, 79, 75
2, 5542, Note_on_c, 0, 79, 0
2, 5542, Note_on_c, 0, 81, 75
2, 5547, Note_on_c, 0, 81, 0
2, 5547, Note_on_c, 0, 79, 75
2, 5552, Note_on_c, 0, 79, 0
2, 5552, Note_on_c, 0, 81, 75
2, 5556, Note_on_c, 0, 81, 0
2, 5556, Note_on_c, 0, 79, 75
2, 5560, Note_on_c, 0, 79, 0
2, 5560, Note_on_c, 0, 77, 75
2, 5564, Note_on_c, 0, 77, 0
2, 5564, Note_on_c, 0, 79, 75
2, 5568, Note_on_c, 0, 79, 0
2, 5568, Note_on_c, 0, 77, 75
2, 5580, Note_on_c, 0, 77, 0
2, 5580, Note_on_c, 0, 84, 75
2, 5592, Note_on_c, 0, 84, 0
2, 5592, Note_on_c, 0, 82, 75
2, 5604, Note_on_c, 0, 82, 0
2, 5604, Note_on_c, 0, 81, 75
2, 5616, Note_on_c, 0, 81, 0
2, 5616, Note_on_c, 0, 79, 75
2, 5628, Note_on_c, 0, 79, 0
2, 5628, Note_on_c, 0, 77, 75
2, 5640, Note_on_c, 0, 77, 0
2, 5640, Note_on_c, 0, 76, 75
2, 5652, Note_on_c, 0, 76, 0
2, 5652, Note_on_c, 0, 74, 75
2, 5664, Note_on_c, 0, 74, 0
2, 5664, Note_on_c, 0, 72, 75
2, 5664, Note_on_c, 0, 69, 75
2, 5731, Note_on_c, 0, 72, 0
2, 5731, Note_on_c, 0, 69, 0
2, 5736, Note_on_c, 0, 70, 75
2, 5736, Note_on_c, 0, 67, 75
2, 5759, Note_on_c, 0, 70, 0
2, 5759, Note_on_c, 0, 67, 0
2, 5760, Note_on_c, 0, 69, 75
2, 5760, Note_on_c, 0, 65, 75
2, 5772, Note_on_c, 0, 69, 0
2, 5772, Note_on_c, 0, 65, 0
2, 5772, Note_on_c, 0, 72, 73
2, 5784, Note_on_c, 0, 72, 0
2, 5784, Note_on_c, 0, 70, 72
2, 5796, Note_on_c, 0, 70, 0
2, 5796, Note_on_c, 0, 69, 71
2, 5808, Note_on_c, 0, 69, 0
2, 5808, Note_on_c, 0, 67, 70
2, 5820, Note_on_c, 0, 67, 0
2, 5820, Note_on_c, 0, 65, 69
2, 5832, Note_on_c, 0, 65, 0
2, 5832, Note_on_c, 0, 64, 68
2, 5844, Note_on_c, 0, 64, 0
2, 5844, Note_on_c, 0, 62, 67
2, 5856, Note_on_c, 0, 62, 0
2, 5856, Note_on_c, 0, 60, 66
2, 5856, Note_on_c, 0, 57, 66
2, 5923, Note_on_c, 0, 60, 0
2, 5923, Note_on_c, 0, 57, 0
2, 5928, Note_on_c, 0, 58, 60
2, 5928, Note_on_c, 0, 52, 60
2, 5951, Note_on_c, 0, 58, 0
2, 5951, Note_on_c, 0, 52, 0
2, 5952, Note_on_c, 0, 58, 58
2, 5952, Note_on_c, 0, 52, 58
2, 6048, Note_on_c, 0, 58, 0
2, 6048, Note_on_c, 0, 52, 0
2, 6048, Note_on_c, 0, 57, 58
2, 6048, Note_on_c, 0, 53, 58
2, 6115, Note_on_c, 0, 57, 0
2, 6115, Note_on_c, 0, 53, 0
2, 6144, Note_on_c, 0, 79, 67
2, 6148, Note_on_c, 0, 79, 0
2, 6148, Note_on_c, 0, 77, 67
2, 6152, Note_on_c, 0, 77, 0
2, 6152, Note_on_c, 0, 76, 67
2, 6156, Note_on_c, 0, 76, 0
2, 6156, Note_on_c, 0, 77, 67
2, 6213, Note_on_c, 0, 77, 0
2, 6216, Note_on_c, 0, 79, 67
2, 6228, Note_on_c, 0, 79, 0
2, 6228, Note_on_c, 0, 77, 67
2, 6240, Note_on_c, 0, 77, 0
2, 6240, Note_on_c, 0, 69, 67
2, 6285, Note_on_c, 0, 69, 0
2, 6336, Note_on_c, 0, 79, 67
2, 6340, Note_on_c, 0, 79, 0
2, 6340, Note_on_c, 0, 77, 67
2, 6344, Note_on_c, 0, 77, 0
2, 6344, Note_on_c, 0, 76, 67
2, 6348, Note_on_c, 0, 76, 0
2, 6348, Note_on_c, 0, 77, 67
2, 6405, Note_on_c, 0, 77, 0
2, 6408, Note_on_c, 0, 79, 67
2, 6420, Note_on_c, 0, 79, 0
2, 6420, Note_on_c, 0, 77, 67
2, 6432, Note_on_c, 0, 77, 0
2, 6432, Note_on_c, 0, 70, 67
2, 6477, Note_on_c, 0, 70, 0
2, 6528, Note_on_c, 0, 80, 83
2, 6600, Note_on_c, 0, 80, 0
2, 6600, Note_on_c, 0, 84, 67
2, 6612, Note_on_c, 0, 84, 0
2, 6612, Note_on_c, 0, 82, 67
2, 6624, Note_on_c, 0, 82, 0
2, 6624, Note_on_c, 0, 80, 67
2, 6636, Note_on_c, 0, 80, 0
2, 6636, Note_on_c, 0, 79, 67
2, 6648, Note_on_c, 0, 79, 0
2, 6648, Note_on_c, 0, 77, 67
2, 6660, Note_on_c, 0, 77, 0
2, 6660, Note_on_c, 0, 75, 67
2, 6672, Note_on_c, 0, 75, 0
2, 6672, Note_on_c, 0, 74, 67
2, 6684, Note_on_c, 0, 74, 0
2, 6684, Note_on_c, 0, 72, 67
2, 6696, Note_on_c, 0, 72, 0
2, 6696, Note_on_c, 0, 70, 67
2, 6708, Note_on_c, 0, 70, 0
2, 6708, Note_on_c, 0, 68, 67
2, 6720, Note_on_c, 0, 68, 0
2, 6720, Note_on_c, 0, 67, 67
2, 6743, Note_on_c, 0, 67, 0
2, 6744, Note_on_c, 0, 70, 67
2, 6767, Note_on_c, 0, 70, 0
2, 6792, Note_on_c, 0, 70, 67
2, 6815, Note_on_c, 0, 70, 0
2, 6840, Note_on_c, 0, 62, 67
2, 6863, Note_on_c, 0, 62, 0
2, 6888, Note_on_c, 0, 74, 67
2, 6911, Note_on_c, 0, 74, 0
2, 6912, Note_on_c, 0, 75, 67
2, 6936, Note_on_c, 0, 75, 0
2, 6936, Note_on_c, 0, 79, 68
2, 6959, Note_on_c, 0, 79, 0
2, 6984, Note_on_c, 0, 77, 70
2, 7007, Note_on_c, 0, 77, 0
2, 7032, Note_on_c, 0, 75, 72
2, 7055, Note_on_c, 0, 75, 0
2, 7080, Note_on_c, 0, 74, 74
2, 7103, Note_on_c, 0, 74, 0
2, 7104, Note_on_c, 0, 73, 75
2, 7128, Note_on_c, 0, 73, 0
2, 7128, Note_on_c, 0, 82, 75
2, 7151, Note_on_c, 0, 82, 0
2, 7176, Note_on_c, 0, 79, 75
2, 7199, Note_on_c, 0, 79, 0
2, 7224, Note_on_c, 0, 76, 75
2, 7247, Note_on_c, 0, 76, 0
2, 7272, Note_on_c, 0, 73, 75
2, 7295, Note_on_c, 0, 73, 0
2, 7296, Note_on_c, 0, 74, 75
2, 7319, Note_on_c, 0, 74, 0
2, 7320, Note_on_c, 0, 84, 75
2, 7343, Note_on_c, 0, 84, 0
2, 7368, Note_on_c, 0, 81, 75
2, 7391, Note_on_c, 0, 81, 0
2, 7416, Note_on_c, 0, 78, 75
2, 7439, Note_on_c, 0, 78, 0
2, 7464, Note_on_c, 0, 72, 75
2, 7487, Note_on_c, 0, 72, 0
2, 7488, Note_on_c, 0, 70, 75
2, 7511, Note_on_c, 0, 70, 0
2, 7512, Note_on_c, 0, 79, 75
2, 7535, Note_on_c, 0, 79, 0
2, 7560, Note_on_c, 0, 82, 75
2, 7583, Note_on_c, 0, 82, 0
2, 7608, Note_on_c, 0, 81, 75
2, 7631, Note_on_c, 0, 81, 0
2, 7656, Note_on_c, 0, 79, 75
2, 7679, Note_on_c, 0, 79, 0
2, 7680, Note_on_c, 0, 78, 75
2, 7692, Note_on_c, 0, 78, 0
2, 7692, Note_on_c, 0, 81, 73
2, 7704, Note_on_c, 0, 81, 0
2, 7704, Note_on_c, 0, 74, 71
2, 7716, Note_on_c, 0, 74, 0
2, 7716, Note_on_c, 0, 78, 70
2, 7728, Note_on_c, 0, 78, 0
2, 7728, Note_on_c, 0, 69, 68
2, 7740, Note_on_c, 0, 69, 0
2, 7740, Note_on_c, 0, 74, 67
2, 7752, Note_on_c, 0, 74, 0
2, 7752, Note_on_c, 0, 66, 65
2, 7764, Note_on_c, 0, 66, 0
2, 7764, Note_on_c, 0, 69, 64
2, 7776, Note_on_c, 0, 69, 0
2, 7776, Note_on_c, 0, 62, 62
2, 7788, Note_on_c, 0, 62, 0
2, 7788, Note_on_c, 0, 66, 61
2, 7800, Note_on_c, 0, 66, 0
2, 7800, Note_on_c, 0, 57, 59
2, 7812, Note_on_c, 0, 57, 0
2, 7812, Note_on_c, 0, 62, 58
2, 7824, Note_on_c, 0, 62, 0
2, 8064, Note_on_c, 0, 60, 58
2, 8068, Note_on_c, 0, 60, 0
2, 8068, Note_on_c, 0, 58, 58
2, 8072, Note_on_c, 0, 58, 0
2, 8072, Note_on_c, 0, 57, 58
2, 8076, Note_on_c, 0, 57, 0
2, 8076, Note_on_c, 0, 58, 58
2, 8099, Note_on_c, 0, 58, 0
2, 8100, Note_on_c, 0, 62, 58
2, 8112, Note_on_c, 0, 62, 0
2, 8112, Note_on_c, 0, 58, 58
2, 8157, Note_on_c, 0, 58, 0
2, 8196, Note_on_c, 0, 65, 58
2, 8208, Note_on_c, 0, 65, 0
2, 8208, Note_on_c, 0, 74, 58
2, 8242, Note_on_c, 0, 74, 0
2, 8244, Note_on_c, 0, 70, 58
2, 8256, Note_on_c, 0, 70, 0
2, 8256, Note_on_c, 0, 69, 58
2, 8260, Note_on_c, 0, 69, 0
2, 8260, Note_on_c, 0, 70, 58
2, 8264, Note_on_c, 0, 70, 0
2, 8264, Note_on_c, 0, 72, 58
2, 8268, Note_on_c, 0, 72, 0
2, 8268, Note_on_c, 0, 70, 58
2, 8313, Note_on_c, 0, 70, 0
2, 8316, Note_on_c, 0, 69, 58
2, 8322, Note_on_c, 0, 69, 0
2, 8322, Note_on_c, 0, 70, 58
2, 8328, Note_on_c, 0, 70, 0
2, 8328, Note_on_c, 0, 72, 58
2, 8334, Note_on_c, 0, 72, 0
2, 8334, Note_on_c, 0, 70, 58
2, 8340, Note_on_c, 0, 70, 0
2, 8340, Note_on_c, 0, 69, 58
2, 8346, Note_on_c, 0, 69, 0
2, 8346, Note_on_c, 0, 70, 58
2, 8352, Note_on_c, 0, 70, 0
2, 8352, Note_on_c, 0, 69, 58
2, 8372, Note_on_c, 0, 69, 0
2, 8448, Note_on_c, 0, 62, 58
2, 8452, Note_on_c, 0, 62, 0
2, 8452, Note_on_c, 0, 60, 58
2, 8456, Note_on_c, 0, 60, 0
2, 8456, Note_on_c, 0, 58, 58
2, 8460, Note_on_c, 0, 58, 0
2, 8460, Note_on_c, 0, 60, 58
2, 8483, Note_on_c, 0, 60, 0
2, 8484, Note_on_c, 0, 63, 58
2, 8496, Note_on_c, 0, 63, 0
2, 8496, Note_on_c, 0, 60, 58
2, 8541, Note_on_c, 0, 60, 0
2, 8580, Note_on_c, 0, 72, 58
2, 8592, Note_on_c, 0, 72, 0
2, 8592, Note_on_c, 0, 79, 58
2, 8626, Note_on_c, 0, 79, 0
2, 8628, Note_on_c, 0, 75, 58
2, 8640, Note_on_c, 0, 75, 0
2, 8640, Note_on_c, 0, 74, 58
2, 8644, Note_on_c, 0, 74, 0
2, 8644, Note_on_c, 0, 75, 58
2, 8648, Note_on_c, 0, 75, 0
2, 8648, Note_on_c, 0, 77, 58
2, 8652, Note_on_c, 0, 77, 0
2, 8652, Note_on_c, 0, 75, 58
2, 8697, Note_on_c, 0, 75, 0
2, 8700, Note_on_c, 0, 74, 58
2, 8706, Note_on_c, 0, 74, 0
2, 8706, Note_on_c, 0, 75, 58
2, 8712, Note_on_c, 0, 75, 0
2, 8712, Note_on_c, 0, 77, 58
2, 8718, Note_on_c, 0, 77, 0
2, 8718, Note_on_c, 0, 75, 58
2, 8724, Note_on_c, 0, 75, 0
2, 8724, Note_on_c, 0, 74, 58
2, 8730, Note_on_c, 0, 74, 0
2, 8730, Note_on_c, 0, 75, 58
2, 8736, Note_on_c, 0, 75, 0
2, 8736, Note_on_c, 0, 74, 58
2, 8756, Note_on_c, 0, 74, 0
2, 8832, Note_on_c, 0, 67, 58
2, 8921, Note_on_c, 0, 67, 0
2, 8928, Note_on_c, 0, 84, 58
2, 8932, Note_on_c, 0, 84, 0
2, 8932, Note_on_c, 0, 82, 58
2, 8936, Note_on_c, 0, 82, 0
2, 8936, Note_on_c, 0, 81, 58
2, 8940, Note_on_c, 0, 81, 0
2, 8940, Note_on_c, 0, 82, 58
2, 9000, Note_on_c, 0, 82, 0
2, 9000, Note_on_c, 0, 79, 58
2, 9023, Note_on_c, 0, 79, 0
2, 9024, Note_on_c, 0, 79, 58
2, 9047, Note_on_c, 0, 79, 0
2, 9048, Note_on_c, 0, 77, 59
2, 9071, Note_on_c, 0, 77, 0
2, 9072, Note_on_c, 0, 75, 60
2, 9095, Note_on_c, 0, 75, 0
2, 9096, Note_on_c, 0, 74, 61
2, 9119, Note_on_c, 0, 74, 0
2, 9120, Note_on_c, 0, 72, 62
2, 9143, Note_on_c, 0, 72, 0
2, 9144, Note_on_c, 0, 70, 63
2, 9167, Note_on_c, 0, 70, 0
2, 9168, Note_on_c, 0, 69, 64
2, 9191, Note_on_c, 0, 69, 0
2, 9192, Note_on_c, 0, 67, 65
2, 9215, Note_on_c, 0, 67, 0
2, 9216, Note_on_c, 0, 65, 67
2, 9305, Note_on_c, 0, 65, 0
2, 9312, Note_on_c, 0, 63, 67
2, 9317, Note_on_c, 0, 63, 0
2, 9317, Note_on_c, 0, 65, 67
2, 9322, Note_on_c, 0, 65, 0
2, 9322, Note_on_c, 0, 63, 67
2, 9327, Note_on_c, 0, 63, 0
2, 9327, Note_on_c, 0, 65, 67
2, 9332, Note_on_c, 0, 65, 0
2, 9332, Note_on_c, 0, 63, 67
2, 9336, Note_on_c, 0, 63, 0
2, 9336, Note_on_c, 0, 65, 67
2, 9341, Note_on_c, 0, 65, 0
2, 9341, Note_on_c, 0, 63, 67
2, 9346, Note_on_c, 0, 63, 0
2, 9346, Note_on_c, 0, 65, 67
2, 9351, Note_on_c, 0, 65, 0
2, 9351, Note_on_c, 0, 63, 67
2, 9356, Note_on_c, 0, 63, 0
2, 9356, Note_on_c, 0, 65, 67
2, 9360, Note_on_c, 0, 65, 0
2, 9360, Note_on_c, 0, 63, 58
2, 9365, Note_on_c, 0, 63, 0
2, 9365, Note_on_c, 0, 65, 58
2, 9370, Note_on_c, 0, 65, 0
2, 9370, Note_on_c, 0, 63, 58
2, 9375, Note_on_c, 0, 63, 0
2, 9375, Note_on_c, 0, 65, 58
2, 9380, Note_on_c, 0, 65, 0
2, 9380, Note_on_c, 0, 63, 58
2, 9384, Note_on_c, 0, 63, 0
2, 9384, Note_on_c, 0, 62, 58
2, 9396, Note_on_c, 0, 62, 0
2, 9396, Note_on_c, 0, 63, 62
2, 9408, Note_on_c, 0, 63, 0
2, 9408, Note_on_c, 0, 63, 67
2, 9504, Note_on_c, 0, 63, 0
2, 9504, Note_on_c, 0, 62, 61
2, 9549, Note_on_c, 0, 62, 0
2, 9600, Note_on_c, 0, 61, 67
2, 9623, Note_on_c, 0, 61, 0
2, 9624, Note_on_c, 0, 61, 67
2, 9647, Note_on_c, 0, 61, 0
2, 9672, Note_on_c, 0, 70, 67
2, 9696, Note_on_c, 0, 70, 0
2, 9696, Note_on_c, 0, 73, 67
2, 9719, Note_on_c, 0, 73, 0
2, 9720, Note_on_c, 0, 73, 67
2, 9743, Note_on_c, 0, 73, 0
2, 9768, Note_on_c, 0, 61, 67
2, 9792, Note_on_c, 0, 61, 0
2, 9792, Note_on_c, 0, 60, 67
2, 9815, Note_on_c, 0, 60, 0
2, 9816, Note_on_c, 0, 60, 67
2, 9839, Note_on_c, 0, 60, 0
2, 9864, Note_on_c, 0, 72, 67
2, 9888, Note_on_c, 0, 72, 0
2, 9888, Note_on_c, 0, 77, 67
2, 9911, Note_on_c, 0, 77, 0
2, 9912, Note_on_c, 0, 77, 67
2, 9935, Note_on_c, 0, 77, 0
2, 9960, Note_on_c, 0, 69, 67
2, 9983, Note_on_c, 0, 69, 0
2, 9984, Note_on_c, 0, 70, 67
2, 9996, Note_on_c, 0, 70, 0
2, 9996, Note_on_c, 0, 82, 67
2, 10008, Note_on_c, 0, 82, 0
2, 10008, Note_on_c, 0, 82, 67
2, 10020, Note_on_c, 0, 82, 0
2, 10020, Note_on_c, 0, 81, 67
2, 10032, Note_on_c, 0, 81, 0
2, 10032, Note_on_c, 0, 81, 67
2, 10044, Note_on_c, 0, 81, 0
2, 10044, Note_on_c, 0, 79, 67
2, 10056, Note_on_c, 0, 79, 0
2, 10056, Note_on_c, 0, 79, 67
2, 10068, Note_on_c, 0, 79, 0
2, 10068, Note_on_c, 0, 77, 67
2, 10080, Note_on_c, 0, 77, 0
2, 10080, Note_on_c, 0, 77, 67
2, 10092, Note_on_c, 0, 77, 0
2, 10092, Note_on_c, 0, 75, 67
2, 10104, Note_on_c, 0, 75, 0
2, 10104, Note_on_c, 0, 75, 67
2, 10116, Note_on_c, 0, 75, 0
2, 10116, Note_on_c, 0, 74, 67
2, 10128, Note_on_c, 0, 74, 0
2, 10128, Note_on_c, 0, 74, 67
2, 10140, Note_on_c, 0, 74, 0
2, 10140, Note_on_c, 0, 72, 67
2, 10152, Note_on_c, 0, 72, 0
2, 10152, Note_on_c, 0, 72, 67
2, 10164, Note_on_c, 0, 72, 0
2, 10164, Note_on_c, 0, 71, 67
2, 10176, Note_on_c, 0, 71, 0
2, 10176, Note_on_c, 0, 71, 67
2, 10188, Note_on_c, 0, 71, 0
2, 10188, Note_on_c, 0, 72, 67
2, 10200, Note_on_c, 0, 72, 0
2, 10200, Note_on_c, 0, 72, 68
2, 10212, Note_on_c, 0, 72, 0
2, 10212, Note_on_c, 0, 74, 69
2, 10224, Note_on_c, 0, 74, 0
2, 10224, Note_on_c, 0, 74, 69
2, 10236, Note_on_c, 0, 74, 0
2, 10236, Note_on_c, 0, 75, 70
2, 10248, Note_on_c, 0, 75, 0
2, 10248, Note_on_c, 0, 75, 71
2, 10260, Note_on_c, 0, 75, 0
2, 10260, Note_on_c, 0, 74, 71
2, 10272, Note_on_c, 0, 74, 0
2, 10272, Note_on_c, 0, 74, 72
2, 10284, Note_on_c, 0, 74, 0
2, 10284, Note_on_c, 0, 72, 73
2, 10296, Note_on_c, 0, 72, 0
2, 10296, Note_on_c, 0, 72, 73
2, 10308, Note_on_c, 0, 72, 0
2, 10308, Note_on_c, 0, 74, 74
2, 10320, Note_on_c, 0, 74, 0
2, 10320, Note_on_c, 0, 74, 75
2, 10332, Note_on_c, 0, 74, 0
2, 10332, Note_on_c, 0, 72, 75
2, 10344, Note_on_c, 0, 72, 0
2, 10344, Note_on_c, 0, 72, 75
2, 10356, Note_on_c, 0, 72, 0
2, 10356, Note_on_c, 0, 70, 75
2, 10368, Note_on_c, 0, 70, 0
2, 10368, Note_on_c, 0, 69, 75
2, 10380, Note_on_c, 0, 69, 0
2, 10380, Note_on_c, 0, 72, 75
2, 10392, Note_on_c, 0, 72, 0
2, 10392, Note_on_c, 0, 70, 75
2, 10404, Note_on_c, 0, 70, 0
2, 10404, Note_on_c, 0, 69, 75
2, 10416, Note_on_c, 0, 69, 0
2, 10416, Note_on_c, 0, 67, 75
2, 10428, Note_on_c, 0, 67, 0
2, 10428, Note_on_c, 0, 65, 75
2, 10440, Note_on_c, 0, 65, 0
2, 10440, Note_on_c, 0, 64, 75
2, 10452, Note_on_c, 0, 64, 0
2, 10452, Note_on_c, 0, 65, 75
2, 10464, Note_on_c, 0, 65, 0
2, 10464, Note_on_c, 0, 64, 75
2, 10476, Note_on_c, 0, 64, 0
2, 10476, Note_on_c, 0, 74, 75
2, 10488, Note_on_c, 0, 74, 0
2, 10488, Note_on_c, 0, 72, 75
2, 10500, Note_on_c, 0, 72, 0
2, 10500, Note_on_c, 0, 70, 75
2, 10512, Note_on_c, 0, 70, 0
2, 10512, Note_on_c, 0, 69, 75
2, 10524, Note_on_c, 0, 69, 0
2, 10524, Note_on_c, 0, 67, 75
2, 10536, Note_on_c, 0, 67, 0
2, 10536, Note_on_c, 0, 65, 75
2, 10548, Note_on_c, 0, 65, 0
2, 10548, Note_on_c, 0, 64, 75
2, 10560, Note_on_c, 0, 64, 0
2, 10560, Note_on_c, 0, 65, 75
2, 10572, Note_on_c, 0, 65, 0
2, 10572, Note_on_c, 0, 67, 75
2, 10584, Note_on_c, 0, 67, 0
2, 10584, Note_on_c, 0, 69, 75
2, 10596, Note_on_c, 0, 69, 0
2, 10596, Note_on_c, 0, 70, 75
2, 10608, Note_on_c, 0, 70, 0
2, 10608, Note_on_c, 0, 72, 75
2, 10620, Note_on_c, 0, 72, 0
2, 10620, Note_on_c, 0, 74, 75
2, 10632, Note_on_c, 0, 74, 0
2, 10632, Note_on_c, 0, 76, 75
2, 10644, Note_on_c, 0, 76, 0
2, 10644, Note_on_c, 0, 77, 75
2, 10656, Note_on_c, 0, 77, 0
2, 10752, Note_on_c, 0, 77, 67
2, 10819, Note_on_c, 0, 77, 0
2, 10824, Note_on_c, 0, 79, 67
2, 10836, Note_on_c, 0, 79, 0
2, 10836, Note_on_c, 0, 77, 67
2, 10848, Note_on_c, 0, 77, 0
2, 10848, Note_on_c, 0, 69, 67
2, 10893, Note_on_c, 0, 69, 0
2, 10956, Note_on_c, 0, 89, 67
2, 10968, Note_on_c, 0, 89, 0
2, 10968, Note_on_c, 0, 87, 67
2, 10980, Note_on_c, 0, 87, 0
2, 10980, Note_on_c, 0, 86, 67
2, 10992, Note_on_c, 0, 86, 0
2, 10992, Note_on_c, 0, 84, 67
2, 11004, Note_on_c, 0, 84, 0
2, 11004, Note_on_c, 0, 82, 67
2, 11016, Note_on_c, 0, 82, 0
2, 11016, Note_on_c, 0, 81, 67
2, 11028, Note_on_c, 0, 81, 0
2, 11028, Note_on_c, 0, 79, 67
2, 11040, Note_on_c, 0, 79, 0
2, 11040, Note_on_c, 0, 77, 67
2, 11085, Note_on_c, 0, 77, 0
2, 11088, Note_on_c, 0, 75, 67
2, 11092, Note_on_c, 0, 75, 0
2, 11092, Note_on_c, 0, 77, 67
2, 11096, Note_on_c, 0, 77, 0
2, 11096, Note_on_c, 0, 75, 67
2, 11100, Note_on_c, 0, 75, 0
2, 11100, Note_on_c, 0, 77, 67
2, 11104, Note_on_c, 0, 77, 0
2, 11104, Note_on_c, 0, 75, 67
2, 11108, Note_on_c, 0, 75, 0
2, 11108, Note_on_c, 0, 77, 67
2, 11112, Note_on_c, 0, 77, 0
2, 11112, Note_on_c, 0, 75, 67
2, 11135, Note_on_c, 0, 75, 0
2, 11136, Note_on_c, 0, 74, 67
2, 11142, Note_on_c, 0, 74, 0
2, 11142, Note_on_c, 0, 77, 67
2, 11203, Note_on_c, 0, 77, 0
2, 11208, Note_on_c, 0, 79, 67
2, 11220, Note_on_c, 0, 79, 0
2, 11220, Note_on_c, 0, 77, 67
2, 11232, Note_on_c, 0, 77, 0
2, 11232, Note_on_c, 0, 69, 67
2, 11277, Note_on_c, 0, 69, 0
2, 11340, Note_on_c, 0, 89, 67
2, 11352, Note_on_c, 0, 89, 0
2, 11352, Note_on_c, 0, 87, 67
2, 11364, Note_on_c, 0, 87, 0
2, 11364, Note_on_c, 0, 86, 67
2, 11376, Note_on_c, 0, 86, 0
2, 11376, Note_on_c, 0, 84, 67
2, 11388, Note_on_c, 0, 84, 0
2, 11388, Note_on_c, 0, 82, 67
2, 11400, Note_on_c, 0, 82, 0
2, 11400, Note_on_c, 0, 81, 67
2, 11412, Note_on_c, 0, 81, 0
2, 11412, Note_on_c, 0, 79, 67
2, 11424, Note_on_c, 0, 79, 0
2, 11424, Note_on_c, 0, 77, 67
2, 11469, Note_on_c, 0, 77, 0
2, 11472, Note_on_c, 0, 75, 67
2, 11476, Note_on_c, 0, 75, 0
2, 11476, Note_on_c, 0, 77, 67
2, 11480, Note_on_c, 0, 77, 0
2, 11480, Note_on_c, 0, 75, 67
2, 11484, Note_on_c, 0, 75, 0
2, 11484, Note_on_c, 0, 77, 67
2, 11488, Note_on_c, 0, 77, 0
2, 11488, Note_on_c, 0, 75, 67
2, 11492, Note_on_c, 0, 75, 0
2, 11492, Note_on_c, 0, 77, 67
2, 11496, Note_on_c, 0, 77, 0
2, 11496, Note_on_c, 0, 75, 67
2, 11519, Note_on_c, 0, 75, 0
2, 11520, Note_on_c, 0, 74, 67
2, 11543, Note_on_c, 0, 74, 0
2, 11544, Note_on_c, 0, 82, 67
2, 11567, Note_on_c, 0, 82, 0
2, 11592, Note_on_c, 0, 82, 69
2, 11615, Note_on_c, 0, 82, 0
2, 11640, Note_on_c, 0, 81, 71
2, 11663, Note_on_c, 0, 81, 0
2, 11688, Note_on_c, 0, 80, 72
2, 11711, Note_on_c, 0, 80, 0
2, 11736, Note_on_c, 0, 79, 74
2, 11759, Note_on_c, 0, 79, 0
2, 11784, Note_on_c, 0, 86, 75
2, 11807, Note_on_c, 0, 86, 0
2, 11832, Note_on_c, 0, 87, 75
2, 11855, Note_on_c, 0, 87, 0
2, 11880, Note_on_c, 0, 84, 75
2, 11903, Note_on_c, 0, 84, 0
2, 11928, Note_on_c, 0, 82, 75
2, 11951, Note_on_c, 0, 82, 0
2, 11976, Note_on_c, 0, 89, 75
2, 11999, Note_on_c, 0, 89, 0
2, 12024, Note_on_c, 0, 87, 75
2, 12047, Note_on_c, 0, 87, 0
2, 12072, Note_on_c, 0, 81, 67
2, 12095, Note_on_c, 0, 81, 0
2, 12096, Note_on_c, 0, 82, 67
2, 12102, Note_on_c, 0, 82, 0
2, 12102, Note_on_c, 0, 84, 67
2, 12106, Note_on_c, 0, 84, 0
2, 12106, Note_on_c, 0, 82, 67
2, 12110, Note_on_c, 0, 82, 0
2, 12110, Note_on_c, 0, 81, 67
2, 12114, Note_on_c, 0, 81, 0
2, 12114, Note_on_c, 0, 82, 67
2, 12120, Note_on_c, 0, 82, 0
2, 12120, Note_on_c, 0, 84, 67
2, 12132, Note_on_c, 0, 84, 0
2, 12132, Note_on_c, 0, 86, 67
2, 12144, Note_on_c, 0, 86, 0
2, 12144, Note_on_c, 0, 84, 67
2, 12156, Note_on_c, 0, 84, 0
2, 12156, Note_on_c, 0, 82, 67
2, 12168, Note_on_c, 0, 82, 0
2, 12168, Note_on_c, 0, 81, 67
2, 12180, Note_on_c, 0, 81, 0
2, 12180, Note_on_c, 0, 79, 67
2, 12192, Note_on_c, 0, 79, 0
2, 12192, Note_on_c, 0, 77, 67
2, 12237, Note_on_c, 0, 77, 0
2, 12240, Note_on_c, 0, 76, 67
2, 12244, Note_on_c, 0, 76, 0
2, 12244, Note_on_c, 0, 77, 67
2, 12248, Note_on_c, 0, 77, 0
2, 12248, Note_on_c, 0, 76, 67
2, 12252, Note_on_c, 0, 76, 0
2, 12252, Note_on_c, 0, 77, 67
2, 12256, Note_on_c, 0, 77, 0
2, 12256, Note_on_c, 0, 76, 67
2, 12260, Note_on_c, 0, 76, 0
2, 12260, Note_on_c, 0, 77, 67
2, 12264, Note_on_c, 0, 77, 0
2, 12264, Note_on_c, 0, 76, 67
2, 12287, Note_on_c, 0, 76, 0
2, 12300, Note_on_c, 0, 86, 67
2, 12312, Note_on_c, 0, 86, 0
2, 12312, Note_on_c, 0, 84, 67
2, 12324, Note_on_c, 0, 84, 0
2, 12324, Note_on_c, 0, 82, 67
2, 12336, Note_on_c, 0, 82, 0
2, 12336, Note_on_c, 0, 81, 67
2, 12348, Note_on_c, 0, 81, 0
2, 12348, Note_on_c, 0, 79, 67
2, 12360, Note_on_c, 0, 79, 0
2, 12360, Note_on_c, 0, 77, 67
2, 12372, Note_on_c, 0, 77, 0
2, 12372, Note_on_c, 0, 76, 67
2, 12384, Note_on_c, 0, 76, 0
2, 12396, Note_on_c, 0, 86, 58
2, 12408, Note_on_c, 0, 86, 0
2, 12408, Note_on_c, 0, 84, 58
2, 12420, Note_on_c, 0, 84, 0
2, 12420, Note_on_c, 0, 82, 58
2, 12432, Note_on_c, 0, 82, 0
2, 12432, Note_on_c, 0, 81, 58
2, 12444, Note_on_c, 0, 81, 0
2, 12444, Note_on_c, 0, 79, 58
2, 12456, Note_on_c, 0, 79, 0
2, 12456, Note_on_c, 0, 77, 58
2, 12468, Note_on_c, 0, 77, 0
2, 12468, Note_on_c, 0, 76, 58
2, 12480, Note_on_c, 0, 76, 0
2, 12492, Note_on_c, 0, 75, 58
2, 12504, Note_on_c, 0, 75, 0
2, 12504, Note_on_c, 0, 74, 58
2, 12516, Note_on_c, 0, 74, 0
2, 12516, Note_on_c, 0, 75, 59
2, 12528, Note_on_c, 0, 75, 0
2, 12528, Note_on_c, 0, 77, 59
2, 12540, Note_on_c, 0, 77, 0
2, 12540, Note_on_c, 0, 79, 60
2, 12552, Note_on_c, 0, 79, 0
2, 12552, Note_on_c, 0, 81, 61
2, 12564, Note_on_c, 0, 81, 0
2, 12564, Note_on_c, 0, 82, 61
2, 12576, Note_on_c, 0, 82, 0
2, 12576, Note_on_c, 0, 84, 62
2, 12588, Note_on_c, 0, 84, 0
2, 12588, Note_on_c, 0, 81, 62
2, 12600, Note_on_c, 0, 81, 0
2, 12600, Note_on_c, 0, 87, 63
2, 12612, Note_on_c, 0, 87, 0
2, 12612, Note_on_c, 0, 86, 64
2, 12624, Note_on_c, 0, 86, 0
2, 12624, Note_on_c, 0, 84, 64
2, 12636, Note_on_c, 0, 84, 0
2, 12636, Note_on_c, 0, 82, 65
2, 12648, Note_on_c, 0, 82, 0
2, 12648, Note_on_c, 0, 81, 65
2, 12660, Note_on_c, 0, 81, 0
2, 12660, Note_on_c, 0, 79, 66
2, 12672, Note_on_c, 0, 79, 0
2, 12672, Note_on_c, 0, 78, 67
2, 12676, Note_on_c, 0, 78, 0
2, 12676, Note_on_c, 0, 79, 67
2, 12680, Note_on_c, 0, 79, 0
2, 12680, Note_on_c, 0, 81, 67
2, 12684, Note_on_c, 0, 81, 0
2, 12684, Note_on_c, 0, 79, 67
2, 12835, Note_on_c, 0, 79, 0
2, 12840, Note_on_c, 0, 77, 67
2, 12852, Note_on_c, 0, 77, 0
2, 12852, Note_on_c, 0, 75, 67
2, 12864, Note_on_c, 0, 75, 0
2, 12864, Note_on_c, 0, 74, 67
2, 12876, Note_on_c, 0, 74, 0
2, 12876, Note_on_c, 0, 82, 67
2, 12888, Note_on_c, 0, 82, 0
2, 12888, Note_on_c, 0, 81, 67
2, 12900, Note_on_c, 0, 81, 0
2, 12900, Note_on_c, 0, 79, 67
2, 12912, Note_on_c, 0, 79, 0
2, 12912, Note_on_c, 0, 77, 67
2, 12924, Note_on_c, 0, 77, 0
2, 12924, Note_on_c, 0, 76, 67
2, 12936, Note_on_c, 0, 76, 0
2, 12936, Note_on_c, 0, 77, 67
2, 12948, Note_on_c, 0, 77, 0
2, 12948, Note_on_c, 0, 78, 67
2, 12960, Note_on_c, 0, 78, 0
2, 12960, Note_on_c, 0, 79, 67
2, 12972, Note_on_c, 0, 79, 0
2, 12972, Note_on_c, 0, 74, 67
2, 12984, Note_on_c, 0, 74, 0
2, 12984, Note_on_c, 0, 75, 67
2, 12996, Note_on_c, 0, 75, 0
2, 12996, Note_on_c, 0, 71, 67
2, 13008, Note_on_c, 0, 71, 0
2, 13008, Note_on_c, 0, 72, 67
2, 13020, Note_on_c, 0, 72, 0
2, 13020, Note_on_c, 0, 75, 67
2, 13032, Note_on_c, 0, 75, 0
2, 13032, Note_on_c, 0, 67, 67
2, 13044, Note_on_c, 0, 67, 0
2, 13044, Note_on_c, 0, 75, 67
2, 13056, Note_on_c, 0, 75, 0
2, 13056, Note_on_c, 0, 65, 67
2, 13068, Note_on_c, 0, 65, 0
2, 13068, Note_on_c, 0, 77, 67
2, 13080, Note_on_c, 0, 77, 0
2, 13080, Note_on_c, 0, 76, 67
2, 13092, Note_on_c, 0, 76, 0
2, 13092, Note_on_c, 0, 75, 67
2, 13104, Note_on_c, 0, 75, 0
2, 13104, Note_on_c, 0, 74, 67
2, 13116, Note_on_c, 0, 74, 0
2, 13116, Note_on_c, 0, 73, 67
2, 13128, Note_on_c, 0, 73, 0
2, 13128, Note_on_c, 0, 72, 67
2, 13140, Note_on_c, 0, 72, 0
2, 13140, Note_on_c, 0, 71, 67
2, 13152, Note_on_c, 0, 71, 0
2, 13152, Note_on_c, 0, 70, 67
2, 13219, Note_on_c, 0, 70, 0
2, 13224, Note_on_c, 0, 74, 67
2, 13230, Note_on_c, 0, 74, 0
2, 13230, Note_on_c, 0, 72, 67
2, 13247, Note_on_c, 0, 72, 0
2, 13248, Note_on_c, 0, 70, 67
2, 13260, Note_on_c, 0, 70, 0
2, 13260, Note_on_c, 0, 77, 67
2, 13272, Note_on_c, 0, 77, 0
2, 13272, Note_on_c, 0, 75, 67
2, 13284, Note_on_c, 0, 75, 0
2, 13284, Note_on_c, 0, 74, 67
2, 13296, Note_on_c, 0, 74, 0
2, 13296, Note_on_c, 0, 72, 67
2, 13308, Note_on_c, 0, 72, 0
2, 13308, Note_on_c, 0, 70, 67
2, 13320, Note_on_c, 0, 70, 0
2, 13320, Note_on_c, 0, 69, 67
2, 13332, Note_on_c, 0, 69, 0
2, 13332, Note_on_c, 0, 67, 67
2, 13344, Note_on_c, 0, 67, 0
2, 13344, Note_on_c, 0, 65, 67
2, 13411, Note_on_c, 0, 65, 0
2, 13416, Note_on_c, 0, 63, 67
2, 13419, Note_on_c, 0, 63, 0
2, 13419, Note_on_c, 0, 65, 67
2, 13422, Note_on_c, 0, 65, 0
2, 13422, Note_on_c, 0, 63, 67
2, 13425, Note_on_c, 0, 63, 0
2, 13425, Note_on_c, 0, 65, 67
2, 13428, Note_on_c, 0, 65, 0
2, 13428, Note_on_c, 0, 63, 67
2, 13440, Note_on_c, 0, 63, 0
2, 13440, Note_on_c, 0, 62, 67
2, 13452, Note_on_c, 0, 62, 0
2, 13452, Note_on_c, 0, 65, 67
2, 13464, Note_on_c, 0, 65, 0
2, 13464, Note_on_c, 0, 63, 67
2, 13476, Note_on_c, 0, 63, 0
2, 13476, Note_on_c, 0, 62, 67
2, 13488, Note_on_c, 0, 62, 0
2, 13488, Note_on_c, 0, 60, 67
2, 13500, Note_on_c, 0, 60, 0
2, 13500, Note_on_c, 0, 58, 67
2, 13512, Note_on_c, 0, 58, 0
2, 13512, Note_on_c, 0, 57, 67
2, 13524, Note_on_c, 0, 57, 0
2, 13524, Note_on_c, 0, 55, 67
2, 13536, Note_on_c, 0, 55, 0
2, 14208, End_track
3, 0, Start_track
3, 0, Program_c, 0, 0
3, 0, Control_c, 0, 7, 127
3, 0, Control_c, 0, 10, 64
3, 384, Note_on_c, 0, 57, 64
3, 473, Note_on_c, 0, 57, 0
3, 768, Note_on_c, 0, 63, 64
3, 857, Note_on_c, 0, 63, 0
3, 864, Note_on_c, 0, 79, 64
3, 931, Note_on_c, 0, 79, 0
3, 936, Note_on_c, 0, 75, 64
3, 959, Note_on_c, 0, 75, 0
3, 960, Note_on_c, 0, 75, 64
3, 983, Note_on_c, 0, 75, 0
3, 984, Note_on_c, 0, 74, 64
3, 1007, Note_on_c, 0, 74, 0
3, 1008, Note_on_c, 0, 72, 64
3, 1031, Note_on_c, 0, 72, 0
3, 1032, Note_on_c, 0, 70, 64
3, 1055, Note_on_c, 0, 70, 0
3, 1056, Note_on_c, 0, 69, 64
3, 1079, Note_on_c, 0, 69, 0
3, 1080, Note_on_c, 0, 67, 64
3, 1103, Note_on_c, 0, 67, 0
3, 1104, Note_on_c, 0, 65, 64
3, 1127, Note_on_c, 0, 65, 0
3, 1128, Note_on_c, 0, 63, 64
3, 1151, Note_on_c, 0, 63, 0
3, 1152, Note_on_c, 0, 62, 64
3, 1241, Note_on_c, 0, 62, 0
3, 8448, Note_on_c, 0, 57, 64
3, 8537, Note_on_c, 0, 57, 0
3, 8832, Note_on_c, 0, 63, 64
3, 8921, Note_on_c, 0, 63, 0
3, 8928, Note_on_c, 0, 79, 64
3, 8995, Note_on_c, 0, 79, 0
3, 9000, Note_on_c, 0, 75, 64
3, 9023, Note_on_c, 0, 75, 0
3, 9024, Note_on_c, 0, 75, 64
3, 9047, Note_on_c, 0, 75, 0
3, 9048, Note_on_c, 0, 74, 64
3, 9071, Note_on_c, 0, 74, 0
3, 9072, Note_on_c, 0, 72, 64
3, 9095, Note_on_c, 0, 72, 0
3, 9096, Note_on_c, 0, 70, 64
3, 9119, Note_on_c, 0, 70, 0
3, 9120, Note_on_c, 0, 69, 64
3, 9143, Note_on_c, 0, 69, 0
3, 9144, Note_on_c, 0, 67, 64
3, 9167, Note_on_c, 0, 67, 0
3, 9168, Note_on_c, 0, 65, 64
3, 9191, Note_on_c, 0, 65, 0
3, 9192, Note_on_c, 0, 63, 64
3, 9215, Note_on_c, 0, 63, 0
3, 9216, Note_on_c, 0, 62, 64
3, 9305, Note_on_c, 0, 62, 0
3, 13344, Note_on_c, 0, 62, 64
3, 13411, Note_on_c, 0, 62, 0
3, 13416, Note_on_c, 0, 60, 64
3, 13439, Note_on_c, 0, 60, 0
3, 13440, Note_on_c, 0, 58, 64
3, 13452, Note_on_c, 0, 58, 0
3, 14208, End_track
4, 0, Start_track
4, 0, Program_c, 1, 0
4, 0, Control_c, 1, 7, 127
4, 0, Control_c, 1, 10, 64
4, 0, Note_on_c, 1, 46, 50
4, 0, Note_on_c, 1, 34, 50
4, 45, Note_on_c, 1, 46, 0
4, 45, Note_on_c, 1, 34, 0
4, 96, Note_on_c, 1, 62, 50
4, 96, Note_on_c, 1, 58, 50
4, 141, Note_on_c, 1, 62, 0
4, 141, Note_on_c, 1, 58, 0
4, 192, Note_on_c, 1, 63, 50
4, 192, Note_on_c, 1, 60, 50
4, 237, Note_on_c, 1, 63, 0
4, 237, Note_on_c, 1, 60, 0
4, 288, Note_on_c, 1, 51, 50
4, 288, Note_on_c, 1, 48, 50
4, 333, Note_on_c, 1, 51, 0
4, 333, Note_on_c, 1, 48, 0
4, 384, Note_on_c, 1, 41, 50
4, 384, Note_on_c, 1, 29, 50
4, 429, Note_on_c, 1, 41, 0
4, 429, Note_on_c, 1, 29, 0
4, 480, Note_on_c, 1, 60, 50
4, 480, Note_on_c, 1, 57, 50
4, 525, Note_on_c, 1, 60, 0
4, 525, Note_on_c, 1, 57, 0
4, 576, Note_on_c, 1, 58, 50
4, 621, Note_on_c, 1, 58, 0
4, 672, Note_on_c, 1, 34, 50
4, 717, Note_on_c, 1, 34, 0
4, 792, Note_on_c, 1, 46, 50
4, 792, Note_on_c, 1, 34, 50
4, 815, Note_on_c, 1, 46, 0
4, 815, Note_on_c, 1, 34, 0
4, 816, Note_on_c, 1, 46, 50
4, 816, Note_on_c, 1, 34, 50
4, 839, Note_on_c, 1, 46, 0
4, 839, Note_on_c, 1, 34, 0
4, 840, Note_on_c, 1, 46, 50
4, 840, Note_on_c, 1, 34, 50
4, 863, Note_on_c, 1, 46, 0
4, 863, Note_on_c, 1, 34, 0
4, 888, Note_on_c, 1, 46, 50
4, 888, Note_on_c, 1, 34, 50
4, 911, Note_on_c, 1, 46, 0
4, 911, Note_on_c, 1, 34, 0
4, 912, Note_on_c, 1, 46, 50
4, 912, Note_on_c, 1, 34, 50
4, 935, Note_on_c, 1, 46, 0
4, 935, Note_on_c, 1, 34, 0
4, 936, Note_on_c, 1, 46, 50
4, 936, Note_on_c, 1, 34, 50
4, 959, Note_on_c, 1, 46, 0
4, 959, Note_on_c, 1, 34, 0
4, 960, Note_on_c, 1, 46, 50
4, 960, Note_on_c, 1, 34, 50
4, 1049, Note_on_c, 1, 46, 0
4, 1049, Note_on_c, 1, 34, 0
4, 1176, Note_on_c, 1, 53, 50
4, 1199, Note_on_c, 1, 53, 0
4, 1200, Note_on_c, 1, 53, 50
4, 1223, Note_on_c, 1, 53, 0
4, 1224, Note_on_c, 1, 53, 50
4, 1247, Note_on_c, 1, 53, 0
4, 1272, Note_on_c, 1, 60, 50
4, 1272, Note_on_c, 1, 54, 50
4, 1295, Note_on_c, 1, 60, 0
4, 1295, Note_on_c, 1, 54, 0
4, 1296, Note_on_c, 1, 60, 52
4, 1296, Note_on_c, 1, 54, 52
4, 1319, Note_on_c, 1, 60, 0
4, 1319, Note_on_c, 1, 54, 0
4, 1320, Note_on_c, 1, 60, 55
4, 1320, Note_on_c, 1, 54, 55
4, 1343, Note_on_c, 1, 60, 0
4, 1343, Note_on_c, 1, 54, 0
4, 1344, Note_on_c, 1, 60, 58
4, 1344, Note_on_c, 1, 55, 58
4, 1440, Note_on_c, 1, 60, 0
4, 1440, Note_on_c, 1, 58, 52
4, 1485, Note_on_c, 1, 58, 0
4, 1485, Note_on_c, 1, 55, 0
4, 1536, Note_on_c, 1, 39, 50
4, 1625, Note_on_c, 1, 39, 0
4, 1752, Note_on_c, 1, 50, 50
4, 1752, Note_on_c, 1, 41, 50
4, 1775, Note_on_c, 1, 50, 0
4, 1775, Note_on_c, 1, 41, 0
4, 1776, Note_on_c, 1, 50, 50
4, 1776, Note_on_c, 1, 41, 50
4, 1799, Note_on_c, 1, 50, 0
4, 1799, Note_on_c, 1, 41, 0
4, 1800, Note_on_c, 1, 50, 50
4, 1800, Note_on_c, 1, 41, 50
4, 1823, Note_on_c, 1, 50, 0
4, 1823, Note_on_c, 1, 41, 0
4, 1848, Note_on_c, 1, 51, 50
4, 1848, Note_on_c, 1, 41, 50
4, 1871, Note_on_c, 1, 51, 0
4, 1871, Note_on_c, 1, 41, 0
4, 1872, Note_on_c, 1, 51, 50
4, 1872, Note_on_c, 1, 41, 50
4, 1895, Note_on_c, 1, 51, 0
4, 1895, Note_on_c, 1, 41, 0
4, 1896, Note_on_c, 1, 51, 50
4, 1896, Note_on_c, 1, 41, 50
4, 1919, Note_on_c, 1, 51, 0
4, 1919, Note_on_c, 1, 41, 0
4, 1920, Note_on_c, 1, 50, 50
4, 1920, Note_on_c, 1, 46, 50
4, 1965, Note_on_c, 1, 50, 0
4, 1965, Note_on_c, 1, 46, 0
4, 1968, Note_on_c, 1, 50, 58
4, 1980, Note_on_c, 1, 50, 0
4, 1980, Note_on_c, 1, 53, 58
4, 1992, Note_on_c, 1, 53, 0
4, 1992, Note_on_c, 1, 46, 58
4, 2004, Note_on_c, 1, 46, 0
4, 2004, Note_on_c, 1, 50, 58
4, 2016, Note_on_c, 1, 50, 0
4, 2016, Note_on_c, 1, 34, 58
4, 2061, Note_on_c, 1, 34, 0
4, 2136, Note_on_c, 1, 74, 50
4, 2136, Note_on_c, 1, 70, 50
4, 2159, Note_on_c, 1, 74, 0
4, 2159, Note_on_c, 1, 70, 0
4, 2160, Note_on_c, 1, 74, 50
4, 2160, Note_on_c, 1, 70, 50
4, 2183, Note_on_c, 1, 74, 0
4, 2183, Note_on_c, 1, 70, 0
4, 2184, Note_on_c, 1, 74, 50
4, 2184, Note_on_c, 1, 70, 50
4, 2207, Note_on_c, 1, 74, 0
4, 2207, Note_on_c, 1, 70, 0
4, 2208, Note_on_c, 1, 74, 50
4, 2208, Note_on_c, 1, 70, 50
4, 2253, Note_on_c, 1, 74, 0
4, 2253, Note_on_c, 1, 70, 0
4, 2328, Note_on_c, 1, 72, 50
4, 2328, Note_on_c, 1, 69, 50
4, 2351, Note_on_c, 1, 72, 0
4, 2351, Note_on_c, 1, 69, 0
4, 2352, Note_on_c, 1, 72, 50
4, 2352, Note_on_c, 1, 69, 50
4, 2375, Note_on_c, 1, 72, 0
4, 2375, Note_on_c, 1, 69, 0
4, 2376, Note_on_c, 1, 72, 50
4, 2376, Note_on_c, 1, 69, 50
4, 2399, Note_on_c, 1, 72, 0
4, 2399, Note_on_c, 1, 69, 0
4, 2400, Note_on_c, 1, 72, 50
4, 2400, Note_on_c, 1, 69, 50
4, 2445, Note_on_c, 1, 72, 0
4, 2445, Note_on_c, 1, 69, 0
4, 2496, Note_on_c, 1, 74, 50
4, 2563, Note_on_c, 1, 74, 0
4, 2568, Note_on_c, 1, 72, 50
4, 2591, Note_on_c, 1, 72, 0
4, 2592, Note_on_c, 1, 70, 50
4, 2615, Note_on_c, 1, 70, 0
4, 2616, Note_on_c, 1, 69, 50
4, 2639, Note_on_c, 1, 69, 0
4, 2640, Note_on_c, 1, 67, 50
4, 2663, Note_on_c, 1, 67, 0
4, 2664, Note_on_c, 1, 64, 50
4, 2687, Note_on_c, 1, 64, 0
4, 2688, Note_on_c, 1, 65, 50
4, 2733, Note_on_c, 1, 65, 0
4, 2856, Note_on_c, 1, 65, 50
4, 2879, Note_on_c, 1, 65, 0
4, 2880, Note_on_c, 1, 65, 50
4, 2925, Note_on_c, 1, 65, 0
4, 2928, Note_on_c, 1, 64, 50
4, 2973, Note_on_c, 1, 64, 0
4, 3072, Note_on_c, 1, 53, 50
4, 3084, Note_on_c, 1, 53, 0
4, 3084, Note_on_c, 1, 60, 50
4, 3096, Note_on_c, 1, 60, 0
4, 3096, Note_on_c, 1, 57, 50
4, 3108, Note_on_c, 1, 57, 0
4, 3108, Note_on_c, 1, 60, 50
4, 3120, Note_on_c, 1, 60, 0
4, 3120, Note_on_c, 1, 53, 50
4, 3132, Note_on_c, 1, 53, 0
4, 3132, Note_on_c, 1, 60, 50
4, 3144, Note_on_c, 1, 60, 0
4, 3144, Note_on_c, 1, 57, 50
4, 3156, Note_on_c, 1, 57, 0
4, 3156, Note_on_c, 1, 60, 50
4, 3168, Note_on_c, 1, 60, 0
4, 3168, Note_on_c, 1, 55, 50
4, 3180, Note_on_c, 1, 55, 0
4, 3180, Note_on_c, 1, 60, 50
4, 3192, Note_on_c, 1, 60, 0
4, 3192, Note_on_c, 1, 58, 50
4, 3204, Note_on_c, 1, 58, 0
4, 3204, Note_on_c, 1, 60, 50
4, 3216, Note_on_c, 1, 60, 0
4, 3216, Note_on_c, 1, 55, 50
4, 3228, Note_on_c, 1, 55, 0
4, 3228, Note_on_c, 1, 60, 50
4, 3240, Note_on_c, 1, 60, 0
4, 3240, Note_on_c, 1, 58, 50
4, 3252, Note_on_c, 1, 58, 0
4, 3252, Note_on_c, 1, 60, 50
4, 3264, Note_on_c, 1, 60, 0
4, 3264, Note_on_c, 1, 53, 50
4, 3276, Note_on_c, 1, 53, 0
4, 3276, Note_on_c, 1, 60, 50
4, 3288, Note_on_c, 1, 60, 0
4, 3288, Note_on_c, 1, 57, 50
4, 3300, Note_on_c, 1, 57, 0
4, 3300, Note_on_c, 1, 60, 50
4, 3312, Note_on_c, 1, 60, 0
4, 3312, Note_on_c, 1, 53, 50
4, 3324, Note_on_c, 1, 53, 0
4, 3324, Note_on_c, 1, 60, 50
4, 3336, Note_on_c, 1, 60, 0
4, 3336, Note_on_c, 1, 57, 50
4, 3348, Note_on_c, 1, 57, 0
4, 3348, Note_on_c, 1, 60, 50
4, 3360, Note_on_c, 1, 60, 0
4, 3360, Note_on_c, 1, 52, 50
4, 3372, Note_on_c, 1, 52, 0
4, 3372, Note_on_c, 1, 60, 50
4, 3384, Note_on_c, 1, 60, 0
4, 3384, Note_on_c, 1, 55, 50
4, 3396, Note_on_c, 1, 55, 0
4, 3396, Note_on_c, 1, 60, 50
4, 3408, Note_on_c, 1, 60, 0
4, 3408, Note_on_c, 1, 52, 50
4, 3420, Note_on_c, 1, 52, 0
4, 3420, Note_on_c, 1, 60, 50
4, 3432, Note_on_c, 1, 60, 0
4, 3432, Note_on_c, 1, 55, 50
4, 3444, Note_on_c, 1, 55, 0
4, 3444, Note_on_c, 1, 60, 50
4, 3456, Note_on_c, 1, 60, 0
4, 3456, Note_on_c, 1, 53, 50
4, 3468, Note_on_c, 1, 53, 0
4, 3468, Note_on_c, 1, 60, 50
4, 3480, Note_on_c, 1, 60, 0
4, 3480, Note_on_c, 1, 57, 50
4, 3492, Note_on_c, 1, 57, 0
4, 3492, Note_on_c, 1, 60, 50
4, 3504, Note_on_c, 1, 60, 0
4, 3504, Note_on_c, 1, 53, 50
4, 3516, Note_on_c, 1, 53, 0
4, 3516, Note_on_c, 1, 60, 50
4, 3528, Note_on_c, 1, 60, 0
4, 3528, Note_on_c, 1, 57, 50
4, 3540, Note_on_c, 1, 57, 0
4, 3540, Note_on_c, 1, 60, 50
4, 3552, Note_on_c, 1, 60, 0
4, 3552, Note_on_c, 1, 55, 50
4, 3564, Note_on_c, 1, 55, 0
4, 3564, Note_on_c, 1, 60, 50
4, 3576, Note_on_c, 1, 60, 0
4, 3576, Note_on_c, 1, 58, 50
4, 3588, Note_on_c, 1, 58, 0
4, 3588, Note_on_c, 1, 60, 50
4, 3600, Note_on_c, 1, 60, 0
4, 3600, Note_on_c, 1, 55, 50
4, 3612, Note_on_c, 1, 55, 0
4, 3612, Note_on_c, 1, 60, 50
4, 3624, Note_on_c, 1, 60, 0
4, 3624, Note_on_c, 1, 58, 50
4, 3636, Note_on_c, 1, 58, 0
4, 3636, Note_on_c, 1, 60, 50
4, 3648, Note_on_c, 1, 60, 0
4, 3648, Note_on_c, 1, 53, 50
4, 3660, Note_on_c, 1, 53, 0
4, 3660, Note_on_c, 1, 60, 50
4, 3672, Note_on_c, 1, 60, 0
4, 3672, Note_on_c, 1, 57, 50
4, 3684, Note_on_c, 1, 57, 0
4, 3684, Note_on_c, 1, 60, 50
4, 3696, Note_on_c, 1, 60, 0
4, 3696, Note_on_c, 1, 53, 50
4, 3708, Note_on_c, 1, 53, 0
4, 3708, Note_on_c, 1, 60, 50
4, 3720, Note_on_c, 1, 60, 0
4, 3720, Note_on_c, 1, 57, 50
4, 3732, Note_on_c, 1, 57, 0
4, 3732, Note_on_c, 1, 60, 50
4, 3744, Note_on_c, 1, 60, 0
4, 3744, Note_on_c, 1, 52, 50
4, 3756, Note_on_c, 1, 52, 0
4, 3756, Note_on_c, 1, 60, 50
4, 3768, Note_on_c, 1, 60, 0
4, 3768, Note_on_c, 1, 55, 50
4, 3780, Note_on_c, 1, 55, 0
4, 3780, Note_on_c, 1, 60, 50
4, 3792, Note_on_c, 1, 60, 0
4, 3792, Note_on_c, 1, 52, 50
4, 3804, Note_on_c, 1, 52, 0
4, 3804, Note_on_c, 1, 60, 50
4, 3816, Note_on_c, 1, 60, 0
4, 3816, Note_on_c, 1, 55, 50
4, 3828, Note_on_c, 1, 55, 0
4, 3828, Note_on_c, 1, 60, 50
4, 3840, Note_on_c, 1, 60, 0
4, 3840, Note_on_c, 1, 53, 50
4, 3852, Note_on_c, 1, 53, 0
4, 3852, Note_on_c, 1, 60, 50
4, 3864, Note_on_c, 1, 60, 0
4, 3864, Note_on_c, 1, 57, 51
4, 3876, Note_on_c, 1, 57, 0
4, 3876, Note_on_c, 1, 60, 51
4, 3888, Note_on_c, 1, 60, 0
4, 3888, Note_on_c, 1, 53, 52
4, 3900, Note_on_c, 1, 53, 0
4, 3900, Note_on_c, 1, 60, 52
4, 3912, Note_on_c, 1, 60, 0
4, 3912, Note_on_c, 1, 57, 53
4, 3924, Note_on_c, 1, 57, 0
4, 3924, Note_on_c, 1, 60, 53
4, 3936, Note_on_c, 1, 60, 0
4, 3936, Note_on_c, 1, 55, 54
4, 3948, Note_on_c, 1, 55, 0
4, 3948, Note_on_c, 1, 60, 54
4, 3960, Note_on_c, 1, 60, 0
4, 3960, Note_on_c, 1, 58, 55
4, 3972, Note_on_c, 1, 58, 0
4, 3972, Note_on_c, 1, 60, 56
4, 3984, Note_on_c, 1, 60, 0
4, 3984, Note_on_c, 1, 57, 56
4, 3996, Note_on_c, 1, 57, 0
4, 3996, Note_on_c, 1, 65, 57
4, 4008, Note_on_c, 1, 65, 0
4, 4008, Note_on_c, 1, 60, 57
4, 4020, Note_on_c, 1, 60, 0
4, 4020, Note_on_c, 1, 65, 58
4, 4032, Note_on_c, 1, 65, 0
4, 4032, Note_on_c, 1, 58, 58
4, 4044, Note_on_c, 1, 58, 0
4, 4044, Note_on_c, 1, 65, 59
4, 4056, Note_on_c, 1, 65, 0
4, 4056, Note_on_c, 1, 62, 59
4, 4068, Note_on_c, 1, 62, 0
4, 4068, Note_on_c, 1, 65, 60
4, 4080, Note_on_c, 1, 65, 0
4, 4080, Note_on_c, 1, 58, 60
4, 4092, Note_on_c, 1, 58, 0
4, 4092, Note_on_c, 1, 66, 61
4, 4104, Note_on_c, 1, 66, 0
4, 4104, Note_on_c, 1, 62, 62
4, 4116, Note_on_c, 1, 62, 0
4, 4116, Note_on_c, 1, 66, 62
4, 4128, Note_on_c, 1, 66, 0
4, 4128, Note_on_c, 1, 58, 63
4, 4140, Note_on_c, 1, 58, 0
4, 4140, Note_on_c, 1, 67, 63
4, 4152, Note_on_c, 1, 67, 0
4, 4152, Note_on_c, 1, 62, 64
4, 4164, Note_on_c, 1, 62, 0
4, 4164, Note_on_c, 1, 67, 64
4, 4176, Note_on_c, 1, 67, 0
4, 4176, Note_on_c, 1, 58, 65
4, 4188, Note_on_c, 1, 58, 0
4, 4188, Note_on_c, 1, 67, 65
4, 4200, Note_on_c, 1, 67, 0
4, 4200, Note_on_c, 1, 62, 66
4, 4212, Note_on_c, 1, 62, 0
4, 4212, Note_on_c, 1, 67, 67
4, 4224, Note_on_c, 1, 67, 0
4, 4224, Note_on_c, 1, 60, 67
4, 4236, Note_on_c, 1, 60, 0
4, 4236, Note_on_c, 1, 69, 67
4, 4248, Note_on_c, 1, 69, 0
4, 4248, Note_on_c, 1, 65, 67
4, 4260, Note_on_c, 1, 65, 0
4, 4260, Note_on_c, 1, 69, 67
4, 4272, Note_on_c, 1, 69, 0
4, 4272, Note_on_c, 1, 60, 67
4, 4284, Note_on_c, 1, 60, 0
4, 4284, Note_on_c, 1, 69, 67
4, 4296, Note_on_c, 1, 69, 0
4, 4296, Note_on_c, 1, 65, 67
4, 4308, Note_on_c, 1, 65, 0
4, 4308, Note_on_c, 1, 69, 67
4, 4320, Note_on_c, 1, 69, 0
4, 4320, Note_on_c, 1, 60, 67
4, 4332, Note_on_c, 1, 60, 0
4, 4332, Note_on_c, 1, 70, 64
4, 4344, Note_on_c, 1, 70, 0
4, 4344, Note_on_c, 1, 67, 62
4, 4356, Note_on_c, 1, 67, 0
4, 4356, Note_on_c, 1, 70, 60
4, 4368, Note_on_c, 1, 70, 0
4, 4368, Note_on_c, 1, 60, 58
4, 4380, Note_on_c, 1, 60, 0
4, 4380, Note_on_c, 1, 70, 56
4, 4392, Note_on_c, 1, 70, 0
4, 4392, Note_on_c, 1, 67, 54
4, 4404, Note_on_c, 1, 67, 0
4, 4404, Note_on_c, 1, 70, 52
4, 4416, Note_on_c, 1, 70, 0
4, 4416, Note_on_c, 1, 62, 50
4, 4428, Note_on_c, 1, 62, 0
4, 4428, Note_on_c, 1, 69, 50
4, 4440, Note_on_c, 1, 69, 0
4, 4440, Note_on_c, 1, 65, 50
4, 4452, Note_on_c, 1, 65, 0
4, 4452, Note_on_c, 1, 69, 50
4, 4464, Note_on_c, 1, 69, 0
4, 4464, Note_on_c, 1, 62, 50
4, 4476, Note_on_c, 1, 62, 0
4, 4476, Note_on_c, 1, 69, 50
4, 4488, Note_on_c, 1, 69, 0
4, 4488, Note_on_c, 1, 65, 50
4, 4500, Note_on_c, 1, 65, 0
4, 4500, Note_on_c, 1, 69, 50
4, 4512, Note_on_c, 1, 69, 0
4, 4512, Note_on_c, 1, 62, 50
4, 4524, Note_on_c, 1, 62, 0
4, 4524, Note_on_c, 1, 67, 50
4, 4536, Note_on_c, 1, 67, 0
4, 4536, Note_on_c, 1, 65, 50
4, 4548, Note_on_c, 1, 65, 0
4, 4548, Note_on_c, 1, 67, 50
4, 4560, Note_on_c, 1, 67, 0
4, 4560, Note_on_c, 1, 62, 50
4, 4572, Note_on_c, 1, 62, 0
4, 4572, Note_on_c, 1, 67, 50
4, 4584, Note_on_c, 1, 67, 0
4, 4584, Note_on_c, 1, 65, 50
4, 4596, Note_on_c, 1, 65, 0
4, 4596, Note_on_c, 1, 67, 50
4, 4608, Note_on_c, 1, 67, 0
4, 4608, Note_on_c, 1, 62, 50
4, 4620, Note_on_c, 1, 62, 0
4, 4620, Note_on_c, 1, 67, 50
4, 4632, Note_on_c, 1, 67, 0
4, 4632, Note_on_c, 1, 65, 50
4, 4644, Note_on_c, 1, 65, 0
4, 4644, Note_on_c, 1, 67, 50
4, 4656, Note_on_c, 1, 67, 0
4, 4656, Note_on_c, 1, 62, 50
4, 4668, Note_on_c, 1, 62, 0
4, 4668, Note_on_c, 1, 67, 50
4, 4680, Note_on_c, 1, 67, 0
4, 4680, Note_on_c, 1, 65, 50
4, 4692, Note_on_c, 1, 65, 0
4, 4692, Note_on_c, 1, 67, 50
4, 4704, Note_on_c, 1, 67, 0
4, 4704, Note_on_c, 1, 62, 50
4, 4716, Note_on_c, 1, 62, 0
4, 4716, Note_on_c, 1, 67, 50
4, 4728, Note_on_c, 1, 67, 0
4, 4728, Note_on_c, 1, 65, 50
4, 4740, Note_on_c, 1, 65, 0
4, 4740, Note_on_c, 1, 67, 50
4, 4752, Note_on_c, 1, 67, 0
4, 4752, Note_on_c, 1, 62, 50
4, 4764, Note_on_c, 1, 62, 0
4, 4764, Note_on_c, 1, 67, 50
4, 4776, Note_on_c, 1, 67, 0
4, 4776, Note_on_c, 1, 65, 50
4, 4788, Note_on_c, 1, 65, 0
4, 4788, Note_on_c, 1, 67, 50
4, 4800, Note_on_c, 1, 67, 0
4, 4800, Note_on_c, 1, 64, 50
4, 4845, Note_on_c, 1, 64, 0
4, 4944, Note_on_c, 1, 70, 50
4, 4944, Note_on_c, 1, 64, 50
4, 4954, Note_on_c, 1, 70, 0
4, 4954, Note_on_c, 1, 64, 0
4, 4968, Note_on_c, 1, 70, 50
4, 4968, Note_on_c, 1, 64, 50
4, 4978, Note_on_c, 1, 70, 0
4, 4978, Note_on_c, 1, 64, 0
4, 4992, Note_on_c, 1, 70, 50
4, 4992, Note_on_c, 1, 64, 50
4, 5081, Note_on_c, 1, 70, 0
4, 5081, Note_on_c, 1, 64, 0
4, 5184, Note_on_c, 1, 65, 50
4, 5229, Note_on_c, 1, 65, 0
4, 5232, Note_on_c, 1, 57, 50
4, 5277, Note_on_c, 1, 57, 0
4, 5280, Note_on_c, 1, 58, 50
4, 5325, Note_on_c, 1, 58, 0
4, 5400, Note_on_c, 1, 69, 50
4, 5400, Note_on_c, 1, 65, 50
4, 5400, Note_on_c, 1, 60, 50
4, 5423, Note_on_c, 1, 69, 0
4, 5423, Note_on_c, 1, 65, 0
4, 5423, Note_on_c, 1, 60, 0
4, 5424, Note_on_c, 1, 69, 50
4, 5424, Note_on_c, 1, 65, 50
4, 5424, Note_on_c, 1, 60, 50
4, 5447, Note_on_c, 1, 69, 0
4, 5447, Note_on_c, 1, 65, 0
4, 5447, Note_on_c, 1, 60, 0
4, 5448, Note_on_c, 1, 69, 50
4, 5448, Note_on_c, 1, 65, 50
4, 5448, Note_on_c, 1, 60, 50
4, 5471, Note_on_c, 1, 69, 0
4, 5471, Note_on_c, 1, 65, 0
4, 5471, Note_on_c, 1, 60, 0
4, 5496, Note_on_c, 1, 64, 50
4, 5496, Note_on_c, 1, 60, 50
4, 5519, Note_on_c, 1, 64, 0
4, 5519, Note_on_c, 1, 60, 0
4, 5520, Note_on_c, 1, 64, 50
4, 5520, Note_on_c, 1, 60, 50
4, 5543, Note_on_c, 1, 64, 0
4, 5543, Note_on_c, 1, 60, 0
4, 5544, Note_on_c, 1, 64, 50
4, 5544, Note_on_c, 1, 60, 50
4, 5567, Note_on_c, 1, 64, 0
4, 5567, Note_on_c, 1, 60, 0
4, 5568, Note_on_c, 1, 65, 50
4, 5568, Note_on_c, 1, 53, 50
4, 5613, Note_on_c, 1, 65, 0
4, 5613, Note_on_c, 1, 53, 0
4, 5712, Note_on_c, 1, 48, 67
4, 5757, Note_on_c, 1, 48, 0
4, 5760, Note_on_c, 1, 53, 67
4, 5849, Note_on_c, 1, 53, 0
4, 5904, Note_on_c, 1, 36, 58
4, 5949, Note_on_c, 1, 36, 0
4, 5952, Note_on_c, 1, 41, 58
4, 6041, Note_on_c, 1, 41, 0
4, 6048, Note_on_c, 1, 29, 58
4, 6115, Note_on_c, 1, 29, 0
4, 6144, Note_on_c, 1, 51, 50
4, 6156, Note_on_c, 1, 51, 0
4, 6156, Note_on_c, 1, 60, 50
4, 6168, Note_on_c, 1, 60, 0
4, 6168, Note_on_c, 1, 57, 50
4, 6180, Note_on_c, 1, 57, 0
4, 6180, Note_on_c, 1, 60, 50
4, 6192, Note_on_c, 1, 60, 0
4, 6192, Note_on_c, 1, 51, 50
4, 6204, Note_on_c, 1, 51, 0
4, 6204, Note_on_c, 1, 60, 50
4, 6216, Note_on_c, 1, 60, 0
4, 6216, Note_on_c, 1, 57, 50
4, 6228, Note_on_c, 1, 57, 0
4, 6228, Note_on_c, 1, 60, 50
4, 6240, Note_on_c, 1, 60, 0
4, 6240, Note_on_c, 1, 51, 50
4, 6252, Note_on_c, 1, 51, 0
4, 6252, Note_on_c, 1, 60, 50
4, 6264, Note_on_c, 1, 60, 0
4, 6264, Note_on_c, 1, 57, 50
4, 6276, Note_on_c, 1, 57, 0
4, 6276, Note_on_c, 1, 60, 50
4, 6288, Note_on_c, 1, 60, 0
4, 6288, Note_on_c, 1, 51, 50
4, 6300, Note_on_c, 1, 51, 0
4, 6300, Note_on_c, 1, 60, 50
4, 6312, Note_on_c, 1, 60, 0
4, 6312, Note_on_c, 1, 57, 50
4, 6324, Note_on_c, 1, 57, 0
4, 6324, Note_on_c, 1, 60, 50
4, 6336, Note_on_c, 1, 60, 0
4, 6336, Note_on_c, 1, 50, 50
4, 6348, Note_on_c, 1, 50, 0
4, 6348, Note_on_c, 1, 58, 50
4, 6360, Note_on_c, 1, 58, 0
4, 6360, Note_on_c, 1, 53, 50
4, 6372, Note_on_c, 1, 53, 0
4, 6372, Note_on_c, 1, 58, 50
4, 6384, Note_on_c, 1, 58, 0
4, 6384, Note_on_c, 1, 50, 50
4, 6396, Note_on_c, 1, 50, 0
4, 6396, Note_on_c, 1, 58, 50
4, 6408, Note_on_c, 1, 58, 0
4, 6408, Note_on_c, 1, 53, 50
4, 6420, Note_on_c, 1, 53, 0
4, 6420, Note_on_c, 1, 58, 50
4, 6432, Note_on_c, 1, 58, 0
4, 6432, Note_on_c, 1, 50, 50
4, 6444, Note_on_c, 1, 50, 0
4, 6444, Note_on_c, 1, 58, 50
4, 6456, Note_on_c, 1, 58, 0
4, 6456, Note_on_c, 1, 53, 50
4, 6468, Note_on_c, 1, 53, 0
4, 6468, Note_on_c, 1, 58, 50
4, 6480, Note_on_c, 1, 58, 0
4, 6480, Note_on_c, 1, 50, 50
4, 6492, Note_on_c, 1, 50, 0
4, 6492, Note_on_c, 1, 58, 50
4, 6504, Note_on_c, 1, 58, 0
4, 6504, Note_on_c, 1, 53, 50
4, 6516, Note_on_c, 1, 53, 0
4, 6516, Note_on_c, 1, 58, 50
4, 6528, Note_on_c, 1, 58, 0
4, 6528, Note_on_c, 1, 50, 50
4, 6540, Note_on_c, 1, 50, 0
4, 6540, Note_on_c, 1, 58, 50
4, 6552, Note_on_c, 1, 58, 0
4, 6552, Note_on_c, 1, 53, 50
4, 6564, Note_on_c, 1, 53, 0
4, 6564, Note_on_c, 1, 58, 50
4, 6576, Note_on_c, 1, 58, 0
4, 6576, Note_on_c, 1, 50, 50
4, 6588, Note_on_c, 1, 50, 0
4, 6588, Note_on_c, 1, 58, 50
4, 6600, Note_on_c, 1, 58, 0
4, 6600, Note_on_c, 1, 53, 50
4, 6612, Note_on_c, 1, 53, 0
4, 6612, Note_on_c, 1, 58, 50
4, 6624, Note_on_c, 1, 58, 0
4, 6624, Note_on_c, 1, 50, 50
4, 6636, Note_on_c, 1, 50, 0
4, 6636, Note_on_c, 1, 58, 50
4, 6648, Note_on_c, 1, 58, 0
4, 6648, Note_on_c, 1, 53, 50
4, 6660, Note_on_c, 1, 53, 0
4, 6660, Note_on_c, 1, 58, 50
4, 6672, Note_on_c, 1, 58, 0
4, 6672, Note_on_c, 1, 50, 50
4, 6684, Note_on_c, 1, 50, 0
4, 6684, Note_on_c, 1, 58, 50
4, 6696, Note_on_c, 1, 58, 0
4, 6696, Note_on_c, 1, 53, 50
4, 6708, Note_on_c, 1, 53, 0
4, 6708, Note_on_c, 1, 58, 50
4, 6720, Note_on_c, 1, 58, 0
4, 6720, Note_on_c, 1, 51, 50
4, 6732, Note_on_c, 1, 51, 0
4, 6732, Note_on_c, 1, 58, 50
4, 6744, Note_on_c, 1, 58, 0
4, 6744, Note_on_c, 1, 55, 51
4, 6756, Note_on_c, 1, 55, 0
4, 6756, Note_on_c, 1, 58, 51
4, 6768, Note_on_c, 1, 58, 0
4, 6768, Note_on_c, 1, 51, 52
4, 6780, Note_on_c, 1, 51, 0
4, 6780, Note_on_c, 1, 58, 52
4, 6792, Note_on_c, 1, 58, 0
4, 6792, Note_on_c, 1, 55, 53
4, 6804, Note_on_c, 1, 55, 0
4, 6804, Note_on_c, 1, 58, 53
4, 6816, Note_on_c, 1, 58, 0
4, 6816, Note_on_c, 1, 53, 54
4, 6828, Note_on_c, 1, 53, 0
4, 6828, Note_on_c, 1, 58, 54
4, 6840, Note_on_c, 1, 58, 0
4, 6840, Note_on_c, 1, 56, 55
4, 6852, Note_on_c, 1, 56, 0
4, 6852, Note_on_c, 1, 58, 56
4, 6864, Note_on_c, 1, 58, 0
4, 6864, Note_on_c, 1, 53, 56
4, 6876, Note_on_c, 1, 53, 0
4, 6876, Note_on_c, 1, 58, 57
4, 6888, Note_on_c, 1, 58, 0
4, 6888, Note_on_c, 1, 56, 57
4, 6900, Note_on_c, 1, 56, 0
4, 6900, Note_on_c, 1, 58, 58
4, 6912, Note_on_c, 1, 58, 0
4, 6912, Note_on_c, 1, 55, 58
4, 6924, Note_on_c, 1, 55, 0
4, 6924, Note_on_c, 1, 63, 59
4, 6936, Note_on_c, 1, 63, 0
4, 6936, Note_on_c, 1, 58, 59
4, 6948, Note_on_c, 1, 58, 0
4, 6948, Note_on_c, 1, 63, 60
4, 6960, Note_on_c, 1, 63, 0
4, 6960, Note_on_c, 1, 55, 60
4, 6972, Note_on_c, 1, 55, 0
4, 6972, Note_on_c, 1, 63, 61
4, 6984, Note_on_c, 1, 63, 0
4, 6984, Note_on_c, 1, 58, 62
4, 6996, Note_on_c, 1, 58, 0
4, 6996, Note_on_c, 1, 63, 62
4, 7008, Note_on_c, 1, 63, 0
4, 7008, Note_on_c, 1, 55, 63
4, 7020, Note_on_c, 1, 55, 0
4, 7020, Note_on_c, 1, 63, 63
4, 7032, Note_on_c, 1, 63, 0
4, 7032, Note_on_c, 1, 58, 64
4, 7044, Note_on_c, 1, 58, 0
4, 7044, Note_on_c, 1, 63, 64
4, 7056, Note_on_c, 1, 63, 0
4, 7056, Note_on_c, 1, 55, 65
4, 7068, Note_on_c, 1, 55, 0
4, 7068, Note_on_c, 1, 63, 65
4, 7080, Note_on_c, 1, 63, 0
4, 7080, Note_on_c, 1, 58, 66
4, 7092, Note_on_c, 1, 58, 0
4, 7092, Note_on_c, 1, 63, 67
4, 7104, Note_on_c, 1, 63, 0
4, 7104, Note_on_c, 1, 55, 67
4, 7116, Note_on_c, 1, 55, 0
4, 7116, Note_on_c, 1, 64, 67
4, 7128, Note_on_c, 1, 64, 0
4, 7128, Note_on_c, 1, 58, 67
4, 7140, Note_on_c, 1, 58, 0
4, 7140, Note_on_c, 1, 64, 67
4, 7152, Note_on_c, 1, 64, 0
4, 7152, Note_on_c, 1, 55, 67
4, 7164, Note_on_c, 1, 55, 0
4, 7164, Note_on_c, 1, 64, 67
4, 7176, Note_on_c, 1, 64, 0
4, 7176, Note_on_c, 1, 58, 67
4, 7188, Note_on_c, 1, 58, 0
4, 7188, Note_on_c, 1, 64, 67
4, 7200, Note_on_c, 1, 64, 0
4, 7200, Note_on_c, 1, 55, 67
4, 7212, Note_on_c, 1, 55, 0
4, 7212, Note_on_c, 1, 64, 67
4, 7224, Note_on_c, 1, 64, 0
4, 7224, Note_on_c, 1, 58, 67
4, 7236, Note_on_c, 1, 58, 0
4, 7236, Note_on_c, 1, 64, 67
4, 7248, Note_on_c, 1, 64, 0
4, 7248, Note_on_c, 1, 55, 67
4, 7260, Note_on_c, 1, 55, 0
4, 7260, Note_on_c, 1, 64, 67
4, 7272, Note_on_c, 1, 64, 0
4, 7272, Note_on_c, 1, 58, 67
4, 7284, Note_on_c, 1, 58, 0
4, 7284, Note_on_c, 1, 64, 67
4, 7296, Note_on_c, 1, 64, 0
4, 7296, Note_on_c, 1, 54, 67
4, 7308, Note_on_c, 1, 54, 0
4, 7308, Note_on_c, 1, 62, 67
4, 7320, Note_on_c, 1, 62, 0
4, 7320, Note_on_c, 1, 57, 67
4, 7332, Note_on_c, 1, 57, 0
4, 7332, Note_on_c, 1, 62, 67
4, 7344, Note_on_c, 1, 62, 0
4, 7344, Note_on_c, 1, 54, 67
4, 7356, Note_on_c, 1, 54, 0
4, 7356, Note_on_c, 1, 62, 67
4, 7368, Note_on_c, 1, 62, 0
4, 7368, Note_on_c, 1, 57, 67
4, 7380, Note_on_c, 1, 57, 0
4, 7380, Note_on_c, 1, 62, 67
4, 7392, Note_on_c, 1, 62, 0
4, 7392, Note_on_c, 1, 54, 67
4, 7404, Note_on_c, 1, 54, 0
4, 7404, Note_on_c, 1, 62, 67
4, 7416, Note_on_c, 1, 62, 0
4, 7416, Note_on_c, 1, 57, 67
4, 7428, Note_on_c, 1, 57, 0
4, 7428, Note_on_c, 1, 62, 67
4, 7440, Note_on_c, 1, 62, 0
4, 7440, Note_on_c, 1, 54, 67
4, 7452, Note_on_c, 1, 54, 0
4, 7452, Note_on_c, 1, 62, 67
4, 7464, Note_on_c, 1, 62, 0
4, 7464, Note_on_c, 1, 57, 67
4, 7476, Note_on_c, 1, 57, 0
4, 7476, Note_on_c, 1, 62, 67
4, 7488, Note_on_c, 1, 62, 0
4, 7488, Note_on_c, 1, 55, 67
4, 7500, Note_on_c, 1, 55, 0
4, 7500, Note_on_c, 1, 62, 67
4, 7512, Note_on_c, 1, 62, 0
4, 7512, Note_on_c, 1, 58, 67
4, 7524, Note_on_c, 1, 58, 0
4, 7524, Note_on_c, 1, 62, 67
4, 7536, Note_on_c, 1, 62, 0
4, 7536, Note_on_c, 1, 55, 67
4, 7548, Note_on_c, 1, 55, 0
4, 7548, Note_on_c, 1, 62, 67
4, 7560, Note_on_c, 1, 62, 0
4, 7560, Note_on_c, 1, 58, 67
4, 7572, Note_on_c, 1, 58, 0
4, 7572, Note_on_c, 1, 62, 67
4, 7584, Note_on_c, 1, 62, 0
4, 7584, Note_on_c, 1, 51, 67
4, 7596, Note_on_c, 1, 51, 0
4, 7596, Note_on_c, 1, 61, 67
4, 7608, Note_on_c, 1, 61, 0
4, 7608, Note_on_c, 1, 55, 67
4, 7620, Note_on_c, 1, 55, 0
4, 7620, Note_on_c, 1, 61, 67
4, 7632, Note_on_c, 1, 61, 0
4, 7632, Note_on_c, 1, 51, 67
4, 7644, Note_on_c, 1, 51, 0
4, 7644, Note_on_c, 1, 61, 67
4, 7656, Note_on_c, 1, 61, 0
4, 7656, Note_on_c, 1, 55, 67
4, 7668, Note_on_c, 1, 55, 0
4, 7668, Note_on_c, 1, 61, 67
4, 7680, Note_on_c, 1, 61, 0
4, 7680, Note_on_c, 1, 50, 67
4, 7769, Note_on_c, 1, 50, 0
4, 7824, Note_on_c, 1, 54, 58
4, 7836, Note_on_c, 1, 54, 0
4, 7836, Note_on_c, 1, 57, 58
4, 7848, Note_on_c, 1, 57, 0
4, 7848, Note_on_c, 1, 50, 58
4, 7860, Note_on_c, 1, 50, 0
4, 7860, Note_on_c, 1, 54, 58
4, 7872, Note_on_c, 1, 54, 0
4, 7872, Note_on_c, 1, 38, 58
4, 7961, Note_on_c, 1, 38, 0
4, 8064, Note_on_c, 1, 46, 50
4, 8064, Note_on_c, 1, 34, 50
4, 8109, Note_on_c, 1, 46, 0
4, 8109, Note_on_c, 1, 34, 0
4, 8160, Note_on_c, 1, 62, 50
4, 8160, Note_on_c, 1, 58, 50
4, 8205, Note_on_c, 1, 62, 0
4, 8205, Note_on_c, 1, 58, 0
4, 8256, Note_on_c, 1, 63, 50
4, 8256, Note_on_c, 1, 60, 50
4, 8301, Note_on_c, 1, 63, 0
4, 8301, Note_on_c, 1, 60, 0
4, 8352, Note_on_c, 1, 51, 50
4, 8352, Note_on_c, 1, 48, 50
4, 8397, Note_on_c, 1, 51, 0
4, 8397, Note_on_c, 1, 48, 0
4, 8448, Note_on_c, 1, 41, 50
4, 8448, Note_on_c, 1, 29, 50
4, 8493, Note_on_c, 1, 41, 0
4, 8493, Note_on_c, 1, 29, 0
4, 8544, Note_on_c, 1, 60, 50
4, 8544, Note_on_c, 1, 57, 50
4, 8589, Note_on_c, 1, 60, 0
4, 8589, Note_on_c, 1, 57, 0
4, 8640, Note_on_c, 1, 58, 50
4, 8685, Note_on_c, 1, 58, 0
4, 8736, Note_on_c, 1, 34, 50
4, 8781, Note_on_c, 1, 34, 0
4, 8856, Note_on_c, 1, 46, 50
4, 8856, Note_on_c, 1, 34, 50
4, 8879, Note_on_c, 1, 46, 0
4, 8879, Note_on_c, 1, 34, 0
4, 8880, Note_on_c, 1, 46, 50
4, 8880, Note_on_c, 1, 34, 50
4, 8903, Note_on_c, 1, 46, 0
4, 8903, Note_on_c, 1, 34, 0
4, 8904, Note_on_c, 1, 46, 50
4, 8904, Note_on_c, 1, 34, 50
4, 8927, Note_on_c, 1, 46, 0
4, 8927, Note_on_c, 1, 34, 0
4, 8952, Note_on_c, 1, 46, 50
4, 8952, Note_on_c, 1, 34, 50
4, 8975, Note_on_c, 1, 46, 0
4, 8975, Note_on_c, 1, 34, 0
4, 8976, Note_on_c, 1, 46, 50
4, 8976, Note_on_c, 1, 34, 50
4, 8999, Note_on_c, 1, 46, 0
4, 8999, Note_on_c, 1, 34, 0
4, 9000, Note_on_c, 1, 46, 50
4, 9000, Note_on_c, 1, 34, 50
4, 9023, Note_on_c, 1, 46, 0
4, 9023, Note_on_c, 1, 34, 0
4, 9024, Note_on_c, 1, 46, 50
4, 9024, Note_on_c, 1, 34, 50
4, 9113, Note_on_c, 1, 46, 0
4, 9113, Note_on_c, 1, 34, 0
4, 9240, Note_on_c, 1, 53, 50
4, 9263, Note_on_c, 1, 53, 0
4, 9264, Note_on_c, 1, 53, 50
4, 9287, Note_on_c, 1, 53, 0
4, 9288, Note_on_c, 1, 53, 50
4, 9311, Note_on_c, 1, 53, 0
4, 9336, Note_on_c, 1, 60, 50
4, 9336, Note_on_c, 1, 54, 50
4, 9359, Note_on_c, 1, 60, 0
4, 9359, Note_on_c, 1, 54, 0
4, 9360, Note_on_c, 1, 60, 52
4, 9360, Note_on_c, 1, 54, 52
4, 9383, Note_on_c, 1, 60, 0
4, 9383, Note_on_c, 1, 54, 0
4, 9384, Note_on_c, 1, 60, 55
4, 9384, Note_on_c, 1, 54, 55
4, 9407, Note_on_c, 1, 60, 0
4, 9407, Note_on_c, 1, 54, 0
4, 9408, Note_on_c, 1, 60, 58
4, 9408, Note_on_c, 1, 55, 58
4, 9504, Note_on_c, 1, 60, 0
4, 9504, Note_on_c, 1, 58, 52
4, 9549, Note_on_c, 1, 58, 0
4, 9549, Note_on_c, 1, 55, 0
4, 9600, Note_on_c, 1, 52, 50
4, 9612, Note_on_c, 1, 52, 0
4, 9612, Note_on_c, 1, 58, 50
4, 9624, Note_on_c, 1, 58, 0
4, 9624, Note_on_c, 1, 55, 50
4, 9636, Note_on_c, 1, 55, 0
4, 9636, Note_on_c, 1, 58, 50
4, 9648, Note_on_c, 1, 58, 0
4, 9648, Note_on_c, 1, 52, 50
4, 9660, Note_on_c, 1, 52, 0
4, 9660, Note_on_c, 1, 58, 50
4, 9672, Note_on_c, 1, 58, 0
4, 9672, Note_on_c, 1, 55, 50
4, 9684, Note_on_c, 1, 55, 0
4, 9684, Note_on_c, 1, 58, 50
4, 9696, Note_on_c, 1, 58, 0
4, 9696, Note_on_c, 1, 52, 50
4, 9708, Note_on_c, 1, 52, 0
4, 9708, Note_on_c, 1, 58, 50
4, 9720, Note_on_c, 1, 58, 0
4, 9720, Note_on_c, 1, 55, 50
4, 9732, Note_on_c, 1, 55, 0
4, 9732, Note_on_c, 1, 58, 50
4, 9744, Note_on_c, 1, 58, 0
4, 9744, Note_on_c, 1, 52, 50
4, 9756, Note_on_c, 1, 52, 0
4, 9756, Note_on_c, 1, 58, 50
4, 9768, Note_on_c, 1, 58, 0
4, 9768, Note_on_c, 1, 55, 50
4, 9780, Note_on_c, 1, 55, 0
4, 9780, Note_on_c, 1, 58, 50
4, 9792, Note_on_c, 1, 58, 0
4, 9792, Note_on_c, 1, 51, 50
4, 9804, Note_on_c, 1, 51, 0
4, 9804, Note_on_c, 1, 57, 50
4, 9816, Note_on_c, 1, 57, 0
4, 9816, Note_on_c, 1, 53, 50
4, 9828, Note_on_c, 1, 53, 0
4, 9828, Note_on_c, 1, 57, 50
4, 9840, Note_on_c, 1, 57, 0
4, 9840, Note_on_c, 1, 51, 50
4, 9852, Note_on_c, 1, 51, 0
4, 9852, Note_on_c, 1, 57, 50
4, 9864, Note_on_c, 1, 57, 0
4, 9864, Note_on_c, 1, 53, 50
4, 9876, Note_on_c, 1, 53, 0
4, 9876, Note_on_c, 1, 57, 50
4, 9888, Note_on_c, 1, 57, 0
4, 9888, Note_on_c, 1, 51, 50
4, 9900, Note_on_c, 1, 51, 0
4, 9900, Note_on_c, 1, 57, 50
4, 9912, Note_on_c, 1, 57, 0
4, 9912, Note_on_c, 1, 53, 50
4, 9924, Note_on_c, 1, 53, 0
4, 9924, Note_on_c, 1, 57, 50
4, 9936, Note_on_c, 1, 57, 0
4, 9936, Note_on_c, 1, 51, 50
4, 9948, Note_on_c, 1, 51, 0
4, 9948, Note_on_c, 1, 57, 50
4, 9960, Note_on_c, 1, 57, 0
4, 9960, Note_on_c, 1, 53, 50
4, 9972, Note_on_c, 1, 53, 0
4, 9972, Note_on_c, 1, 57, 50
4, 9984, Note_on_c, 1, 57, 0
4, 9984, Note_on_c, 1, 50, 50
4, 9996, Note_on_c, 1, 50, 0
4, 9996, Note_on_c, 1, 58, 50
4, 10008, Note_on_c, 1, 58, 0
4, 10008, Note_on_c, 1, 53, 51
4, 10020, Note_on_c, 1, 53, 0
4, 10020, Note_on_c, 1, 58, 51
4, 10032, Note_on_c, 1, 58, 0
4, 10032, Note_on_c, 1, 50, 52
4, 10044, Note_on_c, 1, 50, 0
4, 10044, Note_on_c, 1, 58, 53
4, 10056, Note_on_c, 1, 58, 0
4, 10056, Note_on_c, 1, 53, 53
4, 10068, Note_on_c, 1, 53, 0
4, 10068, Note_on_c, 1, 58, 54
4, 10080, Note_on_c, 1, 58, 0
4, 10080, Note_on_c, 1, 50, 55
4, 10092, Note_on_c, 1, 50, 0
4, 10092, Note_on_c, 1, 56, 55
4, 10104, Note_on_c, 1, 56, 0
4, 10104, Note_on_c, 1, 53, 56
4, 10116, Note_on_c, 1, 53, 0
4, 10116, Note_on_c, 1, 56, 56
4, 10128, Note_on_c, 1, 56, 0
4, 10128, Note_on_c, 1, 50, 57
4, 10140, Note_on_c, 1, 50, 0
4, 10140, Note_on_c, 1, 56, 58
4, 10152, Note_on_c, 1, 56, 0
4, 10152, Note_on_c, 1, 53, 58
4, 10164, Note_on_c, 1, 53, 0
4, 10164, Note_on_c, 1, 56, 59
4, 10176, Note_on_c, 1, 56, 0
4, 10176, Note_on_c, 1, 51, 60
4, 10188, Note_on_c, 1, 51, 0
4, 10188, Note_on_c, 1, 60, 60
4, 10200, Note_on_c, 1, 60, 0
4, 10200, Note_on_c, 1, 55, 61
4, 10212, Note_on_c, 1, 55, 0
4, 10212, Note_on_c, 1, 60, 61
4, 10224, Note_on_c, 1, 60, 0
4, 10224, Note_on_c, 1, 51, 62
4, 10236, Note_on_c, 1, 51, 0
4, 10236, Note_on_c, 1, 60, 63
4, 10248, Note_on_c, 1, 60, 0
4, 10248, Note_on_c, 1, 55, 63
4, 10260, Note_on_c, 1, 55, 0
4, 10260, Note_on_c, 1, 60, 64
4, 10272, Note_on_c, 1, 60, 0
4, 10272, Note_on_c, 1, 52, 65
4, 10284, Note_on_c, 1, 52, 0
4, 10284, Note_on_c, 1, 60, 65
4, 10296, Note_on_c, 1, 60, 0
4, 10296, Note_on_c, 1, 55, 66
4, 10308, Note_on_c, 1, 55, 0
4, 10308, Note_on_c, 1, 60, 67
4, 10320, Note_on_c, 1, 60, 0
4, 10320, Note_on_c, 1, 52, 67
4, 10332, Note_on_c, 1, 52, 0
4, 10332, Note_on_c, 1, 60, 67
4, 10344, Note_on_c, 1, 60, 0
4, 10344, Note_on_c, 1, 55, 67
4, 10356, Note_on_c, 1, 55, 0
4, 10356, Note_on_c, 1, 60, 67
4, 10368, Note_on_c, 1, 60, 0
4, 10368, Note_on_c, 1, 53, 67
4, 10380, Note_on_c, 1, 53, 0
4, 10380, Note_on_c, 1, 60, 67
4, 10392, Note_on_c, 1, 60, 0
4, 10392, Note_on_c, 1, 57, 67
4, 10404, Note_on_c, 1, 57, 0
4, 10404, Note_on_c, 1, 60, 67
4, 10416, Note_on_c, 1, 60, 0
4, 10416, Note_on_c, 1, 53, 67
4, 10428, Note_on_c, 1, 53, 0
4, 10428, Note_on_c, 1, 60, 67
4, 10440, Note_on_c, 1, 60, 0
4, 10440, Note_on_c, 1, 57, 67
4, 10452, Note_on_c, 1, 57, 0
4, 10452, Note_on_c, 1, 60, 67
4, 10464, Note_on_c, 1, 60, 0
4, 10464, Note_on_c, 1, 55, 67
4, 10476, Note_on_c, 1, 55, 0
4, 10476, Note_on_c, 1, 60, 67
4, 10488, Note_on_c, 1, 60, 0
4, 10488, Note_on_c, 1, 58, 67
4, 10500, Note_on_c, 1, 58, 0
4, 10500, Note_on_c, 1, 60, 67
4, 10512, Note_on_c, 1, 60, 0
4, 10512, Note_on_c, 1, 55, 67
4, 10524, Note_on_c, 1, 55, 0
4, 10524, Note_on_c, 1, 60, 67
4, 10536, Note_on_c, 1, 60, 0
4, 10536, Note_on_c, 1, 58, 67
4, 10548, Note_on_c, 1, 58, 0
4, 10548, Note_on_c, 1, 60, 67
4, 10560, Note_on_c, 1, 60, 0
4, 10560, Note_on_c, 1, 53, 67
4, 10605, Note_on_c, 1, 53, 0
4, 10656, Note_on_c, 1, 41, 67
4, 10745, Note_on_c, 1, 41, 0
4, 10752, Note_on_c, 1, 58, 50
4, 10764, Note_on_c, 1, 58, 0
4, 10764, Note_on_c, 1, 65, 50
4, 10776, Note_on_c, 1, 65, 0
4, 10776, Note_on_c, 1, 62, 50
4, 10788, Note_on_c, 1, 62, 0
4, 10788, Note_on_c, 1, 65, 50
4, 10800, Note_on_c, 1, 65, 0
4, 10800, Note_on_c, 1, 58, 50
4, 10812, Note_on_c, 1, 58, 0
4, 10812, Note_on_c, 1, 65, 50
4, 10824, Note_on_c, 1, 65, 0
4, 10824, Note_on_c, 1, 62, 50
4, 10836, Note_on_c, 1, 62, 0
4, 10836, Note_on_c, 1, 65, 50
4, 10848, Note_on_c, 1, 65, 0
4, 10848, Note_on_c, 1, 60, 50
4, 10860, Note_on_c, 1, 60, 0
4, 10860, Note_on_c, 1, 65, 50
4, 10872, Note_on_c, 1, 65, 0
4, 10872, Note_on_c, 1, 63, 50
4, 10884, Note_on_c, 1, 63, 0
4, 10884, Note_on_c, 1, 65, 50
4, 10896, Note_on_c, 1, 65, 0
4, 10896, Note_on_c, 1, 60, 50
4, 10908, Note_on_c, 1, 60, 0
4, 10908, Note_on_c, 1, 65, 50
4, 10920, Note_on_c, 1, 65, 0
4, 10920, Note_on_c, 1, 63, 50
4, 10932, Note_on_c, 1, 63, 0
4, 10932, Note_on_c, 1, 65, 50
4, 10944, Note_on_c, 1, 65, 0
4, 10944, Note_on_c, 1, 58, 50
4, 10956, Note_on_c, 1, 58, 0
4, 10956, Note_on_c, 1, 65, 50
4, 10968, Note_on_c, 1, 65, 0
4, 10968, Note_on_c, 1, 62, 50
4, 10980, Note_on_c, 1, 62, 0
4, 10980, Note_on_c, 1, 65, 50
4, 10992, Note_on_c, 1, 65, 0
4, 10992, Note_on_c, 1, 58, 50
4, 11004, Note_on_c, 1, 58, 0
4, 11004, Note_on_c, 1, 65, 50
4, 11016, Note_on_c, 1, 65, 0
4, 11016, Note_on_c, 1, 62, 50
4, 11028, Note_on_c, 1, 62, 0
4, 11028, Note_on_c, 1, 65, 50
4, 11040, Note_on_c, 1, 65, 0
4, 11040, Note_on_c, 1, 57, 50
4, 11052, Note_on_c, 1, 57, 0
4, 11052, Note_on_c, 1, 65, 50
4, 11064, Note_on_c, 1, 65, 0
4, 11064, Note_on_c, 1, 60, 50
4, 11076, Note_on_c, 1, 60, 0
4, 11076, Note_on_c, 1, 65, 50
4, 11088, Note_on_c, 1, 65, 0
4, 11088, Note_on_c, 1, 57, 50
4, 11100, Note_on_c, 1, 57, 0
4, 11100, Note_on_c, 1, 65, 50
4, 11112, Note_on_c, 1, 65, 0
4, 11112, Note_on_c, 1, 60, 50
4, 11124, Note_on_c, 1, 60, 0
4, 11124, Note_on_c, 1, 65, 50
4, 11136, Note_on_c, 1, 65, 0
4, 11136, Note_on_c, 1, 58, 50
4, 11148, Note_on_c, 1, 58, 0
4, 11148, Note_on_c, 1, 65, 50
4, 11160, Note_on_c, 1, 65, 0
4, 11160, Note_on_c, 1, 62, 50
4, 11172, Note_on_c, 1, 62, 0
4, 11172, Note_on_c, 1, 65, 50
4, 11184, Note_on_c, 1, 65, 0
4, 11184, Note_on_c, 1, 58, 50
4, 11196, Note_on_c, 1, 58, 0
4, 11196, Note_on_c, 1, 65, 50
4, 11208, Note_on_c, 1, 65, 0
4, 11208, Note_on_c, 1, 62, 50
4, 11220, Note_on_c, 1, 62, 0
4, 11220, Note_on_c, 1, 65, 50
4, 11232, Note_on_c, 1, 65, 0
4, 11232, Note_on_c, 1, 60, 50
4, 11244, Note_on_c, 1, 60, 0
4, 11244, Note_on_c, 1, 65, 50
4, 11256, Note_on_c, 1, 65, 0
4, 11256, Note_on_c, 1, 63, 50
4, 11268, Note_on_c, 1, 63, 0
4, 11268, Note_on_c, 1, 65, 50
4, 11280, Note_on_c, 1, 65, 0
4, 11280, Note_on_c, 1, 60, 50
4, 11292, Note_on_c, 1, 60, 0
4, 11292, Note_on_c, 1, 65, 50
4, 11304, Note_on_c, 1, 65, 0
4, 11304, Note_on_c, 1, 63, 50
4, 11316, Note_on_c, 1, 63, 0
4, 11316, Note_on_c, 1, 65, 50
4, 11328, Note_on_c, 1, 65, 0
4, 11328, Note_on_c, 1, 58, 50
4, 11340, Note_on_c, 1, 58, 0
4, 11340, Note_on_c, 1, 65, 50
4, 11352, Note_on_c, 1, 65, 0
4, 11352, Note_on_c, 1, 62, 50
4, 11364, Note_on_c, 1, 62, 0
4, 11364, Note_on_c, 1, 65, 50
4, 11376, Note_on_c, 1, 65, 0
4, 11376, Note_on_c, 1, 58, 50
4, 11388, Note_on_c, 1, 58, 0
4, 11388, Note_on_c, 1, 65, 50
4, 11400, Note_on_c, 1, 65, 0
4, 11400, Note_on_c, 1, 62, 50
4, 11412, Note_on_c, 1, 62, 0
4, 11412, Note_on_c, 1, 65, 50
4, 11424, Note_on_c, 1, 65, 0
4, 11424, Note_on_c, 1, 57, 50
4, 11436, Note_on_c, 1, 57, 0
4, 11436, Note_on_c, 1, 65, 50
4, 11448, Note_on_c, 1, 65, 0
4, 11448, Note_on_c, 1, 60, 50
4, 11460, Note_on_c, 1, 60, 0
4, 11460, Note_on_c, 1, 65, 50
4, 11472, Note_on_c, 1, 65, 0
4, 11472, Note_on_c, 1, 57, 50
4, 11484, Note_on_c, 1, 57, 0
4, 11484, Note_on_c, 1, 65, 50
4, 11496, Note_on_c, 1, 65, 0
4, 11496, Note_on_c, 1, 60, 50
4, 11508, Note_on_c, 1, 60, 0
4, 11508, Note_on_c, 1, 65, 50
4, 11520, Note_on_c, 1, 65, 0
4, 11520, Note_on_c, 1, 58, 50
4, 11532, Note_on_c, 1, 58, 0
4, 11532, Note_on_c, 1, 65, 50
4, 11544, Note_on_c, 1, 65, 0
4, 11544, Note_on_c, 1, 62, 51
4, 11556, Note_on_c, 1, 62, 0
4, 11556, Note_on_c, 1, 65, 52
4, 11568, Note_on_c, 1, 65, 0
4, 11568, Note_on_c, 1, 58, 53
4, 11580, Note_on_c, 1, 58, 0
4, 11580, Note_on_c, 1, 65, 53
4, 11592, Note_on_c, 1, 65, 0
4, 11592, Note_on_c, 1, 62, 54
4, 11604, Note_on_c, 1, 62, 0
4, 11604, Note_on_c, 1, 65, 55
4, 11616, Note_on_c, 1, 65, 0
4, 11616, Note_on_c, 1, 60, 56
4, 11628, Note_on_c, 1, 60, 0
4, 11628, Note_on_c, 1, 65, 56
4, 11640, Note_on_c, 1, 65, 0
4, 11640, Note_on_c, 1, 63, 57
4, 11652, Note_on_c, 1, 63, 0
4, 11652, Note_on_c, 1, 65, 58
4, 11664, Note_on_c, 1, 65, 0
4, 11664, Note_on_c, 1, 62, 59
4, 11676, Note_on_c, 1, 62, 0
4, 11676, Note_on_c, 1, 70, 60
4, 11688, Note_on_c, 1, 70, 0
4, 11688, Note_on_c, 1, 65, 60
4, 11700, Note_on_c, 1, 65, 0
4, 11700, Note_on_c, 1, 70, 61
4, 11712, Note_on_c, 1, 70, 0
4, 11712, Note_on_c, 1, 63, 62
4, 11724, Note_on_c, 1, 63, 0
4, 11724, Note_on_c, 1, 70, 63
4, 11736, Note_on_c, 1, 70, 0
4, 11736, Note_on_c, 1, 67, 63
4, 11748, Note_on_c, 1, 67, 0
4, 11748, Note_on_c, 1, 70, 64
4, 11760, Note_on_c, 1, 70, 0
4, 11760, Note_on_c, 1, 63, 65
4, 11772, Note_on_c, 1, 63, 0
4, 11772, Note_on_c, 1, 71, 66
4, 11784, Note_on_c, 1, 71, 0
4, 11784, Note_on_c, 1, 67, 67
4, 11796, Note_on_c, 1, 67, 0
4, 11796, Note_on_c, 1, 71, 67
4, 11808, Note_on_c, 1, 71, 0
4, 11808, Note_on_c, 1, 63, 67
4, 11820, Note_on_c, 1, 63, 0
4, 11820, Note_on_c, 1, 72, 67
4, 11832, Note_on_c, 1, 72, 0
4, 11832, Note_on_c, 1, 67, 67
4, 11844, Note_on_c, 1, 67, 0
4, 11844, Note_on_c, 1, 72, 67
4, 11856, Note_on_c, 1, 72, 0
4, 11856, Note_on_c, 1, 63, 67
4, 11868, Note_on_c, 1, 63, 0
4, 11868, Note_on_c, 1, 72, 67
4, 11880, Note_on_c, 1, 72, 0
4, 11880, Note_on_c, 1, 67, 67
4, 11892, Note_on_c, 1, 67, 0
4, 11892, Note_on_c, 1, 72, 67
4, 11904, Note_on_c, 1, 72, 0
4, 11904, Note_on_c, 1, 65, 67
4, 11916, Note_on_c, 1, 65, 0
4, 11916, Note_on_c, 1, 74, 67
4, 11928, Note_on_c, 1, 74, 0
4, 11928, Note_on_c, 1, 70, 67
4, 11940, Note_on_c, 1, 70, 0
4, 11940, Note_on_c, 1, 74, 67
4, 11952, Note_on_c, 1, 74, 0
4, 11952, Note_on_c, 1, 65, 67
4, 11964, Note_on_c, 1, 65, 0
4, 11964, Note_on_c, 1, 74, 67
4, 11976, Note_on_c, 1, 74, 0
4, 11976, Note_on_c, 1, 70, 67
4, 11988, Note_on_c, 1, 70, 0
4, 11988, Note_on_c, 1, 74, 67
4, 12000, Note_on_c, 1, 74, 0
4, 12000, Note_on_c, 1, 65, 67
4, 12012, Note_on_c, 1, 65, 0
4, 12012, Note_on_c, 1, 75, 65
4, 12024, Note_on_c, 1, 75, 0
4, 12024, Note_on_c, 1, 72, 64
4, 12036, Note_on_c, 1, 72, 0
4, 12036, Note_on_c, 1, 75, 63
4, 12048, Note_on_c, 1, 75, 0
4, 12048, Note_on_c, 1, 65, 62
4, 12060, Note_on_c, 1, 65, 0
4, 12060, Note_on_c, 1, 75, 61
4, 12072, Note_on_c, 1, 75, 0
4, 12072, Note_on_c, 1, 72, 60
4, 12084, Note_on_c, 1, 72, 0
4, 12084, Note_on_c, 1, 75, 59
4, 12096, Note_on_c, 1, 75, 0
4, 12096, Note_on_c, 1, 67, 58
4, 12108, Note_on_c, 1, 67, 0
4, 12108, Note_on_c, 1, 74, 58
4, 12120, Note_on_c, 1, 74, 0
4, 12120, Note_on_c, 1, 70, 58
4, 12132, Note_on_c, 1, 70, 0
4, 12132, Note_on_c, 1, 74, 58
4, 12144, Note_on_c, 1, 74, 0
4, 12144, Note_on_c, 1, 67, 58
4, 12156, Note_on_c, 1, 67, 0
4, 12156, Note_on_c, 1, 74, 58
4, 12168, Note_on_c, 1, 74, 0
4, 12168, Note_on_c, 1, 70, 58
4, 12180, Note_on_c, 1, 70, 0
4, 12180, Note_on_c, 1, 74, 58
4, 12192, Note_on_c, 1, 74, 0
4, 12192, Note_on_c, 1, 67, 58
4, 12204, Note_on_c, 1, 67, 0
4, 12204, Note_on_c, 1, 72, 58
4, 12216, Note_on_c, 1, 72, 0
4, 12216, Note_on_c, 1, 70, 58
4, 12228, Note_on_c, 1, 70, 0
4, 12228, Note_on_c, 1, 72, 58
4, 12240, Note_on_c, 1, 72, 0
4, 12240, Note_on_c, 1, 67, 58
4, 12252, Note_on_c, 1, 67, 0
4, 12252, Note_on_c, 1, 72, 58
4, 12264, Note_on_c, 1, 72, 0
4, 12264, Note_on_c, 1, 70, 58
4, 12276, Note_on_c, 1, 70, 0
4, 12276, Note_on_c, 1, 72, 58
4, 12288, Note_on_c, 1, 72, 0
4, 12288, Note_on_c, 1, 67, 58
4, 12300, Note_on_c, 1, 67, 0
4, 12300, Note_on_c, 1, 72, 58
4, 12312, Note_on_c, 1, 72, 0
4, 12312, Note_on_c, 1, 70, 58
4, 12324, Note_on_c, 1, 70, 0
4, 12324, Note_on_c, 1, 72, 58
4, 12336, Note_on_c, 1, 72, 0
4, 12336, Note_on_c, 1, 67, 58
4, 12348, Note_on_c, 1, 67, 0
4, 12348, Note_on_c, 1, 72, 58
4, 12360, Note_on_c, 1, 72, 0
4, 12360, Note_on_c, 1, 70, 58
4, 12372, Note_on_c, 1, 70, 0
4, 12372, Note_on_c, 1, 72, 58
4, 12384, Note_on_c, 1, 72, 0
4, 12384, Note_on_c, 1, 67, 50
4, 12396, Note_on_c, 1, 67, 0
4, 12396, Note_on_c, 1, 72, 50
4, 12408, Note_on_c, 1, 72, 0
4, 12408, Note_on_c, 1, 70, 50
4, 12420, Note_on_c, 1, 70, 0
4, 12420, Note_on_c, 1, 72, 50
4, 12432, Note_on_c, 1, 72, 0
4, 12432, Note_on_c, 1, 67, 50
4, 12444, Note_on_c, 1, 67, 0
4, 12444, Note_on_c, 1, 72, 50
4, 12456, Note_on_c, 1, 72, 0
4, 12456, Note_on_c, 1, 70, 50
4, 12468, Note_on_c, 1, 70, 0
4, 12468, Note_on_c, 1, 72, 50
4, 12480, Note_on_c, 1, 72, 0
4, 12480, Note_on_c, 1, 69, 50
4, 12525, Note_on_c, 1, 69, 0
4, 12672, Note_on_c, 1, 60, 50
4, 12672, Note_on_c, 1, 57, 50
4, 12849, Note_on_c, 1, 60, 0
4, 12849, Note_on_c, 1, 57, 0
4, 12864, Note_on_c, 1, 58, 50
4, 12909, Note_on_c, 1, 58, 0
4, 12912, Note_on_c, 1, 50, 50
4, 12957, Note_on_c, 1, 50, 0
4, 12960, Note_on_c, 1, 51, 50
4, 13005, Note_on_c, 1, 51, 0
4, 13056, Note_on_c, 1, 62, 50
4, 13056, Note_on_c, 1, 58, 50
4, 13056, Note_on_c, 1, 53, 50
4, 13101, Note_on_c, 1, 62, 0
4, 13101, Note_on_c, 1, 58, 0
4, 13101, Note_on_c, 1, 53, 0
4, 13152, Note_on_c, 1, 62, 50
4, 13197, Note_on_c, 1, 62, 0
4, 13200, Note_on_c, 1, 63, 50
4, 13245, Note_on_c, 1, 63, 0
4, 13248, Note_on_c, 1, 62, 50
4, 13293, Note_on_c, 1, 62, 0
4, 13392, Note_on_c, 1, 53, 67
4, 13437, Note_on_c, 1, 53, 0
4, 13440, Note_on_c, 1, 46, 67
4, 13485, Note_on_c, 1, 46, 0
4, 13536, Note_on_c, 1, 53, 67
4, 13536, Note_on_c, 1, 50, 67
4, 13603, Note_on_c, 1, 53, 0
4, 13603, Note_on_c, 1, 50, 0
4, 13608, Note_on_c, 1, 57, 67
4, 13608, Note_on_c, 1, 53, 67
4, 13608, Note_on_c, 1, 48, 67
4, 13631, Note_on_c, 1, 57, 0
4, 13631, Note_on_c, 1, 53, 0
4, 13631, Note_on_c, 1, 48, 0
4, 13632, Note_on_c, 1, 57, 67
4, 13632, Note_on_c, 1, 51, 67
4, 13632, Note_on_c, 1, 48, 67
4, 13728, Note_on_c, 1, 57, 0
4, 13728, Note_on_c, 1, 51, 0
4, 13728, Note_on_c, 1, 48, 0
4, 13728, Note_on_c, 1, 34, 67
4, 13733, Note_on_c, 1, 38, 67
4, 13738, Note_on_c, 1, 41, 67
4, 13743, Note_on_c, 1, 46, 67
4, 13748, Note_on_c, 1, 50, 67
4, 13753, Note_on_c, 1, 53, 67
4, 13758, Note_on_c, 1, 58, 67
4, 14178, Note_on_c, 1, 58, 0
4, 14178, Note_on_c, 1, 53, 0
4, 14178, Note_on_c, 1, 50, 0
4, 14178, Note_on_c, 1, 46, 0
4, 14178, Note_on_c, 1, 41, 0
4, 14178, Note_on_c, 1, 38, 0
4, 14178, Note_on_c, 1, 34, 0
4, 14208, Note_on_c, 1, 34, 0
4, 14297, Note_on_c, 1, 34, 0
4, 14304, End_track
5, 0, Start_track
5, 0, Program_c, 1, 0
5, 0, Control_c, 1, 7, 127
5, 0, Control_c, 1, 10, 64
5, 2496, Note_on_c, 1, 67, 64
5, 2519, Note_on_c, 1, 67, 0
5, 2520, Note_on_c, 1, 69, 64
5, 2543, Note_on_c, 1, 69, 0
5, 2544, Note_on_c, 1, 70, 64
5, 2567, Note_on_c, 1, 70, 0
5, 2568, Note_on_c, 1, 69, 64
5, 2591, Note_on_c, 1, 69, 0
5, 2592, Note_on_c, 1, 67, 64
5, 2615, Note_on_c, 1, 67, 0
5, 2616, Note_on_c, 1, 65, 64
5, 2639, Note_on_c, 1, 65, 0
5, 2640, Note_on_c, 1, 64, 64
5, 2663, Note_on_c, 1, 64, 0
5, 2664, Note_on_c, 1, 60, 64
5, 2687, Note_on_c, 1, 60, 0
5, 2856, Note_on_c, 1, 59, 64
5, 2879, Note_on_c, 1, 59, 0
5, 2880, Note_on_c, 1, 60, 64
5, 2969, Note_on_c, 1, 60, 0
5, 13152, Note_on_c, 1, 53, 50
5, 13241, Note_on_c, 1, 53, 0
5, 13248, Note_on_c, 1, 58, 50
5, 13293, Note_on_c, 1, 58, 0
5, 13584, Note_on_c, 1, 41, 50
5, 13629, Note_on_c, 1, 41, 0
5, 13632, Note_on_c, 1, 34, 50
5, 13721, Note_on_c, 1, 34, 0
5, 14208, End_track
6, 0, Start_track
6, 0, Title_t, "Sonata III   Haydn  "
6, 0, End_track
0, 0, End_of_file
