0, 0, Header, 1, 4, 96
1, 0, Start_track
1, 0, Copyright_t, "Copyright  1994-2002 Mozart Music Software"
1, 0, Sequencer_specific, 16, 68, 87, 77, 90, 86, 82, 83, 78, 32, 55, 46, 48, 46, 55, 46, 48
1, 0, Time_signature, 2, 2, 24, 8
1, 0, Tempo, 666666
1, 0, Key_signature, -1, "major"
1, 16320, End_track
2, 0, Start_track
2, 0, Program_c, 0, 0
2, 0, Control_c, 0, 7, 127
2, 0, Control_c, 0, 10, 64
2, 0, Note_on_c, 0, 65, 64
2, 9, Note_on_c, 0, 69, 64
2, 18, Note_on_c, 0, 72, 64
2, 27, Note_on_c, 0, 77, 64
2, 95, Note_on_c, 0, 77, 0
2, 95, Note_on_c, 0, 72, 0
2, 95, Note_on_c, 0, 69, 0
2, 95, Note_on_c, 0, 65, 0
2, 96, Note_on_c, 0, 69, 64
2, 130, Note_on_c, 0, 69, 0
2, 132, Note_on_c, 0, 72, 64
2, 144, Note_on_c, 0, 72, 0
2, 144, Note_on_c, 0, 70, 64
2, 178, Note_on_c, 0, 70, 0
2, 180, Note_on_c, 0, 74, 64
2, 192, Note_on_c, 0, 74, 0
2, 192, Note_on_c, 0, 72, 64
2, 237, Note_on_c, 0, 72, 0
2, 240, Note_on_c, 0, 65, 64
2, 285, Note_on_c, 0, 65, 0
2, 288, Note_on_c, 0, 65, 64
2, 333, Note_on_c, 0, 65, 0
2, 336, Note_on_c, 0, 65, 64
2, 381, Note_on_c, 0, 65, 0
2, 384, Note_on_c, 0, 67, 64
2, 394, Note_on_c, 0, 67, 0
2, 394, Note_on_c, 0, 69, 64
2, 404, Note_on_c, 0, 69, 0
2, 404, Note_on_c, 0, 67, 64
2, 414, Note_on_c, 0, 67, 0
2, 414, Note_on_c, 0, 65, 64
2, 423, Note_on_c, 0, 65, 0
2, 423, Note_on_c, 0, 67, 64
2, 432, Note_on_c, 0, 67, 0
2, 432, Note_on_c, 0, 65, 64
2, 477, Note_on_c, 0, 65, 0
2, 480, Note_on_c, 0, 72, 64
2, 503, Note_on_c, 0, 72, 0
2, 504, Note_on_c, 0, 69, 64
2, 527, Note_on_c, 0, 69, 0
2, 528, Note_on_c, 0, 67, 64
2, 551, Note_on_c, 0, 67, 0
2, 552, Note_on_c, 0, 65, 64
2, 575, Note_on_c, 0, 65, 0
2, 576, Note_on_c, 0, 67, 64
2, 586, Note_on_c, 0, 67, 0
2, 586, Note_on_c, 0, 69, 64
2, 596, Note_on_c, 0, 69, 0
2, 596, Note_on_c, 0, 67, 64
2, 606, Note_on_c, 0, 67, 0
2, 606, Note_on_c, 0, 65, 64
2, 615, Note_on_c, 0, 65, 0
2, 615, Note_on_c, 0, 67, 64
2, 624, Note_on_c, 0, 67, 0
2, 624, Note_on_c, 0, 65, 64
2, 669, Note_on_c, 0, 65, 0
2, 720, Note_on_c, 0, 72, 64
2, 765, Note_on_c, 0, 72, 0
2, 768, Note_on_c, 0, 74, 64
2, 802, Note_on_c, 0, 74, 0
2, 804, Note_on_c, 0, 77, 64
2, 816, Note_on_c, 0, 77, 0
2, 816, Note_on_c, 0, 76, 64
2, 850, Note_on_c, 0, 76, 0
2, 852, Note_on_c, 0, 74, 64
2, 864, Note_on_c, 0, 74, 0
2, 864, Note_on_c, 0, 72, 64
2, 909, Note_on_c, 0, 72, 0
2, 912, Note_on_c, 0, 77, 64
2, 957, Note_on_c, 0, 77, 0
2, 960, Note_on_c, 0, 70, 64
2, 971, Note_on_c, 0, 70, 0
2, 971, Note_on_c, 0, 72, 64
2, 982, Note_on_c, 0, 72, 0
2, 982, Note_on_c, 0, 70, 64
2, 993, Note_on_c, 0, 70, 0
2, 993, Note_on_c, 0, 72, 64
2, 1004, Note_on_c, 0, 72, 0
2, 1004, Note_on_c, 0, 70, 64
2, 1015, Note_on_c, 0, 70, 0
2, 1015, Note_on_c, 0, 72, 64
2, 1026, Note_on_c, 0, 72, 0
2, 1026, Note_on_c, 0, 70, 64
2, 1036, Note_on_c, 0, 70, 0
2, 1036, Note_on_c, 0, 69, 64
2, 1046, Note_on_c, 0, 69, 0
2, 1046, Note_on_c, 0, 70, 64
2, 1056, Note_on_c, 0, 70, 0
2, 1056, Note_on_c, 0, 69, 64
2, 1101, Note_on_c, 0, 69, 0
2, 1104, Note_on_c, 0, 72, 64
2, 1149, Note_on_c, 0, 72, 0
2, 1152, Note_on_c, 0, 74, 64
2, 1186, Note_on_c, 0, 74, 0
2, 1188, Note_on_c, 0, 77, 64
2, 1200, Note_on_c, 0, 77, 0
2, 1200, Note_on_c, 0, 76, 64
2, 1234, Note_on_c, 0, 76, 0
2, 1236, Note_on_c, 0, 74, 64
2, 1248, Note_on_c, 0, 74, 0
2, 1248, Note_on_c, 0, 72, 64
2, 1293, Note_on_c, 0, 72, 0
2, 1296, Note_on_c, 0, 81, 64
2, 1341, Note_on_c, 0, 81, 0
2, 1344, Note_on_c, 0, 79, 64
2, 1364, Note_on_c, 0, 79, 0
2, 1392, Note_on_c, 0, 72, 64
2, 1398, Note_on_c, 0, 72, 0
2, 1398, Note_on_c, 0, 74, 64
2, 1404, Note_on_c, 0, 74, 0
2, 1404, Note_on_c, 0, 76, 64
2, 1438, Note_on_c, 0, 76, 0
2, 1440, Note_on_c, 0, 76, 64
2, 1446, Note_on_c, 0, 76, 0
2, 1446, Note_on_c, 0, 77, 64
2, 1452, Note_on_c, 0, 77, 0
2, 1452, Note_on_c, 0, 79, 64
2, 1486, Note_on_c, 0, 79, 0
2, 1488, Note_on_c, 0, 77, 64
2, 1494, Note_on_c, 0, 77, 0
2, 1494, Note_on_c, 0, 79, 64
2, 1500, Note_on_c, 0, 79, 0
2, 1500, Note_on_c, 0, 81, 64
2, 1534, Note_on_c, 0, 81, 0
2, 1536, Note_on_c, 0, 79, 64
2, 1556, Note_on_c, 0, 79, 0
2, 1584, Note_on_c, 0, 72, 64
2, 1590, Note_on_c, 0, 72, 0
2, 1590, Note_on_c, 0, 74, 64
2, 1596, Note_on_c, 0, 74, 0
2, 1596, Note_on_c, 0, 76, 64
2, 1630, Note_on_c, 0, 76, 0
2, 1632, Note_on_c, 0, 76, 64
2, 1638, Note_on_c, 0, 76, 0
2, 1638, Note_on_c, 0, 77, 64
2, 1644, Note_on_c, 0, 77, 0
2, 1644, Note_on_c, 0, 79, 64
2, 1678, Note_on_c, 0, 79, 0
2, 1680, Note_on_c, 0, 84, 64
2, 1686, Note_on_c, 0, 84, 0
2, 1686, Note_on_c, 0, 83, 64
2, 1692, Note_on_c, 0, 83, 0
2, 1692, Note_on_c, 0, 81, 64
2, 1726, Note_on_c, 0, 81, 0
2, 1728, Note_on_c, 0, 79, 64
2, 1773, Note_on_c, 0, 79, 0
2, 1776, Note_on_c, 0, 77, 64
2, 1788, Note_on_c, 0, 77, 0
2, 1788, Note_on_c, 0, 76, 64
2, 1800, Note_on_c, 0, 76, 0
2, 1800, Note_on_c, 0, 74, 64
2, 1812, Note_on_c, 0, 74, 0
2, 1812, Note_on_c, 0, 72, 64
2, 1824, Note_on_c, 0, 72, 0
2, 1824, Note_on_c, 0, 74, 64
2, 1835, Note_on_c, 0, 74, 0
2, 1835, Note_on_c, 0, 76, 64
2, 1846, Note_on_c, 0, 76, 0
2, 1846, Note_on_c, 0, 74, 64
2, 1857, Note_on_c, 0, 74, 0
2, 1857, Note_on_c, 0, 76, 64
2, 1868, Note_on_c, 0, 76, 0
2, 1868, Note_on_c, 0, 74, 64
2, 1879, Note_on_c, 0, 74, 0
2, 1879, Note_on_c, 0, 76, 64
2, 1890, Note_on_c, 0, 76, 0
2, 1890, Note_on_c, 0, 74, 64
2, 1900, Note_on_c, 0, 74, 0
2, 1900, Note_on_c, 0, 72, 64
2, 1910, Note_on_c, 0, 72, 0
2, 1910, Note_on_c, 0, 74, 64
2, 1920, Note_on_c, 0, 74, 0
2, 1920, Note_on_c, 0, 72, 64
2, 2009, Note_on_c, 0, 72, 0
2, 2040, Note_on_c, 0, 79, 80
2, 2063, Note_on_c, 0, 79, 0
2, 2064, Note_on_c, 0, 67, 80
2, 2087, Note_on_c, 0, 67, 0
2, 2088, Note_on_c, 0, 79, 80
2, 2111, Note_on_c, 0, 79, 0
2, 2112, Note_on_c, 0, 69, 80
2, 2135, Note_on_c, 0, 69, 0
2, 2136, Note_on_c, 0, 79, 80
2, 2159, Note_on_c, 0, 79, 0
2, 2160, Note_on_c, 0, 77, 80
2, 2183, Note_on_c, 0, 77, 0
2, 2184, Note_on_c, 0, 76, 80
2, 2207, Note_on_c, 0, 76, 0
2, 2208, Note_on_c, 0, 77, 80
2, 2214, Note_on_c, 0, 77, 0
2, 2214, Note_on_c, 0, 79, 80
2, 2220, Note_on_c, 0, 79, 0
2, 2220, Note_on_c, 0, 77, 80
2, 2231, Note_on_c, 0, 77, 0
2, 2232, Note_on_c, 0, 74, 80
2, 2255, Note_on_c, 0, 74, 0
2, 2256, Note_on_c, 0, 72, 80
2, 2262, Note_on_c, 0, 72, 0
2, 2262, Note_on_c, 0, 74, 80
2, 2268, Note_on_c, 0, 74, 0
2, 2268, Note_on_c, 0, 72, 80
2, 2279, Note_on_c, 0, 72, 0
2, 2280, Note_on_c, 0, 71, 80
2, 2303, Note_on_c, 0, 71, 0
2, 2304, Note_on_c, 0, 72, 80
2, 2310, Note_on_c, 0, 72, 0
2, 2310, Note_on_c, 0, 74, 80
2, 2316, Note_on_c, 0, 74, 0
2, 2316, Note_on_c, 0, 72, 80
2, 2327, Note_on_c, 0, 72, 0
2, 2328, Note_on_c, 0, 71, 80
2, 2351, Note_on_c, 0, 71, 0
2, 2352, Note_on_c, 0, 72, 80
2, 2375, Note_on_c, 0, 72, 0
2, 2376, Note_on_c, 0, 76, 80
2, 2399, Note_on_c, 0, 76, 0
2, 2400, Note_on_c, 0, 72, 80
2, 2423, Note_on_c, 0, 72, 0
2, 2424, Note_on_c, 0, 79, 80
2, 2447, Note_on_c, 0, 79, 0
2, 2448, Note_on_c, 0, 67, 80
2, 2471, Note_on_c, 0, 67, 0
2, 2472, Note_on_c, 0, 79, 80
2, 2495, Note_on_c, 0, 79, 0
2, 2496, Note_on_c, 0, 69, 80
2, 2519, Note_on_c, 0, 69, 0
2, 2520, Note_on_c, 0, 79, 80
2, 2543, Note_on_c, 0, 79, 0
2, 2544, Note_on_c, 0, 77, 80
2, 2567, Note_on_c, 0, 77, 0
2, 2568, Note_on_c, 0, 76, 80
2, 2591, Note_on_c, 0, 76, 0
2, 2592, Note_on_c, 0, 77, 80
2, 2598, Note_on_c, 0, 77, 0
2, 2598, Note_on_c, 0, 79, 80
2, 2604, Note_on_c, 0, 79, 0
2, 2604, Note_on_c, 0, 77, 80
2, 2615, Note_on_c, 0, 77, 0
2, 2616, Note_on_c, 0, 74, 80
2, 2639, Note_on_c, 0, 74, 0
2, 2640, Note_on_c, 0, 72, 80
2, 2646, Note_on_c, 0, 72, 0
2, 2646, Note_on_c, 0, 74, 80
2, 2652, Note_on_c, 0, 74, 0
2, 2652, Note_on_c, 0, 72, 80
2, 2663, Note_on_c, 0, 72, 0
2, 2664, Note_on_c, 0, 71, 80
2, 2687, Note_on_c, 0, 71, 0
2, 2688, Note_on_c, 0, 72, 80
2, 2777, Note_on_c, 0, 72, 0
2, 2880, Note_on_c, 0, 65, 64
2, 2889, Note_on_c, 0, 69, 64
2, 2898, Note_on_c, 0, 72, 64
2, 2907, Note_on_c, 0, 77, 64
2, 2975, Note_on_c, 0, 77, 0
2, 2975, Note_on_c, 0, 72, 0
2, 2975, Note_on_c, 0, 69, 0
2, 2975, Note_on_c, 0, 65, 0
2, 2976, Note_on_c, 0, 69, 64
2, 3010, Note_on_c, 0, 69, 0
2, 3012, Note_on_c, 0, 72, 64
2, 3024, Note_on_c, 0, 72, 0
2, 3024, Note_on_c, 0, 70, 64
2, 3058, Note_on_c, 0, 70, 0
2, 3060, Note_on_c, 0, 74, 64
2, 3072, Note_on_c, 0, 74, 0
2, 3072, Note_on_c, 0, 72, 64
2, 3117, Note_on_c, 0, 72, 0
2, 3120, Note_on_c, 0, 65, 64
2, 3165, Note_on_c, 0, 65, 0
2, 3168, Note_on_c, 0, 65, 64
2, 3213, Note_on_c, 0, 65, 0
2, 3216, Note_on_c, 0, 65, 64
2, 3261, Note_on_c, 0, 65, 0
2, 3264, Note_on_c, 0, 67, 64
2, 3274, Note_on_c, 0, 67, 0
2, 3274, Note_on_c, 0, 69, 64
2, 3284, Note_on_c, 0, 69, 0
2, 3284, Note_on_c, 0, 67, 64
2, 3294, Note_on_c, 0, 67, 0
2, 3294, Note_on_c, 0, 65, 64
2, 3303, Note_on_c, 0, 65, 0
2, 3303, Note_on_c, 0, 67, 64
2, 3312, Note_on_c, 0, 67, 0
2, 3312, Note_on_c, 0, 65, 64
2, 3357, Note_on_c, 0, 65, 0
2, 3360, Note_on_c, 0, 72, 64
2, 3383, Note_on_c, 0, 72, 0
2, 3384, Note_on_c, 0, 69, 64
2, 3407, Note_on_c, 0, 69, 0
2, 3408, Note_on_c, 0, 67, 64
2, 3431, Note_on_c, 0, 67, 0
2, 3432, Note_on_c, 0, 65, 64
2, 3455, Note_on_c, 0, 65, 0
2, 3456, Note_on_c, 0, 67, 64
2, 3466, Note_on_c, 0, 67, 0
2, 3466, Note_on_c, 0, 69, 64
2, 3476, Note_on_c, 0, 69, 0
2, 3476, Note_on_c, 0, 67, 64
2, 3486, Note_on_c, 0, 67, 0
2, 3486, Note_on_c, 0, 65, 64
2, 3495, Note_on_c, 0, 65, 0
2, 3495, Note_on_c, 0, 67, 64
2, 3504, Note_on_c, 0, 67, 0
2, 3504, Note_on_c, 0, 65, 64
2, 3549, Note_on_c, 0, 65, 0
2, 3600, Note_on_c, 0, 72, 64
2, 3645, Note_on_c, 0, 72, 0
2, 3648, Note_on_c, 0, 74, 64
2, 3682, Note_on_c, 0, 74, 0
2, 3684, Note_on_c, 0, 77, 64
2, 3696, Note_on_c, 0, 77, 0
2, 3696, Note_on_c, 0, 76, 64
2, 3730, Note_on_c, 0, 76, 0
2, 3732, Note_on_c, 0, 74, 64
2, 3744, Note_on_c, 0, 74, 0
2, 3744, Note_on_c, 0, 72, 64
2, 3789, Note_on_c, 0, 72, 0
2, 3792, Note_on_c, 0, 77, 64
2, 3837, Note_on_c, 0, 77, 0
2, 3840, Note_on_c, 0, 70, 64
2, 3851, Note_on_c, 0, 70, 0
2, 3851, Note_on_c, 0, 72, 64
2, 3862, Note_on_c, 0, 72, 0
2, 3862, Note_on_c, 0, 70, 64
2, 3873, Note_on_c, 0, 70, 0
2, 3873, Note_on_c, 0, 72, 64
2, 3884, Note_on_c, 0, 72, 0
2, 3884, Note_on_c, 0, 70, 64
2, 3895, Note_on_c, 0, 70, 0
2, 3895, Note_on_c, 0, 72, 64
2, 3906, Note_on_c, 0, 72, 0
2, 3906, Note_on_c, 0, 70, 64
2, 3916, Note_on_c, 0, 70, 0
2, 3916, Note_on_c, 0, 69, 64
2, 3926, Note_on_c, 0, 69, 0
2, 3926, Note_on_c, 0, 70, 64
2, 3936, Note_on_c, 0, 70, 0
2, 3936, Note_on_c, 0, 69, 64
2, 3981, Note_on_c, 0, 69, 0
2, 3984, Note_on_c, 0, 72, 64
2, 4029, Note_on_c, 0, 72, 0
2, 4032, Note_on_c, 0, 74, 64
2, 4066, Note_on_c, 0, 74, 0
2, 4068, Note_on_c, 0, 77, 64
2, 4080, Note_on_c, 0, 77, 0
2, 4080, Note_on_c, 0, 76, 64
2, 4114, Note_on_c, 0, 76, 0
2, 4116, Note_on_c, 0, 74, 64
2, 4128, Note_on_c, 0, 74, 0
2, 4128, Note_on_c, 0, 72, 64
2, 4173, Note_on_c, 0, 72, 0
2, 4176, Note_on_c, 0, 81, 64
2, 4221, Note_on_c, 0, 81, 0
2, 4224, Note_on_c, 0, 79, 64
2, 4244, Note_on_c, 0, 79, 0
2, 4272, Note_on_c, 0, 72, 64
2, 4278, Note_on_c, 0, 72, 0
2, 4278, Note_on_c, 0, 74, 64
2, 4284, Note_on_c, 0, 74, 0
2, 4284, Note_on_c, 0, 76, 64
2, 4318, Note_on_c, 0, 76, 0
2, 4320, Note_on_c, 0, 76, 64
2, 4326, Note_on_c, 0, 76, 0
2, 4326, Note_on_c, 0, 77, 64
2, 4332, Note_on_c, 0, 77, 0
2, 4332, Note_on_c, 0, 79, 64
2, 4366, Note_on_c, 0, 79, 0
2, 4368, Note_on_c, 0, 77, 64
2, 4374, Note_on_c, 0, 77, 0
2, 4374, Note_on_c, 0, 79, 64
2, 4380, Note_on_c, 0, 79, 0
2, 4380, Note_on_c, 0, 81, 64
2, 4414, Note_on_c, 0, 81, 0
2, 4416, Note_on_c, 0, 79, 64
2, 4436, Note_on_c, 0, 79, 0
2, 4464, Note_on_c, 0, 72, 64
2, 4470, Note_on_c, 0, 72, 0
2, 4470, Note_on_c, 0, 74, 64
2, 4476, Note_on_c, 0, 74, 0
2, 4476, Note_on_c, 0, 76, 64
2, 4510, Note_on_c, 0, 76, 0
2, 4512, Note_on_c, 0, 76, 64
2, 4518, Note_on_c, 0, 76, 0
2, 4518, Note_on_c, 0, 77, 64
2, 4524, Note_on_c, 0, 77, 0
2, 4524, Note_on_c, 0, 79, 64
2, 4558, Note_on_c, 0, 79, 0
2, 4560, Note_on_c, 0, 84, 64
2, 4566, Note_on_c, 0, 84, 0
2, 4566, Note_on_c, 0, 83, 64
2, 4572, Note_on_c, 0, 83, 0
2, 4572, Note_on_c, 0, 81, 64
2, 4606, Note_on_c, 0, 81, 0
2, 4608, Note_on_c, 0, 79, 64
2, 4653, Note_on_c, 0, 79, 0
2, 4656, Note_on_c, 0, 77, 64
2, 4668, Note_on_c, 0, 77, 0
2, 4668, Note_on_c, 0, 76, 64
2, 4680, Note_on_c, 0, 76, 0
2, 4680, Note_on_c, 0, 74, 64
2, 4692, Note_on_c, 0, 74, 0
2, 4692, Note_on_c, 0, 72, 64
2, 4704, Note_on_c, 0, 72, 0
2, 4704, Note_on_c, 0, 74, 64
2, 4715, Note_on_c, 0, 74, 0
2, 4715, Note_on_c, 0, 76, 64
2, 4726, Note_on_c, 0, 76, 0
2, 4726, Note_on_c, 0, 74, 64
2, 4737, Note_on_c, 0, 74, 0
2, 4737, Note_on_c, 0, 76, 64
2, 4748, Note_on_c, 0, 76, 0
2, 4748, Note_on_c, 0, 74, 64
2, 4759, Note_on_c, 0, 74, 0
2, 4759, Note_on_c, 0, 76, 64
2, 4770, Note_on_c, 0, 76, 0
2, 4770, Note_on_c, 0, 74, 64
2, 4780, Note_on_c, 0, 74, 0
2, 4780, Note_on_c, 0, 72, 64
2, 4790, Note_on_c, 0, 72, 0
2, 4790, Note_on_c, 0, 74, 64
2, 4800, Note_on_c, 0, 74, 0
2, 4800, Note_on_c, 0, 72, 64
2, 4889, Note_on_c, 0, 72, 0
2, 4920, Note_on_c, 0, 79, 80
2, 4943, Note_on_c, 0, 79, 0
2, 4944, Note_on_c, 0, 67, 80
2, 4967, Note_on_c, 0, 67, 0
2, 4968, Note_on_c, 0, 79, 80
2, 4991, Note_on_c, 0, 79, 0
2, 4992, Note_on_c, 0, 69, 80
2, 5015, Note_on_c, 0, 69, 0
2, 5016, Note_on_c, 0, 79, 80
2, 5039, Note_on_c, 0, 79, 0
2, 5040, Note_on_c, 0, 77, 80
2, 5063, Note_on_c, 0, 77, 0
2, 5064, Note_on_c, 0, 76, 80
2, 5087, Note_on_c, 0, 76, 0
2, 5088, Note_on_c, 0, 77, 80
2, 5094, Note_on_c, 0, 77, 0
2, 5094, Note_on_c, 0, 79, 80
2, 5100, Note_on_c, 0, 79, 0
2, 5100, Note_on_c, 0, 77, 80
2, 5111, Note_on_c, 0, 77, 0
2, 5112, Note_on_c, 0, 74, 80
2, 5135, Note_on_c, 0, 74, 0
2, 5136, Note_on_c, 0, 72, 80
2, 5142, Note_on_c, 0, 72, 0
2, 5142, Note_on_c, 0, 74, 80
2, 5148, Note_on_c, 0, 74, 0
2, 5148, Note_on_c, 0, 72, 80
2, 5159, Note_on_c, 0, 72, 0
2, 5160, Note_on_c, 0, 71, 80
2, 5183, Note_on_c, 0, 71, 0
2, 5184, Note_on_c, 0, 72, 80
2, 5190, Note_on_c, 0, 72, 0
2, 5190, Note_on_c, 0, 74, 80
2, 5196, Note_on_c, 0, 74, 0
2, 5196, Note_on_c, 0, 72, 80
2, 5207, Note_on_c, 0, 72, 0
2, 5208, Note_on_c, 0, 71, 80
2, 5231, Note_on_c, 0, 71, 0
2, 5232, Note_on_c, 0, 72, 80
2, 5255, Note_on_c, 0, 72, 0
2, 5256, Note_on_c, 0, 76, 80
2, 5279, Note_on_c, 0, 76, 0
2, 5280, Note_on_c, 0, 72, 80
2, 5303, Note_on_c, 0, 72, 0
2, 5304, Note_on_c, 0, 79, 80
2, 5327, Note_on_c, 0, 79, 0
2, 5328, Note_on_c, 0, 67, 80
2, 5351, Note_on_c, 0, 67, 0
2, 5352, Note_on_c, 0, 79, 80
2, 5375, Note_on_c, 0, 79, 0
2, 5376, Note_on_c, 0, 69, 80
2, 5399, Note_on_c, 0, 69, 0
2, 5400, Note_on_c, 0, 79, 80
2, 5423, Note_on_c, 0, 79, 0
2, 5424, Note_on_c, 0, 77, 80
2, 5447, Note_on_c, 0, 77, 0
2, 5448, Note_on_c, 0, 76, 80
2, 5471, Note_on_c, 0, 76, 0
2, 5472, Note_on_c, 0, 77, 80
2, 5478, Note_on_c, 0, 77, 0
2, 5478, Note_on_c, 0, 79, 80
2, 5484, Note_on_c, 0, 79, 0
2, 5484, Note_on_c, 0, 77, 80
2, 5495, Note_on_c, 0, 77, 0
2, 5496, Note_on_c, 0, 74, 80
2, 5519, Note_on_c, 0, 74, 0
2, 5520, Note_on_c, 0, 72, 80
2, 5526, Note_on_c, 0, 72, 0
2, 5526, Note_on_c, 0, 74, 80
2, 5532, Note_on_c, 0, 74, 0
2, 5532, Note_on_c, 0, 72, 80
2, 5543, Note_on_c, 0, 72, 0
2, 5544, Note_on_c, 0, 71, 80
2, 5567, Note_on_c, 0, 71, 0
2, 5568, Note_on_c, 0, 72, 80
2, 5657, Note_on_c, 0, 72, 0
2, 5760, Note_on_c, 0, 60, 85
2, 5769, Note_on_c, 0, 64, 85
2, 5778, Note_on_c, 0, 67, 85
2, 5787, Note_on_c, 0, 72, 85
2, 5832, Note_on_c, 0, 60, 0
2, 5855, Note_on_c, 0, 72, 0
2, 5855, Note_on_c, 0, 67, 0
2, 5855, Note_on_c, 0, 64, 0
2, 5856, Note_on_c, 0, 64, 85
2, 5890, Note_on_c, 0, 64, 0
2, 5892, Note_on_c, 0, 67, 85
2, 5904, Note_on_c, 0, 67, 0
2, 5904, Note_on_c, 0, 65, 85
2, 5938, Note_on_c, 0, 65, 0
2, 5940, Note_on_c, 0, 69, 85
2, 5952, Note_on_c, 0, 69, 0
2, 5952, Note_on_c, 0, 67, 85
2, 5997, Note_on_c, 0, 67, 0
2, 6000, Note_on_c, 0, 79, 85
2, 6000, Note_on_c, 0, 70, 85
2, 6020, Note_on_c, 0, 79, 0
2, 6020, Note_on_c, 0, 70, 0
2, 6048, Note_on_c, 0, 79, 85
2, 6048, Note_on_c, 0, 70, 85
2, 6093, Note_on_c, 0, 79, 0
2, 6093, Note_on_c, 0, 70, 0
2, 6096, Note_on_c, 0, 70, 85
2, 6096, Note_on_c, 0, 67, 85
2, 6141, Note_on_c, 0, 70, 0
2, 6141, Note_on_c, 0, 67, 0
2, 6144, Note_on_c, 0, 69, 85
2, 6144, Note_on_c, 0, 65, 85
2, 6233, Note_on_c, 0, 69, 0
2, 6233, Note_on_c, 0, 65, 0
2, 6240, Note_on_c, 0, 65, 85
2, 6274, Note_on_c, 0, 65, 0
2, 6276, Note_on_c, 0, 69, 85
2, 6288, Note_on_c, 0, 69, 0
2, 6288, Note_on_c, 0, 67, 85
2, 6322, Note_on_c, 0, 67, 0
2, 6324, Note_on_c, 0, 70, 85
2, 6336, Note_on_c, 0, 70, 0
2, 6336, Note_on_c, 0, 69, 85
2, 6381, Note_on_c, 0, 69, 0
2, 6384, Note_on_c, 0, 77, 85
2, 6384, Note_on_c, 0, 69, 85
2, 6404, Note_on_c, 0, 77, 0
2, 6404, Note_on_c, 0, 69, 0
2, 6432, Note_on_c, 0, 77, 85
2, 6432, Note_on_c, 0, 69, 85
2, 6477, Note_on_c, 0, 77, 0
2, 6477, Note_on_c, 0, 69, 0
2, 6480, Note_on_c, 0, 72, 85
2, 6480, Note_on_c, 0, 69, 85
2, 6525, Note_on_c, 0, 72, 0
2, 6525, Note_on_c, 0, 69, 0
2, 6528, Note_on_c, 0, 70, 85
2, 6528, Note_on_c, 0, 67, 85
2, 6617, Note_on_c, 0, 70, 0
2, 6617, Note_on_c, 0, 67, 0
2, 6624, Note_on_c, 0, 67, 85
2, 6658, Note_on_c, 0, 67, 0
2, 6660, Note_on_c, 0, 70, 85
2, 6672, Note_on_c, 0, 70, 0
2, 6672, Note_on_c, 0, 69, 85
2, 6706, Note_on_c, 0, 69, 0
2, 6708, Note_on_c, 0, 72, 85
2, 6720, Note_on_c, 0, 72, 0
2, 6720, Note_on_c, 0, 70, 85
2, 6765, Note_on_c, 0, 70, 0
2, 6768, Note_on_c, 0, 82, 85
2, 6768, Note_on_c, 0, 79, 85
2, 6788, Note_on_c, 0, 82, 0
2, 6788, Note_on_c, 0, 79, 0
2, 6816, Note_on_c, 0, 82, 85
2, 6816, Note_on_c, 0, 79, 85
2, 6861, Note_on_c, 0, 82, 0
2, 6861, Note_on_c, 0, 79, 0
2, 6864, Note_on_c, 0, 70, 85
2, 6864, Note_on_c, 0, 67, 85
2, 6909, Note_on_c, 0, 70, 0
2, 6909, Note_on_c, 0, 67, 0
2, 6912, Note_on_c, 0, 69, 85
2, 6912, Note_on_c, 0, 65, 85
2, 7001, Note_on_c, 0, 69, 0
2, 7001, Note_on_c, 0, 65, 0
2, 7008, Note_on_c, 0, 84, 85
2, 7031, Note_on_c, 0, 84, 0
2, 7032, Note_on_c, 0, 81, 85
2, 7055, Note_on_c, 0, 81, 0
2, 7056, Note_on_c, 0, 79, 85
2, 7079, Note_on_c, 0, 79, 0
2, 7080, Note_on_c, 0, 77, 85
2, 7103, Note_on_c, 0, 77, 0
2, 7104, Note_on_c, 0, 79, 85
2, 7114, Note_on_c, 0, 79, 0
2, 7114, Note_on_c, 0, 81, 85
2, 7124, Note_on_c, 0, 81, 0
2, 7124, Note_on_c, 0, 79, 85
2, 7134, Note_on_c, 0, 79, 0
2, 7134, Note_on_c, 0, 77, 85
2, 7143, Note_on_c, 0, 77, 0
2, 7143, Note_on_c, 0, 79, 85
2, 7152, Note_on_c, 0, 79, 0
2, 7152, Note_on_c, 0, 77, 85
2, 7197, Note_on_c, 0, 77, 0
2, 7200, Note_on_c, 0, 84, 85
2, 7223, Note_on_c, 0, 84, 0
2, 7224, Note_on_c, 0, 81, 85
2, 7247, Note_on_c, 0, 81, 0
2, 7248, Note_on_c, 0, 79, 85
2, 7271, Note_on_c, 0, 79, 0
2, 7272, Note_on_c, 0, 77, 85
2, 7295, Note_on_c, 0, 77, 0
2, 7296, Note_on_c, 0, 79, 85
2, 7306, Note_on_c, 0, 79, 0
2, 7306, Note_on_c, 0, 81, 85
2, 7316, Note_on_c, 0, 81, 0
2, 7316, Note_on_c, 0, 79, 85
2, 7326, Note_on_c, 0, 79, 0
2, 7326, Note_on_c, 0, 77, 85
2, 7335, Note_on_c, 0, 77, 0
2, 7335, Note_on_c, 0, 79, 85
2, 7344, Note_on_c, 0, 79, 0
2, 7344, Note_on_c, 0, 77, 85
2, 7389, Note_on_c, 0, 77, 0
2, 7392, Note_on_c, 0, 72, 80
2, 7415, Note_on_c, 0, 72, 0
2, 7416, Note_on_c, 0, 84, 80
2, 7439, Note_on_c, 0, 84, 0
2, 7440, Note_on_c, 0, 72, 80
2, 7463, Note_on_c, 0, 72, 0
2, 7464, Note_on_c, 0, 84, 80
2, 7487, Note_on_c, 0, 84, 0
2, 7488, Note_on_c, 0, 74, 80
2, 7511, Note_on_c, 0, 74, 0
2, 7512, Note_on_c, 0, 84, 80
2, 7536, Note_on_c, 0, 84, 0
2, 7536, Note_on_c, 0, 82, 80
2, 7559, Note_on_c, 0, 82, 0
2, 7560, Note_on_c, 0, 81, 80
2, 7583, Note_on_c, 0, 81, 0
2, 7584, Note_on_c, 0, 82, 80
2, 7607, Note_on_c, 0, 82, 0
2, 7608, Note_on_c, 0, 74, 80
2, 7631, Note_on_c, 0, 74, 0
2, 7632, Note_on_c, 0, 82, 80
2, 7655, Note_on_c, 0, 82, 0
2, 7656, Note_on_c, 0, 74, 80
2, 7679, Note_on_c, 0, 74, 0
2, 7680, Note_on_c, 0, 82, 80
2, 7703, Note_on_c, 0, 82, 0
2, 7704, Note_on_c, 0, 72, 80
2, 7727, Note_on_c, 0, 72, 0
2, 7728, Note_on_c, 0, 79, 80
2, 7751, Note_on_c, 0, 79, 0
2, 7752, Note_on_c, 0, 82, 80
2, 7776, Note_on_c, 0, 82, 0
2, 7776, Note_on_c, 0, 81, 80
2, 7799, Note_on_c, 0, 81, 0
2, 7800, Note_on_c, 0, 77, 80
2, 7823, Note_on_c, 0, 77, 0
2, 7824, Note_on_c, 0, 76, 80
2, 7847, Note_on_c, 0, 76, 0
2, 7848, Note_on_c, 0, 77, 80
2, 7871, Note_on_c, 0, 77, 0
2, 7872, Note_on_c, 0, 74, 80
2, 7917, Note_on_c, 0, 74, 0
2, 7920, Note_on_c, 0, 82, 80
2, 7935, Note_on_c, 0, 82, 0
2, 7936, Note_on_c, 0, 81, 81
2, 7951, Note_on_c, 0, 81, 0
2, 7952, Note_on_c, 0, 79, 81
2, 7967, Note_on_c, 0, 79, 0
2, 7968, Note_on_c, 0, 82, 81
2, 7983, Note_on_c, 0, 82, 0
2, 7984, Note_on_c, 0, 81, 81
2, 7999, Note_on_c, 0, 81, 0
2, 8000, Note_on_c, 0, 79, 81
2, 8015, Note_on_c, 0, 79, 0
2, 8016, Note_on_c, 0, 81, 82
2, 8031, Note_on_c, 0, 81, 0
2, 8032, Note_on_c, 0, 79, 82
2, 8047, Note_on_c, 0, 79, 0
2, 8048, Note_on_c, 0, 77, 82
2, 8063, Note_on_c, 0, 77, 0
2, 8064, Note_on_c, 0, 76, 82
2, 8079, Note_on_c, 0, 76, 0
2, 8080, Note_on_c, 0, 77, 82
2, 8095, Note_on_c, 0, 77, 0
2, 8096, Note_on_c, 0, 79, 83
2, 8111, Note_on_c, 0, 79, 0
2, 8112, Note_on_c, 0, 72, 83
2, 8157, Note_on_c, 0, 72, 0
2, 8256, Note_on_c, 0, 65, 85
2, 8265, Note_on_c, 0, 69, 85
2, 8274, Note_on_c, 0, 72, 85
2, 8283, Note_on_c, 0, 77, 85
2, 8351, Note_on_c, 0, 77, 0
2, 8351, Note_on_c, 0, 72, 0
2, 8351, Note_on_c, 0, 69, 0
2, 8351, Note_on_c, 0, 65, 0
2, 8352, Note_on_c, 0, 69, 85
2, 8386, Note_on_c, 0, 69, 0
2, 8388, Note_on_c, 0, 72, 85
2, 8400, Note_on_c, 0, 72, 0
2, 8400, Note_on_c, 0, 70, 85
2, 8434, Note_on_c, 0, 70, 0
2, 8436, Note_on_c, 0, 74, 85
2, 8448, Note_on_c, 0, 74, 0
2, 8448, Note_on_c, 0, 72, 85
2, 8493, Note_on_c, 0, 72, 0
2, 8496, Note_on_c, 0, 65, 85
2, 8541, Note_on_c, 0, 65, 0
2, 8544, Note_on_c, 0, 65, 85
2, 8589, Note_on_c, 0, 65, 0
2, 8592, Note_on_c, 0, 65, 85
2, 8637, Note_on_c, 0, 65, 0
2, 8640, Note_on_c, 0, 67, 85
2, 8650, Note_on_c, 0, 67, 0
2, 8650, Note_on_c, 0, 69, 85
2, 8660, Note_on_c, 0, 69, 0
2, 8660, Note_on_c, 0, 67, 85
2, 8670, Note_on_c, 0, 67, 0
2, 8670, Note_on_c, 0, 65, 85
2, 8679, Note_on_c, 0, 65, 0
2, 8679, Note_on_c, 0, 67, 85
2, 8688, Note_on_c, 0, 67, 0
2, 8688, Note_on_c, 0, 65, 85
2, 8733, Note_on_c, 0, 65, 0
2, 8736, Note_on_c, 0, 72, 85
2, 8759, Note_on_c, 0, 72, 0
2, 8760, Note_on_c, 0, 69, 85
2, 8783, Note_on_c, 0, 69, 0
2, 8784, Note_on_c, 0, 67, 85
2, 8807, Note_on_c, 0, 67, 0
2, 8808, Note_on_c, 0, 65, 85
2, 8831, Note_on_c, 0, 65, 0
2, 8832, Note_on_c, 0, 67, 85
2, 8842, Note_on_c, 0, 67, 0
2, 8842, Note_on_c, 0, 69, 85
2, 8852, Note_on_c, 0, 69, 0
2, 8852, Note_on_c, 0, 67, 85
2, 8862, Note_on_c, 0, 67, 0
2, 8862, Note_on_c, 0, 65, 85
2, 8871, Note_on_c, 0, 65, 0
2, 8871, Note_on_c, 0, 67, 85
2, 8880, Note_on_c, 0, 67, 0
2, 8880, Note_on_c, 0, 65, 85
2, 8925, Note_on_c, 0, 65, 0
2, 8976, Note_on_c, 0, 72, 85
2, 9021, Note_on_c, 0, 72, 0
2, 9024, Note_on_c, 0, 74, 85
2, 9058, Note_on_c, 0, 74, 0
2, 9060, Note_on_c, 0, 77, 85
2, 9072, Note_on_c, 0, 77, 0
2, 9072, Note_on_c, 0, 76, 85
2, 9106, Note_on_c, 0, 76, 0
2, 9108, Note_on_c, 0, 74, 85
2, 9120, Note_on_c, 0, 74, 0
2, 9120, Note_on_c, 0, 72, 85
2, 9165, Note_on_c, 0, 72, 0
2, 9168, Note_on_c, 0, 77, 85
2, 9213, Note_on_c, 0, 77, 0
2, 9216, Note_on_c, 0, 70, 85
2, 9227, Note_on_c, 0, 70, 0
2, 9227, Note_on_c, 0, 72, 85
2, 9238, Note_on_c, 0, 72, 0
2, 9238, Note_on_c, 0, 70, 85
2, 9249, Note_on_c, 0, 70, 0
2, 9249, Note_on_c, 0, 72, 85
2, 9260, Note_on_c, 0, 72, 0
2, 9260, Note_on_c, 0, 70, 85
2, 9271, Note_on_c, 0, 70, 0
2, 9271, Note_on_c, 0, 72, 85
2, 9282, Note_on_c, 0, 72, 0
2, 9282, Note_on_c, 0, 70, 85
2, 9292, Note_on_c, 0, 70, 0
2, 9292, Note_on_c, 0, 69, 85
2, 9302, Note_on_c, 0, 69, 0
2, 9302, Note_on_c, 0, 70, 85
2, 9312, Note_on_c, 0, 70, 0
2, 9312, Note_on_c, 0, 69, 85
2, 9357, Note_on_c, 0, 69, 0
2, 9360, Note_on_c, 0, 77, 85
2, 9375, Note_on_c, 0, 77, 0
2, 9376, Note_on_c, 0, 76, 85
2, 9391, Note_on_c, 0, 76, 0
2, 9392, Note_on_c, 0, 74, 85
2, 9407, Note_on_c, 0, 74, 0
2, 9408, Note_on_c, 0, 72, 85
2, 9453, Note_on_c, 0, 72, 0
2, 9456, Note_on_c, 0, 65, 85
2, 9462, Note_on_c, 0, 65, 0
2, 9462, Note_on_c, 0, 67, 85
2, 9468, Note_on_c, 0, 67, 0
2, 9468, Note_on_c, 0, 69, 85
2, 9502, Note_on_c, 0, 69, 0
2, 9504, Note_on_c, 0, 69, 85
2, 9510, Note_on_c, 0, 69, 0
2, 9510, Note_on_c, 0, 70, 85
2, 9516, Note_on_c, 0, 70, 0
2, 9516, Note_on_c, 0, 72, 85
2, 9550, Note_on_c, 0, 72, 0
2, 9552, Note_on_c, 0, 70, 85
2, 9558, Note_on_c, 0, 70, 0
2, 9558, Note_on_c, 0, 72, 85
2, 9564, Note_on_c, 0, 72, 0
2, 9564, Note_on_c, 0, 74, 85
2, 9598, Note_on_c, 0, 74, 0
2, 9600, Note_on_c, 0, 72, 85
2, 9620, Note_on_c, 0, 72, 0
2, 9648, Note_on_c, 0, 72, 85
2, 9654, Note_on_c, 0, 72, 0
2, 9654, Note_on_c, 0, 74, 85
2, 9660, Note_on_c, 0, 74, 0
2, 9660, Note_on_c, 0, 76, 85
2, 9694, Note_on_c, 0, 76, 0
2, 9696, Note_on_c, 0, 77, 85
2, 9702, Note_on_c, 0, 77, 0
2, 9702, Note_on_c, 0, 79, 85
2, 9708, Note_on_c, 0, 79, 0
2, 9708, Note_on_c, 0, 81, 85
2, 9742, Note_on_c, 0, 81, 0
2, 9744, Note_on_c, 0, 82, 85
2, 9750, Note_on_c, 0, 82, 0
2, 9750, Note_on_c, 0, 84, 85
2, 9756, Note_on_c, 0, 84, 0
2, 9756, Note_on_c, 0, 86, 85
2, 9790, Note_on_c, 0, 86, 0
2, 9792, Note_on_c, 0, 84, 85
2, 9837, Note_on_c, 0, 84, 0
2, 9840, Note_on_c, 0, 82, 85
2, 9852, Note_on_c, 0, 82, 0
2, 9852, Note_on_c, 0, 81, 85
2, 9864, Note_on_c, 0, 81, 0
2, 9864, Note_on_c, 0, 79, 85
2, 9876, Note_on_c, 0, 79, 0
2, 9876, Note_on_c, 0, 77, 85
2, 9888, Note_on_c, 0, 77, 0
2, 9888, Note_on_c, 0, 79, 85
2, 9899, Note_on_c, 0, 79, 0
2, 9899, Note_on_c, 0, 81, 85
2, 9910, Note_on_c, 0, 81, 0
2, 9910, Note_on_c, 0, 79, 85
2, 9921, Note_on_c, 0, 79, 0
2, 9921, Note_on_c, 0, 81, 85
2, 9932, Note_on_c, 0, 81, 0
2, 9932, Note_on_c, 0, 79, 85
2, 9943, Note_on_c, 0, 79, 0
2, 9943, Note_on_c, 0, 81, 85
2, 9954, Note_on_c, 0, 81, 0
2, 9954, Note_on_c, 0, 79, 85
2, 9964, Note_on_c, 0, 79, 0
2, 9964, Note_on_c, 0, 77, 85
2, 9974, Note_on_c, 0, 77, 0
2, 9974, Note_on_c, 0, 79, 85
2, 9984, Note_on_c, 0, 79, 0
2, 9984, Note_on_c, 0, 77, 85
2, 10073, Note_on_c, 0, 77, 0
2, 10104, Note_on_c, 0, 84, 80
2, 10127, Note_on_c, 0, 84, 0
2, 10128, Note_on_c, 0, 72, 80
2, 10151, Note_on_c, 0, 72, 0
2, 10152, Note_on_c, 0, 84, 80
2, 10175, Note_on_c, 0, 84, 0
2, 10176, Note_on_c, 0, 74, 80
2, 10199, Note_on_c, 0, 74, 0
2, 10200, Note_on_c, 0, 84, 80
2, 10223, Note_on_c, 0, 84, 0
2, 10224, Note_on_c, 0, 82, 80
2, 10247, Note_on_c, 0, 82, 0
2, 10248, Note_on_c, 0, 81, 80
2, 10271, Note_on_c, 0, 81, 0
2, 10272, Note_on_c, 0, 82, 80
2, 10278, Note_on_c, 0, 82, 0
2, 10278, Note_on_c, 0, 84, 80
2, 10284, Note_on_c, 0, 84, 0
2, 10284, Note_on_c, 0, 82, 80
2, 10295, Note_on_c, 0, 82, 0
2, 10296, Note_on_c, 0, 79, 80
2, 10319, Note_on_c, 0, 79, 0
2, 10320, Note_on_c, 0, 77, 80
2, 10326, Note_on_c, 0, 77, 0
2, 10326, Note_on_c, 0, 79, 80
2, 10332, Note_on_c, 0, 79, 0
2, 10332, Note_on_c, 0, 77, 80
2, 10343, Note_on_c, 0, 77, 0
2, 10344, Note_on_c, 0, 76, 80
2, 10367, Note_on_c, 0, 76, 0
2, 10368, Note_on_c, 0, 77, 80
2, 10374, Note_on_c, 0, 77, 0
2, 10374, Note_on_c, 0, 79, 80
2, 10380, Note_on_c, 0, 79, 0
2, 10380, Note_on_c, 0, 77, 80
2, 10391, Note_on_c, 0, 77, 0
2, 10392, Note_on_c, 0, 76, 80
2, 10415, Note_on_c, 0, 76, 0
2, 10416, Note_on_c, 0, 77, 80
2, 10439, Note_on_c, 0, 77, 0
2, 10440, Note_on_c, 0, 81, 80
2, 10463, Note_on_c, 0, 81, 0
2, 10464, Note_on_c, 0, 77, 80
2, 10487, Note_on_c, 0, 77, 0
2, 10488, Note_on_c, 0, 84, 80
2, 10511, Note_on_c, 0, 84, 0
2, 10512, Note_on_c, 0, 72, 80
2, 10535, Note_on_c, 0, 72, 0
2, 10536, Note_on_c, 0, 84, 80
2, 10559, Note_on_c, 0, 84, 0
2, 10560, Note_on_c, 0, 74, 80
2, 10583, Note_on_c, 0, 74, 0
2, 10584, Note_on_c, 0, 84, 80
2, 10607, Note_on_c, 0, 84, 0
2, 10608, Note_on_c, 0, 82, 80
2, 10631, Note_on_c, 0, 82, 0
2, 10632, Note_on_c, 0, 81, 80
2, 10655, Note_on_c, 0, 81, 0
2, 10656, Note_on_c, 0, 82, 80
2, 10662, Note_on_c, 0, 82, 0
2, 10662, Note_on_c, 0, 84, 80
2, 10668, Note_on_c, 0, 84, 0
2, 10668, Note_on_c, 0, 82, 80
2, 10679, Note_on_c, 0, 82, 0
2, 10680, Note_on_c, 0, 79, 80
2, 10703, Note_on_c, 0, 79, 0
2, 10704, Note_on_c, 0, 77, 80
2, 10710, Note_on_c, 0, 77, 0
2, 10710, Note_on_c, 0, 79, 80
2, 10716, Note_on_c, 0, 79, 0
2, 10716, Note_on_c, 0, 77, 80
2, 10727, Note_on_c, 0, 77, 0
2, 10728, Note_on_c, 0, 76, 80
2, 10751, Note_on_c, 0, 76, 0
2, 10752, Note_on_c, 0, 76, 80
2, 10800, Note_on_c, 0, 76, 0
2, 10800, Note_on_c, 0, 77, 80
2, 10845, Note_on_c, 0, 77, 0
2, 10944, Note_on_c, 0, 60, 85
2, 10953, Note_on_c, 0, 64, 85
2, 10962, Note_on_c, 0, 67, 85
2, 10971, Note_on_c, 0, 72, 85
2, 11016, Note_on_c, 0, 60, 0
2, 11039, Note_on_c, 0, 72, 0
2, 11039, Note_on_c, 0, 67, 0
2, 11039, Note_on_c, 0, 64, 0
2, 11040, Note_on_c, 0, 64, 85
2, 11074, Note_on_c, 0, 64, 0
2, 11076, Note_on_c, 0, 67, 85
2, 11088, Note_on_c, 0, 67, 0
2, 11088, Note_on_c, 0, 65, 85
2, 11122, Note_on_c, 0, 65, 0
2, 11124, Note_on_c, 0, 69, 85
2, 11136, Note_on_c, 0, 69, 0
2, 11136, Note_on_c, 0, 67, 85
2, 11181, Note_on_c, 0, 67, 0
2, 11184, Note_on_c, 0, 79, 85
2, 11184, Note_on_c, 0, 70, 85
2, 11204, Note_on_c, 0, 79, 0
2, 11204, Note_on_c, 0, 70, 0
2, 11232, Note_on_c, 0, 79, 85
2, 11232, Note_on_c, 0, 70, 85
2, 11277, Note_on_c, 0, 79, 0
2, 11277, Note_on_c, 0, 70, 0
2, 11280, Note_on_c, 0, 70, 85
2, 11280, Note_on_c, 0, 67, 85
2, 11325, Note_on_c, 0, 70, 0
2, 11325, Note_on_c, 0, 67, 0
2, 11328, Note_on_c, 0, 69, 85
2, 11328, Note_on_c, 0, 65, 85
2, 11417, Note_on_c, 0, 69, 0
2, 11417, Note_on_c, 0, 65, 0
2, 11424, Note_on_c, 0, 65, 85
2, 11458, Note_on_c, 0, 65, 0
2, 11460, Note_on_c, 0, 69, 85
2, 11472, Note_on_c, 0, 69, 0
2, 11472, Note_on_c, 0, 67, 85
2, 11506, Note_on_c, 0, 67, 0
2, 11508, Note_on_c, 0, 70, 85
2, 11520, Note_on_c, 0, 70, 0
2, 11520, Note_on_c, 0, 69, 85
2, 11565, Note_on_c, 0, 69, 0
2, 11568, Note_on_c, 0, 77, 85
2, 11568, Note_on_c, 0, 69, 85
2, 11588, Note_on_c, 0, 77, 0
2, 11588, Note_on_c, 0, 69, 0
2, 11616, Note_on_c, 0, 77, 85
2, 11616, Note_on_c, 0, 69, 85
2, 11661, Note_on_c, 0, 77, 0
2, 11661, Note_on_c, 0, 69, 0
2, 11664, Note_on_c, 0, 72, 85
2, 11664, Note_on_c, 0, 69, 85
2, 11709, Note_on_c, 0, 72, 0
2, 11709, Note_on_c, 0, 69, 0
2, 11712, Note_on_c, 0, 70, 85
2, 11712, Note_on_c, 0, 67, 85
2, 11801, Note_on_c, 0, 70, 0
2, 11801, Note_on_c, 0, 67, 0
2, 11808, Note_on_c, 0, 67, 85
2, 11842, Note_on_c, 0, 67, 0
2, 11844, Note_on_c, 0, 70, 85
2, 11856, Note_on_c, 0, 70, 0
2, 11856, Note_on_c, 0, 69, 85
2, 11890, Note_on_c, 0, 69, 0
2, 11892, Note_on_c, 0, 72, 85
2, 11904, Note_on_c, 0, 72, 0
2, 11904, Note_on_c, 0, 70, 85
2, 11949, Note_on_c, 0, 70, 0
2, 11952, Note_on_c, 0, 82, 85
2, 11952, Note_on_c, 0, 79, 85
2, 11972, Note_on_c, 0, 82, 0
2, 11972, Note_on_c, 0, 79, 0
2, 12000, Note_on_c, 0, 82, 85
2, 12000, Note_on_c, 0, 79, 85
2, 12045, Note_on_c, 0, 82, 0
2, 12045, Note_on_c, 0, 79, 0
2, 12048, Note_on_c, 0, 70, 85
2, 12048, Note_on_c, 0, 67, 85
2, 12093, Note_on_c, 0, 70, 0
2, 12093, Note_on_c, 0, 67, 0
2, 12096, Note_on_c, 0, 69, 85
2, 12096, Note_on_c, 0, 65, 85
2, 12185, Note_on_c, 0, 69, 0
2, 12185, Note_on_c, 0, 65, 0
2, 12192, Note_on_c, 0, 84, 85
2, 12215, Note_on_c, 0, 84, 0
2, 12216, Note_on_c, 0, 81, 85
2, 12239, Note_on_c, 0, 81, 0
2, 12240, Note_on_c, 0, 79, 85
2, 12263, Note_on_c, 0, 79, 0
2, 12264, Note_on_c, 0, 77, 85
2, 12287, Note_on_c, 0, 77, 0
2, 12288, Note_on_c, 0, 79, 85
2, 12298, Note_on_c, 0, 79, 0
2, 12298, Note_on_c, 0, 81, 85
2, 12308, Note_on_c, 0, 81, 0
2, 12308, Note_on_c, 0, 79, 85
2, 12318, Note_on_c, 0, 79, 0
2, 12318, Note_on_c, 0, 77, 85
2, 12327, Note_on_c, 0, 77, 0
2, 12327, Note_on_c, 0, 79, 85
2, 12336, Note_on_c, 0, 79, 0
2, 12336, Note_on_c, 0, 77, 85
2, 12381, Note_on_c, 0, 77, 0
2, 12384, Note_on_c, 0, 84, 85
2, 12407, Note_on_c, 0, 84, 0
2, 12408, Note_on_c, 0, 81, 85
2, 12431, Note_on_c, 0, 81, 0
2, 12432, Note_on_c, 0, 79, 85
2, 12455, Note_on_c, 0, 79, 0
2, 12456, Note_on_c, 0, 77, 85
2, 12479, Note_on_c, 0, 77, 0
2, 12480, Note_on_c, 0, 79, 85
2, 12490, Note_on_c, 0, 79, 0
2, 12490, Note_on_c, 0, 81, 85
2, 12500, Note_on_c, 0, 81, 0
2, 12500, Note_on_c, 0, 79, 85
2, 12510, Note_on_c, 0, 79, 0
2, 12510, Note_on_c, 0, 77, 85
2, 12519, Note_on_c, 0, 77, 0
2, 12519, Note_on_c, 0, 79, 85
2, 12528, Note_on_c, 0, 79, 0
2, 12528, Note_on_c, 0, 77, 85
2, 12573, Note_on_c, 0, 77, 0
2, 12576, Note_on_c, 0, 72, 80
2, 12599, Note_on_c, 0, 72, 0
2, 12600, Note_on_c, 0, 84, 80
2, 12623, Note_on_c, 0, 84, 0
2, 12624, Note_on_c, 0, 72, 80
2, 12647, Note_on_c, 0, 72, 0
2, 12648, Note_on_c, 0, 84, 80
2, 12671, Note_on_c, 0, 84, 0
2, 12672, Note_on_c, 0, 74, 80
2, 12695, Note_on_c, 0, 74, 0
2, 12696, Note_on_c, 0, 84, 80
2, 12720, Note_on_c, 0, 84, 0
2, 12720, Note_on_c, 0, 82, 80
2, 12743, Note_on_c, 0, 82, 0
2, 12744, Note_on_c, 0, 81, 80
2, 12767, Note_on_c, 0, 81, 0
2, 12768, Note_on_c, 0, 82, 80
2, 12791, Note_on_c, 0, 82, 0
2, 12792, Note_on_c, 0, 74, 80
2, 12815, Note_on_c, 0, 74, 0
2, 12816, Note_on_c, 0, 82, 80
2, 12839, Note_on_c, 0, 82, 0
2, 12840, Note_on_c, 0, 74, 80
2, 12863, Note_on_c, 0, 74, 0
2, 12864, Note_on_c, 0, 82, 80
2, 12887, Note_on_c, 0, 82, 0
2, 12888, Note_on_c, 0, 72, 80
2, 12911, Note_on_c, 0, 72, 0
2, 12912, Note_on_c, 0, 79, 80
2, 12935, Note_on_c, 0, 79, 0
2, 12936, Note_on_c, 0, 82, 80
2, 12960, Note_on_c, 0, 82, 0
2, 12960, Note_on_c, 0, 81, 80
2, 12983, Note_on_c, 0, 81, 0
2, 12984, Note_on_c, 0, 77, 80
2, 13007, Note_on_c, 0, 77, 0
2, 13008, Note_on_c, 0, 76, 80
2, 13031, Note_on_c, 0, 76, 0
2, 13032, Note_on_c, 0, 77, 80
2, 13055, Note_on_c, 0, 77, 0
2, 13056, Note_on_c, 0, 74, 80
2, 13101, Note_on_c, 0, 74, 0
2, 13104, Note_on_c, 0, 82, 80
2, 13119, Note_on_c, 0, 82, 0
2, 13120, Note_on_c, 0, 81, 81
2, 13135, Note_on_c, 0, 81, 0
2, 13136, Note_on_c, 0, 79, 81
2, 13151, Note_on_c, 0, 79, 0
2, 13152, Note_on_c, 0, 82, 81
2, 13167, Note_on_c, 0, 82, 0
2, 13168, Note_on_c, 0, 81, 81
2, 13183, Note_on_c, 0, 81, 0
2, 13184, Note_on_c, 0, 79, 81
2, 13199, Note_on_c, 0, 79, 0
2, 13200, Note_on_c, 0, 81, 82
2, 13215, Note_on_c, 0, 81, 0
2, 13216, Note_on_c, 0, 79, 82
2, 13231, Note_on_c, 0, 79, 0
2, 13232, Note_on_c, 0, 77, 82
2, 13247, Note_on_c, 0, 77, 0
2, 13248, Note_on_c, 0, 76, 82
2, 13263, Note_on_c, 0, 76, 0
2, 13264, Note_on_c, 0, 77, 82
2, 13279, Note_on_c, 0, 77, 0
2, 13280, Note_on_c, 0, 79, 83
2, 13295, Note_on_c, 0, 79, 0
2, 13296, Note_on_c, 0, 72, 83
2, 13341, Note_on_c, 0, 72, 0
2, 13440, Note_on_c, 0, 65, 85
2, 13449, Note_on_c, 0, 69, 85
2, 13458, Note_on_c, 0, 72, 85
2, 13467, Note_on_c, 0, 77, 85
2, 13535, Note_on_c, 0, 77, 0
2, 13535, Note_on_c, 0, 72, 0
2, 13535, Note_on_c, 0, 69, 0
2, 13535, Note_on_c, 0, 65, 0
2, 13536, Note_on_c, 0, 69, 85
2, 13570, Note_on_c, 0, 69, 0
2, 13572, Note_on_c, 0, 72, 85
2, 13584, Note_on_c, 0, 72, 0
2, 13584, Note_on_c, 0, 70, 85
2, 13618, Note_on_c, 0, 70, 0
2, 13620, Note_on_c, 0, 74, 85
2, 13632, Note_on_c, 0, 74, 0
2, 13632, Note_on_c, 0, 72, 85
2, 13677, Note_on_c, 0, 72, 0
2, 13680, Note_on_c, 0, 65, 85
2, 13725, Note_on_c, 0, 65, 0
2, 13728, Note_on_c, 0, 65, 85
2, 13773, Note_on_c, 0, 65, 0
2, 13776, Note_on_c, 0, 65, 85
2, 13821, Note_on_c, 0, 65, 0
2, 13824, Note_on_c, 0, 67, 85
2, 13834, Note_on_c, 0, 67, 0
2, 13834, Note_on_c, 0, 69, 85
2, 13844, Note_on_c, 0, 69, 0
2, 13844, Note_on_c, 0, 67, 85
2, 13854, Note_on_c, 0, 67, 0
2, 13854, Note_on_c, 0, 65, 85
2, 13863, Note_on_c, 0, 65, 0
2, 13863, Note_on_c, 0, 67, 85
2, 13872, Note_on_c, 0, 67, 0
2, 13872, Note_on_c, 0, 65, 85
2, 13917, Note_on_c, 0, 65, 0
2, 13920, Note_on_c, 0, 72, 85
2, 13943, Note_on_c, 0, 72, 0
2, 13944, Note_on_c, 0, 69, 85
2, 13967, Note_on_c, 0, 69, 0
2, 13968, Note_on_c, 0, 67, 85
2, 13991, Note_on_c, 0, 67, 0
2, 13992, Note_on_c, 0, 65, 85
2, 14015, Note_on_c, 0, 65, 0
2, 14016, Note_on_c, 0, 67, 85
2, 14026, Note_on_c, 0, 67, 0
2, 14026, Note_on_c, 0, 69, 85
2, 14036, Note_on_c, 0, 69, 0
2, 14036, Note_on_c, 0, 67, 85
2, 14046, Note_on_c, 0, 67, 0
2, 14046, Note_on_c, 0, 65, 85
2, 14055, Note_on_c, 0, 65, 0
2, 14055, Note_on_c, 0, 67, 85
2, 14064, Note_on_c, 0, 67, 0
2, 14064, Note_on_c, 0, 65, 85
2, 14109, Note_on_c, 0, 65, 0
2, 14160, Note_on_c, 0, 72, 85
2, 14205, Note_on_c, 0, 72, 0
2, 14208, Note_on_c, 0, 74, 85
2, 14242, Note_on_c, 0, 74, 0
2, 14244, Note_on_c, 0, 77, 85
2, 14256, Note_on_c, 0, 77, 0
2, 14256, Note_on_c, 0, 76, 85
2, 14290, Note_on_c, 0, 76, 0
2, 14292, Note_on_c, 0, 74, 85
2, 14304, Note_on_c, 0, 74, 0
2, 14304, Note_on_c, 0, 72, 85
2, 14349, Note_on_c, 0, 72, 0
2, 14352, Note_on_c, 0, 77, 85
2, 14397, Note_on_c, 0, 77, 0
2, 14400, Note_on_c, 0, 70, 85
2, 14411, Note_on_c, 0, 70, 0
2, 14411, Note_on_c, 0, 72, 85
2, 14422, Note_on_c, 0, 72, 0
2, 14422, Note_on_c, 0, 70, 85
2, 14433, Note_on_c, 0, 70, 0
2, 14433, Note_on_c, 0, 72, 85
2, 14444, Note_on_c, 0, 72, 0
2, 14444, Note_on_c, 0, 70, 85
2, 14455, Note_on_c, 0, 70, 0
2, 14455, Note_on_c, 0, 72, 85
2, 14466, Note_on_c, 0, 72, 0
2, 14466, Note_on_c, 0, 70, 85
2, 14476, Note_on_c, 0, 70, 0
2, 14476, Note_on_c, 0, 69, 85
2, 14486, Note_on_c, 0, 69, 0
2, 14486, Note_on_c, 0, 70, 85
2, 14496, Note_on_c, 0, 70, 0
2, 14496, Note_on_c, 0, 69, 85
2, 14541, Note_on_c, 0, 69, 0
2, 14544, Note_on_c, 0, 77, 85
2, 14559, Note_on_c, 0, 77, 0
2, 14560, Note_on_c, 0, 76, 85
2, 14575, Note_on_c, 0, 76, 0
2, 14576, Note_on_c, 0, 74, 85
2, 14591, Note_on_c, 0, 74, 0
2, 14592, Note_on_c, 0, 72, 85
2, 14637, Note_on_c, 0, 72, 0
2, 14640, Note_on_c, 0, 65, 85
2, 14646, Note_on_c, 0, 65, 0
2, 14646, Note_on_c, 0, 67, 85
2, 14652, Note_on_c, 0, 67, 0
2, 14652, Note_on_c, 0, 69, 85
2, 14686, Note_on_c, 0, 69, 0
2, 14688, Note_on_c, 0, 69, 85
2, 14694, Note_on_c, 0, 69, 0
2, 14694, Note_on_c, 0, 70, 85
2, 14700, Note_on_c, 0, 70, 0
2, 14700, Note_on_c, 0, 72, 85
2, 14734, Note_on_c, 0, 72, 0
2, 14736, Note_on_c, 0, 70, 85
2, 14742, Note_on_c, 0, 70, 0
2, 14742, Note_on_c, 0, 72, 85
2, 14748, Note_on_c, 0, 72, 0
2, 14748, Note_on_c, 0, 74, 85
2, 14782, Note_on_c, 0, 74, 0
2, 14784, Note_on_c, 0, 72, 85
2, 14804, Note_on_c, 0, 72, 0
2, 14832, Note_on_c, 0, 72, 85
2, 14838, Note_on_c, 0, 72, 0
2, 14838, Note_on_c, 0, 74, 85
2, 14844, Note_on_c, 0, 74, 0
2, 14844, Note_on_c, 0, 76, 85
2, 14878, Note_on_c, 0, 76, 0
2, 14880, Note_on_c, 0, 77, 85
2, 14886, Note_on_c, 0, 77, 0
2, 14886, Note_on_c, 0, 79, 85
2, 14892, Note_on_c, 0, 79, 0
2, 14892, Note_on_c, 0, 81, 85
2, 14926, Note_on_c, 0, 81, 0
2, 14928, Note_on_c, 0, 82, 85
2, 14934, Note_on_c, 0, 82, 0
2, 14934, Note_on_c, 0, 84, 85
2, 14940, Note_on_c, 0, 84, 0
2, 14940, Note_on_c, 0, 86, 85
2, 14974, Note_on_c, 0, 86, 0
2, 14976, Note_on_c, 0, 84, 85
2, 15021, Note_on_c, 0, 84, 0
2, 15024, Note_on_c, 0, 82, 85
2, 15036, Note_on_c, 0, 82, 0
2, 15036, Note_on_c, 0, 81, 85
2, 15048, Note_on_c, 0, 81, 0
2, 15048, Note_on_c, 0, 79, 85
2, 15060, Note_on_c, 0, 79, 0
2, 15060, Note_on_c, 0, 77, 85
2, 15072, Note_on_c, 0, 77, 0
2, 15072, Note_on_c, 0, 79, 85
2, 15083, Note_on_c, 0, 79, 0
2, 15083, Note_on_c, 0, 81, 85
2, 15094, Note_on_c, 0, 81, 0
2, 15094, Note_on_c, 0, 79, 85
2, 15105, Note_on_c, 0, 79, 0
2, 15105, Note_on_c, 0, 81, 85
2, 15116, Note_on_c, 0, 81, 0
2, 15116, Note_on_c, 0, 79, 85
2, 15127, Note_on_c, 0, 79, 0
2, 15127, Note_on_c, 0, 81, 85
2, 15138, Note_on_c, 0, 81, 0
2, 15138, Note_on_c, 0, 79, 85
2, 15148, Note_on_c, 0, 79, 0
2, 15148, Note_on_c, 0, 77, 85
2, 15158, Note_on_c, 0, 77, 0
2, 15158, Note_on_c, 0, 79, 85
2, 15168, Note_on_c, 0, 79, 0
2, 15168, Note_on_c, 0, 77, 85
2, 15257, Note_on_c, 0, 77, 0
2, 15288, Note_on_c, 0, 84, 80
2, 15311, Note_on_c, 0, 84, 0
2, 15312, Note_on_c, 0, 72, 80
2, 15335, Note_on_c, 0, 72, 0
2, 15336, Note_on_c, 0, 84, 80
2, 15359, Note_on_c, 0, 84, 0
2, 15360, Note_on_c, 0, 74, 80
2, 15383, Note_on_c, 0, 74, 0
2, 15384, Note_on_c, 0, 84, 80
2, 15407, Note_on_c, 0, 84, 0
2, 15408, Note_on_c, 0, 82, 80
2, 15431, Note_on_c, 0, 82, 0
2, 15432, Note_on_c, 0, 81, 80
2, 15455, Note_on_c, 0, 81, 0
2, 15456, Note_on_c, 0, 82, 80
2, 15462, Note_on_c, 0, 82, 0
2, 15462, Note_on_c, 0, 84, 80
2, 15468, Note_on_c, 0, 84, 0
2, 15468, Note_on_c, 0, 82, 80
2, 15479, Note_on_c, 0, 82, 0
2, 15480, Note_on_c, 0, 79, 80
2, 15503, Note_on_c, 0, 79, 0
2, 15504, Note_on_c, 0, 77, 80
2, 15510, Note_on_c, 0, 77, 0
2, 15510, Note_on_c, 0, 79, 80
2, 15516, Note_on_c, 0, 79, 0
2, 15516, Note_on_c, 0, 77, 80
2, 15527, Note_on_c, 0, 77, 0
2, 15528, Note_on_c, 0, 76, 80
2, 15551, Note_on_c, 0, 76, 0
2, 15552, Note_on_c, 0, 77, 80
2, 15558, Note_on_c, 0, 77, 0
2, 15558, Note_on_c, 0, 79, 80
2, 15564, Note_on_c, 0, 79, 0
2, 15564, Note_on_c, 0, 77, 80
2, 15575, Note_on_c, 0, 77, 0
2, 15576, Note_on_c, 0, 76, 80
2, 15599, Note_on_c, 0, 76, 0
2, 15600, Note_on_c, 0, 77, 80
2, 15623, Note_on_c, 0, 77, 0
2, 15624, Note_on_c, 0, 81, 80
2, 15647, Note_on_c, 0, 81, 0
2, 15648, Note_on_c, 0, 77, 80
2, 15671, Note_on_c, 0, 77, 0
2, 15672, Note_on_c, 0, 84, 80
2, 15695, Note_on_c, 0, 84, 0
2, 15696, Note_on_c, 0, 72, 80
2, 15719, Note_on_c, 0, 72, 0
2, 15720, Note_on_c, 0, 84, 80
2, 15743, Note_on_c, 0, 84, 0
2, 15744, Note_on_c, 0, 74, 80
2, 15767, Note_on_c, 0, 74, 0
2, 15768, Note_on_c, 0, 84, 80
2, 15791, Note_on_c, 0, 84, 0
2, 15792, Note_on_c, 0, 82, 80
2, 15815, Note_on_c, 0, 82, 0
2, 15816, Note_on_c, 0, 81, 80
2, 15839, Note_on_c, 0, 81, 0
2, 15840, Note_on_c, 0, 82, 80
2, 15846, Note_on_c, 0, 82, 0
2, 15846, Note_on_c, 0, 84, 80
2, 15852, Note_on_c, 0, 84, 0
2, 15852, Note_on_c, 0, 82, 80
2, 15863, Note_on_c, 0, 82, 0
2, 15864, Note_on_c, 0, 79, 80
2, 15887, Note_on_c, 0, 79, 0
2, 15888, Note_on_c, 0, 77, 80
2, 15894, Note_on_c, 0, 77, 0
2, 15894, Note_on_c, 0, 79, 80
2, 15900, Note_on_c, 0, 79, 0
2, 15900, Note_on_c, 0, 77, 80
2, 15911, Note_on_c, 0, 77, 0
2, 15912, Note_on_c, 0, 76, 80
2, 15935, Note_on_c, 0, 76, 0
2, 15936, Note_on_c, 0, 76, 80
2, 15984, Note_on_c, 0, 76, 0
2, 15984, Note_on_c, 0, 77, 80
2, 16029, Note_on_c, 0, 77, 0
2, 16320, End_track
3, 0, Start_track
3, 0, Program_c, 1, 0
3, 0, Control_c, 1, 7, 127
3, 0, Control_c, 1, 10, 64
3, 0, Note_on_c, 1, 53, 85
3, 0, Note_on_c, 1, 41, 85
3, 89, Note_on_c, 1, 53, 0
3, 89, Note_on_c, 1, 41, 0
3, 96, Note_on_c, 1, 53, 70
3, 96, Note_on_c, 1, 41, 70
3, 141, Note_on_c, 1, 53, 0
3, 141, Note_on_c, 1, 41, 0
3, 144, Note_on_c, 1, 55, 70
3, 144, Note_on_c, 1, 43, 70
3, 189, Note_on_c, 1, 55, 0
3, 189, Note_on_c, 1, 43, 0
3, 192, Note_on_c, 1, 57, 70
3, 192, Note_on_c, 1, 45, 70
3, 281, Note_on_c, 1, 57, 0
3, 281, Note_on_c, 1, 45, 0
3, 336, Note_on_c, 1, 60, 70
3, 336, Note_on_c, 1, 57, 70
3, 381, Note_on_c, 1, 60, 0
3, 381, Note_on_c, 1, 57, 0
3, 384, Note_on_c, 1, 62, 70
3, 384, Note_on_c, 1, 58, 70
3, 429, Note_on_c, 1, 62, 0
3, 429, Note_on_c, 1, 58, 0
3, 432, Note_on_c, 1, 60, 70
3, 432, Note_on_c, 1, 57, 70
3, 477, Note_on_c, 1, 60, 0
3, 477, Note_on_c, 1, 57, 0
3, 528, Note_on_c, 1, 60, 70
3, 528, Note_on_c, 1, 57, 70
3, 573, Note_on_c, 1, 60, 0
3, 573, Note_on_c, 1, 57, 0
3, 576, Note_on_c, 1, 62, 70
3, 576, Note_on_c, 1, 58, 70
3, 621, Note_on_c, 1, 62, 0
3, 621, Note_on_c, 1, 58, 0
3, 624, Note_on_c, 1, 60, 70
3, 624, Note_on_c, 1, 57, 70
3, 669, Note_on_c, 1, 60, 0
3, 669, Note_on_c, 1, 57, 0
3, 720, Note_on_c, 1, 69, 70
3, 720, Note_on_c, 1, 65, 70
3, 765, Note_on_c, 1, 69, 0
3, 765, Note_on_c, 1, 65, 0
3, 768, Note_on_c, 1, 70, 70
3, 768, Note_on_c, 1, 65, 70
3, 857, Note_on_c, 1, 70, 0
3, 857, Note_on_c, 1, 65, 0
3, 864, Note_on_c, 1, 69, 70
3, 864, Note_on_c, 1, 65, 70
3, 953, Note_on_c, 1, 69, 0
3, 953, Note_on_c, 1, 65, 0
3, 960, Note_on_c, 1, 67, 70
3, 1005, Note_on_c, 1, 67, 0
3, 1008, Note_on_c, 1, 60, 70
3, 1053, Note_on_c, 1, 60, 0
3, 1056, Note_on_c, 1, 65, 70
3, 1101, Note_on_c, 1, 65, 0
3, 1104, Note_on_c, 1, 69, 70
3, 1104, Note_on_c, 1, 65, 70
3, 1149, Note_on_c, 1, 69, 0
3, 1149, Note_on_c, 1, 65, 0
3, 1152, Note_on_c, 1, 70, 70
3, 1152, Note_on_c, 1, 65, 70
3, 1241, Note_on_c, 1, 70, 0
3, 1241, Note_on_c, 1, 65, 0
3, 1248, Note_on_c, 1, 69, 70
3, 1248, Note_on_c, 1, 65, 70
3, 1293, Note_on_c, 1, 69, 0
3, 1293, Note_on_c, 1, 65, 0
3, 1296, Note_on_c, 1, 65, 70
3, 1296, Note_on_c, 1, 53, 70
3, 1341, Note_on_c, 1, 65, 0
3, 1341, Note_on_c, 1, 53, 0
3, 1344, Note_on_c, 1, 64, 70
3, 1344, Note_on_c, 1, 52, 70
3, 1433, Note_on_c, 1, 64, 0
3, 1433, Note_on_c, 1, 52, 0
3, 1488, Note_on_c, 1, 65, 70
3, 1488, Note_on_c, 1, 53, 70
3, 1533, Note_on_c, 1, 65, 0
3, 1533, Note_on_c, 1, 53, 0
3, 1536, Note_on_c, 1, 64, 70
3, 1536, Note_on_c, 1, 52, 70
3, 1625, Note_on_c, 1, 64, 0
3, 1625, Note_on_c, 1, 52, 0
3, 1680, Note_on_c, 1, 65, 70
3, 1680, Note_on_c, 1, 53, 70
3, 1725, Note_on_c, 1, 65, 0
3, 1725, Note_on_c, 1, 53, 0
3, 1728, Note_on_c, 1, 64, 70
3, 1728, Note_on_c, 1, 52, 70
3, 1773, Note_on_c, 1, 64, 0
3, 1773, Note_on_c, 1, 52, 0
3, 1776, Note_on_c, 1, 65, 70
3, 1776, Note_on_c, 1, 53, 70
3, 1821, Note_on_c, 1, 65, 0
3, 1821, Note_on_c, 1, 53, 0
3, 1824, Note_on_c, 1, 67, 70
3, 1869, Note_on_c, 1, 67, 0
3, 1872, Note_on_c, 1, 55, 70
3, 1917, Note_on_c, 1, 55, 0
3, 1920, Note_on_c, 1, 60, 70
3, 1965, Note_on_c, 1, 60, 0
3, 1968, Note_on_c, 1, 55, 70
3, 2013, Note_on_c, 1, 55, 0
3, 2016, Note_on_c, 1, 48, 70
3, 2061, Note_on_c, 1, 48, 0
3, 2064, Note_on_c, 1, 52, 80
3, 2064, Note_on_c, 1, 40, 80
3, 2109, Note_on_c, 1, 52, 0
3, 2109, Note_on_c, 1, 40, 0
3, 2112, Note_on_c, 1, 53, 80
3, 2112, Note_on_c, 1, 41, 80
3, 2157, Note_on_c, 1, 53, 0
3, 2157, Note_on_c, 1, 41, 0
3, 2208, Note_on_c, 1, 53, 80
3, 2208, Note_on_c, 1, 41, 80
3, 2253, Note_on_c, 1, 53, 0
3, 2253, Note_on_c, 1, 41, 0
3, 2256, Note_on_c, 1, 55, 80
3, 2256, Note_on_c, 1, 43, 80
3, 2301, Note_on_c, 1, 55, 0
3, 2301, Note_on_c, 1, 43, 0
3, 2304, Note_on_c, 1, 57, 80
3, 2304, Note_on_c, 1, 45, 80
3, 2437, Note_on_c, 1, 57, 0
3, 2437, Note_on_c, 1, 45, 0
3, 2448, Note_on_c, 1, 52, 80
3, 2448, Note_on_c, 1, 40, 80
3, 2493, Note_on_c, 1, 52, 0
3, 2493, Note_on_c, 1, 40, 0
3, 2496, Note_on_c, 1, 53, 80
3, 2496, Note_on_c, 1, 41, 80
3, 2629, Note_on_c, 1, 53, 0
3, 2629, Note_on_c, 1, 41, 0
3, 2640, Note_on_c, 1, 55, 80
3, 2640, Note_on_c, 1, 43, 80
3, 2685, Note_on_c, 1, 55, 0
3, 2685, Note_on_c, 1, 43, 0
3, 2688, Note_on_c, 1, 48, 80
3, 2733, Note_on_c, 1, 48, 0
3, 2736, Note_on_c, 1, 43, 80
3, 2781, Note_on_c, 1, 43, 0
3, 2784, Note_on_c, 1, 36, 80
3, 2873, Note_on_c, 1, 36, 0
3, 2880, Note_on_c, 1, 53, 85
3, 2880, Note_on_c, 1, 41, 85
3, 2969, Note_on_c, 1, 53, 0
3, 2969, Note_on_c, 1, 41, 0
3, 2976, Note_on_c, 1, 53, 70
3, 2976, Note_on_c, 1, 41, 70
3, 3021, Note_on_c, 1, 53, 0
3, 3021, Note_on_c, 1, 41, 0
3, 3024, Note_on_c, 1, 55, 70
3, 3024, Note_on_c, 1, 43, 70
3, 3069, Note_on_c, 1, 55, 0
3, 3069, Note_on_c, 1, 43, 0
3, 3072, Note_on_c, 1, 57, 70
3, 3072, Note_on_c, 1, 45, 70
3, 3161, Note_on_c, 1, 57, 0
3, 3161, Note_on_c, 1, 45, 0
3, 3216, Note_on_c, 1, 60, 70
3, 3216, Note_on_c, 1, 57, 70
3, 3261, Note_on_c, 1, 60, 0
3, 3261, Note_on_c, 1, 57, 0
3, 3264, Note_on_c, 1, 62, 70
3, 3264, Note_on_c, 1, 58, 70
3, 3309, Note_on_c, 1, 62, 0
3, 3309, Note_on_c, 1, 58, 0
3, 3312, Note_on_c, 1, 60, 70
3, 3312, Note_on_c, 1, 57, 70
3, 3357, Note_on_c, 1, 60, 0
3, 3357, Note_on_c, 1, 57, 0
3, 3408, Note_on_c, 1, 60, 70
3, 3408, Note_on_c, 1, 57, 70
3, 3453, Note_on_c, 1, 60, 0
3, 3453, Note_on_c, 1, 57, 0
3, 3456, Note_on_c, 1, 62, 70
3, 3456, Note_on_c, 1, 58, 70
3, 3501, Note_on_c, 1, 62, 0
3, 3501, Note_on_c, 1, 58, 0
3, 3504, Note_on_c, 1, 60, 70
3, 3504, Note_on_c, 1, 57, 70
3, 3549, Note_on_c, 1, 60, 0
3, 3549, Note_on_c, 1, 57, 0
3, 3600, Note_on_c, 1, 69, 70
3, 3600, Note_on_c, 1, 65, 70
3, 3645, Note_on_c, 1, 69, 0
3, 3645, Note_on_c, 1, 65, 0
3, 3648, Note_on_c, 1, 70, 70
3, 3648, Note_on_c, 1, 65, 70
3, 3737, Note_on_c, 1, 70, 0
3, 3737, Note_on_c, 1, 65, 0
3, 3744, Note_on_c, 1, 69, 70
3, 3744, Note_on_c, 1, 65, 70
3, 3833, Note_on_c, 1, 69, 0
3, 3833, Note_on_c, 1, 65, 0
3, 3840, Note_on_c, 1, 67, 70
3, 3885, Note_on_c, 1, 67, 0
3, 3888, Note_on_c, 1, 60, 70
3, 3933, Note_on_c, 1, 60, 0
3, 3936, Note_on_c, 1, 65, 70
3, 3981, Note_on_c, 1, 65, 0
3, 3984, Note_on_c, 1, 69, 70
3, 3984, Note_on_c, 1, 65, 70
3, 4029, Note_on_c, 1, 69, 0
3, 4029, Note_on_c, 1, 65, 0
3, 4032, Note_on_c, 1, 70, 70
3, 4032, Note_on_c, 1, 65, 70
3, 4121, Note_on_c, 1, 70, 0
3, 4121, Note_on_c, 1, 65, 0
3, 4128, Note_on_c, 1, 69, 70
3, 4128, Note_on_c, 1, 65, 70
3, 4173, Note_on_c, 1, 69, 0
3, 4173, Note_on_c, 1, 65, 0
3, 4176, Note_on_c, 1, 65, 70
3, 4176, Note_on_c, 1, 53, 70
3, 4221, Note_on_c, 1, 65, 0
3, 4221, Note_on_c, 1, 53, 0
3, 4224, Note_on_c, 1, 64, 70
3, 4224, Note_on_c, 1, 52, 70
3, 4313, Note_on_c, 1, 64, 0
3, 4313, Note_on_c, 1, 52, 0
3, 4368, Note_on_c, 1, 65, 70
3, 4368, Note_on_c, 1, 53, 70
3, 4413, Note_on_c, 1, 65, 0
3, 4413, Note_on_c, 1, 53, 0
3, 4416, Note_on_c, 1, 64, 70
3, 4416, Note_on_c, 1, 52, 70
3, 4505, Note_on_c, 1, 64, 0
3, 4505, Note_on_c, 1, 52, 0
3, 4560, Note_on_c, 1, 65, 70
3, 4560, Note_on_c, 1, 53, 70
3, 4605, Note_on_c, 1, 65, 0
3, 4605, Note_on_c, 1, 53, 0
3, 4608, Note_on_c, 1, 64, 70
3, 4608, Note_on_c, 1, 52, 70
3, 4653, Note_on_c, 1, 64, 0
3, 4653, Note_on_c, 1, 52, 0
3, 4656, Note_on_c, 1, 65, 70
3, 4656, Note_on_c, 1, 53, 70
3, 4701, Note_on_c, 1, 65, 0
3, 4701, Note_on_c, 1, 53, 0
3, 4704, Note_on_c, 1, 67, 70
3, 4749, Note_on_c, 1, 67, 0
3, 4752, Note_on_c, 1, 55, 70
3, 4797, Note_on_c, 1, 55, 0
3, 4800, Note_on_c, 1, 60, 70
3, 4845, Note_on_c, 1, 60, 0
3, 4848, Note_on_c, 1, 55, 70
3, 4893, Note_on_c, 1, 55, 0
3, 4896, Note_on_c, 1, 48, 70
3, 4941, Note_on_c, 1, 48, 0
3, 4944, Note_on_c, 1, 52, 80
3, 4944, Note_on_c, 1, 40, 80
3, 4989, Note_on_c, 1, 52, 0
3, 4989, Note_on_c, 1, 40, 0
3, 4992, Note_on_c, 1, 53, 80
3, 4992, Note_on_c, 1, 41, 80
3, 5037, Note_on_c, 1, 53, 0
3, 5037, Note_on_c, 1, 41, 0
3, 5088, Note_on_c, 1, 53, 80
3, 5088, Note_on_c, 1, 41, 80
3, 5133, Note_on_c, 1, 53, 0
3, 5133, Note_on_c, 1, 41, 0
3, 5136, Note_on_c, 1, 55, 80
3, 5136, Note_on_c, 1, 43, 80
3, 5181, Note_on_c, 1, 55, 0
3, 5181, Note_on_c, 1, 43, 0
3, 5184, Note_on_c, 1, 57, 80
3, 5184, Note_on_c, 1, 45, 80
3, 5317, Note_on_c, 1, 57, 0
3, 5317, Note_on_c, 1, 45, 0
3, 5328, Note_on_c, 1, 52, 80
3, 5328, Note_on_c, 1, 40, 80
3, 5373, Note_on_c, 1, 52, 0
3, 5373, Note_on_c, 1, 40, 0
3, 5376, Note_on_c, 1, 53, 80
3, 5376, Note_on_c, 1, 41, 80
3, 5509, Note_on_c, 1, 53, 0
3, 5509, Note_on_c, 1, 41, 0
3, 5520, Note_on_c, 1, 55, 80
3, 5520, Note_on_c, 1, 43, 80
3, 5565, Note_on_c, 1, 55, 0
3, 5565, Note_on_c, 1, 43, 0
3, 5568, Note_on_c, 1, 48, 80
3, 5613, Note_on_c, 1, 48, 0
3, 5616, Note_on_c, 1, 43, 80
3, 5661, Note_on_c, 1, 43, 0
3, 5664, Note_on_c, 1, 36, 80
3, 5753, Note_on_c, 1, 36, 0
3, 5760, Note_on_c, 1, 48, 85
3, 5760, Note_on_c, 1, 36, 85
3, 5849, Note_on_c, 1, 48, 0
3, 5849, Note_on_c, 1, 36, 0
3, 5856, Note_on_c, 1, 60, 70
3, 5901, Note_on_c, 1, 60, 0
3, 5904, Note_on_c, 1, 62, 70
3, 5949, Note_on_c, 1, 62, 0
3, 5952, Note_on_c, 1, 64, 70
3, 6041, Note_on_c, 1, 64, 0
3, 6144, Note_on_c, 1, 48, 70
3, 6144, Note_on_c, 1, 36, 70
3, 6233, Note_on_c, 1, 48, 0
3, 6233, Note_on_c, 1, 36, 0
3, 6240, Note_on_c, 1, 62, 70
3, 6285, Note_on_c, 1, 62, 0
3, 6288, Note_on_c, 1, 64, 70
3, 6333, Note_on_c, 1, 64, 0
3, 6336, Note_on_c, 1, 65, 70
3, 6425, Note_on_c, 1, 65, 0
3, 6528, Note_on_c, 1, 48, 70
3, 6528, Note_on_c, 1, 36, 70
3, 6617, Note_on_c, 1, 48, 0
3, 6617, Note_on_c, 1, 36, 0
3, 6624, Note_on_c, 1, 64, 70
3, 6669, Note_on_c, 1, 64, 0
3, 6672, Note_on_c, 1, 65, 70
3, 6717, Note_on_c, 1, 65, 0
3, 6720, Note_on_c, 1, 67, 70
3, 6809, Note_on_c, 1, 67, 0
3, 6912, Note_on_c, 1, 41, 70
3, 7001, Note_on_c, 1, 41, 0
3, 7056, Note_on_c, 1, 60, 70
3, 7056, Note_on_c, 1, 57, 70
3, 7101, Note_on_c, 1, 60, 0
3, 7101, Note_on_c, 1, 57, 0
3, 7104, Note_on_c, 1, 62, 70
3, 7104, Note_on_c, 1, 58, 70
3, 7149, Note_on_c, 1, 62, 0
3, 7149, Note_on_c, 1, 58, 0
3, 7152, Note_on_c, 1, 60, 70
3, 7152, Note_on_c, 1, 57, 70
3, 7197, Note_on_c, 1, 60, 0
3, 7197, Note_on_c, 1, 57, 0
3, 7248, Note_on_c, 1, 60, 70
3, 7248, Note_on_c, 1, 57, 70
3, 7293, Note_on_c, 1, 60, 0
3, 7293, Note_on_c, 1, 57, 0
3, 7296, Note_on_c, 1, 62, 70
3, 7296, Note_on_c, 1, 58, 70
3, 7341, Note_on_c, 1, 62, 0
3, 7341, Note_on_c, 1, 58, 0
3, 7344, Note_on_c, 1, 60, 70
3, 7344, Note_on_c, 1, 57, 70
3, 7389, Note_on_c, 1, 60, 0
3, 7389, Note_on_c, 1, 57, 0
3, 7440, Note_on_c, 1, 57, 80
3, 7440, Note_on_c, 1, 45, 80
3, 7485, Note_on_c, 1, 57, 0
3, 7485, Note_on_c, 1, 45, 0
3, 7488, Note_on_c, 1, 58, 80
3, 7488, Note_on_c, 1, 46, 80
3, 7577, Note_on_c, 1, 58, 0
3, 7577, Note_on_c, 1, 46, 0
3, 7584, Note_on_c, 1, 55, 80
3, 7584, Note_on_c, 1, 43, 80
3, 7673, Note_on_c, 1, 55, 0
3, 7673, Note_on_c, 1, 43, 0
3, 7680, Note_on_c, 1, 52, 80
3, 7680, Note_on_c, 1, 40, 80
3, 7769, Note_on_c, 1, 52, 0
3, 7769, Note_on_c, 1, 40, 0
3, 7776, Note_on_c, 1, 53, 80
3, 7776, Note_on_c, 1, 41, 80
3, 7865, Note_on_c, 1, 53, 0
3, 7865, Note_on_c, 1, 41, 0
3, 7872, Note_on_c, 1, 58, 80
3, 7872, Note_on_c, 1, 46, 80
3, 8005, Note_on_c, 1, 58, 0
3, 8005, Note_on_c, 1, 46, 0
3, 8016, Note_on_c, 1, 59, 82
3, 8016, Note_on_c, 1, 47, 82
3, 8061, Note_on_c, 1, 59, 0
3, 8061, Note_on_c, 1, 47, 0
3, 8064, Note_on_c, 1, 60, 83
3, 8064, Note_on_c, 1, 48, 83
3, 8153, Note_on_c, 1, 60, 0
3, 8153, Note_on_c, 1, 48, 0
3, 8256, Note_on_c, 1, 53, 85
3, 8256, Note_on_c, 1, 41, 85
3, 8345, Note_on_c, 1, 53, 0
3, 8345, Note_on_c, 1, 41, 0
3, 8352, Note_on_c, 1, 53, 70
3, 8352, Note_on_c, 1, 41, 70
3, 8397, Note_on_c, 1, 53, 0
3, 8397, Note_on_c, 1, 41, 0
3, 8400, Note_on_c, 1, 55, 70
3, 8400, Note_on_c, 1, 43, 70
3, 8445, Note_on_c, 1, 55, 0
3, 8445, Note_on_c, 1, 43, 0
3, 8448, Note_on_c, 1, 57, 70
3, 8448, Note_on_c, 1, 45, 70
3, 8537, Note_on_c, 1, 57, 0
3, 8537, Note_on_c, 1, 45, 0
3, 8592, Note_on_c, 1, 60, 70
3, 8592, Note_on_c, 1, 57, 70
3, 8637, Note_on_c, 1, 60, 0
3, 8637, Note_on_c, 1, 57, 0
3, 8640, Note_on_c, 1, 62, 70
3, 8640, Note_on_c, 1, 58, 70
3, 8685, Note_on_c, 1, 62, 0
3, 8685, Note_on_c, 1, 58, 0
3, 8688, Note_on_c, 1, 60, 70
3, 8688, Note_on_c, 1, 57, 70
3, 8733, Note_on_c, 1, 60, 0
3, 8733, Note_on_c, 1, 57, 0
3, 8784, Note_on_c, 1, 60, 70
3, 8784, Note_on_c, 1, 57, 70
3, 8829, Note_on_c, 1, 60, 0
3, 8829, Note_on_c, 1, 57, 0
3, 8832, Note_on_c, 1, 62, 70
3, 8832, Note_on_c, 1, 58, 70
3, 8877, Note_on_c, 1, 62, 0
3, 8877, Note_on_c, 1, 58, 0
3, 8880, Note_on_c, 1, 60, 70
3, 8880, Note_on_c, 1, 57, 70
3, 8925, Note_on_c, 1, 60, 0
3, 8925, Note_on_c, 1, 57, 0
3, 8976, Note_on_c, 1, 69, 70
3, 8976, Note_on_c, 1, 65, 70
3, 9021, Note_on_c, 1, 69, 0
3, 9021, Note_on_c, 1, 65, 0
3, 9024, Note_on_c, 1, 70, 70
3, 9024, Note_on_c, 1, 65, 70
3, 9113, Note_on_c, 1, 70, 0
3, 9113, Note_on_c, 1, 65, 0
3, 9120, Note_on_c, 1, 69, 70
3, 9120, Note_on_c, 1, 65, 70
3, 9209, Note_on_c, 1, 69, 0
3, 9209, Note_on_c, 1, 65, 0
3, 9216, Note_on_c, 1, 67, 70
3, 9261, Note_on_c, 1, 67, 0
3, 9264, Note_on_c, 1, 60, 70
3, 9309, Note_on_c, 1, 60, 0
3, 9312, Note_on_c, 1, 65, 70
3, 9357, Note_on_c, 1, 65, 0
3, 9360, Note_on_c, 1, 70, 70
3, 9405, Note_on_c, 1, 70, 0
3, 9408, Note_on_c, 1, 69, 70
3, 9497, Note_on_c, 1, 69, 0
3, 9552, Note_on_c, 1, 58, 70
3, 9552, Note_on_c, 1, 46, 70
3, 9597, Note_on_c, 1, 58, 0
3, 9597, Note_on_c, 1, 46, 0
3, 9600, Note_on_c, 1, 57, 70
3, 9600, Note_on_c, 1, 45, 70
3, 9689, Note_on_c, 1, 57, 0
3, 9689, Note_on_c, 1, 45, 0
3, 9744, Note_on_c, 1, 58, 70
3, 9744, Note_on_c, 1, 46, 70
3, 9789, Note_on_c, 1, 58, 0
3, 9789, Note_on_c, 1, 46, 0
3, 9792, Note_on_c, 1, 57, 70
3, 9792, Note_on_c, 1, 45, 70
3, 9837, Note_on_c, 1, 57, 0
3, 9837, Note_on_c, 1, 45, 0
3, 9840, Note_on_c, 1, 58, 70
3, 9840, Note_on_c, 1, 46, 70
3, 9885, Note_on_c, 1, 58, 0
3, 9885, Note_on_c, 1, 46, 0
3, 9888, Note_on_c, 1, 60, 70
3, 9933, Note_on_c, 1, 60, 0
3, 9936, Note_on_c, 1, 48, 70
3, 9981, Note_on_c, 1, 48, 0
3, 9984, Note_on_c, 1, 53, 70
3, 10029, Note_on_c, 1, 53, 0
3, 10032, Note_on_c, 1, 48, 70
3, 10077, Note_on_c, 1, 48, 0
3, 10080, Note_on_c, 1, 41, 70
3, 10125, Note_on_c, 1, 41, 0
3, 10128, Note_on_c, 1, 57, 80
3, 10128, Note_on_c, 1, 45, 80
3, 10173, Note_on_c, 1, 57, 0
3, 10173, Note_on_c, 1, 45, 0
3, 10176, Note_on_c, 1, 58, 80
3, 10176, Note_on_c, 1, 46, 80
3, 10309, Note_on_c, 1, 58, 0
3, 10309, Note_on_c, 1, 46, 0
3, 10320, Note_on_c, 1, 60, 80
3, 10320, Note_on_c, 1, 48, 80
3, 10365, Note_on_c, 1, 60, 0
3, 10365, Note_on_c, 1, 48, 0
3, 10368, Note_on_c, 1, 62, 80
3, 10368, Note_on_c, 1, 50, 80
3, 10457, Note_on_c, 1, 62, 0
3, 10457, Note_on_c, 1, 50, 0
3, 10512, Note_on_c, 1, 45, 80
3, 10512, Note_on_c, 1, 33, 80
3, 10557, Note_on_c, 1, 45, 0
3, 10557, Note_on_c, 1, 33, 0
3, 10560, Note_on_c, 1, 46, 80
3, 10560, Note_on_c, 1, 34, 80
3, 10649, Note_on_c, 1, 46, 0
3, 10649, Note_on_c, 1, 34, 0
3, 10656, Note_on_c, 1, 48, 80
3, 10656, Note_on_c, 1, 36, 80
3, 10745, Note_on_c, 1, 48, 0
3, 10745, Note_on_c, 1, 36, 0
3, 10752, Note_on_c, 1, 41, 80
3, 10752, Note_on_c, 1, 29, 80
3, 10841, Note_on_c, 1, 41, 0
3, 10841, Note_on_c, 1, 29, 0
3, 10944, Note_on_c, 1, 48, 85
3, 10944, Note_on_c, 1, 36, 85
3, 11033, Note_on_c, 1, 48, 0
3, 11033, Note_on_c, 1, 36, 0
3, 11040, Note_on_c, 1, 60, 70
3, 11085, Note_on_c, 1, 60, 0
3, 11088, Note_on_c, 1, 62, 70
3, 11133, Note_on_c, 1, 62, 0
3, 11136, Note_on_c, 1, 64, 70
3, 11225, Note_on_c, 1, 64, 0
3, 11328, Note_on_c, 1, 48, 70
3, 11328, Note_on_c, 1, 36, 70
3, 11417, Note_on_c, 1, 48, 0
3, 11417, Note_on_c, 1, 36, 0
3, 11424, Note_on_c, 1, 62, 70
3, 11469, Note_on_c, 1, 62, 0
3, 11472, Note_on_c, 1, 64, 70
3, 11517, Note_on_c, 1, 64, 0
3, 11520, Note_on_c, 1, 65, 70
3, 11609, Note_on_c, 1, 65, 0
3, 11712, Note_on_c, 1, 48, 70
3, 11712, Note_on_c, 1, 36, 70
3, 11801, Note_on_c, 1, 48, 0
3, 11801, Note_on_c, 1, 36, 0
3, 11808, Note_on_c, 1, 64, 70
3, 11853, Note_on_c, 1, 64, 0
3, 11856, Note_on_c, 1, 65, 70
3, 11901, Note_on_c, 1, 65, 0
3, 11904, Note_on_c, 1, 67, 70
3, 11993, Note_on_c, 1, 67, 0
3, 12096, Note_on_c, 1, 41, 70
3, 12185, Note_on_c, 1, 41, 0
3, 12240, Note_on_c, 1, 60, 70
3, 12240, Note_on_c, 1, 57, 70
3, 12285, Note_on_c, 1, 60, 0
3, 12285, Note_on_c, 1, 57, 0
3, 12288, Note_on_c, 1, 62, 70
3, 12288, Note_on_c, 1, 58, 70
3, 12333, Note_on_c, 1, 62, 0
3, 12333, Note_on_c, 1, 58, 0
3, 12336, Note_on_c, 1, 60, 70
3, 12336, Note_on_c, 1, 57, 70
3, 12381, Note_on_c, 1, 60, 0
3, 12381, Note_on_c, 1, 57, 0
3, 12432, Note_on_c, 1, 60, 70
3, 12432, Note_on_c, 1, 57, 70
3, 12477, Note_on_c, 1, 60, 0
3, 12477, Note_on_c, 1, 57, 0
3, 12480, Note_on_c, 1, 62, 70
3, 12480, Note_on_c, 1, 58, 70
3, 12525, Note_on_c, 1, 62, 0
3, 12525, Note_on_c, 1, 58, 0
3, 12528, Note_on_c, 1, 60, 70
3, 12528, Note_on_c, 1, 57, 70
3, 12573, Note_on_c, 1, 60, 0
3, 12573, Note_on_c, 1, 57, 0
3, 12624, Note_on_c, 1, 57, 80
3, 12624, Note_on_c, 1, 45, 80
3, 12669, Note_on_c, 1, 57, 0
3, 12669, Note_on_c, 1, 45, 0
3, 12672, Note_on_c, 1, 58, 80
3, 12672, Note_on_c, 1, 46, 80
3, 12761, Note_on_c, 1, 58, 0
3, 12761, Note_on_c, 1, 46, 0
3, 12768, Note_on_c, 1, 55, 80
3, 12768, Note_on_c, 1, 43, 80
3, 12857, Note_on_c, 1, 55, 0
3, 12857, Note_on_c, 1, 43, 0
3, 12864, Note_on_c, 1, 52, 80
3, 12864, Note_on_c, 1, 40, 80
3, 12953, Note_on_c, 1, 52, 0
3, 12953, Note_on_c, 1, 40, 0
3, 12960, Note_on_c, 1, 53, 80
3, 12960, Note_on_c, 1, 41, 80
3, 13049, Note_on_c, 1, 53, 0
3, 13049, Note_on_c, 1, 41, 0
3, 13056, Note_on_c, 1, 58, 80
3, 13056, Note_on_c, 1, 46, 80
3, 13189, Note_on_c, 1, 58, 0
3, 13189, Note_on_c, 1, 46, 0
3, 13200, Note_on_c, 1, 59, 82
3, 13200, Note_on_c, 1, 47, 82
3, 13245, Note_on_c, 1, 59, 0
3, 13245, Note_on_c, 1, 47, 0
3, 13248, Note_on_c, 1, 60, 83
3, 13248, Note_on_c, 1, 48, 83
3, 13337, Note_on_c, 1, 60, 0
3, 13337, Note_on_c, 1, 48, 0
3, 13440, Note_on_c, 1, 53, 85
3, 13440, Note_on_c, 1, 41, 85
3, 13529, Note_on_c, 1, 53, 0
3, 13529, Note_on_c, 1, 41, 0
3, 13536, Note_on_c, 1, 53, 70
3, 13536, Note_on_c, 1, 41, 70
3, 13581, Note_on_c, 1, 53, 0
3, 13581, Note_on_c, 1, 41, 0
3, 13584, Note_on_c, 1, 55, 70
3, 13584, Note_on_c, 1, 43, 70
3, 13629, Note_on_c, 1, 55, 0
3, 13629, Note_on_c, 1, 43, 0
3, 13632, Note_on_c, 1, 57, 70
3, 13632, Note_on_c, 1, 45, 70
3, 13721, Note_on_c, 1, 57, 0
3, 13721, Note_on_c, 1, 45, 0
3, 13776, Note_on_c, 1, 60, 70
3, 13776, Note_on_c, 1, 57, 70
3, 13821, Note_on_c, 1, 60, 0
3, 13821, Note_on_c, 1, 57, 0
3, 13824, Note_on_c, 1, 62, 70
3, 13824, Note_on_c, 1, 58, 70
3, 13869, Note_on_c, 1, 62, 0
3, 13869, Note_on_c, 1, 58, 0
3, 13872, Note_on_c, 1, 60, 70
3, 13872, Note_on_c, 1, 57, 70
3, 13917, Note_on_c, 1, 60, 0
3, 13917, Note_on_c, 1, 57, 0
3, 13968, Note_on_c, 1, 60, 70
3, 13968, Note_on_c, 1, 57, 70
3, 14013, Note_on_c, 1, 60, 0
3, 14013, Note_on_c, 1, 57, 0
3, 14016, Note_on_c, 1, 62, 70
3, 14016, Note_on_c, 1, 58, 70
3, 14061, Note_on_c, 1, 62, 0
3, 14061, Note_on_c, 1, 58, 0
3, 14064, Note_on_c, 1, 60, 70
3, 14064, Note_on_c, 1, 57, 70
3, 14109, Note_on_c, 1, 60, 0
3, 14109, Note_on_c, 1, 57, 0
3, 14160, Note_on_c, 1, 69, 70
3, 14160, Note_on_c, 1, 65, 70
3, 14205, Note_on_c, 1, 69, 0
3, 14205, Note_on_c, 1, 65, 0
3, 14208, Note_on_c, 1, 70, 70
3, 14208, Note_on_c, 1, 65, 70
3, 14297, Note_on_c, 1, 70, 0
3, 14297, Note_on_c, 1, 65, 0
3, 14304, Note_on_c, 1, 69, 70
3, 14304, Note_on_c, 1, 65, 70
3, 14393, Note_on_c, 1, 69, 0
3, 14393, Note_on_c, 1, 65, 0
3, 14400, Note_on_c, 1, 67, 70
3, 14445, Note_on_c, 1, 67, 0
3, 14448, Note_on_c, 1, 60, 70
3, 14493, Note_on_c, 1, 60, 0
3, 14496, Note_on_c, 1, 65, 70
3, 14541, Note_on_c, 1, 65, 0
3, 14544, Note_on_c, 1, 70, 70
3, 14589, Note_on_c, 1, 70, 0
3, 14592, Note_on_c, 1, 69, 70
3, 14681, Note_on_c, 1, 69, 0
3, 14736, Note_on_c, 1, 58, 70
3, 14736, Note_on_c, 1, 46, 70
3, 14781, Note_on_c, 1, 58, 0
3, 14781, Note_on_c, 1, 46, 0
3, 14784, Note_on_c, 1, 57, 70
3, 14784, Note_on_c, 1, 45, 70
3, 14873, Note_on_c, 1, 57, 0
3, 14873, Note_on_c, 1, 45, 0
3, 14928, Note_on_c, 1, 58, 70
3, 14928, Note_on_c, 1, 46, 70
3, 14973, Note_on_c, 1, 58, 0
3, 14973, Note_on_c, 1, 46, 0
3, 14976, Note_on_c, 1, 57, 70
3, 14976, Note_on_c, 1, 45, 70
3, 15021, Note_on_c, 1, 57, 0
3, 15021, Note_on_c, 1, 45, 0
3, 15024, Note_on_c, 1, 58, 70
3, 15024, Note_on_c, 1, 46, 70
3, 15069, Note_on_c, 1, 58, 0
3, 15069, Note_on_c, 1, 46, 0
3, 15072, Note_on_c, 1, 60, 70
3, 15117, Note_on_c, 1, 60, 0
3, 15120, Note_on_c, 1, 48, 70
3, 15165, Note_on_c, 1, 48, 0
3, 15168, Note_on_c, 1, 53, 70
3, 15213, Note_on_c, 1, 53, 0
3, 15216, Note_on_c, 1, 48, 70
3, 15261, Note_on_c, 1, 48, 0
3, 15264, Note_on_c, 1, 41, 70
3, 15309, Note_on_c, 1, 41, 0
3, 15312, Note_on_c, 1, 57, 80
3, 15312, Note_on_c, 1, 45, 80
3, 15357, Note_on_c, 1, 57, 0
3, 15357, Note_on_c, 1, 45, 0
3, 15360, Note_on_c, 1, 58, 80
3, 15360, Note_on_c, 1, 46, 80
3, 15493, Note_on_c, 1, 58, 0
3, 15493, Note_on_c, 1, 46, 0
3, 15504, Note_on_c, 1, 60, 80
3, 15504, Note_on_c, 1, 48, 80
3, 15549, Note_on_c, 1, 60, 0
3, 15549, Note_on_c, 1, 48, 0
3, 15552, Note_on_c, 1, 62, 80
3, 15552, Note_on_c, 1, 50, 80
3, 15641, Note_on_c, 1, 62, 0
3, 15641, Note_on_c, 1, 50, 0
3, 15696, Note_on_c, 1, 45, 80
3, 15696, Note_on_c, 1, 33, 80
3, 15741, Note_on_c, 1, 45, 0
3, 15741, Note_on_c, 1, 33, 0
3, 15744, Note_on_c, 1, 46, 80
3, 15744, Note_on_c, 1, 34, 80
3, 15833, Note_on_c, 1, 46, 0
3, 15833, Note_on_c, 1, 34, 0
3, 15840, Note_on_c, 1, 48, 80
3, 15840, Note_on_c, 1, 36, 80
3, 15929, Note_on_c, 1, 48, 0
3, 15929, Note_on_c, 1, 36, 0
3, 15936, Note_on_c, 1, 41, 80
3, 15936, Note_on_c, 1, 29, 80
3, 16025, Note_on_c, 1, 41, 0
3, 16025, Note_on_c, 1, 29, 0
3, 16128, Note_on_c, 1, 41, 0
3, 16305, Note_on_c, 1, 41, 0
3, 16320, End_track
4, 0, Start_track
4, 0, Title_t, "<No Title>"
4, 0, End_track
0, 0, End_of_file
