0, 0, Header, 1, 6, 96
1, 0, Start_track
1, 0, Copyright_t, "Copyright  2000 <copyright holder>"
1, 0, Text_t, "Sonata I\015\012"
1, 0, Text_t, "Haydn\015\012"
1, 0, Sequencer_specific, 16, 68, 87, 77, 90, 86, 82, 83, 78, 32, 55, 46, 48, 46, 56, 46, 48
1, 0, Time_signature, 3, 3, 24, 8
1, 0, Tempo, 375000
1, 0, Key_signature, 0, "major"
1, 48, Tempo, 428571
1, 34992, End_track
2, 0, Start_track
2, 0, Program_c, 0, 0
2, 0, Control_c, 0, 7, 127
2, 0, Control_c, 0, 10, 64
2, 96, Note_on_c, 0, 79, 75
2, 144, Note_on_c, 0, 79, 0
2, 144, Note_on_c, 0, 76, 75
2, 164, Note_on_c, 0, 76, 0
2, 240, Note_on_c, 0, 72, 75
2, 288, Note_on_c, 0, 72, 0
2, 288, Note_on_c, 0, 71, 75
2, 308, Note_on_c, 0, 71, 0
2, 384, Note_on_c, 0, 67, 75
2, 429, Note_on_c, 0, 67, 0
2, 432, Note_on_c, 0, 72, 75
2, 455, Note_on_c, 0, 72, 0
2, 456, Note_on_c, 0, 76, 75
2, 479, Note_on_c, 0, 76, 0
2, 480, Note_on_c, 0, 79, 75
2, 503, Note_on_c, 0, 79, 0
2, 504, Note_on_c, 0, 84, 75
2, 527, Note_on_c, 0, 84, 0
2, 528, Note_on_c, 0, 79, 75
2, 551, Note_on_c, 0, 79, 0
2, 552, Note_on_c, 0, 76, 75
2, 575, Note_on_c, 0, 76, 0
2, 576, Note_on_c, 0, 77, 75
2, 588, Note_on_c, 0, 77, 0
2, 588, Note_on_c, 0, 79, 75
2, 600, Note_on_c, 0, 79, 0
2, 600, Note_on_c, 0, 77, 75
2, 621, Note_on_c, 0, 77, 0
2, 624, Note_on_c, 0, 76, 75
2, 669, Note_on_c, 0, 76, 0
2, 672, Note_on_c, 0, 79, 75
2, 720, Note_on_c, 0, 79, 0
2, 720, Note_on_c, 0, 76, 75
2, 740, Note_on_c, 0, 76, 0
2, 816, Note_on_c, 0, 72, 75
2, 864, Note_on_c, 0, 72, 0
2, 864, Note_on_c, 0, 71, 75
2, 884, Note_on_c, 0, 71, 0
2, 960, Note_on_c, 0, 67, 75
2, 1005, Note_on_c, 0, 67, 0
2, 1008, Note_on_c, 0, 71, 75
2, 1031, Note_on_c, 0, 71, 0
2, 1032, Note_on_c, 0, 72, 75
2, 1055, Note_on_c, 0, 72, 0
2, 1056, Note_on_c, 0, 76, 75
2, 1079, Note_on_c, 0, 76, 0
2, 1080, Note_on_c, 0, 72, 75
2, 1103, Note_on_c, 0, 72, 0
2, 1104, Note_on_c, 0, 67, 75
2, 1127, Note_on_c, 0, 67, 0
2, 1128, Note_on_c, 0, 64, 75
2, 1151, Note_on_c, 0, 64, 0
2, 1152, Note_on_c, 0, 65, 75
2, 1164, Note_on_c, 0, 65, 0
2, 1164, Note_on_c, 0, 67, 75
2, 1176, Note_on_c, 0, 67, 0
2, 1176, Note_on_c, 0, 65, 75
2, 1197, Note_on_c, 0, 65, 0
2, 1200, Note_on_c, 0, 64, 75
2, 1245, Note_on_c, 0, 64, 0
2, 1248, Note_on_c, 0, 60, 75
2, 1293, Note_on_c, 0, 60, 0
2, 1296, Note_on_c, 0, 65, 75
2, 1319, Note_on_c, 0, 65, 0
2, 1320, Note_on_c, 0, 60, 75
2, 1343, Note_on_c, 0, 60, 0
2, 1344, Note_on_c, 0, 64, 75
2, 1367, Note_on_c, 0, 64, 0
2, 1368, Note_on_c, 0, 60, 75
2, 1391, Note_on_c, 0, 60, 0
2, 1392, Note_on_c, 0, 69, 75
2, 1415, Note_on_c, 0, 69, 0
2, 1416, Note_on_c, 0, 60, 75
2, 1439, Note_on_c, 0, 60, 0
2, 1440, Note_on_c, 0, 67, 75
2, 1463, Note_on_c, 0, 67, 0
2, 1464, Note_on_c, 0, 60, 75
2, 1487, Note_on_c, 0, 60, 0
2, 1488, Note_on_c, 0, 65, 75
2, 1511, Note_on_c, 0, 65, 0
2, 1512, Note_on_c, 0, 60, 75
2, 1535, Note_on_c, 0, 60, 0
2, 1536, Note_on_c, 0, 64, 75
2, 1559, Note_on_c, 0, 64, 0
2, 1560, Note_on_c, 0, 60, 75
2, 1583, Note_on_c, 0, 60, 0
2, 1584, Note_on_c, 0, 65, 75
2, 1607, Note_on_c, 0, 65, 0
2, 1608, Note_on_c, 0, 60, 75
2, 1631, Note_on_c, 0, 60, 0
2, 1632, Note_on_c, 0, 64, 75
2, 1655, Note_on_c, 0, 64, 0
2, 1656, Note_on_c, 0, 60, 75
2, 1679, Note_on_c, 0, 60, 0
2, 1680, Note_on_c, 0, 69, 75
2, 1703, Note_on_c, 0, 69, 0
2, 1704, Note_on_c, 0, 60, 75
2, 1727, Note_on_c, 0, 60, 0
2, 1728, Note_on_c, 0, 67, 75
2, 1751, Note_on_c, 0, 67, 0
2, 1752, Note_on_c, 0, 60, 75
2, 1775, Note_on_c, 0, 60, 0
2, 1776, Note_on_c, 0, 71, 75
2, 1799, Note_on_c, 0, 71, 0
2, 1800, Note_on_c, 0, 60, 75
2, 1823, Note_on_c, 0, 60, 0
2, 1824, Note_on_c, 0, 72, 75
2, 1847, Note_on_c, 0, 72, 0
2, 1848, Note_on_c, 0, 60, 75
2, 1871, Note_on_c, 0, 60, 0
2, 1872, Note_on_c, 0, 74, 75
2, 1917, Note_on_c, 0, 74, 0
2, 1920, Note_on_c, 0, 65, 75
2, 1965, Note_on_c, 0, 65, 0
2, 1968, Note_on_c, 0, 65, 75
2, 1980, Note_on_c, 0, 65, 0
2, 1980, Note_on_c, 0, 64, 75
2, 1992, Note_on_c, 0, 64, 0
2, 1992, Note_on_c, 0, 62, 75
2, 2004, Note_on_c, 0, 62, 0
2, 2004, Note_on_c, 0, 64, 75
2, 2016, Note_on_c, 0, 64, 0
2, 2016, Note_on_c, 0, 62, 75
2, 2061, Note_on_c, 0, 62, 0
2, 2112, Note_on_c, 0, 79, 75
2, 2127, Note_on_c, 0, 79, 0
2, 2128, Note_on_c, 0, 81, 75
2, 2143, Note_on_c, 0, 81, 0
2, 2144, Note_on_c, 0, 79, 75
2, 2159, Note_on_c, 0, 79, 0
2, 2160, Note_on_c, 0, 76, 75
2, 2180, Note_on_c, 0, 76, 0
2, 2256, Note_on_c, 0, 72, 75
2, 2271, Note_on_c, 0, 72, 0
2, 2272, Note_on_c, 0, 74, 75
2, 2287, Note_on_c, 0, 74, 0
2, 2288, Note_on_c, 0, 72, 75
2, 2304, Note_on_c, 0, 72, 0
2, 2304, Note_on_c, 0, 71, 75
2, 2324, Note_on_c, 0, 71, 0
2, 2400, Note_on_c, 0, 67, 75
2, 2445, Note_on_c, 0, 67, 0
2, 2448, Note_on_c, 0, 72, 75
2, 2471, Note_on_c, 0, 72, 0
2, 2472, Note_on_c, 0, 76, 75
2, 2495, Note_on_c, 0, 76, 0
2, 2496, Note_on_c, 0, 79, 75
2, 2519, Note_on_c, 0, 79, 0
2, 2520, Note_on_c, 0, 84, 75
2, 2543, Note_on_c, 0, 84, 0
2, 2544, Note_on_c, 0, 79, 75
2, 2567, Note_on_c, 0, 79, 0
2, 2568, Note_on_c, 0, 76, 75
2, 2591, Note_on_c, 0, 76, 0
2, 2592, Note_on_c, 0, 77, 75
2, 2604, Note_on_c, 0, 77, 0
2, 2604, Note_on_c, 0, 79, 75
2, 2616, Note_on_c, 0, 79, 0
2, 2616, Note_on_c, 0, 77, 75
2, 2637, Note_on_c, 0, 77, 0
2, 2640, Note_on_c, 0, 76, 75
2, 2685, Note_on_c, 0, 76, 0
2, 2688, Note_on_c, 0, 76, 75
2, 2711, Note_on_c, 0, 76, 0
2, 2712, Note_on_c, 0, 78, 75
2, 2735, Note_on_c, 0, 78, 0
2, 2736, Note_on_c, 0, 79, 75
2, 2759, Note_on_c, 0, 79, 0
2, 2760, Note_on_c, 0, 78, 75
2, 2783, Note_on_c, 0, 78, 0
2, 2784, Note_on_c, 0, 81, 75
2, 2807, Note_on_c, 0, 81, 0
2, 2808, Note_on_c, 0, 79, 75
2, 2831, Note_on_c, 0, 79, 0
2, 2832, Note_on_c, 0, 83, 75
2, 2880, Note_on_c, 0, 83, 0
2, 2880, Note_on_c, 0, 72, 75
2, 2900, Note_on_c, 0, 72, 0
2, 2976, Note_on_c, 0, 81, 75
2, 3024, Note_on_c, 0, 81, 0
2, 3024, Note_on_c, 0, 71, 75
2, 3044, Note_on_c, 0, 71, 0
2, 3120, Note_on_c, 0, 79, 75
2, 3168, Note_on_c, 0, 79, 0
2, 3168, Note_on_c, 0, 69, 70
2, 3191, Note_on_c, 0, 69, 0
2, 3192, Note_on_c, 0, 79, 70
2, 3215, Note_on_c, 0, 79, 0
2, 3216, Note_on_c, 0, 67, 70
2, 3239, Note_on_c, 0, 67, 0
2, 3240, Note_on_c, 0, 79, 71
2, 3263, Note_on_c, 0, 79, 0
2, 3264, Note_on_c, 0, 69, 71
2, 3287, Note_on_c, 0, 69, 0
2, 3288, Note_on_c, 0, 79, 71
2, 3311, Note_on_c, 0, 79, 0
2, 3312, Note_on_c, 0, 70, 72
2, 3335, Note_on_c, 0, 70, 0
2, 3336, Note_on_c, 0, 79, 72
2, 3359, Note_on_c, 0, 79, 0
2, 3360, Note_on_c, 0, 69, 72
2, 3383, Note_on_c, 0, 69, 0
2, 3384, Note_on_c, 0, 79, 73
2, 3407, Note_on_c, 0, 79, 0
2, 3408, Note_on_c, 0, 71, 73
2, 3431, Note_on_c, 0, 71, 0
2, 3432, Note_on_c, 0, 79, 73
2, 3455, Note_on_c, 0, 79, 0
2, 3456, Note_on_c, 0, 72, 74
2, 3479, Note_on_c, 0, 72, 0
2, 3480, Note_on_c, 0, 79, 74
2, 3503, Note_on_c, 0, 79, 0
2, 3504, Note_on_c, 0, 71, 74
2, 3527, Note_on_c, 0, 71, 0
2, 3528, Note_on_c, 0, 79, 75
2, 3551, Note_on_c, 0, 79, 0
2, 3552, Note_on_c, 0, 73, 75
2, 3575, Note_on_c, 0, 73, 0
2, 3576, Note_on_c, 0, 79, 75
2, 3599, Note_on_c, 0, 79, 0
2, 3600, Note_on_c, 0, 78, 76
2, 3623, Note_on_c, 0, 78, 0
2, 3624, Note_on_c, 0, 74, 76
2, 3647, Note_on_c, 0, 74, 0
2, 3648, Note_on_c, 0, 79, 76
2, 3671, Note_on_c, 0, 79, 0
2, 3672, Note_on_c, 0, 74, 77
2, 3695, Note_on_c, 0, 74, 0
2, 3696, Note_on_c, 0, 81, 77
2, 3719, Note_on_c, 0, 81, 0
2, 3720, Note_on_c, 0, 74, 77
2, 3743, Note_on_c, 0, 74, 0
2, 3744, Note_on_c, 0, 82, 78
2, 3767, Note_on_c, 0, 82, 0
2, 3768, Note_on_c, 0, 74, 78
2, 3791, Note_on_c, 0, 74, 0
2, 3792, Note_on_c, 0, 81, 78
2, 3815, Note_on_c, 0, 81, 0
2, 3816, Note_on_c, 0, 74, 79
2, 3839, Note_on_c, 0, 74, 0
2, 3840, Note_on_c, 0, 83, 79
2, 3863, Note_on_c, 0, 83, 0
2, 3864, Note_on_c, 0, 74, 79
2, 3887, Note_on_c, 0, 74, 0
2, 3888, Note_on_c, 0, 84, 80
2, 3911, Note_on_c, 0, 84, 0
2, 3912, Note_on_c, 0, 74, 80
2, 3935, Note_on_c, 0, 74, 0
2, 3936, Note_on_c, 0, 83, 80
2, 3959, Note_on_c, 0, 83, 0
2, 3960, Note_on_c, 0, 74, 80
2, 3983, Note_on_c, 0, 74, 0
2, 3984, Note_on_c, 0, 85, 80
2, 4007, Note_on_c, 0, 85, 0
2, 4008, Note_on_c, 0, 74, 80
2, 4031, Note_on_c, 0, 74, 0
2, 4032, Note_on_c, 0, 86, 80
2, 4055, Note_on_c, 0, 86, 0
2, 4056, Note_on_c, 0, 74, 80
2, 4079, Note_on_c, 0, 74, 0
2, 4080, Note_on_c, 0, 83, 80
2, 4103, Note_on_c, 0, 83, 0
2, 4104, Note_on_c, 0, 74, 80
2, 4127, Note_on_c, 0, 74, 0
2, 4128, Note_on_c, 0, 84, 80
2, 4151, Note_on_c, 0, 84, 0
2, 4152, Note_on_c, 0, 74, 80
2, 4175, Note_on_c, 0, 74, 0
2, 4176, Note_on_c, 0, 81, 80
2, 4199, Note_on_c, 0, 81, 0
2, 4200, Note_on_c, 0, 74, 79
2, 4223, Note_on_c, 0, 74, 0
2, 4224, Note_on_c, 0, 83, 78
2, 4247, Note_on_c, 0, 83, 0
2, 4248, Note_on_c, 0, 74, 77
2, 4271, Note_on_c, 0, 74, 0
2, 4272, Note_on_c, 0, 79, 76
2, 4295, Note_on_c, 0, 79, 0
2, 4296, Note_on_c, 0, 74, 75
2, 4319, Note_on_c, 0, 74, 0
2, 4320, Note_on_c, 0, 78, 75
2, 4365, Note_on_c, 0, 78, 0
2, 4464, Note_on_c, 0, 86, 75
2, 4464, Note_on_c, 0, 83, 75
2, 4512, Note_on_c, 0, 86, 0
2, 4512, Note_on_c, 0, 79, 75
2, 4532, Note_on_c, 0, 83, 0
2, 4532, Note_on_c, 0, 79, 0
2, 4608, Note_on_c, 0, 86, 75
2, 4608, Note_on_c, 0, 83, 75
2, 4656, Note_on_c, 0, 86, 0
2, 4656, Note_on_c, 0, 79, 75
2, 4676, Note_on_c, 0, 83, 0
2, 4676, Note_on_c, 0, 79, 0
2, 4704, Note_on_c, 0, 79, 75
2, 4719, Note_on_c, 0, 79, 0
2, 4720, Note_on_c, 0, 81, 75
2, 4735, Note_on_c, 0, 81, 0
2, 4736, Note_on_c, 0, 79, 75
2, 4751, Note_on_c, 0, 79, 0
2, 4752, Note_on_c, 0, 78, 75
2, 4772, Note_on_c, 0, 78, 0
2, 4800, Note_on_c, 0, 76, 75
2, 4815, Note_on_c, 0, 76, 0
2, 4816, Note_on_c, 0, 77, 75
2, 4831, Note_on_c, 0, 77, 0
2, 4832, Note_on_c, 0, 76, 75
2, 4847, Note_on_c, 0, 76, 0
2, 4848, Note_on_c, 0, 74, 75
2, 4868, Note_on_c, 0, 74, 0
2, 4896, Note_on_c, 0, 72, 75
2, 4908, Note_on_c, 0, 72, 0
2, 4908, Note_on_c, 0, 74, 75
2, 4920, Note_on_c, 0, 74, 0
2, 4920, Note_on_c, 0, 72, 75
2, 4941, Note_on_c, 0, 72, 0
2, 4944, Note_on_c, 0, 71, 75
2, 4989, Note_on_c, 0, 71, 0
2, 4992, Note_on_c, 0, 69, 75
2, 5004, Note_on_c, 0, 69, 0
2, 5004, Note_on_c, 0, 71, 75
2, 5016, Note_on_c, 0, 71, 0
2, 5016, Note_on_c, 0, 69, 75
2, 5037, Note_on_c, 0, 69, 0
2, 5040, Note_on_c, 0, 67, 75
2, 5085, Note_on_c, 0, 67, 0
2, 5136, Note_on_c, 0, 74, 75
2, 5181, Note_on_c, 0, 74, 0
2, 5184, Note_on_c, 0, 74, 75
2, 5196, Note_on_c, 0, 74, 0
2, 5196, Note_on_c, 0, 76, 75
2, 5208, Note_on_c, 0, 76, 0
2, 5208, Note_on_c, 0, 74, 75
2, 5229, Note_on_c, 0, 74, 0
2, 5232, Note_on_c, 0, 72, 75
2, 5277, Note_on_c, 0, 72, 0
2, 5280, Note_on_c, 0, 72, 75
2, 5325, Note_on_c, 0, 72, 0
2, 5328, Note_on_c, 0, 72, 75
2, 5340, Note_on_c, 0, 72, 0
2, 5340, Note_on_c, 0, 74, 75
2, 5352, Note_on_c, 0, 74, 0
2, 5352, Note_on_c, 0, 72, 75
2, 5373, Note_on_c, 0, 72, 0
2, 5376, Note_on_c, 0, 71, 75
2, 5421, Note_on_c, 0, 71, 0
2, 5424, Note_on_c, 0, 83, 75
2, 5469, Note_on_c, 0, 83, 0
2, 5472, Note_on_c, 0, 83, 75
2, 5543, Note_on_c, 0, 83, 0
2, 5544, Note_on_c, 0, 84, 75
2, 5567, Note_on_c, 0, 84, 0
2, 5568, Note_on_c, 0, 81, 75
2, 5591, Note_on_c, 0, 81, 0
2, 5592, Note_on_c, 0, 78, 75
2, 5615, Note_on_c, 0, 78, 0
2, 5616, Note_on_c, 0, 79, 75
2, 5661, Note_on_c, 0, 79, 0
2, 5712, Note_on_c, 0, 74, 70
2, 5757, Note_on_c, 0, 74, 0
2, 5760, Note_on_c, 0, 74, 70
2, 5772, Note_on_c, 0, 74, 0
2, 5772, Note_on_c, 0, 76, 70
2, 5784, Note_on_c, 0, 76, 0
2, 5784, Note_on_c, 0, 74, 70
2, 5805, Note_on_c, 0, 74, 0
2, 5808, Note_on_c, 0, 72, 70
2, 5853, Note_on_c, 0, 72, 0
2, 5856, Note_on_c, 0, 72, 70
2, 5901, Note_on_c, 0, 72, 0
2, 5904, Note_on_c, 0, 72, 70
2, 5916, Note_on_c, 0, 72, 0
2, 5916, Note_on_c, 0, 74, 70
2, 5928, Note_on_c, 0, 74, 0
2, 5928, Note_on_c, 0, 72, 70
2, 5949, Note_on_c, 0, 72, 0
2, 5952, Note_on_c, 0, 71, 70
2, 5997, Note_on_c, 0, 71, 0
2, 6000, Note_on_c, 0, 83, 70
2, 6045, Note_on_c, 0, 83, 0
2, 6048, Note_on_c, 0, 83, 70
2, 6119, Note_on_c, 0, 83, 0
2, 6120, Note_on_c, 0, 84, 70
2, 6143, Note_on_c, 0, 84, 0
2, 6144, Note_on_c, 0, 81, 70
2, 6167, Note_on_c, 0, 81, 0
2, 6168, Note_on_c, 0, 78, 70
2, 6191, Note_on_c, 0, 78, 0
2, 6192, Note_on_c, 0, 79, 70
2, 6237, Note_on_c, 0, 79, 0
2, 6288, Note_on_c, 0, 79, 75
2, 6336, Note_on_c, 0, 79, 0
2, 6336, Note_on_c, 0, 76, 75
2, 6356, Note_on_c, 0, 76, 0
2, 6432, Note_on_c, 0, 72, 75
2, 6480, Note_on_c, 0, 72, 0
2, 6480, Note_on_c, 0, 71, 75
2, 6500, Note_on_c, 0, 71, 0
2, 6576, Note_on_c, 0, 67, 75
2, 6621, Note_on_c, 0, 67, 0
2, 6624, Note_on_c, 0, 72, 75
2, 6647, Note_on_c, 0, 72, 0
2, 6648, Note_on_c, 0, 76, 75
2, 6671, Note_on_c, 0, 76, 0
2, 6672, Note_on_c, 0, 79, 75
2, 6695, Note_on_c, 0, 79, 0
2, 6696, Note_on_c, 0, 84, 75
2, 6719, Note_on_c, 0, 84, 0
2, 6720, Note_on_c, 0, 79, 75
2, 6743, Note_on_c, 0, 79, 0
2, 6744, Note_on_c, 0, 76, 75
2, 6767, Note_on_c, 0, 76, 0
2, 6768, Note_on_c, 0, 77, 75
2, 6780, Note_on_c, 0, 77, 0
2, 6780, Note_on_c, 0, 79, 75
2, 6792, Note_on_c, 0, 79, 0
2, 6792, Note_on_c, 0, 77, 75
2, 6813, Note_on_c, 0, 77, 0
2, 6816, Note_on_c, 0, 76, 75
2, 6861, Note_on_c, 0, 76, 0
2, 6864, Note_on_c, 0, 79, 75
2, 6912, Note_on_c, 0, 79, 0
2, 6912, Note_on_c, 0, 76, 75
2, 6932, Note_on_c, 0, 76, 0
2, 7008, Note_on_c, 0, 72, 75
2, 7056, Note_on_c, 0, 72, 0
2, 7056, Note_on_c, 0, 71, 75
2, 7076, Note_on_c, 0, 71, 0
2, 7152, Note_on_c, 0, 67, 75
2, 7197, Note_on_c, 0, 67, 0
2, 7200, Note_on_c, 0, 71, 75
2, 7223, Note_on_c, 0, 71, 0
2, 7224, Note_on_c, 0, 72, 75
2, 7247, Note_on_c, 0, 72, 0
2, 7248, Note_on_c, 0, 76, 75
2, 7271, Note_on_c, 0, 76, 0
2, 7272, Note_on_c, 0, 72, 75
2, 7295, Note_on_c, 0, 72, 0
2, 7296, Note_on_c, 0, 67, 75
2, 7319, Note_on_c, 0, 67, 0
2, 7320, Note_on_c, 0, 64, 75
2, 7343, Note_on_c, 0, 64, 0
2, 7344, Note_on_c, 0, 65, 75
2, 7356, Note_on_c, 0, 65, 0
2, 7356, Note_on_c, 0, 67, 75
2, 7368, Note_on_c, 0, 67, 0
2, 7368, Note_on_c, 0, 65, 75
2, 7389, Note_on_c, 0, 65, 0
2, 7392, Note_on_c, 0, 64, 75
2, 7437, Note_on_c, 0, 64, 0
2, 7440, Note_on_c, 0, 60, 75
2, 7485, Note_on_c, 0, 60, 0
2, 7488, Note_on_c, 0, 65, 75
2, 7511, Note_on_c, 0, 65, 0
2, 7512, Note_on_c, 0, 60, 75
2, 7535, Note_on_c, 0, 60, 0
2, 7536, Note_on_c, 0, 64, 75
2, 7559, Note_on_c, 0, 64, 0
2, 7560, Note_on_c, 0, 60, 75
2, 7583, Note_on_c, 0, 60, 0
2, 7584, Note_on_c, 0, 69, 75
2, 7607, Note_on_c, 0, 69, 0
2, 7608, Note_on_c, 0, 60, 75
2, 7631, Note_on_c, 0, 60, 0
2, 7632, Note_on_c, 0, 67, 75
2, 7655, Note_on_c, 0, 67, 0
2, 7656, Note_on_c, 0, 60, 75
2, 7679, Note_on_c, 0, 60, 0
2, 7680, Note_on_c, 0, 65, 75
2, 7703, Note_on_c, 0, 65, 0
2, 7704, Note_on_c, 0, 60, 75
2, 7727, Note_on_c, 0, 60, 0
2, 7728, Note_on_c, 0, 64, 75
2, 7751, Note_on_c, 0, 64, 0
2, 7752, Note_on_c, 0, 60, 75
2, 7775, Note_on_c, 0, 60, 0
2, 7776, Note_on_c, 0, 65, 75
2, 7799, Note_on_c, 0, 65, 0
2, 7800, Note_on_c, 0, 60, 75
2, 7823, Note_on_c, 0, 60, 0
2, 7824, Note_on_c, 0, 64, 75
2, 7847, Note_on_c, 0, 64, 0
2, 7848, Note_on_c, 0, 60, 75
2, 7871, Note_on_c, 0, 60, 0
2, 7872, Note_on_c, 0, 69, 75
2, 7895, Note_on_c, 0, 69, 0
2, 7896, Note_on_c, 0, 60, 75
2, 7919, Note_on_c, 0, 60, 0
2, 7920, Note_on_c, 0, 67, 75
2, 7943, Note_on_c, 0, 67, 0
2, 7944, Note_on_c, 0, 60, 75
2, 7967, Note_on_c, 0, 60, 0
2, 7968, Note_on_c, 0, 71, 75
2, 7991, Note_on_c, 0, 71, 0
2, 7992, Note_on_c, 0, 60, 75
2, 8015, Note_on_c, 0, 60, 0
2, 8016, Note_on_c, 0, 72, 75
2, 8039, Note_on_c, 0, 72, 0
2, 8040, Note_on_c, 0, 60, 75
2, 8063, Note_on_c, 0, 60, 0
2, 8064, Note_on_c, 0, 74, 75
2, 8109, Note_on_c, 0, 74, 0
2, 8112, Note_on_c, 0, 65, 75
2, 8157, Note_on_c, 0, 65, 0
2, 8160, Note_on_c, 0, 65, 75
2, 8172, Note_on_c, 0, 65, 0
2, 8172, Note_on_c, 0, 64, 75
2, 8184, Note_on_c, 0, 64, 0
2, 8184, Note_on_c, 0, 62, 75
2, 8196, Note_on_c, 0, 62, 0
2, 8196, Note_on_c, 0, 64, 75
2, 8208, Note_on_c, 0, 64, 0
2, 8208, Note_on_c, 0, 62, 75
2, 8253, Note_on_c, 0, 62, 0
2, 8304, Note_on_c, 0, 79, 75
2, 8319, Note_on_c, 0, 79, 0
2, 8320, Note_on_c, 0, 81, 75
2, 8335, Note_on_c, 0, 81, 0
2, 8336, Note_on_c, 0, 79, 75
2, 8351, Note_on_c, 0, 79, 0
2, 8352, Note_on_c, 0, 76, 75
2, 8372, Note_on_c, 0, 76, 0
2, 8448, Note_on_c, 0, 72, 75
2, 8463, Note_on_c, 0, 72, 0
2, 8464, Note_on_c, 0, 74, 75
2, 8479, Note_on_c, 0, 74, 0
2, 8480, Note_on_c, 0, 72, 75
2, 8496, Note_on_c, 0, 72, 0
2, 8496, Note_on_c, 0, 71, 75
2, 8516, Note_on_c, 0, 71, 0
2, 8592, Note_on_c, 0, 67, 75
2, 8637, Note_on_c, 0, 67, 0
2, 8640, Note_on_c, 0, 72, 75
2, 8663, Note_on_c, 0, 72, 0
2, 8664, Note_on_c, 0, 76, 75
2, 8687, Note_on_c, 0, 76, 0
2, 8688, Note_on_c, 0, 79, 75
2, 8711, Note_on_c, 0, 79, 0
2, 8712, Note_on_c, 0, 84, 75
2, 8735, Note_on_c, 0, 84, 0
2, 8736, Note_on_c, 0, 79, 75
2, 8759, Note_on_c, 0, 79, 0
2, 8760, Note_on_c, 0, 76, 75
2, 8783, Note_on_c, 0, 76, 0
2, 8784, Note_on_c, 0, 77, 75
2, 8796, Note_on_c, 0, 77, 0
2, 8796, Note_on_c, 0, 79, 75
2, 8808, Note_on_c, 0, 79, 0
2, 8808, Note_on_c, 0, 77, 75
2, 8829, Note_on_c, 0, 77, 0
2, 8832, Note_on_c, 0, 76, 75
2, 8877, Note_on_c, 0, 76, 0
2, 8880, Note_on_c, 0, 76, 75
2, 8903, Note_on_c, 0, 76, 0
2, 8904, Note_on_c, 0, 78, 75
2, 8927, Note_on_c, 0, 78, 0
2, 8928, Note_on_c, 0, 79, 75
2, 8951, Note_on_c, 0, 79, 0
2, 8952, Note_on_c, 0, 78, 75
2, 8975, Note_on_c, 0, 78, 0
2, 8976, Note_on_c, 0, 81, 75
2, 8999, Note_on_c, 0, 81, 0
2, 9000, Note_on_c, 0, 79, 75
2, 9023, Note_on_c, 0, 79, 0
2, 9024, Note_on_c, 0, 83, 75
2, 9072, Note_on_c, 0, 83, 0
2, 9072, Note_on_c, 0, 72, 75
2, 9092, Note_on_c, 0, 72, 0
2, 9168, Note_on_c, 0, 81, 75
2, 9216, Note_on_c, 0, 81, 0
2, 9216, Note_on_c, 0, 71, 75
2, 9236, Note_on_c, 0, 71, 0
2, 9312, Note_on_c, 0, 79, 75
2, 9360, Note_on_c, 0, 79, 0
2, 9360, Note_on_c, 0, 69, 70
2, 9383, Note_on_c, 0, 69, 0
2, 9384, Note_on_c, 0, 79, 70
2, 9407, Note_on_c, 0, 79, 0
2, 9408, Note_on_c, 0, 67, 70
2, 9431, Note_on_c, 0, 67, 0
2, 9432, Note_on_c, 0, 79, 71
2, 9455, Note_on_c, 0, 79, 0
2, 9456, Note_on_c, 0, 69, 71
2, 9479, Note_on_c, 0, 69, 0
2, 9480, Note_on_c, 0, 79, 71
2, 9503, Note_on_c, 0, 79, 0
2, 9504, Note_on_c, 0, 70, 72
2, 9527, Note_on_c, 0, 70, 0
2, 9528, Note_on_c, 0, 79, 72
2, 9551, Note_on_c, 0, 79, 0
2, 9552, Note_on_c, 0, 69, 72
2, 9575, Note_on_c, 0, 69, 0
2, 9576, Note_on_c, 0, 79, 73
2, 9599, Note_on_c, 0, 79, 0
2, 9600, Note_on_c, 0, 71, 73
2, 9623, Note_on_c, 0, 71, 0
2, 9624, Note_on_c, 0, 79, 73
2, 9647, Note_on_c, 0, 79, 0
2, 9648, Note_on_c, 0, 72, 74
2, 9671, Note_on_c, 0, 72, 0
2, 9672, Note_on_c, 0, 79, 74
2, 9695, Note_on_c, 0, 79, 0
2, 9696, Note_on_c, 0, 71, 74
2, 9719, Note_on_c, 0, 71, 0
2, 9720, Note_on_c, 0, 79, 75
2, 9743, Note_on_c, 0, 79, 0
2, 9744, Note_on_c, 0, 73, 75
2, 9767, Note_on_c, 0, 73, 0
2, 9768, Note_on_c, 0, 79, 75
2, 9791, Note_on_c, 0, 79, 0
2, 9792, Note_on_c, 0, 78, 76
2, 9815, Note_on_c, 0, 78, 0
2, 9816, Note_on_c, 0, 74, 76
2, 9839, Note_on_c, 0, 74, 0
2, 9840, Note_on_c, 0, 79, 76
2, 9863, Note_on_c, 0, 79, 0
2, 9864, Note_on_c, 0, 74, 77
2, 9887, Note_on_c, 0, 74, 0
2, 9888, Note_on_c, 0, 81, 77
2, 9911, Note_on_c, 0, 81, 0
2, 9912, Note_on_c, 0, 74, 77
2, 9935, Note_on_c, 0, 74, 0
2, 9936, Note_on_c, 0, 82, 78
2, 9959, Note_on_c, 0, 82, 0
2, 9960, Note_on_c, 0, 74, 78
2, 9983, Note_on_c, 0, 74, 0
2, 9984, Note_on_c, 0, 81, 78
2, 10007, Note_on_c, 0, 81, 0
2, 10008, Note_on_c, 0, 74, 79
2, 10031, Note_on_c, 0, 74, 0
2, 10032, Note_on_c, 0, 83, 79
2, 10055, Note_on_c, 0, 83, 0
2, 10056, Note_on_c, 0, 74, 79
2, 10079, Note_on_c, 0, 74, 0
2, 10080, Note_on_c, 0, 84, 80
2, 10103, Note_on_c, 0, 84, 0
2, 10104, Note_on_c, 0, 74, 80
2, 10127, Note_on_c, 0, 74, 0
2, 10128, Note_on_c, 0, 83, 80
2, 10151, Note_on_c, 0, 83, 0
2, 10152, Note_on_c, 0, 74, 80
2, 10175, Note_on_c, 0, 74, 0
2, 10176, Note_on_c, 0, 85, 80
2, 10199, Note_on_c, 0, 85, 0
2, 10200, Note_on_c, 0, 74, 80
2, 10223, Note_on_c, 0, 74, 0
2, 10224, Note_on_c, 0, 86, 80
2, 10247, Note_on_c, 0, 86, 0
2, 10248, Note_on_c, 0, 74, 80
2, 10271, Note_on_c, 0, 74, 0
2, 10272, Note_on_c, 0, 83, 80
2, 10295, Note_on_c, 0, 83, 0
2, 10296, Note_on_c, 0, 74, 80
2, 10319, Note_on_c, 0, 74, 0
2, 10320, Note_on_c, 0, 84, 80
2, 10343, Note_on_c, 0, 84, 0
2, 10344, Note_on_c, 0, 74, 80
2, 10367, Note_on_c, 0, 74, 0
2, 10368, Note_on_c, 0, 81, 80
2, 10391, Note_on_c, 0, 81, 0
2, 10392, Note_on_c, 0, 74, 79
2, 10415, Note_on_c, 0, 74, 0
2, 10416, Note_on_c, 0, 83, 78
2, 10439, Note_on_c, 0, 83, 0
2, 10440, Note_on_c, 0, 74, 77
2, 10463, Note_on_c, 0, 74, 0
2, 10464, Note_on_c, 0, 79, 76
2, 10487, Note_on_c, 0, 79, 0
2, 10488, Note_on_c, 0, 74, 75
2, 10511, Note_on_c, 0, 74, 0
2, 10512, Note_on_c, 0, 78, 75
2, 10557, Note_on_c, 0, 78, 0
2, 10656, Note_on_c, 0, 86, 75
2, 10656, Note_on_c, 0, 83, 75
2, 10704, Note_on_c, 0, 86, 0
2, 10704, Note_on_c, 0, 79, 75
2, 10724, Note_on_c, 0, 83, 0
2, 10724, Note_on_c, 0, 79, 0
2, 10800, Note_on_c, 0, 86, 75
2, 10800, Note_on_c, 0, 83, 75
2, 10848, Note_on_c, 0, 86, 0
2, 10848, Note_on_c, 0, 79, 75
2, 10868, Note_on_c, 0, 83, 0
2, 10868, Note_on_c, 0, 79, 0
2, 10896, Note_on_c, 0, 79, 75
2, 10911, Note_on_c, 0, 79, 0
2, 10912, Note_on_c, 0, 81, 75
2, 10927, Note_on_c, 0, 81, 0
2, 10928, Note_on_c, 0, 79, 75
2, 10943, Note_on_c, 0, 79, 0
2, 10944, Note_on_c, 0, 78, 75
2, 10964, Note_on_c, 0, 78, 0
2, 10992, Note_on_c, 0, 76, 75
2, 11007, Note_on_c, 0, 76, 0
2, 11008, Note_on_c, 0, 77, 75
2, 11023, Note_on_c, 0, 77, 0
2, 11024, Note_on_c, 0, 76, 75
2, 11039, Note_on_c, 0, 76, 0
2, 11040, Note_on_c, 0, 74, 75
2, 11060, Note_on_c, 0, 74, 0
2, 11088, Note_on_c, 0, 72, 75
2, 11100, Note_on_c, 0, 72, 0
2, 11100, Note_on_c, 0, 74, 75
2, 11112, Note_on_c, 0, 74, 0
2, 11112, Note_on_c, 0, 72, 75
2, 11133, Note_on_c, 0, 72, 0
2, 11136, Note_on_c, 0, 71, 75
2, 11181, Note_on_c, 0, 71, 0
2, 11184, Note_on_c, 0, 69, 75
2, 11196, Note_on_c, 0, 69, 0
2, 11196, Note_on_c, 0, 71, 75
2, 11208, Note_on_c, 0, 71, 0
2, 11208, Note_on_c, 0, 69, 75
2, 11229, Note_on_c, 0, 69, 0
2, 11232, Note_on_c, 0, 67, 75
2, 11277, Note_on_c, 0, 67, 0
2, 11328, Note_on_c, 0, 74, 75
2, 11373, Note_on_c, 0, 74, 0
2, 11376, Note_on_c, 0, 74, 75
2, 11388, Note_on_c, 0, 74, 0
2, 11388, Note_on_c, 0, 76, 75
2, 11400, Note_on_c, 0, 76, 0
2, 11400, Note_on_c, 0, 74, 75
2, 11421, Note_on_c, 0, 74, 0
2, 11424, Note_on_c, 0, 72, 75
2, 11469, Note_on_c, 0, 72, 0
2, 11472, Note_on_c, 0, 72, 75
2, 11517, Note_on_c, 0, 72, 0
2, 11520, Note_on_c, 0, 72, 75
2, 11532, Note_on_c, 0, 72, 0
2, 11532, Note_on_c, 0, 74, 75
2, 11544, Note_on_c, 0, 74, 0
2, 11544, Note_on_c, 0, 72, 75
2, 11565, Note_on_c, 0, 72, 0
2, 11568, Note_on_c, 0, 71, 75
2, 11613, Note_on_c, 0, 71, 0
2, 11616, Note_on_c, 0, 83, 75
2, 11661, Note_on_c, 0, 83, 0
2, 11664, Note_on_c, 0, 83, 75
2, 11735, Note_on_c, 0, 83, 0
2, 11736, Note_on_c, 0, 84, 75
2, 11759, Note_on_c, 0, 84, 0
2, 11760, Note_on_c, 0, 81, 75
2, 11783, Note_on_c, 0, 81, 0
2, 11784, Note_on_c, 0, 78, 75
2, 11807, Note_on_c, 0, 78, 0
2, 11808, Note_on_c, 0, 79, 75
2, 11853, Note_on_c, 0, 79, 0
2, 11904, Note_on_c, 0, 74, 70
2, 11949, Note_on_c, 0, 74, 0
2, 11952, Note_on_c, 0, 74, 70
2, 11964, Note_on_c, 0, 74, 0
2, 11964, Note_on_c, 0, 76, 70
2, 11976, Note_on_c, 0, 76, 0
2, 11976, Note_on_c, 0, 74, 70
2, 11997, Note_on_c, 0, 74, 0
2, 12000, Note_on_c, 0, 72, 70
2, 12045, Note_on_c, 0, 72, 0
2, 12048, Note_on_c, 0, 72, 70
2, 12093, Note_on_c, 0, 72, 0
2, 12096, Note_on_c, 0, 72, 70
2, 12108, Note_on_c, 0, 72, 0
2, 12108, Note_on_c, 0, 74, 70
2, 12120, Note_on_c, 0, 74, 0
2, 12120, Note_on_c, 0, 72, 70
2, 12141, Note_on_c, 0, 72, 0
2, 12144, Note_on_c, 0, 71, 70
2, 12189, Note_on_c, 0, 71, 0
2, 12192, Note_on_c, 0, 83, 70
2, 12237, Note_on_c, 0, 83, 0
2, 12240, Note_on_c, 0, 83, 70
2, 12311, Note_on_c, 0, 83, 0
2, 12312, Note_on_c, 0, 84, 70
2, 12335, Note_on_c, 0, 84, 0
2, 12336, Note_on_c, 0, 81, 70
2, 12359, Note_on_c, 0, 81, 0
2, 12360, Note_on_c, 0, 78, 70
2, 12383, Note_on_c, 0, 78, 0
2, 12384, Note_on_c, 0, 79, 70
2, 12429, Note_on_c, 0, 79, 0
2, 12528, Note_on_c, 0, 55, 80
2, 12551, Note_on_c, 0, 55, 0
2, 12552, Note_on_c, 0, 67, 80
2, 12575, Note_on_c, 0, 67, 0
2, 12576, Note_on_c, 0, 56, 80
2, 12599, Note_on_c, 0, 56, 0
2, 12600, Note_on_c, 0, 67, 80
2, 12623, Note_on_c, 0, 67, 0
2, 12624, Note_on_c, 0, 59, 80
2, 12647, Note_on_c, 0, 59, 0
2, 12648, Note_on_c, 0, 67, 80
2, 12671, Note_on_c, 0, 67, 0
2, 12672, Note_on_c, 0, 60, 80
2, 12695, Note_on_c, 0, 60, 0
2, 12696, Note_on_c, 0, 67, 80
2, 12719, Note_on_c, 0, 67, 0
2, 12720, Note_on_c, 0, 62, 80
2, 12743, Note_on_c, 0, 62, 0
2, 12744, Note_on_c, 0, 67, 80
2, 12767, Note_on_c, 0, 67, 0
2, 12768, Note_on_c, 0, 63, 80
2, 12791, Note_on_c, 0, 63, 0
2, 12792, Note_on_c, 0, 67, 80
2, 12815, Note_on_c, 0, 67, 0
2, 12816, Note_on_c, 0, 62, 80
2, 12839, Note_on_c, 0, 62, 0
2, 12840, Note_on_c, 0, 67, 80
2, 12863, Note_on_c, 0, 67, 0
2, 12864, Note_on_c, 0, 63, 80
2, 12887, Note_on_c, 0, 63, 0
2, 12888, Note_on_c, 0, 67, 80
2, 12911, Note_on_c, 0, 67, 0
2, 12912, Note_on_c, 0, 60, 80
2, 12935, Note_on_c, 0, 60, 0
2, 12936, Note_on_c, 0, 67, 80
2, 12959, Note_on_c, 0, 67, 0
2, 12984, Note_on_c, 0, 67, 80
2, 13007, Note_on_c, 0, 67, 0
2, 13032, Note_on_c, 0, 67, 80
2, 13055, Note_on_c, 0, 67, 0
2, 13080, Note_on_c, 0, 67, 80
2, 13103, Note_on_c, 0, 67, 0
2, 13128, Note_on_c, 0, 67, 80
2, 13151, Note_on_c, 0, 67, 0
2, 13176, Note_on_c, 0, 67, 80
2, 13199, Note_on_c, 0, 67, 0
2, 13224, Note_on_c, 0, 67, 80
2, 13247, Note_on_c, 0, 67, 0
2, 13272, Note_on_c, 0, 67, 80
2, 13295, Note_on_c, 0, 67, 0
2, 13320, Note_on_c, 0, 67, 80
2, 13343, Note_on_c, 0, 67, 0
2, 13368, Note_on_c, 0, 67, 80
2, 13391, Note_on_c, 0, 67, 0
2, 13416, Note_on_c, 0, 67, 80
2, 13439, Note_on_c, 0, 67, 0
2, 13464, Note_on_c, 0, 67, 80
2, 13487, Note_on_c, 0, 67, 0
2, 13512, Note_on_c, 0, 67, 80
2, 13535, Note_on_c, 0, 67, 0
2, 13536, Control_c, 0, 64, 127
2, 13560, Note_on_c, 0, 68, 80
2, 13583, Note_on_c, 0, 68, 0
2, 13584, Note_on_c, 0, 65, 80
2, 13607, Note_on_c, 0, 65, 0
2, 13608, Note_on_c, 0, 68, 80
2, 13631, Note_on_c, 0, 68, 0
2, 13632, Note_on_c, 0, 63, 80
2, 13655, Note_on_c, 0, 63, 0
2, 13656, Note_on_c, 0, 68, 80
2, 13679, Note_on_c, 0, 68, 0
2, 13680, Control_c, 0, 64, 0
2, 13680, Control_c, 0, 64, 127
2, 13680, Note_on_c, 0, 62, 80
2, 13703, Note_on_c, 0, 62, 0
2, 13704, Note_on_c, 0, 65, 80
2, 13727, Note_on_c, 0, 65, 0
2, 13728, Note_on_c, 0, 68, 80
2, 13751, Note_on_c, 0, 68, 0
2, 13752, Note_on_c, 0, 72, 80
2, 13775, Note_on_c, 0, 72, 0
2, 13776, Control_c, 0, 64, 0
2, 13776, Note_on_c, 0, 70, 80
2, 13799, Note_on_c, 0, 70, 0
2, 13800, Note_on_c, 0, 68, 80
2, 13823, Note_on_c, 0, 68, 0
2, 13824, Control_c, 0, 64, 0
2, 13824, Control_c, 0, 64, 127
2, 13848, Note_on_c, 0, 67, 80
2, 13871, Note_on_c, 0, 67, 0
2, 13872, Note_on_c, 0, 63, 80
2, 13895, Note_on_c, 0, 63, 0
2, 13896, Note_on_c, 0, 67, 80
2, 13919, Note_on_c, 0, 67, 0
2, 13920, Note_on_c, 0, 62, 80
2, 13943, Note_on_c, 0, 62, 0
2, 13944, Note_on_c, 0, 67, 80
2, 13967, Note_on_c, 0, 67, 0
2, 13968, Control_c, 0, 64, 0
2, 13968, Control_c, 0, 64, 127
2, 13968, Note_on_c, 0, 60, 80
2, 13991, Note_on_c, 0, 60, 0
2, 13992, Note_on_c, 0, 63, 80
2, 14015, Note_on_c, 0, 63, 0
2, 14016, Note_on_c, 0, 67, 80
2, 14039, Note_on_c, 0, 67, 0
2, 14040, Note_on_c, 0, 70, 80
2, 14063, Note_on_c, 0, 70, 0
2, 14064, Control_c, 0, 64, 0
2, 14064, Note_on_c, 0, 68, 80
2, 14087, Note_on_c, 0, 68, 0
2, 14088, Note_on_c, 0, 67, 80
2, 14111, Note_on_c, 0, 67, 0
2, 14112, Control_c, 0, 64, 0
2, 14112, Control_c, 0, 64, 127
2, 14136, Note_on_c, 0, 65, 80
2, 14159, Note_on_c, 0, 65, 0
2, 14160, Note_on_c, 0, 62, 80
2, 14183, Note_on_c, 0, 62, 0
2, 14184, Note_on_c, 0, 65, 80
2, 14207, Note_on_c, 0, 65, 0
2, 14208, Note_on_c, 0, 60, 80
2, 14231, Note_on_c, 0, 60, 0
2, 14232, Note_on_c, 0, 65, 80
2, 14255, Note_on_c, 0, 65, 0
2, 14256, Control_c, 0, 64, 0
2, 14256, Control_c, 0, 64, 127
2, 14256, Note_on_c, 0, 59, 80
2, 14279, Note_on_c, 0, 59, 0
2, 14280, Note_on_c, 0, 62, 80
2, 14303, Note_on_c, 0, 62, 0
2, 14304, Note_on_c, 0, 65, 80
2, 14327, Note_on_c, 0, 65, 0
2, 14328, Note_on_c, 0, 68, 80
2, 14351, Note_on_c, 0, 68, 0
2, 14352, Control_c, 0, 64, 0
2, 14352, Note_on_c, 0, 67, 80
2, 14375, Note_on_c, 0, 67, 0
2, 14376, Note_on_c, 0, 65, 80
2, 14399, Note_on_c, 0, 65, 0
2, 14400, Note_on_c, 0, 63, 80
2, 14423, Note_on_c, 0, 63, 0
2, 14424, Note_on_c, 0, 60, 80
2, 14447, Note_on_c, 0, 60, 0
2, 14448, Note_on_c, 0, 63, 80
2, 14471, Note_on_c, 0, 63, 0
2, 14472, Note_on_c, 0, 60, 80
2, 14495, Note_on_c, 0, 60, 0
2, 14496, Note_on_c, 0, 64, 80
2, 14519, Note_on_c, 0, 64, 0
2, 14520, Note_on_c, 0, 60, 80
2, 14543, Note_on_c, 0, 60, 0
2, 14544, Note_on_c, 0, 65, 80
2, 14567, Note_on_c, 0, 65, 0
2, 14568, Note_on_c, 0, 60, 80
2, 14591, Note_on_c, 0, 60, 0
2, 14592, Note_on_c, 0, 65, 80
2, 14615, Note_on_c, 0, 65, 0
2, 14616, Note_on_c, 0, 60, 80
2, 14639, Note_on_c, 0, 60, 0
2, 14640, Note_on_c, 0, 66, 80
2, 14663, Note_on_c, 0, 66, 0
2, 14664, Note_on_c, 0, 60, 80
2, 14687, Note_on_c, 0, 60, 0
2, 14688, Control_c, 0, 64, 127
2, 14712, Note_on_c, 0, 59, 80
2, 14735, Note_on_c, 0, 59, 0
2, 14736, Note_on_c, 0, 62, 80
2, 14759, Note_on_c, 0, 62, 0
2, 14760, Note_on_c, 0, 59, 80
2, 14783, Note_on_c, 0, 59, 0
2, 14784, Note_on_c, 0, 67, 80
2, 14807, Note_on_c, 0, 67, 0
2, 14808, Note_on_c, 0, 59, 80
2, 14831, Note_on_c, 0, 59, 0
2, 14856, Note_on_c, 0, 59, 80
2, 14879, Note_on_c, 0, 59, 0
2, 14880, Note_on_c, 0, 62, 80
2, 14903, Note_on_c, 0, 62, 0
2, 14904, Note_on_c, 0, 59, 80
2, 14927, Note_on_c, 0, 59, 0
2, 14928, Control_c, 0, 64, 127
2, 14928, Note_on_c, 0, 68, 80
2, 14951, Note_on_c, 0, 68, 0
2, 14952, Note_on_c, 0, 59, 80
2, 14975, Note_on_c, 0, 59, 0
2, 15000, Note_on_c, 0, 59, 80
2, 15023, Note_on_c, 0, 59, 0
2, 15024, Note_on_c, 0, 62, 80
2, 15047, Note_on_c, 0, 62, 0
2, 15048, Note_on_c, 0, 59, 80
2, 15071, Note_on_c, 0, 59, 0
2, 15072, Note_on_c, 0, 68, 80
2, 15095, Note_on_c, 0, 68, 0
2, 15096, Control_c, 0, 64, 127
2, 15096, Note_on_c, 0, 59, 80
2, 15397, Note_on_c, 0, 59, 0
2, 15456, Control_c, 0, 64, 0
2, 15504, Note_on_c, 0, 76, 75
2, 15552, Note_on_c, 0, 76, 0
2, 15552, Note_on_c, 0, 72, 75
2, 15572, Note_on_c, 0, 72, 0
2, 15648, Note_on_c, 0, 69, 75
2, 15696, Note_on_c, 0, 69, 0
2, 15696, Note_on_c, 0, 68, 75
2, 15716, Note_on_c, 0, 68, 0
2, 15792, Note_on_c, 0, 64, 75
2, 15837, Note_on_c, 0, 64, 0
2, 15840, Note_on_c, 0, 69, 75
2, 15863, Note_on_c, 0, 69, 0
2, 15864, Note_on_c, 0, 72, 75
2, 15887, Note_on_c, 0, 72, 0
2, 15888, Note_on_c, 0, 76, 75
2, 15911, Note_on_c, 0, 76, 0
2, 15912, Note_on_c, 0, 81, 75
2, 15935, Note_on_c, 0, 81, 0
2, 15936, Note_on_c, 0, 76, 75
2, 15959, Note_on_c, 0, 76, 0
2, 15960, Note_on_c, 0, 72, 75
2, 15983, Note_on_c, 0, 72, 0
2, 15984, Note_on_c, 0, 74, 75
2, 15996, Note_on_c, 0, 74, 0
2, 15996, Note_on_c, 0, 76, 75
2, 16008, Note_on_c, 0, 76, 0
2, 16008, Note_on_c, 0, 74, 75
2, 16029, Note_on_c, 0, 74, 0
2, 16032, Note_on_c, 0, 72, 75
2, 16077, Note_on_c, 0, 72, 0
2, 16224, Note_on_c, 0, 84, 70
2, 16239, Note_on_c, 0, 84, 0
2, 16240, Note_on_c, 0, 86, 70
2, 16255, Note_on_c, 0, 86, 0
2, 16256, Note_on_c, 0, 84, 70
2, 16272, Note_on_c, 0, 84, 0
2, 16272, Note_on_c, 0, 81, 70
2, 16292, Note_on_c, 0, 81, 0
2, 16368, Note_on_c, 0, 77, 70
2, 16383, Note_on_c, 0, 77, 0
2, 16384, Note_on_c, 0, 79, 70
2, 16399, Note_on_c, 0, 79, 0
2, 16400, Note_on_c, 0, 77, 70
2, 16416, Note_on_c, 0, 77, 0
2, 16416, Note_on_c, 0, 76, 70
2, 16436, Note_on_c, 0, 76, 0
2, 16512, Note_on_c, 0, 72, 70
2, 16557, Note_on_c, 0, 72, 0
2, 16560, Note_on_c, 0, 77, 70
2, 16583, Note_on_c, 0, 77, 0
2, 16584, Note_on_c, 0, 81, 70
2, 16607, Note_on_c, 0, 81, 0
2, 16608, Note_on_c, 0, 84, 70
2, 16631, Note_on_c, 0, 84, 0
2, 16632, Note_on_c, 0, 89, 70
2, 16655, Note_on_c, 0, 89, 0
2, 16656, Note_on_c, 0, 84, 70
2, 16679, Note_on_c, 0, 84, 0
2, 16680, Note_on_c, 0, 81, 70
2, 16703, Note_on_c, 0, 81, 0
2, 16704, Note_on_c, 0, 82, 70
2, 16716, Note_on_c, 0, 82, 0
2, 16716, Note_on_c, 0, 84, 70
2, 16728, Note_on_c, 0, 84, 0
2, 16728, Note_on_c, 0, 82, 70
2, 16749, Note_on_c, 0, 82, 0
2, 16752, Note_on_c, 0, 81, 70
2, 16797, Note_on_c, 0, 81, 0
2, 16800, Note_on_c, 0, 81, 75
2, 16845, Note_on_c, 0, 81, 0
2, 16848, Note_on_c, 0, 81, 75
2, 16860, Note_on_c, 0, 81, 0
2, 16860, Note_on_c, 0, 82, 75
2, 16872, Note_on_c, 0, 82, 0
2, 16872, Note_on_c, 0, 81, 75
2, 16893, Note_on_c, 0, 81, 0
2, 16896, Note_on_c, 0, 79, 75
2, 16941, Note_on_c, 0, 79, 0
2, 16944, Note_on_c, 0, 79, 75
2, 16989, Note_on_c, 0, 79, 0
2, 16992, Note_on_c, 0, 79, 75
2, 17004, Note_on_c, 0, 79, 0
2, 17004, Note_on_c, 0, 81, 75
2, 17016, Note_on_c, 0, 81, 0
2, 17016, Note_on_c, 0, 79, 75
2, 17037, Note_on_c, 0, 79, 0
2, 17040, Note_on_c, 0, 77, 75
2, 17085, Note_on_c, 0, 77, 0
2, 17088, Note_on_c, 0, 81, 75
2, 17133, Note_on_c, 0, 81, 0
2, 17136, Note_on_c, 0, 81, 75
2, 17148, Note_on_c, 0, 81, 0
2, 17148, Note_on_c, 0, 83, 75
2, 17160, Note_on_c, 0, 83, 0
2, 17160, Note_on_c, 0, 81, 75
2, 17181, Note_on_c, 0, 81, 0
2, 17184, Note_on_c, 0, 79, 75
2, 17229, Note_on_c, 0, 79, 0
2, 17232, Note_on_c, 0, 77, 75
2, 17277, Note_on_c, 0, 77, 0
2, 17280, Note_on_c, 0, 77, 75
2, 17292, Note_on_c, 0, 77, 0
2, 17292, Note_on_c, 0, 79, 75
2, 17304, Note_on_c, 0, 79, 0
2, 17304, Note_on_c, 0, 77, 75
2, 17325, Note_on_c, 0, 77, 0
2, 17328, Note_on_c, 0, 76, 75
2, 17373, Note_on_c, 0, 76, 0
2, 17376, Note_on_c, 0, 79, 75
2, 17424, Note_on_c, 0, 79, 0
2, 17424, Note_on_c, 0, 76, 75
2, 17444, Note_on_c, 0, 76, 0
2, 17520, Note_on_c, 0, 72, 75
2, 17568, Note_on_c, 0, 72, 0
2, 17568, Note_on_c, 0, 71, 75
2, 17588, Note_on_c, 0, 71, 0
2, 17664, Note_on_c, 0, 67, 75
2, 17709, Note_on_c, 0, 67, 0
2, 17712, Note_on_c, 0, 72, 75
2, 17735, Note_on_c, 0, 72, 0
2, 17736, Note_on_c, 0, 76, 75
2, 17759, Note_on_c, 0, 76, 0
2, 17760, Note_on_c, 0, 79, 75
2, 17783, Note_on_c, 0, 79, 0
2, 17784, Note_on_c, 0, 84, 75
2, 17807, Note_on_c, 0, 84, 0
2, 17808, Note_on_c, 0, 79, 75
2, 17831, Note_on_c, 0, 79, 0
2, 17832, Note_on_c, 0, 76, 75
2, 17855, Note_on_c, 0, 76, 0
2, 17856, Note_on_c, 0, 77, 75
2, 17868, Note_on_c, 0, 77, 0
2, 17868, Note_on_c, 0, 79, 75
2, 17880, Note_on_c, 0, 79, 0
2, 17880, Note_on_c, 0, 77, 75
2, 17901, Note_on_c, 0, 77, 0
2, 17904, Note_on_c, 0, 76, 75
2, 17949, Note_on_c, 0, 76, 0
2, 17952, Note_on_c, 0, 79, 75
2, 17967, Note_on_c, 0, 79, 0
2, 17968, Note_on_c, 0, 81, 75
2, 17983, Note_on_c, 0, 81, 0
2, 17984, Note_on_c, 0, 79, 75
2, 18000, Note_on_c, 0, 79, 0
2, 18000, Note_on_c, 0, 76, 75
2, 18020, Note_on_c, 0, 76, 0
2, 18096, Note_on_c, 0, 72, 75
2, 18111, Note_on_c, 0, 72, 0
2, 18112, Note_on_c, 0, 74, 75
2, 18127, Note_on_c, 0, 74, 0
2, 18128, Note_on_c, 0, 72, 75
2, 18144, Note_on_c, 0, 72, 0
2, 18144, Note_on_c, 0, 71, 75
2, 18164, Note_on_c, 0, 71, 0
2, 18240, Note_on_c, 0, 67, 75
2, 18285, Note_on_c, 0, 67, 0
2, 18288, Note_on_c, 0, 71, 75
2, 18311, Note_on_c, 0, 71, 0
2, 18312, Note_on_c, 0, 72, 75
2, 18335, Note_on_c, 0, 72, 0
2, 18336, Note_on_c, 0, 76, 75
2, 18359, Note_on_c, 0, 76, 0
2, 18360, Note_on_c, 0, 72, 75
2, 18383, Note_on_c, 0, 72, 0
2, 18384, Note_on_c, 0, 67, 75
2, 18407, Note_on_c, 0, 67, 0
2, 18408, Note_on_c, 0, 64, 75
2, 18431, Note_on_c, 0, 64, 0
2, 18432, Note_on_c, 0, 65, 75
2, 18444, Note_on_c, 0, 65, 0
2, 18444, Note_on_c, 0, 67, 75
2, 18456, Note_on_c, 0, 67, 0
2, 18456, Note_on_c, 0, 65, 75
2, 18477, Note_on_c, 0, 65, 0
2, 18480, Note_on_c, 0, 64, 75
2, 18525, Note_on_c, 0, 64, 0
2, 18528, Note_on_c, 0, 60, 75
2, 18573, Note_on_c, 0, 60, 0
2, 18576, Note_on_c, 0, 65, 75
2, 18599, Note_on_c, 0, 65, 0
2, 18600, Note_on_c, 0, 60, 75
2, 18623, Note_on_c, 0, 60, 0
2, 18624, Note_on_c, 0, 64, 75
2, 18647, Note_on_c, 0, 64, 0
2, 18648, Note_on_c, 0, 60, 75
2, 18671, Note_on_c, 0, 60, 0
2, 18672, Note_on_c, 0, 69, 75
2, 18695, Note_on_c, 0, 69, 0
2, 18696, Note_on_c, 0, 60, 75
2, 18719, Note_on_c, 0, 60, 0
2, 18720, Note_on_c, 0, 67, 76
2, 18743, Note_on_c, 0, 67, 0
2, 18744, Note_on_c, 0, 60, 76
2, 18767, Note_on_c, 0, 60, 0
2, 18768, Note_on_c, 0, 65, 76
2, 18791, Note_on_c, 0, 65, 0
2, 18792, Note_on_c, 0, 60, 76
2, 18815, Note_on_c, 0, 60, 0
2, 18816, Note_on_c, 0, 64, 76
2, 18839, Note_on_c, 0, 64, 0
2, 18840, Note_on_c, 0, 60, 77
2, 18863, Note_on_c, 0, 60, 0
2, 18864, Note_on_c, 0, 65, 77
2, 18887, Note_on_c, 0, 65, 0
2, 18888, Note_on_c, 0, 60, 77
2, 18911, Note_on_c, 0, 60, 0
2, 18912, Note_on_c, 0, 64, 77
2, 18935, Note_on_c, 0, 64, 0
2, 18936, Note_on_c, 0, 60, 77
2, 18959, Note_on_c, 0, 60, 0
2, 18960, Note_on_c, 0, 69, 78
2, 18983, Note_on_c, 0, 69, 0
2, 18984, Note_on_c, 0, 60, 78
2, 19007, Note_on_c, 0, 60, 0
2, 19008, Note_on_c, 0, 67, 78
2, 19031, Note_on_c, 0, 67, 0
2, 19032, Note_on_c, 0, 60, 78
2, 19055, Note_on_c, 0, 60, 0
2, 19056, Note_on_c, 0, 71, 78
2, 19079, Note_on_c, 0, 71, 0
2, 19080, Note_on_c, 0, 60, 79
2, 19103, Note_on_c, 0, 60, 0
2, 19104, Note_on_c, 0, 72, 79
2, 19127, Note_on_c, 0, 72, 0
2, 19128, Note_on_c, 0, 60, 79
2, 19151, Note_on_c, 0, 60, 0
2, 19152, Note_on_c, 0, 74, 79
2, 19197, Note_on_c, 0, 74, 0
2, 19200, Note_on_c, 0, 65, 80
2, 19245, Note_on_c, 0, 65, 0
2, 19248, Note_on_c, 0, 65, 80
2, 19260, Note_on_c, 0, 65, 0
2, 19260, Note_on_c, 0, 64, 80
2, 19272, Note_on_c, 0, 64, 0
2, 19272, Note_on_c, 0, 62, 80
2, 19284, Note_on_c, 0, 62, 0
2, 19284, Note_on_c, 0, 64, 80
2, 19296, Note_on_c, 0, 64, 0
2, 19296, Note_on_c, 0, 62, 80
2, 19341, Note_on_c, 0, 62, 0
2, 19392, Note_on_c, 0, 69, 64
2, 19415, Note_on_c, 0, 69, 0
2, 19416, Note_on_c, 0, 71, 64
2, 19439, Note_on_c, 0, 71, 0
2, 19440, Note_on_c, 0, 72, 64
2, 19463, Note_on_c, 0, 72, 0
2, 19464, Note_on_c, 0, 71, 64
2, 19487, Note_on_c, 0, 71, 0
2, 19488, Note_on_c, 0, 74, 64
2, 19511, Note_on_c, 0, 74, 0
2, 19512, Note_on_c, 0, 72, 64
2, 19535, Note_on_c, 0, 72, 0
2, 19536, Note_on_c, 0, 76, 64
2, 19584, Note_on_c, 0, 76, 0
2, 19584, Note_on_c, 0, 65, 64
2, 19604, Note_on_c, 0, 65, 0
2, 19680, Note_on_c, 0, 74, 64
2, 19728, Note_on_c, 0, 74, 0
2, 19728, Note_on_c, 0, 64, 64
2, 19748, Note_on_c, 0, 64, 0
2, 19824, Note_on_c, 0, 72, 64
2, 19872, Note_on_c, 0, 72, 0
2, 19872, Note_on_c, 0, 62, 64
2, 19895, Note_on_c, 0, 62, 0
2, 19896, Note_on_c, 0, 72, 70
2, 19919, Note_on_c, 0, 72, 0
2, 19920, Note_on_c, 0, 60, 70
2, 19943, Note_on_c, 0, 60, 0
2, 19944, Note_on_c, 0, 72, 70
2, 19967, Note_on_c, 0, 72, 0
2, 19968, Note_on_c, 0, 62, 71
2, 19991, Note_on_c, 0, 62, 0
2, 19992, Note_on_c, 0, 72, 71
2, 20015, Note_on_c, 0, 72, 0
2, 20016, Note_on_c, 0, 63, 72
2, 20039, Note_on_c, 0, 63, 0
2, 20040, Note_on_c, 0, 72, 72
2, 20063, Note_on_c, 0, 72, 0
2, 20064, Note_on_c, 0, 62, 73
2, 20087, Note_on_c, 0, 62, 0
2, 20088, Note_on_c, 0, 72, 73
2, 20111, Note_on_c, 0, 72, 0
2, 20112, Note_on_c, 0, 64, 73
2, 20135, Note_on_c, 0, 64, 0
2, 20136, Note_on_c, 0, 72, 74
2, 20159, Note_on_c, 0, 72, 0
2, 20160, Note_on_c, 0, 65, 74
2, 20183, Note_on_c, 0, 65, 0
2, 20184, Note_on_c, 0, 72, 75
2, 20207, Note_on_c, 0, 72, 0
2, 20208, Note_on_c, 0, 64, 75
2, 20231, Note_on_c, 0, 64, 0
2, 20232, Note_on_c, 0, 72, 76
2, 20255, Note_on_c, 0, 72, 0
2, 20256, Note_on_c, 0, 66, 76
2, 20279, Note_on_c, 0, 66, 0
2, 20280, Note_on_c, 0, 72, 76
2, 20303, Note_on_c, 0, 72, 0
2, 20304, Note_on_c, 0, 71, 77
2, 20327, Note_on_c, 0, 71, 0
2, 20328, Note_on_c, 0, 67, 77
2, 20351, Note_on_c, 0, 67, 0
2, 20352, Note_on_c, 0, 72, 78
2, 20375, Note_on_c, 0, 72, 0
2, 20376, Note_on_c, 0, 67, 78
2, 20399, Note_on_c, 0, 67, 0
2, 20400, Note_on_c, 0, 74, 79
2, 20423, Note_on_c, 0, 74, 0
2, 20424, Note_on_c, 0, 67, 79
2, 20447, Note_on_c, 0, 67, 0
2, 20448, Note_on_c, 0, 75, 80
2, 20471, Note_on_c, 0, 75, 0
2, 20472, Note_on_c, 0, 67, 79
2, 20495, Note_on_c, 0, 67, 0
2, 20496, Note_on_c, 0, 74, 79
2, 20519, Note_on_c, 0, 74, 0
2, 20520, Note_on_c, 0, 67, 79
2, 20543, Note_on_c, 0, 67, 0
2, 20544, Note_on_c, 0, 76, 79
2, 20567, Note_on_c, 0, 76, 0
2, 20568, Note_on_c, 0, 67, 79
2, 20591, Note_on_c, 0, 67, 0
2, 20592, Note_on_c, 0, 77, 78
2, 20615, Note_on_c, 0, 77, 0
2, 20616, Note_on_c, 0, 67, 78
2, 20639, Note_on_c, 0, 67, 0
2, 20640, Note_on_c, 0, 76, 78
2, 20663, Note_on_c, 0, 76, 0
2, 20664, Note_on_c, 0, 67, 78
2, 20687, Note_on_c, 0, 67, 0
2, 20688, Note_on_c, 0, 78, 78
2, 20711, Note_on_c, 0, 78, 0
2, 20712, Note_on_c, 0, 67, 77
2, 20735, Note_on_c, 0, 67, 0
2, 20736, Note_on_c, 0, 79, 77
2, 20759, Note_on_c, 0, 79, 0
2, 20760, Note_on_c, 0, 67, 77
2, 20783, Note_on_c, 0, 67, 0
2, 20784, Note_on_c, 0, 76, 77
2, 20807, Note_on_c, 0, 76, 0
2, 20808, Note_on_c, 0, 67, 77
2, 20831, Note_on_c, 0, 67, 0
2, 20832, Note_on_c, 0, 77, 76
2, 20855, Note_on_c, 0, 77, 0
2, 20856, Note_on_c, 0, 67, 76
2, 20879, Note_on_c, 0, 67, 0
2, 20880, Note_on_c, 0, 74, 76
2, 20903, Note_on_c, 0, 74, 0
2, 20904, Note_on_c, 0, 67, 76
2, 20927, Note_on_c, 0, 67, 0
2, 20928, Note_on_c, 0, 76, 76
2, 20951, Note_on_c, 0, 76, 0
2, 20952, Note_on_c, 0, 67, 75
2, 20975, Note_on_c, 0, 67, 0
2, 20976, Note_on_c, 0, 72, 75
2, 20999, Note_on_c, 0, 72, 0
2, 21000, Note_on_c, 0, 67, 75
2, 21023, Note_on_c, 0, 67, 0
2, 21024, Note_on_c, 0, 71, 75
2, 21069, Note_on_c, 0, 71, 0
2, 21168, Note_on_c, 0, 79, 75
2, 21168, Note_on_c, 0, 76, 75
2, 21216, Note_on_c, 0, 79, 0
2, 21216, Note_on_c, 0, 72, 75
2, 21236, Note_on_c, 0, 76, 0
2, 21236, Note_on_c, 0, 72, 0
2, 21312, Note_on_c, 0, 79, 75
2, 21312, Note_on_c, 0, 76, 75
2, 21360, Note_on_c, 0, 79, 0
2, 21360, Note_on_c, 0, 72, 75
2, 21380, Note_on_c, 0, 76, 0
2, 21380, Note_on_c, 0, 72, 0
2, 21408, Note_on_c, 0, 72, 75
2, 21423, Note_on_c, 0, 72, 0
2, 21424, Note_on_c, 0, 74, 75
2, 21439, Note_on_c, 0, 74, 0
2, 21440, Note_on_c, 0, 72, 75
2, 21455, Note_on_c, 0, 72, 0
2, 21456, Note_on_c, 0, 71, 75
2, 21476, Note_on_c, 0, 71, 0
2, 21504, Note_on_c, 0, 69, 75
2, 21519, Note_on_c, 0, 69, 0
2, 21520, Note_on_c, 0, 71, 75
2, 21535, Note_on_c, 0, 71, 0
2, 21536, Note_on_c, 0, 69, 75
2, 21551, Note_on_c, 0, 69, 0
2, 21552, Note_on_c, 0, 67, 75
2, 21572, Note_on_c, 0, 67, 0
2, 21600, Note_on_c, 0, 65, 75
2, 21612, Note_on_c, 0, 65, 0
2, 21612, Note_on_c, 0, 67, 75
2, 21624, Note_on_c, 0, 67, 0
2, 21624, Note_on_c, 0, 65, 75
2, 21645, Note_on_c, 0, 65, 0
2, 21648, Note_on_c, 0, 64, 75
2, 21693, Note_on_c, 0, 64, 0
2, 21696, Note_on_c, 0, 62, 75
2, 21708, Note_on_c, 0, 62, 0
2, 21708, Note_on_c, 0, 64, 75
2, 21720, Note_on_c, 0, 64, 0
2, 21720, Note_on_c, 0, 62, 75
2, 21741, Note_on_c, 0, 62, 0
2, 21744, Note_on_c, 0, 60, 75
2, 21789, Note_on_c, 0, 60, 0
2, 21888, Note_on_c, 0, 79, 75
2, 21888, Note_on_c, 0, 76, 75
2, 21936, Note_on_c, 0, 79, 0
2, 21936, Note_on_c, 0, 72, 75
2, 21956, Note_on_c, 0, 76, 0
2, 21956, Note_on_c, 0, 72, 0
2, 22032, Note_on_c, 0, 88, 75
2, 22032, Note_on_c, 0, 84, 75
2, 22080, Note_on_c, 0, 88, 0
2, 22080, Note_on_c, 0, 84, 0
2, 22080, Note_on_c, 0, 76, 75
2, 22100, Note_on_c, 0, 76, 0
2, 22128, Note_on_c, 0, 72, 75
2, 22143, Note_on_c, 0, 72, 0
2, 22144, Note_on_c, 0, 74, 75
2, 22159, Note_on_c, 0, 74, 0
2, 22160, Note_on_c, 0, 72, 75
2, 22175, Note_on_c, 0, 72, 0
2, 22176, Note_on_c, 0, 71, 75
2, 22196, Note_on_c, 0, 71, 0
2, 22224, Note_on_c, 0, 69, 75
2, 22239, Note_on_c, 0, 69, 0
2, 22240, Note_on_c, 0, 71, 75
2, 22255, Note_on_c, 0, 71, 0
2, 22256, Note_on_c, 0, 69, 75
2, 22271, Note_on_c, 0, 69, 0
2, 22272, Note_on_c, 0, 67, 75
2, 22292, Note_on_c, 0, 67, 0
2, 22320, Note_on_c, 0, 65, 75
2, 22332, Note_on_c, 0, 65, 0
2, 22332, Note_on_c, 0, 67, 75
2, 22344, Note_on_c, 0, 67, 0
2, 22344, Note_on_c, 0, 65, 75
2, 22365, Note_on_c, 0, 65, 0
2, 22368, Note_on_c, 0, 64, 75
2, 22413, Note_on_c, 0, 64, 0
2, 22416, Note_on_c, 0, 62, 75
2, 22428, Note_on_c, 0, 62, 0
2, 22428, Note_on_c, 0, 64, 75
2, 22440, Note_on_c, 0, 64, 0
2, 22440, Note_on_c, 0, 62, 75
2, 22461, Note_on_c, 0, 62, 0
2, 22464, Note_on_c, 0, 60, 75
2, 22509, Note_on_c, 0, 60, 0
2, 22560, Note_on_c, 0, 67, 75
2, 22605, Note_on_c, 0, 67, 0
2, 22608, Note_on_c, 0, 67, 75
2, 22620, Note_on_c, 0, 67, 0
2, 22620, Note_on_c, 0, 69, 75
2, 22632, Note_on_c, 0, 69, 0
2, 22632, Note_on_c, 0, 67, 75
2, 22653, Note_on_c, 0, 67, 0
2, 22656, Note_on_c, 0, 65, 75
2, 22701, Note_on_c, 0, 65, 0
2, 22704, Note_on_c, 0, 65, 75
2, 22749, Note_on_c, 0, 65, 0
2, 22752, Note_on_c, 0, 65, 75
2, 22764, Note_on_c, 0, 65, 0
2, 22764, Note_on_c, 0, 67, 75
2, 22776, Note_on_c, 0, 67, 0
2, 22776, Note_on_c, 0, 65, 75
2, 22797, Note_on_c, 0, 65, 0
2, 22800, Note_on_c, 0, 64, 75
2, 22845, Note_on_c, 0, 64, 0
2, 22848, Note_on_c, 0, 76, 75
2, 22893, Note_on_c, 0, 76, 0
2, 22896, Note_on_c, 0, 76, 75
2, 22967, Note_on_c, 0, 76, 0
2, 22968, Note_on_c, 0, 77, 75
2, 22991, Note_on_c, 0, 77, 0
2, 22992, Note_on_c, 0, 74, 75
2, 23015, Note_on_c, 0, 74, 0
2, 23016, Note_on_c, 0, 71, 75
2, 23039, Note_on_c, 0, 71, 0
2, 23040, Note_on_c, 0, 72, 75
2, 23085, Note_on_c, 0, 72, 0
2, 23136, Note_on_c, 0, 88, 70
2, 23159, Note_on_c, 0, 88, 0
2, 23160, Note_on_c, 0, 79, 70
2, 23183, Note_on_c, 0, 79, 0
2, 23184, Note_on_c, 0, 79, 70
2, 23196, Note_on_c, 0, 79, 0
2, 23196, Note_on_c, 0, 81, 70
2, 23208, Note_on_c, 0, 81, 0
2, 23208, Note_on_c, 0, 79, 70
2, 23229, Note_on_c, 0, 79, 0
2, 23232, Note_on_c, 0, 77, 70
2, 23277, Note_on_c, 0, 77, 0
2, 23280, Note_on_c, 0, 86, 70
2, 23303, Note_on_c, 0, 86, 0
2, 23304, Note_on_c, 0, 77, 70
2, 23327, Note_on_c, 0, 77, 0
2, 23328, Note_on_c, 0, 77, 70
2, 23340, Note_on_c, 0, 77, 0
2, 23340, Note_on_c, 0, 79, 70
2, 23352, Note_on_c, 0, 79, 0
2, 23352, Note_on_c, 0, 77, 70
2, 23373, Note_on_c, 0, 77, 0
2, 23376, Note_on_c, 0, 76, 70
2, 23421, Note_on_c, 0, 76, 0
2, 23424, Note_on_c, 0, 76, 70
2, 23469, Note_on_c, 0, 76, 0
2, 23472, Note_on_c, 0, 76, 70
2, 23543, Note_on_c, 0, 76, 0
2, 23544, Note_on_c, 0, 77, 70
2, 23567, Note_on_c, 0, 77, 0
2, 23568, Note_on_c, 0, 74, 70
2, 23591, Note_on_c, 0, 74, 0
2, 23592, Note_on_c, 0, 71, 70
2, 23615, Note_on_c, 0, 71, 0
2, 23616, Note_on_c, 0, 72, 70
2, 23661, Note_on_c, 0, 72, 0
2, 23760, Note_on_c, 0, 55, 80
2, 23783, Note_on_c, 0, 55, 0
2, 23784, Note_on_c, 0, 67, 80
2, 23807, Note_on_c, 0, 67, 0
2, 23808, Note_on_c, 0, 56, 80
2, 23831, Note_on_c, 0, 56, 0
2, 23832, Note_on_c, 0, 67, 80
2, 23855, Note_on_c, 0, 67, 0
2, 23856, Note_on_c, 0, 59, 80
2, 23879, Note_on_c, 0, 59, 0
2, 23880, Note_on_c, 0, 67, 80
2, 23903, Note_on_c, 0, 67, 0
2, 23904, Note_on_c, 0, 60, 80
2, 23927, Note_on_c, 0, 60, 0
2, 23928, Note_on_c, 0, 67, 80
2, 23951, Note_on_c, 0, 67, 0
2, 23952, Note_on_c, 0, 62, 80
2, 23975, Note_on_c, 0, 62, 0
2, 23976, Note_on_c, 0, 67, 80
2, 23999, Note_on_c, 0, 67, 0
2, 24000, Note_on_c, 0, 63, 80
2, 24023, Note_on_c, 0, 63, 0
2, 24024, Note_on_c, 0, 67, 80
2, 24047, Note_on_c, 0, 67, 0
2, 24048, Note_on_c, 0, 62, 80
2, 24071, Note_on_c, 0, 62, 0
2, 24072, Note_on_c, 0, 67, 80
2, 24095, Note_on_c, 0, 67, 0
2, 24096, Note_on_c, 0, 63, 80
2, 24119, Note_on_c, 0, 63, 0
2, 24120, Note_on_c, 0, 67, 80
2, 24143, Note_on_c, 0, 67, 0
2, 24144, Note_on_c, 0, 60, 80
2, 24167, Note_on_c, 0, 60, 0
2, 24168, Note_on_c, 0, 67, 80
2, 24191, Note_on_c, 0, 67, 0
2, 24216, Note_on_c, 0, 67, 80
2, 24239, Note_on_c, 0, 67, 0
2, 24264, Note_on_c, 0, 67, 80
2, 24287, Note_on_c, 0, 67, 0
2, 24312, Note_on_c, 0, 67, 80
2, 24335, Note_on_c, 0, 67, 0
2, 24360, Note_on_c, 0, 67, 80
2, 24383, Note_on_c, 0, 67, 0
2, 24408, Note_on_c, 0, 67, 80
2, 24431, Note_on_c, 0, 67, 0
2, 24456, Note_on_c, 0, 67, 80
2, 24479, Note_on_c, 0, 67, 0
2, 24504, Note_on_c, 0, 67, 80
2, 24527, Note_on_c, 0, 67, 0
2, 24552, Note_on_c, 0, 67, 80
2, 24575, Note_on_c, 0, 67, 0
2, 24600, Note_on_c, 0, 67, 80
2, 24623, Note_on_c, 0, 67, 0
2, 24648, Note_on_c, 0, 67, 80
2, 24671, Note_on_c, 0, 67, 0
2, 24696, Note_on_c, 0, 67, 80
2, 24719, Note_on_c, 0, 67, 0
2, 24744, Note_on_c, 0, 67, 80
2, 24767, Note_on_c, 0, 67, 0
2, 24768, Control_c, 0, 64, 127
2, 24792, Note_on_c, 0, 68, 80
2, 24815, Note_on_c, 0, 68, 0
2, 24816, Note_on_c, 0, 65, 80
2, 24839, Note_on_c, 0, 65, 0
2, 24840, Note_on_c, 0, 68, 80
2, 24863, Note_on_c, 0, 68, 0
2, 24864, Note_on_c, 0, 63, 80
2, 24887, Note_on_c, 0, 63, 0
2, 24888, Note_on_c, 0, 68, 80
2, 24911, Note_on_c, 0, 68, 0
2, 24912, Control_c, 0, 64, 0
2, 24912, Control_c, 0, 64, 127
2, 24912, Note_on_c, 0, 62, 80
2, 24935, Note_on_c, 0, 62, 0
2, 24936, Note_on_c, 0, 65, 80
2, 24959, Note_on_c, 0, 65, 0
2, 24960, Note_on_c, 0, 68, 80
2, 24983, Note_on_c, 0, 68, 0
2, 24984, Note_on_c, 0, 72, 80
2, 25007, Note_on_c, 0, 72, 0
2, 25008, Control_c, 0, 64, 0
2, 25008, Note_on_c, 0, 70, 80
2, 25031, Note_on_c, 0, 70, 0
2, 25032, Note_on_c, 0, 68, 80
2, 25055, Note_on_c, 0, 68, 0
2, 25056, Control_c, 0, 64, 0
2, 25056, Control_c, 0, 64, 127
2, 25080, Note_on_c, 0, 67, 80
2, 25103, Note_on_c, 0, 67, 0
2, 25104, Note_on_c, 0, 63, 80
2, 25127, Note_on_c, 0, 63, 0
2, 25128, Note_on_c, 0, 67, 80
2, 25151, Note_on_c, 0, 67, 0
2, 25152, Note_on_c, 0, 62, 80
2, 25175, Note_on_c, 0, 62, 0
2, 25176, Note_on_c, 0, 67, 80
2, 25199, Note_on_c, 0, 67, 0
2, 25200, Control_c, 0, 64, 0
2, 25200, Control_c, 0, 64, 127
2, 25200, Note_on_c, 0, 60, 80
2, 25223, Note_on_c, 0, 60, 0
2, 25224, Note_on_c, 0, 63, 80
2, 25247, Note_on_c, 0, 63, 0
2, 25248, Note_on_c, 0, 67, 80
2, 25271, Note_on_c, 0, 67, 0
2, 25272, Note_on_c, 0, 70, 80
2, 25295, Note_on_c, 0, 70, 0
2, 25296, Control_c, 0, 64, 0
2, 25296, Note_on_c, 0, 68, 80
2, 25319, Note_on_c, 0, 68, 0
2, 25320, Note_on_c, 0, 67, 80
2, 25343, Note_on_c, 0, 67, 0
2, 25344, Control_c, 0, 64, 0
2, 25344, Control_c, 0, 64, 127
2, 25368, Note_on_c, 0, 65, 80
2, 25391, Note_on_c, 0, 65, 0
2, 25392, Note_on_c, 0, 62, 80
2, 25415, Note_on_c, 0, 62, 0
2, 25416, Note_on_c, 0, 65, 80
2, 25439, Note_on_c, 0, 65, 0
2, 25440, Note_on_c, 0, 60, 80
2, 25463, Note_on_c, 0, 60, 0
2, 25464, Note_on_c, 0, 65, 80
2, 25487, Note_on_c, 0, 65, 0
2, 25488, Control_c, 0, 64, 0
2, 25488, Control_c, 0, 64, 127
2, 25488, Note_on_c, 0, 59, 80
2, 25511, Note_on_c, 0, 59, 0
2, 25512, Note_on_c, 0, 62, 80
2, 25535, Note_on_c, 0, 62, 0
2, 25536, Note_on_c, 0, 65, 80
2, 25559, Note_on_c, 0, 65, 0
2, 25560, Note_on_c, 0, 68, 80
2, 25583, Note_on_c, 0, 68, 0
2, 25584, Control_c, 0, 64, 0
2, 25584, Note_on_c, 0, 67, 80
2, 25607, Note_on_c, 0, 67, 0
2, 25608, Note_on_c, 0, 65, 80
2, 25631, Note_on_c, 0, 65, 0
2, 25632, Note_on_c, 0, 63, 80
2, 25655, Note_on_c, 0, 63, 0
2, 25656, Note_on_c, 0, 60, 80
2, 25679, Note_on_c, 0, 60, 0
2, 25680, Note_on_c, 0, 63, 80
2, 25703, Note_on_c, 0, 63, 0
2, 25704, Note_on_c, 0, 60, 80
2, 25727, Note_on_c, 0, 60, 0
2, 25728, Note_on_c, 0, 64, 80
2, 25751, Note_on_c, 0, 64, 0
2, 25752, Note_on_c, 0, 60, 80
2, 25775, Note_on_c, 0, 60, 0
2, 25776, Note_on_c, 0, 65, 80
2, 25799, Note_on_c, 0, 65, 0
2, 25800, Note_on_c, 0, 60, 80
2, 25823, Note_on_c, 0, 60, 0
2, 25824, Note_on_c, 0, 65, 80
2, 25847, Note_on_c, 0, 65, 0
2, 25848, Note_on_c, 0, 60, 80
2, 25871, Note_on_c, 0, 60, 0
2, 25872, Note_on_c, 0, 66, 80
2, 25895, Note_on_c, 0, 66, 0
2, 25896, Note_on_c, 0, 60, 80
2, 25919, Note_on_c, 0, 60, 0
2, 25920, Control_c, 0, 64, 127
2, 25944, Note_on_c, 0, 59, 80
2, 25967, Note_on_c, 0, 59, 0
2, 25968, Note_on_c, 0, 62, 80
2, 25991, Note_on_c, 0, 62, 0
2, 25992, Note_on_c, 0, 59, 80
2, 26015, Note_on_c, 0, 59, 0
2, 26016, Note_on_c, 0, 67, 80
2, 26039, Note_on_c, 0, 67, 0
2, 26040, Note_on_c, 0, 59, 80
2, 26063, Note_on_c, 0, 59, 0
2, 26088, Note_on_c, 0, 59, 80
2, 26111, Note_on_c, 0, 59, 0
2, 26112, Note_on_c, 0, 62, 80
2, 26135, Note_on_c, 0, 62, 0
2, 26136, Note_on_c, 0, 59, 80
2, 26159, Note_on_c, 0, 59, 0
2, 26160, Control_c, 0, 64, 127
2, 26160, Note_on_c, 0, 68, 80
2, 26183, Note_on_c, 0, 68, 0
2, 26184, Note_on_c, 0, 59, 80
2, 26207, Note_on_c, 0, 59, 0
2, 26232, Note_on_c, 0, 59, 80
2, 26255, Note_on_c, 0, 59, 0
2, 26256, Note_on_c, 0, 62, 80
2, 26279, Note_on_c, 0, 62, 0
2, 26280, Note_on_c, 0, 59, 80
2, 26303, Note_on_c, 0, 59, 0
2, 26304, Note_on_c, 0, 68, 80
2, 26327, Note_on_c, 0, 68, 0
2, 26328, Control_c, 0, 64, 127
2, 26328, Note_on_c, 0, 59, 80
2, 26629, Note_on_c, 0, 59, 0
2, 26688, Control_c, 0, 64, 0
2, 26736, Note_on_c, 0, 76, 75
2, 26784, Note_on_c, 0, 76, 0
2, 26784, Note_on_c, 0, 72, 75
2, 26804, Note_on_c, 0, 72, 0
2, 26880, Note_on_c, 0, 69, 75
2, 26928, Note_on_c, 0, 69, 0
2, 26928, Note_on_c, 0, 68, 75
2, 26948, Note_on_c, 0, 68, 0
2, 27024, Note_on_c, 0, 64, 75
2, 27069, Note_on_c, 0, 64, 0
2, 27072, Note_on_c, 0, 69, 75
2, 27095, Note_on_c, 0, 69, 0
2, 27096, Note_on_c, 0, 72, 75
2, 27119, Note_on_c, 0, 72, 0
2, 27120, Note_on_c, 0, 76, 75
2, 27143, Note_on_c, 0, 76, 0
2, 27144, Note_on_c, 0, 81, 75
2, 27167, Note_on_c, 0, 81, 0
2, 27168, Note_on_c, 0, 76, 75
2, 27191, Note_on_c, 0, 76, 0
2, 27192, Note_on_c, 0, 72, 75
2, 27215, Note_on_c, 0, 72, 0
2, 27216, Note_on_c, 0, 74, 75
2, 27228, Note_on_c, 0, 74, 0
2, 27228, Note_on_c, 0, 76, 75
2, 27240, Note_on_c, 0, 76, 0
2, 27240, Note_on_c, 0, 74, 75
2, 27261, Note_on_c, 0, 74, 0
2, 27264, Note_on_c, 0, 72, 75
2, 27309, Note_on_c, 0, 72, 0
2, 27456, Note_on_c, 0, 84, 70
2, 27471, Note_on_c, 0, 84, 0
2, 27472, Note_on_c, 0, 86, 70
2, 27487, Note_on_c, 0, 86, 0
2, 27488, Note_on_c, 0, 84, 70
2, 27504, Note_on_c, 0, 84, 0
2, 27504, Note_on_c, 0, 81, 70
2, 27524, Note_on_c, 0, 81, 0
2, 27600, Note_on_c, 0, 77, 70
2, 27615, Note_on_c, 0, 77, 0
2, 27616, Note_on_c, 0, 79, 70
2, 27631, Note_on_c, 0, 79, 0
2, 27632, Note_on_c, 0, 77, 70
2, 27648, Note_on_c, 0, 77, 0
2, 27648, Note_on_c, 0, 76, 70
2, 27668, Note_on_c, 0, 76, 0
2, 27744, Note_on_c, 0, 72, 70
2, 27789, Note_on_c, 0, 72, 0
2, 27792, Note_on_c, 0, 77, 70
2, 27815, Note_on_c, 0, 77, 0
2, 27816, Note_on_c, 0, 81, 70
2, 27839, Note_on_c, 0, 81, 0
2, 27840, Note_on_c, 0, 84, 70
2, 27863, Note_on_c, 0, 84, 0
2, 27864, Note_on_c, 0, 89, 70
2, 27887, Note_on_c, 0, 89, 0
2, 27888, Note_on_c, 0, 84, 70
2, 27911, Note_on_c, 0, 84, 0
2, 27912, Note_on_c, 0, 81, 70
2, 27935, Note_on_c, 0, 81, 0
2, 27936, Note_on_c, 0, 82, 70
2, 27948, Note_on_c, 0, 82, 0
2, 27948, Note_on_c, 0, 84, 70
2, 27960, Note_on_c, 0, 84, 0
2, 27960, Note_on_c, 0, 82, 70
2, 27981, Note_on_c, 0, 82, 0
2, 27984, Note_on_c, 0, 81, 70
2, 28029, Note_on_c, 0, 81, 0
2, 28032, Note_on_c, 0, 81, 75
2, 28077, Note_on_c, 0, 81, 0
2, 28080, Note_on_c, 0, 81, 75
2, 28092, Note_on_c, 0, 81, 0
2, 28092, Note_on_c, 0, 82, 75
2, 28104, Note_on_c, 0, 82, 0
2, 28104, Note_on_c, 0, 81, 75
2, 28125, Note_on_c, 0, 81, 0
2, 28128, Note_on_c, 0, 79, 75
2, 28173, Note_on_c, 0, 79, 0
2, 28176, Note_on_c, 0, 79, 75
2, 28221, Note_on_c, 0, 79, 0
2, 28224, Note_on_c, 0, 79, 75
2, 28236, Note_on_c, 0, 79, 0
2, 28236, Note_on_c, 0, 81, 75
2, 28248, Note_on_c, 0, 81, 0
2, 28248, Note_on_c, 0, 79, 75
2, 28269, Note_on_c, 0, 79, 0
2, 28272, Note_on_c, 0, 77, 75
2, 28317, Note_on_c, 0, 77, 0
2, 28320, Note_on_c, 0, 81, 75
2, 28365, Note_on_c, 0, 81, 0
2, 28368, Note_on_c, 0, 81, 75
2, 28380, Note_on_c, 0, 81, 0
2, 28380, Note_on_c, 0, 83, 75
2, 28392, Note_on_c, 0, 83, 0
2, 28392, Note_on_c, 0, 81, 75
2, 28413, Note_on_c, 0, 81, 0
2, 28416, Note_on_c, 0, 79, 75
2, 28461, Note_on_c, 0, 79, 0
2, 28464, Note_on_c, 0, 77, 75
2, 28509, Note_on_c, 0, 77, 0
2, 28512, Note_on_c, 0, 77, 75
2, 28524, Note_on_c, 0, 77, 0
2, 28524, Note_on_c, 0, 79, 75
2, 28536, Note_on_c, 0, 79, 0
2, 28536, Note_on_c, 0, 77, 75
2, 28557, Note_on_c, 0, 77, 0
2, 28560, Note_on_c, 0, 76, 75
2, 28605, Note_on_c, 0, 76, 0
2, 28608, Note_on_c, 0, 79, 75
2, 28656, Note_on_c, 0, 79, 0
2, 28656, Note_on_c, 0, 76, 75
2, 28676, Note_on_c, 0, 76, 0
2, 28752, Note_on_c, 0, 72, 75
2, 28800, Note_on_c, 0, 72, 0
2, 28800, Note_on_c, 0, 71, 75
2, 28820, Note_on_c, 0, 71, 0
2, 28896, Note_on_c, 0, 67, 75
2, 28941, Note_on_c, 0, 67, 0
2, 28944, Note_on_c, 0, 72, 75
2, 28967, Note_on_c, 0, 72, 0
2, 28968, Note_on_c, 0, 76, 75
2, 28991, Note_on_c, 0, 76, 0
2, 28992, Note_on_c, 0, 79, 75
2, 29015, Note_on_c, 0, 79, 0
2, 29016, Note_on_c, 0, 84, 75
2, 29039, Note_on_c, 0, 84, 0
2, 29040, Note_on_c, 0, 79, 75
2, 29063, Note_on_c, 0, 79, 0
2, 29064, Note_on_c, 0, 76, 75
2, 29087, Note_on_c, 0, 76, 0
2, 29088, Note_on_c, 0, 77, 75
2, 29100, Note_on_c, 0, 77, 0
2, 29100, Note_on_c, 0, 79, 75
2, 29112, Note_on_c, 0, 79, 0
2, 29112, Note_on_c, 0, 77, 75
2, 29133, Note_on_c, 0, 77, 0
2, 29136, Note_on_c, 0, 76, 75
2, 29181, Note_on_c, 0, 76, 0
2, 29184, Note_on_c, 0, 79, 75
2, 29199, Note_on_c, 0, 79, 0
2, 29200, Note_on_c, 0, 81, 75
2, 29215, Note_on_c, 0, 81, 0
2, 29216, Note_on_c, 0, 79, 75
2, 29232, Note_on_c, 0, 79, 0
2, 29232, Note_on_c, 0, 76, 75
2, 29252, Note_on_c, 0, 76, 0
2, 29328, Note_on_c, 0, 72, 75
2, 29343, Note_on_c, 0, 72, 0
2, 29344, Note_on_c, 0, 74, 75
2, 29359, Note_on_c, 0, 74, 0
2, 29360, Note_on_c, 0, 72, 75
2, 29376, Note_on_c, 0, 72, 0
2, 29376, Note_on_c, 0, 71, 75
2, 29396, Note_on_c, 0, 71, 0
2, 29472, Note_on_c, 0, 67, 75
2, 29517, Note_on_c, 0, 67, 0
2, 29520, Note_on_c, 0, 71, 75
2, 29543, Note_on_c, 0, 71, 0
2, 29544, Note_on_c, 0, 72, 75
2, 29567, Note_on_c, 0, 72, 0
2, 29568, Note_on_c, 0, 76, 75
2, 29591, Note_on_c, 0, 76, 0
2, 29592, Note_on_c, 0, 72, 75
2, 29615, Note_on_c, 0, 72, 0
2, 29616, Note_on_c, 0, 67, 75
2, 29639, Note_on_c, 0, 67, 0
2, 29640, Note_on_c, 0, 64, 75
2, 29663, Note_on_c, 0, 64, 0
2, 29664, Note_on_c, 0, 65, 75
2, 29676, Note_on_c, 0, 65, 0
2, 29676, Note_on_c, 0, 67, 75
2, 29688, Note_on_c, 0, 67, 0
2, 29688, Note_on_c, 0, 65, 75
2, 29709, Note_on_c, 0, 65, 0
2, 29712, Note_on_c, 0, 64, 75
2, 29757, Note_on_c, 0, 64, 0
2, 29760, Note_on_c, 0, 60, 75
2, 29805, Note_on_c, 0, 60, 0
2, 29808, Note_on_c, 0, 65, 75
2, 29831, Note_on_c, 0, 65, 0
2, 29832, Note_on_c, 0, 60, 75
2, 29855, Note_on_c, 0, 60, 0
2, 29856, Note_on_c, 0, 64, 75
2, 29879, Note_on_c, 0, 64, 0
2, 29880, Note_on_c, 0, 60, 75
2, 29903, Note_on_c, 0, 60, 0
2, 29904, Note_on_c, 0, 69, 75
2, 29927, Note_on_c, 0, 69, 0
2, 29928, Note_on_c, 0, 60, 75
2, 29951, Note_on_c, 0, 60, 0
2, 29952, Note_on_c, 0, 67, 76
2, 29975, Note_on_c, 0, 67, 0
2, 29976, Note_on_c, 0, 60, 76
2, 29999, Note_on_c, 0, 60, 0
2, 30000, Note_on_c, 0, 65, 76
2, 30023, Note_on_c, 0, 65, 0
2, 30024, Note_on_c, 0, 60, 76
2, 30047, Note_on_c, 0, 60, 0
2, 30048, Note_on_c, 0, 64, 76
2, 30071, Note_on_c, 0, 64, 0
2, 30072, Note_on_c, 0, 60, 77
2, 30095, Note_on_c, 0, 60, 0
2, 30096, Note_on_c, 0, 65, 77
2, 30119, Note_on_c, 0, 65, 0
2, 30120, Note_on_c, 0, 60, 77
2, 30143, Note_on_c, 0, 60, 0
2, 30144, Note_on_c, 0, 64, 77
2, 30167, Note_on_c, 0, 64, 0
2, 30168, Note_on_c, 0, 60, 77
2, 30191, Note_on_c, 0, 60, 0
2, 30192, Note_on_c, 0, 69, 78
2, 30215, Note_on_c, 0, 69, 0
2, 30216, Note_on_c, 0, 60, 78
2, 30239, Note_on_c, 0, 60, 0
2, 30240, Note_on_c, 0, 67, 78
2, 30263, Note_on_c, 0, 67, 0
2, 30264, Note_on_c, 0, 60, 78
2, 30287, Note_on_c, 0, 60, 0
2, 30288, Note_on_c, 0, 71, 78
2, 30311, Note_on_c, 0, 71, 0
2, 30312, Note_on_c, 0, 60, 79
2, 30335, Note_on_c, 0, 60, 0
2, 30336, Note_on_c, 0, 72, 79
2, 30359, Note_on_c, 0, 72, 0
2, 30360, Note_on_c, 0, 60, 79
2, 30383, Note_on_c, 0, 60, 0
2, 30384, Note_on_c, 0, 74, 79
2, 30429, Note_on_c, 0, 74, 0
2, 30432, Note_on_c, 0, 65, 80
2, 30477, Note_on_c, 0, 65, 0
2, 30480, Note_on_c, 0, 65, 80
2, 30492, Note_on_c, 0, 65, 0
2, 30492, Note_on_c, 0, 64, 80
2, 30504, Note_on_c, 0, 64, 0
2, 30504, Note_on_c, 0, 62, 80
2, 30516, Note_on_c, 0, 62, 0
2, 30516, Note_on_c, 0, 64, 80
2, 30528, Note_on_c, 0, 64, 0
2, 30528, Note_on_c, 0, 62, 80
2, 30573, Note_on_c, 0, 62, 0
2, 30624, Note_on_c, 0, 69, 64
2, 30647, Note_on_c, 0, 69, 0
2, 30648, Note_on_c, 0, 71, 64
2, 30671, Note_on_c, 0, 71, 0
2, 30672, Note_on_c, 0, 72, 64
2, 30695, Note_on_c, 0, 72, 0
2, 30696, Note_on_c, 0, 71, 64
2, 30719, Note_on_c, 0, 71, 0
2, 30720, Note_on_c, 0, 74, 64
2, 30743, Note_on_c, 0, 74, 0
2, 30744, Note_on_c, 0, 72, 64
2, 30767, Note_on_c, 0, 72, 0
2, 30768, Note_on_c, 0, 76, 64
2, 30816, Note_on_c, 0, 76, 0
2, 30816, Note_on_c, 0, 65, 64
2, 30836, Note_on_c, 0, 65, 0
2, 30912, Note_on_c, 0, 74, 64
2, 30960, Note_on_c, 0, 74, 0
2, 30960, Note_on_c, 0, 64, 64
2, 30980, Note_on_c, 0, 64, 0
2, 31056, Note_on_c, 0, 72, 64
2, 31104, Note_on_c, 0, 72, 0
2, 31104, Note_on_c, 0, 62, 64
2, 31127, Note_on_c, 0, 62, 0
2, 31128, Note_on_c, 0, 72, 70
2, 31151, Note_on_c, 0, 72, 0
2, 31152, Note_on_c, 0, 60, 70
2, 31175, Note_on_c, 0, 60, 0
2, 31176, Note_on_c, 0, 72, 70
2, 31199, Note_on_c, 0, 72, 0
2, 31200, Note_on_c, 0, 62, 71
2, 31223, Note_on_c, 0, 62, 0
2, 31224, Note_on_c, 0, 72, 71
2, 31247, Note_on_c, 0, 72, 0
2, 31248, Note_on_c, 0, 63, 72
2, 31271, Note_on_c, 0, 63, 0
2, 31272, Note_on_c, 0, 72, 72
2, 31295, Note_on_c, 0, 72, 0
2, 31296, Note_on_c, 0, 62, 73
2, 31319, Note_on_c, 0, 62, 0
2, 31320, Note_on_c, 0, 72, 73
2, 31343, Note_on_c, 0, 72, 0
2, 31344, Note_on_c, 0, 64, 73
2, 31367, Note_on_c, 0, 64, 0
2, 31368, Note_on_c, 0, 72, 74
2, 31391, Note_on_c, 0, 72, 0
2, 31392, Note_on_c, 0, 65, 74
2, 31415, Note_on_c, 0, 65, 0
2, 31416, Note_on_c, 0, 72, 75
2, 31439, Note_on_c, 0, 72, 0
2, 31440, Note_on_c, 0, 64, 75
2, 31463, Note_on_c, 0, 64, 0
2, 31464, Note_on_c, 0, 72, 76
2, 31487, Note_on_c, 0, 72, 0
2, 31488, Note_on_c, 0, 66, 76
2, 31511, Note_on_c, 0, 66, 0
2, 31512, Note_on_c, 0, 72, 76
2, 31535, Note_on_c, 0, 72, 0
2, 31536, Note_on_c, 0, 71, 77
2, 31559, Note_on_c, 0, 71, 0
2, 31560, Note_on_c, 0, 67, 77
2, 31583, Note_on_c, 0, 67, 0
2, 31584, Note_on_c, 0, 72, 78
2, 31607, Note_on_c, 0, 72, 0
2, 31608, Note_on_c, 0, 67, 78
2, 31631, Note_on_c, 0, 67, 0
2, 31632, Note_on_c, 0, 74, 79
2, 31655, Note_on_c, 0, 74, 0
2, 31656, Note_on_c, 0, 67, 79
2, 31679, Note_on_c, 0, 67, 0
2, 31680, Note_on_c, 0, 75, 80
2, 31703, Note_on_c, 0, 75, 0
2, 31704, Note_on_c, 0, 67, 79
2, 31727, Note_on_c, 0, 67, 0
2, 31728, Note_on_c, 0, 74, 79
2, 31751, Note_on_c, 0, 74, 0
2, 31752, Note_on_c, 0, 67, 79
2, 31775, Note_on_c, 0, 67, 0
2, 31776, Note_on_c, 0, 76, 79
2, 31799, Note_on_c, 0, 76, 0
2, 31800, Note_on_c, 0, 67, 79
2, 31823, Note_on_c, 0, 67, 0
2, 31824, Note_on_c, 0, 77, 78
2, 31847, Note_on_c, 0, 77, 0
2, 31848, Note_on_c, 0, 67, 78
2, 31871, Note_on_c, 0, 67, 0
2, 31872, Note_on_c, 0, 76, 78
2, 31895, Note_on_c, 0, 76, 0
2, 31896, Note_on_c, 0, 67, 78
2, 31919, Note_on_c, 0, 67, 0
2, 31920, Note_on_c, 0, 78, 78
2, 31943, Note_on_c, 0, 78, 0
2, 31944, Note_on_c, 0, 67, 77
2, 31967, Note_on_c, 0, 67, 0
2, 31968, Note_on_c, 0, 79, 77
2, 31991, Note_on_c, 0, 79, 0
2, 31992, Note_on_c, 0, 67, 77
2, 32015, Note_on_c, 0, 67, 0
2, 32016, Note_on_c, 0, 76, 77
2, 32039, Note_on_c, 0, 76, 0
2, 32040, Note_on_c, 0, 67, 77
2, 32063, Note_on_c, 0, 67, 0
2, 32064, Note_on_c, 0, 77, 76
2, 32087, Note_on_c, 0, 77, 0
2, 32088, Note_on_c, 0, 67, 76
2, 32111, Note_on_c, 0, 67, 0
2, 32112, Note_on_c, 0, 74, 76
2, 32135, Note_on_c, 0, 74, 0
2, 32136, Note_on_c, 0, 67, 76
2, 32159, Note_on_c, 0, 67, 0
2, 32160, Note_on_c, 0, 76, 76
2, 32183, Note_on_c, 0, 76, 0
2, 32184, Note_on_c, 0, 67, 75
2, 32207, Note_on_c, 0, 67, 0
2, 32208, Note_on_c, 0, 72, 75
2, 32231, Note_on_c, 0, 72, 0
2, 32232, Note_on_c, 0, 67, 75
2, 32255, Note_on_c, 0, 67, 0
2, 32256, Note_on_c, 0, 71, 75
2, 32301, Note_on_c, 0, 71, 0
2, 32400, Note_on_c, 0, 79, 75
2, 32400, Note_on_c, 0, 76, 75
2, 32448, Note_on_c, 0, 79, 0
2, 32448, Note_on_c, 0, 72, 75
2, 32468, Note_on_c, 0, 76, 0
2, 32468, Note_on_c, 0, 72, 0
2, 32544, Note_on_c, 0, 79, 75
2, 32544, Note_on_c, 0, 76, 75
2, 32592, Note_on_c, 0, 79, 0
2, 32592, Note_on_c, 0, 72, 75
2, 32612, Note_on_c, 0, 76, 0
2, 32612, Note_on_c, 0, 72, 0
2, 32640, Note_on_c, 0, 72, 75
2, 32655, Note_on_c, 0, 72, 0
2, 32656, Note_on_c, 0, 74, 75
2, 32671, Note_on_c, 0, 74, 0
2, 32672, Note_on_c, 0, 72, 75
2, 32687, Note_on_c, 0, 72, 0
2, 32688, Note_on_c, 0, 71, 75
2, 32708, Note_on_c, 0, 71, 0
2, 32736, Note_on_c, 0, 69, 75
2, 32751, Note_on_c, 0, 69, 0
2, 32752, Note_on_c, 0, 71, 75
2, 32767, Note_on_c, 0, 71, 0
2, 32768, Note_on_c, 0, 69, 75
2, 32783, Note_on_c, 0, 69, 0
2, 32784, Note_on_c, 0, 67, 75
2, 32804, Note_on_c, 0, 67, 0
2, 32832, Note_on_c, 0, 65, 75
2, 32844, Note_on_c, 0, 65, 0
2, 32844, Note_on_c, 0, 67, 75
2, 32856, Note_on_c, 0, 67, 0
2, 32856, Note_on_c, 0, 65, 75
2, 32877, Note_on_c, 0, 65, 0
2, 32880, Note_on_c, 0, 64, 75
2, 32925, Note_on_c, 0, 64, 0
2, 32928, Note_on_c, 0, 62, 75
2, 32940, Note_on_c, 0, 62, 0
2, 32940, Note_on_c, 0, 64, 75
2, 32952, Note_on_c, 0, 64, 0
2, 32952, Note_on_c, 0, 62, 75
2, 32973, Note_on_c, 0, 62, 0
2, 32976, Note_on_c, 0, 60, 75
2, 33021, Note_on_c, 0, 60, 0
2, 33120, Note_on_c, 0, 79, 75
2, 33120, Note_on_c, 0, 76, 75
2, 33168, Note_on_c, 0, 79, 0
2, 33168, Note_on_c, 0, 72, 75
2, 33188, Note_on_c, 0, 76, 0
2, 33188, Note_on_c, 0, 72, 0
2, 33264, Note_on_c, 0, 88, 75
2, 33264, Note_on_c, 0, 84, 75
2, 33312, Note_on_c, 0, 88, 0
2, 33312, Note_on_c, 0, 84, 0
2, 33312, Note_on_c, 0, 76, 75
2, 33332, Note_on_c, 0, 76, 0
2, 33360, Note_on_c, 0, 72, 75
2, 33375, Note_on_c, 0, 72, 0
2, 33376, Note_on_c, 0, 74, 75
2, 33391, Note_on_c, 0, 74, 0
2, 33392, Note_on_c, 0, 72, 75
2, 33407, Note_on_c, 0, 72, 0
2, 33408, Note_on_c, 0, 71, 75
2, 33428, Note_on_c, 0, 71, 0
2, 33456, Note_on_c, 0, 69, 75
2, 33471, Note_on_c, 0, 69, 0
2, 33472, Note_on_c, 0, 71, 75
2, 33487, Note_on_c, 0, 71, 0
2, 33488, Note_on_c, 0, 69, 75
2, 33503, Note_on_c, 0, 69, 0
2, 33504, Note_on_c, 0, 67, 75
2, 33524, Note_on_c, 0, 67, 0
2, 33552, Note_on_c, 0, 65, 75
2, 33564, Note_on_c, 0, 65, 0
2, 33564, Note_on_c, 0, 67, 75
2, 33576, Note_on_c, 0, 67, 0
2, 33576, Note_on_c, 0, 65, 75
2, 33597, Note_on_c, 0, 65, 0
2, 33600, Note_on_c, 0, 64, 75
2, 33645, Note_on_c, 0, 64, 0
2, 33648, Note_on_c, 0, 62, 75
2, 33660, Note_on_c, 0, 62, 0
2, 33660, Note_on_c, 0, 64, 75
2, 33672, Note_on_c, 0, 64, 0
2, 33672, Note_on_c, 0, 62, 75
2, 33693, Note_on_c, 0, 62, 0
2, 33696, Note_on_c, 0, 60, 75
2, 33741, Note_on_c, 0, 60, 0
2, 33792, Note_on_c, 0, 67, 75
2, 33837, Note_on_c, 0, 67, 0
2, 33840, Note_on_c, 0, 67, 75
2, 33852, Note_on_c, 0, 67, 0
2, 33852, Note_on_c, 0, 69, 75
2, 33864, Note_on_c, 0, 69, 0
2, 33864, Note_on_c, 0, 67, 75
2, 33885, Note_on_c, 0, 67, 0
2, 33888, Note_on_c, 0, 65, 75
2, 33933, Note_on_c, 0, 65, 0
2, 33936, Note_on_c, 0, 65, 75
2, 33981, Note_on_c, 0, 65, 0
2, 33984, Note_on_c, 0, 65, 75
2, 33996, Note_on_c, 0, 65, 0
2, 33996, Note_on_c, 0, 67, 75
2, 34008, Note_on_c, 0, 67, 0
2, 34008, Note_on_c, 0, 65, 75
2, 34029, Note_on_c, 0, 65, 0
2, 34032, Note_on_c, 0, 64, 75
2, 34077, Note_on_c, 0, 64, 0
2, 34080, Note_on_c, 0, 76, 75
2, 34125, Note_on_c, 0, 76, 0
2, 34128, Note_on_c, 0, 76, 75
2, 34199, Note_on_c, 0, 76, 0
2, 34200, Note_on_c, 0, 77, 75
2, 34223, Note_on_c, 0, 77, 0
2, 34224, Note_on_c, 0, 74, 75
2, 34247, Note_on_c, 0, 74, 0
2, 34248, Note_on_c, 0, 71, 75
2, 34271, Note_on_c, 0, 71, 0
2, 34272, Note_on_c, 0, 72, 75
2, 34317, Note_on_c, 0, 72, 0
2, 34368, Note_on_c, 0, 88, 70
2, 34391, Note_on_c, 0, 88, 0
2, 34392, Note_on_c, 0, 79, 70
2, 34415, Note_on_c, 0, 79, 0
2, 34416, Note_on_c, 0, 79, 70
2, 34428, Note_on_c, 0, 79, 0
2, 34428, Note_on_c, 0, 81, 70
2, 34440, Note_on_c, 0, 81, 0
2, 34440, Note_on_c, 0, 79, 70
2, 34461, Note_on_c, 0, 79, 0
2, 34464, Note_on_c, 0, 77, 70
2, 34509, Note_on_c, 0, 77, 0
2, 34512, Note_on_c, 0, 86, 70
2, 34535, Note_on_c, 0, 86, 0
2, 34536, Note_on_c, 0, 77, 70
2, 34559, Note_on_c, 0, 77, 0
2, 34560, Note_on_c, 0, 77, 70
2, 34572, Note_on_c, 0, 77, 0
2, 34572, Note_on_c, 0, 79, 70
2, 34584, Note_on_c, 0, 79, 0
2, 34584, Note_on_c, 0, 77, 70
2, 34605, Note_on_c, 0, 77, 0
2, 34608, Note_on_c, 0, 76, 70
2, 34653, Note_on_c, 0, 76, 0
2, 34656, Note_on_c, 0, 76, 70
2, 34701, Note_on_c, 0, 76, 0
2, 34704, Note_on_c, 0, 76, 70
2, 34775, Note_on_c, 0, 76, 0
2, 34776, Note_on_c, 0, 77, 70
2, 34799, Note_on_c, 0, 77, 0
2, 34800, Note_on_c, 0, 74, 70
2, 34823, Note_on_c, 0, 74, 0
2, 34824, Note_on_c, 0, 71, 70
2, 34847, Note_on_c, 0, 71, 0
2, 34848, Note_on_c, 0, 72, 70
2, 34893, Note_on_c, 0, 72, 0
2, 34992, End_track
3, 0, Start_track
3, 0, Program_c, 0, 0
3, 0, Control_c, 0, 7, 127
3, 0, Control_c, 0, 10, 64
3, 1920, Note_on_c, 0, 62, 64
3, 1965, Note_on_c, 0, 62, 0
3, 1968, Note_on_c, 0, 60, 64
3, 2013, Note_on_c, 0, 60, 0
3, 2016, Note_on_c, 0, 59, 64
3, 2061, Note_on_c, 0, 59, 0
3, 8112, Note_on_c, 0, 62, 64
3, 8157, Note_on_c, 0, 62, 0
3, 8160, Note_on_c, 0, 60, 64
3, 8205, Note_on_c, 0, 60, 0
3, 8208, Note_on_c, 0, 59, 64
3, 8253, Note_on_c, 0, 59, 0
3, 14976, Control_c, 0, 64, 127
3, 15120, Note_on_c, 0, 68, 64
3, 15397, Note_on_c, 0, 68, 0
3, 15552, Control_c, 0, 64, 0
3, 19200, Note_on_c, 0, 62, 64
3, 19245, Note_on_c, 0, 62, 0
3, 19248, Note_on_c, 0, 60, 64
3, 19293, Note_on_c, 0, 60, 0
3, 19296, Note_on_c, 0, 59, 64
3, 19341, Note_on_c, 0, 59, 0
3, 26208, Control_c, 0, 64, 127
3, 26352, Note_on_c, 0, 68, 64
3, 26629, Note_on_c, 0, 68, 0
3, 26784, Control_c, 0, 64, 0
3, 30432, Note_on_c, 0, 62, 64
3, 30477, Note_on_c, 0, 62, 0
3, 30480, Note_on_c, 0, 60, 64
3, 30525, Note_on_c, 0, 60, 0
3, 30528, Note_on_c, 0, 59, 64
3, 30573, Note_on_c, 0, 59, 0
3, 34992, End_track
4, 0, Start_track
4, 0, Program_c, 1, 0
4, 0, Control_c, 1, 7, 127
4, 0, Control_c, 1, 10, 64
4, 192, Note_on_c, 1, 64, 75
4, 192, Note_on_c, 1, 60, 75
4, 237, Note_on_c, 1, 64, 0
4, 237, Note_on_c, 1, 60, 0
4, 336, Note_on_c, 1, 65, 75
4, 336, Note_on_c, 1, 62, 75
4, 381, Note_on_c, 1, 65, 0
4, 381, Note_on_c, 1, 62, 0
4, 480, Note_on_c, 1, 64, 75
4, 525, Note_on_c, 1, 64, 0
4, 528, Note_on_c, 1, 60, 75
4, 573, Note_on_c, 1, 60, 0
4, 576, Note_on_c, 1, 62, 75
4, 576, Note_on_c, 1, 55, 75
4, 621, Note_on_c, 1, 62, 0
4, 621, Note_on_c, 1, 55, 0
4, 624, Note_on_c, 1, 60, 75
4, 669, Note_on_c, 1, 60, 0
4, 768, Note_on_c, 1, 64, 75
4, 768, Note_on_c, 1, 60, 75
4, 813, Note_on_c, 1, 64, 0
4, 813, Note_on_c, 1, 60, 0
4, 912, Note_on_c, 1, 65, 75
4, 912, Note_on_c, 1, 62, 75
4, 957, Note_on_c, 1, 65, 0
4, 957, Note_on_c, 1, 62, 0
4, 1056, Note_on_c, 1, 64, 75
4, 1101, Note_on_c, 1, 64, 0
4, 1104, Note_on_c, 1, 60, 75
4, 1149, Note_on_c, 1, 60, 0
4, 1152, Note_on_c, 1, 62, 75
4, 1152, Note_on_c, 1, 55, 75
4, 1197, Note_on_c, 1, 62, 0
4, 1197, Note_on_c, 1, 55, 0
4, 1200, Note_on_c, 1, 60, 75
4, 1245, Note_on_c, 1, 60, 0
4, 1296, Note_on_c, 1, 57, 75
4, 1341, Note_on_c, 1, 57, 0
4, 1344, Note_on_c, 1, 55, 75
4, 1389, Note_on_c, 1, 55, 0
4, 1392, Note_on_c, 1, 53, 75
4, 1437, Note_on_c, 1, 53, 0
4, 1440, Note_on_c, 1, 52, 75
4, 1485, Note_on_c, 1, 52, 0
4, 1488, Note_on_c, 1, 50, 75
4, 1533, Note_on_c, 1, 50, 0
4, 1536, Note_on_c, 1, 48, 75
4, 1581, Note_on_c, 1, 48, 0
4, 1584, Note_on_c, 1, 57, 75
4, 1629, Note_on_c, 1, 57, 0
4, 1632, Note_on_c, 1, 55, 75
4, 1677, Note_on_c, 1, 55, 0
4, 1680, Note_on_c, 1, 53, 75
4, 1725, Note_on_c, 1, 53, 0
4, 1728, Note_on_c, 1, 52, 75
4, 1773, Note_on_c, 1, 52, 0
4, 1776, Note_on_c, 1, 50, 75
4, 1821, Note_on_c, 1, 50, 0
4, 1824, Note_on_c, 1, 48, 75
4, 1869, Note_on_c, 1, 48, 0
4, 1872, Note_on_c, 1, 47, 75
4, 1961, Note_on_c, 1, 47, 0
4, 1968, Note_on_c, 1, 48, 75
4, 2013, Note_on_c, 1, 48, 0
4, 2016, Note_on_c, 1, 43, 75
4, 2061, Note_on_c, 1, 43, 0
4, 2208, Note_on_c, 1, 64, 75
4, 2208, Note_on_c, 1, 60, 75
4, 2253, Note_on_c, 1, 64, 0
4, 2253, Note_on_c, 1, 60, 0
4, 2352, Note_on_c, 1, 65, 75
4, 2352, Note_on_c, 1, 62, 75
4, 2397, Note_on_c, 1, 65, 0
4, 2397, Note_on_c, 1, 62, 0
4, 2496, Note_on_c, 1, 64, 75
4, 2541, Note_on_c, 1, 64, 0
4, 2544, Note_on_c, 1, 60, 75
4, 2589, Note_on_c, 1, 60, 0
4, 2592, Note_on_c, 1, 62, 75
4, 2592, Note_on_c, 1, 55, 75
4, 2637, Note_on_c, 1, 62, 0
4, 2637, Note_on_c, 1, 55, 0
4, 2640, Note_on_c, 1, 60, 75
4, 2685, Note_on_c, 1, 60, 0
4, 2688, Note_on_c, 1, 72, 75
4, 2733, Note_on_c, 1, 72, 0
4, 2736, Note_on_c, 1, 71, 75
4, 2781, Note_on_c, 1, 71, 0
4, 2784, Note_on_c, 1, 69, 75
4, 2829, Note_on_c, 1, 69, 0
4, 2832, Note_on_c, 1, 67, 75
4, 2877, Note_on_c, 1, 67, 0
4, 2880, Note_on_c, 1, 69, 75
4, 2925, Note_on_c, 1, 69, 0
4, 2928, Note_on_c, 1, 66, 75
4, 2973, Note_on_c, 1, 66, 0
4, 2976, Note_on_c, 1, 62, 75
4, 3021, Note_on_c, 1, 62, 0
4, 3024, Note_on_c, 1, 67, 75
4, 3069, Note_on_c, 1, 67, 0
4, 3072, Note_on_c, 1, 55, 75
4, 3117, Note_on_c, 1, 55, 0
4, 3120, Note_on_c, 1, 59, 75
4, 3165, Note_on_c, 1, 59, 0
4, 3168, Note_on_c, 1, 60, 70
4, 3213, Note_on_c, 1, 60, 0
4, 3216, Note_on_c, 1, 59, 70
4, 3261, Note_on_c, 1, 59, 0
4, 3264, Note_on_c, 1, 60, 71
4, 3309, Note_on_c, 1, 60, 0
4, 3312, Note_on_c, 1, 62, 72
4, 3357, Note_on_c, 1, 62, 0
4, 3360, Note_on_c, 1, 60, 72
4, 3405, Note_on_c, 1, 60, 0
4, 3408, Note_on_c, 1, 62, 73
4, 3453, Note_on_c, 1, 62, 0
4, 3456, Note_on_c, 1, 64, 74
4, 3501, Note_on_c, 1, 64, 0
4, 3504, Note_on_c, 1, 62, 74
4, 3549, Note_on_c, 1, 62, 0
4, 3552, Note_on_c, 1, 64, 75
4, 3597, Note_on_c, 1, 64, 0
4, 3600, Note_on_c, 1, 62, 76
4, 3645, Note_on_c, 1, 62, 0
4, 3648, Note_on_c, 1, 64, 76
4, 3693, Note_on_c, 1, 64, 0
4, 3696, Note_on_c, 1, 66, 77
4, 3741, Note_on_c, 1, 66, 0
4, 3744, Note_on_c, 1, 67, 78
4, 3789, Note_on_c, 1, 67, 0
4, 3792, Note_on_c, 1, 66, 78
4, 3837, Note_on_c, 1, 66, 0
4, 3840, Note_on_c, 1, 68, 79
4, 3885, Note_on_c, 1, 68, 0
4, 3888, Note_on_c, 1, 69, 80
4, 3933, Note_on_c, 1, 69, 0
4, 3936, Note_on_c, 1, 68, 80
4, 3981, Note_on_c, 1, 68, 0
4, 3984, Note_on_c, 1, 70, 80
4, 4029, Note_on_c, 1, 70, 0
4, 4032, Note_on_c, 1, 71, 80
4, 4077, Note_on_c, 1, 71, 0
4, 4080, Note_on_c, 1, 68, 80
4, 4125, Note_on_c, 1, 68, 0
4, 4128, Note_on_c, 1, 69, 80
4, 4173, Note_on_c, 1, 69, 0
4, 4176, Note_on_c, 1, 66, 80
4, 4221, Note_on_c, 1, 66, 0
4, 4224, Note_on_c, 1, 67, 78
4, 4269, Note_on_c, 1, 67, 0
4, 4272, Note_on_c, 1, 64, 76
4, 4317, Note_on_c, 1, 64, 0
4, 4320, Note_on_c, 1, 62, 75
4, 4365, Note_on_c, 1, 62, 0
4, 4416, Note_on_c, 1, 62, 75
4, 4416, Note_on_c, 1, 59, 75
4, 4464, Note_on_c, 1, 62, 0
4, 4464, Note_on_c, 1, 55, 75
4, 4484, Note_on_c, 1, 59, 0
4, 4484, Note_on_c, 1, 55, 0
4, 4560, Note_on_c, 1, 62, 75
4, 4560, Note_on_c, 1, 59, 75
4, 4608, Note_on_c, 1, 62, 0
4, 4608, Note_on_c, 1, 55, 75
4, 4628, Note_on_c, 1, 59, 0
4, 4628, Note_on_c, 1, 55, 0
4, 4704, Note_on_c, 1, 76, 75
4, 4752, Note_on_c, 1, 76, 0
4, 4752, Note_on_c, 1, 74, 75
4, 4772, Note_on_c, 1, 74, 0
4, 4800, Note_on_c, 1, 72, 75
4, 4848, Note_on_c, 1, 72, 0
4, 4848, Note_on_c, 1, 71, 75
4, 4868, Note_on_c, 1, 71, 0
4, 4896, Note_on_c, 1, 60, 75
4, 4941, Note_on_c, 1, 60, 0
4, 4944, Note_on_c, 1, 62, 75
4, 4989, Note_on_c, 1, 62, 0
4, 4992, Note_on_c, 1, 50, 75
4, 5037, Note_on_c, 1, 50, 0
4, 5040, Note_on_c, 1, 55, 75
4, 5063, Note_on_c, 1, 55, 0
4, 5064, Note_on_c, 1, 62, 75
4, 5087, Note_on_c, 1, 62, 0
4, 5088, Note_on_c, 1, 59, 75
4, 5111, Note_on_c, 1, 59, 0
4, 5112, Note_on_c, 1, 62, 75
4, 5135, Note_on_c, 1, 62, 0
4, 5136, Note_on_c, 1, 55, 75
4, 5159, Note_on_c, 1, 55, 0
4, 5160, Note_on_c, 1, 62, 75
4, 5183, Note_on_c, 1, 62, 0
4, 5184, Note_on_c, 1, 54, 75
4, 5207, Note_on_c, 1, 54, 0
4, 5208, Note_on_c, 1, 62, 75
4, 5231, Note_on_c, 1, 62, 0
4, 5232, Note_on_c, 1, 57, 75
4, 5255, Note_on_c, 1, 57, 0
4, 5256, Note_on_c, 1, 62, 75
4, 5279, Note_on_c, 1, 62, 0
4, 5280, Note_on_c, 1, 54, 75
4, 5303, Note_on_c, 1, 54, 0
4, 5304, Note_on_c, 1, 62, 75
4, 5327, Note_on_c, 1, 62, 0
4, 5328, Note_on_c, 1, 55, 75
4, 5351, Note_on_c, 1, 55, 0
4, 5352, Note_on_c, 1, 62, 75
4, 5375, Note_on_c, 1, 62, 0
4, 5376, Note_on_c, 1, 59, 75
4, 5399, Note_on_c, 1, 59, 0
4, 5400, Note_on_c, 1, 62, 75
4, 5423, Note_on_c, 1, 62, 0
4, 5424, Note_on_c, 1, 55, 75
4, 5447, Note_on_c, 1, 55, 0
4, 5448, Note_on_c, 1, 62, 75
4, 5471, Note_on_c, 1, 62, 0
4, 5472, Note_on_c, 1, 50, 75
4, 5495, Note_on_c, 1, 50, 0
4, 5496, Note_on_c, 1, 62, 75
4, 5519, Note_on_c, 1, 62, 0
4, 5520, Note_on_c, 1, 54, 75
4, 5543, Note_on_c, 1, 54, 0
4, 5544, Note_on_c, 1, 62, 75
4, 5567, Note_on_c, 1, 62, 0
4, 5568, Note_on_c, 1, 50, 75
4, 5591, Note_on_c, 1, 50, 0
4, 5592, Note_on_c, 1, 62, 75
4, 5615, Note_on_c, 1, 62, 0
4, 5616, Note_on_c, 1, 55, 75
4, 5639, Note_on_c, 1, 55, 0
4, 5640, Note_on_c, 1, 62, 73
4, 5663, Note_on_c, 1, 62, 0
4, 5664, Note_on_c, 1, 59, 72
4, 5687, Note_on_c, 1, 59, 0
4, 5688, Note_on_c, 1, 62, 71
4, 5711, Note_on_c, 1, 62, 0
4, 5712, Note_on_c, 1, 55, 70
4, 5735, Note_on_c, 1, 55, 0
4, 5736, Note_on_c, 1, 62, 70
4, 5759, Note_on_c, 1, 62, 0
4, 5760, Note_on_c, 1, 54, 70
4, 5783, Note_on_c, 1, 54, 0
4, 5784, Note_on_c, 1, 62, 70
4, 5807, Note_on_c, 1, 62, 0
4, 5808, Note_on_c, 1, 57, 70
4, 5831, Note_on_c, 1, 57, 0
4, 5832, Note_on_c, 1, 62, 70
4, 5855, Note_on_c, 1, 62, 0
4, 5856, Note_on_c, 1, 54, 70
4, 5879, Note_on_c, 1, 54, 0
4, 5880, Note_on_c, 1, 62, 70
4, 5903, Note_on_c, 1, 62, 0
4, 5904, Note_on_c, 1, 55, 70
4, 5927, Note_on_c, 1, 55, 0
4, 5928, Note_on_c, 1, 62, 70
4, 5951, Note_on_c, 1, 62, 0
4, 5952, Note_on_c, 1, 59, 70
4, 5975, Note_on_c, 1, 59, 0
4, 5976, Note_on_c, 1, 62, 70
4, 5999, Note_on_c, 1, 62, 0
4, 6000, Note_on_c, 1, 55, 70
4, 6023, Note_on_c, 1, 55, 0
4, 6024, Note_on_c, 1, 62, 70
4, 6047, Note_on_c, 1, 62, 0
4, 6048, Note_on_c, 1, 50, 70
4, 6071, Note_on_c, 1, 50, 0
4, 6072, Note_on_c, 1, 62, 70
4, 6095, Note_on_c, 1, 62, 0
4, 6096, Note_on_c, 1, 54, 70
4, 6119, Note_on_c, 1, 54, 0
4, 6120, Note_on_c, 1, 62, 70
4, 6143, Note_on_c, 1, 62, 0
4, 6144, Note_on_c, 1, 50, 70
4, 6167, Note_on_c, 1, 50, 0
4, 6168, Note_on_c, 1, 62, 70
4, 6191, Note_on_c, 1, 62, 0
4, 6192, Note_on_c, 1, 59, 70
4, 6192, Note_on_c, 1, 55, 70
4, 6237, Note_on_c, 1, 59, 0
4, 6237, Note_on_c, 1, 55, 0
4, 6384, Note_on_c, 1, 64, 75
4, 6384, Note_on_c, 1, 60, 75
4, 6429, Note_on_c, 1, 64, 0
4, 6429, Note_on_c, 1, 60, 0
4, 6528, Note_on_c, 1, 65, 75
4, 6528, Note_on_c, 1, 62, 75
4, 6573, Note_on_c, 1, 65, 0
4, 6573, Note_on_c, 1, 62, 0
4, 6672, Note_on_c, 1, 64, 75
4, 6717, Note_on_c, 1, 64, 0
4, 6720, Note_on_c, 1, 60, 75
4, 6765, Note_on_c, 1, 60, 0
4, 6768, Note_on_c, 1, 62, 75
4, 6768, Note_on_c, 1, 55, 75
4, 6813, Note_on_c, 1, 62, 0
4, 6813, Note_on_c, 1, 55, 0
4, 6816, Note_on_c, 1, 60, 75
4, 6861, Note_on_c, 1, 60, 0
4, 6960, Note_on_c, 1, 64, 75
4, 6960, Note_on_c, 1, 60, 75
4, 7005, Note_on_c, 1, 64, 0
4, 7005, Note_on_c, 1, 60, 0
4, 7104, Note_on_c, 1, 65, 75
4, 7104, Note_on_c, 1, 62, 75
4, 7149, Note_on_c, 1, 65, 0
4, 7149, Note_on_c, 1, 62, 0
4, 7248, Note_on_c, 1, 64, 75
4, 7293, Note_on_c, 1, 64, 0
4, 7296, Note_on_c, 1, 60, 75
4, 7341, Note_on_c, 1, 60, 0
4, 7344, Note_on_c, 1, 62, 75
4, 7344, Note_on_c, 1, 55, 75
4, 7389, Note_on_c, 1, 62, 0
4, 7389, Note_on_c, 1, 55, 0
4, 7392, Note_on_c, 1, 60, 75
4, 7437, Note_on_c, 1, 60, 0
4, 7488, Note_on_c, 1, 57, 75
4, 7533, Note_on_c, 1, 57, 0
4, 7536, Note_on_c, 1, 55, 75
4, 7581, Note_on_c, 1, 55, 0
4, 7584, Note_on_c, 1, 53, 75
4, 7629, Note_on_c, 1, 53, 0
4, 7632, Note_on_c, 1, 52, 75
4, 7677, Note_on_c, 1, 52, 0
4, 7680, Note_on_c, 1, 50, 75
4, 7725, Note_on_c, 1, 50, 0
4, 7728, Note_on_c, 1, 48, 75
4, 7773, Note_on_c, 1, 48, 0
4, 7776, Note_on_c, 1, 57, 75
4, 7821, Note_on_c, 1, 57, 0
4, 7824, Note_on_c, 1, 55, 75
4, 7869, Note_on_c, 1, 55, 0
4, 7872, Note_on_c, 1, 53, 75
4, 7917, Note_on_c, 1, 53, 0
4, 7920, Note_on_c, 1, 52, 75
4, 7965, Note_on_c, 1, 52, 0
4, 7968, Note_on_c, 1, 50, 75
4, 8013, Note_on_c, 1, 50, 0
4, 8016, Note_on_c, 1, 48, 75
4, 8061, Note_on_c, 1, 48, 0
4, 8064, Note_on_c, 1, 47, 75
4, 8153, Note_on_c, 1, 47, 0
4, 8160, Note_on_c, 1, 48, 75
4, 8205, Note_on_c, 1, 48, 0
4, 8208, Note_on_c, 1, 43, 75
4, 8253, Note_on_c, 1, 43, 0
4, 8400, Note_on_c, 1, 64, 75
4, 8400, Note_on_c, 1, 60, 75
4, 8445, Note_on_c, 1, 64, 0
4, 8445, Note_on_c, 1, 60, 0
4, 8544, Note_on_c, 1, 65, 75
4, 8544, Note_on_c, 1, 62, 75
4, 8589, Note_on_c, 1, 65, 0
4, 8589, Note_on_c, 1, 62, 0
4, 8688, Note_on_c, 1, 64, 75
4, 8733, Note_on_c, 1, 64, 0
4, 8736, Note_on_c, 1, 60, 75
4, 8781, Note_on_c, 1, 60, 0
4, 8784, Note_on_c, 1, 62, 75
4, 8784, Note_on_c, 1, 55, 75
4, 8829, Note_on_c, 1, 62, 0
4, 8829, Note_on_c, 1, 55, 0
4, 8832, Note_on_c, 1, 60, 75
4, 8877, Note_on_c, 1, 60, 0
4, 8880, Note_on_c, 1, 72, 75
4, 8925, Note_on_c, 1, 72, 0
4, 8928, Note_on_c, 1, 71, 75
4, 8973, Note_on_c, 1, 71, 0
4, 8976, Note_on_c, 1, 69, 75
4, 9021, Note_on_c, 1, 69, 0
4, 9024, Note_on_c, 1, 67, 75
4, 9069, Note_on_c, 1, 67, 0
4, 9072, Note_on_c, 1, 69, 75
4, 9117, Note_on_c, 1, 69, 0
4, 9120, Note_on_c, 1, 66, 75
4, 9165, Note_on_c, 1, 66, 0
4, 9168, Note_on_c, 1, 62, 75
4, 9213, Note_on_c, 1, 62, 0
4, 9216, Note_on_c, 1, 67, 75
4, 9261, Note_on_c, 1, 67, 0
4, 9264, Note_on_c, 1, 55, 75
4, 9309, Note_on_c, 1, 55, 0
4, 9312, Note_on_c, 1, 59, 75
4, 9357, Note_on_c, 1, 59, 0
4, 9360, Note_on_c, 1, 60, 70
4, 9405, Note_on_c, 1, 60, 0
4, 9408, Note_on_c, 1, 59, 70
4, 9453, Note_on_c, 1, 59, 0
4, 9456, Note_on_c, 1, 60, 71
4, 9501, Note_on_c, 1, 60, 0
4, 9504, Note_on_c, 1, 62, 72
4, 9549, Note_on_c, 1, 62, 0
4, 9552, Note_on_c, 1, 60, 72
4, 9597, Note_on_c, 1, 60, 0
4, 9600, Note_on_c, 1, 62, 73
4, 9645, Note_on_c, 1, 62, 0
4, 9648, Note_on_c, 1, 64, 74
4, 9693, Note_on_c, 1, 64, 0
4, 9696, Note_on_c, 1, 62, 74
4, 9741, Note_on_c, 1, 62, 0
4, 9744, Note_on_c, 1, 64, 75
4, 9789, Note_on_c, 1, 64, 0
4, 9792, Note_on_c, 1, 62, 76
4, 9837, Note_on_c, 1, 62, 0
4, 9840, Note_on_c, 1, 64, 76
4, 9885, Note_on_c, 1, 64, 0
4, 9888, Note_on_c, 1, 66, 77
4, 9933, Note_on_c, 1, 66, 0
4, 9936, Note_on_c, 1, 67, 78
4, 9981, Note_on_c, 1, 67, 0
4, 9984, Note_on_c, 1, 66, 78
4, 10029, Note_on_c, 1, 66, 0
4, 10032, Note_on_c, 1, 68, 79
4, 10077, Note_on_c, 1, 68, 0
4, 10080, Note_on_c, 1, 69, 80
4, 10125, Note_on_c, 1, 69, 0
4, 10128, Note_on_c, 1, 68, 80
4, 10173, Note_on_c, 1, 68, 0
4, 10176, Note_on_c, 1, 70, 80
4, 10221, Note_on_c, 1, 70, 0
4, 10224, Note_on_c, 1, 71, 80
4, 10269, Note_on_c, 1, 71, 0
4, 10272, Note_on_c, 1, 68, 80
4, 10317, Note_on_c, 1, 68, 0
4, 10320, Note_on_c, 1, 69, 80
4, 10365, Note_on_c, 1, 69, 0
4, 10368, Note_on_c, 1, 66, 80
4, 10413, Note_on_c, 1, 66, 0
4, 10416, Note_on_c, 1, 67, 78
4, 10461, Note_on_c, 1, 67, 0
4, 10464, Note_on_c, 1, 64, 76
4, 10509, Note_on_c, 1, 64, 0
4, 10512, Note_on_c, 1, 62, 75
4, 10557, Note_on_c, 1, 62, 0
4, 10608, Note_on_c, 1, 62, 75
4, 10608, Note_on_c, 1, 59, 75
4, 10656, Note_on_c, 1, 62, 0
4, 10656, Note_on_c, 1, 55, 75
4, 10676, Note_on_c, 1, 59, 0
4, 10676, Note_on_c, 1, 55, 0
4, 10752, Note_on_c, 1, 62, 75
4, 10752, Note_on_c, 1, 59, 75
4, 10800, Note_on_c, 1, 62, 0
4, 10800, Note_on_c, 1, 55, 75
4, 10820, Note_on_c, 1, 59, 0
4, 10820, Note_on_c, 1, 55, 0
4, 10896, Note_on_c, 1, 76, 75
4, 10944, Note_on_c, 1, 76, 0
4, 10944, Note_on_c, 1, 74, 75
4, 10964, Note_on_c, 1, 74, 0
4, 10992, Note_on_c, 1, 72, 75
4, 11040, Note_on_c, 1, 72, 0
4, 11040, Note_on_c, 1, 71, 75
4, 11060, Note_on_c, 1, 71, 0
4, 11088, Note_on_c, 1, 60, 75
4, 11133, Note_on_c, 1, 60, 0
4, 11136, Note_on_c, 1, 62, 75
4, 11181, Note_on_c, 1, 62, 0
4, 11184, Note_on_c, 1, 50, 75
4, 11229, Note_on_c, 1, 50, 0
4, 11232, Note_on_c, 1, 55, 75
4, 11255, Note_on_c, 1, 55, 0
4, 11256, Note_on_c, 1, 62, 75
4, 11279, Note_on_c, 1, 62, 0
4, 11280, Note_on_c, 1, 59, 75
4, 11303, Note_on_c, 1, 59, 0
4, 11304, Note_on_c, 1, 62, 75
4, 11327, Note_on_c, 1, 62, 0
4, 11328, Note_on_c, 1, 55, 75
4, 11351, Note_on_c, 1, 55, 0
4, 11352, Note_on_c, 1, 62, 75
4, 11375, Note_on_c, 1, 62, 0
4, 11376, Note_on_c, 1, 54, 75
4, 11399, Note_on_c, 1, 54, 0
4, 11400, Note_on_c, 1, 62, 75
4, 11423, Note_on_c, 1, 62, 0
4, 11424, Note_on_c, 1, 57, 75
4, 11447, Note_on_c, 1, 57, 0
4, 11448, Note_on_c, 1, 62, 75
4, 11471, Note_on_c, 1, 62, 0
4, 11472, Note_on_c, 1, 54, 75
4, 11495, Note_on_c, 1, 54, 0
4, 11496, Note_on_c, 1, 62, 75
4, 11519, Note_on_c, 1, 62, 0
4, 11520, Note_on_c, 1, 55, 75
4, 11543, Note_on_c, 1, 55, 0
4, 11544, Note_on_c, 1, 62, 75
4, 11567, Note_on_c, 1, 62, 0
4, 11568, Note_on_c, 1, 59, 75
4, 11591, Note_on_c, 1, 59, 0
4, 11592, Note_on_c, 1, 62, 75
4, 11615, Note_on_c, 1, 62, 0
4, 11616, Note_on_c, 1, 55, 75
4, 11639, Note_on_c, 1, 55, 0
4, 11640, Note_on_c, 1, 62, 75
4, 11663, Note_on_c, 1, 62, 0
4, 11664, Note_on_c, 1, 50, 75
4, 11687, Note_on_c, 1, 50, 0
4, 11688, Note_on_c, 1, 62, 75
4, 11711, Note_on_c, 1, 62, 0
4, 11712, Note_on_c, 1, 54, 75
4, 11735, Note_on_c, 1, 54, 0
4, 11736, Note_on_c, 1, 62, 75
4, 11759, Note_on_c, 1, 62, 0
4, 11760, Note_on_c, 1, 50, 75
4, 11783, Note_on_c, 1, 50, 0
4, 11784, Note_on_c, 1, 62, 75
4, 11807, Note_on_c, 1, 62, 0
4, 11808, Note_on_c, 1, 55, 75
4, 11831, Note_on_c, 1, 55, 0
4, 11832, Note_on_c, 1, 62, 73
4, 11855, Note_on_c, 1, 62, 0
4, 11856, Note_on_c, 1, 59, 72
4, 11879, Note_on_c, 1, 59, 0
4, 11880, Note_on_c, 1, 62, 71
4, 11903, Note_on_c, 1, 62, 0
4, 11904, Note_on_c, 1, 55, 70
4, 11927, Note_on_c, 1, 55, 0
4, 11928, Note_on_c, 1, 62, 70
4, 11951, Note_on_c, 1, 62, 0
4, 11952, Note_on_c, 1, 54, 70
4, 11975, Note_on_c, 1, 54, 0
4, 11976, Note_on_c, 1, 62, 70
4, 11999, Note_on_c, 1, 62, 0
4, 12000, Note_on_c, 1, 57, 70
4, 12023, Note_on_c, 1, 57, 0
4, 12024, Note_on_c, 1, 62, 70
4, 12047, Note_on_c, 1, 62, 0
4, 12048, Note_on_c, 1, 54, 70
4, 12071, Note_on_c, 1, 54, 0
4, 12072, Note_on_c, 1, 62, 70
4, 12095, Note_on_c, 1, 62, 0
4, 12096, Note_on_c, 1, 55, 70
4, 12119, Note_on_c, 1, 55, 0
4, 12120, Note_on_c, 1, 62, 70
4, 12143, Note_on_c, 1, 62, 0
4, 12144, Note_on_c, 1, 59, 70
4, 12167, Note_on_c, 1, 59, 0
4, 12168, Note_on_c, 1, 62, 70
4, 12191, Note_on_c, 1, 62, 0
4, 12192, Note_on_c, 1, 55, 70
4, 12215, Note_on_c, 1, 55, 0
4, 12216, Note_on_c, 1, 62, 70
4, 12239, Note_on_c, 1, 62, 0
4, 12240, Note_on_c, 1, 50, 70
4, 12263, Note_on_c, 1, 50, 0
4, 12264, Note_on_c, 1, 62, 70
4, 12287, Note_on_c, 1, 62, 0
4, 12288, Note_on_c, 1, 54, 70
4, 12311, Note_on_c, 1, 54, 0
4, 12312, Note_on_c, 1, 62, 70
4, 12335, Note_on_c, 1, 62, 0
4, 12336, Note_on_c, 1, 50, 70
4, 12359, Note_on_c, 1, 50, 0
4, 12360, Note_on_c, 1, 62, 70
4, 12383, Note_on_c, 1, 62, 0
4, 12384, Note_on_c, 1, 59, 70
4, 12384, Note_on_c, 1, 55, 70
4, 12429, Note_on_c, 1, 59, 0
4, 12429, Note_on_c, 1, 55, 0
4, 12528, Note_on_c, 1, 47, 80
4, 12573, Note_on_c, 1, 47, 0
4, 12576, Note_on_c, 1, 48, 80
4, 12621, Note_on_c, 1, 48, 0
4, 12624, Note_on_c, 1, 50, 80
4, 12669, Note_on_c, 1, 50, 0
4, 12672, Note_on_c, 1, 51, 80
4, 12717, Note_on_c, 1, 51, 0
4, 12720, Note_on_c, 1, 59, 80
4, 12765, Note_on_c, 1, 59, 0
4, 12768, Note_on_c, 1, 60, 80
4, 12813, Note_on_c, 1, 60, 0
4, 12816, Note_on_c, 1, 59, 80
4, 12861, Note_on_c, 1, 59, 0
4, 12864, Note_on_c, 1, 60, 80
4, 12909, Note_on_c, 1, 60, 0
4, 12912, Note_on_c, 1, 57, 80
4, 12957, Note_on_c, 1, 57, 0
4, 12960, Note_on_c, 1, 55, 80
4, 12980, Note_on_c, 1, 55, 0
4, 13008, Note_on_c, 1, 59, 80
4, 13028, Note_on_c, 1, 59, 0
4, 13056, Note_on_c, 1, 62, 80
4, 13076, Note_on_c, 1, 62, 0
4, 13104, Note_on_c, 1, 65, 80
4, 13124, Note_on_c, 1, 65, 0
4, 13152, Note_on_c, 1, 62, 80
4, 13172, Note_on_c, 1, 62, 0
4, 13200, Note_on_c, 1, 63, 80
4, 13220, Note_on_c, 1, 63, 0
4, 13248, Note_on_c, 1, 55, 80
4, 13268, Note_on_c, 1, 55, 0
4, 13296, Note_on_c, 1, 59, 80
4, 13316, Note_on_c, 1, 59, 0
4, 13344, Note_on_c, 1, 62, 80
4, 13364, Note_on_c, 1, 62, 0
4, 13392, Note_on_c, 1, 65, 80
4, 13412, Note_on_c, 1, 65, 0
4, 13440, Note_on_c, 1, 62, 80
4, 13460, Note_on_c, 1, 62, 0
4, 13488, Note_on_c, 1, 63, 80
4, 13508, Note_on_c, 1, 63, 0
4, 13536, Note_on_c, 1, 53, 80
4, 13669, Note_on_c, 1, 53, 0
4, 13680, Note_on_c, 1, 58, 80
4, 13813, Note_on_c, 1, 58, 0
4, 13824, Note_on_c, 1, 51, 80
4, 13957, Note_on_c, 1, 51, 0
4, 13968, Note_on_c, 1, 56, 80
4, 14101, Note_on_c, 1, 56, 0
4, 14112, Note_on_c, 1, 50, 80
4, 14245, Note_on_c, 1, 50, 0
4, 14256, Note_on_c, 1, 55, 80
4, 14389, Note_on_c, 1, 55, 0
4, 14400, Note_on_c, 1, 48, 80
4, 14489, Note_on_c, 1, 48, 0
4, 14496, Note_on_c, 1, 58, 80
4, 14541, Note_on_c, 1, 58, 0
4, 14544, Note_on_c, 1, 57, 80
4, 14633, Note_on_c, 1, 57, 0
4, 14640, Note_on_c, 1, 56, 80
4, 14685, Note_on_c, 1, 56, 0
4, 14688, Control_c, 1, 64, 127
4, 14688, Note_on_c, 1, 55, 80
4, 14821, Note_on_c, 1, 55, 0
4, 14832, Control_c, 1, 64, 0
4, 14832, Control_c, 1, 64, 127
4, 14832, Note_on_c, 1, 53, 80
4, 14832, Note_on_c, 1, 41, 80
4, 14965, Note_on_c, 1, 53, 0
4, 14965, Note_on_c, 1, 41, 0
4, 14976, Control_c, 1, 64, 0
4, 14976, Control_c, 1, 64, 127
4, 14976, Note_on_c, 1, 52, 80
4, 14976, Note_on_c, 1, 40, 80
4, 15397, Note_on_c, 1, 52, 0
4, 15397, Note_on_c, 1, 40, 0
4, 15552, Control_c, 1, 64, 0
4, 15600, Note_on_c, 1, 60, 75
4, 15600, Note_on_c, 1, 57, 75
4, 15645, Note_on_c, 1, 60, 0
4, 15645, Note_on_c, 1, 57, 0
4, 15744, Note_on_c, 1, 62, 75
4, 15744, Note_on_c, 1, 59, 75
4, 15789, Note_on_c, 1, 62, 0
4, 15789, Note_on_c, 1, 59, 0
4, 15888, Note_on_c, 1, 60, 75
4, 15933, Note_on_c, 1, 60, 0
4, 15936, Note_on_c, 1, 57, 75
4, 15981, Note_on_c, 1, 57, 0
4, 15984, Note_on_c, 1, 59, 75
4, 15984, Note_on_c, 1, 52, 75
4, 16029, Note_on_c, 1, 59, 0
4, 16029, Note_on_c, 1, 52, 0
4, 16032, Note_on_c, 1, 57, 75
4, 16077, Note_on_c, 1, 57, 0
4, 16320, Note_on_c, 1, 69, 70
4, 16320, Note_on_c, 1, 65, 70
4, 16365, Note_on_c, 1, 69, 0
4, 16365, Note_on_c, 1, 65, 0
4, 16464, Note_on_c, 1, 70, 70
4, 16464, Note_on_c, 1, 67, 70
4, 16509, Note_on_c, 1, 70, 0
4, 16509, Note_on_c, 1, 67, 0
4, 16608, Note_on_c, 1, 69, 70
4, 16653, Note_on_c, 1, 69, 0
4, 16656, Note_on_c, 1, 65, 70
4, 16701, Note_on_c, 1, 65, 0
4, 16704, Note_on_c, 1, 67, 70
4, 16704, Note_on_c, 1, 60, 70
4, 16749, Note_on_c, 1, 67, 0
4, 16749, Note_on_c, 1, 60, 0
4, 16752, Note_on_c, 1, 65, 70
4, 16797, Note_on_c, 1, 65, 0
4, 16848, Note_on_c, 1, 61, 75
4, 16871, Note_on_c, 1, 61, 0
4, 16872, Note_on_c, 1, 69, 75
4, 16895, Note_on_c, 1, 69, 0
4, 16896, Note_on_c, 1, 64, 75
4, 16919, Note_on_c, 1, 64, 0
4, 16920, Note_on_c, 1, 69, 75
4, 16943, Note_on_c, 1, 69, 0
4, 16944, Note_on_c, 1, 61, 75
4, 16967, Note_on_c, 1, 61, 0
4, 16968, Note_on_c, 1, 69, 75
4, 16991, Note_on_c, 1, 69, 0
4, 16992, Note_on_c, 1, 62, 75
4, 17015, Note_on_c, 1, 62, 0
4, 17016, Note_on_c, 1, 69, 75
4, 17039, Note_on_c, 1, 69, 0
4, 17040, Note_on_c, 1, 65, 75
4, 17063, Note_on_c, 1, 65, 0
4, 17064, Note_on_c, 1, 69, 75
4, 17087, Note_on_c, 1, 69, 0
4, 17088, Note_on_c, 1, 62, 75
4, 17111, Note_on_c, 1, 62, 0
4, 17112, Note_on_c, 1, 69, 75
4, 17135, Note_on_c, 1, 69, 0
4, 17136, Note_on_c, 1, 59, 75
4, 17159, Note_on_c, 1, 59, 0
4, 17160, Note_on_c, 1, 67, 75
4, 17183, Note_on_c, 1, 67, 0
4, 17184, Note_on_c, 1, 62, 75
4, 17207, Note_on_c, 1, 62, 0
4, 17208, Note_on_c, 1, 67, 75
4, 17231, Note_on_c, 1, 67, 0
4, 17232, Note_on_c, 1, 59, 75
4, 17255, Note_on_c, 1, 59, 0
4, 17256, Note_on_c, 1, 67, 75
4, 17279, Note_on_c, 1, 67, 0
4, 17280, Note_on_c, 1, 60, 75
4, 17369, Note_on_c, 1, 60, 0
4, 17472, Note_on_c, 1, 64, 75
4, 17472, Note_on_c, 1, 60, 75
4, 17517, Note_on_c, 1, 64, 0
4, 17517, Note_on_c, 1, 60, 0
4, 17616, Note_on_c, 1, 65, 75
4, 17616, Note_on_c, 1, 62, 75
4, 17661, Note_on_c, 1, 65, 0
4, 17661, Note_on_c, 1, 62, 0
4, 17760, Note_on_c, 1, 64, 75
4, 17805, Note_on_c, 1, 64, 0
4, 17808, Note_on_c, 1, 60, 75
4, 17853, Note_on_c, 1, 60, 0
4, 17856, Note_on_c, 1, 62, 75
4, 17856, Note_on_c, 1, 55, 75
4, 17901, Note_on_c, 1, 62, 0
4, 17901, Note_on_c, 1, 55, 0
4, 17904, Note_on_c, 1, 60, 75
4, 17949, Note_on_c, 1, 60, 0
4, 18048, Note_on_c, 1, 64, 75
4, 18048, Note_on_c, 1, 60, 75
4, 18093, Note_on_c, 1, 64, 0
4, 18093, Note_on_c, 1, 60, 0
4, 18192, Note_on_c, 1, 65, 75
4, 18192, Note_on_c, 1, 62, 75
4, 18237, Note_on_c, 1, 65, 0
4, 18237, Note_on_c, 1, 62, 0
4, 18336, Note_on_c, 1, 64, 75
4, 18381, Note_on_c, 1, 64, 0
4, 18384, Note_on_c, 1, 60, 75
4, 18429, Note_on_c, 1, 60, 0
4, 18432, Note_on_c, 1, 62, 75
4, 18432, Note_on_c, 1, 55, 75
4, 18477, Note_on_c, 1, 62, 0
4, 18477, Note_on_c, 1, 55, 0
4, 18480, Note_on_c, 1, 60, 75
4, 18525, Note_on_c, 1, 60, 0
4, 18576, Note_on_c, 1, 57, 75
4, 18621, Note_on_c, 1, 57, 0
4, 18624, Note_on_c, 1, 55, 75
4, 18669, Note_on_c, 1, 55, 0
4, 18672, Note_on_c, 1, 53, 75
4, 18717, Note_on_c, 1, 53, 0
4, 18720, Note_on_c, 1, 52, 75
4, 18765, Note_on_c, 1, 52, 0
4, 18768, Note_on_c, 1, 50, 76
4, 18813, Note_on_c, 1, 50, 0
4, 18816, Note_on_c, 1, 48, 76
4, 18861, Note_on_c, 1, 48, 0
4, 18864, Note_on_c, 1, 57, 76
4, 18909, Note_on_c, 1, 57, 0
4, 18912, Note_on_c, 1, 55, 77
4, 18957, Note_on_c, 1, 55, 0
4, 18960, Note_on_c, 1, 53, 77
4, 19005, Note_on_c, 1, 53, 0
4, 19008, Note_on_c, 1, 52, 78
4, 19053, Note_on_c, 1, 52, 0
4, 19056, Note_on_c, 1, 50, 78
4, 19101, Note_on_c, 1, 50, 0
4, 19104, Note_on_c, 1, 48, 78
4, 19149, Note_on_c, 1, 48, 0
4, 19152, Note_on_c, 1, 47, 79
4, 19241, Note_on_c, 1, 47, 0
4, 19248, Note_on_c, 1, 48, 80
4, 19293, Note_on_c, 1, 48, 0
4, 19296, Note_on_c, 1, 43, 80
4, 19341, Note_on_c, 1, 43, 0
4, 19392, Note_on_c, 1, 65, 64
4, 19437, Note_on_c, 1, 65, 0
4, 19440, Note_on_c, 1, 64, 64
4, 19485, Note_on_c, 1, 64, 0
4, 19488, Note_on_c, 1, 62, 64
4, 19533, Note_on_c, 1, 62, 0
4, 19536, Note_on_c, 1, 60, 64
4, 19581, Note_on_c, 1, 60, 0
4, 19584, Note_on_c, 1, 62, 64
4, 19629, Note_on_c, 1, 62, 0
4, 19632, Note_on_c, 1, 59, 64
4, 19677, Note_on_c, 1, 59, 0
4, 19680, Note_on_c, 1, 55, 64
4, 19725, Note_on_c, 1, 55, 0
4, 19728, Note_on_c, 1, 60, 64
4, 19773, Note_on_c, 1, 60, 0
4, 19776, Note_on_c, 1, 48, 64
4, 19821, Note_on_c, 1, 48, 0
4, 19824, Note_on_c, 1, 52, 64
4, 19869, Note_on_c, 1, 52, 0
4, 19872, Note_on_c, 1, 53, 64
4, 19917, Note_on_c, 1, 53, 0
4, 19920, Note_on_c, 1, 52, 70
4, 19965, Note_on_c, 1, 52, 0
4, 19968, Note_on_c, 1, 53, 70
4, 20013, Note_on_c, 1, 53, 0
4, 20016, Note_on_c, 1, 55, 71
4, 20061, Note_on_c, 1, 55, 0
4, 20064, Note_on_c, 1, 53, 72
4, 20109, Note_on_c, 1, 53, 0
4, 20112, Note_on_c, 1, 55, 73
4, 20157, Note_on_c, 1, 55, 0
4, 20160, Note_on_c, 1, 57, 74
4, 20205, Note_on_c, 1, 57, 0
4, 20208, Note_on_c, 1, 55, 75
4, 20253, Note_on_c, 1, 55, 0
4, 20256, Note_on_c, 1, 57, 76
4, 20301, Note_on_c, 1, 57, 0
4, 20304, Note_on_c, 1, 55, 77
4, 20349, Note_on_c, 1, 55, 0
4, 20352, Note_on_c, 1, 57, 78
4, 20397, Note_on_c, 1, 57, 0
4, 20400, Note_on_c, 1, 59, 79
4, 20445, Note_on_c, 1, 59, 0
4, 20448, Note_on_c, 1, 60, 80
4, 20493, Note_on_c, 1, 60, 0
4, 20496, Note_on_c, 1, 59, 79
4, 20541, Note_on_c, 1, 59, 0
4, 20544, Note_on_c, 1, 61, 79
4, 20589, Note_on_c, 1, 61, 0
4, 20592, Note_on_c, 1, 62, 78
4, 20637, Note_on_c, 1, 62, 0
4, 20640, Note_on_c, 1, 61, 78
4, 20685, Note_on_c, 1, 61, 0
4, 20688, Note_on_c, 1, 63, 78
4, 20733, Note_on_c, 1, 63, 0
4, 20736, Note_on_c, 1, 64, 77
4, 20781, Note_on_c, 1, 64, 0
4, 20784, Note_on_c, 1, 61, 77
4, 20829, Note_on_c, 1, 61, 0
4, 20832, Note_on_c, 1, 62, 76
4, 20877, Note_on_c, 1, 62, 0
4, 20880, Note_on_c, 1, 59, 76
4, 20925, Note_on_c, 1, 59, 0
4, 20928, Note_on_c, 1, 60, 76
4, 20973, Note_on_c, 1, 60, 0
4, 20976, Note_on_c, 1, 57, 75
4, 21021, Note_on_c, 1, 57, 0
4, 21024, Note_on_c, 1, 55, 75
4, 21069, Note_on_c, 1, 55, 0
4, 21120, Note_on_c, 1, 55, 75
4, 21120, Note_on_c, 1, 52, 75
4, 21168, Note_on_c, 1, 55, 0
4, 21168, Note_on_c, 1, 48, 75
4, 21188, Note_on_c, 1, 52, 0
4, 21188, Note_on_c, 1, 48, 0
4, 21264, Note_on_c, 1, 55, 75
4, 21264, Note_on_c, 1, 52, 75
4, 21312, Note_on_c, 1, 55, 0
4, 21312, Note_on_c, 1, 48, 75
4, 21332, Note_on_c, 1, 52, 0
4, 21332, Note_on_c, 1, 48, 0
4, 21408, Note_on_c, 1, 69, 75
4, 21456, Note_on_c, 1, 69, 0
4, 21456, Note_on_c, 1, 67, 75
4, 21476, Note_on_c, 1, 67, 0
4, 21504, Note_on_c, 1, 65, 75
4, 21552, Note_on_c, 1, 65, 0
4, 21552, Note_on_c, 1, 64, 75
4, 21572, Note_on_c, 1, 64, 0
4, 21600, Note_on_c, 1, 53, 75
4, 21645, Note_on_c, 1, 53, 0
4, 21648, Note_on_c, 1, 55, 75
4, 21693, Note_on_c, 1, 55, 0
4, 21696, Note_on_c, 1, 43, 75
4, 21741, Note_on_c, 1, 43, 0
4, 21744, Note_on_c, 1, 48, 75
4, 21789, Note_on_c, 1, 48, 0
4, 21840, Note_on_c, 1, 55, 75
4, 21840, Note_on_c, 1, 52, 75
4, 21888, Note_on_c, 1, 55, 0
4, 21888, Note_on_c, 1, 48, 75
4, 21908, Note_on_c, 1, 52, 0
4, 21908, Note_on_c, 1, 48, 0
4, 21984, Note_on_c, 1, 67, 75
4, 21984, Note_on_c, 1, 64, 75
4, 22032, Note_on_c, 1, 67, 0
4, 22032, Note_on_c, 1, 60, 75
4, 22052, Note_on_c, 1, 64, 0
4, 22052, Note_on_c, 1, 60, 0
4, 22128, Note_on_c, 1, 69, 75
4, 22176, Note_on_c, 1, 69, 0
4, 22176, Note_on_c, 1, 67, 75
4, 22196, Note_on_c, 1, 67, 0
4, 22224, Note_on_c, 1, 65, 75
4, 22272, Note_on_c, 1, 65, 0
4, 22272, Note_on_c, 1, 64, 75
4, 22292, Note_on_c, 1, 64, 0
4, 22320, Note_on_c, 1, 53, 75
4, 22365, Note_on_c, 1, 53, 0
4, 22368, Note_on_c, 1, 55, 75
4, 22413, Note_on_c, 1, 55, 0
4, 22416, Note_on_c, 1, 43, 75
4, 22461, Note_on_c, 1, 43, 0
4, 22464, Note_on_c, 1, 48, 75
4, 22487, Note_on_c, 1, 48, 0
4, 22488, Note_on_c, 1, 55, 75
4, 22511, Note_on_c, 1, 55, 0
4, 22512, Note_on_c, 1, 52, 75
4, 22535, Note_on_c, 1, 52, 0
4, 22536, Note_on_c, 1, 55, 75
4, 22559, Note_on_c, 1, 55, 0
4, 22560, Note_on_c, 1, 48, 75
4, 22583, Note_on_c, 1, 48, 0
4, 22584, Note_on_c, 1, 55, 75
4, 22607, Note_on_c, 1, 55, 0
4, 22608, Note_on_c, 1, 47, 75
4, 22631, Note_on_c, 1, 47, 0
4, 22632, Note_on_c, 1, 55, 75
4, 22655, Note_on_c, 1, 55, 0
4, 22656, Note_on_c, 1, 50, 75
4, 22679, Note_on_c, 1, 50, 0
4, 22680, Note_on_c, 1, 55, 75
4, 22703, Note_on_c, 1, 55, 0
4, 22704, Note_on_c, 1, 47, 75
4, 22727, Note_on_c, 1, 47, 0
4, 22728, Note_on_c, 1, 55, 75
4, 22751, Note_on_c, 1, 55, 0
4, 22752, Note_on_c, 1, 48, 75
4, 22775, Note_on_c, 1, 48, 0
4, 22776, Note_on_c, 1, 55, 75
4, 22799, Note_on_c, 1, 55, 0
4, 22800, Note_on_c, 1, 52, 75
4, 22823, Note_on_c, 1, 52, 0
4, 22824, Note_on_c, 1, 55, 75
4, 22847, Note_on_c, 1, 55, 0
4, 22848, Note_on_c, 1, 48, 75
4, 22871, Note_on_c, 1, 48, 0
4, 22872, Note_on_c, 1, 55, 75
4, 22895, Note_on_c, 1, 55, 0
4, 22896, Note_on_c, 1, 43, 75
4, 22919, Note_on_c, 1, 43, 0
4, 22920, Note_on_c, 1, 55, 75
4, 22943, Note_on_c, 1, 55, 0
4, 22944, Note_on_c, 1, 47, 75
4, 22967, Note_on_c, 1, 47, 0
4, 22968, Note_on_c, 1, 55, 75
4, 22991, Note_on_c, 1, 55, 0
4, 22992, Note_on_c, 1, 43, 75
4, 23015, Note_on_c, 1, 43, 0
4, 23016, Note_on_c, 1, 55, 75
4, 23039, Note_on_c, 1, 55, 0
4, 23040, Note_on_c, 1, 48, 75
4, 23063, Note_on_c, 1, 48, 0
4, 23064, Note_on_c, 1, 55, 73
4, 23087, Note_on_c, 1, 55, 0
4, 23088, Note_on_c, 1, 52, 72
4, 23111, Note_on_c, 1, 52, 0
4, 23112, Note_on_c, 1, 55, 71
4, 23135, Note_on_c, 1, 55, 0
4, 23136, Note_on_c, 1, 48, 70
4, 23159, Note_on_c, 1, 48, 0
4, 23160, Note_on_c, 1, 55, 70
4, 23183, Note_on_c, 1, 55, 0
4, 23184, Note_on_c, 1, 47, 70
4, 23207, Note_on_c, 1, 47, 0
4, 23208, Note_on_c, 1, 55, 70
4, 23231, Note_on_c, 1, 55, 0
4, 23232, Note_on_c, 1, 50, 70
4, 23255, Note_on_c, 1, 50, 0
4, 23256, Note_on_c, 1, 55, 70
4, 23279, Note_on_c, 1, 55, 0
4, 23280, Note_on_c, 1, 47, 70
4, 23303, Note_on_c, 1, 47, 0
4, 23304, Note_on_c, 1, 55, 70
4, 23327, Note_on_c, 1, 55, 0
4, 23328, Note_on_c, 1, 48, 70
4, 23351, Note_on_c, 1, 48, 0
4, 23352, Note_on_c, 1, 55, 70
4, 23375, Note_on_c, 1, 55, 0
4, 23376, Note_on_c, 1, 52, 70
4, 23399, Note_on_c, 1, 52, 0
4, 23400, Note_on_c, 1, 55, 70
4, 23423, Note_on_c, 1, 55, 0
4, 23424, Note_on_c, 1, 48, 70
4, 23447, Note_on_c, 1, 48, 0
4, 23448, Note_on_c, 1, 55, 70
4, 23471, Note_on_c, 1, 55, 0
4, 23472, Note_on_c, 1, 43, 70
4, 23495, Note_on_c, 1, 43, 0
4, 23496, Note_on_c, 1, 55, 70
4, 23519, Note_on_c, 1, 55, 0
4, 23520, Note_on_c, 1, 47, 70
4, 23543, Note_on_c, 1, 47, 0
4, 23544, Note_on_c, 1, 55, 70
4, 23567, Note_on_c, 1, 55, 0
4, 23568, Note_on_c, 1, 43, 70
4, 23591, Note_on_c, 1, 43, 0
4, 23592, Note_on_c, 1, 55, 70
4, 23615, Note_on_c, 1, 55, 0
4, 23616, Note_on_c, 1, 52, 70
4, 23616, Note_on_c, 1, 48, 70
4, 23661, Note_on_c, 1, 52, 0
4, 23661, Note_on_c, 1, 48, 0
4, 23760, Note_on_c, 1, 47, 80
4, 23805, Note_on_c, 1, 47, 0
4, 23808, Note_on_c, 1, 48, 80
4, 23853, Note_on_c, 1, 48, 0
4, 23856, Note_on_c, 1, 50, 80
4, 23901, Note_on_c, 1, 50, 0
4, 23904, Note_on_c, 1, 51, 80
4, 23949, Note_on_c, 1, 51, 0
4, 23952, Note_on_c, 1, 59, 80
4, 23997, Note_on_c, 1, 59, 0
4, 24000, Note_on_c, 1, 60, 80
4, 24045, Note_on_c, 1, 60, 0
4, 24048, Note_on_c, 1, 59, 80
4, 24093, Note_on_c, 1, 59, 0
4, 24096, Note_on_c, 1, 60, 80
4, 24141, Note_on_c, 1, 60, 0
4, 24144, Note_on_c, 1, 57, 80
4, 24189, Note_on_c, 1, 57, 0
4, 24192, Note_on_c, 1, 55, 80
4, 24212, Note_on_c, 1, 55, 0
4, 24240, Note_on_c, 1, 59, 80
4, 24260, Note_on_c, 1, 59, 0
4, 24288, Note_on_c, 1, 62, 80
4, 24308, Note_on_c, 1, 62, 0
4, 24336, Note_on_c, 1, 65, 80
4, 24356, Note_on_c, 1, 65, 0
4, 24384, Note_on_c, 1, 62, 80
4, 24404, Note_on_c, 1, 62, 0
4, 24432, Note_on_c, 1, 63, 80
4, 24452, Note_on_c, 1, 63, 0
4, 24480, Note_on_c, 1, 55, 80
4, 24500, Note_on_c, 1, 55, 0
4, 24528, Note_on_c, 1, 59, 80
4, 24548, Note_on_c, 1, 59, 0
4, 24576, Note_on_c, 1, 62, 80
4, 24596, Note_on_c, 1, 62, 0
4, 24624, Note_on_c, 1, 65, 80
4, 24644, Note_on_c, 1, 65, 0
4, 24672, Note_on_c, 1, 62, 80
4, 24692, Note_on_c, 1, 62, 0
4, 24720, Note_on_c, 1, 63, 80
4, 24740, Note_on_c, 1, 63, 0
4, 24768, Note_on_c, 1, 53, 80
4, 24901, Note_on_c, 1, 53, 0
4, 24912, Note_on_c, 1, 58, 80
4, 25045, Note_on_c, 1, 58, 0
4, 25056, Note_on_c, 1, 51, 80
4, 25189, Note_on_c, 1, 51, 0
4, 25200, Note_on_c, 1, 56, 80
4, 25333, Note_on_c, 1, 56, 0
4, 25344, Note_on_c, 1, 50, 80
4, 25477, Note_on_c, 1, 50, 0
4, 25488, Note_on_c, 1, 55, 80
4, 25621, Note_on_c, 1, 55, 0
4, 25632, Note_on_c, 1, 48, 80
4, 25721, Note_on_c, 1, 48, 0
4, 25728, Note_on_c, 1, 58, 80
4, 25773, Note_on_c, 1, 58, 0
4, 25776, Note_on_c, 1, 57, 80
4, 25865, Note_on_c, 1, 57, 0
4, 25872, Note_on_c, 1, 56, 80
4, 25917, Note_on_c, 1, 56, 0
4, 25920, Control_c, 1, 64, 127
4, 25920, Note_on_c, 1, 55, 80
4, 26053, Note_on_c, 1, 55, 0
4, 26064, Control_c, 1, 64, 0
4, 26064, Control_c, 1, 64, 127
4, 26064, Note_on_c, 1, 53, 80
4, 26064, Note_on_c, 1, 41, 80
4, 26197, Note_on_c, 1, 53, 0
4, 26197, Note_on_c, 1, 41, 0
4, 26208, Control_c, 1, 64, 0
4, 26208, Control_c, 1, 64, 127
4, 26208, Note_on_c, 1, 52, 80
4, 26208, Note_on_c, 1, 40, 80
4, 26629, Note_on_c, 1, 52, 0
4, 26629, Note_on_c, 1, 40, 0
4, 26784, Control_c, 1, 64, 0
4, 26832, Note_on_c, 1, 60, 75
4, 26832, Note_on_c, 1, 57, 75
4, 26877, Note_on_c, 1, 60, 0
4, 26877, Note_on_c, 1, 57, 0
4, 26976, Note_on_c, 1, 62, 75
4, 26976, Note_on_c, 1, 59, 75
4, 27021, Note_on_c, 1, 62, 0
4, 27021, Note_on_c, 1, 59, 0
4, 27120, Note_on_c, 1, 60, 75
4, 27165, Note_on_c, 1, 60, 0
4, 27168, Note_on_c, 1, 57, 75
4, 27213, Note_on_c, 1, 57, 0
4, 27216, Note_on_c, 1, 59, 75
4, 27216, Note_on_c, 1, 52, 75
4, 27261, Note_on_c, 1, 59, 0
4, 27261, Note_on_c, 1, 52, 0
4, 27264, Note_on_c, 1, 57, 75
4, 27309, Note_on_c, 1, 57, 0
4, 27552, Note_on_c, 1, 69, 70
4, 27552, Note_on_c, 1, 65, 70
4, 27597, Note_on_c, 1, 69, 0
4, 27597, Note_on_c, 1, 65, 0
4, 27696, Note_on_c, 1, 70, 70
4, 27696, Note_on_c, 1, 67, 70
4, 27741, Note_on_c, 1, 70, 0
4, 27741, Note_on_c, 1, 67, 0
4, 27840, Note_on_c, 1, 69, 70
4, 27885, Note_on_c, 1, 69, 0
4, 27888, Note_on_c, 1, 65, 70
4, 27933, Note_on_c, 1, 65, 0
4, 27936, Note_on_c, 1, 67, 70
4, 27936, Note_on_c, 1, 60, 70
4, 27981, Note_on_c, 1, 67, 0
4, 27981, Note_on_c, 1, 60, 0
4, 27984, Note_on_c, 1, 65, 70
4, 28029, Note_on_c, 1, 65, 0
4, 28080, Note_on_c, 1, 61, 75
4, 28103, Note_on_c, 1, 61, 0
4, 28104, Note_on_c, 1, 69, 75
4, 28127, Note_on_c, 1, 69, 0
4, 28128, Note_on_c, 1, 64, 75
4, 28151, Note_on_c, 1, 64, 0
4, 28152, Note_on_c, 1, 69, 75
4, 28175, Note_on_c, 1, 69, 0
4, 28176, Note_on_c, 1, 61, 75
4, 28199, Note_on_c, 1, 61, 0
4, 28200, Note_on_c, 1, 69, 75
4, 28223, Note_on_c, 1, 69, 0
4, 28224, Note_on_c, 1, 62, 75
4, 28247, Note_on_c, 1, 62, 0
4, 28248, Note_on_c, 1, 69, 75
4, 28271, Note_on_c, 1, 69, 0
4, 28272, Note_on_c, 1, 65, 75
4, 28295, Note_on_c, 1, 65, 0
4, 28296, Note_on_c, 1, 69, 75
4, 28319, Note_on_c, 1, 69, 0
4, 28320, Note_on_c, 1, 62, 75
4, 28343, Note_on_c, 1, 62, 0
4, 28344, Note_on_c, 1, 69, 75
4, 28367, Note_on_c, 1, 69, 0
4, 28368, Note_on_c, 1, 59, 75
4, 28391, Note_on_c, 1, 59, 0
4, 28392, Note_on_c, 1, 67, 75
4, 28415, Note_on_c, 1, 67, 0
4, 28416, Note_on_c, 1, 62, 75
4, 28439, Note_on_c, 1, 62, 0
4, 28440, Note_on_c, 1, 67, 75
4, 28463, Note_on_c, 1, 67, 0
4, 28464, Note_on_c, 1, 59, 75
4, 28487, Note_on_c, 1, 59, 0
4, 28488, Note_on_c, 1, 67, 75
4, 28511, Note_on_c, 1, 67, 0
4, 28512, Note_on_c, 1, 60, 75
4, 28601, Note_on_c, 1, 60, 0
4, 28704, Note_on_c, 1, 64, 75
4, 28704, Note_on_c, 1, 60, 75
4, 28749, Note_on_c, 1, 64, 0
4, 28749, Note_on_c, 1, 60, 0
4, 28848, Note_on_c, 1, 65, 75
4, 28848, Note_on_c, 1, 62, 75
4, 28893, Note_on_c, 1, 65, 0
4, 28893, Note_on_c, 1, 62, 0
4, 28992, Note_on_c, 1, 64, 75
4, 29037, Note_on_c, 1, 64, 0
4, 29040, Note_on_c, 1, 60, 75
4, 29085, Note_on_c, 1, 60, 0
4, 29088, Note_on_c, 1, 62, 75
4, 29088, Note_on_c, 1, 55, 75
4, 29133, Note_on_c, 1, 62, 0
4, 29133, Note_on_c, 1, 55, 0
4, 29136, Note_on_c, 1, 60, 75
4, 29181, Note_on_c, 1, 60, 0
4, 29280, Note_on_c, 1, 64, 75
4, 29280, Note_on_c, 1, 60, 75
4, 29325, Note_on_c, 1, 64, 0
4, 29325, Note_on_c, 1, 60, 0
4, 29424, Note_on_c, 1, 65, 75
4, 29424, Note_on_c, 1, 62, 75
4, 29469, Note_on_c, 1, 65, 0
4, 29469, Note_on_c, 1, 62, 0
4, 29568, Note_on_c, 1, 64, 75
4, 29613, Note_on_c, 1, 64, 0
4, 29616, Note_on_c, 1, 60, 75
4, 29661, Note_on_c, 1, 60, 0
4, 29664, Note_on_c, 1, 62, 75
4, 29664, Note_on_c, 1, 55, 75
4, 29709, Note_on_c, 1, 62, 0
4, 29709, Note_on_c, 1, 55, 0
4, 29712, Note_on_c, 1, 60, 75
4, 29757, Note_on_c, 1, 60, 0
4, 29808, Note_on_c, 1, 57, 75
4, 29853, Note_on_c, 1, 57, 0
4, 29856, Note_on_c, 1, 55, 75
4, 29901, Note_on_c, 1, 55, 0
4, 29904, Note_on_c, 1, 53, 75
4, 29949, Note_on_c, 1, 53, 0
4, 29952, Note_on_c, 1, 52, 75
4, 29997, Note_on_c, 1, 52, 0
4, 30000, Note_on_c, 1, 50, 76
4, 30045, Note_on_c, 1, 50, 0
4, 30048, Note_on_c, 1, 48, 76
4, 30093, Note_on_c, 1, 48, 0
4, 30096, Note_on_c, 1, 57, 76
4, 30141, Note_on_c, 1, 57, 0
4, 30144, Note_on_c, 1, 55, 77
4, 30189, Note_on_c, 1, 55, 0
4, 30192, Note_on_c, 1, 53, 77
4, 30237, Note_on_c, 1, 53, 0
4, 30240, Note_on_c, 1, 52, 78
4, 30285, Note_on_c, 1, 52, 0
4, 30288, Note_on_c, 1, 50, 78
4, 30333, Note_on_c, 1, 50, 0
4, 30336, Note_on_c, 1, 48, 78
4, 30381, Note_on_c, 1, 48, 0
4, 30384, Note_on_c, 1, 47, 79
4, 30473, Note_on_c, 1, 47, 0
4, 30480, Note_on_c, 1, 48, 80
4, 30525, Note_on_c, 1, 48, 0
4, 30528, Note_on_c, 1, 43, 80
4, 30573, Note_on_c, 1, 43, 0
4, 30624, Note_on_c, 1, 65, 64
4, 30669, Note_on_c, 1, 65, 0
4, 30672, Note_on_c, 1, 64, 64
4, 30717, Note_on_c, 1, 64, 0
4, 30720, Note_on_c, 1, 62, 64
4, 30765, Note_on_c, 1, 62, 0
4, 30768, Note_on_c, 1, 60, 64
4, 30813, Note_on_c, 1, 60, 0
4, 30816, Note_on_c, 1, 62, 64
4, 30861, Note_on_c, 1, 62, 0
4, 30864, Note_on_c, 1, 59, 64
4, 30909, Note_on_c, 1, 59, 0
4, 30912, Note_on_c, 1, 55, 64
4, 30957, Note_on_c, 1, 55, 0
4, 30960, Note_on_c, 1, 60, 64
4, 31005, Note_on_c, 1, 60, 0
4, 31008, Note_on_c, 1, 48, 64
4, 31053, Note_on_c, 1, 48, 0
4, 31056, Note_on_c, 1, 52, 64
4, 31101, Note_on_c, 1, 52, 0
4, 31104, Note_on_c, 1, 53, 64
4, 31149, Note_on_c, 1, 53, 0
4, 31152, Note_on_c, 1, 52, 70
4, 31197, Note_on_c, 1, 52, 0
4, 31200, Note_on_c, 1, 53, 70
4, 31245, Note_on_c, 1, 53, 0
4, 31248, Note_on_c, 1, 55, 71
4, 31293, Note_on_c, 1, 55, 0
4, 31296, Note_on_c, 1, 53, 72
4, 31341, Note_on_c, 1, 53, 0
4, 31344, Note_on_c, 1, 55, 73
4, 31389, Note_on_c, 1, 55, 0
4, 31392, Note_on_c, 1, 57, 74
4, 31437, Note_on_c, 1, 57, 0
4, 31440, Note_on_c, 1, 55, 75
4, 31485, Note_on_c, 1, 55, 0
4, 31488, Note_on_c, 1, 57, 76
4, 31533, Note_on_c, 1, 57, 0
4, 31536, Note_on_c, 1, 55, 77
4, 31581, Note_on_c, 1, 55, 0
4, 31584, Note_on_c, 1, 57, 78
4, 31629, Note_on_c, 1, 57, 0
4, 31632, Note_on_c, 1, 59, 79
4, 31677, Note_on_c, 1, 59, 0
4, 31680, Note_on_c, 1, 60, 80
4, 31725, Note_on_c, 1, 60, 0
4, 31728, Note_on_c, 1, 59, 79
4, 31773, Note_on_c, 1, 59, 0
4, 31776, Note_on_c, 1, 61, 79
4, 31821, Note_on_c, 1, 61, 0
4, 31824, Note_on_c, 1, 62, 78
4, 31869, Note_on_c, 1, 62, 0
4, 31872, Note_on_c, 1, 61, 78
4, 31917, Note_on_c, 1, 61, 0
4, 31920, Note_on_c, 1, 63, 78
4, 31965, Note_on_c, 1, 63, 0
4, 31968, Note_on_c, 1, 64, 77
4, 32013, Note_on_c, 1, 64, 0
4, 32016, Note_on_c, 1, 61, 77
4, 32061, Note_on_c, 1, 61, 0
4, 32064, Note_on_c, 1, 62, 76
4, 32109, Note_on_c, 1, 62, 0
4, 32112, Note_on_c, 1, 59, 76
4, 32157, Note_on_c, 1, 59, 0
4, 32160, Note_on_c, 1, 60, 76
4, 32205, Note_on_c, 1, 60, 0
4, 32208, Note_on_c, 1, 57, 75
4, 32253, Note_on_c, 1, 57, 0
4, 32256, Note_on_c, 1, 55, 75
4, 32301, Note_on_c, 1, 55, 0
4, 32352, Note_on_c, 1, 55, 75
4, 32352, Note_on_c, 1, 52, 75
4, 32400, Note_on_c, 1, 55, 0
4, 32400, Note_on_c, 1, 48, 75
4, 32420, Note_on_c, 1, 52, 0
4, 32420, Note_on_c, 1, 48, 0
4, 32496, Note_on_c, 1, 55, 75
4, 32496, Note_on_c, 1, 52, 75
4, 32544, Note_on_c, 1, 55, 0
4, 32544, Note_on_c, 1, 48, 75
4, 32564, Note_on_c, 1, 52, 0
4, 32564, Note_on_c, 1, 48, 0
4, 32640, Note_on_c, 1, 69, 75
4, 32688, Note_on_c, 1, 69, 0
4, 32688, Note_on_c, 1, 67, 75
4, 32708, Note_on_c, 1, 67, 0
4, 32736, Note_on_c, 1, 65, 75
4, 32784, Note_on_c, 1, 65, 0
4, 32784, Note_on_c, 1, 64, 75
4, 32804, Note_on_c, 1, 64, 0
4, 32832, Note_on_c, 1, 53, 75
4, 32877, Note_on_c, 1, 53, 0
4, 32880, Note_on_c, 1, 55, 75
4, 32925, Note_on_c, 1, 55, 0
4, 32928, Note_on_c, 1, 43, 75
4, 32973, Note_on_c, 1, 43, 0
4, 32976, Note_on_c, 1, 48, 75
4, 33021, Note_on_c, 1, 48, 0
4, 33072, Note_on_c, 1, 55, 75
4, 33072, Note_on_c, 1, 52, 75
4, 33120, Note_on_c, 1, 55, 0
4, 33120, Note_on_c, 1, 48, 75
4, 33140, Note_on_c, 1, 52, 0
4, 33140, Note_on_c, 1, 48, 0
4, 33216, Note_on_c, 1, 67, 75
4, 33216, Note_on_c, 1, 64, 75
4, 33264, Note_on_c, 1, 67, 0
4, 33264, Note_on_c, 1, 60, 75
4, 33284, Note_on_c, 1, 64, 0
4, 33284, Note_on_c, 1, 60, 0
4, 33360, Note_on_c, 1, 69, 75
4, 33408, Note_on_c, 1, 69, 0
4, 33408, Note_on_c, 1, 67, 75
4, 33428, Note_on_c, 1, 67, 0
4, 33456, Note_on_c, 1, 65, 75
4, 33504, Note_on_c, 1, 65, 0
4, 33504, Note_on_c, 1, 64, 75
4, 33524, Note_on_c, 1, 64, 0
4, 33552, Note_on_c, 1, 53, 75
4, 33597, Note_on_c, 1, 53, 0
4, 33600, Note_on_c, 1, 55, 75
4, 33645, Note_on_c, 1, 55, 0
4, 33648, Note_on_c, 1, 43, 75
4, 33693, Note_on_c, 1, 43, 0
4, 33696, Note_on_c, 1, 48, 75
4, 33719, Note_on_c, 1, 48, 0
4, 33720, Note_on_c, 1, 55, 75
4, 33743, Note_on_c, 1, 55, 0
4, 33744, Note_on_c, 1, 52, 75
4, 33767, Note_on_c, 1, 52, 0
4, 33768, Note_on_c, 1, 55, 75
4, 33791, Note_on_c, 1, 55, 0
4, 33792, Note_on_c, 1, 48, 75
4, 33815, Note_on_c, 1, 48, 0
4, 33816, Note_on_c, 1, 55, 75
4, 33839, Note_on_c, 1, 55, 0
4, 33840, Note_on_c, 1, 47, 75
4, 33863, Note_on_c, 1, 47, 0
4, 33864, Note_on_c, 1, 55, 75
4, 33887, Note_on_c, 1, 55, 0
4, 33888, Note_on_c, 1, 50, 75
4, 33911, Note_on_c, 1, 50, 0
4, 33912, Note_on_c, 1, 55, 75
4, 33935, Note_on_c, 1, 55, 0
4, 33936, Note_on_c, 1, 47, 75
4, 33959, Note_on_c, 1, 47, 0
4, 33960, Note_on_c, 1, 55, 75
4, 33983, Note_on_c, 1, 55, 0
4, 33984, Note_on_c, 1, 48, 75
4, 34007, Note_on_c, 1, 48, 0
4, 34008, Note_on_c, 1, 55, 75
4, 34031, Note_on_c, 1, 55, 0
4, 34032, Note_on_c, 1, 52, 75
4, 34055, Note_on_c, 1, 52, 0
4, 34056, Note_on_c, 1, 55, 75
4, 34079, Note_on_c, 1, 55, 0
4, 34080, Note_on_c, 1, 48, 75
4, 34103, Note_on_c, 1, 48, 0
4, 34104, Note_on_c, 1, 55, 75
4, 34127, Note_on_c, 1, 55, 0
4, 34128, Note_on_c, 1, 43, 75
4, 34151, Note_on_c, 1, 43, 0
4, 34152, Note_on_c, 1, 55, 75
4, 34175, Note_on_c, 1, 55, 0
4, 34176, Note_on_c, 1, 47, 75
4, 34199, Note_on_c, 1, 47, 0
4, 34200, Note_on_c, 1, 55, 75
4, 34223, Note_on_c, 1, 55, 0
4, 34224, Note_on_c, 1, 43, 75
4, 34247, Note_on_c, 1, 43, 0
4, 34248, Note_on_c, 1, 55, 75
4, 34271, Note_on_c, 1, 55, 0
4, 34272, Note_on_c, 1, 48, 75
4, 34295, Note_on_c, 1, 48, 0
4, 34296, Note_on_c, 1, 55, 73
4, 34319, Note_on_c, 1, 55, 0
4, 34320, Note_on_c, 1, 52, 72
4, 34343, Note_on_c, 1, 52, 0
4, 34344, Note_on_c, 1, 55, 71
4, 34367, Note_on_c, 1, 55, 0
4, 34368, Note_on_c, 1, 48, 70
4, 34391, Note_on_c, 1, 48, 0
4, 34392, Note_on_c, 1, 55, 70
4, 34415, Note_on_c, 1, 55, 0
4, 34416, Note_on_c, 1, 47, 70
4, 34439, Note_on_c, 1, 47, 0
4, 34440, Note_on_c, 1, 55, 70
4, 34463, Note_on_c, 1, 55, 0
4, 34464, Note_on_c, 1, 50, 70
4, 34487, Note_on_c, 1, 50, 0
4, 34488, Note_on_c, 1, 55, 70
4, 34511, Note_on_c, 1, 55, 0
4, 34512, Note_on_c, 1, 47, 70
4, 34535, Note_on_c, 1, 47, 0
4, 34536, Note_on_c, 1, 55, 70
4, 34559, Note_on_c, 1, 55, 0
4, 34560, Note_on_c, 1, 48, 70
4, 34583, Note_on_c, 1, 48, 0
4, 34584, Note_on_c, 1, 55, 70
4, 34607, Note_on_c, 1, 55, 0
4, 34608, Note_on_c, 1, 52, 70
4, 34631, Note_on_c, 1, 52, 0
4, 34632, Note_on_c, 1, 55, 70
4, 34655, Note_on_c, 1, 55, 0
4, 34656, Note_on_c, 1, 48, 70
4, 34679, Note_on_c, 1, 48, 0
4, 34680, Note_on_c, 1, 55, 70
4, 34703, Note_on_c, 1, 55, 0
4, 34704, Note_on_c, 1, 43, 70
4, 34727, Note_on_c, 1, 43, 0
4, 34728, Note_on_c, 1, 55, 70
4, 34751, Note_on_c, 1, 55, 0
4, 34752, Note_on_c, 1, 47, 70
4, 34775, Note_on_c, 1, 47, 0
4, 34776, Note_on_c, 1, 55, 70
4, 34799, Note_on_c, 1, 55, 0
4, 34800, Note_on_c, 1, 43, 70
4, 34823, Note_on_c, 1, 43, 0
4, 34824, Note_on_c, 1, 55, 70
4, 34847, Note_on_c, 1, 55, 0
4, 34848, Note_on_c, 1, 52, 70
4, 34848, Note_on_c, 1, 48, 70
4, 34893, Note_on_c, 1, 52, 0
4, 34893, Note_on_c, 1, 48, 0
4, 34944, Note_on_c, 1, 48, 4
4, 34989, Note_on_c, 1, 48, 0
4, 34992, End_track
5, 0, Start_track
5, 0, Program_c, 1, 0
5, 0, Control_c, 1, 7, 127
5, 0, Control_c, 1, 10, 64
5, 3600, Note_on_c, 1, 62, 64
5, 4309, Note_on_c, 1, 62, 0
5, 9792, Note_on_c, 1, 62, 64
5, 10501, Note_on_c, 1, 62, 0
5, 20304, Note_on_c, 1, 55, 64
5, 21013, Note_on_c, 1, 55, 0
5, 31536, Note_on_c, 1, 55, 64
5, 32245, Note_on_c, 1, 55, 0
5, 34992, End_track
6, 0, Start_track
6, 0, Title_t, "Sonata I   Haydn  "
6, 0, End_track
0, 0, End_of_file
