0, 0, Header, 1, 2, 480
1, 0, Start_track
1, 0, MIDI_port, 0
1, 0, System_exclusive, 10, 65, 16, 66, 18, 64, 0, 127, 0, 65, 247
1, 0, MIDI_port, 0
1, 0, Time_signature, 4, 2, 24, 8
1, 0, Key_signature, 0, "major"
1, 0, Tempo, 500000
1, 0, End_track
2, 0, Start_track
2, 0, MIDI_port, 0
2, 0, Title_t, "Acoustic Piano"
2, 0, Program_c, 0, 0
2, 0, Control_c, 0, 7, 127
2, 0, Control_c, 0, 10, 64
2, 60, Control_c, 0, 64, 127
2, 60, Control_c, 0, 64, 0
2, 60, Note_on_c, 0, 61, 47
2, 140, Note_on_c, 0, 64, 61
2, 178, Note_on_c, 0, 61, 0
2, 188, Note_on_c, 0, 69, 83
2, 190, Note_on_c, 0, 45, 62
2, 194, Note_on_c, 0, 57, 63
2, 260, Note_on_c, 0, 64, 0
2, 716, Control_c, 0, 64, 127
2, 754, Note_on_c, 0, 57, 0
2, 886, Note_on_c, 0, 45, 0
2, 1146, Control_c, 0, 64, 0
2, 1146, Note_on_c, 0, 64, 74
2, 1150, Note_on_c, 0, 69, 0
2, 1166, Note_on_c, 0, 52, 64
2, 1166, Note_on_c, 0, 40, 65
2, 1266, Note_on_c, 0, 40, 0
2, 1266, Note_on_c, 0, 52, 0
2, 1314, Control_c, 0, 64, 127
2, 1350, Note_on_c, 0, 64, 0
2, 1616, Note_on_c, 0, 73, 75
2, 1619, Note_on_c, 0, 61, 75
2, 1626, Note_on_c, 0, 49, 66
2, 1744, Control_c, 0, 64, 0
2, 1912, Note_on_c, 0, 74, 70
2, 1930, Control_c, 0, 64, 127
2, 1933, Note_on_c, 0, 61, 0
2, 1950, Note_on_c, 0, 73, 0
2, 2014, Note_on_c, 0, 71, 73
2, 2036, Note_on_c, 0, 74, 0
2, 2098, Control_c, 0, 64, 0
2, 2134, Note_on_c, 0, 71, 0
2, 2140, Note_on_c, 0, 49, 0
2, 2146, Note_on_c, 0, 69, 56
2, 2156, Note_on_c, 0, 45, 27
2, 2164, Note_on_c, 0, 57, 26
2, 2442, Note_on_c, 0, 57, 0
2, 2512, Control_c, 0, 64, 127
2, 2534, Note_on_c, 0, 45, 0
2, 2586, Note_on_c, 0, 69, 0
2, 2650, Control_c, 0, 64, 0
2, 3156, Note_on_c, 0, 76, 32
2, 3444, Note_on_c, 0, 78, 41
2, 3466, Control_c, 0, 64, 127
2, 3488, Note_on_c, 0, 76, 0
2, 3538, Note_on_c, 0, 78, 0
2, 3558, Note_on_c, 0, 74, 57
2, 3616, Note_on_c, 0, 74, 0
2, 3674, Note_on_c, 0, 73, 61
2, 3788, Control_c, 0, 64, 0
2, 4018, Control_c, 0, 64, 127
2, 4146, Note_on_c, 0, 85, 64
2, 4156, Control_c, 0, 64, 0
2, 4164, Note_on_c, 0, 66, 16
2, 4172, Note_on_c, 0, 73, 0
2, 4190, Note_on_c, 0, 57, 12
2, 4322, Note_on_c, 0, 57, 0
2, 4340, Control_c, 0, 64, 127
2, 4422, Note_on_c, 0, 85, 0
2, 4424, Note_on_c, 0, 66, 0
2, 4686, Note_on_c, 0, 75, 56
2, 4702, Note_on_c, 0, 69, 16
2, 4722, Note_on_c, 0, 59, 20
2, 4940, Control_c, 0, 64, 0
2, 5202, Control_c, 0, 64, 127
2, 5300, Note_on_c, 0, 59, 0
2, 5318, Note_on_c, 0, 69, 0
2, 5324, Note_on_c, 0, 76, 32
2, 5352, Note_on_c, 0, 68, 15
2, 5355, Control_c, 0, 64, 0
2, 5364, Note_on_c, 0, 64, 17
2, 5372, Note_on_c, 0, 75, 0
2, 5800, Control_c, 0, 64, 127
2, 5828, Note_on_c, 0, 64, 0
2, 5848, Note_on_c, 0, 68, 0
2, 6078, Control_c, 0, 64, 0
2, 6400, Control_c, 0, 64, 127
2, 6450, Note_on_c, 0, 77, 29
2, 6518, Note_on_c, 0, 76, 0
2, 6570, Control_c, 0, 64, 0
2, 6766, Note_on_c, 0, 80, 35
2, 6776, Note_on_c, 0, 77, 0
2, 7014, Control_c, 0, 64, 127
2, 7024, Note_on_c, 0, 78, 41
2, 7076, Control_c, 0, 64, 0
2, 7112, Note_on_c, 0, 80, 0
2, 7230, Control_c, 0, 64, 127
2, 7258, Note_on_c, 0, 76, 40
2, 7286, Note_on_c, 0, 78, 0
2, 7292, Control_c, 0, 64, 0
2, 7460, Control_c, 0, 64, 127
2, 7488, Note_on_c, 0, 74, 42
2, 7528, Note_on_c, 0, 76, 0
2, 7736, Note_on_c, 0, 73, 33
2, 7738, Control_c, 0, 64, 0
2, 7780, Note_on_c, 0, 74, 0
2, 7906, Control_c, 0, 64, 127
2, 7964, Note_on_c, 0, 71, 50
2, 7968, Control_c, 0, 64, 0
2, 7982, Note_on_c, 0, 73, 0
2, 8076, Control_c, 0, 64, 127
2, 8210, Note_on_c, 0, 69, 37
2, 8213, Note_on_c, 0, 71, 0
2, 8236, Note_on_c, 0, 52, 26
2, 8274, Control_c, 0, 64, 0
2, 8448, Note_on_c, 0, 68, 44
2, 8454, Note_on_c, 0, 62, 47
2, 8502, Note_on_c, 0, 69, 0
2, 8680, Note_on_c, 0, 62, 0
2, 8690, Note_on_c, 0, 76, 46
2, 8712, Note_on_c, 0, 68, 0
2, 8720, Note_on_c, 0, 59, 36
2, 8922, Note_on_c, 0, 59, 0
2, 8922, Note_on_c, 0, 74, 50
2, 8936, Note_on_c, 0, 76, 0
2, 8942, Note_on_c, 0, 62, 36
2, 9032, Note_on_c, 0, 52, 0
2, 9042, Control_c, 0, 64, 127
2, 9094, Note_on_c, 0, 74, 0
2, 9112, Note_on_c, 0, 62, 0
2, 9164, Note_on_c, 0, 59, 37
2, 9366, Control_c, 0, 64, 0
2, 9370, Note_on_c, 0, 59, 0
2, 9376, Note_on_c, 0, 62, 45
2, 9612, Control_c, 0, 64, 127
2, 9615, Note_on_c, 0, 71, 76
2, 9650, Note_on_c, 0, 62, 0
2, 9658, Note_on_c, 0, 52, 40
2, 9720, Control_c, 0, 64, 0
2, 9850, Note_on_c, 0, 69, 66
2, 9862, Note_on_c, 0, 61, 41
2, 9890, Note_on_c, 0, 71, 0
2, 10070, Note_on_c, 0, 78, 68
2, 10076, Note_on_c, 0, 61, 0
2, 10098, Note_on_c, 0, 69, 0
2, 10108, Note_on_c, 0, 57, 34
2, 10304, Note_on_c, 0, 57, 0
2, 10309, Note_on_c, 0, 61, 34
2, 10316, Note_on_c, 0, 76, 59
2, 10334, Control_c, 0, 64, 127
2, 10337, Note_on_c, 0, 78, 0
2, 10500, Note_on_c, 0, 52, 0
2, 10512, Note_on_c, 0, 76, 0
2, 10524, Note_on_c, 0, 61, 0
2, 10556, Note_on_c, 0, 57, 34
2, 10734, Note_on_c, 0, 57, 0
2, 10758, Note_on_c, 0, 61, 45
2, 11008, Note_on_c, 0, 73, 77
2, 11022, Note_on_c, 0, 61, 0
2, 11026, Note_on_c, 0, 50, 49
2, 11102, Control_c, 0, 64, 0
2, 11254, Note_on_c, 0, 71, 92
2, 11290, Note_on_c, 0, 59, 41
2, 11324, Note_on_c, 0, 73, 0
2, 11542, Note_on_c, 0, 59, 0
2, 11542, Note_on_c, 0, 79, 83
2, 11554, Note_on_c, 0, 54, 40
2, 11560, Note_on_c, 0, 71, 0
2, 11818, Note_on_c, 0, 78, 67
2, 11836, Note_on_c, 0, 79, 0
2, 11854, Note_on_c, 0, 54, 0
2, 11862, Note_on_c, 0, 59, 33
2, 12042, Note_on_c, 0, 78, 0
2, 12045, Note_on_c, 0, 59, 0
2, 12054, Note_on_c, 0, 54, 41
2, 12056, Control_c, 0, 64, 127
2, 12138, Note_on_c, 0, 50, 0
2, 12316, Note_on_c, 0, 54, 0
2, 12316, Note_on_c, 0, 59, 33
2, 12638, Control_c, 0, 64, 0
2, 12676, Note_on_c, 0, 59, 0
2, 12676, Note_on_c, 0, 66, 30
2, 12694, Note_on_c, 0, 50, 22
2, 13152, Note_on_c, 0, 50, 0
2, 13206, Control_c, 0, 64, 127
2, 13218, Note_on_c, 0, 76, 22
2, 13238, Note_on_c, 0, 66, 0
2, 13252, Control_c, 0, 64, 0
2, 13462, Note_on_c, 0, 74, 36
2, 13474, Note_on_c, 0, 76, 0
2, 13682, Note_on_c, 0, 74, 0
2, 13694, Note_on_c, 0, 73, 31
2, 13924, Note_on_c, 0, 71, 44
2, 13946, Note_on_c, 0, 73, 0
2, 14188, Note_on_c, 0, 71, 0
2, 14196, Note_on_c, 0, 69, 27
2, 14200, Note_on_c, 0, 62, 26
2, 14224, Note_on_c, 0, 52, 16
2, 14454, Note_on_c, 0, 68, 31
2, 14474, Note_on_c, 0, 69, 0
2, 14634, Note_on_c, 0, 62, 0
2, 14692, Note_on_c, 0, 52, 0
2, 14764, Note_on_c, 0, 69, 28
2, 14776, Note_on_c, 0, 68, 0
2, 14776, Note_on_c, 0, 61, 22
2, 14796, Note_on_c, 0, 57, 9
2, 15204, Control_c, 0, 64, 127
2, 15210, Note_on_c, 0, 57, 0
2, 15210, Note_on_c, 0, 61, 0
2, 15270, Note_on_c, 0, 69, 0
2, 15404, Control_c, 0, 64, 0
2, 15760, Note_on_c, 0, 71, 47
2, 15818, Note_on_c, 0, 76, 49
2, 15884, Note_on_c, 0, 80, 64
2, 15942, Note_on_c, 0, 83, 115
2, 15944, Control_c, 0, 64, 127
2, 15954, Note_on_c, 0, 52, 93
2, 15996, Note_on_c, 0, 76, 0
2, 16030, Note_on_c, 0, 71, 0
2, 16084, Note_on_c, 0, 80, 0
2, 16158, Note_on_c, 0, 56, 69
2, 16190, Note_on_c, 0, 52, 0
2, 16310, Control_c, 0, 64, 0
2, 16390, Note_on_c, 0, 59, 68
2, 16400, Note_on_c, 0, 56, 0
2, 16598, Note_on_c, 0, 59, 0
2, 16618, Note_on_c, 0, 56, 53
2, 16828, Note_on_c, 0, 54, 70
2, 16846, Note_on_c, 0, 56, 0
2, 16980, Note_on_c, 0, 83, 0
2, 17064, Note_on_c, 0, 52, 74
2, 17072, Note_on_c, 0, 54, 0
2, 17304, Note_on_c, 0, 83, 110
2, 17308, Note_on_c, 0, 51, 61
2, 17316, Note_on_c, 0, 52, 0
2, 17410, Note_on_c, 0, 81, 73
2, 17480, Note_on_c, 0, 83, 0
2, 17520, Note_on_c, 0, 80, 72
2, 17538, Note_on_c, 0, 81, 0
2, 17540, Note_on_c, 0, 52, 63
2, 17542, Note_on_c, 0, 51, 0
2, 17630, Note_on_c, 0, 78, 70
2, 17660, Note_on_c, 0, 80, 0
2, 17674, Note_on_c, 0, 78, 0
2, 17696, Note_on_c, 0, 52, 0
2, 17742, Note_on_c, 0, 54, 54
2, 17750, Note_on_c, 0, 78, 70
2, 17878, Note_on_c, 0, 76, 58
2, 17896, Note_on_c, 0, 78, 0
2, 17988, Note_on_c, 0, 75, 72
2, 17994, Note_on_c, 0, 47, 34
2, 18004, Note_on_c, 0, 54, 0
2, 18008, Note_on_c, 0, 76, 0
2, 18096, Note_on_c, 0, 73, 65
2, 18134, Note_on_c, 0, 75, 0
2, 18210, Note_on_c, 0, 49, 46
2, 18216, Note_on_c, 0, 71, 81
2, 18244, Note_on_c, 0, 47, 0
2, 18262, Note_on_c, 0, 73, 0
2, 18310, Note_on_c, 0, 71, 0
2, 18318, Note_on_c, 0, 69, 67
2, 18432, Note_on_c, 0, 68, 72
2, 18440, Note_on_c, 0, 51, 50
2, 18452, Note_on_c, 0, 49, 0
2, 18455, Note_on_c, 0, 69, 0
2, 18544, Note_on_c, 0, 69, 47
2, 18558, Note_on_c, 0, 68, 0
2, 18646, Note_on_c, 0, 51, 0
2, 18649, Note_on_c, 0, 68, 64
2, 18664, Note_on_c, 0, 52, 51
2, 18676, Note_on_c, 0, 69, 0
2, 18748, Note_on_c, 0, 68, 0
2, 18762, Note_on_c, 0, 71, 91
2, 18846, Note_on_c, 0, 52, 0
2, 18872, Note_on_c, 0, 56, 35
2, 18884, Note_on_c, 0, 76, 68
2, 18898, Note_on_c, 0, 71, 0
2, 18990, Note_on_c, 0, 80, 70
2, 18998, Note_on_c, 0, 76, 0
2, 19092, Note_on_c, 0, 56, 0
2, 19120, Note_on_c, 0, 59, 38
2, 19132, Note_on_c, 0, 83, 86
2, 19172, Note_on_c, 0, 80, 0
2, 19372, Note_on_c, 0, 59, 0
2, 19374, Note_on_c, 0, 56, 42
2, 19608, Note_on_c, 0, 54, 46
2, 19611, Note_on_c, 0, 56, 0
2, 19844, Note_on_c, 0, 54, 0
2, 19880, Note_on_c, 0, 52, 42
2, 19922, Control_c, 0, 64, 127
2, 19940, Note_on_c, 0, 83, 0
2, 20030, Control_c, 0, 64, 0
2, 20084, Note_on_c, 0, 52, 0
2, 20098, Note_on_c, 0, 83, 88
2, 20106, Note_on_c, 0, 51, 42
2, 20182, Note_on_c, 0, 83, 0
2, 20210, Note_on_c, 0, 81, 45
2, 20306, Note_on_c, 0, 80, 59
2, 20318, Note_on_c, 0, 81, 0
2, 20344, Note_on_c, 0, 51, 0
2, 20350, Note_on_c, 0, 52, 46
2, 20420, Note_on_c, 0, 78, 62
2, 20432, Note_on_c, 0, 80, 0
2, 20462, Note_on_c, 0, 78, 0
2, 20526, Note_on_c, 0, 78, 57
2, 20528, Note_on_c, 0, 52, 0
2, 20546, Note_on_c, 0, 54, 42
2, 20652, Note_on_c, 0, 78, 0
2, 20652, Note_on_c, 0, 76, 54
2, 20766, Note_on_c, 0, 75, 60
2, 20771, Note_on_c, 0, 54, 0
2, 20784, Note_on_c, 0, 47, 27
2, 20790, Note_on_c, 0, 76, 0
2, 20880, Note_on_c, 0, 73, 53
2, 20914, Note_on_c, 0, 75, 0
2, 21000, Note_on_c, 0, 49, 34
2, 21002, Note_on_c, 0, 71, 65
2, 21010, Note_on_c, 0, 47, 0
2, 21016, Note_on_c, 0, 73, 0
2, 21060, Note_on_c, 0, 71, 0
2, 21100, Note_on_c, 0, 69, 52
2, 21214, Note_on_c, 0, 68, 58
2, 21240, Note_on_c, 0, 69, 0
2, 21240, Note_on_c, 0, 51, 33
2, 21246, Note_on_c, 0, 49, 0
2, 21322, Note_on_c, 0, 68, 0
2, 21325, Note_on_c, 0, 69, 35
2, 21434, Note_on_c, 0, 51, 0
2, 21446, Note_on_c, 0, 69, 0
2, 21456, Note_on_c, 0, 68, 43
2, 21493, Note_on_c, 0, 52, 33
2, 21540, Note_on_c, 0, 68, 0
2, 21584, Note_on_c, 0, 71, 51
2, 21690, Note_on_c, 0, 69, 42
2, 21693, Note_on_c, 0, 71, 0
2, 21784, Note_on_c, 0, 69, 0
2, 21792, Note_on_c, 0, 68, 52
2, 21914, Note_on_c, 0, 68, 0
2, 21920, Note_on_c, 0, 69, 55
2, 21994, Note_on_c, 0, 52, 0
2, 22024, Note_on_c, 0, 71, 72
2, 22026, Note_on_c, 0, 69, 0
2, 22130, Note_on_c, 0, 71, 0
2, 22130, Note_on_c, 0, 73, 67
2, 22244, Note_on_c, 0, 75, 71
2, 22284, Note_on_c, 0, 73, 0
2, 22332, Note_on_c, 0, 75, 0
2, 22348, Note_on_c, 0, 76, 67
2, 22454, Note_on_c, 0, 78, 73
2, 22486, Note_on_c, 0, 76, 0
2, 22566, Note_on_c, 0, 80, 78
2, 22606, Note_on_c, 0, 78, 0
2, 22666, Note_on_c, 0, 81, 78
2, 22688, Note_on_c, 0, 80, 0
2, 22784, Note_on_c, 0, 83, 98
2, 22798, Note_on_c, 0, 81, 0
2, 22890, Note_on_c, 0, 85, 68
2, 22920, Note_on_c, 0, 83, 0
2, 22998, Note_on_c, 0, 87, 63
2, 23026, Note_on_c, 0, 85, 0
2, 23114, Note_on_c, 0, 88, 70
2, 23140, Note_on_c, 0, 87, 0
2, 23232, Note_on_c, 0, 87, 48
2, 23278, Note_on_c, 0, 88, 0
2, 23352, Note_on_c, 0, 85, 55
2, 23374, Note_on_c, 0, 87, 0
2, 23452, Note_on_c, 0, 83, 74
2, 23484, Note_on_c, 0, 85, 0
2, 23544, Note_on_c, 0, 83, 0
2, 23578, Note_on_c, 0, 81, 41
2, 23662, Note_on_c, 0, 80, 54
2, 23678, Note_on_c, 0, 81, 0
2, 23782, Note_on_c, 0, 78, 58
2, 23866, Note_on_c, 0, 80, 0
2, 23898, Note_on_c, 0, 78, 0
2, 23908, Note_on_c, 0, 76, 34
2, 23978, Control_c, 0, 64, 127
2, 23990, Note_on_c, 0, 76, 0
2, 24000, Note_on_c, 0, 75, 43
2, 24116, Control_c, 0, 64, 0
2, 24148, Note_on_c, 0, 75, 0
2, 24158, Note_on_c, 0, 73, 36
2, 24182, Note_on_c, 0, 66, 11
2, 24192, Note_on_c, 0, 57, 21
2, 24346, Control_c, 0, 64, 127
2, 24350, Note_on_c, 0, 73, 0
2, 24380, Note_on_c, 0, 57, 0
2, 24576, Note_on_c, 0, 66, 0
2, 24630, Note_on_c, 0, 85, 52
2, 24762, Note_on_c, 0, 85, 0
2, 24766, Note_on_c, 0, 76, 49
2, 24772, Note_on_c, 0, 68, 25
2, 24806, Control_c, 0, 64, 0
2, 24816, Note_on_c, 0, 59, 22
2, 25146, Control_c, 0, 64, 127
2, 25264, Note_on_c, 0, 68, 0
2, 25314, Control_c, 0, 64, 0
2, 25326, Note_on_c, 0, 76, 0
2, 25328, Note_on_c, 0, 80, 35
2, 25334, Note_on_c, 0, 75, 26
2, 25348, Note_on_c, 0, 69, 11
2, 25594, Note_on_c, 0, 80, 0
2, 25626, Note_on_c, 0, 78, 28
2, 25788, Note_on_c, 0, 75, 0
2, 25836, Note_on_c, 0, 59, 0
2, 25844, Note_on_c, 0, 69, 0
2, 25918, Note_on_c, 0, 68, 20
2, 25918, Note_on_c, 0, 76, 33
2, 25926, Note_on_c, 0, 78, 0
2, 25940, Note_on_c, 0, 64, 20
2, 26144, Control_c, 0, 64, 127
2, 26190, Note_on_c, 0, 64, 0
2, 26282, Control_c, 0, 64, 0
2, 26590, Control_c, 0, 64, 127
2, 26668, Note_on_c, 0, 52, 20
2, 26748, Note_on_c, 0, 68, 0
2, 26882, Control_c, 0, 64, 0
2, 26999, Note_on_c, 0, 76, 0
2, 27162, Note_on_c, 0, 52, 0
2, 27678, Note_on_c, 0, 64, 49
2, 27830, Note_on_c, 0, 76, 67
2, 28030, Note_on_c, 0, 64, 0
2, 28110, Control_c, 0, 64, 127
2, 28332, Note_on_c, 0, 66, 42
2, 28356, Note_on_c, 0, 76, 0
2, 28426, Note_on_c, 0, 78, 81
2, 28572, Control_c, 0, 64, 0
2, 28672, Note_on_c, 0, 66, 0
2, 28756, Control_c, 0, 64, 127
2, 28828, Note_on_c, 0, 67, 59
2, 28926, Note_on_c, 0, 78, 0
2, 28972, Note_on_c, 0, 79, 84
2, 29032, Control_c, 0, 64, 0
2, 29056, Note_on_c, 0, 67, 0
2, 29216, Control_c, 0, 64, 127
2, 29318, Note_on_c, 0, 79, 0
2, 29460, Note_on_c, 0, 54, 25
2, 29500, Note_on_c, 0, 71, 73
2, 29692, Control_c, 0, 64, 0
2, 29782, Note_on_c, 0, 61, 44
2, 29884, Note_on_c, 0, 54, 0
2, 30012, Note_on_c, 0, 61, 0
2, 30012, Note_on_c, 0, 66, 35
2, 30038, Note_on_c, 0, 70, 35
2, 30082, Note_on_c, 0, 71, 0
2, 30286, Note_on_c, 0, 66, 0
2, 30290, Note_on_c, 0, 64, 48
2, 30384, Control_c, 0, 64, 127
2, 30472, Note_on_c, 0, 70, 0
2, 30488, Note_on_c, 0, 64, 0
2, 30508, Note_on_c, 0, 62, 49
2, 30614, Control_c, 0, 64, 0
2, 30732, Note_on_c, 0, 61, 41
2, 30734, Note_on_c, 0, 62, 0
2, 30812, Note_on_c, 0, 70, 62
2, 30960, Note_on_c, 0, 70, 0
2, 30960, Note_on_c, 0, 73, 52
2, 30962, Note_on_c, 0, 61, 0
2, 30992, Note_on_c, 0, 54, 39
2, 31222, Note_on_c, 0, 54, 0
2, 31240, Note_on_c, 0, 62, 37
2, 31422, Note_on_c, 0, 62, 0
2, 31454, Note_on_c, 0, 66, 24
2, 31466, Note_on_c, 0, 71, 50
2, 31536, Note_on_c, 0, 73, 0
2, 31730, Note_on_c, 0, 66, 0
2, 31732, Note_on_c, 0, 62, 32
2, 31884, Note_on_c, 0, 71, 0
2, 31962, Note_on_c, 0, 61, 32
2, 31974, Note_on_c, 0, 62, 0
2, 32222, Note_on_c, 0, 59, 32
2, 32238, Note_on_c, 0, 61, 0
2, 32274, Control_c, 0, 64, 127
2, 32322, Note_on_c, 0, 71, 54
2, 32324, Note_on_c, 0, 59, 0
2, 32468, Note_on_c, 0, 74, 62
2, 32476, Note_on_c, 0, 54, 40
2, 32496, Note_on_c, 0, 71, 0
2, 32536, Control_c, 0, 64, 0
2, 32700, Note_on_c, 0, 58, 34
2, 32726, Note_on_c, 0, 54, 0
2, 32844, Control_c, 0, 64, 127
2, 32936, Control_c, 0, 64, 0
2, 32939, Note_on_c, 0, 64, 32
2, 32939, Note_on_c, 0, 73, 31
2, 32943, Note_on_c, 0, 58, 0
2, 32964, Note_on_c, 0, 74, 0
2, 33170, Note_on_c, 0, 64, 0
2, 33182, Note_on_c, 0, 61, 32
2, 33242, Control_c, 0, 64, 127
2, 33256, Note_on_c, 0, 73, 0
2, 33396, Control_c, 0, 64, 0
2, 33420, Note_on_c, 0, 61, 0
2, 33432, Note_on_c, 0, 59, 21
2, 33642, Note_on_c, 0, 59, 0
2, 33650, Note_on_c, 0, 58, 21
2, 33672, Control_c, 0, 64, 127
2, 33736, Note_on_c, 0, 73, 46
2, 33810, Control_c, 0, 64, 0
2, 33824, Note_on_c, 0, 73, 0
2, 33906, Note_on_c, 0, 76, 54
2, 33944, Note_on_c, 0, 59, 31
2, 33950, Note_on_c, 0, 58, 0
2, 34132, Note_on_c, 0, 74, 64
2, 34150, Note_on_c, 0, 76, 0
2, 34226, Control_c, 0, 64, 127
2, 34268, Note_on_c, 0, 59, 0
2, 34314, Note_on_c, 0, 74, 0
2, 34368, Note_on_c, 0, 77, 71
2, 34442, Control_c, 0, 64, 0
2, 34614, Note_on_c, 0, 76, 70
2, 34640, Control_c, 0, 64, 127
2, 34642, Note_on_c, 0, 77, 0
2, 34742, Note_on_c, 0, 76, 0
2, 34934, Note_on_c, 0, 79, 54
2, 34994, Control_c, 0, 64, 0
2, 35194, Control_c, 0, 64, 127
2, 35222, Note_on_c, 0, 79, 0
2, 35240, Note_on_c, 0, 77, 40
2, 35322, Note_on_c, 0, 77, 0
2, 35586, Note_on_c, 0, 69, 31
2, 35608, Note_on_c, 0, 52, 21
2, 35748, Control_c, 0, 64, 0
2, 35902, Note_on_c, 0, 59, 20
2, 35944, Note_on_c, 0, 52, 0
2, 35962, Control_c, 0, 64, 127
2, 36008, Note_on_c, 0, 59, 0
2, 36130, Note_on_c, 0, 68, 29
2, 36142, Note_on_c, 0, 64, 29
2, 36152, Note_on_c, 0, 69, 0
2, 36208, Control_c, 0, 64, 0
2, 36378, Note_on_c, 0, 64, 0
2, 36400, Note_on_c, 0, 62, 32
2, 36438, Note_on_c, 0, 68, 0
2, 36438, Control_c, 0, 64, 127
2, 36608, Note_on_c, 0, 62, 0
2, 36634, Note_on_c, 0, 60, 29
2, 36684, Control_c, 0, 64, 0
2, 36878, Note_on_c, 0, 60, 0
2, 36881, Note_on_c, 0, 59, 27
2, 36914, Control_c, 0, 64, 127
2, 36956, Note_on_c, 0, 68, 46
2, 37076, Note_on_c, 0, 68, 0
2, 37084, Control_c, 0, 64, 0
2, 37124, Note_on_c, 0, 71, 54
2, 37127, Note_on_c, 0, 59, 0
2, 37146, Note_on_c, 0, 52, 34
2, 37374, Note_on_c, 0, 60, 44
2, 37398, Note_on_c, 0, 52, 0
2, 37438, Control_c, 0, 64, 127
2, 37610, Note_on_c, 0, 60, 0
2, 37616, Note_on_c, 0, 64, 48
2, 37620, Note_on_c, 0, 69, 27
2, 37622, Control_c, 0, 64, 0
2, 37656, Note_on_c, 0, 71, 0
2, 37824, Note_on_c, 0, 64, 0
2, 37852, Note_on_c, 0, 60, 46
2, 37882, Control_c, 0, 64, 127
2, 37954, Note_on_c, 0, 69, 0
2, 38062, Note_on_c, 0, 60, 0
2, 38090, Note_on_c, 0, 59, 42
2, 38114, Control_c, 0, 64, 0
2, 38288, Note_on_c, 0, 59, 0
2, 38306, Note_on_c, 0, 57, 37
2, 38358, Control_c, 0, 64, 127
2, 38380, Note_on_c, 0, 69, 52
2, 38524, Note_on_c, 0, 57, 0
2, 38527, Control_c, 0, 64, 0
2, 38532, Note_on_c, 0, 69, 0
2, 38546, Note_on_c, 0, 72, 62
2, 38558, Note_on_c, 0, 52, 43
2, 38768, Note_on_c, 0, 56, 44
2, 38792, Note_on_c, 0, 52, 0
2, 38928, Control_c, 0, 64, 127
2, 38974, Control_c, 0, 64, 0
2, 39008, Note_on_c, 0, 62, 35
2, 39011, Note_on_c, 0, 56, 0
2, 39038, Note_on_c, 0, 71, 44
2, 39114, Note_on_c, 0, 72, 0
2, 39224, Note_on_c, 0, 62, 0
2, 39258, Note_on_c, 0, 59, 32
2, 39358, Control_c, 0, 64, 127
2, 39404, Control_c, 0, 64, 0
2, 39472, Note_on_c, 0, 57, 34
2, 39475, Note_on_c, 0, 59, 0
2, 39584, Note_on_c, 0, 71, 0
2, 39694, Note_on_c, 0, 57, 0
2, 39696, Note_on_c, 0, 56, 38
2, 39804, Control_c, 0, 64, 127
2, 39812, Note_on_c, 0, 71, 59
2, 39962, Note_on_c, 0, 74, 68
2, 39972, Control_c, 0, 64, 0
2, 39974, Note_on_c, 0, 71, 0
2, 39974, Note_on_c, 0, 56, 0
2, 39988, Note_on_c, 0, 57, 34
2, 40216, Note_on_c, 0, 72, 72
2, 40264, Control_c, 0, 64, 127
2, 40280, Note_on_c, 0, 74, 0
2, 40418, Control_c, 0, 64, 0
2, 40446, Note_on_c, 0, 71, 87
2, 40468, Note_on_c, 0, 72, 0
2, 40602, Control_c, 0, 64, 127
2, 40620, Note_on_c, 0, 71, 0
2, 40688, Note_on_c, 0, 69, 50
2, 40694, Note_on_c, 0, 57, 0
2, 40924, Note_on_c, 0, 43, 41
2, 40924, Note_on_c, 0, 81, 79
2, 40924, Control_c, 0, 64, 0
2, 40927, Note_on_c, 0, 69, 0
2, 40940, Note_on_c, 0, 55, 39
2, 41076, Note_on_c, 0, 81, 0
2, 41110, Control_c, 0, 64, 127
2, 41148, Note_on_c, 0, 81, 79
2, 41206, Note_on_c, 0, 55, 0
2, 41286, Note_on_c, 0, 81, 0
2, 41344, Note_on_c, 0, 43, 0
2, 41384, Note_on_c, 0, 83, 110
2, 41400, Note_on_c, 0, 53, 75
2, 41402, Note_on_c, 0, 41, 57
2, 41448, Control_c, 0, 64, 0
2, 41632, Note_on_c, 0, 81, 95
2, 41724, Note_on_c, 0, 83, 0
2, 41740, Control_c, 0, 64, 127
2, 41876, Note_on_c, 0, 79, 94
2, 41940, Control_c, 0, 64, 0
2, 41956, Note_on_c, 0, 81, 0
2, 42102, Note_on_c, 0, 77, 87
2, 42150, Note_on_c, 0, 79, 0
2, 42153, Control_c, 0, 64, 127
2, 42178, Note_on_c, 0, 41, 0
2, 42236, Note_on_c, 0, 53, 0
2, 42324, Note_on_c, 0, 76, 85
2, 42330, Note_on_c, 0, 77, 0
2, 42548, Note_on_c, 0, 75, 85
2, 42596, Note_on_c, 0, 76, 0
2, 42794, Note_on_c, 0, 57, 54
2, 42804, Note_on_c, 0, 84, 86
2, 42810, Note_on_c, 0, 53, 69
2, 42814, Control_c, 0, 64, 0
2, 42840, Note_on_c, 0, 75, 0
2, 43036, Note_on_c, 0, 56, 57
2, 43076, Note_on_c, 0, 57, 0
2, 43286, Note_on_c, 0, 57, 60
2, 43360, Note_on_c, 0, 56, 0
2, 43526, Note_on_c, 0, 57, 0
2, 43544, Note_on_c, 0, 60, 50
2, 43800, Note_on_c, 0, 60, 0
2, 43810, Note_on_c, 0, 75, 56
2, 43822, Note_on_c, 0, 59, 33
2, 43880, Note_on_c, 0, 84, 0
2, 44040, Note_on_c, 0, 59, 0
2, 44088, Note_on_c, 0, 57, 35
2, 44244, Control_c, 0, 64, 127
2, 44292, Note_on_c, 0, 53, 0
2, 44458, Control_c, 0, 64, 0
2, 44490, Note_on_c, 0, 76, 39
2, 44500, Note_on_c, 0, 57, 0
2, 44500, Note_on_c, 0, 56, 21
2, 44516, Note_on_c, 0, 52, 27
2, 44538, Note_on_c, 0, 75, 0
2, 45136, Control_c, 0, 64, 127
2, 45248, Note_on_c, 0, 56, 0
2, 45374, Note_on_c, 0, 52, 0
2, 45548, Note_on_c, 0, 76, 0
2, 45554, Note_on_c, 0, 78, 50
2, 45680, Note_on_c, 0, 78, 0
2, 45702, Note_on_c, 0, 76, 22
2, 45772, Note_on_c, 0, 76, 0
2, 45812, Control_c, 0, 64, 0
2, 45844, Note_on_c, 0, 76, 60
2, 45948, Note_on_c, 0, 74, 69
2, 45968, Note_on_c, 0, 76, 0
2, 46014, Note_on_c, 0, 74, 0
2, 46056, Control_c, 0, 64, 127
2, 46070, Note_on_c, 0, 73, 58
2, 46162, Note_on_c, 0, 71, 83
2, 46200, Note_on_c, 0, 71, 0
2, 46203, Note_on_c, 0, 73, 0
2, 46334, Note_on_c, 0, 61, 75
2, 46416, Note_on_c, 0, 64, 63
2, 46464, Note_on_c, 0, 69, 81
2, 46464, Note_on_c, 0, 57, 52
2, 46467, Note_on_c, 0, 45, 43
2, 46472, Control_c, 0, 64, 0
2, 46488, Note_on_c, 0, 61, 0
2, 46568, Note_on_c, 0, 64, 0
2, 46810, Control_c, 0, 64, 127
2, 47144, Note_on_c, 0, 57, 0
2, 47264, Note_on_c, 0, 45, 0
2, 47470, Note_on_c, 0, 64, 91
2, 47472, Note_on_c, 0, 52, 91
2, 47480, Note_on_c, 0, 40, 88
2, 47500, Note_on_c, 0, 69, 0
2, 47562, Control_c, 0, 64, 0
2, 47672, Note_on_c, 0, 40, 0
2, 47696, Note_on_c, 0, 52, 0
2, 47746, Control_c, 0, 64, 127
2, 47916, Note_on_c, 0, 64, 0
2, 47932, Control_c, 0, 64, 0
2, 47954, Note_on_c, 0, 73, 86
2, 47956, Note_on_c, 0, 61, 88
2, 47964, Note_on_c, 0, 49, 80
2, 48222, Control_c, 0, 64, 127
2, 48268, Note_on_c, 0, 74, 78
2, 48290, Note_on_c, 0, 61, 0
2, 48332, Note_on_c, 0, 73, 0
2, 48370, Note_on_c, 0, 71, 82
2, 48392, Control_c, 0, 64, 0
2, 48412, Note_on_c, 0, 74, 0
2, 48514, Note_on_c, 0, 69, 63
2, 48524, Note_on_c, 0, 71, 0
2, 48524, Note_on_c, 0, 49, 0
2, 48536, Note_on_c, 0, 57, 36
2, 48550, Note_on_c, 0, 45, 36
2, 48832, Note_on_c, 0, 57, 0
2, 48838, Control_c, 0, 64, 127
2, 48880, Note_on_c, 0, 45, 0
2, 48942, Note_on_c, 0, 69, 0
2, 49006, Control_c, 0, 64, 0
2, 49508, Note_on_c, 0, 76, 45
2, 49808, Note_on_c, 0, 78, 43
2, 49850, Note_on_c, 0, 76, 0
2, 49932, Note_on_c, 0, 74, 64
2, 49938, Note_on_c, 0, 78, 0
2, 49976, Control_c, 0, 64, 127
2, 50016, Note_on_c, 0, 74, 0
2, 50066, Note_on_c, 0, 73, 62
2, 50144, Control_c, 0, 64, 0
2, 50374, Control_c, 0, 64, 127
2, 50498, Control_c, 0, 64, 0
2, 50520, Note_on_c, 0, 85, 64
2, 50526, Note_on_c, 0, 66, 24
2, 50542, Note_on_c, 0, 73, 0
2, 50560, Note_on_c, 0, 57, 21
2, 50712, Control_c, 0, 64, 127
2, 50754, Note_on_c, 0, 57, 0
2, 50806, Note_on_c, 0, 85, 0
2, 50816, Note_on_c, 0, 66, 0
2, 51056, Note_on_c, 0, 75, 42
2, 51072, Note_on_c, 0, 69, 14
2, 51118, Note_on_c, 0, 59, 8
2, 51158, Control_c, 0, 64, 0
2, 51480, Control_c, 0, 64, 127
2, 51648, Note_on_c, 0, 69, 0
2, 51686, Note_on_c, 0, 76, 27
2, 51734, Note_on_c, 0, 68, 5
2, 51742, Control_c, 0, 64, 0
2, 51746, Note_on_c, 0, 75, 0
2, 51768, Note_on_c, 0, 64, 9
2, 51774, Note_on_c, 0, 59, 0
2, 52162, Note_on_c, 0, 64, 0
2, 52194, Note_on_c, 0, 68, 0
2, 52218, Control_c, 0, 64, 127
2, 52358, Control_c, 0, 64, 0
2, 52664, Control_c, 0, 64, 127
2, 52718, Note_on_c, 0, 77, 34
2, 52814, Note_on_c, 0, 76, 0
2, 53044, Note_on_c, 0, 80, 38
2, 53064, Control_c, 0, 64, 0
2, 53067, Note_on_c, 0, 77, 0
2, 53264, Control_c, 0, 64, 127
2, 53310, Control_c, 0, 64, 0
2, 53318, Note_on_c, 0, 78, 38
2, 53384, Note_on_c, 0, 80, 0
2, 53510, Control_c, 0, 64, 127
2, 53560, Note_on_c, 0, 76, 43
2, 53584, Note_on_c, 0, 78, 0
2, 53778, Note_on_c, 0, 74, 54
2, 53780, Note_on_c, 0, 76, 0
2, 54008, Note_on_c, 0, 73, 45
2, 54064, Note_on_c, 0, 74, 0
2, 54248, Note_on_c, 0, 71, 52
2, 54276, Note_on_c, 0, 73, 0
2, 54462, Control_c, 0, 64, 0
2, 54492, Note_on_c, 0, 69, 32
2, 54516, Note_on_c, 0, 71, 0
2, 54538, Note_on_c, 0, 52, 29
2, 54739, Note_on_c, 0, 68, 41
2, 54782, Note_on_c, 0, 69, 0
2, 54810, Note_on_c, 0, 62, 20
2, 54996, Note_on_c, 0, 76, 37
2, 55012, Note_on_c, 0, 62, 0
2, 55012, Note_on_c, 0, 68, 0
2, 55060, Note_on_c, 0, 59, 23
2, 55264, Note_on_c, 0, 74, 33
2, 55269, Note_on_c, 0, 59, 0
2, 55269, Note_on_c, 0, 76, 0
2, 55278, Note_on_c, 0, 62, 30
2, 55338, Control_c, 0, 64, 127
2, 55446, Note_on_c, 0, 62, 0
2, 55452, Note_on_c, 0, 74, 0
2, 55522, Note_on_c, 0, 59, 28
2, 55682, Note_on_c, 0, 52, 0
2, 55742, Note_on_c, 0, 59, 0
2, 55754, Note_on_c, 0, 62, 28
2, 55972, Note_on_c, 0, 62, 0
2, 56012, Note_on_c, 0, 71, 52
2, 56030, Control_c, 0, 64, 0
2, 56040, Note_on_c, 0, 52, 35
2, 56250, Note_on_c, 0, 69, 48
2, 56256, Note_on_c, 0, 71, 0
2, 56262, Note_on_c, 0, 61, 30
2, 56488, Note_on_c, 0, 61, 0
2, 56496, Note_on_c, 0, 78, 52
2, 56516, Note_on_c, 0, 69, 0
2, 56540, Note_on_c, 0, 57, 19
2, 56728, Note_on_c, 0, 76, 38
2, 56736, Note_on_c, 0, 57, 0
2, 56736, Note_on_c, 0, 61, 31
2, 56752, Note_on_c, 0, 78, 0
2, 56928, Note_on_c, 0, 61, 0
2, 56950, Note_on_c, 0, 76, 0
2, 56986, Note_on_c, 0, 57, 32
2, 57012, Note_on_c, 0, 52, 0
2, 57012, Control_c, 0, 64, 127
2, 57164, Note_on_c, 0, 57, 0
2, 57192, Note_on_c, 0, 61, 34
2, 57410, Note_on_c, 0, 61, 0
2, 57452, Note_on_c, 0, 71, 76
2, 57454, Note_on_c, 0, 52, 40
2, 57520, Control_c, 0, 64, 0
2, 57710, Note_on_c, 0, 69, 69
2, 57728, Note_on_c, 0, 71, 0
2, 57744, Note_on_c, 0, 61, 36
2, 57964, Note_on_c, 0, 61, 0
2, 57970, Note_on_c, 0, 69, 0
2, 57976, Note_on_c, 0, 81, 74
2, 58011, Note_on_c, 0, 57, 25
2, 58242, Note_on_c, 0, 57, 0
2, 58242, Control_c, 0, 64, 127
2, 58252, Note_on_c, 0, 79, 70
2, 58256, Note_on_c, 0, 61, 32
2, 58298, Note_on_c, 0, 81, 0
2, 58334, Control_c, 0, 64, 0
2, 58474, Note_on_c, 0, 61, 0
2, 58502, Control_c, 0, 64, 127
2, 58504, Note_on_c, 0, 57, 32
2, 58524, Note_on_c, 0, 79, 0
2, 58710, Note_on_c, 0, 57, 0
2, 58726, Note_on_c, 0, 52, 0
2, 58748, Note_on_c, 0, 61, 42
2, 58846, Note_on_c, 0, 61, 0
2, 59118, Control_c, 0, 64, 0
2, 59121, Note_on_c, 0, 79, 52
2, 59140, Note_on_c, 0, 62, 15
2, 59142, Note_on_c, 0, 57, 17
2, 59148, Note_on_c, 0, 50, 15
2, 59388, Note_on_c, 0, 78, 52
2, 59456, Control_c, 0, 64, 127
2, 59480, Note_on_c, 0, 79, 0
2, 59486, Control_c, 0, 64, 0
2, 59632, Note_on_c, 0, 76, 51
2, 59658, Note_on_c, 0, 78, 0
2, 59702, Note_on_c, 0, 50, 0
2, 59710, Note_on_c, 0, 57, 0
2, 59714, Note_on_c, 0, 62, 0
2, 59856, Note_on_c, 0, 74, 63
2, 59862, Note_on_c, 0, 76, 0
2, 60116, Note_on_c, 0, 73, 57
2, 60136, Note_on_c, 0, 74, 0
2, 60342, Note_on_c, 0, 71, 71
2, 60364, Note_on_c, 0, 73, 0
2, 60636, Note_on_c, 0, 49, 35
2, 60644, Note_on_c, 0, 76, 52
2, 60694, Note_on_c, 0, 71, 0
2, 60730, Note_on_c, 0, 76, 0
2, 60770, Note_on_c, 0, 78, 49
2, 60822, Control_c, 0, 64, 127
2, 60826, Note_on_c, 0, 76, 35
2, 60856, Note_on_c, 0, 78, 0
2, 60896, Note_on_c, 0, 76, 0
2, 60918, Note_on_c, 0, 74, 52
2, 60976, Control_c, 0, 64, 0
2, 60998, Note_on_c, 0, 76, 34
2, 61028, Note_on_c, 0, 74, 0
2, 61160, Note_on_c, 0, 49, 0
2, 61170, Note_on_c, 0, 50, 26
2, 61210, Note_on_c, 0, 78, 51
2, 61222, Control_c, 0, 64, 127
2, 61224, Note_on_c, 0, 76, 0
2, 61360, Note_on_c, 0, 50, 0
2, 61362, Control_c, 0, 64, 0
2, 61372, Note_on_c, 0, 69, 44
2, 61372, Note_on_c, 0, 61, 30
2, 61382, Note_on_c, 0, 78, 0
2, 61432, Note_on_c, 0, 52, 28
2, 61746, Control_c, 0, 64, 127
2, 61810, Note_on_c, 0, 61, 0
2, 62018, Note_on_c, 0, 68, 37
2, 62050, Note_on_c, 0, 69, 0
2, 62082, Note_on_c, 0, 59, 19
2, 62130, Control_c, 0, 64, 0
2, 62282, Note_on_c, 0, 52, 0
2, 62298, Control_c, 0, 64, 127
2, 62366, Note_on_c, 0, 59, 0
2, 62366, Note_on_c, 0, 69, 50
2, 62428, Note_on_c, 0, 68, 0
2, 62440, Note_on_c, 0, 73, 58
2, 62486, Note_on_c, 0, 69, 0
2, 62498, Control_c, 0, 64, 0
2, 62520, Note_on_c, 0, 76, 77
2, 62520, Note_on_c, 0, 57, 37
2, 62570, Note_on_c, 0, 73, 0
2, 62782, Note_on_c, 0, 61, 43
2, 62804, Control_c, 0, 64, 127
2, 62808, Note_on_c, 0, 76, 0
2, 62822, Note_on_c, 0, 57, 0
2, 63024, Note_on_c, 0, 61, 0
2, 63030, Note_on_c, 0, 76, 67
2, 63048, Note_on_c, 0, 64, 44
2, 63142, Control_c, 0, 64, 0
2, 63258, Note_on_c, 0, 64, 0
2, 63272, Note_on_c, 0, 61, 52
2, 63358, Control_c, 0, 64, 127
2, 63504, Note_on_c, 0, 61, 0
2, 63512, Control_c, 0, 64, 0
2, 63518, Note_on_c, 0, 59, 45
2, 63738, Note_on_c, 0, 59, 0
2, 63741, Control_c, 0, 64, 127
2, 63750, Note_on_c, 0, 57, 42
2, 63852, Note_on_c, 0, 76, 0
2, 63992, Note_on_c, 0, 57, 0
2, 63997, Note_on_c, 0, 56, 35
2, 64008, Note_on_c, 0, 76, 59
2, 64018, Control_c, 0, 64, 0
2, 64146, Note_on_c, 0, 74, 54
2, 64158, Note_on_c, 0, 76, 0
2, 64254, Note_on_c, 0, 73, 52
2, 64272, Note_on_c, 0, 74, 0
2, 64272, Note_on_c, 0, 57, 32
2, 64290, Note_on_c, 0, 56, 0
2, 64342, Control_c, 0, 64, 127
2, 64378, Note_on_c, 0, 71, 78
2, 64404, Note_on_c, 0, 73, 0
2, 64418, Note_on_c, 0, 71, 0
2, 64500, Note_on_c, 0, 57, 0
2, 64514, Note_on_c, 0, 71, 51
2, 64534, Note_on_c, 0, 59, 31
2, 64630, Note_on_c, 0, 69, 54
2, 64660, Note_on_c, 0, 71, 0
2, 64680, Control_c, 0, 64, 0
2, 64738, Note_on_c, 0, 68, 57
2, 64766, Note_on_c, 0, 52, 48
2, 64778, Note_on_c, 0, 69, 0
2, 64816, Note_on_c, 0, 59, 0
2, 64862, Note_on_c, 0, 66, 48
2, 64894, Note_on_c, 0, 68, 0
2, 64978, Note_on_c, 0, 54, 55
2, 64992, Note_on_c, 0, 64, 59
2, 65002, Note_on_c, 0, 66, 0
2, 65002, Control_c, 0, 64, 127
2, 65005, Note_on_c, 0, 52, 0
2, 65096, Note_on_c, 0, 62, 66
2, 65120, Note_on_c, 0, 64, 0
2, 65198, Note_on_c, 0, 61, 67
2, 65216, Note_on_c, 0, 62, 0
2, 65216, Note_on_c, 0, 54, 0
2, 65216, Note_on_c, 0, 56, 39
2, 65296, Note_on_c, 0, 56, 0
2, 65298, Note_on_c, 0, 62, 63
2, 65318, Note_on_c, 0, 61, 0
2, 65420, Note_on_c, 0, 62, 0
2, 65420, Note_on_c, 0, 61, 62
2, 65432, Control_c, 0, 64, 0
2, 65458, Note_on_c, 0, 57, 49
2, 65546, Note_on_c, 0, 61, 0
2, 65556, Note_on_c, 0, 64, 75
2, 65682, Note_on_c, 0, 69, 65
2, 65687, Note_on_c, 0, 64, 0
2, 65708, Note_on_c, 0, 61, 49
2, 65742, Note_on_c, 0, 57, 0
2, 65804, Note_on_c, 0, 73, 67
2, 65828, Note_on_c, 0, 69, 0
2, 65956, Note_on_c, 0, 61, 0
2, 65978, Note_on_c, 0, 76, 65
2, 65981, Note_on_c, 0, 64, 45
2, 66014, Note_on_c, 0, 73, 0
2, 66220, Note_on_c, 0, 64, 0
2, 66236, Note_on_c, 0, 61, 41
2, 66468, Note_on_c, 0, 61, 0
2, 66490, Note_on_c, 0, 59, 35
2, 66678, Control_c, 0, 64, 127
2, 66684, Note_on_c, 0, 76, 0
2, 66702, Note_on_c, 0, 59, 0
2, 66732, Note_on_c, 0, 88, 59
2, 66744, Note_on_c, 0, 57, 33
2, 66860, Note_on_c, 0, 88, 0
2, 66974, Note_on_c, 0, 57, 0
2, 66984, Note_on_c, 0, 56, 35
2, 66992, Note_on_c, 0, 88, 69
2, 67030, Control_c, 0, 64, 0
2, 67114, Note_on_c, 0, 86, 65
2, 67130, Note_on_c, 0, 88, 0
2, 67228, Note_on_c, 0, 85, 67
2, 67238, Note_on_c, 0, 57, 35
2, 67248, Note_on_c, 0, 56, 0
2, 67256, Note_on_c, 0, 86, 0
2, 67360, Note_on_c, 0, 83, 84
2, 67380, Note_on_c, 0, 85, 0
2, 67400, Note_on_c, 0, 83, 0
2, 67438, Note_on_c, 0, 57, 0
2, 67466, Note_on_c, 0, 83, 60
2, 67488, Note_on_c, 0, 59, 35
2, 67570, Note_on_c, 0, 81, 23
2, 67588, Note_on_c, 0, 83, 0
2, 67716, Note_on_c, 0, 80, 60
2, 67718, Note_on_c, 0, 52, 49
2, 67730, Note_on_c, 0, 81, 0
2, 67752, Note_on_c, 0, 59, 0
2, 67850, Note_on_c, 0, 78, 57
2, 67870, Note_on_c, 0, 80, 0
2, 67922, Note_on_c, 0, 54, 48
2, 67968, Note_on_c, 0, 76, 54
2, 67971, Note_on_c, 0, 52, 0
2, 67976, Note_on_c, 0, 78, 0
2, 68076, Note_on_c, 0, 74, 69
2, 68102, Note_on_c, 0, 76, 0
2, 68170, Note_on_c, 0, 74, 0
2, 68186, Note_on_c, 0, 56, 36
2, 68192, Note_on_c, 0, 73, 56
2, 68202, Note_on_c, 0, 54, 0
2, 68292, Note_on_c, 0, 74, 62
2, 68310, Note_on_c, 0, 73, 0
2, 68406, Note_on_c, 0, 74, 0
2, 68416, Note_on_c, 0, 56, 0
2, 68424, Note_on_c, 0, 73, 48
2, 68448, Note_on_c, 0, 57, 25
2, 68552, Note_on_c, 0, 76, 61
2, 68558, Note_on_c, 0, 73, 0
2, 68652, Note_on_c, 0, 57, 0
2, 68674, Note_on_c, 0, 74, 70
2, 68696, Note_on_c, 0, 76, 0
2, 68754, Note_on_c, 0, 74, 0
2, 68760, Note_on_c, 0, 73, 66
2, 68878, Note_on_c, 0, 73, 0
2, 68890, Note_on_c, 0, 57, 43
2, 68894, Note_on_c, 0, 74, 87
2, 68900, Note_on_c, 0, 54, 42
2, 69018, Note_on_c, 0, 76, 74
2, 69050, Note_on_c, 0, 74, 0
2, 69090, Note_on_c, 0, 57, 0
2, 69128, Note_on_c, 0, 78, 82
2, 69146, Note_on_c, 0, 54, 0
2, 69160, Note_on_c, 0, 76, 0
2, 69250, Note_on_c, 0, 80, 80
2, 69290, Note_on_c, 0, 78, 0
2, 69360, Note_on_c, 0, 81, 87
2, 69363, Note_on_c, 0, 80, 0
2, 69366, Note_on_c, 0, 57, 51
2, 69370, Note_on_c, 0, 50, 51
2, 69374, Note_on_c, 0, 54, 55
2, 69460, Note_on_c, 0, 81, 0
2, 69490, Note_on_c, 0, 83, 107
2, 69550, Note_on_c, 0, 57, 0
2, 69604, Note_on_c, 0, 85, 84
2, 69612, Note_on_c, 0, 50, 0
2, 69614, Note_on_c, 0, 54, 0
2, 69632, Note_on_c, 0, 83, 0
2, 69724, Note_on_c, 0, 86, 85
2, 69784, Note_on_c, 0, 85, 0
2, 69852, Note_on_c, 0, 49, 33
2, 69854, Note_on_c, 0, 57, 33
2, 69854, Note_on_c, 0, 88, 84
2, 69870, Note_on_c, 0, 52, 36
2, 69884, Note_on_c, 0, 86, 0
2, 69986, Note_on_c, 0, 86, 63
2, 70038, Note_on_c, 0, 88, 0
2, 70106, Note_on_c, 0, 85, 69
2, 70130, Note_on_c, 0, 86, 0
2, 70134, Control_c, 0, 64, 127
2, 70234, Note_on_c, 0, 83, 87
2, 70250, Note_on_c, 0, 85, 0
2, 70298, Note_on_c, 0, 52, 0
2, 70304, Note_on_c, 0, 57, 0
2, 70336, Note_on_c, 0, 49, 0
2, 70346, Note_on_c, 0, 83, 0
2, 70358, Note_on_c, 0, 81, 60
2, 70380, Control_c, 0, 64, 0
2, 70470, Note_on_c, 0, 80, 61
2, 70498, Note_on_c, 0, 81, 0
2, 70578, Note_on_c, 0, 78, 62
2, 70610, Note_on_c, 0, 80, 0
2, 70722, Note_on_c, 0, 76, 49
2, 70746, Note_on_c, 0, 78, 0
2, 70826, Note_on_c, 0, 76, 0
2, 70834, Note_on_c, 0, 74, 55
2, 70942, Note_on_c, 0, 73, 55
2, 70964, Note_on_c, 0, 74, 0
2, 71062, Note_on_c, 0, 71, 60
2, 71086, Note_on_c, 0, 73, 0
2, 71162, Note_on_c, 0, 71, 0
2, 71178, Note_on_c, 0, 69, 43
2, 71364, Control_c, 0, 64, 127
2, 71384, Note_on_c, 0, 69, 0
2, 71430, Note_on_c, 0, 78, 44
2, 71454, Note_on_c, 0, 59, 25
2, 71468, Note_on_c, 0, 50, 23
2, 71492, Note_on_c, 0, 78, 0
2, 71514, Note_on_c, 0, 80, 59
2, 71578, Note_on_c, 0, 80, 0
2, 71592, Note_on_c, 0, 78, 34
2, 71664, Note_on_c, 0, 78, 0
2, 71664, Note_on_c, 0, 80, 52
2, 71728, Note_on_c, 0, 78, 62
2, 71788, Note_on_c, 0, 80, 0
2, 71824, Note_on_c, 0, 78, 0
2, 71826, Note_on_c, 0, 76, 50
2, 71858, Note_on_c, 0, 50, 0
2, 71884, Note_on_c, 0, 76, 0
2, 71890, Note_on_c, 0, 78, 66
2, 71972, Note_on_c, 0, 80, 66
2, 72012, Note_on_c, 0, 78, 0
2, 72054, Control_c, 0, 64, 0
2, 72076, Note_on_c, 0, 81, 65
2, 72092, Note_on_c, 0, 80, 0
2, 72166, Note_on_c, 0, 61, 17
2, 72180, Note_on_c, 0, 52, 32
2, 72202, Note_on_c, 0, 81, 0
2, 72212, Note_on_c, 0, 69, 49
2, 72266, Note_on_c, 0, 59, 0
2, 72702, Note_on_c, 0, 61, 0
2, 72748, Note_on_c, 0, 73, 39
2, 72758, Note_on_c, 0, 68, 31
2, 72772, Note_on_c, 0, 62, 23
2, 72782, Note_on_c, 0, 69, 0
2, 73056, Note_on_c, 0, 71, 41
2, 73064, Note_on_c, 0, 73, 0
2, 73242, Note_on_c, 0, 71, 0
2, 73248, Note_on_c, 0, 68, 0
2, 73264, Note_on_c, 0, 52, 0
2, 73302, Note_on_c, 0, 62, 0
2, 73356, Note_on_c, 0, 61, 16
2, 73362, Note_on_c, 0, 69, 20
2, 73368, Note_on_c, 0, 57, 15
2, 73592, Control_c, 0, 64, 127
2, 73666, Note_on_c, 0, 57, 0
2, 73868, Control_c, 0, 64, 0
2, 74036, Note_on_c, 0, 45, 16
2, 74082, Note_on_c, 0, 61, 0
2, 74144, Control_c, 0, 64, 127
2, 74148, Note_on_c, 0, 69, 0
2, 74198, Note_on_c, 0, 45, 0
2, 75266, Control_c, 0, 64, 0
2, 75820, Control_c, 0, 64, 127
2, 75820, Note_on_c, 0, 69, 17
2, 75822, Note_on_c, 0, 66, 22
2, 75834, Note_on_c, 0, 50, 9
2, 75858, Note_on_c, 0, 38, 20
2, 76086, Note_on_c, 0, 66, 0
2, 76106, Note_on_c, 0, 57, 19
2, 76288, Note_on_c, 0, 57, 0
2, 76344, Note_on_c, 0, 69, 0
2, 76346, Note_on_c, 0, 66, 35
2, 76360, Note_on_c, 0, 62, 26
2, 76606, Note_on_c, 0, 57, 28
2, 76696, Note_on_c, 0, 62, 0
2, 76756, Note_on_c, 0, 66, 0
2, 76756, Note_on_c, 0, 57, 0
2, 76840, Note_on_c, 0, 67, 34
2, 76854, Note_on_c, 0, 64, 29
2, 76910, Control_c, 0, 64, 0
2, 77048, Control_c, 0, 64, 127
2, 77088, Note_on_c, 0, 57, 26
2, 77106, Note_on_c, 0, 67, 0
2, 77196, Note_on_c, 0, 64, 0
2, 77218, Note_on_c, 0, 57, 0
2, 77344, Note_on_c, 0, 69, 27
2, 77356, Note_on_c, 0, 66, 16
2, 77402, Control_c, 0, 64, 0
2, 77586, Note_on_c, 0, 66, 0
2, 77588, Control_c, 0, 64, 127
2, 77600, Note_on_c, 0, 57, 21
2, 77692, Note_on_c, 0, 57, 0
2, 77786, Note_on_c, 0, 69, 0
2, 77844, Note_on_c, 0, 66, 29
2, 77878, Note_on_c, 0, 62, 22
2, 77996, Note_on_c, 0, 62, 0
2, 78006, Note_on_c, 0, 66, 0
2, 78076, Note_on_c, 0, 61, 44
2, 78094, Note_on_c, 0, 64, 43
2, 78214, Note_on_c, 0, 64, 0
2, 78246, Note_on_c, 0, 61, 0
2, 78296, Note_on_c, 0, 66, 45
2, 78336, Note_on_c, 0, 62, 27
2, 78378, Note_on_c, 0, 50, 0
2, 78386, Note_on_c, 0, 38, 0
2, 78416, Note_on_c, 0, 62, 0
2, 78520, Note_on_c, 0, 67, 55
2, 78526, Note_on_c, 0, 64, 51
2, 78538, Note_on_c, 0, 66, 0
2, 78570, Note_on_c, 0, 64, 0
2, 78594, Note_on_c, 0, 67, 0
2, 78762, Note_on_c, 0, 69, 54
2, 78782, Note_on_c, 0, 66, 31
2, 78816, Control_c, 0, 64, 0
2, 79010, Note_on_c, 0, 62, 39
2, 79070, Note_on_c, 0, 66, 0
2, 79092, Control_c, 0, 64, 127
2, 79232, Note_on_c, 0, 62, 0
2, 79258, Note_on_c, 0, 67, 40
2, 79266, Note_on_c, 0, 71, 69
2, 79278, Control_c, 0, 64, 0
2, 79286, Note_on_c, 0, 69, 0
2, 79442, Note_on_c, 0, 67, 0
2, 79446, Control_c, 0, 64, 127
2, 79494, Note_on_c, 0, 62, 33
2, 79554, Note_on_c, 0, 71, 0
2, 79566, Note_on_c, 0, 62, 0
2, 79714, Note_on_c, 0, 73, 52
2, 79734, Note_on_c, 0, 57, 24
2, 79736, Note_on_c, 0, 67, 40
2, 79770, Note_on_c, 0, 45, 22
2, 79836, Note_on_c, 0, 57, 0
2, 79850, Note_on_c, 0, 45, 0
2, 79926, Note_on_c, 0, 67, 0
2, 79966, Note_on_c, 0, 64, 34
2, 80054, Note_on_c, 0, 64, 0
2, 80174, Note_on_c, 0, 66, 33
2, 80180, Note_on_c, 0, 74, 63
2, 80182, Note_on_c, 0, 73, 0
2, 80184, Control_c, 0, 64, 0
2, 80190, Note_on_c, 0, 50, 39
2, 80214, Note_on_c, 0, 38, 17
2, 80310, Note_on_c, 0, 38, 0
2, 80322, Note_on_c, 0, 66, 0
2, 80352, Note_on_c, 0, 50, 0
2, 80352, Control_c, 0, 64, 127
2, 80360, Note_on_c, 0, 74, 0
2, 80412, Note_on_c, 0, 69, 25
2, 80484, Note_on_c, 0, 69, 0
2, 80710, Note_on_c, 0, 66, 38
2, 80722, Note_on_c, 0, 62, 43
2, 80725, Note_on_c, 0, 78, 55
2, 80788, Note_on_c, 0, 62, 0
2, 80800, Note_on_c, 0, 78, 0
2, 80876, Note_on_c, 0, 66, 0
2, 80942, Note_on_c, 0, 76, 57
2, 80952, Note_on_c, 0, 61, 44
2, 80970, Note_on_c, 0, 64, 39
2, 81138, Note_on_c, 0, 61, 0
2, 81152, Control_c, 0, 64, 0
2, 81160, Note_on_c, 0, 78, 75
2, 81174, Note_on_c, 0, 66, 51
2, 81176, Note_on_c, 0, 64, 0
2, 81196, Note_on_c, 0, 62, 43
2, 81218, Note_on_c, 0, 76, 0
2, 81274, Note_on_c, 0, 62, 0
2, 81336, Control_c, 0, 64, 127
2, 81382, Note_on_c, 0, 79, 83
2, 81402, Note_on_c, 0, 67, 50
2, 81408, Note_on_c, 0, 64, 42
2, 81416, Note_on_c, 0, 66, 0
2, 81456, Note_on_c, 0, 67, 0
2, 81459, Note_on_c, 0, 64, 0
2, 81476, Note_on_c, 0, 78, 0
2, 81628, Note_on_c, 0, 69, 43
2, 81628, Note_on_c, 0, 81, 73
2, 81631, Note_on_c, 0, 66, 30
2, 81650, Note_on_c, 0, 79, 0
2, 81674, Control_c, 0, 64, 0
2, 81880, Note_on_c, 0, 62, 39
2, 81888, Control_c, 0, 64, 127
2, 81978, Note_on_c, 0, 62, 0
2, 81981, Note_on_c, 0, 66, 0
2, 82104, Note_on_c, 0, 69, 0
2, 82106, Note_on_c, 0, 83, 85
2, 82118, Note_on_c, 0, 71, 42
2, 82120, Control_c, 0, 64, 0
2, 82136, Note_on_c, 0, 81, 0
2, 82158, Note_on_c, 0, 67, 10
2, 82334, Control_c, 0, 64, 127
2, 82356, Note_on_c, 0, 67, 0
2, 82364, Note_on_c, 0, 71, 0
2, 82378, Note_on_c, 0, 62, 39
2, 82438, Note_on_c, 0, 62, 0
2, 82588, Note_on_c, 0, 73, 43
2, 82596, Note_on_c, 0, 85, 50
2, 82608, Note_on_c, 0, 67, 32
2, 82620, Note_on_c, 0, 83, 0
2, 82658, Control_c, 0, 64, 0
2, 82814, Note_on_c, 0, 67, 0
2, 82844, Note_on_c, 0, 64, 33
2, 82888, Control_c, 0, 64, 127
2, 82946, Note_on_c, 0, 64, 0
2, 82988, Note_on_c, 0, 73, 0
2, 83070, Note_on_c, 0, 74, 38
2, 83072, Note_on_c, 0, 66, 21
2, 83078, Note_on_c, 0, 85, 0
2, 83078, Note_on_c, 0, 86, 46
2, 83134, Control_c, 0, 64, 0
2, 83318, Note_on_c, 0, 74, 0
2, 83352, Note_on_c, 0, 69, 19
2, 83426, Control_c, 0, 64, 127
2, 83444, Note_on_c, 0, 66, 0
2, 83584, Note_on_c, 0, 86, 0
2, 83592, Note_on_c, 0, 74, 47
2, 83595, Note_on_c, 0, 66, 22
2, 83602, Note_on_c, 0, 69, 0
2, 83664, Note_on_c, 0, 66, 0
2, 83808, Note_on_c, 0, 73, 61
2, 83820, Note_on_c, 0, 74, 0
2, 83838, Note_on_c, 0, 64, 36
2, 83878, Note_on_c, 0, 73, 0
2, 83898, Note_on_c, 0, 64, 0
2, 84036, Note_on_c, 0, 71, 71
2, 84044, Note_on_c, 0, 62, 59
2, 84106, Note_on_c, 0, 71, 0
2, 84240, Note_on_c, 0, 62, 0
2, 84246, Note_on_c, 0, 61, 62
2, 84249, Note_on_c, 0, 69, 62
2, 84336, Note_on_c, 0, 61, 0
2, 84498, Note_on_c, 0, 68, 54
2, 84518, Note_on_c, 0, 69, 0
2, 84518, Note_on_c, 0, 52, 60
2, 84521, Note_on_c, 0, 59, 43
2, 84548, Control_c, 0, 64, 0
2, 84764, Note_on_c, 0, 59, 0
2, 84770, Note_on_c, 0, 64, 38
2, 84808, Control_c, 0, 64, 127
2, 84864, Note_on_c, 0, 64, 0
2, 84970, Note_on_c, 0, 61, 58
2, 84976, Note_on_c, 0, 69, 61
2, 84990, Note_on_c, 0, 49, 54
2, 84992, Note_on_c, 0, 52, 0
2, 84995, Note_on_c, 0, 68, 0
2, 85054, Control_c, 0, 64, 0
2, 85214, Note_on_c, 0, 69, 0
2, 85238, Control_c, 0, 64, 127
2, 85262, Note_on_c, 0, 64, 25
2, 85324, Note_on_c, 0, 61, 0
2, 85380, Note_on_c, 0, 64, 0
2, 85430, Note_on_c, 0, 49, 0
2, 85468, Note_on_c, 0, 73, 50
2, 85476, Note_on_c, 0, 69, 29
2, 85486, Note_on_c, 0, 45, 33
2, 85516, Control_c, 0, 64, 0
2, 85650, Note_on_c, 0, 69, 0
2, 85728, Note_on_c, 0, 64, 42
2, 85730, Control_c, 0, 64, 127
2, 85822, Note_on_c, 0, 64, 0
2, 85924, Note_on_c, 0, 45, 0
2, 85948, Note_on_c, 0, 71, 52
2, 85956, Note_on_c, 0, 68, 30
2, 85960, Control_c, 0, 64, 0
2, 85968, Note_on_c, 0, 73, 0
2, 85971, Note_on_c, 0, 52, 36
2, 86142, Note_on_c, 0, 52, 0
2, 86176, Control_c, 0, 64, 127
2, 86182, Note_on_c, 0, 68, 0
2, 86188, Note_on_c, 0, 64, 34
2, 86248, Note_on_c, 0, 71, 0
2, 86282, Note_on_c, 0, 64, 0
2, 86502, Note_on_c, 0, 74, 39
2, 86502, Note_on_c, 0, 86, 76
2, 86528, Note_on_c, 0, 66, 18
2, 86622, Control_c, 0, 64, 0
2, 86654, Note_on_c, 0, 66, 0
2, 86774, Note_on_c, 0, 74, 0
2, 86774, Note_on_c, 0, 73, 53
2, 86774, Note_on_c, 0, 85, 65
2, 86777, Control_c, 0, 64, 127
2, 86798, Note_on_c, 0, 64, 26
2, 86804, Note_on_c, 0, 86, 0
2, 86830, Note_on_c, 0, 73, 0
2, 86864, Note_on_c, 0, 64, 0
2, 86952, Note_on_c, 0, 85, 0
2, 86996, Note_on_c, 0, 83, 82
2, 87002, Note_on_c, 0, 71, 63
2, 87018, Note_on_c, 0, 62, 38
2, 87058, Note_on_c, 0, 71, 0
2, 87116, Note_on_c, 0, 62, 0
2, 87152, Note_on_c, 0, 83, 0
2, 87224, Note_on_c, 0, 81, 62
2, 87226, Note_on_c, 0, 69, 40
2, 87232, Note_on_c, 0, 61, 48
2, 87266, Note_on_c, 0, 81, 0
2, 87292, Note_on_c, 0, 61, 0
2, 87338, Note_on_c, 0, 69, 0
2, 87448, Note_on_c, 0, 87, 55
2, 87516, Note_on_c, 0, 87, 0
2, 87528, Note_on_c, 0, 88, 60
2, 87528, Control_c, 0, 64, 0
2, 87540, Note_on_c, 0, 59, 45
2, 87542, Note_on_c, 0, 68, 47
2, 87744, Note_on_c, 0, 59, 0
2, 87758, Control_c, 0, 64, 127
2, 87768, Note_on_c, 0, 68, 0
2, 87800, Note_on_c, 0, 64, 40
2, 87818, Note_on_c, 0, 88, 0
2, 87872, Note_on_c, 0, 64, 0
2, 87972, Note_on_c, 0, 87, 30
2, 88006, Note_on_c, 0, 69, 29
2, 88008, Note_on_c, 0, 61, 28
2, 88020, Note_on_c, 0, 88, 61
2, 88034, Control_c, 0, 64, 0
2, 88039, Note_on_c, 0, 87, 0
2, 88170, Note_on_c, 0, 69, 0
2, 88204, Control_c, 0, 64, 127
2, 88240, Note_on_c, 0, 61, 0
2, 88266, Note_on_c, 0, 88, 0
2, 88280, Note_on_c, 0, 64, 29
2, 88348, Note_on_c, 0, 64, 0
2, 88402, Note_on_c, 0, 87, 23
2, 88436, Note_on_c, 0, 73, 28
2, 88464, Control_c, 0, 64, 0
2, 88472, Note_on_c, 0, 87, 0
2, 88486, Note_on_c, 0, 69, 13
2, 88488, Note_on_c, 0, 88, 30
2, 88656, Note_on_c, 0, 69, 0
2, 88666, Control_c, 0, 64, 127
2, 88722, Note_on_c, 0, 88, 0
2, 88722, Note_on_c, 0, 64, 35
2, 88802, Note_on_c, 0, 64, 0
2, 88880, Note_on_c, 0, 87, 17
2, 88942, Control_c, 0, 64, 0
2, 88954, Note_on_c, 0, 87, 0
2, 88986, Note_on_c, 0, 73, 0
2, 88986, Note_on_c, 0, 88, 17
2, 88989, Note_on_c, 0, 68, 20
2, 88992, Note_on_c, 0, 71, 32
2, 89142, Control_c, 0, 64, 127
2, 89145, Note_on_c, 0, 88, 0
2, 89308, Note_on_c, 0, 71, 0
2, 89314, Note_on_c, 0, 64, 35
2, 89390, Note_on_c, 0, 64, 0
2, 89472, Note_on_c, 0, 68, 0
2, 89568, Note_on_c, 0, 45, 51
2, 89586, Note_on_c, 0, 73, 57
2, 89600, Note_on_c, 0, 64, 45
2, 89796, Note_on_c, 0, 44, 68
2, 89801, Note_on_c, 0, 45, 0
2, 89822, Note_on_c, 0, 71, 79
2, 89856, Note_on_c, 0, 73, 0
2, 90032, Note_on_c, 0, 45, 73
2, 90038, Note_on_c, 0, 73, 73
2, 90054, Note_on_c, 0, 44, 0
2, 90078, Control_c, 0, 64, 0
2, 90116, Note_on_c, 0, 71, 0
2, 90264, Note_on_c, 0, 45, 0
2, 90264, Control_c, 0, 64, 127
2, 90272, Note_on_c, 0, 74, 78
2, 90278, Note_on_c, 0, 47, 68
2, 90308, Note_on_c, 0, 73, 0
2, 90416, Note_on_c, 0, 74, 0
2, 90500, Note_on_c, 0, 76, 73
2, 90516, Note_on_c, 0, 49, 65
2, 90524, Control_c, 0, 64, 0
2, 90536, Note_on_c, 0, 47, 0
2, 90748, Note_on_c, 0, 69, 33
2, 90832, Control_c, 0, 64, 127
2, 90866, Note_on_c, 0, 69, 0
2, 90996, Note_on_c, 0, 73, 62
2, 91002, Note_on_c, 0, 49, 0
2, 91006, Note_on_c, 0, 69, 33
2, 91008, Note_on_c, 0, 64, 0
2, 91014, Note_on_c, 0, 52, 58
2, 91046, Control_c, 0, 64, 0
2, 91088, Note_on_c, 0, 76, 0
2, 91258, Note_on_c, 0, 64, 51
2, 91286, Note_on_c, 0, 69, 0
2, 91308, Control_c, 0, 64, 127
2, 91434, Note_on_c, 0, 64, 0
2, 91466, Note_on_c, 0, 52, 0
2, 91476, Note_on_c, 0, 71, 74
2, 91476, Note_on_c, 0, 68, 48
2, 91488, Note_on_c, 0, 40, 57
2, 91524, Control_c, 0, 64, 0
2, 91542, Note_on_c, 0, 73, 0
2, 91724, Note_on_c, 0, 64, 45
2, 91782, Note_on_c, 0, 68, 0
2, 91784, Control_c, 0, 64, 127
2, 91874, Note_on_c, 0, 64, 0
2, 91888, Note_on_c, 0, 40, 0
2, 91952, Note_on_c, 0, 45, 39
2, 91952, Control_c, 0, 64, 0
2, 91960, Note_on_c, 0, 69, 59
2, 91996, Note_on_c, 0, 71, 0
2, 92090, Note_on_c, 0, 45, 0
2, 92138, Control_c, 0, 64, 127
2, 92206, Note_on_c, 0, 64, 34
2, 92218, Note_on_c, 0, 69, 0
2, 92264, Note_on_c, 0, 64, 0
2, 92428, Note_on_c, 0, 85, 47
2, 92446, Note_on_c, 0, 73, 37
2, 92462, Note_on_c, 0, 69, 21
2, 92506, Control_c, 0, 64, 0
2, 92674, Note_on_c, 0, 73, 0
2, 92686, Note_on_c, 0, 68, 35
2, 92688, Note_on_c, 0, 85, 0
2, 92700, Note_on_c, 0, 69, 0
2, 92704, Note_on_c, 0, 83, 58
2, 92724, Note_on_c, 0, 71, 41
2, 92844, Control_c, 0, 64, 127
2, 92898, Note_on_c, 0, 71, 0
2, 92914, Note_on_c, 0, 85, 70
2, 92920, Note_on_c, 0, 73, 44
2, 92920, Control_c, 0, 64, 0
2, 92936, Note_on_c, 0, 69, 24
2, 92942, Note_on_c, 0, 68, 0
2, 92958, Note_on_c, 0, 83, 0
2, 93050, Note_on_c, 0, 73, 0
2, 93058, Note_on_c, 0, 69, 0
2, 93076, Control_c, 0, 64, 127
2, 93128, Note_on_c, 0, 74, 49
2, 93140, Note_on_c, 0, 86, 77
2, 93156, Note_on_c, 0, 71, 32
2, 93186, Note_on_c, 0, 74, 0
2, 93218, Note_on_c, 0, 85, 0
2, 93226, Note_on_c, 0, 71, 0
2, 93398, Control_c, 0, 64, 0
2, 93398, Note_on_c, 0, 76, 29
2, 93401, Note_on_c, 0, 88, 59
2, 93412, Note_on_c, 0, 73, 26
2, 93418, Note_on_c, 0, 86, 0
2, 93482, Note_on_c, 0, 73, 0
2, 93628, Control_c, 0, 64, 127
2, 93650, Note_on_c, 0, 64, 25
2, 93784, Note_on_c, 0, 64, 0
2, 93874, Note_on_c, 0, 73, 30
2, 93888, Note_on_c, 0, 85, 38
2, 93900, Note_on_c, 0, 76, 0
2, 93902, Note_on_c, 0, 69, 10
2, 93948, Note_on_c, 0, 88, 0
2, 94058, Control_c, 0, 64, 0
2, 94120, Note_on_c, 0, 69, 0
2, 94138, Note_on_c, 0, 64, 25
2, 94258, Control_c, 0, 64, 127
2, 94272, Note_on_c, 0, 64, 0
2, 94388, Note_on_c, 0, 85, 0
2, 94396, Control_c, 0, 64, 0
2, 94400, Note_on_c, 0, 71, 28
2, 94402, Note_on_c, 0, 83, 47
2, 94406, Note_on_c, 0, 68, 28
2, 94412, Note_on_c, 0, 73, 0
2, 94620, Note_on_c, 0, 64, 34
2, 94626, Control_c, 0, 64, 127
2, 94710, Note_on_c, 0, 68, 0
2, 94768, Note_on_c, 0, 64, 0
2, 94800, Note_on_c, 0, 83, 0
2, 94854, Note_on_c, 0, 81, 36
2, 94872, Control_c, 0, 64, 0
2, 94874, Note_on_c, 0, 69, 32
2, 94876, Note_on_c, 0, 71, 0
2, 94952, Note_on_c, 0, 81, 0
2, 94964, Control_c, 0, 64, 127
2, 95104, Note_on_c, 0, 64, 38
2, 95120, Note_on_c, 0, 69, 0
2, 95318, Note_on_c, 0, 64, 0
2, 95326, Note_on_c, 0, 66, 39
2, 95352, Note_on_c, 0, 59, 36
2, 95364, Note_on_c, 0, 50, 30
2, 95394, Control_c, 0, 64, 0
2, 95518, Control_c, 0, 64, 127
2, 95578, Note_on_c, 0, 74, 59
2, 95598, Note_on_c, 0, 50, 0
2, 95620, Note_on_c, 0, 59, 0
2, 95628, Note_on_c, 0, 66, 0
2, 95808, Note_on_c, 0, 52, 51
2, 95810, Note_on_c, 0, 71, 78
2, 95840, Note_on_c, 0, 62, 34
2, 95888, Control_c, 0, 64, 0
2, 95920, Note_on_c, 0, 74, 0
2, 96038, Note_on_c, 0, 68, 67
2, 96086, Control_c, 0, 64, 127
2, 96108, Note_on_c, 0, 71, 0
2, 96154, Note_on_c, 0, 62, 0
2, 96166, Note_on_c, 0, 52, 0
2, 96254, Control_c, 0, 64, 0
2, 96262, Note_on_c, 0, 69, 55
2, 96266, Note_on_c, 0, 57, 27
2, 96276, Note_on_c, 0, 61, 40
2, 96326, Note_on_c, 0, 68, 0
2, 96456, Control_c, 0, 64, 127
2, 96468, Note_on_c, 0, 57, 0
2, 96472, Note_on_c, 0, 61, 0
2, 96492, Note_on_c, 0, 64, 59
2, 96522, Note_on_c, 0, 69, 0
2, 96686, Control_c, 0, 64, 0
2, 96708, Note_on_c, 0, 64, 0
2, 96716, Note_on_c, 0, 66, 36
2, 96746, Note_on_c, 0, 59, 34
2, 96748, Note_on_c, 0, 50, 36
2, 96916, Control_c, 0, 64, 127
2, 96930, Note_on_c, 0, 50, 0
2, 96938, Note_on_c, 0, 59, 0
2, 96968, Note_on_c, 0, 74, 42
2, 96971, Note_on_c, 0, 66, 0
2, 97178, Control_c, 0, 64, 0
2, 97206, Note_on_c, 0, 71, 45
2, 97216, Note_on_c, 0, 62, 25
2, 97222, Note_on_c, 0, 52, 26
2, 97232, Note_on_c, 0, 74, 0
2, 97430, Note_on_c, 0, 68, 39
2, 97448, Note_on_c, 0, 71, 0
2, 97468, Control_c, 0, 64, 127
2, 97491, Note_on_c, 0, 52, 0
2, 97512, Note_on_c, 0, 62, 0
2, 97684, Control_c, 0, 64, 0
2, 97696, Note_on_c, 0, 69, 25
2, 97714, Note_on_c, 0, 57, 14
2, 97714, Note_on_c, 0, 61, 27
2, 97720, Note_on_c, 0, 68, 0
2, 97954, Note_on_c, 0, 68, 44
2, 97960, Note_on_c, 0, 69, 0
2, 98022, Control_c, 0, 64, 127
2, 98156, Note_on_c, 0, 61, 0
2, 98188, Note_on_c, 0, 57, 0
2, 98188, Note_on_c, 0, 69, 43
2, 98222, Control_c, 0, 64, 0
2, 98238, Note_on_c, 0, 68, 0
2, 98462, Note_on_c, 0, 71, 40
2, 98486, Note_on_c, 0, 69, 0
2, 98530, Control_c, 0, 64, 127
2, 98636, Control_c, 0, 64, 0
2, 98732, Note_on_c, 0, 67, 30
2, 98824, Note_on_c, 0, 71, 0
2, 98974, Control_c, 0, 64, 127
2, 99030, Note_on_c, 0, 64, 33
2, 99044, Note_on_c, 0, 67, 0
2, 99360, Control_c, 0, 64, 0
2, 99400, Note_on_c, 0, 64, 0
2, 99418, Note_on_c, 0, 47, 16
2, 99422, Note_on_c, 0, 69, 23
2, 99428, Note_on_c, 0, 66, 23
2, 99432, Note_on_c, 0, 35, 26
2, 99724, Note_on_c, 0, 59, 25
2, 99728, Control_c, 0, 64, 127
2, 99740, Note_on_c, 0, 66, 0
2, 99906, Note_on_c, 0, 59, 0
2, 99988, Note_on_c, 0, 66, 31
2, 99994, Note_on_c, 0, 63, 36
2, 100022, Note_on_c, 0, 69, 0
2, 100250, Note_on_c, 0, 59, 33
2, 100282, Note_on_c, 0, 63, 0
2, 100330, Note_on_c, 0, 59, 0
2, 100464, Note_on_c, 0, 67, 46
2, 100466, Control_c, 0, 64, 0
2, 100474, Note_on_c, 0, 64, 39
2, 100504, Note_on_c, 0, 66, 0
2, 100680, Control_c, 0, 64, 127
2, 100710, Note_on_c, 0, 59, 36
2, 100824, Note_on_c, 0, 64, 0
2, 100850, Control_c, 0, 64, 0
2, 100900, Note_on_c, 0, 59, 0
2, 100910, Note_on_c, 0, 35, 0
2, 100936, Note_on_c, 0, 66, 37
2, 100936, Note_on_c, 0, 69, 48
2, 100956, Note_on_c, 0, 67, 0
2, 100984, Note_on_c, 0, 47, 0
2, 101018, Control_c, 0, 64, 127
2, 101144, Note_on_c, 0, 66, 0
2, 101178, Note_on_c, 0, 59, 30
2, 101410, Note_on_c, 0, 59, 0
2, 101456, Note_on_c, 0, 66, 25
2, 101472, Note_on_c, 0, 84, 65
2, 101480, Note_on_c, 0, 63, 23
2, 101502, Note_on_c, 0, 69, 0
2, 101646, Note_on_c, 0, 63, 0
2, 101688, Note_on_c, 0, 84, 0
2, 101704, Note_on_c, 0, 59, 30
2, 101712, Note_on_c, 0, 83, 88
2, 101850, Note_on_c, 0, 59, 0
2, 101920, Note_on_c, 0, 67, 43
2, 101924, Note_on_c, 0, 83, 0
2, 101928, Note_on_c, 0, 66, 0
2, 101928, Note_on_c, 0, 81, 69
2, 101940, Note_on_c, 0, 64, 35
2, 101956, Control_c, 0, 64, 0
2, 102080, Control_c, 0, 64, 127
2, 102152, Note_on_c, 0, 79, 73
2, 102157, Note_on_c, 0, 59, 38
2, 102180, Note_on_c, 0, 64, 0
2, 102188, Note_on_c, 0, 81, 0
2, 102248, Note_on_c, 0, 59, 0
2, 102338, Note_on_c, 0, 67, 0
2, 102354, Control_c, 0, 64, 0
2, 102388, Note_on_c, 0, 69, 24
2, 102396, Note_on_c, 0, 66, 21
2, 102402, Note_on_c, 0, 79, 0
2, 102414, Note_on_c, 0, 78, 55
2, 102584, Note_on_c, 0, 66, 0
2, 102616, Control_c, 0, 64, 127
2, 102628, Note_on_c, 0, 59, 33
2, 102686, Note_on_c, 0, 78, 0
2, 102742, Note_on_c, 0, 59, 0
2, 102850, Note_on_c, 0, 63, 44
2, 102853, Note_on_c, 0, 81, 47
2, 102856, Note_on_c, 0, 66, 34
2, 102862, Control_c, 0, 64, 0
2, 102870, Note_on_c, 0, 69, 0
2, 103074, Note_on_c, 0, 63, 0
2, 103077, Control_c, 0, 64, 127
2, 103104, Note_on_c, 0, 79, 54
2, 103106, Note_on_c, 0, 59, 30
2, 103116, Note_on_c, 0, 81, 0
2, 103120, Note_on_c, 0, 66, 0
2, 103123, Control_c, 0, 64, 0
2, 103310, Note_on_c, 0, 79, 0
2, 103314, Note_on_c, 0, 59, 0
2, 103314, Note_on_c, 0, 78, 49
2, 103332, Note_on_c, 0, 67, 29
2, 103335, Note_on_c, 0, 64, 31
2, 103542, Note_on_c, 0, 59, 24
2, 103560, Note_on_c, 0, 78, 0
2, 103566, Note_on_c, 0, 76, 37
2, 103582, Note_on_c, 0, 64, 0
2, 103690, Note_on_c, 0, 67, 0
2, 103708, Note_on_c, 0, 59, 0
2, 103732, Note_on_c, 0, 76, 0
2, 103800, Note_on_c, 0, 75, 42
2, 103802, Note_on_c, 0, 66, 23
2, 103814, Note_on_c, 0, 69, 24
2, 103902, Note_on_c, 0, 66, 0
2, 103908, Control_c, 0, 64, 127
2, 103910, Note_on_c, 0, 75, 0
2, 103914, Note_on_c, 0, 69, 0
2, 104326, Note_on_c, 0, 83, 113
2, 104330, Note_on_c, 0, 71, 105
2, 104332, Note_on_c, 0, 59, 84
2, 104340, Note_on_c, 0, 47, 69
2, 104404, Note_on_c, 0, 83, 0
2, 104418, Note_on_c, 0, 71, 0
2, 104426, Note_on_c, 0, 59, 0
2, 104446, Note_on_c, 0, 47, 0
2, 104540, Note_on_c, 0, 69, 85
2, 104542, Note_on_c, 0, 81, 93
2, 104548, Note_on_c, 0, 57, 75
2, 104550, Note_on_c, 0, 45, 76
2, 104614, Note_on_c, 0, 45, 0
2, 104614, Note_on_c, 0, 57, 0
2, 104614, Note_on_c, 0, 69, 0
2, 104617, Note_on_c, 0, 81, 0
2, 104690, Control_c, 0, 64, 0
2, 104734, Note_on_c, 0, 79, 100
2, 104742, Note_on_c, 0, 67, 89
2, 104750, Note_on_c, 0, 55, 92
2, 104750, Note_on_c, 0, 43, 91
2, 104792, Note_on_c, 0, 43, 0
2, 104806, Note_on_c, 0, 55, 0
2, 104832, Note_on_c, 0, 79, 0
2, 104838, Note_on_c, 0, 67, 0
2, 104936, Note_on_c, 0, 66, 86
2, 104939, Note_on_c, 0, 78, 89
2, 104944, Note_on_c, 0, 54, 95
2, 104952, Note_on_c, 0, 42, 86
2, 104988, Note_on_c, 0, 54, 0
2, 104991, Note_on_c, 0, 42, 0
2, 105014, Note_on_c, 0, 78, 0
2, 105050, Note_on_c, 0, 66, 0
2, 105182, Note_on_c, 0, 76, 89
2, 105192, Note_on_c, 0, 64, 81
2, 105192, Note_on_c, 0, 52, 103
2, 105192, Note_on_c, 0, 40, 105
2, 105254, Note_on_c, 0, 40, 0
2, 105286, Note_on_c, 0, 52, 0
2, 105292, Note_on_c, 0, 64, 0
2, 105306, Control_c, 0, 64, 127
2, 105314, Note_on_c, 0, 76, 0
2, 105336, Control_c, 0, 64, 0
2, 105636, Note_on_c, 0, 76, 93
2, 105640, Note_on_c, 0, 64, 92
2, 105642, Note_on_c, 0, 52, 100
2, 105646, Note_on_c, 0, 40, 97
2, 105686, Note_on_c, 0, 65, 28
2, 105710, Note_on_c, 0, 40, 0
2, 105720, Control_c, 0, 64, 127
2, 105736, Note_on_c, 0, 52, 0
2, 105739, Note_on_c, 0, 64, 0
2, 105750, Note_on_c, 0, 65, 0
2, 105788, Note_on_c, 0, 76, 0
2, 105858, Control_c, 0, 64, 0
2, 106100, Note_on_c, 0, 83, 112
2, 106108, Note_on_c, 0, 71, 91
2, 106110, Note_on_c, 0, 59, 85
2, 106112, Note_on_c, 0, 47, 82
2, 106160, Note_on_c, 0, 59, 0
2, 106176, Note_on_c, 0, 47, 0
2, 106176, Note_on_c, 0, 83, 0
2, 106182, Control_c, 0, 64, 127
2, 106224, Note_on_c, 0, 71, 0
2, 106288, Control_c, 0, 64, 0
2, 106552, Note_on_c, 0, 76, 75
2, 106560, Note_on_c, 0, 64, 73
2, 106566, Note_on_c, 0, 40, 68
2, 106568, Note_on_c, 0, 52, 65
2, 106598, Note_on_c, 0, 64, 0
2, 106608, Note_on_c, 0, 52, 0
2, 106608, Note_on_c, 0, 40, 0
2, 106628, Control_c, 0, 64, 127
2, 106676, Note_on_c, 0, 76, 0
2, 106810, Control_c, 0, 64, 0
2, 107022, Note_on_c, 0, 83, 103
2, 107025, Note_on_c, 0, 71, 81
2, 107032, Note_on_c, 0, 47, 68
2, 107034, Note_on_c, 0, 59, 62
2, 107082, Note_on_c, 0, 59, 0
2, 107085, Note_on_c, 0, 47, 0
2, 107104, Control_c, 0, 64, 127
2, 107107, Note_on_c, 0, 71, 0
2, 107116, Note_on_c, 0, 83, 0
2, 107222, Note_on_c, 0, 81, 91
2, 107222, Note_on_c, 0, 69, 75
2, 107228, Note_on_c, 0, 57, 65
2, 107232, Note_on_c, 0, 45, 70
2, 107280, Note_on_c, 0, 57, 0
2, 107288, Note_on_c, 0, 45, 0
2, 107310, Note_on_c, 0, 69, 0
2, 107334, Note_on_c, 0, 81, 0
2, 107350, Control_c, 0, 64, 0
2, 107418, Note_on_c, 0, 79, 99
2, 107421, Note_on_c, 0, 67, 88
2, 107428, Note_on_c, 0, 55, 84
2, 107430, Note_on_c, 0, 43, 85
2, 107506, Note_on_c, 0, 55, 0
2, 107508, Note_on_c, 0, 67, 0
2, 107514, Note_on_c, 0, 79, 0
2, 107546, Note_on_c, 0, 43, 0
2, 107616, Note_on_c, 0, 66, 84
2, 107619, Note_on_c, 0, 78, 89
2, 107624, Note_on_c, 0, 54, 79
2, 107634, Note_on_c, 0, 42, 66
2, 107676, Note_on_c, 0, 54, 0
2, 107712, Note_on_c, 0, 66, 0
2, 107720, Note_on_c, 0, 42, 0
2, 107736, Note_on_c, 0, 78, 0
2, 107852, Note_on_c, 0, 76, 94
2, 107855, Note_on_c, 0, 40, 96
2, 107858, Note_on_c, 0, 64, 92
2, 107858, Note_on_c, 0, 52, 92
2, 107960, Note_on_c, 0, 40, 0
2, 107962, Note_on_c, 0, 64, 0
2, 107964, Control_c, 0, 64, 127
2, 107966, Note_on_c, 0, 52, 0
2, 107990, Note_on_c, 0, 76, 0
2, 108024, Control_c, 0, 64, 0
2, 108314, Note_on_c, 0, 64, 79
2, 108316, Note_on_c, 0, 76, 80
2, 108316, Note_on_c, 0, 52, 88
2, 108319, Note_on_c, 0, 40, 87
2, 108358, Note_on_c, 0, 40, 0
2, 108386, Note_on_c, 0, 52, 0
2, 108402, Note_on_c, 0, 64, 0
2, 108424, Control_c, 0, 64, 127
2, 108464, Note_on_c, 0, 76, 0
2, 108500, Control_c, 0, 64, 0
2, 108780, Note_on_c, 0, 83, 98
2, 108783, Note_on_c, 0, 71, 70
2, 108786, Note_on_c, 0, 47, 76
2, 108788, Note_on_c, 0, 59, 73
2, 108824, Note_on_c, 0, 47, 0
2, 108827, Note_on_c, 0, 59, 0
2, 108836, Note_on_c, 0, 71, 0
2, 108848, Note_on_c, 0, 83, 0
2, 108870, Control_c, 0, 64, 127
2, 108994, Control_c, 0, 64, 0
2, 109244, Note_on_c, 0, 76, 69
2, 109256, Note_on_c, 0, 64, 57
2, 109270, Note_on_c, 0, 52, 55
2, 109273, Note_on_c, 0, 40, 65
2, 109358, Note_on_c, 0, 52, 0
2, 109360, Note_on_c, 0, 64, 0
2, 109362, Control_c, 0, 64, 127
2, 109396, Note_on_c, 0, 40, 0
2, 109454, Note_on_c, 0, 76, 0
2, 109530, Control_c, 0, 64, 0
2, 109730, Note_on_c, 0, 76, 46
2, 109814, Note_on_c, 0, 76, 0
2, 109916, Control_c, 0, 64, 127
2, 109958, Note_on_c, 0, 74, 61
2, 110016, Note_on_c, 0, 74, 0
2, 110038, Control_c, 0, 64, 0
2, 110170, Note_on_c, 0, 76, 63
2, 110300, Note_on_c, 0, 76, 0
2, 110400, Note_on_c, 0, 77, 65
2, 110536, Note_on_c, 0, 77, 0
2, 110628, Note_on_c, 0, 60, 30
2, 110652, Note_on_c, 0, 79, 71
2, 110884, Note_on_c, 0, 64, 39
2, 110898, Control_c, 0, 64, 127
2, 110950, Note_on_c, 0, 79, 0
2, 110972, Note_on_c, 0, 64, 0
2, 111112, Note_on_c, 0, 67, 31
2, 111114, Control_c, 0, 64, 0
2, 111120, Note_on_c, 0, 79, 59
2, 111306, Note_on_c, 0, 67, 0
2, 111328, Control_c, 0, 64, 127
2, 111332, Note_on_c, 0, 79, 0
2, 111340, Note_on_c, 0, 64, 40
2, 111476, Note_on_c, 0, 64, 0
2, 111544, Control_c, 0, 64, 0
2, 111547, Note_on_c, 0, 65, 34
2, 111554, Note_on_c, 0, 59, 38
2, 111576, Note_on_c, 0, 60, 0
2, 111764, Note_on_c, 0, 79, 85
2, 111786, Note_on_c, 0, 62, 34
2, 111788, Note_on_c, 0, 65, 0
2, 111898, Note_on_c, 0, 79, 0
2, 111944, Control_c, 0, 64, 127
2, 111982, Note_on_c, 0, 62, 0
2, 112004, Note_on_c, 0, 84, 70
2, 112026, Note_on_c, 0, 60, 28
2, 112050, Control_c, 0, 64, 0
2, 112090, Note_on_c, 0, 59, 0
2, 112236, Note_on_c, 0, 64, 34
2, 112430, Note_on_c, 0, 84, 0
2, 112432, Note_on_c, 0, 64, 0
2, 112450, Note_on_c, 0, 67, 34
2, 112462, Note_on_c, 0, 79, 40
2, 112696, Note_on_c, 0, 67, 0
2, 112712, Control_c, 0, 64, 127
2, 112732, Note_on_c, 0, 79, 0
2, 112732, Note_on_c, 0, 64, 26
2, 112818, Note_on_c, 0, 64, 0
2, 112922, Note_on_c, 0, 60, 0
2, 112932, Note_on_c, 0, 59, 28
2, 112948, Note_on_c, 0, 65, 14
2, 113002, Control_c, 0, 64, 0
2, 113158, Note_on_c, 0, 62, 27
2, 113226, Note_on_c, 0, 65, 0
2, 113368, Note_on_c, 0, 79, 76
2, 113382, Note_on_c, 0, 62, 0
2, 113388, Control_c, 0, 64, 127
2, 113408, Note_on_c, 0, 60, 25
2, 113414, Note_on_c, 0, 59, 0
2, 113526, Control_c, 0, 64, 0
2, 113606, Note_on_c, 0, 64, 40
2, 113688, Note_on_c, 0, 64, 0
2, 113704, Note_on_c, 0, 79, 0
2, 113726, Control_c, 0, 64, 127
2, 113810, Note_on_c, 0, 79, 68
2, 113819, Note_on_c, 0, 67, 37
2, 113956, Control_c, 0, 64, 0
2, 114060, Note_on_c, 0, 67, 0
2, 114078, Note_on_c, 0, 64, 30
2, 114156, Control_c, 0, 64, 127
2, 114244, Note_on_c, 0, 64, 0
2, 114294, Control_c, 0, 64, 0
2, 114308, Note_on_c, 0, 65, 24
2, 114316, Note_on_c, 0, 59, 28
2, 114318, Note_on_c, 0, 60, 0
2, 114444, Note_on_c, 0, 79, 0
2, 114464, Control_c, 0, 64, 127
2, 114506, Note_on_c, 0, 79, 91
2, 114564, Note_on_c, 0, 62, 27
2, 114570, Control_c, 0, 64, 0
2, 114648, Note_on_c, 0, 65, 0
2, 114710, Control_c, 0, 64, 127
2, 114738, Note_on_c, 0, 62, 0
2, 114746, Note_on_c, 0, 79, 0
2, 114748, Note_on_c, 0, 84, 73
2, 114756, Control_c, 0, 64, 0
2, 114768, Note_on_c, 0, 60, 36
2, 114778, Note_on_c, 0, 59, 0
2, 114986, Note_on_c, 0, 64, 43
2, 115098, Note_on_c, 0, 64, 0
2, 115194, Note_on_c, 0, 79, 49
2, 115218, Note_on_c, 0, 67, 25
2, 115220, Note_on_c, 0, 84, 0
2, 115447, Control_c, 0, 64, 127
2, 115454, Note_on_c, 0, 64, 34
2, 115468, Note_on_c, 0, 60, 0
2, 115596, Note_on_c, 0, 79, 0
2, 115618, Note_on_c, 0, 67, 0
2, 115636, Note_on_c, 0, 64, 0
2, 115670, Note_on_c, 0, 60, 42
2, 115754, Control_c, 0, 64, 0
2, 115902, Note_on_c, 0, 64, 44
2, 115938, Control_c, 0, 64, 127
2, 115972, Note_on_c, 0, 79, 89
2, 116110, Note_on_c, 0, 64, 0
2, 116148, Note_on_c, 0, 79, 0
2, 116168, Note_on_c, 0, 60, 0
2, 116188, Note_on_c, 0, 88, 72
2, 116188, Note_on_c, 0, 58, 28
2, 116261, Control_c, 0, 64, 0
2, 116438, Note_on_c, 0, 60, 43
2, 116568, Control_c, 0, 64, 127
2, 116688, Note_on_c, 0, 79, 48
2, 116694, Note_on_c, 0, 88, 0
2, 116698, Note_on_c, 0, 64, 27
2, 116708, Note_on_c, 0, 60, 0
2, 116888, Note_on_c, 0, 64, 0
2, 116920, Note_on_c, 0, 67, 39
2, 116930, Note_on_c, 0, 79, 0
2, 117094, Note_on_c, 0, 67, 0
2, 117148, Note_on_c, 0, 64, 48
2, 117282, Note_on_c, 0, 58, 0
2, 117348, Note_on_c, 0, 60, 43
2, 117394, Note_on_c, 0, 64, 0
2, 117418, Note_on_c, 0, 79, 92
2, 117582, Control_c, 0, 64, 0
2, 117592, Note_on_c, 0, 60, 0
2, 117594, Note_on_c, 0, 57, 39
2, 117614, Note_on_c, 0, 79, 0
2, 117616, Note_on_c, 0, 88, 86
2, 117842, Note_on_c, 0, 61, 52
2, 118012, Control_c, 0, 64, 127
2, 118058, Note_on_c, 0, 64, 54
2, 118068, Note_on_c, 0, 61, 0
2, 118124, Note_on_c, 0, 79, 79
2, 118126, Note_on_c, 0, 64, 0
2, 118138, Note_on_c, 0, 88, 0
2, 118286, Note_on_c, 0, 79, 0
2, 118292, Note_on_c, 0, 67, 51
2, 118378, Note_on_c, 0, 57, 0
2, 118468, Note_on_c, 0, 67, 0
2, 118530, Note_on_c, 0, 64, 64
2, 118734, Note_on_c, 0, 61, 59
2, 118752, Note_on_c, 0, 64, 0
2, 118844, Note_on_c, 0, 79, 92
2, 118884, Note_on_c, 0, 79, 0
2, 118950, Control_c, 0, 64, 0
2, 118982, Note_on_c, 0, 79, 67
2, 118984, Note_on_c, 0, 62, 57
2, 118998, Note_on_c, 0, 57, 37
2, 119026, Note_on_c, 0, 61, 0
2, 119250, Note_on_c, 0, 77, 66
2, 119318, Note_on_c, 0, 79, 0
2, 119364, Control_c, 0, 64, 127
2, 119466, Note_on_c, 0, 76, 64
2, 119471, Control_c, 0, 64, 0
2, 119492, Note_on_c, 0, 77, 0
2, 119642, Control_c, 0, 64, 127
2, 119694, Note_on_c, 0, 62, 0
2, 119698, Note_on_c, 0, 77, 64
2, 119732, Note_on_c, 0, 76, 0
2, 119784, Note_on_c, 0, 57, 0
2, 119902, Control_c, 0, 64, 0
2, 119914, Note_on_c, 0, 64, 30
2, 119932, Note_on_c, 0, 76, 46
2, 119932, Note_on_c, 0, 56, 30
2, 119964, Note_on_c, 0, 77, 0
2, 120086, Control_c, 0, 64, 127
2, 120122, Note_on_c, 0, 64, 0
2, 120144, Note_on_c, 0, 56, 0
2, 120156, Note_on_c, 0, 74, 52
2, 120176, Note_on_c, 0, 65, 29
2, 120184, Note_on_c, 0, 76, 0
2, 120252, Note_on_c, 0, 65, 0
2, 120390, Note_on_c, 0, 74, 0
2, 120398, Note_on_c, 0, 73, 37
2, 120414, Note_on_c, 0, 64, 32
2, 120426, Control_c, 0, 64, 0
2, 120456, Note_on_c, 0, 57, 15
2, 120620, Note_on_c, 0, 80, 45
2, 120668, Note_on_c, 0, 73, 0
2, 120864, Note_on_c, 0, 81, 53
2, 120888, Note_on_c, 0, 80, 0
2, 120914, Note_on_c, 0, 64, 0
2, 120998, Note_on_c, 0, 57, 0
2, 121076, Note_on_c, 0, 80, 75
2, 121118, Note_on_c, 0, 81, 0
2, 121318, Note_on_c, 0, 81, 82
2, 121350, Note_on_c, 0, 80, 0
2, 121548, Note_on_c, 0, 76, 76
2, 121584, Note_on_c, 0, 81, 0
2, 121778, Note_on_c, 0, 68, 44
2, 121786, Note_on_c, 0, 79, 77
2, 121794, Note_on_c, 0, 58, 30
2, 121822, Note_on_c, 0, 62, 32
2, 121828, Note_on_c, 0, 76, 0
2, 122018, Note_on_c, 0, 77, 71
2, 122064, Note_on_c, 0, 79, 0
2, 122246, Note_on_c, 0, 76, 54
2, 122256, Note_on_c, 0, 77, 0
2, 122480, Note_on_c, 0, 77, 44
2, 122496, Note_on_c, 0, 76, 0
2, 122702, Note_on_c, 0, 76, 53
2, 122708, Note_on_c, 0, 77, 0
2, 122852, Note_on_c, 0, 62, 0
2, 122884, Control_c, 0, 64, 127
2, 122928, Note_on_c, 0, 74, 48
2, 122932, Note_on_c, 0, 76, 0
2, 122986, Note_on_c, 0, 68, 0
2, 123000, Note_on_c, 0, 58, 0
2, 123130, Note_on_c, 0, 74, 0
2, 123156, Note_on_c, 0, 81, 49
2, 123160, Control_c, 0, 64, 0
2, 123162, Note_on_c, 0, 69, 17
2, 123178, Note_on_c, 0, 61, 22
2, 123186, Note_on_c, 0, 57, 15
2, 123382, Note_on_c, 0, 80, 66
2, 123402, Note_on_c, 0, 81, 0
2, 123480, Note_on_c, 0, 57, 0
2, 123483, Control_c, 0, 64, 127
2, 123486, Note_on_c, 0, 69, 0
2, 123558, Note_on_c, 0, 61, 0
2, 123614, Note_on_c, 0, 81, 68
2, 123660, Note_on_c, 0, 80, 0
2, 123714, Control_c, 0, 64, 0
2, 123832, Note_on_c, 0, 76, 64
2, 123852, Note_on_c, 0, 81, 0
2, 124072, Note_on_c, 0, 77, 61
2, 124075, Note_on_c, 0, 65, 21
2, 124084, Note_on_c, 0, 57, 22
2, 124090, Note_on_c, 0, 62, 26
2, 124110, Note_on_c, 0, 76, 0
2, 124270, Note_on_c, 0, 65, 0
2, 124273, Note_on_c, 0, 57, 0
2, 124276, Note_on_c, 0, 62, 0
2, 124296, Note_on_c, 0, 74, 63
2, 124298, Control_c, 0, 64, 127
2, 124310, Note_on_c, 0, 77, 0
2, 124374, Control_c, 0, 64, 0
2, 124498, Note_on_c, 0, 61, 40
2, 124500, Note_on_c, 0, 81, 56
2, 124504, Note_on_c, 0, 64, 49
2, 124512, Note_on_c, 0, 74, 0
2, 124522, Note_on_c, 0, 57, 39
2, 124728, Note_on_c, 0, 80, 68
2, 124772, Note_on_c, 0, 81, 0
2, 124788, Control_c, 0, 64, 127
2, 124798, Note_on_c, 0, 64, 0
2, 124801, Note_on_c, 0, 57, 0
2, 124856, Note_on_c, 0, 61, 0
2, 124976, Note_on_c, 0, 81, 71
2, 125018, Note_on_c, 0, 80, 0
2, 125080, Control_c, 0, 64, 0
2, 125200, Note_on_c, 0, 76, 57
2, 125224, Note_on_c, 0, 81, 0
2, 125448, Note_on_c, 0, 77, 43
2, 125450, Note_on_c, 0, 76, 0
2, 125464, Note_on_c, 0, 62, 26
2, 125466, Note_on_c, 0, 65, 20
2, 125468, Note_on_c, 0, 57, 21
2, 125662, Note_on_c, 0, 65, 0
2, 125662, Note_on_c, 0, 62, 0
2, 125665, Note_on_c, 0, 57, 0
2, 125665, Control_c, 0, 64, 127
2, 125700, Note_on_c, 0, 77, 0
2, 125706, Note_on_c, 0, 74, 47
2, 125894, Control_c, 0, 64, 0
2, 125936, Note_on_c, 0, 74, 0
2, 125952, Note_on_c, 0, 69, 32
2, 125958, Note_on_c, 0, 64, 26
2, 125970, Note_on_c, 0, 61, 18
2, 125982, Note_on_c, 0, 57, 22
2, 126172, Note_on_c, 0, 68, 48
2, 126184, Note_on_c, 0, 69, 0
2, 126248, Control_c, 0, 64, 127
2, 126380, Note_on_c, 0, 64, 0
2, 126406, Note_on_c, 0, 57, 0
2, 126410, Note_on_c, 0, 69, 41
2, 126416, Control_c, 0, 64, 0
2, 126436, Note_on_c, 0, 61, 0
2, 126438, Note_on_c, 0, 68, 0
2, 126644, Note_on_c, 0, 68, 44
2, 126662, Note_on_c, 0, 69, 0
2, 126862, Control_c, 0, 64, 127
2, 126910, Control_c, 0, 64, 0
2, 126926, Note_on_c, 0, 69, 20
2, 126958, Note_on_c, 0, 68, 0
2, 127154, Control_c, 0, 64, 127
2, 127198, Note_on_c, 0, 69, 0
2, 127214, Note_on_c, 0, 68, 14
2, 127554, Control_c, 0, 64, 0
2, 127624, Note_on_c, 0, 68, 0
2, 127638, Note_on_c, 0, 69, 19
2, 127648, Note_on_c, 0, 38, 24
2, 127648, Note_on_c, 0, 50, 20
2, 127666, Note_on_c, 0, 66, 9
2, 127892, Note_on_c, 0, 66, 0
2, 127892, Control_c, 0, 64, 127
2, 127968, Note_on_c, 0, 57, 14
2, 128154, Note_on_c, 0, 57, 0
2, 128238, Note_on_c, 0, 66, 23
2, 128248, Note_on_c, 0, 69, 0
2, 128258, Note_on_c, 0, 62, 16
2, 128490, Note_on_c, 0, 57, 24
2, 128503, Note_on_c, 0, 62, 0
2, 128584, Note_on_c, 0, 57, 0
2, 128666, Note_on_c, 0, 66, 0
2, 128714, Note_on_c, 0, 67, 41
2, 128748, Note_on_c, 0, 64, 34
2, 128768, Control_c, 0, 64, 0
2, 128938, Control_c, 0, 64, 127
2, 128966, Note_on_c, 0, 57, 43
2, 128990, Note_on_c, 0, 67, 0
2, 129046, Note_on_c, 0, 64, 0
2, 129054, Note_on_c, 0, 57, 0
2, 129192, Note_on_c, 0, 69, 41
2, 129204, Note_on_c, 0, 66, 38
2, 129244, Control_c, 0, 64, 0
2, 129414, Control_c, 0, 64, 127
2, 129426, Note_on_c, 0, 69, 0
2, 129440, Note_on_c, 0, 62, 54
2, 129448, Note_on_c, 0, 66, 0
2, 129508, Note_on_c, 0, 62, 0
2, 129534, Note_on_c, 0, 50, 0
2, 129684, Note_on_c, 0, 74, 67
2, 129706, Note_on_c, 0, 71, 46
2, 129828, Control_c, 0, 64, 0
2, 129872, Note_on_c, 0, 38, 0
2, 129922, Note_on_c, 0, 73, 60
2, 129930, Note_on_c, 0, 71, 0
2, 129936, Note_on_c, 0, 69, 42
2, 129968, Note_on_c, 0, 74, 0
2, 130028, Control_c, 0, 64, 127
2, 130074, Control_c, 0, 64, 0
2, 130131, Note_on_c, 0, 69, 0
2, 130166, Note_on_c, 0, 71, 66
2, 130180, Note_on_c, 0, 67, 33
2, 130194, Note_on_c, 0, 73, 0
2, 130216, Note_on_c, 0, 71, 0
2, 130228, Control_c, 0, 64, 127
2, 130374, Note_on_c, 0, 69, 54
2, 130382, Note_on_c, 0, 66, 36
2, 130404, Note_on_c, 0, 67, 0
2, 130522, Note_on_c, 0, 66, 0
2, 130636, Note_on_c, 0, 67, 57
2, 130652, Note_on_c, 0, 47, 55
2, 130658, Note_on_c, 0, 69, 0
2, 130688, Control_c, 0, 64, 0
2, 130894, Note_on_c, 0, 62, 35
2, 130966, Control_c, 0, 64, 127
2, 131080, Note_on_c, 0, 62, 0
2, 131084, Note_on_c, 0, 47, 0
2, 131122, Note_on_c, 0, 69, 43
2, 131128, Note_on_c, 0, 45, 45
2, 131132, Note_on_c, 0, 66, 27
2, 131142, Note_on_c, 0, 67, 0
2, 131150, Control_c, 0, 64, 0
2, 131392, Note_on_c, 0, 62, 33
2, 131426, Note_on_c, 0, 66, 0
2, 131442, Control_c, 0, 64, 127
2, 131478, Note_on_c, 0, 62, 0
2, 131596, Note_on_c, 0, 69, 0
2, 131598, Note_on_c, 0, 45, 0
2, 131600, Note_on_c, 0, 71, 43
2, 131610, Control_c, 0, 64, 0
2, 131620, Note_on_c, 0, 43, 37
2, 131620, Note_on_c, 0, 67, 21
2, 131848, Note_on_c, 0, 62, 27
2, 131888, Control_c, 0, 64, 127
2, 131964, Note_on_c, 0, 43, 0
2, 131982, Note_on_c, 0, 67, 0
2, 132002, Note_on_c, 0, 62, 0
2, 132030, Note_on_c, 0, 71, 0
2, 132056, Control_c, 0, 64, 0
2, 132064, Note_on_c, 0, 50, 37
2, 132070, Note_on_c, 0, 69, 30
2, 132090, Note_on_c, 0, 66, 13
2, 132236, Note_on_c, 0, 50, 0
2, 132256, Control_c, 0, 64, 127
2, 132286, Note_on_c, 0, 69, 0
2, 132308, Note_on_c, 0, 62, 39
2, 132334, Note_on_c, 0, 66, 0
2, 132368, Note_on_c, 0, 62, 0
2, 132622, Note_on_c, 0, 74, 36
2, 132625, Note_on_c, 0, 86, 63
2, 132634, Note_on_c, 0, 71, 24
2, 132656, Control_c, 0, 64, 0
2, 132748, Note_on_c, 0, 71, 0
2, 132864, Note_on_c, 0, 73, 52
2, 132874, Note_on_c, 0, 85, 68
2, 132900, Note_on_c, 0, 74, 0
2, 132900, Control_c, 0, 64, 127
2, 132903, Note_on_c, 0, 69, 28
2, 132914, Note_on_c, 0, 86, 0
2, 133016, Note_on_c, 0, 69, 0
2, 133066, Note_on_c, 0, 73, 0
2, 133094, Note_on_c, 0, 83, 95
2, 133096, Note_on_c, 0, 71, 45
2, 133104, Note_on_c, 0, 67, 39
2, 133118, Note_on_c, 0, 85, 0
2, 133160, Note_on_c, 0, 71, 0
2, 133268, Note_on_c, 0, 83, 0
2, 133306, Note_on_c, 0, 69, 46
2, 133309, Note_on_c, 0, 67, 0
2, 133316, Note_on_c, 0, 81, 69
2, 133328, Note_on_c, 0, 66, 27
2, 133400, Note_on_c, 0, 66, 0
2, 133576, Note_on_c, 0, 79, 74
2, 133592, Note_on_c, 0, 69, 0
2, 133596, Note_on_c, 0, 81, 0
2, 133596, Note_on_c, 0, 67, 41
2, 133622, Note_on_c, 0, 64, 27
2, 133654, Control_c, 0, 64, 0
2, 133834, Note_on_c, 0, 64, 0
2, 133854, Note_on_c, 0, 62, 22
2, 133916, Control_c, 0, 64, 127
2, 133982, Note_on_c, 0, 62, 0
2, 134046, Note_on_c, 0, 79, 0
2, 134060, Note_on_c, 0, 67, 0
2, 134063, Note_on_c, 0, 69, 34
2, 134070, Note_on_c, 0, 81, 58
2, 134084, Note_on_c, 0, 66, 16
2, 134084, Control_c, 0, 64, 0
2, 134314, Note_on_c, 0, 62, 28
2, 134322, Note_on_c, 0, 66, 0
2, 134376, Control_c, 0, 64, 127
2, 134460, Note_on_c, 0, 62, 0
2, 134470, Note_on_c, 0, 81, 0
2, 134524, Note_on_c, 0, 69, 0
2, 134538, Note_on_c, 0, 71, 36
2, 134544, Note_on_c, 0, 67, 28
2, 134544, Control_c, 0, 64, 0
2, 134552, Note_on_c, 0, 83, 73
2, 134806, Note_on_c, 0, 62, 25
2, 134808, Note_on_c, 0, 67, 0
2, 134838, Control_c, 0, 64, 127
2, 134914, Note_on_c, 0, 62, 0
2, 134980, Note_on_c, 0, 83, 0
2, 135056, Note_on_c, 0, 71, 0
2, 135074, Note_on_c, 0, 66, 13
2, 135079, Note_on_c, 0, 69, 20
2, 135084, Control_c, 0, 64, 0
2, 135087, Note_on_c, 0, 81, 44
2, 135360, Control_c, 0, 64, 127
2, 135366, Note_on_c, 0, 66, 0
2, 135366, Note_on_c, 0, 62, 19
2, 135484, Note_on_c, 0, 62, 0
2, 135538, Note_on_c, 0, 69, 0
2, 135566, Note_on_c, 0, 71, 35
2, 135588, Note_on_c, 0, 67, 16
2, 135618, Note_on_c, 0, 81, 0
2, 135706, Note_on_c, 0, 67, 0
2, 135758, Note_on_c, 0, 71, 0
2, 135786, Note_on_c, 0, 69, 32
2, 135800, Note_on_c, 0, 66, 20
2, 135836, Control_c, 0, 64, 0
2, 135990, Control_c, 0, 64, 127
2, 135996, Note_on_c, 0, 66, 0
2, 136008, Note_on_c, 0, 69, 0
2, 136028, Note_on_c, 0, 64, 38
2, 136034, Note_on_c, 0, 67, 28
2, 136110, Note_on_c, 0, 67, 0
2, 136240, Note_on_c, 0, 66, 52
2, 136262, Note_on_c, 0, 62, 36
2, 136276, Note_on_c, 0, 64, 0
2, 136328, Note_on_c, 0, 62, 0
2, 136516, Note_on_c, 0, 61, 38
2, 136528, Note_on_c, 0, 45, 29
2, 136534, Note_on_c, 0, 66, 0
2, 136536, Note_on_c, 0, 64, 51
2, 136620, Control_c, 0, 64, 0
2, 136776, Note_on_c, 0, 57, 40
2, 136858, Note_on_c, 0, 61, 0
2, 136880, Control_c, 0, 64, 127
2, 136936, Note_on_c, 0, 57, 0
2, 137018, Note_on_c, 0, 45, 0
2, 137018, Note_on_c, 0, 69, 37
2, 137021, Note_on_c, 0, 42, 44
2, 137036, Note_on_c, 0, 62, 36
2, 137044, Note_on_c, 0, 64, 0
2, 137112, Control_c, 0, 64, 0
2, 137256, Note_on_c, 0, 57, 29
2, 137268, Note_on_c, 0, 62, 0
2, 137356, Control_c, 0, 64, 127
2, 137414, Note_on_c, 0, 57, 0
2, 137486, Note_on_c, 0, 66, 36
2, 137488, Note_on_c, 0, 38, 38
2, 137500, Note_on_c, 0, 62, 32
2, 137514, Note_on_c, 0, 69, 0
2, 137524, Note_on_c, 0, 42, 0
2, 137542, Control_c, 0, 64, 0
2, 137736, Note_on_c, 0, 57, 30
2, 137739, Note_on_c, 0, 62, 0
2, 137834, Control_c, 0, 64, 127
2, 137856, Note_on_c, 0, 57, 0
2, 137928, Note_on_c, 0, 38, 0
2, 137956, Control_c, 0, 64, 0
2, 137960, Note_on_c, 0, 66, 0
2, 137974, Note_on_c, 0, 45, 30
2, 137977, Note_on_c, 0, 61, 31
2, 138006, Note_on_c, 0, 64, 32
2, 138168, Note_on_c, 0, 45, 0
2, 138186, Control_c, 0, 64, 127
2, 138210, Note_on_c, 0, 57, 41
2, 138264, Note_on_c, 0, 64, 0
2, 138274, Note_on_c, 0, 57, 0
2, 138284, Note_on_c, 0, 61, 0
2, 138560, Note_on_c, 0, 71, 35
2, 138564, Note_on_c, 0, 83, 74
2, 138566, Note_on_c, 0, 67, 32
2, 138644, Note_on_c, 0, 71, 0
2, 138784, Note_on_c, 0, 67, 0
2, 138790, Note_on_c, 0, 83, 0
2, 138810, Note_on_c, 0, 66, 32
2, 138813, Note_on_c, 0, 81, 65
2, 138813, Note_on_c, 0, 69, 44
2, 138848, Control_c, 0, 64, 0
2, 138944, Note_on_c, 0, 66, 0
2, 139032, Control_c, 0, 64, 127
2, 139048, Note_on_c, 0, 79, 72
2, 139056, Note_on_c, 0, 69, 0
2, 139064, Note_on_c, 0, 67, 38
2, 139078, Control_c, 0, 64, 0
2, 139086, Note_on_c, 0, 64, 32
2, 139088, Note_on_c, 0, 81, 0
2, 139160, Note_on_c, 0, 64, 0
2, 139234, Note_on_c, 0, 67, 0
2, 139268, Note_on_c, 0, 66, 45
2, 139278, Note_on_c, 0, 79, 0
2, 139278, Control_c, 0, 64, 127
2, 139280, Note_on_c, 0, 62, 39
2, 139286, Note_on_c, 0, 78, 48
2, 139324, Note_on_c, 0, 66, 0
2, 139454, Note_on_c, 0, 62, 0
2, 139458, Note_on_c, 0, 78, 0
2, 139470, Note_on_c, 0, 80, 42
2, 139518, Note_on_c, 0, 81, 56
2, 139518, Note_on_c, 0, 64, 44
2, 139520, Note_on_c, 0, 61, 35
2, 139524, Control_c, 0, 64, 0
2, 139530, Note_on_c, 0, 80, 0
2, 139718, Note_on_c, 0, 81, 0
2, 139738, Control_c, 0, 64, 127
2, 139744, Note_on_c, 0, 57, 41
2, 139782, Note_on_c, 0, 61, 0
2, 139840, Note_on_c, 0, 57, 0
2, 139892, Control_c, 0, 64, 0
2, 139936, Note_on_c, 0, 64, 0
2, 139939, Note_on_c, 0, 80, 48
2, 139984, Note_on_c, 0, 66, 16
2, 139987, Note_on_c, 0, 81, 57
2, 139992, Note_on_c, 0, 69, 24
2, 140002, Note_on_c, 0, 80, 0
2, 140128, Note_on_c, 0, 66, 0
2, 140184, Control_c, 0, 64, 127
2, 140186, Note_on_c, 0, 81, 0
2, 140206, Note_on_c, 0, 57, 27
2, 140354, Control_c, 0, 64, 0
2, 140374, Note_on_c, 0, 80, 31
2, 140384, Note_on_c, 0, 57, 0
2, 140426, Note_on_c, 0, 66, 30
2, 140440, Note_on_c, 0, 81, 43
2, 140442, Note_on_c, 0, 80, 0
2, 140446, Note_on_c, 0, 62, 29
2, 140458, Note_on_c, 0, 69, 0
2, 140650, Note_on_c, 0, 81, 0
2, 140666, Note_on_c, 0, 62, 0
2, 140666, Note_on_c, 0, 57, 31
2, 140676, Control_c, 0, 64, 127
2, 140800, Control_c, 0, 64, 0
2, 140818, Note_on_c, 0, 57, 0
2, 140826, Note_on_c, 0, 80, 20
2, 140880, Note_on_c, 0, 66, 0
2, 140898, Note_on_c, 0, 80, 0
2, 140898, Note_on_c, 0, 61, 33
2, 140908, Note_on_c, 0, 81, 27
2, 140932, Note_on_c, 0, 64, 28
2, 141058, Note_on_c, 0, 61, 0
2, 141064, Note_on_c, 0, 81, 0
2, 141090, Control_c, 0, 64, 127
2, 141104, Note_on_c, 0, 64, 0
2, 141222, Note_on_c, 0, 69, 23
2, 141298, Note_on_c, 0, 69, 0
2, 141500, Note_on_c, 0, 62, 39
2, 141506, Note_on_c, 0, 74, 56
2, 141532, Note_on_c, 0, 59, 21
2, 141568, Control_c, 0, 64, 0
2, 141716, Note_on_c, 0, 59, 0
2, 141734, Note_on_c, 0, 73, 58
2, 141742, Note_on_c, 0, 58, 35
2, 141750, Note_on_c, 0, 74, 0
2, 141798, Control_c, 0, 64, 127
2, 141922, Note_on_c, 0, 58, 0
2, 141950, Control_c, 0, 64, 0
2, 141962, Note_on_c, 0, 73, 0
2, 141964, Note_on_c, 0, 74, 75
2, 141974, Note_on_c, 0, 59, 44
2, 142120, Control_c, 0, 64, 127
2, 142122, Note_on_c, 0, 74, 0
2, 142148, Note_on_c, 0, 59, 0
2, 142184, Note_on_c, 0, 71, 70
2, 142198, Note_on_c, 0, 55, 51
2, 142230, Note_on_c, 0, 71, 0
2, 142378, Note_on_c, 0, 55, 0
2, 142398, Control_c, 0, 64, 0
2, 142408, Note_on_c, 0, 69, 51
2, 142424, Note_on_c, 0, 54, 48
2, 142480, Note_on_c, 0, 62, 0
2, 142612, Control_c, 0, 64, 127
2, 142648, Note_on_c, 0, 57, 48
2, 142651, Note_on_c, 0, 69, 0
2, 142754, Note_on_c, 0, 57, 0
2, 142876, Note_on_c, 0, 54, 0
2, 142882, Note_on_c, 0, 67, 57
2, 142896, Note_on_c, 0, 52, 49
2, 142904, Control_c, 0, 64, 0
2, 142906, Note_on_c, 0, 64, 41
2, 142978, Note_on_c, 0, 64, 0
2, 143130, Note_on_c, 0, 59, 46
2, 143150, Control_c, 0, 64, 127
2, 143264, Note_on_c, 0, 52, 0
2, 143304, Note_on_c, 0, 59, 0
2, 143350, Note_on_c, 0, 64, 69
2, 143352, Note_on_c, 0, 61, 51
2, 143354, Note_on_c, 0, 67, 0
2, 143356, Note_on_c, 0, 45, 34
2, 143380, Control_c, 0, 64, 0
2, 143596, Note_on_c, 0, 64, 0
2, 143606, Note_on_c, 0, 57, 50
2, 143626, Control_c, 0, 64, 127
2, 143674, Note_on_c, 0, 61, 0
2, 143782, Note_on_c, 0, 45, 0
2, 143818, Note_on_c, 0, 57, 0
2, 143838, Note_on_c, 0, 66, 48
2, 143838, Note_on_c, 0, 50, 52
2, 143841, Control_c, 0, 64, 0
2, 143864, Note_on_c, 0, 62, 37
2, 143958, Note_on_c, 0, 50, 0
2, 143982, Note_on_c, 0, 62, 0
2, 144010, Control_c, 0, 64, 127
2, 144086, Note_on_c, 0, 69, 54
2, 144134, Note_on_c, 0, 69, 0
2, 144138, Note_on_c, 0, 66, 0
2, 144394, Control_c, 0, 64, 0
2, 144397, Note_on_c, 0, 86, 54
2, 144402, Note_on_c, 0, 71, 41
2, 144408, Note_on_c, 0, 74, 61
2, 144610, Note_on_c, 0, 85, 69
2, 144616, Note_on_c, 0, 73, 62
2, 144620, Note_on_c, 0, 71, 0
2, 144624, Note_on_c, 0, 70, 42
2, 144654, Note_on_c, 0, 86, 0
2, 144666, Note_on_c, 0, 74, 0
2, 144732, Control_c, 0, 64, 127
2, 144818, Note_on_c, 0, 73, 0
2, 144826, Control_c, 0, 64, 0
2, 144854, Note_on_c, 0, 86, 71
2, 144858, Note_on_c, 0, 74, 55
2, 144860, Note_on_c, 0, 71, 48
2, 144868, Note_on_c, 0, 85, 0
2, 144890, Note_on_c, 0, 70, 0
2, 144972, Note_on_c, 0, 71, 0
2, 145040, Control_c, 0, 64, 127
2, 145084, Note_on_c, 0, 71, 56
2, 145086, Control_c, 0, 64, 0
2, 145098, Note_on_c, 0, 83, 96
2, 145101, Note_on_c, 0, 67, 37
2, 145116, Note_on_c, 0, 74, 0
2, 145136, Note_on_c, 0, 86, 0
2, 145178, Control_c, 0, 64, 127
2, 145288, Note_on_c, 0, 67, 0
2, 145316, Control_c, 0, 64, 0
2, 145330, Note_on_c, 0, 83, 0
2, 145352, Note_on_c, 0, 71, 0
2, 145356, Note_on_c, 0, 81, 71
2, 145364, Note_on_c, 0, 69, 36
2, 145394, Note_on_c, 0, 66, 17
2, 145500, Control_c, 0, 64, 127
2, 145554, Note_on_c, 0, 66, 0
2, 145560, Note_on_c, 0, 69, 0
2, 145588, Note_on_c, 0, 62, 44
2, 145732, Note_on_c, 0, 62, 0
2, 145768, Note_on_c, 0, 81, 0
2, 145800, Note_on_c, 0, 67, 45
2, 145806, Note_on_c, 0, 79, 63
2, 145808, Control_c, 0, 64, 0
2, 145832, Note_on_c, 0, 64, 36
2, 145918, Note_on_c, 0, 64, 0
2, 145976, Control_c, 0, 64, 127
2, 146034, Note_on_c, 0, 59, 33
2, 146192, Note_on_c, 0, 59, 0
2, 146246, Note_on_c, 0, 67, 0
2, 146248, Note_on_c, 0, 79, 0
2, 146262, Note_on_c, 0, 64, 46
2, 146267, Note_on_c, 0, 76, 38
2, 146276, Note_on_c, 0, 61, 30
2, 146314, Control_c, 0, 64, 0
2, 146484, Note_on_c, 0, 64, 0
2, 146500, Note_on_c, 0, 57, 32
2, 146530, Control_c, 0, 64, 127
2, 146544, Note_on_c, 0, 61, 0
2, 146682, Note_on_c, 0, 57, 0
2, 146700, Control_c, 0, 64, 0
2, 146704, Note_on_c, 0, 76, 0
2, 146732, Note_on_c, 0, 66, 31
2, 146735, Note_on_c, 0, 78, 33
2, 146780, Note_on_c, 0, 62, 23
2, 146882, Control_c, 0, 64, 127
2, 146890, Note_on_c, 0, 78, 0
2, 146944, Note_on_c, 0, 66, 0
2, 146966, Note_on_c, 0, 69, 34
2, 147046, Note_on_c, 0, 69, 0
2, 147216, Note_on_c, 0, 69, 40
2, 147228, Note_on_c, 0, 43, 35
2, 147236, Note_on_c, 0, 62, 0
2, 147238, Note_on_c, 0, 59, 34
2, 147268, Control_c, 0, 64, 0
2, 147460, Note_on_c, 0, 67, 50
2, 147468, Note_on_c, 0, 69, 0
2, 147468, Control_c, 0, 64, 127
2, 147486, Note_on_c, 0, 43, 0
2, 147682, Control_c, 0, 64, 0
2, 147702, Note_on_c, 0, 64, 60
2, 147708, Note_on_c, 0, 67, 0
2, 147708, Note_on_c, 0, 55, 42
2, 147711, Note_on_c, 0, 45, 35
2, 147722, Note_on_c, 0, 59, 0
2, 147928, Control_c, 0, 64, 127
2, 147930, Note_on_c, 0, 61, 65
2, 147944, Note_on_c, 0, 55, 0
2, 147982, Note_on_c, 0, 45, 0
2, 147988, Note_on_c, 0, 64, 0
2, 148156, Note_on_c, 0, 61, 0
2, 148160, Control_c, 0, 64, 0
2, 148168, Note_on_c, 0, 62, 70
2, 148182, Note_on_c, 0, 54, 39
2, 148198, Note_on_c, 0, 50, 36
2, 148414, Note_on_c, 0, 66, 53
2, 148434, Control_c, 0, 64, 127
2, 148444, Note_on_c, 0, 62, 0
2, 148450, Note_on_c, 0, 50, 0
2, 148468, Note_on_c, 0, 54, 0
2, 148584, Note_on_c, 0, 66, 0
2, 148650, Control_c, 0, 64, 0
2, 148682, Note_on_c, 0, 59, 40
2, 148682, Note_on_c, 0, 69, 39
2, 148709, Note_on_c, 0, 43, 37
2, 148908, Note_on_c, 0, 43, 0
2, 148912, Control_c, 0, 64, 127
2, 148946, Note_on_c, 0, 67, 39
2, 148960, Note_on_c, 0, 69, 0
2, 149090, Note_on_c, 0, 59, 0
2, 149112, Control_c, 0, 64, 0
2, 149115, Note_on_c, 0, 67, 0
2, 149190, Note_on_c, 0, 64, 45
2, 149206, Note_on_c, 0, 45, 22
2, 149214, Note_on_c, 0, 55, 30
2, 149360, Note_on_c, 0, 55, 0
2, 149386, Note_on_c, 0, 45, 0
2, 149422, Note_on_c, 0, 64, 0
2, 149470, Note_on_c, 0, 61, 31
2, 149750, Note_on_c, 0, 61, 0
2, 149786, Note_on_c, 0, 62, 28
2, 149810, Note_on_c, 0, 54, 27
2, 149830, Note_on_c, 0, 50, 22
2, 150010, Note_on_c, 0, 54, 0
2, 150018, Note_on_c, 0, 50, 0
2, 150034, Control_c, 0, 64, 127
2, 150064, Control_c, 0, 64, 0
2, 150240, Note_on_c, 0, 62, 0
2, 150506, Note_on_c, 0, 38, 27
2, 150572, Control_c, 0, 64, 127
2, 150638, Note_on_c, 0, 38, 0
2, 151200, Control_c, 0, 64, 0
2, 152292, Note_on_c, 0, 61, 43
2, 152352, Note_on_c, 0, 64, 63
2, 152410, Note_on_c, 0, 69, 76
2, 152414, Note_on_c, 0, 57, 59
2, 152422, Note_on_c, 0, 45, 52
2, 152436, Note_on_c, 0, 61, 0
2, 152520, Note_on_c, 0, 64, 0
2, 152982, Control_c, 0, 64, 127
2, 152996, Note_on_c, 0, 57, 0
2, 153042, Note_on_c, 0, 45, 0
2, 153352, Control_c, 0, 64, 0
2, 153364, Note_on_c, 0, 52, 57
2, 153366, Note_on_c, 0, 64, 81
2, 153366, Note_on_c, 0, 40, 61
2, 153374, Note_on_c, 0, 69, 0
2, 153528, Note_on_c, 0, 40, 0
2, 153536, Note_on_c, 0, 52, 0
2, 153536, Control_c, 0, 64, 127
2, 153836, Note_on_c, 0, 64, 0
2, 153836, Note_on_c, 0, 61, 58
2, 153842, Note_on_c, 0, 73, 70
2, 153854, Note_on_c, 0, 49, 44
2, 153890, Control_c, 0, 64, 0
2, 154134, Note_on_c, 0, 74, 60
2, 154150, Note_on_c, 0, 73, 0
2, 154153, Note_on_c, 0, 61, 0
2, 154232, Note_on_c, 0, 74, 0
2, 154236, Note_on_c, 0, 71, 62
2, 154352, Note_on_c, 0, 49, 0
2, 154366, Note_on_c, 0, 45, 22
2, 154366, Note_on_c, 0, 57, 12
2, 154369, Note_on_c, 0, 71, 0
2, 154372, Note_on_c, 0, 69, 37
2, 154770, Note_on_c, 0, 57, 0
2, 154796, Control_c, 0, 64, 127
2, 154804, Note_on_c, 0, 45, 0
2, 154836, Note_on_c, 0, 69, 0
2, 154874, Control_c, 0, 64, 0
2, 155252, Note_on_c, 0, 76, 40
2, 155538, Note_on_c, 0, 78, 41
2, 155598, Note_on_c, 0, 76, 0
2, 155624, Note_on_c, 0, 78, 0
2, 155656, Control_c, 0, 64, 127
2, 155670, Note_on_c, 0, 74, 36
2, 155782, Note_on_c, 0, 73, 43
2, 155800, Note_on_c, 0, 74, 0
2, 155872, Control_c, 0, 64, 0
2, 156194, Control_c, 0, 64, 127
2, 156226, Control_c, 0, 64, 0
2, 156248, Note_on_c, 0, 85, 56
2, 156272, Note_on_c, 0, 66, 17
2, 156280, Note_on_c, 0, 73, 0
2, 156282, Note_on_c, 0, 57, 27
2, 156456, Control_c, 0, 64, 127
2, 156488, Note_on_c, 0, 57, 0
2, 156528, Note_on_c, 0, 66, 0
2, 156536, Note_on_c, 0, 85, 0
2, 156754, Note_on_c, 0, 75, 39
2, 156764, Note_on_c, 0, 69, 14
2, 156800, Note_on_c, 0, 59, 15
2, 156870, Control_c, 0, 64, 0
2, 157146, Control_c, 0, 64, 127
2, 157254, Control_c, 0, 64, 0
2, 157280, Note_on_c, 0, 69, 0
2, 157304, Note_on_c, 0, 76, 26
2, 157332, Note_on_c, 0, 68, 18
2, 157340, Note_on_c, 0, 59, 0
2, 157358, Note_on_c, 0, 75, 0
2, 157361, Note_on_c, 0, 64, 17
2, 157824, Control_c, 0, 64, 127
2, 157974, Note_on_c, 0, 68, 0
2, 158008, Note_on_c, 0, 64, 0
2, 158222, Control_c, 0, 64, 0
2, 158224, Note_on_c, 0, 77, 50
2, 158326, Note_on_c, 0, 76, 0
2, 158493, Note_on_c, 0, 80, 52
2, 158528, Note_on_c, 0, 77, 0
2, 158732, Note_on_c, 0, 78, 48
2, 158760, Control_c, 0, 64, 127
2, 158810, Note_on_c, 0, 80, 0
2, 158966, Note_on_c, 0, 76, 48
2, 159004, Note_on_c, 0, 78, 0
2, 159007, Control_c, 0, 64, 0
2, 159190, Control_c, 0, 64, 127
2, 159206, Note_on_c, 0, 74, 42
2, 159238, Note_on_c, 0, 76, 0
2, 159436, Note_on_c, 0, 73, 38
2, 159504, Note_on_c, 0, 74, 0
2, 159670, Note_on_c, 0, 71, 56
2, 159714, Note_on_c, 0, 73, 0
2, 159918, Note_on_c, 0, 69, 34
2, 159940, Note_on_c, 0, 71, 0
2, 159952, Note_on_c, 0, 52, 31
2, 160160, Note_on_c, 0, 68, 44
2, 160174, Control_c, 0, 64, 0
2, 160208, Note_on_c, 0, 62, 24
2, 160244, Note_on_c, 0, 69, 0
2, 160394, Note_on_c, 0, 62, 0
2, 160396, Note_on_c, 0, 76, 43
2, 160434, Note_on_c, 0, 68, 0
2, 160438, Note_on_c, 0, 59, 24
2, 160652, Note_on_c, 0, 74, 37
2, 160660, Note_on_c, 0, 59, 0
2, 160666, Note_on_c, 0, 62, 28
2, 160682, Note_on_c, 0, 76, 0
2, 160866, Note_on_c, 0, 62, 0
2, 160892, Note_on_c, 0, 74, 0
2, 160908, Note_on_c, 0, 59, 37
2, 160926, Control_c, 0, 64, 127
2, 161074, Note_on_c, 0, 52, 0
2, 161126, Note_on_c, 0, 59, 0
2, 161136, Note_on_c, 0, 62, 34
2, 161358, Note_on_c, 0, 62, 0
2, 161370, Note_on_c, 0, 71, 62
2, 161400, Note_on_c, 0, 52, 35
2, 161403, Control_c, 0, 64, 0
2, 161598, Note_on_c, 0, 69, 57
2, 161614, Note_on_c, 0, 61, 35
2, 161632, Note_on_c, 0, 71, 0
2, 161634, Control_c, 0, 64, 127
2, 161824, Note_on_c, 0, 61, 0
2, 161834, Note_on_c, 0, 78, 57
2, 161846, Note_on_c, 0, 69, 0
2, 161864, Control_c, 0, 64, 0
2, 161868, Note_on_c, 0, 57, 22
2, 162052, Note_on_c, 0, 57, 0
2, 162058, Note_on_c, 0, 61, 34
2, 162088, Note_on_c, 0, 76, 45
2, 162100, Note_on_c, 0, 78, 0
2, 162124, Control_c, 0, 64, 127
2, 162218, Control_c, 0, 64, 0
2, 162288, Note_on_c, 0, 61, 0
2, 162322, Note_on_c, 0, 57, 40
2, 162334, Note_on_c, 0, 76, 0
2, 162402, Control_c, 0, 64, 127
2, 162466, Note_on_c, 0, 52, 0
2, 162538, Note_on_c, 0, 61, 46
2, 162552, Note_on_c, 0, 57, 0
2, 162784, Note_on_c, 0, 61, 0
2, 162790, Note_on_c, 0, 73, 62
2, 162812, Note_on_c, 0, 50, 40
2, 162894, Control_c, 0, 64, 0
2, 163044, Note_on_c, 0, 71, 84
2, 163052, Note_on_c, 0, 59, 43
2, 163078, Control_c, 0, 64, 127
2, 163108, Control_c, 0, 64, 0
2, 163114, Note_on_c, 0, 73, 0
2, 163264, Note_on_c, 0, 59, 0
2, 163280, Note_on_c, 0, 54, 49
2, 163294, Note_on_c, 0, 79, 84
2, 163308, Control_c, 0, 64, 127
2, 163316, Note_on_c, 0, 71, 0
2, 163354, Control_c, 0, 64, 0
2, 163518, Note_on_c, 0, 54, 0
2, 163534, Note_on_c, 0, 59, 46
2, 163566, Note_on_c, 0, 78, 64
2, 163580, Note_on_c, 0, 79, 0
2, 163724, Note_on_c, 0, 59, 0
2, 163754, Control_c, 0, 64, 127
2, 163754, Note_on_c, 0, 54, 52
2, 163757, Note_on_c, 0, 78, 0
2, 163810, Note_on_c, 0, 50, 0
2, 163982, Note_on_c, 0, 54, 0
2, 163985, Note_on_c, 0, 59, 41
2, 164152, Control_c, 0, 64, 0
2, 164264, Note_on_c, 0, 59, 0
2, 164284, Note_on_c, 0, 66, 48
2, 164294, Note_on_c, 0, 50, 38
2, 164646, Control_c, 0, 64, 127
2, 164772, Note_on_c, 0, 76, 42
2, 164777, Note_on_c, 0, 66, 0
2, 164832, Note_on_c, 0, 50, 0
2, 164936, Control_c, 0, 64, 0
2, 165018, Note_on_c, 0, 74, 47
2, 165086, Note_on_c, 0, 76, 0
2, 165236, Note_on_c, 0, 73, 42
2, 165252, Note_on_c, 0, 74, 0
2, 165444, Control_c, 0, 64, 127
2, 165464, Note_on_c, 0, 71, 49
2, 165476, Note_on_c, 0, 73, 0
2, 165660, Control_c, 0, 64, 0
2, 165702, Note_on_c, 0, 69, 41
2, 165716, Note_on_c, 0, 71, 0
2, 165722, Note_on_c, 0, 62, 20
2, 165728, Note_on_c, 0, 52, 22
2, 165970, Note_on_c, 0, 68, 25
2, 165980, Note_on_c, 0, 69, 0
2, 166132, Note_on_c, 0, 62, 0
2, 166214, Note_on_c, 0, 52, 0
2, 166258, Note_on_c, 0, 61, 25
2, 166262, Note_on_c, 0, 69, 22
2, 166282, Note_on_c, 0, 68, 0
2, 166300, Note_on_c, 0, 57, 12
2, 166674, Control_c, 0, 64, 127
2, 166686, Note_on_c, 0, 57, 0
2, 166689, Note_on_c, 0, 61, 0
2, 166834, Note_on_c, 0, 69, 0
2, 166934, Control_c, 0, 64, 0
2, 167208, Note_on_c, 0, 71, 68
2, 167270, Note_on_c, 0, 76, 53
2, 167326, Note_on_c, 0, 80, 74
2, 167368, Note_on_c, 0, 71, 0
2, 167386, Note_on_c, 0, 76, 0
2, 167402, Note_on_c, 0, 83, 111
2, 167410, Control_c, 0, 64, 127
2, 167414, Note_on_c, 0, 52, 69
2, 167478, Note_on_c, 0, 80, 0
2, 167488, Control_c, 0, 64, 0
2, 167646, Note_on_c, 0, 56, 59
2, 167702, Control_c, 0, 64, 127
2, 167812, Note_on_c, 0, 52, 0
2, 167864, Note_on_c, 0, 59, 57
2, 167886, Note_on_c, 0, 56, 0
2, 167918, Control_c, 0, 64, 0
2, 168102, Note_on_c, 0, 56, 50
2, 168122, Note_on_c, 0, 59, 0
2, 168332, Note_on_c, 0, 54, 52
2, 168348, Note_on_c, 0, 56, 0
2, 168544, Note_on_c, 0, 54, 0
2, 168570, Note_on_c, 0, 52, 53
2, 168608, Note_on_c, 0, 83, 0
2, 168782, Note_on_c, 0, 52, 0
2, 168786, Note_on_c, 0, 51, 50
2, 168814, Note_on_c, 0, 83, 85
2, 168886, Note_on_c, 0, 83, 0
2, 168920, Note_on_c, 0, 81, 49
2, 168992, Note_on_c, 0, 81, 0
2, 169012, Note_on_c, 0, 80, 63
2, 169016, Note_on_c, 0, 51, 0
2, 169016, Note_on_c, 0, 52, 48
2, 169088, Note_on_c, 0, 80, 0
2, 169120, Note_on_c, 0, 78, 65
2, 169164, Note_on_c, 0, 78, 0
2, 169186, Note_on_c, 0, 52, 0
2, 169220, Note_on_c, 0, 54, 53
2, 169236, Note_on_c, 0, 78, 65
2, 169366, Note_on_c, 0, 76, 52
2, 169369, Note_on_c, 0, 78, 0
2, 169432, Note_on_c, 0, 54, 0
2, 169458, Note_on_c, 0, 75, 66
2, 169472, Note_on_c, 0, 47, 33
2, 169490, Note_on_c, 0, 76, 0
2, 169562, Note_on_c, 0, 73, 64
2, 169590, Note_on_c, 0, 75, 0
2, 169668, Note_on_c, 0, 71, 79
2, 169680, Note_on_c, 0, 49, 45
2, 169710, Note_on_c, 0, 47, 0
2, 169718, Note_on_c, 0, 73, 0
2, 169748, Note_on_c, 0, 71, 0
2, 169766, Note_on_c, 0, 69, 65
2, 169874, Note_on_c, 0, 68, 71
2, 169884, Note_on_c, 0, 51, 51
2, 169906, Note_on_c, 0, 69, 0
2, 169906, Note_on_c, 0, 49, 0
2, 169974, Note_on_c, 0, 69, 62
2, 169998, Note_on_c, 0, 68, 0
2, 170088, Note_on_c, 0, 51, 0
2, 170088, Note_on_c, 0, 68, 66
2, 170096, Note_on_c, 0, 69, 0
2, 170110, Note_on_c, 0, 52, 60
2, 170196, Note_on_c, 0, 68, 0
2, 170208, Note_on_c, 0, 71, 74
2, 170292, Note_on_c, 0, 52, 0
2, 170296, Note_on_c, 0, 56, 54
2, 170320, Note_on_c, 0, 76, 68
2, 170352, Note_on_c, 0, 71, 0
2, 170426, Note_on_c, 0, 80, 70
2, 170434, Note_on_c, 0, 76, 0
2, 170526, Note_on_c, 0, 56, 0
2, 170544, Note_on_c, 0, 59, 50
2, 170560, Note_on_c, 0, 83, 83
2, 170568, Note_on_c, 0, 80, 0
2, 170798, Note_on_c, 0, 56, 41
2, 170804, Note_on_c, 0, 59, 0
2, 171028, Note_on_c, 0, 54, 43
2, 171034, Note_on_c, 0, 56, 0
2, 171260, Note_on_c, 0, 54, 0
2, 171264, Note_on_c, 0, 52, 49
2, 171358, Note_on_c, 0, 83, 0
2, 171494, Note_on_c, 0, 52, 0
2, 171494, Note_on_c, 0, 51, 55
2, 171502, Note_on_c, 0, 83, 94
2, 171610, Note_on_c, 0, 81, 63
2, 171638, Note_on_c, 0, 83, 0
2, 171712, Note_on_c, 0, 80, 70
2, 171724, Note_on_c, 0, 81, 0
2, 171724, Note_on_c, 0, 52, 65
2, 171736, Note_on_c, 0, 51, 0
2, 171824, Note_on_c, 0, 78, 70
2, 171829, Note_on_c, 0, 80, 0
2, 171868, Note_on_c, 0, 78, 0
2, 171910, Note_on_c, 0, 52, 0
2, 171942, Note_on_c, 0, 54, 55
2, 171945, Note_on_c, 0, 78, 62
2, 172068, Note_on_c, 0, 76, 57
2, 172073, Note_on_c, 0, 78, 0
2, 172164, Note_on_c, 0, 54, 0
2, 172176, Note_on_c, 0, 75, 68
2, 172176, Note_on_c, 0, 47, 37
2, 172208, Note_on_c, 0, 76, 0
2, 172276, Note_on_c, 0, 73, 60
2, 172304, Note_on_c, 0, 75, 0
2, 172390, Note_on_c, 0, 71, 70
2, 172393, Note_on_c, 0, 49, 43
2, 172398, Note_on_c, 0, 47, 0
2, 172436, Note_on_c, 0, 73, 0
2, 172486, Note_on_c, 0, 71, 0
2, 172496, Note_on_c, 0, 69, 52
2, 172598, Note_on_c, 0, 68, 68
2, 172601, Note_on_c, 0, 51, 40
2, 172614, Note_on_c, 0, 49, 0
2, 172628, Note_on_c, 0, 69, 0
2, 172700, Note_on_c, 0, 69, 51
2, 172712, Note_on_c, 0, 68, 0
2, 172796, Note_on_c, 0, 51, 0
2, 172820, Note_on_c, 0, 68, 47
2, 172838, Note_on_c, 0, 69, 0
2, 172848, Note_on_c, 0, 52, 45
2, 172942, Note_on_c, 0, 71, 61
2, 172954, Note_on_c, 0, 68, 0
2, 173034, Note_on_c, 0, 71, 0
2, 173054, Note_on_c, 0, 69, 54
2, 173146, Note_on_c, 0, 69, 0
2, 173156, Note_on_c, 0, 68, 56
2, 173282, Note_on_c, 0, 69, 61
2, 173288, Note_on_c, 0, 68, 0
2, 173354, Note_on_c, 0, 52, 0
2, 173384, Note_on_c, 0, 69, 0
2, 173384, Note_on_c, 0, 71, 72
2, 173486, Note_on_c, 0, 73, 68
2, 173500, Note_on_c, 0, 71, 0
2, 173598, Note_on_c, 0, 75, 69
2, 173644, Note_on_c, 0, 73, 0
2, 173690, Note_on_c, 0, 75, 0
2, 173704, Note_on_c, 0, 76, 73
2, 173808, Note_on_c, 0, 78, 72
2, 173832, Note_on_c, 0, 76, 0
2, 173914, Note_on_c, 0, 80, 78
2, 173950, Note_on_c, 0, 78, 0
2, 174018, Note_on_c, 0, 81, 71
2, 174032, Note_on_c, 0, 80, 0
2, 174112, Note_on_c, 0, 81, 0
2, 174130, Note_on_c, 0, 83, 98
2, 174238, Note_on_c, 0, 85, 63
2, 174266, Note_on_c, 0, 83, 0
2, 174344, Note_on_c, 0, 87, 56
2, 174392, Note_on_c, 0, 85, 0
2, 174454, Note_on_c, 0, 88, 67
2, 174484, Note_on_c, 0, 87, 0
2, 174562, Note_on_c, 0, 87, 54
2, 174614, Note_on_c, 0, 88, 0
2, 174676, Note_on_c, 0, 85, 62
2, 174696, Note_on_c, 0, 87, 0
2, 174804, Note_on_c, 0, 83, 81
2, 174810, Note_on_c, 0, 85, 0
2, 174928, Note_on_c, 0, 81, 44
2, 174936, Note_on_c, 0, 83, 0
2, 175022, Note_on_c, 0, 80, 40
2, 175042, Note_on_c, 0, 81, 0
2, 175150, Note_on_c, 0, 78, 47
2, 175192, Note_on_c, 0, 80, 0
2, 175274, Note_on_c, 0, 76, 25
2, 175296, Note_on_c, 0, 78, 0
2, 175362, Note_on_c, 0, 76, 0
2, 175364, Note_on_c, 0, 75, 47
2, 175528, Note_on_c, 0, 75, 0
2, 175532, Note_on_c, 0, 73, 41
2, 175544, Note_on_c, 0, 66, 24
2, 175566, Note_on_c, 0, 57, 23
2, 175692, Control_c, 0, 64, 127
2, 175706, Note_on_c, 0, 73, 0
2, 175862, Note_on_c, 0, 66, 0
2, 175970, Note_on_c, 0, 85, 58
2, 176048, Note_on_c, 0, 85, 0
2, 176066, Note_on_c, 0, 68, 31
2, 176076, Note_on_c, 0, 57, 0
2, 176086, Note_on_c, 0, 76, 65
2, 176110, Note_on_c, 0, 59, 28
2, 176170, Control_c, 0, 64, 0
2, 176398, Control_c, 0, 64, 127
2, 176554, Note_on_c, 0, 68, 0
2, 176596, Note_on_c, 0, 75, 41
2, 176600, Note_on_c, 0, 80, 55
2, 176606, Note_on_c, 0, 69, 25
2, 176614, Note_on_c, 0, 76, 0
2, 176630, Control_c, 0, 64, 0
2, 176832, Note_on_c, 0, 80, 0
2, 176856, Note_on_c, 0, 78, 38
2, 176938, Control_c, 0, 64, 127
2, 177090, Control_c, 0, 64, 0
2, 177110, Note_on_c, 0, 69, 0
2, 177130, Note_on_c, 0, 68, 25
2, 177140, Note_on_c, 0, 76, 36
2, 177156, Note_on_c, 0, 78, 0
2, 177156, Note_on_c, 0, 75, 0
2, 177164, Note_on_c, 0, 59, 0
2, 177178, Note_on_c, 0, 64, 14
2, 177398, Control_c, 0, 64, 127
2, 177416, Note_on_c, 0, 64, 0
2, 177828, Note_on_c, 0, 52, 18
2, 177866, Note_on_c, 0, 68, 0
2, 178058, Control_c, 0, 64, 0
2, 178072, Note_on_c, 0, 76, 0
2, 178244, Control_c, 0, 64, 127
2, 178290, Control_c, 0, 64, 0
2, 178296, Note_on_c, 0, 52, 0
2, 178764, Note_on_c, 0, 64, 55
2, 178930, Note_on_c, 0, 76, 70
2, 179014, Note_on_c, 0, 64, 0
2, 179026, Control_c, 0, 64, 127
2, 179354, Note_on_c, 0, 66, 55
2, 179366, Note_on_c, 0, 76, 0
2, 179470, Note_on_c, 0, 78, 72
2, 179504, Control_c, 0, 64, 0
2, 179718, Control_c, 0, 64, 127
2, 179728, Note_on_c, 0, 66, 0
2, 179850, Note_on_c, 0, 67, 51
2, 180008, Note_on_c, 0, 78, 0
2, 180018, Note_on_c, 0, 79, 80
2, 180072, Control_c, 0, 64, 0
2, 180244, Note_on_c, 0, 67, 0
2, 180256, Control_c, 0, 64, 127
2, 180334, Note_on_c, 0, 79, 0
2, 180506, Note_on_c, 0, 71, 70
2, 180519, Note_on_c, 0, 54, 34
2, 180670, Control_c, 0, 64, 0
2, 180780, Note_on_c, 0, 61, 47
2, 180890, Note_on_c, 0, 54, 0
2, 181008, Note_on_c, 0, 61, 0
2, 181010, Note_on_c, 0, 66, 37
2, 181032, Note_on_c, 0, 70, 42
2, 181070, Note_on_c, 0, 71, 0
2, 181258, Note_on_c, 0, 64, 58
2, 181296, Note_on_c, 0, 66, 0
2, 181348, Control_c, 0, 64, 127
2, 181398, Note_on_c, 0, 70, 0
2, 181486, Note_on_c, 0, 64, 0
2, 181486, Note_on_c, 0, 62, 59
2, 181654, Control_c, 0, 64, 0
2, 181724, Note_on_c, 0, 61, 47
2, 181732, Note_on_c, 0, 62, 0
2, 181800, Note_on_c, 0, 70, 67
2, 181938, Note_on_c, 0, 70, 0
2, 181950, Note_on_c, 0, 73, 59
2, 181968, Note_on_c, 0, 61, 0
2, 181971, Note_on_c, 0, 54, 47
2, 182204, Note_on_c, 0, 62, 52
2, 182226, Note_on_c, 0, 54, 0
2, 182330, Control_c, 0, 64, 127
2, 182406, Control_c, 0, 64, 0
2, 182414, Note_on_c, 0, 66, 22
2, 182420, Note_on_c, 0, 62, 0
2, 182438, Note_on_c, 0, 71, 58
2, 182478, Note_on_c, 0, 73, 0
2, 182680, Note_on_c, 0, 66, 0
2, 182682, Note_on_c, 0, 62, 42
2, 182730, Note_on_c, 0, 71, 0
2, 182746, Control_c, 0, 64, 127
2, 182880, Note_on_c, 0, 61, 50
2, 182885, Note_on_c, 0, 62, 0
2, 183038, Control_c, 0, 64, 0
2, 183118, Note_on_c, 0, 59, 47
2, 183172, Note_on_c, 0, 61, 0
2, 183216, Note_on_c, 0, 71, 74
2, 183222, Control_c, 0, 64, 127
2, 183360, Control_c, 0, 64, 0
2, 183372, Note_on_c, 0, 71, 0
2, 183376, Note_on_c, 0, 74, 79
2, 183400, Note_on_c, 0, 59, 0
2, 183400, Note_on_c, 0, 54, 49
2, 183616, Note_on_c, 0, 58, 43
2, 183666, Note_on_c, 0, 54, 0
2, 183698, Control_c, 0, 64, 127
2, 183832, Note_on_c, 0, 64, 49
2, 183837, Control_c, 0, 64, 0
2, 183850, Note_on_c, 0, 58, 0
2, 183878, Note_on_c, 0, 73, 33
2, 183908, Note_on_c, 0, 74, 0
2, 184078, Note_on_c, 0, 61, 38
2, 184116, Note_on_c, 0, 64, 0
2, 184158, Control_c, 0, 64, 127
2, 184182, Note_on_c, 0, 73, 0
2, 184314, Note_on_c, 0, 59, 31
2, 184320, Note_on_c, 0, 61, 0
2, 184328, Control_c, 0, 64, 0
2, 184532, Note_on_c, 0, 58, 32
2, 184538, Note_on_c, 0, 59, 0
2, 184620, Control_c, 0, 64, 127
2, 184652, Note_on_c, 0, 73, 50
2, 184712, Control_c, 0, 64, 0
2, 184772, Note_on_c, 0, 73, 0
2, 184816, Note_on_c, 0, 76, 50
2, 184844, Note_on_c, 0, 59, 29
2, 184856, Note_on_c, 0, 58, 0
2, 185056, Note_on_c, 0, 74, 63
2, 185066, Control_c, 0, 64, 127
2, 185086, Note_on_c, 0, 76, 0
2, 185244, Note_on_c, 0, 74, 0
2, 185286, Note_on_c, 0, 77, 70
2, 185296, Control_c, 0, 64, 0
2, 185352, Note_on_c, 0, 59, 0
2, 185512, Control_c, 0, 64, 127
2, 185520, Note_on_c, 0, 76, 73
2, 185550, Note_on_c, 0, 77, 0
2, 185642, Note_on_c, 0, 76, 0
2, 185756, Control_c, 0, 64, 0
2, 185772, Note_on_c, 0, 79, 70
2, 185972, Control_c, 0, 64, 127
2, 186054, Note_on_c, 0, 77, 63
2, 186062, Note_on_c, 0, 79, 0
2, 186148, Note_on_c, 0, 77, 0
2, 186346, Note_on_c, 0, 69, 34
2, 186380, Note_on_c, 0, 52, 24
2, 186432, Control_c, 0, 64, 0
2, 186610, Note_on_c, 0, 59, 38
2, 186710, Control_c, 0, 64, 127
2, 186718, Note_on_c, 0, 52, 0
2, 186824, Note_on_c, 0, 59, 0
2, 186864, Note_on_c, 0, 64, 37
2, 186867, Note_on_c, 0, 68, 28
2, 186878, Control_c, 0, 64, 0
2, 186916, Note_on_c, 0, 69, 0
2, 187092, Note_on_c, 0, 64, 0
2, 187100, Note_on_c, 0, 62, 42
2, 187124, Control_c, 0, 64, 127
2, 187244, Note_on_c, 0, 68, 0
2, 187296, Note_on_c, 0, 62, 0
2, 187332, Note_on_c, 0, 60, 34
2, 187386, Control_c, 0, 64, 0
2, 187568, Note_on_c, 0, 59, 36
2, 187570, Note_on_c, 0, 60, 0
2, 187616, Control_c, 0, 64, 127
2, 187638, Note_on_c, 0, 68, 57
2, 187742, Note_on_c, 0, 68, 0
2, 187788, Note_on_c, 0, 59, 0
2, 187814, Note_on_c, 0, 71, 59
2, 187814, Control_c, 0, 64, 0
2, 187832, Note_on_c, 0, 52, 45
2, 188054, Note_on_c, 0, 60, 48
2, 188060, Note_on_c, 0, 52, 0
2, 188138, Control_c, 0, 64, 127
2, 188264, Note_on_c, 0, 60, 0
2, 188270, Note_on_c, 0, 64, 44
2, 188278, Control_c, 0, 64, 0
2, 188324, Note_on_c, 0, 69, 35
2, 188358, Note_on_c, 0, 71, 0
2, 188466, Note_on_c, 0, 64, 0
2, 188510, Note_on_c, 0, 60, 39
2, 188522, Control_c, 0, 64, 127
2, 188610, Note_on_c, 0, 69, 0
2, 188694, Note_on_c, 0, 60, 0
2, 188736, Note_on_c, 0, 59, 35
2, 188784, Control_c, 0, 64, 0
2, 188934, Note_on_c, 0, 59, 0
2, 188948, Note_on_c, 0, 57, 30
2, 189014, Control_c, 0, 64, 127
2, 189038, Note_on_c, 0, 69, 37
2, 189118, Note_on_c, 0, 69, 0
2, 189168, Control_c, 0, 64, 0
2, 189194, Note_on_c, 0, 57, 0
2, 189194, Note_on_c, 0, 72, 37
2, 189222, Note_on_c, 0, 52, 38
2, 189452, Note_on_c, 0, 56, 32
2, 189455, Note_on_c, 0, 52, 0
2, 189552, Control_c, 0, 64, 127
2, 189660, Note_on_c, 0, 62, 35
2, 189706, Note_on_c, 0, 56, 0
2, 189714, Note_on_c, 0, 71, 41
2, 189736, Control_c, 0, 64, 0
2, 189782, Note_on_c, 0, 72, 0
2, 189874, Note_on_c, 0, 62, 0
2, 189920, Note_on_c, 0, 59, 34
2, 189998, Control_c, 0, 64, 127
2, 190090, Control_c, 0, 64, 0
2, 190136, Note_on_c, 0, 57, 39
2, 190152, Note_on_c, 0, 59, 0
2, 190164, Note_on_c, 0, 71, 0
2, 190288, Control_c, 0, 64, 127
2, 190336, Control_c, 0, 64, 0
2, 190368, Note_on_c, 0, 57, 0
2, 190374, Note_on_c, 0, 56, 39
2, 190448, Note_on_c, 0, 71, 63
2, 190614, Note_on_c, 0, 74, 69
2, 190616, Note_on_c, 0, 71, 0
2, 190628, Note_on_c, 0, 56, 0
2, 190648, Note_on_c, 0, 57, 30
2, 190848, Note_on_c, 0, 72, 66
2, 190874, Control_c, 0, 64, 127
2, 190904, Note_on_c, 0, 74, 0
2, 191080, Note_on_c, 0, 71, 80
2, 191088, Control_c, 0, 64, 0
2, 191122, Note_on_c, 0, 72, 0
2, 191288, Control_c, 0, 64, 127
2, 191300, Note_on_c, 0, 71, 0
2, 191300, Note_on_c, 0, 69, 74
2, 191356, Note_on_c, 0, 57, 0
2, 191520, Note_on_c, 0, 69, 0
2, 191536, Note_on_c, 0, 81, 85
2, 191556, Note_on_c, 0, 55, 46
2, 191560, Note_on_c, 0, 43, 38
2, 191626, Control_c, 0, 64, 0
2, 191632, Note_on_c, 0, 81, 0
2, 191758, Note_on_c, 0, 81, 84
2, 191848, Note_on_c, 0, 55, 0
2, 191856, Control_c, 0, 64, 127
2, 191886, Note_on_c, 0, 81, 0
2, 191998, Note_on_c, 0, 83, 110
2, 192010, Note_on_c, 0, 41, 67
2, 192012, Note_on_c, 0, 43, 0
2, 192014, Note_on_c, 0, 53, 85
2, 192240, Note_on_c, 0, 81, 95
2, 192364, Note_on_c, 0, 83, 0
2, 192468, Note_on_c, 0, 79, 97
2, 192502, Control_c, 0, 64, 0
2, 192556, Note_on_c, 0, 81, 0
2, 192688, Note_on_c, 0, 77, 93
2, 192716, Control_c, 0, 64, 127
2, 192718, Note_on_c, 0, 41, 0
2, 192724, Note_on_c, 0, 53, 0
2, 192754, Note_on_c, 0, 79, 0
2, 192906, Note_on_c, 0, 76, 87
2, 192918, Control_c, 0, 64, 0
2, 192936, Note_on_c, 0, 77, 0
2, 193128, Note_on_c, 0, 75, 92
2, 193182, Note_on_c, 0, 76, 0
2, 193194, Control_c, 0, 64, 127
2, 193380, Note_on_c, 0, 84, 91
2, 193392, Note_on_c, 0, 57, 49
2, 193396, Note_on_c, 0, 53, 73
2, 193436, Note_on_c, 0, 75, 0
2, 193516, Control_c, 0, 64, 0
2, 193600, Note_on_c, 0, 56, 53
2, 193630, Note_on_c, 0, 57, 0
2, 193778, Control_c, 0, 64, 127
2, 193854, Control_c, 0, 64, 0
2, 193857, Note_on_c, 0, 57, 59
2, 193874, Note_on_c, 0, 56, 0
2, 194122, Note_on_c, 0, 57, 0
2, 194132, Note_on_c, 0, 60, 42
2, 194382, Note_on_c, 0, 60, 0
2, 194390, Note_on_c, 0, 75, 51
2, 194414, Note_on_c, 0, 59, 37
2, 194474, Note_on_c, 0, 84, 0
2, 194616, Note_on_c, 0, 59, 0
2, 194662, Note_on_c, 0, 57, 32
2, 194790, Control_c, 0, 64, 127
2, 194884, Note_on_c, 0, 53, 0
2, 194960, Control_c, 0, 64, 0
2, 195030, Note_on_c, 0, 76, 42
2, 195046, Note_on_c, 0, 56, 21
2, 195070, Note_on_c, 0, 52, 40
2, 195080, Note_on_c, 0, 57, 0
2, 195096, Note_on_c, 0, 75, 0
2, 195698, Control_c, 0, 64, 127
2, 195868, Note_on_c, 0, 56, 0
2, 196012, Note_on_c, 0, 52, 0
2, 196070, Note_on_c, 0, 76, 0
2, 196070, Note_on_c, 0, 78, 50
2, 196216, Note_on_c, 0, 78, 0
2, 196216, Note_on_c, 0, 76, 46
2, 196268, Note_on_c, 0, 76, 0
2, 196336, Note_on_c, 0, 76, 57
2, 196342, Control_c, 0, 64, 0
2, 196466, Note_on_c, 0, 74, 75
2, 196498, Note_on_c, 0, 76, 0
2, 196544, Control_c, 0, 64, 127
2, 196586, Note_on_c, 0, 73, 52
2, 196591, Note_on_c, 0, 74, 0
2, 196656, Note_on_c, 0, 71, 81
2, 196692, Note_on_c, 0, 71, 0
2, 196692, Note_on_c, 0, 73, 0
2, 196824, Note_on_c, 0, 61, 79
2, 196868, Note_on_c, 0, 64, 66
2, 196920, Note_on_c, 0, 57, 52
2, 196920, Note_on_c, 0, 45, 44
2, 196922, Note_on_c, 0, 69, 81
2, 196946, Note_on_c, 0, 61, 0
2, 196958, Control_c, 0, 64, 0
2, 197140, Note_on_c, 0, 64, 0
2, 197542, Control_c, 0, 64, 127
2, 197594, Note_on_c, 0, 57, 0
2, 197700, Note_on_c, 0, 45, 0
2, 197904, Note_on_c, 0, 64, 76
2, 197920, Note_on_c, 0, 69, 0
2, 197920, Note_on_c, 0, 52, 65
2, 197926, Note_on_c, 0, 40, 67
2, 197926, Control_c, 0, 64, 0
2, 198078, Note_on_c, 0, 40, 0
2, 198096, Note_on_c, 0, 52, 0
2, 198096, Control_c, 0, 64, 127
2, 198382, Note_on_c, 0, 64, 0
2, 198388, Note_on_c, 0, 73, 82
2, 198396, Note_on_c, 0, 61, 58
2, 198400, Note_on_c, 0, 49, 58
2, 198418, Control_c, 0, 64, 0
2, 198664, Note_on_c, 0, 74, 74
2, 198694, Control_c, 0, 64, 127
2, 198696, Note_on_c, 0, 61, 0
2, 198710, Note_on_c, 0, 73, 0
2, 198768, Note_on_c, 0, 71, 74
2, 198786, Control_c, 0, 64, 0
2, 198808, Note_on_c, 0, 74, 0
2, 198878, Note_on_c, 0, 49, 0
2, 198886, Note_on_c, 0, 71, 0
2, 198886, Note_on_c, 0, 57, 23
2, 198896, Note_on_c, 0, 69, 61
2, 198908, Note_on_c, 0, 45, 26
2, 199274, Note_on_c, 0, 57, 0
2, 199294, Control_c, 0, 64, 127
2, 199314, Note_on_c, 0, 45, 0
2, 199362, Note_on_c, 0, 69, 0
2, 199416, Control_c, 0, 64, 0
2, 199802, Note_on_c, 0, 76, 41
2, 200016, Control_c, 0, 64, 127
2, 200078, Note_on_c, 0, 78, 36
2, 200132, Note_on_c, 0, 76, 0
2, 200162, Note_on_c, 0, 78, 0
2, 200182, Note_on_c, 0, 74, 52
2, 200304, Note_on_c, 0, 73, 62
2, 200314, Note_on_c, 0, 74, 0
2, 200368, Control_c, 0, 64, 0
2, 200630, Control_c, 0, 64, 127
2, 200752, Control_c, 0, 64, 0
2, 200792, Note_on_c, 0, 85, 63
2, 200836, Note_on_c, 0, 73, 0
2, 200836, Note_on_c, 0, 57, 26
2, 200836, Note_on_c, 0, 66, 18
2, 201000, Control_c, 0, 64, 127
2, 201058, Note_on_c, 0, 57, 0
2, 201082, Note_on_c, 0, 85, 0
2, 201282, Note_on_c, 0, 66, 0
2, 201294, Note_on_c, 0, 75, 55
2, 201310, Note_on_c, 0, 69, 21
2, 201354, Note_on_c, 0, 59, 19
2, 201476, Control_c, 0, 64, 0
2, 201720, Control_c, 0, 64, 127
2, 201814, Note_on_c, 0, 59, 0
2, 201814, Control_c, 0, 64, 0
2, 201856, Note_on_c, 0, 76, 34
2, 201858, Note_on_c, 0, 69, 0
2, 201880, Note_on_c, 0, 68, 12
2, 201902, Note_on_c, 0, 64, 19
2, 201922, Note_on_c, 0, 75, 0
2, 202366, Control_c, 0, 64, 127
2, 202378, Note_on_c, 0, 68, 0
2, 202430, Note_on_c, 0, 64, 0
2, 202760, Note_on_c, 0, 77, 38
2, 202812, Control_c, 0, 64, 0
2, 202828, Note_on_c, 0, 76, 0
2, 203072, Note_on_c, 0, 80, 31
2, 203090, Note_on_c, 0, 77, 0
2, 203304, Control_c, 0, 64, 127
2, 203320, Note_on_c, 0, 78, 42
2, 203350, Control_c, 0, 64, 0
2, 203388, Note_on_c, 0, 80, 0
2, 203488, Control_c, 0, 64, 127
2, 203558, Note_on_c, 0, 76, 37
2, 203580, Control_c, 0, 64, 0
2, 203584, Note_on_c, 0, 78, 0
2, 203702, Control_c, 0, 64, 127
2, 203778, Note_on_c, 0, 76, 0
2, 203780, Note_on_c, 0, 74, 44
2, 203782, Control_c, 0, 64, 0
2, 203904, Control_c, 0, 64, 127
2, 203998, Note_on_c, 0, 73, 39
2, 204010, Control_c, 0, 64, 0
2, 204054, Note_on_c, 0, 74, 0
2, 204148, Control_c, 0, 64, 127
2, 204222, Note_on_c, 0, 71, 51
2, 204240, Note_on_c, 0, 73, 0
2, 204256, Control_c, 0, 64, 0
2, 204380, Control_c, 0, 64, 127
2, 204456, Note_on_c, 0, 71, 0
2, 204461, Note_on_c, 0, 69, 35
2, 204502, Control_c, 0, 64, 0
2, 204524, Note_on_c, 0, 52, 23
2, 204694, Note_on_c, 0, 68, 40
2, 204710, Note_on_c, 0, 69, 0
2, 204756, Note_on_c, 0, 62, 27
2, 204916, Control_c, 0, 64, 127
2, 204940, Note_on_c, 0, 76, 38
2, 204958, Note_on_c, 0, 68, 0
2, 204962, Control_c, 0, 64, 0
2, 204984, Note_on_c, 0, 62, 0
2, 205020, Note_on_c, 0, 59, 24
2, 205154, Note_on_c, 0, 59, 0
2, 205178, Control_c, 0, 64, 127
2, 205194, Note_on_c, 0, 74, 38
2, 205210, Note_on_c, 0, 76, 0
2, 205254, Note_on_c, 0, 62, 22
2, 205362, Control_c, 0, 64, 0
2, 205368, Note_on_c, 0, 62, 0
2, 205448, Note_on_c, 0, 74, 0
2, 205474, Note_on_c, 0, 59, 26
2, 205502, Control_c, 0, 64, 127
2, 205658, Note_on_c, 0, 52, 0
2, 205700, Note_on_c, 0, 62, 35
2, 205712, Note_on_c, 0, 59, 0
2, 205936, Note_on_c, 0, 71, 63
2, 205954, Note_on_c, 0, 62, 0
2, 205988, Note_on_c, 0, 52, 34
2, 205992, Control_c, 0, 64, 0
2, 206168, Note_on_c, 0, 69, 50
2, 206176, Control_c, 0, 64, 127
2, 206181, Note_on_c, 0, 61, 36
2, 206196, Note_on_c, 0, 71, 0
2, 206238, Control_c, 0, 64, 0
2, 206392, Control_c, 0, 64, 127
2, 206400, Note_on_c, 0, 78, 60
2, 206406, Note_on_c, 0, 61, 0
2, 206408, Note_on_c, 0, 69, 0
2, 206420, Note_on_c, 0, 57, 42
2, 206438, Control_c, 0, 64, 0
2, 206626, Note_on_c, 0, 57, 0
2, 206631, Note_on_c, 0, 76, 50
2, 206635, Note_on_c, 0, 61, 39
2, 206638, Control_c, 0, 64, 127
2, 206642, Note_on_c, 0, 78, 0
2, 206726, Note_on_c, 0, 76, 0
2, 206810, Note_on_c, 0, 52, 0
2, 206828, Note_on_c, 0, 61, 0
2, 206864, Note_on_c, 0, 57, 44
2, 206976, Control_c, 0, 64, 0
2, 207082, Note_on_c, 0, 61, 46
2, 207136, Note_on_c, 0, 57, 0
2, 207222, Control_c, 0, 64, 127
2, 207314, Note_on_c, 0, 71, 74
2, 207330, Note_on_c, 0, 61, 0
2, 207348, Note_on_c, 0, 52, 61
2, 207560, Note_on_c, 0, 69, 75
2, 207574, Note_on_c, 0, 61, 51
2, 207576, Control_c, 0, 64, 0
2, 207590, Note_on_c, 0, 71, 0
2, 207760, Control_c, 0, 64, 127
2, 207816, Note_on_c, 0, 61, 0
2, 207838, Note_on_c, 0, 57, 41
2, 207841, Note_on_c, 0, 81, 82
2, 207852, Note_on_c, 0, 69, 0
2, 207852, Control_c, 0, 64, 0
2, 208066, Control_c, 0, 64, 127
2, 208086, Note_on_c, 0, 61, 45
2, 208096, Note_on_c, 0, 57, 0
2, 208128, Note_on_c, 0, 79, 78
2, 208196, Note_on_c, 0, 81, 0
2, 208220, Control_c, 0, 64, 0
2, 208332, Note_on_c, 0, 57, 48
2, 208335, Note_on_c, 0, 61, 0
2, 208374, Control_c, 0, 64, 127
2, 208380, Note_on_c, 0, 79, 0
2, 208462, Note_on_c, 0, 52, 0
2, 208544, Note_on_c, 0, 57, 0
2, 208564, Note_on_c, 0, 61, 49
2, 208696, Note_on_c, 0, 61, 0
2, 208850, Control_c, 0, 64, 0
2, 208898, Note_on_c, 0, 62, 22
2, 208906, Note_on_c, 0, 79, 64
2, 208914, Note_on_c, 0, 57, 22
2, 208932, Note_on_c, 0, 50, 23
2, 209178, Note_on_c, 0, 78, 57
2, 209204, Control_c, 0, 64, 127
2, 209222, Note_on_c, 0, 79, 0
2, 209250, Control_c, 0, 64, 0
2, 209408, Note_on_c, 0, 76, 64
2, 209450, Control_c, 0, 64, 127
2, 209453, Note_on_c, 0, 78, 0
2, 209618, Note_on_c, 0, 50, 0
2, 209634, Note_on_c, 0, 74, 74
2, 209640, Note_on_c, 0, 62, 0
2, 209642, Note_on_c, 0, 57, 0
2, 209654, Note_on_c, 0, 76, 0
2, 209680, Control_c, 0, 64, 0
2, 209870, Note_on_c, 0, 73, 64
2, 209903, Note_on_c, 0, 74, 0
2, 210100, Note_on_c, 0, 71, 76
2, 210124, Note_on_c, 0, 73, 0
2, 210366, Note_on_c, 0, 76, 53
2, 210372, Note_on_c, 0, 49, 35
2, 210428, Note_on_c, 0, 71, 0
2, 210496, Note_on_c, 0, 76, 0
2, 210512, Note_on_c, 0, 78, 51
2, 210572, Note_on_c, 0, 76, 52
2, 210610, Note_on_c, 0, 78, 0
2, 210680, Note_on_c, 0, 74, 51
2, 210694, Note_on_c, 0, 76, 0
2, 210746, Note_on_c, 0, 74, 0
2, 210760, Note_on_c, 0, 76, 75
2, 210848, Control_c, 0, 64, 127
2, 210908, Note_on_c, 0, 49, 0
2, 210968, Note_on_c, 0, 50, 42
2, 210974, Note_on_c, 0, 78, 51
2, 210986, Note_on_c, 0, 76, 0
2, 211036, Note_on_c, 0, 50, 0
2, 211182, Note_on_c, 0, 69, 41
2, 211194, Note_on_c, 0, 61, 41
2, 211208, Note_on_c, 0, 78, 0
2, 211224, Note_on_c, 0, 52, 42
2, 211308, Control_c, 0, 64, 0
2, 211648, Control_c, 0, 64, 127
2, 211738, Note_on_c, 0, 68, 44
2, 211764, Note_on_c, 0, 61, 0
2, 211770, Control_c, 0, 64, 0
2, 211772, Note_on_c, 0, 69, 0
2, 211778, Note_on_c, 0, 59, 27
2, 211954, Control_c, 0, 64, 127
2, 211982, Note_on_c, 0, 68, 0
2, 212024, Note_on_c, 0, 69, 55
2, 212108, Note_on_c, 0, 73, 59
2, 212160, Note_on_c, 0, 69, 0
2, 212182, Note_on_c, 0, 59, 0
2, 212190, Note_on_c, 0, 76, 82
2, 212200, Control_c, 0, 64, 0
2, 212212, Note_on_c, 0, 57, 35
2, 212228, Note_on_c, 0, 52, 0
2, 212246, Note_on_c, 0, 73, 0
2, 212398, Note_on_c, 0, 76, 0
2, 212452, Note_on_c, 0, 61, 47
2, 212676, Note_on_c, 0, 57, 0
2, 212692, Note_on_c, 0, 61, 0
2, 212696, Note_on_c, 0, 76, 49
2, 212718, Note_on_c, 0, 64, 35
2, 212896, Note_on_c, 0, 64, 0
2, 212906, Control_c, 0, 64, 127
2, 212944, Note_on_c, 0, 61, 35
2, 213136, Note_on_c, 0, 61, 0
2, 213168, Control_c, 0, 64, 0
2, 213171, Note_on_c, 0, 59, 26
2, 213388, Note_on_c, 0, 59, 0
2, 213402, Note_on_c, 0, 57, 32
2, 213414, Control_c, 0, 64, 127
2, 213444, Control_c, 0, 64, 0
2, 213466, Note_on_c, 0, 76, 0
2, 213620, Note_on_c, 0, 57, 0
2, 213625, Note_on_c, 0, 56, 34
2, 213636, Note_on_c, 0, 76, 59
2, 213758, Note_on_c, 0, 74, 63
2, 213780, Note_on_c, 0, 76, 0
2, 213816, Note_on_c, 0, 74, 0
2, 213852, Note_on_c, 0, 73, 53
2, 213888, Note_on_c, 0, 57, 31
2, 213896, Note_on_c, 0, 56, 0
2, 213972, Note_on_c, 0, 71, 69
2, 213978, Note_on_c, 0, 73, 0
2, 213982, Control_c, 0, 64, 127
2, 214016, Note_on_c, 0, 71, 0
2, 214088, Note_on_c, 0, 71, 68
2, 214114, Note_on_c, 0, 57, 0
2, 214130, Note_on_c, 0, 59, 36
2, 214136, Control_c, 0, 64, 0
2, 214208, Note_on_c, 0, 69, 55
2, 214236, Note_on_c, 0, 71, 0
2, 214298, Note_on_c, 0, 68, 57
2, 214332, Note_on_c, 0, 69, 0
2, 214350, Note_on_c, 0, 52, 55
2, 214378, Note_on_c, 0, 59, 0
2, 214416, Note_on_c, 0, 66, 57
2, 214454, Note_on_c, 0, 68, 0
2, 214532, Note_on_c, 0, 64, 62
2, 214536, Note_on_c, 0, 54, 58
2, 214540, Note_on_c, 0, 66, 0
2, 214564, Note_on_c, 0, 52, 0
2, 214636, Note_on_c, 0, 62, 77
2, 214652, Note_on_c, 0, 64, 0
2, 214738, Note_on_c, 0, 61, 75
2, 214754, Note_on_c, 0, 62, 0
2, 214774, Note_on_c, 0, 56, 53
2, 214792, Note_on_c, 0, 54, 0
2, 214848, Note_on_c, 0, 62, 66
2, 214864, Note_on_c, 0, 61, 0
2, 214960, Note_on_c, 0, 62, 0
2, 214968, Note_on_c, 0, 61, 72
2, 214971, Note_on_c, 0, 56, 0
2, 215004, Note_on_c, 0, 57, 43
2, 215066, Note_on_c, 0, 61, 0
2, 215088, Note_on_c, 0, 64, 72
2, 215194, Note_on_c, 0, 69, 63
2, 215204, Note_on_c, 0, 64, 0
2, 215204, Note_on_c, 0, 57, 0
2, 215214, Note_on_c, 0, 61, 46
2, 215306, Note_on_c, 0, 73, 60
2, 215320, Note_on_c, 0, 69, 0
2, 215414, Note_on_c, 0, 61, 0
2, 215438, Note_on_c, 0, 64, 49
2, 215438, Note_on_c, 0, 76, 76
2, 215470, Note_on_c, 0, 73, 0
2, 215654, Note_on_c, 0, 64, 0
2, 215664, Note_on_c, 0, 61, 52
2, 215892, Note_on_c, 0, 61, 0
2, 215902, Note_on_c, 0, 59, 51
2, 216080, Note_on_c, 0, 76, 0
2, 216122, Note_on_c, 0, 88, 80
2, 216130, Note_on_c, 0, 57, 44
2, 216136, Note_on_c, 0, 59, 0
2, 216224, Note_on_c, 0, 88, 0
2, 216358, Note_on_c, 0, 57, 0
2, 216358, Note_on_c, 0, 88, 94
2, 216360, Note_on_c, 0, 56, 46
2, 216472, Note_on_c, 0, 86, 80
2, 216530, Note_on_c, 0, 88, 0
2, 216582, Note_on_c, 0, 85, 75
2, 216604, Note_on_c, 0, 57, 44
2, 216610, Note_on_c, 0, 86, 0
2, 216614, Note_on_c, 0, 56, 0
2, 216704, Note_on_c, 0, 83, 98
2, 216724, Note_on_c, 0, 85, 0
2, 216738, Note_on_c, 0, 83, 0
2, 216826, Note_on_c, 0, 83, 82
2, 216830, Note_on_c, 0, 57, 0
2, 216844, Note_on_c, 0, 59, 41
2, 216952, Note_on_c, 0, 81, 69
2, 216988, Note_on_c, 0, 83, 0
2, 217052, Note_on_c, 0, 80, 70
2, 217072, Note_on_c, 0, 52, 59
2, 217082, Note_on_c, 0, 59, 0
2, 217086, Note_on_c, 0, 81, 0
2, 217168, Note_on_c, 0, 78, 68
2, 217204, Note_on_c, 0, 80, 0
2, 217280, Note_on_c, 0, 78, 0
2, 217280, Note_on_c, 0, 54, 59
2, 217288, Note_on_c, 0, 76, 53
2, 217292, Note_on_c, 0, 52, 0
2, 217402, Note_on_c, 0, 74, 74
2, 217414, Note_on_c, 0, 76, 0
2, 217522, Note_on_c, 0, 74, 0
2, 217522, Note_on_c, 0, 73, 65
2, 217522, Note_on_c, 0, 56, 40
2, 217528, Note_on_c, 0, 54, 0
2, 217632, Note_on_c, 0, 74, 66
2, 217642, Note_on_c, 0, 73, 0
2, 217754, Note_on_c, 0, 56, 0
2, 217768, Note_on_c, 0, 74, 0
2, 217768, Note_on_c, 0, 57, 45
2, 217768, Note_on_c, 0, 73, 65
2, 217880, Note_on_c, 0, 76, 64
2, 217888, Note_on_c, 0, 73, 0
2, 217978, Control_c, 0, 64, 127
2, 218004, Note_on_c, 0, 57, 0
2, 218006, Note_on_c, 0, 74, 67
2, 218008, Control_c, 0, 64, 0
2, 218012, Note_on_c, 0, 76, 0
2, 218078, Note_on_c, 0, 74, 0
2, 218098, Note_on_c, 0, 73, 57
2, 218218, Note_on_c, 0, 73, 0
2, 218218, Note_on_c, 0, 54, 69
2, 218224, Note_on_c, 0, 74, 84
2, 218228, Note_on_c, 0, 57, 45
2, 218350, Note_on_c, 0, 76, 63
2, 218352, Note_on_c, 0, 74, 0
2, 218392, Control_c, 0, 64, 127
2, 218420, Note_on_c, 0, 57, 0
2, 218448, Note_on_c, 0, 78, 76
2, 218456, Note_on_c, 0, 76, 0
2, 218484, Control_c, 0, 64, 0
2, 218494, Note_on_c, 0, 54, 0
2, 218562, Note_on_c, 0, 80, 78
2, 218600, Note_on_c, 0, 78, 0
2, 218674, Note_on_c, 0, 80, 0
2, 218674, Note_on_c, 0, 50, 72
2, 218680, Note_on_c, 0, 81, 85
2, 218688, Note_on_c, 0, 57, 32
2, 218714, Note_on_c, 0, 54, 43
2, 218796, Note_on_c, 0, 83, 101
2, 218802, Note_on_c, 0, 81, 0
2, 218812, Note_on_c, 0, 57, 0
2, 218822, Control_c, 0, 64, 127
2, 218908, Note_on_c, 0, 85, 79
2, 218914, Note_on_c, 0, 54, 0
2, 218926, Note_on_c, 0, 83, 0
2, 218946, Control_c, 0, 64, 0
2, 218986, Note_on_c, 0, 50, 0
2, 219024, Note_on_c, 0, 86, 84
2, 219080, Note_on_c, 0, 85, 0
2, 219146, Note_on_c, 0, 57, 47
2, 219150, Note_on_c, 0, 88, 83
2, 219162, Note_on_c, 0, 49, 39
2, 219176, Note_on_c, 0, 52, 46
2, 219181, Note_on_c, 0, 86, 0
2, 219284, Note_on_c, 0, 86, 60
2, 219334, Note_on_c, 0, 88, 0
2, 219396, Note_on_c, 0, 85, 71
2, 219406, Control_c, 0, 64, 127
2, 219416, Note_on_c, 0, 86, 0
2, 219512, Note_on_c, 0, 52, 0
2, 219524, Note_on_c, 0, 83, 95
2, 219538, Note_on_c, 0, 85, 0
2, 219542, Note_on_c, 0, 57, 0
2, 219586, Note_on_c, 0, 49, 0
2, 219630, Note_on_c, 0, 83, 0
2, 219636, Control_c, 0, 64, 0
2, 219648, Note_on_c, 0, 81, 64
2, 219750, Note_on_c, 0, 80, 68
2, 219778, Note_on_c, 0, 81, 0
2, 219870, Note_on_c, 0, 78, 67
2, 219908, Note_on_c, 0, 80, 0
2, 220006, Note_on_c, 0, 76, 56
2, 220046, Note_on_c, 0, 78, 0
2, 220126, Note_on_c, 0, 76, 0
2, 220132, Note_on_c, 0, 74, 57
2, 220264, Note_on_c, 0, 73, 47
2, 220270, Note_on_c, 0, 74, 0
2, 220408, Note_on_c, 0, 71, 56
2, 220456, Note_on_c, 0, 73, 0
2, 220474, Note_on_c, 0, 71, 0
2, 220501, Note_on_c, 0, 69, 56
2, 220628, Note_on_c, 0, 69, 0
2, 220638, Note_on_c, 0, 78, 80
2, 220640, Note_on_c, 0, 50, 41
2, 220644, Note_on_c, 0, 59, 37
2, 220716, Note_on_c, 0, 78, 0
2, 220732, Note_on_c, 0, 80, 70
2, 220802, Note_on_c, 0, 78, 66
2, 220828, Note_on_c, 0, 80, 0
2, 220898, Note_on_c, 0, 76, 60
2, 220920, Note_on_c, 0, 78, 0
2, 220958, Control_c, 0, 64, 127
2, 220976, Note_on_c, 0, 76, 0
2, 220976, Note_on_c, 0, 78, 78
2, 221008, Note_on_c, 0, 59, 0
2, 221062, Note_on_c, 0, 80, 78
2, 221126, Note_on_c, 0, 78, 0
2, 221166, Note_on_c, 0, 81, 69
2, 221202, Note_on_c, 0, 80, 0
2, 221252, Note_on_c, 0, 61, 29
2, 221266, Control_c, 0, 64, 0
2, 221292, Note_on_c, 0, 69, 62
2, 221294, Note_on_c, 0, 52, 31
2, 221296, Note_on_c, 0, 50, 0
2, 221302, Note_on_c, 0, 81, 0
2, 221710, Control_c, 0, 64, 127
2, 221760, Note_on_c, 0, 61, 0
2, 221812, Note_on_c, 0, 73, 44
2, 221820, Note_on_c, 0, 68, 37
2, 221834, Note_on_c, 0, 69, 0
2, 221848, Note_on_c, 0, 62, 30
2, 221864, Control_c, 0, 64, 0
2, 222114, Note_on_c, 0, 71, 55
2, 222124, Note_on_c, 0, 73, 0
2, 222412, Note_on_c, 0, 62, 0
2, 222430, Note_on_c, 0, 69, 36
2, 222430, Note_on_c, 0, 57, 23
2, 222442, Note_on_c, 0, 61, 42
2, 222460, Note_on_c, 0, 71, 0
2, 222500, Note_on_c, 0, 68, 0
2, 222500, Note_on_c, 0, 52, 0
2, 222772, Control_c, 0, 64, 127
2, 222810, Note_on_c, 0, 57, 0
2, 223048, Control_c, 0, 64, 0
2, 223066, Note_on_c, 0, 61, 0
2, 223074, Note_on_c, 0, 69, 0
2, 223276, Note_on_c, 0, 45, 27
2, 223570, Control_c, 0, 64, 127
2, 223680, Note_on_c, 0, 45, 0
2, 223954, Control_c, 0, 64, 0
2, 223954, End_track
0, 0, End_of_file
