0, 0, Header, 1, 6, 96
1, 0, Start_track
1, 0, Copyright_t, "Copyright  1994-2002 Mozart Music Software"
1, 0, Text_t, "Sonata I\015\012"
1, 0, Text_t, "Haydn\015\012"
1, 0, Sequencer_specific, 16, 68, 87, 77, 90, 86, 82, 83, 78, 32, 55, 46, 48, 46, 55, 46, 48
1, 0, Time_signature, 3, 2, 24, 8
1, 0, Tempo, 468750
1, 0, Key_signature, 4, "major"
1, 39168, End_track
2, 0, Start_track
2, 0, Program_c, 0, 0
2, 0, Control_c, 0, 7, 127
2, 0, Control_c, 0, 10, 64
2, 0, Note_on_c, 0, 59, 64
2, 12, Note_on_c, 0, 59, 0
2, 12, Note_on_c, 0, 64, 64
2, 24, Note_on_c, 0, 64, 0
2, 24, Note_on_c, 0, 68, 64
2, 36, Note_on_c, 0, 68, 0
2, 36, Note_on_c, 0, 71, 64
2, 177, Note_on_c, 0, 71, 0
2, 192, Note_on_c, 0, 69, 64
2, 215, Note_on_c, 0, 69, 0
2, 216, Note_on_c, 0, 68, 64
2, 239, Note_on_c, 0, 68, 0
2, 240, Note_on_c, 0, 66, 64
2, 263, Note_on_c, 0, 66, 0
2, 264, Note_on_c, 0, 64, 64
2, 287, Note_on_c, 0, 64, 0
2, 288, Note_on_c, 0, 73, 64
2, 377, Note_on_c, 0, 73, 0
2, 384, Note_on_c, 0, 75, 64
2, 473, Note_on_c, 0, 75, 0
2, 480, Note_on_c, 0, 76, 64
2, 569, Note_on_c, 0, 76, 0
2, 576, Note_on_c, 0, 71, 64
2, 665, Note_on_c, 0, 71, 0
2, 672, Note_on_c, 0, 69, 64
2, 739, Note_on_c, 0, 69, 0
2, 744, Note_on_c, 0, 66, 64
2, 767, Note_on_c, 0, 66, 0
2, 768, Note_on_c, 0, 68, 64
2, 835, Note_on_c, 0, 68, 0
2, 840, Note_on_c, 0, 64, 64
2, 863, Note_on_c, 0, 64, 0
2, 864, Note_on_c, 0, 66, 64
2, 931, Note_on_c, 0, 66, 0
2, 936, Note_on_c, 0, 63, 64
2, 959, Note_on_c, 0, 63, 0
2, 960, Note_on_c, 0, 64, 64
2, 1049, Note_on_c, 0, 64, 0
2, 1056, Note_on_c, 0, 59, 64
2, 1079, Note_on_c, 0, 59, 0
2, 1080, Note_on_c, 0, 64, 64
2, 1103, Note_on_c, 0, 64, 0
2, 1104, Note_on_c, 0, 68, 64
2, 1127, Note_on_c, 0, 68, 0
2, 1128, Note_on_c, 0, 71, 64
2, 1151, Note_on_c, 0, 71, 0
2, 1152, Note_on_c, 0, 71, 64
2, 1241, Note_on_c, 0, 71, 0
2, 1248, Note_on_c, 0, 69, 64
2, 1315, Note_on_c, 0, 69, 0
2, 1320, Note_on_c, 0, 66, 64
2, 1343, Note_on_c, 0, 66, 0
2, 1344, Note_on_c, 0, 68, 64
2, 1411, Note_on_c, 0, 68, 0
2, 1416, Note_on_c, 0, 64, 64
2, 1439, Note_on_c, 0, 64, 0
2, 1440, Note_on_c, 0, 66, 64
2, 1507, Note_on_c, 0, 66, 0
2, 1512, Note_on_c, 0, 63, 64
2, 1535, Note_on_c, 0, 63, 0
2, 1536, Note_on_c, 0, 64, 64
2, 1625, Note_on_c, 0, 64, 0
2, 1728, Note_on_c, 0, 71, 64
2, 1905, Note_on_c, 0, 71, 0
2, 1920, Note_on_c, 0, 69, 64
2, 1943, Note_on_c, 0, 69, 0
2, 1944, Note_on_c, 0, 68, 64
2, 1967, Note_on_c, 0, 68, 0
2, 1968, Note_on_c, 0, 66, 64
2, 1991, Note_on_c, 0, 66, 0
2, 1992, Note_on_c, 0, 64, 64
2, 2015, Note_on_c, 0, 64, 0
2, 2016, Note_on_c, 0, 73, 75
2, 2061, Note_on_c, 0, 73, 0
2, 2088, Note_on_c, 0, 73, 75
2, 2111, Note_on_c, 0, 73, 0
2, 2112, Note_on_c, 0, 75, 76
2, 2157, Note_on_c, 0, 75, 0
2, 2184, Note_on_c, 0, 75, 77
2, 2207, Note_on_c, 0, 75, 0
2, 2208, Note_on_c, 0, 76, 77
2, 2253, Note_on_c, 0, 76, 0
2, 2280, Note_on_c, 0, 76, 78
2, 2303, Note_on_c, 0, 76, 0
2, 2304, Note_on_c, 0, 71, 78
2, 2393, Note_on_c, 0, 71, 0
2, 2400, Note_on_c, 0, 81, 80
2, 2400, Note_on_c, 0, 78, 80
2, 2489, Note_on_c, 0, 81, 0
2, 2489, Note_on_c, 0, 78, 0
2, 2496, Note_on_c, 0, 80, 80
2, 2496, Note_on_c, 0, 76, 80
2, 2585, Note_on_c, 0, 80, 0
2, 2585, Note_on_c, 0, 76, 0
2, 2592, Note_on_c, 0, 81, 80
2, 2615, Note_on_c, 0, 81, 0
2, 2616, Note_on_c, 0, 80, 80
2, 2639, Note_on_c, 0, 80, 0
2, 2640, Note_on_c, 0, 78, 80
2, 2663, Note_on_c, 0, 78, 0
2, 2664, Note_on_c, 0, 80, 80
2, 2687, Note_on_c, 0, 80, 0
2, 2688, Note_on_c, 0, 78, 80
2, 2688, Note_on_c, 0, 75, 80
2, 2777, Note_on_c, 0, 78, 0
2, 2777, Note_on_c, 0, 75, 0
2, 2880, Note_on_c, 0, 78, 75
2, 3057, Note_on_c, 0, 78, 0
2, 3072, Note_on_c, 0, 83, 75
2, 3095, Note_on_c, 0, 83, 0
2, 3096, Note_on_c, 0, 82, 75
2, 3119, Note_on_c, 0, 82, 0
2, 3120, Note_on_c, 0, 80, 75
2, 3143, Note_on_c, 0, 80, 0
2, 3144, Note_on_c, 0, 78, 75
2, 3167, Note_on_c, 0, 78, 0
2, 3168, Note_on_c, 0, 78, 75
2, 3216, Note_on_c, 0, 78, 0
2, 3216, Note_on_c, 0, 76, 75
2, 3261, Note_on_c, 0, 76, 0
2, 3312, Note_on_c, 0, 73, 75
2, 3357, Note_on_c, 0, 73, 0
2, 3408, Note_on_c, 0, 75, 75
2, 3453, Note_on_c, 0, 75, 0
2, 3456, Note_on_c, 0, 73, 75
2, 3575, Note_on_c, 0, 73, 0
2, 3576, Note_on_c, 0, 75, 75
2, 3599, Note_on_c, 0, 75, 0
2, 3600, Note_on_c, 0, 76, 75
2, 3623, Note_on_c, 0, 76, 0
2, 3624, Note_on_c, 0, 75, 75
2, 3647, Note_on_c, 0, 75, 0
2, 3648, Note_on_c, 0, 78, 75
2, 3671, Note_on_c, 0, 78, 0
2, 3672, Note_on_c, 0, 76, 75
2, 3695, Note_on_c, 0, 76, 0
2, 3696, Note_on_c, 0, 75, 75
2, 3719, Note_on_c, 0, 75, 0
2, 3720, Note_on_c, 0, 73, 75
2, 3743, Note_on_c, 0, 73, 0
2, 3744, Note_on_c, 0, 71, 75
2, 3936, Note_on_c, 0, 71, 0
2, 3936, Note_on_c, 0, 70, 75
2, 4025, Note_on_c, 0, 70, 0
2, 4032, Note_on_c, 0, 80, 75
2, 4050, Note_on_c, 0, 80, 0
2, 4050, Note_on_c, 0, 78, 75
2, 4209, Note_on_c, 0, 78, 0
2, 4224, Note_on_c, 0, 76, 75
2, 4247, Note_on_c, 0, 76, 0
2, 4248, Note_on_c, 0, 75, 75
2, 4271, Note_on_c, 0, 75, 0
2, 4272, Note_on_c, 0, 73, 75
2, 4295, Note_on_c, 0, 73, 0
2, 4296, Note_on_c, 0, 71, 75
2, 4319, Note_on_c, 0, 71, 0
2, 4320, Note_on_c, 0, 80, 75
2, 4365, Note_on_c, 0, 80, 0
2, 4368, Note_on_c, 0, 76, 75
2, 4413, Note_on_c, 0, 76, 0
2, 4464, Note_on_c, 0, 85, 75
2, 4484, Note_on_c, 0, 85, 0
2, 4560, Note_on_c, 0, 82, 75
2, 4580, Note_on_c, 0, 82, 0
2, 4656, Note_on_c, 0, 82, 75
2, 4704, Note_on_c, 0, 82, 0
2, 4704, Note_on_c, 0, 83, 75
2, 4749, Note_on_c, 0, 83, 0
2, 4752, Note_on_c, 0, 78, 75
2, 4797, Note_on_c, 0, 78, 0
2, 4800, Note_on_c, 0, 75, 75
2, 4845, Note_on_c, 0, 75, 0
2, 4848, Note_on_c, 0, 71, 75
2, 4893, Note_on_c, 0, 71, 0
2, 4896, Note_on_c, 0, 80, 75
2, 4941, Note_on_c, 0, 80, 0
2, 4944, Note_on_c, 0, 76, 75
2, 4989, Note_on_c, 0, 76, 0
2, 5040, Note_on_c, 0, 85, 75
2, 5060, Note_on_c, 0, 85, 0
2, 5136, Note_on_c, 0, 82, 75
2, 5156, Note_on_c, 0, 82, 0
2, 5232, Note_on_c, 0, 82, 75
2, 5280, Note_on_c, 0, 82, 0
2, 5280, Note_on_c, 0, 83, 75
2, 5325, Note_on_c, 0, 83, 0
2, 5328, Note_on_c, 0, 78, 75
2, 5373, Note_on_c, 0, 78, 0
2, 5376, Note_on_c, 0, 75, 75
2, 5421, Note_on_c, 0, 75, 0
2, 5424, Note_on_c, 0, 71, 75
2, 5469, Note_on_c, 0, 71, 0
2, 5520, Note_on_c, 0, 72, 75
2, 5568, Note_on_c, 0, 72, 0
2, 5568, Note_on_c, 0, 73, 75
2, 5613, Note_on_c, 0, 73, 0
2, 5616, Note_on_c, 0, 75, 75
2, 5661, Note_on_c, 0, 75, 0
2, 5664, Note_on_c, 0, 76, 75
2, 5709, Note_on_c, 0, 76, 0
2, 5712, Note_on_c, 0, 80, 75
2, 5757, Note_on_c, 0, 80, 0
2, 5760, Note_on_c, 0, 78, 75
2, 5827, Note_on_c, 0, 78, 0
2, 5832, Note_on_c, 0, 80, 75
2, 5855, Note_on_c, 0, 80, 0
2, 5856, Note_on_c, 0, 71, 75
2, 5945, Note_on_c, 0, 71, 0
2, 5952, Note_on_c, 0, 70, 75
2, 6041, Note_on_c, 0, 70, 0
2, 6048, Note_on_c, 0, 77, 80
2, 6060, Note_on_c, 0, 77, 0
2, 6060, Note_on_c, 0, 78, 80
2, 6072, Note_on_c, 0, 78, 0
2, 6072, Note_on_c, 0, 80, 80
2, 6084, Note_on_c, 0, 80, 0
2, 6084, Note_on_c, 0, 78, 80
2, 6225, Note_on_c, 0, 78, 0
2, 6240, Note_on_c, 0, 76, 80
2, 6263, Note_on_c, 0, 76, 0
2, 6264, Note_on_c, 0, 75, 80
2, 6287, Note_on_c, 0, 75, 0
2, 6288, Note_on_c, 0, 73, 80
2, 6311, Note_on_c, 0, 73, 0
2, 6312, Note_on_c, 0, 71, 80
2, 6335, Note_on_c, 0, 71, 0
2, 6336, Note_on_c, 0, 80, 80
2, 6499, Note_on_c, 0, 80, 0
2, 6504, Note_on_c, 0, 76, 80
2, 6516, Note_on_c, 0, 76, 0
2, 6516, Note_on_c, 0, 85, 80
2, 6528, Note_on_c, 0, 85, 0
2, 6528, Note_on_c, 0, 82, 80
2, 6595, Note_on_c, 0, 82, 0
2, 6600, Note_on_c, 0, 78, 80
2, 6612, Note_on_c, 0, 78, 0
2, 6612, Note_on_c, 0, 82, 80
2, 6624, Note_on_c, 0, 82, 0
2, 6624, Note_on_c, 0, 83, 80
2, 6647, Note_on_c, 0, 83, 0
2, 6648, Note_on_c, 0, 82, 80
2, 6671, Note_on_c, 0, 82, 0
2, 6672, Note_on_c, 0, 80, 80
2, 6695, Note_on_c, 0, 80, 0
2, 6696, Note_on_c, 0, 78, 80
2, 6719, Note_on_c, 0, 78, 0
2, 6720, Note_on_c, 0, 76, 80
2, 6743, Note_on_c, 0, 76, 0
2, 6744, Note_on_c, 0, 75, 80
2, 6767, Note_on_c, 0, 75, 0
2, 6768, Note_on_c, 0, 73, 80
2, 6791, Note_on_c, 0, 73, 0
2, 6792, Note_on_c, 0, 71, 80
2, 6815, Note_on_c, 0, 71, 0
2, 6816, Note_on_c, 0, 70, 80
2, 6839, Note_on_c, 0, 70, 0
2, 6840, Note_on_c, 0, 71, 80
2, 6863, Note_on_c, 0, 71, 0
2, 6864, Note_on_c, 0, 70, 80
2, 6887, Note_on_c, 0, 70, 0
2, 6888, Note_on_c, 0, 71, 80
2, 6911, Note_on_c, 0, 71, 0
2, 6912, Note_on_c, 0, 80, 80
2, 7075, Note_on_c, 0, 80, 0
2, 7080, Note_on_c, 0, 76, 80
2, 7092, Note_on_c, 0, 76, 0
2, 7092, Note_on_c, 0, 85, 80
2, 7104, Note_on_c, 0, 85, 0
2, 7104, Note_on_c, 0, 82, 80
2, 7171, Note_on_c, 0, 82, 0
2, 7176, Note_on_c, 0, 78, 80
2, 7188, Note_on_c, 0, 78, 0
2, 7188, Note_on_c, 0, 82, 80
2, 7200, Note_on_c, 0, 82, 0
2, 7200, Note_on_c, 0, 83, 80
2, 7223, Note_on_c, 0, 83, 0
2, 7224, Note_on_c, 0, 78, 80
2, 7247, Note_on_c, 0, 78, 0
2, 7248, Note_on_c, 0, 80, 80
2, 7271, Note_on_c, 0, 80, 0
2, 7272, Note_on_c, 0, 82, 80
2, 7295, Note_on_c, 0, 82, 0
2, 7296, Note_on_c, 0, 83, 80
2, 7319, Note_on_c, 0, 83, 0
2, 7320, Note_on_c, 0, 82, 80
2, 7343, Note_on_c, 0, 82, 0
2, 7344, Note_on_c, 0, 80, 80
2, 7367, Note_on_c, 0, 80, 0
2, 7368, Note_on_c, 0, 78, 80
2, 7391, Note_on_c, 0, 78, 0
2, 7392, Note_on_c, 0, 76, 80
2, 7415, Note_on_c, 0, 76, 0
2, 7416, Note_on_c, 0, 75, 80
2, 7439, Note_on_c, 0, 75, 0
2, 7440, Note_on_c, 0, 73, 80
2, 7463, Note_on_c, 0, 73, 0
2, 7464, Note_on_c, 0, 71, 80
2, 7487, Note_on_c, 0, 71, 0
2, 7488, Note_on_c, 0, 73, 75
2, 7511, Note_on_c, 0, 73, 0
2, 7512, Note_on_c, 0, 75, 76
2, 7535, Note_on_c, 0, 75, 0
2, 7536, Note_on_c, 0, 76, 77
2, 7559, Note_on_c, 0, 76, 0
2, 7560, Note_on_c, 0, 78, 78
2, 7583, Note_on_c, 0, 78, 0
2, 7584, Note_on_c, 0, 80, 80
2, 7607, Note_on_c, 0, 80, 0
2, 7608, Note_on_c, 0, 78, 78
2, 7631, Note_on_c, 0, 78, 0
2, 7632, Note_on_c, 0, 76, 77
2, 7655, Note_on_c, 0, 76, 0
2, 7656, Note_on_c, 0, 75, 76
2, 7679, Note_on_c, 0, 75, 0
2, 7680, Note_on_c, 0, 73, 75
2, 7703, Note_on_c, 0, 73, 0
2, 7704, Note_on_c, 0, 71, 75
2, 7727, Note_on_c, 0, 71, 0
2, 7728, Note_on_c, 0, 70, 75
2, 7751, Note_on_c, 0, 70, 0
2, 7752, Note_on_c, 0, 68, 75
2, 7775, Note_on_c, 0, 68, 0
2, 7776, Note_on_c, 0, 66, 75
2, 7865, Note_on_c, 0, 66, 0
2, 7872, Note_on_c, 0, 71, 75
2, 7961, Note_on_c, 0, 71, 0
2, 7968, Note_on_c, 0, 70, 75
2, 8057, Note_on_c, 0, 70, 0
2, 8064, Note_on_c, 0, 70, 75
2, 8160, Note_on_c, 0, 70, 0
2, 8160, Note_on_c, 0, 71, 75
2, 8241, Note_on_c, 0, 71, 0
2, 8352, Note_on_c, 0, 59, 64
2, 8364, Note_on_c, 0, 59, 0
2, 8364, Note_on_c, 0, 64, 64
2, 8376, Note_on_c, 0, 64, 0
2, 8376, Note_on_c, 0, 68, 64
2, 8388, Note_on_c, 0, 68, 0
2, 8388, Note_on_c, 0, 71, 64
2, 8529, Note_on_c, 0, 71, 0
2, 8544, Note_on_c, 0, 69, 64
2, 8567, Note_on_c, 0, 69, 0
2, 8568, Note_on_c, 0, 68, 64
2, 8591, Note_on_c, 0, 68, 0
2, 8592, Note_on_c, 0, 66, 64
2, 8615, Note_on_c, 0, 66, 0
2, 8616, Note_on_c, 0, 64, 64
2, 8639, Note_on_c, 0, 64, 0
2, 8640, Note_on_c, 0, 73, 64
2, 8729, Note_on_c, 0, 73, 0
2, 8736, Note_on_c, 0, 75, 64
2, 8825, Note_on_c, 0, 75, 0
2, 8832, Note_on_c, 0, 76, 64
2, 8921, Note_on_c, 0, 76, 0
2, 8928, Note_on_c, 0, 71, 64
2, 9017, Note_on_c, 0, 71, 0
2, 9024, Note_on_c, 0, 69, 64
2, 9091, Note_on_c, 0, 69, 0
2, 9096, Note_on_c, 0, 66, 64
2, 9119, Note_on_c, 0, 66, 0
2, 9120, Note_on_c, 0, 68, 64
2, 9187, Note_on_c, 0, 68, 0
2, 9192, Note_on_c, 0, 64, 64
2, 9215, Note_on_c, 0, 64, 0
2, 9216, Note_on_c, 0, 66, 64
2, 9283, Note_on_c, 0, 66, 0
2, 9288, Note_on_c, 0, 63, 64
2, 9311, Note_on_c, 0, 63, 0
2, 9312, Note_on_c, 0, 64, 64
2, 9401, Note_on_c, 0, 64, 0
2, 9408, Note_on_c, 0, 59, 64
2, 9431, Note_on_c, 0, 59, 0
2, 9432, Note_on_c, 0, 64, 64
2, 9455, Note_on_c, 0, 64, 0
2, 9456, Note_on_c, 0, 68, 64
2, 9479, Note_on_c, 0, 68, 0
2, 9480, Note_on_c, 0, 71, 64
2, 9503, Note_on_c, 0, 71, 0
2, 9504, Note_on_c, 0, 71, 64
2, 9593, Note_on_c, 0, 71, 0
2, 9600, Note_on_c, 0, 69, 64
2, 9667, Note_on_c, 0, 69, 0
2, 9672, Note_on_c, 0, 66, 64
2, 9695, Note_on_c, 0, 66, 0
2, 9696, Note_on_c, 0, 68, 64
2, 9763, Note_on_c, 0, 68, 0
2, 9768, Note_on_c, 0, 64, 64
2, 9791, Note_on_c, 0, 64, 0
2, 9792, Note_on_c, 0, 66, 64
2, 9859, Note_on_c, 0, 66, 0
2, 9864, Note_on_c, 0, 63, 64
2, 9887, Note_on_c, 0, 63, 0
2, 9888, Note_on_c, 0, 64, 64
2, 9977, Note_on_c, 0, 64, 0
2, 10080, Note_on_c, 0, 71, 64
2, 10257, Note_on_c, 0, 71, 0
2, 10272, Note_on_c, 0, 69, 64
2, 10295, Note_on_c, 0, 69, 0
2, 10296, Note_on_c, 0, 68, 64
2, 10319, Note_on_c, 0, 68, 0
2, 10320, Note_on_c, 0, 66, 64
2, 10343, Note_on_c, 0, 66, 0
2, 10344, Note_on_c, 0, 64, 64
2, 10367, Note_on_c, 0, 64, 0
2, 10368, Note_on_c, 0, 73, 75
2, 10413, Note_on_c, 0, 73, 0
2, 10440, Note_on_c, 0, 73, 75
2, 10463, Note_on_c, 0, 73, 0
2, 10464, Note_on_c, 0, 75, 76
2, 10509, Note_on_c, 0, 75, 0
2, 10536, Note_on_c, 0, 75, 77
2, 10559, Note_on_c, 0, 75, 0
2, 10560, Note_on_c, 0, 76, 77
2, 10605, Note_on_c, 0, 76, 0
2, 10632, Note_on_c, 0, 76, 78
2, 10655, Note_on_c, 0, 76, 0
2, 10656, Note_on_c, 0, 71, 78
2, 10745, Note_on_c, 0, 71, 0
2, 10752, Note_on_c, 0, 81, 80
2, 10752, Note_on_c, 0, 78, 80
2, 10841, Note_on_c, 0, 81, 0
2, 10841, Note_on_c, 0, 78, 0
2, 10848, Note_on_c, 0, 80, 80
2, 10848, Note_on_c, 0, 76, 80
2, 10937, Note_on_c, 0, 80, 0
2, 10937, Note_on_c, 0, 76, 0
2, 10944, Note_on_c, 0, 81, 80
2, 10967, Note_on_c, 0, 81, 0
2, 10968, Note_on_c, 0, 80, 80
2, 10991, Note_on_c, 0, 80, 0
2, 10992, Note_on_c, 0, 78, 80
2, 11015, Note_on_c, 0, 78, 0
2, 11016, Note_on_c, 0, 80, 80
2, 11039, Note_on_c, 0, 80, 0
2, 11040, Note_on_c, 0, 78, 80
2, 11040, Note_on_c, 0, 75, 80
2, 11129, Note_on_c, 0, 78, 0
2, 11129, Note_on_c, 0, 75, 0
2, 11232, Note_on_c, 0, 78, 75
2, 11409, Note_on_c, 0, 78, 0
2, 11424, Note_on_c, 0, 83, 75
2, 11447, Note_on_c, 0, 83, 0
2, 11448, Note_on_c, 0, 82, 75
2, 11471, Note_on_c, 0, 82, 0
2, 11472, Note_on_c, 0, 80, 75
2, 11495, Note_on_c, 0, 80, 0
2, 11496, Note_on_c, 0, 78, 75
2, 11519, Note_on_c, 0, 78, 0
2, 11520, Note_on_c, 0, 78, 75
2, 11568, Note_on_c, 0, 78, 0
2, 11568, Note_on_c, 0, 76, 75
2, 11613, Note_on_c, 0, 76, 0
2, 11664, Note_on_c, 0, 73, 75
2, 11709, Note_on_c, 0, 73, 0
2, 11760, Note_on_c, 0, 75, 75
2, 11805, Note_on_c, 0, 75, 0
2, 11808, Note_on_c, 0, 73, 75
2, 11927, Note_on_c, 0, 73, 0
2, 11928, Note_on_c, 0, 75, 75
2, 11951, Note_on_c, 0, 75, 0
2, 11952, Note_on_c, 0, 76, 75
2, 11975, Note_on_c, 0, 76, 0
2, 11976, Note_on_c, 0, 75, 75
2, 11999, Note_on_c, 0, 75, 0
2, 12000, Note_on_c, 0, 78, 75
2, 12023, Note_on_c, 0, 78, 0
2, 12024, Note_on_c, 0, 76, 75
2, 12047, Note_on_c, 0, 76, 0
2, 12048, Note_on_c, 0, 75, 75
2, 12071, Note_on_c, 0, 75, 0
2, 12072, Note_on_c, 0, 73, 75
2, 12095, Note_on_c, 0, 73, 0
2, 12096, Note_on_c, 0, 71, 75
2, 12288, Note_on_c, 0, 71, 0
2, 12288, Note_on_c, 0, 70, 75
2, 12377, Note_on_c, 0, 70, 0
2, 12384, Note_on_c, 0, 80, 75
2, 12402, Note_on_c, 0, 80, 0
2, 12402, Note_on_c, 0, 78, 75
2, 12561, Note_on_c, 0, 78, 0
2, 12576, Note_on_c, 0, 76, 75
2, 12599, Note_on_c, 0, 76, 0
2, 12600, Note_on_c, 0, 75, 75
2, 12623, Note_on_c, 0, 75, 0
2, 12624, Note_on_c, 0, 73, 75
2, 12647, Note_on_c, 0, 73, 0
2, 12648, Note_on_c, 0, 71, 75
2, 12671, Note_on_c, 0, 71, 0
2, 12672, Note_on_c, 0, 80, 75
2, 12717, Note_on_c, 0, 80, 0
2, 12720, Note_on_c, 0, 76, 75
2, 12765, Note_on_c, 0, 76, 0
2, 12816, Note_on_c, 0, 85, 75
2, 12836, Note_on_c, 0, 85, 0
2, 12912, Note_on_c, 0, 82, 75
2, 12932, Note_on_c, 0, 82, 0
2, 13008, Note_on_c, 0, 82, 75
2, 13056, Note_on_c, 0, 82, 0
2, 13056, Note_on_c, 0, 83, 75
2, 13101, Note_on_c, 0, 83, 0
2, 13104, Note_on_c, 0, 78, 75
2, 13149, Note_on_c, 0, 78, 0
2, 13152, Note_on_c, 0, 75, 75
2, 13197, Note_on_c, 0, 75, 0
2, 13200, Note_on_c, 0, 71, 75
2, 13245, Note_on_c, 0, 71, 0
2, 13248, Note_on_c, 0, 80, 75
2, 13293, Note_on_c, 0, 80, 0
2, 13296, Note_on_c, 0, 76, 75
2, 13341, Note_on_c, 0, 76, 0
2, 13392, Note_on_c, 0, 85, 75
2, 13412, Note_on_c, 0, 85, 0
2, 13488, Note_on_c, 0, 82, 75
2, 13508, Note_on_c, 0, 82, 0
2, 13584, Note_on_c, 0, 82, 75
2, 13632, Note_on_c, 0, 82, 0
2, 13632, Note_on_c, 0, 83, 75
2, 13677, Note_on_c, 0, 83, 0
2, 13680, Note_on_c, 0, 78, 75
2, 13725, Note_on_c, 0, 78, 0
2, 13728, Note_on_c, 0, 75, 75
2, 13773, Note_on_c, 0, 75, 0
2, 13776, Note_on_c, 0, 71, 75
2, 13821, Note_on_c, 0, 71, 0
2, 13872, Note_on_c, 0, 72, 75
2, 13920, Note_on_c, 0, 72, 0
2, 13920, Note_on_c, 0, 73, 75
2, 13965, Note_on_c, 0, 73, 0
2, 13968, Note_on_c, 0, 75, 75
2, 14013, Note_on_c, 0, 75, 0
2, 14016, Note_on_c, 0, 76, 75
2, 14061, Note_on_c, 0, 76, 0
2, 14064, Note_on_c, 0, 80, 75
2, 14109, Note_on_c, 0, 80, 0
2, 14112, Note_on_c, 0, 78, 75
2, 14179, Note_on_c, 0, 78, 0
2, 14184, Note_on_c, 0, 80, 75
2, 14207, Note_on_c, 0, 80, 0
2, 14208, Note_on_c, 0, 71, 75
2, 14297, Note_on_c, 0, 71, 0
2, 14304, Note_on_c, 0, 70, 75
2, 14393, Note_on_c, 0, 70, 0
2, 14400, Note_on_c, 0, 77, 80
2, 14412, Note_on_c, 0, 77, 0
2, 14412, Note_on_c, 0, 78, 80
2, 14424, Note_on_c, 0, 78, 0
2, 14424, Note_on_c, 0, 80, 80
2, 14436, Note_on_c, 0, 80, 0
2, 14436, Note_on_c, 0, 78, 80
2, 14577, Note_on_c, 0, 78, 0
2, 14592, Note_on_c, 0, 76, 80
2, 14615, Note_on_c, 0, 76, 0
2, 14616, Note_on_c, 0, 75, 80
2, 14639, Note_on_c, 0, 75, 0
2, 14640, Note_on_c, 0, 73, 80
2, 14663, Note_on_c, 0, 73, 0
2, 14664, Note_on_c, 0, 71, 80
2, 14687, Note_on_c, 0, 71, 0
2, 14688, Note_on_c, 0, 80, 80
2, 14851, Note_on_c, 0, 80, 0
2, 14856, Note_on_c, 0, 76, 80
2, 14868, Note_on_c, 0, 76, 0
2, 14868, Note_on_c, 0, 85, 80
2, 14880, Note_on_c, 0, 85, 0
2, 14880, Note_on_c, 0, 82, 80
2, 14947, Note_on_c, 0, 82, 0
2, 14952, Note_on_c, 0, 78, 80
2, 14964, Note_on_c, 0, 78, 0
2, 14964, Note_on_c, 0, 82, 80
2, 14976, Note_on_c, 0, 82, 0
2, 14976, Note_on_c, 0, 83, 80
2, 14999, Note_on_c, 0, 83, 0
2, 15000, Note_on_c, 0, 82, 80
2, 15023, Note_on_c, 0, 82, 0
2, 15024, Note_on_c, 0, 80, 80
2, 15047, Note_on_c, 0, 80, 0
2, 15048, Note_on_c, 0, 78, 80
2, 15071, Note_on_c, 0, 78, 0
2, 15072, Note_on_c, 0, 76, 80
2, 15095, Note_on_c, 0, 76, 0
2, 15096, Note_on_c, 0, 75, 80
2, 15119, Note_on_c, 0, 75, 0
2, 15120, Note_on_c, 0, 73, 80
2, 15143, Note_on_c, 0, 73, 0
2, 15144, Note_on_c, 0, 71, 80
2, 15167, Note_on_c, 0, 71, 0
2, 15168, Note_on_c, 0, 70, 80
2, 15191, Note_on_c, 0, 70, 0
2, 15192, Note_on_c, 0, 71, 80
2, 15215, Note_on_c, 0, 71, 0
2, 15216, Note_on_c, 0, 70, 80
2, 15239, Note_on_c, 0, 70, 0
2, 15240, Note_on_c, 0, 71, 80
2, 15263, Note_on_c, 0, 71, 0
2, 15264, Note_on_c, 0, 80, 80
2, 15427, Note_on_c, 0, 80, 0
2, 15432, Note_on_c, 0, 76, 80
2, 15444, Note_on_c, 0, 76, 0
2, 15444, Note_on_c, 0, 85, 80
2, 15456, Note_on_c, 0, 85, 0
2, 15456, Note_on_c, 0, 82, 80
2, 15523, Note_on_c, 0, 82, 0
2, 15528, Note_on_c, 0, 78, 80
2, 15540, Note_on_c, 0, 78, 0
2, 15540, Note_on_c, 0, 82, 80
2, 15552, Note_on_c, 0, 82, 0
2, 15552, Note_on_c, 0, 83, 80
2, 15575, Note_on_c, 0, 83, 0
2, 15576, Note_on_c, 0, 78, 80
2, 15599, Note_on_c, 0, 78, 0
2, 15600, Note_on_c, 0, 80, 80
2, 15623, Note_on_c, 0, 80, 0
2, 15624, Note_on_c, 0, 82, 80
2, 15647, Note_on_c, 0, 82, 0
2, 15648, Note_on_c, 0, 83, 80
2, 15671, Note_on_c, 0, 83, 0
2, 15672, Note_on_c, 0, 82, 80
2, 15695, Note_on_c, 0, 82, 0
2, 15696, Note_on_c, 0, 80, 80
2, 15719, Note_on_c, 0, 80, 0
2, 15720, Note_on_c, 0, 78, 80
2, 15743, Note_on_c, 0, 78, 0
2, 15744, Note_on_c, 0, 76, 80
2, 15767, Note_on_c, 0, 76, 0
2, 15768, Note_on_c, 0, 75, 80
2, 15791, Note_on_c, 0, 75, 0
2, 15792, Note_on_c, 0, 73, 80
2, 15815, Note_on_c, 0, 73, 0
2, 15816, Note_on_c, 0, 71, 80
2, 15839, Note_on_c, 0, 71, 0
2, 15840, Note_on_c, 0, 73, 75
2, 15863, Note_on_c, 0, 73, 0
2, 15864, Note_on_c, 0, 75, 76
2, 15887, Note_on_c, 0, 75, 0
2, 15888, Note_on_c, 0, 76, 77
2, 15911, Note_on_c, 0, 76, 0
2, 15912, Note_on_c, 0, 78, 78
2, 15935, Note_on_c, 0, 78, 0
2, 15936, Note_on_c, 0, 80, 80
2, 15959, Note_on_c, 0, 80, 0
2, 15960, Note_on_c, 0, 78, 78
2, 15983, Note_on_c, 0, 78, 0
2, 15984, Note_on_c, 0, 76, 77
2, 16007, Note_on_c, 0, 76, 0
2, 16008, Note_on_c, 0, 75, 76
2, 16031, Note_on_c, 0, 75, 0
2, 16032, Note_on_c, 0, 73, 75
2, 16055, Note_on_c, 0, 73, 0
2, 16056, Note_on_c, 0, 71, 75
2, 16079, Note_on_c, 0, 71, 0
2, 16080, Note_on_c, 0, 70, 75
2, 16103, Note_on_c, 0, 70, 0
2, 16104, Note_on_c, 0, 68, 75
2, 16127, Note_on_c, 0, 68, 0
2, 16128, Note_on_c, 0, 66, 75
2, 16217, Note_on_c, 0, 66, 0
2, 16224, Note_on_c, 0, 71, 75
2, 16313, Note_on_c, 0, 71, 0
2, 16320, Note_on_c, 0, 70, 75
2, 16409, Note_on_c, 0, 70, 0
2, 16416, Note_on_c, 0, 70, 75
2, 16512, Note_on_c, 0, 70, 0
2, 16512, Note_on_c, 0, 71, 75
2, 16593, Note_on_c, 0, 71, 0
2, 16704, Note_on_c, 0, 59, 75
2, 16716, Note_on_c, 0, 59, 0
2, 16716, Note_on_c, 0, 63, 75
2, 16728, Note_on_c, 0, 63, 0
2, 16728, Note_on_c, 0, 66, 75
2, 16881, Note_on_c, 0, 66, 0
2, 16896, Note_on_c, 0, 64, 75
2, 16919, Note_on_c, 0, 64, 0
2, 16920, Note_on_c, 0, 63, 75
2, 16943, Note_on_c, 0, 63, 0
2, 16944, Note_on_c, 0, 61, 75
2, 16967, Note_on_c, 0, 61, 0
2, 16968, Note_on_c, 0, 59, 75
2, 16991, Note_on_c, 0, 59, 0
2, 16992, Note_on_c, 0, 69, 75
2, 16992, Note_on_c, 0, 63, 75
2, 17081, Note_on_c, 0, 69, 0
2, 17081, Note_on_c, 0, 63, 0
2, 17088, Note_on_c, 0, 68, 75
2, 17088, Note_on_c, 0, 64, 75
2, 17182, Note_on_c, 0, 68, 0
2, 17182, Note_on_c, 0, 64, 0
2, 17328, Note_on_c, 0, 73, 75
2, 17373, Note_on_c, 0, 73, 0
2, 17376, Note_on_c, 0, 71, 75
2, 17421, Note_on_c, 0, 71, 0
2, 17424, Note_on_c, 0, 69, 75
2, 17469, Note_on_c, 0, 69, 0
2, 17472, Note_on_c, 0, 68, 75
2, 17517, Note_on_c, 0, 68, 0
2, 17520, Note_on_c, 0, 66, 75
2, 17565, Note_on_c, 0, 66, 0
2, 17568, Note_on_c, 0, 64, 75
2, 17657, Note_on_c, 0, 64, 0
2, 17664, Note_on_c, 0, 63, 75
2, 17753, Note_on_c, 0, 63, 0
2, 17760, Note_on_c, 0, 64, 75
2, 17849, Note_on_c, 0, 64, 0
2, 17856, Note_on_c, 0, 66, 75
2, 17923, Note_on_c, 0, 66, 0
2, 17928, Note_on_c, 0, 68, 75
2, 17951, Note_on_c, 0, 68, 0
2, 17952, Note_on_c, 0, 69, 75
2, 18041, Note_on_c, 0, 69, 0
2, 18048, Note_on_c, 0, 68, 75
2, 18048, Note_on_c, 0, 64, 75
2, 18137, Note_on_c, 0, 68, 0
2, 18137, Note_on_c, 0, 64, 0
2, 18144, Note_on_c, 0, 68, 75
2, 18144, Note_on_c, 0, 64, 75
2, 18240, Note_on_c, 0, 68, 0
2, 18240, Note_on_c, 0, 64, 0
2, 18240, Note_on_c, 0, 66, 75
2, 18240, Note_on_c, 0, 63, 75
2, 18329, Note_on_c, 0, 66, 0
2, 18329, Note_on_c, 0, 63, 0
2, 18432, Note_on_c, 0, 71, 75
2, 18565, Note_on_c, 0, 71, 0
2, 18576, Note_on_c, 0, 68, 75
2, 18621, Note_on_c, 0, 68, 0
2, 18624, Note_on_c, 0, 69, 75
2, 18669, Note_on_c, 0, 69, 0
2, 18672, Note_on_c, 0, 71, 75
2, 18717, Note_on_c, 0, 71, 0
2, 18720, Note_on_c, 0, 69, 75
2, 18853, Note_on_c, 0, 69, 0
2, 18864, Note_on_c, 0, 66, 75
2, 18909, Note_on_c, 0, 66, 0
2, 18912, Note_on_c, 0, 68, 75
2, 18957, Note_on_c, 0, 68, 0
2, 18960, Note_on_c, 0, 69, 75
2, 19005, Note_on_c, 0, 69, 0
2, 19008, Note_on_c, 0, 68, 75
2, 19053, Note_on_c, 0, 68, 0
2, 19056, Note_on_c, 0, 71, 75
2, 19101, Note_on_c, 0, 71, 0
2, 19104, Note_on_c, 0, 69, 75
2, 19149, Note_on_c, 0, 69, 0
2, 19152, Note_on_c, 0, 68, 75
2, 19197, Note_on_c, 0, 68, 0
2, 19200, Note_on_c, 0, 66, 75
2, 19245, Note_on_c, 0, 66, 0
2, 19248, Note_on_c, 0, 64, 75
2, 19293, Note_on_c, 0, 64, 0
2, 19296, Note_on_c, 0, 64, 75
2, 19392, Note_on_c, 0, 64, 0
2, 19392, Note_on_c, 0, 63, 75
2, 19481, Note_on_c, 0, 63, 0
2, 19584, Note_on_c, 0, 68, 75
2, 19717, Note_on_c, 0, 68, 0
2, 19728, Note_on_c, 0, 69, 75
2, 19751, Note_on_c, 0, 69, 0
2, 19752, Note_on_c, 0, 71, 75
2, 19775, Note_on_c, 0, 71, 0
2, 19776, Note_on_c, 0, 69, 75
2, 19799, Note_on_c, 0, 69, 0
2, 19800, Note_on_c, 0, 68, 75
2, 19823, Note_on_c, 0, 68, 0
2, 19824, Note_on_c, 0, 66, 75
2, 19847, Note_on_c, 0, 66, 0
2, 19848, Note_on_c, 0, 64, 75
2, 19871, Note_on_c, 0, 64, 0
2, 19872, Note_on_c, 0, 73, 75
2, 19961, Note_on_c, 0, 73, 0
2, 19968, Note_on_c, 0, 75, 75
2, 20057, Note_on_c, 0, 75, 0
2, 20064, Note_on_c, 0, 76, 75
2, 20153, Note_on_c, 0, 76, 0
2, 20160, Note_on_c, 0, 71, 75
2, 20249, Note_on_c, 0, 71, 0
2, 20256, Note_on_c, 0, 69, 75
2, 20323, Note_on_c, 0, 69, 0
2, 20328, Note_on_c, 0, 66, 75
2, 20351, Note_on_c, 0, 66, 0
2, 20352, Note_on_c, 0, 68, 75
2, 20419, Note_on_c, 0, 68, 0
2, 20424, Note_on_c, 0, 64, 75
2, 20447, Note_on_c, 0, 64, 0
2, 20448, Note_on_c, 0, 66, 75
2, 20515, Note_on_c, 0, 66, 0
2, 20520, Note_on_c, 0, 63, 75
2, 20543, Note_on_c, 0, 63, 0
2, 20544, Note_on_c, 0, 64, 75
2, 20633, Note_on_c, 0, 64, 0
2, 20640, Note_on_c, 0, 59, 75
2, 20663, Note_on_c, 0, 59, 0
2, 20664, Note_on_c, 0, 64, 75
2, 20687, Note_on_c, 0, 64, 0
2, 20688, Note_on_c, 0, 68, 75
2, 20711, Note_on_c, 0, 68, 0
2, 20712, Note_on_c, 0, 71, 75
2, 20735, Note_on_c, 0, 71, 0
2, 20736, Note_on_c, 0, 71, 75
2, 20825, Note_on_c, 0, 71, 0
2, 20832, Note_on_c, 0, 69, 75
2, 20899, Note_on_c, 0, 69, 0
2, 20904, Note_on_c, 0, 66, 75
2, 20927, Note_on_c, 0, 66, 0
2, 20928, Note_on_c, 0, 68, 75
2, 20995, Note_on_c, 0, 68, 0
2, 21000, Note_on_c, 0, 64, 75
2, 21023, Note_on_c, 0, 64, 0
2, 21024, Note_on_c, 0, 68, 75
2, 21113, Note_on_c, 0, 68, 0
2, 21120, Note_on_c, 0, 66, 75
2, 21187, Note_on_c, 0, 66, 0
2, 21192, Note_on_c, 0, 63, 75
2, 21215, Note_on_c, 0, 63, 0
2, 21216, Note_on_c, 0, 64, 75
2, 21283, Note_on_c, 0, 64, 0
2, 21288, Note_on_c, 0, 68, 75
2, 21311, Note_on_c, 0, 68, 0
2, 21312, Note_on_c, 0, 71, 80
2, 21401, Note_on_c, 0, 71, 0
2, 21408, Note_on_c, 0, 69, 80
2, 21475, Note_on_c, 0, 69, 0
2, 21480, Note_on_c, 0, 66, 80
2, 21503, Note_on_c, 0, 66, 0
2, 21504, Note_on_c, 0, 68, 80
2, 21571, Note_on_c, 0, 68, 0
2, 21576, Note_on_c, 0, 64, 80
2, 21599, Note_on_c, 0, 64, 0
2, 21600, Note_on_c, 0, 68, 80
2, 21689, Note_on_c, 0, 68, 0
2, 21696, Note_on_c, 0, 66, 80
2, 21763, Note_on_c, 0, 66, 0
2, 21768, Note_on_c, 0, 63, 80
2, 21791, Note_on_c, 0, 63, 0
2, 21792, Note_on_c, 0, 64, 80
2, 21859, Note_on_c, 0, 64, 0
2, 21864, Note_on_c, 0, 68, 80
2, 21887, Note_on_c, 0, 68, 0
2, 21888, Note_on_c, 0, 71, 70
2, 21955, Note_on_c, 0, 71, 0
2, 21960, Note_on_c, 0, 70, 70
2, 21983, Note_on_c, 0, 70, 0
2, 21984, Note_on_c, 0, 70, 70
2, 22117, Note_on_c, 0, 70, 0
2, 22152, Note_on_c, 0, 78, 70
2, 22175, Note_on_c, 0, 78, 0
2, 22176, Note_on_c, 0, 78, 70
2, 22243, Note_on_c, 0, 78, 0
2, 22248, Note_on_c, 0, 69, 70
2, 22271, Note_on_c, 0, 69, 0
2, 22272, Note_on_c, 0, 69, 70
2, 22405, Note_on_c, 0, 69, 0
2, 22440, Note_on_c, 0, 69, 80
2, 22464, Note_on_c, 0, 69, 0
2, 22464, Note_on_c, 0, 68, 80
2, 22509, Note_on_c, 0, 68, 0
2, 22536, Note_on_c, 0, 68, 80
2, 22560, Note_on_c, 0, 68, 0
2, 22560, Note_on_c, 0, 69, 80
2, 22605, Note_on_c, 0, 69, 0
2, 22632, Note_on_c, 0, 69, 80
2, 22656, Note_on_c, 0, 69, 0
2, 22656, Note_on_c, 0, 71, 80
2, 22701, Note_on_c, 0, 71, 0
2, 22728, Note_on_c, 0, 71, 80
2, 22752, Note_on_c, 0, 71, 0
2, 22752, Note_on_c, 0, 73, 80
2, 22797, Note_on_c, 0, 73, 0
2, 22824, Note_on_c, 0, 73, 80
2, 22848, Note_on_c, 0, 73, 0
2, 22848, Note_on_c, 0, 75, 80
2, 22893, Note_on_c, 0, 75, 0
2, 22920, Note_on_c, 0, 75, 80
2, 22944, Note_on_c, 0, 75, 0
2, 22944, Note_on_c, 0, 76, 80
2, 22989, Note_on_c, 0, 76, 0
2, 23016, Note_on_c, 0, 76, 80
2, 23039, Note_on_c, 0, 76, 0
2, 23040, Note_on_c, 0, 75, 80
2, 23063, Note_on_c, 0, 75, 0
2, 23064, Note_on_c, 0, 73, 80
2, 23087, Note_on_c, 0, 73, 0
2, 23088, Note_on_c, 0, 71, 80
2, 23111, Note_on_c, 0, 71, 0
2, 23112, Note_on_c, 0, 69, 80
2, 23135, Note_on_c, 0, 69, 0
2, 23136, Note_on_c, 0, 68, 80
2, 23225, Note_on_c, 0, 68, 0
2, 23232, Note_on_c, 0, 66, 80
2, 23321, Note_on_c, 0, 66, 0
2, 23328, Note_on_c, 0, 64, 80
2, 23417, Note_on_c, 0, 64, 0
2, 23448, Note_on_c, 0, 59, 80
2, 23471, Note_on_c, 0, 59, 0
2, 23472, Note_on_c, 0, 61, 80
2, 23495, Note_on_c, 0, 61, 0
2, 23496, Note_on_c, 0, 63, 80
2, 23519, Note_on_c, 0, 63, 0
2, 23520, Note_on_c, 0, 64, 80
2, 23543, Note_on_c, 0, 64, 0
2, 23544, Note_on_c, 0, 66, 80
2, 23567, Note_on_c, 0, 66, 0
2, 23568, Note_on_c, 0, 68, 80
2, 23591, Note_on_c, 0, 68, 0
2, 23592, Note_on_c, 0, 69, 80
2, 23615, Note_on_c, 0, 69, 0
2, 23616, Note_on_c, 0, 71, 80
2, 23793, Note_on_c, 0, 71, 0
2, 23808, Note_on_c, 0, 69, 80
2, 23831, Note_on_c, 0, 69, 0
2, 23832, Note_on_c, 0, 68, 80
2, 23855, Note_on_c, 0, 68, 0
2, 23856, Note_on_c, 0, 66, 80
2, 23879, Note_on_c, 0, 66, 0
2, 23880, Note_on_c, 0, 64, 80
2, 23903, Note_on_c, 0, 64, 0
2, 23904, Note_on_c, 0, 73, 80
2, 23949, Note_on_c, 0, 73, 0
2, 23952, Note_on_c, 0, 69, 80
2, 23997, Note_on_c, 0, 69, 0
2, 24048, Note_on_c, 0, 78, 80
2, 24068, Note_on_c, 0, 78, 0
2, 24144, Note_on_c, 0, 75, 80
2, 24164, Note_on_c, 0, 75, 0
2, 24240, Note_on_c, 0, 75, 80
2, 24288, Note_on_c, 0, 75, 0
2, 24288, Note_on_c, 0, 76, 80
2, 24333, Note_on_c, 0, 76, 0
2, 24336, Note_on_c, 0, 71, 80
2, 24381, Note_on_c, 0, 71, 0
2, 24384, Note_on_c, 0, 68, 80
2, 24429, Note_on_c, 0, 68, 0
2, 24432, Note_on_c, 0, 64, 80
2, 24477, Note_on_c, 0, 64, 0
2, 24480, Note_on_c, 0, 73, 80
2, 24525, Note_on_c, 0, 73, 0
2, 24528, Note_on_c, 0, 69, 80
2, 24573, Note_on_c, 0, 69, 0
2, 24624, Note_on_c, 0, 78, 80
2, 24644, Note_on_c, 0, 78, 0
2, 24720, Note_on_c, 0, 75, 80
2, 24740, Note_on_c, 0, 75, 0
2, 24816, Note_on_c, 0, 75, 80
2, 24864, Note_on_c, 0, 75, 0
2, 24864, Note_on_c, 0, 76, 80
2, 24909, Note_on_c, 0, 76, 0
2, 24912, Note_on_c, 0, 71, 80
2, 24957, Note_on_c, 0, 71, 0
2, 24960, Note_on_c, 0, 68, 80
2, 25005, Note_on_c, 0, 68, 0
2, 25008, Note_on_c, 0, 64, 80
2, 25053, Note_on_c, 0, 64, 0
2, 25104, Note_on_c, 0, 65, 80
2, 25152, Note_on_c, 0, 65, 0
2, 25152, Note_on_c, 0, 66, 80
2, 25197, Note_on_c, 0, 66, 0
2, 25200, Note_on_c, 0, 68, 80
2, 25245, Note_on_c, 0, 68, 0
2, 25248, Note_on_c, 0, 69, 80
2, 25293, Note_on_c, 0, 69, 0
2, 25296, Note_on_c, 0, 73, 80
2, 25341, Note_on_c, 0, 73, 0
2, 25344, Note_on_c, 0, 71, 80
2, 25411, Note_on_c, 0, 71, 0
2, 25416, Note_on_c, 0, 73, 80
2, 25439, Note_on_c, 0, 73, 0
2, 25440, Note_on_c, 0, 64, 80
2, 25529, Note_on_c, 0, 64, 0
2, 25536, Note_on_c, 0, 63, 80
2, 25625, Note_on_c, 0, 63, 0
2, 25632, Note_on_c, 0, 70, 80
2, 25644, Note_on_c, 0, 70, 0
2, 25644, Note_on_c, 0, 71, 80
2, 25656, Note_on_c, 0, 71, 0
2, 25656, Note_on_c, 0, 73, 80
2, 25668, Note_on_c, 0, 73, 0
2, 25668, Note_on_c, 0, 71, 80
2, 25809, Note_on_c, 0, 71, 0
2, 25824, Note_on_c, 0, 69, 80
2, 25847, Note_on_c, 0, 69, 0
2, 25848, Note_on_c, 0, 68, 80
2, 25871, Note_on_c, 0, 68, 0
2, 25872, Note_on_c, 0, 66, 80
2, 25895, Note_on_c, 0, 66, 0
2, 25896, Note_on_c, 0, 64, 80
2, 25919, Note_on_c, 0, 64, 0
2, 25920, Note_on_c, 0, 73, 80
2, 26083, Note_on_c, 0, 73, 0
2, 26088, Note_on_c, 0, 81, 80
2, 26100, Note_on_c, 0, 81, 0
2, 26100, Note_on_c, 0, 78, 80
2, 26112, Note_on_c, 0, 78, 0
2, 26112, Note_on_c, 0, 75, 80
2, 26179, Note_on_c, 0, 75, 0
2, 26184, Note_on_c, 0, 83, 80
2, 26196, Note_on_c, 0, 83, 0
2, 26196, Note_on_c, 0, 80, 80
2, 26208, Note_on_c, 0, 80, 0
2, 26208, Note_on_c, 0, 76, 80
2, 26231, Note_on_c, 0, 76, 0
2, 26232, Note_on_c, 0, 78, 80
2, 26255, Note_on_c, 0, 78, 0
2, 26256, Note_on_c, 0, 80, 80
2, 26279, Note_on_c, 0, 80, 0
2, 26280, Note_on_c, 0, 78, 80
2, 26303, Note_on_c, 0, 78, 0
2, 26304, Note_on_c, 0, 76, 80
2, 26327, Note_on_c, 0, 76, 0
2, 26328, Note_on_c, 0, 75, 80
2, 26351, Note_on_c, 0, 75, 0
2, 26352, Note_on_c, 0, 73, 80
2, 26375, Note_on_c, 0, 73, 0
2, 26376, Note_on_c, 0, 71, 80
2, 26399, Note_on_c, 0, 71, 0
2, 26400, Note_on_c, 0, 69, 80
2, 26423, Note_on_c, 0, 69, 0
2, 26424, Note_on_c, 0, 68, 80
2, 26447, Note_on_c, 0, 68, 0
2, 26448, Note_on_c, 0, 66, 80
2, 26471, Note_on_c, 0, 66, 0
2, 26472, Note_on_c, 0, 64, 80
2, 26495, Note_on_c, 0, 64, 0
2, 26496, Note_on_c, 0, 73, 80
2, 26659, Note_on_c, 0, 73, 0
2, 26664, Note_on_c, 0, 81, 80
2, 26676, Note_on_c, 0, 81, 0
2, 26676, Note_on_c, 0, 78, 80
2, 26688, Note_on_c, 0, 78, 0
2, 26688, Note_on_c, 0, 75, 80
2, 26755, Note_on_c, 0, 75, 0
2, 26760, Note_on_c, 0, 83, 80
2, 26772, Note_on_c, 0, 83, 0
2, 26772, Note_on_c, 0, 80, 80
2, 26784, Note_on_c, 0, 80, 0
2, 26784, Note_on_c, 0, 76, 80
2, 26807, Note_on_c, 0, 76, 0
2, 26808, Note_on_c, 0, 78, 80
2, 26831, Note_on_c, 0, 78, 0
2, 26832, Note_on_c, 0, 80, 80
2, 26855, Note_on_c, 0, 80, 0
2, 26856, Note_on_c, 0, 78, 80
2, 26879, Note_on_c, 0, 78, 0
2, 26880, Note_on_c, 0, 76, 80
2, 26903, Note_on_c, 0, 76, 0
2, 26904, Note_on_c, 0, 75, 80
2, 26927, Note_on_c, 0, 75, 0
2, 26928, Note_on_c, 0, 73, 80
2, 26951, Note_on_c, 0, 73, 0
2, 26952, Note_on_c, 0, 71, 80
2, 26975, Note_on_c, 0, 71, 0
2, 26976, Note_on_c, 0, 69, 80
2, 26999, Note_on_c, 0, 69, 0
2, 27000, Note_on_c, 0, 68, 80
2, 27023, Note_on_c, 0, 68, 0
2, 27024, Note_on_c, 0, 66, 80
2, 27047, Note_on_c, 0, 66, 0
2, 27048, Note_on_c, 0, 64, 80
2, 27071, Note_on_c, 0, 64, 0
2, 27072, Note_on_c, 0, 66, 80
2, 27095, Note_on_c, 0, 66, 0
2, 27096, Note_on_c, 0, 68, 81
2, 27119, Note_on_c, 0, 68, 0
2, 27120, Note_on_c, 0, 69, 82
2, 27143, Note_on_c, 0, 69, 0
2, 27144, Note_on_c, 0, 71, 83
2, 27167, Note_on_c, 0, 71, 0
2, 27168, Note_on_c, 0, 73, 84
2, 27191, Note_on_c, 0, 73, 0
2, 27192, Note_on_c, 0, 71, 85
2, 27215, Note_on_c, 0, 71, 0
2, 27216, Note_on_c, 0, 69, 86
2, 27239, Note_on_c, 0, 69, 0
2, 27240, Note_on_c, 0, 68, 85
2, 27263, Note_on_c, 0, 68, 0
2, 27264, Note_on_c, 0, 66, 84
2, 27287, Note_on_c, 0, 66, 0
2, 27288, Note_on_c, 0, 64, 83
2, 27311, Note_on_c, 0, 64, 0
2, 27312, Note_on_c, 0, 63, 82
2, 27335, Note_on_c, 0, 63, 0
2, 27336, Note_on_c, 0, 61, 81
2, 27359, Note_on_c, 0, 61, 0
2, 27360, Note_on_c, 0, 59, 80
2, 27449, Note_on_c, 0, 59, 0
2, 27456, Note_on_c, 0, 64, 80
2, 27545, Note_on_c, 0, 64, 0
2, 27552, Note_on_c, 0, 63, 80
2, 27641, Note_on_c, 0, 63, 0
2, 27648, Note_on_c, 0, 64, 80
2, 27825, Note_on_c, 0, 64, 0
2, 27936, Note_on_c, 0, 59, 75
2, 27948, Note_on_c, 0, 59, 0
2, 27948, Note_on_c, 0, 63, 75
2, 27960, Note_on_c, 0, 63, 0
2, 27960, Note_on_c, 0, 66, 75
2, 28113, Note_on_c, 0, 66, 0
2, 28128, Note_on_c, 0, 64, 75
2, 28151, Note_on_c, 0, 64, 0
2, 28152, Note_on_c, 0, 63, 75
2, 28175, Note_on_c, 0, 63, 0
2, 28176, Note_on_c, 0, 61, 75
2, 28199, Note_on_c, 0, 61, 0
2, 28200, Note_on_c, 0, 59, 75
2, 28223, Note_on_c, 0, 59, 0
2, 28224, Note_on_c, 0, 69, 75
2, 28224, Note_on_c, 0, 63, 75
2, 28313, Note_on_c, 0, 69, 0
2, 28313, Note_on_c, 0, 63, 0
2, 28320, Note_on_c, 0, 68, 75
2, 28320, Note_on_c, 0, 64, 75
2, 28414, Note_on_c, 0, 68, 0
2, 28414, Note_on_c, 0, 64, 0
2, 28560, Note_on_c, 0, 73, 75
2, 28605, Note_on_c, 0, 73, 0
2, 28608, Note_on_c, 0, 71, 75
2, 28653, Note_on_c, 0, 71, 0
2, 28656, Note_on_c, 0, 69, 75
2, 28701, Note_on_c, 0, 69, 0
2, 28704, Note_on_c, 0, 68, 75
2, 28749, Note_on_c, 0, 68, 0
2, 28752, Note_on_c, 0, 66, 75
2, 28797, Note_on_c, 0, 66, 0
2, 28800, Note_on_c, 0, 64, 75
2, 28889, Note_on_c, 0, 64, 0
2, 28896, Note_on_c, 0, 63, 75
2, 28985, Note_on_c, 0, 63, 0
2, 28992, Note_on_c, 0, 64, 75
2, 29081, Note_on_c, 0, 64, 0
2, 29088, Note_on_c, 0, 66, 75
2, 29155, Note_on_c, 0, 66, 0
2, 29160, Note_on_c, 0, 68, 75
2, 29183, Note_on_c, 0, 68, 0
2, 29184, Note_on_c, 0, 69, 75
2, 29273, Note_on_c, 0, 69, 0
2, 29280, Note_on_c, 0, 68, 75
2, 29280, Note_on_c, 0, 64, 75
2, 29369, Note_on_c, 0, 68, 0
2, 29369, Note_on_c, 0, 64, 0
2, 29376, Note_on_c, 0, 68, 75
2, 29376, Note_on_c, 0, 64, 75
2, 29472, Note_on_c, 0, 68, 0
2, 29472, Note_on_c, 0, 64, 0
2, 29472, Note_on_c, 0, 66, 75
2, 29472, Note_on_c, 0, 63, 75
2, 29561, Note_on_c, 0, 66, 0
2, 29561, Note_on_c, 0, 63, 0
2, 29664, Note_on_c, 0, 71, 75
2, 29797, Note_on_c, 0, 71, 0
2, 29808, Note_on_c, 0, 68, 75
2, 29853, Note_on_c, 0, 68, 0
2, 29856, Note_on_c, 0, 69, 75
2, 29901, Note_on_c, 0, 69, 0
2, 29904, Note_on_c, 0, 71, 75
2, 29949, Note_on_c, 0, 71, 0
2, 29952, Note_on_c, 0, 69, 75
2, 30085, Note_on_c, 0, 69, 0
2, 30096, Note_on_c, 0, 66, 75
2, 30141, Note_on_c, 0, 66, 0
2, 30144, Note_on_c, 0, 68, 75
2, 30189, Note_on_c, 0, 68, 0
2, 30192, Note_on_c, 0, 69, 75
2, 30237, Note_on_c, 0, 69, 0
2, 30240, Note_on_c, 0, 68, 75
2, 30285, Note_on_c, 0, 68, 0
2, 30288, Note_on_c, 0, 71, 75
2, 30333, Note_on_c, 0, 71, 0
2, 30336, Note_on_c, 0, 69, 75
2, 30381, Note_on_c, 0, 69, 0
2, 30384, Note_on_c, 0, 68, 75
2, 30429, Note_on_c, 0, 68, 0
2, 30432, Note_on_c, 0, 66, 75
2, 30477, Note_on_c, 0, 66, 0
2, 30480, Note_on_c, 0, 64, 75
2, 30525, Note_on_c, 0, 64, 0
2, 30528, Note_on_c, 0, 64, 75
2, 30624, Note_on_c, 0, 64, 0
2, 30624, Note_on_c, 0, 63, 75
2, 30713, Note_on_c, 0, 63, 0
2, 30816, Note_on_c, 0, 68, 75
2, 30949, Note_on_c, 0, 68, 0
2, 30960, Note_on_c, 0, 69, 75
2, 30983, Note_on_c, 0, 69, 0
2, 30984, Note_on_c, 0, 71, 75
2, 31007, Note_on_c, 0, 71, 0
2, 31008, Note_on_c, 0, 69, 75
2, 31031, Note_on_c, 0, 69, 0
2, 31032, Note_on_c, 0, 68, 75
2, 31055, Note_on_c, 0, 68, 0
2, 31056, Note_on_c, 0, 66, 75
2, 31079, Note_on_c, 0, 66, 0
2, 31080, Note_on_c, 0, 64, 75
2, 31103, Note_on_c, 0, 64, 0
2, 31104, Note_on_c, 0, 73, 75
2, 31193, Note_on_c, 0, 73, 0
2, 31200, Note_on_c, 0, 75, 75
2, 31289, Note_on_c, 0, 75, 0
2, 31296, Note_on_c, 0, 76, 75
2, 31385, Note_on_c, 0, 76, 0
2, 31392, Note_on_c, 0, 71, 75
2, 31481, Note_on_c, 0, 71, 0
2, 31488, Note_on_c, 0, 69, 75
2, 31555, Note_on_c, 0, 69, 0
2, 31560, Note_on_c, 0, 66, 75
2, 31583, Note_on_c, 0, 66, 0
2, 31584, Note_on_c, 0, 68, 75
2, 31651, Note_on_c, 0, 68, 0
2, 31656, Note_on_c, 0, 64, 75
2, 31679, Note_on_c, 0, 64, 0
2, 31680, Note_on_c, 0, 66, 75
2, 31747, Note_on_c, 0, 66, 0
2, 31752, Note_on_c, 0, 63, 75
2, 31775, Note_on_c, 0, 63, 0
2, 31776, Note_on_c, 0, 64, 75
2, 31865, Note_on_c, 0, 64, 0
2, 31872, Note_on_c, 0, 59, 75
2, 31895, Note_on_c, 0, 59, 0
2, 31896, Note_on_c, 0, 64, 75
2, 31919, Note_on_c, 0, 64, 0
2, 31920, Note_on_c, 0, 68, 75
2, 31943, Note_on_c, 0, 68, 0
2, 31944, Note_on_c, 0, 71, 75
2, 31967, Note_on_c, 0, 71, 0
2, 31968, Note_on_c, 0, 71, 75
2, 32057, Note_on_c, 0, 71, 0
2, 32064, Note_on_c, 0, 69, 75
2, 32131, Note_on_c, 0, 69, 0
2, 32136, Note_on_c, 0, 66, 75
2, 32159, Note_on_c, 0, 66, 0
2, 32160, Note_on_c, 0, 68, 75
2, 32227, Note_on_c, 0, 68, 0
2, 32232, Note_on_c, 0, 64, 75
2, 32255, Note_on_c, 0, 64, 0
2, 32256, Note_on_c, 0, 68, 75
2, 32345, Note_on_c, 0, 68, 0
2, 32352, Note_on_c, 0, 66, 75
2, 32419, Note_on_c, 0, 66, 0
2, 32424, Note_on_c, 0, 63, 75
2, 32447, Note_on_c, 0, 63, 0
2, 32448, Note_on_c, 0, 64, 75
2, 32515, Note_on_c, 0, 64, 0
2, 32520, Note_on_c, 0, 68, 75
2, 32543, Note_on_c, 0, 68, 0
2, 32544, Note_on_c, 0, 71, 80
2, 32633, Note_on_c, 0, 71, 0
2, 32640, Note_on_c, 0, 69, 80
2, 32707, Note_on_c, 0, 69, 0
2, 32712, Note_on_c, 0, 66, 80
2, 32735, Note_on_c, 0, 66, 0
2, 32736, Note_on_c, 0, 68, 80
2, 32803, Note_on_c, 0, 68, 0
2, 32808, Note_on_c, 0, 64, 80
2, 32831, Note_on_c, 0, 64, 0
2, 32832, Note_on_c, 0, 68, 80
2, 32921, Note_on_c, 0, 68, 0
2, 32928, Note_on_c, 0, 66, 80
2, 32995, Note_on_c, 0, 66, 0
2, 33000, Note_on_c, 0, 63, 80
2, 33023, Note_on_c, 0, 63, 0
2, 33024, Note_on_c, 0, 64, 80
2, 33091, Note_on_c, 0, 64, 0
2, 33096, Note_on_c, 0, 68, 80
2, 33119, Note_on_c, 0, 68, 0
2, 33120, Note_on_c, 0, 71, 70
2, 33187, Note_on_c, 0, 71, 0
2, 33192, Note_on_c, 0, 70, 70
2, 33215, Note_on_c, 0, 70, 0
2, 33216, Note_on_c, 0, 70, 70
2, 33349, Note_on_c, 0, 70, 0
2, 33384, Note_on_c, 0, 78, 70
2, 33407, Note_on_c, 0, 78, 0
2, 33408, Note_on_c, 0, 78, 70
2, 33475, Note_on_c, 0, 78, 0
2, 33480, Note_on_c, 0, 69, 70
2, 33503, Note_on_c, 0, 69, 0
2, 33504, Note_on_c, 0, 69, 70
2, 33637, Note_on_c, 0, 69, 0
2, 33672, Note_on_c, 0, 69, 80
2, 33696, Note_on_c, 0, 69, 0
2, 33696, Note_on_c, 0, 68, 80
2, 33741, Note_on_c, 0, 68, 0
2, 33768, Note_on_c, 0, 68, 80
2, 33792, Note_on_c, 0, 68, 0
2, 33792, Note_on_c, 0, 69, 80
2, 33837, Note_on_c, 0, 69, 0
2, 33864, Note_on_c, 0, 69, 80
2, 33888, Note_on_c, 0, 69, 0
2, 33888, Note_on_c, 0, 71, 80
2, 33933, Note_on_c, 0, 71, 0
2, 33960, Note_on_c, 0, 71, 80
2, 33984, Note_on_c, 0, 71, 0
2, 33984, Note_on_c, 0, 73, 80
2, 34029, Note_on_c, 0, 73, 0
2, 34056, Note_on_c, 0, 73, 80
2, 34080, Note_on_c, 0, 73, 0
2, 34080, Note_on_c, 0, 75, 80
2, 34125, Note_on_c, 0, 75, 0
2, 34152, Note_on_c, 0, 75, 80
2, 34176, Note_on_c, 0, 75, 0
2, 34176, Note_on_c, 0, 76, 80
2, 34221, Note_on_c, 0, 76, 0
2, 34248, Note_on_c, 0, 76, 80
2, 34271, Note_on_c, 0, 76, 0
2, 34272, Note_on_c, 0, 75, 80
2, 34295, Note_on_c, 0, 75, 0
2, 34296, Note_on_c, 0, 73, 80
2, 34319, Note_on_c, 0, 73, 0
2, 34320, Note_on_c, 0, 71, 80
2, 34343, Note_on_c, 0, 71, 0
2, 34344, Note_on_c, 0, 69, 80
2, 34367, Note_on_c, 0, 69, 0
2, 34368, Note_on_c, 0, 68, 80
2, 34457, Note_on_c, 0, 68, 0
2, 34464, Note_on_c, 0, 66, 80
2, 34553, Note_on_c, 0, 66, 0
2, 34560, Note_on_c, 0, 64, 80
2, 34649, Note_on_c, 0, 64, 0
2, 34680, Note_on_c, 0, 59, 80
2, 34703, Note_on_c, 0, 59, 0
2, 34704, Note_on_c, 0, 61, 80
2, 34727, Note_on_c, 0, 61, 0
2, 34728, Note_on_c, 0, 63, 80
2, 34751, Note_on_c, 0, 63, 0
2, 34752, Note_on_c, 0, 64, 80
2, 34775, Note_on_c, 0, 64, 0
2, 34776, Note_on_c, 0, 66, 80
2, 34799, Note_on_c, 0, 66, 0
2, 34800, Note_on_c, 0, 68, 80
2, 34823, Note_on_c, 0, 68, 0
2, 34824, Note_on_c, 0, 69, 80
2, 34847, Note_on_c, 0, 69, 0
2, 34848, Note_on_c, 0, 71, 80
2, 35025, Note_on_c, 0, 71, 0
2, 35040, Note_on_c, 0, 69, 80
2, 35063, Note_on_c, 0, 69, 0
2, 35064, Note_on_c, 0, 68, 80
2, 35087, Note_on_c, 0, 68, 0
2, 35088, Note_on_c, 0, 66, 80
2, 35111, Note_on_c, 0, 66, 0
2, 35112, Note_on_c, 0, 64, 80
2, 35135, Note_on_c, 0, 64, 0
2, 35136, Note_on_c, 0, 73, 80
2, 35181, Note_on_c, 0, 73, 0
2, 35184, Note_on_c, 0, 69, 80
2, 35229, Note_on_c, 0, 69, 0
2, 35280, Note_on_c, 0, 78, 80
2, 35300, Note_on_c, 0, 78, 0
2, 35376, Note_on_c, 0, 75, 80
2, 35396, Note_on_c, 0, 75, 0
2, 35472, Note_on_c, 0, 75, 80
2, 35520, Note_on_c, 0, 75, 0
2, 35520, Note_on_c, 0, 76, 80
2, 35565, Note_on_c, 0, 76, 0
2, 35568, Note_on_c, 0, 71, 80
2, 35613, Note_on_c, 0, 71, 0
2, 35616, Note_on_c, 0, 68, 80
2, 35661, Note_on_c, 0, 68, 0
2, 35664, Note_on_c, 0, 64, 80
2, 35709, Note_on_c, 0, 64, 0
2, 35712, Note_on_c, 0, 73, 80
2, 35757, Note_on_c, 0, 73, 0
2, 35760, Note_on_c, 0, 69, 80
2, 35805, Note_on_c, 0, 69, 0
2, 35856, Note_on_c, 0, 78, 80
2, 35876, Note_on_c, 0, 78, 0
2, 35952, Note_on_c, 0, 75, 80
2, 35972, Note_on_c, 0, 75, 0
2, 36048, Note_on_c, 0, 75, 80
2, 36096, Note_on_c, 0, 75, 0
2, 36096, Note_on_c, 0, 76, 80
2, 36141, Note_on_c, 0, 76, 0
2, 36144, Note_on_c, 0, 71, 80
2, 36189, Note_on_c, 0, 71, 0
2, 36192, Note_on_c, 0, 68, 80
2, 36237, Note_on_c, 0, 68, 0
2, 36240, Note_on_c, 0, 64, 80
2, 36285, Note_on_c, 0, 64, 0
2, 36336, Note_on_c, 0, 65, 80
2, 36384, Note_on_c, 0, 65, 0
2, 36384, Note_on_c, 0, 66, 80
2, 36429, Note_on_c, 0, 66, 0
2, 36432, Note_on_c, 0, 68, 80
2, 36477, Note_on_c, 0, 68, 0
2, 36480, Note_on_c, 0, 69, 80
2, 36525, Note_on_c, 0, 69, 0
2, 36528, Note_on_c, 0, 73, 80
2, 36573, Note_on_c, 0, 73, 0
2, 36576, Note_on_c, 0, 71, 80
2, 36643, Note_on_c, 0, 71, 0
2, 36648, Note_on_c, 0, 73, 80
2, 36671, Note_on_c, 0, 73, 0
2, 36672, Note_on_c, 0, 64, 80
2, 36761, Note_on_c, 0, 64, 0
2, 36768, Note_on_c, 0, 63, 80
2, 36857, Note_on_c, 0, 63, 0
2, 36864, Note_on_c, 0, 70, 80
2, 36876, Note_on_c, 0, 70, 0
2, 36876, Note_on_c, 0, 71, 80
2, 36888, Note_on_c, 0, 71, 0
2, 36888, Note_on_c, 0, 73, 80
2, 36900, Note_on_c, 0, 73, 0
2, 36900, Note_on_c, 0, 71, 80
2, 37041, Note_on_c, 0, 71, 0
2, 37056, Note_on_c, 0, 69, 80
2, 37079, Note_on_c, 0, 69, 0
2, 37080, Note_on_c, 0, 68, 80
2, 37103, Note_on_c, 0, 68, 0
2, 37104, Note_on_c, 0, 66, 80
2, 37127, Note_on_c, 0, 66, 0
2, 37128, Note_on_c, 0, 64, 80
2, 37151, Note_on_c, 0, 64, 0
2, 37152, Note_on_c, 0, 73, 80
2, 37315, Note_on_c, 0, 73, 0
2, 37320, Note_on_c, 0, 81, 80
2, 37332, Note_on_c, 0, 81, 0
2, 37332, Note_on_c, 0, 78, 80
2, 37344, Note_on_c, 0, 78, 0
2, 37344, Note_on_c, 0, 75, 80
2, 37411, Note_on_c, 0, 75, 0
2, 37416, Note_on_c, 0, 83, 80
2, 37428, Note_on_c, 0, 83, 0
2, 37428, Note_on_c, 0, 80, 80
2, 37440, Note_on_c, 0, 80, 0
2, 37440, Note_on_c, 0, 76, 80
2, 37463, Note_on_c, 0, 76, 0
2, 37464, Note_on_c, 0, 78, 80
2, 37487, Note_on_c, 0, 78, 0
2, 37488, Note_on_c, 0, 80, 80
2, 37511, Note_on_c, 0, 80, 0
2, 37512, Note_on_c, 0, 78, 80
2, 37535, Note_on_c, 0, 78, 0
2, 37536, Note_on_c, 0, 76, 80
2, 37559, Note_on_c, 0, 76, 0
2, 37560, Note_on_c, 0, 75, 80
2, 37583, Note_on_c, 0, 75, 0
2, 37584, Note_on_c, 0, 73, 80
2, 37607, Note_on_c, 0, 73, 0
2, 37608, Note_on_c, 0, 71, 80
2, 37631, Note_on_c, 0, 71, 0
2, 37632, Note_on_c, 0, 69, 80
2, 37655, Note_on_c, 0, 69, 0
2, 37656, Note_on_c, 0, 68, 80
2, 37679, Note_on_c, 0, 68, 0
2, 37680, Note_on_c, 0, 66, 80
2, 37703, Note_on_c, 0, 66, 0
2, 37704, Note_on_c, 0, 64, 80
2, 37727, Note_on_c, 0, 64, 0
2, 37728, Note_on_c, 0, 73, 80
2, 37891, Note_on_c, 0, 73, 0
2, 37896, Note_on_c, 0, 81, 80
2, 37908, Note_on_c, 0, 81, 0
2, 37908, Note_on_c, 0, 78, 80
2, 37920, Note_on_c, 0, 78, 0
2, 37920, Note_on_c, 0, 75, 80
2, 37987, Note_on_c, 0, 75, 0
2, 37992, Note_on_c, 0, 83, 80
2, 38004, Note_on_c, 0, 83, 0
2, 38004, Note_on_c, 0, 80, 80
2, 38016, Note_on_c, 0, 80, 0
2, 38016, Note_on_c, 0, 76, 80
2, 38039, Note_on_c, 0, 76, 0
2, 38040, Note_on_c, 0, 78, 80
2, 38063, Note_on_c, 0, 78, 0
2, 38064, Note_on_c, 0, 80, 80
2, 38087, Note_on_c, 0, 80, 0
2, 38088, Note_on_c, 0, 78, 80
2, 38111, Note_on_c, 0, 78, 0
2, 38112, Note_on_c, 0, 76, 80
2, 38135, Note_on_c, 0, 76, 0
2, 38136, Note_on_c, 0, 75, 80
2, 38159, Note_on_c, 0, 75, 0
2, 38160, Note_on_c, 0, 73, 80
2, 38183, Note_on_c, 0, 73, 0
2, 38184, Note_on_c, 0, 71, 80
2, 38207, Note_on_c, 0, 71, 0
2, 38208, Note_on_c, 0, 69, 80
2, 38231, Note_on_c, 0, 69, 0
2, 38232, Note_on_c, 0, 68, 80
2, 38255, Note_on_c, 0, 68, 0
2, 38256, Note_on_c, 0, 66, 80
2, 38279, Note_on_c, 0, 66, 0
2, 38280, Note_on_c, 0, 64, 80
2, 38303, Note_on_c, 0, 64, 0
2, 38304, Note_on_c, 0, 66, 80
2, 38327, Note_on_c, 0, 66, 0
2, 38328, Note_on_c, 0, 68, 81
2, 38351, Note_on_c, 0, 68, 0
2, 38352, Note_on_c, 0, 69, 82
2, 38375, Note_on_c, 0, 69, 0
2, 38376, Note_on_c, 0, 71, 83
2, 38399, Note_on_c, 0, 71, 0
2, 38400, Note_on_c, 0, 73, 84
2, 38423, Note_on_c, 0, 73, 0
2, 38424, Note_on_c, 0, 71, 85
2, 38447, Note_on_c, 0, 71, 0
2, 38448, Note_on_c, 0, 69, 86
2, 38471, Note_on_c, 0, 69, 0
2, 38472, Note_on_c, 0, 68, 85
2, 38495, Note_on_c, 0, 68, 0
2, 38496, Note_on_c, 0, 66, 84
2, 38519, Note_on_c, 0, 66, 0
2, 38520, Note_on_c, 0, 64, 83
2, 38543, Note_on_c, 0, 64, 0
2, 38544, Note_on_c, 0, 63, 82
2, 38567, Note_on_c, 0, 63, 0
2, 38568, Note_on_c, 0, 61, 81
2, 38591, Note_on_c, 0, 61, 0
2, 38592, Note_on_c, 0, 59, 80
2, 38681, Note_on_c, 0, 59, 0
2, 38688, Note_on_c, 0, 64, 80
2, 38777, Note_on_c, 0, 64, 0
2, 38784, Note_on_c, 0, 63, 80
2, 38873, Note_on_c, 0, 63, 0
2, 38880, Note_on_c, 0, 64, 80
2, 39057, Note_on_c, 0, 64, 0
2, 39168, End_track
3, 0, Start_track
3, 0, Program_c, 0, 0
3, 0, Control_c, 0, 7, 127
3, 0, Control_c, 0, 10, 64
3, 2592, Note_on_c, 0, 76, 64
3, 2681, Note_on_c, 0, 76, 0
3, 10944, Note_on_c, 0, 76, 64
3, 11033, Note_on_c, 0, 76, 0
3, 17856, Note_on_c, 0, 66, 64
3, 18033, Note_on_c, 0, 66, 0
3, 18480, Note_on_c, 0, 62, 64
3, 18528, Note_on_c, 0, 62, 0
3, 18528, Note_on_c, 0, 61, 64
3, 18617, Note_on_c, 0, 61, 0
3, 18768, Note_on_c, 0, 60, 64
3, 18816, Note_on_c, 0, 60, 0
3, 18816, Note_on_c, 0, 59, 64
3, 18905, Note_on_c, 0, 59, 0
3, 29088, Note_on_c, 0, 66, 64
3, 29265, Note_on_c, 0, 66, 0
3, 29712, Note_on_c, 0, 62, 64
3, 29760, Note_on_c, 0, 62, 0
3, 29760, Note_on_c, 0, 61, 64
3, 29849, Note_on_c, 0, 61, 0
3, 30000, Note_on_c, 0, 60, 64
3, 30048, Note_on_c, 0, 60, 0
3, 30048, Note_on_c, 0, 59, 64
3, 30137, Note_on_c, 0, 59, 0
3, 39168, End_track
4, 0, Start_track
4, 0, Program_c, 1, 0
4, 0, Control_c, 1, 7, 127
4, 0, Control_c, 1, 10, 64
4, 0, Note_on_c, 1, 52, 64
4, 89, Note_on_c, 1, 52, 0
4, 96, Note_on_c, 1, 56, 64
4, 185, Note_on_c, 1, 56, 0
4, 192, Note_on_c, 1, 52, 64
4, 281, Note_on_c, 1, 52, 0
4, 288, Note_on_c, 1, 57, 64
4, 465, Note_on_c, 1, 57, 0
4, 480, Note_on_c, 1, 56, 64
4, 569, Note_on_c, 1, 56, 0
4, 672, Note_on_c, 1, 59, 64
4, 672, Note_on_c, 1, 51, 64
4, 761, Note_on_c, 1, 59, 0
4, 761, Note_on_c, 1, 51, 0
4, 768, Note_on_c, 1, 59, 64
4, 768, Note_on_c, 1, 52, 64
4, 857, Note_on_c, 1, 59, 0
4, 857, Note_on_c, 1, 52, 0
4, 864, Note_on_c, 1, 57, 64
4, 864, Note_on_c, 1, 47, 64
4, 953, Note_on_c, 1, 57, 0
4, 953, Note_on_c, 1, 47, 0
4, 960, Note_on_c, 1, 56, 64
4, 960, Note_on_c, 1, 52, 64
4, 1049, Note_on_c, 1, 56, 0
4, 1049, Note_on_c, 1, 52, 0
4, 1248, Note_on_c, 1, 59, 64
4, 1248, Note_on_c, 1, 51, 64
4, 1337, Note_on_c, 1, 59, 0
4, 1337, Note_on_c, 1, 51, 0
4, 1344, Note_on_c, 1, 59, 64
4, 1344, Note_on_c, 1, 52, 64
4, 1433, Note_on_c, 1, 59, 0
4, 1433, Note_on_c, 1, 52, 0
4, 1440, Note_on_c, 1, 57, 64
4, 1440, Note_on_c, 1, 47, 64
4, 1529, Note_on_c, 1, 57, 0
4, 1529, Note_on_c, 1, 47, 0
4, 1536, Note_on_c, 1, 56, 64
4, 1536, Note_on_c, 1, 52, 64
4, 1625, Note_on_c, 1, 56, 0
4, 1625, Note_on_c, 1, 52, 0
4, 1728, Note_on_c, 1, 52, 64
4, 1817, Note_on_c, 1, 52, 0
4, 1824, Note_on_c, 1, 56, 64
4, 1913, Note_on_c, 1, 56, 0
4, 1920, Note_on_c, 1, 52, 64
4, 2009, Note_on_c, 1, 52, 0
4, 2016, Note_on_c, 1, 57, 75
4, 2193, Note_on_c, 1, 57, 0
4, 2208, Note_on_c, 1, 56, 77
4, 2297, Note_on_c, 1, 56, 0
4, 2400, Note_on_c, 1, 63, 80
4, 2489, Note_on_c, 1, 63, 0
4, 2496, Note_on_c, 1, 64, 80
4, 2585, Note_on_c, 1, 64, 0
4, 2592, Note_on_c, 1, 59, 80
4, 2681, Note_on_c, 1, 59, 0
4, 2688, Note_on_c, 1, 71, 80
4, 2777, Note_on_c, 1, 71, 0
4, 2976, Note_on_c, 1, 75, 75
4, 3065, Note_on_c, 1, 75, 0
4, 3072, Note_on_c, 1, 71, 75
4, 3161, Note_on_c, 1, 71, 0
4, 3168, Note_on_c, 1, 73, 75
4, 3257, Note_on_c, 1, 73, 0
4, 3264, Note_on_c, 1, 70, 75
4, 3353, Note_on_c, 1, 70, 0
4, 3360, Note_on_c, 1, 71, 75
4, 3449, Note_on_c, 1, 71, 0
4, 3552, Note_on_c, 1, 68, 75
4, 3552, Note_on_c, 1, 64, 75
4, 3641, Note_on_c, 1, 68, 0
4, 3641, Note_on_c, 1, 64, 0
4, 3648, Note_on_c, 1, 68, 75
4, 3648, Note_on_c, 1, 64, 75
4, 3737, Note_on_c, 1, 68, 0
4, 3737, Note_on_c, 1, 64, 0
4, 3744, Note_on_c, 1, 66, 75
4, 3833, Note_on_c, 1, 66, 0
4, 3840, Note_on_c, 1, 61, 75
4, 3929, Note_on_c, 1, 61, 0
4, 3936, Note_on_c, 1, 54, 75
4, 4025, Note_on_c, 1, 54, 0
4, 4128, Note_on_c, 1, 59, 75
4, 4128, Note_on_c, 1, 51, 75
4, 4217, Note_on_c, 1, 59, 0
4, 4217, Note_on_c, 1, 51, 0
4, 4224, Note_on_c, 1, 59, 75
4, 4224, Note_on_c, 1, 51, 75
4, 4313, Note_on_c, 1, 59, 0
4, 4313, Note_on_c, 1, 51, 0
4, 4320, Note_on_c, 1, 59, 75
4, 4320, Note_on_c, 1, 52, 75
4, 4409, Note_on_c, 1, 59, 0
4, 4409, Note_on_c, 1, 52, 0
4, 4416, Note_on_c, 1, 64, 75
4, 4505, Note_on_c, 1, 64, 0
4, 4512, Note_on_c, 1, 64, 75
4, 4601, Note_on_c, 1, 64, 0
4, 4608, Note_on_c, 1, 63, 75
4, 4697, Note_on_c, 1, 63, 0
4, 4896, Note_on_c, 1, 52, 75
4, 4985, Note_on_c, 1, 52, 0
4, 4992, Note_on_c, 1, 64, 75
4, 5081, Note_on_c, 1, 64, 0
4, 5088, Note_on_c, 1, 64, 75
4, 5177, Note_on_c, 1, 64, 0
4, 5184, Note_on_c, 1, 63, 75
4, 5273, Note_on_c, 1, 63, 0
4, 5472, Note_on_c, 1, 64, 75
4, 5561, Note_on_c, 1, 64, 0
4, 5760, Note_on_c, 1, 63, 75
4, 5849, Note_on_c, 1, 63, 0
4, 5856, Note_on_c, 1, 64, 75
4, 5945, Note_on_c, 1, 64, 0
4, 5952, Note_on_c, 1, 66, 75
4, 6041, Note_on_c, 1, 66, 0
4, 6144, Note_on_c, 1, 59, 75
4, 6144, Note_on_c, 1, 51, 75
4, 6233, Note_on_c, 1, 59, 0
4, 6233, Note_on_c, 1, 51, 0
4, 6240, Note_on_c, 1, 59, 75
4, 6240, Note_on_c, 1, 51, 75
4, 6329, Note_on_c, 1, 59, 0
4, 6329, Note_on_c, 1, 51, 0
4, 6432, Note_on_c, 1, 59, 75
4, 6432, Note_on_c, 1, 52, 75
4, 6521, Note_on_c, 1, 59, 0
4, 6521, Note_on_c, 1, 52, 0
4, 6528, Note_on_c, 1, 54, 75
4, 6528, Note_on_c, 1, 52, 75
4, 6617, Note_on_c, 1, 54, 0
4, 6617, Note_on_c, 1, 52, 0
4, 6624, Note_on_c, 1, 54, 75
4, 6624, Note_on_c, 1, 51, 75
4, 6713, Note_on_c, 1, 54, 0
4, 6713, Note_on_c, 1, 51, 0
4, 7008, Note_on_c, 1, 59, 75
4, 7008, Note_on_c, 1, 52, 75
4, 7097, Note_on_c, 1, 59, 0
4, 7097, Note_on_c, 1, 52, 0
4, 7104, Note_on_c, 1, 54, 75
4, 7104, Note_on_c, 1, 52, 75
4, 7193, Note_on_c, 1, 54, 0
4, 7193, Note_on_c, 1, 52, 0
4, 7200, Note_on_c, 1, 54, 75
4, 7200, Note_on_c, 1, 51, 75
4, 7289, Note_on_c, 1, 54, 0
4, 7289, Note_on_c, 1, 51, 0
4, 7488, Note_on_c, 1, 56, 75
4, 7488, Note_on_c, 1, 52, 75
4, 7577, Note_on_c, 1, 56, 0
4, 7577, Note_on_c, 1, 52, 0
4, 7872, Note_on_c, 1, 63, 75
4, 7872, Note_on_c, 1, 54, 75
4, 7961, Note_on_c, 1, 63, 0
4, 7961, Note_on_c, 1, 54, 0
4, 7968, Note_on_c, 1, 61, 75
4, 7968, Note_on_c, 1, 54, 75
4, 8057, Note_on_c, 1, 61, 0
4, 8057, Note_on_c, 1, 54, 0
4, 8064, Note_on_c, 1, 59, 75
4, 8153, Note_on_c, 1, 59, 0
4, 8160, Note_on_c, 1, 54, 75
4, 8249, Note_on_c, 1, 54, 0
4, 8256, Note_on_c, 1, 47, 75
4, 8345, Note_on_c, 1, 47, 0
4, 8352, Note_on_c, 1, 52, 64
4, 8441, Note_on_c, 1, 52, 0
4, 8448, Note_on_c, 1, 56, 64
4, 8537, Note_on_c, 1, 56, 0
4, 8544, Note_on_c, 1, 52, 64
4, 8633, Note_on_c, 1, 52, 0
4, 8640, Note_on_c, 1, 57, 64
4, 8817, Note_on_c, 1, 57, 0
4, 8832, Note_on_c, 1, 56, 64
4, 8921, Note_on_c, 1, 56, 0
4, 9024, Note_on_c, 1, 59, 64
4, 9024, Note_on_c, 1, 51, 64
4, 9113, Note_on_c, 1, 59, 0
4, 9113, Note_on_c, 1, 51, 0
4, 9120, Note_on_c, 1, 59, 64
4, 9120, Note_on_c, 1, 52, 64
4, 9209, Note_on_c, 1, 59, 0
4, 9209, Note_on_c, 1, 52, 0
4, 9216, Note_on_c, 1, 57, 64
4, 9216, Note_on_c, 1, 47, 64
4, 9305, Note_on_c, 1, 57, 0
4, 9305, Note_on_c, 1, 47, 0
4, 9312, Note_on_c, 1, 56, 64
4, 9312, Note_on_c, 1, 52, 64
4, 9401, Note_on_c, 1, 56, 0
4, 9401, Note_on_c, 1, 52, 0
4, 9600, Note_on_c, 1, 59, 64
4, 9600, Note_on_c, 1, 51, 64
4, 9689, Note_on_c, 1, 59, 0
4, 9689, Note_on_c, 1, 51, 0
4, 9696, Note_on_c, 1, 59, 64
4, 9696, Note_on_c, 1, 52, 64
4, 9785, Note_on_c, 1, 59, 0
4, 9785, Note_on_c, 1, 52, 0
4, 9792, Note_on_c, 1, 57, 64
4, 9792, Note_on_c, 1, 47, 64
4, 9881, Note_on_c, 1, 57, 0
4, 9881, Note_on_c, 1, 47, 0
4, 9888, Note_on_c, 1, 56, 64
4, 9888, Note_on_c, 1, 52, 64
4, 9977, Note_on_c, 1, 56, 0
4, 9977, Note_on_c, 1, 52, 0
4, 10080, Note_on_c, 1, 52, 64
4, 10169, Note_on_c, 1, 52, 0
4, 10176, Note_on_c, 1, 56, 64
4, 10265, Note_on_c, 1, 56, 0
4, 10272, Note_on_c, 1, 52, 64
4, 10361, Note_on_c, 1, 52, 0
4, 10368, Note_on_c, 1, 57, 75
4, 10545, Note_on_c, 1, 57, 0
4, 10560, Note_on_c, 1, 56, 77
4, 10649, Note_on_c, 1, 56, 0
4, 10752, Note_on_c, 1, 63, 80
4, 10841, Note_on_c, 1, 63, 0
4, 10848, Note_on_c, 1, 64, 80
4, 10937, Note_on_c, 1, 64, 0
4, 10944, Note_on_c, 1, 59, 80
4, 11033, Note_on_c, 1, 59, 0
4, 11040, Note_on_c, 1, 71, 80
4, 11129, Note_on_c, 1, 71, 0
4, 11328, Note_on_c, 1, 75, 75
4, 11417, Note_on_c, 1, 75, 0
4, 11424, Note_on_c, 1, 71, 75
4, 11513, Note_on_c, 1, 71, 0
4, 11520, Note_on_c, 1, 73, 75
4, 11609, Note_on_c, 1, 73, 0
4, 11616, Note_on_c, 1, 70, 75
4, 11705, Note_on_c, 1, 70, 0
4, 11712, Note_on_c, 1, 71, 75
4, 11801, Note_on_c, 1, 71, 0
4, 11904, Note_on_c, 1, 68, 75
4, 11904, Note_on_c, 1, 64, 75
4, 11993, Note_on_c, 1, 68, 0
4, 11993, Note_on_c, 1, 64, 0
4, 12000, Note_on_c, 1, 68, 75
4, 12000, Note_on_c, 1, 64, 75
4, 12089, Note_on_c, 1, 68, 0
4, 12089, Note_on_c, 1, 64, 0
4, 12096, Note_on_c, 1, 66, 75
4, 12185, Note_on_c, 1, 66, 0
4, 12192, Note_on_c, 1, 61, 75
4, 12281, Note_on_c, 1, 61, 0
4, 12288, Note_on_c, 1, 54, 75
4, 12377, Note_on_c, 1, 54, 0
4, 12480, Note_on_c, 1, 59, 75
4, 12480, Note_on_c, 1, 51, 75
4, 12569, Note_on_c, 1, 59, 0
4, 12569, Note_on_c, 1, 51, 0
4, 12576, Note_on_c, 1, 59, 75
4, 12576, Note_on_c, 1, 51, 75
4, 12665, Note_on_c, 1, 59, 0
4, 12665, Note_on_c, 1, 51, 0
4, 12672, Note_on_c, 1, 59, 75
4, 12672, Note_on_c, 1, 52, 75
4, 12761, Note_on_c, 1, 59, 0
4, 12761, Note_on_c, 1, 52, 0
4, 12768, Note_on_c, 1, 64, 75
4, 12857, Note_on_c, 1, 64, 0
4, 12864, Note_on_c, 1, 64, 75
4, 12953, Note_on_c, 1, 64, 0
4, 12960, Note_on_c, 1, 63, 75
4, 13049, Note_on_c, 1, 63, 0
4, 13248, Note_on_c, 1, 52, 75
4, 13337, Note_on_c, 1, 52, 0
4, 13344, Note_on_c, 1, 64, 75
4, 13433, Note_on_c, 1, 64, 0
4, 13440, Note_on_c, 1, 64, 75
4, 13529, Note_on_c, 1, 64, 0
4, 13536, Note_on_c, 1, 63, 75
4, 13625, Note_on_c, 1, 63, 0
4, 13824, Note_on_c, 1, 64, 75
4, 13913, Note_on_c, 1, 64, 0
4, 14112, Note_on_c, 1, 63, 75
4, 14201, Note_on_c, 1, 63, 0
4, 14208, Note_on_c, 1, 64, 75
4, 14297, Note_on_c, 1, 64, 0
4, 14304, Note_on_c, 1, 66, 75
4, 14393, Note_on_c, 1, 66, 0
4, 14496, Note_on_c, 1, 59, 75
4, 14496, Note_on_c, 1, 51, 75
4, 14585, Note_on_c, 1, 59, 0
4, 14585, Note_on_c, 1, 51, 0
4, 14592, Note_on_c, 1, 59, 75
4, 14592, Note_on_c, 1, 51, 75
4, 14681, Note_on_c, 1, 59, 0
4, 14681, Note_on_c, 1, 51, 0
4, 14784, Note_on_c, 1, 59, 75
4, 14784, Note_on_c, 1, 52, 75
4, 14873, Note_on_c, 1, 59, 0
4, 14873, Note_on_c, 1, 52, 0
4, 14880, Note_on_c, 1, 54, 75
4, 14880, Note_on_c, 1, 52, 75
4, 14969, Note_on_c, 1, 54, 0
4, 14969, Note_on_c, 1, 52, 0
4, 14976, Note_on_c, 1, 54, 75
4, 14976, Note_on_c, 1, 51, 75
4, 15065, Note_on_c, 1, 54, 0
4, 15065, Note_on_c, 1, 51, 0
4, 15360, Note_on_c, 1, 59, 75
4, 15360, Note_on_c, 1, 52, 75
4, 15449, Note_on_c, 1, 59, 0
4, 15449, Note_on_c, 1, 52, 0
4, 15456, Note_on_c, 1, 54, 75
4, 15456, Note_on_c, 1, 52, 75
4, 15545, Note_on_c, 1, 54, 0
4, 15545, Note_on_c, 1, 52, 0
4, 15552, Note_on_c, 1, 54, 75
4, 15552, Note_on_c, 1, 51, 75
4, 15641, Note_on_c, 1, 54, 0
4, 15641, Note_on_c, 1, 51, 0
4, 15840, Note_on_c, 1, 56, 75
4, 15840, Note_on_c, 1, 52, 75
4, 15929, Note_on_c, 1, 56, 0
4, 15929, Note_on_c, 1, 52, 0
4, 16224, Note_on_c, 1, 63, 75
4, 16224, Note_on_c, 1, 54, 75
4, 16313, Note_on_c, 1, 63, 0
4, 16313, Note_on_c, 1, 54, 0
4, 16320, Note_on_c, 1, 61, 75
4, 16320, Note_on_c, 1, 54, 75
4, 16409, Note_on_c, 1, 61, 0
4, 16409, Note_on_c, 1, 54, 0
4, 16416, Note_on_c, 1, 59, 75
4, 16505, Note_on_c, 1, 59, 0
4, 16512, Note_on_c, 1, 54, 75
4, 16601, Note_on_c, 1, 54, 0
4, 16608, Note_on_c, 1, 47, 75
4, 16697, Note_on_c, 1, 47, 0
4, 16704, Note_on_c, 1, 47, 75
4, 16793, Note_on_c, 1, 47, 0
4, 16800, Note_on_c, 1, 35, 75
4, 16889, Note_on_c, 1, 35, 0
4, 16992, Note_on_c, 1, 59, 75
4, 17081, Note_on_c, 1, 59, 0
4, 17088, Note_on_c, 1, 61, 75
4, 17177, Note_on_c, 1, 61, 0
4, 17280, Note_on_c, 1, 45, 75
4, 17280, Note_on_c, 1, 33, 75
4, 17369, Note_on_c, 1, 45, 0
4, 17369, Note_on_c, 1, 33, 0
4, 17616, Note_on_c, 1, 61, 75
4, 17661, Note_on_c, 1, 61, 0
4, 17664, Note_on_c, 1, 59, 75
4, 17709, Note_on_c, 1, 59, 0
4, 17712, Note_on_c, 1, 57, 75
4, 17757, Note_on_c, 1, 57, 0
4, 17760, Note_on_c, 1, 56, 75
4, 17805, Note_on_c, 1, 56, 0
4, 17808, Note_on_c, 1, 52, 75
4, 17853, Note_on_c, 1, 52, 0
4, 17856, Note_on_c, 1, 51, 75
4, 17901, Note_on_c, 1, 51, 0
4, 17904, Note_on_c, 1, 49, 75
4, 17949, Note_on_c, 1, 49, 0
4, 17952, Note_on_c, 1, 47, 75
4, 17997, Note_on_c, 1, 47, 0
4, 18000, Note_on_c, 1, 51, 75
4, 18045, Note_on_c, 1, 51, 0
4, 18048, Note_on_c, 1, 52, 75
4, 18093, Note_on_c, 1, 52, 0
4, 18096, Note_on_c, 1, 46, 75
4, 18141, Note_on_c, 1, 46, 0
4, 18144, Note_on_c, 1, 47, 75
4, 18189, Note_on_c, 1, 47, 0
4, 18192, Note_on_c, 1, 35, 75
4, 18237, Note_on_c, 1, 35, 0
4, 18240, Note_on_c, 1, 47, 75
4, 18285, Note_on_c, 1, 47, 0
4, 18288, Note_on_c, 1, 49, 75
4, 18333, Note_on_c, 1, 49, 0
4, 18336, Note_on_c, 1, 47, 75
4, 18381, Note_on_c, 1, 47, 0
4, 18384, Note_on_c, 1, 45, 75
4, 18429, Note_on_c, 1, 45, 0
4, 18432, Note_on_c, 1, 44, 75
4, 18477, Note_on_c, 1, 44, 0
4, 18480, Note_on_c, 1, 42, 75
4, 18525, Note_on_c, 1, 42, 0
4, 18528, Note_on_c, 1, 41, 75
4, 18573, Note_on_c, 1, 41, 0
4, 18576, Note_on_c, 1, 53, 75
4, 18621, Note_on_c, 1, 53, 0
4, 18624, Note_on_c, 1, 51, 75
4, 18669, Note_on_c, 1, 51, 0
4, 18672, Note_on_c, 1, 49, 75
4, 18717, Note_on_c, 1, 49, 0
4, 18720, Note_on_c, 1, 54, 75
4, 18765, Note_on_c, 1, 54, 0
4, 18768, Note_on_c, 1, 52, 75
4, 18813, Note_on_c, 1, 52, 0
4, 18816, Note_on_c, 1, 51, 75
4, 18861, Note_on_c, 1, 51, 0
4, 18864, Note_on_c, 1, 51, 75
4, 18909, Note_on_c, 1, 51, 0
4, 18912, Note_on_c, 1, 49, 75
4, 18957, Note_on_c, 1, 49, 0
4, 18960, Note_on_c, 1, 47, 75
4, 19005, Note_on_c, 1, 47, 0
4, 19008, Note_on_c, 1, 52, 75
4, 19053, Note_on_c, 1, 52, 0
4, 19056, Note_on_c, 1, 40, 75
4, 19101, Note_on_c, 1, 40, 0
4, 19104, Note_on_c, 1, 49, 75
4, 19149, Note_on_c, 1, 49, 0
4, 19152, Note_on_c, 1, 47, 75
4, 19197, Note_on_c, 1, 47, 0
4, 19200, Note_on_c, 1, 45, 75
4, 19245, Note_on_c, 1, 45, 0
4, 19248, Note_on_c, 1, 46, 75
4, 19293, Note_on_c, 1, 46, 0
4, 19296, Note_on_c, 1, 47, 75
4, 19341, Note_on_c, 1, 47, 0
4, 19344, Note_on_c, 1, 54, 75
4, 19389, Note_on_c, 1, 54, 0
4, 19392, Note_on_c, 1, 59, 75
4, 19437, Note_on_c, 1, 59, 0
4, 19440, Note_on_c, 1, 57, 75
4, 19485, Note_on_c, 1, 57, 0
4, 19488, Note_on_c, 1, 56, 75
4, 19533, Note_on_c, 1, 56, 0
4, 19536, Note_on_c, 1, 54, 75
4, 19581, Note_on_c, 1, 54, 0
4, 19584, Note_on_c, 1, 52, 75
4, 19673, Note_on_c, 1, 52, 0
4, 19680, Note_on_c, 1, 40, 75
4, 19769, Note_on_c, 1, 40, 0
4, 19872, Note_on_c, 1, 57, 75
4, 20049, Note_on_c, 1, 57, 0
4, 20064, Note_on_c, 1, 56, 75
4, 20153, Note_on_c, 1, 56, 0
4, 20256, Note_on_c, 1, 59, 75
4, 20256, Note_on_c, 1, 51, 75
4, 20345, Note_on_c, 1, 59, 0
4, 20345, Note_on_c, 1, 51, 0
4, 20352, Note_on_c, 1, 59, 75
4, 20352, Note_on_c, 1, 52, 75
4, 20441, Note_on_c, 1, 59, 0
4, 20441, Note_on_c, 1, 52, 0
4, 20448, Note_on_c, 1, 57, 75
4, 20448, Note_on_c, 1, 47, 75
4, 20537, Note_on_c, 1, 57, 0
4, 20537, Note_on_c, 1, 47, 0
4, 20544, Note_on_c, 1, 56, 75
4, 20544, Note_on_c, 1, 52, 75
4, 20633, Note_on_c, 1, 56, 0
4, 20633, Note_on_c, 1, 52, 0
4, 20736, Note_on_c, 1, 56, 75
4, 20825, Note_on_c, 1, 56, 0
4, 20832, Note_on_c, 1, 54, 75
4, 20899, Note_on_c, 1, 54, 0
4, 20904, Note_on_c, 1, 51, 75
4, 20927, Note_on_c, 1, 51, 0
4, 20928, Note_on_c, 1, 52, 75
4, 20995, Note_on_c, 1, 52, 0
4, 21000, Note_on_c, 1, 56, 75
4, 21023, Note_on_c, 1, 56, 0
4, 21024, Note_on_c, 1, 59, 75
4, 21113, Note_on_c, 1, 59, 0
4, 21120, Note_on_c, 1, 57, 75
4, 21187, Note_on_c, 1, 57, 0
4, 21192, Note_on_c, 1, 54, 75
4, 21215, Note_on_c, 1, 54, 0
4, 21216, Note_on_c, 1, 56, 75
4, 21283, Note_on_c, 1, 56, 0
4, 21288, Note_on_c, 1, 52, 75
4, 21311, Note_on_c, 1, 52, 0
4, 21312, Note_on_c, 1, 56, 80
4, 21401, Note_on_c, 1, 56, 0
4, 21408, Note_on_c, 1, 54, 80
4, 21475, Note_on_c, 1, 54, 0
4, 21480, Note_on_c, 1, 51, 80
4, 21503, Note_on_c, 1, 51, 0
4, 21504, Note_on_c, 1, 52, 80
4, 21571, Note_on_c, 1, 52, 0
4, 21576, Note_on_c, 1, 56, 80
4, 21599, Note_on_c, 1, 56, 0
4, 21600, Note_on_c, 1, 59, 80
4, 21689, Note_on_c, 1, 59, 0
4, 21696, Note_on_c, 1, 57, 80
4, 21763, Note_on_c, 1, 57, 0
4, 21768, Note_on_c, 1, 54, 80
4, 21791, Note_on_c, 1, 54, 0
4, 21792, Note_on_c, 1, 56, 80
4, 21881, Note_on_c, 1, 56, 0
4, 21984, Note_on_c, 1, 64, 70
4, 21984, Note_on_c, 1, 61, 70
4, 22078, Note_on_c, 1, 64, 0
4, 22078, Note_on_c, 1, 61, 0
4, 22080, Note_on_c, 1, 64, 70
4, 22080, Note_on_c, 1, 61, 70
4, 22174, Note_on_c, 1, 64, 0
4, 22174, Note_on_c, 1, 61, 0
4, 22272, Note_on_c, 1, 66, 70
4, 22272, Note_on_c, 1, 63, 70
4, 22366, Note_on_c, 1, 66, 0
4, 22366, Note_on_c, 1, 63, 0
4, 22368, Note_on_c, 1, 66, 70
4, 22368, Note_on_c, 1, 63, 70
4, 22462, Note_on_c, 1, 66, 0
4, 22462, Note_on_c, 1, 63, 0
4, 22464, Note_on_c, 1, 52, 80
4, 22464, Note_on_c, 1, 40, 80
4, 22553, Note_on_c, 1, 52, 0
4, 22553, Note_on_c, 1, 40, 0
4, 22560, Note_on_c, 1, 54, 80
4, 22560, Note_on_c, 1, 42, 80
4, 22649, Note_on_c, 1, 54, 0
4, 22649, Note_on_c, 1, 42, 0
4, 22656, Note_on_c, 1, 56, 80
4, 22656, Note_on_c, 1, 44, 80
4, 22745, Note_on_c, 1, 56, 0
4, 22745, Note_on_c, 1, 44, 0
4, 22752, Note_on_c, 1, 57, 80
4, 22752, Note_on_c, 1, 45, 80
4, 22841, Note_on_c, 1, 57, 0
4, 22841, Note_on_c, 1, 45, 0
4, 22848, Note_on_c, 1, 54, 80
4, 22848, Note_on_c, 1, 42, 80
4, 22937, Note_on_c, 1, 54, 0
4, 22937, Note_on_c, 1, 42, 0
4, 22944, Note_on_c, 1, 56, 80
4, 22944, Note_on_c, 1, 44, 80
4, 23033, Note_on_c, 1, 56, 0
4, 23033, Note_on_c, 1, 44, 0
4, 23040, Note_on_c, 1, 57, 80
4, 23040, Note_on_c, 1, 45, 80
4, 23129, Note_on_c, 1, 57, 0
4, 23129, Note_on_c, 1, 45, 0
4, 23136, Note_on_c, 1, 59, 80
4, 23136, Note_on_c, 1, 47, 80
4, 23225, Note_on_c, 1, 59, 0
4, 23225, Note_on_c, 1, 47, 0
4, 23232, Note_on_c, 1, 47, 80
4, 23232, Note_on_c, 1, 35, 80
4, 23321, Note_on_c, 1, 47, 0
4, 23321, Note_on_c, 1, 35, 0
4, 23328, Note_on_c, 1, 52, 80
4, 23417, Note_on_c, 1, 52, 0
4, 23424, Note_on_c, 1, 40, 80
4, 23513, Note_on_c, 1, 40, 0
4, 23616, Note_on_c, 1, 52, 75
4, 23705, Note_on_c, 1, 52, 0
4, 23712, Note_on_c, 1, 56, 75
4, 23801, Note_on_c, 1, 56, 0
4, 23808, Note_on_c, 1, 52, 75
4, 23897, Note_on_c, 1, 52, 0
4, 23904, Note_on_c, 1, 45, 75
4, 23993, Note_on_c, 1, 45, 0
4, 24000, Note_on_c, 1, 57, 75
4, 24089, Note_on_c, 1, 57, 0
4, 24096, Note_on_c, 1, 69, 75
4, 24185, Note_on_c, 1, 69, 0
4, 24192, Note_on_c, 1, 68, 75
4, 24281, Note_on_c, 1, 68, 0
4, 24480, Note_on_c, 1, 45, 75
4, 24569, Note_on_c, 1, 45, 0
4, 24576, Note_on_c, 1, 57, 75
4, 24665, Note_on_c, 1, 57, 0
4, 24672, Note_on_c, 1, 69, 75
4, 24761, Note_on_c, 1, 69, 0
4, 24768, Note_on_c, 1, 68, 75
4, 24857, Note_on_c, 1, 68, 0
4, 25056, Note_on_c, 1, 45, 75
4, 25145, Note_on_c, 1, 45, 0
4, 25344, Note_on_c, 1, 56, 75
4, 25433, Note_on_c, 1, 56, 0
4, 25440, Note_on_c, 1, 57, 75
4, 25529, Note_on_c, 1, 57, 0
4, 25536, Note_on_c, 1, 59, 75
4, 25625, Note_on_c, 1, 59, 0
4, 25728, Note_on_c, 1, 64, 75
4, 25728, Note_on_c, 1, 56, 75
4, 25817, Note_on_c, 1, 64, 0
4, 25817, Note_on_c, 1, 56, 0
4, 25824, Note_on_c, 1, 64, 75
4, 25824, Note_on_c, 1, 56, 75
4, 25913, Note_on_c, 1, 64, 0
4, 25913, Note_on_c, 1, 56, 0
4, 26016, Note_on_c, 1, 61, 75
4, 26016, Note_on_c, 1, 57, 75
4, 26105, Note_on_c, 1, 61, 0
4, 26105, Note_on_c, 1, 57, 0
4, 26112, Note_on_c, 1, 59, 75
4, 26112, Note_on_c, 1, 57, 75
4, 26201, Note_on_c, 1, 59, 0
4, 26201, Note_on_c, 1, 57, 0
4, 26208, Note_on_c, 1, 59, 75
4, 26208, Note_on_c, 1, 56, 75
4, 26297, Note_on_c, 1, 59, 0
4, 26297, Note_on_c, 1, 56, 0
4, 26592, Note_on_c, 1, 61, 75
4, 26592, Note_on_c, 1, 57, 75
4, 26681, Note_on_c, 1, 61, 0
4, 26681, Note_on_c, 1, 57, 0
4, 26688, Note_on_c, 1, 59, 75
4, 26688, Note_on_c, 1, 57, 75
4, 26777, Note_on_c, 1, 59, 0
4, 26777, Note_on_c, 1, 57, 0
4, 26784, Note_on_c, 1, 59, 75
4, 26784, Note_on_c, 1, 56, 75
4, 26873, Note_on_c, 1, 59, 0
4, 26873, Note_on_c, 1, 56, 0
4, 27072, Note_on_c, 1, 61, 75
4, 27072, Note_on_c, 1, 57, 75
4, 27161, Note_on_c, 1, 61, 0
4, 27161, Note_on_c, 1, 57, 0
4, 27456, Note_on_c, 1, 56, 75
4, 27456, Note_on_c, 1, 47, 75
4, 27545, Note_on_c, 1, 56, 0
4, 27545, Note_on_c, 1, 47, 0
4, 27552, Note_on_c, 1, 54, 75
4, 27552, Note_on_c, 1, 47, 75
4, 27641, Note_on_c, 1, 54, 0
4, 27641, Note_on_c, 1, 47, 0
4, 27648, Note_on_c, 1, 52, 75
4, 27737, Note_on_c, 1, 52, 0
4, 27744, Note_on_c, 1, 47, 75
4, 27833, Note_on_c, 1, 47, 0
4, 27840, Note_on_c, 1, 40, 75
4, 27929, Note_on_c, 1, 40, 0
4, 27936, Note_on_c, 1, 47, 75
4, 28025, Note_on_c, 1, 47, 0
4, 28032, Note_on_c, 1, 35, 75
4, 28121, Note_on_c, 1, 35, 0
4, 28224, Note_on_c, 1, 59, 75
4, 28313, Note_on_c, 1, 59, 0
4, 28320, Note_on_c, 1, 61, 75
4, 28409, Note_on_c, 1, 61, 0
4, 28512, Note_on_c, 1, 45, 75
4, 28512, Note_on_c, 1, 33, 75
4, 28601, Note_on_c, 1, 45, 0
4, 28601, Note_on_c, 1, 33, 0
4, 28848, Note_on_c, 1, 61, 75
4, 28893, Note_on_c, 1, 61, 0
4, 28896, Note_on_c, 1, 59, 75
4, 28941, Note_on_c, 1, 59, 0
4, 28944, Note_on_c, 1, 57, 75
4, 28989, Note_on_c, 1, 57, 0
4, 28992, Note_on_c, 1, 56, 75
4, 29037, Note_on_c, 1, 56, 0
4, 29040, Note_on_c, 1, 52, 75
4, 29085, Note_on_c, 1, 52, 0
4, 29088, Note_on_c, 1, 51, 75
4, 29133, Note_on_c, 1, 51, 0
4, 29136, Note_on_c, 1, 49, 75
4, 29181, Note_on_c, 1, 49, 0
4, 29184, Note_on_c, 1, 47, 75
4, 29229, Note_on_c, 1, 47, 0
4, 29232, Note_on_c, 1, 51, 75
4, 29277, Note_on_c, 1, 51, 0
4, 29280, Note_on_c, 1, 52, 75
4, 29325, Note_on_c, 1, 52, 0
4, 29328, Note_on_c, 1, 46, 75
4, 29373, Note_on_c, 1, 46, 0
4, 29376, Note_on_c, 1, 47, 75
4, 29421, Note_on_c, 1, 47, 0
4, 29424, Note_on_c, 1, 35, 75
4, 29469, Note_on_c, 1, 35, 0
4, 29472, Note_on_c, 1, 47, 75
4, 29517, Note_on_c, 1, 47, 0
4, 29520, Note_on_c, 1, 49, 75
4, 29565, Note_on_c, 1, 49, 0
4, 29568, Note_on_c, 1, 47, 75
4, 29613, Note_on_c, 1, 47, 0
4, 29616, Note_on_c, 1, 45, 75
4, 29661, Note_on_c, 1, 45, 0
4, 29664, Note_on_c, 1, 44, 75
4, 29709, Note_on_c, 1, 44, 0
4, 29712, Note_on_c, 1, 42, 75
4, 29757, Note_on_c, 1, 42, 0
4, 29760, Note_on_c, 1, 41, 75
4, 29805, Note_on_c, 1, 41, 0
4, 29808, Note_on_c, 1, 53, 75
4, 29853, Note_on_c, 1, 53, 0
4, 29856, Note_on_c, 1, 51, 75
4, 29901, Note_on_c, 1, 51, 0
4, 29904, Note_on_c, 1, 49, 75
4, 29949, Note_on_c, 1, 49, 0
4, 29952, Note_on_c, 1, 54, 75
4, 29997, Note_on_c, 1, 54, 0
4, 30000, Note_on_c, 1, 52, 75
4, 30045, Note_on_c, 1, 52, 0
4, 30048, Note_on_c, 1, 51, 75
4, 30093, Note_on_c, 1, 51, 0
4, 30096, Note_on_c, 1, 51, 75
4, 30141, Note_on_c, 1, 51, 0
4, 30144, Note_on_c, 1, 49, 75
4, 30189, Note_on_c, 1, 49, 0
4, 30192, Note_on_c, 1, 47, 75
4, 30237, Note_on_c, 1, 47, 0
4, 30240, Note_on_c, 1, 52, 75
4, 30285, Note_on_c, 1, 52, 0
4, 30288, Note_on_c, 1, 40, 75
4, 30333, Note_on_c, 1, 40, 0
4, 30336, Note_on_c, 1, 49, 75
4, 30381, Note_on_c, 1, 49, 0
4, 30384, Note_on_c, 1, 47, 75
4, 30429, Note_on_c, 1, 47, 0
4, 30432, Note_on_c, 1, 45, 75
4, 30477, Note_on_c, 1, 45, 0
4, 30480, Note_on_c, 1, 46, 75
4, 30525, Note_on_c, 1, 46, 0
4, 30528, Note_on_c, 1, 47, 75
4, 30573, Note_on_c, 1, 47, 0
4, 30576, Note_on_c, 1, 54, 75
4, 30621, Note_on_c, 1, 54, 0
4, 30624, Note_on_c, 1, 59, 75
4, 30669, Note_on_c, 1, 59, 0
4, 30672, Note_on_c, 1, 57, 75
4, 30717, Note_on_c, 1, 57, 0
4, 30720, Note_on_c, 1, 56, 75
4, 30765, Note_on_c, 1, 56, 0
4, 30768, Note_on_c, 1, 54, 75
4, 30813, Note_on_c, 1, 54, 0
4, 30816, Note_on_c, 1, 52, 75
4, 30905, Note_on_c, 1, 52, 0
4, 30912, Note_on_c, 1, 40, 75
4, 31001, Note_on_c, 1, 40, 0
4, 31104, Note_on_c, 1, 57, 75
4, 31281, Note_on_c, 1, 57, 0
4, 31296, Note_on_c, 1, 56, 75
4, 31385, Note_on_c, 1, 56, 0
4, 31488, Note_on_c, 1, 59, 75
4, 31488, Note_on_c, 1, 51, 75
4, 31577, Note_on_c, 1, 59, 0
4, 31577, Note_on_c, 1, 51, 0
4, 31584, Note_on_c, 1, 59, 75
4, 31584, Note_on_c, 1, 52, 75
4, 31673, Note_on_c, 1, 59, 0
4, 31673, Note_on_c, 1, 52, 0
4, 31680, Note_on_c, 1, 57, 75
4, 31680, Note_on_c, 1, 47, 75
4, 31769, Note_on_c, 1, 57, 0
4, 31769, Note_on_c, 1, 47, 0
4, 31776, Note_on_c, 1, 56, 75
4, 31776, Note_on_c, 1, 52, 75
4, 31865, Note_on_c, 1, 56, 0
4, 31865, Note_on_c, 1, 52, 0
4, 31968, Note_on_c, 1, 56, 75
4, 32057, Note_on_c, 1, 56, 0
4, 32064, Note_on_c, 1, 54, 75
4, 32131, Note_on_c, 1, 54, 0
4, 32136, Note_on_c, 1, 51, 75
4, 32159, Note_on_c, 1, 51, 0
4, 32160, Note_on_c, 1, 52, 75
4, 32227, Note_on_c, 1, 52, 0
4, 32232, Note_on_c, 1, 56, 75
4, 32255, Note_on_c, 1, 56, 0
4, 32256, Note_on_c, 1, 59, 75
4, 32345, Note_on_c, 1, 59, 0
4, 32352, Note_on_c, 1, 57, 75
4, 32419, Note_on_c, 1, 57, 0
4, 32424, Note_on_c, 1, 54, 75
4, 32447, Note_on_c, 1, 54, 0
4, 32448, Note_on_c, 1, 56, 75
4, 32515, Note_on_c, 1, 56, 0
4, 32520, Note_on_c, 1, 52, 75
4, 32543, Note_on_c, 1, 52, 0
4, 32544, Note_on_c, 1, 56, 80
4, 32633, Note_on_c, 1, 56, 0
4, 32640, Note_on_c, 1, 54, 80
4, 32707, Note_on_c, 1, 54, 0
4, 32712, Note_on_c, 1, 51, 80
4, 32735, Note_on_c, 1, 51, 0
4, 32736, Note_on_c, 1, 52, 80
4, 32803, Note_on_c, 1, 52, 0
4, 32808, Note_on_c, 1, 56, 80
4, 32831, Note_on_c, 1, 56, 0
4, 32832, Note_on_c, 1, 59, 80
4, 32921, Note_on_c, 1, 59, 0
4, 32928, Note_on_c, 1, 57, 80
4, 32995, Note_on_c, 1, 57, 0
4, 33000, Note_on_c, 1, 54, 80
4, 33023, Note_on_c, 1, 54, 0
4, 33024, Note_on_c, 1, 56, 80
4, 33113, Note_on_c, 1, 56, 0
4, 33216, Note_on_c, 1, 64, 70
4, 33216, Note_on_c, 1, 61, 70
4, 33310, Note_on_c, 1, 64, 0
4, 33310, Note_on_c, 1, 61, 0
4, 33312, Note_on_c, 1, 64, 70
4, 33312, Note_on_c, 1, 61, 70
4, 33406, Note_on_c, 1, 64, 0
4, 33406, Note_on_c, 1, 61, 0
4, 33504, Note_on_c, 1, 66, 70
4, 33504, Note_on_c, 1, 63, 70
4, 33598, Note_on_c, 1, 66, 0
4, 33598, Note_on_c, 1, 63, 0
4, 33600, Note_on_c, 1, 66, 70
4, 33600, Note_on_c, 1, 63, 70
4, 33694, Note_on_c, 1, 66, 0
4, 33694, Note_on_c, 1, 63, 0
4, 33696, Note_on_c, 1, 52, 80
4, 33696, Note_on_c, 1, 40, 80
4, 33785, Note_on_c, 1, 52, 0
4, 33785, Note_on_c, 1, 40, 0
4, 33792, Note_on_c, 1, 54, 80
4, 33792, Note_on_c, 1, 42, 80
4, 33881, Note_on_c, 1, 54, 0
4, 33881, Note_on_c, 1, 42, 0
4, 33888, Note_on_c, 1, 56, 80
4, 33888, Note_on_c, 1, 44, 80
4, 33977, Note_on_c, 1, 56, 0
4, 33977, Note_on_c, 1, 44, 0
4, 33984, Note_on_c, 1, 57, 80
4, 33984, Note_on_c, 1, 45, 80
4, 34073, Note_on_c, 1, 57, 0
4, 34073, Note_on_c, 1, 45, 0
4, 34080, Note_on_c, 1, 54, 80
4, 34080, Note_on_c, 1, 42, 80
4, 34169, Note_on_c, 1, 54, 0
4, 34169, Note_on_c, 1, 42, 0
4, 34176, Note_on_c, 1, 56, 80
4, 34176, Note_on_c, 1, 44, 80
4, 34265, Note_on_c, 1, 56, 0
4, 34265, Note_on_c, 1, 44, 0
4, 34272, Note_on_c, 1, 57, 80
4, 34272, Note_on_c, 1, 45, 80
4, 34361, Note_on_c, 1, 57, 0
4, 34361, Note_on_c, 1, 45, 0
4, 34368, Note_on_c, 1, 59, 80
4, 34368, Note_on_c, 1, 47, 80
4, 34457, Note_on_c, 1, 59, 0
4, 34457, Note_on_c, 1, 47, 0
4, 34464, Note_on_c, 1, 47, 80
4, 34464, Note_on_c, 1, 35, 80
4, 34553, Note_on_c, 1, 47, 0
4, 34553, Note_on_c, 1, 35, 0
4, 34560, Note_on_c, 1, 52, 80
4, 34649, Note_on_c, 1, 52, 0
4, 34656, Note_on_c, 1, 40, 80
4, 34745, Note_on_c, 1, 40, 0
4, 34848, Note_on_c, 1, 52, 75
4, 34937, Note_on_c, 1, 52, 0
4, 34944, Note_on_c, 1, 56, 75
4, 35033, Note_on_c, 1, 56, 0
4, 35040, Note_on_c, 1, 52, 75
4, 35129, Note_on_c, 1, 52, 0
4, 35136, Note_on_c, 1, 45, 75
4, 35225, Note_on_c, 1, 45, 0
4, 35232, Note_on_c, 1, 57, 75
4, 35321, Note_on_c, 1, 57, 0
4, 35328, Note_on_c, 1, 69, 75
4, 35417, Note_on_c, 1, 69, 0
4, 35424, Note_on_c, 1, 68, 75
4, 35513, Note_on_c, 1, 68, 0
4, 35712, Note_on_c, 1, 45, 75
4, 35801, Note_on_c, 1, 45, 0
4, 35808, Note_on_c, 1, 57, 75
4, 35897, Note_on_c, 1, 57, 0
4, 35904, Note_on_c, 1, 69, 75
4, 35993, Note_on_c, 1, 69, 0
4, 36000, Note_on_c, 1, 68, 75
4, 36089, Note_on_c, 1, 68, 0
4, 36288, Note_on_c, 1, 45, 75
4, 36377, Note_on_c, 1, 45, 0
4, 36576, Note_on_c, 1, 56, 75
4, 36665, Note_on_c, 1, 56, 0
4, 36672, Note_on_c, 1, 57, 75
4, 36761, Note_on_c, 1, 57, 0
4, 36768, Note_on_c, 1, 59, 75
4, 36857, Note_on_c, 1, 59, 0
4, 36960, Note_on_c, 1, 64, 75
4, 36960, Note_on_c, 1, 56, 75
4, 37049, Note_on_c, 1, 64, 0
4, 37049, Note_on_c, 1, 56, 0
4, 37056, Note_on_c, 1, 64, 75
4, 37056, Note_on_c, 1, 56, 75
4, 37145, Note_on_c, 1, 64, 0
4, 37145, Note_on_c, 1, 56, 0
4, 37248, Note_on_c, 1, 61, 75
4, 37248, Note_on_c, 1, 57, 75
4, 37337, Note_on_c, 1, 61, 0
4, 37337, Note_on_c, 1, 57, 0
4, 37344, Note_on_c, 1, 59, 75
4, 37344, Note_on_c, 1, 57, 75
4, 37433, Note_on_c, 1, 59, 0
4, 37433, Note_on_c, 1, 57, 0
4, 37440, Note_on_c, 1, 59, 75
4, 37440, Note_on_c, 1, 56, 75
4, 37529, Note_on_c, 1, 59, 0
4, 37529, Note_on_c, 1, 56, 0
4, 37824, Note_on_c, 1, 61, 75
4, 37824, Note_on_c, 1, 57, 75
4, 37913, Note_on_c, 1, 61, 0
4, 37913, Note_on_c, 1, 57, 0
4, 37920, Note_on_c, 1, 59, 75
4, 37920, Note_on_c, 1, 57, 75
4, 38009, Note_on_c, 1, 59, 0
4, 38009, Note_on_c, 1, 57, 0
4, 38016, Note_on_c, 1, 59, 75
4, 38016, Note_on_c, 1, 56, 75
4, 38105, Note_on_c, 1, 59, 0
4, 38105, Note_on_c, 1, 56, 0
4, 38304, Note_on_c, 1, 61, 75
4, 38304, Note_on_c, 1, 57, 75
4, 38393, Note_on_c, 1, 61, 0
4, 38393, Note_on_c, 1, 57, 0
4, 38688, Note_on_c, 1, 56, 75
4, 38688, Note_on_c, 1, 47, 75
4, 38777, Note_on_c, 1, 56, 0
4, 38777, Note_on_c, 1, 47, 0
4, 38784, Note_on_c, 1, 54, 75
4, 38784, Note_on_c, 1, 47, 75
4, 38873, Note_on_c, 1, 54, 0
4, 38873, Note_on_c, 1, 47, 0
4, 38880, Note_on_c, 1, 52, 75
4, 38969, Note_on_c, 1, 52, 0
4, 38976, Note_on_c, 1, 47, 75
4, 39065, Note_on_c, 1, 47, 0
4, 39072, Note_on_c, 1, 40, 75
4, 39161, Note_on_c, 1, 40, 0
4, 39168, Note_on_c, 1, 40, 0
4, 39257, Note_on_c, 1, 40, 0
4, 39264, End_track
5, 0, Start_track
5, 0, Program_c, 1, 0
5, 0, Control_c, 1, 7, 127
5, 0, Control_c, 1, 10, 64
5, 20736, Note_on_c, 1, 47, 64
5, 20913, Note_on_c, 1, 47, 0
5, 21024, Note_on_c, 1, 47, 64
5, 21201, Note_on_c, 1, 47, 0
5, 21312, Note_on_c, 1, 47, 64
5, 21489, Note_on_c, 1, 47, 0
5, 21600, Note_on_c, 1, 47, 64
5, 21777, Note_on_c, 1, 47, 0
5, 31968, Note_on_c, 1, 47, 64
5, 32145, Note_on_c, 1, 47, 0
5, 32256, Note_on_c, 1, 47, 64
5, 32433, Note_on_c, 1, 47, 0
5, 32544, Note_on_c, 1, 47, 64
5, 32721, Note_on_c, 1, 47, 0
5, 32832, Note_on_c, 1, 47, 64
5, 33009, Note_on_c, 1, 47, 0
5, 39168, End_track
6, 0, Start_track
6, 0, Title_t, "Sonata I   Haydn  "
6, 0, End_track
0, 0, End_of_file
