0, 0, Header, 1, 6, 96
1, 0, Start_track
1, 0, Copyright_t, "Copyright  2000 <copyright holder>"
1, 0, Text_t, "Sonata I\015\012"
1, 0, Text_t, "Haydn\015\012"
1, 0, Sequencer_specific, 16, 68, 87, 77, 90, 86, 82, 83, 78, 32, 55, 46, 49, 46, 50, 46, 48
1, 0, Time_signature, 4, 2, 24, 8
1, 0, Tempo, 100000
1, 0, Key_signature, -2, "major"
1, 192, Tempo, 413793
1, 9360, Tempo, 600000
1, 9600, Tempo, 413793
1, 23424, Tempo, 461538
1, 24576, Tempo, 413793
1, 29952, Tempo, 600000
1, 30144, Tempo, 413793
1, 32544, Tempo, 857142
1, 32640, Tempo, 413793
1, 34608, Tempo, 444444
1, 34752, Tempo, 461538
1, 34944, Tempo, 480000
1, 35136, Tempo, 500000
1, 35328, Tempo, 521739
1, 35712, Tempo, 545454
1, 36096, Tempo, 600000
1, 36480, End_track
2, 0, Start_track
2, 0, Program_c, 0, 0
2, 0, Control_c, 0, 7, 127
2, 0, Control_c, 0, 10, 64
2, 192, Note_on_c, 0, 77, 75
2, 231, Note_on_c, 0, 77, 0
2, 288, Note_on_c, 0, 74, 75
2, 327, Note_on_c, 0, 74, 0
2, 384, Note_on_c, 0, 70, 91
2, 480, Note_on_c, 0, 70, 0
2, 480, Note_on_c, 0, 72, 76
2, 495, Note_on_c, 0, 72, 0
2, 496, Note_on_c, 0, 70, 76
2, 511, Note_on_c, 0, 70, 0
2, 512, Note_on_c, 0, 72, 76
2, 527, Note_on_c, 0, 72, 0
2, 528, Note_on_c, 0, 70, 76
2, 543, Note_on_c, 0, 70, 0
2, 544, Note_on_c, 0, 69, 76
2, 559, Note_on_c, 0, 69, 0
2, 560, Note_on_c, 0, 70, 77
2, 575, Note_on_c, 0, 70, 0
2, 576, Note_on_c, 0, 72, 93
2, 672, Note_on_c, 0, 72, 0
2, 672, Note_on_c, 0, 74, 78
2, 687, Note_on_c, 0, 74, 0
2, 688, Note_on_c, 0, 72, 78
2, 703, Note_on_c, 0, 72, 0
2, 704, Note_on_c, 0, 74, 78
2, 719, Note_on_c, 0, 74, 0
2, 720, Note_on_c, 0, 72, 78
2, 735, Note_on_c, 0, 72, 0
2, 736, Note_on_c, 0, 70, 79
2, 751, Note_on_c, 0, 70, 0
2, 752, Note_on_c, 0, 72, 79
2, 767, Note_on_c, 0, 72, 0
2, 768, Note_on_c, 0, 74, 96
2, 864, Note_on_c, 0, 74, 0
2, 864, Note_on_c, 0, 77, 80
2, 864, Note_on_c, 0, 74, 80
2, 909, Note_on_c, 0, 77, 0
2, 909, Note_on_c, 0, 74, 0
2, 912, Note_on_c, 0, 75, 80
2, 912, Note_on_c, 0, 72, 80
2, 957, Note_on_c, 0, 75, 0
2, 957, Note_on_c, 0, 72, 0
2, 960, Note_on_c, 0, 74, 79
2, 960, Note_on_c, 0, 70, 79
2, 1056, Note_on_c, 0, 74, 0
2, 1056, Note_on_c, 0, 70, 0
2, 1056, Note_on_c, 0, 72, 77
2, 1056, Note_on_c, 0, 69, 77
2, 1145, Note_on_c, 0, 72, 0
2, 1145, Note_on_c, 0, 69, 0
2, 1152, Note_on_c, 0, 70, 75
2, 1152, Note_on_c, 0, 65, 75
2, 1191, Note_on_c, 0, 70, 0
2, 1191, Note_on_c, 0, 65, 0
2, 1248, Note_on_c, 0, 70, 76
2, 1248, Note_on_c, 0, 65, 76
2, 1344, Note_on_c, 0, 70, 0
2, 1344, Note_on_c, 0, 72, 77
2, 1383, Note_on_c, 0, 72, 0
2, 1383, Note_on_c, 0, 65, 0
2, 1440, Note_on_c, 0, 72, 78
2, 1440, Note_on_c, 0, 65, 78
2, 1536, Note_on_c, 0, 72, 0
2, 1536, Note_on_c, 0, 65, 0
2, 1536, Note_on_c, 0, 74, 80
2, 1536, Note_on_c, 0, 70, 80
2, 1556, Note_on_c, 0, 74, 0
2, 1556, Note_on_c, 0, 70, 0
2, 1584, Note_on_c, 0, 82, 96
2, 1680, Note_on_c, 0, 82, 0
2, 1680, Note_on_c, 0, 76, 80
2, 1692, Note_on_c, 0, 76, 0
2, 1692, Note_on_c, 0, 77, 80
2, 1704, Note_on_c, 0, 77, 0
2, 1704, Note_on_c, 0, 76, 80
2, 1725, Note_on_c, 0, 76, 0
2, 1728, Note_on_c, 0, 77, 79
2, 1817, Note_on_c, 0, 77, 0
2, 1824, Note_on_c, 0, 79, 77
2, 1847, Note_on_c, 0, 79, 0
2, 1848, Note_on_c, 0, 77, 76
2, 1871, Note_on_c, 0, 77, 0
2, 1872, Note_on_c, 0, 75, 76
2, 1895, Note_on_c, 0, 75, 0
2, 1896, Note_on_c, 0, 74, 75
2, 1919, Note_on_c, 0, 74, 0
2, 1920, Note_on_c, 0, 72, 75
2, 2009, Note_on_c, 0, 72, 0
2, 2016, Note_on_c, 0, 84, 108
2, 2093, Note_on_c, 0, 84, 0
2, 2208, Note_on_c, 0, 77, 75
2, 2297, Note_on_c, 0, 77, 0
2, 2304, Note_on_c, 0, 84, 76
2, 2316, Note_on_c, 0, 84, 0
2, 2316, Note_on_c, 0, 82, 76
2, 2328, Note_on_c, 0, 82, 0
2, 2328, Note_on_c, 0, 81, 76
2, 2340, Note_on_c, 0, 81, 0
2, 2340, Note_on_c, 0, 82, 92
2, 2448, Note_on_c, 0, 82, 0
2, 2448, Note_on_c, 0, 84, 78
2, 2493, Note_on_c, 0, 84, 0
2, 2496, Note_on_c, 0, 86, 78
2, 2585, Note_on_c, 0, 86, 0
2, 2592, Note_on_c, 0, 71, 80
2, 2681, Note_on_c, 0, 71, 0
2, 2688, Note_on_c, 0, 72, 79
2, 2755, Note_on_c, 0, 72, 0
2, 2760, Note_on_c, 0, 75, 78
2, 2783, Note_on_c, 0, 75, 0
2, 2784, Note_on_c, 0, 79, 78
2, 2873, Note_on_c, 0, 79, 0
2, 2976, Note_on_c, 0, 69, 76
2, 2976, Note_on_c, 0, 63, 76
2, 3015, Note_on_c, 0, 69, 0
2, 3015, Note_on_c, 0, 63, 0
2, 3072, Note_on_c, 0, 70, 75
2, 3072, Note_on_c, 0, 62, 75
2, 3161, Note_on_c, 0, 70, 0
2, 3161, Note_on_c, 0, 62, 0
2, 3264, Note_on_c, 0, 77, 75
2, 3303, Note_on_c, 0, 77, 0
2, 3360, Note_on_c, 0, 74, 75
2, 3399, Note_on_c, 0, 74, 0
2, 3456, Note_on_c, 0, 70, 91
2, 3552, Note_on_c, 0, 70, 0
2, 3552, Note_on_c, 0, 72, 76
2, 3567, Note_on_c, 0, 72, 0
2, 3568, Note_on_c, 0, 70, 76
2, 3583, Note_on_c, 0, 70, 0
2, 3584, Note_on_c, 0, 72, 76
2, 3599, Note_on_c, 0, 72, 0
2, 3600, Note_on_c, 0, 70, 76
2, 3615, Note_on_c, 0, 70, 0
2, 3616, Note_on_c, 0, 69, 76
2, 3631, Note_on_c, 0, 69, 0
2, 3632, Note_on_c, 0, 70, 77
2, 3647, Note_on_c, 0, 70, 0
2, 3648, Note_on_c, 0, 72, 93
2, 3744, Note_on_c, 0, 72, 0
2, 3744, Note_on_c, 0, 74, 78
2, 3759, Note_on_c, 0, 74, 0
2, 3760, Note_on_c, 0, 72, 78
2, 3775, Note_on_c, 0, 72, 0
2, 3776, Note_on_c, 0, 74, 78
2, 3791, Note_on_c, 0, 74, 0
2, 3792, Note_on_c, 0, 72, 78
2, 3807, Note_on_c, 0, 72, 0
2, 3808, Note_on_c, 0, 70, 79
2, 3823, Note_on_c, 0, 70, 0
2, 3824, Note_on_c, 0, 72, 79
2, 3839, Note_on_c, 0, 72, 0
2, 3840, Note_on_c, 0, 74, 96
2, 3936, Note_on_c, 0, 74, 0
2, 3936, Note_on_c, 0, 77, 80
2, 3936, Note_on_c, 0, 74, 80
2, 3981, Note_on_c, 0, 77, 0
2, 3981, Note_on_c, 0, 74, 0
2, 3984, Note_on_c, 0, 75, 80
2, 3984, Note_on_c, 0, 72, 80
2, 4029, Note_on_c, 0, 75, 0
2, 4029, Note_on_c, 0, 72, 0
2, 4032, Note_on_c, 0, 74, 79
2, 4032, Note_on_c, 0, 70, 79
2, 4128, Note_on_c, 0, 74, 0
2, 4128, Note_on_c, 0, 70, 0
2, 4128, Note_on_c, 0, 72, 77
2, 4128, Note_on_c, 0, 69, 77
2, 4217, Note_on_c, 0, 72, 0
2, 4217, Note_on_c, 0, 69, 0
2, 4224, Note_on_c, 0, 70, 75
2, 4224, Note_on_c, 0, 65, 75
2, 4263, Note_on_c, 0, 70, 0
2, 4263, Note_on_c, 0, 65, 0
2, 4320, Note_on_c, 0, 70, 76
2, 4320, Note_on_c, 0, 65, 76
2, 4416, Note_on_c, 0, 70, 0
2, 4416, Note_on_c, 0, 72, 77
2, 4455, Note_on_c, 0, 72, 0
2, 4455, Note_on_c, 0, 65, 0
2, 4512, Note_on_c, 0, 72, 78
2, 4512, Note_on_c, 0, 65, 78
2, 4608, Note_on_c, 0, 72, 0
2, 4608, Note_on_c, 0, 65, 0
2, 4608, Note_on_c, 0, 74, 80
2, 4608, Note_on_c, 0, 70, 80
2, 4628, Note_on_c, 0, 74, 0
2, 4628, Note_on_c, 0, 70, 0
2, 4656, Note_on_c, 0, 82, 96
2, 4752, Note_on_c, 0, 82, 0
2, 4752, Note_on_c, 0, 76, 80
2, 4764, Note_on_c, 0, 76, 0
2, 4764, Note_on_c, 0, 77, 80
2, 4776, Note_on_c, 0, 77, 0
2, 4776, Note_on_c, 0, 76, 80
2, 4797, Note_on_c, 0, 76, 0
2, 4800, Note_on_c, 0, 77, 79
2, 4889, Note_on_c, 0, 77, 0
2, 4896, Note_on_c, 0, 79, 77
2, 4919, Note_on_c, 0, 79, 0
2, 4920, Note_on_c, 0, 77, 76
2, 4943, Note_on_c, 0, 77, 0
2, 4944, Note_on_c, 0, 75, 76
2, 4967, Note_on_c, 0, 75, 0
2, 4968, Note_on_c, 0, 74, 75
2, 4991, Note_on_c, 0, 74, 0
2, 4992, Note_on_c, 0, 72, 75
2, 5081, Note_on_c, 0, 72, 0
2, 5088, Note_on_c, 0, 84, 108
2, 5165, Note_on_c, 0, 84, 0
2, 5280, Note_on_c, 0, 77, 75
2, 5369, Note_on_c, 0, 77, 0
2, 5376, Note_on_c, 0, 84, 76
2, 5388, Note_on_c, 0, 84, 0
2, 5388, Note_on_c, 0, 82, 76
2, 5400, Note_on_c, 0, 82, 0
2, 5400, Note_on_c, 0, 81, 76
2, 5412, Note_on_c, 0, 81, 0
2, 5412, Note_on_c, 0, 82, 92
2, 5520, Note_on_c, 0, 82, 0
2, 5520, Note_on_c, 0, 84, 78
2, 5565, Note_on_c, 0, 84, 0
2, 5568, Note_on_c, 0, 86, 78
2, 5657, Note_on_c, 0, 86, 0
2, 5664, Note_on_c, 0, 71, 80
2, 5753, Note_on_c, 0, 71, 0
2, 5760, Note_on_c, 0, 72, 79
2, 5827, Note_on_c, 0, 72, 0
2, 5832, Note_on_c, 0, 75, 78
2, 5855, Note_on_c, 0, 75, 0
2, 5856, Note_on_c, 0, 79, 78
2, 5945, Note_on_c, 0, 79, 0
2, 6048, Note_on_c, 0, 69, 76
2, 6048, Note_on_c, 0, 63, 76
2, 6087, Note_on_c, 0, 69, 0
2, 6087, Note_on_c, 0, 63, 0
2, 6144, Note_on_c, 0, 70, 75
2, 6144, Note_on_c, 0, 62, 75
2, 6233, Note_on_c, 0, 70, 0
2, 6233, Note_on_c, 0, 62, 0
2, 6528, Note_on_c, 0, 82, 80
2, 6551, Note_on_c, 0, 82, 0
2, 6552, Note_on_c, 0, 84, 80
2, 6575, Note_on_c, 0, 84, 0
2, 6576, Note_on_c, 0, 86, 80
2, 6599, Note_on_c, 0, 86, 0
2, 6600, Note_on_c, 0, 84, 80
2, 6623, Note_on_c, 0, 84, 0
2, 6624, Note_on_c, 0, 82, 80
2, 6647, Note_on_c, 0, 82, 0
2, 6648, Note_on_c, 0, 81, 80
2, 6671, Note_on_c, 0, 81, 0
2, 6672, Note_on_c, 0, 79, 80
2, 6695, Note_on_c, 0, 79, 0
2, 6696, Note_on_c, 0, 77, 80
2, 6719, Note_on_c, 0, 77, 0
2, 6720, Note_on_c, 0, 75, 80
2, 6743, Note_on_c, 0, 75, 0
2, 6744, Note_on_c, 0, 81, 80
2, 6767, Note_on_c, 0, 81, 0
2, 6768, Note_on_c, 0, 84, 80
2, 6791, Note_on_c, 0, 84, 0
2, 6792, Note_on_c, 0, 82, 80
2, 6815, Note_on_c, 0, 82, 0
2, 6816, Note_on_c, 0, 81, 80
2, 6839, Note_on_c, 0, 81, 0
2, 6840, Note_on_c, 0, 79, 80
2, 6863, Note_on_c, 0, 79, 0
2, 6864, Note_on_c, 0, 77, 80
2, 6887, Note_on_c, 0, 77, 0
2, 6888, Note_on_c, 0, 75, 80
2, 6911, Note_on_c, 0, 75, 0
2, 6912, Note_on_c, 0, 74, 80
2, 6935, Note_on_c, 0, 74, 0
2, 6936, Note_on_c, 0, 77, 80
2, 6959, Note_on_c, 0, 77, 0
2, 6960, Note_on_c, 0, 82, 80
2, 6983, Note_on_c, 0, 82, 0
2, 6984, Note_on_c, 0, 81, 80
2, 7007, Note_on_c, 0, 81, 0
2, 7008, Note_on_c, 0, 79, 80
2, 7031, Note_on_c, 0, 79, 0
2, 7032, Note_on_c, 0, 77, 80
2, 7055, Note_on_c, 0, 77, 0
2, 7056, Note_on_c, 0, 75, 80
2, 7079, Note_on_c, 0, 75, 0
2, 7080, Note_on_c, 0, 74, 80
2, 7103, Note_on_c, 0, 74, 0
2, 7104, Note_on_c, 0, 72, 80
2, 7104, Note_on_c, 0, 69, 80
2, 7127, Note_on_c, 0, 72, 0
2, 7127, Note_on_c, 0, 69, 0
2, 7128, Note_on_c, 0, 65, 80
2, 7151, Note_on_c, 0, 65, 0
2, 7152, Note_on_c, 0, 74, 80
2, 7152, Note_on_c, 0, 70, 80
2, 7175, Note_on_c, 0, 74, 0
2, 7175, Note_on_c, 0, 70, 0
2, 7176, Note_on_c, 0, 65, 80
2, 7199, Note_on_c, 0, 65, 0
2, 7200, Note_on_c, 0, 75, 80
2, 7200, Note_on_c, 0, 72, 80
2, 7223, Note_on_c, 0, 75, 0
2, 7223, Note_on_c, 0, 72, 0
2, 7224, Note_on_c, 0, 65, 80
2, 7247, Note_on_c, 0, 65, 0
2, 7248, Note_on_c, 0, 74, 80
2, 7248, Note_on_c, 0, 70, 80
2, 7271, Note_on_c, 0, 74, 0
2, 7271, Note_on_c, 0, 70, 0
2, 7272, Note_on_c, 0, 65, 80
2, 7295, Note_on_c, 0, 65, 0
2, 7296, Note_on_c, 0, 60, 80
2, 7296, Note_on_c, 0, 57, 80
2, 7319, Note_on_c, 0, 60, 0
2, 7319, Note_on_c, 0, 57, 0
2, 7320, Note_on_c, 0, 53, 80
2, 7343, Note_on_c, 0, 53, 0
2, 7344, Note_on_c, 0, 62, 80
2, 7344, Note_on_c, 0, 58, 80
2, 7367, Note_on_c, 0, 62, 0
2, 7367, Note_on_c, 0, 58, 0
2, 7368, Note_on_c, 0, 53, 80
2, 7391, Note_on_c, 0, 53, 0
2, 7392, Note_on_c, 0, 63, 80
2, 7392, Note_on_c, 0, 60, 80
2, 7415, Note_on_c, 0, 63, 0
2, 7415, Note_on_c, 0, 60, 0
2, 7416, Note_on_c, 0, 53, 80
2, 7439, Note_on_c, 0, 53, 0
2, 7440, Note_on_c, 0, 62, 80
2, 7440, Note_on_c, 0, 58, 80
2, 7463, Note_on_c, 0, 62, 0
2, 7463, Note_on_c, 0, 58, 0
2, 7464, Note_on_c, 0, 53, 80
2, 7487, Note_on_c, 0, 53, 0
2, 7488, Note_on_c, 0, 60, 80
2, 7488, Note_on_c, 0, 57, 80
2, 7577, Note_on_c, 0, 60, 0
2, 7577, Note_on_c, 0, 57, 0
2, 7704, Note_on_c, 0, 70, 80
2, 7727, Note_on_c, 0, 70, 0
2, 7728, Note_on_c, 0, 69, 80
2, 7751, Note_on_c, 0, 69, 0
2, 7752, Note_on_c, 0, 70, 80
2, 7775, Note_on_c, 0, 70, 0
2, 7776, Note_on_c, 0, 74, 80
2, 7799, Note_on_c, 0, 74, 0
2, 7800, Note_on_c, 0, 70, 80
2, 7823, Note_on_c, 0, 70, 0
2, 7824, Note_on_c, 0, 77, 80
2, 7847, Note_on_c, 0, 77, 0
2, 7848, Note_on_c, 0, 74, 80
2, 7871, Note_on_c, 0, 74, 0
2, 7896, Note_on_c, 0, 72, 80
2, 7919, Note_on_c, 0, 72, 0
2, 7920, Note_on_c, 0, 71, 80
2, 7943, Note_on_c, 0, 71, 0
2, 7944, Note_on_c, 0, 72, 80
2, 7967, Note_on_c, 0, 72, 0
2, 7968, Note_on_c, 0, 75, 80
2, 7991, Note_on_c, 0, 75, 0
2, 7992, Note_on_c, 0, 72, 80
2, 8015, Note_on_c, 0, 72, 0
2, 8016, Note_on_c, 0, 79, 80
2, 8039, Note_on_c, 0, 79, 0
2, 8040, Note_on_c, 0, 75, 80
2, 8063, Note_on_c, 0, 75, 0
2, 8064, Note_on_c, 0, 69, 80
2, 8087, Note_on_c, 0, 69, 0
2, 8088, Note_on_c, 0, 72, 80
2, 8111, Note_on_c, 0, 72, 0
2, 8112, Note_on_c, 0, 75, 80
2, 8135, Note_on_c, 0, 75, 0
2, 8136, Note_on_c, 0, 72, 80
2, 8159, Note_on_c, 0, 72, 0
2, 8160, Note_on_c, 0, 75, 80
2, 8183, Note_on_c, 0, 75, 0
2, 8184, Note_on_c, 0, 65, 80
2, 8207, Note_on_c, 0, 65, 0
2, 8208, Note_on_c, 0, 74, 80
2, 8231, Note_on_c, 0, 74, 0
2, 8232, Note_on_c, 0, 65, 80
2, 8255, Note_on_c, 0, 65, 0
2, 8256, Note_on_c, 0, 72, 80
2, 8279, Note_on_c, 0, 72, 0
2, 8280, Note_on_c, 0, 77, 80
2, 8303, Note_on_c, 0, 77, 0
2, 8304, Note_on_c, 0, 76, 80
2, 8327, Note_on_c, 0, 76, 0
2, 8328, Note_on_c, 0, 77, 80
2, 8351, Note_on_c, 0, 77, 0
2, 8352, Note_on_c, 0, 79, 80
2, 8375, Note_on_c, 0, 79, 0
2, 8376, Note_on_c, 0, 77, 78
2, 8399, Note_on_c, 0, 77, 0
2, 8400, Note_on_c, 0, 75, 77
2, 8423, Note_on_c, 0, 75, 0
2, 8424, Note_on_c, 0, 74, 76
2, 8447, Note_on_c, 0, 74, 0
2, 8448, Note_on_c, 0, 72, 75
2, 8487, Note_on_c, 0, 72, 0
2, 8544, Note_on_c, 0, 72, 91
2, 8736, Note_on_c, 0, 72, 0
2, 8736, Note_on_c, 0, 70, 75
2, 8759, Note_on_c, 0, 70, 0
2, 8760, Note_on_c, 0, 69, 75
2, 8783, Note_on_c, 0, 69, 0
2, 8784, Note_on_c, 0, 67, 75
2, 8807, Note_on_c, 0, 67, 0
2, 8808, Note_on_c, 0, 65, 75
2, 8831, Note_on_c, 0, 65, 0
2, 8832, Note_on_c, 0, 70, 75
2, 8844, Note_on_c, 0, 70, 0
2, 8844, Note_on_c, 0, 72, 75
2, 8856, Note_on_c, 0, 72, 0
2, 8856, Note_on_c, 0, 70, 75
2, 8965, Note_on_c, 0, 70, 0
2, 8976, Note_on_c, 0, 72, 72
2, 9021, Note_on_c, 0, 72, 0
2, 9024, Note_on_c, 0, 74, 71
2, 9113, Note_on_c, 0, 74, 0
2, 9216, Note_on_c, 0, 77, 70
2, 9228, Note_on_c, 0, 77, 0
2, 9228, Note_on_c, 0, 76, 70
2, 9240, Note_on_c, 0, 76, 0
2, 9240, Note_on_c, 0, 74, 70
2, 9252, Note_on_c, 0, 74, 0
2, 9252, Note_on_c, 0, 76, 86
2, 9360, Note_on_c, 0, 76, 0
2, 9360, Note_on_c, 0, 77, 70
2, 9405, Note_on_c, 0, 77, 0
2, 9408, Note_on_c, 0, 79, 68
2, 9497, Note_on_c, 0, 79, 0
2, 9600, Note_on_c, 0, 79, 64
2, 9645, Note_on_c, 0, 79, 0
2, 9648, Note_on_c, 0, 81, 64
2, 9663, Note_on_c, 0, 81, 0
2, 9664, Note_on_c, 0, 79, 64
2, 9679, Note_on_c, 0, 79, 0
2, 9680, Note_on_c, 0, 77, 64
2, 9695, Note_on_c, 0, 77, 0
2, 9696, Note_on_c, 0, 79, 64
2, 9741, Note_on_c, 0, 79, 0
2, 9744, Note_on_c, 0, 81, 64
2, 9789, Note_on_c, 0, 81, 0
2, 9792, Note_on_c, 0, 84, 64
2, 9840, Note_on_c, 0, 84, 0
2, 9840, Note_on_c, 0, 82, 66
2, 9885, Note_on_c, 0, 82, 0
2, 9888, Note_on_c, 0, 81, 69
2, 9908, Note_on_c, 0, 81, 0
2, 9936, Note_on_c, 0, 79, 72
2, 9956, Note_on_c, 0, 79, 0
2, 9984, Note_on_c, 0, 77, 91
2, 10080, Note_on_c, 0, 77, 0
2, 10080, Note_on_c, 0, 67, 75
2, 10095, Note_on_c, 0, 67, 0
2, 10096, Note_on_c, 0, 65, 75
2, 10111, Note_on_c, 0, 65, 0
2, 10112, Note_on_c, 0, 67, 75
2, 10127, Note_on_c, 0, 67, 0
2, 10128, Note_on_c, 0, 65, 75
2, 10143, Note_on_c, 0, 65, 0
2, 10144, Note_on_c, 0, 64, 75
2, 10159, Note_on_c, 0, 64, 0
2, 10160, Note_on_c, 0, 65, 75
2, 10175, Note_on_c, 0, 65, 0
2, 10176, Note_on_c, 0, 67, 91
2, 10272, Note_on_c, 0, 67, 0
2, 10272, Note_on_c, 0, 69, 75
2, 10287, Note_on_c, 0, 69, 0
2, 10288, Note_on_c, 0, 67, 75
2, 10303, Note_on_c, 0, 67, 0
2, 10304, Note_on_c, 0, 69, 75
2, 10319, Note_on_c, 0, 69, 0
2, 10320, Note_on_c, 0, 67, 75
2, 10335, Note_on_c, 0, 67, 0
2, 10336, Note_on_c, 0, 65, 75
2, 10351, Note_on_c, 0, 65, 0
2, 10352, Note_on_c, 0, 67, 75
2, 10367, Note_on_c, 0, 67, 0
2, 10368, Note_on_c, 0, 69, 75
2, 10413, Note_on_c, 0, 69, 0
2, 10416, Note_on_c, 0, 77, 108
2, 10512, Note_on_c, 0, 77, 0
2, 10512, Note_on_c, 0, 71, 75
2, 10557, Note_on_c, 0, 71, 0
2, 10560, Note_on_c, 0, 72, 75
2, 10649, Note_on_c, 0, 72, 0
2, 10656, Note_on_c, 0, 74, 75
2, 10679, Note_on_c, 0, 74, 0
2, 10680, Note_on_c, 0, 72, 75
2, 10703, Note_on_c, 0, 72, 0
2, 10704, Note_on_c, 0, 70, 75
2, 10727, Note_on_c, 0, 70, 0
2, 10728, Note_on_c, 0, 69, 75
2, 10751, Note_on_c, 0, 69, 0
2, 10752, Note_on_c, 0, 67, 75
2, 10791, Note_on_c, 0, 67, 0
2, 10848, Note_on_c, 0, 67, 91
2, 11040, Note_on_c, 0, 67, 0
2, 11040, Note_on_c, 0, 64, 75
2, 11129, Note_on_c, 0, 64, 0
2, 11136, Note_on_c, 0, 67, 75
2, 11148, Note_on_c, 0, 67, 0
2, 11148, Note_on_c, 0, 65, 75
2, 11160, Note_on_c, 0, 65, 0
2, 11160, Note_on_c, 0, 64, 75
2, 11172, Note_on_c, 0, 64, 0
2, 11172, Note_on_c, 0, 65, 75
2, 11269, Note_on_c, 0, 65, 0
2, 11280, Note_on_c, 0, 67, 75
2, 11325, Note_on_c, 0, 67, 0
2, 11328, Note_on_c, 0, 69, 75
2, 11417, Note_on_c, 0, 69, 0
2, 11424, Note_on_c, 0, 67, 80
2, 11439, Note_on_c, 0, 67, 0
2, 11440, Note_on_c, 0, 66, 80
2, 11455, Note_on_c, 0, 66, 0
2, 11456, Note_on_c, 0, 67, 80
2, 11471, Note_on_c, 0, 67, 0
2, 11472, Note_on_c, 0, 66, 80
2, 11487, Note_on_c, 0, 66, 0
2, 11488, Note_on_c, 0, 64, 80
2, 11503, Note_on_c, 0, 64, 0
2, 11504, Note_on_c, 0, 66, 80
2, 11519, Note_on_c, 0, 66, 0
2, 11520, Note_on_c, 0, 67, 80
2, 11550, Note_on_c, 0, 67, 0
2, 11552, Note_on_c, 0, 70, 80
2, 11582, Note_on_c, 0, 70, 0
2, 11584, Note_on_c, 0, 74, 80
2, 11614, Note_on_c, 0, 74, 0
2, 11616, Note_on_c, 0, 74, 80
2, 11646, Note_on_c, 0, 74, 0
2, 11648, Note_on_c, 0, 70, 80
2, 11678, Note_on_c, 0, 70, 0
2, 11680, Note_on_c, 0, 67, 80
2, 11710, Note_on_c, 0, 67, 0
2, 11712, Note_on_c, 0, 72, 80
2, 11742, Note_on_c, 0, 72, 0
2, 11744, Note_on_c, 0, 69, 80
2, 11774, Note_on_c, 0, 69, 0
2, 11776, Note_on_c, 0, 65, 80
2, 11806, Note_on_c, 0, 65, 0
2, 11808, Note_on_c, 0, 70, 80
2, 11838, Note_on_c, 0, 70, 0
2, 11840, Note_on_c, 0, 67, 80
2, 11870, Note_on_c, 0, 67, 0
2, 11872, Note_on_c, 0, 64, 80
2, 11902, Note_on_c, 0, 64, 0
2, 11904, Note_on_c, 0, 67, 80
2, 12096, Note_on_c, 0, 67, 0
2, 12096, Note_on_c, 0, 65, 80
2, 12141, Note_on_c, 0, 65, 0
2, 12144, Note_on_c, 0, 77, 80
2, 12189, Note_on_c, 0, 77, 0
2, 12192, Note_on_c, 0, 72, 80
2, 12237, Note_on_c, 0, 72, 0
2, 12240, Note_on_c, 0, 75, 80
2, 12285, Note_on_c, 0, 75, 0
2, 12288, Note_on_c, 0, 74, 91
2, 12336, Note_on_c, 0, 74, 0
2, 12336, Note_on_c, 0, 70, 75
2, 12381, Note_on_c, 0, 70, 0
2, 12384, Note_on_c, 0, 72, 76
2, 12399, Note_on_c, 0, 72, 0
2, 12400, Note_on_c, 0, 70, 76
2, 12415, Note_on_c, 0, 70, 0
2, 12416, Note_on_c, 0, 72, 76
2, 12431, Note_on_c, 0, 72, 0
2, 12432, Note_on_c, 0, 70, 76
2, 12447, Note_on_c, 0, 70, 0
2, 12448, Note_on_c, 0, 69, 76
2, 12463, Note_on_c, 0, 69, 0
2, 12464, Note_on_c, 0, 70, 77
2, 12479, Note_on_c, 0, 70, 0
2, 12480, Note_on_c, 0, 72, 93
2, 12528, Note_on_c, 0, 72, 0
2, 12528, Note_on_c, 0, 72, 77
2, 12573, Note_on_c, 0, 72, 0
2, 12576, Note_on_c, 0, 74, 78
2, 12591, Note_on_c, 0, 74, 0
2, 12592, Note_on_c, 0, 72, 78
2, 12607, Note_on_c, 0, 72, 0
2, 12608, Note_on_c, 0, 74, 78
2, 12623, Note_on_c, 0, 74, 0
2, 12624, Note_on_c, 0, 72, 78
2, 12639, Note_on_c, 0, 72, 0
2, 12640, Note_on_c, 0, 70, 79
2, 12655, Note_on_c, 0, 70, 0
2, 12656, Note_on_c, 0, 72, 79
2, 12671, Note_on_c, 0, 72, 0
2, 12672, Note_on_c, 0, 74, 96
2, 12692, Note_on_c, 0, 74, 0
2, 12720, Note_on_c, 0, 75, 79
2, 12732, Note_on_c, 0, 75, 0
2, 12732, Note_on_c, 0, 74, 79
2, 12744, Note_on_c, 0, 74, 0
2, 12744, Note_on_c, 0, 72, 79
2, 12756, Note_on_c, 0, 72, 0
2, 12756, Note_on_c, 0, 74, 79
2, 12768, Note_on_c, 0, 74, 0
2, 12768, Note_on_c, 0, 77, 78
2, 12768, Note_on_c, 0, 74, 78
2, 12813, Note_on_c, 0, 77, 0
2, 12813, Note_on_c, 0, 74, 0
2, 12816, Note_on_c, 0, 75, 78
2, 12816, Note_on_c, 0, 72, 78
2, 12861, Note_on_c, 0, 75, 0
2, 12861, Note_on_c, 0, 72, 0
2, 12864, Note_on_c, 0, 74, 77
2, 12864, Note_on_c, 0, 70, 77
2, 12960, Note_on_c, 0, 74, 0
2, 12960, Note_on_c, 0, 70, 0
2, 12960, Note_on_c, 0, 72, 76
2, 12960, Note_on_c, 0, 69, 76
2, 13049, Note_on_c, 0, 72, 0
2, 13049, Note_on_c, 0, 69, 0
2, 13056, Note_on_c, 0, 70, 75
2, 13056, Note_on_c, 0, 65, 75
2, 13095, Note_on_c, 0, 70, 0
2, 13095, Note_on_c, 0, 65, 0
2, 13152, Note_on_c, 0, 71, 76
2, 13152, Note_on_c, 0, 65, 76
2, 13248, Note_on_c, 0, 71, 0
2, 13248, Note_on_c, 0, 72, 77
2, 13287, Note_on_c, 0, 72, 0
2, 13287, Note_on_c, 0, 65, 0
2, 13344, Note_on_c, 0, 73, 78
2, 13344, Note_on_c, 0, 65, 78
2, 13440, Note_on_c, 0, 73, 0
2, 13440, Note_on_c, 0, 74, 79
2, 13453, Note_on_c, 0, 74, 0
2, 13453, Note_on_c, 0, 65, 0
2, 13472, Note_on_c, 0, 82, 80
2, 13502, Note_on_c, 0, 82, 0
2, 13504, Note_on_c, 0, 81, 80
2, 13534, Note_on_c, 0, 81, 0
2, 13536, Note_on_c, 0, 79, 80
2, 13566, Note_on_c, 0, 79, 0
2, 13568, Note_on_c, 0, 77, 80
2, 13598, Note_on_c, 0, 77, 0
2, 13600, Note_on_c, 0, 76, 80
2, 13630, Note_on_c, 0, 76, 0
2, 13632, Note_on_c, 0, 77, 80
2, 13677, Note_on_c, 0, 77, 0
2, 13680, Note_on_c, 0, 65, 78
2, 13725, Note_on_c, 0, 65, 0
2, 13728, Note_on_c, 0, 77, 77
2, 13773, Note_on_c, 0, 77, 0
2, 13776, Note_on_c, 0, 71, 76
2, 13821, Note_on_c, 0, 71, 0
2, 13824, Note_on_c, 0, 72, 75
2, 13863, Note_on_c, 0, 72, 0
2, 13920, Note_on_c, 0, 72, 91
2, 14112, Note_on_c, 0, 72, 0
2, 14112, Note_on_c, 0, 69, 75
2, 14157, Note_on_c, 0, 69, 0
2, 14160, Note_on_c, 0, 65, 75
2, 14187, Note_on_c, 0, 65, 0
2, 14190, Note_on_c, 0, 72, 75
2, 14196, Note_on_c, 0, 72, 0
2, 14196, Note_on_c, 0, 70, 75
2, 14202, Note_on_c, 0, 70, 0
2, 14202, Note_on_c, 0, 69, 75
2, 14208, Note_on_c, 0, 69, 0
2, 14208, Note_on_c, 0, 70, 75
2, 14253, Note_on_c, 0, 70, 0
2, 14256, Note_on_c, 0, 72, 75
2, 14271, Note_on_c, 0, 72, 0
2, 14272, Note_on_c, 0, 70, 75
2, 14287, Note_on_c, 0, 70, 0
2, 14288, Note_on_c, 0, 69, 75
2, 14303, Note_on_c, 0, 69, 0
2, 14304, Note_on_c, 0, 70, 75
2, 14349, Note_on_c, 0, 70, 0
2, 14352, Note_on_c, 0, 72, 75
2, 14397, Note_on_c, 0, 72, 0
2, 14400, Note_on_c, 0, 74, 75
2, 14489, Note_on_c, 0, 74, 0
2, 14496, Note_on_c, 0, 59, 75
2, 14585, Note_on_c, 0, 59, 0
2, 14592, Note_on_c, 0, 60, 75
2, 14659, Note_on_c, 0, 60, 0
2, 14664, Note_on_c, 0, 63, 75
2, 14687, Note_on_c, 0, 63, 0
2, 14688, Note_on_c, 0, 67, 75
2, 14777, Note_on_c, 0, 67, 0
2, 14880, Note_on_c, 0, 61, 80
2, 14880, Note_on_c, 0, 58, 80
2, 14880, Note_on_c, 0, 55, 80
2, 14919, Note_on_c, 0, 61, 0
2, 14919, Note_on_c, 0, 58, 0
2, 14919, Note_on_c, 0, 55, 0
2, 14976, Control_c, 0, 64, 127
2, 14976, Note_on_c, 0, 62, 96
2, 14976, Note_on_c, 0, 57, 96
2, 14976, Note_on_c, 0, 54, 96
2, 15168, Note_on_c, 0, 62, 0
2, 15168, Note_on_c, 0, 57, 0
2, 15168, Note_on_c, 0, 54, 0
2, 15168, Control_c, 0, 64, 0
2, 15360, Control_c, 0, 64, 127
2, 15360, Note_on_c, 0, 63, 80
2, 15360, Note_on_c, 0, 60, 80
2, 15360, Note_on_c, 0, 57, 80
2, 15537, Note_on_c, 0, 63, 0
2, 15537, Note_on_c, 0, 60, 0
2, 15537, Note_on_c, 0, 57, 0
2, 15648, Note_on_c, 0, 72, 80
2, 15715, Note_on_c, 0, 72, 0
2, 15720, Control_c, 0, 64, 0
2, 15720, Note_on_c, 0, 63, 80
2, 15743, Note_on_c, 0, 63, 0
2, 15744, Note_on_c, 0, 63, 96
2, 15840, Note_on_c, 0, 63, 0
2, 15840, Control_c, 0, 64, 127
2, 15840, Note_on_c, 0, 62, 80
2, 15929, Note_on_c, 0, 62, 0
2, 15936, Control_c, 0, 64, 0
2, 16128, Control_c, 0, 64, 127
2, 16128, Note_on_c, 0, 68, 80
2, 16128, Note_on_c, 0, 65, 80
2, 16128, Note_on_c, 0, 62, 80
2, 16167, Note_on_c, 0, 68, 0
2, 16167, Note_on_c, 0, 65, 0
2, 16167, Note_on_c, 0, 62, 0
2, 16224, Note_on_c, 0, 68, 80
2, 16224, Note_on_c, 0, 65, 80
2, 16224, Note_on_c, 0, 62, 80
2, 16313, Note_on_c, 0, 68, 0
2, 16313, Note_on_c, 0, 65, 0
2, 16313, Note_on_c, 0, 62, 0
2, 16416, Note_on_c, 0, 77, 80
2, 16483, Note_on_c, 0, 77, 0
2, 16488, Control_c, 0, 64, 0
2, 16488, Note_on_c, 0, 68, 80
2, 16511, Note_on_c, 0, 68, 0
2, 16512, Note_on_c, 0, 68, 96
2, 16608, Note_on_c, 0, 68, 0
2, 16608, Control_c, 0, 64, 127
2, 16608, Note_on_c, 0, 67, 80
2, 16697, Note_on_c, 0, 67, 0
2, 16800, Note_on_c, 0, 75, 96
2, 16896, Control_c, 0, 64, 0
2, 16944, Note_on_c, 0, 75, 0
2, 16944, Note_on_c, 0, 73, 79
2, 16989, Note_on_c, 0, 73, 0
2, 16992, Note_on_c, 0, 74, 79
2, 17012, Note_on_c, 0, 74, 0
2, 17040, Note_on_c, 0, 74, 78
2, 17136, Note_on_c, 0, 74, 0
2, 17136, Note_on_c, 0, 71, 78
2, 17181, Note_on_c, 0, 71, 0
2, 17184, Note_on_c, 0, 72, 77
2, 17204, Note_on_c, 0, 72, 0
2, 17232, Note_on_c, 0, 72, 77
2, 17328, Note_on_c, 0, 72, 0
2, 17328, Note_on_c, 0, 69, 76
2, 17373, Note_on_c, 0, 69, 0
2, 17376, Note_on_c, 0, 70, 76
2, 17396, Note_on_c, 0, 70, 0
2, 17424, Note_on_c, 0, 70, 75
2, 17520, Note_on_c, 0, 70, 0
2, 17520, Note_on_c, 0, 67, 75
2, 17565, Note_on_c, 0, 67, 0
2, 17568, Note_on_c, 0, 69, 75
2, 17635, Note_on_c, 0, 69, 0
2, 17640, Note_on_c, 0, 74, 71
2, 17663, Note_on_c, 0, 74, 0
2, 17664, Note_on_c, 0, 73, 70
2, 17709, Note_on_c, 0, 73, 0
2, 17712, Note_on_c, 0, 70, 71
2, 17712, Note_on_c, 0, 67, 71
2, 17757, Note_on_c, 0, 70, 0
2, 17757, Note_on_c, 0, 67, 0
2, 17760, Note_on_c, 0, 69, 72
2, 17760, Note_on_c, 0, 65, 72
2, 17805, Note_on_c, 0, 69, 0
2, 17805, Note_on_c, 0, 65, 0
2, 17808, Note_on_c, 0, 67, 73
2, 17808, Note_on_c, 0, 63, 73
2, 17853, Note_on_c, 0, 67, 0
2, 17853, Note_on_c, 0, 63, 0
2, 17856, Note_on_c, 0, 66, 75
2, 17856, Note_on_c, 0, 62, 75
2, 17901, Note_on_c, 0, 66, 0
2, 17901, Note_on_c, 0, 62, 0
2, 17904, Note_on_c, 0, 75, 76
2, 17949, Note_on_c, 0, 75, 0
2, 17952, Note_on_c, 0, 74, 77
2, 17997, Note_on_c, 0, 74, 0
2, 18000, Note_on_c, 0, 72, 78
2, 18045, Note_on_c, 0, 72, 0
2, 18048, Note_on_c, 0, 70, 80
2, 18093, Note_on_c, 0, 70, 0
2, 18096, Note_on_c, 0, 74, 80
2, 18141, Note_on_c, 0, 74, 0
2, 18144, Note_on_c, 0, 79, 81
2, 18189, Note_on_c, 0, 79, 0
2, 18192, Note_on_c, 0, 70, 81
2, 18237, Note_on_c, 0, 70, 0
2, 18240, Note_on_c, 0, 69, 82
2, 18285, Note_on_c, 0, 69, 0
2, 18288, Note_on_c, 0, 78, 82
2, 18333, Note_on_c, 0, 78, 0
2, 18336, Note_on_c, 0, 81, 83
2, 18381, Note_on_c, 0, 81, 0
2, 18384, Note_on_c, 0, 72, 83
2, 18429, Note_on_c, 0, 72, 0
2, 18432, Note_on_c, 0, 74, 84
2, 18477, Note_on_c, 0, 74, 0
2, 18480, Note_on_c, 0, 78, 84
2, 18525, Note_on_c, 0, 78, 0
2, 18528, Note_on_c, 0, 79, 85
2, 18573, Note_on_c, 0, 79, 0
2, 18576, Note_on_c, 0, 81, 102
2, 18672, Note_on_c, 0, 81, 0
2, 18672, Note_on_c, 0, 75, 86
2, 18717, Note_on_c, 0, 75, 0
2, 18720, Note_on_c, 0, 74, 84
2, 18765, Note_on_c, 0, 74, 0
2, 18768, Note_on_c, 0, 72, 82
2, 18813, Note_on_c, 0, 72, 0
2, 18816, Note_on_c, 0, 70, 80
2, 18846, Note_on_c, 0, 70, 0
2, 18848, Note_on_c, 0, 74, 80
2, 18878, Note_on_c, 0, 74, 0
2, 18880, Note_on_c, 0, 79, 80
2, 18910, Note_on_c, 0, 79, 0
2, 18912, Note_on_c, 0, 70, 81
2, 18942, Note_on_c, 0, 70, 0
2, 18944, Note_on_c, 0, 74, 81
2, 18974, Note_on_c, 0, 74, 0
2, 18976, Note_on_c, 0, 79, 81
2, 19006, Note_on_c, 0, 79, 0
2, 19008, Note_on_c, 0, 72, 82
2, 19038, Note_on_c, 0, 72, 0
2, 19040, Note_on_c, 0, 78, 82
2, 19070, Note_on_c, 0, 78, 0
2, 19072, Note_on_c, 0, 81, 82
2, 19102, Note_on_c, 0, 81, 0
2, 19104, Note_on_c, 0, 72, 83
2, 19134, Note_on_c, 0, 72, 0
2, 19136, Note_on_c, 0, 78, 83
2, 19166, Note_on_c, 0, 78, 0
2, 19168, Note_on_c, 0, 81, 83
2, 19198, Note_on_c, 0, 81, 0
2, 19200, Note_on_c, 0, 79, 84
2, 19245, Note_on_c, 0, 79, 0
2, 19248, Note_on_c, 0, 82, 100
2, 19344, Note_on_c, 0, 82, 0
2, 19344, Note_on_c, 0, 81, 86
2, 19367, Note_on_c, 0, 81, 0
2, 19368, Note_on_c, 0, 79, 85
2, 19391, Note_on_c, 0, 79, 0
2, 19392, Note_on_c, 0, 79, 84
2, 19481, Note_on_c, 0, 79, 0
2, 19488, Note_on_c, 0, 78, 80
2, 19577, Note_on_c, 0, 78, 0
2, 19584, Note_on_c, 0, 79, 96
2, 19608, Note_on_c, 0, 79, 0
2, 19608, Note_on_c, 0, 67, 80
2, 19631, Note_on_c, 0, 67, 0
2, 19632, Note_on_c, 0, 69, 80
2, 19655, Note_on_c, 0, 69, 0
2, 19656, Note_on_c, 0, 70, 80
2, 19679, Note_on_c, 0, 70, 0
2, 19680, Note_on_c, 0, 72, 80
2, 19703, Note_on_c, 0, 72, 0
2, 19704, Note_on_c, 0, 74, 80
2, 19727, Note_on_c, 0, 74, 0
2, 19728, Note_on_c, 0, 76, 80
2, 19751, Note_on_c, 0, 76, 0
2, 19752, Note_on_c, 0, 78, 80
2, 19775, Note_on_c, 0, 78, 0
2, 19776, Note_on_c, 0, 79, 96
2, 19800, Note_on_c, 0, 79, 0
2, 19800, Note_on_c, 0, 67, 80
2, 19823, Note_on_c, 0, 67, 0
2, 19824, Note_on_c, 0, 69, 80
2, 19847, Note_on_c, 0, 69, 0
2, 19848, Note_on_c, 0, 70, 80
2, 19871, Note_on_c, 0, 70, 0
2, 19872, Note_on_c, 0, 72, 80
2, 19895, Note_on_c, 0, 72, 0
2, 19896, Note_on_c, 0, 74, 80
2, 19919, Note_on_c, 0, 74, 0
2, 19920, Note_on_c, 0, 76, 80
2, 19943, Note_on_c, 0, 76, 0
2, 19944, Note_on_c, 0, 78, 80
2, 19967, Note_on_c, 0, 78, 0
2, 19968, Note_on_c, 0, 79, 96
2, 19992, Note_on_c, 0, 79, 0
2, 19992, Note_on_c, 0, 67, 80
2, 20015, Note_on_c, 0, 67, 0
2, 20016, Note_on_c, 0, 69, 80
2, 20039, Note_on_c, 0, 69, 0
2, 20040, Note_on_c, 0, 70, 80
2, 20063, Note_on_c, 0, 70, 0
2, 20064, Note_on_c, 0, 72, 80
2, 20087, Note_on_c, 0, 72, 0
2, 20088, Note_on_c, 0, 74, 80
2, 20111, Note_on_c, 0, 74, 0
2, 20112, Note_on_c, 0, 76, 80
2, 20135, Note_on_c, 0, 76, 0
2, 20136, Note_on_c, 0, 78, 80
2, 20159, Note_on_c, 0, 78, 0
2, 20160, Note_on_c, 0, 79, 80
2, 20183, Note_on_c, 0, 79, 0
2, 20184, Note_on_c, 0, 78, 80
2, 20207, Note_on_c, 0, 78, 0
2, 20208, Note_on_c, 0, 79, 80
2, 20231, Note_on_c, 0, 79, 0
2, 20232, Note_on_c, 0, 78, 80
2, 20255, Note_on_c, 0, 78, 0
2, 20256, Note_on_c, 0, 79, 80
2, 20279, Note_on_c, 0, 79, 0
2, 20280, Note_on_c, 0, 78, 80
2, 20303, Note_on_c, 0, 78, 0
2, 20304, Note_on_c, 0, 79, 80
2, 20327, Note_on_c, 0, 79, 0
2, 20328, Note_on_c, 0, 78, 80
2, 20351, Note_on_c, 0, 78, 0
2, 20352, Note_on_c, 0, 79, 80
2, 20375, Note_on_c, 0, 79, 0
2, 20376, Note_on_c, 0, 87, 97
2, 20399, Note_on_c, 0, 87, 0
2, 20400, Note_on_c, 0, 86, 80
2, 20423, Note_on_c, 0, 86, 0
2, 20424, Note_on_c, 0, 84, 80
2, 20447, Note_on_c, 0, 84, 0
2, 20448, Note_on_c, 0, 82, 80
2, 20471, Note_on_c, 0, 82, 0
2, 20472, Note_on_c, 0, 81, 80
2, 20495, Note_on_c, 0, 81, 0
2, 20496, Note_on_c, 0, 79, 80
2, 20519, Note_on_c, 0, 79, 0
2, 20520, Note_on_c, 0, 78, 80
2, 20543, Note_on_c, 0, 78, 0
2, 20544, Note_on_c, 0, 79, 80
2, 20567, Note_on_c, 0, 79, 0
2, 20568, Note_on_c, 0, 75, 80
2, 20591, Note_on_c, 0, 75, 0
2, 20592, Note_on_c, 0, 74, 80
2, 20615, Note_on_c, 0, 74, 0
2, 20616, Note_on_c, 0, 72, 80
2, 20639, Note_on_c, 0, 72, 0
2, 20640, Note_on_c, 0, 70, 80
2, 20663, Note_on_c, 0, 70, 0
2, 20664, Note_on_c, 0, 69, 80
2, 20687, Note_on_c, 0, 69, 0
2, 20688, Note_on_c, 0, 67, 80
2, 20711, Note_on_c, 0, 67, 0
2, 20712, Note_on_c, 0, 66, 80
2, 20735, Note_on_c, 0, 66, 0
2, 20736, Note_on_c, 0, 67, 80
2, 20759, Note_on_c, 0, 67, 0
2, 20760, Note_on_c, 0, 66, 80
2, 20783, Note_on_c, 0, 66, 0
2, 20784, Note_on_c, 0, 67, 80
2, 20807, Note_on_c, 0, 67, 0
2, 20808, Note_on_c, 0, 66, 80
2, 20831, Note_on_c, 0, 66, 0
2, 20832, Note_on_c, 0, 67, 80
2, 20855, Note_on_c, 0, 67, 0
2, 20856, Note_on_c, 0, 70, 80
2, 20879, Note_on_c, 0, 70, 0
2, 20880, Note_on_c, 0, 69, 80
2, 20903, Note_on_c, 0, 69, 0
2, 20904, Note_on_c, 0, 67, 80
2, 20927, Note_on_c, 0, 67, 0
2, 20928, Note_on_c, 0, 66, 80
2, 20951, Note_on_c, 0, 66, 0
2, 20952, Note_on_c, 0, 74, 80
2, 20975, Note_on_c, 0, 74, 0
2, 20976, Note_on_c, 0, 69, 80
2, 20999, Note_on_c, 0, 69, 0
2, 21000, Note_on_c, 0, 66, 80
2, 21023, Note_on_c, 0, 66, 0
2, 21312, Note_on_c, 0, 77, 75
2, 21351, Note_on_c, 0, 77, 0
2, 21408, Note_on_c, 0, 74, 75
2, 21447, Note_on_c, 0, 74, 0
2, 21504, Note_on_c, 0, 70, 91
2, 21552, Note_on_c, 0, 70, 0
2, 21552, Note_on_c, 0, 70, 75
2, 21597, Note_on_c, 0, 70, 0
2, 21600, Note_on_c, 0, 72, 76
2, 21615, Note_on_c, 0, 72, 0
2, 21616, Note_on_c, 0, 70, 76
2, 21631, Note_on_c, 0, 70, 0
2, 21632, Note_on_c, 0, 72, 76
2, 21647, Note_on_c, 0, 72, 0
2, 21648, Note_on_c, 0, 70, 76
2, 21663, Note_on_c, 0, 70, 0
2, 21664, Note_on_c, 0, 69, 76
2, 21679, Note_on_c, 0, 69, 0
2, 21680, Note_on_c, 0, 70, 77
2, 21695, Note_on_c, 0, 70, 0
2, 21696, Note_on_c, 0, 72, 93
2, 21744, Note_on_c, 0, 72, 0
2, 21744, Note_on_c, 0, 72, 77
2, 21789, Note_on_c, 0, 72, 0
2, 21792, Note_on_c, 0, 74, 78
2, 21807, Note_on_c, 0, 74, 0
2, 21808, Note_on_c, 0, 72, 78
2, 21823, Note_on_c, 0, 72, 0
2, 21824, Note_on_c, 0, 74, 78
2, 21839, Note_on_c, 0, 74, 0
2, 21840, Note_on_c, 0, 72, 78
2, 21855, Note_on_c, 0, 72, 0
2, 21856, Note_on_c, 0, 70, 79
2, 21871, Note_on_c, 0, 70, 0
2, 21872, Note_on_c, 0, 72, 79
2, 21887, Note_on_c, 0, 72, 0
2, 21888, Note_on_c, 0, 74, 96
2, 21984, Note_on_c, 0, 74, 0
2, 21984, Note_on_c, 0, 77, 80
2, 22029, Note_on_c, 0, 77, 0
2, 22032, Note_on_c, 0, 75, 80
2, 22077, Note_on_c, 0, 75, 0
2, 22080, Note_on_c, 0, 74, 79
2, 22176, Note_on_c, 0, 74, 0
2, 22176, Note_on_c, 0, 72, 77
2, 22265, Note_on_c, 0, 72, 0
2, 22272, Note_on_c, 0, 70, 75
2, 22317, Note_on_c, 0, 70, 0
2, 22320, Note_on_c, 0, 82, 75
2, 22340, Note_on_c, 0, 82, 0
2, 22368, Note_on_c, 0, 70, 76
2, 22416, Note_on_c, 0, 70, 0
2, 22416, Note_on_c, 0, 71, 76
2, 22461, Note_on_c, 0, 71, 0
2, 22464, Note_on_c, 0, 72, 77
2, 22509, Note_on_c, 0, 72, 0
2, 22512, Note_on_c, 0, 84, 78
2, 22532, Note_on_c, 0, 84, 0
2, 22560, Note_on_c, 0, 72, 78
2, 22608, Note_on_c, 0, 72, 0
2, 22608, Note_on_c, 0, 73, 79
2, 22620, Note_on_c, 0, 73, 0
2, 22620, Note_on_c, 0, 74, 79
2, 22632, Note_on_c, 0, 74, 0
2, 22632, Note_on_c, 0, 73, 79
2, 22653, Note_on_c, 0, 73, 0
2, 22656, Note_on_c, 0, 74, 80
2, 22679, Note_on_c, 0, 74, 0
2, 22680, Note_on_c, 0, 86, 80
2, 22703, Note_on_c, 0, 86, 0
2, 22704, Note_on_c, 0, 84, 80
2, 22727, Note_on_c, 0, 84, 0
2, 22728, Note_on_c, 0, 82, 80
2, 22751, Note_on_c, 0, 82, 0
2, 22752, Note_on_c, 0, 81, 80
2, 22775, Note_on_c, 0, 81, 0
2, 22776, Note_on_c, 0, 79, 79
2, 22799, Note_on_c, 0, 79, 0
2, 22800, Note_on_c, 0, 77, 79
2, 22823, Note_on_c, 0, 77, 0
2, 22824, Note_on_c, 0, 76, 78
2, 22847, Note_on_c, 0, 76, 0
2, 22848, Note_on_c, 0, 79, 78
2, 22944, Note_on_c, 0, 79, 0
2, 22944, Note_on_c, 0, 77, 76
2, 23033, Note_on_c, 0, 77, 0
2, 23040, Note_on_c, 0, 72, 75
2, 23040, Note_on_c, 0, 67, 75
2, 23079, Note_on_c, 0, 72, 0
2, 23079, Note_on_c, 0, 67, 0
2, 23136, Note_on_c, 0, 72, 75
2, 23136, Note_on_c, 0, 67, 75
2, 23313, Note_on_c, 0, 72, 0
2, 23313, Note_on_c, 0, 67, 0
2, 23328, Note_on_c, 0, 74, 78
2, 23328, Note_on_c, 0, 70, 78
2, 23417, Note_on_c, 0, 74, 0
2, 23417, Note_on_c, 0, 70, 0
2, 23424, Note_on_c, 0, 75, 80
2, 23491, Note_on_c, 0, 75, 0
2, 23496, Note_on_c, 0, 77, 80
2, 23519, Note_on_c, 0, 77, 0
2, 23520, Note_on_c, 0, 79, 80
2, 23653, Note_on_c, 0, 79, 0
2, 23808, Note_on_c, 0, 82, 70
2, 23875, Note_on_c, 0, 82, 0
2, 23880, Note_on_c, 0, 84, 70
2, 23903, Note_on_c, 0, 84, 0
2, 23904, Note_on_c, 0, 85, 70
2, 24037, Note_on_c, 0, 85, 0
2, 24192, Note_on_c, 0, 60, 75
2, 24259, Note_on_c, 0, 60, 0
2, 24264, Note_on_c, 0, 62, 75
2, 24287, Note_on_c, 0, 62, 0
2, 24288, Note_on_c, 0, 63, 75
2, 24421, Note_on_c, 0, 63, 0
2, 24576, Note_on_c, 0, 58, 70
2, 24615, Note_on_c, 0, 58, 0
2, 24672, Note_on_c, 0, 58, 86
2, 24864, Note_on_c, 0, 58, 0
2, 24864, Note_on_c, 0, 62, 70
2, 24909, Note_on_c, 0, 62, 0
2, 24912, Note_on_c, 0, 60, 70
2, 24957, Note_on_c, 0, 60, 0
2, 24960, Note_on_c, 0, 58, 70
2, 24983, Note_on_c, 0, 58, 0
2, 24984, Note_on_c, 0, 53, 70
2, 25007, Note_on_c, 0, 53, 0
2, 25008, Note_on_c, 0, 55, 70
2, 25031, Note_on_c, 0, 55, 0
2, 25032, Note_on_c, 0, 57, 70
2, 25055, Note_on_c, 0, 57, 0
2, 25056, Note_on_c, 0, 58, 70
2, 25079, Note_on_c, 0, 58, 0
2, 25080, Note_on_c, 0, 60, 70
2, 25103, Note_on_c, 0, 60, 0
2, 25104, Note_on_c, 0, 62, 70
2, 25127, Note_on_c, 0, 62, 0
2, 25128, Note_on_c, 0, 63, 70
2, 25151, Note_on_c, 0, 63, 0
2, 25152, Note_on_c, 0, 65, 70
2, 25175, Note_on_c, 0, 65, 0
2, 25176, Note_on_c, 0, 58, 70
2, 25199, Note_on_c, 0, 58, 0
2, 25200, Note_on_c, 0, 60, 70
2, 25223, Note_on_c, 0, 60, 0
2, 25224, Note_on_c, 0, 62, 70
2, 25247, Note_on_c, 0, 62, 0
2, 25248, Note_on_c, 0, 63, 70
2, 25271, Note_on_c, 0, 63, 0
2, 25272, Note_on_c, 0, 65, 70
2, 25295, Note_on_c, 0, 65, 0
2, 25296, Note_on_c, 0, 67, 70
2, 25319, Note_on_c, 0, 67, 0
2, 25320, Note_on_c, 0, 69, 70
2, 25343, Note_on_c, 0, 69, 0
2, 25344, Note_on_c, 0, 70, 70
2, 25367, Note_on_c, 0, 70, 0
2, 25368, Note_on_c, 0, 65, 70
2, 25391, Note_on_c, 0, 65, 0
2, 25392, Note_on_c, 0, 67, 70
2, 25415, Note_on_c, 0, 67, 0
2, 25416, Note_on_c, 0, 69, 70
2, 25439, Note_on_c, 0, 69, 0
2, 25440, Note_on_c, 0, 70, 70
2, 25463, Note_on_c, 0, 70, 0
2, 25464, Note_on_c, 0, 72, 70
2, 25487, Note_on_c, 0, 72, 0
2, 25488, Note_on_c, 0, 74, 70
2, 25511, Note_on_c, 0, 74, 0
2, 25512, Note_on_c, 0, 75, 70
2, 25535, Note_on_c, 0, 75, 0
2, 25536, Note_on_c, 0, 77, 70
2, 25559, Note_on_c, 0, 77, 0
2, 25560, Note_on_c, 0, 70, 70
2, 25583, Note_on_c, 0, 70, 0
2, 25584, Note_on_c, 0, 72, 70
2, 25607, Note_on_c, 0, 72, 0
2, 25608, Note_on_c, 0, 74, 70
2, 25631, Note_on_c, 0, 74, 0
2, 25632, Note_on_c, 0, 75, 70
2, 25655, Note_on_c, 0, 75, 0
2, 25656, Note_on_c, 0, 77, 70
2, 25679, Note_on_c, 0, 77, 0
2, 25680, Note_on_c, 0, 79, 70
2, 25703, Note_on_c, 0, 79, 0
2, 25704, Note_on_c, 0, 81, 70
2, 25727, Note_on_c, 0, 81, 0
2, 25752, Note_on_c, 0, 82, 70
2, 25775, Note_on_c, 0, 82, 0
2, 25776, Note_on_c, 0, 86, 70
2, 25799, Note_on_c, 0, 86, 0
2, 25800, Note_on_c, 0, 82, 70
2, 25823, Note_on_c, 0, 82, 0
2, 25848, Note_on_c, 0, 82, 70
2, 25871, Note_on_c, 0, 82, 0
2, 25872, Note_on_c, 0, 86, 70
2, 25895, Note_on_c, 0, 86, 0
2, 25896, Note_on_c, 0, 82, 70
2, 25919, Note_on_c, 0, 82, 0
2, 25944, Note_on_c, 0, 82, 70
2, 25967, Note_on_c, 0, 82, 0
2, 25968, Note_on_c, 0, 86, 70
2, 25991, Note_on_c, 0, 86, 0
2, 25992, Note_on_c, 0, 82, 70
2, 26015, Note_on_c, 0, 82, 0
2, 26040, Note_on_c, 0, 82, 70
2, 26063, Note_on_c, 0, 82, 0
2, 26064, Note_on_c, 0, 86, 70
2, 26087, Note_on_c, 0, 86, 0
2, 26088, Note_on_c, 0, 82, 70
2, 26111, Note_on_c, 0, 82, 0
2, 26136, Note_on_c, 0, 82, 70
2, 26159, Note_on_c, 0, 82, 0
2, 26160, Note_on_c, 0, 85, 70
2, 26183, Note_on_c, 0, 85, 0
2, 26184, Note_on_c, 0, 82, 70
2, 26207, Note_on_c, 0, 82, 0
2, 26232, Note_on_c, 0, 82, 70
2, 26255, Note_on_c, 0, 82, 0
2, 26256, Note_on_c, 0, 85, 70
2, 26279, Note_on_c, 0, 85, 0
2, 26280, Note_on_c, 0, 82, 70
2, 26303, Note_on_c, 0, 82, 0
2, 26328, Note_on_c, 0, 82, 70
2, 26351, Note_on_c, 0, 82, 0
2, 26352, Note_on_c, 0, 85, 70
2, 26375, Note_on_c, 0, 85, 0
2, 26376, Note_on_c, 0, 82, 70
2, 26399, Note_on_c, 0, 82, 0
2, 26424, Note_on_c, 0, 82, 70
2, 26447, Note_on_c, 0, 82, 0
2, 26448, Note_on_c, 0, 85, 70
2, 26471, Note_on_c, 0, 85, 0
2, 26472, Note_on_c, 0, 82, 70
2, 26495, Note_on_c, 0, 82, 0
2, 26520, Note_on_c, 0, 80, 70
2, 26543, Note_on_c, 0, 80, 0
2, 26544, Note_on_c, 0, 84, 70
2, 26567, Note_on_c, 0, 84, 0
2, 26568, Note_on_c, 0, 80, 70
2, 26591, Note_on_c, 0, 80, 0
2, 26616, Note_on_c, 0, 80, 70
2, 26639, Note_on_c, 0, 80, 0
2, 26640, Note_on_c, 0, 84, 70
2, 26663, Note_on_c, 0, 84, 0
2, 26664, Note_on_c, 0, 80, 70
2, 26687, Note_on_c, 0, 80, 0
2, 26712, Note_on_c, 0, 80, 70
2, 26735, Note_on_c, 0, 80, 0
2, 26736, Note_on_c, 0, 84, 70
2, 26759, Note_on_c, 0, 84, 0
2, 26760, Note_on_c, 0, 80, 70
2, 26783, Note_on_c, 0, 80, 0
2, 26808, Note_on_c, 0, 80, 70
2, 26831, Note_on_c, 0, 80, 0
2, 26832, Note_on_c, 0, 84, 70
2, 26855, Note_on_c, 0, 84, 0
2, 26856, Note_on_c, 0, 80, 70
2, 26879, Note_on_c, 0, 80, 0
2, 26904, Note_on_c, 0, 77, 70
2, 26927, Note_on_c, 0, 77, 0
2, 26928, Note_on_c, 0, 80, 70
2, 26951, Note_on_c, 0, 80, 0
2, 26952, Note_on_c, 0, 77, 70
2, 26975, Note_on_c, 0, 77, 0
2, 27000, Note_on_c, 0, 77, 70
2, 27023, Note_on_c, 0, 77, 0
2, 27024, Note_on_c, 0, 80, 70
2, 27047, Note_on_c, 0, 80, 0
2, 27048, Note_on_c, 0, 77, 70
2, 27071, Note_on_c, 0, 77, 0
2, 27096, Note_on_c, 0, 77, 70
2, 27119, Note_on_c, 0, 77, 0
2, 27120, Note_on_c, 0, 80, 70
2, 27143, Note_on_c, 0, 80, 0
2, 27144, Note_on_c, 0, 77, 70
2, 27167, Note_on_c, 0, 77, 0
2, 27192, Note_on_c, 0, 77, 70
2, 27215, Note_on_c, 0, 77, 0
2, 27216, Note_on_c, 0, 80, 70
2, 27239, Note_on_c, 0, 80, 0
2, 27240, Note_on_c, 0, 77, 70
2, 27263, Note_on_c, 0, 77, 0
2, 27288, Note_on_c, 0, 75, 70
2, 27311, Note_on_c, 0, 75, 0
2, 27312, Note_on_c, 0, 79, 70
2, 27335, Note_on_c, 0, 79, 0
2, 27336, Note_on_c, 0, 75, 70
2, 27359, Note_on_c, 0, 75, 0
2, 27384, Note_on_c, 0, 75, 70
2, 27407, Note_on_c, 0, 75, 0
2, 27408, Note_on_c, 0, 79, 70
2, 27431, Note_on_c, 0, 79, 0
2, 27432, Note_on_c, 0, 75, 70
2, 27455, Note_on_c, 0, 75, 0
2, 27480, Note_on_c, 0, 75, 70
2, 27503, Note_on_c, 0, 75, 0
2, 27504, Note_on_c, 0, 79, 70
2, 27527, Note_on_c, 0, 79, 0
2, 27528, Note_on_c, 0, 75, 70
2, 27551, Note_on_c, 0, 75, 0
2, 27576, Note_on_c, 0, 75, 70
2, 27599, Note_on_c, 0, 75, 0
2, 27600, Note_on_c, 0, 79, 70
2, 27623, Note_on_c, 0, 79, 0
2, 27624, Note_on_c, 0, 75, 70
2, 27647, Note_on_c, 0, 75, 0
2, 27672, Note_on_c, 0, 75, 70
2, 27695, Note_on_c, 0, 75, 0
2, 27696, Note_on_c, 0, 78, 70
2, 27719, Note_on_c, 0, 78, 0
2, 27720, Note_on_c, 0, 75, 70
2, 27743, Note_on_c, 0, 75, 0
2, 27768, Note_on_c, 0, 75, 70
2, 27791, Note_on_c, 0, 75, 0
2, 27792, Note_on_c, 0, 78, 70
2, 27815, Note_on_c, 0, 78, 0
2, 27816, Note_on_c, 0, 75, 70
2, 27839, Note_on_c, 0, 75, 0
2, 27864, Note_on_c, 0, 75, 70
2, 27887, Note_on_c, 0, 75, 0
2, 27888, Note_on_c, 0, 78, 70
2, 27911, Note_on_c, 0, 78, 0
2, 27912, Note_on_c, 0, 75, 70
2, 27935, Note_on_c, 0, 75, 0
2, 27960, Note_on_c, 0, 75, 70
2, 27983, Note_on_c, 0, 75, 0
2, 27984, Note_on_c, 0, 78, 70
2, 28007, Note_on_c, 0, 78, 0
2, 28008, Note_on_c, 0, 75, 70
2, 28031, Note_on_c, 0, 75, 0
2, 28056, Note_on_c, 0, 70, 70
2, 28079, Note_on_c, 0, 70, 0
2, 28080, Note_on_c, 0, 74, 70
2, 28103, Note_on_c, 0, 74, 0
2, 28104, Note_on_c, 0, 70, 70
2, 28127, Note_on_c, 0, 70, 0
2, 28152, Note_on_c, 0, 70, 70
2, 28175, Note_on_c, 0, 70, 0
2, 28176, Note_on_c, 0, 74, 70
2, 28199, Note_on_c, 0, 74, 0
2, 28200, Note_on_c, 0, 70, 70
2, 28223, Note_on_c, 0, 70, 0
2, 28248, Note_on_c, 0, 70, 70
2, 28271, Note_on_c, 0, 70, 0
2, 28272, Note_on_c, 0, 74, 70
2, 28295, Note_on_c, 0, 74, 0
2, 28296, Note_on_c, 0, 70, 70
2, 28319, Note_on_c, 0, 70, 0
2, 28344, Note_on_c, 0, 70, 70
2, 28367, Note_on_c, 0, 70, 0
2, 28368, Note_on_c, 0, 74, 70
2, 28391, Note_on_c, 0, 74, 0
2, 28392, Note_on_c, 0, 70, 70
2, 28415, Note_on_c, 0, 70, 0
2, 28416, Note_on_c, 0, 70, 70
2, 28436, Note_on_c, 0, 70, 0
2, 28464, Note_on_c, 0, 79, 70
2, 28484, Note_on_c, 0, 79, 0
2, 28512, Note_on_c, 0, 76, 70
2, 28532, Note_on_c, 0, 76, 0
2, 28560, Note_on_c, 0, 79, 70
2, 28580, Note_on_c, 0, 79, 0
2, 28608, Note_on_c, 0, 70, 70
2, 28653, Note_on_c, 0, 70, 0
2, 28656, Note_on_c, 0, 86, 70
2, 28656, Note_on_c, 0, 82, 70
2, 28701, Note_on_c, 0, 86, 0
2, 28701, Note_on_c, 0, 82, 0
2, 28704, Note_on_c, 0, 84, 70
2, 28704, Note_on_c, 0, 81, 70
2, 28749, Note_on_c, 0, 84, 0
2, 28749, Note_on_c, 0, 81, 0
2, 28752, Note_on_c, 0, 82, 70
2, 28752, Note_on_c, 0, 79, 70
2, 28797, Note_on_c, 0, 82, 0
2, 28797, Note_on_c, 0, 79, 0
2, 28800, Note_on_c, 0, 81, 70
2, 28800, Note_on_c, 0, 77, 70
2, 28845, Note_on_c, 0, 81, 0
2, 28845, Note_on_c, 0, 77, 0
2, 28848, Note_on_c, 0, 74, 70
2, 28848, Note_on_c, 0, 70, 70
2, 28893, Note_on_c, 0, 74, 0
2, 28893, Note_on_c, 0, 70, 0
2, 28896, Note_on_c, 0, 72, 70
2, 28896, Note_on_c, 0, 69, 70
2, 28941, Note_on_c, 0, 72, 0
2, 28941, Note_on_c, 0, 69, 0
2, 28944, Note_on_c, 0, 70, 70
2, 28944, Note_on_c, 0, 67, 70
2, 28989, Note_on_c, 0, 70, 0
2, 28989, Note_on_c, 0, 67, 0
2, 28992, Note_on_c, 0, 69, 70
2, 28992, Note_on_c, 0, 65, 70
2, 29037, Note_on_c, 0, 69, 0
2, 29037, Note_on_c, 0, 65, 0
2, 29040, Note_on_c, 0, 79, 70
2, 29040, Note_on_c, 0, 67, 70
2, 29085, Note_on_c, 0, 79, 0
2, 29085, Note_on_c, 0, 67, 0
2, 29088, Note_on_c, 0, 77, 70
2, 29088, Note_on_c, 0, 65, 70
2, 29133, Note_on_c, 0, 77, 0
2, 29133, Note_on_c, 0, 65, 0
2, 29136, Note_on_c, 0, 75, 70
2, 29136, Note_on_c, 0, 63, 70
2, 29181, Note_on_c, 0, 75, 0
2, 29181, Note_on_c, 0, 63, 0
2, 29184, Note_on_c, 0, 74, 70
2, 29184, Note_on_c, 0, 62, 70
2, 29229, Note_on_c, 0, 74, 0
2, 29229, Note_on_c, 0, 62, 0
2, 29232, Note_on_c, 0, 75, 70
2, 29232, Note_on_c, 0, 63, 70
2, 29277, Note_on_c, 0, 75, 0
2, 29277, Note_on_c, 0, 63, 0
2, 29280, Note_on_c, 0, 77, 70
2, 29280, Note_on_c, 0, 65, 70
2, 29325, Note_on_c, 0, 77, 0
2, 29325, Note_on_c, 0, 65, 0
2, 29328, Note_on_c, 0, 79, 70
2, 29328, Note_on_c, 0, 67, 70
2, 29373, Note_on_c, 0, 79, 0
2, 29373, Note_on_c, 0, 67, 0
2, 29376, Note_on_c, 0, 81, 70
2, 29376, Note_on_c, 0, 69, 70
2, 29421, Note_on_c, 0, 81, 0
2, 29421, Note_on_c, 0, 69, 0
2, 29424, Note_on_c, 0, 82, 70
2, 29424, Note_on_c, 0, 70, 70
2, 29469, Note_on_c, 0, 82, 0
2, 29469, Note_on_c, 0, 70, 0
2, 29472, Note_on_c, 0, 84, 70
2, 29472, Note_on_c, 0, 72, 70
2, 29517, Note_on_c, 0, 84, 0
2, 29517, Note_on_c, 0, 72, 0
2, 29520, Note_on_c, 0, 86, 70
2, 29520, Note_on_c, 0, 74, 70
2, 29565, Note_on_c, 0, 86, 0
2, 29565, Note_on_c, 0, 74, 0
2, 29568, Note_on_c, 0, 87, 86
2, 29568, Note_on_c, 0, 75, 86
2, 29592, Note_on_c, 0, 87, 0
2, 29592, Note_on_c, 0, 75, 0
2, 29592, Note_on_c, 0, 77, 70
2, 29615, Note_on_c, 0, 77, 0
2, 29616, Note_on_c, 0, 81, 70
2, 29639, Note_on_c, 0, 81, 0
2, 29640, Note_on_c, 0, 84, 70
2, 29663, Note_on_c, 0, 84, 0
2, 29664, Note_on_c, 0, 87, 86
2, 29688, Note_on_c, 0, 87, 0
2, 29688, Note_on_c, 0, 77, 70
2, 29711, Note_on_c, 0, 77, 0
2, 29712, Note_on_c, 0, 81, 70
2, 29735, Note_on_c, 0, 81, 0
2, 29736, Note_on_c, 0, 84, 70
2, 29759, Note_on_c, 0, 84, 0
2, 29760, Note_on_c, 0, 87, 86
2, 29784, Note_on_c, 0, 87, 0
2, 29784, Note_on_c, 0, 86, 70
2, 29807, Note_on_c, 0, 86, 0
2, 29808, Note_on_c, 0, 84, 70
2, 29831, Note_on_c, 0, 84, 0
2, 29832, Note_on_c, 0, 82, 70
2, 29855, Note_on_c, 0, 82, 0
2, 29856, Note_on_c, 0, 81, 70
2, 29879, Note_on_c, 0, 81, 0
2, 29880, Note_on_c, 0, 79, 70
2, 29903, Note_on_c, 0, 79, 0
2, 29904, Note_on_c, 0, 77, 70
2, 29927, Note_on_c, 0, 77, 0
2, 29928, Note_on_c, 0, 76, 70
2, 29951, Note_on_c, 0, 76, 0
2, 29952, Note_on_c, 0, 75, 70
2, 30041, Note_on_c, 0, 75, 0
2, 30144, Note_on_c, 0, 65, 75
2, 30156, Note_on_c, 0, 65, 0
2, 30156, Note_on_c, 0, 77, 75
2, 30183, Note_on_c, 0, 77, 0
2, 30240, Note_on_c, 0, 62, 75
2, 30252, Note_on_c, 0, 62, 0
2, 30252, Note_on_c, 0, 74, 75
2, 30279, Note_on_c, 0, 74, 0
2, 30336, Note_on_c, 0, 58, 75
2, 30348, Note_on_c, 0, 58, 0
2, 30348, Note_on_c, 0, 70, 75
2, 30425, Note_on_c, 0, 70, 0
2, 30480, Note_on_c, 0, 70, 76
2, 30525, Note_on_c, 0, 70, 0
2, 30528, Note_on_c, 0, 72, 77
2, 30617, Note_on_c, 0, 72, 0
2, 30672, Note_on_c, 0, 72, 78
2, 30717, Note_on_c, 0, 72, 0
2, 30720, Note_on_c, 0, 74, 79
2, 30765, Note_on_c, 0, 74, 0
2, 30768, Note_on_c, 0, 77, 96
2, 30864, Note_on_c, 0, 77, 0
2, 30864, Note_on_c, 0, 75, 80
2, 30909, Note_on_c, 0, 75, 0
2, 30912, Note_on_c, 0, 74, 79
2, 30912, Note_on_c, 0, 70, 79
2, 31008, Note_on_c, 0, 74, 0
2, 31008, Note_on_c, 0, 70, 0
2, 31008, Note_on_c, 0, 72, 77
2, 31008, Note_on_c, 0, 69, 77
2, 31097, Note_on_c, 0, 72, 0
2, 31097, Note_on_c, 0, 69, 0
2, 31104, Note_on_c, 0, 70, 75
2, 31149, Note_on_c, 0, 70, 0
2, 31152, Note_on_c, 0, 65, 75
2, 31200, Note_on_c, 0, 65, 0
2, 31200, Note_on_c, 0, 62, 76
2, 31245, Note_on_c, 0, 62, 0
2, 31248, Note_on_c, 0, 71, 76
2, 31296, Note_on_c, 0, 71, 0
2, 31296, Note_on_c, 0, 72, 77
2, 31341, Note_on_c, 0, 72, 0
2, 31344, Note_on_c, 0, 69, 78
2, 31392, Note_on_c, 0, 69, 0
2, 31392, Note_on_c, 0, 65, 78
2, 31437, Note_on_c, 0, 65, 0
2, 31440, Note_on_c, 0, 73, 79
2, 31488, Note_on_c, 0, 73, 0
2, 31488, Note_on_c, 0, 74, 80
2, 31511, Note_on_c, 0, 74, 0
2, 31512, Note_on_c, 0, 78, 80
2, 31535, Note_on_c, 0, 78, 0
2, 31536, Note_on_c, 0, 79, 80
2, 31559, Note_on_c, 0, 79, 0
2, 31560, Note_on_c, 0, 82, 80
2, 31583, Note_on_c, 0, 82, 0
2, 31584, Note_on_c, 0, 81, 80
2, 31607, Note_on_c, 0, 81, 0
2, 31608, Note_on_c, 0, 79, 80
2, 31631, Note_on_c, 0, 79, 0
2, 31632, Note_on_c, 0, 77, 80
2, 31655, Note_on_c, 0, 77, 0
2, 31656, Note_on_c, 0, 76, 80
2, 31679, Note_on_c, 0, 76, 0
2, 31680, Note_on_c, 0, 79, 79
2, 31776, Note_on_c, 0, 79, 0
2, 31776, Note_on_c, 0, 77, 77
2, 31865, Note_on_c, 0, 77, 0
2, 31872, Note_on_c, 0, 72, 75
2, 31911, Note_on_c, 0, 72, 0
2, 31968, Note_on_c, 0, 72, 76
2, 32064, Note_on_c, 0, 72, 0
2, 32064, Note_on_c, 0, 74, 77
2, 32103, Note_on_c, 0, 74, 0
2, 32160, Note_on_c, 0, 74, 78
2, 32160, Note_on_c, 0, 71, 78
2, 32256, Note_on_c, 0, 74, 0
2, 32256, Note_on_c, 0, 71, 0
2, 32256, Note_on_c, 0, 75, 79
2, 32256, Note_on_c, 0, 72, 79
2, 32323, Note_on_c, 0, 75, 0
2, 32323, Note_on_c, 0, 72, 0
2, 32328, Note_on_c, 0, 77, 79
2, 32328, Note_on_c, 0, 74, 79
2, 32351, Note_on_c, 0, 77, 0
2, 32351, Note_on_c, 0, 74, 0
2, 32352, Note_on_c, 0, 79, 80
2, 32352, Note_on_c, 0, 75, 80
2, 32485, Note_on_c, 0, 79, 0
2, 32485, Note_on_c, 0, 75, 0
2, 32496, Note_on_c, 0, 59, 80
2, 32541, Note_on_c, 0, 59, 0
2, 32544, Note_on_c, 0, 60, 80
2, 32559, Note_on_c, 0, 60, 0
2, 32560, Note_on_c, 0, 63, 80
2, 32575, Note_on_c, 0, 63, 0
2, 32576, Note_on_c, 0, 62, 79
2, 32591, Note_on_c, 0, 62, 0
2, 32592, Note_on_c, 0, 60, 79
2, 32607, Note_on_c, 0, 60, 0
2, 32608, Note_on_c, 0, 58, 79
2, 32623, Note_on_c, 0, 58, 0
2, 32624, Note_on_c, 0, 57, 79
2, 32639, Note_on_c, 0, 57, 0
2, 32640, Note_on_c, 0, 60, 79
2, 32640, Note_on_c, 0, 57, 79
2, 32832, Note_on_c, 0, 60, 0
2, 32832, Note_on_c, 0, 57, 0
2, 32832, Note_on_c, 0, 58, 76
2, 32921, Note_on_c, 0, 58, 0
2, 33024, Note_on_c, 0, 68, 91
2, 33024, Note_on_c, 0, 65, 91
2, 33024, Note_on_c, 0, 62, 91
2, 33216, Note_on_c, 0, 68, 0
2, 33216, Note_on_c, 0, 65, 0
2, 33216, Note_on_c, 0, 62, 0
2, 33216, Note_on_c, 0, 67, 75
2, 33216, Note_on_c, 0, 63, 75
2, 33255, Note_on_c, 0, 67, 0
2, 33255, Note_on_c, 0, 63, 0
2, 33408, Note_on_c, 0, 69, 91
2, 33408, Note_on_c, 0, 63, 91
2, 33408, Note_on_c, 0, 60, 91
2, 33600, Note_on_c, 0, 69, 0
2, 33600, Note_on_c, 0, 63, 0
2, 33600, Note_on_c, 0, 60, 0
2, 33600, Note_on_c, 0, 70, 75
2, 33600, Note_on_c, 0, 62, 75
2, 33600, Note_on_c, 0, 58, 75
2, 33639, Note_on_c, 0, 70, 0
2, 33639, Note_on_c, 0, 62, 0
2, 33639, Note_on_c, 0, 58, 0
2, 33792, Note_on_c, 0, 80, 75
2, 33812, Note_on_c, 0, 80, 0
2, 33840, Note_on_c, 0, 80, 91
2, 33936, Note_on_c, 0, 80, 0
2, 33936, Note_on_c, 0, 84, 75
2, 33951, Note_on_c, 0, 84, 0
2, 33952, Note_on_c, 0, 82, 75
2, 33967, Note_on_c, 0, 82, 0
2, 33968, Note_on_c, 0, 80, 75
2, 33983, Note_on_c, 0, 80, 0
2, 33984, Note_on_c, 0, 79, 75
2, 34073, Note_on_c, 0, 79, 0
2, 34176, Note_on_c, 0, 81, 75
2, 34196, Note_on_c, 0, 81, 0
2, 34224, Note_on_c, 0, 87, 91
2, 34320, Note_on_c, 0, 87, 0
2, 34320, Note_on_c, 0, 81, 75
2, 34365, Note_on_c, 0, 81, 0
2, 34368, Note_on_c, 0, 84, 75
2, 34464, Note_on_c, 0, 84, 0
2, 34464, Note_on_c, 0, 82, 75
2, 34553, Note_on_c, 0, 82, 0
2, 34608, Note_on_c, 0, 78, 70
2, 34697, Note_on_c, 0, 78, 0
2, 34704, Note_on_c, 0, 78, 70
2, 34749, Note_on_c, 0, 78, 0
2, 34752, Note_on_c, 0, 77, 70
2, 34841, Note_on_c, 0, 77, 0
2, 34992, Note_on_c, 0, 69, 70
2, 34992, Note_on_c, 0, 63, 70
2, 35081, Note_on_c, 0, 69, 0
2, 35081, Note_on_c, 0, 63, 0
2, 35088, Note_on_c, 0, 69, 70
2, 35088, Note_on_c, 0, 63, 70
2, 35133, Note_on_c, 0, 69, 0
2, 35133, Note_on_c, 0, 63, 0
2, 35136, Note_on_c, 0, 70, 70
2, 35136, Note_on_c, 0, 62, 70
2, 35225, Note_on_c, 0, 70, 0
2, 35225, Note_on_c, 0, 62, 0
2, 35376, Note_on_c, 0, 65, 70
2, 35376, Note_on_c, 0, 60, 70
2, 35376, Note_on_c, 0, 57, 70
2, 35465, Note_on_c, 0, 65, 0
2, 35465, Note_on_c, 0, 60, 0
2, 35465, Note_on_c, 0, 57, 0
2, 35472, Note_on_c, 0, 65, 70
2, 35472, Note_on_c, 0, 60, 70
2, 35472, Note_on_c, 0, 57, 70
2, 35517, Note_on_c, 0, 65, 0
2, 35517, Note_on_c, 0, 60, 0
2, 35517, Note_on_c, 0, 57, 0
2, 35520, Note_on_c, 0, 58, 70
2, 35609, Note_on_c, 0, 58, 0
2, 35712, Note_on_c, 0, 58, 70
2, 35801, Note_on_c, 0, 58, 0
2, 35904, Note_on_c, 0, 58, 70
2, 35993, Note_on_c, 0, 58, 0
2, 36096, Note_on_c, 0, 58, 70
2, 36273, Note_on_c, 0, 58, 0
2, 36480, End_track
3, 0, Start_track
3, 0, Program_c, 0, 0
3, 0, Control_c, 0, 7, 127
3, 0, Control_c, 0, 10, 64
3, 23424, Note_on_c, 0, 70, 64
3, 23557, Note_on_c, 0, 70, 0
3, 23808, Note_on_c, 0, 76, 64
3, 23941, Note_on_c, 0, 76, 0
3, 36480, End_track
4, 0, Start_track
4, 0, Program_c, 1, 0
4, 0, Control_c, 1, 7, 127
4, 0, Control_c, 1, 10, 64
4, 384, Note_on_c, 1, 46, 70
4, 429, Note_on_c, 1, 46, 0
4, 432, Note_on_c, 1, 50, 70
4, 477, Note_on_c, 1, 50, 0
4, 480, Note_on_c, 1, 53, 70
4, 525, Note_on_c, 1, 53, 0
4, 528, Note_on_c, 1, 58, 70
4, 573, Note_on_c, 1, 58, 0
4, 576, Note_on_c, 1, 45, 70
4, 621, Note_on_c, 1, 45, 0
4, 624, Note_on_c, 1, 48, 70
4, 669, Note_on_c, 1, 48, 0
4, 672, Note_on_c, 1, 53, 70
4, 717, Note_on_c, 1, 53, 0
4, 720, Note_on_c, 1, 57, 70
4, 765, Note_on_c, 1, 57, 0
4, 768, Note_on_c, 1, 46, 70
4, 813, Note_on_c, 1, 46, 0
4, 816, Note_on_c, 1, 50, 70
4, 861, Note_on_c, 1, 50, 0
4, 864, Note_on_c, 1, 53, 70
4, 909, Note_on_c, 1, 53, 0
4, 912, Note_on_c, 1, 58, 70
4, 957, Note_on_c, 1, 58, 0
4, 960, Note_on_c, 1, 53, 70
4, 1005, Note_on_c, 1, 53, 0
4, 1008, Note_on_c, 1, 65, 70
4, 1053, Note_on_c, 1, 65, 0
4, 1056, Note_on_c, 1, 64, 70
4, 1101, Note_on_c, 1, 64, 0
4, 1104, Note_on_c, 1, 65, 70
4, 1149, Note_on_c, 1, 65, 0
4, 1152, Note_on_c, 1, 62, 75
4, 1191, Note_on_c, 1, 62, 0
4, 1248, Note_on_c, 1, 62, 75
4, 1344, Note_on_c, 1, 62, 0
4, 1344, Note_on_c, 1, 57, 75
4, 1383, Note_on_c, 1, 57, 0
4, 1440, Note_on_c, 1, 57, 75
4, 1536, Note_on_c, 1, 57, 0
4, 1536, Note_on_c, 1, 58, 75
4, 1575, Note_on_c, 1, 58, 0
4, 1632, Note_on_c, 1, 60, 73
4, 1721, Note_on_c, 1, 60, 0
4, 1728, Note_on_c, 1, 53, 71
4, 1817, Note_on_c, 1, 53, 0
4, 1920, Note_on_c, 1, 51, 70
4, 1965, Note_on_c, 1, 51, 0
4, 1968, Note_on_c, 1, 60, 70
4, 2013, Note_on_c, 1, 60, 0
4, 2016, Note_on_c, 1, 55, 70
4, 2061, Note_on_c, 1, 55, 0
4, 2064, Note_on_c, 1, 60, 70
4, 2109, Note_on_c, 1, 60, 0
4, 2112, Note_on_c, 1, 53, 70
4, 2157, Note_on_c, 1, 53, 0
4, 2160, Note_on_c, 1, 60, 70
4, 2205, Note_on_c, 1, 60, 0
4, 2208, Note_on_c, 1, 57, 70
4, 2253, Note_on_c, 1, 57, 0
4, 2256, Note_on_c, 1, 60, 70
4, 2301, Note_on_c, 1, 60, 0
4, 2304, Note_on_c, 1, 50, 70
4, 2349, Note_on_c, 1, 50, 0
4, 2352, Note_on_c, 1, 58, 70
4, 2397, Note_on_c, 1, 58, 0
4, 2400, Note_on_c, 1, 53, 70
4, 2445, Note_on_c, 1, 53, 0
4, 2448, Note_on_c, 1, 58, 70
4, 2493, Note_on_c, 1, 58, 0
4, 2496, Note_on_c, 1, 46, 70
4, 2541, Note_on_c, 1, 46, 0
4, 2544, Note_on_c, 1, 50, 70
4, 2589, Note_on_c, 1, 50, 0
4, 2592, Note_on_c, 1, 55, 70
4, 2637, Note_on_c, 1, 55, 0
4, 2640, Note_on_c, 1, 53, 70
4, 2685, Note_on_c, 1, 53, 0
4, 2688, Note_on_c, 1, 51, 70
4, 2777, Note_on_c, 1, 51, 0
4, 2976, Note_on_c, 1, 53, 75
4, 3015, Note_on_c, 1, 53, 0
4, 3072, Note_on_c, 1, 46, 75
4, 3161, Note_on_c, 1, 46, 0
4, 3456, Note_on_c, 1, 46, 70
4, 3501, Note_on_c, 1, 46, 0
4, 3504, Note_on_c, 1, 50, 70
4, 3549, Note_on_c, 1, 50, 0
4, 3552, Note_on_c, 1, 53, 70
4, 3597, Note_on_c, 1, 53, 0
4, 3600, Note_on_c, 1, 58, 70
4, 3645, Note_on_c, 1, 58, 0
4, 3648, Note_on_c, 1, 45, 70
4, 3693, Note_on_c, 1, 45, 0
4, 3696, Note_on_c, 1, 48, 70
4, 3741, Note_on_c, 1, 48, 0
4, 3744, Note_on_c, 1, 53, 70
4, 3789, Note_on_c, 1, 53, 0
4, 3792, Note_on_c, 1, 57, 70
4, 3837, Note_on_c, 1, 57, 0
4, 3840, Note_on_c, 1, 46, 70
4, 3885, Note_on_c, 1, 46, 0
4, 3888, Note_on_c, 1, 50, 70
4, 3933, Note_on_c, 1, 50, 0
4, 3936, Note_on_c, 1, 53, 70
4, 3981, Note_on_c, 1, 53, 0
4, 3984, Note_on_c, 1, 58, 70
4, 4029, Note_on_c, 1, 58, 0
4, 4032, Note_on_c, 1, 53, 70
4, 4077, Note_on_c, 1, 53, 0
4, 4080, Note_on_c, 1, 65, 70
4, 4125, Note_on_c, 1, 65, 0
4, 4128, Note_on_c, 1, 64, 70
4, 4173, Note_on_c, 1, 64, 0
4, 4176, Note_on_c, 1, 65, 70
4, 4221, Note_on_c, 1, 65, 0
4, 4224, Note_on_c, 1, 62, 75
4, 4263, Note_on_c, 1, 62, 0
4, 4320, Note_on_c, 1, 62, 75
4, 4416, Note_on_c, 1, 62, 0
4, 4416, Note_on_c, 1, 57, 75
4, 4455, Note_on_c, 1, 57, 0
4, 4512, Note_on_c, 1, 57, 75
4, 4608, Note_on_c, 1, 57, 0
4, 4608, Note_on_c, 1, 58, 75
4, 4647, Note_on_c, 1, 58, 0
4, 4704, Note_on_c, 1, 60, 73
4, 4793, Note_on_c, 1, 60, 0
4, 4800, Note_on_c, 1, 53, 71
4, 4889, Note_on_c, 1, 53, 0
4, 4992, Note_on_c, 1, 51, 70
4, 5037, Note_on_c, 1, 51, 0
4, 5040, Note_on_c, 1, 60, 70
4, 5085, Note_on_c, 1, 60, 0
4, 5088, Note_on_c, 1, 55, 70
4, 5133, Note_on_c, 1, 55, 0
4, 5136, Note_on_c, 1, 60, 70
4, 5181, Note_on_c, 1, 60, 0
4, 5184, Note_on_c, 1, 53, 70
4, 5229, Note_on_c, 1, 53, 0
4, 5232, Note_on_c, 1, 60, 70
4, 5277, Note_on_c, 1, 60, 0
4, 5280, Note_on_c, 1, 57, 70
4, 5325, Note_on_c, 1, 57, 0
4, 5328, Note_on_c, 1, 60, 70
4, 5373, Note_on_c, 1, 60, 0
4, 5376, Note_on_c, 1, 50, 70
4, 5421, Note_on_c, 1, 50, 0
4, 5424, Note_on_c, 1, 58, 70
4, 5469, Note_on_c, 1, 58, 0
4, 5472, Note_on_c, 1, 53, 70
4, 5517, Note_on_c, 1, 53, 0
4, 5520, Note_on_c, 1, 58, 70
4, 5565, Note_on_c, 1, 58, 0
4, 5568, Note_on_c, 1, 46, 70
4, 5613, Note_on_c, 1, 46, 0
4, 5616, Note_on_c, 1, 50, 70
4, 5661, Note_on_c, 1, 50, 0
4, 5664, Note_on_c, 1, 55, 70
4, 5709, Note_on_c, 1, 55, 0
4, 5712, Note_on_c, 1, 53, 70
4, 5757, Note_on_c, 1, 53, 0
4, 5760, Note_on_c, 1, 51, 70
4, 5849, Note_on_c, 1, 51, 0
4, 6048, Note_on_c, 1, 53, 75
4, 6087, Note_on_c, 1, 53, 0
4, 6144, Note_on_c, 1, 58, 75
4, 6189, Note_on_c, 1, 58, 0
4, 6192, Note_on_c, 1, 46, 75
4, 6237, Note_on_c, 1, 46, 0
4, 6240, Note_on_c, 1, 50, 75
4, 6285, Note_on_c, 1, 50, 0
4, 6288, Note_on_c, 1, 53, 76
4, 6333, Note_on_c, 1, 53, 0
4, 6336, Note_on_c, 1, 58, 77
4, 6381, Note_on_c, 1, 58, 0
4, 6384, Note_on_c, 1, 62, 77
4, 6429, Note_on_c, 1, 62, 0
4, 6432, Note_on_c, 1, 65, 78
4, 6477, Note_on_c, 1, 65, 0
4, 6480, Note_on_c, 1, 69, 79
4, 6525, Note_on_c, 1, 69, 0
4, 6528, Note_on_c, 1, 70, 80
4, 6528, Note_on_c, 1, 65, 80
4, 6528, Note_on_c, 1, 62, 80
4, 6528, Note_on_c, 1, 58, 80
4, 6617, Note_on_c, 1, 70, 0
4, 6617, Note_on_c, 1, 65, 0
4, 6617, Note_on_c, 1, 62, 0
4, 6617, Note_on_c, 1, 58, 0
4, 6720, Note_on_c, 1, 65, 80
4, 6720, Note_on_c, 1, 60, 80
4, 6720, Note_on_c, 1, 57, 80
4, 6720, Note_on_c, 1, 53, 80
4, 6809, Note_on_c, 1, 65, 0
4, 6809, Note_on_c, 1, 60, 0
4, 6809, Note_on_c, 1, 57, 0
4, 6809, Note_on_c, 1, 53, 0
4, 6912, Note_on_c, 1, 58, 80
4, 6912, Note_on_c, 1, 53, 80
4, 6912, Note_on_c, 1, 50, 80
4, 6912, Note_on_c, 1, 46, 80
4, 7001, Note_on_c, 1, 58, 0
4, 7001, Note_on_c, 1, 53, 0
4, 7001, Note_on_c, 1, 50, 0
4, 7001, Note_on_c, 1, 46, 0
4, 7104, Note_on_c, 1, 41, 80
4, 7127, Note_on_c, 1, 41, 0
4, 7128, Note_on_c, 1, 53, 80
4, 7151, Note_on_c, 1, 53, 0
4, 7152, Note_on_c, 1, 41, 80
4, 7175, Note_on_c, 1, 41, 0
4, 7176, Note_on_c, 1, 53, 80
4, 7199, Note_on_c, 1, 53, 0
4, 7200, Note_on_c, 1, 41, 80
4, 7223, Note_on_c, 1, 41, 0
4, 7224, Note_on_c, 1, 53, 80
4, 7247, Note_on_c, 1, 53, 0
4, 7248, Note_on_c, 1, 41, 80
4, 7271, Note_on_c, 1, 41, 0
4, 7272, Note_on_c, 1, 53, 80
4, 7295, Note_on_c, 1, 53, 0
4, 7296, Note_on_c, 1, 41, 80
4, 7319, Note_on_c, 1, 41, 0
4, 7320, Note_on_c, 1, 53, 80
4, 7343, Note_on_c, 1, 53, 0
4, 7344, Note_on_c, 1, 41, 80
4, 7367, Note_on_c, 1, 41, 0
4, 7368, Note_on_c, 1, 53, 80
4, 7391, Note_on_c, 1, 53, 0
4, 7392, Note_on_c, 1, 41, 80
4, 7415, Note_on_c, 1, 41, 0
4, 7416, Note_on_c, 1, 53, 80
4, 7439, Note_on_c, 1, 53, 0
4, 7440, Note_on_c, 1, 41, 80
4, 7463, Note_on_c, 1, 41, 0
4, 7464, Note_on_c, 1, 53, 80
4, 7487, Note_on_c, 1, 53, 0
4, 7488, Note_on_c, 1, 41, 80
4, 7511, Note_on_c, 1, 41, 0
4, 7512, Note_on_c, 1, 45, 80
4, 7535, Note_on_c, 1, 45, 0
4, 7536, Note_on_c, 1, 48, 80
4, 7559, Note_on_c, 1, 48, 0
4, 7560, Note_on_c, 1, 53, 80
4, 7583, Note_on_c, 1, 53, 0
4, 7584, Note_on_c, 1, 41, 80
4, 7607, Note_on_c, 1, 41, 0
4, 7608, Note_on_c, 1, 53, 80
4, 7631, Note_on_c, 1, 53, 0
4, 7632, Note_on_c, 1, 39, 80
4, 7655, Note_on_c, 1, 39, 0
4, 7656, Note_on_c, 1, 51, 80
4, 7679, Note_on_c, 1, 51, 0
4, 7680, Note_on_c, 1, 50, 80
4, 7680, Note_on_c, 1, 38, 80
4, 7769, Note_on_c, 1, 50, 0
4, 7769, Note_on_c, 1, 38, 0
4, 7872, Note_on_c, 1, 51, 80
4, 7872, Note_on_c, 1, 39, 80
4, 7961, Note_on_c, 1, 51, 0
4, 7961, Note_on_c, 1, 39, 0
4, 8064, Note_on_c, 1, 65, 80
4, 8064, Note_on_c, 1, 53, 80
4, 8153, Note_on_c, 1, 65, 0
4, 8153, Note_on_c, 1, 53, 0
4, 8160, Note_on_c, 1, 60, 80
4, 8160, Note_on_c, 1, 48, 80
4, 8205, Note_on_c, 1, 60, 0
4, 8205, Note_on_c, 1, 48, 0
4, 8208, Note_on_c, 1, 58, 80
4, 8208, Note_on_c, 1, 46, 80
4, 8253, Note_on_c, 1, 58, 0
4, 8253, Note_on_c, 1, 46, 0
4, 8256, Note_on_c, 1, 57, 80
4, 8256, Note_on_c, 1, 45, 80
4, 8345, Note_on_c, 1, 57, 0
4, 8345, Note_on_c, 1, 45, 0
4, 8448, Note_on_c, 1, 51, 70
4, 8493, Note_on_c, 1, 51, 0
4, 8496, Note_on_c, 1, 60, 70
4, 8541, Note_on_c, 1, 60, 0
4, 8544, Note_on_c, 1, 55, 70
4, 8589, Note_on_c, 1, 55, 0
4, 8592, Note_on_c, 1, 60, 70
4, 8637, Note_on_c, 1, 60, 0
4, 8640, Note_on_c, 1, 51, 70
4, 8685, Note_on_c, 1, 51, 0
4, 8688, Note_on_c, 1, 60, 70
4, 8733, Note_on_c, 1, 60, 0
4, 8736, Note_on_c, 1, 53, 70
4, 8781, Note_on_c, 1, 53, 0
4, 8784, Note_on_c, 1, 60, 70
4, 8829, Note_on_c, 1, 60, 0
4, 8832, Note_on_c, 1, 58, 70
4, 8832, Note_on_c, 1, 53, 70
4, 8832, Note_on_c, 1, 50, 70
4, 8965, Note_on_c, 1, 58, 0
4, 8965, Note_on_c, 1, 53, 0
4, 8965, Note_on_c, 1, 50, 0
4, 9216, Note_on_c, 1, 70, 70
4, 9216, Note_on_c, 1, 67, 70
4, 9216, Note_on_c, 1, 60, 70
4, 9405, Note_on_c, 1, 70, 0
4, 9405, Note_on_c, 1, 67, 0
4, 9405, Note_on_c, 1, 60, 0
4, 9984, Note_on_c, 1, 53, 70
4, 10029, Note_on_c, 1, 53, 0
4, 10032, Note_on_c, 1, 60, 70
4, 10077, Note_on_c, 1, 60, 0
4, 10080, Note_on_c, 1, 57, 70
4, 10125, Note_on_c, 1, 57, 0
4, 10128, Note_on_c, 1, 60, 70
4, 10173, Note_on_c, 1, 60, 0
4, 10176, Note_on_c, 1, 52, 70
4, 10221, Note_on_c, 1, 52, 0
4, 10224, Note_on_c, 1, 60, 70
4, 10269, Note_on_c, 1, 60, 0
4, 10272, Note_on_c, 1, 55, 70
4, 10317, Note_on_c, 1, 55, 0
4, 10320, Note_on_c, 1, 60, 70
4, 10365, Note_on_c, 1, 60, 0
4, 10368, Note_on_c, 1, 53, 75
4, 10457, Note_on_c, 1, 53, 0
4, 10464, Note_on_c, 1, 55, 75
4, 10553, Note_on_c, 1, 55, 0
4, 10560, Note_on_c, 1, 48, 75
4, 10649, Note_on_c, 1, 48, 0
4, 10752, Note_on_c, 1, 46, 75
4, 10797, Note_on_c, 1, 46, 0
4, 10800, Note_on_c, 1, 55, 75
4, 10845, Note_on_c, 1, 55, 0
4, 10848, Note_on_c, 1, 50, 75
4, 10893, Note_on_c, 1, 50, 0
4, 10896, Note_on_c, 1, 55, 75
4, 10941, Note_on_c, 1, 55, 0
4, 10944, Note_on_c, 1, 36, 80
4, 10964, Note_on_c, 1, 36, 0
4, 10992, Note_on_c, 1, 40, 80
4, 11012, Note_on_c, 1, 40, 0
4, 11040, Note_on_c, 1, 43, 80
4, 11060, Note_on_c, 1, 43, 0
4, 11088, Note_on_c, 1, 48, 80
4, 11108, Note_on_c, 1, 48, 0
4, 11136, Note_on_c, 1, 45, 75
4, 11181, Note_on_c, 1, 45, 0
4, 11184, Note_on_c, 1, 53, 75
4, 11229, Note_on_c, 1, 53, 0
4, 11232, Note_on_c, 1, 48, 75
4, 11277, Note_on_c, 1, 48, 0
4, 11280, Note_on_c, 1, 53, 75
4, 11325, Note_on_c, 1, 53, 0
4, 11328, Note_on_c, 1, 41, 75
4, 11417, Note_on_c, 1, 41, 0
4, 11424, Note_on_c, 1, 54, 80
4, 11439, Note_on_c, 1, 54, 0
4, 11440, Note_on_c, 1, 55, 80
4, 11455, Note_on_c, 1, 55, 0
4, 11456, Note_on_c, 1, 54, 80
4, 11471, Note_on_c, 1, 54, 0
4, 11472, Note_on_c, 1, 54, 80
4, 11487, Note_on_c, 1, 54, 0
4, 11488, Note_on_c, 1, 52, 80
4, 11503, Note_on_c, 1, 52, 0
4, 11504, Note_on_c, 1, 54, 80
4, 11519, Note_on_c, 1, 54, 0
4, 11520, Note_on_c, 1, 55, 80
4, 11609, Note_on_c, 1, 55, 0
4, 11616, Note_on_c, 1, 58, 80
4, 11705, Note_on_c, 1, 58, 0
4, 11712, Note_on_c, 1, 60, 80
4, 11801, Note_on_c, 1, 60, 0
4, 11808, Note_on_c, 1, 48, 80
4, 11897, Note_on_c, 1, 48, 0
4, 11904, Note_on_c, 1, 41, 80
4, 11949, Note_on_c, 1, 41, 0
4, 11952, Note_on_c, 1, 43, 80
4, 11975, Note_on_c, 1, 43, 0
4, 11976, Note_on_c, 1, 45, 80
4, 11999, Note_on_c, 1, 45, 0
4, 12000, Note_on_c, 1, 46, 80
4, 12023, Note_on_c, 1, 46, 0
4, 12024, Note_on_c, 1, 48, 80
4, 12047, Note_on_c, 1, 48, 0
4, 12048, Note_on_c, 1, 50, 80
4, 12071, Note_on_c, 1, 50, 0
4, 12072, Note_on_c, 1, 52, 80
4, 12095, Note_on_c, 1, 52, 0
4, 12096, Note_on_c, 1, 53, 80
4, 12185, Note_on_c, 1, 53, 0
4, 12288, Note_on_c, 1, 46, 70
4, 12333, Note_on_c, 1, 46, 0
4, 12336, Note_on_c, 1, 50, 70
4, 12381, Note_on_c, 1, 50, 0
4, 12384, Note_on_c, 1, 53, 70
4, 12429, Note_on_c, 1, 53, 0
4, 12432, Note_on_c, 1, 58, 70
4, 12477, Note_on_c, 1, 58, 0
4, 12480, Note_on_c, 1, 45, 70
4, 12525, Note_on_c, 1, 45, 0
4, 12528, Note_on_c, 1, 48, 70
4, 12573, Note_on_c, 1, 48, 0
4, 12576, Note_on_c, 1, 53, 70
4, 12621, Note_on_c, 1, 53, 0
4, 12624, Note_on_c, 1, 57, 70
4, 12669, Note_on_c, 1, 57, 0
4, 12672, Note_on_c, 1, 46, 70
4, 12717, Note_on_c, 1, 46, 0
4, 12720, Note_on_c, 1, 50, 70
4, 12765, Note_on_c, 1, 50, 0
4, 12768, Note_on_c, 1, 53, 70
4, 12813, Note_on_c, 1, 53, 0
4, 12816, Note_on_c, 1, 58, 70
4, 12861, Note_on_c, 1, 58, 0
4, 12864, Note_on_c, 1, 53, 70
4, 12909, Note_on_c, 1, 53, 0
4, 12912, Note_on_c, 1, 65, 70
4, 12957, Note_on_c, 1, 65, 0
4, 12960, Note_on_c, 1, 64, 70
4, 13005, Note_on_c, 1, 64, 0
4, 13008, Note_on_c, 1, 65, 70
4, 13053, Note_on_c, 1, 65, 0
4, 13056, Note_on_c, 1, 62, 70
4, 13095, Note_on_c, 1, 62, 0
4, 13152, Note_on_c, 1, 62, 71
4, 13248, Note_on_c, 1, 62, 0
4, 13248, Note_on_c, 1, 57, 72
4, 13287, Note_on_c, 1, 57, 0
4, 13344, Note_on_c, 1, 57, 73
4, 13433, Note_on_c, 1, 57, 0
4, 13440, Note_on_c, 1, 58, 75
4, 13529, Note_on_c, 1, 58, 0
4, 13536, Note_on_c, 1, 60, 73
4, 13625, Note_on_c, 1, 60, 0
4, 13632, Note_on_c, 1, 53, 71
4, 13721, Note_on_c, 1, 53, 0
4, 13824, Note_on_c, 1, 51, 70
4, 13869, Note_on_c, 1, 51, 0
4, 13872, Note_on_c, 1, 60, 70
4, 13917, Note_on_c, 1, 60, 0
4, 13920, Note_on_c, 1, 55, 70
4, 13965, Note_on_c, 1, 55, 0
4, 13968, Note_on_c, 1, 60, 70
4, 14013, Note_on_c, 1, 60, 0
4, 14016, Note_on_c, 1, 52, 70
4, 14061, Note_on_c, 1, 52, 0
4, 14064, Note_on_c, 1, 60, 70
4, 14109, Note_on_c, 1, 60, 0
4, 14112, Note_on_c, 1, 53, 70
4, 14157, Note_on_c, 1, 53, 0
4, 14160, Note_on_c, 1, 60, 70
4, 14205, Note_on_c, 1, 60, 0
4, 14208, Note_on_c, 1, 58, 70
4, 14208, Note_on_c, 1, 53, 70
4, 14208, Note_on_c, 1, 50, 70
4, 14297, Note_on_c, 1, 58, 0
4, 14297, Note_on_c, 1, 53, 0
4, 14297, Note_on_c, 1, 50, 0
4, 14448, Note_on_c, 1, 56, 70
4, 14493, Note_on_c, 1, 56, 0
4, 14496, Note_on_c, 1, 55, 70
4, 14541, Note_on_c, 1, 55, 0
4, 14544, Note_on_c, 1, 53, 70
4, 14589, Note_on_c, 1, 53, 0
4, 14592, Note_on_c, 1, 51, 70
4, 14681, Note_on_c, 1, 51, 0
4, 14880, Note_on_c, 1, 51, 80
4, 14880, Note_on_c, 1, 39, 80
4, 14919, Note_on_c, 1, 51, 0
4, 14919, Note_on_c, 1, 39, 0
4, 14976, Control_c, 1, 64, 127
4, 14976, Note_on_c, 1, 50, 80
4, 14976, Note_on_c, 1, 38, 80
4, 15021, Note_on_c, 1, 50, 0
4, 15021, Note_on_c, 1, 38, 0
4, 15024, Note_on_c, 1, 45, 64
4, 15069, Note_on_c, 1, 45, 0
4, 15072, Note_on_c, 1, 42, 64
4, 15117, Note_on_c, 1, 42, 0
4, 15120, Note_on_c, 1, 45, 64
4, 15165, Note_on_c, 1, 45, 0
4, 15168, Note_on_c, 1, 48, 64
4, 15213, Note_on_c, 1, 48, 0
4, 15216, Note_on_c, 1, 45, 64
4, 15261, Note_on_c, 1, 45, 0
4, 15264, Note_on_c, 1, 42, 64
4, 15309, Note_on_c, 1, 42, 0
4, 15312, Control_c, 1, 64, 0
4, 15312, Note_on_c, 1, 45, 64
4, 15357, Note_on_c, 1, 45, 0
4, 15360, Control_c, 1, 64, 127
4, 15360, Note_on_c, 1, 38, 64
4, 15405, Note_on_c, 1, 38, 0
4, 15408, Note_on_c, 1, 45, 64
4, 15453, Note_on_c, 1, 45, 0
4, 15456, Note_on_c, 1, 42, 64
4, 15501, Note_on_c, 1, 42, 0
4, 15504, Note_on_c, 1, 45, 64
4, 15549, Note_on_c, 1, 45, 0
4, 15552, Note_on_c, 1, 48, 64
4, 15597, Note_on_c, 1, 48, 0
4, 15600, Note_on_c, 1, 45, 64
4, 15645, Note_on_c, 1, 45, 0
4, 15648, Note_on_c, 1, 42, 64
4, 15693, Note_on_c, 1, 42, 0
4, 15696, Control_c, 1, 64, 0
4, 15696, Note_on_c, 1, 45, 64
4, 15741, Note_on_c, 1, 45, 0
4, 15744, Control_c, 1, 64, 127
4, 15744, Note_on_c, 1, 43, 64
4, 15789, Note_on_c, 1, 43, 0
4, 15792, Note_on_c, 1, 50, 64
4, 15837, Note_on_c, 1, 50, 0
4, 15840, Note_on_c, 1, 46, 64
4, 15885, Note_on_c, 1, 46, 0
4, 15888, Note_on_c, 1, 50, 64
4, 15933, Note_on_c, 1, 50, 0
4, 15936, Note_on_c, 1, 55, 64
4, 15981, Note_on_c, 1, 55, 0
4, 15984, Note_on_c, 1, 50, 64
4, 16029, Note_on_c, 1, 50, 0
4, 16032, Note_on_c, 1, 46, 64
4, 16077, Note_on_c, 1, 46, 0
4, 16080, Control_c, 1, 64, 0
4, 16080, Note_on_c, 1, 50, 64
4, 16125, Note_on_c, 1, 50, 0
4, 16128, Control_c, 1, 64, 127
4, 16128, Note_on_c, 1, 47, 64
4, 16173, Note_on_c, 1, 47, 0
4, 16176, Note_on_c, 1, 53, 64
4, 16221, Note_on_c, 1, 53, 0
4, 16224, Note_on_c, 1, 50, 64
4, 16269, Note_on_c, 1, 50, 0
4, 16272, Note_on_c, 1, 53, 64
4, 16317, Note_on_c, 1, 53, 0
4, 16320, Note_on_c, 1, 47, 64
4, 16365, Note_on_c, 1, 47, 0
4, 16368, Note_on_c, 1, 53, 64
4, 16413, Note_on_c, 1, 53, 0
4, 16416, Note_on_c, 1, 50, 64
4, 16461, Note_on_c, 1, 50, 0
4, 16464, Control_c, 1, 64, 0
4, 16464, Note_on_c, 1, 53, 64
4, 16509, Note_on_c, 1, 53, 0
4, 16512, Control_c, 1, 64, 127
4, 16512, Note_on_c, 1, 48, 64
4, 16557, Note_on_c, 1, 48, 0
4, 16560, Note_on_c, 1, 55, 64
4, 16605, Note_on_c, 1, 55, 0
4, 16608, Note_on_c, 1, 51, 64
4, 16653, Note_on_c, 1, 51, 0
4, 16656, Note_on_c, 1, 55, 64
4, 16701, Note_on_c, 1, 55, 0
4, 16704, Note_on_c, 1, 48, 64
4, 16749, Note_on_c, 1, 48, 0
4, 16752, Note_on_c, 1, 51, 68
4, 16797, Note_on_c, 1, 51, 0
4, 16800, Note_on_c, 1, 55, 72
4, 16845, Note_on_c, 1, 55, 0
4, 16848, Control_c, 1, 64, 0
4, 16848, Note_on_c, 1, 60, 76
4, 16893, Note_on_c, 1, 60, 0
4, 16896, Note_on_c, 1, 54, 80
4, 16896, Note_on_c, 1, 42, 80
4, 17073, Note_on_c, 1, 54, 0
4, 17073, Note_on_c, 1, 42, 0
4, 17088, Note_on_c, 1, 53, 78
4, 17088, Note_on_c, 1, 41, 78
4, 17177, Note_on_c, 1, 53, 0
4, 17177, Note_on_c, 1, 41, 0
4, 17184, Note_on_c, 1, 52, 77
4, 17184, Note_on_c, 1, 40, 77
4, 17273, Note_on_c, 1, 52, 0
4, 17273, Note_on_c, 1, 40, 0
4, 17280, Note_on_c, 1, 51, 77
4, 17280, Note_on_c, 1, 39, 77
4, 17369, Note_on_c, 1, 51, 0
4, 17369, Note_on_c, 1, 39, 0
4, 17376, Note_on_c, 1, 50, 76
4, 17376, Note_on_c, 1, 38, 76
4, 17465, Note_on_c, 1, 50, 0
4, 17465, Note_on_c, 1, 38, 0
4, 17472, Note_on_c, 1, 49, 75
4, 17472, Note_on_c, 1, 37, 75
4, 17561, Note_on_c, 1, 49, 0
4, 17561, Note_on_c, 1, 37, 0
4, 17904, Note_on_c, 1, 48, 75
4, 17949, Note_on_c, 1, 48, 0
4, 17952, Note_on_c, 1, 46, 76
4, 17997, Note_on_c, 1, 46, 0
4, 18000, Note_on_c, 1, 45, 78
4, 18045, Note_on_c, 1, 45, 0
4, 18048, Note_on_c, 1, 43, 80
4, 18048, Note_on_c, 1, 31, 80
4, 18087, Note_on_c, 1, 43, 0
4, 18087, Note_on_c, 1, 31, 0
4, 18144, Note_on_c, 1, 43, 80
4, 18144, Note_on_c, 1, 31, 80
4, 18183, Note_on_c, 1, 43, 0
4, 18183, Note_on_c, 1, 31, 0
4, 18240, Note_on_c, 1, 45, 80
4, 18240, Note_on_c, 1, 33, 80
4, 18279, Note_on_c, 1, 45, 0
4, 18279, Note_on_c, 1, 33, 0
4, 18336, Note_on_c, 1, 45, 80
4, 18336, Note_on_c, 1, 33, 80
4, 18375, Note_on_c, 1, 45, 0
4, 18375, Note_on_c, 1, 33, 0
4, 18432, Note_on_c, 1, 46, 80
4, 18432, Note_on_c, 1, 34, 80
4, 18471, Note_on_c, 1, 46, 0
4, 18471, Note_on_c, 1, 34, 0
4, 18528, Note_on_c, 1, 62, 80
4, 18528, Note_on_c, 1, 58, 80
4, 18573, Note_on_c, 1, 62, 0
4, 18573, Note_on_c, 1, 58, 0
4, 18576, Note_on_c, 1, 60, 80
4, 18576, Note_on_c, 1, 57, 80
4, 18621, Note_on_c, 1, 60, 0
4, 18621, Note_on_c, 1, 57, 0
4, 18624, Note_on_c, 1, 58, 80
4, 18624, Note_on_c, 1, 55, 80
4, 18713, Note_on_c, 1, 58, 0
4, 18713, Note_on_c, 1, 55, 0
4, 18720, Note_on_c, 1, 57, 80
4, 18720, Note_on_c, 1, 54, 80
4, 18809, Note_on_c, 1, 57, 0
4, 18809, Note_on_c, 1, 54, 0
4, 18816, Note_on_c, 1, 43, 80
4, 18816, Note_on_c, 1, 31, 80
4, 18855, Note_on_c, 1, 43, 0
4, 18855, Note_on_c, 1, 31, 0
4, 18912, Note_on_c, 1, 43, 80
4, 18912, Note_on_c, 1, 31, 80
4, 18951, Note_on_c, 1, 43, 0
4, 18951, Note_on_c, 1, 31, 0
4, 19008, Note_on_c, 1, 45, 80
4, 19008, Note_on_c, 1, 33, 80
4, 19047, Note_on_c, 1, 45, 0
4, 19047, Note_on_c, 1, 33, 0
4, 19104, Note_on_c, 1, 45, 80
4, 19104, Note_on_c, 1, 33, 80
4, 19143, Note_on_c, 1, 45, 0
4, 19143, Note_on_c, 1, 33, 0
4, 19200, Note_on_c, 1, 46, 80
4, 19200, Note_on_c, 1, 34, 80
4, 19239, Note_on_c, 1, 46, 0
4, 19239, Note_on_c, 1, 34, 0
4, 19296, Note_on_c, 1, 37, 97
4, 19385, Note_on_c, 1, 37, 0
4, 19392, Note_on_c, 1, 50, 80
4, 19437, Note_on_c, 1, 50, 0
4, 19440, Note_on_c, 1, 38, 80
4, 19485, Note_on_c, 1, 38, 0
4, 19488, Note_on_c, 1, 50, 80
4, 19533, Note_on_c, 1, 50, 0
4, 19536, Note_on_c, 1, 48, 80
4, 19581, Note_on_c, 1, 48, 0
4, 19584, Note_on_c, 1, 55, 80
4, 19584, Note_on_c, 1, 50, 80
4, 19584, Note_on_c, 1, 46, 80
4, 19673, Note_on_c, 1, 55, 0
4, 19673, Note_on_c, 1, 50, 0
4, 19673, Note_on_c, 1, 46, 0
4, 19776, Note_on_c, 1, 51, 80
4, 19776, Note_on_c, 1, 39, 80
4, 19865, Note_on_c, 1, 51, 0
4, 19865, Note_on_c, 1, 39, 0
4, 19968, Note_on_c, 1, 50, 80
4, 19968, Note_on_c, 1, 38, 80
4, 20057, Note_on_c, 1, 50, 0
4, 20057, Note_on_c, 1, 38, 0
4, 20160, Note_on_c, 1, 49, 80
4, 20160, Note_on_c, 1, 37, 80
4, 20249, Note_on_c, 1, 49, 0
4, 20249, Note_on_c, 1, 37, 0
4, 20352, Note_on_c, 1, 50, 80
4, 20352, Note_on_c, 1, 38, 80
4, 20441, Note_on_c, 1, 50, 0
4, 20441, Note_on_c, 1, 38, 0
4, 20544, Note_on_c, 1, 67, 80
4, 20567, Note_on_c, 1, 67, 0
4, 20568, Note_on_c, 1, 63, 80
4, 20591, Note_on_c, 1, 63, 0
4, 20592, Note_on_c, 1, 62, 80
4, 20615, Note_on_c, 1, 62, 0
4, 20616, Note_on_c, 1, 60, 80
4, 20639, Note_on_c, 1, 60, 0
4, 20640, Note_on_c, 1, 58, 80
4, 20663, Note_on_c, 1, 58, 0
4, 20664, Note_on_c, 1, 57, 80
4, 20687, Note_on_c, 1, 57, 0
4, 20688, Note_on_c, 1, 55, 80
4, 20711, Note_on_c, 1, 55, 0
4, 20712, Note_on_c, 1, 54, 80
4, 20735, Note_on_c, 1, 54, 0
4, 20736, Note_on_c, 1, 55, 80
4, 20825, Note_on_c, 1, 55, 0
4, 20832, Note_on_c, 1, 49, 80
4, 20832, Note_on_c, 1, 37, 80
4, 20921, Note_on_c, 1, 49, 0
4, 20921, Note_on_c, 1, 37, 0
4, 20928, Note_on_c, 1, 50, 80
4, 20928, Note_on_c, 1, 38, 80
4, 21017, Note_on_c, 1, 50, 0
4, 21017, Note_on_c, 1, 38, 0
4, 21024, Note_on_c, 1, 62, 80
4, 21047, Note_on_c, 1, 62, 0
4, 21048, Note_on_c, 1, 57, 80
4, 21071, Note_on_c, 1, 57, 0
4, 21072, Note_on_c, 1, 54, 80
4, 21095, Note_on_c, 1, 54, 0
4, 21096, Note_on_c, 1, 50, 80
4, 21119, Note_on_c, 1, 50, 0
4, 21120, Note_on_c, 1, 38, 80
4, 21209, Note_on_c, 1, 38, 0
4, 21504, Note_on_c, 1, 58, 70
4, 21549, Note_on_c, 1, 58, 0
4, 21552, Note_on_c, 1, 65, 70
4, 21597, Note_on_c, 1, 65, 0
4, 21600, Note_on_c, 1, 62, 70
4, 21645, Note_on_c, 1, 62, 0
4, 21648, Note_on_c, 1, 65, 70
4, 21693, Note_on_c, 1, 65, 0
4, 21696, Note_on_c, 1, 57, 70
4, 21741, Note_on_c, 1, 57, 0
4, 21744, Note_on_c, 1, 65, 70
4, 21789, Note_on_c, 1, 65, 0
4, 21792, Note_on_c, 1, 60, 70
4, 21837, Note_on_c, 1, 60, 0
4, 21840, Note_on_c, 1, 65, 70
4, 21885, Note_on_c, 1, 65, 0
4, 21888, Note_on_c, 1, 58, 70
4, 21933, Note_on_c, 1, 58, 0
4, 21936, Note_on_c, 1, 65, 70
4, 21981, Note_on_c, 1, 65, 0
4, 21984, Note_on_c, 1, 62, 70
4, 22029, Note_on_c, 1, 62, 0
4, 22032, Note_on_c, 1, 65, 70
4, 22125, Note_on_c, 1, 65, 0
4, 22128, Note_on_c, 1, 64, 70
4, 22173, Note_on_c, 1, 64, 0
4, 22176, Note_on_c, 1, 65, 70
4, 22221, Note_on_c, 1, 65, 0
4, 22224, Note_on_c, 1, 63, 70
4, 22269, Note_on_c, 1, 63, 0
4, 22272, Note_on_c, 1, 65, 70
4, 22272, Note_on_c, 1, 62, 70
4, 22361, Note_on_c, 1, 65, 0
4, 22361, Note_on_c, 1, 62, 0
4, 22416, Note_on_c, 1, 65, 70
4, 22416, Note_on_c, 1, 62, 70
4, 22461, Note_on_c, 1, 65, 0
4, 22461, Note_on_c, 1, 62, 0
4, 22464, Note_on_c, 1, 67, 70
4, 22464, Note_on_c, 1, 63, 70
4, 22553, Note_on_c, 1, 67, 0
4, 22553, Note_on_c, 1, 63, 0
4, 22608, Note_on_c, 1, 57, 70
4, 22653, Note_on_c, 1, 57, 0
4, 22656, Note_on_c, 1, 58, 70
4, 22745, Note_on_c, 1, 58, 0
4, 22752, Note_on_c, 1, 60, 70
4, 22841, Note_on_c, 1, 60, 0
4, 22848, Note_on_c, 1, 41, 70
4, 22893, Note_on_c, 1, 41, 0
4, 22896, Note_on_c, 1, 45, 70
4, 22941, Note_on_c, 1, 45, 0
4, 22944, Note_on_c, 1, 48, 70
4, 22989, Note_on_c, 1, 48, 0
4, 22992, Note_on_c, 1, 53, 70
4, 23037, Note_on_c, 1, 53, 0
4, 23040, Note_on_c, 1, 51, 70
4, 23085, Note_on_c, 1, 51, 0
4, 23088, Note_on_c, 1, 60, 70
4, 23133, Note_on_c, 1, 60, 0
4, 23136, Note_on_c, 1, 55, 71
4, 23181, Note_on_c, 1, 55, 0
4, 23184, Note_on_c, 1, 60, 71
4, 23229, Note_on_c, 1, 60, 0
4, 23232, Note_on_c, 1, 51, 72
4, 23277, Note_on_c, 1, 51, 0
4, 23280, Note_on_c, 1, 60, 73
4, 23325, Note_on_c, 1, 60, 0
4, 23328, Note_on_c, 1, 56, 73
4, 23373, Note_on_c, 1, 56, 0
4, 23376, Note_on_c, 1, 62, 74
4, 23421, Note_on_c, 1, 62, 0
4, 23424, Note_on_c, 1, 55, 75
4, 23557, Note_on_c, 1, 55, 0
4, 23808, Note_on_c, 1, 67, 70
4, 23941, Note_on_c, 1, 67, 0
4, 24192, Note_on_c, 1, 57, 75
4, 24192, Note_on_c, 1, 54, 75
4, 24325, Note_on_c, 1, 57, 0
4, 24325, Note_on_c, 1, 54, 0
4, 24576, Note_on_c, 1, 46, 70
4, 24621, Note_on_c, 1, 46, 0
4, 24624, Note_on_c, 1, 53, 70
4, 24669, Note_on_c, 1, 53, 0
4, 24672, Note_on_c, 1, 50, 70
4, 24717, Note_on_c, 1, 50, 0
4, 24720, Note_on_c, 1, 53, 70
4, 24765, Note_on_c, 1, 53, 0
4, 24768, Note_on_c, 1, 41, 70
4, 24813, Note_on_c, 1, 41, 0
4, 24816, Note_on_c, 1, 51, 70
4, 24861, Note_on_c, 1, 51, 0
4, 24864, Note_on_c, 1, 53, 70
4, 24909, Note_on_c, 1, 53, 0
4, 24912, Note_on_c, 1, 51, 70
4, 24957, Note_on_c, 1, 51, 0
4, 25176, Note_on_c, 1, 46, 80
4, 25199, Note_on_c, 1, 46, 0
4, 25200, Note_on_c, 1, 48, 80
4, 25223, Note_on_c, 1, 48, 0
4, 25224, Note_on_c, 1, 50, 80
4, 25247, Note_on_c, 1, 50, 0
4, 25248, Note_on_c, 1, 51, 80
4, 25271, Note_on_c, 1, 51, 0
4, 25272, Note_on_c, 1, 53, 80
4, 25295, Note_on_c, 1, 53, 0
4, 25296, Note_on_c, 1, 55, 80
4, 25319, Note_on_c, 1, 55, 0
4, 25320, Note_on_c, 1, 57, 80
4, 25343, Note_on_c, 1, 57, 0
4, 25344, Note_on_c, 1, 58, 80
4, 25367, Note_on_c, 1, 58, 0
4, 25368, Note_on_c, 1, 53, 80
4, 25391, Note_on_c, 1, 53, 0
4, 25392, Note_on_c, 1, 55, 80
4, 25415, Note_on_c, 1, 55, 0
4, 25416, Note_on_c, 1, 57, 80
4, 25439, Note_on_c, 1, 57, 0
4, 25440, Note_on_c, 1, 58, 80
4, 25463, Note_on_c, 1, 58, 0
4, 25464, Note_on_c, 1, 60, 80
4, 25487, Note_on_c, 1, 60, 0
4, 25488, Note_on_c, 1, 62, 80
4, 25511, Note_on_c, 1, 62, 0
4, 25512, Note_on_c, 1, 63, 80
4, 25535, Note_on_c, 1, 63, 0
4, 25536, Note_on_c, 1, 65, 80
4, 25559, Note_on_c, 1, 65, 0
4, 25560, Note_on_c, 1, 58, 80
4, 25583, Note_on_c, 1, 58, 0
4, 25584, Note_on_c, 1, 60, 80
4, 25607, Note_on_c, 1, 60, 0
4, 25608, Note_on_c, 1, 62, 80
4, 25631, Note_on_c, 1, 62, 0
4, 25632, Note_on_c, 1, 63, 80
4, 25655, Note_on_c, 1, 63, 0
4, 25656, Note_on_c, 1, 65, 80
4, 25679, Note_on_c, 1, 65, 0
4, 25680, Note_on_c, 1, 67, 80
4, 25703, Note_on_c, 1, 67, 0
4, 25704, Note_on_c, 1, 69, 80
4, 25727, Note_on_c, 1, 69, 0
4, 25728, Note_on_c, 1, 70, 80
4, 25728, Note_on_c, 1, 58, 80
4, 25817, Note_on_c, 1, 70, 0
4, 25817, Note_on_c, 1, 58, 0
4, 25824, Note_on_c, 1, 69, 80
4, 25824, Note_on_c, 1, 57, 80
4, 25913, Note_on_c, 1, 69, 0
4, 25913, Note_on_c, 1, 57, 0
4, 25920, Note_on_c, 1, 67, 80
4, 25920, Note_on_c, 1, 55, 80
4, 26009, Note_on_c, 1, 67, 0
4, 26009, Note_on_c, 1, 55, 0
4, 26016, Note_on_c, 1, 65, 80
4, 26016, Note_on_c, 1, 53, 80
4, 26105, Note_on_c, 1, 65, 0
4, 26105, Note_on_c, 1, 53, 0
4, 26112, Note_on_c, 1, 64, 80
4, 26112, Note_on_c, 1, 52, 80
4, 26151, Note_on_c, 1, 64, 0
4, 26151, Note_on_c, 1, 52, 0
4, 26208, Note_on_c, 1, 70, 80
4, 26208, Note_on_c, 1, 58, 80
4, 26247, Note_on_c, 1, 70, 0
4, 26247, Note_on_c, 1, 58, 0
4, 26304, Note_on_c, 1, 67, 80
4, 26304, Note_on_c, 1, 55, 80
4, 26343, Note_on_c, 1, 67, 0
4, 26343, Note_on_c, 1, 55, 0
4, 26400, Note_on_c, 1, 64, 80
4, 26400, Note_on_c, 1, 52, 80
4, 26439, Note_on_c, 1, 64, 0
4, 26439, Note_on_c, 1, 52, 0
4, 26496, Note_on_c, 1, 65, 80
4, 26496, Note_on_c, 1, 53, 80
4, 26585, Note_on_c, 1, 65, 0
4, 26585, Note_on_c, 1, 53, 0
4, 26592, Note_on_c, 1, 63, 80
4, 26592, Note_on_c, 1, 51, 80
4, 26681, Note_on_c, 1, 63, 0
4, 26681, Note_on_c, 1, 51, 0
4, 26688, Note_on_c, 1, 62, 80
4, 26688, Note_on_c, 1, 50, 80
4, 26777, Note_on_c, 1, 62, 0
4, 26777, Note_on_c, 1, 50, 0
4, 26784, Note_on_c, 1, 60, 80
4, 26784, Note_on_c, 1, 48, 80
4, 26873, Note_on_c, 1, 60, 0
4, 26873, Note_on_c, 1, 48, 0
4, 26880, Note_on_c, 1, 59, 80
4, 26880, Note_on_c, 1, 47, 80
4, 26919, Note_on_c, 1, 59, 0
4, 26919, Note_on_c, 1, 47, 0
4, 26976, Note_on_c, 1, 65, 80
4, 26976, Note_on_c, 1, 53, 80
4, 27015, Note_on_c, 1, 65, 0
4, 27015, Note_on_c, 1, 53, 0
4, 27072, Note_on_c, 1, 62, 80
4, 27072, Note_on_c, 1, 50, 80
4, 27111, Note_on_c, 1, 62, 0
4, 27111, Note_on_c, 1, 50, 0
4, 27168, Note_on_c, 1, 59, 80
4, 27168, Note_on_c, 1, 47, 80
4, 27207, Note_on_c, 1, 59, 0
4, 27207, Note_on_c, 1, 47, 0
4, 27264, Note_on_c, 1, 60, 80
4, 27264, Note_on_c, 1, 48, 80
4, 27353, Note_on_c, 1, 60, 0
4, 27353, Note_on_c, 1, 48, 0
4, 27360, Note_on_c, 1, 58, 80
4, 27360, Note_on_c, 1, 46, 80
4, 27449, Note_on_c, 1, 58, 0
4, 27449, Note_on_c, 1, 46, 0
4, 27456, Note_on_c, 1, 57, 80
4, 27456, Note_on_c, 1, 45, 80
4, 27545, Note_on_c, 1, 57, 0
4, 27545, Note_on_c, 1, 45, 0
4, 27552, Note_on_c, 1, 55, 80
4, 27552, Note_on_c, 1, 43, 80
4, 27641, Note_on_c, 1, 55, 0
4, 27641, Note_on_c, 1, 43, 0
4, 27648, Note_on_c, 1, 54, 80
4, 27648, Note_on_c, 1, 42, 80
4, 27687, Note_on_c, 1, 54, 0
4, 27687, Note_on_c, 1, 42, 0
4, 27744, Note_on_c, 1, 60, 80
4, 27744, Note_on_c, 1, 48, 80
4, 27783, Note_on_c, 1, 60, 0
4, 27783, Note_on_c, 1, 48, 0
4, 27840, Note_on_c, 1, 57, 80
4, 27840, Note_on_c, 1, 45, 80
4, 27879, Note_on_c, 1, 57, 0
4, 27879, Note_on_c, 1, 45, 0
4, 27936, Note_on_c, 1, 54, 80
4, 27936, Note_on_c, 1, 42, 80
4, 27975, Note_on_c, 1, 54, 0
4, 27975, Note_on_c, 1, 42, 0
4, 28032, Note_on_c, 1, 55, 80
4, 28032, Note_on_c, 1, 43, 80
4, 28121, Note_on_c, 1, 55, 0
4, 28121, Note_on_c, 1, 43, 0
4, 28128, Note_on_c, 1, 57, 80
4, 28128, Note_on_c, 1, 45, 80
4, 28217, Note_on_c, 1, 57, 0
4, 28217, Note_on_c, 1, 45, 0
4, 28224, Note_on_c, 1, 55, 80
4, 28224, Note_on_c, 1, 43, 80
4, 28313, Note_on_c, 1, 55, 0
4, 28313, Note_on_c, 1, 43, 0
4, 28320, Note_on_c, 1, 53, 80
4, 28320, Note_on_c, 1, 41, 80
4, 28409, Note_on_c, 1, 53, 0
4, 28409, Note_on_c, 1, 41, 0
4, 28416, Note_on_c, 1, 52, 80
4, 28416, Note_on_c, 1, 40, 80
4, 28455, Note_on_c, 1, 52, 0
4, 28455, Note_on_c, 1, 40, 0
4, 28512, Note_on_c, 1, 58, 96
4, 28512, Note_on_c, 1, 46, 96
4, 28704, Note_on_c, 1, 58, 0
4, 28704, Note_on_c, 1, 46, 0
4, 28704, Note_on_c, 1, 57, 80
4, 28749, Note_on_c, 1, 57, 0
4, 28752, Note_on_c, 1, 55, 80
4, 28797, Note_on_c, 1, 55, 0
4, 28800, Note_on_c, 1, 53, 80
4, 28889, Note_on_c, 1, 53, 0
4, 29040, Note_on_c, 1, 63, 80
4, 29040, Note_on_c, 1, 51, 80
4, 29085, Note_on_c, 1, 63, 0
4, 29085, Note_on_c, 1, 51, 0
4, 29088, Note_on_c, 1, 62, 80
4, 29088, Note_on_c, 1, 50, 80
4, 29133, Note_on_c, 1, 62, 0
4, 29133, Note_on_c, 1, 50, 0
4, 29136, Note_on_c, 1, 60, 80
4, 29136, Note_on_c, 1, 48, 80
4, 29181, Note_on_c, 1, 60, 0
4, 29181, Note_on_c, 1, 48, 0
4, 29184, Note_on_c, 1, 58, 80
4, 29184, Note_on_c, 1, 46, 80
4, 29229, Note_on_c, 1, 58, 0
4, 29229, Note_on_c, 1, 46, 0
4, 29232, Note_on_c, 1, 57, 80
4, 29232, Note_on_c, 1, 45, 80
4, 29277, Note_on_c, 1, 57, 0
4, 29277, Note_on_c, 1, 45, 0
4, 29280, Note_on_c, 1, 55, 80
4, 29280, Note_on_c, 1, 43, 80
4, 29325, Note_on_c, 1, 55, 0
4, 29325, Note_on_c, 1, 43, 0
4, 29328, Note_on_c, 1, 53, 80
4, 29328, Note_on_c, 1, 41, 80
4, 29373, Note_on_c, 1, 53, 0
4, 29373, Note_on_c, 1, 41, 0
4, 29376, Note_on_c, 1, 51, 80
4, 29376, Note_on_c, 1, 39, 80
4, 29421, Note_on_c, 1, 51, 0
4, 29421, Note_on_c, 1, 39, 0
4, 29424, Note_on_c, 1, 50, 80
4, 29424, Note_on_c, 1, 38, 80
4, 29469, Note_on_c, 1, 50, 0
4, 29469, Note_on_c, 1, 38, 0
4, 29472, Note_on_c, 1, 48, 80
4, 29472, Note_on_c, 1, 36, 80
4, 29517, Note_on_c, 1, 48, 0
4, 29517, Note_on_c, 1, 36, 0
4, 29520, Note_on_c, 1, 46, 80
4, 29520, Note_on_c, 1, 34, 80
4, 29565, Note_on_c, 1, 46, 0
4, 29565, Note_on_c, 1, 34, 0
4, 29568, Note_on_c, 1, 45, 80
4, 29568, Note_on_c, 1, 33, 80
4, 29745, Note_on_c, 1, 45, 0
4, 29745, Note_on_c, 1, 33, 0
4, 30336, Note_on_c, 1, 46, 80
4, 30381, Note_on_c, 1, 46, 0
4, 30384, Note_on_c, 1, 53, 80
4, 30429, Note_on_c, 1, 53, 0
4, 30432, Note_on_c, 1, 50, 80
4, 30477, Note_on_c, 1, 50, 0
4, 30480, Note_on_c, 1, 53, 80
4, 30525, Note_on_c, 1, 53, 0
4, 30528, Note_on_c, 1, 45, 80
4, 30573, Note_on_c, 1, 45, 0
4, 30576, Note_on_c, 1, 53, 80
4, 30621, Note_on_c, 1, 53, 0
4, 30624, Note_on_c, 1, 51, 80
4, 30669, Note_on_c, 1, 51, 0
4, 30672, Note_on_c, 1, 53, 80
4, 30717, Note_on_c, 1, 53, 0
4, 30720, Note_on_c, 1, 46, 80
4, 30765, Note_on_c, 1, 46, 0
4, 30768, Note_on_c, 1, 53, 80
4, 30813, Note_on_c, 1, 53, 0
4, 30816, Note_on_c, 1, 50, 80
4, 30861, Note_on_c, 1, 50, 0
4, 30864, Note_on_c, 1, 53, 80
4, 30909, Note_on_c, 1, 53, 0
4, 30912, Note_on_c, 1, 41, 80
4, 30957, Note_on_c, 1, 41, 0
4, 30960, Note_on_c, 1, 53, 80
4, 31005, Note_on_c, 1, 53, 0
4, 31008, Note_on_c, 1, 39, 80
4, 31053, Note_on_c, 1, 39, 0
4, 31056, Note_on_c, 1, 51, 80
4, 31101, Note_on_c, 1, 51, 0
4, 31104, Note_on_c, 1, 38, 80
4, 31193, Note_on_c, 1, 38, 0
4, 31296, Note_on_c, 1, 57, 70
4, 31296, Note_on_c, 1, 53, 70
4, 31296, Note_on_c, 1, 48, 70
4, 31385, Note_on_c, 1, 57, 0
4, 31385, Note_on_c, 1, 53, 0
4, 31385, Note_on_c, 1, 48, 0
4, 31488, Note_on_c, 1, 58, 75
4, 31577, Note_on_c, 1, 58, 0
4, 31584, Note_on_c, 1, 60, 75
4, 31673, Note_on_c, 1, 60, 0
4, 31680, Note_on_c, 1, 41, 75
4, 31725, Note_on_c, 1, 41, 0
4, 31728, Note_on_c, 1, 45, 75
4, 31773, Note_on_c, 1, 45, 0
4, 31776, Note_on_c, 1, 48, 75
4, 31821, Note_on_c, 1, 48, 0
4, 31824, Note_on_c, 1, 53, 75
4, 31869, Note_on_c, 1, 53, 0
4, 31872, Note_on_c, 1, 63, 70
4, 31917, Note_on_c, 1, 63, 0
4, 31920, Note_on_c, 1, 67, 70
4, 31965, Note_on_c, 1, 67, 0
4, 31968, Note_on_c, 1, 63, 70
4, 32013, Note_on_c, 1, 63, 0
4, 32016, Note_on_c, 1, 60, 70
4, 32061, Note_on_c, 1, 60, 0
4, 32064, Note_on_c, 1, 59, 71
4, 32109, Note_on_c, 1, 59, 0
4, 32112, Note_on_c, 1, 62, 71
4, 32157, Note_on_c, 1, 62, 0
4, 32160, Note_on_c, 1, 59, 72
4, 32205, Note_on_c, 1, 59, 0
4, 32208, Note_on_c, 1, 55, 72
4, 32253, Note_on_c, 1, 55, 0
4, 32256, Note_on_c, 1, 60, 73
4, 32389, Note_on_c, 1, 60, 0
4, 32688, Note_on_c, 1, 53, 70
4, 32733, Note_on_c, 1, 53, 0
4, 32736, Note_on_c, 1, 51, 70
4, 32781, Note_on_c, 1, 51, 0
4, 32784, Note_on_c, 1, 53, 70
4, 32829, Note_on_c, 1, 53, 0
4, 32832, Note_on_c, 1, 46, 70
4, 32877, Note_on_c, 1, 46, 0
4, 32880, Note_on_c, 1, 53, 70
4, 32925, Note_on_c, 1, 53, 0
4, 32928, Note_on_c, 1, 50, 70
4, 32973, Note_on_c, 1, 50, 0
4, 32976, Note_on_c, 1, 53, 70
4, 33021, Note_on_c, 1, 53, 0
4, 33024, Note_on_c, 1, 46, 70
4, 33069, Note_on_c, 1, 46, 0
4, 33072, Note_on_c, 1, 53, 70
4, 33117, Note_on_c, 1, 53, 0
4, 33120, Note_on_c, 1, 50, 70
4, 33165, Note_on_c, 1, 50, 0
4, 33168, Note_on_c, 1, 53, 70
4, 33213, Note_on_c, 1, 53, 0
4, 33216, Note_on_c, 1, 46, 70
4, 33261, Note_on_c, 1, 46, 0
4, 33264, Note_on_c, 1, 55, 70
4, 33309, Note_on_c, 1, 55, 0
4, 33312, Note_on_c, 1, 51, 70
4, 33357, Note_on_c, 1, 51, 0
4, 33360, Note_on_c, 1, 55, 70
4, 33405, Note_on_c, 1, 55, 0
4, 33408, Note_on_c, 1, 46, 70
4, 33453, Note_on_c, 1, 46, 0
4, 33456, Note_on_c, 1, 51, 70
4, 33501, Note_on_c, 1, 51, 0
4, 33504, Note_on_c, 1, 48, 70
4, 33549, Note_on_c, 1, 48, 0
4, 33552, Note_on_c, 1, 51, 70
4, 33597, Note_on_c, 1, 51, 0
4, 33600, Note_on_c, 1, 46, 70
4, 33645, Note_on_c, 1, 46, 0
4, 33648, Note_on_c, 1, 53, 68
4, 33693, Note_on_c, 1, 53, 0
4, 33696, Note_on_c, 1, 50, 67
4, 33741, Note_on_c, 1, 50, 0
4, 33744, Note_on_c, 1, 53, 65
4, 33789, Note_on_c, 1, 53, 0
4, 33792, Note_on_c, 1, 58, 64
4, 33837, Note_on_c, 1, 58, 0
4, 33840, Note_on_c, 1, 65, 64
4, 33885, Note_on_c, 1, 65, 0
4, 33888, Note_on_c, 1, 62, 64
4, 33933, Note_on_c, 1, 62, 0
4, 33936, Note_on_c, 1, 65, 64
4, 33981, Note_on_c, 1, 65, 0
4, 33984, Note_on_c, 1, 58, 64
4, 34029, Note_on_c, 1, 58, 0
4, 34032, Note_on_c, 1, 67, 64
4, 34077, Note_on_c, 1, 67, 0
4, 34080, Note_on_c, 1, 63, 64
4, 34125, Note_on_c, 1, 63, 0
4, 34128, Note_on_c, 1, 67, 64
4, 34173, Note_on_c, 1, 67, 0
4, 34176, Note_on_c, 1, 58, 64
4, 34221, Note_on_c, 1, 58, 0
4, 34224, Note_on_c, 1, 63, 64
4, 34269, Note_on_c, 1, 63, 0
4, 34272, Note_on_c, 1, 60, 64
4, 34317, Note_on_c, 1, 60, 0
4, 34320, Note_on_c, 1, 63, 64
4, 34365, Note_on_c, 1, 63, 0
4, 34368, Note_on_c, 1, 58, 64
4, 34413, Note_on_c, 1, 58, 0
4, 34416, Note_on_c, 1, 65, 64
4, 34461, Note_on_c, 1, 65, 0
4, 34464, Note_on_c, 1, 62, 64
4, 34509, Note_on_c, 1, 62, 0
4, 34512, Note_on_c, 1, 65, 64
4, 34557, Note_on_c, 1, 65, 0
4, 34560, Note_on_c, 1, 58, 64
4, 34605, Note_on_c, 1, 58, 0
4, 34608, Note_on_c, 1, 66, 64
4, 34653, Note_on_c, 1, 66, 0
4, 34656, Note_on_c, 1, 63, 64
4, 34701, Note_on_c, 1, 63, 0
4, 34704, Note_on_c, 1, 66, 64
4, 34749, Note_on_c, 1, 66, 0
4, 34752, Note_on_c, 1, 58, 64
4, 34797, Note_on_c, 1, 58, 0
4, 34800, Note_on_c, 1, 65, 64
4, 34845, Note_on_c, 1, 65, 0
4, 34848, Note_on_c, 1, 62, 64
4, 34893, Note_on_c, 1, 62, 0
4, 34896, Note_on_c, 1, 58, 64
4, 34941, Note_on_c, 1, 58, 0
4, 34944, Note_on_c, 1, 46, 64
4, 34989, Note_on_c, 1, 46, 0
4, 34992, Note_on_c, 1, 54, 64
4, 35037, Note_on_c, 1, 54, 0
4, 35040, Note_on_c, 1, 51, 64
4, 35085, Note_on_c, 1, 51, 0
4, 35088, Note_on_c, 1, 54, 64
4, 35133, Note_on_c, 1, 54, 0
4, 35136, Note_on_c, 1, 46, 64
4, 35181, Note_on_c, 1, 46, 0
4, 35184, Note_on_c, 1, 53, 64
4, 35229, Note_on_c, 1, 53, 0
4, 35232, Note_on_c, 1, 50, 64
4, 35277, Note_on_c, 1, 50, 0
4, 35280, Note_on_c, 1, 46, 64
4, 35325, Note_on_c, 1, 46, 0
4, 35328, Note_on_c, 1, 41, 64
4, 35373, Note_on_c, 1, 41, 0
4, 35376, Note_on_c, 1, 51, 64
4, 35421, Note_on_c, 1, 51, 0
4, 35424, Note_on_c, 1, 48, 64
4, 35469, Note_on_c, 1, 48, 0
4, 35472, Note_on_c, 1, 45, 64
4, 35517, Note_on_c, 1, 45, 0
4, 35520, Note_on_c, 1, 53, 64
4, 35520, Note_on_c, 1, 50, 64
4, 35520, Note_on_c, 1, 46, 64
4, 35609, Note_on_c, 1, 53, 0
4, 35609, Note_on_c, 1, 50, 0
4, 35609, Note_on_c, 1, 46, 0
4, 35712, Note_on_c, 1, 53, 64
4, 35712, Note_on_c, 1, 50, 64
4, 35712, Note_on_c, 1, 46, 64
4, 35801, Note_on_c, 1, 53, 0
4, 35801, Note_on_c, 1, 50, 0
4, 35801, Note_on_c, 1, 46, 0
4, 35904, Note_on_c, 1, 53, 64
4, 35904, Note_on_c, 1, 50, 64
4, 35904, Note_on_c, 1, 46, 64
4, 35993, Note_on_c, 1, 53, 0
4, 35993, Note_on_c, 1, 50, 0
4, 35993, Note_on_c, 1, 46, 0
4, 36096, Note_on_c, 1, 53, 64
4, 36096, Note_on_c, 1, 50, 64
4, 36096, Note_on_c, 1, 46, 64
4, 36273, Note_on_c, 1, 53, 0
4, 36273, Note_on_c, 1, 50, 0
4, 36273, Note_on_c, 1, 46, 0
4, 36480, Note_on_c, 1, 46, 0
4, 36657, Note_on_c, 1, 46, 0
4, 36672, End_track
5, 0, Start_track
5, 0, Program_c, 1, 0
5, 0, Control_c, 1, 7, 127
5, 0, Control_c, 1, 10, 64
5, 36480, End_track
6, 0, Start_track
6, 0, Title_t, "Sonata I   Haydn  "
6, 0, End_track
0, 0, End_of_file
