0, 0, Header, 1, 5, 96
1, 0, Start_track
1, 0, Copyright_t, "Copyright  1994-2002 Mozart Music Software"
1, 0, Sequencer_specific, 16, 68, 87, 77, 90, 86, 82, 83, 78, 32, 55, 46, 48, 46, 55, 46, 48
1, 0, Time_signature, 3, 2, 24, 8
1, 0, Tempo, 461538
1, 0, Key_signature, 1, "major"
1, 12672, Key_signature, 0, "major"
1, 14976, Key_signature, 0, "major"
1, 26496, Key_signature, 1, "major"
1, 28800, Key_signature, 1, "major"
1, 39456, End_track
2, 0, Start_track
2, 0, Program_c, 0, 0
2, 0, Control_c, 0, 7, 127
2, 0, Control_c, 0, 10, 64
2, 0, Note_on_c, 0, 74, 80
2, 192, Note_on_c, 0, 74, 0
2, 192, Note_on_c, 0, 76, 64
2, 222, Note_on_c, 0, 76, 0
2, 224, Note_on_c, 0, 78, 64
2, 254, Note_on_c, 0, 78, 0
2, 256, Note_on_c, 0, 79, 64
2, 286, Note_on_c, 0, 79, 0
2, 288, Note_on_c, 0, 74, 80
2, 384, Note_on_c, 0, 74, 0
2, 384, Note_on_c, 0, 79, 64
2, 414, Note_on_c, 0, 79, 0
2, 416, Note_on_c, 0, 83, 64
2, 446, Note_on_c, 0, 83, 0
2, 448, Note_on_c, 0, 81, 64
2, 478, Note_on_c, 0, 81, 0
2, 480, Note_on_c, 0, 79, 64
2, 510, Note_on_c, 0, 79, 0
2, 512, Note_on_c, 0, 78, 64
2, 542, Note_on_c, 0, 78, 0
2, 544, Note_on_c, 0, 76, 64
2, 574, Note_on_c, 0, 76, 0
2, 576, Note_on_c, 0, 74, 80
2, 768, Note_on_c, 0, 74, 0
2, 768, Note_on_c, 0, 76, 64
2, 798, Note_on_c, 0, 76, 0
2, 800, Note_on_c, 0, 78, 64
2, 830, Note_on_c, 0, 78, 0
2, 832, Note_on_c, 0, 79, 64
2, 862, Note_on_c, 0, 79, 0
2, 864, Note_on_c, 0, 74, 64
2, 953, Note_on_c, 0, 74, 0
2, 1200, Note_on_c, 0, 72, 64
2, 1245, Note_on_c, 0, 72, 0
2, 1248, Note_on_c, 0, 76, 64
2, 1293, Note_on_c, 0, 76, 0
2, 1296, Note_on_c, 0, 72, 64
2, 1341, Note_on_c, 0, 72, 0
2, 1344, Note_on_c, 0, 71, 64
2, 1356, Note_on_c, 0, 71, 0
2, 1356, Note_on_c, 0, 72, 64
2, 1368, Note_on_c, 0, 72, 0
2, 1368, Note_on_c, 0, 71, 64
2, 1380, Note_on_c, 0, 71, 0
2, 1380, Note_on_c, 0, 72, 64
2, 1392, Note_on_c, 0, 72, 0
2, 1392, Note_on_c, 0, 69, 64
2, 1437, Note_on_c, 0, 69, 0
2, 1488, Note_on_c, 0, 71, 64
2, 1533, Note_on_c, 0, 71, 0
2, 1536, Note_on_c, 0, 74, 64
2, 1581, Note_on_c, 0, 74, 0
2, 1584, Note_on_c, 0, 71, 64
2, 1629, Note_on_c, 0, 71, 0
2, 1632, Note_on_c, 0, 69, 64
2, 1644, Note_on_c, 0, 69, 0
2, 1644, Note_on_c, 0, 71, 64
2, 1656, Note_on_c, 0, 71, 0
2, 1656, Note_on_c, 0, 69, 64
2, 1668, Note_on_c, 0, 69, 0
2, 1668, Note_on_c, 0, 71, 64
2, 1680, Note_on_c, 0, 71, 0
2, 1680, Note_on_c, 0, 67, 64
2, 1725, Note_on_c, 0, 67, 0
2, 1728, Note_on_c, 0, 71, 64
2, 1773, Note_on_c, 0, 71, 0
2, 1776, Note_on_c, 0, 69, 64
2, 1821, Note_on_c, 0, 69, 0
2, 1824, Note_on_c, 0, 67, 64
2, 1913, Note_on_c, 0, 67, 0
2, 1920, Note_on_c, 0, 66, 64
2, 1933, Note_on_c, 0, 66, 0
2, 1934, Note_on_c, 0, 67, 64
2, 1947, Note_on_c, 0, 67, 0
2, 1948, Note_on_c, 0, 66, 64
2, 1961, Note_on_c, 0, 66, 0
2, 1962, Note_on_c, 0, 67, 64
2, 1975, Note_on_c, 0, 67, 0
2, 1976, Note_on_c, 0, 66, 64
2, 1989, Note_on_c, 0, 66, 0
2, 1990, Note_on_c, 0, 64, 64
2, 2002, Note_on_c, 0, 64, 0
2, 2003, Note_on_c, 0, 66, 64
2, 2015, Note_on_c, 0, 66, 0
2, 2016, Note_on_c, 0, 67, 64
2, 2193, Note_on_c, 0, 67, 0
2, 2304, Note_on_c, 0, 74, 80
2, 2496, Note_on_c, 0, 74, 0
2, 2496, Note_on_c, 0, 76, 64
2, 2526, Note_on_c, 0, 76, 0
2, 2528, Note_on_c, 0, 78, 64
2, 2558, Note_on_c, 0, 78, 0
2, 2560, Note_on_c, 0, 79, 64
2, 2590, Note_on_c, 0, 79, 0
2, 2592, Note_on_c, 0, 74, 80
2, 2688, Note_on_c, 0, 74, 0
2, 2688, Note_on_c, 0, 79, 64
2, 2718, Note_on_c, 0, 79, 0
2, 2720, Note_on_c, 0, 83, 64
2, 2750, Note_on_c, 0, 83, 0
2, 2752, Note_on_c, 0, 81, 64
2, 2782, Note_on_c, 0, 81, 0
2, 2784, Note_on_c, 0, 79, 64
2, 2814, Note_on_c, 0, 79, 0
2, 2816, Note_on_c, 0, 78, 64
2, 2846, Note_on_c, 0, 78, 0
2, 2848, Note_on_c, 0, 76, 64
2, 2878, Note_on_c, 0, 76, 0
2, 2880, Note_on_c, 0, 74, 80
2, 3072, Note_on_c, 0, 74, 0
2, 3072, Note_on_c, 0, 76, 64
2, 3102, Note_on_c, 0, 76, 0
2, 3104, Note_on_c, 0, 78, 64
2, 3134, Note_on_c, 0, 78, 0
2, 3136, Note_on_c, 0, 79, 64
2, 3166, Note_on_c, 0, 79, 0
2, 3168, Note_on_c, 0, 74, 64
2, 3257, Note_on_c, 0, 74, 0
2, 3504, Note_on_c, 0, 72, 64
2, 3549, Note_on_c, 0, 72, 0
2, 3552, Note_on_c, 0, 76, 64
2, 3597, Note_on_c, 0, 76, 0
2, 3600, Note_on_c, 0, 72, 64
2, 3645, Note_on_c, 0, 72, 0
2, 3648, Note_on_c, 0, 71, 64
2, 3660, Note_on_c, 0, 71, 0
2, 3660, Note_on_c, 0, 72, 64
2, 3672, Note_on_c, 0, 72, 0
2, 3672, Note_on_c, 0, 71, 64
2, 3684, Note_on_c, 0, 71, 0
2, 3684, Note_on_c, 0, 72, 64
2, 3696, Note_on_c, 0, 72, 0
2, 3696, Note_on_c, 0, 69, 64
2, 3741, Note_on_c, 0, 69, 0
2, 3792, Note_on_c, 0, 71, 64
2, 3837, Note_on_c, 0, 71, 0
2, 3840, Note_on_c, 0, 74, 64
2, 3885, Note_on_c, 0, 74, 0
2, 3888, Note_on_c, 0, 71, 64
2, 3933, Note_on_c, 0, 71, 0
2, 3936, Note_on_c, 0, 69, 64
2, 3948, Note_on_c, 0, 69, 0
2, 3948, Note_on_c, 0, 71, 64
2, 3960, Note_on_c, 0, 71, 0
2, 3960, Note_on_c, 0, 69, 64
2, 3972, Note_on_c, 0, 69, 0
2, 3972, Note_on_c, 0, 71, 64
2, 3984, Note_on_c, 0, 71, 0
2, 3984, Note_on_c, 0, 67, 64
2, 4029, Note_on_c, 0, 67, 0
2, 4032, Note_on_c, 0, 71, 64
2, 4077, Note_on_c, 0, 71, 0
2, 4080, Note_on_c, 0, 69, 64
2, 4125, Note_on_c, 0, 69, 0
2, 4128, Note_on_c, 0, 67, 64
2, 4217, Note_on_c, 0, 67, 0
2, 4224, Note_on_c, 0, 66, 64
2, 4237, Note_on_c, 0, 66, 0
2, 4238, Note_on_c, 0, 67, 64
2, 4251, Note_on_c, 0, 67, 0
2, 4252, Note_on_c, 0, 66, 64
2, 4265, Note_on_c, 0, 66, 0
2, 4266, Note_on_c, 0, 67, 64
2, 4279, Note_on_c, 0, 67, 0
2, 4280, Note_on_c, 0, 66, 64
2, 4293, Note_on_c, 0, 66, 0
2, 4294, Note_on_c, 0, 64, 64
2, 4306, Note_on_c, 0, 64, 0
2, 4307, Note_on_c, 0, 66, 64
2, 4319, Note_on_c, 0, 66, 0
2, 4320, Note_on_c, 0, 67, 64
2, 4497, Note_on_c, 0, 67, 0
2, 4608, Note_on_c, 0, 69, 64
2, 4608, Note_on_c, 0, 66, 64
2, 4785, Note_on_c, 0, 69, 0
2, 4785, Note_on_c, 0, 66, 0
2, 4800, Note_on_c, 0, 71, 64
2, 4800, Note_on_c, 0, 67, 64
2, 4889, Note_on_c, 0, 71, 0
2, 4889, Note_on_c, 0, 67, 0
2, 4896, Note_on_c, 0, 72, 80
2, 4896, Note_on_c, 0, 69, 80
2, 4992, Note_on_c, 0, 72, 0
2, 4992, Note_on_c, 0, 69, 0
2, 4992, Note_on_c, 0, 69, 64
2, 4992, Note_on_c, 0, 66, 64
2, 5081, Note_on_c, 0, 69, 0
2, 5081, Note_on_c, 0, 66, 0
2, 5184, Note_on_c, 0, 71, 64
2, 5184, Note_on_c, 0, 67, 64
2, 5361, Note_on_c, 0, 71, 0
2, 5361, Note_on_c, 0, 67, 0
2, 5376, Note_on_c, 0, 72, 64
2, 5376, Note_on_c, 0, 69, 64
2, 5465, Note_on_c, 0, 72, 0
2, 5465, Note_on_c, 0, 69, 0
2, 5472, Note_on_c, 0, 74, 80
2, 5472, Note_on_c, 0, 71, 80
2, 5568, Note_on_c, 0, 74, 0
2, 5568, Note_on_c, 0, 71, 0
2, 5568, Note_on_c, 0, 71, 64
2, 5568, Note_on_c, 0, 67, 64
2, 5657, Note_on_c, 0, 71, 0
2, 5657, Note_on_c, 0, 67, 0
2, 5760, Note_on_c, 0, 69, 64
2, 5760, Note_on_c, 0, 66, 64
2, 5849, Note_on_c, 0, 69, 0
2, 5849, Note_on_c, 0, 66, 0
2, 5856, Note_on_c, 0, 72, 64
2, 5856, Note_on_c, 0, 69, 64
2, 5945, Note_on_c, 0, 72, 0
2, 5945, Note_on_c, 0, 69, 0
2, 5952, Note_on_c, 0, 71, 64
2, 5952, Note_on_c, 0, 67, 64
2, 6041, Note_on_c, 0, 71, 0
2, 6041, Note_on_c, 0, 67, 0
2, 6048, Note_on_c, 0, 69, 64
2, 6048, Note_on_c, 0, 66, 64
2, 6137, Note_on_c, 0, 69, 0
2, 6137, Note_on_c, 0, 66, 0
2, 6336, Note_on_c, 0, 74, 80
2, 6528, Note_on_c, 0, 74, 0
2, 6528, Note_on_c, 0, 76, 64
2, 6558, Note_on_c, 0, 76, 0
2, 6560, Note_on_c, 0, 78, 64
2, 6590, Note_on_c, 0, 78, 0
2, 6592, Note_on_c, 0, 79, 64
2, 6622, Note_on_c, 0, 79, 0
2, 6624, Note_on_c, 0, 74, 80
2, 6720, Note_on_c, 0, 74, 0
2, 6720, Note_on_c, 0, 79, 64
2, 6750, Note_on_c, 0, 79, 0
2, 6752, Note_on_c, 0, 83, 64
2, 6782, Note_on_c, 0, 83, 0
2, 6784, Note_on_c, 0, 81, 64
2, 6814, Note_on_c, 0, 81, 0
2, 6816, Note_on_c, 0, 79, 64
2, 6846, Note_on_c, 0, 79, 0
2, 6848, Note_on_c, 0, 78, 64
2, 6878, Note_on_c, 0, 78, 0
2, 6880, Note_on_c, 0, 76, 64
2, 6910, Note_on_c, 0, 76, 0
2, 6912, Note_on_c, 0, 74, 80
2, 7104, Note_on_c, 0, 74, 0
2, 7104, Note_on_c, 0, 76, 64
2, 7134, Note_on_c, 0, 76, 0
2, 7136, Note_on_c, 0, 78, 64
2, 7166, Note_on_c, 0, 78, 0
2, 7168, Note_on_c, 0, 79, 64
2, 7198, Note_on_c, 0, 79, 0
2, 7200, Note_on_c, 0, 74, 64
2, 7289, Note_on_c, 0, 74, 0
2, 7536, Note_on_c, 0, 72, 64
2, 7581, Note_on_c, 0, 72, 0
2, 7584, Note_on_c, 0, 76, 64
2, 7629, Note_on_c, 0, 76, 0
2, 7632, Note_on_c, 0, 72, 64
2, 7677, Note_on_c, 0, 72, 0
2, 7680, Note_on_c, 0, 71, 64
2, 7692, Note_on_c, 0, 71, 0
2, 7692, Note_on_c, 0, 72, 64
2, 7704, Note_on_c, 0, 72, 0
2, 7704, Note_on_c, 0, 71, 64
2, 7716, Note_on_c, 0, 71, 0
2, 7716, Note_on_c, 0, 72, 64
2, 7728, Note_on_c, 0, 72, 0
2, 7728, Note_on_c, 0, 69, 64
2, 7773, Note_on_c, 0, 69, 0
2, 7824, Note_on_c, 0, 71, 64
2, 7869, Note_on_c, 0, 71, 0
2, 7872, Note_on_c, 0, 74, 64
2, 7917, Note_on_c, 0, 74, 0
2, 7920, Note_on_c, 0, 71, 64
2, 7965, Note_on_c, 0, 71, 0
2, 7968, Note_on_c, 0, 69, 64
2, 7980, Note_on_c, 0, 69, 0
2, 7980, Note_on_c, 0, 71, 64
2, 7992, Note_on_c, 0, 71, 0
2, 7992, Note_on_c, 0, 69, 64
2, 8004, Note_on_c, 0, 69, 0
2, 8004, Note_on_c, 0, 71, 64
2, 8016, Note_on_c, 0, 71, 0
2, 8016, Note_on_c, 0, 67, 64
2, 8061, Note_on_c, 0, 67, 0
2, 8064, Note_on_c, 0, 71, 64
2, 8109, Note_on_c, 0, 71, 0
2, 8112, Note_on_c, 0, 69, 64
2, 8157, Note_on_c, 0, 69, 0
2, 8160, Note_on_c, 0, 67, 64
2, 8249, Note_on_c, 0, 67, 0
2, 8256, Note_on_c, 0, 66, 64
2, 8269, Note_on_c, 0, 66, 0
2, 8270, Note_on_c, 0, 67, 64
2, 8283, Note_on_c, 0, 67, 0
2, 8284, Note_on_c, 0, 66, 64
2, 8297, Note_on_c, 0, 66, 0
2, 8298, Note_on_c, 0, 67, 64
2, 8311, Note_on_c, 0, 67, 0
2, 8312, Note_on_c, 0, 66, 64
2, 8325, Note_on_c, 0, 66, 0
2, 8326, Note_on_c, 0, 64, 64
2, 8338, Note_on_c, 0, 64, 0
2, 8339, Note_on_c, 0, 66, 64
2, 8351, Note_on_c, 0, 66, 0
2, 8352, Note_on_c, 0, 67, 64
2, 8529, Note_on_c, 0, 67, 0
2, 8640, Note_on_c, 0, 69, 64
2, 8640, Note_on_c, 0, 66, 64
2, 8817, Note_on_c, 0, 69, 0
2, 8817, Note_on_c, 0, 66, 0
2, 8832, Note_on_c, 0, 71, 64
2, 8832, Note_on_c, 0, 67, 64
2, 8921, Note_on_c, 0, 71, 0
2, 8921, Note_on_c, 0, 67, 0
2, 8928, Note_on_c, 0, 72, 80
2, 8928, Note_on_c, 0, 69, 80
2, 9024, Note_on_c, 0, 72, 0
2, 9024, Note_on_c, 0, 69, 0
2, 9024, Note_on_c, 0, 69, 64
2, 9024, Note_on_c, 0, 66, 64
2, 9113, Note_on_c, 0, 69, 0
2, 9113, Note_on_c, 0, 66, 0
2, 9216, Note_on_c, 0, 71, 64
2, 9216, Note_on_c, 0, 67, 64
2, 9393, Note_on_c, 0, 71, 0
2, 9393, Note_on_c, 0, 67, 0
2, 9408, Note_on_c, 0, 72, 64
2, 9408, Note_on_c, 0, 69, 64
2, 9497, Note_on_c, 0, 72, 0
2, 9497, Note_on_c, 0, 69, 0
2, 9504, Note_on_c, 0, 74, 80
2, 9504, Note_on_c, 0, 71, 80
2, 9600, Note_on_c, 0, 74, 0
2, 9600, Note_on_c, 0, 71, 0
2, 9600, Note_on_c, 0, 71, 64
2, 9600, Note_on_c, 0, 67, 64
2, 9689, Note_on_c, 0, 71, 0
2, 9689, Note_on_c, 0, 67, 0
2, 9792, Note_on_c, 0, 69, 64
2, 9792, Note_on_c, 0, 66, 64
2, 9881, Note_on_c, 0, 69, 0
2, 9881, Note_on_c, 0, 66, 0
2, 9888, Note_on_c, 0, 72, 64
2, 9888, Note_on_c, 0, 69, 64
2, 9977, Note_on_c, 0, 72, 0
2, 9977, Note_on_c, 0, 69, 0
2, 9984, Note_on_c, 0, 71, 64
2, 9984, Note_on_c, 0, 67, 64
2, 10073, Note_on_c, 0, 71, 0
2, 10073, Note_on_c, 0, 67, 0
2, 10080, Note_on_c, 0, 69, 64
2, 10080, Note_on_c, 0, 66, 64
2, 10169, Note_on_c, 0, 69, 0
2, 10169, Note_on_c, 0, 66, 0
2, 10368, Note_on_c, 0, 74, 80
2, 10560, Note_on_c, 0, 74, 0
2, 10560, Note_on_c, 0, 76, 64
2, 10590, Note_on_c, 0, 76, 0
2, 10592, Note_on_c, 0, 78, 64
2, 10622, Note_on_c, 0, 78, 0
2, 10624, Note_on_c, 0, 79, 64
2, 10654, Note_on_c, 0, 79, 0
2, 10656, Note_on_c, 0, 74, 80
2, 10752, Note_on_c, 0, 74, 0
2, 10752, Note_on_c, 0, 79, 64
2, 10782, Note_on_c, 0, 79, 0
2, 10784, Note_on_c, 0, 83, 64
2, 10814, Note_on_c, 0, 83, 0
2, 10816, Note_on_c, 0, 81, 64
2, 10846, Note_on_c, 0, 81, 0
2, 10848, Note_on_c, 0, 79, 64
2, 10878, Note_on_c, 0, 79, 0
2, 10880, Note_on_c, 0, 78, 64
2, 10910, Note_on_c, 0, 78, 0
2, 10912, Note_on_c, 0, 76, 64
2, 10942, Note_on_c, 0, 76, 0
2, 10944, Note_on_c, 0, 74, 80
2, 11136, Note_on_c, 0, 74, 0
2, 11136, Note_on_c, 0, 76, 64
2, 11166, Note_on_c, 0, 76, 0
2, 11168, Note_on_c, 0, 78, 64
2, 11198, Note_on_c, 0, 78, 0
2, 11200, Note_on_c, 0, 79, 64
2, 11230, Note_on_c, 0, 79, 0
2, 11232, Note_on_c, 0, 74, 64
2, 11321, Note_on_c, 0, 74, 0
2, 11568, Note_on_c, 0, 72, 64
2, 11613, Note_on_c, 0, 72, 0
2, 11616, Note_on_c, 0, 76, 64
2, 11661, Note_on_c, 0, 76, 0
2, 11664, Note_on_c, 0, 72, 64
2, 11709, Note_on_c, 0, 72, 0
2, 11712, Note_on_c, 0, 71, 64
2, 11724, Note_on_c, 0, 71, 0
2, 11724, Note_on_c, 0, 72, 64
2, 11736, Note_on_c, 0, 72, 0
2, 11736, Note_on_c, 0, 71, 64
2, 11748, Note_on_c, 0, 71, 0
2, 11748, Note_on_c, 0, 72, 64
2, 11760, Note_on_c, 0, 72, 0
2, 11760, Note_on_c, 0, 69, 64
2, 11805, Note_on_c, 0, 69, 0
2, 11856, Note_on_c, 0, 71, 64
2, 11901, Note_on_c, 0, 71, 0
2, 11904, Note_on_c, 0, 74, 64
2, 11949, Note_on_c, 0, 74, 0
2, 11952, Note_on_c, 0, 71, 64
2, 11997, Note_on_c, 0, 71, 0
2, 12000, Note_on_c, 0, 69, 64
2, 12012, Note_on_c, 0, 69, 0
2, 12012, Note_on_c, 0, 71, 64
2, 12024, Note_on_c, 0, 71, 0
2, 12024, Note_on_c, 0, 69, 64
2, 12036, Note_on_c, 0, 69, 0
2, 12036, Note_on_c, 0, 71, 64
2, 12048, Note_on_c, 0, 71, 0
2, 12048, Note_on_c, 0, 67, 64
2, 12093, Note_on_c, 0, 67, 0
2, 12096, Note_on_c, 0, 71, 64
2, 12141, Note_on_c, 0, 71, 0
2, 12144, Note_on_c, 0, 69, 64
2, 12189, Note_on_c, 0, 69, 0
2, 12192, Note_on_c, 0, 67, 64
2, 12281, Note_on_c, 0, 67, 0
2, 12288, Note_on_c, 0, 66, 64
2, 12301, Note_on_c, 0, 66, 0
2, 12302, Note_on_c, 0, 67, 64
2, 12315, Note_on_c, 0, 67, 0
2, 12316, Note_on_c, 0, 66, 64
2, 12329, Note_on_c, 0, 66, 0
2, 12330, Note_on_c, 0, 67, 64
2, 12343, Note_on_c, 0, 67, 0
2, 12344, Note_on_c, 0, 66, 64
2, 12357, Note_on_c, 0, 66, 0
2, 12358, Note_on_c, 0, 64, 64
2, 12370, Note_on_c, 0, 64, 0
2, 12371, Note_on_c, 0, 66, 64
2, 12383, Note_on_c, 0, 66, 0
2, 12384, Note_on_c, 0, 67, 64
2, 12561, Note_on_c, 0, 67, 0
2, 12768, Note_on_c, 0, 72, 64
2, 12857, Note_on_c, 0, 72, 0
2, 12864, Note_on_c, 0, 72, 64
2, 12953, Note_on_c, 0, 72, 0
2, 12960, Note_on_c, 0, 74, 64
2, 12973, Note_on_c, 0, 74, 0
2, 12974, Note_on_c, 0, 72, 64
2, 12987, Note_on_c, 0, 72, 0
2, 12988, Note_on_c, 0, 74, 64
2, 13001, Note_on_c, 0, 74, 0
2, 13002, Note_on_c, 0, 72, 64
2, 13015, Note_on_c, 0, 72, 0
2, 13016, Note_on_c, 0, 74, 64
2, 13029, Note_on_c, 0, 74, 0
2, 13030, Note_on_c, 0, 72, 64
2, 13043, Note_on_c, 0, 72, 0
2, 13044, Note_on_c, 0, 74, 64
2, 13057, Note_on_c, 0, 74, 0
2, 13058, Note_on_c, 0, 72, 64
2, 13071, Note_on_c, 0, 72, 0
2, 13072, Note_on_c, 0, 74, 64
2, 13085, Note_on_c, 0, 74, 0
2, 13086, Note_on_c, 0, 72, 64
2, 13099, Note_on_c, 0, 72, 0
2, 13100, Note_on_c, 0, 71, 64
2, 13125, Note_on_c, 0, 71, 0
2, 13126, Note_on_c, 0, 72, 64
2, 13151, Note_on_c, 0, 72, 0
2, 13152, Note_on_c, 0, 67, 64
2, 13241, Note_on_c, 0, 67, 0
2, 13248, Note_on_c, 0, 69, 64
2, 13425, Note_on_c, 0, 69, 0
2, 13440, Note_on_c, 0, 72, 64
2, 13470, Note_on_c, 0, 72, 0
2, 13472, Note_on_c, 0, 71, 64
2, 13502, Note_on_c, 0, 71, 0
2, 13504, Note_on_c, 0, 69, 64
2, 13534, Note_on_c, 0, 69, 0
2, 13536, Note_on_c, 0, 67, 64
2, 13625, Note_on_c, 0, 67, 0
2, 13824, Note_on_c, 0, 79, 64
2, 13836, Note_on_c, 0, 79, 0
2, 13836, Note_on_c, 0, 77, 64
2, 13848, Note_on_c, 0, 77, 0
2, 13848, Note_on_c, 0, 76, 64
2, 13860, Note_on_c, 0, 76, 0
2, 13860, Note_on_c, 0, 77, 64
2, 13913, Note_on_c, 0, 77, 0
2, 14112, Note_on_c, 0, 77, 64
2, 14124, Note_on_c, 0, 77, 0
2, 14124, Note_on_c, 0, 76, 64
2, 14136, Note_on_c, 0, 76, 0
2, 14136, Note_on_c, 0, 74, 64
2, 14148, Note_on_c, 0, 74, 0
2, 14148, Note_on_c, 0, 76, 64
2, 14201, Note_on_c, 0, 76, 0
2, 14400, Note_on_c, 0, 76, 64
2, 14445, Note_on_c, 0, 76, 0
2, 14448, Note_on_c, 0, 74, 64
2, 14493, Note_on_c, 0, 74, 0
2, 14496, Note_on_c, 0, 72, 64
2, 14585, Note_on_c, 0, 72, 0
2, 14592, Note_on_c, 0, 71, 64
2, 14605, Note_on_c, 0, 71, 0
2, 14606, Note_on_c, 0, 72, 64
2, 14619, Note_on_c, 0, 72, 0
2, 14620, Note_on_c, 0, 71, 64
2, 14633, Note_on_c, 0, 71, 0
2, 14634, Note_on_c, 0, 72, 64
2, 14647, Note_on_c, 0, 72, 0
2, 14648, Note_on_c, 0, 71, 64
2, 14661, Note_on_c, 0, 71, 0
2, 14662, Note_on_c, 0, 69, 64
2, 14674, Note_on_c, 0, 69, 0
2, 14675, Note_on_c, 0, 71, 64
2, 14687, Note_on_c, 0, 71, 0
2, 14688, Note_on_c, 0, 72, 64
2, 14865, Note_on_c, 0, 72, 0
2, 15072, Note_on_c, 0, 72, 64
2, 15161, Note_on_c, 0, 72, 0
2, 15168, Note_on_c, 0, 72, 64
2, 15257, Note_on_c, 0, 72, 0
2, 15264, Note_on_c, 0, 74, 64
2, 15277, Note_on_c, 0, 74, 0
2, 15278, Note_on_c, 0, 72, 64
2, 15291, Note_on_c, 0, 72, 0
2, 15292, Note_on_c, 0, 74, 64
2, 15305, Note_on_c, 0, 74, 0
2, 15306, Note_on_c, 0, 72, 64
2, 15319, Note_on_c, 0, 72, 0
2, 15320, Note_on_c, 0, 74, 64
2, 15333, Note_on_c, 0, 74, 0
2, 15334, Note_on_c, 0, 72, 64
2, 15347, Note_on_c, 0, 72, 0
2, 15348, Note_on_c, 0, 74, 64
2, 15361, Note_on_c, 0, 74, 0
2, 15362, Note_on_c, 0, 72, 64
2, 15375, Note_on_c, 0, 72, 0
2, 15376, Note_on_c, 0, 74, 64
2, 15389, Note_on_c, 0, 74, 0
2, 15390, Note_on_c, 0, 72, 64
2, 15403, Note_on_c, 0, 72, 0
2, 15404, Note_on_c, 0, 71, 64
2, 15429, Note_on_c, 0, 71, 0
2, 15430, Note_on_c, 0, 72, 64
2, 15455, Note_on_c, 0, 72, 0
2, 15456, Note_on_c, 0, 67, 64
2, 15545, Note_on_c, 0, 67, 0
2, 15552, Note_on_c, 0, 69, 64
2, 15729, Note_on_c, 0, 69, 0
2, 15744, Note_on_c, 0, 72, 64
2, 15774, Note_on_c, 0, 72, 0
2, 15776, Note_on_c, 0, 71, 64
2, 15806, Note_on_c, 0, 71, 0
2, 15808, Note_on_c, 0, 69, 64
2, 15838, Note_on_c, 0, 69, 0
2, 15840, Note_on_c, 0, 67, 64
2, 15929, Note_on_c, 0, 67, 0
2, 16128, Note_on_c, 0, 79, 64
2, 16140, Note_on_c, 0, 79, 0
2, 16140, Note_on_c, 0, 77, 64
2, 16152, Note_on_c, 0, 77, 0
2, 16152, Note_on_c, 0, 76, 64
2, 16164, Note_on_c, 0, 76, 0
2, 16164, Note_on_c, 0, 77, 64
2, 16217, Note_on_c, 0, 77, 0
2, 16416, Note_on_c, 0, 77, 64
2, 16428, Note_on_c, 0, 77, 0
2, 16428, Note_on_c, 0, 76, 64
2, 16440, Note_on_c, 0, 76, 0
2, 16440, Note_on_c, 0, 74, 64
2, 16452, Note_on_c, 0, 74, 0
2, 16452, Note_on_c, 0, 76, 64
2, 16505, Note_on_c, 0, 76, 0
2, 16704, Note_on_c, 0, 76, 64
2, 16749, Note_on_c, 0, 76, 0
2, 16752, Note_on_c, 0, 74, 64
2, 16797, Note_on_c, 0, 74, 0
2, 16800, Note_on_c, 0, 72, 64
2, 16889, Note_on_c, 0, 72, 0
2, 16896, Note_on_c, 0, 71, 64
2, 16909, Note_on_c, 0, 71, 0
2, 16910, Note_on_c, 0, 72, 64
2, 16923, Note_on_c, 0, 72, 0
2, 16924, Note_on_c, 0, 71, 64
2, 16937, Note_on_c, 0, 71, 0
2, 16938, Note_on_c, 0, 72, 64
2, 16951, Note_on_c, 0, 72, 0
2, 16952, Note_on_c, 0, 71, 64
2, 16965, Note_on_c, 0, 71, 0
2, 16966, Note_on_c, 0, 69, 64
2, 16978, Note_on_c, 0, 69, 0
2, 16979, Note_on_c, 0, 71, 64
2, 16991, Note_on_c, 0, 71, 0
2, 16992, Note_on_c, 0, 72, 64
2, 17169, Note_on_c, 0, 72, 0
2, 17376, Note_on_c, 0, 79, 64
2, 17465, Note_on_c, 0, 79, 0
2, 17472, Note_on_c, 0, 79, 64
2, 17561, Note_on_c, 0, 79, 0
2, 17568, Note_on_c, 0, 79, 80
2, 17760, Note_on_c, 0, 79, 0
2, 17760, Note_on_c, 0, 78, 64
2, 17849, Note_on_c, 0, 78, 0
2, 17952, Note_on_c, 0, 77, 64
2, 18041, Note_on_c, 0, 77, 0
2, 18048, Note_on_c, 0, 77, 64
2, 18137, Note_on_c, 0, 77, 0
2, 18144, Note_on_c, 0, 77, 80
2, 18336, Note_on_c, 0, 77, 0
2, 18336, Note_on_c, 0, 76, 64
2, 18425, Note_on_c, 0, 76, 0
2, 18528, Note_on_c, 0, 74, 78
2, 18558, Note_on_c, 0, 74, 0
2, 18560, Note_on_c, 0, 76, 78
2, 18590, Note_on_c, 0, 76, 0
2, 18592, Note_on_c, 0, 77, 78
2, 18622, Note_on_c, 0, 77, 0
2, 18624, Note_on_c, 0, 77, 78
2, 18654, Note_on_c, 0, 77, 0
2, 18656, Note_on_c, 0, 79, 79
2, 18686, Note_on_c, 0, 79, 0
2, 18688, Note_on_c, 0, 81, 79
2, 18718, Note_on_c, 0, 81, 0
2, 18816, Note_on_c, 0, 74, 80
2, 18846, Note_on_c, 0, 74, 0
2, 18848, Note_on_c, 0, 76, 81
2, 18878, Note_on_c, 0, 76, 0
2, 18880, Note_on_c, 0, 77, 81
2, 18910, Note_on_c, 0, 77, 0
2, 18912, Note_on_c, 0, 77, 81
2, 18942, Note_on_c, 0, 77, 0
2, 18944, Note_on_c, 0, 79, 82
2, 18974, Note_on_c, 0, 79, 0
2, 18976, Note_on_c, 0, 81, 82
2, 19006, Note_on_c, 0, 81, 0
2, 19104, Note_on_c, 0, 81, 83
2, 19134, Note_on_c, 0, 81, 0
2, 19136, Note_on_c, 0, 79, 84
2, 19166, Note_on_c, 0, 79, 0
2, 19168, Note_on_c, 0, 77, 84
2, 19198, Note_on_c, 0, 77, 0
2, 19200, Note_on_c, 0, 76, 85
2, 19230, Note_on_c, 0, 76, 0
2, 19232, Note_on_c, 0, 74, 85
2, 19262, Note_on_c, 0, 74, 0
2, 19264, Note_on_c, 0, 72, 85
2, 19294, Note_on_c, 0, 72, 0
2, 19296, Note_on_c, 0, 72, 85
2, 19488, Note_on_c, 0, 72, 0
2, 19488, Note_on_c, 0, 71, 80
2, 19577, Note_on_c, 0, 71, 0
2, 19680, Note_on_c, 0, 72, 78
2, 19769, Note_on_c, 0, 72, 0
2, 19776, Note_on_c, 0, 72, 78
2, 19865, Note_on_c, 0, 72, 0
2, 19872, Note_on_c, 0, 74, 78
2, 19885, Note_on_c, 0, 74, 0
2, 19886, Note_on_c, 0, 72, 78
2, 19899, Note_on_c, 0, 72, 0
2, 19900, Note_on_c, 0, 74, 78
2, 19913, Note_on_c, 0, 74, 0
2, 19914, Note_on_c, 0, 72, 78
2, 19927, Note_on_c, 0, 72, 0
2, 19928, Note_on_c, 0, 74, 78
2, 19941, Note_on_c, 0, 74, 0
2, 19942, Note_on_c, 0, 72, 78
2, 19955, Note_on_c, 0, 72, 0
2, 19956, Note_on_c, 0, 74, 78
2, 19969, Note_on_c, 0, 74, 0
2, 19970, Note_on_c, 0, 72, 78
2, 19983, Note_on_c, 0, 72, 0
2, 19984, Note_on_c, 0, 74, 78
2, 19997, Note_on_c, 0, 74, 0
2, 19998, Note_on_c, 0, 72, 78
2, 20011, Note_on_c, 0, 72, 0
2, 20012, Note_on_c, 0, 71, 78
2, 20037, Note_on_c, 0, 71, 0
2, 20038, Note_on_c, 0, 72, 78
2, 20063, Note_on_c, 0, 72, 0
2, 20064, Note_on_c, 0, 67, 78
2, 20153, Note_on_c, 0, 67, 0
2, 20160, Note_on_c, 0, 69, 78
2, 20337, Note_on_c, 0, 69, 0
2, 20352, Note_on_c, 0, 72, 78
2, 20382, Note_on_c, 0, 72, 0
2, 20384, Note_on_c, 0, 71, 78
2, 20414, Note_on_c, 0, 71, 0
2, 20416, Note_on_c, 0, 69, 78
2, 20446, Note_on_c, 0, 69, 0
2, 20448, Note_on_c, 0, 67, 78
2, 20537, Note_on_c, 0, 67, 0
2, 20736, Note_on_c, 0, 79, 78
2, 20748, Note_on_c, 0, 79, 0
2, 20748, Note_on_c, 0, 77, 78
2, 20760, Note_on_c, 0, 77, 0
2, 20760, Note_on_c, 0, 76, 78
2, 20772, Note_on_c, 0, 76, 0
2, 20772, Note_on_c, 0, 77, 78
2, 20825, Note_on_c, 0, 77, 0
2, 21024, Note_on_c, 0, 77, 78
2, 21036, Note_on_c, 0, 77, 0
2, 21036, Note_on_c, 0, 76, 78
2, 21048, Note_on_c, 0, 76, 0
2, 21048, Note_on_c, 0, 74, 78
2, 21060, Note_on_c, 0, 74, 0
2, 21060, Note_on_c, 0, 76, 78
2, 21113, Note_on_c, 0, 76, 0
2, 21312, Note_on_c, 0, 76, 78
2, 21357, Note_on_c, 0, 76, 0
2, 21360, Note_on_c, 0, 74, 78
2, 21405, Note_on_c, 0, 74, 0
2, 21408, Note_on_c, 0, 72, 78
2, 21497, Note_on_c, 0, 72, 0
2, 21504, Note_on_c, 0, 71, 78
2, 21517, Note_on_c, 0, 71, 0
2, 21518, Note_on_c, 0, 72, 78
2, 21531, Note_on_c, 0, 72, 0
2, 21532, Note_on_c, 0, 71, 78
2, 21545, Note_on_c, 0, 71, 0
2, 21546, Note_on_c, 0, 72, 78
2, 21559, Note_on_c, 0, 72, 0
2, 21560, Note_on_c, 0, 71, 78
2, 21573, Note_on_c, 0, 71, 0
2, 21574, Note_on_c, 0, 69, 78
2, 21586, Note_on_c, 0, 69, 0
2, 21587, Note_on_c, 0, 71, 78
2, 21599, Note_on_c, 0, 71, 0
2, 21600, Note_on_c, 0, 72, 78
2, 21777, Note_on_c, 0, 72, 0
2, 21984, Note_on_c, 0, 79, 64
2, 22073, Note_on_c, 0, 79, 0
2, 22080, Note_on_c, 0, 79, 64
2, 22169, Note_on_c, 0, 79, 0
2, 22176, Note_on_c, 0, 79, 80
2, 22368, Note_on_c, 0, 79, 0
2, 22368, Note_on_c, 0, 78, 64
2, 22457, Note_on_c, 0, 78, 0
2, 22560, Note_on_c, 0, 77, 64
2, 22649, Note_on_c, 0, 77, 0
2, 22656, Note_on_c, 0, 77, 64
2, 22745, Note_on_c, 0, 77, 0
2, 22752, Note_on_c, 0, 77, 80
2, 22944, Note_on_c, 0, 77, 0
2, 22944, Note_on_c, 0, 76, 64
2, 23033, Note_on_c, 0, 76, 0
2, 23136, Note_on_c, 0, 74, 78
2, 23166, Note_on_c, 0, 74, 0
2, 23168, Note_on_c, 0, 76, 78
2, 23198, Note_on_c, 0, 76, 0
2, 23200, Note_on_c, 0, 77, 78
2, 23230, Note_on_c, 0, 77, 0
2, 23232, Note_on_c, 0, 77, 78
2, 23262, Note_on_c, 0, 77, 0
2, 23264, Note_on_c, 0, 79, 79
2, 23294, Note_on_c, 0, 79, 0
2, 23296, Note_on_c, 0, 81, 79
2, 23326, Note_on_c, 0, 81, 0
2, 23424, Note_on_c, 0, 74, 80
2, 23454, Note_on_c, 0, 74, 0
2, 23456, Note_on_c, 0, 76, 81
2, 23486, Note_on_c, 0, 76, 0
2, 23488, Note_on_c, 0, 77, 81
2, 23518, Note_on_c, 0, 77, 0
2, 23520, Note_on_c, 0, 77, 81
2, 23550, Note_on_c, 0, 77, 0
2, 23552, Note_on_c, 0, 79, 82
2, 23582, Note_on_c, 0, 79, 0
2, 23584, Note_on_c, 0, 81, 82
2, 23614, Note_on_c, 0, 81, 0
2, 23712, Note_on_c, 0, 81, 83
2, 23742, Note_on_c, 0, 81, 0
2, 23744, Note_on_c, 0, 79, 84
2, 23774, Note_on_c, 0, 79, 0
2, 23776, Note_on_c, 0, 77, 84
2, 23806, Note_on_c, 0, 77, 0
2, 23808, Note_on_c, 0, 76, 85
2, 23838, Note_on_c, 0, 76, 0
2, 23840, Note_on_c, 0, 74, 85
2, 23870, Note_on_c, 0, 74, 0
2, 23872, Note_on_c, 0, 72, 85
2, 23902, Note_on_c, 0, 72, 0
2, 23904, Note_on_c, 0, 72, 85
2, 24096, Note_on_c, 0, 72, 0
2, 24096, Note_on_c, 0, 71, 80
2, 24185, Note_on_c, 0, 71, 0
2, 24288, Note_on_c, 0, 72, 78
2, 24377, Note_on_c, 0, 72, 0
2, 24384, Note_on_c, 0, 72, 78
2, 24473, Note_on_c, 0, 72, 0
2, 24480, Note_on_c, 0, 74, 78
2, 24493, Note_on_c, 0, 74, 0
2, 24494, Note_on_c, 0, 72, 78
2, 24507, Note_on_c, 0, 72, 0
2, 24508, Note_on_c, 0, 74, 78
2, 24521, Note_on_c, 0, 74, 0
2, 24522, Note_on_c, 0, 72, 78
2, 24535, Note_on_c, 0, 72, 0
2, 24536, Note_on_c, 0, 74, 78
2, 24549, Note_on_c, 0, 74, 0
2, 24550, Note_on_c, 0, 72, 78
2, 24563, Note_on_c, 0, 72, 0
2, 24564, Note_on_c, 0, 74, 78
2, 24577, Note_on_c, 0, 74, 0
2, 24578, Note_on_c, 0, 72, 78
2, 24591, Note_on_c, 0, 72, 0
2, 24592, Note_on_c, 0, 74, 78
2, 24605, Note_on_c, 0, 74, 0
2, 24606, Note_on_c, 0, 72, 78
2, 24619, Note_on_c, 0, 72, 0
2, 24620, Note_on_c, 0, 71, 78
2, 24645, Note_on_c, 0, 71, 0
2, 24646, Note_on_c, 0, 72, 78
2, 24671, Note_on_c, 0, 72, 0
2, 24672, Note_on_c, 0, 67, 78
2, 24761, Note_on_c, 0, 67, 0
2, 24768, Note_on_c, 0, 69, 78
2, 24945, Note_on_c, 0, 69, 0
2, 24960, Note_on_c, 0, 72, 78
2, 24990, Note_on_c, 0, 72, 0
2, 24992, Note_on_c, 0, 71, 78
2, 25022, Note_on_c, 0, 71, 0
2, 25024, Note_on_c, 0, 69, 78
2, 25054, Note_on_c, 0, 69, 0
2, 25056, Note_on_c, 0, 67, 78
2, 25145, Note_on_c, 0, 67, 0
2, 25344, Note_on_c, 0, 79, 78
2, 25356, Note_on_c, 0, 79, 0
2, 25356, Note_on_c, 0, 77, 78
2, 25368, Note_on_c, 0, 77, 0
2, 25368, Note_on_c, 0, 76, 78
2, 25380, Note_on_c, 0, 76, 0
2, 25380, Note_on_c, 0, 77, 78
2, 25433, Note_on_c, 0, 77, 0
2, 25632, Note_on_c, 0, 77, 78
2, 25644, Note_on_c, 0, 77, 0
2, 25644, Note_on_c, 0, 76, 78
2, 25656, Note_on_c, 0, 76, 0
2, 25656, Note_on_c, 0, 74, 78
2, 25668, Note_on_c, 0, 74, 0
2, 25668, Note_on_c, 0, 76, 78
2, 25721, Note_on_c, 0, 76, 0
2, 25920, Note_on_c, 0, 76, 78
2, 25965, Note_on_c, 0, 76, 0
2, 25968, Note_on_c, 0, 74, 78
2, 26013, Note_on_c, 0, 74, 0
2, 26016, Note_on_c, 0, 72, 78
2, 26105, Note_on_c, 0, 72, 0
2, 26112, Note_on_c, 0, 71, 78
2, 26125, Note_on_c, 0, 71, 0
2, 26126, Note_on_c, 0, 72, 78
2, 26139, Note_on_c, 0, 72, 0
2, 26140, Note_on_c, 0, 71, 78
2, 26153, Note_on_c, 0, 71, 0
2, 26154, Note_on_c, 0, 72, 78
2, 26167, Note_on_c, 0, 72, 0
2, 26168, Note_on_c, 0, 71, 78
2, 26181, Note_on_c, 0, 71, 0
2, 26182, Note_on_c, 0, 69, 78
2, 26194, Note_on_c, 0, 69, 0
2, 26195, Note_on_c, 0, 71, 78
2, 26207, Note_on_c, 0, 71, 0
2, 26208, Note_on_c, 0, 72, 78
2, 26385, Note_on_c, 0, 72, 0
2, 26496, Note_on_c, 0, 74, 78
2, 26673, Note_on_c, 0, 74, 0
2, 26688, Note_on_c, 0, 76, 78
2, 26718, Note_on_c, 0, 76, 0
2, 26720, Note_on_c, 0, 78, 78
2, 26750, Note_on_c, 0, 78, 0
2, 26752, Note_on_c, 0, 79, 78
2, 26782, Note_on_c, 0, 79, 0
2, 26784, Note_on_c, 0, 74, 78
2, 26873, Note_on_c, 0, 74, 0
2, 26880, Note_on_c, 0, 79, 78
2, 26910, Note_on_c, 0, 79, 0
2, 26912, Note_on_c, 0, 83, 78
2, 26942, Note_on_c, 0, 83, 0
2, 26944, Note_on_c, 0, 81, 78
2, 26974, Note_on_c, 0, 81, 0
2, 26976, Note_on_c, 0, 79, 78
2, 27006, Note_on_c, 0, 79, 0
2, 27008, Note_on_c, 0, 78, 78
2, 27038, Note_on_c, 0, 78, 0
2, 27040, Note_on_c, 0, 76, 78
2, 27070, Note_on_c, 0, 76, 0
2, 27072, Note_on_c, 0, 74, 78
2, 27249, Note_on_c, 0, 74, 0
2, 27264, Note_on_c, 0, 76, 78
2, 27294, Note_on_c, 0, 76, 0
2, 27296, Note_on_c, 0, 78, 78
2, 27326, Note_on_c, 0, 78, 0
2, 27328, Note_on_c, 0, 79, 78
2, 27358, Note_on_c, 0, 79, 0
2, 27360, Note_on_c, 0, 74, 78
2, 27449, Note_on_c, 0, 74, 0
2, 27696, Note_on_c, 0, 72, 78
2, 27741, Note_on_c, 0, 72, 0
2, 27744, Note_on_c, 0, 76, 78
2, 27789, Note_on_c, 0, 76, 0
2, 27792, Note_on_c, 0, 72, 78
2, 27837, Note_on_c, 0, 72, 0
2, 27840, Note_on_c, 0, 71, 78
2, 27852, Note_on_c, 0, 71, 0
2, 27852, Note_on_c, 0, 72, 78
2, 27864, Note_on_c, 0, 72, 0
2, 27864, Note_on_c, 0, 71, 78
2, 27876, Note_on_c, 0, 71, 0
2, 27876, Note_on_c, 0, 72, 78
2, 27888, Note_on_c, 0, 72, 0
2, 27888, Note_on_c, 0, 69, 78
2, 27933, Note_on_c, 0, 69, 0
2, 27984, Note_on_c, 0, 71, 78
2, 28029, Note_on_c, 0, 71, 0
2, 28032, Note_on_c, 0, 74, 78
2, 28077, Note_on_c, 0, 74, 0
2, 28080, Note_on_c, 0, 71, 78
2, 28125, Note_on_c, 0, 71, 0
2, 28128, Note_on_c, 0, 69, 78
2, 28140, Note_on_c, 0, 69, 0
2, 28140, Note_on_c, 0, 71, 78
2, 28152, Note_on_c, 0, 71, 0
2, 28152, Note_on_c, 0, 69, 78
2, 28164, Note_on_c, 0, 69, 0
2, 28164, Note_on_c, 0, 71, 78
2, 28176, Note_on_c, 0, 71, 0
2, 28176, Note_on_c, 0, 67, 78
2, 28221, Note_on_c, 0, 67, 0
2, 28224, Note_on_c, 0, 71, 78
2, 28269, Note_on_c, 0, 71, 0
2, 28272, Note_on_c, 0, 69, 78
2, 28317, Note_on_c, 0, 69, 0
2, 28320, Note_on_c, 0, 67, 78
2, 28409, Note_on_c, 0, 67, 0
2, 28416, Note_on_c, 0, 66, 78
2, 28429, Note_on_c, 0, 66, 0
2, 28430, Note_on_c, 0, 67, 78
2, 28443, Note_on_c, 0, 67, 0
2, 28444, Note_on_c, 0, 66, 78
2, 28457, Note_on_c, 0, 66, 0
2, 28458, Note_on_c, 0, 67, 78
2, 28471, Note_on_c, 0, 67, 0
2, 28472, Note_on_c, 0, 66, 78
2, 28485, Note_on_c, 0, 66, 0
2, 28486, Note_on_c, 0, 64, 78
2, 28498, Note_on_c, 0, 64, 0
2, 28499, Note_on_c, 0, 66, 78
2, 28511, Note_on_c, 0, 66, 0
2, 28512, Note_on_c, 0, 67, 78
2, 28689, Note_on_c, 0, 67, 0
2, 28800, Note_on_c, 0, 74, 78
2, 28977, Note_on_c, 0, 74, 0
2, 28992, Note_on_c, 0, 76, 78
2, 29022, Note_on_c, 0, 76, 0
2, 29024, Note_on_c, 0, 78, 78
2, 29054, Note_on_c, 0, 78, 0
2, 29056, Note_on_c, 0, 79, 78
2, 29086, Note_on_c, 0, 79, 0
2, 29088, Note_on_c, 0, 74, 78
2, 29177, Note_on_c, 0, 74, 0
2, 29184, Note_on_c, 0, 79, 78
2, 29214, Note_on_c, 0, 79, 0
2, 29216, Note_on_c, 0, 83, 78
2, 29246, Note_on_c, 0, 83, 0
2, 29248, Note_on_c, 0, 81, 78
2, 29278, Note_on_c, 0, 81, 0
2, 29280, Note_on_c, 0, 79, 78
2, 29310, Note_on_c, 0, 79, 0
2, 29312, Note_on_c, 0, 78, 78
2, 29342, Note_on_c, 0, 78, 0
2, 29344, Note_on_c, 0, 76, 78
2, 29374, Note_on_c, 0, 76, 0
2, 29376, Note_on_c, 0, 74, 78
2, 29553, Note_on_c, 0, 74, 0
2, 29568, Note_on_c, 0, 76, 78
2, 29598, Note_on_c, 0, 76, 0
2, 29600, Note_on_c, 0, 78, 78
2, 29630, Note_on_c, 0, 78, 0
2, 29632, Note_on_c, 0, 79, 78
2, 29662, Note_on_c, 0, 79, 0
2, 29664, Note_on_c, 0, 74, 78
2, 29753, Note_on_c, 0, 74, 0
2, 30000, Note_on_c, 0, 72, 78
2, 30045, Note_on_c, 0, 72, 0
2, 30048, Note_on_c, 0, 76, 78
2, 30093, Note_on_c, 0, 76, 0
2, 30096, Note_on_c, 0, 72, 78
2, 30141, Note_on_c, 0, 72, 0
2, 30144, Note_on_c, 0, 71, 78
2, 30156, Note_on_c, 0, 71, 0
2, 30156, Note_on_c, 0, 72, 78
2, 30168, Note_on_c, 0, 72, 0
2, 30168, Note_on_c, 0, 71, 78
2, 30180, Note_on_c, 0, 71, 0
2, 30180, Note_on_c, 0, 72, 78
2, 30192, Note_on_c, 0, 72, 0
2, 30192, Note_on_c, 0, 69, 78
2, 30237, Note_on_c, 0, 69, 0
2, 30288, Note_on_c, 0, 71, 78
2, 30333, Note_on_c, 0, 71, 0
2, 30336, Note_on_c, 0, 74, 78
2, 30381, Note_on_c, 0, 74, 0
2, 30384, Note_on_c, 0, 71, 78
2, 30429, Note_on_c, 0, 71, 0
2, 30432, Note_on_c, 0, 69, 78
2, 30444, Note_on_c, 0, 69, 0
2, 30444, Note_on_c, 0, 71, 78
2, 30456, Note_on_c, 0, 71, 0
2, 30456, Note_on_c, 0, 69, 78
2, 30468, Note_on_c, 0, 69, 0
2, 30468, Note_on_c, 0, 71, 78
2, 30480, Note_on_c, 0, 71, 0
2, 30480, Note_on_c, 0, 67, 78
2, 30525, Note_on_c, 0, 67, 0
2, 30528, Note_on_c, 0, 71, 78
2, 30573, Note_on_c, 0, 71, 0
2, 30576, Note_on_c, 0, 69, 78
2, 30621, Note_on_c, 0, 69, 0
2, 30624, Note_on_c, 0, 67, 78
2, 30713, Note_on_c, 0, 67, 0
2, 30720, Note_on_c, 0, 66, 78
2, 30733, Note_on_c, 0, 66, 0
2, 30734, Note_on_c, 0, 67, 78
2, 30747, Note_on_c, 0, 67, 0
2, 30748, Note_on_c, 0, 66, 78
2, 30761, Note_on_c, 0, 66, 0
2, 30762, Note_on_c, 0, 67, 78
2, 30775, Note_on_c, 0, 67, 0
2, 30776, Note_on_c, 0, 66, 78
2, 30789, Note_on_c, 0, 66, 0
2, 30790, Note_on_c, 0, 64, 78
2, 30802, Note_on_c, 0, 64, 0
2, 30803, Note_on_c, 0, 66, 78
2, 30815, Note_on_c, 0, 66, 0
2, 30816, Note_on_c, 0, 67, 78
2, 30993, Note_on_c, 0, 67, 0
2, 31104, Note_on_c, 0, 69, 78
2, 31104, Note_on_c, 0, 66, 78
2, 31281, Note_on_c, 0, 69, 0
2, 31281, Note_on_c, 0, 66, 0
2, 31296, Note_on_c, 0, 71, 78
2, 31296, Note_on_c, 0, 67, 78
2, 31385, Note_on_c, 0, 71, 0
2, 31385, Note_on_c, 0, 67, 0
2, 31392, Note_on_c, 0, 72, 94
2, 31392, Note_on_c, 0, 69, 94
2, 31488, Note_on_c, 0, 72, 0
2, 31488, Note_on_c, 0, 69, 0
2, 31488, Note_on_c, 0, 69, 78
2, 31488, Note_on_c, 0, 66, 78
2, 31577, Note_on_c, 0, 69, 0
2, 31577, Note_on_c, 0, 66, 0
2, 31680, Note_on_c, 0, 71, 78
2, 31680, Note_on_c, 0, 67, 78
2, 31857, Note_on_c, 0, 71, 0
2, 31857, Note_on_c, 0, 67, 0
2, 31872, Note_on_c, 0, 72, 78
2, 31872, Note_on_c, 0, 69, 78
2, 31961, Note_on_c, 0, 72, 0
2, 31961, Note_on_c, 0, 69, 0
2, 31968, Note_on_c, 0, 74, 94
2, 31968, Note_on_c, 0, 71, 94
2, 32064, Note_on_c, 0, 74, 0
2, 32064, Note_on_c, 0, 71, 0
2, 32064, Note_on_c, 0, 71, 78
2, 32064, Note_on_c, 0, 67, 78
2, 32153, Note_on_c, 0, 71, 0
2, 32153, Note_on_c, 0, 67, 0
2, 32256, Note_on_c, 0, 69, 78
2, 32256, Note_on_c, 0, 66, 78
2, 32345, Note_on_c, 0, 69, 0
2, 32345, Note_on_c, 0, 66, 0
2, 32352, Note_on_c, 0, 72, 78
2, 32352, Note_on_c, 0, 69, 78
2, 32441, Note_on_c, 0, 72, 0
2, 32441, Note_on_c, 0, 69, 0
2, 32448, Note_on_c, 0, 71, 78
2, 32448, Note_on_c, 0, 67, 78
2, 32537, Note_on_c, 0, 71, 0
2, 32537, Note_on_c, 0, 67, 0
2, 32544, Note_on_c, 0, 69, 78
2, 32544, Note_on_c, 0, 66, 78
2, 32633, Note_on_c, 0, 69, 0
2, 32633, Note_on_c, 0, 66, 0
2, 32832, Note_on_c, 0, 74, 78
2, 33009, Note_on_c, 0, 74, 0
2, 33024, Note_on_c, 0, 76, 78
2, 33054, Note_on_c, 0, 76, 0
2, 33056, Note_on_c, 0, 78, 78
2, 33086, Note_on_c, 0, 78, 0
2, 33088, Note_on_c, 0, 79, 78
2, 33118, Note_on_c, 0, 79, 0
2, 33120, Note_on_c, 0, 74, 78
2, 33209, Note_on_c, 0, 74, 0
2, 33216, Note_on_c, 0, 79, 78
2, 33246, Note_on_c, 0, 79, 0
2, 33248, Note_on_c, 0, 83, 78
2, 33278, Note_on_c, 0, 83, 0
2, 33280, Note_on_c, 0, 81, 78
2, 33310, Note_on_c, 0, 81, 0
2, 33312, Note_on_c, 0, 79, 78
2, 33342, Note_on_c, 0, 79, 0
2, 33344, Note_on_c, 0, 78, 78
2, 33374, Note_on_c, 0, 78, 0
2, 33376, Note_on_c, 0, 76, 78
2, 33406, Note_on_c, 0, 76, 0
2, 33408, Note_on_c, 0, 74, 78
2, 33585, Note_on_c, 0, 74, 0
2, 33600, Note_on_c, 0, 76, 78
2, 33630, Note_on_c, 0, 76, 0
2, 33632, Note_on_c, 0, 78, 78
2, 33662, Note_on_c, 0, 78, 0
2, 33664, Note_on_c, 0, 79, 78
2, 33694, Note_on_c, 0, 79, 0
2, 33696, Note_on_c, 0, 74, 78
2, 33785, Note_on_c, 0, 74, 0
2, 34032, Note_on_c, 0, 72, 78
2, 34077, Note_on_c, 0, 72, 0
2, 34080, Note_on_c, 0, 76, 78
2, 34125, Note_on_c, 0, 76, 0
2, 34128, Note_on_c, 0, 72, 78
2, 34173, Note_on_c, 0, 72, 0
2, 34176, Note_on_c, 0, 71, 78
2, 34188, Note_on_c, 0, 71, 0
2, 34188, Note_on_c, 0, 72, 78
2, 34200, Note_on_c, 0, 72, 0
2, 34200, Note_on_c, 0, 71, 78
2, 34212, Note_on_c, 0, 71, 0
2, 34212, Note_on_c, 0, 72, 78
2, 34224, Note_on_c, 0, 72, 0
2, 34224, Note_on_c, 0, 69, 78
2, 34269, Note_on_c, 0, 69, 0
2, 34320, Note_on_c, 0, 71, 78
2, 34365, Note_on_c, 0, 71, 0
2, 34368, Note_on_c, 0, 74, 78
2, 34413, Note_on_c, 0, 74, 0
2, 34416, Note_on_c, 0, 71, 78
2, 34461, Note_on_c, 0, 71, 0
2, 34464, Note_on_c, 0, 69, 78
2, 34476, Note_on_c, 0, 69, 0
2, 34476, Note_on_c, 0, 71, 78
2, 34488, Note_on_c, 0, 71, 0
2, 34488, Note_on_c, 0, 69, 78
2, 34500, Note_on_c, 0, 69, 0
2, 34500, Note_on_c, 0, 71, 78
2, 34512, Note_on_c, 0, 71, 0
2, 34512, Note_on_c, 0, 67, 78
2, 34557, Note_on_c, 0, 67, 0
2, 34560, Note_on_c, 0, 71, 78
2, 34605, Note_on_c, 0, 71, 0
2, 34608, Note_on_c, 0, 69, 78
2, 34653, Note_on_c, 0, 69, 0
2, 34656, Note_on_c, 0, 67, 78
2, 34745, Note_on_c, 0, 67, 0
2, 34752, Note_on_c, 0, 66, 78
2, 34765, Note_on_c, 0, 66, 0
2, 34766, Note_on_c, 0, 67, 78
2, 34779, Note_on_c, 0, 67, 0
2, 34780, Note_on_c, 0, 66, 78
2, 34793, Note_on_c, 0, 66, 0
2, 34794, Note_on_c, 0, 67, 78
2, 34807, Note_on_c, 0, 67, 0
2, 34808, Note_on_c, 0, 66, 78
2, 34821, Note_on_c, 0, 66, 0
2, 34822, Note_on_c, 0, 64, 78
2, 34834, Note_on_c, 0, 64, 0
2, 34835, Note_on_c, 0, 66, 78
2, 34847, Note_on_c, 0, 66, 0
2, 34848, Note_on_c, 0, 67, 78
2, 35025, Note_on_c, 0, 67, 0
2, 35136, Note_on_c, 0, 69, 78
2, 35136, Note_on_c, 0, 66, 78
2, 35313, Note_on_c, 0, 69, 0
2, 35313, Note_on_c, 0, 66, 0
2, 35328, Note_on_c, 0, 71, 78
2, 35328, Note_on_c, 0, 67, 78
2, 35417, Note_on_c, 0, 71, 0
2, 35417, Note_on_c, 0, 67, 0
2, 35424, Note_on_c, 0, 72, 94
2, 35424, Note_on_c, 0, 69, 94
2, 35520, Note_on_c, 0, 72, 0
2, 35520, Note_on_c, 0, 69, 0
2, 35520, Note_on_c, 0, 69, 78
2, 35520, Note_on_c, 0, 66, 78
2, 35609, Note_on_c, 0, 69, 0
2, 35609, Note_on_c, 0, 66, 0
2, 35712, Note_on_c, 0, 71, 78
2, 35712, Note_on_c, 0, 67, 78
2, 35889, Note_on_c, 0, 71, 0
2, 35889, Note_on_c, 0, 67, 0
2, 35904, Note_on_c, 0, 72, 78
2, 35904, Note_on_c, 0, 69, 78
2, 35993, Note_on_c, 0, 72, 0
2, 35993, Note_on_c, 0, 69, 0
2, 36000, Note_on_c, 0, 74, 94
2, 36000, Note_on_c, 0, 71, 94
2, 36096, Note_on_c, 0, 74, 0
2, 36096, Note_on_c, 0, 71, 0
2, 36096, Note_on_c, 0, 71, 78
2, 36096, Note_on_c, 0, 67, 78
2, 36185, Note_on_c, 0, 71, 0
2, 36185, Note_on_c, 0, 67, 0
2, 36288, Note_on_c, 0, 69, 78
2, 36288, Note_on_c, 0, 66, 78
2, 36377, Note_on_c, 0, 69, 0
2, 36377, Note_on_c, 0, 66, 0
2, 36384, Note_on_c, 0, 72, 78
2, 36384, Note_on_c, 0, 69, 78
2, 36473, Note_on_c, 0, 72, 0
2, 36473, Note_on_c, 0, 69, 0
2, 36480, Note_on_c, 0, 71, 78
2, 36480, Note_on_c, 0, 67, 78
2, 36569, Note_on_c, 0, 71, 0
2, 36569, Note_on_c, 0, 67, 0
2, 36576, Note_on_c, 0, 69, 78
2, 36576, Note_on_c, 0, 66, 78
2, 36665, Note_on_c, 0, 69, 0
2, 36665, Note_on_c, 0, 66, 0
2, 36864, Note_on_c, 0, 74, 78
2, 37041, Note_on_c, 0, 74, 0
2, 37056, Note_on_c, 0, 76, 78
2, 37086, Note_on_c, 0, 76, 0
2, 37088, Note_on_c, 0, 78, 78
2, 37118, Note_on_c, 0, 78, 0
2, 37120, Note_on_c, 0, 79, 78
2, 37150, Note_on_c, 0, 79, 0
2, 37152, Note_on_c, 0, 74, 78
2, 37241, Note_on_c, 0, 74, 0
2, 37248, Note_on_c, 0, 79, 78
2, 37278, Note_on_c, 0, 79, 0
2, 37280, Note_on_c, 0, 83, 78
2, 37310, Note_on_c, 0, 83, 0
2, 37312, Note_on_c, 0, 81, 78
2, 37342, Note_on_c, 0, 81, 0
2, 37344, Note_on_c, 0, 79, 78
2, 37374, Note_on_c, 0, 79, 0
2, 37376, Note_on_c, 0, 78, 78
2, 37406, Note_on_c, 0, 78, 0
2, 37408, Note_on_c, 0, 76, 78
2, 37438, Note_on_c, 0, 76, 0
2, 37440, Note_on_c, 0, 74, 78
2, 37617, Note_on_c, 0, 74, 0
2, 37632, Note_on_c, 0, 76, 78
2, 37662, Note_on_c, 0, 76, 0
2, 37664, Note_on_c, 0, 78, 78
2, 37694, Note_on_c, 0, 78, 0
2, 37696, Note_on_c, 0, 79, 78
2, 37726, Note_on_c, 0, 79, 0
2, 37728, Note_on_c, 0, 74, 78
2, 37817, Note_on_c, 0, 74, 0
2, 38064, Note_on_c, 0, 72, 78
2, 38109, Note_on_c, 0, 72, 0
2, 38112, Note_on_c, 0, 76, 78
2, 38157, Note_on_c, 0, 76, 0
2, 38160, Note_on_c, 0, 72, 78
2, 38205, Note_on_c, 0, 72, 0
2, 38208, Note_on_c, 0, 71, 78
2, 38220, Note_on_c, 0, 71, 0
2, 38220, Note_on_c, 0, 72, 78
2, 38232, Note_on_c, 0, 72, 0
2, 38232, Note_on_c, 0, 71, 78
2, 38244, Note_on_c, 0, 71, 0
2, 38244, Note_on_c, 0, 72, 78
2, 38256, Note_on_c, 0, 72, 0
2, 38256, Note_on_c, 0, 69, 78
2, 38301, Note_on_c, 0, 69, 0
2, 38352, Note_on_c, 0, 71, 78
2, 38397, Note_on_c, 0, 71, 0
2, 38400, Note_on_c, 0, 74, 78
2, 38445, Note_on_c, 0, 74, 0
2, 38448, Note_on_c, 0, 71, 78
2, 38493, Note_on_c, 0, 71, 0
2, 38496, Note_on_c, 0, 69, 78
2, 38508, Note_on_c, 0, 69, 0
2, 38508, Note_on_c, 0, 71, 78
2, 38520, Note_on_c, 0, 71, 0
2, 38520, Note_on_c, 0, 69, 78
2, 38532, Note_on_c, 0, 69, 0
2, 38532, Note_on_c, 0, 71, 78
2, 38544, Note_on_c, 0, 71, 0
2, 38544, Note_on_c, 0, 67, 78
2, 38589, Note_on_c, 0, 67, 0
2, 38592, Note_on_c, 0, 71, 78
2, 38637, Note_on_c, 0, 71, 0
2, 38640, Note_on_c, 0, 69, 78
2, 38685, Note_on_c, 0, 69, 0
2, 38688, Note_on_c, 0, 67, 78
2, 38777, Note_on_c, 0, 67, 0
2, 38784, Note_on_c, 0, 66, 78
2, 38797, Note_on_c, 0, 66, 0
2, 38798, Note_on_c, 0, 67, 78
2, 38811, Note_on_c, 0, 67, 0
2, 38812, Note_on_c, 0, 66, 78
2, 38825, Note_on_c, 0, 66, 0
2, 38826, Note_on_c, 0, 67, 78
2, 38839, Note_on_c, 0, 67, 0
2, 38840, Note_on_c, 0, 66, 78
2, 38853, Note_on_c, 0, 66, 0
2, 38854, Note_on_c, 0, 64, 78
2, 38866, Note_on_c, 0, 64, 0
2, 38867, Note_on_c, 0, 66, 78
2, 38879, Note_on_c, 0, 66, 0
2, 38880, Note_on_c, 0, 67, 78
2, 39057, Note_on_c, 0, 67, 0
2, 39456, End_track
3, 0, Start_track
3, 0, Program_c, 0, 0
3, 0, Control_c, 0, 7, 127
3, 0, Control_c, 0, 10, 64
3, 0, Note_on_c, 0, 71, 72
3, 0, Note_on_c, 0, 67, 72
3, 94, Note_on_c, 0, 71, 0
3, 94, Note_on_c, 0, 67, 0
3, 96, Note_on_c, 0, 71, 72
3, 96, Note_on_c, 0, 67, 72
3, 190, Note_on_c, 0, 71, 0
3, 190, Note_on_c, 0, 67, 0
3, 192, Note_on_c, 0, 72, 72
3, 192, Note_on_c, 0, 67, 72
3, 286, Note_on_c, 0, 72, 0
3, 286, Note_on_c, 0, 67, 0
3, 288, Note_on_c, 0, 71, 72
3, 288, Note_on_c, 0, 67, 72
3, 382, Note_on_c, 0, 71, 0
3, 382, Note_on_c, 0, 67, 0
3, 576, Note_on_c, 0, 71, 72
3, 576, Note_on_c, 0, 67, 72
3, 670, Note_on_c, 0, 71, 0
3, 670, Note_on_c, 0, 67, 0
3, 672, Note_on_c, 0, 71, 72
3, 672, Note_on_c, 0, 67, 72
3, 766, Note_on_c, 0, 71, 0
3, 766, Note_on_c, 0, 67, 0
3, 768, Note_on_c, 0, 72, 72
3, 768, Note_on_c, 0, 67, 72
3, 862, Note_on_c, 0, 72, 0
3, 862, Note_on_c, 0, 67, 0
3, 864, Note_on_c, 0, 71, 72
3, 864, Note_on_c, 0, 67, 72
3, 958, Note_on_c, 0, 71, 0
3, 958, Note_on_c, 0, 67, 0
3, 2304, Note_on_c, 0, 71, 72
3, 2304, Note_on_c, 0, 67, 72
3, 2398, Note_on_c, 0, 71, 0
3, 2398, Note_on_c, 0, 67, 0
3, 2400, Note_on_c, 0, 71, 72
3, 2400, Note_on_c, 0, 67, 72
3, 2494, Note_on_c, 0, 71, 0
3, 2494, Note_on_c, 0, 67, 0
3, 2496, Note_on_c, 0, 72, 72
3, 2496, Note_on_c, 0, 67, 72
3, 2590, Note_on_c, 0, 72, 0
3, 2590, Note_on_c, 0, 67, 0
3, 2592, Note_on_c, 0, 71, 72
3, 2592, Note_on_c, 0, 67, 72
3, 2686, Note_on_c, 0, 71, 0
3, 2686, Note_on_c, 0, 67, 0
3, 2880, Note_on_c, 0, 71, 72
3, 2880, Note_on_c, 0, 67, 72
3, 2974, Note_on_c, 0, 71, 0
3, 2974, Note_on_c, 0, 67, 0
3, 2976, Note_on_c, 0, 71, 72
3, 2976, Note_on_c, 0, 67, 72
3, 3070, Note_on_c, 0, 71, 0
3, 3070, Note_on_c, 0, 67, 0
3, 3072, Note_on_c, 0, 72, 72
3, 3072, Note_on_c, 0, 67, 72
3, 3166, Note_on_c, 0, 72, 0
3, 3166, Note_on_c, 0, 67, 0
3, 3168, Note_on_c, 0, 71, 72
3, 3168, Note_on_c, 0, 67, 72
3, 3262, Note_on_c, 0, 71, 0
3, 3262, Note_on_c, 0, 67, 0
3, 6336, Note_on_c, 0, 71, 72
3, 6336, Note_on_c, 0, 67, 72
3, 6430, Note_on_c, 0, 71, 0
3, 6430, Note_on_c, 0, 67, 0
3, 6432, Note_on_c, 0, 71, 72
3, 6432, Note_on_c, 0, 67, 72
3, 6526, Note_on_c, 0, 71, 0
3, 6526, Note_on_c, 0, 67, 0
3, 6528, Note_on_c, 0, 72, 72
3, 6528, Note_on_c, 0, 67, 72
3, 6622, Note_on_c, 0, 72, 0
3, 6622, Note_on_c, 0, 67, 0
3, 6624, Note_on_c, 0, 71, 72
3, 6624, Note_on_c, 0, 67, 72
3, 6718, Note_on_c, 0, 71, 0
3, 6718, Note_on_c, 0, 67, 0
3, 6912, Note_on_c, 0, 71, 72
3, 6912, Note_on_c, 0, 67, 72
3, 7006, Note_on_c, 0, 71, 0
3, 7006, Note_on_c, 0, 67, 0
3, 7008, Note_on_c, 0, 71, 72
3, 7008, Note_on_c, 0, 67, 72
3, 7102, Note_on_c, 0, 71, 0
3, 7102, Note_on_c, 0, 67, 0
3, 7104, Note_on_c, 0, 72, 72
3, 7104, Note_on_c, 0, 67, 72
3, 7198, Note_on_c, 0, 72, 0
3, 7198, Note_on_c, 0, 67, 0
3, 7200, Note_on_c, 0, 71, 72
3, 7200, Note_on_c, 0, 67, 72
3, 7294, Note_on_c, 0, 71, 0
3, 7294, Note_on_c, 0, 67, 0
3, 10368, Note_on_c, 0, 71, 72
3, 10368, Note_on_c, 0, 67, 72
3, 10462, Note_on_c, 0, 71, 0
3, 10462, Note_on_c, 0, 67, 0
3, 10464, Note_on_c, 0, 71, 72
3, 10464, Note_on_c, 0, 67, 72
3, 10558, Note_on_c, 0, 71, 0
3, 10558, Note_on_c, 0, 67, 0
3, 10560, Note_on_c, 0, 72, 72
3, 10560, Note_on_c, 0, 67, 72
3, 10654, Note_on_c, 0, 72, 0
3, 10654, Note_on_c, 0, 67, 0
3, 10656, Note_on_c, 0, 71, 72
3, 10656, Note_on_c, 0, 67, 72
3, 10750, Note_on_c, 0, 71, 0
3, 10750, Note_on_c, 0, 67, 0
3, 10944, Note_on_c, 0, 71, 72
3, 10944, Note_on_c, 0, 67, 72
3, 11038, Note_on_c, 0, 71, 0
3, 11038, Note_on_c, 0, 67, 0
3, 11040, Note_on_c, 0, 71, 72
3, 11040, Note_on_c, 0, 67, 72
3, 11134, Note_on_c, 0, 71, 0
3, 11134, Note_on_c, 0, 67, 0
3, 11136, Note_on_c, 0, 72, 72
3, 11136, Note_on_c, 0, 67, 72
3, 11230, Note_on_c, 0, 72, 0
3, 11230, Note_on_c, 0, 67, 0
3, 11232, Note_on_c, 0, 71, 72
3, 11232, Note_on_c, 0, 67, 72
3, 11326, Note_on_c, 0, 71, 0
3, 11326, Note_on_c, 0, 67, 0
3, 12960, Note_on_c, 0, 64, 72
3, 12960, Note_on_c, 0, 60, 72
3, 13054, Note_on_c, 0, 64, 0
3, 13054, Note_on_c, 0, 60, 0
3, 13056, Note_on_c, 0, 64, 72
3, 13056, Note_on_c, 0, 60, 72
3, 13150, Note_on_c, 0, 64, 0
3, 13150, Note_on_c, 0, 60, 0
3, 13152, Note_on_c, 0, 64, 72
3, 13152, Note_on_c, 0, 60, 72
3, 13246, Note_on_c, 0, 64, 0
3, 13246, Note_on_c, 0, 60, 0
3, 13248, Note_on_c, 0, 65, 72
3, 13248, Note_on_c, 0, 60, 72
3, 13342, Note_on_c, 0, 65, 0
3, 13342, Note_on_c, 0, 60, 0
3, 13344, Note_on_c, 0, 65, 72
3, 13344, Note_on_c, 0, 60, 72
3, 13438, Note_on_c, 0, 65, 0
3, 13438, Note_on_c, 0, 60, 0
3, 13440, Note_on_c, 0, 65, 72
3, 13440, Note_on_c, 0, 60, 72
3, 13534, Note_on_c, 0, 65, 0
3, 13534, Note_on_c, 0, 60, 0
3, 13536, Note_on_c, 0, 64, 72
3, 13536, Note_on_c, 0, 60, 72
3, 13630, Note_on_c, 0, 64, 0
3, 13630, Note_on_c, 0, 60, 0
3, 13920, Note_on_c, 0, 67, 72
3, 13920, Note_on_c, 0, 59, 72
3, 13959, Note_on_c, 0, 67, 0
3, 13959, Note_on_c, 0, 59, 0
3, 14016, Note_on_c, 0, 67, 72
3, 14016, Note_on_c, 0, 59, 72
3, 14110, Note_on_c, 0, 67, 0
3, 14110, Note_on_c, 0, 59, 0
3, 14208, Note_on_c, 0, 67, 72
3, 14208, Note_on_c, 0, 60, 72
3, 14247, Note_on_c, 0, 67, 0
3, 14247, Note_on_c, 0, 60, 0
3, 14304, Note_on_c, 0, 67, 72
3, 14304, Note_on_c, 0, 60, 72
3, 14398, Note_on_c, 0, 67, 0
3, 14398, Note_on_c, 0, 60, 0
3, 14400, Note_on_c, 0, 65, 72
3, 14489, Note_on_c, 0, 65, 0
3, 14496, Note_on_c, 0, 67, 72
3, 14585, Note_on_c, 0, 67, 0
3, 14592, Note_on_c, 0, 55, 72
3, 14681, Note_on_c, 0, 55, 0
3, 15264, Note_on_c, 0, 64, 72
3, 15264, Note_on_c, 0, 60, 72
3, 15358, Note_on_c, 0, 64, 0
3, 15358, Note_on_c, 0, 60, 0
3, 15360, Note_on_c, 0, 64, 72
3, 15360, Note_on_c, 0, 60, 72
3, 15454, Note_on_c, 0, 64, 0
3, 15454, Note_on_c, 0, 60, 0
3, 15456, Note_on_c, 0, 64, 72
3, 15456, Note_on_c, 0, 60, 72
3, 15550, Note_on_c, 0, 64, 0
3, 15550, Note_on_c, 0, 60, 0
3, 15552, Note_on_c, 0, 65, 72
3, 15552, Note_on_c, 0, 60, 72
3, 15646, Note_on_c, 0, 65, 0
3, 15646, Note_on_c, 0, 60, 0
3, 15648, Note_on_c, 0, 65, 72
3, 15648, Note_on_c, 0, 60, 72
3, 15742, Note_on_c, 0, 65, 0
3, 15742, Note_on_c, 0, 60, 0
3, 15744, Note_on_c, 0, 65, 72
3, 15744, Note_on_c, 0, 60, 72
3, 15838, Note_on_c, 0, 65, 0
3, 15838, Note_on_c, 0, 60, 0
3, 15840, Note_on_c, 0, 64, 72
3, 15840, Note_on_c, 0, 60, 72
3, 15934, Note_on_c, 0, 64, 0
3, 15934, Note_on_c, 0, 60, 0
3, 16224, Note_on_c, 0, 67, 72
3, 16224, Note_on_c, 0, 59, 72
3, 16263, Note_on_c, 0, 67, 0
3, 16263, Note_on_c, 0, 59, 0
3, 16320, Note_on_c, 0, 67, 72
3, 16320, Note_on_c, 0, 59, 72
3, 16414, Note_on_c, 0, 67, 0
3, 16414, Note_on_c, 0, 59, 0
3, 16512, Note_on_c, 0, 67, 72
3, 16512, Note_on_c, 0, 60, 72
3, 16551, Note_on_c, 0, 67, 0
3, 16551, Note_on_c, 0, 60, 0
3, 16608, Note_on_c, 0, 67, 72
3, 16608, Note_on_c, 0, 60, 72
3, 16702, Note_on_c, 0, 67, 0
3, 16702, Note_on_c, 0, 60, 0
3, 16704, Note_on_c, 0, 65, 72
3, 16793, Note_on_c, 0, 65, 0
3, 16800, Note_on_c, 0, 67, 72
3, 16889, Note_on_c, 0, 67, 0
3, 16896, Note_on_c, 0, 55, 72
3, 16985, Note_on_c, 0, 55, 0
3, 18240, Note_on_c, 0, 67, 72
3, 18240, Note_on_c, 0, 60, 72
3, 18279, Note_on_c, 0, 67, 0
3, 18279, Note_on_c, 0, 60, 0
3, 18336, Note_on_c, 0, 67, 72
3, 18336, Note_on_c, 0, 60, 72
3, 18430, Note_on_c, 0, 67, 0
3, 18430, Note_on_c, 0, 60, 0
3, 18432, Note_on_c, 0, 65, 72
3, 18521, Note_on_c, 0, 65, 0
3, 18720, Note_on_c, 0, 65, 73
3, 18809, Note_on_c, 0, 65, 0
3, 19008, Note_on_c, 0, 65, 76
3, 19200, Note_on_c, 0, 65, 0
3, 19200, Note_on_c, 0, 66, 78
3, 19289, Note_on_c, 0, 66, 0
3, 19296, Note_on_c, 0, 67, 78
3, 19385, Note_on_c, 0, 67, 0
3, 19392, Note_on_c, 0, 62, 76
3, 19481, Note_on_c, 0, 62, 0
3, 19488, Note_on_c, 0, 55, 74
3, 19577, Note_on_c, 0, 55, 0
3, 19872, Note_on_c, 0, 64, 72
3, 19872, Note_on_c, 0, 60, 72
3, 19966, Note_on_c, 0, 64, 0
3, 19966, Note_on_c, 0, 60, 0
3, 19968, Note_on_c, 0, 64, 72
3, 19968, Note_on_c, 0, 60, 72
3, 20062, Note_on_c, 0, 64, 0
3, 20062, Note_on_c, 0, 60, 0
3, 20064, Note_on_c, 0, 64, 72
3, 20064, Note_on_c, 0, 60, 72
3, 20158, Note_on_c, 0, 64, 0
3, 20158, Note_on_c, 0, 60, 0
3, 20160, Note_on_c, 0, 65, 72
3, 20160, Note_on_c, 0, 60, 72
3, 20254, Note_on_c, 0, 65, 0
3, 20254, Note_on_c, 0, 60, 0
3, 20256, Note_on_c, 0, 65, 72
3, 20256, Note_on_c, 0, 60, 72
3, 20350, Note_on_c, 0, 65, 0
3, 20350, Note_on_c, 0, 60, 0
3, 20352, Note_on_c, 0, 65, 72
3, 20352, Note_on_c, 0, 60, 72
3, 20446, Note_on_c, 0, 65, 0
3, 20446, Note_on_c, 0, 60, 0
3, 20448, Note_on_c, 0, 64, 72
3, 20448, Note_on_c, 0, 60, 72
3, 20542, Note_on_c, 0, 64, 0
3, 20542, Note_on_c, 0, 60, 0
3, 20832, Note_on_c, 0, 67, 72
3, 20832, Note_on_c, 0, 59, 72
3, 20871, Note_on_c, 0, 67, 0
3, 20871, Note_on_c, 0, 59, 0
3, 20928, Note_on_c, 0, 67, 72
3, 20928, Note_on_c, 0, 59, 72
3, 21022, Note_on_c, 0, 67, 0
3, 21022, Note_on_c, 0, 59, 0
3, 21120, Note_on_c, 0, 67, 72
3, 21120, Note_on_c, 0, 60, 72
3, 21159, Note_on_c, 0, 67, 0
3, 21159, Note_on_c, 0, 60, 0
3, 21216, Note_on_c, 0, 67, 72
3, 21216, Note_on_c, 0, 60, 72
3, 21310, Note_on_c, 0, 67, 0
3, 21310, Note_on_c, 0, 60, 0
3, 21312, Note_on_c, 0, 65, 72
3, 21401, Note_on_c, 0, 65, 0
3, 21408, Note_on_c, 0, 67, 72
3, 21497, Note_on_c, 0, 67, 0
3, 21504, Note_on_c, 0, 55, 72
3, 21593, Note_on_c, 0, 55, 0
3, 22848, Note_on_c, 0, 67, 72
3, 22848, Note_on_c, 0, 60, 72
3, 22887, Note_on_c, 0, 67, 0
3, 22887, Note_on_c, 0, 60, 0
3, 22944, Note_on_c, 0, 67, 72
3, 22944, Note_on_c, 0, 60, 72
3, 23038, Note_on_c, 0, 67, 0
3, 23038, Note_on_c, 0, 60, 0
3, 23040, Note_on_c, 0, 65, 72
3, 23129, Note_on_c, 0, 65, 0
3, 23328, Note_on_c, 0, 65, 73
3, 23417, Note_on_c, 0, 65, 0
3, 23616, Note_on_c, 0, 65, 76
3, 23808, Note_on_c, 0, 65, 0
3, 23808, Note_on_c, 0, 66, 78
3, 23897, Note_on_c, 0, 66, 0
3, 23904, Note_on_c, 0, 67, 78
3, 23993, Note_on_c, 0, 67, 0
3, 24000, Note_on_c, 0, 62, 76
3, 24089, Note_on_c, 0, 62, 0
3, 24096, Note_on_c, 0, 55, 74
3, 24185, Note_on_c, 0, 55, 0
3, 24480, Note_on_c, 0, 64, 72
3, 24480, Note_on_c, 0, 60, 72
3, 24574, Note_on_c, 0, 64, 0
3, 24574, Note_on_c, 0, 60, 0
3, 24576, Note_on_c, 0, 64, 72
3, 24576, Note_on_c, 0, 60, 72
3, 24670, Note_on_c, 0, 64, 0
3, 24670, Note_on_c, 0, 60, 0
3, 24672, Note_on_c, 0, 64, 72
3, 24672, Note_on_c, 0, 60, 72
3, 24766, Note_on_c, 0, 64, 0
3, 24766, Note_on_c, 0, 60, 0
3, 24768, Note_on_c, 0, 65, 72
3, 24768, Note_on_c, 0, 60, 72
3, 24862, Note_on_c, 0, 65, 0
3, 24862, Note_on_c, 0, 60, 0
3, 24864, Note_on_c, 0, 65, 72
3, 24864, Note_on_c, 0, 60, 72
3, 24958, Note_on_c, 0, 65, 0
3, 24958, Note_on_c, 0, 60, 0
3, 24960, Note_on_c, 0, 65, 72
3, 24960, Note_on_c, 0, 60, 72
3, 25054, Note_on_c, 0, 65, 0
3, 25054, Note_on_c, 0, 60, 0
3, 25056, Note_on_c, 0, 64, 72
3, 25056, Note_on_c, 0, 60, 72
3, 25150, Note_on_c, 0, 64, 0
3, 25150, Note_on_c, 0, 60, 0
3, 25440, Note_on_c, 0, 67, 72
3, 25440, Note_on_c, 0, 59, 72
3, 25479, Note_on_c, 0, 67, 0
3, 25479, Note_on_c, 0, 59, 0
3, 25536, Note_on_c, 0, 67, 72
3, 25536, Note_on_c, 0, 59, 72
3, 25630, Note_on_c, 0, 67, 0
3, 25630, Note_on_c, 0, 59, 0
3, 25728, Note_on_c, 0, 67, 72
3, 25728, Note_on_c, 0, 60, 72
3, 25767, Note_on_c, 0, 67, 0
3, 25767, Note_on_c, 0, 60, 0
3, 25824, Note_on_c, 0, 67, 72
3, 25824, Note_on_c, 0, 60, 72
3, 25918, Note_on_c, 0, 67, 0
3, 25918, Note_on_c, 0, 60, 0
3, 25920, Note_on_c, 0, 65, 72
3, 26009, Note_on_c, 0, 65, 0
3, 26016, Note_on_c, 0, 67, 72
3, 26105, Note_on_c, 0, 67, 0
3, 26112, Note_on_c, 0, 55, 72
3, 26201, Note_on_c, 0, 55, 0
3, 26496, Note_on_c, 0, 71, 72
3, 26496, Note_on_c, 0, 67, 72
3, 26590, Note_on_c, 0, 71, 0
3, 26590, Note_on_c, 0, 67, 0
3, 26592, Note_on_c, 0, 71, 72
3, 26592, Note_on_c, 0, 67, 72
3, 26686, Note_on_c, 0, 71, 0
3, 26686, Note_on_c, 0, 67, 0
3, 26688, Note_on_c, 0, 72, 72
3, 26688, Note_on_c, 0, 67, 72
3, 26782, Note_on_c, 0, 72, 0
3, 26782, Note_on_c, 0, 67, 0
3, 26784, Note_on_c, 0, 71, 72
3, 26784, Note_on_c, 0, 67, 72
3, 26878, Note_on_c, 0, 71, 0
3, 26878, Note_on_c, 0, 67, 0
3, 27072, Note_on_c, 0, 71, 72
3, 27072, Note_on_c, 0, 67, 72
3, 27166, Note_on_c, 0, 71, 0
3, 27166, Note_on_c, 0, 67, 0
3, 27168, Note_on_c, 0, 71, 72
3, 27168, Note_on_c, 0, 67, 72
3, 27262, Note_on_c, 0, 71, 0
3, 27262, Note_on_c, 0, 67, 0
3, 27264, Note_on_c, 0, 72, 72
3, 27264, Note_on_c, 0, 67, 72
3, 27358, Note_on_c, 0, 72, 0
3, 27358, Note_on_c, 0, 67, 0
3, 27360, Note_on_c, 0, 71, 72
3, 27360, Note_on_c, 0, 67, 72
3, 27454, Note_on_c, 0, 71, 0
3, 27454, Note_on_c, 0, 67, 0
3, 28800, Note_on_c, 0, 71, 72
3, 28800, Note_on_c, 0, 67, 72
3, 28894, Note_on_c, 0, 71, 0
3, 28894, Note_on_c, 0, 67, 0
3, 28896, Note_on_c, 0, 71, 72
3, 28896, Note_on_c, 0, 67, 72
3, 28990, Note_on_c, 0, 71, 0
3, 28990, Note_on_c, 0, 67, 0
3, 28992, Note_on_c, 0, 72, 72
3, 28992, Note_on_c, 0, 67, 72
3, 29086, Note_on_c, 0, 72, 0
3, 29086, Note_on_c, 0, 67, 0
3, 29088, Note_on_c, 0, 71, 72
3, 29088, Note_on_c, 0, 67, 72
3, 29182, Note_on_c, 0, 71, 0
3, 29182, Note_on_c, 0, 67, 0
3, 29376, Note_on_c, 0, 71, 72
3, 29376, Note_on_c, 0, 67, 72
3, 29470, Note_on_c, 0, 71, 0
3, 29470, Note_on_c, 0, 67, 0
3, 29472, Note_on_c, 0, 71, 72
3, 29472, Note_on_c, 0, 67, 72
3, 29566, Note_on_c, 0, 71, 0
3, 29566, Note_on_c, 0, 67, 0
3, 29568, Note_on_c, 0, 72, 72
3, 29568, Note_on_c, 0, 67, 72
3, 29662, Note_on_c, 0, 72, 0
3, 29662, Note_on_c, 0, 67, 0
3, 29664, Note_on_c, 0, 71, 72
3, 29664, Note_on_c, 0, 67, 72
3, 29758, Note_on_c, 0, 71, 0
3, 29758, Note_on_c, 0, 67, 0
3, 32832, Note_on_c, 0, 71, 72
3, 32832, Note_on_c, 0, 67, 72
3, 32926, Note_on_c, 0, 71, 0
3, 32926, Note_on_c, 0, 67, 0
3, 32928, Note_on_c, 0, 71, 72
3, 32928, Note_on_c, 0, 67, 72
3, 33022, Note_on_c, 0, 71, 0
3, 33022, Note_on_c, 0, 67, 0
3, 33024, Note_on_c, 0, 72, 72
3, 33024, Note_on_c, 0, 67, 72
3, 33118, Note_on_c, 0, 72, 0
3, 33118, Note_on_c, 0, 67, 0
3, 33120, Note_on_c, 0, 71, 72
3, 33120, Note_on_c, 0, 67, 72
3, 33214, Note_on_c, 0, 71, 0
3, 33214, Note_on_c, 0, 67, 0
3, 33408, Note_on_c, 0, 71, 72
3, 33408, Note_on_c, 0, 67, 72
3, 33502, Note_on_c, 0, 71, 0
3, 33502, Note_on_c, 0, 67, 0
3, 33504, Note_on_c, 0, 71, 72
3, 33504, Note_on_c, 0, 67, 72
3, 33598, Note_on_c, 0, 71, 0
3, 33598, Note_on_c, 0, 67, 0
3, 33600, Note_on_c, 0, 72, 72
3, 33600, Note_on_c, 0, 67, 72
3, 33694, Note_on_c, 0, 72, 0
3, 33694, Note_on_c, 0, 67, 0
3, 33696, Note_on_c, 0, 71, 72
3, 33696, Note_on_c, 0, 67, 72
3, 33790, Note_on_c, 0, 71, 0
3, 33790, Note_on_c, 0, 67, 0
3, 36864, Note_on_c, 0, 71, 72
3, 36864, Note_on_c, 0, 67, 72
3, 36958, Note_on_c, 0, 71, 0
3, 36958, Note_on_c, 0, 67, 0
3, 36960, Note_on_c, 0, 71, 72
3, 36960, Note_on_c, 0, 67, 72
3, 37054, Note_on_c, 0, 71, 0
3, 37054, Note_on_c, 0, 67, 0
3, 37056, Note_on_c, 0, 72, 72
3, 37056, Note_on_c, 0, 67, 72
3, 37150, Note_on_c, 0, 72, 0
3, 37150, Note_on_c, 0, 67, 0
3, 37152, Note_on_c, 0, 71, 72
3, 37152, Note_on_c, 0, 67, 72
3, 37246, Note_on_c, 0, 71, 0
3, 37246, Note_on_c, 0, 67, 0
3, 37440, Note_on_c, 0, 71, 72
3, 37440, Note_on_c, 0, 67, 72
3, 37534, Note_on_c, 0, 71, 0
3, 37534, Note_on_c, 0, 67, 0
3, 37536, Note_on_c, 0, 71, 72
3, 37536, Note_on_c, 0, 67, 72
3, 37630, Note_on_c, 0, 71, 0
3, 37630, Note_on_c, 0, 67, 0
3, 37632, Note_on_c, 0, 72, 72
3, 37632, Note_on_c, 0, 67, 72
3, 37726, Note_on_c, 0, 72, 0
3, 37726, Note_on_c, 0, 67, 0
3, 37728, Note_on_c, 0, 71, 72
3, 37728, Note_on_c, 0, 67, 72
3, 37822, Note_on_c, 0, 71, 0
3, 37822, Note_on_c, 0, 67, 0
3, 39456, End_track
4, 0, Start_track
4, 0, Program_c, 0, 0
4, 0, Control_c, 0, 7, 127
4, 0, Control_c, 0, 10, 64
4, 1152, Note_on_c, 0, 54, 64
4, 1241, Note_on_c, 0, 54, 0
4, 1440, Note_on_c, 0, 55, 64
4, 1529, Note_on_c, 0, 55, 0
4, 1728, Note_on_c, 0, 60, 64
4, 1817, Note_on_c, 0, 60, 0
4, 1824, Note_on_c, 0, 62, 64
4, 1913, Note_on_c, 0, 62, 0
4, 1920, Note_on_c, 0, 50, 64
4, 2009, Note_on_c, 0, 50, 0
4, 2016, Note_on_c, 0, 55, 64
4, 2105, Note_on_c, 0, 55, 0
4, 2112, Note_on_c, 0, 50, 64
4, 2201, Note_on_c, 0, 50, 0
4, 2208, Note_on_c, 0, 43, 64
4, 2297, Note_on_c, 0, 43, 0
4, 3456, Note_on_c, 0, 54, 64
4, 3545, Note_on_c, 0, 54, 0
4, 3744, Note_on_c, 0, 55, 64
4, 3833, Note_on_c, 0, 55, 0
4, 4032, Note_on_c, 0, 60, 64
4, 4121, Note_on_c, 0, 60, 0
4, 4128, Note_on_c, 0, 62, 64
4, 4217, Note_on_c, 0, 62, 0
4, 4224, Note_on_c, 0, 50, 64
4, 4313, Note_on_c, 0, 50, 0
4, 4320, Note_on_c, 0, 55, 64
4, 4409, Note_on_c, 0, 55, 0
4, 4416, Note_on_c, 0, 50, 64
4, 4505, Note_on_c, 0, 50, 0
4, 4512, Note_on_c, 0, 43, 64
4, 4601, Note_on_c, 0, 43, 0
4, 4608, Note_on_c, 0, 38, 64
4, 4653, Note_on_c, 0, 38, 0
4, 4656, Note_on_c, 0, 50, 64
4, 4701, Note_on_c, 0, 50, 0
4, 4704, Note_on_c, 0, 38, 64
4, 4749, Note_on_c, 0, 38, 0
4, 4752, Note_on_c, 0, 50, 64
4, 4797, Note_on_c, 0, 50, 0
4, 4800, Note_on_c, 0, 38, 64
4, 4845, Note_on_c, 0, 38, 0
4, 4848, Note_on_c, 0, 50, 64
4, 4893, Note_on_c, 0, 50, 0
4, 4896, Note_on_c, 0, 38, 64
4, 4941, Note_on_c, 0, 38, 0
4, 4944, Note_on_c, 0, 50, 64
4, 4989, Note_on_c, 0, 50, 0
4, 4992, Note_on_c, 0, 38, 64
4, 5037, Note_on_c, 0, 38, 0
4, 5040, Note_on_c, 0, 50, 64
4, 5085, Note_on_c, 0, 50, 0
4, 5088, Note_on_c, 0, 38, 64
4, 5133, Note_on_c, 0, 38, 0
4, 5136, Note_on_c, 0, 50, 64
4, 5181, Note_on_c, 0, 50, 0
4, 5184, Note_on_c, 0, 38, 64
4, 5229, Note_on_c, 0, 38, 0
4, 5232, Note_on_c, 0, 50, 64
4, 5277, Note_on_c, 0, 50, 0
4, 5280, Note_on_c, 0, 38, 64
4, 5325, Note_on_c, 0, 38, 0
4, 5328, Note_on_c, 0, 50, 64
4, 5373, Note_on_c, 0, 50, 0
4, 5376, Note_on_c, 0, 38, 64
4, 5421, Note_on_c, 0, 38, 0
4, 5424, Note_on_c, 0, 50, 64
4, 5469, Note_on_c, 0, 50, 0
4, 5472, Note_on_c, 0, 38, 64
4, 5517, Note_on_c, 0, 38, 0
4, 5520, Note_on_c, 0, 50, 64
4, 5565, Note_on_c, 0, 50, 0
4, 5568, Note_on_c, 0, 38, 64
4, 5613, Note_on_c, 0, 38, 0
4, 5616, Note_on_c, 0, 50, 64
4, 5661, Note_on_c, 0, 50, 0
4, 5664, Note_on_c, 0, 38, 64
4, 5709, Note_on_c, 0, 38, 0
4, 5712, Note_on_c, 0, 50, 64
4, 5757, Note_on_c, 0, 50, 0
4, 5760, Note_on_c, 0, 38, 64
4, 5805, Note_on_c, 0, 38, 0
4, 5808, Note_on_c, 0, 50, 64
4, 5853, Note_on_c, 0, 50, 0
4, 5856, Note_on_c, 0, 38, 64
4, 5901, Note_on_c, 0, 38, 0
4, 5904, Note_on_c, 0, 50, 64
4, 5949, Note_on_c, 0, 50, 0
4, 5952, Note_on_c, 0, 38, 64
4, 5997, Note_on_c, 0, 38, 0
4, 6000, Note_on_c, 0, 50, 64
4, 6045, Note_on_c, 0, 50, 0
4, 6048, Note_on_c, 0, 38, 64
4, 6137, Note_on_c, 0, 38, 0
4, 7488, Note_on_c, 0, 54, 64
4, 7577, Note_on_c, 0, 54, 0
4, 7776, Note_on_c, 0, 55, 64
4, 7865, Note_on_c, 0, 55, 0
4, 8064, Note_on_c, 0, 60, 64
4, 8153, Note_on_c, 0, 60, 0
4, 8160, Note_on_c, 0, 62, 64
4, 8249, Note_on_c, 0, 62, 0
4, 8256, Note_on_c, 0, 50, 64
4, 8345, Note_on_c, 0, 50, 0
4, 8352, Note_on_c, 0, 55, 64
4, 8441, Note_on_c, 0, 55, 0
4, 8448, Note_on_c, 0, 50, 64
4, 8537, Note_on_c, 0, 50, 0
4, 8544, Note_on_c, 0, 43, 64
4, 8633, Note_on_c, 0, 43, 0
4, 8640, Note_on_c, 0, 38, 64
4, 8685, Note_on_c, 0, 38, 0
4, 8688, Note_on_c, 0, 50, 64
4, 8733, Note_on_c, 0, 50, 0
4, 8736, Note_on_c, 0, 38, 64
4, 8781, Note_on_c, 0, 38, 0
4, 8784, Note_on_c, 0, 50, 64
4, 8829, Note_on_c, 0, 50, 0
4, 8832, Note_on_c, 0, 38, 64
4, 8877, Note_on_c, 0, 38, 0
4, 8880, Note_on_c, 0, 50, 64
4, 8925, Note_on_c, 0, 50, 0
4, 8928, Note_on_c, 0, 38, 64
4, 8973, Note_on_c, 0, 38, 0
4, 8976, Note_on_c, 0, 50, 64
4, 9021, Note_on_c, 0, 50, 0
4, 9024, Note_on_c, 0, 38, 64
4, 9069, Note_on_c, 0, 38, 0
4, 9072, Note_on_c, 0, 50, 64
4, 9117, Note_on_c, 0, 50, 0
4, 9120, Note_on_c, 0, 38, 64
4, 9165, Note_on_c, 0, 38, 0
4, 9168, Note_on_c, 0, 50, 64
4, 9213, Note_on_c, 0, 50, 0
4, 9216, Note_on_c, 0, 38, 64
4, 9261, Note_on_c, 0, 38, 0
4, 9264, Note_on_c, 0, 50, 64
4, 9309, Note_on_c, 0, 50, 0
4, 9312, Note_on_c, 0, 38, 64
4, 9357, Note_on_c, 0, 38, 0
4, 9360, Note_on_c, 0, 50, 64
4, 9405, Note_on_c, 0, 50, 0
4, 9408, Note_on_c, 0, 38, 64
4, 9453, Note_on_c, 0, 38, 0
4, 9456, Note_on_c, 0, 50, 64
4, 9501, Note_on_c, 0, 50, 0
4, 9504, Note_on_c, 0, 38, 64
4, 9549, Note_on_c, 0, 38, 0
4, 9552, Note_on_c, 0, 50, 64
4, 9597, Note_on_c, 0, 50, 0
4, 9600, Note_on_c, 0, 38, 64
4, 9645, Note_on_c, 0, 38, 0
4, 9648, Note_on_c, 0, 50, 64
4, 9693, Note_on_c, 0, 50, 0
4, 9696, Note_on_c, 0, 38, 64
4, 9741, Note_on_c, 0, 38, 0
4, 9744, Note_on_c, 0, 50, 64
4, 9789, Note_on_c, 0, 50, 0
4, 9792, Note_on_c, 0, 38, 64
4, 9837, Note_on_c, 0, 38, 0
4, 9840, Note_on_c, 0, 50, 64
4, 9885, Note_on_c, 0, 50, 0
4, 9888, Note_on_c, 0, 38, 64
4, 9933, Note_on_c, 0, 38, 0
4, 9936, Note_on_c, 0, 50, 64
4, 9981, Note_on_c, 0, 50, 0
4, 9984, Note_on_c, 0, 38, 64
4, 10029, Note_on_c, 0, 38, 0
4, 10032, Note_on_c, 0, 50, 64
4, 10077, Note_on_c, 0, 50, 0
4, 10080, Note_on_c, 0, 38, 64
4, 10169, Note_on_c, 0, 38, 0
4, 11520, Note_on_c, 0, 54, 64
4, 11609, Note_on_c, 0, 54, 0
4, 11808, Note_on_c, 0, 55, 64
4, 11897, Note_on_c, 0, 55, 0
4, 12096, Note_on_c, 0, 60, 64
4, 12185, Note_on_c, 0, 60, 0
4, 12192, Note_on_c, 0, 62, 64
4, 12281, Note_on_c, 0, 62, 0
4, 12288, Note_on_c, 0, 50, 64
4, 12377, Note_on_c, 0, 50, 0
4, 12384, Note_on_c, 0, 55, 64
4, 12473, Note_on_c, 0, 55, 0
4, 12480, Note_on_c, 0, 50, 64
4, 12569, Note_on_c, 0, 50, 0
4, 12576, Note_on_c, 0, 43, 64
4, 12665, Note_on_c, 0, 43, 0
4, 12672, Note_on_c, 0, 48, 64
4, 12672, Note_on_c, 0, 36, 64
4, 12761, Note_on_c, 0, 48, 0
4, 12761, Note_on_c, 0, 36, 0
4, 14688, Note_on_c, 0, 60, 64
4, 14777, Note_on_c, 0, 60, 0
4, 14784, Note_on_c, 0, 55, 64
4, 14873, Note_on_c, 0, 55, 0
4, 14880, Note_on_c, 0, 48, 64
4, 14969, Note_on_c, 0, 48, 0
4, 14976, Note_on_c, 0, 48, 64
4, 14976, Note_on_c, 0, 36, 64
4, 15065, Note_on_c, 0, 48, 0
4, 15065, Note_on_c, 0, 36, 0
4, 16992, Note_on_c, 0, 60, 64
4, 17081, Note_on_c, 0, 60, 0
4, 17088, Note_on_c, 0, 55, 64
4, 17177, Note_on_c, 0, 55, 0
4, 17184, Note_on_c, 0, 48, 64
4, 17273, Note_on_c, 0, 48, 0
4, 17280, Note_on_c, 0, 59, 64
4, 17280, Note_on_c, 0, 55, 64
4, 17369, Note_on_c, 0, 59, 0
4, 17369, Note_on_c, 0, 55, 0
4, 17664, Note_on_c, 0, 60, 64
4, 17664, Note_on_c, 0, 57, 64
4, 17753, Note_on_c, 0, 60, 0
4, 17753, Note_on_c, 0, 57, 0
4, 17760, Note_on_c, 0, 60, 64
4, 17760, Note_on_c, 0, 57, 64
4, 17849, Note_on_c, 0, 60, 0
4, 17849, Note_on_c, 0, 57, 0
4, 17856, Note_on_c, 0, 62, 64
4, 17856, Note_on_c, 0, 59, 64
4, 17945, Note_on_c, 0, 62, 0
4, 17945, Note_on_c, 0, 59, 0
4, 19584, Note_on_c, 0, 48, 64
4, 19584, Note_on_c, 0, 36, 64
4, 19673, Note_on_c, 0, 48, 0
4, 19673, Note_on_c, 0, 36, 0
4, 21600, Note_on_c, 0, 60, 64
4, 21689, Note_on_c, 0, 60, 0
4, 21696, Note_on_c, 0, 55, 64
4, 21785, Note_on_c, 0, 55, 0
4, 21792, Note_on_c, 0, 48, 64
4, 21881, Note_on_c, 0, 48, 0
4, 21888, Note_on_c, 0, 59, 64
4, 21888, Note_on_c, 0, 55, 64
4, 21977, Note_on_c, 0, 59, 0
4, 21977, Note_on_c, 0, 55, 0
4, 22272, Note_on_c, 0, 60, 64
4, 22272, Note_on_c, 0, 57, 64
4, 22361, Note_on_c, 0, 60, 0
4, 22361, Note_on_c, 0, 57, 0
4, 22368, Note_on_c, 0, 60, 64
4, 22368, Note_on_c, 0, 57, 64
4, 22457, Note_on_c, 0, 60, 0
4, 22457, Note_on_c, 0, 57, 0
4, 22464, Note_on_c, 0, 62, 64
4, 22464, Note_on_c, 0, 59, 64
4, 22553, Note_on_c, 0, 62, 0
4, 22553, Note_on_c, 0, 59, 0
4, 24192, Note_on_c, 0, 48, 64
4, 24192, Note_on_c, 0, 36, 64
4, 24281, Note_on_c, 0, 48, 0
4, 24281, Note_on_c, 0, 36, 0
4, 26208, Note_on_c, 0, 60, 64
4, 26297, Note_on_c, 0, 60, 0
4, 26304, Note_on_c, 0, 55, 64
4, 26393, Note_on_c, 0, 55, 0
4, 26400, Note_on_c, 0, 48, 64
4, 26489, Note_on_c, 0, 48, 0
4, 27648, Note_on_c, 0, 54, 64
4, 27737, Note_on_c, 0, 54, 0
4, 27936, Note_on_c, 0, 55, 64
4, 28025, Note_on_c, 0, 55, 0
4, 28224, Note_on_c, 0, 60, 64
4, 28313, Note_on_c, 0, 60, 0
4, 28320, Note_on_c, 0, 62, 64
4, 28409, Note_on_c, 0, 62, 0
4, 28416, Note_on_c, 0, 50, 64
4, 28505, Note_on_c, 0, 50, 0
4, 28512, Note_on_c, 0, 55, 64
4, 28601, Note_on_c, 0, 55, 0
4, 28608, Note_on_c, 0, 50, 64
4, 28697, Note_on_c, 0, 50, 0
4, 28704, Note_on_c, 0, 43, 64
4, 28793, Note_on_c, 0, 43, 0
4, 29952, Note_on_c, 0, 54, 64
4, 30041, Note_on_c, 0, 54, 0
4, 30240, Note_on_c, 0, 55, 64
4, 30329, Note_on_c, 0, 55, 0
4, 30528, Note_on_c, 0, 60, 64
4, 30617, Note_on_c, 0, 60, 0
4, 30624, Note_on_c, 0, 62, 64
4, 30713, Note_on_c, 0, 62, 0
4, 30720, Note_on_c, 0, 50, 64
4, 30809, Note_on_c, 0, 50, 0
4, 30816, Note_on_c, 0, 55, 64
4, 30905, Note_on_c, 0, 55, 0
4, 30912, Note_on_c, 0, 50, 64
4, 31001, Note_on_c, 0, 50, 0
4, 31008, Note_on_c, 0, 43, 64
4, 31097, Note_on_c, 0, 43, 0
4, 31104, Note_on_c, 0, 38, 64
4, 31149, Note_on_c, 0, 38, 0
4, 31152, Note_on_c, 0, 50, 64
4, 31197, Note_on_c, 0, 50, 0
4, 31200, Note_on_c, 0, 38, 64
4, 31245, Note_on_c, 0, 38, 0
4, 31248, Note_on_c, 0, 50, 64
4, 31293, Note_on_c, 0, 50, 0
4, 31296, Note_on_c, 0, 38, 64
4, 31341, Note_on_c, 0, 38, 0
4, 31344, Note_on_c, 0, 50, 64
4, 31389, Note_on_c, 0, 50, 0
4, 31392, Note_on_c, 0, 38, 64
4, 31437, Note_on_c, 0, 38, 0
4, 31440, Note_on_c, 0, 50, 64
4, 31485, Note_on_c, 0, 50, 0
4, 31488, Note_on_c, 0, 38, 64
4, 31533, Note_on_c, 0, 38, 0
4, 31536, Note_on_c, 0, 50, 64
4, 31581, Note_on_c, 0, 50, 0
4, 31584, Note_on_c, 0, 38, 64
4, 31629, Note_on_c, 0, 38, 0
4, 31632, Note_on_c, 0, 50, 64
4, 31677, Note_on_c, 0, 50, 0
4, 31680, Note_on_c, 0, 38, 64
4, 31725, Note_on_c, 0, 38, 0
4, 31728, Note_on_c, 0, 50, 64
4, 31773, Note_on_c, 0, 50, 0
4, 31776, Note_on_c, 0, 38, 64
4, 31821, Note_on_c, 0, 38, 0
4, 31824, Note_on_c, 0, 50, 64
4, 31869, Note_on_c, 0, 50, 0
4, 31872, Note_on_c, 0, 38, 64
4, 31917, Note_on_c, 0, 38, 0
4, 31920, Note_on_c, 0, 50, 64
4, 31965, Note_on_c, 0, 50, 0
4, 31968, Note_on_c, 0, 38, 64
4, 32013, Note_on_c, 0, 38, 0
4, 32016, Note_on_c, 0, 50, 64
4, 32061, Note_on_c, 0, 50, 0
4, 32064, Note_on_c, 0, 38, 64
4, 32109, Note_on_c, 0, 38, 0
4, 32112, Note_on_c, 0, 50, 64
4, 32157, Note_on_c, 0, 50, 0
4, 32160, Note_on_c, 0, 38, 64
4, 32205, Note_on_c, 0, 38, 0
4, 32208, Note_on_c, 0, 50, 64
4, 32253, Note_on_c, 0, 50, 0
4, 32256, Note_on_c, 0, 38, 64
4, 32301, Note_on_c, 0, 38, 0
4, 32304, Note_on_c, 0, 50, 64
4, 32349, Note_on_c, 0, 50, 0
4, 32352, Note_on_c, 0, 38, 64
4, 32397, Note_on_c, 0, 38, 0
4, 32400, Note_on_c, 0, 50, 64
4, 32445, Note_on_c, 0, 50, 0
4, 32448, Note_on_c, 0, 38, 64
4, 32493, Note_on_c, 0, 38, 0
4, 32496, Note_on_c, 0, 50, 64
4, 32541, Note_on_c, 0, 50, 0
4, 32544, Note_on_c, 0, 38, 64
4, 32633, Note_on_c, 0, 38, 0
4, 33984, Note_on_c, 0, 54, 64
4, 34073, Note_on_c, 0, 54, 0
4, 34272, Note_on_c, 0, 55, 64
4, 34361, Note_on_c, 0, 55, 0
4, 34560, Note_on_c, 0, 60, 64
4, 34649, Note_on_c, 0, 60, 0
4, 34656, Note_on_c, 0, 62, 64
4, 34745, Note_on_c, 0, 62, 0
4, 34752, Note_on_c, 0, 50, 64
4, 34841, Note_on_c, 0, 50, 0
4, 34848, Note_on_c, 0, 55, 64
4, 34937, Note_on_c, 0, 55, 0
4, 34944, Note_on_c, 0, 50, 64
4, 35033, Note_on_c, 0, 50, 0
4, 35040, Note_on_c, 0, 43, 64
4, 35129, Note_on_c, 0, 43, 0
4, 35136, Note_on_c, 0, 38, 64
4, 35181, Note_on_c, 0, 38, 0
4, 35184, Note_on_c, 0, 50, 64
4, 35229, Note_on_c, 0, 50, 0
4, 35232, Note_on_c, 0, 38, 64
4, 35277, Note_on_c, 0, 38, 0
4, 35280, Note_on_c, 0, 50, 64
4, 35325, Note_on_c, 0, 50, 0
4, 35328, Note_on_c, 0, 38, 64
4, 35373, Note_on_c, 0, 38, 0
4, 35376, Note_on_c, 0, 50, 64
4, 35421, Note_on_c, 0, 50, 0
4, 35424, Note_on_c, 0, 38, 64
4, 35469, Note_on_c, 0, 38, 0
4, 35472, Note_on_c, 0, 50, 64
4, 35517, Note_on_c, 0, 50, 0
4, 35520, Note_on_c, 0, 38, 64
4, 35565, Note_on_c, 0, 38, 0
4, 35568, Note_on_c, 0, 50, 64
4, 35613, Note_on_c, 0, 50, 0
4, 35616, Note_on_c, 0, 38, 64
4, 35661, Note_on_c, 0, 38, 0
4, 35664, Note_on_c, 0, 50, 64
4, 35709, Note_on_c, 0, 50, 0
4, 35712, Note_on_c, 0, 38, 64
4, 35757, Note_on_c, 0, 38, 0
4, 35760, Note_on_c, 0, 50, 64
4, 35805, Note_on_c, 0, 50, 0
4, 35808, Note_on_c, 0, 38, 64
4, 35853, Note_on_c, 0, 38, 0
4, 35856, Note_on_c, 0, 50, 64
4, 35901, Note_on_c, 0, 50, 0
4, 35904, Note_on_c, 0, 38, 64
4, 35949, Note_on_c, 0, 38, 0
4, 35952, Note_on_c, 0, 50, 64
4, 35997, Note_on_c, 0, 50, 0
4, 36000, Note_on_c, 0, 38, 64
4, 36045, Note_on_c, 0, 38, 0
4, 36048, Note_on_c, 0, 50, 64
4, 36093, Note_on_c, 0, 50, 0
4, 36096, Note_on_c, 0, 38, 64
4, 36141, Note_on_c, 0, 38, 0
4, 36144, Note_on_c, 0, 50, 64
4, 36189, Note_on_c, 0, 50, 0
4, 36192, Note_on_c, 0, 38, 64
4, 36237, Note_on_c, 0, 38, 0
4, 36240, Note_on_c, 0, 50, 64
4, 36285, Note_on_c, 0, 50, 0
4, 36288, Note_on_c, 0, 38, 64
4, 36333, Note_on_c, 0, 38, 0
4, 36336, Note_on_c, 0, 50, 64
4, 36381, Note_on_c, 0, 50, 0
4, 36384, Note_on_c, 0, 38, 64
4, 36429, Note_on_c, 0, 38, 0
4, 36432, Note_on_c, 0, 50, 64
4, 36477, Note_on_c, 0, 50, 0
4, 36480, Note_on_c, 0, 38, 64
4, 36525, Note_on_c, 0, 38, 0
4, 36528, Note_on_c, 0, 50, 64
4, 36573, Note_on_c, 0, 50, 0
4, 36576, Note_on_c, 0, 38, 64
4, 36665, Note_on_c, 0, 38, 0
4, 38016, Note_on_c, 0, 54, 64
4, 38105, Note_on_c, 0, 54, 0
4, 38304, Note_on_c, 0, 55, 64
4, 38393, Note_on_c, 0, 55, 0
4, 38592, Note_on_c, 0, 60, 64
4, 38681, Note_on_c, 0, 60, 0
4, 38688, Note_on_c, 0, 62, 64
4, 38777, Note_on_c, 0, 62, 0
4, 38784, Note_on_c, 0, 50, 64
4, 38873, Note_on_c, 0, 50, 0
4, 38880, Note_on_c, 0, 55, 64
4, 38969, Note_on_c, 0, 55, 0
4, 38976, Note_on_c, 0, 50, 64
4, 39065, Note_on_c, 0, 50, 0
4, 39072, Note_on_c, 0, 43, 64
4, 39161, Note_on_c, 0, 43, 0
4, 39168, Note_on_c, 0, 43, 0
4, 39345, Note_on_c, 0, 43, 0
4, 39456, End_track
5, 0, Start_track
5, 0, Title_t, "<No Title>"
5, 0, End_track
0, 0, End_of_file
