0, 0, Header, 1, 6, 96
1, 0, Start_track
1, 0, Copyright_t, "Copyright  2000 <copyright holder>"
1, 0, Text_t, "Sonata I\015\012"
1, 0, Text_t, "Haydn\015\012"
1, 0, Sequencer_specific, 16, 68, 87, 77, 90, 86, 82, 83, 78, 32, 55, 46, 49, 46, 50, 46, 48
1, 0, Time_signature, 4, 2, 24, 8
1, 0, Tempo, 100000
1, 0, Key_signature, -2, "major"
1, 336, Tempo, 400000
1, 15744, Tempo, 413793
1, 15840, Tempo, 428571
1, 15936, Tempo, 461538
1, 16080, Tempo, 521739
1, 16320, Tempo, 600000
1, 16464, Tempo, 400000
1, 31872, Tempo, 413793
1, 31968, Tempo, 428571
1, 32064, Tempo, 461538
1, 32208, Tempo, 521739
1, 32448, Tempo, 600000
1, 32592, Tempo, 400000
1, 61824, Tempo, 413793
1, 62112, Tempo, 521739
1, 62400, Tempo, 600000
1, 62544, Tempo, 400000
1, 91776, Tempo, 413793
1, 92064, Tempo, 521739
1, 92352, Tempo, 600000
1, 92496, Tempo, 400000
1, 92544, End_track
2, 0, Start_track
2, 0, Program_c, 0, 0
2, 0, Control_c, 0, 7, 127
2, 0, Control_c, 0, 10, 64
2, 336, Note_on_c, 0, 70, 75
2, 381, Note_on_c, 0, 70, 0
2, 384, Note_on_c, 0, 65, 75
2, 384, Note_on_c, 0, 62, 75
2, 473, Note_on_c, 0, 65, 0
2, 473, Note_on_c, 0, 62, 0
2, 528, Note_on_c, 0, 70, 75
2, 573, Note_on_c, 0, 70, 0
2, 576, Note_on_c, 0, 67, 75
2, 576, Note_on_c, 0, 63, 75
2, 665, Note_on_c, 0, 67, 0
2, 665, Note_on_c, 0, 63, 0
2, 720, Note_on_c, 0, 70, 75
2, 765, Note_on_c, 0, 70, 0
2, 768, Note_on_c, 0, 65, 75
2, 768, Note_on_c, 0, 62, 75
2, 857, Note_on_c, 0, 65, 0
2, 857, Note_on_c, 0, 62, 0
2, 1056, Note_on_c, 0, 79, 75
2, 1079, Note_on_c, 0, 79, 0
2, 1080, Note_on_c, 0, 77, 75
2, 1103, Note_on_c, 0, 77, 0
2, 1104, Note_on_c, 0, 75, 76
2, 1127, Note_on_c, 0, 75, 0
2, 1128, Note_on_c, 0, 74, 76
2, 1151, Note_on_c, 0, 74, 0
2, 1152, Note_on_c, 0, 72, 77
2, 1191, Note_on_c, 0, 72, 0
2, 1248, Note_on_c, 0, 81, 80
2, 1271, Note_on_c, 0, 81, 0
2, 1272, Note_on_c, 0, 79, 80
2, 1295, Note_on_c, 0, 79, 0
2, 1296, Note_on_c, 0, 77, 80
2, 1319, Note_on_c, 0, 77, 0
2, 1320, Note_on_c, 0, 75, 80
2, 1343, Note_on_c, 0, 75, 0
2, 1344, Note_on_c, 0, 74, 80
2, 1383, Note_on_c, 0, 74, 0
2, 1440, Note_on_c, 0, 77, 80
2, 1463, Note_on_c, 0, 77, 0
2, 1464, Note_on_c, 0, 75, 79
2, 1487, Note_on_c, 0, 75, 0
2, 1488, Note_on_c, 0, 74, 79
2, 1511, Note_on_c, 0, 74, 0
2, 1512, Note_on_c, 0, 72, 78
2, 1535, Note_on_c, 0, 72, 0
2, 1536, Note_on_c, 0, 70, 78
2, 1728, Note_on_c, 0, 70, 0
2, 1728, Note_on_c, 0, 69, 75
2, 1773, Note_on_c, 0, 69, 0
2, 1776, Note_on_c, 0, 82, 75
2, 1821, Note_on_c, 0, 82, 0
2, 1824, Note_on_c, 0, 81, 75
2, 1869, Note_on_c, 0, 81, 0
2, 1872, Note_on_c, 0, 82, 75
2, 1917, Note_on_c, 0, 82, 0
2, 1920, Note_on_c, 0, 77, 75
2, 1920, Note_on_c, 0, 74, 75
2, 2009, Note_on_c, 0, 77, 0
2, 2009, Note_on_c, 0, 74, 0
2, 2064, Note_on_c, 0, 82, 75
2, 2109, Note_on_c, 0, 82, 0
2, 2112, Note_on_c, 0, 79, 75
2, 2112, Note_on_c, 0, 75, 75
2, 2201, Note_on_c, 0, 79, 0
2, 2201, Note_on_c, 0, 75, 0
2, 2256, Note_on_c, 0, 82, 75
2, 2301, Note_on_c, 0, 82, 0
2, 2304, Note_on_c, 0, 77, 75
2, 2304, Note_on_c, 0, 74, 75
2, 2393, Note_on_c, 0, 77, 0
2, 2393, Note_on_c, 0, 74, 0
2, 2592, Note_on_c, 0, 79, 75
2, 2604, Note_on_c, 0, 79, 0
2, 2604, Note_on_c, 0, 81, 75
2, 2616, Note_on_c, 0, 81, 0
2, 2616, Note_on_c, 0, 82, 91
2, 2688, Note_on_c, 0, 82, 0
2, 2688, Note_on_c, 0, 72, 75
2, 2736, Note_on_c, 0, 72, 0
2, 2736, Note_on_c, 0, 75, 77
2, 2781, Note_on_c, 0, 75, 0
2, 2784, Note_on_c, 0, 79, 80
2, 2961, Note_on_c, 0, 79, 0
2, 2976, Note_on_c, 0, 69, 76
2, 2976, Note_on_c, 0, 63, 76
2, 3065, Note_on_c, 0, 69, 0
2, 3065, Note_on_c, 0, 63, 0
2, 3072, Note_on_c, 0, 70, 75
2, 3072, Note_on_c, 0, 62, 75
2, 3161, Note_on_c, 0, 70, 0
2, 3161, Note_on_c, 0, 62, 0
2, 3360, Note_on_c, 0, 70, 75
2, 3360, Note_on_c, 0, 62, 75
2, 3399, Note_on_c, 0, 70, 0
2, 3399, Note_on_c, 0, 62, 0
2, 3456, Note_on_c, 0, 72, 91
2, 3456, Note_on_c, 0, 63, 91
2, 3552, Note_on_c, 0, 72, 0
2, 3552, Note_on_c, 0, 63, 0
2, 3552, Note_on_c, 0, 70, 76
2, 3552, Note_on_c, 0, 62, 76
2, 3591, Note_on_c, 0, 70, 0
2, 3591, Note_on_c, 0, 62, 0
2, 3648, Note_on_c, 0, 74, 93
2, 3648, Note_on_c, 0, 65, 93
2, 3744, Note_on_c, 0, 74, 0
2, 3744, Note_on_c, 0, 65, 0
2, 3744, Note_on_c, 0, 72, 78
2, 3744, Note_on_c, 0, 63, 78
2, 3783, Note_on_c, 0, 72, 0
2, 3783, Note_on_c, 0, 63, 0
2, 3840, Note_on_c, 0, 75, 96
2, 3840, Note_on_c, 0, 67, 96
2, 3984, Note_on_c, 0, 75, 0
2, 3984, Note_on_c, 0, 67, 0
2, 3984, Note_on_c, 0, 74, 77
2, 3984, Note_on_c, 0, 65, 77
2, 4029, Note_on_c, 0, 74, 0
2, 4029, Note_on_c, 0, 65, 0
2, 4032, Note_on_c, 0, 72, 76
2, 4032, Note_on_c, 0, 63, 76
2, 4121, Note_on_c, 0, 72, 0
2, 4121, Note_on_c, 0, 63, 0
2, 4128, Note_on_c, 0, 74, 75
2, 4128, Note_on_c, 0, 70, 75
2, 4167, Note_on_c, 0, 74, 0
2, 4167, Note_on_c, 0, 70, 0
2, 4224, Note_on_c, 0, 75, 91
2, 4224, Note_on_c, 0, 72, 91
2, 4320, Note_on_c, 0, 75, 0
2, 4320, Note_on_c, 0, 72, 0
2, 4320, Note_on_c, 0, 74, 76
2, 4320, Note_on_c, 0, 70, 76
2, 4359, Note_on_c, 0, 74, 0
2, 4359, Note_on_c, 0, 70, 0
2, 4416, Note_on_c, 0, 77, 93
2, 4416, Note_on_c, 0, 74, 93
2, 4512, Note_on_c, 0, 77, 0
2, 4512, Note_on_c, 0, 74, 0
2, 4512, Note_on_c, 0, 75, 78
2, 4512, Note_on_c, 0, 72, 78
2, 4551, Note_on_c, 0, 75, 0
2, 4551, Note_on_c, 0, 72, 0
2, 4608, Note_on_c, 0, 79, 96
2, 4608, Note_on_c, 0, 75, 96
2, 4752, Note_on_c, 0, 79, 0
2, 4752, Note_on_c, 0, 75, 0
2, 4752, Note_on_c, 0, 77, 77
2, 4752, Note_on_c, 0, 74, 77
2, 4797, Note_on_c, 0, 77, 0
2, 4797, Note_on_c, 0, 74, 0
2, 4800, Note_on_c, 0, 75, 76
2, 4800, Note_on_c, 0, 72, 76
2, 4839, Note_on_c, 0, 75, 0
2, 4839, Note_on_c, 0, 72, 0
2, 4896, Note_on_c, 0, 77, 75
2, 4896, Note_on_c, 0, 74, 75
2, 4935, Note_on_c, 0, 77, 0
2, 4935, Note_on_c, 0, 74, 0
2, 4992, Note_on_c, 0, 79, 91
2, 4992, Note_on_c, 0, 75, 91
2, 5088, Note_on_c, 0, 79, 0
2, 5088, Note_on_c, 0, 75, 0
2, 5088, Note_on_c, 0, 77, 76
2, 5088, Note_on_c, 0, 74, 76
2, 5127, Note_on_c, 0, 77, 0
2, 5127, Note_on_c, 0, 74, 0
2, 5184, Note_on_c, 0, 80, 93
2, 5184, Note_on_c, 0, 77, 93
2, 5280, Note_on_c, 0, 80, 0
2, 5280, Note_on_c, 0, 77, 0
2, 5280, Note_on_c, 0, 79, 78
2, 5280, Note_on_c, 0, 75, 78
2, 5319, Note_on_c, 0, 79, 0
2, 5319, Note_on_c, 0, 75, 0
2, 5376, Note_on_c, 0, 81, 96
2, 5376, Note_on_c, 0, 75, 96
2, 5376, Note_on_c, 0, 72, 96
2, 5520, Note_on_c, 0, 81, 0
2, 5520, Note_on_c, 0, 75, 0
2, 5520, Note_on_c, 0, 72, 0
2, 5520, Note_on_c, 0, 82, 80
2, 5520, Note_on_c, 0, 77, 80
2, 5520, Note_on_c, 0, 74, 80
2, 5565, Note_on_c, 0, 82, 0
2, 5565, Note_on_c, 0, 77, 0
2, 5565, Note_on_c, 0, 74, 0
2, 5568, Note_on_c, 0, 82, 80
2, 5568, Note_on_c, 0, 77, 80
2, 5568, Note_on_c, 0, 74, 80
2, 5607, Note_on_c, 0, 82, 0
2, 5607, Note_on_c, 0, 77, 0
2, 5607, Note_on_c, 0, 74, 0
2, 5664, Note_on_c, 0, 70, 80
2, 5664, Note_on_c, 0, 65, 80
2, 5664, Note_on_c, 0, 62, 80
2, 5703, Note_on_c, 0, 70, 0
2, 5703, Note_on_c, 0, 65, 0
2, 5703, Note_on_c, 0, 62, 0
2, 5760, Note_on_c, 0, 69, 96
2, 5760, Note_on_c, 0, 63, 96
2, 5760, Note_on_c, 0, 60, 96
2, 5904, Note_on_c, 0, 69, 0
2, 5904, Note_on_c, 0, 63, 0
2, 5904, Note_on_c, 0, 60, 0
2, 5904, Note_on_c, 0, 70, 80
2, 5904, Note_on_c, 0, 65, 80
2, 5904, Note_on_c, 0, 62, 80
2, 5949, Note_on_c, 0, 70, 0
2, 5949, Note_on_c, 0, 65, 0
2, 5949, Note_on_c, 0, 62, 0
2, 5952, Note_on_c, 0, 70, 80
2, 5952, Note_on_c, 0, 65, 80
2, 5952, Note_on_c, 0, 62, 80
2, 5991, Note_on_c, 0, 70, 0
2, 5991, Note_on_c, 0, 65, 0
2, 5991, Note_on_c, 0, 62, 0
2, 6048, Note_on_c, 0, 70, 80
2, 6048, Note_on_c, 0, 65, 80
2, 6048, Note_on_c, 0, 62, 80
2, 6087, Note_on_c, 0, 70, 0
2, 6087, Note_on_c, 0, 65, 0
2, 6087, Note_on_c, 0, 62, 0
2, 6144, Note_on_c, 0, 75, 96
2, 6144, Note_on_c, 0, 72, 96
2, 6144, Note_on_c, 0, 69, 96
2, 6288, Note_on_c, 0, 75, 0
2, 6288, Note_on_c, 0, 72, 0
2, 6288, Note_on_c, 0, 69, 0
2, 6288, Note_on_c, 0, 69, 78
2, 6288, Note_on_c, 0, 65, 78
2, 6288, Note_on_c, 0, 63, 78
2, 6333, Note_on_c, 0, 69, 0
2, 6333, Note_on_c, 0, 65, 0
2, 6333, Note_on_c, 0, 63, 0
2, 6336, Note_on_c, 0, 70, 77
2, 6336, Note_on_c, 0, 65, 77
2, 6336, Note_on_c, 0, 62, 77
2, 6375, Note_on_c, 0, 70, 0
2, 6375, Note_on_c, 0, 65, 0
2, 6375, Note_on_c, 0, 62, 0
2, 6432, Note_on_c, 0, 70, 76
2, 6432, Note_on_c, 0, 65, 76
2, 6432, Note_on_c, 0, 62, 76
2, 6471, Note_on_c, 0, 70, 0
2, 6471, Note_on_c, 0, 65, 0
2, 6471, Note_on_c, 0, 62, 0
2, 6528, Note_on_c, 0, 75, 91
2, 6528, Note_on_c, 0, 72, 91
2, 6528, Note_on_c, 0, 69, 91
2, 6672, Note_on_c, 0, 75, 0
2, 6672, Note_on_c, 0, 72, 0
2, 6672, Note_on_c, 0, 69, 0
2, 6672, Note_on_c, 0, 69, 72
2, 6672, Note_on_c, 0, 65, 72
2, 6672, Note_on_c, 0, 63, 72
2, 6717, Note_on_c, 0, 69, 0
2, 6717, Note_on_c, 0, 65, 0
2, 6717, Note_on_c, 0, 63, 0
2, 6720, Note_on_c, 0, 70, 71
2, 6720, Note_on_c, 0, 65, 71
2, 6720, Note_on_c, 0, 62, 71
2, 6759, Note_on_c, 0, 70, 0
2, 6759, Note_on_c, 0, 65, 0
2, 6759, Note_on_c, 0, 62, 0
2, 6816, Note_on_c, 0, 84, 97
2, 6828, Note_on_c, 0, 84, 0
2, 6828, Note_on_c, 0, 82, 97
2, 6840, Note_on_c, 0, 82, 0
2, 6840, Note_on_c, 0, 81, 97
2, 6852, Note_on_c, 0, 81, 0
2, 6852, Note_on_c, 0, 82, 113
2, 6942, Note_on_c, 0, 82, 0
2, 6944, Note_on_c, 0, 86, 80
2, 6974, Note_on_c, 0, 86, 0
2, 6976, Note_on_c, 0, 84, 80
2, 7006, Note_on_c, 0, 84, 0
2, 7008, Note_on_c, 0, 82, 80
2, 7038, Note_on_c, 0, 82, 0
2, 7040, Note_on_c, 0, 84, 80
2, 7070, Note_on_c, 0, 84, 0
2, 7072, Note_on_c, 0, 86, 80
2, 7102, Note_on_c, 0, 86, 0
2, 7104, Note_on_c, 0, 79, 80
2, 7134, Note_on_c, 0, 79, 0
2, 7136, Note_on_c, 0, 82, 80
2, 7166, Note_on_c, 0, 82, 0
2, 7168, Note_on_c, 0, 81, 80
2, 7198, Note_on_c, 0, 81, 0
2, 7200, Note_on_c, 0, 79, 80
2, 7230, Note_on_c, 0, 79, 0
2, 7232, Note_on_c, 0, 81, 80
2, 7262, Note_on_c, 0, 81, 0
2, 7264, Note_on_c, 0, 82, 80
2, 7294, Note_on_c, 0, 82, 0
2, 7296, Note_on_c, 0, 75, 70
2, 7326, Note_on_c, 0, 75, 0
2, 7328, Note_on_c, 0, 79, 70
2, 7358, Note_on_c, 0, 79, 0
2, 7360, Note_on_c, 0, 77, 70
2, 7390, Note_on_c, 0, 77, 0
2, 7392, Note_on_c, 0, 75, 71
2, 7422, Note_on_c, 0, 75, 0
2, 7424, Note_on_c, 0, 77, 71
2, 7454, Note_on_c, 0, 77, 0
2, 7456, Note_on_c, 0, 79, 71
2, 7486, Note_on_c, 0, 79, 0
2, 7488, Note_on_c, 0, 72, 72
2, 7518, Note_on_c, 0, 72, 0
2, 7520, Note_on_c, 0, 75, 72
2, 7550, Note_on_c, 0, 75, 0
2, 7552, Note_on_c, 0, 74, 73
2, 7582, Note_on_c, 0, 74, 0
2, 7584, Note_on_c, 0, 72, 73
2, 7614, Note_on_c, 0, 72, 0
2, 7616, Note_on_c, 0, 74, 73
2, 7646, Note_on_c, 0, 74, 0
2, 7648, Note_on_c, 0, 75, 74
2, 7678, Note_on_c, 0, 75, 0
2, 7680, Control_c, 0, 64, 127
2, 7704, Note_on_c, 0, 57, 75
2, 7727, Note_on_c, 0, 57, 0
2, 7728, Note_on_c, 0, 60, 75
2, 7751, Note_on_c, 0, 60, 0
2, 7752, Note_on_c, 0, 57, 75
2, 7775, Note_on_c, 0, 57, 0
2, 7800, Note_on_c, 0, 60, 75
2, 7823, Note_on_c, 0, 60, 0
2, 7824, Note_on_c, 0, 65, 75
2, 7847, Note_on_c, 0, 65, 0
2, 7848, Note_on_c, 0, 60, 75
2, 7871, Note_on_c, 0, 60, 0
2, 7896, Note_on_c, 0, 65, 75
2, 7919, Note_on_c, 0, 65, 0
2, 7920, Note_on_c, 0, 69, 75
2, 7943, Note_on_c, 0, 69, 0
2, 7944, Note_on_c, 0, 65, 75
2, 7967, Note_on_c, 0, 65, 0
2, 7992, Note_on_c, 0, 69, 75
2, 8015, Note_on_c, 0, 69, 0
2, 8016, Note_on_c, 0, 72, 75
2, 8039, Note_on_c, 0, 72, 0
2, 8040, Note_on_c, 0, 69, 75
2, 8064, Note_on_c, 0, 75, 91
2, 8064, Note_on_c, 0, 72, 91
2, 8352, Note_on_c, 0, 75, 0
2, 8352, Note_on_c, 0, 72, 0
2, 8352, Note_on_c, 0, 69, 0
2, 8352, Control_c, 0, 64, 0
2, 8448, Control_c, 0, 64, 127
2, 8472, Note_on_c, 0, 66, 75
2, 8495, Note_on_c, 0, 66, 0
2, 8496, Note_on_c, 0, 69, 75
2, 8519, Note_on_c, 0, 69, 0
2, 8520, Note_on_c, 0, 66, 75
2, 8543, Note_on_c, 0, 66, 0
2, 8568, Note_on_c, 0, 69, 75
2, 8591, Note_on_c, 0, 69, 0
2, 8592, Note_on_c, 0, 72, 75
2, 8615, Note_on_c, 0, 72, 0
2, 8616, Note_on_c, 0, 69, 75
2, 8639, Note_on_c, 0, 69, 0
2, 8664, Note_on_c, 0, 72, 75
2, 8687, Note_on_c, 0, 72, 0
2, 8688, Note_on_c, 0, 78, 75
2, 8711, Note_on_c, 0, 78, 0
2, 8712, Note_on_c, 0, 72, 75
2, 8735, Note_on_c, 0, 72, 0
2, 8760, Note_on_c, 0, 78, 75
2, 8783, Note_on_c, 0, 78, 0
2, 8784, Note_on_c, 0, 81, 75
2, 8807, Note_on_c, 0, 81, 0
2, 8808, Note_on_c, 0, 78, 75
2, 8832, Note_on_c, 0, 84, 91
2, 8832, Note_on_c, 0, 81, 91
2, 9120, Note_on_c, 0, 84, 0
2, 9120, Note_on_c, 0, 81, 0
2, 9120, Note_on_c, 0, 78, 0
2, 9120, Control_c, 0, 64, 0
2, 9216, Control_c, 0, 64, 127
2, 9240, Note_on_c, 0, 62, 75
2, 9263, Note_on_c, 0, 62, 0
2, 9264, Note_on_c, 0, 67, 75
2, 9287, Note_on_c, 0, 67, 0
2, 9288, Note_on_c, 0, 62, 75
2, 9311, Note_on_c, 0, 62, 0
2, 9336, Note_on_c, 0, 67, 75
2, 9359, Note_on_c, 0, 67, 0
2, 9360, Note_on_c, 0, 70, 75
2, 9383, Note_on_c, 0, 70, 0
2, 9384, Note_on_c, 0, 67, 75
2, 9407, Note_on_c, 0, 67, 0
2, 9432, Note_on_c, 0, 70, 75
2, 9455, Note_on_c, 0, 70, 0
2, 9456, Note_on_c, 0, 74, 75
2, 9479, Note_on_c, 0, 74, 0
2, 9480, Note_on_c, 0, 70, 75
2, 9503, Note_on_c, 0, 70, 0
2, 9528, Note_on_c, 0, 74, 75
2, 9551, Note_on_c, 0, 74, 0
2, 9552, Note_on_c, 0, 79, 75
2, 9575, Note_on_c, 0, 79, 0
2, 9576, Note_on_c, 0, 74, 75
2, 9600, Note_on_c, 0, 82, 91
2, 9600, Note_on_c, 0, 79, 91
2, 9888, Note_on_c, 0, 82, 0
2, 9888, Note_on_c, 0, 79, 0
2, 9888, Note_on_c, 0, 74, 0
2, 9888, Control_c, 0, 64, 0
2, 10008, Note_on_c, 0, 67, 75
2, 10031, Note_on_c, 0, 67, 0
2, 10032, Note_on_c, 0, 70, 75
2, 10055, Note_on_c, 0, 70, 0
2, 10056, Note_on_c, 0, 67, 75
2, 10079, Note_on_c, 0, 67, 0
2, 10104, Note_on_c, 0, 70, 75
2, 10127, Note_on_c, 0, 70, 0
2, 10128, Note_on_c, 0, 76, 75
2, 10151, Note_on_c, 0, 76, 0
2, 10152, Note_on_c, 0, 70, 75
2, 10175, Note_on_c, 0, 70, 0
2, 10200, Note_on_c, 0, 76, 75
2, 10223, Note_on_c, 0, 76, 0
2, 10224, Note_on_c, 0, 79, 75
2, 10247, Note_on_c, 0, 79, 0
2, 10248, Note_on_c, 0, 76, 75
2, 10271, Note_on_c, 0, 76, 0
2, 10296, Note_on_c, 0, 79, 75
2, 10319, Note_on_c, 0, 79, 0
2, 10320, Note_on_c, 0, 82, 75
2, 10343, Note_on_c, 0, 82, 0
2, 10344, Note_on_c, 0, 79, 75
2, 10368, Note_on_c, 0, 85, 91
2, 10368, Note_on_c, 0, 82, 91
2, 10656, Note_on_c, 0, 85, 0
2, 10656, Note_on_c, 0, 82, 0
2, 10656, Note_on_c, 0, 79, 0
2, 10656, Control_c, 0, 64, 0
2, 11040, Note_on_c, 0, 77, 75
2, 11079, Note_on_c, 0, 77, 0
2, 11232, Note_on_c, 0, 84, 75
2, 11271, Note_on_c, 0, 84, 0
2, 11424, Note_on_c, 0, 82, 75
2, 11447, Note_on_c, 0, 82, 0
2, 11448, Note_on_c, 0, 81, 75
2, 11471, Note_on_c, 0, 81, 0
2, 11472, Note_on_c, 0, 79, 75
2, 11495, Note_on_c, 0, 79, 0
2, 11496, Note_on_c, 0, 77, 75
2, 11519, Note_on_c, 0, 77, 0
2, 11520, Note_on_c, 0, 76, 75
2, 11559, Note_on_c, 0, 76, 0
2, 11616, Note_on_c, 0, 82, 91
2, 11808, Note_on_c, 0, 82, 0
2, 11808, Note_on_c, 0, 81, 75
2, 11831, Note_on_c, 0, 81, 0
2, 11832, Note_on_c, 0, 79, 75
2, 11855, Note_on_c, 0, 79, 0
2, 11856, Note_on_c, 0, 77, 75
2, 11879, Note_on_c, 0, 77, 0
2, 11880, Note_on_c, 0, 76, 75
2, 11903, Note_on_c, 0, 76, 0
2, 11904, Note_on_c, 0, 77, 75
2, 11971, Note_on_c, 0, 77, 0
2, 11976, Note_on_c, 0, 72, 75
2, 11999, Note_on_c, 0, 72, 0
2, 12000, Note_on_c, 0, 81, 76
2, 12067, Note_on_c, 0, 81, 0
2, 12072, Note_on_c, 0, 77, 76
2, 12095, Note_on_c, 0, 77, 0
2, 12096, Note_on_c, 0, 84, 77
2, 12163, Note_on_c, 0, 84, 0
2, 12168, Note_on_c, 0, 81, 77
2, 12191, Note_on_c, 0, 81, 0
2, 12192, Note_on_c, 0, 89, 78
2, 12259, Note_on_c, 0, 89, 0
2, 12264, Note_on_c, 0, 84, 78
2, 12287, Note_on_c, 0, 84, 0
2, 12288, Note_on_c, 0, 85, 79
2, 12336, Note_on_c, 0, 85, 0
2, 12336, Note_on_c, 0, 86, 79
2, 12381, Note_on_c, 0, 86, 0
2, 12384, Note_on_c, 0, 86, 96
2, 12510, Note_on_c, 0, 86, 0
2, 12512, Note_on_c, 0, 79, 80
2, 12542, Note_on_c, 0, 79, 0
2, 12544, Note_on_c, 0, 81, 79
2, 12574, Note_on_c, 0, 81, 0
2, 12576, Note_on_c, 0, 82, 78
2, 12606, Note_on_c, 0, 82, 0
2, 12608, Note_on_c, 0, 81, 78
2, 12638, Note_on_c, 0, 81, 0
2, 12640, Note_on_c, 0, 79, 77
2, 12670, Note_on_c, 0, 79, 0
2, 12672, Note_on_c, 0, 79, 77
2, 12720, Note_on_c, 0, 79, 0
2, 12720, Note_on_c, 0, 77, 76
2, 12765, Note_on_c, 0, 77, 0
2, 12768, Note_on_c, 0, 77, 91
2, 12960, Note_on_c, 0, 77, 0
2, 12960, Note_on_c, 0, 81, 75
2, 13008, Note_on_c, 0, 81, 0
2, 13008, Note_on_c, 0, 79, 75
2, 13053, Note_on_c, 0, 79, 0
2, 13056, Note_on_c, 0, 77, 75
2, 13056, Note_on_c, 0, 69, 75
2, 13248, Note_on_c, 0, 69, 0
2, 13278, Note_on_c, 0, 77, 0
2, 13280, Note_on_c, 0, 79, 76
2, 13310, Note_on_c, 0, 79, 0
2, 13312, Note_on_c, 0, 81, 78
2, 13342, Note_on_c, 0, 81, 0
2, 13344, Note_on_c, 0, 82, 79
2, 13374, Note_on_c, 0, 82, 0
2, 13376, Note_on_c, 0, 81, 78
2, 13406, Note_on_c, 0, 81, 0
2, 13408, Note_on_c, 0, 79, 77
2, 13438, Note_on_c, 0, 79, 0
2, 13440, Note_on_c, 0, 72, 75
2, 13507, Note_on_c, 0, 72, 0
2, 13512, Note_on_c, 0, 69, 75
2, 13535, Note_on_c, 0, 69, 0
2, 13536, Note_on_c, 0, 65, 75
2, 13625, Note_on_c, 0, 65, 0
2, 13632, Note_on_c, 0, 67, 75
2, 13656, Note_on_c, 0, 67, 0
2, 13656, Note_on_c, 0, 65, 75
2, 13680, Note_on_c, 0, 65, 0
2, 13680, Note_on_c, 0, 64, 75
2, 13704, Note_on_c, 0, 64, 0
2, 13704, Note_on_c, 0, 65, 75
2, 13728, Note_on_c, 0, 65, 0
2, 13728, Note_on_c, 0, 69, 75
2, 13773, Note_on_c, 0, 69, 0
2, 13776, Note_on_c, 0, 67, 75
2, 13821, Note_on_c, 0, 67, 0
2, 13824, Note_on_c, 0, 65, 75
2, 13913, Note_on_c, 0, 65, 0
2, 14016, Note_on_c, 0, 63, 113
2, 14016, Note_on_c, 0, 60, 113
2, 14016, Note_on_c, 0, 57, 113
2, 14208, Note_on_c, 0, 63, 0
2, 14208, Note_on_c, 0, 60, 0
2, 14208, Note_on_c, 0, 57, 0
2, 14208, Note_on_c, 0, 62, 80
2, 14208, Note_on_c, 0, 58, 80
2, 14247, Note_on_c, 0, 62, 0
2, 14247, Note_on_c, 0, 58, 0
2, 14400, Note_on_c, 0, 64, 113
2, 14400, Note_on_c, 0, 58, 113
2, 14400, Note_on_c, 0, 55, 113
2, 14592, Note_on_c, 0, 64, 0
2, 14592, Note_on_c, 0, 58, 0
2, 14592, Note_on_c, 0, 55, 0
2, 14592, Note_on_c, 0, 65, 80
2, 14592, Note_on_c, 0, 60, 80
2, 14592, Note_on_c, 0, 57, 80
2, 14631, Note_on_c, 0, 65, 0
2, 14631, Note_on_c, 0, 60, 0
2, 14631, Note_on_c, 0, 57, 0
2, 14688, Note_on_c, 0, 63, 97
2, 14688, Note_on_c, 0, 60, 97
2, 14688, Note_on_c, 0, 57, 97
2, 14727, Note_on_c, 0, 63, 0
2, 14727, Note_on_c, 0, 60, 0
2, 14727, Note_on_c, 0, 57, 0
2, 14880, Note_on_c, 0, 62, 97
2, 14880, Note_on_c, 0, 58, 97
2, 14919, Note_on_c, 0, 62, 0
2, 14919, Note_on_c, 0, 58, 0
2, 15072, Note_on_c, 0, 64, 113
2, 15072, Note_on_c, 0, 58, 113
2, 15072, Note_on_c, 0, 55, 113
2, 15168, Note_on_c, 0, 64, 0
2, 15168, Note_on_c, 0, 58, 0
2, 15168, Note_on_c, 0, 55, 0
2, 15168, Note_on_c, 0, 65, 80
2, 15168, Note_on_c, 0, 60, 80
2, 15168, Note_on_c, 0, 57, 80
2, 15207, Note_on_c, 0, 65, 0
2, 15207, Note_on_c, 0, 60, 0
2, 15207, Note_on_c, 0, 57, 0
2, 15264, Note_on_c, 0, 73, 97
2, 15264, Note_on_c, 0, 70, 97
2, 15360, Note_on_c, 0, 73, 0
2, 15360, Note_on_c, 0, 70, 0
2, 15360, Note_on_c, 0, 72, 80
2, 15360, Note_on_c, 0, 69, 80
2, 15399, Note_on_c, 0, 72, 0
2, 15399, Note_on_c, 0, 69, 0
2, 15456, Note_on_c, 0, 76, 80
2, 15456, Note_on_c, 0, 70, 80
2, 15495, Note_on_c, 0, 76, 0
2, 15495, Note_on_c, 0, 70, 0
2, 15552, Note_on_c, 0, 77, 77
2, 15552, Note_on_c, 0, 69, 77
2, 15591, Note_on_c, 0, 77, 0
2, 15591, Note_on_c, 0, 69, 0
2, 15648, Note_on_c, 0, 61, 92
2, 15648, Note_on_c, 0, 58, 92
2, 15744, Note_on_c, 0, 61, 0
2, 15744, Note_on_c, 0, 58, 0
2, 15744, Note_on_c, 0, 60, 73
2, 15744, Note_on_c, 0, 57, 73
2, 15783, Note_on_c, 0, 60, 0
2, 15783, Note_on_c, 0, 57, 0
2, 15840, Note_on_c, 0, 64, 70
2, 15840, Note_on_c, 0, 58, 70
2, 15879, Note_on_c, 0, 64, 0
2, 15879, Note_on_c, 0, 58, 0
2, 15936, Note_on_c, 0, 65, 68
2, 15936, Note_on_c, 0, 57, 68
2, 16025, Note_on_c, 0, 65, 0
2, 16025, Note_on_c, 0, 57, 0
2, 16080, Note_on_c, 0, 84, 65
2, 16125, Note_on_c, 0, 84, 0
2, 16128, Note_on_c, 0, 84, 64
2, 16217, Note_on_c, 0, 84, 0
2, 16224, Note_on_c, 0, 83, 64
2, 16247, Note_on_c, 0, 83, 0
2, 16248, Note_on_c, 0, 84, 64
2, 16271, Note_on_c, 0, 84, 0
2, 16272, Note_on_c, 0, 86, 64
2, 16295, Note_on_c, 0, 86, 0
2, 16296, Note_on_c, 0, 84, 64
2, 16319, Note_on_c, 0, 84, 0
2, 16320, Note_on_c, 0, 77, 64
2, 16409, Note_on_c, 0, 77, 0
2, 16464, Note_on_c, 0, 70, 75
2, 16509, Note_on_c, 0, 70, 0
2, 16512, Note_on_c, 0, 65, 75
2, 16512, Note_on_c, 0, 62, 75
2, 16601, Note_on_c, 0, 65, 0
2, 16601, Note_on_c, 0, 62, 0
2, 16656, Note_on_c, 0, 70, 75
2, 16701, Note_on_c, 0, 70, 0
2, 16704, Note_on_c, 0, 67, 75
2, 16704, Note_on_c, 0, 63, 75
2, 16793, Note_on_c, 0, 67, 0
2, 16793, Note_on_c, 0, 63, 0
2, 16848, Note_on_c, 0, 70, 75
2, 16893, Note_on_c, 0, 70, 0
2, 16896, Note_on_c, 0, 65, 75
2, 16896, Note_on_c, 0, 62, 75
2, 16985, Note_on_c, 0, 65, 0
2, 16985, Note_on_c, 0, 62, 0
2, 17184, Note_on_c, 0, 79, 75
2, 17207, Note_on_c, 0, 79, 0
2, 17208, Note_on_c, 0, 77, 75
2, 17231, Note_on_c, 0, 77, 0
2, 17232, Note_on_c, 0, 75, 76
2, 17255, Note_on_c, 0, 75, 0
2, 17256, Note_on_c, 0, 74, 76
2, 17279, Note_on_c, 0, 74, 0
2, 17280, Note_on_c, 0, 72, 77
2, 17319, Note_on_c, 0, 72, 0
2, 17376, Note_on_c, 0, 81, 80
2, 17399, Note_on_c, 0, 81, 0
2, 17400, Note_on_c, 0, 79, 80
2, 17423, Note_on_c, 0, 79, 0
2, 17424, Note_on_c, 0, 77, 80
2, 17447, Note_on_c, 0, 77, 0
2, 17448, Note_on_c, 0, 75, 80
2, 17471, Note_on_c, 0, 75, 0
2, 17472, Note_on_c, 0, 74, 80
2, 17511, Note_on_c, 0, 74, 0
2, 17568, Note_on_c, 0, 77, 80
2, 17591, Note_on_c, 0, 77, 0
2, 17592, Note_on_c, 0, 75, 79
2, 17615, Note_on_c, 0, 75, 0
2, 17616, Note_on_c, 0, 74, 79
2, 17639, Note_on_c, 0, 74, 0
2, 17640, Note_on_c, 0, 72, 78
2, 17663, Note_on_c, 0, 72, 0
2, 17664, Note_on_c, 0, 70, 78
2, 17856, Note_on_c, 0, 70, 0
2, 17856, Note_on_c, 0, 69, 75
2, 17901, Note_on_c, 0, 69, 0
2, 17904, Note_on_c, 0, 82, 75
2, 17949, Note_on_c, 0, 82, 0
2, 17952, Note_on_c, 0, 81, 75
2, 17997, Note_on_c, 0, 81, 0
2, 18000, Note_on_c, 0, 82, 75
2, 18045, Note_on_c, 0, 82, 0
2, 18048, Note_on_c, 0, 77, 75
2, 18048, Note_on_c, 0, 74, 75
2, 18137, Note_on_c, 0, 77, 0
2, 18137, Note_on_c, 0, 74, 0
2, 18192, Note_on_c, 0, 82, 75
2, 18237, Note_on_c, 0, 82, 0
2, 18240, Note_on_c, 0, 79, 75
2, 18240, Note_on_c, 0, 75, 75
2, 18329, Note_on_c, 0, 79, 0
2, 18329, Note_on_c, 0, 75, 0
2, 18384, Note_on_c, 0, 82, 75
2, 18429, Note_on_c, 0, 82, 0
2, 18432, Note_on_c, 0, 77, 75
2, 18432, Note_on_c, 0, 74, 75
2, 18521, Note_on_c, 0, 77, 0
2, 18521, Note_on_c, 0, 74, 0
2, 18720, Note_on_c, 0, 79, 75
2, 18732, Note_on_c, 0, 79, 0
2, 18732, Note_on_c, 0, 81, 75
2, 18744, Note_on_c, 0, 81, 0
2, 18744, Note_on_c, 0, 82, 91
2, 18816, Note_on_c, 0, 82, 0
2, 18816, Note_on_c, 0, 72, 75
2, 18864, Note_on_c, 0, 72, 0
2, 18864, Note_on_c, 0, 75, 77
2, 18909, Note_on_c, 0, 75, 0
2, 18912, Note_on_c, 0, 79, 80
2, 19089, Note_on_c, 0, 79, 0
2, 19104, Note_on_c, 0, 69, 76
2, 19104, Note_on_c, 0, 63, 76
2, 19193, Note_on_c, 0, 69, 0
2, 19193, Note_on_c, 0, 63, 0
2, 19200, Note_on_c, 0, 70, 75
2, 19200, Note_on_c, 0, 62, 75
2, 19289, Note_on_c, 0, 70, 0
2, 19289, Note_on_c, 0, 62, 0
2, 19488, Note_on_c, 0, 70, 75
2, 19488, Note_on_c, 0, 62, 75
2, 19527, Note_on_c, 0, 70, 0
2, 19527, Note_on_c, 0, 62, 0
2, 19584, Note_on_c, 0, 72, 91
2, 19584, Note_on_c, 0, 63, 91
2, 19680, Note_on_c, 0, 72, 0
2, 19680, Note_on_c, 0, 63, 0
2, 19680, Note_on_c, 0, 70, 76
2, 19680, Note_on_c, 0, 62, 76
2, 19719, Note_on_c, 0, 70, 0
2, 19719, Note_on_c, 0, 62, 0
2, 19776, Note_on_c, 0, 74, 93
2, 19776, Note_on_c, 0, 65, 93
2, 19872, Note_on_c, 0, 74, 0
2, 19872, Note_on_c, 0, 65, 0
2, 19872, Note_on_c, 0, 72, 78
2, 19872, Note_on_c, 0, 63, 78
2, 19911, Note_on_c, 0, 72, 0
2, 19911, Note_on_c, 0, 63, 0
2, 19968, Note_on_c, 0, 75, 96
2, 19968, Note_on_c, 0, 67, 96
2, 20112, Note_on_c, 0, 75, 0
2, 20112, Note_on_c, 0, 67, 0
2, 20112, Note_on_c, 0, 74, 77
2, 20112, Note_on_c, 0, 65, 77
2, 20157, Note_on_c, 0, 74, 0
2, 20157, Note_on_c, 0, 65, 0
2, 20160, Note_on_c, 0, 72, 76
2, 20160, Note_on_c, 0, 63, 76
2, 20249, Note_on_c, 0, 72, 0
2, 20249, Note_on_c, 0, 63, 0
2, 20256, Note_on_c, 0, 74, 75
2, 20256, Note_on_c, 0, 70, 75
2, 20295, Note_on_c, 0, 74, 0
2, 20295, Note_on_c, 0, 70, 0
2, 20352, Note_on_c, 0, 75, 91
2, 20352, Note_on_c, 0, 72, 91
2, 20448, Note_on_c, 0, 75, 0
2, 20448, Note_on_c, 0, 72, 0
2, 20448, Note_on_c, 0, 74, 76
2, 20448, Note_on_c, 0, 70, 76
2, 20487, Note_on_c, 0, 74, 0
2, 20487, Note_on_c, 0, 70, 0
2, 20544, Note_on_c, 0, 77, 93
2, 20544, Note_on_c, 0, 74, 93
2, 20640, Note_on_c, 0, 77, 0
2, 20640, Note_on_c, 0, 74, 0
2, 20640, Note_on_c, 0, 75, 78
2, 20640, Note_on_c, 0, 72, 78
2, 20679, Note_on_c, 0, 75, 0
2, 20679, Note_on_c, 0, 72, 0
2, 20736, Note_on_c, 0, 79, 96
2, 20736, Note_on_c, 0, 75, 96
2, 20880, Note_on_c, 0, 79, 0
2, 20880, Note_on_c, 0, 75, 0
2, 20880, Note_on_c, 0, 77, 77
2, 20880, Note_on_c, 0, 74, 77
2, 20925, Note_on_c, 0, 77, 0
2, 20925, Note_on_c, 0, 74, 0
2, 20928, Note_on_c, 0, 75, 76
2, 20928, Note_on_c, 0, 72, 76
2, 20967, Note_on_c, 0, 75, 0
2, 20967, Note_on_c, 0, 72, 0
2, 21024, Note_on_c, 0, 77, 75
2, 21024, Note_on_c, 0, 74, 75
2, 21063, Note_on_c, 0, 77, 0
2, 21063, Note_on_c, 0, 74, 0
2, 21120, Note_on_c, 0, 79, 91
2, 21120, Note_on_c, 0, 75, 91
2, 21216, Note_on_c, 0, 79, 0
2, 21216, Note_on_c, 0, 75, 0
2, 21216, Note_on_c, 0, 77, 76
2, 21216, Note_on_c, 0, 74, 76
2, 21255, Note_on_c, 0, 77, 0
2, 21255, Note_on_c, 0, 74, 0
2, 21312, Note_on_c, 0, 80, 93
2, 21312, Note_on_c, 0, 77, 93
2, 21408, Note_on_c, 0, 80, 0
2, 21408, Note_on_c, 0, 77, 0
2, 21408, Note_on_c, 0, 79, 78
2, 21408, Note_on_c, 0, 75, 78
2, 21447, Note_on_c, 0, 79, 0
2, 21447, Note_on_c, 0, 75, 0
2, 21504, Note_on_c, 0, 81, 96
2, 21504, Note_on_c, 0, 75, 96
2, 21504, Note_on_c, 0, 72, 96
2, 21648, Note_on_c, 0, 81, 0
2, 21648, Note_on_c, 0, 75, 0
2, 21648, Note_on_c, 0, 72, 0
2, 21648, Note_on_c, 0, 82, 80
2, 21648, Note_on_c, 0, 77, 80
2, 21648, Note_on_c, 0, 74, 80
2, 21693, Note_on_c, 0, 82, 0
2, 21693, Note_on_c, 0, 77, 0
2, 21693, Note_on_c, 0, 74, 0
2, 21696, Note_on_c, 0, 82, 80
2, 21696, Note_on_c, 0, 77, 80
2, 21696, Note_on_c, 0, 74, 80
2, 21735, Note_on_c, 0, 82, 0
2, 21735, Note_on_c, 0, 77, 0
2, 21735, Note_on_c, 0, 74, 0
2, 21792, Note_on_c, 0, 70, 80
2, 21792, Note_on_c, 0, 65, 80
2, 21792, Note_on_c, 0, 62, 80
2, 21831, Note_on_c, 0, 70, 0
2, 21831, Note_on_c, 0, 65, 0
2, 21831, Note_on_c, 0, 62, 0
2, 21888, Note_on_c, 0, 69, 96
2, 21888, Note_on_c, 0, 63, 96
2, 21888, Note_on_c, 0, 60, 96
2, 22032, Note_on_c, 0, 69, 0
2, 22032, Note_on_c, 0, 63, 0
2, 22032, Note_on_c, 0, 60, 0
2, 22032, Note_on_c, 0, 70, 80
2, 22032, Note_on_c, 0, 65, 80
2, 22032, Note_on_c, 0, 62, 80
2, 22077, Note_on_c, 0, 70, 0
2, 22077, Note_on_c, 0, 65, 0
2, 22077, Note_on_c, 0, 62, 0
2, 22080, Note_on_c, 0, 70, 80
2, 22080, Note_on_c, 0, 65, 80
2, 22080, Note_on_c, 0, 62, 80
2, 22119, Note_on_c, 0, 70, 0
2, 22119, Note_on_c, 0, 65, 0
2, 22119, Note_on_c, 0, 62, 0
2, 22176, Note_on_c, 0, 70, 80
2, 22176, Note_on_c, 0, 65, 80
2, 22176, Note_on_c, 0, 62, 80
2, 22215, Note_on_c, 0, 70, 0
2, 22215, Note_on_c, 0, 65, 0
2, 22215, Note_on_c, 0, 62, 0
2, 22272, Note_on_c, 0, 75, 96
2, 22272, Note_on_c, 0, 72, 96
2, 22272, Note_on_c, 0, 69, 96
2, 22416, Note_on_c, 0, 75, 0
2, 22416, Note_on_c, 0, 72, 0
2, 22416, Note_on_c, 0, 69, 0
2, 22416, Note_on_c, 0, 69, 78
2, 22416, Note_on_c, 0, 65, 78
2, 22416, Note_on_c, 0, 63, 78
2, 22461, Note_on_c, 0, 69, 0
2, 22461, Note_on_c, 0, 65, 0
2, 22461, Note_on_c, 0, 63, 0
2, 22464, Note_on_c, 0, 70, 77
2, 22464, Note_on_c, 0, 65, 77
2, 22464, Note_on_c, 0, 62, 77
2, 22503, Note_on_c, 0, 70, 0
2, 22503, Note_on_c, 0, 65, 0
2, 22503, Note_on_c, 0, 62, 0
2, 22560, Note_on_c, 0, 70, 76
2, 22560, Note_on_c, 0, 65, 76
2, 22560, Note_on_c, 0, 62, 76
2, 22599, Note_on_c, 0, 70, 0
2, 22599, Note_on_c, 0, 65, 0
2, 22599, Note_on_c, 0, 62, 0
2, 22656, Note_on_c, 0, 75, 91
2, 22656, Note_on_c, 0, 72, 91
2, 22656, Note_on_c, 0, 69, 91
2, 22800, Note_on_c, 0, 75, 0
2, 22800, Note_on_c, 0, 72, 0
2, 22800, Note_on_c, 0, 69, 0
2, 22800, Note_on_c, 0, 69, 72
2, 22800, Note_on_c, 0, 65, 72
2, 22800, Note_on_c, 0, 63, 72
2, 22845, Note_on_c, 0, 69, 0
2, 22845, Note_on_c, 0, 65, 0
2, 22845, Note_on_c, 0, 63, 0
2, 22848, Note_on_c, 0, 70, 71
2, 22848, Note_on_c, 0, 65, 71
2, 22848, Note_on_c, 0, 62, 71
2, 22887, Note_on_c, 0, 70, 0
2, 22887, Note_on_c, 0, 65, 0
2, 22887, Note_on_c, 0, 62, 0
2, 22944, Note_on_c, 0, 84, 97
2, 22956, Note_on_c, 0, 84, 0
2, 22956, Note_on_c, 0, 82, 97
2, 22968, Note_on_c, 0, 82, 0
2, 22968, Note_on_c, 0, 81, 97
2, 22980, Note_on_c, 0, 81, 0
2, 22980, Note_on_c, 0, 82, 113
2, 23070, Note_on_c, 0, 82, 0
2, 23072, Note_on_c, 0, 86, 80
2, 23102, Note_on_c, 0, 86, 0
2, 23104, Note_on_c, 0, 84, 80
2, 23134, Note_on_c, 0, 84, 0
2, 23136, Note_on_c, 0, 82, 80
2, 23166, Note_on_c, 0, 82, 0
2, 23168, Note_on_c, 0, 84, 80
2, 23198, Note_on_c, 0, 84, 0
2, 23200, Note_on_c, 0, 86, 80
2, 23230, Note_on_c, 0, 86, 0
2, 23232, Note_on_c, 0, 79, 80
2, 23262, Note_on_c, 0, 79, 0
2, 23264, Note_on_c, 0, 82, 80
2, 23294, Note_on_c, 0, 82, 0
2, 23296, Note_on_c, 0, 81, 80
2, 23326, Note_on_c, 0, 81, 0
2, 23328, Note_on_c, 0, 79, 80
2, 23358, Note_on_c, 0, 79, 0
2, 23360, Note_on_c, 0, 81, 80
2, 23390, Note_on_c, 0, 81, 0
2, 23392, Note_on_c, 0, 82, 80
2, 23422, Note_on_c, 0, 82, 0
2, 23424, Note_on_c, 0, 75, 70
2, 23454, Note_on_c, 0, 75, 0
2, 23456, Note_on_c, 0, 79, 70
2, 23486, Note_on_c, 0, 79, 0
2, 23488, Note_on_c, 0, 77, 70
2, 23518, Note_on_c, 0, 77, 0
2, 23520, Note_on_c, 0, 75, 71
2, 23550, Note_on_c, 0, 75, 0
2, 23552, Note_on_c, 0, 77, 71
2, 23582, Note_on_c, 0, 77, 0
2, 23584, Note_on_c, 0, 79, 71
2, 23614, Note_on_c, 0, 79, 0
2, 23616, Note_on_c, 0, 72, 72
2, 23646, Note_on_c, 0, 72, 0
2, 23648, Note_on_c, 0, 75, 72
2, 23678, Note_on_c, 0, 75, 0
2, 23680, Note_on_c, 0, 74, 73
2, 23710, Note_on_c, 0, 74, 0
2, 23712, Note_on_c, 0, 72, 73
2, 23742, Note_on_c, 0, 72, 0
2, 23744, Note_on_c, 0, 74, 73
2, 23774, Note_on_c, 0, 74, 0
2, 23776, Note_on_c, 0, 75, 74
2, 23806, Note_on_c, 0, 75, 0
2, 23808, Control_c, 0, 64, 127
2, 23832, Note_on_c, 0, 57, 75
2, 23855, Note_on_c, 0, 57, 0
2, 23856, Note_on_c, 0, 60, 75
2, 23879, Note_on_c, 0, 60, 0
2, 23880, Note_on_c, 0, 57, 75
2, 23903, Note_on_c, 0, 57, 0
2, 23928, Note_on_c, 0, 60, 75
2, 23951, Note_on_c, 0, 60, 0
2, 23952, Note_on_c, 0, 65, 75
2, 23975, Note_on_c, 0, 65, 0
2, 23976, Note_on_c, 0, 60, 75
2, 23999, Note_on_c, 0, 60, 0
2, 24024, Note_on_c, 0, 65, 75
2, 24047, Note_on_c, 0, 65, 0
2, 24048, Note_on_c, 0, 69, 75
2, 24071, Note_on_c, 0, 69, 0
2, 24072, Note_on_c, 0, 65, 75
2, 24095, Note_on_c, 0, 65, 0
2, 24120, Note_on_c, 0, 69, 75
2, 24143, Note_on_c, 0, 69, 0
2, 24144, Note_on_c, 0, 72, 75
2, 24167, Note_on_c, 0, 72, 0
2, 24168, Note_on_c, 0, 69, 75
2, 24192, Note_on_c, 0, 75, 91
2, 24192, Note_on_c, 0, 72, 91
2, 24480, Note_on_c, 0, 75, 0
2, 24480, Note_on_c, 0, 72, 0
2, 24480, Note_on_c, 0, 69, 0
2, 24480, Control_c, 0, 64, 0
2, 24576, Control_c, 0, 64, 127
2, 24600, Note_on_c, 0, 66, 75
2, 24623, Note_on_c, 0, 66, 0
2, 24624, Note_on_c, 0, 69, 75
2, 24647, Note_on_c, 0, 69, 0
2, 24648, Note_on_c, 0, 66, 75
2, 24671, Note_on_c, 0, 66, 0
2, 24696, Note_on_c, 0, 69, 75
2, 24719, Note_on_c, 0, 69, 0
2, 24720, Note_on_c, 0, 72, 75
2, 24743, Note_on_c, 0, 72, 0
2, 24744, Note_on_c, 0, 69, 75
2, 24767, Note_on_c, 0, 69, 0
2, 24792, Note_on_c, 0, 72, 75
2, 24815, Note_on_c, 0, 72, 0
2, 24816, Note_on_c, 0, 78, 75
2, 24839, Note_on_c, 0, 78, 0
2, 24840, Note_on_c, 0, 72, 75
2, 24863, Note_on_c, 0, 72, 0
2, 24888, Note_on_c, 0, 78, 75
2, 24911, Note_on_c, 0, 78, 0
2, 24912, Note_on_c, 0, 81, 75
2, 24935, Note_on_c, 0, 81, 0
2, 24936, Note_on_c, 0, 78, 75
2, 24960, Note_on_c, 0, 84, 91
2, 24960, Note_on_c, 0, 81, 91
2, 25248, Note_on_c, 0, 84, 0
2, 25248, Note_on_c, 0, 81, 0
2, 25248, Note_on_c, 0, 78, 0
2, 25248, Control_c, 0, 64, 0
2, 25344, Control_c, 0, 64, 127
2, 25368, Note_on_c, 0, 62, 75
2, 25391, Note_on_c, 0, 62, 0
2, 25392, Note_on_c, 0, 67, 75
2, 25415, Note_on_c, 0, 67, 0
2, 25416, Note_on_c, 0, 62, 75
2, 25439, Note_on_c, 0, 62, 0
2, 25464, Note_on_c, 0, 67, 75
2, 25487, Note_on_c, 0, 67, 0
2, 25488, Note_on_c, 0, 70, 75
2, 25511, Note_on_c, 0, 70, 0
2, 25512, Note_on_c, 0, 67, 75
2, 25535, Note_on_c, 0, 67, 0
2, 25560, Note_on_c, 0, 70, 75
2, 25583, Note_on_c, 0, 70, 0
2, 25584, Note_on_c, 0, 74, 75
2, 25607, Note_on_c, 0, 74, 0
2, 25608, Note_on_c, 0, 70, 75
2, 25631, Note_on_c, 0, 70, 0
2, 25656, Note_on_c, 0, 74, 75
2, 25679, Note_on_c, 0, 74, 0
2, 25680, Note_on_c, 0, 79, 75
2, 25703, Note_on_c, 0, 79, 0
2, 25704, Note_on_c, 0, 74, 75
2, 25728, Note_on_c, 0, 82, 91
2, 25728, Note_on_c, 0, 79, 91
2, 26016, Note_on_c, 0, 82, 0
2, 26016, Note_on_c, 0, 79, 0
2, 26016, Note_on_c, 0, 74, 0
2, 26016, Control_c, 0, 64, 0
2, 26136, Note_on_c, 0, 67, 75
2, 26159, Note_on_c, 0, 67, 0
2, 26160, Note_on_c, 0, 70, 75
2, 26183, Note_on_c, 0, 70, 0
2, 26184, Note_on_c, 0, 67, 75
2, 26207, Note_on_c, 0, 67, 0
2, 26232, Note_on_c, 0, 70, 75
2, 26255, Note_on_c, 0, 70, 0
2, 26256, Note_on_c, 0, 76, 75
2, 26279, Note_on_c, 0, 76, 0
2, 26280, Note_on_c, 0, 70, 75
2, 26303, Note_on_c, 0, 70, 0
2, 26328, Note_on_c, 0, 76, 75
2, 26351, Note_on_c, 0, 76, 0
2, 26352, Note_on_c, 0, 79, 75
2, 26375, Note_on_c, 0, 79, 0
2, 26376, Note_on_c, 0, 76, 75
2, 26399, Note_on_c, 0, 76, 0
2, 26424, Note_on_c, 0, 79, 75
2, 26447, Note_on_c, 0, 79, 0
2, 26448, Note_on_c, 0, 82, 75
2, 26471, Note_on_c, 0, 82, 0
2, 26472, Note_on_c, 0, 79, 75
2, 26496, Note_on_c, 0, 85, 91
2, 26496, Note_on_c, 0, 82, 91
2, 26784, Note_on_c, 0, 85, 0
2, 26784, Note_on_c, 0, 82, 0
2, 26784, Note_on_c, 0, 79, 0
2, 26784, Control_c, 0, 64, 0
2, 27168, Note_on_c, 0, 77, 75
2, 27207, Note_on_c, 0, 77, 0
2, 27360, Note_on_c, 0, 84, 75
2, 27399, Note_on_c, 0, 84, 0
2, 27552, Note_on_c, 0, 82, 75
2, 27575, Note_on_c, 0, 82, 0
2, 27576, Note_on_c, 0, 81, 75
2, 27599, Note_on_c, 0, 81, 0
2, 27600, Note_on_c, 0, 79, 75
2, 27623, Note_on_c, 0, 79, 0
2, 27624, Note_on_c, 0, 77, 75
2, 27647, Note_on_c, 0, 77, 0
2, 27648, Note_on_c, 0, 76, 75
2, 27687, Note_on_c, 0, 76, 0
2, 27744, Note_on_c, 0, 82, 91
2, 27936, Note_on_c, 0, 82, 0
2, 27936, Note_on_c, 0, 81, 75
2, 27959, Note_on_c, 0, 81, 0
2, 27960, Note_on_c, 0, 79, 75
2, 27983, Note_on_c, 0, 79, 0
2, 27984, Note_on_c, 0, 77, 75
2, 28007, Note_on_c, 0, 77, 0
2, 28008, Note_on_c, 0, 76, 75
2, 28031, Note_on_c, 0, 76, 0
2, 28032, Note_on_c, 0, 77, 75
2, 28099, Note_on_c, 0, 77, 0
2, 28104, Note_on_c, 0, 72, 75
2, 28127, Note_on_c, 0, 72, 0
2, 28128, Note_on_c, 0, 81, 76
2, 28195, Note_on_c, 0, 81, 0
2, 28200, Note_on_c, 0, 77, 76
2, 28223, Note_on_c, 0, 77, 0
2, 28224, Note_on_c, 0, 84, 77
2, 28291, Note_on_c, 0, 84, 0
2, 28296, Note_on_c, 0, 81, 77
2, 28319, Note_on_c, 0, 81, 0
2, 28320, Note_on_c, 0, 89, 78
2, 28387, Note_on_c, 0, 89, 0
2, 28392, Note_on_c, 0, 84, 78
2, 28415, Note_on_c, 0, 84, 0
2, 28416, Note_on_c, 0, 85, 79
2, 28464, Note_on_c, 0, 85, 0
2, 28464, Note_on_c, 0, 86, 79
2, 28509, Note_on_c, 0, 86, 0
2, 28512, Note_on_c, 0, 86, 96
2, 28638, Note_on_c, 0, 86, 0
2, 28640, Note_on_c, 0, 79, 80
2, 28670, Note_on_c, 0, 79, 0
2, 28672, Note_on_c, 0, 81, 79
2, 28702, Note_on_c, 0, 81, 0
2, 28704, Note_on_c, 0, 82, 78
2, 28734, Note_on_c, 0, 82, 0
2, 28736, Note_on_c, 0, 81, 78
2, 28766, Note_on_c, 0, 81, 0
2, 28768, Note_on_c, 0, 79, 77
2, 28798, Note_on_c, 0, 79, 0
2, 28800, Note_on_c, 0, 79, 77
2, 28848, Note_on_c, 0, 79, 0
2, 28848, Note_on_c, 0, 77, 76
2, 28893, Note_on_c, 0, 77, 0
2, 28896, Note_on_c, 0, 77, 91
2, 29088, Note_on_c, 0, 77, 0
2, 29088, Note_on_c, 0, 81, 75
2, 29136, Note_on_c, 0, 81, 0
2, 29136, Note_on_c, 0, 79, 75
2, 29181, Note_on_c, 0, 79, 0
2, 29184, Note_on_c, 0, 77, 75
2, 29184, Note_on_c, 0, 69, 75
2, 29376, Note_on_c, 0, 69, 0
2, 29406, Note_on_c, 0, 77, 0
2, 29408, Note_on_c, 0, 79, 76
2, 29438, Note_on_c, 0, 79, 0
2, 29440, Note_on_c, 0, 81, 78
2, 29470, Note_on_c, 0, 81, 0
2, 29472, Note_on_c, 0, 82, 79
2, 29502, Note_on_c, 0, 82, 0
2, 29504, Note_on_c, 0, 81, 78
2, 29534, Note_on_c, 0, 81, 0
2, 29536, Note_on_c, 0, 79, 77
2, 29566, Note_on_c, 0, 79, 0
2, 29568, Note_on_c, 0, 72, 75
2, 29635, Note_on_c, 0, 72, 0
2, 29640, Note_on_c, 0, 69, 75
2, 29663, Note_on_c, 0, 69, 0
2, 29664, Note_on_c, 0, 65, 75
2, 29753, Note_on_c, 0, 65, 0
2, 29760, Note_on_c, 0, 67, 75
2, 29784, Note_on_c, 0, 67, 0
2, 29784, Note_on_c, 0, 65, 75
2, 29808, Note_on_c, 0, 65, 0
2, 29808, Note_on_c, 0, 64, 75
2, 29832, Note_on_c, 0, 64, 0
2, 29832, Note_on_c, 0, 65, 75
2, 29856, Note_on_c, 0, 65, 0
2, 29856, Note_on_c, 0, 69, 75
2, 29901, Note_on_c, 0, 69, 0
2, 29904, Note_on_c, 0, 67, 75
2, 29949, Note_on_c, 0, 67, 0
2, 29952, Note_on_c, 0, 65, 75
2, 30041, Note_on_c, 0, 65, 0
2, 30144, Note_on_c, 0, 63, 113
2, 30144, Note_on_c, 0, 60, 113
2, 30144, Note_on_c, 0, 57, 113
2, 30336, Note_on_c, 0, 63, 0
2, 30336, Note_on_c, 0, 60, 0
2, 30336, Note_on_c, 0, 57, 0
2, 30336, Note_on_c, 0, 62, 80
2, 30336, Note_on_c, 0, 58, 80
2, 30375, Note_on_c, 0, 62, 0
2, 30375, Note_on_c, 0, 58, 0
2, 30528, Note_on_c, 0, 64, 113
2, 30528, Note_on_c, 0, 58, 113
2, 30528, Note_on_c, 0, 55, 113
2, 30720, Note_on_c, 0, 64, 0
2, 30720, Note_on_c, 0, 58, 0
2, 30720, Note_on_c, 0, 55, 0
2, 30720, Note_on_c, 0, 65, 80
2, 30720, Note_on_c, 0, 60, 80
2, 30720, Note_on_c, 0, 57, 80
2, 30759, Note_on_c, 0, 65, 0
2, 30759, Note_on_c, 0, 60, 0
2, 30759, Note_on_c, 0, 57, 0
2, 30816, Note_on_c, 0, 63, 97
2, 30816, Note_on_c, 0, 60, 97
2, 30816, Note_on_c, 0, 57, 97
2, 30855, Note_on_c, 0, 63, 0
2, 30855, Note_on_c, 0, 60, 0
2, 30855, Note_on_c, 0, 57, 0
2, 31008, Note_on_c, 0, 62, 97
2, 31008, Note_on_c, 0, 58, 97
2, 31047, Note_on_c, 0, 62, 0
2, 31047, Note_on_c, 0, 58, 0
2, 31200, Note_on_c, 0, 64, 113
2, 31200, Note_on_c, 0, 58, 113
2, 31200, Note_on_c, 0, 55, 113
2, 31296, Note_on_c, 0, 64, 0
2, 31296, Note_on_c, 0, 58, 0
2, 31296, Note_on_c, 0, 55, 0
2, 31296, Note_on_c, 0, 65, 80
2, 31296, Note_on_c, 0, 60, 80
2, 31296, Note_on_c, 0, 57, 80
2, 31335, Note_on_c, 0, 65, 0
2, 31335, Note_on_c, 0, 60, 0
2, 31335, Note_on_c, 0, 57, 0
2, 31392, Note_on_c, 0, 73, 97
2, 31392, Note_on_c, 0, 70, 97
2, 31488, Note_on_c, 0, 73, 0
2, 31488, Note_on_c, 0, 70, 0
2, 31488, Note_on_c, 0, 72, 80
2, 31488, Note_on_c, 0, 69, 80
2, 31527, Note_on_c, 0, 72, 0
2, 31527, Note_on_c, 0, 69, 0
2, 31584, Note_on_c, 0, 76, 80
2, 31584, Note_on_c, 0, 70, 80
2, 31623, Note_on_c, 0, 76, 0
2, 31623, Note_on_c, 0, 70, 0
2, 31680, Note_on_c, 0, 77, 77
2, 31680, Note_on_c, 0, 69, 77
2, 31719, Note_on_c, 0, 77, 0
2, 31719, Note_on_c, 0, 69, 0
2, 31776, Note_on_c, 0, 61, 92
2, 31776, Note_on_c, 0, 58, 92
2, 31872, Note_on_c, 0, 61, 0
2, 31872, Note_on_c, 0, 58, 0
2, 31872, Note_on_c, 0, 60, 73
2, 31872, Note_on_c, 0, 57, 73
2, 31911, Note_on_c, 0, 60, 0
2, 31911, Note_on_c, 0, 57, 0
2, 31968, Note_on_c, 0, 64, 70
2, 31968, Note_on_c, 0, 58, 70
2, 32007, Note_on_c, 0, 64, 0
2, 32007, Note_on_c, 0, 58, 0
2, 32064, Note_on_c, 0, 65, 68
2, 32064, Note_on_c, 0, 57, 68
2, 32153, Note_on_c, 0, 65, 0
2, 32153, Note_on_c, 0, 57, 0
2, 32208, Note_on_c, 0, 84, 65
2, 32253, Note_on_c, 0, 84, 0
2, 32256, Note_on_c, 0, 84, 64
2, 32345, Note_on_c, 0, 84, 0
2, 32352, Note_on_c, 0, 83, 64
2, 32375, Note_on_c, 0, 83, 0
2, 32376, Note_on_c, 0, 84, 64
2, 32399, Note_on_c, 0, 84, 0
2, 32400, Note_on_c, 0, 86, 64
2, 32423, Note_on_c, 0, 86, 0
2, 32424, Note_on_c, 0, 84, 64
2, 32447, Note_on_c, 0, 84, 0
2, 32448, Note_on_c, 0, 77, 64
2, 32537, Note_on_c, 0, 77, 0
2, 32592, Note_on_c, 0, 65, 75
2, 32637, Note_on_c, 0, 65, 0
2, 32640, Note_on_c, 0, 60, 75
2, 32640, Note_on_c, 0, 57, 75
2, 32729, Note_on_c, 0, 60, 0
2, 32729, Note_on_c, 0, 57, 0
2, 32784, Note_on_c, 0, 65, 75
2, 32829, Note_on_c, 0, 65, 0
2, 32832, Note_on_c, 0, 62, 75
2, 32832, Note_on_c, 0, 58, 75
2, 32921, Note_on_c, 0, 62, 0
2, 32921, Note_on_c, 0, 58, 0
2, 32976, Note_on_c, 0, 65, 75
2, 33021, Note_on_c, 0, 65, 0
2, 33024, Note_on_c, 0, 60, 75
2, 33024, Note_on_c, 0, 57, 75
2, 33113, Note_on_c, 0, 60, 0
2, 33113, Note_on_c, 0, 57, 0
2, 33312, Note_on_c, 0, 74, 75
2, 33335, Note_on_c, 0, 74, 0
2, 33336, Note_on_c, 0, 72, 75
2, 33359, Note_on_c, 0, 72, 0
2, 33360, Note_on_c, 0, 70, 76
2, 33383, Note_on_c, 0, 70, 0
2, 33384, Note_on_c, 0, 69, 76
2, 33407, Note_on_c, 0, 69, 0
2, 33408, Note_on_c, 0, 67, 77
2, 33447, Note_on_c, 0, 67, 0
2, 33504, Note_on_c, 0, 76, 80
2, 33527, Note_on_c, 0, 76, 0
2, 33528, Note_on_c, 0, 74, 80
2, 33551, Note_on_c, 0, 74, 0
2, 33552, Note_on_c, 0, 72, 80
2, 33575, Note_on_c, 0, 72, 0
2, 33576, Note_on_c, 0, 70, 80
2, 33599, Note_on_c, 0, 70, 0
2, 33600, Note_on_c, 0, 69, 80
2, 33639, Note_on_c, 0, 69, 0
2, 33696, Note_on_c, 0, 72, 80
2, 33719, Note_on_c, 0, 72, 0
2, 33720, Note_on_c, 0, 70, 79
2, 33743, Note_on_c, 0, 70, 0
2, 33744, Note_on_c, 0, 69, 79
2, 33767, Note_on_c, 0, 69, 0
2, 33768, Note_on_c, 0, 67, 78
2, 33791, Note_on_c, 0, 67, 0
2, 33792, Note_on_c, 0, 65, 78
2, 33804, Note_on_c, 0, 65, 0
2, 33804, Note_on_c, 0, 67, 78
2, 33816, Note_on_c, 0, 67, 0
2, 33816, Note_on_c, 0, 65, 78
2, 33984, Note_on_c, 0, 65, 0
2, 33984, Note_on_c, 0, 64, 75
2, 34029, Note_on_c, 0, 64, 0
2, 34032, Note_on_c, 0, 77, 80
2, 34077, Note_on_c, 0, 77, 0
2, 34080, Note_on_c, 0, 76, 80
2, 34125, Note_on_c, 0, 76, 0
2, 34128, Note_on_c, 0, 77, 80
2, 34173, Note_on_c, 0, 77, 0
2, 34176, Note_on_c, 0, 72, 80
2, 34176, Note_on_c, 0, 68, 80
2, 34265, Note_on_c, 0, 72, 0
2, 34265, Note_on_c, 0, 68, 0
2, 34320, Note_on_c, 0, 72, 80
2, 34320, Note_on_c, 0, 68, 80
2, 34365, Note_on_c, 0, 72, 0
2, 34365, Note_on_c, 0, 68, 0
2, 34368, Note_on_c, 0, 73, 80
2, 34368, Note_on_c, 0, 70, 80
2, 34457, Note_on_c, 0, 73, 0
2, 34457, Note_on_c, 0, 70, 0
2, 34512, Note_on_c, 0, 73, 80
2, 34512, Note_on_c, 0, 70, 80
2, 34557, Note_on_c, 0, 73, 0
2, 34557, Note_on_c, 0, 70, 0
2, 34560, Note_on_c, 0, 72, 80
2, 34560, Note_on_c, 0, 68, 80
2, 34649, Note_on_c, 0, 72, 0
2, 34649, Note_on_c, 0, 68, 0
2, 34848, Note_on_c, 0, 77, 96
2, 34887, Note_on_c, 0, 77, 0
2, 34944, Note_on_c, 0, 65, 80
2, 34992, Note_on_c, 0, 65, 0
2, 34992, Note_on_c, 0, 70, 80
2, 35037, Note_on_c, 0, 70, 0
2, 35040, Note_on_c, 0, 73, 96
2, 35232, Note_on_c, 0, 73, 0
2, 35232, Note_on_c, 0, 70, 80
2, 35244, Note_on_c, 0, 70, 0
2, 35244, Note_on_c, 0, 72, 80
2, 35256, Note_on_c, 0, 72, 0
2, 35256, Note_on_c, 0, 70, 80
2, 35321, Note_on_c, 0, 70, 0
2, 35328, Note_on_c, 0, 68, 80
2, 35505, Note_on_c, 0, 68, 0
2, 35520, Note_on_c, 0, 69, 97
2, 35520, Note_on_c, 0, 63, 97
2, 35520, Note_on_c, 0, 60, 97
2, 35697, Note_on_c, 0, 69, 0
2, 35697, Note_on_c, 0, 63, 0
2, 35697, Note_on_c, 0, 60, 0
2, 35712, Note_on_c, 0, 70, 80
2, 35760, Note_on_c, 0, 70, 0
2, 35760, Note_on_c, 0, 73, 80
2, 35805, Note_on_c, 0, 73, 0
2, 35808, Note_on_c, 0, 77, 96
2, 36000, Note_on_c, 0, 77, 0
2, 36000, Note_on_c, 0, 71, 80
2, 36012, Note_on_c, 0, 71, 0
2, 36012, Note_on_c, 0, 72, 80
2, 36024, Note_on_c, 0, 72, 0
2, 36024, Note_on_c, 0, 71, 80
2, 36089, Note_on_c, 0, 71, 0
2, 36096, Note_on_c, 0, 72, 80
2, 36273, Note_on_c, 0, 72, 0
2, 36288, Note_on_c, 0, 73, 97
2, 36288, Note_on_c, 0, 67, 97
2, 36288, Note_on_c, 0, 64, 97
2, 36465, Note_on_c, 0, 73, 0
2, 36465, Note_on_c, 0, 67, 0
2, 36465, Note_on_c, 0, 64, 0
2, 36480, Note_on_c, 0, 74, 80
2, 36528, Note_on_c, 0, 74, 0
2, 36528, Note_on_c, 0, 77, 80
2, 36573, Note_on_c, 0, 77, 0
2, 36576, Note_on_c, 0, 81, 96
2, 36768, Note_on_c, 0, 81, 0
2, 36768, Note_on_c, 0, 74, 81
2, 36857, Note_on_c, 0, 74, 0
2, 36864, Note_on_c, 0, 75, 82
2, 36912, Note_on_c, 0, 75, 0
2, 36912, Note_on_c, 0, 79, 82
2, 36957, Note_on_c, 0, 79, 0
2, 36960, Note_on_c, 0, 82, 98
2, 37152, Note_on_c, 0, 82, 0
2, 37152, Note_on_c, 0, 76, 83
2, 37164, Note_on_c, 0, 76, 0
2, 37164, Note_on_c, 0, 77, 83
2, 37176, Note_on_c, 0, 77, 0
2, 37176, Note_on_c, 0, 76, 83
2, 37241, Note_on_c, 0, 76, 0
2, 37248, Note_on_c, 0, 77, 84
2, 37296, Note_on_c, 0, 77, 0
2, 37296, Note_on_c, 0, 80, 84
2, 37341, Note_on_c, 0, 80, 0
2, 37344, Note_on_c, 0, 84, 100
2, 37536, Note_on_c, 0, 84, 0
2, 37536, Note_on_c, 0, 78, 85
2, 37625, Note_on_c, 0, 78, 0
2, 37680, Note_on_c, 0, 79, 86
2, 37725, Note_on_c, 0, 79, 0
2, 37728, Note_on_c, 0, 67, 86
2, 37773, Note_on_c, 0, 67, 0
2, 37776, Note_on_c, 0, 79, 86
2, 37821, Note_on_c, 0, 79, 0
2, 37824, Note_on_c, 0, 67, 86
2, 37869, Note_on_c, 0, 67, 0
2, 37872, Note_on_c, 0, 79, 86
2, 37917, Note_on_c, 0, 79, 0
2, 37920, Note_on_c, 0, 67, 86
2, 37965, Note_on_c, 0, 67, 0
2, 37968, Note_on_c, 0, 79, 86
2, 38013, Note_on_c, 0, 79, 0
2, 38016, Note_on_c, 0, 67, 86
2, 38061, Note_on_c, 0, 67, 0
2, 38064, Note_on_c, 0, 79, 86
2, 38109, Note_on_c, 0, 79, 0
2, 38112, Note_on_c, 0, 67, 86
2, 38157, Note_on_c, 0, 67, 0
2, 38160, Note_on_c, 0, 79, 86
2, 38205, Note_on_c, 0, 79, 0
2, 38208, Note_on_c, 0, 67, 86
2, 38253, Note_on_c, 0, 67, 0
2, 38256, Note_on_c, 0, 79, 86
2, 38301, Note_on_c, 0, 79, 0
2, 38304, Note_on_c, 0, 67, 86
2, 38349, Note_on_c, 0, 67, 0
2, 38352, Note_on_c, 0, 79, 86
2, 38397, Note_on_c, 0, 79, 0
2, 38400, Note_on_c, 0, 67, 86
2, 38445, Note_on_c, 0, 67, 0
2, 38448, Note_on_c, 0, 79, 86
2, 38493, Note_on_c, 0, 79, 0
2, 38496, Note_on_c, 0, 67, 86
2, 38541, Note_on_c, 0, 67, 0
2, 38544, Note_on_c, 0, 79, 86
2, 38589, Note_on_c, 0, 79, 0
2, 38592, Note_on_c, 0, 67, 86
2, 38637, Note_on_c, 0, 67, 0
2, 38640, Note_on_c, 0, 79, 86
2, 38685, Note_on_c, 0, 79, 0
2, 38688, Note_on_c, 0, 68, 86
2, 38733, Note_on_c, 0, 68, 0
2, 38736, Note_on_c, 0, 80, 86
2, 38781, Note_on_c, 0, 80, 0
2, 38784, Note_on_c, 0, 69, 80
2, 38829, Note_on_c, 0, 69, 0
2, 38832, Note_on_c, 0, 81, 80
2, 38877, Note_on_c, 0, 81, 0
2, 38880, Note_on_c, 0, 69, 80
2, 38925, Note_on_c, 0, 69, 0
2, 38928, Note_on_c, 0, 81, 81
2, 38973, Note_on_c, 0, 81, 0
2, 38976, Note_on_c, 0, 70, 81
2, 39021, Note_on_c, 0, 70, 0
2, 39024, Note_on_c, 0, 82, 82
2, 39069, Note_on_c, 0, 82, 0
2, 39072, Note_on_c, 0, 70, 82
2, 39117, Note_on_c, 0, 70, 0
2, 39120, Note_on_c, 0, 82, 83
2, 39165, Note_on_c, 0, 82, 0
2, 39168, Note_on_c, 0, 71, 83
2, 39213, Note_on_c, 0, 71, 0
2, 39216, Note_on_c, 0, 83, 84
2, 39261, Note_on_c, 0, 83, 0
2, 39264, Note_on_c, 0, 71, 84
2, 39309, Note_on_c, 0, 71, 0
2, 39312, Note_on_c, 0, 83, 85
2, 39357, Note_on_c, 0, 83, 0
2, 39360, Note_on_c, 0, 72, 85
2, 39405, Note_on_c, 0, 72, 0
2, 39408, Note_on_c, 0, 84, 86
2, 39453, Note_on_c, 0, 84, 0
2, 39456, Note_on_c, 0, 84, 86
2, 39479, Note_on_c, 0, 84, 0
2, 39480, Note_on_c, 0, 82, 86
2, 39503, Note_on_c, 0, 82, 0
2, 39504, Note_on_c, 0, 80, 86
2, 39527, Note_on_c, 0, 80, 0
2, 39528, Note_on_c, 0, 79, 86
2, 39551, Note_on_c, 0, 79, 0
2, 39552, Note_on_c, 0, 77, 86
2, 39591, Note_on_c, 0, 77, 0
2, 39648, Note_on_c, 0, 80, 86
2, 39671, Note_on_c, 0, 80, 0
2, 39672, Note_on_c, 0, 79, 86
2, 39695, Note_on_c, 0, 79, 0
2, 39696, Note_on_c, 0, 77, 86
2, 39719, Note_on_c, 0, 77, 0
2, 39720, Note_on_c, 0, 75, 86
2, 39743, Note_on_c, 0, 75, 0
2, 39744, Note_on_c, 0, 74, 86
2, 39783, Note_on_c, 0, 74, 0
2, 39840, Note_on_c, 0, 77, 86
2, 39863, Note_on_c, 0, 77, 0
2, 39864, Note_on_c, 0, 75, 86
2, 39887, Note_on_c, 0, 75, 0
2, 39888, Note_on_c, 0, 74, 86
2, 39911, Note_on_c, 0, 74, 0
2, 39912, Note_on_c, 0, 72, 86
2, 39935, Note_on_c, 0, 72, 0
2, 39936, Note_on_c, 0, 71, 102
2, 40128, Note_on_c, 0, 71, 0
2, 40128, Note_on_c, 0, 72, 86
2, 40167, Note_on_c, 0, 72, 0
2, 40224, Note_on_c, 0, 73, 102
2, 40224, Note_on_c, 0, 69, 102
2, 40224, Note_on_c, 0, 67, 102
2, 40320, Note_on_c, 0, 73, 0
2, 40320, Note_on_c, 0, 67, 0
2, 40320, Note_on_c, 0, 74, 86
2, 40320, Note_on_c, 0, 65, 86
2, 40359, Note_on_c, 0, 74, 0
2, 40359, Note_on_c, 0, 69, 0
2, 40359, Note_on_c, 0, 65, 0
2, 40416, Note_on_c, 0, 74, 119
2, 40416, Note_on_c, 0, 69, 119
2, 40416, Note_on_c, 0, 65, 119
2, 40455, Note_on_c, 0, 74, 0
2, 40455, Note_on_c, 0, 69, 0
2, 40455, Note_on_c, 0, 65, 0
2, 40512, Note_on_c, 0, 74, 86
2, 40512, Note_on_c, 0, 68, 86
2, 40512, Note_on_c, 0, 65, 86
2, 40551, Note_on_c, 0, 74, 0
2, 40551, Note_on_c, 0, 68, 0
2, 40551, Note_on_c, 0, 65, 0
2, 40608, Note_on_c, 0, 74, 102
2, 40608, Note_on_c, 0, 68, 102
2, 40608, Note_on_c, 0, 65, 102
2, 40647, Note_on_c, 0, 74, 0
2, 40647, Note_on_c, 0, 68, 0
2, 40647, Note_on_c, 0, 65, 0
2, 40704, Note_on_c, 0, 75, 119
2, 40704, Note_on_c, 0, 70, 119
2, 40704, Note_on_c, 0, 67, 119
2, 40704, Note_on_c, 0, 63, 119
2, 40800, Note_on_c, 0, 75, 0
2, 40800, Note_on_c, 0, 70, 0
2, 40800, Note_on_c, 0, 67, 0
2, 40800, Note_on_c, 0, 63, 0
2, 40800, Note_on_c, 0, 63, 75
2, 40845, Note_on_c, 0, 63, 0
2, 40848, Note_on_c, 0, 75, 75
2, 40893, Note_on_c, 0, 75, 0
2, 40896, Note_on_c, 0, 63, 75
2, 40941, Note_on_c, 0, 63, 0
2, 40944, Note_on_c, 0, 75, 75
2, 40989, Note_on_c, 0, 75, 0
2, 40992, Note_on_c, 0, 63, 75
2, 41037, Note_on_c, 0, 63, 0
2, 41040, Note_on_c, 0, 75, 75
2, 41085, Note_on_c, 0, 75, 0
2, 41088, Note_on_c, 0, 63, 75
2, 41133, Note_on_c, 0, 63, 0
2, 41136, Note_on_c, 0, 75, 75
2, 41181, Note_on_c, 0, 75, 0
2, 41184, Note_on_c, 0, 63, 75
2, 41229, Note_on_c, 0, 63, 0
2, 41232, Note_on_c, 0, 75, 75
2, 41277, Note_on_c, 0, 75, 0
2, 41280, Note_on_c, 0, 63, 75
2, 41325, Note_on_c, 0, 63, 0
2, 41328, Note_on_c, 0, 75, 75
2, 41373, Note_on_c, 0, 75, 0
2, 41376, Note_on_c, 0, 63, 75
2, 41421, Note_on_c, 0, 63, 0
2, 41424, Note_on_c, 0, 75, 75
2, 41469, Note_on_c, 0, 75, 0
2, 41472, Note_on_c, 0, 63, 75
2, 41517, Note_on_c, 0, 63, 0
2, 41520, Note_on_c, 0, 75, 75
2, 41565, Note_on_c, 0, 75, 0
2, 41568, Note_on_c, 0, 63, 75
2, 41613, Note_on_c, 0, 63, 0
2, 41616, Note_on_c, 0, 75, 75
2, 41661, Note_on_c, 0, 75, 0
2, 41664, Note_on_c, 0, 63, 75
2, 41709, Note_on_c, 0, 63, 0
2, 41712, Note_on_c, 0, 75, 75
2, 41757, Note_on_c, 0, 75, 0
2, 41760, Note_on_c, 0, 64, 75
2, 41805, Note_on_c, 0, 64, 0
2, 41808, Note_on_c, 0, 76, 75
2, 41853, Note_on_c, 0, 76, 0
2, 41856, Note_on_c, 0, 65, 75
2, 41901, Note_on_c, 0, 65, 0
2, 41904, Note_on_c, 0, 77, 75
2, 41949, Note_on_c, 0, 77, 0
2, 41952, Note_on_c, 0, 65, 75
2, 41997, Note_on_c, 0, 65, 0
2, 42000, Note_on_c, 0, 77, 76
2, 42045, Note_on_c, 0, 77, 0
2, 42048, Note_on_c, 0, 65, 76
2, 42093, Note_on_c, 0, 65, 0
2, 42096, Note_on_c, 0, 77, 76
2, 42141, Note_on_c, 0, 77, 0
2, 42144, Note_on_c, 0, 66, 77
2, 42189, Note_on_c, 0, 66, 0
2, 42192, Note_on_c, 0, 78, 77
2, 42237, Note_on_c, 0, 78, 0
2, 42240, Note_on_c, 0, 67, 78
2, 42285, Note_on_c, 0, 67, 0
2, 42288, Note_on_c, 0, 79, 78
2, 42333, Note_on_c, 0, 79, 0
2, 42336, Note_on_c, 0, 67, 78
2, 42381, Note_on_c, 0, 67, 0
2, 42384, Note_on_c, 0, 79, 79
2, 42429, Note_on_c, 0, 79, 0
2, 42432, Note_on_c, 0, 67, 79
2, 42477, Note_on_c, 0, 67, 0
2, 42480, Note_on_c, 0, 79, 80
2, 42525, Note_on_c, 0, 79, 0
2, 42528, Note_on_c, 0, 79, 80
2, 42551, Note_on_c, 0, 79, 0
2, 42552, Note_on_c, 0, 77, 80
2, 42575, Note_on_c, 0, 77, 0
2, 42576, Note_on_c, 0, 75, 80
2, 42599, Note_on_c, 0, 75, 0
2, 42600, Note_on_c, 0, 74, 80
2, 42623, Note_on_c, 0, 74, 0
2, 42624, Note_on_c, 0, 72, 80
2, 42663, Note_on_c, 0, 72, 0
2, 42720, Note_on_c, 0, 75, 80
2, 42743, Note_on_c, 0, 75, 0
2, 42744, Note_on_c, 0, 74, 80
2, 42767, Note_on_c, 0, 74, 0
2, 42768, Note_on_c, 0, 72, 80
2, 42791, Note_on_c, 0, 72, 0
2, 42792, Note_on_c, 0, 70, 80
2, 42815, Note_on_c, 0, 70, 0
2, 42816, Note_on_c, 0, 68, 80
2, 42855, Note_on_c, 0, 68, 0
2, 42912, Note_on_c, 0, 72, 80
2, 42935, Note_on_c, 0, 72, 0
2, 42936, Note_on_c, 0, 70, 80
2, 42959, Note_on_c, 0, 70, 0
2, 42960, Note_on_c, 0, 68, 80
2, 42983, Note_on_c, 0, 68, 0
2, 42984, Note_on_c, 0, 67, 80
2, 43007, Note_on_c, 0, 67, 0
2, 43008, Note_on_c, 0, 66, 80
2, 43200, Note_on_c, 0, 66, 0
2, 43200, Note_on_c, 0, 67, 80
2, 43239, Note_on_c, 0, 67, 0
2, 43296, Note_on_c, 0, 70, 96
2, 43296, Note_on_c, 0, 67, 96
2, 43392, Note_on_c, 0, 70, 0
2, 43392, Note_on_c, 0, 72, 80
2, 43392, Note_on_c, 0, 63, 80
2, 43431, Note_on_c, 0, 72, 0
2, 43431, Note_on_c, 0, 67, 0
2, 43431, Note_on_c, 0, 63, 0
2, 43488, Note_on_c, 0, 72, 113
2, 43488, Note_on_c, 0, 67, 113
2, 43488, Note_on_c, 0, 63, 113
2, 43527, Note_on_c, 0, 72, 0
2, 43527, Note_on_c, 0, 67, 0
2, 43527, Note_on_c, 0, 63, 0
2, 43584, Note_on_c, 0, 73, 80
2, 43584, Note_on_c, 0, 69, 80
2, 43584, Note_on_c, 0, 67, 80
2, 43584, Note_on_c, 0, 64, 80
2, 43623, Note_on_c, 0, 73, 0
2, 43623, Note_on_c, 0, 69, 0
2, 43623, Note_on_c, 0, 67, 0
2, 43623, Note_on_c, 0, 64, 0
2, 43680, Note_on_c, 0, 73, 99
2, 43680, Note_on_c, 0, 69, 99
2, 43680, Note_on_c, 0, 67, 99
2, 43680, Note_on_c, 0, 64, 99
2, 43719, Note_on_c, 0, 73, 0
2, 43719, Note_on_c, 0, 69, 0
2, 43719, Note_on_c, 0, 67, 0
2, 43719, Note_on_c, 0, 64, 0
2, 43776, Note_on_c, 0, 74, 119
2, 43776, Note_on_c, 0, 69, 119
2, 43776, Note_on_c, 0, 66, 119
2, 43968, Note_on_c, 0, 74, 0
2, 43968, Note_on_c, 0, 69, 0
2, 43968, Note_on_c, 0, 66, 0
2, 44112, Note_on_c, 0, 70, 75
2, 44157, Note_on_c, 0, 70, 0
2, 44160, Note_on_c, 0, 65, 75
2, 44160, Note_on_c, 0, 62, 75
2, 44249, Note_on_c, 0, 65, 0
2, 44249, Note_on_c, 0, 62, 0
2, 44304, Note_on_c, 0, 70, 75
2, 44349, Note_on_c, 0, 70, 0
2, 44352, Note_on_c, 0, 67, 75
2, 44352, Note_on_c, 0, 63, 75
2, 44441, Note_on_c, 0, 67, 0
2, 44441, Note_on_c, 0, 63, 0
2, 44496, Note_on_c, 0, 70, 75
2, 44541, Note_on_c, 0, 70, 0
2, 44544, Note_on_c, 0, 65, 75
2, 44544, Note_on_c, 0, 62, 75
2, 44633, Note_on_c, 0, 65, 0
2, 44633, Note_on_c, 0, 62, 0
2, 44832, Note_on_c, 0, 79, 75
2, 44855, Note_on_c, 0, 79, 0
2, 44856, Note_on_c, 0, 77, 75
2, 44879, Note_on_c, 0, 77, 0
2, 44880, Note_on_c, 0, 75, 76
2, 44903, Note_on_c, 0, 75, 0
2, 44904, Note_on_c, 0, 74, 76
2, 44927, Note_on_c, 0, 74, 0
2, 44928, Note_on_c, 0, 72, 77
2, 44967, Note_on_c, 0, 72, 0
2, 45024, Note_on_c, 0, 81, 80
2, 45047, Note_on_c, 0, 81, 0
2, 45048, Note_on_c, 0, 79, 80
2, 45071, Note_on_c, 0, 79, 0
2, 45072, Note_on_c, 0, 77, 80
2, 45095, Note_on_c, 0, 77, 0
2, 45096, Note_on_c, 0, 75, 80
2, 45119, Note_on_c, 0, 75, 0
2, 45120, Note_on_c, 0, 74, 80
2, 45159, Note_on_c, 0, 74, 0
2, 45216, Note_on_c, 0, 77, 80
2, 45239, Note_on_c, 0, 77, 0
2, 45240, Note_on_c, 0, 75, 80
2, 45263, Note_on_c, 0, 75, 0
2, 45264, Note_on_c, 0, 74, 80
2, 45287, Note_on_c, 0, 74, 0
2, 45288, Note_on_c, 0, 72, 80
2, 45311, Note_on_c, 0, 72, 0
2, 45312, Note_on_c, 0, 70, 80
2, 45504, Note_on_c, 0, 70, 0
2, 45504, Note_on_c, 0, 69, 80
2, 45549, Note_on_c, 0, 69, 0
2, 45552, Note_on_c, 0, 82, 80
2, 45597, Note_on_c, 0, 82, 0
2, 45600, Note_on_c, 0, 81, 80
2, 45645, Note_on_c, 0, 81, 0
2, 45648, Note_on_c, 0, 82, 80
2, 45693, Note_on_c, 0, 82, 0
2, 45696, Note_on_c, 0, 77, 80
2, 45696, Note_on_c, 0, 74, 80
2, 45785, Note_on_c, 0, 77, 0
2, 45785, Note_on_c, 0, 74, 0
2, 45840, Note_on_c, 0, 82, 80
2, 45885, Note_on_c, 0, 82, 0
2, 45888, Note_on_c, 0, 79, 80
2, 45888, Note_on_c, 0, 75, 80
2, 45977, Note_on_c, 0, 79, 0
2, 45977, Note_on_c, 0, 75, 0
2, 46032, Note_on_c, 0, 82, 80
2, 46077, Note_on_c, 0, 82, 0
2, 46080, Note_on_c, 0, 77, 80
2, 46080, Note_on_c, 0, 74, 80
2, 46169, Note_on_c, 0, 77, 0
2, 46169, Note_on_c, 0, 74, 0
2, 46368, Note_on_c, 0, 79, 80
2, 46380, Note_on_c, 0, 79, 0
2, 46380, Note_on_c, 0, 81, 80
2, 46392, Note_on_c, 0, 81, 0
2, 46392, Note_on_c, 0, 82, 96
2, 46464, Note_on_c, 0, 82, 0
2, 46464, Note_on_c, 0, 72, 75
2, 46512, Note_on_c, 0, 72, 0
2, 46512, Note_on_c, 0, 75, 77
2, 46557, Note_on_c, 0, 75, 0
2, 46560, Note_on_c, 0, 79, 80
2, 46737, Note_on_c, 0, 79, 0
2, 46752, Note_on_c, 0, 69, 76
2, 46752, Note_on_c, 0, 63, 76
2, 46841, Note_on_c, 0, 69, 0
2, 46841, Note_on_c, 0, 63, 0
2, 46848, Note_on_c, 0, 70, 75
2, 46848, Note_on_c, 0, 62, 75
2, 46937, Note_on_c, 0, 70, 0
2, 46937, Note_on_c, 0, 62, 0
2, 47136, Note_on_c, 0, 70, 75
2, 47136, Note_on_c, 0, 62, 75
2, 47175, Note_on_c, 0, 70, 0
2, 47175, Note_on_c, 0, 62, 0
2, 47232, Note_on_c, 0, 72, 91
2, 47232, Note_on_c, 0, 63, 91
2, 47328, Note_on_c, 0, 72, 0
2, 47328, Note_on_c, 0, 63, 0
2, 47328, Note_on_c, 0, 70, 76
2, 47328, Note_on_c, 0, 62, 76
2, 47367, Note_on_c, 0, 70, 0
2, 47367, Note_on_c, 0, 62, 0
2, 47424, Note_on_c, 0, 74, 77
2, 47424, Note_on_c, 0, 65, 77
2, 47520, Note_on_c, 0, 74, 0
2, 47520, Note_on_c, 0, 65, 0
2, 47520, Note_on_c, 0, 72, 78
2, 47520, Note_on_c, 0, 63, 78
2, 47559, Note_on_c, 0, 72, 0
2, 47559, Note_on_c, 0, 63, 0
2, 47616, Note_on_c, 0, 75, 96
2, 47616, Note_on_c, 0, 67, 96
2, 47760, Note_on_c, 0, 75, 0
2, 47760, Note_on_c, 0, 67, 0
2, 47760, Note_on_c, 0, 74, 77
2, 47760, Note_on_c, 0, 65, 77
2, 47805, Note_on_c, 0, 74, 0
2, 47805, Note_on_c, 0, 65, 0
2, 47808, Note_on_c, 0, 72, 76
2, 47808, Note_on_c, 0, 63, 76
2, 47847, Note_on_c, 0, 72, 0
2, 47847, Note_on_c, 0, 63, 0
2, 47904, Note_on_c, 0, 74, 75
2, 47904, Note_on_c, 0, 70, 75
2, 47943, Note_on_c, 0, 74, 0
2, 47943, Note_on_c, 0, 70, 0
2, 48000, Note_on_c, 0, 75, 91
2, 48000, Note_on_c, 0, 72, 91
2, 48096, Note_on_c, 0, 75, 0
2, 48096, Note_on_c, 0, 72, 0
2, 48096, Note_on_c, 0, 74, 76
2, 48096, Note_on_c, 0, 70, 76
2, 48135, Note_on_c, 0, 74, 0
2, 48135, Note_on_c, 0, 70, 0
2, 48192, Note_on_c, 0, 77, 77
2, 48192, Note_on_c, 0, 74, 77
2, 48288, Note_on_c, 0, 77, 0
2, 48288, Note_on_c, 0, 74, 0
2, 48288, Note_on_c, 0, 75, 78
2, 48288, Note_on_c, 0, 72, 78
2, 48327, Note_on_c, 0, 75, 0
2, 48327, Note_on_c, 0, 72, 0
2, 48384, Note_on_c, 0, 79, 96
2, 48384, Note_on_c, 0, 75, 96
2, 48528, Note_on_c, 0, 79, 0
2, 48528, Note_on_c, 0, 75, 0
2, 48528, Note_on_c, 0, 77, 77
2, 48528, Note_on_c, 0, 74, 77
2, 48573, Note_on_c, 0, 77, 0
2, 48573, Note_on_c, 0, 74, 0
2, 48576, Note_on_c, 0, 75, 76
2, 48576, Note_on_c, 0, 72, 76
2, 48615, Note_on_c, 0, 75, 0
2, 48615, Note_on_c, 0, 72, 0
2, 48672, Note_on_c, 0, 77, 75
2, 48672, Note_on_c, 0, 74, 75
2, 48711, Note_on_c, 0, 77, 0
2, 48711, Note_on_c, 0, 74, 0
2, 48768, Note_on_c, 0, 79, 91
2, 48768, Note_on_c, 0, 75, 91
2, 48864, Note_on_c, 0, 79, 0
2, 48864, Note_on_c, 0, 75, 0
2, 48864, Note_on_c, 0, 77, 76
2, 48864, Note_on_c, 0, 74, 76
2, 48903, Note_on_c, 0, 77, 0
2, 48903, Note_on_c, 0, 74, 0
2, 48960, Note_on_c, 0, 80, 77
2, 48960, Note_on_c, 0, 77, 77
2, 49056, Note_on_c, 0, 80, 0
2, 49056, Note_on_c, 0, 77, 0
2, 49056, Note_on_c, 0, 79, 78
2, 49056, Note_on_c, 0, 75, 78
2, 49095, Note_on_c, 0, 79, 0
2, 49095, Note_on_c, 0, 75, 0
2, 49152, Note_on_c, 0, 81, 96
2, 49152, Note_on_c, 0, 75, 96
2, 49152, Note_on_c, 0, 72, 96
2, 49296, Note_on_c, 0, 81, 0
2, 49296, Note_on_c, 0, 75, 0
2, 49296, Note_on_c, 0, 72, 0
2, 49296, Note_on_c, 0, 82, 80
2, 49296, Note_on_c, 0, 77, 80
2, 49296, Note_on_c, 0, 74, 80
2, 49341, Note_on_c, 0, 82, 0
2, 49341, Note_on_c, 0, 77, 0
2, 49341, Note_on_c, 0, 74, 0
2, 49344, Note_on_c, 0, 82, 80
2, 49344, Note_on_c, 0, 77, 80
2, 49344, Note_on_c, 0, 74, 80
2, 49383, Note_on_c, 0, 82, 0
2, 49383, Note_on_c, 0, 77, 0
2, 49383, Note_on_c, 0, 74, 0
2, 49440, Note_on_c, 0, 70, 80
2, 49440, Note_on_c, 0, 65, 80
2, 49440, Note_on_c, 0, 62, 80
2, 49479, Note_on_c, 0, 70, 0
2, 49479, Note_on_c, 0, 65, 0
2, 49479, Note_on_c, 0, 62, 0
2, 49536, Note_on_c, 0, 69, 96
2, 49536, Note_on_c, 0, 63, 96
2, 49536, Note_on_c, 0, 60, 96
2, 49680, Note_on_c, 0, 69, 0
2, 49680, Note_on_c, 0, 63, 0
2, 49680, Note_on_c, 0, 60, 0
2, 49680, Note_on_c, 0, 70, 80
2, 49680, Note_on_c, 0, 65, 80
2, 49680, Note_on_c, 0, 62, 80
2, 49725, Note_on_c, 0, 70, 0
2, 49725, Note_on_c, 0, 65, 0
2, 49725, Note_on_c, 0, 62, 0
2, 49728, Note_on_c, 0, 70, 80
2, 49728, Note_on_c, 0, 65, 80
2, 49728, Note_on_c, 0, 62, 80
2, 49767, Note_on_c, 0, 70, 0
2, 49767, Note_on_c, 0, 65, 0
2, 49767, Note_on_c, 0, 62, 0
2, 49824, Note_on_c, 0, 65, 80
2, 49824, Note_on_c, 0, 62, 80
2, 49863, Note_on_c, 0, 65, 0
2, 49863, Note_on_c, 0, 62, 0
2, 49920, Note_on_c, 0, 68, 96
2, 49920, Note_on_c, 0, 65, 96
2, 49920, Note_on_c, 0, 62, 96
2, 50064, Note_on_c, 0, 68, 0
2, 50064, Note_on_c, 0, 65, 0
2, 50064, Note_on_c, 0, 62, 0
2, 50064, Note_on_c, 0, 67, 80
2, 50064, Note_on_c, 0, 63, 80
2, 50109, Note_on_c, 0, 67, 0
2, 50109, Note_on_c, 0, 63, 0
2, 50112, Note_on_c, 0, 67, 96
2, 50112, Note_on_c, 0, 63, 96
2, 50151, Note_on_c, 0, 67, 0
2, 50151, Note_on_c, 0, 63, 0
2, 50208, Note_on_c, 0, 72, 80
2, 50208, Note_on_c, 0, 67, 80
2, 50208, Note_on_c, 0, 63, 80
2, 50247, Note_on_c, 0, 72, 0
2, 50247, Note_on_c, 0, 67, 0
2, 50247, Note_on_c, 0, 63, 0
2, 50304, Note_on_c, 0, 71, 97
2, 50304, Note_on_c, 0, 67, 97
2, 50304, Note_on_c, 0, 65, 97
2, 50448, Note_on_c, 0, 71, 0
2, 50448, Note_on_c, 0, 67, 0
2, 50448, Note_on_c, 0, 65, 0
2, 50448, Note_on_c, 0, 72, 81
2, 50448, Note_on_c, 0, 67, 81
2, 50448, Note_on_c, 0, 63, 81
2, 50493, Note_on_c, 0, 72, 0
2, 50493, Note_on_c, 0, 67, 0
2, 50493, Note_on_c, 0, 63, 0
2, 50496, Note_on_c, 0, 72, 82
2, 50496, Note_on_c, 0, 67, 82
2, 50496, Note_on_c, 0, 63, 82
2, 50535, Note_on_c, 0, 72, 0
2, 50535, Note_on_c, 0, 67, 0
2, 50535, Note_on_c, 0, 63, 0
2, 50592, Note_on_c, 0, 67, 82
2, 50592, Note_on_c, 0, 63, 82
2, 50631, Note_on_c, 0, 67, 0
2, 50631, Note_on_c, 0, 63, 0
2, 50688, Note_on_c, 0, 70, 98
2, 50688, Note_on_c, 0, 67, 98
2, 50688, Note_on_c, 0, 64, 98
2, 50832, Note_on_c, 0, 70, 0
2, 50832, Note_on_c, 0, 67, 0
2, 50832, Note_on_c, 0, 64, 0
2, 50832, Note_on_c, 0, 69, 83
2, 50832, Note_on_c, 0, 65, 83
2, 50877, Note_on_c, 0, 69, 0
2, 50877, Note_on_c, 0, 65, 0
2, 50880, Note_on_c, 0, 69, 99
2, 50880, Note_on_c, 0, 65, 99
2, 50919, Note_on_c, 0, 69, 0
2, 50919, Note_on_c, 0, 65, 0
2, 50976, Note_on_c, 0, 74, 84
2, 50976, Note_on_c, 0, 69, 84
2, 50976, Note_on_c, 0, 65, 84
2, 51015, Note_on_c, 0, 74, 0
2, 51015, Note_on_c, 0, 69, 0
2, 51015, Note_on_c, 0, 65, 0
2, 51072, Note_on_c, 0, 73, 100
2, 51072, Note_on_c, 0, 69, 100
2, 51072, Note_on_c, 0, 67, 100
2, 51216, Note_on_c, 0, 73, 0
2, 51216, Note_on_c, 0, 69, 0
2, 51216, Note_on_c, 0, 67, 0
2, 51216, Note_on_c, 0, 74, 85
2, 51216, Note_on_c, 0, 69, 85
2, 51216, Note_on_c, 0, 65, 85
2, 51261, Note_on_c, 0, 74, 0
2, 51261, Note_on_c, 0, 69, 0
2, 51261, Note_on_c, 0, 65, 0
2, 51264, Note_on_c, 0, 74, 85
2, 51264, Note_on_c, 0, 69, 85
2, 51264, Note_on_c, 0, 65, 85
2, 51303, Note_on_c, 0, 74, 0
2, 51303, Note_on_c, 0, 69, 0
2, 51303, Note_on_c, 0, 65, 0
2, 51360, Note_on_c, 0, 86, 86
2, 51383, Note_on_c, 0, 86, 0
2, 51384, Note_on_c, 0, 84, 86
2, 51407, Note_on_c, 0, 84, 0
2, 51408, Note_on_c, 0, 82, 86
2, 51431, Note_on_c, 0, 82, 0
2, 51432, Note_on_c, 0, 81, 86
2, 51455, Note_on_c, 0, 81, 0
2, 51456, Note_on_c, 0, 79, 86
2, 51495, Note_on_c, 0, 79, 0
2, 51552, Note_on_c, 0, 82, 86
2, 51575, Note_on_c, 0, 82, 0
2, 51576, Note_on_c, 0, 81, 86
2, 51599, Note_on_c, 0, 81, 0
2, 51600, Note_on_c, 0, 79, 86
2, 51623, Note_on_c, 0, 79, 0
2, 51624, Note_on_c, 0, 77, 86
2, 51647, Note_on_c, 0, 77, 0
2, 51648, Note_on_c, 0, 75, 86
2, 51687, Note_on_c, 0, 75, 0
2, 51744, Note_on_c, 0, 79, 86
2, 51767, Note_on_c, 0, 79, 0
2, 51768, Note_on_c, 0, 77, 86
2, 51791, Note_on_c, 0, 77, 0
2, 51792, Note_on_c, 0, 75, 86
2, 51815, Note_on_c, 0, 75, 0
2, 51816, Note_on_c, 0, 74, 86
2, 51839, Note_on_c, 0, 74, 0
2, 51840, Note_on_c, 0, 73, 86
2, 52032, Note_on_c, 0, 73, 0
2, 52032, Note_on_c, 0, 74, 86
2, 52071, Note_on_c, 0, 74, 0
2, 52128, Note_on_c, 0, 72, 86
2, 52128, Note_on_c, 0, 69, 86
2, 52224, Note_on_c, 0, 72, 0
2, 52224, Note_on_c, 0, 69, 0
2, 52224, Note_on_c, 0, 74, 86
2, 52224, Note_on_c, 0, 70, 86
2, 52224, Note_on_c, 0, 67, 86
2, 52263, Note_on_c, 0, 74, 0
2, 52263, Note_on_c, 0, 70, 0
2, 52263, Note_on_c, 0, 67, 0
2, 52320, Note_on_c, 0, 74, 86
2, 52320, Note_on_c, 0, 70, 86
2, 52320, Note_on_c, 0, 67, 86
2, 52359, Note_on_c, 0, 74, 0
2, 52359, Note_on_c, 0, 70, 0
2, 52359, Note_on_c, 0, 67, 0
2, 52416, Note_on_c, 0, 75, 86
2, 52416, Note_on_c, 0, 69, 86
2, 52455, Note_on_c, 0, 75, 0
2, 52455, Note_on_c, 0, 69, 0
2, 52512, Note_on_c, 0, 66, 86
2, 52512, Note_on_c, 0, 62, 86
2, 52512, Note_on_c, 0, 57, 86
2, 52551, Note_on_c, 0, 66, 0
2, 52551, Note_on_c, 0, 62, 0
2, 52551, Note_on_c, 0, 57, 0
2, 52608, Note_on_c, 0, 67, 86
2, 52608, Note_on_c, 0, 62, 86
2, 52608, Note_on_c, 0, 58, 86
2, 52785, Note_on_c, 0, 67, 0
2, 52785, Note_on_c, 0, 62, 0
2, 52785, Note_on_c, 0, 58, 0
2, 52896, Note_on_c, 0, 84, 80
2, 52908, Note_on_c, 0, 84, 0
2, 52908, Note_on_c, 0, 82, 80
2, 52920, Note_on_c, 0, 82, 0
2, 52920, Note_on_c, 0, 81, 80
2, 52932, Note_on_c, 0, 81, 0
2, 52932, Note_on_c, 0, 82, 96
2, 53022, Note_on_c, 0, 82, 0
2, 53024, Note_on_c, 0, 86, 80
2, 53054, Note_on_c, 0, 86, 0
2, 53056, Note_on_c, 0, 84, 80
2, 53086, Note_on_c, 0, 84, 0
2, 53088, Note_on_c, 0, 82, 80
2, 53118, Note_on_c, 0, 82, 0
2, 53120, Note_on_c, 0, 84, 80
2, 53150, Note_on_c, 0, 84, 0
2, 53152, Note_on_c, 0, 86, 80
2, 53182, Note_on_c, 0, 86, 0
2, 53184, Note_on_c, 0, 79, 80
2, 53214, Note_on_c, 0, 79, 0
2, 53216, Note_on_c, 0, 82, 80
2, 53246, Note_on_c, 0, 82, 0
2, 53248, Note_on_c, 0, 81, 80
2, 53278, Note_on_c, 0, 81, 0
2, 53280, Note_on_c, 0, 79, 80
2, 53310, Note_on_c, 0, 79, 0
2, 53312, Note_on_c, 0, 81, 80
2, 53342, Note_on_c, 0, 81, 0
2, 53344, Note_on_c, 0, 82, 80
2, 53374, Note_on_c, 0, 82, 0
2, 53376, Note_on_c, 0, 75, 70
2, 53406, Note_on_c, 0, 75, 0
2, 53408, Note_on_c, 0, 79, 70
2, 53438, Note_on_c, 0, 79, 0
2, 53440, Note_on_c, 0, 77, 70
2, 53470, Note_on_c, 0, 77, 0
2, 53472, Note_on_c, 0, 75, 71
2, 53502, Note_on_c, 0, 75, 0
2, 53504, Note_on_c, 0, 77, 71
2, 53534, Note_on_c, 0, 77, 0
2, 53536, Note_on_c, 0, 79, 71
2, 53566, Note_on_c, 0, 79, 0
2, 53568, Note_on_c, 0, 72, 72
2, 53598, Note_on_c, 0, 72, 0
2, 53600, Note_on_c, 0, 75, 72
2, 53630, Note_on_c, 0, 75, 0
2, 53632, Note_on_c, 0, 74, 73
2, 53662, Note_on_c, 0, 74, 0
2, 53664, Note_on_c, 0, 72, 73
2, 53694, Note_on_c, 0, 72, 0
2, 53696, Note_on_c, 0, 74, 73
2, 53726, Note_on_c, 0, 74, 0
2, 53728, Note_on_c, 0, 75, 74
2, 53758, Note_on_c, 0, 75, 0
2, 53760, Control_c, 0, 64, 127
2, 53784, Note_on_c, 0, 57, 75
2, 53807, Note_on_c, 0, 57, 0
2, 53808, Note_on_c, 0, 60, 75
2, 53831, Note_on_c, 0, 60, 0
2, 53832, Note_on_c, 0, 57, 75
2, 53855, Note_on_c, 0, 57, 0
2, 53880, Note_on_c, 0, 60, 75
2, 53903, Note_on_c, 0, 60, 0
2, 53904, Note_on_c, 0, 65, 75
2, 53927, Note_on_c, 0, 65, 0
2, 53928, Note_on_c, 0, 60, 75
2, 53951, Note_on_c, 0, 60, 0
2, 53976, Note_on_c, 0, 65, 75
2, 53999, Note_on_c, 0, 65, 0
2, 54000, Note_on_c, 0, 69, 75
2, 54023, Note_on_c, 0, 69, 0
2, 54024, Note_on_c, 0, 65, 75
2, 54047, Note_on_c, 0, 65, 0
2, 54072, Note_on_c, 0, 69, 75
2, 54095, Note_on_c, 0, 69, 0
2, 54096, Note_on_c, 0, 72, 75
2, 54119, Note_on_c, 0, 72, 0
2, 54120, Note_on_c, 0, 69, 75
2, 54144, Note_on_c, 0, 75, 91
2, 54144, Note_on_c, 0, 72, 91
2, 54432, Note_on_c, 0, 75, 0
2, 54432, Note_on_c, 0, 72, 0
2, 54432, Note_on_c, 0, 69, 0
2, 54432, Control_c, 0, 64, 0
2, 54528, Control_c, 0, 64, 127
2, 54552, Note_on_c, 0, 71, 75
2, 54575, Note_on_c, 0, 71, 0
2, 54576, Note_on_c, 0, 74, 75
2, 54599, Note_on_c, 0, 74, 0
2, 54600, Note_on_c, 0, 71, 75
2, 54623, Note_on_c, 0, 71, 0
2, 54648, Note_on_c, 0, 74, 75
2, 54671, Note_on_c, 0, 74, 0
2, 54672, Note_on_c, 0, 77, 75
2, 54695, Note_on_c, 0, 77, 0
2, 54696, Note_on_c, 0, 74, 75
2, 54719, Note_on_c, 0, 74, 0
2, 54744, Note_on_c, 0, 77, 75
2, 54767, Note_on_c, 0, 77, 0
2, 54768, Note_on_c, 0, 83, 75
2, 54791, Note_on_c, 0, 83, 0
2, 54792, Note_on_c, 0, 77, 75
2, 54815, Note_on_c, 0, 77, 0
2, 54840, Note_on_c, 0, 83, 75
2, 54863, Note_on_c, 0, 83, 0
2, 54864, Note_on_c, 0, 86, 75
2, 54887, Note_on_c, 0, 86, 0
2, 54888, Note_on_c, 0, 83, 75
2, 54912, Note_on_c, 0, 89, 91
2, 54912, Note_on_c, 0, 86, 91
2, 55200, Note_on_c, 0, 89, 0
2, 55200, Note_on_c, 0, 86, 0
2, 55200, Note_on_c, 0, 83, 0
2, 55200, Control_c, 0, 64, 0
2, 55296, Control_c, 0, 64, 127
2, 55320, Note_on_c, 0, 67, 75
2, 55343, Note_on_c, 0, 67, 0
2, 55344, Note_on_c, 0, 72, 75
2, 55367, Note_on_c, 0, 72, 0
2, 55368, Note_on_c, 0, 67, 75
2, 55391, Note_on_c, 0, 67, 0
2, 55416, Note_on_c, 0, 72, 75
2, 55439, Note_on_c, 0, 72, 0
2, 55440, Note_on_c, 0, 75, 75
2, 55463, Note_on_c, 0, 75, 0
2, 55464, Note_on_c, 0, 72, 75
2, 55487, Note_on_c, 0, 72, 0
2, 55512, Note_on_c, 0, 75, 75
2, 55535, Note_on_c, 0, 75, 0
2, 55536, Note_on_c, 0, 79, 75
2, 55559, Note_on_c, 0, 79, 0
2, 55560, Note_on_c, 0, 75, 75
2, 55583, Note_on_c, 0, 75, 0
2, 55608, Note_on_c, 0, 79, 75
2, 55631, Note_on_c, 0, 79, 0
2, 55632, Note_on_c, 0, 84, 75
2, 55655, Note_on_c, 0, 84, 0
2, 55656, Note_on_c, 0, 79, 75
2, 55680, Note_on_c, 0, 87, 91
2, 55680, Note_on_c, 0, 84, 91
2, 55968, Note_on_c, 0, 87, 0
2, 55968, Note_on_c, 0, 84, 0
2, 55968, Note_on_c, 0, 79, 0
2, 55968, Control_c, 0, 64, 0
2, 56064, Control_c, 0, 64, 127
2, 56088, Note_on_c, 0, 60, 75
2, 56111, Note_on_c, 0, 60, 0
2, 56112, Note_on_c, 0, 63, 75
2, 56135, Note_on_c, 0, 63, 0
2, 56136, Note_on_c, 0, 60, 75
2, 56159, Note_on_c, 0, 60, 0
2, 56184, Note_on_c, 0, 63, 75
2, 56207, Note_on_c, 0, 63, 0
2, 56208, Note_on_c, 0, 69, 75
2, 56231, Note_on_c, 0, 69, 0
2, 56232, Note_on_c, 0, 63, 75
2, 56255, Note_on_c, 0, 63, 0
2, 56280, Note_on_c, 0, 69, 75
2, 56303, Note_on_c, 0, 69, 0
2, 56304, Note_on_c, 0, 72, 75
2, 56327, Note_on_c, 0, 72, 0
2, 56328, Note_on_c, 0, 69, 75
2, 56351, Note_on_c, 0, 69, 0
2, 56376, Note_on_c, 0, 72, 75
2, 56399, Note_on_c, 0, 72, 0
2, 56400, Note_on_c, 0, 75, 75
2, 56423, Note_on_c, 0, 75, 0
2, 56424, Note_on_c, 0, 72, 75
2, 56448, Note_on_c, 0, 78, 91
2, 56448, Note_on_c, 0, 75, 91
2, 56736, Note_on_c, 0, 78, 0
2, 56736, Note_on_c, 0, 75, 0
2, 56736, Note_on_c, 0, 72, 0
2, 56736, Control_c, 0, 64, 0
2, 57120, Note_on_c, 0, 70, 75
2, 57159, Note_on_c, 0, 70, 0
2, 57312, Note_on_c, 0, 77, 75
2, 57351, Note_on_c, 0, 77, 0
2, 57504, Note_on_c, 0, 75, 75
2, 57527, Note_on_c, 0, 75, 0
2, 57528, Note_on_c, 0, 74, 75
2, 57551, Note_on_c, 0, 74, 0
2, 57552, Note_on_c, 0, 72, 75
2, 57575, Note_on_c, 0, 72, 0
2, 57576, Note_on_c, 0, 70, 75
2, 57599, Note_on_c, 0, 70, 0
2, 57600, Note_on_c, 0, 69, 75
2, 57689, Note_on_c, 0, 69, 0
2, 57696, Note_on_c, 0, 75, 75
2, 57735, Note_on_c, 0, 75, 0
2, 57888, Note_on_c, 0, 74, 75
2, 57911, Note_on_c, 0, 74, 0
2, 57912, Note_on_c, 0, 72, 75
2, 57935, Note_on_c, 0, 72, 0
2, 57936, Note_on_c, 0, 70, 75
2, 57959, Note_on_c, 0, 70, 0
2, 57960, Note_on_c, 0, 69, 75
2, 57983, Note_on_c, 0, 69, 0
2, 57984, Note_on_c, 0, 70, 75
2, 58051, Note_on_c, 0, 70, 0
2, 58056, Note_on_c, 0, 65, 75
2, 58079, Note_on_c, 0, 65, 0
2, 58080, Note_on_c, 0, 74, 75
2, 58147, Note_on_c, 0, 74, 0
2, 58152, Note_on_c, 0, 70, 76
2, 58175, Note_on_c, 0, 70, 0
2, 58176, Note_on_c, 0, 77, 76
2, 58243, Note_on_c, 0, 77, 0
2, 58248, Note_on_c, 0, 74, 77
2, 58271, Note_on_c, 0, 74, 0
2, 58272, Note_on_c, 0, 82, 77
2, 58339, Note_on_c, 0, 82, 0
2, 58344, Note_on_c, 0, 77, 78
2, 58367, Note_on_c, 0, 77, 0
2, 58368, Note_on_c, 0, 78, 78
2, 58416, Note_on_c, 0, 78, 0
2, 58416, Note_on_c, 0, 79, 78
2, 58461, Note_on_c, 0, 79, 0
2, 58464, Note_on_c, 0, 79, 95
2, 58590, Note_on_c, 0, 79, 0
2, 58592, Note_on_c, 0, 72, 80
2, 58622, Note_on_c, 0, 72, 0
2, 58624, Note_on_c, 0, 74, 80
2, 58654, Note_on_c, 0, 74, 0
2, 58656, Note_on_c, 0, 75, 80
2, 58686, Note_on_c, 0, 75, 0
2, 58688, Note_on_c, 0, 74, 80
2, 58718, Note_on_c, 0, 74, 0
2, 58720, Note_on_c, 0, 72, 80
2, 58750, Note_on_c, 0, 72, 0
2, 58752, Note_on_c, 0, 72, 80
2, 58800, Note_on_c, 0, 72, 0
2, 58800, Note_on_c, 0, 70, 80
2, 58845, Note_on_c, 0, 70, 0
2, 58848, Note_on_c, 0, 70, 95
2, 59040, Note_on_c, 0, 70, 0
2, 59040, Note_on_c, 0, 74, 76
2, 59040, Note_on_c, 0, 69, 76
2, 59088, Note_on_c, 0, 74, 0
2, 59088, Note_on_c, 0, 69, 0
2, 59088, Note_on_c, 0, 72, 75
2, 59088, Note_on_c, 0, 66, 75
2, 59133, Note_on_c, 0, 72, 0
2, 59133, Note_on_c, 0, 66, 0
2, 59136, Note_on_c, 0, 70, 75
2, 59136, Note_on_c, 0, 67, 75
2, 59313, Note_on_c, 0, 70, 0
2, 59313, Note_on_c, 0, 67, 0
2, 59360, Note_on_c, 0, 60, 75
2, 59390, Note_on_c, 0, 60, 0
2, 59392, Note_on_c, 0, 62, 75
2, 59422, Note_on_c, 0, 62, 0
2, 59424, Note_on_c, 0, 63, 75
2, 59454, Note_on_c, 0, 63, 0
2, 59456, Note_on_c, 0, 62, 75
2, 59486, Note_on_c, 0, 62, 0
2, 59488, Note_on_c, 0, 60, 75
2, 59518, Note_on_c, 0, 60, 0
2, 59520, Note_on_c, 0, 65, 75
2, 59592, Note_on_c, 0, 65, 0
2, 59592, Note_on_c, 0, 62, 75
2, 59615, Note_on_c, 0, 62, 0
2, 59616, Note_on_c, 0, 58, 75
2, 59705, Note_on_c, 0, 58, 0
2, 59712, Note_on_c, 0, 60, 75
2, 59736, Note_on_c, 0, 60, 0
2, 59736, Note_on_c, 0, 58, 75
2, 59760, Note_on_c, 0, 58, 0
2, 59760, Note_on_c, 0, 57, 75
2, 59784, Note_on_c, 0, 57, 0
2, 59784, Note_on_c, 0, 58, 75
2, 59808, Note_on_c, 0, 58, 0
2, 59808, Note_on_c, 0, 62, 75
2, 59856, Note_on_c, 0, 62, 0
2, 59856, Note_on_c, 0, 60, 75
2, 59901, Note_on_c, 0, 60, 0
2, 59904, Note_on_c, 0, 58, 75
2, 59993, Note_on_c, 0, 58, 0
2, 60096, Note_on_c, 0, 68, 113
2, 60096, Note_on_c, 0, 65, 113
2, 60096, Note_on_c, 0, 62, 113
2, 60288, Note_on_c, 0, 68, 0
2, 60288, Note_on_c, 0, 65, 0
2, 60288, Note_on_c, 0, 62, 0
2, 60288, Note_on_c, 0, 67, 80
2, 60288, Note_on_c, 0, 63, 80
2, 60327, Note_on_c, 0, 67, 0
2, 60327, Note_on_c, 0, 63, 0
2, 60480, Note_on_c, 0, 69, 113
2, 60480, Note_on_c, 0, 63, 113
2, 60480, Note_on_c, 0, 60, 113
2, 60672, Note_on_c, 0, 69, 0
2, 60672, Note_on_c, 0, 63, 0
2, 60672, Note_on_c, 0, 60, 0
2, 60672, Note_on_c, 0, 70, 80
2, 60672, Note_on_c, 0, 65, 80
2, 60672, Note_on_c, 0, 62, 80
2, 60711, Note_on_c, 0, 70, 0
2, 60711, Note_on_c, 0, 65, 0
2, 60711, Note_on_c, 0, 62, 0
2, 60768, Note_on_c, 0, 68, 97
2, 60768, Note_on_c, 0, 65, 97
2, 60768, Note_on_c, 0, 62, 97
2, 60807, Note_on_c, 0, 68, 0
2, 60807, Note_on_c, 0, 65, 0
2, 60807, Note_on_c, 0, 62, 0
2, 60960, Note_on_c, 0, 67, 97
2, 60960, Note_on_c, 0, 63, 97
2, 60999, Note_on_c, 0, 67, 0
2, 60999, Note_on_c, 0, 63, 0
2, 61152, Note_on_c, 0, 69, 113
2, 61152, Note_on_c, 0, 63, 113
2, 61152, Note_on_c, 0, 60, 113
2, 61248, Note_on_c, 0, 69, 0
2, 61248, Note_on_c, 0, 63, 0
2, 61248, Note_on_c, 0, 60, 0
2, 61248, Note_on_c, 0, 70, 80
2, 61248, Note_on_c, 0, 65, 80
2, 61248, Note_on_c, 0, 62, 80
2, 61287, Note_on_c, 0, 70, 0
2, 61287, Note_on_c, 0, 65, 0
2, 61287, Note_on_c, 0, 62, 0
2, 61344, Note_on_c, 0, 78, 97
2, 61344, Note_on_c, 0, 75, 97
2, 61440, Note_on_c, 0, 78, 0
2, 61440, Note_on_c, 0, 75, 0
2, 61440, Note_on_c, 0, 77, 80
2, 61440, Note_on_c, 0, 74, 80
2, 61479, Note_on_c, 0, 77, 0
2, 61479, Note_on_c, 0, 74, 0
2, 61536, Note_on_c, 0, 81, 80
2, 61536, Note_on_c, 0, 75, 80
2, 61575, Note_on_c, 0, 81, 0
2, 61575, Note_on_c, 0, 75, 0
2, 61632, Note_on_c, 0, 82, 77
2, 61632, Note_on_c, 0, 74, 77
2, 61671, Note_on_c, 0, 82, 0
2, 61671, Note_on_c, 0, 74, 0
2, 61728, Note_on_c, 0, 54, 92
2, 61728, Note_on_c, 0, 51, 92
2, 61824, Note_on_c, 0, 54, 0
2, 61824, Note_on_c, 0, 51, 0
2, 61824, Note_on_c, 0, 53, 73
2, 61824, Note_on_c, 0, 50, 73
2, 61863, Note_on_c, 0, 53, 0
2, 61863, Note_on_c, 0, 50, 0
2, 61920, Note_on_c, 0, 57, 70
2, 61920, Note_on_c, 0, 51, 70
2, 61959, Note_on_c, 0, 57, 0
2, 61959, Note_on_c, 0, 51, 0
2, 62016, Note_on_c, 0, 58, 68
2, 62016, Note_on_c, 0, 50, 68
2, 62105, Note_on_c, 0, 58, 0
2, 62105, Note_on_c, 0, 50, 0
2, 62160, Note_on_c, 0, 77, 65
2, 62205, Note_on_c, 0, 77, 0
2, 62208, Note_on_c, 0, 77, 80
2, 62304, Note_on_c, 0, 77, 0
2, 62304, Note_on_c, 0, 76, 64
2, 62327, Note_on_c, 0, 76, 0
2, 62328, Note_on_c, 0, 77, 64
2, 62351, Note_on_c, 0, 77, 0
2, 62352, Note_on_c, 0, 79, 64
2, 62375, Note_on_c, 0, 79, 0
2, 62376, Note_on_c, 0, 77, 64
2, 62399, Note_on_c, 0, 77, 0
2, 62400, Note_on_c, 0, 70, 64
2, 62489, Note_on_c, 0, 70, 0
2, 62544, Note_on_c, 0, 65, 75
2, 62589, Note_on_c, 0, 65, 0
2, 62592, Note_on_c, 0, 60, 75
2, 62592, Note_on_c, 0, 57, 75
2, 62681, Note_on_c, 0, 60, 0
2, 62681, Note_on_c, 0, 57, 0
2, 62736, Note_on_c, 0, 65, 75
2, 62781, Note_on_c, 0, 65, 0
2, 62784, Note_on_c, 0, 62, 75
2, 62784, Note_on_c, 0, 58, 75
2, 62873, Note_on_c, 0, 62, 0
2, 62873, Note_on_c, 0, 58, 0
2, 62928, Note_on_c, 0, 65, 75
2, 62973, Note_on_c, 0, 65, 0
2, 62976, Note_on_c, 0, 60, 75
2, 62976, Note_on_c, 0, 57, 75
2, 63065, Note_on_c, 0, 60, 0
2, 63065, Note_on_c, 0, 57, 0
2, 63264, Note_on_c, 0, 74, 75
2, 63287, Note_on_c, 0, 74, 0
2, 63288, Note_on_c, 0, 72, 75
2, 63311, Note_on_c, 0, 72, 0
2, 63312, Note_on_c, 0, 70, 76
2, 63335, Note_on_c, 0, 70, 0
2, 63336, Note_on_c, 0, 69, 76
2, 63359, Note_on_c, 0, 69, 0
2, 63360, Note_on_c, 0, 67, 77
2, 63399, Note_on_c, 0, 67, 0
2, 63456, Note_on_c, 0, 76, 80
2, 63479, Note_on_c, 0, 76, 0
2, 63480, Note_on_c, 0, 74, 80
2, 63503, Note_on_c, 0, 74, 0
2, 63504, Note_on_c, 0, 72, 80
2, 63527, Note_on_c, 0, 72, 0
2, 63528, Note_on_c, 0, 70, 80
2, 63551, Note_on_c, 0, 70, 0
2, 63552, Note_on_c, 0, 69, 80
2, 63591, Note_on_c, 0, 69, 0
2, 63648, Note_on_c, 0, 72, 80
2, 63671, Note_on_c, 0, 72, 0
2, 63672, Note_on_c, 0, 70, 79
2, 63695, Note_on_c, 0, 70, 0
2, 63696, Note_on_c, 0, 69, 79
2, 63719, Note_on_c, 0, 69, 0
2, 63720, Note_on_c, 0, 67, 78
2, 63743, Note_on_c, 0, 67, 0
2, 63744, Note_on_c, 0, 65, 78
2, 63756, Note_on_c, 0, 65, 0
2, 63756, Note_on_c, 0, 67, 78
2, 63768, Note_on_c, 0, 67, 0
2, 63768, Note_on_c, 0, 65, 78
2, 63936, Note_on_c, 0, 65, 0
2, 63936, Note_on_c, 0, 64, 75
2, 63981, Note_on_c, 0, 64, 0
2, 63984, Note_on_c, 0, 77, 80
2, 64029, Note_on_c, 0, 77, 0
2, 64032, Note_on_c, 0, 76, 80
2, 64077, Note_on_c, 0, 76, 0
2, 64080, Note_on_c, 0, 77, 80
2, 64125, Note_on_c, 0, 77, 0
2, 64128, Note_on_c, 0, 72, 80
2, 64128, Note_on_c, 0, 68, 80
2, 64217, Note_on_c, 0, 72, 0
2, 64217, Note_on_c, 0, 68, 0
2, 64272, Note_on_c, 0, 72, 80
2, 64272, Note_on_c, 0, 68, 80
2, 64317, Note_on_c, 0, 72, 0
2, 64317, Note_on_c, 0, 68, 0
2, 64320, Note_on_c, 0, 73, 80
2, 64320, Note_on_c, 0, 70, 80
2, 64409, Note_on_c, 0, 73, 0
2, 64409, Note_on_c, 0, 70, 0
2, 64464, Note_on_c, 0, 73, 80
2, 64464, Note_on_c, 0, 70, 80
2, 64509, Note_on_c, 0, 73, 0
2, 64509, Note_on_c, 0, 70, 0
2, 64512, Note_on_c, 0, 72, 80
2, 64512, Note_on_c, 0, 68, 80
2, 64601, Note_on_c, 0, 72, 0
2, 64601, Note_on_c, 0, 68, 0
2, 64800, Note_on_c, 0, 77, 96
2, 64839, Note_on_c, 0, 77, 0
2, 64896, Note_on_c, 0, 65, 80
2, 64944, Note_on_c, 0, 65, 0
2, 64944, Note_on_c, 0, 70, 80
2, 64989, Note_on_c, 0, 70, 0
2, 64992, Note_on_c, 0, 73, 96
2, 65184, Note_on_c, 0, 73, 0
2, 65184, Note_on_c, 0, 70, 80
2, 65196, Note_on_c, 0, 70, 0
2, 65196, Note_on_c, 0, 72, 80
2, 65208, Note_on_c, 0, 72, 0
2, 65208, Note_on_c, 0, 70, 80
2, 65273, Note_on_c, 0, 70, 0
2, 65280, Note_on_c, 0, 68, 80
2, 65457, Note_on_c, 0, 68, 0
2, 65472, Note_on_c, 0, 69, 97
2, 65472, Note_on_c, 0, 63, 97
2, 65472, Note_on_c, 0, 60, 97
2, 65649, Note_on_c, 0, 69, 0
2, 65649, Note_on_c, 0, 63, 0
2, 65649, Note_on_c, 0, 60, 0
2, 65664, Note_on_c, 0, 70, 80
2, 65712, Note_on_c, 0, 70, 0
2, 65712, Note_on_c, 0, 73, 80
2, 65757, Note_on_c, 0, 73, 0
2, 65760, Note_on_c, 0, 77, 96
2, 65952, Note_on_c, 0, 77, 0
2, 65952, Note_on_c, 0, 71, 80
2, 65964, Note_on_c, 0, 71, 0
2, 65964, Note_on_c, 0, 72, 80
2, 65976, Note_on_c, 0, 72, 0
2, 65976, Note_on_c, 0, 71, 80
2, 66041, Note_on_c, 0, 71, 0
2, 66048, Note_on_c, 0, 72, 80
2, 66225, Note_on_c, 0, 72, 0
2, 66240, Note_on_c, 0, 73, 97
2, 66240, Note_on_c, 0, 67, 97
2, 66240, Note_on_c, 0, 64, 97
2, 66417, Note_on_c, 0, 73, 0
2, 66417, Note_on_c, 0, 67, 0
2, 66417, Note_on_c, 0, 64, 0
2, 66432, Note_on_c, 0, 74, 80
2, 66480, Note_on_c, 0, 74, 0
2, 66480, Note_on_c, 0, 77, 80
2, 66525, Note_on_c, 0, 77, 0
2, 66528, Note_on_c, 0, 81, 96
2, 66720, Note_on_c, 0, 81, 0
2, 66720, Note_on_c, 0, 74, 81
2, 66809, Note_on_c, 0, 74, 0
2, 66816, Note_on_c, 0, 75, 82
2, 66864, Note_on_c, 0, 75, 0
2, 66864, Note_on_c, 0, 79, 82
2, 66909, Note_on_c, 0, 79, 0
2, 66912, Note_on_c, 0, 82, 98
2, 67104, Note_on_c, 0, 82, 0
2, 67104, Note_on_c, 0, 76, 83
2, 67116, Note_on_c, 0, 76, 0
2, 67116, Note_on_c, 0, 77, 83
2, 67128, Note_on_c, 0, 77, 0
2, 67128, Note_on_c, 0, 76, 83
2, 67193, Note_on_c, 0, 76, 0
2, 67200, Note_on_c, 0, 77, 84
2, 67248, Note_on_c, 0, 77, 0
2, 67248, Note_on_c, 0, 80, 84
2, 67293, Note_on_c, 0, 80, 0
2, 67296, Note_on_c, 0, 84, 100
2, 67488, Note_on_c, 0, 84, 0
2, 67488, Note_on_c, 0, 78, 85
2, 67577, Note_on_c, 0, 78, 0
2, 67632, Note_on_c, 0, 79, 86
2, 67677, Note_on_c, 0, 79, 0
2, 67680, Note_on_c, 0, 67, 86
2, 67725, Note_on_c, 0, 67, 0
2, 67728, Note_on_c, 0, 79, 86
2, 67773, Note_on_c, 0, 79, 0
2, 67776, Note_on_c, 0, 67, 86
2, 67821, Note_on_c, 0, 67, 0
2, 67824, Note_on_c, 0, 79, 86
2, 67869, Note_on_c, 0, 79, 0
2, 67872, Note_on_c, 0, 67, 86
2, 67917, Note_on_c, 0, 67, 0
2, 67920, Note_on_c, 0, 79, 86
2, 67965, Note_on_c, 0, 79, 0
2, 67968, Note_on_c, 0, 67, 86
2, 68013, Note_on_c, 0, 67, 0
2, 68016, Note_on_c, 0, 79, 86
2, 68061, Note_on_c, 0, 79, 0
2, 68064, Note_on_c, 0, 67, 86
2, 68109, Note_on_c, 0, 67, 0
2, 68112, Note_on_c, 0, 79, 86
2, 68157, Note_on_c, 0, 79, 0
2, 68160, Note_on_c, 0, 67, 86
2, 68205, Note_on_c, 0, 67, 0
2, 68208, Note_on_c, 0, 79, 86
2, 68253, Note_on_c, 0, 79, 0
2, 68256, Note_on_c, 0, 67, 86
2, 68301, Note_on_c, 0, 67, 0
2, 68304, Note_on_c, 0, 79, 86
2, 68349, Note_on_c, 0, 79, 0
2, 68352, Note_on_c, 0, 67, 86
2, 68397, Note_on_c, 0, 67, 0
2, 68400, Note_on_c, 0, 79, 86
2, 68445, Note_on_c, 0, 79, 0
2, 68448, Note_on_c, 0, 67, 86
2, 68493, Note_on_c, 0, 67, 0
2, 68496, Note_on_c, 0, 79, 86
2, 68541, Note_on_c, 0, 79, 0
2, 68544, Note_on_c, 0, 67, 86
2, 68589, Note_on_c, 0, 67, 0
2, 68592, Note_on_c, 0, 79, 86
2, 68637, Note_on_c, 0, 79, 0
2, 68640, Note_on_c, 0, 68, 86
2, 68685, Note_on_c, 0, 68, 0
2, 68688, Note_on_c, 0, 80, 86
2, 68733, Note_on_c, 0, 80, 0
2, 68736, Note_on_c, 0, 69, 80
2, 68781, Note_on_c, 0, 69, 0
2, 68784, Note_on_c, 0, 81, 80
2, 68829, Note_on_c, 0, 81, 0
2, 68832, Note_on_c, 0, 69, 80
2, 68877, Note_on_c, 0, 69, 0
2, 68880, Note_on_c, 0, 81, 81
2, 68925, Note_on_c, 0, 81, 0
2, 68928, Note_on_c, 0, 70, 81
2, 68973, Note_on_c, 0, 70, 0
2, 68976, Note_on_c, 0, 82, 82
2, 69021, Note_on_c, 0, 82, 0
2, 69024, Note_on_c, 0, 70, 82
2, 69069, Note_on_c, 0, 70, 0
2, 69072, Note_on_c, 0, 82, 83
2, 69117, Note_on_c, 0, 82, 0
2, 69120, Note_on_c, 0, 71, 83
2, 69165, Note_on_c, 0, 71, 0
2, 69168, Note_on_c, 0, 83, 84
2, 69213, Note_on_c, 0, 83, 0
2, 69216, Note_on_c, 0, 71, 84
2, 69261, Note_on_c, 0, 71, 0
2, 69264, Note_on_c, 0, 83, 85
2, 69309, Note_on_c, 0, 83, 0
2, 69312, Note_on_c, 0, 72, 85
2, 69357, Note_on_c, 0, 72, 0
2, 69360, Note_on_c, 0, 84, 86
2, 69405, Note_on_c, 0, 84, 0
2, 69408, Note_on_c, 0, 84, 86
2, 69431, Note_on_c, 0, 84, 0
2, 69432, Note_on_c, 0, 82, 86
2, 69455, Note_on_c, 0, 82, 0
2, 69456, Note_on_c, 0, 80, 86
2, 69479, Note_on_c, 0, 80, 0
2, 69480, Note_on_c, 0, 79, 86
2, 69503, Note_on_c, 0, 79, 0
2, 69504, Note_on_c, 0, 77, 86
2, 69543, Note_on_c, 0, 77, 0
2, 69600, Note_on_c, 0, 80, 86
2, 69623, Note_on_c, 0, 80, 0
2, 69624, Note_on_c, 0, 79, 86
2, 69647, Note_on_c, 0, 79, 0
2, 69648, Note_on_c, 0, 77, 86
2, 69671, Note_on_c, 0, 77, 0
2, 69672, Note_on_c, 0, 75, 86
2, 69695, Note_on_c, 0, 75, 0
2, 69696, Note_on_c, 0, 74, 86
2, 69735, Note_on_c, 0, 74, 0
2, 69792, Note_on_c, 0, 77, 86
2, 69815, Note_on_c, 0, 77, 0
2, 69816, Note_on_c, 0, 75, 86
2, 69839, Note_on_c, 0, 75, 0
2, 69840, Note_on_c, 0, 74, 86
2, 69863, Note_on_c, 0, 74, 0
2, 69864, Note_on_c, 0, 72, 86
2, 69887, Note_on_c, 0, 72, 0
2, 69888, Note_on_c, 0, 71, 102
2, 70080, Note_on_c, 0, 71, 0
2, 70080, Note_on_c, 0, 72, 86
2, 70119, Note_on_c, 0, 72, 0
2, 70176, Note_on_c, 0, 73, 102
2, 70176, Note_on_c, 0, 69, 102
2, 70176, Note_on_c, 0, 67, 102
2, 70272, Note_on_c, 0, 73, 0
2, 70272, Note_on_c, 0, 67, 0
2, 70272, Note_on_c, 0, 74, 86
2, 70272, Note_on_c, 0, 65, 86
2, 70311, Note_on_c, 0, 74, 0
2, 70311, Note_on_c, 0, 69, 0
2, 70311, Note_on_c, 0, 65, 0
2, 70368, Note_on_c, 0, 74, 119
2, 70368, Note_on_c, 0, 69, 119
2, 70368, Note_on_c, 0, 65, 119
2, 70407, Note_on_c, 0, 74, 0
2, 70407, Note_on_c, 0, 69, 0
2, 70407, Note_on_c, 0, 65, 0
2, 70464, Note_on_c, 0, 74, 86
2, 70464, Note_on_c, 0, 68, 86
2, 70464, Note_on_c, 0, 65, 86
2, 70503, Note_on_c, 0, 74, 0
2, 70503, Note_on_c, 0, 68, 0
2, 70503, Note_on_c, 0, 65, 0
2, 70560, Note_on_c, 0, 74, 102
2, 70560, Note_on_c, 0, 68, 102
2, 70560, Note_on_c, 0, 65, 102
2, 70599, Note_on_c, 0, 74, 0
2, 70599, Note_on_c, 0, 68, 0
2, 70599, Note_on_c, 0, 65, 0
2, 70656, Note_on_c, 0, 75, 119
2, 70656, Note_on_c, 0, 70, 119
2, 70656, Note_on_c, 0, 67, 119
2, 70656, Note_on_c, 0, 63, 119
2, 70752, Note_on_c, 0, 75, 0
2, 70752, Note_on_c, 0, 70, 0
2, 70752, Note_on_c, 0, 67, 0
2, 70752, Note_on_c, 0, 63, 0
2, 70752, Note_on_c, 0, 63, 75
2, 70797, Note_on_c, 0, 63, 0
2, 70800, Note_on_c, 0, 75, 75
2, 70845, Note_on_c, 0, 75, 0
2, 70848, Note_on_c, 0, 63, 75
2, 70893, Note_on_c, 0, 63, 0
2, 70896, Note_on_c, 0, 75, 75
2, 70941, Note_on_c, 0, 75, 0
2, 70944, Note_on_c, 0, 63, 75
2, 70989, Note_on_c, 0, 63, 0
2, 70992, Note_on_c, 0, 75, 75
2, 71037, Note_on_c, 0, 75, 0
2, 71040, Note_on_c, 0, 63, 75
2, 71085, Note_on_c, 0, 63, 0
2, 71088, Note_on_c, 0, 75, 75
2, 71133, Note_on_c, 0, 75, 0
2, 71136, Note_on_c, 0, 63, 75
2, 71181, Note_on_c, 0, 63, 0
2, 71184, Note_on_c, 0, 75, 75
2, 71229, Note_on_c, 0, 75, 0
2, 71232, Note_on_c, 0, 63, 75
2, 71277, Note_on_c, 0, 63, 0
2, 71280, Note_on_c, 0, 75, 75
2, 71325, Note_on_c, 0, 75, 0
2, 71328, Note_on_c, 0, 63, 75
2, 71373, Note_on_c, 0, 63, 0
2, 71376, Note_on_c, 0, 75, 75
2, 71421, Note_on_c, 0, 75, 0
2, 71424, Note_on_c, 0, 63, 75
2, 71469, Note_on_c, 0, 63, 0
2, 71472, Note_on_c, 0, 75, 75
2, 71517, Note_on_c, 0, 75, 0
2, 71520, Note_on_c, 0, 63, 75
2, 71565, Note_on_c, 0, 63, 0
2, 71568, Note_on_c, 0, 75, 75
2, 71613, Note_on_c, 0, 75, 0
2, 71616, Note_on_c, 0, 63, 75
2, 71661, Note_on_c, 0, 63, 0
2, 71664, Note_on_c, 0, 75, 75
2, 71709, Note_on_c, 0, 75, 0
2, 71712, Note_on_c, 0, 64, 75
2, 71757, Note_on_c, 0, 64, 0
2, 71760, Note_on_c, 0, 76, 75
2, 71805, Note_on_c, 0, 76, 0
2, 71808, Note_on_c, 0, 65, 75
2, 71853, Note_on_c, 0, 65, 0
2, 71856, Note_on_c, 0, 77, 75
2, 71901, Note_on_c, 0, 77, 0
2, 71904, Note_on_c, 0, 65, 75
2, 71949, Note_on_c, 0, 65, 0
2, 71952, Note_on_c, 0, 77, 76
2, 71997, Note_on_c, 0, 77, 0
2, 72000, Note_on_c, 0, 65, 76
2, 72045, Note_on_c, 0, 65, 0
2, 72048, Note_on_c, 0, 77, 76
2, 72093, Note_on_c, 0, 77, 0
2, 72096, Note_on_c, 0, 66, 77
2, 72141, Note_on_c, 0, 66, 0
2, 72144, Note_on_c, 0, 78, 77
2, 72189, Note_on_c, 0, 78, 0
2, 72192, Note_on_c, 0, 67, 78
2, 72237, Note_on_c, 0, 67, 0
2, 72240, Note_on_c, 0, 79, 78
2, 72285, Note_on_c, 0, 79, 0
2, 72288, Note_on_c, 0, 67, 78
2, 72333, Note_on_c, 0, 67, 0
2, 72336, Note_on_c, 0, 79, 79
2, 72381, Note_on_c, 0, 79, 0
2, 72384, Note_on_c, 0, 67, 79
2, 72429, Note_on_c, 0, 67, 0
2, 72432, Note_on_c, 0, 79, 80
2, 72477, Note_on_c, 0, 79, 0
2, 72480, Note_on_c, 0, 79, 80
2, 72503, Note_on_c, 0, 79, 0
2, 72504, Note_on_c, 0, 77, 80
2, 72527, Note_on_c, 0, 77, 0
2, 72528, Note_on_c, 0, 75, 80
2, 72551, Note_on_c, 0, 75, 0
2, 72552, Note_on_c, 0, 74, 80
2, 72575, Note_on_c, 0, 74, 0
2, 72576, Note_on_c, 0, 72, 80
2, 72615, Note_on_c, 0, 72, 0
2, 72672, Note_on_c, 0, 75, 80
2, 72695, Note_on_c, 0, 75, 0
2, 72696, Note_on_c, 0, 74, 80
2, 72719, Note_on_c, 0, 74, 0
2, 72720, Note_on_c, 0, 72, 80
2, 72743, Note_on_c, 0, 72, 0
2, 72744, Note_on_c, 0, 70, 80
2, 72767, Note_on_c, 0, 70, 0
2, 72768, Note_on_c, 0, 68, 80
2, 72807, Note_on_c, 0, 68, 0
2, 72864, Note_on_c, 0, 72, 80
2, 72887, Note_on_c, 0, 72, 0
2, 72888, Note_on_c, 0, 70, 80
2, 72911, Note_on_c, 0, 70, 0
2, 72912, Note_on_c, 0, 68, 80
2, 72935, Note_on_c, 0, 68, 0
2, 72936, Note_on_c, 0, 67, 80
2, 72959, Note_on_c, 0, 67, 0
2, 72960, Note_on_c, 0, 66, 80
2, 73152, Note_on_c, 0, 66, 0
2, 73152, Note_on_c, 0, 67, 80
2, 73191, Note_on_c, 0, 67, 0
2, 73248, Note_on_c, 0, 70, 96
2, 73248, Note_on_c, 0, 67, 96
2, 73344, Note_on_c, 0, 70, 0
2, 73344, Note_on_c, 0, 72, 80
2, 73344, Note_on_c, 0, 63, 80
2, 73383, Note_on_c, 0, 72, 0
2, 73383, Note_on_c, 0, 67, 0
2, 73383, Note_on_c, 0, 63, 0
2, 73440, Note_on_c, 0, 72, 113
2, 73440, Note_on_c, 0, 67, 113
2, 73440, Note_on_c, 0, 63, 113
2, 73479, Note_on_c, 0, 72, 0
2, 73479, Note_on_c, 0, 67, 0
2, 73479, Note_on_c, 0, 63, 0
2, 73536, Note_on_c, 0, 73, 80
2, 73536, Note_on_c, 0, 69, 80
2, 73536, Note_on_c, 0, 67, 80
2, 73536, Note_on_c, 0, 64, 80
2, 73575, Note_on_c, 0, 73, 0
2, 73575, Note_on_c, 0, 69, 0
2, 73575, Note_on_c, 0, 67, 0
2, 73575, Note_on_c, 0, 64, 0
2, 73632, Note_on_c, 0, 73, 99
2, 73632, Note_on_c, 0, 69, 99
2, 73632, Note_on_c, 0, 67, 99
2, 73632, Note_on_c, 0, 64, 99
2, 73671, Note_on_c, 0, 73, 0
2, 73671, Note_on_c, 0, 69, 0
2, 73671, Note_on_c, 0, 67, 0
2, 73671, Note_on_c, 0, 64, 0
2, 73728, Note_on_c, 0, 74, 119
2, 73728, Note_on_c, 0, 69, 119
2, 73728, Note_on_c, 0, 66, 119
2, 73920, Note_on_c, 0, 74, 0
2, 73920, Note_on_c, 0, 69, 0
2, 73920, Note_on_c, 0, 66, 0
2, 74064, Note_on_c, 0, 70, 75
2, 74109, Note_on_c, 0, 70, 0
2, 74112, Note_on_c, 0, 65, 75
2, 74112, Note_on_c, 0, 62, 75
2, 74201, Note_on_c, 0, 65, 0
2, 74201, Note_on_c, 0, 62, 0
2, 74256, Note_on_c, 0, 70, 75
2, 74301, Note_on_c, 0, 70, 0
2, 74304, Note_on_c, 0, 67, 75
2, 74304, Note_on_c, 0, 63, 75
2, 74393, Note_on_c, 0, 67, 0
2, 74393, Note_on_c, 0, 63, 0
2, 74448, Note_on_c, 0, 70, 75
2, 74493, Note_on_c, 0, 70, 0
2, 74496, Note_on_c, 0, 65, 75
2, 74496, Note_on_c, 0, 62, 75
2, 74585, Note_on_c, 0, 65, 0
2, 74585, Note_on_c, 0, 62, 0
2, 74784, Note_on_c, 0, 79, 75
2, 74807, Note_on_c, 0, 79, 0
2, 74808, Note_on_c, 0, 77, 75
2, 74831, Note_on_c, 0, 77, 0
2, 74832, Note_on_c, 0, 75, 76
2, 74855, Note_on_c, 0, 75, 0
2, 74856, Note_on_c, 0, 74, 76
2, 74879, Note_on_c, 0, 74, 0
2, 74880, Note_on_c, 0, 72, 77
2, 74919, Note_on_c, 0, 72, 0
2, 74976, Note_on_c, 0, 81, 80
2, 74999, Note_on_c, 0, 81, 0
2, 75000, Note_on_c, 0, 79, 80
2, 75023, Note_on_c, 0, 79, 0
2, 75024, Note_on_c, 0, 77, 80
2, 75047, Note_on_c, 0, 77, 0
2, 75048, Note_on_c, 0, 75, 80
2, 75071, Note_on_c, 0, 75, 0
2, 75072, Note_on_c, 0, 74, 80
2, 75111, Note_on_c, 0, 74, 0
2, 75168, Note_on_c, 0, 77, 80
2, 75191, Note_on_c, 0, 77, 0
2, 75192, Note_on_c, 0, 75, 80
2, 75215, Note_on_c, 0, 75, 0
2, 75216, Note_on_c, 0, 74, 80
2, 75239, Note_on_c, 0, 74, 0
2, 75240, Note_on_c, 0, 72, 80
2, 75263, Note_on_c, 0, 72, 0
2, 75264, Note_on_c, 0, 70, 80
2, 75456, Note_on_c, 0, 70, 0
2, 75456, Note_on_c, 0, 69, 80
2, 75501, Note_on_c, 0, 69, 0
2, 75504, Note_on_c, 0, 82, 80
2, 75549, Note_on_c, 0, 82, 0
2, 75552, Note_on_c, 0, 81, 80
2, 75597, Note_on_c, 0, 81, 0
2, 75600, Note_on_c, 0, 82, 80
2, 75645, Note_on_c, 0, 82, 0
2, 75648, Note_on_c, 0, 77, 80
2, 75648, Note_on_c, 0, 74, 80
2, 75737, Note_on_c, 0, 77, 0
2, 75737, Note_on_c, 0, 74, 0
2, 75792, Note_on_c, 0, 82, 80
2, 75837, Note_on_c, 0, 82, 0
2, 75840, Note_on_c, 0, 79, 80
2, 75840, Note_on_c, 0, 75, 80
2, 75929, Note_on_c, 0, 79, 0
2, 75929, Note_on_c, 0, 75, 0
2, 75984, Note_on_c, 0, 82, 80
2, 76029, Note_on_c, 0, 82, 0
2, 76032, Note_on_c, 0, 77, 80
2, 76032, Note_on_c, 0, 74, 80
2, 76121, Note_on_c, 0, 77, 0
2, 76121, Note_on_c, 0, 74, 0
2, 76320, Note_on_c, 0, 79, 80
2, 76332, Note_on_c, 0, 79, 0
2, 76332, Note_on_c, 0, 81, 80
2, 76344, Note_on_c, 0, 81, 0
2, 76344, Note_on_c, 0, 82, 96
2, 76416, Note_on_c, 0, 82, 0
2, 76416, Note_on_c, 0, 72, 75
2, 76464, Note_on_c, 0, 72, 0
2, 76464, Note_on_c, 0, 75, 77
2, 76509, Note_on_c, 0, 75, 0
2, 76512, Note_on_c, 0, 79, 80
2, 76689, Note_on_c, 0, 79, 0
2, 76704, Note_on_c, 0, 69, 76
2, 76704, Note_on_c, 0, 63, 76
2, 76793, Note_on_c, 0, 69, 0
2, 76793, Note_on_c, 0, 63, 0
2, 76800, Note_on_c, 0, 70, 75
2, 76800, Note_on_c, 0, 62, 75
2, 76889, Note_on_c, 0, 70, 0
2, 76889, Note_on_c, 0, 62, 0
2, 77088, Note_on_c, 0, 70, 75
2, 77088, Note_on_c, 0, 62, 75
2, 77127, Note_on_c, 0, 70, 0
2, 77127, Note_on_c, 0, 62, 0
2, 77184, Note_on_c, 0, 72, 91
2, 77184, Note_on_c, 0, 63, 91
2, 77280, Note_on_c, 0, 72, 0
2, 77280, Note_on_c, 0, 63, 0
2, 77280, Note_on_c, 0, 70, 76
2, 77280, Note_on_c, 0, 62, 76
2, 77319, Note_on_c, 0, 70, 0
2, 77319, Note_on_c, 0, 62, 0
2, 77376, Note_on_c, 0, 74, 77
2, 77376, Note_on_c, 0, 65, 77
2, 77472, Note_on_c, 0, 74, 0
2, 77472, Note_on_c, 0, 65, 0
2, 77472, Note_on_c, 0, 72, 78
2, 77472, Note_on_c, 0, 63, 78
2, 77511, Note_on_c, 0, 72, 0
2, 77511, Note_on_c, 0, 63, 0
2, 77568, Note_on_c, 0, 75, 96
2, 77568, Note_on_c, 0, 67, 96
2, 77712, Note_on_c, 0, 75, 0
2, 77712, Note_on_c, 0, 67, 0
2, 77712, Note_on_c, 0, 74, 77
2, 77712, Note_on_c, 0, 65, 77
2, 77757, Note_on_c, 0, 74, 0
2, 77757, Note_on_c, 0, 65, 0
2, 77760, Note_on_c, 0, 72, 76
2, 77760, Note_on_c, 0, 63, 76
2, 77799, Note_on_c, 0, 72, 0
2, 77799, Note_on_c, 0, 63, 0
2, 77856, Note_on_c, 0, 74, 75
2, 77856, Note_on_c, 0, 70, 75
2, 77895, Note_on_c, 0, 74, 0
2, 77895, Note_on_c, 0, 70, 0
2, 77952, Note_on_c, 0, 75, 91
2, 77952, Note_on_c, 0, 72, 91
2, 78048, Note_on_c, 0, 75, 0
2, 78048, Note_on_c, 0, 72, 0
2, 78048, Note_on_c, 0, 74, 76
2, 78048, Note_on_c, 0, 70, 76
2, 78087, Note_on_c, 0, 74, 0
2, 78087, Note_on_c, 0, 70, 0
2, 78144, Note_on_c, 0, 77, 77
2, 78144, Note_on_c, 0, 74, 77
2, 78240, Note_on_c, 0, 77, 0
2, 78240, Note_on_c, 0, 74, 0
2, 78240, Note_on_c, 0, 75, 78
2, 78240, Note_on_c, 0, 72, 78
2, 78279, Note_on_c, 0, 75, 0
2, 78279, Note_on_c, 0, 72, 0
2, 78336, Note_on_c, 0, 79, 96
2, 78336, Note_on_c, 0, 75, 96
2, 78480, Note_on_c, 0, 79, 0
2, 78480, Note_on_c, 0, 75, 0
2, 78480, Note_on_c, 0, 77, 77
2, 78480, Note_on_c, 0, 74, 77
2, 78525, Note_on_c, 0, 77, 0
2, 78525, Note_on_c, 0, 74, 0
2, 78528, Note_on_c, 0, 75, 76
2, 78528, Note_on_c, 0, 72, 76
2, 78567, Note_on_c, 0, 75, 0
2, 78567, Note_on_c, 0, 72, 0
2, 78624, Note_on_c, 0, 77, 75
2, 78624, Note_on_c, 0, 74, 75
2, 78663, Note_on_c, 0, 77, 0
2, 78663, Note_on_c, 0, 74, 0
2, 78720, Note_on_c, 0, 79, 91
2, 78720, Note_on_c, 0, 75, 91
2, 78816, Note_on_c, 0, 79, 0
2, 78816, Note_on_c, 0, 75, 0
2, 78816, Note_on_c, 0, 77, 76
2, 78816, Note_on_c, 0, 74, 76
2, 78855, Note_on_c, 0, 77, 0
2, 78855, Note_on_c, 0, 74, 0
2, 78912, Note_on_c, 0, 80, 77
2, 78912, Note_on_c, 0, 77, 77
2, 79008, Note_on_c, 0, 80, 0
2, 79008, Note_on_c, 0, 77, 0
2, 79008, Note_on_c, 0, 79, 78
2, 79008, Note_on_c, 0, 75, 78
2, 79047, Note_on_c, 0, 79, 0
2, 79047, Note_on_c, 0, 75, 0
2, 79104, Note_on_c, 0, 81, 96
2, 79104, Note_on_c, 0, 75, 96
2, 79104, Note_on_c, 0, 72, 96
2, 79248, Note_on_c, 0, 81, 0
2, 79248, Note_on_c, 0, 75, 0
2, 79248, Note_on_c, 0, 72, 0
2, 79248, Note_on_c, 0, 82, 80
2, 79248, Note_on_c, 0, 77, 80
2, 79248, Note_on_c, 0, 74, 80
2, 79293, Note_on_c, 0, 82, 0
2, 79293, Note_on_c, 0, 77, 0
2, 79293, Note_on_c, 0, 74, 0
2, 79296, Note_on_c, 0, 82, 80
2, 79296, Note_on_c, 0, 77, 80
2, 79296, Note_on_c, 0, 74, 80
2, 79335, Note_on_c, 0, 82, 0
2, 79335, Note_on_c, 0, 77, 0
2, 79335, Note_on_c, 0, 74, 0
2, 79392, Note_on_c, 0, 70, 80
2, 79392, Note_on_c, 0, 65, 80
2, 79392, Note_on_c, 0, 62, 80
2, 79431, Note_on_c, 0, 70, 0
2, 79431, Note_on_c, 0, 65, 0
2, 79431, Note_on_c, 0, 62, 0
2, 79488, Note_on_c, 0, 69, 96
2, 79488, Note_on_c, 0, 63, 96
2, 79488, Note_on_c, 0, 60, 96
2, 79632, Note_on_c, 0, 69, 0
2, 79632, Note_on_c, 0, 63, 0
2, 79632, Note_on_c, 0, 60, 0
2, 79632, Note_on_c, 0, 70, 80
2, 79632, Note_on_c, 0, 65, 80
2, 79632, Note_on_c, 0, 62, 80
2, 79677, Note_on_c, 0, 70, 0
2, 79677, Note_on_c, 0, 65, 0
2, 79677, Note_on_c, 0, 62, 0
2, 79680, Note_on_c, 0, 70, 80
2, 79680, Note_on_c, 0, 65, 80
2, 79680, Note_on_c, 0, 62, 80
2, 79719, Note_on_c, 0, 70, 0
2, 79719, Note_on_c, 0, 65, 0
2, 79719, Note_on_c, 0, 62, 0
2, 79776, Note_on_c, 0, 65, 80
2, 79776, Note_on_c, 0, 62, 80
2, 79815, Note_on_c, 0, 65, 0
2, 79815, Note_on_c, 0, 62, 0
2, 79872, Note_on_c, 0, 68, 96
2, 79872, Note_on_c, 0, 65, 96
2, 79872, Note_on_c, 0, 62, 96
2, 80016, Note_on_c, 0, 68, 0
2, 80016, Note_on_c, 0, 65, 0
2, 80016, Note_on_c, 0, 62, 0
2, 80016, Note_on_c, 0, 67, 80
2, 80016, Note_on_c, 0, 63, 80
2, 80061, Note_on_c, 0, 67, 0
2, 80061, Note_on_c, 0, 63, 0
2, 80064, Note_on_c, 0, 67, 96
2, 80064, Note_on_c, 0, 63, 96
2, 80103, Note_on_c, 0, 67, 0
2, 80103, Note_on_c, 0, 63, 0
2, 80160, Note_on_c, 0, 72, 80
2, 80160, Note_on_c, 0, 67, 80
2, 80160, Note_on_c, 0, 63, 80
2, 80199, Note_on_c, 0, 72, 0
2, 80199, Note_on_c, 0, 67, 0
2, 80199, Note_on_c, 0, 63, 0
2, 80256, Note_on_c, 0, 71, 97
2, 80256, Note_on_c, 0, 67, 97
2, 80256, Note_on_c, 0, 65, 97
2, 80400, Note_on_c, 0, 71, 0
2, 80400, Note_on_c, 0, 67, 0
2, 80400, Note_on_c, 0, 65, 0
2, 80400, Note_on_c, 0, 72, 81
2, 80400, Note_on_c, 0, 67, 81
2, 80400, Note_on_c, 0, 63, 81
2, 80445, Note_on_c, 0, 72, 0
2, 80445, Note_on_c, 0, 67, 0
2, 80445, Note_on_c, 0, 63, 0
2, 80448, Note_on_c, 0, 72, 82
2, 80448, Note_on_c, 0, 67, 82
2, 80448, Note_on_c, 0, 63, 82
2, 80487, Note_on_c, 0, 72, 0
2, 80487, Note_on_c, 0, 67, 0
2, 80487, Note_on_c, 0, 63, 0
2, 80544, Note_on_c, 0, 67, 82
2, 80544, Note_on_c, 0, 63, 82
2, 80583, Note_on_c, 0, 67, 0
2, 80583, Note_on_c, 0, 63, 0
2, 80640, Note_on_c, 0, 70, 98
2, 80640, Note_on_c, 0, 67, 98
2, 80640, Note_on_c, 0, 64, 98
2, 80784, Note_on_c, 0, 70, 0
2, 80784, Note_on_c, 0, 67, 0
2, 80784, Note_on_c, 0, 64, 0
2, 80784, Note_on_c, 0, 69, 83
2, 80784, Note_on_c, 0, 65, 83
2, 80829, Note_on_c, 0, 69, 0
2, 80829, Note_on_c, 0, 65, 0
2, 80832, Note_on_c, 0, 69, 99
2, 80832, Note_on_c, 0, 65, 99
2, 80871, Note_on_c, 0, 69, 0
2, 80871, Note_on_c, 0, 65, 0
2, 80928, Note_on_c, 0, 74, 84
2, 80928, Note_on_c, 0, 69, 84
2, 80928, Note_on_c, 0, 65, 84
2, 80967, Note_on_c, 0, 74, 0
2, 80967, Note_on_c, 0, 69, 0
2, 80967, Note_on_c, 0, 65, 0
2, 81024, Note_on_c, 0, 73, 100
2, 81024, Note_on_c, 0, 69, 100
2, 81024, Note_on_c, 0, 67, 100
2, 81168, Note_on_c, 0, 73, 0
2, 81168, Note_on_c, 0, 69, 0
2, 81168, Note_on_c, 0, 67, 0
2, 81168, Note_on_c, 0, 74, 85
2, 81168, Note_on_c, 0, 69, 85
2, 81168, Note_on_c, 0, 65, 85
2, 81213, Note_on_c, 0, 74, 0
2, 81213, Note_on_c, 0, 69, 0
2, 81213, Note_on_c, 0, 65, 0
2, 81216, Note_on_c, 0, 74, 85
2, 81216, Note_on_c, 0, 69, 85
2, 81216, Note_on_c, 0, 65, 85
2, 81255, Note_on_c, 0, 74, 0
2, 81255, Note_on_c, 0, 69, 0
2, 81255, Note_on_c, 0, 65, 0
2, 81312, Note_on_c, 0, 86, 86
2, 81335, Note_on_c, 0, 86, 0
2, 81336, Note_on_c, 0, 84, 86
2, 81359, Note_on_c, 0, 84, 0
2, 81360, Note_on_c, 0, 82, 86
2, 81383, Note_on_c, 0, 82, 0
2, 81384, Note_on_c, 0, 81, 86
2, 81407, Note_on_c, 0, 81, 0
2, 81408, Note_on_c, 0, 79, 86
2, 81447, Note_on_c, 0, 79, 0
2, 81504, Note_on_c, 0, 82, 86
2, 81527, Note_on_c, 0, 82, 0
2, 81528, Note_on_c, 0, 81, 86
2, 81551, Note_on_c, 0, 81, 0
2, 81552, Note_on_c, 0, 79, 86
2, 81575, Note_on_c, 0, 79, 0
2, 81576, Note_on_c, 0, 77, 86
2, 81599, Note_on_c, 0, 77, 0
2, 81600, Note_on_c, 0, 75, 86
2, 81639, Note_on_c, 0, 75, 0
2, 81696, Note_on_c, 0, 79, 86
2, 81719, Note_on_c, 0, 79, 0
2, 81720, Note_on_c, 0, 77, 86
2, 81743, Note_on_c, 0, 77, 0
2, 81744, Note_on_c, 0, 75, 86
2, 81767, Note_on_c, 0, 75, 0
2, 81768, Note_on_c, 0, 74, 86
2, 81791, Note_on_c, 0, 74, 0
2, 81792, Note_on_c, 0, 73, 86
2, 81984, Note_on_c, 0, 73, 0
2, 81984, Note_on_c, 0, 74, 86
2, 82023, Note_on_c, 0, 74, 0
2, 82080, Note_on_c, 0, 72, 86
2, 82080, Note_on_c, 0, 69, 86
2, 82176, Note_on_c, 0, 72, 0
2, 82176, Note_on_c, 0, 69, 0
2, 82176, Note_on_c, 0, 74, 86
2, 82176, Note_on_c, 0, 70, 86
2, 82176, Note_on_c, 0, 67, 86
2, 82215, Note_on_c, 0, 74, 0
2, 82215, Note_on_c, 0, 70, 0
2, 82215, Note_on_c, 0, 67, 0
2, 82272, Note_on_c, 0, 74, 86
2, 82272, Note_on_c, 0, 70, 86
2, 82272, Note_on_c, 0, 67, 86
2, 82311, Note_on_c, 0, 74, 0
2, 82311, Note_on_c, 0, 70, 0
2, 82311, Note_on_c, 0, 67, 0
2, 82368, Note_on_c, 0, 75, 86
2, 82368, Note_on_c, 0, 69, 86
2, 82407, Note_on_c, 0, 75, 0
2, 82407, Note_on_c, 0, 69, 0
2, 82464, Note_on_c, 0, 66, 86
2, 82464, Note_on_c, 0, 62, 86
2, 82464, Note_on_c, 0, 57, 86
2, 82503, Note_on_c, 0, 66, 0
2, 82503, Note_on_c, 0, 62, 0
2, 82503, Note_on_c, 0, 57, 0
2, 82560, Note_on_c, 0, 67, 86
2, 82560, Note_on_c, 0, 62, 86
2, 82560, Note_on_c, 0, 58, 86
2, 82737, Note_on_c, 0, 67, 0
2, 82737, Note_on_c, 0, 62, 0
2, 82737, Note_on_c, 0, 58, 0
2, 82848, Note_on_c, 0, 84, 80
2, 82860, Note_on_c, 0, 84, 0
2, 82860, Note_on_c, 0, 82, 80
2, 82872, Note_on_c, 0, 82, 0
2, 82872, Note_on_c, 0, 81, 80
2, 82884, Note_on_c, 0, 81, 0
2, 82884, Note_on_c, 0, 82, 96
2, 82974, Note_on_c, 0, 82, 0
2, 82976, Note_on_c, 0, 86, 80
2, 83006, Note_on_c, 0, 86, 0
2, 83008, Note_on_c, 0, 84, 80
2, 83038, Note_on_c, 0, 84, 0
2, 83040, Note_on_c, 0, 82, 80
2, 83070, Note_on_c, 0, 82, 0
2, 83072, Note_on_c, 0, 84, 80
2, 83102, Note_on_c, 0, 84, 0
2, 83104, Note_on_c, 0, 86, 80
2, 83134, Note_on_c, 0, 86, 0
2, 83136, Note_on_c, 0, 79, 80
2, 83166, Note_on_c, 0, 79, 0
2, 83168, Note_on_c, 0, 82, 80
2, 83198, Note_on_c, 0, 82, 0
2, 83200, Note_on_c, 0, 81, 80
2, 83230, Note_on_c, 0, 81, 0
2, 83232, Note_on_c, 0, 79, 80
2, 83262, Note_on_c, 0, 79, 0
2, 83264, Note_on_c, 0, 81, 80
2, 83294, Note_on_c, 0, 81, 0
2, 83296, Note_on_c, 0, 82, 80
2, 83326, Note_on_c, 0, 82, 0
2, 83328, Note_on_c, 0, 75, 70
2, 83358, Note_on_c, 0, 75, 0
2, 83360, Note_on_c, 0, 79, 70
2, 83390, Note_on_c, 0, 79, 0
2, 83392, Note_on_c, 0, 77, 70
2, 83422, Note_on_c, 0, 77, 0
2, 83424, Note_on_c, 0, 75, 71
2, 83454, Note_on_c, 0, 75, 0
2, 83456, Note_on_c, 0, 77, 71
2, 83486, Note_on_c, 0, 77, 0
2, 83488, Note_on_c, 0, 79, 71
2, 83518, Note_on_c, 0, 79, 0
2, 83520, Note_on_c, 0, 72, 72
2, 83550, Note_on_c, 0, 72, 0
2, 83552, Note_on_c, 0, 75, 72
2, 83582, Note_on_c, 0, 75, 0
2, 83584, Note_on_c, 0, 74, 73
2, 83614, Note_on_c, 0, 74, 0
2, 83616, Note_on_c, 0, 72, 73
2, 83646, Note_on_c, 0, 72, 0
2, 83648, Note_on_c, 0, 74, 73
2, 83678, Note_on_c, 0, 74, 0
2, 83680, Note_on_c, 0, 75, 74
2, 83710, Note_on_c, 0, 75, 0
2, 83712, Control_c, 0, 64, 127
2, 83736, Note_on_c, 0, 57, 75
2, 83759, Note_on_c, 0, 57, 0
2, 83760, Note_on_c, 0, 60, 75
2, 83783, Note_on_c, 0, 60, 0
2, 83784, Note_on_c, 0, 57, 75
2, 83807, Note_on_c, 0, 57, 0
2, 83832, Note_on_c, 0, 60, 75
2, 83855, Note_on_c, 0, 60, 0
2, 83856, Note_on_c, 0, 65, 75
2, 83879, Note_on_c, 0, 65, 0
2, 83880, Note_on_c, 0, 60, 75
2, 83903, Note_on_c, 0, 60, 0
2, 83928, Note_on_c, 0, 65, 75
2, 83951, Note_on_c, 0, 65, 0
2, 83952, Note_on_c, 0, 69, 75
2, 83975, Note_on_c, 0, 69, 0
2, 83976, Note_on_c, 0, 65, 75
2, 83999, Note_on_c, 0, 65, 0
2, 84024, Note_on_c, 0, 69, 75
2, 84047, Note_on_c, 0, 69, 0
2, 84048, Note_on_c, 0, 72, 75
2, 84071, Note_on_c, 0, 72, 0
2, 84072, Note_on_c, 0, 69, 75
2, 84096, Note_on_c, 0, 75, 91
2, 84096, Note_on_c, 0, 72, 91
2, 84384, Note_on_c, 0, 75, 0
2, 84384, Note_on_c, 0, 72, 0
2, 84384, Note_on_c, 0, 69, 0
2, 84384, Control_c, 0, 64, 0
2, 84480, Control_c, 0, 64, 127
2, 84504, Note_on_c, 0, 71, 75
2, 84527, Note_on_c, 0, 71, 0
2, 84528, Note_on_c, 0, 74, 75
2, 84551, Note_on_c, 0, 74, 0
2, 84552, Note_on_c, 0, 71, 75
2, 84575, Note_on_c, 0, 71, 0
2, 84600, Note_on_c, 0, 74, 75
2, 84623, Note_on_c, 0, 74, 0
2, 84624, Note_on_c, 0, 77, 75
2, 84647, Note_on_c, 0, 77, 0
2, 84648, Note_on_c, 0, 74, 75
2, 84671, Note_on_c, 0, 74, 0
2, 84696, Note_on_c, 0, 77, 75
2, 84719, Note_on_c, 0, 77, 0
2, 84720, Note_on_c, 0, 83, 75
2, 84743, Note_on_c, 0, 83, 0
2, 84744, Note_on_c, 0, 77, 75
2, 84767, Note_on_c, 0, 77, 0
2, 84792, Note_on_c, 0, 83, 75
2, 84815, Note_on_c, 0, 83, 0
2, 84816, Note_on_c, 0, 86, 75
2, 84839, Note_on_c, 0, 86, 0
2, 84840, Note_on_c, 0, 83, 75
2, 84864, Note_on_c, 0, 89, 91
2, 84864, Note_on_c, 0, 86, 91
2, 85152, Note_on_c, 0, 89, 0
2, 85152, Note_on_c, 0, 86, 0
2, 85152, Note_on_c, 0, 83, 0
2, 85152, Control_c, 0, 64, 0
2, 85248, Control_c, 0, 64, 127
2, 85272, Note_on_c, 0, 67, 75
2, 85295, Note_on_c, 0, 67, 0
2, 85296, Note_on_c, 0, 72, 75
2, 85319, Note_on_c, 0, 72, 0
2, 85320, Note_on_c, 0, 67, 75
2, 85343, Note_on_c, 0, 67, 0
2, 85368, Note_on_c, 0, 72, 75
2, 85391, Note_on_c, 0, 72, 0
2, 85392, Note_on_c, 0, 75, 75
2, 85415, Note_on_c, 0, 75, 0
2, 85416, Note_on_c, 0, 72, 75
2, 85439, Note_on_c, 0, 72, 0
2, 85464, Note_on_c, 0, 75, 75
2, 85487, Note_on_c, 0, 75, 0
2, 85488, Note_on_c, 0, 79, 75
2, 85511, Note_on_c, 0, 79, 0
2, 85512, Note_on_c, 0, 75, 75
2, 85535, Note_on_c, 0, 75, 0
2, 85560, Note_on_c, 0, 79, 75
2, 85583, Note_on_c, 0, 79, 0
2, 85584, Note_on_c, 0, 84, 75
2, 85607, Note_on_c, 0, 84, 0
2, 85608, Note_on_c, 0, 79, 75
2, 85632, Note_on_c, 0, 87, 91
2, 85632, Note_on_c, 0, 84, 91
2, 85920, Note_on_c, 0, 87, 0
2, 85920, Note_on_c, 0, 84, 0
2, 85920, Note_on_c, 0, 79, 0
2, 85920, Control_c, 0, 64, 0
2, 86016, Control_c, 0, 64, 127
2, 86040, Note_on_c, 0, 60, 75
2, 86063, Note_on_c, 0, 60, 0
2, 86064, Note_on_c, 0, 63, 75
2, 86087, Note_on_c, 0, 63, 0
2, 86088, Note_on_c, 0, 60, 75
2, 86111, Note_on_c, 0, 60, 0
2, 86136, Note_on_c, 0, 63, 75
2, 86159, Note_on_c, 0, 63, 0
2, 86160, Note_on_c, 0, 69, 75
2, 86183, Note_on_c, 0, 69, 0
2, 86184, Note_on_c, 0, 63, 75
2, 86207, Note_on_c, 0, 63, 0
2, 86232, Note_on_c, 0, 69, 75
2, 86255, Note_on_c, 0, 69, 0
2, 86256, Note_on_c, 0, 72, 75
2, 86279, Note_on_c, 0, 72, 0
2, 86280, Note_on_c, 0, 69, 75
2, 86303, Note_on_c, 0, 69, 0
2, 86328, Note_on_c, 0, 72, 75
2, 86351, Note_on_c, 0, 72, 0
2, 86352, Note_on_c, 0, 75, 75
2, 86375, Note_on_c, 0, 75, 0
2, 86376, Note_on_c, 0, 72, 75
2, 86400, Note_on_c, 0, 78, 91
2, 86400, Note_on_c, 0, 75, 91
2, 86688, Note_on_c, 0, 78, 0
2, 86688, Note_on_c, 0, 75, 0
2, 86688, Note_on_c, 0, 72, 0
2, 86688, Control_c, 0, 64, 0
2, 87072, Note_on_c, 0, 70, 75
2, 87111, Note_on_c, 0, 70, 0
2, 87264, Note_on_c, 0, 77, 75
2, 87303, Note_on_c, 0, 77, 0
2, 87456, Note_on_c, 0, 75, 75
2, 87479, Note_on_c, 0, 75, 0
2, 87480, Note_on_c, 0, 74, 75
2, 87503, Note_on_c, 0, 74, 0
2, 87504, Note_on_c, 0, 72, 75
2, 87527, Note_on_c, 0, 72, 0
2, 87528, Note_on_c, 0, 70, 75
2, 87551, Note_on_c, 0, 70, 0
2, 87552, Note_on_c, 0, 69, 75
2, 87641, Note_on_c, 0, 69, 0
2, 87648, Note_on_c, 0, 75, 75
2, 87687, Note_on_c, 0, 75, 0
2, 87840, Note_on_c, 0, 74, 75
2, 87863, Note_on_c, 0, 74, 0
2, 87864, Note_on_c, 0, 72, 75
2, 87887, Note_on_c, 0, 72, 0
2, 87888, Note_on_c, 0, 70, 75
2, 87911, Note_on_c, 0, 70, 0
2, 87912, Note_on_c, 0, 69, 75
2, 87935, Note_on_c, 0, 69, 0
2, 87936, Note_on_c, 0, 70, 75
2, 88003, Note_on_c, 0, 70, 0
2, 88008, Note_on_c, 0, 65, 75
2, 88031, Note_on_c, 0, 65, 0
2, 88032, Note_on_c, 0, 74, 75
2, 88099, Note_on_c, 0, 74, 0
2, 88104, Note_on_c, 0, 70, 76
2, 88127, Note_on_c, 0, 70, 0
2, 88128, Note_on_c, 0, 77, 76
2, 88195, Note_on_c, 0, 77, 0
2, 88200, Note_on_c, 0, 74, 77
2, 88223, Note_on_c, 0, 74, 0
2, 88224, Note_on_c, 0, 82, 77
2, 88291, Note_on_c, 0, 82, 0
2, 88296, Note_on_c, 0, 77, 78
2, 88319, Note_on_c, 0, 77, 0
2, 88320, Note_on_c, 0, 78, 78
2, 88368, Note_on_c, 0, 78, 0
2, 88368, Note_on_c, 0, 79, 78
2, 88413, Note_on_c, 0, 79, 0
2, 88416, Note_on_c, 0, 79, 95
2, 88542, Note_on_c, 0, 79, 0
2, 88544, Note_on_c, 0, 72, 80
2, 88574, Note_on_c, 0, 72, 0
2, 88576, Note_on_c, 0, 74, 80
2, 88606, Note_on_c, 0, 74, 0
2, 88608, Note_on_c, 0, 75, 80
2, 88638, Note_on_c, 0, 75, 0
2, 88640, Note_on_c, 0, 74, 80
2, 88670, Note_on_c, 0, 74, 0
2, 88672, Note_on_c, 0, 72, 80
2, 88702, Note_on_c, 0, 72, 0
2, 88704, Note_on_c, 0, 72, 80
2, 88752, Note_on_c, 0, 72, 0
2, 88752, Note_on_c, 0, 70, 80
2, 88797, Note_on_c, 0, 70, 0
2, 88800, Note_on_c, 0, 70, 95
2, 88992, Note_on_c, 0, 70, 0
2, 88992, Note_on_c, 0, 74, 76
2, 88992, Note_on_c, 0, 69, 76
2, 89040, Note_on_c, 0, 74, 0
2, 89040, Note_on_c, 0, 69, 0
2, 89040, Note_on_c, 0, 72, 75
2, 89040, Note_on_c, 0, 66, 75
2, 89085, Note_on_c, 0, 72, 0
2, 89085, Note_on_c, 0, 66, 0
2, 89088, Note_on_c, 0, 70, 75
2, 89088, Note_on_c, 0, 67, 75
2, 89265, Note_on_c, 0, 70, 0
2, 89265, Note_on_c, 0, 67, 0
2, 89312, Note_on_c, 0, 60, 75
2, 89342, Note_on_c, 0, 60, 0
2, 89344, Note_on_c, 0, 62, 75
2, 89374, Note_on_c, 0, 62, 0
2, 89376, Note_on_c, 0, 63, 75
2, 89406, Note_on_c, 0, 63, 0
2, 89408, Note_on_c, 0, 62, 75
2, 89438, Note_on_c, 0, 62, 0
2, 89440, Note_on_c, 0, 60, 75
2, 89470, Note_on_c, 0, 60, 0
2, 89472, Note_on_c, 0, 65, 75
2, 89544, Note_on_c, 0, 65, 0
2, 89544, Note_on_c, 0, 62, 75
2, 89567, Note_on_c, 0, 62, 0
2, 89568, Note_on_c, 0, 58, 75
2, 89657, Note_on_c, 0, 58, 0
2, 89664, Note_on_c, 0, 60, 75
2, 89688, Note_on_c, 0, 60, 0
2, 89688, Note_on_c, 0, 58, 75
2, 89712, Note_on_c, 0, 58, 0
2, 89712, Note_on_c, 0, 57, 75
2, 89736, Note_on_c, 0, 57, 0
2, 89736, Note_on_c, 0, 58, 75
2, 89760, Note_on_c, 0, 58, 0
2, 89760, Note_on_c, 0, 62, 75
2, 89808, Note_on_c, 0, 62, 0
2, 89808, Note_on_c, 0, 60, 75
2, 89853, Note_on_c, 0, 60, 0
2, 89856, Note_on_c, 0, 58, 75
2, 89945, Note_on_c, 0, 58, 0
2, 90048, Note_on_c, 0, 68, 113
2, 90048, Note_on_c, 0, 65, 113
2, 90048, Note_on_c, 0, 62, 113
2, 90240, Note_on_c, 0, 68, 0
2, 90240, Note_on_c, 0, 65, 0
2, 90240, Note_on_c, 0, 62, 0
2, 90240, Note_on_c, 0, 67, 80
2, 90240, Note_on_c, 0, 63, 80
2, 90279, Note_on_c, 0, 67, 0
2, 90279, Note_on_c, 0, 63, 0
2, 90432, Note_on_c, 0, 69, 113
2, 90432, Note_on_c, 0, 63, 113
2, 90432, Note_on_c, 0, 60, 113
2, 90624, Note_on_c, 0, 69, 0
2, 90624, Note_on_c, 0, 63, 0
2, 90624, Note_on_c, 0, 60, 0
2, 90624, Note_on_c, 0, 70, 80
2, 90624, Note_on_c, 0, 65, 80
2, 90624, Note_on_c, 0, 62, 80
2, 90663, Note_on_c, 0, 70, 0
2, 90663, Note_on_c, 0, 65, 0
2, 90663, Note_on_c, 0, 62, 0
2, 90720, Note_on_c, 0, 68, 97
2, 90720, Note_on_c, 0, 65, 97
2, 90720, Note_on_c, 0, 62, 97
2, 90759, Note_on_c, 0, 68, 0
2, 90759, Note_on_c, 0, 65, 0
2, 90759, Note_on_c, 0, 62, 0
2, 90912, Note_on_c, 0, 67, 97
2, 90912, Note_on_c, 0, 63, 97
2, 90951, Note_on_c, 0, 67, 0
2, 90951, Note_on_c, 0, 63, 0
2, 91104, Note_on_c, 0, 69, 113
2, 91104, Note_on_c, 0, 63, 113
2, 91104, Note_on_c, 0, 60, 113
2, 91200, Note_on_c, 0, 69, 0
2, 91200, Note_on_c, 0, 63, 0
2, 91200, Note_on_c, 0, 60, 0
2, 91200, Note_on_c, 0, 70, 80
2, 91200, Note_on_c, 0, 65, 80
2, 91200, Note_on_c, 0, 62, 80
2, 91239, Note_on_c, 0, 70, 0
2, 91239, Note_on_c, 0, 65, 0
2, 91239, Note_on_c, 0, 62, 0
2, 91296, Note_on_c, 0, 78, 97
2, 91296, Note_on_c, 0, 75, 97
2, 91392, Note_on_c, 0, 78, 0
2, 91392, Note_on_c, 0, 75, 0
2, 91392, Note_on_c, 0, 77, 80
2, 91392, Note_on_c, 0, 74, 80
2, 91431, Note_on_c, 0, 77, 0
2, 91431, Note_on_c, 0, 74, 0
2, 91488, Note_on_c, 0, 81, 80
2, 91488, Note_on_c, 0, 75, 80
2, 91527, Note_on_c, 0, 81, 0
2, 91527, Note_on_c, 0, 75, 0
2, 91584, Note_on_c, 0, 82, 77
2, 91584, Note_on_c, 0, 74, 77
2, 91623, Note_on_c, 0, 82, 0
2, 91623, Note_on_c, 0, 74, 0
2, 91680, Note_on_c, 0, 54, 92
2, 91680, Note_on_c, 0, 51, 92
2, 91776, Note_on_c, 0, 54, 0
2, 91776, Note_on_c, 0, 51, 0
2, 91776, Note_on_c, 0, 53, 73
2, 91776, Note_on_c, 0, 50, 73
2, 91815, Note_on_c, 0, 53, 0
2, 91815, Note_on_c, 0, 50, 0
2, 91872, Note_on_c, 0, 57, 70
2, 91872, Note_on_c, 0, 51, 70
2, 91911, Note_on_c, 0, 57, 0
2, 91911, Note_on_c, 0, 51, 0
2, 91968, Note_on_c, 0, 58, 68
2, 91968, Note_on_c, 0, 50, 68
2, 92057, Note_on_c, 0, 58, 0
2, 92057, Note_on_c, 0, 50, 0
2, 92112, Note_on_c, 0, 77, 65
2, 92157, Note_on_c, 0, 77, 0
2, 92160, Note_on_c, 0, 77, 80
2, 92256, Note_on_c, 0, 77, 0
2, 92256, Note_on_c, 0, 76, 64
2, 92279, Note_on_c, 0, 76, 0
2, 92280, Note_on_c, 0, 77, 64
2, 92303, Note_on_c, 0, 77, 0
2, 92304, Note_on_c, 0, 79, 64
2, 92327, Note_on_c, 0, 79, 0
2, 92328, Note_on_c, 0, 77, 64
2, 92351, Note_on_c, 0, 77, 0
2, 92352, Note_on_c, 0, 70, 64
2, 92441, Note_on_c, 0, 70, 0
2, 92544, End_track
3, 0, Start_track
3, 0, Program_c, 0, 0
3, 0, Control_c, 0, 7, 127
3, 0, Control_c, 0, 10, 64
3, 33792, Note_on_c, 0, 57, 64
3, 33984, Note_on_c, 0, 57, 0
3, 33984, Note_on_c, 0, 55, 64
3, 34029, Note_on_c, 0, 55, 0
3, 35712, Note_on_c, 0, 65, 64
3, 35712, Note_on_c, 0, 61, 64
3, 35801, Note_on_c, 0, 65, 0
3, 35801, Note_on_c, 0, 61, 0
3, 63744, Note_on_c, 0, 57, 64
3, 63936, Note_on_c, 0, 57, 0
3, 63936, Note_on_c, 0, 55, 64
3, 63981, Note_on_c, 0, 55, 0
3, 65664, Note_on_c, 0, 65, 64
3, 65664, Note_on_c, 0, 61, 64
3, 65753, Note_on_c, 0, 65, 0
3, 65753, Note_on_c, 0, 61, 0
3, 92544, End_track
4, 0, Start_track
4, 0, Program_c, 1, 0
4, 0, Control_c, 1, 7, 127
4, 0, Control_c, 1, 10, 64
4, 480, Note_on_c, 1, 46, 75
4, 569, Note_on_c, 1, 46, 0
4, 672, Note_on_c, 1, 46, 75
4, 761, Note_on_c, 1, 46, 0
4, 816, Note_on_c, 1, 46, 75
4, 836, Note_on_c, 1, 46, 0
4, 864, Note_on_c, 1, 50, 75
4, 884, Note_on_c, 1, 50, 0
4, 912, Note_on_c, 1, 53, 75
4, 932, Note_on_c, 1, 53, 0
4, 960, Note_on_c, 1, 58, 75
4, 1049, Note_on_c, 1, 58, 0
4, 1584, Note_on_c, 1, 41, 75
4, 1604, Note_on_c, 1, 41, 0
4, 1632, Note_on_c, 1, 45, 75
4, 1652, Note_on_c, 1, 45, 0
4, 1680, Note_on_c, 1, 48, 75
4, 1700, Note_on_c, 1, 48, 0
4, 1728, Note_on_c, 1, 53, 75
4, 1817, Note_on_c, 1, 53, 0
4, 1968, Note_on_c, 1, 46, 75
4, 2013, Note_on_c, 1, 46, 0
4, 2016, Note_on_c, 1, 58, 75
4, 2105, Note_on_c, 1, 58, 0
4, 2160, Note_on_c, 1, 46, 75
4, 2205, Note_on_c, 1, 46, 0
4, 2208, Note_on_c, 1, 58, 75
4, 2297, Note_on_c, 1, 58, 0
4, 2352, Note_on_c, 1, 58, 75
4, 2372, Note_on_c, 1, 58, 0
4, 2400, Note_on_c, 1, 62, 75
4, 2420, Note_on_c, 1, 62, 0
4, 2448, Note_on_c, 1, 65, 75
4, 2468, Note_on_c, 1, 65, 0
4, 2496, Note_on_c, 1, 70, 75
4, 2585, Note_on_c, 1, 70, 0
4, 2688, Note_on_c, 1, 51, 75
4, 2688, Note_on_c, 1, 39, 75
4, 2865, Note_on_c, 1, 51, 0
4, 2865, Note_on_c, 1, 39, 0
4, 2880, Note_on_c, 1, 53, 75
4, 2880, Note_on_c, 1, 41, 75
4, 3057, Note_on_c, 1, 53, 0
4, 3057, Note_on_c, 1, 41, 0
4, 3072, Note_on_c, 1, 46, 75
4, 3117, Note_on_c, 1, 46, 0
4, 3120, Note_on_c, 1, 58, 75
4, 3165, Note_on_c, 1, 58, 0
4, 3168, Note_on_c, 1, 46, 75
4, 3213, Note_on_c, 1, 46, 0
4, 3216, Note_on_c, 1, 58, 75
4, 3261, Note_on_c, 1, 58, 0
4, 3264, Note_on_c, 1, 46, 75
4, 3309, Note_on_c, 1, 46, 0
4, 3312, Note_on_c, 1, 58, 75
4, 3357, Note_on_c, 1, 58, 0
4, 3360, Note_on_c, 1, 46, 75
4, 3405, Note_on_c, 1, 46, 0
4, 3408, Note_on_c, 1, 58, 75
4, 3453, Note_on_c, 1, 58, 0
4, 3456, Note_on_c, 1, 46, 75
4, 3501, Note_on_c, 1, 46, 0
4, 3504, Note_on_c, 1, 58, 75
4, 3549, Note_on_c, 1, 58, 0
4, 3552, Note_on_c, 1, 46, 75
4, 3597, Note_on_c, 1, 46, 0
4, 3600, Note_on_c, 1, 58, 75
4, 3645, Note_on_c, 1, 58, 0
4, 3648, Note_on_c, 1, 46, 75
4, 3693, Note_on_c, 1, 46, 0
4, 3696, Note_on_c, 1, 58, 75
4, 3741, Note_on_c, 1, 58, 0
4, 3744, Note_on_c, 1, 46, 75
4, 3789, Note_on_c, 1, 46, 0
4, 3792, Note_on_c, 1, 58, 75
4, 3837, Note_on_c, 1, 58, 0
4, 3840, Note_on_c, 1, 46, 75
4, 3885, Note_on_c, 1, 46, 0
4, 3888, Note_on_c, 1, 58, 75
4, 3933, Note_on_c, 1, 58, 0
4, 3936, Note_on_c, 1, 46, 75
4, 3981, Note_on_c, 1, 46, 0
4, 3984, Note_on_c, 1, 58, 75
4, 4029, Note_on_c, 1, 58, 0
4, 4032, Note_on_c, 1, 46, 75
4, 4077, Note_on_c, 1, 46, 0
4, 4080, Note_on_c, 1, 58, 75
4, 4125, Note_on_c, 1, 58, 0
4, 4128, Note_on_c, 1, 46, 75
4, 4173, Note_on_c, 1, 46, 0
4, 4176, Note_on_c, 1, 58, 75
4, 4221, Note_on_c, 1, 58, 0
4, 4224, Note_on_c, 1, 46, 75
4, 4269, Note_on_c, 1, 46, 0
4, 4272, Note_on_c, 1, 58, 75
4, 4317, Note_on_c, 1, 58, 0
4, 4320, Note_on_c, 1, 46, 75
4, 4365, Note_on_c, 1, 46, 0
4, 4368, Note_on_c, 1, 58, 75
4, 4413, Note_on_c, 1, 58, 0
4, 4416, Note_on_c, 1, 46, 75
4, 4461, Note_on_c, 1, 46, 0
4, 4464, Note_on_c, 1, 58, 75
4, 4509, Note_on_c, 1, 58, 0
4, 4512, Note_on_c, 1, 46, 75
4, 4557, Note_on_c, 1, 46, 0
4, 4560, Note_on_c, 1, 58, 75
4, 4605, Note_on_c, 1, 58, 0
4, 4608, Note_on_c, 1, 46, 75
4, 4653, Note_on_c, 1, 46, 0
4, 4656, Note_on_c, 1, 58, 75
4, 4701, Note_on_c, 1, 58, 0
4, 4704, Note_on_c, 1, 46, 75
4, 4749, Note_on_c, 1, 46, 0
4, 4752, Note_on_c, 1, 58, 75
4, 4797, Note_on_c, 1, 58, 0
4, 4800, Note_on_c, 1, 46, 75
4, 4845, Note_on_c, 1, 46, 0
4, 4848, Note_on_c, 1, 58, 75
4, 4893, Note_on_c, 1, 58, 0
4, 4896, Note_on_c, 1, 46, 75
4, 4941, Note_on_c, 1, 46, 0
4, 4944, Note_on_c, 1, 58, 75
4, 4989, Note_on_c, 1, 58, 0
4, 4992, Note_on_c, 1, 46, 75
4, 5037, Note_on_c, 1, 46, 0
4, 5040, Note_on_c, 1, 58, 75
4, 5085, Note_on_c, 1, 58, 0
4, 5088, Note_on_c, 1, 46, 76
4, 5133, Note_on_c, 1, 46, 0
4, 5136, Note_on_c, 1, 58, 76
4, 5181, Note_on_c, 1, 58, 0
4, 5184, Note_on_c, 1, 46, 77
4, 5229, Note_on_c, 1, 46, 0
4, 5232, Note_on_c, 1, 58, 78
4, 5277, Note_on_c, 1, 58, 0
4, 5280, Note_on_c, 1, 46, 78
4, 5325, Note_on_c, 1, 46, 0
4, 5328, Note_on_c, 1, 58, 79
4, 5373, Note_on_c, 1, 58, 0
4, 5376, Note_on_c, 1, 46, 80
4, 5421, Note_on_c, 1, 46, 0
4, 5424, Note_on_c, 1, 58, 80
4, 5469, Note_on_c, 1, 58, 0
4, 5472, Note_on_c, 1, 46, 80
4, 5517, Note_on_c, 1, 46, 0
4, 5520, Note_on_c, 1, 58, 80
4, 5565, Note_on_c, 1, 58, 0
4, 5568, Note_on_c, 1, 46, 80
4, 5613, Note_on_c, 1, 46, 0
4, 5616, Note_on_c, 1, 58, 80
4, 5661, Note_on_c, 1, 58, 0
4, 5664, Note_on_c, 1, 46, 80
4, 5709, Note_on_c, 1, 46, 0
4, 5712, Note_on_c, 1, 58, 80
4, 5757, Note_on_c, 1, 58, 0
4, 5760, Note_on_c, 1, 46, 80
4, 5805, Note_on_c, 1, 46, 0
4, 5808, Note_on_c, 1, 58, 80
4, 5853, Note_on_c, 1, 58, 0
4, 5856, Note_on_c, 1, 46, 80
4, 5901, Note_on_c, 1, 46, 0
4, 5904, Note_on_c, 1, 58, 80
4, 5949, Note_on_c, 1, 58, 0
4, 5952, Note_on_c, 1, 46, 80
4, 5997, Note_on_c, 1, 46, 0
4, 6000, Note_on_c, 1, 58, 80
4, 6045, Note_on_c, 1, 58, 0
4, 6048, Note_on_c, 1, 46, 80
4, 6093, Note_on_c, 1, 46, 0
4, 6096, Note_on_c, 1, 58, 80
4, 6141, Note_on_c, 1, 58, 0
4, 6144, Note_on_c, 1, 46, 80
4, 6189, Note_on_c, 1, 46, 0
4, 6192, Note_on_c, 1, 58, 80
4, 6237, Note_on_c, 1, 58, 0
4, 6240, Note_on_c, 1, 46, 80
4, 6285, Note_on_c, 1, 46, 0
4, 6288, Note_on_c, 1, 58, 80
4, 6333, Note_on_c, 1, 58, 0
4, 6336, Note_on_c, 1, 46, 80
4, 6381, Note_on_c, 1, 46, 0
4, 6384, Note_on_c, 1, 58, 80
4, 6429, Note_on_c, 1, 58, 0
4, 6432, Note_on_c, 1, 46, 80
4, 6477, Note_on_c, 1, 46, 0
4, 6480, Note_on_c, 1, 58, 80
4, 6525, Note_on_c, 1, 58, 0
4, 6528, Note_on_c, 1, 46, 80
4, 6573, Note_on_c, 1, 46, 0
4, 6576, Note_on_c, 1, 58, 80
4, 6621, Note_on_c, 1, 58, 0
4, 6624, Note_on_c, 1, 46, 80
4, 6669, Note_on_c, 1, 46, 0
4, 6672, Note_on_c, 1, 58, 80
4, 6717, Note_on_c, 1, 58, 0
4, 6720, Note_on_c, 1, 46, 80
4, 6809, Note_on_c, 1, 46, 0
4, 7296, Note_on_c, 1, 51, 80
4, 7326, Note_on_c, 1, 51, 0
4, 7328, Note_on_c, 1, 55, 80
4, 7358, Note_on_c, 1, 55, 0
4, 7360, Note_on_c, 1, 53, 80
4, 7390, Note_on_c, 1, 53, 0
4, 7392, Note_on_c, 1, 51, 81
4, 7422, Note_on_c, 1, 51, 0
4, 7424, Note_on_c, 1, 53, 81
4, 7454, Note_on_c, 1, 53, 0
4, 7456, Note_on_c, 1, 55, 82
4, 7486, Note_on_c, 1, 55, 0
4, 7488, Note_on_c, 1, 48, 82
4, 7518, Note_on_c, 1, 48, 0
4, 7520, Note_on_c, 1, 51, 83
4, 7550, Note_on_c, 1, 51, 0
4, 7552, Note_on_c, 1, 50, 83
4, 7582, Note_on_c, 1, 50, 0
4, 7584, Note_on_c, 1, 48, 84
4, 7614, Note_on_c, 1, 48, 0
4, 7616, Note_on_c, 1, 50, 84
4, 7646, Note_on_c, 1, 50, 0
4, 7648, Note_on_c, 1, 51, 85
4, 7678, Note_on_c, 1, 51, 0
4, 7680, Note_on_c, 1, 53, 96
4, 7680, Note_on_c, 1, 41, 96
4, 7719, Note_on_c, 1, 53, 0
4, 7719, Note_on_c, 1, 41, 0
4, 7776, Note_on_c, 1, 65, 96
4, 7776, Note_on_c, 1, 53, 96
4, 7815, Note_on_c, 1, 65, 0
4, 7815, Note_on_c, 1, 53, 0
4, 7872, Note_on_c, 1, 60, 96
4, 7872, Note_on_c, 1, 48, 96
4, 7911, Note_on_c, 1, 60, 0
4, 7911, Note_on_c, 1, 48, 0
4, 7968, Note_on_c, 1, 57, 96
4, 7968, Note_on_c, 1, 45, 96
4, 8007, Note_on_c, 1, 57, 0
4, 8007, Note_on_c, 1, 45, 0
4, 8064, Note_on_c, 1, 53, 96
4, 8064, Note_on_c, 1, 41, 96
4, 8352, Note_on_c, 1, 53, 0
4, 8352, Note_on_c, 1, 41, 0
4, 8448, Note_on_c, 1, 62, 96
4, 8448, Note_on_c, 1, 50, 96
4, 8487, Note_on_c, 1, 62, 0
4, 8487, Note_on_c, 1, 50, 0
4, 8544, Note_on_c, 1, 60, 96
4, 8544, Note_on_c, 1, 48, 96
4, 8583, Note_on_c, 1, 60, 0
4, 8583, Note_on_c, 1, 48, 0
4, 8640, Note_on_c, 1, 57, 96
4, 8640, Note_on_c, 1, 45, 96
4, 8679, Note_on_c, 1, 57, 0
4, 8679, Note_on_c, 1, 45, 0
4, 8736, Note_on_c, 1, 54, 96
4, 8736, Note_on_c, 1, 42, 96
4, 8775, Note_on_c, 1, 54, 0
4, 8775, Note_on_c, 1, 42, 0
4, 8832, Note_on_c, 1, 50, 96
4, 8832, Note_on_c, 1, 38, 96
4, 9120, Note_on_c, 1, 50, 0
4, 9120, Note_on_c, 1, 38, 0
4, 9216, Note_on_c, 1, 58, 96
4, 9216, Note_on_c, 1, 46, 96
4, 9255, Note_on_c, 1, 58, 0
4, 9255, Note_on_c, 1, 46, 0
4, 9312, Note_on_c, 1, 55, 96
4, 9312, Note_on_c, 1, 43, 96
4, 9351, Note_on_c, 1, 55, 0
4, 9351, Note_on_c, 1, 43, 0
4, 9408, Note_on_c, 1, 50, 96
4, 9408, Note_on_c, 1, 38, 96
4, 9447, Note_on_c, 1, 50, 0
4, 9447, Note_on_c, 1, 38, 0
4, 9504, Note_on_c, 1, 55, 96
4, 9504, Note_on_c, 1, 43, 96
4, 9543, Note_on_c, 1, 55, 0
4, 9543, Note_on_c, 1, 43, 0
4, 9600, Note_on_c, 1, 53, 96
4, 9600, Note_on_c, 1, 41, 96
4, 9888, Note_on_c, 1, 53, 0
4, 9888, Note_on_c, 1, 41, 0
4, 9984, Note_on_c, 1, 64, 96
4, 9984, Note_on_c, 1, 52, 96
4, 10023, Note_on_c, 1, 64, 0
4, 10023, Note_on_c, 1, 52, 0
4, 10080, Note_on_c, 1, 60, 96
4, 10080, Note_on_c, 1, 48, 96
4, 10119, Note_on_c, 1, 60, 0
4, 10119, Note_on_c, 1, 48, 0
4, 10176, Note_on_c, 1, 58, 96
4, 10176, Note_on_c, 1, 46, 96
4, 10215, Note_on_c, 1, 58, 0
4, 10215, Note_on_c, 1, 46, 0
4, 10272, Note_on_c, 1, 55, 96
4, 10272, Note_on_c, 1, 43, 96
4, 10311, Note_on_c, 1, 55, 0
4, 10311, Note_on_c, 1, 43, 0
4, 10368, Note_on_c, 1, 52, 80
4, 10368, Note_on_c, 1, 40, 80
4, 10633, Note_on_c, 1, 52, 0
4, 10633, Note_on_c, 1, 40, 0
4, 10752, Note_on_c, 1, 65, 80
4, 10800, Note_on_c, 1, 65, 0
4, 10800, Note_on_c, 1, 72, 64
4, 10845, Note_on_c, 1, 72, 0
4, 10848, Note_on_c, 1, 69, 64
4, 10893, Note_on_c, 1, 69, 0
4, 10896, Note_on_c, 1, 72, 64
4, 10941, Note_on_c, 1, 72, 0
4, 10944, Note_on_c, 1, 65, 64
4, 10989, Note_on_c, 1, 65, 0
4, 10992, Note_on_c, 1, 72, 64
4, 11037, Note_on_c, 1, 72, 0
4, 11040, Note_on_c, 1, 69, 64
4, 11085, Note_on_c, 1, 69, 0
4, 11088, Note_on_c, 1, 72, 64
4, 11133, Note_on_c, 1, 72, 0
4, 11136, Note_on_c, 1, 65, 64
4, 11181, Note_on_c, 1, 65, 0
4, 11184, Note_on_c, 1, 72, 64
4, 11229, Note_on_c, 1, 72, 0
4, 11232, Note_on_c, 1, 69, 64
4, 11277, Note_on_c, 1, 69, 0
4, 11280, Note_on_c, 1, 72, 64
4, 11325, Note_on_c, 1, 72, 0
4, 11328, Note_on_c, 1, 65, 64
4, 11373, Note_on_c, 1, 65, 0
4, 11376, Note_on_c, 1, 72, 64
4, 11421, Note_on_c, 1, 72, 0
4, 11424, Note_on_c, 1, 69, 64
4, 11469, Note_on_c, 1, 69, 0
4, 11472, Note_on_c, 1, 72, 64
4, 11517, Note_on_c, 1, 72, 0
4, 11520, Note_on_c, 1, 67, 64
4, 11565, Note_on_c, 1, 67, 0
4, 11568, Note_on_c, 1, 72, 64
4, 11613, Note_on_c, 1, 72, 0
4, 11616, Note_on_c, 1, 70, 64
4, 11661, Note_on_c, 1, 70, 0
4, 11664, Note_on_c, 1, 72, 64
4, 11709, Note_on_c, 1, 72, 0
4, 11712, Note_on_c, 1, 67, 64
4, 11757, Note_on_c, 1, 67, 0
4, 11760, Note_on_c, 1, 72, 64
4, 11805, Note_on_c, 1, 72, 0
4, 11808, Note_on_c, 1, 70, 64
4, 11853, Note_on_c, 1, 70, 0
4, 11856, Note_on_c, 1, 72, 64
4, 11901, Note_on_c, 1, 72, 0
4, 11904, Note_on_c, 1, 65, 64
4, 11993, Note_on_c, 1, 65, 0
4, 12288, Note_on_c, 1, 65, 64
4, 12333, Note_on_c, 1, 65, 0
4, 12336, Note_on_c, 1, 70, 64
4, 12381, Note_on_c, 1, 70, 0
4, 12384, Note_on_c, 1, 74, 64
4, 12429, Note_on_c, 1, 74, 0
4, 12432, Note_on_c, 1, 70, 64
4, 12477, Note_on_c, 1, 70, 0
4, 12480, Note_on_c, 1, 65, 64
4, 12525, Note_on_c, 1, 65, 0
4, 12528, Note_on_c, 1, 70, 64
4, 12573, Note_on_c, 1, 70, 0
4, 12576, Note_on_c, 1, 74, 64
4, 12621, Note_on_c, 1, 74, 0
4, 12624, Note_on_c, 1, 70, 64
4, 12669, Note_on_c, 1, 70, 0
4, 12672, Note_on_c, 1, 69, 64
4, 12717, Note_on_c, 1, 69, 0
4, 12720, Note_on_c, 1, 72, 64
4, 12765, Note_on_c, 1, 72, 0
4, 12768, Note_on_c, 1, 69, 64
4, 12813, Note_on_c, 1, 69, 0
4, 12816, Note_on_c, 1, 65, 64
4, 12861, Note_on_c, 1, 65, 0
4, 12864, Note_on_c, 1, 60, 64
4, 12909, Note_on_c, 1, 60, 0
4, 12912, Note_on_c, 1, 57, 64
4, 12957, Note_on_c, 1, 57, 0
4, 12960, Note_on_c, 1, 60, 64
4, 13005, Note_on_c, 1, 60, 0
4, 13008, Note_on_c, 1, 70, 64
4, 13008, Note_on_c, 1, 61, 64
4, 13053, Note_on_c, 1, 70, 0
4, 13053, Note_on_c, 1, 61, 0
4, 13056, Note_on_c, 1, 62, 64
4, 13233, Note_on_c, 1, 62, 0
4, 13440, Note_on_c, 1, 60, 64
4, 13440, Note_on_c, 1, 57, 64
4, 13440, Note_on_c, 1, 53, 64
4, 13440, Note_on_c, 1, 48, 64
4, 13534, Note_on_c, 1, 60, 0
4, 13534, Note_on_c, 1, 57, 0
4, 13534, Note_on_c, 1, 53, 0
4, 13534, Note_on_c, 1, 48, 0
4, 13632, Note_on_c, 1, 60, 64
4, 13632, Note_on_c, 1, 58, 64
4, 13632, Note_on_c, 1, 55, 64
4, 13632, Note_on_c, 1, 48, 64
4, 13726, Note_on_c, 1, 60, 0
4, 13726, Note_on_c, 1, 58, 0
4, 13726, Note_on_c, 1, 55, 0
4, 13726, Note_on_c, 1, 48, 0
4, 13824, Note_on_c, 1, 41, 80
4, 13869, Note_on_c, 1, 41, 0
4, 13872, Note_on_c, 1, 53, 80
4, 13917, Note_on_c, 1, 53, 0
4, 13920, Note_on_c, 1, 41, 80
4, 13965, Note_on_c, 1, 41, 0
4, 13968, Note_on_c, 1, 53, 80
4, 14013, Note_on_c, 1, 53, 0
4, 14016, Note_on_c, 1, 41, 80
4, 14061, Note_on_c, 1, 41, 0
4, 14064, Note_on_c, 1, 53, 80
4, 14109, Note_on_c, 1, 53, 0
4, 14112, Note_on_c, 1, 41, 80
4, 14157, Note_on_c, 1, 41, 0
4, 14160, Note_on_c, 1, 53, 80
4, 14205, Note_on_c, 1, 53, 0
4, 14208, Note_on_c, 1, 41, 80
4, 14253, Note_on_c, 1, 41, 0
4, 14256, Note_on_c, 1, 53, 80
4, 14301, Note_on_c, 1, 53, 0
4, 14304, Note_on_c, 1, 41, 80
4, 14349, Note_on_c, 1, 41, 0
4, 14352, Note_on_c, 1, 53, 80
4, 14397, Note_on_c, 1, 53, 0
4, 14400, Note_on_c, 1, 41, 80
4, 14445, Note_on_c, 1, 41, 0
4, 14448, Note_on_c, 1, 53, 80
4, 14493, Note_on_c, 1, 53, 0
4, 14496, Note_on_c, 1, 41, 80
4, 14541, Note_on_c, 1, 41, 0
4, 14544, Note_on_c, 1, 53, 80
4, 14589, Note_on_c, 1, 53, 0
4, 14592, Note_on_c, 1, 41, 80
4, 14637, Note_on_c, 1, 41, 0
4, 14640, Note_on_c, 1, 53, 80
4, 14685, Note_on_c, 1, 53, 0
4, 14688, Note_on_c, 1, 41, 80
4, 14733, Note_on_c, 1, 41, 0
4, 14736, Note_on_c, 1, 53, 80
4, 14781, Note_on_c, 1, 53, 0
4, 14784, Note_on_c, 1, 41, 80
4, 14829, Note_on_c, 1, 41, 0
4, 14832, Note_on_c, 1, 53, 80
4, 14877, Note_on_c, 1, 53, 0
4, 14880, Note_on_c, 1, 41, 80
4, 14925, Note_on_c, 1, 41, 0
4, 14928, Note_on_c, 1, 53, 80
4, 14973, Note_on_c, 1, 53, 0
4, 14976, Note_on_c, 1, 41, 80
4, 15021, Note_on_c, 1, 41, 0
4, 15024, Note_on_c, 1, 53, 80
4, 15069, Note_on_c, 1, 53, 0
4, 15072, Note_on_c, 1, 41, 80
4, 15117, Note_on_c, 1, 41, 0
4, 15120, Note_on_c, 1, 53, 80
4, 15165, Note_on_c, 1, 53, 0
4, 15168, Note_on_c, 1, 41, 80
4, 15213, Note_on_c, 1, 41, 0
4, 15216, Note_on_c, 1, 53, 80
4, 15261, Note_on_c, 1, 53, 0
4, 15264, Note_on_c, 1, 41, 80
4, 15309, Note_on_c, 1, 41, 0
4, 15312, Note_on_c, 1, 53, 80
4, 15357, Note_on_c, 1, 53, 0
4, 15360, Note_on_c, 1, 41, 80
4, 15405, Note_on_c, 1, 41, 0
4, 15408, Note_on_c, 1, 53, 78
4, 15453, Note_on_c, 1, 53, 0
4, 15456, Note_on_c, 1, 41, 77
4, 15501, Note_on_c, 1, 41, 0
4, 15504, Note_on_c, 1, 53, 76
4, 15549, Note_on_c, 1, 53, 0
4, 15552, Note_on_c, 1, 41, 75
4, 15597, Note_on_c, 1, 41, 0
4, 15600, Note_on_c, 1, 53, 74
4, 15645, Note_on_c, 1, 53, 0
4, 15648, Note_on_c, 1, 41, 73
4, 15693, Note_on_c, 1, 41, 0
4, 15696, Note_on_c, 1, 53, 72
4, 15741, Note_on_c, 1, 53, 0
4, 15744, Note_on_c, 1, 41, 70
4, 15789, Note_on_c, 1, 41, 0
4, 15792, Note_on_c, 1, 53, 69
4, 15837, Note_on_c, 1, 53, 0
4, 15840, Note_on_c, 1, 41, 68
4, 15885, Note_on_c, 1, 41, 0
4, 15888, Note_on_c, 1, 53, 67
4, 15933, Note_on_c, 1, 53, 0
4, 15936, Note_on_c, 1, 41, 66
4, 16025, Note_on_c, 1, 41, 0
4, 16128, Note_on_c, 1, 70, 64
4, 16128, Note_on_c, 1, 60, 64
4, 16217, Note_on_c, 1, 70, 0
4, 16217, Note_on_c, 1, 60, 0
4, 16320, Note_on_c, 1, 69, 64
4, 16320, Note_on_c, 1, 65, 64
4, 16409, Note_on_c, 1, 69, 0
4, 16409, Note_on_c, 1, 65, 0
4, 16608, Note_on_c, 1, 46, 75
4, 16697, Note_on_c, 1, 46, 0
4, 16800, Note_on_c, 1, 46, 75
4, 16889, Note_on_c, 1, 46, 0
4, 16944, Note_on_c, 1, 46, 75
4, 16964, Note_on_c, 1, 46, 0
4, 16992, Note_on_c, 1, 50, 75
4, 17012, Note_on_c, 1, 50, 0
4, 17040, Note_on_c, 1, 53, 75
4, 17060, Note_on_c, 1, 53, 0
4, 17088, Note_on_c, 1, 58, 75
4, 17177, Note_on_c, 1, 58, 0
4, 17712, Note_on_c, 1, 41, 75
4, 17732, Note_on_c, 1, 41, 0
4, 17760, Note_on_c, 1, 45, 75
4, 17780, Note_on_c, 1, 45, 0
4, 17808, Note_on_c, 1, 48, 75
4, 17828, Note_on_c, 1, 48, 0
4, 17856, Note_on_c, 1, 53, 75
4, 17945, Note_on_c, 1, 53, 0
4, 18096, Note_on_c, 1, 46, 75
4, 18141, Note_on_c, 1, 46, 0
4, 18144, Note_on_c, 1, 58, 75
4, 18233, Note_on_c, 1, 58, 0
4, 18288, Note_on_c, 1, 46, 75
4, 18333, Note_on_c, 1, 46, 0
4, 18336, Note_on_c, 1, 58, 75
4, 18425, Note_on_c, 1, 58, 0
4, 18480, Note_on_c, 1, 58, 75
4, 18500, Note_on_c, 1, 58, 0
4, 18528, Note_on_c, 1, 62, 75
4, 18548, Note_on_c, 1, 62, 0
4, 18576, Note_on_c, 1, 65, 75
4, 18596, Note_on_c, 1, 65, 0
4, 18624, Note_on_c, 1, 70, 75
4, 18713, Note_on_c, 1, 70, 0
4, 18816, Note_on_c, 1, 51, 75
4, 18816, Note_on_c, 1, 39, 75
4, 18993, Note_on_c, 1, 51, 0
4, 18993, Note_on_c, 1, 39, 0
4, 19008, Note_on_c, 1, 53, 75
4, 19008, Note_on_c, 1, 41, 75
4, 19185, Note_on_c, 1, 53, 0
4, 19185, Note_on_c, 1, 41, 0
4, 19200, Note_on_c, 1, 46, 75
4, 19245, Note_on_c, 1, 46, 0
4, 19248, Note_on_c, 1, 58, 75
4, 19293, Note_on_c, 1, 58, 0
4, 19296, Note_on_c, 1, 46, 75
4, 19341, Note_on_c, 1, 46, 0
4, 19344, Note_on_c, 1, 58, 75
4, 19389, Note_on_c, 1, 58, 0
4, 19392, Note_on_c, 1, 46, 75
4, 19437, Note_on_c, 1, 46, 0
4, 19440, Note_on_c, 1, 58, 75
4, 19485, Note_on_c, 1, 58, 0
4, 19488, Note_on_c, 1, 46, 75
4, 19533, Note_on_c, 1, 46, 0
4, 19536, Note_on_c, 1, 58, 75
4, 19581, Note_on_c, 1, 58, 0
4, 19584, Note_on_c, 1, 46, 75
4, 19629, Note_on_c, 1, 46, 0
4, 19632, Note_on_c, 1, 58, 75
4, 19677, Note_on_c, 1, 58, 0
4, 19680, Note_on_c, 1, 46, 75
4, 19725, Note_on_c, 1, 46, 0
4, 19728, Note_on_c, 1, 58, 75
4, 19773, Note_on_c, 1, 58, 0
4, 19776, Note_on_c, 1, 46, 75
4, 19821, Note_on_c, 1, 46, 0
4, 19824, Note_on_c, 1, 58, 75
4, 19869, Note_on_c, 1, 58, 0
4, 19872, Note_on_c, 1, 46, 75
4, 19917, Note_on_c, 1, 46, 0
4, 19920, Note_on_c, 1, 58, 75
4, 19965, Note_on_c, 1, 58, 0
4, 19968, Note_on_c, 1, 46, 75
4, 20013, Note_on_c, 1, 46, 0
4, 20016, Note_on_c, 1, 58, 75
4, 20061, Note_on_c, 1, 58, 0
4, 20064, Note_on_c, 1, 46, 75
4, 20109, Note_on_c, 1, 46, 0
4, 20112, Note_on_c, 1, 58, 75
4, 20157, Note_on_c, 1, 58, 0
4, 20160, Note_on_c, 1, 46, 75
4, 20205, Note_on_c, 1, 46, 0
4, 20208, Note_on_c, 1, 58, 75
4, 20253, Note_on_c, 1, 58, 0
4, 20256, Note_on_c, 1, 46, 75
4, 20301, Note_on_c, 1, 46, 0
4, 20304, Note_on_c, 1, 58, 75
4, 20349, Note_on_c, 1, 58, 0
4, 20352, Note_on_c, 1, 46, 75
4, 20397, Note_on_c, 1, 46, 0
4, 20400, Note_on_c, 1, 58, 75
4, 20445, Note_on_c, 1, 58, 0
4, 20448, Note_on_c, 1, 46, 75
4, 20493, Note_on_c, 1, 46, 0
4, 20496, Note_on_c, 1, 58, 75
4, 20541, Note_on_c, 1, 58, 0
4, 20544, Note_on_c, 1, 46, 75
4, 20589, Note_on_c, 1, 46, 0
4, 20592, Note_on_c, 1, 58, 75
4, 20637, Note_on_c, 1, 58, 0
4, 20640, Note_on_c, 1, 46, 75
4, 20685, Note_on_c, 1, 46, 0
4, 20688, Note_on_c, 1, 58, 75
4, 20733, Note_on_c, 1, 58, 0
4, 20736, Note_on_c, 1, 46, 75
4, 20781, Note_on_c, 1, 46, 0
4, 20784, Note_on_c, 1, 58, 75
4, 20829, Note_on_c, 1, 58, 0
4, 20832, Note_on_c, 1, 46, 75
4, 20877, Note_on_c, 1, 46, 0
4, 20880, Note_on_c, 1, 58, 75
4, 20925, Note_on_c, 1, 58, 0
4, 20928, Note_on_c, 1, 46, 75
4, 20973, Note_on_c, 1, 46, 0
4, 20976, Note_on_c, 1, 58, 75
4, 21021, Note_on_c, 1, 58, 0
4, 21024, Note_on_c, 1, 46, 75
4, 21069, Note_on_c, 1, 46, 0
4, 21072, Note_on_c, 1, 58, 75
4, 21117, Note_on_c, 1, 58, 0
4, 21120, Note_on_c, 1, 46, 75
4, 21165, Note_on_c, 1, 46, 0
4, 21168, Note_on_c, 1, 58, 75
4, 21213, Note_on_c, 1, 58, 0
4, 21216, Note_on_c, 1, 46, 76
4, 21261, Note_on_c, 1, 46, 0
4, 21264, Note_on_c, 1, 58, 76
4, 21309, Note_on_c, 1, 58, 0
4, 21312, Note_on_c, 1, 46, 77
4, 21357, Note_on_c, 1, 46, 0
4, 21360, Note_on_c, 1, 58, 78
4, 21405, Note_on_c, 1, 58, 0
4, 21408, Note_on_c, 1, 46, 78
4, 21453, Note_on_c, 1, 46, 0
4, 21456, Note_on_c, 1, 58, 79
4, 21501, Note_on_c, 1, 58, 0
4, 21504, Note_on_c, 1, 46, 80
4, 21549, Note_on_c, 1, 46, 0
4, 21552, Note_on_c, 1, 58, 80
4, 21597, Note_on_c, 1, 58, 0
4, 21600, Note_on_c, 1, 46, 80
4, 21645, Note_on_c, 1, 46, 0
4, 21648, Note_on_c, 1, 58, 80
4, 21693, Note_on_c, 1, 58, 0
4, 21696, Note_on_c, 1, 46, 80
4, 21741, Note_on_c, 1, 46, 0
4, 21744, Note_on_c, 1, 58, 80
4, 21789, Note_on_c, 1, 58, 0
4, 21792, Note_on_c, 1, 46, 80
4, 21837, Note_on_c, 1, 46, 0
4, 21840, Note_on_c, 1, 58, 80
4, 21885, Note_on_c, 1, 58, 0
4, 21888, Note_on_c, 1, 46, 80
4, 21933, Note_on_c, 1, 46, 0
4, 21936, Note_on_c, 1, 58, 80
4, 21981, Note_on_c, 1, 58, 0
4, 21984, Note_on_c, 1, 46, 80
4, 22029, Note_on_c, 1, 46, 0
4, 22032, Note_on_c, 1, 58, 80
4, 22077, Note_on_c, 1, 58, 0
4, 22080, Note_on_c, 1, 46, 80
4, 22125, Note_on_c, 1, 46, 0
4, 22128, Note_on_c, 1, 58, 80
4, 22173, Note_on_c, 1, 58, 0
4, 22176, Note_on_c, 1, 46, 80
4, 22221, Note_on_c, 1, 46, 0
4, 22224, Note_on_c, 1, 58, 80
4, 22269, Note_on_c, 1, 58, 0
4, 22272, Note_on_c, 1, 46, 80
4, 22317, Note_on_c, 1, 46, 0
4, 22320, Note_on_c, 1, 58, 80
4, 22365, Note_on_c, 1, 58, 0
4, 22368, Note_on_c, 1, 46, 80
4, 22413, Note_on_c, 1, 46, 0
4, 22416, Note_on_c, 1, 58, 80
4, 22461, Note_on_c, 1, 58, 0
4, 22464, Note_on_c, 1, 46, 80
4, 22509, Note_on_c, 1, 46, 0
4, 22512, Note_on_c, 1, 58, 80
4, 22557, Note_on_c, 1, 58, 0
4, 22560, Note_on_c, 1, 46, 80
4, 22605, Note_on_c, 1, 46, 0
4, 22608, Note_on_c, 1, 58, 80
4, 22653, Note_on_c, 1, 58, 0
4, 22656, Note_on_c, 1, 46, 80
4, 22701, Note_on_c, 1, 46, 0
4, 22704, Note_on_c, 1, 58, 80
4, 22749, Note_on_c, 1, 58, 0
4, 22752, Note_on_c, 1, 46, 80
4, 22797, Note_on_c, 1, 46, 0
4, 22800, Note_on_c, 1, 58, 80
4, 22845, Note_on_c, 1, 58, 0
4, 22848, Note_on_c, 1, 46, 80
4, 22937, Note_on_c, 1, 46, 0
4, 23424, Note_on_c, 1, 51, 80
4, 23454, Note_on_c, 1, 51, 0
4, 23456, Note_on_c, 1, 55, 80
4, 23486, Note_on_c, 1, 55, 0
4, 23488, Note_on_c, 1, 53, 80
4, 23518, Note_on_c, 1, 53, 0
4, 23520, Note_on_c, 1, 51, 81
4, 23550, Note_on_c, 1, 51, 0
4, 23552, Note_on_c, 1, 53, 81
4, 23582, Note_on_c, 1, 53, 0
4, 23584, Note_on_c, 1, 55, 82
4, 23614, Note_on_c, 1, 55, 0
4, 23616, Note_on_c, 1, 48, 82
4, 23646, Note_on_c, 1, 48, 0
4, 23648, Note_on_c, 1, 51, 83
4, 23678, Note_on_c, 1, 51, 0
4, 23680, Note_on_c, 1, 50, 83
4, 23710, Note_on_c, 1, 50, 0
4, 23712, Note_on_c, 1, 48, 84
4, 23742, Note_on_c, 1, 48, 0
4, 23744, Note_on_c, 1, 50, 84
4, 23774, Note_on_c, 1, 50, 0
4, 23776, Note_on_c, 1, 51, 85
4, 23806, Note_on_c, 1, 51, 0
4, 23808, Note_on_c, 1, 53, 96
4, 23808, Note_on_c, 1, 41, 96
4, 23847, Note_on_c, 1, 53, 0
4, 23847, Note_on_c, 1, 41, 0
4, 23904, Note_on_c, 1, 65, 96
4, 23904, Note_on_c, 1, 53, 96
4, 23943, Note_on_c, 1, 65, 0
4, 23943, Note_on_c, 1, 53, 0
4, 24000, Note_on_c, 1, 60, 96
4, 24000, Note_on_c, 1, 48, 96
4, 24039, Note_on_c, 1, 60, 0
4, 24039, Note_on_c, 1, 48, 0
4, 24096, Note_on_c, 1, 57, 96
4, 24096, Note_on_c, 1, 45, 96
4, 24135, Note_on_c, 1, 57, 0
4, 24135, Note_on_c, 1, 45, 0
4, 24192, Note_on_c, 1, 53, 96
4, 24192, Note_on_c, 1, 41, 96
4, 24480, Note_on_c, 1, 53, 0
4, 24480, Note_on_c, 1, 41, 0
4, 24576, Note_on_c, 1, 62, 96
4, 24576, Note_on_c, 1, 50, 96
4, 24615, Note_on_c, 1, 62, 0
4, 24615, Note_on_c, 1, 50, 0
4, 24672, Note_on_c, 1, 60, 96
4, 24672, Note_on_c, 1, 48, 96
4, 24711, Note_on_c, 1, 60, 0
4, 24711, Note_on_c, 1, 48, 0
4, 24768, Note_on_c, 1, 57, 96
4, 24768, Note_on_c, 1, 45, 96
4, 24807, Note_on_c, 1, 57, 0
4, 24807, Note_on_c, 1, 45, 0
4, 24864, Note_on_c, 1, 54, 96
4, 24864, Note_on_c, 1, 42, 96
4, 24903, Note_on_c, 1, 54, 0
4, 24903, Note_on_c, 1, 42, 0
4, 24960, Note_on_c, 1, 50, 96
4, 24960, Note_on_c, 1, 38, 96
4, 25248, Note_on_c, 1, 50, 0
4, 25248, Note_on_c, 1, 38, 0
4, 25344, Note_on_c, 1, 58, 96
4, 25344, Note_on_c, 1, 46, 96
4, 25383, Note_on_c, 1, 58, 0
4, 25383, Note_on_c, 1, 46, 0
4, 25440, Note_on_c, 1, 55, 96
4, 25440, Note_on_c, 1, 43, 96
4, 25479, Note_on_c, 1, 55, 0
4, 25479, Note_on_c, 1, 43, 0
4, 25536, Note_on_c, 1, 50, 96
4, 25536, Note_on_c, 1, 38, 96
4, 25575, Note_on_c, 1, 50, 0
4, 25575, Note_on_c, 1, 38, 0
4, 25632, Note_on_c, 1, 55, 96
4, 25632, Note_on_c, 1, 43, 96
4, 25671, Note_on_c, 1, 55, 0
4, 25671, Note_on_c, 1, 43, 0
4, 25728, Note_on_c, 1, 53, 96
4, 25728, Note_on_c, 1, 41, 96
4, 26016, Note_on_c, 1, 53, 0
4, 26016, Note_on_c, 1, 41, 0
4, 26112, Note_on_c, 1, 64, 96
4, 26112, Note_on_c, 1, 52, 96
4, 26151, Note_on_c, 1, 64, 0
4, 26151, Note_on_c, 1, 52, 0
4, 26208, Note_on_c, 1, 60, 96
4, 26208, Note_on_c, 1, 48, 96
4, 26247, Note_on_c, 1, 60, 0
4, 26247, Note_on_c, 1, 48, 0
4, 26304, Note_on_c, 1, 58, 96
4, 26304, Note_on_c, 1, 46, 96
4, 26343, Note_on_c, 1, 58, 0
4, 26343, Note_on_c, 1, 46, 0
4, 26400, Note_on_c, 1, 55, 96
4, 26400, Note_on_c, 1, 43, 96
4, 26439, Note_on_c, 1, 55, 0
4, 26439, Note_on_c, 1, 43, 0
4, 26496, Note_on_c, 1, 52, 80
4, 26496, Note_on_c, 1, 40, 80
4, 26761, Note_on_c, 1, 52, 0
4, 26761, Note_on_c, 1, 40, 0
4, 26880, Note_on_c, 1, 65, 80
4, 26928, Note_on_c, 1, 65, 0
4, 26928, Note_on_c, 1, 72, 64
4, 26973, Note_on_c, 1, 72, 0
4, 26976, Note_on_c, 1, 69, 64
4, 27021, Note_on_c, 1, 69, 0
4, 27024, Note_on_c, 1, 72, 64
4, 27069, Note_on_c, 1, 72, 0
4, 27072, Note_on_c, 1, 65, 64
4, 27117, Note_on_c, 1, 65, 0
4, 27120, Note_on_c, 1, 72, 64
4, 27165, Note_on_c, 1, 72, 0
4, 27168, Note_on_c, 1, 69, 64
4, 27213, Note_on_c, 1, 69, 0
4, 27216, Note_on_c, 1, 72, 64
4, 27261, Note_on_c, 1, 72, 0
4, 27264, Note_on_c, 1, 65, 64
4, 27309, Note_on_c, 1, 65, 0
4, 27312, Note_on_c, 1, 72, 64
4, 27357, Note_on_c, 1, 72, 0
4, 27360, Note_on_c, 1, 69, 64
4, 27405, Note_on_c, 1, 69, 0
4, 27408, Note_on_c, 1, 72, 64
4, 27453, Note_on_c, 1, 72, 0
4, 27456, Note_on_c, 1, 65, 64
4, 27501, Note_on_c, 1, 65, 0
4, 27504, Note_on_c, 1, 72, 64
4, 27549, Note_on_c, 1, 72, 0
4, 27552, Note_on_c, 1, 69, 64
4, 27597, Note_on_c, 1, 69, 0
4, 27600, Note_on_c, 1, 72, 64
4, 27645, Note_on_c, 1, 72, 0
4, 27648, Note_on_c, 1, 67, 64
4, 27693, Note_on_c, 1, 67, 0
4, 27696, Note_on_c, 1, 72, 64
4, 27741, Note_on_c, 1, 72, 0
4, 27744, Note_on_c, 1, 70, 64
4, 27789, Note_on_c, 1, 70, 0
4, 27792, Note_on_c, 1, 72, 64
4, 27837, Note_on_c, 1, 72, 0
4, 27840, Note_on_c, 1, 67, 64
4, 27885, Note_on_c, 1, 67, 0
4, 27888, Note_on_c, 1, 72, 64
4, 27933, Note_on_c, 1, 72, 0
4, 27936, Note_on_c, 1, 70, 64
4, 27981, Note_on_c, 1, 70, 0
4, 27984, Note_on_c, 1, 72, 64
4, 28029, Note_on_c, 1, 72, 0
4, 28032, Note_on_c, 1, 65, 64
4, 28121, Note_on_c, 1, 65, 0
4, 28416, Note_on_c, 1, 65, 64
4, 28461, Note_on_c, 1, 65, 0
4, 28464, Note_on_c, 1, 70, 64
4, 28509, Note_on_c, 1, 70, 0
4, 28512, Note_on_c, 1, 74, 64
4, 28557, Note_on_c, 1, 74, 0
4, 28560, Note_on_c, 1, 70, 64
4, 28605, Note_on_c, 1, 70, 0
4, 28608, Note_on_c, 1, 65, 64
4, 28653, Note_on_c, 1, 65, 0
4, 28656, Note_on_c, 1, 70, 64
4, 28701, Note_on_c, 1, 70, 0
4, 28704, Note_on_c, 1, 74, 64
4, 28749, Note_on_c, 1, 74, 0
4, 28752, Note_on_c, 1, 70, 64
4, 28797, Note_on_c, 1, 70, 0
4, 28800, Note_on_c, 1, 69, 64
4, 28845, Note_on_c, 1, 69, 0
4, 28848, Note_on_c, 1, 72, 64
4, 28893, Note_on_c, 1, 72, 0
4, 28896, Note_on_c, 1, 69, 64
4, 28941, Note_on_c, 1, 69, 0
4, 28944, Note_on_c, 1, 65, 64
4, 28989, Note_on_c, 1, 65, 0
4, 28992, Note_on_c, 1, 60, 64
4, 29037, Note_on_c, 1, 60, 0
4, 29040, Note_on_c, 1, 57, 64
4, 29085, Note_on_c, 1, 57, 0
4, 29088, Note_on_c, 1, 60, 64
4, 29133, Note_on_c, 1, 60, 0
4, 29136, Note_on_c, 1, 70, 64
4, 29136, Note_on_c, 1, 61, 64
4, 29181, Note_on_c, 1, 70, 0
4, 29181, Note_on_c, 1, 61, 0
4, 29184, Note_on_c, 1, 62, 64
4, 29361, Note_on_c, 1, 62, 0
4, 29568, Note_on_c, 1, 60, 64
4, 29568, Note_on_c, 1, 57, 64
4, 29568, Note_on_c, 1, 53, 64
4, 29568, Note_on_c, 1, 48, 64
4, 29662, Note_on_c, 1, 60, 0
4, 29662, Note_on_c, 1, 57, 0
4, 29662, Note_on_c, 1, 53, 0
4, 29662, Note_on_c, 1, 48, 0
4, 29760, Note_on_c, 1, 60, 64
4, 29760, Note_on_c, 1, 58, 64
4, 29760, Note_on_c, 1, 55, 64
4, 29760, Note_on_c, 1, 48, 64
4, 29854, Note_on_c, 1, 60, 0
4, 29854, Note_on_c, 1, 58, 0
4, 29854, Note_on_c, 1, 55, 0
4, 29854, Note_on_c, 1, 48, 0
4, 29952, Note_on_c, 1, 41, 80
4, 29997, Note_on_c, 1, 41, 0
4, 30000, Note_on_c, 1, 53, 80
4, 30045, Note_on_c, 1, 53, 0
4, 30048, Note_on_c, 1, 41, 80
4, 30093, Note_on_c, 1, 41, 0
4, 30096, Note_on_c, 1, 53, 80
4, 30141, Note_on_c, 1, 53, 0
4, 30144, Note_on_c, 1, 41, 80
4, 30189, Note_on_c, 1, 41, 0
4, 30192, Note_on_c, 1, 53, 80
4, 30237, Note_on_c, 1, 53, 0
4, 30240, Note_on_c, 1, 41, 80
4, 30285, Note_on_c, 1, 41, 0
4, 30288, Note_on_c, 1, 53, 80
4, 30333, Note_on_c, 1, 53, 0
4, 30336, Note_on_c, 1, 41, 80
4, 30381, Note_on_c, 1, 41, 0
4, 30384, Note_on_c, 1, 53, 80
4, 30429, Note_on_c, 1, 53, 0
4, 30432, Note_on_c, 1, 41, 80
4, 30477, Note_on_c, 1, 41, 0
4, 30480, Note_on_c, 1, 53, 80
4, 30525, Note_on_c, 1, 53, 0
4, 30528, Note_on_c, 1, 41, 80
4, 30573, Note_on_c, 1, 41, 0
4, 30576, Note_on_c, 1, 53, 80
4, 30621, Note_on_c, 1, 53, 0
4, 30624, Note_on_c, 1, 41, 80
4, 30669, Note_on_c, 1, 41, 0
4, 30672, Note_on_c, 1, 53, 80
4, 30717, Note_on_c, 1, 53, 0
4, 30720, Note_on_c, 1, 41, 80
4, 30765, Note_on_c, 1, 41, 0
4, 30768, Note_on_c, 1, 53, 80
4, 30813, Note_on_c, 1, 53, 0
4, 30816, Note_on_c, 1, 41, 80
4, 30861, Note_on_c, 1, 41, 0
4, 30864, Note_on_c, 1, 53, 80
4, 30909, Note_on_c, 1, 53, 0
4, 30912, Note_on_c, 1, 41, 80
4, 30957, Note_on_c, 1, 41, 0
4, 30960, Note_on_c, 1, 53, 80
4, 31005, Note_on_c, 1, 53, 0
4, 31008, Note_on_c, 1, 41, 80
4, 31053, Note_on_c, 1, 41, 0
4, 31056, Note_on_c, 1, 53, 80
4, 31101, Note_on_c, 1, 53, 0
4, 31104, Note_on_c, 1, 41, 80
4, 31149, Note_on_c, 1, 41, 0
4, 31152, Note_on_c, 1, 53, 80
4, 31197, Note_on_c, 1, 53, 0
4, 31200, Note_on_c, 1, 41, 80
4, 31245, Note_on_c, 1, 41, 0
4, 31248, Note_on_c, 1, 53, 80
4, 31293, Note_on_c, 1, 53, 0
4, 31296, Note_on_c, 1, 41, 80
4, 31341, Note_on_c, 1, 41, 0
4, 31344, Note_on_c, 1, 53, 80
4, 31389, Note_on_c, 1, 53, 0
4, 31392, Note_on_c, 1, 41, 80
4, 31437, Note_on_c, 1, 41, 0
4, 31440, Note_on_c, 1, 53, 80
4, 31485, Note_on_c, 1, 53, 0
4, 31488, Note_on_c, 1, 41, 80
4, 31533, Note_on_c, 1, 41, 0
4, 31536, Note_on_c, 1, 53, 78
4, 31581, Note_on_c, 1, 53, 0
4, 31584, Note_on_c, 1, 41, 77
4, 31629, Note_on_c, 1, 41, 0
4, 31632, Note_on_c, 1, 53, 76
4, 31677, Note_on_c, 1, 53, 0
4, 31680, Note_on_c, 1, 41, 75
4, 31725, Note_on_c, 1, 41, 0
4, 31728, Note_on_c, 1, 53, 74
4, 31773, Note_on_c, 1, 53, 0
4, 31776, Note_on_c, 1, 41, 73
4, 31821, Note_on_c, 1, 41, 0
4, 31824, Note_on_c, 1, 53, 72
4, 31869, Note_on_c, 1, 53, 0
4, 31872, Note_on_c, 1, 41, 70
4, 31917, Note_on_c, 1, 41, 0
4, 31920, Note_on_c, 1, 53, 69
4, 31965, Note_on_c, 1, 53, 0
4, 31968, Note_on_c, 1, 41, 68
4, 32013, Note_on_c, 1, 41, 0
4, 32016, Note_on_c, 1, 53, 67
4, 32061, Note_on_c, 1, 53, 0
4, 32064, Note_on_c, 1, 41, 66
4, 32153, Note_on_c, 1, 41, 0
4, 32256, Note_on_c, 1, 70, 64
4, 32256, Note_on_c, 1, 60, 64
4, 32345, Note_on_c, 1, 70, 0
4, 32345, Note_on_c, 1, 60, 0
4, 32448, Note_on_c, 1, 69, 64
4, 32448, Note_on_c, 1, 65, 64
4, 32537, Note_on_c, 1, 69, 0
4, 32537, Note_on_c, 1, 65, 0
4, 32640, Note_on_c, 1, 41, 75
4, 32729, Note_on_c, 1, 41, 0
4, 32736, Note_on_c, 1, 53, 75
4, 32825, Note_on_c, 1, 53, 0
4, 32832, Note_on_c, 1, 41, 75
4, 32921, Note_on_c, 1, 41, 0
4, 32928, Note_on_c, 1, 53, 75
4, 33017, Note_on_c, 1, 53, 0
4, 33072, Note_on_c, 1, 41, 75
4, 33092, Note_on_c, 1, 41, 0
4, 33120, Note_on_c, 1, 45, 75
4, 33140, Note_on_c, 1, 45, 0
4, 33168, Note_on_c, 1, 48, 75
4, 33188, Note_on_c, 1, 48, 0
4, 33216, Note_on_c, 1, 53, 75
4, 33305, Note_on_c, 1, 53, 0
4, 33840, Note_on_c, 1, 47, 75
4, 33885, Note_on_c, 1, 47, 0
4, 33888, Note_on_c, 1, 48, 75
4, 33933, Note_on_c, 1, 48, 0
4, 33936, Note_on_c, 1, 47, 75
4, 33981, Note_on_c, 1, 47, 0
4, 33984, Note_on_c, 1, 48, 75
4, 34029, Note_on_c, 1, 48, 0
4, 34032, Note_on_c, 1, 65, 80
4, 34077, Note_on_c, 1, 65, 0
4, 34080, Note_on_c, 1, 64, 80
4, 34125, Note_on_c, 1, 64, 0
4, 34128, Note_on_c, 1, 65, 80
4, 34173, Note_on_c, 1, 65, 0
4, 34224, Note_on_c, 1, 53, 80
4, 34244, Note_on_c, 1, 53, 0
4, 34272, Note_on_c, 1, 65, 80
4, 34361, Note_on_c, 1, 65, 0
4, 34416, Note_on_c, 1, 53, 80
4, 34436, Note_on_c, 1, 53, 0
4, 34464, Note_on_c, 1, 65, 80
4, 34553, Note_on_c, 1, 65, 0
4, 34608, Note_on_c, 1, 53, 80
4, 34628, Note_on_c, 1, 53, 0
4, 34656, Note_on_c, 1, 56, 80
4, 34676, Note_on_c, 1, 56, 0
4, 34704, Note_on_c, 1, 60, 80
4, 34724, Note_on_c, 1, 60, 0
4, 34752, Note_on_c, 1, 65, 80
4, 34841, Note_on_c, 1, 65, 0
4, 34944, Note_on_c, 1, 49, 80
4, 35121, Note_on_c, 1, 49, 0
4, 35136, Note_on_c, 1, 51, 80
4, 35313, Note_on_c, 1, 51, 0
4, 35328, Note_on_c, 1, 44, 80
4, 35373, Note_on_c, 1, 44, 0
4, 35376, Note_on_c, 1, 56, 80
4, 35421, Note_on_c, 1, 56, 0
4, 35424, Note_on_c, 1, 42, 80
4, 35469, Note_on_c, 1, 42, 0
4, 35472, Note_on_c, 1, 54, 80
4, 35517, Note_on_c, 1, 54, 0
4, 35520, Note_on_c, 1, 41, 80
4, 35565, Note_on_c, 1, 41, 0
4, 35568, Note_on_c, 1, 53, 80
4, 35613, Note_on_c, 1, 53, 0
4, 35616, Note_on_c, 1, 39, 80
4, 35661, Note_on_c, 1, 39, 0
4, 35664, Note_on_c, 1, 51, 80
4, 35709, Note_on_c, 1, 51, 0
4, 35712, Note_on_c, 1, 37, 80
4, 35801, Note_on_c, 1, 37, 0
4, 35904, Note_on_c, 1, 62, 80
4, 35904, Note_on_c, 1, 59, 80
4, 35904, Note_on_c, 1, 53, 80
4, 36081, Note_on_c, 1, 62, 0
4, 36081, Note_on_c, 1, 59, 0
4, 36081, Note_on_c, 1, 53, 0
4, 36096, Note_on_c, 1, 48, 80
4, 36141, Note_on_c, 1, 48, 0
4, 36144, Note_on_c, 1, 60, 80
4, 36189, Note_on_c, 1, 60, 0
4, 36192, Note_on_c, 1, 46, 80
4, 36237, Note_on_c, 1, 46, 0
4, 36240, Note_on_c, 1, 58, 80
4, 36285, Note_on_c, 1, 58, 0
4, 36288, Note_on_c, 1, 45, 80
4, 36333, Note_on_c, 1, 45, 0
4, 36336, Note_on_c, 1, 57, 80
4, 36381, Note_on_c, 1, 57, 0
4, 36384, Note_on_c, 1, 43, 80
4, 36429, Note_on_c, 1, 43, 0
4, 36432, Note_on_c, 1, 55, 80
4, 36477, Note_on_c, 1, 55, 0
4, 36480, Note_on_c, 1, 41, 80
4, 36525, Note_on_c, 1, 41, 0
4, 36528, Note_on_c, 1, 53, 80
4, 36573, Note_on_c, 1, 53, 0
4, 36576, Note_on_c, 1, 41, 80
4, 36621, Note_on_c, 1, 41, 0
4, 36624, Note_on_c, 1, 53, 80
4, 36669, Note_on_c, 1, 53, 0
4, 36672, Note_on_c, 1, 42, 81
4, 36717, Note_on_c, 1, 42, 0
4, 36720, Note_on_c, 1, 54, 81
4, 36765, Note_on_c, 1, 54, 0
4, 36768, Note_on_c, 1, 42, 81
4, 36813, Note_on_c, 1, 42, 0
4, 36816, Note_on_c, 1, 54, 81
4, 36861, Note_on_c, 1, 54, 0
4, 36864, Note_on_c, 1, 43, 82
4, 36909, Note_on_c, 1, 43, 0
4, 36912, Note_on_c, 1, 55, 82
4, 36957, Note_on_c, 1, 55, 0
4, 36960, Note_on_c, 1, 43, 82
4, 37005, Note_on_c, 1, 43, 0
4, 37008, Note_on_c, 1, 55, 82
4, 37053, Note_on_c, 1, 55, 0
4, 37056, Note_on_c, 1, 43, 83
4, 37101, Note_on_c, 1, 43, 0
4, 37104, Note_on_c, 1, 55, 83
4, 37149, Note_on_c, 1, 55, 0
4, 37152, Note_on_c, 1, 46, 83
4, 37197, Note_on_c, 1, 46, 0
4, 37200, Note_on_c, 1, 58, 83
4, 37245, Note_on_c, 1, 58, 0
4, 37248, Note_on_c, 1, 44, 84
4, 37293, Note_on_c, 1, 44, 0
4, 37296, Note_on_c, 1, 56, 84
4, 37341, Note_on_c, 1, 56, 0
4, 37344, Note_on_c, 1, 44, 84
4, 37389, Note_on_c, 1, 44, 0
4, 37392, Note_on_c, 1, 56, 84
4, 37437, Note_on_c, 1, 56, 0
4, 37440, Note_on_c, 1, 44, 85
4, 37485, Note_on_c, 1, 44, 0
4, 37488, Note_on_c, 1, 56, 85
4, 37533, Note_on_c, 1, 56, 0
4, 37536, Note_on_c, 1, 44, 85
4, 37581, Note_on_c, 1, 44, 0
4, 37584, Note_on_c, 1, 56, 85
4, 37629, Note_on_c, 1, 56, 0
4, 37632, Note_on_c, 1, 55, 80
4, 37632, Note_on_c, 1, 50, 80
4, 37632, Note_on_c, 1, 47, 80
4, 37632, Note_on_c, 1, 43, 80
4, 37809, Note_on_c, 1, 55, 0
4, 37809, Note_on_c, 1, 50, 0
4, 37809, Note_on_c, 1, 47, 0
4, 37809, Note_on_c, 1, 43, 0
4, 37920, Note_on_c, 1, 50, 80
4, 37920, Note_on_c, 1, 47, 80
4, 37959, Note_on_c, 1, 50, 0
4, 37959, Note_on_c, 1, 47, 0
4, 38016, Note_on_c, 1, 51, 80
4, 38016, Note_on_c, 1, 48, 80
4, 38112, Note_on_c, 1, 51, 0
4, 38112, Note_on_c, 1, 48, 0
4, 38112, Note_on_c, 1, 50, 81
4, 38112, Note_on_c, 1, 47, 81
4, 38151, Note_on_c, 1, 50, 0
4, 38151, Note_on_c, 1, 47, 0
4, 38208, Note_on_c, 1, 53, 83
4, 38208, Note_on_c, 1, 50, 83
4, 38304, Note_on_c, 1, 53, 0
4, 38304, Note_on_c, 1, 50, 0
4, 38304, Note_on_c, 1, 51, 84
4, 38304, Note_on_c, 1, 48, 84
4, 38343, Note_on_c, 1, 51, 0
4, 38343, Note_on_c, 1, 48, 0
4, 38400, Note_on_c, 1, 55, 102
4, 38400, Note_on_c, 1, 51, 102
4, 38544, Note_on_c, 1, 55, 0
4, 38544, Note_on_c, 1, 51, 0
4, 38544, Note_on_c, 1, 53, 83
4, 38544, Note_on_c, 1, 50, 83
4, 38589, Note_on_c, 1, 53, 0
4, 38589, Note_on_c, 1, 50, 0
4, 38592, Note_on_c, 1, 51, 83
4, 38592, Note_on_c, 1, 48, 83
4, 38631, Note_on_c, 1, 51, 0
4, 38631, Note_on_c, 1, 48, 0
4, 38688, Note_on_c, 1, 51, 81
4, 38688, Note_on_c, 1, 48, 81
4, 38727, Note_on_c, 1, 51, 0
4, 38727, Note_on_c, 1, 48, 0
4, 38784, Note_on_c, 1, 54, 96
4, 38784, Note_on_c, 1, 51, 96
4, 38928, Note_on_c, 1, 54, 0
4, 38928, Note_on_c, 1, 51, 0
4, 38928, Note_on_c, 1, 53, 81
4, 38928, Note_on_c, 1, 50, 81
4, 38973, Note_on_c, 1, 53, 0
4, 38973, Note_on_c, 1, 50, 0
4, 38976, Note_on_c, 1, 53, 81
4, 38976, Note_on_c, 1, 50, 81
4, 39015, Note_on_c, 1, 53, 0
4, 39015, Note_on_c, 1, 50, 0
4, 39072, Note_on_c, 1, 53, 82
4, 39072, Note_on_c, 1, 50, 82
4, 39111, Note_on_c, 1, 53, 0
4, 39111, Note_on_c, 1, 50, 0
4, 39168, Note_on_c, 1, 56, 99
4, 39168, Note_on_c, 1, 53, 99
4, 39312, Note_on_c, 1, 56, 0
4, 39312, Note_on_c, 1, 53, 0
4, 39312, Note_on_c, 1, 55, 84
4, 39312, Note_on_c, 1, 52, 84
4, 39357, Note_on_c, 1, 55, 0
4, 39357, Note_on_c, 1, 52, 0
4, 39360, Note_on_c, 1, 55, 85
4, 39360, Note_on_c, 1, 52, 85
4, 39399, Note_on_c, 1, 55, 0
4, 39399, Note_on_c, 1, 52, 0
4, 39456, Note_on_c, 1, 60, 86
4, 39479, Note_on_c, 1, 60, 0
4, 39480, Note_on_c, 1, 58, 86
4, 39503, Note_on_c, 1, 58, 0
4, 39504, Note_on_c, 1, 56, 86
4, 39527, Note_on_c, 1, 56, 0
4, 39528, Note_on_c, 1, 55, 86
4, 39551, Note_on_c, 1, 55, 0
4, 39552, Note_on_c, 1, 53, 86
4, 39591, Note_on_c, 1, 53, 0
4, 39648, Note_on_c, 1, 56, 86
4, 39671, Note_on_c, 1, 56, 0
4, 39672, Note_on_c, 1, 55, 86
4, 39695, Note_on_c, 1, 55, 0
4, 39696, Note_on_c, 1, 53, 86
4, 39719, Note_on_c, 1, 53, 0
4, 39720, Note_on_c, 1, 51, 86
4, 39743, Note_on_c, 1, 51, 0
4, 39744, Note_on_c, 1, 50, 86
4, 39783, Note_on_c, 1, 50, 0
4, 39840, Note_on_c, 1, 53, 86
4, 39863, Note_on_c, 1, 53, 0
4, 39864, Note_on_c, 1, 51, 86
4, 39887, Note_on_c, 1, 51, 0
4, 39888, Note_on_c, 1, 50, 86
4, 39911, Note_on_c, 1, 50, 0
4, 39912, Note_on_c, 1, 48, 86
4, 39935, Note_on_c, 1, 48, 0
4, 39936, Note_on_c, 1, 47, 86
4, 39975, Note_on_c, 1, 47, 0
4, 40032, Note_on_c, 1, 55, 86
4, 40055, Note_on_c, 1, 55, 0
4, 40056, Note_on_c, 1, 53, 86
4, 40079, Note_on_c, 1, 53, 0
4, 40080, Note_on_c, 1, 51, 86
4, 40103, Note_on_c, 1, 51, 0
4, 40104, Note_on_c, 1, 50, 86
4, 40127, Note_on_c, 1, 50, 0
4, 40128, Note_on_c, 1, 51, 86
4, 40167, Note_on_c, 1, 51, 0
4, 40224, Note_on_c, 1, 57, 86
4, 40247, Note_on_c, 1, 57, 0
4, 40248, Note_on_c, 1, 55, 86
4, 40271, Note_on_c, 1, 55, 0
4, 40272, Note_on_c, 1, 53, 86
4, 40295, Note_on_c, 1, 53, 0
4, 40296, Note_on_c, 1, 52, 86
4, 40319, Note_on_c, 1, 52, 0
4, 40320, Note_on_c, 1, 53, 86
4, 40359, Note_on_c, 1, 53, 0
4, 40416, Note_on_c, 1, 53, 86
4, 40439, Note_on_c, 1, 53, 0
4, 40440, Note_on_c, 1, 51, 86
4, 40463, Note_on_c, 1, 51, 0
4, 40464, Note_on_c, 1, 50, 86
4, 40487, Note_on_c, 1, 50, 0
4, 40488, Note_on_c, 1, 48, 86
4, 40511, Note_on_c, 1, 48, 0
4, 40512, Note_on_c, 1, 46, 86
4, 40551, Note_on_c, 1, 46, 0
4, 40608, Note_on_c, 1, 46, 86
4, 40631, Note_on_c, 1, 46, 0
4, 40632, Note_on_c, 1, 44, 86
4, 40655, Note_on_c, 1, 44, 0
4, 40656, Note_on_c, 1, 43, 86
4, 40679, Note_on_c, 1, 43, 0
4, 40680, Note_on_c, 1, 41, 86
4, 40703, Note_on_c, 1, 41, 0
4, 40704, Note_on_c, 1, 39, 86
4, 40743, Note_on_c, 1, 39, 0
4, 40992, Note_on_c, 1, 55, 75
4, 40992, Note_on_c, 1, 51, 75
4, 41031, Note_on_c, 1, 55, 0
4, 41031, Note_on_c, 1, 51, 0
4, 41088, Note_on_c, 1, 56, 91
4, 41088, Note_on_c, 1, 53, 91
4, 41184, Note_on_c, 1, 56, 0
4, 41184, Note_on_c, 1, 53, 0
4, 41184, Note_on_c, 1, 55, 76
4, 41184, Note_on_c, 1, 51, 76
4, 41273, Note_on_c, 1, 55, 0
4, 41273, Note_on_c, 1, 51, 0
4, 41280, Note_on_c, 1, 58, 77
4, 41280, Note_on_c, 1, 55, 77
4, 41376, Note_on_c, 1, 58, 0
4, 41376, Note_on_c, 1, 55, 0
4, 41376, Note_on_c, 1, 56, 78
4, 41376, Note_on_c, 1, 53, 78
4, 41465, Note_on_c, 1, 56, 0
4, 41465, Note_on_c, 1, 53, 0
4, 41472, Note_on_c, 1, 60, 96
4, 41472, Note_on_c, 1, 56, 96
4, 41616, Note_on_c, 1, 60, 0
4, 41616, Note_on_c, 1, 56, 0
4, 41616, Note_on_c, 1, 58, 78
4, 41616, Note_on_c, 1, 55, 78
4, 41661, Note_on_c, 1, 58, 0
4, 41661, Note_on_c, 1, 55, 0
4, 41664, Note_on_c, 1, 58, 77
4, 41664, Note_on_c, 1, 55, 77
4, 41703, Note_on_c, 1, 58, 0
4, 41703, Note_on_c, 1, 55, 0
4, 41760, Note_on_c, 1, 58, 76
4, 41760, Note_on_c, 1, 55, 76
4, 41799, Note_on_c, 1, 58, 0
4, 41799, Note_on_c, 1, 55, 0
4, 41856, Note_on_c, 1, 61, 91
4, 41856, Note_on_c, 1, 58, 91
4, 42000, Note_on_c, 1, 61, 0
4, 42000, Note_on_c, 1, 58, 0
4, 42000, Note_on_c, 1, 60, 76
4, 42000, Note_on_c, 1, 56, 76
4, 42045, Note_on_c, 1, 60, 0
4, 42045, Note_on_c, 1, 56, 0
4, 42048, Note_on_c, 1, 60, 76
4, 42048, Note_on_c, 1, 56, 76
4, 42087, Note_on_c, 1, 60, 0
4, 42087, Note_on_c, 1, 56, 0
4, 42144, Note_on_c, 1, 60, 77
4, 42144, Note_on_c, 1, 56, 77
4, 42183, Note_on_c, 1, 60, 0
4, 42183, Note_on_c, 1, 56, 0
4, 42240, Note_on_c, 1, 63, 93
4, 42240, Note_on_c, 1, 60, 93
4, 42384, Note_on_c, 1, 63, 0
4, 42384, Note_on_c, 1, 60, 0
4, 42384, Note_on_c, 1, 62, 78
4, 42384, Note_on_c, 1, 59, 78
4, 42429, Note_on_c, 1, 62, 0
4, 42429, Note_on_c, 1, 59, 0
4, 42432, Note_on_c, 1, 62, 79
4, 42432, Note_on_c, 1, 59, 79
4, 42471, Note_on_c, 1, 62, 0
4, 42471, Note_on_c, 1, 59, 0
4, 42528, Note_on_c, 1, 55, 80
4, 42551, Note_on_c, 1, 55, 0
4, 42552, Note_on_c, 1, 53, 80
4, 42575, Note_on_c, 1, 53, 0
4, 42576, Note_on_c, 1, 51, 80
4, 42599, Note_on_c, 1, 51, 0
4, 42600, Note_on_c, 1, 50, 80
4, 42623, Note_on_c, 1, 50, 0
4, 42624, Note_on_c, 1, 48, 80
4, 42663, Note_on_c, 1, 48, 0
4, 42720, Note_on_c, 1, 51, 80
4, 42743, Note_on_c, 1, 51, 0
4, 42744, Note_on_c, 1, 50, 80
4, 42767, Note_on_c, 1, 50, 0
4, 42768, Note_on_c, 1, 48, 80
4, 42791, Note_on_c, 1, 48, 0
4, 42792, Note_on_c, 1, 46, 80
4, 42815, Note_on_c, 1, 46, 0
4, 42816, Note_on_c, 1, 44, 80
4, 42855, Note_on_c, 1, 44, 0
4, 42912, Note_on_c, 1, 48, 80
4, 42935, Note_on_c, 1, 48, 0
4, 42936, Note_on_c, 1, 46, 80
4, 42959, Note_on_c, 1, 46, 0
4, 42960, Note_on_c, 1, 44, 80
4, 42983, Note_on_c, 1, 44, 0
4, 42984, Note_on_c, 1, 43, 80
4, 43007, Note_on_c, 1, 43, 0
4, 43008, Note_on_c, 1, 42, 80
4, 43047, Note_on_c, 1, 42, 0
4, 43104, Note_on_c, 1, 50, 80
4, 43127, Note_on_c, 1, 50, 0
4, 43128, Note_on_c, 1, 48, 80
4, 43151, Note_on_c, 1, 48, 0
4, 43152, Note_on_c, 1, 46, 80
4, 43175, Note_on_c, 1, 46, 0
4, 43176, Note_on_c, 1, 45, 80
4, 43199, Note_on_c, 1, 45, 0
4, 43200, Note_on_c, 1, 46, 80
4, 43239, Note_on_c, 1, 46, 0
4, 43296, Note_on_c, 1, 55, 80
4, 43319, Note_on_c, 1, 55, 0
4, 43320, Note_on_c, 1, 53, 80
4, 43343, Note_on_c, 1, 53, 0
4, 43344, Note_on_c, 1, 51, 80
4, 43367, Note_on_c, 1, 51, 0
4, 43368, Note_on_c, 1, 50, 80
4, 43391, Note_on_c, 1, 50, 0
4, 43392, Note_on_c, 1, 48, 80
4, 43431, Note_on_c, 1, 48, 0
4, 43488, Note_on_c, 1, 48, 80
4, 43511, Note_on_c, 1, 48, 0
4, 43512, Note_on_c, 1, 46, 80
4, 43535, Note_on_c, 1, 46, 0
4, 43536, Note_on_c, 1, 44, 80
4, 43559, Note_on_c, 1, 44, 0
4, 43560, Note_on_c, 1, 43, 80
4, 43583, Note_on_c, 1, 43, 0
4, 43584, Note_on_c, 1, 41, 80
4, 43623, Note_on_c, 1, 41, 0
4, 43680, Note_on_c, 1, 44, 83
4, 43703, Note_on_c, 1, 44, 0
4, 43704, Note_on_c, 1, 43, 83
4, 43727, Note_on_c, 1, 43, 0
4, 43728, Note_on_c, 1, 41, 84
4, 43751, Note_on_c, 1, 41, 0
4, 43752, Note_on_c, 1, 40, 85
4, 43775, Note_on_c, 1, 40, 0
4, 43776, Note_on_c, 1, 38, 86
4, 43953, Note_on_c, 1, 38, 0
4, 44256, Note_on_c, 1, 46, 75
4, 44345, Note_on_c, 1, 46, 0
4, 44448, Note_on_c, 1, 46, 75
4, 44537, Note_on_c, 1, 46, 0
4, 44592, Note_on_c, 1, 46, 75
4, 44612, Note_on_c, 1, 46, 0
4, 44640, Note_on_c, 1, 50, 75
4, 44660, Note_on_c, 1, 50, 0
4, 44688, Note_on_c, 1, 53, 75
4, 44708, Note_on_c, 1, 53, 0
4, 44736, Note_on_c, 1, 58, 75
4, 44825, Note_on_c, 1, 58, 0
4, 45360, Note_on_c, 1, 41, 75
4, 45380, Note_on_c, 1, 41, 0
4, 45408, Note_on_c, 1, 45, 75
4, 45428, Note_on_c, 1, 45, 0
4, 45456, Note_on_c, 1, 48, 75
4, 45476, Note_on_c, 1, 48, 0
4, 45504, Note_on_c, 1, 53, 75
4, 45593, Note_on_c, 1, 53, 0
4, 45744, Note_on_c, 1, 46, 75
4, 45789, Note_on_c, 1, 46, 0
4, 45792, Note_on_c, 1, 58, 75
4, 45881, Note_on_c, 1, 58, 0
4, 45936, Note_on_c, 1, 46, 75
4, 45981, Note_on_c, 1, 46, 0
4, 45984, Note_on_c, 1, 58, 75
4, 46073, Note_on_c, 1, 58, 0
4, 46128, Note_on_c, 1, 58, 75
4, 46148, Note_on_c, 1, 58, 0
4, 46176, Note_on_c, 1, 62, 75
4, 46196, Note_on_c, 1, 62, 0
4, 46224, Note_on_c, 1, 65, 75
4, 46244, Note_on_c, 1, 65, 0
4, 46272, Note_on_c, 1, 70, 75
4, 46361, Note_on_c, 1, 70, 0
4, 46464, Note_on_c, 1, 51, 75
4, 46464, Note_on_c, 1, 39, 75
4, 46641, Note_on_c, 1, 51, 0
4, 46641, Note_on_c, 1, 39, 0
4, 46656, Note_on_c, 1, 53, 75
4, 46656, Note_on_c, 1, 41, 75
4, 46833, Note_on_c, 1, 53, 0
4, 46833, Note_on_c, 1, 41, 0
4, 46848, Note_on_c, 1, 46, 75
4, 46893, Note_on_c, 1, 46, 0
4, 46896, Note_on_c, 1, 58, 75
4, 46941, Note_on_c, 1, 58, 0
4, 46944, Note_on_c, 1, 46, 75
4, 46989, Note_on_c, 1, 46, 0
4, 46992, Note_on_c, 1, 58, 75
4, 47037, Note_on_c, 1, 58, 0
4, 47040, Note_on_c, 1, 46, 75
4, 47085, Note_on_c, 1, 46, 0
4, 47088, Note_on_c, 1, 58, 75
4, 47133, Note_on_c, 1, 58, 0
4, 47136, Note_on_c, 1, 46, 75
4, 47181, Note_on_c, 1, 46, 0
4, 47184, Note_on_c, 1, 58, 75
4, 47229, Note_on_c, 1, 58, 0
4, 47232, Note_on_c, 1, 46, 75
4, 47277, Note_on_c, 1, 46, 0
4, 47280, Note_on_c, 1, 58, 75
4, 47325, Note_on_c, 1, 58, 0
4, 47328, Note_on_c, 1, 46, 75
4, 47373, Note_on_c, 1, 46, 0
4, 47376, Note_on_c, 1, 58, 75
4, 47421, Note_on_c, 1, 58, 0
4, 47424, Note_on_c, 1, 46, 75
4, 47469, Note_on_c, 1, 46, 0
4, 47472, Note_on_c, 1, 58, 75
4, 47517, Note_on_c, 1, 58, 0
4, 47520, Note_on_c, 1, 46, 75
4, 47565, Note_on_c, 1, 46, 0
4, 47568, Note_on_c, 1, 58, 75
4, 47613, Note_on_c, 1, 58, 0
4, 47616, Note_on_c, 1, 46, 75
4, 47661, Note_on_c, 1, 46, 0
4, 47664, Note_on_c, 1, 58, 75
4, 47709, Note_on_c, 1, 58, 0
4, 47712, Note_on_c, 1, 46, 75
4, 47757, Note_on_c, 1, 46, 0
4, 47760, Note_on_c, 1, 58, 75
4, 47805, Note_on_c, 1, 58, 0
4, 47808, Note_on_c, 1, 46, 75
4, 47853, Note_on_c, 1, 46, 0
4, 47856, Note_on_c, 1, 58, 75
4, 47901, Note_on_c, 1, 58, 0
4, 47904, Note_on_c, 1, 46, 75
4, 47949, Note_on_c, 1, 46, 0
4, 47952, Note_on_c, 1, 58, 75
4, 47997, Note_on_c, 1, 58, 0
4, 48000, Note_on_c, 1, 46, 75
4, 48045, Note_on_c, 1, 46, 0
4, 48048, Note_on_c, 1, 58, 75
4, 48093, Note_on_c, 1, 58, 0
4, 48096, Note_on_c, 1, 46, 75
4, 48141, Note_on_c, 1, 46, 0
4, 48144, Note_on_c, 1, 58, 75
4, 48189, Note_on_c, 1, 58, 0
4, 48192, Note_on_c, 1, 46, 75
4, 48237, Note_on_c, 1, 46, 0
4, 48240, Note_on_c, 1, 58, 75
4, 48285, Note_on_c, 1, 58, 0
4, 48288, Note_on_c, 1, 46, 75
4, 48333, Note_on_c, 1, 46, 0
4, 48336, Note_on_c, 1, 58, 75
4, 48381, Note_on_c, 1, 58, 0
4, 48384, Note_on_c, 1, 46, 75
4, 48429, Note_on_c, 1, 46, 0
4, 48432, Note_on_c, 1, 58, 75
4, 48477, Note_on_c, 1, 58, 0
4, 48480, Note_on_c, 1, 46, 75
4, 48525, Note_on_c, 1, 46, 0
4, 48528, Note_on_c, 1, 58, 75
4, 48573, Note_on_c, 1, 58, 0
4, 48576, Note_on_c, 1, 46, 75
4, 48621, Note_on_c, 1, 46, 0
4, 48624, Note_on_c, 1, 58, 75
4, 48669, Note_on_c, 1, 58, 0
4, 48672, Note_on_c, 1, 46, 75
4, 48717, Note_on_c, 1, 46, 0
4, 48720, Note_on_c, 1, 58, 75
4, 48765, Note_on_c, 1, 58, 0
4, 48768, Note_on_c, 1, 46, 75
4, 48813, Note_on_c, 1, 46, 0
4, 48816, Note_on_c, 1, 58, 75
4, 48861, Note_on_c, 1, 58, 0
4, 48864, Note_on_c, 1, 46, 76
4, 48909, Note_on_c, 1, 46, 0
4, 48912, Note_on_c, 1, 58, 76
4, 48957, Note_on_c, 1, 58, 0
4, 48960, Note_on_c, 1, 46, 77
4, 49005, Note_on_c, 1, 46, 0
4, 49008, Note_on_c, 1, 58, 78
4, 49053, Note_on_c, 1, 58, 0
4, 49056, Note_on_c, 1, 46, 78
4, 49101, Note_on_c, 1, 46, 0
4, 49104, Note_on_c, 1, 58, 79
4, 49149, Note_on_c, 1, 58, 0
4, 49152, Note_on_c, 1, 46, 80
4, 49197, Note_on_c, 1, 46, 0
4, 49200, Note_on_c, 1, 58, 80
4, 49245, Note_on_c, 1, 58, 0
4, 49248, Note_on_c, 1, 46, 80
4, 49293, Note_on_c, 1, 46, 0
4, 49296, Note_on_c, 1, 58, 80
4, 49341, Note_on_c, 1, 58, 0
4, 49344, Note_on_c, 1, 46, 80
4, 49389, Note_on_c, 1, 46, 0
4, 49392, Note_on_c, 1, 58, 80
4, 49437, Note_on_c, 1, 58, 0
4, 49440, Note_on_c, 1, 46, 80
4, 49485, Note_on_c, 1, 46, 0
4, 49488, Note_on_c, 1, 58, 80
4, 49533, Note_on_c, 1, 58, 0
4, 49536, Note_on_c, 1, 46, 80
4, 49581, Note_on_c, 1, 46, 0
4, 49584, Note_on_c, 1, 58, 80
4, 49629, Note_on_c, 1, 58, 0
4, 49632, Note_on_c, 1, 46, 80
4, 49677, Note_on_c, 1, 46, 0
4, 49680, Note_on_c, 1, 58, 80
4, 49725, Note_on_c, 1, 58, 0
4, 49728, Note_on_c, 1, 46, 80
4, 49773, Note_on_c, 1, 46, 0
4, 49776, Note_on_c, 1, 58, 80
4, 49821, Note_on_c, 1, 58, 0
4, 49824, Note_on_c, 1, 46, 80
4, 49869, Note_on_c, 1, 46, 0
4, 49872, Note_on_c, 1, 58, 80
4, 49917, Note_on_c, 1, 58, 0
4, 49920, Note_on_c, 1, 47, 80
4, 49965, Note_on_c, 1, 47, 0
4, 49968, Note_on_c, 1, 59, 80
4, 50013, Note_on_c, 1, 59, 0
4, 50016, Note_on_c, 1, 47, 80
4, 50061, Note_on_c, 1, 47, 0
4, 50064, Note_on_c, 1, 59, 80
4, 50109, Note_on_c, 1, 59, 0
4, 50112, Note_on_c, 1, 48, 80
4, 50157, Note_on_c, 1, 48, 0
4, 50160, Note_on_c, 1, 60, 80
4, 50205, Note_on_c, 1, 60, 0
4, 50208, Note_on_c, 1, 48, 81
4, 50253, Note_on_c, 1, 48, 0
4, 50256, Note_on_c, 1, 60, 81
4, 50301, Note_on_c, 1, 60, 0
4, 50304, Note_on_c, 1, 48, 81
4, 50349, Note_on_c, 1, 48, 0
4, 50352, Note_on_c, 1, 60, 81
4, 50397, Note_on_c, 1, 60, 0
4, 50400, Note_on_c, 1, 48, 81
4, 50445, Note_on_c, 1, 48, 0
4, 50448, Note_on_c, 1, 60, 82
4, 50493, Note_on_c, 1, 60, 0
4, 50496, Note_on_c, 1, 48, 82
4, 50541, Note_on_c, 1, 48, 0
4, 50544, Note_on_c, 1, 60, 82
4, 50589, Note_on_c, 1, 60, 0
4, 50592, Note_on_c, 1, 48, 82
4, 50637, Note_on_c, 1, 48, 0
4, 50640, Note_on_c, 1, 60, 83
4, 50685, Note_on_c, 1, 60, 0
4, 50688, Note_on_c, 1, 49, 83
4, 50733, Note_on_c, 1, 49, 0
4, 50736, Note_on_c, 1, 61, 83
4, 50781, Note_on_c, 1, 61, 0
4, 50784, Note_on_c, 1, 49, 83
4, 50829, Note_on_c, 1, 49, 0
4, 50832, Note_on_c, 1, 61, 83
4, 50877, Note_on_c, 1, 61, 0
4, 50880, Note_on_c, 1, 50, 84
4, 50925, Note_on_c, 1, 50, 0
4, 50928, Note_on_c, 1, 62, 84
4, 50973, Note_on_c, 1, 62, 0
4, 50976, Note_on_c, 1, 50, 84
4, 51021, Note_on_c, 1, 50, 0
4, 51024, Note_on_c, 1, 62, 84
4, 51069, Note_on_c, 1, 62, 0
4, 51072, Note_on_c, 1, 50, 84
4, 51117, Note_on_c, 1, 50, 0
4, 51120, Note_on_c, 1, 62, 85
4, 51165, Note_on_c, 1, 62, 0
4, 51168, Note_on_c, 1, 50, 85
4, 51213, Note_on_c, 1, 50, 0
4, 51216, Note_on_c, 1, 62, 85
4, 51261, Note_on_c, 1, 62, 0
4, 51264, Note_on_c, 1, 50, 85
4, 51309, Note_on_c, 1, 50, 0
4, 51312, Note_on_c, 1, 62, 86
4, 51357, Note_on_c, 1, 62, 0
4, 51360, Note_on_c, 1, 62, 86
4, 51383, Note_on_c, 1, 62, 0
4, 51384, Note_on_c, 1, 60, 86
4, 51407, Note_on_c, 1, 60, 0
4, 51408, Note_on_c, 1, 58, 86
4, 51431, Note_on_c, 1, 58, 0
4, 51432, Note_on_c, 1, 57, 86
4, 51455, Note_on_c, 1, 57, 0
4, 51456, Note_on_c, 1, 55, 86
4, 51495, Note_on_c, 1, 55, 0
4, 51552, Note_on_c, 1, 58, 86
4, 51575, Note_on_c, 1, 58, 0
4, 51576, Note_on_c, 1, 57, 86
4, 51599, Note_on_c, 1, 57, 0
4, 51600, Note_on_c, 1, 55, 86
4, 51623, Note_on_c, 1, 55, 0
4, 51624, Note_on_c, 1, 53, 86
4, 51647, Note_on_c, 1, 53, 0
4, 51648, Note_on_c, 1, 51, 86
4, 51687, Note_on_c, 1, 51, 0
4, 51744, Note_on_c, 1, 55, 86
4, 51767, Note_on_c, 1, 55, 0
4, 51768, Note_on_c, 1, 53, 86
4, 51791, Note_on_c, 1, 53, 0
4, 51792, Note_on_c, 1, 51, 86
4, 51815, Note_on_c, 1, 51, 0
4, 51816, Note_on_c, 1, 50, 86
4, 51839, Note_on_c, 1, 50, 0
4, 51840, Note_on_c, 1, 49, 86
4, 51879, Note_on_c, 1, 49, 0
4, 51936, Note_on_c, 1, 57, 86
4, 51959, Note_on_c, 1, 57, 0
4, 51960, Note_on_c, 1, 55, 86
4, 51983, Note_on_c, 1, 55, 0
4, 51984, Note_on_c, 1, 53, 86
4, 52007, Note_on_c, 1, 53, 0
4, 52008, Note_on_c, 1, 52, 86
4, 52031, Note_on_c, 1, 52, 0
4, 52032, Note_on_c, 1, 53, 86
4, 52071, Note_on_c, 1, 53, 0
4, 52128, Note_on_c, 1, 62, 86
4, 52151, Note_on_c, 1, 62, 0
4, 52152, Note_on_c, 1, 60, 86
4, 52175, Note_on_c, 1, 60, 0
4, 52176, Note_on_c, 1, 58, 86
4, 52199, Note_on_c, 1, 58, 0
4, 52200, Note_on_c, 1, 57, 86
4, 52223, Note_on_c, 1, 57, 0
4, 52224, Note_on_c, 1, 58, 86
4, 52263, Note_on_c, 1, 58, 0
4, 52320, Note_on_c, 1, 55, 86
4, 52343, Note_on_c, 1, 55, 0
4, 52344, Note_on_c, 1, 53, 86
4, 52367, Note_on_c, 1, 53, 0
4, 52368, Note_on_c, 1, 51, 86
4, 52391, Note_on_c, 1, 51, 0
4, 52392, Note_on_c, 1, 50, 86
4, 52415, Note_on_c, 1, 50, 0
4, 52416, Note_on_c, 1, 48, 86
4, 52455, Note_on_c, 1, 48, 0
4, 52512, Note_on_c, 1, 50, 86
4, 52535, Note_on_c, 1, 50, 0
4, 52536, Note_on_c, 1, 48, 86
4, 52559, Note_on_c, 1, 48, 0
4, 52560, Note_on_c, 1, 46, 86
4, 52583, Note_on_c, 1, 46, 0
4, 52584, Note_on_c, 1, 45, 86
4, 52607, Note_on_c, 1, 45, 0
4, 52608, Note_on_c, 1, 43, 86
4, 52785, Note_on_c, 1, 43, 0
4, 53376, Note_on_c, 1, 51, 80
4, 53406, Note_on_c, 1, 51, 0
4, 53408, Note_on_c, 1, 55, 80
4, 53438, Note_on_c, 1, 55, 0
4, 53440, Note_on_c, 1, 53, 80
4, 53470, Note_on_c, 1, 53, 0
4, 53472, Note_on_c, 1, 51, 81
4, 53502, Note_on_c, 1, 51, 0
4, 53504, Note_on_c, 1, 53, 81
4, 53534, Note_on_c, 1, 53, 0
4, 53536, Note_on_c, 1, 55, 82
4, 53566, Note_on_c, 1, 55, 0
4, 53568, Note_on_c, 1, 48, 82
4, 53598, Note_on_c, 1, 48, 0
4, 53600, Note_on_c, 1, 51, 83
4, 53630, Note_on_c, 1, 51, 0
4, 53632, Note_on_c, 1, 50, 83
4, 53662, Note_on_c, 1, 50, 0
4, 53664, Note_on_c, 1, 48, 84
4, 53694, Note_on_c, 1, 48, 0
4, 53696, Note_on_c, 1, 50, 84
4, 53726, Note_on_c, 1, 50, 0
4, 53728, Note_on_c, 1, 51, 85
4, 53758, Note_on_c, 1, 51, 0
4, 53760, Note_on_c, 1, 65, 96
4, 53760, Note_on_c, 1, 53, 96
4, 53799, Note_on_c, 1, 65, 0
4, 53799, Note_on_c, 1, 53, 0
4, 53856, Note_on_c, 1, 63, 96
4, 53856, Note_on_c, 1, 51, 96
4, 53895, Note_on_c, 1, 63, 0
4, 53895, Note_on_c, 1, 51, 0
4, 53952, Note_on_c, 1, 60, 96
4, 53952, Note_on_c, 1, 48, 96
4, 53991, Note_on_c, 1, 60, 0
4, 53991, Note_on_c, 1, 48, 0
4, 54048, Note_on_c, 1, 57, 96
4, 54048, Note_on_c, 1, 45, 96
4, 54087, Note_on_c, 1, 57, 0
4, 54087, Note_on_c, 1, 45, 0
4, 54144, Note_on_c, 1, 53, 96
4, 54144, Note_on_c, 1, 41, 96
4, 54432, Note_on_c, 1, 53, 0
4, 54432, Note_on_c, 1, 41, 0
4, 54528, Note_on_c, 1, 67, 96
4, 54528, Note_on_c, 1, 55, 96
4, 54567, Note_on_c, 1, 67, 0
4, 54567, Note_on_c, 1, 55, 0
4, 54624, Note_on_c, 1, 65, 96
4, 54624, Note_on_c, 1, 53, 96
4, 54663, Note_on_c, 1, 65, 0
4, 54663, Note_on_c, 1, 53, 0
4, 54720, Note_on_c, 1, 62, 96
4, 54720, Note_on_c, 1, 50, 96
4, 54759, Note_on_c, 1, 62, 0
4, 54759, Note_on_c, 1, 50, 0
4, 54816, Note_on_c, 1, 59, 96
4, 54816, Note_on_c, 1, 47, 96
4, 54855, Note_on_c, 1, 59, 0
4, 54855, Note_on_c, 1, 47, 0
4, 54912, Note_on_c, 1, 55, 96
4, 54912, Note_on_c, 1, 43, 96
4, 55200, Note_on_c, 1, 55, 0
4, 55200, Note_on_c, 1, 43, 0
4, 55296, Note_on_c, 1, 63, 96
4, 55296, Note_on_c, 1, 51, 96
4, 55335, Note_on_c, 1, 63, 0
4, 55335, Note_on_c, 1, 51, 0
4, 55392, Note_on_c, 1, 60, 96
4, 55392, Note_on_c, 1, 48, 96
4, 55431, Note_on_c, 1, 60, 0
4, 55431, Note_on_c, 1, 48, 0
4, 55488, Note_on_c, 1, 55, 96
4, 55488, Note_on_c, 1, 43, 96
4, 55527, Note_on_c, 1, 55, 0
4, 55527, Note_on_c, 1, 43, 0
4, 55584, Note_on_c, 1, 60, 96
4, 55584, Note_on_c, 1, 48, 96
4, 55623, Note_on_c, 1, 60, 0
4, 55623, Note_on_c, 1, 48, 0
4, 55680, Note_on_c, 1, 58, 96
4, 55680, Note_on_c, 1, 46, 96
4, 55968, Note_on_c, 1, 58, 0
4, 55968, Note_on_c, 1, 46, 0
4, 56064, Note_on_c, 1, 53, 96
4, 56064, Note_on_c, 1, 41, 96
4, 56103, Note_on_c, 1, 53, 0
4, 56103, Note_on_c, 1, 41, 0
4, 56160, Note_on_c, 1, 51, 96
4, 56160, Note_on_c, 1, 39, 96
4, 56199, Note_on_c, 1, 51, 0
4, 56199, Note_on_c, 1, 39, 0
4, 56256, Note_on_c, 1, 48, 96
4, 56256, Note_on_c, 1, 36, 96
4, 56295, Note_on_c, 1, 48, 0
4, 56295, Note_on_c, 1, 36, 0
4, 56352, Note_on_c, 1, 46, 96
4, 56352, Note_on_c, 1, 34, 96
4, 56391, Note_on_c, 1, 46, 0
4, 56391, Note_on_c, 1, 34, 0
4, 56448, Note_on_c, 1, 45, 80
4, 56448, Note_on_c, 1, 33, 80
4, 56713, Note_on_c, 1, 45, 0
4, 56713, Note_on_c, 1, 33, 0
4, 56832, Note_on_c, 1, 58, 64
4, 56877, Note_on_c, 1, 58, 0
4, 56880, Note_on_c, 1, 65, 64
4, 56925, Note_on_c, 1, 65, 0
4, 56928, Note_on_c, 1, 62, 64
4, 56973, Note_on_c, 1, 62, 0
4, 56976, Note_on_c, 1, 65, 64
4, 57021, Note_on_c, 1, 65, 0
4, 57024, Note_on_c, 1, 58, 64
4, 57069, Note_on_c, 1, 58, 0
4, 57072, Note_on_c, 1, 65, 64
4, 57117, Note_on_c, 1, 65, 0
4, 57120, Note_on_c, 1, 62, 64
4, 57165, Note_on_c, 1, 62, 0
4, 57168, Note_on_c, 1, 65, 64
4, 57213, Note_on_c, 1, 65, 0
4, 57216, Note_on_c, 1, 58, 64
4, 57261, Note_on_c, 1, 58, 0
4, 57264, Note_on_c, 1, 65, 64
4, 57309, Note_on_c, 1, 65, 0
4, 57312, Note_on_c, 1, 62, 64
4, 57357, Note_on_c, 1, 62, 0
4, 57360, Note_on_c, 1, 65, 64
4, 57405, Note_on_c, 1, 65, 0
4, 57408, Note_on_c, 1, 58, 64
4, 57453, Note_on_c, 1, 58, 0
4, 57456, Note_on_c, 1, 65, 64
4, 57501, Note_on_c, 1, 65, 0
4, 57504, Note_on_c, 1, 62, 64
4, 57549, Note_on_c, 1, 62, 0
4, 57552, Note_on_c, 1, 65, 64
4, 57597, Note_on_c, 1, 65, 0
4, 57600, Note_on_c, 1, 60, 64
4, 57645, Note_on_c, 1, 60, 0
4, 57648, Note_on_c, 1, 65, 64
4, 57693, Note_on_c, 1, 65, 0
4, 57696, Note_on_c, 1, 63, 64
4, 57741, Note_on_c, 1, 63, 0
4, 57744, Note_on_c, 1, 65, 64
4, 57789, Note_on_c, 1, 65, 0
4, 57792, Note_on_c, 1, 60, 64
4, 57837, Note_on_c, 1, 60, 0
4, 57840, Note_on_c, 1, 65, 64
4, 57885, Note_on_c, 1, 65, 0
4, 57888, Note_on_c, 1, 63, 64
4, 57933, Note_on_c, 1, 63, 0
4, 57936, Note_on_c, 1, 65, 64
4, 57981, Note_on_c, 1, 65, 0
4, 57984, Note_on_c, 1, 58, 64
4, 58073, Note_on_c, 1, 58, 0
4, 58368, Note_on_c, 1, 58, 64
4, 58413, Note_on_c, 1, 58, 0
4, 58416, Note_on_c, 1, 63, 64
4, 58461, Note_on_c, 1, 63, 0
4, 58464, Note_on_c, 1, 67, 64
4, 58509, Note_on_c, 1, 67, 0
4, 58512, Note_on_c, 1, 63, 64
4, 58557, Note_on_c, 1, 63, 0
4, 58560, Note_on_c, 1, 58, 64
4, 58605, Note_on_c, 1, 58, 0
4, 58608, Note_on_c, 1, 63, 64
4, 58653, Note_on_c, 1, 63, 0
4, 58656, Note_on_c, 1, 67, 64
4, 58701, Note_on_c, 1, 67, 0
4, 58704, Note_on_c, 1, 63, 64
4, 58749, Note_on_c, 1, 63, 0
4, 58752, Note_on_c, 1, 62, 64
4, 58797, Note_on_c, 1, 62, 0
4, 58800, Note_on_c, 1, 65, 64
4, 58845, Note_on_c, 1, 65, 0
4, 58848, Note_on_c, 1, 62, 65
4, 58893, Note_on_c, 1, 62, 0
4, 58896, Note_on_c, 1, 58, 66
4, 58941, Note_on_c, 1, 58, 0
4, 58944, Note_on_c, 1, 53, 67
4, 58989, Note_on_c, 1, 53, 0
4, 58992, Note_on_c, 1, 62, 67
4, 59037, Note_on_c, 1, 62, 0
4, 59040, Note_on_c, 1, 53, 68
4, 59085, Note_on_c, 1, 53, 0
4, 59088, Note_on_c, 1, 63, 69
4, 59133, Note_on_c, 1, 63, 0
4, 59136, Note_on_c, 1, 62, 70
4, 59313, Note_on_c, 1, 62, 0
4, 59520, Note_on_c, 1, 50, 70
4, 59520, Note_on_c, 1, 41, 70
4, 59609, Note_on_c, 1, 50, 0
4, 59609, Note_on_c, 1, 41, 0
4, 59712, Note_on_c, 1, 51, 70
4, 59712, Note_on_c, 1, 41, 70
4, 59801, Note_on_c, 1, 51, 0
4, 59801, Note_on_c, 1, 41, 0
4, 59904, Note_on_c, 1, 34, 80
4, 59949, Note_on_c, 1, 34, 0
4, 59952, Note_on_c, 1, 46, 80
4, 59997, Note_on_c, 1, 46, 0
4, 60000, Note_on_c, 1, 34, 80
4, 60045, Note_on_c, 1, 34, 0
4, 60048, Note_on_c, 1, 46, 80
4, 60093, Note_on_c, 1, 46, 0
4, 60096, Note_on_c, 1, 34, 80
4, 60141, Note_on_c, 1, 34, 0
4, 60144, Note_on_c, 1, 46, 80
4, 60189, Note_on_c, 1, 46, 0
4, 60192, Note_on_c, 1, 34, 80
4, 60237, Note_on_c, 1, 34, 0
4, 60240, Note_on_c, 1, 46, 80
4, 60285, Note_on_c, 1, 46, 0
4, 60288, Note_on_c, 1, 34, 80
4, 60333, Note_on_c, 1, 34, 0
4, 60336, Note_on_c, 1, 46, 80
4, 60381, Note_on_c, 1, 46, 0
4, 60384, Note_on_c, 1, 34, 80
4, 60429, Note_on_c, 1, 34, 0
4, 60432, Note_on_c, 1, 46, 80
4, 60477, Note_on_c, 1, 46, 0
4, 60480, Note_on_c, 1, 34, 80
4, 60525, Note_on_c, 1, 34, 0
4, 60528, Note_on_c, 1, 46, 80
4, 60573, Note_on_c, 1, 46, 0
4, 60576, Note_on_c, 1, 34, 80
4, 60621, Note_on_c, 1, 34, 0
4, 60624, Note_on_c, 1, 46, 80
4, 60669, Note_on_c, 1, 46, 0
4, 60672, Note_on_c, 1, 34, 80
4, 60717, Note_on_c, 1, 34, 0
4, 60720, Note_on_c, 1, 46, 80
4, 60765, Note_on_c, 1, 46, 0
4, 60768, Note_on_c, 1, 34, 80
4, 60813, Note_on_c, 1, 34, 0
4, 60816, Note_on_c, 1, 46, 80
4, 60861, Note_on_c, 1, 46, 0
4, 60864, Note_on_c, 1, 34, 80
4, 60909, Note_on_c, 1, 34, 0
4, 60912, Note_on_c, 1, 46, 80
4, 60957, Note_on_c, 1, 46, 0
4, 60960, Note_on_c, 1, 34, 80
4, 61005, Note_on_c, 1, 34, 0
4, 61008, Note_on_c, 1, 46, 80
4, 61053, Note_on_c, 1, 46, 0
4, 61056, Note_on_c, 1, 34, 80
4, 61101, Note_on_c, 1, 34, 0
4, 61104, Note_on_c, 1, 46, 80
4, 61149, Note_on_c, 1, 46, 0
4, 61152, Note_on_c, 1, 34, 80
4, 61197, Note_on_c, 1, 34, 0
4, 61200, Note_on_c, 1, 46, 80
4, 61245, Note_on_c, 1, 46, 0
4, 61248, Note_on_c, 1, 34, 80
4, 61293, Note_on_c, 1, 34, 0
4, 61296, Note_on_c, 1, 46, 80
4, 61341, Note_on_c, 1, 46, 0
4, 61344, Note_on_c, 1, 34, 80
4, 61389, Note_on_c, 1, 34, 0
4, 61392, Note_on_c, 1, 46, 80
4, 61437, Note_on_c, 1, 46, 0
4, 61440, Note_on_c, 1, 34, 80
4, 61485, Note_on_c, 1, 34, 0
4, 61488, Note_on_c, 1, 46, 80
4, 61533, Note_on_c, 1, 46, 0
4, 61536, Note_on_c, 1, 34, 78
4, 61581, Note_on_c, 1, 34, 0
4, 61584, Note_on_c, 1, 46, 77
4, 61629, Note_on_c, 1, 46, 0
4, 61632, Note_on_c, 1, 34, 76
4, 61677, Note_on_c, 1, 34, 0
4, 61680, Note_on_c, 1, 46, 75
4, 61725, Note_on_c, 1, 46, 0
4, 61728, Note_on_c, 1, 34, 73
4, 61773, Note_on_c, 1, 34, 0
4, 61776, Note_on_c, 1, 46, 72
4, 61821, Note_on_c, 1, 46, 0
4, 61824, Note_on_c, 1, 34, 71
4, 61869, Note_on_c, 1, 34, 0
4, 61872, Note_on_c, 1, 46, 70
4, 61917, Note_on_c, 1, 46, 0
4, 61920, Note_on_c, 1, 34, 68
4, 61965, Note_on_c, 1, 34, 0
4, 61968, Note_on_c, 1, 46, 67
4, 62013, Note_on_c, 1, 46, 0
4, 62016, Note_on_c, 1, 34, 66
4, 62105, Note_on_c, 1, 34, 0
4, 62208, Note_on_c, 1, 63, 64
4, 62208, Note_on_c, 1, 53, 64
4, 62385, Note_on_c, 1, 63, 0
4, 62385, Note_on_c, 1, 53, 0
4, 62400, Note_on_c, 1, 62, 64
4, 62400, Note_on_c, 1, 58, 64
4, 62489, Note_on_c, 1, 62, 0
4, 62489, Note_on_c, 1, 58, 0
4, 62592, Note_on_c, 1, 41, 75
4, 62681, Note_on_c, 1, 41, 0
4, 62688, Note_on_c, 1, 53, 75
4, 62777, Note_on_c, 1, 53, 0
4, 62784, Note_on_c, 1, 41, 75
4, 62873, Note_on_c, 1, 41, 0
4, 62880, Note_on_c, 1, 53, 75
4, 62969, Note_on_c, 1, 53, 0
4, 63024, Note_on_c, 1, 41, 75
4, 63044, Note_on_c, 1, 41, 0
4, 63072, Note_on_c, 1, 45, 75
4, 63092, Note_on_c, 1, 45, 0
4, 63120, Note_on_c, 1, 48, 75
4, 63140, Note_on_c, 1, 48, 0
4, 63168, Note_on_c, 1, 53, 75
4, 63257, Note_on_c, 1, 53, 0
4, 63792, Note_on_c, 1, 47, 75
4, 63837, Note_on_c, 1, 47, 0
4, 63840, Note_on_c, 1, 48, 75
4, 63885, Note_on_c, 1, 48, 0
4, 63888, Note_on_c, 1, 47, 75
4, 63933, Note_on_c, 1, 47, 0
4, 63936, Note_on_c, 1, 48, 75
4, 63981, Note_on_c, 1, 48, 0
4, 63984, Note_on_c, 1, 65, 80
4, 64029, Note_on_c, 1, 65, 0
4, 64032, Note_on_c, 1, 64, 80
4, 64077, Note_on_c, 1, 64, 0
4, 64080, Note_on_c, 1, 65, 80
4, 64125, Note_on_c, 1, 65, 0
4, 64176, Note_on_c, 1, 53, 80
4, 64196, Note_on_c, 1, 53, 0
4, 64224, Note_on_c, 1, 65, 80
4, 64313, Note_on_c, 1, 65, 0
4, 64368, Note_on_c, 1, 53, 80
4, 64388, Note_on_c, 1, 53, 0
4, 64416, Note_on_c, 1, 65, 80
4, 64505, Note_on_c, 1, 65, 0
4, 64560, Note_on_c, 1, 53, 80
4, 64580, Note_on_c, 1, 53, 0
4, 64608, Note_on_c, 1, 56, 80
4, 64628, Note_on_c, 1, 56, 0
4, 64656, Note_on_c, 1, 60, 80
4, 64676, Note_on_c, 1, 60, 0
4, 64704, Note_on_c, 1, 65, 80
4, 64793, Note_on_c, 1, 65, 0
4, 64896, Note_on_c, 1, 49, 80
4, 65073, Note_on_c, 1, 49, 0
4, 65088, Note_on_c, 1, 51, 80
4, 65265, Note_on_c, 1, 51, 0
4, 65280, Note_on_c, 1, 44, 80
4, 65325, Note_on_c, 1, 44, 0
4, 65328, Note_on_c, 1, 56, 80
4, 65373, Note_on_c, 1, 56, 0
4, 65376, Note_on_c, 1, 42, 80
4, 65421, Note_on_c, 1, 42, 0
4, 65424, Note_on_c, 1, 54, 80
4, 65469, Note_on_c, 1, 54, 0
4, 65472, Note_on_c, 1, 41, 80
4, 65517, Note_on_c, 1, 41, 0
4, 65520, Note_on_c, 1, 53, 80
4, 65565, Note_on_c, 1, 53, 0
4, 65568, Note_on_c, 1, 39, 80
4, 65613, Note_on_c, 1, 39, 0
4, 65616, Note_on_c, 1, 51, 80
4, 65661, Note_on_c, 1, 51, 0
4, 65664, Note_on_c, 1, 37, 80
4, 65753, Note_on_c, 1, 37, 0
4, 65856, Note_on_c, 1, 62, 80
4, 65856, Note_on_c, 1, 59, 80
4, 65856, Note_on_c, 1, 53, 80
4, 66033, Note_on_c, 1, 62, 0
4, 66033, Note_on_c, 1, 59, 0
4, 66033, Note_on_c, 1, 53, 0
4, 66048, Note_on_c, 1, 48, 80
4, 66093, Note_on_c, 1, 48, 0
4, 66096, Note_on_c, 1, 60, 80
4, 66141, Note_on_c, 1, 60, 0
4, 66144, Note_on_c, 1, 46, 80
4, 66189, Note_on_c, 1, 46, 0
4, 66192, Note_on_c, 1, 58, 80
4, 66237, Note_on_c, 1, 58, 0
4, 66240, Note_on_c, 1, 45, 80
4, 66285, Note_on_c, 1, 45, 0
4, 66288, Note_on_c, 1, 57, 80
4, 66333, Note_on_c, 1, 57, 0
4, 66336, Note_on_c, 1, 43, 80
4, 66381, Note_on_c, 1, 43, 0
4, 66384, Note_on_c, 1, 55, 80
4, 66429, Note_on_c, 1, 55, 0
4, 66432, Note_on_c, 1, 41, 80
4, 66477, Note_on_c, 1, 41, 0
4, 66480, Note_on_c, 1, 53, 80
4, 66525, Note_on_c, 1, 53, 0
4, 66528, Note_on_c, 1, 41, 80
4, 66573, Note_on_c, 1, 41, 0
4, 66576, Note_on_c, 1, 53, 80
4, 66621, Note_on_c, 1, 53, 0
4, 66624, Note_on_c, 1, 42, 81
4, 66669, Note_on_c, 1, 42, 0
4, 66672, Note_on_c, 1, 54, 81
4, 66717, Note_on_c, 1, 54, 0
4, 66720, Note_on_c, 1, 42, 81
4, 66765, Note_on_c, 1, 42, 0
4, 66768, Note_on_c, 1, 54, 81
4, 66813, Note_on_c, 1, 54, 0
4, 66816, Note_on_c, 1, 43, 82
4, 66861, Note_on_c, 1, 43, 0
4, 66864, Note_on_c, 1, 55, 82
4, 66909, Note_on_c, 1, 55, 0
4, 66912, Note_on_c, 1, 43, 82
4, 66957, Note_on_c, 1, 43, 0
4, 66960, Note_on_c, 1, 55, 82
4, 67005, Note_on_c, 1, 55, 0
4, 67008, Note_on_c, 1, 43, 83
4, 67053, Note_on_c, 1, 43, 0
4, 67056, Note_on_c, 1, 55, 83
4, 67101, Note_on_c, 1, 55, 0
4, 67104, Note_on_c, 1, 46, 83
4, 67149, Note_on_c, 1, 46, 0
4, 67152, Note_on_c, 1, 58, 83
4, 67197, Note_on_c, 1, 58, 0
4, 67200, Note_on_c, 1, 44, 84
4, 67245, Note_on_c, 1, 44, 0
4, 67248, Note_on_c, 1, 56, 84
4, 67293, Note_on_c, 1, 56, 0
4, 67296, Note_on_c, 1, 44, 84
4, 67341, Note_on_c, 1, 44, 0
4, 67344, Note_on_c, 1, 56, 84
4, 67389, Note_on_c, 1, 56, 0
4, 67392, Note_on_c, 1, 44, 85
4, 67437, Note_on_c, 1, 44, 0
4, 67440, Note_on_c, 1, 56, 85
4, 67485, Note_on_c, 1, 56, 0
4, 67488, Note_on_c, 1, 44, 85
4, 67533, Note_on_c, 1, 44, 0
4, 67536, Note_on_c, 1, 56, 85
4, 67581, Note_on_c, 1, 56, 0
4, 67584, Note_on_c, 1, 55, 80
4, 67584, Note_on_c, 1, 50, 80
4, 67584, Note_on_c, 1, 47, 80
4, 67584, Note_on_c, 1, 43, 80
4, 67761, Note_on_c, 1, 55, 0
4, 67761, Note_on_c, 1, 50, 0
4, 67761, Note_on_c, 1, 47, 0
4, 67761, Note_on_c, 1, 43, 0
4, 67872, Note_on_c, 1, 50, 80
4, 67872, Note_on_c, 1, 47, 80
4, 67911, Note_on_c, 1, 50, 0
4, 67911, Note_on_c, 1, 47, 0
4, 67968, Note_on_c, 1, 51, 80
4, 67968, Note_on_c, 1, 48, 80
4, 68064, Note_on_c, 1, 51, 0
4, 68064, Note_on_c, 1, 48, 0
4, 68064, Note_on_c, 1, 50, 81
4, 68064, Note_on_c, 1, 47, 81
4, 68103, Note_on_c, 1, 50, 0
4, 68103, Note_on_c, 1, 47, 0
4, 68160, Note_on_c, 1, 53, 83
4, 68160, Note_on_c, 1, 50, 83
4, 68256, Note_on_c, 1, 53, 0
4, 68256, Note_on_c, 1, 50, 0
4, 68256, Note_on_c, 1, 51, 84
4, 68256, Note_on_c, 1, 48, 84
4, 68295, Note_on_c, 1, 51, 0
4, 68295, Note_on_c, 1, 48, 0
4, 68352, Note_on_c, 1, 55, 102
4, 68352, Note_on_c, 1, 51, 102
4, 68496, Note_on_c, 1, 55, 0
4, 68496, Note_on_c, 1, 51, 0
4, 68496, Note_on_c, 1, 53, 83
4, 68496, Note_on_c, 1, 50, 83
4, 68541, Note_on_c, 1, 53, 0
4, 68541, Note_on_c, 1, 50, 0
4, 68544, Note_on_c, 1, 51, 83
4, 68544, Note_on_c, 1, 48, 83
4, 68583, Note_on_c, 1, 51, 0
4, 68583, Note_on_c, 1, 48, 0
4, 68640, Note_on_c, 1, 51, 81
4, 68640, Note_on_c, 1, 48, 81
4, 68679, Note_on_c, 1, 51, 0
4, 68679, Note_on_c, 1, 48, 0
4, 68736, Note_on_c, 1, 54, 96
4, 68736, Note_on_c, 1, 51, 96
4, 68880, Note_on_c, 1, 54, 0
4, 68880, Note_on_c, 1, 51, 0
4, 68880, Note_on_c, 1, 53, 81
4, 68880, Note_on_c, 1, 50, 81
4, 68925, Note_on_c, 1, 53, 0
4, 68925, Note_on_c, 1, 50, 0
4, 68928, Note_on_c, 1, 53, 81
4, 68928, Note_on_c, 1, 50, 81
4, 68967, Note_on_c, 1, 53, 0
4, 68967, Note_on_c, 1, 50, 0
4, 69024, Note_on_c, 1, 53, 82
4, 69024, Note_on_c, 1, 50, 82
4, 69063, Note_on_c, 1, 53, 0
4, 69063, Note_on_c, 1, 50, 0
4, 69120, Note_on_c, 1, 56, 99
4, 69120, Note_on_c, 1, 53, 99
4, 69264, Note_on_c, 1, 56, 0
4, 69264, Note_on_c, 1, 53, 0
4, 69264, Note_on_c, 1, 55, 84
4, 69264, Note_on_c, 1, 52, 84
4, 69309, Note_on_c, 1, 55, 0
4, 69309, Note_on_c, 1, 52, 0
4, 69312, Note_on_c, 1, 55, 85
4, 69312, Note_on_c, 1, 52, 85
4, 69351, Note_on_c, 1, 55, 0
4, 69351, Note_on_c, 1, 52, 0
4, 69408, Note_on_c, 1, 60, 86
4, 69431, Note_on_c, 1, 60, 0
4, 69432, Note_on_c, 1, 58, 86
4, 69455, Note_on_c, 1, 58, 0
4, 69456, Note_on_c, 1, 56, 86
4, 69479, Note_on_c, 1, 56, 0
4, 69480, Note_on_c, 1, 55, 86
4, 69503, Note_on_c, 1, 55, 0
4, 69504, Note_on_c, 1, 53, 86
4, 69543, Note_on_c, 1, 53, 0
4, 69600, Note_on_c, 1, 56, 86
4, 69623, Note_on_c, 1, 56, 0
4, 69624, Note_on_c, 1, 55, 86
4, 69647, Note_on_c, 1, 55, 0
4, 69648, Note_on_c, 1, 53, 86
4, 69671, Note_on_c, 1, 53, 0
4, 69672, Note_on_c, 1, 51, 86
4, 69695, Note_on_c, 1, 51, 0
4, 69696, Note_on_c, 1, 50, 86
4, 69735, Note_on_c, 1, 50, 0
4, 69792, Note_on_c, 1, 53, 86
4, 69815, Note_on_c, 1, 53, 0
4, 69816, Note_on_c, 1, 51, 86
4, 69839, Note_on_c, 1, 51, 0
4, 69840, Note_on_c, 1, 50, 86
4, 69863, Note_on_c, 1, 50, 0
4, 69864, Note_on_c, 1, 48, 86
4, 69887, Note_on_c, 1, 48, 0
4, 69888, Note_on_c, 1, 47, 86
4, 69927, Note_on_c, 1, 47, 0
4, 69984, Note_on_c, 1, 55, 86
4, 70007, Note_on_c, 1, 55, 0
4, 70008, Note_on_c, 1, 53, 86
4, 70031, Note_on_c, 1, 53, 0
4, 70032, Note_on_c, 1, 51, 86
4, 70055, Note_on_c, 1, 51, 0
4, 70056, Note_on_c, 1, 50, 86
4, 70079, Note_on_c, 1, 50, 0
4, 70080, Note_on_c, 1, 51, 86
4, 70119, Note_on_c, 1, 51, 0
4, 70176, Note_on_c, 1, 57, 86
4, 70199, Note_on_c, 1, 57, 0
4, 70200, Note_on_c, 1, 55, 86
4, 70223, Note_on_c, 1, 55, 0
4, 70224, Note_on_c, 1, 53, 86
4, 70247, Note_on_c, 1, 53, 0
4, 70248, Note_on_c, 1, 52, 86
4, 70271, Note_on_c, 1, 52, 0
4, 70272, Note_on_c, 1, 53, 86
4, 70311, Note_on_c, 1, 53, 0
4, 70368, Note_on_c, 1, 53, 86
4, 70391, Note_on_c, 1, 53, 0
4, 70392, Note_on_c, 1, 51, 86
4, 70415, Note_on_c, 1, 51, 0
4, 70416, Note_on_c, 1, 50, 86
4, 70439, Note_on_c, 1, 50, 0
4, 70440, Note_on_c, 1, 48, 86
4, 70463, Note_on_c, 1, 48, 0
4, 70464, Note_on_c, 1, 46, 86
4, 70503, Note_on_c, 1, 46, 0
4, 70560, Note_on_c, 1, 46, 86
4, 70583, Note_on_c, 1, 46, 0
4, 70584, Note_on_c, 1, 44, 86
4, 70607, Note_on_c, 1, 44, 0
4, 70608, Note_on_c, 1, 43, 86
4, 70631, Note_on_c, 1, 43, 0
4, 70632, Note_on_c, 1, 41, 86
4, 70655, Note_on_c, 1, 41, 0
4, 70656, Note_on_c, 1, 39, 86
4, 70695, Note_on_c, 1, 39, 0
4, 70944, Note_on_c, 1, 55, 75
4, 70944, Note_on_c, 1, 51, 75
4, 70983, Note_on_c, 1, 55, 0
4, 70983, Note_on_c, 1, 51, 0
4, 71040, Note_on_c, 1, 56, 91
4, 71040, Note_on_c, 1, 53, 91
4, 71136, Note_on_c, 1, 56, 0
4, 71136, Note_on_c, 1, 53, 0
4, 71136, Note_on_c, 1, 55, 76
4, 71136, Note_on_c, 1, 51, 76
4, 71225, Note_on_c, 1, 55, 0
4, 71225, Note_on_c, 1, 51, 0
4, 71232, Note_on_c, 1, 58, 77
4, 71232, Note_on_c, 1, 55, 77
4, 71328, Note_on_c, 1, 58, 0
4, 71328, Note_on_c, 1, 55, 0
4, 71328, Note_on_c, 1, 56, 78
4, 71328, Note_on_c, 1, 53, 78
4, 71417, Note_on_c, 1, 56, 0
4, 71417, Note_on_c, 1, 53, 0
4, 71424, Note_on_c, 1, 60, 96
4, 71424, Note_on_c, 1, 56, 96
4, 71568, Note_on_c, 1, 60, 0
4, 71568, Note_on_c, 1, 56, 0
4, 71568, Note_on_c, 1, 58, 78
4, 71568, Note_on_c, 1, 55, 78
4, 71613, Note_on_c, 1, 58, 0
4, 71613, Note_on_c, 1, 55, 0
4, 71616, Note_on_c, 1, 58, 77
4, 71616, Note_on_c, 1, 55, 77
4, 71655, Note_on_c, 1, 58, 0
4, 71655, Note_on_c, 1, 55, 0
4, 71712, Note_on_c, 1, 58, 76
4, 71712, Note_on_c, 1, 55, 76
4, 71751, Note_on_c, 1, 58, 0
4, 71751, Note_on_c, 1, 55, 0
4, 71808, Note_on_c, 1, 61, 91
4, 71808, Note_on_c, 1, 58, 91
4, 71952, Note_on_c, 1, 61, 0
4, 71952, Note_on_c, 1, 58, 0
4, 71952, Note_on_c, 1, 60, 76
4, 71952, Note_on_c, 1, 56, 76
4, 71997, Note_on_c, 1, 60, 0
4, 71997, Note_on_c, 1, 56, 0
4, 72000, Note_on_c, 1, 60, 76
4, 72000, Note_on_c, 1, 56, 76
4, 72039, Note_on_c, 1, 60, 0
4, 72039, Note_on_c, 1, 56, 0
4, 72096, Note_on_c, 1, 60, 77
4, 72096, Note_on_c, 1, 56, 77
4, 72135, Note_on_c, 1, 60, 0
4, 72135, Note_on_c, 1, 56, 0
4, 72192, Note_on_c, 1, 63, 93
4, 72192, Note_on_c, 1, 60, 93
4, 72336, Note_on_c, 1, 63, 0
4, 72336, Note_on_c, 1, 60, 0
4, 72336, Note_on_c, 1, 62, 78
4, 72336, Note_on_c, 1, 59, 78
4, 72381, Note_on_c, 1, 62, 0
4, 72381, Note_on_c, 1, 59, 0
4, 72384, Note_on_c, 1, 62, 79
4, 72384, Note_on_c, 1, 59, 79
4, 72423, Note_on_c, 1, 62, 0
4, 72423, Note_on_c, 1, 59, 0
4, 72480, Note_on_c, 1, 55, 80
4, 72503, Note_on_c, 1, 55, 0
4, 72504, Note_on_c, 1, 53, 80
4, 72527, Note_on_c, 1, 53, 0
4, 72528, Note_on_c, 1, 51, 80
4, 72551, Note_on_c, 1, 51, 0
4, 72552, Note_on_c, 1, 50, 80
4, 72575, Note_on_c, 1, 50, 0
4, 72576, Note_on_c, 1, 48, 80
4, 72615, Note_on_c, 1, 48, 0
4, 72672, Note_on_c, 1, 51, 80
4, 72695, Note_on_c, 1, 51, 0
4, 72696, Note_on_c, 1, 50, 80
4, 72719, Note_on_c, 1, 50, 0
4, 72720, Note_on_c, 1, 48, 80
4, 72743, Note_on_c, 1, 48, 0
4, 72744, Note_on_c, 1, 46, 80
4, 72767, Note_on_c, 1, 46, 0
4, 72768, Note_on_c, 1, 44, 80
4, 72807, Note_on_c, 1, 44, 0
4, 72864, Note_on_c, 1, 48, 80
4, 72887, Note_on_c, 1, 48, 0
4, 72888, Note_on_c, 1, 46, 80
4, 72911, Note_on_c, 1, 46, 0
4, 72912, Note_on_c, 1, 44, 80
4, 72935, Note_on_c, 1, 44, 0
4, 72936, Note_on_c, 1, 43, 80
4, 72959, Note_on_c, 1, 43, 0
4, 72960, Note_on_c, 1, 42, 80
4, 72999, Note_on_c, 1, 42, 0
4, 73056, Note_on_c, 1, 50, 80
4, 73079, Note_on_c, 1, 50, 0
4, 73080, Note_on_c, 1, 48, 80
4, 73103, Note_on_c, 1, 48, 0
4, 73104, Note_on_c, 1, 46, 80
4, 73127, Note_on_c, 1, 46, 0
4, 73128, Note_on_c, 1, 45, 80
4, 73151, Note_on_c, 1, 45, 0
4, 73152, Note_on_c, 1, 46, 80
4, 73191, Note_on_c, 1, 46, 0
4, 73248, Note_on_c, 1, 55, 80
4, 73271, Note_on_c, 1, 55, 0
4, 73272, Note_on_c, 1, 53, 80
4, 73295, Note_on_c, 1, 53, 0
4, 73296, Note_on_c, 1, 51, 80
4, 73319, Note_on_c, 1, 51, 0
4, 73320, Note_on_c, 1, 50, 80
4, 73343, Note_on_c, 1, 50, 0
4, 73344, Note_on_c, 1, 48, 80
4, 73383, Note_on_c, 1, 48, 0
4, 73440, Note_on_c, 1, 48, 80
4, 73463, Note_on_c, 1, 48, 0
4, 73464, Note_on_c, 1, 46, 80
4, 73487, Note_on_c, 1, 46, 0
4, 73488, Note_on_c, 1, 44, 80
4, 73511, Note_on_c, 1, 44, 0
4, 73512, Note_on_c, 1, 43, 80
4, 73535, Note_on_c, 1, 43, 0
4, 73536, Note_on_c, 1, 41, 80
4, 73575, Note_on_c, 1, 41, 0
4, 73632, Note_on_c, 1, 44, 83
4, 73655, Note_on_c, 1, 44, 0
4, 73656, Note_on_c, 1, 43, 83
4, 73679, Note_on_c, 1, 43, 0
4, 73680, Note_on_c, 1, 41, 84
4, 73703, Note_on_c, 1, 41, 0
4, 73704, Note_on_c, 1, 40, 85
4, 73727, Note_on_c, 1, 40, 0
4, 73728, Note_on_c, 1, 38, 86
4, 73905, Note_on_c, 1, 38, 0
4, 74208, Note_on_c, 1, 46, 75
4, 74297, Note_on_c, 1, 46, 0
4, 74400, Note_on_c, 1, 46, 75
4, 74489, Note_on_c, 1, 46, 0
4, 74544, Note_on_c, 1, 46, 75
4, 74564, Note_on_c, 1, 46, 0
4, 74592, Note_on_c, 1, 50, 75
4, 74612, Note_on_c, 1, 50, 0
4, 74640, Note_on_c, 1, 53, 75
4, 74660, Note_on_c, 1, 53, 0
4, 74688, Note_on_c, 1, 58, 75
4, 74777, Note_on_c, 1, 58, 0
4, 75312, Note_on_c, 1, 41, 75
4, 75332, Note_on_c, 1, 41, 0
4, 75360, Note_on_c, 1, 45, 75
4, 75380, Note_on_c, 1, 45, 0
4, 75408, Note_on_c, 1, 48, 75
4, 75428, Note_on_c, 1, 48, 0
4, 75456, Note_on_c, 1, 53, 75
4, 75545, Note_on_c, 1, 53, 0
4, 75696, Note_on_c, 1, 46, 75
4, 75741, Note_on_c, 1, 46, 0
4, 75744, Note_on_c, 1, 58, 75
4, 75833, Note_on_c, 1, 58, 0
4, 75888, Note_on_c, 1, 46, 75
4, 75933, Note_on_c, 1, 46, 0
4, 75936, Note_on_c, 1, 58, 75
4, 76025, Note_on_c, 1, 58, 0
4, 76080, Note_on_c, 1, 58, 75
4, 76100, Note_on_c, 1, 58, 0
4, 76128, Note_on_c, 1, 62, 75
4, 76148, Note_on_c, 1, 62, 0
4, 76176, Note_on_c, 1, 65, 75
4, 76196, Note_on_c, 1, 65, 0
4, 76224, Note_on_c, 1, 70, 75
4, 76313, Note_on_c, 1, 70, 0
4, 76416, Note_on_c, 1, 51, 75
4, 76416, Note_on_c, 1, 39, 75
4, 76593, Note_on_c, 1, 51, 0
4, 76593, Note_on_c, 1, 39, 0
4, 76608, Note_on_c, 1, 53, 75
4, 76608, Note_on_c, 1, 41, 75
4, 76785, Note_on_c, 1, 53, 0
4, 76785, Note_on_c, 1, 41, 0
4, 76800, Note_on_c, 1, 46, 75
4, 76845, Note_on_c, 1, 46, 0
4, 76848, Note_on_c, 1, 58, 75
4, 76893, Note_on_c, 1, 58, 0
4, 76896, Note_on_c, 1, 46, 75
4, 76941, Note_on_c, 1, 46, 0
4, 76944, Note_on_c, 1, 58, 75
4, 76989, Note_on_c, 1, 58, 0
4, 76992, Note_on_c, 1, 46, 75
4, 77037, Note_on_c, 1, 46, 0
4, 77040, Note_on_c, 1, 58, 75
4, 77085, Note_on_c, 1, 58, 0
4, 77088, Note_on_c, 1, 46, 75
4, 77133, Note_on_c, 1, 46, 0
4, 77136, Note_on_c, 1, 58, 75
4, 77181, Note_on_c, 1, 58, 0
4, 77184, Note_on_c, 1, 46, 75
4, 77229, Note_on_c, 1, 46, 0
4, 77232, Note_on_c, 1, 58, 75
4, 77277, Note_on_c, 1, 58, 0
4, 77280, Note_on_c, 1, 46, 75
4, 77325, Note_on_c, 1, 46, 0
4, 77328, Note_on_c, 1, 58, 75
4, 77373, Note_on_c, 1, 58, 0
4, 77376, Note_on_c, 1, 46, 75
4, 77421, Note_on_c, 1, 46, 0
4, 77424, Note_on_c, 1, 58, 75
4, 77469, Note_on_c, 1, 58, 0
4, 77472, Note_on_c, 1, 46, 75
4, 77517, Note_on_c, 1, 46, 0
4, 77520, Note_on_c, 1, 58, 75
4, 77565, Note_on_c, 1, 58, 0
4, 77568, Note_on_c, 1, 46, 75
4, 77613, Note_on_c, 1, 46, 0
4, 77616, Note_on_c, 1, 58, 75
4, 77661, Note_on_c, 1, 58, 0
4, 77664, Note_on_c, 1, 46, 75
4, 77709, Note_on_c, 1, 46, 0
4, 77712, Note_on_c, 1, 58, 75
4, 77757, Note_on_c, 1, 58, 0
4, 77760, Note_on_c, 1, 46, 75
4, 77805, Note_on_c, 1, 46, 0
4, 77808, Note_on_c, 1, 58, 75
4, 77853, Note_on_c, 1, 58, 0
4, 77856, Note_on_c, 1, 46, 75
4, 77901, Note_on_c, 1, 46, 0
4, 77904, Note_on_c, 1, 58, 75
4, 77949, Note_on_c, 1, 58, 0
4, 77952, Note_on_c, 1, 46, 75
4, 77997, Note_on_c, 1, 46, 0
4, 78000, Note_on_c, 1, 58, 75
4, 78045, Note_on_c, 1, 58, 0
4, 78048, Note_on_c, 1, 46, 75
4, 78093, Note_on_c, 1, 46, 0
4, 78096, Note_on_c, 1, 58, 75
4, 78141, Note_on_c, 1, 58, 0
4, 78144, Note_on_c, 1, 46, 75
4, 78189, Note_on_c, 1, 46, 0
4, 78192, Note_on_c, 1, 58, 75
4, 78237, Note_on_c, 1, 58, 0
4, 78240, Note_on_c, 1, 46, 75
4, 78285, Note_on_c, 1, 46, 0
4, 78288, Note_on_c, 1, 58, 75
4, 78333, Note_on_c, 1, 58, 0
4, 78336, Note_on_c, 1, 46, 75
4, 78381, Note_on_c, 1, 46, 0
4, 78384, Note_on_c, 1, 58, 75
4, 78429, Note_on_c, 1, 58, 0
4, 78432, Note_on_c, 1, 46, 75
4, 78477, Note_on_c, 1, 46, 0
4, 78480, Note_on_c, 1, 58, 75
4, 78525, Note_on_c, 1, 58, 0
4, 78528, Note_on_c, 1, 46, 75
4, 78573, Note_on_c, 1, 46, 0
4, 78576, Note_on_c, 1, 58, 75
4, 78621, Note_on_c, 1, 58, 0
4, 78624, Note_on_c, 1, 46, 75
4, 78669, Note_on_c, 1, 46, 0
4, 78672, Note_on_c, 1, 58, 75
4, 78717, Note_on_c, 1, 58, 0
4, 78720, Note_on_c, 1, 46, 75
4, 78765, Note_on_c, 1, 46, 0
4, 78768, Note_on_c, 1, 58, 75
4, 78813, Note_on_c, 1, 58, 0
4, 78816, Note_on_c, 1, 46, 76
4, 78861, Note_on_c, 1, 46, 0
4, 78864, Note_on_c, 1, 58, 76
4, 78909, Note_on_c, 1, 58, 0
4, 78912, Note_on_c, 1, 46, 77
4, 78957, Note_on_c, 1, 46, 0
4, 78960, Note_on_c, 1, 58, 78
4, 79005, Note_on_c, 1, 58, 0
4, 79008, Note_on_c, 1, 46, 78
4, 79053, Note_on_c, 1, 46, 0
4, 79056, Note_on_c, 1, 58, 79
4, 79101, Note_on_c, 1, 58, 0
4, 79104, Note_on_c, 1, 46, 80
4, 79149, Note_on_c, 1, 46, 0
4, 79152, Note_on_c, 1, 58, 80
4, 79197, Note_on_c, 1, 58, 0
4, 79200, Note_on_c, 1, 46, 80
4, 79245, Note_on_c, 1, 46, 0
4, 79248, Note_on_c, 1, 58, 80
4, 79293, Note_on_c, 1, 58, 0
4, 79296, Note_on_c, 1, 46, 80
4, 79341, Note_on_c, 1, 46, 0
4, 79344, Note_on_c, 1, 58, 80
4, 79389, Note_on_c, 1, 58, 0
4, 79392, Note_on_c, 1, 46, 80
4, 79437, Note_on_c, 1, 46, 0
4, 79440, Note_on_c, 1, 58, 80
4, 79485, Note_on_c, 1, 58, 0
4, 79488, Note_on_c, 1, 46, 80
4, 79533, Note_on_c, 1, 46, 0
4, 79536, Note_on_c, 1, 58, 80
4, 79581, Note_on_c, 1, 58, 0
4, 79584, Note_on_c, 1, 46, 80
4, 79629, Note_on_c, 1, 46, 0
4, 79632, Note_on_c, 1, 58, 80
4, 79677, Note_on_c, 1, 58, 0
4, 79680, Note_on_c, 1, 46, 80
4, 79725, Note_on_c, 1, 46, 0
4, 79728, Note_on_c, 1, 58, 80
4, 79773, Note_on_c, 1, 58, 0
4, 79776, Note_on_c, 1, 46, 80
4, 79821, Note_on_c, 1, 46, 0
4, 79824, Note_on_c, 1, 58, 80
4, 79869, Note_on_c, 1, 58, 0
4, 79872, Note_on_c, 1, 47, 80
4, 79917, Note_on_c, 1, 47, 0
4, 79920, Note_on_c, 1, 59, 80
4, 79965, Note_on_c, 1, 59, 0
4, 79968, Note_on_c, 1, 47, 80
4, 80013, Note_on_c, 1, 47, 0
4, 80016, Note_on_c, 1, 59, 80
4, 80061, Note_on_c, 1, 59, 0
4, 80064, Note_on_c, 1, 48, 80
4, 80109, Note_on_c, 1, 48, 0
4, 80112, Note_on_c, 1, 60, 80
4, 80157, Note_on_c, 1, 60, 0
4, 80160, Note_on_c, 1, 48, 81
4, 80205, Note_on_c, 1, 48, 0
4, 80208, Note_on_c, 1, 60, 81
4, 80253, Note_on_c, 1, 60, 0
4, 80256, Note_on_c, 1, 48, 81
4, 80301, Note_on_c, 1, 48, 0
4, 80304, Note_on_c, 1, 60, 81
4, 80349, Note_on_c, 1, 60, 0
4, 80352, Note_on_c, 1, 48, 81
4, 80397, Note_on_c, 1, 48, 0
4, 80400, Note_on_c, 1, 60, 82
4, 80445, Note_on_c, 1, 60, 0
4, 80448, Note_on_c, 1, 48, 82
4, 80493, Note_on_c, 1, 48, 0
4, 80496, Note_on_c, 1, 60, 82
4, 80541, Note_on_c, 1, 60, 0
4, 80544, Note_on_c, 1, 48, 82
4, 80589, Note_on_c, 1, 48, 0
4, 80592, Note_on_c, 1, 60, 83
4, 80637, Note_on_c, 1, 60, 0
4, 80640, Note_on_c, 1, 49, 83
4, 80685, Note_on_c, 1, 49, 0
4, 80688, Note_on_c, 1, 61, 83
4, 80733, Note_on_c, 1, 61, 0
4, 80736, Note_on_c, 1, 49, 83
4, 80781, Note_on_c, 1, 49, 0
4, 80784, Note_on_c, 1, 61, 83
4, 80829, Note_on_c, 1, 61, 0
4, 80832, Note_on_c, 1, 50, 84
4, 80877, Note_on_c, 1, 50, 0
4, 80880, Note_on_c, 1, 62, 84
4, 80925, Note_on_c, 1, 62, 0
4, 80928, Note_on_c, 1, 50, 84
4, 80973, Note_on_c, 1, 50, 0
4, 80976, Note_on_c, 1, 62, 84
4, 81021, Note_on_c, 1, 62, 0
4, 81024, Note_on_c, 1, 50, 84
4, 81069, Note_on_c, 1, 50, 0
4, 81072, Note_on_c, 1, 62, 85
4, 81117, Note_on_c, 1, 62, 0
4, 81120, Note_on_c, 1, 50, 85
4, 81165, Note_on_c, 1, 50, 0
4, 81168, Note_on_c, 1, 62, 85
4, 81213, Note_on_c, 1, 62, 0
4, 81216, Note_on_c, 1, 50, 85
4, 81261, Note_on_c, 1, 50, 0
4, 81264, Note_on_c, 1, 62, 86
4, 81309, Note_on_c, 1, 62, 0
4, 81312, Note_on_c, 1, 62, 86
4, 81335, Note_on_c, 1, 62, 0
4, 81336, Note_on_c, 1, 60, 86
4, 81359, Note_on_c, 1, 60, 0
4, 81360, Note_on_c, 1, 58, 86
4, 81383, Note_on_c, 1, 58, 0
4, 81384, Note_on_c, 1, 57, 86
4, 81407, Note_on_c, 1, 57, 0
4, 81408, Note_on_c, 1, 55, 86
4, 81447, Note_on_c, 1, 55, 0
4, 81504, Note_on_c, 1, 58, 86
4, 81527, Note_on_c, 1, 58, 0
4, 81528, Note_on_c, 1, 57, 86
4, 81551, Note_on_c, 1, 57, 0
4, 81552, Note_on_c, 1, 55, 86
4, 81575, Note_on_c, 1, 55, 0
4, 81576, Note_on_c, 1, 53, 86
4, 81599, Note_on_c, 1, 53, 0
4, 81600, Note_on_c, 1, 51, 86
4, 81639, Note_on_c, 1, 51, 0
4, 81696, Note_on_c, 1, 55, 86
4, 81719, Note_on_c, 1, 55, 0
4, 81720, Note_on_c, 1, 53, 86
4, 81743, Note_on_c, 1, 53, 0
4, 81744, Note_on_c, 1, 51, 86
4, 81767, Note_on_c, 1, 51, 0
4, 81768, Note_on_c, 1, 50, 86
4, 81791, Note_on_c, 1, 50, 0
4, 81792, Note_on_c, 1, 49, 86
4, 81831, Note_on_c, 1, 49, 0
4, 81888, Note_on_c, 1, 57, 86
4, 81911, Note_on_c, 1, 57, 0
4, 81912, Note_on_c, 1, 55, 86
4, 81935, Note_on_c, 1, 55, 0
4, 81936, Note_on_c, 1, 53, 86
4, 81959, Note_on_c, 1, 53, 0
4, 81960, Note_on_c, 1, 52, 86
4, 81983, Note_on_c, 1, 52, 0
4, 81984, Note_on_c, 1, 53, 86
4, 82023, Note_on_c, 1, 53, 0
4, 82080, Note_on_c, 1, 62, 86
4, 82103, Note_on_c, 1, 62, 0
4, 82104, Note_on_c, 1, 60, 86
4, 82127, Note_on_c, 1, 60, 0
4, 82128, Note_on_c, 1, 58, 86
4, 82151, Note_on_c, 1, 58, 0
4, 82152, Note_on_c, 1, 57, 86
4, 82175, Note_on_c, 1, 57, 0
4, 82176, Note_on_c, 1, 58, 86
4, 82215, Note_on_c, 1, 58, 0
4, 82272, Note_on_c, 1, 55, 86
4, 82295, Note_on_c, 1, 55, 0
4, 82296, Note_on_c, 1, 53, 86
4, 82319, Note_on_c, 1, 53, 0
4, 82320, Note_on_c, 1, 51, 86
4, 82343, Note_on_c, 1, 51, 0
4, 82344, Note_on_c, 1, 50, 86
4, 82367, Note_on_c, 1, 50, 0
4, 82368, Note_on_c, 1, 48, 86
4, 82407, Note_on_c, 1, 48, 0
4, 82464, Note_on_c, 1, 50, 86
4, 82487, Note_on_c, 1, 50, 0
4, 82488, Note_on_c, 1, 48, 86
4, 82511, Note_on_c, 1, 48, 0
4, 82512, Note_on_c, 1, 46, 86
4, 82535, Note_on_c, 1, 46, 0
4, 82536, Note_on_c, 1, 45, 86
4, 82559, Note_on_c, 1, 45, 0
4, 82560, Note_on_c, 1, 43, 86
4, 82737, Note_on_c, 1, 43, 0
4, 83328, Note_on_c, 1, 51, 80
4, 83358, Note_on_c, 1, 51, 0
4, 83360, Note_on_c, 1, 55, 80
4, 83390, Note_on_c, 1, 55, 0
4, 83392, Note_on_c, 1, 53, 80
4, 83422, Note_on_c, 1, 53, 0
4, 83424, Note_on_c, 1, 51, 81
4, 83454, Note_on_c, 1, 51, 0
4, 83456, Note_on_c, 1, 53, 81
4, 83486, Note_on_c, 1, 53, 0
4, 83488, Note_on_c, 1, 55, 82
4, 83518, Note_on_c, 1, 55, 0
4, 83520, Note_on_c, 1, 48, 82
4, 83550, Note_on_c, 1, 48, 0
4, 83552, Note_on_c, 1, 51, 83
4, 83582, Note_on_c, 1, 51, 0
4, 83584, Note_on_c, 1, 50, 83
4, 83614, Note_on_c, 1, 50, 0
4, 83616, Note_on_c, 1, 48, 84
4, 83646, Note_on_c, 1, 48, 0
4, 83648, Note_on_c, 1, 50, 84
4, 83678, Note_on_c, 1, 50, 0
4, 83680, Note_on_c, 1, 51, 85
4, 83710, Note_on_c, 1, 51, 0
4, 83712, Note_on_c, 1, 65, 96
4, 83712, Note_on_c, 1, 53, 96
4, 83751, Note_on_c, 1, 65, 0
4, 83751, Note_on_c, 1, 53, 0
4, 83808, Note_on_c, 1, 63, 96
4, 83808, Note_on_c, 1, 51, 96
4, 83847, Note_on_c, 1, 63, 0
4, 83847, Note_on_c, 1, 51, 0
4, 83904, Note_on_c, 1, 60, 96
4, 83904, Note_on_c, 1, 48, 96
4, 83943, Note_on_c, 1, 60, 0
4, 83943, Note_on_c, 1, 48, 0
4, 84000, Note_on_c, 1, 57, 96
4, 84000, Note_on_c, 1, 45, 96
4, 84039, Note_on_c, 1, 57, 0
4, 84039, Note_on_c, 1, 45, 0
4, 84096, Note_on_c, 1, 53, 96
4, 84096, Note_on_c, 1, 41, 96
4, 84384, Note_on_c, 1, 53, 0
4, 84384, Note_on_c, 1, 41, 0
4, 84480, Note_on_c, 1, 67, 96
4, 84480, Note_on_c, 1, 55, 96
4, 84519, Note_on_c, 1, 67, 0
4, 84519, Note_on_c, 1, 55, 0
4, 84576, Note_on_c, 1, 65, 96
4, 84576, Note_on_c, 1, 53, 96
4, 84615, Note_on_c, 1, 65, 0
4, 84615, Note_on_c, 1, 53, 0
4, 84672, Note_on_c, 1, 62, 96
4, 84672, Note_on_c, 1, 50, 96
4, 84711, Note_on_c, 1, 62, 0
4, 84711, Note_on_c, 1, 50, 0
4, 84768, Note_on_c, 1, 59, 96
4, 84768, Note_on_c, 1, 47, 96
4, 84807, Note_on_c, 1, 59, 0
4, 84807, Note_on_c, 1, 47, 0
4, 84864, Note_on_c, 1, 55, 96
4, 84864, Note_on_c, 1, 43, 96
4, 85152, Note_on_c, 1, 55, 0
4, 85152, Note_on_c, 1, 43, 0
4, 85248, Note_on_c, 1, 63, 96
4, 85248, Note_on_c, 1, 51, 96
4, 85287, Note_on_c, 1, 63, 0
4, 85287, Note_on_c, 1, 51, 0
4, 85344, Note_on_c, 1, 60, 96
4, 85344, Note_on_c, 1, 48, 96
4, 85383, Note_on_c, 1, 60, 0
4, 85383, Note_on_c, 1, 48, 0
4, 85440, Note_on_c, 1, 55, 96
4, 85440, Note_on_c, 1, 43, 96
4, 85479, Note_on_c, 1, 55, 0
4, 85479, Note_on_c, 1, 43, 0
4, 85536, Note_on_c, 1, 60, 96
4, 85536, Note_on_c, 1, 48, 96
4, 85575, Note_on_c, 1, 60, 0
4, 85575, Note_on_c, 1, 48, 0
4, 85632, Note_on_c, 1, 58, 96
4, 85632, Note_on_c, 1, 46, 96
4, 85920, Note_on_c, 1, 58, 0
4, 85920, Note_on_c, 1, 46, 0
4, 86016, Note_on_c, 1, 53, 96
4, 86016, Note_on_c, 1, 41, 96
4, 86055, Note_on_c, 1, 53, 0
4, 86055, Note_on_c, 1, 41, 0
4, 86112, Note_on_c, 1, 51, 96
4, 86112, Note_on_c, 1, 39, 96
4, 86151, Note_on_c, 1, 51, 0
4, 86151, Note_on_c, 1, 39, 0
4, 86208, Note_on_c, 1, 48, 96
4, 86208, Note_on_c, 1, 36, 96
4, 86247, Note_on_c, 1, 48, 0
4, 86247, Note_on_c, 1, 36, 0
4, 86304, Note_on_c, 1, 46, 96
4, 86304, Note_on_c, 1, 34, 96
4, 86343, Note_on_c, 1, 46, 0
4, 86343, Note_on_c, 1, 34, 0
4, 86400, Note_on_c, 1, 45, 80
4, 86400, Note_on_c, 1, 33, 80
4, 86665, Note_on_c, 1, 45, 0
4, 86665, Note_on_c, 1, 33, 0
4, 86784, Note_on_c, 1, 58, 64
4, 86829, Note_on_c, 1, 58, 0
4, 86832, Note_on_c, 1, 65, 64
4, 86877, Note_on_c, 1, 65, 0
4, 86880, Note_on_c, 1, 62, 64
4, 86925, Note_on_c, 1, 62, 0
4, 86928, Note_on_c, 1, 65, 64
4, 86973, Note_on_c, 1, 65, 0
4, 86976, Note_on_c, 1, 58, 64
4, 87021, Note_on_c, 1, 58, 0
4, 87024, Note_on_c, 1, 65, 64
4, 87069, Note_on_c, 1, 65, 0
4, 87072, Note_on_c, 1, 62, 64
4, 87117, Note_on_c, 1, 62, 0
4, 87120, Note_on_c, 1, 65, 64
4, 87165, Note_on_c, 1, 65, 0
4, 87168, Note_on_c, 1, 58, 64
4, 87213, Note_on_c, 1, 58, 0
4, 87216, Note_on_c, 1, 65, 64
4, 87261, Note_on_c, 1, 65, 0
4, 87264, Note_on_c, 1, 62, 64
4, 87309, Note_on_c, 1, 62, 0
4, 87312, Note_on_c, 1, 65, 64
4, 87357, Note_on_c, 1, 65, 0
4, 87360, Note_on_c, 1, 58, 64
4, 87405, Note_on_c, 1, 58, 0
4, 87408, Note_on_c, 1, 65, 64
4, 87453, Note_on_c, 1, 65, 0
4, 87456, Note_on_c, 1, 62, 64
4, 87501, Note_on_c, 1, 62, 0
4, 87504, Note_on_c, 1, 65, 64
4, 87549, Note_on_c, 1, 65, 0
4, 87552, Note_on_c, 1, 60, 64
4, 87597, Note_on_c, 1, 60, 0
4, 87600, Note_on_c, 1, 65, 64
4, 87645, Note_on_c, 1, 65, 0
4, 87648, Note_on_c, 1, 63, 64
4, 87693, Note_on_c, 1, 63, 0
4, 87696, Note_on_c, 1, 65, 64
4, 87741, Note_on_c, 1, 65, 0
4, 87744, Note_on_c, 1, 60, 64
4, 87789, Note_on_c, 1, 60, 0
4, 87792, Note_on_c, 1, 65, 64
4, 87837, Note_on_c, 1, 65, 0
4, 87840, Note_on_c, 1, 63, 64
4, 87885, Note_on_c, 1, 63, 0
4, 87888, Note_on_c, 1, 65, 64
4, 87933, Note_on_c, 1, 65, 0
4, 87936, Note_on_c, 1, 58, 64
4, 88025, Note_on_c, 1, 58, 0
4, 88320, Note_on_c, 1, 58, 64
4, 88365, Note_on_c, 1, 58, 0
4, 88368, Note_on_c, 1, 63, 64
4, 88413, Note_on_c, 1, 63, 0
4, 88416, Note_on_c, 1, 67, 64
4, 88461, Note_on_c, 1, 67, 0
4, 88464, Note_on_c, 1, 63, 64
4, 88509, Note_on_c, 1, 63, 0
4, 88512, Note_on_c, 1, 58, 64
4, 88557, Note_on_c, 1, 58, 0
4, 88560, Note_on_c, 1, 63, 64
4, 88605, Note_on_c, 1, 63, 0
4, 88608, Note_on_c, 1, 67, 64
4, 88653, Note_on_c, 1, 67, 0
4, 88656, Note_on_c, 1, 63, 64
4, 88701, Note_on_c, 1, 63, 0
4, 88704, Note_on_c, 1, 62, 64
4, 88749, Note_on_c, 1, 62, 0
4, 88752, Note_on_c, 1, 65, 64
4, 88797, Note_on_c, 1, 65, 0
4, 88800, Note_on_c, 1, 62, 65
4, 88845, Note_on_c, 1, 62, 0
4, 88848, Note_on_c, 1, 58, 66
4, 88893, Note_on_c, 1, 58, 0
4, 88896, Note_on_c, 1, 53, 67
4, 88941, Note_on_c, 1, 53, 0
4, 88944, Note_on_c, 1, 62, 67
4, 88989, Note_on_c, 1, 62, 0
4, 88992, Note_on_c, 1, 53, 68
4, 89037, Note_on_c, 1, 53, 0
4, 89040, Note_on_c, 1, 63, 69
4, 89085, Note_on_c, 1, 63, 0
4, 89088, Note_on_c, 1, 62, 70
4, 89265, Note_on_c, 1, 62, 0
4, 89472, Note_on_c, 1, 50, 70
4, 89472, Note_on_c, 1, 41, 70
4, 89561, Note_on_c, 1, 50, 0
4, 89561, Note_on_c, 1, 41, 0
4, 89664, Note_on_c, 1, 51, 70
4, 89664, Note_on_c, 1, 41, 70
4, 89753, Note_on_c, 1, 51, 0
4, 89753, Note_on_c, 1, 41, 0
4, 89856, Note_on_c, 1, 34, 80
4, 89901, Note_on_c, 1, 34, 0
4, 89904, Note_on_c, 1, 46, 80
4, 89949, Note_on_c, 1, 46, 0
4, 89952, Note_on_c, 1, 34, 80
4, 89997, Note_on_c, 1, 34, 0
4, 90000, Note_on_c, 1, 46, 80
4, 90045, Note_on_c, 1, 46, 0
4, 90048, Note_on_c, 1, 34, 80
4, 90093, Note_on_c, 1, 34, 0
4, 90096, Note_on_c, 1, 46, 80
4, 90141, Note_on_c, 1, 46, 0
4, 90144, Note_on_c, 1, 34, 80
4, 90189, Note_on_c, 1, 34, 0
4, 90192, Note_on_c, 1, 46, 80
4, 90237, Note_on_c, 1, 46, 0
4, 90240, Note_on_c, 1, 34, 80
4, 90285, Note_on_c, 1, 34, 0
4, 90288, Note_on_c, 1, 46, 80
4, 90333, Note_on_c, 1, 46, 0
4, 90336, Note_on_c, 1, 34, 80
4, 90381, Note_on_c, 1, 34, 0
4, 90384, Note_on_c, 1, 46, 80
4, 90429, Note_on_c, 1, 46, 0
4, 90432, Note_on_c, 1, 34, 80
4, 90477, Note_on_c, 1, 34, 0
4, 90480, Note_on_c, 1, 46, 80
4, 90525, Note_on_c, 1, 46, 0
4, 90528, Note_on_c, 1, 34, 80
4, 90573, Note_on_c, 1, 34, 0
4, 90576, Note_on_c, 1, 46, 80
4, 90621, Note_on_c, 1, 46, 0
4, 90624, Note_on_c, 1, 34, 80
4, 90669, Note_on_c, 1, 34, 0
4, 90672, Note_on_c, 1, 46, 80
4, 90717, Note_on_c, 1, 46, 0
4, 90720, Note_on_c, 1, 34, 80
4, 90765, Note_on_c, 1, 34, 0
4, 90768, Note_on_c, 1, 46, 80
4, 90813, Note_on_c, 1, 46, 0
4, 90816, Note_on_c, 1, 34, 80
4, 90861, Note_on_c, 1, 34, 0
4, 90864, Note_on_c, 1, 46, 80
4, 90909, Note_on_c, 1, 46, 0
4, 90912, Note_on_c, 1, 34, 80
4, 90957, Note_on_c, 1, 34, 0
4, 90960, Note_on_c, 1, 46, 80
4, 91005, Note_on_c, 1, 46, 0
4, 91008, Note_on_c, 1, 34, 80
4, 91053, Note_on_c, 1, 34, 0
4, 91056, Note_on_c, 1, 46, 80
4, 91101, Note_on_c, 1, 46, 0
4, 91104, Note_on_c, 1, 34, 80
4, 91149, Note_on_c, 1, 34, 0
4, 91152, Note_on_c, 1, 46, 80
4, 91197, Note_on_c, 1, 46, 0
4, 91200, Note_on_c, 1, 34, 80
4, 91245, Note_on_c, 1, 34, 0
4, 91248, Note_on_c, 1, 46, 80
4, 91293, Note_on_c, 1, 46, 0
4, 91296, Note_on_c, 1, 34, 80
4, 91341, Note_on_c, 1, 34, 0
4, 91344, Note_on_c, 1, 46, 80
4, 91389, Note_on_c, 1, 46, 0
4, 91392, Note_on_c, 1, 34, 80
4, 91437, Note_on_c, 1, 34, 0
4, 91440, Note_on_c, 1, 46, 80
4, 91485, Note_on_c, 1, 46, 0
4, 91488, Note_on_c, 1, 34, 78
4, 91533, Note_on_c, 1, 34, 0
4, 91536, Note_on_c, 1, 46, 77
4, 91581, Note_on_c, 1, 46, 0
4, 91584, Note_on_c, 1, 34, 76
4, 91629, Note_on_c, 1, 34, 0
4, 91632, Note_on_c, 1, 46, 75
4, 91677, Note_on_c, 1, 46, 0
4, 91680, Note_on_c, 1, 34, 73
4, 91725, Note_on_c, 1, 34, 0
4, 91728, Note_on_c, 1, 46, 72
4, 91773, Note_on_c, 1, 46, 0
4, 91776, Note_on_c, 1, 34, 71
4, 91821, Note_on_c, 1, 34, 0
4, 91824, Note_on_c, 1, 46, 70
4, 91869, Note_on_c, 1, 46, 0
4, 91872, Note_on_c, 1, 34, 68
4, 91917, Note_on_c, 1, 34, 0
4, 91920, Note_on_c, 1, 46, 67
4, 91965, Note_on_c, 1, 46, 0
4, 91968, Note_on_c, 1, 34, 66
4, 92057, Note_on_c, 1, 34, 0
4, 92160, Note_on_c, 1, 63, 64
4, 92160, Note_on_c, 1, 53, 64
4, 92337, Note_on_c, 1, 63, 0
4, 92337, Note_on_c, 1, 53, 0
4, 92352, Note_on_c, 1, 62, 64
4, 92352, Note_on_c, 1, 58, 64
4, 92441, Note_on_c, 1, 62, 0
4, 92441, Note_on_c, 1, 58, 0
4, 92496, Note_on_c, 1, 58, 0
4, 92541, Note_on_c, 1, 58, 0
4, 92544, End_track
5, 0, Start_track
5, 0, Program_c, 1, 0
5, 0, Control_c, 1, 7, 127
5, 0, Control_c, 1, 10, 64
5, 92544, End_track
6, 0, Start_track
6, 0, Title_t, "Sonata I   Haydn  "
6, 0, End_track
0, 0, End_of_file
