0, 0, Header, 1, 6, 96
1, 0, Start_track
1, 0, Copyright_t, "Copyright  2000 <copyright holder>"
1, 0, Text_t, "Sonata I\015\012"
1, 0, Text_t, "Haydn\015\012"
1, 0, Sequencer_specific, 16, 68, 87, 77, 90, 86, 82, 83, 78, 32, 55, 46, 49, 46, 51, 46, 48
1, 0, Time_signature, 2, 2, 24, 8
1, 0, Tempo, 394736
1, 0, Key_signature, -3, "major"
1, 144, Tempo, 342857
1, 1536, Tempo, 800000
1, 1680, Tempo, 342857
1, 3072, Tempo, 800000
1, 3216, Tempo, 342857
1, 10272, Tempo, 375000
1, 10368, Tempo, 400000
1, 10560, Tempo, 1250000
1, 10656, Tempo, 342857
1, 14592, Tempo, 1333333
1, 14736, Tempo, 342857
1, 19536, Tempo, 342857
1, 20928, Tempo, 800000
1, 21072, Tempo, 342857
1, 22464, Tempo, 800000
1, 22608, Tempo, 342857
1, 29664, Tempo, 375000
1, 29760, Tempo, 400000
1, 29952, Tempo, 1250000
1, 30048, Tempo, 342857
1, 33984, Tempo, 1333333
1, 34128, Tempo, 342857
1, 51840, Tempo, 1333333
1, 51984, Tempo, 342857
1, 54720, Tempo, 923076
1, 54864, Tempo, 342857
1, 56640, Tempo, 666666
1, 56832, Tempo, 1000000
1, 57120, Tempo, 342857
1, 57408, Tempo, 1000000
1, 58032, Tempo, 923076
1, 58320, Tempo, 342857
1, 59712, Tempo, 800000
1, 59856, Tempo, 342857
1, 61248, Tempo, 800000
1, 61392, Tempo, 342857
1, 68640, Tempo, 375000
1, 68736, Tempo, 400000
1, 68928, Tempo, 2000000
1, 69024, Tempo, 342857
1, 73344, Tempo, 1333333
1, 73488, Tempo, 342857
1, 78528, End_track
2, 0, Start_track
2, 0, Program_c, 0, 0
2, 0, Control_c, 0, 7, 127
2, 0, Control_c, 0, 10, 64
2, 144, Note_on_c, 0, 67, 64
2, 189, Note_on_c, 0, 67, 0
2, 192, Note_on_c, 0, 67, 64
2, 237, Note_on_c, 0, 67, 0
2, 240, Note_on_c, 0, 67, 64
2, 285, Note_on_c, 0, 67, 0
2, 288, Note_on_c, 0, 67, 64
2, 333, Note_on_c, 0, 67, 0
2, 336, Note_on_c, 0, 67, 64
2, 381, Note_on_c, 0, 67, 0
2, 384, Note_on_c, 0, 67, 64
2, 480, Note_on_c, 0, 67, 0
2, 480, Note_on_c, 0, 70, 64
2, 525, Note_on_c, 0, 70, 0
2, 528, Note_on_c, 0, 63, 64
2, 573, Note_on_c, 0, 63, 0
2, 576, Note_on_c, 0, 62, 64
2, 621, Note_on_c, 0, 62, 0
2, 624, Note_on_c, 0, 65, 64
2, 669, Note_on_c, 0, 65, 0
2, 672, Note_on_c, 0, 68, 64
2, 717, Note_on_c, 0, 68, 0
2, 720, Note_on_c, 0, 62, 64
2, 765, Note_on_c, 0, 62, 0
2, 768, Note_on_c, 0, 63, 64
2, 813, Note_on_c, 0, 63, 0
2, 816, Note_on_c, 0, 67, 64
2, 861, Note_on_c, 0, 67, 0
2, 864, Note_on_c, 0, 58, 64
2, 909, Note_on_c, 0, 58, 0
2, 912, Note_on_c, 0, 58, 64
2, 957, Note_on_c, 0, 58, 0
2, 960, Note_on_c, 0, 56, 64
2, 1005, Note_on_c, 0, 56, 0
2, 1008, Note_on_c, 0, 62, 64
2, 1053, Note_on_c, 0, 62, 0
2, 1056, Note_on_c, 0, 65, 64
2, 1101, Note_on_c, 0, 65, 0
2, 1104, Note_on_c, 0, 62, 64
2, 1149, Note_on_c, 0, 62, 0
2, 1152, Note_on_c, 0, 63, 64
2, 1197, Note_on_c, 0, 63, 0
2, 1200, Note_on_c, 0, 67, 64
2, 1245, Note_on_c, 0, 67, 0
2, 1248, Note_on_c, 0, 58, 64
2, 1293, Note_on_c, 0, 58, 0
2, 1296, Note_on_c, 0, 58, 64
2, 1341, Note_on_c, 0, 58, 0
2, 1344, Note_on_c, 0, 56, 64
2, 1389, Note_on_c, 0, 56, 0
2, 1392, Note_on_c, 0, 62, 64
2, 1437, Note_on_c, 0, 62, 0
2, 1440, Note_on_c, 0, 65, 64
2, 1485, Note_on_c, 0, 65, 0
2, 1488, Note_on_c, 0, 62, 64
2, 1533, Note_on_c, 0, 62, 0
2, 1536, Note_on_c, 0, 63, 64
2, 1625, Note_on_c, 0, 63, 0
2, 1680, Note_on_c, 0, 68, 64
2, 1725, Note_on_c, 0, 68, 0
2, 1728, Note_on_c, 0, 68, 64
2, 1773, Note_on_c, 0, 68, 0
2, 1776, Note_on_c, 0, 68, 64
2, 1821, Note_on_c, 0, 68, 0
2, 1824, Note_on_c, 0, 68, 64
2, 1869, Note_on_c, 0, 68, 0
2, 1872, Note_on_c, 0, 68, 64
2, 1917, Note_on_c, 0, 68, 0
2, 1920, Note_on_c, 0, 68, 64
2, 2016, Note_on_c, 0, 68, 0
2, 2016, Note_on_c, 0, 72, 64
2, 2061, Note_on_c, 0, 72, 0
2, 2064, Note_on_c, 0, 65, 64
2, 2109, Note_on_c, 0, 65, 0
2, 2112, Note_on_c, 0, 64, 64
2, 2157, Note_on_c, 0, 64, 0
2, 2160, Note_on_c, 0, 67, 64
2, 2205, Note_on_c, 0, 67, 0
2, 2208, Note_on_c, 0, 70, 64
2, 2253, Note_on_c, 0, 70, 0
2, 2256, Note_on_c, 0, 64, 64
2, 2301, Note_on_c, 0, 64, 0
2, 2304, Note_on_c, 0, 65, 64
2, 2349, Note_on_c, 0, 65, 0
2, 2352, Note_on_c, 0, 68, 64
2, 2397, Note_on_c, 0, 68, 0
2, 2400, Note_on_c, 0, 60, 64
2, 2445, Note_on_c, 0, 60, 0
2, 2448, Note_on_c, 0, 60, 64
2, 2493, Note_on_c, 0, 60, 0
2, 2496, Note_on_c, 0, 58, 64
2, 2541, Note_on_c, 0, 58, 0
2, 2544, Note_on_c, 0, 64, 64
2, 2589, Note_on_c, 0, 64, 0
2, 2592, Note_on_c, 0, 67, 64
2, 2637, Note_on_c, 0, 67, 0
2, 2640, Note_on_c, 0, 64, 64
2, 2685, Note_on_c, 0, 64, 0
2, 2688, Note_on_c, 0, 65, 64
2, 2733, Note_on_c, 0, 65, 0
2, 2736, Note_on_c, 0, 68, 64
2, 2781, Note_on_c, 0, 68, 0
2, 2784, Note_on_c, 0, 60, 64
2, 2829, Note_on_c, 0, 60, 0
2, 2832, Note_on_c, 0, 60, 64
2, 2877, Note_on_c, 0, 60, 0
2, 2880, Note_on_c, 0, 58, 64
2, 2925, Note_on_c, 0, 58, 0
2, 2928, Note_on_c, 0, 64, 64
2, 2973, Note_on_c, 0, 64, 0
2, 2976, Note_on_c, 0, 67, 64
2, 3021, Note_on_c, 0, 67, 0
2, 3024, Note_on_c, 0, 64, 64
2, 3069, Note_on_c, 0, 64, 0
2, 3072, Note_on_c, 0, 65, 64
2, 3161, Note_on_c, 0, 65, 0
2, 3408, Note_on_c, 0, 84, 80
2, 3431, Note_on_c, 0, 84, 0
2, 3432, Note_on_c, 0, 82, 80
2, 3455, Note_on_c, 0, 82, 0
2, 3456, Note_on_c, 0, 80, 80
2, 3479, Note_on_c, 0, 80, 0
2, 3480, Note_on_c, 0, 79, 80
2, 3503, Note_on_c, 0, 79, 0
2, 3504, Note_on_c, 0, 77, 80
2, 3527, Note_on_c, 0, 77, 0
2, 3528, Note_on_c, 0, 75, 80
2, 3551, Note_on_c, 0, 75, 0
2, 3552, Note_on_c, 0, 74, 80
2, 3575, Note_on_c, 0, 74, 0
2, 3576, Note_on_c, 0, 75, 79
2, 3599, Note_on_c, 0, 75, 0
2, 3600, Note_on_c, 0, 77, 78
2, 3623, Note_on_c, 0, 77, 0
2, 3624, Note_on_c, 0, 74, 77
2, 3647, Note_on_c, 0, 74, 0
2, 3648, Note_on_c, 0, 75, 76
2, 3671, Note_on_c, 0, 75, 0
2, 3672, Note_on_c, 0, 79, 75
2, 3695, Note_on_c, 0, 79, 0
2, 3696, Note_on_c, 0, 77, 75
2, 3719, Note_on_c, 0, 77, 0
2, 3720, Note_on_c, 0, 75, 74
2, 3743, Note_on_c, 0, 75, 0
2, 3744, Note_on_c, 0, 74, 73
2, 3767, Note_on_c, 0, 74, 0
2, 3768, Note_on_c, 0, 72, 72
2, 3791, Note_on_c, 0, 72, 0
2, 3792, Note_on_c, 0, 70, 71
2, 3815, Note_on_c, 0, 70, 0
2, 3816, Note_on_c, 0, 75, 70
2, 3839, Note_on_c, 0, 75, 0
2, 3840, Note_on_c, 0, 74, 70
2, 3863, Note_on_c, 0, 74, 0
2, 3864, Note_on_c, 0, 75, 70
2, 3887, Note_on_c, 0, 75, 0
2, 3888, Note_on_c, 0, 77, 70
2, 3911, Note_on_c, 0, 77, 0
2, 3912, Note_on_c, 0, 79, 70
2, 3935, Note_on_c, 0, 79, 0
2, 3936, Note_on_c, 0, 80, 70
2, 3959, Note_on_c, 0, 80, 0
2, 3960, Note_on_c, 0, 77, 70
2, 3983, Note_on_c, 0, 77, 0
2, 3984, Note_on_c, 0, 75, 70
2, 4007, Note_on_c, 0, 75, 0
2, 4008, Note_on_c, 0, 74, 70
2, 4031, Note_on_c, 0, 74, 0
2, 4032, Note_on_c, 0, 75, 70
2, 4055, Note_on_c, 0, 75, 0
2, 4056, Note_on_c, 0, 79, 70
2, 4079, Note_on_c, 0, 79, 0
2, 4080, Note_on_c, 0, 77, 70
2, 4103, Note_on_c, 0, 77, 0
2, 4104, Note_on_c, 0, 75, 70
2, 4127, Note_on_c, 0, 75, 0
2, 4128, Note_on_c, 0, 74, 70
2, 4151, Note_on_c, 0, 74, 0
2, 4152, Note_on_c, 0, 72, 70
2, 4175, Note_on_c, 0, 72, 0
2, 4176, Note_on_c, 0, 70, 70
2, 4199, Note_on_c, 0, 70, 0
2, 4200, Note_on_c, 0, 75, 70
2, 4223, Note_on_c, 0, 75, 0
2, 4224, Note_on_c, 0, 74, 70
2, 4247, Note_on_c, 0, 74, 0
2, 4248, Note_on_c, 0, 75, 70
2, 4271, Note_on_c, 0, 75, 0
2, 4272, Note_on_c, 0, 77, 70
2, 4295, Note_on_c, 0, 77, 0
2, 4296, Note_on_c, 0, 79, 71
2, 4319, Note_on_c, 0, 79, 0
2, 4320, Note_on_c, 0, 80, 71
2, 4343, Note_on_c, 0, 80, 0
2, 4344, Note_on_c, 0, 77, 72
2, 4367, Note_on_c, 0, 77, 0
2, 4368, Note_on_c, 0, 75, 72
2, 4391, Note_on_c, 0, 75, 0
2, 4392, Note_on_c, 0, 74, 72
2, 4415, Note_on_c, 0, 74, 0
2, 4416, Note_on_c, 0, 75, 73
2, 4439, Note_on_c, 0, 75, 0
2, 4440, Note_on_c, 0, 77, 73
2, 4463, Note_on_c, 0, 77, 0
2, 4464, Note_on_c, 0, 79, 74
2, 4487, Note_on_c, 0, 79, 0
2, 4488, Note_on_c, 0, 77, 74
2, 4511, Note_on_c, 0, 77, 0
2, 4512, Note_on_c, 0, 75, 74
2, 4535, Note_on_c, 0, 75, 0
2, 4536, Note_on_c, 0, 74, 75
2, 4559, Note_on_c, 0, 74, 0
2, 4560, Note_on_c, 0, 72, 75
2, 4583, Note_on_c, 0, 72, 0
2, 4584, Note_on_c, 0, 70, 76
2, 4607, Note_on_c, 0, 70, 0
2, 4608, Note_on_c, 0, 72, 76
2, 4631, Note_on_c, 0, 72, 0
2, 4632, Note_on_c, 0, 75, 76
2, 4655, Note_on_c, 0, 75, 0
2, 4656, Note_on_c, 0, 77, 77
2, 4679, Note_on_c, 0, 77, 0
2, 4680, Note_on_c, 0, 75, 77
2, 4703, Note_on_c, 0, 75, 0
2, 4704, Note_on_c, 0, 74, 78
2, 4727, Note_on_c, 0, 74, 0
2, 4728, Note_on_c, 0, 72, 78
2, 4751, Note_on_c, 0, 72, 0
2, 4752, Note_on_c, 0, 70, 78
2, 4775, Note_on_c, 0, 70, 0
2, 4776, Note_on_c, 0, 68, 79
2, 4799, Note_on_c, 0, 68, 0
2, 4800, Note_on_c, 0, 67, 79
2, 4823, Note_on_c, 0, 67, 0
2, 4824, Note_on_c, 0, 70, 80
2, 4847, Note_on_c, 0, 70, 0
2, 4848, Note_on_c, 0, 67, 80
2, 4871, Note_on_c, 0, 67, 0
2, 4872, Note_on_c, 0, 70, 80
2, 4895, Note_on_c, 0, 70, 0
2, 4896, Note_on_c, 0, 65, 80
2, 4919, Note_on_c, 0, 65, 0
2, 4920, Note_on_c, 0, 68, 80
2, 4943, Note_on_c, 0, 68, 0
2, 4944, Note_on_c, 0, 65, 80
2, 4967, Note_on_c, 0, 65, 0
2, 4968, Note_on_c, 0, 68, 80
2, 4991, Note_on_c, 0, 68, 0
2, 4992, Note_on_c, 0, 63, 80
2, 5015, Note_on_c, 0, 63, 0
2, 5016, Note_on_c, 0, 67, 80
2, 5039, Note_on_c, 0, 67, 0
2, 5040, Note_on_c, 0, 63, 80
2, 5063, Note_on_c, 0, 63, 0
2, 5064, Note_on_c, 0, 67, 80
2, 5087, Note_on_c, 0, 67, 0
2, 5088, Note_on_c, 0, 62, 80
2, 5111, Note_on_c, 0, 62, 0
2, 5112, Note_on_c, 0, 65, 80
2, 5135, Note_on_c, 0, 65, 0
2, 5136, Note_on_c, 0, 62, 80
2, 5159, Note_on_c, 0, 62, 0
2, 5160, Note_on_c, 0, 65, 80
2, 5183, Note_on_c, 0, 65, 0
2, 5184, Note_on_c, 0, 63, 80
2, 5207, Note_on_c, 0, 63, 0
2, 5208, Note_on_c, 0, 58, 80
2, 5231, Note_on_c, 0, 58, 0
2, 5232, Note_on_c, 0, 63, 80
2, 5255, Note_on_c, 0, 63, 0
2, 5256, Note_on_c, 0, 58, 80
2, 5279, Note_on_c, 0, 58, 0
2, 5280, Note_on_c, 0, 63, 80
2, 5303, Note_on_c, 0, 63, 0
2, 5304, Note_on_c, 0, 58, 80
2, 5327, Note_on_c, 0, 58, 0
2, 5328, Note_on_c, 0, 63, 80
2, 5351, Note_on_c, 0, 63, 0
2, 5352, Note_on_c, 0, 58, 80
2, 5375, Note_on_c, 0, 58, 0
2, 5376, Note_on_c, 0, 63, 80
2, 5465, Note_on_c, 0, 63, 0
2, 5520, Note_on_c, 0, 79, 64
2, 5565, Note_on_c, 0, 79, 0
2, 5568, Note_on_c, 0, 80, 64
2, 5613, Note_on_c, 0, 80, 0
2, 5616, Note_on_c, 0, 81, 64
2, 5661, Note_on_c, 0, 81, 0
2, 5664, Note_on_c, 0, 82, 64
2, 5709, Note_on_c, 0, 82, 0
2, 5712, Note_on_c, 0, 83, 64
2, 5757, Note_on_c, 0, 83, 0
2, 5760, Note_on_c, 0, 84, 64
2, 5808, Note_on_c, 0, 84, 0
2, 5808, Note_on_c, 0, 79, 64
2, 5853, Note_on_c, 0, 79, 0
2, 5904, Note_on_c, 0, 79, 64
2, 5949, Note_on_c, 0, 79, 0
2, 5952, Note_on_c, 0, 79, 64
2, 5997, Note_on_c, 0, 79, 0
2, 6000, Note_on_c, 0, 77, 64
2, 6045, Note_on_c, 0, 77, 0
2, 6048, Note_on_c, 0, 80, 64
2, 6093, Note_on_c, 0, 80, 0
2, 6096, Note_on_c, 0, 77, 64
2, 6141, Note_on_c, 0, 77, 0
2, 6144, Note_on_c, 0, 77, 64
2, 6192, Note_on_c, 0, 77, 0
2, 6192, Note_on_c, 0, 75, 64
2, 6237, Note_on_c, 0, 75, 0
2, 6288, Note_on_c, 0, 79, 64
2, 6333, Note_on_c, 0, 79, 0
2, 6336, Note_on_c, 0, 80, 66
2, 6381, Note_on_c, 0, 80, 0
2, 6384, Note_on_c, 0, 81, 69
2, 6429, Note_on_c, 0, 81, 0
2, 6432, Note_on_c, 0, 82, 72
2, 6477, Note_on_c, 0, 82, 0
2, 6480, Note_on_c, 0, 83, 74
2, 6525, Note_on_c, 0, 83, 0
2, 6528, Note_on_c, 0, 84, 77
2, 6573, Note_on_c, 0, 84, 0
2, 6576, Note_on_c, 0, 84, 80
2, 6588, Note_on_c, 0, 84, 0
2, 6588, Note_on_c, 0, 83, 80
2, 6600, Note_on_c, 0, 83, 0
2, 6600, Note_on_c, 0, 84, 80
2, 6612, Note_on_c, 0, 84, 0
2, 6612, Note_on_c, 0, 86, 80
2, 6624, Note_on_c, 0, 86, 0
2, 6624, Note_on_c, 0, 87, 80
2, 6743, Note_on_c, 0, 87, 0
2, 6744, Note_on_c, 0, 86, 80
2, 6767, Note_on_c, 0, 86, 0
2, 6768, Note_on_c, 0, 84, 80
2, 6791, Note_on_c, 0, 84, 0
2, 6792, Note_on_c, 0, 82, 80
2, 6815, Note_on_c, 0, 82, 0
2, 6816, Note_on_c, 0, 81, 80
2, 6839, Note_on_c, 0, 81, 0
2, 6840, Note_on_c, 0, 79, 80
2, 6863, Note_on_c, 0, 79, 0
2, 6864, Note_on_c, 0, 77, 80
2, 6887, Note_on_c, 0, 77, 0
2, 6888, Note_on_c, 0, 75, 80
2, 6911, Note_on_c, 0, 75, 0
2, 6912, Note_on_c, 0, 74, 80
2, 6932, Note_on_c, 0, 74, 0
2, 6960, Note_on_c, 0, 89, 96
2, 7056, Note_on_c, 0, 89, 0
2, 7056, Note_on_c, 0, 81, 80
2, 7149, Note_on_c, 0, 81, 0
2, 7152, Note_on_c, 0, 82, 80
2, 7241, Note_on_c, 0, 82, 0
2, 7248, Note_on_c, 0, 80, 80
2, 7341, Note_on_c, 0, 80, 0
2, 7344, Note_on_c, 0, 79, 80
2, 7433, Note_on_c, 0, 79, 0
2, 7440, Note_on_c, 0, 77, 80
2, 7533, Note_on_c, 0, 77, 0
2, 7536, Note_on_c, 0, 76, 80
2, 7625, Note_on_c, 0, 76, 0
2, 7632, Note_on_c, 0, 75, 80
2, 7725, Note_on_c, 0, 75, 0
2, 7728, Note_on_c, 0, 74, 78
2, 7817, Note_on_c, 0, 74, 0
2, 7824, Note_on_c, 0, 73, 76
2, 7917, Note_on_c, 0, 73, 0
2, 7920, Note_on_c, 0, 72, 73
2, 8009, Note_on_c, 0, 72, 0
2, 8016, Note_on_c, 0, 70, 71
2, 8109, Note_on_c, 0, 70, 0
2, 8112, Note_on_c, 0, 69, 68
2, 8201, Note_on_c, 0, 69, 0
2, 8208, Note_on_c, 0, 70, 66
2, 8253, Note_on_c, 0, 70, 0
2, 8256, Note_on_c, 0, 69, 65
2, 8301, Note_on_c, 0, 69, 0
2, 8304, Note_on_c, 0, 77, 64
2, 8349, Note_on_c, 0, 77, 0
2, 8352, Note_on_c, 0, 77, 64
2, 8397, Note_on_c, 0, 77, 0
2, 8400, Note_on_c, 0, 77, 80
2, 8445, Note_on_c, 0, 77, 0
2, 8448, Note_on_c, 0, 77, 64
2, 8493, Note_on_c, 0, 77, 0
2, 8496, Note_on_c, 0, 77, 64
2, 8541, Note_on_c, 0, 77, 0
2, 8544, Note_on_c, 0, 77, 64
2, 8589, Note_on_c, 0, 77, 0
2, 8592, Note_on_c, 0, 77, 80
2, 8592, Note_on_c, 0, 76, 80
2, 8637, Note_on_c, 0, 77, 0
2, 8637, Note_on_c, 0, 76, 0
2, 8640, Note_on_c, 0, 77, 64
2, 8640, Note_on_c, 0, 76, 64
2, 8685, Note_on_c, 0, 77, 0
2, 8685, Note_on_c, 0, 76, 0
2, 8688, Note_on_c, 0, 77, 64
2, 8688, Note_on_c, 0, 76, 64
2, 8733, Note_on_c, 0, 77, 0
2, 8733, Note_on_c, 0, 76, 0
2, 8736, Note_on_c, 0, 77, 64
2, 8736, Note_on_c, 0, 76, 64
2, 8781, Note_on_c, 0, 77, 0
2, 8781, Note_on_c, 0, 76, 0
2, 8784, Note_on_c, 0, 77, 80
2, 8784, Note_on_c, 0, 75, 80
2, 8829, Note_on_c, 0, 77, 0
2, 8829, Note_on_c, 0, 75, 0
2, 8832, Note_on_c, 0, 77, 64
2, 8832, Note_on_c, 0, 75, 64
2, 8877, Note_on_c, 0, 77, 0
2, 8877, Note_on_c, 0, 75, 0
2, 8880, Note_on_c, 0, 77, 64
2, 8880, Note_on_c, 0, 75, 64
2, 8925, Note_on_c, 0, 77, 0
2, 8925, Note_on_c, 0, 75, 0
2, 8928, Note_on_c, 0, 77, 64
2, 8928, Note_on_c, 0, 75, 64
2, 8973, Note_on_c, 0, 77, 0
2, 8973, Note_on_c, 0, 75, 0
2, 8976, Note_on_c, 0, 77, 80
2, 8976, Note_on_c, 0, 75, 80
2, 9021, Note_on_c, 0, 77, 0
2, 9021, Note_on_c, 0, 75, 0
2, 9024, Note_on_c, 0, 77, 64
2, 9024, Note_on_c, 0, 74, 64
2, 9069, Note_on_c, 0, 77, 0
2, 9069, Note_on_c, 0, 74, 0
2, 9072, Note_on_c, 0, 77, 64
2, 9072, Note_on_c, 0, 74, 64
2, 9117, Note_on_c, 0, 77, 0
2, 9117, Note_on_c, 0, 74, 0
2, 9120, Note_on_c, 0, 77, 64
2, 9120, Note_on_c, 0, 74, 64
2, 9165, Note_on_c, 0, 77, 0
2, 9165, Note_on_c, 0, 74, 0
2, 9168, Note_on_c, 0, 89, 86
2, 9168, Note_on_c, 0, 86, 86
2, 9168, Note_on_c, 0, 82, 86
2, 9168, Note_on_c, 0, 77, 86
2, 9213, Note_on_c, 0, 89, 0
2, 9213, Note_on_c, 0, 86, 0
2, 9213, Note_on_c, 0, 82, 0
2, 9213, Note_on_c, 0, 77, 0
2, 9216, Note_on_c, 0, 89, 86
2, 9216, Note_on_c, 0, 86, 86
2, 9216, Note_on_c, 0, 82, 86
2, 9216, Note_on_c, 0, 77, 86
2, 9261, Note_on_c, 0, 89, 0
2, 9261, Note_on_c, 0, 86, 0
2, 9261, Note_on_c, 0, 82, 0
2, 9261, Note_on_c, 0, 77, 0
2, 9264, Note_on_c, 0, 89, 86
2, 9264, Note_on_c, 0, 86, 86
2, 9264, Note_on_c, 0, 82, 86
2, 9264, Note_on_c, 0, 77, 86
2, 9309, Note_on_c, 0, 89, 0
2, 9309, Note_on_c, 0, 86, 0
2, 9309, Note_on_c, 0, 82, 0
2, 9309, Note_on_c, 0, 77, 0
2, 9312, Note_on_c, 0, 89, 86
2, 9312, Note_on_c, 0, 86, 86
2, 9312, Note_on_c, 0, 82, 86
2, 9312, Note_on_c, 0, 77, 86
2, 9357, Note_on_c, 0, 89, 0
2, 9357, Note_on_c, 0, 86, 0
2, 9357, Note_on_c, 0, 82, 0
2, 9357, Note_on_c, 0, 77, 0
2, 9360, Note_on_c, 0, 89, 86
2, 9360, Note_on_c, 0, 86, 86
2, 9360, Note_on_c, 0, 82, 86
2, 9360, Note_on_c, 0, 77, 86
2, 9405, Note_on_c, 0, 89, 0
2, 9405, Note_on_c, 0, 86, 0
2, 9405, Note_on_c, 0, 82, 0
2, 9405, Note_on_c, 0, 77, 0
2, 9408, Note_on_c, 0, 81, 102
2, 9408, Note_on_c, 0, 75, 102
2, 9504, Note_on_c, 0, 81, 0
2, 9504, Note_on_c, 0, 75, 0
2, 9504, Note_on_c, 0, 82, 86
2, 9504, Note_on_c, 0, 74, 86
2, 9549, Note_on_c, 0, 82, 0
2, 9549, Note_on_c, 0, 74, 0
2, 9552, Note_on_c, 0, 77, 86
2, 9552, Note_on_c, 0, 74, 86
2, 9597, Note_on_c, 0, 77, 0
2, 9597, Note_on_c, 0, 74, 0
2, 9600, Note_on_c, 0, 81, 102
2, 9600, Note_on_c, 0, 75, 102
2, 9696, Note_on_c, 0, 81, 0
2, 9696, Note_on_c, 0, 75, 0
2, 9696, Note_on_c, 0, 82, 86
2, 9696, Note_on_c, 0, 74, 86
2, 9741, Note_on_c, 0, 82, 0
2, 9741, Note_on_c, 0, 74, 0
2, 9744, Note_on_c, 0, 77, 86
2, 9744, Note_on_c, 0, 74, 86
2, 9789, Note_on_c, 0, 77, 0
2, 9789, Note_on_c, 0, 74, 0
2, 9792, Note_on_c, 0, 81, 102
2, 9792, Note_on_c, 0, 75, 102
2, 9888, Note_on_c, 0, 81, 0
2, 9888, Note_on_c, 0, 75, 0
2, 9888, Note_on_c, 0, 82, 86
2, 9888, Note_on_c, 0, 74, 86
2, 9933, Note_on_c, 0, 82, 0
2, 9933, Note_on_c, 0, 74, 0
2, 9936, Note_on_c, 0, 83, 86
2, 9936, Note_on_c, 0, 74, 86
2, 9981, Note_on_c, 0, 83, 0
2, 9981, Note_on_c, 0, 74, 0
2, 9984, Note_on_c, 0, 83, 86
2, 9984, Note_on_c, 0, 74, 86
2, 10161, Note_on_c, 0, 83, 0
2, 10161, Note_on_c, 0, 74, 0
2, 10176, Note_on_c, 0, 84, 86
2, 10265, Note_on_c, 0, 84, 0
2, 10272, Note_on_c, 0, 82, 86
2, 10361, Note_on_c, 0, 82, 0
2, 10368, Note_on_c, 0, 81, 86
2, 10560, Note_on_c, 0, 81, 0
2, 10560, Note_on_c, 0, 82, 70
2, 10627, Note_on_c, 0, 82, 0
2, 10656, Note_on_c, 0, 78, 70
2, 10745, Note_on_c, 0, 78, 0
2, 10752, Note_on_c, 0, 78, 70
2, 10944, Note_on_c, 0, 78, 0
2, 10944, Note_on_c, 0, 79, 70
2, 11033, Note_on_c, 0, 79, 0
2, 11040, Note_on_c, 0, 79, 80
2, 11129, Note_on_c, 0, 79, 0
2, 11136, Note_on_c, 0, 79, 80
2, 11609, Note_on_c, 0, 79, 0
2, 11616, Note_on_c, 0, 80, 80
2, 11661, Note_on_c, 0, 80, 0
2, 11664, Note_on_c, 0, 79, 80
2, 11709, Note_on_c, 0, 79, 0
2, 11712, Note_on_c, 0, 78, 96
2, 11712, Note_on_c, 0, 74, 96
2, 11760, Note_on_c, 0, 78, 0
2, 11760, Note_on_c, 0, 74, 0
2, 11760, Note_on_c, 0, 79, 80
2, 11760, Note_on_c, 0, 75, 80
2, 11805, Note_on_c, 0, 79, 0
2, 11805, Note_on_c, 0, 75, 0
2, 11808, Note_on_c, 0, 77, 80
2, 11808, Note_on_c, 0, 74, 80
2, 11853, Note_on_c, 0, 77, 0
2, 11853, Note_on_c, 0, 74, 0
2, 11856, Note_on_c, 0, 75, 80
2, 11856, Note_on_c, 0, 72, 80
2, 11901, Note_on_c, 0, 75, 0
2, 11901, Note_on_c, 0, 72, 0
2, 11904, Note_on_c, 0, 74, 80
2, 11904, Note_on_c, 0, 70, 80
2, 12037, Note_on_c, 0, 74, 0
2, 12037, Note_on_c, 0, 70, 0
2, 12048, Note_on_c, 0, 77, 80
2, 12048, Note_on_c, 0, 74, 80
2, 12093, Note_on_c, 0, 77, 0
2, 12093, Note_on_c, 0, 74, 0
2, 12096, Note_on_c, 0, 77, 80
2, 12096, Note_on_c, 0, 74, 80
2, 12141, Note_on_c, 0, 77, 0
2, 12141, Note_on_c, 0, 74, 0
2, 12144, Note_on_c, 0, 75, 80
2, 12144, Note_on_c, 0, 72, 80
2, 12189, Note_on_c, 0, 75, 0
2, 12189, Note_on_c, 0, 72, 0
2, 12192, Note_on_c, 0, 74, 80
2, 12192, Note_on_c, 0, 70, 80
2, 12237, Note_on_c, 0, 74, 0
2, 12237, Note_on_c, 0, 70, 0
2, 12240, Note_on_c, 0, 72, 80
2, 12240, Note_on_c, 0, 69, 80
2, 12285, Note_on_c, 0, 72, 0
2, 12285, Note_on_c, 0, 69, 0
2, 12288, Note_on_c, 0, 70, 80
2, 12311, Note_on_c, 0, 70, 0
2, 12312, Note_on_c, 0, 77, 79
2, 12335, Note_on_c, 0, 77, 0
2, 12336, Note_on_c, 0, 74, 78
2, 12359, Note_on_c, 0, 74, 0
2, 12360, Note_on_c, 0, 70, 77
2, 12383, Note_on_c, 0, 70, 0
2, 12384, Note_on_c, 0, 65, 76
2, 12407, Note_on_c, 0, 65, 0
2, 12408, Note_on_c, 0, 62, 75
2, 12431, Note_on_c, 0, 62, 0
2, 12432, Note_on_c, 0, 58, 74
2, 12455, Note_on_c, 0, 58, 0
2, 12456, Note_on_c, 0, 62, 73
2, 12479, Note_on_c, 0, 62, 0
2, 12480, Note_on_c, 0, 69, 72
2, 12503, Note_on_c, 0, 69, 0
2, 12504, Note_on_c, 0, 77, 71
2, 12527, Note_on_c, 0, 77, 0
2, 12528, Note_on_c, 0, 75, 70
2, 12551, Note_on_c, 0, 75, 0
2, 12552, Note_on_c, 0, 72, 69
2, 12575, Note_on_c, 0, 72, 0
2, 12576, Note_on_c, 0, 69, 68
2, 12599, Note_on_c, 0, 69, 0
2, 12600, Note_on_c, 0, 65, 67
2, 12623, Note_on_c, 0, 65, 0
2, 12624, Note_on_c, 0, 60, 66
2, 12647, Note_on_c, 0, 60, 0
2, 12648, Note_on_c, 0, 63, 65
2, 12671, Note_on_c, 0, 63, 0
2, 12672, Note_on_c, 0, 70, 64
2, 12695, Note_on_c, 0, 70, 0
2, 12696, Note_on_c, 0, 77, 64
2, 12719, Note_on_c, 0, 77, 0
2, 12720, Note_on_c, 0, 74, 64
2, 12743, Note_on_c, 0, 74, 0
2, 12744, Note_on_c, 0, 70, 64
2, 12767, Note_on_c, 0, 70, 0
2, 12768, Note_on_c, 0, 65, 64
2, 12791, Note_on_c, 0, 65, 0
2, 12792, Note_on_c, 0, 62, 64
2, 12815, Note_on_c, 0, 62, 0
2, 12816, Note_on_c, 0, 58, 64
2, 12839, Note_on_c, 0, 58, 0
2, 12840, Note_on_c, 0, 62, 64
2, 12863, Note_on_c, 0, 62, 0
2, 12864, Note_on_c, 0, 69, 64
2, 12887, Note_on_c, 0, 69, 0
2, 12888, Note_on_c, 0, 77, 64
2, 12911, Note_on_c, 0, 77, 0
2, 12912, Note_on_c, 0, 75, 64
2, 12935, Note_on_c, 0, 75, 0
2, 12936, Note_on_c, 0, 72, 64
2, 12959, Note_on_c, 0, 72, 0
2, 12960, Note_on_c, 0, 69, 64
2, 12983, Note_on_c, 0, 69, 0
2, 12984, Note_on_c, 0, 65, 64
2, 13007, Note_on_c, 0, 65, 0
2, 13008, Note_on_c, 0, 60, 64
2, 13031, Note_on_c, 0, 60, 0
2, 13032, Note_on_c, 0, 63, 64
2, 13055, Note_on_c, 0, 63, 0
2, 13056, Note_on_c, 0, 77, 64
2, 13079, Note_on_c, 0, 77, 0
2, 13080, Note_on_c, 0, 74, 64
2, 13103, Note_on_c, 0, 74, 0
2, 13104, Note_on_c, 0, 62, 65
2, 13127, Note_on_c, 0, 62, 0
2, 13128, Note_on_c, 0, 70, 66
2, 13151, Note_on_c, 0, 70, 0
2, 13152, Note_on_c, 0, 79, 67
2, 13175, Note_on_c, 0, 79, 0
2, 13176, Note_on_c, 0, 70, 68
2, 13199, Note_on_c, 0, 70, 0
2, 13200, Note_on_c, 0, 63, 69
2, 13223, Note_on_c, 0, 63, 0
2, 13224, Note_on_c, 0, 70, 69
2, 13247, Note_on_c, 0, 70, 0
2, 13248, Note_on_c, 0, 81, 70
2, 13271, Note_on_c, 0, 81, 0
2, 13272, Note_on_c, 0, 70, 71
2, 13295, Note_on_c, 0, 70, 0
2, 13296, Note_on_c, 0, 65, 72
2, 13319, Note_on_c, 0, 65, 0
2, 13320, Note_on_c, 0, 70, 73
2, 13343, Note_on_c, 0, 70, 0
2, 13344, Note_on_c, 0, 82, 74
2, 13367, Note_on_c, 0, 82, 0
2, 13368, Note_on_c, 0, 70, 75
2, 13391, Note_on_c, 0, 70, 0
2, 13392, Note_on_c, 0, 67, 75
2, 13415, Note_on_c, 0, 67, 0
2, 13416, Note_on_c, 0, 70, 75
2, 13439, Note_on_c, 0, 70, 0
2, 13440, Note_on_c, 0, 77, 75
2, 13463, Note_on_c, 0, 77, 0
2, 13464, Note_on_c, 0, 74, 75
2, 13487, Note_on_c, 0, 74, 0
2, 13488, Note_on_c, 0, 62, 75
2, 13511, Note_on_c, 0, 62, 0
2, 13512, Note_on_c, 0, 70, 76
2, 13535, Note_on_c, 0, 70, 0
2, 13536, Note_on_c, 0, 79, 76
2, 13559, Note_on_c, 0, 79, 0
2, 13560, Note_on_c, 0, 70, 77
2, 13583, Note_on_c, 0, 70, 0
2, 13584, Note_on_c, 0, 63, 77
2, 13607, Note_on_c, 0, 63, 0
2, 13608, Note_on_c, 0, 70, 78
2, 13631, Note_on_c, 0, 70, 0
2, 13632, Note_on_c, 0, 81, 78
2, 13655, Note_on_c, 0, 81, 0
2, 13656, Note_on_c, 0, 70, 78
2, 13679, Note_on_c, 0, 70, 0
2, 13680, Note_on_c, 0, 65, 79
2, 13703, Note_on_c, 0, 65, 0
2, 13704, Note_on_c, 0, 70, 79
2, 13727, Note_on_c, 0, 70, 0
2, 13728, Note_on_c, 0, 82, 80
2, 13751, Note_on_c, 0, 82, 0
2, 13752, Note_on_c, 0, 70, 80
2, 13775, Note_on_c, 0, 70, 0
2, 13776, Note_on_c, 0, 67, 81
2, 13799, Note_on_c, 0, 67, 0
2, 13800, Note_on_c, 0, 70, 81
2, 13823, Note_on_c, 0, 70, 0
2, 13824, Note_on_c, 0, 85, 82
2, 13847, Note_on_c, 0, 85, 0
2, 13848, Note_on_c, 0, 73, 82
2, 13871, Note_on_c, 0, 73, 0
2, 13872, Note_on_c, 0, 66, 82
2, 13895, Note_on_c, 0, 66, 0
2, 13896, Note_on_c, 0, 70, 83
2, 13919, Note_on_c, 0, 70, 0
2, 13920, Note_on_c, 0, 82, 83
2, 13943, Note_on_c, 0, 82, 0
2, 13944, Note_on_c, 0, 70, 84
2, 13967, Note_on_c, 0, 70, 0
2, 13968, Note_on_c, 0, 66, 84
2, 13991, Note_on_c, 0, 66, 0
2, 13992, Note_on_c, 0, 70, 85
2, 14015, Note_on_c, 0, 70, 0
2, 14016, Note_on_c, 0, 88, 85
2, 14039, Note_on_c, 0, 88, 0
2, 14040, Note_on_c, 0, 76, 86
2, 14063, Note_on_c, 0, 76, 0
2, 14064, Note_on_c, 0, 66, 86
2, 14087, Note_on_c, 0, 66, 0
2, 14088, Note_on_c, 0, 70, 86
2, 14111, Note_on_c, 0, 70, 0
2, 14112, Note_on_c, 0, 82, 86
2, 14135, Note_on_c, 0, 82, 0
2, 14136, Note_on_c, 0, 70, 86
2, 14159, Note_on_c, 0, 70, 0
2, 14160, Note_on_c, 0, 66, 86
2, 14183, Note_on_c, 0, 66, 0
2, 14184, Note_on_c, 0, 70, 86
2, 14207, Note_on_c, 0, 70, 0
2, 14208, Note_on_c, 0, 81, 86
2, 14231, Note_on_c, 0, 81, 0
2, 14232, Note_on_c, 0, 69, 86
2, 14255, Note_on_c, 0, 69, 0
2, 14256, Note_on_c, 0, 65, 86
2, 14279, Note_on_c, 0, 65, 0
2, 14280, Note_on_c, 0, 53, 86
2, 14303, Note_on_c, 0, 53, 0
2, 14304, Note_on_c, 0, 77, 86
2, 14327, Note_on_c, 0, 77, 0
2, 14328, Note_on_c, 0, 65, 86
2, 14351, Note_on_c, 0, 65, 0
2, 14400, Note_on_c, 0, 72, 86
2, 14423, Note_on_c, 0, 72, 0
2, 14424, Note_on_c, 0, 60, 86
2, 14447, Note_on_c, 0, 60, 0
2, 14496, Note_on_c, 0, 69, 86
2, 14519, Note_on_c, 0, 69, 0
2, 14520, Note_on_c, 0, 57, 86
2, 14543, Note_on_c, 0, 57, 0
2, 14928, Note_on_c, 0, 72, 80
2, 14973, Note_on_c, 0, 72, 0
2, 14976, Note_on_c, 0, 65, 64
2, 15021, Note_on_c, 0, 65, 0
2, 15024, Note_on_c, 0, 66, 65
2, 15069, Note_on_c, 0, 66, 0
2, 15072, Note_on_c, 0, 65, 66
2, 15117, Note_on_c, 0, 65, 0
2, 15120, Note_on_c, 0, 75, 83
2, 15140, Note_on_c, 0, 75, 0
2, 15168, Note_on_c, 0, 69, 68
2, 15213, Note_on_c, 0, 69, 0
2, 15216, Note_on_c, 0, 70, 69
2, 15261, Note_on_c, 0, 70, 0
2, 15264, Note_on_c, 0, 69, 70
2, 15309, Note_on_c, 0, 69, 0
2, 15312, Note_on_c, 0, 78, 87
2, 15332, Note_on_c, 0, 78, 0
2, 15360, Note_on_c, 0, 72, 72
2, 15405, Note_on_c, 0, 72, 0
2, 15408, Note_on_c, 0, 73, 73
2, 15453, Note_on_c, 0, 73, 0
2, 15456, Note_on_c, 0, 72, 74
2, 15501, Note_on_c, 0, 72, 0
2, 15504, Note_on_c, 0, 81, 91
2, 15524, Note_on_c, 0, 81, 0
2, 15552, Note_on_c, 0, 77, 76
2, 15597, Note_on_c, 0, 77, 0
2, 15600, Note_on_c, 0, 78, 77
2, 15645, Note_on_c, 0, 78, 0
2, 15648, Note_on_c, 0, 77, 78
2, 15693, Note_on_c, 0, 77, 0
2, 15696, Note_on_c, 0, 89, 96
2, 15716, Note_on_c, 0, 89, 0
2, 15792, Note_on_c, 0, 89, 58
2, 15792, Note_on_c, 0, 86, 58
2, 15812, Note_on_c, 0, 89, 0
2, 15812, Note_on_c, 0, 86, 0
2, 15888, Note_on_c, 0, 87, 58
2, 15888, Note_on_c, 0, 84, 58
2, 15908, Note_on_c, 0, 87, 0
2, 15908, Note_on_c, 0, 84, 0
2, 15984, Note_on_c, 0, 86, 58
2, 15984, Note_on_c, 0, 82, 58
2, 16004, Note_on_c, 0, 86, 0
2, 16004, Note_on_c, 0, 82, 0
2, 16080, Note_on_c, 0, 84, 58
2, 16080, Note_on_c, 0, 81, 58
2, 16100, Note_on_c, 0, 84, 0
2, 16100, Note_on_c, 0, 81, 0
2, 16128, Note_on_c, 0, 82, 58
2, 16173, Note_on_c, 0, 82, 0
2, 16176, Note_on_c, 0, 63, 64
2, 16221, Note_on_c, 0, 63, 0
2, 16224, Note_on_c, 0, 63, 64
2, 16269, Note_on_c, 0, 63, 0
2, 16272, Note_on_c, 0, 63, 64
2, 16317, Note_on_c, 0, 63, 0
2, 16320, Note_on_c, 0, 63, 64
2, 16365, Note_on_c, 0, 63, 0
2, 16368, Note_on_c, 0, 63, 64
2, 16413, Note_on_c, 0, 63, 0
2, 16416, Note_on_c, 0, 63, 64
2, 16461, Note_on_c, 0, 63, 0
2, 16464, Note_on_c, 0, 63, 64
2, 16509, Note_on_c, 0, 63, 0
2, 16512, Note_on_c, 0, 63, 64
2, 16557, Note_on_c, 0, 63, 0
2, 16560, Note_on_c, 0, 63, 65
2, 16605, Note_on_c, 0, 63, 0
2, 16608, Note_on_c, 0, 63, 66
2, 16653, Note_on_c, 0, 63, 0
2, 16656, Note_on_c, 0, 63, 67
2, 16701, Note_on_c, 0, 63, 0
2, 16704, Note_on_c, 0, 63, 68
2, 16749, Note_on_c, 0, 63, 0
2, 16752, Note_on_c, 0, 63, 69
2, 16797, Note_on_c, 0, 63, 0
2, 16800, Note_on_c, 0, 63, 70
2, 16845, Note_on_c, 0, 63, 0
2, 16848, Note_on_c, 0, 63, 71
2, 16893, Note_on_c, 0, 63, 0
2, 16896, Note_on_c, 0, 63, 72
2, 16941, Note_on_c, 0, 63, 0
2, 16944, Note_on_c, 0, 63, 73
2, 16989, Note_on_c, 0, 63, 0
2, 16992, Note_on_c, 0, 63, 74
2, 17037, Note_on_c, 0, 63, 0
2, 17040, Note_on_c, 0, 63, 75
2, 17085, Note_on_c, 0, 63, 0
2, 17088, Note_on_c, 0, 63, 76
2, 17133, Note_on_c, 0, 63, 0
2, 17136, Note_on_c, 0, 63, 77
2, 17181, Note_on_c, 0, 63, 0
2, 17184, Note_on_c, 0, 63, 78
2, 17229, Note_on_c, 0, 63, 0
2, 17232, Note_on_c, 0, 63, 80
2, 17277, Note_on_c, 0, 63, 0
2, 17280, Note_on_c, 0, 62, 80
2, 17303, Note_on_c, 0, 62, 0
2, 17304, Note_on_c, 0, 70, 80
2, 17327, Note_on_c, 0, 70, 0
2, 17328, Note_on_c, 0, 62, 80
2, 17351, Note_on_c, 0, 62, 0
2, 17352, Note_on_c, 0, 70, 80
2, 17375, Note_on_c, 0, 70, 0
2, 17376, Note_on_c, 0, 63, 80
2, 17399, Note_on_c, 0, 63, 0
2, 17400, Note_on_c, 0, 69, 80
2, 17423, Note_on_c, 0, 69, 0
2, 17424, Note_on_c, 0, 63, 80
2, 17447, Note_on_c, 0, 63, 0
2, 17448, Note_on_c, 0, 69, 80
2, 17471, Note_on_c, 0, 69, 0
2, 17472, Note_on_c, 0, 69, 80
2, 17495, Note_on_c, 0, 69, 0
2, 17496, Note_on_c, 0, 75, 80
2, 17519, Note_on_c, 0, 75, 0
2, 17520, Note_on_c, 0, 69, 80
2, 17543, Note_on_c, 0, 69, 0
2, 17544, Note_on_c, 0, 75, 80
2, 17567, Note_on_c, 0, 75, 0
2, 17568, Note_on_c, 0, 70, 80
2, 17591, Note_on_c, 0, 70, 0
2, 17592, Note_on_c, 0, 74, 80
2, 17615, Note_on_c, 0, 74, 0
2, 17616, Note_on_c, 0, 70, 80
2, 17639, Note_on_c, 0, 70, 0
2, 17640, Note_on_c, 0, 74, 80
2, 17663, Note_on_c, 0, 74, 0
2, 17664, Note_on_c, 0, 74, 80
2, 17687, Note_on_c, 0, 74, 0
2, 17688, Note_on_c, 0, 82, 80
2, 17711, Note_on_c, 0, 82, 0
2, 17712, Note_on_c, 0, 74, 80
2, 17735, Note_on_c, 0, 74, 0
2, 17736, Note_on_c, 0, 82, 80
2, 17759, Note_on_c, 0, 82, 0
2, 17760, Note_on_c, 0, 75, 80
2, 17783, Note_on_c, 0, 75, 0
2, 17784, Note_on_c, 0, 81, 80
2, 17807, Note_on_c, 0, 81, 0
2, 17808, Note_on_c, 0, 75, 80
2, 17831, Note_on_c, 0, 75, 0
2, 17832, Note_on_c, 0, 81, 80
2, 17855, Note_on_c, 0, 81, 0
2, 17856, Note_on_c, 0, 81, 80
2, 17879, Note_on_c, 0, 81, 0
2, 17880, Note_on_c, 0, 87, 80
2, 17903, Note_on_c, 0, 87, 0
2, 17904, Note_on_c, 0, 81, 80
2, 17927, Note_on_c, 0, 81, 0
2, 17928, Note_on_c, 0, 87, 80
2, 17951, Note_on_c, 0, 87, 0
2, 17952, Note_on_c, 0, 82, 80
2, 17975, Note_on_c, 0, 82, 0
2, 17976, Note_on_c, 0, 86, 80
2, 17999, Note_on_c, 0, 86, 0
2, 18000, Note_on_c, 0, 82, 80
2, 18023, Note_on_c, 0, 82, 0
2, 18024, Note_on_c, 0, 86, 80
2, 18047, Note_on_c, 0, 86, 0
2, 18048, Note_on_c, 0, 89, 80
2, 18048, Note_on_c, 0, 86, 80
2, 18048, Note_on_c, 0, 82, 80
2, 18048, Note_on_c, 0, 77, 80
2, 18093, Note_on_c, 0, 89, 0
2, 18093, Note_on_c, 0, 86, 0
2, 18093, Note_on_c, 0, 82, 0
2, 18093, Note_on_c, 0, 77, 0
2, 18144, Note_on_c, 0, 87, 80
2, 18144, Note_on_c, 0, 84, 80
2, 18144, Note_on_c, 0, 79, 80
2, 18189, Note_on_c, 0, 87, 0
2, 18189, Note_on_c, 0, 84, 0
2, 18189, Note_on_c, 0, 79, 0
2, 18240, Note_on_c, 0, 86, 80
2, 18240, Note_on_c, 0, 82, 80
2, 18240, Note_on_c, 0, 77, 80
2, 18285, Note_on_c, 0, 86, 0
2, 18285, Note_on_c, 0, 82, 0
2, 18285, Note_on_c, 0, 77, 0
2, 18336, Note_on_c, 0, 81, 80
2, 18336, Note_on_c, 0, 75, 80
2, 18336, Note_on_c, 0, 72, 80
2, 18381, Note_on_c, 0, 81, 0
2, 18381, Note_on_c, 0, 75, 0
2, 18381, Note_on_c, 0, 72, 0
2, 18432, Note_on_c, 0, 82, 80
2, 18432, Note_on_c, 0, 77, 80
2, 18432, Note_on_c, 0, 74, 80
2, 18521, Note_on_c, 0, 82, 0
2, 18521, Note_on_c, 0, 77, 0
2, 18521, Note_on_c, 0, 74, 0
2, 18576, Note_on_c, 0, 79, 80
2, 18576, Note_on_c, 0, 75, 80
2, 18621, Note_on_c, 0, 79, 0
2, 18621, Note_on_c, 0, 75, 0
2, 18624, Note_on_c, 0, 77, 80
2, 18624, Note_on_c, 0, 74, 80
2, 18669, Note_on_c, 0, 77, 0
2, 18669, Note_on_c, 0, 74, 0
2, 18672, Note_on_c, 0, 75, 80
2, 18672, Note_on_c, 0, 72, 80
2, 18717, Note_on_c, 0, 75, 0
2, 18717, Note_on_c, 0, 72, 0
2, 18720, Note_on_c, 0, 74, 80
2, 18720, Note_on_c, 0, 70, 80
2, 18765, Note_on_c, 0, 74, 0
2, 18765, Note_on_c, 0, 70, 0
2, 18768, Note_on_c, 0, 72, 80
2, 18768, Note_on_c, 0, 69, 80
2, 18813, Note_on_c, 0, 72, 0
2, 18813, Note_on_c, 0, 69, 0
2, 18816, Note_on_c, 0, 70, 80
2, 18839, Note_on_c, 0, 70, 0
2, 18840, Note_on_c, 0, 69, 80
2, 18863, Note_on_c, 0, 69, 0
2, 18864, Note_on_c, 0, 70, 80
2, 18887, Note_on_c, 0, 70, 0
2, 18888, Note_on_c, 0, 69, 80
2, 18911, Note_on_c, 0, 69, 0
2, 18912, Note_on_c, 0, 70, 80
2, 18935, Note_on_c, 0, 70, 0
2, 18936, Note_on_c, 0, 69, 80
2, 18959, Note_on_c, 0, 69, 0
2, 18960, Note_on_c, 0, 70, 80
2, 18983, Note_on_c, 0, 70, 0
2, 18984, Note_on_c, 0, 69, 80
2, 19007, Note_on_c, 0, 69, 0
2, 19008, Note_on_c, 0, 70, 80
2, 19031, Note_on_c, 0, 70, 0
2, 19032, Note_on_c, 0, 69, 80
2, 19055, Note_on_c, 0, 69, 0
2, 19056, Note_on_c, 0, 70, 80
2, 19079, Note_on_c, 0, 70, 0
2, 19080, Note_on_c, 0, 69, 80
2, 19103, Note_on_c, 0, 69, 0
2, 19104, Note_on_c, 0, 70, 80
2, 19127, Note_on_c, 0, 70, 0
2, 19128, Note_on_c, 0, 69, 80
2, 19151, Note_on_c, 0, 69, 0
2, 19152, Note_on_c, 0, 70, 80
2, 19175, Note_on_c, 0, 70, 0
2, 19176, Note_on_c, 0, 69, 80
2, 19199, Note_on_c, 0, 69, 0
2, 19200, Note_on_c, 0, 70, 80
2, 19289, Note_on_c, 0, 70, 0
2, 19296, Note_on_c, 0, 82, 80
2, 19296, Note_on_c, 0, 77, 80
2, 19296, Note_on_c, 0, 74, 80
2, 19385, Note_on_c, 0, 82, 0
2, 19385, Note_on_c, 0, 77, 0
2, 19385, Note_on_c, 0, 74, 0
2, 19536, Note_on_c, 0, 67, 64
2, 19581, Note_on_c, 0, 67, 0
2, 19584, Note_on_c, 0, 67, 64
2, 19629, Note_on_c, 0, 67, 0
2, 19632, Note_on_c, 0, 67, 64
2, 19677, Note_on_c, 0, 67, 0
2, 19680, Note_on_c, 0, 67, 64
2, 19725, Note_on_c, 0, 67, 0
2, 19728, Note_on_c, 0, 67, 64
2, 19773, Note_on_c, 0, 67, 0
2, 19776, Note_on_c, 0, 67, 64
2, 19872, Note_on_c, 0, 67, 0
2, 19872, Note_on_c, 0, 70, 64
2, 19917, Note_on_c, 0, 70, 0
2, 19920, Note_on_c, 0, 63, 64
2, 19965, Note_on_c, 0, 63, 0
2, 19968, Note_on_c, 0, 62, 64
2, 20013, Note_on_c, 0, 62, 0
2, 20016, Note_on_c, 0, 65, 64
2, 20061, Note_on_c, 0, 65, 0
2, 20064, Note_on_c, 0, 68, 64
2, 20109, Note_on_c, 0, 68, 0
2, 20112, Note_on_c, 0, 62, 64
2, 20157, Note_on_c, 0, 62, 0
2, 20160, Note_on_c, 0, 63, 64
2, 20205, Note_on_c, 0, 63, 0
2, 20208, Note_on_c, 0, 67, 64
2, 20253, Note_on_c, 0, 67, 0
2, 20256, Note_on_c, 0, 58, 64
2, 20301, Note_on_c, 0, 58, 0
2, 20304, Note_on_c, 0, 58, 64
2, 20349, Note_on_c, 0, 58, 0
2, 20352, Note_on_c, 0, 56, 64
2, 20397, Note_on_c, 0, 56, 0
2, 20400, Note_on_c, 0, 62, 64
2, 20445, Note_on_c, 0, 62, 0
2, 20448, Note_on_c, 0, 65, 64
2, 20493, Note_on_c, 0, 65, 0
2, 20496, Note_on_c, 0, 62, 64
2, 20541, Note_on_c, 0, 62, 0
2, 20544, Note_on_c, 0, 63, 64
2, 20589, Note_on_c, 0, 63, 0
2, 20592, Note_on_c, 0, 67, 64
2, 20637, Note_on_c, 0, 67, 0
2, 20640, Note_on_c, 0, 58, 64
2, 20685, Note_on_c, 0, 58, 0
2, 20688, Note_on_c, 0, 58, 64
2, 20733, Note_on_c, 0, 58, 0
2, 20736, Note_on_c, 0, 56, 64
2, 20781, Note_on_c, 0, 56, 0
2, 20784, Note_on_c, 0, 62, 64
2, 20829, Note_on_c, 0, 62, 0
2, 20832, Note_on_c, 0, 65, 64
2, 20877, Note_on_c, 0, 65, 0
2, 20880, Note_on_c, 0, 62, 64
2, 20925, Note_on_c, 0, 62, 0
2, 20928, Note_on_c, 0, 63, 64
2, 21017, Note_on_c, 0, 63, 0
2, 21072, Note_on_c, 0, 68, 64
2, 21117, Note_on_c, 0, 68, 0
2, 21120, Note_on_c, 0, 68, 64
2, 21165, Note_on_c, 0, 68, 0
2, 21168, Note_on_c, 0, 68, 64
2, 21213, Note_on_c, 0, 68, 0
2, 21216, Note_on_c, 0, 68, 64
2, 21261, Note_on_c, 0, 68, 0
2, 21264, Note_on_c, 0, 68, 64
2, 21309, Note_on_c, 0, 68, 0
2, 21312, Note_on_c, 0, 68, 64
2, 21408, Note_on_c, 0, 68, 0
2, 21408, Note_on_c, 0, 72, 64
2, 21453, Note_on_c, 0, 72, 0
2, 21456, Note_on_c, 0, 65, 64
2, 21501, Note_on_c, 0, 65, 0
2, 21504, Note_on_c, 0, 64, 64
2, 21549, Note_on_c, 0, 64, 0
2, 21552, Note_on_c, 0, 67, 64
2, 21597, Note_on_c, 0, 67, 0
2, 21600, Note_on_c, 0, 70, 64
2, 21645, Note_on_c, 0, 70, 0
2, 21648, Note_on_c, 0, 64, 64
2, 21693, Note_on_c, 0, 64, 0
2, 21696, Note_on_c, 0, 65, 64
2, 21741, Note_on_c, 0, 65, 0
2, 21744, Note_on_c, 0, 68, 64
2, 21789, Note_on_c, 0, 68, 0
2, 21792, Note_on_c, 0, 60, 64
2, 21837, Note_on_c, 0, 60, 0
2, 21840, Note_on_c, 0, 60, 64
2, 21885, Note_on_c, 0, 60, 0
2, 21888, Note_on_c, 0, 58, 64
2, 21933, Note_on_c, 0, 58, 0
2, 21936, Note_on_c, 0, 64, 64
2, 21981, Note_on_c, 0, 64, 0
2, 21984, Note_on_c, 0, 67, 64
2, 22029, Note_on_c, 0, 67, 0
2, 22032, Note_on_c, 0, 64, 64
2, 22077, Note_on_c, 0, 64, 0
2, 22080, Note_on_c, 0, 65, 64
2, 22125, Note_on_c, 0, 65, 0
2, 22128, Note_on_c, 0, 68, 64
2, 22173, Note_on_c, 0, 68, 0
2, 22176, Note_on_c, 0, 60, 64
2, 22221, Note_on_c, 0, 60, 0
2, 22224, Note_on_c, 0, 60, 64
2, 22269, Note_on_c, 0, 60, 0
2, 22272, Note_on_c, 0, 58, 64
2, 22317, Note_on_c, 0, 58, 0
2, 22320, Note_on_c, 0, 64, 64
2, 22365, Note_on_c, 0, 64, 0
2, 22368, Note_on_c, 0, 67, 64
2, 22413, Note_on_c, 0, 67, 0
2, 22416, Note_on_c, 0, 64, 64
2, 22461, Note_on_c, 0, 64, 0
2, 22464, Note_on_c, 0, 65, 64
2, 22553, Note_on_c, 0, 65, 0
2, 22800, Note_on_c, 0, 84, 80
2, 22823, Note_on_c, 0, 84, 0
2, 22824, Note_on_c, 0, 82, 80
2, 22847, Note_on_c, 0, 82, 0
2, 22848, Note_on_c, 0, 80, 80
2, 22871, Note_on_c, 0, 80, 0
2, 22872, Note_on_c, 0, 79, 80
2, 22895, Note_on_c, 0, 79, 0
2, 22896, Note_on_c, 0, 77, 80
2, 22919, Note_on_c, 0, 77, 0
2, 22920, Note_on_c, 0, 75, 80
2, 22943, Note_on_c, 0, 75, 0
2, 22944, Note_on_c, 0, 74, 80
2, 22967, Note_on_c, 0, 74, 0
2, 22968, Note_on_c, 0, 75, 79
2, 22991, Note_on_c, 0, 75, 0
2, 22992, Note_on_c, 0, 77, 78
2, 23015, Note_on_c, 0, 77, 0
2, 23016, Note_on_c, 0, 74, 77
2, 23039, Note_on_c, 0, 74, 0
2, 23040, Note_on_c, 0, 75, 76
2, 23063, Note_on_c, 0, 75, 0
2, 23064, Note_on_c, 0, 79, 75
2, 23087, Note_on_c, 0, 79, 0
2, 23088, Note_on_c, 0, 77, 75
2, 23111, Note_on_c, 0, 77, 0
2, 23112, Note_on_c, 0, 75, 74
2, 23135, Note_on_c, 0, 75, 0
2, 23136, Note_on_c, 0, 74, 73
2, 23159, Note_on_c, 0, 74, 0
2, 23160, Note_on_c, 0, 72, 72
2, 23183, Note_on_c, 0, 72, 0
2, 23184, Note_on_c, 0, 70, 71
2, 23207, Note_on_c, 0, 70, 0
2, 23208, Note_on_c, 0, 75, 70
2, 23231, Note_on_c, 0, 75, 0
2, 23232, Note_on_c, 0, 74, 70
2, 23255, Note_on_c, 0, 74, 0
2, 23256, Note_on_c, 0, 75, 70
2, 23279, Note_on_c, 0, 75, 0
2, 23280, Note_on_c, 0, 77, 70
2, 23303, Note_on_c, 0, 77, 0
2, 23304, Note_on_c, 0, 79, 70
2, 23327, Note_on_c, 0, 79, 0
2, 23328, Note_on_c, 0, 80, 70
2, 23351, Note_on_c, 0, 80, 0
2, 23352, Note_on_c, 0, 77, 70
2, 23375, Note_on_c, 0, 77, 0
2, 23376, Note_on_c, 0, 75, 70
2, 23399, Note_on_c, 0, 75, 0
2, 23400, Note_on_c, 0, 74, 70
2, 23423, Note_on_c, 0, 74, 0
2, 23424, Note_on_c, 0, 75, 70
2, 23447, Note_on_c, 0, 75, 0
2, 23448, Note_on_c, 0, 79, 70
2, 23471, Note_on_c, 0, 79, 0
2, 23472, Note_on_c, 0, 77, 70
2, 23495, Note_on_c, 0, 77, 0
2, 23496, Note_on_c, 0, 75, 70
2, 23519, Note_on_c, 0, 75, 0
2, 23520, Note_on_c, 0, 74, 70
2, 23543, Note_on_c, 0, 74, 0
2, 23544, Note_on_c, 0, 72, 70
2, 23567, Note_on_c, 0, 72, 0
2, 23568, Note_on_c, 0, 70, 70
2, 23591, Note_on_c, 0, 70, 0
2, 23592, Note_on_c, 0, 75, 70
2, 23615, Note_on_c, 0, 75, 0
2, 23616, Note_on_c, 0, 74, 70
2, 23639, Note_on_c, 0, 74, 0
2, 23640, Note_on_c, 0, 75, 70
2, 23663, Note_on_c, 0, 75, 0
2, 23664, Note_on_c, 0, 77, 70
2, 23687, Note_on_c, 0, 77, 0
2, 23688, Note_on_c, 0, 79, 71
2, 23711, Note_on_c, 0, 79, 0
2, 23712, Note_on_c, 0, 80, 71
2, 23735, Note_on_c, 0, 80, 0
2, 23736, Note_on_c, 0, 77, 72
2, 23759, Note_on_c, 0, 77, 0
2, 23760, Note_on_c, 0, 75, 72
2, 23783, Note_on_c, 0, 75, 0
2, 23784, Note_on_c, 0, 74, 72
2, 23807, Note_on_c, 0, 74, 0
2, 23808, Note_on_c, 0, 75, 73
2, 23831, Note_on_c, 0, 75, 0
2, 23832, Note_on_c, 0, 77, 73
2, 23855, Note_on_c, 0, 77, 0
2, 23856, Note_on_c, 0, 79, 74
2, 23879, Note_on_c, 0, 79, 0
2, 23880, Note_on_c, 0, 77, 74
2, 23903, Note_on_c, 0, 77, 0
2, 23904, Note_on_c, 0, 75, 74
2, 23927, Note_on_c, 0, 75, 0
2, 23928, Note_on_c, 0, 74, 75
2, 23951, Note_on_c, 0, 74, 0
2, 23952, Note_on_c, 0, 72, 75
2, 23975, Note_on_c, 0, 72, 0
2, 23976, Note_on_c, 0, 70, 76
2, 23999, Note_on_c, 0, 70, 0
2, 24000, Note_on_c, 0, 72, 76
2, 24023, Note_on_c, 0, 72, 0
2, 24024, Note_on_c, 0, 75, 76
2, 24047, Note_on_c, 0, 75, 0
2, 24048, Note_on_c, 0, 77, 77
2, 24071, Note_on_c, 0, 77, 0
2, 24072, Note_on_c, 0, 75, 77
2, 24095, Note_on_c, 0, 75, 0
2, 24096, Note_on_c, 0, 74, 78
2, 24119, Note_on_c, 0, 74, 0
2, 24120, Note_on_c, 0, 72, 78
2, 24143, Note_on_c, 0, 72, 0
2, 24144, Note_on_c, 0, 70, 78
2, 24167, Note_on_c, 0, 70, 0
2, 24168, Note_on_c, 0, 68, 79
2, 24191, Note_on_c, 0, 68, 0
2, 24192, Note_on_c, 0, 67, 79
2, 24215, Note_on_c, 0, 67, 0
2, 24216, Note_on_c, 0, 70, 80
2, 24239, Note_on_c, 0, 70, 0
2, 24240, Note_on_c, 0, 67, 80
2, 24263, Note_on_c, 0, 67, 0
2, 24264, Note_on_c, 0, 70, 80
2, 24287, Note_on_c, 0, 70, 0
2, 24288, Note_on_c, 0, 65, 80
2, 24311, Note_on_c, 0, 65, 0
2, 24312, Note_on_c, 0, 68, 80
2, 24335, Note_on_c, 0, 68, 0
2, 24336, Note_on_c, 0, 65, 80
2, 24359, Note_on_c, 0, 65, 0
2, 24360, Note_on_c, 0, 68, 80
2, 24383, Note_on_c, 0, 68, 0
2, 24384, Note_on_c, 0, 63, 80
2, 24407, Note_on_c, 0, 63, 0
2, 24408, Note_on_c, 0, 67, 80
2, 24431, Note_on_c, 0, 67, 0
2, 24432, Note_on_c, 0, 63, 80
2, 24455, Note_on_c, 0, 63, 0
2, 24456, Note_on_c, 0, 67, 80
2, 24479, Note_on_c, 0, 67, 0
2, 24480, Note_on_c, 0, 62, 80
2, 24503, Note_on_c, 0, 62, 0
2, 24504, Note_on_c, 0, 65, 80
2, 24527, Note_on_c, 0, 65, 0
2, 24528, Note_on_c, 0, 62, 80
2, 24551, Note_on_c, 0, 62, 0
2, 24552, Note_on_c, 0, 65, 80
2, 24575, Note_on_c, 0, 65, 0
2, 24576, Note_on_c, 0, 63, 80
2, 24599, Note_on_c, 0, 63, 0
2, 24600, Note_on_c, 0, 58, 80
2, 24623, Note_on_c, 0, 58, 0
2, 24624, Note_on_c, 0, 63, 80
2, 24647, Note_on_c, 0, 63, 0
2, 24648, Note_on_c, 0, 58, 80
2, 24671, Note_on_c, 0, 58, 0
2, 24672, Note_on_c, 0, 63, 80
2, 24695, Note_on_c, 0, 63, 0
2, 24696, Note_on_c, 0, 58, 80
2, 24719, Note_on_c, 0, 58, 0
2, 24720, Note_on_c, 0, 63, 80
2, 24743, Note_on_c, 0, 63, 0
2, 24744, Note_on_c, 0, 58, 80
2, 24767, Note_on_c, 0, 58, 0
2, 24768, Note_on_c, 0, 63, 80
2, 24857, Note_on_c, 0, 63, 0
2, 24912, Note_on_c, 0, 79, 64
2, 24957, Note_on_c, 0, 79, 0
2, 24960, Note_on_c, 0, 80, 64
2, 25005, Note_on_c, 0, 80, 0
2, 25008, Note_on_c, 0, 81, 64
2, 25053, Note_on_c, 0, 81, 0
2, 25056, Note_on_c, 0, 82, 64
2, 25101, Note_on_c, 0, 82, 0
2, 25104, Note_on_c, 0, 83, 64
2, 25149, Note_on_c, 0, 83, 0
2, 25152, Note_on_c, 0, 84, 64
2, 25200, Note_on_c, 0, 84, 0
2, 25200, Note_on_c, 0, 79, 64
2, 25245, Note_on_c, 0, 79, 0
2, 25296, Note_on_c, 0, 79, 64
2, 25341, Note_on_c, 0, 79, 0
2, 25344, Note_on_c, 0, 79, 64
2, 25389, Note_on_c, 0, 79, 0
2, 25392, Note_on_c, 0, 77, 64
2, 25437, Note_on_c, 0, 77, 0
2, 25440, Note_on_c, 0, 80, 64
2, 25485, Note_on_c, 0, 80, 0
2, 25488, Note_on_c, 0, 77, 64
2, 25533, Note_on_c, 0, 77, 0
2, 25536, Note_on_c, 0, 77, 64
2, 25584, Note_on_c, 0, 77, 0
2, 25584, Note_on_c, 0, 75, 64
2, 25629, Note_on_c, 0, 75, 0
2, 25680, Note_on_c, 0, 79, 64
2, 25725, Note_on_c, 0, 79, 0
2, 25728, Note_on_c, 0, 80, 66
2, 25773, Note_on_c, 0, 80, 0
2, 25776, Note_on_c, 0, 81, 69
2, 25821, Note_on_c, 0, 81, 0
2, 25824, Note_on_c, 0, 82, 72
2, 25869, Note_on_c, 0, 82, 0
2, 25872, Note_on_c, 0, 83, 74
2, 25917, Note_on_c, 0, 83, 0
2, 25920, Note_on_c, 0, 84, 77
2, 25965, Note_on_c, 0, 84, 0
2, 25968, Note_on_c, 0, 84, 80
2, 25980, Note_on_c, 0, 84, 0
2, 25980, Note_on_c, 0, 83, 80
2, 25992, Note_on_c, 0, 83, 0
2, 25992, Note_on_c, 0, 84, 80
2, 26004, Note_on_c, 0, 84, 0
2, 26004, Note_on_c, 0, 86, 80
2, 26016, Note_on_c, 0, 86, 0
2, 26016, Note_on_c, 0, 87, 80
2, 26135, Note_on_c, 0, 87, 0
2, 26136, Note_on_c, 0, 86, 80
2, 26159, Note_on_c, 0, 86, 0
2, 26160, Note_on_c, 0, 84, 80
2, 26183, Note_on_c, 0, 84, 0
2, 26184, Note_on_c, 0, 82, 80
2, 26207, Note_on_c, 0, 82, 0
2, 26208, Note_on_c, 0, 81, 80
2, 26231, Note_on_c, 0, 81, 0
2, 26232, Note_on_c, 0, 79, 80
2, 26255, Note_on_c, 0, 79, 0
2, 26256, Note_on_c, 0, 77, 80
2, 26279, Note_on_c, 0, 77, 0
2, 26280, Note_on_c, 0, 75, 80
2, 26303, Note_on_c, 0, 75, 0
2, 26304, Note_on_c, 0, 74, 80
2, 26324, Note_on_c, 0, 74, 0
2, 26352, Note_on_c, 0, 89, 96
2, 26448, Note_on_c, 0, 89, 0
2, 26448, Note_on_c, 0, 81, 80
2, 26541, Note_on_c, 0, 81, 0
2, 26544, Note_on_c, 0, 82, 80
2, 26633, Note_on_c, 0, 82, 0
2, 26640, Note_on_c, 0, 80, 80
2, 26733, Note_on_c, 0, 80, 0
2, 26736, Note_on_c, 0, 79, 80
2, 26825, Note_on_c, 0, 79, 0
2, 26832, Note_on_c, 0, 77, 80
2, 26925, Note_on_c, 0, 77, 0
2, 26928, Note_on_c, 0, 76, 80
2, 27017, Note_on_c, 0, 76, 0
2, 27024, Note_on_c, 0, 75, 80
2, 27117, Note_on_c, 0, 75, 0
2, 27120, Note_on_c, 0, 74, 78
2, 27209, Note_on_c, 0, 74, 0
2, 27216, Note_on_c, 0, 73, 76
2, 27309, Note_on_c, 0, 73, 0
2, 27312, Note_on_c, 0, 72, 73
2, 27401, Note_on_c, 0, 72, 0
2, 27408, Note_on_c, 0, 70, 71
2, 27501, Note_on_c, 0, 70, 0
2, 27504, Note_on_c, 0, 69, 68
2, 27593, Note_on_c, 0, 69, 0
2, 27600, Note_on_c, 0, 70, 66
2, 27645, Note_on_c, 0, 70, 0
2, 27648, Note_on_c, 0, 69, 65
2, 27693, Note_on_c, 0, 69, 0
2, 27696, Note_on_c, 0, 77, 64
2, 27741, Note_on_c, 0, 77, 0
2, 27744, Note_on_c, 0, 77, 64
2, 27789, Note_on_c, 0, 77, 0
2, 27792, Note_on_c, 0, 77, 80
2, 27837, Note_on_c, 0, 77, 0
2, 27840, Note_on_c, 0, 77, 64
2, 27885, Note_on_c, 0, 77, 0
2, 27888, Note_on_c, 0, 77, 64
2, 27933, Note_on_c, 0, 77, 0
2, 27936, Note_on_c, 0, 77, 64
2, 27981, Note_on_c, 0, 77, 0
2, 27984, Note_on_c, 0, 77, 80
2, 27984, Note_on_c, 0, 76, 80
2, 28029, Note_on_c, 0, 77, 0
2, 28029, Note_on_c, 0, 76, 0
2, 28032, Note_on_c, 0, 77, 64
2, 28032, Note_on_c, 0, 76, 64
2, 28077, Note_on_c, 0, 77, 0
2, 28077, Note_on_c, 0, 76, 0
2, 28080, Note_on_c, 0, 77, 64
2, 28080, Note_on_c, 0, 76, 64
2, 28125, Note_on_c, 0, 77, 0
2, 28125, Note_on_c, 0, 76, 0
2, 28128, Note_on_c, 0, 77, 64
2, 28128, Note_on_c, 0, 76, 64
2, 28173, Note_on_c, 0, 77, 0
2, 28173, Note_on_c, 0, 76, 0
2, 28176, Note_on_c, 0, 77, 80
2, 28176, Note_on_c, 0, 75, 80
2, 28221, Note_on_c, 0, 77, 0
2, 28221, Note_on_c, 0, 75, 0
2, 28224, Note_on_c, 0, 77, 64
2, 28224, Note_on_c, 0, 75, 64
2, 28269, Note_on_c, 0, 77, 0
2, 28269, Note_on_c, 0, 75, 0
2, 28272, Note_on_c, 0, 77, 64
2, 28272, Note_on_c, 0, 75, 64
2, 28317, Note_on_c, 0, 77, 0
2, 28317, Note_on_c, 0, 75, 0
2, 28320, Note_on_c, 0, 77, 64
2, 28320, Note_on_c, 0, 75, 64
2, 28365, Note_on_c, 0, 77, 0
2, 28365, Note_on_c, 0, 75, 0
2, 28368, Note_on_c, 0, 77, 80
2, 28368, Note_on_c, 0, 75, 80
2, 28413, Note_on_c, 0, 77, 0
2, 28413, Note_on_c, 0, 75, 0
2, 28416, Note_on_c, 0, 77, 64
2, 28416, Note_on_c, 0, 74, 64
2, 28461, Note_on_c, 0, 77, 0
2, 28461, Note_on_c, 0, 74, 0
2, 28464, Note_on_c, 0, 77, 64
2, 28464, Note_on_c, 0, 74, 64
2, 28509, Note_on_c, 0, 77, 0
2, 28509, Note_on_c, 0, 74, 0
2, 28512, Note_on_c, 0, 77, 64
2, 28512, Note_on_c, 0, 74, 64
2, 28557, Note_on_c, 0, 77, 0
2, 28557, Note_on_c, 0, 74, 0
2, 28560, Note_on_c, 0, 89, 86
2, 28560, Note_on_c, 0, 86, 86
2, 28560, Note_on_c, 0, 82, 86
2, 28560, Note_on_c, 0, 77, 86
2, 28605, Note_on_c, 0, 89, 0
2, 28605, Note_on_c, 0, 86, 0
2, 28605, Note_on_c, 0, 82, 0
2, 28605, Note_on_c, 0, 77, 0
2, 28608, Note_on_c, 0, 89, 86
2, 28608, Note_on_c, 0, 86, 86
2, 28608, Note_on_c, 0, 82, 86
2, 28608, Note_on_c, 0, 77, 86
2, 28653, Note_on_c, 0, 89, 0
2, 28653, Note_on_c, 0, 86, 0
2, 28653, Note_on_c, 0, 82, 0
2, 28653, Note_on_c, 0, 77, 0
2, 28656, Note_on_c, 0, 89, 86
2, 28656, Note_on_c, 0, 86, 86
2, 28656, Note_on_c, 0, 82, 86
2, 28656, Note_on_c, 0, 77, 86
2, 28701, Note_on_c, 0, 89, 0
2, 28701, Note_on_c, 0, 86, 0
2, 28701, Note_on_c, 0, 82, 0
2, 28701, Note_on_c, 0, 77, 0
2, 28704, Note_on_c, 0, 89, 86
2, 28704, Note_on_c, 0, 86, 86
2, 28704, Note_on_c, 0, 82, 86
2, 28704, Note_on_c, 0, 77, 86
2, 28749, Note_on_c, 0, 89, 0
2, 28749, Note_on_c, 0, 86, 0
2, 28749, Note_on_c, 0, 82, 0
2, 28749, Note_on_c, 0, 77, 0
2, 28752, Note_on_c, 0, 89, 86
2, 28752, Note_on_c, 0, 86, 86
2, 28752, Note_on_c, 0, 82, 86
2, 28752, Note_on_c, 0, 77, 86
2, 28797, Note_on_c, 0, 89, 0
2, 28797, Note_on_c, 0, 86, 0
2, 28797, Note_on_c, 0, 82, 0
2, 28797, Note_on_c, 0, 77, 0
2, 28800, Note_on_c, 0, 81, 102
2, 28800, Note_on_c, 0, 75, 102
2, 28896, Note_on_c, 0, 81, 0
2, 28896, Note_on_c, 0, 75, 0
2, 28896, Note_on_c, 0, 82, 86
2, 28896, Note_on_c, 0, 74, 86
2, 28941, Note_on_c, 0, 82, 0
2, 28941, Note_on_c, 0, 74, 0
2, 28944, Note_on_c, 0, 77, 86
2, 28944, Note_on_c, 0, 74, 86
2, 28989, Note_on_c, 0, 77, 0
2, 28989, Note_on_c, 0, 74, 0
2, 28992, Note_on_c, 0, 81, 102
2, 28992, Note_on_c, 0, 75, 102
2, 29088, Note_on_c, 0, 81, 0
2, 29088, Note_on_c, 0, 75, 0
2, 29088, Note_on_c, 0, 82, 86
2, 29088, Note_on_c, 0, 74, 86
2, 29133, Note_on_c, 0, 82, 0
2, 29133, Note_on_c, 0, 74, 0
2, 29136, Note_on_c, 0, 77, 86
2, 29136, Note_on_c, 0, 74, 86
2, 29181, Note_on_c, 0, 77, 0
2, 29181, Note_on_c, 0, 74, 0
2, 29184, Note_on_c, 0, 81, 102
2, 29184, Note_on_c, 0, 75, 102
2, 29280, Note_on_c, 0, 81, 0
2, 29280, Note_on_c, 0, 75, 0
2, 29280, Note_on_c, 0, 82, 86
2, 29280, Note_on_c, 0, 74, 86
2, 29325, Note_on_c, 0, 82, 0
2, 29325, Note_on_c, 0, 74, 0
2, 29328, Note_on_c, 0, 83, 86
2, 29328, Note_on_c, 0, 74, 86
2, 29373, Note_on_c, 0, 83, 0
2, 29373, Note_on_c, 0, 74, 0
2, 29376, Note_on_c, 0, 83, 86
2, 29376, Note_on_c, 0, 74, 86
2, 29553, Note_on_c, 0, 83, 0
2, 29553, Note_on_c, 0, 74, 0
2, 29568, Note_on_c, 0, 84, 86
2, 29657, Note_on_c, 0, 84, 0
2, 29664, Note_on_c, 0, 82, 86
2, 29753, Note_on_c, 0, 82, 0
2, 29760, Note_on_c, 0, 81, 86
2, 29952, Note_on_c, 0, 81, 0
2, 29952, Note_on_c, 0, 82, 70
2, 30019, Note_on_c, 0, 82, 0
2, 30048, Note_on_c, 0, 78, 70
2, 30137, Note_on_c, 0, 78, 0
2, 30144, Note_on_c, 0, 78, 70
2, 30336, Note_on_c, 0, 78, 0
2, 30336, Note_on_c, 0, 79, 70
2, 30425, Note_on_c, 0, 79, 0
2, 30432, Note_on_c, 0, 79, 80
2, 30521, Note_on_c, 0, 79, 0
2, 30528, Note_on_c, 0, 79, 80
2, 31001, Note_on_c, 0, 79, 0
2, 31008, Note_on_c, 0, 80, 80
2, 31053, Note_on_c, 0, 80, 0
2, 31056, Note_on_c, 0, 79, 80
2, 31101, Note_on_c, 0, 79, 0
2, 31104, Note_on_c, 0, 78, 96
2, 31104, Note_on_c, 0, 74, 96
2, 31152, Note_on_c, 0, 78, 0
2, 31152, Note_on_c, 0, 74, 0
2, 31152, Note_on_c, 0, 79, 80
2, 31152, Note_on_c, 0, 75, 80
2, 31197, Note_on_c, 0, 79, 0
2, 31197, Note_on_c, 0, 75, 0
2, 31200, Note_on_c, 0, 77, 80
2, 31200, Note_on_c, 0, 74, 80
2, 31245, Note_on_c, 0, 77, 0
2, 31245, Note_on_c, 0, 74, 0
2, 31248, Note_on_c, 0, 75, 80
2, 31248, Note_on_c, 0, 72, 80
2, 31293, Note_on_c, 0, 75, 0
2, 31293, Note_on_c, 0, 72, 0
2, 31296, Note_on_c, 0, 74, 80
2, 31296, Note_on_c, 0, 70, 80
2, 31429, Note_on_c, 0, 74, 0
2, 31429, Note_on_c, 0, 70, 0
2, 31440, Note_on_c, 0, 77, 80
2, 31440, Note_on_c, 0, 74, 80
2, 31485, Note_on_c, 0, 77, 0
2, 31485, Note_on_c, 0, 74, 0
2, 31488, Note_on_c, 0, 77, 80
2, 31488, Note_on_c, 0, 74, 80
2, 31533, Note_on_c, 0, 77, 0
2, 31533, Note_on_c, 0, 74, 0
2, 31536, Note_on_c, 0, 75, 80
2, 31536, Note_on_c, 0, 72, 80
2, 31581, Note_on_c, 0, 75, 0
2, 31581, Note_on_c, 0, 72, 0
2, 31584, Note_on_c, 0, 74, 80
2, 31584, Note_on_c, 0, 70, 80
2, 31629, Note_on_c, 0, 74, 0
2, 31629, Note_on_c, 0, 70, 0
2, 31632, Note_on_c, 0, 72, 80
2, 31632, Note_on_c, 0, 69, 80
2, 31677, Note_on_c, 0, 72, 0
2, 31677, Note_on_c, 0, 69, 0
2, 31680, Note_on_c, 0, 70, 80
2, 31703, Note_on_c, 0, 70, 0
2, 31704, Note_on_c, 0, 77, 79
2, 31727, Note_on_c, 0, 77, 0
2, 31728, Note_on_c, 0, 74, 78
2, 31751, Note_on_c, 0, 74, 0
2, 31752, Note_on_c, 0, 70, 77
2, 31775, Note_on_c, 0, 70, 0
2, 31776, Note_on_c, 0, 65, 76
2, 31799, Note_on_c, 0, 65, 0
2, 31800, Note_on_c, 0, 62, 75
2, 31823, Note_on_c, 0, 62, 0
2, 31824, Note_on_c, 0, 58, 74
2, 31847, Note_on_c, 0, 58, 0
2, 31848, Note_on_c, 0, 62, 73
2, 31871, Note_on_c, 0, 62, 0
2, 31872, Note_on_c, 0, 69, 72
2, 31895, Note_on_c, 0, 69, 0
2, 31896, Note_on_c, 0, 77, 71
2, 31919, Note_on_c, 0, 77, 0
2, 31920, Note_on_c, 0, 75, 70
2, 31943, Note_on_c, 0, 75, 0
2, 31944, Note_on_c, 0, 72, 69
2, 31967, Note_on_c, 0, 72, 0
2, 31968, Note_on_c, 0, 69, 68
2, 31991, Note_on_c, 0, 69, 0
2, 31992, Note_on_c, 0, 65, 67
2, 32015, Note_on_c, 0, 65, 0
2, 32016, Note_on_c, 0, 60, 66
2, 32039, Note_on_c, 0, 60, 0
2, 32040, Note_on_c, 0, 63, 65
2, 32063, Note_on_c, 0, 63, 0
2, 32064, Note_on_c, 0, 70, 64
2, 32087, Note_on_c, 0, 70, 0
2, 32088, Note_on_c, 0, 77, 64
2, 32111, Note_on_c, 0, 77, 0
2, 32112, Note_on_c, 0, 74, 64
2, 32135, Note_on_c, 0, 74, 0
2, 32136, Note_on_c, 0, 70, 64
2, 32159, Note_on_c, 0, 70, 0
2, 32160, Note_on_c, 0, 65, 64
2, 32183, Note_on_c, 0, 65, 0
2, 32184, Note_on_c, 0, 62, 64
2, 32207, Note_on_c, 0, 62, 0
2, 32208, Note_on_c, 0, 58, 64
2, 32231, Note_on_c, 0, 58, 0
2, 32232, Note_on_c, 0, 62, 64
2, 32255, Note_on_c, 0, 62, 0
2, 32256, Note_on_c, 0, 69, 64
2, 32279, Note_on_c, 0, 69, 0
2, 32280, Note_on_c, 0, 77, 64
2, 32303, Note_on_c, 0, 77, 0
2, 32304, Note_on_c, 0, 75, 64
2, 32327, Note_on_c, 0, 75, 0
2, 32328, Note_on_c, 0, 72, 64
2, 32351, Note_on_c, 0, 72, 0
2, 32352, Note_on_c, 0, 69, 64
2, 32375, Note_on_c, 0, 69, 0
2, 32376, Note_on_c, 0, 65, 64
2, 32399, Note_on_c, 0, 65, 0
2, 32400, Note_on_c, 0, 60, 64
2, 32423, Note_on_c, 0, 60, 0
2, 32424, Note_on_c, 0, 63, 64
2, 32447, Note_on_c, 0, 63, 0
2, 32448, Note_on_c, 0, 77, 64
2, 32471, Note_on_c, 0, 77, 0
2, 32472, Note_on_c, 0, 74, 64
2, 32495, Note_on_c, 0, 74, 0
2, 32496, Note_on_c, 0, 62, 65
2, 32519, Note_on_c, 0, 62, 0
2, 32520, Note_on_c, 0, 70, 66
2, 32543, Note_on_c, 0, 70, 0
2, 32544, Note_on_c, 0, 79, 67
2, 32567, Note_on_c, 0, 79, 0
2, 32568, Note_on_c, 0, 70, 68
2, 32591, Note_on_c, 0, 70, 0
2, 32592, Note_on_c, 0, 63, 69
2, 32615, Note_on_c, 0, 63, 0
2, 32616, Note_on_c, 0, 70, 69
2, 32639, Note_on_c, 0, 70, 0
2, 32640, Note_on_c, 0, 81, 70
2, 32663, Note_on_c, 0, 81, 0
2, 32664, Note_on_c, 0, 70, 71
2, 32687, Note_on_c, 0, 70, 0
2, 32688, Note_on_c, 0, 65, 72
2, 32711, Note_on_c, 0, 65, 0
2, 32712, Note_on_c, 0, 70, 73
2, 32735, Note_on_c, 0, 70, 0
2, 32736, Note_on_c, 0, 82, 74
2, 32759, Note_on_c, 0, 82, 0
2, 32760, Note_on_c, 0, 70, 75
2, 32783, Note_on_c, 0, 70, 0
2, 32784, Note_on_c, 0, 67, 75
2, 32807, Note_on_c, 0, 67, 0
2, 32808, Note_on_c, 0, 70, 75
2, 32831, Note_on_c, 0, 70, 0
2, 32832, Note_on_c, 0, 77, 75
2, 32855, Note_on_c, 0, 77, 0
2, 32856, Note_on_c, 0, 74, 75
2, 32879, Note_on_c, 0, 74, 0
2, 32880, Note_on_c, 0, 62, 75
2, 32903, Note_on_c, 0, 62, 0
2, 32904, Note_on_c, 0, 70, 76
2, 32927, Note_on_c, 0, 70, 0
2, 32928, Note_on_c, 0, 79, 76
2, 32951, Note_on_c, 0, 79, 0
2, 32952, Note_on_c, 0, 70, 77
2, 32975, Note_on_c, 0, 70, 0
2, 32976, Note_on_c, 0, 63, 77
2, 32999, Note_on_c, 0, 63, 0
2, 33000, Note_on_c, 0, 70, 78
2, 33023, Note_on_c, 0, 70, 0
2, 33024, Note_on_c, 0, 81, 78
2, 33047, Note_on_c, 0, 81, 0
2, 33048, Note_on_c, 0, 70, 78
2, 33071, Note_on_c, 0, 70, 0
2, 33072, Note_on_c, 0, 65, 79
2, 33095, Note_on_c, 0, 65, 0
2, 33096, Note_on_c, 0, 70, 79
2, 33119, Note_on_c, 0, 70, 0
2, 33120, Note_on_c, 0, 82, 80
2, 33143, Note_on_c, 0, 82, 0
2, 33144, Note_on_c, 0, 70, 80
2, 33167, Note_on_c, 0, 70, 0
2, 33168, Note_on_c, 0, 67, 81
2, 33191, Note_on_c, 0, 67, 0
2, 33192, Note_on_c, 0, 70, 81
2, 33215, Note_on_c, 0, 70, 0
2, 33216, Note_on_c, 0, 85, 82
2, 33239, Note_on_c, 0, 85, 0
2, 33240, Note_on_c, 0, 73, 82
2, 33263, Note_on_c, 0, 73, 0
2, 33264, Note_on_c, 0, 66, 82
2, 33287, Note_on_c, 0, 66, 0
2, 33288, Note_on_c, 0, 70, 83
2, 33311, Note_on_c, 0, 70, 0
2, 33312, Note_on_c, 0, 82, 83
2, 33335, Note_on_c, 0, 82, 0
2, 33336, Note_on_c, 0, 70, 84
2, 33359, Note_on_c, 0, 70, 0
2, 33360, Note_on_c, 0, 66, 84
2, 33383, Note_on_c, 0, 66, 0
2, 33384, Note_on_c, 0, 70, 85
2, 33407, Note_on_c, 0, 70, 0
2, 33408, Note_on_c, 0, 88, 85
2, 33431, Note_on_c, 0, 88, 0
2, 33432, Note_on_c, 0, 76, 86
2, 33455, Note_on_c, 0, 76, 0
2, 33456, Note_on_c, 0, 66, 86
2, 33479, Note_on_c, 0, 66, 0
2, 33480, Note_on_c, 0, 70, 86
2, 33503, Note_on_c, 0, 70, 0
2, 33504, Note_on_c, 0, 82, 86
2, 33527, Note_on_c, 0, 82, 0
2, 33528, Note_on_c, 0, 70, 86
2, 33551, Note_on_c, 0, 70, 0
2, 33552, Note_on_c, 0, 66, 86
2, 33575, Note_on_c, 0, 66, 0
2, 33576, Note_on_c, 0, 70, 86
2, 33599, Note_on_c, 0, 70, 0
2, 33600, Note_on_c, 0, 81, 86
2, 33623, Note_on_c, 0, 81, 0
2, 33624, Note_on_c, 0, 69, 86
2, 33647, Note_on_c, 0, 69, 0
2, 33648, Note_on_c, 0, 65, 86
2, 33671, Note_on_c, 0, 65, 0
2, 33672, Note_on_c, 0, 53, 86
2, 33695, Note_on_c, 0, 53, 0
2, 33696, Note_on_c, 0, 77, 86
2, 33719, Note_on_c, 0, 77, 0
2, 33720, Note_on_c, 0, 65, 86
2, 33743, Note_on_c, 0, 65, 0
2, 33792, Note_on_c, 0, 72, 86
2, 33815, Note_on_c, 0, 72, 0
2, 33816, Note_on_c, 0, 60, 86
2, 33839, Note_on_c, 0, 60, 0
2, 33888, Note_on_c, 0, 69, 86
2, 33911, Note_on_c, 0, 69, 0
2, 33912, Note_on_c, 0, 57, 86
2, 33935, Note_on_c, 0, 57, 0
2, 34320, Note_on_c, 0, 72, 80
2, 34365, Note_on_c, 0, 72, 0
2, 34368, Note_on_c, 0, 65, 64
2, 34413, Note_on_c, 0, 65, 0
2, 34416, Note_on_c, 0, 66, 65
2, 34461, Note_on_c, 0, 66, 0
2, 34464, Note_on_c, 0, 65, 66
2, 34509, Note_on_c, 0, 65, 0
2, 34512, Note_on_c, 0, 75, 83
2, 34532, Note_on_c, 0, 75, 0
2, 34560, Note_on_c, 0, 69, 68
2, 34605, Note_on_c, 0, 69, 0
2, 34608, Note_on_c, 0, 70, 69
2, 34653, Note_on_c, 0, 70, 0
2, 34656, Note_on_c, 0, 69, 70
2, 34701, Note_on_c, 0, 69, 0
2, 34704, Note_on_c, 0, 78, 87
2, 34724, Note_on_c, 0, 78, 0
2, 34752, Note_on_c, 0, 72, 72
2, 34797, Note_on_c, 0, 72, 0
2, 34800, Note_on_c, 0, 73, 73
2, 34845, Note_on_c, 0, 73, 0
2, 34848, Note_on_c, 0, 72, 74
2, 34893, Note_on_c, 0, 72, 0
2, 34896, Note_on_c, 0, 81, 91
2, 34916, Note_on_c, 0, 81, 0
2, 34944, Note_on_c, 0, 77, 76
2, 34989, Note_on_c, 0, 77, 0
2, 34992, Note_on_c, 0, 78, 77
2, 35037, Note_on_c, 0, 78, 0
2, 35040, Note_on_c, 0, 77, 78
2, 35085, Note_on_c, 0, 77, 0
2, 35088, Note_on_c, 0, 89, 96
2, 35108, Note_on_c, 0, 89, 0
2, 35184, Note_on_c, 0, 89, 58
2, 35184, Note_on_c, 0, 86, 58
2, 35204, Note_on_c, 0, 89, 0
2, 35204, Note_on_c, 0, 86, 0
2, 35280, Note_on_c, 0, 87, 58
2, 35280, Note_on_c, 0, 84, 58
2, 35300, Note_on_c, 0, 87, 0
2, 35300, Note_on_c, 0, 84, 0
2, 35376, Note_on_c, 0, 86, 58
2, 35376, Note_on_c, 0, 82, 58
2, 35396, Note_on_c, 0, 86, 0
2, 35396, Note_on_c, 0, 82, 0
2, 35472, Note_on_c, 0, 84, 58
2, 35472, Note_on_c, 0, 81, 58
2, 35492, Note_on_c, 0, 84, 0
2, 35492, Note_on_c, 0, 81, 0
2, 35520, Note_on_c, 0, 82, 58
2, 35565, Note_on_c, 0, 82, 0
2, 35568, Note_on_c, 0, 63, 64
2, 35613, Note_on_c, 0, 63, 0
2, 35616, Note_on_c, 0, 63, 64
2, 35661, Note_on_c, 0, 63, 0
2, 35664, Note_on_c, 0, 63, 64
2, 35709, Note_on_c, 0, 63, 0
2, 35712, Note_on_c, 0, 63, 64
2, 35757, Note_on_c, 0, 63, 0
2, 35760, Note_on_c, 0, 63, 64
2, 35805, Note_on_c, 0, 63, 0
2, 35808, Note_on_c, 0, 63, 64
2, 35853, Note_on_c, 0, 63, 0
2, 35856, Note_on_c, 0, 63, 64
2, 35901, Note_on_c, 0, 63, 0
2, 35904, Note_on_c, 0, 63, 64
2, 35949, Note_on_c, 0, 63, 0
2, 35952, Note_on_c, 0, 63, 65
2, 35997, Note_on_c, 0, 63, 0
2, 36000, Note_on_c, 0, 63, 66
2, 36045, Note_on_c, 0, 63, 0
2, 36048, Note_on_c, 0, 63, 67
2, 36093, Note_on_c, 0, 63, 0
2, 36096, Note_on_c, 0, 63, 68
2, 36141, Note_on_c, 0, 63, 0
2, 36144, Note_on_c, 0, 63, 69
2, 36189, Note_on_c, 0, 63, 0
2, 36192, Note_on_c, 0, 63, 70
2, 36237, Note_on_c, 0, 63, 0
2, 36240, Note_on_c, 0, 63, 71
2, 36285, Note_on_c, 0, 63, 0
2, 36288, Note_on_c, 0, 63, 72
2, 36333, Note_on_c, 0, 63, 0
2, 36336, Note_on_c, 0, 63, 73
2, 36381, Note_on_c, 0, 63, 0
2, 36384, Note_on_c, 0, 63, 74
2, 36429, Note_on_c, 0, 63, 0
2, 36432, Note_on_c, 0, 63, 75
2, 36477, Note_on_c, 0, 63, 0
2, 36480, Note_on_c, 0, 63, 76
2, 36525, Note_on_c, 0, 63, 0
2, 36528, Note_on_c, 0, 63, 77
2, 36573, Note_on_c, 0, 63, 0
2, 36576, Note_on_c, 0, 63, 78
2, 36621, Note_on_c, 0, 63, 0
2, 36624, Note_on_c, 0, 63, 80
2, 36669, Note_on_c, 0, 63, 0
2, 36672, Note_on_c, 0, 62, 80
2, 36695, Note_on_c, 0, 62, 0
2, 36696, Note_on_c, 0, 70, 80
2, 36719, Note_on_c, 0, 70, 0
2, 36720, Note_on_c, 0, 62, 80
2, 36743, Note_on_c, 0, 62, 0
2, 36744, Note_on_c, 0, 70, 80
2, 36767, Note_on_c, 0, 70, 0
2, 36768, Note_on_c, 0, 63, 80
2, 36791, Note_on_c, 0, 63, 0
2, 36792, Note_on_c, 0, 69, 80
2, 36815, Note_on_c, 0, 69, 0
2, 36816, Note_on_c, 0, 63, 80
2, 36839, Note_on_c, 0, 63, 0
2, 36840, Note_on_c, 0, 69, 80
2, 36863, Note_on_c, 0, 69, 0
2, 36864, Note_on_c, 0, 69, 80
2, 36887, Note_on_c, 0, 69, 0
2, 36888, Note_on_c, 0, 75, 80
2, 36911, Note_on_c, 0, 75, 0
2, 36912, Note_on_c, 0, 69, 80
2, 36935, Note_on_c, 0, 69, 0
2, 36936, Note_on_c, 0, 75, 80
2, 36959, Note_on_c, 0, 75, 0
2, 36960, Note_on_c, 0, 70, 80
2, 36983, Note_on_c, 0, 70, 0
2, 36984, Note_on_c, 0, 74, 80
2, 37007, Note_on_c, 0, 74, 0
2, 37008, Note_on_c, 0, 70, 80
2, 37031, Note_on_c, 0, 70, 0
2, 37032, Note_on_c, 0, 74, 80
2, 37055, Note_on_c, 0, 74, 0
2, 37056, Note_on_c, 0, 74, 80
2, 37079, Note_on_c, 0, 74, 0
2, 37080, Note_on_c, 0, 82, 80
2, 37103, Note_on_c, 0, 82, 0
2, 37104, Note_on_c, 0, 74, 80
2, 37127, Note_on_c, 0, 74, 0
2, 37128, Note_on_c, 0, 82, 80
2, 37151, Note_on_c, 0, 82, 0
2, 37152, Note_on_c, 0, 75, 80
2, 37175, Note_on_c, 0, 75, 0
2, 37176, Note_on_c, 0, 81, 80
2, 37199, Note_on_c, 0, 81, 0
2, 37200, Note_on_c, 0, 75, 80
2, 37223, Note_on_c, 0, 75, 0
2, 37224, Note_on_c, 0, 81, 80
2, 37247, Note_on_c, 0, 81, 0
2, 37248, Note_on_c, 0, 81, 80
2, 37271, Note_on_c, 0, 81, 0
2, 37272, Note_on_c, 0, 87, 80
2, 37295, Note_on_c, 0, 87, 0
2, 37296, Note_on_c, 0, 81, 80
2, 37319, Note_on_c, 0, 81, 0
2, 37320, Note_on_c, 0, 87, 80
2, 37343, Note_on_c, 0, 87, 0
2, 37344, Note_on_c, 0, 82, 80
2, 37367, Note_on_c, 0, 82, 0
2, 37368, Note_on_c, 0, 86, 80
2, 37391, Note_on_c, 0, 86, 0
2, 37392, Note_on_c, 0, 82, 80
2, 37415, Note_on_c, 0, 82, 0
2, 37416, Note_on_c, 0, 86, 80
2, 37439, Note_on_c, 0, 86, 0
2, 37440, Note_on_c, 0, 89, 80
2, 37440, Note_on_c, 0, 86, 80
2, 37440, Note_on_c, 0, 82, 80
2, 37440, Note_on_c, 0, 77, 80
2, 37485, Note_on_c, 0, 89, 0
2, 37485, Note_on_c, 0, 86, 0
2, 37485, Note_on_c, 0, 82, 0
2, 37485, Note_on_c, 0, 77, 0
2, 37536, Note_on_c, 0, 87, 80
2, 37536, Note_on_c, 0, 84, 80
2, 37536, Note_on_c, 0, 79, 80
2, 37581, Note_on_c, 0, 87, 0
2, 37581, Note_on_c, 0, 84, 0
2, 37581, Note_on_c, 0, 79, 0
2, 37632, Note_on_c, 0, 86, 80
2, 37632, Note_on_c, 0, 82, 80
2, 37632, Note_on_c, 0, 77, 80
2, 37677, Note_on_c, 0, 86, 0
2, 37677, Note_on_c, 0, 82, 0
2, 37677, Note_on_c, 0, 77, 0
2, 37728, Note_on_c, 0, 81, 80
2, 37728, Note_on_c, 0, 75, 80
2, 37728, Note_on_c, 0, 72, 80
2, 37773, Note_on_c, 0, 81, 0
2, 37773, Note_on_c, 0, 75, 0
2, 37773, Note_on_c, 0, 72, 0
2, 37824, Note_on_c, 0, 82, 80
2, 37824, Note_on_c, 0, 77, 80
2, 37824, Note_on_c, 0, 74, 80
2, 37913, Note_on_c, 0, 82, 0
2, 37913, Note_on_c, 0, 77, 0
2, 37913, Note_on_c, 0, 74, 0
2, 37968, Note_on_c, 0, 79, 80
2, 37968, Note_on_c, 0, 75, 80
2, 38013, Note_on_c, 0, 79, 0
2, 38013, Note_on_c, 0, 75, 0
2, 38016, Note_on_c, 0, 77, 80
2, 38016, Note_on_c, 0, 74, 80
2, 38061, Note_on_c, 0, 77, 0
2, 38061, Note_on_c, 0, 74, 0
2, 38064, Note_on_c, 0, 75, 80
2, 38064, Note_on_c, 0, 72, 80
2, 38109, Note_on_c, 0, 75, 0
2, 38109, Note_on_c, 0, 72, 0
2, 38112, Note_on_c, 0, 74, 80
2, 38112, Note_on_c, 0, 70, 80
2, 38157, Note_on_c, 0, 74, 0
2, 38157, Note_on_c, 0, 70, 0
2, 38160, Note_on_c, 0, 72, 80
2, 38160, Note_on_c, 0, 69, 80
2, 38205, Note_on_c, 0, 72, 0
2, 38205, Note_on_c, 0, 69, 0
2, 38208, Note_on_c, 0, 70, 80
2, 38231, Note_on_c, 0, 70, 0
2, 38232, Note_on_c, 0, 69, 80
2, 38255, Note_on_c, 0, 69, 0
2, 38256, Note_on_c, 0, 70, 80
2, 38279, Note_on_c, 0, 70, 0
2, 38280, Note_on_c, 0, 69, 80
2, 38303, Note_on_c, 0, 69, 0
2, 38304, Note_on_c, 0, 70, 80
2, 38327, Note_on_c, 0, 70, 0
2, 38328, Note_on_c, 0, 69, 80
2, 38351, Note_on_c, 0, 69, 0
2, 38352, Note_on_c, 0, 70, 80
2, 38375, Note_on_c, 0, 70, 0
2, 38376, Note_on_c, 0, 69, 80
2, 38399, Note_on_c, 0, 69, 0
2, 38400, Note_on_c, 0, 70, 80
2, 38423, Note_on_c, 0, 70, 0
2, 38424, Note_on_c, 0, 69, 80
2, 38447, Note_on_c, 0, 69, 0
2, 38448, Note_on_c, 0, 70, 80
2, 38471, Note_on_c, 0, 70, 0
2, 38472, Note_on_c, 0, 69, 80
2, 38495, Note_on_c, 0, 69, 0
2, 38496, Note_on_c, 0, 70, 80
2, 38519, Note_on_c, 0, 70, 0
2, 38520, Note_on_c, 0, 69, 80
2, 38543, Note_on_c, 0, 69, 0
2, 38544, Note_on_c, 0, 70, 80
2, 38567, Note_on_c, 0, 70, 0
2, 38568, Note_on_c, 0, 69, 80
2, 38591, Note_on_c, 0, 69, 0
2, 38592, Note_on_c, 0, 70, 80
2, 38681, Note_on_c, 0, 70, 0
2, 38688, Note_on_c, 0, 82, 80
2, 38688, Note_on_c, 0, 77, 80
2, 38688, Note_on_c, 0, 74, 80
2, 38777, Note_on_c, 0, 82, 0
2, 38777, Note_on_c, 0, 77, 0
2, 38777, Note_on_c, 0, 74, 0
2, 38928, Note_on_c, 0, 65, 64
2, 38948, Note_on_c, 0, 65, 0
2, 38976, Note_on_c, 0, 56, 64
2, 39021, Note_on_c, 0, 56, 0
2, 39024, Note_on_c, 0, 58, 64
2, 39069, Note_on_c, 0, 58, 0
2, 39072, Note_on_c, 0, 56, 64
2, 39117, Note_on_c, 0, 56, 0
2, 39120, Note_on_c, 0, 65, 64
2, 39140, Note_on_c, 0, 65, 0
2, 39168, Note_on_c, 0, 55, 64
2, 39213, Note_on_c, 0, 55, 0
2, 39216, Note_on_c, 0, 56, 64
2, 39261, Note_on_c, 0, 56, 0
2, 39264, Note_on_c, 0, 55, 64
2, 39309, Note_on_c, 0, 55, 0
2, 39312, Note_on_c, 0, 68, 64
2, 39332, Note_on_c, 0, 68, 0
2, 39360, Note_on_c, 0, 67, 64
2, 39405, Note_on_c, 0, 67, 0
2, 39408, Note_on_c, 0, 68, 64
2, 39453, Note_on_c, 0, 68, 0
2, 39456, Note_on_c, 0, 67, 64
2, 39501, Note_on_c, 0, 67, 0
2, 39504, Note_on_c, 0, 65, 64
2, 39549, Note_on_c, 0, 65, 0
2, 39552, Note_on_c, 0, 63, 64
2, 39597, Note_on_c, 0, 63, 0
2, 39600, Note_on_c, 0, 72, 64
2, 39645, Note_on_c, 0, 72, 0
2, 39648, Note_on_c, 0, 72, 64
2, 39693, Note_on_c, 0, 72, 0
2, 39696, Note_on_c, 0, 72, 80
2, 39741, Note_on_c, 0, 72, 0
2, 39744, Note_on_c, 0, 72, 64
2, 39789, Note_on_c, 0, 72, 0
2, 39792, Note_on_c, 0, 72, 64
2, 39837, Note_on_c, 0, 72, 0
2, 39840, Note_on_c, 0, 72, 64
2, 39885, Note_on_c, 0, 72, 0
2, 39888, Note_on_c, 0, 72, 64
2, 39933, Note_on_c, 0, 72, 0
2, 39936, Note_on_c, 0, 72, 64
2, 39981, Note_on_c, 0, 72, 0
2, 39984, Note_on_c, 0, 72, 64
2, 40029, Note_on_c, 0, 72, 0
2, 40032, Note_on_c, 0, 72, 64
2, 40077, Note_on_c, 0, 72, 0
2, 40080, Note_on_c, 0, 74, 80
2, 40080, Note_on_c, 0, 72, 80
2, 40125, Note_on_c, 0, 74, 0
2, 40125, Note_on_c, 0, 72, 0
2, 40128, Note_on_c, 0, 75, 64
2, 40128, Note_on_c, 0, 72, 64
2, 40173, Note_on_c, 0, 75, 0
2, 40173, Note_on_c, 0, 72, 0
2, 40176, Note_on_c, 0, 76, 68
2, 40176, Note_on_c, 0, 72, 68
2, 40221, Note_on_c, 0, 76, 0
2, 40221, Note_on_c, 0, 72, 0
2, 40224, Note_on_c, 0, 77, 72
2, 40224, Note_on_c, 0, 72, 72
2, 40269, Note_on_c, 0, 77, 0
2, 40269, Note_on_c, 0, 72, 0
2, 40272, Note_on_c, 0, 78, 76
2, 40272, Note_on_c, 0, 72, 76
2, 40317, Note_on_c, 0, 78, 0
2, 40317, Note_on_c, 0, 72, 0
2, 40320, Note_on_c, 0, 79, 80
2, 40453, Note_on_c, 0, 79, 0
2, 40464, Note_on_c, 0, 76, 96
2, 40509, Note_on_c, 0, 76, 0
2, 40512, Note_on_c, 0, 77, 64
2, 40512, Note_on_c, 0, 72, 64
2, 40557, Note_on_c, 0, 77, 0
2, 40557, Note_on_c, 0, 72, 0
2, 40560, Note_on_c, 0, 79, 68
2, 40560, Note_on_c, 0, 72, 68
2, 40605, Note_on_c, 0, 79, 0
2, 40605, Note_on_c, 0, 72, 0
2, 40608, Note_on_c, 0, 80, 72
2, 40608, Note_on_c, 0, 72, 72
2, 40653, Note_on_c, 0, 80, 0
2, 40653, Note_on_c, 0, 72, 0
2, 40656, Note_on_c, 0, 82, 76
2, 40656, Note_on_c, 0, 72, 76
2, 40701, Note_on_c, 0, 82, 0
2, 40701, Note_on_c, 0, 72, 0
2, 40704, Note_on_c, 0, 84, 80
2, 40837, Note_on_c, 0, 84, 0
2, 40848, Note_on_c, 0, 80, 74
2, 40893, Note_on_c, 0, 80, 0
2, 40896, Note_on_c, 0, 82, 72
2, 41029, Note_on_c, 0, 82, 0
2, 41040, Note_on_c, 0, 79, 66
2, 41085, Note_on_c, 0, 79, 0
2, 41088, Note_on_c, 0, 80, 64
2, 41457, Note_on_c, 0, 80, 0
2, 41472, Note_on_c, 0, 79, 69
2, 41649, Note_on_c, 0, 79, 0
2, 41664, Note_on_c, 0, 77, 74
2, 41841, Note_on_c, 0, 77, 0
2, 41856, Note_on_c, 0, 76, 80
2, 41856, Note_on_c, 0, 72, 80
2, 41945, Note_on_c, 0, 76, 0
2, 41945, Note_on_c, 0, 72, 0
2, 42000, Note_on_c, 0, 84, 96
2, 42000, Note_on_c, 0, 80, 96
2, 42048, Note_on_c, 0, 84, 0
2, 42048, Note_on_c, 0, 80, 0
2, 42048, Note_on_c, 0, 82, 80
2, 42048, Note_on_c, 0, 79, 80
2, 42093, Note_on_c, 0, 82, 0
2, 42093, Note_on_c, 0, 79, 0
2, 42096, Note_on_c, 0, 84, 80
2, 42096, Note_on_c, 0, 80, 80
2, 42141, Note_on_c, 0, 84, 0
2, 42141, Note_on_c, 0, 80, 0
2, 42144, Note_on_c, 0, 82, 80
2, 42144, Note_on_c, 0, 79, 80
2, 42189, Note_on_c, 0, 82, 0
2, 42189, Note_on_c, 0, 79, 0
2, 42192, Note_on_c, 0, 80, 80
2, 42192, Note_on_c, 0, 77, 80
2, 42237, Note_on_c, 0, 80, 0
2, 42237, Note_on_c, 0, 77, 0
2, 42240, Note_on_c, 0, 79, 80
2, 42240, Note_on_c, 0, 76, 80
2, 42285, Note_on_c, 0, 79, 0
2, 42285, Note_on_c, 0, 76, 0
2, 42384, Note_on_c, 0, 48, 96
2, 42384, Note_on_c, 0, 44, 96
2, 42404, Note_on_c, 0, 48, 0
2, 42404, Note_on_c, 0, 44, 0
2, 42432, Note_on_c, 0, 46, 80
2, 42432, Note_on_c, 0, 43, 80
2, 42452, Note_on_c, 0, 46, 0
2, 42452, Note_on_c, 0, 43, 0
2, 42480, Note_on_c, 0, 44, 80
2, 42480, Note_on_c, 0, 41, 80
2, 42500, Note_on_c, 0, 44, 0
2, 42500, Note_on_c, 0, 41, 0
2, 42528, Note_on_c, 0, 43, 80
2, 42528, Note_on_c, 0, 40, 80
2, 42548, Note_on_c, 0, 43, 0
2, 42548, Note_on_c, 0, 40, 0
2, 42576, Note_on_c, 0, 41, 80
2, 42576, Note_on_c, 0, 38, 80
2, 42596, Note_on_c, 0, 41, 0
2, 42596, Note_on_c, 0, 38, 0
2, 42624, Note_on_c, 0, 40, 80
2, 42624, Note_on_c, 0, 36, 80
2, 42713, Note_on_c, 0, 40, 0
2, 42713, Note_on_c, 0, 36, 0
2, 42768, Note_on_c, 0, 84, 64
2, 42813, Note_on_c, 0, 84, 0
2, 42816, Note_on_c, 0, 84, 66
2, 42861, Note_on_c, 0, 84, 0
2, 42864, Note_on_c, 0, 84, 68
2, 42909, Note_on_c, 0, 84, 0
2, 42912, Note_on_c, 0, 84, 70
2, 42957, Note_on_c, 0, 84, 0
2, 42960, Note_on_c, 0, 84, 73
2, 43005, Note_on_c, 0, 84, 0
2, 43008, Note_on_c, 0, 84, 75
2, 43097, Note_on_c, 0, 84, 0
2, 43104, Note_on_c, 0, 87, 80
2, 43149, Note_on_c, 0, 87, 0
2, 43152, Note_on_c, 0, 80, 80
2, 43197, Note_on_c, 0, 80, 0
2, 43200, Note_on_c, 0, 79, 80
2, 43245, Note_on_c, 0, 79, 0
2, 43248, Note_on_c, 0, 82, 80
2, 43293, Note_on_c, 0, 82, 0
2, 43296, Note_on_c, 0, 85, 80
2, 43341, Note_on_c, 0, 85, 0
2, 43344, Note_on_c, 0, 79, 80
2, 43389, Note_on_c, 0, 79, 0
2, 43392, Note_on_c, 0, 80, 80
2, 43437, Note_on_c, 0, 80, 0
2, 43440, Note_on_c, 0, 84, 80
2, 43485, Note_on_c, 0, 84, 0
2, 43488, Note_on_c, 0, 75, 80
2, 43533, Note_on_c, 0, 75, 0
2, 43536, Note_on_c, 0, 75, 80
2, 43581, Note_on_c, 0, 75, 0
2, 43584, Note_on_c, 0, 73, 80
2, 43629, Note_on_c, 0, 73, 0
2, 43632, Note_on_c, 0, 79, 80
2, 43677, Note_on_c, 0, 79, 0
2, 43680, Note_on_c, 0, 82, 80
2, 43725, Note_on_c, 0, 82, 0
2, 43728, Note_on_c, 0, 79, 80
2, 43773, Note_on_c, 0, 79, 0
2, 43776, Note_on_c, 0, 80, 80
2, 43799, Note_on_c, 0, 80, 0
2, 43800, Note_on_c, 0, 82, 80
2, 43823, Note_on_c, 0, 82, 0
2, 43824, Note_on_c, 0, 84, 80
2, 43847, Note_on_c, 0, 84, 0
2, 43848, Note_on_c, 0, 82, 80
2, 43871, Note_on_c, 0, 82, 0
2, 43872, Note_on_c, 0, 80, 80
2, 43895, Note_on_c, 0, 80, 0
2, 43896, Note_on_c, 0, 79, 80
2, 43919, Note_on_c, 0, 79, 0
2, 43920, Note_on_c, 0, 77, 80
2, 43943, Note_on_c, 0, 77, 0
2, 43944, Note_on_c, 0, 75, 80
2, 43967, Note_on_c, 0, 75, 0
2, 43968, Note_on_c, 0, 73, 80
2, 43991, Note_on_c, 0, 73, 0
2, 43992, Note_on_c, 0, 72, 80
2, 44015, Note_on_c, 0, 72, 0
2, 44016, Note_on_c, 0, 70, 80
2, 44039, Note_on_c, 0, 70, 0
2, 44040, Note_on_c, 0, 68, 80
2, 44063, Note_on_c, 0, 68, 0
2, 44064, Note_on_c, 0, 67, 80
2, 44087, Note_on_c, 0, 67, 0
2, 44088, Note_on_c, 0, 65, 80
2, 44111, Note_on_c, 0, 65, 0
2, 44112, Note_on_c, 0, 63, 80
2, 44135, Note_on_c, 0, 63, 0
2, 44136, Note_on_c, 0, 61, 80
2, 44159, Note_on_c, 0, 61, 0
2, 44160, Note_on_c, 0, 60, 80
2, 44183, Note_on_c, 0, 60, 0
2, 44184, Note_on_c, 0, 61, 80
2, 44207, Note_on_c, 0, 61, 0
2, 44208, Note_on_c, 0, 63, 80
2, 44231, Note_on_c, 0, 63, 0
2, 44232, Note_on_c, 0, 61, 80
2, 44255, Note_on_c, 0, 61, 0
2, 44256, Note_on_c, 0, 60, 80
2, 44279, Note_on_c, 0, 60, 0
2, 44280, Note_on_c, 0, 72, 80
2, 44303, Note_on_c, 0, 72, 0
2, 44304, Note_on_c, 0, 70, 79
2, 44327, Note_on_c, 0, 70, 0
2, 44328, Note_on_c, 0, 68, 78
2, 44351, Note_on_c, 0, 68, 0
2, 44352, Note_on_c, 0, 67, 78
2, 44375, Note_on_c, 0, 67, 0
2, 44376, Note_on_c, 0, 68, 77
2, 44399, Note_on_c, 0, 68, 0
2, 44400, Note_on_c, 0, 70, 76
2, 44423, Note_on_c, 0, 70, 0
2, 44424, Note_on_c, 0, 68, 76
2, 44447, Note_on_c, 0, 68, 0
2, 44448, Note_on_c, 0, 67, 75
2, 44471, Note_on_c, 0, 67, 0
2, 44472, Note_on_c, 0, 77, 75
2, 44495, Note_on_c, 0, 77, 0
2, 44496, Note_on_c, 0, 75, 74
2, 44519, Note_on_c, 0, 75, 0
2, 44520, Note_on_c, 0, 73, 73
2, 44543, Note_on_c, 0, 73, 0
2, 44544, Note_on_c, 0, 72, 73
2, 44567, Note_on_c, 0, 72, 0
2, 44568, Note_on_c, 0, 73, 72
2, 44591, Note_on_c, 0, 73, 0
2, 44592, Note_on_c, 0, 75, 71
2, 44615, Note_on_c, 0, 75, 0
2, 44616, Note_on_c, 0, 73, 71
2, 44639, Note_on_c, 0, 73, 0
2, 44640, Note_on_c, 0, 72, 70
2, 44663, Note_on_c, 0, 72, 0
2, 44664, Note_on_c, 0, 84, 70
2, 44687, Note_on_c, 0, 84, 0
2, 44688, Note_on_c, 0, 82, 70
2, 44711, Note_on_c, 0, 82, 0
2, 44712, Note_on_c, 0, 80, 70
2, 44735, Note_on_c, 0, 80, 0
2, 44736, Note_on_c, 0, 79, 70
2, 44759, Note_on_c, 0, 79, 0
2, 44760, Note_on_c, 0, 80, 70
2, 44783, Note_on_c, 0, 80, 0
2, 44784, Note_on_c, 0, 82, 70
2, 44807, Note_on_c, 0, 82, 0
2, 44808, Note_on_c, 0, 80, 70
2, 44831, Note_on_c, 0, 80, 0
2, 44832, Note_on_c, 0, 79, 70
2, 44855, Note_on_c, 0, 79, 0
2, 44856, Note_on_c, 0, 89, 70
2, 44879, Note_on_c, 0, 89, 0
2, 44880, Note_on_c, 0, 87, 70
2, 44903, Note_on_c, 0, 87, 0
2, 44904, Note_on_c, 0, 85, 70
2, 44927, Note_on_c, 0, 85, 0
2, 44928, Note_on_c, 0, 84, 70
2, 44951, Note_on_c, 0, 84, 0
2, 44952, Note_on_c, 0, 85, 70
2, 44975, Note_on_c, 0, 85, 0
2, 44976, Note_on_c, 0, 87, 70
2, 44999, Note_on_c, 0, 87, 0
2, 45000, Note_on_c, 0, 85, 70
2, 45023, Note_on_c, 0, 85, 0
2, 45024, Note_on_c, 0, 84, 70
2, 45047, Note_on_c, 0, 84, 0
2, 45048, Note_on_c, 0, 82, 70
2, 45071, Note_on_c, 0, 82, 0
2, 45072, Note_on_c, 0, 80, 70
2, 45095, Note_on_c, 0, 80, 0
2, 45096, Note_on_c, 0, 79, 70
2, 45119, Note_on_c, 0, 79, 0
2, 45120, Note_on_c, 0, 80, 70
2, 45143, Note_on_c, 0, 80, 0
2, 45144, Note_on_c, 0, 82, 70
2, 45167, Note_on_c, 0, 82, 0
2, 45168, Note_on_c, 0, 84, 70
2, 45191, Note_on_c, 0, 84, 0
2, 45192, Note_on_c, 0, 82, 70
2, 45215, Note_on_c, 0, 82, 0
2, 45216, Note_on_c, 0, 80, 70
2, 45239, Note_on_c, 0, 80, 0
2, 45240, Note_on_c, 0, 79, 70
2, 45263, Note_on_c, 0, 79, 0
2, 45264, Note_on_c, 0, 77, 70
2, 45287, Note_on_c, 0, 77, 0
2, 45288, Note_on_c, 0, 75, 70
2, 45311, Note_on_c, 0, 75, 0
2, 45312, Note_on_c, 0, 74, 70
2, 45335, Note_on_c, 0, 74, 0
2, 45336, Note_on_c, 0, 75, 70
2, 45359, Note_on_c, 0, 75, 0
2, 45360, Note_on_c, 0, 77, 70
2, 45383, Note_on_c, 0, 77, 0
2, 45384, Note_on_c, 0, 75, 71
2, 45407, Note_on_c, 0, 75, 0
2, 45408, Note_on_c, 0, 74, 71
2, 45431, Note_on_c, 0, 74, 0
2, 45432, Note_on_c, 0, 80, 71
2, 45455, Note_on_c, 0, 80, 0
2, 45456, Note_on_c, 0, 77, 72
2, 45479, Note_on_c, 0, 77, 0
2, 45480, Note_on_c, 0, 75, 72
2, 45503, Note_on_c, 0, 75, 0
2, 45504, Note_on_c, 0, 74, 72
2, 45527, Note_on_c, 0, 74, 0
2, 45528, Note_on_c, 0, 75, 72
2, 45551, Note_on_c, 0, 75, 0
2, 45552, Note_on_c, 0, 77, 73
2, 45575, Note_on_c, 0, 77, 0
2, 45576, Note_on_c, 0, 75, 73
2, 45599, Note_on_c, 0, 75, 0
2, 45600, Note_on_c, 0, 74, 73
2, 45623, Note_on_c, 0, 74, 0
2, 45624, Note_on_c, 0, 80, 74
2, 45647, Note_on_c, 0, 80, 0
2, 45648, Note_on_c, 0, 77, 74
2, 45671, Note_on_c, 0, 77, 0
2, 45672, Note_on_c, 0, 75, 74
2, 45695, Note_on_c, 0, 75, 0
2, 45696, Note_on_c, 0, 74, 75
2, 45719, Note_on_c, 0, 74, 0
2, 45720, Note_on_c, 0, 77, 75
2, 45743, Note_on_c, 0, 77, 0
2, 45744, Note_on_c, 0, 75, 75
2, 45767, Note_on_c, 0, 75, 0
2, 45768, Note_on_c, 0, 79, 75
2, 45791, Note_on_c, 0, 79, 0
2, 45792, Note_on_c, 0, 77, 76
2, 45815, Note_on_c, 0, 77, 0
2, 45816, Note_on_c, 0, 80, 76
2, 45839, Note_on_c, 0, 80, 0
2, 45840, Note_on_c, 0, 79, 76
2, 45863, Note_on_c, 0, 79, 0
2, 45864, Note_on_c, 0, 82, 77
2, 45887, Note_on_c, 0, 82, 0
2, 45888, Note_on_c, 0, 80, 77
2, 45911, Note_on_c, 0, 80, 0
2, 45912, Note_on_c, 0, 79, 77
2, 45935, Note_on_c, 0, 79, 0
2, 45936, Note_on_c, 0, 77, 77
2, 45959, Note_on_c, 0, 77, 0
2, 45960, Note_on_c, 0, 75, 78
2, 45983, Note_on_c, 0, 75, 0
2, 45984, Note_on_c, 0, 74, 78
2, 46007, Note_on_c, 0, 74, 0
2, 46008, Note_on_c, 0, 72, 78
2, 46031, Note_on_c, 0, 72, 0
2, 46032, Note_on_c, 0, 70, 79
2, 46055, Note_on_c, 0, 70, 0
2, 46056, Note_on_c, 0, 68, 79
2, 46079, Note_on_c, 0, 68, 0
2, 46080, Note_on_c, 0, 67, 79
2, 46103, Note_on_c, 0, 67, 0
2, 46104, Note_on_c, 0, 70, 80
2, 46127, Note_on_c, 0, 70, 0
2, 46128, Note_on_c, 0, 72, 80
2, 46151, Note_on_c, 0, 72, 0
2, 46152, Note_on_c, 0, 70, 80
2, 46175, Note_on_c, 0, 70, 0
2, 46176, Note_on_c, 0, 68, 80
2, 46199, Note_on_c, 0, 68, 0
2, 46200, Note_on_c, 0, 67, 80
2, 46223, Note_on_c, 0, 67, 0
2, 46224, Note_on_c, 0, 65, 80
2, 46247, Note_on_c, 0, 65, 0
2, 46248, Note_on_c, 0, 63, 80
2, 46271, Note_on_c, 0, 63, 0
2, 46272, Note_on_c, 0, 62, 80
2, 46295, Note_on_c, 0, 62, 0
2, 46296, Note_on_c, 0, 63, 80
2, 46319, Note_on_c, 0, 63, 0
2, 46320, Note_on_c, 0, 65, 80
2, 46343, Note_on_c, 0, 65, 0
2, 46344, Note_on_c, 0, 63, 80
2, 46367, Note_on_c, 0, 63, 0
2, 46368, Note_on_c, 0, 62, 80
2, 46391, Note_on_c, 0, 62, 0
2, 46392, Note_on_c, 0, 60, 80
2, 46415, Note_on_c, 0, 60, 0
2, 46416, Note_on_c, 0, 58, 80
2, 46439, Note_on_c, 0, 58, 0
2, 46440, Note_on_c, 0, 56, 80
2, 46463, Note_on_c, 0, 56, 0
2, 46464, Note_on_c, 0, 55, 80
2, 46487, Note_on_c, 0, 55, 0
2, 46488, Note_on_c, 0, 56, 80
2, 46511, Note_on_c, 0, 56, 0
2, 46512, Note_on_c, 0, 58, 80
2, 46535, Note_on_c, 0, 58, 0
2, 46536, Note_on_c, 0, 56, 80
2, 46559, Note_on_c, 0, 56, 0
2, 46560, Note_on_c, 0, 55, 80
2, 46583, Note_on_c, 0, 55, 0
2, 46584, Note_on_c, 0, 67, 80
2, 46607, Note_on_c, 0, 67, 0
2, 46608, Note_on_c, 0, 65, 78
2, 46631, Note_on_c, 0, 65, 0
2, 46632, Note_on_c, 0, 63, 77
2, 46655, Note_on_c, 0, 63, 0
2, 46656, Note_on_c, 0, 62, 76
2, 46679, Note_on_c, 0, 62, 0
2, 46680, Note_on_c, 0, 63, 75
2, 46703, Note_on_c, 0, 63, 0
2, 46704, Note_on_c, 0, 65, 74
2, 46727, Note_on_c, 0, 65, 0
2, 46728, Note_on_c, 0, 63, 73
2, 46751, Note_on_c, 0, 63, 0
2, 46752, Note_on_c, 0, 62, 72
2, 46775, Note_on_c, 0, 62, 0
2, 46776, Note_on_c, 0, 72, 71
2, 46799, Note_on_c, 0, 72, 0
2, 46800, Note_on_c, 0, 70, 70
2, 46823, Note_on_c, 0, 70, 0
2, 46824, Note_on_c, 0, 68, 69
2, 46847, Note_on_c, 0, 68, 0
2, 46848, Note_on_c, 0, 67, 68
2, 46871, Note_on_c, 0, 67, 0
2, 46872, Note_on_c, 0, 68, 67
2, 46895, Note_on_c, 0, 68, 0
2, 46896, Note_on_c, 0, 70, 66
2, 46919, Note_on_c, 0, 70, 0
2, 46920, Note_on_c, 0, 68, 65
2, 46943, Note_on_c, 0, 68, 0
2, 46944, Note_on_c, 0, 67, 64
2, 46967, Note_on_c, 0, 67, 0
2, 46968, Note_on_c, 0, 79, 63
2, 46991, Note_on_c, 0, 79, 0
2, 46992, Note_on_c, 0, 77, 63
2, 47015, Note_on_c, 0, 77, 0
2, 47016, Note_on_c, 0, 75, 62
2, 47039, Note_on_c, 0, 75, 0
2, 47040, Note_on_c, 0, 74, 62
2, 47063, Note_on_c, 0, 74, 0
2, 47064, Note_on_c, 0, 75, 61
2, 47087, Note_on_c, 0, 75, 0
2, 47088, Note_on_c, 0, 77, 61
2, 47111, Note_on_c, 0, 77, 0
2, 47112, Note_on_c, 0, 75, 60
2, 47135, Note_on_c, 0, 75, 0
2, 47136, Note_on_c, 0, 74, 60
2, 47159, Note_on_c, 0, 74, 0
2, 47160, Note_on_c, 0, 84, 59
2, 47183, Note_on_c, 0, 84, 0
2, 47184, Note_on_c, 0, 80, 59
2, 47207, Note_on_c, 0, 80, 0
2, 47208, Note_on_c, 0, 77, 58
2, 47231, Note_on_c, 0, 77, 0
2, 47232, Note_on_c, 0, 79, 58
2, 47255, Note_on_c, 0, 79, 0
2, 47256, Note_on_c, 0, 75, 58
2, 47279, Note_on_c, 0, 75, 0
2, 47280, Note_on_c, 0, 74, 58
2, 47303, Note_on_c, 0, 74, 0
2, 47304, Note_on_c, 0, 75, 58
2, 47327, Note_on_c, 0, 75, 0
2, 47328, Note_on_c, 0, 79, 58
2, 47351, Note_on_c, 0, 79, 0
2, 47352, Note_on_c, 0, 75, 58
2, 47375, Note_on_c, 0, 75, 0
2, 47376, Note_on_c, 0, 74, 58
2, 47399, Note_on_c, 0, 74, 0
2, 47400, Note_on_c, 0, 75, 58
2, 47423, Note_on_c, 0, 75, 0
2, 47424, Note_on_c, 0, 80, 58
2, 47447, Note_on_c, 0, 80, 0
2, 47448, Note_on_c, 0, 75, 58
2, 47471, Note_on_c, 0, 75, 0
2, 47472, Note_on_c, 0, 72, 58
2, 47495, Note_on_c, 0, 72, 0
2, 47496, Note_on_c, 0, 75, 58
2, 47519, Note_on_c, 0, 75, 0
2, 47520, Note_on_c, 0, 80, 58
2, 47543, Note_on_c, 0, 80, 0
2, 47544, Note_on_c, 0, 75, 58
2, 47567, Note_on_c, 0, 75, 0
2, 47568, Note_on_c, 0, 72, 58
2, 47591, Note_on_c, 0, 72, 0
2, 47592, Note_on_c, 0, 75, 58
2, 47615, Note_on_c, 0, 75, 0
2, 47616, Note_on_c, 0, 82, 58
2, 47639, Note_on_c, 0, 82, 0
2, 47640, Note_on_c, 0, 75, 58
2, 47663, Note_on_c, 0, 75, 0
2, 47664, Note_on_c, 0, 67, 58
2, 47687, Note_on_c, 0, 67, 0
2, 47688, Note_on_c, 0, 75, 58
2, 47711, Note_on_c, 0, 75, 0
2, 47712, Note_on_c, 0, 82, 58
2, 47735, Note_on_c, 0, 82, 0
2, 47736, Note_on_c, 0, 75, 58
2, 47759, Note_on_c, 0, 75, 0
2, 47760, Note_on_c, 0, 67, 58
2, 47783, Note_on_c, 0, 67, 0
2, 47784, Note_on_c, 0, 75, 58
2, 47807, Note_on_c, 0, 75, 0
2, 47808, Note_on_c, 0, 84, 58
2, 47831, Note_on_c, 0, 84, 0
2, 47832, Note_on_c, 0, 75, 58
2, 47855, Note_on_c, 0, 75, 0
2, 47856, Note_on_c, 0, 68, 58
2, 47879, Note_on_c, 0, 68, 0
2, 47880, Note_on_c, 0, 75, 58
2, 47903, Note_on_c, 0, 75, 0
2, 47904, Note_on_c, 0, 82, 58
2, 47927, Note_on_c, 0, 82, 0
2, 47928, Note_on_c, 0, 75, 58
2, 47951, Note_on_c, 0, 75, 0
2, 47952, Note_on_c, 0, 66, 58
2, 47975, Note_on_c, 0, 66, 0
2, 47976, Note_on_c, 0, 75, 58
2, 47999, Note_on_c, 0, 75, 0
2, 48000, Note_on_c, 0, 81, 58
2, 48023, Note_on_c, 0, 81, 0
2, 48024, Note_on_c, 0, 75, 58
2, 48047, Note_on_c, 0, 75, 0
2, 48048, Note_on_c, 0, 65, 58
2, 48071, Note_on_c, 0, 65, 0
2, 48072, Note_on_c, 0, 75, 58
2, 48095, Note_on_c, 0, 75, 0
2, 48096, Note_on_c, 0, 82, 58
2, 48119, Note_on_c, 0, 82, 0
2, 48120, Note_on_c, 0, 75, 58
2, 48143, Note_on_c, 0, 75, 0
2, 48144, Note_on_c, 0, 66, 58
2, 48167, Note_on_c, 0, 66, 0
2, 48168, Note_on_c, 0, 75, 58
2, 48191, Note_on_c, 0, 75, 0
2, 48192, Note_on_c, 0, 81, 58
2, 48215, Note_on_c, 0, 81, 0
2, 48216, Note_on_c, 0, 75, 58
2, 48239, Note_on_c, 0, 75, 0
2, 48240, Note_on_c, 0, 65, 58
2, 48263, Note_on_c, 0, 65, 0
2, 48264, Note_on_c, 0, 75, 58
2, 48287, Note_on_c, 0, 75, 0
2, 48288, Note_on_c, 0, 84, 58
2, 48311, Note_on_c, 0, 84, 0
2, 48312, Note_on_c, 0, 75, 58
2, 48335, Note_on_c, 0, 75, 0
2, 48336, Note_on_c, 0, 69, 58
2, 48359, Note_on_c, 0, 69, 0
2, 48360, Note_on_c, 0, 75, 58
2, 48383, Note_on_c, 0, 75, 0
2, 48384, Note_on_c, 0, 77, 58
2, 48407, Note_on_c, 0, 77, 0
2, 48408, Note_on_c, 0, 74, 58
2, 48431, Note_on_c, 0, 74, 0
2, 48432, Note_on_c, 0, 70, 58
2, 48455, Note_on_c, 0, 70, 0
2, 48456, Note_on_c, 0, 74, 59
2, 48479, Note_on_c, 0, 74, 0
2, 48480, Note_on_c, 0, 79, 59
2, 48503, Note_on_c, 0, 79, 0
2, 48504, Note_on_c, 0, 75, 59
2, 48527, Note_on_c, 0, 75, 0
2, 48528, Note_on_c, 0, 70, 60
2, 48551, Note_on_c, 0, 70, 0
2, 48552, Note_on_c, 0, 75, 60
2, 48575, Note_on_c, 0, 75, 0
2, 48576, Note_on_c, 0, 80, 60
2, 48599, Note_on_c, 0, 80, 0
2, 48600, Note_on_c, 0, 77, 61
2, 48623, Note_on_c, 0, 77, 0
2, 48624, Note_on_c, 0, 70, 61
2, 48647, Note_on_c, 0, 70, 0
2, 48648, Note_on_c, 0, 77, 61
2, 48671, Note_on_c, 0, 77, 0
2, 48672, Note_on_c, 0, 77, 62
2, 48695, Note_on_c, 0, 77, 0
2, 48696, Note_on_c, 0, 74, 62
2, 48719, Note_on_c, 0, 74, 0
2, 48720, Note_on_c, 0, 70, 63
2, 48743, Note_on_c, 0, 70, 0
2, 48744, Note_on_c, 0, 74, 63
2, 48767, Note_on_c, 0, 74, 0
2, 48768, Note_on_c, 0, 79, 63
2, 48791, Note_on_c, 0, 79, 0
2, 48792, Note_on_c, 0, 70, 64
2, 48815, Note_on_c, 0, 70, 0
2, 48816, Note_on_c, 0, 63, 64
2, 48839, Note_on_c, 0, 63, 0
2, 48840, Note_on_c, 0, 70, 64
2, 48863, Note_on_c, 0, 70, 0
2, 48864, Note_on_c, 0, 77, 65
2, 48887, Note_on_c, 0, 77, 0
2, 48888, Note_on_c, 0, 68, 65
2, 48911, Note_on_c, 0, 68, 0
2, 48912, Note_on_c, 0, 63, 65
2, 48935, Note_on_c, 0, 63, 0
2, 48936, Note_on_c, 0, 68, 66
2, 48959, Note_on_c, 0, 68, 0
2, 48960, Note_on_c, 0, 75, 66
2, 48983, Note_on_c, 0, 75, 0
2, 48984, Note_on_c, 0, 67, 67
2, 49007, Note_on_c, 0, 67, 0
2, 49008, Note_on_c, 0, 63, 67
2, 49031, Note_on_c, 0, 63, 0
2, 49032, Note_on_c, 0, 67, 67
2, 49055, Note_on_c, 0, 67, 0
2, 49056, Note_on_c, 0, 79, 68
2, 49079, Note_on_c, 0, 79, 0
2, 49080, Note_on_c, 0, 70, 68
2, 49103, Note_on_c, 0, 70, 0
2, 49104, Note_on_c, 0, 63, 68
2, 49127, Note_on_c, 0, 63, 0
2, 49128, Note_on_c, 0, 70, 69
2, 49151, Note_on_c, 0, 70, 0
2, 49152, Note_on_c, 0, 80, 69
2, 49175, Note_on_c, 0, 80, 0
2, 49176, Note_on_c, 0, 72, 69
2, 49199, Note_on_c, 0, 72, 0
2, 49200, Note_on_c, 0, 63, 70
2, 49223, Note_on_c, 0, 63, 0
2, 49224, Note_on_c, 0, 72, 70
2, 49247, Note_on_c, 0, 72, 0
2, 49248, Note_on_c, 0, 79, 70
2, 49271, Note_on_c, 0, 79, 0
2, 49272, Note_on_c, 0, 70, 71
2, 49295, Note_on_c, 0, 70, 0
2, 49296, Note_on_c, 0, 63, 71
2, 49319, Note_on_c, 0, 63, 0
2, 49320, Note_on_c, 0, 70, 72
2, 49343, Note_on_c, 0, 70, 0
2, 49344, Note_on_c, 0, 77, 72
2, 49367, Note_on_c, 0, 77, 0
2, 49368, Note_on_c, 0, 68, 72
2, 49391, Note_on_c, 0, 68, 0
2, 49392, Note_on_c, 0, 63, 73
2, 49415, Note_on_c, 0, 63, 0
2, 49416, Note_on_c, 0, 68, 73
2, 49439, Note_on_c, 0, 68, 0
2, 49440, Note_on_c, 0, 80, 73
2, 49463, Note_on_c, 0, 80, 0
2, 49464, Note_on_c, 0, 72, 74
2, 49487, Note_on_c, 0, 72, 0
2, 49488, Note_on_c, 0, 63, 74
2, 49511, Note_on_c, 0, 63, 0
2, 49512, Note_on_c, 0, 72, 74
2, 49535, Note_on_c, 0, 72, 0
2, 49536, Note_on_c, 0, 79, 75
2, 49559, Note_on_c, 0, 79, 0
2, 49560, Note_on_c, 0, 70, 75
2, 49583, Note_on_c, 0, 70, 0
2, 49584, Note_on_c, 0, 63, 76
2, 49607, Note_on_c, 0, 63, 0
2, 49608, Note_on_c, 0, 70, 76
2, 49631, Note_on_c, 0, 70, 0
2, 49632, Note_on_c, 0, 77, 76
2, 49655, Note_on_c, 0, 77, 0
2, 49656, Note_on_c, 0, 68, 77
2, 49679, Note_on_c, 0, 68, 0
2, 49680, Note_on_c, 0, 63, 77
2, 49703, Note_on_c, 0, 63, 0
2, 49704, Note_on_c, 0, 68, 77
2, 49727, Note_on_c, 0, 68, 0
2, 49728, Note_on_c, 0, 75, 78
2, 49751, Note_on_c, 0, 75, 0
2, 49752, Note_on_c, 0, 67, 78
2, 49775, Note_on_c, 0, 67, 0
2, 49776, Note_on_c, 0, 63, 78
2, 49799, Note_on_c, 0, 63, 0
2, 49800, Note_on_c, 0, 67, 79
2, 49823, Note_on_c, 0, 67, 0
2, 49824, Note_on_c, 0, 82, 79
2, 49847, Note_on_c, 0, 82, 0
2, 49848, Note_on_c, 0, 79, 80
2, 49871, Note_on_c, 0, 79, 0
2, 49872, Note_on_c, 0, 75, 80
2, 49895, Note_on_c, 0, 75, 0
2, 49896, Note_on_c, 0, 79, 80
2, 49919, Note_on_c, 0, 79, 0
2, 49920, Note_on_c, 0, 82, 80
2, 49943, Note_on_c, 0, 82, 0
2, 49944, Note_on_c, 0, 77, 80
2, 49967, Note_on_c, 0, 77, 0
2, 49968, Note_on_c, 0, 74, 80
2, 49991, Note_on_c, 0, 74, 0
2, 49992, Note_on_c, 0, 77, 80
2, 50015, Note_on_c, 0, 77, 0
2, 50016, Note_on_c, 0, 82, 80
2, 50039, Note_on_c, 0, 82, 0
2, 50040, Note_on_c, 0, 75, 80
2, 50063, Note_on_c, 0, 75, 0
2, 50064, Note_on_c, 0, 72, 80
2, 50087, Note_on_c, 0, 72, 0
2, 50088, Note_on_c, 0, 75, 80
2, 50111, Note_on_c, 0, 75, 0
2, 50112, Note_on_c, 0, 82, 80
2, 50135, Note_on_c, 0, 82, 0
2, 50136, Note_on_c, 0, 74, 80
2, 50159, Note_on_c, 0, 74, 0
2, 50160, Note_on_c, 0, 70, 76
2, 50183, Note_on_c, 0, 70, 0
2, 50184, Note_on_c, 0, 74, 72
2, 50207, Note_on_c, 0, 74, 0
2, 50208, Note_on_c, 0, 82, 68
2, 50231, Note_on_c, 0, 82, 0
2, 50232, Note_on_c, 0, 79, 64
2, 50255, Note_on_c, 0, 79, 0
2, 50256, Note_on_c, 0, 75, 64
2, 50279, Note_on_c, 0, 75, 0
2, 50280, Note_on_c, 0, 79, 64
2, 50303, Note_on_c, 0, 79, 0
2, 50304, Note_on_c, 0, 82, 64
2, 50327, Note_on_c, 0, 82, 0
2, 50328, Note_on_c, 0, 77, 64
2, 50351, Note_on_c, 0, 77, 0
2, 50352, Note_on_c, 0, 74, 64
2, 50375, Note_on_c, 0, 74, 0
2, 50376, Note_on_c, 0, 77, 64
2, 50399, Note_on_c, 0, 77, 0
2, 50400, Note_on_c, 0, 82, 64
2, 50423, Note_on_c, 0, 82, 0
2, 50424, Note_on_c, 0, 75, 64
2, 50447, Note_on_c, 0, 75, 0
2, 50448, Note_on_c, 0, 72, 64
2, 50471, Note_on_c, 0, 72, 0
2, 50472, Note_on_c, 0, 75, 64
2, 50495, Note_on_c, 0, 75, 0
2, 50496, Note_on_c, 0, 82, 64
2, 50519, Note_on_c, 0, 82, 0
2, 50520, Note_on_c, 0, 74, 64
2, 50543, Note_on_c, 0, 74, 0
2, 50544, Note_on_c, 0, 70, 64
2, 50567, Note_on_c, 0, 70, 0
2, 50568, Note_on_c, 0, 74, 64
2, 50591, Note_on_c, 0, 74, 0
2, 50592, Note_on_c, 0, 82, 64
2, 50615, Note_on_c, 0, 82, 0
2, 50616, Note_on_c, 0, 74, 64
2, 50639, Note_on_c, 0, 74, 0
2, 50640, Note_on_c, 0, 68, 64
2, 50663, Note_on_c, 0, 68, 0
2, 50664, Note_on_c, 0, 74, 64
2, 50687, Note_on_c, 0, 74, 0
2, 50688, Note_on_c, 0, 83, 64
2, 50711, Note_on_c, 0, 83, 0
2, 50712, Note_on_c, 0, 74, 64
2, 50735, Note_on_c, 0, 74, 0
2, 50736, Note_on_c, 0, 67, 65
2, 50759, Note_on_c, 0, 67, 0
2, 50760, Note_on_c, 0, 74, 66
2, 50783, Note_on_c, 0, 74, 0
2, 50784, Note_on_c, 0, 83, 66
2, 50807, Note_on_c, 0, 83, 0
2, 50808, Note_on_c, 0, 74, 67
2, 50831, Note_on_c, 0, 74, 0
2, 50832, Note_on_c, 0, 67, 68
2, 50855, Note_on_c, 0, 67, 0
2, 50856, Note_on_c, 0, 74, 68
2, 50879, Note_on_c, 0, 74, 0
2, 50880, Note_on_c, 0, 84, 69
2, 50903, Note_on_c, 0, 84, 0
2, 50904, Note_on_c, 0, 75, 70
2, 50927, Note_on_c, 0, 75, 0
2, 50928, Note_on_c, 0, 66, 70
2, 50951, Note_on_c, 0, 66, 0
2, 50952, Note_on_c, 0, 75, 71
2, 50975, Note_on_c, 0, 75, 0
2, 50976, Note_on_c, 0, 84, 72
2, 50999, Note_on_c, 0, 84, 0
2, 51000, Note_on_c, 0, 75, 72
2, 51023, Note_on_c, 0, 75, 0
2, 51024, Note_on_c, 0, 66, 73
2, 51047, Note_on_c, 0, 66, 0
2, 51048, Note_on_c, 0, 75, 74
2, 51071, Note_on_c, 0, 75, 0
2, 51072, Note_on_c, 0, 83, 74
2, 51095, Note_on_c, 0, 83, 0
2, 51096, Note_on_c, 0, 74, 75
2, 51119, Note_on_c, 0, 74, 0
2, 51120, Note_on_c, 0, 67, 76
2, 51143, Note_on_c, 0, 67, 0
2, 51144, Note_on_c, 0, 74, 76
2, 51167, Note_on_c, 0, 74, 0
2, 51168, Note_on_c, 0, 83, 77
2, 51191, Note_on_c, 0, 83, 0
2, 51192, Note_on_c, 0, 74, 78
2, 51215, Note_on_c, 0, 74, 0
2, 51216, Note_on_c, 0, 67, 78
2, 51239, Note_on_c, 0, 67, 0
2, 51240, Note_on_c, 0, 74, 79
2, 51263, Note_on_c, 0, 74, 0
2, 51264, Note_on_c, 0, 84, 80
2, 51287, Note_on_c, 0, 84, 0
2, 51288, Note_on_c, 0, 75, 80
2, 51311, Note_on_c, 0, 75, 0
2, 51312, Note_on_c, 0, 66, 81
2, 51335, Note_on_c, 0, 66, 0
2, 51336, Note_on_c, 0, 75, 82
2, 51359, Note_on_c, 0, 75, 0
2, 51360, Note_on_c, 0, 84, 82
2, 51383, Note_on_c, 0, 84, 0
2, 51384, Note_on_c, 0, 75, 83
2, 51407, Note_on_c, 0, 75, 0
2, 51408, Note_on_c, 0, 66, 84
2, 51431, Note_on_c, 0, 66, 0
2, 51432, Note_on_c, 0, 75, 84
2, 51455, Note_on_c, 0, 75, 0
2, 51456, Note_on_c, 0, 83, 85
2, 51479, Note_on_c, 0, 83, 0
2, 51480, Note_on_c, 0, 71, 86
2, 51503, Note_on_c, 0, 71, 0
2, 51552, Note_on_c, 0, 79, 86
2, 51575, Note_on_c, 0, 79, 0
2, 51576, Note_on_c, 0, 67, 86
2, 51599, Note_on_c, 0, 67, 0
2, 51648, Note_on_c, 0, 74, 86
2, 51671, Note_on_c, 0, 74, 0
2, 51672, Note_on_c, 0, 62, 86
2, 51695, Note_on_c, 0, 62, 0
2, 51744, Note_on_c, 0, 71, 86
2, 51767, Note_on_c, 0, 71, 0
2, 51768, Note_on_c, 0, 59, 86
2, 51791, Note_on_c, 0, 59, 0
2, 51984, Note_on_c, 0, 67, 80
2, 52029, Note_on_c, 0, 67, 0
2, 52032, Note_on_c, 0, 67, 64
2, 52077, Note_on_c, 0, 67, 0
2, 52080, Note_on_c, 0, 67, 64
2, 52125, Note_on_c, 0, 67, 0
2, 52128, Note_on_c, 0, 67, 64
2, 52173, Note_on_c, 0, 67, 0
2, 52176, Note_on_c, 0, 68, 80
2, 52176, Note_on_c, 0, 67, 80
2, 52221, Note_on_c, 0, 68, 0
2, 52221, Note_on_c, 0, 67, 0
2, 52224, Note_on_c, 0, 68, 64
2, 52224, Note_on_c, 0, 67, 64
2, 52269, Note_on_c, 0, 68, 0
2, 52269, Note_on_c, 0, 67, 0
2, 52272, Note_on_c, 0, 68, 64
2, 52272, Note_on_c, 0, 67, 64
2, 52317, Note_on_c, 0, 68, 0
2, 52317, Note_on_c, 0, 67, 0
2, 52320, Note_on_c, 0, 68, 64
2, 52320, Note_on_c, 0, 67, 64
2, 52365, Note_on_c, 0, 68, 0
2, 52365, Note_on_c, 0, 67, 0
2, 52368, Note_on_c, 0, 68, 80
2, 52368, Note_on_c, 0, 65, 80
2, 52413, Note_on_c, 0, 68, 0
2, 52413, Note_on_c, 0, 65, 0
2, 52416, Note_on_c, 0, 68, 64
2, 52416, Note_on_c, 0, 65, 64
2, 52461, Note_on_c, 0, 68, 0
2, 52461, Note_on_c, 0, 65, 0
2, 52464, Note_on_c, 0, 68, 64
2, 52464, Note_on_c, 0, 65, 64
2, 52509, Note_on_c, 0, 68, 0
2, 52509, Note_on_c, 0, 65, 0
2, 52512, Note_on_c, 0, 68, 64
2, 52512, Note_on_c, 0, 65, 64
2, 52557, Note_on_c, 0, 68, 0
2, 52557, Note_on_c, 0, 65, 0
2, 52560, Note_on_c, 0, 68, 64
2, 52560, Note_on_c, 0, 65, 64
2, 52605, Note_on_c, 0, 68, 0
2, 52605, Note_on_c, 0, 65, 0
2, 52608, Note_on_c, 0, 67, 64
2, 52608, Note_on_c, 0, 65, 64
2, 52697, Note_on_c, 0, 67, 0
2, 52697, Note_on_c, 0, 65, 0
2, 52752, Note_on_c, 0, 72, 80
2, 52797, Note_on_c, 0, 72, 0
2, 52800, Note_on_c, 0, 72, 64
2, 52845, Note_on_c, 0, 72, 0
2, 52848, Note_on_c, 0, 72, 64
2, 52893, Note_on_c, 0, 72, 0
2, 52896, Note_on_c, 0, 72, 64
2, 52941, Note_on_c, 0, 72, 0
2, 52944, Note_on_c, 0, 73, 80
2, 52944, Note_on_c, 0, 72, 80
2, 52989, Note_on_c, 0, 73, 0
2, 52989, Note_on_c, 0, 72, 0
2, 52992, Note_on_c, 0, 73, 64
2, 52992, Note_on_c, 0, 72, 64
2, 53037, Note_on_c, 0, 73, 0
2, 53037, Note_on_c, 0, 72, 0
2, 53040, Note_on_c, 0, 73, 64
2, 53040, Note_on_c, 0, 72, 64
2, 53085, Note_on_c, 0, 73, 0
2, 53085, Note_on_c, 0, 72, 0
2, 53088, Note_on_c, 0, 73, 64
2, 53088, Note_on_c, 0, 72, 64
2, 53133, Note_on_c, 0, 73, 0
2, 53133, Note_on_c, 0, 72, 0
2, 53136, Note_on_c, 0, 73, 80
2, 53136, Note_on_c, 0, 70, 80
2, 53181, Note_on_c, 0, 73, 0
2, 53181, Note_on_c, 0, 70, 0
2, 53184, Note_on_c, 0, 73, 64
2, 53184, Note_on_c, 0, 70, 64
2, 53229, Note_on_c, 0, 73, 0
2, 53229, Note_on_c, 0, 70, 0
2, 53232, Note_on_c, 0, 73, 64
2, 53232, Note_on_c, 0, 70, 64
2, 53277, Note_on_c, 0, 73, 0
2, 53277, Note_on_c, 0, 70, 0
2, 53280, Note_on_c, 0, 73, 64
2, 53280, Note_on_c, 0, 70, 64
2, 53325, Note_on_c, 0, 73, 0
2, 53325, Note_on_c, 0, 70, 0
2, 53328, Note_on_c, 0, 73, 64
2, 53328, Note_on_c, 0, 70, 64
2, 53373, Note_on_c, 0, 73, 0
2, 53373, Note_on_c, 0, 70, 0
2, 53376, Note_on_c, 0, 72, 64
2, 53376, Note_on_c, 0, 68, 64
2, 53421, Note_on_c, 0, 72, 0
2, 53421, Note_on_c, 0, 68, 0
2, 53424, Note_on_c, 0, 72, 64
2, 53424, Note_on_c, 0, 68, 64
2, 53469, Note_on_c, 0, 72, 0
2, 53469, Note_on_c, 0, 68, 0
2, 53472, Note_on_c, 0, 72, 58
2, 53472, Note_on_c, 0, 68, 58
2, 53517, Note_on_c, 0, 72, 0
2, 53517, Note_on_c, 0, 68, 0
2, 53520, Note_on_c, 0, 84, 86
2, 53520, Note_on_c, 0, 80, 86
2, 53520, Note_on_c, 0, 75, 86
2, 53565, Note_on_c, 0, 84, 0
2, 53565, Note_on_c, 0, 80, 0
2, 53565, Note_on_c, 0, 75, 0
2, 53568, Note_on_c, 0, 84, 86
2, 53568, Note_on_c, 0, 80, 86
2, 53568, Note_on_c, 0, 75, 86
2, 53613, Note_on_c, 0, 84, 0
2, 53613, Note_on_c, 0, 80, 0
2, 53613, Note_on_c, 0, 75, 0
2, 53616, Note_on_c, 0, 84, 86
2, 53616, Note_on_c, 0, 80, 86
2, 53616, Note_on_c, 0, 75, 86
2, 53661, Note_on_c, 0, 84, 0
2, 53661, Note_on_c, 0, 80, 0
2, 53661, Note_on_c, 0, 75, 0
2, 53664, Note_on_c, 0, 84, 86
2, 53664, Note_on_c, 0, 80, 86
2, 53664, Note_on_c, 0, 75, 86
2, 53709, Note_on_c, 0, 84, 0
2, 53709, Note_on_c, 0, 80, 0
2, 53709, Note_on_c, 0, 75, 0
2, 53712, Note_on_c, 0, 84, 86
2, 53712, Note_on_c, 0, 80, 86
2, 53712, Note_on_c, 0, 75, 86
2, 53757, Note_on_c, 0, 84, 0
2, 53757, Note_on_c, 0, 80, 0
2, 53757, Note_on_c, 0, 75, 0
2, 53760, Note_on_c, 0, 79, 86
2, 53760, Note_on_c, 0, 73, 86
2, 53856, Note_on_c, 0, 79, 0
2, 53856, Note_on_c, 0, 73, 0
2, 53856, Note_on_c, 0, 80, 86
2, 53856, Note_on_c, 0, 72, 86
2, 53903, Note_on_c, 0, 80, 0
2, 53903, Note_on_c, 0, 72, 0
2, 53904, Note_on_c, 0, 87, 64
2, 53904, Note_on_c, 0, 84, 64
2, 53949, Note_on_c, 0, 87, 0
2, 53949, Note_on_c, 0, 84, 0
2, 53952, Note_on_c, 0, 87, 64
2, 53952, Note_on_c, 0, 84, 64
2, 53997, Note_on_c, 0, 87, 0
2, 53997, Note_on_c, 0, 84, 0
2, 54000, Note_on_c, 0, 87, 64
2, 54000, Note_on_c, 0, 84, 64
2, 54045, Note_on_c, 0, 87, 0
2, 54045, Note_on_c, 0, 84, 0
2, 54048, Note_on_c, 0, 87, 64
2, 54048, Note_on_c, 0, 84, 64
2, 54093, Note_on_c, 0, 87, 0
2, 54093, Note_on_c, 0, 84, 0
2, 54096, Note_on_c, 0, 87, 64
2, 54096, Note_on_c, 0, 84, 64
2, 54141, Note_on_c, 0, 87, 0
2, 54141, Note_on_c, 0, 84, 0
2, 54144, Note_on_c, 0, 82, 64
2, 54144, Note_on_c, 0, 79, 64
2, 54240, Note_on_c, 0, 82, 0
2, 54240, Note_on_c, 0, 79, 0
2, 54240, Note_on_c, 0, 84, 64
2, 54240, Note_on_c, 0, 80, 64
2, 54287, Note_on_c, 0, 84, 0
2, 54287, Note_on_c, 0, 80, 0
2, 54288, Note_on_c, 0, 84, 64
2, 54288, Note_on_c, 0, 80, 64
2, 54333, Note_on_c, 0, 84, 0
2, 54333, Note_on_c, 0, 80, 0
2, 54336, Note_on_c, 0, 84, 64
2, 54336, Note_on_c, 0, 80, 64
2, 54381, Note_on_c, 0, 84, 0
2, 54381, Note_on_c, 0, 80, 0
2, 54384, Note_on_c, 0, 84, 64
2, 54384, Note_on_c, 0, 80, 64
2, 54429, Note_on_c, 0, 84, 0
2, 54429, Note_on_c, 0, 80, 0
2, 54432, Note_on_c, 0, 84, 64
2, 54432, Note_on_c, 0, 80, 64
2, 54477, Note_on_c, 0, 84, 0
2, 54477, Note_on_c, 0, 80, 0
2, 54480, Note_on_c, 0, 84, 64
2, 54480, Note_on_c, 0, 80, 64
2, 54525, Note_on_c, 0, 84, 0
2, 54525, Note_on_c, 0, 80, 0
2, 54528, Note_on_c, 0, 79, 64
2, 54528, Note_on_c, 0, 76, 64
2, 54624, Note_on_c, 0, 79, 0
2, 54624, Note_on_c, 0, 76, 0
2, 54624, Note_on_c, 0, 80, 64
2, 54624, Note_on_c, 0, 77, 64
2, 54671, Note_on_c, 0, 80, 0
2, 54671, Note_on_c, 0, 77, 0
2, 54864, Note_on_c, 0, 80, 64
2, 54864, Note_on_c, 0, 77, 64
2, 54909, Note_on_c, 0, 80, 0
2, 54909, Note_on_c, 0, 77, 0
2, 54912, Note_on_c, 0, 80, 64
2, 54912, Note_on_c, 0, 77, 64
2, 54957, Note_on_c, 0, 80, 0
2, 54957, Note_on_c, 0, 77, 0
2, 54960, Note_on_c, 0, 80, 64
2, 54960, Note_on_c, 0, 77, 64
2, 55005, Note_on_c, 0, 80, 0
2, 55005, Note_on_c, 0, 77, 0
2, 55008, Note_on_c, 0, 80, 64
2, 55008, Note_on_c, 0, 77, 64
2, 55053, Note_on_c, 0, 80, 0
2, 55053, Note_on_c, 0, 77, 0
2, 55056, Note_on_c, 0, 80, 64
2, 55056, Note_on_c, 0, 77, 64
2, 55101, Note_on_c, 0, 80, 0
2, 55101, Note_on_c, 0, 77, 0
2, 55104, Note_on_c, 0, 80, 64
2, 55104, Note_on_c, 0, 77, 64
2, 55200, Note_on_c, 0, 80, 0
2, 55200, Note_on_c, 0, 77, 0
2, 55200, Note_on_c, 0, 79, 64
2, 55200, Note_on_c, 0, 76, 64
2, 55245, Note_on_c, 0, 79, 0
2, 55245, Note_on_c, 0, 76, 0
2, 55248, Note_on_c, 0, 78, 64
2, 55248, Note_on_c, 0, 75, 64
2, 55293, Note_on_c, 0, 78, 0
2, 55293, Note_on_c, 0, 75, 0
2, 55296, Note_on_c, 0, 78, 64
2, 55296, Note_on_c, 0, 75, 64
2, 55341, Note_on_c, 0, 78, 0
2, 55341, Note_on_c, 0, 75, 0
2, 55344, Note_on_c, 0, 78, 64
2, 55344, Note_on_c, 0, 75, 64
2, 55389, Note_on_c, 0, 78, 0
2, 55389, Note_on_c, 0, 75, 0
2, 55392, Note_on_c, 0, 78, 64
2, 55392, Note_on_c, 0, 75, 64
2, 55437, Note_on_c, 0, 78, 0
2, 55437, Note_on_c, 0, 75, 0
2, 55440, Note_on_c, 0, 78, 64
2, 55440, Note_on_c, 0, 75, 64
2, 55485, Note_on_c, 0, 78, 0
2, 55485, Note_on_c, 0, 75, 0
2, 55488, Note_on_c, 0, 78, 64
2, 55488, Note_on_c, 0, 75, 64
2, 55584, Note_on_c, 0, 78, 0
2, 55584, Note_on_c, 0, 75, 0
2, 55584, Note_on_c, 0, 77, 64
2, 55584, Note_on_c, 0, 74, 64
2, 55629, Note_on_c, 0, 77, 0
2, 55629, Note_on_c, 0, 74, 0
2, 55632, Note_on_c, 0, 82, 80
2, 55677, Note_on_c, 0, 82, 0
2, 55680, Note_on_c, 0, 81, 64
2, 55725, Note_on_c, 0, 81, 0
2, 55728, Note_on_c, 0, 80, 64
2, 55773, Note_on_c, 0, 80, 0
2, 55776, Note_on_c, 0, 79, 64
2, 55821, Note_on_c, 0, 79, 0
2, 55824, Note_on_c, 0, 78, 64
2, 55869, Note_on_c, 0, 78, 0
2, 55872, Note_on_c, 0, 77, 64
2, 55917, Note_on_c, 0, 77, 0
2, 55920, Note_on_c, 0, 76, 64
2, 55965, Note_on_c, 0, 76, 0
2, 55968, Note_on_c, 0, 77, 64
2, 56013, Note_on_c, 0, 77, 0
2, 56016, Note_on_c, 0, 80, 80
2, 56061, Note_on_c, 0, 80, 0
2, 56064, Note_on_c, 0, 79, 64
2, 56109, Note_on_c, 0, 79, 0
2, 56112, Note_on_c, 0, 78, 64
2, 56157, Note_on_c, 0, 78, 0
2, 56160, Note_on_c, 0, 77, 64
2, 56205, Note_on_c, 0, 77, 0
2, 56208, Note_on_c, 0, 76, 64
2, 56253, Note_on_c, 0, 76, 0
2, 56256, Note_on_c, 0, 75, 64
2, 56301, Note_on_c, 0, 75, 0
2, 56304, Note_on_c, 0, 74, 64
2, 56349, Note_on_c, 0, 74, 0
2, 56352, Note_on_c, 0, 75, 64
2, 56397, Note_on_c, 0, 75, 0
2, 56400, Note_on_c, 0, 87, 80
2, 56445, Note_on_c, 0, 87, 0
2, 56448, Note_on_c, 0, 86, 80
2, 56493, Note_on_c, 0, 86, 0
2, 56496, Note_on_c, 0, 85, 80
2, 56541, Note_on_c, 0, 85, 0
2, 56544, Note_on_c, 0, 84, 80
2, 56589, Note_on_c, 0, 84, 0
2, 56592, Note_on_c, 0, 83, 80
2, 56637, Note_on_c, 0, 83, 0
2, 56640, Note_on_c, 0, 82, 80
2, 56817, Note_on_c, 0, 82, 0
2, 56832, Note_on_c, 0, 72, 80
2, 56838, Note_on_c, 0, 75, 80
2, 56844, Note_on_c, 0, 77, 80
2, 56850, Note_on_c, 0, 81, 80
2, 57017, Note_on_c, 0, 81, 0
2, 57017, Note_on_c, 0, 77, 0
2, 57017, Note_on_c, 0, 75, 0
2, 57017, Note_on_c, 0, 72, 0
2, 57168, Note_on_c, 0, 80, 80
2, 57188, Note_on_c, 0, 80, 0
2, 57216, Note_on_c, 0, 79, 80
2, 57261, Note_on_c, 0, 79, 0
2, 57264, Note_on_c, 0, 78, 80
2, 57309, Note_on_c, 0, 78, 0
2, 57312, Note_on_c, 0, 77, 80
2, 57357, Note_on_c, 0, 77, 0
2, 57360, Note_on_c, 0, 76, 80
2, 57405, Note_on_c, 0, 76, 0
2, 57408, Note_on_c, 0, 75, 80
2, 57541, Note_on_c, 0, 75, 0
2, 57552, Note_on_c, 0, 74, 80
2, 57575, Note_on_c, 0, 74, 0
2, 57576, Note_on_c, 0, 84, 80
2, 57599, Note_on_c, 0, 84, 0
2, 57600, Note_on_c, 0, 83, 80
2, 57623, Note_on_c, 0, 83, 0
2, 57624, Note_on_c, 0, 82, 80
2, 57647, Note_on_c, 0, 82, 0
2, 57648, Note_on_c, 0, 81, 80
2, 57671, Note_on_c, 0, 81, 0
2, 57672, Note_on_c, 0, 80, 80
2, 57695, Note_on_c, 0, 80, 0
2, 57696, Note_on_c, 0, 79, 80
2, 57719, Note_on_c, 0, 79, 0
2, 57720, Note_on_c, 0, 78, 80
2, 57743, Note_on_c, 0, 78, 0
2, 57744, Note_on_c, 0, 77, 80
2, 57767, Note_on_c, 0, 77, 0
2, 57768, Note_on_c, 0, 76, 80
2, 57791, Note_on_c, 0, 76, 0
2, 57792, Note_on_c, 0, 75, 86
2, 57886, Note_on_c, 0, 75, 0
2, 57888, Note_on_c, 0, 74, 86
2, 57900, Note_on_c, 0, 74, 0
2, 57900, Note_on_c, 0, 75, 86
2, 57912, Note_on_c, 0, 75, 0
2, 57912, Note_on_c, 0, 77, 86
2, 57924, Note_on_c, 0, 77, 0
2, 57924, Note_on_c, 0, 75, 86
2, 57936, Note_on_c, 0, 75, 0
2, 57936, Note_on_c, 0, 74, 86
2, 57959, Note_on_c, 0, 74, 0
2, 57960, Note_on_c, 0, 77, 86
2, 57983, Note_on_c, 0, 77, 0
2, 57984, Note_on_c, 0, 75, 86
2, 58007, Note_on_c, 0, 75, 0
2, 58008, Note_on_c, 0, 74, 86
2, 58031, Note_on_c, 0, 74, 0
2, 58032, Note_on_c, 0, 74, 86
2, 58265, Note_on_c, 0, 74, 0
2, 58320, Note_on_c, 0, 67, 64
2, 58365, Note_on_c, 0, 67, 0
2, 58368, Note_on_c, 0, 67, 64
2, 58413, Note_on_c, 0, 67, 0
2, 58416, Note_on_c, 0, 67, 64
2, 58461, Note_on_c, 0, 67, 0
2, 58464, Note_on_c, 0, 67, 64
2, 58509, Note_on_c, 0, 67, 0
2, 58512, Note_on_c, 0, 67, 64
2, 58557, Note_on_c, 0, 67, 0
2, 58560, Note_on_c, 0, 67, 64
2, 58656, Note_on_c, 0, 67, 0
2, 58656, Note_on_c, 0, 70, 64
2, 58701, Note_on_c, 0, 70, 0
2, 58704, Note_on_c, 0, 63, 64
2, 58749, Note_on_c, 0, 63, 0
2, 58752, Note_on_c, 0, 62, 64
2, 58797, Note_on_c, 0, 62, 0
2, 58800, Note_on_c, 0, 65, 64
2, 58845, Note_on_c, 0, 65, 0
2, 58848, Note_on_c, 0, 68, 64
2, 58893, Note_on_c, 0, 68, 0
2, 58896, Note_on_c, 0, 62, 64
2, 58941, Note_on_c, 0, 62, 0
2, 58944, Note_on_c, 0, 63, 64
2, 58989, Note_on_c, 0, 63, 0
2, 58992, Note_on_c, 0, 67, 64
2, 59037, Note_on_c, 0, 67, 0
2, 59040, Note_on_c, 0, 58, 64
2, 59085, Note_on_c, 0, 58, 0
2, 59088, Note_on_c, 0, 58, 64
2, 59133, Note_on_c, 0, 58, 0
2, 59136, Note_on_c, 0, 56, 64
2, 59181, Note_on_c, 0, 56, 0
2, 59184, Note_on_c, 0, 62, 64
2, 59229, Note_on_c, 0, 62, 0
2, 59232, Note_on_c, 0, 65, 64
2, 59277, Note_on_c, 0, 65, 0
2, 59280, Note_on_c, 0, 62, 64
2, 59325, Note_on_c, 0, 62, 0
2, 59328, Note_on_c, 0, 63, 64
2, 59373, Note_on_c, 0, 63, 0
2, 59376, Note_on_c, 0, 67, 64
2, 59421, Note_on_c, 0, 67, 0
2, 59424, Note_on_c, 0, 58, 64
2, 59469, Note_on_c, 0, 58, 0
2, 59472, Note_on_c, 0, 58, 64
2, 59517, Note_on_c, 0, 58, 0
2, 59520, Note_on_c, 0, 56, 64
2, 59565, Note_on_c, 0, 56, 0
2, 59568, Note_on_c, 0, 62, 64
2, 59613, Note_on_c, 0, 62, 0
2, 59616, Note_on_c, 0, 65, 64
2, 59661, Note_on_c, 0, 65, 0
2, 59664, Note_on_c, 0, 62, 64
2, 59709, Note_on_c, 0, 62, 0
2, 59712, Note_on_c, 0, 63, 64
2, 59801, Note_on_c, 0, 63, 0
2, 59856, Note_on_c, 0, 68, 64
2, 59901, Note_on_c, 0, 68, 0
2, 59904, Note_on_c, 0, 68, 64
2, 59949, Note_on_c, 0, 68, 0
2, 59952, Note_on_c, 0, 68, 64
2, 59997, Note_on_c, 0, 68, 0
2, 60000, Note_on_c, 0, 68, 64
2, 60045, Note_on_c, 0, 68, 0
2, 60048, Note_on_c, 0, 68, 64
2, 60093, Note_on_c, 0, 68, 0
2, 60096, Note_on_c, 0, 68, 64
2, 60192, Note_on_c, 0, 68, 0
2, 60192, Note_on_c, 0, 72, 64
2, 60237, Note_on_c, 0, 72, 0
2, 60240, Note_on_c, 0, 65, 64
2, 60285, Note_on_c, 0, 65, 0
2, 60288, Note_on_c, 0, 64, 64
2, 60333, Note_on_c, 0, 64, 0
2, 60336, Note_on_c, 0, 67, 64
2, 60381, Note_on_c, 0, 67, 0
2, 60384, Note_on_c, 0, 70, 64
2, 60429, Note_on_c, 0, 70, 0
2, 60432, Note_on_c, 0, 64, 64
2, 60477, Note_on_c, 0, 64, 0
2, 60480, Note_on_c, 0, 65, 64
2, 60525, Note_on_c, 0, 65, 0
2, 60528, Note_on_c, 0, 68, 64
2, 60573, Note_on_c, 0, 68, 0
2, 60576, Note_on_c, 0, 60, 64
2, 60621, Note_on_c, 0, 60, 0
2, 60624, Note_on_c, 0, 60, 64
2, 60669, Note_on_c, 0, 60, 0
2, 60672, Note_on_c, 0, 64, 64
2, 60717, Note_on_c, 0, 64, 0
2, 60720, Note_on_c, 0, 67, 64
2, 60765, Note_on_c, 0, 67, 0
2, 60768, Note_on_c, 0, 70, 64
2, 60813, Note_on_c, 0, 70, 0
2, 60816, Note_on_c, 0, 64, 64
2, 60861, Note_on_c, 0, 64, 0
2, 60864, Note_on_c, 0, 65, 64
2, 60909, Note_on_c, 0, 65, 0
2, 60912, Note_on_c, 0, 68, 64
2, 60957, Note_on_c, 0, 68, 0
2, 60960, Note_on_c, 0, 60, 64
2, 61005, Note_on_c, 0, 60, 0
2, 61008, Note_on_c, 0, 60, 64
2, 61053, Note_on_c, 0, 60, 0
2, 61056, Note_on_c, 0, 64, 64
2, 61101, Note_on_c, 0, 64, 0
2, 61104, Note_on_c, 0, 67, 64
2, 61149, Note_on_c, 0, 67, 0
2, 61152, Note_on_c, 0, 70, 64
2, 61197, Note_on_c, 0, 70, 0
2, 61200, Note_on_c, 0, 64, 64
2, 61245, Note_on_c, 0, 64, 0
2, 61248, Note_on_c, 0, 65, 64
2, 61337, Note_on_c, 0, 65, 0
2, 61584, Note_on_c, 0, 84, 80
2, 61607, Note_on_c, 0, 84, 0
2, 61608, Note_on_c, 0, 82, 80
2, 61631, Note_on_c, 0, 82, 0
2, 61632, Note_on_c, 0, 80, 80
2, 61655, Note_on_c, 0, 80, 0
2, 61656, Note_on_c, 0, 79, 80
2, 61679, Note_on_c, 0, 79, 0
2, 61680, Note_on_c, 0, 77, 80
2, 61703, Note_on_c, 0, 77, 0
2, 61704, Note_on_c, 0, 75, 80
2, 61727, Note_on_c, 0, 75, 0
2, 61728, Note_on_c, 0, 74, 80
2, 61751, Note_on_c, 0, 74, 0
2, 61752, Note_on_c, 0, 75, 79
2, 61775, Note_on_c, 0, 75, 0
2, 61776, Note_on_c, 0, 77, 78
2, 61799, Note_on_c, 0, 77, 0
2, 61800, Note_on_c, 0, 74, 77
2, 61823, Note_on_c, 0, 74, 0
2, 61824, Note_on_c, 0, 75, 76
2, 61847, Note_on_c, 0, 75, 0
2, 61848, Note_on_c, 0, 79, 75
2, 61871, Note_on_c, 0, 79, 0
2, 61872, Note_on_c, 0, 77, 75
2, 61895, Note_on_c, 0, 77, 0
2, 61896, Note_on_c, 0, 75, 74
2, 61919, Note_on_c, 0, 75, 0
2, 61920, Note_on_c, 0, 74, 73
2, 61943, Note_on_c, 0, 74, 0
2, 61944, Note_on_c, 0, 72, 72
2, 61967, Note_on_c, 0, 72, 0
2, 61968, Note_on_c, 0, 70, 71
2, 61991, Note_on_c, 0, 70, 0
2, 61992, Note_on_c, 0, 75, 70
2, 62015, Note_on_c, 0, 75, 0
2, 62016, Note_on_c, 0, 74, 70
2, 62039, Note_on_c, 0, 74, 0
2, 62040, Note_on_c, 0, 75, 70
2, 62063, Note_on_c, 0, 75, 0
2, 62064, Note_on_c, 0, 77, 70
2, 62087, Note_on_c, 0, 77, 0
2, 62088, Note_on_c, 0, 79, 70
2, 62111, Note_on_c, 0, 79, 0
2, 62112, Note_on_c, 0, 80, 70
2, 62135, Note_on_c, 0, 80, 0
2, 62136, Note_on_c, 0, 77, 70
2, 62159, Note_on_c, 0, 77, 0
2, 62160, Note_on_c, 0, 75, 70
2, 62183, Note_on_c, 0, 75, 0
2, 62184, Note_on_c, 0, 74, 70
2, 62207, Note_on_c, 0, 74, 0
2, 62208, Note_on_c, 0, 75, 70
2, 62231, Note_on_c, 0, 75, 0
2, 62232, Note_on_c, 0, 79, 70
2, 62255, Note_on_c, 0, 79, 0
2, 62256, Note_on_c, 0, 77, 70
2, 62279, Note_on_c, 0, 77, 0
2, 62280, Note_on_c, 0, 75, 70
2, 62303, Note_on_c, 0, 75, 0
2, 62304, Note_on_c, 0, 74, 70
2, 62327, Note_on_c, 0, 74, 0
2, 62328, Note_on_c, 0, 72, 70
2, 62351, Note_on_c, 0, 72, 0
2, 62352, Note_on_c, 0, 70, 70
2, 62375, Note_on_c, 0, 70, 0
2, 62376, Note_on_c, 0, 75, 70
2, 62399, Note_on_c, 0, 75, 0
2, 62400, Note_on_c, 0, 74, 70
2, 62423, Note_on_c, 0, 74, 0
2, 62424, Note_on_c, 0, 75, 70
2, 62447, Note_on_c, 0, 75, 0
2, 62448, Note_on_c, 0, 77, 70
2, 62471, Note_on_c, 0, 77, 0
2, 62472, Note_on_c, 0, 79, 71
2, 62495, Note_on_c, 0, 79, 0
2, 62496, Note_on_c, 0, 80, 71
2, 62519, Note_on_c, 0, 80, 0
2, 62520, Note_on_c, 0, 77, 72
2, 62543, Note_on_c, 0, 77, 0
2, 62544, Note_on_c, 0, 75, 72
2, 62567, Note_on_c, 0, 75, 0
2, 62568, Note_on_c, 0, 74, 72
2, 62591, Note_on_c, 0, 74, 0
2, 62592, Note_on_c, 0, 75, 73
2, 62615, Note_on_c, 0, 75, 0
2, 62616, Note_on_c, 0, 77, 73
2, 62639, Note_on_c, 0, 77, 0
2, 62640, Note_on_c, 0, 79, 74
2, 62663, Note_on_c, 0, 79, 0
2, 62664, Note_on_c, 0, 77, 74
2, 62687, Note_on_c, 0, 77, 0
2, 62688, Note_on_c, 0, 75, 74
2, 62711, Note_on_c, 0, 75, 0
2, 62712, Note_on_c, 0, 74, 75
2, 62735, Note_on_c, 0, 74, 0
2, 62736, Note_on_c, 0, 72, 75
2, 62759, Note_on_c, 0, 72, 0
2, 62760, Note_on_c, 0, 70, 76
2, 62783, Note_on_c, 0, 70, 0
2, 62784, Note_on_c, 0, 72, 76
2, 62807, Note_on_c, 0, 72, 0
2, 62808, Note_on_c, 0, 75, 76
2, 62831, Note_on_c, 0, 75, 0
2, 62832, Note_on_c, 0, 77, 77
2, 62855, Note_on_c, 0, 77, 0
2, 62856, Note_on_c, 0, 75, 77
2, 62879, Note_on_c, 0, 75, 0
2, 62880, Note_on_c, 0, 74, 78
2, 62903, Note_on_c, 0, 74, 0
2, 62904, Note_on_c, 0, 72, 78
2, 62927, Note_on_c, 0, 72, 0
2, 62928, Note_on_c, 0, 70, 78
2, 62951, Note_on_c, 0, 70, 0
2, 62952, Note_on_c, 0, 68, 79
2, 62975, Note_on_c, 0, 68, 0
2, 62976, Note_on_c, 0, 67, 79
2, 62999, Note_on_c, 0, 67, 0
2, 63000, Note_on_c, 0, 70, 80
2, 63023, Note_on_c, 0, 70, 0
2, 63024, Note_on_c, 0, 67, 80
2, 63047, Note_on_c, 0, 67, 0
2, 63048, Note_on_c, 0, 70, 80
2, 63071, Note_on_c, 0, 70, 0
2, 63072, Note_on_c, 0, 65, 80
2, 63095, Note_on_c, 0, 65, 0
2, 63096, Note_on_c, 0, 68, 80
2, 63119, Note_on_c, 0, 68, 0
2, 63120, Note_on_c, 0, 65, 80
2, 63143, Note_on_c, 0, 65, 0
2, 63144, Note_on_c, 0, 68, 80
2, 63167, Note_on_c, 0, 68, 0
2, 63168, Note_on_c, 0, 63, 80
2, 63191, Note_on_c, 0, 63, 0
2, 63192, Note_on_c, 0, 67, 80
2, 63215, Note_on_c, 0, 67, 0
2, 63216, Note_on_c, 0, 63, 80
2, 63239, Note_on_c, 0, 63, 0
2, 63240, Note_on_c, 0, 67, 80
2, 63263, Note_on_c, 0, 67, 0
2, 63264, Note_on_c, 0, 62, 80
2, 63287, Note_on_c, 0, 62, 0
2, 63288, Note_on_c, 0, 65, 80
2, 63311, Note_on_c, 0, 65, 0
2, 63312, Note_on_c, 0, 62, 80
2, 63335, Note_on_c, 0, 62, 0
2, 63336, Note_on_c, 0, 65, 80
2, 63359, Note_on_c, 0, 65, 0
2, 63360, Note_on_c, 0, 63, 80
2, 63383, Note_on_c, 0, 63, 0
2, 63384, Note_on_c, 0, 58, 80
2, 63407, Note_on_c, 0, 58, 0
2, 63408, Note_on_c, 0, 63, 80
2, 63431, Note_on_c, 0, 63, 0
2, 63432, Note_on_c, 0, 58, 80
2, 63455, Note_on_c, 0, 58, 0
2, 63456, Note_on_c, 0, 63, 80
2, 63479, Note_on_c, 0, 63, 0
2, 63480, Note_on_c, 0, 58, 80
2, 63503, Note_on_c, 0, 58, 0
2, 63504, Note_on_c, 0, 63, 80
2, 63527, Note_on_c, 0, 63, 0
2, 63528, Note_on_c, 0, 58, 80
2, 63551, Note_on_c, 0, 58, 0
2, 63552, Note_on_c, 0, 63, 80
2, 63641, Note_on_c, 0, 63, 0
2, 63696, Note_on_c, 0, 79, 64
2, 63741, Note_on_c, 0, 79, 0
2, 63744, Note_on_c, 0, 80, 64
2, 63789, Note_on_c, 0, 80, 0
2, 63792, Note_on_c, 0, 81, 64
2, 63837, Note_on_c, 0, 81, 0
2, 63840, Note_on_c, 0, 82, 64
2, 63885, Note_on_c, 0, 82, 0
2, 63888, Note_on_c, 0, 83, 64
2, 63933, Note_on_c, 0, 83, 0
2, 63936, Note_on_c, 0, 84, 64
2, 63984, Note_on_c, 0, 84, 0
2, 63984, Note_on_c, 0, 79, 64
2, 64029, Note_on_c, 0, 79, 0
2, 64080, Note_on_c, 0, 79, 64
2, 64125, Note_on_c, 0, 79, 0
2, 64128, Note_on_c, 0, 79, 64
2, 64173, Note_on_c, 0, 79, 0
2, 64176, Note_on_c, 0, 77, 64
2, 64221, Note_on_c, 0, 77, 0
2, 64224, Note_on_c, 0, 80, 64
2, 64269, Note_on_c, 0, 80, 0
2, 64272, Note_on_c, 0, 77, 64
2, 64317, Note_on_c, 0, 77, 0
2, 64320, Note_on_c, 0, 77, 64
2, 64368, Note_on_c, 0, 77, 0
2, 64368, Note_on_c, 0, 75, 64
2, 64413, Note_on_c, 0, 75, 0
2, 64464, Note_on_c, 0, 75, 64
2, 64509, Note_on_c, 0, 75, 0
2, 64512, Note_on_c, 0, 76, 64
2, 64557, Note_on_c, 0, 76, 0
2, 64560, Note_on_c, 0, 77, 65
2, 64605, Note_on_c, 0, 77, 0
2, 64608, Note_on_c, 0, 78, 66
2, 64653, Note_on_c, 0, 78, 0
2, 64656, Note_on_c, 0, 79, 67
2, 64701, Note_on_c, 0, 79, 0
2, 64704, Note_on_c, 0, 80, 68
2, 64752, Note_on_c, 0, 80, 0
2, 64752, Note_on_c, 0, 75, 70
2, 64797, Note_on_c, 0, 75, 0
2, 64848, Note_on_c, 0, 75, 72
2, 64893, Note_on_c, 0, 75, 0
2, 64896, Note_on_c, 0, 75, 73
2, 64941, Note_on_c, 0, 75, 0
2, 64944, Note_on_c, 0, 73, 75
2, 64989, Note_on_c, 0, 73, 0
2, 64992, Note_on_c, 0, 77, 76
2, 65037, Note_on_c, 0, 77, 0
2, 65040, Note_on_c, 0, 73, 77
2, 65085, Note_on_c, 0, 73, 0
2, 65088, Note_on_c, 0, 72, 78
2, 65108, Note_on_c, 0, 72, 0
2, 65136, Note_on_c, 0, 84, 96
2, 65232, Note_on_c, 0, 84, 0
2, 65232, Note_on_c, 0, 82, 80
2, 65325, Note_on_c, 0, 82, 0
2, 65328, Note_on_c, 0, 80, 80
2, 65417, Note_on_c, 0, 80, 0
2, 65424, Note_on_c, 0, 79, 80
2, 65517, Note_on_c, 0, 79, 0
2, 65520, Note_on_c, 0, 77, 80
2, 65609, Note_on_c, 0, 77, 0
2, 65616, Note_on_c, 0, 75, 80
2, 65709, Note_on_c, 0, 75, 0
2, 65712, Note_on_c, 0, 74, 78
2, 65801, Note_on_c, 0, 74, 0
2, 65808, Note_on_c, 0, 72, 76
2, 65901, Note_on_c, 0, 72, 0
2, 65904, Note_on_c, 0, 70, 74
2, 65993, Note_on_c, 0, 70, 0
2, 66000, Note_on_c, 0, 69, 72
2, 66093, Note_on_c, 0, 69, 0
2, 66096, Note_on_c, 0, 70, 71
2, 66185, Note_on_c, 0, 70, 0
2, 66192, Note_on_c, 0, 69, 69
2, 66285, Note_on_c, 0, 69, 0
2, 66288, Note_on_c, 0, 70, 67
2, 66377, Note_on_c, 0, 70, 0
2, 66384, Note_on_c, 0, 69, 65
2, 66429, Note_on_c, 0, 69, 0
2, 66432, Note_on_c, 0, 70, 64
2, 66477, Note_on_c, 0, 70, 0
2, 66480, Note_on_c, 0, 82, 64
2, 66525, Note_on_c, 0, 82, 0
2, 66528, Note_on_c, 0, 82, 64
2, 66573, Note_on_c, 0, 82, 0
2, 66576, Note_on_c, 0, 82, 80
2, 66621, Note_on_c, 0, 82, 0
2, 66624, Note_on_c, 0, 82, 64
2, 66669, Note_on_c, 0, 82, 0
2, 66672, Note_on_c, 0, 82, 64
2, 66717, Note_on_c, 0, 82, 0
2, 66720, Note_on_c, 0, 82, 64
2, 66765, Note_on_c, 0, 82, 0
2, 66768, Note_on_c, 0, 82, 80
2, 66768, Note_on_c, 0, 81, 80
2, 66813, Note_on_c, 0, 82, 0
2, 66813, Note_on_c, 0, 81, 0
2, 66816, Note_on_c, 0, 82, 64
2, 66816, Note_on_c, 0, 81, 64
2, 66861, Note_on_c, 0, 82, 0
2, 66861, Note_on_c, 0, 81, 0
2, 66864, Note_on_c, 0, 82, 64
2, 66864, Note_on_c, 0, 81, 64
2, 66909, Note_on_c, 0, 82, 0
2, 66909, Note_on_c, 0, 81, 0
2, 66912, Note_on_c, 0, 82, 64
2, 66912, Note_on_c, 0, 81, 64
2, 66957, Note_on_c, 0, 82, 0
2, 66957, Note_on_c, 0, 81, 0
2, 66960, Note_on_c, 0, 82, 80
2, 66960, Note_on_c, 0, 80, 80
2, 67005, Note_on_c, 0, 82, 0
2, 67005, Note_on_c, 0, 80, 0
2, 67008, Note_on_c, 0, 82, 64
2, 67008, Note_on_c, 0, 80, 64
2, 67053, Note_on_c, 0, 82, 0
2, 67053, Note_on_c, 0, 80, 0
2, 67056, Note_on_c, 0, 82, 64
2, 67056, Note_on_c, 0, 80, 64
2, 67101, Note_on_c, 0, 82, 0
2, 67101, Note_on_c, 0, 80, 0
2, 67104, Note_on_c, 0, 82, 64
2, 67104, Note_on_c, 0, 80, 64
2, 67149, Note_on_c, 0, 82, 0
2, 67149, Note_on_c, 0, 80, 0
2, 67152, Note_on_c, 0, 82, 80
2, 67152, Note_on_c, 0, 80, 80
2, 67197, Note_on_c, 0, 82, 0
2, 67197, Note_on_c, 0, 80, 0
2, 67200, Note_on_c, 0, 82, 64
2, 67200, Note_on_c, 0, 80, 64
2, 67245, Note_on_c, 0, 82, 0
2, 67245, Note_on_c, 0, 80, 0
2, 67248, Note_on_c, 0, 82, 64
2, 67248, Note_on_c, 0, 80, 64
2, 67293, Note_on_c, 0, 82, 0
2, 67293, Note_on_c, 0, 80, 0
2, 67296, Note_on_c, 0, 82, 64
2, 67296, Note_on_c, 0, 80, 64
2, 67341, Note_on_c, 0, 82, 0
2, 67341, Note_on_c, 0, 80, 0
2, 67344, Note_on_c, 0, 82, 80
2, 67344, Note_on_c, 0, 80, 80
2, 67389, Note_on_c, 0, 82, 0
2, 67389, Note_on_c, 0, 80, 0
2, 67392, Note_on_c, 0, 82, 64
2, 67392, Note_on_c, 0, 79, 64
2, 67437, Note_on_c, 0, 82, 0
2, 67437, Note_on_c, 0, 79, 0
2, 67440, Note_on_c, 0, 82, 64
2, 67440, Note_on_c, 0, 79, 64
2, 67485, Note_on_c, 0, 82, 0
2, 67485, Note_on_c, 0, 79, 0
2, 67488, Note_on_c, 0, 82, 58
2, 67488, Note_on_c, 0, 79, 58
2, 67533, Note_on_c, 0, 82, 0
2, 67533, Note_on_c, 0, 79, 0
2, 67536, Note_on_c, 0, 79, 102
2, 67536, Note_on_c, 0, 75, 102
2, 67536, Note_on_c, 0, 70, 102
2, 67581, Note_on_c, 0, 79, 0
2, 67581, Note_on_c, 0, 75, 0
2, 67581, Note_on_c, 0, 70, 0
2, 67584, Note_on_c, 0, 79, 86
2, 67584, Note_on_c, 0, 75, 86
2, 67584, Note_on_c, 0, 70, 86
2, 67629, Note_on_c, 0, 79, 0
2, 67629, Note_on_c, 0, 75, 0
2, 67629, Note_on_c, 0, 70, 0
2, 67632, Note_on_c, 0, 79, 86
2, 67632, Note_on_c, 0, 75, 86
2, 67632, Note_on_c, 0, 70, 86
2, 67677, Note_on_c, 0, 79, 0
2, 67677, Note_on_c, 0, 75, 0
2, 67677, Note_on_c, 0, 70, 0
2, 67680, Note_on_c, 0, 79, 86
2, 67680, Note_on_c, 0, 75, 86
2, 67680, Note_on_c, 0, 70, 86
2, 67725, Note_on_c, 0, 79, 0
2, 67725, Note_on_c, 0, 75, 0
2, 67725, Note_on_c, 0, 70, 0
2, 67728, Note_on_c, 0, 79, 86
2, 67728, Note_on_c, 0, 75, 86
2, 67728, Note_on_c, 0, 70, 86
2, 67773, Note_on_c, 0, 79, 0
2, 67773, Note_on_c, 0, 75, 0
2, 67773, Note_on_c, 0, 70, 0
2, 67776, Note_on_c, 0, 74, 102
2, 67776, Note_on_c, 0, 70, 102
2, 67776, Note_on_c, 0, 68, 102
2, 67872, Note_on_c, 0, 74, 0
2, 67872, Note_on_c, 0, 68, 0
2, 67872, Note_on_c, 0, 75, 86
2, 67872, Note_on_c, 0, 67, 86
2, 67917, Note_on_c, 0, 75, 0
2, 67917, Note_on_c, 0, 70, 0
2, 67917, Note_on_c, 0, 67, 0
2, 67920, Note_on_c, 0, 79, 86
2, 67920, Note_on_c, 0, 75, 86
2, 67965, Note_on_c, 0, 79, 0
2, 67965, Note_on_c, 0, 75, 0
2, 67968, Note_on_c, 0, 80, 102
2, 67968, Note_on_c, 0, 77, 102
2, 67968, Note_on_c, 0, 74, 102
2, 68064, Note_on_c, 0, 80, 0
2, 68064, Note_on_c, 0, 77, 0
2, 68064, Note_on_c, 0, 74, 0
2, 68064, Note_on_c, 0, 79, 86
2, 68064, Note_on_c, 0, 75, 86
2, 68109, Note_on_c, 0, 79, 0
2, 68109, Note_on_c, 0, 75, 0
2, 68112, Note_on_c, 0, 82, 86
2, 68112, Note_on_c, 0, 79, 86
2, 68157, Note_on_c, 0, 82, 0
2, 68157, Note_on_c, 0, 79, 0
2, 68160, Note_on_c, 0, 86, 102
2, 68160, Note_on_c, 0, 80, 102
2, 68160, Note_on_c, 0, 77, 102
2, 68256, Note_on_c, 0, 86, 0
2, 68256, Note_on_c, 0, 80, 0
2, 68256, Note_on_c, 0, 77, 0
2, 68256, Note_on_c, 0, 87, 86
2, 68256, Note_on_c, 0, 79, 86
2, 68301, Note_on_c, 0, 87, 0
2, 68301, Note_on_c, 0, 79, 0
2, 68304, Note_on_c, 0, 88, 86
2, 68304, Note_on_c, 0, 79, 86
2, 68349, Note_on_c, 0, 88, 0
2, 68349, Note_on_c, 0, 79, 0
2, 68352, Note_on_c, 0, 88, 86
2, 68352, Note_on_c, 0, 79, 86
2, 68529, Note_on_c, 0, 88, 0
2, 68529, Note_on_c, 0, 79, 0
2, 68544, Note_on_c, 0, 77, 86
2, 68736, Note_on_c, 0, 86, 86
2, 68913, Note_on_c, 0, 86, 0
2, 68913, Note_on_c, 0, 77, 0
2, 68928, Note_on_c, 0, 87, 70
2, 68928, Note_on_c, 0, 75, 70
2, 69022, Note_on_c, 0, 87, 0
2, 69022, Note_on_c, 0, 75, 0
2, 69024, Note_on_c, 0, 83, 64
2, 69024, Note_on_c, 0, 75, 64
2, 69113, Note_on_c, 0, 83, 0
2, 69113, Note_on_c, 0, 75, 0
2, 69120, Note_on_c, 0, 83, 64
2, 69120, Note_on_c, 0, 75, 64
2, 69312, Note_on_c, 0, 83, 0
2, 69312, Note_on_c, 0, 84, 64
2, 69401, Note_on_c, 0, 84, 0
2, 69401, Note_on_c, 0, 75, 0
2, 69408, Note_on_c, 0, 84, 80
2, 69408, Note_on_c, 0, 76, 80
2, 69497, Note_on_c, 0, 84, 0
2, 69497, Note_on_c, 0, 76, 0
2, 69504, Note_on_c, 0, 84, 80
2, 69977, Note_on_c, 0, 84, 0
2, 69984, Note_on_c, 0, 85, 80
2, 70029, Note_on_c, 0, 85, 0
2, 70032, Note_on_c, 0, 84, 80
2, 70077, Note_on_c, 0, 84, 0
2, 70080, Note_on_c, 0, 83, 96
2, 70080, Note_on_c, 0, 79, 96
2, 70128, Note_on_c, 0, 83, 0
2, 70128, Note_on_c, 0, 79, 0
2, 70128, Note_on_c, 0, 84, 80
2, 70128, Note_on_c, 0, 80, 80
2, 70173, Note_on_c, 0, 84, 0
2, 70173, Note_on_c, 0, 80, 0
2, 70176, Note_on_c, 0, 82, 80
2, 70176, Note_on_c, 0, 79, 80
2, 70221, Note_on_c, 0, 82, 0
2, 70221, Note_on_c, 0, 79, 0
2, 70224, Note_on_c, 0, 80, 80
2, 70224, Note_on_c, 0, 77, 80
2, 70269, Note_on_c, 0, 80, 0
2, 70269, Note_on_c, 0, 77, 0
2, 70272, Note_on_c, 0, 79, 80
2, 70272, Note_on_c, 0, 75, 80
2, 70405, Note_on_c, 0, 79, 0
2, 70405, Note_on_c, 0, 75, 0
2, 70416, Note_on_c, 0, 82, 80
2, 70416, Note_on_c, 0, 79, 80
2, 70461, Note_on_c, 0, 82, 0
2, 70461, Note_on_c, 0, 79, 0
2, 70464, Note_on_c, 0, 82, 80
2, 70464, Note_on_c, 0, 79, 80
2, 70509, Note_on_c, 0, 82, 0
2, 70509, Note_on_c, 0, 79, 0
2, 70512, Note_on_c, 0, 80, 80
2, 70512, Note_on_c, 0, 77, 80
2, 70557, Note_on_c, 0, 80, 0
2, 70557, Note_on_c, 0, 77, 0
2, 70560, Note_on_c, 0, 79, 80
2, 70560, Note_on_c, 0, 75, 80
2, 70605, Note_on_c, 0, 79, 0
2, 70605, Note_on_c, 0, 75, 0
2, 70608, Note_on_c, 0, 77, 80
2, 70608, Note_on_c, 0, 74, 80
2, 70653, Note_on_c, 0, 77, 0
2, 70653, Note_on_c, 0, 74, 0
2, 70656, Note_on_c, 0, 75, 80
2, 70679, Note_on_c, 0, 75, 0
2, 70680, Note_on_c, 0, 79, 80
2, 70703, Note_on_c, 0, 79, 0
2, 70704, Note_on_c, 0, 75, 79
2, 70727, Note_on_c, 0, 75, 0
2, 70728, Note_on_c, 0, 70, 78
2, 70751, Note_on_c, 0, 70, 0
2, 70752, Note_on_c, 0, 67, 77
2, 70775, Note_on_c, 0, 67, 0
2, 70776, Note_on_c, 0, 63, 76
2, 70799, Note_on_c, 0, 63, 0
2, 70800, Note_on_c, 0, 51, 75
2, 70823, Note_on_c, 0, 51, 0
2, 70824, Note_on_c, 0, 63, 74
2, 70847, Note_on_c, 0, 63, 0
2, 70848, Note_on_c, 0, 74, 73
2, 70871, Note_on_c, 0, 74, 0
2, 70872, Note_on_c, 0, 80, 72
2, 70895, Note_on_c, 0, 80, 0
2, 70896, Note_on_c, 0, 77, 71
2, 70919, Note_on_c, 0, 77, 0
2, 70920, Note_on_c, 0, 74, 70
2, 70943, Note_on_c, 0, 74, 0
2, 70944, Note_on_c, 0, 70, 69
2, 70967, Note_on_c, 0, 70, 0
2, 70968, Note_on_c, 0, 68, 68
2, 70991, Note_on_c, 0, 68, 0
2, 70992, Note_on_c, 0, 62, 67
2, 71015, Note_on_c, 0, 62, 0
2, 71016, Note_on_c, 0, 65, 66
2, 71039, Note_on_c, 0, 65, 0
2, 71040, Note_on_c, 0, 75, 65
2, 71063, Note_on_c, 0, 75, 0
2, 71064, Note_on_c, 0, 79, 64
2, 71087, Note_on_c, 0, 79, 0
2, 71088, Note_on_c, 0, 75, 64
2, 71111, Note_on_c, 0, 75, 0
2, 71112, Note_on_c, 0, 70, 64
2, 71135, Note_on_c, 0, 70, 0
2, 71136, Note_on_c, 0, 67, 64
2, 71159, Note_on_c, 0, 67, 0
2, 71160, Note_on_c, 0, 63, 64
2, 71183, Note_on_c, 0, 63, 0
2, 71184, Note_on_c, 0, 51, 64
2, 71207, Note_on_c, 0, 51, 0
2, 71208, Note_on_c, 0, 63, 64
2, 71231, Note_on_c, 0, 63, 0
2, 71232, Note_on_c, 0, 74, 64
2, 71255, Note_on_c, 0, 74, 0
2, 71256, Note_on_c, 0, 80, 64
2, 71279, Note_on_c, 0, 80, 0
2, 71280, Note_on_c, 0, 77, 64
2, 71303, Note_on_c, 0, 77, 0
2, 71304, Note_on_c, 0, 74, 64
2, 71327, Note_on_c, 0, 74, 0
2, 71328, Note_on_c, 0, 70, 64
2, 71351, Note_on_c, 0, 70, 0
2, 71352, Note_on_c, 0, 68, 64
2, 71375, Note_on_c, 0, 68, 0
2, 71376, Note_on_c, 0, 62, 64
2, 71399, Note_on_c, 0, 62, 0
2, 71400, Note_on_c, 0, 65, 64
2, 71423, Note_on_c, 0, 65, 0
2, 71424, Note_on_c, 0, 82, 64
2, 71447, Note_on_c, 0, 82, 0
2, 71448, Note_on_c, 0, 75, 65
2, 71471, Note_on_c, 0, 75, 0
2, 71472, Note_on_c, 0, 67, 66
2, 71495, Note_on_c, 0, 67, 0
2, 71496, Note_on_c, 0, 75, 67
2, 71519, Note_on_c, 0, 75, 0
2, 71520, Note_on_c, 0, 84, 68
2, 71543, Note_on_c, 0, 84, 0
2, 71544, Note_on_c, 0, 75, 70
2, 71567, Note_on_c, 0, 75, 0
2, 71568, Note_on_c, 0, 68, 71
2, 71591, Note_on_c, 0, 68, 0
2, 71592, Note_on_c, 0, 75, 72
2, 71615, Note_on_c, 0, 75, 0
2, 71616, Note_on_c, 0, 86, 73
2, 71639, Note_on_c, 0, 86, 0
2, 71640, Note_on_c, 0, 75, 75
2, 71663, Note_on_c, 0, 75, 0
2, 71664, Note_on_c, 0, 70, 76
2, 71687, Note_on_c, 0, 70, 0
2, 71688, Note_on_c, 0, 75, 77
2, 71711, Note_on_c, 0, 75, 0
2, 71712, Note_on_c, 0, 87, 78
2, 71735, Note_on_c, 0, 87, 0
2, 71736, Note_on_c, 0, 75, 80
2, 71759, Note_on_c, 0, 75, 0
2, 71760, Note_on_c, 0, 72, 64
2, 71783, Note_on_c, 0, 72, 0
2, 71784, Note_on_c, 0, 75, 65
2, 71807, Note_on_c, 0, 75, 0
2, 71808, Note_on_c, 0, 82, 66
2, 71831, Note_on_c, 0, 82, 0
2, 71832, Note_on_c, 0, 75, 67
2, 71855, Note_on_c, 0, 75, 0
2, 71856, Note_on_c, 0, 67, 68
2, 71879, Note_on_c, 0, 67, 0
2, 71880, Note_on_c, 0, 75, 69
2, 71903, Note_on_c, 0, 75, 0
2, 71904, Note_on_c, 0, 84, 70
2, 71927, Note_on_c, 0, 84, 0
2, 71928, Note_on_c, 0, 75, 72
2, 71951, Note_on_c, 0, 75, 0
2, 71952, Note_on_c, 0, 68, 73
2, 71975, Note_on_c, 0, 68, 0
2, 71976, Note_on_c, 0, 75, 74
2, 71999, Note_on_c, 0, 75, 0
2, 72000, Note_on_c, 0, 86, 75
2, 72023, Note_on_c, 0, 86, 0
2, 72024, Note_on_c, 0, 75, 76
2, 72047, Note_on_c, 0, 75, 0
2, 72048, Note_on_c, 0, 70, 77
2, 72071, Note_on_c, 0, 70, 0
2, 72072, Note_on_c, 0, 75, 78
2, 72095, Note_on_c, 0, 75, 0
2, 72096, Note_on_c, 0, 87, 80
2, 72119, Note_on_c, 0, 87, 0
2, 72120, Note_on_c, 0, 75, 80
2, 72143, Note_on_c, 0, 75, 0
2, 72144, Note_on_c, 0, 72, 64
2, 72167, Note_on_c, 0, 72, 0
2, 72168, Note_on_c, 0, 75, 64
2, 72191, Note_on_c, 0, 75, 0
2, 72192, Note_on_c, 0, 85, 65
2, 72215, Note_on_c, 0, 85, 0
2, 72216, Note_on_c, 0, 75, 65
2, 72239, Note_on_c, 0, 75, 0
2, 72240, Note_on_c, 0, 67, 66
2, 72263, Note_on_c, 0, 67, 0
2, 72264, Note_on_c, 0, 75, 67
2, 72287, Note_on_c, 0, 75, 0
2, 72288, Note_on_c, 0, 84, 67
2, 72311, Note_on_c, 0, 84, 0
2, 72312, Note_on_c, 0, 75, 68
2, 72335, Note_on_c, 0, 75, 0
2, 72336, Note_on_c, 0, 68, 69
2, 72359, Note_on_c, 0, 68, 0
2, 72360, Note_on_c, 0, 75, 69
2, 72383, Note_on_c, 0, 75, 0
2, 72384, Note_on_c, 0, 82, 70
2, 72407, Note_on_c, 0, 82, 0
2, 72408, Note_on_c, 0, 72, 70
2, 72431, Note_on_c, 0, 72, 0
2, 72432, Note_on_c, 0, 64, 71
2, 72455, Note_on_c, 0, 64, 0
2, 72456, Note_on_c, 0, 72, 72
2, 72479, Note_on_c, 0, 72, 0
2, 72480, Note_on_c, 0, 80, 72
2, 72503, Note_on_c, 0, 80, 0
2, 72504, Note_on_c, 0, 72, 73
2, 72527, Note_on_c, 0, 72, 0
2, 72528, Note_on_c, 0, 65, 74
2, 72551, Note_on_c, 0, 65, 0
2, 72552, Note_on_c, 0, 72, 74
2, 72575, Note_on_c, 0, 72, 0
2, 72576, Note_on_c, 0, 76, 75
2, 72599, Note_on_c, 0, 76, 0
2, 72600, Note_on_c, 0, 72, 75
2, 72623, Note_on_c, 0, 72, 0
2, 72624, Note_on_c, 0, 67, 76
2, 72647, Note_on_c, 0, 67, 0
2, 72648, Note_on_c, 0, 72, 77
2, 72671, Note_on_c, 0, 72, 0
2, 72672, Note_on_c, 0, 77, 77
2, 72695, Note_on_c, 0, 77, 0
2, 72696, Note_on_c, 0, 72, 78
2, 72719, Note_on_c, 0, 72, 0
2, 72720, Note_on_c, 0, 68, 79
2, 72743, Note_on_c, 0, 68, 0
2, 72744, Note_on_c, 0, 72, 79
2, 72767, Note_on_c, 0, 72, 0
2, 72768, Note_on_c, 0, 84, 80
2, 72791, Note_on_c, 0, 84, 0
2, 72792, Note_on_c, 0, 75, 80
2, 72815, Note_on_c, 0, 75, 0
2, 72816, Note_on_c, 0, 69, 81
2, 72839, Note_on_c, 0, 69, 0
2, 72840, Note_on_c, 0, 75, 82
2, 72863, Note_on_c, 0, 75, 0
2, 72864, Note_on_c, 0, 87, 82
2, 72887, Note_on_c, 0, 87, 0
2, 72888, Note_on_c, 0, 75, 83
2, 72911, Note_on_c, 0, 75, 0
2, 72912, Note_on_c, 0, 69, 84
2, 72935, Note_on_c, 0, 69, 0
2, 72936, Note_on_c, 0, 75, 84
2, 72959, Note_on_c, 0, 75, 0
2, 72960, Note_on_c, 0, 86, 85
2, 72983, Note_on_c, 0, 86, 0
2, 72984, Note_on_c, 0, 74, 86
2, 73007, Note_on_c, 0, 74, 0
2, 73008, Note_on_c, 0, 70, 86
2, 73031, Note_on_c, 0, 70, 0
2, 73032, Note_on_c, 0, 58, 86
2, 73055, Note_on_c, 0, 58, 0
2, 73056, Note_on_c, 0, 82, 86
2, 73079, Note_on_c, 0, 82, 0
2, 73080, Note_on_c, 0, 70, 86
2, 73103, Note_on_c, 0, 70, 0
2, 73104, Note_on_c, 0, 65, 86
2, 73127, Note_on_c, 0, 65, 0
2, 73128, Note_on_c, 0, 53, 86
2, 73151, Note_on_c, 0, 53, 0
2, 73152, Note_on_c, 0, 77, 86
2, 73175, Note_on_c, 0, 77, 0
2, 73176, Note_on_c, 0, 65, 86
2, 73199, Note_on_c, 0, 65, 0
2, 73248, Note_on_c, 0, 74, 86
2, 73271, Note_on_c, 0, 74, 0
2, 73272, Note_on_c, 0, 62, 86
2, 73295, Note_on_c, 0, 62, 0
2, 73680, Note_on_c, 0, 65, 80
2, 73700, Note_on_c, 0, 65, 0
2, 73728, Note_on_c, 0, 58, 64
2, 73773, Note_on_c, 0, 58, 0
2, 73776, Note_on_c, 0, 59, 65
2, 73821, Note_on_c, 0, 59, 0
2, 73824, Note_on_c, 0, 58, 66
2, 73869, Note_on_c, 0, 58, 0
2, 73872, Note_on_c, 0, 68, 83
2, 73892, Note_on_c, 0, 68, 0
2, 73920, Note_on_c, 0, 62, 68
2, 73965, Note_on_c, 0, 62, 0
2, 73968, Note_on_c, 0, 63, 69
2, 74013, Note_on_c, 0, 63, 0
2, 74016, Note_on_c, 0, 62, 70
2, 74061, Note_on_c, 0, 62, 0
2, 74064, Note_on_c, 0, 71, 87
2, 74084, Note_on_c, 0, 71, 0
2, 74112, Note_on_c, 0, 65, 72
2, 74157, Note_on_c, 0, 65, 0
2, 74160, Note_on_c, 0, 66, 73
2, 74205, Note_on_c, 0, 66, 0
2, 74208, Note_on_c, 0, 65, 74
2, 74253, Note_on_c, 0, 65, 0
2, 74256, Note_on_c, 0, 74, 91
2, 74276, Note_on_c, 0, 74, 0
2, 74304, Note_on_c, 0, 70, 76
2, 74349, Note_on_c, 0, 70, 0
2, 74352, Note_on_c, 0, 71, 77
2, 74397, Note_on_c, 0, 71, 0
2, 74400, Note_on_c, 0, 70, 78
2, 74445, Note_on_c, 0, 70, 0
2, 74448, Note_on_c, 0, 82, 58
2, 74468, Note_on_c, 0, 82, 0
2, 74544, Note_on_c, 0, 82, 58
2, 74544, Note_on_c, 0, 79, 58
2, 74564, Note_on_c, 0, 82, 0
2, 74564, Note_on_c, 0, 79, 0
2, 74640, Note_on_c, 0, 80, 58
2, 74640, Note_on_c, 0, 77, 58
2, 74660, Note_on_c, 0, 80, 0
2, 74660, Note_on_c, 0, 77, 0
2, 74736, Note_on_c, 0, 79, 58
2, 74736, Note_on_c, 0, 75, 58
2, 74756, Note_on_c, 0, 79, 0
2, 74756, Note_on_c, 0, 75, 0
2, 74832, Note_on_c, 0, 77, 58
2, 74832, Note_on_c, 0, 74, 58
2, 74852, Note_on_c, 0, 77, 0
2, 74852, Note_on_c, 0, 74, 0
2, 74880, Note_on_c, 0, 75, 58
2, 74925, Note_on_c, 0, 75, 0
2, 74928, Note_on_c, 0, 68, 64
2, 74973, Note_on_c, 0, 68, 0
2, 74976, Note_on_c, 0, 68, 64
2, 75021, Note_on_c, 0, 68, 0
2, 75024, Note_on_c, 0, 68, 64
2, 75069, Note_on_c, 0, 68, 0
2, 75072, Note_on_c, 0, 68, 64
2, 75117, Note_on_c, 0, 68, 0
2, 75120, Note_on_c, 0, 68, 64
2, 75165, Note_on_c, 0, 68, 0
2, 75168, Note_on_c, 0, 68, 64
2, 75213, Note_on_c, 0, 68, 0
2, 75216, Note_on_c, 0, 68, 64
2, 75261, Note_on_c, 0, 68, 0
2, 75264, Note_on_c, 0, 70, 58
2, 75283, Note_on_c, 0, 70, 0
2, 75284, Note_on_c, 0, 68, 58
2, 75303, Note_on_c, 0, 68, 0
2, 75304, Note_on_c, 0, 70, 58
2, 75322, Note_on_c, 0, 70, 0
2, 75323, Note_on_c, 0, 68, 58
2, 75341, Note_on_c, 0, 68, 0
2, 75342, Note_on_c, 0, 70, 58
2, 75360, Note_on_c, 0, 70, 0
2, 75361, Note_on_c, 0, 68, 58
2, 75379, Note_on_c, 0, 68, 0
2, 75380, Note_on_c, 0, 70, 58
2, 75398, Note_on_c, 0, 70, 0
2, 75399, Note_on_c, 0, 68, 58
2, 75417, Note_on_c, 0, 68, 0
2, 75418, Note_on_c, 0, 70, 59
2, 75436, Note_on_c, 0, 70, 0
2, 75437, Note_on_c, 0, 68, 59
2, 75455, Note_on_c, 0, 68, 0
2, 75456, Note_on_c, 0, 70, 59
2, 75475, Note_on_c, 0, 70, 0
2, 75476, Note_on_c, 0, 68, 59
2, 75495, Note_on_c, 0, 68, 0
2, 75496, Note_on_c, 0, 70, 59
2, 75514, Note_on_c, 0, 70, 0
2, 75515, Note_on_c, 0, 68, 59
2, 75533, Note_on_c, 0, 68, 0
2, 75534, Note_on_c, 0, 70, 59
2, 75552, Note_on_c, 0, 70, 0
2, 75553, Note_on_c, 0, 68, 60
2, 75571, Note_on_c, 0, 68, 0
2, 75572, Note_on_c, 0, 70, 60
2, 75590, Note_on_c, 0, 70, 0
2, 75591, Note_on_c, 0, 68, 60
2, 75609, Note_on_c, 0, 68, 0
2, 75610, Note_on_c, 0, 70, 60
2, 75628, Note_on_c, 0, 70, 0
2, 75629, Note_on_c, 0, 68, 60
2, 75647, Note_on_c, 0, 68, 0
2, 75648, Note_on_c, 0, 70, 60
2, 75667, Note_on_c, 0, 70, 0
2, 75668, Note_on_c, 0, 68, 60
2, 75687, Note_on_c, 0, 68, 0
2, 75688, Note_on_c, 0, 70, 61
2, 75706, Note_on_c, 0, 70, 0
2, 75707, Note_on_c, 0, 68, 61
2, 75725, Note_on_c, 0, 68, 0
2, 75726, Note_on_c, 0, 70, 61
2, 75744, Note_on_c, 0, 70, 0
2, 75745, Note_on_c, 0, 68, 61
2, 75763, Note_on_c, 0, 68, 0
2, 75764, Note_on_c, 0, 70, 61
2, 75782, Note_on_c, 0, 70, 0
2, 75783, Note_on_c, 0, 68, 61
2, 75801, Note_on_c, 0, 68, 0
2, 75802, Note_on_c, 0, 70, 61
2, 75820, Note_on_c, 0, 70, 0
2, 75821, Note_on_c, 0, 68, 62
2, 75839, Note_on_c, 0, 68, 0
2, 75840, Note_on_c, 0, 70, 62
2, 75859, Note_on_c, 0, 70, 0
2, 75860, Note_on_c, 0, 68, 62
2, 75879, Note_on_c, 0, 68, 0
2, 75880, Note_on_c, 0, 70, 62
2, 75898, Note_on_c, 0, 70, 0
2, 75899, Note_on_c, 0, 68, 62
2, 75917, Note_on_c, 0, 68, 0
2, 75918, Note_on_c, 0, 70, 62
2, 75936, Note_on_c, 0, 70, 0
2, 75937, Note_on_c, 0, 68, 62
2, 75955, Note_on_c, 0, 68, 0
2, 75956, Note_on_c, 0, 70, 63
2, 75974, Note_on_c, 0, 70, 0
2, 75975, Note_on_c, 0, 68, 63
2, 75993, Note_on_c, 0, 68, 0
2, 75994, Note_on_c, 0, 67, 63
2, 76012, Note_on_c, 0, 67, 0
2, 76013, Note_on_c, 0, 68, 63
2, 76031, Note_on_c, 0, 68, 0
2, 76032, Note_on_c, 0, 67, 64
2, 76055, Note_on_c, 0, 67, 0
2, 76056, Note_on_c, 0, 75, 64
2, 76079, Note_on_c, 0, 75, 0
2, 76080, Note_on_c, 0, 67, 64
2, 76103, Note_on_c, 0, 67, 0
2, 76104, Note_on_c, 0, 75, 64
2, 76127, Note_on_c, 0, 75, 0
2, 76128, Note_on_c, 0, 68, 64
2, 76151, Note_on_c, 0, 68, 0
2, 76152, Note_on_c, 0, 74, 64
2, 76175, Note_on_c, 0, 74, 0
2, 76176, Note_on_c, 0, 68, 64
2, 76199, Note_on_c, 0, 68, 0
2, 76200, Note_on_c, 0, 74, 64
2, 76223, Note_on_c, 0, 74, 0
2, 76224, Note_on_c, 0, 74, 64
2, 76247, Note_on_c, 0, 74, 0
2, 76248, Note_on_c, 0, 80, 64
2, 76271, Note_on_c, 0, 80, 0
2, 76272, Note_on_c, 0, 74, 64
2, 76295, Note_on_c, 0, 74, 0
2, 76296, Note_on_c, 0, 80, 64
2, 76319, Note_on_c, 0, 80, 0
2, 76320, Note_on_c, 0, 75, 64
2, 76343, Note_on_c, 0, 75, 0
2, 76344, Note_on_c, 0, 79, 64
2, 76367, Note_on_c, 0, 79, 0
2, 76368, Note_on_c, 0, 75, 64
2, 76391, Note_on_c, 0, 75, 0
2, 76392, Note_on_c, 0, 79, 64
2, 76415, Note_on_c, 0, 79, 0
2, 76416, Note_on_c, 0, 80, 64
2, 76439, Note_on_c, 0, 80, 0
2, 76440, Note_on_c, 0, 84, 64
2, 76463, Note_on_c, 0, 84, 0
2, 76464, Note_on_c, 0, 80, 64
2, 76487, Note_on_c, 0, 80, 0
2, 76488, Note_on_c, 0, 84, 64
2, 76511, Note_on_c, 0, 84, 0
2, 76512, Note_on_c, 0, 79, 64
2, 76535, Note_on_c, 0, 79, 0
2, 76536, Note_on_c, 0, 82, 64
2, 76559, Note_on_c, 0, 82, 0
2, 76560, Note_on_c, 0, 79, 64
2, 76583, Note_on_c, 0, 79, 0
2, 76584, Note_on_c, 0, 82, 64
2, 76607, Note_on_c, 0, 82, 0
2, 76608, Note_on_c, 0, 80, 64
2, 76631, Note_on_c, 0, 80, 0
2, 76632, Note_on_c, 0, 86, 64
2, 76655, Note_on_c, 0, 86, 0
2, 76656, Note_on_c, 0, 80, 64
2, 76679, Note_on_c, 0, 80, 0
2, 76680, Note_on_c, 0, 86, 64
2, 76703, Note_on_c, 0, 86, 0
2, 76704, Note_on_c, 0, 79, 64
2, 76727, Note_on_c, 0, 79, 0
2, 76728, Note_on_c, 0, 87, 64
2, 76751, Note_on_c, 0, 87, 0
2, 76752, Note_on_c, 0, 79, 64
2, 76775, Note_on_c, 0, 79, 0
2, 76776, Note_on_c, 0, 87, 64
2, 76799, Note_on_c, 0, 87, 0
2, 76800, Note_on_c, 0, 87, 64
2, 76800, Note_on_c, 0, 84, 64
2, 76889, Note_on_c, 0, 87, 0
2, 76889, Note_on_c, 0, 84, 0
2, 76992, Note_on_c, 0, 74, 64
2, 76992, Note_on_c, 0, 68, 64
2, 76992, Note_on_c, 0, 65, 64
2, 77081, Note_on_c, 0, 74, 0
2, 77081, Note_on_c, 0, 68, 0
2, 77081, Note_on_c, 0, 65, 0
2, 77184, Note_on_c, 0, 75, 64
2, 77184, Note_on_c, 0, 70, 64
2, 77184, Note_on_c, 0, 67, 64
2, 77273, Note_on_c, 0, 75, 0
2, 77273, Note_on_c, 0, 70, 0
2, 77273, Note_on_c, 0, 67, 0
2, 77328, Note_on_c, 0, 84, 64
2, 77328, Note_on_c, 0, 80, 64
2, 77373, Note_on_c, 0, 84, 0
2, 77373, Note_on_c, 0, 80, 0
2, 77376, Note_on_c, 0, 82, 64
2, 77376, Note_on_c, 0, 79, 64
2, 77421, Note_on_c, 0, 82, 0
2, 77421, Note_on_c, 0, 79, 0
2, 77424, Note_on_c, 0, 80, 64
2, 77424, Note_on_c, 0, 77, 64
2, 77469, Note_on_c, 0, 80, 0
2, 77469, Note_on_c, 0, 77, 0
2, 77472, Note_on_c, 0, 79, 64
2, 77472, Note_on_c, 0, 75, 64
2, 77517, Note_on_c, 0, 79, 0
2, 77517, Note_on_c, 0, 75, 0
2, 77520, Note_on_c, 0, 77, 64
2, 77520, Note_on_c, 0, 74, 64
2, 77565, Note_on_c, 0, 77, 0
2, 77565, Note_on_c, 0, 74, 0
2, 77568, Note_on_c, 0, 75, 64
2, 77591, Note_on_c, 0, 75, 0
2, 77592, Note_on_c, 0, 74, 64
2, 77615, Note_on_c, 0, 74, 0
2, 77616, Note_on_c, 0, 75, 64
2, 77639, Note_on_c, 0, 75, 0
2, 77640, Note_on_c, 0, 74, 64
2, 77663, Note_on_c, 0, 74, 0
2, 77664, Note_on_c, 0, 75, 64
2, 77687, Note_on_c, 0, 75, 0
2, 77688, Note_on_c, 0, 74, 64
2, 77711, Note_on_c, 0, 74, 0
2, 77712, Note_on_c, 0, 75, 64
2, 77735, Note_on_c, 0, 75, 0
2, 77736, Note_on_c, 0, 74, 64
2, 77759, Note_on_c, 0, 74, 0
2, 77760, Note_on_c, 0, 75, 64
2, 77783, Note_on_c, 0, 75, 0
2, 77784, Note_on_c, 0, 74, 64
2, 77807, Note_on_c, 0, 74, 0
2, 77808, Note_on_c, 0, 75, 64
2, 77831, Note_on_c, 0, 75, 0
2, 77832, Note_on_c, 0, 74, 64
2, 77855, Note_on_c, 0, 74, 0
2, 77856, Note_on_c, 0, 75, 64
2, 77879, Note_on_c, 0, 75, 0
2, 77880, Note_on_c, 0, 74, 64
2, 77903, Note_on_c, 0, 74, 0
2, 77904, Note_on_c, 0, 75, 64
2, 77927, Note_on_c, 0, 75, 0
2, 77928, Note_on_c, 0, 74, 64
2, 77951, Note_on_c, 0, 74, 0
2, 77952, Note_on_c, 0, 75, 64
2, 78041, Note_on_c, 0, 75, 0
2, 78144, Note_on_c, 0, 87, 86
2, 78144, Note_on_c, 0, 82, 86
2, 78144, Note_on_c, 0, 79, 86
2, 78233, Note_on_c, 0, 87, 0
2, 78233, Note_on_c, 0, 82, 0
2, 78233, Note_on_c, 0, 79, 0
2, 78336, Note_on_c, 0, 63, 86
2, 78336, Note_on_c, 0, 58, 86
2, 78336, Note_on_c, 0, 55, 86
2, 78425, Note_on_c, 0, 63, 0
2, 78425, Note_on_c, 0, 58, 0
2, 78425, Note_on_c, 0, 55, 0
2, 78528, End_track
3, 0, Start_track
3, 0, Program_c, 0, 0
3, 0, Control_c, 0, 7, 127
3, 0, Control_c, 0, 10, 64
3, 10176, Note_on_c, 0, 72, 64
3, 10560, Note_on_c, 0, 72, 0
3, 10560, Note_on_c, 0, 70, 70
3, 10627, Note_on_c, 0, 70, 0
3, 10656, Note_on_c, 0, 70, 64
3, 10745, Note_on_c, 0, 70, 0
3, 10752, Note_on_c, 0, 70, 64
3, 11033, Note_on_c, 0, 70, 0
3, 11040, Note_on_c, 0, 71, 80
3, 11129, Note_on_c, 0, 71, 0
3, 11136, Note_on_c, 0, 71, 80
3, 11328, Note_on_c, 0, 71, 0
3, 11328, Note_on_c, 0, 74, 80
3, 11373, Note_on_c, 0, 74, 0
3, 11376, Note_on_c, 0, 72, 80
3, 11421, Note_on_c, 0, 72, 0
3, 11424, Note_on_c, 0, 75, 80
3, 11469, Note_on_c, 0, 75, 0
3, 11472, Note_on_c, 0, 74, 80
3, 11517, Note_on_c, 0, 74, 0
3, 11520, Note_on_c, 0, 77, 80
3, 11565, Note_on_c, 0, 77, 0
3, 11568, Note_on_c, 0, 75, 80
3, 11613, Note_on_c, 0, 75, 0
3, 11616, Note_on_c, 0, 77, 80
3, 11661, Note_on_c, 0, 77, 0
3, 11664, Note_on_c, 0, 75, 80
3, 11709, Note_on_c, 0, 75, 0
3, 29568, Note_on_c, 0, 72, 64
3, 29952, Note_on_c, 0, 72, 0
3, 29952, Note_on_c, 0, 70, 70
3, 30019, Note_on_c, 0, 70, 0
3, 30048, Note_on_c, 0, 70, 64
3, 30137, Note_on_c, 0, 70, 0
3, 30144, Note_on_c, 0, 70, 64
3, 30425, Note_on_c, 0, 70, 0
3, 30432, Note_on_c, 0, 71, 80
3, 30521, Note_on_c, 0, 71, 0
3, 30528, Note_on_c, 0, 71, 80
3, 30720, Note_on_c, 0, 71, 0
3, 30720, Note_on_c, 0, 74, 80
3, 30765, Note_on_c, 0, 74, 0
3, 30768, Note_on_c, 0, 72, 80
3, 30813, Note_on_c, 0, 72, 0
3, 30816, Note_on_c, 0, 75, 80
3, 30861, Note_on_c, 0, 75, 0
3, 30864, Note_on_c, 0, 74, 80
3, 30909, Note_on_c, 0, 74, 0
3, 30912, Note_on_c, 0, 77, 80
3, 30957, Note_on_c, 0, 77, 0
3, 30960, Note_on_c, 0, 75, 80
3, 31005, Note_on_c, 0, 75, 0
3, 31008, Note_on_c, 0, 77, 80
3, 31053, Note_on_c, 0, 77, 0
3, 31056, Note_on_c, 0, 75, 80
3, 31101, Note_on_c, 0, 75, 0
3, 40320, Note_on_c, 0, 72, 80
3, 40365, Note_on_c, 0, 72, 0
3, 40368, Note_on_c, 0, 72, 80
3, 40413, Note_on_c, 0, 72, 0
3, 40416, Note_on_c, 0, 72, 80
3, 40461, Note_on_c, 0, 72, 0
3, 40464, Note_on_c, 0, 72, 96
3, 40509, Note_on_c, 0, 72, 0
3, 40704, Note_on_c, 0, 72, 80
3, 40749, Note_on_c, 0, 72, 0
3, 40752, Note_on_c, 0, 72, 78
3, 40797, Note_on_c, 0, 72, 0
3, 40800, Note_on_c, 0, 72, 76
3, 40845, Note_on_c, 0, 72, 0
3, 40848, Note_on_c, 0, 72, 74
3, 40893, Note_on_c, 0, 72, 0
3, 40896, Note_on_c, 0, 72, 72
3, 40941, Note_on_c, 0, 72, 0
3, 40944, Note_on_c, 0, 72, 70
3, 40989, Note_on_c, 0, 72, 0
3, 40992, Note_on_c, 0, 72, 68
3, 41037, Note_on_c, 0, 72, 0
3, 41040, Note_on_c, 0, 72, 66
3, 41085, Note_on_c, 0, 72, 0
3, 41088, Note_on_c, 0, 72, 64
3, 41133, Note_on_c, 0, 72, 0
3, 41136, Note_on_c, 0, 72, 64
3, 41181, Note_on_c, 0, 72, 0
3, 41184, Note_on_c, 0, 72, 65
3, 41229, Note_on_c, 0, 72, 0
3, 41232, Note_on_c, 0, 72, 66
3, 41277, Note_on_c, 0, 72, 0
3, 41280, Note_on_c, 0, 73, 67
3, 41325, Note_on_c, 0, 73, 0
3, 41328, Note_on_c, 0, 73, 68
3, 41373, Note_on_c, 0, 73, 0
3, 41376, Note_on_c, 0, 73, 69
3, 41421, Note_on_c, 0, 73, 0
3, 41424, Note_on_c, 0, 73, 70
3, 41469, Note_on_c, 0, 73, 0
3, 41472, Note_on_c, 0, 73, 71
3, 41517, Note_on_c, 0, 73, 0
3, 41520, Note_on_c, 0, 73, 72
3, 41565, Note_on_c, 0, 73, 0
3, 41568, Note_on_c, 0, 72, 73
3, 41613, Note_on_c, 0, 72, 0
3, 41616, Note_on_c, 0, 72, 74
3, 41661, Note_on_c, 0, 72, 0
3, 41664, Note_on_c, 0, 72, 75
3, 41709, Note_on_c, 0, 72, 0
3, 41712, Note_on_c, 0, 72, 76
3, 41757, Note_on_c, 0, 72, 0
3, 41760, Note_on_c, 0, 71, 77
3, 41805, Note_on_c, 0, 71, 0
3, 41808, Note_on_c, 0, 71, 78
3, 41853, Note_on_c, 0, 71, 0
3, 60288, Note_on_c, 0, 61, 64
3, 60480, Note_on_c, 0, 61, 0
3, 60480, Note_on_c, 0, 60, 64
3, 60569, Note_on_c, 0, 60, 0
3, 60672, Note_on_c, 0, 61, 64
3, 60864, Note_on_c, 0, 61, 0
3, 60864, Note_on_c, 0, 60, 64
3, 60953, Note_on_c, 0, 60, 0
3, 61056, Note_on_c, 0, 61, 64
3, 61248, Note_on_c, 0, 61, 0
3, 61248, Note_on_c, 0, 60, 64
3, 61337, Note_on_c, 0, 60, 0
3, 68544, Note_on_c, 0, 89, 64
3, 68633, Note_on_c, 0, 89, 0
3, 68640, Note_on_c, 0, 87, 64
3, 68729, Note_on_c, 0, 87, 0
3, 69312, Note_on_c, 0, 75, 64
3, 69401, Note_on_c, 0, 75, 0
3, 69504, Note_on_c, 0, 76, 80
3, 69696, Note_on_c, 0, 76, 0
3, 69696, Note_on_c, 0, 79, 80
3, 69741, Note_on_c, 0, 79, 0
3, 69744, Note_on_c, 0, 77, 80
3, 69789, Note_on_c, 0, 77, 0
3, 69792, Note_on_c, 0, 80, 80
3, 69837, Note_on_c, 0, 80, 0
3, 69840, Note_on_c, 0, 79, 80
3, 69885, Note_on_c, 0, 79, 0
3, 69888, Note_on_c, 0, 82, 80
3, 69933, Note_on_c, 0, 82, 0
3, 69936, Note_on_c, 0, 80, 80
3, 69981, Note_on_c, 0, 80, 0
3, 69984, Note_on_c, 0, 82, 80
3, 70029, Note_on_c, 0, 82, 0
3, 70032, Note_on_c, 0, 80, 80
3, 70077, Note_on_c, 0, 80, 0
3, 78528, End_track
4, 0, Start_track
4, 0, Program_c, 1, 0
4, 0, Control_c, 1, 7, 127
4, 0, Control_c, 1, 10, 64
4, 384, Note_on_c, 1, 39, 64
4, 429, Note_on_c, 1, 39, 0
4, 432, Note_on_c, 1, 51, 64
4, 477, Note_on_c, 1, 51, 0
4, 480, Note_on_c, 1, 51, 64
4, 525, Note_on_c, 1, 51, 0
4, 528, Note_on_c, 1, 51, 64
4, 573, Note_on_c, 1, 51, 0
4, 576, Note_on_c, 1, 51, 64
4, 621, Note_on_c, 1, 51, 0
4, 624, Note_on_c, 1, 51, 64
4, 669, Note_on_c, 1, 51, 0
4, 672, Note_on_c, 1, 51, 64
4, 717, Note_on_c, 1, 51, 0
4, 720, Note_on_c, 1, 51, 64
4, 765, Note_on_c, 1, 51, 0
4, 816, Note_on_c, 1, 51, 64
4, 861, Note_on_c, 1, 51, 0
4, 864, Note_on_c, 1, 51, 64
4, 909, Note_on_c, 1, 51, 0
4, 912, Note_on_c, 1, 51, 64
4, 957, Note_on_c, 1, 51, 0
4, 960, Note_on_c, 1, 51, 64
4, 1005, Note_on_c, 1, 51, 0
4, 1008, Note_on_c, 1, 51, 64
4, 1053, Note_on_c, 1, 51, 0
4, 1056, Note_on_c, 1, 51, 64
4, 1101, Note_on_c, 1, 51, 0
4, 1104, Note_on_c, 1, 51, 64
4, 1149, Note_on_c, 1, 51, 0
4, 1200, Note_on_c, 1, 51, 64
4, 1245, Note_on_c, 1, 51, 0
4, 1248, Note_on_c, 1, 51, 64
4, 1293, Note_on_c, 1, 51, 0
4, 1296, Note_on_c, 1, 51, 64
4, 1341, Note_on_c, 1, 51, 0
4, 1344, Note_on_c, 1, 51, 64
4, 1389, Note_on_c, 1, 51, 0
4, 1392, Note_on_c, 1, 51, 64
4, 1437, Note_on_c, 1, 51, 0
4, 1440, Note_on_c, 1, 51, 64
4, 1485, Note_on_c, 1, 51, 0
4, 1488, Note_on_c, 1, 51, 64
4, 1533, Note_on_c, 1, 51, 0
4, 1968, Note_on_c, 1, 53, 64
4, 2013, Note_on_c, 1, 53, 0
4, 2016, Note_on_c, 1, 53, 64
4, 2061, Note_on_c, 1, 53, 0
4, 2064, Note_on_c, 1, 53, 64
4, 2109, Note_on_c, 1, 53, 0
4, 2112, Note_on_c, 1, 53, 64
4, 2157, Note_on_c, 1, 53, 0
4, 2160, Note_on_c, 1, 53, 64
4, 2205, Note_on_c, 1, 53, 0
4, 2208, Note_on_c, 1, 53, 64
4, 2253, Note_on_c, 1, 53, 0
4, 2256, Note_on_c, 1, 53, 64
4, 2301, Note_on_c, 1, 53, 0
4, 2352, Note_on_c, 1, 53, 64
4, 2397, Note_on_c, 1, 53, 0
4, 2400, Note_on_c, 1, 53, 64
4, 2445, Note_on_c, 1, 53, 0
4, 2448, Note_on_c, 1, 53, 64
4, 2493, Note_on_c, 1, 53, 0
4, 2496, Note_on_c, 1, 53, 64
4, 2541, Note_on_c, 1, 53, 0
4, 2544, Note_on_c, 1, 53, 64
4, 2589, Note_on_c, 1, 53, 0
4, 2592, Note_on_c, 1, 53, 64
4, 2637, Note_on_c, 1, 53, 0
4, 2640, Note_on_c, 1, 53, 64
4, 2685, Note_on_c, 1, 53, 0
4, 2736, Note_on_c, 1, 53, 64
4, 2781, Note_on_c, 1, 53, 0
4, 2784, Note_on_c, 1, 53, 64
4, 2829, Note_on_c, 1, 53, 0
4, 2832, Note_on_c, 1, 53, 64
4, 2877, Note_on_c, 1, 53, 0
4, 2880, Note_on_c, 1, 53, 64
4, 2925, Note_on_c, 1, 53, 0
4, 2928, Note_on_c, 1, 53, 64
4, 2973, Note_on_c, 1, 53, 0
4, 2976, Note_on_c, 1, 53, 64
4, 3021, Note_on_c, 1, 53, 0
4, 3024, Note_on_c, 1, 53, 64
4, 3069, Note_on_c, 1, 53, 0
4, 3072, Note_on_c, 1, 41, 64
4, 3161, Note_on_c, 1, 41, 0
4, 3216, Note_on_c, 1, 46, 80
4, 3216, Note_on_c, 1, 34, 80
4, 3261, Note_on_c, 1, 46, 0
4, 3261, Note_on_c, 1, 34, 0
4, 3264, Note_on_c, 1, 46, 80
4, 3264, Note_on_c, 1, 34, 80
4, 3309, Note_on_c, 1, 46, 0
4, 3309, Note_on_c, 1, 34, 0
4, 3312, Note_on_c, 1, 46, 80
4, 3312, Note_on_c, 1, 34, 80
4, 3357, Note_on_c, 1, 46, 0
4, 3357, Note_on_c, 1, 34, 0
4, 3360, Note_on_c, 1, 46, 80
4, 3360, Note_on_c, 1, 34, 80
4, 3405, Note_on_c, 1, 46, 0
4, 3405, Note_on_c, 1, 34, 0
4, 3408, Note_on_c, 1, 46, 80
4, 3408, Note_on_c, 1, 34, 80
4, 3453, Note_on_c, 1, 46, 0
4, 3453, Note_on_c, 1, 34, 0
4, 3456, Note_on_c, 1, 46, 80
4, 3456, Note_on_c, 1, 34, 80
4, 3545, Note_on_c, 1, 46, 0
4, 3545, Note_on_c, 1, 34, 0
4, 3552, Note_on_c, 1, 53, 80
4, 3597, Note_on_c, 1, 53, 0
4, 3600, Note_on_c, 1, 44, 78
4, 3645, Note_on_c, 1, 44, 0
4, 3648, Note_on_c, 1, 43, 76
4, 3693, Note_on_c, 1, 43, 0
4, 3696, Note_on_c, 1, 46, 75
4, 3741, Note_on_c, 1, 46, 0
4, 3744, Note_on_c, 1, 51, 73
4, 3789, Note_on_c, 1, 51, 0
4, 3792, Note_on_c, 1, 43, 71
4, 3837, Note_on_c, 1, 43, 0
4, 3840, Note_on_c, 1, 44, 70
4, 3885, Note_on_c, 1, 44, 0
4, 3888, Note_on_c, 1, 50, 70
4, 3933, Note_on_c, 1, 50, 0
4, 3936, Note_on_c, 1, 53, 70
4, 3981, Note_on_c, 1, 53, 0
4, 3984, Note_on_c, 1, 44, 70
4, 4029, Note_on_c, 1, 44, 0
4, 4032, Note_on_c, 1, 43, 70
4, 4077, Note_on_c, 1, 43, 0
4, 4080, Note_on_c, 1, 46, 70
4, 4125, Note_on_c, 1, 46, 0
4, 4128, Note_on_c, 1, 51, 70
4, 4173, Note_on_c, 1, 51, 0
4, 4176, Note_on_c, 1, 43, 70
4, 4221, Note_on_c, 1, 43, 0
4, 4224, Note_on_c, 1, 44, 70
4, 4269, Note_on_c, 1, 44, 0
4, 4272, Note_on_c, 1, 50, 70
4, 4317, Note_on_c, 1, 50, 0
4, 4320, Note_on_c, 1, 53, 71
4, 4365, Note_on_c, 1, 53, 0
4, 4368, Note_on_c, 1, 44, 72
4, 4413, Note_on_c, 1, 44, 0
4, 4416, Note_on_c, 1, 43, 73
4, 4461, Note_on_c, 1, 43, 0
4, 4464, Note_on_c, 1, 46, 73
4, 4509, Note_on_c, 1, 46, 0
4, 4512, Note_on_c, 1, 51, 74
4, 4557, Note_on_c, 1, 51, 0
4, 4560, Note_on_c, 1, 55, 75
4, 4605, Note_on_c, 1, 55, 0
4, 4608, Note_on_c, 1, 44, 76
4, 4653, Note_on_c, 1, 44, 0
4, 4656, Note_on_c, 1, 48, 76
4, 4701, Note_on_c, 1, 48, 0
4, 4704, Note_on_c, 1, 53, 77
4, 4749, Note_on_c, 1, 53, 0
4, 4752, Note_on_c, 1, 56, 78
4, 4797, Note_on_c, 1, 56, 0
4, 4800, Note_on_c, 1, 58, 79
4, 4845, Note_on_c, 1, 58, 0
4, 4848, Note_on_c, 1, 58, 80
4, 4893, Note_on_c, 1, 58, 0
4, 4896, Note_on_c, 1, 58, 80
4, 4941, Note_on_c, 1, 58, 0
4, 4944, Note_on_c, 1, 58, 80
4, 4989, Note_on_c, 1, 58, 0
4, 4992, Note_on_c, 1, 46, 80
4, 5037, Note_on_c, 1, 46, 0
4, 5040, Note_on_c, 1, 46, 80
4, 5085, Note_on_c, 1, 46, 0
4, 5088, Note_on_c, 1, 46, 80
4, 5133, Note_on_c, 1, 46, 0
4, 5136, Note_on_c, 1, 46, 80
4, 5181, Note_on_c, 1, 46, 0
4, 5184, Note_on_c, 1, 51, 80
4, 5229, Note_on_c, 1, 51, 0
4, 5232, Note_on_c, 1, 55, 80
4, 5277, Note_on_c, 1, 55, 0
4, 5280, Note_on_c, 1, 51, 80
4, 5325, Note_on_c, 1, 51, 0
4, 5328, Note_on_c, 1, 55, 80
4, 5373, Note_on_c, 1, 55, 0
4, 5376, Note_on_c, 1, 51, 80
4, 5465, Note_on_c, 1, 51, 0
4, 5808, Note_on_c, 1, 67, 64
4, 5853, Note_on_c, 1, 67, 0
4, 5856, Note_on_c, 1, 72, 64
4, 5901, Note_on_c, 1, 72, 0
4, 5904, Note_on_c, 1, 67, 64
4, 5949, Note_on_c, 1, 67, 0
4, 6000, Note_on_c, 1, 67, 64
4, 6045, Note_on_c, 1, 67, 0
4, 6048, Note_on_c, 1, 71, 64
4, 6093, Note_on_c, 1, 71, 0
4, 6096, Note_on_c, 1, 67, 64
4, 6141, Note_on_c, 1, 67, 0
4, 6192, Note_on_c, 1, 63, 64
4, 6237, Note_on_c, 1, 63, 0
4, 6240, Note_on_c, 1, 67, 64
4, 6285, Note_on_c, 1, 67, 0
4, 6288, Note_on_c, 1, 63, 64
4, 6333, Note_on_c, 1, 63, 0
4, 6384, Note_on_c, 1, 63, 69
4, 6429, Note_on_c, 1, 63, 0
4, 6432, Note_on_c, 1, 67, 72
4, 6477, Note_on_c, 1, 67, 0
4, 6480, Note_on_c, 1, 63, 74
4, 6525, Note_on_c, 1, 63, 0
4, 6576, Note_on_c, 1, 60, 80
4, 6621, Note_on_c, 1, 60, 0
4, 6624, Note_on_c, 1, 65, 80
4, 6669, Note_on_c, 1, 65, 0
4, 6672, Note_on_c, 1, 60, 80
4, 6717, Note_on_c, 1, 60, 0
4, 6768, Note_on_c, 1, 60, 80
4, 6813, Note_on_c, 1, 60, 0
4, 6816, Note_on_c, 1, 65, 80
4, 6861, Note_on_c, 1, 65, 0
4, 6864, Note_on_c, 1, 60, 80
4, 6909, Note_on_c, 1, 60, 0
4, 6912, Note_on_c, 1, 58, 80
4, 6957, Note_on_c, 1, 58, 0
4, 6960, Note_on_c, 1, 62, 80
4, 7005, Note_on_c, 1, 62, 0
4, 7008, Note_on_c, 1, 60, 80
4, 7053, Note_on_c, 1, 60, 0
4, 7056, Note_on_c, 1, 63, 80
4, 7101, Note_on_c, 1, 63, 0
4, 7104, Note_on_c, 1, 62, 80
4, 7149, Note_on_c, 1, 62, 0
4, 7152, Note_on_c, 1, 65, 80
4, 7197, Note_on_c, 1, 65, 0
4, 7200, Note_on_c, 1, 50, 80
4, 7245, Note_on_c, 1, 50, 0
4, 7248, Note_on_c, 1, 58, 80
4, 7293, Note_on_c, 1, 58, 0
4, 7296, Note_on_c, 1, 51, 80
4, 7341, Note_on_c, 1, 51, 0
4, 7344, Note_on_c, 1, 58, 80
4, 7389, Note_on_c, 1, 58, 0
4, 7392, Note_on_c, 1, 53, 80
4, 7437, Note_on_c, 1, 53, 0
4, 7440, Note_on_c, 1, 58, 80
4, 7485, Note_on_c, 1, 58, 0
4, 7488, Note_on_c, 1, 55, 80
4, 7533, Note_on_c, 1, 55, 0
4, 7536, Note_on_c, 1, 58, 80
4, 7581, Note_on_c, 1, 58, 0
4, 7584, Note_on_c, 1, 54, 80
4, 7629, Note_on_c, 1, 54, 0
4, 7632, Note_on_c, 1, 58, 80
4, 7677, Note_on_c, 1, 58, 0
4, 7680, Note_on_c, 1, 53, 80
4, 7725, Note_on_c, 1, 53, 0
4, 7728, Note_on_c, 1, 58, 78
4, 7773, Note_on_c, 1, 58, 0
4, 7776, Note_on_c, 1, 52, 77
4, 7821, Note_on_c, 1, 52, 0
4, 7824, Note_on_c, 1, 58, 76
4, 7869, Note_on_c, 1, 58, 0
4, 7872, Note_on_c, 1, 52, 75
4, 7917, Note_on_c, 1, 52, 0
4, 7920, Note_on_c, 1, 60, 74
4, 7965, Note_on_c, 1, 60, 0
4, 7968, Note_on_c, 1, 52, 73
4, 8013, Note_on_c, 1, 52, 0
4, 8016, Note_on_c, 1, 61, 72
4, 8061, Note_on_c, 1, 61, 0
4, 8064, Note_on_c, 1, 53, 70
4, 8109, Note_on_c, 1, 53, 0
4, 8112, Note_on_c, 1, 60, 69
4, 8157, Note_on_c, 1, 60, 0
4, 8160, Note_on_c, 1, 52, 68
4, 8205, Note_on_c, 1, 52, 0
4, 8208, Note_on_c, 1, 61, 67
4, 8253, Note_on_c, 1, 61, 0
4, 8256, Note_on_c, 1, 60, 66
4, 8256, Note_on_c, 1, 53, 66
4, 8345, Note_on_c, 1, 60, 0
4, 8345, Note_on_c, 1, 53, 0
4, 8784, Note_on_c, 1, 65, 80
4, 8829, Note_on_c, 1, 65, 0
4, 8832, Note_on_c, 1, 66, 64
4, 8877, Note_on_c, 1, 66, 0
4, 8880, Note_on_c, 1, 67, 64
4, 8925, Note_on_c, 1, 67, 0
4, 8928, Note_on_c, 1, 68, 64
4, 8973, Note_on_c, 1, 68, 0
4, 8976, Note_on_c, 1, 69, 80
4, 9021, Note_on_c, 1, 69, 0
4, 9024, Note_on_c, 1, 70, 64
4, 9157, Note_on_c, 1, 70, 0
4, 9168, Note_on_c, 1, 65, 86
4, 9168, Note_on_c, 1, 62, 86
4, 9168, Note_on_c, 1, 58, 86
4, 9213, Note_on_c, 1, 65, 0
4, 9213, Note_on_c, 1, 62, 0
4, 9213, Note_on_c, 1, 58, 0
4, 9216, Note_on_c, 1, 65, 86
4, 9216, Note_on_c, 1, 62, 86
4, 9216, Note_on_c, 1, 58, 86
4, 9261, Note_on_c, 1, 65, 0
4, 9261, Note_on_c, 1, 62, 0
4, 9261, Note_on_c, 1, 58, 0
4, 9264, Note_on_c, 1, 65, 86
4, 9264, Note_on_c, 1, 62, 86
4, 9264, Note_on_c, 1, 58, 86
4, 9309, Note_on_c, 1, 65, 0
4, 9309, Note_on_c, 1, 62, 0
4, 9309, Note_on_c, 1, 58, 0
4, 9312, Note_on_c, 1, 65, 86
4, 9312, Note_on_c, 1, 62, 86
4, 9312, Note_on_c, 1, 58, 86
4, 9357, Note_on_c, 1, 65, 0
4, 9357, Note_on_c, 1, 62, 0
4, 9357, Note_on_c, 1, 58, 0
4, 9360, Note_on_c, 1, 65, 86
4, 9360, Note_on_c, 1, 62, 86
4, 9360, Note_on_c, 1, 58, 86
4, 9405, Note_on_c, 1, 65, 0
4, 9405, Note_on_c, 1, 62, 0
4, 9405, Note_on_c, 1, 58, 0
4, 9408, Note_on_c, 1, 60, 102
4, 9408, Note_on_c, 1, 53, 102
4, 9504, Note_on_c, 1, 60, 0
4, 9504, Note_on_c, 1, 53, 0
4, 9504, Note_on_c, 1, 62, 86
4, 9504, Note_on_c, 1, 58, 86
4, 9549, Note_on_c, 1, 62, 0
4, 9549, Note_on_c, 1, 58, 0
4, 9552, Note_on_c, 1, 62, 86
4, 9552, Note_on_c, 1, 58, 86
4, 9597, Note_on_c, 1, 62, 0
4, 9597, Note_on_c, 1, 58, 0
4, 9600, Note_on_c, 1, 60, 102
4, 9600, Note_on_c, 1, 53, 102
4, 9696, Note_on_c, 1, 60, 0
4, 9696, Note_on_c, 1, 53, 0
4, 9696, Note_on_c, 1, 62, 86
4, 9696, Note_on_c, 1, 58, 86
4, 9741, Note_on_c, 1, 62, 0
4, 9741, Note_on_c, 1, 58, 0
4, 9744, Note_on_c, 1, 62, 86
4, 9744, Note_on_c, 1, 58, 86
4, 9789, Note_on_c, 1, 62, 0
4, 9789, Note_on_c, 1, 58, 0
4, 9792, Note_on_c, 1, 60, 102
4, 9792, Note_on_c, 1, 53, 102
4, 9888, Note_on_c, 1, 60, 0
4, 9888, Note_on_c, 1, 53, 0
4, 9888, Note_on_c, 1, 62, 86
4, 9888, Note_on_c, 1, 58, 86
4, 9933, Note_on_c, 1, 62, 0
4, 9933, Note_on_c, 1, 58, 0
4, 9936, Note_on_c, 1, 65, 86
4, 9936, Note_on_c, 1, 56, 86
4, 9981, Note_on_c, 1, 65, 0
4, 9981, Note_on_c, 1, 56, 0
4, 9984, Note_on_c, 1, 65, 86
4, 9984, Note_on_c, 1, 56, 86
4, 10176, Note_on_c, 1, 65, 0
4, 10265, Note_on_c, 1, 56, 0
4, 10272, Note_on_c, 1, 54, 86
4, 10361, Note_on_c, 1, 54, 0
4, 10368, Note_on_c, 1, 53, 86
4, 10560, Note_on_c, 1, 53, 0
4, 10560, Note_on_c, 1, 55, 70
4, 10627, Note_on_c, 1, 55, 0
4, 10656, Note_on_c, 1, 74, 70
4, 10745, Note_on_c, 1, 74, 0
4, 10752, Note_on_c, 1, 74, 70
4, 10929, Note_on_c, 1, 74, 0
4, 10944, Note_on_c, 1, 75, 70
4, 11033, Note_on_c, 1, 75, 0
4, 11040, Note_on_c, 1, 51, 80
4, 11129, Note_on_c, 1, 51, 0
4, 11136, Note_on_c, 1, 63, 80
4, 11136, Note_on_c, 1, 51, 80
4, 11889, Note_on_c, 1, 63, 0
4, 11889, Note_on_c, 1, 51, 0
4, 11904, Note_on_c, 1, 65, 80
4, 11904, Note_on_c, 1, 53, 80
4, 12081, Note_on_c, 1, 65, 0
4, 12081, Note_on_c, 1, 53, 0
4, 12096, Note_on_c, 1, 53, 80
4, 12096, Note_on_c, 1, 41, 80
4, 12273, Note_on_c, 1, 53, 0
4, 12273, Note_on_c, 1, 41, 0
4, 14352, Note_on_c, 1, 60, 80
4, 14375, Note_on_c, 1, 60, 0
4, 14376, Note_on_c, 1, 48, 80
4, 14399, Note_on_c, 1, 48, 0
4, 14448, Note_on_c, 1, 57, 80
4, 14471, Note_on_c, 1, 57, 0
4, 14472, Note_on_c, 1, 45, 80
4, 14495, Note_on_c, 1, 45, 0
4, 14544, Note_on_c, 1, 53, 80
4, 14567, Note_on_c, 1, 53, 0
4, 14568, Note_on_c, 1, 41, 80
4, 14592, Note_on_c, 1, 29, 80
4, 14681, Note_on_c, 1, 41, 0
4, 14681, Note_on_c, 1, 29, 0
4, 14736, Note_on_c, 1, 63, 64
4, 14781, Note_on_c, 1, 63, 0
4, 14784, Note_on_c, 1, 63, 64
4, 14829, Note_on_c, 1, 63, 0
4, 14832, Note_on_c, 1, 63, 64
4, 14877, Note_on_c, 1, 63, 0
4, 14880, Note_on_c, 1, 63, 64
4, 14925, Note_on_c, 1, 63, 0
4, 14928, Note_on_c, 1, 63, 64
4, 14973, Note_on_c, 1, 63, 0
4, 14976, Note_on_c, 1, 63, 64
4, 15021, Note_on_c, 1, 63, 0
4, 15024, Note_on_c, 1, 63, 65
4, 15069, Note_on_c, 1, 63, 0
4, 15072, Note_on_c, 1, 63, 66
4, 15117, Note_on_c, 1, 63, 0
4, 15120, Note_on_c, 1, 63, 67
4, 15165, Note_on_c, 1, 63, 0
4, 15168, Note_on_c, 1, 63, 68
4, 15213, Note_on_c, 1, 63, 0
4, 15216, Note_on_c, 1, 63, 69
4, 15261, Note_on_c, 1, 63, 0
4, 15264, Note_on_c, 1, 63, 70
4, 15309, Note_on_c, 1, 63, 0
4, 15312, Note_on_c, 1, 63, 71
4, 15357, Note_on_c, 1, 63, 0
4, 15360, Note_on_c, 1, 63, 72
4, 15405, Note_on_c, 1, 63, 0
4, 15408, Note_on_c, 1, 63, 73
4, 15453, Note_on_c, 1, 63, 0
4, 15456, Note_on_c, 1, 63, 74
4, 15501, Note_on_c, 1, 63, 0
4, 15504, Note_on_c, 1, 63, 75
4, 15549, Note_on_c, 1, 63, 0
4, 15552, Note_on_c, 1, 63, 76
4, 15597, Note_on_c, 1, 63, 0
4, 15600, Note_on_c, 1, 63, 77
4, 15645, Note_on_c, 1, 63, 0
4, 15648, Note_on_c, 1, 63, 78
4, 15693, Note_on_c, 1, 63, 0
4, 15696, Note_on_c, 1, 63, 80
4, 15741, Note_on_c, 1, 63, 0
4, 15744, Note_on_c, 1, 62, 69
4, 15764, Note_on_c, 1, 62, 0
4, 15840, Note_on_c, 1, 63, 58
4, 15860, Note_on_c, 1, 63, 0
4, 15936, Note_on_c, 1, 65, 58
4, 15956, Note_on_c, 1, 65, 0
4, 16032, Note_on_c, 1, 65, 58
4, 16052, Note_on_c, 1, 65, 0
4, 16128, Note_on_c, 1, 58, 58
4, 16217, Note_on_c, 1, 58, 0
4, 16464, Note_on_c, 1, 48, 80
4, 16484, Note_on_c, 1, 48, 0
4, 16512, Note_on_c, 1, 41, 64
4, 16557, Note_on_c, 1, 41, 0
4, 16560, Note_on_c, 1, 42, 65
4, 16605, Note_on_c, 1, 42, 0
4, 16608, Note_on_c, 1, 41, 66
4, 16653, Note_on_c, 1, 41, 0
4, 16656, Note_on_c, 1, 51, 83
4, 16676, Note_on_c, 1, 51, 0
4, 16704, Note_on_c, 1, 45, 68
4, 16749, Note_on_c, 1, 45, 0
4, 16752, Note_on_c, 1, 46, 69
4, 16797, Note_on_c, 1, 46, 0
4, 16800, Note_on_c, 1, 45, 70
4, 16845, Note_on_c, 1, 45, 0
4, 16848, Note_on_c, 1, 54, 87
4, 16868, Note_on_c, 1, 54, 0
4, 16896, Note_on_c, 1, 48, 72
4, 16941, Note_on_c, 1, 48, 0
4, 16944, Note_on_c, 1, 49, 73
4, 16989, Note_on_c, 1, 49, 0
4, 16992, Note_on_c, 1, 48, 74
4, 17037, Note_on_c, 1, 48, 0
4, 17040, Note_on_c, 1, 57, 91
4, 17060, Note_on_c, 1, 57, 0
4, 17088, Note_on_c, 1, 53, 76
4, 17133, Note_on_c, 1, 53, 0
4, 17136, Note_on_c, 1, 54, 77
4, 17181, Note_on_c, 1, 54, 0
4, 17184, Note_on_c, 1, 53, 78
4, 17229, Note_on_c, 1, 53, 0
4, 17232, Note_on_c, 1, 57, 96
4, 17252, Note_on_c, 1, 57, 0
4, 17280, Note_on_c, 1, 58, 80
4, 17325, Note_on_c, 1, 58, 0
4, 17328, Note_on_c, 1, 46, 80
4, 17373, Note_on_c, 1, 46, 0
4, 17376, Note_on_c, 1, 58, 80
4, 17421, Note_on_c, 1, 58, 0
4, 17424, Note_on_c, 1, 46, 80
4, 17469, Note_on_c, 1, 46, 0
4, 17472, Note_on_c, 1, 58, 80
4, 17517, Note_on_c, 1, 58, 0
4, 17520, Note_on_c, 1, 46, 80
4, 17565, Note_on_c, 1, 46, 0
4, 17568, Note_on_c, 1, 58, 80
4, 17613, Note_on_c, 1, 58, 0
4, 17616, Note_on_c, 1, 46, 80
4, 17661, Note_on_c, 1, 46, 0
4, 17664, Note_on_c, 1, 58, 80
4, 17709, Note_on_c, 1, 58, 0
4, 17712, Note_on_c, 1, 46, 80
4, 17757, Note_on_c, 1, 46, 0
4, 17760, Note_on_c, 1, 58, 80
4, 17805, Note_on_c, 1, 58, 0
4, 17808, Note_on_c, 1, 46, 80
4, 17853, Note_on_c, 1, 46, 0
4, 17856, Note_on_c, 1, 58, 80
4, 17901, Note_on_c, 1, 58, 0
4, 17904, Note_on_c, 1, 46, 80
4, 17949, Note_on_c, 1, 46, 0
4, 17952, Note_on_c, 1, 58, 80
4, 18041, Note_on_c, 1, 58, 0
4, 18048, Note_on_c, 1, 62, 80
4, 18048, Note_on_c, 1, 58, 80
4, 18048, Note_on_c, 1, 53, 80
4, 18048, Note_on_c, 1, 50, 80
4, 18093, Note_on_c, 1, 62, 0
4, 18093, Note_on_c, 1, 58, 0
4, 18093, Note_on_c, 1, 53, 0
4, 18093, Note_on_c, 1, 50, 0
4, 18144, Note_on_c, 1, 60, 80
4, 18144, Note_on_c, 1, 55, 80
4, 18144, Note_on_c, 1, 51, 80
4, 18189, Note_on_c, 1, 60, 0
4, 18189, Note_on_c, 1, 55, 0
4, 18189, Note_on_c, 1, 51, 0
4, 18240, Note_on_c, 1, 62, 80
4, 18240, Note_on_c, 1, 58, 80
4, 18240, Note_on_c, 1, 53, 80
4, 18285, Note_on_c, 1, 62, 0
4, 18285, Note_on_c, 1, 58, 0
4, 18285, Note_on_c, 1, 53, 0
4, 18336, Note_on_c, 1, 60, 80
4, 18336, Note_on_c, 1, 57, 80
4, 18336, Note_on_c, 1, 53, 80
4, 18381, Note_on_c, 1, 60, 0
4, 18381, Note_on_c, 1, 57, 0
4, 18381, Note_on_c, 1, 53, 0
4, 18432, Note_on_c, 1, 58, 80
4, 18455, Note_on_c, 1, 58, 0
4, 18456, Note_on_c, 1, 57, 80
4, 18479, Note_on_c, 1, 57, 0
4, 18480, Note_on_c, 1, 58, 80
4, 18503, Note_on_c, 1, 58, 0
4, 18504, Note_on_c, 1, 57, 80
4, 18527, Note_on_c, 1, 57, 0
4, 18528, Note_on_c, 1, 58, 80
4, 18551, Note_on_c, 1, 58, 0
4, 18552, Note_on_c, 1, 57, 80
4, 18575, Note_on_c, 1, 57, 0
4, 18576, Note_on_c, 1, 58, 80
4, 18599, Note_on_c, 1, 58, 0
4, 18600, Note_on_c, 1, 57, 80
4, 18623, Note_on_c, 1, 57, 0
4, 18624, Note_on_c, 1, 58, 80
4, 18647, Note_on_c, 1, 58, 0
4, 18648, Note_on_c, 1, 57, 80
4, 18671, Note_on_c, 1, 57, 0
4, 18672, Note_on_c, 1, 58, 80
4, 18695, Note_on_c, 1, 58, 0
4, 18696, Note_on_c, 1, 57, 80
4, 18719, Note_on_c, 1, 57, 0
4, 18720, Note_on_c, 1, 58, 80
4, 18743, Note_on_c, 1, 58, 0
4, 18744, Note_on_c, 1, 57, 80
4, 18767, Note_on_c, 1, 57, 0
4, 18768, Note_on_c, 1, 58, 80
4, 18791, Note_on_c, 1, 58, 0
4, 18792, Note_on_c, 1, 57, 80
4, 18815, Note_on_c, 1, 57, 0
4, 18816, Note_on_c, 1, 58, 80
4, 18905, Note_on_c, 1, 58, 0
4, 18960, Note_on_c, 1, 55, 80
4, 18960, Note_on_c, 1, 51, 80
4, 19005, Note_on_c, 1, 55, 0
4, 19005, Note_on_c, 1, 51, 0
4, 19008, Note_on_c, 1, 53, 80
4, 19008, Note_on_c, 1, 50, 80
4, 19053, Note_on_c, 1, 53, 0
4, 19053, Note_on_c, 1, 50, 0
4, 19056, Note_on_c, 1, 55, 80
4, 19056, Note_on_c, 1, 51, 80
4, 19101, Note_on_c, 1, 55, 0
4, 19101, Note_on_c, 1, 51, 0
4, 19104, Note_on_c, 1, 53, 80
4, 19104, Note_on_c, 1, 50, 80
4, 19149, Note_on_c, 1, 53, 0
4, 19149, Note_on_c, 1, 50, 0
4, 19152, Note_on_c, 1, 51, 80
4, 19152, Note_on_c, 1, 48, 80
4, 19197, Note_on_c, 1, 51, 0
4, 19197, Note_on_c, 1, 48, 0
4, 19200, Note_on_c, 1, 50, 80
4, 19200, Note_on_c, 1, 46, 80
4, 19289, Note_on_c, 1, 50, 0
4, 19289, Note_on_c, 1, 46, 0
4, 19296, Note_on_c, 1, 58, 80
4, 19296, Note_on_c, 1, 53, 80
4, 19296, Note_on_c, 1, 50, 80
4, 19296, Note_on_c, 1, 46, 80
4, 19385, Note_on_c, 1, 58, 0
4, 19385, Note_on_c, 1, 53, 0
4, 19385, Note_on_c, 1, 50, 0
4, 19385, Note_on_c, 1, 46, 0
4, 19776, Note_on_c, 1, 39, 64
4, 19821, Note_on_c, 1, 39, 0
4, 19824, Note_on_c, 1, 51, 64
4, 19869, Note_on_c, 1, 51, 0
4, 19872, Note_on_c, 1, 51, 64
4, 19917, Note_on_c, 1, 51, 0
4, 19920, Note_on_c, 1, 51, 64
4, 19965, Note_on_c, 1, 51, 0
4, 19968, Note_on_c, 1, 51, 64
4, 20013, Note_on_c, 1, 51, 0
4, 20016, Note_on_c, 1, 51, 64
4, 20061, Note_on_c, 1, 51, 0
4, 20064, Note_on_c, 1, 51, 64
4, 20109, Note_on_c, 1, 51, 0
4, 20112, Note_on_c, 1, 51, 64
4, 20157, Note_on_c, 1, 51, 0
4, 20208, Note_on_c, 1, 51, 64
4, 20253, Note_on_c, 1, 51, 0
4, 20256, Note_on_c, 1, 51, 64
4, 20301, Note_on_c, 1, 51, 0
4, 20304, Note_on_c, 1, 51, 64
4, 20349, Note_on_c, 1, 51, 0
4, 20352, Note_on_c, 1, 51, 64
4, 20397, Note_on_c, 1, 51, 0
4, 20400, Note_on_c, 1, 51, 64
4, 20445, Note_on_c, 1, 51, 0
4, 20448, Note_on_c, 1, 51, 64
4, 20493, Note_on_c, 1, 51, 0
4, 20496, Note_on_c, 1, 51, 64
4, 20541, Note_on_c, 1, 51, 0
4, 20592, Note_on_c, 1, 51, 64
4, 20637, Note_on_c, 1, 51, 0
4, 20640, Note_on_c, 1, 51, 64
4, 20685, Note_on_c, 1, 51, 0
4, 20688, Note_on_c, 1, 51, 64
4, 20733, Note_on_c, 1, 51, 0
4, 20736, Note_on_c, 1, 51, 64
4, 20781, Note_on_c, 1, 51, 0
4, 20784, Note_on_c, 1, 51, 64
4, 20829, Note_on_c, 1, 51, 0
4, 20832, Note_on_c, 1, 51, 64
4, 20877, Note_on_c, 1, 51, 0
4, 20880, Note_on_c, 1, 51, 64
4, 20925, Note_on_c, 1, 51, 0
4, 21360, Note_on_c, 1, 53, 64
4, 21405, Note_on_c, 1, 53, 0
4, 21408, Note_on_c, 1, 53, 64
4, 21453, Note_on_c, 1, 53, 0
4, 21456, Note_on_c, 1, 53, 64
4, 21501, Note_on_c, 1, 53, 0
4, 21504, Note_on_c, 1, 53, 64
4, 21549, Note_on_c, 1, 53, 0
4, 21552, Note_on_c, 1, 53, 64
4, 21597, Note_on_c, 1, 53, 0
4, 21600, Note_on_c, 1, 53, 64
4, 21645, Note_on_c, 1, 53, 0
4, 21648, Note_on_c, 1, 53, 64
4, 21693, Note_on_c, 1, 53, 0
4, 21744, Note_on_c, 1, 53, 64
4, 21789, Note_on_c, 1, 53, 0
4, 21792, Note_on_c, 1, 53, 64
4, 21837, Note_on_c, 1, 53, 0
4, 21840, Note_on_c, 1, 53, 64
4, 21885, Note_on_c, 1, 53, 0
4, 21888, Note_on_c, 1, 53, 64
4, 21933, Note_on_c, 1, 53, 0
4, 21936, Note_on_c, 1, 53, 64
4, 21981, Note_on_c, 1, 53, 0
4, 21984, Note_on_c, 1, 53, 64
4, 22029, Note_on_c, 1, 53, 0
4, 22032, Note_on_c, 1, 53, 64
4, 22077, Note_on_c, 1, 53, 0
4, 22128, Note_on_c, 1, 53, 64
4, 22173, Note_on_c, 1, 53, 0
4, 22176, Note_on_c, 1, 53, 64
4, 22221, Note_on_c, 1, 53, 0
4, 22224, Note_on_c, 1, 53, 64
4, 22269, Note_on_c, 1, 53, 0
4, 22272, Note_on_c, 1, 53, 64
4, 22317, Note_on_c, 1, 53, 0
4, 22320, Note_on_c, 1, 53, 64
4, 22365, Note_on_c, 1, 53, 0
4, 22368, Note_on_c, 1, 53, 64
4, 22413, Note_on_c, 1, 53, 0
4, 22416, Note_on_c, 1, 53, 64
4, 22461, Note_on_c, 1, 53, 0
4, 22464, Note_on_c, 1, 41, 64
4, 22553, Note_on_c, 1, 41, 0
4, 22608, Note_on_c, 1, 46, 80
4, 22608, Note_on_c, 1, 34, 80
4, 22653, Note_on_c, 1, 46, 0
4, 22653, Note_on_c, 1, 34, 0
4, 22656, Note_on_c, 1, 46, 80
4, 22656, Note_on_c, 1, 34, 80
4, 22701, Note_on_c, 1, 46, 0
4, 22701, Note_on_c, 1, 34, 0
4, 22704, Note_on_c, 1, 46, 80
4, 22704, Note_on_c, 1, 34, 80
4, 22749, Note_on_c, 1, 46, 0
4, 22749, Note_on_c, 1, 34, 0
4, 22752, Note_on_c, 1, 46, 80
4, 22752, Note_on_c, 1, 34, 80
4, 22797, Note_on_c, 1, 46, 0
4, 22797, Note_on_c, 1, 34, 0
4, 22800, Note_on_c, 1, 46, 80
4, 22800, Note_on_c, 1, 34, 80
4, 22845, Note_on_c, 1, 46, 0
4, 22845, Note_on_c, 1, 34, 0
4, 22848, Note_on_c, 1, 46, 80
4, 22848, Note_on_c, 1, 34, 80
4, 22937, Note_on_c, 1, 46, 0
4, 22937, Note_on_c, 1, 34, 0
4, 22944, Note_on_c, 1, 53, 80
4, 22989, Note_on_c, 1, 53, 0
4, 22992, Note_on_c, 1, 44, 78
4, 23037, Note_on_c, 1, 44, 0
4, 23040, Note_on_c, 1, 43, 76
4, 23085, Note_on_c, 1, 43, 0
4, 23088, Note_on_c, 1, 46, 75
4, 23133, Note_on_c, 1, 46, 0
4, 23136, Note_on_c, 1, 51, 73
4, 23181, Note_on_c, 1, 51, 0
4, 23184, Note_on_c, 1, 43, 71
4, 23229, Note_on_c, 1, 43, 0
4, 23232, Note_on_c, 1, 44, 70
4, 23277, Note_on_c, 1, 44, 0
4, 23280, Note_on_c, 1, 50, 70
4, 23325, Note_on_c, 1, 50, 0
4, 23328, Note_on_c, 1, 53, 70
4, 23373, Note_on_c, 1, 53, 0
4, 23376, Note_on_c, 1, 44, 70
4, 23421, Note_on_c, 1, 44, 0
4, 23424, Note_on_c, 1, 43, 70
4, 23469, Note_on_c, 1, 43, 0
4, 23472, Note_on_c, 1, 46, 70
4, 23517, Note_on_c, 1, 46, 0
4, 23520, Note_on_c, 1, 51, 70
4, 23565, Note_on_c, 1, 51, 0
4, 23568, Note_on_c, 1, 43, 70
4, 23613, Note_on_c, 1, 43, 0
4, 23616, Note_on_c, 1, 44, 70
4, 23661, Note_on_c, 1, 44, 0
4, 23664, Note_on_c, 1, 50, 70
4, 23709, Note_on_c, 1, 50, 0
4, 23712, Note_on_c, 1, 53, 71
4, 23757, Note_on_c, 1, 53, 0
4, 23760, Note_on_c, 1, 44, 72
4, 23805, Note_on_c, 1, 44, 0
4, 23808, Note_on_c, 1, 43, 73
4, 23853, Note_on_c, 1, 43, 0
4, 23856, Note_on_c, 1, 46, 73
4, 23901, Note_on_c, 1, 46, 0
4, 23904, Note_on_c, 1, 51, 74
4, 23949, Note_on_c, 1, 51, 0
4, 23952, Note_on_c, 1, 55, 75
4, 23997, Note_on_c, 1, 55, 0
4, 24000, Note_on_c, 1, 44, 76
4, 24045, Note_on_c, 1, 44, 0
4, 24048, Note_on_c, 1, 48, 76
4, 24093, Note_on_c, 1, 48, 0
4, 24096, Note_on_c, 1, 53, 77
4, 24141, Note_on_c, 1, 53, 0
4, 24144, Note_on_c, 1, 56, 78
4, 24189, Note_on_c, 1, 56, 0
4, 24192, Note_on_c, 1, 58, 79
4, 24237, Note_on_c, 1, 58, 0
4, 24240, Note_on_c, 1, 58, 80
4, 24285, Note_on_c, 1, 58, 0
4, 24288, Note_on_c, 1, 58, 80
4, 24333, Note_on_c, 1, 58, 0
4, 24336, Note_on_c, 1, 58, 80
4, 24381, Note_on_c, 1, 58, 0
4, 24384, Note_on_c, 1, 46, 80
4, 24429, Note_on_c, 1, 46, 0
4, 24432, Note_on_c, 1, 46, 80
4, 24477, Note_on_c, 1, 46, 0
4, 24480, Note_on_c, 1, 46, 80
4, 24525, Note_on_c, 1, 46, 0
4, 24528, Note_on_c, 1, 46, 80
4, 24573, Note_on_c, 1, 46, 0
4, 24576, Note_on_c, 1, 51, 80
4, 24621, Note_on_c, 1, 51, 0
4, 24624, Note_on_c, 1, 55, 80
4, 24669, Note_on_c, 1, 55, 0
4, 24672, Note_on_c, 1, 51, 80
4, 24717, Note_on_c, 1, 51, 0
4, 24720, Note_on_c, 1, 55, 80
4, 24765, Note_on_c, 1, 55, 0
4, 24768, Note_on_c, 1, 51, 80
4, 24857, Note_on_c, 1, 51, 0
4, 25200, Note_on_c, 1, 67, 64
4, 25245, Note_on_c, 1, 67, 0
4, 25248, Note_on_c, 1, 72, 64
4, 25293, Note_on_c, 1, 72, 0
4, 25296, Note_on_c, 1, 67, 64
4, 25341, Note_on_c, 1, 67, 0
4, 25392, Note_on_c, 1, 67, 64
4, 25437, Note_on_c, 1, 67, 0
4, 25440, Note_on_c, 1, 71, 64
4, 25485, Note_on_c, 1, 71, 0
4, 25488, Note_on_c, 1, 67, 64
4, 25533, Note_on_c, 1, 67, 0
4, 25584, Note_on_c, 1, 63, 64
4, 25629, Note_on_c, 1, 63, 0
4, 25632, Note_on_c, 1, 67, 64
4, 25677, Note_on_c, 1, 67, 0
4, 25680, Note_on_c, 1, 63, 64
4, 25725, Note_on_c, 1, 63, 0
4, 25776, Note_on_c, 1, 63, 69
4, 25821, Note_on_c, 1, 63, 0
4, 25824, Note_on_c, 1, 67, 72
4, 25869, Note_on_c, 1, 67, 0
4, 25872, Note_on_c, 1, 63, 74
4, 25917, Note_on_c, 1, 63, 0
4, 25968, Note_on_c, 1, 60, 80
4, 26013, Note_on_c, 1, 60, 0
4, 26016, Note_on_c, 1, 65, 80
4, 26061, Note_on_c, 1, 65, 0
4, 26064, Note_on_c, 1, 60, 80
4, 26109, Note_on_c, 1, 60, 0
4, 26160, Note_on_c, 1, 60, 80
4, 26205, Note_on_c, 1, 60, 0
4, 26208, Note_on_c, 1, 65, 80
4, 26253, Note_on_c, 1, 65, 0
4, 26256, Note_on_c, 1, 60, 80
4, 26301, Note_on_c, 1, 60, 0
4, 26304, Note_on_c, 1, 58, 80
4, 26349, Note_on_c, 1, 58, 0
4, 26352, Note_on_c, 1, 62, 80
4, 26397, Note_on_c, 1, 62, 0
4, 26400, Note_on_c, 1, 60, 80
4, 26445, Note_on_c, 1, 60, 0
4, 26448, Note_on_c, 1, 63, 80
4, 26493, Note_on_c, 1, 63, 0
4, 26496, Note_on_c, 1, 62, 80
4, 26541, Note_on_c, 1, 62, 0
4, 26544, Note_on_c, 1, 65, 80
4, 26589, Note_on_c, 1, 65, 0
4, 26592, Note_on_c, 1, 50, 80
4, 26637, Note_on_c, 1, 50, 0
4, 26640, Note_on_c, 1, 58, 80
4, 26685, Note_on_c, 1, 58, 0
4, 26688, Note_on_c, 1, 51, 80
4, 26733, Note_on_c, 1, 51, 0
4, 26736, Note_on_c, 1, 58, 80
4, 26781, Note_on_c, 1, 58, 0
4, 26784, Note_on_c, 1, 53, 80
4, 26829, Note_on_c, 1, 53, 0
4, 26832, Note_on_c, 1, 58, 80
4, 26877, Note_on_c, 1, 58, 0
4, 26880, Note_on_c, 1, 55, 80
4, 26925, Note_on_c, 1, 55, 0
4, 26928, Note_on_c, 1, 58, 80
4, 26973, Note_on_c, 1, 58, 0
4, 26976, Note_on_c, 1, 54, 80
4, 27021, Note_on_c, 1, 54, 0
4, 27024, Note_on_c, 1, 58, 80
4, 27069, Note_on_c, 1, 58, 0
4, 27072, Note_on_c, 1, 53, 80
4, 27117, Note_on_c, 1, 53, 0
4, 27120, Note_on_c, 1, 58, 78
4, 27165, Note_on_c, 1, 58, 0
4, 27168, Note_on_c, 1, 52, 77
4, 27213, Note_on_c, 1, 52, 0
4, 27216, Note_on_c, 1, 58, 76
4, 27261, Note_on_c, 1, 58, 0
4, 27264, Note_on_c, 1, 52, 75
4, 27309, Note_on_c, 1, 52, 0
4, 27312, Note_on_c, 1, 60, 74
4, 27357, Note_on_c, 1, 60, 0
4, 27360, Note_on_c, 1, 52, 73
4, 27405, Note_on_c, 1, 52, 0
4, 27408, Note_on_c, 1, 61, 72
4, 27453, Note_on_c, 1, 61, 0
4, 27456, Note_on_c, 1, 53, 70
4, 27501, Note_on_c, 1, 53, 0
4, 27504, Note_on_c, 1, 60, 69
4, 27549, Note_on_c, 1, 60, 0
4, 27552, Note_on_c, 1, 52, 68
4, 27597, Note_on_c, 1, 52, 0
4, 27600, Note_on_c, 1, 61, 67
4, 27645, Note_on_c, 1, 61, 0
4, 27648, Note_on_c, 1, 60, 66
4, 27648, Note_on_c, 1, 53, 66
4, 27737, Note_on_c, 1, 60, 0
4, 27737, Note_on_c, 1, 53, 0
4, 28176, Note_on_c, 1, 65, 80
4, 28221, Note_on_c, 1, 65, 0
4, 28224, Note_on_c, 1, 66, 64
4, 28269, Note_on_c, 1, 66, 0
4, 28272, Note_on_c, 1, 67, 64
4, 28317, Note_on_c, 1, 67, 0
4, 28320, Note_on_c, 1, 68, 64
4, 28365, Note_on_c, 1, 68, 0
4, 28368, Note_on_c, 1, 69, 80
4, 28413, Note_on_c, 1, 69, 0
4, 28416, Note_on_c, 1, 70, 64
4, 28549, Note_on_c, 1, 70, 0
4, 28560, Note_on_c, 1, 65, 86
4, 28560, Note_on_c, 1, 62, 86
4, 28560, Note_on_c, 1, 58, 86
4, 28605, Note_on_c, 1, 65, 0
4, 28605, Note_on_c, 1, 62, 0
4, 28605, Note_on_c, 1, 58, 0
4, 28608, Note_on_c, 1, 65, 86
4, 28608, Note_on_c, 1, 62, 86
4, 28608, Note_on_c, 1, 58, 86
4, 28653, Note_on_c, 1, 65, 0
4, 28653, Note_on_c, 1, 62, 0
4, 28653, Note_on_c, 1, 58, 0
4, 28656, Note_on_c, 1, 65, 86
4, 28656, Note_on_c, 1, 62, 86
4, 28656, Note_on_c, 1, 58, 86
4, 28701, Note_on_c, 1, 65, 0
4, 28701, Note_on_c, 1, 62, 0
4, 28701, Note_on_c, 1, 58, 0
4, 28704, Note_on_c, 1, 65, 86
4, 28704, Note_on_c, 1, 62, 86
4, 28704, Note_on_c, 1, 58, 86
4, 28749, Note_on_c, 1, 65, 0
4, 28749, Note_on_c, 1, 62, 0
4, 28749, Note_on_c, 1, 58, 0
4, 28752, Note_on_c, 1, 65, 86
4, 28752, Note_on_c, 1, 62, 86
4, 28752, Note_on_c, 1, 58, 86
4, 28797, Note_on_c, 1, 65, 0
4, 28797, Note_on_c, 1, 62, 0
4, 28797, Note_on_c, 1, 58, 0
4, 28800, Note_on_c, 1, 60, 102
4, 28800, Note_on_c, 1, 53, 102
4, 28896, Note_on_c, 1, 60, 0
4, 28896, Note_on_c, 1, 53, 0
4, 28896, Note_on_c, 1, 62, 86
4, 28896, Note_on_c, 1, 58, 86
4, 28941, Note_on_c, 1, 62, 0
4, 28941, Note_on_c, 1, 58, 0
4, 28944, Note_on_c, 1, 62, 86
4, 28944, Note_on_c, 1, 58, 86
4, 28989, Note_on_c, 1, 62, 0
4, 28989, Note_on_c, 1, 58, 0
4, 28992, Note_on_c, 1, 60, 102
4, 28992, Note_on_c, 1, 53, 102
4, 29088, Note_on_c, 1, 60, 0
4, 29088, Note_on_c, 1, 53, 0
4, 29088, Note_on_c, 1, 62, 86
4, 29088, Note_on_c, 1, 58, 86
4, 29133, Note_on_c, 1, 62, 0
4, 29133, Note_on_c, 1, 58, 0
4, 29136, Note_on_c, 1, 62, 86
4, 29136, Note_on_c, 1, 58, 86
4, 29181, Note_on_c, 1, 62, 0
4, 29181, Note_on_c, 1, 58, 0
4, 29184, Note_on_c, 1, 60, 102
4, 29184, Note_on_c, 1, 53, 102
4, 29280, Note_on_c, 1, 60, 0
4, 29280, Note_on_c, 1, 53, 0
4, 29280, Note_on_c, 1, 62, 86
4, 29280, Note_on_c, 1, 58, 86
4, 29325, Note_on_c, 1, 62, 0
4, 29325, Note_on_c, 1, 58, 0
4, 29328, Note_on_c, 1, 65, 86
4, 29328, Note_on_c, 1, 56, 86
4, 29373, Note_on_c, 1, 65, 0
4, 29373, Note_on_c, 1, 56, 0
4, 29376, Note_on_c, 1, 65, 86
4, 29376, Note_on_c, 1, 56, 86
4, 29568, Note_on_c, 1, 65, 0
4, 29657, Note_on_c, 1, 56, 0
4, 29664, Note_on_c, 1, 54, 86
4, 29753, Note_on_c, 1, 54, 0
4, 29760, Note_on_c, 1, 53, 86
4, 29952, Note_on_c, 1, 53, 0
4, 29952, Note_on_c, 1, 55, 70
4, 30019, Note_on_c, 1, 55, 0
4, 30048, Note_on_c, 1, 74, 70
4, 30137, Note_on_c, 1, 74, 0
4, 30144, Note_on_c, 1, 74, 70
4, 30321, Note_on_c, 1, 74, 0
4, 30336, Note_on_c, 1, 75, 70
4, 30425, Note_on_c, 1, 75, 0
4, 30432, Note_on_c, 1, 51, 80
4, 30521, Note_on_c, 1, 51, 0
4, 30528, Note_on_c, 1, 63, 80
4, 30528, Note_on_c, 1, 51, 80
4, 31281, Note_on_c, 1, 63, 0
4, 31281, Note_on_c, 1, 51, 0
4, 31296, Note_on_c, 1, 65, 80
4, 31296, Note_on_c, 1, 53, 80
4, 31473, Note_on_c, 1, 65, 0
4, 31473, Note_on_c, 1, 53, 0
4, 31488, Note_on_c, 1, 53, 80
4, 31488, Note_on_c, 1, 41, 80
4, 31665, Note_on_c, 1, 53, 0
4, 31665, Note_on_c, 1, 41, 0
4, 33744, Note_on_c, 1, 60, 80
4, 33767, Note_on_c, 1, 60, 0
4, 33768, Note_on_c, 1, 48, 80
4, 33791, Note_on_c, 1, 48, 0
4, 33840, Note_on_c, 1, 57, 80
4, 33863, Note_on_c, 1, 57, 0
4, 33864, Note_on_c, 1, 45, 80
4, 33887, Note_on_c, 1, 45, 0
4, 33936, Note_on_c, 1, 53, 80
4, 33959, Note_on_c, 1, 53, 0
4, 33960, Note_on_c, 1, 41, 80
4, 33984, Note_on_c, 1, 29, 80
4, 34073, Note_on_c, 1, 41, 0
4, 34073, Note_on_c, 1, 29, 0
4, 34128, Note_on_c, 1, 63, 64
4, 34173, Note_on_c, 1, 63, 0
4, 34176, Note_on_c, 1, 63, 64
4, 34221, Note_on_c, 1, 63, 0
4, 34224, Note_on_c, 1, 63, 64
4, 34269, Note_on_c, 1, 63, 0
4, 34272, Note_on_c, 1, 63, 64
4, 34317, Note_on_c, 1, 63, 0
4, 34320, Note_on_c, 1, 63, 64
4, 34365, Note_on_c, 1, 63, 0
4, 34368, Note_on_c, 1, 63, 64
4, 34413, Note_on_c, 1, 63, 0
4, 34416, Note_on_c, 1, 63, 65
4, 34461, Note_on_c, 1, 63, 0
4, 34464, Note_on_c, 1, 63, 66
4, 34509, Note_on_c, 1, 63, 0
4, 34512, Note_on_c, 1, 63, 67
4, 34557, Note_on_c, 1, 63, 0
4, 34560, Note_on_c, 1, 63, 68
4, 34605, Note_on_c, 1, 63, 0
4, 34608, Note_on_c, 1, 63, 69
4, 34653, Note_on_c, 1, 63, 0
4, 34656, Note_on_c, 1, 63, 70
4, 34701, Note_on_c, 1, 63, 0
4, 34704, Note_on_c, 1, 63, 71
4, 34749, Note_on_c, 1, 63, 0
4, 34752, Note_on_c, 1, 63, 72
4, 34797, Note_on_c, 1, 63, 0
4, 34800, Note_on_c, 1, 63, 73
4, 34845, Note_on_c, 1, 63, 0
4, 34848, Note_on_c, 1, 63, 74
4, 34893, Note_on_c, 1, 63, 0
4, 34896, Note_on_c, 1, 63, 75
4, 34941, Note_on_c, 1, 63, 0
4, 34944, Note_on_c, 1, 63, 76
4, 34989, Note_on_c, 1, 63, 0
4, 34992, Note_on_c, 1, 63, 77
4, 35037, Note_on_c, 1, 63, 0
4, 35040, Note_on_c, 1, 63, 78
4, 35085, Note_on_c, 1, 63, 0
4, 35088, Note_on_c, 1, 63, 80
4, 35133, Note_on_c, 1, 63, 0
4, 35136, Note_on_c, 1, 62, 69
4, 35156, Note_on_c, 1, 62, 0
4, 35232, Note_on_c, 1, 63, 58
4, 35252, Note_on_c, 1, 63, 0
4, 35328, Note_on_c, 1, 65, 58
4, 35348, Note_on_c, 1, 65, 0
4, 35424, Note_on_c, 1, 65, 58
4, 35444, Note_on_c, 1, 65, 0
4, 35520, Note_on_c, 1, 58, 58
4, 35609, Note_on_c, 1, 58, 0
4, 35856, Note_on_c, 1, 48, 80
4, 35876, Note_on_c, 1, 48, 0
4, 35904, Note_on_c, 1, 41, 64
4, 35949, Note_on_c, 1, 41, 0
4, 35952, Note_on_c, 1, 42, 65
4, 35997, Note_on_c, 1, 42, 0
4, 36000, Note_on_c, 1, 41, 66
4, 36045, Note_on_c, 1, 41, 0
4, 36048, Note_on_c, 1, 51, 83
4, 36068, Note_on_c, 1, 51, 0
4, 36096, Note_on_c, 1, 45, 68
4, 36141, Note_on_c, 1, 45, 0
4, 36144, Note_on_c, 1, 46, 69
4, 36189, Note_on_c, 1, 46, 0
4, 36192, Note_on_c, 1, 45, 70
4, 36237, Note_on_c, 1, 45, 0
4, 36240, Note_on_c, 1, 54, 87
4, 36260, Note_on_c, 1, 54, 0
4, 36288, Note_on_c, 1, 48, 72
4, 36333, Note_on_c, 1, 48, 0
4, 36336, Note_on_c, 1, 49, 73
4, 36381, Note_on_c, 1, 49, 0
4, 36384, Note_on_c, 1, 48, 74
4, 36429, Note_on_c, 1, 48, 0
4, 36432, Note_on_c, 1, 57, 91
4, 36452, Note_on_c, 1, 57, 0
4, 36480, Note_on_c, 1, 53, 76
4, 36525, Note_on_c, 1, 53, 0
4, 36528, Note_on_c, 1, 54, 77
4, 36573, Note_on_c, 1, 54, 0
4, 36576, Note_on_c, 1, 53, 78
4, 36621, Note_on_c, 1, 53, 0
4, 36624, Note_on_c, 1, 57, 96
4, 36644, Note_on_c, 1, 57, 0
4, 36672, Note_on_c, 1, 58, 80
4, 36717, Note_on_c, 1, 58, 0
4, 36720, Note_on_c, 1, 46, 80
4, 36765, Note_on_c, 1, 46, 0
4, 36768, Note_on_c, 1, 58, 80
4, 36813, Note_on_c, 1, 58, 0
4, 36816, Note_on_c, 1, 46, 80
4, 36861, Note_on_c, 1, 46, 0
4, 36864, Note_on_c, 1, 58, 80
4, 36909, Note_on_c, 1, 58, 0
4, 36912, Note_on_c, 1, 46, 80
4, 36957, Note_on_c, 1, 46, 0
4, 36960, Note_on_c, 1, 58, 80
4, 37005, Note_on_c, 1, 58, 0
4, 37008, Note_on_c, 1, 46, 80
4, 37053, Note_on_c, 1, 46, 0
4, 37056, Note_on_c, 1, 58, 80
4, 37101, Note_on_c, 1, 58, 0
4, 37104, Note_on_c, 1, 46, 80
4, 37149, Note_on_c, 1, 46, 0
4, 37152, Note_on_c, 1, 58, 80
4, 37197, Note_on_c, 1, 58, 0
4, 37200, Note_on_c, 1, 46, 80
4, 37245, Note_on_c, 1, 46, 0
4, 37248, Note_on_c, 1, 58, 80
4, 37293, Note_on_c, 1, 58, 0
4, 37296, Note_on_c, 1, 46, 80
4, 37341, Note_on_c, 1, 46, 0
4, 37344, Note_on_c, 1, 58, 80
4, 37433, Note_on_c, 1, 58, 0
4, 37440, Note_on_c, 1, 62, 80
4, 37440, Note_on_c, 1, 58, 80
4, 37440, Note_on_c, 1, 53, 80
4, 37440, Note_on_c, 1, 50, 80
4, 37485, Note_on_c, 1, 62, 0
4, 37485, Note_on_c, 1, 58, 0
4, 37485, Note_on_c, 1, 53, 0
4, 37485, Note_on_c, 1, 50, 0
4, 37536, Note_on_c, 1, 60, 80
4, 37536, Note_on_c, 1, 55, 80
4, 37536, Note_on_c, 1, 51, 80
4, 37581, Note_on_c, 1, 60, 0
4, 37581, Note_on_c, 1, 55, 0
4, 37581, Note_on_c, 1, 51, 0
4, 37632, Note_on_c, 1, 62, 80
4, 37632, Note_on_c, 1, 58, 80
4, 37632, Note_on_c, 1, 53, 80
4, 37677, Note_on_c, 1, 62, 0
4, 37677, Note_on_c, 1, 58, 0
4, 37677, Note_on_c, 1, 53, 0
4, 37728, Note_on_c, 1, 60, 80
4, 37728, Note_on_c, 1, 57, 80
4, 37728, Note_on_c, 1, 53, 80
4, 37773, Note_on_c, 1, 60, 0
4, 37773, Note_on_c, 1, 57, 0
4, 37773, Note_on_c, 1, 53, 0
4, 37824, Note_on_c, 1, 58, 80
4, 37847, Note_on_c, 1, 58, 0
4, 37848, Note_on_c, 1, 57, 80
4, 37871, Note_on_c, 1, 57, 0
4, 37872, Note_on_c, 1, 58, 80
4, 37895, Note_on_c, 1, 58, 0
4, 37896, Note_on_c, 1, 57, 80
4, 37919, Note_on_c, 1, 57, 0
4, 37920, Note_on_c, 1, 58, 80
4, 37943, Note_on_c, 1, 58, 0
4, 37944, Note_on_c, 1, 57, 80
4, 37967, Note_on_c, 1, 57, 0
4, 37968, Note_on_c, 1, 58, 80
4, 37991, Note_on_c, 1, 58, 0
4, 37992, Note_on_c, 1, 57, 80
4, 38015, Note_on_c, 1, 57, 0
4, 38016, Note_on_c, 1, 58, 80
4, 38039, Note_on_c, 1, 58, 0
4, 38040, Note_on_c, 1, 57, 80
4, 38063, Note_on_c, 1, 57, 0
4, 38064, Note_on_c, 1, 58, 80
4, 38087, Note_on_c, 1, 58, 0
4, 38088, Note_on_c, 1, 57, 80
4, 38111, Note_on_c, 1, 57, 0
4, 38112, Note_on_c, 1, 58, 80
4, 38135, Note_on_c, 1, 58, 0
4, 38136, Note_on_c, 1, 57, 80
4, 38159, Note_on_c, 1, 57, 0
4, 38160, Note_on_c, 1, 58, 80
4, 38183, Note_on_c, 1, 58, 0
4, 38184, Note_on_c, 1, 57, 80
4, 38207, Note_on_c, 1, 57, 0
4, 38208, Note_on_c, 1, 58, 80
4, 38297, Note_on_c, 1, 58, 0
4, 38352, Note_on_c, 1, 55, 80
4, 38352, Note_on_c, 1, 51, 80
4, 38397, Note_on_c, 1, 55, 0
4, 38397, Note_on_c, 1, 51, 0
4, 38400, Note_on_c, 1, 53, 80
4, 38400, Note_on_c, 1, 50, 80
4, 38445, Note_on_c, 1, 53, 0
4, 38445, Note_on_c, 1, 50, 0
4, 38448, Note_on_c, 1, 55, 80
4, 38448, Note_on_c, 1, 51, 80
4, 38493, Note_on_c, 1, 55, 0
4, 38493, Note_on_c, 1, 51, 0
4, 38496, Note_on_c, 1, 53, 80
4, 38496, Note_on_c, 1, 50, 80
4, 38541, Note_on_c, 1, 53, 0
4, 38541, Note_on_c, 1, 50, 0
4, 38544, Note_on_c, 1, 51, 80
4, 38544, Note_on_c, 1, 48, 80
4, 38589, Note_on_c, 1, 51, 0
4, 38589, Note_on_c, 1, 48, 0
4, 38592, Note_on_c, 1, 50, 80
4, 38592, Note_on_c, 1, 46, 80
4, 38681, Note_on_c, 1, 50, 0
4, 38681, Note_on_c, 1, 46, 0
4, 38688, Note_on_c, 1, 58, 80
4, 38688, Note_on_c, 1, 53, 80
4, 38688, Note_on_c, 1, 50, 80
4, 38688, Note_on_c, 1, 46, 80
4, 38777, Note_on_c, 1, 58, 0
4, 38777, Note_on_c, 1, 53, 0
4, 38777, Note_on_c, 1, 50, 0
4, 38777, Note_on_c, 1, 46, 0
4, 38976, Note_on_c, 1, 48, 64
4, 38976, Note_on_c, 1, 36, 64
4, 39153, Note_on_c, 1, 48, 0
4, 39153, Note_on_c, 1, 36, 0
4, 39168, Note_on_c, 1, 47, 64
4, 39168, Note_on_c, 1, 35, 64
4, 39301, Note_on_c, 1, 47, 0
4, 39301, Note_on_c, 1, 35, 0
4, 39312, Note_on_c, 1, 60, 64
4, 39357, Note_on_c, 1, 60, 0
4, 39360, Note_on_c, 1, 59, 64
4, 39405, Note_on_c, 1, 59, 0
4, 39408, Note_on_c, 1, 60, 64
4, 39453, Note_on_c, 1, 60, 0
4, 39456, Note_on_c, 1, 59, 64
4, 39501, Note_on_c, 1, 59, 0
4, 39504, Note_on_c, 1, 62, 64
4, 39549, Note_on_c, 1, 62, 0
4, 39552, Note_on_c, 1, 60, 64
4, 39641, Note_on_c, 1, 60, 0
4, 39696, Note_on_c, 1, 63, 80
4, 39741, Note_on_c, 1, 63, 0
4, 39744, Note_on_c, 1, 64, 64
4, 39789, Note_on_c, 1, 64, 0
4, 39792, Note_on_c, 1, 65, 64
4, 39837, Note_on_c, 1, 65, 0
4, 39840, Note_on_c, 1, 66, 64
4, 39885, Note_on_c, 1, 66, 0
4, 39888, Note_on_c, 1, 67, 64
4, 39933, Note_on_c, 1, 67, 0
4, 39936, Note_on_c, 1, 68, 64
4, 40069, Note_on_c, 1, 68, 0
4, 40080, Note_on_c, 1, 65, 80
4, 40125, Note_on_c, 1, 65, 0
4, 40128, Note_on_c, 1, 66, 64
4, 40173, Note_on_c, 1, 66, 0
4, 40176, Note_on_c, 1, 67, 68
4, 40221, Note_on_c, 1, 67, 0
4, 40224, Note_on_c, 1, 68, 72
4, 40269, Note_on_c, 1, 68, 0
4, 40272, Note_on_c, 1, 69, 76
4, 40317, Note_on_c, 1, 69, 0
4, 40320, Note_on_c, 1, 70, 80
4, 40453, Note_on_c, 1, 70, 0
4, 40464, Note_on_c, 1, 67, 96
4, 40509, Note_on_c, 1, 67, 0
4, 40512, Note_on_c, 1, 68, 64
4, 40557, Note_on_c, 1, 68, 0
4, 40560, Note_on_c, 1, 64, 68
4, 40605, Note_on_c, 1, 64, 0
4, 40608, Note_on_c, 1, 65, 72
4, 40653, Note_on_c, 1, 65, 0
4, 40656, Note_on_c, 1, 67, 76
4, 40701, Note_on_c, 1, 67, 0
4, 40704, Note_on_c, 1, 68, 80
4, 40837, Note_on_c, 1, 68, 0
4, 40848, Note_on_c, 1, 65, 76
4, 40893, Note_on_c, 1, 65, 0
4, 40896, Note_on_c, 1, 67, 75
4, 41029, Note_on_c, 1, 67, 0
4, 41040, Note_on_c, 1, 64, 71
4, 41085, Note_on_c, 1, 64, 0
4, 41088, Note_on_c, 1, 65, 70
4, 41457, Note_on_c, 1, 65, 0
4, 41472, Note_on_c, 1, 64, 69
4, 41568, Note_on_c, 1, 64, 0
4, 41568, Note_on_c, 1, 63, 72
4, 41657, Note_on_c, 1, 63, 0
4, 41664, Note_on_c, 1, 62, 74
4, 41760, Note_on_c, 1, 62, 0
4, 41760, Note_on_c, 1, 61, 77
4, 41849, Note_on_c, 1, 61, 0
4, 41856, Note_on_c, 1, 60, 80
4, 41879, Note_on_c, 1, 60, 0
4, 41880, Note_on_c, 1, 59, 80
4, 41903, Note_on_c, 1, 59, 0
4, 41904, Note_on_c, 1, 60, 80
4, 41927, Note_on_c, 1, 60, 0
4, 41928, Note_on_c, 1, 59, 80
4, 41951, Note_on_c, 1, 59, 0
4, 41952, Note_on_c, 1, 60, 80
4, 41975, Note_on_c, 1, 60, 0
4, 41976, Note_on_c, 1, 59, 80
4, 41999, Note_on_c, 1, 59, 0
4, 42000, Note_on_c, 1, 60, 80
4, 42023, Note_on_c, 1, 60, 0
4, 42024, Note_on_c, 1, 59, 80
4, 42047, Note_on_c, 1, 59, 0
4, 42048, Note_on_c, 1, 60, 80
4, 42071, Note_on_c, 1, 60, 0
4, 42072, Note_on_c, 1, 59, 80
4, 42095, Note_on_c, 1, 59, 0
4, 42096, Note_on_c, 1, 60, 80
4, 42119, Note_on_c, 1, 60, 0
4, 42120, Note_on_c, 1, 59, 80
4, 42143, Note_on_c, 1, 59, 0
4, 42144, Note_on_c, 1, 60, 80
4, 42167, Note_on_c, 1, 60, 0
4, 42168, Note_on_c, 1, 59, 80
4, 42191, Note_on_c, 1, 59, 0
4, 42192, Note_on_c, 1, 60, 80
4, 42215, Note_on_c, 1, 60, 0
4, 42216, Note_on_c, 1, 59, 80
4, 42239, Note_on_c, 1, 59, 0
4, 42240, Note_on_c, 1, 60, 80
4, 42263, Note_on_c, 1, 60, 0
4, 42264, Note_on_c, 1, 59, 77
4, 42287, Note_on_c, 1, 59, 0
4, 42288, Note_on_c, 1, 60, 75
4, 42311, Note_on_c, 1, 60, 0
4, 42312, Note_on_c, 1, 59, 73
4, 42335, Note_on_c, 1, 59, 0
4, 42336, Note_on_c, 1, 60, 70
4, 42359, Note_on_c, 1, 60, 0
4, 42360, Note_on_c, 1, 59, 68
4, 42383, Note_on_c, 1, 59, 0
4, 42384, Note_on_c, 1, 60, 66
4, 42407, Note_on_c, 1, 60, 0
4, 42408, Note_on_c, 1, 59, 64
4, 42431, Note_on_c, 1, 59, 0
4, 42432, Note_on_c, 1, 60, 64
4, 42455, Note_on_c, 1, 60, 0
4, 42456, Note_on_c, 1, 59, 64
4, 42479, Note_on_c, 1, 59, 0
4, 42480, Note_on_c, 1, 60, 64
4, 42503, Note_on_c, 1, 60, 0
4, 42504, Note_on_c, 1, 59, 64
4, 42527, Note_on_c, 1, 59, 0
4, 42528, Note_on_c, 1, 60, 64
4, 42551, Note_on_c, 1, 60, 0
4, 42552, Note_on_c, 1, 59, 64
4, 42575, Note_on_c, 1, 59, 0
4, 42576, Note_on_c, 1, 60, 64
4, 42599, Note_on_c, 1, 60, 0
4, 42600, Note_on_c, 1, 59, 64
4, 42623, Note_on_c, 1, 59, 0
4, 42624, Note_on_c, 1, 60, 64
4, 42713, Note_on_c, 1, 60, 0
4, 43008, Note_on_c, 1, 60, 64
4, 43053, Note_on_c, 1, 60, 0
4, 43056, Note_on_c, 1, 63, 64
4, 43101, Note_on_c, 1, 63, 0
4, 43104, Note_on_c, 1, 60, 64
4, 43149, Note_on_c, 1, 60, 0
4, 43152, Note_on_c, 1, 63, 64
4, 43197, Note_on_c, 1, 63, 0
4, 43200, Note_on_c, 1, 61, 64
4, 43200, Note_on_c, 1, 58, 64
4, 43245, Note_on_c, 1, 61, 0
4, 43245, Note_on_c, 1, 58, 0
4, 43248, Note_on_c, 1, 63, 64
4, 43293, Note_on_c, 1, 63, 0
4, 43296, Note_on_c, 1, 61, 64
4, 43296, Note_on_c, 1, 58, 64
4, 43341, Note_on_c, 1, 61, 0
4, 43341, Note_on_c, 1, 58, 0
4, 43344, Note_on_c, 1, 63, 64
4, 43389, Note_on_c, 1, 63, 0
4, 43392, Note_on_c, 1, 60, 64
4, 43437, Note_on_c, 1, 60, 0
4, 43440, Note_on_c, 1, 63, 64
4, 43485, Note_on_c, 1, 63, 0
4, 43488, Note_on_c, 1, 60, 64
4, 43533, Note_on_c, 1, 60, 0
4, 43536, Note_on_c, 1, 63, 64
4, 43581, Note_on_c, 1, 63, 0
4, 43584, Note_on_c, 1, 61, 64
4, 43584, Note_on_c, 1, 58, 64
4, 43629, Note_on_c, 1, 61, 0
4, 43629, Note_on_c, 1, 58, 0
4, 43632, Note_on_c, 1, 63, 64
4, 43677, Note_on_c, 1, 63, 0
4, 43680, Note_on_c, 1, 61, 64
4, 43680, Note_on_c, 1, 58, 64
4, 43725, Note_on_c, 1, 61, 0
4, 43725, Note_on_c, 1, 58, 0
4, 43728, Note_on_c, 1, 63, 64
4, 43773, Note_on_c, 1, 63, 0
4, 43776, Note_on_c, 1, 60, 75
4, 43776, Note_on_c, 1, 56, 75
4, 43865, Note_on_c, 1, 60, 0
4, 43865, Note_on_c, 1, 56, 0
4, 43968, Note_on_c, 1, 61, 75
4, 43968, Note_on_c, 1, 58, 75
4, 43968, Note_on_c, 1, 55, 75
4, 43968, Note_on_c, 1, 51, 75
4, 44057, Note_on_c, 1, 61, 0
4, 44057, Note_on_c, 1, 58, 0
4, 44057, Note_on_c, 1, 55, 0
4, 44057, Note_on_c, 1, 51, 0
4, 44160, Note_on_c, 1, 56, 75
4, 44160, Note_on_c, 1, 44, 75
4, 44249, Note_on_c, 1, 56, 0
4, 44249, Note_on_c, 1, 44, 0
4, 44304, Note_on_c, 1, 60, 80
4, 44304, Note_on_c, 1, 56, 80
4, 44349, Note_on_c, 1, 60, 0
4, 44349, Note_on_c, 1, 56, 0
4, 44352, Note_on_c, 1, 61, 78
4, 44352, Note_on_c, 1, 58, 78
4, 44441, Note_on_c, 1, 61, 0
4, 44441, Note_on_c, 1, 58, 0
4, 44496, Note_on_c, 1, 58, 72
4, 44496, Note_on_c, 1, 55, 72
4, 44541, Note_on_c, 1, 58, 0
4, 44541, Note_on_c, 1, 55, 0
4, 44544, Note_on_c, 1, 60, 70
4, 44544, Note_on_c, 1, 56, 70
4, 44633, Note_on_c, 1, 60, 0
4, 44633, Note_on_c, 1, 56, 0
4, 44688, Note_on_c, 1, 60, 64
4, 44688, Note_on_c, 1, 56, 64
4, 44733, Note_on_c, 1, 60, 0
4, 44733, Note_on_c, 1, 56, 0
4, 44736, Note_on_c, 1, 61, 64
4, 44736, Note_on_c, 1, 58, 64
4, 44825, Note_on_c, 1, 61, 0
4, 44825, Note_on_c, 1, 58, 0
4, 44880, Note_on_c, 1, 58, 64
4, 44880, Note_on_c, 1, 55, 64
4, 44925, Note_on_c, 1, 58, 0
4, 44925, Note_on_c, 1, 55, 0
4, 44928, Note_on_c, 1, 60, 64
4, 44928, Note_on_c, 1, 56, 64
4, 45017, Note_on_c, 1, 60, 0
4, 45017, Note_on_c, 1, 56, 0
4, 45072, Note_on_c, 1, 61, 64
4, 45072, Note_on_c, 1, 58, 64
4, 45117, Note_on_c, 1, 61, 0
4, 45117, Note_on_c, 1, 58, 0
4, 45120, Note_on_c, 1, 63, 64
4, 45120, Note_on_c, 1, 60, 64
4, 45209, Note_on_c, 1, 63, 0
4, 45209, Note_on_c, 1, 60, 0
4, 45264, Note_on_c, 1, 68, 64
4, 45264, Note_on_c, 1, 59, 64
4, 45309, Note_on_c, 1, 68, 0
4, 45309, Note_on_c, 1, 59, 0
4, 45312, Note_on_c, 1, 68, 64
4, 45312, Note_on_c, 1, 58, 64
4, 45445, Note_on_c, 1, 68, 0
4, 45445, Note_on_c, 1, 58, 0
4, 45456, Note_on_c, 1, 68, 66
4, 45456, Note_on_c, 1, 59, 66
4, 45501, Note_on_c, 1, 68, 0
4, 45501, Note_on_c, 1, 59, 0
4, 45504, Note_on_c, 1, 68, 67
4, 45504, Note_on_c, 1, 58, 67
4, 45637, Note_on_c, 1, 68, 0
4, 45637, Note_on_c, 1, 58, 0
4, 45648, Note_on_c, 1, 68, 70
4, 45648, Note_on_c, 1, 59, 70
4, 45693, Note_on_c, 1, 68, 0
4, 45693, Note_on_c, 1, 59, 0
4, 45696, Note_on_c, 1, 68, 71
4, 45696, Note_on_c, 1, 58, 71
4, 45888, Note_on_c, 1, 68, 0
4, 45888, Note_on_c, 1, 62, 74
4, 46065, Note_on_c, 1, 62, 0
4, 46065, Note_on_c, 1, 58, 0
4, 46080, Note_on_c, 1, 63, 78
4, 46080, Note_on_c, 1, 58, 78
4, 46080, Note_on_c, 1, 55, 78
4, 46080, Note_on_c, 1, 51, 78
4, 46169, Note_on_c, 1, 63, 0
4, 46169, Note_on_c, 1, 58, 0
4, 46169, Note_on_c, 1, 55, 0
4, 46169, Note_on_c, 1, 51, 0
4, 46272, Note_on_c, 1, 56, 80
4, 46272, Note_on_c, 1, 46, 80
4, 46361, Note_on_c, 1, 56, 0
4, 46361, Note_on_c, 1, 46, 0
4, 46464, Note_on_c, 1, 51, 80
4, 46464, Note_on_c, 1, 39, 80
4, 46553, Note_on_c, 1, 51, 0
4, 46553, Note_on_c, 1, 39, 0
4, 46608, Note_on_c, 1, 55, 80
4, 46608, Note_on_c, 1, 51, 80
4, 46653, Note_on_c, 1, 55, 0
4, 46653, Note_on_c, 1, 51, 0
4, 46656, Note_on_c, 1, 56, 77
4, 46656, Note_on_c, 1, 53, 77
4, 46745, Note_on_c, 1, 56, 0
4, 46745, Note_on_c, 1, 53, 0
4, 46800, Note_on_c, 1, 53, 70
4, 46800, Note_on_c, 1, 50, 70
4, 46845, Note_on_c, 1, 53, 0
4, 46845, Note_on_c, 1, 50, 0
4, 46848, Note_on_c, 1, 55, 68
4, 46848, Note_on_c, 1, 51, 68
4, 46937, Note_on_c, 1, 55, 0
4, 46937, Note_on_c, 1, 51, 0
4, 46992, Note_on_c, 1, 67, 64
4, 46992, Note_on_c, 1, 63, 64
4, 47037, Note_on_c, 1, 67, 0
4, 47037, Note_on_c, 1, 63, 0
4, 47040, Note_on_c, 1, 68, 64
4, 47040, Note_on_c, 1, 65, 64
4, 47129, Note_on_c, 1, 68, 0
4, 47129, Note_on_c, 1, 65, 0
4, 51504, Note_on_c, 1, 67, 86
4, 51527, Note_on_c, 1, 67, 0
4, 51528, Note_on_c, 1, 55, 86
4, 51551, Note_on_c, 1, 55, 0
4, 51600, Note_on_c, 1, 62, 86
4, 51623, Note_on_c, 1, 62, 0
4, 51624, Note_on_c, 1, 50, 86
4, 51647, Note_on_c, 1, 50, 0
4, 51696, Note_on_c, 1, 59, 86
4, 51719, Note_on_c, 1, 59, 0
4, 51720, Note_on_c, 1, 47, 86
4, 51743, Note_on_c, 1, 47, 0
4, 51792, Note_on_c, 1, 55, 86
4, 51815, Note_on_c, 1, 55, 0
4, 51816, Note_on_c, 1, 43, 86
4, 51840, Note_on_c, 1, 31, 86
4, 51929, Note_on_c, 1, 43, 0
4, 51929, Note_on_c, 1, 31, 0
4, 52368, Note_on_c, 1, 53, 80
4, 52413, Note_on_c, 1, 53, 0
4, 52416, Note_on_c, 1, 63, 64
4, 52461, Note_on_c, 1, 63, 0
4, 52464, Note_on_c, 1, 62, 64
4, 52509, Note_on_c, 1, 62, 0
4, 52512, Note_on_c, 1, 61, 64
4, 52557, Note_on_c, 1, 61, 0
4, 52560, Note_on_c, 1, 60, 64
4, 52605, Note_on_c, 1, 60, 0
4, 52608, Note_on_c, 1, 59, 64
4, 52697, Note_on_c, 1, 59, 0
4, 53136, Note_on_c, 1, 51, 80
4, 53181, Note_on_c, 1, 51, 0
4, 53184, Note_on_c, 1, 52, 64
4, 53229, Note_on_c, 1, 52, 0
4, 53232, Note_on_c, 1, 53, 64
4, 53277, Note_on_c, 1, 53, 0
4, 53280, Note_on_c, 1, 54, 64
4, 53325, Note_on_c, 1, 54, 0
4, 53328, Note_on_c, 1, 55, 64
4, 53373, Note_on_c, 1, 55, 0
4, 53376, Note_on_c, 1, 56, 64
4, 53465, Note_on_c, 1, 56, 0
4, 53520, Note_on_c, 1, 63, 86
4, 53520, Note_on_c, 1, 60, 86
4, 53520, Note_on_c, 1, 56, 86
4, 53565, Note_on_c, 1, 63, 0
4, 53565, Note_on_c, 1, 60, 0
4, 53565, Note_on_c, 1, 56, 0
4, 53568, Note_on_c, 1, 56, 86
4, 53613, Note_on_c, 1, 56, 0
4, 53616, Note_on_c, 1, 56, 86
4, 53661, Note_on_c, 1, 56, 0
4, 53664, Note_on_c, 1, 56, 86
4, 53709, Note_on_c, 1, 56, 0
4, 53712, Note_on_c, 1, 56, 86
4, 53757, Note_on_c, 1, 56, 0
4, 53760, Note_on_c, 1, 58, 86
4, 53849, Note_on_c, 1, 58, 0
4, 53856, Note_on_c, 1, 60, 86
4, 53945, Note_on_c, 1, 60, 0
4, 54144, Note_on_c, 1, 75, 64
4, 54240, Note_on_c, 1, 75, 0
4, 54240, Note_on_c, 1, 68, 64
4, 54285, Note_on_c, 1, 68, 0
4, 54528, Note_on_c, 1, 72, 64
4, 54624, Note_on_c, 1, 72, 0
4, 54624, Note_on_c, 1, 65, 64
4, 54669, Note_on_c, 1, 65, 0
4, 54864, Note_on_c, 1, 65, 80
4, 54909, Note_on_c, 1, 65, 0
4, 54912, Note_on_c, 1, 64, 64
4, 54957, Note_on_c, 1, 64, 0
4, 54960, Note_on_c, 1, 63, 64
4, 55005, Note_on_c, 1, 63, 0
4, 55008, Note_on_c, 1, 62, 64
4, 55053, Note_on_c, 1, 62, 0
4, 55056, Note_on_c, 1, 61, 64
4, 55101, Note_on_c, 1, 61, 0
4, 55104, Note_on_c, 1, 60, 64
4, 55149, Note_on_c, 1, 60, 0
4, 55152, Note_on_c, 1, 59, 64
4, 55197, Note_on_c, 1, 59, 0
4, 55200, Note_on_c, 1, 60, 64
4, 55245, Note_on_c, 1, 60, 0
4, 55248, Note_on_c, 1, 63, 80
4, 55293, Note_on_c, 1, 63, 0
4, 55296, Note_on_c, 1, 62, 64
4, 55341, Note_on_c, 1, 62, 0
4, 55344, Note_on_c, 1, 61, 64
4, 55389, Note_on_c, 1, 61, 0
4, 55392, Note_on_c, 1, 60, 64
4, 55437, Note_on_c, 1, 60, 0
4, 55440, Note_on_c, 1, 59, 64
4, 55485, Note_on_c, 1, 59, 0
4, 55488, Note_on_c, 1, 58, 64
4, 55533, Note_on_c, 1, 58, 0
4, 55536, Note_on_c, 1, 57, 64
4, 55581, Note_on_c, 1, 57, 0
4, 55584, Note_on_c, 1, 58, 64
4, 55629, Note_on_c, 1, 58, 0
4, 55632, Note_on_c, 1, 74, 64
4, 55632, Note_on_c, 1, 70, 64
4, 55677, Note_on_c, 1, 74, 0
4, 55677, Note_on_c, 1, 70, 0
4, 55680, Note_on_c, 1, 73, 64
4, 55680, Note_on_c, 1, 70, 64
4, 55725, Note_on_c, 1, 73, 0
4, 55725, Note_on_c, 1, 70, 0
4, 55728, Note_on_c, 1, 73, 64
4, 55728, Note_on_c, 1, 70, 64
4, 55773, Note_on_c, 1, 73, 0
4, 55773, Note_on_c, 1, 70, 0
4, 55776, Note_on_c, 1, 73, 64
4, 55776, Note_on_c, 1, 70, 64
4, 55821, Note_on_c, 1, 73, 0
4, 55821, Note_on_c, 1, 70, 0
4, 55824, Note_on_c, 1, 73, 64
4, 55824, Note_on_c, 1, 70, 64
4, 55869, Note_on_c, 1, 73, 0
4, 55869, Note_on_c, 1, 70, 0
4, 55872, Note_on_c, 1, 73, 64
4, 55872, Note_on_c, 1, 70, 64
4, 55968, Note_on_c, 1, 73, 0
4, 55968, Note_on_c, 1, 70, 0
4, 55968, Note_on_c, 1, 72, 64
4, 55968, Note_on_c, 1, 68, 64
4, 56013, Note_on_c, 1, 72, 0
4, 56013, Note_on_c, 1, 68, 0
4, 56016, Note_on_c, 1, 71, 64
4, 56016, Note_on_c, 1, 68, 64
4, 56061, Note_on_c, 1, 71, 0
4, 56061, Note_on_c, 1, 68, 0
4, 56064, Note_on_c, 1, 71, 64
4, 56064, Note_on_c, 1, 68, 64
4, 56109, Note_on_c, 1, 71, 0
4, 56109, Note_on_c, 1, 68, 0
4, 56112, Note_on_c, 1, 71, 64
4, 56112, Note_on_c, 1, 68, 64
4, 56157, Note_on_c, 1, 71, 0
4, 56157, Note_on_c, 1, 68, 0
4, 56160, Note_on_c, 1, 71, 64
4, 56160, Note_on_c, 1, 68, 64
4, 56205, Note_on_c, 1, 71, 0
4, 56205, Note_on_c, 1, 68, 0
4, 56208, Note_on_c, 1, 71, 64
4, 56208, Note_on_c, 1, 68, 64
4, 56253, Note_on_c, 1, 71, 0
4, 56253, Note_on_c, 1, 68, 0
4, 56256, Note_on_c, 1, 71, 64
4, 56256, Note_on_c, 1, 68, 64
4, 56352, Note_on_c, 1, 71, 0
4, 56352, Note_on_c, 1, 68, 0
4, 56352, Note_on_c, 1, 70, 64
4, 56352, Note_on_c, 1, 67, 64
4, 56397, Note_on_c, 1, 70, 0
4, 56397, Note_on_c, 1, 67, 0
4, 56640, Note_on_c, 1, 63, 64
4, 56640, Note_on_c, 1, 60, 64
4, 56817, Note_on_c, 1, 63, 0
4, 56817, Note_on_c, 1, 60, 0
4, 56832, Note_on_c, 1, 60, 64
4, 56838, Note_on_c, 1, 63, 64
4, 56844, Note_on_c, 1, 65, 64
4, 56850, Note_on_c, 1, 69, 64
4, 57017, Note_on_c, 1, 69, 0
4, 57017, Note_on_c, 1, 65, 0
4, 57017, Note_on_c, 1, 63, 0
4, 57017, Note_on_c, 1, 60, 0
4, 57408, Note_on_c, 1, 68, 64
4, 57408, Note_on_c, 1, 65, 64
4, 57408, Note_on_c, 1, 58, 64
4, 57541, Note_on_c, 1, 68, 0
4, 57541, Note_on_c, 1, 65, 0
4, 57541, Note_on_c, 1, 58, 0
4, 57792, Note_on_c, 1, 68, 86
4, 57792, Note_on_c, 1, 65, 86
4, 57792, Note_on_c, 1, 58, 86
4, 58165, Note_on_c, 1, 68, 0
4, 58165, Note_on_c, 1, 65, 0
4, 58165, Note_on_c, 1, 58, 0
4, 58560, Note_on_c, 1, 39, 64
4, 58605, Note_on_c, 1, 39, 0
4, 58608, Note_on_c, 1, 51, 64
4, 58653, Note_on_c, 1, 51, 0
4, 58656, Note_on_c, 1, 51, 64
4, 58701, Note_on_c, 1, 51, 0
4, 58704, Note_on_c, 1, 51, 64
4, 58749, Note_on_c, 1, 51, 0
4, 58752, Note_on_c, 1, 51, 64
4, 58797, Note_on_c, 1, 51, 0
4, 58800, Note_on_c, 1, 51, 64
4, 58845, Note_on_c, 1, 51, 0
4, 58848, Note_on_c, 1, 51, 64
4, 58893, Note_on_c, 1, 51, 0
4, 58896, Note_on_c, 1, 51, 64
4, 58941, Note_on_c, 1, 51, 0
4, 58992, Note_on_c, 1, 51, 64
4, 59037, Note_on_c, 1, 51, 0
4, 59040, Note_on_c, 1, 51, 64
4, 59085, Note_on_c, 1, 51, 0
4, 59088, Note_on_c, 1, 51, 64
4, 59133, Note_on_c, 1, 51, 0
4, 59136, Note_on_c, 1, 51, 64
4, 59181, Note_on_c, 1, 51, 0
4, 59184, Note_on_c, 1, 51, 64
4, 59229, Note_on_c, 1, 51, 0
4, 59232, Note_on_c, 1, 51, 64
4, 59277, Note_on_c, 1, 51, 0
4, 59280, Note_on_c, 1, 51, 64
4, 59325, Note_on_c, 1, 51, 0
4, 59376, Note_on_c, 1, 51, 64
4, 59421, Note_on_c, 1, 51, 0
4, 59424, Note_on_c, 1, 51, 64
4, 59469, Note_on_c, 1, 51, 0
4, 59472, Note_on_c, 1, 51, 64
4, 59517, Note_on_c, 1, 51, 0
4, 59520, Note_on_c, 1, 51, 64
4, 59565, Note_on_c, 1, 51, 0
4, 59568, Note_on_c, 1, 51, 64
4, 59613, Note_on_c, 1, 51, 0
4, 59616, Note_on_c, 1, 51, 64
4, 59661, Note_on_c, 1, 51, 0
4, 59664, Note_on_c, 1, 51, 64
4, 59709, Note_on_c, 1, 51, 0
4, 60144, Note_on_c, 1, 53, 64
4, 60189, Note_on_c, 1, 53, 0
4, 60192, Note_on_c, 1, 53, 64
4, 60237, Note_on_c, 1, 53, 0
4, 60240, Note_on_c, 1, 53, 64
4, 60285, Note_on_c, 1, 53, 0
4, 60336, Note_on_c, 1, 55, 64
4, 60381, Note_on_c, 1, 55, 0
4, 60384, Note_on_c, 1, 55, 64
4, 60429, Note_on_c, 1, 55, 0
4, 60432, Note_on_c, 1, 55, 64
4, 60477, Note_on_c, 1, 55, 0
4, 60528, Note_on_c, 1, 56, 64
4, 60573, Note_on_c, 1, 56, 0
4, 60576, Note_on_c, 1, 56, 64
4, 60621, Note_on_c, 1, 56, 0
4, 60624, Note_on_c, 1, 56, 64
4, 60669, Note_on_c, 1, 56, 0
4, 60720, Note_on_c, 1, 55, 64
4, 60765, Note_on_c, 1, 55, 0
4, 60768, Note_on_c, 1, 55, 64
4, 60813, Note_on_c, 1, 55, 0
4, 60816, Note_on_c, 1, 55, 64
4, 60861, Note_on_c, 1, 55, 0
4, 60912, Note_on_c, 1, 56, 64
4, 60957, Note_on_c, 1, 56, 0
4, 60960, Note_on_c, 1, 56, 64
4, 61005, Note_on_c, 1, 56, 0
4, 61008, Note_on_c, 1, 56, 64
4, 61053, Note_on_c, 1, 56, 0
4, 61104, Note_on_c, 1, 55, 64
4, 61149, Note_on_c, 1, 55, 0
4, 61152, Note_on_c, 1, 55, 64
4, 61197, Note_on_c, 1, 55, 0
4, 61200, Note_on_c, 1, 55, 64
4, 61245, Note_on_c, 1, 55, 0
4, 61248, Note_on_c, 1, 56, 64
4, 61248, Note_on_c, 1, 41, 64
4, 61337, Note_on_c, 1, 56, 0
4, 61337, Note_on_c, 1, 41, 0
4, 61392, Note_on_c, 1, 46, 80
4, 61392, Note_on_c, 1, 34, 80
4, 61437, Note_on_c, 1, 46, 0
4, 61437, Note_on_c, 1, 34, 0
4, 61440, Note_on_c, 1, 46, 80
4, 61440, Note_on_c, 1, 34, 80
4, 61485, Note_on_c, 1, 46, 0
4, 61485, Note_on_c, 1, 34, 0
4, 61488, Note_on_c, 1, 46, 80
4, 61488, Note_on_c, 1, 34, 80
4, 61533, Note_on_c, 1, 46, 0
4, 61533, Note_on_c, 1, 34, 0
4, 61536, Note_on_c, 1, 46, 80
4, 61536, Note_on_c, 1, 34, 80
4, 61581, Note_on_c, 1, 46, 0
4, 61581, Note_on_c, 1, 34, 0
4, 61584, Note_on_c, 1, 46, 80
4, 61584, Note_on_c, 1, 34, 80
4, 61629, Note_on_c, 1, 46, 0
4, 61629, Note_on_c, 1, 34, 0
4, 61632, Note_on_c, 1, 46, 80
4, 61632, Note_on_c, 1, 34, 80
4, 61721, Note_on_c, 1, 46, 0
4, 61721, Note_on_c, 1, 34, 0
4, 61728, Note_on_c, 1, 53, 80
4, 61773, Note_on_c, 1, 53, 0
4, 61776, Note_on_c, 1, 44, 78
4, 61821, Note_on_c, 1, 44, 0
4, 61824, Note_on_c, 1, 43, 76
4, 61869, Note_on_c, 1, 43, 0
4, 61872, Note_on_c, 1, 46, 75
4, 61917, Note_on_c, 1, 46, 0
4, 61920, Note_on_c, 1, 51, 73
4, 61965, Note_on_c, 1, 51, 0
4, 61968, Note_on_c, 1, 43, 71
4, 62013, Note_on_c, 1, 43, 0
4, 62016, Note_on_c, 1, 44, 70
4, 62061, Note_on_c, 1, 44, 0
4, 62064, Note_on_c, 1, 50, 70
4, 62109, Note_on_c, 1, 50, 0
4, 62112, Note_on_c, 1, 53, 70
4, 62157, Note_on_c, 1, 53, 0
4, 62160, Note_on_c, 1, 44, 70
4, 62205, Note_on_c, 1, 44, 0
4, 62208, Note_on_c, 1, 43, 70
4, 62253, Note_on_c, 1, 43, 0
4, 62256, Note_on_c, 1, 46, 70
4, 62301, Note_on_c, 1, 46, 0
4, 62304, Note_on_c, 1, 51, 70
4, 62349, Note_on_c, 1, 51, 0
4, 62352, Note_on_c, 1, 43, 70
4, 62397, Note_on_c, 1, 43, 0
4, 62400, Note_on_c, 1, 44, 70
4, 62445, Note_on_c, 1, 44, 0
4, 62448, Note_on_c, 1, 50, 70
4, 62493, Note_on_c, 1, 50, 0
4, 62496, Note_on_c, 1, 53, 71
4, 62541, Note_on_c, 1, 53, 0
4, 62544, Note_on_c, 1, 44, 72
4, 62589, Note_on_c, 1, 44, 0
4, 62592, Note_on_c, 1, 43, 73
4, 62637, Note_on_c, 1, 43, 0
4, 62640, Note_on_c, 1, 46, 73
4, 62685, Note_on_c, 1, 46, 0
4, 62688, Note_on_c, 1, 51, 74
4, 62733, Note_on_c, 1, 51, 0
4, 62736, Note_on_c, 1, 55, 75
4, 62781, Note_on_c, 1, 55, 0
4, 62784, Note_on_c, 1, 44, 76
4, 62829, Note_on_c, 1, 44, 0
4, 62832, Note_on_c, 1, 48, 76
4, 62877, Note_on_c, 1, 48, 0
4, 62880, Note_on_c, 1, 53, 77
4, 62925, Note_on_c, 1, 53, 0
4, 62928, Note_on_c, 1, 56, 78
4, 62973, Note_on_c, 1, 56, 0
4, 62976, Note_on_c, 1, 58, 79
4, 63021, Note_on_c, 1, 58, 0
4, 63024, Note_on_c, 1, 58, 80
4, 63069, Note_on_c, 1, 58, 0
4, 63072, Note_on_c, 1, 58, 80
4, 63117, Note_on_c, 1, 58, 0
4, 63120, Note_on_c, 1, 58, 80
4, 63165, Note_on_c, 1, 58, 0
4, 63168, Note_on_c, 1, 46, 80
4, 63213, Note_on_c, 1, 46, 0
4, 63216, Note_on_c, 1, 46, 80
4, 63261, Note_on_c, 1, 46, 0
4, 63264, Note_on_c, 1, 46, 80
4, 63309, Note_on_c, 1, 46, 0
4, 63312, Note_on_c, 1, 46, 80
4, 63357, Note_on_c, 1, 46, 0
4, 63360, Note_on_c, 1, 51, 80
4, 63405, Note_on_c, 1, 51, 0
4, 63408, Note_on_c, 1, 55, 80
4, 63453, Note_on_c, 1, 55, 0
4, 63456, Note_on_c, 1, 51, 80
4, 63501, Note_on_c, 1, 51, 0
4, 63504, Note_on_c, 1, 55, 80
4, 63549, Note_on_c, 1, 55, 0
4, 63552, Note_on_c, 1, 51, 80
4, 63641, Note_on_c, 1, 51, 0
4, 63984, Note_on_c, 1, 67, 64
4, 64029, Note_on_c, 1, 67, 0
4, 64032, Note_on_c, 1, 72, 64
4, 64077, Note_on_c, 1, 72, 0
4, 64080, Note_on_c, 1, 67, 64
4, 64125, Note_on_c, 1, 67, 0
4, 64176, Note_on_c, 1, 67, 64
4, 64221, Note_on_c, 1, 67, 0
4, 64224, Note_on_c, 1, 71, 64
4, 64269, Note_on_c, 1, 71, 0
4, 64272, Note_on_c, 1, 67, 64
4, 64317, Note_on_c, 1, 67, 0
4, 64368, Note_on_c, 1, 63, 64
4, 64413, Note_on_c, 1, 63, 0
4, 64416, Note_on_c, 1, 67, 64
4, 64461, Note_on_c, 1, 67, 0
4, 64464, Note_on_c, 1, 63, 64
4, 64509, Note_on_c, 1, 63, 0
4, 64560, Note_on_c, 1, 61, 65
4, 64605, Note_on_c, 1, 61, 0
4, 64608, Note_on_c, 1, 67, 66
4, 64653, Note_on_c, 1, 67, 0
4, 64656, Note_on_c, 1, 61, 67
4, 64701, Note_on_c, 1, 61, 0
4, 64752, Note_on_c, 1, 60, 70
4, 64797, Note_on_c, 1, 60, 0
4, 64800, Note_on_c, 1, 63, 71
4, 64845, Note_on_c, 1, 63, 0
4, 64848, Note_on_c, 1, 60, 72
4, 64893, Note_on_c, 1, 60, 0
4, 64944, Note_on_c, 1, 58, 75
4, 64989, Note_on_c, 1, 58, 0
4, 64992, Note_on_c, 1, 63, 76
4, 65037, Note_on_c, 1, 63, 0
4, 65040, Note_on_c, 1, 58, 77
4, 65085, Note_on_c, 1, 58, 0
4, 65088, Note_on_c, 1, 56, 78
4, 65133, Note_on_c, 1, 56, 0
4, 65136, Note_on_c, 1, 63, 80
4, 65181, Note_on_c, 1, 63, 0
4, 65184, Note_on_c, 1, 55, 80
4, 65229, Note_on_c, 1, 55, 0
4, 65232, Note_on_c, 1, 64, 80
4, 65277, Note_on_c, 1, 64, 0
4, 65280, Note_on_c, 1, 53, 80
4, 65325, Note_on_c, 1, 53, 0
4, 65328, Note_on_c, 1, 65, 80
4, 65373, Note_on_c, 1, 65, 0
4, 65376, Note_on_c, 1, 55, 80
4, 65421, Note_on_c, 1, 55, 0
4, 65424, Note_on_c, 1, 58, 80
4, 65469, Note_on_c, 1, 58, 0
4, 65472, Note_on_c, 1, 56, 80
4, 65517, Note_on_c, 1, 56, 0
4, 65520, Note_on_c, 1, 60, 80
4, 65565, Note_on_c, 1, 60, 0
4, 65568, Note_on_c, 1, 57, 80
4, 65613, Note_on_c, 1, 57, 0
4, 65616, Note_on_c, 1, 65, 80
4, 65661, Note_on_c, 1, 65, 0
4, 65664, Note_on_c, 1, 58, 79
4, 65709, Note_on_c, 1, 58, 0
4, 65712, Note_on_c, 1, 65, 78
4, 65757, Note_on_c, 1, 65, 0
4, 65760, Note_on_c, 1, 60, 77
4, 65805, Note_on_c, 1, 60, 0
4, 65808, Note_on_c, 1, 63, 76
4, 65853, Note_on_c, 1, 63, 0
4, 65856, Note_on_c, 1, 62, 75
4, 65901, Note_on_c, 1, 62, 0
4, 65904, Note_on_c, 1, 65, 74
4, 65949, Note_on_c, 1, 65, 0
4, 65952, Note_on_c, 1, 63, 74
4, 65997, Note_on_c, 1, 63, 0
4, 66000, Note_on_c, 1, 66, 73
4, 66045, Note_on_c, 1, 66, 0
4, 66048, Note_on_c, 1, 62, 72
4, 66093, Note_on_c, 1, 62, 0
4, 66096, Note_on_c, 1, 65, 71
4, 66141, Note_on_c, 1, 65, 0
4, 66144, Note_on_c, 1, 63, 70
4, 66189, Note_on_c, 1, 63, 0
4, 66192, Note_on_c, 1, 66, 69
4, 66237, Note_on_c, 1, 66, 0
4, 66240, Note_on_c, 1, 62, 69
4, 66285, Note_on_c, 1, 62, 0
4, 66288, Note_on_c, 1, 65, 68
4, 66333, Note_on_c, 1, 65, 0
4, 66336, Note_on_c, 1, 63, 67
4, 66381, Note_on_c, 1, 63, 0
4, 66384, Note_on_c, 1, 66, 66
4, 66429, Note_on_c, 1, 66, 0
4, 66432, Note_on_c, 1, 65, 65
4, 66432, Note_on_c, 1, 62, 65
4, 66521, Note_on_c, 1, 65, 0
4, 66521, Note_on_c, 1, 62, 0
4, 67152, Note_on_c, 1, 70, 80
4, 67197, Note_on_c, 1, 70, 0
4, 67200, Note_on_c, 1, 71, 64
4, 67245, Note_on_c, 1, 71, 0
4, 67248, Note_on_c, 1, 72, 64
4, 67293, Note_on_c, 1, 72, 0
4, 67296, Note_on_c, 1, 73, 64
4, 67341, Note_on_c, 1, 73, 0
4, 67344, Note_on_c, 1, 74, 64
4, 67389, Note_on_c, 1, 74, 0
4, 67392, Note_on_c, 1, 75, 64
4, 67525, Note_on_c, 1, 75, 0
4, 67536, Note_on_c, 1, 51, 102
4, 67581, Note_on_c, 1, 51, 0
4, 67584, Note_on_c, 1, 51, 86
4, 67629, Note_on_c, 1, 51, 0
4, 67632, Note_on_c, 1, 51, 86
4, 67677, Note_on_c, 1, 51, 0
4, 67680, Note_on_c, 1, 51, 86
4, 67725, Note_on_c, 1, 51, 0
4, 67728, Note_on_c, 1, 51, 86
4, 67773, Note_on_c, 1, 51, 0
4, 67776, Note_on_c, 1, 62, 86
4, 67776, Note_on_c, 1, 58, 86
4, 67776, Note_on_c, 1, 56, 86
4, 67776, Note_on_c, 1, 53, 86
4, 67872, Note_on_c, 1, 62, 0
4, 67872, Note_on_c, 1, 56, 0
4, 67872, Note_on_c, 1, 53, 0
4, 67872, Note_on_c, 1, 63, 86
4, 67872, Note_on_c, 1, 55, 86
4, 67917, Note_on_c, 1, 63, 0
4, 67917, Note_on_c, 1, 58, 0
4, 67917, Note_on_c, 1, 55, 0
4, 67968, Note_on_c, 1, 65, 86
4, 67968, Note_on_c, 1, 58, 86
4, 68064, Note_on_c, 1, 65, 0
4, 68064, Note_on_c, 1, 58, 0
4, 68064, Note_on_c, 1, 67, 86
4, 68064, Note_on_c, 1, 63, 86
4, 68109, Note_on_c, 1, 67, 0
4, 68109, Note_on_c, 1, 63, 0
4, 68160, Note_on_c, 1, 65, 86
4, 68160, Note_on_c, 1, 58, 86
4, 68256, Note_on_c, 1, 65, 0
4, 68256, Note_on_c, 1, 58, 0
4, 68256, Note_on_c, 1, 67, 86
4, 68256, Note_on_c, 1, 63, 86
4, 68301, Note_on_c, 1, 67, 0
4, 68301, Note_on_c, 1, 63, 0
4, 68304, Note_on_c, 1, 70, 86
4, 68304, Note_on_c, 1, 61, 86
4, 68349, Note_on_c, 1, 70, 0
4, 68349, Note_on_c, 1, 61, 0
4, 68352, Note_on_c, 1, 70, 86
4, 68529, Note_on_c, 1, 70, 0
4, 68544, Note_on_c, 1, 68, 86
4, 68913, Note_on_c, 1, 68, 0
4, 68928, Note_on_c, 1, 67, 70
4, 69017, Note_on_c, 1, 67, 0
4, 69024, Note_on_c, 1, 79, 64
4, 69113, Note_on_c, 1, 79, 0
4, 69120, Note_on_c, 1, 79, 64
4, 69297, Note_on_c, 1, 79, 0
4, 69312, Note_on_c, 1, 80, 64
4, 69401, Note_on_c, 1, 80, 0
4, 69408, Note_on_c, 1, 68, 80
4, 69408, Note_on_c, 1, 56, 80
4, 69497, Note_on_c, 1, 68, 0
4, 69497, Note_on_c, 1, 56, 0
4, 69504, Note_on_c, 1, 68, 80
4, 69504, Note_on_c, 1, 56, 80
4, 70257, Note_on_c, 1, 68, 0
4, 70257, Note_on_c, 1, 56, 0
4, 70272, Note_on_c, 1, 70, 80
4, 70272, Note_on_c, 1, 58, 80
4, 70641, Note_on_c, 1, 70, 0
4, 70641, Note_on_c, 1, 58, 0
4, 73200, Note_on_c, 1, 62, 86
4, 73223, Note_on_c, 1, 62, 0
4, 73224, Note_on_c, 1, 50, 86
4, 73247, Note_on_c, 1, 50, 0
4, 73296, Note_on_c, 1, 58, 86
4, 73319, Note_on_c, 1, 58, 0
4, 73320, Note_on_c, 1, 46, 86
4, 73344, Note_on_c, 1, 34, 86
4, 73433, Note_on_c, 1, 46, 0
4, 73433, Note_on_c, 1, 34, 0
4, 73488, Note_on_c, 1, 56, 64
4, 73533, Note_on_c, 1, 56, 0
4, 73536, Note_on_c, 1, 56, 64
4, 73581, Note_on_c, 1, 56, 0
4, 73584, Note_on_c, 1, 56, 64
4, 73629, Note_on_c, 1, 56, 0
4, 73632, Note_on_c, 1, 56, 64
4, 73677, Note_on_c, 1, 56, 0
4, 73680, Note_on_c, 1, 56, 64
4, 73725, Note_on_c, 1, 56, 0
4, 73728, Note_on_c, 1, 56, 64
4, 73773, Note_on_c, 1, 56, 0
4, 73776, Note_on_c, 1, 56, 65
4, 73821, Note_on_c, 1, 56, 0
4, 73824, Note_on_c, 1, 56, 66
4, 73869, Note_on_c, 1, 56, 0
4, 73872, Note_on_c, 1, 56, 67
4, 73917, Note_on_c, 1, 56, 0
4, 73920, Note_on_c, 1, 56, 68
4, 73965, Note_on_c, 1, 56, 0
4, 73968, Note_on_c, 1, 56, 69
4, 74013, Note_on_c, 1, 56, 0
4, 74016, Note_on_c, 1, 56, 70
4, 74061, Note_on_c, 1, 56, 0
4, 74064, Note_on_c, 1, 56, 71
4, 74109, Note_on_c, 1, 56, 0
4, 74112, Note_on_c, 1, 56, 72
4, 74157, Note_on_c, 1, 56, 0
4, 74160, Note_on_c, 1, 56, 73
4, 74205, Note_on_c, 1, 56, 0
4, 74208, Note_on_c, 1, 56, 74
4, 74253, Note_on_c, 1, 56, 0
4, 74256, Note_on_c, 1, 56, 75
4, 74301, Note_on_c, 1, 56, 0
4, 74304, Note_on_c, 1, 56, 76
4, 74349, Note_on_c, 1, 56, 0
4, 74352, Note_on_c, 1, 56, 77
4, 74397, Note_on_c, 1, 56, 0
4, 74400, Note_on_c, 1, 56, 78
4, 74445, Note_on_c, 1, 56, 0
4, 74448, Note_on_c, 1, 56, 80
4, 74493, Note_on_c, 1, 56, 0
4, 74496, Note_on_c, 1, 55, 58
4, 74516, Note_on_c, 1, 55, 0
4, 74592, Note_on_c, 1, 56, 58
4, 74612, Note_on_c, 1, 56, 0
4, 74688, Note_on_c, 1, 58, 58
4, 74708, Note_on_c, 1, 58, 0
4, 74784, Note_on_c, 1, 46, 58
4, 74804, Note_on_c, 1, 46, 0
4, 74880, Note_on_c, 1, 51, 58
4, 74969, Note_on_c, 1, 51, 0
4, 75216, Note_on_c, 1, 53, 80
4, 75236, Note_on_c, 1, 53, 0
4, 75264, Note_on_c, 1, 46, 70
4, 75309, Note_on_c, 1, 46, 0
4, 75312, Note_on_c, 1, 47, 70
4, 75357, Note_on_c, 1, 47, 0
4, 75360, Note_on_c, 1, 46, 71
4, 75405, Note_on_c, 1, 46, 0
4, 75408, Note_on_c, 1, 56, 88
4, 75428, Note_on_c, 1, 56, 0
4, 75456, Note_on_c, 1, 50, 72
4, 75501, Note_on_c, 1, 50, 0
4, 75504, Note_on_c, 1, 51, 73
4, 75549, Note_on_c, 1, 51, 0
4, 75552, Note_on_c, 1, 50, 74
4, 75597, Note_on_c, 1, 50, 0
4, 75600, Note_on_c, 1, 59, 90
4, 75620, Note_on_c, 1, 59, 0
4, 75648, Note_on_c, 1, 53, 75
4, 75693, Note_on_c, 1, 53, 0
4, 75696, Note_on_c, 1, 54, 76
4, 75741, Note_on_c, 1, 54, 0
4, 75744, Note_on_c, 1, 53, 76
4, 75789, Note_on_c, 1, 53, 0
4, 75792, Note_on_c, 1, 62, 93
4, 75812, Note_on_c, 1, 62, 0
4, 75840, Note_on_c, 1, 58, 78
4, 75885, Note_on_c, 1, 58, 0
4, 75888, Note_on_c, 1, 59, 78
4, 75933, Note_on_c, 1, 59, 0
4, 75936, Note_on_c, 1, 58, 79
4, 75981, Note_on_c, 1, 58, 0
4, 75984, Note_on_c, 1, 62, 96
4, 76004, Note_on_c, 1, 62, 0
4, 76032, Note_on_c, 1, 63, 80
4, 76077, Note_on_c, 1, 63, 0
4, 76080, Note_on_c, 1, 51, 80
4, 76125, Note_on_c, 1, 51, 0
4, 76128, Note_on_c, 1, 63, 80
4, 76173, Note_on_c, 1, 63, 0
4, 76176, Note_on_c, 1, 51, 80
4, 76221, Note_on_c, 1, 51, 0
4, 76224, Note_on_c, 1, 63, 80
4, 76269, Note_on_c, 1, 63, 0
4, 76272, Note_on_c, 1, 51, 80
4, 76317, Note_on_c, 1, 51, 0
4, 76320, Note_on_c, 1, 63, 80
4, 76365, Note_on_c, 1, 63, 0
4, 76368, Note_on_c, 1, 51, 80
4, 76413, Note_on_c, 1, 51, 0
4, 76416, Note_on_c, 1, 63, 80
4, 76461, Note_on_c, 1, 63, 0
4, 76464, Note_on_c, 1, 51, 80
4, 76509, Note_on_c, 1, 51, 0
4, 76512, Note_on_c, 1, 63, 80
4, 76557, Note_on_c, 1, 63, 0
4, 76560, Note_on_c, 1, 51, 80
4, 76605, Note_on_c, 1, 51, 0
4, 76608, Note_on_c, 1, 63, 80
4, 76653, Note_on_c, 1, 63, 0
4, 76656, Note_on_c, 1, 51, 80
4, 76701, Note_on_c, 1, 51, 0
4, 76704, Note_on_c, 1, 63, 80
4, 76749, Note_on_c, 1, 63, 0
4, 76752, Note_on_c, 1, 51, 80
4, 76797, Note_on_c, 1, 51, 0
4, 76800, Note_on_c, 1, 63, 80
4, 76800, Note_on_c, 1, 56, 80
4, 76889, Note_on_c, 1, 63, 0
4, 76889, Note_on_c, 1, 56, 0
4, 76992, Note_on_c, 1, 58, 80
4, 76992, Note_on_c, 1, 46, 80
4, 77081, Note_on_c, 1, 58, 0
4, 77081, Note_on_c, 1, 46, 0
4, 77184, Note_on_c, 1, 63, 80
4, 77207, Note_on_c, 1, 63, 0
4, 77208, Note_on_c, 1, 62, 80
4, 77231, Note_on_c, 1, 62, 0
4, 77232, Note_on_c, 1, 63, 80
4, 77255, Note_on_c, 1, 63, 0
4, 77256, Note_on_c, 1, 62, 80
4, 77279, Note_on_c, 1, 62, 0
4, 77280, Note_on_c, 1, 63, 80
4, 77303, Note_on_c, 1, 63, 0
4, 77304, Note_on_c, 1, 62, 80
4, 77327, Note_on_c, 1, 62, 0
4, 77328, Note_on_c, 1, 63, 80
4, 77351, Note_on_c, 1, 63, 0
4, 77352, Note_on_c, 1, 62, 80
4, 77375, Note_on_c, 1, 62, 0
4, 77376, Note_on_c, 1, 63, 80
4, 77399, Note_on_c, 1, 63, 0
4, 77400, Note_on_c, 1, 62, 80
4, 77423, Note_on_c, 1, 62, 0
4, 77424, Note_on_c, 1, 63, 80
4, 77447, Note_on_c, 1, 63, 0
4, 77448, Note_on_c, 1, 62, 80
4, 77471, Note_on_c, 1, 62, 0
4, 77472, Note_on_c, 1, 63, 80
4, 77495, Note_on_c, 1, 63, 0
4, 77496, Note_on_c, 1, 62, 80
4, 77519, Note_on_c, 1, 62, 0
4, 77520, Note_on_c, 1, 63, 80
4, 77543, Note_on_c, 1, 63, 0
4, 77544, Note_on_c, 1, 62, 80
4, 77567, Note_on_c, 1, 62, 0
4, 77568, Note_on_c, 1, 63, 80
4, 77657, Note_on_c, 1, 63, 0
4, 77712, Note_on_c, 1, 60, 80
4, 77712, Note_on_c, 1, 56, 80
4, 77757, Note_on_c, 1, 60, 0
4, 77757, Note_on_c, 1, 56, 0
4, 77760, Note_on_c, 1, 58, 80
4, 77760, Note_on_c, 1, 55, 80
4, 77805, Note_on_c, 1, 58, 0
4, 77805, Note_on_c, 1, 55, 0
4, 77808, Note_on_c, 1, 60, 80
4, 77808, Note_on_c, 1, 56, 80
4, 77853, Note_on_c, 1, 60, 0
4, 77853, Note_on_c, 1, 56, 0
4, 77856, Note_on_c, 1, 58, 80
4, 77856, Note_on_c, 1, 55, 80
4, 77901, Note_on_c, 1, 58, 0
4, 77901, Note_on_c, 1, 55, 0
4, 77904, Note_on_c, 1, 56, 80
4, 77904, Note_on_c, 1, 53, 80
4, 77949, Note_on_c, 1, 56, 0
4, 77949, Note_on_c, 1, 53, 0
4, 77952, Note_on_c, 1, 55, 80
4, 77952, Note_on_c, 1, 51, 80
4, 78041, Note_on_c, 1, 55, 0
4, 78041, Note_on_c, 1, 51, 0
4, 78144, Note_on_c, 1, 51, 86
4, 78144, Note_on_c, 1, 46, 86
4, 78144, Note_on_c, 1, 43, 86
4, 78144, Note_on_c, 1, 39, 86
4, 78233, Note_on_c, 1, 51, 0
4, 78233, Note_on_c, 1, 46, 0
4, 78233, Note_on_c, 1, 43, 0
4, 78233, Note_on_c, 1, 39, 0
4, 78336, Note_on_c, 1, 51, 86
4, 78336, Note_on_c, 1, 46, 86
4, 78336, Note_on_c, 1, 43, 86
4, 78336, Note_on_c, 1, 39, 86
4, 78425, Note_on_c, 1, 51, 0
4, 78425, Note_on_c, 1, 46, 0
4, 78425, Note_on_c, 1, 43, 0
4, 78425, Note_on_c, 1, 39, 0
4, 78528, Note_on_c, 1, 39, 0
4, 78617, Note_on_c, 1, 39, 0
4, 78624, End_track
5, 0, Start_track
5, 0, Program_c, 1, 0
5, 0, Control_c, 1, 7, 127
5, 0, Control_c, 1, 10, 64
5, 384, Note_on_c, 1, 39, 64
5, 753, Note_on_c, 1, 39, 0
5, 768, Note_on_c, 1, 39, 64
5, 1137, Note_on_c, 1, 39, 0
5, 1152, Note_on_c, 1, 39, 64
5, 1521, Note_on_c, 1, 39, 0
5, 1536, Note_on_c, 1, 39, 64
5, 1625, Note_on_c, 1, 39, 0
5, 1920, Note_on_c, 1, 41, 64
5, 2289, Note_on_c, 1, 41, 0
5, 2304, Note_on_c, 1, 41, 64
5, 2673, Note_on_c, 1, 41, 0
5, 2688, Note_on_c, 1, 41, 64
5, 3057, Note_on_c, 1, 41, 0
5, 5760, Note_on_c, 1, 63, 64
5, 5937, Note_on_c, 1, 63, 0
5, 5952, Note_on_c, 1, 62, 64
5, 6129, Note_on_c, 1, 62, 0
5, 6144, Note_on_c, 1, 60, 64
5, 6321, Note_on_c, 1, 60, 0
5, 6336, Note_on_c, 1, 58, 64
5, 6513, Note_on_c, 1, 58, 0
5, 6528, Note_on_c, 1, 57, 72
5, 6705, Note_on_c, 1, 57, 0
5, 6720, Note_on_c, 1, 57, 80
5, 6897, Note_on_c, 1, 57, 0
5, 10176, Note_on_c, 1, 63, 80
5, 10560, Note_on_c, 1, 63, 0
5, 10560, Note_on_c, 1, 62, 80
5, 10627, Note_on_c, 1, 62, 0
5, 19776, Note_on_c, 1, 39, 64
5, 20145, Note_on_c, 1, 39, 0
5, 20160, Note_on_c, 1, 39, 64
5, 20529, Note_on_c, 1, 39, 0
5, 20544, Note_on_c, 1, 39, 64
5, 20913, Note_on_c, 1, 39, 0
5, 20928, Note_on_c, 1, 39, 64
5, 21017, Note_on_c, 1, 39, 0
5, 21312, Note_on_c, 1, 41, 64
5, 21681, Note_on_c, 1, 41, 0
5, 21696, Note_on_c, 1, 41, 64
5, 22065, Note_on_c, 1, 41, 0
5, 22080, Note_on_c, 1, 41, 64
5, 22449, Note_on_c, 1, 41, 0
5, 25152, Note_on_c, 1, 63, 64
5, 25329, Note_on_c, 1, 63, 0
5, 25344, Note_on_c, 1, 62, 64
5, 25521, Note_on_c, 1, 62, 0
5, 25536, Note_on_c, 1, 60, 64
5, 25713, Note_on_c, 1, 60, 0
5, 25728, Note_on_c, 1, 58, 64
5, 25905, Note_on_c, 1, 58, 0
5, 25920, Note_on_c, 1, 57, 72
5, 26097, Note_on_c, 1, 57, 0
5, 26112, Note_on_c, 1, 57, 80
5, 26289, Note_on_c, 1, 57, 0
5, 29568, Note_on_c, 1, 63, 80
5, 29952, Note_on_c, 1, 63, 0
5, 29952, Note_on_c, 1, 62, 80
5, 30019, Note_on_c, 1, 62, 0
5, 43008, Note_on_c, 1, 56, 70
5, 43097, Note_on_c, 1, 56, 0
5, 43104, Note_on_c, 1, 56, 70
5, 43193, Note_on_c, 1, 56, 0
5, 43200, Note_on_c, 1, 56, 70
5, 43289, Note_on_c, 1, 56, 0
5, 43296, Note_on_c, 1, 56, 70
5, 43385, Note_on_c, 1, 56, 0
5, 43392, Note_on_c, 1, 56, 70
5, 43481, Note_on_c, 1, 56, 0
5, 43488, Note_on_c, 1, 56, 70
5, 43577, Note_on_c, 1, 56, 0
5, 43584, Note_on_c, 1, 56, 70
5, 43673, Note_on_c, 1, 56, 0
5, 43680, Note_on_c, 1, 56, 70
5, 43769, Note_on_c, 1, 56, 0
5, 58560, Note_on_c, 1, 39, 70
5, 58929, Note_on_c, 1, 39, 0
5, 58944, Note_on_c, 1, 39, 70
5, 59313, Note_on_c, 1, 39, 0
5, 59328, Note_on_c, 1, 39, 70
5, 59697, Note_on_c, 1, 39, 0
5, 59712, Note_on_c, 1, 39, 70
5, 59801, Note_on_c, 1, 39, 0
5, 60096, Note_on_c, 1, 41, 70
5, 60273, Note_on_c, 1, 41, 0
5, 60288, Note_on_c, 1, 41, 70
5, 60465, Note_on_c, 1, 41, 0
5, 60480, Note_on_c, 1, 41, 70
5, 60657, Note_on_c, 1, 41, 0
5, 60672, Note_on_c, 1, 41, 70
5, 60849, Note_on_c, 1, 41, 0
5, 60864, Note_on_c, 1, 41, 70
5, 61041, Note_on_c, 1, 41, 0
5, 61056, Note_on_c, 1, 41, 70
5, 61233, Note_on_c, 1, 41, 0
5, 63936, Note_on_c, 1, 63, 64
5, 64113, Note_on_c, 1, 63, 0
5, 64128, Note_on_c, 1, 62, 64
5, 64305, Note_on_c, 1, 62, 0
5, 64320, Note_on_c, 1, 60, 64
5, 64497, Note_on_c, 1, 60, 0
5, 64512, Note_on_c, 1, 58, 64
5, 64689, Note_on_c, 1, 58, 0
5, 64704, Note_on_c, 1, 56, 64
5, 64881, Note_on_c, 1, 56, 0
5, 64896, Note_on_c, 1, 55, 64
5, 65073, Note_on_c, 1, 55, 0
5, 68352, Note_on_c, 1, 61, 64
5, 68529, Note_on_c, 1, 61, 0
5, 68544, Note_on_c, 1, 61, 64
5, 68633, Note_on_c, 1, 61, 0
5, 68640, Note_on_c, 1, 59, 64
5, 68729, Note_on_c, 1, 59, 0
5, 68736, Note_on_c, 1, 58, 64
5, 68913, Note_on_c, 1, 58, 0
5, 68928, Note_on_c, 1, 60, 64
5, 69017, Note_on_c, 1, 60, 0
5, 78528, End_track
6, 0, Start_track
6, 0, Title_t, "Sonata I   Haydn  "
6, 0, End_track
0, 0, End_of_file
