0, 0, Header, 1, 5, 96
1, 0, Start_track
1, 0, Copyright_t, "Copyright  1994-2002 Mozart Music Software"
1, 0, Sequencer_specific, 16, 68, 87, 77, 90, 86, 82, 83, 78, 32, 55, 46, 48, 46, 55, 46, 48
1, 0, Time_signature, 2, 2, 24, 8
1, 0, Tempo, 606060
1, 0, Key_signature, 0, "major"
1, 192, Tempo, 612244
1, 2112, Tempo, 612244
1, 9216, End_track
2, 0, Start_track
2, 0, Program_c, 0, 0
2, 0, Control_c, 0, 7, 127
2, 0, Control_c, 0, 10, 64
2, 192, Note_on_c, 0, 64, 85
2, 200, Note_on_c, 0, 67, 85
2, 208, Note_on_c, 0, 72, 85
2, 285, Note_on_c, 0, 72, 0
2, 285, Note_on_c, 0, 67, 0
2, 285, Note_on_c, 0, 64, 0
2, 288, Note_on_c, 0, 74, 85
2, 299, Note_on_c, 0, 74, 0
2, 299, Note_on_c, 0, 76, 85
2, 310, Note_on_c, 0, 76, 0
2, 310, Note_on_c, 0, 74, 85
2, 321, Note_on_c, 0, 74, 0
2, 321, Note_on_c, 0, 76, 85
2, 332, Note_on_c, 0, 76, 0
2, 332, Note_on_c, 0, 74, 85
2, 343, Note_on_c, 0, 74, 0
2, 343, Note_on_c, 0, 76, 85
2, 354, Note_on_c, 0, 76, 0
2, 354, Note_on_c, 0, 74, 85
2, 364, Note_on_c, 0, 74, 0
2, 364, Note_on_c, 0, 72, 85
2, 374, Note_on_c, 0, 72, 0
2, 374, Note_on_c, 0, 74, 85
2, 384, Note_on_c, 0, 74, 0
2, 384, Note_on_c, 0, 76, 85
2, 384, Note_on_c, 0, 72, 85
2, 384, Note_on_c, 0, 67, 85
2, 473, Note_on_c, 0, 76, 0
2, 473, Note_on_c, 0, 72, 0
2, 473, Note_on_c, 0, 67, 0
2, 528, Note_on_c, 0, 72, 64
2, 540, Note_on_c, 0, 72, 0
2, 540, Note_on_c, 0, 74, 64
2, 552, Note_on_c, 0, 74, 0
2, 552, Note_on_c, 0, 76, 64
2, 564, Note_on_c, 0, 76, 0
2, 564, Note_on_c, 0, 77, 64
2, 576, Note_on_c, 0, 77, 0
2, 576, Note_on_c, 0, 79, 64
2, 621, Note_on_c, 0, 79, 0
2, 624, Note_on_c, 0, 84, 64
2, 669, Note_on_c, 0, 84, 0
2, 672, Note_on_c, 0, 83, 64
2, 717, Note_on_c, 0, 83, 0
2, 720, Note_on_c, 0, 81, 64
2, 765, Note_on_c, 0, 81, 0
2, 768, Note_on_c, 0, 79, 64
2, 857, Note_on_c, 0, 79, 0
2, 864, Note_on_c, 0, 77, 64
2, 875, Note_on_c, 0, 77, 0
2, 875, Note_on_c, 0, 79, 64
2, 886, Note_on_c, 0, 79, 0
2, 886, Note_on_c, 0, 77, 64
2, 897, Note_on_c, 0, 77, 0
2, 897, Note_on_c, 0, 79, 64
2, 908, Note_on_c, 0, 79, 0
2, 908, Note_on_c, 0, 77, 64
2, 919, Note_on_c, 0, 77, 0
2, 919, Note_on_c, 0, 79, 64
2, 930, Note_on_c, 0, 79, 0
2, 930, Note_on_c, 0, 77, 64
2, 940, Note_on_c, 0, 77, 0
2, 940, Note_on_c, 0, 76, 64
2, 950, Note_on_c, 0, 76, 0
2, 950, Note_on_c, 0, 77, 64
2, 960, Note_on_c, 0, 77, 0
2, 960, Note_on_c, 0, 76, 64
2, 1049, Note_on_c, 0, 76, 0
2, 1056, Note_on_c, 0, 76, 64
2, 1079, Note_on_c, 0, 76, 0
2, 1080, Note_on_c, 0, 72, 64
2, 1103, Note_on_c, 0, 72, 0
2, 1104, Note_on_c, 0, 79, 64
2, 1127, Note_on_c, 0, 79, 0
2, 1128, Note_on_c, 0, 76, 64
2, 1151, Note_on_c, 0, 76, 0
2, 1152, Note_on_c, 0, 76, 64
2, 1175, Note_on_c, 0, 76, 0
2, 1176, Note_on_c, 0, 74, 64
2, 1199, Note_on_c, 0, 74, 0
2, 1200, Note_on_c, 0, 79, 64
2, 1223, Note_on_c, 0, 79, 0
2, 1224, Note_on_c, 0, 74, 64
2, 1247, Note_on_c, 0, 74, 0
2, 1248, Note_on_c, 0, 74, 64
2, 1271, Note_on_c, 0, 74, 0
2, 1272, Note_on_c, 0, 72, 64
2, 1295, Note_on_c, 0, 72, 0
2, 1296, Note_on_c, 0, 81, 64
2, 1319, Note_on_c, 0, 81, 0
2, 1320, Note_on_c, 0, 72, 64
2, 1343, Note_on_c, 0, 72, 0
2, 1344, Note_on_c, 0, 71, 64
2, 1367, Note_on_c, 0, 71, 0
2, 1368, Note_on_c, 0, 67, 64
2, 1391, Note_on_c, 0, 67, 0
2, 1392, Note_on_c, 0, 72, 64
2, 1415, Note_on_c, 0, 72, 0
2, 1416, Note_on_c, 0, 67, 64
2, 1439, Note_on_c, 0, 67, 0
2, 1440, Note_on_c, 0, 74, 64
2, 1463, Note_on_c, 0, 74, 0
2, 1464, Note_on_c, 0, 67, 64
2, 1487, Note_on_c, 0, 67, 0
2, 1488, Note_on_c, 0, 76, 64
2, 1511, Note_on_c, 0, 76, 0
2, 1512, Note_on_c, 0, 67, 64
2, 1535, Note_on_c, 0, 67, 0
2, 1536, Note_on_c, 0, 74, 64
2, 1560, Note_on_c, 0, 74, 0
2, 1560, Note_on_c, 0, 79, 64
2, 1583, Note_on_c, 0, 79, 0
2, 1584, Note_on_c, 0, 79, 64
2, 1594, Note_on_c, 0, 79, 0
2, 1608, Note_on_c, 0, 79, 64
2, 1618, Note_on_c, 0, 79, 0
2, 1632, Note_on_c, 0, 78, 64
2, 1656, Note_on_c, 0, 78, 0
2, 1656, Note_on_c, 0, 84, 64
2, 1679, Note_on_c, 0, 84, 0
2, 1680, Note_on_c, 0, 84, 64
2, 1690, Note_on_c, 0, 84, 0
2, 1704, Note_on_c, 0, 84, 64
2, 1714, Note_on_c, 0, 84, 0
2, 1728, Note_on_c, 0, 84, 64
2, 1751, Note_on_c, 0, 84, 0
2, 1752, Note_on_c, 0, 83, 64
2, 1775, Note_on_c, 0, 83, 0
2, 1776, Note_on_c, 0, 81, 64
2, 1799, Note_on_c, 0, 81, 0
2, 1800, Note_on_c, 0, 79, 64
2, 1823, Note_on_c, 0, 79, 0
2, 1824, Note_on_c, 0, 81, 64
2, 1835, Note_on_c, 0, 81, 0
2, 1835, Note_on_c, 0, 83, 64
2, 1846, Note_on_c, 0, 83, 0
2, 1846, Note_on_c, 0, 81, 64
2, 1857, Note_on_c, 0, 81, 0
2, 1857, Note_on_c, 0, 83, 64
2, 1868, Note_on_c, 0, 83, 0
2, 1868, Note_on_c, 0, 81, 64
2, 1879, Note_on_c, 0, 81, 0
2, 1879, Note_on_c, 0, 83, 64
2, 1890, Note_on_c, 0, 83, 0
2, 1890, Note_on_c, 0, 81, 64
2, 1900, Note_on_c, 0, 81, 0
2, 1900, Note_on_c, 0, 79, 64
2, 1910, Note_on_c, 0, 79, 0
2, 1910, Note_on_c, 0, 81, 64
2, 1920, Note_on_c, 0, 81, 0
2, 1920, Note_on_c, 0, 79, 64
2, 2009, Note_on_c, 0, 79, 0
2, 2112, Note_on_c, 0, 64, 85
2, 2120, Note_on_c, 0, 67, 85
2, 2128, Note_on_c, 0, 72, 85
2, 2205, Note_on_c, 0, 72, 0
2, 2205, Note_on_c, 0, 67, 0
2, 2205, Note_on_c, 0, 64, 0
2, 2208, Note_on_c, 0, 74, 85
2, 2219, Note_on_c, 0, 74, 0
2, 2219, Note_on_c, 0, 76, 85
2, 2230, Note_on_c, 0, 76, 0
2, 2230, Note_on_c, 0, 74, 85
2, 2241, Note_on_c, 0, 74, 0
2, 2241, Note_on_c, 0, 76, 85
2, 2252, Note_on_c, 0, 76, 0
2, 2252, Note_on_c, 0, 74, 85
2, 2263, Note_on_c, 0, 74, 0
2, 2263, Note_on_c, 0, 76, 85
2, 2274, Note_on_c, 0, 76, 0
2, 2274, Note_on_c, 0, 74, 85
2, 2284, Note_on_c, 0, 74, 0
2, 2284, Note_on_c, 0, 72, 85
2, 2294, Note_on_c, 0, 72, 0
2, 2294, Note_on_c, 0, 74, 85
2, 2304, Note_on_c, 0, 74, 0
2, 2304, Note_on_c, 0, 76, 85
2, 2304, Note_on_c, 0, 72, 85
2, 2304, Note_on_c, 0, 67, 85
2, 2393, Note_on_c, 0, 76, 0
2, 2393, Note_on_c, 0, 72, 0
2, 2393, Note_on_c, 0, 67, 0
2, 2448, Note_on_c, 0, 72, 64
2, 2460, Note_on_c, 0, 72, 0
2, 2460, Note_on_c, 0, 74, 64
2, 2472, Note_on_c, 0, 74, 0
2, 2472, Note_on_c, 0, 76, 64
2, 2484, Note_on_c, 0, 76, 0
2, 2484, Note_on_c, 0, 77, 64
2, 2496, Note_on_c, 0, 77, 0
2, 2496, Note_on_c, 0, 79, 64
2, 2541, Note_on_c, 0, 79, 0
2, 2544, Note_on_c, 0, 84, 64
2, 2589, Note_on_c, 0, 84, 0
2, 2592, Note_on_c, 0, 83, 64
2, 2637, Note_on_c, 0, 83, 0
2, 2640, Note_on_c, 0, 81, 64
2, 2685, Note_on_c, 0, 81, 0
2, 2688, Note_on_c, 0, 79, 64
2, 2777, Note_on_c, 0, 79, 0
2, 2784, Note_on_c, 0, 77, 64
2, 2795, Note_on_c, 0, 77, 0
2, 2795, Note_on_c, 0, 79, 64
2, 2806, Note_on_c, 0, 79, 0
2, 2806, Note_on_c, 0, 77, 64
2, 2817, Note_on_c, 0, 77, 0
2, 2817, Note_on_c, 0, 79, 64
2, 2828, Note_on_c, 0, 79, 0
2, 2828, Note_on_c, 0, 77, 64
2, 2839, Note_on_c, 0, 77, 0
2, 2839, Note_on_c, 0, 79, 64
2, 2850, Note_on_c, 0, 79, 0
2, 2850, Note_on_c, 0, 77, 64
2, 2860, Note_on_c, 0, 77, 0
2, 2860, Note_on_c, 0, 76, 64
2, 2870, Note_on_c, 0, 76, 0
2, 2870, Note_on_c, 0, 77, 64
2, 2880, Note_on_c, 0, 77, 0
2, 2880, Note_on_c, 0, 76, 64
2, 2969, Note_on_c, 0, 76, 0
2, 2976, Note_on_c, 0, 76, 64
2, 2999, Note_on_c, 0, 76, 0
2, 3000, Note_on_c, 0, 72, 64
2, 3023, Note_on_c, 0, 72, 0
2, 3024, Note_on_c, 0, 79, 64
2, 3047, Note_on_c, 0, 79, 0
2, 3048, Note_on_c, 0, 76, 64
2, 3071, Note_on_c, 0, 76, 0
2, 3072, Note_on_c, 0, 76, 64
2, 3095, Note_on_c, 0, 76, 0
2, 3096, Note_on_c, 0, 74, 64
2, 3119, Note_on_c, 0, 74, 0
2, 3120, Note_on_c, 0, 79, 64
2, 3143, Note_on_c, 0, 79, 0
2, 3144, Note_on_c, 0, 74, 64
2, 3167, Note_on_c, 0, 74, 0
2, 3168, Note_on_c, 0, 74, 64
2, 3191, Note_on_c, 0, 74, 0
2, 3192, Note_on_c, 0, 72, 64
2, 3215, Note_on_c, 0, 72, 0
2, 3216, Note_on_c, 0, 81, 64
2, 3239, Note_on_c, 0, 81, 0
2, 3240, Note_on_c, 0, 72, 64
2, 3263, Note_on_c, 0, 72, 0
2, 3264, Note_on_c, 0, 71, 64
2, 3287, Note_on_c, 0, 71, 0
2, 3288, Note_on_c, 0, 67, 64
2, 3311, Note_on_c, 0, 67, 0
2, 3312, Note_on_c, 0, 72, 64
2, 3335, Note_on_c, 0, 72, 0
2, 3336, Note_on_c, 0, 67, 64
2, 3359, Note_on_c, 0, 67, 0
2, 3360, Note_on_c, 0, 74, 64
2, 3383, Note_on_c, 0, 74, 0
2, 3384, Note_on_c, 0, 67, 64
2, 3407, Note_on_c, 0, 67, 0
2, 3408, Note_on_c, 0, 76, 64
2, 3431, Note_on_c, 0, 76, 0
2, 3432, Note_on_c, 0, 67, 64
2, 3455, Note_on_c, 0, 67, 0
2, 3456, Note_on_c, 0, 74, 64
2, 3480, Note_on_c, 0, 74, 0
2, 3480, Note_on_c, 0, 79, 64
2, 3503, Note_on_c, 0, 79, 0
2, 3504, Note_on_c, 0, 79, 64
2, 3514, Note_on_c, 0, 79, 0
2, 3528, Note_on_c, 0, 79, 64
2, 3538, Note_on_c, 0, 79, 0
2, 3552, Note_on_c, 0, 78, 64
2, 3576, Note_on_c, 0, 78, 0
2, 3576, Note_on_c, 0, 84, 64
2, 3599, Note_on_c, 0, 84, 0
2, 3600, Note_on_c, 0, 84, 64
2, 3610, Note_on_c, 0, 84, 0
2, 3624, Note_on_c, 0, 84, 64
2, 3634, Note_on_c, 0, 84, 0
2, 3648, Note_on_c, 0, 84, 64
2, 3671, Note_on_c, 0, 84, 0
2, 3672, Note_on_c, 0, 83, 64
2, 3695, Note_on_c, 0, 83, 0
2, 3696, Note_on_c, 0, 81, 64
2, 3719, Note_on_c, 0, 81, 0
2, 3720, Note_on_c, 0, 79, 64
2, 3743, Note_on_c, 0, 79, 0
2, 3744, Note_on_c, 0, 81, 64
2, 3755, Note_on_c, 0, 81, 0
2, 3755, Note_on_c, 0, 83, 64
2, 3766, Note_on_c, 0, 83, 0
2, 3766, Note_on_c, 0, 81, 64
2, 3777, Note_on_c, 0, 81, 0
2, 3777, Note_on_c, 0, 83, 64
2, 3788, Note_on_c, 0, 83, 0
2, 3788, Note_on_c, 0, 81, 64
2, 3799, Note_on_c, 0, 81, 0
2, 3799, Note_on_c, 0, 83, 64
2, 3810, Note_on_c, 0, 83, 0
2, 3810, Note_on_c, 0, 81, 64
2, 3820, Note_on_c, 0, 81, 0
2, 3820, Note_on_c, 0, 79, 64
2, 3830, Note_on_c, 0, 79, 0
2, 3830, Note_on_c, 0, 81, 64
2, 3840, Note_on_c, 0, 81, 0
2, 3840, Note_on_c, 0, 79, 64
2, 3929, Note_on_c, 0, 79, 0
2, 4032, Note_on_c, 0, 71, 85
2, 4040, Note_on_c, 0, 74, 85
2, 4048, Note_on_c, 0, 79, 85
2, 4125, Note_on_c, 0, 79, 0
2, 4125, Note_on_c, 0, 74, 0
2, 4125, Note_on_c, 0, 71, 0
2, 4128, Note_on_c, 0, 67, 85
2, 4151, Note_on_c, 0, 67, 0
2, 4152, Note_on_c, 0, 69, 85
2, 4164, Note_on_c, 0, 69, 0
2, 4164, Note_on_c, 0, 71, 85
2, 4176, Note_on_c, 0, 71, 0
2, 4176, Note_on_c, 0, 72, 85
2, 4188, Note_on_c, 0, 72, 0
2, 4188, Note_on_c, 0, 74, 85
2, 4200, Note_on_c, 0, 74, 0
2, 4200, Note_on_c, 0, 76, 85
2, 4212, Note_on_c, 0, 76, 0
2, 4212, Note_on_c, 0, 78, 85
2, 4224, Note_on_c, 0, 78, 0
2, 4224, Note_on_c, 0, 79, 85
2, 4269, Note_on_c, 0, 79, 0
2, 4272, Note_on_c, 0, 84, 64
2, 4295, Note_on_c, 0, 84, 0
2, 4296, Note_on_c, 0, 79, 64
2, 4319, Note_on_c, 0, 79, 0
2, 4320, Note_on_c, 0, 79, 64
2, 4344, Note_on_c, 0, 79, 0
2, 4344, Note_on_c, 0, 77, 64
2, 4367, Note_on_c, 0, 77, 0
2, 4368, Note_on_c, 0, 77, 64
2, 4392, Note_on_c, 0, 77, 0
2, 4392, Note_on_c, 0, 76, 64
2, 4415, Note_on_c, 0, 76, 0
2, 4416, Note_on_c, 0, 77, 85
2, 4505, Note_on_c, 0, 77, 0
2, 4512, Note_on_c, 0, 67, 85
2, 4535, Note_on_c, 0, 67, 0
2, 4536, Note_on_c, 0, 69, 85
2, 4548, Note_on_c, 0, 69, 0
2, 4548, Note_on_c, 0, 71, 85
2, 4560, Note_on_c, 0, 71, 0
2, 4560, Note_on_c, 0, 72, 85
2, 4572, Note_on_c, 0, 72, 0
2, 4572, Note_on_c, 0, 74, 85
2, 4584, Note_on_c, 0, 74, 0
2, 4584, Note_on_c, 0, 76, 85
2, 4596, Note_on_c, 0, 76, 0
2, 4596, Note_on_c, 0, 78, 85
2, 4608, Note_on_c, 0, 78, 0
2, 4608, Note_on_c, 0, 79, 85
2, 4653, Note_on_c, 0, 79, 0
2, 4656, Note_on_c, 0, 86, 64
2, 4679, Note_on_c, 0, 86, 0
2, 4680, Note_on_c, 0, 84, 64
2, 4703, Note_on_c, 0, 84, 0
2, 4704, Note_on_c, 0, 83, 64
2, 4727, Note_on_c, 0, 83, 0
2, 4728, Note_on_c, 0, 81, 64
2, 4751, Note_on_c, 0, 81, 0
2, 4752, Note_on_c, 0, 79, 64
2, 4775, Note_on_c, 0, 79, 0
2, 4776, Note_on_c, 0, 77, 64
2, 4799, Note_on_c, 0, 77, 0
2, 4800, Note_on_c, 0, 76, 64
2, 4823, Note_on_c, 0, 76, 0
2, 4824, Note_on_c, 0, 72, 64
2, 4847, Note_on_c, 0, 72, 0
2, 4848, Note_on_c, 0, 79, 64
2, 4871, Note_on_c, 0, 79, 0
2, 4872, Note_on_c, 0, 76, 64
2, 4895, Note_on_c, 0, 76, 0
2, 4896, Note_on_c, 0, 81, 64
2, 4919, Note_on_c, 0, 81, 0
2, 4920, Note_on_c, 0, 69, 64
2, 4943, Note_on_c, 0, 69, 0
2, 4944, Note_on_c, 0, 77, 64
2, 4967, Note_on_c, 0, 77, 0
2, 4968, Note_on_c, 0, 74, 64
2, 4991, Note_on_c, 0, 74, 0
2, 4992, Note_on_c, 0, 72, 64
2, 5081, Note_on_c, 0, 72, 0
2, 5088, Note_on_c, 0, 71, 64
2, 5177, Note_on_c, 0, 71, 0
2, 5184, Note_on_c, 0, 64, 85
2, 5192, Note_on_c, 0, 67, 85
2, 5200, Note_on_c, 0, 72, 85
2, 5277, Note_on_c, 0, 72, 0
2, 5277, Note_on_c, 0, 67, 0
2, 5277, Note_on_c, 0, 64, 0
2, 5280, Note_on_c, 0, 74, 85
2, 5291, Note_on_c, 0, 74, 0
2, 5291, Note_on_c, 0, 76, 85
2, 5302, Note_on_c, 0, 76, 0
2, 5302, Note_on_c, 0, 74, 85
2, 5313, Note_on_c, 0, 74, 0
2, 5313, Note_on_c, 0, 76, 85
2, 5324, Note_on_c, 0, 76, 0
2, 5324, Note_on_c, 0, 74, 85
2, 5335, Note_on_c, 0, 74, 0
2, 5335, Note_on_c, 0, 76, 85
2, 5346, Note_on_c, 0, 76, 0
2, 5346, Note_on_c, 0, 74, 85
2, 5356, Note_on_c, 0, 74, 0
2, 5356, Note_on_c, 0, 72, 85
2, 5366, Note_on_c, 0, 72, 0
2, 5366, Note_on_c, 0, 74, 85
2, 5376, Note_on_c, 0, 74, 0
2, 5376, Note_on_c, 0, 76, 85
2, 5376, Note_on_c, 0, 72, 85
2, 5376, Note_on_c, 0, 67, 85
2, 5465, Note_on_c, 0, 76, 0
2, 5465, Note_on_c, 0, 72, 0
2, 5465, Note_on_c, 0, 67, 0
2, 5520, Note_on_c, 0, 72, 64
2, 5532, Note_on_c, 0, 72, 0
2, 5532, Note_on_c, 0, 74, 64
2, 5544, Note_on_c, 0, 74, 0
2, 5544, Note_on_c, 0, 76, 64
2, 5556, Note_on_c, 0, 76, 0
2, 5556, Note_on_c, 0, 77, 64
2, 5568, Note_on_c, 0, 77, 0
2, 5568, Note_on_c, 0, 79, 64
2, 5613, Note_on_c, 0, 79, 0
2, 5616, Note_on_c, 0, 84, 64
2, 5661, Note_on_c, 0, 84, 0
2, 5664, Note_on_c, 0, 83, 64
2, 5709, Note_on_c, 0, 83, 0
2, 5712, Note_on_c, 0, 81, 64
2, 5757, Note_on_c, 0, 81, 0
2, 5760, Note_on_c, 0, 79, 64
2, 5849, Note_on_c, 0, 79, 0
2, 5856, Note_on_c, 0, 77, 64
2, 5867, Note_on_c, 0, 77, 0
2, 5867, Note_on_c, 0, 79, 64
2, 5878, Note_on_c, 0, 79, 0
2, 5878, Note_on_c, 0, 77, 64
2, 5889, Note_on_c, 0, 77, 0
2, 5889, Note_on_c, 0, 79, 64
2, 5900, Note_on_c, 0, 79, 0
2, 5900, Note_on_c, 0, 77, 64
2, 5911, Note_on_c, 0, 77, 0
2, 5911, Note_on_c, 0, 79, 64
2, 5922, Note_on_c, 0, 79, 0
2, 5922, Note_on_c, 0, 77, 64
2, 5932, Note_on_c, 0, 77, 0
2, 5932, Note_on_c, 0, 76, 64
2, 5942, Note_on_c, 0, 76, 0
2, 5942, Note_on_c, 0, 77, 64
2, 5952, Note_on_c, 0, 77, 0
2, 5952, Note_on_c, 0, 76, 64
2, 5975, Note_on_c, 0, 76, 0
2, 5976, Note_on_c, 0, 72, 64
2, 5999, Note_on_c, 0, 72, 0
2, 6000, Note_on_c, 0, 79, 64
2, 6023, Note_on_c, 0, 79, 0
2, 6024, Note_on_c, 0, 76, 64
2, 6047, Note_on_c, 0, 76, 0
2, 6048, Note_on_c, 0, 81, 64
2, 6072, Note_on_c, 0, 81, 0
2, 6072, Note_on_c, 0, 77, 64
2, 6095, Note_on_c, 0, 77, 0
2, 6096, Note_on_c, 0, 76, 64
2, 6106, Note_on_c, 0, 76, 0
2, 6120, Note_on_c, 0, 74, 64
2, 6130, Note_on_c, 0, 74, 0
2, 6144, Note_on_c, 0, 72, 64
2, 6233, Note_on_c, 0, 72, 0
2, 6240, Note_on_c, 0, 74, 64
2, 6251, Note_on_c, 0, 74, 0
2, 6251, Note_on_c, 0, 76, 64
2, 6262, Note_on_c, 0, 76, 0
2, 6262, Note_on_c, 0, 74, 64
2, 6273, Note_on_c, 0, 74, 0
2, 6273, Note_on_c, 0, 76, 64
2, 6284, Note_on_c, 0, 76, 0
2, 6284, Note_on_c, 0, 74, 64
2, 6295, Note_on_c, 0, 74, 0
2, 6295, Note_on_c, 0, 76, 64
2, 6306, Note_on_c, 0, 76, 0
2, 6306, Note_on_c, 0, 74, 64
2, 6316, Note_on_c, 0, 74, 0
2, 6316, Note_on_c, 0, 72, 64
2, 6326, Note_on_c, 0, 72, 0
2, 6326, Note_on_c, 0, 74, 64
2, 6336, Note_on_c, 0, 74, 0
2, 6336, Note_on_c, 0, 72, 64
2, 6425, Note_on_c, 0, 72, 0
2, 6528, Note_on_c, 0, 71, 85
2, 6536, Note_on_c, 0, 74, 85
2, 6544, Note_on_c, 0, 79, 85
2, 6621, Note_on_c, 0, 79, 0
2, 6621, Note_on_c, 0, 74, 0
2, 6621, Note_on_c, 0, 71, 0
2, 6624, Note_on_c, 0, 67, 85
2, 6647, Note_on_c, 0, 67, 0
2, 6648, Note_on_c, 0, 69, 85
2, 6660, Note_on_c, 0, 69, 0
2, 6660, Note_on_c, 0, 71, 85
2, 6672, Note_on_c, 0, 71, 0
2, 6672, Note_on_c, 0, 72, 85
2, 6684, Note_on_c, 0, 72, 0
2, 6684, Note_on_c, 0, 74, 85
2, 6696, Note_on_c, 0, 74, 0
2, 6696, Note_on_c, 0, 76, 85
2, 6708, Note_on_c, 0, 76, 0
2, 6708, Note_on_c, 0, 78, 85
2, 6720, Note_on_c, 0, 78, 0
2, 6720, Note_on_c, 0, 79, 85
2, 6765, Note_on_c, 0, 79, 0
2, 6768, Note_on_c, 0, 84, 64
2, 6791, Note_on_c, 0, 84, 0
2, 6792, Note_on_c, 0, 79, 64
2, 6815, Note_on_c, 0, 79, 0
2, 6816, Note_on_c, 0, 79, 64
2, 6840, Note_on_c, 0, 79, 0
2, 6840, Note_on_c, 0, 77, 64
2, 6863, Note_on_c, 0, 77, 0
2, 6864, Note_on_c, 0, 77, 64
2, 6888, Note_on_c, 0, 77, 0
2, 6888, Note_on_c, 0, 76, 64
2, 6911, Note_on_c, 0, 76, 0
2, 6912, Note_on_c, 0, 77, 85
2, 7001, Note_on_c, 0, 77, 0
2, 7008, Note_on_c, 0, 67, 85
2, 7031, Note_on_c, 0, 67, 0
2, 7032, Note_on_c, 0, 69, 85
2, 7044, Note_on_c, 0, 69, 0
2, 7044, Note_on_c, 0, 71, 85
2, 7056, Note_on_c, 0, 71, 0
2, 7056, Note_on_c, 0, 72, 85
2, 7068, Note_on_c, 0, 72, 0
2, 7068, Note_on_c, 0, 74, 85
2, 7080, Note_on_c, 0, 74, 0
2, 7080, Note_on_c, 0, 76, 85
2, 7092, Note_on_c, 0, 76, 0
2, 7092, Note_on_c, 0, 78, 85
2, 7104, Note_on_c, 0, 78, 0
2, 7104, Note_on_c, 0, 79, 85
2, 7149, Note_on_c, 0, 79, 0
2, 7152, Note_on_c, 0, 86, 64
2, 7175, Note_on_c, 0, 86, 0
2, 7176, Note_on_c, 0, 84, 64
2, 7199, Note_on_c, 0, 84, 0
2, 7200, Note_on_c, 0, 83, 64
2, 7223, Note_on_c, 0, 83, 0
2, 7224, Note_on_c, 0, 81, 64
2, 7247, Note_on_c, 0, 81, 0
2, 7248, Note_on_c, 0, 79, 64
2, 7271, Note_on_c, 0, 79, 0
2, 7272, Note_on_c, 0, 77, 64
2, 7295, Note_on_c, 0, 77, 0
2, 7296, Note_on_c, 0, 76, 64
2, 7319, Note_on_c, 0, 76, 0
2, 7320, Note_on_c, 0, 72, 64
2, 7343, Note_on_c, 0, 72, 0
2, 7344, Note_on_c, 0, 79, 64
2, 7367, Note_on_c, 0, 79, 0
2, 7368, Note_on_c, 0, 76, 64
2, 7391, Note_on_c, 0, 76, 0
2, 7392, Note_on_c, 0, 81, 64
2, 7415, Note_on_c, 0, 81, 0
2, 7416, Note_on_c, 0, 69, 64
2, 7439, Note_on_c, 0, 69, 0
2, 7440, Note_on_c, 0, 77, 64
2, 7463, Note_on_c, 0, 77, 0
2, 7464, Note_on_c, 0, 74, 64
2, 7487, Note_on_c, 0, 74, 0
2, 7488, Note_on_c, 0, 72, 64
2, 7577, Note_on_c, 0, 72, 0
2, 7584, Note_on_c, 0, 71, 64
2, 7673, Note_on_c, 0, 71, 0
2, 7680, Note_on_c, 0, 64, 85
2, 7688, Note_on_c, 0, 67, 85
2, 7696, Note_on_c, 0, 72, 85
2, 7773, Note_on_c, 0, 72, 0
2, 7773, Note_on_c, 0, 67, 0
2, 7773, Note_on_c, 0, 64, 0
2, 7776, Note_on_c, 0, 74, 85
2, 7787, Note_on_c, 0, 74, 0
2, 7787, Note_on_c, 0, 76, 85
2, 7798, Note_on_c, 0, 76, 0
2, 7798, Note_on_c, 0, 74, 85
2, 7809, Note_on_c, 0, 74, 0
2, 7809, Note_on_c, 0, 76, 85
2, 7820, Note_on_c, 0, 76, 0
2, 7820, Note_on_c, 0, 74, 85
2, 7831, Note_on_c, 0, 74, 0
2, 7831, Note_on_c, 0, 76, 85
2, 7842, Note_on_c, 0, 76, 0
2, 7842, Note_on_c, 0, 74, 85
2, 7852, Note_on_c, 0, 74, 0
2, 7852, Note_on_c, 0, 72, 85
2, 7862, Note_on_c, 0, 72, 0
2, 7862, Note_on_c, 0, 74, 85
2, 7872, Note_on_c, 0, 74, 0
2, 7872, Note_on_c, 0, 76, 85
2, 7872, Note_on_c, 0, 72, 85
2, 7872, Note_on_c, 0, 67, 85
2, 7961, Note_on_c, 0, 76, 0
2, 7961, Note_on_c, 0, 72, 0
2, 7961, Note_on_c, 0, 67, 0
2, 8016, Note_on_c, 0, 72, 64
2, 8028, Note_on_c, 0, 72, 0
2, 8028, Note_on_c, 0, 74, 64
2, 8040, Note_on_c, 0, 74, 0
2, 8040, Note_on_c, 0, 76, 64
2, 8052, Note_on_c, 0, 76, 0
2, 8052, Note_on_c, 0, 77, 64
2, 8064, Note_on_c, 0, 77, 0
2, 8064, Note_on_c, 0, 79, 64
2, 8109, Note_on_c, 0, 79, 0
2, 8112, Note_on_c, 0, 84, 64
2, 8157, Note_on_c, 0, 84, 0
2, 8160, Note_on_c, 0, 83, 64
2, 8205, Note_on_c, 0, 83, 0
2, 8208, Note_on_c, 0, 81, 64
2, 8253, Note_on_c, 0, 81, 0
2, 8256, Note_on_c, 0, 79, 64
2, 8345, Note_on_c, 0, 79, 0
2, 8352, Note_on_c, 0, 77, 64
2, 8363, Note_on_c, 0, 77, 0
2, 8363, Note_on_c, 0, 79, 64
2, 8374, Note_on_c, 0, 79, 0
2, 8374, Note_on_c, 0, 77, 64
2, 8385, Note_on_c, 0, 77, 0
2, 8385, Note_on_c, 0, 79, 64
2, 8396, Note_on_c, 0, 79, 0
2, 8396, Note_on_c, 0, 77, 64
2, 8407, Note_on_c, 0, 77, 0
2, 8407, Note_on_c, 0, 79, 64
2, 8418, Note_on_c, 0, 79, 0
2, 8418, Note_on_c, 0, 77, 64
2, 8428, Note_on_c, 0, 77, 0
2, 8428, Note_on_c, 0, 76, 64
2, 8438, Note_on_c, 0, 76, 0
2, 8438, Note_on_c, 0, 77, 64
2, 8448, Note_on_c, 0, 77, 0
2, 8448, Note_on_c, 0, 76, 64
2, 8471, Note_on_c, 0, 76, 0
2, 8472, Note_on_c, 0, 72, 64
2, 8495, Note_on_c, 0, 72, 0
2, 8496, Note_on_c, 0, 79, 64
2, 8519, Note_on_c, 0, 79, 0
2, 8520, Note_on_c, 0, 76, 64
2, 8543, Note_on_c, 0, 76, 0
2, 8544, Note_on_c, 0, 81, 64
2, 8568, Note_on_c, 0, 81, 0
2, 8568, Note_on_c, 0, 77, 64
2, 8591, Note_on_c, 0, 77, 0
2, 8592, Note_on_c, 0, 76, 64
2, 8602, Note_on_c, 0, 76, 0
2, 8616, Note_on_c, 0, 74, 64
2, 8626, Note_on_c, 0, 74, 0
2, 8640, Note_on_c, 0, 72, 64
2, 8729, Note_on_c, 0, 72, 0
2, 8736, Note_on_c, 0, 74, 64
2, 8747, Note_on_c, 0, 74, 0
2, 8747, Note_on_c, 0, 76, 64
2, 8758, Note_on_c, 0, 76, 0
2, 8758, Note_on_c, 0, 74, 64
2, 8769, Note_on_c, 0, 74, 0
2, 8769, Note_on_c, 0, 76, 64
2, 8780, Note_on_c, 0, 76, 0
2, 8780, Note_on_c, 0, 74, 64
2, 8791, Note_on_c, 0, 74, 0
2, 8791, Note_on_c, 0, 76, 64
2, 8802, Note_on_c, 0, 76, 0
2, 8802, Note_on_c, 0, 74, 64
2, 8812, Note_on_c, 0, 74, 0
2, 8812, Note_on_c, 0, 72, 64
2, 8822, Note_on_c, 0, 72, 0
2, 8822, Note_on_c, 0, 74, 64
2, 8832, Note_on_c, 0, 74, 0
2, 8832, Note_on_c, 0, 72, 64
2, 8921, Note_on_c, 0, 72, 0
2, 9216, End_track
3, 0, Start_track
3, 0, Program_c, 0, 0
3, 0, Control_c, 0, 7, 127
3, 0, Control_c, 0, 10, 64
3, 288, Note_on_c, 0, 71, 64
3, 288, Note_on_c, 0, 67, 64
3, 377, Note_on_c, 0, 71, 0
3, 377, Note_on_c, 0, 67, 0
3, 2208, Note_on_c, 0, 71, 64
3, 2208, Note_on_c, 0, 67, 64
3, 2297, Note_on_c, 0, 71, 0
3, 2297, Note_on_c, 0, 67, 0
3, 5280, Note_on_c, 0, 71, 64
3, 5280, Note_on_c, 0, 67, 64
3, 5369, Note_on_c, 0, 71, 0
3, 5369, Note_on_c, 0, 67, 0
3, 7776, Note_on_c, 0, 71, 64
3, 7776, Note_on_c, 0, 67, 64
3, 7865, Note_on_c, 0, 71, 0
3, 7865, Note_on_c, 0, 67, 0
3, 9216, End_track
4, 0, Start_track
4, 0, Program_c, 1, 0
4, 0, Control_c, 1, 7, 127
4, 0, Control_c, 1, 10, 64
4, 192, Note_on_c, 1, 60, 64
4, 192, Note_on_c, 1, 48, 64
4, 281, Note_on_c, 1, 60, 0
4, 281, Note_on_c, 1, 48, 0
4, 288, Note_on_c, 1, 55, 64
4, 288, Note_on_c, 1, 43, 64
4, 377, Note_on_c, 1, 55, 0
4, 377, Note_on_c, 1, 43, 0
4, 384, Note_on_c, 1, 48, 64
4, 384, Note_on_c, 1, 36, 64
4, 473, Note_on_c, 1, 48, 0
4, 473, Note_on_c, 1, 36, 0
4, 576, Note_on_c, 1, 64, 64
4, 576, Note_on_c, 1, 60, 64
4, 624, Note_on_c, 1, 64, 0
4, 624, Note_on_c, 1, 69, 64
4, 669, Note_on_c, 1, 69, 0
4, 669, Note_on_c, 1, 60, 0
4, 672, Note_on_c, 1, 67, 64
4, 717, Note_on_c, 1, 67, 0
4, 720, Note_on_c, 1, 65, 64
4, 765, Note_on_c, 1, 65, 0
4, 768, Note_on_c, 1, 64, 64
4, 813, Note_on_c, 1, 64, 0
4, 816, Note_on_c, 1, 60, 64
4, 861, Note_on_c, 1, 60, 0
4, 864, Note_on_c, 1, 62, 64
4, 909, Note_on_c, 1, 62, 0
4, 912, Note_on_c, 1, 55, 64
4, 957, Note_on_c, 1, 55, 0
4, 960, Note_on_c, 1, 60, 64
4, 1005, Note_on_c, 1, 60, 0
4, 1008, Note_on_c, 1, 48, 64
4, 1053, Note_on_c, 1, 48, 0
4, 1104, Note_on_c, 1, 60, 64
4, 1149, Note_on_c, 1, 60, 0
4, 1152, Note_on_c, 1, 59, 64
4, 1197, Note_on_c, 1, 59, 0
4, 1200, Note_on_c, 1, 55, 64
4, 1245, Note_on_c, 1, 55, 0
4, 1248, Note_on_c, 1, 57, 64
4, 1293, Note_on_c, 1, 57, 0
4, 1296, Note_on_c, 1, 50, 64
4, 1341, Note_on_c, 1, 50, 0
4, 1344, Note_on_c, 1, 55, 64
4, 1389, Note_on_c, 1, 55, 0
4, 1392, Note_on_c, 1, 57, 64
4, 1437, Note_on_c, 1, 57, 0
4, 1440, Note_on_c, 1, 59, 64
4, 1485, Note_on_c, 1, 59, 0
4, 1488, Note_on_c, 1, 60, 64
4, 1533, Note_on_c, 1, 60, 0
4, 1536, Note_on_c, 1, 59, 64
4, 1625, Note_on_c, 1, 59, 0
4, 1632, Note_on_c, 1, 57, 64
4, 1677, Note_on_c, 1, 57, 0
4, 1680, Note_on_c, 1, 50, 64
4, 1725, Note_on_c, 1, 50, 0
4, 1728, Note_on_c, 1, 55, 64
4, 1773, Note_on_c, 1, 55, 0
4, 1776, Note_on_c, 1, 59, 64
4, 1821, Note_on_c, 1, 59, 0
4, 1824, Note_on_c, 1, 60, 64
4, 1869, Note_on_c, 1, 60, 0
4, 1872, Note_on_c, 1, 62, 64
4, 1917, Note_on_c, 1, 62, 0
4, 1920, Note_on_c, 1, 55, 64
4, 1965, Note_on_c, 1, 55, 0
4, 1968, Note_on_c, 1, 50, 64
4, 2013, Note_on_c, 1, 50, 0
4, 2016, Note_on_c, 1, 43, 64
4, 2105, Note_on_c, 1, 43, 0
4, 2112, Note_on_c, 1, 60, 64
4, 2112, Note_on_c, 1, 48, 64
4, 2201, Note_on_c, 1, 60, 0
4, 2201, Note_on_c, 1, 48, 0
4, 2208, Note_on_c, 1, 55, 64
4, 2208, Note_on_c, 1, 43, 64
4, 2297, Note_on_c, 1, 55, 0
4, 2297, Note_on_c, 1, 43, 0
4, 2304, Note_on_c, 1, 48, 64
4, 2304, Note_on_c, 1, 36, 64
4, 2393, Note_on_c, 1, 48, 0
4, 2393, Note_on_c, 1, 36, 0
4, 2496, Note_on_c, 1, 64, 64
4, 2496, Note_on_c, 1, 60, 64
4, 2544, Note_on_c, 1, 64, 0
4, 2544, Note_on_c, 1, 69, 64
4, 2589, Note_on_c, 1, 69, 0
4, 2589, Note_on_c, 1, 60, 0
4, 2592, Note_on_c, 1, 67, 64
4, 2637, Note_on_c, 1, 67, 0
4, 2640, Note_on_c, 1, 65, 64
4, 2685, Note_on_c, 1, 65, 0
4, 2688, Note_on_c, 1, 64, 64
4, 2733, Note_on_c, 1, 64, 0
4, 2736, Note_on_c, 1, 60, 64
4, 2781, Note_on_c, 1, 60, 0
4, 2784, Note_on_c, 1, 62, 64
4, 2829, Note_on_c, 1, 62, 0
4, 2832, Note_on_c, 1, 55, 64
4, 2877, Note_on_c, 1, 55, 0
4, 2880, Note_on_c, 1, 60, 64
4, 2925, Note_on_c, 1, 60, 0
4, 2928, Note_on_c, 1, 48, 64
4, 2973, Note_on_c, 1, 48, 0
4, 3024, Note_on_c, 1, 60, 64
4, 3069, Note_on_c, 1, 60, 0
4, 3072, Note_on_c, 1, 59, 64
4, 3117, Note_on_c, 1, 59, 0
4, 3120, Note_on_c, 1, 55, 64
4, 3165, Note_on_c, 1, 55, 0
4, 3168, Note_on_c, 1, 57, 64
4, 3213, Note_on_c, 1, 57, 0
4, 3216, Note_on_c, 1, 50, 64
4, 3261, Note_on_c, 1, 50, 0
4, 3264, Note_on_c, 1, 55, 64
4, 3309, Note_on_c, 1, 55, 0
4, 3312, Note_on_c, 1, 57, 64
4, 3357, Note_on_c, 1, 57, 0
4, 3360, Note_on_c, 1, 59, 64
4, 3405, Note_on_c, 1, 59, 0
4, 3408, Note_on_c, 1, 60, 64
4, 3453, Note_on_c, 1, 60, 0
4, 3456, Note_on_c, 1, 59, 64
4, 3545, Note_on_c, 1, 59, 0
4, 3552, Note_on_c, 1, 57, 64
4, 3597, Note_on_c, 1, 57, 0
4, 3600, Note_on_c, 1, 50, 64
4, 3645, Note_on_c, 1, 50, 0
4, 3648, Note_on_c, 1, 55, 64
4, 3693, Note_on_c, 1, 55, 0
4, 3696, Note_on_c, 1, 59, 64
4, 3741, Note_on_c, 1, 59, 0
4, 3744, Note_on_c, 1, 60, 64
4, 3789, Note_on_c, 1, 60, 0
4, 3792, Note_on_c, 1, 62, 64
4, 3837, Note_on_c, 1, 62, 0
4, 3840, Note_on_c, 1, 55, 64
4, 3885, Note_on_c, 1, 55, 0
4, 3888, Note_on_c, 1, 50, 64
4, 3933, Note_on_c, 1, 50, 0
4, 3936, Note_on_c, 1, 43, 64
4, 4025, Note_on_c, 1, 43, 0
4, 4032, Note_on_c, 1, 55, 85
4, 4032, Note_on_c, 1, 43, 85
4, 4121, Note_on_c, 1, 55, 0
4, 4121, Note_on_c, 1, 43, 0
4, 4224, Note_on_c, 1, 55, 85
4, 4272, Note_on_c, 1, 64, 64
4, 4320, Note_on_c, 1, 64, 0
4, 4320, Note_on_c, 1, 62, 64
4, 4368, Note_on_c, 1, 62, 0
4, 4368, Note_on_c, 1, 60, 64
4, 4413, Note_on_c, 1, 60, 0
4, 4413, Note_on_c, 1, 55, 0
4, 4416, Note_on_c, 1, 62, 85
4, 4416, Note_on_c, 1, 55, 85
4, 4505, Note_on_c, 1, 62, 0
4, 4505, Note_on_c, 1, 55, 0
4, 4656, Note_on_c, 1, 55, 64
4, 4701, Note_on_c, 1, 55, 0
4, 4704, Note_on_c, 1, 57, 64
4, 4749, Note_on_c, 1, 57, 0
4, 4752, Note_on_c, 1, 59, 64
4, 4797, Note_on_c, 1, 59, 0
4, 4800, Note_on_c, 1, 60, 64
4, 4845, Note_on_c, 1, 60, 0
4, 4848, Note_on_c, 1, 52, 64
4, 4893, Note_on_c, 1, 52, 0
4, 4896, Note_on_c, 1, 53, 64
4, 4941, Note_on_c, 1, 53, 0
4, 4944, Note_on_c, 1, 50, 64
4, 4989, Note_on_c, 1, 50, 0
4, 4992, Note_on_c, 1, 55, 64
4, 5037, Note_on_c, 1, 55, 0
4, 5040, Note_on_c, 1, 43, 64
4, 5085, Note_on_c, 1, 43, 0
4, 5088, Note_on_c, 1, 55, 64
4, 5111, Note_on_c, 1, 55, 0
4, 5112, Note_on_c, 1, 53, 64
4, 5135, Note_on_c, 1, 53, 0
4, 5136, Note_on_c, 1, 52, 64
4, 5159, Note_on_c, 1, 52, 0
4, 5160, Note_on_c, 1, 50, 64
4, 5183, Note_on_c, 1, 50, 0
4, 5184, Note_on_c, 1, 60, 64
4, 5184, Note_on_c, 1, 48, 64
4, 5273, Note_on_c, 1, 60, 0
4, 5273, Note_on_c, 1, 48, 0
4, 5280, Note_on_c, 1, 55, 64
4, 5280, Note_on_c, 1, 43, 64
4, 5369, Note_on_c, 1, 55, 0
4, 5369, Note_on_c, 1, 43, 0
4, 5376, Note_on_c, 1, 48, 64
4, 5376, Note_on_c, 1, 36, 64
4, 5465, Note_on_c, 1, 48, 0
4, 5465, Note_on_c, 1, 36, 0
4, 5568, Note_on_c, 1, 64, 64
4, 5568, Note_on_c, 1, 60, 64
4, 5616, Note_on_c, 1, 64, 0
4, 5616, Note_on_c, 1, 69, 64
4, 5661, Note_on_c, 1, 69, 0
4, 5661, Note_on_c, 1, 60, 0
4, 5664, Note_on_c, 1, 67, 64
4, 5709, Note_on_c, 1, 67, 0
4, 5712, Note_on_c, 1, 65, 64
4, 5757, Note_on_c, 1, 65, 0
4, 5760, Note_on_c, 1, 64, 64
4, 5805, Note_on_c, 1, 64, 0
4, 5808, Note_on_c, 1, 60, 64
4, 5853, Note_on_c, 1, 60, 0
4, 5856, Note_on_c, 1, 62, 64
4, 5901, Note_on_c, 1, 62, 0
4, 5904, Note_on_c, 1, 55, 64
4, 5949, Note_on_c, 1, 55, 0
4, 5952, Note_on_c, 1, 60, 64
4, 5997, Note_on_c, 1, 60, 0
4, 6000, Note_on_c, 1, 52, 64
4, 6045, Note_on_c, 1, 52, 0
4, 6048, Note_on_c, 1, 53, 64
4, 6137, Note_on_c, 1, 53, 0
4, 6144, Note_on_c, 1, 52, 64
4, 6189, Note_on_c, 1, 52, 0
4, 6192, Note_on_c, 1, 57, 64
4, 6237, Note_on_c, 1, 57, 0
4, 6240, Note_on_c, 1, 53, 64
4, 6285, Note_on_c, 1, 53, 0
4, 6288, Note_on_c, 1, 55, 64
4, 6333, Note_on_c, 1, 55, 0
4, 6336, Note_on_c, 1, 48, 64
4, 6381, Note_on_c, 1, 48, 0
4, 6384, Note_on_c, 1, 43, 64
4, 6429, Note_on_c, 1, 43, 0
4, 6432, Note_on_c, 1, 36, 64
4, 6521, Note_on_c, 1, 36, 0
4, 6528, Note_on_c, 1, 55, 85
4, 6528, Note_on_c, 1, 43, 85
4, 6617, Note_on_c, 1, 55, 0
4, 6617, Note_on_c, 1, 43, 0
4, 6720, Note_on_c, 1, 55, 85
4, 6768, Note_on_c, 1, 64, 64
4, 6816, Note_on_c, 1, 64, 0
4, 6816, Note_on_c, 1, 62, 64
4, 6864, Note_on_c, 1, 62, 0
4, 6864, Note_on_c, 1, 60, 64
4, 6909, Note_on_c, 1, 60, 0
4, 6909, Note_on_c, 1, 55, 0
4, 6912, Note_on_c, 1, 62, 85
4, 6912, Note_on_c, 1, 55, 85
4, 7001, Note_on_c, 1, 62, 0
4, 7001, Note_on_c, 1, 55, 0
4, 7152, Note_on_c, 1, 55, 64
4, 7197, Note_on_c, 1, 55, 0
4, 7200, Note_on_c, 1, 57, 64
4, 7245, Note_on_c, 1, 57, 0
4, 7248, Note_on_c, 1, 59, 64
4, 7293, Note_on_c, 1, 59, 0
4, 7296, Note_on_c, 1, 60, 64
4, 7341, Note_on_c, 1, 60, 0
4, 7344, Note_on_c, 1, 52, 64
4, 7389, Note_on_c, 1, 52, 0
4, 7392, Note_on_c, 1, 53, 64
4, 7437, Note_on_c, 1, 53, 0
4, 7440, Note_on_c, 1, 50, 64
4, 7485, Note_on_c, 1, 50, 0
4, 7488, Note_on_c, 1, 55, 64
4, 7533, Note_on_c, 1, 55, 0
4, 7536, Note_on_c, 1, 43, 64
4, 7581, Note_on_c, 1, 43, 0
4, 7584, Note_on_c, 1, 55, 64
4, 7607, Note_on_c, 1, 55, 0
4, 7608, Note_on_c, 1, 53, 64
4, 7631, Note_on_c, 1, 53, 0
4, 7632, Note_on_c, 1, 52, 64
4, 7655, Note_on_c, 1, 52, 0
4, 7656, Note_on_c, 1, 50, 64
4, 7679, Note_on_c, 1, 50, 0
4, 7680, Note_on_c, 1, 60, 64
4, 7680, Note_on_c, 1, 48, 64
4, 7769, Note_on_c, 1, 60, 0
4, 7769, Note_on_c, 1, 48, 0
4, 7776, Note_on_c, 1, 55, 64
4, 7776, Note_on_c, 1, 43, 64
4, 7865, Note_on_c, 1, 55, 0
4, 7865, Note_on_c, 1, 43, 0
4, 7872, Note_on_c, 1, 48, 64
4, 7872, Note_on_c, 1, 36, 64
4, 7961, Note_on_c, 1, 48, 0
4, 7961, Note_on_c, 1, 36, 0
4, 8064, Note_on_c, 1, 64, 64
4, 8064, Note_on_c, 1, 60, 64
4, 8112, Note_on_c, 1, 64, 0
4, 8112, Note_on_c, 1, 69, 64
4, 8157, Note_on_c, 1, 69, 0
4, 8157, Note_on_c, 1, 60, 0
4, 8160, Note_on_c, 1, 67, 64
4, 8205, Note_on_c, 1, 67, 0
4, 8208, Note_on_c, 1, 65, 64
4, 8253, Note_on_c, 1, 65, 0
4, 8256, Note_on_c, 1, 64, 64
4, 8301, Note_on_c, 1, 64, 0
4, 8304, Note_on_c, 1, 60, 64
4, 8349, Note_on_c, 1, 60, 0
4, 8352, Note_on_c, 1, 62, 64
4, 8397, Note_on_c, 1, 62, 0
4, 8400, Note_on_c, 1, 55, 64
4, 8445, Note_on_c, 1, 55, 0
4, 8448, Note_on_c, 1, 60, 64
4, 8493, Note_on_c, 1, 60, 0
4, 8496, Note_on_c, 1, 52, 64
4, 8541, Note_on_c, 1, 52, 0
4, 8544, Note_on_c, 1, 53, 64
4, 8633, Note_on_c, 1, 53, 0
4, 8640, Note_on_c, 1, 52, 64
4, 8685, Note_on_c, 1, 52, 0
4, 8688, Note_on_c, 1, 57, 64
4, 8733, Note_on_c, 1, 57, 0
4, 8736, Note_on_c, 1, 53, 64
4, 8781, Note_on_c, 1, 53, 0
4, 8784, Note_on_c, 1, 55, 64
4, 8829, Note_on_c, 1, 55, 0
4, 8832, Note_on_c, 1, 48, 64
4, 8877, Note_on_c, 1, 48, 0
4, 8880, Note_on_c, 1, 43, 64
4, 8925, Note_on_c, 1, 43, 0
4, 8928, Note_on_c, 1, 36, 64
4, 9017, Note_on_c, 1, 36, 0
4, 9024, Note_on_c, 1, 36, 0
4, 9201, Note_on_c, 1, 36, 0
4, 9216, End_track
5, 0, Start_track
5, 0, Title_t, "<No Title>"
5, 0, End_track
0, 0, End_of_file
