0, 0, Header, 1, 6, 96
1, 0, Start_track
1, 0, Copyright_t, "Copyright  2000 <copyright holder>"
1, 0, Text_t, "Sonata III\015\012"
1, 0, Text_t, "<composer>\015\012"
1, 0, Sequencer_specific, 16, 68, 87, 77, 90, 86, 82, 83, 78, 32, 55, 46, 48, 46, 56, 46, 48
1, 0, Time_signature, 2, 2, 24, 8
1, 0, Tempo, 428571
1, 0, Key_signature, 2, "major"
1, 41472, End_track
2, 0, Start_track
2, 0, Program_c, 0, 0
2, 0, Control_c, 0, 7, 127
2, 0, Control_c, 0, 10, 64
2, 0, Note_on_c, 0, 78, 69
2, 0, Note_on_c, 0, 74, 69
2, 67, Note_on_c, 0, 78, 0
2, 67, Note_on_c, 0, 74, 0
2, 72, Note_on_c, 0, 79, 69
2, 72, Note_on_c, 0, 76, 69
2, 95, Note_on_c, 0, 79, 0
2, 95, Note_on_c, 0, 76, 0
2, 96, Note_on_c, 0, 81, 69
2, 96, Note_on_c, 0, 78, 69
2, 141, Note_on_c, 0, 81, 0
2, 141, Note_on_c, 0, 78, 0
2, 144, Note_on_c, 0, 79, 69
2, 144, Note_on_c, 0, 76, 69
2, 189, Note_on_c, 0, 79, 0
2, 189, Note_on_c, 0, 76, 0
2, 192, Note_on_c, 0, 78, 69
2, 192, Note_on_c, 0, 74, 69
2, 286, Note_on_c, 0, 78, 0
2, 286, Note_on_c, 0, 74, 0
2, 384, Note_on_c, 0, 76, 69
2, 407, Note_on_c, 0, 76, 0
2, 408, Note_on_c, 0, 75, 69
2, 431, Note_on_c, 0, 75, 0
2, 432, Note_on_c, 0, 76, 69
2, 455, Note_on_c, 0, 76, 0
2, 456, Note_on_c, 0, 78, 69
2, 479, Note_on_c, 0, 78, 0
2, 480, Note_on_c, 0, 79, 69
2, 503, Note_on_c, 0, 79, 0
2, 504, Note_on_c, 0, 81, 69
2, 527, Note_on_c, 0, 81, 0
2, 528, Note_on_c, 0, 83, 69
2, 551, Note_on_c, 0, 83, 0
2, 552, Note_on_c, 0, 79, 69
2, 575, Note_on_c, 0, 79, 0
2, 576, Note_on_c, 0, 81, 69
2, 599, Note_on_c, 0, 81, 0
2, 600, Note_on_c, 0, 78, 69
2, 623, Note_on_c, 0, 78, 0
2, 624, Note_on_c, 0, 76, 69
2, 647, Note_on_c, 0, 76, 0
2, 648, Note_on_c, 0, 74, 69
2, 671, Note_on_c, 0, 74, 0
2, 672, Note_on_c, 0, 81, 69
2, 687, Note_on_c, 0, 81, 0
2, 688, Note_on_c, 0, 79, 69
2, 703, Note_on_c, 0, 79, 0
2, 704, Note_on_c, 0, 81, 69
2, 719, Note_on_c, 0, 81, 0
2, 720, Note_on_c, 0, 79, 69
2, 735, Note_on_c, 0, 79, 0
2, 736, Note_on_c, 0, 78, 69
2, 751, Note_on_c, 0, 78, 0
2, 752, Note_on_c, 0, 79, 69
2, 767, Note_on_c, 0, 79, 0
2, 768, Note_on_c, 0, 78, 69
2, 857, Note_on_c, 0, 78, 0
2, 960, Note_on_c, 0, 66, 69
2, 960, Note_on_c, 0, 62, 69
2, 1027, Note_on_c, 0, 66, 0
2, 1027, Note_on_c, 0, 62, 0
2, 1032, Note_on_c, 0, 67, 69
2, 1032, Note_on_c, 0, 64, 69
2, 1055, Note_on_c, 0, 67, 0
2, 1055, Note_on_c, 0, 64, 0
2, 1056, Note_on_c, 0, 69, 69
2, 1056, Note_on_c, 0, 66, 69
2, 1101, Note_on_c, 0, 69, 0
2, 1101, Note_on_c, 0, 66, 0
2, 1104, Note_on_c, 0, 67, 69
2, 1104, Note_on_c, 0, 64, 69
2, 1149, Note_on_c, 0, 67, 0
2, 1149, Note_on_c, 0, 64, 0
2, 1152, Note_on_c, 0, 66, 69
2, 1152, Note_on_c, 0, 62, 69
2, 1246, Note_on_c, 0, 66, 0
2, 1246, Note_on_c, 0, 62, 0
2, 1344, Note_on_c, 0, 62, 69
2, 1367, Note_on_c, 0, 62, 0
2, 1368, Note_on_c, 0, 64, 69
2, 1391, Note_on_c, 0, 64, 0
2, 1392, Note_on_c, 0, 66, 69
2, 1415, Note_on_c, 0, 66, 0
2, 1416, Note_on_c, 0, 67, 69
2, 1439, Note_on_c, 0, 67, 0
2, 1440, Note_on_c, 0, 69, 69
2, 1463, Note_on_c, 0, 69, 0
2, 1464, Note_on_c, 0, 71, 69
2, 1487, Note_on_c, 0, 71, 0
2, 1488, Note_on_c, 0, 73, 69
2, 1511, Note_on_c, 0, 73, 0
2, 1512, Note_on_c, 0, 74, 69
2, 1535, Note_on_c, 0, 74, 0
2, 1536, Note_on_c, 0, 71, 69
2, 1559, Note_on_c, 0, 71, 0
2, 1560, Note_on_c, 0, 74, 69
2, 1583, Note_on_c, 0, 74, 0
2, 1584, Note_on_c, 0, 69, 69
2, 1607, Note_on_c, 0, 69, 0
2, 1608, Note_on_c, 0, 74, 69
2, 1631, Note_on_c, 0, 74, 0
2, 1632, Note_on_c, 0, 73, 69
2, 1655, Note_on_c, 0, 73, 0
2, 1656, Note_on_c, 0, 79, 69
2, 1679, Note_on_c, 0, 79, 0
2, 1680, Note_on_c, 0, 74, 69
2, 1703, Note_on_c, 0, 74, 0
2, 1704, Note_on_c, 0, 78, 69
2, 1727, Note_on_c, 0, 78, 0
2, 1728, Note_on_c, 0, 76, 69
2, 1728, Note_on_c, 0, 73, 69
2, 1817, Note_on_c, 0, 76, 0
2, 1817, Note_on_c, 0, 73, 0
2, 1920, Note_on_c, 0, 76, 69
2, 1987, Note_on_c, 0, 76, 0
2, 1992, Note_on_c, 0, 78, 69
2, 2015, Note_on_c, 0, 78, 0
2, 2016, Note_on_c, 0, 79, 70
2, 2061, Note_on_c, 0, 79, 0
2, 2064, Note_on_c, 0, 79, 70
2, 2109, Note_on_c, 0, 79, 0
2, 2112, Note_on_c, 0, 78, 71
2, 2157, Note_on_c, 0, 78, 0
2, 2304, Note_on_c, 0, 78, 73
2, 2371, Note_on_c, 0, 78, 0
2, 2376, Note_on_c, 0, 80, 74
2, 2399, Note_on_c, 0, 80, 0
2, 2400, Note_on_c, 0, 81, 74
2, 2445, Note_on_c, 0, 81, 0
2, 2448, Note_on_c, 0, 81, 74
2, 2493, Note_on_c, 0, 81, 0
2, 2496, Note_on_c, 0, 80, 75
2, 2541, Note_on_c, 0, 80, 0
2, 2712, Note_on_c, 0, 83, 76
2, 2735, Note_on_c, 0, 83, 0
2, 2736, Note_on_c, 0, 81, 76
2, 2759, Note_on_c, 0, 81, 0
2, 2760, Note_on_c, 0, 80, 76
2, 2783, Note_on_c, 0, 80, 0
2, 2784, Note_on_c, 0, 78, 76
2, 2807, Note_on_c, 0, 78, 0
2, 2808, Note_on_c, 0, 76, 76
2, 2831, Note_on_c, 0, 76, 0
2, 2832, Note_on_c, 0, 75, 76
2, 2855, Note_on_c, 0, 75, 0
2, 2856, Note_on_c, 0, 76, 76
2, 2879, Note_on_c, 0, 76, 0
2, 2904, Note_on_c, 0, 83, 76
2, 2927, Note_on_c, 0, 83, 0
2, 2928, Note_on_c, 0, 81, 76
2, 2951, Note_on_c, 0, 81, 0
2, 2952, Note_on_c, 0, 80, 76
2, 2975, Note_on_c, 0, 80, 0
2, 2976, Note_on_c, 0, 78, 76
2, 2999, Note_on_c, 0, 78, 0
2, 3000, Note_on_c, 0, 76, 76
2, 3023, Note_on_c, 0, 76, 0
2, 3024, Note_on_c, 0, 75, 76
2, 3047, Note_on_c, 0, 75, 0
2, 3048, Note_on_c, 0, 76, 76
2, 3071, Note_on_c, 0, 76, 0
2, 3096, Note_on_c, 0, 86, 76
2, 3119, Note_on_c, 0, 86, 0
2, 3120, Note_on_c, 0, 85, 76
2, 3143, Note_on_c, 0, 85, 0
2, 3144, Note_on_c, 0, 83, 76
2, 3167, Note_on_c, 0, 83, 0
2, 3168, Note_on_c, 0, 81, 76
2, 3191, Note_on_c, 0, 81, 0
2, 3192, Note_on_c, 0, 80, 76
2, 3215, Note_on_c, 0, 80, 0
2, 3216, Note_on_c, 0, 78, 76
2, 3239, Note_on_c, 0, 78, 0
2, 3240, Note_on_c, 0, 76, 76
2, 3263, Note_on_c, 0, 76, 0
2, 3264, Note_on_c, 0, 74, 76
2, 3360, Note_on_c, 0, 74, 0
2, 3360, Note_on_c, 0, 73, 76
2, 3449, Note_on_c, 0, 73, 0
2, 3480, Note_on_c, 0, 78, 76
2, 3503, Note_on_c, 0, 78, 0
2, 3504, Note_on_c, 0, 80, 76
2, 3527, Note_on_c, 0, 80, 0
2, 3528, Note_on_c, 0, 81, 76
2, 3551, Note_on_c, 0, 81, 0
2, 3576, Note_on_c, 0, 76, 76
2, 3599, Note_on_c, 0, 76, 0
2, 3600, Note_on_c, 0, 80, 76
2, 3623, Note_on_c, 0, 80, 0
2, 3624, Note_on_c, 0, 81, 76
2, 3647, Note_on_c, 0, 81, 0
2, 3648, Note_on_c, 0, 74, 76
2, 3671, Note_on_c, 0, 74, 0
2, 3672, Note_on_c, 0, 78, 76
2, 3695, Note_on_c, 0, 78, 0
2, 3696, Note_on_c, 0, 76, 76
2, 3719, Note_on_c, 0, 76, 0
2, 3720, Note_on_c, 0, 74, 76
2, 3743, Note_on_c, 0, 74, 0
2, 3744, Note_on_c, 0, 74, 76
2, 3767, Note_on_c, 0, 74, 0
2, 3768, Note_on_c, 0, 73, 76
2, 3791, Note_on_c, 0, 73, 0
2, 3792, Note_on_c, 0, 71, 76
2, 3815, Note_on_c, 0, 71, 0
2, 3816, Note_on_c, 0, 69, 76
2, 3839, Note_on_c, 0, 69, 0
2, 3864, Note_on_c, 0, 78, 61
2, 3887, Note_on_c, 0, 78, 0
2, 3888, Note_on_c, 0, 80, 61
2, 3911, Note_on_c, 0, 80, 0
2, 3912, Note_on_c, 0, 81, 61
2, 3935, Note_on_c, 0, 81, 0
2, 3960, Note_on_c, 0, 76, 61
2, 3983, Note_on_c, 0, 76, 0
2, 3984, Note_on_c, 0, 80, 61
2, 4007, Note_on_c, 0, 80, 0
2, 4008, Note_on_c, 0, 81, 61
2, 4031, Note_on_c, 0, 81, 0
2, 4032, Note_on_c, 0, 74, 61
2, 4055, Note_on_c, 0, 74, 0
2, 4056, Note_on_c, 0, 78, 61
2, 4079, Note_on_c, 0, 78, 0
2, 4080, Note_on_c, 0, 76, 61
2, 4103, Note_on_c, 0, 76, 0
2, 4104, Note_on_c, 0, 74, 61
2, 4127, Note_on_c, 0, 74, 0
2, 4128, Note_on_c, 0, 74, 61
2, 4151, Note_on_c, 0, 74, 0
2, 4152, Note_on_c, 0, 73, 68
2, 4175, Note_on_c, 0, 73, 0
2, 4176, Note_on_c, 0, 71, 75
2, 4199, Note_on_c, 0, 71, 0
2, 4200, Note_on_c, 0, 69, 82
2, 4223, Note_on_c, 0, 69, 0
2, 4224, Control_c, 0, 64, 127
2, 4248, Note_on_c, 0, 69, 89
2, 4271, Note_on_c, 0, 69, 0
2, 4272, Note_on_c, 0, 75, 89
2, 4295, Note_on_c, 0, 75, 0
2, 4296, Note_on_c, 0, 69, 89
2, 4319, Note_on_c, 0, 69, 0
2, 4320, Note_on_c, 0, 81, 89
2, 4343, Note_on_c, 0, 81, 0
2, 4344, Note_on_c, 0, 69, 89
2, 4367, Note_on_c, 0, 69, 0
2, 4368, Note_on_c, 0, 75, 89
2, 4391, Note_on_c, 0, 75, 0
2, 4392, Note_on_c, 0, 69, 89
2, 4415, Note_on_c, 0, 69, 0
2, 4440, Note_on_c, 0, 69, 89
2, 4463, Note_on_c, 0, 69, 0
2, 4464, Note_on_c, 0, 75, 89
2, 4487, Note_on_c, 0, 75, 0
2, 4488, Note_on_c, 0, 69, 89
2, 4511, Note_on_c, 0, 69, 0
2, 4512, Note_on_c, 0, 81, 89
2, 4535, Note_on_c, 0, 81, 0
2, 4536, Note_on_c, 0, 69, 89
2, 4559, Note_on_c, 0, 69, 0
2, 4560, Note_on_c, 0, 75, 89
2, 4583, Note_on_c, 0, 75, 0
2, 4584, Control_c, 0, 64, 0
2, 4584, Note_on_c, 0, 69, 89
2, 4607, Note_on_c, 0, 69, 0
2, 4608, Control_c, 0, 64, 127
2, 4632, Note_on_c, 0, 71, 89
2, 4655, Note_on_c, 0, 71, 0
2, 4656, Note_on_c, 0, 78, 89
2, 4679, Note_on_c, 0, 78, 0
2, 4680, Note_on_c, 0, 71, 89
2, 4703, Note_on_c, 0, 71, 0
2, 4704, Note_on_c, 0, 81, 89
2, 4727, Note_on_c, 0, 81, 0
2, 4728, Note_on_c, 0, 71, 89
2, 4751, Note_on_c, 0, 71, 0
2, 4752, Note_on_c, 0, 78, 89
2, 4775, Note_on_c, 0, 78, 0
2, 4776, Control_c, 0, 64, 0
2, 4776, Note_on_c, 0, 71, 89
2, 4799, Note_on_c, 0, 71, 0
2, 4800, Control_c, 0, 64, 127
2, 4824, Note_on_c, 0, 74, 89
2, 4847, Note_on_c, 0, 74, 0
2, 4848, Note_on_c, 0, 76, 89
2, 4871, Note_on_c, 0, 76, 0
2, 4872, Note_on_c, 0, 74, 89
2, 4895, Note_on_c, 0, 74, 0
2, 4896, Note_on_c, 0, 83, 89
2, 4919, Note_on_c, 0, 83, 0
2, 4920, Note_on_c, 0, 74, 89
2, 4943, Note_on_c, 0, 74, 0
2, 4944, Note_on_c, 0, 76, 89
2, 4967, Note_on_c, 0, 76, 0
2, 4968, Control_c, 0, 64, 0
2, 4968, Note_on_c, 0, 74, 89
2, 4991, Note_on_c, 0, 74, 0
2, 4992, Control_c, 0, 64, 127
2, 5016, Note_on_c, 0, 74, 89
2, 5039, Note_on_c, 0, 74, 0
2, 5040, Note_on_c, 0, 80, 89
2, 5063, Note_on_c, 0, 80, 0
2, 5064, Note_on_c, 0, 74, 89
2, 5087, Note_on_c, 0, 74, 0
2, 5088, Note_on_c, 0, 83, 89
2, 5111, Note_on_c, 0, 83, 0
2, 5112, Note_on_c, 0, 74, 89
2, 5135, Note_on_c, 0, 74, 0
2, 5136, Note_on_c, 0, 80, 89
2, 5159, Note_on_c, 0, 80, 0
2, 5160, Control_c, 0, 64, 0
2, 5160, Note_on_c, 0, 74, 89
2, 5183, Note_on_c, 0, 74, 0
2, 5184, Control_c, 0, 64, 127
2, 5208, Note_on_c, 0, 73, 89
2, 5231, Note_on_c, 0, 73, 0
2, 5232, Note_on_c, 0, 81, 89
2, 5255, Note_on_c, 0, 81, 0
2, 5256, Note_on_c, 0, 73, 89
2, 5279, Note_on_c, 0, 73, 0
2, 5304, Note_on_c, 0, 71, 89
2, 5327, Note_on_c, 0, 71, 0
2, 5328, Note_on_c, 0, 81, 89
2, 5351, Note_on_c, 0, 81, 0
2, 5352, Control_c, 0, 64, 0
2, 5352, Note_on_c, 0, 71, 89
2, 5375, Note_on_c, 0, 71, 0
2, 5376, Control_c, 0, 64, 127
2, 5400, Note_on_c, 0, 71, 89
2, 5423, Note_on_c, 0, 71, 0
2, 5424, Note_on_c, 0, 80, 89
2, 5447, Note_on_c, 0, 80, 0
2, 5448, Note_on_c, 0, 71, 89
2, 5471, Note_on_c, 0, 71, 0
2, 5496, Note_on_c, 0, 74, 89
2, 5519, Note_on_c, 0, 74, 0
2, 5520, Note_on_c, 0, 83, 89
2, 5543, Note_on_c, 0, 83, 0
2, 5544, Control_c, 0, 64, 0
2, 5544, Note_on_c, 0, 74, 89
2, 5567, Note_on_c, 0, 74, 0
2, 5568, Control_c, 0, 64, 127
2, 5592, Note_on_c, 0, 73, 89
2, 5615, Note_on_c, 0, 73, 0
2, 5616, Note_on_c, 0, 81, 89
2, 5639, Note_on_c, 0, 81, 0
2, 5640, Note_on_c, 0, 73, 89
2, 5663, Note_on_c, 0, 73, 0
2, 5688, Note_on_c, 0, 73, 89
2, 5711, Note_on_c, 0, 73, 0
2, 5712, Note_on_c, 0, 81, 89
2, 5735, Note_on_c, 0, 81, 0
2, 5736, Control_c, 0, 64, 0
2, 5736, Note_on_c, 0, 73, 89
2, 5759, Note_on_c, 0, 73, 0
2, 5760, Note_on_c, 0, 80, 89
2, 5760, Note_on_c, 0, 71, 89
2, 5849, Note_on_c, 0, 80, 0
2, 5849, Note_on_c, 0, 71, 0
2, 5952, Note_on_c, 0, 73, 69
2, 5952, Note_on_c, 0, 69, 69
2, 6019, Note_on_c, 0, 73, 0
2, 6019, Note_on_c, 0, 69, 0
2, 6024, Note_on_c, 0, 74, 69
2, 6024, Note_on_c, 0, 71, 69
2, 6047, Note_on_c, 0, 74, 0
2, 6047, Note_on_c, 0, 71, 0
2, 6048, Note_on_c, 0, 76, 69
2, 6048, Note_on_c, 0, 73, 69
2, 6093, Note_on_c, 0, 76, 0
2, 6093, Note_on_c, 0, 73, 0
2, 6096, Note_on_c, 0, 74, 69
2, 6096, Note_on_c, 0, 71, 69
2, 6141, Note_on_c, 0, 74, 0
2, 6141, Note_on_c, 0, 71, 0
2, 6144, Note_on_c, 0, 73, 69
2, 6144, Note_on_c, 0, 69, 69
2, 6238, Note_on_c, 0, 73, 0
2, 6238, Note_on_c, 0, 69, 0
2, 6336, Note_on_c, 0, 73, 61
2, 6336, Note_on_c, 0, 69, 61
2, 6403, Note_on_c, 0, 73, 0
2, 6403, Note_on_c, 0, 69, 0
2, 6408, Note_on_c, 0, 74, 61
2, 6408, Note_on_c, 0, 71, 61
2, 6431, Note_on_c, 0, 74, 0
2, 6431, Note_on_c, 0, 71, 0
2, 6432, Note_on_c, 0, 76, 61
2, 6432, Note_on_c, 0, 73, 61
2, 6477, Note_on_c, 0, 76, 0
2, 6477, Note_on_c, 0, 73, 0
2, 6480, Note_on_c, 0, 74, 61
2, 6480, Note_on_c, 0, 71, 61
2, 6525, Note_on_c, 0, 74, 0
2, 6525, Note_on_c, 0, 71, 0
2, 6528, Note_on_c, 0, 73, 61
2, 6528, Note_on_c, 0, 69, 61
2, 6622, Note_on_c, 0, 73, 0
2, 6622, Note_on_c, 0, 69, 0
2, 6720, Note_on_c, 0, 73, 69
2, 6720, Note_on_c, 0, 69, 69
2, 6787, Note_on_c, 0, 73, 0
2, 6787, Note_on_c, 0, 69, 0
2, 6792, Note_on_c, 0, 74, 69
2, 6792, Note_on_c, 0, 71, 69
2, 6815, Note_on_c, 0, 74, 0
2, 6815, Note_on_c, 0, 71, 0
2, 6816, Note_on_c, 0, 76, 69
2, 6816, Note_on_c, 0, 73, 69
2, 6861, Note_on_c, 0, 76, 0
2, 6861, Note_on_c, 0, 73, 0
2, 6864, Note_on_c, 0, 74, 69
2, 6864, Note_on_c, 0, 71, 69
2, 6909, Note_on_c, 0, 74, 0
2, 6909, Note_on_c, 0, 71, 0
2, 6912, Note_on_c, 0, 73, 69
2, 6912, Note_on_c, 0, 69, 69
2, 6957, Note_on_c, 0, 73, 0
2, 6957, Note_on_c, 0, 69, 0
2, 6960, Note_on_c, 0, 81, 70
2, 7005, Note_on_c, 0, 81, 0
2, 7008, Note_on_c, 0, 80, 72
2, 7031, Note_on_c, 0, 80, 0
2, 7032, Note_on_c, 0, 78, 72
2, 7055, Note_on_c, 0, 78, 0
2, 7056, Note_on_c, 0, 76, 73
2, 7079, Note_on_c, 0, 76, 0
2, 7080, Note_on_c, 0, 74, 74
2, 7103, Note_on_c, 0, 74, 0
2, 7104, Note_on_c, 0, 74, 75
2, 7127, Note_on_c, 0, 74, 0
2, 7128, Note_on_c, 0, 73, 76
2, 7151, Note_on_c, 0, 73, 0
2, 7152, Note_on_c, 0, 71, 75
2, 7175, Note_on_c, 0, 71, 0
2, 7176, Note_on_c, 0, 69, 74
2, 7199, Note_on_c, 0, 69, 0
2, 7200, Note_on_c, 0, 73, 73
2, 7215, Note_on_c, 0, 73, 0
2, 7216, Note_on_c, 0, 71, 72
2, 7231, Note_on_c, 0, 71, 0
2, 7232, Note_on_c, 0, 73, 72
2, 7247, Note_on_c, 0, 73, 0
2, 7248, Note_on_c, 0, 71, 71
2, 7263, Note_on_c, 0, 71, 0
2, 7264, Note_on_c, 0, 69, 71
2, 7279, Note_on_c, 0, 69, 0
2, 7280, Note_on_c, 0, 71, 70
2, 7295, Note_on_c, 0, 71, 0
2, 7296, Note_on_c, 0, 69, 69
2, 7385, Note_on_c, 0, 69, 0
2, 7392, Note_on_c, 0, 76, 76
2, 7415, Note_on_c, 0, 76, 0
2, 7416, Note_on_c, 0, 73, 76
2, 7439, Note_on_c, 0, 73, 0
2, 7440, Note_on_c, 0, 69, 76
2, 7463, Note_on_c, 0, 69, 0
2, 7464, Note_on_c, 0, 64, 76
2, 7487, Note_on_c, 0, 64, 0
2, 7488, Note_on_c, 0, 65, 76
2, 7536, Note_on_c, 0, 65, 0
2, 7536, Note_on_c, 0, 66, 76
2, 7581, Note_on_c, 0, 66, 0
2, 7584, Note_on_c, 0, 74, 76
2, 7607, Note_on_c, 0, 74, 0
2, 7608, Note_on_c, 0, 71, 76
2, 7631, Note_on_c, 0, 71, 0
2, 7632, Note_on_c, 0, 68, 76
2, 7655, Note_on_c, 0, 68, 0
2, 7656, Note_on_c, 0, 64, 76
2, 7679, Note_on_c, 0, 64, 0
2, 7680, Note_on_c, 0, 68, 76
2, 7728, Note_on_c, 0, 68, 0
2, 7728, Note_on_c, 0, 69, 76
2, 7773, Note_on_c, 0, 69, 0
2, 7776, Note_on_c, 0, 76, 69
2, 7799, Note_on_c, 0, 76, 0
2, 7800, Note_on_c, 0, 73, 69
2, 7823, Note_on_c, 0, 73, 0
2, 7824, Note_on_c, 0, 69, 69
2, 7847, Note_on_c, 0, 69, 0
2, 7848, Note_on_c, 0, 64, 69
2, 7871, Note_on_c, 0, 64, 0
2, 7872, Note_on_c, 0, 65, 69
2, 7920, Note_on_c, 0, 65, 0
2, 7920, Note_on_c, 0, 66, 69
2, 7965, Note_on_c, 0, 66, 0
2, 7968, Note_on_c, 0, 74, 69
2, 7991, Note_on_c, 0, 74, 0
2, 7992, Note_on_c, 0, 71, 69
2, 8015, Note_on_c, 0, 71, 0
2, 8016, Note_on_c, 0, 68, 69
2, 8039, Note_on_c, 0, 68, 0
2, 8040, Note_on_c, 0, 64, 69
2, 8063, Note_on_c, 0, 64, 0
2, 8064, Note_on_c, 0, 68, 69
2, 8112, Note_on_c, 0, 68, 0
2, 8112, Note_on_c, 0, 69, 65
2, 8157, Note_on_c, 0, 69, 0
2, 8256, Note_on_c, 0, 78, 69
2, 8256, Note_on_c, 0, 74, 69
2, 8323, Note_on_c, 0, 78, 0
2, 8323, Note_on_c, 0, 74, 0
2, 8328, Note_on_c, 0, 79, 69
2, 8328, Note_on_c, 0, 76, 69
2, 8351, Note_on_c, 0, 79, 0
2, 8351, Note_on_c, 0, 76, 0
2, 8352, Note_on_c, 0, 81, 69
2, 8352, Note_on_c, 0, 78, 69
2, 8397, Note_on_c, 0, 81, 0
2, 8397, Note_on_c, 0, 78, 0
2, 8400, Note_on_c, 0, 79, 69
2, 8400, Note_on_c, 0, 76, 69
2, 8445, Note_on_c, 0, 79, 0
2, 8445, Note_on_c, 0, 76, 0
2, 8448, Note_on_c, 0, 78, 69
2, 8448, Note_on_c, 0, 74, 69
2, 8542, Note_on_c, 0, 78, 0
2, 8542, Note_on_c, 0, 74, 0
2, 8640, Note_on_c, 0, 76, 69
2, 8663, Note_on_c, 0, 76, 0
2, 8664, Note_on_c, 0, 75, 69
2, 8687, Note_on_c, 0, 75, 0
2, 8688, Note_on_c, 0, 76, 69
2, 8711, Note_on_c, 0, 76, 0
2, 8712, Note_on_c, 0, 78, 69
2, 8735, Note_on_c, 0, 78, 0
2, 8736, Note_on_c, 0, 79, 69
2, 8759, Note_on_c, 0, 79, 0
2, 8760, Note_on_c, 0, 81, 69
2, 8783, Note_on_c, 0, 81, 0
2, 8784, Note_on_c, 0, 83, 69
2, 8807, Note_on_c, 0, 83, 0
2, 8808, Note_on_c, 0, 79, 69
2, 8831, Note_on_c, 0, 79, 0
2, 8832, Note_on_c, 0, 81, 69
2, 8855, Note_on_c, 0, 81, 0
2, 8856, Note_on_c, 0, 78, 69
2, 8879, Note_on_c, 0, 78, 0
2, 8880, Note_on_c, 0, 76, 69
2, 8903, Note_on_c, 0, 76, 0
2, 8904, Note_on_c, 0, 74, 69
2, 8927, Note_on_c, 0, 74, 0
2, 8928, Note_on_c, 0, 81, 69
2, 8943, Note_on_c, 0, 81, 0
2, 8944, Note_on_c, 0, 79, 69
2, 8959, Note_on_c, 0, 79, 0
2, 8960, Note_on_c, 0, 81, 69
2, 8975, Note_on_c, 0, 81, 0
2, 8976, Note_on_c, 0, 79, 69
2, 8991, Note_on_c, 0, 79, 0
2, 8992, Note_on_c, 0, 78, 69
2, 9007, Note_on_c, 0, 78, 0
2, 9008, Note_on_c, 0, 79, 69
2, 9023, Note_on_c, 0, 79, 0
2, 9024, Note_on_c, 0, 78, 69
2, 9113, Note_on_c, 0, 78, 0
2, 9216, Note_on_c, 0, 66, 69
2, 9216, Note_on_c, 0, 62, 69
2, 9283, Note_on_c, 0, 66, 0
2, 9283, Note_on_c, 0, 62, 0
2, 9288, Note_on_c, 0, 67, 69
2, 9288, Note_on_c, 0, 64, 69
2, 9311, Note_on_c, 0, 67, 0
2, 9311, Note_on_c, 0, 64, 0
2, 9312, Note_on_c, 0, 69, 69
2, 9312, Note_on_c, 0, 66, 69
2, 9357, Note_on_c, 0, 69, 0
2, 9357, Note_on_c, 0, 66, 0
2, 9360, Note_on_c, 0, 67, 69
2, 9360, Note_on_c, 0, 64, 69
2, 9405, Note_on_c, 0, 67, 0
2, 9405, Note_on_c, 0, 64, 0
2, 9408, Note_on_c, 0, 66, 69
2, 9408, Note_on_c, 0, 62, 69
2, 9502, Note_on_c, 0, 66, 0
2, 9502, Note_on_c, 0, 62, 0
2, 9600, Note_on_c, 0, 62, 69
2, 9623, Note_on_c, 0, 62, 0
2, 9624, Note_on_c, 0, 64, 69
2, 9647, Note_on_c, 0, 64, 0
2, 9648, Note_on_c, 0, 66, 69
2, 9671, Note_on_c, 0, 66, 0
2, 9672, Note_on_c, 0, 67, 69
2, 9695, Note_on_c, 0, 67, 0
2, 9696, Note_on_c, 0, 69, 69
2, 9719, Note_on_c, 0, 69, 0
2, 9720, Note_on_c, 0, 71, 69
2, 9743, Note_on_c, 0, 71, 0
2, 9744, Note_on_c, 0, 73, 69
2, 9767, Note_on_c, 0, 73, 0
2, 9768, Note_on_c, 0, 74, 69
2, 9791, Note_on_c, 0, 74, 0
2, 9792, Note_on_c, 0, 71, 69
2, 9815, Note_on_c, 0, 71, 0
2, 9816, Note_on_c, 0, 74, 69
2, 9839, Note_on_c, 0, 74, 0
2, 9840, Note_on_c, 0, 69, 69
2, 9863, Note_on_c, 0, 69, 0
2, 9864, Note_on_c, 0, 74, 69
2, 9887, Note_on_c, 0, 74, 0
2, 9888, Note_on_c, 0, 73, 69
2, 9911, Note_on_c, 0, 73, 0
2, 9912, Note_on_c, 0, 79, 69
2, 9935, Note_on_c, 0, 79, 0
2, 9936, Note_on_c, 0, 74, 69
2, 9959, Note_on_c, 0, 74, 0
2, 9960, Note_on_c, 0, 78, 69
2, 9983, Note_on_c, 0, 78, 0
2, 9984, Note_on_c, 0, 76, 69
2, 9984, Note_on_c, 0, 73, 69
2, 10073, Note_on_c, 0, 76, 0
2, 10073, Note_on_c, 0, 73, 0
2, 10176, Note_on_c, 0, 76, 69
2, 10243, Note_on_c, 0, 76, 0
2, 10248, Note_on_c, 0, 78, 69
2, 10271, Note_on_c, 0, 78, 0
2, 10272, Note_on_c, 0, 79, 70
2, 10317, Note_on_c, 0, 79, 0
2, 10320, Note_on_c, 0, 79, 70
2, 10365, Note_on_c, 0, 79, 0
2, 10368, Note_on_c, 0, 78, 71
2, 10413, Note_on_c, 0, 78, 0
2, 10560, Note_on_c, 0, 78, 73
2, 10627, Note_on_c, 0, 78, 0
2, 10632, Note_on_c, 0, 80, 74
2, 10655, Note_on_c, 0, 80, 0
2, 10656, Note_on_c, 0, 81, 74
2, 10701, Note_on_c, 0, 81, 0
2, 10704, Note_on_c, 0, 81, 74
2, 10749, Note_on_c, 0, 81, 0
2, 10752, Note_on_c, 0, 80, 75
2, 10797, Note_on_c, 0, 80, 0
2, 10968, Note_on_c, 0, 83, 76
2, 10991, Note_on_c, 0, 83, 0
2, 10992, Note_on_c, 0, 81, 76
2, 11015, Note_on_c, 0, 81, 0
2, 11016, Note_on_c, 0, 80, 76
2, 11039, Note_on_c, 0, 80, 0
2, 11040, Note_on_c, 0, 78, 76
2, 11063, Note_on_c, 0, 78, 0
2, 11064, Note_on_c, 0, 76, 76
2, 11087, Note_on_c, 0, 76, 0
2, 11088, Note_on_c, 0, 75, 76
2, 11111, Note_on_c, 0, 75, 0
2, 11112, Note_on_c, 0, 76, 76
2, 11135, Note_on_c, 0, 76, 0
2, 11160, Note_on_c, 0, 83, 76
2, 11183, Note_on_c, 0, 83, 0
2, 11184, Note_on_c, 0, 81, 76
2, 11207, Note_on_c, 0, 81, 0
2, 11208, Note_on_c, 0, 80, 76
2, 11231, Note_on_c, 0, 80, 0
2, 11232, Note_on_c, 0, 78, 76
2, 11255, Note_on_c, 0, 78, 0
2, 11256, Note_on_c, 0, 76, 76
2, 11279, Note_on_c, 0, 76, 0
2, 11280, Note_on_c, 0, 75, 76
2, 11303, Note_on_c, 0, 75, 0
2, 11304, Note_on_c, 0, 76, 76
2, 11327, Note_on_c, 0, 76, 0
2, 11352, Note_on_c, 0, 86, 76
2, 11375, Note_on_c, 0, 86, 0
2, 11376, Note_on_c, 0, 85, 76
2, 11399, Note_on_c, 0, 85, 0
2, 11400, Note_on_c, 0, 83, 76
2, 11423, Note_on_c, 0, 83, 0
2, 11424, Note_on_c, 0, 81, 76
2, 11447, Note_on_c, 0, 81, 0
2, 11448, Note_on_c, 0, 80, 76
2, 11471, Note_on_c, 0, 80, 0
2, 11472, Note_on_c, 0, 78, 76
2, 11495, Note_on_c, 0, 78, 0
2, 11496, Note_on_c, 0, 76, 76
2, 11519, Note_on_c, 0, 76, 0
2, 11520, Note_on_c, 0, 74, 76
2, 11616, Note_on_c, 0, 74, 0
2, 11616, Note_on_c, 0, 73, 76
2, 11705, Note_on_c, 0, 73, 0
2, 11736, Note_on_c, 0, 78, 76
2, 11759, Note_on_c, 0, 78, 0
2, 11760, Note_on_c, 0, 80, 76
2, 11783, Note_on_c, 0, 80, 0
2, 11784, Note_on_c, 0, 81, 76
2, 11807, Note_on_c, 0, 81, 0
2, 11832, Note_on_c, 0, 76, 76
2, 11855, Note_on_c, 0, 76, 0
2, 11856, Note_on_c, 0, 80, 76
2, 11879, Note_on_c, 0, 80, 0
2, 11880, Note_on_c, 0, 81, 76
2, 11903, Note_on_c, 0, 81, 0
2, 11904, Note_on_c, 0, 74, 76
2, 11927, Note_on_c, 0, 74, 0
2, 11928, Note_on_c, 0, 78, 76
2, 11951, Note_on_c, 0, 78, 0
2, 11952, Note_on_c, 0, 76, 76
2, 11975, Note_on_c, 0, 76, 0
2, 11976, Note_on_c, 0, 74, 76
2, 11999, Note_on_c, 0, 74, 0
2, 12000, Note_on_c, 0, 74, 76
2, 12023, Note_on_c, 0, 74, 0
2, 12024, Note_on_c, 0, 73, 76
2, 12047, Note_on_c, 0, 73, 0
2, 12048, Note_on_c, 0, 71, 76
2, 12071, Note_on_c, 0, 71, 0
2, 12072, Note_on_c, 0, 69, 76
2, 12095, Note_on_c, 0, 69, 0
2, 12120, Note_on_c, 0, 78, 61
2, 12143, Note_on_c, 0, 78, 0
2, 12144, Note_on_c, 0, 80, 61
2, 12167, Note_on_c, 0, 80, 0
2, 12168, Note_on_c, 0, 81, 61
2, 12191, Note_on_c, 0, 81, 0
2, 12216, Note_on_c, 0, 76, 61
2, 12239, Note_on_c, 0, 76, 0
2, 12240, Note_on_c, 0, 80, 61
2, 12263, Note_on_c, 0, 80, 0
2, 12264, Note_on_c, 0, 81, 61
2, 12287, Note_on_c, 0, 81, 0
2, 12288, Note_on_c, 0, 74, 61
2, 12311, Note_on_c, 0, 74, 0
2, 12312, Note_on_c, 0, 78, 61
2, 12335, Note_on_c, 0, 78, 0
2, 12336, Note_on_c, 0, 76, 61
2, 12359, Note_on_c, 0, 76, 0
2, 12360, Note_on_c, 0, 74, 61
2, 12383, Note_on_c, 0, 74, 0
2, 12384, Note_on_c, 0, 74, 61
2, 12407, Note_on_c, 0, 74, 0
2, 12408, Note_on_c, 0, 73, 68
2, 12431, Note_on_c, 0, 73, 0
2, 12432, Note_on_c, 0, 71, 75
2, 12455, Note_on_c, 0, 71, 0
2, 12456, Note_on_c, 0, 69, 82
2, 12479, Note_on_c, 0, 69, 0
2, 12480, Control_c, 0, 64, 127
2, 12504, Note_on_c, 0, 69, 89
2, 12527, Note_on_c, 0, 69, 0
2, 12528, Note_on_c, 0, 75, 89
2, 12551, Note_on_c, 0, 75, 0
2, 12552, Note_on_c, 0, 69, 89
2, 12575, Note_on_c, 0, 69, 0
2, 12576, Note_on_c, 0, 81, 89
2, 12599, Note_on_c, 0, 81, 0
2, 12600, Note_on_c, 0, 69, 89
2, 12623, Note_on_c, 0, 69, 0
2, 12624, Note_on_c, 0, 75, 89
2, 12647, Note_on_c, 0, 75, 0
2, 12648, Note_on_c, 0, 69, 89
2, 12671, Note_on_c, 0, 69, 0
2, 12696, Note_on_c, 0, 69, 89
2, 12719, Note_on_c, 0, 69, 0
2, 12720, Note_on_c, 0, 75, 89
2, 12743, Note_on_c, 0, 75, 0
2, 12744, Note_on_c, 0, 69, 89
2, 12767, Note_on_c, 0, 69, 0
2, 12768, Note_on_c, 0, 81, 89
2, 12791, Note_on_c, 0, 81, 0
2, 12792, Note_on_c, 0, 69, 89
2, 12815, Note_on_c, 0, 69, 0
2, 12816, Note_on_c, 0, 75, 89
2, 12839, Note_on_c, 0, 75, 0
2, 12840, Control_c, 0, 64, 0
2, 12840, Note_on_c, 0, 69, 89
2, 12863, Note_on_c, 0, 69, 0
2, 12864, Control_c, 0, 64, 127
2, 12888, Note_on_c, 0, 71, 89
2, 12911, Note_on_c, 0, 71, 0
2, 12912, Note_on_c, 0, 78, 89
2, 12935, Note_on_c, 0, 78, 0
2, 12936, Note_on_c, 0, 71, 89
2, 12959, Note_on_c, 0, 71, 0
2, 12960, Note_on_c, 0, 81, 89
2, 12983, Note_on_c, 0, 81, 0
2, 12984, Note_on_c, 0, 71, 89
2, 13007, Note_on_c, 0, 71, 0
2, 13008, Note_on_c, 0, 78, 89
2, 13031, Note_on_c, 0, 78, 0
2, 13032, Control_c, 0, 64, 0
2, 13032, Note_on_c, 0, 71, 89
2, 13055, Note_on_c, 0, 71, 0
2, 13056, Control_c, 0, 64, 127
2, 13080, Note_on_c, 0, 74, 89
2, 13103, Note_on_c, 0, 74, 0
2, 13104, Note_on_c, 0, 76, 89
2, 13127, Note_on_c, 0, 76, 0
2, 13128, Note_on_c, 0, 74, 89
2, 13151, Note_on_c, 0, 74, 0
2, 13152, Note_on_c, 0, 83, 89
2, 13175, Note_on_c, 0, 83, 0
2, 13176, Note_on_c, 0, 74, 89
2, 13199, Note_on_c, 0, 74, 0
2, 13200, Note_on_c, 0, 76, 89
2, 13223, Note_on_c, 0, 76, 0
2, 13224, Control_c, 0, 64, 0
2, 13224, Note_on_c, 0, 74, 89
2, 13247, Note_on_c, 0, 74, 0
2, 13248, Control_c, 0, 64, 127
2, 13272, Note_on_c, 0, 74, 89
2, 13295, Note_on_c, 0, 74, 0
2, 13296, Note_on_c, 0, 80, 89
2, 13319, Note_on_c, 0, 80, 0
2, 13320, Note_on_c, 0, 74, 89
2, 13343, Note_on_c, 0, 74, 0
2, 13344, Note_on_c, 0, 83, 89
2, 13367, Note_on_c, 0, 83, 0
2, 13368, Note_on_c, 0, 74, 89
2, 13391, Note_on_c, 0, 74, 0
2, 13392, Note_on_c, 0, 80, 89
2, 13415, Note_on_c, 0, 80, 0
2, 13416, Control_c, 0, 64, 0
2, 13416, Note_on_c, 0, 74, 89
2, 13439, Note_on_c, 0, 74, 0
2, 13440, Control_c, 0, 64, 127
2, 13464, Note_on_c, 0, 73, 89
2, 13487, Note_on_c, 0, 73, 0
2, 13488, Note_on_c, 0, 81, 89
2, 13511, Note_on_c, 0, 81, 0
2, 13512, Note_on_c, 0, 73, 89
2, 13535, Note_on_c, 0, 73, 0
2, 13560, Note_on_c, 0, 71, 89
2, 13583, Note_on_c, 0, 71, 0
2, 13584, Note_on_c, 0, 81, 89
2, 13607, Note_on_c, 0, 81, 0
2, 13608, Control_c, 0, 64, 0
2, 13608, Note_on_c, 0, 71, 89
2, 13631, Note_on_c, 0, 71, 0
2, 13632, Control_c, 0, 64, 127
2, 13656, Note_on_c, 0, 71, 89
2, 13679, Note_on_c, 0, 71, 0
2, 13680, Note_on_c, 0, 80, 89
2, 13703, Note_on_c, 0, 80, 0
2, 13704, Note_on_c, 0, 71, 89
2, 13727, Note_on_c, 0, 71, 0
2, 13752, Note_on_c, 0, 74, 89
2, 13775, Note_on_c, 0, 74, 0
2, 13776, Note_on_c, 0, 83, 89
2, 13799, Note_on_c, 0, 83, 0
2, 13800, Control_c, 0, 64, 0
2, 13800, Note_on_c, 0, 74, 89
2, 13823, Note_on_c, 0, 74, 0
2, 13824, Control_c, 0, 64, 127
2, 13848, Note_on_c, 0, 73, 89
2, 13871, Note_on_c, 0, 73, 0
2, 13872, Note_on_c, 0, 81, 89
2, 13895, Note_on_c, 0, 81, 0
2, 13896, Note_on_c, 0, 73, 89
2, 13919, Note_on_c, 0, 73, 0
2, 13944, Note_on_c, 0, 73, 89
2, 13967, Note_on_c, 0, 73, 0
2, 13968, Note_on_c, 0, 81, 89
2, 13991, Note_on_c, 0, 81, 0
2, 13992, Control_c, 0, 64, 0
2, 13992, Note_on_c, 0, 73, 89
2, 14015, Note_on_c, 0, 73, 0
2, 14016, Note_on_c, 0, 80, 89
2, 14016, Note_on_c, 0, 71, 89
2, 14105, Note_on_c, 0, 80, 0
2, 14105, Note_on_c, 0, 71, 0
2, 14208, Note_on_c, 0, 73, 69
2, 14208, Note_on_c, 0, 69, 69
2, 14275, Note_on_c, 0, 73, 0
2, 14275, Note_on_c, 0, 69, 0
2, 14280, Note_on_c, 0, 74, 69
2, 14280, Note_on_c, 0, 71, 69
2, 14303, Note_on_c, 0, 74, 0
2, 14303, Note_on_c, 0, 71, 0
2, 14304, Note_on_c, 0, 76, 69
2, 14304, Note_on_c, 0, 73, 69
2, 14349, Note_on_c, 0, 76, 0
2, 14349, Note_on_c, 0, 73, 0
2, 14352, Note_on_c, 0, 74, 69
2, 14352, Note_on_c, 0, 71, 69
2, 14397, Note_on_c, 0, 74, 0
2, 14397, Note_on_c, 0, 71, 0
2, 14400, Note_on_c, 0, 73, 69
2, 14400, Note_on_c, 0, 69, 69
2, 14494, Note_on_c, 0, 73, 0
2, 14494, Note_on_c, 0, 69, 0
2, 14592, Note_on_c, 0, 73, 61
2, 14592, Note_on_c, 0, 69, 61
2, 14659, Note_on_c, 0, 73, 0
2, 14659, Note_on_c, 0, 69, 0
2, 14664, Note_on_c, 0, 74, 61
2, 14664, Note_on_c, 0, 71, 61
2, 14687, Note_on_c, 0, 74, 0
2, 14687, Note_on_c, 0, 71, 0
2, 14688, Note_on_c, 0, 76, 61
2, 14688, Note_on_c, 0, 73, 61
2, 14733, Note_on_c, 0, 76, 0
2, 14733, Note_on_c, 0, 73, 0
2, 14736, Note_on_c, 0, 74, 61
2, 14736, Note_on_c, 0, 71, 61
2, 14781, Note_on_c, 0, 74, 0
2, 14781, Note_on_c, 0, 71, 0
2, 14784, Note_on_c, 0, 73, 61
2, 14784, Note_on_c, 0, 69, 61
2, 14878, Note_on_c, 0, 73, 0
2, 14878, Note_on_c, 0, 69, 0
2, 14976, Note_on_c, 0, 73, 69
2, 14976, Note_on_c, 0, 69, 69
2, 15043, Note_on_c, 0, 73, 0
2, 15043, Note_on_c, 0, 69, 0
2, 15048, Note_on_c, 0, 74, 69
2, 15048, Note_on_c, 0, 71, 69
2, 15071, Note_on_c, 0, 74, 0
2, 15071, Note_on_c, 0, 71, 0
2, 15072, Note_on_c, 0, 76, 69
2, 15072, Note_on_c, 0, 73, 69
2, 15117, Note_on_c, 0, 76, 0
2, 15117, Note_on_c, 0, 73, 0
2, 15120, Note_on_c, 0, 74, 69
2, 15120, Note_on_c, 0, 71, 69
2, 15165, Note_on_c, 0, 74, 0
2, 15165, Note_on_c, 0, 71, 0
2, 15168, Note_on_c, 0, 73, 69
2, 15168, Note_on_c, 0, 69, 69
2, 15213, Note_on_c, 0, 73, 0
2, 15213, Note_on_c, 0, 69, 0
2, 15216, Note_on_c, 0, 81, 70
2, 15261, Note_on_c, 0, 81, 0
2, 15264, Note_on_c, 0, 80, 72
2, 15287, Note_on_c, 0, 80, 0
2, 15288, Note_on_c, 0, 78, 72
2, 15311, Note_on_c, 0, 78, 0
2, 15312, Note_on_c, 0, 76, 73
2, 15335, Note_on_c, 0, 76, 0
2, 15336, Note_on_c, 0, 74, 74
2, 15359, Note_on_c, 0, 74, 0
2, 15360, Note_on_c, 0, 74, 75
2, 15383, Note_on_c, 0, 74, 0
2, 15384, Note_on_c, 0, 73, 76
2, 15407, Note_on_c, 0, 73, 0
2, 15408, Note_on_c, 0, 71, 75
2, 15431, Note_on_c, 0, 71, 0
2, 15432, Note_on_c, 0, 69, 74
2, 15455, Note_on_c, 0, 69, 0
2, 15456, Note_on_c, 0, 73, 73
2, 15471, Note_on_c, 0, 73, 0
2, 15472, Note_on_c, 0, 71, 72
2, 15487, Note_on_c, 0, 71, 0
2, 15488, Note_on_c, 0, 73, 72
2, 15503, Note_on_c, 0, 73, 0
2, 15504, Note_on_c, 0, 71, 71
2, 15519, Note_on_c, 0, 71, 0
2, 15520, Note_on_c, 0, 69, 71
2, 15535, Note_on_c, 0, 69, 0
2, 15536, Note_on_c, 0, 71, 70
2, 15551, Note_on_c, 0, 71, 0
2, 15552, Note_on_c, 0, 69, 69
2, 15641, Note_on_c, 0, 69, 0
2, 15648, Note_on_c, 0, 76, 76
2, 15671, Note_on_c, 0, 76, 0
2, 15672, Note_on_c, 0, 73, 76
2, 15695, Note_on_c, 0, 73, 0
2, 15696, Note_on_c, 0, 69, 76
2, 15719, Note_on_c, 0, 69, 0
2, 15720, Note_on_c, 0, 64, 76
2, 15743, Note_on_c, 0, 64, 0
2, 15744, Note_on_c, 0, 65, 76
2, 15792, Note_on_c, 0, 65, 0
2, 15792, Note_on_c, 0, 66, 76
2, 15837, Note_on_c, 0, 66, 0
2, 15840, Note_on_c, 0, 74, 76
2, 15863, Note_on_c, 0, 74, 0
2, 15864, Note_on_c, 0, 71, 76
2, 15887, Note_on_c, 0, 71, 0
2, 15888, Note_on_c, 0, 68, 76
2, 15911, Note_on_c, 0, 68, 0
2, 15912, Note_on_c, 0, 64, 76
2, 15935, Note_on_c, 0, 64, 0
2, 15936, Note_on_c, 0, 68, 76
2, 15984, Note_on_c, 0, 68, 0
2, 15984, Note_on_c, 0, 69, 76
2, 16029, Note_on_c, 0, 69, 0
2, 16032, Note_on_c, 0, 76, 69
2, 16055, Note_on_c, 0, 76, 0
2, 16056, Note_on_c, 0, 73, 69
2, 16079, Note_on_c, 0, 73, 0
2, 16080, Note_on_c, 0, 69, 69
2, 16103, Note_on_c, 0, 69, 0
2, 16104, Note_on_c, 0, 64, 69
2, 16127, Note_on_c, 0, 64, 0
2, 16128, Note_on_c, 0, 65, 69
2, 16176, Note_on_c, 0, 65, 0
2, 16176, Note_on_c, 0, 66, 69
2, 16221, Note_on_c, 0, 66, 0
2, 16224, Note_on_c, 0, 74, 69
2, 16247, Note_on_c, 0, 74, 0
2, 16248, Note_on_c, 0, 71, 69
2, 16271, Note_on_c, 0, 71, 0
2, 16272, Note_on_c, 0, 68, 69
2, 16295, Note_on_c, 0, 68, 0
2, 16296, Note_on_c, 0, 64, 69
2, 16319, Note_on_c, 0, 64, 0
2, 16320, Note_on_c, 0, 68, 69
2, 16368, Note_on_c, 0, 68, 0
2, 16368, Note_on_c, 0, 69, 65
2, 16413, Note_on_c, 0, 69, 0
2, 16512, Control_c, 0, 64, 127
2, 16512, Note_on_c, 0, 69, 76
2, 16535, Note_on_c, 0, 69, 0
2, 16536, Note_on_c, 0, 81, 76
2, 16559, Note_on_c, 0, 81, 0
2, 16560, Note_on_c, 0, 69, 76
2, 16583, Note_on_c, 0, 69, 0
2, 16584, Note_on_c, 0, 81, 76
2, 16607, Note_on_c, 0, 81, 0
2, 16608, Note_on_c, 0, 69, 76
2, 16631, Note_on_c, 0, 69, 0
2, 16632, Note_on_c, 0, 81, 76
2, 16655, Note_on_c, 0, 81, 0
2, 16656, Note_on_c, 0, 69, 76
2, 16679, Note_on_c, 0, 69, 0
2, 16680, Control_c, 0, 64, 0
2, 16680, Note_on_c, 0, 81, 76
2, 16703, Note_on_c, 0, 81, 0
2, 16704, Control_c, 0, 64, 127
2, 16704, Note_on_c, 0, 71, 76
2, 16727, Note_on_c, 0, 71, 0
2, 16728, Note_on_c, 0, 80, 76
2, 16751, Note_on_c, 0, 80, 0
2, 16752, Note_on_c, 0, 71, 76
2, 16775, Note_on_c, 0, 71, 0
2, 16776, Note_on_c, 0, 80, 76
2, 16799, Note_on_c, 0, 80, 0
2, 16800, Note_on_c, 0, 71, 76
2, 16823, Note_on_c, 0, 71, 0
2, 16824, Note_on_c, 0, 80, 77
2, 16847, Note_on_c, 0, 80, 0
2, 16848, Note_on_c, 0, 71, 77
2, 16871, Note_on_c, 0, 71, 0
2, 16872, Control_c, 0, 64, 0
2, 16872, Note_on_c, 0, 80, 77
2, 16895, Note_on_c, 0, 80, 0
2, 16896, Control_c, 0, 64, 127
2, 16896, Note_on_c, 0, 69, 77
2, 16919, Note_on_c, 0, 69, 0
2, 16920, Note_on_c, 0, 79, 77
2, 16943, Note_on_c, 0, 79, 0
2, 16944, Note_on_c, 0, 69, 78
2, 16967, Note_on_c, 0, 69, 0
2, 16968, Note_on_c, 0, 79, 78
2, 16991, Note_on_c, 0, 79, 0
2, 16992, Note_on_c, 0, 69, 78
2, 17015, Note_on_c, 0, 69, 0
2, 17016, Note_on_c, 0, 79, 78
2, 17039, Note_on_c, 0, 79, 0
2, 17040, Note_on_c, 0, 69, 79
2, 17063, Note_on_c, 0, 69, 0
2, 17064, Control_c, 0, 64, 0
2, 17064, Note_on_c, 0, 79, 79
2, 17087, Note_on_c, 0, 79, 0
2, 17088, Control_c, 0, 64, 127
2, 17088, Note_on_c, 0, 69, 79
2, 17111, Note_on_c, 0, 69, 0
2, 17112, Note_on_c, 0, 77, 79
2, 17135, Note_on_c, 0, 77, 0
2, 17136, Note_on_c, 0, 69, 79
2, 17159, Note_on_c, 0, 69, 0
2, 17160, Note_on_c, 0, 77, 80
2, 17183, Note_on_c, 0, 77, 0
2, 17184, Note_on_c, 0, 69, 80
2, 17207, Note_on_c, 0, 69, 0
2, 17208, Note_on_c, 0, 77, 80
2, 17231, Note_on_c, 0, 77, 0
2, 17232, Note_on_c, 0, 69, 80
2, 17255, Note_on_c, 0, 69, 0
2, 17256, Control_c, 0, 64, 0
2, 17256, Note_on_c, 0, 77, 81
2, 17279, Note_on_c, 0, 77, 0
2, 17280, Control_c, 0, 64, 127
2, 17280, Note_on_c, 0, 68, 81
2, 17303, Note_on_c, 0, 68, 0
2, 17304, Note_on_c, 0, 74, 81
2, 17327, Note_on_c, 0, 74, 0
2, 17328, Note_on_c, 0, 68, 81
2, 17351, Note_on_c, 0, 68, 0
2, 17352, Note_on_c, 0, 74, 81
2, 17375, Note_on_c, 0, 74, 0
2, 17376, Note_on_c, 0, 68, 82
2, 17399, Note_on_c, 0, 68, 0
2, 17400, Note_on_c, 0, 74, 82
2, 17423, Note_on_c, 0, 74, 0
2, 17424, Note_on_c, 0, 68, 82
2, 17447, Note_on_c, 0, 68, 0
2, 17448, Control_c, 0, 64, 0
2, 17448, Note_on_c, 0, 74, 82
2, 17471, Note_on_c, 0, 74, 0
2, 17472, Note_on_c, 0, 69, 83
2, 17561, Note_on_c, 0, 69, 0
2, 17664, Note_on_c, 0, 77, 69
2, 17664, Note_on_c, 0, 74, 69
2, 17731, Note_on_c, 0, 77, 0
2, 17731, Note_on_c, 0, 74, 0
2, 17736, Note_on_c, 0, 79, 69
2, 17736, Note_on_c, 0, 76, 69
2, 17759, Note_on_c, 0, 79, 0
2, 17759, Note_on_c, 0, 76, 0
2, 17760, Note_on_c, 0, 81, 69
2, 17760, Note_on_c, 0, 77, 69
2, 17805, Note_on_c, 0, 81, 0
2, 17805, Note_on_c, 0, 77, 0
2, 17808, Note_on_c, 0, 79, 69
2, 17808, Note_on_c, 0, 76, 69
2, 17853, Note_on_c, 0, 79, 0
2, 17853, Note_on_c, 0, 76, 0
2, 17856, Note_on_c, 0, 77, 69
2, 17856, Note_on_c, 0, 74, 69
2, 17950, Note_on_c, 0, 77, 0
2, 17950, Note_on_c, 0, 74, 0
2, 18048, Note_on_c, 0, 77, 61
2, 18048, Note_on_c, 0, 74, 61
2, 18115, Note_on_c, 0, 77, 0
2, 18115, Note_on_c, 0, 74, 0
2, 18120, Note_on_c, 0, 79, 61
2, 18120, Note_on_c, 0, 76, 61
2, 18143, Note_on_c, 0, 79, 0
2, 18143, Note_on_c, 0, 76, 0
2, 18144, Note_on_c, 0, 81, 61
2, 18144, Note_on_c, 0, 77, 61
2, 18189, Note_on_c, 0, 81, 0
2, 18189, Note_on_c, 0, 77, 0
2, 18192, Note_on_c, 0, 79, 61
2, 18192, Note_on_c, 0, 76, 61
2, 18237, Note_on_c, 0, 79, 0
2, 18237, Note_on_c, 0, 76, 0
2, 18240, Note_on_c, 0, 77, 61
2, 18240, Note_on_c, 0, 74, 61
2, 18334, Note_on_c, 0, 77, 0
2, 18334, Note_on_c, 0, 74, 0
2, 18432, Note_on_c, 0, 76, 85
2, 18576, Note_on_c, 0, 76, 0
2, 18576, Note_on_c, 0, 79, 69
2, 18591, Note_on_c, 0, 79, 0
2, 18592, Note_on_c, 0, 81, 69
2, 18607, Note_on_c, 0, 81, 0
2, 18608, Note_on_c, 0, 82, 69
2, 18623, Note_on_c, 0, 82, 0
2, 18624, Note_on_c, 0, 81, 69
2, 18669, Note_on_c, 0, 81, 0
2, 18672, Note_on_c, 0, 74, 69
2, 18717, Note_on_c, 0, 74, 0
2, 18720, Note_on_c, 0, 77, 69
2, 18743, Note_on_c, 0, 77, 0
2, 18744, Note_on_c, 0, 76, 69
2, 18767, Note_on_c, 0, 76, 0
2, 18768, Note_on_c, 0, 74, 69
2, 18791, Note_on_c, 0, 74, 0
2, 18792, Note_on_c, 0, 73, 69
2, 18815, Note_on_c, 0, 73, 0
2, 18816, Note_on_c, 0, 74, 69
2, 18861, Note_on_c, 0, 74, 0
2, 18864, Note_on_c, 0, 69, 69
2, 18909, Note_on_c, 0, 69, 0
2, 18912, Note_on_c, 0, 70, 69
2, 19053, Note_on_c, 0, 70, 0
2, 19056, Note_on_c, 0, 68, 69
2, 19101, Note_on_c, 0, 68, 0
2, 19104, Note_on_c, 0, 69, 69
2, 19245, Note_on_c, 0, 69, 0
2, 19248, Note_on_c, 0, 70, 69
2, 19293, Note_on_c, 0, 70, 0
2, 19296, Note_on_c, 0, 69, 69
2, 19437, Note_on_c, 0, 69, 0
2, 19440, Note_on_c, 0, 70, 69
2, 19488, Note_on_c, 0, 70, 0
2, 19488, Note_on_c, 0, 69, 69
2, 19533, Note_on_c, 0, 69, 0
2, 19536, Note_on_c, 0, 70, 69
2, 19584, Note_on_c, 0, 70, 0
2, 19584, Note_on_c, 0, 69, 69
2, 19629, Note_on_c, 0, 69, 0
2, 19632, Note_on_c, 0, 76, 69
2, 19655, Note_on_c, 0, 76, 0
2, 19656, Note_on_c, 0, 77, 69
2, 19679, Note_on_c, 0, 77, 0
2, 19680, Note_on_c, 0, 81, 69
2, 19703, Note_on_c, 0, 81, 0
2, 19704, Note_on_c, 0, 79, 69
2, 19727, Note_on_c, 0, 79, 0
2, 19728, Note_on_c, 0, 77, 69
2, 19751, Note_on_c, 0, 77, 0
2, 19752, Note_on_c, 0, 76, 69
2, 19775, Note_on_c, 0, 76, 0
2, 19776, Note_on_c, 0, 77, 69
2, 19821, Note_on_c, 0, 77, 0
2, 19824, Note_on_c, 0, 74, 69
2, 19869, Note_on_c, 0, 74, 0
2, 19872, Note_on_c, 0, 75, 69
2, 20013, Note_on_c, 0, 75, 0
2, 20016, Note_on_c, 0, 73, 69
2, 20061, Note_on_c, 0, 73, 0
2, 20064, Note_on_c, 0, 74, 69
2, 20205, Note_on_c, 0, 74, 0
2, 20208, Note_on_c, 0, 75, 69
2, 20253, Note_on_c, 0, 75, 0
2, 20256, Note_on_c, 0, 74, 69
2, 20397, Note_on_c, 0, 74, 0
2, 20400, Note_on_c, 0, 75, 69
2, 20448, Note_on_c, 0, 75, 0
2, 20448, Note_on_c, 0, 74, 69
2, 20493, Note_on_c, 0, 74, 0
2, 20496, Note_on_c, 0, 75, 69
2, 20544, Note_on_c, 0, 75, 0
2, 20544, Note_on_c, 0, 74, 69
2, 20589, Note_on_c, 0, 74, 0
2, 20592, Note_on_c, 0, 81, 69
2, 20615, Note_on_c, 0, 81, 0
2, 20616, Note_on_c, 0, 82, 69
2, 20639, Note_on_c, 0, 82, 0
2, 20640, Note_on_c, 0, 86, 69
2, 20663, Note_on_c, 0, 86, 0
2, 20664, Note_on_c, 0, 84, 69
2, 20687, Note_on_c, 0, 84, 0
2, 20688, Note_on_c, 0, 82, 69
2, 20711, Note_on_c, 0, 82, 0
2, 20712, Note_on_c, 0, 81, 69
2, 20735, Note_on_c, 0, 81, 0
2, 20736, Note_on_c, 0, 82, 69
2, 20759, Note_on_c, 0, 82, 0
2, 20760, Note_on_c, 0, 79, 69
2, 20783, Note_on_c, 0, 79, 0
2, 20784, Note_on_c, 0, 81, 69
2, 20807, Note_on_c, 0, 81, 0
2, 20808, Note_on_c, 0, 82, 69
2, 20831, Note_on_c, 0, 82, 0
2, 20832, Note_on_c, 0, 84, 69
2, 20855, Note_on_c, 0, 84, 0
2, 20856, Note_on_c, 0, 82, 69
2, 20879, Note_on_c, 0, 82, 0
2, 20880, Note_on_c, 0, 81, 69
2, 20903, Note_on_c, 0, 81, 0
2, 20904, Note_on_c, 0, 79, 69
2, 20927, Note_on_c, 0, 79, 0
2, 20928, Note_on_c, 0, 81, 69
2, 20951, Note_on_c, 0, 81, 0
2, 20952, Note_on_c, 0, 77, 69
2, 20975, Note_on_c, 0, 77, 0
2, 20976, Note_on_c, 0, 79, 69
2, 20999, Note_on_c, 0, 79, 0
2, 21000, Note_on_c, 0, 81, 69
2, 21023, Note_on_c, 0, 81, 0
2, 21024, Note_on_c, 0, 82, 69
2, 21047, Note_on_c, 0, 82, 0
2, 21048, Note_on_c, 0, 81, 69
2, 21071, Note_on_c, 0, 81, 0
2, 21072, Note_on_c, 0, 79, 69
2, 21095, Note_on_c, 0, 79, 0
2, 21096, Note_on_c, 0, 77, 69
2, 21119, Note_on_c, 0, 77, 0
2, 21120, Note_on_c, 0, 79, 69
2, 21143, Note_on_c, 0, 79, 0
2, 21144, Note_on_c, 0, 76, 69
2, 21167, Note_on_c, 0, 76, 0
2, 21168, Note_on_c, 0, 77, 69
2, 21191, Note_on_c, 0, 77, 0
2, 21192, Note_on_c, 0, 79, 69
2, 21215, Note_on_c, 0, 79, 0
2, 21216, Note_on_c, 0, 81, 69
2, 21239, Note_on_c, 0, 81, 0
2, 21240, Note_on_c, 0, 79, 69
2, 21263, Note_on_c, 0, 79, 0
2, 21264, Note_on_c, 0, 77, 69
2, 21287, Note_on_c, 0, 77, 0
2, 21288, Note_on_c, 0, 76, 69
2, 21311, Note_on_c, 0, 76, 0
2, 21336, Note_on_c, 0, 77, 69
2, 21359, Note_on_c, 0, 77, 0
2, 21360, Note_on_c, 0, 76, 69
2, 21383, Note_on_c, 0, 76, 0
2, 21384, Note_on_c, 0, 74, 69
2, 21407, Note_on_c, 0, 74, 0
2, 21432, Note_on_c, 0, 79, 69
2, 21455, Note_on_c, 0, 79, 0
2, 21456, Note_on_c, 0, 77, 69
2, 21479, Note_on_c, 0, 77, 0
2, 21480, Note_on_c, 0, 76, 69
2, 21503, Note_on_c, 0, 76, 0
2, 21504, Note_on_c, 0, 81, 69
2, 21527, Note_on_c, 0, 81, 0
2, 21528, Note_on_c, 0, 77, 70
2, 21551, Note_on_c, 0, 77, 0
2, 21552, Note_on_c, 0, 76, 71
2, 21575, Note_on_c, 0, 76, 0
2, 21576, Note_on_c, 0, 74, 73
2, 21599, Note_on_c, 0, 74, 0
2, 21600, Note_on_c, 0, 82, 74
2, 21623, Note_on_c, 0, 82, 0
2, 21624, Note_on_c, 0, 79, 76
2, 21647, Note_on_c, 0, 79, 0
2, 21648, Note_on_c, 0, 76, 75
2, 21671, Note_on_c, 0, 76, 0
2, 21672, Note_on_c, 0, 74, 74
2, 21695, Note_on_c, 0, 74, 0
2, 21696, Note_on_c, 0, 74, 73
2, 21708, Note_on_c, 0, 74, 0
2, 21708, Note_on_c, 0, 76, 73
2, 21720, Note_on_c, 0, 76, 0
2, 21720, Note_on_c, 0, 74, 73
2, 21732, Note_on_c, 0, 74, 0
2, 21732, Note_on_c, 0, 76, 73
2, 21741, Note_on_c, 0, 76, 0
2, 21744, Note_on_c, 0, 73, 71
2, 21789, Note_on_c, 0, 73, 0
2, 21888, Note_on_c, 0, 76, 69
2, 21955, Note_on_c, 0, 76, 0
2, 21960, Note_on_c, 0, 78, 69
2, 21983, Note_on_c, 0, 78, 0
2, 21984, Note_on_c, 0, 79, 69
2, 22029, Note_on_c, 0, 79, 0
2, 22032, Note_on_c, 0, 79, 69
2, 22077, Note_on_c, 0, 79, 0
2, 22080, Note_on_c, 0, 78, 69
2, 22169, Note_on_c, 0, 78, 0
2, 22272, Note_on_c, 0, 76, 70
2, 22339, Note_on_c, 0, 76, 0
2, 22344, Note_on_c, 0, 78, 71
2, 22367, Note_on_c, 0, 78, 0
2, 22368, Note_on_c, 0, 79, 71
2, 22413, Note_on_c, 0, 79, 0
2, 22416, Note_on_c, 0, 79, 71
2, 22461, Note_on_c, 0, 79, 0
2, 22464, Note_on_c, 0, 78, 71
2, 22553, Note_on_c, 0, 78, 0
2, 22656, Note_on_c, 0, 81, 72
2, 22723, Note_on_c, 0, 81, 0
2, 22728, Note_on_c, 0, 83, 73
2, 22751, Note_on_c, 0, 83, 0
2, 22752, Note_on_c, 0, 84, 73
2, 22797, Note_on_c, 0, 84, 0
2, 22800, Note_on_c, 0, 84, 73
2, 22845, Note_on_c, 0, 84, 0
2, 22848, Note_on_c, 0, 83, 73
2, 22937, Note_on_c, 0, 83, 0
2, 23040, Note_on_c, 0, 83, 74
2, 23107, Note_on_c, 0, 83, 0
2, 23112, Note_on_c, 0, 85, 74
2, 23135, Note_on_c, 0, 85, 0
2, 23136, Note_on_c, 0, 86, 75
2, 23181, Note_on_c, 0, 86, 0
2, 23184, Note_on_c, 0, 86, 75
2, 23229, Note_on_c, 0, 86, 0
2, 23232, Note_on_c, 0, 85, 75
2, 23321, Note_on_c, 0, 85, 0
2, 23448, Note_on_c, 0, 76, 76
2, 23471, Note_on_c, 0, 76, 0
2, 23472, Note_on_c, 0, 74, 76
2, 23495, Note_on_c, 0, 74, 0
2, 23496, Note_on_c, 0, 73, 76
2, 23519, Note_on_c, 0, 73, 0
2, 23520, Note_on_c, 0, 71, 76
2, 23543, Note_on_c, 0, 71, 0
2, 23544, Note_on_c, 0, 69, 76
2, 23567, Note_on_c, 0, 69, 0
2, 23568, Note_on_c, 0, 68, 76
2, 23591, Note_on_c, 0, 68, 0
2, 23592, Note_on_c, 0, 69, 76
2, 23615, Note_on_c, 0, 69, 0
2, 23640, Note_on_c, 0, 76, 76
2, 23663, Note_on_c, 0, 76, 0
2, 23664, Note_on_c, 0, 74, 76
2, 23687, Note_on_c, 0, 74, 0
2, 23688, Note_on_c, 0, 73, 76
2, 23711, Note_on_c, 0, 73, 0
2, 23712, Note_on_c, 0, 71, 76
2, 23735, Note_on_c, 0, 71, 0
2, 23736, Note_on_c, 0, 69, 76
2, 23759, Note_on_c, 0, 69, 0
2, 23760, Note_on_c, 0, 68, 76
2, 23783, Note_on_c, 0, 68, 0
2, 23784, Note_on_c, 0, 69, 76
2, 23807, Note_on_c, 0, 69, 0
2, 23832, Note_on_c, 0, 79, 76
2, 23855, Note_on_c, 0, 79, 0
2, 23856, Note_on_c, 0, 78, 76
2, 23879, Note_on_c, 0, 78, 0
2, 23880, Note_on_c, 0, 76, 76
2, 23903, Note_on_c, 0, 76, 0
2, 23904, Note_on_c, 0, 74, 76
2, 23927, Note_on_c, 0, 74, 0
2, 23928, Note_on_c, 0, 73, 76
2, 23951, Note_on_c, 0, 73, 0
2, 23952, Note_on_c, 0, 71, 76
2, 23975, Note_on_c, 0, 71, 0
2, 23976, Note_on_c, 0, 69, 76
2, 23999, Note_on_c, 0, 69, 0
2, 24000, Note_on_c, 0, 67, 76
2, 24048, Note_on_c, 0, 67, 0
2, 24048, Note_on_c, 0, 66, 76
2, 24093, Note_on_c, 0, 66, 0
2, 24216, Note_on_c, 0, 71, 76
2, 24239, Note_on_c, 0, 71, 0
2, 24240, Note_on_c, 0, 73, 76
2, 24263, Note_on_c, 0, 73, 0
2, 24264, Note_on_c, 0, 74, 76
2, 24287, Note_on_c, 0, 74, 0
2, 24312, Note_on_c, 0, 69, 76
2, 24335, Note_on_c, 0, 69, 0
2, 24336, Note_on_c, 0, 73, 76
2, 24359, Note_on_c, 0, 73, 0
2, 24360, Note_on_c, 0, 74, 76
2, 24383, Note_on_c, 0, 74, 0
2, 24384, Note_on_c, 0, 67, 76
2, 24407, Note_on_c, 0, 67, 0
2, 24408, Note_on_c, 0, 71, 76
2, 24431, Note_on_c, 0, 71, 0
2, 24432, Note_on_c, 0, 69, 76
2, 24455, Note_on_c, 0, 69, 0
2, 24456, Note_on_c, 0, 67, 76
2, 24479, Note_on_c, 0, 67, 0
2, 24480, Note_on_c, 0, 67, 76
2, 24503, Note_on_c, 0, 67, 0
2, 24504, Note_on_c, 0, 66, 76
2, 24527, Note_on_c, 0, 66, 0
2, 24528, Note_on_c, 0, 64, 76
2, 24551, Note_on_c, 0, 64, 0
2, 24552, Note_on_c, 0, 62, 76
2, 24575, Note_on_c, 0, 62, 0
2, 24600, Note_on_c, 0, 71, 61
2, 24623, Note_on_c, 0, 71, 0
2, 24624, Note_on_c, 0, 73, 61
2, 24647, Note_on_c, 0, 73, 0
2, 24648, Note_on_c, 0, 74, 61
2, 24671, Note_on_c, 0, 74, 0
2, 24696, Note_on_c, 0, 69, 61
2, 24719, Note_on_c, 0, 69, 0
2, 24720, Note_on_c, 0, 73, 61
2, 24743, Note_on_c, 0, 73, 0
2, 24744, Note_on_c, 0, 74, 61
2, 24767, Note_on_c, 0, 74, 0
2, 24768, Note_on_c, 0, 67, 61
2, 24791, Note_on_c, 0, 67, 0
2, 24792, Note_on_c, 0, 71, 61
2, 24815, Note_on_c, 0, 71, 0
2, 24816, Note_on_c, 0, 69, 61
2, 24839, Note_on_c, 0, 69, 0
2, 24840, Note_on_c, 0, 67, 61
2, 24863, Note_on_c, 0, 67, 0
2, 24864, Note_on_c, 0, 67, 61
2, 24887, Note_on_c, 0, 67, 0
2, 24888, Note_on_c, 0, 66, 68
2, 24911, Note_on_c, 0, 66, 0
2, 24912, Note_on_c, 0, 64, 75
2, 24935, Note_on_c, 0, 64, 0
2, 24936, Note_on_c, 0, 62, 82
2, 24959, Note_on_c, 0, 62, 0
2, 24960, Control_c, 0, 64, 127
2, 24984, Note_on_c, 0, 62, 89
2, 25007, Note_on_c, 0, 62, 0
2, 25008, Note_on_c, 0, 68, 89
2, 25031, Note_on_c, 0, 68, 0
2, 25032, Note_on_c, 0, 62, 89
2, 25055, Note_on_c, 0, 62, 0
2, 25056, Note_on_c, 0, 74, 89
2, 25079, Note_on_c, 0, 74, 0
2, 25080, Note_on_c, 0, 62, 89
2, 25103, Note_on_c, 0, 62, 0
2, 25104, Note_on_c, 0, 68, 89
2, 25127, Note_on_c, 0, 68, 0
2, 25128, Note_on_c, 0, 62, 89
2, 25151, Note_on_c, 0, 62, 0
2, 25176, Note_on_c, 0, 62, 89
2, 25199, Note_on_c, 0, 62, 0
2, 25200, Note_on_c, 0, 68, 89
2, 25223, Note_on_c, 0, 68, 0
2, 25224, Note_on_c, 0, 62, 89
2, 25247, Note_on_c, 0, 62, 0
2, 25248, Note_on_c, 0, 74, 89
2, 25271, Note_on_c, 0, 74, 0
2, 25272, Note_on_c, 0, 62, 89
2, 25295, Note_on_c, 0, 62, 0
2, 25296, Note_on_c, 0, 68, 89
2, 25319, Note_on_c, 0, 68, 0
2, 25320, Control_c, 0, 64, 0
2, 25320, Note_on_c, 0, 62, 89
2, 25343, Note_on_c, 0, 62, 0
2, 25344, Control_c, 0, 64, 127
2, 25368, Note_on_c, 0, 64, 89
2, 25391, Note_on_c, 0, 64, 0
2, 25392, Note_on_c, 0, 71, 89
2, 25415, Note_on_c, 0, 71, 0
2, 25416, Note_on_c, 0, 64, 89
2, 25439, Note_on_c, 0, 64, 0
2, 25440, Note_on_c, 0, 74, 89
2, 25463, Note_on_c, 0, 74, 0
2, 25464, Note_on_c, 0, 64, 89
2, 25487, Note_on_c, 0, 64, 0
2, 25488, Note_on_c, 0, 71, 89
2, 25511, Note_on_c, 0, 71, 0
2, 25512, Control_c, 0, 64, 0
2, 25512, Note_on_c, 0, 64, 89
2, 25535, Note_on_c, 0, 64, 0
2, 25536, Control_c, 0, 64, 127
2, 25560, Note_on_c, 0, 67, 89
2, 25583, Note_on_c, 0, 67, 0
2, 25584, Note_on_c, 0, 69, 89
2, 25607, Note_on_c, 0, 69, 0
2, 25608, Note_on_c, 0, 67, 89
2, 25631, Note_on_c, 0, 67, 0
2, 25632, Note_on_c, 0, 76, 89
2, 25655, Note_on_c, 0, 76, 0
2, 25656, Note_on_c, 0, 67, 89
2, 25679, Note_on_c, 0, 67, 0
2, 25680, Note_on_c, 0, 69, 89
2, 25703, Note_on_c, 0, 69, 0
2, 25704, Control_c, 0, 64, 0
2, 25704, Note_on_c, 0, 67, 89
2, 25727, Note_on_c, 0, 67, 0
2, 25728, Control_c, 0, 64, 127
2, 25752, Note_on_c, 0, 67, 89
2, 25775, Note_on_c, 0, 67, 0
2, 25776, Note_on_c, 0, 73, 89
2, 25799, Note_on_c, 0, 73, 0
2, 25800, Note_on_c, 0, 67, 89
2, 25823, Note_on_c, 0, 67, 0
2, 25824, Note_on_c, 0, 76, 89
2, 25847, Note_on_c, 0, 76, 0
2, 25848, Note_on_c, 0, 67, 89
2, 25871, Note_on_c, 0, 67, 0
2, 25872, Note_on_c, 0, 73, 89
2, 25895, Note_on_c, 0, 73, 0
2, 25896, Control_c, 0, 64, 0
2, 25896, Note_on_c, 0, 67, 89
2, 25919, Note_on_c, 0, 67, 0
2, 25920, Control_c, 0, 64, 127
2, 25944, Note_on_c, 0, 66, 89
2, 25967, Note_on_c, 0, 66, 0
2, 25968, Note_on_c, 0, 74, 89
2, 25991, Note_on_c, 0, 74, 0
2, 25992, Note_on_c, 0, 66, 89
2, 26015, Note_on_c, 0, 66, 0
2, 26040, Note_on_c, 0, 64, 89
2, 26063, Note_on_c, 0, 64, 0
2, 26064, Note_on_c, 0, 74, 89
2, 26087, Note_on_c, 0, 74, 0
2, 26088, Control_c, 0, 64, 0
2, 26088, Note_on_c, 0, 64, 89
2, 26111, Note_on_c, 0, 64, 0
2, 26112, Control_c, 0, 64, 127
2, 26136, Note_on_c, 0, 64, 89
2, 26159, Note_on_c, 0, 64, 0
2, 26160, Note_on_c, 0, 73, 89
2, 26183, Note_on_c, 0, 73, 0
2, 26184, Note_on_c, 0, 64, 89
2, 26207, Note_on_c, 0, 64, 0
2, 26232, Note_on_c, 0, 67, 89
2, 26255, Note_on_c, 0, 67, 0
2, 26256, Note_on_c, 0, 76, 89
2, 26279, Note_on_c, 0, 76, 0
2, 26280, Control_c, 0, 64, 0
2, 26280, Note_on_c, 0, 67, 89
2, 26303, Note_on_c, 0, 67, 0
2, 26304, Control_c, 0, 64, 127
2, 26328, Note_on_c, 0, 66, 89
2, 26351, Note_on_c, 0, 66, 0
2, 26352, Note_on_c, 0, 74, 89
2, 26375, Note_on_c, 0, 74, 0
2, 26376, Note_on_c, 0, 66, 89
2, 26399, Note_on_c, 0, 66, 0
2, 26424, Note_on_c, 0, 66, 89
2, 26447, Note_on_c, 0, 66, 0
2, 26448, Note_on_c, 0, 74, 89
2, 26471, Note_on_c, 0, 74, 0
2, 26472, Control_c, 0, 64, 0
2, 26472, Note_on_c, 0, 66, 89
2, 26495, Note_on_c, 0, 66, 0
2, 26496, Note_on_c, 0, 73, 89
2, 26496, Note_on_c, 0, 64, 89
2, 26585, Note_on_c, 0, 73, 0
2, 26585, Note_on_c, 0, 64, 0
2, 26688, Note_on_c, 0, 78, 69
2, 26688, Note_on_c, 0, 74, 69
2, 26755, Note_on_c, 0, 78, 0
2, 26755, Note_on_c, 0, 74, 0
2, 26760, Note_on_c, 0, 79, 69
2, 26760, Note_on_c, 0, 76, 69
2, 26783, Note_on_c, 0, 79, 0
2, 26783, Note_on_c, 0, 76, 0
2, 26784, Note_on_c, 0, 81, 69
2, 26784, Note_on_c, 0, 78, 69
2, 26829, Note_on_c, 0, 81, 0
2, 26829, Note_on_c, 0, 78, 0
2, 26832, Note_on_c, 0, 79, 69
2, 26832, Note_on_c, 0, 76, 69
2, 26877, Note_on_c, 0, 79, 0
2, 26877, Note_on_c, 0, 76, 0
2, 26880, Note_on_c, 0, 78, 69
2, 26880, Note_on_c, 0, 74, 69
2, 26974, Note_on_c, 0, 78, 0
2, 26974, Note_on_c, 0, 74, 0
2, 27072, Note_on_c, 0, 78, 61
2, 27072, Note_on_c, 0, 74, 61
2, 27139, Note_on_c, 0, 78, 0
2, 27139, Note_on_c, 0, 74, 0
2, 27144, Note_on_c, 0, 79, 61
2, 27144, Note_on_c, 0, 76, 61
2, 27167, Note_on_c, 0, 79, 0
2, 27167, Note_on_c, 0, 76, 0
2, 27168, Note_on_c, 0, 81, 61
2, 27168, Note_on_c, 0, 78, 61
2, 27213, Note_on_c, 0, 81, 0
2, 27213, Note_on_c, 0, 78, 0
2, 27216, Note_on_c, 0, 79, 61
2, 27216, Note_on_c, 0, 76, 61
2, 27261, Note_on_c, 0, 79, 0
2, 27261, Note_on_c, 0, 76, 0
2, 27264, Note_on_c, 0, 78, 61
2, 27264, Note_on_c, 0, 74, 61
2, 27358, Note_on_c, 0, 78, 0
2, 27358, Note_on_c, 0, 74, 0
2, 27456, Note_on_c, 0, 78, 69
2, 27456, Note_on_c, 0, 74, 69
2, 27523, Note_on_c, 0, 78, 0
2, 27523, Note_on_c, 0, 74, 0
2, 27528, Note_on_c, 0, 79, 69
2, 27528, Note_on_c, 0, 76, 69
2, 27551, Note_on_c, 0, 79, 0
2, 27551, Note_on_c, 0, 76, 0
2, 27552, Note_on_c, 0, 81, 69
2, 27552, Note_on_c, 0, 78, 69
2, 27597, Note_on_c, 0, 81, 0
2, 27597, Note_on_c, 0, 78, 0
2, 27600, Note_on_c, 0, 79, 69
2, 27600, Note_on_c, 0, 76, 69
2, 27645, Note_on_c, 0, 79, 0
2, 27645, Note_on_c, 0, 76, 0
2, 27648, Note_on_c, 0, 78, 69
2, 27648, Note_on_c, 0, 74, 69
2, 27693, Note_on_c, 0, 78, 0
2, 27693, Note_on_c, 0, 74, 0
2, 27696, Note_on_c, 0, 86, 71
2, 27741, Note_on_c, 0, 86, 0
2, 27744, Note_on_c, 0, 85, 73
2, 27767, Note_on_c, 0, 85, 0
2, 27768, Note_on_c, 0, 83, 74
2, 27791, Note_on_c, 0, 83, 0
2, 27792, Note_on_c, 0, 81, 76
2, 27815, Note_on_c, 0, 81, 0
2, 27816, Note_on_c, 0, 79, 74
2, 27839, Note_on_c, 0, 79, 0
2, 27840, Note_on_c, 0, 79, 73
2, 27863, Note_on_c, 0, 79, 0
2, 27864, Note_on_c, 0, 78, 72
2, 27887, Note_on_c, 0, 78, 0
2, 27888, Note_on_c, 0, 76, 71
2, 27911, Note_on_c, 0, 76, 0
2, 27912, Note_on_c, 0, 74, 70
2, 27935, Note_on_c, 0, 74, 0
2, 27936, Note_on_c, 0, 78, 69
2, 27951, Note_on_c, 0, 78, 0
2, 27952, Note_on_c, 0, 76, 69
2, 27967, Note_on_c, 0, 76, 0
2, 27968, Note_on_c, 0, 78, 69
2, 27983, Note_on_c, 0, 78, 0
2, 27984, Note_on_c, 0, 76, 69
2, 27999, Note_on_c, 0, 76, 0
2, 28000, Note_on_c, 0, 74, 69
2, 28015, Note_on_c, 0, 74, 0
2, 28016, Note_on_c, 0, 76, 69
2, 28031, Note_on_c, 0, 76, 0
2, 28032, Note_on_c, 0, 74, 69
2, 28121, Note_on_c, 0, 74, 0
2, 28128, Note_on_c, 0, 81, 76
2, 28151, Note_on_c, 0, 81, 0
2, 28152, Note_on_c, 0, 78, 76
2, 28175, Note_on_c, 0, 78, 0
2, 28176, Note_on_c, 0, 74, 76
2, 28199, Note_on_c, 0, 74, 0
2, 28200, Note_on_c, 0, 69, 76
2, 28223, Note_on_c, 0, 69, 0
2, 28224, Note_on_c, 0, 70, 76
2, 28272, Note_on_c, 0, 70, 0
2, 28272, Note_on_c, 0, 71, 76
2, 28317, Note_on_c, 0, 71, 0
2, 28320, Note_on_c, 0, 79, 76
2, 28343, Note_on_c, 0, 79, 0
2, 28344, Note_on_c, 0, 76, 76
2, 28367, Note_on_c, 0, 76, 0
2, 28368, Note_on_c, 0, 73, 76
2, 28391, Note_on_c, 0, 73, 0
2, 28392, Note_on_c, 0, 69, 76
2, 28415, Note_on_c, 0, 69, 0
2, 28416, Note_on_c, 0, 73, 76
2, 28464, Note_on_c, 0, 73, 0
2, 28464, Note_on_c, 0, 74, 76
2, 28509, Note_on_c, 0, 74, 0
2, 28512, Note_on_c, 0, 81, 69
2, 28535, Note_on_c, 0, 81, 0
2, 28536, Note_on_c, 0, 78, 69
2, 28559, Note_on_c, 0, 78, 0
2, 28560, Note_on_c, 0, 74, 69
2, 28583, Note_on_c, 0, 74, 0
2, 28584, Note_on_c, 0, 69, 69
2, 28607, Note_on_c, 0, 69, 0
2, 28608, Note_on_c, 0, 70, 69
2, 28656, Note_on_c, 0, 70, 0
2, 28656, Note_on_c, 0, 71, 69
2, 28701, Note_on_c, 0, 71, 0
2, 28704, Note_on_c, 0, 79, 69
2, 28727, Note_on_c, 0, 79, 0
2, 28728, Note_on_c, 0, 76, 69
2, 28751, Note_on_c, 0, 76, 0
2, 28752, Note_on_c, 0, 73, 69
2, 28775, Note_on_c, 0, 73, 0
2, 28776, Note_on_c, 0, 69, 69
2, 28799, Note_on_c, 0, 69, 0
2, 28800, Note_on_c, 0, 76, 61
2, 28812, Note_on_c, 0, 76, 0
2, 28812, Note_on_c, 0, 74, 61
2, 28824, Note_on_c, 0, 74, 0
2, 28824, Note_on_c, 0, 73, 61
2, 28836, Note_on_c, 0, 73, 0
2, 28836, Note_on_c, 0, 74, 61
2, 28889, Note_on_c, 0, 74, 0
2, 28992, Control_c, 0, 64, 127
2, 28992, Note_on_c, 0, 69, 76
2, 29015, Note_on_c, 0, 69, 0
2, 29016, Note_on_c, 0, 81, 76
2, 29039, Note_on_c, 0, 81, 0
2, 29040, Note_on_c, 0, 69, 76
2, 29063, Note_on_c, 0, 69, 0
2, 29064, Note_on_c, 0, 81, 76
2, 29087, Note_on_c, 0, 81, 0
2, 29088, Note_on_c, 0, 69, 76
2, 29111, Note_on_c, 0, 69, 0
2, 29112, Note_on_c, 0, 81, 76
2, 29135, Note_on_c, 0, 81, 0
2, 29136, Note_on_c, 0, 69, 76
2, 29159, Note_on_c, 0, 69, 0
2, 29160, Control_c, 0, 64, 0
2, 29160, Note_on_c, 0, 81, 76
2, 29183, Note_on_c, 0, 81, 0
2, 29184, Control_c, 0, 64, 127
2, 29184, Note_on_c, 0, 71, 76
2, 29207, Note_on_c, 0, 71, 0
2, 29208, Note_on_c, 0, 80, 76
2, 29231, Note_on_c, 0, 80, 0
2, 29232, Note_on_c, 0, 71, 76
2, 29255, Note_on_c, 0, 71, 0
2, 29256, Note_on_c, 0, 80, 76
2, 29279, Note_on_c, 0, 80, 0
2, 29280, Note_on_c, 0, 71, 76
2, 29303, Note_on_c, 0, 71, 0
2, 29304, Note_on_c, 0, 80, 77
2, 29327, Note_on_c, 0, 80, 0
2, 29328, Note_on_c, 0, 71, 77
2, 29351, Note_on_c, 0, 71, 0
2, 29352, Control_c, 0, 64, 0
2, 29352, Note_on_c, 0, 80, 77
2, 29375, Note_on_c, 0, 80, 0
2, 29376, Control_c, 0, 64, 127
2, 29376, Note_on_c, 0, 69, 77
2, 29399, Note_on_c, 0, 69, 0
2, 29400, Note_on_c, 0, 79, 77
2, 29423, Note_on_c, 0, 79, 0
2, 29424, Note_on_c, 0, 69, 78
2, 29447, Note_on_c, 0, 69, 0
2, 29448, Note_on_c, 0, 79, 78
2, 29471, Note_on_c, 0, 79, 0
2, 29472, Note_on_c, 0, 69, 78
2, 29495, Note_on_c, 0, 69, 0
2, 29496, Note_on_c, 0, 79, 78
2, 29519, Note_on_c, 0, 79, 0
2, 29520, Note_on_c, 0, 69, 79
2, 29543, Note_on_c, 0, 69, 0
2, 29544, Control_c, 0, 64, 0
2, 29544, Note_on_c, 0, 79, 79
2, 29567, Note_on_c, 0, 79, 0
2, 29568, Control_c, 0, 64, 127
2, 29568, Note_on_c, 0, 69, 79
2, 29591, Note_on_c, 0, 69, 0
2, 29592, Note_on_c, 0, 77, 79
2, 29615, Note_on_c, 0, 77, 0
2, 29616, Note_on_c, 0, 69, 79
2, 29639, Note_on_c, 0, 69, 0
2, 29640, Note_on_c, 0, 77, 80
2, 29663, Note_on_c, 0, 77, 0
2, 29664, Note_on_c, 0, 69, 80
2, 29687, Note_on_c, 0, 69, 0
2, 29688, Note_on_c, 0, 77, 80
2, 29711, Note_on_c, 0, 77, 0
2, 29712, Note_on_c, 0, 69, 80
2, 29735, Note_on_c, 0, 69, 0
2, 29736, Control_c, 0, 64, 0
2, 29736, Note_on_c, 0, 77, 81
2, 29759, Note_on_c, 0, 77, 0
2, 29760, Control_c, 0, 64, 127
2, 29760, Note_on_c, 0, 68, 81
2, 29783, Note_on_c, 0, 68, 0
2, 29784, Note_on_c, 0, 74, 81
2, 29807, Note_on_c, 0, 74, 0
2, 29808, Note_on_c, 0, 68, 81
2, 29831, Note_on_c, 0, 68, 0
2, 29832, Note_on_c, 0, 74, 81
2, 29855, Note_on_c, 0, 74, 0
2, 29856, Note_on_c, 0, 68, 82
2, 29879, Note_on_c, 0, 68, 0
2, 29880, Note_on_c, 0, 74, 82
2, 29903, Note_on_c, 0, 74, 0
2, 29904, Note_on_c, 0, 68, 82
2, 29927, Note_on_c, 0, 68, 0
2, 29928, Control_c, 0, 64, 0
2, 29928, Note_on_c, 0, 74, 82
2, 29951, Note_on_c, 0, 74, 0
2, 29952, Note_on_c, 0, 69, 83
2, 30041, Note_on_c, 0, 69, 0
2, 30144, Note_on_c, 0, 77, 69
2, 30144, Note_on_c, 0, 74, 69
2, 30211, Note_on_c, 0, 77, 0
2, 30211, Note_on_c, 0, 74, 0
2, 30216, Note_on_c, 0, 79, 69
2, 30216, Note_on_c, 0, 76, 69
2, 30239, Note_on_c, 0, 79, 0
2, 30239, Note_on_c, 0, 76, 0
2, 30240, Note_on_c, 0, 81, 69
2, 30240, Note_on_c, 0, 77, 69
2, 30285, Note_on_c, 0, 81, 0
2, 30285, Note_on_c, 0, 77, 0
2, 30288, Note_on_c, 0, 79, 69
2, 30288, Note_on_c, 0, 76, 69
2, 30333, Note_on_c, 0, 79, 0
2, 30333, Note_on_c, 0, 76, 0
2, 30336, Note_on_c, 0, 77, 69
2, 30336, Note_on_c, 0, 74, 69
2, 30430, Note_on_c, 0, 77, 0
2, 30430, Note_on_c, 0, 74, 0
2, 30528, Note_on_c, 0, 77, 61
2, 30528, Note_on_c, 0, 74, 61
2, 30595, Note_on_c, 0, 77, 0
2, 30595, Note_on_c, 0, 74, 0
2, 30600, Note_on_c, 0, 79, 61
2, 30600, Note_on_c, 0, 76, 61
2, 30623, Note_on_c, 0, 79, 0
2, 30623, Note_on_c, 0, 76, 0
2, 30624, Note_on_c, 0, 81, 61
2, 30624, Note_on_c, 0, 77, 61
2, 30669, Note_on_c, 0, 81, 0
2, 30669, Note_on_c, 0, 77, 0
2, 30672, Note_on_c, 0, 79, 61
2, 30672, Note_on_c, 0, 76, 61
2, 30717, Note_on_c, 0, 79, 0
2, 30717, Note_on_c, 0, 76, 0
2, 30720, Note_on_c, 0, 77, 61
2, 30720, Note_on_c, 0, 74, 61
2, 30814, Note_on_c, 0, 77, 0
2, 30814, Note_on_c, 0, 74, 0
2, 30912, Note_on_c, 0, 76, 85
2, 31056, Note_on_c, 0, 76, 0
2, 31056, Note_on_c, 0, 79, 69
2, 31071, Note_on_c, 0, 79, 0
2, 31072, Note_on_c, 0, 81, 69
2, 31087, Note_on_c, 0, 81, 0
2, 31088, Note_on_c, 0, 82, 69
2, 31103, Note_on_c, 0, 82, 0
2, 31104, Note_on_c, 0, 81, 69
2, 31149, Note_on_c, 0, 81, 0
2, 31152, Note_on_c, 0, 74, 69
2, 31197, Note_on_c, 0, 74, 0
2, 31200, Note_on_c, 0, 77, 69
2, 31223, Note_on_c, 0, 77, 0
2, 31224, Note_on_c, 0, 76, 69
2, 31247, Note_on_c, 0, 76, 0
2, 31248, Note_on_c, 0, 74, 69
2, 31271, Note_on_c, 0, 74, 0
2, 31272, Note_on_c, 0, 73, 69
2, 31295, Note_on_c, 0, 73, 0
2, 31296, Note_on_c, 0, 74, 69
2, 31341, Note_on_c, 0, 74, 0
2, 31344, Note_on_c, 0, 69, 69
2, 31389, Note_on_c, 0, 69, 0
2, 31392, Note_on_c, 0, 70, 69
2, 31533, Note_on_c, 0, 70, 0
2, 31536, Note_on_c, 0, 68, 69
2, 31581, Note_on_c, 0, 68, 0
2, 31584, Note_on_c, 0, 69, 69
2, 31725, Note_on_c, 0, 69, 0
2, 31728, Note_on_c, 0, 70, 69
2, 31773, Note_on_c, 0, 70, 0
2, 31776, Note_on_c, 0, 69, 69
2, 31917, Note_on_c, 0, 69, 0
2, 31920, Note_on_c, 0, 70, 69
2, 31968, Note_on_c, 0, 70, 0
2, 31968, Note_on_c, 0, 69, 69
2, 32013, Note_on_c, 0, 69, 0
2, 32016, Note_on_c, 0, 70, 69
2, 32064, Note_on_c, 0, 70, 0
2, 32064, Note_on_c, 0, 69, 69
2, 32109, Note_on_c, 0, 69, 0
2, 32112, Note_on_c, 0, 76, 69
2, 32135, Note_on_c, 0, 76, 0
2, 32136, Note_on_c, 0, 77, 69
2, 32159, Note_on_c, 0, 77, 0
2, 32160, Note_on_c, 0, 81, 69
2, 32183, Note_on_c, 0, 81, 0
2, 32184, Note_on_c, 0, 79, 69
2, 32207, Note_on_c, 0, 79, 0
2, 32208, Note_on_c, 0, 77, 69
2, 32231, Note_on_c, 0, 77, 0
2, 32232, Note_on_c, 0, 76, 69
2, 32255, Note_on_c, 0, 76, 0
2, 32256, Note_on_c, 0, 77, 69
2, 32301, Note_on_c, 0, 77, 0
2, 32304, Note_on_c, 0, 74, 69
2, 32349, Note_on_c, 0, 74, 0
2, 32352, Note_on_c, 0, 75, 69
2, 32493, Note_on_c, 0, 75, 0
2, 32496, Note_on_c, 0, 73, 69
2, 32541, Note_on_c, 0, 73, 0
2, 32544, Note_on_c, 0, 74, 69
2, 32685, Note_on_c, 0, 74, 0
2, 32688, Note_on_c, 0, 75, 69
2, 32733, Note_on_c, 0, 75, 0
2, 32736, Note_on_c, 0, 74, 69
2, 32877, Note_on_c, 0, 74, 0
2, 32880, Note_on_c, 0, 75, 69
2, 32928, Note_on_c, 0, 75, 0
2, 32928, Note_on_c, 0, 74, 69
2, 32973, Note_on_c, 0, 74, 0
2, 32976, Note_on_c, 0, 75, 69
2, 33024, Note_on_c, 0, 75, 0
2, 33024, Note_on_c, 0, 74, 69
2, 33069, Note_on_c, 0, 74, 0
2, 33072, Note_on_c, 0, 81, 69
2, 33095, Note_on_c, 0, 81, 0
2, 33096, Note_on_c, 0, 82, 69
2, 33119, Note_on_c, 0, 82, 0
2, 33120, Note_on_c, 0, 86, 69
2, 33143, Note_on_c, 0, 86, 0
2, 33144, Note_on_c, 0, 84, 69
2, 33167, Note_on_c, 0, 84, 0
2, 33168, Note_on_c, 0, 82, 69
2, 33191, Note_on_c, 0, 82, 0
2, 33192, Note_on_c, 0, 81, 69
2, 33215, Note_on_c, 0, 81, 0
2, 33216, Note_on_c, 0, 82, 69
2, 33239, Note_on_c, 0, 82, 0
2, 33240, Note_on_c, 0, 79, 69
2, 33263, Note_on_c, 0, 79, 0
2, 33264, Note_on_c, 0, 81, 69
2, 33287, Note_on_c, 0, 81, 0
2, 33288, Note_on_c, 0, 82, 69
2, 33311, Note_on_c, 0, 82, 0
2, 33312, Note_on_c, 0, 84, 69
2, 33335, Note_on_c, 0, 84, 0
2, 33336, Note_on_c, 0, 82, 69
2, 33359, Note_on_c, 0, 82, 0
2, 33360, Note_on_c, 0, 81, 69
2, 33383, Note_on_c, 0, 81, 0
2, 33384, Note_on_c, 0, 79, 69
2, 33407, Note_on_c, 0, 79, 0
2, 33408, Note_on_c, 0, 81, 69
2, 33431, Note_on_c, 0, 81, 0
2, 33432, Note_on_c, 0, 77, 69
2, 33455, Note_on_c, 0, 77, 0
2, 33456, Note_on_c, 0, 79, 69
2, 33479, Note_on_c, 0, 79, 0
2, 33480, Note_on_c, 0, 81, 69
2, 33503, Note_on_c, 0, 81, 0
2, 33504, Note_on_c, 0, 82, 69
2, 33527, Note_on_c, 0, 82, 0
2, 33528, Note_on_c, 0, 81, 69
2, 33551, Note_on_c, 0, 81, 0
2, 33552, Note_on_c, 0, 79, 69
2, 33575, Note_on_c, 0, 79, 0
2, 33576, Note_on_c, 0, 77, 69
2, 33599, Note_on_c, 0, 77, 0
2, 33600, Note_on_c, 0, 79, 69
2, 33623, Note_on_c, 0, 79, 0
2, 33624, Note_on_c, 0, 76, 69
2, 33647, Note_on_c, 0, 76, 0
2, 33648, Note_on_c, 0, 77, 69
2, 33671, Note_on_c, 0, 77, 0
2, 33672, Note_on_c, 0, 79, 69
2, 33695, Note_on_c, 0, 79, 0
2, 33696, Note_on_c, 0, 81, 69
2, 33719, Note_on_c, 0, 81, 0
2, 33720, Note_on_c, 0, 79, 69
2, 33743, Note_on_c, 0, 79, 0
2, 33744, Note_on_c, 0, 77, 69
2, 33767, Note_on_c, 0, 77, 0
2, 33768, Note_on_c, 0, 76, 69
2, 33791, Note_on_c, 0, 76, 0
2, 33816, Note_on_c, 0, 77, 69
2, 33839, Note_on_c, 0, 77, 0
2, 33840, Note_on_c, 0, 76, 69
2, 33863, Note_on_c, 0, 76, 0
2, 33864, Note_on_c, 0, 74, 69
2, 33887, Note_on_c, 0, 74, 0
2, 33912, Note_on_c, 0, 79, 69
2, 33935, Note_on_c, 0, 79, 0
2, 33936, Note_on_c, 0, 77, 69
2, 33959, Note_on_c, 0, 77, 0
2, 33960, Note_on_c, 0, 76, 69
2, 33983, Note_on_c, 0, 76, 0
2, 33984, Note_on_c, 0, 81, 69
2, 34007, Note_on_c, 0, 81, 0
2, 34008, Note_on_c, 0, 77, 70
2, 34031, Note_on_c, 0, 77, 0
2, 34032, Note_on_c, 0, 76, 71
2, 34055, Note_on_c, 0, 76, 0
2, 34056, Note_on_c, 0, 74, 73
2, 34079, Note_on_c, 0, 74, 0
2, 34080, Note_on_c, 0, 82, 74
2, 34103, Note_on_c, 0, 82, 0
2, 34104, Note_on_c, 0, 79, 76
2, 34127, Note_on_c, 0, 79, 0
2, 34128, Note_on_c, 0, 76, 75
2, 34151, Note_on_c, 0, 76, 0
2, 34152, Note_on_c, 0, 74, 74
2, 34175, Note_on_c, 0, 74, 0
2, 34176, Note_on_c, 0, 74, 73
2, 34188, Note_on_c, 0, 74, 0
2, 34188, Note_on_c, 0, 76, 73
2, 34200, Note_on_c, 0, 76, 0
2, 34200, Note_on_c, 0, 74, 73
2, 34212, Note_on_c, 0, 74, 0
2, 34212, Note_on_c, 0, 76, 73
2, 34221, Note_on_c, 0, 76, 0
2, 34224, Note_on_c, 0, 73, 71
2, 34269, Note_on_c, 0, 73, 0
2, 34368, Note_on_c, 0, 76, 69
2, 34435, Note_on_c, 0, 76, 0
2, 34440, Note_on_c, 0, 78, 69
2, 34463, Note_on_c, 0, 78, 0
2, 34464, Note_on_c, 0, 79, 69
2, 34509, Note_on_c, 0, 79, 0
2, 34512, Note_on_c, 0, 79, 69
2, 34557, Note_on_c, 0, 79, 0
2, 34560, Note_on_c, 0, 78, 69
2, 34649, Note_on_c, 0, 78, 0
2, 34752, Note_on_c, 0, 76, 70
2, 34819, Note_on_c, 0, 76, 0
2, 34824, Note_on_c, 0, 78, 71
2, 34847, Note_on_c, 0, 78, 0
2, 34848, Note_on_c, 0, 79, 71
2, 34893, Note_on_c, 0, 79, 0
2, 34896, Note_on_c, 0, 79, 71
2, 34941, Note_on_c, 0, 79, 0
2, 34944, Note_on_c, 0, 78, 71
2, 35033, Note_on_c, 0, 78, 0
2, 35136, Note_on_c, 0, 81, 72
2, 35203, Note_on_c, 0, 81, 0
2, 35208, Note_on_c, 0, 83, 73
2, 35231, Note_on_c, 0, 83, 0
2, 35232, Note_on_c, 0, 84, 73
2, 35277, Note_on_c, 0, 84, 0
2, 35280, Note_on_c, 0, 84, 73
2, 35325, Note_on_c, 0, 84, 0
2, 35328, Note_on_c, 0, 83, 73
2, 35417, Note_on_c, 0, 83, 0
2, 35520, Note_on_c, 0, 83, 74
2, 35587, Note_on_c, 0, 83, 0
2, 35592, Note_on_c, 0, 85, 74
2, 35615, Note_on_c, 0, 85, 0
2, 35616, Note_on_c, 0, 86, 75
2, 35661, Note_on_c, 0, 86, 0
2, 35664, Note_on_c, 0, 86, 75
2, 35709, Note_on_c, 0, 86, 0
2, 35712, Note_on_c, 0, 85, 75
2, 35801, Note_on_c, 0, 85, 0
2, 35928, Note_on_c, 0, 76, 76
2, 35951, Note_on_c, 0, 76, 0
2, 35952, Note_on_c, 0, 74, 76
2, 35975, Note_on_c, 0, 74, 0
2, 35976, Note_on_c, 0, 73, 76
2, 35999, Note_on_c, 0, 73, 0
2, 36000, Note_on_c, 0, 71, 76
2, 36023, Note_on_c, 0, 71, 0
2, 36024, Note_on_c, 0, 69, 76
2, 36047, Note_on_c, 0, 69, 0
2, 36048, Note_on_c, 0, 68, 76
2, 36071, Note_on_c, 0, 68, 0
2, 36072, Note_on_c, 0, 69, 76
2, 36095, Note_on_c, 0, 69, 0
2, 36120, Note_on_c, 0, 76, 76
2, 36143, Note_on_c, 0, 76, 0
2, 36144, Note_on_c, 0, 74, 76
2, 36167, Note_on_c, 0, 74, 0
2, 36168, Note_on_c, 0, 73, 76
2, 36191, Note_on_c, 0, 73, 0
2, 36192, Note_on_c, 0, 71, 76
2, 36215, Note_on_c, 0, 71, 0
2, 36216, Note_on_c, 0, 69, 76
2, 36239, Note_on_c, 0, 69, 0
2, 36240, Note_on_c, 0, 68, 76
2, 36263, Note_on_c, 0, 68, 0
2, 36264, Note_on_c, 0, 69, 76
2, 36287, Note_on_c, 0, 69, 0
2, 36312, Note_on_c, 0, 79, 76
2, 36335, Note_on_c, 0, 79, 0
2, 36336, Note_on_c, 0, 78, 76
2, 36359, Note_on_c, 0, 78, 0
2, 36360, Note_on_c, 0, 76, 76
2, 36383, Note_on_c, 0, 76, 0
2, 36384, Note_on_c, 0, 74, 76
2, 36407, Note_on_c, 0, 74, 0
2, 36408, Note_on_c, 0, 73, 76
2, 36431, Note_on_c, 0, 73, 0
2, 36432, Note_on_c, 0, 71, 76
2, 36455, Note_on_c, 0, 71, 0
2, 36456, Note_on_c, 0, 69, 76
2, 36479, Note_on_c, 0, 69, 0
2, 36480, Note_on_c, 0, 67, 76
2, 36528, Note_on_c, 0, 67, 0
2, 36528, Note_on_c, 0, 66, 76
2, 36573, Note_on_c, 0, 66, 0
2, 36696, Note_on_c, 0, 71, 76
2, 36719, Note_on_c, 0, 71, 0
2, 36720, Note_on_c, 0, 73, 76
2, 36743, Note_on_c, 0, 73, 0
2, 36744, Note_on_c, 0, 74, 76
2, 36767, Note_on_c, 0, 74, 0
2, 36792, Note_on_c, 0, 69, 76
2, 36815, Note_on_c, 0, 69, 0
2, 36816, Note_on_c, 0, 73, 76
2, 36839, Note_on_c, 0, 73, 0
2, 36840, Note_on_c, 0, 74, 76
2, 36863, Note_on_c, 0, 74, 0
2, 36864, Note_on_c, 0, 67, 76
2, 36887, Note_on_c, 0, 67, 0
2, 36888, Note_on_c, 0, 71, 76
2, 36911, Note_on_c, 0, 71, 0
2, 36912, Note_on_c, 0, 69, 76
2, 36935, Note_on_c, 0, 69, 0
2, 36936, Note_on_c, 0, 67, 76
2, 36959, Note_on_c, 0, 67, 0
2, 36960, Note_on_c, 0, 67, 76
2, 36983, Note_on_c, 0, 67, 0
2, 36984, Note_on_c, 0, 66, 76
2, 37007, Note_on_c, 0, 66, 0
2, 37008, Note_on_c, 0, 64, 76
2, 37031, Note_on_c, 0, 64, 0
2, 37032, Note_on_c, 0, 62, 76
2, 37055, Note_on_c, 0, 62, 0
2, 37080, Note_on_c, 0, 71, 61
2, 37103, Note_on_c, 0, 71, 0
2, 37104, Note_on_c, 0, 73, 61
2, 37127, Note_on_c, 0, 73, 0
2, 37128, Note_on_c, 0, 74, 61
2, 37151, Note_on_c, 0, 74, 0
2, 37176, Note_on_c, 0, 69, 61
2, 37199, Note_on_c, 0, 69, 0
2, 37200, Note_on_c, 0, 73, 61
2, 37223, Note_on_c, 0, 73, 0
2, 37224, Note_on_c, 0, 74, 61
2, 37247, Note_on_c, 0, 74, 0
2, 37248, Note_on_c, 0, 67, 61
2, 37271, Note_on_c, 0, 67, 0
2, 37272, Note_on_c, 0, 71, 61
2, 37295, Note_on_c, 0, 71, 0
2, 37296, Note_on_c, 0, 69, 61
2, 37319, Note_on_c, 0, 69, 0
2, 37320, Note_on_c, 0, 67, 61
2, 37343, Note_on_c, 0, 67, 0
2, 37344, Note_on_c, 0, 67, 61
2, 37367, Note_on_c, 0, 67, 0
2, 37368, Note_on_c, 0, 66, 68
2, 37391, Note_on_c, 0, 66, 0
2, 37392, Note_on_c, 0, 64, 75
2, 37415, Note_on_c, 0, 64, 0
2, 37416, Note_on_c, 0, 62, 82
2, 37439, Note_on_c, 0, 62, 0
2, 37440, Control_c, 0, 64, 127
2, 37464, Note_on_c, 0, 62, 89
2, 37487, Note_on_c, 0, 62, 0
2, 37488, Note_on_c, 0, 68, 89
2, 37511, Note_on_c, 0, 68, 0
2, 37512, Note_on_c, 0, 62, 89
2, 37535, Note_on_c, 0, 62, 0
2, 37536, Note_on_c, 0, 74, 89
2, 37559, Note_on_c, 0, 74, 0
2, 37560, Note_on_c, 0, 62, 89
2, 37583, Note_on_c, 0, 62, 0
2, 37584, Note_on_c, 0, 68, 89
2, 37607, Note_on_c, 0, 68, 0
2, 37608, Note_on_c, 0, 62, 89
2, 37631, Note_on_c, 0, 62, 0
2, 37656, Note_on_c, 0, 62, 89
2, 37679, Note_on_c, 0, 62, 0
2, 37680, Note_on_c, 0, 68, 89
2, 37703, Note_on_c, 0, 68, 0
2, 37704, Note_on_c, 0, 62, 89
2, 37727, Note_on_c, 0, 62, 0
2, 37728, Note_on_c, 0, 74, 89
2, 37751, Note_on_c, 0, 74, 0
2, 37752, Note_on_c, 0, 62, 89
2, 37775, Note_on_c, 0, 62, 0
2, 37776, Note_on_c, 0, 68, 89
2, 37799, Note_on_c, 0, 68, 0
2, 37800, Control_c, 0, 64, 0
2, 37800, Note_on_c, 0, 62, 89
2, 37823, Note_on_c, 0, 62, 0
2, 37824, Control_c, 0, 64, 127
2, 37848, Note_on_c, 0, 64, 89
2, 37871, Note_on_c, 0, 64, 0
2, 37872, Note_on_c, 0, 71, 89
2, 37895, Note_on_c, 0, 71, 0
2, 37896, Note_on_c, 0, 64, 89
2, 37919, Note_on_c, 0, 64, 0
2, 37920, Note_on_c, 0, 74, 89
2, 37943, Note_on_c, 0, 74, 0
2, 37944, Note_on_c, 0, 64, 89
2, 37967, Note_on_c, 0, 64, 0
2, 37968, Note_on_c, 0, 71, 89
2, 37991, Note_on_c, 0, 71, 0
2, 37992, Control_c, 0, 64, 0
2, 37992, Note_on_c, 0, 64, 89
2, 38015, Note_on_c, 0, 64, 0
2, 38016, Control_c, 0, 64, 127
2, 38040, Note_on_c, 0, 67, 89
2, 38063, Note_on_c, 0, 67, 0
2, 38064, Note_on_c, 0, 69, 89
2, 38087, Note_on_c, 0, 69, 0
2, 38088, Note_on_c, 0, 67, 89
2, 38111, Note_on_c, 0, 67, 0
2, 38112, Note_on_c, 0, 76, 89
2, 38135, Note_on_c, 0, 76, 0
2, 38136, Note_on_c, 0, 67, 89
2, 38159, Note_on_c, 0, 67, 0
2, 38160, Note_on_c, 0, 69, 89
2, 38183, Note_on_c, 0, 69, 0
2, 38184, Control_c, 0, 64, 0
2, 38184, Note_on_c, 0, 67, 89
2, 38207, Note_on_c, 0, 67, 0
2, 38208, Control_c, 0, 64, 127
2, 38232, Note_on_c, 0, 67, 89
2, 38255, Note_on_c, 0, 67, 0
2, 38256, Note_on_c, 0, 73, 89
2, 38279, Note_on_c, 0, 73, 0
2, 38280, Note_on_c, 0, 67, 89
2, 38303, Note_on_c, 0, 67, 0
2, 38304, Note_on_c, 0, 76, 89
2, 38327, Note_on_c, 0, 76, 0
2, 38328, Note_on_c, 0, 67, 89
2, 38351, Note_on_c, 0, 67, 0
2, 38352, Note_on_c, 0, 73, 89
2, 38375, Note_on_c, 0, 73, 0
2, 38376, Control_c, 0, 64, 0
2, 38376, Note_on_c, 0, 67, 89
2, 38399, Note_on_c, 0, 67, 0
2, 38400, Control_c, 0, 64, 127
2, 38424, Note_on_c, 0, 66, 89
2, 38447, Note_on_c, 0, 66, 0
2, 38448, Note_on_c, 0, 74, 89
2, 38471, Note_on_c, 0, 74, 0
2, 38472, Note_on_c, 0, 66, 89
2, 38495, Note_on_c, 0, 66, 0
2, 38520, Note_on_c, 0, 64, 89
2, 38543, Note_on_c, 0, 64, 0
2, 38544, Note_on_c, 0, 74, 89
2, 38567, Note_on_c, 0, 74, 0
2, 38568, Control_c, 0, 64, 0
2, 38568, Note_on_c, 0, 64, 89
2, 38591, Note_on_c, 0, 64, 0
2, 38592, Control_c, 0, 64, 127
2, 38616, Note_on_c, 0, 64, 89
2, 38639, Note_on_c, 0, 64, 0
2, 38640, Note_on_c, 0, 73, 89
2, 38663, Note_on_c, 0, 73, 0
2, 38664, Note_on_c, 0, 64, 89
2, 38687, Note_on_c, 0, 64, 0
2, 38712, Note_on_c, 0, 67, 89
2, 38735, Note_on_c, 0, 67, 0
2, 38736, Note_on_c, 0, 76, 89
2, 38759, Note_on_c, 0, 76, 0
2, 38760, Control_c, 0, 64, 0
2, 38760, Note_on_c, 0, 67, 89
2, 38783, Note_on_c, 0, 67, 0
2, 38784, Control_c, 0, 64, 127
2, 38808, Note_on_c, 0, 66, 89
2, 38831, Note_on_c, 0, 66, 0
2, 38832, Note_on_c, 0, 74, 89
2, 38855, Note_on_c, 0, 74, 0
2, 38856, Note_on_c, 0, 66, 89
2, 38879, Note_on_c, 0, 66, 0
2, 38904, Note_on_c, 0, 66, 89
2, 38927, Note_on_c, 0, 66, 0
2, 38928, Note_on_c, 0, 74, 89
2, 38951, Note_on_c, 0, 74, 0
2, 38952, Control_c, 0, 64, 0
2, 38952, Note_on_c, 0, 66, 89
2, 38975, Note_on_c, 0, 66, 0
2, 38976, Note_on_c, 0, 73, 89
2, 38976, Note_on_c, 0, 64, 89
2, 39065, Note_on_c, 0, 73, 0
2, 39065, Note_on_c, 0, 64, 0
2, 39168, Note_on_c, 0, 78, 69
2, 39168, Note_on_c, 0, 74, 69
2, 39235, Note_on_c, 0, 78, 0
2, 39235, Note_on_c, 0, 74, 0
2, 39240, Note_on_c, 0, 79, 69
2, 39240, Note_on_c, 0, 76, 69
2, 39263, Note_on_c, 0, 79, 0
2, 39263, Note_on_c, 0, 76, 0
2, 39264, Note_on_c, 0, 81, 69
2, 39264, Note_on_c, 0, 78, 69
2, 39309, Note_on_c, 0, 81, 0
2, 39309, Note_on_c, 0, 78, 0
2, 39312, Note_on_c, 0, 79, 69
2, 39312, Note_on_c, 0, 76, 69
2, 39357, Note_on_c, 0, 79, 0
2, 39357, Note_on_c, 0, 76, 0
2, 39360, Note_on_c, 0, 78, 69
2, 39360, Note_on_c, 0, 74, 69
2, 39454, Note_on_c, 0, 78, 0
2, 39454, Note_on_c, 0, 74, 0
2, 39552, Note_on_c, 0, 78, 61
2, 39552, Note_on_c, 0, 74, 61
2, 39619, Note_on_c, 0, 78, 0
2, 39619, Note_on_c, 0, 74, 0
2, 39624, Note_on_c, 0, 79, 61
2, 39624, Note_on_c, 0, 76, 61
2, 39647, Note_on_c, 0, 79, 0
2, 39647, Note_on_c, 0, 76, 0
2, 39648, Note_on_c, 0, 81, 61
2, 39648, Note_on_c, 0, 78, 61
2, 39693, Note_on_c, 0, 81, 0
2, 39693, Note_on_c, 0, 78, 0
2, 39696, Note_on_c, 0, 79, 61
2, 39696, Note_on_c, 0, 76, 61
2, 39741, Note_on_c, 0, 79, 0
2, 39741, Note_on_c, 0, 76, 0
2, 39744, Note_on_c, 0, 78, 61
2, 39744, Note_on_c, 0, 74, 61
2, 39838, Note_on_c, 0, 78, 0
2, 39838, Note_on_c, 0, 74, 0
2, 39936, Note_on_c, 0, 78, 69
2, 39936, Note_on_c, 0, 74, 69
2, 40003, Note_on_c, 0, 78, 0
2, 40003, Note_on_c, 0, 74, 0
2, 40008, Note_on_c, 0, 79, 69
2, 40008, Note_on_c, 0, 76, 69
2, 40031, Note_on_c, 0, 79, 0
2, 40031, Note_on_c, 0, 76, 0
2, 40032, Note_on_c, 0, 81, 69
2, 40032, Note_on_c, 0, 78, 69
2, 40077, Note_on_c, 0, 81, 0
2, 40077, Note_on_c, 0, 78, 0
2, 40080, Note_on_c, 0, 79, 69
2, 40080, Note_on_c, 0, 76, 69
2, 40125, Note_on_c, 0, 79, 0
2, 40125, Note_on_c, 0, 76, 0
2, 40128, Note_on_c, 0, 78, 69
2, 40128, Note_on_c, 0, 74, 69
2, 40173, Note_on_c, 0, 78, 0
2, 40173, Note_on_c, 0, 74, 0
2, 40176, Note_on_c, 0, 86, 71
2, 40221, Note_on_c, 0, 86, 0
2, 40224, Note_on_c, 0, 85, 73
2, 40247, Note_on_c, 0, 85, 0
2, 40248, Note_on_c, 0, 83, 74
2, 40271, Note_on_c, 0, 83, 0
2, 40272, Note_on_c, 0, 81, 76
2, 40295, Note_on_c, 0, 81, 0
2, 40296, Note_on_c, 0, 79, 74
2, 40319, Note_on_c, 0, 79, 0
2, 40320, Note_on_c, 0, 79, 73
2, 40343, Note_on_c, 0, 79, 0
2, 40344, Note_on_c, 0, 78, 72
2, 40367, Note_on_c, 0, 78, 0
2, 40368, Note_on_c, 0, 76, 71
2, 40391, Note_on_c, 0, 76, 0
2, 40392, Note_on_c, 0, 74, 70
2, 40415, Note_on_c, 0, 74, 0
2, 40416, Note_on_c, 0, 78, 69
2, 40431, Note_on_c, 0, 78, 0
2, 40432, Note_on_c, 0, 76, 69
2, 40447, Note_on_c, 0, 76, 0
2, 40448, Note_on_c, 0, 78, 69
2, 40463, Note_on_c, 0, 78, 0
2, 40464, Note_on_c, 0, 76, 69
2, 40479, Note_on_c, 0, 76, 0
2, 40480, Note_on_c, 0, 74, 69
2, 40495, Note_on_c, 0, 74, 0
2, 40496, Note_on_c, 0, 76, 69
2, 40511, Note_on_c, 0, 76, 0
2, 40512, Note_on_c, 0, 74, 69
2, 40601, Note_on_c, 0, 74, 0
2, 40608, Note_on_c, 0, 81, 76
2, 40631, Note_on_c, 0, 81, 0
2, 40632, Note_on_c, 0, 78, 76
2, 40655, Note_on_c, 0, 78, 0
2, 40656, Note_on_c, 0, 74, 76
2, 40679, Note_on_c, 0, 74, 0
2, 40680, Note_on_c, 0, 69, 76
2, 40703, Note_on_c, 0, 69, 0
2, 40704, Note_on_c, 0, 70, 76
2, 40752, Note_on_c, 0, 70, 0
2, 40752, Note_on_c, 0, 71, 76
2, 40797, Note_on_c, 0, 71, 0
2, 40800, Note_on_c, 0, 79, 76
2, 40823, Note_on_c, 0, 79, 0
2, 40824, Note_on_c, 0, 76, 76
2, 40847, Note_on_c, 0, 76, 0
2, 40848, Note_on_c, 0, 73, 76
2, 40871, Note_on_c, 0, 73, 0
2, 40872, Note_on_c, 0, 69, 76
2, 40895, Note_on_c, 0, 69, 0
2, 40896, Note_on_c, 0, 73, 76
2, 40944, Note_on_c, 0, 73, 0
2, 40944, Note_on_c, 0, 74, 76
2, 40989, Note_on_c, 0, 74, 0
2, 40992, Note_on_c, 0, 81, 69
2, 41015, Note_on_c, 0, 81, 0
2, 41016, Note_on_c, 0, 78, 69
2, 41039, Note_on_c, 0, 78, 0
2, 41040, Note_on_c, 0, 74, 69
2, 41063, Note_on_c, 0, 74, 0
2, 41064, Note_on_c, 0, 69, 69
2, 41087, Note_on_c, 0, 69, 0
2, 41088, Note_on_c, 0, 70, 69
2, 41136, Note_on_c, 0, 70, 0
2, 41136, Note_on_c, 0, 71, 69
2, 41181, Note_on_c, 0, 71, 0
2, 41184, Note_on_c, 0, 79, 69
2, 41207, Note_on_c, 0, 79, 0
2, 41208, Note_on_c, 0, 76, 69
2, 41231, Note_on_c, 0, 76, 0
2, 41232, Note_on_c, 0, 73, 69
2, 41255, Note_on_c, 0, 73, 0
2, 41256, Note_on_c, 0, 69, 69
2, 41279, Note_on_c, 0, 69, 0
2, 41280, Note_on_c, 0, 76, 61
2, 41292, Note_on_c, 0, 76, 0
2, 41292, Note_on_c, 0, 74, 61
2, 41304, Note_on_c, 0, 74, 0
2, 41304, Note_on_c, 0, 73, 61
2, 41316, Note_on_c, 0, 73, 0
2, 41316, Note_on_c, 0, 74, 61
2, 41369, Note_on_c, 0, 74, 0
2, 41472, End_track
3, 0, Start_track
3, 0, Program_c, 0, 0
3, 0, Control_c, 0, 7, 127
3, 0, Control_c, 0, 10, 64
3, 1920, Note_on_c, 0, 69, 69
3, 2053, Note_on_c, 0, 69, 0
3, 2064, Note_on_c, 0, 76, 70
3, 2109, Note_on_c, 0, 76, 0
3, 2112, Note_on_c, 0, 74, 71
3, 2157, Note_on_c, 0, 74, 0
3, 2304, Note_on_c, 0, 71, 73
3, 2437, Note_on_c, 0, 71, 0
3, 2448, Note_on_c, 0, 78, 74
3, 2493, Note_on_c, 0, 78, 0
3, 2496, Note_on_c, 0, 76, 75
3, 2541, Note_on_c, 0, 76, 0
3, 5184, Control_c, 0, 64, 0
3, 10176, Note_on_c, 0, 69, 69
3, 10309, Note_on_c, 0, 69, 0
3, 10320, Note_on_c, 0, 76, 70
3, 10365, Note_on_c, 0, 76, 0
3, 10368, Note_on_c, 0, 74, 71
3, 10413, Note_on_c, 0, 74, 0
3, 10560, Note_on_c, 0, 71, 73
3, 10693, Note_on_c, 0, 71, 0
3, 10704, Note_on_c, 0, 78, 74
3, 10749, Note_on_c, 0, 78, 0
3, 10752, Note_on_c, 0, 76, 75
3, 10797, Note_on_c, 0, 76, 0
3, 13440, Control_c, 0, 64, 0
3, 21888, Note_on_c, 0, 69, 69
3, 22021, Note_on_c, 0, 69, 0
3, 22032, Note_on_c, 0, 76, 69
3, 22077, Note_on_c, 0, 76, 0
3, 22080, Note_on_c, 0, 74, 69
3, 22169, Note_on_c, 0, 74, 0
3, 22272, Note_on_c, 0, 69, 70
3, 22405, Note_on_c, 0, 69, 0
3, 22416, Note_on_c, 0, 76, 71
3, 22461, Note_on_c, 0, 76, 0
3, 22464, Note_on_c, 0, 74, 71
3, 22553, Note_on_c, 0, 74, 0
3, 22656, Note_on_c, 0, 74, 72
3, 22789, Note_on_c, 0, 74, 0
3, 22800, Note_on_c, 0, 81, 73
3, 22845, Note_on_c, 0, 81, 0
3, 22848, Note_on_c, 0, 79, 73
3, 22937, Note_on_c, 0, 79, 0
3, 23040, Note_on_c, 0, 76, 74
3, 23173, Note_on_c, 0, 76, 0
3, 23184, Note_on_c, 0, 83, 75
3, 23229, Note_on_c, 0, 83, 0
3, 23232, Note_on_c, 0, 81, 75
3, 23321, Note_on_c, 0, 81, 0
3, 34368, Note_on_c, 0, 69, 69
3, 34501, Note_on_c, 0, 69, 0
3, 34512, Note_on_c, 0, 76, 69
3, 34557, Note_on_c, 0, 76, 0
3, 34560, Note_on_c, 0, 74, 69
3, 34649, Note_on_c, 0, 74, 0
3, 34752, Note_on_c, 0, 69, 70
3, 34885, Note_on_c, 0, 69, 0
3, 34896, Note_on_c, 0, 76, 71
3, 34941, Note_on_c, 0, 76, 0
3, 34944, Note_on_c, 0, 74, 71
3, 35033, Note_on_c, 0, 74, 0
3, 35136, Note_on_c, 0, 74, 72
3, 35269, Note_on_c, 0, 74, 0
3, 35280, Note_on_c, 0, 81, 73
3, 35325, Note_on_c, 0, 81, 0
3, 35328, Note_on_c, 0, 79, 73
3, 35417, Note_on_c, 0, 79, 0
3, 35520, Note_on_c, 0, 76, 74
3, 35653, Note_on_c, 0, 76, 0
3, 35664, Note_on_c, 0, 83, 75
3, 35709, Note_on_c, 0, 83, 0
3, 35712, Note_on_c, 0, 81, 75
3, 35801, Note_on_c, 0, 81, 0
3, 41472, End_track
4, 0, Start_track
4, 0, Program_c, 1, 0
4, 0, Control_c, 1, 7, 127
4, 0, Control_c, 1, 10, 64
4, 144, Note_on_c, 1, 57, 69
4, 189, Note_on_c, 1, 57, 0
4, 192, Note_on_c, 1, 59, 69
4, 286, Note_on_c, 1, 59, 0
4, 384, Note_on_c, 1, 59, 69
4, 384, Note_on_c, 1, 55, 69
4, 561, Note_on_c, 1, 59, 0
4, 561, Note_on_c, 1, 55, 0
4, 624, Note_on_c, 1, 62, 69
4, 713, Note_on_c, 1, 62, 0
4, 720, Note_on_c, 1, 61, 69
4, 765, Note_on_c, 1, 61, 0
4, 768, Note_on_c, 1, 62, 69
4, 857, Note_on_c, 1, 62, 0
4, 1104, Note_on_c, 1, 57, 69
4, 1149, Note_on_c, 1, 57, 0
4, 1152, Note_on_c, 1, 59, 69
4, 1246, Note_on_c, 1, 59, 0
4, 1344, Note_on_c, 1, 57, 69
4, 1344, Note_on_c, 1, 54, 69
4, 1521, Note_on_c, 1, 57, 0
4, 1521, Note_on_c, 1, 54, 0
4, 1536, Note_on_c, 1, 55, 69
4, 1581, Note_on_c, 1, 55, 0
4, 1584, Note_on_c, 1, 54, 69
4, 1629, Note_on_c, 1, 54, 0
4, 1632, Note_on_c, 1, 52, 69
4, 1677, Note_on_c, 1, 52, 0
4, 1680, Note_on_c, 1, 50, 69
4, 1725, Note_on_c, 1, 50, 0
4, 1728, Note_on_c, 1, 57, 69
4, 1773, Note_on_c, 1, 57, 0
4, 1776, Note_on_c, 1, 52, 69
4, 1821, Note_on_c, 1, 52, 0
4, 1824, Note_on_c, 1, 45, 69
4, 1913, Note_on_c, 1, 45, 0
4, 1920, Note_on_c, 1, 49, 69
4, 1943, Note_on_c, 1, 49, 0
4, 1944, Note_on_c, 1, 57, 69
4, 1967, Note_on_c, 1, 57, 0
4, 1968, Note_on_c, 1, 56, 69
4, 1991, Note_on_c, 1, 56, 0
4, 1992, Note_on_c, 1, 57, 69
4, 2015, Note_on_c, 1, 57, 0
4, 2016, Note_on_c, 1, 49, 70
4, 2039, Note_on_c, 1, 49, 0
4, 2040, Note_on_c, 1, 57, 70
4, 2063, Note_on_c, 1, 57, 0
4, 2064, Note_on_c, 1, 56, 70
4, 2087, Note_on_c, 1, 56, 0
4, 2088, Note_on_c, 1, 57, 70
4, 2111, Note_on_c, 1, 57, 0
4, 2112, Note_on_c, 1, 50, 71
4, 2135, Note_on_c, 1, 50, 0
4, 2136, Note_on_c, 1, 57, 71
4, 2159, Note_on_c, 1, 57, 0
4, 2160, Note_on_c, 1, 56, 71
4, 2183, Note_on_c, 1, 56, 0
4, 2184, Note_on_c, 1, 57, 72
4, 2207, Note_on_c, 1, 57, 0
4, 2208, Note_on_c, 1, 50, 72
4, 2231, Note_on_c, 1, 50, 0
4, 2232, Note_on_c, 1, 57, 72
4, 2255, Note_on_c, 1, 57, 0
4, 2256, Note_on_c, 1, 56, 72
4, 2279, Note_on_c, 1, 56, 0
4, 2280, Note_on_c, 1, 57, 73
4, 2303, Note_on_c, 1, 57, 0
4, 2304, Note_on_c, 1, 51, 73
4, 2327, Note_on_c, 1, 51, 0
4, 2328, Note_on_c, 1, 59, 73
4, 2351, Note_on_c, 1, 59, 0
4, 2352, Note_on_c, 1, 58, 74
4, 2375, Note_on_c, 1, 58, 0
4, 2376, Note_on_c, 1, 59, 74
4, 2399, Note_on_c, 1, 59, 0
4, 2400, Note_on_c, 1, 51, 74
4, 2423, Note_on_c, 1, 51, 0
4, 2424, Note_on_c, 1, 59, 74
4, 2447, Note_on_c, 1, 59, 0
4, 2448, Note_on_c, 1, 58, 75
4, 2471, Note_on_c, 1, 58, 0
4, 2472, Note_on_c, 1, 59, 75
4, 2495, Note_on_c, 1, 59, 0
4, 2496, Note_on_c, 1, 52, 75
4, 2519, Note_on_c, 1, 52, 0
4, 2520, Note_on_c, 1, 59, 76
4, 2543, Note_on_c, 1, 59, 0
4, 2544, Note_on_c, 1, 58, 76
4, 2567, Note_on_c, 1, 58, 0
4, 2568, Note_on_c, 1, 59, 76
4, 2591, Note_on_c, 1, 59, 0
4, 2592, Note_on_c, 1, 52, 76
4, 2615, Note_on_c, 1, 52, 0
4, 2616, Note_on_c, 1, 59, 76
4, 2639, Note_on_c, 1, 59, 0
4, 2640, Note_on_c, 1, 58, 76
4, 2663, Note_on_c, 1, 58, 0
4, 2664, Note_on_c, 1, 59, 76
4, 2687, Note_on_c, 1, 59, 0
4, 2688, Note_on_c, 1, 56, 76
4, 2688, Note_on_c, 1, 52, 76
4, 2733, Note_on_c, 1, 56, 0
4, 2733, Note_on_c, 1, 52, 0
4, 2880, Note_on_c, 1, 69, 76
4, 2880, Note_on_c, 1, 66, 76
4, 2925, Note_on_c, 1, 69, 0
4, 2925, Note_on_c, 1, 66, 0
4, 3072, Note_on_c, 1, 71, 76
4, 3072, Note_on_c, 1, 68, 76
4, 3249, Note_on_c, 1, 71, 0
4, 3249, Note_on_c, 1, 68, 0
4, 3288, Note_on_c, 1, 57, 76
4, 3311, Note_on_c, 1, 57, 0
4, 3312, Note_on_c, 1, 61, 76
4, 3335, Note_on_c, 1, 61, 0
4, 3336, Note_on_c, 1, 64, 76
4, 3359, Note_on_c, 1, 64, 0
4, 3360, Note_on_c, 1, 69, 76
4, 3405, Note_on_c, 1, 69, 0
4, 3408, Note_on_c, 1, 57, 76
4, 3453, Note_on_c, 1, 57, 0
4, 3456, Note_on_c, 1, 69, 76
4, 3545, Note_on_c, 1, 69, 0
4, 3552, Note_on_c, 1, 69, 76
4, 3693, Note_on_c, 1, 69, 0
4, 3696, Note_on_c, 1, 68, 76
4, 3741, Note_on_c, 1, 68, 0
4, 3744, Note_on_c, 1, 69, 76
4, 3789, Note_on_c, 1, 69, 0
4, 3840, Note_on_c, 1, 69, 61
4, 3929, Note_on_c, 1, 69, 0
4, 3936, Note_on_c, 1, 69, 61
4, 4077, Note_on_c, 1, 69, 0
4, 4080, Note_on_c, 1, 68, 61
4, 4125, Note_on_c, 1, 68, 0
4, 4128, Note_on_c, 1, 69, 61
4, 4173, Note_on_c, 1, 69, 0
4, 4224, Control_c, 1, 64, 127
4, 4224, Note_on_c, 1, 65, 89
4, 4224, Note_on_c, 1, 53, 89
4, 4401, Note_on_c, 1, 65, 0
4, 4401, Note_on_c, 1, 53, 0
4, 4416, Control_c, 1, 64, 0
4, 4416, Control_c, 1, 64, 127
4, 4416, Note_on_c, 1, 66, 89
4, 4416, Note_on_c, 1, 54, 89
4, 4593, Note_on_c, 1, 66, 0
4, 4593, Note_on_c, 1, 54, 0
4, 4608, Note_on_c, 1, 63, 89
4, 4608, Note_on_c, 1, 51, 89
4, 4785, Note_on_c, 1, 63, 0
4, 4785, Note_on_c, 1, 51, 0
4, 4800, Control_c, 1, 64, 0
4, 4800, Control_c, 1, 64, 127
4, 4800, Note_on_c, 1, 68, 89
4, 4800, Note_on_c, 1, 56, 89
4, 4977, Note_on_c, 1, 68, 0
4, 4977, Note_on_c, 1, 56, 0
4, 4992, Control_c, 1, 64, 0
4, 4992, Control_c, 1, 64, 127
4, 4992, Note_on_c, 1, 65, 89
4, 4992, Note_on_c, 1, 53, 89
4, 5169, Note_on_c, 1, 65, 0
4, 5169, Note_on_c, 1, 53, 0
4, 5184, Control_c, 1, 64, 0
4, 5184, Control_c, 1, 64, 127
4, 5184, Note_on_c, 1, 66, 89
4, 5184, Note_on_c, 1, 54, 89
4, 5273, Note_on_c, 1, 66, 0
4, 5273, Note_on_c, 1, 54, 0
4, 5280, Note_on_c, 1, 63, 89
4, 5280, Note_on_c, 1, 51, 89
4, 5369, Note_on_c, 1, 63, 0
4, 5369, Note_on_c, 1, 51, 0
4, 5376, Control_c, 1, 64, 0
4, 5376, Control_c, 1, 64, 127
4, 5376, Note_on_c, 1, 64, 89
4, 5376, Note_on_c, 1, 52, 89
4, 5465, Note_on_c, 1, 64, 0
4, 5465, Note_on_c, 1, 52, 0
4, 5472, Note_on_c, 1, 68, 89
4, 5472, Note_on_c, 1, 56, 89
4, 5561, Note_on_c, 1, 68, 0
4, 5561, Note_on_c, 1, 56, 0
4, 5568, Control_c, 1, 64, 0
4, 5568, Control_c, 1, 64, 127
4, 5568, Note_on_c, 1, 69, 89
4, 5568, Note_on_c, 1, 57, 89
4, 5657, Note_on_c, 1, 69, 0
4, 5657, Note_on_c, 1, 57, 0
4, 5664, Note_on_c, 1, 63, 89
4, 5664, Note_on_c, 1, 51, 89
4, 5753, Note_on_c, 1, 63, 0
4, 5753, Note_on_c, 1, 51, 0
4, 5760, Control_c, 1, 64, 0
4, 5760, Note_on_c, 1, 64, 89
4, 5760, Note_on_c, 1, 52, 89
4, 5849, Note_on_c, 1, 64, 0
4, 5849, Note_on_c, 1, 52, 0
4, 6096, Note_on_c, 1, 64, 69
4, 6141, Note_on_c, 1, 64, 0
4, 6144, Note_on_c, 1, 66, 69
4, 6238, Note_on_c, 1, 66, 0
4, 6480, Note_on_c, 1, 64, 61
4, 6525, Note_on_c, 1, 64, 0
4, 6528, Note_on_c, 1, 66, 61
4, 6622, Note_on_c, 1, 66, 0
4, 6864, Note_on_c, 1, 52, 69
4, 6909, Note_on_c, 1, 52, 0
4, 6960, Note_on_c, 1, 57, 69
4, 7005, Note_on_c, 1, 57, 0
4, 7008, Note_on_c, 1, 57, 69
4, 7097, Note_on_c, 1, 57, 0
4, 7104, Note_on_c, 1, 57, 69
4, 7104, Note_on_c, 1, 52, 69
4, 7193, Note_on_c, 1, 57, 0
4, 7193, Note_on_c, 1, 52, 0
4, 7200, Note_on_c, 1, 56, 69
4, 7200, Note_on_c, 1, 52, 69
4, 7289, Note_on_c, 1, 56, 0
4, 7289, Note_on_c, 1, 52, 0
4, 7296, Note_on_c, 1, 57, 69
4, 7296, Note_on_c, 1, 45, 69
4, 7385, Note_on_c, 1, 57, 0
4, 7385, Note_on_c, 1, 45, 0
4, 7440, Note_on_c, 1, 61, 76
4, 7485, Note_on_c, 1, 61, 0
4, 7488, Note_on_c, 1, 62, 76
4, 7533, Note_on_c, 1, 62, 0
4, 7536, Note_on_c, 1, 50, 76
4, 7581, Note_on_c, 1, 50, 0
4, 7632, Note_on_c, 1, 59, 76
4, 7632, Note_on_c, 1, 52, 76
4, 7677, Note_on_c, 1, 59, 0
4, 7677, Note_on_c, 1, 52, 0
4, 7680, Note_on_c, 1, 57, 76
4, 7725, Note_on_c, 1, 57, 0
4, 7728, Note_on_c, 1, 45, 76
4, 7773, Note_on_c, 1, 45, 0
4, 7824, Note_on_c, 1, 61, 69
4, 7869, Note_on_c, 1, 61, 0
4, 7872, Note_on_c, 1, 62, 69
4, 7917, Note_on_c, 1, 62, 0
4, 7920, Note_on_c, 1, 50, 69
4, 7965, Note_on_c, 1, 50, 0
4, 8016, Note_on_c, 1, 59, 69
4, 8016, Note_on_c, 1, 52, 69
4, 8061, Note_on_c, 1, 59, 0
4, 8061, Note_on_c, 1, 52, 0
4, 8064, Note_on_c, 1, 57, 69
4, 8109, Note_on_c, 1, 57, 0
4, 8112, Note_on_c, 1, 45, 65
4, 8157, Note_on_c, 1, 45, 0
4, 8400, Note_on_c, 1, 57, 69
4, 8445, Note_on_c, 1, 57, 0
4, 8448, Note_on_c, 1, 59, 69
4, 8542, Note_on_c, 1, 59, 0
4, 8640, Note_on_c, 1, 59, 69
4, 8640, Note_on_c, 1, 55, 69
4, 8817, Note_on_c, 1, 59, 0
4, 8817, Note_on_c, 1, 55, 0
4, 8880, Note_on_c, 1, 62, 69
4, 8969, Note_on_c, 1, 62, 0
4, 8976, Note_on_c, 1, 61, 69
4, 9021, Note_on_c, 1, 61, 0
4, 9024, Note_on_c, 1, 62, 69
4, 9113, Note_on_c, 1, 62, 0
4, 9360, Note_on_c, 1, 57, 69
4, 9405, Note_on_c, 1, 57, 0
4, 9408, Note_on_c, 1, 59, 69
4, 9502, Note_on_c, 1, 59, 0
4, 9600, Note_on_c, 1, 57, 69
4, 9600, Note_on_c, 1, 54, 69
4, 9777, Note_on_c, 1, 57, 0
4, 9777, Note_on_c, 1, 54, 0
4, 9792, Note_on_c, 1, 55, 69
4, 9837, Note_on_c, 1, 55, 0
4, 9840, Note_on_c, 1, 54, 69
4, 9885, Note_on_c, 1, 54, 0
4, 9888, Note_on_c, 1, 52, 69
4, 9933, Note_on_c, 1, 52, 0
4, 9936, Note_on_c, 1, 50, 69
4, 9981, Note_on_c, 1, 50, 0
4, 9984, Note_on_c, 1, 57, 69
4, 10029, Note_on_c, 1, 57, 0
4, 10032, Note_on_c, 1, 52, 69
4, 10077, Note_on_c, 1, 52, 0
4, 10080, Note_on_c, 1, 45, 69
4, 10169, Note_on_c, 1, 45, 0
4, 10176, Note_on_c, 1, 49, 69
4, 10199, Note_on_c, 1, 49, 0
4, 10200, Note_on_c, 1, 57, 69
4, 10223, Note_on_c, 1, 57, 0
4, 10224, Note_on_c, 1, 56, 69
4, 10247, Note_on_c, 1, 56, 0
4, 10248, Note_on_c, 1, 57, 69
4, 10271, Note_on_c, 1, 57, 0
4, 10272, Note_on_c, 1, 49, 70
4, 10295, Note_on_c, 1, 49, 0
4, 10296, Note_on_c, 1, 57, 70
4, 10319, Note_on_c, 1, 57, 0
4, 10320, Note_on_c, 1, 56, 70
4, 10343, Note_on_c, 1, 56, 0
4, 10344, Note_on_c, 1, 57, 70
4, 10367, Note_on_c, 1, 57, 0
4, 10368, Note_on_c, 1, 50, 71
4, 10391, Note_on_c, 1, 50, 0
4, 10392, Note_on_c, 1, 57, 71
4, 10415, Note_on_c, 1, 57, 0
4, 10416, Note_on_c, 1, 56, 71
4, 10439, Note_on_c, 1, 56, 0
4, 10440, Note_on_c, 1, 57, 72
4, 10463, Note_on_c, 1, 57, 0
4, 10464, Note_on_c, 1, 50, 72
4, 10487, Note_on_c, 1, 50, 0
4, 10488, Note_on_c, 1, 57, 72
4, 10511, Note_on_c, 1, 57, 0
4, 10512, Note_on_c, 1, 56, 72
4, 10535, Note_on_c, 1, 56, 0
4, 10536, Note_on_c, 1, 57, 73
4, 10559, Note_on_c, 1, 57, 0
4, 10560, Note_on_c, 1, 51, 73
4, 10583, Note_on_c, 1, 51, 0
4, 10584, Note_on_c, 1, 59, 73
4, 10607, Note_on_c, 1, 59, 0
4, 10608, Note_on_c, 1, 58, 74
4, 10631, Note_on_c, 1, 58, 0
4, 10632, Note_on_c, 1, 59, 74
4, 10655, Note_on_c, 1, 59, 0
4, 10656, Note_on_c, 1, 51, 74
4, 10679, Note_on_c, 1, 51, 0
4, 10680, Note_on_c, 1, 59, 74
4, 10703, Note_on_c, 1, 59, 0
4, 10704, Note_on_c, 1, 58, 75
4, 10727, Note_on_c, 1, 58, 0
4, 10728, Note_on_c, 1, 59, 75
4, 10751, Note_on_c, 1, 59, 0
4, 10752, Note_on_c, 1, 52, 75
4, 10775, Note_on_c, 1, 52, 0
4, 10776, Note_on_c, 1, 59, 76
4, 10799, Note_on_c, 1, 59, 0
4, 10800, Note_on_c, 1, 58, 76
4, 10823, Note_on_c, 1, 58, 0
4, 10824, Note_on_c, 1, 59, 76
4, 10847, Note_on_c, 1, 59, 0
4, 10848, Note_on_c, 1, 52, 76
4, 10871, Note_on_c, 1, 52, 0
4, 10872, Note_on_c, 1, 59, 76
4, 10895, Note_on_c, 1, 59, 0
4, 10896, Note_on_c, 1, 58, 76
4, 10919, Note_on_c, 1, 58, 0
4, 10920, Note_on_c, 1, 59, 76
4, 10943, Note_on_c, 1, 59, 0
4, 10944, Note_on_c, 1, 56, 76
4, 10944, Note_on_c, 1, 52, 76
4, 10989, Note_on_c, 1, 56, 0
4, 10989, Note_on_c, 1, 52, 0
4, 11136, Note_on_c, 1, 69, 76
4, 11136, Note_on_c, 1, 66, 76
4, 11181, Note_on_c, 1, 69, 0
4, 11181, Note_on_c, 1, 66, 0
4, 11328, Note_on_c, 1, 71, 76
4, 11328, Note_on_c, 1, 68, 76
4, 11505, Note_on_c, 1, 71, 0
4, 11505, Note_on_c, 1, 68, 0
4, 11544, Note_on_c, 1, 57, 76
4, 11567, Note_on_c, 1, 57, 0
4, 11568, Note_on_c, 1, 61, 76
4, 11591, Note_on_c, 1, 61, 0
4, 11592, Note_on_c, 1, 64, 76
4, 11615, Note_on_c, 1, 64, 0
4, 11616, Note_on_c, 1, 69, 76
4, 11661, Note_on_c, 1, 69, 0
4, 11664, Note_on_c, 1, 57, 76
4, 11709, Note_on_c, 1, 57, 0
4, 11712, Note_on_c, 1, 69, 76
4, 11801, Note_on_c, 1, 69, 0
4, 11808, Note_on_c, 1, 69, 76
4, 11949, Note_on_c, 1, 69, 0
4, 11952, Note_on_c, 1, 68, 76
4, 11997, Note_on_c, 1, 68, 0
4, 12000, Note_on_c, 1, 69, 76
4, 12045, Note_on_c, 1, 69, 0
4, 12096, Note_on_c, 1, 69, 61
4, 12185, Note_on_c, 1, 69, 0
4, 12192, Note_on_c, 1, 69, 61
4, 12333, Note_on_c, 1, 69, 0
4, 12336, Note_on_c, 1, 68, 61
4, 12381, Note_on_c, 1, 68, 0
4, 12384, Note_on_c, 1, 69, 61
4, 12429, Note_on_c, 1, 69, 0
4, 12480, Control_c, 1, 64, 127
4, 12480, Note_on_c, 1, 65, 89
4, 12480, Note_on_c, 1, 53, 89
4, 12657, Note_on_c, 1, 65, 0
4, 12657, Note_on_c, 1, 53, 0
4, 12672, Control_c, 1, 64, 0
4, 12672, Control_c, 1, 64, 127
4, 12672, Note_on_c, 1, 66, 89
4, 12672, Note_on_c, 1, 54, 89
4, 12849, Note_on_c, 1, 66, 0
4, 12849, Note_on_c, 1, 54, 0
4, 12864, Note_on_c, 1, 63, 89
4, 12864, Note_on_c, 1, 51, 89
4, 13041, Note_on_c, 1, 63, 0
4, 13041, Note_on_c, 1, 51, 0
4, 13056, Control_c, 1, 64, 0
4, 13056, Control_c, 1, 64, 127
4, 13056, Note_on_c, 1, 68, 89
4, 13056, Note_on_c, 1, 56, 89
4, 13233, Note_on_c, 1, 68, 0
4, 13233, Note_on_c, 1, 56, 0
4, 13248, Control_c, 1, 64, 0
4, 13248, Control_c, 1, 64, 127
4, 13248, Note_on_c, 1, 65, 89
4, 13248, Note_on_c, 1, 53, 89
4, 13425, Note_on_c, 1, 65, 0
4, 13425, Note_on_c, 1, 53, 0
4, 13440, Control_c, 1, 64, 0
4, 13440, Control_c, 1, 64, 127
4, 13440, Note_on_c, 1, 66, 89
4, 13440, Note_on_c, 1, 54, 89
4, 13529, Note_on_c, 1, 66, 0
4, 13529, Note_on_c, 1, 54, 0
4, 13536, Note_on_c, 1, 63, 89
4, 13536, Note_on_c, 1, 51, 89
4, 13625, Note_on_c, 1, 63, 0
4, 13625, Note_on_c, 1, 51, 0
4, 13632, Control_c, 1, 64, 0
4, 13632, Control_c, 1, 64, 127
4, 13632, Note_on_c, 1, 64, 89
4, 13632, Note_on_c, 1, 52, 89
4, 13721, Note_on_c, 1, 64, 0
4, 13721, Note_on_c, 1, 52, 0
4, 13728, Note_on_c, 1, 68, 89
4, 13728, Note_on_c, 1, 56, 89
4, 13817, Note_on_c, 1, 68, 0
4, 13817, Note_on_c, 1, 56, 0
4, 13824, Control_c, 1, 64, 0
4, 13824, Control_c, 1, 64, 127
4, 13824, Note_on_c, 1, 69, 89
4, 13824, Note_on_c, 1, 57, 89
4, 13913, Note_on_c, 1, 69, 0
4, 13913, Note_on_c, 1, 57, 0
4, 13920, Note_on_c, 1, 63, 89
4, 13920, Note_on_c, 1, 51, 89
4, 14009, Note_on_c, 1, 63, 0
4, 14009, Note_on_c, 1, 51, 0
4, 14016, Control_c, 1, 64, 0
4, 14016, Note_on_c, 1, 64, 89
4, 14016, Note_on_c, 1, 52, 89
4, 14105, Note_on_c, 1, 64, 0
4, 14105, Note_on_c, 1, 52, 0
4, 14352, Note_on_c, 1, 64, 69
4, 14397, Note_on_c, 1, 64, 0
4, 14400, Note_on_c, 1, 66, 69
4, 14494, Note_on_c, 1, 66, 0
4, 14736, Note_on_c, 1, 64, 61
4, 14781, Note_on_c, 1, 64, 0
4, 14784, Note_on_c, 1, 66, 61
4, 14878, Note_on_c, 1, 66, 0
4, 15120, Note_on_c, 1, 52, 69
4, 15165, Note_on_c, 1, 52, 0
4, 15216, Note_on_c, 1, 57, 69
4, 15261, Note_on_c, 1, 57, 0
4, 15264, Note_on_c, 1, 57, 69
4, 15353, Note_on_c, 1, 57, 0
4, 15360, Note_on_c, 1, 57, 69
4, 15360, Note_on_c, 1, 52, 69
4, 15449, Note_on_c, 1, 57, 0
4, 15449, Note_on_c, 1, 52, 0
4, 15456, Note_on_c, 1, 56, 69
4, 15456, Note_on_c, 1, 52, 69
4, 15545, Note_on_c, 1, 56, 0
4, 15545, Note_on_c, 1, 52, 0
4, 15552, Note_on_c, 1, 57, 69
4, 15552, Note_on_c, 1, 45, 69
4, 15641, Note_on_c, 1, 57, 0
4, 15641, Note_on_c, 1, 45, 0
4, 15696, Note_on_c, 1, 61, 76
4, 15741, Note_on_c, 1, 61, 0
4, 15744, Note_on_c, 1, 62, 76
4, 15789, Note_on_c, 1, 62, 0
4, 15792, Note_on_c, 1, 50, 76
4, 15837, Note_on_c, 1, 50, 0
4, 15888, Note_on_c, 1, 59, 76
4, 15888, Note_on_c, 1, 52, 76
4, 15933, Note_on_c, 1, 59, 0
4, 15933, Note_on_c, 1, 52, 0
4, 15936, Note_on_c, 1, 57, 76
4, 15981, Note_on_c, 1, 57, 0
4, 15984, Note_on_c, 1, 45, 76
4, 16029, Note_on_c, 1, 45, 0
4, 16080, Note_on_c, 1, 61, 69
4, 16125, Note_on_c, 1, 61, 0
4, 16128, Note_on_c, 1, 62, 69
4, 16173, Note_on_c, 1, 62, 0
4, 16176, Note_on_c, 1, 50, 69
4, 16221, Note_on_c, 1, 50, 0
4, 16272, Note_on_c, 1, 59, 69
4, 16272, Note_on_c, 1, 52, 69
4, 16317, Note_on_c, 1, 59, 0
4, 16317, Note_on_c, 1, 52, 0
4, 16320, Note_on_c, 1, 57, 69
4, 16365, Note_on_c, 1, 57, 0
4, 16368, Note_on_c, 1, 45, 65
4, 16413, Note_on_c, 1, 45, 0
4, 16512, Control_c, 1, 64, 127
4, 16560, Note_on_c, 1, 61, 76
4, 16605, Note_on_c, 1, 61, 0
4, 16608, Note_on_c, 1, 64, 76
4, 16653, Note_on_c, 1, 64, 0
4, 16656, Note_on_c, 1, 61, 76
4, 16701, Note_on_c, 1, 61, 0
4, 16704, Control_c, 1, 64, 0
4, 16704, Control_c, 1, 64, 127
4, 16752, Note_on_c, 1, 59, 76
4, 16797, Note_on_c, 1, 59, 0
4, 16800, Note_on_c, 1, 62, 76
4, 16845, Note_on_c, 1, 62, 0
4, 16848, Note_on_c, 1, 59, 77
4, 16893, Note_on_c, 1, 59, 0
4, 16896, Control_c, 1, 64, 0
4, 16896, Control_c, 1, 64, 127
4, 16944, Note_on_c, 1, 61, 78
4, 16989, Note_on_c, 1, 61, 0
4, 16992, Note_on_c, 1, 64, 78
4, 17037, Note_on_c, 1, 64, 0
4, 17040, Note_on_c, 1, 61, 79
4, 17085, Note_on_c, 1, 61, 0
4, 17088, Control_c, 1, 64, 0
4, 17088, Control_c, 1, 64, 127
4, 17136, Note_on_c, 1, 62, 79
4, 17181, Note_on_c, 1, 62, 0
4, 17184, Note_on_c, 1, 65, 80
4, 17229, Note_on_c, 1, 65, 0
4, 17232, Note_on_c, 1, 62, 80
4, 17277, Note_on_c, 1, 62, 0
4, 17280, Control_c, 1, 64, 0
4, 17328, Note_on_c, 1, 59, 81
4, 17373, Note_on_c, 1, 59, 0
4, 17376, Note_on_c, 1, 62, 82
4, 17421, Note_on_c, 1, 62, 0
4, 17424, Note_on_c, 1, 59, 82
4, 17469, Note_on_c, 1, 59, 0
4, 17472, Control_c, 1, 64, 0
4, 17472, Note_on_c, 1, 61, 83
4, 17472, Note_on_c, 1, 57, 83
4, 17561, Note_on_c, 1, 61, 0
4, 17561, Note_on_c, 1, 57, 0
4, 17808, Note_on_c, 1, 57, 69
4, 17853, Note_on_c, 1, 57, 0
4, 17856, Note_on_c, 1, 58, 69
4, 17950, Note_on_c, 1, 58, 0
4, 18192, Note_on_c, 1, 57, 61
4, 18237, Note_on_c, 1, 57, 0
4, 18240, Note_on_c, 1, 58, 61
4, 18334, Note_on_c, 1, 58, 0
4, 18432, Note_on_c, 1, 64, 85
4, 18432, Note_on_c, 1, 58, 85
4, 18432, Note_on_c, 1, 55, 85
4, 18624, Note_on_c, 1, 64, 0
4, 18624, Note_on_c, 1, 58, 0
4, 18624, Note_on_c, 1, 55, 0
4, 18624, Note_on_c, 1, 62, 69
4, 18624, Note_on_c, 1, 53, 69
4, 18713, Note_on_c, 1, 62, 0
4, 18713, Note_on_c, 1, 53, 0
4, 18720, Note_on_c, 1, 55, 69
4, 18765, Note_on_c, 1, 55, 0
4, 18768, Note_on_c, 1, 57, 69
4, 18813, Note_on_c, 1, 57, 0
4, 18816, Note_on_c, 1, 53, 69
4, 18905, Note_on_c, 1, 53, 0
4, 18960, Note_on_c, 1, 65, 69
4, 18960, Note_on_c, 1, 62, 69
4, 19008, Note_on_c, 1, 65, 0
4, 19008, Note_on_c, 1, 62, 0
4, 19008, Note_on_c, 1, 64, 69
4, 19008, Note_on_c, 1, 61, 69
4, 19141, Note_on_c, 1, 64, 0
4, 19141, Note_on_c, 1, 61, 0
4, 19152, Note_on_c, 1, 65, 69
4, 19152, Note_on_c, 1, 62, 69
4, 19200, Note_on_c, 1, 65, 0
4, 19200, Note_on_c, 1, 62, 0
4, 19200, Note_on_c, 1, 64, 69
4, 19200, Note_on_c, 1, 61, 69
4, 19333, Note_on_c, 1, 64, 0
4, 19333, Note_on_c, 1, 61, 0
4, 19344, Note_on_c, 1, 65, 69
4, 19344, Note_on_c, 1, 62, 69
4, 19392, Note_on_c, 1, 65, 0
4, 19392, Note_on_c, 1, 62, 0
4, 19392, Note_on_c, 1, 64, 69
4, 19392, Note_on_c, 1, 61, 69
4, 19437, Note_on_c, 1, 64, 0
4, 19437, Note_on_c, 1, 61, 0
4, 19440, Note_on_c, 1, 65, 69
4, 19440, Note_on_c, 1, 62, 69
4, 19488, Note_on_c, 1, 65, 0
4, 19488, Note_on_c, 1, 62, 0
4, 19488, Note_on_c, 1, 64, 69
4, 19488, Note_on_c, 1, 61, 69
4, 19533, Note_on_c, 1, 64, 0
4, 19533, Note_on_c, 1, 61, 0
4, 19536, Note_on_c, 1, 65, 69
4, 19536, Note_on_c, 1, 62, 69
4, 19584, Note_on_c, 1, 65, 0
4, 19584, Note_on_c, 1, 62, 0
4, 19584, Note_on_c, 1, 64, 69
4, 19584, Note_on_c, 1, 61, 69
4, 19673, Note_on_c, 1, 64, 0
4, 19673, Note_on_c, 1, 61, 0
4, 19776, Note_on_c, 1, 62, 69
4, 19865, Note_on_c, 1, 62, 0
4, 19920, Note_on_c, 1, 70, 69
4, 19920, Note_on_c, 1, 67, 69
4, 19968, Note_on_c, 1, 70, 0
4, 19968, Note_on_c, 1, 67, 0
4, 19968, Note_on_c, 1, 69, 69
4, 19968, Note_on_c, 1, 66, 69
4, 20101, Note_on_c, 1, 69, 0
4, 20101, Note_on_c, 1, 66, 0
4, 20112, Note_on_c, 1, 70, 69
4, 20112, Note_on_c, 1, 67, 69
4, 20160, Note_on_c, 1, 70, 0
4, 20160, Note_on_c, 1, 67, 0
4, 20160, Note_on_c, 1, 69, 69
4, 20160, Note_on_c, 1, 66, 69
4, 20293, Note_on_c, 1, 69, 0
4, 20293, Note_on_c, 1, 66, 0
4, 20304, Note_on_c, 1, 70, 69
4, 20304, Note_on_c, 1, 67, 69
4, 20352, Note_on_c, 1, 70, 0
4, 20352, Note_on_c, 1, 67, 0
4, 20352, Note_on_c, 1, 69, 69
4, 20352, Note_on_c, 1, 66, 69
4, 20397, Note_on_c, 1, 69, 0
4, 20397, Note_on_c, 1, 66, 0
4, 20400, Note_on_c, 1, 70, 69
4, 20400, Note_on_c, 1, 67, 69
4, 20448, Note_on_c, 1, 70, 0
4, 20448, Note_on_c, 1, 67, 0
4, 20448, Note_on_c, 1, 69, 69
4, 20448, Note_on_c, 1, 66, 69
4, 20493, Note_on_c, 1, 69, 0
4, 20493, Note_on_c, 1, 66, 0
4, 20496, Note_on_c, 1, 70, 69
4, 20496, Note_on_c, 1, 67, 69
4, 20544, Note_on_c, 1, 70, 0
4, 20544, Note_on_c, 1, 67, 0
4, 20544, Note_on_c, 1, 69, 69
4, 20544, Note_on_c, 1, 66, 69
4, 20633, Note_on_c, 1, 69, 0
4, 20633, Note_on_c, 1, 66, 0
4, 20688, Note_on_c, 1, 74, 69
4, 20688, Note_on_c, 1, 66, 69
4, 20733, Note_on_c, 1, 74, 0
4, 20733, Note_on_c, 1, 66, 0
4, 20736, Note_on_c, 1, 74, 69
4, 20736, Note_on_c, 1, 67, 69
4, 20781, Note_on_c, 1, 74, 0
4, 20781, Note_on_c, 1, 67, 0
4, 20832, Note_on_c, 1, 72, 69
4, 20832, Note_on_c, 1, 64, 69
4, 20877, Note_on_c, 1, 72, 0
4, 20877, Note_on_c, 1, 64, 0
4, 20928, Note_on_c, 1, 72, 69
4, 20928, Note_on_c, 1, 65, 69
4, 20973, Note_on_c, 1, 72, 0
4, 20973, Note_on_c, 1, 65, 0
4, 21024, Note_on_c, 1, 70, 69
4, 21024, Note_on_c, 1, 62, 69
4, 21069, Note_on_c, 1, 70, 0
4, 21069, Note_on_c, 1, 62, 0
4, 21120, Note_on_c, 1, 70, 69
4, 21120, Note_on_c, 1, 64, 69
4, 21165, Note_on_c, 1, 70, 0
4, 21165, Note_on_c, 1, 64, 0
4, 21216, Note_on_c, 1, 69, 69
4, 21216, Note_on_c, 1, 61, 69
4, 21261, Note_on_c, 1, 69, 0
4, 21261, Note_on_c, 1, 61, 0
4, 21312, Note_on_c, 1, 69, 69
4, 21312, Note_on_c, 1, 62, 69
4, 21357, Note_on_c, 1, 69, 0
4, 21357, Note_on_c, 1, 62, 0
4, 21408, Note_on_c, 1, 64, 69
4, 21453, Note_on_c, 1, 64, 0
4, 21504, Note_on_c, 1, 65, 69
4, 21549, Note_on_c, 1, 65, 0
4, 21600, Note_on_c, 1, 67, 69
4, 21645, Note_on_c, 1, 67, 0
4, 21648, Note_on_c, 1, 68, 69
4, 21693, Note_on_c, 1, 68, 0
4, 21696, Note_on_c, 1, 69, 69
4, 21741, Note_on_c, 1, 69, 0
4, 21744, Note_on_c, 1, 57, 69
4, 21789, Note_on_c, 1, 57, 0
4, 21888, Note_on_c, 1, 49, 69
4, 21911, Note_on_c, 1, 49, 0
4, 21912, Note_on_c, 1, 57, 69
4, 21935, Note_on_c, 1, 57, 0
4, 21936, Note_on_c, 1, 56, 69
4, 21959, Note_on_c, 1, 56, 0
4, 21960, Note_on_c, 1, 57, 69
4, 21983, Note_on_c, 1, 57, 0
4, 21984, Note_on_c, 1, 49, 69
4, 22007, Note_on_c, 1, 49, 0
4, 22008, Note_on_c, 1, 57, 69
4, 22031, Note_on_c, 1, 57, 0
4, 22032, Note_on_c, 1, 56, 69
4, 22055, Note_on_c, 1, 56, 0
4, 22056, Note_on_c, 1, 57, 69
4, 22079, Note_on_c, 1, 57, 0
4, 22080, Note_on_c, 1, 50, 69
4, 22103, Note_on_c, 1, 50, 0
4, 22104, Note_on_c, 1, 57, 70
4, 22127, Note_on_c, 1, 57, 0
4, 22128, Note_on_c, 1, 56, 70
4, 22151, Note_on_c, 1, 56, 0
4, 22152, Note_on_c, 1, 57, 70
4, 22175, Note_on_c, 1, 57, 0
4, 22176, Note_on_c, 1, 50, 70
4, 22199, Note_on_c, 1, 50, 0
4, 22200, Note_on_c, 1, 57, 70
4, 22223, Note_on_c, 1, 57, 0
4, 22224, Note_on_c, 1, 56, 70
4, 22247, Note_on_c, 1, 56, 0
4, 22248, Note_on_c, 1, 57, 70
4, 22271, Note_on_c, 1, 57, 0
4, 22272, Note_on_c, 1, 49, 70
4, 22295, Note_on_c, 1, 49, 0
4, 22296, Note_on_c, 1, 57, 71
4, 22319, Note_on_c, 1, 57, 0
4, 22320, Note_on_c, 1, 56, 71
4, 22343, Note_on_c, 1, 56, 0
4, 22344, Note_on_c, 1, 57, 71
4, 22367, Note_on_c, 1, 57, 0
4, 22368, Note_on_c, 1, 49, 71
4, 22391, Note_on_c, 1, 49, 0
4, 22392, Note_on_c, 1, 57, 71
4, 22415, Note_on_c, 1, 57, 0
4, 22416, Note_on_c, 1, 56, 71
4, 22439, Note_on_c, 1, 56, 0
4, 22440, Note_on_c, 1, 57, 71
4, 22463, Note_on_c, 1, 57, 0
4, 22464, Note_on_c, 1, 50, 71
4, 22487, Note_on_c, 1, 50, 0
4, 22488, Note_on_c, 1, 57, 72
4, 22511, Note_on_c, 1, 57, 0
4, 22512, Note_on_c, 1, 56, 72
4, 22535, Note_on_c, 1, 56, 0
4, 22536, Note_on_c, 1, 57, 72
4, 22559, Note_on_c, 1, 57, 0
4, 22560, Note_on_c, 1, 50, 72
4, 22583, Note_on_c, 1, 50, 0
4, 22584, Note_on_c, 1, 57, 72
4, 22607, Note_on_c, 1, 57, 0
4, 22608, Note_on_c, 1, 56, 72
4, 22631, Note_on_c, 1, 56, 0
4, 22632, Note_on_c, 1, 57, 72
4, 22655, Note_on_c, 1, 57, 0
4, 22656, Note_on_c, 1, 54, 72
4, 22679, Note_on_c, 1, 54, 0
4, 22680, Note_on_c, 1, 62, 73
4, 22703, Note_on_c, 1, 62, 0
4, 22704, Note_on_c, 1, 61, 73
4, 22727, Note_on_c, 1, 61, 0
4, 22728, Note_on_c, 1, 62, 73
4, 22751, Note_on_c, 1, 62, 0
4, 22752, Note_on_c, 1, 54, 73
4, 22775, Note_on_c, 1, 54, 0
4, 22776, Note_on_c, 1, 62, 73
4, 22799, Note_on_c, 1, 62, 0
4, 22800, Note_on_c, 1, 61, 73
4, 22823, Note_on_c, 1, 61, 0
4, 22824, Note_on_c, 1, 62, 73
4, 22847, Note_on_c, 1, 62, 0
4, 22848, Note_on_c, 1, 55, 73
4, 22871, Note_on_c, 1, 55, 0
4, 22872, Note_on_c, 1, 62, 74
4, 22895, Note_on_c, 1, 62, 0
4, 22896, Note_on_c, 1, 61, 74
4, 22919, Note_on_c, 1, 61, 0
4, 22920, Note_on_c, 1, 62, 74
4, 22943, Note_on_c, 1, 62, 0
4, 22944, Note_on_c, 1, 55, 74
4, 22967, Note_on_c, 1, 55, 0
4, 22968, Note_on_c, 1, 62, 74
4, 22991, Note_on_c, 1, 62, 0
4, 22992, Note_on_c, 1, 61, 74
4, 23015, Note_on_c, 1, 61, 0
4, 23016, Note_on_c, 1, 62, 74
4, 23039, Note_on_c, 1, 62, 0
4, 23040, Note_on_c, 1, 56, 74
4, 23063, Note_on_c, 1, 56, 0
4, 23064, Note_on_c, 1, 64, 75
4, 23087, Note_on_c, 1, 64, 0
4, 23088, Note_on_c, 1, 63, 75
4, 23111, Note_on_c, 1, 63, 0
4, 23112, Note_on_c, 1, 64, 75
4, 23135, Note_on_c, 1, 64, 0
4, 23136, Note_on_c, 1, 56, 75
4, 23159, Note_on_c, 1, 56, 0
4, 23160, Note_on_c, 1, 64, 75
4, 23183, Note_on_c, 1, 64, 0
4, 23184, Note_on_c, 1, 63, 75
4, 23207, Note_on_c, 1, 63, 0
4, 23208, Note_on_c, 1, 64, 75
4, 23231, Note_on_c, 1, 64, 0
4, 23232, Note_on_c, 1, 57, 75
4, 23255, Note_on_c, 1, 57, 0
4, 23256, Note_on_c, 1, 64, 76
4, 23279, Note_on_c, 1, 64, 0
4, 23280, Note_on_c, 1, 63, 76
4, 23303, Note_on_c, 1, 63, 0
4, 23304, Note_on_c, 1, 64, 76
4, 23327, Note_on_c, 1, 64, 0
4, 23328, Note_on_c, 1, 57, 76
4, 23351, Note_on_c, 1, 57, 0
4, 23352, Note_on_c, 1, 64, 76
4, 23375, Note_on_c, 1, 64, 0
4, 23376, Note_on_c, 1, 63, 76
4, 23399, Note_on_c, 1, 63, 0
4, 23400, Note_on_c, 1, 64, 76
4, 23423, Note_on_c, 1, 64, 0
4, 23424, Note_on_c, 1, 61, 76
4, 23424, Note_on_c, 1, 57, 76
4, 23469, Note_on_c, 1, 61, 0
4, 23469, Note_on_c, 1, 57, 0
4, 23616, Note_on_c, 1, 62, 76
4, 23616, Note_on_c, 1, 59, 76
4, 23661, Note_on_c, 1, 62, 0
4, 23661, Note_on_c, 1, 59, 0
4, 23808, Note_on_c, 1, 64, 76
4, 23808, Note_on_c, 1, 61, 76
4, 23985, Note_on_c, 1, 64, 0
4, 23985, Note_on_c, 1, 61, 0
4, 24024, Note_on_c, 1, 50, 76
4, 24047, Note_on_c, 1, 50, 0
4, 24048, Note_on_c, 1, 54, 76
4, 24071, Note_on_c, 1, 54, 0
4, 24072, Note_on_c, 1, 57, 76
4, 24095, Note_on_c, 1, 57, 0
4, 24096, Note_on_c, 1, 62, 76
4, 24141, Note_on_c, 1, 62, 0
4, 24144, Note_on_c, 1, 50, 76
4, 24189, Note_on_c, 1, 50, 0
4, 24192, Note_on_c, 1, 62, 76
4, 24281, Note_on_c, 1, 62, 0
4, 24288, Note_on_c, 1, 62, 76
4, 24429, Note_on_c, 1, 62, 0
4, 24432, Note_on_c, 1, 61, 76
4, 24477, Note_on_c, 1, 61, 0
4, 24480, Note_on_c, 1, 62, 76
4, 24525, Note_on_c, 1, 62, 0
4, 24576, Note_on_c, 1, 62, 61
4, 24665, Note_on_c, 1, 62, 0
4, 24672, Note_on_c, 1, 62, 61
4, 24813, Note_on_c, 1, 62, 0
4, 24816, Note_on_c, 1, 61, 61
4, 24861, Note_on_c, 1, 61, 0
4, 24864, Note_on_c, 1, 62, 61
4, 24909, Note_on_c, 1, 62, 0
4, 24960, Control_c, 1, 64, 127
4, 24960, Note_on_c, 1, 58, 89
4, 24960, Note_on_c, 1, 46, 89
4, 25137, Note_on_c, 1, 58, 0
4, 25137, Note_on_c, 1, 46, 0
4, 25152, Control_c, 1, 64, 127
4, 25152, Note_on_c, 1, 59, 89
4, 25152, Note_on_c, 1, 47, 89
4, 25329, Note_on_c, 1, 59, 0
4, 25329, Note_on_c, 1, 47, 0
4, 25344, Note_on_c, 1, 56, 89
4, 25344, Note_on_c, 1, 44, 89
4, 25521, Note_on_c, 1, 56, 0
4, 25521, Note_on_c, 1, 44, 0
4, 25536, Control_c, 1, 64, 0
4, 25536, Control_c, 1, 64, 127
4, 25536, Note_on_c, 1, 61, 89
4, 25536, Note_on_c, 1, 49, 89
4, 25713, Note_on_c, 1, 61, 0
4, 25713, Note_on_c, 1, 49, 0
4, 25728, Control_c, 1, 64, 0
4, 25728, Control_c, 1, 64, 127
4, 25728, Note_on_c, 1, 58, 89
4, 25728, Note_on_c, 1, 46, 89
4, 25905, Note_on_c, 1, 58, 0
4, 25905, Note_on_c, 1, 46, 0
4, 25920, Control_c, 1, 64, 0
4, 25920, Control_c, 1, 64, 127
4, 25920, Note_on_c, 1, 59, 89
4, 25920, Note_on_c, 1, 47, 89
4, 26009, Note_on_c, 1, 59, 0
4, 26009, Note_on_c, 1, 47, 0
4, 26016, Note_on_c, 1, 56, 89
4, 26016, Note_on_c, 1, 44, 89
4, 26105, Note_on_c, 1, 56, 0
4, 26105, Note_on_c, 1, 44, 0
4, 26112, Control_c, 1, 64, 0
4, 26112, Control_c, 1, 64, 127
4, 26112, Note_on_c, 1, 57, 89
4, 26112, Note_on_c, 1, 45, 89
4, 26201, Note_on_c, 1, 57, 0
4, 26201, Note_on_c, 1, 45, 0
4, 26208, Note_on_c, 1, 61, 89
4, 26208, Note_on_c, 1, 49, 89
4, 26297, Note_on_c, 1, 61, 0
4, 26297, Note_on_c, 1, 49, 0
4, 26304, Control_c, 1, 64, 0
4, 26304, Control_c, 1, 64, 127
4, 26304, Note_on_c, 1, 62, 89
4, 26304, Note_on_c, 1, 50, 89
4, 26393, Note_on_c, 1, 62, 0
4, 26393, Note_on_c, 1, 50, 0
4, 26400, Note_on_c, 1, 56, 89
4, 26400, Note_on_c, 1, 44, 89
4, 26489, Note_on_c, 1, 56, 0
4, 26489, Note_on_c, 1, 44, 0
4, 26496, Control_c, 1, 64, 0
4, 26496, Note_on_c, 1, 57, 89
4, 26496, Note_on_c, 1, 45, 89
4, 26585, Note_on_c, 1, 57, 0
4, 26585, Note_on_c, 1, 45, 0
4, 26832, Note_on_c, 1, 69, 69
4, 26877, Note_on_c, 1, 69, 0
4, 26880, Note_on_c, 1, 71, 69
4, 26974, Note_on_c, 1, 71, 0
4, 27216, Note_on_c, 1, 69, 61
4, 27261, Note_on_c, 1, 69, 0
4, 27264, Note_on_c, 1, 71, 61
4, 27358, Note_on_c, 1, 71, 0
4, 27600, Note_on_c, 1, 57, 69
4, 27645, Note_on_c, 1, 57, 0
4, 27696, Note_on_c, 1, 59, 69
4, 27741, Note_on_c, 1, 59, 0
4, 27744, Note_on_c, 1, 62, 69
4, 27833, Note_on_c, 1, 62, 0
4, 27840, Note_on_c, 1, 62, 69
4, 27840, Note_on_c, 1, 57, 69
4, 27929, Note_on_c, 1, 62, 0
4, 27929, Note_on_c, 1, 57, 0
4, 27936, Note_on_c, 1, 61, 69
4, 27936, Note_on_c, 1, 57, 69
4, 28025, Note_on_c, 1, 61, 0
4, 28025, Note_on_c, 1, 57, 0
4, 28032, Note_on_c, 1, 62, 69
4, 28032, Note_on_c, 1, 50, 69
4, 28121, Note_on_c, 1, 62, 0
4, 28121, Note_on_c, 1, 50, 0
4, 28176, Note_on_c, 1, 66, 76
4, 28221, Note_on_c, 1, 66, 0
4, 28224, Note_on_c, 1, 67, 76
4, 28269, Note_on_c, 1, 67, 0
4, 28272, Note_on_c, 1, 55, 76
4, 28317, Note_on_c, 1, 55, 0
4, 28368, Note_on_c, 1, 64, 76
4, 28368, Note_on_c, 1, 57, 76
4, 28413, Note_on_c, 1, 64, 0
4, 28413, Note_on_c, 1, 57, 0
4, 28416, Note_on_c, 1, 62, 76
4, 28461, Note_on_c, 1, 62, 0
4, 28464, Note_on_c, 1, 50, 76
4, 28509, Note_on_c, 1, 50, 0
4, 28560, Note_on_c, 1, 66, 61
4, 28605, Note_on_c, 1, 66, 0
4, 28608, Note_on_c, 1, 67, 61
4, 28653, Note_on_c, 1, 67, 0
4, 28656, Note_on_c, 1, 55, 61
4, 28701, Note_on_c, 1, 55, 0
4, 28752, Note_on_c, 1, 64, 61
4, 28752, Note_on_c, 1, 57, 61
4, 28797, Note_on_c, 1, 64, 0
4, 28797, Note_on_c, 1, 57, 0
4, 28800, Note_on_c, 1, 62, 61
4, 28845, Note_on_c, 1, 62, 0
4, 28848, Note_on_c, 1, 50, 61
4, 28893, Note_on_c, 1, 50, 0
4, 28992, Control_c, 1, 64, 127
4, 29040, Note_on_c, 1, 61, 76
4, 29085, Note_on_c, 1, 61, 0
4, 29088, Note_on_c, 1, 64, 76
4, 29133, Note_on_c, 1, 64, 0
4, 29136, Note_on_c, 1, 61, 76
4, 29181, Note_on_c, 1, 61, 0
4, 29184, Control_c, 1, 64, 0
4, 29184, Control_c, 1, 64, 127
4, 29232, Note_on_c, 1, 59, 76
4, 29277, Note_on_c, 1, 59, 0
4, 29280, Note_on_c, 1, 62, 76
4, 29325, Note_on_c, 1, 62, 0
4, 29328, Note_on_c, 1, 59, 77
4, 29373, Note_on_c, 1, 59, 0
4, 29376, Control_c, 1, 64, 0
4, 29376, Control_c, 1, 64, 127
4, 29424, Note_on_c, 1, 61, 78
4, 29469, Note_on_c, 1, 61, 0
4, 29472, Note_on_c, 1, 64, 78
4, 29517, Note_on_c, 1, 64, 0
4, 29520, Note_on_c, 1, 61, 79
4, 29565, Note_on_c, 1, 61, 0
4, 29568, Control_c, 1, 64, 0
4, 29568, Control_c, 1, 64, 127
4, 29616, Note_on_c, 1, 62, 79
4, 29661, Note_on_c, 1, 62, 0
4, 29664, Note_on_c, 1, 65, 80
4, 29709, Note_on_c, 1, 65, 0
4, 29712, Note_on_c, 1, 62, 80
4, 29757, Note_on_c, 1, 62, 0
4, 29760, Control_c, 1, 64, 0
4, 29808, Note_on_c, 1, 59, 81
4, 29853, Note_on_c, 1, 59, 0
4, 29856, Note_on_c, 1, 62, 82
4, 29901, Note_on_c, 1, 62, 0
4, 29904, Note_on_c, 1, 59, 82
4, 29949, Note_on_c, 1, 59, 0
4, 29952, Control_c, 1, 64, 0
4, 29952, Note_on_c, 1, 61, 83
4, 29952, Note_on_c, 1, 57, 83
4, 30041, Note_on_c, 1, 61, 0
4, 30041, Note_on_c, 1, 57, 0
4, 30288, Note_on_c, 1, 57, 69
4, 30333, Note_on_c, 1, 57, 0
4, 30336, Note_on_c, 1, 58, 69
4, 30430, Note_on_c, 1, 58, 0
4, 30672, Note_on_c, 1, 57, 61
4, 30717, Note_on_c, 1, 57, 0
4, 30720, Note_on_c, 1, 58, 61
4, 30814, Note_on_c, 1, 58, 0
4, 30912, Note_on_c, 1, 64, 85
4, 30912, Note_on_c, 1, 58, 85
4, 30912, Note_on_c, 1, 55, 85
4, 31104, Note_on_c, 1, 64, 0
4, 31104, Note_on_c, 1, 58, 0
4, 31104, Note_on_c, 1, 55, 0
4, 31104, Note_on_c, 1, 62, 69
4, 31104, Note_on_c, 1, 53, 69
4, 31193, Note_on_c, 1, 62, 0
4, 31193, Note_on_c, 1, 53, 0
4, 31200, Note_on_c, 1, 55, 69
4, 31245, Note_on_c, 1, 55, 0
4, 31248, Note_on_c, 1, 57, 69
4, 31293, Note_on_c, 1, 57, 0
4, 31296, Note_on_c, 1, 53, 69
4, 31385, Note_on_c, 1, 53, 0
4, 31440, Note_on_c, 1, 65, 69
4, 31440, Note_on_c, 1, 62, 69
4, 31488, Note_on_c, 1, 65, 0
4, 31488, Note_on_c, 1, 62, 0
4, 31488, Note_on_c, 1, 64, 69
4, 31488, Note_on_c, 1, 61, 69
4, 31621, Note_on_c, 1, 64, 0
4, 31621, Note_on_c, 1, 61, 0
4, 31632, Note_on_c, 1, 65, 69
4, 31632, Note_on_c, 1, 62, 69
4, 31680, Note_on_c, 1, 65, 0
4, 31680, Note_on_c, 1, 62, 0
4, 31680, Note_on_c, 1, 64, 69
4, 31680, Note_on_c, 1, 61, 69
4, 31813, Note_on_c, 1, 64, 0
4, 31813, Note_on_c, 1, 61, 0
4, 31824, Note_on_c, 1, 65, 69
4, 31824, Note_on_c, 1, 62, 69
4, 31872, Note_on_c, 1, 65, 0
4, 31872, Note_on_c, 1, 62, 0
4, 31872, Note_on_c, 1, 64, 69
4, 31872, Note_on_c, 1, 61, 69
4, 31917, Note_on_c, 1, 64, 0
4, 31917, Note_on_c, 1, 61, 0
4, 31920, Note_on_c, 1, 65, 69
4, 31920, Note_on_c, 1, 62, 69
4, 31968, Note_on_c, 1, 65, 0
4, 31968, Note_on_c, 1, 62, 0
4, 31968, Note_on_c, 1, 64, 69
4, 31968, Note_on_c, 1, 61, 69
4, 32013, Note_on_c, 1, 64, 0
4, 32013, Note_on_c, 1, 61, 0
4, 32016, Note_on_c, 1, 65, 69
4, 32016, Note_on_c, 1, 62, 69
4, 32064, Note_on_c, 1, 65, 0
4, 32064, Note_on_c, 1, 62, 0
4, 32064, Note_on_c, 1, 64, 69
4, 32064, Note_on_c, 1, 61, 69
4, 32153, Note_on_c, 1, 64, 0
4, 32153, Note_on_c, 1, 61, 0
4, 32256, Note_on_c, 1, 62, 69
4, 32345, Note_on_c, 1, 62, 0
4, 32400, Note_on_c, 1, 70, 69
4, 32400, Note_on_c, 1, 67, 69
4, 32448, Note_on_c, 1, 70, 0
4, 32448, Note_on_c, 1, 67, 0
4, 32448, Note_on_c, 1, 69, 69
4, 32448, Note_on_c, 1, 66, 69
4, 32581, Note_on_c, 1, 69, 0
4, 32581, Note_on_c, 1, 66, 0
4, 32592, Note_on_c, 1, 70, 69
4, 32592, Note_on_c, 1, 67, 69
4, 32640, Note_on_c, 1, 70, 0
4, 32640, Note_on_c, 1, 67, 0
4, 32640, Note_on_c, 1, 69, 69
4, 32640, Note_on_c, 1, 66, 69
4, 32773, Note_on_c, 1, 69, 0
4, 32773, Note_on_c, 1, 66, 0
4, 32784, Note_on_c, 1, 70, 69
4, 32784, Note_on_c, 1, 67, 69
4, 32832, Note_on_c, 1, 70, 0
4, 32832, Note_on_c, 1, 67, 0
4, 32832, Note_on_c, 1, 69, 69
4, 32832, Note_on_c, 1, 66, 69
4, 32877, Note_on_c, 1, 69, 0
4, 32877, Note_on_c, 1, 66, 0
4, 32880, Note_on_c, 1, 70, 69
4, 32880, Note_on_c, 1, 67, 69
4, 32928, Note_on_c, 1, 70, 0
4, 32928, Note_on_c, 1, 67, 0
4, 32928, Note_on_c, 1, 69, 69
4, 32928, Note_on_c, 1, 66, 69
4, 32973, Note_on_c, 1, 69, 0
4, 32973, Note_on_c, 1, 66, 0
4, 32976, Note_on_c, 1, 70, 69
4, 32976, Note_on_c, 1, 67, 69
4, 33024, Note_on_c, 1, 70, 0
4, 33024, Note_on_c, 1, 67, 0
4, 33024, Note_on_c, 1, 69, 69
4, 33024, Note_on_c, 1, 66, 69
4, 33113, Note_on_c, 1, 69, 0
4, 33113, Note_on_c, 1, 66, 0
4, 33168, Note_on_c, 1, 74, 69
4, 33168, Note_on_c, 1, 66, 69
4, 33213, Note_on_c, 1, 74, 0
4, 33213, Note_on_c, 1, 66, 0
4, 33216, Note_on_c, 1, 74, 69
4, 33216, Note_on_c, 1, 67, 69
4, 33261, Note_on_c, 1, 74, 0
4, 33261, Note_on_c, 1, 67, 0
4, 33312, Note_on_c, 1, 72, 69
4, 33312, Note_on_c, 1, 64, 69
4, 33357, Note_on_c, 1, 72, 0
4, 33357, Note_on_c, 1, 64, 0
4, 33408, Note_on_c, 1, 72, 69
4, 33408, Note_on_c, 1, 65, 69
4, 33453, Note_on_c, 1, 72, 0
4, 33453, Note_on_c, 1, 65, 0
4, 33504, Note_on_c, 1, 70, 69
4, 33504, Note_on_c, 1, 62, 69
4, 33549, Note_on_c, 1, 70, 0
4, 33549, Note_on_c, 1, 62, 0
4, 33600, Note_on_c, 1, 70, 69
4, 33600, Note_on_c, 1, 64, 69
4, 33645, Note_on_c, 1, 70, 0
4, 33645, Note_on_c, 1, 64, 0
4, 33696, Note_on_c, 1, 69, 69
4, 33696, Note_on_c, 1, 61, 69
4, 33741, Note_on_c, 1, 69, 0
4, 33741, Note_on_c, 1, 61, 0
4, 33792, Note_on_c, 1, 69, 69
4, 33792, Note_on_c, 1, 62, 69
4, 33837, Note_on_c, 1, 69, 0
4, 33837, Note_on_c, 1, 62, 0
4, 33888, Note_on_c, 1, 64, 69
4, 33933, Note_on_c, 1, 64, 0
4, 33984, Note_on_c, 1, 65, 69
4, 34029, Note_on_c, 1, 65, 0
4, 34080, Note_on_c, 1, 67, 69
4, 34125, Note_on_c, 1, 67, 0
4, 34128, Note_on_c, 1, 68, 69
4, 34173, Note_on_c, 1, 68, 0
4, 34176, Note_on_c, 1, 69, 69
4, 34221, Note_on_c, 1, 69, 0
4, 34224, Note_on_c, 1, 57, 69
4, 34269, Note_on_c, 1, 57, 0
4, 34368, Note_on_c, 1, 49, 69
4, 34391, Note_on_c, 1, 49, 0
4, 34392, Note_on_c, 1, 57, 69
4, 34415, Note_on_c, 1, 57, 0
4, 34416, Note_on_c, 1, 56, 69
4, 34439, Note_on_c, 1, 56, 0
4, 34440, Note_on_c, 1, 57, 69
4, 34463, Note_on_c, 1, 57, 0
4, 34464, Note_on_c, 1, 49, 69
4, 34487, Note_on_c, 1, 49, 0
4, 34488, Note_on_c, 1, 57, 69
4, 34511, Note_on_c, 1, 57, 0
4, 34512, Note_on_c, 1, 56, 69
4, 34535, Note_on_c, 1, 56, 0
4, 34536, Note_on_c, 1, 57, 69
4, 34559, Note_on_c, 1, 57, 0
4, 34560, Note_on_c, 1, 50, 69
4, 34583, Note_on_c, 1, 50, 0
4, 34584, Note_on_c, 1, 57, 70
4, 34607, Note_on_c, 1, 57, 0
4, 34608, Note_on_c, 1, 56, 70
4, 34631, Note_on_c, 1, 56, 0
4, 34632, Note_on_c, 1, 57, 70
4, 34655, Note_on_c, 1, 57, 0
4, 34656, Note_on_c, 1, 50, 70
4, 34679, Note_on_c, 1, 50, 0
4, 34680, Note_on_c, 1, 57, 70
4, 34703, Note_on_c, 1, 57, 0
4, 34704, Note_on_c, 1, 56, 70
4, 34727, Note_on_c, 1, 56, 0
4, 34728, Note_on_c, 1, 57, 70
4, 34751, Note_on_c, 1, 57, 0
4, 34752, Note_on_c, 1, 49, 70
4, 34775, Note_on_c, 1, 49, 0
4, 34776, Note_on_c, 1, 57, 71
4, 34799, Note_on_c, 1, 57, 0
4, 34800, Note_on_c, 1, 56, 71
4, 34823, Note_on_c, 1, 56, 0
4, 34824, Note_on_c, 1, 57, 71
4, 34847, Note_on_c, 1, 57, 0
4, 34848, Note_on_c, 1, 49, 71
4, 34871, Note_on_c, 1, 49, 0
4, 34872, Note_on_c, 1, 57, 71
4, 34895, Note_on_c, 1, 57, 0
4, 34896, Note_on_c, 1, 56, 71
4, 34919, Note_on_c, 1, 56, 0
4, 34920, Note_on_c, 1, 57, 71
4, 34943, Note_on_c, 1, 57, 0
4, 34944, Note_on_c, 1, 50, 71
4, 34967, Note_on_c, 1, 50, 0
4, 34968, Note_on_c, 1, 57, 72
4, 34991, Note_on_c, 1, 57, 0
4, 34992, Note_on_c, 1, 56, 72
4, 35015, Note_on_c, 1, 56, 0
4, 35016, Note_on_c, 1, 57, 72
4, 35039, Note_on_c, 1, 57, 0
4, 35040, Note_on_c, 1, 50, 72
4, 35063, Note_on_c, 1, 50, 0
4, 35064, Note_on_c, 1, 57, 72
4, 35087, Note_on_c, 1, 57, 0
4, 35088, Note_on_c, 1, 56, 72
4, 35111, Note_on_c, 1, 56, 0
4, 35112, Note_on_c, 1, 57, 72
4, 35135, Note_on_c, 1, 57, 0
4, 35136, Note_on_c, 1, 54, 72
4, 35159, Note_on_c, 1, 54, 0
4, 35160, Note_on_c, 1, 62, 73
4, 35183, Note_on_c, 1, 62, 0
4, 35184, Note_on_c, 1, 61, 73
4, 35207, Note_on_c, 1, 61, 0
4, 35208, Note_on_c, 1, 62, 73
4, 35231, Note_on_c, 1, 62, 0
4, 35232, Note_on_c, 1, 54, 73
4, 35255, Note_on_c, 1, 54, 0
4, 35256, Note_on_c, 1, 62, 73
4, 35279, Note_on_c, 1, 62, 0
4, 35280, Note_on_c, 1, 61, 73
4, 35303, Note_on_c, 1, 61, 0
4, 35304, Note_on_c, 1, 62, 73
4, 35327, Note_on_c, 1, 62, 0
4, 35328, Note_on_c, 1, 55, 73
4, 35351, Note_on_c, 1, 55, 0
4, 35352, Note_on_c, 1, 62, 74
4, 35375, Note_on_c, 1, 62, 0
4, 35376, Note_on_c, 1, 61, 74
4, 35399, Note_on_c, 1, 61, 0
4, 35400, Note_on_c, 1, 62, 74
4, 35423, Note_on_c, 1, 62, 0
4, 35424, Note_on_c, 1, 55, 74
4, 35447, Note_on_c, 1, 55, 0
4, 35448, Note_on_c, 1, 62, 74
4, 35471, Note_on_c, 1, 62, 0
4, 35472, Note_on_c, 1, 61, 74
4, 35495, Note_on_c, 1, 61, 0
4, 35496, Note_on_c, 1, 62, 74
4, 35519, Note_on_c, 1, 62, 0
4, 35520, Note_on_c, 1, 56, 74
4, 35543, Note_on_c, 1, 56, 0
4, 35544, Note_on_c, 1, 64, 75
4, 35567, Note_on_c, 1, 64, 0
4, 35568, Note_on_c, 1, 63, 75
4, 35591, Note_on_c, 1, 63, 0
4, 35592, Note_on_c, 1, 64, 75
4, 35615, Note_on_c, 1, 64, 0
4, 35616, Note_on_c, 1, 56, 75
4, 35639, Note_on_c, 1, 56, 0
4, 35640, Note_on_c, 1, 64, 75
4, 35663, Note_on_c, 1, 64, 0
4, 35664, Note_on_c, 1, 63, 75
4, 35687, Note_on_c, 1, 63, 0
4, 35688, Note_on_c, 1, 64, 75
4, 35711, Note_on_c, 1, 64, 0
4, 35712, Note_on_c, 1, 57, 75
4, 35735, Note_on_c, 1, 57, 0
4, 35736, Note_on_c, 1, 64, 76
4, 35759, Note_on_c, 1, 64, 0
4, 35760, Note_on_c, 1, 63, 76
4, 35783, Note_on_c, 1, 63, 0
4, 35784, Note_on_c, 1, 64, 76
4, 35807, Note_on_c, 1, 64, 0
4, 35808, Note_on_c, 1, 57, 76
4, 35831, Note_on_c, 1, 57, 0
4, 35832, Note_on_c, 1, 64, 76
4, 35855, Note_on_c, 1, 64, 0
4, 35856, Note_on_c, 1, 63, 76
4, 35879, Note_on_c, 1, 63, 0
4, 35880, Note_on_c, 1, 64, 76
4, 35903, Note_on_c, 1, 64, 0
4, 35904, Note_on_c, 1, 61, 76
4, 35904, Note_on_c, 1, 57, 76
4, 35949, Note_on_c, 1, 61, 0
4, 35949, Note_on_c, 1, 57, 0
4, 36096, Note_on_c, 1, 62, 76
4, 36096, Note_on_c, 1, 59, 76
4, 36141, Note_on_c, 1, 62, 0
4, 36141, Note_on_c, 1, 59, 0
4, 36288, Note_on_c, 1, 64, 76
4, 36288, Note_on_c, 1, 61, 76
4, 36465, Note_on_c, 1, 64, 0
4, 36465, Note_on_c, 1, 61, 0
4, 36504, Note_on_c, 1, 50, 76
4, 36527, Note_on_c, 1, 50, 0
4, 36528, Note_on_c, 1, 54, 76
4, 36551, Note_on_c, 1, 54, 0
4, 36552, Note_on_c, 1, 57, 76
4, 36575, Note_on_c, 1, 57, 0
4, 36576, Note_on_c, 1, 62, 76
4, 36621, Note_on_c, 1, 62, 0
4, 36624, Note_on_c, 1, 50, 76
4, 36669, Note_on_c, 1, 50, 0
4, 36672, Note_on_c, 1, 62, 76
4, 36761, Note_on_c, 1, 62, 0
4, 36768, Note_on_c, 1, 62, 76
4, 36909, Note_on_c, 1, 62, 0
4, 36912, Note_on_c, 1, 61, 76
4, 36957, Note_on_c, 1, 61, 0
4, 36960, Note_on_c, 1, 62, 76
4, 37005, Note_on_c, 1, 62, 0
4, 37056, Note_on_c, 1, 62, 61
4, 37145, Note_on_c, 1, 62, 0
4, 37152, Note_on_c, 1, 62, 61
4, 37293, Note_on_c, 1, 62, 0
4, 37296, Note_on_c, 1, 61, 61
4, 37341, Note_on_c, 1, 61, 0
4, 37344, Note_on_c, 1, 62, 61
4, 37389, Note_on_c, 1, 62, 0
4, 37440, Control_c, 1, 64, 127
4, 37440, Note_on_c, 1, 58, 89
4, 37440, Note_on_c, 1, 46, 89
4, 37617, Note_on_c, 1, 58, 0
4, 37617, Note_on_c, 1, 46, 0
4, 37632, Control_c, 1, 64, 127
4, 37632, Note_on_c, 1, 59, 89
4, 37632, Note_on_c, 1, 47, 89
4, 37809, Note_on_c, 1, 59, 0
4, 37809, Note_on_c, 1, 47, 0
4, 37824, Note_on_c, 1, 56, 89
4, 37824, Note_on_c, 1, 44, 89
4, 38001, Note_on_c, 1, 56, 0
4, 38001, Note_on_c, 1, 44, 0
4, 38016, Control_c, 1, 64, 0
4, 38016, Control_c, 1, 64, 127
4, 38016, Note_on_c, 1, 61, 89
4, 38016, Note_on_c, 1, 49, 89
4, 38193, Note_on_c, 1, 61, 0
4, 38193, Note_on_c, 1, 49, 0
4, 38208, Control_c, 1, 64, 0
4, 38208, Control_c, 1, 64, 127
4, 38208, Note_on_c, 1, 58, 89
4, 38208, Note_on_c, 1, 46, 89
4, 38385, Note_on_c, 1, 58, 0
4, 38385, Note_on_c, 1, 46, 0
4, 38400, Control_c, 1, 64, 0
4, 38400, Control_c, 1, 64, 127
4, 38400, Note_on_c, 1, 59, 89
4, 38400, Note_on_c, 1, 47, 89
4, 38489, Note_on_c, 1, 59, 0
4, 38489, Note_on_c, 1, 47, 0
4, 38496, Note_on_c, 1, 56, 89
4, 38496, Note_on_c, 1, 44, 89
4, 38585, Note_on_c, 1, 56, 0
4, 38585, Note_on_c, 1, 44, 0
4, 38592, Control_c, 1, 64, 0
4, 38592, Control_c, 1, 64, 127
4, 38592, Note_on_c, 1, 57, 89
4, 38592, Note_on_c, 1, 45, 89
4, 38681, Note_on_c, 1, 57, 0
4, 38681, Note_on_c, 1, 45, 0
4, 38688, Note_on_c, 1, 61, 89
4, 38688, Note_on_c, 1, 49, 89
4, 38777, Note_on_c, 1, 61, 0
4, 38777, Note_on_c, 1, 49, 0
4, 38784, Control_c, 1, 64, 0
4, 38784, Control_c, 1, 64, 127
4, 38784, Note_on_c, 1, 62, 89
4, 38784, Note_on_c, 1, 50, 89
4, 38873, Note_on_c, 1, 62, 0
4, 38873, Note_on_c, 1, 50, 0
4, 38880, Note_on_c, 1, 56, 89
4, 38880, Note_on_c, 1, 44, 89
4, 38969, Note_on_c, 1, 56, 0
4, 38969, Note_on_c, 1, 44, 0
4, 38976, Control_c, 1, 64, 0
4, 38976, Note_on_c, 1, 57, 89
4, 38976, Note_on_c, 1, 45, 89
4, 39065, Note_on_c, 1, 57, 0
4, 39065, Note_on_c, 1, 45, 0
4, 39312, Note_on_c, 1, 69, 69
4, 39357, Note_on_c, 1, 69, 0
4, 39360, Note_on_c, 1, 71, 69
4, 39454, Note_on_c, 1, 71, 0
4, 39696, Note_on_c, 1, 69, 61
4, 39741, Note_on_c, 1, 69, 0
4, 39744, Note_on_c, 1, 71, 61
4, 39838, Note_on_c, 1, 71, 0
4, 40080, Note_on_c, 1, 57, 69
4, 40125, Note_on_c, 1, 57, 0
4, 40176, Note_on_c, 1, 59, 69
4, 40221, Note_on_c, 1, 59, 0
4, 40224, Note_on_c, 1, 62, 69
4, 40313, Note_on_c, 1, 62, 0
4, 40320, Note_on_c, 1, 62, 69
4, 40320, Note_on_c, 1, 57, 69
4, 40409, Note_on_c, 1, 62, 0
4, 40409, Note_on_c, 1, 57, 0
4, 40416, Note_on_c, 1, 61, 69
4, 40416, Note_on_c, 1, 57, 69
4, 40505, Note_on_c, 1, 61, 0
4, 40505, Note_on_c, 1, 57, 0
4, 40512, Note_on_c, 1, 62, 69
4, 40512, Note_on_c, 1, 50, 69
4, 40601, Note_on_c, 1, 62, 0
4, 40601, Note_on_c, 1, 50, 0
4, 40656, Note_on_c, 1, 66, 76
4, 40701, Note_on_c, 1, 66, 0
4, 40704, Note_on_c, 1, 67, 76
4, 40749, Note_on_c, 1, 67, 0
4, 40752, Note_on_c, 1, 55, 76
4, 40797, Note_on_c, 1, 55, 0
4, 40848, Note_on_c, 1, 64, 76
4, 40848, Note_on_c, 1, 57, 76
4, 40893, Note_on_c, 1, 64, 0
4, 40893, Note_on_c, 1, 57, 0
4, 40896, Note_on_c, 1, 62, 76
4, 40941, Note_on_c, 1, 62, 0
4, 40944, Note_on_c, 1, 50, 76
4, 40989, Note_on_c, 1, 50, 0
4, 41040, Note_on_c, 1, 66, 61
4, 41085, Note_on_c, 1, 66, 0
4, 41088, Note_on_c, 1, 67, 61
4, 41133, Note_on_c, 1, 67, 0
4, 41136, Note_on_c, 1, 55, 61
4, 41181, Note_on_c, 1, 55, 0
4, 41232, Note_on_c, 1, 64, 61
4, 41232, Note_on_c, 1, 57, 61
4, 41277, Note_on_c, 1, 64, 0
4, 41277, Note_on_c, 1, 57, 0
4, 41280, Note_on_c, 1, 62, 61
4, 41325, Note_on_c, 1, 62, 0
4, 41328, Note_on_c, 1, 50, 61
4, 41373, Note_on_c, 1, 50, 0
4, 41472, Note_on_c, 1, 50, 0
4, 41517, Note_on_c, 1, 50, 0
4, 41520, End_track
5, 0, Start_track
5, 0, Program_c, 1, 0
5, 0, Control_c, 1, 7, 127
5, 0, Control_c, 1, 10, 64
5, 576, Note_on_c, 1, 54, 64
5, 665, Note_on_c, 1, 54, 0
5, 672, Note_on_c, 1, 52, 64
5, 761, Note_on_c, 1, 52, 0
5, 768, Note_on_c, 1, 50, 64
5, 857, Note_on_c, 1, 50, 0
5, 3456, Note_on_c, 1, 62, 64
5, 3545, Note_on_c, 1, 62, 0
5, 3552, Note_on_c, 1, 61, 64
5, 3641, Note_on_c, 1, 61, 0
5, 3648, Note_on_c, 1, 59, 64
5, 3737, Note_on_c, 1, 59, 0
5, 3744, Note_on_c, 1, 57, 64
5, 3789, Note_on_c, 1, 57, 0
5, 3840, Note_on_c, 1, 62, 61
5, 3929, Note_on_c, 1, 62, 0
5, 3936, Note_on_c, 1, 61, 61
5, 4025, Note_on_c, 1, 61, 0
5, 4032, Note_on_c, 1, 59, 61
5, 4121, Note_on_c, 1, 59, 0
5, 4128, Note_on_c, 1, 57, 61
5, 4173, Note_on_c, 1, 57, 0
5, 6912, Note_on_c, 1, 54, 61
5, 6957, Note_on_c, 1, 54, 0
5, 6960, Note_on_c, 1, 49, 61
5, 7005, Note_on_c, 1, 49, 0
5, 7008, Note_on_c, 1, 50, 61
5, 7097, Note_on_c, 1, 50, 0
5, 8832, Note_on_c, 1, 54, 64
5, 8921, Note_on_c, 1, 54, 0
5, 8928, Note_on_c, 1, 52, 64
5, 9017, Note_on_c, 1, 52, 0
5, 9024, Note_on_c, 1, 50, 64
5, 9113, Note_on_c, 1, 50, 0
5, 11712, Note_on_c, 1, 62, 64
5, 11801, Note_on_c, 1, 62, 0
5, 11808, Note_on_c, 1, 61, 64
5, 11897, Note_on_c, 1, 61, 0
5, 11904, Note_on_c, 1, 59, 64
5, 11993, Note_on_c, 1, 59, 0
5, 12000, Note_on_c, 1, 57, 64
5, 12045, Note_on_c, 1, 57, 0
5, 12096, Note_on_c, 1, 62, 61
5, 12185, Note_on_c, 1, 62, 0
5, 12192, Note_on_c, 1, 61, 61
5, 12281, Note_on_c, 1, 61, 0
5, 12288, Note_on_c, 1, 59, 61
5, 12377, Note_on_c, 1, 59, 0
5, 12384, Note_on_c, 1, 57, 61
5, 12429, Note_on_c, 1, 57, 0
5, 15168, Note_on_c, 1, 54, 61
5, 15213, Note_on_c, 1, 54, 0
5, 15216, Note_on_c, 1, 49, 61
5, 15261, Note_on_c, 1, 49, 0
5, 15264, Note_on_c, 1, 50, 61
5, 15353, Note_on_c, 1, 50, 0
5, 16512, Control_c, 1, 64, 127
5, 16512, Note_on_c, 1, 57, 83
5, 16689, Note_on_c, 1, 57, 0
5, 16704, Note_on_c, 1, 57, 76
5, 16881, Note_on_c, 1, 57, 0
5, 16896, Note_on_c, 1, 57, 77
5, 17073, Note_on_c, 1, 57, 0
5, 17088, Note_on_c, 1, 57, 79
5, 17265, Note_on_c, 1, 57, 0
5, 17280, Note_on_c, 1, 57, 81
5, 17457, Note_on_c, 1, 57, 0
5, 17472, Control_c, 1, 64, 0
5, 24192, Note_on_c, 1, 55, 83
5, 24281, Note_on_c, 1, 55, 0
5, 24288, Note_on_c, 1, 54, 83
5, 24377, Note_on_c, 1, 54, 0
5, 24384, Note_on_c, 1, 52, 83
5, 24473, Note_on_c, 1, 52, 0
5, 24480, Note_on_c, 1, 50, 83
5, 24525, Note_on_c, 1, 50, 0
5, 24576, Note_on_c, 1, 55, 83
5, 24665, Note_on_c, 1, 55, 0
5, 24672, Note_on_c, 1, 54, 83
5, 24761, Note_on_c, 1, 54, 0
5, 24768, Note_on_c, 1, 52, 83
5, 24857, Note_on_c, 1, 52, 0
5, 24864, Note_on_c, 1, 50, 83
5, 24909, Note_on_c, 1, 50, 0
5, 27648, Note_on_c, 1, 59, 83
5, 27693, Note_on_c, 1, 59, 0
5, 27696, Note_on_c, 1, 54, 83
5, 27741, Note_on_c, 1, 54, 0
5, 27744, Note_on_c, 1, 55, 83
5, 27833, Note_on_c, 1, 55, 0
5, 28992, Control_c, 1, 64, 127
5, 28992, Note_on_c, 1, 57, 83
5, 29169, Note_on_c, 1, 57, 0
5, 29184, Note_on_c, 1, 57, 76
5, 29361, Note_on_c, 1, 57, 0
5, 29376, Note_on_c, 1, 57, 77
5, 29553, Note_on_c, 1, 57, 0
5, 29568, Note_on_c, 1, 57, 79
5, 29745, Note_on_c, 1, 57, 0
5, 29760, Note_on_c, 1, 57, 81
5, 29937, Note_on_c, 1, 57, 0
5, 29952, Control_c, 1, 64, 0
5, 36672, Note_on_c, 1, 55, 83
5, 36761, Note_on_c, 1, 55, 0
5, 36768, Note_on_c, 1, 54, 83
5, 36857, Note_on_c, 1, 54, 0
5, 36864, Note_on_c, 1, 52, 83
5, 36953, Note_on_c, 1, 52, 0
5, 36960, Note_on_c, 1, 50, 83
5, 37005, Note_on_c, 1, 50, 0
5, 37056, Note_on_c, 1, 55, 83
5, 37145, Note_on_c, 1, 55, 0
5, 37152, Note_on_c, 1, 54, 83
5, 37241, Note_on_c, 1, 54, 0
5, 37248, Note_on_c, 1, 52, 83
5, 37337, Note_on_c, 1, 52, 0
5, 37344, Note_on_c, 1, 50, 83
5, 37389, Note_on_c, 1, 50, 0
5, 40128, Note_on_c, 1, 59, 83
5, 40173, Note_on_c, 1, 59, 0
5, 40176, Note_on_c, 1, 54, 83
5, 40221, Note_on_c, 1, 54, 0
5, 40224, Note_on_c, 1, 55, 83
5, 40313, Note_on_c, 1, 55, 0
5, 41472, End_track
6, 0, Start_track
6, 0, Title_t, "Sonata III   <composer>  "
6, 0, End_track
0, 0, End_of_file
