0, 0, Header, 1, 6, 96
1, 0, Start_track
1, 0, Copyright_t, "Copyright  2000 <copyright holder>"
1, 0, Text_t, "Piano Solo\015\012"
1, 0, Text_t, "<composer>\015\012"
1, 0, Sequencer_specific, 16, 68, 87, 77, 90, 86, 82, 83, 78, 32, 55, 46, 48, 46, 56, 46, 48
1, 0, Time_signature, 2, 2, 24, 8
1, 0, Tempo, 120000
1, 0, Key_signature, 2, "major"
1, 168, Tempo, 882352
1, 7080, Tempo, 882352
1, 42432, End_track
2, 0, Start_track
2, 0, Program_c, 0, 0
2, 0, Control_c, 0, 7, 127
2, 0, Control_c, 0, 10, 64
2, 168, Note_on_c, 0, 62, 74
2, 191, Note_on_c, 0, 62, 0
2, 192, Note_on_c, 0, 66, 74
2, 259, Note_on_c, 0, 66, 0
2, 264, Note_on_c, 0, 62, 75
2, 287, Note_on_c, 0, 62, 0
2, 288, Note_on_c, 0, 67, 75
2, 355, Note_on_c, 0, 67, 0
2, 360, Note_on_c, 0, 61, 76
2, 383, Note_on_c, 0, 61, 0
2, 384, Note_on_c, 0, 62, 92
2, 456, Note_on_c, 0, 62, 0
2, 456, Note_on_c, 0, 66, 77
2, 468, Note_on_c, 0, 66, 0
2, 468, Note_on_c, 0, 64, 77
2, 480, Note_on_c, 0, 64, 0
2, 480, Note_on_c, 0, 62, 78
2, 514, Note_on_c, 0, 62, 0
2, 516, Note_on_c, 0, 62, 77
2, 528, Note_on_c, 0, 62, 0
2, 528, Note_on_c, 0, 74, 77
2, 562, Note_on_c, 0, 74, 0
2, 564, Note_on_c, 0, 73, 76
2, 576, Note_on_c, 0, 73, 0
2, 576, Note_on_c, 0, 71, 76
2, 610, Note_on_c, 0, 71, 0
2, 612, Note_on_c, 0, 61, 76
2, 624, Note_on_c, 0, 61, 0
2, 624, Note_on_c, 0, 62, 76
2, 658, Note_on_c, 0, 62, 0
2, 660, Note_on_c, 0, 69, 75
2, 672, Note_on_c, 0, 69, 0
2, 672, Note_on_c, 0, 69, 75
2, 717, Note_on_c, 0, 69, 0
2, 720, Note_on_c, 0, 67, 74
2, 727, Note_on_c, 0, 67, 0
2, 727, Note_on_c, 0, 69, 74
2, 734, Note_on_c, 0, 69, 0
2, 734, Note_on_c, 0, 67, 74
2, 741, Note_on_c, 0, 67, 0
2, 741, Note_on_c, 0, 69, 74
2, 748, Note_on_c, 0, 69, 0
2, 748, Note_on_c, 0, 67, 74
2, 755, Note_on_c, 0, 67, 0
2, 755, Note_on_c, 0, 66, 74
2, 762, Note_on_c, 0, 66, 0
2, 762, Note_on_c, 0, 67, 74
2, 768, Note_on_c, 0, 67, 0
2, 768, Note_on_c, 0, 67, 74
2, 816, Note_on_c, 0, 67, 0
2, 816, Note_on_c, 0, 66, 74
2, 861, Note_on_c, 0, 66, 0
2, 936, Note_on_c, 0, 74, 74
2, 959, Note_on_c, 0, 74, 0
2, 960, Note_on_c, 0, 78, 74
2, 1027, Note_on_c, 0, 78, 0
2, 1032, Note_on_c, 0, 74, 74
2, 1055, Note_on_c, 0, 74, 0
2, 1056, Note_on_c, 0, 79, 75
2, 1123, Note_on_c, 0, 79, 0
2, 1128, Note_on_c, 0, 73, 76
2, 1151, Note_on_c, 0, 73, 0
2, 1152, Note_on_c, 0, 74, 92
2, 1224, Note_on_c, 0, 74, 0
2, 1224, Note_on_c, 0, 78, 77
2, 1236, Note_on_c, 0, 78, 0
2, 1236, Note_on_c, 0, 76, 77
2, 1248, Note_on_c, 0, 76, 0
2, 1248, Note_on_c, 0, 74, 77
2, 1282, Note_on_c, 0, 74, 0
2, 1284, Note_on_c, 0, 74, 77
2, 1296, Note_on_c, 0, 74, 0
2, 1296, Note_on_c, 0, 86, 78
2, 1330, Note_on_c, 0, 86, 0
2, 1332, Note_on_c, 0, 85, 77
2, 1344, Note_on_c, 0, 85, 0
2, 1344, Note_on_c, 0, 85, 77
2, 1378, Note_on_c, 0, 85, 0
2, 1380, Note_on_c, 0, 83, 76
2, 1392, Note_on_c, 0, 83, 0
2, 1392, Note_on_c, 0, 83, 76
2, 1426, Note_on_c, 0, 83, 0
2, 1428, Note_on_c, 0, 81, 75
2, 1440, Note_on_c, 0, 81, 0
2, 1440, Note_on_c, 0, 81, 75
2, 1474, Note_on_c, 0, 81, 0
2, 1476, Note_on_c, 0, 79, 75
2, 1488, Note_on_c, 0, 79, 0
2, 1488, Note_on_c, 0, 79, 74
2, 1522, Note_on_c, 0, 79, 0
2, 1524, Note_on_c, 0, 78, 74
2, 1536, Note_on_c, 0, 78, 0
2, 1536, Note_on_c, 0, 78, 74
2, 1584, Note_on_c, 0, 78, 0
2, 1584, Note_on_c, 0, 76, 74
2, 1629, Note_on_c, 0, 76, 0
2, 1752, Note_on_c, 0, 76, 74
2, 1775, Note_on_c, 0, 76, 0
2, 1776, Note_on_c, 0, 73, 74
2, 1799, Note_on_c, 0, 73, 0
2, 1800, Note_on_c, 0, 76, 74
2, 1823, Note_on_c, 0, 76, 0
2, 1848, Note_on_c, 0, 76, 74
2, 1871, Note_on_c, 0, 76, 0
2, 1872, Note_on_c, 0, 73, 74
2, 1895, Note_on_c, 0, 73, 0
2, 1896, Note_on_c, 0, 76, 74
2, 1919, Note_on_c, 0, 76, 0
2, 1944, Note_on_c, 0, 74, 74
2, 1989, Note_on_c, 0, 74, 0
2, 1992, Note_on_c, 0, 69, 74
2, 2037, Note_on_c, 0, 69, 0
2, 2040, Note_on_c, 0, 67, 74
2, 2085, Note_on_c, 0, 67, 0
2, 2088, Note_on_c, 0, 66, 74
2, 2111, Note_on_c, 0, 66, 0
2, 2128, Note_on_c, 0, 76, 74
2, 2143, Note_on_c, 0, 76, 0
2, 2144, Note_on_c, 0, 74, 74
2, 2159, Note_on_c, 0, 74, 0
2, 2160, Note_on_c, 0, 73, 74
2, 2175, Note_on_c, 0, 73, 0
2, 2176, Note_on_c, 0, 74, 74
2, 2191, Note_on_c, 0, 74, 0
2, 2192, Note_on_c, 0, 76, 74
2, 2207, Note_on_c, 0, 76, 0
2, 2224, Note_on_c, 0, 76, 74
2, 2239, Note_on_c, 0, 76, 0
2, 2240, Note_on_c, 0, 74, 74
2, 2255, Note_on_c, 0, 74, 0
2, 2256, Note_on_c, 0, 73, 74
2, 2271, Note_on_c, 0, 73, 0
2, 2272, Note_on_c, 0, 74, 74
2, 2287, Note_on_c, 0, 74, 0
2, 2288, Note_on_c, 0, 76, 74
2, 2303, Note_on_c, 0, 76, 0
2, 2328, Note_on_c, 0, 74, 74
2, 2373, Note_on_c, 0, 74, 0
2, 2376, Note_on_c, 0, 69, 74
2, 2421, Note_on_c, 0, 69, 0
2, 2424, Note_on_c, 0, 67, 74
2, 2469, Note_on_c, 0, 67, 0
2, 2472, Note_on_c, 0, 66, 74
2, 2495, Note_on_c, 0, 66, 0
2, 2520, Note_on_c, 0, 78, 78
2, 2543, Note_on_c, 0, 78, 0
2, 2544, Note_on_c, 0, 75, 78
2, 2567, Note_on_c, 0, 75, 0
2, 2568, Note_on_c, 0, 78, 78
2, 2591, Note_on_c, 0, 78, 0
2, 2616, Note_on_c, 0, 78, 78
2, 2639, Note_on_c, 0, 78, 0
2, 2640, Note_on_c, 0, 75, 78
2, 2663, Note_on_c, 0, 75, 0
2, 2664, Note_on_c, 0, 78, 78
2, 2687, Note_on_c, 0, 78, 0
2, 2712, Note_on_c, 0, 76, 78
2, 2757, Note_on_c, 0, 76, 0
2, 2760, Note_on_c, 0, 71, 78
2, 2805, Note_on_c, 0, 71, 0
2, 2808, Note_on_c, 0, 69, 78
2, 2853, Note_on_c, 0, 69, 0
2, 2856, Note_on_c, 0, 68, 78
2, 2879, Note_on_c, 0, 68, 0
2, 2896, Note_on_c, 0, 78, 78
2, 2911, Note_on_c, 0, 78, 0
2, 2912, Note_on_c, 0, 76, 78
2, 2927, Note_on_c, 0, 76, 0
2, 2928, Note_on_c, 0, 75, 78
2, 2943, Note_on_c, 0, 75, 0
2, 2944, Note_on_c, 0, 76, 78
2, 2959, Note_on_c, 0, 76, 0
2, 2960, Note_on_c, 0, 78, 78
2, 2975, Note_on_c, 0, 78, 0
2, 2992, Note_on_c, 0, 78, 78
2, 3007, Note_on_c, 0, 78, 0
2, 3008, Note_on_c, 0, 76, 78
2, 3023, Note_on_c, 0, 76, 0
2, 3024, Note_on_c, 0, 75, 78
2, 3039, Note_on_c, 0, 75, 0
2, 3040, Note_on_c, 0, 76, 78
2, 3055, Note_on_c, 0, 76, 0
2, 3056, Note_on_c, 0, 78, 78
2, 3071, Note_on_c, 0, 78, 0
2, 3096, Note_on_c, 0, 76, 78
2, 3141, Note_on_c, 0, 76, 0
2, 3144, Note_on_c, 0, 71, 78
2, 3189, Note_on_c, 0, 71, 0
2, 3192, Note_on_c, 0, 69, 78
2, 3237, Note_on_c, 0, 69, 0
2, 3240, Note_on_c, 0, 68, 78
2, 3263, Note_on_c, 0, 68, 0
2, 3264, Note_on_c, 0, 66, 74
2, 3427, Note_on_c, 0, 66, 0
2, 3432, Note_on_c, 0, 74, 74
2, 3444, Note_on_c, 0, 74, 0
2, 3444, Note_on_c, 0, 71, 74
2, 3456, Note_on_c, 0, 71, 0
2, 3456, Note_on_c, 0, 69, 74
2, 3552, Note_on_c, 0, 69, 0
2, 3552, Note_on_c, 0, 68, 74
2, 3597, Note_on_c, 0, 68, 0
2, 3600, Note_on_c, 0, 78, 74
2, 3612, Note_on_c, 0, 78, 0
2, 3612, Note_on_c, 0, 76, 74
2, 3624, Note_on_c, 0, 76, 0
2, 3624, Note_on_c, 0, 74, 74
2, 3636, Note_on_c, 0, 74, 0
2, 3636, Note_on_c, 0, 73, 74
2, 3648, Note_on_c, 0, 73, 0
2, 3648, Note_on_c, 0, 71, 74
2, 3744, Note_on_c, 0, 71, 0
2, 3744, Note_on_c, 0, 69, 74
2, 3767, Note_on_c, 0, 69, 0
2, 3768, Note_on_c, 0, 74, 74
2, 3780, Note_on_c, 0, 74, 0
2, 3780, Note_on_c, 0, 76, 74
2, 3792, Note_on_c, 0, 76, 0
2, 3792, Note_on_c, 0, 80, 74
2, 3804, Note_on_c, 0, 80, 0
2, 3804, Note_on_c, 0, 78, 74
2, 3816, Note_on_c, 0, 78, 0
2, 3816, Note_on_c, 0, 76, 74
2, 3828, Note_on_c, 0, 76, 0
2, 3828, Note_on_c, 0, 74, 74
2, 3840, Note_on_c, 0, 74, 0
2, 3840, Note_on_c, 0, 73, 74
2, 3936, Note_on_c, 0, 73, 0
2, 3936, Note_on_c, 0, 71, 74
2, 3959, Note_on_c, 0, 71, 0
2, 3960, Note_on_c, 0, 80, 74
2, 3972, Note_on_c, 0, 80, 0
2, 3972, Note_on_c, 0, 81, 74
2, 3984, Note_on_c, 0, 81, 0
2, 3984, Note_on_c, 0, 83, 74
2, 4007, Note_on_c, 0, 83, 0
2, 4008, Note_on_c, 0, 74, 74
2, 4031, Note_on_c, 0, 74, 0
2, 4032, Note_on_c, 0, 73, 74
2, 4055, Note_on_c, 0, 73, 0
2, 4056, Note_on_c, 0, 78, 90
2, 4104, Note_on_c, 0, 78, 0
2, 4104, Note_on_c, 0, 76, 74
2, 4127, Note_on_c, 0, 76, 0
2, 4128, Note_on_c, 0, 69, 74
2, 4151, Note_on_c, 0, 69, 0
2, 4152, Note_on_c, 0, 74, 90
2, 4200, Note_on_c, 0, 74, 0
2, 4200, Note_on_c, 0, 73, 74
2, 4223, Note_on_c, 0, 73, 0
2, 4224, Note_on_c, 0, 66, 74
2, 4247, Note_on_c, 0, 66, 0
2, 4248, Note_on_c, 0, 71, 90
2, 4296, Note_on_c, 0, 71, 0
2, 4296, Note_on_c, 0, 69, 74
2, 4319, Note_on_c, 0, 69, 0
2, 4320, Note_on_c, 0, 68, 74
2, 4343, Note_on_c, 0, 68, 0
2, 4344, Note_on_c, 0, 74, 90
2, 4392, Note_on_c, 0, 74, 0
2, 4392, Note_on_c, 0, 73, 74
2, 4415, Note_on_c, 0, 73, 0
2, 4416, Note_on_c, 0, 66, 74
2, 4439, Note_on_c, 0, 66, 0
2, 4440, Note_on_c, 0, 71, 90
2, 4488, Note_on_c, 0, 71, 0
2, 4488, Note_on_c, 0, 69, 74
2, 4511, Note_on_c, 0, 69, 0
2, 4512, Note_on_c, 0, 68, 74
2, 4535, Note_on_c, 0, 68, 0
2, 4536, Note_on_c, 0, 74, 90
2, 4584, Note_on_c, 0, 74, 0
2, 4584, Note_on_c, 0, 73, 74
2, 4607, Note_on_c, 0, 73, 0
2, 4608, Note_on_c, 0, 73, 74
2, 4656, Note_on_c, 0, 73, 0
2, 4656, Note_on_c, 0, 71, 74
2, 4701, Note_on_c, 0, 71, 0
2, 4704, Note_on_c, 0, 76, 74
2, 4716, Note_on_c, 0, 76, 0
2, 4716, Note_on_c, 0, 73, 75
2, 4728, Note_on_c, 0, 73, 0
2, 4728, Note_on_c, 0, 70, 76
2, 4740, Note_on_c, 0, 70, 0
2, 4740, Note_on_c, 0, 67, 78
2, 4752, Note_on_c, 0, 67, 0
2, 4752, Note_on_c, 0, 64, 77
2, 4845, Note_on_c, 0, 64, 0
2, 4848, Note_on_c, 0, 63, 75
2, 4893, Note_on_c, 0, 63, 0
2, 4896, Note_on_c, 0, 74, 74
2, 4908, Note_on_c, 0, 74, 0
2, 4908, Note_on_c, 0, 71, 75
2, 4920, Note_on_c, 0, 71, 0
2, 4920, Note_on_c, 0, 68, 76
2, 4932, Note_on_c, 0, 68, 0
2, 4932, Note_on_c, 0, 65, 78
2, 4944, Note_on_c, 0, 65, 0
2, 4944, Note_on_c, 0, 62, 77
2, 5037, Note_on_c, 0, 62, 0
2, 5040, Note_on_c, 0, 61, 75
2, 5085, Note_on_c, 0, 61, 0
2, 5088, Note_on_c, 0, 81, 74
2, 5100, Note_on_c, 0, 81, 0
2, 5100, Note_on_c, 0, 76, 74
2, 5112, Note_on_c, 0, 76, 0
2, 5112, Note_on_c, 0, 73, 74
2, 5124, Note_on_c, 0, 73, 0
2, 5124, Note_on_c, 0, 69, 74
2, 5136, Note_on_c, 0, 69, 0
2, 5136, Note_on_c, 0, 64, 74
2, 5181, Note_on_c, 0, 64, 0
2, 5184, Note_on_c, 0, 65, 74
2, 5208, Note_on_c, 0, 65, 0
2, 5208, Note_on_c, 0, 66, 74
2, 5231, Note_on_c, 0, 66, 0
2, 5232, Note_on_c, 0, 76, 74
2, 5244, Note_on_c, 0, 76, 0
2, 5244, Note_on_c, 0, 74, 74
2, 5256, Note_on_c, 0, 74, 0
2, 5256, Note_on_c, 0, 73, 74
2, 5268, Note_on_c, 0, 73, 0
2, 5268, Note_on_c, 0, 71, 74
2, 5280, Note_on_c, 0, 71, 0
2, 5280, Note_on_c, 0, 69, 74
2, 5325, Note_on_c, 0, 69, 0
2, 5328, Note_on_c, 0, 68, 74
2, 5335, Note_on_c, 0, 68, 0
2, 5335, Note_on_c, 0, 69, 74
2, 5342, Note_on_c, 0, 69, 0
2, 5342, Note_on_c, 0, 68, 74
2, 5349, Note_on_c, 0, 68, 0
2, 5349, Note_on_c, 0, 69, 74
2, 5356, Note_on_c, 0, 69, 0
2, 5356, Note_on_c, 0, 68, 74
2, 5363, Note_on_c, 0, 68, 0
2, 5363, Note_on_c, 0, 66, 74
2, 5370, Note_on_c, 0, 66, 0
2, 5370, Note_on_c, 0, 68, 74
2, 5376, Note_on_c, 0, 68, 0
2, 5376, Note_on_c, 0, 69, 74
2, 5421, Note_on_c, 0, 69, 0
2, 5424, Note_on_c, 0, 76, 63
2, 5495, Note_on_c, 0, 76, 0
2, 5496, Note_on_c, 0, 72, 63
2, 5519, Note_on_c, 0, 72, 0
2, 5520, Note_on_c, 0, 77, 63
2, 5543, Note_on_c, 0, 77, 0
2, 5544, Note_on_c, 0, 76, 63
2, 5567, Note_on_c, 0, 76, 0
2, 5568, Note_on_c, 0, 75, 63
2, 5664, Note_on_c, 0, 75, 0
2, 5664, Note_on_c, 0, 74, 63
2, 5687, Note_on_c, 0, 74, 0
2, 5688, Note_on_c, 0, 71, 63
2, 5711, Note_on_c, 0, 71, 0
2, 5712, Note_on_c, 0, 76, 63
2, 5735, Note_on_c, 0, 76, 0
2, 5736, Note_on_c, 0, 74, 63
2, 5759, Note_on_c, 0, 74, 0
2, 5760, Note_on_c, 0, 72, 63
2, 5879, Note_on_c, 0, 72, 0
2, 5880, Note_on_c, 0, 69, 63
2, 5903, Note_on_c, 0, 69, 0
2, 5904, Note_on_c, 0, 81, 63
2, 5927, Note_on_c, 0, 81, 0
2, 5928, Note_on_c, 0, 75, 63
2, 5951, Note_on_c, 0, 75, 0
2, 5952, Note_on_c, 0, 76, 63
2, 6041, Note_on_c, 0, 76, 0
2, 6072, Note_on_c, 0, 69, 69
2, 6095, Note_on_c, 0, 69, 0
2, 6096, Note_on_c, 0, 81, 69
2, 6119, Note_on_c, 0, 81, 0
2, 6120, Note_on_c, 0, 75, 69
2, 6143, Note_on_c, 0, 75, 0
2, 6144, Note_on_c, 0, 78, 69
2, 6150, Note_on_c, 0, 78, 0
2, 6150, Note_on_c, 0, 76, 69
2, 6156, Note_on_c, 0, 76, 0
2, 6156, Note_on_c, 0, 75, 69
2, 6162, Note_on_c, 0, 75, 0
2, 6162, Note_on_c, 0, 76, 69
2, 6233, Note_on_c, 0, 76, 0
2, 6240, Note_on_c, 0, 64, 74
2, 6255, Note_on_c, 0, 64, 0
2, 6256, Note_on_c, 0, 76, 74
2, 6256, Note_on_c, 0, 73, 74
2, 6271, Note_on_c, 0, 76, 0
2, 6271, Note_on_c, 0, 73, 0
2, 6272, Note_on_c, 0, 76, 74
2, 6272, Note_on_c, 0, 73, 74
2, 6287, Note_on_c, 0, 76, 0
2, 6287, Note_on_c, 0, 73, 0
2, 6288, Note_on_c, 0, 76, 74
2, 6288, Note_on_c, 0, 73, 74
2, 6303, Note_on_c, 0, 76, 0
2, 6303, Note_on_c, 0, 73, 0
2, 6304, Note_on_c, 0, 76, 74
2, 6304, Note_on_c, 0, 73, 74
2, 6319, Note_on_c, 0, 76, 0
2, 6319, Note_on_c, 0, 73, 0
2, 6320, Note_on_c, 0, 76, 74
2, 6320, Note_on_c, 0, 73, 74
2, 6335, Note_on_c, 0, 76, 0
2, 6335, Note_on_c, 0, 73, 0
2, 6336, Note_on_c, 0, 76, 74
2, 6336, Note_on_c, 0, 73, 74
2, 6384, Note_on_c, 0, 76, 0
2, 6384, Note_on_c, 0, 73, 0
2, 6384, Note_on_c, 0, 75, 74
2, 6384, Note_on_c, 0, 71, 74
2, 6429, Note_on_c, 0, 75, 0
2, 6429, Note_on_c, 0, 71, 0
2, 6432, Note_on_c, 0, 64, 74
2, 6447, Note_on_c, 0, 64, 0
2, 6448, Note_on_c, 0, 74, 74
2, 6448, Note_on_c, 0, 71, 74
2, 6463, Note_on_c, 0, 74, 0
2, 6463, Note_on_c, 0, 71, 0
2, 6464, Note_on_c, 0, 74, 74
2, 6464, Note_on_c, 0, 71, 74
2, 6479, Note_on_c, 0, 74, 0
2, 6479, Note_on_c, 0, 71, 0
2, 6480, Note_on_c, 0, 74, 74
2, 6480, Note_on_c, 0, 71, 74
2, 6495, Note_on_c, 0, 74, 0
2, 6495, Note_on_c, 0, 71, 0
2, 6496, Note_on_c, 0, 74, 74
2, 6496, Note_on_c, 0, 71, 74
2, 6511, Note_on_c, 0, 74, 0
2, 6511, Note_on_c, 0, 71, 0
2, 6512, Note_on_c, 0, 74, 74
2, 6512, Note_on_c, 0, 71, 74
2, 6527, Note_on_c, 0, 74, 0
2, 6527, Note_on_c, 0, 71, 0
2, 6528, Note_on_c, 0, 74, 74
2, 6528, Note_on_c, 0, 71, 74
2, 6576, Note_on_c, 0, 74, 0
2, 6576, Note_on_c, 0, 71, 0
2, 6576, Note_on_c, 0, 73, 74
2, 6576, Note_on_c, 0, 69, 74
2, 6621, Note_on_c, 0, 73, 0
2, 6621, Note_on_c, 0, 69, 0
2, 6624, Note_on_c, 0, 69, 74
2, 6636, Note_on_c, 0, 69, 0
2, 6636, Note_on_c, 0, 71, 74
2, 6648, Note_on_c, 0, 71, 0
2, 6648, Note_on_c, 0, 73, 74
2, 6660, Note_on_c, 0, 73, 0
2, 6660, Note_on_c, 0, 74, 75
2, 6672, Note_on_c, 0, 74, 0
2, 6672, Note_on_c, 0, 76, 75
2, 6684, Note_on_c, 0, 76, 0
2, 6684, Note_on_c, 0, 78, 75
2, 6696, Note_on_c, 0, 78, 0
2, 6696, Note_on_c, 0, 80, 76
2, 6708, Note_on_c, 0, 80, 0
2, 6708, Note_on_c, 0, 81, 76
2, 6720, Note_on_c, 0, 81, 0
2, 6720, Note_on_c, 0, 71, 76
2, 6765, Note_on_c, 0, 71, 0
2, 6768, Note_on_c, 0, 80, 78
2, 6780, Note_on_c, 0, 80, 0
2, 6780, Note_on_c, 0, 78, 77
2, 6792, Note_on_c, 0, 78, 0
2, 6792, Note_on_c, 0, 76, 77
2, 6804, Note_on_c, 0, 76, 0
2, 6804, Note_on_c, 0, 74, 76
2, 6816, Note_on_c, 0, 74, 0
2, 6816, Note_on_c, 0, 73, 76
2, 6861, Note_on_c, 0, 73, 0
2, 6864, Note_on_c, 0, 71, 74
2, 6871, Note_on_c, 0, 71, 0
2, 6871, Note_on_c, 0, 73, 74
2, 6878, Note_on_c, 0, 73, 0
2, 6878, Note_on_c, 0, 71, 74
2, 6885, Note_on_c, 0, 71, 0
2, 6885, Note_on_c, 0, 73, 74
2, 6892, Note_on_c, 0, 73, 0
2, 6892, Note_on_c, 0, 71, 74
2, 6899, Note_on_c, 0, 71, 0
2, 6899, Note_on_c, 0, 69, 74
2, 6906, Note_on_c, 0, 69, 0
2, 6906, Note_on_c, 0, 71, 74
2, 6912, Note_on_c, 0, 71, 0
2, 6912, Note_on_c, 0, 69, 74
2, 7001, Note_on_c, 0, 69, 0
2, 7080, Note_on_c, 0, 62, 74
2, 7103, Note_on_c, 0, 62, 0
2, 7104, Note_on_c, 0, 66, 74
2, 7171, Note_on_c, 0, 66, 0
2, 7176, Note_on_c, 0, 62, 75
2, 7199, Note_on_c, 0, 62, 0
2, 7200, Note_on_c, 0, 67, 75
2, 7267, Note_on_c, 0, 67, 0
2, 7272, Note_on_c, 0, 61, 76
2, 7295, Note_on_c, 0, 61, 0
2, 7296, Note_on_c, 0, 62, 92
2, 7368, Note_on_c, 0, 62, 0
2, 7368, Note_on_c, 0, 66, 77
2, 7380, Note_on_c, 0, 66, 0
2, 7380, Note_on_c, 0, 64, 77
2, 7392, Note_on_c, 0, 64, 0
2, 7392, Note_on_c, 0, 62, 78
2, 7426, Note_on_c, 0, 62, 0
2, 7428, Note_on_c, 0, 62, 77
2, 7440, Note_on_c, 0, 62, 0
2, 7440, Note_on_c, 0, 74, 77
2, 7474, Note_on_c, 0, 74, 0
2, 7476, Note_on_c, 0, 73, 76
2, 7488, Note_on_c, 0, 73, 0
2, 7488, Note_on_c, 0, 71, 76
2, 7522, Note_on_c, 0, 71, 0
2, 7524, Note_on_c, 0, 61, 76
2, 7536, Note_on_c, 0, 61, 0
2, 7536, Note_on_c, 0, 62, 76
2, 7570, Note_on_c, 0, 62, 0
2, 7572, Note_on_c, 0, 69, 75
2, 7584, Note_on_c, 0, 69, 0
2, 7584, Note_on_c, 0, 69, 75
2, 7629, Note_on_c, 0, 69, 0
2, 7632, Note_on_c, 0, 67, 74
2, 7639, Note_on_c, 0, 67, 0
2, 7639, Note_on_c, 0, 69, 74
2, 7646, Note_on_c, 0, 69, 0
2, 7646, Note_on_c, 0, 67, 74
2, 7653, Note_on_c, 0, 67, 0
2, 7653, Note_on_c, 0, 69, 74
2, 7660, Note_on_c, 0, 69, 0
2, 7660, Note_on_c, 0, 67, 74
2, 7667, Note_on_c, 0, 67, 0
2, 7667, Note_on_c, 0, 66, 74
2, 7674, Note_on_c, 0, 66, 0
2, 7674, Note_on_c, 0, 67, 74
2, 7680, Note_on_c, 0, 67, 0
2, 7680, Note_on_c, 0, 67, 74
2, 7728, Note_on_c, 0, 67, 0
2, 7728, Note_on_c, 0, 66, 74
2, 7773, Note_on_c, 0, 66, 0
2, 7848, Note_on_c, 0, 74, 74
2, 7871, Note_on_c, 0, 74, 0
2, 7872, Note_on_c, 0, 78, 74
2, 7939, Note_on_c, 0, 78, 0
2, 7944, Note_on_c, 0, 74, 74
2, 7967, Note_on_c, 0, 74, 0
2, 7968, Note_on_c, 0, 79, 75
2, 8035, Note_on_c, 0, 79, 0
2, 8040, Note_on_c, 0, 73, 76
2, 8063, Note_on_c, 0, 73, 0
2, 8064, Note_on_c, 0, 74, 92
2, 8136, Note_on_c, 0, 74, 0
2, 8136, Note_on_c, 0, 78, 77
2, 8148, Note_on_c, 0, 78, 0
2, 8148, Note_on_c, 0, 76, 77
2, 8160, Note_on_c, 0, 76, 0
2, 8160, Note_on_c, 0, 74, 77
2, 8194, Note_on_c, 0, 74, 0
2, 8196, Note_on_c, 0, 74, 77
2, 8208, Note_on_c, 0, 74, 0
2, 8208, Note_on_c, 0, 86, 78
2, 8242, Note_on_c, 0, 86, 0
2, 8244, Note_on_c, 0, 85, 77
2, 8256, Note_on_c, 0, 85, 0
2, 8256, Note_on_c, 0, 85, 77
2, 8290, Note_on_c, 0, 85, 0
2, 8292, Note_on_c, 0, 83, 76
2, 8304, Note_on_c, 0, 83, 0
2, 8304, Note_on_c, 0, 83, 76
2, 8338, Note_on_c, 0, 83, 0
2, 8340, Note_on_c, 0, 81, 75
2, 8352, Note_on_c, 0, 81, 0
2, 8352, Note_on_c, 0, 81, 75
2, 8386, Note_on_c, 0, 81, 0
2, 8388, Note_on_c, 0, 79, 75
2, 8400, Note_on_c, 0, 79, 0
2, 8400, Note_on_c, 0, 79, 74
2, 8434, Note_on_c, 0, 79, 0
2, 8436, Note_on_c, 0, 78, 74
2, 8448, Note_on_c, 0, 78, 0
2, 8448, Note_on_c, 0, 78, 74
2, 8496, Note_on_c, 0, 78, 0
2, 8496, Note_on_c, 0, 76, 74
2, 8541, Note_on_c, 0, 76, 0
2, 8664, Note_on_c, 0, 76, 74
2, 8687, Note_on_c, 0, 76, 0
2, 8688, Note_on_c, 0, 73, 74
2, 8711, Note_on_c, 0, 73, 0
2, 8712, Note_on_c, 0, 76, 74
2, 8735, Note_on_c, 0, 76, 0
2, 8760, Note_on_c, 0, 76, 74
2, 8783, Note_on_c, 0, 76, 0
2, 8784, Note_on_c, 0, 73, 74
2, 8807, Note_on_c, 0, 73, 0
2, 8808, Note_on_c, 0, 76, 74
2, 8831, Note_on_c, 0, 76, 0
2, 8856, Note_on_c, 0, 74, 74
2, 8901, Note_on_c, 0, 74, 0
2, 8904, Note_on_c, 0, 69, 74
2, 8949, Note_on_c, 0, 69, 0
2, 8952, Note_on_c, 0, 67, 74
2, 8997, Note_on_c, 0, 67, 0
2, 9000, Note_on_c, 0, 66, 74
2, 9023, Note_on_c, 0, 66, 0
2, 9040, Note_on_c, 0, 76, 74
2, 9055, Note_on_c, 0, 76, 0
2, 9056, Note_on_c, 0, 74, 74
2, 9071, Note_on_c, 0, 74, 0
2, 9072, Note_on_c, 0, 73, 74
2, 9087, Note_on_c, 0, 73, 0
2, 9088, Note_on_c, 0, 74, 74
2, 9103, Note_on_c, 0, 74, 0
2, 9104, Note_on_c, 0, 76, 74
2, 9119, Note_on_c, 0, 76, 0
2, 9136, Note_on_c, 0, 76, 74
2, 9151, Note_on_c, 0, 76, 0
2, 9152, Note_on_c, 0, 74, 74
2, 9167, Note_on_c, 0, 74, 0
2, 9168, Note_on_c, 0, 73, 74
2, 9183, Note_on_c, 0, 73, 0
2, 9184, Note_on_c, 0, 74, 74
2, 9199, Note_on_c, 0, 74, 0
2, 9200, Note_on_c, 0, 76, 74
2, 9215, Note_on_c, 0, 76, 0
2, 9240, Note_on_c, 0, 74, 74
2, 9285, Note_on_c, 0, 74, 0
2, 9288, Note_on_c, 0, 69, 74
2, 9333, Note_on_c, 0, 69, 0
2, 9336, Note_on_c, 0, 67, 74
2, 9381, Note_on_c, 0, 67, 0
2, 9384, Note_on_c, 0, 66, 74
2, 9407, Note_on_c, 0, 66, 0
2, 9432, Note_on_c, 0, 78, 78
2, 9455, Note_on_c, 0, 78, 0
2, 9456, Note_on_c, 0, 75, 78
2, 9479, Note_on_c, 0, 75, 0
2, 9480, Note_on_c, 0, 78, 78
2, 9503, Note_on_c, 0, 78, 0
2, 9528, Note_on_c, 0, 78, 78
2, 9551, Note_on_c, 0, 78, 0
2, 9552, Note_on_c, 0, 75, 78
2, 9575, Note_on_c, 0, 75, 0
2, 9576, Note_on_c, 0, 78, 78
2, 9599, Note_on_c, 0, 78, 0
2, 9624, Note_on_c, 0, 76, 78
2, 9669, Note_on_c, 0, 76, 0
2, 9672, Note_on_c, 0, 71, 78
2, 9717, Note_on_c, 0, 71, 0
2, 9720, Note_on_c, 0, 69, 78
2, 9765, Note_on_c, 0, 69, 0
2, 9768, Note_on_c, 0, 68, 78
2, 9791, Note_on_c, 0, 68, 0
2, 9808, Note_on_c, 0, 78, 78
2, 9823, Note_on_c, 0, 78, 0
2, 9824, Note_on_c, 0, 76, 78
2, 9839, Note_on_c, 0, 76, 0
2, 9840, Note_on_c, 0, 75, 78
2, 9855, Note_on_c, 0, 75, 0
2, 9856, Note_on_c, 0, 76, 78
2, 9871, Note_on_c, 0, 76, 0
2, 9872, Note_on_c, 0, 78, 78
2, 9887, Note_on_c, 0, 78, 0
2, 9904, Note_on_c, 0, 78, 78
2, 9919, Note_on_c, 0, 78, 0
2, 9920, Note_on_c, 0, 76, 78
2, 9935, Note_on_c, 0, 76, 0
2, 9936, Note_on_c, 0, 75, 78
2, 9951, Note_on_c, 0, 75, 0
2, 9952, Note_on_c, 0, 76, 78
2, 9967, Note_on_c, 0, 76, 0
2, 9968, Note_on_c, 0, 78, 78
2, 9983, Note_on_c, 0, 78, 0
2, 10008, Note_on_c, 0, 76, 78
2, 10053, Note_on_c, 0, 76, 0
2, 10056, Note_on_c, 0, 71, 78
2, 10101, Note_on_c, 0, 71, 0
2, 10104, Note_on_c, 0, 69, 78
2, 10149, Note_on_c, 0, 69, 0
2, 10152, Note_on_c, 0, 68, 78
2, 10175, Note_on_c, 0, 68, 0
2, 10176, Note_on_c, 0, 66, 74
2, 10339, Note_on_c, 0, 66, 0
2, 10344, Note_on_c, 0, 74, 74
2, 10356, Note_on_c, 0, 74, 0
2, 10356, Note_on_c, 0, 71, 74
2, 10368, Note_on_c, 0, 71, 0
2, 10368, Note_on_c, 0, 69, 74
2, 10464, Note_on_c, 0, 69, 0
2, 10464, Note_on_c, 0, 68, 74
2, 10509, Note_on_c, 0, 68, 0
2, 10512, Note_on_c, 0, 78, 74
2, 10524, Note_on_c, 0, 78, 0
2, 10524, Note_on_c, 0, 76, 74
2, 10536, Note_on_c, 0, 76, 0
2, 10536, Note_on_c, 0, 74, 74
2, 10548, Note_on_c, 0, 74, 0
2, 10548, Note_on_c, 0, 73, 74
2, 10560, Note_on_c, 0, 73, 0
2, 10560, Note_on_c, 0, 71, 74
2, 10656, Note_on_c, 0, 71, 0
2, 10656, Note_on_c, 0, 69, 74
2, 10679, Note_on_c, 0, 69, 0
2, 10680, Note_on_c, 0, 74, 74
2, 10692, Note_on_c, 0, 74, 0
2, 10692, Note_on_c, 0, 76, 74
2, 10704, Note_on_c, 0, 76, 0
2, 10704, Note_on_c, 0, 80, 74
2, 10716, Note_on_c, 0, 80, 0
2, 10716, Note_on_c, 0, 78, 74
2, 10728, Note_on_c, 0, 78, 0
2, 10728, Note_on_c, 0, 76, 74
2, 10740, Note_on_c, 0, 76, 0
2, 10740, Note_on_c, 0, 74, 74
2, 10752, Note_on_c, 0, 74, 0
2, 10752, Note_on_c, 0, 73, 74
2, 10848, Note_on_c, 0, 73, 0
2, 10848, Note_on_c, 0, 71, 74
2, 10871, Note_on_c, 0, 71, 0
2, 10872, Note_on_c, 0, 80, 74
2, 10884, Note_on_c, 0, 80, 0
2, 10884, Note_on_c, 0, 81, 74
2, 10896, Note_on_c, 0, 81, 0
2, 10896, Note_on_c, 0, 83, 74
2, 10919, Note_on_c, 0, 83, 0
2, 10920, Note_on_c, 0, 74, 74
2, 10943, Note_on_c, 0, 74, 0
2, 10944, Note_on_c, 0, 73, 74
2, 10967, Note_on_c, 0, 73, 0
2, 10968, Note_on_c, 0, 78, 90
2, 11016, Note_on_c, 0, 78, 0
2, 11016, Note_on_c, 0, 76, 74
2, 11039, Note_on_c, 0, 76, 0
2, 11040, Note_on_c, 0, 69, 74
2, 11063, Note_on_c, 0, 69, 0
2, 11064, Note_on_c, 0, 74, 90
2, 11112, Note_on_c, 0, 74, 0
2, 11112, Note_on_c, 0, 73, 74
2, 11135, Note_on_c, 0, 73, 0
2, 11136, Note_on_c, 0, 66, 74
2, 11159, Note_on_c, 0, 66, 0
2, 11160, Note_on_c, 0, 71, 90
2, 11208, Note_on_c, 0, 71, 0
2, 11208, Note_on_c, 0, 69, 74
2, 11231, Note_on_c, 0, 69, 0
2, 11232, Note_on_c, 0, 68, 74
2, 11255, Note_on_c, 0, 68, 0
2, 11256, Note_on_c, 0, 74, 90
2, 11304, Note_on_c, 0, 74, 0
2, 11304, Note_on_c, 0, 73, 74
2, 11327, Note_on_c, 0, 73, 0
2, 11328, Note_on_c, 0, 66, 74
2, 11351, Note_on_c, 0, 66, 0
2, 11352, Note_on_c, 0, 71, 90
2, 11400, Note_on_c, 0, 71, 0
2, 11400, Note_on_c, 0, 69, 74
2, 11423, Note_on_c, 0, 69, 0
2, 11424, Note_on_c, 0, 68, 74
2, 11447, Note_on_c, 0, 68, 0
2, 11448, Note_on_c, 0, 74, 90
2, 11496, Note_on_c, 0, 74, 0
2, 11496, Note_on_c, 0, 73, 74
2, 11519, Note_on_c, 0, 73, 0
2, 11520, Note_on_c, 0, 73, 74
2, 11568, Note_on_c, 0, 73, 0
2, 11568, Note_on_c, 0, 71, 74
2, 11613, Note_on_c, 0, 71, 0
2, 11616, Note_on_c, 0, 76, 74
2, 11628, Note_on_c, 0, 76, 0
2, 11628, Note_on_c, 0, 73, 75
2, 11640, Note_on_c, 0, 73, 0
2, 11640, Note_on_c, 0, 70, 76
2, 11652, Note_on_c, 0, 70, 0
2, 11652, Note_on_c, 0, 67, 78
2, 11664, Note_on_c, 0, 67, 0
2, 11664, Note_on_c, 0, 64, 77
2, 11757, Note_on_c, 0, 64, 0
2, 11760, Note_on_c, 0, 63, 75
2, 11805, Note_on_c, 0, 63, 0
2, 11808, Note_on_c, 0, 74, 74
2, 11820, Note_on_c, 0, 74, 0
2, 11820, Note_on_c, 0, 71, 75
2, 11832, Note_on_c, 0, 71, 0
2, 11832, Note_on_c, 0, 68, 76
2, 11844, Note_on_c, 0, 68, 0
2, 11844, Note_on_c, 0, 65, 78
2, 11856, Note_on_c, 0, 65, 0
2, 11856, Note_on_c, 0, 62, 77
2, 11949, Note_on_c, 0, 62, 0
2, 11952, Note_on_c, 0, 61, 75
2, 11997, Note_on_c, 0, 61, 0
2, 12000, Note_on_c, 0, 81, 74
2, 12012, Note_on_c, 0, 81, 0
2, 12012, Note_on_c, 0, 76, 74
2, 12024, Note_on_c, 0, 76, 0
2, 12024, Note_on_c, 0, 73, 74
2, 12036, Note_on_c, 0, 73, 0
2, 12036, Note_on_c, 0, 69, 74
2, 12048, Note_on_c, 0, 69, 0
2, 12048, Note_on_c, 0, 64, 74
2, 12093, Note_on_c, 0, 64, 0
2, 12096, Note_on_c, 0, 65, 74
2, 12120, Note_on_c, 0, 65, 0
2, 12120, Note_on_c, 0, 66, 74
2, 12143, Note_on_c, 0, 66, 0
2, 12144, Note_on_c, 0, 76, 74
2, 12156, Note_on_c, 0, 76, 0
2, 12156, Note_on_c, 0, 74, 74
2, 12168, Note_on_c, 0, 74, 0
2, 12168, Note_on_c, 0, 73, 74
2, 12180, Note_on_c, 0, 73, 0
2, 12180, Note_on_c, 0, 71, 74
2, 12192, Note_on_c, 0, 71, 0
2, 12192, Note_on_c, 0, 69, 74
2, 12237, Note_on_c, 0, 69, 0
2, 12240, Note_on_c, 0, 68, 74
2, 12247, Note_on_c, 0, 68, 0
2, 12247, Note_on_c, 0, 69, 74
2, 12254, Note_on_c, 0, 69, 0
2, 12254, Note_on_c, 0, 68, 74
2, 12261, Note_on_c, 0, 68, 0
2, 12261, Note_on_c, 0, 69, 74
2, 12268, Note_on_c, 0, 69, 0
2, 12268, Note_on_c, 0, 68, 74
2, 12275, Note_on_c, 0, 68, 0
2, 12275, Note_on_c, 0, 66, 74
2, 12282, Note_on_c, 0, 66, 0
2, 12282, Note_on_c, 0, 68, 74
2, 12288, Note_on_c, 0, 68, 0
2, 12288, Note_on_c, 0, 69, 74
2, 12333, Note_on_c, 0, 69, 0
2, 12336, Note_on_c, 0, 76, 63
2, 12407, Note_on_c, 0, 76, 0
2, 12408, Note_on_c, 0, 72, 63
2, 12431, Note_on_c, 0, 72, 0
2, 12432, Note_on_c, 0, 77, 63
2, 12455, Note_on_c, 0, 77, 0
2, 12456, Note_on_c, 0, 76, 63
2, 12479, Note_on_c, 0, 76, 0
2, 12480, Note_on_c, 0, 75, 63
2, 12576, Note_on_c, 0, 75, 0
2, 12576, Note_on_c, 0, 74, 63
2, 12599, Note_on_c, 0, 74, 0
2, 12600, Note_on_c, 0, 71, 63
2, 12623, Note_on_c, 0, 71, 0
2, 12624, Note_on_c, 0, 76, 63
2, 12647, Note_on_c, 0, 76, 0
2, 12648, Note_on_c, 0, 74, 63
2, 12671, Note_on_c, 0, 74, 0
2, 12672, Note_on_c, 0, 72, 63
2, 12791, Note_on_c, 0, 72, 0
2, 12792, Note_on_c, 0, 69, 63
2, 12815, Note_on_c, 0, 69, 0
2, 12816, Note_on_c, 0, 81, 63
2, 12839, Note_on_c, 0, 81, 0
2, 12840, Note_on_c, 0, 75, 63
2, 12863, Note_on_c, 0, 75, 0
2, 12864, Note_on_c, 0, 76, 63
2, 12953, Note_on_c, 0, 76, 0
2, 12984, Note_on_c, 0, 69, 69
2, 13007, Note_on_c, 0, 69, 0
2, 13008, Note_on_c, 0, 81, 69
2, 13031, Note_on_c, 0, 81, 0
2, 13032, Note_on_c, 0, 75, 69
2, 13055, Note_on_c, 0, 75, 0
2, 13056, Note_on_c, 0, 78, 69
2, 13062, Note_on_c, 0, 78, 0
2, 13062, Note_on_c, 0, 76, 69
2, 13068, Note_on_c, 0, 76, 0
2, 13068, Note_on_c, 0, 75, 69
2, 13074, Note_on_c, 0, 75, 0
2, 13074, Note_on_c, 0, 76, 69
2, 13145, Note_on_c, 0, 76, 0
2, 13152, Note_on_c, 0, 64, 74
2, 13167, Note_on_c, 0, 64, 0
2, 13168, Note_on_c, 0, 76, 74
2, 13168, Note_on_c, 0, 73, 74
2, 13183, Note_on_c, 0, 76, 0
2, 13183, Note_on_c, 0, 73, 0
2, 13184, Note_on_c, 0, 76, 74
2, 13184, Note_on_c, 0, 73, 74
2, 13199, Note_on_c, 0, 76, 0
2, 13199, Note_on_c, 0, 73, 0
2, 13200, Note_on_c, 0, 76, 74
2, 13200, Note_on_c, 0, 73, 74
2, 13215, Note_on_c, 0, 76, 0
2, 13215, Note_on_c, 0, 73, 0
2, 13216, Note_on_c, 0, 76, 74
2, 13216, Note_on_c, 0, 73, 74
2, 13231, Note_on_c, 0, 76, 0
2, 13231, Note_on_c, 0, 73, 0
2, 13232, Note_on_c, 0, 76, 74
2, 13232, Note_on_c, 0, 73, 74
2, 13247, Note_on_c, 0, 76, 0
2, 13247, Note_on_c, 0, 73, 0
2, 13248, Note_on_c, 0, 76, 74
2, 13248, Note_on_c, 0, 73, 74
2, 13296, Note_on_c, 0, 76, 0
2, 13296, Note_on_c, 0, 73, 0
2, 13296, Note_on_c, 0, 75, 74
2, 13296, Note_on_c, 0, 71, 74
2, 13341, Note_on_c, 0, 75, 0
2, 13341, Note_on_c, 0, 71, 0
2, 13344, Note_on_c, 0, 64, 74
2, 13359, Note_on_c, 0, 64, 0
2, 13360, Note_on_c, 0, 74, 74
2, 13360, Note_on_c, 0, 71, 74
2, 13375, Note_on_c, 0, 74, 0
2, 13375, Note_on_c, 0, 71, 0
2, 13376, Note_on_c, 0, 74, 74
2, 13376, Note_on_c, 0, 71, 74
2, 13391, Note_on_c, 0, 74, 0
2, 13391, Note_on_c, 0, 71, 0
2, 13392, Note_on_c, 0, 74, 74
2, 13392, Note_on_c, 0, 71, 74
2, 13407, Note_on_c, 0, 74, 0
2, 13407, Note_on_c, 0, 71, 0
2, 13408, Note_on_c, 0, 74, 74
2, 13408, Note_on_c, 0, 71, 74
2, 13423, Note_on_c, 0, 74, 0
2, 13423, Note_on_c, 0, 71, 0
2, 13424, Note_on_c, 0, 74, 74
2, 13424, Note_on_c, 0, 71, 74
2, 13439, Note_on_c, 0, 74, 0
2, 13439, Note_on_c, 0, 71, 0
2, 13440, Note_on_c, 0, 74, 74
2, 13440, Note_on_c, 0, 71, 74
2, 13488, Note_on_c, 0, 74, 0
2, 13488, Note_on_c, 0, 71, 0
2, 13488, Note_on_c, 0, 73, 74
2, 13488, Note_on_c, 0, 69, 74
2, 13533, Note_on_c, 0, 73, 0
2, 13533, Note_on_c, 0, 69, 0
2, 13536, Note_on_c, 0, 69, 74
2, 13548, Note_on_c, 0, 69, 0
2, 13548, Note_on_c, 0, 71, 74
2, 13560, Note_on_c, 0, 71, 0
2, 13560, Note_on_c, 0, 73, 74
2, 13572, Note_on_c, 0, 73, 0
2, 13572, Note_on_c, 0, 74, 75
2, 13584, Note_on_c, 0, 74, 0
2, 13584, Note_on_c, 0, 76, 75
2, 13596, Note_on_c, 0, 76, 0
2, 13596, Note_on_c, 0, 78, 75
2, 13608, Note_on_c, 0, 78, 0
2, 13608, Note_on_c, 0, 80, 76
2, 13620, Note_on_c, 0, 80, 0
2, 13620, Note_on_c, 0, 81, 76
2, 13632, Note_on_c, 0, 81, 0
2, 13632, Note_on_c, 0, 71, 76
2, 13677, Note_on_c, 0, 71, 0
2, 13680, Note_on_c, 0, 80, 78
2, 13692, Note_on_c, 0, 80, 0
2, 13692, Note_on_c, 0, 78, 77
2, 13704, Note_on_c, 0, 78, 0
2, 13704, Note_on_c, 0, 76, 77
2, 13716, Note_on_c, 0, 76, 0
2, 13716, Note_on_c, 0, 74, 76
2, 13728, Note_on_c, 0, 74, 0
2, 13728, Note_on_c, 0, 73, 76
2, 13773, Note_on_c, 0, 73, 0
2, 13776, Note_on_c, 0, 71, 74
2, 13783, Note_on_c, 0, 71, 0
2, 13783, Note_on_c, 0, 73, 74
2, 13790, Note_on_c, 0, 73, 0
2, 13790, Note_on_c, 0, 71, 74
2, 13797, Note_on_c, 0, 71, 0
2, 13797, Note_on_c, 0, 73, 74
2, 13804, Note_on_c, 0, 73, 0
2, 13804, Note_on_c, 0, 71, 74
2, 13811, Note_on_c, 0, 71, 0
2, 13811, Note_on_c, 0, 69, 74
2, 13818, Note_on_c, 0, 69, 0
2, 13818, Note_on_c, 0, 71, 74
2, 13824, Note_on_c, 0, 71, 0
2, 13824, Note_on_c, 0, 69, 74
2, 13913, Note_on_c, 0, 69, 0
2, 13992, Note_on_c, 0, 69, 74
2, 14015, Note_on_c, 0, 69, 0
2, 14016, Note_on_c, 0, 73, 74
2, 14083, Note_on_c, 0, 73, 0
2, 14088, Note_on_c, 0, 71, 74
2, 14111, Note_on_c, 0, 71, 0
2, 14112, Note_on_c, 0, 74, 75
2, 14179, Note_on_c, 0, 74, 0
2, 14184, Note_on_c, 0, 68, 75
2, 14207, Note_on_c, 0, 68, 0
2, 14208, Note_on_c, 0, 69, 92
2, 14280, Note_on_c, 0, 69, 0
2, 14280, Note_on_c, 0, 73, 76
2, 14292, Note_on_c, 0, 73, 0
2, 14292, Note_on_c, 0, 71, 76
2, 14304, Note_on_c, 0, 71, 0
2, 14304, Note_on_c, 0, 69, 77
2, 14338, Note_on_c, 0, 69, 0
2, 14340, Note_on_c, 0, 69, 77
2, 14352, Note_on_c, 0, 69, 0
2, 14352, Note_on_c, 0, 81, 77
2, 14386, Note_on_c, 0, 81, 0
2, 14388, Note_on_c, 0, 80, 78
2, 14400, Note_on_c, 0, 80, 0
2, 14400, Note_on_c, 0, 78, 77
2, 14434, Note_on_c, 0, 78, 0
2, 14436, Note_on_c, 0, 68, 77
2, 14448, Note_on_c, 0, 68, 0
2, 14448, Note_on_c, 0, 69, 76
2, 14482, Note_on_c, 0, 69, 0
2, 14484, Note_on_c, 0, 76, 76
2, 14496, Note_on_c, 0, 76, 0
2, 14496, Note_on_c, 0, 76, 75
2, 14541, Note_on_c, 0, 76, 0
2, 14544, Note_on_c, 0, 74, 74
2, 14551, Note_on_c, 0, 74, 0
2, 14551, Note_on_c, 0, 76, 74
2, 14558, Note_on_c, 0, 76, 0
2, 14558, Note_on_c, 0, 74, 74
2, 14565, Note_on_c, 0, 74, 0
2, 14565, Note_on_c, 0, 76, 74
2, 14572, Note_on_c, 0, 76, 0
2, 14572, Note_on_c, 0, 74, 74
2, 14579, Note_on_c, 0, 74, 0
2, 14579, Note_on_c, 0, 73, 74
2, 14586, Note_on_c, 0, 73, 0
2, 14586, Note_on_c, 0, 74, 74
2, 14592, Note_on_c, 0, 74, 0
2, 14592, Note_on_c, 0, 74, 74
2, 14640, Note_on_c, 0, 74, 0
2, 14640, Note_on_c, 0, 73, 74
2, 14685, Note_on_c, 0, 73, 0
2, 14760, Note_on_c, 0, 69, 74
2, 14783, Note_on_c, 0, 69, 0
2, 14784, Note_on_c, 0, 73, 74
2, 14851, Note_on_c, 0, 73, 0
2, 14856, Note_on_c, 0, 71, 74
2, 14879, Note_on_c, 0, 71, 0
2, 14880, Note_on_c, 0, 74, 75
2, 14947, Note_on_c, 0, 74, 0
2, 14952, Note_on_c, 0, 68, 76
2, 14975, Note_on_c, 0, 68, 0
2, 14976, Note_on_c, 0, 69, 92
2, 15048, Note_on_c, 0, 69, 0
2, 15048, Note_on_c, 0, 73, 77
2, 15060, Note_on_c, 0, 73, 0
2, 15060, Note_on_c, 0, 71, 77
2, 15072, Note_on_c, 0, 71, 0
2, 15072, Note_on_c, 0, 69, 77
2, 15106, Note_on_c, 0, 69, 0
2, 15108, Note_on_c, 0, 69, 77
2, 15120, Note_on_c, 0, 69, 0
2, 15120, Note_on_c, 0, 81, 78
2, 15154, Note_on_c, 0, 81, 0
2, 15156, Note_on_c, 0, 80, 77
2, 15168, Note_on_c, 0, 80, 0
2, 15168, Note_on_c, 0, 80, 77
2, 15202, Note_on_c, 0, 80, 0
2, 15204, Note_on_c, 0, 78, 76
2, 15216, Note_on_c, 0, 78, 0
2, 15216, Note_on_c, 0, 78, 76
2, 15250, Note_on_c, 0, 78, 0
2, 15252, Note_on_c, 0, 76, 75
2, 15264, Note_on_c, 0, 76, 0
2, 15264, Note_on_c, 0, 76, 75
2, 15298, Note_on_c, 0, 76, 0
2, 15300, Note_on_c, 0, 74, 75
2, 15312, Note_on_c, 0, 74, 0
2, 15312, Note_on_c, 0, 74, 74
2, 15346, Note_on_c, 0, 74, 0
2, 15348, Note_on_c, 0, 73, 74
2, 15360, Note_on_c, 0, 73, 0
2, 15360, Note_on_c, 0, 73, 74
2, 15408, Note_on_c, 0, 73, 0
2, 15408, Note_on_c, 0, 71, 74
2, 15453, Note_on_c, 0, 71, 0
2, 15552, Note_on_c, 0, 78, 74
2, 15558, Note_on_c, 0, 78, 0
2, 15558, Note_on_c, 0, 76, 74
2, 15564, Note_on_c, 0, 76, 0
2, 15564, Note_on_c, 0, 75, 74
2, 15570, Note_on_c, 0, 75, 0
2, 15570, Note_on_c, 0, 76, 74
2, 15671, Note_on_c, 0, 76, 0
2, 15672, Note_on_c, 0, 76, 76
2, 15684, Note_on_c, 0, 76, 0
2, 15684, Note_on_c, 0, 78, 77
2, 15696, Note_on_c, 0, 78, 0
2, 15696, Note_on_c, 0, 79, 78
2, 15708, Note_on_c, 0, 79, 0
2, 15708, Note_on_c, 0, 78, 77
2, 15720, Note_on_c, 0, 78, 0
2, 15720, Note_on_c, 0, 76, 76
2, 15732, Note_on_c, 0, 76, 0
2, 15732, Note_on_c, 0, 74, 75
2, 15744, Note_on_c, 0, 74, 0
2, 15744, Note_on_c, 0, 73, 74
2, 15863, Note_on_c, 0, 73, 0
2, 15864, Note_on_c, 0, 73, 76
2, 15876, Note_on_c, 0, 73, 0
2, 15876, Note_on_c, 0, 74, 77
2, 15888, Note_on_c, 0, 74, 0
2, 15888, Note_on_c, 0, 76, 78
2, 15900, Note_on_c, 0, 76, 0
2, 15900, Note_on_c, 0, 74, 77
2, 15912, Note_on_c, 0, 74, 0
2, 15912, Note_on_c, 0, 73, 76
2, 15924, Note_on_c, 0, 73, 0
2, 15924, Note_on_c, 0, 71, 75
2, 15936, Note_on_c, 0, 71, 0
2, 15936, Note_on_c, 0, 70, 74
2, 16047, Note_on_c, 0, 70, 0
2, 16048, Note_on_c, 0, 73, 75
2, 16063, Note_on_c, 0, 73, 0
2, 16064, Note_on_c, 0, 76, 76
2, 16079, Note_on_c, 0, 76, 0
2, 16080, Note_on_c, 0, 79, 77
2, 16095, Note_on_c, 0, 79, 0
2, 16096, Note_on_c, 0, 76, 78
2, 16111, Note_on_c, 0, 76, 0
2, 16112, Note_on_c, 0, 73, 77
2, 16127, Note_on_c, 0, 73, 0
2, 16128, Note_on_c, 0, 70, 74
2, 16239, Note_on_c, 0, 70, 0
2, 16240, Note_on_c, 0, 70, 75
2, 16255, Note_on_c, 0, 70, 0
2, 16256, Note_on_c, 0, 73, 76
2, 16271, Note_on_c, 0, 73, 0
2, 16272, Note_on_c, 0, 76, 77
2, 16287, Note_on_c, 0, 76, 0
2, 16288, Note_on_c, 0, 73, 78
2, 16303, Note_on_c, 0, 73, 0
2, 16304, Note_on_c, 0, 70, 77
2, 16319, Note_on_c, 0, 70, 0
2, 16320, Note_on_c, 0, 71, 78
2, 16343, Note_on_c, 0, 71, 0
2, 16344, Note_on_c, 0, 78, 77
2, 16367, Note_on_c, 0, 78, 0
2, 16368, Note_on_c, 0, 74, 77
2, 16391, Note_on_c, 0, 74, 0
2, 16392, Note_on_c, 0, 78, 76
2, 16415, Note_on_c, 0, 78, 0
2, 16416, Note_on_c, 0, 83, 92
2, 16432, Note_on_c, 0, 83, 0
2, 16432, Note_on_c, 0, 74, 76
2, 16447, Note_on_c, 0, 74, 0
2, 16448, Note_on_c, 0, 76, 76
2, 16463, Note_on_c, 0, 76, 0
2, 16464, Note_on_c, 0, 78, 76
2, 16479, Note_on_c, 0, 78, 0
2, 16480, Note_on_c, 0, 76, 75
2, 16495, Note_on_c, 0, 76, 0
2, 16496, Note_on_c, 0, 74, 75
2, 16511, Note_on_c, 0, 74, 0
2, 16536, Note_on_c, 0, 79, 75
2, 16559, Note_on_c, 0, 79, 0
2, 16560, Note_on_c, 0, 76, 74
2, 16583, Note_on_c, 0, 76, 0
2, 16584, Note_on_c, 0, 79, 74
2, 16607, Note_on_c, 0, 79, 0
2, 16608, Note_on_c, 0, 83, 90
2, 16624, Note_on_c, 0, 83, 0
2, 16624, Note_on_c, 0, 76, 73
2, 16639, Note_on_c, 0, 76, 0
2, 16640, Note_on_c, 0, 78, 73
2, 16655, Note_on_c, 0, 78, 0
2, 16656, Note_on_c, 0, 79, 73
2, 16671, Note_on_c, 0, 79, 0
2, 16672, Note_on_c, 0, 78, 73
2, 16687, Note_on_c, 0, 78, 0
2, 16688, Note_on_c, 0, 76, 73
2, 16703, Note_on_c, 0, 76, 0
2, 16728, Note_on_c, 0, 76, 72
2, 16751, Note_on_c, 0, 76, 0
2, 16752, Note_on_c, 0, 73, 72
2, 16775, Note_on_c, 0, 73, 0
2, 16776, Note_on_c, 0, 76, 71
2, 16799, Note_on_c, 0, 76, 0
2, 16800, Note_on_c, 0, 81, 87
2, 16816, Note_on_c, 0, 81, 0
2, 16816, Note_on_c, 0, 73, 71
2, 16831, Note_on_c, 0, 73, 0
2, 16832, Note_on_c, 0, 74, 71
2, 16847, Note_on_c, 0, 74, 0
2, 16848, Note_on_c, 0, 76, 71
2, 16863, Note_on_c, 0, 76, 0
2, 16864, Note_on_c, 0, 74, 70
2, 16879, Note_on_c, 0, 74, 0
2, 16880, Note_on_c, 0, 73, 70
2, 16895, Note_on_c, 0, 73, 0
2, 16920, Note_on_c, 0, 78, 70
2, 16943, Note_on_c, 0, 78, 0
2, 16944, Note_on_c, 0, 74, 69
2, 16967, Note_on_c, 0, 74, 0
2, 16968, Note_on_c, 0, 78, 69
2, 16991, Note_on_c, 0, 78, 0
2, 16992, Note_on_c, 0, 81, 85
2, 17008, Note_on_c, 0, 81, 0
2, 17008, Note_on_c, 0, 74, 68
2, 17023, Note_on_c, 0, 74, 0
2, 17024, Note_on_c, 0, 76, 68
2, 17039, Note_on_c, 0, 76, 0
2, 17040, Note_on_c, 0, 78, 68
2, 17055, Note_on_c, 0, 78, 0
2, 17056, Note_on_c, 0, 76, 68
2, 17071, Note_on_c, 0, 76, 0
2, 17072, Note_on_c, 0, 74, 68
2, 17087, Note_on_c, 0, 74, 0
2, 17112, Note_on_c, 0, 74, 67
2, 17135, Note_on_c, 0, 74, 0
2, 17136, Note_on_c, 0, 71, 67
2, 17159, Note_on_c, 0, 71, 0
2, 17160, Note_on_c, 0, 74, 66
2, 17183, Note_on_c, 0, 74, 0
2, 17184, Note_on_c, 0, 79, 82
2, 17200, Note_on_c, 0, 79, 0
2, 17200, Note_on_c, 0, 71, 66
2, 17215, Note_on_c, 0, 71, 0
2, 17216, Note_on_c, 0, 73, 66
2, 17231, Note_on_c, 0, 73, 0
2, 17232, Note_on_c, 0, 74, 66
2, 17247, Note_on_c, 0, 74, 0
2, 17248, Note_on_c, 0, 73, 65
2, 17263, Note_on_c, 0, 73, 0
2, 17264, Note_on_c, 0, 71, 65
2, 17279, Note_on_c, 0, 71, 0
2, 17304, Note_on_c, 0, 76, 65
2, 17327, Note_on_c, 0, 76, 0
2, 17328, Note_on_c, 0, 73, 64
2, 17351, Note_on_c, 0, 73, 0
2, 17352, Note_on_c, 0, 76, 64
2, 17375, Note_on_c, 0, 76, 0
2, 17376, Note_on_c, 0, 79, 80
2, 17392, Note_on_c, 0, 79, 0
2, 17392, Note_on_c, 0, 73, 63
2, 17407, Note_on_c, 0, 73, 0
2, 17408, Note_on_c, 0, 74, 63
2, 17423, Note_on_c, 0, 74, 0
2, 17424, Note_on_c, 0, 76, 63
2, 17439, Note_on_c, 0, 76, 0
2, 17440, Note_on_c, 0, 74, 63
2, 17455, Note_on_c, 0, 74, 0
2, 17456, Note_on_c, 0, 73, 63
2, 17471, Note_on_c, 0, 73, 0
2, 17496, Note_on_c, 0, 73, 63
2, 17519, Note_on_c, 0, 73, 0
2, 17520, Note_on_c, 0, 70, 63
2, 17543, Note_on_c, 0, 70, 0
2, 17544, Note_on_c, 0, 73, 64
2, 17567, Note_on_c, 0, 73, 0
2, 17568, Note_on_c, 0, 78, 80
2, 17584, Note_on_c, 0, 78, 0
2, 17584, Note_on_c, 0, 73, 64
2, 17599, Note_on_c, 0, 73, 0
2, 17600, Note_on_c, 0, 74, 64
2, 17615, Note_on_c, 0, 74, 0
2, 17616, Note_on_c, 0, 76, 65
2, 17631, Note_on_c, 0, 76, 0
2, 17632, Note_on_c, 0, 74, 65
2, 17647, Note_on_c, 0, 74, 0
2, 17648, Note_on_c, 0, 73, 65
2, 17663, Note_on_c, 0, 73, 0
2, 17680, Note_on_c, 0, 71, 65
2, 17695, Note_on_c, 0, 71, 0
2, 17696, Note_on_c, 0, 73, 66
2, 17711, Note_on_c, 0, 73, 0
2, 17712, Note_on_c, 0, 74, 66
2, 17727, Note_on_c, 0, 74, 0
2, 17728, Note_on_c, 0, 73, 66
2, 17743, Note_on_c, 0, 73, 0
2, 17744, Note_on_c, 0, 71, 66
2, 17759, Note_on_c, 0, 71, 0
2, 17776, Note_on_c, 0, 70, 67
2, 17791, Note_on_c, 0, 70, 0
2, 17792, Note_on_c, 0, 71, 67
2, 17807, Note_on_c, 0, 71, 0
2, 17808, Note_on_c, 0, 73, 67
2, 17823, Note_on_c, 0, 73, 0
2, 17824, Note_on_c, 0, 71, 67
2, 17839, Note_on_c, 0, 71, 0
2, 17840, Note_on_c, 0, 70, 67
2, 17855, Note_on_c, 0, 70, 0
2, 17872, Note_on_c, 0, 71, 68
2, 17887, Note_on_c, 0, 71, 0
2, 17888, Note_on_c, 0, 73, 68
2, 17903, Note_on_c, 0, 73, 0
2, 17904, Note_on_c, 0, 74, 68
2, 17919, Note_on_c, 0, 74, 0
2, 17920, Note_on_c, 0, 73, 68
2, 17935, Note_on_c, 0, 73, 0
2, 17936, Note_on_c, 0, 71, 69
2, 17951, Note_on_c, 0, 71, 0
2, 17968, Note_on_c, 0, 73, 69
2, 17983, Note_on_c, 0, 73, 0
2, 17984, Note_on_c, 0, 74, 69
2, 17999, Note_on_c, 0, 74, 0
2, 18000, Note_on_c, 0, 76, 69
2, 18015, Note_on_c, 0, 76, 0
2, 18016, Note_on_c, 0, 74, 70
2, 18031, Note_on_c, 0, 74, 0
2, 18032, Note_on_c, 0, 73, 70
2, 18047, Note_on_c, 0, 73, 0
2, 18064, Note_on_c, 0, 74, 70
2, 18079, Note_on_c, 0, 74, 0
2, 18080, Note_on_c, 0, 76, 70
2, 18095, Note_on_c, 0, 76, 0
2, 18096, Note_on_c, 0, 78, 71
2, 18111, Note_on_c, 0, 78, 0
2, 18112, Note_on_c, 0, 76, 71
2, 18127, Note_on_c, 0, 76, 0
2, 18128, Note_on_c, 0, 74, 71
2, 18143, Note_on_c, 0, 74, 0
2, 18160, Note_on_c, 0, 76, 71
2, 18175, Note_on_c, 0, 76, 0
2, 18176, Note_on_c, 0, 78, 72
2, 18191, Note_on_c, 0, 78, 0
2, 18192, Note_on_c, 0, 79, 72
2, 18207, Note_on_c, 0, 79, 0
2, 18208, Note_on_c, 0, 78, 72
2, 18223, Note_on_c, 0, 78, 0
2, 18224, Note_on_c, 0, 76, 72
2, 18239, Note_on_c, 0, 76, 0
2, 18240, Note_on_c, 0, 78, 78
2, 18274, Note_on_c, 0, 78, 0
2, 18276, Note_on_c, 0, 71, 78
2, 18288, Note_on_c, 0, 71, 0
2, 18288, Note_on_c, 0, 74, 78
2, 18322, Note_on_c, 0, 74, 0
2, 18324, Note_on_c, 0, 78, 78
2, 18336, Note_on_c, 0, 78, 0
2, 18336, Note_on_c, 0, 83, 94
2, 18466, Note_on_c, 0, 83, 0
2, 18468, Note_on_c, 0, 78, 78
2, 18480, Note_on_c, 0, 78, 0
2, 18480, Note_on_c, 0, 81, 78
2, 18492, Note_on_c, 0, 81, 0
2, 18492, Note_on_c, 0, 79, 78
2, 18504, Note_on_c, 0, 79, 0
2, 18504, Note_on_c, 0, 78, 78
2, 18516, Note_on_c, 0, 78, 0
2, 18516, Note_on_c, 0, 76, 78
2, 18528, Note_on_c, 0, 76, 0
2, 18528, Note_on_c, 0, 74, 78
2, 18573, Note_on_c, 0, 74, 0
2, 18576, Note_on_c, 0, 73, 78
2, 18583, Note_on_c, 0, 73, 0
2, 18583, Note_on_c, 0, 74, 77
2, 18590, Note_on_c, 0, 74, 0
2, 18590, Note_on_c, 0, 73, 77
2, 18597, Note_on_c, 0, 73, 0
2, 18597, Note_on_c, 0, 74, 76
2, 18604, Note_on_c, 0, 74, 0
2, 18604, Note_on_c, 0, 73, 76
2, 18611, Note_on_c, 0, 73, 0
2, 18611, Note_on_c, 0, 71, 75
2, 18618, Note_on_c, 0, 71, 0
2, 18618, Note_on_c, 0, 73, 75
2, 18624, Note_on_c, 0, 73, 0
2, 18624, Note_on_c, 0, 71, 74
2, 18713, Note_on_c, 0, 71, 0
2, 18720, Note_on_c, 0, 66, 74
2, 18735, Note_on_c, 0, 66, 0
2, 18736, Note_on_c, 0, 78, 74
2, 18736, Note_on_c, 0, 74, 74
2, 18751, Note_on_c, 0, 78, 0
2, 18751, Note_on_c, 0, 74, 0
2, 18752, Note_on_c, 0, 78, 74
2, 18752, Note_on_c, 0, 74, 74
2, 18767, Note_on_c, 0, 78, 0
2, 18767, Note_on_c, 0, 74, 0
2, 18768, Note_on_c, 0, 78, 74
2, 18768, Note_on_c, 0, 74, 74
2, 18783, Note_on_c, 0, 78, 0
2, 18783, Note_on_c, 0, 74, 0
2, 18784, Note_on_c, 0, 78, 74
2, 18784, Note_on_c, 0, 74, 74
2, 18799, Note_on_c, 0, 78, 0
2, 18799, Note_on_c, 0, 74, 0
2, 18800, Note_on_c, 0, 78, 74
2, 18800, Note_on_c, 0, 74, 74
2, 18815, Note_on_c, 0, 78, 0
2, 18815, Note_on_c, 0, 74, 0
2, 18816, Note_on_c, 0, 78, 74
2, 18816, Note_on_c, 0, 74, 74
2, 18864, Note_on_c, 0, 78, 0
2, 18864, Note_on_c, 0, 74, 0
2, 18864, Note_on_c, 0, 76, 74
2, 18864, Note_on_c, 0, 73, 74
2, 18909, Note_on_c, 0, 76, 0
2, 18909, Note_on_c, 0, 73, 0
2, 18912, Note_on_c, 0, 66, 74
2, 18927, Note_on_c, 0, 66, 0
2, 18928, Note_on_c, 0, 76, 74
2, 18928, Note_on_c, 0, 73, 74
2, 18943, Note_on_c, 0, 76, 0
2, 18943, Note_on_c, 0, 73, 0
2, 18944, Note_on_c, 0, 76, 74
2, 18944, Note_on_c, 0, 73, 74
2, 18959, Note_on_c, 0, 76, 0
2, 18959, Note_on_c, 0, 73, 0
2, 18960, Note_on_c, 0, 76, 74
2, 18960, Note_on_c, 0, 73, 74
2, 18975, Note_on_c, 0, 76, 0
2, 18975, Note_on_c, 0, 73, 0
2, 18976, Note_on_c, 0, 76, 74
2, 18976, Note_on_c, 0, 73, 74
2, 18991, Note_on_c, 0, 76, 0
2, 18991, Note_on_c, 0, 73, 0
2, 18992, Note_on_c, 0, 76, 74
2, 18992, Note_on_c, 0, 73, 74
2, 19007, Note_on_c, 0, 76, 0
2, 19007, Note_on_c, 0, 73, 0
2, 19008, Note_on_c, 0, 76, 74
2, 19008, Note_on_c, 0, 73, 74
2, 19056, Note_on_c, 0, 76, 0
2, 19056, Note_on_c, 0, 73, 0
2, 19056, Note_on_c, 0, 74, 74
2, 19056, Note_on_c, 0, 71, 74
2, 19101, Note_on_c, 0, 74, 0
2, 19101, Note_on_c, 0, 71, 0
2, 19104, Note_on_c, 0, 71, 74
2, 19116, Note_on_c, 0, 71, 0
2, 19116, Note_on_c, 0, 73, 74
2, 19128, Note_on_c, 0, 73, 0
2, 19128, Note_on_c, 0, 74, 74
2, 19140, Note_on_c, 0, 74, 0
2, 19140, Note_on_c, 0, 76, 75
2, 19152, Note_on_c, 0, 76, 0
2, 19152, Note_on_c, 0, 78, 75
2, 19164, Note_on_c, 0, 78, 0
2, 19164, Note_on_c, 0, 80, 75
2, 19176, Note_on_c, 0, 80, 0
2, 19176, Note_on_c, 0, 82, 76
2, 19188, Note_on_c, 0, 82, 0
2, 19188, Note_on_c, 0, 83, 76
2, 19200, Note_on_c, 0, 83, 0
2, 19200, Note_on_c, 0, 81, 76
2, 19214, Note_on_c, 0, 81, 0
2, 19215, Note_on_c, 0, 79, 77
2, 19223, Note_on_c, 0, 79, 0
2, 19223, Note_on_c, 0, 81, 77
2, 19231, Note_on_c, 0, 81, 0
2, 19231, Note_on_c, 0, 79, 77
2, 19239, Note_on_c, 0, 79, 0
2, 19239, Note_on_c, 0, 81, 77
2, 19247, Note_on_c, 0, 81, 0
2, 19247, Note_on_c, 0, 79, 77
2, 19254, Note_on_c, 0, 79, 0
2, 19254, Note_on_c, 0, 81, 78
2, 19261, Note_on_c, 0, 81, 0
2, 19261, Note_on_c, 0, 79, 77
2, 19268, Note_on_c, 0, 79, 0
2, 19268, Note_on_c, 0, 81, 77
2, 19275, Note_on_c, 0, 81, 0
2, 19275, Note_on_c, 0, 79, 77
2, 19282, Note_on_c, 0, 79, 0
2, 19282, Note_on_c, 0, 78, 77
2, 19289, Note_on_c, 0, 78, 0
2, 19289, Note_on_c, 0, 76, 77
2, 19296, Note_on_c, 0, 76, 0
2, 19296, Note_on_c, 0, 74, 77
2, 19341, Note_on_c, 0, 74, 0
2, 19344, Note_on_c, 0, 73, 75
2, 19351, Note_on_c, 0, 73, 0
2, 19351, Note_on_c, 0, 74, 75
2, 19358, Note_on_c, 0, 74, 0
2, 19358, Note_on_c, 0, 73, 75
2, 19365, Note_on_c, 0, 73, 0
2, 19365, Note_on_c, 0, 74, 75
2, 19372, Note_on_c, 0, 74, 0
2, 19372, Note_on_c, 0, 73, 75
2, 19379, Note_on_c, 0, 73, 0
2, 19379, Note_on_c, 0, 71, 74
2, 19386, Note_on_c, 0, 71, 0
2, 19386, Note_on_c, 0, 73, 74
2, 19392, Note_on_c, 0, 73, 0
2, 19392, Note_on_c, 0, 71, 74
2, 19437, Note_on_c, 0, 71, 0
2, 19464, Note_on_c, 0, 78, 63
2, 19509, Note_on_c, 0, 78, 0
2, 19512, Note_on_c, 0, 76, 63
2, 19557, Note_on_c, 0, 76, 0
2, 19560, Note_on_c, 0, 73, 63
2, 19607, Note_on_c, 0, 73, 0
2, 19608, Note_on_c, 0, 74, 63
2, 19653, Note_on_c, 0, 74, 0
2, 19656, Note_on_c, 0, 71, 63
2, 19701, Note_on_c, 0, 71, 0
2, 19704, Note_on_c, 0, 73, 64
2, 19749, Note_on_c, 0, 73, 0
2, 19752, Note_on_c, 0, 70, 65
2, 19799, Note_on_c, 0, 70, 0
2, 19800, Note_on_c, 0, 71, 66
2, 19845, Note_on_c, 0, 71, 0
2, 19848, Note_on_c, 0, 83, 66
2, 19893, Note_on_c, 0, 83, 0
2, 19896, Note_on_c, 0, 81, 67
2, 19941, Note_on_c, 0, 81, 0
2, 19944, Note_on_c, 0, 78, 68
2, 19991, Note_on_c, 0, 78, 0
2, 19992, Note_on_c, 0, 79, 69
2, 20037, Note_on_c, 0, 79, 0
2, 20040, Note_on_c, 0, 76, 69
2, 20085, Note_on_c, 0, 76, 0
2, 20088, Note_on_c, 0, 77, 70
2, 20133, Note_on_c, 0, 77, 0
2, 20136, Note_on_c, 0, 74, 71
2, 20183, Note_on_c, 0, 74, 0
2, 20184, Note_on_c, 0, 76, 72
2, 20229, Note_on_c, 0, 76, 0
2, 20232, Note_on_c, 0, 72, 73
2, 20277, Note_on_c, 0, 72, 0
2, 20280, Note_on_c, 0, 74, 73
2, 20325, Note_on_c, 0, 74, 0
2, 20328, Note_on_c, 0, 71, 74
2, 20375, Note_on_c, 0, 71, 0
2, 20376, Note_on_c, 0, 72, 75
2, 20421, Note_on_c, 0, 72, 0
2, 20424, Note_on_c, 0, 74, 76
2, 20469, Note_on_c, 0, 74, 0
2, 20472, Note_on_c, 0, 72, 76
2, 20517, Note_on_c, 0, 72, 0
2, 20520, Note_on_c, 0, 69, 77
2, 20543, Note_on_c, 0, 69, 0
2, 20544, Note_on_c, 0, 71, 78
2, 20567, Note_on_c, 0, 71, 0
2, 20568, Note_on_c, 0, 76, 94
2, 20616, Note_on_c, 0, 76, 0
2, 20616, Note_on_c, 0, 74, 78
2, 20639, Note_on_c, 0, 74, 0
2, 20640, Note_on_c, 0, 73, 78
2, 20663, Note_on_c, 0, 73, 0
2, 20664, Note_on_c, 0, 79, 94
2, 20712, Note_on_c, 0, 79, 0
2, 20712, Note_on_c, 0, 78, 78
2, 20735, Note_on_c, 0, 78, 0
2, 20736, Note_on_c, 0, 71, 78
2, 20759, Note_on_c, 0, 71, 0
2, 20760, Note_on_c, 0, 76, 94
2, 20808, Note_on_c, 0, 76, 0
2, 20808, Note_on_c, 0, 74, 78
2, 20831, Note_on_c, 0, 74, 0
2, 20832, Note_on_c, 0, 73, 78
2, 20855, Note_on_c, 0, 73, 0
2, 20856, Note_on_c, 0, 79, 94
2, 20904, Note_on_c, 0, 79, 0
2, 20904, Note_on_c, 0, 78, 78
2, 20927, Note_on_c, 0, 78, 0
2, 20928, Note_on_c, 0, 74, 78
2, 20951, Note_on_c, 0, 74, 0
2, 20952, Note_on_c, 0, 83, 94
2, 21000, Note_on_c, 0, 83, 0
2, 21000, Note_on_c, 0, 81, 78
2, 21023, Note_on_c, 0, 81, 0
2, 21024, Note_on_c, 0, 73, 78
2, 21047, Note_on_c, 0, 73, 0
2, 21048, Note_on_c, 0, 79, 92
2, 21096, Note_on_c, 0, 79, 0
2, 21096, Note_on_c, 0, 78, 74
2, 21119, Note_on_c, 0, 78, 0
2, 21120, Note_on_c, 0, 78, 73
2, 21168, Note_on_c, 0, 78, 0
2, 21168, Note_on_c, 0, 76, 71
2, 21213, Note_on_c, 0, 76, 0
2, 21288, Note_on_c, 0, 62, 74
2, 21311, Note_on_c, 0, 62, 0
2, 21312, Note_on_c, 0, 66, 74
2, 21379, Note_on_c, 0, 66, 0
2, 21384, Note_on_c, 0, 62, 74
2, 21407, Note_on_c, 0, 62, 0
2, 21408, Note_on_c, 0, 67, 75
2, 21475, Note_on_c, 0, 67, 0
2, 21480, Note_on_c, 0, 61, 75
2, 21503, Note_on_c, 0, 61, 0
2, 21504, Note_on_c, 0, 62, 92
2, 21576, Note_on_c, 0, 62, 0
2, 21576, Note_on_c, 0, 66, 76
2, 21588, Note_on_c, 0, 66, 0
2, 21588, Note_on_c, 0, 64, 76
2, 21600, Note_on_c, 0, 64, 0
2, 21600, Note_on_c, 0, 62, 77
2, 21634, Note_on_c, 0, 62, 0
2, 21636, Note_on_c, 0, 62, 77
2, 21648, Note_on_c, 0, 62, 0
2, 21648, Note_on_c, 0, 74, 77
2, 21682, Note_on_c, 0, 74, 0
2, 21684, Note_on_c, 0, 73, 78
2, 21696, Note_on_c, 0, 73, 0
2, 21696, Note_on_c, 0, 71, 77
2, 21730, Note_on_c, 0, 71, 0
2, 21732, Note_on_c, 0, 61, 77
2, 21744, Note_on_c, 0, 61, 0
2, 21744, Note_on_c, 0, 62, 76
2, 21778, Note_on_c, 0, 62, 0
2, 21780, Note_on_c, 0, 69, 76
2, 21792, Note_on_c, 0, 69, 0
2, 21792, Note_on_c, 0, 69, 75
2, 21837, Note_on_c, 0, 69, 0
2, 21840, Note_on_c, 0, 67, 74
2, 21847, Note_on_c, 0, 67, 0
2, 21847, Note_on_c, 0, 69, 74
2, 21854, Note_on_c, 0, 69, 0
2, 21854, Note_on_c, 0, 67, 74
2, 21861, Note_on_c, 0, 67, 0
2, 21861, Note_on_c, 0, 69, 74
2, 21868, Note_on_c, 0, 69, 0
2, 21868, Note_on_c, 0, 67, 74
2, 21875, Note_on_c, 0, 67, 0
2, 21875, Note_on_c, 0, 66, 74
2, 21882, Note_on_c, 0, 66, 0
2, 21882, Note_on_c, 0, 67, 74
2, 21888, Note_on_c, 0, 67, 0
2, 21888, Note_on_c, 0, 67, 74
2, 21936, Note_on_c, 0, 67, 0
2, 21936, Note_on_c, 0, 66, 74
2, 21981, Note_on_c, 0, 66, 0
2, 22056, Note_on_c, 0, 74, 74
2, 22079, Note_on_c, 0, 74, 0
2, 22080, Note_on_c, 0, 78, 74
2, 22147, Note_on_c, 0, 78, 0
2, 22152, Note_on_c, 0, 74, 74
2, 22175, Note_on_c, 0, 74, 0
2, 22176, Note_on_c, 0, 79, 75
2, 22243, Note_on_c, 0, 79, 0
2, 22248, Note_on_c, 0, 73, 76
2, 22271, Note_on_c, 0, 73, 0
2, 22272, Note_on_c, 0, 74, 92
2, 22344, Note_on_c, 0, 74, 0
2, 22344, Note_on_c, 0, 78, 77
2, 22356, Note_on_c, 0, 78, 0
2, 22356, Note_on_c, 0, 76, 77
2, 22368, Note_on_c, 0, 76, 0
2, 22368, Note_on_c, 0, 74, 77
2, 22402, Note_on_c, 0, 74, 0
2, 22404, Note_on_c, 0, 74, 78
2, 22416, Note_on_c, 0, 74, 0
2, 22416, Note_on_c, 0, 86, 77
2, 22450, Note_on_c, 0, 86, 0
2, 22452, Note_on_c, 0, 85, 77
2, 22464, Note_on_c, 0, 85, 0
2, 22464, Note_on_c, 0, 85, 77
2, 22498, Note_on_c, 0, 85, 0
2, 22500, Note_on_c, 0, 83, 76
2, 22512, Note_on_c, 0, 83, 0
2, 22512, Note_on_c, 0, 83, 76
2, 22546, Note_on_c, 0, 83, 0
2, 22548, Note_on_c, 0, 81, 75
2, 22560, Note_on_c, 0, 81, 0
2, 22560, Note_on_c, 0, 81, 75
2, 22594, Note_on_c, 0, 81, 0
2, 22596, Note_on_c, 0, 79, 74
2, 22608, Note_on_c, 0, 79, 0
2, 22608, Note_on_c, 0, 79, 74
2, 22642, Note_on_c, 0, 79, 0
2, 22644, Note_on_c, 0, 78, 74
2, 22656, Note_on_c, 0, 78, 0
2, 22656, Note_on_c, 0, 78, 74
2, 22704, Note_on_c, 0, 78, 0
2, 22704, Note_on_c, 0, 76, 74
2, 22749, Note_on_c, 0, 76, 0
2, 22872, Note_on_c, 0, 76, 74
2, 22895, Note_on_c, 0, 76, 0
2, 22896, Note_on_c, 0, 73, 74
2, 22919, Note_on_c, 0, 73, 0
2, 22920, Note_on_c, 0, 76, 74
2, 22943, Note_on_c, 0, 76, 0
2, 22968, Note_on_c, 0, 76, 74
2, 22991, Note_on_c, 0, 76, 0
2, 22992, Note_on_c, 0, 73, 74
2, 23015, Note_on_c, 0, 73, 0
2, 23016, Note_on_c, 0, 76, 74
2, 23039, Note_on_c, 0, 76, 0
2, 23064, Note_on_c, 0, 74, 74
2, 23109, Note_on_c, 0, 74, 0
2, 23112, Note_on_c, 0, 69, 74
2, 23157, Note_on_c, 0, 69, 0
2, 23160, Note_on_c, 0, 67, 74
2, 23205, Note_on_c, 0, 67, 0
2, 23208, Note_on_c, 0, 66, 74
2, 23231, Note_on_c, 0, 66, 0
2, 23248, Note_on_c, 0, 76, 74
2, 23263, Note_on_c, 0, 76, 0
2, 23264, Note_on_c, 0, 74, 74
2, 23279, Note_on_c, 0, 74, 0
2, 23280, Note_on_c, 0, 73, 74
2, 23295, Note_on_c, 0, 73, 0
2, 23296, Note_on_c, 0, 74, 74
2, 23311, Note_on_c, 0, 74, 0
2, 23312, Note_on_c, 0, 76, 74
2, 23327, Note_on_c, 0, 76, 0
2, 23344, Note_on_c, 0, 76, 74
2, 23359, Note_on_c, 0, 76, 0
2, 23360, Note_on_c, 0, 74, 74
2, 23375, Note_on_c, 0, 74, 0
2, 23376, Note_on_c, 0, 73, 74
2, 23391, Note_on_c, 0, 73, 0
2, 23392, Note_on_c, 0, 74, 74
2, 23407, Note_on_c, 0, 74, 0
2, 23408, Note_on_c, 0, 76, 74
2, 23423, Note_on_c, 0, 76, 0
2, 23448, Note_on_c, 0, 74, 74
2, 23493, Note_on_c, 0, 74, 0
2, 23496, Note_on_c, 0, 69, 74
2, 23541, Note_on_c, 0, 69, 0
2, 23544, Note_on_c, 0, 67, 74
2, 23589, Note_on_c, 0, 67, 0
2, 23592, Note_on_c, 0, 66, 74
2, 23615, Note_on_c, 0, 66, 0
2, 23616, Note_on_c, 0, 71, 74
2, 23779, Note_on_c, 0, 71, 0
2, 23784, Note_on_c, 0, 79, 74
2, 23796, Note_on_c, 0, 79, 0
2, 23796, Note_on_c, 0, 76, 74
2, 23808, Note_on_c, 0, 76, 0
2, 23808, Note_on_c, 0, 74, 74
2, 23904, Note_on_c, 0, 74, 0
2, 23904, Note_on_c, 0, 73, 74
2, 23949, Note_on_c, 0, 73, 0
2, 23952, Note_on_c, 0, 83, 74
2, 23964, Note_on_c, 0, 83, 0
2, 23964, Note_on_c, 0, 81, 74
2, 23976, Note_on_c, 0, 81, 0
2, 23976, Note_on_c, 0, 79, 74
2, 23988, Note_on_c, 0, 79, 0
2, 23988, Note_on_c, 0, 78, 74
2, 24000, Note_on_c, 0, 78, 0
2, 24000, Note_on_c, 0, 76, 74
2, 24096, Note_on_c, 0, 76, 0
2, 24096, Note_on_c, 0, 74, 74
2, 24119, Note_on_c, 0, 74, 0
2, 24120, Note_on_c, 0, 79, 74
2, 24132, Note_on_c, 0, 79, 0
2, 24132, Note_on_c, 0, 81, 74
2, 24144, Note_on_c, 0, 81, 0
2, 24144, Note_on_c, 0, 83, 74
2, 24178, Note_on_c, 0, 83, 0
2, 24180, Note_on_c, 0, 79, 74
2, 24192, Note_on_c, 0, 79, 0
2, 24192, Note_on_c, 0, 78, 74
2, 24288, Note_on_c, 0, 78, 0
2, 24288, Note_on_c, 0, 76, 74
2, 24311, Note_on_c, 0, 76, 0
2, 24312, Note_on_c, 0, 78, 74
2, 24324, Note_on_c, 0, 78, 0
2, 24324, Note_on_c, 0, 79, 74
2, 24336, Note_on_c, 0, 79, 0
2, 24336, Note_on_c, 0, 81, 74
2, 24348, Note_on_c, 0, 81, 0
2, 24348, Note_on_c, 0, 79, 74
2, 24360, Note_on_c, 0, 79, 0
2, 24360, Note_on_c, 0, 78, 74
2, 24372, Note_on_c, 0, 78, 0
2, 24372, Note_on_c, 0, 79, 74
2, 24384, Note_on_c, 0, 79, 0
2, 24384, Note_on_c, 0, 78, 74
2, 24407, Note_on_c, 0, 78, 0
2, 24408, Note_on_c, 0, 83, 90
2, 24456, Note_on_c, 0, 83, 0
2, 24456, Note_on_c, 0, 81, 74
2, 24479, Note_on_c, 0, 81, 0
2, 24480, Note_on_c, 0, 74, 74
2, 24503, Note_on_c, 0, 74, 0
2, 24504, Note_on_c, 0, 79, 90
2, 24552, Note_on_c, 0, 79, 0
2, 24552, Note_on_c, 0, 78, 74
2, 24575, Note_on_c, 0, 78, 0
2, 24576, Note_on_c, 0, 71, 74
2, 24599, Note_on_c, 0, 71, 0
2, 24600, Note_on_c, 0, 76, 90
2, 24648, Note_on_c, 0, 76, 0
2, 24648, Note_on_c, 0, 74, 74
2, 24671, Note_on_c, 0, 74, 0
2, 24672, Note_on_c, 0, 73, 74
2, 24695, Note_on_c, 0, 73, 0
2, 24696, Note_on_c, 0, 79, 90
2, 24744, Note_on_c, 0, 79, 0
2, 24744, Note_on_c, 0, 78, 74
2, 24767, Note_on_c, 0, 78, 0
2, 24768, Note_on_c, 0, 71, 74
2, 24791, Note_on_c, 0, 71, 0
2, 24792, Note_on_c, 0, 76, 90
2, 24840, Note_on_c, 0, 76, 0
2, 24840, Note_on_c, 0, 74, 74
2, 24863, Note_on_c, 0, 74, 0
2, 24864, Note_on_c, 0, 73, 74
2, 24887, Note_on_c, 0, 73, 0
2, 24888, Note_on_c, 0, 79, 90
2, 24936, Note_on_c, 0, 79, 0
2, 24936, Note_on_c, 0, 78, 74
2, 24959, Note_on_c, 0, 78, 0
2, 24960, Note_on_c, 0, 78, 74
2, 25008, Note_on_c, 0, 78, 0
2, 25008, Note_on_c, 0, 76, 74
2, 25053, Note_on_c, 0, 76, 0
2, 25056, Note_on_c, 0, 81, 74
2, 25068, Note_on_c, 0, 81, 0
2, 25068, Note_on_c, 0, 78, 75
2, 25080, Note_on_c, 0, 78, 0
2, 25080, Note_on_c, 0, 75, 76
2, 25092, Note_on_c, 0, 75, 0
2, 25092, Note_on_c, 0, 72, 77
2, 25104, Note_on_c, 0, 72, 0
2, 25104, Note_on_c, 0, 69, 78
2, 25197, Note_on_c, 0, 69, 0
2, 25200, Note_on_c, 0, 68, 75
2, 25245, Note_on_c, 0, 68, 0
2, 25248, Note_on_c, 0, 79, 74
2, 25260, Note_on_c, 0, 79, 0
2, 25260, Note_on_c, 0, 76, 75
2, 25272, Note_on_c, 0, 76, 0
2, 25272, Note_on_c, 0, 73, 76
2, 25284, Note_on_c, 0, 73, 0
2, 25284, Note_on_c, 0, 69, 78
2, 25296, Note_on_c, 0, 69, 0
2, 25296, Note_on_c, 0, 67, 77
2, 25389, Note_on_c, 0, 67, 0
2, 25392, Note_on_c, 0, 66, 75
2, 25437, Note_on_c, 0, 66, 0
2, 25440, Note_on_c, 0, 86, 74
2, 25452, Note_on_c, 0, 86, 0
2, 25452, Note_on_c, 0, 81, 74
2, 25464, Note_on_c, 0, 81, 0
2, 25464, Note_on_c, 0, 78, 74
2, 25476, Note_on_c, 0, 78, 0
2, 25476, Note_on_c, 0, 74, 74
2, 25488, Note_on_c, 0, 74, 0
2, 25488, Note_on_c, 0, 69, 74
2, 25533, Note_on_c, 0, 69, 0
2, 25536, Note_on_c, 0, 70, 74
2, 25560, Note_on_c, 0, 70, 0
2, 25560, Note_on_c, 0, 71, 74
2, 25583, Note_on_c, 0, 71, 0
2, 25584, Note_on_c, 0, 81, 74
2, 25596, Note_on_c, 0, 81, 0
2, 25596, Note_on_c, 0, 79, 74
2, 25608, Note_on_c, 0, 79, 0
2, 25608, Note_on_c, 0, 78, 74
2, 25620, Note_on_c, 0, 78, 0
2, 25620, Note_on_c, 0, 76, 74
2, 25632, Note_on_c, 0, 76, 0
2, 25632, Note_on_c, 0, 74, 74
2, 25677, Note_on_c, 0, 74, 0
2, 25680, Note_on_c, 0, 73, 74
2, 25687, Note_on_c, 0, 73, 0
2, 25687, Note_on_c, 0, 74, 74
2, 25694, Note_on_c, 0, 74, 0
2, 25694, Note_on_c, 0, 73, 74
2, 25701, Note_on_c, 0, 73, 0
2, 25701, Note_on_c, 0, 74, 74
2, 25708, Note_on_c, 0, 74, 0
2, 25708, Note_on_c, 0, 73, 74
2, 25715, Note_on_c, 0, 73, 0
2, 25715, Note_on_c, 0, 71, 74
2, 25722, Note_on_c, 0, 71, 0
2, 25722, Note_on_c, 0, 73, 74
2, 25728, Note_on_c, 0, 73, 0
2, 25728, Note_on_c, 0, 74, 74
2, 25773, Note_on_c, 0, 74, 0
2, 25776, Note_on_c, 0, 69, 63
2, 25847, Note_on_c, 0, 69, 0
2, 25848, Note_on_c, 0, 65, 63
2, 25871, Note_on_c, 0, 65, 0
2, 25872, Note_on_c, 0, 70, 63
2, 25895, Note_on_c, 0, 70, 0
2, 25896, Note_on_c, 0, 69, 63
2, 25919, Note_on_c, 0, 69, 0
2, 25920, Note_on_c, 0, 68, 63
2, 26016, Note_on_c, 0, 68, 0
2, 26016, Note_on_c, 0, 67, 63
2, 26039, Note_on_c, 0, 67, 0
2, 26040, Note_on_c, 0, 64, 63
2, 26063, Note_on_c, 0, 64, 0
2, 26064, Note_on_c, 0, 69, 63
2, 26087, Note_on_c, 0, 69, 0
2, 26088, Note_on_c, 0, 67, 63
2, 26111, Note_on_c, 0, 67, 0
2, 26112, Note_on_c, 0, 65, 63
2, 26231, Note_on_c, 0, 65, 0
2, 26232, Note_on_c, 0, 62, 63
2, 26255, Note_on_c, 0, 62, 0
2, 26256, Note_on_c, 0, 74, 63
2, 26279, Note_on_c, 0, 74, 0
2, 26280, Note_on_c, 0, 68, 63
2, 26303, Note_on_c, 0, 68, 0
2, 26304, Note_on_c, 0, 69, 63
2, 26423, Note_on_c, 0, 69, 0
2, 26424, Note_on_c, 0, 62, 69
2, 26447, Note_on_c, 0, 62, 0
2, 26448, Note_on_c, 0, 74, 69
2, 26471, Note_on_c, 0, 74, 0
2, 26472, Note_on_c, 0, 68, 69
2, 26495, Note_on_c, 0, 68, 0
2, 26496, Note_on_c, 0, 71, 69
2, 26502, Note_on_c, 0, 71, 0
2, 26502, Note_on_c, 0, 69, 69
2, 26508, Note_on_c, 0, 69, 0
2, 26508, Note_on_c, 0, 68, 69
2, 26514, Note_on_c, 0, 68, 0
2, 26514, Note_on_c, 0, 69, 69
2, 26585, Note_on_c, 0, 69, 0
2, 26592, Note_on_c, 0, 69, 74
2, 26607, Note_on_c, 0, 69, 0
2, 26608, Note_on_c, 0, 81, 74
2, 26608, Note_on_c, 0, 78, 74
2, 26623, Note_on_c, 0, 81, 0
2, 26623, Note_on_c, 0, 78, 0
2, 26624, Note_on_c, 0, 81, 74
2, 26624, Note_on_c, 0, 78, 74
2, 26639, Note_on_c, 0, 81, 0
2, 26639, Note_on_c, 0, 78, 0
2, 26640, Note_on_c, 0, 81, 74
2, 26640, Note_on_c, 0, 78, 74
2, 26655, Note_on_c, 0, 81, 0
2, 26655, Note_on_c, 0, 78, 0
2, 26656, Note_on_c, 0, 81, 74
2, 26656, Note_on_c, 0, 78, 74
2, 26671, Note_on_c, 0, 81, 0
2, 26671, Note_on_c, 0, 78, 0
2, 26672, Note_on_c, 0, 81, 74
2, 26672, Note_on_c, 0, 78, 74
2, 26687, Note_on_c, 0, 81, 0
2, 26687, Note_on_c, 0, 78, 0
2, 26688, Note_on_c, 0, 81, 74
2, 26688, Note_on_c, 0, 78, 74
2, 26736, Note_on_c, 0, 81, 0
2, 26736, Note_on_c, 0, 78, 0
2, 26736, Note_on_c, 0, 80, 74
2, 26736, Note_on_c, 0, 76, 74
2, 26781, Note_on_c, 0, 80, 0
2, 26781, Note_on_c, 0, 76, 0
2, 26784, Note_on_c, 0, 69, 74
2, 26799, Note_on_c, 0, 69, 0
2, 26800, Note_on_c, 0, 79, 74
2, 26800, Note_on_c, 0, 76, 74
2, 26815, Note_on_c, 0, 79, 0
2, 26815, Note_on_c, 0, 76, 0
2, 26816, Note_on_c, 0, 79, 74
2, 26816, Note_on_c, 0, 76, 74
2, 26831, Note_on_c, 0, 79, 0
2, 26831, Note_on_c, 0, 76, 0
2, 26832, Note_on_c, 0, 79, 74
2, 26832, Note_on_c, 0, 76, 74
2, 26847, Note_on_c, 0, 79, 0
2, 26847, Note_on_c, 0, 76, 0
2, 26848, Note_on_c, 0, 79, 74
2, 26848, Note_on_c, 0, 76, 74
2, 26863, Note_on_c, 0, 79, 0
2, 26863, Note_on_c, 0, 76, 0
2, 26864, Note_on_c, 0, 79, 74
2, 26864, Note_on_c, 0, 76, 74
2, 26879, Note_on_c, 0, 79, 0
2, 26879, Note_on_c, 0, 76, 0
2, 26880, Note_on_c, 0, 79, 74
2, 26880, Note_on_c, 0, 76, 74
2, 26928, Note_on_c, 0, 79, 0
2, 26928, Note_on_c, 0, 76, 0
2, 26928, Note_on_c, 0, 78, 74
2, 26928, Note_on_c, 0, 74, 74
2, 26973, Note_on_c, 0, 78, 0
2, 26973, Note_on_c, 0, 74, 0
2, 26976, Note_on_c, 0, 74, 74
2, 26988, Note_on_c, 0, 74, 0
2, 26988, Note_on_c, 0, 76, 74
2, 27000, Note_on_c, 0, 76, 0
2, 27000, Note_on_c, 0, 78, 74
2, 27012, Note_on_c, 0, 78, 0
2, 27012, Note_on_c, 0, 79, 75
2, 27024, Note_on_c, 0, 79, 0
2, 27024, Note_on_c, 0, 81, 75
2, 27036, Note_on_c, 0, 81, 0
2, 27036, Note_on_c, 0, 83, 75
2, 27048, Note_on_c, 0, 83, 0
2, 27048, Note_on_c, 0, 85, 76
2, 27060, Note_on_c, 0, 85, 0
2, 27060, Note_on_c, 0, 86, 76
2, 27072, Note_on_c, 0, 86, 0
2, 27072, Note_on_c, 0, 76, 76
2, 27117, Note_on_c, 0, 76, 0
2, 27120, Note_on_c, 0, 85, 78
2, 27132, Note_on_c, 0, 85, 0
2, 27132, Note_on_c, 0, 83, 77
2, 27144, Note_on_c, 0, 83, 0
2, 27144, Note_on_c, 0, 81, 77
2, 27156, Note_on_c, 0, 81, 0
2, 27156, Note_on_c, 0, 79, 76
2, 27168, Note_on_c, 0, 79, 0
2, 27168, Note_on_c, 0, 78, 76
2, 27213, Note_on_c, 0, 78, 0
2, 27216, Note_on_c, 0, 76, 74
2, 27223, Note_on_c, 0, 76, 0
2, 27223, Note_on_c, 0, 78, 74
2, 27230, Note_on_c, 0, 78, 0
2, 27230, Note_on_c, 0, 76, 74
2, 27237, Note_on_c, 0, 76, 0
2, 27237, Note_on_c, 0, 78, 74
2, 27244, Note_on_c, 0, 78, 0
2, 27244, Note_on_c, 0, 76, 74
2, 27251, Note_on_c, 0, 76, 0
2, 27251, Note_on_c, 0, 74, 74
2, 27258, Note_on_c, 0, 74, 0
2, 27258, Note_on_c, 0, 76, 74
2, 27264, Note_on_c, 0, 76, 0
2, 27264, Note_on_c, 0, 74, 74
2, 27353, Note_on_c, 0, 74, 0
2, 27360, Note_on_c, 0, 57, 74
2, 27375, Note_on_c, 0, 57, 0
2, 27376, Note_on_c, 0, 69, 74
2, 27376, Note_on_c, 0, 66, 74
2, 27391, Note_on_c, 0, 69, 0
2, 27391, Note_on_c, 0, 66, 0
2, 27392, Note_on_c, 0, 69, 74
2, 27392, Note_on_c, 0, 66, 74
2, 27407, Note_on_c, 0, 69, 0
2, 27407, Note_on_c, 0, 66, 0
2, 27408, Note_on_c, 0, 69, 74
2, 27408, Note_on_c, 0, 66, 74
2, 27423, Note_on_c, 0, 69, 0
2, 27423, Note_on_c, 0, 66, 0
2, 27424, Note_on_c, 0, 69, 74
2, 27424, Note_on_c, 0, 66, 74
2, 27439, Note_on_c, 0, 69, 0
2, 27439, Note_on_c, 0, 66, 0
2, 27440, Note_on_c, 0, 69, 74
2, 27440, Note_on_c, 0, 66, 74
2, 27455, Note_on_c, 0, 69, 0
2, 27455, Note_on_c, 0, 66, 0
2, 27456, Note_on_c, 0, 69, 74
2, 27456, Note_on_c, 0, 66, 74
2, 27504, Note_on_c, 0, 69, 0
2, 27504, Note_on_c, 0, 66, 0
2, 27504, Note_on_c, 0, 68, 74
2, 27504, Note_on_c, 0, 64, 74
2, 27549, Note_on_c, 0, 68, 0
2, 27549, Note_on_c, 0, 64, 0
2, 27552, Note_on_c, 0, 57, 74
2, 27567, Note_on_c, 0, 57, 0
2, 27568, Note_on_c, 0, 67, 74
2, 27568, Note_on_c, 0, 64, 74
2, 27583, Note_on_c, 0, 67, 0
2, 27583, Note_on_c, 0, 64, 0
2, 27584, Note_on_c, 0, 67, 74
2, 27584, Note_on_c, 0, 64, 74
2, 27599, Note_on_c, 0, 67, 0
2, 27599, Note_on_c, 0, 64, 0
2, 27600, Note_on_c, 0, 67, 74
2, 27600, Note_on_c, 0, 64, 74
2, 27615, Note_on_c, 0, 67, 0
2, 27615, Note_on_c, 0, 64, 0
2, 27616, Note_on_c, 0, 67, 74
2, 27616, Note_on_c, 0, 64, 74
2, 27631, Note_on_c, 0, 67, 0
2, 27631, Note_on_c, 0, 64, 0
2, 27632, Note_on_c, 0, 67, 74
2, 27632, Note_on_c, 0, 64, 74
2, 27647, Note_on_c, 0, 67, 0
2, 27647, Note_on_c, 0, 64, 0
2, 27648, Note_on_c, 0, 67, 74
2, 27648, Note_on_c, 0, 64, 74
2, 27696, Note_on_c, 0, 67, 0
2, 27696, Note_on_c, 0, 64, 0
2, 27696, Note_on_c, 0, 66, 74
2, 27696, Note_on_c, 0, 62, 74
2, 27741, Note_on_c, 0, 66, 0
2, 27741, Note_on_c, 0, 62, 0
2, 27744, Note_on_c, 0, 62, 74
2, 27756, Note_on_c, 0, 62, 0
2, 27756, Note_on_c, 0, 64, 74
2, 27768, Note_on_c, 0, 64, 0
2, 27768, Note_on_c, 0, 66, 74
2, 27780, Note_on_c, 0, 66, 0
2, 27780, Note_on_c, 0, 67, 75
2, 27792, Note_on_c, 0, 67, 0
2, 27792, Note_on_c, 0, 69, 75
2, 27804, Note_on_c, 0, 69, 0
2, 27804, Note_on_c, 0, 71, 75
2, 27816, Note_on_c, 0, 71, 0
2, 27816, Note_on_c, 0, 73, 76
2, 27828, Note_on_c, 0, 73, 0
2, 27828, Note_on_c, 0, 74, 76
2, 27840, Note_on_c, 0, 74, 0
2, 27840, Note_on_c, 0, 73, 76
2, 27848, Note_on_c, 0, 73, 0
2, 27848, Note_on_c, 0, 71, 77
2, 27856, Note_on_c, 0, 71, 0
2, 27856, Note_on_c, 0, 73, 77
2, 27864, Note_on_c, 0, 73, 0
2, 27864, Note_on_c, 0, 71, 77
2, 27872, Note_on_c, 0, 71, 0
2, 27872, Note_on_c, 0, 73, 77
2, 27880, Note_on_c, 0, 73, 0
2, 27880, Note_on_c, 0, 71, 77
2, 27888, Note_on_c, 0, 71, 0
2, 27888, Note_on_c, 0, 73, 78
2, 27896, Note_on_c, 0, 73, 0
2, 27896, Note_on_c, 0, 71, 77
2, 27904, Note_on_c, 0, 71, 0
2, 27904, Note_on_c, 0, 73, 77
2, 27912, Note_on_c, 0, 73, 0
2, 27912, Note_on_c, 0, 71, 77
2, 27920, Note_on_c, 0, 71, 0
2, 27920, Note_on_c, 0, 69, 77
2, 27928, Note_on_c, 0, 69, 0
2, 27928, Note_on_c, 0, 67, 77
2, 27936, Note_on_c, 0, 67, 0
2, 27936, Note_on_c, 0, 66, 76
2, 27981, Note_on_c, 0, 66, 0
2, 27984, Note_on_c, 0, 64, 75
2, 27991, Note_on_c, 0, 64, 0
2, 27991, Note_on_c, 0, 66, 75
2, 27998, Note_on_c, 0, 66, 0
2, 27998, Note_on_c, 0, 64, 75
2, 28005, Note_on_c, 0, 64, 0
2, 28005, Note_on_c, 0, 66, 75
2, 28012, Note_on_c, 0, 66, 0
2, 28012, Note_on_c, 0, 64, 74
2, 28019, Note_on_c, 0, 64, 0
2, 28019, Note_on_c, 0, 62, 74
2, 28026, Note_on_c, 0, 62, 0
2, 28026, Note_on_c, 0, 64, 74
2, 28032, Note_on_c, 0, 64, 0
2, 28032, Note_on_c, 0, 62, 74
2, 28121, Note_on_c, 0, 62, 0
2, 28200, Note_on_c, 0, 69, 74
2, 28223, Note_on_c, 0, 69, 0
2, 28224, Note_on_c, 0, 73, 74
2, 28291, Note_on_c, 0, 73, 0
2, 28296, Note_on_c, 0, 71, 74
2, 28319, Note_on_c, 0, 71, 0
2, 28320, Note_on_c, 0, 74, 75
2, 28387, Note_on_c, 0, 74, 0
2, 28392, Note_on_c, 0, 68, 75
2, 28415, Note_on_c, 0, 68, 0
2, 28416, Note_on_c, 0, 69, 92
2, 28488, Note_on_c, 0, 69, 0
2, 28488, Note_on_c, 0, 73, 76
2, 28500, Note_on_c, 0, 73, 0
2, 28500, Note_on_c, 0, 71, 76
2, 28512, Note_on_c, 0, 71, 0
2, 28512, Note_on_c, 0, 69, 77
2, 28546, Note_on_c, 0, 69, 0
2, 28548, Note_on_c, 0, 69, 77
2, 28560, Note_on_c, 0, 69, 0
2, 28560, Note_on_c, 0, 81, 77
2, 28594, Note_on_c, 0, 81, 0
2, 28596, Note_on_c, 0, 80, 78
2, 28608, Note_on_c, 0, 80, 0
2, 28608, Note_on_c, 0, 78, 77
2, 28642, Note_on_c, 0, 78, 0
2, 28644, Note_on_c, 0, 68, 77
2, 28656, Note_on_c, 0, 68, 0
2, 28656, Note_on_c, 0, 69, 76
2, 28690, Note_on_c, 0, 69, 0
2, 28692, Note_on_c, 0, 76, 76
2, 28704, Note_on_c, 0, 76, 0
2, 28704, Note_on_c, 0, 76, 75
2, 28749, Note_on_c, 0, 76, 0
2, 28752, Note_on_c, 0, 74, 74
2, 28759, Note_on_c, 0, 74, 0
2, 28759, Note_on_c, 0, 76, 74
2, 28766, Note_on_c, 0, 76, 0
2, 28766, Note_on_c, 0, 74, 74
2, 28773, Note_on_c, 0, 74, 0
2, 28773, Note_on_c, 0, 76, 74
2, 28780, Note_on_c, 0, 76, 0
2, 28780, Note_on_c, 0, 74, 74
2, 28787, Note_on_c, 0, 74, 0
2, 28787, Note_on_c, 0, 73, 74
2, 28794, Note_on_c, 0, 73, 0
2, 28794, Note_on_c, 0, 74, 74
2, 28800, Note_on_c, 0, 74, 0
2, 28800, Note_on_c, 0, 74, 74
2, 28848, Note_on_c, 0, 74, 0
2, 28848, Note_on_c, 0, 73, 74
2, 28893, Note_on_c, 0, 73, 0
2, 28968, Note_on_c, 0, 69, 74
2, 28991, Note_on_c, 0, 69, 0
2, 28992, Note_on_c, 0, 73, 74
2, 29059, Note_on_c, 0, 73, 0
2, 29064, Note_on_c, 0, 71, 74
2, 29087, Note_on_c, 0, 71, 0
2, 29088, Note_on_c, 0, 74, 75
2, 29155, Note_on_c, 0, 74, 0
2, 29160, Note_on_c, 0, 68, 76
2, 29183, Note_on_c, 0, 68, 0
2, 29184, Note_on_c, 0, 69, 92
2, 29256, Note_on_c, 0, 69, 0
2, 29256, Note_on_c, 0, 73, 77
2, 29268, Note_on_c, 0, 73, 0
2, 29268, Note_on_c, 0, 71, 77
2, 29280, Note_on_c, 0, 71, 0
2, 29280, Note_on_c, 0, 69, 77
2, 29314, Note_on_c, 0, 69, 0
2, 29316, Note_on_c, 0, 69, 77
2, 29328, Note_on_c, 0, 69, 0
2, 29328, Note_on_c, 0, 81, 78
2, 29362, Note_on_c, 0, 81, 0
2, 29364, Note_on_c, 0, 80, 77
2, 29376, Note_on_c, 0, 80, 0
2, 29376, Note_on_c, 0, 80, 77
2, 29410, Note_on_c, 0, 80, 0
2, 29412, Note_on_c, 0, 78, 76
2, 29424, Note_on_c, 0, 78, 0
2, 29424, Note_on_c, 0, 78, 76
2, 29458, Note_on_c, 0, 78, 0
2, 29460, Note_on_c, 0, 76, 75
2, 29472, Note_on_c, 0, 76, 0
2, 29472, Note_on_c, 0, 76, 75
2, 29506, Note_on_c, 0, 76, 0
2, 29508, Note_on_c, 0, 74, 75
2, 29520, Note_on_c, 0, 74, 0
2, 29520, Note_on_c, 0, 74, 74
2, 29554, Note_on_c, 0, 74, 0
2, 29556, Note_on_c, 0, 73, 74
2, 29568, Note_on_c, 0, 73, 0
2, 29568, Note_on_c, 0, 73, 74
2, 29616, Note_on_c, 0, 73, 0
2, 29616, Note_on_c, 0, 71, 74
2, 29661, Note_on_c, 0, 71, 0
2, 29760, Note_on_c, 0, 78, 74
2, 29766, Note_on_c, 0, 78, 0
2, 29766, Note_on_c, 0, 76, 74
2, 29772, Note_on_c, 0, 76, 0
2, 29772, Note_on_c, 0, 75, 74
2, 29778, Note_on_c, 0, 75, 0
2, 29778, Note_on_c, 0, 76, 74
2, 29879, Note_on_c, 0, 76, 0
2, 29880, Note_on_c, 0, 76, 76
2, 29892, Note_on_c, 0, 76, 0
2, 29892, Note_on_c, 0, 78, 77
2, 29904, Note_on_c, 0, 78, 0
2, 29904, Note_on_c, 0, 79, 78
2, 29916, Note_on_c, 0, 79, 0
2, 29916, Note_on_c, 0, 78, 77
2, 29928, Note_on_c, 0, 78, 0
2, 29928, Note_on_c, 0, 76, 76
2, 29940, Note_on_c, 0, 76, 0
2, 29940, Note_on_c, 0, 74, 75
2, 29952, Note_on_c, 0, 74, 0
2, 29952, Note_on_c, 0, 73, 74
2, 30071, Note_on_c, 0, 73, 0
2, 30072, Note_on_c, 0, 73, 76
2, 30084, Note_on_c, 0, 73, 0
2, 30084, Note_on_c, 0, 74, 77
2, 30096, Note_on_c, 0, 74, 0
2, 30096, Note_on_c, 0, 76, 78
2, 30108, Note_on_c, 0, 76, 0
2, 30108, Note_on_c, 0, 74, 77
2, 30120, Note_on_c, 0, 74, 0
2, 30120, Note_on_c, 0, 73, 76
2, 30132, Note_on_c, 0, 73, 0
2, 30132, Note_on_c, 0, 71, 75
2, 30144, Note_on_c, 0, 71, 0
2, 30144, Note_on_c, 0, 70, 74
2, 30255, Note_on_c, 0, 70, 0
2, 30256, Note_on_c, 0, 73, 75
2, 30271, Note_on_c, 0, 73, 0
2, 30272, Note_on_c, 0, 76, 76
2, 30287, Note_on_c, 0, 76, 0
2, 30288, Note_on_c, 0, 79, 77
2, 30303, Note_on_c, 0, 79, 0
2, 30304, Note_on_c, 0, 76, 78
2, 30319, Note_on_c, 0, 76, 0
2, 30320, Note_on_c, 0, 73, 77
2, 30335, Note_on_c, 0, 73, 0
2, 30336, Note_on_c, 0, 70, 74
2, 30447, Note_on_c, 0, 70, 0
2, 30448, Note_on_c, 0, 70, 75
2, 30463, Note_on_c, 0, 70, 0
2, 30464, Note_on_c, 0, 73, 76
2, 30479, Note_on_c, 0, 73, 0
2, 30480, Note_on_c, 0, 76, 77
2, 30495, Note_on_c, 0, 76, 0
2, 30496, Note_on_c, 0, 73, 78
2, 30511, Note_on_c, 0, 73, 0
2, 30512, Note_on_c, 0, 70, 77
2, 30527, Note_on_c, 0, 70, 0
2, 30528, Note_on_c, 0, 71, 78
2, 30551, Note_on_c, 0, 71, 0
2, 30552, Note_on_c, 0, 78, 77
2, 30575, Note_on_c, 0, 78, 0
2, 30576, Note_on_c, 0, 74, 77
2, 30599, Note_on_c, 0, 74, 0
2, 30600, Note_on_c, 0, 78, 76
2, 30623, Note_on_c, 0, 78, 0
2, 30624, Note_on_c, 0, 83, 92
2, 30640, Note_on_c, 0, 83, 0
2, 30640, Note_on_c, 0, 74, 76
2, 30655, Note_on_c, 0, 74, 0
2, 30656, Note_on_c, 0, 76, 76
2, 30671, Note_on_c, 0, 76, 0
2, 30672, Note_on_c, 0, 78, 76
2, 30687, Note_on_c, 0, 78, 0
2, 30688, Note_on_c, 0, 76, 75
2, 30703, Note_on_c, 0, 76, 0
2, 30704, Note_on_c, 0, 74, 75
2, 30719, Note_on_c, 0, 74, 0
2, 30744, Note_on_c, 0, 79, 75
2, 30767, Note_on_c, 0, 79, 0
2, 30768, Note_on_c, 0, 76, 74
2, 30791, Note_on_c, 0, 76, 0
2, 30792, Note_on_c, 0, 79, 74
2, 30815, Note_on_c, 0, 79, 0
2, 30816, Note_on_c, 0, 83, 90
2, 30832, Note_on_c, 0, 83, 0
2, 30832, Note_on_c, 0, 76, 73
2, 30847, Note_on_c, 0, 76, 0
2, 30848, Note_on_c, 0, 78, 73
2, 30863, Note_on_c, 0, 78, 0
2, 30864, Note_on_c, 0, 79, 73
2, 30879, Note_on_c, 0, 79, 0
2, 30880, Note_on_c, 0, 78, 73
2, 30895, Note_on_c, 0, 78, 0
2, 30896, Note_on_c, 0, 76, 73
2, 30911, Note_on_c, 0, 76, 0
2, 30936, Note_on_c, 0, 76, 72
2, 30959, Note_on_c, 0, 76, 0
2, 30960, Note_on_c, 0, 73, 72
2, 30983, Note_on_c, 0, 73, 0
2, 30984, Note_on_c, 0, 76, 71
2, 31007, Note_on_c, 0, 76, 0
2, 31008, Note_on_c, 0, 81, 87
2, 31024, Note_on_c, 0, 81, 0
2, 31024, Note_on_c, 0, 73, 71
2, 31039, Note_on_c, 0, 73, 0
2, 31040, Note_on_c, 0, 74, 71
2, 31055, Note_on_c, 0, 74, 0
2, 31056, Note_on_c, 0, 76, 71
2, 31071, Note_on_c, 0, 76, 0
2, 31072, Note_on_c, 0, 74, 70
2, 31087, Note_on_c, 0, 74, 0
2, 31088, Note_on_c, 0, 73, 70
2, 31103, Note_on_c, 0, 73, 0
2, 31128, Note_on_c, 0, 78, 70
2, 31151, Note_on_c, 0, 78, 0
2, 31152, Note_on_c, 0, 74, 69
2, 31175, Note_on_c, 0, 74, 0
2, 31176, Note_on_c, 0, 78, 69
2, 31199, Note_on_c, 0, 78, 0
2, 31200, Note_on_c, 0, 81, 85
2, 31216, Note_on_c, 0, 81, 0
2, 31216, Note_on_c, 0, 74, 68
2, 31231, Note_on_c, 0, 74, 0
2, 31232, Note_on_c, 0, 76, 68
2, 31247, Note_on_c, 0, 76, 0
2, 31248, Note_on_c, 0, 78, 68
2, 31263, Note_on_c, 0, 78, 0
2, 31264, Note_on_c, 0, 76, 68
2, 31279, Note_on_c, 0, 76, 0
2, 31280, Note_on_c, 0, 74, 68
2, 31295, Note_on_c, 0, 74, 0
2, 31320, Note_on_c, 0, 74, 67
2, 31343, Note_on_c, 0, 74, 0
2, 31344, Note_on_c, 0, 71, 67
2, 31367, Note_on_c, 0, 71, 0
2, 31368, Note_on_c, 0, 74, 66
2, 31391, Note_on_c, 0, 74, 0
2, 31392, Note_on_c, 0, 79, 82
2, 31408, Note_on_c, 0, 79, 0
2, 31408, Note_on_c, 0, 71, 66
2, 31423, Note_on_c, 0, 71, 0
2, 31424, Note_on_c, 0, 73, 66
2, 31439, Note_on_c, 0, 73, 0
2, 31440, Note_on_c, 0, 74, 66
2, 31455, Note_on_c, 0, 74, 0
2, 31456, Note_on_c, 0, 73, 65
2, 31471, Note_on_c, 0, 73, 0
2, 31472, Note_on_c, 0, 71, 65
2, 31487, Note_on_c, 0, 71, 0
2, 31512, Note_on_c, 0, 76, 65
2, 31535, Note_on_c, 0, 76, 0
2, 31536, Note_on_c, 0, 73, 64
2, 31559, Note_on_c, 0, 73, 0
2, 31560, Note_on_c, 0, 76, 64
2, 31583, Note_on_c, 0, 76, 0
2, 31584, Note_on_c, 0, 79, 80
2, 31600, Note_on_c, 0, 79, 0
2, 31600, Note_on_c, 0, 73, 63
2, 31615, Note_on_c, 0, 73, 0
2, 31616, Note_on_c, 0, 74, 63
2, 31631, Note_on_c, 0, 74, 0
2, 31632, Note_on_c, 0, 76, 63
2, 31647, Note_on_c, 0, 76, 0
2, 31648, Note_on_c, 0, 74, 63
2, 31663, Note_on_c, 0, 74, 0
2, 31664, Note_on_c, 0, 73, 63
2, 31679, Note_on_c, 0, 73, 0
2, 31704, Note_on_c, 0, 73, 63
2, 31727, Note_on_c, 0, 73, 0
2, 31728, Note_on_c, 0, 70, 63
2, 31751, Note_on_c, 0, 70, 0
2, 31752, Note_on_c, 0, 73, 64
2, 31775, Note_on_c, 0, 73, 0
2, 31776, Note_on_c, 0, 78, 80
2, 31792, Note_on_c, 0, 78, 0
2, 31792, Note_on_c, 0, 73, 64
2, 31807, Note_on_c, 0, 73, 0
2, 31808, Note_on_c, 0, 74, 64
2, 31823, Note_on_c, 0, 74, 0
2, 31824, Note_on_c, 0, 76, 65
2, 31839, Note_on_c, 0, 76, 0
2, 31840, Note_on_c, 0, 74, 65
2, 31855, Note_on_c, 0, 74, 0
2, 31856, Note_on_c, 0, 73, 65
2, 31871, Note_on_c, 0, 73, 0
2, 31888, Note_on_c, 0, 71, 65
2, 31903, Note_on_c, 0, 71, 0
2, 31904, Note_on_c, 0, 73, 66
2, 31919, Note_on_c, 0, 73, 0
2, 31920, Note_on_c, 0, 74, 66
2, 31935, Note_on_c, 0, 74, 0
2, 31936, Note_on_c, 0, 73, 66
2, 31951, Note_on_c, 0, 73, 0
2, 31952, Note_on_c, 0, 71, 66
2, 31967, Note_on_c, 0, 71, 0
2, 31984, Note_on_c, 0, 70, 67
2, 31999, Note_on_c, 0, 70, 0
2, 32000, Note_on_c, 0, 71, 67
2, 32015, Note_on_c, 0, 71, 0
2, 32016, Note_on_c, 0, 73, 67
2, 32031, Note_on_c, 0, 73, 0
2, 32032, Note_on_c, 0, 71, 67
2, 32047, Note_on_c, 0, 71, 0
2, 32048, Note_on_c, 0, 70, 67
2, 32063, Note_on_c, 0, 70, 0
2, 32080, Note_on_c, 0, 71, 68
2, 32095, Note_on_c, 0, 71, 0
2, 32096, Note_on_c, 0, 73, 68
2, 32111, Note_on_c, 0, 73, 0
2, 32112, Note_on_c, 0, 74, 68
2, 32127, Note_on_c, 0, 74, 0
2, 32128, Note_on_c, 0, 73, 68
2, 32143, Note_on_c, 0, 73, 0
2, 32144, Note_on_c, 0, 71, 69
2, 32159, Note_on_c, 0, 71, 0
2, 32176, Note_on_c, 0, 73, 69
2, 32191, Note_on_c, 0, 73, 0
2, 32192, Note_on_c, 0, 74, 69
2, 32207, Note_on_c, 0, 74, 0
2, 32208, Note_on_c, 0, 76, 69
2, 32223, Note_on_c, 0, 76, 0
2, 32224, Note_on_c, 0, 74, 70
2, 32239, Note_on_c, 0, 74, 0
2, 32240, Note_on_c, 0, 73, 70
2, 32255, Note_on_c, 0, 73, 0
2, 32272, Note_on_c, 0, 74, 70
2, 32287, Note_on_c, 0, 74, 0
2, 32288, Note_on_c, 0, 76, 70
2, 32303, Note_on_c, 0, 76, 0
2, 32304, Note_on_c, 0, 78, 71
2, 32319, Note_on_c, 0, 78, 0
2, 32320, Note_on_c, 0, 76, 71
2, 32335, Note_on_c, 0, 76, 0
2, 32336, Note_on_c, 0, 74, 71
2, 32351, Note_on_c, 0, 74, 0
2, 32368, Note_on_c, 0, 76, 71
2, 32383, Note_on_c, 0, 76, 0
2, 32384, Note_on_c, 0, 78, 72
2, 32399, Note_on_c, 0, 78, 0
2, 32400, Note_on_c, 0, 79, 72
2, 32415, Note_on_c, 0, 79, 0
2, 32416, Note_on_c, 0, 78, 72
2, 32431, Note_on_c, 0, 78, 0
2, 32432, Note_on_c, 0, 76, 72
2, 32447, Note_on_c, 0, 76, 0
2, 32448, Note_on_c, 0, 78, 78
2, 32482, Note_on_c, 0, 78, 0
2, 32484, Note_on_c, 0, 71, 78
2, 32496, Note_on_c, 0, 71, 0
2, 32496, Note_on_c, 0, 74, 78
2, 32530, Note_on_c, 0, 74, 0
2, 32532, Note_on_c, 0, 78, 78
2, 32544, Note_on_c, 0, 78, 0
2, 32544, Note_on_c, 0, 83, 94
2, 32674, Note_on_c, 0, 83, 0
2, 32676, Note_on_c, 0, 78, 78
2, 32688, Note_on_c, 0, 78, 0
2, 32688, Note_on_c, 0, 81, 78
2, 32700, Note_on_c, 0, 81, 0
2, 32700, Note_on_c, 0, 79, 78
2, 32712, Note_on_c, 0, 79, 0
2, 32712, Note_on_c, 0, 78, 78
2, 32724, Note_on_c, 0, 78, 0
2, 32724, Note_on_c, 0, 76, 78
2, 32736, Note_on_c, 0, 76, 0
2, 32736, Note_on_c, 0, 74, 78
2, 32781, Note_on_c, 0, 74, 0
2, 32784, Note_on_c, 0, 73, 78
2, 32791, Note_on_c, 0, 73, 0
2, 32791, Note_on_c, 0, 74, 77
2, 32798, Note_on_c, 0, 74, 0
2, 32798, Note_on_c, 0, 73, 77
2, 32805, Note_on_c, 0, 73, 0
2, 32805, Note_on_c, 0, 74, 76
2, 32812, Note_on_c, 0, 74, 0
2, 32812, Note_on_c, 0, 73, 76
2, 32819, Note_on_c, 0, 73, 0
2, 32819, Note_on_c, 0, 71, 75
2, 32826, Note_on_c, 0, 71, 0
2, 32826, Note_on_c, 0, 73, 75
2, 32832, Note_on_c, 0, 73, 0
2, 32832, Note_on_c, 0, 71, 74
2, 32921, Note_on_c, 0, 71, 0
2, 32928, Note_on_c, 0, 66, 74
2, 32943, Note_on_c, 0, 66, 0
2, 32944, Note_on_c, 0, 78, 74
2, 32944, Note_on_c, 0, 74, 74
2, 32959, Note_on_c, 0, 78, 0
2, 32959, Note_on_c, 0, 74, 0
2, 32960, Note_on_c, 0, 78, 74
2, 32960, Note_on_c, 0, 74, 74
2, 32975, Note_on_c, 0, 78, 0
2, 32975, Note_on_c, 0, 74, 0
2, 32976, Note_on_c, 0, 78, 74
2, 32976, Note_on_c, 0, 74, 74
2, 32991, Note_on_c, 0, 78, 0
2, 32991, Note_on_c, 0, 74, 0
2, 32992, Note_on_c, 0, 78, 74
2, 32992, Note_on_c, 0, 74, 74
2, 33007, Note_on_c, 0, 78, 0
2, 33007, Note_on_c, 0, 74, 0
2, 33008, Note_on_c, 0, 78, 74
2, 33008, Note_on_c, 0, 74, 74
2, 33023, Note_on_c, 0, 78, 0
2, 33023, Note_on_c, 0, 74, 0
2, 33024, Note_on_c, 0, 78, 74
2, 33024, Note_on_c, 0, 74, 74
2, 33072, Note_on_c, 0, 78, 0
2, 33072, Note_on_c, 0, 74, 0
2, 33072, Note_on_c, 0, 76, 74
2, 33072, Note_on_c, 0, 73, 74
2, 33117, Note_on_c, 0, 76, 0
2, 33117, Note_on_c, 0, 73, 0
2, 33120, Note_on_c, 0, 66, 74
2, 33135, Note_on_c, 0, 66, 0
2, 33136, Note_on_c, 0, 76, 74
2, 33136, Note_on_c, 0, 73, 74
2, 33151, Note_on_c, 0, 76, 0
2, 33151, Note_on_c, 0, 73, 0
2, 33152, Note_on_c, 0, 76, 74
2, 33152, Note_on_c, 0, 73, 74
2, 33167, Note_on_c, 0, 76, 0
2, 33167, Note_on_c, 0, 73, 0
2, 33168, Note_on_c, 0, 76, 74
2, 33168, Note_on_c, 0, 73, 74
2, 33183, Note_on_c, 0, 76, 0
2, 33183, Note_on_c, 0, 73, 0
2, 33184, Note_on_c, 0, 76, 74
2, 33184, Note_on_c, 0, 73, 74
2, 33199, Note_on_c, 0, 76, 0
2, 33199, Note_on_c, 0, 73, 0
2, 33200, Note_on_c, 0, 76, 74
2, 33200, Note_on_c, 0, 73, 74
2, 33215, Note_on_c, 0, 76, 0
2, 33215, Note_on_c, 0, 73, 0
2, 33216, Note_on_c, 0, 76, 74
2, 33216, Note_on_c, 0, 73, 74
2, 33264, Note_on_c, 0, 76, 0
2, 33264, Note_on_c, 0, 73, 0
2, 33264, Note_on_c, 0, 74, 74
2, 33264, Note_on_c, 0, 71, 74
2, 33309, Note_on_c, 0, 74, 0
2, 33309, Note_on_c, 0, 71, 0
2, 33312, Note_on_c, 0, 71, 74
2, 33324, Note_on_c, 0, 71, 0
2, 33324, Note_on_c, 0, 73, 74
2, 33336, Note_on_c, 0, 73, 0
2, 33336, Note_on_c, 0, 74, 74
2, 33348, Note_on_c, 0, 74, 0
2, 33348, Note_on_c, 0, 76, 75
2, 33360, Note_on_c, 0, 76, 0
2, 33360, Note_on_c, 0, 78, 75
2, 33372, Note_on_c, 0, 78, 0
2, 33372, Note_on_c, 0, 80, 75
2, 33384, Note_on_c, 0, 80, 0
2, 33384, Note_on_c, 0, 82, 76
2, 33396, Note_on_c, 0, 82, 0
2, 33396, Note_on_c, 0, 83, 76
2, 33408, Note_on_c, 0, 83, 0
2, 33408, Note_on_c, 0, 81, 76
2, 33422, Note_on_c, 0, 81, 0
2, 33423, Note_on_c, 0, 79, 77
2, 33431, Note_on_c, 0, 79, 0
2, 33431, Note_on_c, 0, 81, 77
2, 33439, Note_on_c, 0, 81, 0
2, 33439, Note_on_c, 0, 79, 77
2, 33447, Note_on_c, 0, 79, 0
2, 33447, Note_on_c, 0, 81, 77
2, 33455, Note_on_c, 0, 81, 0
2, 33455, Note_on_c, 0, 79, 77
2, 33462, Note_on_c, 0, 79, 0
2, 33462, Note_on_c, 0, 81, 78
2, 33469, Note_on_c, 0, 81, 0
2, 33469, Note_on_c, 0, 79, 77
2, 33476, Note_on_c, 0, 79, 0
2, 33476, Note_on_c, 0, 81, 77
2, 33483, Note_on_c, 0, 81, 0
2, 33483, Note_on_c, 0, 79, 77
2, 33490, Note_on_c, 0, 79, 0
2, 33490, Note_on_c, 0, 78, 77
2, 33497, Note_on_c, 0, 78, 0
2, 33497, Note_on_c, 0, 76, 77
2, 33504, Note_on_c, 0, 76, 0
2, 33504, Note_on_c, 0, 74, 77
2, 33549, Note_on_c, 0, 74, 0
2, 33552, Note_on_c, 0, 73, 75
2, 33559, Note_on_c, 0, 73, 0
2, 33559, Note_on_c, 0, 74, 75
2, 33566, Note_on_c, 0, 74, 0
2, 33566, Note_on_c, 0, 73, 75
2, 33573, Note_on_c, 0, 73, 0
2, 33573, Note_on_c, 0, 74, 75
2, 33580, Note_on_c, 0, 74, 0
2, 33580, Note_on_c, 0, 73, 75
2, 33587, Note_on_c, 0, 73, 0
2, 33587, Note_on_c, 0, 71, 74
2, 33594, Note_on_c, 0, 71, 0
2, 33594, Note_on_c, 0, 73, 74
2, 33600, Note_on_c, 0, 73, 0
2, 33600, Note_on_c, 0, 71, 74
2, 33645, Note_on_c, 0, 71, 0
2, 33672, Note_on_c, 0, 78, 63
2, 33717, Note_on_c, 0, 78, 0
2, 33720, Note_on_c, 0, 76, 63
2, 33765, Note_on_c, 0, 76, 0
2, 33768, Note_on_c, 0, 73, 63
2, 33815, Note_on_c, 0, 73, 0
2, 33816, Note_on_c, 0, 74, 63
2, 33861, Note_on_c, 0, 74, 0
2, 33864, Note_on_c, 0, 71, 63
2, 33909, Note_on_c, 0, 71, 0
2, 33912, Note_on_c, 0, 73, 64
2, 33957, Note_on_c, 0, 73, 0
2, 33960, Note_on_c, 0, 70, 65
2, 34007, Note_on_c, 0, 70, 0
2, 34008, Note_on_c, 0, 71, 66
2, 34053, Note_on_c, 0, 71, 0
2, 34056, Note_on_c, 0, 83, 66
2, 34101, Note_on_c, 0, 83, 0
2, 34104, Note_on_c, 0, 81, 67
2, 34149, Note_on_c, 0, 81, 0
2, 34152, Note_on_c, 0, 78, 68
2, 34199, Note_on_c, 0, 78, 0
2, 34200, Note_on_c, 0, 79, 69
2, 34245, Note_on_c, 0, 79, 0
2, 34248, Note_on_c, 0, 76, 69
2, 34293, Note_on_c, 0, 76, 0
2, 34296, Note_on_c, 0, 77, 70
2, 34341, Note_on_c, 0, 77, 0
2, 34344, Note_on_c, 0, 74, 71
2, 34391, Note_on_c, 0, 74, 0
2, 34392, Note_on_c, 0, 76, 72
2, 34437, Note_on_c, 0, 76, 0
2, 34440, Note_on_c, 0, 72, 73
2, 34485, Note_on_c, 0, 72, 0
2, 34488, Note_on_c, 0, 74, 73
2, 34533, Note_on_c, 0, 74, 0
2, 34536, Note_on_c, 0, 71, 74
2, 34583, Note_on_c, 0, 71, 0
2, 34584, Note_on_c, 0, 72, 75
2, 34629, Note_on_c, 0, 72, 0
2, 34632, Note_on_c, 0, 74, 76
2, 34677, Note_on_c, 0, 74, 0
2, 34680, Note_on_c, 0, 72, 76
2, 34725, Note_on_c, 0, 72, 0
2, 34728, Note_on_c, 0, 69, 77
2, 34751, Note_on_c, 0, 69, 0
2, 34752, Note_on_c, 0, 71, 78
2, 34775, Note_on_c, 0, 71, 0
2, 34776, Note_on_c, 0, 76, 94
2, 34824, Note_on_c, 0, 76, 0
2, 34824, Note_on_c, 0, 74, 78
2, 34847, Note_on_c, 0, 74, 0
2, 34848, Note_on_c, 0, 73, 78
2, 34871, Note_on_c, 0, 73, 0
2, 34872, Note_on_c, 0, 79, 94
2, 34920, Note_on_c, 0, 79, 0
2, 34920, Note_on_c, 0, 78, 78
2, 34943, Note_on_c, 0, 78, 0
2, 34944, Note_on_c, 0, 71, 78
2, 34967, Note_on_c, 0, 71, 0
2, 34968, Note_on_c, 0, 76, 94
2, 35016, Note_on_c, 0, 76, 0
2, 35016, Note_on_c, 0, 74, 78
2, 35039, Note_on_c, 0, 74, 0
2, 35040, Note_on_c, 0, 73, 78
2, 35063, Note_on_c, 0, 73, 0
2, 35064, Note_on_c, 0, 79, 94
2, 35112, Note_on_c, 0, 79, 0
2, 35112, Note_on_c, 0, 78, 78
2, 35135, Note_on_c, 0, 78, 0
2, 35136, Note_on_c, 0, 74, 78
2, 35159, Note_on_c, 0, 74, 0
2, 35160, Note_on_c, 0, 83, 94
2, 35208, Note_on_c, 0, 83, 0
2, 35208, Note_on_c, 0, 81, 78
2, 35231, Note_on_c, 0, 81, 0
2, 35232, Note_on_c, 0, 73, 78
2, 35255, Note_on_c, 0, 73, 0
2, 35256, Note_on_c, 0, 79, 92
2, 35304, Note_on_c, 0, 79, 0
2, 35304, Note_on_c, 0, 78, 74
2, 35327, Note_on_c, 0, 78, 0
2, 35328, Note_on_c, 0, 78, 73
2, 35376, Note_on_c, 0, 78, 0
2, 35376, Note_on_c, 0, 76, 71
2, 35421, Note_on_c, 0, 76, 0
2, 35496, Note_on_c, 0, 62, 74
2, 35519, Note_on_c, 0, 62, 0
2, 35520, Note_on_c, 0, 66, 74
2, 35587, Note_on_c, 0, 66, 0
2, 35592, Note_on_c, 0, 62, 74
2, 35615, Note_on_c, 0, 62, 0
2, 35616, Note_on_c, 0, 67, 75
2, 35683, Note_on_c, 0, 67, 0
2, 35688, Note_on_c, 0, 61, 75
2, 35711, Note_on_c, 0, 61, 0
2, 35712, Note_on_c, 0, 62, 92
2, 35784, Note_on_c, 0, 62, 0
2, 35784, Note_on_c, 0, 66, 76
2, 35796, Note_on_c, 0, 66, 0
2, 35796, Note_on_c, 0, 64, 76
2, 35808, Note_on_c, 0, 64, 0
2, 35808, Note_on_c, 0, 62, 77
2, 35842, Note_on_c, 0, 62, 0
2, 35844, Note_on_c, 0, 62, 77
2, 35856, Note_on_c, 0, 62, 0
2, 35856, Note_on_c, 0, 74, 77
2, 35890, Note_on_c, 0, 74, 0
2, 35892, Note_on_c, 0, 73, 78
2, 35904, Note_on_c, 0, 73, 0
2, 35904, Note_on_c, 0, 71, 77
2, 35938, Note_on_c, 0, 71, 0
2, 35940, Note_on_c, 0, 61, 77
2, 35952, Note_on_c, 0, 61, 0
2, 35952, Note_on_c, 0, 62, 76
2, 35986, Note_on_c, 0, 62, 0
2, 35988, Note_on_c, 0, 69, 76
2, 36000, Note_on_c, 0, 69, 0
2, 36000, Note_on_c, 0, 69, 75
2, 36045, Note_on_c, 0, 69, 0
2, 36048, Note_on_c, 0, 67, 74
2, 36055, Note_on_c, 0, 67, 0
2, 36055, Note_on_c, 0, 69, 74
2, 36062, Note_on_c, 0, 69, 0
2, 36062, Note_on_c, 0, 67, 74
2, 36069, Note_on_c, 0, 67, 0
2, 36069, Note_on_c, 0, 69, 74
2, 36076, Note_on_c, 0, 69, 0
2, 36076, Note_on_c, 0, 67, 74
2, 36083, Note_on_c, 0, 67, 0
2, 36083, Note_on_c, 0, 66, 74
2, 36090, Note_on_c, 0, 66, 0
2, 36090, Note_on_c, 0, 67, 74
2, 36096, Note_on_c, 0, 67, 0
2, 36096, Note_on_c, 0, 67, 74
2, 36144, Note_on_c, 0, 67, 0
2, 36144, Note_on_c, 0, 66, 74
2, 36189, Note_on_c, 0, 66, 0
2, 36264, Note_on_c, 0, 74, 74
2, 36287, Note_on_c, 0, 74, 0
2, 36288, Note_on_c, 0, 78, 74
2, 36355, Note_on_c, 0, 78, 0
2, 36360, Note_on_c, 0, 74, 74
2, 36383, Note_on_c, 0, 74, 0
2, 36384, Note_on_c, 0, 79, 75
2, 36451, Note_on_c, 0, 79, 0
2, 36456, Note_on_c, 0, 73, 76
2, 36479, Note_on_c, 0, 73, 0
2, 36480, Note_on_c, 0, 74, 92
2, 36552, Note_on_c, 0, 74, 0
2, 36552, Note_on_c, 0, 78, 77
2, 36564, Note_on_c, 0, 78, 0
2, 36564, Note_on_c, 0, 76, 77
2, 36576, Note_on_c, 0, 76, 0
2, 36576, Note_on_c, 0, 74, 77
2, 36610, Note_on_c, 0, 74, 0
2, 36612, Note_on_c, 0, 74, 78
2, 36624, Note_on_c, 0, 74, 0
2, 36624, Note_on_c, 0, 86, 77
2, 36658, Note_on_c, 0, 86, 0
2, 36660, Note_on_c, 0, 85, 77
2, 36672, Note_on_c, 0, 85, 0
2, 36672, Note_on_c, 0, 85, 77
2, 36706, Note_on_c, 0, 85, 0
2, 36708, Note_on_c, 0, 83, 76
2, 36720, Note_on_c, 0, 83, 0
2, 36720, Note_on_c, 0, 83, 76
2, 36754, Note_on_c, 0, 83, 0
2, 36756, Note_on_c, 0, 81, 75
2, 36768, Note_on_c, 0, 81, 0
2, 36768, Note_on_c, 0, 81, 75
2, 36802, Note_on_c, 0, 81, 0
2, 36804, Note_on_c, 0, 79, 74
2, 36816, Note_on_c, 0, 79, 0
2, 36816, Note_on_c, 0, 79, 74
2, 36850, Note_on_c, 0, 79, 0
2, 36852, Note_on_c, 0, 78, 74
2, 36864, Note_on_c, 0, 78, 0
2, 36864, Note_on_c, 0, 78, 74
2, 36912, Note_on_c, 0, 78, 0
2, 36912, Note_on_c, 0, 76, 74
2, 36957, Note_on_c, 0, 76, 0
2, 37080, Note_on_c, 0, 76, 74
2, 37103, Note_on_c, 0, 76, 0
2, 37104, Note_on_c, 0, 73, 74
2, 37127, Note_on_c, 0, 73, 0
2, 37128, Note_on_c, 0, 76, 74
2, 37151, Note_on_c, 0, 76, 0
2, 37176, Note_on_c, 0, 76, 74
2, 37199, Note_on_c, 0, 76, 0
2, 37200, Note_on_c, 0, 73, 74
2, 37223, Note_on_c, 0, 73, 0
2, 37224, Note_on_c, 0, 76, 74
2, 37247, Note_on_c, 0, 76, 0
2, 37272, Note_on_c, 0, 74, 74
2, 37317, Note_on_c, 0, 74, 0
2, 37320, Note_on_c, 0, 69, 74
2, 37365, Note_on_c, 0, 69, 0
2, 37368, Note_on_c, 0, 67, 74
2, 37413, Note_on_c, 0, 67, 0
2, 37416, Note_on_c, 0, 66, 74
2, 37439, Note_on_c, 0, 66, 0
2, 37456, Note_on_c, 0, 76, 74
2, 37471, Note_on_c, 0, 76, 0
2, 37472, Note_on_c, 0, 74, 74
2, 37487, Note_on_c, 0, 74, 0
2, 37488, Note_on_c, 0, 73, 74
2, 37503, Note_on_c, 0, 73, 0
2, 37504, Note_on_c, 0, 74, 74
2, 37519, Note_on_c, 0, 74, 0
2, 37520, Note_on_c, 0, 76, 74
2, 37535, Note_on_c, 0, 76, 0
2, 37552, Note_on_c, 0, 76, 74
2, 37567, Note_on_c, 0, 76, 0
2, 37568, Note_on_c, 0, 74, 74
2, 37583, Note_on_c, 0, 74, 0
2, 37584, Note_on_c, 0, 73, 74
2, 37599, Note_on_c, 0, 73, 0
2, 37600, Note_on_c, 0, 74, 74
2, 37615, Note_on_c, 0, 74, 0
2, 37616, Note_on_c, 0, 76, 74
2, 37631, Note_on_c, 0, 76, 0
2, 37656, Note_on_c, 0, 74, 74
2, 37701, Note_on_c, 0, 74, 0
2, 37704, Note_on_c, 0, 69, 74
2, 37749, Note_on_c, 0, 69, 0
2, 37752, Note_on_c, 0, 67, 74
2, 37797, Note_on_c, 0, 67, 0
2, 37800, Note_on_c, 0, 66, 74
2, 37823, Note_on_c, 0, 66, 0
2, 37824, Note_on_c, 0, 71, 74
2, 37987, Note_on_c, 0, 71, 0
2, 37992, Note_on_c, 0, 79, 74
2, 38004, Note_on_c, 0, 79, 0
2, 38004, Note_on_c, 0, 76, 74
2, 38016, Note_on_c, 0, 76, 0
2, 38016, Note_on_c, 0, 74, 74
2, 38112, Note_on_c, 0, 74, 0
2, 38112, Note_on_c, 0, 73, 74
2, 38157, Note_on_c, 0, 73, 0
2, 38160, Note_on_c, 0, 83, 74
2, 38172, Note_on_c, 0, 83, 0
2, 38172, Note_on_c, 0, 81, 74
2, 38184, Note_on_c, 0, 81, 0
2, 38184, Note_on_c, 0, 79, 74
2, 38196, Note_on_c, 0, 79, 0
2, 38196, Note_on_c, 0, 78, 74
2, 38208, Note_on_c, 0, 78, 0
2, 38208, Note_on_c, 0, 76, 74
2, 38304, Note_on_c, 0, 76, 0
2, 38304, Note_on_c, 0, 74, 74
2, 38327, Note_on_c, 0, 74, 0
2, 38328, Note_on_c, 0, 79, 74
2, 38340, Note_on_c, 0, 79, 0
2, 38340, Note_on_c, 0, 81, 74
2, 38352, Note_on_c, 0, 81, 0
2, 38352, Note_on_c, 0, 83, 74
2, 38386, Note_on_c, 0, 83, 0
2, 38388, Note_on_c, 0, 79, 74
2, 38400, Note_on_c, 0, 79, 0
2, 38400, Note_on_c, 0, 78, 74
2, 38496, Note_on_c, 0, 78, 0
2, 38496, Note_on_c, 0, 76, 74
2, 38519, Note_on_c, 0, 76, 0
2, 38520, Note_on_c, 0, 78, 74
2, 38532, Note_on_c, 0, 78, 0
2, 38532, Note_on_c, 0, 79, 74
2, 38544, Note_on_c, 0, 79, 0
2, 38544, Note_on_c, 0, 81, 74
2, 38556, Note_on_c, 0, 81, 0
2, 38556, Note_on_c, 0, 79, 74
2, 38568, Note_on_c, 0, 79, 0
2, 38568, Note_on_c, 0, 78, 74
2, 38580, Note_on_c, 0, 78, 0
2, 38580, Note_on_c, 0, 79, 74
2, 38592, Note_on_c, 0, 79, 0
2, 38592, Note_on_c, 0, 78, 74
2, 38615, Note_on_c, 0, 78, 0
2, 38616, Note_on_c, 0, 83, 90
2, 38664, Note_on_c, 0, 83, 0
2, 38664, Note_on_c, 0, 81, 74
2, 38687, Note_on_c, 0, 81, 0
2, 38688, Note_on_c, 0, 74, 74
2, 38711, Note_on_c, 0, 74, 0
2, 38712, Note_on_c, 0, 79, 90
2, 38760, Note_on_c, 0, 79, 0
2, 38760, Note_on_c, 0, 78, 74
2, 38783, Note_on_c, 0, 78, 0
2, 38784, Note_on_c, 0, 71, 74
2, 38807, Note_on_c, 0, 71, 0
2, 38808, Note_on_c, 0, 76, 90
2, 38856, Note_on_c, 0, 76, 0
2, 38856, Note_on_c, 0, 74, 74
2, 38879, Note_on_c, 0, 74, 0
2, 38880, Note_on_c, 0, 73, 74
2, 38903, Note_on_c, 0, 73, 0
2, 38904, Note_on_c, 0, 79, 90
2, 38952, Note_on_c, 0, 79, 0
2, 38952, Note_on_c, 0, 78, 74
2, 38975, Note_on_c, 0, 78, 0
2, 38976, Note_on_c, 0, 71, 74
2, 38999, Note_on_c, 0, 71, 0
2, 39000, Note_on_c, 0, 76, 90
2, 39048, Note_on_c, 0, 76, 0
2, 39048, Note_on_c, 0, 74, 74
2, 39071, Note_on_c, 0, 74, 0
2, 39072, Note_on_c, 0, 73, 74
2, 39095, Note_on_c, 0, 73, 0
2, 39096, Note_on_c, 0, 79, 90
2, 39144, Note_on_c, 0, 79, 0
2, 39144, Note_on_c, 0, 78, 74
2, 39167, Note_on_c, 0, 78, 0
2, 39168, Note_on_c, 0, 78, 74
2, 39216, Note_on_c, 0, 78, 0
2, 39216, Note_on_c, 0, 76, 74
2, 39261, Note_on_c, 0, 76, 0
2, 39264, Note_on_c, 0, 81, 74
2, 39276, Note_on_c, 0, 81, 0
2, 39276, Note_on_c, 0, 78, 75
2, 39288, Note_on_c, 0, 78, 0
2, 39288, Note_on_c, 0, 75, 76
2, 39300, Note_on_c, 0, 75, 0
2, 39300, Note_on_c, 0, 72, 77
2, 39312, Note_on_c, 0, 72, 0
2, 39312, Note_on_c, 0, 69, 78
2, 39405, Note_on_c, 0, 69, 0
2, 39408, Note_on_c, 0, 68, 75
2, 39453, Note_on_c, 0, 68, 0
2, 39456, Note_on_c, 0, 79, 74
2, 39468, Note_on_c, 0, 79, 0
2, 39468, Note_on_c, 0, 76, 75
2, 39480, Note_on_c, 0, 76, 0
2, 39480, Note_on_c, 0, 73, 76
2, 39492, Note_on_c, 0, 73, 0
2, 39492, Note_on_c, 0, 69, 78
2, 39504, Note_on_c, 0, 69, 0
2, 39504, Note_on_c, 0, 67, 77
2, 39597, Note_on_c, 0, 67, 0
2, 39600, Note_on_c, 0, 66, 75
2, 39645, Note_on_c, 0, 66, 0
2, 39648, Note_on_c, 0, 86, 74
2, 39660, Note_on_c, 0, 86, 0
2, 39660, Note_on_c, 0, 81, 74
2, 39672, Note_on_c, 0, 81, 0
2, 39672, Note_on_c, 0, 78, 74
2, 39684, Note_on_c, 0, 78, 0
2, 39684, Note_on_c, 0, 74, 74
2, 39696, Note_on_c, 0, 74, 0
2, 39696, Note_on_c, 0, 69, 74
2, 39741, Note_on_c, 0, 69, 0
2, 39744, Note_on_c, 0, 70, 74
2, 39768, Note_on_c, 0, 70, 0
2, 39768, Note_on_c, 0, 71, 74
2, 39791, Note_on_c, 0, 71, 0
2, 39792, Note_on_c, 0, 81, 74
2, 39804, Note_on_c, 0, 81, 0
2, 39804, Note_on_c, 0, 79, 74
2, 39816, Note_on_c, 0, 79, 0
2, 39816, Note_on_c, 0, 78, 74
2, 39828, Note_on_c, 0, 78, 0
2, 39828, Note_on_c, 0, 76, 74
2, 39840, Note_on_c, 0, 76, 0
2, 39840, Note_on_c, 0, 74, 74
2, 39885, Note_on_c, 0, 74, 0
2, 39888, Note_on_c, 0, 73, 74
2, 39895, Note_on_c, 0, 73, 0
2, 39895, Note_on_c, 0, 74, 74
2, 39902, Note_on_c, 0, 74, 0
2, 39902, Note_on_c, 0, 73, 74
2, 39909, Note_on_c, 0, 73, 0
2, 39909, Note_on_c, 0, 74, 74
2, 39916, Note_on_c, 0, 74, 0
2, 39916, Note_on_c, 0, 73, 74
2, 39923, Note_on_c, 0, 73, 0
2, 39923, Note_on_c, 0, 71, 74
2, 39930, Note_on_c, 0, 71, 0
2, 39930, Note_on_c, 0, 73, 74
2, 39936, Note_on_c, 0, 73, 0
2, 39936, Note_on_c, 0, 74, 74
2, 39981, Note_on_c, 0, 74, 0
2, 39984, Note_on_c, 0, 69, 63
2, 40055, Note_on_c, 0, 69, 0
2, 40056, Note_on_c, 0, 65, 63
2, 40079, Note_on_c, 0, 65, 0
2, 40080, Note_on_c, 0, 70, 63
2, 40103, Note_on_c, 0, 70, 0
2, 40104, Note_on_c, 0, 69, 63
2, 40127, Note_on_c, 0, 69, 0
2, 40128, Note_on_c, 0, 68, 63
2, 40224, Note_on_c, 0, 68, 0
2, 40224, Note_on_c, 0, 67, 63
2, 40247, Note_on_c, 0, 67, 0
2, 40248, Note_on_c, 0, 64, 63
2, 40271, Note_on_c, 0, 64, 0
2, 40272, Note_on_c, 0, 69, 63
2, 40295, Note_on_c, 0, 69, 0
2, 40296, Note_on_c, 0, 67, 63
2, 40319, Note_on_c, 0, 67, 0
2, 40320, Note_on_c, 0, 65, 63
2, 40439, Note_on_c, 0, 65, 0
2, 40440, Note_on_c, 0, 62, 63
2, 40463, Note_on_c, 0, 62, 0
2, 40464, Note_on_c, 0, 74, 63
2, 40487, Note_on_c, 0, 74, 0
2, 40488, Note_on_c, 0, 68, 63
2, 40511, Note_on_c, 0, 68, 0
2, 40512, Note_on_c, 0, 69, 63
2, 40631, Note_on_c, 0, 69, 0
2, 40632, Note_on_c, 0, 62, 69
2, 40655, Note_on_c, 0, 62, 0
2, 40656, Note_on_c, 0, 74, 69
2, 40679, Note_on_c, 0, 74, 0
2, 40680, Note_on_c, 0, 68, 69
2, 40703, Note_on_c, 0, 68, 0
2, 40704, Note_on_c, 0, 71, 69
2, 40710, Note_on_c, 0, 71, 0
2, 40710, Note_on_c, 0, 69, 69
2, 40716, Note_on_c, 0, 69, 0
2, 40716, Note_on_c, 0, 68, 69
2, 40722, Note_on_c, 0, 68, 0
2, 40722, Note_on_c, 0, 69, 69
2, 40793, Note_on_c, 0, 69, 0
2, 40800, Note_on_c, 0, 69, 74
2, 40815, Note_on_c, 0, 69, 0
2, 40816, Note_on_c, 0, 81, 74
2, 40816, Note_on_c, 0, 78, 74
2, 40831, Note_on_c, 0, 81, 0
2, 40831, Note_on_c, 0, 78, 0
2, 40832, Note_on_c, 0, 81, 74
2, 40832, Note_on_c, 0, 78, 74
2, 40847, Note_on_c, 0, 81, 0
2, 40847, Note_on_c, 0, 78, 0
2, 40848, Note_on_c, 0, 81, 74
2, 40848, Note_on_c, 0, 78, 74
2, 40863, Note_on_c, 0, 81, 0
2, 40863, Note_on_c, 0, 78, 0
2, 40864, Note_on_c, 0, 81, 74
2, 40864, Note_on_c, 0, 78, 74
2, 40879, Note_on_c, 0, 81, 0
2, 40879, Note_on_c, 0, 78, 0
2, 40880, Note_on_c, 0, 81, 74
2, 40880, Note_on_c, 0, 78, 74
2, 40895, Note_on_c, 0, 81, 0
2, 40895, Note_on_c, 0, 78, 0
2, 40896, Note_on_c, 0, 81, 74
2, 40896, Note_on_c, 0, 78, 74
2, 40944, Note_on_c, 0, 81, 0
2, 40944, Note_on_c, 0, 78, 0
2, 40944, Note_on_c, 0, 80, 74
2, 40944, Note_on_c, 0, 76, 74
2, 40989, Note_on_c, 0, 80, 0
2, 40989, Note_on_c, 0, 76, 0
2, 40992, Note_on_c, 0, 69, 74
2, 41007, Note_on_c, 0, 69, 0
2, 41008, Note_on_c, 0, 79, 74
2, 41008, Note_on_c, 0, 76, 74
2, 41023, Note_on_c, 0, 79, 0
2, 41023, Note_on_c, 0, 76, 0
2, 41024, Note_on_c, 0, 79, 74
2, 41024, Note_on_c, 0, 76, 74
2, 41039, Note_on_c, 0, 79, 0
2, 41039, Note_on_c, 0, 76, 0
2, 41040, Note_on_c, 0, 79, 74
2, 41040, Note_on_c, 0, 76, 74
2, 41055, Note_on_c, 0, 79, 0
2, 41055, Note_on_c, 0, 76, 0
2, 41056, Note_on_c, 0, 79, 74
2, 41056, Note_on_c, 0, 76, 74
2, 41071, Note_on_c, 0, 79, 0
2, 41071, Note_on_c, 0, 76, 0
2, 41072, Note_on_c, 0, 79, 74
2, 41072, Note_on_c, 0, 76, 74
2, 41087, Note_on_c, 0, 79, 0
2, 41087, Note_on_c, 0, 76, 0
2, 41088, Note_on_c, 0, 79, 74
2, 41088, Note_on_c, 0, 76, 74
2, 41136, Note_on_c, 0, 79, 0
2, 41136, Note_on_c, 0, 76, 0
2, 41136, Note_on_c, 0, 78, 74
2, 41136, Note_on_c, 0, 74, 74
2, 41181, Note_on_c, 0, 78, 0
2, 41181, Note_on_c, 0, 74, 0
2, 41184, Note_on_c, 0, 74, 74
2, 41196, Note_on_c, 0, 74, 0
2, 41196, Note_on_c, 0, 76, 74
2, 41208, Note_on_c, 0, 76, 0
2, 41208, Note_on_c, 0, 78, 74
2, 41220, Note_on_c, 0, 78, 0
2, 41220, Note_on_c, 0, 79, 75
2, 41232, Note_on_c, 0, 79, 0
2, 41232, Note_on_c, 0, 81, 75
2, 41244, Note_on_c, 0, 81, 0
2, 41244, Note_on_c, 0, 83, 75
2, 41256, Note_on_c, 0, 83, 0
2, 41256, Note_on_c, 0, 85, 76
2, 41268, Note_on_c, 0, 85, 0
2, 41268, Note_on_c, 0, 86, 76
2, 41280, Note_on_c, 0, 86, 0
2, 41280, Note_on_c, 0, 76, 76
2, 41325, Note_on_c, 0, 76, 0
2, 41328, Note_on_c, 0, 85, 78
2, 41340, Note_on_c, 0, 85, 0
2, 41340, Note_on_c, 0, 83, 77
2, 41352, Note_on_c, 0, 83, 0
2, 41352, Note_on_c, 0, 81, 77
2, 41364, Note_on_c, 0, 81, 0
2, 41364, Note_on_c, 0, 79, 76
2, 41376, Note_on_c, 0, 79, 0
2, 41376, Note_on_c, 0, 78, 76
2, 41421, Note_on_c, 0, 78, 0
2, 41424, Note_on_c, 0, 76, 74
2, 41431, Note_on_c, 0, 76, 0
2, 41431, Note_on_c, 0, 78, 74
2, 41438, Note_on_c, 0, 78, 0
2, 41438, Note_on_c, 0, 76, 74
2, 41445, Note_on_c, 0, 76, 0
2, 41445, Note_on_c, 0, 78, 74
2, 41452, Note_on_c, 0, 78, 0
2, 41452, Note_on_c, 0, 76, 74
2, 41459, Note_on_c, 0, 76, 0
2, 41459, Note_on_c, 0, 74, 74
2, 41466, Note_on_c, 0, 74, 0
2, 41466, Note_on_c, 0, 76, 74
2, 41472, Note_on_c, 0, 76, 0
2, 41472, Note_on_c, 0, 74, 74
2, 41561, Note_on_c, 0, 74, 0
2, 41568, Note_on_c, 0, 57, 74
2, 41583, Note_on_c, 0, 57, 0
2, 41584, Note_on_c, 0, 69, 74
2, 41584, Note_on_c, 0, 66, 74
2, 41599, Note_on_c, 0, 69, 0
2, 41599, Note_on_c, 0, 66, 0
2, 41600, Note_on_c, 0, 69, 74
2, 41600, Note_on_c, 0, 66, 74
2, 41615, Note_on_c, 0, 69, 0
2, 41615, Note_on_c, 0, 66, 0
2, 41616, Note_on_c, 0, 69, 74
2, 41616, Note_on_c, 0, 66, 74
2, 41631, Note_on_c, 0, 69, 0
2, 41631, Note_on_c, 0, 66, 0
2, 41632, Note_on_c, 0, 69, 74
2, 41632, Note_on_c, 0, 66, 74
2, 41647, Note_on_c, 0, 69, 0
2, 41647, Note_on_c, 0, 66, 0
2, 41648, Note_on_c, 0, 69, 74
2, 41648, Note_on_c, 0, 66, 74
2, 41663, Note_on_c, 0, 69, 0
2, 41663, Note_on_c, 0, 66, 0
2, 41664, Note_on_c, 0, 69, 74
2, 41664, Note_on_c, 0, 66, 74
2, 41712, Note_on_c, 0, 69, 0
2, 41712, Note_on_c, 0, 66, 0
2, 41712, Note_on_c, 0, 68, 74
2, 41712, Note_on_c, 0, 64, 74
2, 41757, Note_on_c, 0, 68, 0
2, 41757, Note_on_c, 0, 64, 0
2, 41760, Note_on_c, 0, 57, 74
2, 41775, Note_on_c, 0, 57, 0
2, 41776, Note_on_c, 0, 67, 74
2, 41776, Note_on_c, 0, 64, 74
2, 41791, Note_on_c, 0, 67, 0
2, 41791, Note_on_c, 0, 64, 0
2, 41792, Note_on_c, 0, 67, 74
2, 41792, Note_on_c, 0, 64, 74
2, 41807, Note_on_c, 0, 67, 0
2, 41807, Note_on_c, 0, 64, 0
2, 41808, Note_on_c, 0, 67, 74
2, 41808, Note_on_c, 0, 64, 74
2, 41823, Note_on_c, 0, 67, 0
2, 41823, Note_on_c, 0, 64, 0
2, 41824, Note_on_c, 0, 67, 74
2, 41824, Note_on_c, 0, 64, 74
2, 41839, Note_on_c, 0, 67, 0
2, 41839, Note_on_c, 0, 64, 0
2, 41840, Note_on_c, 0, 67, 74
2, 41840, Note_on_c, 0, 64, 74
2, 41855, Note_on_c, 0, 67, 0
2, 41855, Note_on_c, 0, 64, 0
2, 41856, Note_on_c, 0, 67, 74
2, 41856, Note_on_c, 0, 64, 74
2, 41904, Note_on_c, 0, 67, 0
2, 41904, Note_on_c, 0, 64, 0
2, 41904, Note_on_c, 0, 66, 74
2, 41904, Note_on_c, 0, 62, 74
2, 41949, Note_on_c, 0, 66, 0
2, 41949, Note_on_c, 0, 62, 0
2, 41952, Note_on_c, 0, 62, 74
2, 41964, Note_on_c, 0, 62, 0
2, 41964, Note_on_c, 0, 64, 74
2, 41976, Note_on_c, 0, 64, 0
2, 41976, Note_on_c, 0, 66, 74
2, 41988, Note_on_c, 0, 66, 0
2, 41988, Note_on_c, 0, 67, 75
2, 42000, Note_on_c, 0, 67, 0
2, 42000, Note_on_c, 0, 69, 75
2, 42012, Note_on_c, 0, 69, 0
2, 42012, Note_on_c, 0, 71, 75
2, 42024, Note_on_c, 0, 71, 0
2, 42024, Note_on_c, 0, 73, 76
2, 42036, Note_on_c, 0, 73, 0
2, 42036, Note_on_c, 0, 74, 76
2, 42048, Note_on_c, 0, 74, 0
2, 42048, Note_on_c, 0, 73, 76
2, 42056, Note_on_c, 0, 73, 0
2, 42056, Note_on_c, 0, 71, 77
2, 42064, Note_on_c, 0, 71, 0
2, 42064, Note_on_c, 0, 73, 77
2, 42072, Note_on_c, 0, 73, 0
2, 42072, Note_on_c, 0, 71, 77
2, 42080, Note_on_c, 0, 71, 0
2, 42080, Note_on_c, 0, 73, 77
2, 42088, Note_on_c, 0, 73, 0
2, 42088, Note_on_c, 0, 71, 77
2, 42096, Note_on_c, 0, 71, 0
2, 42096, Note_on_c, 0, 73, 78
2, 42104, Note_on_c, 0, 73, 0
2, 42104, Note_on_c, 0, 71, 77
2, 42112, Note_on_c, 0, 71, 0
2, 42112, Note_on_c, 0, 73, 77
2, 42120, Note_on_c, 0, 73, 0
2, 42120, Note_on_c, 0, 71, 77
2, 42128, Note_on_c, 0, 71, 0
2, 42128, Note_on_c, 0, 69, 77
2, 42136, Note_on_c, 0, 69, 0
2, 42136, Note_on_c, 0, 67, 77
2, 42144, Note_on_c, 0, 67, 0
2, 42144, Note_on_c, 0, 66, 76
2, 42189, Note_on_c, 0, 66, 0
2, 42192, Note_on_c, 0, 64, 75
2, 42199, Note_on_c, 0, 64, 0
2, 42199, Note_on_c, 0, 66, 75
2, 42206, Note_on_c, 0, 66, 0
2, 42206, Note_on_c, 0, 64, 75
2, 42213, Note_on_c, 0, 64, 0
2, 42213, Note_on_c, 0, 66, 75
2, 42220, Note_on_c, 0, 66, 0
2, 42220, Note_on_c, 0, 64, 74
2, 42227, Note_on_c, 0, 64, 0
2, 42227, Note_on_c, 0, 62, 74
2, 42234, Note_on_c, 0, 62, 0
2, 42234, Note_on_c, 0, 64, 74
2, 42240, Note_on_c, 0, 64, 0
2, 42240, Note_on_c, 0, 62, 74
2, 42329, Note_on_c, 0, 62, 0
2, 42432, End_track
3, 0, Start_track
3, 0, Program_c, 0, 0
3, 0, Control_c, 0, 7, 127
3, 0, Control_c, 0, 10, 64
3, 42432, End_track
4, 0, Start_track
4, 0, Program_c, 1, 0
4, 0, Control_c, 1, 7, 127
4, 0, Control_c, 1, 10, 64
4, 192, Note_on_c, 1, 50, 74
4, 237, Note_on_c, 1, 50, 0
4, 240, Note_on_c, 1, 57, 74
4, 285, Note_on_c, 1, 57, 0
4, 288, Note_on_c, 1, 52, 74
4, 333, Note_on_c, 1, 52, 0
4, 336, Note_on_c, 1, 57, 74
4, 381, Note_on_c, 1, 57, 0
4, 384, Note_on_c, 1, 54, 74
4, 429, Note_on_c, 1, 54, 0
4, 432, Note_on_c, 1, 57, 74
4, 477, Note_on_c, 1, 57, 0
4, 528, Note_on_c, 1, 54, 74
4, 573, Note_on_c, 1, 54, 0
4, 576, Note_on_c, 1, 55, 74
4, 621, Note_on_c, 1, 55, 0
4, 624, Note_on_c, 1, 54, 74
4, 669, Note_on_c, 1, 54, 0
4, 672, Note_on_c, 1, 52, 74
4, 717, Note_on_c, 1, 52, 0
4, 720, Note_on_c, 1, 61, 74
4, 765, Note_on_c, 1, 61, 0
4, 768, Note_on_c, 1, 62, 74
4, 813, Note_on_c, 1, 62, 0
4, 816, Note_on_c, 1, 57, 74
4, 850, Note_on_c, 1, 57, 0
4, 852, Note_on_c, 1, 54, 74
4, 864, Note_on_c, 1, 54, 0
4, 864, Note_on_c, 1, 50, 74
4, 953, Note_on_c, 1, 50, 0
4, 960, Note_on_c, 1, 62, 74
4, 1005, Note_on_c, 1, 62, 0
4, 1008, Note_on_c, 1, 69, 74
4, 1053, Note_on_c, 1, 69, 0
4, 1056, Note_on_c, 1, 64, 74
4, 1101, Note_on_c, 1, 64, 0
4, 1104, Note_on_c, 1, 69, 74
4, 1149, Note_on_c, 1, 69, 0
4, 1152, Note_on_c, 1, 66, 74
4, 1197, Note_on_c, 1, 66, 0
4, 1200, Note_on_c, 1, 69, 74
4, 1245, Note_on_c, 1, 69, 0
4, 1296, Note_on_c, 1, 66, 74
4, 1341, Note_on_c, 1, 66, 0
4, 1344, Note_on_c, 1, 67, 74
4, 1389, Note_on_c, 1, 67, 0
4, 1392, Note_on_c, 1, 66, 74
4, 1437, Note_on_c, 1, 66, 0
4, 1440, Note_on_c, 1, 64, 74
4, 1485, Note_on_c, 1, 64, 0
4, 1488, Note_on_c, 1, 62, 74
4, 1533, Note_on_c, 1, 62, 0
4, 1536, Note_on_c, 1, 69, 74
4, 1581, Note_on_c, 1, 69, 0
4, 1584, Note_on_c, 1, 64, 74
4, 1629, Note_on_c, 1, 64, 0
4, 1632, Note_on_c, 1, 57, 74
4, 1721, Note_on_c, 1, 57, 0
4, 1752, Note_on_c, 1, 67, 74
4, 1775, Note_on_c, 1, 67, 0
4, 1776, Note_on_c, 1, 64, 74
4, 1799, Note_on_c, 1, 64, 0
4, 1800, Note_on_c, 1, 67, 74
4, 1823, Note_on_c, 1, 67, 0
4, 1848, Note_on_c, 1, 67, 74
4, 1871, Note_on_c, 1, 67, 0
4, 1872, Note_on_c, 1, 64, 74
4, 1895, Note_on_c, 1, 64, 0
4, 1896, Note_on_c, 1, 67, 74
4, 1919, Note_on_c, 1, 67, 0
4, 1920, Note_on_c, 1, 66, 74
4, 1965, Note_on_c, 1, 66, 0
4, 1968, Note_on_c, 1, 66, 74
4, 2013, Note_on_c, 1, 66, 0
4, 2016, Note_on_c, 1, 64, 74
4, 2061, Note_on_c, 1, 64, 0
4, 2064, Note_on_c, 1, 62, 74
4, 2109, Note_on_c, 1, 62, 0
4, 2136, Note_on_c, 1, 67, 74
4, 2159, Note_on_c, 1, 67, 0
4, 2160, Note_on_c, 1, 64, 74
4, 2183, Note_on_c, 1, 64, 0
4, 2184, Note_on_c, 1, 67, 74
4, 2207, Note_on_c, 1, 67, 0
4, 2232, Note_on_c, 1, 67, 74
4, 2255, Note_on_c, 1, 67, 0
4, 2256, Note_on_c, 1, 64, 74
4, 2279, Note_on_c, 1, 64, 0
4, 2280, Note_on_c, 1, 67, 74
4, 2303, Note_on_c, 1, 67, 0
4, 2304, Note_on_c, 1, 66, 74
4, 2349, Note_on_c, 1, 66, 0
4, 2352, Note_on_c, 1, 66, 74
4, 2397, Note_on_c, 1, 66, 0
4, 2400, Note_on_c, 1, 64, 74
4, 2445, Note_on_c, 1, 64, 0
4, 2448, Note_on_c, 1, 62, 74
4, 2493, Note_on_c, 1, 62, 0
4, 2520, Note_on_c, 1, 69, 78
4, 2543, Note_on_c, 1, 69, 0
4, 2544, Note_on_c, 1, 66, 78
4, 2567, Note_on_c, 1, 66, 0
4, 2568, Note_on_c, 1, 69, 78
4, 2591, Note_on_c, 1, 69, 0
4, 2616, Note_on_c, 1, 69, 78
4, 2639, Note_on_c, 1, 69, 0
4, 2640, Note_on_c, 1, 66, 78
4, 2663, Note_on_c, 1, 66, 0
4, 2664, Note_on_c, 1, 69, 78
4, 2687, Note_on_c, 1, 69, 0
4, 2688, Note_on_c, 1, 68, 78
4, 2733, Note_on_c, 1, 68, 0
4, 2736, Note_on_c, 1, 68, 78
4, 2781, Note_on_c, 1, 68, 0
4, 2784, Note_on_c, 1, 66, 78
4, 2829, Note_on_c, 1, 66, 0
4, 2832, Note_on_c, 1, 64, 78
4, 2877, Note_on_c, 1, 64, 0
4, 2904, Note_on_c, 1, 69, 78
4, 2927, Note_on_c, 1, 69, 0
4, 2928, Note_on_c, 1, 66, 78
4, 2951, Note_on_c, 1, 66, 0
4, 2952, Note_on_c, 1, 69, 78
4, 2975, Note_on_c, 1, 69, 0
4, 3000, Note_on_c, 1, 69, 78
4, 3023, Note_on_c, 1, 69, 0
4, 3024, Note_on_c, 1, 66, 78
4, 3047, Note_on_c, 1, 66, 0
4, 3048, Note_on_c, 1, 69, 78
4, 3071, Note_on_c, 1, 69, 0
4, 3072, Note_on_c, 1, 68, 78
4, 3117, Note_on_c, 1, 68, 0
4, 3120, Note_on_c, 1, 68, 78
4, 3165, Note_on_c, 1, 68, 0
4, 3168, Note_on_c, 1, 66, 78
4, 3213, Note_on_c, 1, 66, 0
4, 3216, Note_on_c, 1, 64, 78
4, 3261, Note_on_c, 1, 64, 0
4, 3312, Note_on_c, 1, 62, 69
4, 3346, Note_on_c, 1, 62, 0
4, 3348, Note_on_c, 1, 61, 69
4, 3360, Note_on_c, 1, 61, 0
4, 3360, Note_on_c, 1, 62, 69
4, 3405, Note_on_c, 1, 62, 0
4, 3408, Note_on_c, 1, 59, 69
4, 3455, Note_on_c, 1, 59, 0
4, 3504, Note_on_c, 1, 64, 69
4, 3538, Note_on_c, 1, 64, 0
4, 3540, Note_on_c, 1, 62, 69
4, 3552, Note_on_c, 1, 62, 0
4, 3552, Note_on_c, 1, 64, 69
4, 3597, Note_on_c, 1, 64, 0
4, 3600, Note_on_c, 1, 61, 69
4, 3647, Note_on_c, 1, 61, 0
4, 3696, Note_on_c, 1, 66, 69
4, 3730, Note_on_c, 1, 66, 0
4, 3732, Note_on_c, 1, 64, 69
4, 3744, Note_on_c, 1, 64, 0
4, 3744, Note_on_c, 1, 66, 69
4, 3789, Note_on_c, 1, 66, 0
4, 3792, Note_on_c, 1, 62, 69
4, 3839, Note_on_c, 1, 62, 0
4, 3888, Note_on_c, 1, 68, 69
4, 3922, Note_on_c, 1, 68, 0
4, 3924, Note_on_c, 1, 66, 69
4, 3936, Note_on_c, 1, 66, 0
4, 3936, Note_on_c, 1, 68, 69
4, 3981, Note_on_c, 1, 68, 0
4, 3984, Note_on_c, 1, 64, 69
4, 4031, Note_on_c, 1, 64, 0
4, 4032, Note_on_c, 1, 69, 74
4, 4077, Note_on_c, 1, 69, 0
4, 4080, Note_on_c, 1, 68, 74
4, 4125, Note_on_c, 1, 68, 0
4, 4128, Note_on_c, 1, 66, 74
4, 4173, Note_on_c, 1, 66, 0
4, 4176, Note_on_c, 1, 64, 74
4, 4221, Note_on_c, 1, 64, 0
4, 4224, Note_on_c, 1, 62, 74
4, 4269, Note_on_c, 1, 62, 0
4, 4272, Note_on_c, 1, 61, 74
4, 4317, Note_on_c, 1, 61, 0
4, 4320, Note_on_c, 1, 59, 74
4, 4365, Note_on_c, 1, 59, 0
4, 4368, Note_on_c, 1, 57, 74
4, 4413, Note_on_c, 1, 57, 0
4, 4416, Note_on_c, 1, 62, 74
4, 4461, Note_on_c, 1, 62, 0
4, 4464, Note_on_c, 1, 61, 74
4, 4509, Note_on_c, 1, 61, 0
4, 4512, Note_on_c, 1, 59, 74
4, 4557, Note_on_c, 1, 59, 0
4, 4560, Note_on_c, 1, 57, 74
4, 4605, Note_on_c, 1, 57, 0
4, 4608, Note_on_c, 1, 64, 74
4, 4653, Note_on_c, 1, 64, 0
4, 4656, Note_on_c, 1, 52, 74
4, 4701, Note_on_c, 1, 52, 0
4, 4752, Note_on_c, 1, 61, 74
4, 4752, Note_on_c, 1, 58, 74
4, 4799, Note_on_c, 1, 61, 0
4, 4799, Note_on_c, 1, 58, 0
4, 4800, Note_on_c, 1, 59, 74
4, 4845, Note_on_c, 1, 59, 0
4, 4848, Note_on_c, 1, 47, 74
4, 4893, Note_on_c, 1, 47, 0
4, 4944, Note_on_c, 1, 59, 74
4, 4944, Note_on_c, 1, 56, 74
4, 4991, Note_on_c, 1, 59, 0
4, 4991, Note_on_c, 1, 56, 0
4, 4992, Note_on_c, 1, 57, 74
4, 5037, Note_on_c, 1, 57, 0
4, 5040, Note_on_c, 1, 45, 74
4, 5085, Note_on_c, 1, 45, 0
4, 5136, Note_on_c, 1, 57, 74
4, 5181, Note_on_c, 1, 57, 0
4, 5184, Note_on_c, 1, 57, 74
4, 5229, Note_on_c, 1, 57, 0
4, 5232, Note_on_c, 1, 62, 74
4, 5277, Note_on_c, 1, 62, 0
4, 5280, Note_on_c, 1, 61, 74
4, 5325, Note_on_c, 1, 61, 0
4, 5328, Note_on_c, 1, 59, 74
4, 5373, Note_on_c, 1, 59, 0
4, 5376, Note_on_c, 1, 57, 74
4, 5465, Note_on_c, 1, 57, 0
4, 5472, Note_on_c, 1, 69, 63
4, 5591, Note_on_c, 1, 69, 0
4, 5592, Note_on_c, 1, 66, 63
4, 5615, Note_on_c, 1, 66, 0
4, 5616, Note_on_c, 1, 71, 63
4, 5639, Note_on_c, 1, 71, 0
4, 5640, Note_on_c, 1, 69, 63
4, 5663, Note_on_c, 1, 69, 0
4, 5664, Note_on_c, 1, 68, 63
4, 5783, Note_on_c, 1, 68, 0
4, 5784, Note_on_c, 1, 64, 63
4, 5807, Note_on_c, 1, 64, 0
4, 5808, Note_on_c, 1, 69, 63
4, 5831, Note_on_c, 1, 69, 0
4, 5832, Note_on_c, 1, 67, 63
4, 5855, Note_on_c, 1, 67, 0
4, 5856, Note_on_c, 1, 65, 63
4, 5945, Note_on_c, 1, 65, 0
4, 5976, Note_on_c, 1, 52, 69
4, 5999, Note_on_c, 1, 52, 0
4, 6000, Note_on_c, 1, 64, 69
4, 6023, Note_on_c, 1, 64, 0
4, 6024, Note_on_c, 1, 62, 69
4, 6047, Note_on_c, 1, 62, 0
4, 6048, Note_on_c, 1, 60, 69
4, 6093, Note_on_c, 1, 60, 0
4, 6096, Note_on_c, 1, 53, 69
4, 6096, Note_on_c, 1, 41, 69
4, 6141, Note_on_c, 1, 53, 0
4, 6141, Note_on_c, 1, 41, 0
4, 6144, Note_on_c, 1, 52, 69
4, 6189, Note_on_c, 1, 52, 0
4, 6192, Note_on_c, 1, 40, 69
4, 6237, Note_on_c, 1, 40, 0
4, 6288, Note_on_c, 1, 58, 74
4, 6333, Note_on_c, 1, 58, 0
4, 6336, Note_on_c, 1, 59, 74
4, 6381, Note_on_c, 1, 59, 0
4, 6384, Note_on_c, 1, 47, 74
4, 6429, Note_on_c, 1, 47, 0
4, 6480, Note_on_c, 1, 56, 74
4, 6525, Note_on_c, 1, 56, 0
4, 6528, Note_on_c, 1, 57, 74
4, 6573, Note_on_c, 1, 57, 0
4, 6576, Note_on_c, 1, 45, 74
4, 6621, Note_on_c, 1, 45, 0
4, 6672, Note_on_c, 1, 57, 74
4, 6672, Note_on_c, 1, 49, 74
4, 6717, Note_on_c, 1, 57, 0
4, 6717, Note_on_c, 1, 49, 0
4, 6720, Note_on_c, 1, 57, 74
4, 6809, Note_on_c, 1, 57, 0
4, 6816, Note_on_c, 1, 57, 74
4, 6861, Note_on_c, 1, 57, 0
4, 6864, Note_on_c, 1, 56, 74
4, 6909, Note_on_c, 1, 56, 0
4, 6912, Note_on_c, 1, 57, 74
4, 6957, Note_on_c, 1, 57, 0
4, 6960, Note_on_c, 1, 52, 74
4, 7005, Note_on_c, 1, 52, 0
4, 7008, Note_on_c, 1, 45, 74
4, 7053, Note_on_c, 1, 45, 0
4, 7104, Note_on_c, 1, 50, 74
4, 7149, Note_on_c, 1, 50, 0
4, 7152, Note_on_c, 1, 57, 74
4, 7197, Note_on_c, 1, 57, 0
4, 7200, Note_on_c, 1, 52, 74
4, 7245, Note_on_c, 1, 52, 0
4, 7248, Note_on_c, 1, 57, 74
4, 7293, Note_on_c, 1, 57, 0
4, 7296, Note_on_c, 1, 54, 74
4, 7341, Note_on_c, 1, 54, 0
4, 7344, Note_on_c, 1, 57, 74
4, 7389, Note_on_c, 1, 57, 0
4, 7440, Note_on_c, 1, 54, 74
4, 7485, Note_on_c, 1, 54, 0
4, 7488, Note_on_c, 1, 55, 74
4, 7533, Note_on_c, 1, 55, 0
4, 7536, Note_on_c, 1, 54, 74
4, 7581, Note_on_c, 1, 54, 0
4, 7584, Note_on_c, 1, 52, 74
4, 7629, Note_on_c, 1, 52, 0
4, 7632, Note_on_c, 1, 61, 74
4, 7677, Note_on_c, 1, 61, 0
4, 7680, Note_on_c, 1, 62, 74
4, 7725, Note_on_c, 1, 62, 0
4, 7728, Note_on_c, 1, 57, 74
4, 7762, Note_on_c, 1, 57, 0
4, 7764, Note_on_c, 1, 54, 74
4, 7776, Note_on_c, 1, 54, 0
4, 7776, Note_on_c, 1, 50, 74
4, 7865, Note_on_c, 1, 50, 0
4, 7872, Note_on_c, 1, 62, 74
4, 7917, Note_on_c, 1, 62, 0
4, 7920, Note_on_c, 1, 69, 74
4, 7965, Note_on_c, 1, 69, 0
4, 7968, Note_on_c, 1, 64, 74
4, 8013, Note_on_c, 1, 64, 0
4, 8016, Note_on_c, 1, 69, 74
4, 8061, Note_on_c, 1, 69, 0
4, 8064, Note_on_c, 1, 66, 74
4, 8109, Note_on_c, 1, 66, 0
4, 8112, Note_on_c, 1, 69, 74
4, 8157, Note_on_c, 1, 69, 0
4, 8208, Note_on_c, 1, 66, 74
4, 8253, Note_on_c, 1, 66, 0
4, 8256, Note_on_c, 1, 67, 74
4, 8301, Note_on_c, 1, 67, 0
4, 8304, Note_on_c, 1, 66, 74
4, 8349, Note_on_c, 1, 66, 0
4, 8352, Note_on_c, 1, 64, 74
4, 8397, Note_on_c, 1, 64, 0
4, 8400, Note_on_c, 1, 62, 74
4, 8445, Note_on_c, 1, 62, 0
4, 8448, Note_on_c, 1, 69, 74
4, 8493, Note_on_c, 1, 69, 0
4, 8496, Note_on_c, 1, 64, 74
4, 8541, Note_on_c, 1, 64, 0
4, 8544, Note_on_c, 1, 57, 74
4, 8633, Note_on_c, 1, 57, 0
4, 8664, Note_on_c, 1, 67, 74
4, 8687, Note_on_c, 1, 67, 0
4, 8688, Note_on_c, 1, 64, 74
4, 8711, Note_on_c, 1, 64, 0
4, 8712, Note_on_c, 1, 67, 74
4, 8735, Note_on_c, 1, 67, 0
4, 8760, Note_on_c, 1, 67, 74
4, 8783, Note_on_c, 1, 67, 0
4, 8784, Note_on_c, 1, 64, 74
4, 8807, Note_on_c, 1, 64, 0
4, 8808, Note_on_c, 1, 67, 74
4, 8831, Note_on_c, 1, 67, 0
4, 8832, Note_on_c, 1, 66, 74
4, 8877, Note_on_c, 1, 66, 0
4, 8880, Note_on_c, 1, 66, 74
4, 8925, Note_on_c, 1, 66, 0
4, 8928, Note_on_c, 1, 64, 74
4, 8973, Note_on_c, 1, 64, 0
4, 8976, Note_on_c, 1, 62, 74
4, 9021, Note_on_c, 1, 62, 0
4, 9048, Note_on_c, 1, 67, 74
4, 9071, Note_on_c, 1, 67, 0
4, 9072, Note_on_c, 1, 64, 74
4, 9095, Note_on_c, 1, 64, 0
4, 9096, Note_on_c, 1, 67, 74
4, 9119, Note_on_c, 1, 67, 0
4, 9144, Note_on_c, 1, 67, 74
4, 9167, Note_on_c, 1, 67, 0
4, 9168, Note_on_c, 1, 64, 74
4, 9191, Note_on_c, 1, 64, 0
4, 9192, Note_on_c, 1, 67, 74
4, 9215, Note_on_c, 1, 67, 0
4, 9216, Note_on_c, 1, 66, 74
4, 9261, Note_on_c, 1, 66, 0
4, 9264, Note_on_c, 1, 66, 74
4, 9309, Note_on_c, 1, 66, 0
4, 9312, Note_on_c, 1, 64, 74
4, 9357, Note_on_c, 1, 64, 0
4, 9360, Note_on_c, 1, 62, 74
4, 9405, Note_on_c, 1, 62, 0
4, 9432, Note_on_c, 1, 69, 78
4, 9455, Note_on_c, 1, 69, 0
4, 9456, Note_on_c, 1, 66, 78
4, 9479, Note_on_c, 1, 66, 0
4, 9480, Note_on_c, 1, 69, 78
4, 9503, Note_on_c, 1, 69, 0
4, 9528, Note_on_c, 1, 69, 78
4, 9551, Note_on_c, 1, 69, 0
4, 9552, Note_on_c, 1, 66, 78
4, 9575, Note_on_c, 1, 66, 0
4, 9576, Note_on_c, 1, 69, 78
4, 9599, Note_on_c, 1, 69, 0
4, 9600, Note_on_c, 1, 68, 78
4, 9645, Note_on_c, 1, 68, 0
4, 9648, Note_on_c, 1, 68, 78
4, 9693, Note_on_c, 1, 68, 0
4, 9696, Note_on_c, 1, 66, 78
4, 9741, Note_on_c, 1, 66, 0
4, 9744, Note_on_c, 1, 64, 78
4, 9789, Note_on_c, 1, 64, 0
4, 9816, Note_on_c, 1, 69, 78
4, 9839, Note_on_c, 1, 69, 0
4, 9840, Note_on_c, 1, 66, 78
4, 9863, Note_on_c, 1, 66, 0
4, 9864, Note_on_c, 1, 69, 78
4, 9887, Note_on_c, 1, 69, 0
4, 9912, Note_on_c, 1, 69, 78
4, 9935, Note_on_c, 1, 69, 0
4, 9936, Note_on_c, 1, 66, 78
4, 9959, Note_on_c, 1, 66, 0
4, 9960, Note_on_c, 1, 69, 78
4, 9983, Note_on_c, 1, 69, 0
4, 9984, Note_on_c, 1, 68, 78
4, 10029, Note_on_c, 1, 68, 0
4, 10032, Note_on_c, 1, 68, 78
4, 10077, Note_on_c, 1, 68, 0
4, 10080, Note_on_c, 1, 66, 78
4, 10125, Note_on_c, 1, 66, 0
4, 10128, Note_on_c, 1, 64, 78
4, 10173, Note_on_c, 1, 64, 0
4, 10224, Note_on_c, 1, 62, 69
4, 10258, Note_on_c, 1, 62, 0
4, 10260, Note_on_c, 1, 61, 69
4, 10272, Note_on_c, 1, 61, 0
4, 10272, Note_on_c, 1, 62, 69
4, 10317, Note_on_c, 1, 62, 0
4, 10320, Note_on_c, 1, 59, 69
4, 10367, Note_on_c, 1, 59, 0
4, 10416, Note_on_c, 1, 64, 69
4, 10450, Note_on_c, 1, 64, 0
4, 10452, Note_on_c, 1, 62, 69
4, 10464, Note_on_c, 1, 62, 0
4, 10464, Note_on_c, 1, 64, 69
4, 10509, Note_on_c, 1, 64, 0
4, 10512, Note_on_c, 1, 61, 69
4, 10559, Note_on_c, 1, 61, 0
4, 10608, Note_on_c, 1, 66, 69
4, 10642, Note_on_c, 1, 66, 0
4, 10644, Note_on_c, 1, 64, 69
4, 10656, Note_on_c, 1, 64, 0
4, 10656, Note_on_c, 1, 66, 69
4, 10701, Note_on_c, 1, 66, 0
4, 10704, Note_on_c, 1, 62, 69
4, 10751, Note_on_c, 1, 62, 0
4, 10800, Note_on_c, 1, 68, 69
4, 10834, Note_on_c, 1, 68, 0
4, 10836, Note_on_c, 1, 66, 69
4, 10848, Note_on_c, 1, 66, 0
4, 10848, Note_on_c, 1, 68, 69
4, 10893, Note_on_c, 1, 68, 0
4, 10896, Note_on_c, 1, 64, 69
4, 10943, Note_on_c, 1, 64, 0
4, 10944, Note_on_c, 1, 69, 74
4, 10989, Note_on_c, 1, 69, 0
4, 10992, Note_on_c, 1, 68, 74
4, 11037, Note_on_c, 1, 68, 0
4, 11040, Note_on_c, 1, 66, 74
4, 11085, Note_on_c, 1, 66, 0
4, 11088, Note_on_c, 1, 64, 74
4, 11133, Note_on_c, 1, 64, 0
4, 11136, Note_on_c, 1, 62, 74
4, 11181, Note_on_c, 1, 62, 0
4, 11184, Note_on_c, 1, 61, 74
4, 11229, Note_on_c, 1, 61, 0
4, 11232, Note_on_c, 1, 59, 74
4, 11277, Note_on_c, 1, 59, 0
4, 11280, Note_on_c, 1, 57, 74
4, 11325, Note_on_c, 1, 57, 0
4, 11328, Note_on_c, 1, 62, 74
4, 11373, Note_on_c, 1, 62, 0
4, 11376, Note_on_c, 1, 61, 74
4, 11421, Note_on_c, 1, 61, 0
4, 11424, Note_on_c, 1, 59, 74
4, 11469, Note_on_c, 1, 59, 0
4, 11472, Note_on_c, 1, 57, 74
4, 11517, Note_on_c, 1, 57, 0
4, 11520, Note_on_c, 1, 64, 74
4, 11565, Note_on_c, 1, 64, 0
4, 11568, Note_on_c, 1, 52, 74
4, 11613, Note_on_c, 1, 52, 0
4, 11664, Note_on_c, 1, 61, 74
4, 11664, Note_on_c, 1, 58, 74
4, 11711, Note_on_c, 1, 61, 0
4, 11711, Note_on_c, 1, 58, 0
4, 11712, Note_on_c, 1, 59, 74
4, 11757, Note_on_c, 1, 59, 0
4, 11760, Note_on_c, 1, 47, 74
4, 11805, Note_on_c, 1, 47, 0
4, 11856, Note_on_c, 1, 59, 74
4, 11856, Note_on_c, 1, 56, 74
4, 11903, Note_on_c, 1, 59, 0
4, 11903, Note_on_c, 1, 56, 0
4, 11904, Note_on_c, 1, 57, 74
4, 11949, Note_on_c, 1, 57, 0
4, 11952, Note_on_c, 1, 45, 74
4, 11997, Note_on_c, 1, 45, 0
4, 12048, Note_on_c, 1, 57, 74
4, 12093, Note_on_c, 1, 57, 0
4, 12096, Note_on_c, 1, 57, 74
4, 12141, Note_on_c, 1, 57, 0
4, 12144, Note_on_c, 1, 62, 74
4, 12189, Note_on_c, 1, 62, 0
4, 12192, Note_on_c, 1, 61, 74
4, 12237, Note_on_c, 1, 61, 0
4, 12240, Note_on_c, 1, 59, 74
4, 12285, Note_on_c, 1, 59, 0
4, 12288, Note_on_c, 1, 57, 74
4, 12377, Note_on_c, 1, 57, 0
4, 12384, Note_on_c, 1, 69, 63
4, 12503, Note_on_c, 1, 69, 0
4, 12504, Note_on_c, 1, 66, 63
4, 12527, Note_on_c, 1, 66, 0
4, 12528, Note_on_c, 1, 71, 63
4, 12551, Note_on_c, 1, 71, 0
4, 12552, Note_on_c, 1, 69, 63
4, 12575, Note_on_c, 1, 69, 0
4, 12576, Note_on_c, 1, 68, 63
4, 12695, Note_on_c, 1, 68, 0
4, 12696, Note_on_c, 1, 64, 63
4, 12719, Note_on_c, 1, 64, 0
4, 12720, Note_on_c, 1, 69, 63
4, 12743, Note_on_c, 1, 69, 0
4, 12744, Note_on_c, 1, 67, 63
4, 12767, Note_on_c, 1, 67, 0
4, 12768, Note_on_c, 1, 65, 63
4, 12857, Note_on_c, 1, 65, 0
4, 12888, Note_on_c, 1, 52, 69
4, 12911, Note_on_c, 1, 52, 0
4, 12912, Note_on_c, 1, 64, 69
4, 12935, Note_on_c, 1, 64, 0
4, 12936, Note_on_c, 1, 62, 69
4, 12959, Note_on_c, 1, 62, 0
4, 12960, Note_on_c, 1, 60, 69
4, 13005, Note_on_c, 1, 60, 0
4, 13008, Note_on_c, 1, 53, 69
4, 13008, Note_on_c, 1, 41, 69
4, 13053, Note_on_c, 1, 53, 0
4, 13053, Note_on_c, 1, 41, 0
4, 13056, Note_on_c, 1, 52, 69
4, 13101, Note_on_c, 1, 52, 0
4, 13104, Note_on_c, 1, 40, 69
4, 13149, Note_on_c, 1, 40, 0
4, 13200, Note_on_c, 1, 58, 74
4, 13245, Note_on_c, 1, 58, 0
4, 13248, Note_on_c, 1, 59, 74
4, 13293, Note_on_c, 1, 59, 0
4, 13296, Note_on_c, 1, 47, 74
4, 13341, Note_on_c, 1, 47, 0
4, 13392, Note_on_c, 1, 56, 74
4, 13437, Note_on_c, 1, 56, 0
4, 13440, Note_on_c, 1, 57, 74
4, 13485, Note_on_c, 1, 57, 0
4, 13488, Note_on_c, 1, 45, 74
4, 13533, Note_on_c, 1, 45, 0
4, 13584, Note_on_c, 1, 57, 74
4, 13584, Note_on_c, 1, 49, 74
4, 13629, Note_on_c, 1, 57, 0
4, 13629, Note_on_c, 1, 49, 0
4, 13632, Note_on_c, 1, 57, 74
4, 13721, Note_on_c, 1, 57, 0
4, 13728, Note_on_c, 1, 57, 74
4, 13773, Note_on_c, 1, 57, 0
4, 13776, Note_on_c, 1, 56, 74
4, 13821, Note_on_c, 1, 56, 0
4, 13824, Note_on_c, 1, 57, 74
4, 13869, Note_on_c, 1, 57, 0
4, 13872, Note_on_c, 1, 52, 74
4, 13917, Note_on_c, 1, 52, 0
4, 13920, Note_on_c, 1, 45, 74
4, 13965, Note_on_c, 1, 45, 0
4, 14016, Note_on_c, 1, 57, 74
4, 14061, Note_on_c, 1, 57, 0
4, 14064, Note_on_c, 1, 64, 74
4, 14109, Note_on_c, 1, 64, 0
4, 14112, Note_on_c, 1, 59, 74
4, 14157, Note_on_c, 1, 59, 0
4, 14160, Note_on_c, 1, 64, 74
4, 14205, Note_on_c, 1, 64, 0
4, 14208, Note_on_c, 1, 61, 74
4, 14253, Note_on_c, 1, 61, 0
4, 14256, Note_on_c, 1, 64, 74
4, 14301, Note_on_c, 1, 64, 0
4, 14352, Note_on_c, 1, 61, 74
4, 14397, Note_on_c, 1, 61, 0
4, 14400, Note_on_c, 1, 62, 74
4, 14445, Note_on_c, 1, 62, 0
4, 14448, Note_on_c, 1, 61, 74
4, 14493, Note_on_c, 1, 61, 0
4, 14496, Note_on_c, 1, 59, 74
4, 14541, Note_on_c, 1, 59, 0
4, 14544, Note_on_c, 1, 68, 74
4, 14589, Note_on_c, 1, 68, 0
4, 14592, Note_on_c, 1, 69, 74
4, 14637, Note_on_c, 1, 69, 0
4, 14640, Note_on_c, 1, 64, 74
4, 14674, Note_on_c, 1, 64, 0
4, 14676, Note_on_c, 1, 61, 74
4, 14688, Note_on_c, 1, 61, 0
4, 14688, Note_on_c, 1, 57, 74
4, 14777, Note_on_c, 1, 57, 0
4, 14784, Note_on_c, 1, 57, 74
4, 14829, Note_on_c, 1, 57, 0
4, 14832, Note_on_c, 1, 64, 74
4, 14877, Note_on_c, 1, 64, 0
4, 14880, Note_on_c, 1, 59, 74
4, 14925, Note_on_c, 1, 59, 0
4, 14928, Note_on_c, 1, 64, 74
4, 14973, Note_on_c, 1, 64, 0
4, 14976, Note_on_c, 1, 61, 74
4, 15021, Note_on_c, 1, 61, 0
4, 15024, Note_on_c, 1, 64, 74
4, 15069, Note_on_c, 1, 64, 0
4, 15120, Note_on_c, 1, 61, 74
4, 15165, Note_on_c, 1, 61, 0
4, 15168, Note_on_c, 1, 62, 74
4, 15213, Note_on_c, 1, 62, 0
4, 15216, Note_on_c, 1, 61, 74
4, 15261, Note_on_c, 1, 61, 0
4, 15264, Note_on_c, 1, 59, 74
4, 15309, Note_on_c, 1, 59, 0
4, 15312, Note_on_c, 1, 57, 74
4, 15357, Note_on_c, 1, 57, 0
4, 15360, Note_on_c, 1, 64, 74
4, 15405, Note_on_c, 1, 64, 0
4, 15408, Note_on_c, 1, 59, 74
4, 15442, Note_on_c, 1, 59, 0
4, 15444, Note_on_c, 1, 56, 74
4, 15456, Note_on_c, 1, 56, 0
4, 15456, Note_on_c, 1, 52, 74
4, 15545, Note_on_c, 1, 52, 0
4, 15600, Note_on_c, 1, 64, 69
4, 15634, Note_on_c, 1, 64, 0
4, 15636, Note_on_c, 1, 66, 69
4, 15648, Note_on_c, 1, 66, 0
4, 15648, Note_on_c, 1, 67, 69
4, 15693, Note_on_c, 1, 67, 0
4, 15792, Note_on_c, 1, 64, 69
4, 15826, Note_on_c, 1, 64, 0
4, 15828, Note_on_c, 1, 66, 69
4, 15840, Note_on_c, 1, 66, 0
4, 15840, Note_on_c, 1, 67, 69
4, 15885, Note_on_c, 1, 67, 0
4, 15984, Note_on_c, 1, 64, 69
4, 16018, Note_on_c, 1, 64, 0
4, 16020, Note_on_c, 1, 66, 69
4, 16032, Note_on_c, 1, 66, 0
4, 16032, Note_on_c, 1, 67, 69
4, 16077, Note_on_c, 1, 67, 0
4, 16176, Note_on_c, 1, 64, 69
4, 16210, Note_on_c, 1, 64, 0
4, 16212, Note_on_c, 1, 66, 69
4, 16224, Note_on_c, 1, 66, 0
4, 16224, Note_on_c, 1, 67, 69
4, 16269, Note_on_c, 1, 67, 0
4, 16368, Note_on_c, 1, 71, 77
4, 16413, Note_on_c, 1, 71, 0
4, 16416, Note_on_c, 1, 66, 76
4, 16461, Note_on_c, 1, 66, 0
4, 16464, Note_on_c, 1, 71, 75
4, 16509, Note_on_c, 1, 71, 0
4, 16560, Note_on_c, 1, 71, 74
4, 16605, Note_on_c, 1, 71, 0
4, 16608, Note_on_c, 1, 67, 73
4, 16653, Note_on_c, 1, 67, 0
4, 16656, Note_on_c, 1, 71, 73
4, 16701, Note_on_c, 1, 71, 0
4, 16752, Note_on_c, 1, 69, 71
4, 16797, Note_on_c, 1, 69, 0
4, 16800, Note_on_c, 1, 64, 70
4, 16845, Note_on_c, 1, 64, 0
4, 16848, Note_on_c, 1, 69, 70
4, 16893, Note_on_c, 1, 69, 0
4, 16944, Note_on_c, 1, 69, 68
4, 16989, Note_on_c, 1, 69, 0
4, 16992, Note_on_c, 1, 66, 68
4, 17037, Note_on_c, 1, 66, 0
4, 17040, Note_on_c, 1, 69, 67
4, 17085, Note_on_c, 1, 69, 0
4, 17136, Note_on_c, 1, 67, 65
4, 17181, Note_on_c, 1, 67, 0
4, 17184, Note_on_c, 1, 62, 65
4, 17229, Note_on_c, 1, 62, 0
4, 17232, Note_on_c, 1, 67, 64
4, 17277, Note_on_c, 1, 67, 0
4, 17328, Note_on_c, 1, 67, 63
4, 17373, Note_on_c, 1, 67, 0
4, 17376, Note_on_c, 1, 64, 63
4, 17421, Note_on_c, 1, 64, 0
4, 17424, Note_on_c, 1, 67, 64
4, 17469, Note_on_c, 1, 67, 0
4, 17520, Note_on_c, 1, 66, 66
4, 17565, Note_on_c, 1, 66, 0
4, 17568, Note_on_c, 1, 61, 66
4, 17613, Note_on_c, 1, 61, 0
4, 17616, Note_on_c, 1, 66, 67
4, 17661, Note_on_c, 1, 66, 0
4, 17712, Note_on_c, 1, 66, 69
4, 17801, Note_on_c, 1, 66, 0
4, 17808, Note_on_c, 1, 66, 70
4, 17901, Note_on_c, 1, 66, 0
4, 17904, Note_on_c, 1, 66, 72
4, 17993, Note_on_c, 1, 66, 0
4, 18000, Note_on_c, 1, 66, 74
4, 18093, Note_on_c, 1, 66, 0
4, 18096, Note_on_c, 1, 66, 75
4, 18185, Note_on_c, 1, 66, 0
4, 18192, Note_on_c, 1, 66, 77
4, 18329, Note_on_c, 1, 66, 0
4, 18384, Note_on_c, 1, 59, 78
4, 18384, Note_on_c, 1, 50, 78
4, 18429, Note_on_c, 1, 59, 0
4, 18429, Note_on_c, 1, 50, 0
4, 18432, Note_on_c, 1, 59, 78
4, 18521, Note_on_c, 1, 59, 0
4, 18528, Note_on_c, 1, 59, 78
4, 18573, Note_on_c, 1, 59, 0
4, 18576, Note_on_c, 1, 58, 78
4, 18621, Note_on_c, 1, 58, 0
4, 18624, Note_on_c, 1, 59, 78
4, 18669, Note_on_c, 1, 59, 0
4, 18672, Note_on_c, 1, 47, 78
4, 18717, Note_on_c, 1, 47, 0
4, 18768, Note_on_c, 1, 59, 74
4, 18813, Note_on_c, 1, 59, 0
4, 18816, Note_on_c, 1, 61, 74
4, 18861, Note_on_c, 1, 61, 0
4, 18864, Note_on_c, 1, 49, 74
4, 18909, Note_on_c, 1, 49, 0
4, 18960, Note_on_c, 1, 58, 74
4, 19005, Note_on_c, 1, 58, 0
4, 19008, Note_on_c, 1, 59, 74
4, 19053, Note_on_c, 1, 59, 0
4, 19056, Note_on_c, 1, 47, 74
4, 19101, Note_on_c, 1, 47, 0
4, 19152, Note_on_c, 1, 59, 74
4, 19152, Note_on_c, 1, 50, 74
4, 19197, Note_on_c, 1, 59, 0
4, 19197, Note_on_c, 1, 50, 0
4, 19200, Note_on_c, 1, 59, 74
4, 19289, Note_on_c, 1, 59, 0
4, 19296, Note_on_c, 1, 59, 74
4, 19341, Note_on_c, 1, 59, 0
4, 19344, Note_on_c, 1, 58, 74
4, 19389, Note_on_c, 1, 58, 0
4, 19392, Note_on_c, 1, 59, 74
4, 19437, Note_on_c, 1, 59, 0
4, 19440, Note_on_c, 1, 71, 63
4, 19485, Note_on_c, 1, 71, 0
4, 19488, Note_on_c, 1, 73, 63
4, 19533, Note_on_c, 1, 73, 0
4, 19536, Note_on_c, 1, 66, 63
4, 19581, Note_on_c, 1, 66, 0
4, 19584, Note_on_c, 1, 71, 63
4, 19629, Note_on_c, 1, 71, 0
4, 19632, Note_on_c, 1, 62, 63
4, 19677, Note_on_c, 1, 62, 0
4, 19680, Note_on_c, 1, 64, 63
4, 19725, Note_on_c, 1, 64, 0
4, 19728, Note_on_c, 1, 66, 64
4, 19773, Note_on_c, 1, 66, 0
4, 19776, Note_on_c, 1, 67, 65
4, 19821, Note_on_c, 1, 67, 0
4, 19824, Note_on_c, 1, 64, 66
4, 19869, Note_on_c, 1, 64, 0
4, 19872, Note_on_c, 1, 66, 66
4, 19917, Note_on_c, 1, 66, 0
4, 19920, Note_on_c, 1, 59, 67
4, 19965, Note_on_c, 1, 59, 0
4, 19968, Note_on_c, 1, 64, 68
4, 20013, Note_on_c, 1, 64, 0
4, 20016, Note_on_c, 1, 67, 69
4, 20061, Note_on_c, 1, 67, 0
4, 20064, Note_on_c, 1, 69, 70
4, 20109, Note_on_c, 1, 69, 0
4, 20112, Note_on_c, 1, 71, 70
4, 20157, Note_on_c, 1, 71, 0
4, 20160, Note_on_c, 1, 72, 71
4, 20205, Note_on_c, 1, 72, 0
4, 20208, Note_on_c, 1, 64, 72
4, 20253, Note_on_c, 1, 64, 0
4, 20256, Note_on_c, 1, 66, 73
4, 20301, Note_on_c, 1, 66, 0
4, 20304, Note_on_c, 1, 68, 74
4, 20349, Note_on_c, 1, 68, 0
4, 20352, Note_on_c, 1, 69, 74
4, 20397, Note_on_c, 1, 69, 0
4, 20400, Note_on_c, 1, 62, 75
4, 20445, Note_on_c, 1, 62, 0
4, 20448, Note_on_c, 1, 64, 76
4, 20493, Note_on_c, 1, 64, 0
4, 20496, Note_on_c, 1, 66, 77
4, 20541, Note_on_c, 1, 66, 0
4, 20544, Note_on_c, 1, 67, 78
4, 20589, Note_on_c, 1, 67, 0
4, 20592, Note_on_c, 1, 66, 78
4, 20637, Note_on_c, 1, 66, 0
4, 20640, Note_on_c, 1, 64, 78
4, 20685, Note_on_c, 1, 64, 0
4, 20688, Note_on_c, 1, 62, 78
4, 20733, Note_on_c, 1, 62, 0
4, 20736, Note_on_c, 1, 67, 78
4, 20781, Note_on_c, 1, 67, 0
4, 20784, Note_on_c, 1, 66, 78
4, 20829, Note_on_c, 1, 66, 0
4, 20832, Note_on_c, 1, 64, 78
4, 20877, Note_on_c, 1, 64, 0
4, 20880, Note_on_c, 1, 62, 78
4, 20925, Note_on_c, 1, 62, 0
4, 20928, Note_on_c, 1, 67, 78
4, 20973, Note_on_c, 1, 67, 0
4, 20976, Note_on_c, 1, 66, 78
4, 21021, Note_on_c, 1, 66, 0
4, 21024, Note_on_c, 1, 64, 78
4, 21069, Note_on_c, 1, 64, 0
4, 21072, Note_on_c, 1, 62, 75
4, 21117, Note_on_c, 1, 62, 0
4, 21120, Note_on_c, 1, 69, 73
4, 21165, Note_on_c, 1, 69, 0
4, 21168, Note_on_c, 1, 64, 70
4, 21202, Note_on_c, 1, 64, 0
4, 21204, Note_on_c, 1, 61, 69
4, 21216, Note_on_c, 1, 61, 0
4, 21216, Note_on_c, 1, 57, 69
4, 21305, Note_on_c, 1, 57, 0
4, 21312, Note_on_c, 1, 50, 74
4, 21357, Note_on_c, 1, 50, 0
4, 21360, Note_on_c, 1, 57, 74
4, 21405, Note_on_c, 1, 57, 0
4, 21408, Note_on_c, 1, 52, 74
4, 21453, Note_on_c, 1, 52, 0
4, 21456, Note_on_c, 1, 57, 74
4, 21501, Note_on_c, 1, 57, 0
4, 21504, Note_on_c, 1, 54, 74
4, 21549, Note_on_c, 1, 54, 0
4, 21552, Note_on_c, 1, 57, 74
4, 21597, Note_on_c, 1, 57, 0
4, 21648, Note_on_c, 1, 54, 74
4, 21693, Note_on_c, 1, 54, 0
4, 21696, Note_on_c, 1, 55, 74
4, 21741, Note_on_c, 1, 55, 0
4, 21744, Note_on_c, 1, 54, 74
4, 21789, Note_on_c, 1, 54, 0
4, 21792, Note_on_c, 1, 52, 74
4, 21837, Note_on_c, 1, 52, 0
4, 21840, Note_on_c, 1, 61, 74
4, 21885, Note_on_c, 1, 61, 0
4, 21888, Note_on_c, 1, 62, 74
4, 21933, Note_on_c, 1, 62, 0
4, 21936, Note_on_c, 1, 57, 74
4, 21970, Note_on_c, 1, 57, 0
4, 21972, Note_on_c, 1, 54, 74
4, 21984, Note_on_c, 1, 54, 0
4, 21984, Note_on_c, 1, 50, 74
4, 22073, Note_on_c, 1, 50, 0
4, 22080, Note_on_c, 1, 62, 74
4, 22125, Note_on_c, 1, 62, 0
4, 22128, Note_on_c, 1, 69, 74
4, 22173, Note_on_c, 1, 69, 0
4, 22176, Note_on_c, 1, 64, 74
4, 22221, Note_on_c, 1, 64, 0
4, 22224, Note_on_c, 1, 69, 74
4, 22269, Note_on_c, 1, 69, 0
4, 22272, Note_on_c, 1, 66, 74
4, 22317, Note_on_c, 1, 66, 0
4, 22320, Note_on_c, 1, 69, 74
4, 22365, Note_on_c, 1, 69, 0
4, 22416, Note_on_c, 1, 66, 74
4, 22461, Note_on_c, 1, 66, 0
4, 22464, Note_on_c, 1, 67, 74
4, 22509, Note_on_c, 1, 67, 0
4, 22512, Note_on_c, 1, 66, 74
4, 22557, Note_on_c, 1, 66, 0
4, 22560, Note_on_c, 1, 64, 74
4, 22605, Note_on_c, 1, 64, 0
4, 22608, Note_on_c, 1, 62, 74
4, 22653, Note_on_c, 1, 62, 0
4, 22656, Note_on_c, 1, 69, 74
4, 22701, Note_on_c, 1, 69, 0
4, 22704, Note_on_c, 1, 64, 74
4, 22749, Note_on_c, 1, 64, 0
4, 22752, Note_on_c, 1, 57, 74
4, 22841, Note_on_c, 1, 57, 0
4, 22872, Note_on_c, 1, 67, 74
4, 22895, Note_on_c, 1, 67, 0
4, 22896, Note_on_c, 1, 64, 74
4, 22919, Note_on_c, 1, 64, 0
4, 22920, Note_on_c, 1, 67, 74
4, 22943, Note_on_c, 1, 67, 0
4, 22968, Note_on_c, 1, 67, 74
4, 22991, Note_on_c, 1, 67, 0
4, 22992, Note_on_c, 1, 64, 74
4, 23015, Note_on_c, 1, 64, 0
4, 23016, Note_on_c, 1, 67, 74
4, 23039, Note_on_c, 1, 67, 0
4, 23040, Note_on_c, 1, 66, 74
4, 23085, Note_on_c, 1, 66, 0
4, 23088, Note_on_c, 1, 66, 74
4, 23133, Note_on_c, 1, 66, 0
4, 23136, Note_on_c, 1, 64, 74
4, 23181, Note_on_c, 1, 64, 0
4, 23184, Note_on_c, 1, 62, 74
4, 23229, Note_on_c, 1, 62, 0
4, 23256, Note_on_c, 1, 67, 74
4, 23279, Note_on_c, 1, 67, 0
4, 23280, Note_on_c, 1, 64, 74
4, 23303, Note_on_c, 1, 64, 0
4, 23304, Note_on_c, 1, 67, 74
4, 23327, Note_on_c, 1, 67, 0
4, 23352, Note_on_c, 1, 67, 74
4, 23375, Note_on_c, 1, 67, 0
4, 23376, Note_on_c, 1, 64, 74
4, 23399, Note_on_c, 1, 64, 0
4, 23400, Note_on_c, 1, 67, 74
4, 23423, Note_on_c, 1, 67, 0
4, 23424, Note_on_c, 1, 66, 74
4, 23469, Note_on_c, 1, 66, 0
4, 23472, Note_on_c, 1, 66, 74
4, 23517, Note_on_c, 1, 66, 0
4, 23520, Note_on_c, 1, 64, 74
4, 23565, Note_on_c, 1, 64, 0
4, 23568, Note_on_c, 1, 62, 74
4, 23613, Note_on_c, 1, 62, 0
4, 23664, Note_on_c, 1, 67, 69
4, 23698, Note_on_c, 1, 67, 0
4, 23700, Note_on_c, 1, 66, 69
4, 23712, Note_on_c, 1, 66, 0
4, 23712, Note_on_c, 1, 67, 69
4, 23757, Note_on_c, 1, 67, 0
4, 23760, Note_on_c, 1, 64, 69
4, 23807, Note_on_c, 1, 64, 0
4, 23856, Note_on_c, 1, 69, 69
4, 23890, Note_on_c, 1, 69, 0
4, 23892, Note_on_c, 1, 67, 69
4, 23904, Note_on_c, 1, 67, 0
4, 23904, Note_on_c, 1, 69, 69
4, 23949, Note_on_c, 1, 69, 0
4, 23952, Note_on_c, 1, 66, 69
4, 23999, Note_on_c, 1, 66, 0
4, 24048, Note_on_c, 1, 71, 69
4, 24082, Note_on_c, 1, 71, 0
4, 24084, Note_on_c, 1, 69, 69
4, 24096, Note_on_c, 1, 69, 0
4, 24096, Note_on_c, 1, 71, 69
4, 24141, Note_on_c, 1, 71, 0
4, 24144, Note_on_c, 1, 67, 69
4, 24191, Note_on_c, 1, 67, 0
4, 24240, Note_on_c, 1, 73, 69
4, 24274, Note_on_c, 1, 73, 0
4, 24276, Note_on_c, 1, 71, 69
4, 24288, Note_on_c, 1, 71, 0
4, 24288, Note_on_c, 1, 73, 69
4, 24333, Note_on_c, 1, 73, 0
4, 24336, Note_on_c, 1, 69, 69
4, 24383, Note_on_c, 1, 69, 0
4, 24384, Note_on_c, 1, 74, 74
4, 24429, Note_on_c, 1, 74, 0
4, 24432, Note_on_c, 1, 73, 74
4, 24477, Note_on_c, 1, 73, 0
4, 24480, Note_on_c, 1, 71, 74
4, 24525, Note_on_c, 1, 71, 0
4, 24528, Note_on_c, 1, 69, 74
4, 24573, Note_on_c, 1, 69, 0
4, 24576, Note_on_c, 1, 67, 74
4, 24621, Note_on_c, 1, 67, 0
4, 24624, Note_on_c, 1, 66, 74
4, 24669, Note_on_c, 1, 66, 0
4, 24672, Note_on_c, 1, 64, 74
4, 24717, Note_on_c, 1, 64, 0
4, 24720, Note_on_c, 1, 62, 74
4, 24765, Note_on_c, 1, 62, 0
4, 24768, Note_on_c, 1, 67, 74
4, 24813, Note_on_c, 1, 67, 0
4, 24816, Note_on_c, 1, 66, 74
4, 24861, Note_on_c, 1, 66, 0
4, 24864, Note_on_c, 1, 64, 74
4, 24909, Note_on_c, 1, 64, 0
4, 24912, Note_on_c, 1, 62, 74
4, 24957, Note_on_c, 1, 62, 0
4, 24960, Note_on_c, 1, 69, 74
4, 25005, Note_on_c, 1, 69, 0
4, 25008, Note_on_c, 1, 57, 74
4, 25053, Note_on_c, 1, 57, 0
4, 25104, Note_on_c, 1, 66, 74
4, 25104, Note_on_c, 1, 63, 74
4, 25151, Note_on_c, 1, 66, 0
4, 25151, Note_on_c, 1, 63, 0
4, 25152, Note_on_c, 1, 64, 74
4, 25197, Note_on_c, 1, 64, 0
4, 25200, Note_on_c, 1, 52, 74
4, 25245, Note_on_c, 1, 52, 0
4, 25296, Note_on_c, 1, 64, 74
4, 25296, Note_on_c, 1, 61, 74
4, 25343, Note_on_c, 1, 64, 0
4, 25343, Note_on_c, 1, 61, 0
4, 25344, Note_on_c, 1, 62, 74
4, 25389, Note_on_c, 1, 62, 0
4, 25392, Note_on_c, 1, 50, 74
4, 25437, Note_on_c, 1, 50, 0
4, 25488, Note_on_c, 1, 62, 74
4, 25488, Note_on_c, 1, 54, 74
4, 25536, Note_on_c, 1, 54, 0
4, 25581, Note_on_c, 1, 62, 0
4, 25584, Note_on_c, 1, 67, 74
4, 25629, Note_on_c, 1, 67, 0
4, 25632, Note_on_c, 1, 66, 74
4, 25677, Note_on_c, 1, 66, 0
4, 25680, Note_on_c, 1, 64, 74
4, 25725, Note_on_c, 1, 64, 0
4, 25728, Note_on_c, 1, 62, 74
4, 25773, Note_on_c, 1, 62, 0
4, 25824, Note_on_c, 1, 62, 74
4, 25913, Note_on_c, 1, 62, 0
4, 25920, Note_on_c, 1, 62, 74
4, 25943, Note_on_c, 1, 62, 0
4, 25944, Note_on_c, 1, 59, 74
4, 25967, Note_on_c, 1, 59, 0
4, 25968, Note_on_c, 1, 64, 74
4, 25991, Note_on_c, 1, 64, 0
4, 25992, Note_on_c, 1, 62, 74
4, 26015, Note_on_c, 1, 62, 0
4, 26016, Note_on_c, 1, 61, 74
4, 26135, Note_on_c, 1, 61, 0
4, 26136, Note_on_c, 1, 57, 74
4, 26159, Note_on_c, 1, 57, 0
4, 26160, Note_on_c, 1, 62, 74
4, 26183, Note_on_c, 1, 62, 0
4, 26184, Note_on_c, 1, 60, 74
4, 26207, Note_on_c, 1, 60, 0
4, 26208, Note_on_c, 1, 58, 74
4, 26297, Note_on_c, 1, 58, 0
4, 26328, Note_on_c, 1, 45, 74
4, 26351, Note_on_c, 1, 45, 0
4, 26352, Note_on_c, 1, 57, 74
4, 26375, Note_on_c, 1, 57, 0
4, 26376, Note_on_c, 1, 55, 74
4, 26399, Note_on_c, 1, 55, 0
4, 26400, Note_on_c, 1, 53, 69
4, 26445, Note_on_c, 1, 53, 0
4, 26448, Note_on_c, 1, 58, 69
4, 26448, Note_on_c, 1, 46, 69
4, 26493, Note_on_c, 1, 58, 0
4, 26493, Note_on_c, 1, 46, 0
4, 26496, Note_on_c, 1, 57, 69
4, 26496, Note_on_c, 1, 45, 69
4, 26585, Note_on_c, 1, 57, 0
4, 26585, Note_on_c, 1, 45, 0
4, 26640, Note_on_c, 1, 63, 69
4, 26685, Note_on_c, 1, 63, 0
4, 26688, Note_on_c, 1, 64, 69
4, 26733, Note_on_c, 1, 64, 0
4, 26736, Note_on_c, 1, 52, 69
4, 26781, Note_on_c, 1, 52, 0
4, 26832, Note_on_c, 1, 61, 69
4, 26877, Note_on_c, 1, 61, 0
4, 26880, Note_on_c, 1, 62, 69
4, 26925, Note_on_c, 1, 62, 0
4, 26928, Note_on_c, 1, 50, 69
4, 26973, Note_on_c, 1, 50, 0
4, 27024, Note_on_c, 1, 62, 69
4, 27024, Note_on_c, 1, 54, 69
4, 27069, Note_on_c, 1, 62, 0
4, 27069, Note_on_c, 1, 54, 0
4, 27072, Note_on_c, 1, 62, 69
4, 27161, Note_on_c, 1, 62, 0
4, 27168, Note_on_c, 1, 62, 69
4, 27213, Note_on_c, 1, 62, 0
4, 27216, Note_on_c, 1, 61, 69
4, 27261, Note_on_c, 1, 61, 0
4, 27264, Note_on_c, 1, 62, 69
4, 27309, Note_on_c, 1, 62, 0
4, 27312, Note_on_c, 1, 50, 69
4, 27357, Note_on_c, 1, 50, 0
4, 27408, Note_on_c, 1, 51, 69
4, 27453, Note_on_c, 1, 51, 0
4, 27456, Note_on_c, 1, 52, 69
4, 27501, Note_on_c, 1, 52, 0
4, 27504, Note_on_c, 1, 40, 69
4, 27549, Note_on_c, 1, 40, 0
4, 27600, Note_on_c, 1, 49, 69
4, 27645, Note_on_c, 1, 49, 0
4, 27648, Note_on_c, 1, 50, 69
4, 27693, Note_on_c, 1, 50, 0
4, 27696, Note_on_c, 1, 38, 69
4, 27741, Note_on_c, 1, 38, 0
4, 27792, Note_on_c, 1, 50, 69
4, 27792, Note_on_c, 1, 42, 69
4, 27837, Note_on_c, 1, 50, 0
4, 27837, Note_on_c, 1, 42, 0
4, 27840, Note_on_c, 1, 50, 69
4, 27929, Note_on_c, 1, 50, 0
4, 27936, Note_on_c, 1, 50, 69
4, 27981, Note_on_c, 1, 50, 0
4, 27984, Note_on_c, 1, 49, 69
4, 28029, Note_on_c, 1, 49, 0
4, 28032, Note_on_c, 1, 50, 69
4, 28121, Note_on_c, 1, 50, 0
4, 28224, Note_on_c, 1, 57, 74
4, 28269, Note_on_c, 1, 57, 0
4, 28272, Note_on_c, 1, 64, 74
4, 28317, Note_on_c, 1, 64, 0
4, 28320, Note_on_c, 1, 59, 74
4, 28365, Note_on_c, 1, 59, 0
4, 28368, Note_on_c, 1, 64, 74
4, 28413, Note_on_c, 1, 64, 0
4, 28416, Note_on_c, 1, 61, 74
4, 28461, Note_on_c, 1, 61, 0
4, 28464, Note_on_c, 1, 64, 74
4, 28509, Note_on_c, 1, 64, 0
4, 28560, Note_on_c, 1, 61, 74
4, 28605, Note_on_c, 1, 61, 0
4, 28608, Note_on_c, 1, 62, 74
4, 28653, Note_on_c, 1, 62, 0
4, 28656, Note_on_c, 1, 61, 74
4, 28701, Note_on_c, 1, 61, 0
4, 28704, Note_on_c, 1, 59, 74
4, 28749, Note_on_c, 1, 59, 0
4, 28752, Note_on_c, 1, 68, 74
4, 28797, Note_on_c, 1, 68, 0
4, 28800, Note_on_c, 1, 69, 74
4, 28845, Note_on_c, 1, 69, 0
4, 28848, Note_on_c, 1, 64, 74
4, 28882, Note_on_c, 1, 64, 0
4, 28884, Note_on_c, 1, 61, 74
4, 28896, Note_on_c, 1, 61, 0
4, 28896, Note_on_c, 1, 57, 74
4, 28985, Note_on_c, 1, 57, 0
4, 28992, Note_on_c, 1, 57, 74
4, 29037, Note_on_c, 1, 57, 0
4, 29040, Note_on_c, 1, 64, 74
4, 29085, Note_on_c, 1, 64, 0
4, 29088, Note_on_c, 1, 59, 74
4, 29133, Note_on_c, 1, 59, 0
4, 29136, Note_on_c, 1, 64, 74
4, 29181, Note_on_c, 1, 64, 0
4, 29184, Note_on_c, 1, 61, 74
4, 29229, Note_on_c, 1, 61, 0
4, 29232, Note_on_c, 1, 64, 74
4, 29277, Note_on_c, 1, 64, 0
4, 29328, Note_on_c, 1, 61, 74
4, 29373, Note_on_c, 1, 61, 0
4, 29376, Note_on_c, 1, 62, 74
4, 29421, Note_on_c, 1, 62, 0
4, 29424, Note_on_c, 1, 61, 74
4, 29469, Note_on_c, 1, 61, 0
4, 29472, Note_on_c, 1, 59, 74
4, 29517, Note_on_c, 1, 59, 0
4, 29520, Note_on_c, 1, 57, 74
4, 29565, Note_on_c, 1, 57, 0
4, 29568, Note_on_c, 1, 64, 74
4, 29613, Note_on_c, 1, 64, 0
4, 29616, Note_on_c, 1, 59, 74
4, 29650, Note_on_c, 1, 59, 0
4, 29652, Note_on_c, 1, 56, 74
4, 29664, Note_on_c, 1, 56, 0
4, 29664, Note_on_c, 1, 52, 74
4, 29753, Note_on_c, 1, 52, 0
4, 29808, Note_on_c, 1, 64, 69
4, 29842, Note_on_c, 1, 64, 0
4, 29844, Note_on_c, 1, 66, 69
4, 29856, Note_on_c, 1, 66, 0
4, 29856, Note_on_c, 1, 67, 69
4, 29901, Note_on_c, 1, 67, 0
4, 30000, Note_on_c, 1, 64, 69
4, 30034, Note_on_c, 1, 64, 0
4, 30036, Note_on_c, 1, 66, 69
4, 30048, Note_on_c, 1, 66, 0
4, 30048, Note_on_c, 1, 67, 69
4, 30093, Note_on_c, 1, 67, 0
4, 30192, Note_on_c, 1, 64, 69
4, 30226, Note_on_c, 1, 64, 0
4, 30228, Note_on_c, 1, 66, 69
4, 30240, Note_on_c, 1, 66, 0
4, 30240, Note_on_c, 1, 67, 69
4, 30285, Note_on_c, 1, 67, 0
4, 30384, Note_on_c, 1, 64, 69
4, 30418, Note_on_c, 1, 64, 0
4, 30420, Note_on_c, 1, 66, 69
4, 30432, Note_on_c, 1, 66, 0
4, 30432, Note_on_c, 1, 67, 69
4, 30477, Note_on_c, 1, 67, 0
4, 30576, Note_on_c, 1, 71, 77
4, 30621, Note_on_c, 1, 71, 0
4, 30624, Note_on_c, 1, 66, 76
4, 30669, Note_on_c, 1, 66, 0
4, 30672, Note_on_c, 1, 71, 75
4, 30717, Note_on_c, 1, 71, 0
4, 30768, Note_on_c, 1, 71, 74
4, 30813, Note_on_c, 1, 71, 0
4, 30816, Note_on_c, 1, 67, 73
4, 30861, Note_on_c, 1, 67, 0
4, 30864, Note_on_c, 1, 71, 73
4, 30909, Note_on_c, 1, 71, 0
4, 30960, Note_on_c, 1, 69, 71
4, 31005, Note_on_c, 1, 69, 0
4, 31008, Note_on_c, 1, 64, 70
4, 31053, Note_on_c, 1, 64, 0
4, 31056, Note_on_c, 1, 69, 70
4, 31101, Note_on_c, 1, 69, 0
4, 31152, Note_on_c, 1, 69, 68
4, 31197, Note_on_c, 1, 69, 0
4, 31200, Note_on_c, 1, 66, 68
4, 31245, Note_on_c, 1, 66, 0
4, 31248, Note_on_c, 1, 69, 67
4, 31293, Note_on_c, 1, 69, 0
4, 31344, Note_on_c, 1, 67, 65
4, 31389, Note_on_c, 1, 67, 0
4, 31392, Note_on_c, 1, 62, 65
4, 31437, Note_on_c, 1, 62, 0
4, 31440, Note_on_c, 1, 67, 64
4, 31485, Note_on_c, 1, 67, 0
4, 31536, Note_on_c, 1, 67, 63
4, 31581, Note_on_c, 1, 67, 0
4, 31584, Note_on_c, 1, 64, 63
4, 31629, Note_on_c, 1, 64, 0
4, 31632, Note_on_c, 1, 67, 64
4, 31677, Note_on_c, 1, 67, 0
4, 31728, Note_on_c, 1, 66, 66
4, 31773, Note_on_c, 1, 66, 0
4, 31776, Note_on_c, 1, 61, 66
4, 31821, Note_on_c, 1, 61, 0
4, 31824, Note_on_c, 1, 66, 67
4, 31869, Note_on_c, 1, 66, 0
4, 31920, Note_on_c, 1, 66, 69
4, 32009, Note_on_c, 1, 66, 0
4, 32016, Note_on_c, 1, 66, 70
4, 32109, Note_on_c, 1, 66, 0
4, 32112, Note_on_c, 1, 66, 72
4, 32201, Note_on_c, 1, 66, 0
4, 32208, Note_on_c, 1, 66, 74
4, 32301, Note_on_c, 1, 66, 0
4, 32304, Note_on_c, 1, 66, 75
4, 32393, Note_on_c, 1, 66, 0
4, 32400, Note_on_c, 1, 66, 77
4, 32537, Note_on_c, 1, 66, 0
4, 32592, Note_on_c, 1, 59, 78
4, 32592, Note_on_c, 1, 50, 78
4, 32637, Note_on_c, 1, 59, 0
4, 32637, Note_on_c, 1, 50, 0
4, 32640, Note_on_c, 1, 59, 78
4, 32729, Note_on_c, 1, 59, 0
4, 32736, Note_on_c, 1, 59, 78
4, 32781, Note_on_c, 1, 59, 0
4, 32784, Note_on_c, 1, 58, 78
4, 32829, Note_on_c, 1, 58, 0
4, 32832, Note_on_c, 1, 59, 78
4, 32877, Note_on_c, 1, 59, 0
4, 32880, Note_on_c, 1, 47, 78
4, 32925, Note_on_c, 1, 47, 0
4, 32976, Note_on_c, 1, 59, 74
4, 33021, Note_on_c, 1, 59, 0
4, 33024, Note_on_c, 1, 61, 74
4, 33069, Note_on_c, 1, 61, 0
4, 33072, Note_on_c, 1, 49, 74
4, 33117, Note_on_c, 1, 49, 0
4, 33168, Note_on_c, 1, 58, 74
4, 33213, Note_on_c, 1, 58, 0
4, 33216, Note_on_c, 1, 59, 74
4, 33261, Note_on_c, 1, 59, 0
4, 33264, Note_on_c, 1, 47, 74
4, 33309, Note_on_c, 1, 47, 0
4, 33360, Note_on_c, 1, 59, 74
4, 33360, Note_on_c, 1, 50, 74
4, 33405, Note_on_c, 1, 59, 0
4, 33405, Note_on_c, 1, 50, 0
4, 33408, Note_on_c, 1, 59, 74
4, 33497, Note_on_c, 1, 59, 0
4, 33504, Note_on_c, 1, 59, 74
4, 33549, Note_on_c, 1, 59, 0
4, 33552, Note_on_c, 1, 58, 74
4, 33597, Note_on_c, 1, 58, 0
4, 33600, Note_on_c, 1, 59, 74
4, 33645, Note_on_c, 1, 59, 0
4, 33648, Note_on_c, 1, 71, 63
4, 33693, Note_on_c, 1, 71, 0
4, 33696, Note_on_c, 1, 73, 63
4, 33741, Note_on_c, 1, 73, 0
4, 33744, Note_on_c, 1, 66, 63
4, 33789, Note_on_c, 1, 66, 0
4, 33792, Note_on_c, 1, 71, 63
4, 33837, Note_on_c, 1, 71, 0
4, 33840, Note_on_c, 1, 62, 63
4, 33885, Note_on_c, 1, 62, 0
4, 33888, Note_on_c, 1, 64, 63
4, 33933, Note_on_c, 1, 64, 0
4, 33936, Note_on_c, 1, 66, 64
4, 33981, Note_on_c, 1, 66, 0
4, 33984, Note_on_c, 1, 67, 65
4, 34029, Note_on_c, 1, 67, 0
4, 34032, Note_on_c, 1, 64, 66
4, 34077, Note_on_c, 1, 64, 0
4, 34080, Note_on_c, 1, 66, 66
4, 34125, Note_on_c, 1, 66, 0
4, 34128, Note_on_c, 1, 59, 67
4, 34173, Note_on_c, 1, 59, 0
4, 34176, Note_on_c, 1, 64, 68
4, 34221, Note_on_c, 1, 64, 0
4, 34224, Note_on_c, 1, 67, 69
4, 34269, Note_on_c, 1, 67, 0
4, 34272, Note_on_c, 1, 69, 70
4, 34317, Note_on_c, 1, 69, 0
4, 34320, Note_on_c, 1, 71, 70
4, 34365, Note_on_c, 1, 71, 0
4, 34368, Note_on_c, 1, 72, 71
4, 34413, Note_on_c, 1, 72, 0
4, 34416, Note_on_c, 1, 64, 72
4, 34461, Note_on_c, 1, 64, 0
4, 34464, Note_on_c, 1, 66, 73
4, 34509, Note_on_c, 1, 66, 0
4, 34512, Note_on_c, 1, 68, 74
4, 34557, Note_on_c, 1, 68, 0
4, 34560, Note_on_c, 1, 69, 74
4, 34605, Note_on_c, 1, 69, 0
4, 34608, Note_on_c, 1, 62, 75
4, 34653, Note_on_c, 1, 62, 0
4, 34656, Note_on_c, 1, 64, 76
4, 34701, Note_on_c, 1, 64, 0
4, 34704, Note_on_c, 1, 66, 77
4, 34749, Note_on_c, 1, 66, 0
4, 34752, Note_on_c, 1, 67, 78
4, 34797, Note_on_c, 1, 67, 0
4, 34800, Note_on_c, 1, 66, 78
4, 34845, Note_on_c, 1, 66, 0
4, 34848, Note_on_c, 1, 64, 78
4, 34893, Note_on_c, 1, 64, 0
4, 34896, Note_on_c, 1, 62, 78
4, 34941, Note_on_c, 1, 62, 0
4, 34944, Note_on_c, 1, 67, 78
4, 34989, Note_on_c, 1, 67, 0
4, 34992, Note_on_c, 1, 66, 78
4, 35037, Note_on_c, 1, 66, 0
4, 35040, Note_on_c, 1, 64, 78
4, 35085, Note_on_c, 1, 64, 0
4, 35088, Note_on_c, 1, 62, 78
4, 35133, Note_on_c, 1, 62, 0
4, 35136, Note_on_c, 1, 67, 78
4, 35181, Note_on_c, 1, 67, 0
4, 35184, Note_on_c, 1, 66, 78
4, 35229, Note_on_c, 1, 66, 0
4, 35232, Note_on_c, 1, 64, 78
4, 35277, Note_on_c, 1, 64, 0
4, 35280, Note_on_c, 1, 62, 75
4, 35325, Note_on_c, 1, 62, 0
4, 35328, Note_on_c, 1, 69, 73
4, 35373, Note_on_c, 1, 69, 0
4, 35376, Note_on_c, 1, 64, 70
4, 35410, Note_on_c, 1, 64, 0
4, 35412, Note_on_c, 1, 61, 69
4, 35424, Note_on_c, 1, 61, 0
4, 35424, Note_on_c, 1, 57, 69
4, 35513, Note_on_c, 1, 57, 0
4, 35520, Note_on_c, 1, 50, 74
4, 35565, Note_on_c, 1, 50, 0
4, 35568, Note_on_c, 1, 57, 74
4, 35613, Note_on_c, 1, 57, 0
4, 35616, Note_on_c, 1, 52, 74
4, 35661, Note_on_c, 1, 52, 0
4, 35664, Note_on_c, 1, 57, 74
4, 35709, Note_on_c, 1, 57, 0
4, 35712, Note_on_c, 1, 54, 74
4, 35757, Note_on_c, 1, 54, 0
4, 35760, Note_on_c, 1, 57, 74
4, 35805, Note_on_c, 1, 57, 0
4, 35856, Note_on_c, 1, 54, 74
4, 35901, Note_on_c, 1, 54, 0
4, 35904, Note_on_c, 1, 55, 74
4, 35949, Note_on_c, 1, 55, 0
4, 35952, Note_on_c, 1, 54, 74
4, 35997, Note_on_c, 1, 54, 0
4, 36000, Note_on_c, 1, 52, 74
4, 36045, Note_on_c, 1, 52, 0
4, 36048, Note_on_c, 1, 61, 74
4, 36093, Note_on_c, 1, 61, 0
4, 36096, Note_on_c, 1, 62, 74
4, 36141, Note_on_c, 1, 62, 0
4, 36144, Note_on_c, 1, 57, 74
4, 36178, Note_on_c, 1, 57, 0
4, 36180, Note_on_c, 1, 54, 74
4, 36192, Note_on_c, 1, 54, 0
4, 36192, Note_on_c, 1, 50, 74
4, 36281, Note_on_c, 1, 50, 0
4, 36288, Note_on_c, 1, 62, 74
4, 36333, Note_on_c, 1, 62, 0
4, 36336, Note_on_c, 1, 69, 74
4, 36381, Note_on_c, 1, 69, 0
4, 36384, Note_on_c, 1, 64, 74
4, 36429, Note_on_c, 1, 64, 0
4, 36432, Note_on_c, 1, 69, 74
4, 36477, Note_on_c, 1, 69, 0
4, 36480, Note_on_c, 1, 66, 74
4, 36525, Note_on_c, 1, 66, 0
4, 36528, Note_on_c, 1, 69, 74
4, 36573, Note_on_c, 1, 69, 0
4, 36624, Note_on_c, 1, 66, 74
4, 36669, Note_on_c, 1, 66, 0
4, 36672, Note_on_c, 1, 67, 74
4, 36717, Note_on_c, 1, 67, 0
4, 36720, Note_on_c, 1, 66, 74
4, 36765, Note_on_c, 1, 66, 0
4, 36768, Note_on_c, 1, 64, 74
4, 36813, Note_on_c, 1, 64, 0
4, 36816, Note_on_c, 1, 62, 74
4, 36861, Note_on_c, 1, 62, 0
4, 36864, Note_on_c, 1, 69, 74
4, 36909, Note_on_c, 1, 69, 0
4, 36912, Note_on_c, 1, 64, 74
4, 36957, Note_on_c, 1, 64, 0
4, 36960, Note_on_c, 1, 57, 74
4, 37049, Note_on_c, 1, 57, 0
4, 37080, Note_on_c, 1, 67, 74
4, 37103, Note_on_c, 1, 67, 0
4, 37104, Note_on_c, 1, 64, 74
4, 37127, Note_on_c, 1, 64, 0
4, 37128, Note_on_c, 1, 67, 74
4, 37151, Note_on_c, 1, 67, 0
4, 37176, Note_on_c, 1, 67, 74
4, 37199, Note_on_c, 1, 67, 0
4, 37200, Note_on_c, 1, 64, 74
4, 37223, Note_on_c, 1, 64, 0
4, 37224, Note_on_c, 1, 67, 74
4, 37247, Note_on_c, 1, 67, 0
4, 37248, Note_on_c, 1, 66, 74
4, 37293, Note_on_c, 1, 66, 0
4, 37296, Note_on_c, 1, 66, 74
4, 37341, Note_on_c, 1, 66, 0
4, 37344, Note_on_c, 1, 64, 74
4, 37389, Note_on_c, 1, 64, 0
4, 37392, Note_on_c, 1, 62, 74
4, 37437, Note_on_c, 1, 62, 0
4, 37464, Note_on_c, 1, 67, 74
4, 37487, Note_on_c, 1, 67, 0
4, 37488, Note_on_c, 1, 64, 74
4, 37511, Note_on_c, 1, 64, 0
4, 37512, Note_on_c, 1, 67, 74
4, 37535, Note_on_c, 1, 67, 0
4, 37560, Note_on_c, 1, 67, 74
4, 37583, Note_on_c, 1, 67, 0
4, 37584, Note_on_c, 1, 64, 74
4, 37607, Note_on_c, 1, 64, 0
4, 37608, Note_on_c, 1, 67, 74
4, 37631, Note_on_c, 1, 67, 0
4, 37632, Note_on_c, 1, 66, 74
4, 37677, Note_on_c, 1, 66, 0
4, 37680, Note_on_c, 1, 66, 74
4, 37725, Note_on_c, 1, 66, 0
4, 37728, Note_on_c, 1, 64, 74
4, 37773, Note_on_c, 1, 64, 0
4, 37776, Note_on_c, 1, 62, 74
4, 37821, Note_on_c, 1, 62, 0
4, 37872, Note_on_c, 1, 67, 69
4, 37906, Note_on_c, 1, 67, 0
4, 37908, Note_on_c, 1, 66, 69
4, 37920, Note_on_c, 1, 66, 0
4, 37920, Note_on_c, 1, 67, 69
4, 37965, Note_on_c, 1, 67, 0
4, 37968, Note_on_c, 1, 64, 69
4, 38015, Note_on_c, 1, 64, 0
4, 38064, Note_on_c, 1, 69, 69
4, 38098, Note_on_c, 1, 69, 0
4, 38100, Note_on_c, 1, 67, 69
4, 38112, Note_on_c, 1, 67, 0
4, 38112, Note_on_c, 1, 69, 69
4, 38157, Note_on_c, 1, 69, 0
4, 38160, Note_on_c, 1, 66, 69
4, 38207, Note_on_c, 1, 66, 0
4, 38256, Note_on_c, 1, 71, 69
4, 38290, Note_on_c, 1, 71, 0
4, 38292, Note_on_c, 1, 69, 69
4, 38304, Note_on_c, 1, 69, 0
4, 38304, Note_on_c, 1, 71, 69
4, 38349, Note_on_c, 1, 71, 0
4, 38352, Note_on_c, 1, 67, 69
4, 38399, Note_on_c, 1, 67, 0
4, 38448, Note_on_c, 1, 73, 69
4, 38482, Note_on_c, 1, 73, 0
4, 38484, Note_on_c, 1, 71, 69
4, 38496, Note_on_c, 1, 71, 0
4, 38496, Note_on_c, 1, 73, 69
4, 38541, Note_on_c, 1, 73, 0
4, 38544, Note_on_c, 1, 69, 69
4, 38591, Note_on_c, 1, 69, 0
4, 38592, Note_on_c, 1, 74, 74
4, 38637, Note_on_c, 1, 74, 0
4, 38640, Note_on_c, 1, 73, 74
4, 38685, Note_on_c, 1, 73, 0
4, 38688, Note_on_c, 1, 71, 74
4, 38733, Note_on_c, 1, 71, 0
4, 38736, Note_on_c, 1, 69, 74
4, 38781, Note_on_c, 1, 69, 0
4, 38784, Note_on_c, 1, 67, 74
4, 38829, Note_on_c, 1, 67, 0
4, 38832, Note_on_c, 1, 66, 74
4, 38877, Note_on_c, 1, 66, 0
4, 38880, Note_on_c, 1, 64, 74
4, 38925, Note_on_c, 1, 64, 0
4, 38928, Note_on_c, 1, 62, 74
4, 38973, Note_on_c, 1, 62, 0
4, 38976, Note_on_c, 1, 67, 74
4, 39021, Note_on_c, 1, 67, 0
4, 39024, Note_on_c, 1, 66, 74
4, 39069, Note_on_c, 1, 66, 0
4, 39072, Note_on_c, 1, 64, 74
4, 39117, Note_on_c, 1, 64, 0
4, 39120, Note_on_c, 1, 62, 74
4, 39165, Note_on_c, 1, 62, 0
4, 39168, Note_on_c, 1, 69, 74
4, 39213, Note_on_c, 1, 69, 0
4, 39216, Note_on_c, 1, 57, 74
4, 39261, Note_on_c, 1, 57, 0
4, 39312, Note_on_c, 1, 66, 74
4, 39312, Note_on_c, 1, 63, 74
4, 39359, Note_on_c, 1, 66, 0
4, 39359, Note_on_c, 1, 63, 0
4, 39360, Note_on_c, 1, 64, 74
4, 39405, Note_on_c, 1, 64, 0
4, 39408, Note_on_c, 1, 52, 74
4, 39453, Note_on_c, 1, 52, 0
4, 39504, Note_on_c, 1, 64, 74
4, 39504, Note_on_c, 1, 61, 74
4, 39551, Note_on_c, 1, 64, 0
4, 39551, Note_on_c, 1, 61, 0
4, 39552, Note_on_c, 1, 62, 74
4, 39597, Note_on_c, 1, 62, 0
4, 39600, Note_on_c, 1, 50, 74
4, 39645, Note_on_c, 1, 50, 0
4, 39696, Note_on_c, 1, 62, 74
4, 39696, Note_on_c, 1, 54, 74
4, 39744, Note_on_c, 1, 54, 0
4, 39789, Note_on_c, 1, 62, 0
4, 39792, Note_on_c, 1, 67, 74
4, 39837, Note_on_c, 1, 67, 0
4, 39840, Note_on_c, 1, 66, 74
4, 39885, Note_on_c, 1, 66, 0
4, 39888, Note_on_c, 1, 64, 74
4, 39933, Note_on_c, 1, 64, 0
4, 39936, Note_on_c, 1, 62, 74
4, 39981, Note_on_c, 1, 62, 0
4, 40032, Note_on_c, 1, 62, 74
4, 40121, Note_on_c, 1, 62, 0
4, 40128, Note_on_c, 1, 62, 74
4, 40151, Note_on_c, 1, 62, 0
4, 40152, Note_on_c, 1, 59, 74
4, 40175, Note_on_c, 1, 59, 0
4, 40176, Note_on_c, 1, 64, 74
4, 40199, Note_on_c, 1, 64, 0
4, 40200, Note_on_c, 1, 62, 74
4, 40223, Note_on_c, 1, 62, 0
4, 40224, Note_on_c, 1, 61, 74
4, 40343, Note_on_c, 1, 61, 0
4, 40344, Note_on_c, 1, 57, 74
4, 40367, Note_on_c, 1, 57, 0
4, 40368, Note_on_c, 1, 62, 74
4, 40391, Note_on_c, 1, 62, 0
4, 40392, Note_on_c, 1, 60, 74
4, 40415, Note_on_c, 1, 60, 0
4, 40416, Note_on_c, 1, 58, 74
4, 40505, Note_on_c, 1, 58, 0
4, 40536, Note_on_c, 1, 45, 74
4, 40559, Note_on_c, 1, 45, 0
4, 40560, Note_on_c, 1, 57, 74
4, 40583, Note_on_c, 1, 57, 0
4, 40584, Note_on_c, 1, 55, 74
4, 40607, Note_on_c, 1, 55, 0
4, 40608, Note_on_c, 1, 53, 69
4, 40653, Note_on_c, 1, 53, 0
4, 40656, Note_on_c, 1, 58, 69
4, 40656, Note_on_c, 1, 46, 69
4, 40701, Note_on_c, 1, 58, 0
4, 40701, Note_on_c, 1, 46, 0
4, 40704, Note_on_c, 1, 57, 69
4, 40704, Note_on_c, 1, 45, 69
4, 40793, Note_on_c, 1, 57, 0
4, 40793, Note_on_c, 1, 45, 0
4, 40848, Note_on_c, 1, 63, 69
4, 40893, Note_on_c, 1, 63, 0
4, 40896, Note_on_c, 1, 64, 69
4, 40941, Note_on_c, 1, 64, 0
4, 40944, Note_on_c, 1, 52, 69
4, 40989, Note_on_c, 1, 52, 0
4, 41040, Note_on_c, 1, 61, 69
4, 41085, Note_on_c, 1, 61, 0
4, 41088, Note_on_c, 1, 62, 69
4, 41133, Note_on_c, 1, 62, 0
4, 41136, Note_on_c, 1, 50, 69
4, 41181, Note_on_c, 1, 50, 0
4, 41232, Note_on_c, 1, 62, 69
4, 41232, Note_on_c, 1, 54, 69
4, 41277, Note_on_c, 1, 62, 0
4, 41277, Note_on_c, 1, 54, 0
4, 41280, Note_on_c, 1, 62, 69
4, 41369, Note_on_c, 1, 62, 0
4, 41376, Note_on_c, 1, 62, 69
4, 41421, Note_on_c, 1, 62, 0
4, 41424, Note_on_c, 1, 61, 69
4, 41469, Note_on_c, 1, 61, 0
4, 41472, Note_on_c, 1, 62, 69
4, 41517, Note_on_c, 1, 62, 0
4, 41520, Note_on_c, 1, 50, 69
4, 41565, Note_on_c, 1, 50, 0
4, 41616, Note_on_c, 1, 51, 69
4, 41661, Note_on_c, 1, 51, 0
4, 41664, Note_on_c, 1, 52, 69
4, 41709, Note_on_c, 1, 52, 0
4, 41712, Note_on_c, 1, 40, 69
4, 41757, Note_on_c, 1, 40, 0
4, 41808, Note_on_c, 1, 49, 69
4, 41853, Note_on_c, 1, 49, 0
4, 41856, Note_on_c, 1, 50, 69
4, 41901, Note_on_c, 1, 50, 0
4, 41904, Note_on_c, 1, 38, 69
4, 41949, Note_on_c, 1, 38, 0
4, 42000, Note_on_c, 1, 50, 69
4, 42000, Note_on_c, 1, 42, 69
4, 42045, Note_on_c, 1, 50, 0
4, 42045, Note_on_c, 1, 42, 0
4, 42048, Note_on_c, 1, 50, 69
4, 42137, Note_on_c, 1, 50, 0
4, 42144, Note_on_c, 1, 50, 69
4, 42189, Note_on_c, 1, 50, 0
4, 42192, Note_on_c, 1, 49, 69
4, 42237, Note_on_c, 1, 49, 0
4, 42240, Note_on_c, 1, 50, 69
4, 42329, Note_on_c, 1, 50, 0
4, 42432, End_track
5, 0, Start_track
5, 0, Program_c, 1, 0
5, 0, Control_c, 1, 7, 127
5, 0, Control_c, 1, 10, 64
5, 1728, Note_on_c, 1, 57, 64
5, 1817, Note_on_c, 1, 57, 0
5, 1824, Note_on_c, 1, 57, 64
5, 1913, Note_on_c, 1, 57, 0
5, 2112, Note_on_c, 1, 57, 64
5, 2201, Note_on_c, 1, 57, 0
5, 2208, Note_on_c, 1, 57, 64
5, 2297, Note_on_c, 1, 57, 0
5, 2496, Note_on_c, 1, 59, 78
5, 2585, Note_on_c, 1, 59, 0
5, 2592, Note_on_c, 1, 59, 78
5, 2681, Note_on_c, 1, 59, 0
5, 2880, Note_on_c, 1, 59, 78
5, 2969, Note_on_c, 1, 59, 0
5, 2976, Note_on_c, 1, 59, 78
5, 3065, Note_on_c, 1, 59, 0
5, 5136, Note_on_c, 1, 49, 78
5, 5181, Note_on_c, 1, 49, 0
5, 5184, Note_on_c, 1, 50, 78
5, 5273, Note_on_c, 1, 50, 0
5, 5280, Note_on_c, 1, 52, 78
5, 5369, Note_on_c, 1, 52, 0
5, 5376, Note_on_c, 1, 45, 78
5, 5465, Note_on_c, 1, 45, 0
5, 6720, Note_on_c, 1, 50, 78
5, 6809, Note_on_c, 1, 50, 0
5, 6816, Note_on_c, 1, 52, 78
5, 6905, Note_on_c, 1, 52, 0
5, 8640, Note_on_c, 1, 57, 64
5, 8729, Note_on_c, 1, 57, 0
5, 8736, Note_on_c, 1, 57, 64
5, 8825, Note_on_c, 1, 57, 0
5, 9024, Note_on_c, 1, 57, 64
5, 9113, Note_on_c, 1, 57, 0
5, 9120, Note_on_c, 1, 57, 64
5, 9209, Note_on_c, 1, 57, 0
5, 9408, Note_on_c, 1, 59, 78
5, 9497, Note_on_c, 1, 59, 0
5, 9504, Note_on_c, 1, 59, 78
5, 9593, Note_on_c, 1, 59, 0
5, 9792, Note_on_c, 1, 59, 78
5, 9881, Note_on_c, 1, 59, 0
5, 9888, Note_on_c, 1, 59, 78
5, 9977, Note_on_c, 1, 59, 0
5, 12048, Note_on_c, 1, 49, 78
5, 12093, Note_on_c, 1, 49, 0
5, 12096, Note_on_c, 1, 50, 78
5, 12185, Note_on_c, 1, 50, 0
5, 12192, Note_on_c, 1, 52, 78
5, 12281, Note_on_c, 1, 52, 0
5, 12288, Note_on_c, 1, 45, 78
5, 12377, Note_on_c, 1, 45, 0
5, 13632, Note_on_c, 1, 50, 78
5, 13721, Note_on_c, 1, 50, 0
5, 13728, Note_on_c, 1, 52, 78
5, 13817, Note_on_c, 1, 52, 0
5, 16320, Note_on_c, 1, 62, 78
5, 16497, Note_on_c, 1, 62, 0
5, 16512, Note_on_c, 1, 64, 75
5, 16689, Note_on_c, 1, 64, 0
5, 16704, Note_on_c, 1, 61, 73
5, 16881, Note_on_c, 1, 61, 0
5, 16896, Note_on_c, 1, 62, 70
5, 17073, Note_on_c, 1, 62, 0
5, 17088, Note_on_c, 1, 59, 68
5, 17265, Note_on_c, 1, 59, 0
5, 17280, Note_on_c, 1, 61, 65
5, 17457, Note_on_c, 1, 61, 0
5, 17472, Note_on_c, 1, 58, 63
5, 17649, Note_on_c, 1, 58, 0
5, 17664, Note_on_c, 1, 59, 66
5, 17753, Note_on_c, 1, 59, 0
5, 17760, Note_on_c, 1, 61, 68
5, 17849, Note_on_c, 1, 61, 0
5, 17856, Note_on_c, 1, 62, 70
5, 17945, Note_on_c, 1, 62, 0
5, 17952, Note_on_c, 1, 58, 72
5, 18041, Note_on_c, 1, 58, 0
5, 18048, Note_on_c, 1, 59, 74
5, 18137, Note_on_c, 1, 59, 0
5, 18144, Note_on_c, 1, 61, 76
5, 18233, Note_on_c, 1, 61, 0
5, 18240, Note_on_c, 1, 62, 78
5, 18329, Note_on_c, 1, 62, 0
5, 18432, Note_on_c, 1, 52, 78
5, 18521, Note_on_c, 1, 52, 0
5, 18528, Note_on_c, 1, 54, 78
5, 18617, Note_on_c, 1, 54, 0
5, 19200, Note_on_c, 1, 52, 78
5, 19289, Note_on_c, 1, 52, 0
5, 19296, Note_on_c, 1, 54, 78
5, 19385, Note_on_c, 1, 54, 0
5, 22848, Note_on_c, 1, 57, 78
5, 22937, Note_on_c, 1, 57, 0
5, 22944, Note_on_c, 1, 57, 78
5, 23033, Note_on_c, 1, 57, 0
5, 23232, Note_on_c, 1, 57, 78
5, 23321, Note_on_c, 1, 57, 0
5, 23328, Note_on_c, 1, 57, 78
5, 23417, Note_on_c, 1, 57, 0
5, 25536, Note_on_c, 1, 55, 78
5, 25625, Note_on_c, 1, 55, 0
5, 25632, Note_on_c, 1, 57, 78
5, 25721, Note_on_c, 1, 57, 0
5, 27072, Note_on_c, 1, 55, 78
5, 27161, Note_on_c, 1, 55, 0
5, 27168, Note_on_c, 1, 57, 78
5, 27257, Note_on_c, 1, 57, 0
5, 27840, Note_on_c, 1, 43, 78
5, 27929, Note_on_c, 1, 43, 0
5, 27936, Note_on_c, 1, 45, 78
5, 28025, Note_on_c, 1, 45, 0
5, 28032, Note_on_c, 1, 50, 78
5, 28077, Note_on_c, 1, 50, 0
5, 28080, Note_on_c, 1, 45, 78
5, 28125, Note_on_c, 1, 45, 0
5, 28128, Note_on_c, 1, 38, 78
5, 28173, Note_on_c, 1, 38, 0
5, 30528, Note_on_c, 1, 62, 78
5, 30705, Note_on_c, 1, 62, 0
5, 30720, Note_on_c, 1, 64, 75
5, 30897, Note_on_c, 1, 64, 0
5, 30912, Note_on_c, 1, 61, 73
5, 31089, Note_on_c, 1, 61, 0
5, 31104, Note_on_c, 1, 62, 70
5, 31281, Note_on_c, 1, 62, 0
5, 31296, Note_on_c, 1, 59, 68
5, 31473, Note_on_c, 1, 59, 0
5, 31488, Note_on_c, 1, 61, 65
5, 31665, Note_on_c, 1, 61, 0
5, 31680, Note_on_c, 1, 58, 63
5, 31857, Note_on_c, 1, 58, 0
5, 31872, Note_on_c, 1, 59, 66
5, 31961, Note_on_c, 1, 59, 0
5, 31968, Note_on_c, 1, 61, 68
5, 32057, Note_on_c, 1, 61, 0
5, 32064, Note_on_c, 1, 62, 70
5, 32153, Note_on_c, 1, 62, 0
5, 32160, Note_on_c, 1, 58, 72
5, 32249, Note_on_c, 1, 58, 0
5, 32256, Note_on_c, 1, 59, 74
5, 32345, Note_on_c, 1, 59, 0
5, 32352, Note_on_c, 1, 61, 76
5, 32441, Note_on_c, 1, 61, 0
5, 32448, Note_on_c, 1, 62, 78
5, 32537, Note_on_c, 1, 62, 0
5, 32640, Note_on_c, 1, 52, 78
5, 32729, Note_on_c, 1, 52, 0
5, 32736, Note_on_c, 1, 54, 78
5, 32825, Note_on_c, 1, 54, 0
5, 33408, Note_on_c, 1, 52, 78
5, 33497, Note_on_c, 1, 52, 0
5, 33504, Note_on_c, 1, 54, 78
5, 33593, Note_on_c, 1, 54, 0
5, 37056, Note_on_c, 1, 57, 78
5, 37145, Note_on_c, 1, 57, 0
5, 37152, Note_on_c, 1, 57, 78
5, 37241, Note_on_c, 1, 57, 0
5, 37440, Note_on_c, 1, 57, 78
5, 37529, Note_on_c, 1, 57, 0
5, 37536, Note_on_c, 1, 57, 78
5, 37625, Note_on_c, 1, 57, 0
5, 39744, Note_on_c, 1, 55, 78
5, 39833, Note_on_c, 1, 55, 0
5, 39840, Note_on_c, 1, 57, 78
5, 39929, Note_on_c, 1, 57, 0
5, 41280, Note_on_c, 1, 55, 78
5, 41369, Note_on_c, 1, 55, 0
5, 41376, Note_on_c, 1, 57, 78
5, 41465, Note_on_c, 1, 57, 0
5, 42048, Note_on_c, 1, 43, 78
5, 42137, Note_on_c, 1, 43, 0
5, 42144, Note_on_c, 1, 45, 78
5, 42233, Note_on_c, 1, 45, 0
5, 42240, Note_on_c, 1, 50, 78
5, 42285, Note_on_c, 1, 50, 0
5, 42288, Note_on_c, 1, 45, 78
5, 42333, Note_on_c, 1, 45, 0
5, 42336, Note_on_c, 1, 38, 78
5, 42381, Note_on_c, 1, 38, 0
5, 42408, Note_on_c, 1, 38, 0
5, 42431, Note_on_c, 1, 38, 0
5, 42432, End_track
6, 0, Start_track
6, 0, Title_t, "Piano Solo   <composer>  "
6, 0, End_track
0, 0, End_of_file
