0, 0, Header, 1, 6, 96
1, 0, Start_track
1, 0, Copyright_t, "Copyright  1994-2002 Mozart Music Software"
1, 0, Text_t, "Piano Solo\015\012"
1, 0, Text_t, "<composer>\015\012"
1, 0, Sequencer_specific, 16, 68, 87, 77, 90, 86, 82, 83, 78, 32, 55, 46, 48, 46, 55, 46, 48
1, 0, Time_signature, 2, 2, 24, 8
1, 0, Tempo, 120000
1, 0, Key_signature, 1, "major"
1, 144, Tempo, 1000000
1, 5328, Tempo, 1000000
1, 30528, End_track
2, 0, Start_track
2, 0, Program_c, 0, 0
2, 0, Control_c, 0, 7, 127
2, 0, Control_c, 0, 10, 64
2, 144, Note_on_c, 0, 81, 66
2, 156, Note_on_c, 0, 81, 0
2, 156, Note_on_c, 0, 79, 66
2, 168, Note_on_c, 0, 79, 0
2, 168, Note_on_c, 0, 78, 66
2, 180, Note_on_c, 0, 78, 0
2, 180, Note_on_c, 0, 76, 66
2, 192, Note_on_c, 0, 76, 0
2, 192, Note_on_c, 0, 74, 66
2, 237, Note_on_c, 0, 74, 0
2, 240, Note_on_c, 0, 74, 66
2, 285, Note_on_c, 0, 74, 0
2, 288, Note_on_c, 0, 74, 66
2, 333, Note_on_c, 0, 74, 0
2, 336, Note_on_c, 0, 74, 66
2, 381, Note_on_c, 0, 74, 0
2, 384, Note_on_c, 0, 74, 66
2, 418, Note_on_c, 0, 74, 0
2, 420, Note_on_c, 0, 76, 66
2, 432, Note_on_c, 0, 76, 0
2, 432, Note_on_c, 0, 69, 66
2, 466, Note_on_c, 0, 69, 0
2, 468, Note_on_c, 0, 72, 66
2, 480, Note_on_c, 0, 72, 0
2, 480, Note_on_c, 0, 71, 66
2, 500, Note_on_c, 0, 71, 0
2, 528, Note_on_c, 0, 76, 66
2, 540, Note_on_c, 0, 76, 0
2, 540, Note_on_c, 0, 74, 66
2, 552, Note_on_c, 0, 74, 0
2, 552, Note_on_c, 0, 72, 66
2, 564, Note_on_c, 0, 72, 0
2, 564, Note_on_c, 0, 71, 66
2, 576, Note_on_c, 0, 71, 0
2, 576, Note_on_c, 0, 69, 66
2, 596, Note_on_c, 0, 69, 0
2, 624, Note_on_c, 0, 74, 66
2, 636, Note_on_c, 0, 74, 0
2, 636, Note_on_c, 0, 72, 66
2, 648, Note_on_c, 0, 72, 0
2, 648, Note_on_c, 0, 71, 66
2, 660, Note_on_c, 0, 71, 0
2, 660, Note_on_c, 0, 69, 66
2, 672, Note_on_c, 0, 69, 0
2, 672, Note_on_c, 0, 67, 66
2, 692, Note_on_c, 0, 67, 0
2, 720, Note_on_c, 0, 71, 66
2, 732, Note_on_c, 0, 71, 0
2, 732, Note_on_c, 0, 69, 66
2, 744, Note_on_c, 0, 69, 0
2, 744, Note_on_c, 0, 67, 66
2, 756, Note_on_c, 0, 67, 0
2, 756, Note_on_c, 0, 66, 66
2, 768, Note_on_c, 0, 66, 0
2, 768, Note_on_c, 0, 67, 66
2, 813, Note_on_c, 0, 67, 0
2, 816, Note_on_c, 0, 62, 66
2, 861, Note_on_c, 0, 62, 0
2, 912, Note_on_c, 0, 81, 66
2, 924, Note_on_c, 0, 81, 0
2, 924, Note_on_c, 0, 79, 66
2, 936, Note_on_c, 0, 79, 0
2, 936, Note_on_c, 0, 78, 66
2, 948, Note_on_c, 0, 78, 0
2, 948, Note_on_c, 0, 76, 66
2, 960, Note_on_c, 0, 76, 0
2, 960, Note_on_c, 0, 74, 66
2, 1005, Note_on_c, 0, 74, 0
2, 1008, Note_on_c, 0, 74, 66
2, 1053, Note_on_c, 0, 74, 0
2, 1056, Note_on_c, 0, 74, 66
2, 1101, Note_on_c, 0, 74, 0
2, 1104, Note_on_c, 0, 74, 66
2, 1149, Note_on_c, 0, 74, 0
2, 1152, Note_on_c, 0, 74, 66
2, 1186, Note_on_c, 0, 74, 0
2, 1188, Note_on_c, 0, 76, 66
2, 1200, Note_on_c, 0, 76, 0
2, 1200, Note_on_c, 0, 69, 66
2, 1234, Note_on_c, 0, 69, 0
2, 1236, Note_on_c, 0, 72, 66
2, 1248, Note_on_c, 0, 72, 0
2, 1248, Note_on_c, 0, 71, 66
2, 1268, Note_on_c, 0, 71, 0
2, 1296, Note_on_c, 0, 76, 66
2, 1308, Note_on_c, 0, 76, 0
2, 1308, Note_on_c, 0, 74, 66
2, 1320, Note_on_c, 0, 74, 0
2, 1320, Note_on_c, 0, 72, 66
2, 1332, Note_on_c, 0, 72, 0
2, 1332, Note_on_c, 0, 71, 66
2, 1344, Note_on_c, 0, 71, 0
2, 1344, Note_on_c, 0, 69, 66
2, 1364, Note_on_c, 0, 69, 0
2, 1392, Note_on_c, 0, 74, 66
2, 1404, Note_on_c, 0, 74, 0
2, 1404, Note_on_c, 0, 72, 66
2, 1416, Note_on_c, 0, 72, 0
2, 1416, Note_on_c, 0, 71, 66
2, 1428, Note_on_c, 0, 71, 0
2, 1428, Note_on_c, 0, 69, 66
2, 1440, Note_on_c, 0, 69, 0
2, 1440, Note_on_c, 0, 76, 66
2, 1460, Note_on_c, 0, 76, 0
2, 1488, Note_on_c, 0, 74, 66
2, 1500, Note_on_c, 0, 74, 0
2, 1500, Note_on_c, 0, 72, 66
2, 1512, Note_on_c, 0, 72, 0
2, 1512, Note_on_c, 0, 71, 66
2, 1524, Note_on_c, 0, 71, 0
2, 1524, Note_on_c, 0, 69, 66
2, 1536, Note_on_c, 0, 69, 0
2, 1536, Note_on_c, 0, 67, 66
2, 1632, Note_on_c, 0, 67, 0
2, 1632, Note_on_c, 0, 66, 66
2, 1652, Note_on_c, 0, 66, 0
2, 1680, Note_on_c, 0, 83, 66
2, 1692, Note_on_c, 0, 83, 0
2, 1692, Note_on_c, 0, 81, 66
2, 1704, Note_on_c, 0, 81, 0
2, 1704, Note_on_c, 0, 79, 66
2, 1716, Note_on_c, 0, 79, 0
2, 1716, Note_on_c, 0, 78, 66
2, 1728, Note_on_c, 0, 78, 0
2, 1728, Note_on_c, 0, 76, 66
2, 1776, Note_on_c, 0, 76, 0
2, 1776, Note_on_c, 0, 74, 66
2, 1821, Note_on_c, 0, 74, 0
2, 1872, Note_on_c, 0, 83, 66
2, 1884, Note_on_c, 0, 83, 0
2, 1884, Note_on_c, 0, 81, 66
2, 1896, Note_on_c, 0, 81, 0
2, 1896, Note_on_c, 0, 79, 66
2, 1908, Note_on_c, 0, 79, 0
2, 1908, Note_on_c, 0, 78, 66
2, 1920, Note_on_c, 0, 78, 0
2, 1920, Note_on_c, 0, 78, 66
2, 1968, Note_on_c, 0, 78, 0
2, 1968, Note_on_c, 0, 76, 66
2, 2013, Note_on_c, 0, 76, 0
2, 2064, Note_on_c, 0, 81, 66
2, 2076, Note_on_c, 0, 81, 0
2, 2076, Note_on_c, 0, 79, 66
2, 2088, Note_on_c, 0, 79, 0
2, 2088, Note_on_c, 0, 78, 66
2, 2100, Note_on_c, 0, 78, 0
2, 2100, Note_on_c, 0, 76, 66
2, 2112, Note_on_c, 0, 76, 0
2, 2112, Note_on_c, 0, 74, 66
2, 2160, Note_on_c, 0, 74, 0
2, 2160, Note_on_c, 0, 73, 66
2, 2205, Note_on_c, 0, 73, 0
2, 2224, Note_on_c, 0, 79, 66
2, 2239, Note_on_c, 0, 79, 0
2, 2240, Note_on_c, 0, 81, 66
2, 2255, Note_on_c, 0, 81, 0
2, 2256, Note_on_c, 0, 83, 66
2, 2271, Note_on_c, 0, 83, 0
2, 2272, Note_on_c, 0, 81, 66
2, 2287, Note_on_c, 0, 81, 0
2, 2288, Note_on_c, 0, 79, 66
2, 2303, Note_on_c, 0, 79, 0
2, 2304, Note_on_c, 0, 79, 66
2, 2328, Note_on_c, 0, 79, 0
2, 2328, Note_on_c, 0, 78, 66
2, 2351, Note_on_c, 0, 78, 0
2, 2376, Note_on_c, 0, 81, 67
2, 2386, Note_on_c, 0, 81, 0
2, 2400, Note_on_c, 0, 81, 67
2, 2424, Note_on_c, 0, 81, 0
2, 2424, Note_on_c, 0, 79, 68
2, 2447, Note_on_c, 0, 79, 0
2, 2448, Note_on_c, 0, 79, 68
2, 2472, Note_on_c, 0, 79, 0
2, 2472, Note_on_c, 0, 78, 69
2, 2495, Note_on_c, 0, 78, 0
2, 2496, Note_on_c, 0, 78, 69
2, 2520, Note_on_c, 0, 78, 0
2, 2520, Note_on_c, 0, 76, 70
2, 2543, Note_on_c, 0, 76, 0
2, 2544, Note_on_c, 0, 76, 70
2, 2568, Note_on_c, 0, 76, 0
2, 2568, Note_on_c, 0, 74, 71
2, 2591, Note_on_c, 0, 74, 0
2, 2592, Note_on_c, 0, 74, 71
2, 2616, Note_on_c, 0, 74, 0
2, 2616, Note_on_c, 0, 73, 72
2, 2639, Note_on_c, 0, 73, 0
2, 2640, Note_on_c, 0, 76, 72
2, 2664, Note_on_c, 0, 76, 0
2, 2664, Note_on_c, 0, 79, 73
2, 2687, Note_on_c, 0, 79, 0
2, 2688, Note_on_c, 0, 79, 73
2, 2712, Note_on_c, 0, 79, 0
2, 2712, Note_on_c, 0, 78, 74
2, 2735, Note_on_c, 0, 78, 0
2, 2760, Note_on_c, 0, 81, 66
2, 2770, Note_on_c, 0, 81, 0
2, 2784, Note_on_c, 0, 81, 66
2, 2790, Note_on_c, 0, 81, 0
2, 2790, Note_on_c, 0, 83, 66
2, 2796, Note_on_c, 0, 83, 0
2, 2796, Note_on_c, 0, 81, 66
2, 2807, Note_on_c, 0, 81, 0
2, 2808, Note_on_c, 0, 79, 67
2, 2831, Note_on_c, 0, 79, 0
2, 2832, Note_on_c, 0, 79, 68
2, 2838, Note_on_c, 0, 79, 0
2, 2838, Note_on_c, 0, 81, 68
2, 2844, Note_on_c, 0, 81, 0
2, 2844, Note_on_c, 0, 79, 68
2, 2855, Note_on_c, 0, 79, 0
2, 2856, Note_on_c, 0, 78, 68
2, 2879, Note_on_c, 0, 78, 0
2, 2880, Note_on_c, 0, 78, 69
2, 2886, Note_on_c, 0, 78, 0
2, 2886, Note_on_c, 0, 79, 69
2, 2892, Note_on_c, 0, 79, 0
2, 2892, Note_on_c, 0, 78, 69
2, 2903, Note_on_c, 0, 78, 0
2, 2904, Note_on_c, 0, 76, 70
2, 2927, Note_on_c, 0, 76, 0
2, 2928, Note_on_c, 0, 76, 70
2, 2934, Note_on_c, 0, 76, 0
2, 2934, Note_on_c, 0, 78, 70
2, 2940, Note_on_c, 0, 78, 0
2, 2940, Note_on_c, 0, 76, 70
2, 2951, Note_on_c, 0, 76, 0
2, 2952, Note_on_c, 0, 74, 71
2, 2975, Note_on_c, 0, 74, 0
2, 2976, Note_on_c, 0, 74, 72
2, 2982, Note_on_c, 0, 74, 0
2, 2982, Note_on_c, 0, 76, 72
2, 2988, Note_on_c, 0, 76, 0
2, 2988, Note_on_c, 0, 74, 72
2, 2999, Note_on_c, 0, 74, 0
2, 3000, Note_on_c, 0, 73, 72
2, 3023, Note_on_c, 0, 73, 0
2, 3024, Note_on_c, 0, 76, 73
2, 3048, Note_on_c, 0, 76, 0
2, 3048, Note_on_c, 0, 79, 74
2, 3071, Note_on_c, 0, 79, 0
2, 3072, Note_on_c, 0, 78, 70
2, 3095, Note_on_c, 0, 78, 0
2, 3096, Note_on_c, 0, 74, 70
2, 3119, Note_on_c, 0, 74, 0
2, 3120, Note_on_c, 0, 76, 71
2, 3143, Note_on_c, 0, 76, 0
2, 3144, Note_on_c, 0, 78, 71
2, 3167, Note_on_c, 0, 78, 0
2, 3168, Note_on_c, 0, 79, 72
2, 3191, Note_on_c, 0, 79, 0
2, 3192, Note_on_c, 0, 80, 73
2, 3215, Note_on_c, 0, 80, 0
2, 3216, Note_on_c, 0, 81, 73
2, 3239, Note_on_c, 0, 81, 0
2, 3240, Note_on_c, 0, 82, 74
2, 3263, Note_on_c, 0, 82, 0
2, 3264, Note_on_c, 0, 83, 75
2, 3383, Note_on_c, 0, 83, 0
2, 3384, Note_on_c, 0, 79, 75
2, 3396, Note_on_c, 0, 79, 0
2, 3396, Note_on_c, 0, 81, 75
2, 3408, Note_on_c, 0, 81, 0
2, 3408, Note_on_c, 0, 83, 75
2, 3431, Note_on_c, 0, 83, 0
2, 3432, Note_on_c, 0, 79, 75
2, 3455, Note_on_c, 0, 79, 0
2, 3456, Note_on_c, 0, 78, 75
2, 3463, Note_on_c, 0, 78, 0
2, 3463, Note_on_c, 0, 79, 74
2, 3470, Note_on_c, 0, 79, 0
2, 3470, Note_on_c, 0, 78, 74
2, 3477, Note_on_c, 0, 78, 0
2, 3477, Note_on_c, 0, 79, 73
2, 3484, Note_on_c, 0, 79, 0
2, 3484, Note_on_c, 0, 78, 73
2, 3491, Note_on_c, 0, 78, 0
2, 3491, Note_on_c, 0, 76, 73
2, 3498, Note_on_c, 0, 76, 0
2, 3498, Note_on_c, 0, 78, 72
2, 3504, Note_on_c, 0, 78, 0
2, 3504, Note_on_c, 0, 79, 72
2, 3527, Note_on_c, 0, 79, 0
2, 3528, Note_on_c, 0, 76, 70
2, 3551, Note_on_c, 0, 76, 0
2, 3552, Note_on_c, 0, 74, 69
2, 3597, Note_on_c, 0, 74, 0
2, 3600, Note_on_c, 0, 73, 66
2, 3607, Note_on_c, 0, 73, 0
2, 3607, Note_on_c, 0, 74, 66
2, 3614, Note_on_c, 0, 74, 0
2, 3614, Note_on_c, 0, 73, 66
2, 3621, Note_on_c, 0, 73, 0
2, 3621, Note_on_c, 0, 74, 66
2, 3628, Note_on_c, 0, 74, 0
2, 3628, Note_on_c, 0, 73, 66
2, 3635, Note_on_c, 0, 73, 0
2, 3635, Note_on_c, 0, 71, 66
2, 3642, Note_on_c, 0, 71, 0
2, 3642, Note_on_c, 0, 73, 66
2, 3648, Note_on_c, 0, 73, 0
2, 3648, Note_on_c, 0, 74, 66
2, 3671, Note_on_c, 0, 74, 0
2, 3672, Note_on_c, 0, 74, 66
2, 3695, Note_on_c, 0, 74, 0
2, 3696, Note_on_c, 0, 76, 67
2, 3719, Note_on_c, 0, 76, 0
2, 3720, Note_on_c, 0, 78, 69
2, 3743, Note_on_c, 0, 78, 0
2, 3744, Note_on_c, 0, 79, 70
2, 3767, Note_on_c, 0, 79, 0
2, 3768, Note_on_c, 0, 80, 72
2, 3791, Note_on_c, 0, 80, 0
2, 3792, Note_on_c, 0, 81, 73
2, 3815, Note_on_c, 0, 81, 0
2, 3816, Note_on_c, 0, 82, 75
2, 3839, Note_on_c, 0, 82, 0
2, 3840, Note_on_c, 0, 83, 75
2, 3959, Note_on_c, 0, 83, 0
2, 3960, Note_on_c, 0, 79, 75
2, 3972, Note_on_c, 0, 79, 0
2, 3972, Note_on_c, 0, 81, 75
2, 3984, Note_on_c, 0, 81, 0
2, 3984, Note_on_c, 0, 83, 75
2, 4007, Note_on_c, 0, 83, 0
2, 4008, Note_on_c, 0, 79, 75
2, 4031, Note_on_c, 0, 79, 0
2, 4056, Note_on_c, 0, 78, 75
2, 4068, Note_on_c, 0, 78, 0
2, 4068, Note_on_c, 0, 79, 75
2, 4080, Note_on_c, 0, 79, 0
2, 4080, Note_on_c, 0, 81, 75
2, 4103, Note_on_c, 0, 81, 0
2, 4104, Note_on_c, 0, 74, 75
2, 4127, Note_on_c, 0, 74, 0
2, 4152, Note_on_c, 0, 73, 76
2, 4164, Note_on_c, 0, 73, 0
2, 4164, Note_on_c, 0, 74, 76
2, 4176, Note_on_c, 0, 74, 0
2, 4176, Note_on_c, 0, 76, 77
2, 4199, Note_on_c, 0, 76, 0
2, 4200, Note_on_c, 0, 73, 77
2, 4223, Note_on_c, 0, 73, 0
2, 4248, Note_on_c, 0, 74, 78
2, 4260, Note_on_c, 0, 74, 0
2, 4260, Note_on_c, 0, 76, 78
2, 4272, Note_on_c, 0, 76, 0
2, 4272, Note_on_c, 0, 78, 78
2, 4295, Note_on_c, 0, 78, 0
2, 4296, Note_on_c, 0, 74, 79
2, 4319, Note_on_c, 0, 74, 0
2, 4344, Note_on_c, 0, 76, 79
2, 4356, Note_on_c, 0, 76, 0
2, 4356, Note_on_c, 0, 78, 80
2, 4368, Note_on_c, 0, 78, 0
2, 4368, Note_on_c, 0, 79, 80
2, 4391, Note_on_c, 0, 79, 0
2, 4392, Note_on_c, 0, 76, 80
2, 4415, Note_on_c, 0, 76, 0
2, 4440, Note_on_c, 0, 78, 81
2, 4452, Note_on_c, 0, 78, 0
2, 4452, Note_on_c, 0, 79, 81
2, 4464, Note_on_c, 0, 79, 0
2, 4464, Note_on_c, 0, 81, 81
2, 4476, Note_on_c, 0, 81, 0
2, 4476, Note_on_c, 0, 79, 81
2, 4488, Note_on_c, 0, 79, 0
2, 4488, Note_on_c, 0, 78, 81
2, 4500, Note_on_c, 0, 78, 0
2, 4500, Note_on_c, 0, 76, 81
2, 4512, Note_on_c, 0, 76, 0
2, 4512, Note_on_c, 0, 74, 81
2, 4524, Note_on_c, 0, 74, 0
2, 4524, Note_on_c, 0, 73, 81
2, 4536, Note_on_c, 0, 73, 0
2, 4536, Note_on_c, 0, 71, 81
2, 4548, Note_on_c, 0, 71, 0
2, 4548, Note_on_c, 0, 69, 81
2, 4560, Note_on_c, 0, 69, 0
2, 4560, Note_on_c, 0, 67, 81
2, 4572, Note_on_c, 0, 67, 0
2, 4572, Note_on_c, 0, 66, 81
2, 4584, Note_on_c, 0, 66, 0
2, 4584, Note_on_c, 0, 64, 81
2, 4596, Note_on_c, 0, 64, 0
2, 4596, Note_on_c, 0, 62, 81
2, 4608, Note_on_c, 0, 62, 0
2, 4608, Note_on_c, 0, 64, 81
2, 4631, Note_on_c, 0, 64, 0
2, 4632, Note_on_c, 0, 67, 81
2, 4644, Note_on_c, 0, 67, 0
2, 4644, Note_on_c, 0, 69, 81
2, 4656, Note_on_c, 0, 69, 0
2, 4656, Note_on_c, 0, 71, 81
2, 4668, Note_on_c, 0, 71, 0
2, 4668, Note_on_c, 0, 67, 81
2, 4680, Note_on_c, 0, 67, 0
2, 4680, Note_on_c, 0, 66, 81
2, 4692, Note_on_c, 0, 66, 0
2, 4692, Note_on_c, 0, 64, 81
2, 4704, Note_on_c, 0, 64, 0
2, 4704, Note_on_c, 0, 62, 81
2, 4749, Note_on_c, 0, 62, 0
2, 4752, Note_on_c, 0, 61, 81
2, 4759, Note_on_c, 0, 61, 0
2, 4759, Note_on_c, 0, 62, 81
2, 4766, Note_on_c, 0, 62, 0
2, 4766, Note_on_c, 0, 61, 81
2, 4773, Note_on_c, 0, 61, 0
2, 4773, Note_on_c, 0, 62, 81
2, 4780, Note_on_c, 0, 62, 0
2, 4780, Note_on_c, 0, 61, 81
2, 4787, Note_on_c, 0, 61, 0
2, 4787, Note_on_c, 0, 59, 81
2, 4794, Note_on_c, 0, 59, 0
2, 4794, Note_on_c, 0, 61, 81
2, 4800, Note_on_c, 0, 61, 0
2, 4800, Note_on_c, 0, 62, 81
2, 4823, Note_on_c, 0, 62, 0
2, 4824, Note_on_c, 0, 78, 81
2, 4836, Note_on_c, 0, 78, 0
2, 4836, Note_on_c, 0, 79, 81
2, 4848, Note_on_c, 0, 79, 0
2, 4848, Note_on_c, 0, 81, 81
2, 4860, Note_on_c, 0, 81, 0
2, 4860, Note_on_c, 0, 79, 81
2, 4872, Note_on_c, 0, 79, 0
2, 4872, Note_on_c, 0, 78, 81
2, 4884, Note_on_c, 0, 78, 0
2, 4884, Note_on_c, 0, 76, 81
2, 4896, Note_on_c, 0, 76, 0
2, 4896, Note_on_c, 0, 74, 81
2, 4908, Note_on_c, 0, 74, 0
2, 4908, Note_on_c, 0, 73, 81
2, 4920, Note_on_c, 0, 73, 0
2, 4920, Note_on_c, 0, 71, 81
2, 4932, Note_on_c, 0, 71, 0
2, 4932, Note_on_c, 0, 69, 81
2, 4944, Note_on_c, 0, 69, 0
2, 4944, Note_on_c, 0, 67, 81
2, 4956, Note_on_c, 0, 67, 0
2, 4956, Note_on_c, 0, 66, 81
2, 4968, Note_on_c, 0, 66, 0
2, 4968, Note_on_c, 0, 64, 81
2, 4980, Note_on_c, 0, 64, 0
2, 4980, Note_on_c, 0, 62, 81
2, 4992, Note_on_c, 0, 62, 0
2, 4992, Note_on_c, 0, 64, 81
2, 5015, Note_on_c, 0, 64, 0
2, 5016, Note_on_c, 0, 67, 81
2, 5028, Note_on_c, 0, 67, 0
2, 5028, Note_on_c, 0, 69, 81
2, 5040, Note_on_c, 0, 69, 0
2, 5040, Note_on_c, 0, 71, 81
2, 5052, Note_on_c, 0, 71, 0
2, 5052, Note_on_c, 0, 67, 81
2, 5064, Note_on_c, 0, 67, 0
2, 5064, Note_on_c, 0, 66, 81
2, 5076, Note_on_c, 0, 66, 0
2, 5076, Note_on_c, 0, 64, 81
2, 5088, Note_on_c, 0, 64, 0
2, 5088, Note_on_c, 0, 62, 81
2, 5133, Note_on_c, 0, 62, 0
2, 5136, Note_on_c, 0, 61, 81
2, 5143, Note_on_c, 0, 61, 0
2, 5143, Note_on_c, 0, 62, 81
2, 5150, Note_on_c, 0, 62, 0
2, 5150, Note_on_c, 0, 61, 81
2, 5157, Note_on_c, 0, 61, 0
2, 5157, Note_on_c, 0, 62, 81
2, 5164, Note_on_c, 0, 62, 0
2, 5164, Note_on_c, 0, 61, 81
2, 5171, Note_on_c, 0, 61, 0
2, 5171, Note_on_c, 0, 59, 81
2, 5178, Note_on_c, 0, 59, 0
2, 5178, Note_on_c, 0, 61, 81
2, 5184, Note_on_c, 0, 61, 0
2, 5184, Note_on_c, 0, 62, 81
2, 5273, Note_on_c, 0, 62, 0
2, 5328, Note_on_c, 0, 81, 66
2, 5340, Note_on_c, 0, 81, 0
2, 5340, Note_on_c, 0, 79, 66
2, 5352, Note_on_c, 0, 79, 0
2, 5352, Note_on_c, 0, 78, 66
2, 5364, Note_on_c, 0, 78, 0
2, 5364, Note_on_c, 0, 76, 66
2, 5376, Note_on_c, 0, 76, 0
2, 5376, Note_on_c, 0, 74, 66
2, 5421, Note_on_c, 0, 74, 0
2, 5424, Note_on_c, 0, 74, 66
2, 5469, Note_on_c, 0, 74, 0
2, 5472, Note_on_c, 0, 74, 66
2, 5517, Note_on_c, 0, 74, 0
2, 5520, Note_on_c, 0, 74, 66
2, 5565, Note_on_c, 0, 74, 0
2, 5568, Note_on_c, 0, 74, 66
2, 5602, Note_on_c, 0, 74, 0
2, 5604, Note_on_c, 0, 76, 66
2, 5616, Note_on_c, 0, 76, 0
2, 5616, Note_on_c, 0, 69, 66
2, 5650, Note_on_c, 0, 69, 0
2, 5652, Note_on_c, 0, 72, 66
2, 5664, Note_on_c, 0, 72, 0
2, 5664, Note_on_c, 0, 71, 66
2, 5684, Note_on_c, 0, 71, 0
2, 5712, Note_on_c, 0, 76, 66
2, 5724, Note_on_c, 0, 76, 0
2, 5724, Note_on_c, 0, 74, 66
2, 5736, Note_on_c, 0, 74, 0
2, 5736, Note_on_c, 0, 72, 66
2, 5748, Note_on_c, 0, 72, 0
2, 5748, Note_on_c, 0, 71, 66
2, 5760, Note_on_c, 0, 71, 0
2, 5760, Note_on_c, 0, 69, 66
2, 5780, Note_on_c, 0, 69, 0
2, 5808, Note_on_c, 0, 74, 66
2, 5820, Note_on_c, 0, 74, 0
2, 5820, Note_on_c, 0, 72, 66
2, 5832, Note_on_c, 0, 72, 0
2, 5832, Note_on_c, 0, 71, 66
2, 5844, Note_on_c, 0, 71, 0
2, 5844, Note_on_c, 0, 69, 66
2, 5856, Note_on_c, 0, 69, 0
2, 5856, Note_on_c, 0, 67, 66
2, 5876, Note_on_c, 0, 67, 0
2, 5904, Note_on_c, 0, 71, 66
2, 5916, Note_on_c, 0, 71, 0
2, 5916, Note_on_c, 0, 69, 66
2, 5928, Note_on_c, 0, 69, 0
2, 5928, Note_on_c, 0, 67, 66
2, 5940, Note_on_c, 0, 67, 0
2, 5940, Note_on_c, 0, 66, 66
2, 5952, Note_on_c, 0, 66, 0
2, 5952, Note_on_c, 0, 67, 66
2, 5997, Note_on_c, 0, 67, 0
2, 6000, Note_on_c, 0, 62, 66
2, 6045, Note_on_c, 0, 62, 0
2, 6096, Note_on_c, 0, 81, 66
2, 6108, Note_on_c, 0, 81, 0
2, 6108, Note_on_c, 0, 79, 66
2, 6120, Note_on_c, 0, 79, 0
2, 6120, Note_on_c, 0, 78, 66
2, 6132, Note_on_c, 0, 78, 0
2, 6132, Note_on_c, 0, 76, 66
2, 6144, Note_on_c, 0, 76, 0
2, 6144, Note_on_c, 0, 74, 66
2, 6189, Note_on_c, 0, 74, 0
2, 6192, Note_on_c, 0, 74, 66
2, 6237, Note_on_c, 0, 74, 0
2, 6240, Note_on_c, 0, 74, 66
2, 6285, Note_on_c, 0, 74, 0
2, 6288, Note_on_c, 0, 74, 66
2, 6333, Note_on_c, 0, 74, 0
2, 6336, Note_on_c, 0, 74, 66
2, 6370, Note_on_c, 0, 74, 0
2, 6372, Note_on_c, 0, 76, 66
2, 6384, Note_on_c, 0, 76, 0
2, 6384, Note_on_c, 0, 69, 66
2, 6418, Note_on_c, 0, 69, 0
2, 6420, Note_on_c, 0, 72, 66
2, 6432, Note_on_c, 0, 72, 0
2, 6432, Note_on_c, 0, 71, 66
2, 6452, Note_on_c, 0, 71, 0
2, 6480, Note_on_c, 0, 76, 66
2, 6492, Note_on_c, 0, 76, 0
2, 6492, Note_on_c, 0, 74, 66
2, 6504, Note_on_c, 0, 74, 0
2, 6504, Note_on_c, 0, 72, 66
2, 6516, Note_on_c, 0, 72, 0
2, 6516, Note_on_c, 0, 71, 66
2, 6528, Note_on_c, 0, 71, 0
2, 6528, Note_on_c, 0, 69, 66
2, 6548, Note_on_c, 0, 69, 0
2, 6576, Note_on_c, 0, 74, 66
2, 6588, Note_on_c, 0, 74, 0
2, 6588, Note_on_c, 0, 72, 66
2, 6600, Note_on_c, 0, 72, 0
2, 6600, Note_on_c, 0, 71, 66
2, 6612, Note_on_c, 0, 71, 0
2, 6612, Note_on_c, 0, 69, 66
2, 6624, Note_on_c, 0, 69, 0
2, 6624, Note_on_c, 0, 76, 66
2, 6644, Note_on_c, 0, 76, 0
2, 6672, Note_on_c, 0, 74, 66
2, 6684, Note_on_c, 0, 74, 0
2, 6684, Note_on_c, 0, 72, 66
2, 6696, Note_on_c, 0, 72, 0
2, 6696, Note_on_c, 0, 71, 66
2, 6708, Note_on_c, 0, 71, 0
2, 6708, Note_on_c, 0, 69, 66
2, 6720, Note_on_c, 0, 69, 0
2, 6720, Note_on_c, 0, 67, 66
2, 6816, Note_on_c, 0, 67, 0
2, 6816, Note_on_c, 0, 66, 66
2, 6836, Note_on_c, 0, 66, 0
2, 6864, Note_on_c, 0, 83, 66
2, 6876, Note_on_c, 0, 83, 0
2, 6876, Note_on_c, 0, 81, 66
2, 6888, Note_on_c, 0, 81, 0
2, 6888, Note_on_c, 0, 79, 66
2, 6900, Note_on_c, 0, 79, 0
2, 6900, Note_on_c, 0, 78, 66
2, 6912, Note_on_c, 0, 78, 0
2, 6912, Note_on_c, 0, 76, 66
2, 6960, Note_on_c, 0, 76, 0
2, 6960, Note_on_c, 0, 74, 66
2, 7005, Note_on_c, 0, 74, 0
2, 7056, Note_on_c, 0, 83, 66
2, 7068, Note_on_c, 0, 83, 0
2, 7068, Note_on_c, 0, 81, 66
2, 7080, Note_on_c, 0, 81, 0
2, 7080, Note_on_c, 0, 79, 66
2, 7092, Note_on_c, 0, 79, 0
2, 7092, Note_on_c, 0, 78, 66
2, 7104, Note_on_c, 0, 78, 0
2, 7104, Note_on_c, 0, 78, 66
2, 7152, Note_on_c, 0, 78, 0
2, 7152, Note_on_c, 0, 76, 66
2, 7197, Note_on_c, 0, 76, 0
2, 7248, Note_on_c, 0, 81, 66
2, 7260, Note_on_c, 0, 81, 0
2, 7260, Note_on_c, 0, 79, 66
2, 7272, Note_on_c, 0, 79, 0
2, 7272, Note_on_c, 0, 78, 66
2, 7284, Note_on_c, 0, 78, 0
2, 7284, Note_on_c, 0, 76, 66
2, 7296, Note_on_c, 0, 76, 0
2, 7296, Note_on_c, 0, 74, 66
2, 7344, Note_on_c, 0, 74, 0
2, 7344, Note_on_c, 0, 73, 66
2, 7389, Note_on_c, 0, 73, 0
2, 7408, Note_on_c, 0, 79, 66
2, 7423, Note_on_c, 0, 79, 0
2, 7424, Note_on_c, 0, 81, 66
2, 7439, Note_on_c, 0, 81, 0
2, 7440, Note_on_c, 0, 83, 66
2, 7455, Note_on_c, 0, 83, 0
2, 7456, Note_on_c, 0, 81, 66
2, 7471, Note_on_c, 0, 81, 0
2, 7472, Note_on_c, 0, 79, 66
2, 7487, Note_on_c, 0, 79, 0
2, 7488, Note_on_c, 0, 79, 66
2, 7512, Note_on_c, 0, 79, 0
2, 7512, Note_on_c, 0, 78, 66
2, 7535, Note_on_c, 0, 78, 0
2, 7560, Note_on_c, 0, 81, 67
2, 7570, Note_on_c, 0, 81, 0
2, 7584, Note_on_c, 0, 81, 67
2, 7608, Note_on_c, 0, 81, 0
2, 7608, Note_on_c, 0, 79, 68
2, 7631, Note_on_c, 0, 79, 0
2, 7632, Note_on_c, 0, 79, 68
2, 7656, Note_on_c, 0, 79, 0
2, 7656, Note_on_c, 0, 78, 69
2, 7679, Note_on_c, 0, 78, 0
2, 7680, Note_on_c, 0, 78, 69
2, 7704, Note_on_c, 0, 78, 0
2, 7704, Note_on_c, 0, 76, 70
2, 7727, Note_on_c, 0, 76, 0
2, 7728, Note_on_c, 0, 76, 70
2, 7752, Note_on_c, 0, 76, 0
2, 7752, Note_on_c, 0, 74, 71
2, 7775, Note_on_c, 0, 74, 0
2, 7776, Note_on_c, 0, 74, 71
2, 7800, Note_on_c, 0, 74, 0
2, 7800, Note_on_c, 0, 73, 72
2, 7823, Note_on_c, 0, 73, 0
2, 7824, Note_on_c, 0, 76, 72
2, 7848, Note_on_c, 0, 76, 0
2, 7848, Note_on_c, 0, 79, 73
2, 7871, Note_on_c, 0, 79, 0
2, 7872, Note_on_c, 0, 79, 73
2, 7896, Note_on_c, 0, 79, 0
2, 7896, Note_on_c, 0, 78, 74
2, 7919, Note_on_c, 0, 78, 0
2, 7944, Note_on_c, 0, 81, 66
2, 7954, Note_on_c, 0, 81, 0
2, 7968, Note_on_c, 0, 81, 66
2, 7974, Note_on_c, 0, 81, 0
2, 7974, Note_on_c, 0, 83, 66
2, 7980, Note_on_c, 0, 83, 0
2, 7980, Note_on_c, 0, 81, 66
2, 7991, Note_on_c, 0, 81, 0
2, 7992, Note_on_c, 0, 79, 67
2, 8015, Note_on_c, 0, 79, 0
2, 8016, Note_on_c, 0, 79, 68
2, 8022, Note_on_c, 0, 79, 0
2, 8022, Note_on_c, 0, 81, 68
2, 8028, Note_on_c, 0, 81, 0
2, 8028, Note_on_c, 0, 79, 68
2, 8039, Note_on_c, 0, 79, 0
2, 8040, Note_on_c, 0, 78, 68
2, 8063, Note_on_c, 0, 78, 0
2, 8064, Note_on_c, 0, 78, 69
2, 8070, Note_on_c, 0, 78, 0
2, 8070, Note_on_c, 0, 79, 69
2, 8076, Note_on_c, 0, 79, 0
2, 8076, Note_on_c, 0, 78, 69
2, 8087, Note_on_c, 0, 78, 0
2, 8088, Note_on_c, 0, 76, 70
2, 8111, Note_on_c, 0, 76, 0
2, 8112, Note_on_c, 0, 76, 70
2, 8118, Note_on_c, 0, 76, 0
2, 8118, Note_on_c, 0, 78, 70
2, 8124, Note_on_c, 0, 78, 0
2, 8124, Note_on_c, 0, 76, 70
2, 8135, Note_on_c, 0, 76, 0
2, 8136, Note_on_c, 0, 74, 71
2, 8159, Note_on_c, 0, 74, 0
2, 8160, Note_on_c, 0, 74, 72
2, 8166, Note_on_c, 0, 74, 0
2, 8166, Note_on_c, 0, 76, 72
2, 8172, Note_on_c, 0, 76, 0
2, 8172, Note_on_c, 0, 74, 72
2, 8183, Note_on_c, 0, 74, 0
2, 8184, Note_on_c, 0, 73, 72
2, 8207, Note_on_c, 0, 73, 0
2, 8208, Note_on_c, 0, 76, 73
2, 8232, Note_on_c, 0, 76, 0
2, 8232, Note_on_c, 0, 79, 74
2, 8255, Note_on_c, 0, 79, 0
2, 8256, Note_on_c, 0, 78, 70
2, 8279, Note_on_c, 0, 78, 0
2, 8280, Note_on_c, 0, 74, 70
2, 8303, Note_on_c, 0, 74, 0
2, 8304, Note_on_c, 0, 76, 71
2, 8327, Note_on_c, 0, 76, 0
2, 8328, Note_on_c, 0, 78, 71
2, 8351, Note_on_c, 0, 78, 0
2, 8352, Note_on_c, 0, 79, 72
2, 8375, Note_on_c, 0, 79, 0
2, 8376, Note_on_c, 0, 80, 73
2, 8399, Note_on_c, 0, 80, 0
2, 8400, Note_on_c, 0, 81, 73
2, 8423, Note_on_c, 0, 81, 0
2, 8424, Note_on_c, 0, 82, 74
2, 8447, Note_on_c, 0, 82, 0
2, 8448, Note_on_c, 0, 83, 75
2, 8567, Note_on_c, 0, 83, 0
2, 8568, Note_on_c, 0, 79, 75
2, 8580, Note_on_c, 0, 79, 0
2, 8580, Note_on_c, 0, 81, 75
2, 8592, Note_on_c, 0, 81, 0
2, 8592, Note_on_c, 0, 83, 75
2, 8615, Note_on_c, 0, 83, 0
2, 8616, Note_on_c, 0, 79, 75
2, 8639, Note_on_c, 0, 79, 0
2, 8640, Note_on_c, 0, 78, 75
2, 8647, Note_on_c, 0, 78, 0
2, 8647, Note_on_c, 0, 79, 74
2, 8654, Note_on_c, 0, 79, 0
2, 8654, Note_on_c, 0, 78, 74
2, 8661, Note_on_c, 0, 78, 0
2, 8661, Note_on_c, 0, 79, 73
2, 8668, Note_on_c, 0, 79, 0
2, 8668, Note_on_c, 0, 78, 73
2, 8675, Note_on_c, 0, 78, 0
2, 8675, Note_on_c, 0, 76, 73
2, 8682, Note_on_c, 0, 76, 0
2, 8682, Note_on_c, 0, 78, 72
2, 8688, Note_on_c, 0, 78, 0
2, 8688, Note_on_c, 0, 79, 72
2, 8711, Note_on_c, 0, 79, 0
2, 8712, Note_on_c, 0, 76, 70
2, 8735, Note_on_c, 0, 76, 0
2, 8736, Note_on_c, 0, 74, 69
2, 8781, Note_on_c, 0, 74, 0
2, 8784, Note_on_c, 0, 73, 66
2, 8791, Note_on_c, 0, 73, 0
2, 8791, Note_on_c, 0, 74, 66
2, 8798, Note_on_c, 0, 74, 0
2, 8798, Note_on_c, 0, 73, 66
2, 8805, Note_on_c, 0, 73, 0
2, 8805, Note_on_c, 0, 74, 66
2, 8812, Note_on_c, 0, 74, 0
2, 8812, Note_on_c, 0, 73, 66
2, 8819, Note_on_c, 0, 73, 0
2, 8819, Note_on_c, 0, 71, 66
2, 8826, Note_on_c, 0, 71, 0
2, 8826, Note_on_c, 0, 73, 66
2, 8832, Note_on_c, 0, 73, 0
2, 8832, Note_on_c, 0, 74, 66
2, 8855, Note_on_c, 0, 74, 0
2, 8856, Note_on_c, 0, 74, 66
2, 8879, Note_on_c, 0, 74, 0
2, 8880, Note_on_c, 0, 76, 67
2, 8903, Note_on_c, 0, 76, 0
2, 8904, Note_on_c, 0, 78, 69
2, 8927, Note_on_c, 0, 78, 0
2, 8928, Note_on_c, 0, 79, 70
2, 8951, Note_on_c, 0, 79, 0
2, 8952, Note_on_c, 0, 80, 72
2, 8975, Note_on_c, 0, 80, 0
2, 8976, Note_on_c, 0, 81, 73
2, 8999, Note_on_c, 0, 81, 0
2, 9000, Note_on_c, 0, 82, 75
2, 9023, Note_on_c, 0, 82, 0
2, 9024, Note_on_c, 0, 83, 75
2, 9143, Note_on_c, 0, 83, 0
2, 9144, Note_on_c, 0, 79, 75
2, 9156, Note_on_c, 0, 79, 0
2, 9156, Note_on_c, 0, 81, 75
2, 9168, Note_on_c, 0, 81, 0
2, 9168, Note_on_c, 0, 83, 75
2, 9191, Note_on_c, 0, 83, 0
2, 9192, Note_on_c, 0, 79, 75
2, 9215, Note_on_c, 0, 79, 0
2, 9240, Note_on_c, 0, 78, 75
2, 9252, Note_on_c, 0, 78, 0
2, 9252, Note_on_c, 0, 79, 75
2, 9264, Note_on_c, 0, 79, 0
2, 9264, Note_on_c, 0, 81, 75
2, 9287, Note_on_c, 0, 81, 0
2, 9288, Note_on_c, 0, 74, 75
2, 9311, Note_on_c, 0, 74, 0
2, 9336, Note_on_c, 0, 73, 76
2, 9348, Note_on_c, 0, 73, 0
2, 9348, Note_on_c, 0, 74, 76
2, 9360, Note_on_c, 0, 74, 0
2, 9360, Note_on_c, 0, 76, 77
2, 9383, Note_on_c, 0, 76, 0
2, 9384, Note_on_c, 0, 73, 77
2, 9407, Note_on_c, 0, 73, 0
2, 9432, Note_on_c, 0, 74, 78
2, 9444, Note_on_c, 0, 74, 0
2, 9444, Note_on_c, 0, 76, 78
2, 9456, Note_on_c, 0, 76, 0
2, 9456, Note_on_c, 0, 78, 78
2, 9479, Note_on_c, 0, 78, 0
2, 9480, Note_on_c, 0, 74, 79
2, 9503, Note_on_c, 0, 74, 0
2, 9528, Note_on_c, 0, 76, 79
2, 9540, Note_on_c, 0, 76, 0
2, 9540, Note_on_c, 0, 78, 80
2, 9552, Note_on_c, 0, 78, 0
2, 9552, Note_on_c, 0, 79, 80
2, 9575, Note_on_c, 0, 79, 0
2, 9576, Note_on_c, 0, 76, 80
2, 9599, Note_on_c, 0, 76, 0
2, 9624, Note_on_c, 0, 78, 81
2, 9636, Note_on_c, 0, 78, 0
2, 9636, Note_on_c, 0, 79, 81
2, 9648, Note_on_c, 0, 79, 0
2, 9648, Note_on_c, 0, 81, 81
2, 9660, Note_on_c, 0, 81, 0
2, 9660, Note_on_c, 0, 79, 81
2, 9672, Note_on_c, 0, 79, 0
2, 9672, Note_on_c, 0, 78, 81
2, 9684, Note_on_c, 0, 78, 0
2, 9684, Note_on_c, 0, 76, 81
2, 9696, Note_on_c, 0, 76, 0
2, 9696, Note_on_c, 0, 74, 81
2, 9708, Note_on_c, 0, 74, 0
2, 9708, Note_on_c, 0, 73, 81
2, 9720, Note_on_c, 0, 73, 0
2, 9720, Note_on_c, 0, 71, 81
2, 9732, Note_on_c, 0, 71, 0
2, 9732, Note_on_c, 0, 69, 81
2, 9744, Note_on_c, 0, 69, 0
2, 9744, Note_on_c, 0, 67, 81
2, 9756, Note_on_c, 0, 67, 0
2, 9756, Note_on_c, 0, 66, 81
2, 9768, Note_on_c, 0, 66, 0
2, 9768, Note_on_c, 0, 64, 81
2, 9780, Note_on_c, 0, 64, 0
2, 9780, Note_on_c, 0, 62, 81
2, 9792, Note_on_c, 0, 62, 0
2, 9792, Note_on_c, 0, 64, 81
2, 9815, Note_on_c, 0, 64, 0
2, 9816, Note_on_c, 0, 67, 81
2, 9828, Note_on_c, 0, 67, 0
2, 9828, Note_on_c, 0, 69, 81
2, 9840, Note_on_c, 0, 69, 0
2, 9840, Note_on_c, 0, 71, 81
2, 9852, Note_on_c, 0, 71, 0
2, 9852, Note_on_c, 0, 67, 81
2, 9864, Note_on_c, 0, 67, 0
2, 9864, Note_on_c, 0, 66, 81
2, 9876, Note_on_c, 0, 66, 0
2, 9876, Note_on_c, 0, 64, 81
2, 9888, Note_on_c, 0, 64, 0
2, 9888, Note_on_c, 0, 62, 81
2, 9933, Note_on_c, 0, 62, 0
2, 9936, Note_on_c, 0, 61, 81
2, 9943, Note_on_c, 0, 61, 0
2, 9943, Note_on_c, 0, 62, 81
2, 9950, Note_on_c, 0, 62, 0
2, 9950, Note_on_c, 0, 61, 81
2, 9957, Note_on_c, 0, 61, 0
2, 9957, Note_on_c, 0, 62, 81
2, 9964, Note_on_c, 0, 62, 0
2, 9964, Note_on_c, 0, 61, 81
2, 9971, Note_on_c, 0, 61, 0
2, 9971, Note_on_c, 0, 59, 81
2, 9978, Note_on_c, 0, 59, 0
2, 9978, Note_on_c, 0, 61, 81
2, 9984, Note_on_c, 0, 61, 0
2, 9984, Note_on_c, 0, 62, 81
2, 10007, Note_on_c, 0, 62, 0
2, 10008, Note_on_c, 0, 78, 81
2, 10020, Note_on_c, 0, 78, 0
2, 10020, Note_on_c, 0, 79, 81
2, 10032, Note_on_c, 0, 79, 0
2, 10032, Note_on_c, 0, 81, 81
2, 10044, Note_on_c, 0, 81, 0
2, 10044, Note_on_c, 0, 79, 81
2, 10056, Note_on_c, 0, 79, 0
2, 10056, Note_on_c, 0, 78, 81
2, 10068, Note_on_c, 0, 78, 0
2, 10068, Note_on_c, 0, 76, 81
2, 10080, Note_on_c, 0, 76, 0
2, 10080, Note_on_c, 0, 74, 81
2, 10092, Note_on_c, 0, 74, 0
2, 10092, Note_on_c, 0, 73, 81
2, 10104, Note_on_c, 0, 73, 0
2, 10104, Note_on_c, 0, 71, 81
2, 10116, Note_on_c, 0, 71, 0
2, 10116, Note_on_c, 0, 69, 81
2, 10128, Note_on_c, 0, 69, 0
2, 10128, Note_on_c, 0, 67, 81
2, 10140, Note_on_c, 0, 67, 0
2, 10140, Note_on_c, 0, 66, 81
2, 10152, Note_on_c, 0, 66, 0
2, 10152, Note_on_c, 0, 64, 81
2, 10164, Note_on_c, 0, 64, 0
2, 10164, Note_on_c, 0, 62, 81
2, 10176, Note_on_c, 0, 62, 0
2, 10176, Note_on_c, 0, 64, 81
2, 10199, Note_on_c, 0, 64, 0
2, 10200, Note_on_c, 0, 67, 81
2, 10212, Note_on_c, 0, 67, 0
2, 10212, Note_on_c, 0, 69, 81
2, 10224, Note_on_c, 0, 69, 0
2, 10224, Note_on_c, 0, 71, 81
2, 10236, Note_on_c, 0, 71, 0
2, 10236, Note_on_c, 0, 67, 81
2, 10248, Note_on_c, 0, 67, 0
2, 10248, Note_on_c, 0, 66, 81
2, 10260, Note_on_c, 0, 66, 0
2, 10260, Note_on_c, 0, 64, 81
2, 10272, Note_on_c, 0, 64, 0
2, 10272, Note_on_c, 0, 62, 81
2, 10317, Note_on_c, 0, 62, 0
2, 10320, Note_on_c, 0, 61, 81
2, 10327, Note_on_c, 0, 61, 0
2, 10327, Note_on_c, 0, 62, 81
2, 10334, Note_on_c, 0, 62, 0
2, 10334, Note_on_c, 0, 61, 81
2, 10341, Note_on_c, 0, 61, 0
2, 10341, Note_on_c, 0, 62, 81
2, 10348, Note_on_c, 0, 62, 0
2, 10348, Note_on_c, 0, 61, 81
2, 10355, Note_on_c, 0, 61, 0
2, 10355, Note_on_c, 0, 59, 81
2, 10362, Note_on_c, 0, 59, 0
2, 10362, Note_on_c, 0, 61, 81
2, 10368, Note_on_c, 0, 61, 0
2, 10368, Note_on_c, 0, 62, 81
2, 10457, Note_on_c, 0, 62, 0
2, 10512, Note_on_c, 0, 76, 66
2, 10524, Note_on_c, 0, 76, 0
2, 10524, Note_on_c, 0, 74, 66
2, 10536, Note_on_c, 0, 74, 0
2, 10536, Note_on_c, 0, 73, 66
2, 10548, Note_on_c, 0, 73, 0
2, 10548, Note_on_c, 0, 71, 66
2, 10560, Note_on_c, 0, 71, 0
2, 10560, Note_on_c, 0, 69, 66
2, 10605, Note_on_c, 0, 69, 0
2, 10608, Note_on_c, 0, 69, 66
2, 10653, Note_on_c, 0, 69, 0
2, 10656, Note_on_c, 0, 69, 66
2, 10701, Note_on_c, 0, 69, 0
2, 10704, Note_on_c, 0, 69, 66
2, 10749, Note_on_c, 0, 69, 0
2, 10752, Note_on_c, 0, 69, 66
2, 10786, Note_on_c, 0, 69, 0
2, 10788, Note_on_c, 0, 71, 66
2, 10800, Note_on_c, 0, 71, 0
2, 10800, Note_on_c, 0, 64, 66
2, 10834, Note_on_c, 0, 64, 0
2, 10836, Note_on_c, 0, 67, 66
2, 10848, Note_on_c, 0, 67, 0
2, 10848, Note_on_c, 0, 66, 66
2, 10893, Note_on_c, 0, 66, 0
2, 10896, Note_on_c, 0, 71, 66
2, 10908, Note_on_c, 0, 71, 0
2, 10908, Note_on_c, 0, 69, 66
2, 10920, Note_on_c, 0, 69, 0
2, 10920, Note_on_c, 0, 67, 66
2, 10932, Note_on_c, 0, 67, 0
2, 10932, Note_on_c, 0, 66, 66
2, 10944, Note_on_c, 0, 66, 0
2, 10944, Note_on_c, 0, 64, 66
2, 10989, Note_on_c, 0, 64, 0
2, 10992, Note_on_c, 0, 69, 66
2, 11004, Note_on_c, 0, 69, 0
2, 11004, Note_on_c, 0, 67, 66
2, 11016, Note_on_c, 0, 67, 0
2, 11016, Note_on_c, 0, 66, 66
2, 11028, Note_on_c, 0, 66, 0
2, 11028, Note_on_c, 0, 64, 66
2, 11040, Note_on_c, 0, 64, 0
2, 11040, Note_on_c, 0, 62, 66
2, 11085, Note_on_c, 0, 62, 0
2, 11088, Note_on_c, 0, 66, 66
2, 11100, Note_on_c, 0, 66, 0
2, 11100, Note_on_c, 0, 64, 66
2, 11112, Note_on_c, 0, 64, 0
2, 11112, Note_on_c, 0, 62, 66
2, 11124, Note_on_c, 0, 62, 0
2, 11124, Note_on_c, 0, 61, 66
2, 11136, Note_on_c, 0, 61, 0
2, 11136, Note_on_c, 0, 62, 66
2, 11181, Note_on_c, 0, 62, 0
2, 11184, Note_on_c, 0, 57, 66
2, 11229, Note_on_c, 0, 57, 0
2, 11280, Note_on_c, 0, 81, 66
2, 11292, Note_on_c, 0, 81, 0
2, 11292, Note_on_c, 0, 79, 66
2, 11304, Note_on_c, 0, 79, 0
2, 11304, Note_on_c, 0, 78, 66
2, 11316, Note_on_c, 0, 78, 0
2, 11316, Note_on_c, 0, 76, 66
2, 11328, Note_on_c, 0, 76, 0
2, 11328, Note_on_c, 0, 74, 66
2, 11373, Note_on_c, 0, 74, 0
2, 11376, Note_on_c, 0, 74, 66
2, 11421, Note_on_c, 0, 74, 0
2, 11424, Note_on_c, 0, 74, 66
2, 11469, Note_on_c, 0, 74, 0
2, 11472, Note_on_c, 0, 74, 66
2, 11517, Note_on_c, 0, 74, 0
2, 11520, Note_on_c, 0, 74, 66
2, 11554, Note_on_c, 0, 74, 0
2, 11556, Note_on_c, 0, 76, 66
2, 11568, Note_on_c, 0, 76, 0
2, 11568, Note_on_c, 0, 69, 66
2, 11602, Note_on_c, 0, 69, 0
2, 11604, Note_on_c, 0, 72, 66
2, 11616, Note_on_c, 0, 72, 0
2, 11616, Note_on_c, 0, 71, 66
2, 11636, Note_on_c, 0, 71, 0
2, 11664, Note_on_c, 0, 76, 66
2, 11676, Note_on_c, 0, 76, 0
2, 11676, Note_on_c, 0, 74, 66
2, 11688, Note_on_c, 0, 74, 0
2, 11688, Note_on_c, 0, 72, 66
2, 11700, Note_on_c, 0, 72, 0
2, 11700, Note_on_c, 0, 71, 66
2, 11712, Note_on_c, 0, 71, 0
2, 11712, Note_on_c, 0, 69, 66
2, 11732, Note_on_c, 0, 69, 0
2, 11760, Note_on_c, 0, 74, 66
2, 11772, Note_on_c, 0, 74, 0
2, 11772, Note_on_c, 0, 72, 66
2, 11784, Note_on_c, 0, 72, 0
2, 11784, Note_on_c, 0, 71, 66
2, 11796, Note_on_c, 0, 71, 0
2, 11796, Note_on_c, 0, 69, 66
2, 11808, Note_on_c, 0, 69, 0
2, 11808, Note_on_c, 0, 67, 66
2, 11828, Note_on_c, 0, 67, 0
2, 11856, Note_on_c, 0, 71, 66
2, 11868, Note_on_c, 0, 71, 0
2, 11868, Note_on_c, 0, 69, 66
2, 11880, Note_on_c, 0, 69, 0
2, 11880, Note_on_c, 0, 67, 66
2, 11892, Note_on_c, 0, 67, 0
2, 11892, Note_on_c, 0, 66, 66
2, 11904, Note_on_c, 0, 66, 0
2, 11904, Note_on_c, 0, 67, 66
2, 11993, Note_on_c, 0, 67, 0
2, 12024, Note_on_c, 0, 67, 66
2, 12036, Note_on_c, 0, 67, 0
2, 12036, Note_on_c, 0, 69, 66
2, 12048, Note_on_c, 0, 69, 0
2, 12048, Note_on_c, 0, 71, 66
2, 12071, Note_on_c, 0, 71, 0
2, 12072, Note_on_c, 0, 67, 66
2, 12095, Note_on_c, 0, 67, 0
2, 12120, Note_on_c, 0, 72, 66
2, 12132, Note_on_c, 0, 72, 0
2, 12132, Note_on_c, 0, 74, 66
2, 12144, Note_on_c, 0, 74, 0
2, 12144, Note_on_c, 0, 76, 67
2, 12167, Note_on_c, 0, 76, 0
2, 12168, Note_on_c, 0, 72, 67
2, 12191, Note_on_c, 0, 72, 0
2, 12216, Note_on_c, 0, 74, 68
2, 12228, Note_on_c, 0, 74, 0
2, 12228, Note_on_c, 0, 76, 68
2, 12240, Note_on_c, 0, 76, 0
2, 12240, Note_on_c, 0, 77, 69
2, 12263, Note_on_c, 0, 77, 0
2, 12264, Note_on_c, 0, 74, 69
2, 12287, Note_on_c, 0, 74, 0
2, 12288, Note_on_c, 0, 76, 70
2, 12377, Note_on_c, 0, 76, 0
2, 12408, Note_on_c, 0, 69, 72
2, 12420, Note_on_c, 0, 69, 0
2, 12420, Note_on_c, 0, 71, 73
2, 12432, Note_on_c, 0, 71, 0
2, 12432, Note_on_c, 0, 73, 73
2, 12455, Note_on_c, 0, 73, 0
2, 12456, Note_on_c, 0, 69, 74
2, 12479, Note_on_c, 0, 69, 0
2, 12504, Note_on_c, 0, 74, 75
2, 12516, Note_on_c, 0, 74, 0
2, 12516, Note_on_c, 0, 76, 75
2, 12528, Note_on_c, 0, 76, 0
2, 12528, Note_on_c, 0, 78, 75
2, 12551, Note_on_c, 0, 78, 0
2, 12552, Note_on_c, 0, 74, 76
2, 12575, Note_on_c, 0, 74, 0
2, 12600, Note_on_c, 0, 76, 77
2, 12612, Note_on_c, 0, 76, 0
2, 12612, Note_on_c, 0, 78, 77
2, 12624, Note_on_c, 0, 78, 0
2, 12624, Note_on_c, 0, 79, 77
2, 12647, Note_on_c, 0, 79, 0
2, 12648, Note_on_c, 0, 76, 78
2, 12671, Note_on_c, 0, 76, 0
2, 12672, Note_on_c, 0, 78, 78
2, 12761, Note_on_c, 0, 78, 0
2, 12792, Note_on_c, 0, 71, 81
2, 12804, Note_on_c, 0, 71, 0
2, 12804, Note_on_c, 0, 73, 81
2, 12816, Note_on_c, 0, 73, 0
2, 12816, Note_on_c, 0, 75, 81
2, 12839, Note_on_c, 0, 75, 0
2, 12840, Note_on_c, 0, 71, 81
2, 12863, Note_on_c, 0, 71, 0
2, 12888, Note_on_c, 0, 76, 81
2, 12900, Note_on_c, 0, 76, 0
2, 12900, Note_on_c, 0, 78, 81
2, 12912, Note_on_c, 0, 78, 0
2, 12912, Note_on_c, 0, 79, 81
2, 12935, Note_on_c, 0, 79, 0
2, 12936, Note_on_c, 0, 76, 81
2, 12959, Note_on_c, 0, 76, 0
2, 12984, Note_on_c, 0, 78, 81
2, 12996, Note_on_c, 0, 78, 0
2, 12996, Note_on_c, 0, 79, 81
2, 13008, Note_on_c, 0, 79, 0
2, 13008, Note_on_c, 0, 81, 81
2, 13031, Note_on_c, 0, 81, 0
2, 13032, Note_on_c, 0, 78, 81
2, 13055, Note_on_c, 0, 78, 0
2, 13056, Note_on_c, 0, 79, 81
2, 13101, Note_on_c, 0, 79, 0
2, 13128, Note_on_c, 0, 83, 66
2, 13138, Note_on_c, 0, 83, 0
2, 13152, Note_on_c, 0, 83, 66
2, 13176, Note_on_c, 0, 83, 0
2, 13176, Note_on_c, 0, 81, 67
2, 13199, Note_on_c, 0, 81, 0
2, 13200, Note_on_c, 0, 81, 67
2, 13224, Note_on_c, 0, 81, 0
2, 13224, Note_on_c, 0, 79, 68
2, 13247, Note_on_c, 0, 79, 0
2, 13248, Note_on_c, 0, 79, 69
2, 13272, Note_on_c, 0, 79, 0
2, 13272, Note_on_c, 0, 78, 69
2, 13295, Note_on_c, 0, 78, 0
2, 13296, Note_on_c, 0, 78, 70
2, 13320, Note_on_c, 0, 78, 0
2, 13320, Note_on_c, 0, 76, 71
2, 13343, Note_on_c, 0, 76, 0
2, 13344, Note_on_c, 0, 76, 71
2, 13368, Note_on_c, 0, 76, 0
2, 13368, Note_on_c, 0, 75, 72
2, 13391, Note_on_c, 0, 75, 0
2, 13392, Note_on_c, 0, 78, 73
2, 13416, Note_on_c, 0, 78, 0
2, 13416, Note_on_c, 0, 81, 73
2, 13439, Note_on_c, 0, 81, 0
2, 13440, Note_on_c, 0, 81, 74
2, 13464, Note_on_c, 0, 81, 0
2, 13464, Note_on_c, 0, 79, 75
2, 13487, Note_on_c, 0, 79, 0
2, 13512, Note_on_c, 0, 83, 66
2, 13522, Note_on_c, 0, 83, 0
2, 13536, Note_on_c, 0, 83, 67
2, 13542, Note_on_c, 0, 83, 0
2, 13542, Note_on_c, 0, 84, 67
2, 13548, Note_on_c, 0, 84, 0
2, 13548, Note_on_c, 0, 83, 67
2, 13559, Note_on_c, 0, 83, 0
2, 13560, Note_on_c, 0, 81, 68
2, 13583, Note_on_c, 0, 81, 0
2, 13584, Note_on_c, 0, 81, 69
2, 13590, Note_on_c, 0, 81, 0
2, 13590, Note_on_c, 0, 83, 69
2, 13596, Note_on_c, 0, 83, 0
2, 13596, Note_on_c, 0, 81, 69
2, 13607, Note_on_c, 0, 81, 0
2, 13608, Note_on_c, 0, 79, 70
2, 13631, Note_on_c, 0, 79, 0
2, 13632, Note_on_c, 0, 79, 71
2, 13638, Note_on_c, 0, 79, 0
2, 13638, Note_on_c, 0, 81, 71
2, 13644, Note_on_c, 0, 81, 0
2, 13644, Note_on_c, 0, 79, 71
2, 13655, Note_on_c, 0, 79, 0
2, 13656, Note_on_c, 0, 78, 72
2, 13679, Note_on_c, 0, 78, 0
2, 13680, Note_on_c, 0, 78, 73
2, 13686, Note_on_c, 0, 78, 0
2, 13686, Note_on_c, 0, 79, 73
2, 13692, Note_on_c, 0, 79, 0
2, 13692, Note_on_c, 0, 78, 73
2, 13703, Note_on_c, 0, 78, 0
2, 13704, Note_on_c, 0, 76, 74
2, 13727, Note_on_c, 0, 76, 0
2, 13728, Note_on_c, 0, 76, 75
2, 13734, Note_on_c, 0, 76, 0
2, 13734, Note_on_c, 0, 78, 75
2, 13740, Note_on_c, 0, 78, 0
2, 13740, Note_on_c, 0, 76, 75
2, 13751, Note_on_c, 0, 76, 0
2, 13752, Note_on_c, 0, 75, 76
2, 13775, Note_on_c, 0, 75, 0
2, 13776, Note_on_c, 0, 78, 77
2, 13799, Note_on_c, 0, 78, 0
2, 13800, Note_on_c, 0, 81, 78
2, 13823, Note_on_c, 0, 81, 0
2, 13824, Note_on_c, 0, 79, 79
2, 13847, Note_on_c, 0, 79, 0
2, 13848, Note_on_c, 0, 76, 81
2, 13860, Note_on_c, 0, 76, 0
2, 13860, Note_on_c, 0, 78, 81
2, 13872, Note_on_c, 0, 78, 0
2, 13872, Note_on_c, 0, 79, 81
2, 13884, Note_on_c, 0, 79, 0
2, 13884, Note_on_c, 0, 78, 81
2, 13896, Note_on_c, 0, 78, 0
2, 13896, Note_on_c, 0, 79, 81
2, 13908, Note_on_c, 0, 79, 0
2, 13908, Note_on_c, 0, 81, 81
2, 13920, Note_on_c, 0, 81, 0
2, 13920, Note_on_c, 0, 83, 81
2, 13930, Note_on_c, 0, 83, 0
2, 13944, Note_on_c, 0, 79, 81
2, 13954, Note_on_c, 0, 79, 0
2, 13968, Note_on_c, 0, 76, 81
2, 13978, Note_on_c, 0, 76, 0
2, 13992, Note_on_c, 0, 71, 81
2, 14002, Note_on_c, 0, 71, 0
2, 14016, Note_on_c, 0, 74, 81
2, 14028, Note_on_c, 0, 74, 0
2, 14028, Note_on_c, 0, 72, 81
2, 14040, Note_on_c, 0, 72, 0
2, 14040, Note_on_c, 0, 71, 81
2, 14052, Note_on_c, 0, 71, 0
2, 14052, Note_on_c, 0, 69, 81
2, 14064, Note_on_c, 0, 69, 0
2, 14064, Note_on_c, 0, 69, 81
2, 14076, Note_on_c, 0, 69, 0
2, 14076, Note_on_c, 0, 67, 81
2, 14088, Note_on_c, 0, 67, 0
2, 14088, Note_on_c, 0, 66, 81
2, 14100, Note_on_c, 0, 66, 0
2, 14100, Note_on_c, 0, 64, 81
2, 14112, Note_on_c, 0, 64, 0
2, 14112, Note_on_c, 0, 66, 81
2, 14120, Note_on_c, 0, 66, 0
2, 14120, Note_on_c, 0, 67, 81
2, 14128, Note_on_c, 0, 67, 0
2, 14128, Note_on_c, 0, 66, 81
2, 14136, Note_on_c, 0, 66, 0
2, 14136, Note_on_c, 0, 67, 81
2, 14144, Note_on_c, 0, 67, 0
2, 14144, Note_on_c, 0, 66, 81
2, 14152, Note_on_c, 0, 66, 0
2, 14152, Note_on_c, 0, 67, 81
2, 14159, Note_on_c, 0, 67, 0
2, 14159, Note_on_c, 0, 66, 81
2, 14166, Note_on_c, 0, 66, 0
2, 14166, Note_on_c, 0, 67, 81
2, 14173, Note_on_c, 0, 67, 0
2, 14173, Note_on_c, 0, 66, 81
2, 14180, Note_on_c, 0, 66, 0
2, 14180, Note_on_c, 0, 64, 81
2, 14194, Note_on_c, 0, 64, 0
2, 14194, Note_on_c, 0, 66, 81
2, 14208, Note_on_c, 0, 66, 0
2, 14208, Note_on_c, 0, 64, 81
2, 14253, Note_on_c, 0, 64, 0
2, 14352, Note_on_c, 0, 81, 66
2, 14364, Note_on_c, 0, 81, 0
2, 14364, Note_on_c, 0, 79, 66
2, 14376, Note_on_c, 0, 79, 0
2, 14376, Note_on_c, 0, 77, 66
2, 14388, Note_on_c, 0, 77, 0
2, 14388, Note_on_c, 0, 76, 66
2, 14400, Note_on_c, 0, 76, 0
2, 14400, Note_on_c, 0, 74, 66
2, 14448, Note_on_c, 0, 74, 0
2, 14448, Note_on_c, 0, 72, 66
2, 14493, Note_on_c, 0, 72, 0
2, 14512, Note_on_c, 0, 72, 66
2, 14527, Note_on_c, 0, 72, 0
2, 14528, Note_on_c, 0, 74, 66
2, 14543, Note_on_c, 0, 74, 0
2, 14544, Note_on_c, 0, 76, 66
2, 14559, Note_on_c, 0, 76, 0
2, 14560, Note_on_c, 0, 74, 66
2, 14575, Note_on_c, 0, 74, 0
2, 14576, Note_on_c, 0, 72, 66
2, 14591, Note_on_c, 0, 72, 0
2, 14592, Note_on_c, 0, 72, 66
2, 14640, Note_on_c, 0, 72, 0
2, 14640, Note_on_c, 0, 71, 66
2, 14685, Note_on_c, 0, 71, 0
2, 14704, Note_on_c, 0, 71, 66
2, 14719, Note_on_c, 0, 71, 0
2, 14720, Note_on_c, 0, 72, 66
2, 14735, Note_on_c, 0, 72, 0
2, 14736, Note_on_c, 0, 74, 66
2, 14751, Note_on_c, 0, 74, 0
2, 14752, Note_on_c, 0, 72, 66
2, 14767, Note_on_c, 0, 72, 0
2, 14768, Note_on_c, 0, 71, 66
2, 14783, Note_on_c, 0, 71, 0
2, 14800, Note_on_c, 0, 69, 66
2, 14815, Note_on_c, 0, 69, 0
2, 14816, Note_on_c, 0, 71, 66
2, 14831, Note_on_c, 0, 71, 0
2, 14832, Note_on_c, 0, 72, 66
2, 14847, Note_on_c, 0, 72, 0
2, 14848, Note_on_c, 0, 71, 67
2, 14863, Note_on_c, 0, 71, 0
2, 14864, Note_on_c, 0, 69, 67
2, 14879, Note_on_c, 0, 69, 0
2, 14896, Note_on_c, 0, 67, 68
2, 14911, Note_on_c, 0, 67, 0
2, 14912, Note_on_c, 0, 69, 68
2, 14927, Note_on_c, 0, 69, 0
2, 14928, Note_on_c, 0, 71, 68
2, 14943, Note_on_c, 0, 71, 0
2, 14944, Note_on_c, 0, 69, 69
2, 14959, Note_on_c, 0, 69, 0
2, 14960, Note_on_c, 0, 67, 69
2, 14975, Note_on_c, 0, 67, 0
2, 14976, Note_on_c, 0, 67, 69
2, 14999, Note_on_c, 0, 67, 0
2, 15000, Note_on_c, 0, 66, 70
2, 15023, Note_on_c, 0, 66, 0
2, 15024, Note_on_c, 0, 72, 71
2, 15024, Note_on_c, 0, 69, 71
2, 15113, Note_on_c, 0, 72, 0
2, 15113, Note_on_c, 0, 69, 0
2, 15120, Note_on_c, 0, 71, 75
2, 15120, Note_on_c, 0, 67, 75
2, 15165, Note_on_c, 0, 71, 0
2, 15165, Note_on_c, 0, 67, 0
2, 15168, Note_on_c, 0, 72, 73
2, 15174, Note_on_c, 0, 72, 0
2, 15174, Note_on_c, 0, 71, 73
2, 15180, Note_on_c, 0, 71, 0
2, 15180, Note_on_c, 0, 69, 73
2, 15186, Note_on_c, 0, 69, 0
2, 15186, Note_on_c, 0, 71, 73
2, 15213, Note_on_c, 0, 71, 0
2, 15216, Note_on_c, 0, 69, 71
2, 15261, Note_on_c, 0, 69, 0
2, 15312, Note_on_c, 0, 81, 66
2, 15324, Note_on_c, 0, 81, 0
2, 15324, Note_on_c, 0, 79, 66
2, 15336, Note_on_c, 0, 79, 0
2, 15336, Note_on_c, 0, 78, 66
2, 15348, Note_on_c, 0, 78, 0
2, 15348, Note_on_c, 0, 76, 66
2, 15360, Note_on_c, 0, 76, 0
2, 15360, Note_on_c, 0, 74, 66
2, 15405, Note_on_c, 0, 74, 0
2, 15408, Note_on_c, 0, 74, 66
2, 15453, Note_on_c, 0, 74, 0
2, 15456, Note_on_c, 0, 74, 66
2, 15501, Note_on_c, 0, 74, 0
2, 15504, Note_on_c, 0, 74, 66
2, 15549, Note_on_c, 0, 74, 0
2, 15552, Note_on_c, 0, 74, 66
2, 15586, Note_on_c, 0, 74, 0
2, 15588, Note_on_c, 0, 76, 66
2, 15600, Note_on_c, 0, 76, 0
2, 15600, Note_on_c, 0, 69, 66
2, 15634, Note_on_c, 0, 69, 0
2, 15636, Note_on_c, 0, 72, 66
2, 15648, Note_on_c, 0, 72, 0
2, 15648, Note_on_c, 0, 71, 66
2, 15668, Note_on_c, 0, 71, 0
2, 15696, Note_on_c, 0, 76, 66
2, 15708, Note_on_c, 0, 76, 0
2, 15708, Note_on_c, 0, 74, 66
2, 15720, Note_on_c, 0, 74, 0
2, 15720, Note_on_c, 0, 72, 66
2, 15732, Note_on_c, 0, 72, 0
2, 15732, Note_on_c, 0, 71, 66
2, 15744, Note_on_c, 0, 71, 0
2, 15744, Note_on_c, 0, 69, 66
2, 15764, Note_on_c, 0, 69, 0
2, 15792, Note_on_c, 0, 74, 66
2, 15804, Note_on_c, 0, 74, 0
2, 15804, Note_on_c, 0, 72, 66
2, 15816, Note_on_c, 0, 72, 0
2, 15816, Note_on_c, 0, 71, 66
2, 15828, Note_on_c, 0, 71, 0
2, 15828, Note_on_c, 0, 69, 66
2, 15840, Note_on_c, 0, 69, 0
2, 15840, Note_on_c, 0, 67, 66
2, 15860, Note_on_c, 0, 67, 0
2, 15888, Note_on_c, 0, 71, 66
2, 15900, Note_on_c, 0, 71, 0
2, 15900, Note_on_c, 0, 69, 66
2, 15912, Note_on_c, 0, 69, 0
2, 15912, Note_on_c, 0, 67, 66
2, 15924, Note_on_c, 0, 67, 0
2, 15924, Note_on_c, 0, 66, 66
2, 15936, Note_on_c, 0, 66, 0
2, 15936, Note_on_c, 0, 67, 66
2, 15981, Note_on_c, 0, 67, 0
2, 15984, Note_on_c, 0, 62, 66
2, 16029, Note_on_c, 0, 62, 0
2, 16080, Note_on_c, 0, 81, 66
2, 16092, Note_on_c, 0, 81, 0
2, 16092, Note_on_c, 0, 79, 66
2, 16104, Note_on_c, 0, 79, 0
2, 16104, Note_on_c, 0, 78, 66
2, 16116, Note_on_c, 0, 78, 0
2, 16116, Note_on_c, 0, 76, 66
2, 16128, Note_on_c, 0, 76, 0
2, 16128, Note_on_c, 0, 74, 66
2, 16151, Note_on_c, 0, 74, 0
2, 16152, Note_on_c, 0, 74, 66
2, 16197, Note_on_c, 0, 74, 0
2, 16200, Note_on_c, 0, 74, 66
2, 16245, Note_on_c, 0, 74, 0
2, 16248, Note_on_c, 0, 74, 66
2, 16293, Note_on_c, 0, 74, 0
2, 16296, Note_on_c, 0, 74, 66
2, 16343, Note_on_c, 0, 74, 0
2, 16344, Note_on_c, 0, 76, 66
2, 16367, Note_on_c, 0, 76, 0
2, 16368, Note_on_c, 0, 72, 66
2, 16391, Note_on_c, 0, 72, 0
2, 16392, Note_on_c, 0, 69, 66
2, 16415, Note_on_c, 0, 69, 0
2, 16416, Note_on_c, 0, 71, 66
2, 16436, Note_on_c, 0, 71, 0
2, 16464, Note_on_c, 0, 76, 66
2, 16476, Note_on_c, 0, 76, 0
2, 16476, Note_on_c, 0, 74, 66
2, 16488, Note_on_c, 0, 74, 0
2, 16488, Note_on_c, 0, 72, 66
2, 16500, Note_on_c, 0, 72, 0
2, 16500, Note_on_c, 0, 71, 66
2, 16512, Note_on_c, 0, 71, 0
2, 16512, Note_on_c, 0, 69, 66
2, 16532, Note_on_c, 0, 69, 0
2, 16560, Note_on_c, 0, 74, 66
2, 16572, Note_on_c, 0, 74, 0
2, 16572, Note_on_c, 0, 72, 66
2, 16584, Note_on_c, 0, 72, 0
2, 16584, Note_on_c, 0, 71, 66
2, 16596, Note_on_c, 0, 71, 0
2, 16596, Note_on_c, 0, 69, 66
2, 16608, Note_on_c, 0, 69, 0
2, 16608, Note_on_c, 0, 76, 66
2, 16628, Note_on_c, 0, 76, 0
2, 16656, Note_on_c, 0, 74, 66
2, 16668, Note_on_c, 0, 74, 0
2, 16668, Note_on_c, 0, 72, 66
2, 16680, Note_on_c, 0, 72, 0
2, 16680, Note_on_c, 0, 71, 66
2, 16692, Note_on_c, 0, 71, 0
2, 16692, Note_on_c, 0, 69, 66
2, 16704, Note_on_c, 0, 69, 0
2, 16704, Note_on_c, 0, 67, 66
2, 16800, Note_on_c, 0, 67, 0
2, 16800, Note_on_c, 0, 66, 66
2, 16820, Note_on_c, 0, 66, 0
2, 16848, Note_on_c, 0, 76, 66
2, 16860, Note_on_c, 0, 76, 0
2, 16860, Note_on_c, 0, 74, 66
2, 16872, Note_on_c, 0, 74, 0
2, 16872, Note_on_c, 0, 72, 66
2, 16884, Note_on_c, 0, 72, 0
2, 16884, Note_on_c, 0, 71, 66
2, 16896, Note_on_c, 0, 71, 0
2, 16896, Note_on_c, 0, 69, 66
2, 16944, Note_on_c, 0, 69, 0
2, 16944, Note_on_c, 0, 67, 66
2, 16989, Note_on_c, 0, 67, 0
2, 17040, Note_on_c, 0, 76, 66
2, 17052, Note_on_c, 0, 76, 0
2, 17052, Note_on_c, 0, 74, 66
2, 17064, Note_on_c, 0, 74, 0
2, 17064, Note_on_c, 0, 72, 66
2, 17076, Note_on_c, 0, 72, 0
2, 17076, Note_on_c, 0, 71, 66
2, 17088, Note_on_c, 0, 71, 0
2, 17088, Note_on_c, 0, 71, 66
2, 17136, Note_on_c, 0, 71, 0
2, 17136, Note_on_c, 0, 69, 66
2, 17181, Note_on_c, 0, 69, 0
2, 17232, Note_on_c, 0, 74, 66
2, 17244, Note_on_c, 0, 74, 0
2, 17244, Note_on_c, 0, 72, 66
2, 17256, Note_on_c, 0, 72, 0
2, 17256, Note_on_c, 0, 71, 66
2, 17268, Note_on_c, 0, 71, 0
2, 17268, Note_on_c, 0, 69, 66
2, 17280, Note_on_c, 0, 69, 0
2, 17280, Note_on_c, 0, 67, 66
2, 17328, Note_on_c, 0, 67, 0
2, 17328, Note_on_c, 0, 66, 66
2, 17373, Note_on_c, 0, 66, 0
2, 17392, Note_on_c, 0, 72, 66
2, 17407, Note_on_c, 0, 72, 0
2, 17408, Note_on_c, 0, 74, 66
2, 17423, Note_on_c, 0, 74, 0
2, 17424, Note_on_c, 0, 76, 66
2, 17439, Note_on_c, 0, 76, 0
2, 17440, Note_on_c, 0, 74, 66
2, 17455, Note_on_c, 0, 74, 0
2, 17456, Note_on_c, 0, 72, 66
2, 17471, Note_on_c, 0, 72, 0
2, 17472, Note_on_c, 0, 72, 66
2, 17496, Note_on_c, 0, 72, 0
2, 17496, Note_on_c, 0, 71, 66
2, 17519, Note_on_c, 0, 71, 0
2, 17544, Note_on_c, 0, 74, 66
2, 17554, Note_on_c, 0, 74, 0
2, 17568, Note_on_c, 0, 74, 66
2, 17592, Note_on_c, 0, 74, 0
2, 17592, Note_on_c, 0, 72, 67
2, 17615, Note_on_c, 0, 72, 0
2, 17616, Note_on_c, 0, 72, 67
2, 17640, Note_on_c, 0, 72, 0
2, 17640, Note_on_c, 0, 71, 68
2, 17663, Note_on_c, 0, 71, 0
2, 17664, Note_on_c, 0, 71, 69
2, 17688, Note_on_c, 0, 71, 0
2, 17688, Note_on_c, 0, 69, 69
2, 17711, Note_on_c, 0, 69, 0
2, 17712, Note_on_c, 0, 69, 70
2, 17736, Note_on_c, 0, 69, 0
2, 17736, Note_on_c, 0, 67, 70
2, 17759, Note_on_c, 0, 67, 0
2, 17760, Note_on_c, 0, 67, 71
2, 17784, Note_on_c, 0, 67, 0
2, 17784, Note_on_c, 0, 66, 72
2, 17807, Note_on_c, 0, 66, 0
2, 17808, Note_on_c, 0, 69, 72
2, 17832, Note_on_c, 0, 69, 0
2, 17832, Note_on_c, 0, 72, 73
2, 17855, Note_on_c, 0, 72, 0
2, 17856, Note_on_c, 0, 72, 73
2, 17880, Note_on_c, 0, 72, 0
2, 17880, Note_on_c, 0, 71, 74
2, 17903, Note_on_c, 0, 71, 0
2, 17928, Note_on_c, 0, 74, 75
2, 17938, Note_on_c, 0, 74, 0
2, 17952, Note_on_c, 0, 74, 66
2, 17958, Note_on_c, 0, 74, 0
2, 17958, Note_on_c, 0, 76, 66
2, 17964, Note_on_c, 0, 76, 0
2, 17964, Note_on_c, 0, 74, 66
2, 17975, Note_on_c, 0, 74, 0
2, 17976, Note_on_c, 0, 72, 66
2, 17999, Note_on_c, 0, 72, 0
2, 18000, Note_on_c, 0, 72, 67
2, 18006, Note_on_c, 0, 72, 0
2, 18006, Note_on_c, 0, 74, 67
2, 18012, Note_on_c, 0, 74, 0
2, 18012, Note_on_c, 0, 72, 67
2, 18023, Note_on_c, 0, 72, 0
2, 18024, Note_on_c, 0, 71, 68
2, 18047, Note_on_c, 0, 71, 0
2, 18048, Note_on_c, 0, 71, 69
2, 18054, Note_on_c, 0, 71, 0
2, 18054, Note_on_c, 0, 72, 69
2, 18060, Note_on_c, 0, 72, 0
2, 18060, Note_on_c, 0, 71, 69
2, 18071, Note_on_c, 0, 71, 0
2, 18072, Note_on_c, 0, 69, 69
2, 18095, Note_on_c, 0, 69, 0
2, 18096, Note_on_c, 0, 69, 70
2, 18102, Note_on_c, 0, 69, 0
2, 18102, Note_on_c, 0, 71, 70
2, 18108, Note_on_c, 0, 71, 0
2, 18108, Note_on_c, 0, 69, 70
2, 18119, Note_on_c, 0, 69, 0
2, 18120, Note_on_c, 0, 67, 71
2, 18143, Note_on_c, 0, 67, 0
2, 18144, Note_on_c, 0, 67, 72
2, 18150, Note_on_c, 0, 67, 0
2, 18150, Note_on_c, 0, 69, 72
2, 18156, Note_on_c, 0, 69, 0
2, 18156, Note_on_c, 0, 67, 72
2, 18167, Note_on_c, 0, 67, 0
2, 18168, Note_on_c, 0, 66, 72
2, 18191, Note_on_c, 0, 66, 0
2, 18192, Note_on_c, 0, 69, 73
2, 18216, Note_on_c, 0, 69, 0
2, 18216, Note_on_c, 0, 72, 74
2, 18239, Note_on_c, 0, 72, 0
2, 18240, Note_on_c, 0, 71, 66
2, 18263, Note_on_c, 0, 71, 0
2, 18264, Note_on_c, 0, 67, 67
2, 18287, Note_on_c, 0, 67, 0
2, 18288, Note_on_c, 0, 69, 68
2, 18311, Note_on_c, 0, 69, 0
2, 18312, Note_on_c, 0, 71, 69
2, 18335, Note_on_c, 0, 71, 0
2, 18336, Note_on_c, 0, 72, 70
2, 18359, Note_on_c, 0, 72, 0
2, 18360, Note_on_c, 0, 73, 71
2, 18383, Note_on_c, 0, 73, 0
2, 18384, Note_on_c, 0, 74, 72
2, 18407, Note_on_c, 0, 74, 0
2, 18408, Note_on_c, 0, 75, 73
2, 18431, Note_on_c, 0, 75, 0
2, 18432, Note_on_c, 0, 76, 75
2, 18551, Note_on_c, 0, 76, 0
2, 18552, Note_on_c, 0, 72, 75
2, 18564, Note_on_c, 0, 72, 0
2, 18564, Note_on_c, 0, 74, 75
2, 18576, Note_on_c, 0, 74, 0
2, 18576, Note_on_c, 0, 76, 75
2, 18621, Note_on_c, 0, 76, 0
2, 18624, Note_on_c, 0, 71, 75
2, 18631, Note_on_c, 0, 71, 0
2, 18631, Note_on_c, 0, 72, 74
2, 18638, Note_on_c, 0, 72, 0
2, 18638, Note_on_c, 0, 71, 74
2, 18645, Note_on_c, 0, 71, 0
2, 18645, Note_on_c, 0, 72, 73
2, 18652, Note_on_c, 0, 72, 0
2, 18652, Note_on_c, 0, 71, 73
2, 18659, Note_on_c, 0, 71, 0
2, 18659, Note_on_c, 0, 69, 73
2, 18666, Note_on_c, 0, 69, 0
2, 18666, Note_on_c, 0, 71, 72
2, 18672, Note_on_c, 0, 71, 0
2, 18672, Note_on_c, 0, 72, 72
2, 18695, Note_on_c, 0, 72, 0
2, 18696, Note_on_c, 0, 69, 70
2, 18719, Note_on_c, 0, 69, 0
2, 18720, Note_on_c, 0, 67, 69
2, 18765, Note_on_c, 0, 67, 0
2, 18768, Note_on_c, 0, 66, 66
2, 18775, Note_on_c, 0, 66, 0
2, 18775, Note_on_c, 0, 67, 66
2, 18782, Note_on_c, 0, 67, 0
2, 18782, Note_on_c, 0, 66, 66
2, 18789, Note_on_c, 0, 66, 0
2, 18789, Note_on_c, 0, 67, 66
2, 18796, Note_on_c, 0, 67, 0
2, 18796, Note_on_c, 0, 66, 66
2, 18803, Note_on_c, 0, 66, 0
2, 18803, Note_on_c, 0, 64, 66
2, 18810, Note_on_c, 0, 64, 0
2, 18810, Note_on_c, 0, 66, 66
2, 18816, Note_on_c, 0, 66, 0
2, 18816, Note_on_c, 0, 67, 66
2, 18839, Note_on_c, 0, 67, 0
2, 18840, Note_on_c, 0, 67, 67
2, 18863, Note_on_c, 0, 67, 0
2, 18864, Note_on_c, 0, 69, 68
2, 18887, Note_on_c, 0, 69, 0
2, 18888, Note_on_c, 0, 71, 69
2, 18911, Note_on_c, 0, 71, 0
2, 18912, Note_on_c, 0, 72, 70
2, 18935, Note_on_c, 0, 72, 0
2, 18936, Note_on_c, 0, 73, 71
2, 18959, Note_on_c, 0, 73, 0
2, 18960, Note_on_c, 0, 74, 72
2, 18983, Note_on_c, 0, 74, 0
2, 18984, Note_on_c, 0, 75, 73
2, 19007, Note_on_c, 0, 75, 0
2, 19008, Note_on_c, 0, 76, 75
2, 19127, Note_on_c, 0, 76, 0
2, 19128, Note_on_c, 0, 72, 75
2, 19140, Note_on_c, 0, 72, 0
2, 19140, Note_on_c, 0, 74, 75
2, 19152, Note_on_c, 0, 74, 0
2, 19152, Note_on_c, 0, 76, 75
2, 19197, Note_on_c, 0, 76, 0
2, 19224, Note_on_c, 0, 71, 75
2, 19236, Note_on_c, 0, 71, 0
2, 19236, Note_on_c, 0, 72, 75
2, 19248, Note_on_c, 0, 72, 0
2, 19248, Note_on_c, 0, 74, 75
2, 19271, Note_on_c, 0, 74, 0
2, 19272, Note_on_c, 0, 67, 75
2, 19295, Note_on_c, 0, 67, 0
2, 19320, Note_on_c, 0, 66, 76
2, 19332, Note_on_c, 0, 66, 0
2, 19332, Note_on_c, 0, 67, 76
2, 19344, Note_on_c, 0, 67, 0
2, 19344, Note_on_c, 0, 69, 77
2, 19367, Note_on_c, 0, 69, 0
2, 19368, Note_on_c, 0, 66, 77
2, 19391, Note_on_c, 0, 66, 0
2, 19416, Note_on_c, 0, 67, 78
2, 19428, Note_on_c, 0, 67, 0
2, 19428, Note_on_c, 0, 69, 78
2, 19440, Note_on_c, 0, 69, 0
2, 19440, Note_on_c, 0, 71, 78
2, 19463, Note_on_c, 0, 71, 0
2, 19464, Note_on_c, 0, 67, 79
2, 19487, Note_on_c, 0, 67, 0
2, 19512, Note_on_c, 0, 69, 79
2, 19524, Note_on_c, 0, 69, 0
2, 19524, Note_on_c, 0, 71, 80
2, 19536, Note_on_c, 0, 71, 0
2, 19536, Note_on_c, 0, 72, 80
2, 19559, Note_on_c, 0, 72, 0
2, 19560, Note_on_c, 0, 69, 80
2, 19583, Note_on_c, 0, 69, 0
2, 19608, Note_on_c, 0, 83, 81
2, 19620, Note_on_c, 0, 83, 0
2, 19620, Note_on_c, 0, 84, 81
2, 19632, Note_on_c, 0, 84, 0
2, 19632, Note_on_c, 0, 86, 81
2, 19644, Note_on_c, 0, 86, 0
2, 19644, Note_on_c, 0, 84, 81
2, 19656, Note_on_c, 0, 84, 0
2, 19656, Note_on_c, 0, 83, 81
2, 19668, Note_on_c, 0, 83, 0
2, 19668, Note_on_c, 0, 81, 81
2, 19680, Note_on_c, 0, 81, 0
2, 19680, Note_on_c, 0, 79, 81
2, 19692, Note_on_c, 0, 79, 0
2, 19692, Note_on_c, 0, 78, 81
2, 19704, Note_on_c, 0, 78, 0
2, 19704, Note_on_c, 0, 76, 81
2, 19716, Note_on_c, 0, 76, 0
2, 19716, Note_on_c, 0, 74, 81
2, 19728, Note_on_c, 0, 74, 0
2, 19728, Note_on_c, 0, 72, 81
2, 19740, Note_on_c, 0, 72, 0
2, 19740, Note_on_c, 0, 71, 81
2, 19752, Note_on_c, 0, 71, 0
2, 19752, Note_on_c, 0, 69, 81
2, 19764, Note_on_c, 0, 69, 0
2, 19764, Note_on_c, 0, 67, 81
2, 19776, Note_on_c, 0, 67, 0
2, 19776, Note_on_c, 0, 69, 81
2, 19799, Note_on_c, 0, 69, 0
2, 19800, Note_on_c, 0, 72, 81
2, 19812, Note_on_c, 0, 72, 0
2, 19812, Note_on_c, 0, 74, 81
2, 19824, Note_on_c, 0, 74, 0
2, 19824, Note_on_c, 0, 76, 81
2, 19836, Note_on_c, 0, 76, 0
2, 19836, Note_on_c, 0, 72, 81
2, 19848, Note_on_c, 0, 72, 0
2, 19848, Note_on_c, 0, 71, 81
2, 19860, Note_on_c, 0, 71, 0
2, 19860, Note_on_c, 0, 69, 81
2, 19872, Note_on_c, 0, 69, 0
2, 19872, Note_on_c, 0, 67, 81
2, 19917, Note_on_c, 0, 67, 0
2, 19920, Note_on_c, 0, 66, 81
2, 19927, Note_on_c, 0, 66, 0
2, 19927, Note_on_c, 0, 67, 81
2, 19934, Note_on_c, 0, 67, 0
2, 19934, Note_on_c, 0, 66, 81
2, 19941, Note_on_c, 0, 66, 0
2, 19941, Note_on_c, 0, 67, 81
2, 19948, Note_on_c, 0, 67, 0
2, 19948, Note_on_c, 0, 66, 81
2, 19955, Note_on_c, 0, 66, 0
2, 19955, Note_on_c, 0, 64, 81
2, 19962, Note_on_c, 0, 64, 0
2, 19962, Note_on_c, 0, 66, 81
2, 19968, Note_on_c, 0, 66, 0
2, 19968, Note_on_c, 0, 67, 81
2, 19991, Note_on_c, 0, 67, 0
2, 19992, Note_on_c, 0, 83, 81
2, 20004, Note_on_c, 0, 83, 0
2, 20004, Note_on_c, 0, 84, 81
2, 20016, Note_on_c, 0, 84, 0
2, 20016, Note_on_c, 0, 86, 81
2, 20028, Note_on_c, 0, 86, 0
2, 20028, Note_on_c, 0, 84, 81
2, 20040, Note_on_c, 0, 84, 0
2, 20040, Note_on_c, 0, 83, 81
2, 20052, Note_on_c, 0, 83, 0
2, 20052, Note_on_c, 0, 81, 81
2, 20064, Note_on_c, 0, 81, 0
2, 20064, Note_on_c, 0, 79, 81
2, 20076, Note_on_c, 0, 79, 0
2, 20076, Note_on_c, 0, 78, 81
2, 20088, Note_on_c, 0, 78, 0
2, 20088, Note_on_c, 0, 76, 81
2, 20100, Note_on_c, 0, 76, 0
2, 20100, Note_on_c, 0, 74, 81
2, 20112, Note_on_c, 0, 74, 0
2, 20112, Note_on_c, 0, 72, 81
2, 20124, Note_on_c, 0, 72, 0
2, 20124, Note_on_c, 0, 71, 81
2, 20136, Note_on_c, 0, 71, 0
2, 20136, Note_on_c, 0, 69, 81
2, 20148, Note_on_c, 0, 69, 0
2, 20148, Note_on_c, 0, 67, 81
2, 20160, Note_on_c, 0, 67, 0
2, 20160, Note_on_c, 0, 69, 81
2, 20183, Note_on_c, 0, 69, 0
2, 20184, Note_on_c, 0, 72, 81
2, 20196, Note_on_c, 0, 72, 0
2, 20196, Note_on_c, 0, 74, 81
2, 20208, Note_on_c, 0, 74, 0
2, 20208, Note_on_c, 0, 76, 81
2, 20220, Note_on_c, 0, 76, 0
2, 20220, Note_on_c, 0, 72, 81
2, 20232, Note_on_c, 0, 72, 0
2, 20232, Note_on_c, 0, 71, 81
2, 20244, Note_on_c, 0, 71, 0
2, 20244, Note_on_c, 0, 69, 81
2, 20256, Note_on_c, 0, 69, 0
2, 20256, Note_on_c, 0, 67, 81
2, 20301, Note_on_c, 0, 67, 0
2, 20304, Note_on_c, 0, 66, 81
2, 20311, Note_on_c, 0, 66, 0
2, 20311, Note_on_c, 0, 67, 81
2, 20318, Note_on_c, 0, 67, 0
2, 20318, Note_on_c, 0, 66, 81
2, 20325, Note_on_c, 0, 66, 0
2, 20325, Note_on_c, 0, 67, 81
2, 20332, Note_on_c, 0, 67, 0
2, 20332, Note_on_c, 0, 66, 81
2, 20339, Note_on_c, 0, 66, 0
2, 20339, Note_on_c, 0, 64, 81
2, 20346, Note_on_c, 0, 64, 0
2, 20346, Note_on_c, 0, 66, 81
2, 20352, Note_on_c, 0, 66, 0
2, 20352, Note_on_c, 0, 67, 81
2, 20441, Note_on_c, 0, 67, 0
2, 20496, Note_on_c, 0, 76, 66
2, 20508, Note_on_c, 0, 76, 0
2, 20508, Note_on_c, 0, 74, 66
2, 20520, Note_on_c, 0, 74, 0
2, 20520, Note_on_c, 0, 73, 66
2, 20532, Note_on_c, 0, 73, 0
2, 20532, Note_on_c, 0, 71, 66
2, 20544, Note_on_c, 0, 71, 0
2, 20544, Note_on_c, 0, 69, 66
2, 20589, Note_on_c, 0, 69, 0
2, 20592, Note_on_c, 0, 69, 66
2, 20637, Note_on_c, 0, 69, 0
2, 20640, Note_on_c, 0, 69, 66
2, 20685, Note_on_c, 0, 69, 0
2, 20688, Note_on_c, 0, 69, 66
2, 20733, Note_on_c, 0, 69, 0
2, 20736, Note_on_c, 0, 69, 66
2, 20770, Note_on_c, 0, 69, 0
2, 20772, Note_on_c, 0, 71, 66
2, 20784, Note_on_c, 0, 71, 0
2, 20784, Note_on_c, 0, 64, 66
2, 20818, Note_on_c, 0, 64, 0
2, 20820, Note_on_c, 0, 67, 66
2, 20832, Note_on_c, 0, 67, 0
2, 20832, Note_on_c, 0, 66, 66
2, 20877, Note_on_c, 0, 66, 0
2, 20880, Note_on_c, 0, 71, 66
2, 20892, Note_on_c, 0, 71, 0
2, 20892, Note_on_c, 0, 69, 66
2, 20904, Note_on_c, 0, 69, 0
2, 20904, Note_on_c, 0, 67, 66
2, 20916, Note_on_c, 0, 67, 0
2, 20916, Note_on_c, 0, 66, 66
2, 20928, Note_on_c, 0, 66, 0
2, 20928, Note_on_c, 0, 64, 66
2, 20973, Note_on_c, 0, 64, 0
2, 20976, Note_on_c, 0, 69, 66
2, 20988, Note_on_c, 0, 69, 0
2, 20988, Note_on_c, 0, 67, 66
2, 21000, Note_on_c, 0, 67, 0
2, 21000, Note_on_c, 0, 66, 66
2, 21012, Note_on_c, 0, 66, 0
2, 21012, Note_on_c, 0, 64, 66
2, 21024, Note_on_c, 0, 64, 0
2, 21024, Note_on_c, 0, 62, 66
2, 21069, Note_on_c, 0, 62, 0
2, 21072, Note_on_c, 0, 66, 66
2, 21084, Note_on_c, 0, 66, 0
2, 21084, Note_on_c, 0, 64, 66
2, 21096, Note_on_c, 0, 64, 0
2, 21096, Note_on_c, 0, 62, 66
2, 21108, Note_on_c, 0, 62, 0
2, 21108, Note_on_c, 0, 61, 66
2, 21120, Note_on_c, 0, 61, 0
2, 21120, Note_on_c, 0, 62, 66
2, 21165, Note_on_c, 0, 62, 0
2, 21168, Note_on_c, 0, 57, 66
2, 21213, Note_on_c, 0, 57, 0
2, 21264, Note_on_c, 0, 81, 66
2, 21276, Note_on_c, 0, 81, 0
2, 21276, Note_on_c, 0, 79, 66
2, 21288, Note_on_c, 0, 79, 0
2, 21288, Note_on_c, 0, 78, 66
2, 21300, Note_on_c, 0, 78, 0
2, 21300, Note_on_c, 0, 76, 66
2, 21312, Note_on_c, 0, 76, 0
2, 21312, Note_on_c, 0, 74, 66
2, 21357, Note_on_c, 0, 74, 0
2, 21360, Note_on_c, 0, 74, 66
2, 21405, Note_on_c, 0, 74, 0
2, 21408, Note_on_c, 0, 74, 66
2, 21453, Note_on_c, 0, 74, 0
2, 21456, Note_on_c, 0, 74, 66
2, 21501, Note_on_c, 0, 74, 0
2, 21504, Note_on_c, 0, 74, 66
2, 21538, Note_on_c, 0, 74, 0
2, 21540, Note_on_c, 0, 76, 66
2, 21552, Note_on_c, 0, 76, 0
2, 21552, Note_on_c, 0, 69, 66
2, 21586, Note_on_c, 0, 69, 0
2, 21588, Note_on_c, 0, 72, 66
2, 21600, Note_on_c, 0, 72, 0
2, 21600, Note_on_c, 0, 71, 66
2, 21620, Note_on_c, 0, 71, 0
2, 21648, Note_on_c, 0, 76, 66
2, 21660, Note_on_c, 0, 76, 0
2, 21660, Note_on_c, 0, 74, 66
2, 21672, Note_on_c, 0, 74, 0
2, 21672, Note_on_c, 0, 72, 66
2, 21684, Note_on_c, 0, 72, 0
2, 21684, Note_on_c, 0, 71, 66
2, 21696, Note_on_c, 0, 71, 0
2, 21696, Note_on_c, 0, 69, 66
2, 21716, Note_on_c, 0, 69, 0
2, 21744, Note_on_c, 0, 74, 66
2, 21756, Note_on_c, 0, 74, 0
2, 21756, Note_on_c, 0, 72, 66
2, 21768, Note_on_c, 0, 72, 0
2, 21768, Note_on_c, 0, 71, 66
2, 21780, Note_on_c, 0, 71, 0
2, 21780, Note_on_c, 0, 69, 66
2, 21792, Note_on_c, 0, 69, 0
2, 21792, Note_on_c, 0, 67, 66
2, 21812, Note_on_c, 0, 67, 0
2, 21840, Note_on_c, 0, 71, 66
2, 21852, Note_on_c, 0, 71, 0
2, 21852, Note_on_c, 0, 69, 66
2, 21864, Note_on_c, 0, 69, 0
2, 21864, Note_on_c, 0, 67, 66
2, 21876, Note_on_c, 0, 67, 0
2, 21876, Note_on_c, 0, 66, 66
2, 21888, Note_on_c, 0, 66, 0
2, 21888, Note_on_c, 0, 67, 66
2, 21977, Note_on_c, 0, 67, 0
2, 22008, Note_on_c, 0, 67, 66
2, 22020, Note_on_c, 0, 67, 0
2, 22020, Note_on_c, 0, 69, 66
2, 22032, Note_on_c, 0, 69, 0
2, 22032, Note_on_c, 0, 71, 66
2, 22055, Note_on_c, 0, 71, 0
2, 22056, Note_on_c, 0, 67, 66
2, 22079, Note_on_c, 0, 67, 0
2, 22104, Note_on_c, 0, 72, 66
2, 22116, Note_on_c, 0, 72, 0
2, 22116, Note_on_c, 0, 74, 66
2, 22128, Note_on_c, 0, 74, 0
2, 22128, Note_on_c, 0, 76, 67
2, 22151, Note_on_c, 0, 76, 0
2, 22152, Note_on_c, 0, 72, 67
2, 22175, Note_on_c, 0, 72, 0
2, 22200, Note_on_c, 0, 74, 68
2, 22212, Note_on_c, 0, 74, 0
2, 22212, Note_on_c, 0, 76, 68
2, 22224, Note_on_c, 0, 76, 0
2, 22224, Note_on_c, 0, 77, 69
2, 22247, Note_on_c, 0, 77, 0
2, 22248, Note_on_c, 0, 74, 69
2, 22271, Note_on_c, 0, 74, 0
2, 22272, Note_on_c, 0, 76, 70
2, 22361, Note_on_c, 0, 76, 0
2, 22392, Note_on_c, 0, 69, 72
2, 22404, Note_on_c, 0, 69, 0
2, 22404, Note_on_c, 0, 71, 73
2, 22416, Note_on_c, 0, 71, 0
2, 22416, Note_on_c, 0, 73, 73
2, 22439, Note_on_c, 0, 73, 0
2, 22440, Note_on_c, 0, 69, 74
2, 22463, Note_on_c, 0, 69, 0
2, 22488, Note_on_c, 0, 74, 75
2, 22500, Note_on_c, 0, 74, 0
2, 22500, Note_on_c, 0, 76, 75
2, 22512, Note_on_c, 0, 76, 0
2, 22512, Note_on_c, 0, 78, 75
2, 22535, Note_on_c, 0, 78, 0
2, 22536, Note_on_c, 0, 74, 76
2, 22559, Note_on_c, 0, 74, 0
2, 22584, Note_on_c, 0, 76, 77
2, 22596, Note_on_c, 0, 76, 0
2, 22596, Note_on_c, 0, 78, 77
2, 22608, Note_on_c, 0, 78, 0
2, 22608, Note_on_c, 0, 79, 77
2, 22631, Note_on_c, 0, 79, 0
2, 22632, Note_on_c, 0, 76, 78
2, 22655, Note_on_c, 0, 76, 0
2, 22656, Note_on_c, 0, 78, 78
2, 22745, Note_on_c, 0, 78, 0
2, 22776, Note_on_c, 0, 71, 81
2, 22788, Note_on_c, 0, 71, 0
2, 22788, Note_on_c, 0, 73, 81
2, 22800, Note_on_c, 0, 73, 0
2, 22800, Note_on_c, 0, 75, 81
2, 22823, Note_on_c, 0, 75, 0
2, 22824, Note_on_c, 0, 71, 81
2, 22847, Note_on_c, 0, 71, 0
2, 22872, Note_on_c, 0, 76, 81
2, 22884, Note_on_c, 0, 76, 0
2, 22884, Note_on_c, 0, 78, 81
2, 22896, Note_on_c, 0, 78, 0
2, 22896, Note_on_c, 0, 79, 81
2, 22919, Note_on_c, 0, 79, 0
2, 22920, Note_on_c, 0, 76, 81
2, 22943, Note_on_c, 0, 76, 0
2, 22968, Note_on_c, 0, 78, 81
2, 22980, Note_on_c, 0, 78, 0
2, 22980, Note_on_c, 0, 79, 81
2, 22992, Note_on_c, 0, 79, 0
2, 22992, Note_on_c, 0, 81, 81
2, 23015, Note_on_c, 0, 81, 0
2, 23016, Note_on_c, 0, 78, 81
2, 23039, Note_on_c, 0, 78, 0
2, 23040, Note_on_c, 0, 79, 81
2, 23085, Note_on_c, 0, 79, 0
2, 23112, Note_on_c, 0, 83, 66
2, 23122, Note_on_c, 0, 83, 0
2, 23136, Note_on_c, 0, 83, 66
2, 23160, Note_on_c, 0, 83, 0
2, 23160, Note_on_c, 0, 81, 67
2, 23183, Note_on_c, 0, 81, 0
2, 23184, Note_on_c, 0, 81, 67
2, 23208, Note_on_c, 0, 81, 0
2, 23208, Note_on_c, 0, 79, 68
2, 23231, Note_on_c, 0, 79, 0
2, 23232, Note_on_c, 0, 79, 69
2, 23256, Note_on_c, 0, 79, 0
2, 23256, Note_on_c, 0, 78, 69
2, 23279, Note_on_c, 0, 78, 0
2, 23280, Note_on_c, 0, 78, 70
2, 23304, Note_on_c, 0, 78, 0
2, 23304, Note_on_c, 0, 76, 71
2, 23327, Note_on_c, 0, 76, 0
2, 23328, Note_on_c, 0, 76, 71
2, 23352, Note_on_c, 0, 76, 0
2, 23352, Note_on_c, 0, 75, 72
2, 23375, Note_on_c, 0, 75, 0
2, 23376, Note_on_c, 0, 78, 73
2, 23400, Note_on_c, 0, 78, 0
2, 23400, Note_on_c, 0, 81, 73
2, 23423, Note_on_c, 0, 81, 0
2, 23424, Note_on_c, 0, 81, 74
2, 23448, Note_on_c, 0, 81, 0
2, 23448, Note_on_c, 0, 79, 75
2, 23471, Note_on_c, 0, 79, 0
2, 23496, Note_on_c, 0, 83, 66
2, 23506, Note_on_c, 0, 83, 0
2, 23520, Note_on_c, 0, 83, 67
2, 23526, Note_on_c, 0, 83, 0
2, 23526, Note_on_c, 0, 84, 67
2, 23532, Note_on_c, 0, 84, 0
2, 23532, Note_on_c, 0, 83, 67
2, 23543, Note_on_c, 0, 83, 0
2, 23544, Note_on_c, 0, 81, 68
2, 23567, Note_on_c, 0, 81, 0
2, 23568, Note_on_c, 0, 81, 69
2, 23574, Note_on_c, 0, 81, 0
2, 23574, Note_on_c, 0, 83, 69
2, 23580, Note_on_c, 0, 83, 0
2, 23580, Note_on_c, 0, 81, 69
2, 23591, Note_on_c, 0, 81, 0
2, 23592, Note_on_c, 0, 79, 70
2, 23615, Note_on_c, 0, 79, 0
2, 23616, Note_on_c, 0, 79, 71
2, 23622, Note_on_c, 0, 79, 0
2, 23622, Note_on_c, 0, 81, 71
2, 23628, Note_on_c, 0, 81, 0
2, 23628, Note_on_c, 0, 79, 71
2, 23639, Note_on_c, 0, 79, 0
2, 23640, Note_on_c, 0, 78, 72
2, 23663, Note_on_c, 0, 78, 0
2, 23664, Note_on_c, 0, 78, 73
2, 23670, Note_on_c, 0, 78, 0
2, 23670, Note_on_c, 0, 79, 73
2, 23676, Note_on_c, 0, 79, 0
2, 23676, Note_on_c, 0, 78, 73
2, 23687, Note_on_c, 0, 78, 0
2, 23688, Note_on_c, 0, 76, 74
2, 23711, Note_on_c, 0, 76, 0
2, 23712, Note_on_c, 0, 76, 75
2, 23718, Note_on_c, 0, 76, 0
2, 23718, Note_on_c, 0, 78, 75
2, 23724, Note_on_c, 0, 78, 0
2, 23724, Note_on_c, 0, 76, 75
2, 23735, Note_on_c, 0, 76, 0
2, 23736, Note_on_c, 0, 75, 76
2, 23759, Note_on_c, 0, 75, 0
2, 23760, Note_on_c, 0, 78, 77
2, 23783, Note_on_c, 0, 78, 0
2, 23784, Note_on_c, 0, 81, 78
2, 23807, Note_on_c, 0, 81, 0
2, 23808, Note_on_c, 0, 79, 79
2, 23831, Note_on_c, 0, 79, 0
2, 23832, Note_on_c, 0, 76, 81
2, 23844, Note_on_c, 0, 76, 0
2, 23844, Note_on_c, 0, 78, 81
2, 23856, Note_on_c, 0, 78, 0
2, 23856, Note_on_c, 0, 79, 81
2, 23868, Note_on_c, 0, 79, 0
2, 23868, Note_on_c, 0, 78, 81
2, 23880, Note_on_c, 0, 78, 0
2, 23880, Note_on_c, 0, 79, 81
2, 23892, Note_on_c, 0, 79, 0
2, 23892, Note_on_c, 0, 81, 81
2, 23904, Note_on_c, 0, 81, 0
2, 23904, Note_on_c, 0, 83, 81
2, 23914, Note_on_c, 0, 83, 0
2, 23928, Note_on_c, 0, 79, 81
2, 23938, Note_on_c, 0, 79, 0
2, 23952, Note_on_c, 0, 76, 81
2, 23962, Note_on_c, 0, 76, 0
2, 23976, Note_on_c, 0, 71, 81
2, 23986, Note_on_c, 0, 71, 0
2, 24000, Note_on_c, 0, 74, 81
2, 24012, Note_on_c, 0, 74, 0
2, 24012, Note_on_c, 0, 72, 81
2, 24024, Note_on_c, 0, 72, 0
2, 24024, Note_on_c, 0, 71, 81
2, 24036, Note_on_c, 0, 71, 0
2, 24036, Note_on_c, 0, 69, 81
2, 24048, Note_on_c, 0, 69, 0
2, 24048, Note_on_c, 0, 69, 81
2, 24060, Note_on_c, 0, 69, 0
2, 24060, Note_on_c, 0, 67, 81
2, 24072, Note_on_c, 0, 67, 0
2, 24072, Note_on_c, 0, 66, 81
2, 24084, Note_on_c, 0, 66, 0
2, 24084, Note_on_c, 0, 64, 81
2, 24096, Note_on_c, 0, 64, 0
2, 24096, Note_on_c, 0, 66, 81
2, 24104, Note_on_c, 0, 66, 0
2, 24104, Note_on_c, 0, 67, 81
2, 24112, Note_on_c, 0, 67, 0
2, 24112, Note_on_c, 0, 66, 81
2, 24120, Note_on_c, 0, 66, 0
2, 24120, Note_on_c, 0, 67, 81
2, 24128, Note_on_c, 0, 67, 0
2, 24128, Note_on_c, 0, 66, 81
2, 24136, Note_on_c, 0, 66, 0
2, 24136, Note_on_c, 0, 67, 81
2, 24143, Note_on_c, 0, 67, 0
2, 24143, Note_on_c, 0, 66, 81
2, 24150, Note_on_c, 0, 66, 0
2, 24150, Note_on_c, 0, 67, 81
2, 24157, Note_on_c, 0, 67, 0
2, 24157, Note_on_c, 0, 66, 81
2, 24164, Note_on_c, 0, 66, 0
2, 24164, Note_on_c, 0, 64, 81
2, 24178, Note_on_c, 0, 64, 0
2, 24178, Note_on_c, 0, 66, 81
2, 24192, Note_on_c, 0, 66, 0
2, 24192, Note_on_c, 0, 64, 81
2, 24237, Note_on_c, 0, 64, 0
2, 24336, Note_on_c, 0, 81, 66
2, 24348, Note_on_c, 0, 81, 0
2, 24348, Note_on_c, 0, 79, 66
2, 24360, Note_on_c, 0, 79, 0
2, 24360, Note_on_c, 0, 77, 66
2, 24372, Note_on_c, 0, 77, 0
2, 24372, Note_on_c, 0, 76, 66
2, 24384, Note_on_c, 0, 76, 0
2, 24384, Note_on_c, 0, 74, 66
2, 24432, Note_on_c, 0, 74, 0
2, 24432, Note_on_c, 0, 72, 66
2, 24477, Note_on_c, 0, 72, 0
2, 24496, Note_on_c, 0, 72, 66
2, 24511, Note_on_c, 0, 72, 0
2, 24512, Note_on_c, 0, 74, 66
2, 24527, Note_on_c, 0, 74, 0
2, 24528, Note_on_c, 0, 76, 66
2, 24543, Note_on_c, 0, 76, 0
2, 24544, Note_on_c, 0, 74, 66
2, 24559, Note_on_c, 0, 74, 0
2, 24560, Note_on_c, 0, 72, 66
2, 24575, Note_on_c, 0, 72, 0
2, 24576, Note_on_c, 0, 72, 66
2, 24624, Note_on_c, 0, 72, 0
2, 24624, Note_on_c, 0, 71, 66
2, 24669, Note_on_c, 0, 71, 0
2, 24688, Note_on_c, 0, 71, 66
2, 24703, Note_on_c, 0, 71, 0
2, 24704, Note_on_c, 0, 72, 66
2, 24719, Note_on_c, 0, 72, 0
2, 24720, Note_on_c, 0, 74, 66
2, 24735, Note_on_c, 0, 74, 0
2, 24736, Note_on_c, 0, 72, 66
2, 24751, Note_on_c, 0, 72, 0
2, 24752, Note_on_c, 0, 71, 66
2, 24767, Note_on_c, 0, 71, 0
2, 24784, Note_on_c, 0, 69, 66
2, 24799, Note_on_c, 0, 69, 0
2, 24800, Note_on_c, 0, 71, 66
2, 24815, Note_on_c, 0, 71, 0
2, 24816, Note_on_c, 0, 72, 66
2, 24831, Note_on_c, 0, 72, 0
2, 24832, Note_on_c, 0, 71, 67
2, 24847, Note_on_c, 0, 71, 0
2, 24848, Note_on_c, 0, 69, 67
2, 24863, Note_on_c, 0, 69, 0
2, 24880, Note_on_c, 0, 67, 68
2, 24895, Note_on_c, 0, 67, 0
2, 24896, Note_on_c, 0, 69, 68
2, 24911, Note_on_c, 0, 69, 0
2, 24912, Note_on_c, 0, 71, 68
2, 24927, Note_on_c, 0, 71, 0
2, 24928, Note_on_c, 0, 69, 69
2, 24943, Note_on_c, 0, 69, 0
2, 24944, Note_on_c, 0, 67, 69
2, 24959, Note_on_c, 0, 67, 0
2, 24960, Note_on_c, 0, 67, 69
2, 24983, Note_on_c, 0, 67, 0
2, 24984, Note_on_c, 0, 66, 70
2, 25007, Note_on_c, 0, 66, 0
2, 25008, Note_on_c, 0, 72, 71
2, 25008, Note_on_c, 0, 69, 71
2, 25097, Note_on_c, 0, 72, 0
2, 25097, Note_on_c, 0, 69, 0
2, 25104, Note_on_c, 0, 71, 75
2, 25104, Note_on_c, 0, 67, 75
2, 25149, Note_on_c, 0, 71, 0
2, 25149, Note_on_c, 0, 67, 0
2, 25152, Note_on_c, 0, 72, 73
2, 25158, Note_on_c, 0, 72, 0
2, 25158, Note_on_c, 0, 71, 73
2, 25164, Note_on_c, 0, 71, 0
2, 25164, Note_on_c, 0, 69, 73
2, 25170, Note_on_c, 0, 69, 0
2, 25170, Note_on_c, 0, 71, 73
2, 25197, Note_on_c, 0, 71, 0
2, 25200, Note_on_c, 0, 69, 71
2, 25245, Note_on_c, 0, 69, 0
2, 25296, Note_on_c, 0, 81, 66
2, 25308, Note_on_c, 0, 81, 0
2, 25308, Note_on_c, 0, 79, 66
2, 25320, Note_on_c, 0, 79, 0
2, 25320, Note_on_c, 0, 78, 66
2, 25332, Note_on_c, 0, 78, 0
2, 25332, Note_on_c, 0, 76, 66
2, 25344, Note_on_c, 0, 76, 0
2, 25344, Note_on_c, 0, 74, 66
2, 25389, Note_on_c, 0, 74, 0
2, 25392, Note_on_c, 0, 74, 66
2, 25437, Note_on_c, 0, 74, 0
2, 25440, Note_on_c, 0, 74, 66
2, 25485, Note_on_c, 0, 74, 0
2, 25488, Note_on_c, 0, 74, 66
2, 25533, Note_on_c, 0, 74, 0
2, 25536, Note_on_c, 0, 74, 66
2, 25570, Note_on_c, 0, 74, 0
2, 25572, Note_on_c, 0, 76, 66
2, 25584, Note_on_c, 0, 76, 0
2, 25584, Note_on_c, 0, 69, 66
2, 25618, Note_on_c, 0, 69, 0
2, 25620, Note_on_c, 0, 72, 66
2, 25632, Note_on_c, 0, 72, 0
2, 25632, Note_on_c, 0, 71, 66
2, 25652, Note_on_c, 0, 71, 0
2, 25680, Note_on_c, 0, 76, 66
2, 25692, Note_on_c, 0, 76, 0
2, 25692, Note_on_c, 0, 74, 66
2, 25704, Note_on_c, 0, 74, 0
2, 25704, Note_on_c, 0, 72, 66
2, 25716, Note_on_c, 0, 72, 0
2, 25716, Note_on_c, 0, 71, 66
2, 25728, Note_on_c, 0, 71, 0
2, 25728, Note_on_c, 0, 69, 66
2, 25748, Note_on_c, 0, 69, 0
2, 25776, Note_on_c, 0, 74, 66
2, 25788, Note_on_c, 0, 74, 0
2, 25788, Note_on_c, 0, 72, 66
2, 25800, Note_on_c, 0, 72, 0
2, 25800, Note_on_c, 0, 71, 66
2, 25812, Note_on_c, 0, 71, 0
2, 25812, Note_on_c, 0, 69, 66
2, 25824, Note_on_c, 0, 69, 0
2, 25824, Note_on_c, 0, 67, 66
2, 25844, Note_on_c, 0, 67, 0
2, 25872, Note_on_c, 0, 71, 66
2, 25884, Note_on_c, 0, 71, 0
2, 25884, Note_on_c, 0, 69, 66
2, 25896, Note_on_c, 0, 69, 0
2, 25896, Note_on_c, 0, 67, 66
2, 25908, Note_on_c, 0, 67, 0
2, 25908, Note_on_c, 0, 66, 66
2, 25920, Note_on_c, 0, 66, 0
2, 25920, Note_on_c, 0, 67, 66
2, 25965, Note_on_c, 0, 67, 0
2, 25968, Note_on_c, 0, 62, 66
2, 26013, Note_on_c, 0, 62, 0
2, 26064, Note_on_c, 0, 81, 66
2, 26076, Note_on_c, 0, 81, 0
2, 26076, Note_on_c, 0, 79, 66
2, 26088, Note_on_c, 0, 79, 0
2, 26088, Note_on_c, 0, 78, 66
2, 26100, Note_on_c, 0, 78, 0
2, 26100, Note_on_c, 0, 76, 66
2, 26112, Note_on_c, 0, 76, 0
2, 26112, Note_on_c, 0, 74, 66
2, 26135, Note_on_c, 0, 74, 0
2, 26136, Note_on_c, 0, 74, 66
2, 26181, Note_on_c, 0, 74, 0
2, 26184, Note_on_c, 0, 74, 66
2, 26229, Note_on_c, 0, 74, 0
2, 26232, Note_on_c, 0, 74, 66
2, 26277, Note_on_c, 0, 74, 0
2, 26280, Note_on_c, 0, 74, 66
2, 26327, Note_on_c, 0, 74, 0
2, 26328, Note_on_c, 0, 76, 66
2, 26351, Note_on_c, 0, 76, 0
2, 26352, Note_on_c, 0, 72, 66
2, 26375, Note_on_c, 0, 72, 0
2, 26376, Note_on_c, 0, 69, 66
2, 26399, Note_on_c, 0, 69, 0
2, 26400, Note_on_c, 0, 71, 66
2, 26420, Note_on_c, 0, 71, 0
2, 26448, Note_on_c, 0, 76, 66
2, 26460, Note_on_c, 0, 76, 0
2, 26460, Note_on_c, 0, 74, 66
2, 26472, Note_on_c, 0, 74, 0
2, 26472, Note_on_c, 0, 72, 66
2, 26484, Note_on_c, 0, 72, 0
2, 26484, Note_on_c, 0, 71, 66
2, 26496, Note_on_c, 0, 71, 0
2, 26496, Note_on_c, 0, 69, 66
2, 26516, Note_on_c, 0, 69, 0
2, 26544, Note_on_c, 0, 74, 66
2, 26556, Note_on_c, 0, 74, 0
2, 26556, Note_on_c, 0, 72, 66
2, 26568, Note_on_c, 0, 72, 0
2, 26568, Note_on_c, 0, 71, 66
2, 26580, Note_on_c, 0, 71, 0
2, 26580, Note_on_c, 0, 69, 66
2, 26592, Note_on_c, 0, 69, 0
2, 26592, Note_on_c, 0, 76, 66
2, 26612, Note_on_c, 0, 76, 0
2, 26640, Note_on_c, 0, 74, 66
2, 26652, Note_on_c, 0, 74, 0
2, 26652, Note_on_c, 0, 72, 66
2, 26664, Note_on_c, 0, 72, 0
2, 26664, Note_on_c, 0, 71, 66
2, 26676, Note_on_c, 0, 71, 0
2, 26676, Note_on_c, 0, 69, 66
2, 26688, Note_on_c, 0, 69, 0
2, 26688, Note_on_c, 0, 67, 66
2, 26784, Note_on_c, 0, 67, 0
2, 26784, Note_on_c, 0, 66, 66
2, 26804, Note_on_c, 0, 66, 0
2, 26832, Note_on_c, 0, 76, 66
2, 26844, Note_on_c, 0, 76, 0
2, 26844, Note_on_c, 0, 74, 66
2, 26856, Note_on_c, 0, 74, 0
2, 26856, Note_on_c, 0, 72, 66
2, 26868, Note_on_c, 0, 72, 0
2, 26868, Note_on_c, 0, 71, 66
2, 26880, Note_on_c, 0, 71, 0
2, 26880, Note_on_c, 0, 69, 66
2, 26928, Note_on_c, 0, 69, 0
2, 26928, Note_on_c, 0, 67, 66
2, 26973, Note_on_c, 0, 67, 0
2, 27024, Note_on_c, 0, 76, 66
2, 27036, Note_on_c, 0, 76, 0
2, 27036, Note_on_c, 0, 74, 66
2, 27048, Note_on_c, 0, 74, 0
2, 27048, Note_on_c, 0, 72, 66
2, 27060, Note_on_c, 0, 72, 0
2, 27060, Note_on_c, 0, 71, 66
2, 27072, Note_on_c, 0, 71, 0
2, 27072, Note_on_c, 0, 71, 66
2, 27120, Note_on_c, 0, 71, 0
2, 27120, Note_on_c, 0, 69, 66
2, 27165, Note_on_c, 0, 69, 0
2, 27216, Note_on_c, 0, 74, 66
2, 27228, Note_on_c, 0, 74, 0
2, 27228, Note_on_c, 0, 72, 66
2, 27240, Note_on_c, 0, 72, 0
2, 27240, Note_on_c, 0, 71, 66
2, 27252, Note_on_c, 0, 71, 0
2, 27252, Note_on_c, 0, 69, 66
2, 27264, Note_on_c, 0, 69, 0
2, 27264, Note_on_c, 0, 67, 66
2, 27312, Note_on_c, 0, 67, 0
2, 27312, Note_on_c, 0, 66, 66
2, 27357, Note_on_c, 0, 66, 0
2, 27376, Note_on_c, 0, 72, 66
2, 27391, Note_on_c, 0, 72, 0
2, 27392, Note_on_c, 0, 74, 66
2, 27407, Note_on_c, 0, 74, 0
2, 27408, Note_on_c, 0, 76, 66
2, 27423, Note_on_c, 0, 76, 0
2, 27424, Note_on_c, 0, 74, 66
2, 27439, Note_on_c, 0, 74, 0
2, 27440, Note_on_c, 0, 72, 66
2, 27455, Note_on_c, 0, 72, 0
2, 27456, Note_on_c, 0, 72, 66
2, 27480, Note_on_c, 0, 72, 0
2, 27480, Note_on_c, 0, 71, 66
2, 27503, Note_on_c, 0, 71, 0
2, 27528, Note_on_c, 0, 74, 66
2, 27538, Note_on_c, 0, 74, 0
2, 27552, Note_on_c, 0, 74, 66
2, 27576, Note_on_c, 0, 74, 0
2, 27576, Note_on_c, 0, 72, 67
2, 27599, Note_on_c, 0, 72, 0
2, 27600, Note_on_c, 0, 72, 67
2, 27624, Note_on_c, 0, 72, 0
2, 27624, Note_on_c, 0, 71, 68
2, 27647, Note_on_c, 0, 71, 0
2, 27648, Note_on_c, 0, 71, 69
2, 27672, Note_on_c, 0, 71, 0
2, 27672, Note_on_c, 0, 69, 69
2, 27695, Note_on_c, 0, 69, 0
2, 27696, Note_on_c, 0, 69, 70
2, 27720, Note_on_c, 0, 69, 0
2, 27720, Note_on_c, 0, 67, 70
2, 27743, Note_on_c, 0, 67, 0
2, 27744, Note_on_c, 0, 67, 71
2, 27768, Note_on_c, 0, 67, 0
2, 27768, Note_on_c, 0, 66, 72
2, 27791, Note_on_c, 0, 66, 0
2, 27792, Note_on_c, 0, 69, 72
2, 27816, Note_on_c, 0, 69, 0
2, 27816, Note_on_c, 0, 72, 73
2, 27839, Note_on_c, 0, 72, 0
2, 27840, Note_on_c, 0, 72, 73
2, 27864, Note_on_c, 0, 72, 0
2, 27864, Note_on_c, 0, 71, 74
2, 27887, Note_on_c, 0, 71, 0
2, 27912, Note_on_c, 0, 74, 75
2, 27922, Note_on_c, 0, 74, 0
2, 27936, Note_on_c, 0, 74, 66
2, 27942, Note_on_c, 0, 74, 0
2, 27942, Note_on_c, 0, 76, 66
2, 27948, Note_on_c, 0, 76, 0
2, 27948, Note_on_c, 0, 74, 66
2, 27959, Note_on_c, 0, 74, 0
2, 27960, Note_on_c, 0, 72, 66
2, 27983, Note_on_c, 0, 72, 0
2, 27984, Note_on_c, 0, 72, 67
2, 27990, Note_on_c, 0, 72, 0
2, 27990, Note_on_c, 0, 74, 67
2, 27996, Note_on_c, 0, 74, 0
2, 27996, Note_on_c, 0, 72, 67
2, 28007, Note_on_c, 0, 72, 0
2, 28008, Note_on_c, 0, 71, 68
2, 28031, Note_on_c, 0, 71, 0
2, 28032, Note_on_c, 0, 71, 69
2, 28038, Note_on_c, 0, 71, 0
2, 28038, Note_on_c, 0, 72, 69
2, 28044, Note_on_c, 0, 72, 0
2, 28044, Note_on_c, 0, 71, 69
2, 28055, Note_on_c, 0, 71, 0
2, 28056, Note_on_c, 0, 69, 69
2, 28079, Note_on_c, 0, 69, 0
2, 28080, Note_on_c, 0, 69, 70
2, 28086, Note_on_c, 0, 69, 0
2, 28086, Note_on_c, 0, 71, 70
2, 28092, Note_on_c, 0, 71, 0
2, 28092, Note_on_c, 0, 69, 70
2, 28103, Note_on_c, 0, 69, 0
2, 28104, Note_on_c, 0, 67, 71
2, 28127, Note_on_c, 0, 67, 0
2, 28128, Note_on_c, 0, 67, 72
2, 28134, Note_on_c, 0, 67, 0
2, 28134, Note_on_c, 0, 69, 72
2, 28140, Note_on_c, 0, 69, 0
2, 28140, Note_on_c, 0, 67, 72
2, 28151, Note_on_c, 0, 67, 0
2, 28152, Note_on_c, 0, 66, 72
2, 28175, Note_on_c, 0, 66, 0
2, 28176, Note_on_c, 0, 69, 73
2, 28200, Note_on_c, 0, 69, 0
2, 28200, Note_on_c, 0, 72, 74
2, 28223, Note_on_c, 0, 72, 0
2, 28224, Note_on_c, 0, 71, 66
2, 28247, Note_on_c, 0, 71, 0
2, 28248, Note_on_c, 0, 67, 67
2, 28271, Note_on_c, 0, 67, 0
2, 28272, Note_on_c, 0, 69, 68
2, 28295, Note_on_c, 0, 69, 0
2, 28296, Note_on_c, 0, 71, 69
2, 28319, Note_on_c, 0, 71, 0
2, 28320, Note_on_c, 0, 72, 70
2, 28343, Note_on_c, 0, 72, 0
2, 28344, Note_on_c, 0, 73, 71
2, 28367, Note_on_c, 0, 73, 0
2, 28368, Note_on_c, 0, 74, 72
2, 28391, Note_on_c, 0, 74, 0
2, 28392, Note_on_c, 0, 75, 73
2, 28415, Note_on_c, 0, 75, 0
2, 28416, Note_on_c, 0, 76, 75
2, 28535, Note_on_c, 0, 76, 0
2, 28536, Note_on_c, 0, 72, 75
2, 28548, Note_on_c, 0, 72, 0
2, 28548, Note_on_c, 0, 74, 75
2, 28560, Note_on_c, 0, 74, 0
2, 28560, Note_on_c, 0, 76, 75
2, 28605, Note_on_c, 0, 76, 0
2, 28608, Note_on_c, 0, 71, 75
2, 28615, Note_on_c, 0, 71, 0
2, 28615, Note_on_c, 0, 72, 74
2, 28622, Note_on_c, 0, 72, 0
2, 28622, Note_on_c, 0, 71, 74
2, 28629, Note_on_c, 0, 71, 0
2, 28629, Note_on_c, 0, 72, 73
2, 28636, Note_on_c, 0, 72, 0
2, 28636, Note_on_c, 0, 71, 73
2, 28643, Note_on_c, 0, 71, 0
2, 28643, Note_on_c, 0, 69, 73
2, 28650, Note_on_c, 0, 69, 0
2, 28650, Note_on_c, 0, 71, 72
2, 28656, Note_on_c, 0, 71, 0
2, 28656, Note_on_c, 0, 72, 72
2, 28679, Note_on_c, 0, 72, 0
2, 28680, Note_on_c, 0, 69, 70
2, 28703, Note_on_c, 0, 69, 0
2, 28704, Note_on_c, 0, 67, 69
2, 28749, Note_on_c, 0, 67, 0
2, 28752, Note_on_c, 0, 66, 66
2, 28759, Note_on_c, 0, 66, 0
2, 28759, Note_on_c, 0, 67, 66
2, 28766, Note_on_c, 0, 67, 0
2, 28766, Note_on_c, 0, 66, 66
2, 28773, Note_on_c, 0, 66, 0
2, 28773, Note_on_c, 0, 67, 66
2, 28780, Note_on_c, 0, 67, 0
2, 28780, Note_on_c, 0, 66, 66
2, 28787, Note_on_c, 0, 66, 0
2, 28787, Note_on_c, 0, 64, 66
2, 28794, Note_on_c, 0, 64, 0
2, 28794, Note_on_c, 0, 66, 66
2, 28800, Note_on_c, 0, 66, 0
2, 28800, Note_on_c, 0, 67, 66
2, 28823, Note_on_c, 0, 67, 0
2, 28824, Note_on_c, 0, 67, 67
2, 28847, Note_on_c, 0, 67, 0
2, 28848, Note_on_c, 0, 69, 68
2, 28871, Note_on_c, 0, 69, 0
2, 28872, Note_on_c, 0, 71, 69
2, 28895, Note_on_c, 0, 71, 0
2, 28896, Note_on_c, 0, 72, 70
2, 28919, Note_on_c, 0, 72, 0
2, 28920, Note_on_c, 0, 73, 71
2, 28943, Note_on_c, 0, 73, 0
2, 28944, Note_on_c, 0, 74, 72
2, 28967, Note_on_c, 0, 74, 0
2, 28968, Note_on_c, 0, 75, 73
2, 28991, Note_on_c, 0, 75, 0
2, 28992, Note_on_c, 0, 76, 75
2, 29111, Note_on_c, 0, 76, 0
2, 29112, Note_on_c, 0, 72, 75
2, 29124, Note_on_c, 0, 72, 0
2, 29124, Note_on_c, 0, 74, 75
2, 29136, Note_on_c, 0, 74, 0
2, 29136, Note_on_c, 0, 76, 75
2, 29181, Note_on_c, 0, 76, 0
2, 29208, Note_on_c, 0, 71, 75
2, 29220, Note_on_c, 0, 71, 0
2, 29220, Note_on_c, 0, 72, 75
2, 29232, Note_on_c, 0, 72, 0
2, 29232, Note_on_c, 0, 74, 75
2, 29255, Note_on_c, 0, 74, 0
2, 29256, Note_on_c, 0, 67, 75
2, 29279, Note_on_c, 0, 67, 0
2, 29304, Note_on_c, 0, 66, 76
2, 29316, Note_on_c, 0, 66, 0
2, 29316, Note_on_c, 0, 67, 76
2, 29328, Note_on_c, 0, 67, 0
2, 29328, Note_on_c, 0, 69, 77
2, 29351, Note_on_c, 0, 69, 0
2, 29352, Note_on_c, 0, 66, 77
2, 29375, Note_on_c, 0, 66, 0
2, 29400, Note_on_c, 0, 67, 78
2, 29412, Note_on_c, 0, 67, 0
2, 29412, Note_on_c, 0, 69, 78
2, 29424, Note_on_c, 0, 69, 0
2, 29424, Note_on_c, 0, 71, 78
2, 29447, Note_on_c, 0, 71, 0
2, 29448, Note_on_c, 0, 67, 79
2, 29471, Note_on_c, 0, 67, 0
2, 29496, Note_on_c, 0, 69, 79
2, 29508, Note_on_c, 0, 69, 0
2, 29508, Note_on_c, 0, 71, 80
2, 29520, Note_on_c, 0, 71, 0
2, 29520, Note_on_c, 0, 72, 80
2, 29543, Note_on_c, 0, 72, 0
2, 29544, Note_on_c, 0, 69, 80
2, 29567, Note_on_c, 0, 69, 0
2, 29592, Note_on_c, 0, 83, 81
2, 29604, Note_on_c, 0, 83, 0
2, 29604, Note_on_c, 0, 84, 81
2, 29616, Note_on_c, 0, 84, 0
2, 29616, Note_on_c, 0, 86, 81
2, 29628, Note_on_c, 0, 86, 0
2, 29628, Note_on_c, 0, 84, 81
2, 29640, Note_on_c, 0, 84, 0
2, 29640, Note_on_c, 0, 83, 81
2, 29652, Note_on_c, 0, 83, 0
2, 29652, Note_on_c, 0, 81, 81
2, 29664, Note_on_c, 0, 81, 0
2, 29664, Note_on_c, 0, 79, 81
2, 29676, Note_on_c, 0, 79, 0
2, 29676, Note_on_c, 0, 78, 81
2, 29688, Note_on_c, 0, 78, 0
2, 29688, Note_on_c, 0, 76, 81
2, 29700, Note_on_c, 0, 76, 0
2, 29700, Note_on_c, 0, 74, 81
2, 29712, Note_on_c, 0, 74, 0
2, 29712, Note_on_c, 0, 72, 81
2, 29724, Note_on_c, 0, 72, 0
2, 29724, Note_on_c, 0, 71, 81
2, 29736, Note_on_c, 0, 71, 0
2, 29736, Note_on_c, 0, 69, 81
2, 29748, Note_on_c, 0, 69, 0
2, 29748, Note_on_c, 0, 67, 81
2, 29760, Note_on_c, 0, 67, 0
2, 29760, Note_on_c, 0, 69, 81
2, 29783, Note_on_c, 0, 69, 0
2, 29784, Note_on_c, 0, 72, 81
2, 29796, Note_on_c, 0, 72, 0
2, 29796, Note_on_c, 0, 74, 81
2, 29808, Note_on_c, 0, 74, 0
2, 29808, Note_on_c, 0, 76, 81
2, 29820, Note_on_c, 0, 76, 0
2, 29820, Note_on_c, 0, 72, 81
2, 29832, Note_on_c, 0, 72, 0
2, 29832, Note_on_c, 0, 71, 81
2, 29844, Note_on_c, 0, 71, 0
2, 29844, Note_on_c, 0, 69, 81
2, 29856, Note_on_c, 0, 69, 0
2, 29856, Note_on_c, 0, 67, 81
2, 29901, Note_on_c, 0, 67, 0
2, 29904, Note_on_c, 0, 66, 81
2, 29911, Note_on_c, 0, 66, 0
2, 29911, Note_on_c, 0, 67, 81
2, 29918, Note_on_c, 0, 67, 0
2, 29918, Note_on_c, 0, 66, 81
2, 29925, Note_on_c, 0, 66, 0
2, 29925, Note_on_c, 0, 67, 81
2, 29932, Note_on_c, 0, 67, 0
2, 29932, Note_on_c, 0, 66, 81
2, 29939, Note_on_c, 0, 66, 0
2, 29939, Note_on_c, 0, 64, 81
2, 29946, Note_on_c, 0, 64, 0
2, 29946, Note_on_c, 0, 66, 81
2, 29952, Note_on_c, 0, 66, 0
2, 29952, Note_on_c, 0, 67, 81
2, 29975, Note_on_c, 0, 67, 0
2, 29976, Note_on_c, 0, 83, 81
2, 29988, Note_on_c, 0, 83, 0
2, 29988, Note_on_c, 0, 84, 81
2, 30000, Note_on_c, 0, 84, 0
2, 30000, Note_on_c, 0, 86, 81
2, 30012, Note_on_c, 0, 86, 0
2, 30012, Note_on_c, 0, 84, 81
2, 30024, Note_on_c, 0, 84, 0
2, 30024, Note_on_c, 0, 83, 81
2, 30036, Note_on_c, 0, 83, 0
2, 30036, Note_on_c, 0, 81, 81
2, 30048, Note_on_c, 0, 81, 0
2, 30048, Note_on_c, 0, 79, 81
2, 30060, Note_on_c, 0, 79, 0
2, 30060, Note_on_c, 0, 78, 81
2, 30072, Note_on_c, 0, 78, 0
2, 30072, Note_on_c, 0, 76, 81
2, 30084, Note_on_c, 0, 76, 0
2, 30084, Note_on_c, 0, 74, 81
2, 30096, Note_on_c, 0, 74, 0
2, 30096, Note_on_c, 0, 72, 81
2, 30108, Note_on_c, 0, 72, 0
2, 30108, Note_on_c, 0, 71, 81
2, 30120, Note_on_c, 0, 71, 0
2, 30120, Note_on_c, 0, 69, 81
2, 30132, Note_on_c, 0, 69, 0
2, 30132, Note_on_c, 0, 67, 81
2, 30144, Note_on_c, 0, 67, 0
2, 30144, Note_on_c, 0, 69, 81
2, 30167, Note_on_c, 0, 69, 0
2, 30168, Note_on_c, 0, 72, 81
2, 30180, Note_on_c, 0, 72, 0
2, 30180, Note_on_c, 0, 74, 81
2, 30192, Note_on_c, 0, 74, 0
2, 30192, Note_on_c, 0, 76, 81
2, 30204, Note_on_c, 0, 76, 0
2, 30204, Note_on_c, 0, 72, 81
2, 30216, Note_on_c, 0, 72, 0
2, 30216, Note_on_c, 0, 71, 81
2, 30228, Note_on_c, 0, 71, 0
2, 30228, Note_on_c, 0, 69, 81
2, 30240, Note_on_c, 0, 69, 0
2, 30240, Note_on_c, 0, 67, 81
2, 30285, Note_on_c, 0, 67, 0
2, 30288, Note_on_c, 0, 66, 81
2, 30295, Note_on_c, 0, 66, 0
2, 30295, Note_on_c, 0, 67, 81
2, 30302, Note_on_c, 0, 67, 0
2, 30302, Note_on_c, 0, 66, 81
2, 30309, Note_on_c, 0, 66, 0
2, 30309, Note_on_c, 0, 67, 81
2, 30316, Note_on_c, 0, 67, 0
2, 30316, Note_on_c, 0, 66, 81
2, 30323, Note_on_c, 0, 66, 0
2, 30323, Note_on_c, 0, 64, 81
2, 30330, Note_on_c, 0, 64, 0
2, 30330, Note_on_c, 0, 66, 81
2, 30336, Note_on_c, 0, 66, 0
2, 30336, Note_on_c, 0, 67, 81
2, 30425, Note_on_c, 0, 67, 0
2, 30528, End_track
3, 0, Start_track
3, 0, Program_c, 0, 0
3, 0, Control_c, 0, 7, 127
3, 0, Control_c, 0, 10, 64
3, 15168, Note_on_c, 0, 67, 75
3, 15213, Note_on_c, 0, 67, 0
3, 15216, Note_on_c, 0, 66, 72
3, 15261, Note_on_c, 0, 66, 0
3, 25152, Note_on_c, 0, 67, 75
3, 25197, Note_on_c, 0, 67, 0
3, 25200, Note_on_c, 0, 66, 72
3, 25245, Note_on_c, 0, 66, 0
3, 30528, End_track
4, 0, Start_track
4, 0, Program_c, 1, 0
4, 0, Control_c, 1, 7, 127
4, 0, Control_c, 1, 10, 64
4, 240, Note_on_c, 1, 59, 66
4, 285, Note_on_c, 1, 59, 0
4, 288, Note_on_c, 1, 57, 66
4, 333, Note_on_c, 1, 57, 0
4, 336, Note_on_c, 1, 55, 66
4, 381, Note_on_c, 1, 55, 0
4, 384, Note_on_c, 1, 54, 66
4, 429, Note_on_c, 1, 54, 0
4, 432, Note_on_c, 1, 66, 66
4, 477, Note_on_c, 1, 66, 0
4, 480, Note_on_c, 1, 67, 66
4, 525, Note_on_c, 1, 67, 0
4, 528, Note_on_c, 1, 59, 66
4, 573, Note_on_c, 1, 59, 0
4, 576, Note_on_c, 1, 60, 66
4, 621, Note_on_c, 1, 60, 0
4, 624, Note_on_c, 1, 57, 66
4, 669, Note_on_c, 1, 57, 0
4, 672, Note_on_c, 1, 62, 66
4, 717, Note_on_c, 1, 62, 0
4, 720, Note_on_c, 1, 50, 66
4, 765, Note_on_c, 1, 50, 0
4, 804, Note_on_c, 1, 43, 66
4, 816, Note_on_c, 1, 43, 0
4, 816, Note_on_c, 1, 47, 66
4, 850, Note_on_c, 1, 47, 0
4, 852, Note_on_c, 1, 50, 66
4, 864, Note_on_c, 1, 50, 0
4, 864, Note_on_c, 1, 55, 66
4, 909, Note_on_c, 1, 55, 0
4, 1008, Note_on_c, 1, 59, 66
4, 1053, Note_on_c, 1, 59, 0
4, 1056, Note_on_c, 1, 57, 66
4, 1101, Note_on_c, 1, 57, 0
4, 1104, Note_on_c, 1, 55, 66
4, 1149, Note_on_c, 1, 55, 0
4, 1152, Note_on_c, 1, 54, 66
4, 1197, Note_on_c, 1, 54, 0
4, 1200, Note_on_c, 1, 66, 66
4, 1245, Note_on_c, 1, 66, 0
4, 1248, Note_on_c, 1, 67, 66
4, 1293, Note_on_c, 1, 67, 0
4, 1296, Note_on_c, 1, 59, 66
4, 1341, Note_on_c, 1, 59, 0
4, 1344, Note_on_c, 1, 60, 66
4, 1433, Note_on_c, 1, 60, 0
4, 1488, Note_on_c, 1, 57, 66
4, 1533, Note_on_c, 1, 57, 0
4, 1536, Note_on_c, 1, 62, 66
4, 1581, Note_on_c, 1, 62, 0
4, 1584, Note_on_c, 1, 57, 66
4, 1629, Note_on_c, 1, 57, 0
4, 1632, Note_on_c, 1, 50, 66
4, 1677, Note_on_c, 1, 50, 0
4, 1776, Note_on_c, 1, 57, 66
4, 1776, Note_on_c, 1, 54, 66
4, 1796, Note_on_c, 1, 57, 0
4, 1796, Note_on_c, 1, 54, 0
4, 1824, Note_on_c, 1, 57, 66
4, 1824, Note_on_c, 1, 54, 66
4, 1871, Note_on_c, 1, 57, 0
4, 1871, Note_on_c, 1, 54, 0
4, 1968, Note_on_c, 1, 59, 66
4, 1968, Note_on_c, 1, 55, 66
4, 1988, Note_on_c, 1, 59, 0
4, 1988, Note_on_c, 1, 55, 0
4, 2016, Note_on_c, 1, 59, 66
4, 2016, Note_on_c, 1, 55, 66
4, 2063, Note_on_c, 1, 59, 0
4, 2063, Note_on_c, 1, 55, 0
4, 2160, Note_on_c, 1, 64, 66
4, 2160, Note_on_c, 1, 57, 66
4, 2180, Note_on_c, 1, 64, 0
4, 2180, Note_on_c, 1, 57, 0
4, 2208, Note_on_c, 1, 64, 66
4, 2208, Note_on_c, 1, 57, 66
4, 2255, Note_on_c, 1, 64, 0
4, 2255, Note_on_c, 1, 57, 0
4, 2304, Note_on_c, 1, 62, 66
4, 2349, Note_on_c, 1, 62, 0
4, 2352, Note_on_c, 1, 66, 66
4, 2397, Note_on_c, 1, 66, 0
4, 2400, Note_on_c, 1, 64, 67
4, 2445, Note_on_c, 1, 64, 0
4, 2448, Note_on_c, 1, 62, 68
4, 2493, Note_on_c, 1, 62, 0
4, 2496, Note_on_c, 1, 61, 69
4, 2541, Note_on_c, 1, 61, 0
4, 2544, Note_on_c, 1, 59, 70
4, 2589, Note_on_c, 1, 59, 0
4, 2592, Note_on_c, 1, 57, 71
4, 2637, Note_on_c, 1, 57, 0
4, 2640, Note_on_c, 1, 61, 72
4, 2685, Note_on_c, 1, 61, 0
4, 2688, Note_on_c, 1, 62, 73
4, 2733, Note_on_c, 1, 62, 0
4, 2736, Note_on_c, 1, 66, 74
4, 2781, Note_on_c, 1, 66, 0
4, 2784, Note_on_c, 1, 64, 66
4, 2829, Note_on_c, 1, 64, 0
4, 2832, Note_on_c, 1, 62, 67
4, 2877, Note_on_c, 1, 62, 0
4, 2880, Note_on_c, 1, 61, 69
4, 2925, Note_on_c, 1, 61, 0
4, 2928, Note_on_c, 1, 59, 70
4, 2973, Note_on_c, 1, 59, 0
4, 2976, Note_on_c, 1, 57, 72
4, 3021, Note_on_c, 1, 57, 0
4, 3024, Note_on_c, 1, 61, 73
4, 3069, Note_on_c, 1, 61, 0
4, 3072, Note_on_c, 1, 62, 75
4, 3161, Note_on_c, 1, 62, 0
4, 3408, Note_on_c, 1, 69, 75
4, 3501, Note_on_c, 1, 69, 0
4, 3504, Note_on_c, 1, 67, 72
4, 3549, Note_on_c, 1, 67, 0
4, 3552, Note_on_c, 1, 66, 69
4, 3597, Note_on_c, 1, 66, 0
4, 3600, Note_on_c, 1, 64, 66
4, 3645, Note_on_c, 1, 64, 0
4, 3648, Note_on_c, 1, 62, 66
4, 3737, Note_on_c, 1, 62, 0
4, 3984, Note_on_c, 1, 69, 66
4, 4077, Note_on_c, 1, 69, 0
4, 4080, Note_on_c, 1, 69, 66
4, 4169, Note_on_c, 1, 69, 0
4, 4176, Note_on_c, 1, 69, 66
4, 4269, Note_on_c, 1, 69, 0
4, 4272, Note_on_c, 1, 69, 66
4, 4361, Note_on_c, 1, 69, 0
4, 4368, Note_on_c, 1, 69, 66
4, 4461, Note_on_c, 1, 69, 0
4, 4560, Note_on_c, 1, 57, 75
4, 4560, Note_on_c, 1, 54, 75
4, 4605, Note_on_c, 1, 57, 0
4, 4605, Note_on_c, 1, 54, 0
4, 4608, Note_on_c, 1, 59, 75
4, 4608, Note_on_c, 1, 55, 75
4, 4697, Note_on_c, 1, 59, 0
4, 4697, Note_on_c, 1, 55, 0
4, 4704, Note_on_c, 1, 54, 75
4, 4749, Note_on_c, 1, 54, 0
4, 4752, Note_on_c, 1, 52, 75
4, 4797, Note_on_c, 1, 52, 0
4, 4800, Note_on_c, 1, 50, 75
4, 4889, Note_on_c, 1, 50, 0
4, 4944, Note_on_c, 1, 57, 75
4, 4944, Note_on_c, 1, 54, 75
4, 4989, Note_on_c, 1, 57, 0
4, 4989, Note_on_c, 1, 54, 0
4, 4992, Note_on_c, 1, 59, 75
4, 4992, Note_on_c, 1, 55, 75
4, 5081, Note_on_c, 1, 59, 0
4, 5081, Note_on_c, 1, 55, 0
4, 5088, Note_on_c, 1, 54, 75
4, 5133, Note_on_c, 1, 54, 0
4, 5136, Note_on_c, 1, 52, 75
4, 5181, Note_on_c, 1, 52, 0
4, 5184, Note_on_c, 1, 50, 75
4, 5229, Note_on_c, 1, 50, 0
4, 5232, Note_on_c, 1, 45, 75
4, 5277, Note_on_c, 1, 45, 0
4, 5280, Note_on_c, 1, 38, 75
4, 5325, Note_on_c, 1, 38, 0
4, 5424, Note_on_c, 1, 59, 66
4, 5469, Note_on_c, 1, 59, 0
4, 5472, Note_on_c, 1, 57, 66
4, 5517, Note_on_c, 1, 57, 0
4, 5520, Note_on_c, 1, 55, 66
4, 5565, Note_on_c, 1, 55, 0
4, 5568, Note_on_c, 1, 54, 66
4, 5613, Note_on_c, 1, 54, 0
4, 5616, Note_on_c, 1, 66, 66
4, 5661, Note_on_c, 1, 66, 0
4, 5664, Note_on_c, 1, 67, 66
4, 5709, Note_on_c, 1, 67, 0
4, 5712, Note_on_c, 1, 59, 66
4, 5757, Note_on_c, 1, 59, 0
4, 5760, Note_on_c, 1, 60, 66
4, 5805, Note_on_c, 1, 60, 0
4, 5808, Note_on_c, 1, 57, 66
4, 5853, Note_on_c, 1, 57, 0
4, 5856, Note_on_c, 1, 62, 66
4, 5901, Note_on_c, 1, 62, 0
4, 5904, Note_on_c, 1, 50, 66
4, 5949, Note_on_c, 1, 50, 0
4, 5988, Note_on_c, 1, 43, 66
4, 6000, Note_on_c, 1, 43, 0
4, 6000, Note_on_c, 1, 47, 66
4, 6034, Note_on_c, 1, 47, 0
4, 6036, Note_on_c, 1, 50, 66
4, 6048, Note_on_c, 1, 50, 0
4, 6048, Note_on_c, 1, 55, 66
4, 6093, Note_on_c, 1, 55, 0
4, 6192, Note_on_c, 1, 59, 66
4, 6237, Note_on_c, 1, 59, 0
4, 6240, Note_on_c, 1, 57, 66
4, 6285, Note_on_c, 1, 57, 0
4, 6288, Note_on_c, 1, 55, 66
4, 6333, Note_on_c, 1, 55, 0
4, 6336, Note_on_c, 1, 54, 66
4, 6381, Note_on_c, 1, 54, 0
4, 6384, Note_on_c, 1, 66, 66
4, 6429, Note_on_c, 1, 66, 0
4, 6432, Note_on_c, 1, 67, 66
4, 6477, Note_on_c, 1, 67, 0
4, 6480, Note_on_c, 1, 59, 66
4, 6525, Note_on_c, 1, 59, 0
4, 6528, Note_on_c, 1, 60, 66
4, 6617, Note_on_c, 1, 60, 0
4, 6672, Note_on_c, 1, 57, 66
4, 6717, Note_on_c, 1, 57, 0
4, 6720, Note_on_c, 1, 62, 66
4, 6765, Note_on_c, 1, 62, 0
4, 6768, Note_on_c, 1, 57, 66
4, 6813, Note_on_c, 1, 57, 0
4, 6816, Note_on_c, 1, 50, 66
4, 6861, Note_on_c, 1, 50, 0
4, 6960, Note_on_c, 1, 57, 66
4, 6960, Note_on_c, 1, 54, 66
4, 6980, Note_on_c, 1, 57, 0
4, 6980, Note_on_c, 1, 54, 0
4, 7008, Note_on_c, 1, 57, 66
4, 7008, Note_on_c, 1, 54, 66
4, 7055, Note_on_c, 1, 57, 0
4, 7055, Note_on_c, 1, 54, 0
4, 7152, Note_on_c, 1, 59, 66
4, 7152, Note_on_c, 1, 55, 66
4, 7172, Note_on_c, 1, 59, 0
4, 7172, Note_on_c, 1, 55, 0
4, 7200, Note_on_c, 1, 59, 66
4, 7200, Note_on_c, 1, 55, 66
4, 7247, Note_on_c, 1, 59, 0
4, 7247, Note_on_c, 1, 55, 0
4, 7344, Note_on_c, 1, 64, 66
4, 7344, Note_on_c, 1, 57, 66
4, 7364, Note_on_c, 1, 64, 0
4, 7364, Note_on_c, 1, 57, 0
4, 7392, Note_on_c, 1, 64, 66
4, 7392, Note_on_c, 1, 57, 66
4, 7439, Note_on_c, 1, 64, 0
4, 7439, Note_on_c, 1, 57, 0
4, 7488, Note_on_c, 1, 62, 66
4, 7533, Note_on_c, 1, 62, 0
4, 7536, Note_on_c, 1, 66, 66
4, 7581, Note_on_c, 1, 66, 0
4, 7584, Note_on_c, 1, 64, 67
4, 7629, Note_on_c, 1, 64, 0
4, 7632, Note_on_c, 1, 62, 68
4, 7677, Note_on_c, 1, 62, 0
4, 7680, Note_on_c, 1, 61, 69
4, 7725, Note_on_c, 1, 61, 0
4, 7728, Note_on_c, 1, 59, 70
4, 7773, Note_on_c, 1, 59, 0
4, 7776, Note_on_c, 1, 57, 71
4, 7821, Note_on_c, 1, 57, 0
4, 7824, Note_on_c, 1, 61, 72
4, 7869, Note_on_c, 1, 61, 0
4, 7872, Note_on_c, 1, 62, 73
4, 7917, Note_on_c, 1, 62, 0
4, 7920, Note_on_c, 1, 66, 74
4, 7965, Note_on_c, 1, 66, 0
4, 7968, Note_on_c, 1, 64, 66
4, 8013, Note_on_c, 1, 64, 0
4, 8016, Note_on_c, 1, 62, 67
4, 8061, Note_on_c, 1, 62, 0
4, 8064, Note_on_c, 1, 61, 69
4, 8109, Note_on_c, 1, 61, 0
4, 8112, Note_on_c, 1, 59, 70
4, 8157, Note_on_c, 1, 59, 0
4, 8160, Note_on_c, 1, 57, 72
4, 8205, Note_on_c, 1, 57, 0
4, 8208, Note_on_c, 1, 61, 73
4, 8253, Note_on_c, 1, 61, 0
4, 8256, Note_on_c, 1, 62, 75
4, 8345, Note_on_c, 1, 62, 0
4, 8592, Note_on_c, 1, 69, 75
4, 8685, Note_on_c, 1, 69, 0
4, 8688, Note_on_c, 1, 67, 72
4, 8733, Note_on_c, 1, 67, 0
4, 8736, Note_on_c, 1, 66, 69
4, 8781, Note_on_c, 1, 66, 0
4, 8784, Note_on_c, 1, 64, 66
4, 8829, Note_on_c, 1, 64, 0
4, 8832, Note_on_c, 1, 62, 66
4, 8921, Note_on_c, 1, 62, 0
4, 9168, Note_on_c, 1, 69, 66
4, 9261, Note_on_c, 1, 69, 0
4, 9264, Note_on_c, 1, 69, 66
4, 9353, Note_on_c, 1, 69, 0
4, 9360, Note_on_c, 1, 69, 66
4, 9453, Note_on_c, 1, 69, 0
4, 9456, Note_on_c, 1, 69, 66
4, 9545, Note_on_c, 1, 69, 0
4, 9552, Note_on_c, 1, 69, 66
4, 9645, Note_on_c, 1, 69, 0
4, 9744, Note_on_c, 1, 57, 75
4, 9744, Note_on_c, 1, 54, 75
4, 9789, Note_on_c, 1, 57, 0
4, 9789, Note_on_c, 1, 54, 0
4, 9792, Note_on_c, 1, 59, 75
4, 9792, Note_on_c, 1, 55, 75
4, 9881, Note_on_c, 1, 59, 0
4, 9881, Note_on_c, 1, 55, 0
4, 9888, Note_on_c, 1, 54, 75
4, 9933, Note_on_c, 1, 54, 0
4, 9936, Note_on_c, 1, 52, 75
4, 9981, Note_on_c, 1, 52, 0
4, 9984, Note_on_c, 1, 50, 75
4, 10073, Note_on_c, 1, 50, 0
4, 10128, Note_on_c, 1, 57, 75
4, 10128, Note_on_c, 1, 54, 75
4, 10173, Note_on_c, 1, 57, 0
4, 10173, Note_on_c, 1, 54, 0
4, 10176, Note_on_c, 1, 59, 75
4, 10176, Note_on_c, 1, 55, 75
4, 10265, Note_on_c, 1, 59, 0
4, 10265, Note_on_c, 1, 55, 0
4, 10272, Note_on_c, 1, 54, 75
4, 10317, Note_on_c, 1, 54, 0
4, 10320, Note_on_c, 1, 52, 75
4, 10365, Note_on_c, 1, 52, 0
4, 10368, Note_on_c, 1, 50, 75
4, 10413, Note_on_c, 1, 50, 0
4, 10416, Note_on_c, 1, 45, 75
4, 10461, Note_on_c, 1, 45, 0
4, 10464, Note_on_c, 1, 38, 75
4, 10509, Note_on_c, 1, 38, 0
4, 10608, Note_on_c, 1, 54, 66
4, 10653, Note_on_c, 1, 54, 0
4, 10656, Note_on_c, 1, 52, 66
4, 10701, Note_on_c, 1, 52, 0
4, 10704, Note_on_c, 1, 50, 66
4, 10749, Note_on_c, 1, 50, 0
4, 10752, Note_on_c, 1, 49, 66
4, 10797, Note_on_c, 1, 49, 0
4, 10800, Note_on_c, 1, 61, 66
4, 10845, Note_on_c, 1, 61, 0
4, 10848, Note_on_c, 1, 62, 66
4, 10893, Note_on_c, 1, 62, 0
4, 10896, Note_on_c, 1, 54, 66
4, 10941, Note_on_c, 1, 54, 0
4, 10944, Note_on_c, 1, 55, 66
4, 10989, Note_on_c, 1, 55, 0
4, 10992, Note_on_c, 1, 52, 66
4, 11037, Note_on_c, 1, 52, 0
4, 11040, Note_on_c, 1, 57, 66
4, 11085, Note_on_c, 1, 57, 0
4, 11088, Note_on_c, 1, 45, 66
4, 11133, Note_on_c, 1, 45, 0
4, 11172, Note_on_c, 1, 38, 66
4, 11184, Note_on_c, 1, 38, 0
4, 11184, Note_on_c, 1, 42, 66
4, 11218, Note_on_c, 1, 42, 0
4, 11220, Note_on_c, 1, 45, 66
4, 11232, Note_on_c, 1, 45, 0
4, 11232, Note_on_c, 1, 50, 66
4, 11277, Note_on_c, 1, 50, 0
4, 11376, Note_on_c, 1, 59, 66
4, 11421, Note_on_c, 1, 59, 0
4, 11424, Note_on_c, 1, 57, 66
4, 11469, Note_on_c, 1, 57, 0
4, 11472, Note_on_c, 1, 55, 66
4, 11517, Note_on_c, 1, 55, 0
4, 11520, Note_on_c, 1, 54, 66
4, 11565, Note_on_c, 1, 54, 0
4, 11568, Note_on_c, 1, 66, 66
4, 11613, Note_on_c, 1, 66, 0
4, 11616, Note_on_c, 1, 67, 66
4, 11661, Note_on_c, 1, 67, 0
4, 11664, Note_on_c, 1, 59, 66
4, 11709, Note_on_c, 1, 59, 0
4, 11712, Note_on_c, 1, 60, 66
4, 11757, Note_on_c, 1, 60, 0
4, 11760, Note_on_c, 1, 57, 66
4, 11805, Note_on_c, 1, 57, 0
4, 11808, Note_on_c, 1, 62, 66
4, 11853, Note_on_c, 1, 62, 0
4, 11856, Note_on_c, 1, 50, 66
4, 11901, Note_on_c, 1, 50, 0
4, 11928, Note_on_c, 1, 55, 66
4, 11940, Note_on_c, 1, 55, 0
4, 11940, Note_on_c, 1, 57, 66
4, 11952, Note_on_c, 1, 57, 0
4, 11952, Note_on_c, 1, 59, 66
4, 11975, Note_on_c, 1, 59, 0
4, 11976, Note_on_c, 1, 55, 66
4, 11999, Note_on_c, 1, 55, 0
4, 12000, Note_on_c, 1, 65, 66
4, 12089, Note_on_c, 1, 65, 0
4, 12096, Note_on_c, 1, 64, 66
4, 12141, Note_on_c, 1, 64, 0
4, 12144, Note_on_c, 1, 60, 66
4, 12189, Note_on_c, 1, 60, 0
4, 12192, Note_on_c, 1, 59, 67
4, 12237, Note_on_c, 1, 59, 0
4, 12240, Note_on_c, 1, 55, 68
4, 12285, Note_on_c, 1, 55, 0
4, 12312, Note_on_c, 1, 60, 70
4, 12324, Note_on_c, 1, 60, 0
4, 12324, Note_on_c, 1, 62, 70
4, 12336, Note_on_c, 1, 62, 0
4, 12336, Note_on_c, 1, 64, 70
4, 12359, Note_on_c, 1, 64, 0
4, 12360, Note_on_c, 1, 60, 71
4, 12383, Note_on_c, 1, 60, 0
4, 12384, Note_on_c, 1, 67, 71
4, 12473, Note_on_c, 1, 67, 0
4, 12480, Note_on_c, 1, 66, 73
4, 12525, Note_on_c, 1, 66, 0
4, 12528, Note_on_c, 1, 62, 74
4, 12573, Note_on_c, 1, 62, 0
4, 12576, Note_on_c, 1, 61, 75
4, 12621, Note_on_c, 1, 61, 0
4, 12624, Note_on_c, 1, 57, 76
4, 12669, Note_on_c, 1, 57, 0
4, 12696, Note_on_c, 1, 62, 77
4, 12708, Note_on_c, 1, 62, 0
4, 12708, Note_on_c, 1, 64, 77
4, 12720, Note_on_c, 1, 64, 0
4, 12720, Note_on_c, 1, 66, 78
4, 12743, Note_on_c, 1, 66, 0
4, 12744, Note_on_c, 1, 62, 78
4, 12767, Note_on_c, 1, 62, 0
4, 12768, Note_on_c, 1, 69, 79
4, 12857, Note_on_c, 1, 69, 0
4, 12864, Note_on_c, 1, 67, 81
4, 12909, Note_on_c, 1, 67, 0
4, 12912, Note_on_c, 1, 64, 81
4, 12957, Note_on_c, 1, 64, 0
4, 12960, Note_on_c, 1, 63, 81
4, 13005, Note_on_c, 1, 63, 0
4, 13008, Note_on_c, 1, 59, 81
4, 13053, Note_on_c, 1, 59, 0
4, 13056, Note_on_c, 1, 64, 81
4, 13101, Note_on_c, 1, 64, 0
4, 13104, Note_on_c, 1, 67, 81
4, 13149, Note_on_c, 1, 67, 0
4, 13152, Note_on_c, 1, 66, 66
4, 13197, Note_on_c, 1, 66, 0
4, 13200, Note_on_c, 1, 64, 67
4, 13245, Note_on_c, 1, 64, 0
4, 13248, Note_on_c, 1, 63, 68
4, 13293, Note_on_c, 1, 63, 0
4, 13296, Note_on_c, 1, 61, 69
4, 13341, Note_on_c, 1, 61, 0
4, 13344, Note_on_c, 1, 59, 71
4, 13389, Note_on_c, 1, 59, 0
4, 13392, Note_on_c, 1, 63, 72
4, 13437, Note_on_c, 1, 63, 0
4, 13440, Note_on_c, 1, 64, 73
4, 13485, Note_on_c, 1, 64, 0
4, 13488, Note_on_c, 1, 67, 75
4, 13533, Note_on_c, 1, 67, 0
4, 13536, Note_on_c, 1, 66, 66
4, 13581, Note_on_c, 1, 66, 0
4, 13584, Note_on_c, 1, 64, 67
4, 13629, Note_on_c, 1, 64, 0
4, 13632, Note_on_c, 1, 63, 69
4, 13677, Note_on_c, 1, 63, 0
4, 13680, Note_on_c, 1, 61, 71
4, 13725, Note_on_c, 1, 61, 0
4, 13728, Note_on_c, 1, 59, 73
4, 13773, Note_on_c, 1, 59, 0
4, 13776, Note_on_c, 1, 63, 75
4, 13821, Note_on_c, 1, 63, 0
4, 13824, Note_on_c, 1, 64, 77
4, 13913, Note_on_c, 1, 64, 0
4, 13968, Note_on_c, 1, 55, 81
4, 14013, Note_on_c, 1, 55, 0
4, 14016, Note_on_c, 1, 57, 81
4, 14061, Note_on_c, 1, 57, 0
4, 14064, Note_on_c, 1, 60, 81
4, 14109, Note_on_c, 1, 60, 0
4, 14112, Note_on_c, 1, 59, 81
4, 14157, Note_on_c, 1, 59, 0
4, 14160, Note_on_c, 1, 47, 81
4, 14205, Note_on_c, 1, 47, 0
4, 14208, Note_on_c, 1, 52, 81
4, 14253, Note_on_c, 1, 52, 0
4, 14256, Note_on_c, 1, 47, 81
4, 14301, Note_on_c, 1, 47, 0
4, 14304, Note_on_c, 1, 40, 81
4, 14349, Note_on_c, 1, 40, 0
4, 14448, Note_on_c, 1, 67, 66
4, 14448, Note_on_c, 1, 64, 66
4, 14495, Note_on_c, 1, 67, 0
4, 14495, Note_on_c, 1, 64, 0
4, 14496, Note_on_c, 1, 67, 66
4, 14496, Note_on_c, 1, 64, 66
4, 14543, Note_on_c, 1, 67, 0
4, 14543, Note_on_c, 1, 64, 0
4, 14640, Note_on_c, 1, 66, 66
4, 14640, Note_on_c, 1, 62, 66
4, 14687, Note_on_c, 1, 66, 0
4, 14687, Note_on_c, 1, 62, 0
4, 14688, Note_on_c, 1, 66, 66
4, 14688, Note_on_c, 1, 62, 66
4, 14735, Note_on_c, 1, 66, 0
4, 14735, Note_on_c, 1, 62, 0
4, 14784, Note_on_c, 1, 64, 66
4, 14784, Note_on_c, 1, 60, 66
4, 14829, Note_on_c, 1, 64, 0
4, 14829, Note_on_c, 1, 60, 0
4, 14880, Note_on_c, 1, 62, 67
4, 14880, Note_on_c, 1, 59, 67
4, 14925, Note_on_c, 1, 62, 0
4, 14925, Note_on_c, 1, 59, 0
4, 15024, Note_on_c, 1, 54, 73
4, 15069, Note_on_c, 1, 54, 0
4, 15072, Note_on_c, 1, 54, 75
4, 15117, Note_on_c, 1, 54, 0
4, 15120, Note_on_c, 1, 55, 75
4, 15165, Note_on_c, 1, 55, 0
4, 15168, Note_on_c, 1, 50, 73
4, 15213, Note_on_c, 1, 50, 0
4, 15216, Note_on_c, 1, 62, 71
4, 15261, Note_on_c, 1, 62, 0
4, 15408, Note_on_c, 1, 59, 66
4, 15453, Note_on_c, 1, 59, 0
4, 15456, Note_on_c, 1, 57, 66
4, 15501, Note_on_c, 1, 57, 0
4, 15504, Note_on_c, 1, 55, 66
4, 15549, Note_on_c, 1, 55, 0
4, 15552, Note_on_c, 1, 54, 66
4, 15597, Note_on_c, 1, 54, 0
4, 15600, Note_on_c, 1, 66, 66
4, 15645, Note_on_c, 1, 66, 0
4, 15648, Note_on_c, 1, 67, 66
4, 15693, Note_on_c, 1, 67, 0
4, 15696, Note_on_c, 1, 59, 66
4, 15741, Note_on_c, 1, 59, 0
4, 15744, Note_on_c, 1, 60, 66
4, 15789, Note_on_c, 1, 60, 0
4, 15792, Note_on_c, 1, 57, 66
4, 15837, Note_on_c, 1, 57, 0
4, 15840, Note_on_c, 1, 62, 66
4, 15885, Note_on_c, 1, 62, 0
4, 15888, Note_on_c, 1, 50, 66
4, 15933, Note_on_c, 1, 50, 0
4, 15972, Note_on_c, 1, 43, 66
4, 15984, Note_on_c, 1, 43, 0
4, 15984, Note_on_c, 1, 47, 66
4, 16018, Note_on_c, 1, 47, 0
4, 16020, Note_on_c, 1, 50, 66
4, 16032, Note_on_c, 1, 50, 0
4, 16032, Note_on_c, 1, 55, 66
4, 16077, Note_on_c, 1, 55, 0
4, 16176, Note_on_c, 1, 59, 66
4, 16221, Note_on_c, 1, 59, 0
4, 16224, Note_on_c, 1, 57, 66
4, 16269, Note_on_c, 1, 57, 0
4, 16272, Note_on_c, 1, 55, 66
4, 16317, Note_on_c, 1, 55, 0
4, 16320, Note_on_c, 1, 54, 66
4, 16365, Note_on_c, 1, 54, 0
4, 16368, Note_on_c, 1, 66, 66
4, 16413, Note_on_c, 1, 66, 0
4, 16416, Note_on_c, 1, 67, 66
4, 16461, Note_on_c, 1, 67, 0
4, 16464, Note_on_c, 1, 59, 66
4, 16509, Note_on_c, 1, 59, 0
4, 16512, Note_on_c, 1, 60, 66
4, 16601, Note_on_c, 1, 60, 0
4, 16656, Note_on_c, 1, 57, 66
4, 16701, Note_on_c, 1, 57, 0
4, 16704, Note_on_c, 1, 62, 66
4, 16749, Note_on_c, 1, 62, 0
4, 16752, Note_on_c, 1, 57, 66
4, 16797, Note_on_c, 1, 57, 0
4, 16800, Note_on_c, 1, 50, 66
4, 16845, Note_on_c, 1, 50, 0
4, 16944, Note_on_c, 1, 50, 66
4, 16944, Note_on_c, 1, 47, 66
4, 16964, Note_on_c, 1, 50, 0
4, 16964, Note_on_c, 1, 47, 0
4, 16992, Note_on_c, 1, 50, 66
4, 16992, Note_on_c, 1, 47, 66
4, 17039, Note_on_c, 1, 50, 0
4, 17039, Note_on_c, 1, 47, 0
4, 17136, Note_on_c, 1, 52, 66
4, 17136, Note_on_c, 1, 48, 66
4, 17156, Note_on_c, 1, 52, 0
4, 17156, Note_on_c, 1, 48, 0
4, 17184, Note_on_c, 1, 52, 66
4, 17184, Note_on_c, 1, 48, 66
4, 17231, Note_on_c, 1, 52, 0
4, 17231, Note_on_c, 1, 48, 0
4, 17328, Note_on_c, 1, 57, 66
4, 17328, Note_on_c, 1, 50, 66
4, 17348, Note_on_c, 1, 57, 0
4, 17348, Note_on_c, 1, 50, 0
4, 17376, Note_on_c, 1, 57, 66
4, 17376, Note_on_c, 1, 50, 66
4, 17423, Note_on_c, 1, 57, 0
4, 17423, Note_on_c, 1, 50, 0
4, 17472, Note_on_c, 1, 55, 66
4, 17517, Note_on_c, 1, 55, 0
4, 17520, Note_on_c, 1, 59, 66
4, 17565, Note_on_c, 1, 59, 0
4, 17568, Note_on_c, 1, 57, 66
4, 17613, Note_on_c, 1, 57, 0
4, 17616, Note_on_c, 1, 55, 67
4, 17661, Note_on_c, 1, 55, 0
4, 17664, Note_on_c, 1, 54, 68
4, 17709, Note_on_c, 1, 54, 0
4, 17712, Note_on_c, 1, 52, 69
4, 17757, Note_on_c, 1, 52, 0
4, 17760, Note_on_c, 1, 50, 71
4, 17805, Note_on_c, 1, 50, 0
4, 17808, Note_on_c, 1, 54, 72
4, 17853, Note_on_c, 1, 54, 0
4, 17856, Note_on_c, 1, 55, 73
4, 17901, Note_on_c, 1, 55, 0
4, 17904, Note_on_c, 1, 59, 75
4, 17949, Note_on_c, 1, 59, 0
4, 17952, Note_on_c, 1, 57, 66
4, 17997, Note_on_c, 1, 57, 0
4, 18000, Note_on_c, 1, 55, 67
4, 18045, Note_on_c, 1, 55, 0
4, 18048, Note_on_c, 1, 54, 69
4, 18093, Note_on_c, 1, 54, 0
4, 18096, Note_on_c, 1, 52, 70
4, 18141, Note_on_c, 1, 52, 0
4, 18144, Note_on_c, 1, 50, 72
4, 18189, Note_on_c, 1, 50, 0
4, 18192, Note_on_c, 1, 54, 73
4, 18237, Note_on_c, 1, 54, 0
4, 18240, Note_on_c, 1, 55, 75
4, 18329, Note_on_c, 1, 55, 0
4, 18576, Note_on_c, 1, 62, 75
4, 18669, Note_on_c, 1, 62, 0
4, 18672, Note_on_c, 1, 60, 72
4, 18717, Note_on_c, 1, 60, 0
4, 18720, Note_on_c, 1, 59, 69
4, 18765, Note_on_c, 1, 59, 0
4, 18768, Note_on_c, 1, 57, 66
4, 18813, Note_on_c, 1, 57, 0
4, 18816, Note_on_c, 1, 55, 66
4, 18905, Note_on_c, 1, 55, 0
4, 19152, Note_on_c, 1, 62, 66
4, 19245, Note_on_c, 1, 62, 0
4, 19248, Note_on_c, 1, 62, 66
4, 19337, Note_on_c, 1, 62, 0
4, 19344, Note_on_c, 1, 62, 66
4, 19437, Note_on_c, 1, 62, 0
4, 19440, Note_on_c, 1, 62, 66
4, 19529, Note_on_c, 1, 62, 0
4, 19536, Note_on_c, 1, 62, 66
4, 19629, Note_on_c, 1, 62, 0
4, 19728, Note_on_c, 1, 62, 75
4, 19728, Note_on_c, 1, 59, 75
4, 19773, Note_on_c, 1, 62, 0
4, 19773, Note_on_c, 1, 59, 0
4, 19776, Note_on_c, 1, 64, 75
4, 19776, Note_on_c, 1, 60, 75
4, 19865, Note_on_c, 1, 64, 0
4, 19865, Note_on_c, 1, 60, 0
4, 19872, Note_on_c, 1, 59, 75
4, 19917, Note_on_c, 1, 59, 0
4, 19920, Note_on_c, 1, 57, 75
4, 19965, Note_on_c, 1, 57, 0
4, 19968, Note_on_c, 1, 55, 75
4, 20057, Note_on_c, 1, 55, 0
4, 20112, Note_on_c, 1, 62, 75
4, 20112, Note_on_c, 1, 59, 75
4, 20157, Note_on_c, 1, 62, 0
4, 20157, Note_on_c, 1, 59, 0
4, 20160, Note_on_c, 1, 64, 75
4, 20160, Note_on_c, 1, 60, 75
4, 20249, Note_on_c, 1, 64, 0
4, 20249, Note_on_c, 1, 60, 0
4, 20256, Note_on_c, 1, 59, 75
4, 20301, Note_on_c, 1, 59, 0
4, 20304, Note_on_c, 1, 57, 75
4, 20349, Note_on_c, 1, 57, 0
4, 20352, Note_on_c, 1, 55, 75
4, 20397, Note_on_c, 1, 55, 0
4, 20400, Note_on_c, 1, 50, 75
4, 20445, Note_on_c, 1, 50, 0
4, 20448, Note_on_c, 1, 43, 75
4, 20493, Note_on_c, 1, 43, 0
4, 20592, Note_on_c, 1, 54, 66
4, 20637, Note_on_c, 1, 54, 0
4, 20640, Note_on_c, 1, 52, 66
4, 20685, Note_on_c, 1, 52, 0
4, 20688, Note_on_c, 1, 50, 66
4, 20733, Note_on_c, 1, 50, 0
4, 20736, Note_on_c, 1, 49, 66
4, 20781, Note_on_c, 1, 49, 0
4, 20784, Note_on_c, 1, 61, 66
4, 20829, Note_on_c, 1, 61, 0
4, 20832, Note_on_c, 1, 62, 66
4, 20877, Note_on_c, 1, 62, 0
4, 20880, Note_on_c, 1, 54, 66
4, 20925, Note_on_c, 1, 54, 0
4, 20928, Note_on_c, 1, 55, 66
4, 20973, Note_on_c, 1, 55, 0
4, 20976, Note_on_c, 1, 52, 66
4, 21021, Note_on_c, 1, 52, 0
4, 21024, Note_on_c, 1, 57, 66
4, 21069, Note_on_c, 1, 57, 0
4, 21072, Note_on_c, 1, 45, 66
4, 21117, Note_on_c, 1, 45, 0
4, 21156, Note_on_c, 1, 38, 66
4, 21168, Note_on_c, 1, 38, 0
4, 21168, Note_on_c, 1, 42, 66
4, 21202, Note_on_c, 1, 42, 0
4, 21204, Note_on_c, 1, 45, 66
4, 21216, Note_on_c, 1, 45, 0
4, 21216, Note_on_c, 1, 50, 66
4, 21261, Note_on_c, 1, 50, 0
4, 21360, Note_on_c, 1, 59, 66
4, 21405, Note_on_c, 1, 59, 0
4, 21408, Note_on_c, 1, 57, 66
4, 21453, Note_on_c, 1, 57, 0
4, 21456, Note_on_c, 1, 55, 66
4, 21501, Note_on_c, 1, 55, 0
4, 21504, Note_on_c, 1, 54, 66
4, 21549, Note_on_c, 1, 54, 0
4, 21552, Note_on_c, 1, 66, 66
4, 21597, Note_on_c, 1, 66, 0
4, 21600, Note_on_c, 1, 67, 66
4, 21645, Note_on_c, 1, 67, 0
4, 21648, Note_on_c, 1, 59, 66
4, 21693, Note_on_c, 1, 59, 0
4, 21696, Note_on_c, 1, 60, 66
4, 21741, Note_on_c, 1, 60, 0
4, 21744, Note_on_c, 1, 57, 66
4, 21789, Note_on_c, 1, 57, 0
4, 21792, Note_on_c, 1, 62, 66
4, 21837, Note_on_c, 1, 62, 0
4, 21840, Note_on_c, 1, 50, 66
4, 21885, Note_on_c, 1, 50, 0
4, 21912, Note_on_c, 1, 55, 66
4, 21924, Note_on_c, 1, 55, 0
4, 21924, Note_on_c, 1, 57, 66
4, 21936, Note_on_c, 1, 57, 0
4, 21936, Note_on_c, 1, 59, 66
4, 21959, Note_on_c, 1, 59, 0
4, 21960, Note_on_c, 1, 55, 66
4, 21983, Note_on_c, 1, 55, 0
4, 21984, Note_on_c, 1, 65, 66
4, 22073, Note_on_c, 1, 65, 0
4, 22080, Note_on_c, 1, 64, 66
4, 22125, Note_on_c, 1, 64, 0
4, 22128, Note_on_c, 1, 60, 66
4, 22173, Note_on_c, 1, 60, 0
4, 22176, Note_on_c, 1, 59, 67
4, 22221, Note_on_c, 1, 59, 0
4, 22224, Note_on_c, 1, 55, 68
4, 22269, Note_on_c, 1, 55, 0
4, 22296, Note_on_c, 1, 60, 70
4, 22308, Note_on_c, 1, 60, 0
4, 22308, Note_on_c, 1, 62, 70
4, 22320, Note_on_c, 1, 62, 0
4, 22320, Note_on_c, 1, 64, 70
4, 22343, Note_on_c, 1, 64, 0
4, 22344, Note_on_c, 1, 60, 71
4, 22367, Note_on_c, 1, 60, 0
4, 22368, Note_on_c, 1, 67, 71
4, 22457, Note_on_c, 1, 67, 0
4, 22464, Note_on_c, 1, 66, 73
4, 22509, Note_on_c, 1, 66, 0
4, 22512, Note_on_c, 1, 62, 74
4, 22557, Note_on_c, 1, 62, 0
4, 22560, Note_on_c, 1, 61, 75
4, 22605, Note_on_c, 1, 61, 0
4, 22608, Note_on_c, 1, 57, 76
4, 22653, Note_on_c, 1, 57, 0
4, 22680, Note_on_c, 1, 62, 77
4, 22692, Note_on_c, 1, 62, 0
4, 22692, Note_on_c, 1, 64, 77
4, 22704, Note_on_c, 1, 64, 0
4, 22704, Note_on_c, 1, 66, 78
4, 22727, Note_on_c, 1, 66, 0
4, 22728, Note_on_c, 1, 62, 78
4, 22751, Note_on_c, 1, 62, 0
4, 22752, Note_on_c, 1, 69, 79
4, 22841, Note_on_c, 1, 69, 0
4, 22848, Note_on_c, 1, 67, 81
4, 22893, Note_on_c, 1, 67, 0
4, 22896, Note_on_c, 1, 64, 81
4, 22941, Note_on_c, 1, 64, 0
4, 22944, Note_on_c, 1, 63, 81
4, 22989, Note_on_c, 1, 63, 0
4, 22992, Note_on_c, 1, 59, 81
4, 23037, Note_on_c, 1, 59, 0
4, 23040, Note_on_c, 1, 64, 81
4, 23085, Note_on_c, 1, 64, 0
4, 23088, Note_on_c, 1, 67, 81
4, 23133, Note_on_c, 1, 67, 0
4, 23136, Note_on_c, 1, 66, 66
4, 23181, Note_on_c, 1, 66, 0
4, 23184, Note_on_c, 1, 64, 67
4, 23229, Note_on_c, 1, 64, 0
4, 23232, Note_on_c, 1, 63, 68
4, 23277, Note_on_c, 1, 63, 0
4, 23280, Note_on_c, 1, 61, 69
4, 23325, Note_on_c, 1, 61, 0
4, 23328, Note_on_c, 1, 59, 71
4, 23373, Note_on_c, 1, 59, 0
4, 23376, Note_on_c, 1, 63, 72
4, 23421, Note_on_c, 1, 63, 0
4, 23424, Note_on_c, 1, 64, 73
4, 23469, Note_on_c, 1, 64, 0
4, 23472, Note_on_c, 1, 67, 75
4, 23517, Note_on_c, 1, 67, 0
4, 23520, Note_on_c, 1, 66, 66
4, 23565, Note_on_c, 1, 66, 0
4, 23568, Note_on_c, 1, 64, 67
4, 23613, Note_on_c, 1, 64, 0
4, 23616, Note_on_c, 1, 63, 69
4, 23661, Note_on_c, 1, 63, 0
4, 23664, Note_on_c, 1, 61, 71
4, 23709, Note_on_c, 1, 61, 0
4, 23712, Note_on_c, 1, 59, 73
4, 23757, Note_on_c, 1, 59, 0
4, 23760, Note_on_c, 1, 63, 75
4, 23805, Note_on_c, 1, 63, 0
4, 23808, Note_on_c, 1, 64, 77
4, 23897, Note_on_c, 1, 64, 0
4, 23952, Note_on_c, 1, 55, 81
4, 23997, Note_on_c, 1, 55, 0
4, 24000, Note_on_c, 1, 57, 81
4, 24045, Note_on_c, 1, 57, 0
4, 24048, Note_on_c, 1, 60, 81
4, 24093, Note_on_c, 1, 60, 0
4, 24096, Note_on_c, 1, 59, 81
4, 24141, Note_on_c, 1, 59, 0
4, 24144, Note_on_c, 1, 47, 81
4, 24189, Note_on_c, 1, 47, 0
4, 24192, Note_on_c, 1, 52, 81
4, 24237, Note_on_c, 1, 52, 0
4, 24240, Note_on_c, 1, 47, 81
4, 24285, Note_on_c, 1, 47, 0
4, 24288, Note_on_c, 1, 40, 81
4, 24333, Note_on_c, 1, 40, 0
4, 24432, Note_on_c, 1, 67, 66
4, 24432, Note_on_c, 1, 64, 66
4, 24479, Note_on_c, 1, 67, 0
4, 24479, Note_on_c, 1, 64, 0
4, 24480, Note_on_c, 1, 67, 66
4, 24480, Note_on_c, 1, 64, 66
4, 24527, Note_on_c, 1, 67, 0
4, 24527, Note_on_c, 1, 64, 0
4, 24624, Note_on_c, 1, 66, 66
4, 24624, Note_on_c, 1, 62, 66
4, 24671, Note_on_c, 1, 66, 0
4, 24671, Note_on_c, 1, 62, 0
4, 24672, Note_on_c, 1, 66, 66
4, 24672, Note_on_c, 1, 62, 66
4, 24719, Note_on_c, 1, 66, 0
4, 24719, Note_on_c, 1, 62, 0
4, 24768, Note_on_c, 1, 64, 66
4, 24768, Note_on_c, 1, 60, 66
4, 24813, Note_on_c, 1, 64, 0
4, 24813, Note_on_c, 1, 60, 0
4, 24864, Note_on_c, 1, 62, 67
4, 24864, Note_on_c, 1, 59, 67
4, 24909, Note_on_c, 1, 62, 0
4, 24909, Note_on_c, 1, 59, 0
4, 25008, Note_on_c, 1, 54, 73
4, 25053, Note_on_c, 1, 54, 0
4, 25056, Note_on_c, 1, 54, 75
4, 25101, Note_on_c, 1, 54, 0
4, 25104, Note_on_c, 1, 55, 75
4, 25149, Note_on_c, 1, 55, 0
4, 25152, Note_on_c, 1, 50, 73
4, 25197, Note_on_c, 1, 50, 0
4, 25200, Note_on_c, 1, 62, 71
4, 25245, Note_on_c, 1, 62, 0
4, 25392, Note_on_c, 1, 59, 66
4, 25437, Note_on_c, 1, 59, 0
4, 25440, Note_on_c, 1, 57, 66
4, 25485, Note_on_c, 1, 57, 0
4, 25488, Note_on_c, 1, 55, 66
4, 25533, Note_on_c, 1, 55, 0
4, 25536, Note_on_c, 1, 54, 66
4, 25581, Note_on_c, 1, 54, 0
4, 25584, Note_on_c, 1, 66, 66
4, 25629, Note_on_c, 1, 66, 0
4, 25632, Note_on_c, 1, 67, 66
4, 25677, Note_on_c, 1, 67, 0
4, 25680, Note_on_c, 1, 59, 66
4, 25725, Note_on_c, 1, 59, 0
4, 25728, Note_on_c, 1, 60, 66
4, 25773, Note_on_c, 1, 60, 0
4, 25776, Note_on_c, 1, 57, 66
4, 25821, Note_on_c, 1, 57, 0
4, 25824, Note_on_c, 1, 62, 66
4, 25869, Note_on_c, 1, 62, 0
4, 25872, Note_on_c, 1, 50, 66
4, 25917, Note_on_c, 1, 50, 0
4, 25956, Note_on_c, 1, 43, 66
4, 25968, Note_on_c, 1, 43, 0
4, 25968, Note_on_c, 1, 47, 66
4, 26002, Note_on_c, 1, 47, 0
4, 26004, Note_on_c, 1, 50, 66
4, 26016, Note_on_c, 1, 50, 0
4, 26016, Note_on_c, 1, 55, 66
4, 26061, Note_on_c, 1, 55, 0
4, 26160, Note_on_c, 1, 59, 66
4, 26205, Note_on_c, 1, 59, 0
4, 26208, Note_on_c, 1, 57, 66
4, 26253, Note_on_c, 1, 57, 0
4, 26256, Note_on_c, 1, 55, 66
4, 26301, Note_on_c, 1, 55, 0
4, 26304, Note_on_c, 1, 54, 66
4, 26349, Note_on_c, 1, 54, 0
4, 26352, Note_on_c, 1, 66, 66
4, 26397, Note_on_c, 1, 66, 0
4, 26400, Note_on_c, 1, 67, 66
4, 26445, Note_on_c, 1, 67, 0
4, 26448, Note_on_c, 1, 59, 66
4, 26493, Note_on_c, 1, 59, 0
4, 26496, Note_on_c, 1, 60, 66
4, 26585, Note_on_c, 1, 60, 0
4, 26640, Note_on_c, 1, 57, 66
4, 26685, Note_on_c, 1, 57, 0
4, 26688, Note_on_c, 1, 62, 66
4, 26733, Note_on_c, 1, 62, 0
4, 26736, Note_on_c, 1, 57, 66
4, 26781, Note_on_c, 1, 57, 0
4, 26784, Note_on_c, 1, 50, 66
4, 26829, Note_on_c, 1, 50, 0
4, 26928, Note_on_c, 1, 50, 66
4, 26928, Note_on_c, 1, 47, 66
4, 26948, Note_on_c, 1, 50, 0
4, 26948, Note_on_c, 1, 47, 0
4, 26976, Note_on_c, 1, 50, 66
4, 26976, Note_on_c, 1, 47, 66
4, 27023, Note_on_c, 1, 50, 0
4, 27023, Note_on_c, 1, 47, 0
4, 27120, Note_on_c, 1, 52, 66
4, 27120, Note_on_c, 1, 48, 66
4, 27140, Note_on_c, 1, 52, 0
4, 27140, Note_on_c, 1, 48, 0
4, 27168, Note_on_c, 1, 52, 66
4, 27168, Note_on_c, 1, 48, 66
4, 27215, Note_on_c, 1, 52, 0
4, 27215, Note_on_c, 1, 48, 0
4, 27312, Note_on_c, 1, 57, 66
4, 27312, Note_on_c, 1, 50, 66
4, 27332, Note_on_c, 1, 57, 0
4, 27332, Note_on_c, 1, 50, 0
4, 27360, Note_on_c, 1, 57, 66
4, 27360, Note_on_c, 1, 50, 66
4, 27407, Note_on_c, 1, 57, 0
4, 27407, Note_on_c, 1, 50, 0
4, 27456, Note_on_c, 1, 55, 66
4, 27501, Note_on_c, 1, 55, 0
4, 27504, Note_on_c, 1, 59, 66
4, 27549, Note_on_c, 1, 59, 0
4, 27552, Note_on_c, 1, 57, 66
4, 27597, Note_on_c, 1, 57, 0
4, 27600, Note_on_c, 1, 55, 67
4, 27645, Note_on_c, 1, 55, 0
4, 27648, Note_on_c, 1, 54, 68
4, 27693, Note_on_c, 1, 54, 0
4, 27696, Note_on_c, 1, 52, 69
4, 27741, Note_on_c, 1, 52, 0
4, 27744, Note_on_c, 1, 50, 71
4, 27789, Note_on_c, 1, 50, 0
4, 27792, Note_on_c, 1, 54, 72
4, 27837, Note_on_c, 1, 54, 0
4, 27840, Note_on_c, 1, 55, 73
4, 27885, Note_on_c, 1, 55, 0
4, 27888, Note_on_c, 1, 59, 75
4, 27933, Note_on_c, 1, 59, 0
4, 27936, Note_on_c, 1, 57, 66
4, 27981, Note_on_c, 1, 57, 0
4, 27984, Note_on_c, 1, 55, 67
4, 28029, Note_on_c, 1, 55, 0
4, 28032, Note_on_c, 1, 54, 69
4, 28077, Note_on_c, 1, 54, 0
4, 28080, Note_on_c, 1, 52, 70
4, 28125, Note_on_c, 1, 52, 0
4, 28128, Note_on_c, 1, 50, 72
4, 28173, Note_on_c, 1, 50, 0
4, 28176, Note_on_c, 1, 54, 73
4, 28221, Note_on_c, 1, 54, 0
4, 28224, Note_on_c, 1, 55, 75
4, 28313, Note_on_c, 1, 55, 0
4, 28560, Note_on_c, 1, 62, 75
4, 28653, Note_on_c, 1, 62, 0
4, 28656, Note_on_c, 1, 60, 72
4, 28701, Note_on_c, 1, 60, 0
4, 28704, Note_on_c, 1, 59, 69
4, 28749, Note_on_c, 1, 59, 0
4, 28752, Note_on_c, 1, 57, 66
4, 28797, Note_on_c, 1, 57, 0
4, 28800, Note_on_c, 1, 55, 66
4, 28889, Note_on_c, 1, 55, 0
4, 29136, Note_on_c, 1, 62, 66
4, 29229, Note_on_c, 1, 62, 0
4, 29232, Note_on_c, 1, 62, 66
4, 29321, Note_on_c, 1, 62, 0
4, 29328, Note_on_c, 1, 62, 66
4, 29421, Note_on_c, 1, 62, 0
4, 29424, Note_on_c, 1, 62, 66
4, 29513, Note_on_c, 1, 62, 0
4, 29520, Note_on_c, 1, 62, 66
4, 29613, Note_on_c, 1, 62, 0
4, 29712, Note_on_c, 1, 62, 75
4, 29712, Note_on_c, 1, 59, 75
4, 29757, Note_on_c, 1, 62, 0
4, 29757, Note_on_c, 1, 59, 0
4, 29760, Note_on_c, 1, 64, 75
4, 29760, Note_on_c, 1, 60, 75
4, 29849, Note_on_c, 1, 64, 0
4, 29849, Note_on_c, 1, 60, 0
4, 29856, Note_on_c, 1, 59, 75
4, 29901, Note_on_c, 1, 59, 0
4, 29904, Note_on_c, 1, 57, 75
4, 29949, Note_on_c, 1, 57, 0
4, 29952, Note_on_c, 1, 55, 75
4, 30041, Note_on_c, 1, 55, 0
4, 30096, Note_on_c, 1, 62, 75
4, 30096, Note_on_c, 1, 59, 75
4, 30141, Note_on_c, 1, 62, 0
4, 30141, Note_on_c, 1, 59, 0
4, 30144, Note_on_c, 1, 64, 75
4, 30144, Note_on_c, 1, 60, 75
4, 30233, Note_on_c, 1, 64, 0
4, 30233, Note_on_c, 1, 60, 0
4, 30240, Note_on_c, 1, 59, 75
4, 30285, Note_on_c, 1, 59, 0
4, 30288, Note_on_c, 1, 57, 75
4, 30333, Note_on_c, 1, 57, 0
4, 30336, Note_on_c, 1, 55, 75
4, 30381, Note_on_c, 1, 55, 0
4, 30384, Note_on_c, 1, 50, 75
4, 30429, Note_on_c, 1, 50, 0
4, 30432, Note_on_c, 1, 43, 75
4, 30477, Note_on_c, 1, 43, 0
4, 30480, Note_on_c, 1, 43, 0
4, 30525, Note_on_c, 1, 43, 0
4, 30528, End_track
5, 0, Start_track
5, 0, Program_c, 0, 0
5, 0, Control_c, 0, 7, 127
5, 0, Control_c, 0, 10, 64
5, 3288, Note_on_c, 0, 67, 75
5, 3300, Note_on_c, 0, 67, 0
5, 3300, Note_on_c, 0, 66, 75
5, 3312, Note_on_c, 0, 66, 0
5, 3312, Note_on_c, 0, 64, 75
5, 3335, Note_on_c, 0, 64, 0
5, 3336, Note_on_c, 0, 67, 75
5, 3359, Note_on_c, 0, 67, 0
5, 3360, Note_on_c, 0, 61, 75
5, 3449, Note_on_c, 0, 61, 0
5, 3456, Note_on_c, 0, 62, 75
5, 3501, Note_on_c, 0, 62, 0
5, 3504, Note_on_c, 0, 55, 72
5, 3549, Note_on_c, 0, 55, 0
5, 3552, Note_on_c, 0, 57, 70
5, 3641, Note_on_c, 0, 57, 0
5, 3864, Note_on_c, 0, 67, 75
5, 3876, Note_on_c, 0, 67, 0
5, 3876, Note_on_c, 0, 66, 75
5, 3888, Note_on_c, 0, 66, 0
5, 3888, Note_on_c, 0, 64, 75
5, 3911, Note_on_c, 0, 64, 0
5, 3912, Note_on_c, 0, 67, 75
5, 3935, Note_on_c, 0, 67, 0
5, 3936, Note_on_c, 0, 61, 75
5, 4025, Note_on_c, 0, 61, 0
5, 4032, Note_on_c, 0, 62, 75
5, 4121, Note_on_c, 0, 62, 0
5, 4128, Note_on_c, 0, 64, 75
5, 4217, Note_on_c, 0, 64, 0
5, 4224, Note_on_c, 0, 66, 75
5, 4313, Note_on_c, 0, 66, 0
5, 4320, Note_on_c, 0, 61, 75
5, 4409, Note_on_c, 0, 61, 0
5, 4416, Note_on_c, 0, 62, 75
5, 4505, Note_on_c, 0, 62, 0
5, 4704, Note_on_c, 0, 45, 75
5, 4793, Note_on_c, 0, 45, 0
5, 5088, Note_on_c, 0, 45, 75
5, 5177, Note_on_c, 0, 45, 0
5, 8472, Note_on_c, 0, 67, 75
5, 8484, Note_on_c, 0, 67, 0
5, 8484, Note_on_c, 0, 66, 75
5, 8496, Note_on_c, 0, 66, 0
5, 8496, Note_on_c, 0, 64, 75
5, 8519, Note_on_c, 0, 64, 0
5, 8520, Note_on_c, 0, 67, 75
5, 8543, Note_on_c, 0, 67, 0
5, 8544, Note_on_c, 0, 61, 75
5, 8633, Note_on_c, 0, 61, 0
5, 8640, Note_on_c, 0, 62, 75
5, 8685, Note_on_c, 0, 62, 0
5, 8688, Note_on_c, 0, 55, 72
5, 8733, Note_on_c, 0, 55, 0
5, 8736, Note_on_c, 0, 57, 70
5, 8825, Note_on_c, 0, 57, 0
5, 9048, Note_on_c, 0, 67, 75
5, 9060, Note_on_c, 0, 67, 0
5, 9060, Note_on_c, 0, 66, 75
5, 9072, Note_on_c, 0, 66, 0
5, 9072, Note_on_c, 0, 64, 75
5, 9095, Note_on_c, 0, 64, 0
5, 9096, Note_on_c, 0, 67, 75
5, 9119, Note_on_c, 0, 67, 0
5, 9120, Note_on_c, 0, 61, 75
5, 9209, Note_on_c, 0, 61, 0
5, 9216, Note_on_c, 0, 62, 75
5, 9305, Note_on_c, 0, 62, 0
5, 9312, Note_on_c, 0, 64, 75
5, 9401, Note_on_c, 0, 64, 0
5, 9408, Note_on_c, 0, 66, 75
5, 9497, Note_on_c, 0, 66, 0
5, 9504, Note_on_c, 0, 61, 75
5, 9593, Note_on_c, 0, 61, 0
5, 9600, Note_on_c, 0, 62, 75
5, 9689, Note_on_c, 0, 62, 0
5, 9888, Note_on_c, 0, 45, 75
5, 9977, Note_on_c, 0, 45, 0
5, 10272, Note_on_c, 0, 45, 75
5, 10361, Note_on_c, 0, 45, 0
5, 18456, Note_on_c, 0, 60, 75
5, 18468, Note_on_c, 0, 60, 0
5, 18468, Note_on_c, 0, 59, 75
5, 18480, Note_on_c, 0, 59, 0
5, 18480, Note_on_c, 0, 57, 75
5, 18503, Note_on_c, 0, 57, 0
5, 18504, Note_on_c, 0, 60, 75
5, 18527, Note_on_c, 0, 60, 0
5, 18528, Note_on_c, 0, 54, 75
5, 18617, Note_on_c, 0, 54, 0
5, 18624, Note_on_c, 0, 55, 75
5, 18669, Note_on_c, 0, 55, 0
5, 18672, Note_on_c, 0, 48, 72
5, 18717, Note_on_c, 0, 48, 0
5, 18720, Note_on_c, 0, 50, 70
5, 18809, Note_on_c, 0, 50, 0
5, 19032, Note_on_c, 0, 60, 75
5, 19044, Note_on_c, 0, 60, 0
5, 19044, Note_on_c, 0, 59, 75
5, 19056, Note_on_c, 0, 59, 0
5, 19056, Note_on_c, 0, 57, 75
5, 19079, Note_on_c, 0, 57, 0
5, 19080, Note_on_c, 0, 60, 75
5, 19103, Note_on_c, 0, 60, 0
5, 19104, Note_on_c, 0, 54, 75
5, 19193, Note_on_c, 0, 54, 0
5, 19200, Note_on_c, 0, 55, 66
5, 19289, Note_on_c, 0, 55, 0
5, 19296, Note_on_c, 0, 57, 66
5, 19385, Note_on_c, 0, 57, 0
5, 19392, Note_on_c, 0, 59, 66
5, 19481, Note_on_c, 0, 59, 0
5, 19488, Note_on_c, 0, 54, 66
5, 19577, Note_on_c, 0, 54, 0
5, 19584, Note_on_c, 0, 55, 66
5, 19673, Note_on_c, 0, 55, 0
5, 19872, Note_on_c, 0, 50, 66
5, 19961, Note_on_c, 0, 50, 0
5, 20256, Note_on_c, 0, 50, 66
5, 20345, Note_on_c, 0, 50, 0
5, 28440, Note_on_c, 0, 60, 75
5, 28452, Note_on_c, 0, 60, 0
5, 28452, Note_on_c, 0, 59, 75
5, 28464, Note_on_c, 0, 59, 0
5, 28464, Note_on_c, 0, 57, 75
5, 28487, Note_on_c, 0, 57, 0
5, 28488, Note_on_c, 0, 60, 75
5, 28511, Note_on_c, 0, 60, 0
5, 28512, Note_on_c, 0, 54, 75
5, 28601, Note_on_c, 0, 54, 0
5, 28608, Note_on_c, 0, 55, 75
5, 28653, Note_on_c, 0, 55, 0
5, 28656, Note_on_c, 0, 48, 72
5, 28701, Note_on_c, 0, 48, 0
5, 28704, Note_on_c, 0, 50, 70
5, 28793, Note_on_c, 0, 50, 0
5, 29016, Note_on_c, 0, 60, 75
5, 29028, Note_on_c, 0, 60, 0
5, 29028, Note_on_c, 0, 59, 75
5, 29040, Note_on_c, 0, 59, 0
5, 29040, Note_on_c, 0, 57, 75
5, 29063, Note_on_c, 0, 57, 0
5, 29064, Note_on_c, 0, 60, 75
5, 29087, Note_on_c, 0, 60, 0
5, 29088, Note_on_c, 0, 54, 75
5, 29177, Note_on_c, 0, 54, 0
5, 29184, Note_on_c, 0, 55, 66
5, 29273, Note_on_c, 0, 55, 0
5, 29280, Note_on_c, 0, 57, 66
5, 29369, Note_on_c, 0, 57, 0
5, 29376, Note_on_c, 0, 59, 66
5, 29465, Note_on_c, 0, 59, 0
5, 29472, Note_on_c, 0, 54, 66
5, 29561, Note_on_c, 0, 54, 0
5, 29568, Note_on_c, 0, 55, 66
5, 29657, Note_on_c, 0, 55, 0
5, 29856, Note_on_c, 0, 50, 66
5, 29945, Note_on_c, 0, 50, 0
5, 30240, Note_on_c, 0, 50, 66
5, 30329, Note_on_c, 0, 50, 0
5, 30528, End_track
6, 0, Start_track
6, 0, Title_t, "Piano Solo   <composer>  "
6, 0, End_track
0, 0, End_of_file
