0, 0, Header, 1, 6, 96
1, 0, Start_track
1, 0, Copyright_t, "Copyright  2000 <copyright holder>"
1, 0, Text_t, "Piano Solo\015\012"
1, 0, Text_t, "<composer>\015\012"
1, 0, Sequencer_specific, 16, 68, 87, 77, 90, 86, 82, 83, 78, 32, 55, 46, 48, 46, 56, 46, 48
1, 0, Time_signature, 2, 2, 24, 8
1, 0, Tempo, 428571
1, 0, Key_signature, -1, "major"
1, 96, Tempo, 400000
1, 56256, End_track
2, 0, Start_track
2, 0, Program_c, 0, 0
2, 0, Control_c, 0, 7, 127
2, 0, Control_c, 0, 10, 64
2, 144, Note_on_c, 0, 72, 78
2, 164, Note_on_c, 0, 72, 0
2, 192, Note_on_c, 0, 65, 78
2, 240, Note_on_c, 0, 65, 0
2, 240, Note_on_c, 0, 69, 78
2, 285, Note_on_c, 0, 69, 0
2, 288, Note_on_c, 0, 62, 82
2, 333, Note_on_c, 0, 62, 0
2, 336, Note_on_c, 0, 74, 86
2, 356, Note_on_c, 0, 74, 0
2, 384, Note_on_c, 0, 65, 84
2, 480, Note_on_c, 0, 65, 0
2, 480, Note_on_c, 0, 64, 80
2, 525, Note_on_c, 0, 64, 0
2, 528, Note_on_c, 0, 70, 78
2, 548, Note_on_c, 0, 70, 0
2, 576, Note_on_c, 0, 67, 78
2, 624, Note_on_c, 0, 67, 0
2, 624, Note_on_c, 0, 76, 80
2, 669, Note_on_c, 0, 76, 0
2, 672, Note_on_c, 0, 70, 82
2, 720, Note_on_c, 0, 70, 0
2, 720, Note_on_c, 0, 79, 84
2, 740, Note_on_c, 0, 79, 0
2, 768, Note_on_c, 0, 70, 86
2, 864, Note_on_c, 0, 70, 0
2, 864, Note_on_c, 0, 69, 80
2, 909, Note_on_c, 0, 69, 0
2, 912, Note_on_c, 0, 72, 78
2, 932, Note_on_c, 0, 72, 0
2, 960, Note_on_c, 0, 63, 78
2, 1008, Note_on_c, 0, 63, 0
2, 1008, Note_on_c, 0, 75, 80
2, 1053, Note_on_c, 0, 75, 0
2, 1056, Note_on_c, 0, 65, 82
2, 1101, Note_on_c, 0, 65, 0
2, 1104, Note_on_c, 0, 72, 84
2, 1124, Note_on_c, 0, 72, 0
2, 1152, Note_on_c, 0, 73, 86
2, 1248, Note_on_c, 0, 73, 0
2, 1248, Note_on_c, 0, 74, 80
2, 1293, Note_on_c, 0, 74, 0
2, 1296, Note_on_c, 0, 67, 78
2, 1316, Note_on_c, 0, 67, 0
2, 1344, Note_on_c, 0, 69, 78
2, 1389, Note_on_c, 0, 69, 0
2, 1392, Note_on_c, 0, 70, 78
2, 1437, Note_on_c, 0, 70, 0
2, 1440, Note_on_c, 0, 64, 78
2, 1485, Note_on_c, 0, 64, 0
2, 1488, Note_on_c, 0, 67, 78
2, 1508, Note_on_c, 0, 67, 0
2, 1536, Note_on_c, 0, 65, 78
2, 1625, Note_on_c, 0, 65, 0
2, 1680, Note_on_c, 0, 84, 78
2, 1700, Note_on_c, 0, 84, 0
2, 1728, Note_on_c, 0, 77, 78
2, 1773, Note_on_c, 0, 77, 0
2, 1776, Note_on_c, 0, 81, 78
2, 1821, Note_on_c, 0, 81, 0
2, 1824, Note_on_c, 0, 72, 78
2, 1869, Note_on_c, 0, 72, 0
2, 1872, Note_on_c, 0, 77, 78
2, 1892, Note_on_c, 0, 77, 0
2, 1920, Note_on_c, 0, 76, 78
2, 1965, Note_on_c, 0, 76, 0
2, 1968, Note_on_c, 0, 77, 78
2, 2013, Note_on_c, 0, 77, 0
2, 2016, Note_on_c, 0, 79, 78
2, 2061, Note_on_c, 0, 79, 0
2, 2064, Note_on_c, 0, 84, 78
2, 2084, Note_on_c, 0, 84, 0
2, 2112, Note_on_c, 0, 79, 78
2, 2157, Note_on_c, 0, 79, 0
2, 2160, Note_on_c, 0, 82, 78
2, 2205, Note_on_c, 0, 82, 0
2, 2208, Note_on_c, 0, 72, 78
2, 2253, Note_on_c, 0, 72, 0
2, 2256, Note_on_c, 0, 76, 78
2, 2276, Note_on_c, 0, 76, 0
2, 2304, Note_on_c, 0, 77, 78
2, 2349, Note_on_c, 0, 77, 0
2, 2352, Note_on_c, 0, 79, 78
2, 2397, Note_on_c, 0, 79, 0
2, 2400, Note_on_c, 0, 81, 78
2, 2445, Note_on_c, 0, 81, 0
2, 2448, Note_on_c, 0, 84, 78
2, 2468, Note_on_c, 0, 84, 0
2, 2496, Note_on_c, 0, 77, 78
2, 2541, Note_on_c, 0, 77, 0
2, 2544, Note_on_c, 0, 84, 78
2, 2564, Note_on_c, 0, 84, 0
2, 2592, Note_on_c, 0, 77, 78
2, 2637, Note_on_c, 0, 77, 0
2, 2640, Note_on_c, 0, 75, 78
2, 2733, Note_on_c, 0, 75, 0
2, 2736, Note_on_c, 0, 73, 78
2, 2781, Note_on_c, 0, 73, 0
2, 2784, Note_on_c, 0, 74, 78
2, 2829, Note_on_c, 0, 74, 0
2, 2832, Note_on_c, 0, 69, 78
2, 2832, Note_on_c, 0, 66, 78
2, 2877, Note_on_c, 0, 69, 0
2, 2877, Note_on_c, 0, 66, 0
2, 2880, Note_on_c, 0, 70, 80
2, 2880, Note_on_c, 0, 67, 80
2, 2925, Note_on_c, 0, 70, 0
2, 2925, Note_on_c, 0, 67, 0
2, 2928, Note_on_c, 0, 72, 83
2, 2928, Note_on_c, 0, 69, 83
2, 2973, Note_on_c, 0, 72, 0
2, 2973, Note_on_c, 0, 69, 0
2, 2976, Note_on_c, 0, 74, 86
2, 2976, Note_on_c, 0, 70, 86
2, 3021, Note_on_c, 0, 74, 0
2, 3021, Note_on_c, 0, 70, 0
2, 3024, Note_on_c, 0, 70, 84
2, 3024, Note_on_c, 0, 67, 84
2, 3069, Note_on_c, 0, 70, 0
2, 3069, Note_on_c, 0, 67, 0
2, 3072, Note_on_c, 0, 69, 82
2, 3072, Note_on_c, 0, 65, 82
2, 3168, Note_on_c, 0, 69, 0
2, 3168, Note_on_c, 0, 65, 0
2, 3168, Note_on_c, 0, 67, 79
2, 3168, Note_on_c, 0, 64, 79
2, 3213, Note_on_c, 0, 67, 0
2, 3213, Note_on_c, 0, 64, 0
2, 3216, Note_on_c, 0, 76, 78
2, 3236, Note_on_c, 0, 76, 0
2, 3264, Note_on_c, 0, 79, 78
2, 3309, Note_on_c, 0, 79, 0
2, 3312, Note_on_c, 0, 72, 78
2, 3357, Note_on_c, 0, 72, 0
2, 3360, Note_on_c, 0, 71, 78
2, 3405, Note_on_c, 0, 71, 0
2, 3408, Note_on_c, 0, 77, 78
2, 3408, Note_on_c, 0, 74, 78
2, 3453, Note_on_c, 0, 77, 0
2, 3453, Note_on_c, 0, 74, 0
2, 3456, Note_on_c, 0, 77, 78
2, 3456, Note_on_c, 0, 74, 78
2, 3501, Note_on_c, 0, 77, 0
2, 3501, Note_on_c, 0, 74, 0
2, 3504, Note_on_c, 0, 76, 78
2, 3504, Note_on_c, 0, 72, 78
2, 3549, Note_on_c, 0, 76, 0
2, 3549, Note_on_c, 0, 72, 0
2, 3552, Note_on_c, 0, 74, 78
2, 3552, Note_on_c, 0, 71, 78
2, 3597, Note_on_c, 0, 74, 0
2, 3597, Note_on_c, 0, 71, 0
2, 3600, Note_on_c, 0, 75, 69
2, 3620, Note_on_c, 0, 75, 0
2, 3648, Note_on_c, 0, 79, 69
2, 3693, Note_on_c, 0, 79, 0
2, 3696, Note_on_c, 0, 72, 69
2, 3741, Note_on_c, 0, 72, 0
2, 3744, Note_on_c, 0, 71, 69
2, 3789, Note_on_c, 0, 71, 0
2, 3792, Note_on_c, 0, 77, 69
2, 3792, Note_on_c, 0, 74, 69
2, 3837, Note_on_c, 0, 77, 0
2, 3837, Note_on_c, 0, 74, 0
2, 3840, Note_on_c, 0, 77, 69
2, 3840, Note_on_c, 0, 74, 69
2, 3885, Note_on_c, 0, 77, 0
2, 3885, Note_on_c, 0, 74, 0
2, 3888, Note_on_c, 0, 75, 69
2, 3888, Note_on_c, 0, 72, 69
2, 3933, Note_on_c, 0, 75, 0
2, 3933, Note_on_c, 0, 72, 0
2, 3936, Note_on_c, 0, 74, 69
2, 3936, Note_on_c, 0, 71, 69
2, 3981, Note_on_c, 0, 74, 0
2, 3981, Note_on_c, 0, 71, 0
2, 3984, Note_on_c, 0, 76, 78
2, 4004, Note_on_c, 0, 76, 0
2, 4032, Note_on_c, 0, 79, 78
2, 4077, Note_on_c, 0, 79, 0
2, 4080, Note_on_c, 0, 72, 78
2, 4125, Note_on_c, 0, 72, 0
2, 4128, Note_on_c, 0, 71, 78
2, 4173, Note_on_c, 0, 71, 0
2, 4176, Note_on_c, 0, 70, 78
2, 4247, Note_on_c, 0, 70, 0
2, 4248, Note_on_c, 0, 69, 78
2, 4271, Note_on_c, 0, 69, 0
2, 4272, Note_on_c, 0, 68, 78
2, 4295, Note_on_c, 0, 68, 0
2, 4296, Note_on_c, 0, 69, 78
2, 4319, Note_on_c, 0, 69, 0
2, 4320, Note_on_c, 0, 71, 78
2, 4343, Note_on_c, 0, 71, 0
2, 4344, Note_on_c, 0, 69, 78
2, 4367, Note_on_c, 0, 69, 0
2, 4368, Note_on_c, 0, 73, 78
2, 4391, Note_on_c, 0, 73, 0
2, 4392, Note_on_c, 0, 69, 78
2, 4415, Note_on_c, 0, 69, 0
2, 4416, Note_on_c, 0, 74, 78
2, 4439, Note_on_c, 0, 74, 0
2, 4440, Note_on_c, 0, 69, 79
2, 4463, Note_on_c, 0, 69, 0
2, 4464, Note_on_c, 0, 76, 80
2, 4487, Note_on_c, 0, 76, 0
2, 4488, Note_on_c, 0, 69, 82
2, 4511, Note_on_c, 0, 69, 0
2, 4512, Note_on_c, 0, 77, 83
2, 4535, Note_on_c, 0, 77, 0
2, 4536, Note_on_c, 0, 69, 84
2, 4559, Note_on_c, 0, 69, 0
2, 4560, Note_on_c, 0, 79, 86
2, 4583, Note_on_c, 0, 79, 0
2, 4584, Note_on_c, 0, 69, 85
2, 4607, Note_on_c, 0, 69, 0
2, 4608, Note_on_c, 0, 81, 100
2, 4704, Note_on_c, 0, 81, 0
2, 4704, Note_on_c, 0, 79, 81
2, 4727, Note_on_c, 0, 79, 0
2, 4728, Note_on_c, 0, 77, 80
2, 4751, Note_on_c, 0, 77, 0
2, 4752, Note_on_c, 0, 76, 79
2, 4775, Note_on_c, 0, 76, 0
2, 4776, Note_on_c, 0, 74, 78
2, 4799, Note_on_c, 0, 74, 0
2, 4800, Note_on_c, 0, 73, 78
2, 4823, Note_on_c, 0, 73, 0
2, 4824, Note_on_c, 0, 74, 80
2, 4847, Note_on_c, 0, 74, 0
2, 4848, Note_on_c, 0, 76, 82
2, 4871, Note_on_c, 0, 76, 0
2, 4872, Note_on_c, 0, 74, 84
2, 4895, Note_on_c, 0, 74, 0
2, 4896, Note_on_c, 0, 79, 86
2, 4919, Note_on_c, 0, 79, 0
2, 4920, Note_on_c, 0, 77, 84
2, 4943, Note_on_c, 0, 77, 0
2, 4944, Note_on_c, 0, 76, 82
2, 4967, Note_on_c, 0, 76, 0
2, 4968, Note_on_c, 0, 74, 80
2, 4991, Note_on_c, 0, 74, 0
2, 4992, Note_on_c, 0, 72, 78
2, 5125, Note_on_c, 0, 72, 0
2, 5136, Note_on_c, 0, 76, 78
2, 5154, Note_on_c, 0, 76, 0
2, 5154, Note_on_c, 0, 74, 78
2, 5181, Note_on_c, 0, 74, 0
2, 5184, Note_on_c, 0, 72, 78
2, 5273, Note_on_c, 0, 72, 0
2, 5328, Control_c, 0, 64, 127
2, 5328, Note_on_c, 0, 74, 78
2, 5351, Note_on_c, 0, 74, 0
2, 5352, Note_on_c, 0, 71, 78
2, 5375, Note_on_c, 0, 71, 0
2, 5376, Note_on_c, 0, 74, 86
2, 5399, Note_on_c, 0, 74, 0
2, 5400, Note_on_c, 0, 71, 86
2, 5423, Note_on_c, 0, 71, 0
2, 5424, Note_on_c, 0, 77, 86
2, 5447, Note_on_c, 0, 77, 0
2, 5448, Note_on_c, 0, 74, 86
2, 5471, Note_on_c, 0, 74, 0
2, 5472, Note_on_c, 0, 71, 86
2, 5495, Note_on_c, 0, 71, 0
2, 5496, Note_on_c, 0, 67, 86
2, 5519, Note_on_c, 0, 67, 0
2, 5520, Note_on_c, 0, 74, 86
2, 5543, Note_on_c, 0, 74, 0
2, 5544, Note_on_c, 0, 71, 86
2, 5567, Note_on_c, 0, 71, 0
2, 5568, Note_on_c, 0, 74, 86
2, 5591, Note_on_c, 0, 74, 0
2, 5592, Note_on_c, 0, 71, 86
2, 5615, Note_on_c, 0, 71, 0
2, 5616, Note_on_c, 0, 77, 86
2, 5639, Note_on_c, 0, 77, 0
2, 5640, Note_on_c, 0, 74, 86
2, 5663, Note_on_c, 0, 74, 0
2, 5664, Note_on_c, 0, 71, 86
2, 5687, Note_on_c, 0, 71, 0
2, 5688, Note_on_c, 0, 67, 86
2, 5711, Note_on_c, 0, 67, 0
2, 5712, Note_on_c, 0, 74, 86
2, 5735, Note_on_c, 0, 74, 0
2, 5736, Note_on_c, 0, 71, 86
2, 5759, Note_on_c, 0, 71, 0
2, 5760, Note_on_c, 0, 74, 86
2, 5783, Note_on_c, 0, 74, 0
2, 5784, Note_on_c, 0, 71, 86
2, 5807, Note_on_c, 0, 71, 0
2, 5808, Note_on_c, 0, 77, 86
2, 5831, Note_on_c, 0, 77, 0
2, 5832, Note_on_c, 0, 74, 86
2, 5855, Note_on_c, 0, 74, 0
2, 5856, Note_on_c, 0, 71, 86
2, 5879, Note_on_c, 0, 71, 0
2, 5880, Note_on_c, 0, 67, 86
2, 5903, Note_on_c, 0, 67, 0
2, 5904, Note_on_c, 0, 74, 86
2, 5927, Note_on_c, 0, 74, 0
2, 5928, Note_on_c, 0, 71, 86
2, 5951, Note_on_c, 0, 71, 0
2, 5952, Note_on_c, 0, 67, 86
2, 5975, Note_on_c, 0, 67, 0
2, 5976, Note_on_c, 0, 65, 86
2, 5999, Note_on_c, 0, 65, 0
2, 6000, Note_on_c, 0, 71, 86
2, 6023, Note_on_c, 0, 71, 0
2, 6024, Note_on_c, 0, 67, 86
2, 6047, Note_on_c, 0, 67, 0
2, 6048, Note_on_c, 0, 65, 86
2, 6071, Note_on_c, 0, 65, 0
2, 6072, Note_on_c, 0, 62, 86
2, 6095, Note_on_c, 0, 62, 0
2, 6096, Note_on_c, 0, 65, 86
2, 6119, Note_on_c, 0, 65, 0
2, 6120, Control_c, 0, 64, 0
2, 6120, Note_on_c, 0, 62, 86
2, 6143, Note_on_c, 0, 62, 0
2, 6144, Control_c, 0, 64, 0
2, 6144, Note_on_c, 0, 59, 86
2, 6189, Note_on_c, 0, 59, 0
2, 6288, Note_on_c, 0, 79, 78
2, 6308, Note_on_c, 0, 79, 0
2, 6336, Note_on_c, 0, 72, 78
2, 6356, Note_on_c, 0, 72, 0
2, 6384, Note_on_c, 0, 76, 80
2, 6404, Note_on_c, 0, 76, 0
2, 6432, Note_on_c, 0, 69, 83
2, 6452, Note_on_c, 0, 69, 0
2, 6480, Note_on_c, 0, 81, 86
2, 6500, Note_on_c, 0, 81, 0
2, 6528, Note_on_c, 0, 72, 84
2, 6624, Note_on_c, 0, 72, 0
2, 6624, Note_on_c, 0, 71, 80
2, 6669, Note_on_c, 0, 71, 0
2, 6672, Note_on_c, 0, 79, 78
2, 6692, Note_on_c, 0, 79, 0
2, 6720, Note_on_c, 0, 72, 78
2, 6768, Note_on_c, 0, 72, 0
2, 6768, Note_on_c, 0, 76, 80
2, 6813, Note_on_c, 0, 76, 0
2, 6816, Note_on_c, 0, 69, 83
2, 6864, Note_on_c, 0, 69, 0
2, 6864, Note_on_c, 0, 81, 86
2, 6884, Note_on_c, 0, 81, 0
2, 6912, Note_on_c, 0, 72, 84
2, 7008, Note_on_c, 0, 72, 0
2, 7008, Note_on_c, 0, 71, 80
2, 7053, Note_on_c, 0, 71, 0
2, 7056, Note_on_c, 0, 79, 78
2, 7076, Note_on_c, 0, 79, 0
2, 7104, Note_on_c, 0, 70, 78
2, 7200, Note_on_c, 0, 70, 0
2, 7200, Note_on_c, 0, 69, 78
2, 7245, Note_on_c, 0, 69, 0
2, 7248, Note_on_c, 0, 77, 78
2, 7268, Note_on_c, 0, 77, 0
2, 7296, Note_on_c, 0, 68, 78
2, 7392, Note_on_c, 0, 68, 0
2, 7392, Note_on_c, 0, 67, 78
2, 7437, Note_on_c, 0, 67, 0
2, 7440, Note_on_c, 0, 72, 78
2, 7460, Note_on_c, 0, 72, 0
2, 7488, Note_on_c, 0, 62, 78
2, 7533, Note_on_c, 0, 62, 0
2, 7536, Note_on_c, 0, 69, 82
2, 7536, Note_on_c, 0, 65, 82
2, 7581, Note_on_c, 0, 69, 0
2, 7581, Note_on_c, 0, 65, 0
2, 7584, Note_on_c, 0, 67, 86
2, 7584, Note_on_c, 0, 64, 86
2, 7629, Note_on_c, 0, 67, 0
2, 7629, Note_on_c, 0, 64, 0
2, 7632, Note_on_c, 0, 59, 82
2, 7677, Note_on_c, 0, 59, 0
2, 7680, Note_on_c, 0, 60, 78
2, 7769, Note_on_c, 0, 60, 0
2, 7824, Note_on_c, 0, 79, 78
2, 7844, Note_on_c, 0, 79, 0
2, 7872, Note_on_c, 0, 72, 78
2, 7920, Note_on_c, 0, 72, 0
2, 7920, Note_on_c, 0, 76, 80
2, 7930, Note_on_c, 0, 76, 0
2, 7968, Note_on_c, 0, 69, 83
2, 8016, Note_on_c, 0, 69, 0
2, 8016, Note_on_c, 0, 81, 86
2, 8026, Note_on_c, 0, 81, 0
2, 8064, Note_on_c, 0, 72, 83
2, 8160, Note_on_c, 0, 72, 0
2, 8160, Note_on_c, 0, 71, 78
2, 8205, Note_on_c, 0, 71, 0
2, 8208, Note_on_c, 0, 79, 78
2, 8228, Note_on_c, 0, 79, 0
2, 8256, Note_on_c, 0, 72, 78
2, 8279, Note_on_c, 0, 72, 0
2, 8280, Note_on_c, 0, 74, 80
2, 8303, Note_on_c, 0, 74, 0
2, 8304, Note_on_c, 0, 76, 82
2, 8327, Note_on_c, 0, 76, 0
2, 8328, Note_on_c, 0, 72, 84
2, 8351, Note_on_c, 0, 72, 0
2, 8352, Note_on_c, 0, 69, 86
2, 8397, Note_on_c, 0, 69, 0
2, 8400, Note_on_c, 0, 81, 84
2, 8420, Note_on_c, 0, 81, 0
2, 8448, Note_on_c, 0, 72, 82
2, 8544, Note_on_c, 0, 72, 0
2, 8544, Note_on_c, 0, 71, 79
2, 8589, Note_on_c, 0, 71, 0
2, 8592, Note_on_c, 0, 79, 78
2, 8612, Note_on_c, 0, 79, 0
2, 8640, Note_on_c, 0, 70, 78
2, 8736, Note_on_c, 0, 70, 0
2, 8736, Note_on_c, 0, 69, 78
2, 8781, Note_on_c, 0, 69, 0
2, 8784, Note_on_c, 0, 77, 78
2, 8804, Note_on_c, 0, 77, 0
2, 8832, Note_on_c, 0, 68, 78
2, 8928, Note_on_c, 0, 68, 0
2, 8928, Note_on_c, 0, 67, 78
2, 8973, Note_on_c, 0, 67, 0
2, 8976, Note_on_c, 0, 72, 78
2, 8996, Note_on_c, 0, 72, 0
2, 9024, Note_on_c, 0, 62, 78
2, 9069, Note_on_c, 0, 62, 0
2, 9072, Note_on_c, 0, 69, 86
2, 9072, Note_on_c, 0, 65, 86
2, 9117, Note_on_c, 0, 69, 0
2, 9117, Note_on_c, 0, 65, 0
2, 9120, Note_on_c, 0, 67, 83
2, 9120, Note_on_c, 0, 64, 83
2, 9165, Note_on_c, 0, 67, 0
2, 9165, Note_on_c, 0, 64, 0
2, 9168, Note_on_c, 0, 59, 80
2, 9213, Note_on_c, 0, 59, 0
2, 9216, Note_on_c, 0, 60, 78
2, 9305, Note_on_c, 0, 60, 0
2, 9360, Note_on_c, 0, 65, 74
2, 9360, Note_on_c, 0, 59, 74
2, 9408, Note_on_c, 0, 65, 0
2, 9408, Note_on_c, 0, 59, 0
2, 9408, Note_on_c, 0, 64, 73
2, 9408, Note_on_c, 0, 60, 73
2, 9428, Note_on_c, 0, 64, 0
2, 9428, Note_on_c, 0, 60, 0
2, 9552, Note_on_c, 0, 69, 70
2, 9552, Note_on_c, 0, 65, 70
2, 9600, Note_on_c, 0, 69, 0
2, 9600, Note_on_c, 0, 65, 0
2, 9600, Note_on_c, 0, 67, 69
2, 9600, Note_on_c, 0, 64, 69
2, 9620, Note_on_c, 0, 67, 0
2, 9620, Note_on_c, 0, 64, 0
2, 9744, Note_on_c, 0, 77, 66
2, 9744, Note_on_c, 0, 71, 66
2, 9792, Note_on_c, 0, 77, 0
2, 9792, Note_on_c, 0, 71, 0
2, 9792, Note_on_c, 0, 76, 65
2, 9792, Note_on_c, 0, 72, 65
2, 9812, Note_on_c, 0, 76, 0
2, 9812, Note_on_c, 0, 72, 0
2, 9936, Note_on_c, 0, 83, 62
2, 9936, Note_on_c, 0, 74, 62
2, 9984, Note_on_c, 0, 83, 0
2, 9984, Note_on_c, 0, 74, 0
2, 9984, Note_on_c, 0, 84, 61
2, 9984, Note_on_c, 0, 76, 61
2, 10004, Note_on_c, 0, 84, 0
2, 10004, Note_on_c, 0, 76, 0
2, 10128, Note_on_c, 0, 72, 78
2, 10148, Note_on_c, 0, 72, 0
2, 10176, Note_on_c, 0, 65, 78
2, 10224, Note_on_c, 0, 65, 0
2, 10224, Note_on_c, 0, 69, 78
2, 10269, Note_on_c, 0, 69, 0
2, 10272, Note_on_c, 0, 62, 82
2, 10317, Note_on_c, 0, 62, 0
2, 10320, Note_on_c, 0, 74, 86
2, 10340, Note_on_c, 0, 74, 0
2, 10368, Note_on_c, 0, 65, 84
2, 10464, Note_on_c, 0, 65, 0
2, 10464, Note_on_c, 0, 64, 80
2, 10509, Note_on_c, 0, 64, 0
2, 10512, Note_on_c, 0, 70, 78
2, 10532, Note_on_c, 0, 70, 0
2, 10560, Note_on_c, 0, 67, 78
2, 10608, Note_on_c, 0, 67, 0
2, 10608, Note_on_c, 0, 76, 80
2, 10653, Note_on_c, 0, 76, 0
2, 10656, Note_on_c, 0, 70, 82
2, 10704, Note_on_c, 0, 70, 0
2, 10704, Note_on_c, 0, 79, 84
2, 10724, Note_on_c, 0, 79, 0
2, 10752, Note_on_c, 0, 70, 86
2, 10848, Note_on_c, 0, 70, 0
2, 10848, Note_on_c, 0, 69, 80
2, 10893, Note_on_c, 0, 69, 0
2, 10896, Note_on_c, 0, 72, 78
2, 10916, Note_on_c, 0, 72, 0
2, 10944, Note_on_c, 0, 63, 78
2, 10992, Note_on_c, 0, 63, 0
2, 10992, Note_on_c, 0, 75, 80
2, 11037, Note_on_c, 0, 75, 0
2, 11040, Note_on_c, 0, 65, 82
2, 11085, Note_on_c, 0, 65, 0
2, 11088, Note_on_c, 0, 72, 84
2, 11108, Note_on_c, 0, 72, 0
2, 11136, Note_on_c, 0, 73, 86
2, 11232, Note_on_c, 0, 73, 0
2, 11232, Note_on_c, 0, 74, 80
2, 11277, Note_on_c, 0, 74, 0
2, 11280, Note_on_c, 0, 67, 78
2, 11300, Note_on_c, 0, 67, 0
2, 11328, Note_on_c, 0, 69, 78
2, 11373, Note_on_c, 0, 69, 0
2, 11376, Note_on_c, 0, 70, 78
2, 11421, Note_on_c, 0, 70, 0
2, 11424, Note_on_c, 0, 64, 78
2, 11469, Note_on_c, 0, 64, 0
2, 11472, Note_on_c, 0, 67, 78
2, 11492, Note_on_c, 0, 67, 0
2, 11520, Note_on_c, 0, 65, 78
2, 11609, Note_on_c, 0, 65, 0
2, 11664, Note_on_c, 0, 84, 78
2, 11684, Note_on_c, 0, 84, 0
2, 11712, Note_on_c, 0, 77, 78
2, 11757, Note_on_c, 0, 77, 0
2, 11760, Note_on_c, 0, 81, 78
2, 11805, Note_on_c, 0, 81, 0
2, 11808, Note_on_c, 0, 72, 78
2, 11853, Note_on_c, 0, 72, 0
2, 11856, Note_on_c, 0, 77, 78
2, 11876, Note_on_c, 0, 77, 0
2, 11904, Note_on_c, 0, 76, 78
2, 11949, Note_on_c, 0, 76, 0
2, 11952, Note_on_c, 0, 77, 78
2, 11997, Note_on_c, 0, 77, 0
2, 12000, Note_on_c, 0, 79, 78
2, 12045, Note_on_c, 0, 79, 0
2, 12048, Note_on_c, 0, 84, 78
2, 12068, Note_on_c, 0, 84, 0
2, 12096, Note_on_c, 0, 79, 78
2, 12141, Note_on_c, 0, 79, 0
2, 12144, Note_on_c, 0, 82, 78
2, 12189, Note_on_c, 0, 82, 0
2, 12192, Note_on_c, 0, 72, 78
2, 12237, Note_on_c, 0, 72, 0
2, 12240, Note_on_c, 0, 76, 78
2, 12260, Note_on_c, 0, 76, 0
2, 12288, Note_on_c, 0, 77, 78
2, 12333, Note_on_c, 0, 77, 0
2, 12336, Note_on_c, 0, 79, 78
2, 12381, Note_on_c, 0, 79, 0
2, 12384, Note_on_c, 0, 81, 78
2, 12429, Note_on_c, 0, 81, 0
2, 12432, Note_on_c, 0, 84, 78
2, 12452, Note_on_c, 0, 84, 0
2, 12480, Note_on_c, 0, 77, 78
2, 12525, Note_on_c, 0, 77, 0
2, 12528, Note_on_c, 0, 84, 78
2, 12548, Note_on_c, 0, 84, 0
2, 12576, Note_on_c, 0, 77, 78
2, 12621, Note_on_c, 0, 77, 0
2, 12624, Note_on_c, 0, 75, 78
2, 12717, Note_on_c, 0, 75, 0
2, 12720, Note_on_c, 0, 73, 78
2, 12765, Note_on_c, 0, 73, 0
2, 12768, Note_on_c, 0, 74, 78
2, 12813, Note_on_c, 0, 74, 0
2, 12816, Note_on_c, 0, 69, 78
2, 12816, Note_on_c, 0, 66, 78
2, 12861, Note_on_c, 0, 69, 0
2, 12861, Note_on_c, 0, 66, 0
2, 12864, Note_on_c, 0, 70, 80
2, 12864, Note_on_c, 0, 67, 80
2, 12909, Note_on_c, 0, 70, 0
2, 12909, Note_on_c, 0, 67, 0
2, 12912, Note_on_c, 0, 72, 83
2, 12912, Note_on_c, 0, 69, 83
2, 12957, Note_on_c, 0, 72, 0
2, 12957, Note_on_c, 0, 69, 0
2, 12960, Note_on_c, 0, 74, 86
2, 12960, Note_on_c, 0, 70, 86
2, 13005, Note_on_c, 0, 74, 0
2, 13005, Note_on_c, 0, 70, 0
2, 13008, Note_on_c, 0, 70, 84
2, 13008, Note_on_c, 0, 67, 84
2, 13053, Note_on_c, 0, 70, 0
2, 13053, Note_on_c, 0, 67, 0
2, 13056, Note_on_c, 0, 69, 82
2, 13056, Note_on_c, 0, 65, 82
2, 13152, Note_on_c, 0, 69, 0
2, 13152, Note_on_c, 0, 65, 0
2, 13152, Note_on_c, 0, 67, 79
2, 13152, Note_on_c, 0, 64, 79
2, 13197, Note_on_c, 0, 67, 0
2, 13197, Note_on_c, 0, 64, 0
2, 13200, Note_on_c, 0, 76, 78
2, 13220, Note_on_c, 0, 76, 0
2, 13248, Note_on_c, 0, 79, 78
2, 13293, Note_on_c, 0, 79, 0
2, 13296, Note_on_c, 0, 72, 78
2, 13341, Note_on_c, 0, 72, 0
2, 13344, Note_on_c, 0, 71, 78
2, 13389, Note_on_c, 0, 71, 0
2, 13392, Note_on_c, 0, 77, 78
2, 13392, Note_on_c, 0, 74, 78
2, 13437, Note_on_c, 0, 77, 0
2, 13437, Note_on_c, 0, 74, 0
2, 13440, Note_on_c, 0, 77, 78
2, 13440, Note_on_c, 0, 74, 78
2, 13485, Note_on_c, 0, 77, 0
2, 13485, Note_on_c, 0, 74, 0
2, 13488, Note_on_c, 0, 76, 78
2, 13488, Note_on_c, 0, 72, 78
2, 13533, Note_on_c, 0, 76, 0
2, 13533, Note_on_c, 0, 72, 0
2, 13536, Note_on_c, 0, 74, 78
2, 13536, Note_on_c, 0, 71, 78
2, 13581, Note_on_c, 0, 74, 0
2, 13581, Note_on_c, 0, 71, 0
2, 13584, Note_on_c, 0, 75, 69
2, 13604, Note_on_c, 0, 75, 0
2, 13632, Note_on_c, 0, 79, 69
2, 13677, Note_on_c, 0, 79, 0
2, 13680, Note_on_c, 0, 72, 69
2, 13725, Note_on_c, 0, 72, 0
2, 13728, Note_on_c, 0, 71, 69
2, 13773, Note_on_c, 0, 71, 0
2, 13776, Note_on_c, 0, 77, 69
2, 13776, Note_on_c, 0, 74, 69
2, 13821, Note_on_c, 0, 77, 0
2, 13821, Note_on_c, 0, 74, 0
2, 13824, Note_on_c, 0, 77, 69
2, 13824, Note_on_c, 0, 74, 69
2, 13869, Note_on_c, 0, 77, 0
2, 13869, Note_on_c, 0, 74, 0
2, 13872, Note_on_c, 0, 75, 69
2, 13872, Note_on_c, 0, 72, 69
2, 13917, Note_on_c, 0, 75, 0
2, 13917, Note_on_c, 0, 72, 0
2, 13920, Note_on_c, 0, 74, 69
2, 13920, Note_on_c, 0, 71, 69
2, 13965, Note_on_c, 0, 74, 0
2, 13965, Note_on_c, 0, 71, 0
2, 13968, Note_on_c, 0, 76, 78
2, 13988, Note_on_c, 0, 76, 0
2, 14016, Note_on_c, 0, 79, 78
2, 14061, Note_on_c, 0, 79, 0
2, 14064, Note_on_c, 0, 72, 78
2, 14109, Note_on_c, 0, 72, 0
2, 14112, Note_on_c, 0, 71, 78
2, 14157, Note_on_c, 0, 71, 0
2, 14160, Note_on_c, 0, 70, 78
2, 14231, Note_on_c, 0, 70, 0
2, 14232, Note_on_c, 0, 69, 78
2, 14255, Note_on_c, 0, 69, 0
2, 14256, Note_on_c, 0, 68, 78
2, 14279, Note_on_c, 0, 68, 0
2, 14280, Note_on_c, 0, 69, 78
2, 14303, Note_on_c, 0, 69, 0
2, 14304, Note_on_c, 0, 71, 78
2, 14327, Note_on_c, 0, 71, 0
2, 14328, Note_on_c, 0, 69, 78
2, 14351, Note_on_c, 0, 69, 0
2, 14352, Note_on_c, 0, 73, 78
2, 14375, Note_on_c, 0, 73, 0
2, 14376, Note_on_c, 0, 69, 78
2, 14399, Note_on_c, 0, 69, 0
2, 14400, Note_on_c, 0, 74, 78
2, 14423, Note_on_c, 0, 74, 0
2, 14424, Note_on_c, 0, 69, 79
2, 14447, Note_on_c, 0, 69, 0
2, 14448, Note_on_c, 0, 76, 80
2, 14471, Note_on_c, 0, 76, 0
2, 14472, Note_on_c, 0, 69, 82
2, 14495, Note_on_c, 0, 69, 0
2, 14496, Note_on_c, 0, 77, 83
2, 14519, Note_on_c, 0, 77, 0
2, 14520, Note_on_c, 0, 69, 84
2, 14543, Note_on_c, 0, 69, 0
2, 14544, Note_on_c, 0, 79, 86
2, 14567, Note_on_c, 0, 79, 0
2, 14568, Note_on_c, 0, 69, 85
2, 14591, Note_on_c, 0, 69, 0
2, 14592, Note_on_c, 0, 81, 100
2, 14688, Note_on_c, 0, 81, 0
2, 14688, Note_on_c, 0, 79, 81
2, 14711, Note_on_c, 0, 79, 0
2, 14712, Note_on_c, 0, 77, 80
2, 14735, Note_on_c, 0, 77, 0
2, 14736, Note_on_c, 0, 76, 79
2, 14759, Note_on_c, 0, 76, 0
2, 14760, Note_on_c, 0, 74, 78
2, 14783, Note_on_c, 0, 74, 0
2, 14784, Note_on_c, 0, 73, 78
2, 14807, Note_on_c, 0, 73, 0
2, 14808, Note_on_c, 0, 74, 80
2, 14831, Note_on_c, 0, 74, 0
2, 14832, Note_on_c, 0, 76, 82
2, 14855, Note_on_c, 0, 76, 0
2, 14856, Note_on_c, 0, 74, 84
2, 14879, Note_on_c, 0, 74, 0
2, 14880, Note_on_c, 0, 79, 86
2, 14903, Note_on_c, 0, 79, 0
2, 14904, Note_on_c, 0, 77, 84
2, 14927, Note_on_c, 0, 77, 0
2, 14928, Note_on_c, 0, 76, 82
2, 14951, Note_on_c, 0, 76, 0
2, 14952, Note_on_c, 0, 74, 80
2, 14975, Note_on_c, 0, 74, 0
2, 14976, Note_on_c, 0, 72, 78
2, 15109, Note_on_c, 0, 72, 0
2, 15120, Note_on_c, 0, 76, 78
2, 15138, Note_on_c, 0, 76, 0
2, 15138, Note_on_c, 0, 74, 78
2, 15165, Note_on_c, 0, 74, 0
2, 15168, Note_on_c, 0, 72, 78
2, 15257, Note_on_c, 0, 72, 0
2, 15312, Control_c, 0, 64, 127
2, 15312, Note_on_c, 0, 74, 78
2, 15335, Note_on_c, 0, 74, 0
2, 15336, Note_on_c, 0, 71, 78
2, 15359, Note_on_c, 0, 71, 0
2, 15360, Note_on_c, 0, 74, 86
2, 15383, Note_on_c, 0, 74, 0
2, 15384, Note_on_c, 0, 71, 86
2, 15407, Note_on_c, 0, 71, 0
2, 15408, Note_on_c, 0, 77, 86
2, 15431, Note_on_c, 0, 77, 0
2, 15432, Note_on_c, 0, 74, 86
2, 15455, Note_on_c, 0, 74, 0
2, 15456, Note_on_c, 0, 71, 86
2, 15479, Note_on_c, 0, 71, 0
2, 15480, Note_on_c, 0, 67, 86
2, 15503, Note_on_c, 0, 67, 0
2, 15504, Note_on_c, 0, 74, 86
2, 15527, Note_on_c, 0, 74, 0
2, 15528, Note_on_c, 0, 71, 86
2, 15551, Note_on_c, 0, 71, 0
2, 15552, Note_on_c, 0, 74, 86
2, 15575, Note_on_c, 0, 74, 0
2, 15576, Note_on_c, 0, 71, 86
2, 15599, Note_on_c, 0, 71, 0
2, 15600, Note_on_c, 0, 77, 86
2, 15623, Note_on_c, 0, 77, 0
2, 15624, Note_on_c, 0, 74, 86
2, 15647, Note_on_c, 0, 74, 0
2, 15648, Note_on_c, 0, 71, 86
2, 15671, Note_on_c, 0, 71, 0
2, 15672, Note_on_c, 0, 67, 86
2, 15695, Note_on_c, 0, 67, 0
2, 15696, Note_on_c, 0, 74, 86
2, 15719, Note_on_c, 0, 74, 0
2, 15720, Note_on_c, 0, 71, 86
2, 15743, Note_on_c, 0, 71, 0
2, 15744, Note_on_c, 0, 74, 86
2, 15767, Note_on_c, 0, 74, 0
2, 15768, Note_on_c, 0, 71, 86
2, 15791, Note_on_c, 0, 71, 0
2, 15792, Note_on_c, 0, 77, 86
2, 15815, Note_on_c, 0, 77, 0
2, 15816, Note_on_c, 0, 74, 86
2, 15839, Note_on_c, 0, 74, 0
2, 15840, Note_on_c, 0, 71, 86
2, 15863, Note_on_c, 0, 71, 0
2, 15864, Note_on_c, 0, 67, 86
2, 15887, Note_on_c, 0, 67, 0
2, 15888, Note_on_c, 0, 74, 86
2, 15911, Note_on_c, 0, 74, 0
2, 15912, Note_on_c, 0, 71, 86
2, 15935, Note_on_c, 0, 71, 0
2, 15936, Note_on_c, 0, 67, 86
2, 15959, Note_on_c, 0, 67, 0
2, 15960, Note_on_c, 0, 65, 86
2, 15983, Note_on_c, 0, 65, 0
2, 15984, Note_on_c, 0, 71, 86
2, 16007, Note_on_c, 0, 71, 0
2, 16008, Note_on_c, 0, 67, 86
2, 16031, Note_on_c, 0, 67, 0
2, 16032, Note_on_c, 0, 65, 86
2, 16055, Note_on_c, 0, 65, 0
2, 16056, Note_on_c, 0, 62, 86
2, 16079, Note_on_c, 0, 62, 0
2, 16080, Note_on_c, 0, 65, 86
2, 16103, Note_on_c, 0, 65, 0
2, 16104, Control_c, 0, 64, 0
2, 16104, Note_on_c, 0, 62, 86
2, 16127, Note_on_c, 0, 62, 0
2, 16128, Control_c, 0, 64, 0
2, 16128, Note_on_c, 0, 59, 86
2, 16173, Note_on_c, 0, 59, 0
2, 16272, Note_on_c, 0, 79, 78
2, 16292, Note_on_c, 0, 79, 0
2, 16320, Note_on_c, 0, 72, 78
2, 16340, Note_on_c, 0, 72, 0
2, 16368, Note_on_c, 0, 76, 80
2, 16388, Note_on_c, 0, 76, 0
2, 16416, Note_on_c, 0, 69, 83
2, 16436, Note_on_c, 0, 69, 0
2, 16464, Note_on_c, 0, 81, 86
2, 16484, Note_on_c, 0, 81, 0
2, 16512, Note_on_c, 0, 72, 84
2, 16608, Note_on_c, 0, 72, 0
2, 16608, Note_on_c, 0, 71, 80
2, 16653, Note_on_c, 0, 71, 0
2, 16656, Note_on_c, 0, 79, 78
2, 16676, Note_on_c, 0, 79, 0
2, 16704, Note_on_c, 0, 72, 78
2, 16752, Note_on_c, 0, 72, 0
2, 16752, Note_on_c, 0, 76, 80
2, 16797, Note_on_c, 0, 76, 0
2, 16800, Note_on_c, 0, 69, 83
2, 16848, Note_on_c, 0, 69, 0
2, 16848, Note_on_c, 0, 81, 86
2, 16868, Note_on_c, 0, 81, 0
2, 16896, Note_on_c, 0, 72, 84
2, 16992, Note_on_c, 0, 72, 0
2, 16992, Note_on_c, 0, 71, 80
2, 17037, Note_on_c, 0, 71, 0
2, 17040, Note_on_c, 0, 79, 78
2, 17060, Note_on_c, 0, 79, 0
2, 17088, Note_on_c, 0, 70, 78
2, 17184, Note_on_c, 0, 70, 0
2, 17184, Note_on_c, 0, 69, 78
2, 17229, Note_on_c, 0, 69, 0
2, 17232, Note_on_c, 0, 77, 78
2, 17252, Note_on_c, 0, 77, 0
2, 17280, Note_on_c, 0, 68, 78
2, 17376, Note_on_c, 0, 68, 0
2, 17376, Note_on_c, 0, 67, 78
2, 17421, Note_on_c, 0, 67, 0
2, 17424, Note_on_c, 0, 72, 78
2, 17444, Note_on_c, 0, 72, 0
2, 17472, Note_on_c, 0, 62, 78
2, 17517, Note_on_c, 0, 62, 0
2, 17520, Note_on_c, 0, 69, 82
2, 17520, Note_on_c, 0, 65, 82
2, 17565, Note_on_c, 0, 69, 0
2, 17565, Note_on_c, 0, 65, 0
2, 17568, Note_on_c, 0, 67, 86
2, 17568, Note_on_c, 0, 64, 86
2, 17613, Note_on_c, 0, 67, 0
2, 17613, Note_on_c, 0, 64, 0
2, 17616, Note_on_c, 0, 59, 82
2, 17661, Note_on_c, 0, 59, 0
2, 17664, Note_on_c, 0, 60, 78
2, 17753, Note_on_c, 0, 60, 0
2, 17808, Note_on_c, 0, 79, 78
2, 17828, Note_on_c, 0, 79, 0
2, 17856, Note_on_c, 0, 72, 78
2, 17904, Note_on_c, 0, 72, 0
2, 17904, Note_on_c, 0, 76, 80
2, 17914, Note_on_c, 0, 76, 0
2, 17952, Note_on_c, 0, 69, 83
2, 18000, Note_on_c, 0, 69, 0
2, 18000, Note_on_c, 0, 81, 86
2, 18010, Note_on_c, 0, 81, 0
2, 18048, Note_on_c, 0, 72, 83
2, 18144, Note_on_c, 0, 72, 0
2, 18144, Note_on_c, 0, 71, 78
2, 18189, Note_on_c, 0, 71, 0
2, 18192, Note_on_c, 0, 79, 78
2, 18212, Note_on_c, 0, 79, 0
2, 18240, Note_on_c, 0, 72, 78
2, 18263, Note_on_c, 0, 72, 0
2, 18264, Note_on_c, 0, 74, 80
2, 18287, Note_on_c, 0, 74, 0
2, 18288, Note_on_c, 0, 76, 82
2, 18311, Note_on_c, 0, 76, 0
2, 18312, Note_on_c, 0, 72, 84
2, 18335, Note_on_c, 0, 72, 0
2, 18336, Note_on_c, 0, 69, 86
2, 18381, Note_on_c, 0, 69, 0
2, 18384, Note_on_c, 0, 81, 84
2, 18404, Note_on_c, 0, 81, 0
2, 18432, Note_on_c, 0, 72, 82
2, 18528, Note_on_c, 0, 72, 0
2, 18528, Note_on_c, 0, 71, 79
2, 18573, Note_on_c, 0, 71, 0
2, 18576, Note_on_c, 0, 79, 78
2, 18596, Note_on_c, 0, 79, 0
2, 18624, Note_on_c, 0, 70, 78
2, 18720, Note_on_c, 0, 70, 0
2, 18720, Note_on_c, 0, 69, 78
2, 18765, Note_on_c, 0, 69, 0
2, 18768, Note_on_c, 0, 77, 78
2, 18788, Note_on_c, 0, 77, 0
2, 18816, Note_on_c, 0, 68, 78
2, 18912, Note_on_c, 0, 68, 0
2, 18912, Note_on_c, 0, 67, 78
2, 18957, Note_on_c, 0, 67, 0
2, 18960, Note_on_c, 0, 72, 78
2, 18980, Note_on_c, 0, 72, 0
2, 19008, Note_on_c, 0, 62, 78
2, 19053, Note_on_c, 0, 62, 0
2, 19056, Note_on_c, 0, 69, 86
2, 19056, Note_on_c, 0, 65, 86
2, 19101, Note_on_c, 0, 69, 0
2, 19101, Note_on_c, 0, 65, 0
2, 19104, Note_on_c, 0, 67, 83
2, 19104, Note_on_c, 0, 64, 83
2, 19149, Note_on_c, 0, 67, 0
2, 19149, Note_on_c, 0, 64, 0
2, 19152, Note_on_c, 0, 59, 80
2, 19197, Note_on_c, 0, 59, 0
2, 19200, Note_on_c, 0, 60, 78
2, 19289, Note_on_c, 0, 60, 0
2, 19344, Note_on_c, 0, 65, 74
2, 19344, Note_on_c, 0, 59, 74
2, 19392, Note_on_c, 0, 65, 0
2, 19392, Note_on_c, 0, 59, 0
2, 19392, Note_on_c, 0, 64, 73
2, 19392, Note_on_c, 0, 60, 73
2, 19412, Note_on_c, 0, 64, 0
2, 19412, Note_on_c, 0, 60, 0
2, 19536, Note_on_c, 0, 69, 70
2, 19536, Note_on_c, 0, 65, 70
2, 19584, Note_on_c, 0, 69, 0
2, 19584, Note_on_c, 0, 65, 0
2, 19584, Note_on_c, 0, 67, 69
2, 19584, Note_on_c, 0, 64, 69
2, 19604, Note_on_c, 0, 67, 0
2, 19604, Note_on_c, 0, 64, 0
2, 19728, Note_on_c, 0, 77, 66
2, 19728, Note_on_c, 0, 71, 66
2, 19776, Note_on_c, 0, 77, 0
2, 19776, Note_on_c, 0, 71, 0
2, 19776, Note_on_c, 0, 76, 65
2, 19776, Note_on_c, 0, 72, 65
2, 19796, Note_on_c, 0, 76, 0
2, 19796, Note_on_c, 0, 72, 0
2, 19920, Note_on_c, 0, 83, 62
2, 19920, Note_on_c, 0, 74, 62
2, 19968, Note_on_c, 0, 83, 0
2, 19968, Note_on_c, 0, 74, 0
2, 19968, Note_on_c, 0, 84, 61
2, 19968, Note_on_c, 0, 76, 61
2, 19988, Note_on_c, 0, 84, 0
2, 19988, Note_on_c, 0, 76, 0
2, 20112, Control_c, 0, 64, 127
2, 20112, Note_on_c, 0, 72, 86
2, 20135, Note_on_c, 0, 72, 0
2, 20136, Note_on_c, 0, 69, 86
2, 20159, Note_on_c, 0, 69, 0
2, 20160, Note_on_c, 0, 72, 86
2, 20183, Note_on_c, 0, 72, 0
2, 20184, Note_on_c, 0, 69, 86
2, 20207, Note_on_c, 0, 69, 0
2, 20208, Note_on_c, 0, 75, 86
2, 20231, Note_on_c, 0, 75, 0
2, 20232, Note_on_c, 0, 72, 86
2, 20255, Note_on_c, 0, 72, 0
2, 20256, Note_on_c, 0, 69, 86
2, 20279, Note_on_c, 0, 69, 0
2, 20280, Note_on_c, 0, 78, 86
2, 20303, Note_on_c, 0, 78, 0
2, 20304, Note_on_c, 0, 75, 86
2, 20327, Note_on_c, 0, 75, 0
2, 20328, Note_on_c, 0, 72, 86
2, 20351, Note_on_c, 0, 72, 0
2, 20352, Note_on_c, 0, 69, 86
2, 20375, Note_on_c, 0, 69, 0
2, 20376, Note_on_c, 0, 81, 86
2, 20399, Note_on_c, 0, 81, 0
2, 20400, Note_on_c, 0, 78, 86
2, 20423, Note_on_c, 0, 78, 0
2, 20424, Note_on_c, 0, 75, 86
2, 20447, Note_on_c, 0, 75, 0
2, 20448, Note_on_c, 0, 72, 86
2, 20471, Note_on_c, 0, 72, 0
2, 20472, Note_on_c, 0, 84, 86
2, 20495, Note_on_c, 0, 84, 0
2, 20496, Note_on_c, 0, 81, 86
2, 20519, Note_on_c, 0, 81, 0
2, 20520, Note_on_c, 0, 78, 86
2, 20543, Note_on_c, 0, 78, 0
2, 20544, Control_c, 0, 64, 0
2, 20544, Note_on_c, 0, 75, 86
2, 20583, Note_on_c, 0, 75, 0
2, 20664, Control_c, 0, 64, 127
2, 20664, Note_on_c, 0, 84, 86
2, 20687, Note_on_c, 0, 84, 0
2, 20688, Note_on_c, 0, 81, 86
2, 20711, Note_on_c, 0, 81, 0
2, 20712, Note_on_c, 0, 78, 86
2, 20735, Note_on_c, 0, 78, 0
2, 20736, Control_c, 0, 64, 0
2, 20736, Note_on_c, 0, 74, 86
2, 20775, Note_on_c, 0, 74, 0
2, 20856, Control_c, 0, 64, 127
2, 20856, Note_on_c, 0, 84, 86
2, 20879, Note_on_c, 0, 84, 0
2, 20880, Note_on_c, 0, 81, 86
2, 20903, Note_on_c, 0, 81, 0
2, 20904, Note_on_c, 0, 78, 86
2, 20927, Note_on_c, 0, 78, 0
2, 20928, Control_c, 0, 64, 0
2, 20928, Note_on_c, 0, 75, 86
2, 20967, Note_on_c, 0, 75, 0
2, 21048, Control_c, 0, 64, 127
2, 21048, Note_on_c, 0, 84, 86
2, 21071, Note_on_c, 0, 84, 0
2, 21072, Note_on_c, 0, 81, 86
2, 21095, Note_on_c, 0, 81, 0
2, 21096, Note_on_c, 0, 78, 86
2, 21119, Note_on_c, 0, 78, 0
2, 21120, Control_c, 0, 64, 0
2, 21120, Note_on_c, 0, 74, 86
2, 21159, Note_on_c, 0, 74, 0
2, 21264, Note_on_c, 0, 74, 78
2, 21284, Note_on_c, 0, 74, 0
2, 21312, Note_on_c, 0, 67, 78
2, 21360, Note_on_c, 0, 67, 0
2, 21360, Note_on_c, 0, 70, 80
2, 21405, Note_on_c, 0, 70, 0
2, 21408, Note_on_c, 0, 63, 82
2, 21453, Note_on_c, 0, 63, 0
2, 21456, Note_on_c, 0, 75, 84
2, 21476, Note_on_c, 0, 75, 0
2, 21504, Note_on_c, 0, 67, 86
2, 21600, Note_on_c, 0, 67, 0
2, 21600, Note_on_c, 0, 66, 82
2, 21645, Note_on_c, 0, 66, 0
2, 21648, Note_on_c, 0, 72, 80
2, 21668, Note_on_c, 0, 72, 0
2, 21696, Note_on_c, 0, 69, 78
2, 21744, Note_on_c, 0, 69, 0
2, 21744, Note_on_c, 0, 81, 80
2, 21789, Note_on_c, 0, 81, 0
2, 21792, Note_on_c, 0, 72, 82
2, 21840, Note_on_c, 0, 72, 0
2, 21840, Note_on_c, 0, 84, 84
2, 21860, Note_on_c, 0, 84, 0
2, 21888, Note_on_c, 0, 72, 86
2, 21984, Note_on_c, 0, 72, 0
2, 21984, Note_on_c, 0, 70, 80
2, 22029, Note_on_c, 0, 70, 0
2, 22176, Note_on_c, 0, 70, 78
2, 22176, Note_on_c, 0, 67, 78
2, 22265, Note_on_c, 0, 70, 0
2, 22265, Note_on_c, 0, 67, 0
2, 22272, Note_on_c, 0, 68, 78
2, 22272, Note_on_c, 0, 65, 78
2, 22413, Note_on_c, 0, 68, 0
2, 22413, Note_on_c, 0, 65, 0
2, 22560, Note_on_c, 0, 74, 78
2, 22560, Note_on_c, 0, 70, 78
2, 22649, Note_on_c, 0, 74, 0
2, 22649, Note_on_c, 0, 70, 0
2, 22656, Note_on_c, 0, 75, 78
2, 22656, Note_on_c, 0, 70, 78
2, 22797, Note_on_c, 0, 75, 0
2, 22797, Note_on_c, 0, 70, 0
2, 22944, Note_on_c, 0, 73, 69
2, 23033, Note_on_c, 0, 73, 0
2, 23040, Note_on_c, 0, 82, 69
2, 23085, Note_on_c, 0, 82, 0
2, 23088, Note_on_c, 0, 72, 70
2, 23133, Note_on_c, 0, 72, 0
2, 23136, Note_on_c, 0, 80, 70
2, 23181, Note_on_c, 0, 80, 0
2, 23184, Note_on_c, 0, 72, 71
2, 23229, Note_on_c, 0, 72, 0
2, 23232, Note_on_c, 0, 80, 71
2, 23277, Note_on_c, 0, 80, 0
2, 23280, Note_on_c, 0, 70, 72
2, 23325, Note_on_c, 0, 70, 0
2, 23328, Note_on_c, 0, 79, 72
2, 23373, Note_on_c, 0, 79, 0
2, 23376, Note_on_c, 0, 70, 73
2, 23421, Note_on_c, 0, 70, 0
2, 23424, Note_on_c, 0, 79, 73
2, 23469, Note_on_c, 0, 79, 0
2, 23472, Note_on_c, 0, 68, 74
2, 23517, Note_on_c, 0, 68, 0
2, 23520, Note_on_c, 0, 77, 74
2, 23565, Note_on_c, 0, 77, 0
2, 23568, Note_on_c, 0, 68, 75
2, 23613, Note_on_c, 0, 68, 0
2, 23616, Note_on_c, 0, 77, 75
2, 23661, Note_on_c, 0, 77, 0
2, 23664, Note_on_c, 0, 67, 76
2, 23709, Note_on_c, 0, 67, 0
2, 23712, Note_on_c, 0, 75, 76
2, 23757, Note_on_c, 0, 75, 0
2, 23760, Note_on_c, 0, 67, 77
2, 23805, Note_on_c, 0, 67, 0
2, 23808, Note_on_c, 0, 75, 77
2, 23853, Note_on_c, 0, 75, 0
2, 23856, Note_on_c, 0, 66, 77
2, 23901, Note_on_c, 0, 66, 0
2, 23904, Note_on_c, 0, 74, 78
2, 23949, Note_on_c, 0, 74, 0
2, 23952, Note_on_c, 0, 67, 78
2, 23997, Note_on_c, 0, 67, 0
2, 24000, Note_on_c, 0, 74, 79
2, 24045, Note_on_c, 0, 74, 0
2, 24048, Note_on_c, 0, 68, 79
2, 24093, Note_on_c, 0, 68, 0
2, 24096, Note_on_c, 0, 74, 80
2, 24141, Note_on_c, 0, 74, 0
2, 24144, Note_on_c, 0, 65, 80
2, 24189, Note_on_c, 0, 65, 0
2, 24192, Note_on_c, 0, 64, 81
2, 24281, Note_on_c, 0, 64, 0
2, 24288, Note_on_c, 0, 74, 82
2, 24333, Note_on_c, 0, 74, 0
2, 24336, Note_on_c, 0, 62, 82
2, 24381, Note_on_c, 0, 62, 0
2, 24384, Note_on_c, 0, 61, 83
2, 24473, Note_on_c, 0, 61, 0
2, 24480, Note_on_c, 0, 74, 84
2, 24525, Note_on_c, 0, 74, 0
2, 24528, Note_on_c, 0, 62, 84
2, 24573, Note_on_c, 0, 62, 0
2, 24576, Note_on_c, 0, 61, 85
2, 24665, Note_on_c, 0, 61, 0
2, 24720, Control_c, 0, 64, 127
2, 24720, Note_on_c, 0, 76, 86
2, 24743, Note_on_c, 0, 76, 0
2, 24744, Note_on_c, 0, 73, 86
2, 24767, Note_on_c, 0, 73, 0
2, 24768, Note_on_c, 0, 76, 86
2, 24791, Note_on_c, 0, 76, 0
2, 24792, Note_on_c, 0, 73, 86
2, 24815, Note_on_c, 0, 73, 0
2, 24816, Note_on_c, 0, 79, 86
2, 24839, Note_on_c, 0, 79, 0
2, 24840, Note_on_c, 0, 76, 86
2, 24863, Note_on_c, 0, 76, 0
2, 24864, Note_on_c, 0, 73, 86
2, 24887, Note_on_c, 0, 73, 0
2, 24888, Note_on_c, 0, 69, 86
2, 24911, Note_on_c, 0, 69, 0
2, 24912, Note_on_c, 0, 76, 86
2, 24935, Note_on_c, 0, 76, 0
2, 24936, Note_on_c, 0, 73, 86
2, 24959, Note_on_c, 0, 73, 0
2, 24960, Note_on_c, 0, 76, 86
2, 24983, Note_on_c, 0, 76, 0
2, 24984, Note_on_c, 0, 73, 86
2, 25007, Note_on_c, 0, 73, 0
2, 25008, Note_on_c, 0, 79, 86
2, 25031, Note_on_c, 0, 79, 0
2, 25032, Note_on_c, 0, 76, 86
2, 25055, Note_on_c, 0, 76, 0
2, 25056, Note_on_c, 0, 73, 86
2, 25079, Note_on_c, 0, 73, 0
2, 25080, Control_c, 0, 64, 0
2, 25080, Note_on_c, 0, 69, 86
2, 25103, Note_on_c, 0, 69, 0
2, 25104, Control_c, 0, 64, 127
2, 25104, Note_on_c, 0, 81, 86
2, 25127, Note_on_c, 0, 81, 0
2, 25128, Note_on_c, 0, 77, 86
2, 25151, Note_on_c, 0, 77, 0
2, 25152, Note_on_c, 0, 74, 86
2, 25175, Note_on_c, 0, 74, 0
2, 25176, Control_c, 0, 64, 0
2, 25176, Note_on_c, 0, 69, 86
2, 25199, Note_on_c, 0, 69, 0
2, 25200, Control_c, 0, 64, 127
2, 25200, Note_on_c, 0, 81, 86
2, 25223, Note_on_c, 0, 81, 0
2, 25224, Note_on_c, 0, 79, 86
2, 25247, Note_on_c, 0, 79, 0
2, 25248, Note_on_c, 0, 76, 86
2, 25271, Note_on_c, 0, 76, 0
2, 25272, Control_c, 0, 64, 0
2, 25272, Note_on_c, 0, 69, 86
2, 25295, Note_on_c, 0, 69, 0
2, 25296, Control_c, 0, 64, 127
2, 25296, Note_on_c, 0, 81, 86
2, 25319, Note_on_c, 0, 81, 0
2, 25320, Note_on_c, 0, 77, 86
2, 25343, Note_on_c, 0, 77, 0
2, 25344, Note_on_c, 0, 74, 86
2, 25367, Note_on_c, 0, 74, 0
2, 25368, Control_c, 0, 64, 0
2, 25368, Note_on_c, 0, 69, 86
2, 25391, Note_on_c, 0, 69, 0
2, 25392, Control_c, 0, 64, 127
2, 25392, Note_on_c, 0, 81, 86
2, 25415, Note_on_c, 0, 81, 0
2, 25416, Note_on_c, 0, 79, 86
2, 25439, Note_on_c, 0, 79, 0
2, 25440, Note_on_c, 0, 76, 86
2, 25463, Note_on_c, 0, 76, 0
2, 25464, Control_c, 0, 64, 0
2, 25464, Note_on_c, 0, 69, 86
2, 25487, Note_on_c, 0, 69, 0
2, 25488, Control_c, 0, 64, 127
2, 25488, Note_on_c, 0, 81, 86
2, 25511, Note_on_c, 0, 81, 0
2, 25512, Note_on_c, 0, 77, 86
2, 25535, Note_on_c, 0, 77, 0
2, 25536, Note_on_c, 0, 74, 86
2, 25559, Note_on_c, 0, 74, 0
2, 25560, Control_c, 0, 64, 0
2, 25560, Note_on_c, 0, 69, 86
2, 25583, Note_on_c, 0, 69, 0
2, 25584, Note_on_c, 0, 81, 86
2, 25607, Note_on_c, 0, 81, 0
2, 25608, Note_on_c, 0, 79, 86
2, 25631, Note_on_c, 0, 79, 0
2, 25632, Note_on_c, 0, 77, 86
2, 25655, Note_on_c, 0, 77, 0
2, 25656, Note_on_c, 0, 76, 86
2, 25679, Note_on_c, 0, 76, 0
2, 25680, Note_on_c, 0, 74, 86
2, 25703, Note_on_c, 0, 74, 0
2, 25704, Note_on_c, 0, 72, 86
2, 25727, Note_on_c, 0, 72, 0
2, 25728, Note_on_c, 0, 70, 86
2, 25751, Note_on_c, 0, 70, 0
2, 25752, Note_on_c, 0, 69, 86
2, 25775, Note_on_c, 0, 69, 0
2, 25776, Note_on_c, 0, 67, 86
2, 25799, Note_on_c, 0, 67, 0
2, 25800, Note_on_c, 0, 65, 86
2, 25823, Note_on_c, 0, 65, 0
2, 25824, Note_on_c, 0, 64, 86
2, 25847, Note_on_c, 0, 64, 0
2, 25848, Note_on_c, 0, 62, 86
2, 25871, Note_on_c, 0, 62, 0
2, 25872, Note_on_c, 0, 61, 86
2, 25895, Note_on_c, 0, 61, 0
2, 25896, Note_on_c, 0, 62, 86
2, 25919, Note_on_c, 0, 62, 0
2, 25920, Note_on_c, 0, 63, 102
2, 26016, Note_on_c, 0, 63, 0
2, 26064, Note_on_c, 0, 67, 84
2, 26064, Note_on_c, 0, 63, 84
2, 26109, Note_on_c, 0, 67, 0
2, 26109, Note_on_c, 0, 63, 0
2, 26160, Note_on_c, 0, 65, 82
2, 26160, Note_on_c, 0, 62, 82
2, 26205, Note_on_c, 0, 65, 0
2, 26205, Note_on_c, 0, 62, 0
2, 26256, Note_on_c, 0, 61, 79
2, 26301, Note_on_c, 0, 61, 0
2, 26304, Note_on_c, 0, 62, 78
2, 26393, Note_on_c, 0, 62, 0
2, 26448, Note_on_c, 0, 69, 78
2, 26468, Note_on_c, 0, 69, 0
2, 26496, Note_on_c, 0, 62, 78
2, 26541, Note_on_c, 0, 62, 0
2, 26544, Note_on_c, 0, 65, 80
2, 26589, Note_on_c, 0, 65, 0
2, 26592, Note_on_c, 0, 58, 82
2, 26637, Note_on_c, 0, 58, 0
2, 26640, Note_on_c, 0, 70, 84
2, 26660, Note_on_c, 0, 70, 0
2, 26688, Note_on_c, 0, 64, 86
2, 26711, Note_on_c, 0, 64, 0
2, 26712, Note_on_c, 0, 65, 84
2, 26735, Note_on_c, 0, 65, 0
2, 26736, Note_on_c, 0, 67, 83
2, 26759, Note_on_c, 0, 67, 0
2, 26760, Note_on_c, 0, 64, 82
2, 26783, Note_on_c, 0, 64, 0
2, 26784, Note_on_c, 0, 60, 80
2, 26829, Note_on_c, 0, 60, 0
2, 26832, Note_on_c, 0, 72, 78
2, 26852, Note_on_c, 0, 72, 0
2, 26880, Note_on_c, 0, 65, 78
2, 26925, Note_on_c, 0, 65, 0
2, 26928, Note_on_c, 0, 69, 79
2, 26973, Note_on_c, 0, 69, 0
2, 26976, Note_on_c, 0, 62, 80
2, 27021, Note_on_c, 0, 62, 0
2, 27024, Note_on_c, 0, 74, 81
2, 27044, Note_on_c, 0, 74, 0
2, 27072, Note_on_c, 0, 67, 82
2, 27095, Note_on_c, 0, 67, 0
2, 27096, Note_on_c, 0, 69, 82
2, 27119, Note_on_c, 0, 69, 0
2, 27120, Note_on_c, 0, 70, 83
2, 27143, Note_on_c, 0, 70, 0
2, 27144, Note_on_c, 0, 67, 83
2, 27167, Note_on_c, 0, 67, 0
2, 27168, Note_on_c, 0, 64, 78
2, 27213, Note_on_c, 0, 64, 0
2, 27216, Note_on_c, 0, 79, 78
2, 27236, Note_on_c, 0, 79, 0
2, 27264, Note_on_c, 0, 70, 78
2, 27312, Note_on_c, 0, 70, 0
2, 27312, Note_on_c, 0, 67, 78
2, 27357, Note_on_c, 0, 67, 0
2, 27360, Note_on_c, 0, 69, 78
2, 27380, Note_on_c, 0, 69, 0
2, 27408, Note_on_c, 0, 81, 78
2, 27428, Note_on_c, 0, 81, 0
2, 27456, Note_on_c, 0, 72, 78
2, 27504, Note_on_c, 0, 72, 0
2, 27504, Note_on_c, 0, 69, 78
2, 27549, Note_on_c, 0, 69, 0
2, 27552, Note_on_c, 0, 70, 78
2, 27572, Note_on_c, 0, 70, 0
2, 27600, Note_on_c, 0, 82, 78
2, 27620, Note_on_c, 0, 82, 0
2, 27648, Note_on_c, 0, 76, 78
2, 27696, Note_on_c, 0, 76, 0
2, 27696, Note_on_c, 0, 77, 78
2, 27741, Note_on_c, 0, 77, 0
2, 27744, Note_on_c, 0, 70, 78
2, 27764, Note_on_c, 0, 70, 0
2, 27792, Note_on_c, 0, 69, 78
2, 27812, Note_on_c, 0, 69, 0
2, 27840, Note_on_c, 0, 67, 78
2, 27929, Note_on_c, 0, 67, 0
2, 27984, Note_on_c, 0, 72, 78
2, 28004, Note_on_c, 0, 72, 0
2, 28032, Note_on_c, 0, 65, 78
2, 28080, Note_on_c, 0, 65, 0
2, 28080, Note_on_c, 0, 69, 80
2, 28125, Note_on_c, 0, 69, 0
2, 28128, Note_on_c, 0, 62, 83
2, 28173, Note_on_c, 0, 62, 0
2, 28176, Note_on_c, 0, 74, 86
2, 28196, Note_on_c, 0, 74, 0
2, 28224, Note_on_c, 0, 65, 84
2, 28320, Note_on_c, 0, 65, 0
2, 28320, Note_on_c, 0, 64, 80
2, 28365, Note_on_c, 0, 64, 0
2, 28368, Note_on_c, 0, 70, 78
2, 28388, Note_on_c, 0, 70, 0
2, 28416, Note_on_c, 0, 67, 78
2, 28464, Note_on_c, 0, 67, 0
2, 28464, Note_on_c, 0, 76, 80
2, 28509, Note_on_c, 0, 76, 0
2, 28512, Note_on_c, 0, 70, 82
2, 28560, Note_on_c, 0, 70, 0
2, 28560, Note_on_c, 0, 79, 84
2, 28580, Note_on_c, 0, 79, 0
2, 28608, Note_on_c, 0, 70, 86
2, 28704, Note_on_c, 0, 70, 0
2, 28704, Note_on_c, 0, 69, 80
2, 28749, Note_on_c, 0, 69, 0
2, 28752, Note_on_c, 0, 72, 78
2, 28772, Note_on_c, 0, 72, 0
2, 28800, Note_on_c, 0, 63, 78
2, 28848, Note_on_c, 0, 63, 0
2, 28848, Note_on_c, 0, 75, 78
2, 28893, Note_on_c, 0, 75, 0
2, 28896, Note_on_c, 0, 65, 78
2, 28941, Note_on_c, 0, 65, 0
2, 28944, Note_on_c, 0, 72, 78
2, 28964, Note_on_c, 0, 72, 0
2, 28992, Note_on_c, 0, 73, 78
2, 29040, Note_on_c, 0, 73, 0
2, 29040, Note_on_c, 0, 74, 78
2, 29085, Note_on_c, 0, 74, 0
2, 29088, Note_on_c, 0, 67, 78
2, 29133, Note_on_c, 0, 67, 0
2, 29136, Note_on_c, 0, 74, 79
2, 29156, Note_on_c, 0, 74, 0
2, 29184, Note_on_c, 0, 75, 79
2, 29232, Note_on_c, 0, 75, 0
2, 29232, Note_on_c, 0, 76, 80
2, 29277, Note_on_c, 0, 76, 0
2, 29280, Note_on_c, 0, 69, 80
2, 29325, Note_on_c, 0, 69, 0
2, 29328, Note_on_c, 0, 76, 80
2, 29348, Note_on_c, 0, 76, 0
2, 29376, Note_on_c, 0, 79, 81
2, 29424, Note_on_c, 0, 79, 0
2, 29424, Note_on_c, 0, 77, 81
2, 29469, Note_on_c, 0, 77, 0
2, 29472, Note_on_c, 0, 70, 82
2, 29517, Note_on_c, 0, 70, 0
2, 29520, Note_on_c, 0, 77, 82
2, 29540, Note_on_c, 0, 77, 0
2, 29568, Note_on_c, 0, 78, 82
2, 29616, Note_on_c, 0, 78, 0
2, 29616, Note_on_c, 0, 79, 83
2, 29661, Note_on_c, 0, 79, 0
2, 29664, Note_on_c, 0, 72, 83
2, 29709, Note_on_c, 0, 72, 0
2, 29712, Note_on_c, 0, 79, 84
2, 29757, Note_on_c, 0, 79, 0
2, 29760, Note_on_c, 0, 80, 84
2, 29808, Note_on_c, 0, 80, 0
2, 29808, Note_on_c, 0, 81, 84
2, 29853, Note_on_c, 0, 81, 0
2, 29856, Note_on_c, 0, 77, 85
2, 29901, Note_on_c, 0, 77, 0
2, 29904, Note_on_c, 0, 83, 85
2, 29949, Note_on_c, 0, 83, 0
2, 29952, Note_on_c, 0, 76, 86
2, 29997, Note_on_c, 0, 76, 0
2, 30000, Note_on_c, 0, 84, 86
2, 30020, Note_on_c, 0, 84, 0
2, 30048, Note_on_c, 0, 72, 86
2, 30093, Note_on_c, 0, 72, 0
2, 30096, Note_on_c, 0, 73, 86
2, 30141, Note_on_c, 0, 73, 0
2, 30192, Note_on_c, 0, 78, 86
2, 30237, Note_on_c, 0, 78, 0
2, 30240, Note_on_c, 0, 79, 86
2, 30252, Note_on_c, 0, 79, 0
2, 30252, Note_on_c, 0, 77, 86
2, 30264, Note_on_c, 0, 77, 0
2, 30264, Note_on_c, 0, 79, 86
2, 30285, Note_on_c, 0, 79, 0
2, 30288, Note_on_c, 0, 82, 86
2, 30308, Note_on_c, 0, 82, 0
2, 30336, Note_on_c, 0, 76, 86
2, 30381, Note_on_c, 0, 76, 0
2, 30384, Note_on_c, 0, 79, 86
2, 30429, Note_on_c, 0, 79, 0
2, 30432, Note_on_c, 0, 77, 86
2, 30477, Note_on_c, 0, 77, 0
2, 30480, Note_on_c, 0, 84, 86
2, 30500, Note_on_c, 0, 84, 0
2, 30528, Note_on_c, 0, 74, 86
2, 30661, Note_on_c, 0, 74, 0
2, 30672, Note_on_c, 0, 82, 86
2, 30692, Note_on_c, 0, 82, 0
2, 30720, Note_on_c, 0, 72, 86
2, 30765, Note_on_c, 0, 72, 0
2, 30768, Note_on_c, 0, 75, 86
2, 30813, Note_on_c, 0, 75, 0
2, 30816, Note_on_c, 0, 74, 86
2, 30861, Note_on_c, 0, 74, 0
2, 30864, Note_on_c, 0, 81, 86
2, 30884, Note_on_c, 0, 81, 0
2, 30912, Note_on_c, 0, 70, 86
2, 30957, Note_on_c, 0, 70, 0
2, 30960, Note_on_c, 0, 74, 86
2, 31005, Note_on_c, 0, 74, 0
2, 31008, Note_on_c, 0, 72, 86
2, 31053, Note_on_c, 0, 72, 0
2, 31056, Note_on_c, 0, 79, 86
2, 31076, Note_on_c, 0, 79, 0
2, 31104, Note_on_c, 0, 69, 86
2, 31149, Note_on_c, 0, 69, 0
2, 31152, Note_on_c, 0, 72, 86
2, 31197, Note_on_c, 0, 72, 0
2, 31200, Note_on_c, 0, 71, 86
2, 31245, Note_on_c, 0, 71, 0
2, 31248, Note_on_c, 0, 77, 86
2, 31268, Note_on_c, 0, 77, 0
2, 31296, Note_on_c, 0, 76, 86
2, 31390, Note_on_c, 0, 76, 0
2, 31440, Note_on_c, 0, 72, 78
2, 31460, Note_on_c, 0, 72, 0
2, 31488, Note_on_c, 0, 65, 78
2, 31533, Note_on_c, 0, 65, 0
2, 31536, Note_on_c, 0, 69, 78
2, 31581, Note_on_c, 0, 69, 0
2, 31584, Note_on_c, 0, 60, 78
2, 31629, Note_on_c, 0, 60, 0
2, 31632, Note_on_c, 0, 65, 78
2, 31677, Note_on_c, 0, 65, 0
2, 31680, Note_on_c, 0, 64, 78
2, 31725, Note_on_c, 0, 64, 0
2, 31728, Note_on_c, 0, 65, 78
2, 31773, Note_on_c, 0, 65, 0
2, 31776, Note_on_c, 0, 67, 78
2, 31821, Note_on_c, 0, 67, 0
2, 31824, Note_on_c, 0, 72, 78
2, 31844, Note_on_c, 0, 72, 0
2, 31872, Note_on_c, 0, 67, 78
2, 31917, Note_on_c, 0, 67, 0
2, 31920, Note_on_c, 0, 70, 78
2, 31965, Note_on_c, 0, 70, 0
2, 31968, Note_on_c, 0, 60, 78
2, 32013, Note_on_c, 0, 60, 0
2, 32016, Note_on_c, 0, 64, 78
2, 32036, Note_on_c, 0, 64, 0
2, 32064, Note_on_c, 0, 65, 78
2, 32109, Note_on_c, 0, 65, 0
2, 32112, Note_on_c, 0, 67, 78
2, 32157, Note_on_c, 0, 67, 0
2, 32160, Note_on_c, 0, 69, 78
2, 32205, Note_on_c, 0, 69, 0
2, 32208, Note_on_c, 0, 72, 78
2, 32228, Note_on_c, 0, 72, 0
2, 32256, Note_on_c, 0, 65, 78
2, 32301, Note_on_c, 0, 65, 0
2, 32304, Note_on_c, 0, 72, 78
2, 32324, Note_on_c, 0, 72, 0
2, 32352, Note_on_c, 0, 65, 78
2, 32397, Note_on_c, 0, 65, 0
2, 32400, Note_on_c, 0, 63, 78
2, 32445, Note_on_c, 0, 63, 0
2, 32448, Note_on_c, 0, 63, 78
2, 32471, Note_on_c, 0, 63, 0
2, 32472, Note_on_c, 0, 62, 78
2, 32495, Note_on_c, 0, 62, 0
2, 32496, Note_on_c, 0, 61, 78
2, 32519, Note_on_c, 0, 61, 0
2, 32520, Note_on_c, 0, 62, 78
2, 32543, Note_on_c, 0, 62, 0
2, 32544, Note_on_c, 0, 64, 78
2, 32567, Note_on_c, 0, 64, 0
2, 32568, Note_on_c, 0, 62, 78
2, 32591, Note_on_c, 0, 62, 0
2, 32592, Note_on_c, 0, 66, 78
2, 32615, Note_on_c, 0, 66, 0
2, 32616, Note_on_c, 0, 62, 78
2, 32639, Note_on_c, 0, 62, 0
2, 32640, Note_on_c, 0, 67, 78
2, 32663, Note_on_c, 0, 67, 0
2, 32664, Note_on_c, 0, 62, 79
2, 32687, Note_on_c, 0, 62, 0
2, 32688, Note_on_c, 0, 69, 80
2, 32711, Note_on_c, 0, 69, 0
2, 32712, Note_on_c, 0, 62, 81
2, 32735, Note_on_c, 0, 62, 0
2, 32736, Note_on_c, 0, 70, 82
2, 32759, Note_on_c, 0, 70, 0
2, 32760, Note_on_c, 0, 62, 83
2, 32783, Note_on_c, 0, 62, 0
2, 32784, Note_on_c, 0, 72, 84
2, 32807, Note_on_c, 0, 72, 0
2, 32808, Note_on_c, 0, 62, 86
2, 32831, Note_on_c, 0, 62, 0
2, 32832, Note_on_c, 0, 74, 101
2, 32928, Note_on_c, 0, 74, 0
2, 32928, Note_on_c, 0, 72, 81
2, 32951, Note_on_c, 0, 72, 0
2, 32952, Note_on_c, 0, 70, 80
2, 32975, Note_on_c, 0, 70, 0
2, 32976, Note_on_c, 0, 69, 79
2, 32999, Note_on_c, 0, 69, 0
2, 33000, Note_on_c, 0, 67, 78
2, 33023, Note_on_c, 0, 67, 0
2, 33024, Note_on_c, 0, 65, 78
2, 33157, Note_on_c, 0, 65, 0
2, 33168, Note_on_c, 0, 69, 78
2, 33186, Note_on_c, 0, 69, 0
2, 33186, Note_on_c, 0, 67, 78
2, 33213, Note_on_c, 0, 67, 0
2, 33216, Note_on_c, 0, 65, 78
2, 33305, Note_on_c, 0, 65, 0
2, 33360, Control_c, 0, 64, 127
2, 33360, Note_on_c, 0, 79, 86
2, 33383, Note_on_c, 0, 79, 0
2, 33384, Note_on_c, 0, 76, 86
2, 33407, Note_on_c, 0, 76, 0
2, 33408, Note_on_c, 0, 79, 86
2, 33431, Note_on_c, 0, 79, 0
2, 33432, Note_on_c, 0, 76, 86
2, 33455, Note_on_c, 0, 76, 0
2, 33456, Note_on_c, 0, 82, 86
2, 33479, Note_on_c, 0, 82, 0
2, 33480, Note_on_c, 0, 79, 86
2, 33503, Note_on_c, 0, 79, 0
2, 33504, Note_on_c, 0, 76, 86
2, 33527, Note_on_c, 0, 76, 0
2, 33528, Note_on_c, 0, 72, 86
2, 33551, Note_on_c, 0, 72, 0
2, 33552, Note_on_c, 0, 79, 86
2, 33575, Note_on_c, 0, 79, 0
2, 33576, Note_on_c, 0, 76, 86
2, 33599, Note_on_c, 0, 76, 0
2, 33600, Note_on_c, 0, 79, 86
2, 33623, Note_on_c, 0, 79, 0
2, 33624, Note_on_c, 0, 76, 86
2, 33647, Note_on_c, 0, 76, 0
2, 33648, Note_on_c, 0, 82, 86
2, 33671, Note_on_c, 0, 82, 0
2, 33672, Note_on_c, 0, 79, 86
2, 33695, Note_on_c, 0, 79, 0
2, 33696, Note_on_c, 0, 76, 86
2, 33719, Note_on_c, 0, 76, 0
2, 33720, Note_on_c, 0, 72, 86
2, 33743, Note_on_c, 0, 72, 0
2, 33744, Note_on_c, 0, 79, 86
2, 33767, Note_on_c, 0, 79, 0
2, 33768, Note_on_c, 0, 76, 86
2, 33791, Note_on_c, 0, 76, 0
2, 33792, Note_on_c, 0, 79, 86
2, 33815, Note_on_c, 0, 79, 0
2, 33816, Note_on_c, 0, 76, 86
2, 33839, Note_on_c, 0, 76, 0
2, 33840, Note_on_c, 0, 82, 86
2, 33863, Note_on_c, 0, 82, 0
2, 33864, Note_on_c, 0, 79, 86
2, 33887, Note_on_c, 0, 79, 0
2, 33888, Note_on_c, 0, 76, 86
2, 33911, Note_on_c, 0, 76, 0
2, 33912, Note_on_c, 0, 72, 86
2, 33935, Note_on_c, 0, 72, 0
2, 33936, Note_on_c, 0, 79, 86
2, 33959, Note_on_c, 0, 79, 0
2, 33960, Note_on_c, 0, 76, 86
2, 33983, Note_on_c, 0, 76, 0
2, 33984, Note_on_c, 0, 72, 86
2, 34007, Note_on_c, 0, 72, 0
2, 34008, Note_on_c, 0, 70, 86
2, 34031, Note_on_c, 0, 70, 0
2, 34032, Note_on_c, 0, 76, 86
2, 34055, Note_on_c, 0, 76, 0
2, 34056, Note_on_c, 0, 72, 86
2, 34079, Note_on_c, 0, 72, 0
2, 34080, Note_on_c, 0, 70, 86
2, 34103, Note_on_c, 0, 70, 0
2, 34104, Note_on_c, 0, 67, 86
2, 34127, Note_on_c, 0, 67, 0
2, 34128, Note_on_c, 0, 70, 86
2, 34151, Note_on_c, 0, 70, 0
2, 34152, Control_c, 0, 64, 0
2, 34152, Note_on_c, 0, 67, 86
2, 34175, Note_on_c, 0, 67, 0
2, 34176, Note_on_c, 0, 64, 86
2, 34221, Note_on_c, 0, 64, 0
2, 34320, Note_on_c, 0, 84, 78
2, 34340, Note_on_c, 0, 84, 0
2, 34368, Note_on_c, 0, 77, 78
2, 34388, Note_on_c, 0, 77, 0
2, 34416, Note_on_c, 0, 81, 80
2, 34436, Note_on_c, 0, 81, 0
2, 34464, Note_on_c, 0, 74, 83
2, 34484, Note_on_c, 0, 74, 0
2, 34512, Note_on_c, 0, 86, 86
2, 34532, Note_on_c, 0, 86, 0
2, 34560, Note_on_c, 0, 77, 84
2, 34656, Note_on_c, 0, 77, 0
2, 34656, Note_on_c, 0, 76, 80
2, 34701, Note_on_c, 0, 76, 0
2, 34704, Note_on_c, 0, 84, 78
2, 34724, Note_on_c, 0, 84, 0
2, 34752, Note_on_c, 0, 77, 78
2, 34800, Note_on_c, 0, 77, 0
2, 34800, Note_on_c, 0, 81, 80
2, 34845, Note_on_c, 0, 81, 0
2, 34848, Note_on_c, 0, 74, 83
2, 34896, Note_on_c, 0, 74, 0
2, 34896, Note_on_c, 0, 86, 86
2, 34941, Note_on_c, 0, 86, 0
2, 34944, Note_on_c, 0, 77, 84
2, 35040, Note_on_c, 0, 77, 0
2, 35040, Note_on_c, 0, 76, 80
2, 35085, Note_on_c, 0, 76, 0
2, 35088, Note_on_c, 0, 84, 78
2, 35108, Note_on_c, 0, 84, 0
2, 35136, Note_on_c, 0, 75, 78
2, 35232, Note_on_c, 0, 75, 0
2, 35232, Note_on_c, 0, 74, 78
2, 35277, Note_on_c, 0, 74, 0
2, 35280, Note_on_c, 0, 82, 78
2, 35300, Note_on_c, 0, 82, 0
2, 35328, Note_on_c, 0, 73, 78
2, 35424, Note_on_c, 0, 73, 0
2, 35424, Note_on_c, 0, 72, 78
2, 35469, Note_on_c, 0, 72, 0
2, 35472, Note_on_c, 0, 77, 78
2, 35492, Note_on_c, 0, 77, 0
2, 35520, Note_on_c, 0, 67, 78
2, 35565, Note_on_c, 0, 67, 0
2, 35568, Note_on_c, 0, 74, 82
2, 35568, Note_on_c, 0, 70, 82
2, 35613, Note_on_c, 0, 74, 0
2, 35613, Note_on_c, 0, 70, 0
2, 35616, Note_on_c, 0, 72, 86
2, 35616, Note_on_c, 0, 69, 86
2, 35661, Note_on_c, 0, 72, 0
2, 35661, Note_on_c, 0, 69, 0
2, 35664, Note_on_c, 0, 64, 82
2, 35709, Note_on_c, 0, 64, 0
2, 35712, Note_on_c, 0, 65, 78
2, 35801, Note_on_c, 0, 65, 0
2, 35856, Note_on_c, 0, 84, 78
2, 35876, Note_on_c, 0, 84, 0
2, 35904, Note_on_c, 0, 77, 78
2, 35952, Note_on_c, 0, 77, 0
2, 35952, Note_on_c, 0, 81, 80
2, 35962, Note_on_c, 0, 81, 0
2, 36000, Note_on_c, 0, 74, 83
2, 36048, Note_on_c, 0, 74, 0
2, 36048, Note_on_c, 0, 86, 86
2, 36058, Note_on_c, 0, 86, 0
2, 36096, Note_on_c, 0, 77, 84
2, 36192, Note_on_c, 0, 77, 0
2, 36192, Note_on_c, 0, 76, 80
2, 36237, Note_on_c, 0, 76, 0
2, 36240, Note_on_c, 0, 84, 78
2, 36260, Note_on_c, 0, 84, 0
2, 36288, Note_on_c, 0, 77, 78
2, 36311, Note_on_c, 0, 77, 0
2, 36312, Note_on_c, 0, 79, 80
2, 36335, Note_on_c, 0, 79, 0
2, 36336, Note_on_c, 0, 81, 82
2, 36359, Note_on_c, 0, 81, 0
2, 36360, Note_on_c, 0, 77, 84
2, 36383, Note_on_c, 0, 77, 0
2, 36384, Note_on_c, 0, 74, 86
2, 36429, Note_on_c, 0, 74, 0
2, 36432, Note_on_c, 0, 86, 84
2, 36452, Note_on_c, 0, 86, 0
2, 36480, Note_on_c, 0, 77, 82
2, 36576, Note_on_c, 0, 77, 0
2, 36576, Note_on_c, 0, 76, 79
2, 36621, Note_on_c, 0, 76, 0
2, 36624, Note_on_c, 0, 84, 78
2, 36644, Note_on_c, 0, 84, 0
2, 36672, Note_on_c, 0, 75, 78
2, 36768, Note_on_c, 0, 75, 0
2, 36768, Note_on_c, 0, 74, 78
2, 36813, Note_on_c, 0, 74, 0
2, 36816, Note_on_c, 0, 82, 78
2, 36836, Note_on_c, 0, 82, 0
2, 36864, Note_on_c, 0, 73, 78
2, 36960, Note_on_c, 0, 73, 0
2, 36960, Note_on_c, 0, 72, 78
2, 37005, Note_on_c, 0, 72, 0
2, 37008, Note_on_c, 0, 77, 78
2, 37028, Note_on_c, 0, 77, 0
2, 37056, Note_on_c, 0, 67, 78
2, 37101, Note_on_c, 0, 67, 0
2, 37104, Note_on_c, 0, 74, 82
2, 37104, Note_on_c, 0, 70, 82
2, 37149, Note_on_c, 0, 74, 0
2, 37149, Note_on_c, 0, 70, 0
2, 37152, Note_on_c, 0, 72, 86
2, 37152, Note_on_c, 0, 69, 86
2, 37197, Note_on_c, 0, 72, 0
2, 37197, Note_on_c, 0, 69, 0
2, 37200, Note_on_c, 0, 64, 82
2, 37245, Note_on_c, 0, 64, 0
2, 37248, Note_on_c, 0, 65, 78
2, 37337, Note_on_c, 0, 65, 0
2, 37392, Note_on_c, 0, 62, 78
2, 37392, Note_on_c, 0, 58, 78
2, 37440, Note_on_c, 0, 62, 0
2, 37440, Note_on_c, 0, 58, 0
2, 37440, Note_on_c, 0, 60, 76
2, 37440, Note_on_c, 0, 57, 76
2, 37460, Note_on_c, 0, 60, 0
2, 37460, Note_on_c, 0, 57, 0
2, 37584, Note_on_c, 0, 70, 72
2, 37584, Note_on_c, 0, 64, 72
2, 37632, Note_on_c, 0, 70, 0
2, 37632, Note_on_c, 0, 64, 0
2, 37632, Note_on_c, 0, 69, 71
2, 37632, Note_on_c, 0, 65, 71
2, 37652, Note_on_c, 0, 69, 0
2, 37652, Note_on_c, 0, 65, 0
2, 37776, Note_on_c, 0, 74, 67
2, 37776, Note_on_c, 0, 70, 67
2, 37824, Note_on_c, 0, 74, 0
2, 37824, Note_on_c, 0, 70, 0
2, 37824, Note_on_c, 0, 72, 66
2, 37824, Note_on_c, 0, 69, 66
2, 37844, Note_on_c, 0, 72, 0
2, 37844, Note_on_c, 0, 69, 0
2, 37968, Note_on_c, 0, 82, 62
2, 37968, Note_on_c, 0, 76, 62
2, 38016, Note_on_c, 0, 82, 0
2, 38016, Note_on_c, 0, 76, 0
2, 38016, Note_on_c, 0, 81, 61
2, 38016, Note_on_c, 0, 77, 61
2, 38036, Note_on_c, 0, 81, 0
2, 38036, Note_on_c, 0, 77, 0
2, 38160, Control_c, 0, 64, 127
2, 38160, Note_on_c, 0, 72, 86
2, 38183, Note_on_c, 0, 72, 0
2, 38184, Note_on_c, 0, 69, 86
2, 38207, Note_on_c, 0, 69, 0
2, 38208, Note_on_c, 0, 72, 86
2, 38231, Note_on_c, 0, 72, 0
2, 38232, Note_on_c, 0, 69, 86
2, 38255, Note_on_c, 0, 69, 0
2, 38256, Note_on_c, 0, 75, 86
2, 38279, Note_on_c, 0, 75, 0
2, 38280, Note_on_c, 0, 72, 86
2, 38303, Note_on_c, 0, 72, 0
2, 38304, Note_on_c, 0, 69, 86
2, 38327, Note_on_c, 0, 69, 0
2, 38328, Note_on_c, 0, 78, 86
2, 38351, Note_on_c, 0, 78, 0
2, 38352, Note_on_c, 0, 75, 86
2, 38375, Note_on_c, 0, 75, 0
2, 38376, Note_on_c, 0, 72, 86
2, 38399, Note_on_c, 0, 72, 0
2, 38400, Note_on_c, 0, 69, 86
2, 38423, Note_on_c, 0, 69, 0
2, 38424, Note_on_c, 0, 81, 86
2, 38447, Note_on_c, 0, 81, 0
2, 38448, Note_on_c, 0, 78, 86
2, 38471, Note_on_c, 0, 78, 0
2, 38472, Note_on_c, 0, 75, 86
2, 38495, Note_on_c, 0, 75, 0
2, 38496, Note_on_c, 0, 72, 86
2, 38519, Note_on_c, 0, 72, 0
2, 38520, Note_on_c, 0, 84, 86
2, 38543, Note_on_c, 0, 84, 0
2, 38544, Note_on_c, 0, 81, 86
2, 38567, Note_on_c, 0, 81, 0
2, 38568, Note_on_c, 0, 78, 86
2, 38591, Note_on_c, 0, 78, 0
2, 38592, Control_c, 0, 64, 0
2, 38592, Note_on_c, 0, 75, 86
2, 38631, Note_on_c, 0, 75, 0
2, 38712, Control_c, 0, 64, 127
2, 38712, Note_on_c, 0, 84, 86
2, 38735, Note_on_c, 0, 84, 0
2, 38736, Note_on_c, 0, 81, 86
2, 38759, Note_on_c, 0, 81, 0
2, 38760, Note_on_c, 0, 78, 86
2, 38783, Note_on_c, 0, 78, 0
2, 38784, Control_c, 0, 64, 0
2, 38784, Note_on_c, 0, 74, 86
2, 38823, Note_on_c, 0, 74, 0
2, 38904, Control_c, 0, 64, 127
2, 38904, Note_on_c, 0, 84, 86
2, 38927, Note_on_c, 0, 84, 0
2, 38928, Note_on_c, 0, 81, 86
2, 38951, Note_on_c, 0, 81, 0
2, 38952, Note_on_c, 0, 78, 86
2, 38975, Note_on_c, 0, 78, 0
2, 38976, Control_c, 0, 64, 0
2, 38976, Note_on_c, 0, 75, 86
2, 39015, Note_on_c, 0, 75, 0
2, 39096, Control_c, 0, 64, 127
2, 39096, Note_on_c, 0, 84, 86
2, 39119, Note_on_c, 0, 84, 0
2, 39120, Note_on_c, 0, 81, 86
2, 39143, Note_on_c, 0, 81, 0
2, 39144, Note_on_c, 0, 78, 86
2, 39167, Note_on_c, 0, 78, 0
2, 39168, Control_c, 0, 64, 0
2, 39168, Note_on_c, 0, 74, 86
2, 39207, Note_on_c, 0, 74, 0
2, 39312, Note_on_c, 0, 74, 78
2, 39332, Note_on_c, 0, 74, 0
2, 39360, Note_on_c, 0, 67, 78
2, 39408, Note_on_c, 0, 67, 0
2, 39408, Note_on_c, 0, 70, 80
2, 39453, Note_on_c, 0, 70, 0
2, 39456, Note_on_c, 0, 63, 82
2, 39501, Note_on_c, 0, 63, 0
2, 39504, Note_on_c, 0, 75, 84
2, 39524, Note_on_c, 0, 75, 0
2, 39552, Note_on_c, 0, 67, 86
2, 39648, Note_on_c, 0, 67, 0
2, 39648, Note_on_c, 0, 66, 82
2, 39693, Note_on_c, 0, 66, 0
2, 39696, Note_on_c, 0, 72, 80
2, 39716, Note_on_c, 0, 72, 0
2, 39744, Note_on_c, 0, 69, 78
2, 39792, Note_on_c, 0, 69, 0
2, 39792, Note_on_c, 0, 81, 80
2, 39837, Note_on_c, 0, 81, 0
2, 39840, Note_on_c, 0, 72, 82
2, 39888, Note_on_c, 0, 72, 0
2, 39888, Note_on_c, 0, 84, 84
2, 39908, Note_on_c, 0, 84, 0
2, 39936, Note_on_c, 0, 72, 86
2, 40032, Note_on_c, 0, 72, 0
2, 40032, Note_on_c, 0, 70, 80
2, 40077, Note_on_c, 0, 70, 0
2, 40224, Note_on_c, 0, 70, 78
2, 40224, Note_on_c, 0, 67, 78
2, 40313, Note_on_c, 0, 70, 0
2, 40313, Note_on_c, 0, 67, 0
2, 40320, Note_on_c, 0, 68, 78
2, 40320, Note_on_c, 0, 65, 78
2, 40461, Note_on_c, 0, 68, 0
2, 40461, Note_on_c, 0, 65, 0
2, 40608, Note_on_c, 0, 74, 78
2, 40608, Note_on_c, 0, 70, 78
2, 40697, Note_on_c, 0, 74, 0
2, 40697, Note_on_c, 0, 70, 0
2, 40704, Note_on_c, 0, 75, 78
2, 40704, Note_on_c, 0, 70, 78
2, 40845, Note_on_c, 0, 75, 0
2, 40845, Note_on_c, 0, 70, 0
2, 40992, Note_on_c, 0, 73, 69
2, 41081, Note_on_c, 0, 73, 0
2, 41088, Note_on_c, 0, 82, 69
2, 41133, Note_on_c, 0, 82, 0
2, 41136, Note_on_c, 0, 72, 70
2, 41181, Note_on_c, 0, 72, 0
2, 41184, Note_on_c, 0, 80, 70
2, 41229, Note_on_c, 0, 80, 0
2, 41232, Note_on_c, 0, 72, 71
2, 41277, Note_on_c, 0, 72, 0
2, 41280, Note_on_c, 0, 80, 71
2, 41325, Note_on_c, 0, 80, 0
2, 41328, Note_on_c, 0, 70, 72
2, 41373, Note_on_c, 0, 70, 0
2, 41376, Note_on_c, 0, 79, 72
2, 41421, Note_on_c, 0, 79, 0
2, 41424, Note_on_c, 0, 70, 73
2, 41469, Note_on_c, 0, 70, 0
2, 41472, Note_on_c, 0, 79, 73
2, 41517, Note_on_c, 0, 79, 0
2, 41520, Note_on_c, 0, 68, 74
2, 41565, Note_on_c, 0, 68, 0
2, 41568, Note_on_c, 0, 77, 74
2, 41613, Note_on_c, 0, 77, 0
2, 41616, Note_on_c, 0, 68, 75
2, 41661, Note_on_c, 0, 68, 0
2, 41664, Note_on_c, 0, 77, 75
2, 41709, Note_on_c, 0, 77, 0
2, 41712, Note_on_c, 0, 67, 76
2, 41757, Note_on_c, 0, 67, 0
2, 41760, Note_on_c, 0, 75, 76
2, 41805, Note_on_c, 0, 75, 0
2, 41808, Note_on_c, 0, 67, 77
2, 41853, Note_on_c, 0, 67, 0
2, 41856, Note_on_c, 0, 75, 77
2, 41901, Note_on_c, 0, 75, 0
2, 41904, Note_on_c, 0, 66, 77
2, 41949, Note_on_c, 0, 66, 0
2, 41952, Note_on_c, 0, 74, 78
2, 41997, Note_on_c, 0, 74, 0
2, 42000, Note_on_c, 0, 67, 78
2, 42045, Note_on_c, 0, 67, 0
2, 42048, Note_on_c, 0, 74, 79
2, 42093, Note_on_c, 0, 74, 0
2, 42096, Note_on_c, 0, 68, 79
2, 42141, Note_on_c, 0, 68, 0
2, 42144, Note_on_c, 0, 74, 80
2, 42189, Note_on_c, 0, 74, 0
2, 42192, Note_on_c, 0, 65, 80
2, 42237, Note_on_c, 0, 65, 0
2, 42240, Note_on_c, 0, 64, 81
2, 42329, Note_on_c, 0, 64, 0
2, 42336, Note_on_c, 0, 74, 82
2, 42381, Note_on_c, 0, 74, 0
2, 42384, Note_on_c, 0, 62, 82
2, 42429, Note_on_c, 0, 62, 0
2, 42432, Note_on_c, 0, 61, 83
2, 42521, Note_on_c, 0, 61, 0
2, 42528, Note_on_c, 0, 74, 84
2, 42573, Note_on_c, 0, 74, 0
2, 42576, Note_on_c, 0, 62, 84
2, 42621, Note_on_c, 0, 62, 0
2, 42624, Note_on_c, 0, 61, 85
2, 42713, Note_on_c, 0, 61, 0
2, 42768, Control_c, 0, 64, 127
2, 42768, Note_on_c, 0, 76, 86
2, 42791, Note_on_c, 0, 76, 0
2, 42792, Note_on_c, 0, 73, 86
2, 42815, Note_on_c, 0, 73, 0
2, 42816, Note_on_c, 0, 76, 86
2, 42839, Note_on_c, 0, 76, 0
2, 42840, Note_on_c, 0, 73, 86
2, 42863, Note_on_c, 0, 73, 0
2, 42864, Note_on_c, 0, 79, 86
2, 42887, Note_on_c, 0, 79, 0
2, 42888, Note_on_c, 0, 76, 86
2, 42911, Note_on_c, 0, 76, 0
2, 42912, Note_on_c, 0, 73, 86
2, 42935, Note_on_c, 0, 73, 0
2, 42936, Note_on_c, 0, 69, 86
2, 42959, Note_on_c, 0, 69, 0
2, 42960, Note_on_c, 0, 76, 86
2, 42983, Note_on_c, 0, 76, 0
2, 42984, Note_on_c, 0, 73, 86
2, 43007, Note_on_c, 0, 73, 0
2, 43008, Note_on_c, 0, 76, 86
2, 43031, Note_on_c, 0, 76, 0
2, 43032, Note_on_c, 0, 73, 86
2, 43055, Note_on_c, 0, 73, 0
2, 43056, Note_on_c, 0, 79, 86
2, 43079, Note_on_c, 0, 79, 0
2, 43080, Note_on_c, 0, 76, 86
2, 43103, Note_on_c, 0, 76, 0
2, 43104, Note_on_c, 0, 73, 86
2, 43127, Note_on_c, 0, 73, 0
2, 43128, Control_c, 0, 64, 0
2, 43128, Note_on_c, 0, 69, 86
2, 43151, Note_on_c, 0, 69, 0
2, 43152, Control_c, 0, 64, 127
2, 43152, Note_on_c, 0, 81, 86
2, 43175, Note_on_c, 0, 81, 0
2, 43176, Note_on_c, 0, 77, 86
2, 43199, Note_on_c, 0, 77, 0
2, 43200, Note_on_c, 0, 74, 86
2, 43223, Note_on_c, 0, 74, 0
2, 43224, Control_c, 0, 64, 0
2, 43224, Note_on_c, 0, 69, 86
2, 43247, Note_on_c, 0, 69, 0
2, 43248, Control_c, 0, 64, 127
2, 43248, Note_on_c, 0, 81, 86
2, 43271, Note_on_c, 0, 81, 0
2, 43272, Note_on_c, 0, 79, 86
2, 43295, Note_on_c, 0, 79, 0
2, 43296, Note_on_c, 0, 76, 86
2, 43319, Note_on_c, 0, 76, 0
2, 43320, Control_c, 0, 64, 0
2, 43320, Note_on_c, 0, 69, 86
2, 43343, Note_on_c, 0, 69, 0
2, 43344, Control_c, 0, 64, 127
2, 43344, Note_on_c, 0, 81, 86
2, 43367, Note_on_c, 0, 81, 0
2, 43368, Note_on_c, 0, 77, 86
2, 43391, Note_on_c, 0, 77, 0
2, 43392, Note_on_c, 0, 74, 86
2, 43415, Note_on_c, 0, 74, 0
2, 43416, Control_c, 0, 64, 0
2, 43416, Note_on_c, 0, 69, 86
2, 43439, Note_on_c, 0, 69, 0
2, 43440, Control_c, 0, 64, 127
2, 43440, Note_on_c, 0, 81, 86
2, 43463, Note_on_c, 0, 81, 0
2, 43464, Note_on_c, 0, 79, 86
2, 43487, Note_on_c, 0, 79, 0
2, 43488, Note_on_c, 0, 76, 86
2, 43511, Note_on_c, 0, 76, 0
2, 43512, Control_c, 0, 64, 0
2, 43512, Note_on_c, 0, 69, 86
2, 43535, Note_on_c, 0, 69, 0
2, 43536, Control_c, 0, 64, 127
2, 43536, Note_on_c, 0, 81, 86
2, 43559, Note_on_c, 0, 81, 0
2, 43560, Note_on_c, 0, 77, 86
2, 43583, Note_on_c, 0, 77, 0
2, 43584, Note_on_c, 0, 74, 86
2, 43607, Note_on_c, 0, 74, 0
2, 43608, Control_c, 0, 64, 0
2, 43608, Note_on_c, 0, 69, 86
2, 43631, Note_on_c, 0, 69, 0
2, 43632, Note_on_c, 0, 81, 86
2, 43655, Note_on_c, 0, 81, 0
2, 43656, Note_on_c, 0, 79, 86
2, 43679, Note_on_c, 0, 79, 0
2, 43680, Note_on_c, 0, 77, 86
2, 43703, Note_on_c, 0, 77, 0
2, 43704, Note_on_c, 0, 76, 86
2, 43727, Note_on_c, 0, 76, 0
2, 43728, Note_on_c, 0, 74, 86
2, 43751, Note_on_c, 0, 74, 0
2, 43752, Note_on_c, 0, 72, 86
2, 43775, Note_on_c, 0, 72, 0
2, 43776, Note_on_c, 0, 70, 86
2, 43799, Note_on_c, 0, 70, 0
2, 43800, Note_on_c, 0, 69, 86
2, 43823, Note_on_c, 0, 69, 0
2, 43824, Note_on_c, 0, 67, 86
2, 43847, Note_on_c, 0, 67, 0
2, 43848, Note_on_c, 0, 65, 86
2, 43871, Note_on_c, 0, 65, 0
2, 43872, Note_on_c, 0, 64, 86
2, 43895, Note_on_c, 0, 64, 0
2, 43896, Note_on_c, 0, 62, 86
2, 43919, Note_on_c, 0, 62, 0
2, 43920, Note_on_c, 0, 61, 86
2, 43943, Note_on_c, 0, 61, 0
2, 43944, Note_on_c, 0, 62, 86
2, 43967, Note_on_c, 0, 62, 0
2, 43968, Note_on_c, 0, 63, 102
2, 44064, Note_on_c, 0, 63, 0
2, 44112, Note_on_c, 0, 67, 84
2, 44112, Note_on_c, 0, 63, 84
2, 44157, Note_on_c, 0, 67, 0
2, 44157, Note_on_c, 0, 63, 0
2, 44208, Note_on_c, 0, 65, 82
2, 44208, Note_on_c, 0, 62, 82
2, 44253, Note_on_c, 0, 65, 0
2, 44253, Note_on_c, 0, 62, 0
2, 44304, Note_on_c, 0, 61, 79
2, 44349, Note_on_c, 0, 61, 0
2, 44352, Note_on_c, 0, 62, 78
2, 44441, Note_on_c, 0, 62, 0
2, 44496, Note_on_c, 0, 69, 78
2, 44516, Note_on_c, 0, 69, 0
2, 44544, Note_on_c, 0, 62, 78
2, 44589, Note_on_c, 0, 62, 0
2, 44592, Note_on_c, 0, 65, 80
2, 44637, Note_on_c, 0, 65, 0
2, 44640, Note_on_c, 0, 58, 82
2, 44685, Note_on_c, 0, 58, 0
2, 44688, Note_on_c, 0, 70, 84
2, 44708, Note_on_c, 0, 70, 0
2, 44736, Note_on_c, 0, 64, 86
2, 44759, Note_on_c, 0, 64, 0
2, 44760, Note_on_c, 0, 65, 84
2, 44783, Note_on_c, 0, 65, 0
2, 44784, Note_on_c, 0, 67, 83
2, 44807, Note_on_c, 0, 67, 0
2, 44808, Note_on_c, 0, 64, 82
2, 44831, Note_on_c, 0, 64, 0
2, 44832, Note_on_c, 0, 60, 80
2, 44877, Note_on_c, 0, 60, 0
2, 44880, Note_on_c, 0, 72, 78
2, 44900, Note_on_c, 0, 72, 0
2, 44928, Note_on_c, 0, 65, 78
2, 44973, Note_on_c, 0, 65, 0
2, 44976, Note_on_c, 0, 69, 79
2, 45021, Note_on_c, 0, 69, 0
2, 45024, Note_on_c, 0, 62, 80
2, 45069, Note_on_c, 0, 62, 0
2, 45072, Note_on_c, 0, 74, 81
2, 45092, Note_on_c, 0, 74, 0
2, 45120, Note_on_c, 0, 67, 82
2, 45143, Note_on_c, 0, 67, 0
2, 45144, Note_on_c, 0, 69, 82
2, 45167, Note_on_c, 0, 69, 0
2, 45168, Note_on_c, 0, 70, 83
2, 45191, Note_on_c, 0, 70, 0
2, 45192, Note_on_c, 0, 67, 83
2, 45215, Note_on_c, 0, 67, 0
2, 45216, Note_on_c, 0, 64, 78
2, 45261, Note_on_c, 0, 64, 0
2, 45264, Note_on_c, 0, 79, 78
2, 45284, Note_on_c, 0, 79, 0
2, 45312, Note_on_c, 0, 70, 78
2, 45360, Note_on_c, 0, 70, 0
2, 45360, Note_on_c, 0, 67, 78
2, 45405, Note_on_c, 0, 67, 0
2, 45408, Note_on_c, 0, 69, 78
2, 45428, Note_on_c, 0, 69, 0
2, 45456, Note_on_c, 0, 81, 78
2, 45476, Note_on_c, 0, 81, 0
2, 45504, Note_on_c, 0, 72, 78
2, 45552, Note_on_c, 0, 72, 0
2, 45552, Note_on_c, 0, 69, 78
2, 45597, Note_on_c, 0, 69, 0
2, 45600, Note_on_c, 0, 70, 78
2, 45620, Note_on_c, 0, 70, 0
2, 45648, Note_on_c, 0, 82, 78
2, 45668, Note_on_c, 0, 82, 0
2, 45696, Note_on_c, 0, 76, 78
2, 45744, Note_on_c, 0, 76, 0
2, 45744, Note_on_c, 0, 77, 78
2, 45789, Note_on_c, 0, 77, 0
2, 45792, Note_on_c, 0, 70, 78
2, 45812, Note_on_c, 0, 70, 0
2, 45840, Note_on_c, 0, 69, 78
2, 45860, Note_on_c, 0, 69, 0
2, 45888, Note_on_c, 0, 67, 78
2, 45977, Note_on_c, 0, 67, 0
2, 46032, Note_on_c, 0, 72, 78
2, 46052, Note_on_c, 0, 72, 0
2, 46080, Note_on_c, 0, 65, 78
2, 46128, Note_on_c, 0, 65, 0
2, 46128, Note_on_c, 0, 69, 80
2, 46173, Note_on_c, 0, 69, 0
2, 46176, Note_on_c, 0, 62, 83
2, 46221, Note_on_c, 0, 62, 0
2, 46224, Note_on_c, 0, 74, 86
2, 46244, Note_on_c, 0, 74, 0
2, 46272, Note_on_c, 0, 65, 84
2, 46368, Note_on_c, 0, 65, 0
2, 46368, Note_on_c, 0, 64, 80
2, 46413, Note_on_c, 0, 64, 0
2, 46416, Note_on_c, 0, 70, 78
2, 46436, Note_on_c, 0, 70, 0
2, 46464, Note_on_c, 0, 67, 78
2, 46512, Note_on_c, 0, 67, 0
2, 46512, Note_on_c, 0, 76, 80
2, 46557, Note_on_c, 0, 76, 0
2, 46560, Note_on_c, 0, 70, 82
2, 46608, Note_on_c, 0, 70, 0
2, 46608, Note_on_c, 0, 79, 84
2, 46628, Note_on_c, 0, 79, 0
2, 46656, Note_on_c, 0, 70, 86
2, 46752, Note_on_c, 0, 70, 0
2, 46752, Note_on_c, 0, 69, 80
2, 46797, Note_on_c, 0, 69, 0
2, 46800, Note_on_c, 0, 72, 78
2, 46820, Note_on_c, 0, 72, 0
2, 46848, Note_on_c, 0, 63, 78
2, 46896, Note_on_c, 0, 63, 0
2, 46896, Note_on_c, 0, 75, 78
2, 46941, Note_on_c, 0, 75, 0
2, 46944, Note_on_c, 0, 65, 78
2, 46989, Note_on_c, 0, 65, 0
2, 46992, Note_on_c, 0, 72, 78
2, 47012, Note_on_c, 0, 72, 0
2, 47040, Note_on_c, 0, 73, 78
2, 47088, Note_on_c, 0, 73, 0
2, 47088, Note_on_c, 0, 74, 78
2, 47133, Note_on_c, 0, 74, 0
2, 47136, Note_on_c, 0, 67, 78
2, 47181, Note_on_c, 0, 67, 0
2, 47184, Note_on_c, 0, 74, 79
2, 47204, Note_on_c, 0, 74, 0
2, 47232, Note_on_c, 0, 75, 79
2, 47280, Note_on_c, 0, 75, 0
2, 47280, Note_on_c, 0, 76, 80
2, 47325, Note_on_c, 0, 76, 0
2, 47328, Note_on_c, 0, 69, 80
2, 47373, Note_on_c, 0, 69, 0
2, 47376, Note_on_c, 0, 76, 80
2, 47396, Note_on_c, 0, 76, 0
2, 47424, Note_on_c, 0, 79, 81
2, 47472, Note_on_c, 0, 79, 0
2, 47472, Note_on_c, 0, 77, 81
2, 47517, Note_on_c, 0, 77, 0
2, 47520, Note_on_c, 0, 70, 82
2, 47565, Note_on_c, 0, 70, 0
2, 47568, Note_on_c, 0, 77, 82
2, 47588, Note_on_c, 0, 77, 0
2, 47616, Note_on_c, 0, 78, 82
2, 47664, Note_on_c, 0, 78, 0
2, 47664, Note_on_c, 0, 79, 83
2, 47709, Note_on_c, 0, 79, 0
2, 47712, Note_on_c, 0, 72, 83
2, 47757, Note_on_c, 0, 72, 0
2, 47760, Note_on_c, 0, 79, 84
2, 47805, Note_on_c, 0, 79, 0
2, 47808, Note_on_c, 0, 80, 84
2, 47856, Note_on_c, 0, 80, 0
2, 47856, Note_on_c, 0, 81, 84
2, 47901, Note_on_c, 0, 81, 0
2, 47904, Note_on_c, 0, 77, 85
2, 47949, Note_on_c, 0, 77, 0
2, 47952, Note_on_c, 0, 83, 85
2, 47997, Note_on_c, 0, 83, 0
2, 48000, Note_on_c, 0, 76, 86
2, 48045, Note_on_c, 0, 76, 0
2, 48048, Note_on_c, 0, 84, 86
2, 48068, Note_on_c, 0, 84, 0
2, 48096, Note_on_c, 0, 72, 86
2, 48141, Note_on_c, 0, 72, 0
2, 48144, Note_on_c, 0, 73, 86
2, 48189, Note_on_c, 0, 73, 0
2, 48240, Note_on_c, 0, 78, 86
2, 48285, Note_on_c, 0, 78, 0
2, 48288, Note_on_c, 0, 79, 86
2, 48300, Note_on_c, 0, 79, 0
2, 48300, Note_on_c, 0, 77, 86
2, 48312, Note_on_c, 0, 77, 0
2, 48312, Note_on_c, 0, 79, 86
2, 48333, Note_on_c, 0, 79, 0
2, 48336, Note_on_c, 0, 82, 86
2, 48356, Note_on_c, 0, 82, 0
2, 48384, Note_on_c, 0, 76, 86
2, 48429, Note_on_c, 0, 76, 0
2, 48432, Note_on_c, 0, 79, 86
2, 48477, Note_on_c, 0, 79, 0
2, 48480, Note_on_c, 0, 77, 86
2, 48525, Note_on_c, 0, 77, 0
2, 48528, Note_on_c, 0, 84, 86
2, 48548, Note_on_c, 0, 84, 0
2, 48576, Note_on_c, 0, 74, 86
2, 48709, Note_on_c, 0, 74, 0
2, 48720, Note_on_c, 0, 82, 86
2, 48740, Note_on_c, 0, 82, 0
2, 48768, Note_on_c, 0, 72, 86
2, 48813, Note_on_c, 0, 72, 0
2, 48816, Note_on_c, 0, 75, 86
2, 48861, Note_on_c, 0, 75, 0
2, 48864, Note_on_c, 0, 74, 86
2, 48909, Note_on_c, 0, 74, 0
2, 48912, Note_on_c, 0, 81, 86
2, 48932, Note_on_c, 0, 81, 0
2, 48960, Note_on_c, 0, 70, 86
2, 49005, Note_on_c, 0, 70, 0
2, 49008, Note_on_c, 0, 74, 86
2, 49053, Note_on_c, 0, 74, 0
2, 49056, Note_on_c, 0, 72, 86
2, 49101, Note_on_c, 0, 72, 0
2, 49104, Note_on_c, 0, 79, 86
2, 49124, Note_on_c, 0, 79, 0
2, 49152, Note_on_c, 0, 69, 86
2, 49197, Note_on_c, 0, 69, 0
2, 49200, Note_on_c, 0, 72, 86
2, 49245, Note_on_c, 0, 72, 0
2, 49248, Note_on_c, 0, 71, 86
2, 49293, Note_on_c, 0, 71, 0
2, 49296, Note_on_c, 0, 77, 86
2, 49316, Note_on_c, 0, 77, 0
2, 49344, Note_on_c, 0, 76, 86
2, 49438, Note_on_c, 0, 76, 0
2, 49488, Note_on_c, 0, 72, 78
2, 49508, Note_on_c, 0, 72, 0
2, 49536, Note_on_c, 0, 65, 78
2, 49581, Note_on_c, 0, 65, 0
2, 49584, Note_on_c, 0, 69, 78
2, 49629, Note_on_c, 0, 69, 0
2, 49632, Note_on_c, 0, 60, 78
2, 49677, Note_on_c, 0, 60, 0
2, 49680, Note_on_c, 0, 65, 78
2, 49725, Note_on_c, 0, 65, 0
2, 49728, Note_on_c, 0, 64, 78
2, 49773, Note_on_c, 0, 64, 0
2, 49776, Note_on_c, 0, 65, 78
2, 49821, Note_on_c, 0, 65, 0
2, 49824, Note_on_c, 0, 67, 78
2, 49869, Note_on_c, 0, 67, 0
2, 49872, Note_on_c, 0, 72, 78
2, 49892, Note_on_c, 0, 72, 0
2, 49920, Note_on_c, 0, 67, 78
2, 49965, Note_on_c, 0, 67, 0
2, 49968, Note_on_c, 0, 70, 78
2, 50013, Note_on_c, 0, 70, 0
2, 50016, Note_on_c, 0, 60, 78
2, 50061, Note_on_c, 0, 60, 0
2, 50064, Note_on_c, 0, 64, 78
2, 50084, Note_on_c, 0, 64, 0
2, 50112, Note_on_c, 0, 65, 78
2, 50157, Note_on_c, 0, 65, 0
2, 50160, Note_on_c, 0, 67, 78
2, 50205, Note_on_c, 0, 67, 0
2, 50208, Note_on_c, 0, 69, 78
2, 50253, Note_on_c, 0, 69, 0
2, 50256, Note_on_c, 0, 72, 78
2, 50276, Note_on_c, 0, 72, 0
2, 50304, Note_on_c, 0, 65, 78
2, 50349, Note_on_c, 0, 65, 0
2, 50352, Note_on_c, 0, 72, 78
2, 50372, Note_on_c, 0, 72, 0
2, 50400, Note_on_c, 0, 65, 78
2, 50445, Note_on_c, 0, 65, 0
2, 50448, Note_on_c, 0, 63, 78
2, 50493, Note_on_c, 0, 63, 0
2, 50496, Note_on_c, 0, 63, 78
2, 50519, Note_on_c, 0, 63, 0
2, 50520, Note_on_c, 0, 62, 78
2, 50543, Note_on_c, 0, 62, 0
2, 50544, Note_on_c, 0, 61, 78
2, 50567, Note_on_c, 0, 61, 0
2, 50568, Note_on_c, 0, 62, 78
2, 50591, Note_on_c, 0, 62, 0
2, 50592, Note_on_c, 0, 64, 78
2, 50615, Note_on_c, 0, 64, 0
2, 50616, Note_on_c, 0, 62, 78
2, 50639, Note_on_c, 0, 62, 0
2, 50640, Note_on_c, 0, 66, 78
2, 50663, Note_on_c, 0, 66, 0
2, 50664, Note_on_c, 0, 62, 78
2, 50687, Note_on_c, 0, 62, 0
2, 50688, Note_on_c, 0, 67, 78
2, 50711, Note_on_c, 0, 67, 0
2, 50712, Note_on_c, 0, 62, 79
2, 50735, Note_on_c, 0, 62, 0
2, 50736, Note_on_c, 0, 69, 80
2, 50759, Note_on_c, 0, 69, 0
2, 50760, Note_on_c, 0, 62, 81
2, 50783, Note_on_c, 0, 62, 0
2, 50784, Note_on_c, 0, 70, 82
2, 50807, Note_on_c, 0, 70, 0
2, 50808, Note_on_c, 0, 62, 83
2, 50831, Note_on_c, 0, 62, 0
2, 50832, Note_on_c, 0, 72, 84
2, 50855, Note_on_c, 0, 72, 0
2, 50856, Note_on_c, 0, 62, 86
2, 50879, Note_on_c, 0, 62, 0
2, 50880, Note_on_c, 0, 74, 101
2, 50976, Note_on_c, 0, 74, 0
2, 50976, Note_on_c, 0, 72, 81
2, 50999, Note_on_c, 0, 72, 0
2, 51000, Note_on_c, 0, 70, 80
2, 51023, Note_on_c, 0, 70, 0
2, 51024, Note_on_c, 0, 69, 79
2, 51047, Note_on_c, 0, 69, 0
2, 51048, Note_on_c, 0, 67, 78
2, 51071, Note_on_c, 0, 67, 0
2, 51072, Note_on_c, 0, 65, 78
2, 51205, Note_on_c, 0, 65, 0
2, 51216, Note_on_c, 0, 69, 78
2, 51234, Note_on_c, 0, 69, 0
2, 51234, Note_on_c, 0, 67, 78
2, 51261, Note_on_c, 0, 67, 0
2, 51264, Note_on_c, 0, 65, 78
2, 51353, Note_on_c, 0, 65, 0
2, 51408, Control_c, 0, 64, 127
2, 51408, Note_on_c, 0, 79, 86
2, 51431, Note_on_c, 0, 79, 0
2, 51432, Note_on_c, 0, 76, 86
2, 51455, Note_on_c, 0, 76, 0
2, 51456, Note_on_c, 0, 79, 86
2, 51479, Note_on_c, 0, 79, 0
2, 51480, Note_on_c, 0, 76, 86
2, 51503, Note_on_c, 0, 76, 0
2, 51504, Note_on_c, 0, 82, 86
2, 51527, Note_on_c, 0, 82, 0
2, 51528, Note_on_c, 0, 79, 86
2, 51551, Note_on_c, 0, 79, 0
2, 51552, Note_on_c, 0, 76, 86
2, 51575, Note_on_c, 0, 76, 0
2, 51576, Note_on_c, 0, 72, 86
2, 51599, Note_on_c, 0, 72, 0
2, 51600, Note_on_c, 0, 79, 86
2, 51623, Note_on_c, 0, 79, 0
2, 51624, Note_on_c, 0, 76, 86
2, 51647, Note_on_c, 0, 76, 0
2, 51648, Note_on_c, 0, 79, 86
2, 51671, Note_on_c, 0, 79, 0
2, 51672, Note_on_c, 0, 76, 86
2, 51695, Note_on_c, 0, 76, 0
2, 51696, Note_on_c, 0, 82, 86
2, 51719, Note_on_c, 0, 82, 0
2, 51720, Note_on_c, 0, 79, 86
2, 51743, Note_on_c, 0, 79, 0
2, 51744, Note_on_c, 0, 76, 86
2, 51767, Note_on_c, 0, 76, 0
2, 51768, Note_on_c, 0, 72, 86
2, 51791, Note_on_c, 0, 72, 0
2, 51792, Note_on_c, 0, 79, 86
2, 51815, Note_on_c, 0, 79, 0
2, 51816, Note_on_c, 0, 76, 86
2, 51839, Note_on_c, 0, 76, 0
2, 51840, Note_on_c, 0, 79, 86
2, 51863, Note_on_c, 0, 79, 0
2, 51864, Note_on_c, 0, 76, 86
2, 51887, Note_on_c, 0, 76, 0
2, 51888, Note_on_c, 0, 82, 86
2, 51911, Note_on_c, 0, 82, 0
2, 51912, Note_on_c, 0, 79, 86
2, 51935, Note_on_c, 0, 79, 0
2, 51936, Note_on_c, 0, 76, 86
2, 51959, Note_on_c, 0, 76, 0
2, 51960, Note_on_c, 0, 72, 86
2, 51983, Note_on_c, 0, 72, 0
2, 51984, Note_on_c, 0, 79, 86
2, 52007, Note_on_c, 0, 79, 0
2, 52008, Note_on_c, 0, 76, 86
2, 52031, Note_on_c, 0, 76, 0
2, 52032, Note_on_c, 0, 72, 86
2, 52055, Note_on_c, 0, 72, 0
2, 52056, Note_on_c, 0, 70, 86
2, 52079, Note_on_c, 0, 70, 0
2, 52080, Note_on_c, 0, 76, 86
2, 52103, Note_on_c, 0, 76, 0
2, 52104, Note_on_c, 0, 72, 86
2, 52127, Note_on_c, 0, 72, 0
2, 52128, Note_on_c, 0, 70, 86
2, 52151, Note_on_c, 0, 70, 0
2, 52152, Note_on_c, 0, 67, 86
2, 52175, Note_on_c, 0, 67, 0
2, 52176, Note_on_c, 0, 70, 86
2, 52199, Note_on_c, 0, 70, 0
2, 52200, Control_c, 0, 64, 0
2, 52200, Note_on_c, 0, 67, 86
2, 52223, Note_on_c, 0, 67, 0
2, 52224, Note_on_c, 0, 64, 86
2, 52269, Note_on_c, 0, 64, 0
2, 52368, Note_on_c, 0, 84, 78
2, 52388, Note_on_c, 0, 84, 0
2, 52416, Note_on_c, 0, 77, 78
2, 52436, Note_on_c, 0, 77, 0
2, 52464, Note_on_c, 0, 81, 80
2, 52484, Note_on_c, 0, 81, 0
2, 52512, Note_on_c, 0, 74, 83
2, 52532, Note_on_c, 0, 74, 0
2, 52560, Note_on_c, 0, 86, 86
2, 52580, Note_on_c, 0, 86, 0
2, 52608, Note_on_c, 0, 77, 84
2, 52704, Note_on_c, 0, 77, 0
2, 52704, Note_on_c, 0, 76, 80
2, 52749, Note_on_c, 0, 76, 0
2, 52752, Note_on_c, 0, 84, 78
2, 52772, Note_on_c, 0, 84, 0
2, 52800, Note_on_c, 0, 77, 78
2, 52848, Note_on_c, 0, 77, 0
2, 52848, Note_on_c, 0, 81, 80
2, 52893, Note_on_c, 0, 81, 0
2, 52896, Note_on_c, 0, 74, 83
2, 52944, Note_on_c, 0, 74, 0
2, 52944, Note_on_c, 0, 86, 86
2, 52989, Note_on_c, 0, 86, 0
2, 52992, Note_on_c, 0, 77, 84
2, 53088, Note_on_c, 0, 77, 0
2, 53088, Note_on_c, 0, 76, 80
2, 53133, Note_on_c, 0, 76, 0
2, 53136, Note_on_c, 0, 84, 78
2, 53156, Note_on_c, 0, 84, 0
2, 53184, Note_on_c, 0, 75, 78
2, 53280, Note_on_c, 0, 75, 0
2, 53280, Note_on_c, 0, 74, 78
2, 53325, Note_on_c, 0, 74, 0
2, 53328, Note_on_c, 0, 82, 78
2, 53348, Note_on_c, 0, 82, 0
2, 53376, Note_on_c, 0, 73, 78
2, 53472, Note_on_c, 0, 73, 0
2, 53472, Note_on_c, 0, 72, 78
2, 53517, Note_on_c, 0, 72, 0
2, 53520, Note_on_c, 0, 77, 78
2, 53540, Note_on_c, 0, 77, 0
2, 53568, Note_on_c, 0, 67, 78
2, 53613, Note_on_c, 0, 67, 0
2, 53616, Note_on_c, 0, 74, 82
2, 53616, Note_on_c, 0, 70, 82
2, 53661, Note_on_c, 0, 74, 0
2, 53661, Note_on_c, 0, 70, 0
2, 53664, Note_on_c, 0, 72, 86
2, 53664, Note_on_c, 0, 69, 86
2, 53709, Note_on_c, 0, 72, 0
2, 53709, Note_on_c, 0, 69, 0
2, 53712, Note_on_c, 0, 64, 82
2, 53757, Note_on_c, 0, 64, 0
2, 53760, Note_on_c, 0, 65, 78
2, 53849, Note_on_c, 0, 65, 0
2, 53904, Note_on_c, 0, 84, 78
2, 53924, Note_on_c, 0, 84, 0
2, 53952, Note_on_c, 0, 77, 78
2, 54000, Note_on_c, 0, 77, 0
2, 54000, Note_on_c, 0, 81, 80
2, 54010, Note_on_c, 0, 81, 0
2, 54048, Note_on_c, 0, 74, 83
2, 54096, Note_on_c, 0, 74, 0
2, 54096, Note_on_c, 0, 86, 86
2, 54106, Note_on_c, 0, 86, 0
2, 54144, Note_on_c, 0, 77, 84
2, 54240, Note_on_c, 0, 77, 0
2, 54240, Note_on_c, 0, 76, 80
2, 54285, Note_on_c, 0, 76, 0
2, 54288, Note_on_c, 0, 84, 78
2, 54308, Note_on_c, 0, 84, 0
2, 54336, Note_on_c, 0, 77, 78
2, 54359, Note_on_c, 0, 77, 0
2, 54360, Note_on_c, 0, 79, 80
2, 54383, Note_on_c, 0, 79, 0
2, 54384, Note_on_c, 0, 81, 82
2, 54407, Note_on_c, 0, 81, 0
2, 54408, Note_on_c, 0, 77, 84
2, 54431, Note_on_c, 0, 77, 0
2, 54432, Note_on_c, 0, 74, 86
2, 54477, Note_on_c, 0, 74, 0
2, 54480, Note_on_c, 0, 86, 84
2, 54500, Note_on_c, 0, 86, 0
2, 54528, Note_on_c, 0, 77, 82
2, 54624, Note_on_c, 0, 77, 0
2, 54624, Note_on_c, 0, 76, 79
2, 54669, Note_on_c, 0, 76, 0
2, 54672, Note_on_c, 0, 84, 78
2, 54692, Note_on_c, 0, 84, 0
2, 54720, Note_on_c, 0, 75, 78
2, 54816, Note_on_c, 0, 75, 0
2, 54816, Note_on_c, 0, 74, 78
2, 54861, Note_on_c, 0, 74, 0
2, 54864, Note_on_c, 0, 82, 78
2, 54884, Note_on_c, 0, 82, 0
2, 54912, Note_on_c, 0, 73, 78
2, 55008, Note_on_c, 0, 73, 0
2, 55008, Note_on_c, 0, 72, 78
2, 55053, Note_on_c, 0, 72, 0
2, 55056, Note_on_c, 0, 77, 78
2, 55076, Note_on_c, 0, 77, 0
2, 55104, Note_on_c, 0, 67, 78
2, 55149, Note_on_c, 0, 67, 0
2, 55152, Note_on_c, 0, 74, 82
2, 55152, Note_on_c, 0, 70, 82
2, 55197, Note_on_c, 0, 74, 0
2, 55197, Note_on_c, 0, 70, 0
2, 55200, Note_on_c, 0, 72, 86
2, 55200, Note_on_c, 0, 69, 86
2, 55245, Note_on_c, 0, 72, 0
2, 55245, Note_on_c, 0, 69, 0
2, 55248, Note_on_c, 0, 64, 82
2, 55293, Note_on_c, 0, 64, 0
2, 55296, Note_on_c, 0, 65, 78
2, 55385, Note_on_c, 0, 65, 0
2, 55440, Note_on_c, 0, 62, 78
2, 55440, Note_on_c, 0, 58, 78
2, 55488, Note_on_c, 0, 62, 0
2, 55488, Note_on_c, 0, 58, 0
2, 55488, Note_on_c, 0, 60, 76
2, 55488, Note_on_c, 0, 57, 76
2, 55508, Note_on_c, 0, 60, 0
2, 55508, Note_on_c, 0, 57, 0
2, 55632, Note_on_c, 0, 70, 72
2, 55632, Note_on_c, 0, 64, 72
2, 55680, Note_on_c, 0, 70, 0
2, 55680, Note_on_c, 0, 64, 0
2, 55680, Note_on_c, 0, 69, 71
2, 55680, Note_on_c, 0, 65, 71
2, 55700, Note_on_c, 0, 69, 0
2, 55700, Note_on_c, 0, 65, 0
2, 55824, Note_on_c, 0, 74, 67
2, 55824, Note_on_c, 0, 70, 67
2, 55872, Note_on_c, 0, 74, 0
2, 55872, Note_on_c, 0, 70, 0
2, 55872, Note_on_c, 0, 72, 66
2, 55872, Note_on_c, 0, 69, 66
2, 55892, Note_on_c, 0, 72, 0
2, 55892, Note_on_c, 0, 69, 0
2, 56016, Note_on_c, 0, 82, 62
2, 56016, Note_on_c, 0, 76, 62
2, 56064, Note_on_c, 0, 82, 0
2, 56064, Note_on_c, 0, 76, 0
2, 56064, Note_on_c, 0, 81, 61
2, 56064, Note_on_c, 0, 77, 61
2, 56084, Note_on_c, 0, 81, 0
2, 56084, Note_on_c, 0, 77, 0
2, 56256, End_track
3, 0, Start_track
3, 0, Program_c, 0, 0
3, 0, Control_c, 0, 7, 127
3, 0, Control_c, 0, 10, 64
3, 24144, Note_on_c, 0, 68, 80
3, 24189, Note_on_c, 0, 68, 0
3, 24192, Note_on_c, 0, 69, 81
3, 24281, Note_on_c, 0, 69, 0
3, 24336, Note_on_c, 0, 68, 82
3, 24381, Note_on_c, 0, 68, 0
3, 24384, Note_on_c, 0, 69, 83
3, 24473, Note_on_c, 0, 69, 0
3, 24528, Note_on_c, 0, 68, 84
3, 24573, Note_on_c, 0, 68, 0
3, 24576, Note_on_c, 0, 69, 85
3, 24665, Note_on_c, 0, 69, 0
3, 30144, Note_on_c, 0, 74, 86
3, 30321, Note_on_c, 0, 74, 0
3, 30336, Note_on_c, 0, 72, 86
3, 30513, Note_on_c, 0, 72, 0
3, 30528, Note_on_c, 0, 70, 86
3, 30661, Note_on_c, 0, 70, 0
3, 30720, Note_on_c, 0, 69, 86
3, 30897, Note_on_c, 0, 69, 0
3, 30912, Note_on_c, 0, 67, 86
3, 31089, Note_on_c, 0, 67, 0
3, 31104, Note_on_c, 0, 65, 86
3, 31193, Note_on_c, 0, 65, 0
3, 31200, Note_on_c, 0, 71, 86
3, 31289, Note_on_c, 0, 71, 0
3, 31296, Note_on_c, 0, 72, 86
3, 31385, Note_on_c, 0, 72, 0
3, 42192, Note_on_c, 0, 68, 80
3, 42237, Note_on_c, 0, 68, 0
3, 42240, Note_on_c, 0, 69, 81
3, 42329, Note_on_c, 0, 69, 0
3, 42384, Note_on_c, 0, 68, 82
3, 42429, Note_on_c, 0, 68, 0
3, 42432, Note_on_c, 0, 69, 83
3, 42521, Note_on_c, 0, 69, 0
3, 42576, Note_on_c, 0, 68, 84
3, 42621, Note_on_c, 0, 68, 0
3, 42624, Note_on_c, 0, 69, 85
3, 42713, Note_on_c, 0, 69, 0
3, 48192, Note_on_c, 0, 74, 86
3, 48369, Note_on_c, 0, 74, 0
3, 48384, Note_on_c, 0, 72, 86
3, 48561, Note_on_c, 0, 72, 0
3, 48576, Note_on_c, 0, 70, 86
3, 48709, Note_on_c, 0, 70, 0
3, 48768, Note_on_c, 0, 69, 86
3, 48945, Note_on_c, 0, 69, 0
3, 48960, Note_on_c, 0, 67, 86
3, 49137, Note_on_c, 0, 67, 0
3, 49152, Note_on_c, 0, 65, 86
3, 49241, Note_on_c, 0, 65, 0
3, 49248, Note_on_c, 0, 71, 86
3, 49337, Note_on_c, 0, 71, 0
3, 49344, Note_on_c, 0, 72, 86
3, 49433, Note_on_c, 0, 72, 0
3, 56256, End_track
4, 0, Start_track
4, 0, Program_c, 1, 0
4, 0, Control_c, 1, 7, 127
4, 0, Control_c, 1, 10, 64
4, 192, Note_on_c, 1, 57, 78
4, 192, Note_on_c, 1, 53, 78
4, 281, Note_on_c, 1, 57, 0
4, 281, Note_on_c, 1, 53, 0
4, 288, Note_on_c, 1, 58, 78
4, 288, Note_on_c, 1, 46, 78
4, 377, Note_on_c, 1, 58, 0
4, 377, Note_on_c, 1, 46, 0
4, 384, Note_on_c, 1, 57, 78
4, 384, Note_on_c, 1, 48, 78
4, 480, Note_on_c, 1, 57, 0
4, 480, Note_on_c, 1, 55, 78
4, 525, Note_on_c, 1, 55, 0
4, 525, Note_on_c, 1, 48, 0
4, 672, Note_on_c, 1, 64, 78
4, 672, Note_on_c, 1, 60, 78
4, 761, Note_on_c, 1, 64, 0
4, 761, Note_on_c, 1, 60, 0
4, 768, Note_on_c, 1, 65, 78
4, 813, Note_on_c, 1, 65, 0
4, 816, Note_on_c, 1, 53, 78
4, 861, Note_on_c, 1, 53, 0
4, 1056, Note_on_c, 1, 57, 78
4, 1145, Note_on_c, 1, 57, 0
4, 1152, Note_on_c, 1, 58, 78
4, 1197, Note_on_c, 1, 58, 0
4, 1200, Note_on_c, 1, 46, 78
4, 1245, Note_on_c, 1, 46, 0
4, 1296, Note_on_c, 1, 62, 78
4, 1296, Note_on_c, 1, 58, 78
4, 1341, Note_on_c, 1, 62, 0
4, 1341, Note_on_c, 1, 58, 0
4, 1344, Note_on_c, 1, 60, 78
4, 1344, Note_on_c, 1, 57, 78
4, 1389, Note_on_c, 1, 60, 0
4, 1389, Note_on_c, 1, 57, 0
4, 1392, Note_on_c, 1, 58, 78
4, 1392, Note_on_c, 1, 55, 78
4, 1437, Note_on_c, 1, 58, 0
4, 1437, Note_on_c, 1, 55, 0
4, 1440, Note_on_c, 1, 60, 78
4, 1485, Note_on_c, 1, 60, 0
4, 1488, Note_on_c, 1, 48, 78
4, 1533, Note_on_c, 1, 48, 0
4, 1536, Note_on_c, 1, 53, 78
4, 1581, Note_on_c, 1, 53, 0
4, 1584, Note_on_c, 1, 41, 78
4, 1629, Note_on_c, 1, 41, 0
4, 1872, Note_on_c, 1, 72, 78
4, 1872, Note_on_c, 1, 69, 78
4, 1917, Note_on_c, 1, 72, 0
4, 1917, Note_on_c, 1, 69, 0
4, 1920, Note_on_c, 1, 70, 78
4, 1920, Note_on_c, 1, 67, 78
4, 1965, Note_on_c, 1, 70, 0
4, 1965, Note_on_c, 1, 67, 0
4, 1968, Note_on_c, 1, 69, 78
4, 1968, Note_on_c, 1, 65, 78
4, 2013, Note_on_c, 1, 69, 0
4, 2013, Note_on_c, 1, 65, 0
4, 2016, Note_on_c, 1, 67, 78
4, 2016, Note_on_c, 1, 64, 78
4, 2061, Note_on_c, 1, 67, 0
4, 2061, Note_on_c, 1, 64, 0
4, 2256, Note_on_c, 1, 72, 78
4, 2256, Note_on_c, 1, 70, 78
4, 2301, Note_on_c, 1, 72, 0
4, 2301, Note_on_c, 1, 70, 0
4, 2304, Note_on_c, 1, 72, 78
4, 2304, Note_on_c, 1, 69, 78
4, 2349, Note_on_c, 1, 72, 0
4, 2349, Note_on_c, 1, 69, 0
4, 2352, Note_on_c, 1, 70, 78
4, 2352, Note_on_c, 1, 67, 78
4, 2397, Note_on_c, 1, 70, 0
4, 2397, Note_on_c, 1, 67, 0
4, 2400, Note_on_c, 1, 69, 78
4, 2400, Note_on_c, 1, 65, 78
4, 2445, Note_on_c, 1, 69, 0
4, 2445, Note_on_c, 1, 65, 0
4, 2544, Note_on_c, 1, 69, 78
4, 2544, Note_on_c, 1, 65, 78
4, 2589, Note_on_c, 1, 69, 0
4, 2589, Note_on_c, 1, 65, 0
4, 2592, Note_on_c, 1, 70, 78
4, 2592, Note_on_c, 1, 67, 78
4, 2637, Note_on_c, 1, 70, 0
4, 2637, Note_on_c, 1, 67, 0
4, 2640, Note_on_c, 1, 72, 78
4, 2640, Note_on_c, 1, 69, 78
4, 2685, Note_on_c, 1, 72, 0
4, 2685, Note_on_c, 1, 69, 0
4, 2688, Note_on_c, 1, 70, 78
4, 2777, Note_on_c, 1, 70, 0
4, 3024, Note_on_c, 1, 58, 78
4, 3069, Note_on_c, 1, 58, 0
4, 3072, Note_on_c, 1, 60, 78
4, 3117, Note_on_c, 1, 60, 0
4, 3120, Note_on_c, 1, 48, 78
4, 3165, Note_on_c, 1, 48, 0
4, 3312, Note_on_c, 1, 64, 78
4, 3357, Note_on_c, 1, 64, 0
4, 3360, Note_on_c, 1, 62, 78
4, 3405, Note_on_c, 1, 62, 0
4, 3408, Note_on_c, 1, 55, 78
4, 3453, Note_on_c, 1, 55, 0
4, 3456, Note_on_c, 1, 60, 78
4, 3501, Note_on_c, 1, 60, 0
4, 3504, Note_on_c, 1, 54, 78
4, 3549, Note_on_c, 1, 54, 0
4, 3552, Note_on_c, 1, 55, 78
4, 3597, Note_on_c, 1, 55, 0
4, 3696, Note_on_c, 1, 63, 69
4, 3741, Note_on_c, 1, 63, 0
4, 3744, Note_on_c, 1, 62, 69
4, 3789, Note_on_c, 1, 62, 0
4, 3792, Note_on_c, 1, 55, 69
4, 3837, Note_on_c, 1, 55, 0
4, 3840, Note_on_c, 1, 60, 69
4, 3885, Note_on_c, 1, 60, 0
4, 3888, Note_on_c, 1, 54, 69
4, 3933, Note_on_c, 1, 54, 0
4, 3936, Note_on_c, 1, 55, 69
4, 3981, Note_on_c, 1, 55, 0
4, 4080, Note_on_c, 1, 64, 78
4, 4080, Note_on_c, 1, 60, 78
4, 4125, Note_on_c, 1, 64, 0
4, 4125, Note_on_c, 1, 60, 0
4, 4128, Note_on_c, 1, 65, 78
4, 4128, Note_on_c, 1, 62, 78
4, 4173, Note_on_c, 1, 65, 0
4, 4173, Note_on_c, 1, 62, 0
4, 4176, Note_on_c, 1, 67, 78
4, 4176, Note_on_c, 1, 64, 78
4, 4221, Note_on_c, 1, 67, 0
4, 4221, Note_on_c, 1, 64, 0
4, 4224, Note_on_c, 1, 65, 78
4, 4357, Note_on_c, 1, 65, 0
4, 4368, Note_on_c, 1, 64, 78
4, 4413, Note_on_c, 1, 64, 0
4, 4416, Note_on_c, 1, 65, 78
4, 4461, Note_on_c, 1, 65, 0
4, 4464, Note_on_c, 1, 61, 80
4, 4509, Note_on_c, 1, 61, 0
4, 4512, Note_on_c, 1, 62, 83
4, 4557, Note_on_c, 1, 62, 0
4, 4560, Note_on_c, 1, 64, 86
4, 4605, Note_on_c, 1, 64, 0
4, 4608, Note_on_c, 1, 65, 84
4, 4697, Note_on_c, 1, 65, 0
4, 5040, Note_on_c, 1, 69, 78
4, 5040, Note_on_c, 1, 66, 78
4, 5085, Note_on_c, 1, 69, 0
4, 5085, Note_on_c, 1, 66, 0
4, 5088, Note_on_c, 1, 67, 78
4, 5133, Note_on_c, 1, 67, 0
4, 5136, Note_on_c, 1, 55, 78
4, 5181, Note_on_c, 1, 55, 0
4, 5184, Note_on_c, 1, 60, 78
4, 5229, Note_on_c, 1, 60, 0
4, 5232, Note_on_c, 1, 48, 78
4, 5277, Note_on_c, 1, 48, 0
4, 5376, Note_on_c, 1, 65, 86
4, 5376, Note_on_c, 1, 62, 86
4, 5376, Note_on_c, 1, 59, 86
4, 5376, Note_on_c, 1, 55, 86
4, 5465, Note_on_c, 1, 65, 0
4, 5465, Note_on_c, 1, 62, 0
4, 5465, Note_on_c, 1, 59, 0
4, 5465, Note_on_c, 1, 55, 0
4, 5568, Note_on_c, 1, 65, 86
4, 5568, Note_on_c, 1, 62, 86
4, 5568, Note_on_c, 1, 59, 86
4, 5568, Note_on_c, 1, 55, 86
4, 5657, Note_on_c, 1, 65, 0
4, 5657, Note_on_c, 1, 62, 0
4, 5657, Note_on_c, 1, 59, 0
4, 5657, Note_on_c, 1, 55, 0
4, 5760, Note_on_c, 1, 65, 86
4, 5760, Note_on_c, 1, 62, 86
4, 5760, Note_on_c, 1, 59, 86
4, 5760, Note_on_c, 1, 55, 86
4, 5849, Note_on_c, 1, 65, 0
4, 5849, Note_on_c, 1, 62, 0
4, 5849, Note_on_c, 1, 59, 0
4, 5849, Note_on_c, 1, 55, 0
4, 6336, Note_on_c, 1, 57, 78
4, 6356, Note_on_c, 1, 57, 0
4, 6384, Note_on_c, 1, 60, 78
4, 6404, Note_on_c, 1, 60, 0
4, 6432, Note_on_c, 1, 53, 78
4, 6452, Note_on_c, 1, 53, 0
4, 6480, Note_on_c, 1, 65, 78
4, 6500, Note_on_c, 1, 65, 0
4, 6528, Note_on_c, 1, 64, 78
4, 6624, Note_on_c, 1, 64, 0
4, 6624, Note_on_c, 1, 62, 78
4, 6713, Note_on_c, 1, 62, 0
4, 6720, Note_on_c, 1, 57, 78
4, 6768, Note_on_c, 1, 57, 0
4, 6768, Note_on_c, 1, 60, 78
4, 6813, Note_on_c, 1, 60, 0
4, 6816, Note_on_c, 1, 53, 78
4, 6864, Note_on_c, 1, 53, 0
4, 6864, Note_on_c, 1, 65, 78
4, 6909, Note_on_c, 1, 65, 0
4, 6912, Note_on_c, 1, 64, 78
4, 7008, Note_on_c, 1, 64, 0
4, 7008, Note_on_c, 1, 62, 78
4, 7097, Note_on_c, 1, 62, 0
4, 7104, Note_on_c, 1, 61, 78
4, 7200, Note_on_c, 1, 61, 0
4, 7200, Note_on_c, 1, 62, 78
4, 7289, Note_on_c, 1, 62, 0
4, 7296, Note_on_c, 1, 65, 78
4, 7392, Note_on_c, 1, 65, 0
4, 7392, Note_on_c, 1, 64, 78
4, 7481, Note_on_c, 1, 64, 0
4, 7488, Note_on_c, 1, 53, 78
4, 7488, Note_on_c, 1, 41, 78
4, 7577, Note_on_c, 1, 53, 0
4, 7577, Note_on_c, 1, 41, 0
4, 7584, Note_on_c, 1, 55, 78
4, 7584, Note_on_c, 1, 43, 78
4, 7673, Note_on_c, 1, 55, 0
4, 7673, Note_on_c, 1, 43, 0
4, 7680, Note_on_c, 1, 48, 78
4, 7680, Note_on_c, 1, 36, 78
4, 7769, Note_on_c, 1, 48, 0
4, 7769, Note_on_c, 1, 36, 0
4, 7872, Note_on_c, 1, 57, 78
4, 7920, Note_on_c, 1, 57, 0
4, 7920, Note_on_c, 1, 60, 78
4, 7930, Note_on_c, 1, 60, 0
4, 7968, Note_on_c, 1, 53, 78
4, 8016, Note_on_c, 1, 53, 0
4, 8016, Note_on_c, 1, 65, 78
4, 8026, Note_on_c, 1, 65, 0
4, 8064, Note_on_c, 1, 64, 78
4, 8160, Note_on_c, 1, 64, 0
4, 8160, Note_on_c, 1, 62, 78
4, 8205, Note_on_c, 1, 62, 0
4, 8256, Note_on_c, 1, 57, 78
4, 8279, Note_on_c, 1, 57, 0
4, 8280, Note_on_c, 1, 59, 78
4, 8303, Note_on_c, 1, 59, 0
4, 8304, Note_on_c, 1, 60, 78
4, 8327, Note_on_c, 1, 60, 0
4, 8328, Note_on_c, 1, 57, 78
4, 8351, Note_on_c, 1, 57, 0
4, 8352, Note_on_c, 1, 53, 78
4, 8397, Note_on_c, 1, 53, 0
4, 8400, Note_on_c, 1, 65, 78
4, 8420, Note_on_c, 1, 65, 0
4, 8448, Note_on_c, 1, 64, 78
4, 8544, Note_on_c, 1, 64, 0
4, 8544, Note_on_c, 1, 62, 78
4, 8589, Note_on_c, 1, 62, 0
4, 8592, Note_on_c, 1, 64, 78
4, 8615, Note_on_c, 1, 64, 0
4, 8616, Note_on_c, 1, 65, 78
4, 8639, Note_on_c, 1, 65, 0
4, 8640, Note_on_c, 1, 67, 78
4, 8736, Note_on_c, 1, 67, 0
4, 8736, Note_on_c, 1, 65, 78
4, 8825, Note_on_c, 1, 65, 0
4, 8832, Note_on_c, 1, 65, 78
4, 8928, Note_on_c, 1, 65, 0
4, 8928, Note_on_c, 1, 64, 78
4, 9017, Note_on_c, 1, 64, 0
4, 9024, Note_on_c, 1, 53, 78
4, 9113, Note_on_c, 1, 53, 0
4, 9120, Note_on_c, 1, 55, 78
4, 9120, Note_on_c, 1, 43, 78
4, 9209, Note_on_c, 1, 55, 0
4, 9209, Note_on_c, 1, 43, 0
4, 9264, Note_on_c, 1, 36, 78
4, 9309, Note_on_c, 1, 36, 0
4, 9312, Note_on_c, 1, 48, 78
4, 9357, Note_on_c, 1, 48, 0
4, 9456, Note_on_c, 1, 36, 78
4, 9501, Note_on_c, 1, 36, 0
4, 9504, Note_on_c, 1, 48, 78
4, 9549, Note_on_c, 1, 48, 0
4, 9648, Note_on_c, 1, 36, 78
4, 9693, Note_on_c, 1, 36, 0
4, 9696, Note_on_c, 1, 48, 78
4, 9741, Note_on_c, 1, 48, 0
4, 9840, Note_on_c, 1, 36, 78
4, 9885, Note_on_c, 1, 36, 0
4, 9888, Note_on_c, 1, 48, 78
4, 9933, Note_on_c, 1, 48, 0
4, 10176, Note_on_c, 1, 57, 78
4, 10176, Note_on_c, 1, 53, 78
4, 10265, Note_on_c, 1, 57, 0
4, 10265, Note_on_c, 1, 53, 0
4, 10272, Note_on_c, 1, 58, 78
4, 10272, Note_on_c, 1, 46, 78
4, 10361, Note_on_c, 1, 58, 0
4, 10361, Note_on_c, 1, 46, 0
4, 10368, Note_on_c, 1, 57, 78
4, 10368, Note_on_c, 1, 48, 78
4, 10464, Note_on_c, 1, 57, 0
4, 10464, Note_on_c, 1, 55, 78
4, 10509, Note_on_c, 1, 55, 0
4, 10509, Note_on_c, 1, 48, 0
4, 10656, Note_on_c, 1, 64, 78
4, 10656, Note_on_c, 1, 60, 78
4, 10745, Note_on_c, 1, 64, 0
4, 10745, Note_on_c, 1, 60, 0
4, 10752, Note_on_c, 1, 65, 78
4, 10797, Note_on_c, 1, 65, 0
4, 10800, Note_on_c, 1, 53, 78
4, 10845, Note_on_c, 1, 53, 0
4, 11040, Note_on_c, 1, 57, 78
4, 11129, Note_on_c, 1, 57, 0
4, 11136, Note_on_c, 1, 58, 78
4, 11181, Note_on_c, 1, 58, 0
4, 11184, Note_on_c, 1, 46, 78
4, 11229, Note_on_c, 1, 46, 0
4, 11280, Note_on_c, 1, 62, 78
4, 11280, Note_on_c, 1, 58, 78
4, 11325, Note_on_c, 1, 62, 0
4, 11325, Note_on_c, 1, 58, 0
4, 11328, Note_on_c, 1, 60, 78
4, 11328, Note_on_c, 1, 57, 78
4, 11373, Note_on_c, 1, 60, 0
4, 11373, Note_on_c, 1, 57, 0
4, 11376, Note_on_c, 1, 58, 78
4, 11376, Note_on_c, 1, 55, 78
4, 11421, Note_on_c, 1, 58, 0
4, 11421, Note_on_c, 1, 55, 0
4, 11424, Note_on_c, 1, 60, 78
4, 11469, Note_on_c, 1, 60, 0
4, 11472, Note_on_c, 1, 48, 78
4, 11517, Note_on_c, 1, 48, 0
4, 11520, Note_on_c, 1, 53, 78
4, 11565, Note_on_c, 1, 53, 0
4, 11568, Note_on_c, 1, 41, 78
4, 11613, Note_on_c, 1, 41, 0
4, 11856, Note_on_c, 1, 72, 78
4, 11856, Note_on_c, 1, 69, 78
4, 11901, Note_on_c, 1, 72, 0
4, 11901, Note_on_c, 1, 69, 0
4, 11904, Note_on_c, 1, 70, 78
4, 11904, Note_on_c, 1, 67, 78
4, 11949, Note_on_c, 1, 70, 0
4, 11949, Note_on_c, 1, 67, 0
4, 11952, Note_on_c, 1, 69, 78
4, 11952, Note_on_c, 1, 65, 78
4, 11997, Note_on_c, 1, 69, 0
4, 11997, Note_on_c, 1, 65, 0
4, 12000, Note_on_c, 1, 67, 78
4, 12000, Note_on_c, 1, 64, 78
4, 12045, Note_on_c, 1, 67, 0
4, 12045, Note_on_c, 1, 64, 0
4, 12240, Note_on_c, 1, 72, 78
4, 12240, Note_on_c, 1, 70, 78
4, 12285, Note_on_c, 1, 72, 0
4, 12285, Note_on_c, 1, 70, 0
4, 12288, Note_on_c, 1, 72, 78
4, 12288, Note_on_c, 1, 69, 78
4, 12333, Note_on_c, 1, 72, 0
4, 12333, Note_on_c, 1, 69, 0
4, 12336, Note_on_c, 1, 70, 78
4, 12336, Note_on_c, 1, 67, 78
4, 12381, Note_on_c, 1, 70, 0
4, 12381, Note_on_c, 1, 67, 0
4, 12384, Note_on_c, 1, 69, 78
4, 12384, Note_on_c, 1, 65, 78
4, 12429, Note_on_c, 1, 69, 0
4, 12429, Note_on_c, 1, 65, 0
4, 12528, Note_on_c, 1, 69, 78
4, 12528, Note_on_c, 1, 65, 78
4, 12573, Note_on_c, 1, 69, 0
4, 12573, Note_on_c, 1, 65, 0
4, 12576, Note_on_c, 1, 70, 78
4, 12576, Note_on_c, 1, 67, 78
4, 12621, Note_on_c, 1, 70, 0
4, 12621, Note_on_c, 1, 67, 0
4, 12624, Note_on_c, 1, 72, 78
4, 12624, Note_on_c, 1, 69, 78
4, 12669, Note_on_c, 1, 72, 0
4, 12669, Note_on_c, 1, 69, 0
4, 12672, Note_on_c, 1, 70, 78
4, 12761, Note_on_c, 1, 70, 0
4, 13008, Note_on_c, 1, 58, 78
4, 13053, Note_on_c, 1, 58, 0
4, 13056, Note_on_c, 1, 60, 78
4, 13101, Note_on_c, 1, 60, 0
4, 13104, Note_on_c, 1, 48, 78
4, 13149, Note_on_c, 1, 48, 0
4, 13296, Note_on_c, 1, 64, 78
4, 13341, Note_on_c, 1, 64, 0
4, 13344, Note_on_c, 1, 62, 78
4, 13389, Note_on_c, 1, 62, 0
4, 13392, Note_on_c, 1, 55, 78
4, 13437, Note_on_c, 1, 55, 0
4, 13440, Note_on_c, 1, 60, 78
4, 13485, Note_on_c, 1, 60, 0
4, 13488, Note_on_c, 1, 54, 78
4, 13533, Note_on_c, 1, 54, 0
4, 13536, Note_on_c, 1, 55, 78
4, 13581, Note_on_c, 1, 55, 0
4, 13680, Note_on_c, 1, 63, 69
4, 13725, Note_on_c, 1, 63, 0
4, 13728, Note_on_c, 1, 62, 69
4, 13773, Note_on_c, 1, 62, 0
4, 13776, Note_on_c, 1, 55, 69
4, 13821, Note_on_c, 1, 55, 0
4, 13824, Note_on_c, 1, 60, 69
4, 13869, Note_on_c, 1, 60, 0
4, 13872, Note_on_c, 1, 54, 69
4, 13917, Note_on_c, 1, 54, 0
4, 13920, Note_on_c, 1, 55, 69
4, 13965, Note_on_c, 1, 55, 0
4, 14064, Note_on_c, 1, 64, 78
4, 14064, Note_on_c, 1, 60, 78
4, 14109, Note_on_c, 1, 64, 0
4, 14109, Note_on_c, 1, 60, 0
4, 14112, Note_on_c, 1, 65, 78
4, 14112, Note_on_c, 1, 62, 78
4, 14157, Note_on_c, 1, 65, 0
4, 14157, Note_on_c, 1, 62, 0
4, 14160, Note_on_c, 1, 67, 78
4, 14160, Note_on_c, 1, 64, 78
4, 14205, Note_on_c, 1, 67, 0
4, 14205, Note_on_c, 1, 64, 0
4, 14208, Note_on_c, 1, 65, 78
4, 14341, Note_on_c, 1, 65, 0
4, 14352, Note_on_c, 1, 64, 78
4, 14397, Note_on_c, 1, 64, 0
4, 14400, Note_on_c, 1, 65, 78
4, 14445, Note_on_c, 1, 65, 0
4, 14448, Note_on_c, 1, 61, 80
4, 14493, Note_on_c, 1, 61, 0
4, 14496, Note_on_c, 1, 62, 83
4, 14541, Note_on_c, 1, 62, 0
4, 14544, Note_on_c, 1, 64, 86
4, 14589, Note_on_c, 1, 64, 0
4, 14592, Note_on_c, 1, 65, 84
4, 14681, Note_on_c, 1, 65, 0
4, 15024, Note_on_c, 1, 69, 78
4, 15024, Note_on_c, 1, 66, 78
4, 15069, Note_on_c, 1, 69, 0
4, 15069, Note_on_c, 1, 66, 0
4, 15072, Note_on_c, 1, 67, 78
4, 15117, Note_on_c, 1, 67, 0
4, 15120, Note_on_c, 1, 55, 78
4, 15165, Note_on_c, 1, 55, 0
4, 15168, Note_on_c, 1, 60, 78
4, 15213, Note_on_c, 1, 60, 0
4, 15216, Note_on_c, 1, 48, 78
4, 15261, Note_on_c, 1, 48, 0
4, 15360, Note_on_c, 1, 65, 86
4, 15360, Note_on_c, 1, 62, 86
4, 15360, Note_on_c, 1, 59, 86
4, 15360, Note_on_c, 1, 55, 86
4, 15449, Note_on_c, 1, 65, 0
4, 15449, Note_on_c, 1, 62, 0
4, 15449, Note_on_c, 1, 59, 0
4, 15449, Note_on_c, 1, 55, 0
4, 15552, Note_on_c, 1, 65, 86
4, 15552, Note_on_c, 1, 62, 86
4, 15552, Note_on_c, 1, 59, 86
4, 15552, Note_on_c, 1, 55, 86
4, 15641, Note_on_c, 1, 65, 0
4, 15641, Note_on_c, 1, 62, 0
4, 15641, Note_on_c, 1, 59, 0
4, 15641, Note_on_c, 1, 55, 0
4, 15744, Note_on_c, 1, 65, 86
4, 15744, Note_on_c, 1, 62, 86
4, 15744, Note_on_c, 1, 59, 86
4, 15744, Note_on_c, 1, 55, 86
4, 15833, Note_on_c, 1, 65, 0
4, 15833, Note_on_c, 1, 62, 0
4, 15833, Note_on_c, 1, 59, 0
4, 15833, Note_on_c, 1, 55, 0
4, 16320, Note_on_c, 1, 57, 78
4, 16340, Note_on_c, 1, 57, 0
4, 16368, Note_on_c, 1, 60, 78
4, 16388, Note_on_c, 1, 60, 0
4, 16416, Note_on_c, 1, 53, 78
4, 16436, Note_on_c, 1, 53, 0
4, 16464, Note_on_c, 1, 65, 78
4, 16484, Note_on_c, 1, 65, 0
4, 16512, Note_on_c, 1, 64, 78
4, 16608, Note_on_c, 1, 64, 0
4, 16608, Note_on_c, 1, 62, 78
4, 16697, Note_on_c, 1, 62, 0
4, 16704, Note_on_c, 1, 57, 78
4, 16752, Note_on_c, 1, 57, 0
4, 16752, Note_on_c, 1, 60, 78
4, 16797, Note_on_c, 1, 60, 0
4, 16800, Note_on_c, 1, 53, 78
4, 16848, Note_on_c, 1, 53, 0
4, 16848, Note_on_c, 1, 65, 78
4, 16893, Note_on_c, 1, 65, 0
4, 16896, Note_on_c, 1, 64, 78
4, 16992, Note_on_c, 1, 64, 0
4, 16992, Note_on_c, 1, 62, 78
4, 17081, Note_on_c, 1, 62, 0
4, 17088, Note_on_c, 1, 61, 78
4, 17184, Note_on_c, 1, 61, 0
4, 17184, Note_on_c, 1, 62, 78
4, 17273, Note_on_c, 1, 62, 0
4, 17280, Note_on_c, 1, 65, 78
4, 17376, Note_on_c, 1, 65, 0
4, 17376, Note_on_c, 1, 64, 78
4, 17465, Note_on_c, 1, 64, 0
4, 17472, Note_on_c, 1, 53, 78
4, 17472, Note_on_c, 1, 41, 78
4, 17561, Note_on_c, 1, 53, 0
4, 17561, Note_on_c, 1, 41, 0
4, 17568, Note_on_c, 1, 55, 78
4, 17568, Note_on_c, 1, 43, 78
4, 17657, Note_on_c, 1, 55, 0
4, 17657, Note_on_c, 1, 43, 0
4, 17664, Note_on_c, 1, 48, 78
4, 17664, Note_on_c, 1, 36, 78
4, 17753, Note_on_c, 1, 48, 0
4, 17753, Note_on_c, 1, 36, 0
4, 17856, Note_on_c, 1, 57, 78
4, 17904, Note_on_c, 1, 57, 0
4, 17904, Note_on_c, 1, 60, 78
4, 17914, Note_on_c, 1, 60, 0
4, 17952, Note_on_c, 1, 53, 78
4, 18000, Note_on_c, 1, 53, 0
4, 18000, Note_on_c, 1, 65, 78
4, 18010, Note_on_c, 1, 65, 0
4, 18048, Note_on_c, 1, 64, 78
4, 18144, Note_on_c, 1, 64, 0
4, 18144, Note_on_c, 1, 62, 78
4, 18189, Note_on_c, 1, 62, 0
4, 18240, Note_on_c, 1, 57, 78
4, 18263, Note_on_c, 1, 57, 0
4, 18264, Note_on_c, 1, 59, 78
4, 18287, Note_on_c, 1, 59, 0
4, 18288, Note_on_c, 1, 60, 78
4, 18311, Note_on_c, 1, 60, 0
4, 18312, Note_on_c, 1, 57, 78
4, 18335, Note_on_c, 1, 57, 0
4, 18336, Note_on_c, 1, 53, 78
4, 18381, Note_on_c, 1, 53, 0
4, 18384, Note_on_c, 1, 65, 78
4, 18404, Note_on_c, 1, 65, 0
4, 18432, Note_on_c, 1, 64, 78
4, 18528, Note_on_c, 1, 64, 0
4, 18528, Note_on_c, 1, 62, 78
4, 18573, Note_on_c, 1, 62, 0
4, 18576, Note_on_c, 1, 64, 78
4, 18599, Note_on_c, 1, 64, 0
4, 18600, Note_on_c, 1, 65, 78
4, 18623, Note_on_c, 1, 65, 0
4, 18624, Note_on_c, 1, 67, 78
4, 18720, Note_on_c, 1, 67, 0
4, 18720, Note_on_c, 1, 65, 78
4, 18809, Note_on_c, 1, 65, 0
4, 18816, Note_on_c, 1, 65, 78
4, 18912, Note_on_c, 1, 65, 0
4, 18912, Note_on_c, 1, 64, 78
4, 19001, Note_on_c, 1, 64, 0
4, 19008, Note_on_c, 1, 53, 78
4, 19097, Note_on_c, 1, 53, 0
4, 19104, Note_on_c, 1, 55, 78
4, 19104, Note_on_c, 1, 43, 78
4, 19193, Note_on_c, 1, 55, 0
4, 19193, Note_on_c, 1, 43, 0
4, 19248, Note_on_c, 1, 36, 78
4, 19293, Note_on_c, 1, 36, 0
4, 19296, Note_on_c, 1, 48, 78
4, 19341, Note_on_c, 1, 48, 0
4, 19440, Note_on_c, 1, 36, 78
4, 19485, Note_on_c, 1, 36, 0
4, 19488, Note_on_c, 1, 48, 78
4, 19533, Note_on_c, 1, 48, 0
4, 19632, Note_on_c, 1, 36, 78
4, 19677, Note_on_c, 1, 36, 0
4, 19680, Note_on_c, 1, 48, 78
4, 19725, Note_on_c, 1, 48, 0
4, 19824, Note_on_c, 1, 36, 78
4, 19869, Note_on_c, 1, 36, 0
4, 19872, Note_on_c, 1, 48, 78
4, 19917, Note_on_c, 1, 48, 0
4, 20160, Note_on_c, 1, 60, 86
4, 20160, Note_on_c, 1, 57, 86
4, 20160, Note_on_c, 1, 54, 86
4, 20249, Note_on_c, 1, 60, 0
4, 20249, Note_on_c, 1, 57, 0
4, 20249, Note_on_c, 1, 54, 0
4, 20592, Note_on_c, 1, 72, 86
4, 20592, Note_on_c, 1, 69, 86
4, 20592, Note_on_c, 1, 66, 86
4, 20637, Note_on_c, 1, 72, 0
4, 20637, Note_on_c, 1, 69, 0
4, 20637, Note_on_c, 1, 66, 0
4, 20640, Note_on_c, 1, 72, 86
4, 20640, Note_on_c, 1, 69, 86
4, 20640, Note_on_c, 1, 66, 86
4, 20685, Note_on_c, 1, 72, 0
4, 20685, Note_on_c, 1, 69, 0
4, 20685, Note_on_c, 1, 66, 0
4, 20784, Note_on_c, 1, 72, 86
4, 20784, Note_on_c, 1, 69, 86
4, 20784, Note_on_c, 1, 66, 86
4, 20829, Note_on_c, 1, 72, 0
4, 20829, Note_on_c, 1, 69, 0
4, 20829, Note_on_c, 1, 66, 0
4, 20832, Note_on_c, 1, 72, 86
4, 20832, Note_on_c, 1, 69, 86
4, 20832, Note_on_c, 1, 66, 86
4, 20877, Note_on_c, 1, 72, 0
4, 20877, Note_on_c, 1, 69, 0
4, 20877, Note_on_c, 1, 66, 0
4, 20976, Note_on_c, 1, 72, 86
4, 20976, Note_on_c, 1, 69, 86
4, 20976, Note_on_c, 1, 66, 86
4, 21021, Note_on_c, 1, 72, 0
4, 21021, Note_on_c, 1, 69, 0
4, 21021, Note_on_c, 1, 66, 0
4, 21024, Note_on_c, 1, 72, 86
4, 21024, Note_on_c, 1, 69, 86
4, 21024, Note_on_c, 1, 66, 86
4, 21069, Note_on_c, 1, 72, 0
4, 21069, Note_on_c, 1, 69, 0
4, 21069, Note_on_c, 1, 66, 0
4, 21312, Note_on_c, 1, 58, 78
4, 21312, Note_on_c, 1, 55, 78
4, 21401, Note_on_c, 1, 58, 0
4, 21401, Note_on_c, 1, 55, 0
4, 21408, Note_on_c, 1, 60, 78
4, 21408, Note_on_c, 1, 48, 78
4, 21497, Note_on_c, 1, 60, 0
4, 21497, Note_on_c, 1, 48, 0
4, 21504, Note_on_c, 1, 58, 78
4, 21504, Note_on_c, 1, 50, 78
4, 21600, Note_on_c, 1, 58, 0
4, 21600, Note_on_c, 1, 57, 78
4, 21645, Note_on_c, 1, 57, 0
4, 21645, Note_on_c, 1, 50, 0
4, 21792, Note_on_c, 1, 66, 78
4, 21881, Note_on_c, 1, 66, 0
4, 21888, Note_on_c, 1, 67, 78
4, 21933, Note_on_c, 1, 67, 0
4, 21936, Note_on_c, 1, 55, 78
4, 21981, Note_on_c, 1, 55, 0
4, 22032, Note_on_c, 1, 58, 78
4, 22052, Note_on_c, 1, 58, 0
4, 22080, Note_on_c, 1, 55, 80
4, 22128, Note_on_c, 1, 55, 0
4, 22128, Note_on_c, 1, 58, 83
4, 22173, Note_on_c, 1, 58, 0
4, 22176, Note_on_c, 1, 51, 86
4, 22224, Note_on_c, 1, 51, 0
4, 22224, Note_on_c, 1, 63, 84
4, 22244, Note_on_c, 1, 63, 0
4, 22272, Note_on_c, 1, 63, 82
4, 22368, Note_on_c, 1, 63, 0
4, 22368, Note_on_c, 1, 62, 78
4, 22413, Note_on_c, 1, 62, 0
4, 22416, Note_on_c, 1, 65, 78
4, 22436, Note_on_c, 1, 65, 0
4, 22464, Note_on_c, 1, 62, 80
4, 22512, Note_on_c, 1, 62, 0
4, 22512, Note_on_c, 1, 65, 83
4, 22557, Note_on_c, 1, 65, 0
4, 22560, Note_on_c, 1, 58, 86
4, 22608, Note_on_c, 1, 58, 0
4, 22608, Note_on_c, 1, 68, 84
4, 22628, Note_on_c, 1, 68, 0
4, 22656, Note_on_c, 1, 68, 82
4, 22752, Note_on_c, 1, 68, 0
4, 22752, Note_on_c, 1, 67, 79
4, 22797, Note_on_c, 1, 67, 0
4, 22800, Note_on_c, 1, 70, 69
4, 22845, Note_on_c, 1, 70, 0
4, 22848, Note_on_c, 1, 67, 69
4, 22893, Note_on_c, 1, 67, 0
4, 22896, Note_on_c, 1, 70, 69
4, 22941, Note_on_c, 1, 70, 0
4, 22944, Note_on_c, 1, 65, 70
4, 22989, Note_on_c, 1, 65, 0
4, 22992, Note_on_c, 1, 70, 70
4, 23037, Note_on_c, 1, 70, 0
4, 23040, Note_on_c, 1, 64, 71
4, 23085, Note_on_c, 1, 64, 0
4, 23088, Note_on_c, 1, 67, 71
4, 23133, Note_on_c, 1, 67, 0
4, 23136, Note_on_c, 1, 65, 72
4, 23181, Note_on_c, 1, 65, 0
4, 23184, Note_on_c, 1, 68, 72
4, 23229, Note_on_c, 1, 68, 0
4, 23232, Note_on_c, 1, 62, 73
4, 23277, Note_on_c, 1, 62, 0
4, 23280, Note_on_c, 1, 65, 73
4, 23325, Note_on_c, 1, 65, 0
4, 23328, Note_on_c, 1, 63, 73
4, 23373, Note_on_c, 1, 63, 0
4, 23376, Note_on_c, 1, 67, 74
4, 23421, Note_on_c, 1, 67, 0
4, 23424, Note_on_c, 1, 60, 74
4, 23469, Note_on_c, 1, 60, 0
4, 23472, Note_on_c, 1, 63, 75
4, 23517, Note_on_c, 1, 63, 0
4, 23520, Note_on_c, 1, 62, 75
4, 23565, Note_on_c, 1, 62, 0
4, 23568, Note_on_c, 1, 65, 76
4, 23613, Note_on_c, 1, 65, 0
4, 23616, Note_on_c, 1, 59, 76
4, 23661, Note_on_c, 1, 59, 0
4, 23664, Note_on_c, 1, 62, 77
4, 23709, Note_on_c, 1, 62, 0
4, 23712, Note_on_c, 1, 60, 77
4, 23757, Note_on_c, 1, 60, 0
4, 23760, Note_on_c, 1, 63, 77
4, 23805, Note_on_c, 1, 63, 0
4, 23808, Note_on_c, 1, 57, 78
4, 23853, Note_on_c, 1, 57, 0
4, 23856, Note_on_c, 1, 60, 78
4, 23901, Note_on_c, 1, 60, 0
4, 23904, Note_on_c, 1, 58, 79
4, 23949, Note_on_c, 1, 58, 0
4, 23952, Note_on_c, 1, 62, 79
4, 23997, Note_on_c, 1, 62, 0
4, 24000, Note_on_c, 1, 58, 80
4, 24045, Note_on_c, 1, 58, 0
4, 24048, Note_on_c, 1, 62, 80
4, 24093, Note_on_c, 1, 62, 0
4, 24096, Note_on_c, 1, 58, 81
4, 24141, Note_on_c, 1, 58, 0
4, 24144, Note_on_c, 1, 62, 81
4, 24189, Note_on_c, 1, 62, 0
4, 24192, Note_on_c, 1, 61, 81
4, 24237, Note_on_c, 1, 61, 0
4, 24240, Note_on_c, 1, 49, 82
4, 24285, Note_on_c, 1, 49, 0
4, 24288, Note_on_c, 1, 58, 82
4, 24333, Note_on_c, 1, 58, 0
4, 24336, Note_on_c, 1, 46, 83
4, 24381, Note_on_c, 1, 46, 0
4, 24384, Note_on_c, 1, 57, 83
4, 24429, Note_on_c, 1, 57, 0
4, 24432, Note_on_c, 1, 45, 84
4, 24477, Note_on_c, 1, 45, 0
4, 24480, Note_on_c, 1, 58, 84
4, 24525, Note_on_c, 1, 58, 0
4, 24528, Note_on_c, 1, 46, 85
4, 24573, Note_on_c, 1, 46, 0
4, 24576, Note_on_c, 1, 57, 85
4, 24621, Note_on_c, 1, 57, 0
4, 24624, Note_on_c, 1, 45, 86
4, 24669, Note_on_c, 1, 45, 0
4, 24768, Note_on_c, 1, 64, 86
4, 24768, Note_on_c, 1, 61, 86
4, 24768, Note_on_c, 1, 57, 86
4, 24768, Note_on_c, 1, 55, 86
4, 24857, Note_on_c, 1, 64, 0
4, 24857, Note_on_c, 1, 61, 0
4, 24857, Note_on_c, 1, 57, 0
4, 24857, Note_on_c, 1, 55, 0
4, 24960, Note_on_c, 1, 64, 86
4, 24960, Note_on_c, 1, 61, 86
4, 24960, Note_on_c, 1, 57, 86
4, 24960, Note_on_c, 1, 55, 86
4, 25049, Note_on_c, 1, 64, 0
4, 25049, Note_on_c, 1, 61, 0
4, 25049, Note_on_c, 1, 57, 0
4, 25049, Note_on_c, 1, 55, 0
4, 25152, Note_on_c, 1, 62, 86
4, 25152, Note_on_c, 1, 53, 86
4, 25241, Note_on_c, 1, 62, 0
4, 25241, Note_on_c, 1, 53, 0
4, 25248, Note_on_c, 1, 61, 86
4, 25248, Note_on_c, 1, 55, 86
4, 25337, Note_on_c, 1, 61, 0
4, 25337, Note_on_c, 1, 55, 0
4, 25344, Note_on_c, 1, 62, 86
4, 25344, Note_on_c, 1, 53, 86
4, 25433, Note_on_c, 1, 62, 0
4, 25433, Note_on_c, 1, 53, 0
4, 25440, Note_on_c, 1, 61, 86
4, 25440, Note_on_c, 1, 55, 86
4, 25529, Note_on_c, 1, 61, 0
4, 25529, Note_on_c, 1, 55, 0
4, 25536, Note_on_c, 1, 62, 86
4, 25536, Note_on_c, 1, 53, 86
4, 25625, Note_on_c, 1, 62, 0
4, 25625, Note_on_c, 1, 53, 0
4, 25920, Note_on_c, 1, 43, 86
4, 25943, Note_on_c, 1, 43, 0
4, 25944, Note_on_c, 1, 55, 86
4, 25967, Note_on_c, 1, 55, 0
4, 25968, Note_on_c, 1, 54, 86
4, 25991, Note_on_c, 1, 54, 0
4, 25992, Note_on_c, 1, 55, 86
4, 26015, Note_on_c, 1, 55, 0
4, 26016, Note_on_c, 1, 58, 86
4, 26061, Note_on_c, 1, 58, 0
4, 26112, Note_on_c, 1, 57, 83
4, 26157, Note_on_c, 1, 57, 0
4, 26208, Note_on_c, 1, 45, 80
4, 26253, Note_on_c, 1, 45, 0
4, 26352, Note_on_c, 1, 50, 78
4, 26397, Note_on_c, 1, 50, 0
4, 26400, Note_on_c, 1, 38, 78
4, 26445, Note_on_c, 1, 38, 0
4, 26640, Note_on_c, 1, 55, 81
4, 26660, Note_on_c, 1, 55, 0
4, 26688, Note_on_c, 1, 48, 82
4, 26711, Note_on_c, 1, 48, 0
4, 26712, Note_on_c, 1, 50, 82
4, 26735, Note_on_c, 1, 50, 0
4, 26736, Note_on_c, 1, 52, 83
4, 26759, Note_on_c, 1, 52, 0
4, 26760, Note_on_c, 1, 48, 83
4, 26783, Note_on_c, 1, 48, 0
4, 26784, Note_on_c, 1, 45, 78
4, 26829, Note_on_c, 1, 45, 0
4, 26832, Note_on_c, 1, 57, 78
4, 26852, Note_on_c, 1, 57, 0
4, 26880, Note_on_c, 1, 50, 78
4, 26925, Note_on_c, 1, 50, 0
4, 26928, Note_on_c, 1, 53, 80
4, 26973, Note_on_c, 1, 53, 0
4, 26976, Note_on_c, 1, 46, 82
4, 27021, Note_on_c, 1, 46, 0
4, 27024, Note_on_c, 1, 58, 84
4, 27044, Note_on_c, 1, 58, 0
4, 27072, Note_on_c, 1, 52, 86
4, 27095, Note_on_c, 1, 52, 0
4, 27096, Note_on_c, 1, 53, 85
4, 27119, Note_on_c, 1, 53, 0
4, 27120, Note_on_c, 1, 55, 84
4, 27143, Note_on_c, 1, 55, 0
4, 27144, Note_on_c, 1, 52, 83
4, 27167, Note_on_c, 1, 52, 0
4, 27168, Note_on_c, 1, 48, 82
4, 27257, Note_on_c, 1, 48, 0
4, 27312, Note_on_c, 1, 64, 78
4, 27357, Note_on_c, 1, 64, 0
4, 27360, Note_on_c, 1, 65, 78
4, 27449, Note_on_c, 1, 65, 0
4, 27504, Note_on_c, 1, 66, 78
4, 27549, Note_on_c, 1, 66, 0
4, 27552, Note_on_c, 1, 67, 78
4, 27641, Note_on_c, 1, 67, 0
4, 27648, Note_on_c, 1, 70, 78
4, 27693, Note_on_c, 1, 70, 0
4, 27696, Note_on_c, 1, 69, 78
4, 27741, Note_on_c, 1, 69, 0
4, 27744, Note_on_c, 1, 67, 78
4, 27789, Note_on_c, 1, 67, 0
4, 27792, Note_on_c, 1, 65, 78
4, 27837, Note_on_c, 1, 65, 0
4, 27840, Note_on_c, 1, 64, 78
4, 27840, Note_on_c, 1, 60, 78
4, 27929, Note_on_c, 1, 64, 0
4, 27929, Note_on_c, 1, 60, 0
4, 28032, Note_on_c, 1, 57, 78
4, 28032, Note_on_c, 1, 53, 78
4, 28121, Note_on_c, 1, 57, 0
4, 28121, Note_on_c, 1, 53, 0
4, 28128, Note_on_c, 1, 58, 78
4, 28128, Note_on_c, 1, 46, 78
4, 28217, Note_on_c, 1, 58, 0
4, 28217, Note_on_c, 1, 46, 0
4, 28224, Note_on_c, 1, 57, 78
4, 28224, Note_on_c, 1, 48, 78
4, 28320, Note_on_c, 1, 57, 0
4, 28320, Note_on_c, 1, 55, 78
4, 28365, Note_on_c, 1, 55, 0
4, 28365, Note_on_c, 1, 48, 0
4, 28512, Note_on_c, 1, 64, 78
4, 28512, Note_on_c, 1, 60, 78
4, 28601, Note_on_c, 1, 64, 0
4, 28601, Note_on_c, 1, 60, 0
4, 28608, Note_on_c, 1, 65, 78
4, 28653, Note_on_c, 1, 65, 0
4, 28656, Note_on_c, 1, 53, 78
4, 28701, Note_on_c, 1, 53, 0
4, 28896, Note_on_c, 1, 57, 78
4, 28985, Note_on_c, 1, 57, 0
4, 28992, Note_on_c, 1, 58, 78
4, 29081, Note_on_c, 1, 58, 0
4, 29136, Note_on_c, 1, 59, 79
4, 29181, Note_on_c, 1, 59, 0
4, 29184, Note_on_c, 1, 60, 79
4, 29273, Note_on_c, 1, 60, 0
4, 29328, Note_on_c, 1, 61, 80
4, 29373, Note_on_c, 1, 61, 0
4, 29376, Note_on_c, 1, 62, 81
4, 29465, Note_on_c, 1, 62, 0
4, 29520, Note_on_c, 1, 62, 82
4, 29565, Note_on_c, 1, 62, 0
4, 29568, Note_on_c, 1, 64, 82
4, 29657, Note_on_c, 1, 64, 0
4, 29712, Note_on_c, 1, 64, 84
4, 29757, Note_on_c, 1, 64, 0
4, 29760, Note_on_c, 1, 65, 84
4, 29849, Note_on_c, 1, 65, 0
4, 29856, Note_on_c, 1, 62, 85
4, 29945, Note_on_c, 1, 62, 0
4, 30096, Note_on_c, 1, 69, 86
4, 30141, Note_on_c, 1, 69, 0
4, 30144, Note_on_c, 1, 70, 86
4, 30425, Note_on_c, 1, 70, 0
4, 30432, Note_on_c, 1, 69, 86
4, 30573, Note_on_c, 1, 69, 0
4, 30576, Note_on_c, 1, 66, 86
4, 30621, Note_on_c, 1, 66, 0
4, 30624, Note_on_c, 1, 67, 86
4, 30809, Note_on_c, 1, 67, 0
4, 30816, Note_on_c, 1, 65, 86
4, 31001, Note_on_c, 1, 65, 0
4, 31008, Note_on_c, 1, 64, 86
4, 31193, Note_on_c, 1, 64, 0
4, 31200, Note_on_c, 1, 62, 86
4, 31289, Note_on_c, 1, 62, 0
4, 31296, Note_on_c, 1, 64, 86
4, 31385, Note_on_c, 1, 64, 0
4, 31632, Note_on_c, 1, 60, 78
4, 31632, Note_on_c, 1, 57, 78
4, 31677, Note_on_c, 1, 60, 0
4, 31677, Note_on_c, 1, 57, 0
4, 31680, Note_on_c, 1, 58, 78
4, 31680, Note_on_c, 1, 55, 78
4, 31725, Note_on_c, 1, 58, 0
4, 31725, Note_on_c, 1, 55, 0
4, 31728, Note_on_c, 1, 57, 78
4, 31728, Note_on_c, 1, 53, 78
4, 31773, Note_on_c, 1, 57, 0
4, 31773, Note_on_c, 1, 53, 0
4, 31776, Note_on_c, 1, 55, 78
4, 31776, Note_on_c, 1, 52, 78
4, 31821, Note_on_c, 1, 55, 0
4, 31821, Note_on_c, 1, 52, 0
4, 32016, Note_on_c, 1, 60, 78
4, 32016, Note_on_c, 1, 58, 78
4, 32061, Note_on_c, 1, 60, 0
4, 32061, Note_on_c, 1, 58, 0
4, 32064, Note_on_c, 1, 60, 78
4, 32064, Note_on_c, 1, 57, 78
4, 32109, Note_on_c, 1, 60, 0
4, 32109, Note_on_c, 1, 57, 0
4, 32112, Note_on_c, 1, 58, 78
4, 32112, Note_on_c, 1, 55, 78
4, 32157, Note_on_c, 1, 58, 0
4, 32157, Note_on_c, 1, 55, 0
4, 32160, Note_on_c, 1, 57, 78
4, 32160, Note_on_c, 1, 53, 78
4, 32205, Note_on_c, 1, 57, 0
4, 32205, Note_on_c, 1, 53, 0
4, 32304, Note_on_c, 1, 57, 78
4, 32304, Note_on_c, 1, 53, 78
4, 32349, Note_on_c, 1, 57, 0
4, 32349, Note_on_c, 1, 53, 0
4, 32352, Note_on_c, 1, 58, 78
4, 32352, Note_on_c, 1, 55, 78
4, 32397, Note_on_c, 1, 58, 0
4, 32397, Note_on_c, 1, 55, 0
4, 32400, Note_on_c, 1, 60, 78
4, 32400, Note_on_c, 1, 57, 78
4, 32445, Note_on_c, 1, 60, 0
4, 32445, Note_on_c, 1, 57, 0
4, 32448, Note_on_c, 1, 58, 78
4, 32581, Note_on_c, 1, 58, 0
4, 32592, Note_on_c, 1, 57, 78
4, 32637, Note_on_c, 1, 57, 0
4, 32640, Note_on_c, 1, 58, 78
4, 32685, Note_on_c, 1, 58, 0
4, 32688, Note_on_c, 1, 54, 80
4, 32733, Note_on_c, 1, 54, 0
4, 32736, Note_on_c, 1, 55, 82
4, 32781, Note_on_c, 1, 55, 0
4, 32784, Note_on_c, 1, 57, 84
4, 32829, Note_on_c, 1, 57, 0
4, 32832, Note_on_c, 1, 58, 86
4, 32921, Note_on_c, 1, 58, 0
4, 33072, Note_on_c, 1, 62, 78
4, 33072, Note_on_c, 1, 59, 78
4, 33117, Note_on_c, 1, 62, 0
4, 33117, Note_on_c, 1, 59, 0
4, 33120, Note_on_c, 1, 60, 78
4, 33165, Note_on_c, 1, 60, 0
4, 33168, Note_on_c, 1, 48, 78
4, 33213, Note_on_c, 1, 48, 0
4, 33216, Note_on_c, 1, 53, 78
4, 33261, Note_on_c, 1, 53, 0
4, 33264, Note_on_c, 1, 41, 78
4, 33309, Note_on_c, 1, 41, 0
4, 33408, Note_on_c, 1, 67, 78
4, 33408, Note_on_c, 1, 64, 78
4, 33408, Note_on_c, 1, 60, 78
4, 33497, Note_on_c, 1, 67, 0
4, 33497, Note_on_c, 1, 64, 0
4, 33497, Note_on_c, 1, 60, 0
4, 33600, Note_on_c, 1, 67, 78
4, 33600, Note_on_c, 1, 64, 78
4, 33600, Note_on_c, 1, 60, 78
4, 33689, Note_on_c, 1, 67, 0
4, 33689, Note_on_c, 1, 64, 0
4, 33689, Note_on_c, 1, 60, 0
4, 33792, Note_on_c, 1, 67, 78
4, 33792, Note_on_c, 1, 64, 78
4, 33792, Note_on_c, 1, 60, 78
4, 33881, Note_on_c, 1, 67, 0
4, 33881, Note_on_c, 1, 64, 0
4, 33881, Note_on_c, 1, 60, 0
4, 34368, Note_on_c, 1, 62, 78
4, 34388, Note_on_c, 1, 62, 0
4, 34416, Note_on_c, 1, 65, 78
4, 34436, Note_on_c, 1, 65, 0
4, 34464, Note_on_c, 1, 58, 78
4, 34484, Note_on_c, 1, 58, 0
4, 34512, Note_on_c, 1, 70, 78
4, 34532, Note_on_c, 1, 70, 0
4, 34560, Note_on_c, 1, 69, 78
4, 34656, Note_on_c, 1, 69, 0
4, 34656, Note_on_c, 1, 67, 78
4, 34745, Note_on_c, 1, 67, 0
4, 34752, Note_on_c, 1, 62, 78
4, 34800, Note_on_c, 1, 62, 0
4, 34800, Note_on_c, 1, 65, 78
4, 34845, Note_on_c, 1, 65, 0
4, 34848, Note_on_c, 1, 58, 78
4, 34896, Note_on_c, 1, 58, 0
4, 34896, Note_on_c, 1, 70, 78
4, 34941, Note_on_c, 1, 70, 0
4, 34944, Note_on_c, 1, 69, 78
4, 35040, Note_on_c, 1, 69, 0
4, 35040, Note_on_c, 1, 67, 78
4, 35129, Note_on_c, 1, 67, 0
4, 35136, Note_on_c, 1, 66, 78
4, 35232, Note_on_c, 1, 66, 0
4, 35232, Note_on_c, 1, 67, 78
4, 35321, Note_on_c, 1, 67, 0
4, 35328, Note_on_c, 1, 70, 78
4, 35424, Note_on_c, 1, 70, 0
4, 35424, Note_on_c, 1, 69, 78
4, 35513, Note_on_c, 1, 69, 0
4, 35520, Note_on_c, 1, 58, 78
4, 35609, Note_on_c, 1, 58, 0
4, 35616, Note_on_c, 1, 60, 78
4, 35616, Note_on_c, 1, 48, 78
4, 35705, Note_on_c, 1, 60, 0
4, 35705, Note_on_c, 1, 48, 0
4, 35712, Note_on_c, 1, 53, 78
4, 35712, Note_on_c, 1, 41, 78
4, 35801, Note_on_c, 1, 53, 0
4, 35801, Note_on_c, 1, 41, 0
4, 35904, Note_on_c, 1, 62, 78
4, 35952, Note_on_c, 1, 62, 0
4, 35952, Note_on_c, 1, 65, 78
4, 35962, Note_on_c, 1, 65, 0
4, 36000, Note_on_c, 1, 58, 78
4, 36048, Note_on_c, 1, 58, 0
4, 36048, Note_on_c, 1, 70, 78
4, 36058, Note_on_c, 1, 70, 0
4, 36096, Note_on_c, 1, 69, 78
4, 36192, Note_on_c, 1, 69, 0
4, 36192, Note_on_c, 1, 67, 78
4, 36237, Note_on_c, 1, 67, 0
4, 36288, Note_on_c, 1, 62, 78
4, 36311, Note_on_c, 1, 62, 0
4, 36312, Note_on_c, 1, 64, 78
4, 36335, Note_on_c, 1, 64, 0
4, 36336, Note_on_c, 1, 65, 78
4, 36359, Note_on_c, 1, 65, 0
4, 36360, Note_on_c, 1, 62, 78
4, 36383, Note_on_c, 1, 62, 0
4, 36384, Note_on_c, 1, 58, 78
4, 36429, Note_on_c, 1, 58, 0
4, 36432, Note_on_c, 1, 70, 78
4, 36452, Note_on_c, 1, 70, 0
4, 36480, Note_on_c, 1, 69, 78
4, 36576, Note_on_c, 1, 69, 0
4, 36576, Note_on_c, 1, 67, 78
4, 36621, Note_on_c, 1, 67, 0
4, 36624, Note_on_c, 1, 69, 78
4, 36647, Note_on_c, 1, 69, 0
4, 36648, Note_on_c, 1, 70, 78
4, 36671, Note_on_c, 1, 70, 0
4, 36672, Note_on_c, 1, 72, 78
4, 36768, Note_on_c, 1, 72, 0
4, 36768, Note_on_c, 1, 70, 78
4, 36857, Note_on_c, 1, 70, 0
4, 36864, Note_on_c, 1, 70, 78
4, 36960, Note_on_c, 1, 70, 0
4, 36960, Note_on_c, 1, 69, 78
4, 37049, Note_on_c, 1, 69, 0
4, 37056, Note_on_c, 1, 58, 78
4, 37145, Note_on_c, 1, 58, 0
4, 37152, Note_on_c, 1, 60, 78
4, 37152, Note_on_c, 1, 48, 78
4, 37241, Note_on_c, 1, 60, 0
4, 37241, Note_on_c, 1, 48, 0
4, 37296, Note_on_c, 1, 41, 78
4, 37341, Note_on_c, 1, 41, 0
4, 37344, Note_on_c, 1, 53, 78
4, 37389, Note_on_c, 1, 53, 0
4, 37488, Note_on_c, 1, 41, 78
4, 37533, Note_on_c, 1, 41, 0
4, 37536, Note_on_c, 1, 53, 78
4, 37581, Note_on_c, 1, 53, 0
4, 37680, Note_on_c, 1, 41, 78
4, 37725, Note_on_c, 1, 41, 0
4, 37728, Note_on_c, 1, 53, 78
4, 37773, Note_on_c, 1, 53, 0
4, 37872, Note_on_c, 1, 41, 78
4, 37917, Note_on_c, 1, 41, 0
4, 37920, Note_on_c, 1, 53, 78
4, 37965, Note_on_c, 1, 53, 0
4, 38208, Note_on_c, 1, 60, 86
4, 38208, Note_on_c, 1, 57, 86
4, 38208, Note_on_c, 1, 54, 86
4, 38297, Note_on_c, 1, 60, 0
4, 38297, Note_on_c, 1, 57, 0
4, 38297, Note_on_c, 1, 54, 0
4, 38640, Note_on_c, 1, 72, 86
4, 38640, Note_on_c, 1, 69, 86
4, 38640, Note_on_c, 1, 66, 86
4, 38685, Note_on_c, 1, 72, 0
4, 38685, Note_on_c, 1, 69, 0
4, 38685, Note_on_c, 1, 66, 0
4, 38688, Note_on_c, 1, 72, 86
4, 38688, Note_on_c, 1, 69, 86
4, 38688, Note_on_c, 1, 66, 86
4, 38733, Note_on_c, 1, 72, 0
4, 38733, Note_on_c, 1, 69, 0
4, 38733, Note_on_c, 1, 66, 0
4, 38832, Note_on_c, 1, 72, 86
4, 38832, Note_on_c, 1, 69, 86
4, 38832, Note_on_c, 1, 66, 86
4, 38877, Note_on_c, 1, 72, 0
4, 38877, Note_on_c, 1, 69, 0
4, 38877, Note_on_c, 1, 66, 0
4, 38880, Note_on_c, 1, 72, 86
4, 38880, Note_on_c, 1, 69, 86
4, 38880, Note_on_c, 1, 66, 86
4, 38925, Note_on_c, 1, 72, 0
4, 38925, Note_on_c, 1, 69, 0
4, 38925, Note_on_c, 1, 66, 0
4, 39024, Note_on_c, 1, 72, 86
4, 39024, Note_on_c, 1, 69, 86
4, 39024, Note_on_c, 1, 66, 86
4, 39069, Note_on_c, 1, 72, 0
4, 39069, Note_on_c, 1, 69, 0
4, 39069, Note_on_c, 1, 66, 0
4, 39072, Note_on_c, 1, 72, 86
4, 39072, Note_on_c, 1, 69, 86
4, 39072, Note_on_c, 1, 66, 86
4, 39117, Note_on_c, 1, 72, 0
4, 39117, Note_on_c, 1, 69, 0
4, 39117, Note_on_c, 1, 66, 0
4, 39360, Note_on_c, 1, 58, 78
4, 39360, Note_on_c, 1, 55, 78
4, 39449, Note_on_c, 1, 58, 0
4, 39449, Note_on_c, 1, 55, 0
4, 39456, Note_on_c, 1, 60, 78
4, 39456, Note_on_c, 1, 48, 78
4, 39545, Note_on_c, 1, 60, 0
4, 39545, Note_on_c, 1, 48, 0
4, 39552, Note_on_c, 1, 58, 78
4, 39552, Note_on_c, 1, 50, 78
4, 39648, Note_on_c, 1, 58, 0
4, 39648, Note_on_c, 1, 57, 78
4, 39693, Note_on_c, 1, 57, 0
4, 39693, Note_on_c, 1, 50, 0
4, 39840, Note_on_c, 1, 66, 78
4, 39929, Note_on_c, 1, 66, 0
4, 39936, Note_on_c, 1, 67, 78
4, 39981, Note_on_c, 1, 67, 0
4, 39984, Note_on_c, 1, 55, 78
4, 40029, Note_on_c, 1, 55, 0
4, 40080, Note_on_c, 1, 58, 78
4, 40100, Note_on_c, 1, 58, 0
4, 40128, Note_on_c, 1, 55, 80
4, 40176, Note_on_c, 1, 55, 0
4, 40176, Note_on_c, 1, 58, 83
4, 40221, Note_on_c, 1, 58, 0
4, 40224, Note_on_c, 1, 51, 86
4, 40272, Note_on_c, 1, 51, 0
4, 40272, Note_on_c, 1, 63, 84
4, 40292, Note_on_c, 1, 63, 0
4, 40320, Note_on_c, 1, 63, 82
4, 40416, Note_on_c, 1, 63, 0
4, 40416, Note_on_c, 1, 62, 78
4, 40461, Note_on_c, 1, 62, 0
4, 40464, Note_on_c, 1, 65, 78
4, 40484, Note_on_c, 1, 65, 0
4, 40512, Note_on_c, 1, 62, 80
4, 40560, Note_on_c, 1, 62, 0
4, 40560, Note_on_c, 1, 65, 83
4, 40605, Note_on_c, 1, 65, 0
4, 40608, Note_on_c, 1, 58, 86
4, 40656, Note_on_c, 1, 58, 0
4, 40656, Note_on_c, 1, 68, 84
4, 40676, Note_on_c, 1, 68, 0
4, 40704, Note_on_c, 1, 68, 82
4, 40800, Note_on_c, 1, 68, 0
4, 40800, Note_on_c, 1, 67, 79
4, 40845, Note_on_c, 1, 67, 0
4, 40848, Note_on_c, 1, 70, 69
4, 40893, Note_on_c, 1, 70, 0
4, 40896, Note_on_c, 1, 67, 69
4, 40941, Note_on_c, 1, 67, 0
4, 40944, Note_on_c, 1, 70, 69
4, 40989, Note_on_c, 1, 70, 0
4, 40992, Note_on_c, 1, 65, 70
4, 41037, Note_on_c, 1, 65, 0
4, 41040, Note_on_c, 1, 70, 70
4, 41085, Note_on_c, 1, 70, 0
4, 41088, Note_on_c, 1, 64, 71
4, 41133, Note_on_c, 1, 64, 0
4, 41136, Note_on_c, 1, 67, 71
4, 41181, Note_on_c, 1, 67, 0
4, 41184, Note_on_c, 1, 65, 72
4, 41229, Note_on_c, 1, 65, 0
4, 41232, Note_on_c, 1, 68, 72
4, 41277, Note_on_c, 1, 68, 0
4, 41280, Note_on_c, 1, 62, 73
4, 41325, Note_on_c, 1, 62, 0
4, 41328, Note_on_c, 1, 65, 73
4, 41373, Note_on_c, 1, 65, 0
4, 41376, Note_on_c, 1, 63, 73
4, 41421, Note_on_c, 1, 63, 0
4, 41424, Note_on_c, 1, 67, 74
4, 41469, Note_on_c, 1, 67, 0
4, 41472, Note_on_c, 1, 60, 74
4, 41517, Note_on_c, 1, 60, 0
4, 41520, Note_on_c, 1, 63, 75
4, 41565, Note_on_c, 1, 63, 0
4, 41568, Note_on_c, 1, 62, 75
4, 41613, Note_on_c, 1, 62, 0
4, 41616, Note_on_c, 1, 65, 76
4, 41661, Note_on_c, 1, 65, 0
4, 41664, Note_on_c, 1, 59, 76
4, 41709, Note_on_c, 1, 59, 0
4, 41712, Note_on_c, 1, 62, 77
4, 41757, Note_on_c, 1, 62, 0
4, 41760, Note_on_c, 1, 60, 77
4, 41805, Note_on_c, 1, 60, 0
4, 41808, Note_on_c, 1, 63, 77
4, 41853, Note_on_c, 1, 63, 0
4, 41856, Note_on_c, 1, 57, 78
4, 41901, Note_on_c, 1, 57, 0
4, 41904, Note_on_c, 1, 60, 78
4, 41949, Note_on_c, 1, 60, 0
4, 41952, Note_on_c, 1, 58, 79
4, 41997, Note_on_c, 1, 58, 0
4, 42000, Note_on_c, 1, 62, 79
4, 42045, Note_on_c, 1, 62, 0
4, 42048, Note_on_c, 1, 58, 80
4, 42093, Note_on_c, 1, 58, 0
4, 42096, Note_on_c, 1, 62, 80
4, 42141, Note_on_c, 1, 62, 0
4, 42144, Note_on_c, 1, 58, 81
4, 42189, Note_on_c, 1, 58, 0
4, 42192, Note_on_c, 1, 62, 81
4, 42237, Note_on_c, 1, 62, 0
4, 42240, Note_on_c, 1, 61, 81
4, 42285, Note_on_c, 1, 61, 0
4, 42288, Note_on_c, 1, 49, 82
4, 42333, Note_on_c, 1, 49, 0
4, 42336, Note_on_c, 1, 58, 82
4, 42381, Note_on_c, 1, 58, 0
4, 42384, Note_on_c, 1, 46, 83
4, 42429, Note_on_c, 1, 46, 0
4, 42432, Note_on_c, 1, 57, 83
4, 42477, Note_on_c, 1, 57, 0
4, 42480, Note_on_c, 1, 45, 84
4, 42525, Note_on_c, 1, 45, 0
4, 42528, Note_on_c, 1, 58, 84
4, 42573, Note_on_c, 1, 58, 0
4, 42576, Note_on_c, 1, 46, 85
4, 42621, Note_on_c, 1, 46, 0
4, 42624, Note_on_c, 1, 57, 85
4, 42669, Note_on_c, 1, 57, 0
4, 42672, Note_on_c, 1, 45, 86
4, 42717, Note_on_c, 1, 45, 0
4, 42816, Note_on_c, 1, 64, 86
4, 42816, Note_on_c, 1, 61, 86
4, 42816, Note_on_c, 1, 57, 86
4, 42816, Note_on_c, 1, 55, 86
4, 42905, Note_on_c, 1, 64, 0
4, 42905, Note_on_c, 1, 61, 0
4, 42905, Note_on_c, 1, 57, 0
4, 42905, Note_on_c, 1, 55, 0
4, 43008, Note_on_c, 1, 64, 86
4, 43008, Note_on_c, 1, 61, 86
4, 43008, Note_on_c, 1, 57, 86
4, 43008, Note_on_c, 1, 55, 86
4, 43097, Note_on_c, 1, 64, 0
4, 43097, Note_on_c, 1, 61, 0
4, 43097, Note_on_c, 1, 57, 0
4, 43097, Note_on_c, 1, 55, 0
4, 43200, Note_on_c, 1, 62, 86
4, 43200, Note_on_c, 1, 53, 86
4, 43289, Note_on_c, 1, 62, 0
4, 43289, Note_on_c, 1, 53, 0
4, 43296, Note_on_c, 1, 61, 86
4, 43296, Note_on_c, 1, 55, 86
4, 43385, Note_on_c, 1, 61, 0
4, 43385, Note_on_c, 1, 55, 0
4, 43392, Note_on_c, 1, 62, 86
4, 43392, Note_on_c, 1, 53, 86
4, 43481, Note_on_c, 1, 62, 0
4, 43481, Note_on_c, 1, 53, 0
4, 43488, Note_on_c, 1, 61, 86
4, 43488, Note_on_c, 1, 55, 86
4, 43577, Note_on_c, 1, 61, 0
4, 43577, Note_on_c, 1, 55, 0
4, 43584, Note_on_c, 1, 62, 86
4, 43584, Note_on_c, 1, 53, 86
4, 43673, Note_on_c, 1, 62, 0
4, 43673, Note_on_c, 1, 53, 0
4, 43968, Note_on_c, 1, 43, 86
4, 43991, Note_on_c, 1, 43, 0
4, 43992, Note_on_c, 1, 55, 86
4, 44015, Note_on_c, 1, 55, 0
4, 44016, Note_on_c, 1, 54, 86
4, 44039, Note_on_c, 1, 54, 0
4, 44040, Note_on_c, 1, 55, 86
4, 44063, Note_on_c, 1, 55, 0
4, 44064, Note_on_c, 1, 58, 86
4, 44109, Note_on_c, 1, 58, 0
4, 44160, Note_on_c, 1, 57, 83
4, 44205, Note_on_c, 1, 57, 0
4, 44256, Note_on_c, 1, 45, 80
4, 44301, Note_on_c, 1, 45, 0
4, 44400, Note_on_c, 1, 50, 78
4, 44445, Note_on_c, 1, 50, 0
4, 44448, Note_on_c, 1, 38, 78
4, 44493, Note_on_c, 1, 38, 0
4, 44688, Note_on_c, 1, 55, 81
4, 44708, Note_on_c, 1, 55, 0
4, 44736, Note_on_c, 1, 48, 82
4, 44759, Note_on_c, 1, 48, 0
4, 44760, Note_on_c, 1, 50, 82
4, 44783, Note_on_c, 1, 50, 0
4, 44784, Note_on_c, 1, 52, 83
4, 44807, Note_on_c, 1, 52, 0
4, 44808, Note_on_c, 1, 48, 83
4, 44831, Note_on_c, 1, 48, 0
4, 44832, Note_on_c, 1, 45, 78
4, 44877, Note_on_c, 1, 45, 0
4, 44880, Note_on_c, 1, 57, 78
4, 44900, Note_on_c, 1, 57, 0
4, 44928, Note_on_c, 1, 50, 78
4, 44973, Note_on_c, 1, 50, 0
4, 44976, Note_on_c, 1, 53, 80
4, 45021, Note_on_c, 1, 53, 0
4, 45024, Note_on_c, 1, 46, 82
4, 45069, Note_on_c, 1, 46, 0
4, 45072, Note_on_c, 1, 58, 84
4, 45092, Note_on_c, 1, 58, 0
4, 45120, Note_on_c, 1, 52, 86
4, 45143, Note_on_c, 1, 52, 0
4, 45144, Note_on_c, 1, 53, 85
4, 45167, Note_on_c, 1, 53, 0
4, 45168, Note_on_c, 1, 55, 84
4, 45191, Note_on_c, 1, 55, 0
4, 45192, Note_on_c, 1, 52, 83
4, 45215, Note_on_c, 1, 52, 0
4, 45216, Note_on_c, 1, 48, 82
4, 45305, Note_on_c, 1, 48, 0
4, 45360, Note_on_c, 1, 64, 78
4, 45405, Note_on_c, 1, 64, 0
4, 45408, Note_on_c, 1, 65, 78
4, 45497, Note_on_c, 1, 65, 0
4, 45552, Note_on_c, 1, 66, 78
4, 45597, Note_on_c, 1, 66, 0
4, 45600, Note_on_c, 1, 67, 78
4, 45689, Note_on_c, 1, 67, 0
4, 45696, Note_on_c, 1, 70, 78
4, 45741, Note_on_c, 1, 70, 0
4, 45744, Note_on_c, 1, 69, 78
4, 45789, Note_on_c, 1, 69, 0
4, 45792, Note_on_c, 1, 67, 78
4, 45837, Note_on_c, 1, 67, 0
4, 45840, Note_on_c, 1, 65, 78
4, 45885, Note_on_c, 1, 65, 0
4, 45888, Note_on_c, 1, 64, 78
4, 45888, Note_on_c, 1, 60, 78
4, 45977, Note_on_c, 1, 64, 0
4, 45977, Note_on_c, 1, 60, 0
4, 46080, Note_on_c, 1, 57, 78
4, 46080, Note_on_c, 1, 53, 78
4, 46169, Note_on_c, 1, 57, 0
4, 46169, Note_on_c, 1, 53, 0
4, 46176, Note_on_c, 1, 58, 78
4, 46176, Note_on_c, 1, 46, 78
4, 46265, Note_on_c, 1, 58, 0
4, 46265, Note_on_c, 1, 46, 0
4, 46272, Note_on_c, 1, 57, 78
4, 46272, Note_on_c, 1, 48, 78
4, 46368, Note_on_c, 1, 57, 0
4, 46368, Note_on_c, 1, 55, 78
4, 46413, Note_on_c, 1, 55, 0
4, 46413, Note_on_c, 1, 48, 0
4, 46560, Note_on_c, 1, 64, 78
4, 46560, Note_on_c, 1, 60, 78
4, 46649, Note_on_c, 1, 64, 0
4, 46649, Note_on_c, 1, 60, 0
4, 46656, Note_on_c, 1, 65, 78
4, 46701, Note_on_c, 1, 65, 0
4, 46704, Note_on_c, 1, 53, 78
4, 46749, Note_on_c, 1, 53, 0
4, 46944, Note_on_c, 1, 57, 78
4, 47033, Note_on_c, 1, 57, 0
4, 47040, Note_on_c, 1, 58, 78
4, 47129, Note_on_c, 1, 58, 0
4, 47184, Note_on_c, 1, 59, 79
4, 47229, Note_on_c, 1, 59, 0
4, 47232, Note_on_c, 1, 60, 79
4, 47321, Note_on_c, 1, 60, 0
4, 47376, Note_on_c, 1, 61, 80
4, 47421, Note_on_c, 1, 61, 0
4, 47424, Note_on_c, 1, 62, 81
4, 47513, Note_on_c, 1, 62, 0
4, 47568, Note_on_c, 1, 62, 82
4, 47613, Note_on_c, 1, 62, 0
4, 47616, Note_on_c, 1, 64, 82
4, 47705, Note_on_c, 1, 64, 0
4, 47760, Note_on_c, 1, 64, 84
4, 47805, Note_on_c, 1, 64, 0
4, 47808, Note_on_c, 1, 65, 84
4, 47897, Note_on_c, 1, 65, 0
4, 47904, Note_on_c, 1, 62, 85
4, 47993, Note_on_c, 1, 62, 0
4, 48144, Note_on_c, 1, 69, 86
4, 48189, Note_on_c, 1, 69, 0
4, 48192, Note_on_c, 1, 70, 86
4, 48473, Note_on_c, 1, 70, 0
4, 48480, Note_on_c, 1, 69, 86
4, 48621, Note_on_c, 1, 69, 0
4, 48624, Note_on_c, 1, 66, 86
4, 48669, Note_on_c, 1, 66, 0
4, 48672, Note_on_c, 1, 67, 86
4, 48857, Note_on_c, 1, 67, 0
4, 48864, Note_on_c, 1, 65, 86
4, 49049, Note_on_c, 1, 65, 0
4, 49056, Note_on_c, 1, 64, 86
4, 49241, Note_on_c, 1, 64, 0
4, 49248, Note_on_c, 1, 62, 86
4, 49337, Note_on_c, 1, 62, 0
4, 49344, Note_on_c, 1, 64, 86
4, 49433, Note_on_c, 1, 64, 0
4, 49680, Note_on_c, 1, 60, 78
4, 49680, Note_on_c, 1, 57, 78
4, 49725, Note_on_c, 1, 60, 0
4, 49725, Note_on_c, 1, 57, 0
4, 49728, Note_on_c, 1, 58, 78
4, 49728, Note_on_c, 1, 55, 78
4, 49773, Note_on_c, 1, 58, 0
4, 49773, Note_on_c, 1, 55, 0
4, 49776, Note_on_c, 1, 57, 78
4, 49776, Note_on_c, 1, 53, 78
4, 49821, Note_on_c, 1, 57, 0
4, 49821, Note_on_c, 1, 53, 0
4, 49824, Note_on_c, 1, 55, 78
4, 49824, Note_on_c, 1, 52, 78
4, 49869, Note_on_c, 1, 55, 0
4, 49869, Note_on_c, 1, 52, 0
4, 50064, Note_on_c, 1, 60, 78
4, 50064, Note_on_c, 1, 58, 78
4, 50109, Note_on_c, 1, 60, 0
4, 50109, Note_on_c, 1, 58, 0
4, 50112, Note_on_c, 1, 60, 78
4, 50112, Note_on_c, 1, 57, 78
4, 50157, Note_on_c, 1, 60, 0
4, 50157, Note_on_c, 1, 57, 0
4, 50160, Note_on_c, 1, 58, 78
4, 50160, Note_on_c, 1, 55, 78
4, 50205, Note_on_c, 1, 58, 0
4, 50205, Note_on_c, 1, 55, 0
4, 50208, Note_on_c, 1, 57, 78
4, 50208, Note_on_c, 1, 53, 78
4, 50253, Note_on_c, 1, 57, 0
4, 50253, Note_on_c, 1, 53, 0
4, 50352, Note_on_c, 1, 57, 78
4, 50352, Note_on_c, 1, 53, 78
4, 50397, Note_on_c, 1, 57, 0
4, 50397, Note_on_c, 1, 53, 0
4, 50400, Note_on_c, 1, 58, 78
4, 50400, Note_on_c, 1, 55, 78
4, 50445, Note_on_c, 1, 58, 0
4, 50445, Note_on_c, 1, 55, 0
4, 50448, Note_on_c, 1, 60, 78
4, 50448, Note_on_c, 1, 57, 78
4, 50493, Note_on_c, 1, 60, 0
4, 50493, Note_on_c, 1, 57, 0
4, 50496, Note_on_c, 1, 58, 78
4, 50629, Note_on_c, 1, 58, 0
4, 50640, Note_on_c, 1, 57, 78
4, 50685, Note_on_c, 1, 57, 0
4, 50688, Note_on_c, 1, 58, 78
4, 50733, Note_on_c, 1, 58, 0
4, 50736, Note_on_c, 1, 54, 80
4, 50781, Note_on_c, 1, 54, 0
4, 50784, Note_on_c, 1, 55, 82
4, 50829, Note_on_c, 1, 55, 0
4, 50832, Note_on_c, 1, 57, 84
4, 50877, Note_on_c, 1, 57, 0
4, 50880, Note_on_c, 1, 58, 86
4, 50969, Note_on_c, 1, 58, 0
4, 51120, Note_on_c, 1, 62, 78
4, 51120, Note_on_c, 1, 59, 78
4, 51165, Note_on_c, 1, 62, 0
4, 51165, Note_on_c, 1, 59, 0
4, 51168, Note_on_c, 1, 60, 78
4, 51213, Note_on_c, 1, 60, 0
4, 51216, Note_on_c, 1, 48, 78
4, 51261, Note_on_c, 1, 48, 0
4, 51264, Note_on_c, 1, 53, 78
4, 51309, Note_on_c, 1, 53, 0
4, 51312, Note_on_c, 1, 41, 78
4, 51357, Note_on_c, 1, 41, 0
4, 51456, Note_on_c, 1, 67, 78
4, 51456, Note_on_c, 1, 64, 78
4, 51456, Note_on_c, 1, 60, 78
4, 51545, Note_on_c, 1, 67, 0
4, 51545, Note_on_c, 1, 64, 0
4, 51545, Note_on_c, 1, 60, 0
4, 51648, Note_on_c, 1, 67, 78
4, 51648, Note_on_c, 1, 64, 78
4, 51648, Note_on_c, 1, 60, 78
4, 51737, Note_on_c, 1, 67, 0
4, 51737, Note_on_c, 1, 64, 0
4, 51737, Note_on_c, 1, 60, 0
4, 51840, Note_on_c, 1, 67, 78
4, 51840, Note_on_c, 1, 64, 78
4, 51840, Note_on_c, 1, 60, 78
4, 51929, Note_on_c, 1, 67, 0
4, 51929, Note_on_c, 1, 64, 0
4, 51929, Note_on_c, 1, 60, 0
4, 52416, Note_on_c, 1, 62, 78
4, 52436, Note_on_c, 1, 62, 0
4, 52464, Note_on_c, 1, 65, 78
4, 52484, Note_on_c, 1, 65, 0
4, 52512, Note_on_c, 1, 58, 78
4, 52532, Note_on_c, 1, 58, 0
4, 52560, Note_on_c, 1, 70, 78
4, 52580, Note_on_c, 1, 70, 0
4, 52608, Note_on_c, 1, 69, 78
4, 52704, Note_on_c, 1, 69, 0
4, 52704, Note_on_c, 1, 67, 78
4, 52793, Note_on_c, 1, 67, 0
4, 52800, Note_on_c, 1, 62, 78
4, 52848, Note_on_c, 1, 62, 0
4, 52848, Note_on_c, 1, 65, 78
4, 52893, Note_on_c, 1, 65, 0
4, 52896, Note_on_c, 1, 58, 78
4, 52944, Note_on_c, 1, 58, 0
4, 52944, Note_on_c, 1, 70, 78
4, 52989, Note_on_c, 1, 70, 0
4, 52992, Note_on_c, 1, 69, 78
4, 53088, Note_on_c, 1, 69, 0
4, 53088, Note_on_c, 1, 67, 78
4, 53177, Note_on_c, 1, 67, 0
4, 53184, Note_on_c, 1, 66, 78
4, 53280, Note_on_c, 1, 66, 0
4, 53280, Note_on_c, 1, 67, 78
4, 53369, Note_on_c, 1, 67, 0
4, 53376, Note_on_c, 1, 70, 78
4, 53472, Note_on_c, 1, 70, 0
4, 53472, Note_on_c, 1, 69, 78
4, 53561, Note_on_c, 1, 69, 0
4, 53568, Note_on_c, 1, 58, 78
4, 53657, Note_on_c, 1, 58, 0
4, 53664, Note_on_c, 1, 60, 78
4, 53664, Note_on_c, 1, 48, 78
4, 53753, Note_on_c, 1, 60, 0
4, 53753, Note_on_c, 1, 48, 0
4, 53760, Note_on_c, 1, 53, 78
4, 53760, Note_on_c, 1, 41, 78
4, 53849, Note_on_c, 1, 53, 0
4, 53849, Note_on_c, 1, 41, 0
4, 53952, Note_on_c, 1, 62, 78
4, 54000, Note_on_c, 1, 62, 0
4, 54000, Note_on_c, 1, 65, 78
4, 54010, Note_on_c, 1, 65, 0
4, 54048, Note_on_c, 1, 58, 78
4, 54096, Note_on_c, 1, 58, 0
4, 54096, Note_on_c, 1, 70, 78
4, 54106, Note_on_c, 1, 70, 0
4, 54144, Note_on_c, 1, 69, 78
4, 54240, Note_on_c, 1, 69, 0
4, 54240, Note_on_c, 1, 67, 78
4, 54285, Note_on_c, 1, 67, 0
4, 54336, Note_on_c, 1, 62, 78
4, 54359, Note_on_c, 1, 62, 0
4, 54360, Note_on_c, 1, 64, 78
4, 54383, Note_on_c, 1, 64, 0
4, 54384, Note_on_c, 1, 65, 78
4, 54407, Note_on_c, 1, 65, 0
4, 54408, Note_on_c, 1, 62, 78
4, 54431, Note_on_c, 1, 62, 0
4, 54432, Note_on_c, 1, 58, 78
4, 54477, Note_on_c, 1, 58, 0
4, 54480, Note_on_c, 1, 70, 78
4, 54500, Note_on_c, 1, 70, 0
4, 54528, Note_on_c, 1, 69, 78
4, 54624, Note_on_c, 1, 69, 0
4, 54624, Note_on_c, 1, 67, 78
4, 54669, Note_on_c, 1, 67, 0
4, 54672, Note_on_c, 1, 69, 78
4, 54695, Note_on_c, 1, 69, 0
4, 54696, Note_on_c, 1, 70, 78
4, 54719, Note_on_c, 1, 70, 0
4, 54720, Note_on_c, 1, 72, 78
4, 54816, Note_on_c, 1, 72, 0
4, 54816, Note_on_c, 1, 70, 78
4, 54905, Note_on_c, 1, 70, 0
4, 54912, Note_on_c, 1, 70, 78
4, 55008, Note_on_c, 1, 70, 0
4, 55008, Note_on_c, 1, 69, 78
4, 55097, Note_on_c, 1, 69, 0
4, 55104, Note_on_c, 1, 58, 78
4, 55193, Note_on_c, 1, 58, 0
4, 55200, Note_on_c, 1, 60, 78
4, 55200, Note_on_c, 1, 48, 78
4, 55289, Note_on_c, 1, 60, 0
4, 55289, Note_on_c, 1, 48, 0
4, 55344, Note_on_c, 1, 41, 78
4, 55389, Note_on_c, 1, 41, 0
4, 55392, Note_on_c, 1, 53, 78
4, 55437, Note_on_c, 1, 53, 0
4, 55536, Note_on_c, 1, 41, 78
4, 55581, Note_on_c, 1, 41, 0
4, 55584, Note_on_c, 1, 53, 78
4, 55629, Note_on_c, 1, 53, 0
4, 55728, Note_on_c, 1, 41, 78
4, 55773, Note_on_c, 1, 41, 0
4, 55776, Note_on_c, 1, 53, 78
4, 55821, Note_on_c, 1, 53, 0
4, 55920, Note_on_c, 1, 41, 78
4, 55965, Note_on_c, 1, 41, 0
4, 55968, Note_on_c, 1, 53, 78
4, 56013, Note_on_c, 1, 53, 0
4, 56208, Note_on_c, 1, 41, 0
4, 56253, Note_on_c, 1, 41, 0
4, 56256, End_track
5, 0, Start_track
5, 0, Program_c, 1, 0
5, 0, Control_c, 1, 7, 127
5, 0, Control_c, 1, 10, 64
5, 6528, Note_on_c, 1, 55, 64
5, 6705, Note_on_c, 1, 55, 0
5, 6912, Note_on_c, 1, 55, 64
5, 7045, Note_on_c, 1, 55, 0
5, 7056, Note_on_c, 1, 53, 64
5, 7101, Note_on_c, 1, 53, 0
5, 7104, Note_on_c, 1, 52, 64
5, 7193, Note_on_c, 1, 52, 0
5, 7200, Note_on_c, 1, 53, 64
5, 7289, Note_on_c, 1, 53, 0
5, 7296, Note_on_c, 1, 59, 64
5, 7385, Note_on_c, 1, 59, 0
5, 7392, Note_on_c, 1, 60, 64
5, 7481, Note_on_c, 1, 60, 0
5, 8064, Note_on_c, 1, 55, 64
5, 8197, Note_on_c, 1, 55, 0
5, 8448, Note_on_c, 1, 55, 64
5, 8589, Note_on_c, 1, 55, 0
5, 8640, Note_on_c, 1, 61, 64
5, 8736, Note_on_c, 1, 61, 0
5, 8736, Note_on_c, 1, 62, 64
5, 8825, Note_on_c, 1, 62, 0
5, 8832, Note_on_c, 1, 59, 64
5, 8928, Note_on_c, 1, 59, 0
5, 8928, Note_on_c, 1, 60, 64
5, 9017, Note_on_c, 1, 60, 0
5, 16512, Note_on_c, 1, 55, 64
5, 16689, Note_on_c, 1, 55, 0
5, 16896, Note_on_c, 1, 55, 64
5, 17029, Note_on_c, 1, 55, 0
5, 17040, Note_on_c, 1, 53, 64
5, 17085, Note_on_c, 1, 53, 0
5, 17088, Note_on_c, 1, 52, 64
5, 17177, Note_on_c, 1, 52, 0
5, 17184, Note_on_c, 1, 53, 64
5, 17273, Note_on_c, 1, 53, 0
5, 17280, Note_on_c, 1, 59, 64
5, 17369, Note_on_c, 1, 59, 0
5, 17376, Note_on_c, 1, 60, 64
5, 17465, Note_on_c, 1, 60, 0
5, 18048, Note_on_c, 1, 55, 64
5, 18181, Note_on_c, 1, 55, 0
5, 18432, Note_on_c, 1, 55, 64
5, 18573, Note_on_c, 1, 55, 0
5, 18624, Note_on_c, 1, 61, 64
5, 18720, Note_on_c, 1, 61, 0
5, 18720, Note_on_c, 1, 62, 64
5, 18809, Note_on_c, 1, 62, 0
5, 18816, Note_on_c, 1, 59, 64
5, 18912, Note_on_c, 1, 59, 0
5, 18912, Note_on_c, 1, 60, 64
5, 19001, Note_on_c, 1, 60, 0
5, 27264, Note_on_c, 1, 60, 64
5, 27441, Note_on_c, 1, 60, 0
5, 27456, Note_on_c, 1, 60, 64
5, 27825, Note_on_c, 1, 60, 0
5, 29952, Note_on_c, 1, 60, 86
5, 31281, Note_on_c, 1, 60, 0
5, 31296, Note_on_c, 1, 60, 86
5, 31385, Note_on_c, 1, 60, 0
5, 34560, Note_on_c, 1, 60, 86
5, 34737, Note_on_c, 1, 60, 0
5, 34944, Note_on_c, 1, 60, 86
5, 35077, Note_on_c, 1, 60, 0
5, 35088, Note_on_c, 1, 58, 86
5, 35133, Note_on_c, 1, 58, 0
5, 35136, Note_on_c, 1, 57, 86
5, 35225, Note_on_c, 1, 57, 0
5, 35232, Note_on_c, 1, 58, 86
5, 35321, Note_on_c, 1, 58, 0
5, 35328, Note_on_c, 1, 64, 86
5, 35424, Note_on_c, 1, 64, 0
5, 35424, Note_on_c, 1, 65, 86
5, 35513, Note_on_c, 1, 65, 0
5, 36096, Note_on_c, 1, 60, 86
5, 36237, Note_on_c, 1, 60, 0
5, 36480, Note_on_c, 1, 60, 86
5, 36621, Note_on_c, 1, 60, 0
5, 36672, Note_on_c, 1, 66, 86
5, 36768, Note_on_c, 1, 66, 0
5, 36768, Note_on_c, 1, 67, 86
5, 36857, Note_on_c, 1, 67, 0
5, 36864, Note_on_c, 1, 64, 86
5, 36960, Note_on_c, 1, 64, 0
5, 36960, Note_on_c, 1, 65, 86
5, 37049, Note_on_c, 1, 65, 0
5, 45312, Note_on_c, 1, 60, 64
5, 45489, Note_on_c, 1, 60, 0
5, 45504, Note_on_c, 1, 60, 64
5, 45873, Note_on_c, 1, 60, 0
5, 48000, Note_on_c, 1, 60, 86
5, 49329, Note_on_c, 1, 60, 0
5, 49344, Note_on_c, 1, 60, 86
5, 49433, Note_on_c, 1, 60, 0
5, 52608, Note_on_c, 1, 60, 86
5, 52785, Note_on_c, 1, 60, 0
5, 52992, Note_on_c, 1, 60, 86
5, 53125, Note_on_c, 1, 60, 0
5, 53136, Note_on_c, 1, 58, 86
5, 53181, Note_on_c, 1, 58, 0
5, 53184, Note_on_c, 1, 57, 86
5, 53273, Note_on_c, 1, 57, 0
5, 53280, Note_on_c, 1, 58, 86
5, 53369, Note_on_c, 1, 58, 0
5, 53376, Note_on_c, 1, 64, 86
5, 53472, Note_on_c, 1, 64, 0
5, 53472, Note_on_c, 1, 65, 86
5, 53561, Note_on_c, 1, 65, 0
5, 54144, Note_on_c, 1, 60, 86
5, 54285, Note_on_c, 1, 60, 0
5, 54528, Note_on_c, 1, 60, 86
5, 54669, Note_on_c, 1, 60, 0
5, 54720, Note_on_c, 1, 66, 86
5, 54816, Note_on_c, 1, 66, 0
5, 54816, Note_on_c, 1, 67, 86
5, 54905, Note_on_c, 1, 67, 0
5, 54912, Note_on_c, 1, 64, 86
5, 55008, Note_on_c, 1, 64, 0
5, 55008, Note_on_c, 1, 65, 86
5, 55097, Note_on_c, 1, 65, 0
5, 56256, End_track
6, 0, Start_track
6, 0, Title_t, "Piano Solo   <composer>  "
6, 0, End_track
0, 0, End_of_file
