0, 0, Header, 1, 6, 96
1, 0, Start_track
1, 0, Copyright_t, "Copyright  1994-2002 Mozart Music Software"
1, 0, Text_t, "Piano Solo\015\012"
1, 0, Text_t, "<composer>\015\012"
1, 0, Sequencer_specific, 16, 68, 87, 77, 90, 86, 82, 83, 78, 32, 55, 46, 48, 46, 55, 46, 48
1, 0, Time_signature, 3, 2, 24, 8
1, 0, Tempo, 461538
1, 0, Key_signature, -3, "major"
1, 14976, Key_signature, -2, "major"
1, 17856, Key_signature, -2, "major"
1, 28800, Key_signature, -3, "major"
1, 31104, Key_signature, -3, "major"
1, 43776, End_track
2, 0, Start_track
2, 0, Program_c, 0, 0
2, 0, Control_c, 0, 7, 127
2, 0, Control_c, 0, 10, 64
2, 0, Note_on_c, 0, 75, 75
2, 12, Note_on_c, 0, 75, 0
2, 12, Note_on_c, 0, 77, 75
2, 24, Note_on_c, 0, 77, 0
2, 24, Note_on_c, 0, 75, 75
2, 36, Note_on_c, 0, 75, 0
2, 36, Note_on_c, 0, 77, 75
2, 48, Note_on_c, 0, 77, 0
2, 48, Note_on_c, 0, 75, 75
2, 60, Note_on_c, 0, 75, 0
2, 60, Note_on_c, 0, 77, 75
2, 67, Note_on_c, 0, 77, 0
2, 72, Note_on_c, 0, 74, 75
2, 84, Note_on_c, 0, 74, 0
2, 84, Note_on_c, 0, 75, 75
2, 96, Note_on_c, 0, 75, 0
2, 96, Note_on_c, 0, 77, 75
2, 185, Note_on_c, 0, 77, 0
2, 288, Note_on_c, 0, 77, 75
2, 300, Note_on_c, 0, 77, 0
2, 300, Note_on_c, 0, 79, 75
2, 312, Note_on_c, 0, 79, 0
2, 312, Note_on_c, 0, 77, 75
2, 324, Note_on_c, 0, 77, 0
2, 324, Note_on_c, 0, 79, 75
2, 336, Note_on_c, 0, 79, 0
2, 336, Note_on_c, 0, 77, 75
2, 348, Note_on_c, 0, 77, 0
2, 348, Note_on_c, 0, 79, 75
2, 355, Note_on_c, 0, 79, 0
2, 360, Note_on_c, 0, 75, 75
2, 372, Note_on_c, 0, 75, 0
2, 372, Note_on_c, 0, 77, 75
2, 384, Note_on_c, 0, 77, 0
2, 384, Note_on_c, 0, 79, 75
2, 473, Note_on_c, 0, 79, 0
2, 576, Note_on_c, 0, 79, 75
2, 594, Note_on_c, 0, 79, 0
2, 594, Note_on_c, 0, 80, 75
2, 594, Note_on_c, 0, 72, 75
2, 665, Note_on_c, 0, 80, 0
2, 665, Note_on_c, 0, 72, 0
2, 672, Note_on_c, 0, 80, 75
2, 739, Note_on_c, 0, 80, 0
2, 744, Note_on_c, 0, 79, 75
2, 767, Note_on_c, 0, 79, 0
2, 768, Note_on_c, 0, 77, 75
2, 835, Note_on_c, 0, 77, 0
2, 840, Note_on_c, 0, 75, 75
2, 863, Note_on_c, 0, 75, 0
2, 864, Note_on_c, 0, 75, 75
2, 953, Note_on_c, 0, 75, 0
2, 960, Note_on_c, 0, 74, 75
2, 1049, Note_on_c, 0, 74, 0
2, 1056, Note_on_c, 0, 75, 75
2, 1145, Note_on_c, 0, 75, 0
2, 1152, Note_on_c, 0, 80, 75
2, 1152, Note_on_c, 0, 72, 75
2, 1241, Note_on_c, 0, 80, 0
2, 1241, Note_on_c, 0, 72, 0
2, 1248, Note_on_c, 0, 84, 75
2, 1278, Note_on_c, 0, 84, 0
2, 1280, Note_on_c, 0, 82, 75
2, 1310, Note_on_c, 0, 82, 0
2, 1312, Note_on_c, 0, 80, 75
2, 1342, Note_on_c, 0, 80, 0
2, 1344, Note_on_c, 0, 79, 75
2, 1374, Note_on_c, 0, 79, 0
2, 1376, Note_on_c, 0, 77, 75
2, 1406, Note_on_c, 0, 77, 0
2, 1408, Note_on_c, 0, 75, 75
2, 1438, Note_on_c, 0, 75, 0
2, 1440, Note_on_c, 0, 75, 75
2, 1529, Note_on_c, 0, 75, 0
2, 1536, Note_on_c, 0, 74, 75
2, 1549, Note_on_c, 0, 74, 0
2, 1550, Note_on_c, 0, 75, 75
2, 1563, Note_on_c, 0, 75, 0
2, 1564, Note_on_c, 0, 74, 75
2, 1577, Note_on_c, 0, 74, 0
2, 1578, Note_on_c, 0, 75, 75
2, 1591, Note_on_c, 0, 75, 0
2, 1592, Note_on_c, 0, 74, 75
2, 1605, Note_on_c, 0, 74, 0
2, 1606, Note_on_c, 0, 72, 75
2, 1618, Note_on_c, 0, 72, 0
2, 1619, Note_on_c, 0, 74, 75
2, 1631, Note_on_c, 0, 74, 0
2, 1632, Note_on_c, 0, 75, 75
2, 1699, Note_on_c, 0, 75, 0
2, 1704, Note_on_c, 0, 70, 75
2, 1704, Note_on_c, 0, 67, 75
2, 1727, Note_on_c, 0, 70, 0
2, 1727, Note_on_c, 0, 67, 0
2, 1728, Note_on_c, 0, 70, 75
2, 1728, Note_on_c, 0, 67, 75
2, 1817, Note_on_c, 0, 70, 0
2, 1817, Note_on_c, 0, 67, 0
2, 1824, Note_on_c, 0, 68, 73
2, 1824, Note_on_c, 0, 65, 73
2, 1913, Note_on_c, 0, 68, 0
2, 1913, Note_on_c, 0, 65, 0
2, 1920, Note_on_c, 0, 67, 71
2, 1920, Note_on_c, 0, 63, 71
2, 2009, Note_on_c, 0, 67, 0
2, 2009, Note_on_c, 0, 63, 0
2, 2016, Note_on_c, 0, 65, 70
2, 2016, Note_on_c, 0, 62, 70
2, 2193, Note_on_c, 0, 65, 0
2, 2193, Note_on_c, 0, 62, 0
2, 2304, Note_on_c, 0, 75, 75
2, 2316, Note_on_c, 0, 75, 0
2, 2316, Note_on_c, 0, 77, 75
2, 2328, Note_on_c, 0, 77, 0
2, 2328, Note_on_c, 0, 75, 75
2, 2340, Note_on_c, 0, 75, 0
2, 2340, Note_on_c, 0, 77, 75
2, 2352, Note_on_c, 0, 77, 0
2, 2352, Note_on_c, 0, 75, 75
2, 2364, Note_on_c, 0, 75, 0
2, 2364, Note_on_c, 0, 77, 75
2, 2371, Note_on_c, 0, 77, 0
2, 2376, Note_on_c, 0, 74, 75
2, 2388, Note_on_c, 0, 74, 0
2, 2388, Note_on_c, 0, 75, 75
2, 2400, Note_on_c, 0, 75, 0
2, 2400, Note_on_c, 0, 77, 75
2, 2489, Note_on_c, 0, 77, 0
2, 2592, Note_on_c, 0, 77, 75
2, 2604, Note_on_c, 0, 77, 0
2, 2604, Note_on_c, 0, 79, 75
2, 2616, Note_on_c, 0, 79, 0
2, 2616, Note_on_c, 0, 77, 75
2, 2628, Note_on_c, 0, 77, 0
2, 2628, Note_on_c, 0, 79, 75
2, 2640, Note_on_c, 0, 79, 0
2, 2640, Note_on_c, 0, 77, 75
2, 2652, Note_on_c, 0, 77, 0
2, 2652, Note_on_c, 0, 79, 75
2, 2659, Note_on_c, 0, 79, 0
2, 2664, Note_on_c, 0, 75, 75
2, 2676, Note_on_c, 0, 75, 0
2, 2676, Note_on_c, 0, 77, 75
2, 2688, Note_on_c, 0, 77, 0
2, 2688, Note_on_c, 0, 79, 75
2, 2777, Note_on_c, 0, 79, 0
2, 2880, Note_on_c, 0, 79, 75
2, 2898, Note_on_c, 0, 79, 0
2, 2898, Note_on_c, 0, 80, 75
2, 2898, Note_on_c, 0, 72, 75
2, 2969, Note_on_c, 0, 80, 0
2, 2969, Note_on_c, 0, 72, 0
2, 2976, Note_on_c, 0, 80, 75
2, 3043, Note_on_c, 0, 80, 0
2, 3048, Note_on_c, 0, 79, 75
2, 3071, Note_on_c, 0, 79, 0
2, 3072, Note_on_c, 0, 77, 75
2, 3139, Note_on_c, 0, 77, 0
2, 3144, Note_on_c, 0, 75, 75
2, 3167, Note_on_c, 0, 75, 0
2, 3168, Note_on_c, 0, 75, 75
2, 3257, Note_on_c, 0, 75, 0
2, 3264, Note_on_c, 0, 74, 75
2, 3353, Note_on_c, 0, 74, 0
2, 3360, Note_on_c, 0, 75, 75
2, 3449, Note_on_c, 0, 75, 0
2, 3456, Note_on_c, 0, 80, 75
2, 3456, Note_on_c, 0, 72, 75
2, 3545, Note_on_c, 0, 80, 0
2, 3545, Note_on_c, 0, 72, 0
2, 3552, Note_on_c, 0, 84, 75
2, 3582, Note_on_c, 0, 84, 0
2, 3584, Note_on_c, 0, 82, 75
2, 3614, Note_on_c, 0, 82, 0
2, 3616, Note_on_c, 0, 80, 75
2, 3646, Note_on_c, 0, 80, 0
2, 3648, Note_on_c, 0, 79, 75
2, 3678, Note_on_c, 0, 79, 0
2, 3680, Note_on_c, 0, 77, 75
2, 3710, Note_on_c, 0, 77, 0
2, 3712, Note_on_c, 0, 75, 75
2, 3742, Note_on_c, 0, 75, 0
2, 3744, Note_on_c, 0, 75, 75
2, 3833, Note_on_c, 0, 75, 0
2, 3840, Note_on_c, 0, 74, 75
2, 3853, Note_on_c, 0, 74, 0
2, 3854, Note_on_c, 0, 75, 75
2, 3867, Note_on_c, 0, 75, 0
2, 3868, Note_on_c, 0, 74, 75
2, 3881, Note_on_c, 0, 74, 0
2, 3882, Note_on_c, 0, 75, 75
2, 3895, Note_on_c, 0, 75, 0
2, 3896, Note_on_c, 0, 74, 75
2, 3909, Note_on_c, 0, 74, 0
2, 3910, Note_on_c, 0, 72, 75
2, 3922, Note_on_c, 0, 72, 0
2, 3923, Note_on_c, 0, 74, 75
2, 3935, Note_on_c, 0, 74, 0
2, 3936, Note_on_c, 0, 75, 75
2, 4003, Note_on_c, 0, 75, 0
2, 4008, Note_on_c, 0, 70, 75
2, 4008, Note_on_c, 0, 67, 75
2, 4031, Note_on_c, 0, 70, 0
2, 4031, Note_on_c, 0, 67, 0
2, 4032, Note_on_c, 0, 70, 75
2, 4032, Note_on_c, 0, 67, 75
2, 4121, Note_on_c, 0, 70, 0
2, 4121, Note_on_c, 0, 67, 0
2, 4128, Note_on_c, 0, 68, 73
2, 4128, Note_on_c, 0, 65, 73
2, 4217, Note_on_c, 0, 68, 0
2, 4217, Note_on_c, 0, 65, 0
2, 4224, Note_on_c, 0, 67, 71
2, 4224, Note_on_c, 0, 63, 71
2, 4313, Note_on_c, 0, 67, 0
2, 4313, Note_on_c, 0, 63, 0
2, 4320, Note_on_c, 0, 65, 70
2, 4320, Note_on_c, 0, 62, 70
2, 4497, Note_on_c, 0, 65, 0
2, 4497, Note_on_c, 0, 62, 0
2, 4992, Note_on_c, 0, 74, 70
2, 4992, Note_on_c, 0, 68, 70
2, 5088, Note_on_c, 0, 74, 0
2, 5088, Note_on_c, 0, 68, 0
2, 5088, Note_on_c, 0, 75, 70
2, 5088, Note_on_c, 0, 67, 70
2, 5182, Note_on_c, 0, 75, 0
2, 5182, Note_on_c, 0, 67, 0
2, 5568, Note_on_c, 0, 80, 70
2, 5568, Note_on_c, 0, 77, 70
2, 5664, Note_on_c, 0, 80, 0
2, 5664, Note_on_c, 0, 77, 0
2, 5664, Note_on_c, 0, 79, 70
2, 5664, Note_on_c, 0, 75, 70
2, 5758, Note_on_c, 0, 79, 0
2, 5758, Note_on_c, 0, 75, 0
2, 5808, Note_on_c, 0, 78, 70
2, 5853, Note_on_c, 0, 78, 0
2, 5856, Note_on_c, 0, 77, 71
2, 5901, Note_on_c, 0, 77, 0
2, 5904, Note_on_c, 0, 75, 71
2, 5949, Note_on_c, 0, 75, 0
2, 5952, Note_on_c, 0, 74, 72
2, 5997, Note_on_c, 0, 74, 0
2, 6000, Note_on_c, 0, 75, 72
2, 6045, Note_on_c, 0, 75, 0
2, 6096, Note_on_c, 0, 78, 74
2, 6141, Note_on_c, 0, 78, 0
2, 6144, Note_on_c, 0, 77, 74
2, 6189, Note_on_c, 0, 77, 0
2, 6192, Note_on_c, 0, 75, 75
2, 6237, Note_on_c, 0, 75, 0
2, 6240, Note_on_c, 0, 74, 75
2, 6285, Note_on_c, 0, 74, 0
2, 6288, Note_on_c, 0, 75, 76
2, 6333, Note_on_c, 0, 75, 0
2, 6384, Note_on_c, 0, 78, 77
2, 6429, Note_on_c, 0, 78, 0
2, 6432, Note_on_c, 0, 77, 78
2, 6477, Note_on_c, 0, 77, 0
2, 6480, Note_on_c, 0, 75, 78
2, 6525, Note_on_c, 0, 75, 0
2, 6528, Note_on_c, 0, 74, 79
2, 6573, Note_on_c, 0, 74, 0
2, 6576, Note_on_c, 0, 75, 80
2, 6621, Note_on_c, 0, 75, 0
2, 6624, Note_on_c, 0, 74, 80
2, 6654, Note_on_c, 0, 74, 0
2, 6656, Note_on_c, 0, 75, 81
2, 6686, Note_on_c, 0, 75, 0
2, 6688, Note_on_c, 0, 77, 81
2, 6718, Note_on_c, 0, 77, 0
2, 6720, Note_on_c, 0, 70, 81
2, 6809, Note_on_c, 0, 70, 0
2, 6912, Note_on_c, 0, 75, 75
2, 6924, Note_on_c, 0, 75, 0
2, 6924, Note_on_c, 0, 77, 75
2, 6936, Note_on_c, 0, 77, 0
2, 6936, Note_on_c, 0, 75, 75
2, 6948, Note_on_c, 0, 75, 0
2, 6948, Note_on_c, 0, 77, 75
2, 6960, Note_on_c, 0, 77, 0
2, 6960, Note_on_c, 0, 75, 75
2, 6972, Note_on_c, 0, 75, 0
2, 6972, Note_on_c, 0, 77, 75
2, 6979, Note_on_c, 0, 77, 0
2, 6984, Note_on_c, 0, 74, 75
2, 6996, Note_on_c, 0, 74, 0
2, 6996, Note_on_c, 0, 75, 75
2, 7008, Note_on_c, 0, 75, 0
2, 7008, Note_on_c, 0, 77, 75
2, 7097, Note_on_c, 0, 77, 0
2, 7200, Note_on_c, 0, 77, 75
2, 7212, Note_on_c, 0, 77, 0
2, 7212, Note_on_c, 0, 79, 75
2, 7224, Note_on_c, 0, 79, 0
2, 7224, Note_on_c, 0, 77, 75
2, 7236, Note_on_c, 0, 77, 0
2, 7236, Note_on_c, 0, 79, 75
2, 7248, Note_on_c, 0, 79, 0
2, 7248, Note_on_c, 0, 77, 75
2, 7260, Note_on_c, 0, 77, 0
2, 7260, Note_on_c, 0, 79, 75
2, 7267, Note_on_c, 0, 79, 0
2, 7272, Note_on_c, 0, 75, 75
2, 7284, Note_on_c, 0, 75, 0
2, 7284, Note_on_c, 0, 77, 75
2, 7296, Note_on_c, 0, 77, 0
2, 7296, Note_on_c, 0, 79, 75
2, 7385, Note_on_c, 0, 79, 0
2, 7488, Note_on_c, 0, 79, 75
2, 7506, Note_on_c, 0, 79, 0
2, 7506, Note_on_c, 0, 80, 75
2, 7506, Note_on_c, 0, 72, 75
2, 7577, Note_on_c, 0, 80, 0
2, 7577, Note_on_c, 0, 72, 0
2, 7584, Note_on_c, 0, 80, 75
2, 7651, Note_on_c, 0, 80, 0
2, 7656, Note_on_c, 0, 79, 75
2, 7679, Note_on_c, 0, 79, 0
2, 7680, Note_on_c, 0, 77, 75
2, 7747, Note_on_c, 0, 77, 0
2, 7752, Note_on_c, 0, 75, 75
2, 7775, Note_on_c, 0, 75, 0
2, 7776, Note_on_c, 0, 75, 75
2, 7865, Note_on_c, 0, 75, 0
2, 7872, Note_on_c, 0, 74, 75
2, 7961, Note_on_c, 0, 74, 0
2, 7968, Note_on_c, 0, 75, 75
2, 8057, Note_on_c, 0, 75, 0
2, 8064, Note_on_c, 0, 80, 75
2, 8064, Note_on_c, 0, 72, 75
2, 8153, Note_on_c, 0, 80, 0
2, 8153, Note_on_c, 0, 72, 0
2, 8160, Note_on_c, 0, 84, 75
2, 8190, Note_on_c, 0, 84, 0
2, 8192, Note_on_c, 0, 82, 75
2, 8222, Note_on_c, 0, 82, 0
2, 8224, Note_on_c, 0, 80, 75
2, 8254, Note_on_c, 0, 80, 0
2, 8256, Note_on_c, 0, 79, 75
2, 8286, Note_on_c, 0, 79, 0
2, 8288, Note_on_c, 0, 77, 75
2, 8318, Note_on_c, 0, 77, 0
2, 8320, Note_on_c, 0, 75, 75
2, 8350, Note_on_c, 0, 75, 0
2, 8352, Note_on_c, 0, 75, 75
2, 8441, Note_on_c, 0, 75, 0
2, 8448, Note_on_c, 0, 74, 75
2, 8461, Note_on_c, 0, 74, 0
2, 8462, Note_on_c, 0, 75, 75
2, 8475, Note_on_c, 0, 75, 0
2, 8476, Note_on_c, 0, 74, 75
2, 8489, Note_on_c, 0, 74, 0
2, 8490, Note_on_c, 0, 75, 75
2, 8503, Note_on_c, 0, 75, 0
2, 8504, Note_on_c, 0, 74, 75
2, 8517, Note_on_c, 0, 74, 0
2, 8518, Note_on_c, 0, 72, 75
2, 8530, Note_on_c, 0, 72, 0
2, 8531, Note_on_c, 0, 74, 75
2, 8543, Note_on_c, 0, 74, 0
2, 8544, Note_on_c, 0, 75, 75
2, 8633, Note_on_c, 0, 75, 0
2, 8688, Note_on_c, 0, 72, 75
2, 8733, Note_on_c, 0, 72, 0
2, 8736, Note_on_c, 0, 71, 75
2, 8781, Note_on_c, 0, 71, 0
2, 8784, Note_on_c, 0, 72, 75
2, 8829, Note_on_c, 0, 72, 0
2, 8832, Note_on_c, 0, 75, 75
2, 8877, Note_on_c, 0, 75, 0
2, 8880, Note_on_c, 0, 72, 75
2, 8925, Note_on_c, 0, 72, 0
2, 8976, Note_on_c, 0, 70, 75
2, 9021, Note_on_c, 0, 70, 0
2, 9024, Note_on_c, 0, 69, 75
2, 9069, Note_on_c, 0, 69, 0
2, 9072, Note_on_c, 0, 70, 75
2, 9117, Note_on_c, 0, 70, 0
2, 9120, Note_on_c, 0, 75, 75
2, 9165, Note_on_c, 0, 75, 0
2, 9168, Note_on_c, 0, 70, 75
2, 9213, Note_on_c, 0, 70, 0
2, 9216, Note_on_c, 0, 74, 75
2, 9239, Note_on_c, 0, 74, 0
2, 9240, Note_on_c, 0, 72, 75
2, 9263, Note_on_c, 0, 72, 0
2, 9264, Note_on_c, 0, 70, 75
2, 9287, Note_on_c, 0, 70, 0
2, 9288, Note_on_c, 0, 68, 75
2, 9311, Note_on_c, 0, 68, 0
2, 9312, Note_on_c, 0, 67, 75
2, 9401, Note_on_c, 0, 67, 0
2, 9408, Note_on_c, 0, 65, 75
2, 9421, Note_on_c, 0, 65, 0
2, 9422, Note_on_c, 0, 67, 75
2, 9435, Note_on_c, 0, 67, 0
2, 9436, Note_on_c, 0, 65, 75
2, 9449, Note_on_c, 0, 65, 0
2, 9450, Note_on_c, 0, 67, 75
2, 9463, Note_on_c, 0, 67, 0
2, 9464, Note_on_c, 0, 65, 75
2, 9477, Note_on_c, 0, 65, 0
2, 9478, Note_on_c, 0, 63, 75
2, 9490, Note_on_c, 0, 63, 0
2, 9491, Note_on_c, 0, 65, 75
2, 9503, Note_on_c, 0, 65, 0
2, 9504, Note_on_c, 0, 63, 75
2, 9681, Note_on_c, 0, 63, 0
2, 10176, Note_on_c, 0, 74, 70
2, 10176, Note_on_c, 0, 68, 70
2, 10272, Note_on_c, 0, 74, 0
2, 10272, Note_on_c, 0, 68, 0
2, 10272, Note_on_c, 0, 75, 70
2, 10272, Note_on_c, 0, 67, 70
2, 10366, Note_on_c, 0, 75, 0
2, 10366, Note_on_c, 0, 67, 0
2, 10752, Note_on_c, 0, 80, 70
2, 10752, Note_on_c, 0, 77, 70
2, 10848, Note_on_c, 0, 80, 0
2, 10848, Note_on_c, 0, 77, 0
2, 10848, Note_on_c, 0, 79, 70
2, 10848, Note_on_c, 0, 75, 70
2, 10942, Note_on_c, 0, 79, 0
2, 10942, Note_on_c, 0, 75, 0
2, 10992, Note_on_c, 0, 78, 70
2, 11037, Note_on_c, 0, 78, 0
2, 11040, Note_on_c, 0, 77, 71
2, 11085, Note_on_c, 0, 77, 0
2, 11088, Note_on_c, 0, 75, 71
2, 11133, Note_on_c, 0, 75, 0
2, 11136, Note_on_c, 0, 74, 72
2, 11181, Note_on_c, 0, 74, 0
2, 11184, Note_on_c, 0, 75, 72
2, 11229, Note_on_c, 0, 75, 0
2, 11280, Note_on_c, 0, 78, 74
2, 11325, Note_on_c, 0, 78, 0
2, 11328, Note_on_c, 0, 77, 74
2, 11373, Note_on_c, 0, 77, 0
2, 11376, Note_on_c, 0, 75, 75
2, 11421, Note_on_c, 0, 75, 0
2, 11424, Note_on_c, 0, 74, 75
2, 11469, Note_on_c, 0, 74, 0
2, 11472, Note_on_c, 0, 75, 76
2, 11517, Note_on_c, 0, 75, 0
2, 11568, Note_on_c, 0, 78, 77
2, 11613, Note_on_c, 0, 78, 0
2, 11616, Note_on_c, 0, 77, 78
2, 11661, Note_on_c, 0, 77, 0
2, 11664, Note_on_c, 0, 75, 78
2, 11709, Note_on_c, 0, 75, 0
2, 11712, Note_on_c, 0, 74, 79
2, 11757, Note_on_c, 0, 74, 0
2, 11760, Note_on_c, 0, 75, 80
2, 11805, Note_on_c, 0, 75, 0
2, 11808, Note_on_c, 0, 74, 80
2, 11838, Note_on_c, 0, 74, 0
2, 11840, Note_on_c, 0, 75, 81
2, 11870, Note_on_c, 0, 75, 0
2, 11872, Note_on_c, 0, 77, 81
2, 11902, Note_on_c, 0, 77, 0
2, 11904, Note_on_c, 0, 70, 81
2, 11993, Note_on_c, 0, 70, 0
2, 12096, Note_on_c, 0, 75, 75
2, 12108, Note_on_c, 0, 75, 0
2, 12108, Note_on_c, 0, 77, 75
2, 12120, Note_on_c, 0, 77, 0
2, 12120, Note_on_c, 0, 75, 75
2, 12132, Note_on_c, 0, 75, 0
2, 12132, Note_on_c, 0, 77, 75
2, 12144, Note_on_c, 0, 77, 0
2, 12144, Note_on_c, 0, 75, 75
2, 12156, Note_on_c, 0, 75, 0
2, 12156, Note_on_c, 0, 77, 75
2, 12163, Note_on_c, 0, 77, 0
2, 12168, Note_on_c, 0, 74, 75
2, 12180, Note_on_c, 0, 74, 0
2, 12180, Note_on_c, 0, 75, 75
2, 12192, Note_on_c, 0, 75, 0
2, 12192, Note_on_c, 0, 77, 75
2, 12281, Note_on_c, 0, 77, 0
2, 12384, Note_on_c, 0, 77, 75
2, 12396, Note_on_c, 0, 77, 0
2, 12396, Note_on_c, 0, 79, 75
2, 12408, Note_on_c, 0, 79, 0
2, 12408, Note_on_c, 0, 77, 75
2, 12420, Note_on_c, 0, 77, 0
2, 12420, Note_on_c, 0, 79, 75
2, 12432, Note_on_c, 0, 79, 0
2, 12432, Note_on_c, 0, 77, 75
2, 12444, Note_on_c, 0, 77, 0
2, 12444, Note_on_c, 0, 79, 75
2, 12451, Note_on_c, 0, 79, 0
2, 12456, Note_on_c, 0, 75, 75
2, 12468, Note_on_c, 0, 75, 0
2, 12468, Note_on_c, 0, 77, 75
2, 12480, Note_on_c, 0, 77, 0
2, 12480, Note_on_c, 0, 79, 75
2, 12569, Note_on_c, 0, 79, 0
2, 12672, Note_on_c, 0, 79, 75
2, 12690, Note_on_c, 0, 79, 0
2, 12690, Note_on_c, 0, 80, 75
2, 12690, Note_on_c, 0, 72, 75
2, 12761, Note_on_c, 0, 80, 0
2, 12761, Note_on_c, 0, 72, 0
2, 12768, Note_on_c, 0, 80, 75
2, 12835, Note_on_c, 0, 80, 0
2, 12840, Note_on_c, 0, 79, 75
2, 12863, Note_on_c, 0, 79, 0
2, 12864, Note_on_c, 0, 77, 75
2, 12931, Note_on_c, 0, 77, 0
2, 12936, Note_on_c, 0, 75, 75
2, 12959, Note_on_c, 0, 75, 0
2, 12960, Note_on_c, 0, 75, 75
2, 13049, Note_on_c, 0, 75, 0
2, 13056, Note_on_c, 0, 74, 75
2, 13145, Note_on_c, 0, 74, 0
2, 13152, Note_on_c, 0, 75, 75
2, 13241, Note_on_c, 0, 75, 0
2, 13248, Note_on_c, 0, 80, 75
2, 13248, Note_on_c, 0, 72, 75
2, 13337, Note_on_c, 0, 80, 0
2, 13337, Note_on_c, 0, 72, 0
2, 13344, Note_on_c, 0, 84, 75
2, 13374, Note_on_c, 0, 84, 0
2, 13376, Note_on_c, 0, 82, 75
2, 13406, Note_on_c, 0, 82, 0
2, 13408, Note_on_c, 0, 80, 75
2, 13438, Note_on_c, 0, 80, 0
2, 13440, Note_on_c, 0, 79, 75
2, 13470, Note_on_c, 0, 79, 0
2, 13472, Note_on_c, 0, 77, 75
2, 13502, Note_on_c, 0, 77, 0
2, 13504, Note_on_c, 0, 75, 75
2, 13534, Note_on_c, 0, 75, 0
2, 13536, Note_on_c, 0, 75, 75
2, 13625, Note_on_c, 0, 75, 0
2, 13632, Note_on_c, 0, 74, 75
2, 13645, Note_on_c, 0, 74, 0
2, 13646, Note_on_c, 0, 75, 75
2, 13659, Note_on_c, 0, 75, 0
2, 13660, Note_on_c, 0, 74, 75
2, 13673, Note_on_c, 0, 74, 0
2, 13674, Note_on_c, 0, 75, 75
2, 13687, Note_on_c, 0, 75, 0
2, 13688, Note_on_c, 0, 74, 75
2, 13701, Note_on_c, 0, 74, 0
2, 13702, Note_on_c, 0, 72, 75
2, 13714, Note_on_c, 0, 72, 0
2, 13715, Note_on_c, 0, 74, 75
2, 13727, Note_on_c, 0, 74, 0
2, 13728, Note_on_c, 0, 75, 75
2, 13817, Note_on_c, 0, 75, 0
2, 13872, Note_on_c, 0, 72, 75
2, 13917, Note_on_c, 0, 72, 0
2, 13920, Note_on_c, 0, 71, 75
2, 13965, Note_on_c, 0, 71, 0
2, 13968, Note_on_c, 0, 72, 75
2, 14013, Note_on_c, 0, 72, 0
2, 14016, Note_on_c, 0, 75, 75
2, 14061, Note_on_c, 0, 75, 0
2, 14064, Note_on_c, 0, 72, 75
2, 14109, Note_on_c, 0, 72, 0
2, 14160, Note_on_c, 0, 70, 75
2, 14205, Note_on_c, 0, 70, 0
2, 14208, Note_on_c, 0, 69, 75
2, 14253, Note_on_c, 0, 69, 0
2, 14256, Note_on_c, 0, 70, 75
2, 14301, Note_on_c, 0, 70, 0
2, 14304, Note_on_c, 0, 75, 75
2, 14349, Note_on_c, 0, 75, 0
2, 14352, Note_on_c, 0, 70, 75
2, 14397, Note_on_c, 0, 70, 0
2, 14400, Note_on_c, 0, 74, 75
2, 14423, Note_on_c, 0, 74, 0
2, 14424, Note_on_c, 0, 72, 75
2, 14447, Note_on_c, 0, 72, 0
2, 14448, Note_on_c, 0, 70, 75
2, 14471, Note_on_c, 0, 70, 0
2, 14472, Note_on_c, 0, 68, 75
2, 14495, Note_on_c, 0, 68, 0
2, 14496, Note_on_c, 0, 67, 75
2, 14585, Note_on_c, 0, 67, 0
2, 14592, Note_on_c, 0, 65, 75
2, 14605, Note_on_c, 0, 65, 0
2, 14606, Note_on_c, 0, 67, 75
2, 14619, Note_on_c, 0, 67, 0
2, 14620, Note_on_c, 0, 65, 75
2, 14633, Note_on_c, 0, 65, 0
2, 14634, Note_on_c, 0, 67, 75
2, 14647, Note_on_c, 0, 67, 0
2, 14648, Note_on_c, 0, 65, 75
2, 14661, Note_on_c, 0, 65, 0
2, 14662, Note_on_c, 0, 63, 75
2, 14674, Note_on_c, 0, 63, 0
2, 14675, Note_on_c, 0, 65, 75
2, 14687, Note_on_c, 0, 65, 0
2, 14688, Note_on_c, 0, 63, 75
2, 14865, Note_on_c, 0, 63, 0
2, 15024, Note_on_c, 0, 79, 75
2, 15044, Note_on_c, 0, 79, 0
2, 15072, Note_on_c, 0, 79, 74
2, 15120, Note_on_c, 0, 79, 0
2, 15120, Note_on_c, 0, 80, 74
2, 15165, Note_on_c, 0, 80, 0
2, 15168, Note_on_c, 0, 80, 74
2, 15216, Note_on_c, 0, 80, 0
2, 15216, Note_on_c, 0, 79, 73
2, 15261, Note_on_c, 0, 79, 0
2, 15264, Note_on_c, 0, 78, 73
2, 15529, Note_on_c, 0, 78, 0
2, 15600, Note_on_c, 0, 77, 71
2, 15620, Note_on_c, 0, 77, 0
2, 15648, Note_on_c, 0, 77, 71
2, 15696, Note_on_c, 0, 77, 0
2, 15696, Note_on_c, 0, 79, 71
2, 15741, Note_on_c, 0, 79, 0
2, 15744, Note_on_c, 0, 79, 71
2, 15792, Note_on_c, 0, 79, 0
2, 15792, Note_on_c, 0, 77, 70
2, 15837, Note_on_c, 0, 77, 0
2, 15840, Note_on_c, 0, 76, 70
2, 16105, Note_on_c, 0, 76, 0
2, 16176, Note_on_c, 0, 75, 68
2, 16196, Note_on_c, 0, 75, 0
2, 16224, Note_on_c, 0, 75, 68
2, 16272, Note_on_c, 0, 75, 0
2, 16272, Note_on_c, 0, 77, 68
2, 16317, Note_on_c, 0, 77, 0
2, 16320, Note_on_c, 0, 77, 68
2, 16368, Note_on_c, 0, 77, 0
2, 16368, Note_on_c, 0, 75, 67
2, 16413, Note_on_c, 0, 75, 0
2, 16416, Note_on_c, 0, 74, 67
2, 16681, Note_on_c, 0, 74, 0
2, 16752, Note_on_c, 0, 75, 81
2, 16752, Note_on_c, 0, 67, 81
2, 16772, Note_on_c, 0, 75, 0
2, 16772, Note_on_c, 0, 67, 0
2, 16800, Note_on_c, 0, 75, 81
2, 16800, Note_on_c, 0, 67, 81
2, 16845, Note_on_c, 0, 75, 0
2, 16845, Note_on_c, 0, 67, 0
2, 16848, Note_on_c, 0, 79, 81
2, 16848, Note_on_c, 0, 75, 81
2, 16893, Note_on_c, 0, 79, 0
2, 16893, Note_on_c, 0, 75, 0
2, 16896, Note_on_c, 0, 79, 81
2, 16896, Note_on_c, 0, 75, 81
2, 16941, Note_on_c, 0, 79, 0
2, 16941, Note_on_c, 0, 75, 0
2, 16944, Note_on_c, 0, 75, 81
2, 16944, Note_on_c, 0, 67, 81
2, 16989, Note_on_c, 0, 75, 0
2, 16989, Note_on_c, 0, 67, 0
2, 17040, Note_on_c, 0, 75, 81
2, 17040, Note_on_c, 0, 67, 81
2, 17060, Note_on_c, 0, 75, 0
2, 17060, Note_on_c, 0, 67, 0
2, 17088, Note_on_c, 0, 75, 81
2, 17088, Note_on_c, 0, 67, 81
2, 17133, Note_on_c, 0, 75, 0
2, 17133, Note_on_c, 0, 67, 0
2, 17136, Note_on_c, 0, 79, 81
2, 17136, Note_on_c, 0, 75, 81
2, 17181, Note_on_c, 0, 79, 0
2, 17181, Note_on_c, 0, 75, 0
2, 17184, Note_on_c, 0, 79, 81
2, 17184, Note_on_c, 0, 75, 81
2, 17229, Note_on_c, 0, 79, 0
2, 17229, Note_on_c, 0, 75, 0
2, 17232, Note_on_c, 0, 75, 81
2, 17232, Note_on_c, 0, 67, 81
2, 17277, Note_on_c, 0, 75, 0
2, 17277, Note_on_c, 0, 67, 0
2, 17280, Note_on_c, 0, 72, 81
2, 17310, Note_on_c, 0, 72, 0
2, 17312, Note_on_c, 0, 77, 80
2, 17342, Note_on_c, 0, 77, 0
2, 17344, Note_on_c, 0, 80, 79
2, 17374, Note_on_c, 0, 80, 0
2, 17376, Note_on_c, 0, 79, 78
2, 17376, Note_on_c, 0, 75, 78
2, 17472, Note_on_c, 0, 79, 0
2, 17472, Note_on_c, 0, 75, 0
2, 17472, Note_on_c, 0, 77, 75
2, 17472, Note_on_c, 0, 74, 75
2, 17561, Note_on_c, 0, 77, 0
2, 17561, Note_on_c, 0, 74, 0
2, 17568, Note_on_c, 0, 75, 72
2, 17745, Note_on_c, 0, 75, 0
2, 17904, Note_on_c, 0, 79, 75
2, 17924, Note_on_c, 0, 79, 0
2, 17952, Note_on_c, 0, 79, 74
2, 18000, Note_on_c, 0, 79, 0
2, 18000, Note_on_c, 0, 80, 74
2, 18045, Note_on_c, 0, 80, 0
2, 18048, Note_on_c, 0, 80, 74
2, 18096, Note_on_c, 0, 80, 0
2, 18096, Note_on_c, 0, 79, 73
2, 18141, Note_on_c, 0, 79, 0
2, 18144, Note_on_c, 0, 78, 73
2, 18409, Note_on_c, 0, 78, 0
2, 18480, Note_on_c, 0, 77, 71
2, 18500, Note_on_c, 0, 77, 0
2, 18528, Note_on_c, 0, 77, 71
2, 18576, Note_on_c, 0, 77, 0
2, 18576, Note_on_c, 0, 79, 71
2, 18621, Note_on_c, 0, 79, 0
2, 18624, Note_on_c, 0, 79, 71
2, 18672, Note_on_c, 0, 79, 0
2, 18672, Note_on_c, 0, 77, 70
2, 18717, Note_on_c, 0, 77, 0
2, 18720, Note_on_c, 0, 76, 70
2, 18985, Note_on_c, 0, 76, 0
2, 19056, Note_on_c, 0, 75, 68
2, 19076, Note_on_c, 0, 75, 0
2, 19104, Note_on_c, 0, 75, 68
2, 19152, Note_on_c, 0, 75, 0
2, 19152, Note_on_c, 0, 77, 68
2, 19197, Note_on_c, 0, 77, 0
2, 19200, Note_on_c, 0, 77, 68
2, 19248, Note_on_c, 0, 77, 0
2, 19248, Note_on_c, 0, 75, 67
2, 19293, Note_on_c, 0, 75, 0
2, 19296, Note_on_c, 0, 74, 67
2, 19561, Note_on_c, 0, 74, 0
2, 19632, Note_on_c, 0, 75, 81
2, 19632, Note_on_c, 0, 67, 81
2, 19652, Note_on_c, 0, 75, 0
2, 19652, Note_on_c, 0, 67, 0
2, 19680, Note_on_c, 0, 75, 81
2, 19680, Note_on_c, 0, 67, 81
2, 19725, Note_on_c, 0, 75, 0
2, 19725, Note_on_c, 0, 67, 0
2, 19728, Note_on_c, 0, 79, 81
2, 19728, Note_on_c, 0, 75, 81
2, 19773, Note_on_c, 0, 79, 0
2, 19773, Note_on_c, 0, 75, 0
2, 19776, Note_on_c, 0, 79, 81
2, 19776, Note_on_c, 0, 75, 81
2, 19821, Note_on_c, 0, 79, 0
2, 19821, Note_on_c, 0, 75, 0
2, 19824, Note_on_c, 0, 75, 81
2, 19824, Note_on_c, 0, 67, 81
2, 19869, Note_on_c, 0, 75, 0
2, 19869, Note_on_c, 0, 67, 0
2, 19920, Note_on_c, 0, 75, 81
2, 19920, Note_on_c, 0, 67, 81
2, 19940, Note_on_c, 0, 75, 0
2, 19940, Note_on_c, 0, 67, 0
2, 19968, Note_on_c, 0, 75, 81
2, 19968, Note_on_c, 0, 67, 81
2, 20013, Note_on_c, 0, 75, 0
2, 20013, Note_on_c, 0, 67, 0
2, 20016, Note_on_c, 0, 79, 81
2, 20016, Note_on_c, 0, 75, 81
2, 20061, Note_on_c, 0, 79, 0
2, 20061, Note_on_c, 0, 75, 0
2, 20064, Note_on_c, 0, 79, 81
2, 20064, Note_on_c, 0, 75, 81
2, 20109, Note_on_c, 0, 79, 0
2, 20109, Note_on_c, 0, 75, 0
2, 20112, Note_on_c, 0, 75, 81
2, 20112, Note_on_c, 0, 67, 81
2, 20157, Note_on_c, 0, 75, 0
2, 20157, Note_on_c, 0, 67, 0
2, 20160, Note_on_c, 0, 72, 81
2, 20190, Note_on_c, 0, 72, 0
2, 20192, Note_on_c, 0, 77, 80
2, 20222, Note_on_c, 0, 77, 0
2, 20224, Note_on_c, 0, 80, 79
2, 20254, Note_on_c, 0, 80, 0
2, 20256, Note_on_c, 0, 79, 78
2, 20256, Note_on_c, 0, 75, 78
2, 20352, Note_on_c, 0, 79, 0
2, 20352, Note_on_c, 0, 75, 0
2, 20352, Note_on_c, 0, 77, 75
2, 20352, Note_on_c, 0, 74, 75
2, 20441, Note_on_c, 0, 77, 0
2, 20441, Note_on_c, 0, 74, 0
2, 20448, Note_on_c, 0, 75, 72
2, 20625, Note_on_c, 0, 75, 0
2, 20784, Note_on_c, 0, 67, 70
2, 20804, Note_on_c, 0, 67, 0
2, 20832, Note_on_c, 0, 67, 70
2, 20880, Note_on_c, 0, 67, 0
2, 20880, Note_on_c, 0, 72, 70
2, 20925, Note_on_c, 0, 72, 0
2, 20928, Note_on_c, 0, 72, 71
2, 20976, Note_on_c, 0, 72, 0
2, 20976, Note_on_c, 0, 70, 71
2, 21021, Note_on_c, 0, 70, 0
2, 21024, Note_on_c, 0, 69, 72
2, 21289, Note_on_c, 0, 69, 0
2, 21360, Note_on_c, 0, 69, 75
2, 21380, Note_on_c, 0, 69, 0
2, 21408, Note_on_c, 0, 69, 76
2, 21456, Note_on_c, 0, 69, 0
2, 21456, Note_on_c, 0, 74, 76
2, 21501, Note_on_c, 0, 74, 0
2, 21504, Note_on_c, 0, 74, 77
2, 21552, Note_on_c, 0, 74, 0
2, 21552, Note_on_c, 0, 72, 77
2, 21597, Note_on_c, 0, 72, 0
2, 21600, Note_on_c, 0, 71, 78
2, 21865, Note_on_c, 0, 71, 0
2, 21936, Note_on_c, 0, 71, 81
2, 21956, Note_on_c, 0, 71, 0
2, 21984, Note_on_c, 0, 71, 81
2, 22032, Note_on_c, 0, 71, 0
2, 22032, Note_on_c, 0, 75, 81
2, 22077, Note_on_c, 0, 75, 0
2, 22080, Note_on_c, 0, 75, 81
2, 22128, Note_on_c, 0, 75, 0
2, 22128, Note_on_c, 0, 74, 81
2, 22173, Note_on_c, 0, 74, 0
2, 22176, Note_on_c, 0, 72, 81
2, 22224, Note_on_c, 0, 72, 0
2, 22224, Note_on_c, 0, 71, 81
2, 22269, Note_on_c, 0, 71, 0
2, 22272, Note_on_c, 0, 72, 78
2, 22320, Note_on_c, 0, 72, 0
2, 22320, Note_on_c, 0, 68, 76
2, 22365, Note_on_c, 0, 68, 0
2, 22368, Note_on_c, 0, 67, 74
2, 22416, Note_on_c, 0, 67, 0
2, 22416, Note_on_c, 0, 66, 72
2, 22461, Note_on_c, 0, 66, 0
2, 22464, Note_on_c, 0, 66, 70
2, 22560, Note_on_c, 0, 66, 0
2, 22560, Note_on_c, 0, 67, 66
2, 22649, Note_on_c, 0, 67, 0
2, 22800, Note_on_c, 0, 79, 81
2, 22820, Note_on_c, 0, 79, 0
2, 22848, Note_on_c, 0, 79, 80
2, 22896, Note_on_c, 0, 79, 0
2, 22896, Note_on_c, 0, 80, 79
2, 22941, Note_on_c, 0, 80, 0
2, 22944, Note_on_c, 0, 80, 78
2, 22992, Note_on_c, 0, 80, 0
2, 22992, Note_on_c, 0, 79, 77
2, 23037, Note_on_c, 0, 79, 0
2, 23040, Note_on_c, 0, 78, 76
2, 23305, Note_on_c, 0, 78, 0
2, 23376, Note_on_c, 0, 77, 70
2, 23396, Note_on_c, 0, 77, 0
2, 23424, Note_on_c, 0, 77, 69
2, 23472, Note_on_c, 0, 77, 0
2, 23472, Note_on_c, 0, 79, 68
2, 23517, Note_on_c, 0, 79, 0
2, 23520, Note_on_c, 0, 79, 67
2, 23568, Note_on_c, 0, 79, 0
2, 23568, Note_on_c, 0, 77, 66
2, 23613, Note_on_c, 0, 77, 0
2, 23664, Note_on_c, 0, 75, 81
2, 23664, Note_on_c, 0, 72, 81
2, 23684, Note_on_c, 0, 75, 0
2, 23684, Note_on_c, 0, 72, 0
2, 23712, Note_on_c, 0, 75, 81
2, 23712, Note_on_c, 0, 72, 81
2, 23757, Note_on_c, 0, 75, 0
2, 23757, Note_on_c, 0, 72, 0
2, 23760, Note_on_c, 0, 84, 81
2, 23760, Note_on_c, 0, 75, 81
2, 23805, Note_on_c, 0, 84, 0
2, 23805, Note_on_c, 0, 75, 0
2, 23808, Note_on_c, 0, 84, 81
2, 23808, Note_on_c, 0, 75, 81
2, 23853, Note_on_c, 0, 84, 0
2, 23853, Note_on_c, 0, 75, 0
2, 23856, Note_on_c, 0, 75, 81
2, 23856, Note_on_c, 0, 72, 81
2, 23901, Note_on_c, 0, 75, 0
2, 23901, Note_on_c, 0, 72, 0
2, 23952, Note_on_c, 0, 75, 81
2, 23952, Note_on_c, 0, 72, 81
2, 23972, Note_on_c, 0, 75, 0
2, 23972, Note_on_c, 0, 72, 0
2, 24000, Note_on_c, 0, 75, 81
2, 24000, Note_on_c, 0, 72, 81
2, 24045, Note_on_c, 0, 75, 0
2, 24045, Note_on_c, 0, 72, 0
2, 24048, Note_on_c, 0, 84, 81
2, 24048, Note_on_c, 0, 75, 81
2, 24093, Note_on_c, 0, 84, 0
2, 24093, Note_on_c, 0, 75, 0
2, 24096, Note_on_c, 0, 84, 81
2, 24096, Note_on_c, 0, 75, 81
2, 24141, Note_on_c, 0, 84, 0
2, 24141, Note_on_c, 0, 75, 0
2, 24144, Note_on_c, 0, 75, 81
2, 24144, Note_on_c, 0, 72, 81
2, 24189, Note_on_c, 0, 75, 0
2, 24189, Note_on_c, 0, 72, 0
2, 24192, Note_on_c, 0, 80, 81
2, 24222, Note_on_c, 0, 80, 0
2, 24224, Note_on_c, 0, 77, 79
2, 24254, Note_on_c, 0, 77, 0
2, 24256, Note_on_c, 0, 74, 78
2, 24286, Note_on_c, 0, 74, 0
2, 24288, Note_on_c, 0, 75, 77
2, 24288, Note_on_c, 0, 72, 77
2, 24384, Note_on_c, 0, 75, 0
2, 24384, Note_on_c, 0, 72, 0
2, 24384, Note_on_c, 0, 74, 73
2, 24384, Note_on_c, 0, 71, 73
2, 24473, Note_on_c, 0, 74, 0
2, 24473, Note_on_c, 0, 71, 0
2, 24480, Note_on_c, 0, 72, 69
2, 24569, Note_on_c, 0, 72, 0
2, 24816, Note_on_c, 0, 67, 70
2, 24836, Note_on_c, 0, 67, 0
2, 24864, Note_on_c, 0, 67, 70
2, 24912, Note_on_c, 0, 67, 0
2, 24912, Note_on_c, 0, 72, 70
2, 24957, Note_on_c, 0, 72, 0
2, 24960, Note_on_c, 0, 72, 71
2, 25008, Note_on_c, 0, 72, 0
2, 25008, Note_on_c, 0, 70, 71
2, 25053, Note_on_c, 0, 70, 0
2, 25056, Note_on_c, 0, 69, 72
2, 25321, Note_on_c, 0, 69, 0
2, 25392, Note_on_c, 0, 69, 75
2, 25412, Note_on_c, 0, 69, 0
2, 25440, Note_on_c, 0, 69, 76
2, 25488, Note_on_c, 0, 69, 0
2, 25488, Note_on_c, 0, 74, 76
2, 25533, Note_on_c, 0, 74, 0
2, 25536, Note_on_c, 0, 74, 77
2, 25584, Note_on_c, 0, 74, 0
2, 25584, Note_on_c, 0, 72, 77
2, 25629, Note_on_c, 0, 72, 0
2, 25632, Note_on_c, 0, 71, 78
2, 25897, Note_on_c, 0, 71, 0
2, 25968, Note_on_c, 0, 71, 81
2, 25988, Note_on_c, 0, 71, 0
2, 26016, Note_on_c, 0, 71, 81
2, 26064, Note_on_c, 0, 71, 0
2, 26064, Note_on_c, 0, 75, 81
2, 26109, Note_on_c, 0, 75, 0
2, 26112, Note_on_c, 0, 75, 81
2, 26160, Note_on_c, 0, 75, 0
2, 26160, Note_on_c, 0, 74, 81
2, 26205, Note_on_c, 0, 74, 0
2, 26208, Note_on_c, 0, 72, 81
2, 26256, Note_on_c, 0, 72, 0
2, 26256, Note_on_c, 0, 71, 81
2, 26301, Note_on_c, 0, 71, 0
2, 26304, Note_on_c, 0, 72, 78
2, 26352, Note_on_c, 0, 72, 0
2, 26352, Note_on_c, 0, 68, 76
2, 26397, Note_on_c, 0, 68, 0
2, 26400, Note_on_c, 0, 67, 74
2, 26448, Note_on_c, 0, 67, 0
2, 26448, Note_on_c, 0, 66, 72
2, 26493, Note_on_c, 0, 66, 0
2, 26496, Note_on_c, 0, 66, 70
2, 26592, Note_on_c, 0, 66, 0
2, 26592, Note_on_c, 0, 67, 66
2, 26681, Note_on_c, 0, 67, 0
2, 26832, Note_on_c, 0, 79, 81
2, 26852, Note_on_c, 0, 79, 0
2, 26880, Note_on_c, 0, 79, 80
2, 26928, Note_on_c, 0, 79, 0
2, 26928, Note_on_c, 0, 80, 79
2, 26973, Note_on_c, 0, 80, 0
2, 26976, Note_on_c, 0, 80, 78
2, 27024, Note_on_c, 0, 80, 0
2, 27024, Note_on_c, 0, 79, 77
2, 27069, Note_on_c, 0, 79, 0
2, 27072, Note_on_c, 0, 78, 76
2, 27337, Note_on_c, 0, 78, 0
2, 27408, Note_on_c, 0, 77, 70
2, 27428, Note_on_c, 0, 77, 0
2, 27456, Note_on_c, 0, 77, 69
2, 27504, Note_on_c, 0, 77, 0
2, 27504, Note_on_c, 0, 79, 68
2, 27549, Note_on_c, 0, 79, 0
2, 27552, Note_on_c, 0, 79, 67
2, 27600, Note_on_c, 0, 79, 0
2, 27600, Note_on_c, 0, 77, 66
2, 27645, Note_on_c, 0, 77, 0
2, 27696, Note_on_c, 0, 75, 81
2, 27696, Note_on_c, 0, 72, 81
2, 27716, Note_on_c, 0, 75, 0
2, 27716, Note_on_c, 0, 72, 0
2, 27744, Note_on_c, 0, 75, 81
2, 27744, Note_on_c, 0, 72, 81
2, 27789, Note_on_c, 0, 75, 0
2, 27789, Note_on_c, 0, 72, 0
2, 27792, Note_on_c, 0, 84, 81
2, 27792, Note_on_c, 0, 75, 81
2, 27837, Note_on_c, 0, 84, 0
2, 27837, Note_on_c, 0, 75, 0
2, 27840, Note_on_c, 0, 84, 81
2, 27840, Note_on_c, 0, 75, 81
2, 27885, Note_on_c, 0, 84, 0
2, 27885, Note_on_c, 0, 75, 0
2, 27888, Note_on_c, 0, 75, 81
2, 27888, Note_on_c, 0, 72, 81
2, 27933, Note_on_c, 0, 75, 0
2, 27933, Note_on_c, 0, 72, 0
2, 27984, Note_on_c, 0, 75, 81
2, 27984, Note_on_c, 0, 72, 81
2, 28004, Note_on_c, 0, 75, 0
2, 28004, Note_on_c, 0, 72, 0
2, 28032, Note_on_c, 0, 75, 81
2, 28032, Note_on_c, 0, 72, 81
2, 28077, Note_on_c, 0, 75, 0
2, 28077, Note_on_c, 0, 72, 0
2, 28080, Note_on_c, 0, 84, 81
2, 28080, Note_on_c, 0, 75, 81
2, 28125, Note_on_c, 0, 84, 0
2, 28125, Note_on_c, 0, 75, 0
2, 28128, Note_on_c, 0, 84, 81
2, 28128, Note_on_c, 0, 75, 81
2, 28173, Note_on_c, 0, 84, 0
2, 28173, Note_on_c, 0, 75, 0
2, 28176, Note_on_c, 0, 75, 81
2, 28176, Note_on_c, 0, 72, 81
2, 28221, Note_on_c, 0, 75, 0
2, 28221, Note_on_c, 0, 72, 0
2, 28224, Note_on_c, 0, 80, 81
2, 28254, Note_on_c, 0, 80, 0
2, 28256, Note_on_c, 0, 77, 79
2, 28286, Note_on_c, 0, 77, 0
2, 28288, Note_on_c, 0, 74, 78
2, 28318, Note_on_c, 0, 74, 0
2, 28320, Note_on_c, 0, 75, 77
2, 28320, Note_on_c, 0, 72, 77
2, 28416, Note_on_c, 0, 75, 0
2, 28416, Note_on_c, 0, 72, 0
2, 28416, Note_on_c, 0, 74, 73
2, 28416, Note_on_c, 0, 71, 73
2, 28505, Note_on_c, 0, 74, 0
2, 28505, Note_on_c, 0, 71, 0
2, 28512, Note_on_c, 0, 72, 69
2, 28601, Note_on_c, 0, 72, 0
2, 28800, Note_on_c, 0, 75, 75
2, 28812, Note_on_c, 0, 75, 0
2, 28812, Note_on_c, 0, 77, 75
2, 28824, Note_on_c, 0, 77, 0
2, 28824, Note_on_c, 0, 75, 75
2, 28836, Note_on_c, 0, 75, 0
2, 28836, Note_on_c, 0, 77, 75
2, 28848, Note_on_c, 0, 77, 0
2, 28848, Note_on_c, 0, 75, 75
2, 28860, Note_on_c, 0, 75, 0
2, 28860, Note_on_c, 0, 77, 75
2, 28867, Note_on_c, 0, 77, 0
2, 28872, Note_on_c, 0, 74, 75
2, 28884, Note_on_c, 0, 74, 0
2, 28884, Note_on_c, 0, 75, 75
2, 28896, Note_on_c, 0, 75, 0
2, 28896, Note_on_c, 0, 77, 75
2, 28985, Note_on_c, 0, 77, 0
2, 29088, Note_on_c, 0, 77, 75
2, 29100, Note_on_c, 0, 77, 0
2, 29100, Note_on_c, 0, 79, 75
2, 29112, Note_on_c, 0, 79, 0
2, 29112, Note_on_c, 0, 77, 75
2, 29124, Note_on_c, 0, 77, 0
2, 29124, Note_on_c, 0, 79, 75
2, 29136, Note_on_c, 0, 79, 0
2, 29136, Note_on_c, 0, 77, 75
2, 29148, Note_on_c, 0, 77, 0
2, 29148, Note_on_c, 0, 79, 75
2, 29155, Note_on_c, 0, 79, 0
2, 29160, Note_on_c, 0, 75, 75
2, 29172, Note_on_c, 0, 75, 0
2, 29172, Note_on_c, 0, 77, 75
2, 29184, Note_on_c, 0, 77, 0
2, 29184, Note_on_c, 0, 79, 75
2, 29273, Note_on_c, 0, 79, 0
2, 29376, Note_on_c, 0, 79, 75
2, 29394, Note_on_c, 0, 79, 0
2, 29394, Note_on_c, 0, 80, 75
2, 29394, Note_on_c, 0, 72, 75
2, 29465, Note_on_c, 0, 80, 0
2, 29465, Note_on_c, 0, 72, 0
2, 29472, Note_on_c, 0, 80, 75
2, 29539, Note_on_c, 0, 80, 0
2, 29544, Note_on_c, 0, 79, 75
2, 29567, Note_on_c, 0, 79, 0
2, 29568, Note_on_c, 0, 77, 75
2, 29635, Note_on_c, 0, 77, 0
2, 29640, Note_on_c, 0, 75, 75
2, 29663, Note_on_c, 0, 75, 0
2, 29664, Note_on_c, 0, 75, 75
2, 29753, Note_on_c, 0, 75, 0
2, 29760, Note_on_c, 0, 74, 75
2, 29849, Note_on_c, 0, 74, 0
2, 29856, Note_on_c, 0, 75, 75
2, 29945, Note_on_c, 0, 75, 0
2, 29952, Note_on_c, 0, 80, 75
2, 29952, Note_on_c, 0, 72, 75
2, 30041, Note_on_c, 0, 80, 0
2, 30041, Note_on_c, 0, 72, 0
2, 30048, Note_on_c, 0, 84, 75
2, 30078, Note_on_c, 0, 84, 0
2, 30080, Note_on_c, 0, 82, 75
2, 30110, Note_on_c, 0, 82, 0
2, 30112, Note_on_c, 0, 80, 75
2, 30142, Note_on_c, 0, 80, 0
2, 30144, Note_on_c, 0, 79, 75
2, 30174, Note_on_c, 0, 79, 0
2, 30176, Note_on_c, 0, 77, 75
2, 30206, Note_on_c, 0, 77, 0
2, 30208, Note_on_c, 0, 75, 75
2, 30238, Note_on_c, 0, 75, 0
2, 30240, Note_on_c, 0, 75, 75
2, 30329, Note_on_c, 0, 75, 0
2, 30336, Note_on_c, 0, 74, 75
2, 30349, Note_on_c, 0, 74, 0
2, 30350, Note_on_c, 0, 75, 75
2, 30363, Note_on_c, 0, 75, 0
2, 30364, Note_on_c, 0, 74, 75
2, 30377, Note_on_c, 0, 74, 0
2, 30378, Note_on_c, 0, 75, 75
2, 30391, Note_on_c, 0, 75, 0
2, 30392, Note_on_c, 0, 74, 75
2, 30405, Note_on_c, 0, 74, 0
2, 30406, Note_on_c, 0, 72, 75
2, 30418, Note_on_c, 0, 72, 0
2, 30419, Note_on_c, 0, 74, 75
2, 30431, Note_on_c, 0, 74, 0
2, 30432, Note_on_c, 0, 75, 75
2, 30499, Note_on_c, 0, 75, 0
2, 30504, Note_on_c, 0, 70, 75
2, 30504, Note_on_c, 0, 67, 75
2, 30527, Note_on_c, 0, 70, 0
2, 30527, Note_on_c, 0, 67, 0
2, 30528, Note_on_c, 0, 70, 75
2, 30528, Note_on_c, 0, 67, 75
2, 30617, Note_on_c, 0, 70, 0
2, 30617, Note_on_c, 0, 67, 0
2, 30624, Note_on_c, 0, 68, 73
2, 30624, Note_on_c, 0, 65, 73
2, 30713, Note_on_c, 0, 68, 0
2, 30713, Note_on_c, 0, 65, 0
2, 30720, Note_on_c, 0, 67, 71
2, 30720, Note_on_c, 0, 63, 71
2, 30809, Note_on_c, 0, 67, 0
2, 30809, Note_on_c, 0, 63, 0
2, 30816, Note_on_c, 0, 65, 70
2, 30816, Note_on_c, 0, 62, 70
2, 30993, Note_on_c, 0, 65, 0
2, 30993, Note_on_c, 0, 62, 0
2, 31104, Note_on_c, 0, 75, 75
2, 31116, Note_on_c, 0, 75, 0
2, 31116, Note_on_c, 0, 77, 75
2, 31128, Note_on_c, 0, 77, 0
2, 31128, Note_on_c, 0, 75, 75
2, 31140, Note_on_c, 0, 75, 0
2, 31140, Note_on_c, 0, 77, 75
2, 31152, Note_on_c, 0, 77, 0
2, 31152, Note_on_c, 0, 75, 75
2, 31164, Note_on_c, 0, 75, 0
2, 31164, Note_on_c, 0, 77, 75
2, 31171, Note_on_c, 0, 77, 0
2, 31176, Note_on_c, 0, 74, 75
2, 31188, Note_on_c, 0, 74, 0
2, 31188, Note_on_c, 0, 75, 75
2, 31200, Note_on_c, 0, 75, 0
2, 31200, Note_on_c, 0, 77, 75
2, 31289, Note_on_c, 0, 77, 0
2, 31392, Note_on_c, 0, 77, 75
2, 31404, Note_on_c, 0, 77, 0
2, 31404, Note_on_c, 0, 79, 75
2, 31416, Note_on_c, 0, 79, 0
2, 31416, Note_on_c, 0, 77, 75
2, 31428, Note_on_c, 0, 77, 0
2, 31428, Note_on_c, 0, 79, 75
2, 31440, Note_on_c, 0, 79, 0
2, 31440, Note_on_c, 0, 77, 75
2, 31452, Note_on_c, 0, 77, 0
2, 31452, Note_on_c, 0, 79, 75
2, 31459, Note_on_c, 0, 79, 0
2, 31464, Note_on_c, 0, 75, 75
2, 31476, Note_on_c, 0, 75, 0
2, 31476, Note_on_c, 0, 77, 75
2, 31488, Note_on_c, 0, 77, 0
2, 31488, Note_on_c, 0, 79, 75
2, 31577, Note_on_c, 0, 79, 0
2, 31680, Note_on_c, 0, 79, 75
2, 31698, Note_on_c, 0, 79, 0
2, 31698, Note_on_c, 0, 80, 75
2, 31698, Note_on_c, 0, 72, 75
2, 31769, Note_on_c, 0, 80, 0
2, 31769, Note_on_c, 0, 72, 0
2, 31776, Note_on_c, 0, 80, 75
2, 31843, Note_on_c, 0, 80, 0
2, 31848, Note_on_c, 0, 79, 75
2, 31871, Note_on_c, 0, 79, 0
2, 31872, Note_on_c, 0, 77, 75
2, 31939, Note_on_c, 0, 77, 0
2, 31944, Note_on_c, 0, 75, 75
2, 31967, Note_on_c, 0, 75, 0
2, 31968, Note_on_c, 0, 75, 75
2, 32057, Note_on_c, 0, 75, 0
2, 32064, Note_on_c, 0, 74, 75
2, 32153, Note_on_c, 0, 74, 0
2, 32160, Note_on_c, 0, 75, 75
2, 32249, Note_on_c, 0, 75, 0
2, 32256, Note_on_c, 0, 80, 75
2, 32256, Note_on_c, 0, 72, 75
2, 32345, Note_on_c, 0, 80, 0
2, 32345, Note_on_c, 0, 72, 0
2, 32352, Note_on_c, 0, 84, 75
2, 32382, Note_on_c, 0, 84, 0
2, 32384, Note_on_c, 0, 82, 75
2, 32414, Note_on_c, 0, 82, 0
2, 32416, Note_on_c, 0, 80, 75
2, 32446, Note_on_c, 0, 80, 0
2, 32448, Note_on_c, 0, 79, 75
2, 32478, Note_on_c, 0, 79, 0
2, 32480, Note_on_c, 0, 77, 75
2, 32510, Note_on_c, 0, 77, 0
2, 32512, Note_on_c, 0, 75, 75
2, 32542, Note_on_c, 0, 75, 0
2, 32544, Note_on_c, 0, 75, 75
2, 32633, Note_on_c, 0, 75, 0
2, 32640, Note_on_c, 0, 74, 75
2, 32653, Note_on_c, 0, 74, 0
2, 32654, Note_on_c, 0, 75, 75
2, 32667, Note_on_c, 0, 75, 0
2, 32668, Note_on_c, 0, 74, 75
2, 32681, Note_on_c, 0, 74, 0
2, 32682, Note_on_c, 0, 75, 75
2, 32695, Note_on_c, 0, 75, 0
2, 32696, Note_on_c, 0, 74, 75
2, 32709, Note_on_c, 0, 74, 0
2, 32710, Note_on_c, 0, 72, 75
2, 32722, Note_on_c, 0, 72, 0
2, 32723, Note_on_c, 0, 74, 75
2, 32735, Note_on_c, 0, 74, 0
2, 32736, Note_on_c, 0, 75, 75
2, 32803, Note_on_c, 0, 75, 0
2, 32808, Note_on_c, 0, 70, 75
2, 32808, Note_on_c, 0, 67, 75
2, 32831, Note_on_c, 0, 70, 0
2, 32831, Note_on_c, 0, 67, 0
2, 32832, Note_on_c, 0, 70, 75
2, 32832, Note_on_c, 0, 67, 75
2, 32921, Note_on_c, 0, 70, 0
2, 32921, Note_on_c, 0, 67, 0
2, 32928, Note_on_c, 0, 68, 73
2, 32928, Note_on_c, 0, 65, 73
2, 33017, Note_on_c, 0, 68, 0
2, 33017, Note_on_c, 0, 65, 0
2, 33024, Note_on_c, 0, 67, 71
2, 33024, Note_on_c, 0, 63, 71
2, 33113, Note_on_c, 0, 67, 0
2, 33113, Note_on_c, 0, 63, 0
2, 33120, Note_on_c, 0, 65, 70
2, 33120, Note_on_c, 0, 62, 70
2, 33297, Note_on_c, 0, 65, 0
2, 33297, Note_on_c, 0, 62, 0
2, 33792, Note_on_c, 0, 74, 70
2, 33792, Note_on_c, 0, 68, 70
2, 33888, Note_on_c, 0, 74, 0
2, 33888, Note_on_c, 0, 68, 0
2, 33888, Note_on_c, 0, 75, 70
2, 33888, Note_on_c, 0, 67, 70
2, 33982, Note_on_c, 0, 75, 0
2, 33982, Note_on_c, 0, 67, 0
2, 34368, Note_on_c, 0, 80, 70
2, 34368, Note_on_c, 0, 77, 70
2, 34464, Note_on_c, 0, 80, 0
2, 34464, Note_on_c, 0, 77, 0
2, 34464, Note_on_c, 0, 79, 70
2, 34464, Note_on_c, 0, 75, 70
2, 34558, Note_on_c, 0, 79, 0
2, 34558, Note_on_c, 0, 75, 0
2, 34608, Note_on_c, 0, 78, 70
2, 34653, Note_on_c, 0, 78, 0
2, 34656, Note_on_c, 0, 77, 71
2, 34701, Note_on_c, 0, 77, 0
2, 34704, Note_on_c, 0, 75, 71
2, 34749, Note_on_c, 0, 75, 0
2, 34752, Note_on_c, 0, 74, 72
2, 34797, Note_on_c, 0, 74, 0
2, 34800, Note_on_c, 0, 75, 72
2, 34845, Note_on_c, 0, 75, 0
2, 34896, Note_on_c, 0, 78, 74
2, 34941, Note_on_c, 0, 78, 0
2, 34944, Note_on_c, 0, 77, 74
2, 34989, Note_on_c, 0, 77, 0
2, 34992, Note_on_c, 0, 75, 75
2, 35037, Note_on_c, 0, 75, 0
2, 35040, Note_on_c, 0, 74, 75
2, 35085, Note_on_c, 0, 74, 0
2, 35088, Note_on_c, 0, 75, 76
2, 35133, Note_on_c, 0, 75, 0
2, 35184, Note_on_c, 0, 78, 77
2, 35229, Note_on_c, 0, 78, 0
2, 35232, Note_on_c, 0, 77, 78
2, 35277, Note_on_c, 0, 77, 0
2, 35280, Note_on_c, 0, 75, 78
2, 35325, Note_on_c, 0, 75, 0
2, 35328, Note_on_c, 0, 74, 79
2, 35373, Note_on_c, 0, 74, 0
2, 35376, Note_on_c, 0, 75, 80
2, 35421, Note_on_c, 0, 75, 0
2, 35424, Note_on_c, 0, 74, 80
2, 35454, Note_on_c, 0, 74, 0
2, 35456, Note_on_c, 0, 75, 81
2, 35486, Note_on_c, 0, 75, 0
2, 35488, Note_on_c, 0, 77, 81
2, 35518, Note_on_c, 0, 77, 0
2, 35520, Note_on_c, 0, 70, 81
2, 35609, Note_on_c, 0, 70, 0
2, 35712, Note_on_c, 0, 75, 75
2, 35724, Note_on_c, 0, 75, 0
2, 35724, Note_on_c, 0, 77, 75
2, 35736, Note_on_c, 0, 77, 0
2, 35736, Note_on_c, 0, 75, 75
2, 35748, Note_on_c, 0, 75, 0
2, 35748, Note_on_c, 0, 77, 75
2, 35760, Note_on_c, 0, 77, 0
2, 35760, Note_on_c, 0, 75, 75
2, 35772, Note_on_c, 0, 75, 0
2, 35772, Note_on_c, 0, 77, 75
2, 35779, Note_on_c, 0, 77, 0
2, 35784, Note_on_c, 0, 74, 75
2, 35796, Note_on_c, 0, 74, 0
2, 35796, Note_on_c, 0, 75, 75
2, 35808, Note_on_c, 0, 75, 0
2, 35808, Note_on_c, 0, 77, 75
2, 35897, Note_on_c, 0, 77, 0
2, 36000, Note_on_c, 0, 77, 75
2, 36012, Note_on_c, 0, 77, 0
2, 36012, Note_on_c, 0, 79, 75
2, 36024, Note_on_c, 0, 79, 0
2, 36024, Note_on_c, 0, 77, 75
2, 36036, Note_on_c, 0, 77, 0
2, 36036, Note_on_c, 0, 79, 75
2, 36048, Note_on_c, 0, 79, 0
2, 36048, Note_on_c, 0, 77, 75
2, 36060, Note_on_c, 0, 77, 0
2, 36060, Note_on_c, 0, 79, 75
2, 36067, Note_on_c, 0, 79, 0
2, 36072, Note_on_c, 0, 75, 75
2, 36084, Note_on_c, 0, 75, 0
2, 36084, Note_on_c, 0, 77, 75
2, 36096, Note_on_c, 0, 77, 0
2, 36096, Note_on_c, 0, 79, 75
2, 36185, Note_on_c, 0, 79, 0
2, 36288, Note_on_c, 0, 79, 75
2, 36306, Note_on_c, 0, 79, 0
2, 36306, Note_on_c, 0, 80, 75
2, 36306, Note_on_c, 0, 72, 75
2, 36377, Note_on_c, 0, 80, 0
2, 36377, Note_on_c, 0, 72, 0
2, 36384, Note_on_c, 0, 80, 75
2, 36451, Note_on_c, 0, 80, 0
2, 36456, Note_on_c, 0, 79, 75
2, 36479, Note_on_c, 0, 79, 0
2, 36480, Note_on_c, 0, 77, 75
2, 36547, Note_on_c, 0, 77, 0
2, 36552, Note_on_c, 0, 75, 75
2, 36575, Note_on_c, 0, 75, 0
2, 36576, Note_on_c, 0, 75, 75
2, 36665, Note_on_c, 0, 75, 0
2, 36672, Note_on_c, 0, 74, 75
2, 36761, Note_on_c, 0, 74, 0
2, 36768, Note_on_c, 0, 75, 75
2, 36857, Note_on_c, 0, 75, 0
2, 36864, Note_on_c, 0, 80, 75
2, 36864, Note_on_c, 0, 72, 75
2, 36953, Note_on_c, 0, 80, 0
2, 36953, Note_on_c, 0, 72, 0
2, 36960, Note_on_c, 0, 84, 75
2, 36990, Note_on_c, 0, 84, 0
2, 36992, Note_on_c, 0, 82, 75
2, 37022, Note_on_c, 0, 82, 0
2, 37024, Note_on_c, 0, 80, 75
2, 37054, Note_on_c, 0, 80, 0
2, 37056, Note_on_c, 0, 79, 75
2, 37086, Note_on_c, 0, 79, 0
2, 37088, Note_on_c, 0, 77, 75
2, 37118, Note_on_c, 0, 77, 0
2, 37120, Note_on_c, 0, 75, 75
2, 37150, Note_on_c, 0, 75, 0
2, 37152, Note_on_c, 0, 75, 75
2, 37241, Note_on_c, 0, 75, 0
2, 37248, Note_on_c, 0, 74, 75
2, 37261, Note_on_c, 0, 74, 0
2, 37262, Note_on_c, 0, 75, 75
2, 37275, Note_on_c, 0, 75, 0
2, 37276, Note_on_c, 0, 74, 75
2, 37289, Note_on_c, 0, 74, 0
2, 37290, Note_on_c, 0, 75, 75
2, 37303, Note_on_c, 0, 75, 0
2, 37304, Note_on_c, 0, 74, 75
2, 37317, Note_on_c, 0, 74, 0
2, 37318, Note_on_c, 0, 72, 75
2, 37330, Note_on_c, 0, 72, 0
2, 37331, Note_on_c, 0, 74, 75
2, 37343, Note_on_c, 0, 74, 0
2, 37344, Note_on_c, 0, 75, 75
2, 37433, Note_on_c, 0, 75, 0
2, 37488, Note_on_c, 0, 72, 75
2, 37533, Note_on_c, 0, 72, 0
2, 37536, Note_on_c, 0, 71, 75
2, 37581, Note_on_c, 0, 71, 0
2, 37584, Note_on_c, 0, 72, 75
2, 37629, Note_on_c, 0, 72, 0
2, 37632, Note_on_c, 0, 75, 75
2, 37677, Note_on_c, 0, 75, 0
2, 37680, Note_on_c, 0, 72, 75
2, 37725, Note_on_c, 0, 72, 0
2, 37776, Note_on_c, 0, 70, 75
2, 37821, Note_on_c, 0, 70, 0
2, 37824, Note_on_c, 0, 69, 75
2, 37869, Note_on_c, 0, 69, 0
2, 37872, Note_on_c, 0, 70, 75
2, 37917, Note_on_c, 0, 70, 0
2, 37920, Note_on_c, 0, 75, 75
2, 37965, Note_on_c, 0, 75, 0
2, 37968, Note_on_c, 0, 70, 75
2, 38013, Note_on_c, 0, 70, 0
2, 38016, Note_on_c, 0, 74, 75
2, 38039, Note_on_c, 0, 74, 0
2, 38040, Note_on_c, 0, 72, 75
2, 38063, Note_on_c, 0, 72, 0
2, 38064, Note_on_c, 0, 70, 75
2, 38087, Note_on_c, 0, 70, 0
2, 38088, Note_on_c, 0, 68, 75
2, 38111, Note_on_c, 0, 68, 0
2, 38112, Note_on_c, 0, 67, 75
2, 38201, Note_on_c, 0, 67, 0
2, 38208, Note_on_c, 0, 65, 75
2, 38221, Note_on_c, 0, 65, 0
2, 38222, Note_on_c, 0, 67, 75
2, 38235, Note_on_c, 0, 67, 0
2, 38236, Note_on_c, 0, 65, 75
2, 38249, Note_on_c, 0, 65, 0
2, 38250, Note_on_c, 0, 67, 75
2, 38263, Note_on_c, 0, 67, 0
2, 38264, Note_on_c, 0, 65, 75
2, 38277, Note_on_c, 0, 65, 0
2, 38278, Note_on_c, 0, 63, 75
2, 38290, Note_on_c, 0, 63, 0
2, 38291, Note_on_c, 0, 65, 75
2, 38303, Note_on_c, 0, 65, 0
2, 38304, Note_on_c, 0, 63, 75
2, 38481, Note_on_c, 0, 63, 0
2, 38976, Note_on_c, 0, 74, 70
2, 38976, Note_on_c, 0, 68, 70
2, 39072, Note_on_c, 0, 74, 0
2, 39072, Note_on_c, 0, 68, 0
2, 39072, Note_on_c, 0, 75, 70
2, 39072, Note_on_c, 0, 67, 70
2, 39166, Note_on_c, 0, 75, 0
2, 39166, Note_on_c, 0, 67, 0
2, 39552, Note_on_c, 0, 80, 70
2, 39552, Note_on_c, 0, 77, 70
2, 39648, Note_on_c, 0, 80, 0
2, 39648, Note_on_c, 0, 77, 0
2, 39648, Note_on_c, 0, 79, 70
2, 39648, Note_on_c, 0, 75, 70
2, 39742, Note_on_c, 0, 79, 0
2, 39742, Note_on_c, 0, 75, 0
2, 39792, Note_on_c, 0, 78, 70
2, 39837, Note_on_c, 0, 78, 0
2, 39840, Note_on_c, 0, 77, 71
2, 39885, Note_on_c, 0, 77, 0
2, 39888, Note_on_c, 0, 75, 71
2, 39933, Note_on_c, 0, 75, 0
2, 39936, Note_on_c, 0, 74, 72
2, 39981, Note_on_c, 0, 74, 0
2, 39984, Note_on_c, 0, 75, 72
2, 40029, Note_on_c, 0, 75, 0
2, 40080, Note_on_c, 0, 78, 74
2, 40125, Note_on_c, 0, 78, 0
2, 40128, Note_on_c, 0, 77, 74
2, 40173, Note_on_c, 0, 77, 0
2, 40176, Note_on_c, 0, 75, 75
2, 40221, Note_on_c, 0, 75, 0
2, 40224, Note_on_c, 0, 74, 75
2, 40269, Note_on_c, 0, 74, 0
2, 40272, Note_on_c, 0, 75, 76
2, 40317, Note_on_c, 0, 75, 0
2, 40368, Note_on_c, 0, 78, 77
2, 40413, Note_on_c, 0, 78, 0
2, 40416, Note_on_c, 0, 77, 78
2, 40461, Note_on_c, 0, 77, 0
2, 40464, Note_on_c, 0, 75, 78
2, 40509, Note_on_c, 0, 75, 0
2, 40512, Note_on_c, 0, 74, 79
2, 40557, Note_on_c, 0, 74, 0
2, 40560, Note_on_c, 0, 75, 80
2, 40605, Note_on_c, 0, 75, 0
2, 40608, Note_on_c, 0, 74, 80
2, 40638, Note_on_c, 0, 74, 0
2, 40640, Note_on_c, 0, 75, 81
2, 40670, Note_on_c, 0, 75, 0
2, 40672, Note_on_c, 0, 77, 81
2, 40702, Note_on_c, 0, 77, 0
2, 40704, Note_on_c, 0, 70, 81
2, 40793, Note_on_c, 0, 70, 0
2, 40896, Note_on_c, 0, 75, 75
2, 40908, Note_on_c, 0, 75, 0
2, 40908, Note_on_c, 0, 77, 75
2, 40920, Note_on_c, 0, 77, 0
2, 40920, Note_on_c, 0, 75, 75
2, 40932, Note_on_c, 0, 75, 0
2, 40932, Note_on_c, 0, 77, 75
2, 40944, Note_on_c, 0, 77, 0
2, 40944, Note_on_c, 0, 75, 75
2, 40956, Note_on_c, 0, 75, 0
2, 40956, Note_on_c, 0, 77, 75
2, 40963, Note_on_c, 0, 77, 0
2, 40968, Note_on_c, 0, 74, 75
2, 40980, Note_on_c, 0, 74, 0
2, 40980, Note_on_c, 0, 75, 75
2, 40992, Note_on_c, 0, 75, 0
2, 40992, Note_on_c, 0, 77, 75
2, 41081, Note_on_c, 0, 77, 0
2, 41184, Note_on_c, 0, 77, 75
2, 41196, Note_on_c, 0, 77, 0
2, 41196, Note_on_c, 0, 79, 75
2, 41208, Note_on_c, 0, 79, 0
2, 41208, Note_on_c, 0, 77, 75
2, 41220, Note_on_c, 0, 77, 0
2, 41220, Note_on_c, 0, 79, 75
2, 41232, Note_on_c, 0, 79, 0
2, 41232, Note_on_c, 0, 77, 75
2, 41244, Note_on_c, 0, 77, 0
2, 41244, Note_on_c, 0, 79, 75
2, 41251, Note_on_c, 0, 79, 0
2, 41256, Note_on_c, 0, 75, 75
2, 41268, Note_on_c, 0, 75, 0
2, 41268, Note_on_c, 0, 77, 75
2, 41280, Note_on_c, 0, 77, 0
2, 41280, Note_on_c, 0, 79, 75
2, 41369, Note_on_c, 0, 79, 0
2, 41472, Note_on_c, 0, 79, 75
2, 41490, Note_on_c, 0, 79, 0
2, 41490, Note_on_c, 0, 80, 75
2, 41490, Note_on_c, 0, 72, 75
2, 41561, Note_on_c, 0, 80, 0
2, 41561, Note_on_c, 0, 72, 0
2, 41568, Note_on_c, 0, 80, 75
2, 41635, Note_on_c, 0, 80, 0
2, 41640, Note_on_c, 0, 79, 75
2, 41663, Note_on_c, 0, 79, 0
2, 41664, Note_on_c, 0, 77, 75
2, 41731, Note_on_c, 0, 77, 0
2, 41736, Note_on_c, 0, 75, 75
2, 41759, Note_on_c, 0, 75, 0
2, 41760, Note_on_c, 0, 75, 75
2, 41849, Note_on_c, 0, 75, 0
2, 41856, Note_on_c, 0, 74, 75
2, 41945, Note_on_c, 0, 74, 0
2, 41952, Note_on_c, 0, 75, 75
2, 42041, Note_on_c, 0, 75, 0
2, 42048, Note_on_c, 0, 80, 75
2, 42048, Note_on_c, 0, 72, 75
2, 42137, Note_on_c, 0, 80, 0
2, 42137, Note_on_c, 0, 72, 0
2, 42144, Note_on_c, 0, 84, 75
2, 42174, Note_on_c, 0, 84, 0
2, 42176, Note_on_c, 0, 82, 75
2, 42206, Note_on_c, 0, 82, 0
2, 42208, Note_on_c, 0, 80, 75
2, 42238, Note_on_c, 0, 80, 0
2, 42240, Note_on_c, 0, 79, 75
2, 42270, Note_on_c, 0, 79, 0
2, 42272, Note_on_c, 0, 77, 75
2, 42302, Note_on_c, 0, 77, 0
2, 42304, Note_on_c, 0, 75, 75
2, 42334, Note_on_c, 0, 75, 0
2, 42336, Note_on_c, 0, 75, 75
2, 42425, Note_on_c, 0, 75, 0
2, 42432, Note_on_c, 0, 74, 75
2, 42445, Note_on_c, 0, 74, 0
2, 42446, Note_on_c, 0, 75, 75
2, 42459, Note_on_c, 0, 75, 0
2, 42460, Note_on_c, 0, 74, 75
2, 42473, Note_on_c, 0, 74, 0
2, 42474, Note_on_c, 0, 75, 75
2, 42487, Note_on_c, 0, 75, 0
2, 42488, Note_on_c, 0, 74, 75
2, 42501, Note_on_c, 0, 74, 0
2, 42502, Note_on_c, 0, 72, 75
2, 42514, Note_on_c, 0, 72, 0
2, 42515, Note_on_c, 0, 74, 75
2, 42527, Note_on_c, 0, 74, 0
2, 42528, Note_on_c, 0, 75, 75
2, 42617, Note_on_c, 0, 75, 0
2, 42672, Note_on_c, 0, 72, 75
2, 42717, Note_on_c, 0, 72, 0
2, 42720, Note_on_c, 0, 71, 75
2, 42765, Note_on_c, 0, 71, 0
2, 42768, Note_on_c, 0, 72, 75
2, 42813, Note_on_c, 0, 72, 0
2, 42816, Note_on_c, 0, 75, 75
2, 42861, Note_on_c, 0, 75, 0
2, 42864, Note_on_c, 0, 72, 75
2, 42909, Note_on_c, 0, 72, 0
2, 42960, Note_on_c, 0, 70, 75
2, 43005, Note_on_c, 0, 70, 0
2, 43008, Note_on_c, 0, 69, 75
2, 43053, Note_on_c, 0, 69, 0
2, 43056, Note_on_c, 0, 70, 75
2, 43101, Note_on_c, 0, 70, 0
2, 43104, Note_on_c, 0, 75, 75
2, 43149, Note_on_c, 0, 75, 0
2, 43152, Note_on_c, 0, 70, 75
2, 43197, Note_on_c, 0, 70, 0
2, 43200, Note_on_c, 0, 74, 75
2, 43223, Note_on_c, 0, 74, 0
2, 43224, Note_on_c, 0, 72, 75
2, 43247, Note_on_c, 0, 72, 0
2, 43248, Note_on_c, 0, 70, 75
2, 43271, Note_on_c, 0, 70, 0
2, 43272, Note_on_c, 0, 68, 75
2, 43295, Note_on_c, 0, 68, 0
2, 43296, Note_on_c, 0, 67, 75
2, 43385, Note_on_c, 0, 67, 0
2, 43392, Note_on_c, 0, 65, 75
2, 43405, Note_on_c, 0, 65, 0
2, 43406, Note_on_c, 0, 67, 75
2, 43419, Note_on_c, 0, 67, 0
2, 43420, Note_on_c, 0, 65, 75
2, 43433, Note_on_c, 0, 65, 0
2, 43434, Note_on_c, 0, 67, 75
2, 43447, Note_on_c, 0, 67, 0
2, 43448, Note_on_c, 0, 65, 75
2, 43461, Note_on_c, 0, 65, 0
2, 43462, Note_on_c, 0, 63, 75
2, 43474, Note_on_c, 0, 63, 0
2, 43475, Note_on_c, 0, 65, 75
2, 43487, Note_on_c, 0, 65, 0
2, 43488, Note_on_c, 0, 63, 75
2, 43665, Note_on_c, 0, 63, 0
2, 43776, End_track
3, 0, Start_track
3, 0, Program_c, 0, 0
3, 0, Control_c, 0, 7, 127
3, 0, Control_c, 0, 10, 64
3, 14976, Note_on_c, 0, 72, 75
3, 15065, Note_on_c, 0, 72, 0
3, 15312, Note_on_c, 0, 72, 73
3, 15332, Note_on_c, 0, 72, 0
3, 15360, Note_on_c, 0, 72, 73
3, 15408, Note_on_c, 0, 72, 0
3, 15408, Note_on_c, 0, 74, 73
3, 15453, Note_on_c, 0, 74, 0
3, 15456, Note_on_c, 0, 74, 72
3, 15504, Note_on_c, 0, 74, 0
3, 15504, Note_on_c, 0, 72, 72
3, 15549, Note_on_c, 0, 72, 0
3, 15552, Note_on_c, 0, 71, 72
3, 15817, Note_on_c, 0, 71, 0
3, 15888, Note_on_c, 0, 70, 70
3, 15908, Note_on_c, 0, 70, 0
3, 15936, Note_on_c, 0, 70, 70
3, 15984, Note_on_c, 0, 70, 0
3, 15984, Note_on_c, 0, 72, 69
3, 16029, Note_on_c, 0, 72, 0
3, 16032, Note_on_c, 0, 72, 69
3, 16080, Note_on_c, 0, 72, 0
3, 16080, Note_on_c, 0, 70, 69
3, 16125, Note_on_c, 0, 70, 0
3, 16128, Note_on_c, 0, 69, 69
3, 16393, Note_on_c, 0, 69, 0
3, 16464, Note_on_c, 0, 68, 67
3, 16484, Note_on_c, 0, 68, 0
3, 16512, Note_on_c, 0, 68, 67
3, 16560, Note_on_c, 0, 68, 0
3, 16560, Note_on_c, 0, 70, 66
3, 16605, Note_on_c, 0, 70, 0
3, 16608, Note_on_c, 0, 70, 66
3, 16656, Note_on_c, 0, 70, 0
3, 16656, Note_on_c, 0, 68, 66
3, 16701, Note_on_c, 0, 68, 0
3, 17856, Note_on_c, 0, 72, 75
3, 17945, Note_on_c, 0, 72, 0
3, 18192, Note_on_c, 0, 72, 73
3, 18212, Note_on_c, 0, 72, 0
3, 18240, Note_on_c, 0, 72, 73
3, 18288, Note_on_c, 0, 72, 0
3, 18288, Note_on_c, 0, 74, 73
3, 18333, Note_on_c, 0, 74, 0
3, 18336, Note_on_c, 0, 74, 72
3, 18384, Note_on_c, 0, 74, 0
3, 18384, Note_on_c, 0, 72, 72
3, 18429, Note_on_c, 0, 72, 0
3, 18432, Note_on_c, 0, 71, 72
3, 18697, Note_on_c, 0, 71, 0
3, 18768, Note_on_c, 0, 70, 70
3, 18788, Note_on_c, 0, 70, 0
3, 18816, Note_on_c, 0, 70, 70
3, 18864, Note_on_c, 0, 70, 0
3, 18864, Note_on_c, 0, 72, 69
3, 18909, Note_on_c, 0, 72, 0
3, 18912, Note_on_c, 0, 72, 69
3, 18960, Note_on_c, 0, 72, 0
3, 18960, Note_on_c, 0, 70, 69
3, 19005, Note_on_c, 0, 70, 0
3, 19008, Note_on_c, 0, 69, 69
3, 19273, Note_on_c, 0, 69, 0
3, 19344, Note_on_c, 0, 68, 67
3, 19364, Note_on_c, 0, 68, 0
3, 19392, Note_on_c, 0, 68, 67
3, 19440, Note_on_c, 0, 68, 0
3, 19440, Note_on_c, 0, 70, 66
3, 19485, Note_on_c, 0, 70, 0
3, 19488, Note_on_c, 0, 70, 66
3, 19536, Note_on_c, 0, 70, 0
3, 19536, Note_on_c, 0, 68, 66
3, 19581, Note_on_c, 0, 68, 0
3, 21072, Note_on_c, 0, 60, 71
3, 21092, Note_on_c, 0, 60, 0
3, 21120, Note_on_c, 0, 60, 72
3, 21168, Note_on_c, 0, 60, 0
3, 21168, Note_on_c, 0, 65, 72
3, 21213, Note_on_c, 0, 65, 0
3, 21216, Note_on_c, 0, 65, 73
3, 21264, Note_on_c, 0, 65, 0
3, 21264, Note_on_c, 0, 63, 73
3, 21309, Note_on_c, 0, 63, 0
3, 21312, Note_on_c, 0, 62, 74
3, 21577, Note_on_c, 0, 62, 0
3, 21648, Note_on_c, 0, 62, 78
3, 21668, Note_on_c, 0, 62, 0
3, 21696, Note_on_c, 0, 62, 78
3, 21744, Note_on_c, 0, 62, 0
3, 21744, Note_on_c, 0, 67, 79
3, 21789, Note_on_c, 0, 67, 0
3, 21792, Note_on_c, 0, 67, 79
3, 21840, Note_on_c, 0, 67, 0
3, 21840, Note_on_c, 0, 65, 80
3, 21885, Note_on_c, 0, 65, 0
3, 21888, Note_on_c, 0, 63, 81
3, 22153, Note_on_c, 0, 63, 0
3, 23088, Note_on_c, 0, 72, 76
3, 23108, Note_on_c, 0, 72, 0
3, 23136, Note_on_c, 0, 72, 75
3, 23184, Note_on_c, 0, 72, 0
3, 23184, Note_on_c, 0, 74, 74
3, 23229, Note_on_c, 0, 74, 0
3, 23232, Note_on_c, 0, 74, 73
3, 23280, Note_on_c, 0, 74, 0
3, 23280, Note_on_c, 0, 72, 72
3, 23325, Note_on_c, 0, 72, 0
3, 23328, Note_on_c, 0, 71, 71
3, 23593, Note_on_c, 0, 71, 0
3, 25104, Note_on_c, 0, 60, 71
3, 25124, Note_on_c, 0, 60, 0
3, 25152, Note_on_c, 0, 60, 72
3, 25200, Note_on_c, 0, 60, 0
3, 25200, Note_on_c, 0, 65, 72
3, 25245, Note_on_c, 0, 65, 0
3, 25248, Note_on_c, 0, 65, 73
3, 25296, Note_on_c, 0, 65, 0
3, 25296, Note_on_c, 0, 63, 73
3, 25341, Note_on_c, 0, 63, 0
3, 25344, Note_on_c, 0, 62, 74
3, 25609, Note_on_c, 0, 62, 0
3, 25680, Note_on_c, 0, 62, 78
3, 25700, Note_on_c, 0, 62, 0
3, 25728, Note_on_c, 0, 62, 78
3, 25776, Note_on_c, 0, 62, 0
3, 25776, Note_on_c, 0, 67, 79
3, 25821, Note_on_c, 0, 67, 0
3, 25824, Note_on_c, 0, 67, 79
3, 25872, Note_on_c, 0, 67, 0
3, 25872, Note_on_c, 0, 65, 80
3, 25917, Note_on_c, 0, 65, 0
3, 25920, Note_on_c, 0, 63, 81
3, 26185, Note_on_c, 0, 63, 0
3, 27120, Note_on_c, 0, 72, 76
3, 27140, Note_on_c, 0, 72, 0
3, 27168, Note_on_c, 0, 72, 75
3, 27216, Note_on_c, 0, 72, 0
3, 27216, Note_on_c, 0, 74, 74
3, 27261, Note_on_c, 0, 74, 0
3, 27264, Note_on_c, 0, 74, 73
3, 27312, Note_on_c, 0, 74, 0
3, 27312, Note_on_c, 0, 72, 72
3, 27357, Note_on_c, 0, 72, 0
3, 27360, Note_on_c, 0, 71, 71
3, 27625, Note_on_c, 0, 71, 0
3, 43776, End_track
4, 0, Start_track
4, 0, Program_c, 1, 0
4, 0, Control_c, 1, 7, 127
4, 0, Control_c, 1, 10, 64
4, 0, Note_on_c, 1, 67, 75
4, 0, Note_on_c, 1, 63, 75
4, 89, Note_on_c, 1, 67, 0
4, 89, Note_on_c, 1, 63, 0
4, 96, Note_on_c, 1, 70, 75
4, 96, Note_on_c, 1, 62, 75
4, 185, Note_on_c, 1, 70, 0
4, 185, Note_on_c, 1, 62, 0
4, 288, Note_on_c, 1, 70, 75
4, 288, Note_on_c, 1, 62, 75
4, 377, Note_on_c, 1, 70, 0
4, 377, Note_on_c, 1, 62, 0
4, 384, Note_on_c, 1, 70, 75
4, 384, Note_on_c, 1, 63, 75
4, 473, Note_on_c, 1, 70, 0
4, 473, Note_on_c, 1, 63, 0
4, 576, Note_on_c, 1, 65, 75
4, 576, Note_on_c, 1, 56, 75
4, 841, Note_on_c, 1, 65, 0
4, 841, Note_on_c, 1, 56, 0
4, 864, Note_on_c, 1, 67, 75
4, 953, Note_on_c, 1, 67, 0
4, 960, Note_on_c, 1, 65, 75
4, 1049, Note_on_c, 1, 65, 0
4, 1056, Note_on_c, 1, 63, 75
4, 1145, Note_on_c, 1, 63, 0
4, 1152, Note_on_c, 1, 65, 75
4, 1417, Note_on_c, 1, 65, 0
4, 1440, Note_on_c, 1, 67, 75
4, 1529, Note_on_c, 1, 67, 0
4, 1536, Note_on_c, 1, 65, 75
4, 1625, Note_on_c, 1, 65, 0
4, 1632, Note_on_c, 1, 63, 75
4, 1721, Note_on_c, 1, 63, 0
4, 1824, Note_on_c, 1, 50, 73
4, 1913, Note_on_c, 1, 50, 0
4, 1920, Note_on_c, 1, 51, 71
4, 2009, Note_on_c, 1, 51, 0
4, 2016, Note_on_c, 1, 46, 70
4, 2105, Note_on_c, 1, 46, 0
4, 2112, Note_on_c, 1, 58, 70
4, 2201, Note_on_c, 1, 58, 0
4, 2304, Note_on_c, 1, 67, 75
4, 2304, Note_on_c, 1, 63, 75
4, 2393, Note_on_c, 1, 67, 0
4, 2393, Note_on_c, 1, 63, 0
4, 2400, Note_on_c, 1, 70, 75
4, 2400, Note_on_c, 1, 62, 75
4, 2489, Note_on_c, 1, 70, 0
4, 2489, Note_on_c, 1, 62, 0
4, 2592, Note_on_c, 1, 70, 75
4, 2592, Note_on_c, 1, 62, 75
4, 2681, Note_on_c, 1, 70, 0
4, 2681, Note_on_c, 1, 62, 0
4, 2688, Note_on_c, 1, 70, 75
4, 2688, Note_on_c, 1, 63, 75
4, 2777, Note_on_c, 1, 70, 0
4, 2777, Note_on_c, 1, 63, 0
4, 2880, Note_on_c, 1, 65, 75
4, 2880, Note_on_c, 1, 56, 75
4, 3145, Note_on_c, 1, 65, 0
4, 3145, Note_on_c, 1, 56, 0
4, 3168, Note_on_c, 1, 67, 75
4, 3257, Note_on_c, 1, 67, 0
4, 3264, Note_on_c, 1, 65, 75
4, 3353, Note_on_c, 1, 65, 0
4, 3360, Note_on_c, 1, 63, 75
4, 3449, Note_on_c, 1, 63, 0
4, 3456, Note_on_c, 1, 65, 75
4, 3721, Note_on_c, 1, 65, 0
4, 3744, Note_on_c, 1, 67, 75
4, 3833, Note_on_c, 1, 67, 0
4, 3840, Note_on_c, 1, 65, 75
4, 3929, Note_on_c, 1, 65, 0
4, 3936, Note_on_c, 1, 63, 75
4, 4025, Note_on_c, 1, 63, 0
4, 4128, Note_on_c, 1, 50, 73
4, 4217, Note_on_c, 1, 50, 0
4, 4224, Note_on_c, 1, 51, 71
4, 4313, Note_on_c, 1, 51, 0
4, 4320, Note_on_c, 1, 46, 70
4, 4409, Note_on_c, 1, 46, 0
4, 4416, Note_on_c, 1, 58, 70
4, 4505, Note_on_c, 1, 58, 0
4, 4608, Note_on_c, 1, 46, 81
4, 4638, Note_on_c, 1, 46, 0
4, 4640, Note_on_c, 1, 50, 81
4, 4670, Note_on_c, 1, 50, 0
4, 4672, Note_on_c, 1, 53, 81
4, 4702, Note_on_c, 1, 53, 0
4, 4704, Note_on_c, 1, 50, 81
4, 4734, Note_on_c, 1, 50, 0
4, 4736, Note_on_c, 1, 53, 81
4, 4766, Note_on_c, 1, 53, 0
4, 4768, Note_on_c, 1, 58, 81
4, 4798, Note_on_c, 1, 58, 0
4, 4800, Note_on_c, 1, 53, 81
4, 4830, Note_on_c, 1, 53, 0
4, 4832, Note_on_c, 1, 58, 81
4, 4862, Note_on_c, 1, 58, 0
4, 4864, Note_on_c, 1, 62, 81
4, 4894, Note_on_c, 1, 62, 0
4, 4896, Note_on_c, 1, 65, 81
4, 5088, Note_on_c, 1, 65, 0
4, 5088, Note_on_c, 1, 63, 70
4, 5182, Note_on_c, 1, 63, 0
4, 5184, Note_on_c, 1, 46, 81
4, 5214, Note_on_c, 1, 46, 0
4, 5216, Note_on_c, 1, 50, 81
4, 5246, Note_on_c, 1, 50, 0
4, 5248, Note_on_c, 1, 53, 81
4, 5278, Note_on_c, 1, 53, 0
4, 5280, Note_on_c, 1, 50, 81
4, 5310, Note_on_c, 1, 50, 0
4, 5312, Note_on_c, 1, 53, 81
4, 5342, Note_on_c, 1, 53, 0
4, 5344, Note_on_c, 1, 58, 81
4, 5374, Note_on_c, 1, 58, 0
4, 5376, Note_on_c, 1, 53, 81
4, 5406, Note_on_c, 1, 53, 0
4, 5408, Note_on_c, 1, 58, 81
4, 5438, Note_on_c, 1, 58, 0
4, 5440, Note_on_c, 1, 62, 81
4, 5470, Note_on_c, 1, 62, 0
4, 5472, Note_on_c, 1, 65, 81
4, 5561, Note_on_c, 1, 65, 0
4, 5568, Note_on_c, 1, 62, 81
4, 5664, Note_on_c, 1, 62, 0
4, 5664, Note_on_c, 1, 63, 70
4, 5758, Note_on_c, 1, 63, 0
4, 5760, Note_on_c, 1, 63, 70
4, 5760, Note_on_c, 1, 60, 70
4, 5760, Note_on_c, 1, 57, 70
4, 5849, Note_on_c, 1, 63, 0
4, 5849, Note_on_c, 1, 60, 0
4, 5849, Note_on_c, 1, 57, 0
4, 6048, Note_on_c, 1, 66, 73
4, 6048, Note_on_c, 1, 63, 73
4, 6048, Note_on_c, 1, 58, 73
4, 6137, Note_on_c, 1, 66, 0
4, 6137, Note_on_c, 1, 63, 0
4, 6137, Note_on_c, 1, 58, 0
4, 6336, Note_on_c, 1, 66, 76
4, 6336, Note_on_c, 1, 63, 76
4, 6336, Note_on_c, 1, 59, 76
4, 6425, Note_on_c, 1, 66, 0
4, 6425, Note_on_c, 1, 63, 0
4, 6425, Note_on_c, 1, 59, 0
4, 6528, Note_on_c, 1, 66, 78
4, 6528, Note_on_c, 1, 63, 78
4, 6528, Note_on_c, 1, 57, 78
4, 6617, Note_on_c, 1, 66, 0
4, 6617, Note_on_c, 1, 63, 0
4, 6617, Note_on_c, 1, 57, 0
4, 6624, Note_on_c, 1, 65, 79
4, 6624, Note_on_c, 1, 58, 79
4, 6801, Note_on_c, 1, 65, 0
4, 6801, Note_on_c, 1, 58, 0
4, 6912, Note_on_c, 1, 67, 75
4, 6912, Note_on_c, 1, 63, 75
4, 7001, Note_on_c, 1, 67, 0
4, 7001, Note_on_c, 1, 63, 0
4, 7008, Note_on_c, 1, 70, 75
4, 7008, Note_on_c, 1, 62, 75
4, 7097, Note_on_c, 1, 70, 0
4, 7097, Note_on_c, 1, 62, 0
4, 7200, Note_on_c, 1, 70, 75
4, 7200, Note_on_c, 1, 62, 75
4, 7289, Note_on_c, 1, 70, 0
4, 7289, Note_on_c, 1, 62, 0
4, 7296, Note_on_c, 1, 70, 75
4, 7296, Note_on_c, 1, 63, 75
4, 7385, Note_on_c, 1, 70, 0
4, 7385, Note_on_c, 1, 63, 0
4, 7488, Note_on_c, 1, 65, 75
4, 7488, Note_on_c, 1, 56, 75
4, 7753, Note_on_c, 1, 65, 0
4, 7753, Note_on_c, 1, 56, 0
4, 7776, Note_on_c, 1, 67, 75
4, 7865, Note_on_c, 1, 67, 0
4, 7872, Note_on_c, 1, 65, 75
4, 7961, Note_on_c, 1, 65, 0
4, 7968, Note_on_c, 1, 63, 75
4, 8057, Note_on_c, 1, 63, 0
4, 8064, Note_on_c, 1, 65, 75
4, 8329, Note_on_c, 1, 65, 0
4, 8352, Note_on_c, 1, 67, 75
4, 8441, Note_on_c, 1, 67, 0
4, 8448, Note_on_c, 1, 65, 75
4, 8537, Note_on_c, 1, 65, 0
4, 8544, Note_on_c, 1, 63, 75
4, 8633, Note_on_c, 1, 63, 0
4, 8736, Note_on_c, 1, 63, 75
4, 8913, Note_on_c, 1, 63, 0
4, 9024, Note_on_c, 1, 63, 75
4, 9201, Note_on_c, 1, 63, 0
4, 9216, Note_on_c, 1, 56, 75
4, 9305, Note_on_c, 1, 56, 0
4, 9312, Note_on_c, 1, 58, 75
4, 9401, Note_on_c, 1, 58, 0
4, 9408, Note_on_c, 1, 46, 75
4, 9497, Note_on_c, 1, 46, 0
4, 9504, Note_on_c, 1, 51, 75
4, 9593, Note_on_c, 1, 51, 0
4, 9600, Note_on_c, 1, 39, 75
4, 9689, Note_on_c, 1, 39, 0
4, 9792, Note_on_c, 1, 46, 81
4, 9822, Note_on_c, 1, 46, 0
4, 9824, Note_on_c, 1, 50, 81
4, 9854, Note_on_c, 1, 50, 0
4, 9856, Note_on_c, 1, 53, 81
4, 9886, Note_on_c, 1, 53, 0
4, 9888, Note_on_c, 1, 50, 81
4, 9918, Note_on_c, 1, 50, 0
4, 9920, Note_on_c, 1, 53, 81
4, 9950, Note_on_c, 1, 53, 0
4, 9952, Note_on_c, 1, 58, 81
4, 9982, Note_on_c, 1, 58, 0
4, 9984, Note_on_c, 1, 53, 81
4, 10014, Note_on_c, 1, 53, 0
4, 10016, Note_on_c, 1, 58, 81
4, 10046, Note_on_c, 1, 58, 0
4, 10048, Note_on_c, 1, 62, 81
4, 10078, Note_on_c, 1, 62, 0
4, 10080, Note_on_c, 1, 65, 81
4, 10272, Note_on_c, 1, 65, 0
4, 10272, Note_on_c, 1, 63, 70
4, 10366, Note_on_c, 1, 63, 0
4, 10368, Note_on_c, 1, 46, 81
4, 10398, Note_on_c, 1, 46, 0
4, 10400, Note_on_c, 1, 50, 81
4, 10430, Note_on_c, 1, 50, 0
4, 10432, Note_on_c, 1, 53, 81
4, 10462, Note_on_c, 1, 53, 0
4, 10464, Note_on_c, 1, 50, 81
4, 10494, Note_on_c, 1, 50, 0
4, 10496, Note_on_c, 1, 53, 81
4, 10526, Note_on_c, 1, 53, 0
4, 10528, Note_on_c, 1, 58, 81
4, 10558, Note_on_c, 1, 58, 0
4, 10560, Note_on_c, 1, 53, 81
4, 10590, Note_on_c, 1, 53, 0
4, 10592, Note_on_c, 1, 58, 81
4, 10622, Note_on_c, 1, 58, 0
4, 10624, Note_on_c, 1, 62, 81
4, 10654, Note_on_c, 1, 62, 0
4, 10656, Note_on_c, 1, 65, 81
4, 10745, Note_on_c, 1, 65, 0
4, 10752, Note_on_c, 1, 62, 81
4, 10848, Note_on_c, 1, 62, 0
4, 10848, Note_on_c, 1, 63, 70
4, 10942, Note_on_c, 1, 63, 0
4, 10944, Note_on_c, 1, 63, 70
4, 10944, Note_on_c, 1, 60, 70
4, 10944, Note_on_c, 1, 57, 70
4, 11033, Note_on_c, 1, 63, 0
4, 11033, Note_on_c, 1, 60, 0
4, 11033, Note_on_c, 1, 57, 0
4, 11232, Note_on_c, 1, 66, 73
4, 11232, Note_on_c, 1, 63, 73
4, 11232, Note_on_c, 1, 58, 73
4, 11321, Note_on_c, 1, 66, 0
4, 11321, Note_on_c, 1, 63, 0
4, 11321, Note_on_c, 1, 58, 0
4, 11520, Note_on_c, 1, 66, 76
4, 11520, Note_on_c, 1, 63, 76
4, 11520, Note_on_c, 1, 59, 76
4, 11609, Note_on_c, 1, 66, 0
4, 11609, Note_on_c, 1, 63, 0
4, 11609, Note_on_c, 1, 59, 0
4, 11712, Note_on_c, 1, 66, 78
4, 11712, Note_on_c, 1, 63, 78
4, 11712, Note_on_c, 1, 57, 78
4, 11801, Note_on_c, 1, 66, 0
4, 11801, Note_on_c, 1, 63, 0
4, 11801, Note_on_c, 1, 57, 0
4, 11808, Note_on_c, 1, 65, 79
4, 11808, Note_on_c, 1, 58, 79
4, 11985, Note_on_c, 1, 65, 0
4, 11985, Note_on_c, 1, 58, 0
4, 12096, Note_on_c, 1, 67, 75
4, 12096, Note_on_c, 1, 63, 75
4, 12185, Note_on_c, 1, 67, 0
4, 12185, Note_on_c, 1, 63, 0
4, 12192, Note_on_c, 1, 70, 75
4, 12192, Note_on_c, 1, 62, 75
4, 12281, Note_on_c, 1, 70, 0
4, 12281, Note_on_c, 1, 62, 0
4, 12384, Note_on_c, 1, 70, 75
4, 12384, Note_on_c, 1, 62, 75
4, 12473, Note_on_c, 1, 70, 0
4, 12473, Note_on_c, 1, 62, 0
4, 12480, Note_on_c, 1, 70, 75
4, 12480, Note_on_c, 1, 63, 75
4, 12569, Note_on_c, 1, 70, 0
4, 12569, Note_on_c, 1, 63, 0
4, 12672, Note_on_c, 1, 65, 75
4, 12672, Note_on_c, 1, 56, 75
4, 12937, Note_on_c, 1, 65, 0
4, 12937, Note_on_c, 1, 56, 0
4, 12960, Note_on_c, 1, 67, 75
4, 13049, Note_on_c, 1, 67, 0
4, 13056, Note_on_c, 1, 65, 75
4, 13145, Note_on_c, 1, 65, 0
4, 13152, Note_on_c, 1, 63, 75
4, 13241, Note_on_c, 1, 63, 0
4, 13248, Note_on_c, 1, 65, 75
4, 13513, Note_on_c, 1, 65, 0
4, 13536, Note_on_c, 1, 67, 75
4, 13625, Note_on_c, 1, 67, 0
4, 13632, Note_on_c, 1, 65, 75
4, 13721, Note_on_c, 1, 65, 0
4, 13728, Note_on_c, 1, 63, 75
4, 13817, Note_on_c, 1, 63, 0
4, 13920, Note_on_c, 1, 63, 75
4, 14097, Note_on_c, 1, 63, 0
4, 14208, Note_on_c, 1, 63, 75
4, 14385, Note_on_c, 1, 63, 0
4, 14400, Note_on_c, 1, 56, 75
4, 14489, Note_on_c, 1, 56, 0
4, 14496, Note_on_c, 1, 58, 75
4, 14585, Note_on_c, 1, 58, 0
4, 14592, Note_on_c, 1, 46, 75
4, 14681, Note_on_c, 1, 46, 0
4, 14688, Note_on_c, 1, 51, 75
4, 14777, Note_on_c, 1, 51, 0
4, 14784, Note_on_c, 1, 39, 75
4, 14873, Note_on_c, 1, 39, 0
4, 14976, Note_on_c, 1, 60, 75
4, 14976, Note_on_c, 1, 48, 75
4, 15065, Note_on_c, 1, 60, 0
4, 15065, Note_on_c, 1, 48, 0
4, 15264, Note_on_c, 1, 62, 73
4, 15264, Note_on_c, 1, 50, 73
4, 15353, Note_on_c, 1, 62, 0
4, 15353, Note_on_c, 1, 50, 0
4, 15552, Note_on_c, 1, 55, 72
4, 15552, Note_on_c, 1, 43, 72
4, 15641, Note_on_c, 1, 55, 0
4, 15641, Note_on_c, 1, 43, 0
4, 15840, Note_on_c, 1, 60, 70
4, 15840, Note_on_c, 1, 48, 70
4, 15929, Note_on_c, 1, 60, 0
4, 15929, Note_on_c, 1, 48, 0
4, 16128, Note_on_c, 1, 53, 69
4, 16128, Note_on_c, 1, 41, 69
4, 16217, Note_on_c, 1, 53, 0
4, 16217, Note_on_c, 1, 41, 0
4, 16416, Note_on_c, 1, 58, 67
4, 16416, Note_on_c, 1, 46, 67
4, 16505, Note_on_c, 1, 58, 0
4, 16505, Note_on_c, 1, 46, 0
4, 16704, Note_on_c, 1, 63, 81
4, 16704, Note_on_c, 1, 51, 81
4, 16793, Note_on_c, 1, 63, 0
4, 16793, Note_on_c, 1, 51, 0
4, 16992, Note_on_c, 1, 60, 81
4, 16992, Note_on_c, 1, 48, 81
4, 17081, Note_on_c, 1, 60, 0
4, 17081, Note_on_c, 1, 48, 0
4, 17280, Note_on_c, 1, 56, 81
4, 17369, Note_on_c, 1, 56, 0
4, 17376, Note_on_c, 1, 58, 77
4, 17465, Note_on_c, 1, 58, 0
4, 17472, Note_on_c, 1, 46, 73
4, 17561, Note_on_c, 1, 46, 0
4, 17568, Note_on_c, 1, 51, 69
4, 17657, Note_on_c, 1, 51, 0
4, 17664, Note_on_c, 1, 46, 66
4, 17753, Note_on_c, 1, 46, 0
4, 17760, Note_on_c, 1, 39, 66
4, 17849, Note_on_c, 1, 39, 0
4, 17856, Note_on_c, 1, 60, 75
4, 17856, Note_on_c, 1, 48, 75
4, 17945, Note_on_c, 1, 60, 0
4, 17945, Note_on_c, 1, 48, 0
4, 18144, Note_on_c, 1, 62, 73
4, 18144, Note_on_c, 1, 50, 73
4, 18233, Note_on_c, 1, 62, 0
4, 18233, Note_on_c, 1, 50, 0
4, 18432, Note_on_c, 1, 55, 72
4, 18432, Note_on_c, 1, 43, 72
4, 18521, Note_on_c, 1, 55, 0
4, 18521, Note_on_c, 1, 43, 0
4, 18720, Note_on_c, 1, 60, 70
4, 18720, Note_on_c, 1, 48, 70
4, 18809, Note_on_c, 1, 60, 0
4, 18809, Note_on_c, 1, 48, 0
4, 19008, Note_on_c, 1, 53, 69
4, 19008, Note_on_c, 1, 41, 69
4, 19097, Note_on_c, 1, 53, 0
4, 19097, Note_on_c, 1, 41, 0
4, 19296, Note_on_c, 1, 58, 67
4, 19296, Note_on_c, 1, 46, 67
4, 19385, Note_on_c, 1, 58, 0
4, 19385, Note_on_c, 1, 46, 0
4, 19584, Note_on_c, 1, 63, 81
4, 19584, Note_on_c, 1, 51, 81
4, 19673, Note_on_c, 1, 63, 0
4, 19673, Note_on_c, 1, 51, 0
4, 19872, Note_on_c, 1, 60, 81
4, 19872, Note_on_c, 1, 48, 81
4, 19961, Note_on_c, 1, 60, 0
4, 19961, Note_on_c, 1, 48, 0
4, 20160, Note_on_c, 1, 56, 81
4, 20249, Note_on_c, 1, 56, 0
4, 20256, Note_on_c, 1, 58, 77
4, 20345, Note_on_c, 1, 58, 0
4, 20352, Note_on_c, 1, 46, 73
4, 20441, Note_on_c, 1, 46, 0
4, 20448, Note_on_c, 1, 51, 69
4, 20537, Note_on_c, 1, 51, 0
4, 20544, Note_on_c, 1, 46, 66
4, 20633, Note_on_c, 1, 46, 0
4, 20640, Note_on_c, 1, 39, 66
4, 20729, Note_on_c, 1, 39, 0
4, 20736, Note_on_c, 1, 52, 70
4, 20736, Note_on_c, 1, 40, 70
4, 20825, Note_on_c, 1, 52, 0
4, 20825, Note_on_c, 1, 40, 0
4, 21024, Note_on_c, 1, 53, 72
4, 21024, Note_on_c, 1, 41, 72
4, 21113, Note_on_c, 1, 53, 0
4, 21113, Note_on_c, 1, 41, 0
4, 21312, Note_on_c, 1, 54, 75
4, 21312, Note_on_c, 1, 42, 75
4, 21401, Note_on_c, 1, 54, 0
4, 21401, Note_on_c, 1, 42, 0
4, 21600, Note_on_c, 1, 55, 78
4, 21600, Note_on_c, 1, 43, 78
4, 21689, Note_on_c, 1, 55, 0
4, 21689, Note_on_c, 1, 43, 0
4, 21888, Note_on_c, 1, 55, 81
4, 21888, Note_on_c, 1, 43, 81
4, 21977, Note_on_c, 1, 55, 0
4, 21977, Note_on_c, 1, 43, 0
4, 22176, Note_on_c, 1, 63, 81
4, 22176, Note_on_c, 1, 56, 81
4, 22353, Note_on_c, 1, 63, 0
4, 22353, Note_on_c, 1, 56, 0
4, 22368, Note_on_c, 1, 60, 81
4, 22368, Note_on_c, 1, 56, 81
4, 22457, Note_on_c, 1, 60, 0
4, 22457, Note_on_c, 1, 56, 0
4, 22464, Note_on_c, 1, 59, 76
4, 22464, Note_on_c, 1, 55, 76
4, 22641, Note_on_c, 1, 59, 0
4, 22641, Note_on_c, 1, 55, 0
4, 22752, Note_on_c, 1, 60, 75
4, 23017, Note_on_c, 1, 60, 0
4, 23040, Note_on_c, 1, 62, 81
4, 23305, Note_on_c, 1, 62, 0
4, 23328, Note_on_c, 1, 67, 73
4, 23593, Note_on_c, 1, 67, 0
4, 23616, Note_on_c, 1, 60, 81
4, 23616, Note_on_c, 1, 48, 81
4, 23705, Note_on_c, 1, 60, 0
4, 23705, Note_on_c, 1, 48, 0
4, 23904, Note_on_c, 1, 56, 81
4, 23904, Note_on_c, 1, 44, 81
4, 23993, Note_on_c, 1, 56, 0
4, 23993, Note_on_c, 1, 44, 0
4, 24192, Note_on_c, 1, 53, 81
4, 24281, Note_on_c, 1, 53, 0
4, 24288, Note_on_c, 1, 55, 77
4, 24377, Note_on_c, 1, 55, 0
4, 24384, Note_on_c, 1, 43, 73
4, 24473, Note_on_c, 1, 43, 0
4, 24480, Note_on_c, 1, 48, 69
4, 24569, Note_on_c, 1, 48, 0
4, 24576, Note_on_c, 1, 43, 66
4, 24665, Note_on_c, 1, 43, 0
4, 24672, Note_on_c, 1, 36, 66
4, 24761, Note_on_c, 1, 36, 0
4, 24768, Note_on_c, 1, 52, 70
4, 24768, Note_on_c, 1, 40, 70
4, 24857, Note_on_c, 1, 52, 0
4, 24857, Note_on_c, 1, 40, 0
4, 25056, Note_on_c, 1, 53, 72
4, 25056, Note_on_c, 1, 41, 72
4, 25145, Note_on_c, 1, 53, 0
4, 25145, Note_on_c, 1, 41, 0
4, 25344, Note_on_c, 1, 54, 75
4, 25344, Note_on_c, 1, 42, 75
4, 25433, Note_on_c, 1, 54, 0
4, 25433, Note_on_c, 1, 42, 0
4, 25632, Note_on_c, 1, 55, 78
4, 25632, Note_on_c, 1, 43, 78
4, 25721, Note_on_c, 1, 55, 0
4, 25721, Note_on_c, 1, 43, 0
4, 25920, Note_on_c, 1, 55, 81
4, 25920, Note_on_c, 1, 43, 81
4, 26009, Note_on_c, 1, 55, 0
4, 26009, Note_on_c, 1, 43, 0
4, 26208, Note_on_c, 1, 63, 81
4, 26208, Note_on_c, 1, 56, 81
4, 26385, Note_on_c, 1, 63, 0
4, 26385, Note_on_c, 1, 56, 0
4, 26400, Note_on_c, 1, 60, 81
4, 26400, Note_on_c, 1, 56, 81
4, 26489, Note_on_c, 1, 60, 0
4, 26489, Note_on_c, 1, 56, 0
4, 26496, Note_on_c, 1, 59, 76
4, 26496, Note_on_c, 1, 55, 76
4, 26673, Note_on_c, 1, 59, 0
4, 26673, Note_on_c, 1, 55, 0
4, 26784, Note_on_c, 1, 60, 75
4, 27049, Note_on_c, 1, 60, 0
4, 27072, Note_on_c, 1, 62, 81
4, 27337, Note_on_c, 1, 62, 0
4, 27360, Note_on_c, 1, 67, 73
4, 27625, Note_on_c, 1, 67, 0
4, 27648, Note_on_c, 1, 60, 81
4, 27648, Note_on_c, 1, 48, 81
4, 27737, Note_on_c, 1, 60, 0
4, 27737, Note_on_c, 1, 48, 0
4, 27936, Note_on_c, 1, 56, 81
4, 27936, Note_on_c, 1, 44, 81
4, 28025, Note_on_c, 1, 56, 0
4, 28025, Note_on_c, 1, 44, 0
4, 28224, Note_on_c, 1, 53, 81
4, 28313, Note_on_c, 1, 53, 0
4, 28320, Note_on_c, 1, 55, 77
4, 28409, Note_on_c, 1, 55, 0
4, 28416, Note_on_c, 1, 43, 73
4, 28505, Note_on_c, 1, 43, 0
4, 28512, Note_on_c, 1, 48, 69
4, 28601, Note_on_c, 1, 48, 0
4, 28608, Note_on_c, 1, 43, 66
4, 28697, Note_on_c, 1, 43, 0
4, 28704, Note_on_c, 1, 36, 66
4, 28793, Note_on_c, 1, 36, 0
4, 28800, Note_on_c, 1, 67, 75
4, 28800, Note_on_c, 1, 63, 75
4, 28889, Note_on_c, 1, 67, 0
4, 28889, Note_on_c, 1, 63, 0
4, 28896, Note_on_c, 1, 70, 75
4, 28896, Note_on_c, 1, 62, 75
4, 28985, Note_on_c, 1, 70, 0
4, 28985, Note_on_c, 1, 62, 0
4, 29088, Note_on_c, 1, 70, 75
4, 29088, Note_on_c, 1, 62, 75
4, 29177, Note_on_c, 1, 70, 0
4, 29177, Note_on_c, 1, 62, 0
4, 29184, Note_on_c, 1, 70, 75
4, 29184, Note_on_c, 1, 63, 75
4, 29273, Note_on_c, 1, 70, 0
4, 29273, Note_on_c, 1, 63, 0
4, 29376, Note_on_c, 1, 65, 75
4, 29376, Note_on_c, 1, 56, 75
4, 29641, Note_on_c, 1, 65, 0
4, 29641, Note_on_c, 1, 56, 0
4, 29664, Note_on_c, 1, 67, 75
4, 29753, Note_on_c, 1, 67, 0
4, 29760, Note_on_c, 1, 65, 75
4, 29849, Note_on_c, 1, 65, 0
4, 29856, Note_on_c, 1, 63, 75
4, 29945, Note_on_c, 1, 63, 0
4, 29952, Note_on_c, 1, 65, 75
4, 30217, Note_on_c, 1, 65, 0
4, 30240, Note_on_c, 1, 67, 75
4, 30329, Note_on_c, 1, 67, 0
4, 30336, Note_on_c, 1, 65, 75
4, 30425, Note_on_c, 1, 65, 0
4, 30432, Note_on_c, 1, 63, 75
4, 30521, Note_on_c, 1, 63, 0
4, 30624, Note_on_c, 1, 50, 73
4, 30713, Note_on_c, 1, 50, 0
4, 30720, Note_on_c, 1, 51, 71
4, 30809, Note_on_c, 1, 51, 0
4, 30816, Note_on_c, 1, 46, 70
4, 30905, Note_on_c, 1, 46, 0
4, 30912, Note_on_c, 1, 58, 70
4, 31001, Note_on_c, 1, 58, 0
4, 31104, Note_on_c, 1, 67, 75
4, 31104, Note_on_c, 1, 63, 75
4, 31193, Note_on_c, 1, 67, 0
4, 31193, Note_on_c, 1, 63, 0
4, 31200, Note_on_c, 1, 70, 75
4, 31200, Note_on_c, 1, 62, 75
4, 31289, Note_on_c, 1, 70, 0
4, 31289, Note_on_c, 1, 62, 0
4, 31392, Note_on_c, 1, 70, 75
4, 31392, Note_on_c, 1, 62, 75
4, 31481, Note_on_c, 1, 70, 0
4, 31481, Note_on_c, 1, 62, 0
4, 31488, Note_on_c, 1, 70, 75
4, 31488, Note_on_c, 1, 63, 75
4, 31577, Note_on_c, 1, 70, 0
4, 31577, Note_on_c, 1, 63, 0
4, 31680, Note_on_c, 1, 65, 75
4, 31680, Note_on_c, 1, 56, 75
4, 31945, Note_on_c, 1, 65, 0
4, 31945, Note_on_c, 1, 56, 0
4, 31968, Note_on_c, 1, 67, 75
4, 32057, Note_on_c, 1, 67, 0
4, 32064, Note_on_c, 1, 65, 75
4, 32153, Note_on_c, 1, 65, 0
4, 32160, Note_on_c, 1, 63, 75
4, 32249, Note_on_c, 1, 63, 0
4, 32256, Note_on_c, 1, 65, 75
4, 32521, Note_on_c, 1, 65, 0
4, 32544, Note_on_c, 1, 67, 75
4, 32633, Note_on_c, 1, 67, 0
4, 32640, Note_on_c, 1, 65, 75
4, 32729, Note_on_c, 1, 65, 0
4, 32736, Note_on_c, 1, 63, 75
4, 32825, Note_on_c, 1, 63, 0
4, 32928, Note_on_c, 1, 50, 73
4, 33017, Note_on_c, 1, 50, 0
4, 33024, Note_on_c, 1, 51, 71
4, 33113, Note_on_c, 1, 51, 0
4, 33120, Note_on_c, 1, 46, 70
4, 33209, Note_on_c, 1, 46, 0
4, 33216, Note_on_c, 1, 58, 70
4, 33305, Note_on_c, 1, 58, 0
4, 33408, Note_on_c, 1, 46, 81
4, 33438, Note_on_c, 1, 46, 0
4, 33440, Note_on_c, 1, 50, 81
4, 33470, Note_on_c, 1, 50, 0
4, 33472, Note_on_c, 1, 53, 81
4, 33502, Note_on_c, 1, 53, 0
4, 33504, Note_on_c, 1, 50, 81
4, 33534, Note_on_c, 1, 50, 0
4, 33536, Note_on_c, 1, 53, 81
4, 33566, Note_on_c, 1, 53, 0
4, 33568, Note_on_c, 1, 58, 81
4, 33598, Note_on_c, 1, 58, 0
4, 33600, Note_on_c, 1, 53, 81
4, 33630, Note_on_c, 1, 53, 0
4, 33632, Note_on_c, 1, 58, 81
4, 33662, Note_on_c, 1, 58, 0
4, 33664, Note_on_c, 1, 62, 81
4, 33694, Note_on_c, 1, 62, 0
4, 33696, Note_on_c, 1, 65, 81
4, 33888, Note_on_c, 1, 65, 0
4, 33888, Note_on_c, 1, 63, 70
4, 33982, Note_on_c, 1, 63, 0
4, 33984, Note_on_c, 1, 46, 81
4, 34014, Note_on_c, 1, 46, 0
4, 34016, Note_on_c, 1, 50, 81
4, 34046, Note_on_c, 1, 50, 0
4, 34048, Note_on_c, 1, 53, 81
4, 34078, Note_on_c, 1, 53, 0
4, 34080, Note_on_c, 1, 50, 81
4, 34110, Note_on_c, 1, 50, 0
4, 34112, Note_on_c, 1, 53, 81
4, 34142, Note_on_c, 1, 53, 0
4, 34144, Note_on_c, 1, 58, 81
4, 34174, Note_on_c, 1, 58, 0
4, 34176, Note_on_c, 1, 53, 81
4, 34206, Note_on_c, 1, 53, 0
4, 34208, Note_on_c, 1, 58, 81
4, 34238, Note_on_c, 1, 58, 0
4, 34240, Note_on_c, 1, 62, 81
4, 34270, Note_on_c, 1, 62, 0
4, 34272, Note_on_c, 1, 65, 81
4, 34361, Note_on_c, 1, 65, 0
4, 34368, Note_on_c, 1, 62, 81
4, 34464, Note_on_c, 1, 62, 0
4, 34464, Note_on_c, 1, 63, 70
4, 34558, Note_on_c, 1, 63, 0
4, 34560, Note_on_c, 1, 63, 70
4, 34560, Note_on_c, 1, 60, 70
4, 34560, Note_on_c, 1, 57, 70
4, 34649, Note_on_c, 1, 63, 0
4, 34649, Note_on_c, 1, 60, 0
4, 34649, Note_on_c, 1, 57, 0
4, 34848, Note_on_c, 1, 66, 73
4, 34848, Note_on_c, 1, 63, 73
4, 34848, Note_on_c, 1, 58, 73
4, 34937, Note_on_c, 1, 66, 0
4, 34937, Note_on_c, 1, 63, 0
4, 34937, Note_on_c, 1, 58, 0
4, 35136, Note_on_c, 1, 66, 76
4, 35136, Note_on_c, 1, 63, 76
4, 35136, Note_on_c, 1, 59, 76
4, 35225, Note_on_c, 1, 66, 0
4, 35225, Note_on_c, 1, 63, 0
4, 35225, Note_on_c, 1, 59, 0
4, 35328, Note_on_c, 1, 66, 78
4, 35328, Note_on_c, 1, 63, 78
4, 35328, Note_on_c, 1, 57, 78
4, 35417, Note_on_c, 1, 66, 0
4, 35417, Note_on_c, 1, 63, 0
4, 35417, Note_on_c, 1, 57, 0
4, 35424, Note_on_c, 1, 65, 79
4, 35424, Note_on_c, 1, 58, 79
4, 35601, Note_on_c, 1, 65, 0
4, 35601, Note_on_c, 1, 58, 0
4, 35712, Note_on_c, 1, 67, 75
4, 35712, Note_on_c, 1, 63, 75
4, 35801, Note_on_c, 1, 67, 0
4, 35801, Note_on_c, 1, 63, 0
4, 35808, Note_on_c, 1, 70, 75
4, 35808, Note_on_c, 1, 62, 75
4, 35897, Note_on_c, 1, 70, 0
4, 35897, Note_on_c, 1, 62, 0
4, 36000, Note_on_c, 1, 70, 75
4, 36000, Note_on_c, 1, 62, 75
4, 36089, Note_on_c, 1, 70, 0
4, 36089, Note_on_c, 1, 62, 0
4, 36096, Note_on_c, 1, 70, 75
4, 36096, Note_on_c, 1, 63, 75
4, 36185, Note_on_c, 1, 70, 0
4, 36185, Note_on_c, 1, 63, 0
4, 36288, Note_on_c, 1, 65, 75
4, 36288, Note_on_c, 1, 56, 75
4, 36553, Note_on_c, 1, 65, 0
4, 36553, Note_on_c, 1, 56, 0
4, 36576, Note_on_c, 1, 67, 75
4, 36665, Note_on_c, 1, 67, 0
4, 36672, Note_on_c, 1, 65, 75
4, 36761, Note_on_c, 1, 65, 0
4, 36768, Note_on_c, 1, 63, 75
4, 36857, Note_on_c, 1, 63, 0
4, 36864, Note_on_c, 1, 65, 75
4, 37129, Note_on_c, 1, 65, 0
4, 37152, Note_on_c, 1, 67, 75
4, 37241, Note_on_c, 1, 67, 0
4, 37248, Note_on_c, 1, 65, 75
4, 37337, Note_on_c, 1, 65, 0
4, 37344, Note_on_c, 1, 63, 75
4, 37433, Note_on_c, 1, 63, 0
4, 37536, Note_on_c, 1, 63, 75
4, 37713, Note_on_c, 1, 63, 0
4, 37824, Note_on_c, 1, 63, 75
4, 38001, Note_on_c, 1, 63, 0
4, 38016, Note_on_c, 1, 56, 75
4, 38105, Note_on_c, 1, 56, 0
4, 38112, Note_on_c, 1, 58, 75
4, 38201, Note_on_c, 1, 58, 0
4, 38208, Note_on_c, 1, 46, 75
4, 38297, Note_on_c, 1, 46, 0
4, 38304, Note_on_c, 1, 51, 75
4, 38393, Note_on_c, 1, 51, 0
4, 38400, Note_on_c, 1, 39, 75
4, 38489, Note_on_c, 1, 39, 0
4, 38592, Note_on_c, 1, 46, 81
4, 38622, Note_on_c, 1, 46, 0
4, 38624, Note_on_c, 1, 50, 81
4, 38654, Note_on_c, 1, 50, 0
4, 38656, Note_on_c, 1, 53, 81
4, 38686, Note_on_c, 1, 53, 0
4, 38688, Note_on_c, 1, 50, 81
4, 38718, Note_on_c, 1, 50, 0
4, 38720, Note_on_c, 1, 53, 81
4, 38750, Note_on_c, 1, 53, 0
4, 38752, Note_on_c, 1, 58, 81
4, 38782, Note_on_c, 1, 58, 0
4, 38784, Note_on_c, 1, 53, 81
4, 38814, Note_on_c, 1, 53, 0
4, 38816, Note_on_c, 1, 58, 81
4, 38846, Note_on_c, 1, 58, 0
4, 38848, Note_on_c, 1, 62, 81
4, 38878, Note_on_c, 1, 62, 0
4, 38880, Note_on_c, 1, 65, 81
4, 39072, Note_on_c, 1, 65, 0
4, 39072, Note_on_c, 1, 63, 70
4, 39166, Note_on_c, 1, 63, 0
4, 39168, Note_on_c, 1, 46, 81
4, 39198, Note_on_c, 1, 46, 0
4, 39200, Note_on_c, 1, 50, 81
4, 39230, Note_on_c, 1, 50, 0
4, 39232, Note_on_c, 1, 53, 81
4, 39262, Note_on_c, 1, 53, 0
4, 39264, Note_on_c, 1, 50, 81
4, 39294, Note_on_c, 1, 50, 0
4, 39296, Note_on_c, 1, 53, 81
4, 39326, Note_on_c, 1, 53, 0
4, 39328, Note_on_c, 1, 58, 81
4, 39358, Note_on_c, 1, 58, 0
4, 39360, Note_on_c, 1, 53, 81
4, 39390, Note_on_c, 1, 53, 0
4, 39392, Note_on_c, 1, 58, 81
4, 39422, Note_on_c, 1, 58, 0
4, 39424, Note_on_c, 1, 62, 81
4, 39454, Note_on_c, 1, 62, 0
4, 39456, Note_on_c, 1, 65, 81
4, 39545, Note_on_c, 1, 65, 0
4, 39552, Note_on_c, 1, 62, 81
4, 39648, Note_on_c, 1, 62, 0
4, 39648, Note_on_c, 1, 63, 70
4, 39742, Note_on_c, 1, 63, 0
4, 39744, Note_on_c, 1, 63, 70
4, 39744, Note_on_c, 1, 60, 70
4, 39744, Note_on_c, 1, 57, 70
4, 39833, Note_on_c, 1, 63, 0
4, 39833, Note_on_c, 1, 60, 0
4, 39833, Note_on_c, 1, 57, 0
4, 40032, Note_on_c, 1, 66, 73
4, 40032, Note_on_c, 1, 63, 73
4, 40032, Note_on_c, 1, 58, 73
4, 40121, Note_on_c, 1, 66, 0
4, 40121, Note_on_c, 1, 63, 0
4, 40121, Note_on_c, 1, 58, 0
4, 40320, Note_on_c, 1, 66, 76
4, 40320, Note_on_c, 1, 63, 76
4, 40320, Note_on_c, 1, 59, 76
4, 40409, Note_on_c, 1, 66, 0
4, 40409, Note_on_c, 1, 63, 0
4, 40409, Note_on_c, 1, 59, 0
4, 40512, Note_on_c, 1, 66, 78
4, 40512, Note_on_c, 1, 63, 78
4, 40512, Note_on_c, 1, 57, 78
4, 40601, Note_on_c, 1, 66, 0
4, 40601, Note_on_c, 1, 63, 0
4, 40601, Note_on_c, 1, 57, 0
4, 40608, Note_on_c, 1, 65, 79
4, 40608, Note_on_c, 1, 58, 79
4, 40785, Note_on_c, 1, 65, 0
4, 40785, Note_on_c, 1, 58, 0
4, 40896, Note_on_c, 1, 67, 75
4, 40896, Note_on_c, 1, 63, 75
4, 40985, Note_on_c, 1, 67, 0
4, 40985, Note_on_c, 1, 63, 0
4, 40992, Note_on_c, 1, 70, 75
4, 40992, Note_on_c, 1, 62, 75
4, 41081, Note_on_c, 1, 70, 0
4, 41081, Note_on_c, 1, 62, 0
4, 41184, Note_on_c, 1, 70, 75
4, 41184, Note_on_c, 1, 62, 75
4, 41273, Note_on_c, 1, 70, 0
4, 41273, Note_on_c, 1, 62, 0
4, 41280, Note_on_c, 1, 70, 75
4, 41280, Note_on_c, 1, 63, 75
4, 41369, Note_on_c, 1, 70, 0
4, 41369, Note_on_c, 1, 63, 0
4, 41472, Note_on_c, 1, 65, 75
4, 41472, Note_on_c, 1, 56, 75
4, 41737, Note_on_c, 1, 65, 0
4, 41737, Note_on_c, 1, 56, 0
4, 41760, Note_on_c, 1, 67, 75
4, 41849, Note_on_c, 1, 67, 0
4, 41856, Note_on_c, 1, 65, 75
4, 41945, Note_on_c, 1, 65, 0
4, 41952, Note_on_c, 1, 63, 75
4, 42041, Note_on_c, 1, 63, 0
4, 42048, Note_on_c, 1, 65, 75
4, 42313, Note_on_c, 1, 65, 0
4, 42336, Note_on_c, 1, 67, 75
4, 42425, Note_on_c, 1, 67, 0
4, 42432, Note_on_c, 1, 65, 75
4, 42521, Note_on_c, 1, 65, 0
4, 42528, Note_on_c, 1, 63, 75
4, 42617, Note_on_c, 1, 63, 0
4, 42720, Note_on_c, 1, 63, 75
4, 42897, Note_on_c, 1, 63, 0
4, 43008, Note_on_c, 1, 63, 75
4, 43185, Note_on_c, 1, 63, 0
4, 43200, Note_on_c, 1, 56, 75
4, 43289, Note_on_c, 1, 56, 0
4, 43296, Note_on_c, 1, 58, 75
4, 43385, Note_on_c, 1, 58, 0
4, 43392, Note_on_c, 1, 46, 75
4, 43481, Note_on_c, 1, 46, 0
4, 43488, Note_on_c, 1, 51, 75
4, 43577, Note_on_c, 1, 51, 0
4, 43584, Note_on_c, 1, 39, 75
4, 43673, Note_on_c, 1, 39, 0
4, 43776, Note_on_c, 1, 39, 0
4, 43865, Note_on_c, 1, 39, 0
4, 43872, End_track
5, 0, Start_track
5, 0, Program_c, 0, 0
5, 0, Control_c, 0, 7, 127
5, 0, Control_c, 0, 10, 64
5, 864, Note_on_c, 0, 58, 75
5, 1041, Note_on_c, 0, 58, 0
5, 1056, Note_on_c, 0, 63, 75
5, 1145, Note_on_c, 0, 63, 0
5, 1152, Note_on_c, 0, 56, 75
5, 1417, Note_on_c, 0, 56, 0
5, 1440, Note_on_c, 0, 58, 75
5, 1617, Note_on_c, 0, 58, 0
5, 1632, Note_on_c, 0, 63, 75
5, 1721, Note_on_c, 0, 63, 0
5, 3168, Note_on_c, 0, 58, 75
5, 3345, Note_on_c, 0, 58, 0
5, 3360, Note_on_c, 0, 63, 75
5, 3449, Note_on_c, 0, 63, 0
5, 3456, Note_on_c, 0, 56, 75
5, 3721, Note_on_c, 0, 56, 0
5, 3744, Note_on_c, 0, 58, 75
5, 3921, Note_on_c, 0, 58, 0
5, 3936, Note_on_c, 0, 63, 75
5, 4025, Note_on_c, 0, 63, 0
5, 7776, Note_on_c, 0, 58, 75
5, 7953, Note_on_c, 0, 58, 0
5, 7968, Note_on_c, 0, 63, 75
5, 8057, Note_on_c, 0, 63, 0
5, 8064, Note_on_c, 0, 56, 75
5, 8329, Note_on_c, 0, 56, 0
5, 8352, Note_on_c, 0, 58, 75
5, 8529, Note_on_c, 0, 58, 0
5, 8544, Note_on_c, 0, 63, 75
5, 8633, Note_on_c, 0, 63, 0
5, 8640, Note_on_c, 0, 56, 75
5, 8817, Note_on_c, 0, 56, 0
5, 8832, Note_on_c, 0, 56, 75
5, 8921, Note_on_c, 0, 56, 0
5, 8928, Note_on_c, 0, 55, 75
5, 9105, Note_on_c, 0, 55, 0
5, 9120, Note_on_c, 0, 55, 75
5, 9209, Note_on_c, 0, 55, 0
5, 12960, Note_on_c, 0, 58, 75
5, 13137, Note_on_c, 0, 58, 0
5, 13152, Note_on_c, 0, 63, 75
5, 13241, Note_on_c, 0, 63, 0
5, 13248, Note_on_c, 0, 56, 75
5, 13513, Note_on_c, 0, 56, 0
5, 13536, Note_on_c, 0, 58, 75
5, 13713, Note_on_c, 0, 58, 0
5, 13728, Note_on_c, 0, 63, 75
5, 13817, Note_on_c, 0, 63, 0
5, 13824, Note_on_c, 0, 56, 75
5, 14001, Note_on_c, 0, 56, 0
5, 14016, Note_on_c, 0, 56, 75
5, 14105, Note_on_c, 0, 56, 0
5, 14112, Note_on_c, 0, 55, 75
5, 14289, Note_on_c, 0, 55, 0
5, 14304, Note_on_c, 0, 55, 75
5, 14393, Note_on_c, 0, 55, 0
5, 22800, Note_on_c, 0, 63, 81
5, 22820, Note_on_c, 0, 63, 0
5, 22848, Note_on_c, 0, 63, 80
5, 22896, Note_on_c, 0, 63, 0
5, 22896, Note_on_c, 0, 65, 79
5, 22941, Note_on_c, 0, 65, 0
5, 22944, Note_on_c, 0, 65, 78
5, 22992, Note_on_c, 0, 65, 0
5, 22992, Note_on_c, 0, 63, 77
5, 23037, Note_on_c, 0, 63, 0
5, 23088, Note_on_c, 0, 69, 75
5, 23108, Note_on_c, 0, 69, 0
5, 23136, Note_on_c, 0, 69, 74
5, 23184, Note_on_c, 0, 69, 0
5, 23184, Note_on_c, 0, 70, 73
5, 23229, Note_on_c, 0, 70, 0
5, 23232, Note_on_c, 0, 70, 73
5, 23280, Note_on_c, 0, 70, 0
5, 23280, Note_on_c, 0, 69, 72
5, 23325, Note_on_c, 0, 69, 0
5, 23376, Note_on_c, 0, 62, 70
5, 23396, Note_on_c, 0, 62, 0
5, 23424, Note_on_c, 0, 62, 69
5, 23472, Note_on_c, 0, 62, 0
5, 23472, Note_on_c, 0, 63, 68
5, 23517, Note_on_c, 0, 63, 0
5, 23520, Note_on_c, 0, 63, 67
5, 23568, Note_on_c, 0, 63, 0
5, 23568, Note_on_c, 0, 62, 66
5, 23613, Note_on_c, 0, 62, 0
5, 26832, Note_on_c, 0, 63, 81
5, 26852, Note_on_c, 0, 63, 0
5, 26880, Note_on_c, 0, 63, 80
5, 26928, Note_on_c, 0, 63, 0
5, 26928, Note_on_c, 0, 65, 79
5, 26973, Note_on_c, 0, 65, 0
5, 26976, Note_on_c, 0, 65, 78
5, 27024, Note_on_c, 0, 65, 0
5, 27024, Note_on_c, 0, 63, 77
5, 27069, Note_on_c, 0, 63, 0
5, 27120, Note_on_c, 0, 69, 75
5, 27140, Note_on_c, 0, 69, 0
5, 27168, Note_on_c, 0, 69, 74
5, 27216, Note_on_c, 0, 69, 0
5, 27216, Note_on_c, 0, 70, 73
5, 27261, Note_on_c, 0, 70, 0
5, 27264, Note_on_c, 0, 70, 73
5, 27312, Note_on_c, 0, 70, 0
5, 27312, Note_on_c, 0, 69, 72
5, 27357, Note_on_c, 0, 69, 0
5, 27408, Note_on_c, 0, 62, 70
5, 27428, Note_on_c, 0, 62, 0
5, 27456, Note_on_c, 0, 62, 69
5, 27504, Note_on_c, 0, 62, 0
5, 27504, Note_on_c, 0, 63, 68
5, 27549, Note_on_c, 0, 63, 0
5, 27552, Note_on_c, 0, 63, 67
5, 27600, Note_on_c, 0, 63, 0
5, 27600, Note_on_c, 0, 62, 66
5, 27645, Note_on_c, 0, 62, 0
5, 29664, Note_on_c, 0, 58, 75
5, 29841, Note_on_c, 0, 58, 0
5, 29856, Note_on_c, 0, 63, 75
5, 29945, Note_on_c, 0, 63, 0
5, 29952, Note_on_c, 0, 56, 75
5, 30217, Note_on_c, 0, 56, 0
5, 30240, Note_on_c, 0, 58, 75
5, 30417, Note_on_c, 0, 58, 0
5, 30432, Note_on_c, 0, 63, 75
5, 30521, Note_on_c, 0, 63, 0
5, 31968, Note_on_c, 0, 58, 75
5, 32145, Note_on_c, 0, 58, 0
5, 32160, Note_on_c, 0, 63, 75
5, 32249, Note_on_c, 0, 63, 0
5, 32256, Note_on_c, 0, 56, 75
5, 32521, Note_on_c, 0, 56, 0
5, 32544, Note_on_c, 0, 58, 75
5, 32721, Note_on_c, 0, 58, 0
5, 32736, Note_on_c, 0, 63, 75
5, 32825, Note_on_c, 0, 63, 0
5, 36576, Note_on_c, 0, 58, 75
5, 36753, Note_on_c, 0, 58, 0
5, 36768, Note_on_c, 0, 63, 75
5, 36857, Note_on_c, 0, 63, 0
5, 36864, Note_on_c, 0, 56, 75
5, 37129, Note_on_c, 0, 56, 0
5, 37152, Note_on_c, 0, 58, 75
5, 37329, Note_on_c, 0, 58, 0
5, 37344, Note_on_c, 0, 63, 75
5, 37433, Note_on_c, 0, 63, 0
5, 37440, Note_on_c, 0, 56, 75
5, 37617, Note_on_c, 0, 56, 0
5, 37632, Note_on_c, 0, 56, 75
5, 37721, Note_on_c, 0, 56, 0
5, 37728, Note_on_c, 0, 55, 75
5, 37905, Note_on_c, 0, 55, 0
5, 37920, Note_on_c, 0, 55, 75
5, 38009, Note_on_c, 0, 55, 0
5, 41760, Note_on_c, 0, 58, 75
5, 41937, Note_on_c, 0, 58, 0
5, 41952, Note_on_c, 0, 63, 75
5, 42041, Note_on_c, 0, 63, 0
5, 42048, Note_on_c, 0, 56, 75
5, 42313, Note_on_c, 0, 56, 0
5, 42336, Note_on_c, 0, 58, 75
5, 42513, Note_on_c, 0, 58, 0
5, 42528, Note_on_c, 0, 63, 75
5, 42617, Note_on_c, 0, 63, 0
5, 42624, Note_on_c, 0, 56, 75
5, 42801, Note_on_c, 0, 56, 0
5, 42816, Note_on_c, 0, 56, 75
5, 42905, Note_on_c, 0, 56, 0
5, 42912, Note_on_c, 0, 55, 75
5, 43089, Note_on_c, 0, 55, 0
5, 43104, Note_on_c, 0, 55, 75
5, 43193, Note_on_c, 0, 55, 0
5, 43776, End_track
6, 0, Start_track
6, 0, Title_t, "Piano Solo   <composer>  "
6, 0, End_track
0, 0, End_of_file
