0, 0, Header, 1, 6, 96
1, 0, Start_track
1, 0, Copyright_t, "Copyright  2000 <copyright holder>"
1, 0, Text_t, "Sonata II\015\012"
1, 0, Text_t, "Haydn\015\012"
1, 0, Sequencer_specific, 16, 68, 87, 77, 90, 86, 82, 83, 78, 32, 55, 46, 49, 46, 50, 46, 48
1, 0, Time_signature, 2, 1, 24, 8
1, 0, Tempo, 413793
1, 0, Key_signature, -2, "major"
1, 57408, Tempo, 428571
1, 57456, Tempo, 444444
1, 57504, Tempo, 461538
1, 57552, Tempo, 480000
1, 57600, Tempo, 500000
1, 57648, Tempo, 521739
1, 57696, Tempo, 545454
1, 57744, Tempo, 571428
1, 57792, Tempo, 1200000
1, 57888, Tempo, 2400000
1, 57984, Tempo, 413793
1, 94272, Tempo, 428571
1, 94320, Tempo, 444444
1, 94368, Tempo, 461538
1, 94416, Tempo, 480000
1, 94464, Tempo, 500000
1, 94512, Tempo, 521739
1, 94560, Tempo, 545454
1, 94608, Tempo, 571428
1, 94656, Tempo, 1200000
1, 94752, Tempo, 2400000
1, 94848, Tempo, 413793
1, 115968, End_track
2, 0, Start_track
2, 0, Program_c, 0, 0
2, 0, Control_c, 0, 7, 127
2, 0, Control_c, 0, 10, 64
2, 0, Control_c, 0, 64, 127
2, 0, Note_on_c, 0, 74, 82
2, 18, Note_on_c, 0, 74, 0
2, 18, Note_on_c, 0, 77, 82
2, 36, Note_on_c, 0, 77, 0
2, 36, Note_on_c, 0, 82, 98
2, 96, Control_c, 0, 64, 0
2, 163, Note_on_c, 0, 82, 0
2, 168, Note_on_c, 0, 81, 80
2, 192, Note_on_c, 0, 81, 0
2, 192, Note_on_c, 0, 79, 80
2, 212, Note_on_c, 0, 79, 0
2, 264, Note_on_c, 0, 77, 79
2, 288, Note_on_c, 0, 77, 0
2, 288, Note_on_c, 0, 75, 78
2, 308, Note_on_c, 0, 75, 0
2, 360, Note_on_c, 0, 74, 77
2, 383, Note_on_c, 0, 74, 0
2, 384, Note_on_c, 0, 72, 77
2, 517, Note_on_c, 0, 72, 0
2, 528, Note_on_c, 0, 72, 75
2, 551, Note_on_c, 0, 72, 0
2, 552, Note_on_c, 0, 74, 75
2, 575, Note_on_c, 0, 74, 0
2, 576, Note_on_c, 0, 75, 75
2, 643, Note_on_c, 0, 75, 0
2, 648, Note_on_c, 0, 74, 77
2, 660, Note_on_c, 0, 74, 0
2, 660, Note_on_c, 0, 75, 78
2, 672, Note_on_c, 0, 75, 0
2, 672, Note_on_c, 0, 77, 78
2, 739, Note_on_c, 0, 77, 0
2, 744, Note_on_c, 0, 75, 81
2, 756, Note_on_c, 0, 75, 0
2, 756, Note_on_c, 0, 77, 81
2, 768, Note_on_c, 0, 77, 0
2, 768, Note_on_c, 0, 79, 82
2, 909, Note_on_c, 0, 79, 0
2, 936, Note_on_c, 0, 77, 78
2, 960, Note_on_c, 0, 77, 0
2, 960, Note_on_c, 0, 75, 78
2, 980, Note_on_c, 0, 75, 0
2, 1032, Note_on_c, 0, 74, 77
2, 1056, Note_on_c, 0, 74, 0
2, 1056, Note_on_c, 0, 72, 76
2, 1076, Note_on_c, 0, 72, 0
2, 1128, Note_on_c, 0, 70, 75
2, 1151, Note_on_c, 0, 70, 0
2, 1152, Note_on_c, 0, 69, 75
2, 1191, Note_on_c, 0, 69, 0
2, 1248, Note_on_c, 0, 75, 108
2, 1440, Note_on_c, 0, 75, 0
2, 1440, Note_on_c, 0, 74, 75
2, 1529, Note_on_c, 0, 74, 0
2, 1536, Note_on_c, 0, 72, 75
2, 1575, Note_on_c, 0, 72, 0
2, 1632, Note_on_c, 0, 79, 108
2, 1824, Note_on_c, 0, 79, 0
2, 1824, Note_on_c, 0, 77, 75
2, 1913, Note_on_c, 0, 77, 0
2, 1920, Note_on_c, 0, 87, 98
2, 1944, Note_on_c, 0, 87, 0
2, 1944, Note_on_c, 0, 89, 82
2, 1967, Note_on_c, 0, 89, 0
2, 1968, Note_on_c, 0, 87, 82
2, 1991, Note_on_c, 0, 87, 0
2, 1992, Note_on_c, 0, 86, 82
2, 2015, Note_on_c, 0, 86, 0
2, 2016, Note_on_c, 0, 84, 82
2, 2039, Note_on_c, 0, 84, 0
2, 2040, Note_on_c, 0, 86, 82
2, 2063, Note_on_c, 0, 86, 0
2, 2064, Note_on_c, 0, 84, 82
2, 2087, Note_on_c, 0, 84, 0
2, 2088, Note_on_c, 0, 82, 82
2, 2111, Note_on_c, 0, 82, 0
2, 2112, Note_on_c, 0, 81, 82
2, 2135, Note_on_c, 0, 81, 0
2, 2136, Note_on_c, 0, 82, 82
2, 2159, Note_on_c, 0, 82, 0
2, 2160, Note_on_c, 0, 81, 82
2, 2183, Note_on_c, 0, 81, 0
2, 2184, Note_on_c, 0, 79, 82
2, 2207, Note_on_c, 0, 79, 0
2, 2208, Note_on_c, 0, 77, 82
2, 2231, Note_on_c, 0, 77, 0
2, 2232, Note_on_c, 0, 79, 82
2, 2255, Note_on_c, 0, 79, 0
2, 2256, Note_on_c, 0, 77, 82
2, 2279, Note_on_c, 0, 77, 0
2, 2280, Note_on_c, 0, 75, 82
2, 2303, Note_on_c, 0, 75, 0
2, 2304, Note_on_c, 0, 74, 82
2, 2371, Note_on_c, 0, 74, 0
2, 2376, Note_on_c, 0, 77, 80
2, 2399, Note_on_c, 0, 77, 0
2, 2400, Note_on_c, 0, 75, 80
2, 2467, Note_on_c, 0, 75, 0
2, 2472, Note_on_c, 0, 72, 78
2, 2495, Note_on_c, 0, 72, 0
2, 2496, Note_on_c, 0, 74, 78
2, 2563, Note_on_c, 0, 74, 0
2, 2568, Note_on_c, 0, 70, 77
2, 2591, Note_on_c, 0, 70, 0
2, 2592, Note_on_c, 0, 72, 76
2, 2659, Note_on_c, 0, 72, 0
2, 2664, Note_on_c, 0, 69, 75
2, 2687, Note_on_c, 0, 69, 0
2, 2688, Note_on_c, 0, 70, 75
2, 2821, Note_on_c, 0, 70, 0
2, 2952, Note_on_c, 0, 58, 75
2, 2975, Note_on_c, 0, 58, 0
2, 2976, Note_on_c, 0, 60, 75
2, 2982, Note_on_c, 0, 60, 0
2, 2982, Note_on_c, 0, 58, 75
2, 2999, Note_on_c, 0, 58, 0
2, 3000, Note_on_c, 0, 57, 75
2, 3023, Note_on_c, 0, 57, 0
2, 3024, Note_on_c, 0, 58, 75
2, 3047, Note_on_c, 0, 58, 0
2, 3048, Note_on_c, 0, 60, 75
2, 3071, Note_on_c, 0, 60, 0
2, 3072, Note_on_c, 0, 62, 75
2, 3139, Note_on_c, 0, 62, 0
2, 3144, Note_on_c, 0, 58, 76
2, 3167, Note_on_c, 0, 58, 0
2, 3168, Note_on_c, 0, 63, 76
2, 3235, Note_on_c, 0, 63, 0
2, 3240, Note_on_c, 0, 60, 78
2, 3263, Note_on_c, 0, 60, 0
2, 3264, Note_on_c, 0, 65, 78
2, 3331, Note_on_c, 0, 65, 0
2, 3336, Note_on_c, 0, 62, 80
2, 3359, Note_on_c, 0, 62, 0
2, 3360, Note_on_c, 0, 70, 80
2, 3389, Note_on_c, 0, 70, 0
2, 3432, Note_on_c, 0, 70, 82
2, 3432, Note_on_c, 0, 62, 82
2, 3455, Note_on_c, 0, 70, 0
2, 3455, Note_on_c, 0, 62, 0
2, 3456, Note_on_c, 0, 70, 98
2, 3456, Note_on_c, 0, 62, 98
2, 3648, Note_on_c, 0, 70, 0
2, 3648, Note_on_c, 0, 62, 0
2, 3648, Note_on_c, 0, 69, 76
2, 3648, Note_on_c, 0, 60, 76
2, 3693, Note_on_c, 0, 69, 0
2, 3693, Note_on_c, 0, 60, 0
2, 3720, Note_on_c, 0, 65, 75
2, 3743, Note_on_c, 0, 65, 0
2, 3744, Note_on_c, 0, 67, 75
2, 3750, Note_on_c, 0, 67, 0
2, 3750, Note_on_c, 0, 65, 75
2, 3767, Note_on_c, 0, 65, 0
2, 3768, Note_on_c, 0, 64, 75
2, 3791, Note_on_c, 0, 64, 0
2, 3792, Note_on_c, 0, 65, 75
2, 3815, Note_on_c, 0, 65, 0
2, 3816, Note_on_c, 0, 67, 75
2, 3839, Note_on_c, 0, 67, 0
2, 3840, Note_on_c, 0, 69, 75
2, 3907, Note_on_c, 0, 69, 0
2, 3912, Note_on_c, 0, 65, 76
2, 3935, Note_on_c, 0, 65, 0
2, 3936, Note_on_c, 0, 70, 76
2, 4003, Note_on_c, 0, 70, 0
2, 4008, Note_on_c, 0, 67, 78
2, 4031, Note_on_c, 0, 67, 0
2, 4032, Note_on_c, 0, 72, 78
2, 4099, Note_on_c, 0, 72, 0
2, 4104, Note_on_c, 0, 69, 80
2, 4127, Note_on_c, 0, 69, 0
2, 4128, Note_on_c, 0, 75, 80
2, 4157, Note_on_c, 0, 75, 0
2, 4200, Note_on_c, 0, 75, 82
2, 4200, Note_on_c, 0, 72, 82
2, 4223, Note_on_c, 0, 75, 0
2, 4223, Note_on_c, 0, 72, 0
2, 4224, Note_on_c, 0, 75, 98
2, 4224, Note_on_c, 0, 72, 98
2, 4416, Note_on_c, 0, 75, 0
2, 4416, Note_on_c, 0, 72, 0
2, 4416, Note_on_c, 0, 74, 76
2, 4416, Note_on_c, 0, 70, 76
2, 4461, Note_on_c, 0, 74, 0
2, 4461, Note_on_c, 0, 70, 0
2, 4488, Note_on_c, 0, 74, 75
2, 4511, Note_on_c, 0, 74, 0
2, 4512, Note_on_c, 0, 75, 75
2, 4518, Note_on_c, 0, 75, 0
2, 4518, Note_on_c, 0, 74, 75
2, 4535, Note_on_c, 0, 74, 0
2, 4536, Note_on_c, 0, 72, 75
2, 4559, Note_on_c, 0, 72, 0
2, 4560, Note_on_c, 0, 74, 75
2, 4583, Note_on_c, 0, 74, 0
2, 4584, Note_on_c, 0, 75, 75
2, 4607, Note_on_c, 0, 75, 0
2, 4608, Note_on_c, 0, 77, 75
2, 4675, Note_on_c, 0, 77, 0
2, 4680, Note_on_c, 0, 74, 76
2, 4703, Note_on_c, 0, 74, 0
2, 4704, Note_on_c, 0, 82, 77
2, 4771, Note_on_c, 0, 82, 0
2, 4776, Note_on_c, 0, 77, 79
2, 4799, Note_on_c, 0, 77, 0
2, 4800, Note_on_c, 0, 86, 80
2, 4867, Note_on_c, 0, 86, 0
2, 4872, Note_on_c, 0, 84, 82
2, 4896, Note_on_c, 0, 84, 0
2, 4896, Note_on_c, 0, 82, 81
2, 4916, Note_on_c, 0, 82, 0
2, 4968, Note_on_c, 0, 81, 80
2, 4992, Note_on_c, 0, 81, 0
2, 4992, Note_on_c, 0, 79, 80
2, 5012, Note_on_c, 0, 79, 0
2, 5064, Note_on_c, 0, 77, 79
2, 5088, Note_on_c, 0, 77, 0
2, 5088, Note_on_c, 0, 75, 79
2, 5108, Note_on_c, 0, 75, 0
2, 5160, Note_on_c, 0, 74, 78
2, 5184, Note_on_c, 0, 74, 0
2, 5184, Note_on_c, 0, 72, 77
2, 5204, Note_on_c, 0, 72, 0
2, 5256, Note_on_c, 0, 79, 76
2, 5280, Note_on_c, 0, 79, 0
2, 5280, Note_on_c, 0, 77, 76
2, 5300, Note_on_c, 0, 77, 0
2, 5352, Note_on_c, 0, 75, 75
2, 5376, Note_on_c, 0, 75, 0
2, 5376, Note_on_c, 0, 74, 75
2, 5396, Note_on_c, 0, 74, 0
2, 5448, Note_on_c, 0, 77, 77
2, 5472, Note_on_c, 0, 77, 0
2, 5472, Note_on_c, 0, 82, 77
2, 5492, Note_on_c, 0, 82, 0
2, 5544, Note_on_c, 0, 77, 79
2, 5568, Note_on_c, 0, 77, 0
2, 5568, Note_on_c, 0, 86, 80
2, 5588, Note_on_c, 0, 86, 0
2, 5640, Note_on_c, 0, 84, 82
2, 5664, Note_on_c, 0, 84, 0
2, 5664, Note_on_c, 0, 82, 81
2, 5684, Note_on_c, 0, 82, 0
2, 5736, Note_on_c, 0, 81, 79
2, 5759, Note_on_c, 0, 81, 0
2, 5760, Note_on_c, 0, 79, 78
2, 5780, Note_on_c, 0, 79, 0
2, 5832, Note_on_c, 0, 77, 76
2, 5856, Note_on_c, 0, 77, 0
2, 5856, Note_on_c, 0, 75, 75
2, 5876, Note_on_c, 0, 75, 0
2, 5928, Note_on_c, 0, 74, 73
2, 5952, Note_on_c, 0, 74, 0
2, 5952, Note_on_c, 0, 72, 72
2, 5972, Note_on_c, 0, 72, 0
2, 6024, Note_on_c, 0, 79, 70
2, 6048, Note_on_c, 0, 79, 0
2, 6048, Note_on_c, 0, 77, 70
2, 6068, Note_on_c, 0, 77, 0
2, 6120, Note_on_c, 0, 75, 68
2, 6144, Note_on_c, 0, 75, 0
2, 6144, Note_on_c, 0, 74, 67
2, 6164, Note_on_c, 0, 74, 0
2, 6216, Note_on_c, 0, 79, 66
2, 6240, Note_on_c, 0, 79, 0
2, 6240, Note_on_c, 0, 77, 66
2, 6260, Note_on_c, 0, 77, 0
2, 6312, Note_on_c, 0, 75, 66
2, 6336, Note_on_c, 0, 75, 0
2, 6336, Note_on_c, 0, 74, 66
2, 6356, Note_on_c, 0, 74, 0
2, 6408, Note_on_c, 0, 79, 66
2, 6432, Note_on_c, 0, 79, 0
2, 6432, Note_on_c, 0, 77, 66
2, 6452, Note_on_c, 0, 77, 0
2, 6504, Note_on_c, 0, 75, 66
2, 6528, Note_on_c, 0, 75, 0
2, 6528, Note_on_c, 0, 74, 66
2, 6548, Note_on_c, 0, 74, 0
2, 6600, Note_on_c, 0, 84, 56
2, 6624, Note_on_c, 0, 84, 0
2, 6624, Note_on_c, 0, 82, 57
2, 6644, Note_on_c, 0, 82, 0
2, 6696, Note_on_c, 0, 81, 61
2, 6720, Note_on_c, 0, 81, 0
2, 6720, Note_on_c, 0, 79, 62
2, 6740, Note_on_c, 0, 79, 0
2, 6792, Note_on_c, 0, 77, 66
2, 6816, Note_on_c, 0, 77, 0
2, 6816, Note_on_c, 0, 75, 67
2, 6836, Note_on_c, 0, 75, 0
2, 6888, Note_on_c, 0, 74, 71
2, 6912, Note_on_c, 0, 74, 0
2, 6912, Note_on_c, 0, 72, 72
2, 6932, Note_on_c, 0, 72, 0
2, 6960, Note_on_c, 0, 78, 75
2, 7005, Note_on_c, 0, 78, 0
2, 7008, Note_on_c, 0, 81, 108
2, 7053, Note_on_c, 0, 81, 0
2, 7056, Note_on_c, 0, 79, 75
2, 7101, Note_on_c, 0, 79, 0
2, 7104, Note_on_c, 0, 77, 75
2, 7149, Note_on_c, 0, 77, 0
2, 7152, Note_on_c, 0, 75, 72
2, 7197, Note_on_c, 0, 75, 0
2, 7200, Note_on_c, 0, 74, 70
2, 7245, Note_on_c, 0, 74, 0
2, 7248, Note_on_c, 0, 72, 68
2, 7293, Note_on_c, 0, 72, 0
2, 7296, Note_on_c, 0, 70, 66
2, 7488, Note_on_c, 0, 70, 0
2, 7488, Note_on_c, 0, 69, 58
2, 7533, Note_on_c, 0, 69, 0
2, 7656, Note_on_c, 0, 69, 82
2, 7668, Note_on_c, 0, 69, 0
2, 7668, Note_on_c, 0, 72, 82
2, 7680, Note_on_c, 0, 72, 0
2, 7680, Note_on_c, 0, 77, 82
2, 7835, Note_on_c, 0, 77, 0
2, 7848, Note_on_c, 0, 72, 82
2, 7860, Note_on_c, 0, 72, 0
2, 7860, Note_on_c, 0, 76, 82
2, 7872, Note_on_c, 0, 76, 0
2, 7872, Note_on_c, 0, 79, 82
2, 8027, Note_on_c, 0, 79, 0
2, 8040, Note_on_c, 0, 72, 82
2, 8052, Note_on_c, 0, 72, 0
2, 8052, Note_on_c, 0, 77, 82
2, 8064, Note_on_c, 0, 77, 0
2, 8064, Note_on_c, 0, 81, 82
2, 8219, Note_on_c, 0, 81, 0
2, 8232, Note_on_c, 0, 81, 82
2, 8244, Note_on_c, 0, 81, 0
2, 8244, Note_on_c, 0, 84, 82
2, 8256, Note_on_c, 0, 84, 0
2, 8256, Note_on_c, 0, 89, 82
2, 8279, Note_on_c, 0, 89, 0
2, 8280, Note_on_c, 0, 88, 82
2, 8303, Note_on_c, 0, 88, 0
2, 8304, Note_on_c, 0, 86, 82
2, 8327, Note_on_c, 0, 86, 0
2, 8328, Note_on_c, 0, 84, 82
2, 8351, Note_on_c, 0, 84, 0
2, 8352, Note_on_c, 0, 82, 82
2, 8375, Note_on_c, 0, 82, 0
2, 8376, Note_on_c, 0, 81, 82
2, 8399, Note_on_c, 0, 81, 0
2, 8400, Note_on_c, 0, 79, 82
2, 8423, Note_on_c, 0, 79, 0
2, 8424, Note_on_c, 0, 77, 82
2, 8447, Note_on_c, 0, 77, 0
2, 8448, Note_on_c, 0, 76, 82
2, 8603, Note_on_c, 0, 76, 0
2, 8616, Note_on_c, 0, 76, 70
2, 8640, Note_on_c, 0, 76, 0
2, 8640, Note_on_c, 0, 77, 69
2, 8795, Note_on_c, 0, 77, 0
2, 8808, Note_on_c, 0, 77, 57
2, 8831, Note_on_c, 0, 77, 0
2, 8832, Note_on_c, 0, 78, 56
2, 8928, Note_on_c, 0, 78, 0
2, 8928, Note_on_c, 0, 79, 56
2, 9022, Note_on_c, 0, 79, 0
2, 9192, Note_on_c, 0, 79, 82
2, 9215, Note_on_c, 0, 79, 0
2, 9216, Note_on_c, 0, 80, 82
2, 9305, Note_on_c, 0, 80, 0
2, 9312, Note_on_c, 0, 80, 115
2, 9445, Note_on_c, 0, 80, 0
2, 9456, Note_on_c, 0, 80, 82
2, 9501, Note_on_c, 0, 80, 0
2, 9504, Note_on_c, 0, 82, 82
2, 9516, Note_on_c, 0, 82, 0
2, 9516, Note_on_c, 0, 80, 82
2, 9528, Note_on_c, 0, 80, 0
2, 9528, Note_on_c, 0, 79, 82
2, 9540, Note_on_c, 0, 79, 0
2, 9540, Note_on_c, 0, 80, 82
2, 9571, Note_on_c, 0, 80, 0
2, 9576, Note_on_c, 0, 82, 82
2, 9599, Note_on_c, 0, 82, 0
2, 9600, Note_on_c, 0, 80, 82
2, 9733, Note_on_c, 0, 80, 0
2, 9744, Note_on_c, 0, 77, 82
2, 9767, Note_on_c, 0, 77, 0
2, 9768, Note_on_c, 0, 78, 82
2, 9791, Note_on_c, 0, 78, 0
2, 9792, Note_on_c, 0, 80, 82
2, 9807, Note_on_c, 0, 80, 0
2, 9808, Note_on_c, 0, 78, 82
2, 9823, Note_on_c, 0, 78, 0
2, 9824, Note_on_c, 0, 80, 82
2, 9839, Note_on_c, 0, 80, 0
2, 9840, Note_on_c, 0, 78, 82
2, 9855, Note_on_c, 0, 78, 0
2, 9856, Note_on_c, 0, 80, 82
2, 9871, Note_on_c, 0, 80, 0
2, 9872, Note_on_c, 0, 78, 82
2, 9887, Note_on_c, 0, 78, 0
2, 9888, Note_on_c, 0, 80, 82
2, 9903, Note_on_c, 0, 80, 0
2, 9904, Note_on_c, 0, 78, 82
2, 9919, Note_on_c, 0, 78, 0
2, 9920, Note_on_c, 0, 77, 82
2, 9951, Note_on_c, 0, 77, 0
2, 9952, Note_on_c, 0, 78, 82
2, 9983, Note_on_c, 0, 78, 0
2, 9984, Note_on_c, 0, 77, 82
2, 10073, Note_on_c, 0, 77, 0
2, 10080, Note_on_c, 0, 77, 115
2, 10213, Note_on_c, 0, 77, 0
2, 10224, Note_on_c, 0, 77, 82
2, 10269, Note_on_c, 0, 77, 0
2, 10272, Note_on_c, 0, 78, 82
2, 10284, Note_on_c, 0, 78, 0
2, 10284, Note_on_c, 0, 77, 82
2, 10296, Note_on_c, 0, 77, 0
2, 10296, Note_on_c, 0, 75, 82
2, 10308, Note_on_c, 0, 75, 0
2, 10308, Note_on_c, 0, 77, 82
2, 10339, Note_on_c, 0, 77, 0
2, 10344, Note_on_c, 0, 78, 82
2, 10367, Note_on_c, 0, 78, 0
2, 10368, Note_on_c, 0, 77, 82
2, 10435, Note_on_c, 0, 77, 0
2, 10440, Note_on_c, 0, 75, 82
2, 10463, Note_on_c, 0, 75, 0
2, 10464, Note_on_c, 0, 78, 115
2, 10597, Note_on_c, 0, 78, 0
2, 10608, Note_on_c, 0, 77, 82
2, 10631, Note_on_c, 0, 77, 0
2, 10632, Note_on_c, 0, 75, 82
2, 10655, Note_on_c, 0, 75, 0
2, 10656, Note_on_c, 0, 73, 82
2, 10701, Note_on_c, 0, 73, 0
2, 10704, Note_on_c, 0, 72, 82
2, 10749, Note_on_c, 0, 72, 0
2, 10752, Note_on_c, 0, 75, 82
2, 10848, Note_on_c, 0, 75, 0
2, 10848, Note_on_c, 0, 73, 81
2, 10937, Note_on_c, 0, 73, 0
2, 11016, Note_on_c, 0, 73, 79
2, 11039, Note_on_c, 0, 73, 0
2, 11040, Note_on_c, 0, 75, 79
2, 11052, Note_on_c, 0, 75, 0
2, 11052, Note_on_c, 0, 73, 79
2, 11064, Note_on_c, 0, 73, 0
2, 11064, Note_on_c, 0, 72, 79
2, 11076, Note_on_c, 0, 72, 0
2, 11076, Note_on_c, 0, 73, 79
2, 11107, Note_on_c, 0, 73, 0
2, 11112, Note_on_c, 0, 75, 78
2, 11135, Note_on_c, 0, 75, 0
2, 11136, Note_on_c, 0, 73, 78
2, 11232, Note_on_c, 0, 73, 0
2, 11232, Note_on_c, 0, 72, 77
2, 11321, Note_on_c, 0, 72, 0
2, 11400, Note_on_c, 0, 72, 76
2, 11423, Note_on_c, 0, 72, 0
2, 11424, Note_on_c, 0, 74, 75
2, 11436, Note_on_c, 0, 74, 0
2, 11436, Note_on_c, 0, 72, 75
2, 11448, Note_on_c, 0, 72, 0
2, 11448, Note_on_c, 0, 71, 75
2, 11460, Note_on_c, 0, 71, 0
2, 11460, Note_on_c, 0, 72, 75
2, 11513, Note_on_c, 0, 72, 0
2, 11520, Note_on_c, 0, 71, 75
2, 11550, Note_on_c, 0, 71, 0
2, 11552, Note_on_c, 0, 74, 75
2, 11582, Note_on_c, 0, 74, 0
2, 11584, Note_on_c, 0, 72, 76
2, 11614, Note_on_c, 0, 72, 0
2, 11616, Note_on_c, 0, 75, 76
2, 11646, Note_on_c, 0, 75, 0
2, 11648, Note_on_c, 0, 74, 77
2, 11678, Note_on_c, 0, 74, 0
2, 11680, Note_on_c, 0, 77, 77
2, 11710, Note_on_c, 0, 77, 0
2, 11712, Note_on_c, 0, 75, 78
2, 11742, Note_on_c, 0, 75, 0
2, 11744, Note_on_c, 0, 79, 78
2, 11774, Note_on_c, 0, 79, 0
2, 11776, Note_on_c, 0, 77, 79
2, 11806, Note_on_c, 0, 77, 0
2, 11808, Note_on_c, 0, 80, 79
2, 11838, Note_on_c, 0, 80, 0
2, 11840, Note_on_c, 0, 79, 80
2, 11870, Note_on_c, 0, 79, 0
2, 11872, Note_on_c, 0, 82, 81
2, 11902, Note_on_c, 0, 82, 0
2, 11904, Note_on_c, 0, 80, 82
2, 11993, Note_on_c, 0, 80, 0
2, 12000, Note_on_c, 0, 79, 115
2, 12177, Note_on_c, 0, 79, 0
2, 12192, Note_on_c, 0, 77, 82
2, 12205, Note_on_c, 0, 77, 0
2, 12206, Note_on_c, 0, 79, 82
2, 12219, Note_on_c, 0, 79, 0
2, 12220, Note_on_c, 0, 77, 82
2, 12233, Note_on_c, 0, 77, 0
2, 12234, Note_on_c, 0, 79, 82
2, 12247, Note_on_c, 0, 79, 0
2, 12248, Note_on_c, 0, 77, 82
2, 12261, Note_on_c, 0, 77, 0
2, 12262, Note_on_c, 0, 76, 82
2, 12274, Note_on_c, 0, 76, 0
2, 12275, Note_on_c, 0, 77, 82
2, 12287, Note_on_c, 0, 77, 0
2, 12288, Note_on_c, 0, 76, 82
2, 12318, Note_on_c, 0, 76, 0
2, 12320, Note_on_c, 0, 79, 82
2, 12350, Note_on_c, 0, 79, 0
2, 12352, Note_on_c, 0, 77, 82
2, 12382, Note_on_c, 0, 77, 0
2, 12384, Note_on_c, 0, 81, 82
2, 12414, Note_on_c, 0, 81, 0
2, 12416, Note_on_c, 0, 79, 82
2, 12446, Note_on_c, 0, 79, 0
2, 12448, Note_on_c, 0, 82, 82
2, 12478, Note_on_c, 0, 82, 0
2, 12480, Note_on_c, 0, 81, 82
2, 12510, Note_on_c, 0, 81, 0
2, 12512, Note_on_c, 0, 84, 82
2, 12542, Note_on_c, 0, 84, 0
2, 12544, Note_on_c, 0, 82, 82
2, 12574, Note_on_c, 0, 82, 0
2, 12576, Note_on_c, 0, 86, 82
2, 12606, Note_on_c, 0, 86, 0
2, 12608, Note_on_c, 0, 84, 82
2, 12638, Note_on_c, 0, 84, 0
2, 12640, Note_on_c, 0, 88, 82
2, 12670, Note_on_c, 0, 88, 0
2, 12672, Note_on_c, 0, 86, 82
2, 12761, Note_on_c, 0, 86, 0
2, 12768, Note_on_c, 0, 84, 115
2, 12945, Note_on_c, 0, 84, 0
2, 12960, Note_on_c, 0, 82, 82
2, 12973, Note_on_c, 0, 82, 0
2, 12974, Note_on_c, 0, 84, 82
2, 12987, Note_on_c, 0, 84, 0
2, 12988, Note_on_c, 0, 82, 82
2, 13001, Note_on_c, 0, 82, 0
2, 13002, Note_on_c, 0, 84, 82
2, 13015, Note_on_c, 0, 84, 0
2, 13016, Note_on_c, 0, 82, 82
2, 13029, Note_on_c, 0, 82, 0
2, 13030, Note_on_c, 0, 81, 82
2, 13042, Note_on_c, 0, 81, 0
2, 13043, Note_on_c, 0, 82, 82
2, 13055, Note_on_c, 0, 82, 0
2, 13056, Note_on_c, 0, 81, 82
2, 13145, Note_on_c, 0, 81, 0
2, 13152, Note_on_c, 0, 84, 82
2, 13315, Note_on_c, 0, 84, 0
2, 13320, Note_on_c, 0, 76, 82
2, 13343, Note_on_c, 0, 76, 0
2, 13344, Note_on_c, 0, 76, 82
2, 13357, Note_on_c, 0, 76, 0
2, 13358, Note_on_c, 0, 77, 82
2, 13371, Note_on_c, 0, 77, 0
2, 13372, Note_on_c, 0, 76, 82
2, 13385, Note_on_c, 0, 76, 0
2, 13386, Note_on_c, 0, 77, 82
2, 13399, Note_on_c, 0, 77, 0
2, 13400, Note_on_c, 0, 76, 82
2, 13413, Note_on_c, 0, 76, 0
2, 13414, Note_on_c, 0, 74, 82
2, 13426, Note_on_c, 0, 74, 0
2, 13427, Note_on_c, 0, 76, 82
2, 13439, Note_on_c, 0, 76, 0
2, 13440, Note_on_c, 0, 77, 82
2, 13529, Note_on_c, 0, 77, 0
2, 13536, Note_on_c, 0, 81, 82
2, 13625, Note_on_c, 0, 81, 0
2, 13704, Note_on_c, 0, 79, 82
2, 13727, Note_on_c, 0, 79, 0
2, 13728, Note_on_c, 0, 79, 82
2, 13741, Note_on_c, 0, 79, 0
2, 13742, Note_on_c, 0, 81, 82
2, 13755, Note_on_c, 0, 81, 0
2, 13756, Note_on_c, 0, 79, 82
2, 13769, Note_on_c, 0, 79, 0
2, 13770, Note_on_c, 0, 81, 82
2, 13783, Note_on_c, 0, 81, 0
2, 13784, Note_on_c, 0, 79, 82
2, 13797, Note_on_c, 0, 79, 0
2, 13798, Note_on_c, 0, 77, 82
2, 13810, Note_on_c, 0, 77, 0
2, 13811, Note_on_c, 0, 79, 82
2, 13823, Note_on_c, 0, 79, 0
2, 13824, Note_on_c, 0, 81, 82
2, 13913, Note_on_c, 0, 81, 0
2, 13920, Note_on_c, 0, 84, 115
2, 14046, Note_on_c, 0, 84, 0
2, 14048, Note_on_c, 0, 82, 82
2, 14078, Note_on_c, 0, 82, 0
2, 14080, Note_on_c, 0, 81, 82
2, 14110, Note_on_c, 0, 81, 0
2, 14112, Note_on_c, 0, 79, 82
2, 14142, Note_on_c, 0, 79, 0
2, 14144, Note_on_c, 0, 77, 82
2, 14174, Note_on_c, 0, 77, 0
2, 14176, Note_on_c, 0, 76, 82
2, 14206, Note_on_c, 0, 76, 0
2, 14208, Note_on_c, 0, 77, 82
2, 14275, Note_on_c, 0, 77, 0
2, 14280, Note_on_c, 0, 77, 82
2, 14303, Note_on_c, 0, 77, 0
2, 14304, Note_on_c, 0, 77, 82
2, 14317, Note_on_c, 0, 77, 0
2, 14318, Note_on_c, 0, 79, 82
2, 14331, Note_on_c, 0, 79, 0
2, 14332, Note_on_c, 0, 77, 82
2, 14345, Note_on_c, 0, 77, 0
2, 14346, Note_on_c, 0, 79, 82
2, 14359, Note_on_c, 0, 79, 0
2, 14360, Note_on_c, 0, 77, 82
2, 14373, Note_on_c, 0, 77, 0
2, 14374, Note_on_c, 0, 75, 82
2, 14386, Note_on_c, 0, 75, 0
2, 14387, Note_on_c, 0, 77, 82
2, 14399, Note_on_c, 0, 77, 0
2, 14400, Note_on_c, 0, 79, 82
2, 14467, Note_on_c, 0, 79, 0
2, 14472, Note_on_c, 0, 79, 82
2, 14495, Note_on_c, 0, 79, 0
2, 14496, Note_on_c, 0, 79, 82
2, 14509, Note_on_c, 0, 79, 0
2, 14510, Note_on_c, 0, 81, 82
2, 14523, Note_on_c, 0, 81, 0
2, 14524, Note_on_c, 0, 79, 82
2, 14537, Note_on_c, 0, 79, 0
2, 14538, Note_on_c, 0, 81, 82
2, 14551, Note_on_c, 0, 81, 0
2, 14552, Note_on_c, 0, 79, 82
2, 14565, Note_on_c, 0, 79, 0
2, 14566, Note_on_c, 0, 77, 82
2, 14578, Note_on_c, 0, 77, 0
2, 14579, Note_on_c, 0, 79, 82
2, 14591, Note_on_c, 0, 79, 0
2, 14592, Note_on_c, 0, 81, 82
2, 14659, Note_on_c, 0, 81, 0
2, 14664, Note_on_c, 0, 81, 82
2, 14687, Note_on_c, 0, 81, 0
2, 14688, Note_on_c, 0, 81, 82
2, 14701, Note_on_c, 0, 81, 0
2, 14702, Note_on_c, 0, 82, 82
2, 14715, Note_on_c, 0, 82, 0
2, 14716, Note_on_c, 0, 81, 82
2, 14729, Note_on_c, 0, 81, 0
2, 14730, Note_on_c, 0, 82, 82
2, 14743, Note_on_c, 0, 82, 0
2, 14744, Note_on_c, 0, 81, 82
2, 14757, Note_on_c, 0, 81, 0
2, 14758, Note_on_c, 0, 79, 82
2, 14770, Note_on_c, 0, 79, 0
2, 14771, Note_on_c, 0, 81, 82
2, 14783, Note_on_c, 0, 81, 0
2, 14784, Note_on_c, 0, 82, 82
2, 14851, Note_on_c, 0, 82, 0
2, 14856, Note_on_c, 0, 82, 82
2, 14879, Note_on_c, 0, 82, 0
2, 14880, Note_on_c, 0, 82, 82
2, 14893, Note_on_c, 0, 82, 0
2, 14894, Note_on_c, 0, 84, 82
2, 14907, Note_on_c, 0, 84, 0
2, 14908, Note_on_c, 0, 82, 82
2, 14921, Note_on_c, 0, 82, 0
2, 14922, Note_on_c, 0, 84, 82
2, 14935, Note_on_c, 0, 84, 0
2, 14936, Note_on_c, 0, 82, 82
2, 14949, Note_on_c, 0, 82, 0
2, 14950, Note_on_c, 0, 81, 82
2, 14962, Note_on_c, 0, 81, 0
2, 14963, Note_on_c, 0, 82, 82
2, 14975, Note_on_c, 0, 82, 0
2, 14976, Note_on_c, 0, 84, 82
2, 15021, Note_on_c, 0, 84, 0
2, 15048, Note_on_c, 0, 77, 82
2, 15060, Note_on_c, 0, 77, 0
2, 15060, Note_on_c, 0, 79, 82
2, 15072, Note_on_c, 0, 79, 0
2, 15072, Note_on_c, 0, 81, 82
2, 15119, Note_on_c, 0, 81, 0
2, 15144, Note_on_c, 0, 81, 85
2, 15156, Note_on_c, 0, 81, 0
2, 15156, Note_on_c, 0, 82, 86
2, 15168, Note_on_c, 0, 82, 0
2, 15168, Note_on_c, 0, 84, 86
2, 15215, Note_on_c, 0, 84, 0
2, 15240, Note_on_c, 0, 84, 89
2, 15252, Note_on_c, 0, 84, 0
2, 15252, Note_on_c, 0, 86, 89
2, 15264, Note_on_c, 0, 86, 0
2, 15264, Note_on_c, 0, 87, 90
2, 15311, Note_on_c, 0, 87, 0
2, 15336, Note_on_c, 0, 87, 82
2, 15348, Note_on_c, 0, 87, 0
2, 15348, Note_on_c, 0, 86, 81
2, 15360, Note_on_c, 0, 86, 0
2, 15360, Note_on_c, 0, 84, 81
2, 15407, Note_on_c, 0, 84, 0
2, 15432, Note_on_c, 0, 84, 80
2, 15444, Note_on_c, 0, 84, 0
2, 15444, Note_on_c, 0, 82, 80
2, 15456, Note_on_c, 0, 82, 0
2, 15456, Note_on_c, 0, 81, 79
2, 15503, Note_on_c, 0, 81, 0
2, 15528, Note_on_c, 0, 81, 78
2, 15540, Note_on_c, 0, 81, 0
2, 15540, Note_on_c, 0, 79, 78
2, 15552, Note_on_c, 0, 79, 0
2, 15552, Note_on_c, 0, 77, 78
2, 15582, Note_on_c, 0, 77, 0
2, 15584, Note_on_c, 0, 79, 77
2, 15614, Note_on_c, 0, 79, 0
2, 15616, Note_on_c, 0, 77, 77
2, 15646, Note_on_c, 0, 77, 0
2, 15648, Note_on_c, 0, 75, 76
2, 15678, Note_on_c, 0, 75, 0
2, 15680, Note_on_c, 0, 74, 76
2, 15710, Note_on_c, 0, 74, 0
2, 15712, Note_on_c, 0, 73, 75
2, 15742, Note_on_c, 0, 73, 0
2, 15744, Note_on_c, 0, 74, 75
2, 15774, Note_on_c, 0, 74, 0
2, 15776, Note_on_c, 0, 82, 75
2, 15806, Note_on_c, 0, 82, 0
2, 15808, Note_on_c, 0, 81, 76
2, 15838, Note_on_c, 0, 81, 0
2, 15840, Note_on_c, 0, 79, 77
2, 15870, Note_on_c, 0, 79, 0
2, 15872, Note_on_c, 0, 86, 78
2, 15902, Note_on_c, 0, 86, 0
2, 15904, Note_on_c, 0, 84, 80
2, 15934, Note_on_c, 0, 84, 0
2, 15936, Note_on_c, 0, 82, 81
2, 15966, Note_on_c, 0, 82, 0
2, 15968, Note_on_c, 0, 81, 81
2, 15998, Note_on_c, 0, 81, 0
2, 16000, Note_on_c, 0, 79, 80
2, 16030, Note_on_c, 0, 79, 0
2, 16032, Note_on_c, 0, 77, 79
2, 16062, Note_on_c, 0, 77, 0
2, 16064, Note_on_c, 0, 76, 78
2, 16094, Note_on_c, 0, 76, 0
2, 16096, Note_on_c, 0, 74, 76
2, 16126, Note_on_c, 0, 74, 0
2, 16128, Note_on_c, 0, 72, 75
2, 16350, Note_on_c, 0, 72, 0
2, 16352, Note_on_c, 0, 72, 79
2, 16382, Note_on_c, 0, 72, 0
2, 16384, Note_on_c, 0, 73, 79
2, 16414, Note_on_c, 0, 73, 0
2, 16416, Note_on_c, 0, 74, 80
2, 16446, Note_on_c, 0, 74, 0
2, 16448, Note_on_c, 0, 75, 80
2, 16478, Note_on_c, 0, 75, 0
2, 16480, Note_on_c, 0, 76, 81
2, 16510, Note_on_c, 0, 76, 0
2, 16512, Note_on_c, 0, 77, 82
2, 16542, Note_on_c, 0, 77, 0
2, 16544, Note_on_c, 0, 72, 75
2, 16574, Note_on_c, 0, 72, 0
2, 16576, Note_on_c, 0, 73, 76
2, 16606, Note_on_c, 0, 73, 0
2, 16608, Note_on_c, 0, 74, 77
2, 16638, Note_on_c, 0, 74, 0
2, 16640, Note_on_c, 0, 75, 78
2, 16670, Note_on_c, 0, 75, 0
2, 16672, Note_on_c, 0, 76, 79
2, 16702, Note_on_c, 0, 76, 0
2, 16704, Note_on_c, 0, 77, 80
2, 16734, Note_on_c, 0, 77, 0
2, 16736, Note_on_c, 0, 72, 82
2, 16766, Note_on_c, 0, 72, 0
2, 16768, Note_on_c, 0, 73, 82
2, 16798, Note_on_c, 0, 73, 0
2, 16800, Note_on_c, 0, 74, 82
2, 16830, Note_on_c, 0, 74, 0
2, 16832, Note_on_c, 0, 75, 82
2, 16862, Note_on_c, 0, 75, 0
2, 16864, Note_on_c, 0, 76, 83
2, 16894, Note_on_c, 0, 76, 0
2, 16896, Note_on_c, 0, 77, 83
2, 16926, Note_on_c, 0, 77, 0
2, 16928, Note_on_c, 0, 72, 83
2, 16958, Note_on_c, 0, 72, 0
2, 16960, Note_on_c, 0, 73, 84
2, 16990, Note_on_c, 0, 73, 0
2, 16992, Note_on_c, 0, 74, 84
2, 17022, Note_on_c, 0, 74, 0
2, 17024, Note_on_c, 0, 75, 84
2, 17054, Note_on_c, 0, 75, 0
2, 17056, Note_on_c, 0, 76, 85
2, 17086, Note_on_c, 0, 76, 0
2, 17088, Note_on_c, 0, 77, 85
2, 17118, Note_on_c, 0, 77, 0
2, 17120, Note_on_c, 0, 78, 85
2, 17150, Note_on_c, 0, 78, 0
2, 17152, Note_on_c, 0, 79, 86
2, 17182, Note_on_c, 0, 79, 0
2, 17184, Note_on_c, 0, 80, 86
2, 17214, Note_on_c, 0, 80, 0
2, 17216, Note_on_c, 0, 81, 86
2, 17246, Note_on_c, 0, 81, 0
2, 17248, Note_on_c, 0, 82, 87
2, 17278, Note_on_c, 0, 82, 0
2, 17280, Note_on_c, 0, 83, 87
2, 17310, Note_on_c, 0, 83, 0
2, 17312, Note_on_c, 0, 84, 87
2, 17342, Note_on_c, 0, 84, 0
2, 17344, Note_on_c, 0, 85, 88
2, 17374, Note_on_c, 0, 85, 0
2, 17376, Note_on_c, 0, 86, 88
2, 17406, Note_on_c, 0, 86, 0
2, 17408, Note_on_c, 0, 87, 88
2, 17438, Note_on_c, 0, 87, 0
2, 17440, Note_on_c, 0, 88, 89
2, 17470, Note_on_c, 0, 88, 0
2, 17472, Note_on_c, 0, 89, 106
2, 17568, Note_on_c, 0, 89, 0
2, 17568, Note_on_c, 0, 71, 82
2, 17657, Note_on_c, 0, 71, 0
2, 17664, Control_c, 0, 64, 127
2, 17664, Note_on_c, 0, 72, 82
2, 17676, Note_on_c, 0, 72, 0
2, 17676, Note_on_c, 0, 77, 82
2, 17688, Note_on_c, 0, 77, 0
2, 17688, Note_on_c, 0, 81, 82
2, 17700, Note_on_c, 0, 81, 0
2, 17700, Note_on_c, 0, 84, 98
2, 17760, Note_on_c, 0, 84, 0
2, 17760, Control_c, 0, 64, 0
2, 17760, Note_on_c, 0, 82, 82
2, 17783, Note_on_c, 0, 82, 0
2, 17784, Note_on_c, 0, 81, 82
2, 17807, Note_on_c, 0, 81, 0
2, 17808, Note_on_c, 0, 79, 82
2, 17831, Note_on_c, 0, 79, 0
2, 17832, Note_on_c, 0, 77, 82
2, 17855, Note_on_c, 0, 77, 0
2, 17856, Note_on_c, 0, 81, 82
2, 17871, Note_on_c, 0, 81, 0
2, 17872, Note_on_c, 0, 79, 82
2, 17887, Note_on_c, 0, 79, 0
2, 17888, Note_on_c, 0, 81, 82
2, 17903, Note_on_c, 0, 81, 0
2, 17904, Note_on_c, 0, 79, 82
2, 17919, Note_on_c, 0, 79, 0
2, 17920, Note_on_c, 0, 81, 82
2, 17935, Note_on_c, 0, 81, 0
2, 17936, Note_on_c, 0, 79, 82
2, 17951, Note_on_c, 0, 79, 0
2, 17952, Note_on_c, 0, 81, 82
2, 17967, Note_on_c, 0, 81, 0
2, 17968, Note_on_c, 0, 79, 82
2, 17983, Note_on_c, 0, 79, 0
2, 17984, Note_on_c, 0, 77, 82
2, 18015, Note_on_c, 0, 77, 0
2, 18016, Note_on_c, 0, 79, 82
2, 18047, Note_on_c, 0, 79, 0
2, 18048, Note_on_c, 0, 77, 82
2, 18137, Note_on_c, 0, 77, 0
2, 18240, Note_on_c, 0, 82, 82
2, 18240, Note_on_c, 0, 70, 82
2, 18260, Note_on_c, 0, 82, 0
2, 18260, Note_on_c, 0, 70, 0
2, 18336, Note_on_c, 0, 81, 82
2, 18336, Note_on_c, 0, 69, 82
2, 18356, Note_on_c, 0, 81, 0
2, 18356, Note_on_c, 0, 69, 0
2, 18432, Note_on_c, 0, 86, 115
2, 18432, Note_on_c, 0, 74, 115
2, 18697, Note_on_c, 0, 86, 0
2, 18697, Note_on_c, 0, 74, 0
2, 18720, Note_on_c, 0, 76, 66
2, 18787, Note_on_c, 0, 76, 0
2, 18792, Note_on_c, 0, 86, 66
2, 18815, Note_on_c, 0, 86, 0
2, 18816, Note_on_c, 0, 77, 66
2, 18883, Note_on_c, 0, 77, 0
2, 18888, Note_on_c, 0, 84, 66
2, 18911, Note_on_c, 0, 84, 0
2, 18912, Note_on_c, 0, 79, 66
2, 18979, Note_on_c, 0, 79, 0
2, 18984, Note_on_c, 0, 82, 66
2, 19007, Note_on_c, 0, 82, 0
2, 19008, Note_on_c, 0, 77, 66
2, 19075, Note_on_c, 0, 77, 0
2, 19080, Note_on_c, 0, 81, 66
2, 19103, Note_on_c, 0, 81, 0
2, 19104, Note_on_c, 0, 76, 66
2, 19171, Note_on_c, 0, 76, 0
2, 19176, Note_on_c, 0, 79, 66
2, 19199, Note_on_c, 0, 79, 0
2, 19200, Note_on_c, 0, 77, 66
2, 19289, Note_on_c, 0, 77, 0
2, 19392, Note_on_c, 0, 82, 82
2, 19392, Note_on_c, 0, 70, 82
2, 19412, Note_on_c, 0, 82, 0
2, 19412, Note_on_c, 0, 70, 0
2, 19488, Note_on_c, 0, 81, 82
2, 19488, Note_on_c, 0, 69, 82
2, 19508, Note_on_c, 0, 81, 0
2, 19508, Note_on_c, 0, 69, 0
2, 19584, Note_on_c, 0, 86, 115
2, 19584, Note_on_c, 0, 74, 115
2, 19849, Note_on_c, 0, 86, 0
2, 19849, Note_on_c, 0, 74, 0
2, 19872, Note_on_c, 0, 76, 82
2, 19902, Note_on_c, 0, 76, 0
2, 19904, Note_on_c, 0, 79, 81
2, 19934, Note_on_c, 0, 79, 0
2, 19936, Note_on_c, 0, 86, 80
2, 19966, Note_on_c, 0, 86, 0
2, 19968, Note_on_c, 0, 77, 79
2, 19998, Note_on_c, 0, 77, 0
2, 20000, Note_on_c, 0, 81, 78
2, 20030, Note_on_c, 0, 81, 0
2, 20032, Note_on_c, 0, 84, 77
2, 20062, Note_on_c, 0, 84, 0
2, 20064, Note_on_c, 0, 74, 76
2, 20094, Note_on_c, 0, 74, 0
2, 20096, Note_on_c, 0, 82, 75
2, 20126, Note_on_c, 0, 82, 0
2, 20128, Note_on_c, 0, 79, 74
2, 20158, Note_on_c, 0, 79, 0
2, 20160, Note_on_c, 0, 77, 73
2, 20249, Note_on_c, 0, 77, 0
2, 20256, Note_on_c, 0, 76, 69
2, 20269, Note_on_c, 0, 76, 0
2, 20270, Note_on_c, 0, 77, 69
2, 20283, Note_on_c, 0, 77, 0
2, 20284, Note_on_c, 0, 76, 69
2, 20297, Note_on_c, 0, 76, 0
2, 20298, Note_on_c, 0, 77, 68
2, 20311, Note_on_c, 0, 77, 0
2, 20312, Note_on_c, 0, 76, 68
2, 20325, Note_on_c, 0, 76, 0
2, 20326, Note_on_c, 0, 74, 67
2, 20338, Note_on_c, 0, 74, 0
2, 20339, Note_on_c, 0, 76, 67
2, 20351, Note_on_c, 0, 76, 0
2, 20352, Note_on_c, 0, 77, 66
2, 20382, Note_on_c, 0, 77, 0
2, 20384, Note_on_c, 0, 72, 65
2, 20414, Note_on_c, 0, 72, 0
2, 20416, Note_on_c, 0, 81, 64
2, 20446, Note_on_c, 0, 81, 0
2, 20448, Note_on_c, 0, 77, 63
2, 20478, Note_on_c, 0, 77, 0
2, 20480, Note_on_c, 0, 72, 62
2, 20510, Note_on_c, 0, 72, 0
2, 20512, Note_on_c, 0, 81, 62
2, 20542, Note_on_c, 0, 81, 0
2, 20544, Note_on_c, 0, 77, 61
2, 20574, Note_on_c, 0, 77, 0
2, 20576, Note_on_c, 0, 72, 60
2, 20606, Note_on_c, 0, 72, 0
2, 20608, Note_on_c, 0, 81, 59
2, 20638, Note_on_c, 0, 81, 0
2, 20640, Note_on_c, 0, 77, 58
2, 20670, Note_on_c, 0, 77, 0
2, 20672, Note_on_c, 0, 72, 58
2, 20702, Note_on_c, 0, 72, 0
2, 20704, Note_on_c, 0, 81, 57
2, 20734, Note_on_c, 0, 81, 0
2, 20736, Note_on_c, 0, 77, 56
2, 20830, Note_on_c, 0, 77, 0
2, 21120, Control_c, 0, 64, 127
2, 21120, Note_on_c, 0, 74, 82
2, 21138, Note_on_c, 0, 74, 0
2, 21138, Note_on_c, 0, 77, 82
2, 21156, Note_on_c, 0, 77, 0
2, 21156, Note_on_c, 0, 82, 98
2, 21216, Control_c, 0, 64, 0
2, 21283, Note_on_c, 0, 82, 0
2, 21288, Note_on_c, 0, 81, 80
2, 21312, Note_on_c, 0, 81, 0
2, 21312, Note_on_c, 0, 79, 80
2, 21332, Note_on_c, 0, 79, 0
2, 21384, Note_on_c, 0, 77, 79
2, 21408, Note_on_c, 0, 77, 0
2, 21408, Note_on_c, 0, 75, 78
2, 21428, Note_on_c, 0, 75, 0
2, 21480, Note_on_c, 0, 74, 77
2, 21503, Note_on_c, 0, 74, 0
2, 21504, Note_on_c, 0, 72, 77
2, 21637, Note_on_c, 0, 72, 0
2, 21648, Note_on_c, 0, 72, 75
2, 21671, Note_on_c, 0, 72, 0
2, 21672, Note_on_c, 0, 74, 75
2, 21695, Note_on_c, 0, 74, 0
2, 21696, Note_on_c, 0, 75, 75
2, 21763, Note_on_c, 0, 75, 0
2, 21768, Note_on_c, 0, 74, 77
2, 21780, Note_on_c, 0, 74, 0
2, 21780, Note_on_c, 0, 75, 78
2, 21792, Note_on_c, 0, 75, 0
2, 21792, Note_on_c, 0, 77, 78
2, 21859, Note_on_c, 0, 77, 0
2, 21864, Note_on_c, 0, 75, 81
2, 21876, Note_on_c, 0, 75, 0
2, 21876, Note_on_c, 0, 77, 81
2, 21888, Note_on_c, 0, 77, 0
2, 21888, Note_on_c, 0, 79, 82
2, 22029, Note_on_c, 0, 79, 0
2, 22056, Note_on_c, 0, 77, 78
2, 22080, Note_on_c, 0, 77, 0
2, 22080, Note_on_c, 0, 75, 78
2, 22100, Note_on_c, 0, 75, 0
2, 22152, Note_on_c, 0, 74, 77
2, 22176, Note_on_c, 0, 74, 0
2, 22176, Note_on_c, 0, 72, 76
2, 22196, Note_on_c, 0, 72, 0
2, 22248, Note_on_c, 0, 70, 75
2, 22271, Note_on_c, 0, 70, 0
2, 22272, Note_on_c, 0, 69, 75
2, 22311, Note_on_c, 0, 69, 0
2, 22368, Note_on_c, 0, 75, 108
2, 22560, Note_on_c, 0, 75, 0
2, 22560, Note_on_c, 0, 74, 75
2, 22649, Note_on_c, 0, 74, 0
2, 22656, Note_on_c, 0, 72, 75
2, 22695, Note_on_c, 0, 72, 0
2, 22752, Note_on_c, 0, 79, 108
2, 22944, Note_on_c, 0, 79, 0
2, 22944, Note_on_c, 0, 77, 75
2, 23033, Note_on_c, 0, 77, 0
2, 23040, Note_on_c, 0, 87, 98
2, 23064, Note_on_c, 0, 87, 0
2, 23064, Note_on_c, 0, 89, 82
2, 23087, Note_on_c, 0, 89, 0
2, 23088, Note_on_c, 0, 87, 82
2, 23111, Note_on_c, 0, 87, 0
2, 23112, Note_on_c, 0, 86, 82
2, 23135, Note_on_c, 0, 86, 0
2, 23136, Note_on_c, 0, 84, 82
2, 23159, Note_on_c, 0, 84, 0
2, 23160, Note_on_c, 0, 86, 82
2, 23183, Note_on_c, 0, 86, 0
2, 23184, Note_on_c, 0, 84, 82
2, 23207, Note_on_c, 0, 84, 0
2, 23208, Note_on_c, 0, 82, 82
2, 23231, Note_on_c, 0, 82, 0
2, 23232, Note_on_c, 0, 81, 82
2, 23255, Note_on_c, 0, 81, 0
2, 23256, Note_on_c, 0, 82, 82
2, 23279, Note_on_c, 0, 82, 0
2, 23280, Note_on_c, 0, 81, 82
2, 23303, Note_on_c, 0, 81, 0
2, 23304, Note_on_c, 0, 79, 82
2, 23327, Note_on_c, 0, 79, 0
2, 23328, Note_on_c, 0, 77, 82
2, 23351, Note_on_c, 0, 77, 0
2, 23352, Note_on_c, 0, 79, 82
2, 23375, Note_on_c, 0, 79, 0
2, 23376, Note_on_c, 0, 77, 82
2, 23399, Note_on_c, 0, 77, 0
2, 23400, Note_on_c, 0, 75, 82
2, 23423, Note_on_c, 0, 75, 0
2, 23424, Note_on_c, 0, 74, 82
2, 23491, Note_on_c, 0, 74, 0
2, 23496, Note_on_c, 0, 77, 80
2, 23519, Note_on_c, 0, 77, 0
2, 23520, Note_on_c, 0, 75, 80
2, 23587, Note_on_c, 0, 75, 0
2, 23592, Note_on_c, 0, 72, 78
2, 23615, Note_on_c, 0, 72, 0
2, 23616, Note_on_c, 0, 74, 78
2, 23683, Note_on_c, 0, 74, 0
2, 23688, Note_on_c, 0, 70, 77
2, 23711, Note_on_c, 0, 70, 0
2, 23712, Note_on_c, 0, 72, 76
2, 23779, Note_on_c, 0, 72, 0
2, 23784, Note_on_c, 0, 69, 75
2, 23807, Note_on_c, 0, 69, 0
2, 23808, Note_on_c, 0, 70, 75
2, 23941, Note_on_c, 0, 70, 0
2, 24072, Note_on_c, 0, 58, 75
2, 24095, Note_on_c, 0, 58, 0
2, 24096, Note_on_c, 0, 60, 75
2, 24102, Note_on_c, 0, 60, 0
2, 24102, Note_on_c, 0, 58, 75
2, 24119, Note_on_c, 0, 58, 0
2, 24120, Note_on_c, 0, 57, 75
2, 24143, Note_on_c, 0, 57, 0
2, 24144, Note_on_c, 0, 58, 75
2, 24167, Note_on_c, 0, 58, 0
2, 24168, Note_on_c, 0, 60, 75
2, 24191, Note_on_c, 0, 60, 0
2, 24192, Note_on_c, 0, 62, 75
2, 24259, Note_on_c, 0, 62, 0
2, 24264, Note_on_c, 0, 58, 76
2, 24287, Note_on_c, 0, 58, 0
2, 24288, Note_on_c, 0, 63, 76
2, 24355, Note_on_c, 0, 63, 0
2, 24360, Note_on_c, 0, 60, 78
2, 24383, Note_on_c, 0, 60, 0
2, 24384, Note_on_c, 0, 65, 78
2, 24451, Note_on_c, 0, 65, 0
2, 24456, Note_on_c, 0, 62, 80
2, 24479, Note_on_c, 0, 62, 0
2, 24480, Note_on_c, 0, 70, 80
2, 24509, Note_on_c, 0, 70, 0
2, 24552, Note_on_c, 0, 70, 82
2, 24552, Note_on_c, 0, 62, 82
2, 24575, Note_on_c, 0, 70, 0
2, 24575, Note_on_c, 0, 62, 0
2, 24576, Note_on_c, 0, 70, 98
2, 24576, Note_on_c, 0, 62, 98
2, 24768, Note_on_c, 0, 70, 0
2, 24768, Note_on_c, 0, 62, 0
2, 24768, Note_on_c, 0, 69, 76
2, 24768, Note_on_c, 0, 60, 76
2, 24813, Note_on_c, 0, 69, 0
2, 24813, Note_on_c, 0, 60, 0
2, 24840, Note_on_c, 0, 65, 75
2, 24863, Note_on_c, 0, 65, 0
2, 24864, Note_on_c, 0, 67, 75
2, 24870, Note_on_c, 0, 67, 0
2, 24870, Note_on_c, 0, 65, 75
2, 24887, Note_on_c, 0, 65, 0
2, 24888, Note_on_c, 0, 64, 75
2, 24911, Note_on_c, 0, 64, 0
2, 24912, Note_on_c, 0, 65, 75
2, 24935, Note_on_c, 0, 65, 0
2, 24936, Note_on_c, 0, 67, 75
2, 24959, Note_on_c, 0, 67, 0
2, 24960, Note_on_c, 0, 69, 75
2, 25027, Note_on_c, 0, 69, 0
2, 25032, Note_on_c, 0, 65, 76
2, 25055, Note_on_c, 0, 65, 0
2, 25056, Note_on_c, 0, 70, 76
2, 25123, Note_on_c, 0, 70, 0
2, 25128, Note_on_c, 0, 67, 78
2, 25151, Note_on_c, 0, 67, 0
2, 25152, Note_on_c, 0, 72, 78
2, 25219, Note_on_c, 0, 72, 0
2, 25224, Note_on_c, 0, 69, 80
2, 25247, Note_on_c, 0, 69, 0
2, 25248, Note_on_c, 0, 75, 80
2, 25277, Note_on_c, 0, 75, 0
2, 25320, Note_on_c, 0, 75, 82
2, 25320, Note_on_c, 0, 72, 82
2, 25343, Note_on_c, 0, 75, 0
2, 25343, Note_on_c, 0, 72, 0
2, 25344, Note_on_c, 0, 75, 98
2, 25344, Note_on_c, 0, 72, 98
2, 25536, Note_on_c, 0, 75, 0
2, 25536, Note_on_c, 0, 72, 0
2, 25536, Note_on_c, 0, 74, 76
2, 25536, Note_on_c, 0, 70, 76
2, 25581, Note_on_c, 0, 74, 0
2, 25581, Note_on_c, 0, 70, 0
2, 25608, Note_on_c, 0, 74, 75
2, 25631, Note_on_c, 0, 74, 0
2, 25632, Note_on_c, 0, 75, 75
2, 25638, Note_on_c, 0, 75, 0
2, 25638, Note_on_c, 0, 74, 75
2, 25655, Note_on_c, 0, 74, 0
2, 25656, Note_on_c, 0, 72, 75
2, 25679, Note_on_c, 0, 72, 0
2, 25680, Note_on_c, 0, 74, 75
2, 25703, Note_on_c, 0, 74, 0
2, 25704, Note_on_c, 0, 75, 75
2, 25727, Note_on_c, 0, 75, 0
2, 25728, Note_on_c, 0, 77, 75
2, 25795, Note_on_c, 0, 77, 0
2, 25800, Note_on_c, 0, 74, 76
2, 25823, Note_on_c, 0, 74, 0
2, 25824, Note_on_c, 0, 82, 77
2, 25891, Note_on_c, 0, 82, 0
2, 25896, Note_on_c, 0, 77, 79
2, 25919, Note_on_c, 0, 77, 0
2, 25920, Note_on_c, 0, 86, 80
2, 25987, Note_on_c, 0, 86, 0
2, 25992, Note_on_c, 0, 84, 82
2, 26016, Note_on_c, 0, 84, 0
2, 26016, Note_on_c, 0, 82, 81
2, 26036, Note_on_c, 0, 82, 0
2, 26088, Note_on_c, 0, 81, 80
2, 26112, Note_on_c, 0, 81, 0
2, 26112, Note_on_c, 0, 79, 80
2, 26132, Note_on_c, 0, 79, 0
2, 26184, Note_on_c, 0, 77, 79
2, 26208, Note_on_c, 0, 77, 0
2, 26208, Note_on_c, 0, 75, 79
2, 26228, Note_on_c, 0, 75, 0
2, 26280, Note_on_c, 0, 74, 78
2, 26304, Note_on_c, 0, 74, 0
2, 26304, Note_on_c, 0, 72, 77
2, 26324, Note_on_c, 0, 72, 0
2, 26376, Note_on_c, 0, 79, 76
2, 26400, Note_on_c, 0, 79, 0
2, 26400, Note_on_c, 0, 77, 76
2, 26420, Note_on_c, 0, 77, 0
2, 26472, Note_on_c, 0, 75, 75
2, 26496, Note_on_c, 0, 75, 0
2, 26496, Note_on_c, 0, 74, 75
2, 26516, Note_on_c, 0, 74, 0
2, 26568, Note_on_c, 0, 77, 77
2, 26592, Note_on_c, 0, 77, 0
2, 26592, Note_on_c, 0, 82, 77
2, 26612, Note_on_c, 0, 82, 0
2, 26664, Note_on_c, 0, 77, 79
2, 26688, Note_on_c, 0, 77, 0
2, 26688, Note_on_c, 0, 86, 80
2, 26708, Note_on_c, 0, 86, 0
2, 26760, Note_on_c, 0, 84, 82
2, 26784, Note_on_c, 0, 84, 0
2, 26784, Note_on_c, 0, 82, 81
2, 26804, Note_on_c, 0, 82, 0
2, 26856, Note_on_c, 0, 81, 79
2, 26879, Note_on_c, 0, 81, 0
2, 26880, Note_on_c, 0, 79, 78
2, 26900, Note_on_c, 0, 79, 0
2, 26952, Note_on_c, 0, 77, 76
2, 26976, Note_on_c, 0, 77, 0
2, 26976, Note_on_c, 0, 75, 75
2, 26996, Note_on_c, 0, 75, 0
2, 27048, Note_on_c, 0, 74, 73
2, 27072, Note_on_c, 0, 74, 0
2, 27072, Note_on_c, 0, 72, 72
2, 27092, Note_on_c, 0, 72, 0
2, 27144, Note_on_c, 0, 79, 70
2, 27168, Note_on_c, 0, 79, 0
2, 27168, Note_on_c, 0, 77, 70
2, 27188, Note_on_c, 0, 77, 0
2, 27240, Note_on_c, 0, 75, 68
2, 27264, Note_on_c, 0, 75, 0
2, 27264, Note_on_c, 0, 74, 67
2, 27284, Note_on_c, 0, 74, 0
2, 27336, Note_on_c, 0, 79, 66
2, 27360, Note_on_c, 0, 79, 0
2, 27360, Note_on_c, 0, 77, 66
2, 27380, Note_on_c, 0, 77, 0
2, 27432, Note_on_c, 0, 75, 66
2, 27456, Note_on_c, 0, 75, 0
2, 27456, Note_on_c, 0, 74, 66
2, 27476, Note_on_c, 0, 74, 0
2, 27528, Note_on_c, 0, 79, 66
2, 27552, Note_on_c, 0, 79, 0
2, 27552, Note_on_c, 0, 77, 66
2, 27572, Note_on_c, 0, 77, 0
2, 27624, Note_on_c, 0, 75, 66
2, 27648, Note_on_c, 0, 75, 0
2, 27648, Note_on_c, 0, 74, 66
2, 27668, Note_on_c, 0, 74, 0
2, 27720, Note_on_c, 0, 84, 56
2, 27744, Note_on_c, 0, 84, 0
2, 27744, Note_on_c, 0, 82, 57
2, 27764, Note_on_c, 0, 82, 0
2, 27816, Note_on_c, 0, 81, 61
2, 27840, Note_on_c, 0, 81, 0
2, 27840, Note_on_c, 0, 79, 62
2, 27860, Note_on_c, 0, 79, 0
2, 27912, Note_on_c, 0, 77, 66
2, 27936, Note_on_c, 0, 77, 0
2, 27936, Note_on_c, 0, 75, 67
2, 27956, Note_on_c, 0, 75, 0
2, 28008, Note_on_c, 0, 74, 71
2, 28032, Note_on_c, 0, 74, 0
2, 28032, Note_on_c, 0, 72, 72
2, 28052, Note_on_c, 0, 72, 0
2, 28080, Note_on_c, 0, 78, 75
2, 28125, Note_on_c, 0, 78, 0
2, 28128, Note_on_c, 0, 81, 108
2, 28173, Note_on_c, 0, 81, 0
2, 28176, Note_on_c, 0, 79, 75
2, 28221, Note_on_c, 0, 79, 0
2, 28224, Note_on_c, 0, 77, 75
2, 28269, Note_on_c, 0, 77, 0
2, 28272, Note_on_c, 0, 75, 72
2, 28317, Note_on_c, 0, 75, 0
2, 28320, Note_on_c, 0, 74, 70
2, 28365, Note_on_c, 0, 74, 0
2, 28368, Note_on_c, 0, 72, 68
2, 28413, Note_on_c, 0, 72, 0
2, 28416, Note_on_c, 0, 70, 66
2, 28608, Note_on_c, 0, 70, 0
2, 28608, Note_on_c, 0, 69, 58
2, 28653, Note_on_c, 0, 69, 0
2, 28776, Note_on_c, 0, 69, 82
2, 28788, Note_on_c, 0, 69, 0
2, 28788, Note_on_c, 0, 72, 82
2, 28800, Note_on_c, 0, 72, 0
2, 28800, Note_on_c, 0, 77, 82
2, 28955, Note_on_c, 0, 77, 0
2, 28968, Note_on_c, 0, 72, 82
2, 28980, Note_on_c, 0, 72, 0
2, 28980, Note_on_c, 0, 76, 82
2, 28992, Note_on_c, 0, 76, 0
2, 28992, Note_on_c, 0, 79, 82
2, 29147, Note_on_c, 0, 79, 0
2, 29160, Note_on_c, 0, 72, 82
2, 29172, Note_on_c, 0, 72, 0
2, 29172, Note_on_c, 0, 77, 82
2, 29184, Note_on_c, 0, 77, 0
2, 29184, Note_on_c, 0, 81, 82
2, 29339, Note_on_c, 0, 81, 0
2, 29352, Note_on_c, 0, 81, 82
2, 29364, Note_on_c, 0, 81, 0
2, 29364, Note_on_c, 0, 84, 82
2, 29376, Note_on_c, 0, 84, 0
2, 29376, Note_on_c, 0, 89, 82
2, 29399, Note_on_c, 0, 89, 0
2, 29400, Note_on_c, 0, 88, 82
2, 29423, Note_on_c, 0, 88, 0
2, 29424, Note_on_c, 0, 86, 82
2, 29447, Note_on_c, 0, 86, 0
2, 29448, Note_on_c, 0, 84, 82
2, 29471, Note_on_c, 0, 84, 0
2, 29472, Note_on_c, 0, 82, 82
2, 29495, Note_on_c, 0, 82, 0
2, 29496, Note_on_c, 0, 81, 82
2, 29519, Note_on_c, 0, 81, 0
2, 29520, Note_on_c, 0, 79, 82
2, 29543, Note_on_c, 0, 79, 0
2, 29544, Note_on_c, 0, 77, 82
2, 29567, Note_on_c, 0, 77, 0
2, 29568, Note_on_c, 0, 76, 82
2, 29723, Note_on_c, 0, 76, 0
2, 29736, Note_on_c, 0, 76, 70
2, 29760, Note_on_c, 0, 76, 0
2, 29760, Note_on_c, 0, 77, 69
2, 29915, Note_on_c, 0, 77, 0
2, 29928, Note_on_c, 0, 77, 57
2, 29951, Note_on_c, 0, 77, 0
2, 29952, Note_on_c, 0, 78, 56
2, 30048, Note_on_c, 0, 78, 0
2, 30048, Note_on_c, 0, 79, 56
2, 30142, Note_on_c, 0, 79, 0
2, 30312, Note_on_c, 0, 79, 82
2, 30335, Note_on_c, 0, 79, 0
2, 30336, Note_on_c, 0, 80, 82
2, 30425, Note_on_c, 0, 80, 0
2, 30432, Note_on_c, 0, 80, 115
2, 30565, Note_on_c, 0, 80, 0
2, 30576, Note_on_c, 0, 80, 82
2, 30621, Note_on_c, 0, 80, 0
2, 30624, Note_on_c, 0, 82, 82
2, 30636, Note_on_c, 0, 82, 0
2, 30636, Note_on_c, 0, 80, 82
2, 30648, Note_on_c, 0, 80, 0
2, 30648, Note_on_c, 0, 79, 82
2, 30660, Note_on_c, 0, 79, 0
2, 30660, Note_on_c, 0, 80, 82
2, 30691, Note_on_c, 0, 80, 0
2, 30696, Note_on_c, 0, 82, 82
2, 30719, Note_on_c, 0, 82, 0
2, 30720, Note_on_c, 0, 80, 82
2, 30853, Note_on_c, 0, 80, 0
2, 30864, Note_on_c, 0, 77, 82
2, 30887, Note_on_c, 0, 77, 0
2, 30888, Note_on_c, 0, 78, 82
2, 30911, Note_on_c, 0, 78, 0
2, 30912, Note_on_c, 0, 80, 82
2, 30927, Note_on_c, 0, 80, 0
2, 30928, Note_on_c, 0, 78, 82
2, 30943, Note_on_c, 0, 78, 0
2, 30944, Note_on_c, 0, 80, 82
2, 30959, Note_on_c, 0, 80, 0
2, 30960, Note_on_c, 0, 78, 82
2, 30975, Note_on_c, 0, 78, 0
2, 30976, Note_on_c, 0, 80, 82
2, 30991, Note_on_c, 0, 80, 0
2, 30992, Note_on_c, 0, 78, 82
2, 31007, Note_on_c, 0, 78, 0
2, 31008, Note_on_c, 0, 80, 82
2, 31023, Note_on_c, 0, 80, 0
2, 31024, Note_on_c, 0, 78, 82
2, 31039, Note_on_c, 0, 78, 0
2, 31040, Note_on_c, 0, 77, 82
2, 31071, Note_on_c, 0, 77, 0
2, 31072, Note_on_c, 0, 78, 82
2, 31103, Note_on_c, 0, 78, 0
2, 31104, Note_on_c, 0, 77, 82
2, 31193, Note_on_c, 0, 77, 0
2, 31200, Note_on_c, 0, 77, 115
2, 31333, Note_on_c, 0, 77, 0
2, 31344, Note_on_c, 0, 77, 82
2, 31389, Note_on_c, 0, 77, 0
2, 31392, Note_on_c, 0, 78, 82
2, 31404, Note_on_c, 0, 78, 0
2, 31404, Note_on_c, 0, 77, 82
2, 31416, Note_on_c, 0, 77, 0
2, 31416, Note_on_c, 0, 75, 82
2, 31428, Note_on_c, 0, 75, 0
2, 31428, Note_on_c, 0, 77, 82
2, 31459, Note_on_c, 0, 77, 0
2, 31464, Note_on_c, 0, 78, 82
2, 31487, Note_on_c, 0, 78, 0
2, 31488, Note_on_c, 0, 77, 82
2, 31555, Note_on_c, 0, 77, 0
2, 31560, Note_on_c, 0, 75, 82
2, 31583, Note_on_c, 0, 75, 0
2, 31584, Note_on_c, 0, 78, 115
2, 31717, Note_on_c, 0, 78, 0
2, 31728, Note_on_c, 0, 77, 82
2, 31751, Note_on_c, 0, 77, 0
2, 31752, Note_on_c, 0, 75, 82
2, 31775, Note_on_c, 0, 75, 0
2, 31776, Note_on_c, 0, 73, 82
2, 31821, Note_on_c, 0, 73, 0
2, 31824, Note_on_c, 0, 72, 82
2, 31869, Note_on_c, 0, 72, 0
2, 31872, Note_on_c, 0, 75, 82
2, 31968, Note_on_c, 0, 75, 0
2, 31968, Note_on_c, 0, 73, 81
2, 32057, Note_on_c, 0, 73, 0
2, 32136, Note_on_c, 0, 73, 79
2, 32159, Note_on_c, 0, 73, 0
2, 32160, Note_on_c, 0, 75, 79
2, 32172, Note_on_c, 0, 75, 0
2, 32172, Note_on_c, 0, 73, 79
2, 32184, Note_on_c, 0, 73, 0
2, 32184, Note_on_c, 0, 72, 79
2, 32196, Note_on_c, 0, 72, 0
2, 32196, Note_on_c, 0, 73, 79
2, 32227, Note_on_c, 0, 73, 0
2, 32232, Note_on_c, 0, 75, 78
2, 32255, Note_on_c, 0, 75, 0
2, 32256, Note_on_c, 0, 73, 78
2, 32352, Note_on_c, 0, 73, 0
2, 32352, Note_on_c, 0, 72, 77
2, 32441, Note_on_c, 0, 72, 0
2, 32520, Note_on_c, 0, 72, 76
2, 32543, Note_on_c, 0, 72, 0
2, 32544, Note_on_c, 0, 74, 75
2, 32556, Note_on_c, 0, 74, 0
2, 32556, Note_on_c, 0, 72, 75
2, 32568, Note_on_c, 0, 72, 0
2, 32568, Note_on_c, 0, 71, 75
2, 32580, Note_on_c, 0, 71, 0
2, 32580, Note_on_c, 0, 72, 75
2, 32633, Note_on_c, 0, 72, 0
2, 32640, Note_on_c, 0, 71, 75
2, 32670, Note_on_c, 0, 71, 0
2, 32672, Note_on_c, 0, 74, 75
2, 32702, Note_on_c, 0, 74, 0
2, 32704, Note_on_c, 0, 72, 76
2, 32734, Note_on_c, 0, 72, 0
2, 32736, Note_on_c, 0, 75, 76
2, 32766, Note_on_c, 0, 75, 0
2, 32768, Note_on_c, 0, 74, 77
2, 32798, Note_on_c, 0, 74, 0
2, 32800, Note_on_c, 0, 77, 77
2, 32830, Note_on_c, 0, 77, 0
2, 32832, Note_on_c, 0, 75, 78
2, 32862, Note_on_c, 0, 75, 0
2, 32864, Note_on_c, 0, 79, 78
2, 32894, Note_on_c, 0, 79, 0
2, 32896, Note_on_c, 0, 77, 79
2, 32926, Note_on_c, 0, 77, 0
2, 32928, Note_on_c, 0, 80, 79
2, 32958, Note_on_c, 0, 80, 0
2, 32960, Note_on_c, 0, 79, 80
2, 32990, Note_on_c, 0, 79, 0
2, 32992, Note_on_c, 0, 82, 81
2, 33022, Note_on_c, 0, 82, 0
2, 33024, Note_on_c, 0, 80, 82
2, 33113, Note_on_c, 0, 80, 0
2, 33120, Note_on_c, 0, 79, 115
2, 33297, Note_on_c, 0, 79, 0
2, 33312, Note_on_c, 0, 77, 82
2, 33325, Note_on_c, 0, 77, 0
2, 33326, Note_on_c, 0, 79, 82
2, 33339, Note_on_c, 0, 79, 0
2, 33340, Note_on_c, 0, 77, 82
2, 33353, Note_on_c, 0, 77, 0
2, 33354, Note_on_c, 0, 79, 82
2, 33367, Note_on_c, 0, 79, 0
2, 33368, Note_on_c, 0, 77, 82
2, 33381, Note_on_c, 0, 77, 0
2, 33382, Note_on_c, 0, 76, 82
2, 33394, Note_on_c, 0, 76, 0
2, 33395, Note_on_c, 0, 77, 82
2, 33407, Note_on_c, 0, 77, 0
2, 33408, Note_on_c, 0, 76, 82
2, 33438, Note_on_c, 0, 76, 0
2, 33440, Note_on_c, 0, 79, 82
2, 33470, Note_on_c, 0, 79, 0
2, 33472, Note_on_c, 0, 77, 82
2, 33502, Note_on_c, 0, 77, 0
2, 33504, Note_on_c, 0, 81, 82
2, 33534, Note_on_c, 0, 81, 0
2, 33536, Note_on_c, 0, 79, 82
2, 33566, Note_on_c, 0, 79, 0
2, 33568, Note_on_c, 0, 82, 82
2, 33598, Note_on_c, 0, 82, 0
2, 33600, Note_on_c, 0, 81, 82
2, 33630, Note_on_c, 0, 81, 0
2, 33632, Note_on_c, 0, 84, 82
2, 33662, Note_on_c, 0, 84, 0
2, 33664, Note_on_c, 0, 82, 82
2, 33694, Note_on_c, 0, 82, 0
2, 33696, Note_on_c, 0, 86, 82
2, 33726, Note_on_c, 0, 86, 0
2, 33728, Note_on_c, 0, 84, 82
2, 33758, Note_on_c, 0, 84, 0
2, 33760, Note_on_c, 0, 88, 82
2, 33790, Note_on_c, 0, 88, 0
2, 33792, Note_on_c, 0, 86, 82
2, 33881, Note_on_c, 0, 86, 0
2, 33888, Note_on_c, 0, 84, 115
2, 34065, Note_on_c, 0, 84, 0
2, 34080, Note_on_c, 0, 82, 82
2, 34093, Note_on_c, 0, 82, 0
2, 34094, Note_on_c, 0, 84, 82
2, 34107, Note_on_c, 0, 84, 0
2, 34108, Note_on_c, 0, 82, 82
2, 34121, Note_on_c, 0, 82, 0
2, 34122, Note_on_c, 0, 84, 82
2, 34135, Note_on_c, 0, 84, 0
2, 34136, Note_on_c, 0, 82, 82
2, 34149, Note_on_c, 0, 82, 0
2, 34150, Note_on_c, 0, 81, 82
2, 34162, Note_on_c, 0, 81, 0
2, 34163, Note_on_c, 0, 82, 82
2, 34175, Note_on_c, 0, 82, 0
2, 34176, Note_on_c, 0, 81, 82
2, 34265, Note_on_c, 0, 81, 0
2, 34272, Note_on_c, 0, 84, 82
2, 34435, Note_on_c, 0, 84, 0
2, 34440, Note_on_c, 0, 76, 82
2, 34463, Note_on_c, 0, 76, 0
2, 34464, Note_on_c, 0, 76, 82
2, 34477, Note_on_c, 0, 76, 0
2, 34478, Note_on_c, 0, 77, 82
2, 34491, Note_on_c, 0, 77, 0
2, 34492, Note_on_c, 0, 76, 82
2, 34505, Note_on_c, 0, 76, 0
2, 34506, Note_on_c, 0, 77, 82
2, 34519, Note_on_c, 0, 77, 0
2, 34520, Note_on_c, 0, 76, 82
2, 34533, Note_on_c, 0, 76, 0
2, 34534, Note_on_c, 0, 74, 82
2, 34546, Note_on_c, 0, 74, 0
2, 34547, Note_on_c, 0, 76, 82
2, 34559, Note_on_c, 0, 76, 0
2, 34560, Note_on_c, 0, 77, 82
2, 34649, Note_on_c, 0, 77, 0
2, 34656, Note_on_c, 0, 81, 82
2, 34745, Note_on_c, 0, 81, 0
2, 34824, Note_on_c, 0, 79, 82
2, 34847, Note_on_c, 0, 79, 0
2, 34848, Note_on_c, 0, 79, 82
2, 34861, Note_on_c, 0, 79, 0
2, 34862, Note_on_c, 0, 81, 82
2, 34875, Note_on_c, 0, 81, 0
2, 34876, Note_on_c, 0, 79, 82
2, 34889, Note_on_c, 0, 79, 0
2, 34890, Note_on_c, 0, 81, 82
2, 34903, Note_on_c, 0, 81, 0
2, 34904, Note_on_c, 0, 79, 82
2, 34917, Note_on_c, 0, 79, 0
2, 34918, Note_on_c, 0, 77, 82
2, 34930, Note_on_c, 0, 77, 0
2, 34931, Note_on_c, 0, 79, 82
2, 34943, Note_on_c, 0, 79, 0
2, 34944, Note_on_c, 0, 81, 82
2, 35033, Note_on_c, 0, 81, 0
2, 35040, Note_on_c, 0, 84, 115
2, 35166, Note_on_c, 0, 84, 0
2, 35168, Note_on_c, 0, 82, 82
2, 35198, Note_on_c, 0, 82, 0
2, 35200, Note_on_c, 0, 81, 82
2, 35230, Note_on_c, 0, 81, 0
2, 35232, Note_on_c, 0, 79, 82
2, 35262, Note_on_c, 0, 79, 0
2, 35264, Note_on_c, 0, 77, 82
2, 35294, Note_on_c, 0, 77, 0
2, 35296, Note_on_c, 0, 76, 82
2, 35326, Note_on_c, 0, 76, 0
2, 35328, Note_on_c, 0, 77, 82
2, 35395, Note_on_c, 0, 77, 0
2, 35400, Note_on_c, 0, 77, 82
2, 35423, Note_on_c, 0, 77, 0
2, 35424, Note_on_c, 0, 77, 82
2, 35437, Note_on_c, 0, 77, 0
2, 35438, Note_on_c, 0, 79, 82
2, 35451, Note_on_c, 0, 79, 0
2, 35452, Note_on_c, 0, 77, 82
2, 35465, Note_on_c, 0, 77, 0
2, 35466, Note_on_c, 0, 79, 82
2, 35479, Note_on_c, 0, 79, 0
2, 35480, Note_on_c, 0, 77, 82
2, 35493, Note_on_c, 0, 77, 0
2, 35494, Note_on_c, 0, 75, 82
2, 35506, Note_on_c, 0, 75, 0
2, 35507, Note_on_c, 0, 77, 82
2, 35519, Note_on_c, 0, 77, 0
2, 35520, Note_on_c, 0, 79, 82
2, 35587, Note_on_c, 0, 79, 0
2, 35592, Note_on_c, 0, 79, 82
2, 35615, Note_on_c, 0, 79, 0
2, 35616, Note_on_c, 0, 79, 82
2, 35629, Note_on_c, 0, 79, 0
2, 35630, Note_on_c, 0, 81, 82
2, 35643, Note_on_c, 0, 81, 0
2, 35644, Note_on_c, 0, 79, 82
2, 35657, Note_on_c, 0, 79, 0
2, 35658, Note_on_c, 0, 81, 82
2, 35671, Note_on_c, 0, 81, 0
2, 35672, Note_on_c, 0, 79, 82
2, 35685, Note_on_c, 0, 79, 0
2, 35686, Note_on_c, 0, 77, 82
2, 35698, Note_on_c, 0, 77, 0
2, 35699, Note_on_c, 0, 79, 82
2, 35711, Note_on_c, 0, 79, 0
2, 35712, Note_on_c, 0, 81, 82
2, 35779, Note_on_c, 0, 81, 0
2, 35784, Note_on_c, 0, 81, 82
2, 35807, Note_on_c, 0, 81, 0
2, 35808, Note_on_c, 0, 81, 82
2, 35821, Note_on_c, 0, 81, 0
2, 35822, Note_on_c, 0, 82, 82
2, 35835, Note_on_c, 0, 82, 0
2, 35836, Note_on_c, 0, 81, 82
2, 35849, Note_on_c, 0, 81, 0
2, 35850, Note_on_c, 0, 82, 82
2, 35863, Note_on_c, 0, 82, 0
2, 35864, Note_on_c, 0, 81, 82
2, 35877, Note_on_c, 0, 81, 0
2, 35878, Note_on_c, 0, 79, 82
2, 35890, Note_on_c, 0, 79, 0
2, 35891, Note_on_c, 0, 81, 82
2, 35903, Note_on_c, 0, 81, 0
2, 35904, Note_on_c, 0, 82, 82
2, 35971, Note_on_c, 0, 82, 0
2, 35976, Note_on_c, 0, 82, 82
2, 35999, Note_on_c, 0, 82, 0
2, 36000, Note_on_c, 0, 82, 82
2, 36013, Note_on_c, 0, 82, 0
2, 36014, Note_on_c, 0, 84, 82
2, 36027, Note_on_c, 0, 84, 0
2, 36028, Note_on_c, 0, 82, 82
2, 36041, Note_on_c, 0, 82, 0
2, 36042, Note_on_c, 0, 84, 82
2, 36055, Note_on_c, 0, 84, 0
2, 36056, Note_on_c, 0, 82, 82
2, 36069, Note_on_c, 0, 82, 0
2, 36070, Note_on_c, 0, 81, 82
2, 36082, Note_on_c, 0, 81, 0
2, 36083, Note_on_c, 0, 82, 82
2, 36095, Note_on_c, 0, 82, 0
2, 36096, Note_on_c, 0, 84, 82
2, 36141, Note_on_c, 0, 84, 0
2, 36168, Note_on_c, 0, 77, 82
2, 36180, Note_on_c, 0, 77, 0
2, 36180, Note_on_c, 0, 79, 82
2, 36192, Note_on_c, 0, 79, 0
2, 36192, Note_on_c, 0, 81, 82
2, 36239, Note_on_c, 0, 81, 0
2, 36264, Note_on_c, 0, 81, 85
2, 36276, Note_on_c, 0, 81, 0
2, 36276, Note_on_c, 0, 82, 86
2, 36288, Note_on_c, 0, 82, 0
2, 36288, Note_on_c, 0, 84, 86
2, 36335, Note_on_c, 0, 84, 0
2, 36360, Note_on_c, 0, 84, 89
2, 36372, Note_on_c, 0, 84, 0
2, 36372, Note_on_c, 0, 86, 89
2, 36384, Note_on_c, 0, 86, 0
2, 36384, Note_on_c, 0, 87, 90
2, 36431, Note_on_c, 0, 87, 0
2, 36456, Note_on_c, 0, 87, 82
2, 36468, Note_on_c, 0, 87, 0
2, 36468, Note_on_c, 0, 86, 81
2, 36480, Note_on_c, 0, 86, 0
2, 36480, Note_on_c, 0, 84, 81
2, 36527, Note_on_c, 0, 84, 0
2, 36552, Note_on_c, 0, 84, 80
2, 36564, Note_on_c, 0, 84, 0
2, 36564, Note_on_c, 0, 82, 80
2, 36576, Note_on_c, 0, 82, 0
2, 36576, Note_on_c, 0, 81, 79
2, 36623, Note_on_c, 0, 81, 0
2, 36648, Note_on_c, 0, 81, 78
2, 36660, Note_on_c, 0, 81, 0
2, 36660, Note_on_c, 0, 79, 78
2, 36672, Note_on_c, 0, 79, 0
2, 36672, Note_on_c, 0, 77, 78
2, 36702, Note_on_c, 0, 77, 0
2, 36704, Note_on_c, 0, 79, 77
2, 36734, Note_on_c, 0, 79, 0
2, 36736, Note_on_c, 0, 77, 77
2, 36766, Note_on_c, 0, 77, 0
2, 36768, Note_on_c, 0, 75, 76
2, 36798, Note_on_c, 0, 75, 0
2, 36800, Note_on_c, 0, 74, 76
2, 36830, Note_on_c, 0, 74, 0
2, 36832, Note_on_c, 0, 73, 75
2, 36862, Note_on_c, 0, 73, 0
2, 36864, Note_on_c, 0, 74, 75
2, 36894, Note_on_c, 0, 74, 0
2, 36896, Note_on_c, 0, 82, 75
2, 36926, Note_on_c, 0, 82, 0
2, 36928, Note_on_c, 0, 81, 76
2, 36958, Note_on_c, 0, 81, 0
2, 36960, Note_on_c, 0, 79, 77
2, 36990, Note_on_c, 0, 79, 0
2, 36992, Note_on_c, 0, 86, 78
2, 37022, Note_on_c, 0, 86, 0
2, 37024, Note_on_c, 0, 84, 80
2, 37054, Note_on_c, 0, 84, 0
2, 37056, Note_on_c, 0, 82, 81
2, 37086, Note_on_c, 0, 82, 0
2, 37088, Note_on_c, 0, 81, 81
2, 37118, Note_on_c, 0, 81, 0
2, 37120, Note_on_c, 0, 79, 80
2, 37150, Note_on_c, 0, 79, 0
2, 37152, Note_on_c, 0, 77, 79
2, 37182, Note_on_c, 0, 77, 0
2, 37184, Note_on_c, 0, 76, 78
2, 37214, Note_on_c, 0, 76, 0
2, 37216, Note_on_c, 0, 74, 76
2, 37246, Note_on_c, 0, 74, 0
2, 37248, Note_on_c, 0, 72, 75
2, 37470, Note_on_c, 0, 72, 0
2, 37472, Note_on_c, 0, 72, 79
2, 37502, Note_on_c, 0, 72, 0
2, 37504, Note_on_c, 0, 73, 79
2, 37534, Note_on_c, 0, 73, 0
2, 37536, Note_on_c, 0, 74, 80
2, 37566, Note_on_c, 0, 74, 0
2, 37568, Note_on_c, 0, 75, 80
2, 37598, Note_on_c, 0, 75, 0
2, 37600, Note_on_c, 0, 76, 81
2, 37630, Note_on_c, 0, 76, 0
2, 37632, Note_on_c, 0, 77, 82
2, 37662, Note_on_c, 0, 77, 0
2, 37664, Note_on_c, 0, 72, 75
2, 37694, Note_on_c, 0, 72, 0
2, 37696, Note_on_c, 0, 73, 76
2, 37726, Note_on_c, 0, 73, 0
2, 37728, Note_on_c, 0, 74, 77
2, 37758, Note_on_c, 0, 74, 0
2, 37760, Note_on_c, 0, 75, 78
2, 37790, Note_on_c, 0, 75, 0
2, 37792, Note_on_c, 0, 76, 79
2, 37822, Note_on_c, 0, 76, 0
2, 37824, Note_on_c, 0, 77, 80
2, 37854, Note_on_c, 0, 77, 0
2, 37856, Note_on_c, 0, 72, 82
2, 37886, Note_on_c, 0, 72, 0
2, 37888, Note_on_c, 0, 73, 82
2, 37918, Note_on_c, 0, 73, 0
2, 37920, Note_on_c, 0, 74, 82
2, 37950, Note_on_c, 0, 74, 0
2, 37952, Note_on_c, 0, 75, 82
2, 37982, Note_on_c, 0, 75, 0
2, 37984, Note_on_c, 0, 76, 83
2, 38014, Note_on_c, 0, 76, 0
2, 38016, Note_on_c, 0, 77, 83
2, 38046, Note_on_c, 0, 77, 0
2, 38048, Note_on_c, 0, 72, 83
2, 38078, Note_on_c, 0, 72, 0
2, 38080, Note_on_c, 0, 73, 84
2, 38110, Note_on_c, 0, 73, 0
2, 38112, Note_on_c, 0, 74, 84
2, 38142, Note_on_c, 0, 74, 0
2, 38144, Note_on_c, 0, 75, 84
2, 38174, Note_on_c, 0, 75, 0
2, 38176, Note_on_c, 0, 76, 85
2, 38206, Note_on_c, 0, 76, 0
2, 38208, Note_on_c, 0, 77, 85
2, 38238, Note_on_c, 0, 77, 0
2, 38240, Note_on_c, 0, 78, 85
2, 38270, Note_on_c, 0, 78, 0
2, 38272, Note_on_c, 0, 79, 86
2, 38302, Note_on_c, 0, 79, 0
2, 38304, Note_on_c, 0, 80, 86
2, 38334, Note_on_c, 0, 80, 0
2, 38336, Note_on_c, 0, 81, 86
2, 38366, Note_on_c, 0, 81, 0
2, 38368, Note_on_c, 0, 82, 87
2, 38398, Note_on_c, 0, 82, 0
2, 38400, Note_on_c, 0, 83, 87
2, 38430, Note_on_c, 0, 83, 0
2, 38432, Note_on_c, 0, 84, 87
2, 38462, Note_on_c, 0, 84, 0
2, 38464, Note_on_c, 0, 85, 88
2, 38494, Note_on_c, 0, 85, 0
2, 38496, Note_on_c, 0, 86, 88
2, 38526, Note_on_c, 0, 86, 0
2, 38528, Note_on_c, 0, 87, 88
2, 38558, Note_on_c, 0, 87, 0
2, 38560, Note_on_c, 0, 88, 89
2, 38590, Note_on_c, 0, 88, 0
2, 38592, Note_on_c, 0, 89, 106
2, 38688, Note_on_c, 0, 89, 0
2, 38688, Note_on_c, 0, 71, 82
2, 38777, Note_on_c, 0, 71, 0
2, 38784, Control_c, 0, 64, 127
2, 38784, Note_on_c, 0, 72, 82
2, 38796, Note_on_c, 0, 72, 0
2, 38796, Note_on_c, 0, 77, 82
2, 38808, Note_on_c, 0, 77, 0
2, 38808, Note_on_c, 0, 81, 82
2, 38820, Note_on_c, 0, 81, 0
2, 38820, Note_on_c, 0, 84, 98
2, 38880, Note_on_c, 0, 84, 0
2, 38880, Control_c, 0, 64, 0
2, 38880, Note_on_c, 0, 82, 82
2, 38903, Note_on_c, 0, 82, 0
2, 38904, Note_on_c, 0, 81, 82
2, 38927, Note_on_c, 0, 81, 0
2, 38928, Note_on_c, 0, 79, 82
2, 38951, Note_on_c, 0, 79, 0
2, 38952, Note_on_c, 0, 77, 82
2, 38975, Note_on_c, 0, 77, 0
2, 38976, Note_on_c, 0, 81, 82
2, 38991, Note_on_c, 0, 81, 0
2, 38992, Note_on_c, 0, 79, 82
2, 39007, Note_on_c, 0, 79, 0
2, 39008, Note_on_c, 0, 81, 82
2, 39023, Note_on_c, 0, 81, 0
2, 39024, Note_on_c, 0, 79, 82
2, 39039, Note_on_c, 0, 79, 0
2, 39040, Note_on_c, 0, 81, 82
2, 39055, Note_on_c, 0, 81, 0
2, 39056, Note_on_c, 0, 79, 82
2, 39071, Note_on_c, 0, 79, 0
2, 39072, Note_on_c, 0, 81, 82
2, 39087, Note_on_c, 0, 81, 0
2, 39088, Note_on_c, 0, 79, 82
2, 39103, Note_on_c, 0, 79, 0
2, 39104, Note_on_c, 0, 77, 82
2, 39135, Note_on_c, 0, 77, 0
2, 39136, Note_on_c, 0, 79, 82
2, 39167, Note_on_c, 0, 79, 0
2, 39168, Note_on_c, 0, 77, 82
2, 39257, Note_on_c, 0, 77, 0
2, 39360, Note_on_c, 0, 82, 82
2, 39360, Note_on_c, 0, 70, 82
2, 39380, Note_on_c, 0, 82, 0
2, 39380, Note_on_c, 0, 70, 0
2, 39456, Note_on_c, 0, 81, 82
2, 39456, Note_on_c, 0, 69, 82
2, 39476, Note_on_c, 0, 81, 0
2, 39476, Note_on_c, 0, 69, 0
2, 39552, Note_on_c, 0, 86, 115
2, 39552, Note_on_c, 0, 74, 115
2, 39817, Note_on_c, 0, 86, 0
2, 39817, Note_on_c, 0, 74, 0
2, 39840, Note_on_c, 0, 76, 66
2, 39907, Note_on_c, 0, 76, 0
2, 39912, Note_on_c, 0, 86, 66
2, 39935, Note_on_c, 0, 86, 0
2, 39936, Note_on_c, 0, 77, 66
2, 40003, Note_on_c, 0, 77, 0
2, 40008, Note_on_c, 0, 84, 66
2, 40031, Note_on_c, 0, 84, 0
2, 40032, Note_on_c, 0, 79, 66
2, 40099, Note_on_c, 0, 79, 0
2, 40104, Note_on_c, 0, 82, 66
2, 40127, Note_on_c, 0, 82, 0
2, 40128, Note_on_c, 0, 77, 66
2, 40195, Note_on_c, 0, 77, 0
2, 40200, Note_on_c, 0, 81, 66
2, 40223, Note_on_c, 0, 81, 0
2, 40224, Note_on_c, 0, 76, 66
2, 40291, Note_on_c, 0, 76, 0
2, 40296, Note_on_c, 0, 79, 66
2, 40319, Note_on_c, 0, 79, 0
2, 40320, Note_on_c, 0, 77, 66
2, 40409, Note_on_c, 0, 77, 0
2, 40512, Note_on_c, 0, 82, 82
2, 40512, Note_on_c, 0, 70, 82
2, 40532, Note_on_c, 0, 82, 0
2, 40532, Note_on_c, 0, 70, 0
2, 40608, Note_on_c, 0, 81, 82
2, 40608, Note_on_c, 0, 69, 82
2, 40628, Note_on_c, 0, 81, 0
2, 40628, Note_on_c, 0, 69, 0
2, 40704, Note_on_c, 0, 86, 115
2, 40704, Note_on_c, 0, 74, 115
2, 40969, Note_on_c, 0, 86, 0
2, 40969, Note_on_c, 0, 74, 0
2, 40992, Note_on_c, 0, 76, 82
2, 41022, Note_on_c, 0, 76, 0
2, 41024, Note_on_c, 0, 79, 81
2, 41054, Note_on_c, 0, 79, 0
2, 41056, Note_on_c, 0, 86, 80
2, 41086, Note_on_c, 0, 86, 0
2, 41088, Note_on_c, 0, 77, 79
2, 41118, Note_on_c, 0, 77, 0
2, 41120, Note_on_c, 0, 81, 78
2, 41150, Note_on_c, 0, 81, 0
2, 41152, Note_on_c, 0, 84, 77
2, 41182, Note_on_c, 0, 84, 0
2, 41184, Note_on_c, 0, 74, 76
2, 41214, Note_on_c, 0, 74, 0
2, 41216, Note_on_c, 0, 82, 75
2, 41246, Note_on_c, 0, 82, 0
2, 41248, Note_on_c, 0, 79, 74
2, 41278, Note_on_c, 0, 79, 0
2, 41280, Note_on_c, 0, 77, 73
2, 41369, Note_on_c, 0, 77, 0
2, 41376, Note_on_c, 0, 76, 69
2, 41389, Note_on_c, 0, 76, 0
2, 41390, Note_on_c, 0, 77, 69
2, 41403, Note_on_c, 0, 77, 0
2, 41404, Note_on_c, 0, 76, 69
2, 41417, Note_on_c, 0, 76, 0
2, 41418, Note_on_c, 0, 77, 68
2, 41431, Note_on_c, 0, 77, 0
2, 41432, Note_on_c, 0, 76, 68
2, 41445, Note_on_c, 0, 76, 0
2, 41446, Note_on_c, 0, 74, 67
2, 41458, Note_on_c, 0, 74, 0
2, 41459, Note_on_c, 0, 76, 67
2, 41471, Note_on_c, 0, 76, 0
2, 41472, Note_on_c, 0, 77, 66
2, 41502, Note_on_c, 0, 77, 0
2, 41504, Note_on_c, 0, 72, 65
2, 41534, Note_on_c, 0, 72, 0
2, 41536, Note_on_c, 0, 81, 64
2, 41566, Note_on_c, 0, 81, 0
2, 41568, Note_on_c, 0, 77, 63
2, 41598, Note_on_c, 0, 77, 0
2, 41600, Note_on_c, 0, 72, 62
2, 41630, Note_on_c, 0, 72, 0
2, 41632, Note_on_c, 0, 81, 62
2, 41662, Note_on_c, 0, 81, 0
2, 41664, Note_on_c, 0, 77, 61
2, 41694, Note_on_c, 0, 77, 0
2, 41696, Note_on_c, 0, 72, 60
2, 41726, Note_on_c, 0, 72, 0
2, 41728, Note_on_c, 0, 81, 59
2, 41758, Note_on_c, 0, 81, 0
2, 41760, Note_on_c, 0, 77, 58
2, 41790, Note_on_c, 0, 77, 0
2, 41792, Note_on_c, 0, 72, 58
2, 41822, Note_on_c, 0, 72, 0
2, 41824, Note_on_c, 0, 81, 57
2, 41854, Note_on_c, 0, 81, 0
2, 41856, Note_on_c, 0, 77, 56
2, 41950, Note_on_c, 0, 77, 0
2, 42240, Note_on_c, 0, 61, 82
2, 42270, Note_on_c, 0, 61, 0
2, 42272, Note_on_c, 0, 56, 82
2, 42302, Note_on_c, 0, 56, 0
2, 42304, Note_on_c, 0, 65, 82
2, 42334, Note_on_c, 0, 65, 0
2, 42336, Note_on_c, 0, 61, 82
2, 42366, Note_on_c, 0, 61, 0
2, 42368, Note_on_c, 0, 56, 82
2, 42398, Note_on_c, 0, 56, 0
2, 42400, Note_on_c, 0, 65, 82
2, 42430, Note_on_c, 0, 65, 0
2, 42432, Note_on_c, 0, 61, 82
2, 42462, Note_on_c, 0, 61, 0
2, 42464, Note_on_c, 0, 56, 82
2, 42494, Note_on_c, 0, 56, 0
2, 42496, Note_on_c, 0, 65, 82
2, 42526, Note_on_c, 0, 65, 0
2, 42528, Note_on_c, 0, 61, 82
2, 42558, Note_on_c, 0, 61, 0
2, 42560, Note_on_c, 0, 56, 82
2, 42590, Note_on_c, 0, 56, 0
2, 42592, Note_on_c, 0, 65, 82
2, 42622, Note_on_c, 0, 65, 0
2, 42624, Note_on_c, 0, 61, 82
2, 42713, Note_on_c, 0, 61, 0
2, 43008, Note_on_c, 0, 68, 56
2, 43038, Note_on_c, 0, 68, 0
2, 43040, Note_on_c, 0, 65, 56
2, 43070, Note_on_c, 0, 65, 0
2, 43072, Note_on_c, 0, 74, 56
2, 43102, Note_on_c, 0, 74, 0
2, 43104, Note_on_c, 0, 68, 56
2, 43134, Note_on_c, 0, 68, 0
2, 43136, Note_on_c, 0, 65, 56
2, 43166, Note_on_c, 0, 65, 0
2, 43168, Note_on_c, 0, 74, 56
2, 43198, Note_on_c, 0, 74, 0
2, 43200, Note_on_c, 0, 68, 56
2, 43230, Note_on_c, 0, 68, 0
2, 43232, Note_on_c, 0, 65, 56
2, 43262, Note_on_c, 0, 65, 0
2, 43264, Note_on_c, 0, 74, 56
2, 43294, Note_on_c, 0, 74, 0
2, 43296, Note_on_c, 0, 68, 56
2, 43326, Note_on_c, 0, 68, 0
2, 43328, Note_on_c, 0, 65, 56
2, 43358, Note_on_c, 0, 65, 0
2, 43360, Note_on_c, 0, 74, 56
2, 43390, Note_on_c, 0, 74, 0
2, 43392, Note_on_c, 0, 68, 56
2, 43481, Note_on_c, 0, 68, 0
2, 43776, Control_c, 0, 64, 127
2, 43776, Note_on_c, 0, 79, 82
2, 43788, Note_on_c, 0, 79, 0
2, 43788, Note_on_c, 0, 82, 82
2, 43800, Note_on_c, 0, 82, 0
2, 43800, Note_on_c, 0, 87, 82
2, 43939, Note_on_c, 0, 87, 0
2, 43944, Control_c, 0, 64, 0
2, 43944, Note_on_c, 0, 86, 82
2, 43968, Note_on_c, 0, 86, 0
2, 43968, Note_on_c, 0, 84, 82
2, 43988, Note_on_c, 0, 84, 0
2, 44040, Note_on_c, 0, 82, 80
2, 44064, Note_on_c, 0, 82, 0
2, 44064, Note_on_c, 0, 80, 80
2, 44084, Note_on_c, 0, 80, 0
2, 44136, Note_on_c, 0, 79, 78
2, 44159, Note_on_c, 0, 79, 0
2, 44160, Note_on_c, 0, 77, 78
2, 44293, Note_on_c, 0, 77, 0
2, 44304, Note_on_c, 0, 77, 75
2, 44327, Note_on_c, 0, 77, 0
2, 44328, Note_on_c, 0, 79, 75
2, 44351, Note_on_c, 0, 79, 0
2, 44352, Note_on_c, 0, 80, 76
2, 44419, Note_on_c, 0, 80, 0
2, 44424, Note_on_c, 0, 79, 78
2, 44436, Note_on_c, 0, 79, 0
2, 44436, Note_on_c, 0, 80, 78
2, 44448, Note_on_c, 0, 80, 0
2, 44448, Note_on_c, 0, 82, 79
2, 44515, Note_on_c, 0, 82, 0
2, 44520, Note_on_c, 0, 80, 81
2, 44532, Note_on_c, 0, 80, 0
2, 44532, Note_on_c, 0, 82, 81
2, 44544, Note_on_c, 0, 82, 0
2, 44544, Note_on_c, 0, 84, 75
2, 44685, Note_on_c, 0, 84, 0
2, 44712, Note_on_c, 0, 82, 71
2, 44736, Note_on_c, 0, 82, 0
2, 44736, Note_on_c, 0, 80, 70
2, 44756, Note_on_c, 0, 80, 0
2, 44808, Note_on_c, 0, 79, 68
2, 44832, Note_on_c, 0, 79, 0
2, 44832, Note_on_c, 0, 77, 68
2, 44852, Note_on_c, 0, 77, 0
2, 44904, Note_on_c, 0, 75, 66
2, 44928, Note_on_c, 0, 75, 0
2, 44928, Note_on_c, 0, 74, 66
2, 44967, Note_on_c, 0, 74, 0
2, 45024, Note_on_c, 0, 80, 99
2, 45216, Note_on_c, 0, 80, 0
2, 45216, Note_on_c, 0, 79, 66
2, 45305, Note_on_c, 0, 79, 0
2, 45312, Note_on_c, 0, 77, 66
2, 45351, Note_on_c, 0, 77, 0
2, 45408, Note_on_c, 0, 84, 99
2, 45600, Note_on_c, 0, 84, 0
2, 45600, Note_on_c, 0, 82, 66
2, 45689, Note_on_c, 0, 82, 0
2, 45728, Note_on_c, 0, 79, 56
2, 45760, Note_on_c, 0, 79, 0
2, 45760, Note_on_c, 0, 80, 58
2, 45790, Note_on_c, 0, 80, 0
2, 45824, Note_on_c, 0, 78, 62
2, 45856, Note_on_c, 0, 78, 0
2, 45856, Note_on_c, 0, 79, 64
2, 45886, Note_on_c, 0, 79, 0
2, 45920, Note_on_c, 0, 76, 68
2, 45952, Note_on_c, 0, 76, 0
2, 45952, Note_on_c, 0, 77, 70
2, 45982, Note_on_c, 0, 77, 0
2, 46016, Note_on_c, 0, 74, 74
2, 46048, Note_on_c, 0, 74, 0
2, 46048, Note_on_c, 0, 75, 76
2, 46078, Note_on_c, 0, 75, 0
2, 46112, Note_on_c, 0, 77, 82
2, 46142, Note_on_c, 0, 77, 0
2, 46144, Note_on_c, 0, 79, 82
2, 46174, Note_on_c, 0, 79, 0
2, 46176, Note_on_c, 0, 80, 82
2, 46206, Note_on_c, 0, 80, 0
2, 46208, Note_on_c, 0, 82, 82
2, 46238, Note_on_c, 0, 82, 0
2, 46240, Note_on_c, 0, 84, 82
2, 46270, Note_on_c, 0, 84, 0
2, 46272, Note_on_c, 0, 82, 82
2, 46302, Note_on_c, 0, 82, 0
2, 46304, Note_on_c, 0, 80, 81
2, 46334, Note_on_c, 0, 80, 0
2, 46336, Note_on_c, 0, 79, 81
2, 46366, Note_on_c, 0, 79, 0
2, 46368, Note_on_c, 0, 77, 81
2, 46398, Note_on_c, 0, 77, 0
2, 46400, Note_on_c, 0, 75, 80
2, 46430, Note_on_c, 0, 75, 0
2, 46432, Note_on_c, 0, 74, 80
2, 46462, Note_on_c, 0, 74, 0
2, 46464, Note_on_c, 0, 75, 80
2, 46494, Note_on_c, 0, 75, 0
2, 46496, Note_on_c, 0, 79, 79
2, 46526, Note_on_c, 0, 79, 0
2, 46528, Note_on_c, 0, 77, 79
2, 46558, Note_on_c, 0, 77, 0
2, 46560, Note_on_c, 0, 75, 79
2, 46590, Note_on_c, 0, 75, 0
2, 46592, Note_on_c, 0, 74, 78
2, 46622, Note_on_c, 0, 74, 0
2, 46624, Note_on_c, 0, 72, 78
2, 46654, Note_on_c, 0, 72, 0
2, 46656, Note_on_c, 0, 70, 78
2, 46686, Note_on_c, 0, 70, 0
2, 46688, Note_on_c, 0, 68, 77
2, 46718, Note_on_c, 0, 68, 0
2, 46720, Note_on_c, 0, 67, 77
2, 46750, Note_on_c, 0, 67, 0
2, 46752, Note_on_c, 0, 65, 77
2, 46782, Note_on_c, 0, 65, 0
2, 46784, Note_on_c, 0, 63, 77
2, 46814, Note_on_c, 0, 63, 0
2, 46816, Note_on_c, 0, 62, 76
2, 46846, Note_on_c, 0, 62, 0
2, 46848, Note_on_c, 0, 63, 76
2, 46937, Note_on_c, 0, 63, 0
2, 46944, Note_on_c, 0, 79, 108
2, 47033, Note_on_c, 0, 79, 0
2, 47088, Note_on_c, 0, 79, 75
2, 47133, Note_on_c, 0, 79, 0
2, 47136, Note_on_c, 0, 81, 75
2, 47148, Note_on_c, 0, 81, 0
2, 47148, Note_on_c, 0, 79, 75
2, 47160, Note_on_c, 0, 79, 0
2, 47160, Note_on_c, 0, 77, 75
2, 47172, Note_on_c, 0, 77, 0
2, 47172, Note_on_c, 0, 79, 75
2, 47203, Note_on_c, 0, 79, 0
2, 47208, Note_on_c, 0, 81, 75
2, 47231, Note_on_c, 0, 81, 0
2, 47232, Note_on_c, 0, 82, 75
2, 47321, Note_on_c, 0, 82, 0
2, 47328, Note_on_c, 0, 82, 108
2, 47491, Note_on_c, 0, 82, 0
2, 47496, Note_on_c, 0, 81, 75
2, 47519, Note_on_c, 0, 81, 0
2, 47520, Note_on_c, 0, 79, 75
2, 47587, Note_on_c, 0, 79, 0
2, 47592, Note_on_c, 0, 77, 75
2, 47615, Note_on_c, 0, 77, 0
2, 47616, Note_on_c, 0, 77, 75
2, 47749, Note_on_c, 0, 77, 0
2, 47760, Note_on_c, 0, 74, 75
2, 47783, Note_on_c, 0, 74, 0
2, 47784, Note_on_c, 0, 75, 75
2, 47807, Note_on_c, 0, 75, 0
2, 47808, Note_on_c, 0, 77, 75
2, 47823, Note_on_c, 0, 77, 0
2, 47824, Note_on_c, 0, 75, 75
2, 47839, Note_on_c, 0, 75, 0
2, 47840, Note_on_c, 0, 77, 75
2, 47855, Note_on_c, 0, 77, 0
2, 47856, Note_on_c, 0, 75, 75
2, 47871, Note_on_c, 0, 75, 0
2, 47872, Note_on_c, 0, 77, 75
2, 47887, Note_on_c, 0, 77, 0
2, 47888, Note_on_c, 0, 75, 75
2, 47903, Note_on_c, 0, 75, 0
2, 47904, Note_on_c, 0, 77, 75
2, 47919, Note_on_c, 0, 77, 0
2, 47920, Note_on_c, 0, 75, 75
2, 47935, Note_on_c, 0, 75, 0
2, 47936, Note_on_c, 0, 74, 75
2, 47967, Note_on_c, 0, 74, 0
2, 47968, Note_on_c, 0, 75, 75
2, 47999, Note_on_c, 0, 75, 0
2, 48000, Note_on_c, 0, 74, 91
2, 48096, Note_on_c, 0, 74, 0
2, 48096, Note_on_c, 0, 74, 75
2, 48185, Note_on_c, 0, 74, 0
2, 48224, Note_on_c, 0, 74, 75
2, 48254, Note_on_c, 0, 74, 0
2, 48256, Note_on_c, 0, 75, 75
2, 48286, Note_on_c, 0, 75, 0
2, 48288, Note_on_c, 0, 77, 75
2, 48318, Note_on_c, 0, 77, 0
2, 48320, Note_on_c, 0, 75, 75
2, 48350, Note_on_c, 0, 75, 0
2, 48352, Note_on_c, 0, 74, 75
2, 48382, Note_on_c, 0, 74, 0
2, 48384, Note_on_c, 0, 72, 75
2, 48414, Note_on_c, 0, 72, 0
2, 48416, Note_on_c, 0, 75, 75
2, 48446, Note_on_c, 0, 75, 0
2, 48448, Note_on_c, 0, 74, 76
2, 48478, Note_on_c, 0, 74, 0
2, 48480, Note_on_c, 0, 72, 76
2, 48510, Note_on_c, 0, 72, 0
2, 48512, Note_on_c, 0, 75, 77
2, 48542, Note_on_c, 0, 75, 0
2, 48544, Note_on_c, 0, 77, 77
2, 48574, Note_on_c, 0, 77, 0
2, 48576, Note_on_c, 0, 79, 78
2, 48606, Note_on_c, 0, 79, 0
2, 48608, Note_on_c, 0, 77, 78
2, 48638, Note_on_c, 0, 77, 0
2, 48640, Note_on_c, 0, 75, 79
2, 48670, Note_on_c, 0, 75, 0
2, 48672, Note_on_c, 0, 74, 79
2, 48702, Note_on_c, 0, 74, 0
2, 48704, Note_on_c, 0, 72, 80
2, 48734, Note_on_c, 0, 72, 0
2, 48736, Note_on_c, 0, 70, 80
2, 48766, Note_on_c, 0, 70, 0
2, 48768, Note_on_c, 0, 69, 81
2, 48798, Note_on_c, 0, 69, 0
2, 48800, Note_on_c, 0, 72, 82
2, 48830, Note_on_c, 0, 72, 0
2, 48832, Note_on_c, 0, 70, 82
2, 48862, Note_on_c, 0, 70, 0
2, 48864, Note_on_c, 0, 74, 82
2, 48894, Note_on_c, 0, 74, 0
2, 48896, Note_on_c, 0, 72, 82
2, 48926, Note_on_c, 0, 72, 0
2, 48928, Note_on_c, 0, 75, 82
2, 48958, Note_on_c, 0, 75, 0
2, 48960, Note_on_c, 0, 74, 82
2, 48990, Note_on_c, 0, 74, 0
2, 48992, Note_on_c, 0, 77, 82
2, 49022, Note_on_c, 0, 77, 0
2, 49024, Note_on_c, 0, 75, 82
2, 49054, Note_on_c, 0, 75, 0
2, 49056, Note_on_c, 0, 74, 82
2, 49086, Note_on_c, 0, 74, 0
2, 49088, Note_on_c, 0, 72, 82
2, 49118, Note_on_c, 0, 72, 0
2, 49120, Note_on_c, 0, 70, 82
2, 49150, Note_on_c, 0, 70, 0
2, 49152, Note_on_c, 0, 69, 82
2, 49182, Note_on_c, 0, 69, 0
2, 49184, Note_on_c, 0, 72, 82
2, 49214, Note_on_c, 0, 72, 0
2, 49216, Note_on_c, 0, 70, 82
2, 49246, Note_on_c, 0, 70, 0
2, 49248, Note_on_c, 0, 74, 82
2, 49278, Note_on_c, 0, 74, 0
2, 49280, Note_on_c, 0, 72, 82
2, 49310, Note_on_c, 0, 72, 0
2, 49312, Note_on_c, 0, 75, 82
2, 49342, Note_on_c, 0, 75, 0
2, 49344, Note_on_c, 0, 74, 82
2, 49374, Note_on_c, 0, 74, 0
2, 49376, Note_on_c, 0, 77, 82
2, 49406, Note_on_c, 0, 77, 0
2, 49408, Note_on_c, 0, 75, 82
2, 49438, Note_on_c, 0, 75, 0
2, 49440, Note_on_c, 0, 74, 82
2, 49470, Note_on_c, 0, 74, 0
2, 49472, Note_on_c, 0, 72, 82
2, 49502, Note_on_c, 0, 72, 0
2, 49504, Note_on_c, 0, 70, 82
2, 49534, Note_on_c, 0, 70, 0
2, 49536, Note_on_c, 0, 69, 82
2, 49566, Note_on_c, 0, 69, 0
2, 49568, Note_on_c, 0, 72, 82
2, 49598, Note_on_c, 0, 72, 0
2, 49600, Note_on_c, 0, 70, 82
2, 49630, Note_on_c, 0, 70, 0
2, 49632, Note_on_c, 0, 74, 82
2, 49662, Note_on_c, 0, 74, 0
2, 49664, Note_on_c, 0, 72, 82
2, 49694, Note_on_c, 0, 72, 0
2, 49696, Note_on_c, 0, 75, 82
2, 49726, Note_on_c, 0, 75, 0
2, 49728, Note_on_c, 0, 74, 82
2, 49758, Note_on_c, 0, 74, 0
2, 49760, Note_on_c, 0, 72, 82
2, 49790, Note_on_c, 0, 72, 0
2, 49792, Note_on_c, 0, 81, 82
2, 49822, Note_on_c, 0, 81, 0
2, 49824, Note_on_c, 0, 79, 82
2, 49854, Note_on_c, 0, 79, 0
2, 49856, Note_on_c, 0, 78, 82
2, 49886, Note_on_c, 0, 78, 0
2, 49888, Note_on_c, 0, 84, 82
2, 49918, Note_on_c, 0, 84, 0
2, 49920, Note_on_c, 0, 82, 82
2, 49950, Note_on_c, 0, 82, 0
2, 49952, Note_on_c, 0, 81, 82
2, 49982, Note_on_c, 0, 81, 0
2, 49984, Note_on_c, 0, 87, 82
2, 50014, Note_on_c, 0, 87, 0
2, 50016, Note_on_c, 0, 86, 82
2, 50046, Note_on_c, 0, 86, 0
2, 50048, Note_on_c, 0, 84, 82
2, 50078, Note_on_c, 0, 84, 0
2, 50080, Note_on_c, 0, 82, 82
2, 50110, Note_on_c, 0, 82, 0
2, 50112, Note_on_c, 0, 81, 82
2, 50142, Note_on_c, 0, 81, 0
2, 50144, Note_on_c, 0, 79, 82
2, 50174, Note_on_c, 0, 79, 0
2, 50176, Note_on_c, 0, 78, 82
2, 50206, Note_on_c, 0, 78, 0
2, 50208, Note_on_c, 0, 81, 82
2, 50238, Note_on_c, 0, 81, 0
2, 50240, Note_on_c, 0, 78, 82
2, 50270, Note_on_c, 0, 78, 0
2, 50272, Note_on_c, 0, 72, 82
2, 50302, Note_on_c, 0, 72, 0
2, 50304, Note_on_c, 0, 70, 82
2, 50393, Note_on_c, 0, 70, 0
2, 50400, Note_on_c, 0, 86, 115
2, 50563, Note_on_c, 0, 86, 0
2, 50568, Note_on_c, 0, 78, 82
2, 50591, Note_on_c, 0, 78, 0
2, 50592, Note_on_c, 0, 78, 82
2, 50605, Note_on_c, 0, 78, 0
2, 50606, Note_on_c, 0, 79, 82
2, 50619, Note_on_c, 0, 79, 0
2, 50620, Note_on_c, 0, 78, 82
2, 50633, Note_on_c, 0, 78, 0
2, 50634, Note_on_c, 0, 79, 82
2, 50647, Note_on_c, 0, 79, 0
2, 50648, Note_on_c, 0, 78, 82
2, 50661, Note_on_c, 0, 78, 0
2, 50662, Note_on_c, 0, 75, 82
2, 50674, Note_on_c, 0, 75, 0
2, 50675, Note_on_c, 0, 78, 82
2, 50687, Note_on_c, 0, 78, 0
2, 50688, Note_on_c, 0, 79, 82
2, 50784, Note_on_c, 0, 79, 0
2, 50784, Note_on_c, 0, 82, 82
2, 50873, Note_on_c, 0, 82, 0
2, 50952, Note_on_c, 0, 81, 82
2, 50975, Note_on_c, 0, 81, 0
2, 50976, Note_on_c, 0, 81, 82
2, 50989, Note_on_c, 0, 81, 0
2, 50990, Note_on_c, 0, 82, 82
2, 51003, Note_on_c, 0, 82, 0
2, 51004, Note_on_c, 0, 81, 82
2, 51017, Note_on_c, 0, 81, 0
2, 51018, Note_on_c, 0, 82, 82
2, 51031, Note_on_c, 0, 82, 0
2, 51032, Note_on_c, 0, 81, 82
2, 51045, Note_on_c, 0, 81, 0
2, 51046, Note_on_c, 0, 79, 82
2, 51058, Note_on_c, 0, 79, 0
2, 51059, Note_on_c, 0, 81, 82
2, 51071, Note_on_c, 0, 81, 0
2, 51072, Note_on_c, 0, 82, 82
2, 51161, Note_on_c, 0, 82, 0
2, 51168, Note_on_c, 0, 86, 127
2, 51294, Note_on_c, 0, 86, 0
2, 51296, Note_on_c, 0, 84, 82
2, 51326, Note_on_c, 0, 84, 0
2, 51328, Note_on_c, 0, 82, 82
2, 51358, Note_on_c, 0, 82, 0
2, 51360, Note_on_c, 0, 81, 82
2, 51390, Note_on_c, 0, 81, 0
2, 51392, Note_on_c, 0, 79, 82
2, 51422, Note_on_c, 0, 79, 0
2, 51424, Note_on_c, 0, 78, 82
2, 51454, Note_on_c, 0, 78, 0
2, 51456, Note_on_c, 0, 79, 82
2, 51523, Note_on_c, 0, 79, 0
2, 51528, Note_on_c, 0, 79, 82
2, 51551, Note_on_c, 0, 79, 0
2, 51552, Note_on_c, 0, 79, 82
2, 51565, Note_on_c, 0, 79, 0
2, 51566, Note_on_c, 0, 81, 82
2, 51579, Note_on_c, 0, 81, 0
2, 51580, Note_on_c, 0, 79, 82
2, 51593, Note_on_c, 0, 79, 0
2, 51594, Note_on_c, 0, 81, 82
2, 51607, Note_on_c, 0, 81, 0
2, 51608, Note_on_c, 0, 79, 82
2, 51621, Note_on_c, 0, 79, 0
2, 51622, Note_on_c, 0, 78, 82
2, 51634, Note_on_c, 0, 78, 0
2, 51635, Note_on_c, 0, 79, 83
2, 51647, Note_on_c, 0, 79, 0
2, 51648, Note_on_c, 0, 81, 83
2, 51715, Note_on_c, 0, 81, 0
2, 51720, Note_on_c, 0, 81, 84
2, 51743, Note_on_c, 0, 81, 0
2, 51744, Note_on_c, 0, 81, 84
2, 51757, Note_on_c, 0, 81, 0
2, 51758, Note_on_c, 0, 82, 84
2, 51771, Note_on_c, 0, 82, 0
2, 51772, Note_on_c, 0, 81, 84
2, 51785, Note_on_c, 0, 81, 0
2, 51786, Note_on_c, 0, 82, 84
2, 51799, Note_on_c, 0, 82, 0
2, 51800, Note_on_c, 0, 81, 84
2, 51813, Note_on_c, 0, 81, 0
2, 51814, Note_on_c, 0, 79, 85
2, 51826, Note_on_c, 0, 79, 0
2, 51827, Note_on_c, 0, 81, 85
2, 51839, Note_on_c, 0, 81, 0
2, 51840, Note_on_c, 0, 82, 85
2, 51907, Note_on_c, 0, 82, 0
2, 51912, Note_on_c, 0, 82, 86
2, 51935, Note_on_c, 0, 82, 0
2, 51936, Note_on_c, 0, 82, 86
2, 51949, Note_on_c, 0, 82, 0
2, 51950, Note_on_c, 0, 84, 86
2, 51963, Note_on_c, 0, 84, 0
2, 51964, Note_on_c, 0, 82, 86
2, 51977, Note_on_c, 0, 82, 0
2, 51978, Note_on_c, 0, 84, 86
2, 51991, Note_on_c, 0, 84, 0
2, 51992, Note_on_c, 0, 82, 86
2, 52005, Note_on_c, 0, 82, 0
2, 52006, Note_on_c, 0, 81, 87
2, 52018, Note_on_c, 0, 81, 0
2, 52019, Note_on_c, 0, 82, 87
2, 52031, Note_on_c, 0, 82, 0
2, 52032, Note_on_c, 0, 84, 87
2, 52099, Note_on_c, 0, 84, 0
2, 52104, Note_on_c, 0, 84, 88
2, 52127, Note_on_c, 0, 84, 0
2, 52128, Note_on_c, 0, 84, 88
2, 52141, Note_on_c, 0, 84, 0
2, 52142, Note_on_c, 0, 86, 88
2, 52155, Note_on_c, 0, 86, 0
2, 52156, Note_on_c, 0, 84, 88
2, 52169, Note_on_c, 0, 84, 0
2, 52170, Note_on_c, 0, 86, 88
2, 52183, Note_on_c, 0, 86, 0
2, 52184, Note_on_c, 0, 84, 89
2, 52197, Note_on_c, 0, 84, 0
2, 52198, Note_on_c, 0, 82, 89
2, 52210, Note_on_c, 0, 82, 0
2, 52211, Note_on_c, 0, 84, 89
2, 52223, Note_on_c, 0, 84, 0
2, 52224, Note_on_c, 0, 86, 90
2, 52269, Note_on_c, 0, 86, 0
2, 52296, Note_on_c, 0, 86, 90
2, 52308, Note_on_c, 0, 86, 0
2, 52308, Note_on_c, 0, 84, 90
2, 52320, Note_on_c, 0, 84, 0
2, 52320, Note_on_c, 0, 82, 90
2, 52367, Note_on_c, 0, 82, 0
2, 52392, Note_on_c, 0, 82, 90
2, 52404, Note_on_c, 0, 82, 0
2, 52404, Note_on_c, 0, 81, 90
2, 52416, Note_on_c, 0, 81, 0
2, 52416, Note_on_c, 0, 79, 90
2, 52463, Note_on_c, 0, 79, 0
2, 52488, Note_on_c, 0, 82, 90
2, 52500, Note_on_c, 0, 82, 0
2, 52500, Note_on_c, 0, 81, 90
2, 52512, Note_on_c, 0, 81, 0
2, 52512, Note_on_c, 0, 79, 90
2, 52559, Note_on_c, 0, 79, 0
2, 52584, Note_on_c, 0, 79, 90
2, 52596, Note_on_c, 0, 79, 0
2, 52596, Note_on_c, 0, 77, 90
2, 52608, Note_on_c, 0, 77, 0
2, 52608, Note_on_c, 0, 75, 90
2, 52653, Note_on_c, 0, 75, 0
2, 52680, Note_on_c, 0, 79, 82
2, 52692, Note_on_c, 0, 79, 0
2, 52692, Note_on_c, 0, 77, 82
2, 52704, Note_on_c, 0, 77, 0
2, 52704, Note_on_c, 0, 75, 82
2, 52751, Note_on_c, 0, 75, 0
2, 52776, Note_on_c, 0, 75, 82
2, 52788, Note_on_c, 0, 75, 0
2, 52788, Note_on_c, 0, 74, 82
2, 52800, Note_on_c, 0, 74, 0
2, 52800, Note_on_c, 0, 72, 82
2, 52847, Note_on_c, 0, 72, 0
2, 52872, Note_on_c, 0, 72, 82
2, 52884, Note_on_c, 0, 72, 0
2, 52884, Note_on_c, 0, 70, 82
2, 52896, Note_on_c, 0, 70, 0
2, 52896, Note_on_c, 0, 69, 82
2, 52943, Note_on_c, 0, 69, 0
2, 52968, Note_on_c, 0, 69, 82
2, 52980, Note_on_c, 0, 69, 0
2, 52980, Note_on_c, 0, 67, 82
2, 52992, Note_on_c, 0, 67, 0
2, 52992, Note_on_c, 0, 66, 82
2, 53081, Note_on_c, 0, 66, 0
2, 53120, Note_on_c, 0, 55, 82
2, 53152, Note_on_c, 0, 55, 0
2, 53152, Note_on_c, 0, 67, 82
2, 53182, Note_on_c, 0, 67, 0
2, 53216, Note_on_c, 0, 57, 82
2, 53248, Note_on_c, 0, 57, 0
2, 53248, Note_on_c, 0, 67, 82
2, 53278, Note_on_c, 0, 67, 0
2, 53312, Note_on_c, 0, 57, 82
2, 53344, Note_on_c, 0, 57, 0
2, 53344, Note_on_c, 0, 66, 82
2, 53374, Note_on_c, 0, 66, 0
2, 53408, Note_on_c, 0, 67, 75
2, 53438, Note_on_c, 0, 67, 0
2, 53440, Note_on_c, 0, 68, 75
2, 53470, Note_on_c, 0, 68, 0
2, 53472, Note_on_c, 0, 69, 75
2, 53502, Note_on_c, 0, 69, 0
2, 53504, Note_on_c, 0, 70, 75
2, 53534, Note_on_c, 0, 70, 0
2, 53536, Note_on_c, 0, 71, 75
2, 53566, Note_on_c, 0, 71, 0
2, 53568, Note_on_c, 0, 72, 75
2, 53657, Note_on_c, 0, 72, 0
2, 53792, Note_on_c, 0, 67, 75
2, 53822, Note_on_c, 0, 67, 0
2, 53824, Note_on_c, 0, 68, 75
2, 53854, Note_on_c, 0, 68, 0
2, 53856, Note_on_c, 0, 69, 75
2, 53886, Note_on_c, 0, 69, 0
2, 53888, Note_on_c, 0, 70, 75
2, 53918, Note_on_c, 0, 70, 0
2, 53920, Note_on_c, 0, 71, 75
2, 53950, Note_on_c, 0, 71, 0
2, 53952, Note_on_c, 0, 72, 75
2, 54041, Note_on_c, 0, 72, 0
2, 54176, Note_on_c, 0, 69, 75
2, 54206, Note_on_c, 0, 69, 0
2, 54208, Note_on_c, 0, 70, 75
2, 54238, Note_on_c, 0, 70, 0
2, 54240, Note_on_c, 0, 71, 75
2, 54270, Note_on_c, 0, 71, 0
2, 54272, Note_on_c, 0, 72, 75
2, 54302, Note_on_c, 0, 72, 0
2, 54304, Note_on_c, 0, 74, 75
2, 54334, Note_on_c, 0, 74, 0
2, 54336, Note_on_c, 0, 75, 75
2, 54425, Note_on_c, 0, 75, 0
2, 54560, Note_on_c, 0, 72, 75
2, 54590, Note_on_c, 0, 72, 0
2, 54592, Note_on_c, 0, 73, 75
2, 54622, Note_on_c, 0, 73, 0
2, 54624, Note_on_c, 0, 74, 75
2, 54654, Note_on_c, 0, 74, 0
2, 54656, Note_on_c, 0, 75, 75
2, 54686, Note_on_c, 0, 75, 0
2, 54688, Note_on_c, 0, 76, 75
2, 54718, Note_on_c, 0, 76, 0
2, 54720, Note_on_c, 0, 77, 75
2, 54809, Note_on_c, 0, 77, 0
2, 54944, Note_on_c, 0, 77, 75
2, 54974, Note_on_c, 0, 77, 0
2, 54976, Note_on_c, 0, 78, 75
2, 55006, Note_on_c, 0, 78, 0
2, 55008, Note_on_c, 0, 79, 75
2, 55038, Note_on_c, 0, 79, 0
2, 55040, Note_on_c, 0, 80, 75
2, 55070, Note_on_c, 0, 80, 0
2, 55072, Note_on_c, 0, 81, 75
2, 55102, Note_on_c, 0, 81, 0
2, 55104, Note_on_c, 0, 82, 75
2, 55134, Note_on_c, 0, 82, 0
2, 55136, Note_on_c, 0, 81, 75
2, 55166, Note_on_c, 0, 81, 0
2, 55168, Note_on_c, 0, 82, 75
2, 55198, Note_on_c, 0, 82, 0
2, 55200, Note_on_c, 0, 86, 75
2, 55230, Note_on_c, 0, 86, 0
2, 55232, Note_on_c, 0, 82, 75
2, 55262, Note_on_c, 0, 82, 0
2, 55264, Note_on_c, 0, 77, 75
2, 55294, Note_on_c, 0, 77, 0
2, 55296, Note_on_c, 0, 78, 75
2, 55326, Note_on_c, 0, 78, 0
2, 55328, Note_on_c, 0, 79, 75
2, 55358, Note_on_c, 0, 79, 0
2, 55360, Note_on_c, 0, 82, 76
2, 55390, Note_on_c, 0, 82, 0
2, 55392, Note_on_c, 0, 74, 76
2, 55422, Note_on_c, 0, 74, 0
2, 55424, Note_on_c, 0, 75, 77
2, 55454, Note_on_c, 0, 75, 0
2, 55456, Note_on_c, 0, 79, 77
2, 55486, Note_on_c, 0, 79, 0
2, 55488, Note_on_c, 0, 71, 78
2, 55518, Note_on_c, 0, 71, 0
2, 55520, Note_on_c, 0, 72, 78
2, 55550, Note_on_c, 0, 72, 0
2, 55552, Note_on_c, 0, 75, 79
2, 55582, Note_on_c, 0, 75, 0
2, 55584, Note_on_c, 0, 67, 79
2, 55614, Note_on_c, 0, 67, 0
2, 55616, Note_on_c, 0, 72, 80
2, 55646, Note_on_c, 0, 72, 0
2, 55648, Note_on_c, 0, 70, 81
2, 55678, Note_on_c, 0, 70, 0
2, 55680, Note_on_c, 0, 69, 82
2, 55710, Note_on_c, 0, 69, 0
2, 55712, Note_on_c, 0, 72, 82
2, 55742, Note_on_c, 0, 72, 0
2, 55744, Note_on_c, 0, 70, 82
2, 55774, Note_on_c, 0, 70, 0
2, 55776, Note_on_c, 0, 74, 82
2, 55806, Note_on_c, 0, 74, 0
2, 55808, Note_on_c, 0, 72, 82
2, 55838, Note_on_c, 0, 72, 0
2, 55840, Note_on_c, 0, 75, 82
2, 55870, Note_on_c, 0, 75, 0
2, 55872, Note_on_c, 0, 74, 82
2, 55902, Note_on_c, 0, 74, 0
2, 55904, Note_on_c, 0, 77, 82
2, 55934, Note_on_c, 0, 77, 0
2, 55936, Note_on_c, 0, 75, 82
2, 55966, Note_on_c, 0, 75, 0
2, 55968, Note_on_c, 0, 79, 82
2, 55998, Note_on_c, 0, 79, 0
2, 56000, Note_on_c, 0, 77, 82
2, 56030, Note_on_c, 0, 77, 0
2, 56032, Note_on_c, 0, 75, 82
2, 56062, Note_on_c, 0, 75, 0
2, 56064, Note_on_c, 0, 74, 82
2, 56094, Note_on_c, 0, 74, 0
2, 56096, Note_on_c, 0, 72, 82
2, 56126, Note_on_c, 0, 72, 0
2, 56128, Note_on_c, 0, 70, 82
2, 56158, Note_on_c, 0, 70, 0
2, 56160, Note_on_c, 0, 69, 82
2, 56190, Note_on_c, 0, 69, 0
2, 56192, Note_on_c, 0, 72, 82
2, 56222, Note_on_c, 0, 72, 0
2, 56224, Note_on_c, 0, 70, 82
2, 56254, Note_on_c, 0, 70, 0
2, 56256, Note_on_c, 0, 74, 82
2, 56286, Note_on_c, 0, 74, 0
2, 56288, Note_on_c, 0, 72, 82
2, 56318, Note_on_c, 0, 72, 0
2, 56320, Note_on_c, 0, 75, 82
2, 56350, Note_on_c, 0, 75, 0
2, 56352, Note_on_c, 0, 74, 82
2, 56382, Note_on_c, 0, 74, 0
2, 56384, Note_on_c, 0, 77, 82
2, 56414, Note_on_c, 0, 77, 0
2, 56416, Note_on_c, 0, 75, 82
2, 56446, Note_on_c, 0, 75, 0
2, 56448, Note_on_c, 0, 79, 115
2, 56478, Note_on_c, 0, 79, 0
2, 56480, Note_on_c, 0, 77, 82
2, 56510, Note_on_c, 0, 77, 0
2, 56512, Note_on_c, 0, 75, 82
2, 56542, Note_on_c, 0, 75, 0
2, 56544, Note_on_c, 0, 74, 82
2, 56574, Note_on_c, 0, 74, 0
2, 56576, Note_on_c, 0, 72, 82
2, 56606, Note_on_c, 0, 72, 0
2, 56608, Note_on_c, 0, 70, 82
2, 56638, Note_on_c, 0, 70, 0
2, 56640, Note_on_c, 0, 69, 82
2, 56670, Note_on_c, 0, 69, 0
2, 56672, Note_on_c, 0, 72, 82
2, 56702, Note_on_c, 0, 72, 0
2, 56704, Note_on_c, 0, 70, 82
2, 56734, Note_on_c, 0, 70, 0
2, 56736, Note_on_c, 0, 74, 82
2, 56766, Note_on_c, 0, 74, 0
2, 56768, Note_on_c, 0, 72, 82
2, 56798, Note_on_c, 0, 72, 0
2, 56800, Note_on_c, 0, 75, 82
2, 56830, Note_on_c, 0, 75, 0
2, 56832, Note_on_c, 0, 74, 82
2, 56862, Note_on_c, 0, 74, 0
2, 56864, Note_on_c, 0, 77, 82
2, 56894, Note_on_c, 0, 77, 0
2, 56896, Note_on_c, 0, 75, 82
2, 56926, Note_on_c, 0, 75, 0
2, 56928, Note_on_c, 0, 79, 82
2, 56958, Note_on_c, 0, 79, 0
2, 56960, Note_on_c, 0, 77, 82
2, 56990, Note_on_c, 0, 77, 0
2, 56992, Note_on_c, 0, 81, 82
2, 57022, Note_on_c, 0, 81, 0
2, 57024, Note_on_c, 0, 79, 82
2, 57054, Note_on_c, 0, 79, 0
2, 57056, Note_on_c, 0, 82, 82
2, 57086, Note_on_c, 0, 82, 0
2, 57088, Note_on_c, 0, 81, 82
2, 57118, Note_on_c, 0, 81, 0
2, 57120, Note_on_c, 0, 84, 82
2, 57150, Note_on_c, 0, 84, 0
2, 57152, Note_on_c, 0, 82, 82
2, 57182, Note_on_c, 0, 82, 0
2, 57184, Note_on_c, 0, 86, 82
2, 57214, Note_on_c, 0, 86, 0
2, 57216, Note_on_c, 0, 84, 82
2, 57246, Note_on_c, 0, 84, 0
2, 57248, Note_on_c, 0, 87, 82
2, 57278, Note_on_c, 0, 87, 0
2, 57280, Note_on_c, 0, 86, 82
2, 57310, Note_on_c, 0, 86, 0
2, 57312, Note_on_c, 0, 89, 82
2, 57357, Note_on_c, 0, 89, 0
2, 57360, Note_on_c, 0, 87, 82
2, 57405, Note_on_c, 0, 87, 0
2, 57408, Note_on_c, 0, 86, 82
2, 57453, Note_on_c, 0, 86, 0
2, 57456, Note_on_c, 0, 84, 82
2, 57501, Note_on_c, 0, 84, 0
2, 57504, Note_on_c, 0, 82, 82
2, 57549, Note_on_c, 0, 82, 0
2, 57552, Note_on_c, 0, 81, 82
2, 57597, Note_on_c, 0, 81, 0
2, 57600, Note_on_c, 0, 80, 82
2, 57645, Note_on_c, 0, 80, 0
2, 57648, Note_on_c, 0, 79, 82
2, 57693, Note_on_c, 0, 79, 0
2, 57696, Note_on_c, 0, 78, 82
2, 57741, Note_on_c, 0, 78, 0
2, 57744, Note_on_c, 0, 77, 82
2, 57789, Note_on_c, 0, 77, 0
2, 57792, Note_on_c, 0, 76, 82
2, 57881, Note_on_c, 0, 76, 0
2, 57888, Note_on_c, 0, 75, 82
2, 57977, Note_on_c, 0, 75, 0
2, 57984, Control_c, 0, 64, 127
2, 57984, Note_on_c, 0, 74, 82
2, 58002, Note_on_c, 0, 74, 0
2, 58002, Note_on_c, 0, 77, 82
2, 58020, Note_on_c, 0, 77, 0
2, 58020, Note_on_c, 0, 82, 82
2, 58147, Note_on_c, 0, 82, 0
2, 58152, Control_c, 0, 64, 0
2, 58152, Note_on_c, 0, 81, 80
2, 58176, Note_on_c, 0, 81, 0
2, 58176, Note_on_c, 0, 79, 80
2, 58196, Note_on_c, 0, 79, 0
2, 58248, Note_on_c, 0, 77, 79
2, 58272, Note_on_c, 0, 77, 0
2, 58272, Note_on_c, 0, 75, 78
2, 58292, Note_on_c, 0, 75, 0
2, 58344, Note_on_c, 0, 74, 77
2, 58367, Note_on_c, 0, 74, 0
2, 58368, Note_on_c, 0, 72, 77
2, 58501, Note_on_c, 0, 72, 0
2, 58512, Note_on_c, 0, 72, 75
2, 58535, Note_on_c, 0, 72, 0
2, 58536, Note_on_c, 0, 74, 75
2, 58559, Note_on_c, 0, 74, 0
2, 58560, Note_on_c, 0, 75, 76
2, 58627, Note_on_c, 0, 75, 0
2, 58632, Note_on_c, 0, 74, 78
2, 58644, Note_on_c, 0, 74, 0
2, 58644, Note_on_c, 0, 75, 78
2, 58656, Note_on_c, 0, 75, 0
2, 58656, Note_on_c, 0, 77, 79
2, 58723, Note_on_c, 0, 77, 0
2, 58728, Note_on_c, 0, 75, 81
2, 58740, Note_on_c, 0, 75, 0
2, 58740, Note_on_c, 0, 77, 81
2, 58752, Note_on_c, 0, 77, 0
2, 58752, Note_on_c, 0, 79, 82
2, 58893, Note_on_c, 0, 79, 0
2, 58920, Note_on_c, 0, 77, 82
2, 58944, Note_on_c, 0, 77, 0
2, 58944, Note_on_c, 0, 75, 82
2, 58964, Note_on_c, 0, 75, 0
2, 59016, Note_on_c, 0, 74, 82
2, 59040, Note_on_c, 0, 74, 0
2, 59040, Note_on_c, 0, 72, 82
2, 59060, Note_on_c, 0, 72, 0
2, 59112, Note_on_c, 0, 70, 82
2, 59135, Note_on_c, 0, 70, 0
2, 59136, Note_on_c, 0, 69, 82
2, 59175, Note_on_c, 0, 69, 0
2, 59232, Note_on_c, 0, 75, 115
2, 59424, Note_on_c, 0, 75, 0
2, 59424, Note_on_c, 0, 74, 82
2, 59513, Note_on_c, 0, 74, 0
2, 59520, Note_on_c, 0, 72, 82
2, 59559, Note_on_c, 0, 72, 0
2, 59616, Note_on_c, 0, 79, 115
2, 59808, Note_on_c, 0, 79, 0
2, 59808, Note_on_c, 0, 77, 82
2, 59897, Note_on_c, 0, 77, 0
2, 59904, Note_on_c, 0, 87, 98
2, 59928, Note_on_c, 0, 87, 0
2, 59928, Note_on_c, 0, 89, 82
2, 59951, Note_on_c, 0, 89, 0
2, 59952, Note_on_c, 0, 87, 82
2, 59975, Note_on_c, 0, 87, 0
2, 59976, Note_on_c, 0, 86, 82
2, 59999, Note_on_c, 0, 86, 0
2, 60000, Note_on_c, 0, 84, 82
2, 60023, Note_on_c, 0, 84, 0
2, 60024, Note_on_c, 0, 86, 82
2, 60047, Note_on_c, 0, 86, 0
2, 60048, Note_on_c, 0, 84, 82
2, 60071, Note_on_c, 0, 84, 0
2, 60072, Note_on_c, 0, 82, 82
2, 60095, Note_on_c, 0, 82, 0
2, 60096, Note_on_c, 0, 81, 82
2, 60119, Note_on_c, 0, 81, 0
2, 60120, Note_on_c, 0, 82, 82
2, 60143, Note_on_c, 0, 82, 0
2, 60144, Note_on_c, 0, 81, 82
2, 60167, Note_on_c, 0, 81, 0
2, 60168, Note_on_c, 0, 79, 82
2, 60191, Note_on_c, 0, 79, 0
2, 60192, Note_on_c, 0, 77, 82
2, 60215, Note_on_c, 0, 77, 0
2, 60216, Note_on_c, 0, 79, 82
2, 60239, Note_on_c, 0, 79, 0
2, 60240, Note_on_c, 0, 77, 82
2, 60263, Note_on_c, 0, 77, 0
2, 60264, Note_on_c, 0, 75, 82
2, 60287, Note_on_c, 0, 75, 0
2, 60288, Note_on_c, 0, 74, 82
2, 60355, Note_on_c, 0, 74, 0
2, 60360, Note_on_c, 0, 77, 80
2, 60383, Note_on_c, 0, 77, 0
2, 60384, Note_on_c, 0, 75, 80
2, 60451, Note_on_c, 0, 75, 0
2, 60456, Note_on_c, 0, 72, 78
2, 60479, Note_on_c, 0, 72, 0
2, 60480, Note_on_c, 0, 74, 78
2, 60547, Note_on_c, 0, 74, 0
2, 60552, Note_on_c, 0, 70, 77
2, 60575, Note_on_c, 0, 70, 0
2, 60576, Note_on_c, 0, 72, 76
2, 60643, Note_on_c, 0, 72, 0
2, 60648, Note_on_c, 0, 69, 75
2, 60671, Note_on_c, 0, 69, 0
2, 60672, Note_on_c, 0, 70, 75
2, 60805, Note_on_c, 0, 70, 0
2, 60936, Note_on_c, 0, 58, 75
2, 60959, Note_on_c, 0, 58, 0
2, 60960, Note_on_c, 0, 60, 75
2, 60966, Note_on_c, 0, 60, 0
2, 60966, Note_on_c, 0, 58, 75
2, 60983, Note_on_c, 0, 58, 0
2, 60984, Note_on_c, 0, 57, 75
2, 61007, Note_on_c, 0, 57, 0
2, 61008, Note_on_c, 0, 58, 75
2, 61031, Note_on_c, 0, 58, 0
2, 61032, Note_on_c, 0, 60, 75
2, 61055, Note_on_c, 0, 60, 0
2, 61056, Note_on_c, 0, 62, 75
2, 61123, Note_on_c, 0, 62, 0
2, 61128, Note_on_c, 0, 58, 75
2, 61151, Note_on_c, 0, 58, 0
2, 61152, Note_on_c, 0, 63, 75
2, 61219, Note_on_c, 0, 63, 0
2, 61224, Note_on_c, 0, 60, 77
2, 61247, Note_on_c, 0, 60, 0
2, 61248, Note_on_c, 0, 65, 77
2, 61315, Note_on_c, 0, 65, 0
2, 61320, Note_on_c, 0, 62, 79
2, 61343, Note_on_c, 0, 62, 0
2, 61344, Note_on_c, 0, 70, 79
2, 61373, Note_on_c, 0, 70, 0
2, 61416, Note_on_c, 0, 70, 81
2, 61416, Note_on_c, 0, 62, 81
2, 61439, Note_on_c, 0, 70, 0
2, 61439, Note_on_c, 0, 62, 0
2, 61440, Note_on_c, 0, 70, 98
2, 61440, Note_on_c, 0, 62, 98
2, 61632, Note_on_c, 0, 70, 0
2, 61632, Note_on_c, 0, 62, 0
2, 61632, Note_on_c, 0, 69, 76
2, 61632, Note_on_c, 0, 60, 76
2, 61677, Note_on_c, 0, 69, 0
2, 61677, Note_on_c, 0, 60, 0
2, 61704, Note_on_c, 0, 65, 75
2, 61727, Note_on_c, 0, 65, 0
2, 61728, Note_on_c, 0, 67, 75
2, 61734, Note_on_c, 0, 67, 0
2, 61734, Note_on_c, 0, 65, 75
2, 61751, Note_on_c, 0, 65, 0
2, 61752, Note_on_c, 0, 64, 75
2, 61775, Note_on_c, 0, 64, 0
2, 61776, Note_on_c, 0, 65, 75
2, 61799, Note_on_c, 0, 65, 0
2, 61800, Note_on_c, 0, 67, 75
2, 61823, Note_on_c, 0, 67, 0
2, 61824, Note_on_c, 0, 69, 75
2, 61891, Note_on_c, 0, 69, 0
2, 61896, Note_on_c, 0, 65, 76
2, 61919, Note_on_c, 0, 65, 0
2, 61920, Note_on_c, 0, 70, 76
2, 61987, Note_on_c, 0, 70, 0
2, 61992, Note_on_c, 0, 67, 78
2, 62015, Note_on_c, 0, 67, 0
2, 62016, Note_on_c, 0, 72, 78
2, 62083, Note_on_c, 0, 72, 0
2, 62088, Note_on_c, 0, 69, 80
2, 62111, Note_on_c, 0, 69, 0
2, 62112, Note_on_c, 0, 75, 80
2, 62141, Note_on_c, 0, 75, 0
2, 62184, Note_on_c, 0, 75, 82
2, 62184, Note_on_c, 0, 72, 82
2, 62207, Note_on_c, 0, 75, 0
2, 62207, Note_on_c, 0, 72, 0
2, 62208, Note_on_c, 0, 75, 98
2, 62208, Note_on_c, 0, 72, 98
2, 62400, Note_on_c, 0, 75, 0
2, 62400, Note_on_c, 0, 72, 0
2, 62400, Note_on_c, 0, 74, 76
2, 62400, Note_on_c, 0, 70, 76
2, 62445, Note_on_c, 0, 74, 0
2, 62445, Note_on_c, 0, 70, 0
2, 62472, Note_on_c, 0, 74, 75
2, 62495, Note_on_c, 0, 74, 0
2, 62496, Note_on_c, 0, 75, 75
2, 62502, Note_on_c, 0, 75, 0
2, 62502, Note_on_c, 0, 74, 75
2, 62519, Note_on_c, 0, 74, 0
2, 62520, Note_on_c, 0, 72, 75
2, 62543, Note_on_c, 0, 72, 0
2, 62544, Note_on_c, 0, 74, 75
2, 62567, Note_on_c, 0, 74, 0
2, 62568, Note_on_c, 0, 75, 75
2, 62591, Note_on_c, 0, 75, 0
2, 62592, Note_on_c, 0, 77, 75
2, 62659, Note_on_c, 0, 77, 0
2, 62664, Note_on_c, 0, 74, 76
2, 62687, Note_on_c, 0, 74, 0
2, 62688, Note_on_c, 0, 82, 77
2, 62755, Note_on_c, 0, 82, 0
2, 62760, Note_on_c, 0, 77, 79
2, 62783, Note_on_c, 0, 77, 0
2, 62784, Note_on_c, 0, 86, 80
2, 62851, Note_on_c, 0, 86, 0
2, 62856, Note_on_c, 0, 84, 82
2, 62880, Note_on_c, 0, 84, 0
2, 62880, Note_on_c, 0, 82, 81
2, 62900, Note_on_c, 0, 82, 0
2, 62952, Note_on_c, 0, 81, 80
2, 62976, Note_on_c, 0, 81, 0
2, 62976, Note_on_c, 0, 79, 79
2, 62996, Note_on_c, 0, 79, 0
2, 63048, Note_on_c, 0, 77, 78
2, 63072, Note_on_c, 0, 77, 0
2, 63072, Note_on_c, 0, 75, 77
2, 63092, Note_on_c, 0, 75, 0
2, 63144, Note_on_c, 0, 74, 76
2, 63168, Note_on_c, 0, 74, 0
2, 63168, Note_on_c, 0, 72, 75
2, 63188, Note_on_c, 0, 72, 0
2, 63240, Note_on_c, 0, 79, 75
2, 63264, Note_on_c, 0, 79, 0
2, 63264, Note_on_c, 0, 77, 75
2, 63284, Note_on_c, 0, 77, 0
2, 63336, Note_on_c, 0, 75, 75
2, 63360, Note_on_c, 0, 75, 0
2, 63360, Note_on_c, 0, 74, 75
2, 63380, Note_on_c, 0, 74, 0
2, 63432, Note_on_c, 0, 77, 77
2, 63456, Note_on_c, 0, 77, 0
2, 63456, Note_on_c, 0, 82, 77
2, 63476, Note_on_c, 0, 82, 0
2, 63528, Note_on_c, 0, 77, 79
2, 63552, Note_on_c, 0, 77, 0
2, 63552, Note_on_c, 0, 86, 80
2, 63572, Note_on_c, 0, 86, 0
2, 63624, Note_on_c, 0, 84, 82
2, 63648, Note_on_c, 0, 84, 0
2, 63648, Note_on_c, 0, 82, 81
2, 63668, Note_on_c, 0, 82, 0
2, 63720, Note_on_c, 0, 81, 78
2, 63744, Note_on_c, 0, 81, 0
2, 63744, Note_on_c, 0, 79, 78
2, 63764, Note_on_c, 0, 79, 0
2, 63816, Note_on_c, 0, 77, 75
2, 63840, Note_on_c, 0, 77, 0
2, 63840, Note_on_c, 0, 75, 75
2, 63860, Note_on_c, 0, 75, 0
2, 63912, Note_on_c, 0, 74, 72
2, 63936, Note_on_c, 0, 74, 0
2, 63936, Note_on_c, 0, 72, 72
2, 63956, Note_on_c, 0, 72, 0
2, 64008, Note_on_c, 0, 79, 69
2, 64032, Note_on_c, 0, 79, 0
2, 64032, Note_on_c, 0, 77, 69
2, 64052, Note_on_c, 0, 77, 0
2, 64104, Note_on_c, 0, 75, 66
2, 64128, Note_on_c, 0, 75, 0
2, 64128, Note_on_c, 0, 74, 66
2, 64148, Note_on_c, 0, 74, 0
2, 64200, Note_on_c, 0, 79, 66
2, 64224, Note_on_c, 0, 79, 0
2, 64224, Note_on_c, 0, 77, 66
2, 64244, Note_on_c, 0, 77, 0
2, 64296, Note_on_c, 0, 75, 66
2, 64320, Note_on_c, 0, 75, 0
2, 64320, Note_on_c, 0, 74, 66
2, 64340, Note_on_c, 0, 74, 0
2, 64392, Note_on_c, 0, 79, 66
2, 64416, Note_on_c, 0, 79, 0
2, 64416, Note_on_c, 0, 77, 66
2, 64436, Note_on_c, 0, 77, 0
2, 64488, Note_on_c, 0, 75, 66
2, 64512, Note_on_c, 0, 75, 0
2, 64512, Note_on_c, 0, 74, 66
2, 64532, Note_on_c, 0, 74, 0
2, 64584, Note_on_c, 0, 84, 56
2, 64608, Note_on_c, 0, 84, 0
2, 64608, Note_on_c, 0, 82, 57
2, 64628, Note_on_c, 0, 82, 0
2, 64680, Note_on_c, 0, 81, 61
2, 64704, Note_on_c, 0, 81, 0
2, 64704, Note_on_c, 0, 79, 62
2, 64724, Note_on_c, 0, 79, 0
2, 64776, Note_on_c, 0, 77, 66
2, 64800, Note_on_c, 0, 77, 0
2, 64800, Note_on_c, 0, 75, 67
2, 64820, Note_on_c, 0, 75, 0
2, 64872, Note_on_c, 0, 74, 71
2, 64896, Note_on_c, 0, 74, 0
2, 64896, Note_on_c, 0, 72, 72
2, 64916, Note_on_c, 0, 72, 0
2, 64944, Note_on_c, 0, 78, 75
2, 64989, Note_on_c, 0, 78, 0
2, 64992, Note_on_c, 0, 81, 108
2, 65037, Note_on_c, 0, 81, 0
2, 65040, Note_on_c, 0, 79, 75
2, 65085, Note_on_c, 0, 79, 0
2, 65088, Note_on_c, 0, 77, 75
2, 65133, Note_on_c, 0, 77, 0
2, 65136, Note_on_c, 0, 75, 72
2, 65181, Note_on_c, 0, 75, 0
2, 65184, Note_on_c, 0, 74, 70
2, 65229, Note_on_c, 0, 74, 0
2, 65232, Note_on_c, 0, 72, 68
2, 65277, Note_on_c, 0, 72, 0
2, 65280, Note_on_c, 0, 70, 66
2, 65472, Note_on_c, 0, 70, 0
2, 65472, Note_on_c, 0, 69, 58
2, 65517, Note_on_c, 0, 69, 0
2, 65640, Note_on_c, 0, 62, 82
2, 65652, Note_on_c, 0, 62, 0
2, 65652, Note_on_c, 0, 65, 82
2, 65664, Note_on_c, 0, 65, 0
2, 65664, Note_on_c, 0, 70, 82
2, 65819, Note_on_c, 0, 70, 0
2, 65832, Note_on_c, 0, 65, 82
2, 65844, Note_on_c, 0, 65, 0
2, 65844, Note_on_c, 0, 69, 82
2, 65856, Note_on_c, 0, 69, 0
2, 65856, Note_on_c, 0, 72, 82
2, 66011, Note_on_c, 0, 72, 0
2, 66024, Note_on_c, 0, 65, 82
2, 66036, Note_on_c, 0, 65, 0
2, 66036, Note_on_c, 0, 70, 82
2, 66048, Note_on_c, 0, 70, 0
2, 66048, Note_on_c, 0, 74, 82
2, 66203, Note_on_c, 0, 74, 0
2, 66216, Note_on_c, 0, 74, 82
2, 66228, Note_on_c, 0, 74, 0
2, 66228, Note_on_c, 0, 77, 82
2, 66240, Note_on_c, 0, 77, 0
2, 66240, Note_on_c, 0, 82, 82
2, 66263, Note_on_c, 0, 82, 0
2, 66264, Note_on_c, 0, 81, 82
2, 66287, Note_on_c, 0, 81, 0
2, 66288, Note_on_c, 0, 79, 82
2, 66311, Note_on_c, 0, 79, 0
2, 66312, Note_on_c, 0, 77, 82
2, 66335, Note_on_c, 0, 77, 0
2, 66336, Note_on_c, 0, 75, 82
2, 66359, Note_on_c, 0, 75, 0
2, 66360, Note_on_c, 0, 74, 82
2, 66383, Note_on_c, 0, 74, 0
2, 66384, Note_on_c, 0, 72, 82
2, 66407, Note_on_c, 0, 72, 0
2, 66408, Note_on_c, 0, 70, 82
2, 66431, Note_on_c, 0, 70, 0
2, 66432, Note_on_c, 0, 69, 82
2, 66587, Note_on_c, 0, 69, 0
2, 66600, Note_on_c, 0, 69, 70
2, 66623, Note_on_c, 0, 69, 0
2, 66624, Note_on_c, 0, 70, 69
2, 66779, Note_on_c, 0, 70, 0
2, 66792, Note_on_c, 0, 70, 57
2, 66815, Note_on_c, 0, 70, 0
2, 66816, Note_on_c, 0, 71, 56
2, 66912, Note_on_c, 0, 71, 0
2, 66912, Note_on_c, 0, 72, 56
2, 67006, Note_on_c, 0, 72, 0
2, 67176, Note_on_c, 0, 84, 82
2, 67199, Note_on_c, 0, 84, 0
2, 67200, Note_on_c, 0, 85, 82
2, 67289, Note_on_c, 0, 85, 0
2, 67296, Note_on_c, 0, 85, 115
2, 67429, Note_on_c, 0, 85, 0
2, 67440, Note_on_c, 0, 85, 82
2, 67485, Note_on_c, 0, 85, 0
2, 67488, Note_on_c, 0, 87, 82
2, 67500, Note_on_c, 0, 87, 0
2, 67500, Note_on_c, 0, 85, 82
2, 67512, Note_on_c, 0, 85, 0
2, 67512, Note_on_c, 0, 84, 82
2, 67524, Note_on_c, 0, 84, 0
2, 67524, Note_on_c, 0, 85, 82
2, 67555, Note_on_c, 0, 85, 0
2, 67560, Note_on_c, 0, 87, 82
2, 67583, Note_on_c, 0, 87, 0
2, 67584, Note_on_c, 0, 85, 82
2, 67717, Note_on_c, 0, 85, 0
2, 67728, Note_on_c, 0, 82, 82
2, 67751, Note_on_c, 0, 82, 0
2, 67752, Note_on_c, 0, 83, 82
2, 67775, Note_on_c, 0, 83, 0
2, 67776, Note_on_c, 0, 85, 82
2, 67791, Note_on_c, 0, 85, 0
2, 67792, Note_on_c, 0, 83, 82
2, 67807, Note_on_c, 0, 83, 0
2, 67808, Note_on_c, 0, 85, 82
2, 67823, Note_on_c, 0, 85, 0
2, 67824, Note_on_c, 0, 83, 82
2, 67839, Note_on_c, 0, 83, 0
2, 67840, Note_on_c, 0, 85, 82
2, 67855, Note_on_c, 0, 85, 0
2, 67856, Note_on_c, 0, 83, 82
2, 67871, Note_on_c, 0, 83, 0
2, 67872, Note_on_c, 0, 85, 82
2, 67887, Note_on_c, 0, 85, 0
2, 67888, Note_on_c, 0, 83, 82
2, 67903, Note_on_c, 0, 83, 0
2, 67904, Note_on_c, 0, 82, 82
2, 67935, Note_on_c, 0, 82, 0
2, 67936, Note_on_c, 0, 83, 82
2, 67967, Note_on_c, 0, 83, 0
2, 67968, Note_on_c, 0, 82, 82
2, 68057, Note_on_c, 0, 82, 0
2, 68064, Note_on_c, 0, 82, 82
2, 68197, Note_on_c, 0, 82, 0
2, 68208, Note_on_c, 0, 82, 82
2, 68253, Note_on_c, 0, 82, 0
2, 68256, Note_on_c, 0, 83, 82
2, 68268, Note_on_c, 0, 83, 0
2, 68268, Note_on_c, 0, 82, 82
2, 68280, Note_on_c, 0, 82, 0
2, 68280, Note_on_c, 0, 80, 82
2, 68292, Note_on_c, 0, 80, 0
2, 68292, Note_on_c, 0, 82, 82
2, 68323, Note_on_c, 0, 82, 0
2, 68328, Note_on_c, 0, 83, 82
2, 68351, Note_on_c, 0, 83, 0
2, 68352, Note_on_c, 0, 82, 82
2, 68419, Note_on_c, 0, 82, 0
2, 68424, Note_on_c, 0, 80, 82
2, 68447, Note_on_c, 0, 80, 0
2, 68448, Note_on_c, 0, 83, 115
2, 68581, Note_on_c, 0, 83, 0
2, 68592, Note_on_c, 0, 82, 82
2, 68615, Note_on_c, 0, 82, 0
2, 68616, Note_on_c, 0, 80, 82
2, 68639, Note_on_c, 0, 80, 0
2, 68640, Note_on_c, 0, 78, 82
2, 68685, Note_on_c, 0, 78, 0
2, 68688, Note_on_c, 0, 77, 82
2, 68733, Note_on_c, 0, 77, 0
2, 68736, Note_on_c, 0, 80, 82
2, 68832, Note_on_c, 0, 80, 0
2, 68832, Note_on_c, 0, 78, 82
2, 68921, Note_on_c, 0, 78, 0
2, 69000, Note_on_c, 0, 78, 82
2, 69023, Note_on_c, 0, 78, 0
2, 69024, Note_on_c, 0, 80, 81
2, 69036, Note_on_c, 0, 80, 0
2, 69036, Note_on_c, 0, 78, 81
2, 69048, Note_on_c, 0, 78, 0
2, 69048, Note_on_c, 0, 77, 81
2, 69060, Note_on_c, 0, 77, 0
2, 69060, Note_on_c, 0, 78, 81
2, 69091, Note_on_c, 0, 78, 0
2, 69096, Note_on_c, 0, 80, 79
2, 69119, Note_on_c, 0, 80, 0
2, 69120, Note_on_c, 0, 78, 79
2, 69216, Note_on_c, 0, 78, 0
2, 69216, Note_on_c, 0, 77, 77
2, 69305, Note_on_c, 0, 77, 0
2, 69384, Note_on_c, 0, 77, 75
2, 69407, Note_on_c, 0, 77, 0
2, 69408, Note_on_c, 0, 79, 75
2, 69420, Note_on_c, 0, 79, 0
2, 69420, Note_on_c, 0, 77, 75
2, 69432, Note_on_c, 0, 77, 0
2, 69432, Note_on_c, 0, 76, 75
2, 69444, Note_on_c, 0, 76, 0
2, 69444, Note_on_c, 0, 77, 75
2, 69497, Note_on_c, 0, 77, 0
2, 69504, Note_on_c, 0, 76, 75
2, 69534, Note_on_c, 0, 76, 0
2, 69536, Note_on_c, 0, 79, 75
2, 69566, Note_on_c, 0, 79, 0
2, 69568, Note_on_c, 0, 77, 76
2, 69598, Note_on_c, 0, 77, 0
2, 69600, Note_on_c, 0, 81, 76
2, 69630, Note_on_c, 0, 81, 0
2, 69632, Note_on_c, 0, 79, 77
2, 69662, Note_on_c, 0, 79, 0
2, 69664, Note_on_c, 0, 82, 78
2, 69694, Note_on_c, 0, 82, 0
2, 69696, Note_on_c, 0, 81, 78
2, 69726, Note_on_c, 0, 81, 0
2, 69728, Note_on_c, 0, 84, 79
2, 69758, Note_on_c, 0, 84, 0
2, 69760, Note_on_c, 0, 82, 79
2, 69790, Note_on_c, 0, 82, 0
2, 69792, Note_on_c, 0, 86, 80
2, 69822, Note_on_c, 0, 86, 0
2, 69824, Note_on_c, 0, 84, 81
2, 69854, Note_on_c, 0, 84, 0
2, 69856, Note_on_c, 0, 88, 82
2, 69886, Note_on_c, 0, 88, 0
2, 69888, Note_on_c, 0, 86, 82
2, 69977, Note_on_c, 0, 86, 0
2, 69984, Note_on_c, 0, 84, 115
2, 70161, Note_on_c, 0, 84, 0
2, 70176, Note_on_c, 0, 82, 82
2, 70189, Note_on_c, 0, 82, 0
2, 70190, Note_on_c, 0, 84, 81
2, 70203, Note_on_c, 0, 84, 0
2, 70204, Note_on_c, 0, 82, 80
2, 70217, Note_on_c, 0, 82, 0
2, 70218, Note_on_c, 0, 84, 79
2, 70231, Note_on_c, 0, 84, 0
2, 70232, Note_on_c, 0, 82, 78
2, 70245, Note_on_c, 0, 82, 0
2, 70246, Note_on_c, 0, 81, 77
2, 70258, Note_on_c, 0, 81, 0
2, 70259, Note_on_c, 0, 82, 76
2, 70271, Note_on_c, 0, 82, 0
2, 70272, Note_on_c, 0, 81, 75
2, 70302, Note_on_c, 0, 81, 0
2, 70304, Note_on_c, 0, 84, 75
2, 70334, Note_on_c, 0, 84, 0
2, 70336, Note_on_c, 0, 82, 76
2, 70366, Note_on_c, 0, 82, 0
2, 70368, Note_on_c, 0, 86, 77
2, 70398, Note_on_c, 0, 86, 0
2, 70400, Note_on_c, 0, 84, 78
2, 70430, Note_on_c, 0, 84, 0
2, 70432, Note_on_c, 0, 87, 79
2, 70462, Note_on_c, 0, 87, 0
2, 70464, Note_on_c, 0, 86, 80
2, 70494, Note_on_c, 0, 86, 0
2, 70496, Note_on_c, 0, 89, 80
2, 70526, Note_on_c, 0, 89, 0
2, 70528, Note_on_c, 0, 87, 82
2, 70558, Note_on_c, 0, 87, 0
2, 70560, Note_on_c, 0, 86, 82
2, 70590, Note_on_c, 0, 86, 0
2, 70592, Note_on_c, 0, 84, 81
2, 70622, Note_on_c, 0, 84, 0
2, 70624, Note_on_c, 0, 82, 80
2, 70654, Note_on_c, 0, 82, 0
2, 70656, Note_on_c, 0, 81, 80
2, 70686, Note_on_c, 0, 81, 0
2, 70688, Note_on_c, 0, 86, 79
2, 70718, Note_on_c, 0, 86, 0
2, 70720, Note_on_c, 0, 84, 79
2, 70750, Note_on_c, 0, 84, 0
2, 70752, Note_on_c, 0, 82, 78
2, 70782, Note_on_c, 0, 82, 0
2, 70784, Note_on_c, 0, 81, 78
2, 70814, Note_on_c, 0, 81, 0
2, 70816, Note_on_c, 0, 79, 77
2, 70846, Note_on_c, 0, 79, 0
2, 70848, Note_on_c, 0, 77, 77
2, 70937, Note_on_c, 0, 77, 0
2, 70944, Note_on_c, 0, 75, 75
2, 70957, Note_on_c, 0, 75, 0
2, 70958, Note_on_c, 0, 77, 75
2, 70971, Note_on_c, 0, 77, 0
2, 70972, Note_on_c, 0, 75, 75
2, 70985, Note_on_c, 0, 75, 0
2, 70986, Note_on_c, 0, 77, 75
2, 70999, Note_on_c, 0, 77, 0
2, 71000, Note_on_c, 0, 75, 75
2, 71013, Note_on_c, 0, 75, 0
2, 71014, Note_on_c, 0, 74, 75
2, 71026, Note_on_c, 0, 74, 0
2, 71027, Note_on_c, 0, 75, 75
2, 71039, Note_on_c, 0, 75, 0
2, 71040, Note_on_c, 0, 74, 75
2, 71129, Note_on_c, 0, 74, 0
2, 71136, Note_on_c, 0, 77, 75
2, 71225, Note_on_c, 0, 77, 0
2, 71304, Note_on_c, 0, 81, 75
2, 71327, Note_on_c, 0, 81, 0
2, 71328, Note_on_c, 0, 81, 75
2, 71341, Note_on_c, 0, 81, 0
2, 71342, Note_on_c, 0, 82, 75
2, 71355, Note_on_c, 0, 82, 0
2, 71356, Note_on_c, 0, 81, 75
2, 71369, Note_on_c, 0, 81, 0
2, 71370, Note_on_c, 0, 82, 75
2, 71383, Note_on_c, 0, 82, 0
2, 71384, Note_on_c, 0, 81, 75
2, 71397, Note_on_c, 0, 81, 0
2, 71398, Note_on_c, 0, 79, 75
2, 71410, Note_on_c, 0, 79, 0
2, 71411, Note_on_c, 0, 81, 75
2, 71423, Note_on_c, 0, 81, 0
2, 71424, Note_on_c, 0, 82, 75
2, 71491, Note_on_c, 0, 82, 0
2, 71496, Note_on_c, 0, 86, 75
2, 71519, Note_on_c, 0, 86, 0
2, 71520, Note_on_c, 0, 77, 75
2, 71683, Note_on_c, 0, 77, 0
2, 71688, Note_on_c, 0, 75, 75
2, 71711, Note_on_c, 0, 75, 0
2, 71712, Note_on_c, 0, 75, 75
2, 71725, Note_on_c, 0, 75, 0
2, 71726, Note_on_c, 0, 77, 75
2, 71739, Note_on_c, 0, 77, 0
2, 71740, Note_on_c, 0, 75, 75
2, 71753, Note_on_c, 0, 75, 0
2, 71754, Note_on_c, 0, 77, 75
2, 71767, Note_on_c, 0, 77, 0
2, 71768, Note_on_c, 0, 75, 75
2, 71781, Note_on_c, 0, 75, 0
2, 71782, Note_on_c, 0, 74, 75
2, 71794, Note_on_c, 0, 74, 0
2, 71795, Note_on_c, 0, 75, 75
2, 71807, Note_on_c, 0, 75, 0
2, 71808, Note_on_c, 0, 74, 75
2, 71897, Note_on_c, 0, 74, 0
2, 71904, Note_on_c, 0, 77, 75
2, 71993, Note_on_c, 0, 77, 0
2, 72072, Note_on_c, 0, 81, 75
2, 72095, Note_on_c, 0, 81, 0
2, 72096, Note_on_c, 0, 81, 75
2, 72109, Note_on_c, 0, 81, 0
2, 72110, Note_on_c, 0, 82, 75
2, 72123, Note_on_c, 0, 82, 0
2, 72124, Note_on_c, 0, 81, 75
2, 72137, Note_on_c, 0, 81, 0
2, 72138, Note_on_c, 0, 82, 75
2, 72151, Note_on_c, 0, 82, 0
2, 72152, Note_on_c, 0, 81, 75
2, 72165, Note_on_c, 0, 81, 0
2, 72166, Note_on_c, 0, 79, 75
2, 72178, Note_on_c, 0, 79, 0
2, 72179, Note_on_c, 0, 81, 75
2, 72191, Note_on_c, 0, 81, 0
2, 72192, Note_on_c, 0, 82, 75
2, 72259, Note_on_c, 0, 82, 0
2, 72264, Note_on_c, 0, 86, 75
2, 72287, Note_on_c, 0, 86, 0
2, 72288, Note_on_c, 0, 77, 75
2, 72451, Note_on_c, 0, 77, 0
2, 72456, Note_on_c, 0, 75, 75
2, 72479, Note_on_c, 0, 75, 0
2, 72480, Note_on_c, 0, 75, 75
2, 72493, Note_on_c, 0, 75, 0
2, 72494, Note_on_c, 0, 77, 75
2, 72507, Note_on_c, 0, 77, 0
2, 72508, Note_on_c, 0, 75, 75
2, 72521, Note_on_c, 0, 75, 0
2, 72522, Note_on_c, 0, 77, 75
2, 72535, Note_on_c, 0, 77, 0
2, 72536, Note_on_c, 0, 75, 75
2, 72549, Note_on_c, 0, 75, 0
2, 72550, Note_on_c, 0, 74, 75
2, 72562, Note_on_c, 0, 74, 0
2, 72563, Note_on_c, 0, 75, 75
2, 72575, Note_on_c, 0, 75, 0
2, 72576, Note_on_c, 0, 74, 75
2, 72606, Note_on_c, 0, 74, 0
2, 72608, Note_on_c, 0, 77, 75
2, 72638, Note_on_c, 0, 77, 0
2, 72640, Note_on_c, 0, 75, 75
2, 72670, Note_on_c, 0, 75, 0
2, 72672, Note_on_c, 0, 79, 76
2, 72702, Note_on_c, 0, 79, 0
2, 72704, Note_on_c, 0, 77, 76
2, 72734, Note_on_c, 0, 77, 0
2, 72736, Note_on_c, 0, 80, 77
2, 72766, Note_on_c, 0, 80, 0
2, 72768, Note_on_c, 0, 79, 77
2, 72798, Note_on_c, 0, 79, 0
2, 72800, Note_on_c, 0, 82, 78
2, 72830, Note_on_c, 0, 82, 0
2, 72832, Note_on_c, 0, 80, 79
2, 72862, Note_on_c, 0, 80, 0
2, 72864, Note_on_c, 0, 84, 79
2, 72894, Note_on_c, 0, 84, 0
2, 72896, Note_on_c, 0, 82, 80
2, 72926, Note_on_c, 0, 82, 0
2, 72928, Note_on_c, 0, 80, 80
2, 72958, Note_on_c, 0, 80, 0
2, 72960, Note_on_c, 0, 79, 82
2, 72990, Note_on_c, 0, 79, 0
2, 72992, Note_on_c, 0, 77, 81
2, 73022, Note_on_c, 0, 77, 0
2, 73024, Note_on_c, 0, 82, 80
2, 73054, Note_on_c, 0, 82, 0
2, 73056, Note_on_c, 0, 80, 80
2, 73086, Note_on_c, 0, 80, 0
2, 73088, Note_on_c, 0, 79, 79
2, 73118, Note_on_c, 0, 79, 0
2, 73120, Note_on_c, 0, 77, 79
2, 73150, Note_on_c, 0, 77, 0
2, 73152, Note_on_c, 0, 75, 78
2, 73182, Note_on_c, 0, 75, 0
2, 73184, Note_on_c, 0, 74, 78
2, 73214, Note_on_c, 0, 74, 0
2, 73216, Note_on_c, 0, 72, 77
2, 73246, Note_on_c, 0, 72, 0
2, 73248, Note_on_c, 0, 70, 77
2, 73278, Note_on_c, 0, 70, 0
2, 73280, Note_on_c, 0, 72, 76
2, 73310, Note_on_c, 0, 72, 0
2, 73312, Note_on_c, 0, 68, 75
2, 73342, Note_on_c, 0, 68, 0
2, 73344, Note_on_c, 0, 67, 75
2, 73374, Note_on_c, 0, 67, 0
2, 73376, Note_on_c, 0, 75, 75
2, 73406, Note_on_c, 0, 75, 0
2, 73408, Note_on_c, 0, 74, 75
2, 73438, Note_on_c, 0, 74, 0
2, 73440, Note_on_c, 0, 72, 75
2, 73470, Note_on_c, 0, 72, 0
2, 73472, Note_on_c, 0, 79, 75
2, 73502, Note_on_c, 0, 79, 0
2, 73504, Note_on_c, 0, 77, 75
2, 73534, Note_on_c, 0, 77, 0
2, 73536, Note_on_c, 0, 75, 75
2, 73566, Note_on_c, 0, 75, 0
2, 73568, Note_on_c, 0, 74, 75
2, 73598, Note_on_c, 0, 74, 0
2, 73600, Note_on_c, 0, 72, 75
2, 73630, Note_on_c, 0, 72, 0
2, 73632, Note_on_c, 0, 70, 75
2, 73662, Note_on_c, 0, 70, 0
2, 73664, Note_on_c, 0, 69, 75
2, 73694, Note_on_c, 0, 69, 0
2, 73696, Note_on_c, 0, 67, 75
2, 73726, Note_on_c, 0, 67, 0
2, 73728, Note_on_c, 0, 65, 75
2, 73950, Note_on_c, 0, 65, 0
2, 73952, Note_on_c, 0, 65, 79
2, 73982, Note_on_c, 0, 65, 0
2, 73984, Note_on_c, 0, 66, 79
2, 74014, Note_on_c, 0, 66, 0
2, 74016, Note_on_c, 0, 67, 80
2, 74046, Note_on_c, 0, 67, 0
2, 74048, Note_on_c, 0, 68, 80
2, 74078, Note_on_c, 0, 68, 0
2, 74080, Note_on_c, 0, 69, 81
2, 74110, Note_on_c, 0, 69, 0
2, 74112, Note_on_c, 0, 70, 82
2, 74142, Note_on_c, 0, 70, 0
2, 74144, Note_on_c, 0, 65, 75
2, 74174, Note_on_c, 0, 65, 0
2, 74176, Note_on_c, 0, 66, 76
2, 74206, Note_on_c, 0, 66, 0
2, 74208, Note_on_c, 0, 67, 77
2, 74238, Note_on_c, 0, 67, 0
2, 74240, Note_on_c, 0, 68, 78
2, 74270, Note_on_c, 0, 68, 0
2, 74272, Note_on_c, 0, 69, 79
2, 74302, Note_on_c, 0, 69, 0
2, 74304, Note_on_c, 0, 70, 80
2, 74334, Note_on_c, 0, 70, 0
2, 74336, Note_on_c, 0, 77, 82
2, 74366, Note_on_c, 0, 77, 0
2, 74368, Note_on_c, 0, 78, 83
2, 74398, Note_on_c, 0, 78, 0
2, 74400, Note_on_c, 0, 79, 84
2, 74430, Note_on_c, 0, 79, 0
2, 74432, Note_on_c, 0, 80, 86
2, 74462, Note_on_c, 0, 80, 0
2, 74464, Note_on_c, 0, 81, 87
2, 74494, Note_on_c, 0, 81, 0
2, 74496, Note_on_c, 0, 82, 90
2, 74526, Note_on_c, 0, 82, 0
2, 74528, Note_on_c, 0, 81, 89
2, 74558, Note_on_c, 0, 81, 0
2, 74560, Note_on_c, 0, 80, 89
2, 74590, Note_on_c, 0, 80, 0
2, 74592, Note_on_c, 0, 79, 88
2, 74622, Note_on_c, 0, 79, 0
2, 74624, Note_on_c, 0, 78, 88
2, 74654, Note_on_c, 0, 78, 0
2, 74656, Note_on_c, 0, 77, 87
2, 74686, Note_on_c, 0, 77, 0
2, 74688, Note_on_c, 0, 76, 87
2, 74718, Note_on_c, 0, 76, 0
2, 74720, Note_on_c, 0, 75, 87
2, 74750, Note_on_c, 0, 75, 0
2, 74752, Note_on_c, 0, 74, 86
2, 74782, Note_on_c, 0, 74, 0
2, 74784, Note_on_c, 0, 73, 86
2, 74814, Note_on_c, 0, 73, 0
2, 74816, Note_on_c, 0, 72, 85
2, 74846, Note_on_c, 0, 72, 0
2, 74848, Note_on_c, 0, 71, 85
2, 74878, Note_on_c, 0, 71, 0
2, 74880, Note_on_c, 0, 70, 85
2, 74910, Note_on_c, 0, 70, 0
2, 74912, Note_on_c, 0, 69, 84
2, 74942, Note_on_c, 0, 69, 0
2, 74944, Note_on_c, 0, 68, 84
2, 74974, Note_on_c, 0, 68, 0
2, 74976, Note_on_c, 0, 67, 83
2, 75006, Note_on_c, 0, 67, 0
2, 75008, Note_on_c, 0, 66, 83
2, 75038, Note_on_c, 0, 66, 0
2, 75040, Note_on_c, 0, 65, 82
2, 75070, Note_on_c, 0, 65, 0
2, 75072, Note_on_c, 0, 64, 82
2, 75161, Note_on_c, 0, 64, 0
2, 75168, Note_on_c, 0, 76, 82
2, 75180, Note_on_c, 0, 79, 82
2, 75192, Note_on_c, 0, 82, 82
2, 75204, Note_on_c, 0, 85, 82
2, 75257, Note_on_c, 0, 85, 0
2, 75257, Note_on_c, 0, 82, 0
2, 75257, Note_on_c, 0, 79, 0
2, 75257, Note_on_c, 0, 76, 0
2, 75288, Note_on_c, 0, 65, 82
2, 75311, Note_on_c, 0, 65, 0
2, 75312, Note_on_c, 0, 67, 82
2, 75335, Note_on_c, 0, 67, 0
2, 75336, Note_on_c, 0, 69, 82
2, 75359, Note_on_c, 0, 69, 0
2, 75360, Note_on_c, 0, 70, 82
2, 75383, Note_on_c, 0, 70, 0
2, 75384, Note_on_c, 0, 72, 82
2, 75407, Note_on_c, 0, 72, 0
2, 75408, Note_on_c, 0, 74, 82
2, 75431, Note_on_c, 0, 74, 0
2, 75432, Note_on_c, 0, 75, 82
2, 75455, Note_on_c, 0, 75, 0
2, 75456, Note_on_c, 0, 77, 82
2, 75479, Note_on_c, 0, 77, 0
2, 75480, Note_on_c, 0, 79, 82
2, 75503, Note_on_c, 0, 79, 0
2, 75504, Note_on_c, 0, 81, 82
2, 75527, Note_on_c, 0, 81, 0
2, 75528, Note_on_c, 0, 82, 82
2, 75551, Note_on_c, 0, 82, 0
2, 75552, Note_on_c, 0, 84, 82
2, 75575, Note_on_c, 0, 84, 0
2, 75576, Note_on_c, 0, 86, 82
2, 75599, Note_on_c, 0, 86, 0
2, 75600, Note_on_c, 0, 87, 82
2, 75623, Note_on_c, 0, 87, 0
2, 75624, Note_on_c, 0, 89, 82
2, 75647, Note_on_c, 0, 89, 0
2, 75648, Note_on_c, 0, 74, 82
2, 75695, Note_on_c, 0, 74, 0
2, 75696, Note_on_c, 0, 72, 82
2, 75711, Note_on_c, 0, 72, 0
2, 75712, Note_on_c, 0, 74, 82
2, 75727, Note_on_c, 0, 74, 0
2, 75728, Note_on_c, 0, 72, 82
2, 75743, Note_on_c, 0, 72, 0
2, 75744, Note_on_c, 0, 74, 82
2, 75759, Note_on_c, 0, 74, 0
2, 75760, Note_on_c, 0, 72, 82
2, 75775, Note_on_c, 0, 72, 0
2, 75776, Note_on_c, 0, 74, 82
2, 75791, Note_on_c, 0, 74, 0
2, 75792, Note_on_c, 0, 72, 82
2, 75807, Note_on_c, 0, 72, 0
2, 75808, Note_on_c, 0, 74, 82
2, 75823, Note_on_c, 0, 74, 0
2, 75824, Note_on_c, 0, 72, 82
2, 75839, Note_on_c, 0, 72, 0
2, 75840, Note_on_c, 0, 74, 82
2, 75855, Note_on_c, 0, 74, 0
2, 75856, Note_on_c, 0, 72, 82
2, 75871, Note_on_c, 0, 72, 0
2, 75872, Note_on_c, 0, 74, 82
2, 75887, Note_on_c, 0, 74, 0
2, 75888, Note_on_c, 0, 72, 82
2, 75903, Note_on_c, 0, 72, 0
2, 75904, Note_on_c, 0, 74, 82
2, 75919, Note_on_c, 0, 74, 0
2, 75920, Note_on_c, 0, 72, 82
2, 75935, Note_on_c, 0, 72, 0
2, 75936, Note_on_c, 0, 74, 82
2, 75951, Note_on_c, 0, 74, 0
2, 75952, Note_on_c, 0, 72, 82
2, 75967, Note_on_c, 0, 72, 0
2, 75968, Note_on_c, 0, 70, 82
2, 75999, Note_on_c, 0, 70, 0
2, 76000, Note_on_c, 0, 72, 82
2, 76031, Note_on_c, 0, 72, 0
2, 76032, Note_on_c, 0, 70, 82
2, 76121, Note_on_c, 0, 70, 0
2, 76224, Note_on_c, 0, 75, 82
2, 76224, Note_on_c, 0, 63, 82
2, 76244, Note_on_c, 0, 75, 0
2, 76244, Note_on_c, 0, 63, 0
2, 76320, Note_on_c, 0, 74, 82
2, 76320, Note_on_c, 0, 62, 82
2, 76340, Note_on_c, 0, 74, 0
2, 76340, Note_on_c, 0, 62, 0
2, 76416, Note_on_c, 0, 79, 115
2, 76416, Note_on_c, 0, 67, 115
2, 76681, Note_on_c, 0, 79, 0
2, 76681, Note_on_c, 0, 67, 0
2, 76704, Note_on_c, 0, 69, 56
2, 76771, Note_on_c, 0, 69, 0
2, 76776, Note_on_c, 0, 79, 56
2, 76799, Note_on_c, 0, 79, 0
2, 76800, Note_on_c, 0, 70, 56
2, 76867, Note_on_c, 0, 70, 0
2, 76872, Note_on_c, 0, 77, 56
2, 76895, Note_on_c, 0, 77, 0
2, 76896, Note_on_c, 0, 72, 56
2, 76963, Note_on_c, 0, 72, 0
2, 76968, Note_on_c, 0, 75, 56
2, 76991, Note_on_c, 0, 75, 0
2, 76992, Note_on_c, 0, 70, 56
2, 77059, Note_on_c, 0, 70, 0
2, 77064, Note_on_c, 0, 74, 56
2, 77087, Note_on_c, 0, 74, 0
2, 77088, Note_on_c, 0, 69, 56
2, 77155, Note_on_c, 0, 69, 0
2, 77160, Note_on_c, 0, 72, 56
2, 77183, Note_on_c, 0, 72, 0
2, 77184, Note_on_c, 0, 70, 56
2, 77273, Note_on_c, 0, 70, 0
2, 77376, Note_on_c, 0, 75, 82
2, 77376, Note_on_c, 0, 63, 82
2, 77396, Note_on_c, 0, 75, 0
2, 77396, Note_on_c, 0, 63, 0
2, 77472, Note_on_c, 0, 74, 82
2, 77472, Note_on_c, 0, 62, 82
2, 77492, Note_on_c, 0, 74, 0
2, 77492, Note_on_c, 0, 62, 0
2, 77568, Note_on_c, 0, 79, 115
2, 77568, Note_on_c, 0, 67, 115
2, 77833, Note_on_c, 0, 79, 0
2, 77833, Note_on_c, 0, 67, 0
2, 77856, Note_on_c, 0, 79, 82
2, 77886, Note_on_c, 0, 79, 0
2, 77888, Note_on_c, 0, 72, 80
2, 77918, Note_on_c, 0, 72, 0
2, 77920, Note_on_c, 0, 69, 78
2, 77950, Note_on_c, 0, 69, 0
2, 77952, Note_on_c, 0, 77, 77
2, 77982, Note_on_c, 0, 77, 0
2, 77984, Note_on_c, 0, 74, 75
2, 78014, Note_on_c, 0, 74, 0
2, 78016, Note_on_c, 0, 70, 74
2, 78046, Note_on_c, 0, 70, 0
2, 78048, Note_on_c, 0, 67, 72
2, 78078, Note_on_c, 0, 67, 0
2, 78080, Note_on_c, 0, 75, 71
2, 78110, Note_on_c, 0, 75, 0
2, 78112, Note_on_c, 0, 72, 69
2, 78142, Note_on_c, 0, 72, 0
2, 78144, Note_on_c, 0, 70, 68
2, 78233, Note_on_c, 0, 70, 0
2, 78240, Note_on_c, 0, 69, 63
2, 78253, Note_on_c, 0, 69, 0
2, 78254, Note_on_c, 0, 70, 62
2, 78267, Note_on_c, 0, 70, 0
2, 78268, Note_on_c, 0, 69, 62
2, 78281, Note_on_c, 0, 69, 0
2, 78282, Note_on_c, 0, 70, 61
2, 78295, Note_on_c, 0, 70, 0
2, 78296, Note_on_c, 0, 69, 60
2, 78309, Note_on_c, 0, 69, 0
2, 78310, Note_on_c, 0, 67, 60
2, 78322, Note_on_c, 0, 67, 0
2, 78323, Note_on_c, 0, 69, 59
2, 78335, Note_on_c, 0, 69, 0
2, 78336, Note_on_c, 0, 70, 59
2, 78366, Note_on_c, 0, 70, 0
2, 78368, Note_on_c, 0, 65, 56
2, 78398, Note_on_c, 0, 65, 0
2, 78400, Note_on_c, 0, 74, 55
2, 78430, Note_on_c, 0, 74, 0
2, 78432, Note_on_c, 0, 70, 54
2, 78462, Note_on_c, 0, 70, 0
2, 78464, Note_on_c, 0, 65, 54
2, 78494, Note_on_c, 0, 65, 0
2, 78496, Note_on_c, 0, 74, 53
2, 78526, Note_on_c, 0, 74, 0
2, 78528, Note_on_c, 0, 70, 53
2, 78558, Note_on_c, 0, 70, 0
2, 78560, Note_on_c, 0, 65, 52
2, 78590, Note_on_c, 0, 65, 0
2, 78592, Note_on_c, 0, 74, 52
2, 78622, Note_on_c, 0, 74, 0
2, 78624, Note_on_c, 0, 70, 51
2, 78654, Note_on_c, 0, 70, 0
2, 78656, Note_on_c, 0, 65, 51
2, 78686, Note_on_c, 0, 65, 0
2, 78688, Note_on_c, 0, 74, 50
2, 78718, Note_on_c, 0, 74, 0
2, 78720, Note_on_c, 0, 70, 50
2, 78814, Note_on_c, 0, 70, 0
2, 79104, Note_on_c, 0, 61, 82
2, 79134, Note_on_c, 0, 61, 0
2, 79136, Note_on_c, 0, 56, 82
2, 79166, Note_on_c, 0, 56, 0
2, 79168, Note_on_c, 0, 65, 82
2, 79198, Note_on_c, 0, 65, 0
2, 79200, Note_on_c, 0, 61, 82
2, 79230, Note_on_c, 0, 61, 0
2, 79232, Note_on_c, 0, 56, 82
2, 79262, Note_on_c, 0, 56, 0
2, 79264, Note_on_c, 0, 65, 82
2, 79294, Note_on_c, 0, 65, 0
2, 79296, Note_on_c, 0, 61, 82
2, 79326, Note_on_c, 0, 61, 0
2, 79328, Note_on_c, 0, 56, 82
2, 79358, Note_on_c, 0, 56, 0
2, 79360, Note_on_c, 0, 65, 82
2, 79390, Note_on_c, 0, 65, 0
2, 79392, Note_on_c, 0, 61, 82
2, 79422, Note_on_c, 0, 61, 0
2, 79424, Note_on_c, 0, 56, 82
2, 79454, Note_on_c, 0, 56, 0
2, 79456, Note_on_c, 0, 65, 82
2, 79486, Note_on_c, 0, 65, 0
2, 79488, Note_on_c, 0, 61, 82
2, 79577, Note_on_c, 0, 61, 0
2, 79872, Note_on_c, 0, 68, 56
2, 79902, Note_on_c, 0, 68, 0
2, 79904, Note_on_c, 0, 65, 56
2, 79934, Note_on_c, 0, 65, 0
2, 79936, Note_on_c, 0, 74, 56
2, 79966, Note_on_c, 0, 74, 0
2, 79968, Note_on_c, 0, 68, 56
2, 79998, Note_on_c, 0, 68, 0
2, 80000, Note_on_c, 0, 65, 56
2, 80030, Note_on_c, 0, 65, 0
2, 80032, Note_on_c, 0, 74, 56
2, 80062, Note_on_c, 0, 74, 0
2, 80064, Note_on_c, 0, 68, 56
2, 80094, Note_on_c, 0, 68, 0
2, 80096, Note_on_c, 0, 65, 56
2, 80126, Note_on_c, 0, 65, 0
2, 80128, Note_on_c, 0, 74, 56
2, 80158, Note_on_c, 0, 74, 0
2, 80160, Note_on_c, 0, 68, 56
2, 80190, Note_on_c, 0, 68, 0
2, 80192, Note_on_c, 0, 65, 56
2, 80222, Note_on_c, 0, 65, 0
2, 80224, Note_on_c, 0, 74, 56
2, 80254, Note_on_c, 0, 74, 0
2, 80256, Note_on_c, 0, 68, 56
2, 80345, Note_on_c, 0, 68, 0
2, 80640, Control_c, 0, 64, 127
2, 80640, Note_on_c, 0, 79, 82
2, 80652, Note_on_c, 0, 79, 0
2, 80652, Note_on_c, 0, 82, 82
2, 80664, Note_on_c, 0, 82, 0
2, 80664, Note_on_c, 0, 87, 82
2, 80803, Note_on_c, 0, 87, 0
2, 80808, Control_c, 0, 64, 0
2, 80808, Note_on_c, 0, 86, 82
2, 80832, Note_on_c, 0, 86, 0
2, 80832, Note_on_c, 0, 84, 82
2, 80852, Note_on_c, 0, 84, 0
2, 80904, Note_on_c, 0, 82, 80
2, 80928, Note_on_c, 0, 82, 0
2, 80928, Note_on_c, 0, 80, 80
2, 80948, Note_on_c, 0, 80, 0
2, 81000, Note_on_c, 0, 79, 78
2, 81023, Note_on_c, 0, 79, 0
2, 81024, Note_on_c, 0, 77, 78
2, 81157, Note_on_c, 0, 77, 0
2, 81168, Note_on_c, 0, 77, 75
2, 81191, Note_on_c, 0, 77, 0
2, 81192, Note_on_c, 0, 79, 75
2, 81215, Note_on_c, 0, 79, 0
2, 81216, Note_on_c, 0, 80, 76
2, 81283, Note_on_c, 0, 80, 0
2, 81288, Note_on_c, 0, 79, 78
2, 81300, Note_on_c, 0, 79, 0
2, 81300, Note_on_c, 0, 80, 78
2, 81312, Note_on_c, 0, 80, 0
2, 81312, Note_on_c, 0, 82, 79
2, 81379, Note_on_c, 0, 82, 0
2, 81384, Note_on_c, 0, 80, 81
2, 81396, Note_on_c, 0, 80, 0
2, 81396, Note_on_c, 0, 82, 81
2, 81408, Note_on_c, 0, 82, 0
2, 81408, Note_on_c, 0, 84, 75
2, 81549, Note_on_c, 0, 84, 0
2, 81576, Note_on_c, 0, 82, 71
2, 81600, Note_on_c, 0, 82, 0
2, 81600, Note_on_c, 0, 80, 70
2, 81620, Note_on_c, 0, 80, 0
2, 81672, Note_on_c, 0, 79, 68
2, 81696, Note_on_c, 0, 79, 0
2, 81696, Note_on_c, 0, 77, 68
2, 81716, Note_on_c, 0, 77, 0
2, 81768, Note_on_c, 0, 75, 66
2, 81792, Note_on_c, 0, 75, 0
2, 81792, Note_on_c, 0, 74, 66
2, 81831, Note_on_c, 0, 74, 0
2, 81888, Note_on_c, 0, 80, 99
2, 82080, Note_on_c, 0, 80, 0
2, 82080, Note_on_c, 0, 79, 66
2, 82169, Note_on_c, 0, 79, 0
2, 82176, Note_on_c, 0, 77, 66
2, 82215, Note_on_c, 0, 77, 0
2, 82272, Note_on_c, 0, 84, 99
2, 82464, Note_on_c, 0, 84, 0
2, 82464, Note_on_c, 0, 82, 66
2, 82553, Note_on_c, 0, 82, 0
2, 82592, Note_on_c, 0, 79, 56
2, 82624, Note_on_c, 0, 79, 0
2, 82624, Note_on_c, 0, 80, 58
2, 82654, Note_on_c, 0, 80, 0
2, 82688, Note_on_c, 0, 78, 62
2, 82720, Note_on_c, 0, 78, 0
2, 82720, Note_on_c, 0, 79, 64
2, 82750, Note_on_c, 0, 79, 0
2, 82784, Note_on_c, 0, 76, 68
2, 82816, Note_on_c, 0, 76, 0
2, 82816, Note_on_c, 0, 77, 70
2, 82846, Note_on_c, 0, 77, 0
2, 82880, Note_on_c, 0, 74, 74
2, 82912, Note_on_c, 0, 74, 0
2, 82912, Note_on_c, 0, 75, 76
2, 82942, Note_on_c, 0, 75, 0
2, 82976, Note_on_c, 0, 77, 82
2, 83006, Note_on_c, 0, 77, 0
2, 83008, Note_on_c, 0, 79, 82
2, 83038, Note_on_c, 0, 79, 0
2, 83040, Note_on_c, 0, 80, 82
2, 83070, Note_on_c, 0, 80, 0
2, 83072, Note_on_c, 0, 82, 82
2, 83102, Note_on_c, 0, 82, 0
2, 83104, Note_on_c, 0, 84, 82
2, 83134, Note_on_c, 0, 84, 0
2, 83136, Note_on_c, 0, 82, 82
2, 83166, Note_on_c, 0, 82, 0
2, 83168, Note_on_c, 0, 80, 81
2, 83198, Note_on_c, 0, 80, 0
2, 83200, Note_on_c, 0, 79, 81
2, 83230, Note_on_c, 0, 79, 0
2, 83232, Note_on_c, 0, 77, 81
2, 83262, Note_on_c, 0, 77, 0
2, 83264, Note_on_c, 0, 75, 80
2, 83294, Note_on_c, 0, 75, 0
2, 83296, Note_on_c, 0, 74, 80
2, 83326, Note_on_c, 0, 74, 0
2, 83328, Note_on_c, 0, 75, 80
2, 83358, Note_on_c, 0, 75, 0
2, 83360, Note_on_c, 0, 79, 79
2, 83390, Note_on_c, 0, 79, 0
2, 83392, Note_on_c, 0, 77, 79
2, 83422, Note_on_c, 0, 77, 0
2, 83424, Note_on_c, 0, 75, 79
2, 83454, Note_on_c, 0, 75, 0
2, 83456, Note_on_c, 0, 74, 78
2, 83486, Note_on_c, 0, 74, 0
2, 83488, Note_on_c, 0, 72, 78
2, 83518, Note_on_c, 0, 72, 0
2, 83520, Note_on_c, 0, 70, 78
2, 83550, Note_on_c, 0, 70, 0
2, 83552, Note_on_c, 0, 68, 77
2, 83582, Note_on_c, 0, 68, 0
2, 83584, Note_on_c, 0, 67, 77
2, 83614, Note_on_c, 0, 67, 0
2, 83616, Note_on_c, 0, 65, 77
2, 83646, Note_on_c, 0, 65, 0
2, 83648, Note_on_c, 0, 63, 77
2, 83678, Note_on_c, 0, 63, 0
2, 83680, Note_on_c, 0, 62, 76
2, 83710, Note_on_c, 0, 62, 0
2, 83712, Note_on_c, 0, 63, 76
2, 83801, Note_on_c, 0, 63, 0
2, 83808, Note_on_c, 0, 79, 108
2, 83897, Note_on_c, 0, 79, 0
2, 83952, Note_on_c, 0, 79, 75
2, 83997, Note_on_c, 0, 79, 0
2, 84000, Note_on_c, 0, 81, 75
2, 84012, Note_on_c, 0, 81, 0
2, 84012, Note_on_c, 0, 79, 75
2, 84024, Note_on_c, 0, 79, 0
2, 84024, Note_on_c, 0, 77, 75
2, 84036, Note_on_c, 0, 77, 0
2, 84036, Note_on_c, 0, 79, 75
2, 84067, Note_on_c, 0, 79, 0
2, 84072, Note_on_c, 0, 81, 75
2, 84095, Note_on_c, 0, 81, 0
2, 84096, Note_on_c, 0, 82, 75
2, 84185, Note_on_c, 0, 82, 0
2, 84192, Note_on_c, 0, 82, 108
2, 84355, Note_on_c, 0, 82, 0
2, 84360, Note_on_c, 0, 81, 75
2, 84383, Note_on_c, 0, 81, 0
2, 84384, Note_on_c, 0, 79, 75
2, 84451, Note_on_c, 0, 79, 0
2, 84456, Note_on_c, 0, 77, 75
2, 84479, Note_on_c, 0, 77, 0
2, 84480, Note_on_c, 0, 77, 75
2, 84613, Note_on_c, 0, 77, 0
2, 84624, Note_on_c, 0, 74, 75
2, 84647, Note_on_c, 0, 74, 0
2, 84648, Note_on_c, 0, 75, 75
2, 84671, Note_on_c, 0, 75, 0
2, 84672, Note_on_c, 0, 77, 75
2, 84687, Note_on_c, 0, 77, 0
2, 84688, Note_on_c, 0, 75, 75
2, 84703, Note_on_c, 0, 75, 0
2, 84704, Note_on_c, 0, 77, 75
2, 84719, Note_on_c, 0, 77, 0
2, 84720, Note_on_c, 0, 75, 75
2, 84735, Note_on_c, 0, 75, 0
2, 84736, Note_on_c, 0, 77, 75
2, 84751, Note_on_c, 0, 77, 0
2, 84752, Note_on_c, 0, 75, 75
2, 84767, Note_on_c, 0, 75, 0
2, 84768, Note_on_c, 0, 77, 75
2, 84783, Note_on_c, 0, 77, 0
2, 84784, Note_on_c, 0, 75, 75
2, 84799, Note_on_c, 0, 75, 0
2, 84800, Note_on_c, 0, 74, 75
2, 84831, Note_on_c, 0, 74, 0
2, 84832, Note_on_c, 0, 75, 75
2, 84863, Note_on_c, 0, 75, 0
2, 84864, Note_on_c, 0, 74, 91
2, 84960, Note_on_c, 0, 74, 0
2, 84960, Note_on_c, 0, 74, 75
2, 85049, Note_on_c, 0, 74, 0
2, 85088, Note_on_c, 0, 74, 75
2, 85118, Note_on_c, 0, 74, 0
2, 85120, Note_on_c, 0, 75, 75
2, 85150, Note_on_c, 0, 75, 0
2, 85152, Note_on_c, 0, 77, 75
2, 85182, Note_on_c, 0, 77, 0
2, 85184, Note_on_c, 0, 75, 75
2, 85214, Note_on_c, 0, 75, 0
2, 85216, Note_on_c, 0, 74, 75
2, 85246, Note_on_c, 0, 74, 0
2, 85248, Note_on_c, 0, 72, 75
2, 85278, Note_on_c, 0, 72, 0
2, 85280, Note_on_c, 0, 75, 75
2, 85310, Note_on_c, 0, 75, 0
2, 85312, Note_on_c, 0, 74, 76
2, 85342, Note_on_c, 0, 74, 0
2, 85344, Note_on_c, 0, 72, 76
2, 85374, Note_on_c, 0, 72, 0
2, 85376, Note_on_c, 0, 75, 77
2, 85406, Note_on_c, 0, 75, 0
2, 85408, Note_on_c, 0, 77, 77
2, 85438, Note_on_c, 0, 77, 0
2, 85440, Note_on_c, 0, 79, 78
2, 85470, Note_on_c, 0, 79, 0
2, 85472, Note_on_c, 0, 77, 78
2, 85502, Note_on_c, 0, 77, 0
2, 85504, Note_on_c, 0, 75, 79
2, 85534, Note_on_c, 0, 75, 0
2, 85536, Note_on_c, 0, 74, 79
2, 85566, Note_on_c, 0, 74, 0
2, 85568, Note_on_c, 0, 72, 80
2, 85598, Note_on_c, 0, 72, 0
2, 85600, Note_on_c, 0, 70, 80
2, 85630, Note_on_c, 0, 70, 0
2, 85632, Note_on_c, 0, 69, 81
2, 85662, Note_on_c, 0, 69, 0
2, 85664, Note_on_c, 0, 72, 82
2, 85694, Note_on_c, 0, 72, 0
2, 85696, Note_on_c, 0, 70, 82
2, 85726, Note_on_c, 0, 70, 0
2, 85728, Note_on_c, 0, 74, 82
2, 85758, Note_on_c, 0, 74, 0
2, 85760, Note_on_c, 0, 72, 82
2, 85790, Note_on_c, 0, 72, 0
2, 85792, Note_on_c, 0, 75, 82
2, 85822, Note_on_c, 0, 75, 0
2, 85824, Note_on_c, 0, 74, 82
2, 85854, Note_on_c, 0, 74, 0
2, 85856, Note_on_c, 0, 77, 82
2, 85886, Note_on_c, 0, 77, 0
2, 85888, Note_on_c, 0, 75, 82
2, 85918, Note_on_c, 0, 75, 0
2, 85920, Note_on_c, 0, 74, 82
2, 85950, Note_on_c, 0, 74, 0
2, 85952, Note_on_c, 0, 72, 82
2, 85982, Note_on_c, 0, 72, 0
2, 85984, Note_on_c, 0, 70, 82
2, 86014, Note_on_c, 0, 70, 0
2, 86016, Note_on_c, 0, 69, 82
2, 86046, Note_on_c, 0, 69, 0
2, 86048, Note_on_c, 0, 72, 82
2, 86078, Note_on_c, 0, 72, 0
2, 86080, Note_on_c, 0, 70, 82
2, 86110, Note_on_c, 0, 70, 0
2, 86112, Note_on_c, 0, 74, 82
2, 86142, Note_on_c, 0, 74, 0
2, 86144, Note_on_c, 0, 72, 82
2, 86174, Note_on_c, 0, 72, 0
2, 86176, Note_on_c, 0, 75, 82
2, 86206, Note_on_c, 0, 75, 0
2, 86208, Note_on_c, 0, 74, 82
2, 86238, Note_on_c, 0, 74, 0
2, 86240, Note_on_c, 0, 77, 82
2, 86270, Note_on_c, 0, 77, 0
2, 86272, Note_on_c, 0, 75, 82
2, 86302, Note_on_c, 0, 75, 0
2, 86304, Note_on_c, 0, 74, 82
2, 86334, Note_on_c, 0, 74, 0
2, 86336, Note_on_c, 0, 72, 82
2, 86366, Note_on_c, 0, 72, 0
2, 86368, Note_on_c, 0, 70, 82
2, 86398, Note_on_c, 0, 70, 0
2, 86400, Note_on_c, 0, 69, 82
2, 86430, Note_on_c, 0, 69, 0
2, 86432, Note_on_c, 0, 72, 82
2, 86462, Note_on_c, 0, 72, 0
2, 86464, Note_on_c, 0, 70, 82
2, 86494, Note_on_c, 0, 70, 0
2, 86496, Note_on_c, 0, 74, 82
2, 86526, Note_on_c, 0, 74, 0
2, 86528, Note_on_c, 0, 72, 82
2, 86558, Note_on_c, 0, 72, 0
2, 86560, Note_on_c, 0, 75, 82
2, 86590, Note_on_c, 0, 75, 0
2, 86592, Note_on_c, 0, 74, 82
2, 86622, Note_on_c, 0, 74, 0
2, 86624, Note_on_c, 0, 72, 82
2, 86654, Note_on_c, 0, 72, 0
2, 86656, Note_on_c, 0, 81, 82
2, 86686, Note_on_c, 0, 81, 0
2, 86688, Note_on_c, 0, 79, 82
2, 86718, Note_on_c, 0, 79, 0
2, 86720, Note_on_c, 0, 78, 82
2, 86750, Note_on_c, 0, 78, 0
2, 86752, Note_on_c, 0, 84, 82
2, 86782, Note_on_c, 0, 84, 0
2, 86784, Note_on_c, 0, 82, 82
2, 86814, Note_on_c, 0, 82, 0
2, 86816, Note_on_c, 0, 81, 82
2, 86846, Note_on_c, 0, 81, 0
2, 86848, Note_on_c, 0, 87, 82
2, 86878, Note_on_c, 0, 87, 0
2, 86880, Note_on_c, 0, 86, 82
2, 86910, Note_on_c, 0, 86, 0
2, 86912, Note_on_c, 0, 84, 82
2, 86942, Note_on_c, 0, 84, 0
2, 86944, Note_on_c, 0, 82, 82
2, 86974, Note_on_c, 0, 82, 0
2, 86976, Note_on_c, 0, 81, 82
2, 87006, Note_on_c, 0, 81, 0
2, 87008, Note_on_c, 0, 79, 82
2, 87038, Note_on_c, 0, 79, 0
2, 87040, Note_on_c, 0, 78, 82
2, 87070, Note_on_c, 0, 78, 0
2, 87072, Note_on_c, 0, 81, 82
2, 87102, Note_on_c, 0, 81, 0
2, 87104, Note_on_c, 0, 78, 82
2, 87134, Note_on_c, 0, 78, 0
2, 87136, Note_on_c, 0, 72, 82
2, 87166, Note_on_c, 0, 72, 0
2, 87168, Note_on_c, 0, 70, 82
2, 87257, Note_on_c, 0, 70, 0
2, 87264, Note_on_c, 0, 86, 115
2, 87427, Note_on_c, 0, 86, 0
2, 87432, Note_on_c, 0, 78, 82
2, 87455, Note_on_c, 0, 78, 0
2, 87456, Note_on_c, 0, 78, 82
2, 87469, Note_on_c, 0, 78, 0
2, 87470, Note_on_c, 0, 79, 82
2, 87483, Note_on_c, 0, 79, 0
2, 87484, Note_on_c, 0, 78, 82
2, 87497, Note_on_c, 0, 78, 0
2, 87498, Note_on_c, 0, 79, 82
2, 87511, Note_on_c, 0, 79, 0
2, 87512, Note_on_c, 0, 78, 82
2, 87525, Note_on_c, 0, 78, 0
2, 87526, Note_on_c, 0, 75, 82
2, 87538, Note_on_c, 0, 75, 0
2, 87539, Note_on_c, 0, 78, 82
2, 87551, Note_on_c, 0, 78, 0
2, 87552, Note_on_c, 0, 79, 82
2, 87648, Note_on_c, 0, 79, 0
2, 87648, Note_on_c, 0, 82, 82
2, 87737, Note_on_c, 0, 82, 0
2, 87816, Note_on_c, 0, 81, 82
2, 87839, Note_on_c, 0, 81, 0
2, 87840, Note_on_c, 0, 81, 82
2, 87853, Note_on_c, 0, 81, 0
2, 87854, Note_on_c, 0, 82, 82
2, 87867, Note_on_c, 0, 82, 0
2, 87868, Note_on_c, 0, 81, 82
2, 87881, Note_on_c, 0, 81, 0
2, 87882, Note_on_c, 0, 82, 82
2, 87895, Note_on_c, 0, 82, 0
2, 87896, Note_on_c, 0, 81, 82
2, 87909, Note_on_c, 0, 81, 0
2, 87910, Note_on_c, 0, 79, 82
2, 87922, Note_on_c, 0, 79, 0
2, 87923, Note_on_c, 0, 81, 82
2, 87935, Note_on_c, 0, 81, 0
2, 87936, Note_on_c, 0, 82, 82
2, 88025, Note_on_c, 0, 82, 0
2, 88032, Note_on_c, 0, 86, 127
2, 88158, Note_on_c, 0, 86, 0
2, 88160, Note_on_c, 0, 84, 82
2, 88190, Note_on_c, 0, 84, 0
2, 88192, Note_on_c, 0, 82, 82
2, 88222, Note_on_c, 0, 82, 0
2, 88224, Note_on_c, 0, 81, 82
2, 88254, Note_on_c, 0, 81, 0
2, 88256, Note_on_c, 0, 79, 82
2, 88286, Note_on_c, 0, 79, 0
2, 88288, Note_on_c, 0, 78, 82
2, 88318, Note_on_c, 0, 78, 0
2, 88320, Note_on_c, 0, 79, 82
2, 88387, Note_on_c, 0, 79, 0
2, 88392, Note_on_c, 0, 79, 82
2, 88415, Note_on_c, 0, 79, 0
2, 88416, Note_on_c, 0, 79, 82
2, 88429, Note_on_c, 0, 79, 0
2, 88430, Note_on_c, 0, 81, 82
2, 88443, Note_on_c, 0, 81, 0
2, 88444, Note_on_c, 0, 79, 82
2, 88457, Note_on_c, 0, 79, 0
2, 88458, Note_on_c, 0, 81, 82
2, 88471, Note_on_c, 0, 81, 0
2, 88472, Note_on_c, 0, 79, 82
2, 88485, Note_on_c, 0, 79, 0
2, 88486, Note_on_c, 0, 78, 82
2, 88498, Note_on_c, 0, 78, 0
2, 88499, Note_on_c, 0, 79, 83
2, 88511, Note_on_c, 0, 79, 0
2, 88512, Note_on_c, 0, 81, 83
2, 88579, Note_on_c, 0, 81, 0
2, 88584, Note_on_c, 0, 81, 84
2, 88607, Note_on_c, 0, 81, 0
2, 88608, Note_on_c, 0, 81, 84
2, 88621, Note_on_c, 0, 81, 0
2, 88622, Note_on_c, 0, 82, 84
2, 88635, Note_on_c, 0, 82, 0
2, 88636, Note_on_c, 0, 81, 84
2, 88649, Note_on_c, 0, 81, 0
2, 88650, Note_on_c, 0, 82, 84
2, 88663, Note_on_c, 0, 82, 0
2, 88664, Note_on_c, 0, 81, 84
2, 88677, Note_on_c, 0, 81, 0
2, 88678, Note_on_c, 0, 79, 85
2, 88690, Note_on_c, 0, 79, 0
2, 88691, Note_on_c, 0, 81, 85
2, 88703, Note_on_c, 0, 81, 0
2, 88704, Note_on_c, 0, 82, 85
2, 88771, Note_on_c, 0, 82, 0
2, 88776, Note_on_c, 0, 82, 86
2, 88799, Note_on_c, 0, 82, 0
2, 88800, Note_on_c, 0, 82, 86
2, 88813, Note_on_c, 0, 82, 0
2, 88814, Note_on_c, 0, 84, 86
2, 88827, Note_on_c, 0, 84, 0
2, 88828, Note_on_c, 0, 82, 86
2, 88841, Note_on_c, 0, 82, 0
2, 88842, Note_on_c, 0, 84, 86
2, 88855, Note_on_c, 0, 84, 0
2, 88856, Note_on_c, 0, 82, 86
2, 88869, Note_on_c, 0, 82, 0
2, 88870, Note_on_c, 0, 81, 87
2, 88882, Note_on_c, 0, 81, 0
2, 88883, Note_on_c, 0, 82, 87
2, 88895, Note_on_c, 0, 82, 0
2, 88896, Note_on_c, 0, 84, 87
2, 88963, Note_on_c, 0, 84, 0
2, 88968, Note_on_c, 0, 84, 88
2, 88991, Note_on_c, 0, 84, 0
2, 88992, Note_on_c, 0, 84, 88
2, 89005, Note_on_c, 0, 84, 0
2, 89006, Note_on_c, 0, 86, 88
2, 89019, Note_on_c, 0, 86, 0
2, 89020, Note_on_c, 0, 84, 88
2, 89033, Note_on_c, 0, 84, 0
2, 89034, Note_on_c, 0, 86, 88
2, 89047, Note_on_c, 0, 86, 0
2, 89048, Note_on_c, 0, 84, 89
2, 89061, Note_on_c, 0, 84, 0
2, 89062, Note_on_c, 0, 82, 89
2, 89074, Note_on_c, 0, 82, 0
2, 89075, Note_on_c, 0, 84, 89
2, 89087, Note_on_c, 0, 84, 0
2, 89088, Note_on_c, 0, 86, 90
2, 89133, Note_on_c, 0, 86, 0
2, 89160, Note_on_c, 0, 86, 90
2, 89172, Note_on_c, 0, 86, 0
2, 89172, Note_on_c, 0, 84, 90
2, 89184, Note_on_c, 0, 84, 0
2, 89184, Note_on_c, 0, 82, 90
2, 89231, Note_on_c, 0, 82, 0
2, 89256, Note_on_c, 0, 82, 90
2, 89268, Note_on_c, 0, 82, 0
2, 89268, Note_on_c, 0, 81, 90
2, 89280, Note_on_c, 0, 81, 0
2, 89280, Note_on_c, 0, 79, 90
2, 89327, Note_on_c, 0, 79, 0
2, 89352, Note_on_c, 0, 82, 90
2, 89364, Note_on_c, 0, 82, 0
2, 89364, Note_on_c, 0, 81, 90
2, 89376, Note_on_c, 0, 81, 0
2, 89376, Note_on_c, 0, 79, 90
2, 89423, Note_on_c, 0, 79, 0
2, 89448, Note_on_c, 0, 79, 90
2, 89460, Note_on_c, 0, 79, 0
2, 89460, Note_on_c, 0, 77, 90
2, 89472, Note_on_c, 0, 77, 0
2, 89472, Note_on_c, 0, 75, 90
2, 89517, Note_on_c, 0, 75, 0
2, 89544, Note_on_c, 0, 79, 82
2, 89556, Note_on_c, 0, 79, 0
2, 89556, Note_on_c, 0, 77, 82
2, 89568, Note_on_c, 0, 77, 0
2, 89568, Note_on_c, 0, 75, 82
2, 89615, Note_on_c, 0, 75, 0
2, 89640, Note_on_c, 0, 75, 82
2, 89652, Note_on_c, 0, 75, 0
2, 89652, Note_on_c, 0, 74, 82
2, 89664, Note_on_c, 0, 74, 0
2, 89664, Note_on_c, 0, 72, 82
2, 89711, Note_on_c, 0, 72, 0
2, 89736, Note_on_c, 0, 72, 82
2, 89748, Note_on_c, 0, 72, 0
2, 89748, Note_on_c, 0, 70, 82
2, 89760, Note_on_c, 0, 70, 0
2, 89760, Note_on_c, 0, 69, 82
2, 89807, Note_on_c, 0, 69, 0
2, 89832, Note_on_c, 0, 69, 82
2, 89844, Note_on_c, 0, 69, 0
2, 89844, Note_on_c, 0, 67, 82
2, 89856, Note_on_c, 0, 67, 0
2, 89856, Note_on_c, 0, 66, 82
2, 89945, Note_on_c, 0, 66, 0
2, 89984, Note_on_c, 0, 55, 82
2, 90016, Note_on_c, 0, 55, 0
2, 90016, Note_on_c, 0, 67, 82
2, 90046, Note_on_c, 0, 67, 0
2, 90080, Note_on_c, 0, 57, 82
2, 90112, Note_on_c, 0, 57, 0
2, 90112, Note_on_c, 0, 67, 82
2, 90142, Note_on_c, 0, 67, 0
2, 90176, Note_on_c, 0, 57, 82
2, 90208, Note_on_c, 0, 57, 0
2, 90208, Note_on_c, 0, 66, 82
2, 90238, Note_on_c, 0, 66, 0
2, 90272, Note_on_c, 0, 67, 75
2, 90302, Note_on_c, 0, 67, 0
2, 90304, Note_on_c, 0, 68, 75
2, 90334, Note_on_c, 0, 68, 0
2, 90336, Note_on_c, 0, 69, 75
2, 90366, Note_on_c, 0, 69, 0
2, 90368, Note_on_c, 0, 70, 75
2, 90398, Note_on_c, 0, 70, 0
2, 90400, Note_on_c, 0, 71, 75
2, 90430, Note_on_c, 0, 71, 0
2, 90432, Note_on_c, 0, 72, 75
2, 90521, Note_on_c, 0, 72, 0
2, 90656, Note_on_c, 0, 67, 75
2, 90686, Note_on_c, 0, 67, 0
2, 90688, Note_on_c, 0, 68, 75
2, 90718, Note_on_c, 0, 68, 0
2, 90720, Note_on_c, 0, 69, 75
2, 90750, Note_on_c, 0, 69, 0
2, 90752, Note_on_c, 0, 70, 75
2, 90782, Note_on_c, 0, 70, 0
2, 90784, Note_on_c, 0, 71, 75
2, 90814, Note_on_c, 0, 71, 0
2, 90816, Note_on_c, 0, 72, 75
2, 90905, Note_on_c, 0, 72, 0
2, 91040, Note_on_c, 0, 69, 75
2, 91070, Note_on_c, 0, 69, 0
2, 91072, Note_on_c, 0, 70, 75
2, 91102, Note_on_c, 0, 70, 0
2, 91104, Note_on_c, 0, 71, 75
2, 91134, Note_on_c, 0, 71, 0
2, 91136, Note_on_c, 0, 72, 75
2, 91166, Note_on_c, 0, 72, 0
2, 91168, Note_on_c, 0, 74, 75
2, 91198, Note_on_c, 0, 74, 0
2, 91200, Note_on_c, 0, 75, 75
2, 91289, Note_on_c, 0, 75, 0
2, 91424, Note_on_c, 0, 72, 75
2, 91454, Note_on_c, 0, 72, 0
2, 91456, Note_on_c, 0, 73, 75
2, 91486, Note_on_c, 0, 73, 0
2, 91488, Note_on_c, 0, 74, 75
2, 91518, Note_on_c, 0, 74, 0
2, 91520, Note_on_c, 0, 75, 75
2, 91550, Note_on_c, 0, 75, 0
2, 91552, Note_on_c, 0, 76, 75
2, 91582, Note_on_c, 0, 76, 0
2, 91584, Note_on_c, 0, 77, 75
2, 91673, Note_on_c, 0, 77, 0
2, 91808, Note_on_c, 0, 77, 75
2, 91838, Note_on_c, 0, 77, 0
2, 91840, Note_on_c, 0, 78, 75
2, 91870, Note_on_c, 0, 78, 0
2, 91872, Note_on_c, 0, 79, 75
2, 91902, Note_on_c, 0, 79, 0
2, 91904, Note_on_c, 0, 80, 75
2, 91934, Note_on_c, 0, 80, 0
2, 91936, Note_on_c, 0, 81, 75
2, 91966, Note_on_c, 0, 81, 0
2, 91968, Note_on_c, 0, 82, 75
2, 91998, Note_on_c, 0, 82, 0
2, 92000, Note_on_c, 0, 81, 75
2, 92030, Note_on_c, 0, 81, 0
2, 92032, Note_on_c, 0, 82, 75
2, 92062, Note_on_c, 0, 82, 0
2, 92064, Note_on_c, 0, 86, 75
2, 92094, Note_on_c, 0, 86, 0
2, 92096, Note_on_c, 0, 82, 75
2, 92126, Note_on_c, 0, 82, 0
2, 92128, Note_on_c, 0, 77, 75
2, 92158, Note_on_c, 0, 77, 0
2, 92160, Note_on_c, 0, 78, 75
2, 92190, Note_on_c, 0, 78, 0
2, 92192, Note_on_c, 0, 79, 75
2, 92222, Note_on_c, 0, 79, 0
2, 92224, Note_on_c, 0, 82, 76
2, 92254, Note_on_c, 0, 82, 0
2, 92256, Note_on_c, 0, 74, 76
2, 92286, Note_on_c, 0, 74, 0
2, 92288, Note_on_c, 0, 75, 77
2, 92318, Note_on_c, 0, 75, 0
2, 92320, Note_on_c, 0, 79, 77
2, 92350, Note_on_c, 0, 79, 0
2, 92352, Note_on_c, 0, 71, 78
2, 92382, Note_on_c, 0, 71, 0
2, 92384, Note_on_c, 0, 72, 78
2, 92414, Note_on_c, 0, 72, 0
2, 92416, Note_on_c, 0, 75, 79
2, 92446, Note_on_c, 0, 75, 0
2, 92448, Note_on_c, 0, 67, 79
2, 92478, Note_on_c, 0, 67, 0
2, 92480, Note_on_c, 0, 72, 80
2, 92510, Note_on_c, 0, 72, 0
2, 92512, Note_on_c, 0, 70, 81
2, 92542, Note_on_c, 0, 70, 0
2, 92544, Note_on_c, 0, 69, 82
2, 92574, Note_on_c, 0, 69, 0
2, 92576, Note_on_c, 0, 72, 82
2, 92606, Note_on_c, 0, 72, 0
2, 92608, Note_on_c, 0, 70, 82
2, 92638, Note_on_c, 0, 70, 0
2, 92640, Note_on_c, 0, 74, 82
2, 92670, Note_on_c, 0, 74, 0
2, 92672, Note_on_c, 0, 72, 82
2, 92702, Note_on_c, 0, 72, 0
2, 92704, Note_on_c, 0, 75, 82
2, 92734, Note_on_c, 0, 75, 0
2, 92736, Note_on_c, 0, 74, 82
2, 92766, Note_on_c, 0, 74, 0
2, 92768, Note_on_c, 0, 77, 82
2, 92798, Note_on_c, 0, 77, 0
2, 92800, Note_on_c, 0, 75, 82
2, 92830, Note_on_c, 0, 75, 0
2, 92832, Note_on_c, 0, 79, 82
2, 92862, Note_on_c, 0, 79, 0
2, 92864, Note_on_c, 0, 77, 82
2, 92894, Note_on_c, 0, 77, 0
2, 92896, Note_on_c, 0, 75, 82
2, 92926, Note_on_c, 0, 75, 0
2, 92928, Note_on_c, 0, 74, 82
2, 92958, Note_on_c, 0, 74, 0
2, 92960, Note_on_c, 0, 72, 82
2, 92990, Note_on_c, 0, 72, 0
2, 92992, Note_on_c, 0, 70, 82
2, 93022, Note_on_c, 0, 70, 0
2, 93024, Note_on_c, 0, 69, 82
2, 93054, Note_on_c, 0, 69, 0
2, 93056, Note_on_c, 0, 72, 82
2, 93086, Note_on_c, 0, 72, 0
2, 93088, Note_on_c, 0, 70, 82
2, 93118, Note_on_c, 0, 70, 0
2, 93120, Note_on_c, 0, 74, 82
2, 93150, Note_on_c, 0, 74, 0
2, 93152, Note_on_c, 0, 72, 82
2, 93182, Note_on_c, 0, 72, 0
2, 93184, Note_on_c, 0, 75, 82
2, 93214, Note_on_c, 0, 75, 0
2, 93216, Note_on_c, 0, 74, 82
2, 93246, Note_on_c, 0, 74, 0
2, 93248, Note_on_c, 0, 77, 82
2, 93278, Note_on_c, 0, 77, 0
2, 93280, Note_on_c, 0, 75, 82
2, 93310, Note_on_c, 0, 75, 0
2, 93312, Note_on_c, 0, 79, 115
2, 93342, Note_on_c, 0, 79, 0
2, 93344, Note_on_c, 0, 77, 82
2, 93374, Note_on_c, 0, 77, 0
2, 93376, Note_on_c, 0, 75, 82
2, 93406, Note_on_c, 0, 75, 0
2, 93408, Note_on_c, 0, 74, 82
2, 93438, Note_on_c, 0, 74, 0
2, 93440, Note_on_c, 0, 72, 82
2, 93470, Note_on_c, 0, 72, 0
2, 93472, Note_on_c, 0, 70, 82
2, 93502, Note_on_c, 0, 70, 0
2, 93504, Note_on_c, 0, 69, 82
2, 93534, Note_on_c, 0, 69, 0
2, 93536, Note_on_c, 0, 72, 82
2, 93566, Note_on_c, 0, 72, 0
2, 93568, Note_on_c, 0, 70, 82
2, 93598, Note_on_c, 0, 70, 0
2, 93600, Note_on_c, 0, 74, 82
2, 93630, Note_on_c, 0, 74, 0
2, 93632, Note_on_c, 0, 72, 82
2, 93662, Note_on_c, 0, 72, 0
2, 93664, Note_on_c, 0, 75, 82
2, 93694, Note_on_c, 0, 75, 0
2, 93696, Note_on_c, 0, 74, 82
2, 93726, Note_on_c, 0, 74, 0
2, 93728, Note_on_c, 0, 77, 82
2, 93758, Note_on_c, 0, 77, 0
2, 93760, Note_on_c, 0, 75, 82
2, 93790, Note_on_c, 0, 75, 0
2, 93792, Note_on_c, 0, 79, 82
2, 93822, Note_on_c, 0, 79, 0
2, 93824, Note_on_c, 0, 77, 82
2, 93854, Note_on_c, 0, 77, 0
2, 93856, Note_on_c, 0, 81, 82
2, 93886, Note_on_c, 0, 81, 0
2, 93888, Note_on_c, 0, 79, 82
2, 93918, Note_on_c, 0, 79, 0
2, 93920, Note_on_c, 0, 82, 82
2, 93950, Note_on_c, 0, 82, 0
2, 93952, Note_on_c, 0, 81, 82
2, 93982, Note_on_c, 0, 81, 0
2, 93984, Note_on_c, 0, 84, 82
2, 94014, Note_on_c, 0, 84, 0
2, 94016, Note_on_c, 0, 82, 82
2, 94046, Note_on_c, 0, 82, 0
2, 94048, Note_on_c, 0, 86, 82
2, 94078, Note_on_c, 0, 86, 0
2, 94080, Note_on_c, 0, 84, 82
2, 94110, Note_on_c, 0, 84, 0
2, 94112, Note_on_c, 0, 87, 82
2, 94142, Note_on_c, 0, 87, 0
2, 94144, Note_on_c, 0, 86, 82
2, 94174, Note_on_c, 0, 86, 0
2, 94176, Note_on_c, 0, 89, 82
2, 94221, Note_on_c, 0, 89, 0
2, 94224, Note_on_c, 0, 87, 82
2, 94269, Note_on_c, 0, 87, 0
2, 94272, Note_on_c, 0, 86, 82
2, 94317, Note_on_c, 0, 86, 0
2, 94320, Note_on_c, 0, 84, 82
2, 94365, Note_on_c, 0, 84, 0
2, 94368, Note_on_c, 0, 82, 82
2, 94413, Note_on_c, 0, 82, 0
2, 94416, Note_on_c, 0, 81, 82
2, 94461, Note_on_c, 0, 81, 0
2, 94464, Note_on_c, 0, 80, 82
2, 94509, Note_on_c, 0, 80, 0
2, 94512, Note_on_c, 0, 79, 82
2, 94557, Note_on_c, 0, 79, 0
2, 94560, Note_on_c, 0, 78, 82
2, 94605, Note_on_c, 0, 78, 0
2, 94608, Note_on_c, 0, 77, 82
2, 94653, Note_on_c, 0, 77, 0
2, 94656, Note_on_c, 0, 76, 82
2, 94745, Note_on_c, 0, 76, 0
2, 94752, Note_on_c, 0, 75, 82
2, 94841, Note_on_c, 0, 75, 0
2, 94848, Control_c, 0, 64, 127
2, 94848, Note_on_c, 0, 74, 82
2, 94866, Note_on_c, 0, 74, 0
2, 94866, Note_on_c, 0, 77, 82
2, 94884, Note_on_c, 0, 77, 0
2, 94884, Note_on_c, 0, 82, 82
2, 95011, Note_on_c, 0, 82, 0
2, 95016, Control_c, 0, 64, 0
2, 95016, Note_on_c, 0, 81, 80
2, 95040, Note_on_c, 0, 81, 0
2, 95040, Note_on_c, 0, 79, 80
2, 95060, Note_on_c, 0, 79, 0
2, 95112, Note_on_c, 0, 77, 79
2, 95136, Note_on_c, 0, 77, 0
2, 95136, Note_on_c, 0, 75, 78
2, 95156, Note_on_c, 0, 75, 0
2, 95208, Note_on_c, 0, 74, 77
2, 95231, Note_on_c, 0, 74, 0
2, 95232, Note_on_c, 0, 72, 77
2, 95365, Note_on_c, 0, 72, 0
2, 95376, Note_on_c, 0, 72, 75
2, 95399, Note_on_c, 0, 72, 0
2, 95400, Note_on_c, 0, 74, 75
2, 95423, Note_on_c, 0, 74, 0
2, 95424, Note_on_c, 0, 75, 76
2, 95491, Note_on_c, 0, 75, 0
2, 95496, Note_on_c, 0, 74, 78
2, 95508, Note_on_c, 0, 74, 0
2, 95508, Note_on_c, 0, 75, 78
2, 95520, Note_on_c, 0, 75, 0
2, 95520, Note_on_c, 0, 77, 79
2, 95587, Note_on_c, 0, 77, 0
2, 95592, Note_on_c, 0, 75, 81
2, 95604, Note_on_c, 0, 75, 0
2, 95604, Note_on_c, 0, 77, 81
2, 95616, Note_on_c, 0, 77, 0
2, 95616, Note_on_c, 0, 79, 82
2, 95757, Note_on_c, 0, 79, 0
2, 95784, Note_on_c, 0, 77, 82
2, 95808, Note_on_c, 0, 77, 0
2, 95808, Note_on_c, 0, 75, 82
2, 95828, Note_on_c, 0, 75, 0
2, 95880, Note_on_c, 0, 74, 82
2, 95904, Note_on_c, 0, 74, 0
2, 95904, Note_on_c, 0, 72, 82
2, 95924, Note_on_c, 0, 72, 0
2, 95976, Note_on_c, 0, 70, 82
2, 95999, Note_on_c, 0, 70, 0
2, 96000, Note_on_c, 0, 69, 82
2, 96039, Note_on_c, 0, 69, 0
2, 96096, Note_on_c, 0, 75, 115
2, 96288, Note_on_c, 0, 75, 0
2, 96288, Note_on_c, 0, 74, 82
2, 96377, Note_on_c, 0, 74, 0
2, 96384, Note_on_c, 0, 72, 82
2, 96423, Note_on_c, 0, 72, 0
2, 96480, Note_on_c, 0, 79, 115
2, 96672, Note_on_c, 0, 79, 0
2, 96672, Note_on_c, 0, 77, 82
2, 96761, Note_on_c, 0, 77, 0
2, 96768, Note_on_c, 0, 87, 98
2, 96792, Note_on_c, 0, 87, 0
2, 96792, Note_on_c, 0, 89, 82
2, 96815, Note_on_c, 0, 89, 0
2, 96816, Note_on_c, 0, 87, 82
2, 96839, Note_on_c, 0, 87, 0
2, 96840, Note_on_c, 0, 86, 82
2, 96863, Note_on_c, 0, 86, 0
2, 96864, Note_on_c, 0, 84, 82
2, 96887, Note_on_c, 0, 84, 0
2, 96888, Note_on_c, 0, 86, 82
2, 96911, Note_on_c, 0, 86, 0
2, 96912, Note_on_c, 0, 84, 82
2, 96935, Note_on_c, 0, 84, 0
2, 96936, Note_on_c, 0, 82, 82
2, 96959, Note_on_c, 0, 82, 0
2, 96960, Note_on_c, 0, 81, 82
2, 96983, Note_on_c, 0, 81, 0
2, 96984, Note_on_c, 0, 82, 82
2, 97007, Note_on_c, 0, 82, 0
2, 97008, Note_on_c, 0, 81, 82
2, 97031, Note_on_c, 0, 81, 0
2, 97032, Note_on_c, 0, 79, 82
2, 97055, Note_on_c, 0, 79, 0
2, 97056, Note_on_c, 0, 77, 82
2, 97079, Note_on_c, 0, 77, 0
2, 97080, Note_on_c, 0, 79, 82
2, 97103, Note_on_c, 0, 79, 0
2, 97104, Note_on_c, 0, 77, 82
2, 97127, Note_on_c, 0, 77, 0
2, 97128, Note_on_c, 0, 75, 82
2, 97151, Note_on_c, 0, 75, 0
2, 97152, Note_on_c, 0, 74, 82
2, 97219, Note_on_c, 0, 74, 0
2, 97224, Note_on_c, 0, 77, 80
2, 97247, Note_on_c, 0, 77, 0
2, 97248, Note_on_c, 0, 75, 80
2, 97315, Note_on_c, 0, 75, 0
2, 97320, Note_on_c, 0, 72, 78
2, 97343, Note_on_c, 0, 72, 0
2, 97344, Note_on_c, 0, 74, 78
2, 97411, Note_on_c, 0, 74, 0
2, 97416, Note_on_c, 0, 70, 77
2, 97439, Note_on_c, 0, 70, 0
2, 97440, Note_on_c, 0, 72, 76
2, 97507, Note_on_c, 0, 72, 0
2, 97512, Note_on_c, 0, 69, 75
2, 97535, Note_on_c, 0, 69, 0
2, 97536, Note_on_c, 0, 70, 75
2, 97669, Note_on_c, 0, 70, 0
2, 97800, Note_on_c, 0, 58, 75
2, 97823, Note_on_c, 0, 58, 0
2, 97824, Note_on_c, 0, 60, 75
2, 97830, Note_on_c, 0, 60, 0
2, 97830, Note_on_c, 0, 58, 75
2, 97847, Note_on_c, 0, 58, 0
2, 97848, Note_on_c, 0, 57, 75
2, 97871, Note_on_c, 0, 57, 0
2, 97872, Note_on_c, 0, 58, 75
2, 97895, Note_on_c, 0, 58, 0
2, 97896, Note_on_c, 0, 60, 75
2, 97919, Note_on_c, 0, 60, 0
2, 97920, Note_on_c, 0, 62, 75
2, 97987, Note_on_c, 0, 62, 0
2, 97992, Note_on_c, 0, 58, 75
2, 98015, Note_on_c, 0, 58, 0
2, 98016, Note_on_c, 0, 63, 75
2, 98083, Note_on_c, 0, 63, 0
2, 98088, Note_on_c, 0, 60, 77
2, 98111, Note_on_c, 0, 60, 0
2, 98112, Note_on_c, 0, 65, 77
2, 98179, Note_on_c, 0, 65, 0
2, 98184, Note_on_c, 0, 62, 79
2, 98207, Note_on_c, 0, 62, 0
2, 98208, Note_on_c, 0, 70, 79
2, 98237, Note_on_c, 0, 70, 0
2, 98280, Note_on_c, 0, 70, 81
2, 98280, Note_on_c, 0, 62, 81
2, 98303, Note_on_c, 0, 70, 0
2, 98303, Note_on_c, 0, 62, 0
2, 98304, Note_on_c, 0, 70, 98
2, 98304, Note_on_c, 0, 62, 98
2, 98496, Note_on_c, 0, 70, 0
2, 98496, Note_on_c, 0, 62, 0
2, 98496, Note_on_c, 0, 69, 76
2, 98496, Note_on_c, 0, 60, 76
2, 98541, Note_on_c, 0, 69, 0
2, 98541, Note_on_c, 0, 60, 0
2, 98568, Note_on_c, 0, 65, 75
2, 98591, Note_on_c, 0, 65, 0
2, 98592, Note_on_c, 0, 67, 75
2, 98598, Note_on_c, 0, 67, 0
2, 98598, Note_on_c, 0, 65, 75
2, 98615, Note_on_c, 0, 65, 0
2, 98616, Note_on_c, 0, 64, 75
2, 98639, Note_on_c, 0, 64, 0
2, 98640, Note_on_c, 0, 65, 75
2, 98663, Note_on_c, 0, 65, 0
2, 98664, Note_on_c, 0, 67, 75
2, 98687, Note_on_c, 0, 67, 0
2, 98688, Note_on_c, 0, 69, 75
2, 98755, Note_on_c, 0, 69, 0
2, 98760, Note_on_c, 0, 65, 76
2, 98783, Note_on_c, 0, 65, 0
2, 98784, Note_on_c, 0, 70, 76
2, 98851, Note_on_c, 0, 70, 0
2, 98856, Note_on_c, 0, 67, 78
2, 98879, Note_on_c, 0, 67, 0
2, 98880, Note_on_c, 0, 72, 78
2, 98947, Note_on_c, 0, 72, 0
2, 98952, Note_on_c, 0, 69, 80
2, 98975, Note_on_c, 0, 69, 0
2, 98976, Note_on_c, 0, 75, 80
2, 99005, Note_on_c, 0, 75, 0
2, 99048, Note_on_c, 0, 75, 82
2, 99048, Note_on_c, 0, 72, 82
2, 99071, Note_on_c, 0, 75, 0
2, 99071, Note_on_c, 0, 72, 0
2, 99072, Note_on_c, 0, 75, 98
2, 99072, Note_on_c, 0, 72, 98
2, 99264, Note_on_c, 0, 75, 0
2, 99264, Note_on_c, 0, 72, 0
2, 99264, Note_on_c, 0, 74, 76
2, 99264, Note_on_c, 0, 70, 76
2, 99309, Note_on_c, 0, 74, 0
2, 99309, Note_on_c, 0, 70, 0
2, 99336, Note_on_c, 0, 74, 75
2, 99359, Note_on_c, 0, 74, 0
2, 99360, Note_on_c, 0, 75, 75
2, 99366, Note_on_c, 0, 75, 0
2, 99366, Note_on_c, 0, 74, 75
2, 99383, Note_on_c, 0, 74, 0
2, 99384, Note_on_c, 0, 72, 75
2, 99407, Note_on_c, 0, 72, 0
2, 99408, Note_on_c, 0, 74, 75
2, 99431, Note_on_c, 0, 74, 0
2, 99432, Note_on_c, 0, 75, 75
2, 99455, Note_on_c, 0, 75, 0
2, 99456, Note_on_c, 0, 77, 75
2, 99523, Note_on_c, 0, 77, 0
2, 99528, Note_on_c, 0, 74, 76
2, 99551, Note_on_c, 0, 74, 0
2, 99552, Note_on_c, 0, 82, 77
2, 99619, Note_on_c, 0, 82, 0
2, 99624, Note_on_c, 0, 77, 79
2, 99647, Note_on_c, 0, 77, 0
2, 99648, Note_on_c, 0, 86, 80
2, 99715, Note_on_c, 0, 86, 0
2, 99720, Note_on_c, 0, 84, 82
2, 99744, Note_on_c, 0, 84, 0
2, 99744, Note_on_c, 0, 82, 81
2, 99764, Note_on_c, 0, 82, 0
2, 99816, Note_on_c, 0, 81, 80
2, 99840, Note_on_c, 0, 81, 0
2, 99840, Note_on_c, 0, 79, 79
2, 99860, Note_on_c, 0, 79, 0
2, 99912, Note_on_c, 0, 77, 78
2, 99936, Note_on_c, 0, 77, 0
2, 99936, Note_on_c, 0, 75, 77
2, 99956, Note_on_c, 0, 75, 0
2, 100008, Note_on_c, 0, 74, 76
2, 100032, Note_on_c, 0, 74, 0
2, 100032, Note_on_c, 0, 72, 75
2, 100052, Note_on_c, 0, 72, 0
2, 100104, Note_on_c, 0, 79, 75
2, 100128, Note_on_c, 0, 79, 0
2, 100128, Note_on_c, 0, 77, 75
2, 100148, Note_on_c, 0, 77, 0
2, 100200, Note_on_c, 0, 75, 75
2, 100224, Note_on_c, 0, 75, 0
2, 100224, Note_on_c, 0, 74, 75
2, 100244, Note_on_c, 0, 74, 0
2, 100296, Note_on_c, 0, 77, 77
2, 100320, Note_on_c, 0, 77, 0
2, 100320, Note_on_c, 0, 82, 77
2, 100340, Note_on_c, 0, 82, 0
2, 100392, Note_on_c, 0, 77, 79
2, 100416, Note_on_c, 0, 77, 0
2, 100416, Note_on_c, 0, 86, 80
2, 100436, Note_on_c, 0, 86, 0
2, 100488, Note_on_c, 0, 84, 82
2, 100512, Note_on_c, 0, 84, 0
2, 100512, Note_on_c, 0, 82, 81
2, 100532, Note_on_c, 0, 82, 0
2, 100584, Note_on_c, 0, 81, 78
2, 100608, Note_on_c, 0, 81, 0
2, 100608, Note_on_c, 0, 79, 78
2, 100628, Note_on_c, 0, 79, 0
2, 100680, Note_on_c, 0, 77, 75
2, 100704, Note_on_c, 0, 77, 0
2, 100704, Note_on_c, 0, 75, 75
2, 100724, Note_on_c, 0, 75, 0
2, 100776, Note_on_c, 0, 74, 72
2, 100800, Note_on_c, 0, 74, 0
2, 100800, Note_on_c, 0, 72, 72
2, 100820, Note_on_c, 0, 72, 0
2, 100872, Note_on_c, 0, 79, 69
2, 100896, Note_on_c, 0, 79, 0
2, 100896, Note_on_c, 0, 77, 69
2, 100916, Note_on_c, 0, 77, 0
2, 100968, Note_on_c, 0, 75, 66
2, 100992, Note_on_c, 0, 75, 0
2, 100992, Note_on_c, 0, 74, 66
2, 101012, Note_on_c, 0, 74, 0
2, 101064, Note_on_c, 0, 79, 66
2, 101088, Note_on_c, 0, 79, 0
2, 101088, Note_on_c, 0, 77, 66
2, 101108, Note_on_c, 0, 77, 0
2, 101160, Note_on_c, 0, 75, 66
2, 101184, Note_on_c, 0, 75, 0
2, 101184, Note_on_c, 0, 74, 66
2, 101204, Note_on_c, 0, 74, 0
2, 101256, Note_on_c, 0, 79, 66
2, 101280, Note_on_c, 0, 79, 0
2, 101280, Note_on_c, 0, 77, 66
2, 101300, Note_on_c, 0, 77, 0
2, 101352, Note_on_c, 0, 75, 66
2, 101376, Note_on_c, 0, 75, 0
2, 101376, Note_on_c, 0, 74, 66
2, 101396, Note_on_c, 0, 74, 0
2, 101448, Note_on_c, 0, 84, 56
2, 101472, Note_on_c, 0, 84, 0
2, 101472, Note_on_c, 0, 82, 57
2, 101492, Note_on_c, 0, 82, 0
2, 101544, Note_on_c, 0, 81, 61
2, 101568, Note_on_c, 0, 81, 0
2, 101568, Note_on_c, 0, 79, 62
2, 101588, Note_on_c, 0, 79, 0
2, 101640, Note_on_c, 0, 77, 66
2, 101664, Note_on_c, 0, 77, 0
2, 101664, Note_on_c, 0, 75, 67
2, 101684, Note_on_c, 0, 75, 0
2, 101736, Note_on_c, 0, 74, 71
2, 101760, Note_on_c, 0, 74, 0
2, 101760, Note_on_c, 0, 72, 72
2, 101780, Note_on_c, 0, 72, 0
2, 101808, Note_on_c, 0, 78, 75
2, 101853, Note_on_c, 0, 78, 0
2, 101856, Note_on_c, 0, 81, 108
2, 101901, Note_on_c, 0, 81, 0
2, 101904, Note_on_c, 0, 79, 75
2, 101949, Note_on_c, 0, 79, 0
2, 101952, Note_on_c, 0, 77, 75
2, 101997, Note_on_c, 0, 77, 0
2, 102000, Note_on_c, 0, 75, 72
2, 102045, Note_on_c, 0, 75, 0
2, 102048, Note_on_c, 0, 74, 70
2, 102093, Note_on_c, 0, 74, 0
2, 102096, Note_on_c, 0, 72, 68
2, 102141, Note_on_c, 0, 72, 0
2, 102144, Note_on_c, 0, 70, 66
2, 102336, Note_on_c, 0, 70, 0
2, 102336, Note_on_c, 0, 69, 58
2, 102381, Note_on_c, 0, 69, 0
2, 102504, Note_on_c, 0, 62, 82
2, 102516, Note_on_c, 0, 62, 0
2, 102516, Note_on_c, 0, 65, 82
2, 102528, Note_on_c, 0, 65, 0
2, 102528, Note_on_c, 0, 70, 82
2, 102683, Note_on_c, 0, 70, 0
2, 102696, Note_on_c, 0, 65, 82
2, 102708, Note_on_c, 0, 65, 0
2, 102708, Note_on_c, 0, 69, 82
2, 102720, Note_on_c, 0, 69, 0
2, 102720, Note_on_c, 0, 72, 82
2, 102875, Note_on_c, 0, 72, 0
2, 102888, Note_on_c, 0, 65, 82
2, 102900, Note_on_c, 0, 65, 0
2, 102900, Note_on_c, 0, 70, 82
2, 102912, Note_on_c, 0, 70, 0
2, 102912, Note_on_c, 0, 74, 82
2, 103067, Note_on_c, 0, 74, 0
2, 103080, Note_on_c, 0, 74, 82
2, 103092, Note_on_c, 0, 74, 0
2, 103092, Note_on_c, 0, 77, 82
2, 103104, Note_on_c, 0, 77, 0
2, 103104, Note_on_c, 0, 82, 82
2, 103127, Note_on_c, 0, 82, 0
2, 103128, Note_on_c, 0, 81, 82
2, 103151, Note_on_c, 0, 81, 0
2, 103152, Note_on_c, 0, 79, 82
2, 103175, Note_on_c, 0, 79, 0
2, 103176, Note_on_c, 0, 77, 82
2, 103199, Note_on_c, 0, 77, 0
2, 103200, Note_on_c, 0, 75, 82
2, 103223, Note_on_c, 0, 75, 0
2, 103224, Note_on_c, 0, 74, 82
2, 103247, Note_on_c, 0, 74, 0
2, 103248, Note_on_c, 0, 72, 82
2, 103271, Note_on_c, 0, 72, 0
2, 103272, Note_on_c, 0, 70, 82
2, 103295, Note_on_c, 0, 70, 0
2, 103296, Note_on_c, 0, 69, 82
2, 103451, Note_on_c, 0, 69, 0
2, 103464, Note_on_c, 0, 69, 70
2, 103487, Note_on_c, 0, 69, 0
2, 103488, Note_on_c, 0, 70, 69
2, 103643, Note_on_c, 0, 70, 0
2, 103656, Note_on_c, 0, 70, 57
2, 103679, Note_on_c, 0, 70, 0
2, 103680, Note_on_c, 0, 71, 56
2, 103776, Note_on_c, 0, 71, 0
2, 103776, Note_on_c, 0, 72, 56
2, 103870, Note_on_c, 0, 72, 0
2, 104040, Note_on_c, 0, 84, 82
2, 104063, Note_on_c, 0, 84, 0
2, 104064, Note_on_c, 0, 85, 82
2, 104153, Note_on_c, 0, 85, 0
2, 104160, Note_on_c, 0, 85, 115
2, 104293, Note_on_c, 0, 85, 0
2, 104304, Note_on_c, 0, 85, 82
2, 104349, Note_on_c, 0, 85, 0
2, 104352, Note_on_c, 0, 87, 82
2, 104364, Note_on_c, 0, 87, 0
2, 104364, Note_on_c, 0, 85, 82
2, 104376, Note_on_c, 0, 85, 0
2, 104376, Note_on_c, 0, 84, 82
2, 104388, Note_on_c, 0, 84, 0
2, 104388, Note_on_c, 0, 85, 82
2, 104419, Note_on_c, 0, 85, 0
2, 104424, Note_on_c, 0, 87, 82
2, 104447, Note_on_c, 0, 87, 0
2, 104448, Note_on_c, 0, 85, 82
2, 104581, Note_on_c, 0, 85, 0
2, 104592, Note_on_c, 0, 82, 82
2, 104615, Note_on_c, 0, 82, 0
2, 104616, Note_on_c, 0, 83, 82
2, 104639, Note_on_c, 0, 83, 0
2, 104640, Note_on_c, 0, 85, 82
2, 104655, Note_on_c, 0, 85, 0
2, 104656, Note_on_c, 0, 83, 82
2, 104671, Note_on_c, 0, 83, 0
2, 104672, Note_on_c, 0, 85, 82
2, 104687, Note_on_c, 0, 85, 0
2, 104688, Note_on_c, 0, 83, 82
2, 104703, Note_on_c, 0, 83, 0
2, 104704, Note_on_c, 0, 85, 82
2, 104719, Note_on_c, 0, 85, 0
2, 104720, Note_on_c, 0, 83, 82
2, 104735, Note_on_c, 0, 83, 0
2, 104736, Note_on_c, 0, 85, 82
2, 104751, Note_on_c, 0, 85, 0
2, 104752, Note_on_c, 0, 83, 82
2, 104767, Note_on_c, 0, 83, 0
2, 104768, Note_on_c, 0, 82, 82
2, 104799, Note_on_c, 0, 82, 0
2, 104800, Note_on_c, 0, 83, 82
2, 104831, Note_on_c, 0, 83, 0
2, 104832, Note_on_c, 0, 82, 82
2, 104921, Note_on_c, 0, 82, 0
2, 104928, Note_on_c, 0, 82, 82
2, 105061, Note_on_c, 0, 82, 0
2, 105072, Note_on_c, 0, 82, 82
2, 105117, Note_on_c, 0, 82, 0
2, 105120, Note_on_c, 0, 83, 82
2, 105132, Note_on_c, 0, 83, 0
2, 105132, Note_on_c, 0, 82, 82
2, 105144, Note_on_c, 0, 82, 0
2, 105144, Note_on_c, 0, 80, 82
2, 105156, Note_on_c, 0, 80, 0
2, 105156, Note_on_c, 0, 82, 82
2, 105187, Note_on_c, 0, 82, 0
2, 105192, Note_on_c, 0, 83, 82
2, 105215, Note_on_c, 0, 83, 0
2, 105216, Note_on_c, 0, 82, 82
2, 105283, Note_on_c, 0, 82, 0
2, 105288, Note_on_c, 0, 80, 82
2, 105311, Note_on_c, 0, 80, 0
2, 105312, Note_on_c, 0, 83, 115
2, 105445, Note_on_c, 0, 83, 0
2, 105456, Note_on_c, 0, 82, 82
2, 105479, Note_on_c, 0, 82, 0
2, 105480, Note_on_c, 0, 80, 82
2, 105503, Note_on_c, 0, 80, 0
2, 105504, Note_on_c, 0, 78, 82
2, 105549, Note_on_c, 0, 78, 0
2, 105552, Note_on_c, 0, 77, 82
2, 105597, Note_on_c, 0, 77, 0
2, 105600, Note_on_c, 0, 80, 82
2, 105696, Note_on_c, 0, 80, 0
2, 105696, Note_on_c, 0, 78, 82
2, 105785, Note_on_c, 0, 78, 0
2, 105864, Note_on_c, 0, 78, 82
2, 105887, Note_on_c, 0, 78, 0
2, 105888, Note_on_c, 0, 80, 81
2, 105900, Note_on_c, 0, 80, 0
2, 105900, Note_on_c, 0, 78, 81
2, 105912, Note_on_c, 0, 78, 0
2, 105912, Note_on_c, 0, 77, 81
2, 105924, Note_on_c, 0, 77, 0
2, 105924, Note_on_c, 0, 78, 81
2, 105955, Note_on_c, 0, 78, 0
2, 105960, Note_on_c, 0, 80, 79
2, 105983, Note_on_c, 0, 80, 0
2, 105984, Note_on_c, 0, 78, 79
2, 106080, Note_on_c, 0, 78, 0
2, 106080, Note_on_c, 0, 77, 77
2, 106169, Note_on_c, 0, 77, 0
2, 106248, Note_on_c, 0, 77, 75
2, 106271, Note_on_c, 0, 77, 0
2, 106272, Note_on_c, 0, 79, 75
2, 106284, Note_on_c, 0, 79, 0
2, 106284, Note_on_c, 0, 77, 75
2, 106296, Note_on_c, 0, 77, 0
2, 106296, Note_on_c, 0, 76, 75
2, 106308, Note_on_c, 0, 76, 0
2, 106308, Note_on_c, 0, 77, 75
2, 106361, Note_on_c, 0, 77, 0
2, 106368, Note_on_c, 0, 76, 75
2, 106398, Note_on_c, 0, 76, 0
2, 106400, Note_on_c, 0, 79, 75
2, 106430, Note_on_c, 0, 79, 0
2, 106432, Note_on_c, 0, 77, 76
2, 106462, Note_on_c, 0, 77, 0
2, 106464, Note_on_c, 0, 81, 76
2, 106494, Note_on_c, 0, 81, 0
2, 106496, Note_on_c, 0, 79, 77
2, 106526, Note_on_c, 0, 79, 0
2, 106528, Note_on_c, 0, 82, 78
2, 106558, Note_on_c, 0, 82, 0
2, 106560, Note_on_c, 0, 81, 78
2, 106590, Note_on_c, 0, 81, 0
2, 106592, Note_on_c, 0, 84, 79
2, 106622, Note_on_c, 0, 84, 0
2, 106624, Note_on_c, 0, 82, 79
2, 106654, Note_on_c, 0, 82, 0
2, 106656, Note_on_c, 0, 86, 80
2, 106686, Note_on_c, 0, 86, 0
2, 106688, Note_on_c, 0, 84, 81
2, 106718, Note_on_c, 0, 84, 0
2, 106720, Note_on_c, 0, 88, 82
2, 106750, Note_on_c, 0, 88, 0
2, 106752, Note_on_c, 0, 86, 82
2, 106841, Note_on_c, 0, 86, 0
2, 106848, Note_on_c, 0, 84, 115
2, 107025, Note_on_c, 0, 84, 0
2, 107040, Note_on_c, 0, 82, 82
2, 107053, Note_on_c, 0, 82, 0
2, 107054, Note_on_c, 0, 84, 81
2, 107067, Note_on_c, 0, 84, 0
2, 107068, Note_on_c, 0, 82, 80
2, 107081, Note_on_c, 0, 82, 0
2, 107082, Note_on_c, 0, 84, 79
2, 107095, Note_on_c, 0, 84, 0
2, 107096, Note_on_c, 0, 82, 78
2, 107109, Note_on_c, 0, 82, 0
2, 107110, Note_on_c, 0, 81, 77
2, 107122, Note_on_c, 0, 81, 0
2, 107123, Note_on_c, 0, 82, 76
2, 107135, Note_on_c, 0, 82, 0
2, 107136, Note_on_c, 0, 81, 75
2, 107166, Note_on_c, 0, 81, 0
2, 107168, Note_on_c, 0, 84, 75
2, 107198, Note_on_c, 0, 84, 0
2, 107200, Note_on_c, 0, 82, 76
2, 107230, Note_on_c, 0, 82, 0
2, 107232, Note_on_c, 0, 86, 77
2, 107262, Note_on_c, 0, 86, 0
2, 107264, Note_on_c, 0, 84, 78
2, 107294, Note_on_c, 0, 84, 0
2, 107296, Note_on_c, 0, 87, 79
2, 107326, Note_on_c, 0, 87, 0
2, 107328, Note_on_c, 0, 86, 80
2, 107358, Note_on_c, 0, 86, 0
2, 107360, Note_on_c, 0, 89, 80
2, 107390, Note_on_c, 0, 89, 0
2, 107392, Note_on_c, 0, 87, 82
2, 107422, Note_on_c, 0, 87, 0
2, 107424, Note_on_c, 0, 86, 82
2, 107454, Note_on_c, 0, 86, 0
2, 107456, Note_on_c, 0, 84, 81
2, 107486, Note_on_c, 0, 84, 0
2, 107488, Note_on_c, 0, 82, 80
2, 107518, Note_on_c, 0, 82, 0
2, 107520, Note_on_c, 0, 81, 80
2, 107550, Note_on_c, 0, 81, 0
2, 107552, Note_on_c, 0, 86, 79
2, 107582, Note_on_c, 0, 86, 0
2, 107584, Note_on_c, 0, 84, 79
2, 107614, Note_on_c, 0, 84, 0
2, 107616, Note_on_c, 0, 82, 78
2, 107646, Note_on_c, 0, 82, 0
2, 107648, Note_on_c, 0, 81, 78
2, 107678, Note_on_c, 0, 81, 0
2, 107680, Note_on_c, 0, 79, 77
2, 107710, Note_on_c, 0, 79, 0
2, 107712, Note_on_c, 0, 77, 77
2, 107801, Note_on_c, 0, 77, 0
2, 107808, Note_on_c, 0, 75, 75
2, 107821, Note_on_c, 0, 75, 0
2, 107822, Note_on_c, 0, 77, 75
2, 107835, Note_on_c, 0, 77, 0
2, 107836, Note_on_c, 0, 75, 75
2, 107849, Note_on_c, 0, 75, 0
2, 107850, Note_on_c, 0, 77, 75
2, 107863, Note_on_c, 0, 77, 0
2, 107864, Note_on_c, 0, 75, 75
2, 107877, Note_on_c, 0, 75, 0
2, 107878, Note_on_c, 0, 74, 75
2, 107890, Note_on_c, 0, 74, 0
2, 107891, Note_on_c, 0, 75, 75
2, 107903, Note_on_c, 0, 75, 0
2, 107904, Note_on_c, 0, 74, 75
2, 107993, Note_on_c, 0, 74, 0
2, 108000, Note_on_c, 0, 77, 75
2, 108089, Note_on_c, 0, 77, 0
2, 108168, Note_on_c, 0, 81, 75
2, 108191, Note_on_c, 0, 81, 0
2, 108192, Note_on_c, 0, 81, 75
2, 108205, Note_on_c, 0, 81, 0
2, 108206, Note_on_c, 0, 82, 75
2, 108219, Note_on_c, 0, 82, 0
2, 108220, Note_on_c, 0, 81, 75
2, 108233, Note_on_c, 0, 81, 0
2, 108234, Note_on_c, 0, 82, 75
2, 108247, Note_on_c, 0, 82, 0
2, 108248, Note_on_c, 0, 81, 75
2, 108261, Note_on_c, 0, 81, 0
2, 108262, Note_on_c, 0, 79, 75
2, 108274, Note_on_c, 0, 79, 0
2, 108275, Note_on_c, 0, 81, 75
2, 108287, Note_on_c, 0, 81, 0
2, 108288, Note_on_c, 0, 82, 75
2, 108355, Note_on_c, 0, 82, 0
2, 108360, Note_on_c, 0, 86, 75
2, 108383, Note_on_c, 0, 86, 0
2, 108384, Note_on_c, 0, 77, 75
2, 108547, Note_on_c, 0, 77, 0
2, 108552, Note_on_c, 0, 75, 75
2, 108575, Note_on_c, 0, 75, 0
2, 108576, Note_on_c, 0, 75, 75
2, 108589, Note_on_c, 0, 75, 0
2, 108590, Note_on_c, 0, 77, 75
2, 108603, Note_on_c, 0, 77, 0
2, 108604, Note_on_c, 0, 75, 75
2, 108617, Note_on_c, 0, 75, 0
2, 108618, Note_on_c, 0, 77, 75
2, 108631, Note_on_c, 0, 77, 0
2, 108632, Note_on_c, 0, 75, 75
2, 108645, Note_on_c, 0, 75, 0
2, 108646, Note_on_c, 0, 74, 75
2, 108658, Note_on_c, 0, 74, 0
2, 108659, Note_on_c, 0, 75, 75
2, 108671, Note_on_c, 0, 75, 0
2, 108672, Note_on_c, 0, 74, 75
2, 108761, Note_on_c, 0, 74, 0
2, 108768, Note_on_c, 0, 77, 75
2, 108857, Note_on_c, 0, 77, 0
2, 108936, Note_on_c, 0, 81, 75
2, 108959, Note_on_c, 0, 81, 0
2, 108960, Note_on_c, 0, 81, 75
2, 108973, Note_on_c, 0, 81, 0
2, 108974, Note_on_c, 0, 82, 75
2, 108987, Note_on_c, 0, 82, 0
2, 108988, Note_on_c, 0, 81, 75
2, 109001, Note_on_c, 0, 81, 0
2, 109002, Note_on_c, 0, 82, 75
2, 109015, Note_on_c, 0, 82, 0
2, 109016, Note_on_c, 0, 81, 75
2, 109029, Note_on_c, 0, 81, 0
2, 109030, Note_on_c, 0, 79, 75
2, 109042, Note_on_c, 0, 79, 0
2, 109043, Note_on_c, 0, 81, 75
2, 109055, Note_on_c, 0, 81, 0
2, 109056, Note_on_c, 0, 82, 75
2, 109123, Note_on_c, 0, 82, 0
2, 109128, Note_on_c, 0, 86, 75
2, 109151, Note_on_c, 0, 86, 0
2, 109152, Note_on_c, 0, 77, 75
2, 109315, Note_on_c, 0, 77, 0
2, 109320, Note_on_c, 0, 75, 75
2, 109343, Note_on_c, 0, 75, 0
2, 109344, Note_on_c, 0, 75, 75
2, 109357, Note_on_c, 0, 75, 0
2, 109358, Note_on_c, 0, 77, 75
2, 109371, Note_on_c, 0, 77, 0
2, 109372, Note_on_c, 0, 75, 75
2, 109385, Note_on_c, 0, 75, 0
2, 109386, Note_on_c, 0, 77, 75
2, 109399, Note_on_c, 0, 77, 0
2, 109400, Note_on_c, 0, 75, 75
2, 109413, Note_on_c, 0, 75, 0
2, 109414, Note_on_c, 0, 74, 75
2, 109426, Note_on_c, 0, 74, 0
2, 109427, Note_on_c, 0, 75, 75
2, 109439, Note_on_c, 0, 75, 0
2, 109440, Note_on_c, 0, 74, 75
2, 109470, Note_on_c, 0, 74, 0
2, 109472, Note_on_c, 0, 77, 75
2, 109502, Note_on_c, 0, 77, 0
2, 109504, Note_on_c, 0, 75, 75
2, 109534, Note_on_c, 0, 75, 0
2, 109536, Note_on_c, 0, 79, 76
2, 109566, Note_on_c, 0, 79, 0
2, 109568, Note_on_c, 0, 77, 76
2, 109598, Note_on_c, 0, 77, 0
2, 109600, Note_on_c, 0, 80, 77
2, 109630, Note_on_c, 0, 80, 0
2, 109632, Note_on_c, 0, 79, 77
2, 109662, Note_on_c, 0, 79, 0
2, 109664, Note_on_c, 0, 82, 78
2, 109694, Note_on_c, 0, 82, 0
2, 109696, Note_on_c, 0, 80, 79
2, 109726, Note_on_c, 0, 80, 0
2, 109728, Note_on_c, 0, 84, 79
2, 109758, Note_on_c, 0, 84, 0
2, 109760, Note_on_c, 0, 82, 80
2, 109790, Note_on_c, 0, 82, 0
2, 109792, Note_on_c, 0, 80, 80
2, 109822, Note_on_c, 0, 80, 0
2, 109824, Note_on_c, 0, 79, 82
2, 109854, Note_on_c, 0, 79, 0
2, 109856, Note_on_c, 0, 77, 81
2, 109886, Note_on_c, 0, 77, 0
2, 109888, Note_on_c, 0, 82, 80
2, 109918, Note_on_c, 0, 82, 0
2, 109920, Note_on_c, 0, 80, 80
2, 109950, Note_on_c, 0, 80, 0
2, 109952, Note_on_c, 0, 79, 79
2, 109982, Note_on_c, 0, 79, 0
2, 109984, Note_on_c, 0, 77, 79
2, 110014, Note_on_c, 0, 77, 0
2, 110016, Note_on_c, 0, 75, 78
2, 110046, Note_on_c, 0, 75, 0
2, 110048, Note_on_c, 0, 74, 78
2, 110078, Note_on_c, 0, 74, 0
2, 110080, Note_on_c, 0, 72, 77
2, 110110, Note_on_c, 0, 72, 0
2, 110112, Note_on_c, 0, 70, 77
2, 110142, Note_on_c, 0, 70, 0
2, 110144, Note_on_c, 0, 72, 76
2, 110174, Note_on_c, 0, 72, 0
2, 110176, Note_on_c, 0, 68, 75
2, 110206, Note_on_c, 0, 68, 0
2, 110208, Note_on_c, 0, 67, 75
2, 110238, Note_on_c, 0, 67, 0
2, 110240, Note_on_c, 0, 75, 75
2, 110270, Note_on_c, 0, 75, 0
2, 110272, Note_on_c, 0, 74, 75
2, 110302, Note_on_c, 0, 74, 0
2, 110304, Note_on_c, 0, 72, 75
2, 110334, Note_on_c, 0, 72, 0
2, 110336, Note_on_c, 0, 79, 75
2, 110366, Note_on_c, 0, 79, 0
2, 110368, Note_on_c, 0, 77, 75
2, 110398, Note_on_c, 0, 77, 0
2, 110400, Note_on_c, 0, 75, 75
2, 110430, Note_on_c, 0, 75, 0
2, 110432, Note_on_c, 0, 74, 75
2, 110462, Note_on_c, 0, 74, 0
2, 110464, Note_on_c, 0, 72, 75
2, 110494, Note_on_c, 0, 72, 0
2, 110496, Note_on_c, 0, 70, 75
2, 110526, Note_on_c, 0, 70, 0
2, 110528, Note_on_c, 0, 69, 75
2, 110558, Note_on_c, 0, 69, 0
2, 110560, Note_on_c, 0, 67, 75
2, 110590, Note_on_c, 0, 67, 0
2, 110592, Note_on_c, 0, 65, 75
2, 110814, Note_on_c, 0, 65, 0
2, 110816, Note_on_c, 0, 65, 79
2, 110846, Note_on_c, 0, 65, 0
2, 110848, Note_on_c, 0, 66, 79
2, 110878, Note_on_c, 0, 66, 0
2, 110880, Note_on_c, 0, 67, 80
2, 110910, Note_on_c, 0, 67, 0
2, 110912, Note_on_c, 0, 68, 80
2, 110942, Note_on_c, 0, 68, 0
2, 110944, Note_on_c, 0, 69, 81
2, 110974, Note_on_c, 0, 69, 0
2, 110976, Note_on_c, 0, 70, 82
2, 111006, Note_on_c, 0, 70, 0
2, 111008, Note_on_c, 0, 65, 75
2, 111038, Note_on_c, 0, 65, 0
2, 111040, Note_on_c, 0, 66, 76
2, 111070, Note_on_c, 0, 66, 0
2, 111072, Note_on_c, 0, 67, 77
2, 111102, Note_on_c, 0, 67, 0
2, 111104, Note_on_c, 0, 68, 78
2, 111134, Note_on_c, 0, 68, 0
2, 111136, Note_on_c, 0, 69, 79
2, 111166, Note_on_c, 0, 69, 0
2, 111168, Note_on_c, 0, 70, 80
2, 111198, Note_on_c, 0, 70, 0
2, 111200, Note_on_c, 0, 77, 82
2, 111230, Note_on_c, 0, 77, 0
2, 111232, Note_on_c, 0, 78, 83
2, 111262, Note_on_c, 0, 78, 0
2, 111264, Note_on_c, 0, 79, 84
2, 111294, Note_on_c, 0, 79, 0
2, 111296, Note_on_c, 0, 80, 86
2, 111326, Note_on_c, 0, 80, 0
2, 111328, Note_on_c, 0, 81, 87
2, 111358, Note_on_c, 0, 81, 0
2, 111360, Note_on_c, 0, 82, 90
2, 111390, Note_on_c, 0, 82, 0
2, 111392, Note_on_c, 0, 81, 89
2, 111422, Note_on_c, 0, 81, 0
2, 111424, Note_on_c, 0, 80, 89
2, 111454, Note_on_c, 0, 80, 0
2, 111456, Note_on_c, 0, 79, 88
2, 111486, Note_on_c, 0, 79, 0
2, 111488, Note_on_c, 0, 78, 88
2, 111518, Note_on_c, 0, 78, 0
2, 111520, Note_on_c, 0, 77, 87
2, 111550, Note_on_c, 0, 77, 0
2, 111552, Note_on_c, 0, 76, 87
2, 111582, Note_on_c, 0, 76, 0
2, 111584, Note_on_c, 0, 75, 87
2, 111614, Note_on_c, 0, 75, 0
2, 111616, Note_on_c, 0, 74, 86
2, 111646, Note_on_c, 0, 74, 0
2, 111648, Note_on_c, 0, 73, 86
2, 111678, Note_on_c, 0, 73, 0
2, 111680, Note_on_c, 0, 72, 85
2, 111710, Note_on_c, 0, 72, 0
2, 111712, Note_on_c, 0, 71, 85
2, 111742, Note_on_c, 0, 71, 0
2, 111744, Note_on_c, 0, 70, 85
2, 111774, Note_on_c, 0, 70, 0
2, 111776, Note_on_c, 0, 69, 84
2, 111806, Note_on_c, 0, 69, 0
2, 111808, Note_on_c, 0, 68, 84
2, 111838, Note_on_c, 0, 68, 0
2, 111840, Note_on_c, 0, 67, 83
2, 111870, Note_on_c, 0, 67, 0
2, 111872, Note_on_c, 0, 66, 83
2, 111902, Note_on_c, 0, 66, 0
2, 111904, Note_on_c, 0, 65, 82
2, 111934, Note_on_c, 0, 65, 0
2, 111936, Note_on_c, 0, 64, 82
2, 112025, Note_on_c, 0, 64, 0
2, 112032, Note_on_c, 0, 76, 82
2, 112044, Note_on_c, 0, 79, 82
2, 112056, Note_on_c, 0, 82, 82
2, 112068, Note_on_c, 0, 85, 82
2, 112121, Note_on_c, 0, 85, 0
2, 112121, Note_on_c, 0, 82, 0
2, 112121, Note_on_c, 0, 79, 0
2, 112121, Note_on_c, 0, 76, 0
2, 112152, Note_on_c, 0, 65, 82
2, 112175, Note_on_c, 0, 65, 0
2, 112176, Note_on_c, 0, 67, 82
2, 112199, Note_on_c, 0, 67, 0
2, 112200, Note_on_c, 0, 69, 82
2, 112223, Note_on_c, 0, 69, 0
2, 112224, Note_on_c, 0, 70, 82
2, 112247, Note_on_c, 0, 70, 0
2, 112248, Note_on_c, 0, 72, 82
2, 112271, Note_on_c, 0, 72, 0
2, 112272, Note_on_c, 0, 74, 82
2, 112295, Note_on_c, 0, 74, 0
2, 112296, Note_on_c, 0, 75, 82
2, 112319, Note_on_c, 0, 75, 0
2, 112320, Note_on_c, 0, 77, 82
2, 112343, Note_on_c, 0, 77, 0
2, 112344, Note_on_c, 0, 79, 82
2, 112367, Note_on_c, 0, 79, 0
2, 112368, Note_on_c, 0, 81, 82
2, 112391, Note_on_c, 0, 81, 0
2, 112392, Note_on_c, 0, 82, 82
2, 112415, Note_on_c, 0, 82, 0
2, 112416, Note_on_c, 0, 84, 82
2, 112439, Note_on_c, 0, 84, 0
2, 112440, Note_on_c, 0, 86, 82
2, 112463, Note_on_c, 0, 86, 0
2, 112464, Note_on_c, 0, 87, 82
2, 112487, Note_on_c, 0, 87, 0
2, 112488, Note_on_c, 0, 89, 82
2, 112511, Note_on_c, 0, 89, 0
2, 112512, Note_on_c, 0, 74, 82
2, 112559, Note_on_c, 0, 74, 0
2, 112560, Note_on_c, 0, 72, 82
2, 112575, Note_on_c, 0, 72, 0
2, 112576, Note_on_c, 0, 74, 82
2, 112591, Note_on_c, 0, 74, 0
2, 112592, Note_on_c, 0, 72, 82
2, 112607, Note_on_c, 0, 72, 0
2, 112608, Note_on_c, 0, 74, 82
2, 112623, Note_on_c, 0, 74, 0
2, 112624, Note_on_c, 0, 72, 82
2, 112639, Note_on_c, 0, 72, 0
2, 112640, Note_on_c, 0, 74, 82
2, 112655, Note_on_c, 0, 74, 0
2, 112656, Note_on_c, 0, 72, 82
2, 112671, Note_on_c, 0, 72, 0
2, 112672, Note_on_c, 0, 74, 82
2, 112687, Note_on_c, 0, 74, 0
2, 112688, Note_on_c, 0, 72, 82
2, 112703, Note_on_c, 0, 72, 0
2, 112704, Note_on_c, 0, 74, 82
2, 112719, Note_on_c, 0, 74, 0
2, 112720, Note_on_c, 0, 72, 82
2, 112735, Note_on_c, 0, 72, 0
2, 112736, Note_on_c, 0, 74, 82
2, 112751, Note_on_c, 0, 74, 0
2, 112752, Note_on_c, 0, 72, 82
2, 112767, Note_on_c, 0, 72, 0
2, 112768, Note_on_c, 0, 74, 82
2, 112783, Note_on_c, 0, 74, 0
2, 112784, Note_on_c, 0, 72, 82
2, 112799, Note_on_c, 0, 72, 0
2, 112800, Note_on_c, 0, 74, 82
2, 112815, Note_on_c, 0, 74, 0
2, 112816, Note_on_c, 0, 72, 82
2, 112831, Note_on_c, 0, 72, 0
2, 112832, Note_on_c, 0, 70, 82
2, 112863, Note_on_c, 0, 70, 0
2, 112864, Note_on_c, 0, 72, 82
2, 112895, Note_on_c, 0, 72, 0
2, 112896, Note_on_c, 0, 70, 82
2, 112985, Note_on_c, 0, 70, 0
2, 113088, Note_on_c, 0, 75, 82
2, 113088, Note_on_c, 0, 63, 82
2, 113108, Note_on_c, 0, 75, 0
2, 113108, Note_on_c, 0, 63, 0
2, 113184, Note_on_c, 0, 74, 82
2, 113184, Note_on_c, 0, 62, 82
2, 113204, Note_on_c, 0, 74, 0
2, 113204, Note_on_c, 0, 62, 0
2, 113280, Note_on_c, 0, 79, 115
2, 113280, Note_on_c, 0, 67, 115
2, 113545, Note_on_c, 0, 79, 0
2, 113545, Note_on_c, 0, 67, 0
2, 113568, Note_on_c, 0, 69, 56
2, 113635, Note_on_c, 0, 69, 0
2, 113640, Note_on_c, 0, 79, 56
2, 113663, Note_on_c, 0, 79, 0
2, 113664, Note_on_c, 0, 70, 56
2, 113731, Note_on_c, 0, 70, 0
2, 113736, Note_on_c, 0, 77, 56
2, 113759, Note_on_c, 0, 77, 0
2, 113760, Note_on_c, 0, 72, 56
2, 113827, Note_on_c, 0, 72, 0
2, 113832, Note_on_c, 0, 75, 56
2, 113855, Note_on_c, 0, 75, 0
2, 113856, Note_on_c, 0, 70, 56
2, 113923, Note_on_c, 0, 70, 0
2, 113928, Note_on_c, 0, 74, 56
2, 113951, Note_on_c, 0, 74, 0
2, 113952, Note_on_c, 0, 69, 56
2, 114019, Note_on_c, 0, 69, 0
2, 114024, Note_on_c, 0, 72, 56
2, 114047, Note_on_c, 0, 72, 0
2, 114048, Note_on_c, 0, 70, 56
2, 114137, Note_on_c, 0, 70, 0
2, 114240, Note_on_c, 0, 75, 82
2, 114240, Note_on_c, 0, 63, 82
2, 114260, Note_on_c, 0, 75, 0
2, 114260, Note_on_c, 0, 63, 0
2, 114336, Note_on_c, 0, 74, 82
2, 114336, Note_on_c, 0, 62, 82
2, 114356, Note_on_c, 0, 74, 0
2, 114356, Note_on_c, 0, 62, 0
2, 114432, Note_on_c, 0, 79, 115
2, 114432, Note_on_c, 0, 67, 115
2, 114697, Note_on_c, 0, 79, 0
2, 114697, Note_on_c, 0, 67, 0
2, 114720, Note_on_c, 0, 79, 82
2, 114750, Note_on_c, 0, 79, 0
2, 114752, Note_on_c, 0, 72, 80
2, 114782, Note_on_c, 0, 72, 0
2, 114784, Note_on_c, 0, 69, 78
2, 114814, Note_on_c, 0, 69, 0
2, 114816, Note_on_c, 0, 77, 77
2, 114846, Note_on_c, 0, 77, 0
2, 114848, Note_on_c, 0, 74, 75
2, 114878, Note_on_c, 0, 74, 0
2, 114880, Note_on_c, 0, 70, 74
2, 114910, Note_on_c, 0, 70, 0
2, 114912, Note_on_c, 0, 67, 72
2, 114942, Note_on_c, 0, 67, 0
2, 114944, Note_on_c, 0, 75, 71
2, 114974, Note_on_c, 0, 75, 0
2, 114976, Note_on_c, 0, 72, 69
2, 115006, Note_on_c, 0, 72, 0
2, 115008, Note_on_c, 0, 70, 68
2, 115097, Note_on_c, 0, 70, 0
2, 115104, Note_on_c, 0, 69, 63
2, 115117, Note_on_c, 0, 69, 0
2, 115118, Note_on_c, 0, 70, 62
2, 115131, Note_on_c, 0, 70, 0
2, 115132, Note_on_c, 0, 69, 62
2, 115145, Note_on_c, 0, 69, 0
2, 115146, Note_on_c, 0, 70, 61
2, 115159, Note_on_c, 0, 70, 0
2, 115160, Note_on_c, 0, 69, 60
2, 115173, Note_on_c, 0, 69, 0
2, 115174, Note_on_c, 0, 67, 60
2, 115186, Note_on_c, 0, 67, 0
2, 115187, Note_on_c, 0, 69, 59
2, 115199, Note_on_c, 0, 69, 0
2, 115200, Note_on_c, 0, 70, 59
2, 115230, Note_on_c, 0, 70, 0
2, 115232, Note_on_c, 0, 65, 56
2, 115262, Note_on_c, 0, 65, 0
2, 115264, Note_on_c, 0, 74, 55
2, 115294, Note_on_c, 0, 74, 0
2, 115296, Note_on_c, 0, 70, 54
2, 115326, Note_on_c, 0, 70, 0
2, 115328, Note_on_c, 0, 65, 54
2, 115358, Note_on_c, 0, 65, 0
2, 115360, Note_on_c, 0, 74, 53
2, 115390, Note_on_c, 0, 74, 0
2, 115392, Note_on_c, 0, 70, 53
2, 115422, Note_on_c, 0, 70, 0
2, 115424, Note_on_c, 0, 65, 52
2, 115454, Note_on_c, 0, 65, 0
2, 115456, Note_on_c, 0, 74, 52
2, 115486, Note_on_c, 0, 74, 0
2, 115488, Note_on_c, 0, 70, 51
2, 115518, Note_on_c, 0, 70, 0
2, 115520, Note_on_c, 0, 65, 51
2, 115550, Note_on_c, 0, 65, 0
2, 115552, Note_on_c, 0, 74, 50
2, 115582, Note_on_c, 0, 74, 0
2, 115584, Note_on_c, 0, 70, 50
2, 115678, Note_on_c, 0, 70, 0
2, 115968, End_track
3, 0, Start_track
3, 0, Program_c, 0, 0
3, 0, Control_c, 0, 7, 127
3, 0, Control_c, 0, 10, 64
3, 115968, End_track
4, 0, Start_track
4, 0, Program_c, 1, 0
4, 0, Control_c, 1, 7, 127
4, 0, Control_c, 1, 10, 64
4, 0, Note_on_c, 1, 58, 82
4, 0, Note_on_c, 1, 53, 82
4, 0, Note_on_c, 1, 50, 82
4, 0, Note_on_c, 1, 46, 82
4, 177, Note_on_c, 1, 58, 0
4, 177, Note_on_c, 1, 53, 0
4, 177, Note_on_c, 1, 50, 0
4, 177, Note_on_c, 1, 46, 0
4, 480, Note_on_c, 1, 70, 75
4, 480, Note_on_c, 1, 66, 75
4, 576, Note_on_c, 1, 70, 0
4, 576, Note_on_c, 1, 66, 0
4, 576, Note_on_c, 1, 69, 70
4, 576, Note_on_c, 1, 65, 70
4, 665, Note_on_c, 1, 69, 0
4, 665, Note_on_c, 1, 65, 0
4, 1248, Note_on_c, 1, 60, 66
4, 1440, Note_on_c, 1, 60, 0
4, 1440, Note_on_c, 1, 58, 66
4, 1529, Note_on_c, 1, 58, 0
4, 1920, Note_on_c, 1, 65, 82
4, 1920, Note_on_c, 1, 63, 82
4, 1920, Note_on_c, 1, 60, 82
4, 1920, Note_on_c, 1, 57, 82
4, 2274, Note_on_c, 1, 65, 0
4, 2274, Note_on_c, 1, 63, 0
4, 2274, Note_on_c, 1, 60, 0
4, 2274, Note_on_c, 1, 57, 0
4, 2304, Note_on_c, 1, 58, 75
4, 2393, Note_on_c, 1, 58, 0
4, 2400, Note_on_c, 1, 67, 75
4, 2489, Note_on_c, 1, 67, 0
4, 2496, Note_on_c, 1, 65, 75
4, 2585, Note_on_c, 1, 65, 0
4, 2592, Note_on_c, 1, 63, 75
4, 2592, Note_on_c, 1, 53, 75
4, 2681, Note_on_c, 1, 63, 0
4, 2681, Note_on_c, 1, 53, 0
4, 2688, Note_on_c, 1, 62, 75
4, 2688, Note_on_c, 1, 58, 75
4, 2821, Note_on_c, 1, 62, 0
4, 2821, Note_on_c, 1, 58, 0
4, 3840, Note_on_c, 1, 53, 75
4, 3840, Note_on_c, 1, 41, 75
4, 4017, Note_on_c, 1, 53, 0
4, 4017, Note_on_c, 1, 41, 0
4, 4296, Note_on_c, 1, 57, 82
4, 4319, Note_on_c, 1, 57, 0
4, 4320, Note_on_c, 1, 58, 82
4, 4387, Note_on_c, 1, 58, 0
4, 4392, Note_on_c, 1, 57, 82
4, 4415, Note_on_c, 1, 57, 0
4, 4416, Note_on_c, 1, 58, 82
4, 4505, Note_on_c, 1, 58, 0
4, 4608, Note_on_c, 1, 58, 82
4, 4608, Note_on_c, 1, 53, 82
4, 4608, Note_on_c, 1, 50, 82
4, 4608, Note_on_c, 1, 46, 82
4, 4785, Note_on_c, 1, 58, 0
4, 4785, Note_on_c, 1, 53, 0
4, 4785, Note_on_c, 1, 50, 0
4, 4785, Note_on_c, 1, 46, 0
4, 4896, Note_on_c, 1, 62, 82
4, 4985, Note_on_c, 1, 62, 0
4, 4992, Note_on_c, 1, 63, 82
4, 5081, Note_on_c, 1, 63, 0
4, 5088, Note_on_c, 1, 65, 82
4, 5177, Note_on_c, 1, 65, 0
4, 5184, Note_on_c, 1, 67, 82
4, 5273, Note_on_c, 1, 67, 0
4, 5280, Note_on_c, 1, 69, 82
4, 5369, Note_on_c, 1, 69, 0
4, 5376, Note_on_c, 1, 70, 82
4, 5465, Note_on_c, 1, 70, 0
4, 5664, Note_on_c, 1, 62, 82
4, 5753, Note_on_c, 1, 62, 0
4, 5760, Note_on_c, 1, 63, 75
4, 5849, Note_on_c, 1, 63, 0
4, 5856, Note_on_c, 1, 65, 73
4, 5945, Note_on_c, 1, 65, 0
4, 5952, Note_on_c, 1, 67, 71
4, 6041, Note_on_c, 1, 67, 0
4, 6048, Note_on_c, 1, 69, 69
4, 6137, Note_on_c, 1, 69, 0
4, 6144, Note_on_c, 1, 70, 67
4, 6144, Note_on_c, 1, 58, 67
4, 6189, Note_on_c, 1, 70, 0
4, 6189, Note_on_c, 1, 58, 0
4, 6240, Note_on_c, 1, 69, 66
4, 6240, Note_on_c, 1, 58, 66
4, 6285, Note_on_c, 1, 69, 0
4, 6285, Note_on_c, 1, 58, 0
4, 6336, Note_on_c, 1, 70, 66
4, 6336, Note_on_c, 1, 58, 66
4, 6381, Note_on_c, 1, 70, 0
4, 6381, Note_on_c, 1, 58, 0
4, 6432, Note_on_c, 1, 69, 66
4, 6432, Note_on_c, 1, 58, 66
4, 6477, Note_on_c, 1, 69, 0
4, 6477, Note_on_c, 1, 58, 0
4, 6528, Note_on_c, 1, 70, 66
4, 6528, Note_on_c, 1, 58, 66
4, 6573, Note_on_c, 1, 70, 0
4, 6573, Note_on_c, 1, 58, 0
4, 6816, Note_on_c, 1, 53, 65
4, 6816, Note_on_c, 1, 50, 65
4, 6905, Note_on_c, 1, 53, 0
4, 6905, Note_on_c, 1, 50, 0
4, 6912, Note_on_c, 1, 55, 70
4, 6912, Note_on_c, 1, 51, 70
4, 7001, Note_on_c, 1, 55, 0
4, 7001, Note_on_c, 1, 51, 0
4, 7248, Note_on_c, 1, 60, 68
4, 7248, Note_on_c, 1, 52, 68
4, 7293, Note_on_c, 1, 60, 0
4, 7293, Note_on_c, 1, 52, 0
4, 7296, Note_on_c, 1, 62, 66
4, 7296, Note_on_c, 1, 53, 66
4, 7488, Note_on_c, 1, 62, 0
4, 7488, Note_on_c, 1, 60, 58
4, 7533, Note_on_c, 1, 60, 0
4, 7533, Note_on_c, 1, 53, 0
4, 7776, Note_on_c, 1, 53, 82
4, 7776, Note_on_c, 1, 48, 82
4, 7776, Note_on_c, 1, 45, 82
4, 7776, Note_on_c, 1, 41, 82
4, 7865, Note_on_c, 1, 53, 0
4, 7865, Note_on_c, 1, 48, 0
4, 7865, Note_on_c, 1, 45, 0
4, 7865, Note_on_c, 1, 41, 0
4, 7968, Note_on_c, 1, 48, 82
4, 7968, Note_on_c, 1, 43, 82
4, 7968, Note_on_c, 1, 40, 82
4, 7968, Note_on_c, 1, 36, 82
4, 8057, Note_on_c, 1, 48, 0
4, 8057, Note_on_c, 1, 43, 0
4, 8057, Note_on_c, 1, 40, 0
4, 8057, Note_on_c, 1, 36, 0
4, 8160, Note_on_c, 1, 41, 82
4, 8160, Note_on_c, 1, 36, 82
4, 8160, Note_on_c, 1, 33, 82
4, 8160, Note_on_c, 1, 29, 82
4, 8249, Note_on_c, 1, 41, 0
4, 8249, Note_on_c, 1, 36, 0
4, 8249, Note_on_c, 1, 33, 0
4, 8249, Note_on_c, 1, 29, 0
4, 8544, Note_on_c, 1, 72, 75
4, 8544, Note_on_c, 1, 70, 75
4, 8633, Note_on_c, 1, 72, 0
4, 8633, Note_on_c, 1, 70, 0
4, 8736, Note_on_c, 1, 72, 62
4, 8736, Note_on_c, 1, 69, 62
4, 8825, Note_on_c, 1, 72, 0
4, 8825, Note_on_c, 1, 69, 0
4, 8928, Note_on_c, 1, 72, 56
4, 8928, Note_on_c, 1, 64, 56
4, 9022, Note_on_c, 1, 72, 0
4, 9022, Note_on_c, 1, 64, 0
4, 9216, Note_on_c, 1, 65, 66
4, 9246, Note_on_c, 1, 65, 0
4, 9248, Note_on_c, 1, 68, 66
4, 9278, Note_on_c, 1, 68, 0
4, 9280, Note_on_c, 1, 72, 66
4, 9310, Note_on_c, 1, 72, 0
4, 9312, Note_on_c, 1, 65, 66
4, 9342, Note_on_c, 1, 65, 0
4, 9344, Note_on_c, 1, 68, 66
4, 9374, Note_on_c, 1, 68, 0
4, 9376, Note_on_c, 1, 72, 66
4, 9406, Note_on_c, 1, 72, 0
4, 9408, Note_on_c, 1, 65, 66
4, 9438, Note_on_c, 1, 65, 0
4, 9440, Note_on_c, 1, 68, 66
4, 9470, Note_on_c, 1, 68, 0
4, 9472, Note_on_c, 1, 72, 66
4, 9502, Note_on_c, 1, 72, 0
4, 9504, Note_on_c, 1, 65, 66
4, 9534, Note_on_c, 1, 65, 0
4, 9536, Note_on_c, 1, 68, 66
4, 9566, Note_on_c, 1, 68, 0
4, 9568, Note_on_c, 1, 72, 66
4, 9598, Note_on_c, 1, 72, 0
4, 9600, Note_on_c, 1, 63, 66
4, 9630, Note_on_c, 1, 63, 0
4, 9632, Note_on_c, 1, 68, 66
4, 9662, Note_on_c, 1, 68, 0
4, 9664, Note_on_c, 1, 72, 66
4, 9694, Note_on_c, 1, 72, 0
4, 9696, Note_on_c, 1, 63, 66
4, 9726, Note_on_c, 1, 63, 0
4, 9728, Note_on_c, 1, 68, 66
4, 9758, Note_on_c, 1, 68, 0
4, 9760, Note_on_c, 1, 72, 66
4, 9790, Note_on_c, 1, 72, 0
4, 9792, Note_on_c, 1, 63, 66
4, 9822, Note_on_c, 1, 63, 0
4, 9824, Note_on_c, 1, 68, 66
4, 9854, Note_on_c, 1, 68, 0
4, 9856, Note_on_c, 1, 72, 66
4, 9886, Note_on_c, 1, 72, 0
4, 9888, Note_on_c, 1, 63, 66
4, 9918, Note_on_c, 1, 63, 0
4, 9920, Note_on_c, 1, 68, 66
4, 9950, Note_on_c, 1, 68, 0
4, 9952, Note_on_c, 1, 72, 66
4, 9982, Note_on_c, 1, 72, 0
4, 9984, Note_on_c, 1, 61, 66
4, 10014, Note_on_c, 1, 61, 0
4, 10016, Note_on_c, 1, 65, 66
4, 10046, Note_on_c, 1, 65, 0
4, 10048, Note_on_c, 1, 68, 66
4, 10078, Note_on_c, 1, 68, 0
4, 10080, Note_on_c, 1, 61, 66
4, 10110, Note_on_c, 1, 61, 0
4, 10112, Note_on_c, 1, 65, 66
4, 10142, Note_on_c, 1, 65, 0
4, 10144, Note_on_c, 1, 68, 66
4, 10174, Note_on_c, 1, 68, 0
4, 10176, Note_on_c, 1, 61, 66
4, 10206, Note_on_c, 1, 61, 0
4, 10208, Note_on_c, 1, 65, 66
4, 10238, Note_on_c, 1, 65, 0
4, 10240, Note_on_c, 1, 68, 66
4, 10270, Note_on_c, 1, 68, 0
4, 10272, Note_on_c, 1, 61, 66
4, 10302, Note_on_c, 1, 61, 0
4, 10304, Note_on_c, 1, 65, 66
4, 10334, Note_on_c, 1, 65, 0
4, 10336, Note_on_c, 1, 68, 66
4, 10366, Note_on_c, 1, 68, 0
4, 10368, Note_on_c, 1, 60, 66
4, 10398, Note_on_c, 1, 60, 0
4, 10400, Note_on_c, 1, 63, 66
4, 10430, Note_on_c, 1, 63, 0
4, 10432, Note_on_c, 1, 69, 66
4, 10462, Note_on_c, 1, 69, 0
4, 10464, Note_on_c, 1, 60, 66
4, 10494, Note_on_c, 1, 60, 0
4, 10496, Note_on_c, 1, 63, 66
4, 10526, Note_on_c, 1, 63, 0
4, 10528, Note_on_c, 1, 69, 66
4, 10558, Note_on_c, 1, 69, 0
4, 10560, Note_on_c, 1, 60, 66
4, 10590, Note_on_c, 1, 60, 0
4, 10592, Note_on_c, 1, 63, 66
4, 10622, Note_on_c, 1, 63, 0
4, 10624, Note_on_c, 1, 69, 66
4, 10654, Note_on_c, 1, 69, 0
4, 10656, Note_on_c, 1, 60, 66
4, 10686, Note_on_c, 1, 60, 0
4, 10688, Note_on_c, 1, 63, 66
4, 10718, Note_on_c, 1, 63, 0
4, 10720, Note_on_c, 1, 69, 66
4, 10750, Note_on_c, 1, 69, 0
4, 10752, Note_on_c, 1, 58, 66
4, 10782, Note_on_c, 1, 58, 0
4, 10784, Note_on_c, 1, 61, 66
4, 10814, Note_on_c, 1, 61, 0
4, 10816, Note_on_c, 1, 65, 66
4, 10846, Note_on_c, 1, 65, 0
4, 10848, Note_on_c, 1, 58, 66
4, 10878, Note_on_c, 1, 58, 0
4, 10880, Note_on_c, 1, 61, 66
4, 10910, Note_on_c, 1, 61, 0
4, 10912, Note_on_c, 1, 65, 66
4, 10942, Note_on_c, 1, 65, 0
4, 10944, Note_on_c, 1, 58, 66
4, 10974, Note_on_c, 1, 58, 0
4, 10976, Note_on_c, 1, 61, 66
4, 11006, Note_on_c, 1, 61, 0
4, 11008, Note_on_c, 1, 65, 66
4, 11038, Note_on_c, 1, 65, 0
4, 11040, Note_on_c, 1, 58, 66
4, 11070, Note_on_c, 1, 58, 0
4, 11072, Note_on_c, 1, 61, 66
4, 11102, Note_on_c, 1, 61, 0
4, 11104, Note_on_c, 1, 65, 66
4, 11134, Note_on_c, 1, 65, 0
4, 11136, Note_on_c, 1, 56, 66
4, 11166, Note_on_c, 1, 56, 0
4, 11168, Note_on_c, 1, 60, 66
4, 11198, Note_on_c, 1, 60, 0
4, 11200, Note_on_c, 1, 65, 66
4, 11230, Note_on_c, 1, 65, 0
4, 11232, Note_on_c, 1, 56, 66
4, 11262, Note_on_c, 1, 56, 0
4, 11264, Note_on_c, 1, 60, 66
4, 11294, Note_on_c, 1, 60, 0
4, 11296, Note_on_c, 1, 65, 66
4, 11326, Note_on_c, 1, 65, 0
4, 11328, Note_on_c, 1, 56, 66
4, 11358, Note_on_c, 1, 56, 0
4, 11360, Note_on_c, 1, 60, 66
4, 11390, Note_on_c, 1, 60, 0
4, 11392, Note_on_c, 1, 65, 66
4, 11422, Note_on_c, 1, 65, 0
4, 11424, Note_on_c, 1, 56, 66
4, 11454, Note_on_c, 1, 56, 0
4, 11456, Note_on_c, 1, 60, 66
4, 11486, Note_on_c, 1, 60, 0
4, 11488, Note_on_c, 1, 65, 66
4, 11518, Note_on_c, 1, 65, 0
4, 11520, Note_on_c, 1, 55, 75
4, 11697, Note_on_c, 1, 55, 0
4, 11904, Note_on_c, 1, 59, 66
4, 11934, Note_on_c, 1, 59, 0
4, 11936, Note_on_c, 1, 62, 66
4, 11966, Note_on_c, 1, 62, 0
4, 11968, Note_on_c, 1, 67, 66
4, 11998, Note_on_c, 1, 67, 0
4, 12000, Note_on_c, 1, 59, 66
4, 12030, Note_on_c, 1, 59, 0
4, 12032, Note_on_c, 1, 62, 66
4, 12062, Note_on_c, 1, 62, 0
4, 12064, Note_on_c, 1, 67, 66
4, 12094, Note_on_c, 1, 67, 0
4, 12096, Note_on_c, 1, 59, 66
4, 12126, Note_on_c, 1, 59, 0
4, 12128, Note_on_c, 1, 62, 66
4, 12158, Note_on_c, 1, 62, 0
4, 12160, Note_on_c, 1, 67, 66
4, 12190, Note_on_c, 1, 67, 0
4, 12192, Note_on_c, 1, 59, 66
4, 12222, Note_on_c, 1, 59, 0
4, 12224, Note_on_c, 1, 62, 66
4, 12254, Note_on_c, 1, 62, 0
4, 12256, Note_on_c, 1, 67, 66
4, 12286, Note_on_c, 1, 67, 0
4, 12288, Note_on_c, 1, 60, 75
4, 12465, Note_on_c, 1, 60, 0
4, 12672, Note_on_c, 1, 64, 66
4, 12702, Note_on_c, 1, 64, 0
4, 12704, Note_on_c, 1, 67, 66
4, 12734, Note_on_c, 1, 67, 0
4, 12736, Note_on_c, 1, 72, 66
4, 12766, Note_on_c, 1, 72, 0
4, 12768, Note_on_c, 1, 64, 66
4, 12798, Note_on_c, 1, 64, 0
4, 12800, Note_on_c, 1, 67, 66
4, 12830, Note_on_c, 1, 67, 0
4, 12832, Note_on_c, 1, 72, 66
4, 12862, Note_on_c, 1, 72, 0
4, 12864, Note_on_c, 1, 64, 66
4, 12894, Note_on_c, 1, 64, 0
4, 12896, Note_on_c, 1, 67, 66
4, 12926, Note_on_c, 1, 67, 0
4, 12928, Note_on_c, 1, 72, 66
4, 12958, Note_on_c, 1, 72, 0
4, 12960, Note_on_c, 1, 64, 66
4, 12990, Note_on_c, 1, 64, 0
4, 12992, Note_on_c, 1, 67, 66
4, 13022, Note_on_c, 1, 67, 0
4, 13024, Note_on_c, 1, 72, 66
4, 13054, Note_on_c, 1, 72, 0
4, 13056, Note_on_c, 1, 65, 66
4, 13086, Note_on_c, 1, 65, 0
4, 13088, Note_on_c, 1, 69, 66
4, 13118, Note_on_c, 1, 69, 0
4, 13120, Note_on_c, 1, 72, 66
4, 13150, Note_on_c, 1, 72, 0
4, 13152, Note_on_c, 1, 65, 66
4, 13182, Note_on_c, 1, 65, 0
4, 13184, Note_on_c, 1, 69, 66
4, 13214, Note_on_c, 1, 69, 0
4, 13216, Note_on_c, 1, 72, 66
4, 13246, Note_on_c, 1, 72, 0
4, 13248, Note_on_c, 1, 67, 66
4, 13278, Note_on_c, 1, 67, 0
4, 13280, Note_on_c, 1, 70, 66
4, 13310, Note_on_c, 1, 70, 0
4, 13312, Note_on_c, 1, 72, 66
4, 13342, Note_on_c, 1, 72, 0
4, 13344, Note_on_c, 1, 67, 66
4, 13374, Note_on_c, 1, 67, 0
4, 13376, Note_on_c, 1, 70, 66
4, 13406, Note_on_c, 1, 70, 0
4, 13408, Note_on_c, 1, 72, 66
4, 13438, Note_on_c, 1, 72, 0
4, 13440, Note_on_c, 1, 65, 66
4, 13470, Note_on_c, 1, 65, 0
4, 13472, Note_on_c, 1, 69, 66
4, 13502, Note_on_c, 1, 69, 0
4, 13504, Note_on_c, 1, 72, 66
4, 13534, Note_on_c, 1, 72, 0
4, 13536, Note_on_c, 1, 65, 66
4, 13566, Note_on_c, 1, 65, 0
4, 13568, Note_on_c, 1, 69, 66
4, 13598, Note_on_c, 1, 69, 0
4, 13600, Note_on_c, 1, 72, 66
4, 13630, Note_on_c, 1, 72, 0
4, 13632, Note_on_c, 1, 64, 66
4, 13662, Note_on_c, 1, 64, 0
4, 13664, Note_on_c, 1, 67, 66
4, 13694, Note_on_c, 1, 67, 0
4, 13696, Note_on_c, 1, 72, 66
4, 13726, Note_on_c, 1, 72, 0
4, 13728, Note_on_c, 1, 64, 66
4, 13758, Note_on_c, 1, 64, 0
4, 13760, Note_on_c, 1, 67, 66
4, 13790, Note_on_c, 1, 67, 0
4, 13792, Note_on_c, 1, 72, 66
4, 13822, Note_on_c, 1, 72, 0
4, 13824, Note_on_c, 1, 65, 66
4, 13854, Note_on_c, 1, 65, 0
4, 13856, Note_on_c, 1, 69, 66
4, 13886, Note_on_c, 1, 69, 0
4, 13888, Note_on_c, 1, 72, 66
4, 13918, Note_on_c, 1, 72, 0
4, 13920, Note_on_c, 1, 65, 66
4, 13950, Note_on_c, 1, 65, 0
4, 13952, Note_on_c, 1, 69, 66
4, 13982, Note_on_c, 1, 69, 0
4, 13984, Note_on_c, 1, 72, 66
4, 14014, Note_on_c, 1, 72, 0
4, 14016, Note_on_c, 1, 67, 66
4, 14046, Note_on_c, 1, 67, 0
4, 14048, Note_on_c, 1, 70, 66
4, 14078, Note_on_c, 1, 70, 0
4, 14080, Note_on_c, 1, 72, 66
4, 14110, Note_on_c, 1, 72, 0
4, 14112, Note_on_c, 1, 67, 66
4, 14142, Note_on_c, 1, 67, 0
4, 14144, Note_on_c, 1, 70, 66
4, 14174, Note_on_c, 1, 70, 0
4, 14176, Note_on_c, 1, 72, 66
4, 14206, Note_on_c, 1, 72, 0
4, 14208, Note_on_c, 1, 65, 66
4, 14238, Note_on_c, 1, 65, 0
4, 14240, Note_on_c, 1, 69, 66
4, 14270, Note_on_c, 1, 69, 0
4, 14272, Note_on_c, 1, 72, 67
4, 14302, Note_on_c, 1, 72, 0
4, 14304, Note_on_c, 1, 65, 67
4, 14334, Note_on_c, 1, 65, 0
4, 14336, Note_on_c, 1, 69, 68
4, 14366, Note_on_c, 1, 69, 0
4, 14368, Note_on_c, 1, 72, 69
4, 14398, Note_on_c, 1, 72, 0
4, 14400, Note_on_c, 1, 64, 69
4, 14430, Note_on_c, 1, 64, 0
4, 14432, Note_on_c, 1, 67, 70
4, 14462, Note_on_c, 1, 67, 0
4, 14464, Note_on_c, 1, 72, 71
4, 14494, Note_on_c, 1, 72, 0
4, 14496, Note_on_c, 1, 64, 71
4, 14526, Note_on_c, 1, 64, 0
4, 14528, Note_on_c, 1, 67, 72
4, 14558, Note_on_c, 1, 67, 0
4, 14560, Note_on_c, 1, 72, 72
4, 14590, Note_on_c, 1, 72, 0
4, 14592, Note_on_c, 1, 65, 73
4, 14622, Note_on_c, 1, 65, 0
4, 14624, Note_on_c, 1, 69, 74
4, 14654, Note_on_c, 1, 69, 0
4, 14656, Note_on_c, 1, 72, 74
4, 14686, Note_on_c, 1, 72, 0
4, 14688, Note_on_c, 1, 65, 75
4, 14718, Note_on_c, 1, 65, 0
4, 14720, Note_on_c, 1, 69, 76
4, 14750, Note_on_c, 1, 69, 0
4, 14752, Note_on_c, 1, 72, 76
4, 14782, Note_on_c, 1, 72, 0
4, 14784, Note_on_c, 1, 62, 77
4, 14814, Note_on_c, 1, 62, 0
4, 14816, Note_on_c, 1, 65, 77
4, 14846, Note_on_c, 1, 65, 0
4, 14848, Note_on_c, 1, 70, 78
4, 14878, Note_on_c, 1, 70, 0
4, 14880, Note_on_c, 1, 62, 79
4, 14910, Note_on_c, 1, 62, 0
4, 14912, Note_on_c, 1, 65, 79
4, 14942, Note_on_c, 1, 65, 0
4, 14944, Note_on_c, 1, 70, 80
4, 14974, Note_on_c, 1, 70, 0
4, 14976, Note_on_c, 1, 57, 82
4, 15065, Note_on_c, 1, 57, 0
4, 15360, Note_on_c, 1, 65, 82
4, 15360, Note_on_c, 1, 57, 82
4, 15449, Note_on_c, 1, 65, 0
4, 15449, Note_on_c, 1, 57, 0
4, 15744, Note_on_c, 1, 65, 82
4, 15744, Note_on_c, 1, 58, 82
4, 15833, Note_on_c, 1, 65, 0
4, 15833, Note_on_c, 1, 58, 0
4, 16224, Note_on_c, 1, 69, 66
4, 16224, Note_on_c, 1, 65, 66
4, 16224, Note_on_c, 1, 60, 66
4, 16263, Note_on_c, 1, 69, 0
4, 16263, Note_on_c, 1, 65, 0
4, 16263, Note_on_c, 1, 60, 0
4, 16320, Note_on_c, 1, 69, 66
4, 16320, Note_on_c, 1, 65, 66
4, 16320, Note_on_c, 1, 60, 66
4, 16409, Note_on_c, 1, 69, 0
4, 16409, Note_on_c, 1, 65, 0
4, 16409, Note_on_c, 1, 60, 0
4, 16512, Note_on_c, 1, 69, 66
4, 16512, Note_on_c, 1, 65, 66
4, 16512, Note_on_c, 1, 60, 66
4, 16551, Note_on_c, 1, 69, 0
4, 16551, Note_on_c, 1, 65, 0
4, 16551, Note_on_c, 1, 60, 0
4, 16704, Note_on_c, 1, 69, 69
4, 16704, Note_on_c, 1, 65, 69
4, 16704, Note_on_c, 1, 60, 69
4, 16743, Note_on_c, 1, 69, 0
4, 16743, Note_on_c, 1, 65, 0
4, 16743, Note_on_c, 1, 60, 0
4, 16896, Note_on_c, 1, 69, 73
4, 16896, Note_on_c, 1, 65, 73
4, 16896, Note_on_c, 1, 60, 73
4, 16935, Note_on_c, 1, 69, 0
4, 16935, Note_on_c, 1, 65, 0
4, 16935, Note_on_c, 1, 60, 0
4, 17568, Note_on_c, 1, 59, 82
4, 17568, Note_on_c, 1, 47, 82
4, 17664, Note_on_c, 1, 59, 0
4, 17664, Note_on_c, 1, 47, 0
4, 17664, Note_on_c, 1, 60, 82
4, 17664, Note_on_c, 1, 48, 82
4, 17753, Note_on_c, 1, 60, 0
4, 17753, Note_on_c, 1, 48, 0
4, 17856, Note_on_c, 1, 70, 75
4, 17856, Note_on_c, 1, 60, 75
4, 18033, Note_on_c, 1, 70, 0
4, 18033, Note_on_c, 1, 60, 0
4, 18048, Note_on_c, 1, 65, 75
4, 18115, Note_on_c, 1, 65, 0
4, 18120, Note_on_c, 1, 69, 73
4, 18143, Note_on_c, 1, 69, 0
4, 18144, Note_on_c, 1, 64, 72
4, 18211, Note_on_c, 1, 64, 0
4, 18216, Note_on_c, 1, 67, 71
4, 18239, Note_on_c, 1, 67, 0
4, 18240, Note_on_c, 1, 62, 70
4, 18307, Note_on_c, 1, 62, 0
4, 18312, Note_on_c, 1, 65, 68
4, 18335, Note_on_c, 1, 65, 0
4, 18336, Note_on_c, 1, 60, 68
4, 18403, Note_on_c, 1, 60, 0
4, 18408, Note_on_c, 1, 64, 66
4, 18431, Note_on_c, 1, 64, 0
4, 18432, Note_on_c, 1, 58, 66
4, 18697, Note_on_c, 1, 58, 0
4, 18720, Note_on_c, 1, 70, 56
4, 18809, Note_on_c, 1, 70, 0
4, 18816, Note_on_c, 1, 69, 56
4, 18905, Note_on_c, 1, 69, 0
4, 18912, Note_on_c, 1, 70, 56
4, 19001, Note_on_c, 1, 70, 0
4, 19008, Note_on_c, 1, 72, 56
4, 19097, Note_on_c, 1, 72, 0
4, 19104, Note_on_c, 1, 60, 56
4, 19193, Note_on_c, 1, 60, 0
4, 19200, Note_on_c, 1, 65, 82
4, 19230, Note_on_c, 1, 65, 0
4, 19232, Note_on_c, 1, 67, 82
4, 19262, Note_on_c, 1, 67, 0
4, 19264, Note_on_c, 1, 69, 81
4, 19294, Note_on_c, 1, 69, 0
4, 19296, Note_on_c, 1, 64, 80
4, 19326, Note_on_c, 1, 64, 0
4, 19328, Note_on_c, 1, 65, 80
4, 19358, Note_on_c, 1, 65, 0
4, 19360, Note_on_c, 1, 67, 79
4, 19390, Note_on_c, 1, 67, 0
4, 19392, Note_on_c, 1, 62, 79
4, 19422, Note_on_c, 1, 62, 0
4, 19424, Note_on_c, 1, 64, 78
4, 19454, Note_on_c, 1, 64, 0
4, 19456, Note_on_c, 1, 65, 77
4, 19486, Note_on_c, 1, 65, 0
4, 19488, Note_on_c, 1, 60, 77
4, 19518, Note_on_c, 1, 60, 0
4, 19520, Note_on_c, 1, 62, 76
4, 19550, Note_on_c, 1, 62, 0
4, 19552, Note_on_c, 1, 64, 76
4, 19582, Note_on_c, 1, 64, 0
4, 19584, Note_on_c, 1, 58, 75
4, 19849, Note_on_c, 1, 58, 0
4, 19872, Note_on_c, 1, 70, 75
4, 19961, Note_on_c, 1, 70, 0
4, 19968, Note_on_c, 1, 69, 75
4, 20057, Note_on_c, 1, 69, 0
4, 20064, Note_on_c, 1, 70, 70
4, 20153, Note_on_c, 1, 70, 0
4, 20160, Note_on_c, 1, 69, 65
4, 20249, Note_on_c, 1, 69, 0
4, 20256, Note_on_c, 1, 67, 60
4, 20345, Note_on_c, 1, 67, 0
4, 20352, Note_on_c, 1, 69, 56
4, 20441, Note_on_c, 1, 69, 0
4, 20448, Note_on_c, 1, 69, 54
4, 20537, Note_on_c, 1, 69, 0
4, 20544, Note_on_c, 1, 69, 53
4, 20633, Note_on_c, 1, 69, 0
4, 20640, Note_on_c, 1, 69, 51
4, 20729, Note_on_c, 1, 69, 0
4, 20736, Note_on_c, 1, 69, 50
4, 20830, Note_on_c, 1, 69, 0
4, 21120, Note_on_c, 1, 58, 82
4, 21120, Note_on_c, 1, 53, 82
4, 21120, Note_on_c, 1, 50, 82
4, 21120, Note_on_c, 1, 46, 82
4, 21297, Note_on_c, 1, 58, 0
4, 21297, Note_on_c, 1, 53, 0
4, 21297, Note_on_c, 1, 50, 0
4, 21297, Note_on_c, 1, 46, 0
4, 21600, Note_on_c, 1, 70, 75
4, 21600, Note_on_c, 1, 66, 75
4, 21696, Note_on_c, 1, 70, 0
4, 21696, Note_on_c, 1, 66, 0
4, 21696, Note_on_c, 1, 69, 70
4, 21696, Note_on_c, 1, 65, 70
4, 21785, Note_on_c, 1, 69, 0
4, 21785, Note_on_c, 1, 65, 0
4, 22368, Note_on_c, 1, 60, 66
4, 22560, Note_on_c, 1, 60, 0
4, 22560, Note_on_c, 1, 58, 66
4, 22649, Note_on_c, 1, 58, 0
4, 23040, Note_on_c, 1, 65, 82
4, 23040, Note_on_c, 1, 63, 82
4, 23040, Note_on_c, 1, 60, 82
4, 23040, Note_on_c, 1, 57, 82
4, 23394, Note_on_c, 1, 65, 0
4, 23394, Note_on_c, 1, 63, 0
4, 23394, Note_on_c, 1, 60, 0
4, 23394, Note_on_c, 1, 57, 0
4, 23424, Note_on_c, 1, 58, 75
4, 23513, Note_on_c, 1, 58, 0
4, 23520, Note_on_c, 1, 67, 75
4, 23609, Note_on_c, 1, 67, 0
4, 23616, Note_on_c, 1, 65, 75
4, 23705, Note_on_c, 1, 65, 0
4, 23712, Note_on_c, 1, 63, 75
4, 23712, Note_on_c, 1, 53, 75
4, 23801, Note_on_c, 1, 63, 0
4, 23801, Note_on_c, 1, 53, 0
4, 23808, Note_on_c, 1, 62, 75
4, 23808, Note_on_c, 1, 58, 75
4, 23941, Note_on_c, 1, 62, 0
4, 23941, Note_on_c, 1, 58, 0
4, 24960, Note_on_c, 1, 53, 75
4, 24960, Note_on_c, 1, 41, 75
4, 25137, Note_on_c, 1, 53, 0
4, 25137, Note_on_c, 1, 41, 0
4, 25416, Note_on_c, 1, 57, 82
4, 25439, Note_on_c, 1, 57, 0
4, 25440, Note_on_c, 1, 58, 82
4, 25507, Note_on_c, 1, 58, 0
4, 25512, Note_on_c, 1, 57, 82
4, 25535, Note_on_c, 1, 57, 0
4, 25536, Note_on_c, 1, 58, 82
4, 25625, Note_on_c, 1, 58, 0
4, 25728, Note_on_c, 1, 58, 82
4, 25728, Note_on_c, 1, 53, 82
4, 25728, Note_on_c, 1, 50, 82
4, 25728, Note_on_c, 1, 46, 82
4, 25905, Note_on_c, 1, 58, 0
4, 25905, Note_on_c, 1, 53, 0
4, 25905, Note_on_c, 1, 50, 0
4, 25905, Note_on_c, 1, 46, 0
4, 26016, Note_on_c, 1, 62, 82
4, 26105, Note_on_c, 1, 62, 0
4, 26112, Note_on_c, 1, 63, 82
4, 26201, Note_on_c, 1, 63, 0
4, 26208, Note_on_c, 1, 65, 82
4, 26297, Note_on_c, 1, 65, 0
4, 26304, Note_on_c, 1, 67, 82
4, 26393, Note_on_c, 1, 67, 0
4, 26400, Note_on_c, 1, 69, 82
4, 26489, Note_on_c, 1, 69, 0
4, 26496, Note_on_c, 1, 70, 82
4, 26585, Note_on_c, 1, 70, 0
4, 26784, Note_on_c, 1, 62, 82
4, 26873, Note_on_c, 1, 62, 0
4, 26880, Note_on_c, 1, 63, 75
4, 26969, Note_on_c, 1, 63, 0
4, 26976, Note_on_c, 1, 65, 73
4, 27065, Note_on_c, 1, 65, 0
4, 27072, Note_on_c, 1, 67, 71
4, 27161, Note_on_c, 1, 67, 0
4, 27168, Note_on_c, 1, 69, 69
4, 27257, Note_on_c, 1, 69, 0
4, 27264, Note_on_c, 1, 70, 67
4, 27264, Note_on_c, 1, 58, 67
4, 27309, Note_on_c, 1, 70, 0
4, 27309, Note_on_c, 1, 58, 0
4, 27360, Note_on_c, 1, 69, 66
4, 27360, Note_on_c, 1, 58, 66
4, 27405, Note_on_c, 1, 69, 0
4, 27405, Note_on_c, 1, 58, 0
4, 27456, Note_on_c, 1, 70, 66
4, 27456, Note_on_c, 1, 58, 66
4, 27501, Note_on_c, 1, 70, 0
4, 27501, Note_on_c, 1, 58, 0
4, 27552, Note_on_c, 1, 69, 66
4, 27552, Note_on_c, 1, 58, 66
4, 27597, Note_on_c, 1, 69, 0
4, 27597, Note_on_c, 1, 58, 0
4, 27648, Note_on_c, 1, 70, 66
4, 27648, Note_on_c, 1, 58, 66
4, 27693, Note_on_c, 1, 70, 0
4, 27693, Note_on_c, 1, 58, 0
4, 27936, Note_on_c, 1, 53, 65
4, 27936, Note_on_c, 1, 50, 65
4, 28025, Note_on_c, 1, 53, 0
4, 28025, Note_on_c, 1, 50, 0
4, 28032, Note_on_c, 1, 55, 70
4, 28032, Note_on_c, 1, 51, 70
4, 28121, Note_on_c, 1, 55, 0
4, 28121, Note_on_c, 1, 51, 0
4, 28368, Note_on_c, 1, 60, 68
4, 28368, Note_on_c, 1, 52, 68
4, 28413, Note_on_c, 1, 60, 0
4, 28413, Note_on_c, 1, 52, 0
4, 28416, Note_on_c, 1, 62, 66
4, 28416, Note_on_c, 1, 53, 66
4, 28608, Note_on_c, 1, 62, 0
4, 28608, Note_on_c, 1, 60, 58
4, 28653, Note_on_c, 1, 60, 0
4, 28653, Note_on_c, 1, 53, 0
4, 28896, Note_on_c, 1, 53, 82
4, 28896, Note_on_c, 1, 48, 82
4, 28896, Note_on_c, 1, 45, 82
4, 28896, Note_on_c, 1, 41, 82
4, 28985, Note_on_c, 1, 53, 0
4, 28985, Note_on_c, 1, 48, 0
4, 28985, Note_on_c, 1, 45, 0
4, 28985, Note_on_c, 1, 41, 0
4, 29088, Note_on_c, 1, 48, 82
4, 29088, Note_on_c, 1, 43, 82
4, 29088, Note_on_c, 1, 40, 82
4, 29088, Note_on_c, 1, 36, 82
4, 29177, Note_on_c, 1, 48, 0
4, 29177, Note_on_c, 1, 43, 0
4, 29177, Note_on_c, 1, 40, 0
4, 29177, Note_on_c, 1, 36, 0
4, 29280, Note_on_c, 1, 41, 82
4, 29280, Note_on_c, 1, 36, 82
4, 29280, Note_on_c, 1, 33, 82
4, 29280, Note_on_c, 1, 29, 82
4, 29369, Note_on_c, 1, 41, 0
4, 29369, Note_on_c, 1, 36, 0
4, 29369, Note_on_c, 1, 33, 0
4, 29369, Note_on_c, 1, 29, 0
4, 29664, Note_on_c, 1, 72, 75
4, 29664, Note_on_c, 1, 70, 75
4, 29753, Note_on_c, 1, 72, 0
4, 29753, Note_on_c, 1, 70, 0
4, 29856, Note_on_c, 1, 72, 62
4, 29856, Note_on_c, 1, 69, 62
4, 29945, Note_on_c, 1, 72, 0
4, 29945, Note_on_c, 1, 69, 0
4, 30048, Note_on_c, 1, 72, 56
4, 30048, Note_on_c, 1, 64, 56
4, 30142, Note_on_c, 1, 72, 0
4, 30142, Note_on_c, 1, 64, 0
4, 30336, Note_on_c, 1, 65, 66
4, 30366, Note_on_c, 1, 65, 0
4, 30368, Note_on_c, 1, 68, 66
4, 30398, Note_on_c, 1, 68, 0
4, 30400, Note_on_c, 1, 72, 66
4, 30430, Note_on_c, 1, 72, 0
4, 30432, Note_on_c, 1, 65, 66
4, 30462, Note_on_c, 1, 65, 0
4, 30464, Note_on_c, 1, 68, 66
4, 30494, Note_on_c, 1, 68, 0
4, 30496, Note_on_c, 1, 72, 66
4, 30526, Note_on_c, 1, 72, 0
4, 30528, Note_on_c, 1, 65, 66
4, 30558, Note_on_c, 1, 65, 0
4, 30560, Note_on_c, 1, 68, 66
4, 30590, Note_on_c, 1, 68, 0
4, 30592, Note_on_c, 1, 72, 66
4, 30622, Note_on_c, 1, 72, 0
4, 30624, Note_on_c, 1, 65, 66
4, 30654, Note_on_c, 1, 65, 0
4, 30656, Note_on_c, 1, 68, 66
4, 30686, Note_on_c, 1, 68, 0
4, 30688, Note_on_c, 1, 72, 66
4, 30718, Note_on_c, 1, 72, 0
4, 30720, Note_on_c, 1, 63, 66
4, 30750, Note_on_c, 1, 63, 0
4, 30752, Note_on_c, 1, 68, 66
4, 30782, Note_on_c, 1, 68, 0
4, 30784, Note_on_c, 1, 72, 66
4, 30814, Note_on_c, 1, 72, 0
4, 30816, Note_on_c, 1, 63, 66
4, 30846, Note_on_c, 1, 63, 0
4, 30848, Note_on_c, 1, 68, 66
4, 30878, Note_on_c, 1, 68, 0
4, 30880, Note_on_c, 1, 72, 66
4, 30910, Note_on_c, 1, 72, 0
4, 30912, Note_on_c, 1, 63, 66
4, 30942, Note_on_c, 1, 63, 0
4, 30944, Note_on_c, 1, 68, 66
4, 30974, Note_on_c, 1, 68, 0
4, 30976, Note_on_c, 1, 72, 66
4, 31006, Note_on_c, 1, 72, 0
4, 31008, Note_on_c, 1, 63, 66
4, 31038, Note_on_c, 1, 63, 0
4, 31040, Note_on_c, 1, 68, 66
4, 31070, Note_on_c, 1, 68, 0
4, 31072, Note_on_c, 1, 72, 66
4, 31102, Note_on_c, 1, 72, 0
4, 31104, Note_on_c, 1, 61, 66
4, 31134, Note_on_c, 1, 61, 0
4, 31136, Note_on_c, 1, 65, 66
4, 31166, Note_on_c, 1, 65, 0
4, 31168, Note_on_c, 1, 68, 66
4, 31198, Note_on_c, 1, 68, 0
4, 31200, Note_on_c, 1, 61, 66
4, 31230, Note_on_c, 1, 61, 0
4, 31232, Note_on_c, 1, 65, 66
4, 31262, Note_on_c, 1, 65, 0
4, 31264, Note_on_c, 1, 68, 66
4, 31294, Note_on_c, 1, 68, 0
4, 31296, Note_on_c, 1, 61, 66
4, 31326, Note_on_c, 1, 61, 0
4, 31328, Note_on_c, 1, 65, 66
4, 31358, Note_on_c, 1, 65, 0
4, 31360, Note_on_c, 1, 68, 66
4, 31390, Note_on_c, 1, 68, 0
4, 31392, Note_on_c, 1, 61, 66
4, 31422, Note_on_c, 1, 61, 0
4, 31424, Note_on_c, 1, 65, 66
4, 31454, Note_on_c, 1, 65, 0
4, 31456, Note_on_c, 1, 68, 66
4, 31486, Note_on_c, 1, 68, 0
4, 31488, Note_on_c, 1, 60, 66
4, 31518, Note_on_c, 1, 60, 0
4, 31520, Note_on_c, 1, 63, 66
4, 31550, Note_on_c, 1, 63, 0
4, 31552, Note_on_c, 1, 69, 66
4, 31582, Note_on_c, 1, 69, 0
4, 31584, Note_on_c, 1, 60, 66
4, 31614, Note_on_c, 1, 60, 0
4, 31616, Note_on_c, 1, 63, 66
4, 31646, Note_on_c, 1, 63, 0
4, 31648, Note_on_c, 1, 69, 66
4, 31678, Note_on_c, 1, 69, 0
4, 31680, Note_on_c, 1, 60, 66
4, 31710, Note_on_c, 1, 60, 0
4, 31712, Note_on_c, 1, 63, 66
4, 31742, Note_on_c, 1, 63, 0
4, 31744, Note_on_c, 1, 69, 66
4, 31774, Note_on_c, 1, 69, 0
4, 31776, Note_on_c, 1, 60, 66
4, 31806, Note_on_c, 1, 60, 0
4, 31808, Note_on_c, 1, 63, 66
4, 31838, Note_on_c, 1, 63, 0
4, 31840, Note_on_c, 1, 69, 66
4, 31870, Note_on_c, 1, 69, 0
4, 31872, Note_on_c, 1, 58, 66
4, 31902, Note_on_c, 1, 58, 0
4, 31904, Note_on_c, 1, 61, 66
4, 31934, Note_on_c, 1, 61, 0
4, 31936, Note_on_c, 1, 65, 66
4, 31966, Note_on_c, 1, 65, 0
4, 31968, Note_on_c, 1, 58, 66
4, 31998, Note_on_c, 1, 58, 0
4, 32000, Note_on_c, 1, 61, 66
4, 32030, Note_on_c, 1, 61, 0
4, 32032, Note_on_c, 1, 65, 66
4, 32062, Note_on_c, 1, 65, 0
4, 32064, Note_on_c, 1, 58, 66
4, 32094, Note_on_c, 1, 58, 0
4, 32096, Note_on_c, 1, 61, 66
4, 32126, Note_on_c, 1, 61, 0
4, 32128, Note_on_c, 1, 65, 66
4, 32158, Note_on_c, 1, 65, 0
4, 32160, Note_on_c, 1, 58, 66
4, 32190, Note_on_c, 1, 58, 0
4, 32192, Note_on_c, 1, 61, 66
4, 32222, Note_on_c, 1, 61, 0
4, 32224, Note_on_c, 1, 65, 66
4, 32254, Note_on_c, 1, 65, 0
4, 32256, Note_on_c, 1, 56, 66
4, 32286, Note_on_c, 1, 56, 0
4, 32288, Note_on_c, 1, 60, 66
4, 32318, Note_on_c, 1, 60, 0
4, 32320, Note_on_c, 1, 65, 66
4, 32350, Note_on_c, 1, 65, 0
4, 32352, Note_on_c, 1, 56, 66
4, 32382, Note_on_c, 1, 56, 0
4, 32384, Note_on_c, 1, 60, 66
4, 32414, Note_on_c, 1, 60, 0
4, 32416, Note_on_c, 1, 65, 66
4, 32446, Note_on_c, 1, 65, 0
4, 32448, Note_on_c, 1, 56, 66
4, 32478, Note_on_c, 1, 56, 0
4, 32480, Note_on_c, 1, 60, 66
4, 32510, Note_on_c, 1, 60, 0
4, 32512, Note_on_c, 1, 65, 66
4, 32542, Note_on_c, 1, 65, 0
4, 32544, Note_on_c, 1, 56, 66
4, 32574, Note_on_c, 1, 56, 0
4, 32576, Note_on_c, 1, 60, 66
4, 32606, Note_on_c, 1, 60, 0
4, 32608, Note_on_c, 1, 65, 66
4, 32638, Note_on_c, 1, 65, 0
4, 32640, Note_on_c, 1, 55, 75
4, 32817, Note_on_c, 1, 55, 0
4, 33024, Note_on_c, 1, 59, 66
4, 33054, Note_on_c, 1, 59, 0
4, 33056, Note_on_c, 1, 62, 66
4, 33086, Note_on_c, 1, 62, 0
4, 33088, Note_on_c, 1, 67, 66
4, 33118, Note_on_c, 1, 67, 0
4, 33120, Note_on_c, 1, 59, 66
4, 33150, Note_on_c, 1, 59, 0
4, 33152, Note_on_c, 1, 62, 66
4, 33182, Note_on_c, 1, 62, 0
4, 33184, Note_on_c, 1, 67, 66
4, 33214, Note_on_c, 1, 67, 0
4, 33216, Note_on_c, 1, 59, 66
4, 33246, Note_on_c, 1, 59, 0
4, 33248, Note_on_c, 1, 62, 66
4, 33278, Note_on_c, 1, 62, 0
4, 33280, Note_on_c, 1, 67, 66
4, 33310, Note_on_c, 1, 67, 0
4, 33312, Note_on_c, 1, 59, 66
4, 33342, Note_on_c, 1, 59, 0
4, 33344, Note_on_c, 1, 62, 66
4, 33374, Note_on_c, 1, 62, 0
4, 33376, Note_on_c, 1, 67, 66
4, 33406, Note_on_c, 1, 67, 0
4, 33408, Note_on_c, 1, 60, 75
4, 33585, Note_on_c, 1, 60, 0
4, 33792, Note_on_c, 1, 64, 66
4, 33822, Note_on_c, 1, 64, 0
4, 33824, Note_on_c, 1, 67, 66
4, 33854, Note_on_c, 1, 67, 0
4, 33856, Note_on_c, 1, 72, 66
4, 33886, Note_on_c, 1, 72, 0
4, 33888, Note_on_c, 1, 64, 66
4, 33918, Note_on_c, 1, 64, 0
4, 33920, Note_on_c, 1, 67, 66
4, 33950, Note_on_c, 1, 67, 0
4, 33952, Note_on_c, 1, 72, 66
4, 33982, Note_on_c, 1, 72, 0
4, 33984, Note_on_c, 1, 64, 66
4, 34014, Note_on_c, 1, 64, 0
4, 34016, Note_on_c, 1, 67, 66
4, 34046, Note_on_c, 1, 67, 0
4, 34048, Note_on_c, 1, 72, 66
4, 34078, Note_on_c, 1, 72, 0
4, 34080, Note_on_c, 1, 64, 66
4, 34110, Note_on_c, 1, 64, 0
4, 34112, Note_on_c, 1, 67, 66
4, 34142, Note_on_c, 1, 67, 0
4, 34144, Note_on_c, 1, 72, 66
4, 34174, Note_on_c, 1, 72, 0
4, 34176, Note_on_c, 1, 65, 66
4, 34206, Note_on_c, 1, 65, 0
4, 34208, Note_on_c, 1, 69, 66
4, 34238, Note_on_c, 1, 69, 0
4, 34240, Note_on_c, 1, 72, 66
4, 34270, Note_on_c, 1, 72, 0
4, 34272, Note_on_c, 1, 65, 66
4, 34302, Note_on_c, 1, 65, 0
4, 34304, Note_on_c, 1, 69, 66
4, 34334, Note_on_c, 1, 69, 0
4, 34336, Note_on_c, 1, 72, 66
4, 34366, Note_on_c, 1, 72, 0
4, 34368, Note_on_c, 1, 67, 66
4, 34398, Note_on_c, 1, 67, 0
4, 34400, Note_on_c, 1, 70, 66
4, 34430, Note_on_c, 1, 70, 0
4, 34432, Note_on_c, 1, 72, 66
4, 34462, Note_on_c, 1, 72, 0
4, 34464, Note_on_c, 1, 67, 66
4, 34494, Note_on_c, 1, 67, 0
4, 34496, Note_on_c, 1, 70, 66
4, 34526, Note_on_c, 1, 70, 0
4, 34528, Note_on_c, 1, 72, 66
4, 34558, Note_on_c, 1, 72, 0
4, 34560, Note_on_c, 1, 65, 66
4, 34590, Note_on_c, 1, 65, 0
4, 34592, Note_on_c, 1, 69, 66
4, 34622, Note_on_c, 1, 69, 0
4, 34624, Note_on_c, 1, 72, 66
4, 34654, Note_on_c, 1, 72, 0
4, 34656, Note_on_c, 1, 65, 66
4, 34686, Note_on_c, 1, 65, 0
4, 34688, Note_on_c, 1, 69, 66
4, 34718, Note_on_c, 1, 69, 0
4, 34720, Note_on_c, 1, 72, 66
4, 34750, Note_on_c, 1, 72, 0
4, 34752, Note_on_c, 1, 64, 66
4, 34782, Note_on_c, 1, 64, 0
4, 34784, Note_on_c, 1, 67, 66
4, 34814, Note_on_c, 1, 67, 0
4, 34816, Note_on_c, 1, 72, 66
4, 34846, Note_on_c, 1, 72, 0
4, 34848, Note_on_c, 1, 64, 66
4, 34878, Note_on_c, 1, 64, 0
4, 34880, Note_on_c, 1, 67, 66
4, 34910, Note_on_c, 1, 67, 0
4, 34912, Note_on_c, 1, 72, 66
4, 34942, Note_on_c, 1, 72, 0
4, 34944, Note_on_c, 1, 65, 66
4, 34974, Note_on_c, 1, 65, 0
4, 34976, Note_on_c, 1, 69, 66
4, 35006, Note_on_c, 1, 69, 0
4, 35008, Note_on_c, 1, 72, 66
4, 35038, Note_on_c, 1, 72, 0
4, 35040, Note_on_c, 1, 65, 66
4, 35070, Note_on_c, 1, 65, 0
4, 35072, Note_on_c, 1, 69, 66
4, 35102, Note_on_c, 1, 69, 0
4, 35104, Note_on_c, 1, 72, 66
4, 35134, Note_on_c, 1, 72, 0
4, 35136, Note_on_c, 1, 67, 66
4, 35166, Note_on_c, 1, 67, 0
4, 35168, Note_on_c, 1, 70, 66
4, 35198, Note_on_c, 1, 70, 0
4, 35200, Note_on_c, 1, 72, 66
4, 35230, Note_on_c, 1, 72, 0
4, 35232, Note_on_c, 1, 67, 66
4, 35262, Note_on_c, 1, 67, 0
4, 35264, Note_on_c, 1, 70, 66
4, 35294, Note_on_c, 1, 70, 0
4, 35296, Note_on_c, 1, 72, 66
4, 35326, Note_on_c, 1, 72, 0
4, 35328, Note_on_c, 1, 65, 66
4, 35358, Note_on_c, 1, 65, 0
4, 35360, Note_on_c, 1, 69, 66
4, 35390, Note_on_c, 1, 69, 0
4, 35392, Note_on_c, 1, 72, 67
4, 35422, Note_on_c, 1, 72, 0
4, 35424, Note_on_c, 1, 65, 67
4, 35454, Note_on_c, 1, 65, 0
4, 35456, Note_on_c, 1, 69, 68
4, 35486, Note_on_c, 1, 69, 0
4, 35488, Note_on_c, 1, 72, 69
4, 35518, Note_on_c, 1, 72, 0
4, 35520, Note_on_c, 1, 64, 69
4, 35550, Note_on_c, 1, 64, 0
4, 35552, Note_on_c, 1, 67, 70
4, 35582, Note_on_c, 1, 67, 0
4, 35584, Note_on_c, 1, 72, 71
4, 35614, Note_on_c, 1, 72, 0
4, 35616, Note_on_c, 1, 64, 71
4, 35646, Note_on_c, 1, 64, 0
4, 35648, Note_on_c, 1, 67, 72
4, 35678, Note_on_c, 1, 67, 0
4, 35680, Note_on_c, 1, 72, 72
4, 35710, Note_on_c, 1, 72, 0
4, 35712, Note_on_c, 1, 65, 73
4, 35742, Note_on_c, 1, 65, 0
4, 35744, Note_on_c, 1, 69, 74
4, 35774, Note_on_c, 1, 69, 0
4, 35776, Note_on_c, 1, 72, 74
4, 35806, Note_on_c, 1, 72, 0
4, 35808, Note_on_c, 1, 65, 75
4, 35838, Note_on_c, 1, 65, 0
4, 35840, Note_on_c, 1, 69, 76
4, 35870, Note_on_c, 1, 69, 0
4, 35872, Note_on_c, 1, 72, 76
4, 35902, Note_on_c, 1, 72, 0
4, 35904, Note_on_c, 1, 62, 77
4, 35934, Note_on_c, 1, 62, 0
4, 35936, Note_on_c, 1, 65, 77
4, 35966, Note_on_c, 1, 65, 0
4, 35968, Note_on_c, 1, 70, 78
4, 35998, Note_on_c, 1, 70, 0
4, 36000, Note_on_c, 1, 62, 79
4, 36030, Note_on_c, 1, 62, 0
4, 36032, Note_on_c, 1, 65, 79
4, 36062, Note_on_c, 1, 65, 0
4, 36064, Note_on_c, 1, 70, 80
4, 36094, Note_on_c, 1, 70, 0
4, 36096, Note_on_c, 1, 57, 82
4, 36185, Note_on_c, 1, 57, 0
4, 36480, Note_on_c, 1, 65, 82
4, 36480, Note_on_c, 1, 57, 82
4, 36569, Note_on_c, 1, 65, 0
4, 36569, Note_on_c, 1, 57, 0
4, 36864, Note_on_c, 1, 65, 82
4, 36864, Note_on_c, 1, 58, 82
4, 36953, Note_on_c, 1, 65, 0
4, 36953, Note_on_c, 1, 58, 0
4, 37344, Note_on_c, 1, 69, 66
4, 37344, Note_on_c, 1, 65, 66
4, 37344, Note_on_c, 1, 60, 66
4, 37383, Note_on_c, 1, 69, 0
4, 37383, Note_on_c, 1, 65, 0
4, 37383, Note_on_c, 1, 60, 0
4, 37440, Note_on_c, 1, 69, 66
4, 37440, Note_on_c, 1, 65, 66
4, 37440, Note_on_c, 1, 60, 66
4, 37529, Note_on_c, 1, 69, 0
4, 37529, Note_on_c, 1, 65, 0
4, 37529, Note_on_c, 1, 60, 0
4, 37632, Note_on_c, 1, 69, 66
4, 37632, Note_on_c, 1, 65, 66
4, 37632, Note_on_c, 1, 60, 66
4, 37671, Note_on_c, 1, 69, 0
4, 37671, Note_on_c, 1, 65, 0
4, 37671, Note_on_c, 1, 60, 0
4, 37824, Note_on_c, 1, 69, 69
4, 37824, Note_on_c, 1, 65, 69
4, 37824, Note_on_c, 1, 60, 69
4, 37863, Note_on_c, 1, 69, 0
4, 37863, Note_on_c, 1, 65, 0
4, 37863, Note_on_c, 1, 60, 0
4, 38016, Note_on_c, 1, 69, 73
4, 38016, Note_on_c, 1, 65, 73
4, 38016, Note_on_c, 1, 60, 73
4, 38055, Note_on_c, 1, 69, 0
4, 38055, Note_on_c, 1, 65, 0
4, 38055, Note_on_c, 1, 60, 0
4, 38688, Note_on_c, 1, 59, 82
4, 38688, Note_on_c, 1, 47, 82
4, 38784, Note_on_c, 1, 59, 0
4, 38784, Note_on_c, 1, 47, 0
4, 38784, Note_on_c, 1, 60, 82
4, 38784, Note_on_c, 1, 48, 82
4, 38873, Note_on_c, 1, 60, 0
4, 38873, Note_on_c, 1, 48, 0
4, 38976, Note_on_c, 1, 70, 75
4, 38976, Note_on_c, 1, 60, 75
4, 39153, Note_on_c, 1, 70, 0
4, 39153, Note_on_c, 1, 60, 0
4, 39168, Note_on_c, 1, 65, 75
4, 39235, Note_on_c, 1, 65, 0
4, 39240, Note_on_c, 1, 69, 73
4, 39263, Note_on_c, 1, 69, 0
4, 39264, Note_on_c, 1, 64, 72
4, 39331, Note_on_c, 1, 64, 0
4, 39336, Note_on_c, 1, 67, 71
4, 39359, Note_on_c, 1, 67, 0
4, 39360, Note_on_c, 1, 62, 70
4, 39427, Note_on_c, 1, 62, 0
4, 39432, Note_on_c, 1, 65, 68
4, 39455, Note_on_c, 1, 65, 0
4, 39456, Note_on_c, 1, 60, 68
4, 39523, Note_on_c, 1, 60, 0
4, 39528, Note_on_c, 1, 64, 66
4, 39551, Note_on_c, 1, 64, 0
4, 39552, Note_on_c, 1, 58, 66
4, 39817, Note_on_c, 1, 58, 0
4, 39840, Note_on_c, 1, 70, 56
4, 39929, Note_on_c, 1, 70, 0
4, 39936, Note_on_c, 1, 69, 56
4, 40025, Note_on_c, 1, 69, 0
4, 40032, Note_on_c, 1, 70, 56
4, 40121, Note_on_c, 1, 70, 0
4, 40128, Note_on_c, 1, 72, 56
4, 40217, Note_on_c, 1, 72, 0
4, 40224, Note_on_c, 1, 60, 56
4, 40313, Note_on_c, 1, 60, 0
4, 40320, Note_on_c, 1, 65, 82
4, 40350, Note_on_c, 1, 65, 0
4, 40352, Note_on_c, 1, 67, 82
4, 40382, Note_on_c, 1, 67, 0
4, 40384, Note_on_c, 1, 69, 81
4, 40414, Note_on_c, 1, 69, 0
4, 40416, Note_on_c, 1, 64, 80
4, 40446, Note_on_c, 1, 64, 0
4, 40448, Note_on_c, 1, 65, 80
4, 40478, Note_on_c, 1, 65, 0
4, 40480, Note_on_c, 1, 67, 79
4, 40510, Note_on_c, 1, 67, 0
4, 40512, Note_on_c, 1, 62, 79
4, 40542, Note_on_c, 1, 62, 0
4, 40544, Note_on_c, 1, 64, 78
4, 40574, Note_on_c, 1, 64, 0
4, 40576, Note_on_c, 1, 65, 77
4, 40606, Note_on_c, 1, 65, 0
4, 40608, Note_on_c, 1, 60, 77
4, 40638, Note_on_c, 1, 60, 0
4, 40640, Note_on_c, 1, 62, 76
4, 40670, Note_on_c, 1, 62, 0
4, 40672, Note_on_c, 1, 64, 76
4, 40702, Note_on_c, 1, 64, 0
4, 40704, Note_on_c, 1, 58, 75
4, 40969, Note_on_c, 1, 58, 0
4, 40992, Note_on_c, 1, 70, 75
4, 41081, Note_on_c, 1, 70, 0
4, 41088, Note_on_c, 1, 69, 75
4, 41177, Note_on_c, 1, 69, 0
4, 41184, Note_on_c, 1, 70, 70
4, 41273, Note_on_c, 1, 70, 0
4, 41280, Note_on_c, 1, 69, 65
4, 41369, Note_on_c, 1, 69, 0
4, 41376, Note_on_c, 1, 67, 60
4, 41465, Note_on_c, 1, 67, 0
4, 41472, Note_on_c, 1, 69, 56
4, 41561, Note_on_c, 1, 69, 0
4, 41568, Note_on_c, 1, 69, 54
4, 41657, Note_on_c, 1, 69, 0
4, 41664, Note_on_c, 1, 69, 53
4, 41753, Note_on_c, 1, 69, 0
4, 41760, Note_on_c, 1, 69, 51
4, 41849, Note_on_c, 1, 69, 0
4, 41856, Note_on_c, 1, 69, 50
4, 41950, Note_on_c, 1, 69, 0
4, 42240, Note_on_c, 1, 49, 82
4, 42240, Note_on_c, 1, 37, 82
4, 42329, Note_on_c, 1, 49, 0
4, 42329, Note_on_c, 1, 37, 0
4, 42336, Note_on_c, 1, 49, 82
4, 42336, Note_on_c, 1, 37, 82
4, 42425, Note_on_c, 1, 49, 0
4, 42425, Note_on_c, 1, 37, 0
4, 42432, Note_on_c, 1, 49, 82
4, 42432, Note_on_c, 1, 37, 82
4, 42521, Note_on_c, 1, 49, 0
4, 42521, Note_on_c, 1, 37, 0
4, 42528, Note_on_c, 1, 49, 82
4, 42528, Note_on_c, 1, 37, 82
4, 42617, Note_on_c, 1, 49, 0
4, 42617, Note_on_c, 1, 37, 0
4, 42624, Note_on_c, 1, 49, 82
4, 42624, Note_on_c, 1, 37, 82
4, 42713, Note_on_c, 1, 49, 0
4, 42713, Note_on_c, 1, 37, 0
4, 43008, Note_on_c, 1, 58, 56
4, 43097, Note_on_c, 1, 58, 0
4, 43104, Note_on_c, 1, 58, 56
4, 43193, Note_on_c, 1, 58, 0
4, 43200, Note_on_c, 1, 58, 56
4, 43289, Note_on_c, 1, 58, 0
4, 43296, Note_on_c, 1, 58, 56
4, 43385, Note_on_c, 1, 58, 0
4, 43392, Note_on_c, 1, 58, 56
4, 43481, Note_on_c, 1, 58, 0
4, 43776, Note_on_c, 1, 63, 82
4, 43776, Note_on_c, 1, 58, 82
4, 43776, Note_on_c, 1, 55, 82
4, 43776, Note_on_c, 1, 51, 82
4, 43953, Note_on_c, 1, 63, 0
4, 43953, Note_on_c, 1, 58, 0
4, 43953, Note_on_c, 1, 55, 0
4, 43953, Note_on_c, 1, 51, 0
4, 44256, Note_on_c, 1, 75, 75
4, 44256, Note_on_c, 1, 71, 75
4, 44352, Note_on_c, 1, 75, 0
4, 44352, Note_on_c, 1, 71, 0
4, 44352, Note_on_c, 1, 74, 70
4, 44352, Note_on_c, 1, 70, 70
4, 44441, Note_on_c, 1, 74, 0
4, 44441, Note_on_c, 1, 70, 0
4, 45024, Note_on_c, 1, 65, 66
4, 45216, Note_on_c, 1, 65, 0
4, 45216, Note_on_c, 1, 63, 66
4, 45305, Note_on_c, 1, 63, 0
4, 45408, Note_on_c, 1, 68, 66
4, 45600, Note_on_c, 1, 68, 0
4, 45600, Note_on_c, 1, 67, 66
4, 45689, Note_on_c, 1, 67, 0
4, 45696, Note_on_c, 1, 75, 66
4, 45696, Note_on_c, 1, 72, 66
4, 45735, Note_on_c, 1, 75, 0
4, 45735, Note_on_c, 1, 72, 0
4, 45792, Note_on_c, 1, 74, 56
4, 45792, Note_on_c, 1, 70, 56
4, 45831, Note_on_c, 1, 74, 0
4, 45831, Note_on_c, 1, 70, 0
4, 45888, Note_on_c, 1, 72, 61
4, 45888, Note_on_c, 1, 68, 61
4, 45927, Note_on_c, 1, 72, 0
4, 45927, Note_on_c, 1, 68, 0
4, 45984, Note_on_c, 1, 70, 66
4, 45984, Note_on_c, 1, 67, 66
4, 46023, Note_on_c, 1, 70, 0
4, 46023, Note_on_c, 1, 67, 0
4, 46080, Note_on_c, 1, 72, 71
4, 46080, Note_on_c, 1, 68, 71
4, 46257, Note_on_c, 1, 72, 0
4, 46257, Note_on_c, 1, 68, 0
4, 46368, Note_on_c, 1, 68, 82
4, 46368, Note_on_c, 1, 58, 82
4, 46457, Note_on_c, 1, 68, 0
4, 46457, Note_on_c, 1, 58, 0
4, 46464, Note_on_c, 1, 67, 82
4, 46464, Note_on_c, 1, 63, 82
4, 46553, Note_on_c, 1, 67, 0
4, 46553, Note_on_c, 1, 63, 0
4, 46848, Note_on_c, 1, 51, 66
4, 46878, Note_on_c, 1, 51, 0
4, 46880, Note_on_c, 1, 55, 66
4, 46910, Note_on_c, 1, 55, 0
4, 46912, Note_on_c, 1, 58, 66
4, 46942, Note_on_c, 1, 58, 0
4, 46944, Note_on_c, 1, 51, 66
4, 46974, Note_on_c, 1, 51, 0
4, 46976, Note_on_c, 1, 55, 66
4, 47006, Note_on_c, 1, 55, 0
4, 47008, Note_on_c, 1, 58, 66
4, 47038, Note_on_c, 1, 58, 0
4, 47040, Note_on_c, 1, 51, 66
4, 47070, Note_on_c, 1, 51, 0
4, 47072, Note_on_c, 1, 55, 66
4, 47102, Note_on_c, 1, 55, 0
4, 47104, Note_on_c, 1, 58, 66
4, 47134, Note_on_c, 1, 58, 0
4, 47136, Note_on_c, 1, 51, 66
4, 47166, Note_on_c, 1, 51, 0
4, 47168, Note_on_c, 1, 55, 66
4, 47198, Note_on_c, 1, 55, 0
4, 47200, Note_on_c, 1, 58, 66
4, 47230, Note_on_c, 1, 58, 0
4, 47232, Note_on_c, 1, 50, 66
4, 47262, Note_on_c, 1, 50, 0
4, 47264, Note_on_c, 1, 53, 66
4, 47294, Note_on_c, 1, 53, 0
4, 47296, Note_on_c, 1, 58, 66
4, 47326, Note_on_c, 1, 58, 0
4, 47328, Note_on_c, 1, 50, 66
4, 47358, Note_on_c, 1, 50, 0
4, 47360, Note_on_c, 1, 53, 66
4, 47390, Note_on_c, 1, 53, 0
4, 47392, Note_on_c, 1, 58, 66
4, 47422, Note_on_c, 1, 58, 0
4, 47424, Note_on_c, 1, 50, 66
4, 47454, Note_on_c, 1, 50, 0
4, 47456, Note_on_c, 1, 53, 66
4, 47486, Note_on_c, 1, 53, 0
4, 47488, Note_on_c, 1, 58, 66
4, 47518, Note_on_c, 1, 58, 0
4, 47520, Note_on_c, 1, 50, 66
4, 47550, Note_on_c, 1, 50, 0
4, 47552, Note_on_c, 1, 53, 66
4, 47582, Note_on_c, 1, 53, 0
4, 47584, Note_on_c, 1, 58, 66
4, 47614, Note_on_c, 1, 58, 0
4, 47616, Note_on_c, 1, 48, 66
4, 47646, Note_on_c, 1, 48, 0
4, 47648, Note_on_c, 1, 51, 66
4, 47678, Note_on_c, 1, 51, 0
4, 47680, Note_on_c, 1, 58, 66
4, 47710, Note_on_c, 1, 58, 0
4, 47712, Note_on_c, 1, 48, 66
4, 47742, Note_on_c, 1, 48, 0
4, 47744, Note_on_c, 1, 51, 66
4, 47774, Note_on_c, 1, 51, 0
4, 47776, Note_on_c, 1, 58, 66
4, 47806, Note_on_c, 1, 58, 0
4, 47808, Note_on_c, 1, 48, 66
4, 47838, Note_on_c, 1, 48, 0
4, 47840, Note_on_c, 1, 51, 66
4, 47870, Note_on_c, 1, 51, 0
4, 47872, Note_on_c, 1, 58, 66
4, 47902, Note_on_c, 1, 58, 0
4, 47904, Note_on_c, 1, 48, 66
4, 47934, Note_on_c, 1, 48, 0
4, 47936, Note_on_c, 1, 51, 66
4, 47966, Note_on_c, 1, 51, 0
4, 47968, Note_on_c, 1, 58, 66
4, 47998, Note_on_c, 1, 58, 0
4, 48000, Note_on_c, 1, 46, 66
4, 48030, Note_on_c, 1, 46, 0
4, 48032, Note_on_c, 1, 50, 66
4, 48062, Note_on_c, 1, 50, 0
4, 48064, Note_on_c, 1, 58, 66
4, 48094, Note_on_c, 1, 58, 0
4, 48096, Note_on_c, 1, 46, 66
4, 48126, Note_on_c, 1, 46, 0
4, 48128, Note_on_c, 1, 50, 66
4, 48158, Note_on_c, 1, 50, 0
4, 48160, Note_on_c, 1, 58, 66
4, 48190, Note_on_c, 1, 58, 0
4, 48192, Note_on_c, 1, 46, 66
4, 48222, Note_on_c, 1, 46, 0
4, 48224, Note_on_c, 1, 50, 66
4, 48254, Note_on_c, 1, 50, 0
4, 48256, Note_on_c, 1, 53, 66
4, 48286, Note_on_c, 1, 53, 0
4, 48288, Note_on_c, 1, 46, 66
4, 48318, Note_on_c, 1, 46, 0
4, 48320, Note_on_c, 1, 50, 66
4, 48350, Note_on_c, 1, 50, 0
4, 48352, Note_on_c, 1, 53, 66
4, 48382, Note_on_c, 1, 53, 0
4, 48384, Note_on_c, 1, 51, 75
4, 48649, Note_on_c, 1, 51, 0
4, 48672, Note_on_c, 1, 52, 79
4, 48761, Note_on_c, 1, 52, 0
4, 48768, Note_on_c, 1, 53, 80
4, 48857, Note_on_c, 1, 53, 0
4, 48864, Note_on_c, 1, 65, 82
4, 48903, Note_on_c, 1, 65, 0
4, 48960, Note_on_c, 1, 65, 82
4, 48999, Note_on_c, 1, 65, 0
4, 49056, Note_on_c, 1, 65, 82
4, 49095, Note_on_c, 1, 65, 0
4, 49152, Note_on_c, 1, 65, 82
4, 49152, Note_on_c, 1, 63, 82
4, 49191, Note_on_c, 1, 65, 0
4, 49191, Note_on_c, 1, 63, 0
4, 49248, Note_on_c, 1, 65, 82
4, 49248, Note_on_c, 1, 63, 82
4, 49287, Note_on_c, 1, 65, 0
4, 49287, Note_on_c, 1, 63, 0
4, 49344, Note_on_c, 1, 65, 82
4, 49344, Note_on_c, 1, 63, 82
4, 49383, Note_on_c, 1, 65, 0
4, 49383, Note_on_c, 1, 63, 0
4, 49440, Note_on_c, 1, 65, 82
4, 49440, Note_on_c, 1, 63, 82
4, 49479, Note_on_c, 1, 65, 0
4, 49479, Note_on_c, 1, 63, 0
4, 49536, Note_on_c, 1, 66, 82
4, 49536, Note_on_c, 1, 62, 82
4, 49575, Note_on_c, 1, 66, 0
4, 49575, Note_on_c, 1, 62, 0
4, 49632, Note_on_c, 1, 66, 82
4, 49632, Note_on_c, 1, 62, 82
4, 49671, Note_on_c, 1, 66, 0
4, 49671, Note_on_c, 1, 62, 0
4, 49728, Note_on_c, 1, 66, 82
4, 49728, Note_on_c, 1, 62, 82
4, 49767, Note_on_c, 1, 66, 0
4, 49767, Note_on_c, 1, 62, 0
4, 49824, Note_on_c, 1, 66, 82
4, 49824, Note_on_c, 1, 62, 82
4, 49863, Note_on_c, 1, 66, 0
4, 49863, Note_on_c, 1, 62, 0
4, 49920, Note_on_c, 1, 66, 82
4, 49920, Note_on_c, 1, 62, 82
4, 49959, Note_on_c, 1, 66, 0
4, 49959, Note_on_c, 1, 62, 0
4, 50016, Note_on_c, 1, 66, 78
4, 50016, Note_on_c, 1, 62, 78
4, 50055, Note_on_c, 1, 66, 0
4, 50055, Note_on_c, 1, 62, 0
4, 50112, Note_on_c, 1, 66, 74
4, 50112, Note_on_c, 1, 62, 74
4, 50151, Note_on_c, 1, 66, 0
4, 50151, Note_on_c, 1, 62, 0
4, 50208, Note_on_c, 1, 66, 70
4, 50208, Note_on_c, 1, 62, 70
4, 50247, Note_on_c, 1, 66, 0
4, 50247, Note_on_c, 1, 62, 0
4, 50304, Note_on_c, 1, 55, 67
4, 50334, Note_on_c, 1, 55, 0
4, 50336, Note_on_c, 1, 58, 66
4, 50366, Note_on_c, 1, 58, 0
4, 50368, Note_on_c, 1, 62, 66
4, 50398, Note_on_c, 1, 62, 0
4, 50400, Note_on_c, 1, 55, 66
4, 50430, Note_on_c, 1, 55, 0
4, 50432, Note_on_c, 1, 58, 66
4, 50462, Note_on_c, 1, 58, 0
4, 50464, Note_on_c, 1, 62, 66
4, 50494, Note_on_c, 1, 62, 0
4, 50496, Note_on_c, 1, 57, 66
4, 50526, Note_on_c, 1, 57, 0
4, 50528, Note_on_c, 1, 60, 66
4, 50558, Note_on_c, 1, 60, 0
4, 50560, Note_on_c, 1, 62, 66
4, 50590, Note_on_c, 1, 62, 0
4, 50592, Note_on_c, 1, 57, 66
4, 50622, Note_on_c, 1, 57, 0
4, 50624, Note_on_c, 1, 60, 66
4, 50654, Note_on_c, 1, 60, 0
4, 50656, Note_on_c, 1, 62, 66
4, 50686, Note_on_c, 1, 62, 0
4, 50688, Note_on_c, 1, 58, 66
4, 50718, Note_on_c, 1, 58, 0
4, 50720, Note_on_c, 1, 60, 66
4, 50750, Note_on_c, 1, 60, 0
4, 50752, Note_on_c, 1, 62, 66
4, 50782, Note_on_c, 1, 62, 0
4, 50784, Note_on_c, 1, 58, 66
4, 50814, Note_on_c, 1, 58, 0
4, 50816, Note_on_c, 1, 60, 66
4, 50846, Note_on_c, 1, 60, 0
4, 50848, Note_on_c, 1, 62, 66
4, 50878, Note_on_c, 1, 62, 0
4, 50880, Note_on_c, 1, 54, 66
4, 50910, Note_on_c, 1, 54, 0
4, 50912, Note_on_c, 1, 57, 66
4, 50942, Note_on_c, 1, 57, 0
4, 50944, Note_on_c, 1, 62, 66
4, 50974, Note_on_c, 1, 62, 0
4, 50976, Note_on_c, 1, 54, 66
4, 51006, Note_on_c, 1, 54, 0
4, 51008, Note_on_c, 1, 57, 66
4, 51038, Note_on_c, 1, 57, 0
4, 51040, Note_on_c, 1, 62, 66
4, 51070, Note_on_c, 1, 62, 0
4, 51072, Note_on_c, 1, 55, 66
4, 51102, Note_on_c, 1, 55, 0
4, 51104, Note_on_c, 1, 58, 66
4, 51134, Note_on_c, 1, 58, 0
4, 51136, Note_on_c, 1, 62, 66
4, 51166, Note_on_c, 1, 62, 0
4, 51168, Note_on_c, 1, 55, 66
4, 51198, Note_on_c, 1, 55, 0
4, 51200, Note_on_c, 1, 58, 66
4, 51230, Note_on_c, 1, 58, 0
4, 51232, Note_on_c, 1, 62, 66
4, 51262, Note_on_c, 1, 62, 0
4, 51264, Note_on_c, 1, 57, 66
4, 51294, Note_on_c, 1, 57, 0
4, 51296, Note_on_c, 1, 60, 66
4, 51326, Note_on_c, 1, 60, 0
4, 51328, Note_on_c, 1, 62, 66
4, 51358, Note_on_c, 1, 62, 0
4, 51360, Note_on_c, 1, 57, 66
4, 51390, Note_on_c, 1, 57, 0
4, 51392, Note_on_c, 1, 60, 66
4, 51422, Note_on_c, 1, 60, 0
4, 51424, Note_on_c, 1, 62, 66
4, 51454, Note_on_c, 1, 62, 0
4, 51456, Note_on_c, 1, 58, 66
4, 51486, Note_on_c, 1, 58, 0
4, 51488, Note_on_c, 1, 60, 66
4, 51518, Note_on_c, 1, 60, 0
4, 51520, Note_on_c, 1, 62, 67
4, 51550, Note_on_c, 1, 62, 0
4, 51552, Note_on_c, 1, 58, 67
4, 51582, Note_on_c, 1, 58, 0
4, 51584, Note_on_c, 1, 60, 68
4, 51614, Note_on_c, 1, 60, 0
4, 51616, Note_on_c, 1, 62, 69
4, 51646, Note_on_c, 1, 62, 0
4, 51648, Note_on_c, 1, 54, 69
4, 51678, Note_on_c, 1, 54, 0
4, 51680, Note_on_c, 1, 57, 70
4, 51710, Note_on_c, 1, 57, 0
4, 51712, Note_on_c, 1, 62, 71
4, 51742, Note_on_c, 1, 62, 0
4, 51744, Note_on_c, 1, 54, 71
4, 51774, Note_on_c, 1, 54, 0
4, 51776, Note_on_c, 1, 57, 72
4, 51806, Note_on_c, 1, 57, 0
4, 51808, Note_on_c, 1, 62, 72
4, 51838, Note_on_c, 1, 62, 0
4, 51840, Note_on_c, 1, 55, 73
4, 51870, Note_on_c, 1, 55, 0
4, 51872, Note_on_c, 1, 58, 74
4, 51902, Note_on_c, 1, 58, 0
4, 51904, Note_on_c, 1, 62, 74
4, 51934, Note_on_c, 1, 62, 0
4, 51936, Note_on_c, 1, 55, 75
4, 51966, Note_on_c, 1, 55, 0
4, 51968, Note_on_c, 1, 58, 76
4, 51998, Note_on_c, 1, 58, 0
4, 52000, Note_on_c, 1, 62, 76
4, 52030, Note_on_c, 1, 62, 0
4, 52032, Note_on_c, 1, 57, 77
4, 52062, Note_on_c, 1, 57, 0
4, 52064, Note_on_c, 1, 60, 77
4, 52094, Note_on_c, 1, 60, 0
4, 52096, Note_on_c, 1, 66, 78
4, 52126, Note_on_c, 1, 66, 0
4, 52128, Note_on_c, 1, 57, 79
4, 52158, Note_on_c, 1, 57, 0
4, 52160, Note_on_c, 1, 60, 79
4, 52190, Note_on_c, 1, 60, 0
4, 52192, Note_on_c, 1, 66, 80
4, 52222, Note_on_c, 1, 66, 0
4, 52224, Note_on_c, 1, 58, 82
4, 52263, Note_on_c, 1, 58, 0
4, 52512, Note_on_c, 1, 67, 82
4, 52512, Note_on_c, 1, 58, 82
4, 52601, Note_on_c, 1, 67, 0
4, 52601, Note_on_c, 1, 58, 0
4, 52608, Note_on_c, 1, 67, 82
4, 52608, Note_on_c, 1, 60, 82
4, 52653, Note_on_c, 1, 67, 0
4, 52653, Note_on_c, 1, 60, 0
4, 52680, Note_on_c, 1, 67, 82
4, 52692, Note_on_c, 1, 67, 0
4, 52692, Note_on_c, 1, 65, 82
4, 52704, Note_on_c, 1, 65, 0
4, 52704, Note_on_c, 1, 63, 82
4, 52749, Note_on_c, 1, 63, 0
4, 52776, Note_on_c, 1, 63, 82
4, 52788, Note_on_c, 1, 63, 0
4, 52788, Note_on_c, 1, 62, 82
4, 52800, Note_on_c, 1, 62, 0
4, 52800, Note_on_c, 1, 60, 82
4, 52845, Note_on_c, 1, 60, 0
4, 52872, Note_on_c, 1, 60, 82
4, 52884, Note_on_c, 1, 60, 0
4, 52884, Note_on_c, 1, 58, 82
4, 52896, Note_on_c, 1, 58, 0
4, 52896, Note_on_c, 1, 57, 82
4, 52941, Note_on_c, 1, 57, 0
4, 52968, Note_on_c, 1, 57, 82
4, 52980, Note_on_c, 1, 57, 0
4, 52980, Note_on_c, 1, 55, 82
4, 52992, Note_on_c, 1, 55, 0
4, 52992, Note_on_c, 1, 54, 82
4, 53081, Note_on_c, 1, 54, 0
4, 53088, Note_on_c, 1, 46, 82
4, 53088, Note_on_c, 1, 34, 82
4, 53177, Note_on_c, 1, 46, 0
4, 53177, Note_on_c, 1, 34, 0
4, 53184, Note_on_c, 1, 48, 82
4, 53184, Note_on_c, 1, 36, 82
4, 53273, Note_on_c, 1, 48, 0
4, 53273, Note_on_c, 1, 36, 0
4, 53280, Note_on_c, 1, 50, 82
4, 53280, Note_on_c, 1, 38, 82
4, 53369, Note_on_c, 1, 50, 0
4, 53369, Note_on_c, 1, 38, 0
4, 53376, Note_on_c, 1, 43, 82
4, 53376, Note_on_c, 1, 31, 82
4, 53465, Note_on_c, 1, 43, 0
4, 53465, Note_on_c, 1, 31, 0
4, 53600, Note_on_c, 1, 50, 75
4, 53630, Note_on_c, 1, 50, 0
4, 53632, Note_on_c, 1, 51, 75
4, 53662, Note_on_c, 1, 51, 0
4, 53664, Note_on_c, 1, 52, 75
4, 53694, Note_on_c, 1, 52, 0
4, 53696, Note_on_c, 1, 53, 75
4, 53726, Note_on_c, 1, 53, 0
4, 53728, Note_on_c, 1, 54, 75
4, 53758, Note_on_c, 1, 54, 0
4, 53760, Note_on_c, 1, 55, 75
4, 53849, Note_on_c, 1, 55, 0
4, 53984, Note_on_c, 1, 62, 75
4, 54014, Note_on_c, 1, 62, 0
4, 54016, Note_on_c, 1, 63, 75
4, 54046, Note_on_c, 1, 63, 0
4, 54048, Note_on_c, 1, 64, 75
4, 54078, Note_on_c, 1, 64, 0
4, 54080, Note_on_c, 1, 65, 75
4, 54110, Note_on_c, 1, 65, 0
4, 54112, Note_on_c, 1, 66, 75
4, 54142, Note_on_c, 1, 66, 0
4, 54144, Note_on_c, 1, 67, 75
4, 54233, Note_on_c, 1, 67, 0
4, 54368, Note_on_c, 1, 60, 75
4, 54398, Note_on_c, 1, 60, 0
4, 54400, Note_on_c, 1, 62, 75
4, 54430, Note_on_c, 1, 62, 0
4, 54432, Note_on_c, 1, 63, 75
4, 54462, Note_on_c, 1, 63, 0
4, 54464, Note_on_c, 1, 65, 75
4, 54494, Note_on_c, 1, 65, 0
4, 54496, Note_on_c, 1, 67, 75
4, 54526, Note_on_c, 1, 67, 0
4, 54528, Note_on_c, 1, 69, 75
4, 54617, Note_on_c, 1, 69, 0
4, 54752, Note_on_c, 1, 65, 75
4, 54782, Note_on_c, 1, 65, 0
4, 54784, Note_on_c, 1, 66, 75
4, 54814, Note_on_c, 1, 66, 0
4, 54816, Note_on_c, 1, 67, 75
4, 54846, Note_on_c, 1, 67, 0
4, 54848, Note_on_c, 1, 68, 75
4, 54878, Note_on_c, 1, 68, 0
4, 54880, Note_on_c, 1, 69, 75
4, 54910, Note_on_c, 1, 69, 0
4, 54912, Note_on_c, 1, 70, 75
4, 55001, Note_on_c, 1, 70, 0
4, 55200, Note_on_c, 1, 62, 75
4, 55289, Note_on_c, 1, 62, 0
4, 55296, Note_on_c, 1, 63, 75
4, 55561, Note_on_c, 1, 63, 0
4, 55584, Note_on_c, 1, 64, 80
4, 55673, Note_on_c, 1, 64, 0
4, 55680, Note_on_c, 1, 65, 82
4, 55769, Note_on_c, 1, 65, 0
4, 56064, Note_on_c, 1, 53, 82
4, 56064, Note_on_c, 1, 57, 82
4, 56064, Note_on_c, 1, 60, 82
4, 56064, Note_on_c, 1, 63, 82
4, 56153, Note_on_c, 1, 63, 0
4, 56153, Note_on_c, 1, 60, 0
4, 56153, Note_on_c, 1, 57, 0
4, 56153, Note_on_c, 1, 53, 0
4, 56448, Note_on_c, 1, 63, 82
4, 56448, Note_on_c, 1, 60, 82
4, 56448, Note_on_c, 1, 57, 82
4, 56448, Note_on_c, 1, 53, 82
4, 56537, Note_on_c, 1, 63, 0
4, 56537, Note_on_c, 1, 60, 0
4, 56537, Note_on_c, 1, 57, 0
4, 56537, Note_on_c, 1, 53, 0
4, 56832, Control_c, 1, 64, 127
4, 56832, Note_on_c, 1, 53, 82
4, 56844, Note_on_c, 1, 57, 82
4, 56856, Note_on_c, 1, 60, 82
4, 56868, Note_on_c, 1, 63, 82
4, 57888, Control_c, 1, 64, 0
4, 57977, Note_on_c, 1, 63, 0
4, 57977, Note_on_c, 1, 60, 0
4, 57977, Note_on_c, 1, 57, 0
4, 57977, Note_on_c, 1, 53, 0
4, 57984, Note_on_c, 1, 58, 82
4, 57984, Note_on_c, 1, 53, 82
4, 57984, Note_on_c, 1, 50, 82
4, 57984, Note_on_c, 1, 46, 82
4, 58161, Note_on_c, 1, 58, 0
4, 58161, Note_on_c, 1, 53, 0
4, 58161, Note_on_c, 1, 50, 0
4, 58161, Note_on_c, 1, 46, 0
4, 58464, Note_on_c, 1, 70, 75
4, 58464, Note_on_c, 1, 66, 75
4, 58560, Note_on_c, 1, 70, 0
4, 58560, Note_on_c, 1, 66, 0
4, 58560, Note_on_c, 1, 69, 70
4, 58560, Note_on_c, 1, 65, 70
4, 58649, Note_on_c, 1, 69, 0
4, 58649, Note_on_c, 1, 65, 0
4, 59232, Note_on_c, 1, 60, 66
4, 59424, Note_on_c, 1, 60, 0
4, 59424, Note_on_c, 1, 58, 66
4, 59513, Note_on_c, 1, 58, 0
4, 59904, Note_on_c, 1, 65, 82
4, 59904, Note_on_c, 1, 63, 82
4, 59904, Note_on_c, 1, 60, 82
4, 59904, Note_on_c, 1, 57, 82
4, 60258, Note_on_c, 1, 65, 0
4, 60258, Note_on_c, 1, 63, 0
4, 60258, Note_on_c, 1, 60, 0
4, 60258, Note_on_c, 1, 57, 0
4, 60288, Note_on_c, 1, 58, 75
4, 60377, Note_on_c, 1, 58, 0
4, 60384, Note_on_c, 1, 67, 75
4, 60473, Note_on_c, 1, 67, 0
4, 60480, Note_on_c, 1, 65, 75
4, 60569, Note_on_c, 1, 65, 0
4, 60576, Note_on_c, 1, 63, 75
4, 60576, Note_on_c, 1, 53, 75
4, 60665, Note_on_c, 1, 63, 0
4, 60665, Note_on_c, 1, 53, 0
4, 60672, Note_on_c, 1, 62, 75
4, 60672, Note_on_c, 1, 58, 75
4, 60805, Note_on_c, 1, 62, 0
4, 60805, Note_on_c, 1, 58, 0
4, 61824, Note_on_c, 1, 53, 75
4, 61824, Note_on_c, 1, 41, 75
4, 62001, Note_on_c, 1, 53, 0
4, 62001, Note_on_c, 1, 41, 0
4, 62280, Note_on_c, 1, 57, 82
4, 62303, Note_on_c, 1, 57, 0
4, 62304, Note_on_c, 1, 58, 82
4, 62371, Note_on_c, 1, 58, 0
4, 62376, Note_on_c, 1, 57, 82
4, 62399, Note_on_c, 1, 57, 0
4, 62400, Note_on_c, 1, 58, 82
4, 62489, Note_on_c, 1, 58, 0
4, 62592, Note_on_c, 1, 58, 75
4, 62592, Note_on_c, 1, 53, 75
4, 62592, Note_on_c, 1, 50, 75
4, 62592, Note_on_c, 1, 46, 75
4, 62769, Note_on_c, 1, 58, 0
4, 62769, Note_on_c, 1, 53, 0
4, 62769, Note_on_c, 1, 50, 0
4, 62769, Note_on_c, 1, 46, 0
4, 62880, Note_on_c, 1, 62, 75
4, 62969, Note_on_c, 1, 62, 0
4, 62976, Note_on_c, 1, 63, 75
4, 63065, Note_on_c, 1, 63, 0
4, 63072, Note_on_c, 1, 65, 75
4, 63161, Note_on_c, 1, 65, 0
4, 63168, Note_on_c, 1, 67, 75
4, 63257, Note_on_c, 1, 67, 0
4, 63264, Note_on_c, 1, 69, 75
4, 63353, Note_on_c, 1, 69, 0
4, 63360, Note_on_c, 1, 70, 75
4, 63449, Note_on_c, 1, 70, 0
4, 63648, Note_on_c, 1, 62, 75
4, 63737, Note_on_c, 1, 62, 0
4, 63744, Note_on_c, 1, 63, 75
4, 63833, Note_on_c, 1, 63, 0
4, 63840, Note_on_c, 1, 65, 73
4, 63929, Note_on_c, 1, 65, 0
4, 63936, Note_on_c, 1, 67, 71
4, 64025, Note_on_c, 1, 67, 0
4, 64032, Note_on_c, 1, 69, 69
4, 64121, Note_on_c, 1, 69, 0
4, 64128, Note_on_c, 1, 70, 67
4, 64128, Note_on_c, 1, 58, 67
4, 64173, Note_on_c, 1, 70, 0
4, 64173, Note_on_c, 1, 58, 0
4, 64224, Note_on_c, 1, 69, 66
4, 64224, Note_on_c, 1, 58, 66
4, 64269, Note_on_c, 1, 69, 0
4, 64269, Note_on_c, 1, 58, 0
4, 64320, Note_on_c, 1, 70, 66
4, 64320, Note_on_c, 1, 58, 66
4, 64365, Note_on_c, 1, 70, 0
4, 64365, Note_on_c, 1, 58, 0
4, 64416, Note_on_c, 1, 69, 66
4, 64416, Note_on_c, 1, 58, 66
4, 64461, Note_on_c, 1, 69, 0
4, 64461, Note_on_c, 1, 58, 0
4, 64512, Note_on_c, 1, 70, 66
4, 64512, Note_on_c, 1, 58, 66
4, 64557, Note_on_c, 1, 70, 0
4, 64557, Note_on_c, 1, 58, 0
4, 64800, Note_on_c, 1, 53, 66
4, 64800, Note_on_c, 1, 50, 66
4, 64889, Note_on_c, 1, 53, 0
4, 64889, Note_on_c, 1, 50, 0
4, 64896, Note_on_c, 1, 55, 66
4, 64896, Note_on_c, 1, 51, 66
4, 64985, Note_on_c, 1, 55, 0
4, 64985, Note_on_c, 1, 51, 0
4, 65232, Note_on_c, 1, 60, 68
4, 65232, Note_on_c, 1, 52, 68
4, 65277, Note_on_c, 1, 60, 0
4, 65277, Note_on_c, 1, 52, 0
4, 65280, Note_on_c, 1, 62, 66
4, 65280, Note_on_c, 1, 53, 66
4, 65472, Note_on_c, 1, 62, 0
4, 65472, Note_on_c, 1, 60, 58
4, 65517, Note_on_c, 1, 60, 0
4, 65517, Note_on_c, 1, 53, 0
4, 65760, Note_on_c, 1, 58, 82
4, 65760, Note_on_c, 1, 53, 82
4, 65760, Note_on_c, 1, 50, 82
4, 65760, Note_on_c, 1, 46, 82
4, 65849, Note_on_c, 1, 58, 0
4, 65849, Note_on_c, 1, 53, 0
4, 65849, Note_on_c, 1, 50, 0
4, 65849, Note_on_c, 1, 46, 0
4, 65952, Note_on_c, 1, 53, 82
4, 65952, Note_on_c, 1, 48, 82
4, 65952, Note_on_c, 1, 45, 82
4, 65952, Note_on_c, 1, 41, 82
4, 66041, Note_on_c, 1, 53, 0
4, 66041, Note_on_c, 1, 48, 0
4, 66041, Note_on_c, 1, 45, 0
4, 66041, Note_on_c, 1, 41, 0
4, 66144, Note_on_c, 1, 46, 82
4, 66144, Note_on_c, 1, 41, 82
4, 66144, Note_on_c, 1, 38, 82
4, 66144, Note_on_c, 1, 34, 82
4, 66233, Note_on_c, 1, 46, 0
4, 66233, Note_on_c, 1, 41, 0
4, 66233, Note_on_c, 1, 38, 0
4, 66233, Note_on_c, 1, 34, 0
4, 66528, Note_on_c, 1, 65, 75
4, 66528, Note_on_c, 1, 63, 75
4, 66622, Note_on_c, 1, 65, 0
4, 66622, Note_on_c, 1, 63, 0
4, 66720, Note_on_c, 1, 65, 66
4, 66720, Note_on_c, 1, 62, 66
4, 66809, Note_on_c, 1, 65, 0
4, 66809, Note_on_c, 1, 62, 0
4, 66912, Note_on_c, 1, 65, 56
4, 66912, Note_on_c, 1, 57, 56
4, 67006, Note_on_c, 1, 65, 0
4, 67006, Note_on_c, 1, 57, 0
4, 67200, Note_on_c, 1, 70, 56
4, 67230, Note_on_c, 1, 70, 0
4, 67232, Note_on_c, 1, 73, 56
4, 67262, Note_on_c, 1, 73, 0
4, 67264, Note_on_c, 1, 77, 56
4, 67294, Note_on_c, 1, 77, 0
4, 67296, Note_on_c, 1, 70, 56
4, 67326, Note_on_c, 1, 70, 0
4, 67328, Note_on_c, 1, 73, 56
4, 67358, Note_on_c, 1, 73, 0
4, 67360, Note_on_c, 1, 77, 56
4, 67390, Note_on_c, 1, 77, 0
4, 67392, Note_on_c, 1, 70, 56
4, 67422, Note_on_c, 1, 70, 0
4, 67424, Note_on_c, 1, 73, 56
4, 67454, Note_on_c, 1, 73, 0
4, 67456, Note_on_c, 1, 77, 56
4, 67486, Note_on_c, 1, 77, 0
4, 67488, Note_on_c, 1, 70, 56
4, 67518, Note_on_c, 1, 70, 0
4, 67520, Note_on_c, 1, 73, 56
4, 67550, Note_on_c, 1, 73, 0
4, 67552, Note_on_c, 1, 77, 56
4, 67582, Note_on_c, 1, 77, 0
4, 67584, Note_on_c, 1, 68, 56
4, 67614, Note_on_c, 1, 68, 0
4, 67616, Note_on_c, 1, 73, 56
4, 67646, Note_on_c, 1, 73, 0
4, 67648, Note_on_c, 1, 77, 56
4, 67678, Note_on_c, 1, 77, 0
4, 67680, Note_on_c, 1, 68, 56
4, 67710, Note_on_c, 1, 68, 0
4, 67712, Note_on_c, 1, 73, 56
4, 67742, Note_on_c, 1, 73, 0
4, 67744, Note_on_c, 1, 77, 56
4, 67774, Note_on_c, 1, 77, 0
4, 67776, Note_on_c, 1, 68, 56
4, 67806, Note_on_c, 1, 68, 0
4, 67808, Note_on_c, 1, 73, 56
4, 67838, Note_on_c, 1, 73, 0
4, 67840, Note_on_c, 1, 77, 56
4, 67870, Note_on_c, 1, 77, 0
4, 67872, Note_on_c, 1, 68, 56
4, 67902, Note_on_c, 1, 68, 0
4, 67904, Note_on_c, 1, 73, 56
4, 67934, Note_on_c, 1, 73, 0
4, 67936, Note_on_c, 1, 77, 56
4, 67966, Note_on_c, 1, 77, 0
4, 67968, Note_on_c, 1, 66, 56
4, 67998, Note_on_c, 1, 66, 0
4, 68000, Note_on_c, 1, 70, 56
4, 68030, Note_on_c, 1, 70, 0
4, 68032, Note_on_c, 1, 73, 56
4, 68062, Note_on_c, 1, 73, 0
4, 68064, Note_on_c, 1, 66, 56
4, 68094, Note_on_c, 1, 66, 0
4, 68096, Note_on_c, 1, 70, 56
4, 68126, Note_on_c, 1, 70, 0
4, 68128, Note_on_c, 1, 73, 56
4, 68158, Note_on_c, 1, 73, 0
4, 68160, Note_on_c, 1, 66, 56
4, 68190, Note_on_c, 1, 66, 0
4, 68192, Note_on_c, 1, 70, 56
4, 68222, Note_on_c, 1, 70, 0
4, 68224, Note_on_c, 1, 73, 56
4, 68254, Note_on_c, 1, 73, 0
4, 68256, Note_on_c, 1, 66, 56
4, 68286, Note_on_c, 1, 66, 0
4, 68288, Note_on_c, 1, 70, 56
4, 68318, Note_on_c, 1, 70, 0
4, 68320, Note_on_c, 1, 73, 56
4, 68350, Note_on_c, 1, 73, 0
4, 68352, Note_on_c, 1, 65, 56
4, 68382, Note_on_c, 1, 65, 0
4, 68384, Note_on_c, 1, 68, 56
4, 68414, Note_on_c, 1, 68, 0
4, 68416, Note_on_c, 1, 74, 56
4, 68446, Note_on_c, 1, 74, 0
4, 68448, Note_on_c, 1, 65, 56
4, 68478, Note_on_c, 1, 65, 0
4, 68480, Note_on_c, 1, 68, 56
4, 68510, Note_on_c, 1, 68, 0
4, 68512, Note_on_c, 1, 74, 56
4, 68542, Note_on_c, 1, 74, 0
4, 68544, Note_on_c, 1, 65, 56
4, 68574, Note_on_c, 1, 65, 0
4, 68576, Note_on_c, 1, 68, 56
4, 68606, Note_on_c, 1, 68, 0
4, 68608, Note_on_c, 1, 74, 56
4, 68638, Note_on_c, 1, 74, 0
4, 68640, Note_on_c, 1, 65, 56
4, 68670, Note_on_c, 1, 65, 0
4, 68672, Note_on_c, 1, 68, 56
4, 68702, Note_on_c, 1, 68, 0
4, 68704, Note_on_c, 1, 74, 56
4, 68734, Note_on_c, 1, 74, 0
4, 68736, Note_on_c, 1, 63, 56
4, 68766, Note_on_c, 1, 63, 0
4, 68768, Note_on_c, 1, 66, 56
4, 68798, Note_on_c, 1, 66, 0
4, 68800, Note_on_c, 1, 70, 56
4, 68830, Note_on_c, 1, 70, 0
4, 68832, Note_on_c, 1, 63, 56
4, 68862, Note_on_c, 1, 63, 0
4, 68864, Note_on_c, 1, 66, 56
4, 68894, Note_on_c, 1, 66, 0
4, 68896, Note_on_c, 1, 70, 56
4, 68926, Note_on_c, 1, 70, 0
4, 68928, Note_on_c, 1, 63, 56
4, 68958, Note_on_c, 1, 63, 0
4, 68960, Note_on_c, 1, 66, 56
4, 68990, Note_on_c, 1, 66, 0
4, 68992, Note_on_c, 1, 70, 56
4, 69022, Note_on_c, 1, 70, 0
4, 69024, Note_on_c, 1, 63, 56
4, 69054, Note_on_c, 1, 63, 0
4, 69056, Note_on_c, 1, 66, 56
4, 69086, Note_on_c, 1, 66, 0
4, 69088, Note_on_c, 1, 70, 56
4, 69118, Note_on_c, 1, 70, 0
4, 69120, Note_on_c, 1, 61, 56
4, 69150, Note_on_c, 1, 61, 0
4, 69152, Note_on_c, 1, 65, 56
4, 69182, Note_on_c, 1, 65, 0
4, 69184, Note_on_c, 1, 70, 56
4, 69214, Note_on_c, 1, 70, 0
4, 69216, Note_on_c, 1, 61, 56
4, 69246, Note_on_c, 1, 61, 0
4, 69248, Note_on_c, 1, 65, 56
4, 69278, Note_on_c, 1, 65, 0
4, 69280, Note_on_c, 1, 70, 56
4, 69310, Note_on_c, 1, 70, 0
4, 69312, Note_on_c, 1, 61, 56
4, 69342, Note_on_c, 1, 61, 0
4, 69344, Note_on_c, 1, 65, 56
4, 69374, Note_on_c, 1, 65, 0
4, 69376, Note_on_c, 1, 70, 56
4, 69406, Note_on_c, 1, 70, 0
4, 69408, Note_on_c, 1, 61, 56
4, 69438, Note_on_c, 1, 61, 0
4, 69440, Note_on_c, 1, 65, 56
4, 69470, Note_on_c, 1, 65, 0
4, 69472, Note_on_c, 1, 70, 56
4, 69502, Note_on_c, 1, 70, 0
4, 69504, Note_on_c, 1, 60, 56
4, 69681, Note_on_c, 1, 60, 0
4, 69888, Note_on_c, 1, 64, 56
4, 69918, Note_on_c, 1, 64, 0
4, 69920, Note_on_c, 1, 67, 56
4, 69950, Note_on_c, 1, 67, 0
4, 69952, Note_on_c, 1, 72, 56
4, 69982, Note_on_c, 1, 72, 0
4, 69984, Note_on_c, 1, 64, 56
4, 70014, Note_on_c, 1, 64, 0
4, 70016, Note_on_c, 1, 67, 56
4, 70046, Note_on_c, 1, 67, 0
4, 70048, Note_on_c, 1, 72, 56
4, 70078, Note_on_c, 1, 72, 0
4, 70080, Note_on_c, 1, 64, 56
4, 70110, Note_on_c, 1, 64, 0
4, 70112, Note_on_c, 1, 67, 56
4, 70142, Note_on_c, 1, 67, 0
4, 70144, Note_on_c, 1, 72, 56
4, 70174, Note_on_c, 1, 72, 0
4, 70176, Note_on_c, 1, 64, 56
4, 70206, Note_on_c, 1, 64, 0
4, 70208, Note_on_c, 1, 67, 56
4, 70238, Note_on_c, 1, 67, 0
4, 70240, Note_on_c, 1, 72, 56
4, 70270, Note_on_c, 1, 72, 0
4, 70272, Note_on_c, 1, 65, 56
4, 70361, Note_on_c, 1, 65, 0
4, 70656, Note_on_c, 1, 57, 66
4, 70686, Note_on_c, 1, 57, 0
4, 70688, Note_on_c, 1, 60, 66
4, 70718, Note_on_c, 1, 60, 0
4, 70720, Note_on_c, 1, 65, 66
4, 70750, Note_on_c, 1, 65, 0
4, 70752, Note_on_c, 1, 57, 66
4, 70782, Note_on_c, 1, 57, 0
4, 70784, Note_on_c, 1, 60, 66
4, 70814, Note_on_c, 1, 60, 0
4, 70816, Note_on_c, 1, 65, 66
4, 70846, Note_on_c, 1, 65, 0
4, 70848, Note_on_c, 1, 57, 66
4, 70878, Note_on_c, 1, 57, 0
4, 70880, Note_on_c, 1, 60, 66
4, 70910, Note_on_c, 1, 60, 0
4, 70912, Note_on_c, 1, 65, 66
4, 70942, Note_on_c, 1, 65, 0
4, 70944, Note_on_c, 1, 57, 66
4, 70974, Note_on_c, 1, 57, 0
4, 70976, Note_on_c, 1, 60, 66
4, 71006, Note_on_c, 1, 60, 0
4, 71008, Note_on_c, 1, 65, 66
4, 71038, Note_on_c, 1, 65, 0
4, 71040, Note_on_c, 1, 58, 66
4, 71070, Note_on_c, 1, 58, 0
4, 71072, Note_on_c, 1, 62, 66
4, 71102, Note_on_c, 1, 62, 0
4, 71104, Note_on_c, 1, 65, 66
4, 71134, Note_on_c, 1, 65, 0
4, 71136, Note_on_c, 1, 58, 66
4, 71166, Note_on_c, 1, 58, 0
4, 71168, Note_on_c, 1, 62, 66
4, 71198, Note_on_c, 1, 62, 0
4, 71200, Note_on_c, 1, 65, 66
4, 71230, Note_on_c, 1, 65, 0
4, 71232, Note_on_c, 1, 60, 66
4, 71262, Note_on_c, 1, 60, 0
4, 71264, Note_on_c, 1, 63, 66
4, 71294, Note_on_c, 1, 63, 0
4, 71296, Note_on_c, 1, 65, 66
4, 71326, Note_on_c, 1, 65, 0
4, 71328, Note_on_c, 1, 60, 66
4, 71358, Note_on_c, 1, 60, 0
4, 71360, Note_on_c, 1, 63, 66
4, 71390, Note_on_c, 1, 63, 0
4, 71392, Note_on_c, 1, 65, 66
4, 71422, Note_on_c, 1, 65, 0
4, 71424, Note_on_c, 1, 58, 66
4, 71454, Note_on_c, 1, 58, 0
4, 71456, Note_on_c, 1, 62, 66
4, 71486, Note_on_c, 1, 62, 0
4, 71488, Note_on_c, 1, 65, 66
4, 71518, Note_on_c, 1, 65, 0
4, 71520, Note_on_c, 1, 58, 66
4, 71550, Note_on_c, 1, 58, 0
4, 71552, Note_on_c, 1, 62, 66
4, 71582, Note_on_c, 1, 62, 0
4, 71584, Note_on_c, 1, 65, 66
4, 71614, Note_on_c, 1, 65, 0
4, 71616, Note_on_c, 1, 57, 66
4, 71646, Note_on_c, 1, 57, 0
4, 71648, Note_on_c, 1, 60, 66
4, 71678, Note_on_c, 1, 60, 0
4, 71680, Note_on_c, 1, 65, 66
4, 71710, Note_on_c, 1, 65, 0
4, 71712, Note_on_c, 1, 57, 66
4, 71742, Note_on_c, 1, 57, 0
4, 71744, Note_on_c, 1, 60, 66
4, 71774, Note_on_c, 1, 60, 0
4, 71776, Note_on_c, 1, 65, 66
4, 71806, Note_on_c, 1, 65, 0
4, 71808, Note_on_c, 1, 58, 66
4, 71838, Note_on_c, 1, 58, 0
4, 71840, Note_on_c, 1, 62, 66
4, 71870, Note_on_c, 1, 62, 0
4, 71872, Note_on_c, 1, 65, 66
4, 71902, Note_on_c, 1, 65, 0
4, 71904, Note_on_c, 1, 58, 66
4, 71934, Note_on_c, 1, 58, 0
4, 71936, Note_on_c, 1, 62, 66
4, 71966, Note_on_c, 1, 62, 0
4, 71968, Note_on_c, 1, 65, 66
4, 71998, Note_on_c, 1, 65, 0
4, 72000, Note_on_c, 1, 60, 66
4, 72030, Note_on_c, 1, 60, 0
4, 72032, Note_on_c, 1, 63, 66
4, 72062, Note_on_c, 1, 63, 0
4, 72064, Note_on_c, 1, 65, 66
4, 72094, Note_on_c, 1, 65, 0
4, 72096, Note_on_c, 1, 60, 66
4, 72126, Note_on_c, 1, 60, 0
4, 72128, Note_on_c, 1, 63, 66
4, 72158, Note_on_c, 1, 63, 0
4, 72160, Note_on_c, 1, 65, 66
4, 72190, Note_on_c, 1, 65, 0
4, 72192, Note_on_c, 1, 58, 66
4, 72222, Note_on_c, 1, 58, 0
4, 72224, Note_on_c, 1, 62, 66
4, 72254, Note_on_c, 1, 62, 0
4, 72256, Note_on_c, 1, 65, 66
4, 72286, Note_on_c, 1, 65, 0
4, 72288, Note_on_c, 1, 58, 66
4, 72318, Note_on_c, 1, 58, 0
4, 72320, Note_on_c, 1, 62, 66
4, 72350, Note_on_c, 1, 62, 0
4, 72352, Note_on_c, 1, 65, 66
4, 72382, Note_on_c, 1, 65, 0
4, 72384, Note_on_c, 1, 57, 66
4, 72414, Note_on_c, 1, 57, 0
4, 72416, Note_on_c, 1, 60, 66
4, 72446, Note_on_c, 1, 60, 0
4, 72448, Note_on_c, 1, 65, 66
4, 72478, Note_on_c, 1, 65, 0
4, 72480, Note_on_c, 1, 57, 66
4, 72510, Note_on_c, 1, 57, 0
4, 72512, Note_on_c, 1, 60, 66
4, 72542, Note_on_c, 1, 60, 0
4, 72544, Note_on_c, 1, 65, 66
4, 72574, Note_on_c, 1, 65, 0
4, 72576, Note_on_c, 1, 58, 66
4, 72709, Note_on_c, 1, 58, 0
4, 72960, Note_on_c, 1, 58, 75
4, 72960, Note_on_c, 1, 53, 75
4, 72960, Note_on_c, 1, 50, 75
4, 73093, Note_on_c, 1, 58, 0
4, 73093, Note_on_c, 1, 53, 0
4, 73093, Note_on_c, 1, 50, 0
4, 73344, Note_on_c, 1, 58, 75
4, 73344, Note_on_c, 1, 55, 75
4, 73344, Note_on_c, 1, 51, 75
4, 73477, Note_on_c, 1, 58, 0
4, 73477, Note_on_c, 1, 55, 0
4, 73477, Note_on_c, 1, 51, 0
4, 73824, Note_on_c, 1, 62, 75
4, 73824, Note_on_c, 1, 58, 75
4, 73824, Note_on_c, 1, 53, 75
4, 73863, Note_on_c, 1, 62, 0
4, 73863, Note_on_c, 1, 58, 0
4, 73863, Note_on_c, 1, 53, 0
4, 73920, Note_on_c, 1, 62, 75
4, 73920, Note_on_c, 1, 58, 75
4, 73920, Note_on_c, 1, 53, 75
4, 74009, Note_on_c, 1, 62, 0
4, 74009, Note_on_c, 1, 58, 0
4, 74009, Note_on_c, 1, 53, 0
4, 74112, Note_on_c, 1, 62, 75
4, 74112, Note_on_c, 1, 58, 75
4, 74112, Note_on_c, 1, 53, 75
4, 74151, Note_on_c, 1, 62, 0
4, 74151, Note_on_c, 1, 58, 0
4, 74151, Note_on_c, 1, 53, 0
4, 74304, Note_on_c, 1, 62, 75
4, 74304, Note_on_c, 1, 58, 75
4, 74304, Note_on_c, 1, 53, 75
4, 74343, Note_on_c, 1, 62, 0
4, 74343, Note_on_c, 1, 58, 0
4, 74343, Note_on_c, 1, 53, 0
4, 74496, Note_on_c, 1, 62, 75
4, 74496, Note_on_c, 1, 58, 75
4, 74496, Note_on_c, 1, 53, 75
4, 74535, Note_on_c, 1, 62, 0
4, 74535, Note_on_c, 1, 58, 0
4, 74535, Note_on_c, 1, 53, 0
4, 75072, Note_on_c, 1, 52, 82
4, 75072, Note_on_c, 1, 40, 82
4, 75249, Note_on_c, 1, 52, 0
4, 75249, Note_on_c, 1, 40, 0
4, 75264, Note_on_c, 1, 53, 82
4, 75264, Note_on_c, 1, 48, 82
4, 75264, Note_on_c, 1, 45, 82
4, 75264, Note_on_c, 1, 41, 82
4, 75441, Note_on_c, 1, 53, 0
4, 75441, Note_on_c, 1, 48, 0
4, 75441, Note_on_c, 1, 45, 0
4, 75441, Note_on_c, 1, 41, 0
4, 75840, Note_on_c, 1, 63, 82
4, 75840, Note_on_c, 1, 60, 82
4, 75840, Note_on_c, 1, 57, 82
4, 75840, Note_on_c, 1, 53, 82
4, 76017, Note_on_c, 1, 63, 0
4, 76017, Note_on_c, 1, 60, 0
4, 76017, Note_on_c, 1, 57, 0
4, 76017, Note_on_c, 1, 53, 0
4, 76032, Note_on_c, 1, 58, 82
4, 76099, Note_on_c, 1, 58, 0
4, 76104, Note_on_c, 1, 62, 80
4, 76127, Note_on_c, 1, 62, 0
4, 76128, Note_on_c, 1, 57, 80
4, 76195, Note_on_c, 1, 57, 0
4, 76200, Note_on_c, 1, 60, 78
4, 76223, Note_on_c, 1, 60, 0
4, 76224, Note_on_c, 1, 55, 78
4, 76291, Note_on_c, 1, 55, 0
4, 76296, Note_on_c, 1, 58, 77
4, 76319, Note_on_c, 1, 58, 0
4, 76320, Note_on_c, 1, 53, 76
4, 76387, Note_on_c, 1, 53, 0
4, 76392, Note_on_c, 1, 57, 75
4, 76415, Note_on_c, 1, 57, 0
4, 76416, Note_on_c, 1, 51, 75
4, 76681, Note_on_c, 1, 51, 0
4, 76704, Note_on_c, 1, 63, 56
4, 76793, Note_on_c, 1, 63, 0
4, 76800, Note_on_c, 1, 62, 56
4, 76889, Note_on_c, 1, 62, 0
4, 76896, Note_on_c, 1, 63, 56
4, 76985, Note_on_c, 1, 63, 0
4, 76992, Note_on_c, 1, 65, 56
4, 77081, Note_on_c, 1, 65, 0
4, 77088, Note_on_c, 1, 53, 56
4, 77177, Note_on_c, 1, 53, 0
4, 77184, Note_on_c, 1, 58, 82
4, 77214, Note_on_c, 1, 58, 0
4, 77216, Note_on_c, 1, 60, 82
4, 77246, Note_on_c, 1, 60, 0
4, 77248, Note_on_c, 1, 62, 82
4, 77278, Note_on_c, 1, 62, 0
4, 77280, Note_on_c, 1, 57, 81
4, 77310, Note_on_c, 1, 57, 0
4, 77312, Note_on_c, 1, 58, 80
4, 77342, Note_on_c, 1, 58, 0
4, 77344, Note_on_c, 1, 60, 80
4, 77374, Note_on_c, 1, 60, 0
4, 77376, Note_on_c, 1, 55, 79
4, 77406, Note_on_c, 1, 55, 0
4, 77408, Note_on_c, 1, 57, 78
4, 77438, Note_on_c, 1, 57, 0
4, 77440, Note_on_c, 1, 58, 78
4, 77470, Note_on_c, 1, 58, 0
4, 77472, Note_on_c, 1, 53, 77
4, 77502, Note_on_c, 1, 53, 0
4, 77504, Note_on_c, 1, 55, 76
4, 77534, Note_on_c, 1, 55, 0
4, 77536, Note_on_c, 1, 57, 76
4, 77566, Note_on_c, 1, 57, 0
4, 77568, Note_on_c, 1, 51, 75
4, 77833, Note_on_c, 1, 51, 0
4, 77856, Note_on_c, 1, 63, 75
4, 77945, Note_on_c, 1, 63, 0
4, 77952, Note_on_c, 1, 62, 75
4, 78041, Note_on_c, 1, 62, 0
4, 78048, Note_on_c, 1, 63, 72
4, 78137, Note_on_c, 1, 63, 0
4, 78144, Note_on_c, 1, 62, 69
4, 78233, Note_on_c, 1, 62, 0
4, 78240, Note_on_c, 1, 60, 66
4, 78329, Note_on_c, 1, 60, 0
4, 78336, Note_on_c, 1, 62, 63
4, 78336, Note_on_c, 1, 58, 63
4, 78425, Note_on_c, 1, 62, 0
4, 78425, Note_on_c, 1, 58, 0
4, 78432, Note_on_c, 1, 62, 61
4, 78432, Note_on_c, 1, 58, 61
4, 78521, Note_on_c, 1, 62, 0
4, 78521, Note_on_c, 1, 58, 0
4, 78528, Note_on_c, 1, 62, 58
4, 78528, Note_on_c, 1, 58, 58
4, 78617, Note_on_c, 1, 62, 0
4, 78617, Note_on_c, 1, 58, 0
4, 78624, Note_on_c, 1, 62, 55
4, 78624, Note_on_c, 1, 58, 55
4, 78713, Note_on_c, 1, 62, 0
4, 78713, Note_on_c, 1, 58, 0
4, 78720, Note_on_c, 1, 62, 52
4, 78720, Note_on_c, 1, 58, 52
4, 78814, Note_on_c, 1, 62, 0
4, 78814, Note_on_c, 1, 58, 0
4, 79104, Note_on_c, 1, 49, 82
4, 79104, Note_on_c, 1, 37, 82
4, 79193, Note_on_c, 1, 49, 0
4, 79193, Note_on_c, 1, 37, 0
4, 79200, Note_on_c, 1, 49, 82
4, 79200, Note_on_c, 1, 37, 82
4, 79289, Note_on_c, 1, 49, 0
4, 79289, Note_on_c, 1, 37, 0
4, 79296, Note_on_c, 1, 49, 82
4, 79296, Note_on_c, 1, 37, 82
4, 79385, Note_on_c, 1, 49, 0
4, 79385, Note_on_c, 1, 37, 0
4, 79392, Note_on_c, 1, 49, 82
4, 79392, Note_on_c, 1, 37, 82
4, 79481, Note_on_c, 1, 49, 0
4, 79481, Note_on_c, 1, 37, 0
4, 79488, Note_on_c, 1, 49, 82
4, 79488, Note_on_c, 1, 37, 82
4, 79577, Note_on_c, 1, 49, 0
4, 79577, Note_on_c, 1, 37, 0
4, 79872, Note_on_c, 1, 58, 56
4, 79961, Note_on_c, 1, 58, 0
4, 79968, Note_on_c, 1, 58, 56
4, 80057, Note_on_c, 1, 58, 0
4, 80064, Note_on_c, 1, 58, 56
4, 80153, Note_on_c, 1, 58, 0
4, 80160, Note_on_c, 1, 58, 56
4, 80249, Note_on_c, 1, 58, 0
4, 80256, Note_on_c, 1, 58, 56
4, 80345, Note_on_c, 1, 58, 0
4, 80640, Note_on_c, 1, 63, 82
4, 80640, Note_on_c, 1, 58, 82
4, 80640, Note_on_c, 1, 55, 82
4, 80640, Note_on_c, 1, 51, 82
4, 80817, Note_on_c, 1, 63, 0
4, 80817, Note_on_c, 1, 58, 0
4, 80817, Note_on_c, 1, 55, 0
4, 80817, Note_on_c, 1, 51, 0
4, 81120, Note_on_c, 1, 75, 75
4, 81120, Note_on_c, 1, 71, 75
4, 81216, Note_on_c, 1, 75, 0
4, 81216, Note_on_c, 1, 71, 0
4, 81216, Note_on_c, 1, 74, 70
4, 81216, Note_on_c, 1, 70, 70
4, 81305, Note_on_c, 1, 74, 0
4, 81305, Note_on_c, 1, 70, 0
4, 81888, Note_on_c, 1, 65, 66
4, 82080, Note_on_c, 1, 65, 0
4, 82080, Note_on_c, 1, 63, 66
4, 82169, Note_on_c, 1, 63, 0
4, 82272, Note_on_c, 1, 68, 66
4, 82464, Note_on_c, 1, 68, 0
4, 82464, Note_on_c, 1, 67, 66
4, 82553, Note_on_c, 1, 67, 0
4, 82560, Note_on_c, 1, 75, 66
4, 82560, Note_on_c, 1, 72, 66
4, 82599, Note_on_c, 1, 75, 0
4, 82599, Note_on_c, 1, 72, 0
4, 82656, Note_on_c, 1, 74, 56
4, 82656, Note_on_c, 1, 70, 56
4, 82695, Note_on_c, 1, 74, 0
4, 82695, Note_on_c, 1, 70, 0
4, 82752, Note_on_c, 1, 72, 61
4, 82752, Note_on_c, 1, 68, 61
4, 82791, Note_on_c, 1, 72, 0
4, 82791, Note_on_c, 1, 68, 0
4, 82848, Note_on_c, 1, 70, 66
4, 82848, Note_on_c, 1, 67, 66
4, 82887, Note_on_c, 1, 70, 0
4, 82887, Note_on_c, 1, 67, 0
4, 82944, Note_on_c, 1, 72, 71
4, 82944, Note_on_c, 1, 68, 71
4, 83121, Note_on_c, 1, 72, 0
4, 83121, Note_on_c, 1, 68, 0
4, 83232, Note_on_c, 1, 68, 82
4, 83232, Note_on_c, 1, 58, 82
4, 83321, Note_on_c, 1, 68, 0
4, 83321, Note_on_c, 1, 58, 0
4, 83328, Note_on_c, 1, 67, 82
4, 83328, Note_on_c, 1, 63, 82
4, 83417, Note_on_c, 1, 67, 0
4, 83417, Note_on_c, 1, 63, 0
4, 83712, Note_on_c, 1, 51, 66
4, 83742, Note_on_c, 1, 51, 0
4, 83744, Note_on_c, 1, 55, 66
4, 83774, Note_on_c, 1, 55, 0
4, 83776, Note_on_c, 1, 58, 66
4, 83806, Note_on_c, 1, 58, 0
4, 83808, Note_on_c, 1, 51, 66
4, 83838, Note_on_c, 1, 51, 0
4, 83840, Note_on_c, 1, 55, 66
4, 83870, Note_on_c, 1, 55, 0
4, 83872, Note_on_c, 1, 58, 66
4, 83902, Note_on_c, 1, 58, 0
4, 83904, Note_on_c, 1, 51, 66
4, 83934, Note_on_c, 1, 51, 0
4, 83936, Note_on_c, 1, 55, 66
4, 83966, Note_on_c, 1, 55, 0
4, 83968, Note_on_c, 1, 58, 66
4, 83998, Note_on_c, 1, 58, 0
4, 84000, Note_on_c, 1, 51, 66
4, 84030, Note_on_c, 1, 51, 0
4, 84032, Note_on_c, 1, 55, 66
4, 84062, Note_on_c, 1, 55, 0
4, 84064, Note_on_c, 1, 58, 66
4, 84094, Note_on_c, 1, 58, 0
4, 84096, Note_on_c, 1, 50, 66
4, 84126, Note_on_c, 1, 50, 0
4, 84128, Note_on_c, 1, 53, 66
4, 84158, Note_on_c, 1, 53, 0
4, 84160, Note_on_c, 1, 58, 66
4, 84190, Note_on_c, 1, 58, 0
4, 84192, Note_on_c, 1, 50, 66
4, 84222, Note_on_c, 1, 50, 0
4, 84224, Note_on_c, 1, 53, 66
4, 84254, Note_on_c, 1, 53, 0
4, 84256, Note_on_c, 1, 58, 66
4, 84286, Note_on_c, 1, 58, 0
4, 84288, Note_on_c, 1, 50, 66
4, 84318, Note_on_c, 1, 50, 0
4, 84320, Note_on_c, 1, 53, 66
4, 84350, Note_on_c, 1, 53, 0
4, 84352, Note_on_c, 1, 58, 66
4, 84382, Note_on_c, 1, 58, 0
4, 84384, Note_on_c, 1, 50, 66
4, 84414, Note_on_c, 1, 50, 0
4, 84416, Note_on_c, 1, 53, 66
4, 84446, Note_on_c, 1, 53, 0
4, 84448, Note_on_c, 1, 58, 66
4, 84478, Note_on_c, 1, 58, 0
4, 84480, Note_on_c, 1, 48, 66
4, 84510, Note_on_c, 1, 48, 0
4, 84512, Note_on_c, 1, 51, 66
4, 84542, Note_on_c, 1, 51, 0
4, 84544, Note_on_c, 1, 58, 66
4, 84574, Note_on_c, 1, 58, 0
4, 84576, Note_on_c, 1, 48, 66
4, 84606, Note_on_c, 1, 48, 0
4, 84608, Note_on_c, 1, 51, 66
4, 84638, Note_on_c, 1, 51, 0
4, 84640, Note_on_c, 1, 58, 66
4, 84670, Note_on_c, 1, 58, 0
4, 84672, Note_on_c, 1, 48, 66
4, 84702, Note_on_c, 1, 48, 0
4, 84704, Note_on_c, 1, 51, 66
4, 84734, Note_on_c, 1, 51, 0
4, 84736, Note_on_c, 1, 58, 66
4, 84766, Note_on_c, 1, 58, 0
4, 84768, Note_on_c, 1, 48, 66
4, 84798, Note_on_c, 1, 48, 0
4, 84800, Note_on_c, 1, 51, 66
4, 84830, Note_on_c, 1, 51, 0
4, 84832, Note_on_c, 1, 58, 66
4, 84862, Note_on_c, 1, 58, 0
4, 84864, Note_on_c, 1, 46, 66
4, 84894, Note_on_c, 1, 46, 0
4, 84896, Note_on_c, 1, 50, 66
4, 84926, Note_on_c, 1, 50, 0
4, 84928, Note_on_c, 1, 58, 66
4, 84958, Note_on_c, 1, 58, 0
4, 84960, Note_on_c, 1, 46, 66
4, 84990, Note_on_c, 1, 46, 0
4, 84992, Note_on_c, 1, 50, 66
4, 85022, Note_on_c, 1, 50, 0
4, 85024, Note_on_c, 1, 58, 66
4, 85054, Note_on_c, 1, 58, 0
4, 85056, Note_on_c, 1, 46, 66
4, 85086, Note_on_c, 1, 46, 0
4, 85088, Note_on_c, 1, 50, 66
4, 85118, Note_on_c, 1, 50, 0
4, 85120, Note_on_c, 1, 53, 66
4, 85150, Note_on_c, 1, 53, 0
4, 85152, Note_on_c, 1, 46, 66
4, 85182, Note_on_c, 1, 46, 0
4, 85184, Note_on_c, 1, 50, 66
4, 85214, Note_on_c, 1, 50, 0
4, 85216, Note_on_c, 1, 53, 66
4, 85246, Note_on_c, 1, 53, 0
4, 85248, Note_on_c, 1, 51, 75
4, 85513, Note_on_c, 1, 51, 0
4, 85536, Note_on_c, 1, 52, 79
4, 85625, Note_on_c, 1, 52, 0
4, 85632, Note_on_c, 1, 53, 80
4, 85721, Note_on_c, 1, 53, 0
4, 85728, Note_on_c, 1, 65, 82
4, 85767, Note_on_c, 1, 65, 0
4, 85824, Note_on_c, 1, 65, 82
4, 85863, Note_on_c, 1, 65, 0
4, 85920, Note_on_c, 1, 65, 82
4, 85959, Note_on_c, 1, 65, 0
4, 86016, Note_on_c, 1, 65, 82
4, 86016, Note_on_c, 1, 63, 82
4, 86055, Note_on_c, 1, 65, 0
4, 86055, Note_on_c, 1, 63, 0
4, 86112, Note_on_c, 1, 65, 82
4, 86112, Note_on_c, 1, 63, 82
4, 86151, Note_on_c, 1, 65, 0
4, 86151, Note_on_c, 1, 63, 0
4, 86208, Note_on_c, 1, 65, 82
4, 86208, Note_on_c, 1, 63, 82
4, 86247, Note_on_c, 1, 65, 0
4, 86247, Note_on_c, 1, 63, 0
4, 86304, Note_on_c, 1, 65, 82
4, 86304, Note_on_c, 1, 63, 82
4, 86343, Note_on_c, 1, 65, 0
4, 86343, Note_on_c, 1, 63, 0
4, 86400, Note_on_c, 1, 66, 82
4, 86400, Note_on_c, 1, 62, 82
4, 86439, Note_on_c, 1, 66, 0
4, 86439, Note_on_c, 1, 62, 0
4, 86496, Note_on_c, 1, 66, 82
4, 86496, Note_on_c, 1, 62, 82
4, 86535, Note_on_c, 1, 66, 0
4, 86535, Note_on_c, 1, 62, 0
4, 86592, Note_on_c, 1, 66, 82
4, 86592, Note_on_c, 1, 62, 82
4, 86631, Note_on_c, 1, 66, 0
4, 86631, Note_on_c, 1, 62, 0
4, 86688, Note_on_c, 1, 66, 82
4, 86688, Note_on_c, 1, 62, 82
4, 86727, Note_on_c, 1, 66, 0
4, 86727, Note_on_c, 1, 62, 0
4, 86784, Note_on_c, 1, 66, 82
4, 86784, Note_on_c, 1, 62, 82
4, 86823, Note_on_c, 1, 66, 0
4, 86823, Note_on_c, 1, 62, 0
4, 86880, Note_on_c, 1, 66, 78
4, 86880, Note_on_c, 1, 62, 78
4, 86919, Note_on_c, 1, 66, 0
4, 86919, Note_on_c, 1, 62, 0
4, 86976, Note_on_c, 1, 66, 74
4, 86976, Note_on_c, 1, 62, 74
4, 87015, Note_on_c, 1, 66, 0
4, 87015, Note_on_c, 1, 62, 0
4, 87072, Note_on_c, 1, 66, 70
4, 87072, Note_on_c, 1, 62, 70
4, 87111, Note_on_c, 1, 66, 0
4, 87111, Note_on_c, 1, 62, 0
4, 87168, Note_on_c, 1, 55, 67
4, 87198, Note_on_c, 1, 55, 0
4, 87200, Note_on_c, 1, 58, 66
4, 87230, Note_on_c, 1, 58, 0
4, 87232, Note_on_c, 1, 62, 66
4, 87262, Note_on_c, 1, 62, 0
4, 87264, Note_on_c, 1, 55, 66
4, 87294, Note_on_c, 1, 55, 0
4, 87296, Note_on_c, 1, 58, 66
4, 87326, Note_on_c, 1, 58, 0
4, 87328, Note_on_c, 1, 62, 66
4, 87358, Note_on_c, 1, 62, 0
4, 87360, Note_on_c, 1, 57, 66
4, 87390, Note_on_c, 1, 57, 0
4, 87392, Note_on_c, 1, 60, 66
4, 87422, Note_on_c, 1, 60, 0
4, 87424, Note_on_c, 1, 62, 66
4, 87454, Note_on_c, 1, 62, 0
4, 87456, Note_on_c, 1, 57, 66
4, 87486, Note_on_c, 1, 57, 0
4, 87488, Note_on_c, 1, 60, 66
4, 87518, Note_on_c, 1, 60, 0
4, 87520, Note_on_c, 1, 62, 66
4, 87550, Note_on_c, 1, 62, 0
4, 87552, Note_on_c, 1, 58, 66
4, 87582, Note_on_c, 1, 58, 0
4, 87584, Note_on_c, 1, 60, 66
4, 87614, Note_on_c, 1, 60, 0
4, 87616, Note_on_c, 1, 62, 66
4, 87646, Note_on_c, 1, 62, 0
4, 87648, Note_on_c, 1, 58, 66
4, 87678, Note_on_c, 1, 58, 0
4, 87680, Note_on_c, 1, 60, 66
4, 87710, Note_on_c, 1, 60, 0
4, 87712, Note_on_c, 1, 62, 66
4, 87742, Note_on_c, 1, 62, 0
4, 87744, Note_on_c, 1, 54, 66
4, 87774, Note_on_c, 1, 54, 0
4, 87776, Note_on_c, 1, 57, 66
4, 87806, Note_on_c, 1, 57, 0
4, 87808, Note_on_c, 1, 62, 66
4, 87838, Note_on_c, 1, 62, 0
4, 87840, Note_on_c, 1, 54, 66
4, 87870, Note_on_c, 1, 54, 0
4, 87872, Note_on_c, 1, 57, 66
4, 87902, Note_on_c, 1, 57, 0
4, 87904, Note_on_c, 1, 62, 66
4, 87934, Note_on_c, 1, 62, 0
4, 87936, Note_on_c, 1, 55, 66
4, 87966, Note_on_c, 1, 55, 0
4, 87968, Note_on_c, 1, 58, 66
4, 87998, Note_on_c, 1, 58, 0
4, 88000, Note_on_c, 1, 62, 66
4, 88030, Note_on_c, 1, 62, 0
4, 88032, Note_on_c, 1, 55, 66
4, 88062, Note_on_c, 1, 55, 0
4, 88064, Note_on_c, 1, 58, 66
4, 88094, Note_on_c, 1, 58, 0
4, 88096, Note_on_c, 1, 62, 66
4, 88126, Note_on_c, 1, 62, 0
4, 88128, Note_on_c, 1, 57, 66
4, 88158, Note_on_c, 1, 57, 0
4, 88160, Note_on_c, 1, 60, 66
4, 88190, Note_on_c, 1, 60, 0
4, 88192, Note_on_c, 1, 62, 66
4, 88222, Note_on_c, 1, 62, 0
4, 88224, Note_on_c, 1, 57, 66
4, 88254, Note_on_c, 1, 57, 0
4, 88256, Note_on_c, 1, 60, 66
4, 88286, Note_on_c, 1, 60, 0
4, 88288, Note_on_c, 1, 62, 66
4, 88318, Note_on_c, 1, 62, 0
4, 88320, Note_on_c, 1, 58, 66
4, 88350, Note_on_c, 1, 58, 0
4, 88352, Note_on_c, 1, 60, 66
4, 88382, Note_on_c, 1, 60, 0
4, 88384, Note_on_c, 1, 62, 67
4, 88414, Note_on_c, 1, 62, 0
4, 88416, Note_on_c, 1, 58, 67
4, 88446, Note_on_c, 1, 58, 0
4, 88448, Note_on_c, 1, 60, 68
4, 88478, Note_on_c, 1, 60, 0
4, 88480, Note_on_c, 1, 62, 69
4, 88510, Note_on_c, 1, 62, 0
4, 88512, Note_on_c, 1, 54, 69
4, 88542, Note_on_c, 1, 54, 0
4, 88544, Note_on_c, 1, 57, 70
4, 88574, Note_on_c, 1, 57, 0
4, 88576, Note_on_c, 1, 62, 71
4, 88606, Note_on_c, 1, 62, 0
4, 88608, Note_on_c, 1, 54, 71
4, 88638, Note_on_c, 1, 54, 0
4, 88640, Note_on_c, 1, 57, 72
4, 88670, Note_on_c, 1, 57, 0
4, 88672, Note_on_c, 1, 62, 72
4, 88702, Note_on_c, 1, 62, 0
4, 88704, Note_on_c, 1, 55, 73
4, 88734, Note_on_c, 1, 55, 0
4, 88736, Note_on_c, 1, 58, 74
4, 88766, Note_on_c, 1, 58, 0
4, 88768, Note_on_c, 1, 62, 74
4, 88798, Note_on_c, 1, 62, 0
4, 88800, Note_on_c, 1, 55, 75
4, 88830, Note_on_c, 1, 55, 0
4, 88832, Note_on_c, 1, 58, 76
4, 88862, Note_on_c, 1, 58, 0
4, 88864, Note_on_c, 1, 62, 76
4, 88894, Note_on_c, 1, 62, 0
4, 88896, Note_on_c, 1, 57, 77
4, 88926, Note_on_c, 1, 57, 0
4, 88928, Note_on_c, 1, 60, 77
4, 88958, Note_on_c, 1, 60, 0
4, 88960, Note_on_c, 1, 66, 78
4, 88990, Note_on_c, 1, 66, 0
4, 88992, Note_on_c, 1, 57, 79
4, 89022, Note_on_c, 1, 57, 0
4, 89024, Note_on_c, 1, 60, 79
4, 89054, Note_on_c, 1, 60, 0
4, 89056, Note_on_c, 1, 66, 80
4, 89086, Note_on_c, 1, 66, 0
4, 89088, Note_on_c, 1, 58, 82
4, 89127, Note_on_c, 1, 58, 0
4, 89376, Note_on_c, 1, 67, 82
4, 89376, Note_on_c, 1, 58, 82
4, 89465, Note_on_c, 1, 67, 0
4, 89465, Note_on_c, 1, 58, 0
4, 89472, Note_on_c, 1, 67, 82
4, 89472, Note_on_c, 1, 60, 82
4, 89517, Note_on_c, 1, 67, 0
4, 89517, Note_on_c, 1, 60, 0
4, 89544, Note_on_c, 1, 67, 82
4, 89556, Note_on_c, 1, 67, 0
4, 89556, Note_on_c, 1, 65, 82
4, 89568, Note_on_c, 1, 65, 0
4, 89568, Note_on_c, 1, 63, 82
4, 89613, Note_on_c, 1, 63, 0
4, 89640, Note_on_c, 1, 63, 82
4, 89652, Note_on_c, 1, 63, 0
4, 89652, Note_on_c, 1, 62, 82
4, 89664, Note_on_c, 1, 62, 0
4, 89664, Note_on_c, 1, 60, 82
4, 89709, Note_on_c, 1, 60, 0
4, 89736, Note_on_c, 1, 60, 82
4, 89748, Note_on_c, 1, 60, 0
4, 89748, Note_on_c, 1, 58, 82
4, 89760, Note_on_c, 1, 58, 0
4, 89760, Note_on_c, 1, 57, 82
4, 89805, Note_on_c, 1, 57, 0
4, 89832, Note_on_c, 1, 57, 82
4, 89844, Note_on_c, 1, 57, 0
4, 89844, Note_on_c, 1, 55, 82
4, 89856, Note_on_c, 1, 55, 0
4, 89856, Note_on_c, 1, 54, 82
4, 89945, Note_on_c, 1, 54, 0
4, 89952, Note_on_c, 1, 46, 82
4, 89952, Note_on_c, 1, 34, 82
4, 90041, Note_on_c, 1, 46, 0
4, 90041, Note_on_c, 1, 34, 0
4, 90048, Note_on_c, 1, 48, 82
4, 90048, Note_on_c, 1, 36, 82
4, 90137, Note_on_c, 1, 48, 0
4, 90137, Note_on_c, 1, 36, 0
4, 90144, Note_on_c, 1, 50, 82
4, 90144, Note_on_c, 1, 38, 82
4, 90233, Note_on_c, 1, 50, 0
4, 90233, Note_on_c, 1, 38, 0
4, 90240, Note_on_c, 1, 43, 82
4, 90240, Note_on_c, 1, 31, 82
4, 90329, Note_on_c, 1, 43, 0
4, 90329, Note_on_c, 1, 31, 0
4, 90464, Note_on_c, 1, 50, 75
4, 90494, Note_on_c, 1, 50, 0
4, 90496, Note_on_c, 1, 51, 75
4, 90526, Note_on_c, 1, 51, 0
4, 90528, Note_on_c, 1, 52, 75
4, 90558, Note_on_c, 1, 52, 0
4, 90560, Note_on_c, 1, 53, 75
4, 90590, Note_on_c, 1, 53, 0
4, 90592, Note_on_c, 1, 54, 75
4, 90622, Note_on_c, 1, 54, 0
4, 90624, Note_on_c, 1, 55, 75
4, 90713, Note_on_c, 1, 55, 0
4, 90848, Note_on_c, 1, 62, 75
4, 90878, Note_on_c, 1, 62, 0
4, 90880, Note_on_c, 1, 63, 75
4, 90910, Note_on_c, 1, 63, 0
4, 90912, Note_on_c, 1, 64, 75
4, 90942, Note_on_c, 1, 64, 0
4, 90944, Note_on_c, 1, 65, 75
4, 90974, Note_on_c, 1, 65, 0
4, 90976, Note_on_c, 1, 66, 75
4, 91006, Note_on_c, 1, 66, 0
4, 91008, Note_on_c, 1, 67, 75
4, 91097, Note_on_c, 1, 67, 0
4, 91232, Note_on_c, 1, 60, 75
4, 91262, Note_on_c, 1, 60, 0
4, 91264, Note_on_c, 1, 62, 75
4, 91294, Note_on_c, 1, 62, 0
4, 91296, Note_on_c, 1, 63, 75
4, 91326, Note_on_c, 1, 63, 0
4, 91328, Note_on_c, 1, 65, 75
4, 91358, Note_on_c, 1, 65, 0
4, 91360, Note_on_c, 1, 67, 75
4, 91390, Note_on_c, 1, 67, 0
4, 91392, Note_on_c, 1, 69, 75
4, 91481, Note_on_c, 1, 69, 0
4, 91616, Note_on_c, 1, 65, 75
4, 91646, Note_on_c, 1, 65, 0
4, 91648, Note_on_c, 1, 66, 75
4, 91678, Note_on_c, 1, 66, 0
4, 91680, Note_on_c, 1, 67, 75
4, 91710, Note_on_c, 1, 67, 0
4, 91712, Note_on_c, 1, 68, 75
4, 91742, Note_on_c, 1, 68, 0
4, 91744, Note_on_c, 1, 69, 75
4, 91774, Note_on_c, 1, 69, 0
4, 91776, Note_on_c, 1, 70, 75
4, 91865, Note_on_c, 1, 70, 0
4, 92064, Note_on_c, 1, 62, 75
4, 92153, Note_on_c, 1, 62, 0
4, 92160, Note_on_c, 1, 63, 75
4, 92425, Note_on_c, 1, 63, 0
4, 92448, Note_on_c, 1, 64, 80
4, 92537, Note_on_c, 1, 64, 0
4, 92544, Note_on_c, 1, 65, 82
4, 92633, Note_on_c, 1, 65, 0
4, 92928, Note_on_c, 1, 53, 82
4, 92928, Note_on_c, 1, 57, 82
4, 92928, Note_on_c, 1, 60, 82
4, 92928, Note_on_c, 1, 63, 82
4, 93017, Note_on_c, 1, 63, 0
4, 93017, Note_on_c, 1, 60, 0
4, 93017, Note_on_c, 1, 57, 0
4, 93017, Note_on_c, 1, 53, 0
4, 93312, Note_on_c, 1, 63, 82
4, 93312, Note_on_c, 1, 60, 82
4, 93312, Note_on_c, 1, 57, 82
4, 93312, Note_on_c, 1, 53, 82
4, 93401, Note_on_c, 1, 63, 0
4, 93401, Note_on_c, 1, 60, 0
4, 93401, Note_on_c, 1, 57, 0
4, 93401, Note_on_c, 1, 53, 0
4, 93696, Control_c, 1, 64, 127
4, 93696, Note_on_c, 1, 53, 82
4, 93708, Note_on_c, 1, 57, 82
4, 93720, Note_on_c, 1, 60, 82
4, 93732, Note_on_c, 1, 63, 82
4, 94752, Control_c, 1, 64, 0
4, 94841, Note_on_c, 1, 63, 0
4, 94841, Note_on_c, 1, 60, 0
4, 94841, Note_on_c, 1, 57, 0
4, 94841, Note_on_c, 1, 53, 0
4, 94848, Note_on_c, 1, 58, 82
4, 94848, Note_on_c, 1, 53, 82
4, 94848, Note_on_c, 1, 50, 82
4, 94848, Note_on_c, 1, 46, 82
4, 95025, Note_on_c, 1, 58, 0
4, 95025, Note_on_c, 1, 53, 0
4, 95025, Note_on_c, 1, 50, 0
4, 95025, Note_on_c, 1, 46, 0
4, 95328, Note_on_c, 1, 70, 75
4, 95328, Note_on_c, 1, 66, 75
4, 95424, Note_on_c, 1, 70, 0
4, 95424, Note_on_c, 1, 66, 0
4, 95424, Note_on_c, 1, 69, 70
4, 95424, Note_on_c, 1, 65, 70
4, 95513, Note_on_c, 1, 69, 0
4, 95513, Note_on_c, 1, 65, 0
4, 96096, Note_on_c, 1, 60, 66
4, 96288, Note_on_c, 1, 60, 0
4, 96288, Note_on_c, 1, 58, 66
4, 96377, Note_on_c, 1, 58, 0
4, 96768, Note_on_c, 1, 65, 82
4, 96768, Note_on_c, 1, 63, 82
4, 96768, Note_on_c, 1, 60, 82
4, 96768, Note_on_c, 1, 57, 82
4, 97122, Note_on_c, 1, 65, 0
4, 97122, Note_on_c, 1, 63, 0
4, 97122, Note_on_c, 1, 60, 0
4, 97122, Note_on_c, 1, 57, 0
4, 97152, Note_on_c, 1, 58, 75
4, 97241, Note_on_c, 1, 58, 0
4, 97248, Note_on_c, 1, 67, 75
4, 97337, Note_on_c, 1, 67, 0
4, 97344, Note_on_c, 1, 65, 75
4, 97433, Note_on_c, 1, 65, 0
4, 97440, Note_on_c, 1, 63, 75
4, 97440, Note_on_c, 1, 53, 75
4, 97529, Note_on_c, 1, 63, 0
4, 97529, Note_on_c, 1, 53, 0
4, 97536, Note_on_c, 1, 62, 75
4, 97536, Note_on_c, 1, 58, 75
4, 97669, Note_on_c, 1, 62, 0
4, 97669, Note_on_c, 1, 58, 0
4, 98688, Note_on_c, 1, 53, 75
4, 98688, Note_on_c, 1, 41, 75
4, 98865, Note_on_c, 1, 53, 0
4, 98865, Note_on_c, 1, 41, 0
4, 99144, Note_on_c, 1, 57, 82
4, 99167, Note_on_c, 1, 57, 0
4, 99168, Note_on_c, 1, 58, 82
4, 99235, Note_on_c, 1, 58, 0
4, 99240, Note_on_c, 1, 57, 82
4, 99263, Note_on_c, 1, 57, 0
4, 99264, Note_on_c, 1, 58, 82
4, 99353, Note_on_c, 1, 58, 0
4, 99456, Note_on_c, 1, 58, 75
4, 99456, Note_on_c, 1, 53, 75
4, 99456, Note_on_c, 1, 50, 75
4, 99456, Note_on_c, 1, 46, 75
4, 99633, Note_on_c, 1, 58, 0
4, 99633, Note_on_c, 1, 53, 0
4, 99633, Note_on_c, 1, 50, 0
4, 99633, Note_on_c, 1, 46, 0
4, 99744, Note_on_c, 1, 62, 75
4, 99833, Note_on_c, 1, 62, 0
4, 99840, Note_on_c, 1, 63, 75
4, 99929, Note_on_c, 1, 63, 0
4, 99936, Note_on_c, 1, 65, 75
4, 100025, Note_on_c, 1, 65, 0
4, 100032, Note_on_c, 1, 67, 75
4, 100121, Note_on_c, 1, 67, 0
4, 100128, Note_on_c, 1, 69, 75
4, 100217, Note_on_c, 1, 69, 0
4, 100224, Note_on_c, 1, 70, 75
4, 100313, Note_on_c, 1, 70, 0
4, 100512, Note_on_c, 1, 62, 75
4, 100601, Note_on_c, 1, 62, 0
4, 100608, Note_on_c, 1, 63, 75
4, 100697, Note_on_c, 1, 63, 0
4, 100704, Note_on_c, 1, 65, 73
4, 100793, Note_on_c, 1, 65, 0
4, 100800, Note_on_c, 1, 67, 71
4, 100889, Note_on_c, 1, 67, 0
4, 100896, Note_on_c, 1, 69, 69
4, 100985, Note_on_c, 1, 69, 0
4, 100992, Note_on_c, 1, 70, 67
4, 100992, Note_on_c, 1, 58, 67
4, 101037, Note_on_c, 1, 70, 0
4, 101037, Note_on_c, 1, 58, 0
4, 101088, Note_on_c, 1, 69, 66
4, 101088, Note_on_c, 1, 58, 66
4, 101133, Note_on_c, 1, 69, 0
4, 101133, Note_on_c, 1, 58, 0
4, 101184, Note_on_c, 1, 70, 66
4, 101184, Note_on_c, 1, 58, 66
4, 101229, Note_on_c, 1, 70, 0
4, 101229, Note_on_c, 1, 58, 0
4, 101280, Note_on_c, 1, 69, 66
4, 101280, Note_on_c, 1, 58, 66
4, 101325, Note_on_c, 1, 69, 0
4, 101325, Note_on_c, 1, 58, 0
4, 101376, Note_on_c, 1, 70, 66
4, 101376, Note_on_c, 1, 58, 66
4, 101421, Note_on_c, 1, 70, 0
4, 101421, Note_on_c, 1, 58, 0
4, 101664, Note_on_c, 1, 53, 66
4, 101664, Note_on_c, 1, 50, 66
4, 101753, Note_on_c, 1, 53, 0
4, 101753, Note_on_c, 1, 50, 0
4, 101760, Note_on_c, 1, 55, 66
4, 101760, Note_on_c, 1, 51, 66
4, 101849, Note_on_c, 1, 55, 0
4, 101849, Note_on_c, 1, 51, 0
4, 102096, Note_on_c, 1, 60, 68
4, 102096, Note_on_c, 1, 52, 68
4, 102141, Note_on_c, 1, 60, 0
4, 102141, Note_on_c, 1, 52, 0
4, 102144, Note_on_c, 1, 62, 66
4, 102144, Note_on_c, 1, 53, 66
4, 102336, Note_on_c, 1, 62, 0
4, 102336, Note_on_c, 1, 60, 58
4, 102381, Note_on_c, 1, 60, 0
4, 102381, Note_on_c, 1, 53, 0
4, 102624, Note_on_c, 1, 58, 82
4, 102624, Note_on_c, 1, 53, 82
4, 102624, Note_on_c, 1, 50, 82
4, 102624, Note_on_c, 1, 46, 82
4, 102713, Note_on_c, 1, 58, 0
4, 102713, Note_on_c, 1, 53, 0
4, 102713, Note_on_c, 1, 50, 0
4, 102713, Note_on_c, 1, 46, 0
4, 102816, Note_on_c, 1, 53, 82
4, 102816, Note_on_c, 1, 48, 82
4, 102816, Note_on_c, 1, 45, 82
4, 102816, Note_on_c, 1, 41, 82
4, 102905, Note_on_c, 1, 53, 0
4, 102905, Note_on_c, 1, 48, 0
4, 102905, Note_on_c, 1, 45, 0
4, 102905, Note_on_c, 1, 41, 0
4, 103008, Note_on_c, 1, 46, 82
4, 103008, Note_on_c, 1, 41, 82
4, 103008, Note_on_c, 1, 38, 82
4, 103008, Note_on_c, 1, 34, 82
4, 103097, Note_on_c, 1, 46, 0
4, 103097, Note_on_c, 1, 41, 0
4, 103097, Note_on_c, 1, 38, 0
4, 103097, Note_on_c, 1, 34, 0
4, 103392, Note_on_c, 1, 65, 75
4, 103392, Note_on_c, 1, 63, 75
4, 103486, Note_on_c, 1, 65, 0
4, 103486, Note_on_c, 1, 63, 0
4, 103584, Note_on_c, 1, 65, 66
4, 103584, Note_on_c, 1, 62, 66
4, 103673, Note_on_c, 1, 65, 0
4, 103673, Note_on_c, 1, 62, 0
4, 103776, Note_on_c, 1, 65, 56
4, 103776, Note_on_c, 1, 57, 56
4, 103870, Note_on_c, 1, 65, 0
4, 103870, Note_on_c, 1, 57, 0
4, 104064, Note_on_c, 1, 70, 56
4, 104094, Note_on_c, 1, 70, 0
4, 104096, Note_on_c, 1, 73, 56
4, 104126, Note_on_c, 1, 73, 0
4, 104128, Note_on_c, 1, 77, 56
4, 104158, Note_on_c, 1, 77, 0
4, 104160, Note_on_c, 1, 70, 56
4, 104190, Note_on_c, 1, 70, 0
4, 104192, Note_on_c, 1, 73, 56
4, 104222, Note_on_c, 1, 73, 0
4, 104224, Note_on_c, 1, 77, 56
4, 104254, Note_on_c, 1, 77, 0
4, 104256, Note_on_c, 1, 70, 56
4, 104286, Note_on_c, 1, 70, 0
4, 104288, Note_on_c, 1, 73, 56
4, 104318, Note_on_c, 1, 73, 0
4, 104320, Note_on_c, 1, 77, 56
4, 104350, Note_on_c, 1, 77, 0
4, 104352, Note_on_c, 1, 70, 56
4, 104382, Note_on_c, 1, 70, 0
4, 104384, Note_on_c, 1, 73, 56
4, 104414, Note_on_c, 1, 73, 0
4, 104416, Note_on_c, 1, 77, 56
4, 104446, Note_on_c, 1, 77, 0
4, 104448, Note_on_c, 1, 68, 56
4, 104478, Note_on_c, 1, 68, 0
4, 104480, Note_on_c, 1, 73, 56
4, 104510, Note_on_c, 1, 73, 0
4, 104512, Note_on_c, 1, 77, 56
4, 104542, Note_on_c, 1, 77, 0
4, 104544, Note_on_c, 1, 68, 56
4, 104574, Note_on_c, 1, 68, 0
4, 104576, Note_on_c, 1, 73, 56
4, 104606, Note_on_c, 1, 73, 0
4, 104608, Note_on_c, 1, 77, 56
4, 104638, Note_on_c, 1, 77, 0
4, 104640, Note_on_c, 1, 68, 56
4, 104670, Note_on_c, 1, 68, 0
4, 104672, Note_on_c, 1, 73, 56
4, 104702, Note_on_c, 1, 73, 0
4, 104704, Note_on_c, 1, 77, 56
4, 104734, Note_on_c, 1, 77, 0
4, 104736, Note_on_c, 1, 68, 56
4, 104766, Note_on_c, 1, 68, 0
4, 104768, Note_on_c, 1, 73, 56
4, 104798, Note_on_c, 1, 73, 0
4, 104800, Note_on_c, 1, 77, 56
4, 104830, Note_on_c, 1, 77, 0
4, 104832, Note_on_c, 1, 66, 56
4, 104862, Note_on_c, 1, 66, 0
4, 104864, Note_on_c, 1, 70, 56
4, 104894, Note_on_c, 1, 70, 0
4, 104896, Note_on_c, 1, 73, 56
4, 104926, Note_on_c, 1, 73, 0
4, 104928, Note_on_c, 1, 66, 56
4, 104958, Note_on_c, 1, 66, 0
4, 104960, Note_on_c, 1, 70, 56
4, 104990, Note_on_c, 1, 70, 0
4, 104992, Note_on_c, 1, 73, 56
4, 105022, Note_on_c, 1, 73, 0
4, 105024, Note_on_c, 1, 66, 56
4, 105054, Note_on_c, 1, 66, 0
4, 105056, Note_on_c, 1, 70, 56
4, 105086, Note_on_c, 1, 70, 0
4, 105088, Note_on_c, 1, 73, 56
4, 105118, Note_on_c, 1, 73, 0
4, 105120, Note_on_c, 1, 66, 56
4, 105150, Note_on_c, 1, 66, 0
4, 105152, Note_on_c, 1, 70, 56
4, 105182, Note_on_c, 1, 70, 0
4, 105184, Note_on_c, 1, 73, 56
4, 105214, Note_on_c, 1, 73, 0
4, 105216, Note_on_c, 1, 65, 56
4, 105246, Note_on_c, 1, 65, 0
4, 105248, Note_on_c, 1, 68, 56
4, 105278, Note_on_c, 1, 68, 0
4, 105280, Note_on_c, 1, 74, 56
4, 105310, Note_on_c, 1, 74, 0
4, 105312, Note_on_c, 1, 65, 56
4, 105342, Note_on_c, 1, 65, 0
4, 105344, Note_on_c, 1, 68, 56
4, 105374, Note_on_c, 1, 68, 0
4, 105376, Note_on_c, 1, 74, 56
4, 105406, Note_on_c, 1, 74, 0
4, 105408, Note_on_c, 1, 65, 56
4, 105438, Note_on_c, 1, 65, 0
4, 105440, Note_on_c, 1, 68, 56
4, 105470, Note_on_c, 1, 68, 0
4, 105472, Note_on_c, 1, 74, 56
4, 105502, Note_on_c, 1, 74, 0
4, 105504, Note_on_c, 1, 65, 56
4, 105534, Note_on_c, 1, 65, 0
4, 105536, Note_on_c, 1, 68, 56
4, 105566, Note_on_c, 1, 68, 0
4, 105568, Note_on_c, 1, 74, 56
4, 105598, Note_on_c, 1, 74, 0
4, 105600, Note_on_c, 1, 63, 56
4, 105630, Note_on_c, 1, 63, 0
4, 105632, Note_on_c, 1, 66, 56
4, 105662, Note_on_c, 1, 66, 0
4, 105664, Note_on_c, 1, 70, 56
4, 105694, Note_on_c, 1, 70, 0
4, 105696, Note_on_c, 1, 63, 56
4, 105726, Note_on_c, 1, 63, 0
4, 105728, Note_on_c, 1, 66, 56
4, 105758, Note_on_c, 1, 66, 0
4, 105760, Note_on_c, 1, 70, 56
4, 105790, Note_on_c, 1, 70, 0
4, 105792, Note_on_c, 1, 63, 56
4, 105822, Note_on_c, 1, 63, 0
4, 105824, Note_on_c, 1, 66, 56
4, 105854, Note_on_c, 1, 66, 0
4, 105856, Note_on_c, 1, 70, 56
4, 105886, Note_on_c, 1, 70, 0
4, 105888, Note_on_c, 1, 63, 56
4, 105918, Note_on_c, 1, 63, 0
4, 105920, Note_on_c, 1, 66, 56
4, 105950, Note_on_c, 1, 66, 0
4, 105952, Note_on_c, 1, 70, 56
4, 105982, Note_on_c, 1, 70, 0
4, 105984, Note_on_c, 1, 61, 56
4, 106014, Note_on_c, 1, 61, 0
4, 106016, Note_on_c, 1, 65, 56
4, 106046, Note_on_c, 1, 65, 0
4, 106048, Note_on_c, 1, 70, 56
4, 106078, Note_on_c, 1, 70, 0
4, 106080, Note_on_c, 1, 61, 56
4, 106110, Note_on_c, 1, 61, 0
4, 106112, Note_on_c, 1, 65, 56
4, 106142, Note_on_c, 1, 65, 0
4, 106144, Note_on_c, 1, 70, 56
4, 106174, Note_on_c, 1, 70, 0
4, 106176, Note_on_c, 1, 61, 56
4, 106206, Note_on_c, 1, 61, 0
4, 106208, Note_on_c, 1, 65, 56
4, 106238, Note_on_c, 1, 65, 0
4, 106240, Note_on_c, 1, 70, 56
4, 106270, Note_on_c, 1, 70, 0
4, 106272, Note_on_c, 1, 61, 56
4, 106302, Note_on_c, 1, 61, 0
4, 106304, Note_on_c, 1, 65, 56
4, 106334, Note_on_c, 1, 65, 0
4, 106336, Note_on_c, 1, 70, 56
4, 106366, Note_on_c, 1, 70, 0
4, 106368, Note_on_c, 1, 60, 56
4, 106545, Note_on_c, 1, 60, 0
4, 106752, Note_on_c, 1, 64, 56
4, 106782, Note_on_c, 1, 64, 0
4, 106784, Note_on_c, 1, 67, 56
4, 106814, Note_on_c, 1, 67, 0
4, 106816, Note_on_c, 1, 72, 56
4, 106846, Note_on_c, 1, 72, 0
4, 106848, Note_on_c, 1, 64, 56
4, 106878, Note_on_c, 1, 64, 0
4, 106880, Note_on_c, 1, 67, 56
4, 106910, Note_on_c, 1, 67, 0
4, 106912, Note_on_c, 1, 72, 56
4, 106942, Note_on_c, 1, 72, 0
4, 106944, Note_on_c, 1, 64, 56
4, 106974, Note_on_c, 1, 64, 0
4, 106976, Note_on_c, 1, 67, 56
4, 107006, Note_on_c, 1, 67, 0
4, 107008, Note_on_c, 1, 72, 56
4, 107038, Note_on_c, 1, 72, 0
4, 107040, Note_on_c, 1, 64, 56
4, 107070, Note_on_c, 1, 64, 0
4, 107072, Note_on_c, 1, 67, 56
4, 107102, Note_on_c, 1, 67, 0
4, 107104, Note_on_c, 1, 72, 56
4, 107134, Note_on_c, 1, 72, 0
4, 107136, Note_on_c, 1, 65, 56
4, 107225, Note_on_c, 1, 65, 0
4, 107520, Note_on_c, 1, 57, 66
4, 107550, Note_on_c, 1, 57, 0
4, 107552, Note_on_c, 1, 60, 66
4, 107582, Note_on_c, 1, 60, 0
4, 107584, Note_on_c, 1, 65, 66
4, 107614, Note_on_c, 1, 65, 0
4, 107616, Note_on_c, 1, 57, 66
4, 107646, Note_on_c, 1, 57, 0
4, 107648, Note_on_c, 1, 60, 66
4, 107678, Note_on_c, 1, 60, 0
4, 107680, Note_on_c, 1, 65, 66
4, 107710, Note_on_c, 1, 65, 0
4, 107712, Note_on_c, 1, 57, 66
4, 107742, Note_on_c, 1, 57, 0
4, 107744, Note_on_c, 1, 60, 66
4, 107774, Note_on_c, 1, 60, 0
4, 107776, Note_on_c, 1, 65, 66
4, 107806, Note_on_c, 1, 65, 0
4, 107808, Note_on_c, 1, 57, 66
4, 107838, Note_on_c, 1, 57, 0
4, 107840, Note_on_c, 1, 60, 66
4, 107870, Note_on_c, 1, 60, 0
4, 107872, Note_on_c, 1, 65, 66
4, 107902, Note_on_c, 1, 65, 0
4, 107904, Note_on_c, 1, 58, 66
4, 107934, Note_on_c, 1, 58, 0
4, 107936, Note_on_c, 1, 62, 66
4, 107966, Note_on_c, 1, 62, 0
4, 107968, Note_on_c, 1, 65, 66
4, 107998, Note_on_c, 1, 65, 0
4, 108000, Note_on_c, 1, 58, 66
4, 108030, Note_on_c, 1, 58, 0
4, 108032, Note_on_c, 1, 62, 66
4, 108062, Note_on_c, 1, 62, 0
4, 108064, Note_on_c, 1, 65, 66
4, 108094, Note_on_c, 1, 65, 0
4, 108096, Note_on_c, 1, 60, 66
4, 108126, Note_on_c, 1, 60, 0
4, 108128, Note_on_c, 1, 63, 66
4, 108158, Note_on_c, 1, 63, 0
4, 108160, Note_on_c, 1, 65, 66
4, 108190, Note_on_c, 1, 65, 0
4, 108192, Note_on_c, 1, 60, 66
4, 108222, Note_on_c, 1, 60, 0
4, 108224, Note_on_c, 1, 63, 66
4, 108254, Note_on_c, 1, 63, 0
4, 108256, Note_on_c, 1, 65, 66
4, 108286, Note_on_c, 1, 65, 0
4, 108288, Note_on_c, 1, 58, 66
4, 108318, Note_on_c, 1, 58, 0
4, 108320, Note_on_c, 1, 62, 66
4, 108350, Note_on_c, 1, 62, 0
4, 108352, Note_on_c, 1, 65, 66
4, 108382, Note_on_c, 1, 65, 0
4, 108384, Note_on_c, 1, 58, 66
4, 108414, Note_on_c, 1, 58, 0
4, 108416, Note_on_c, 1, 62, 66
4, 108446, Note_on_c, 1, 62, 0
4, 108448, Note_on_c, 1, 65, 66
4, 108478, Note_on_c, 1, 65, 0
4, 108480, Note_on_c, 1, 57, 66
4, 108510, Note_on_c, 1, 57, 0
4, 108512, Note_on_c, 1, 60, 66
4, 108542, Note_on_c, 1, 60, 0
4, 108544, Note_on_c, 1, 65, 66
4, 108574, Note_on_c, 1, 65, 0
4, 108576, Note_on_c, 1, 57, 66
4, 108606, Note_on_c, 1, 57, 0
4, 108608, Note_on_c, 1, 60, 66
4, 108638, Note_on_c, 1, 60, 0
4, 108640, Note_on_c, 1, 65, 66
4, 108670, Note_on_c, 1, 65, 0
4, 108672, Note_on_c, 1, 58, 66
4, 108702, Note_on_c, 1, 58, 0
4, 108704, Note_on_c, 1, 62, 66
4, 108734, Note_on_c, 1, 62, 0
4, 108736, Note_on_c, 1, 65, 66
4, 108766, Note_on_c, 1, 65, 0
4, 108768, Note_on_c, 1, 58, 66
4, 108798, Note_on_c, 1, 58, 0
4, 108800, Note_on_c, 1, 62, 66
4, 108830, Note_on_c, 1, 62, 0
4, 108832, Note_on_c, 1, 65, 66
4, 108862, Note_on_c, 1, 65, 0
4, 108864, Note_on_c, 1, 60, 66
4, 108894, Note_on_c, 1, 60, 0
4, 108896, Note_on_c, 1, 63, 66
4, 108926, Note_on_c, 1, 63, 0
4, 108928, Note_on_c, 1, 65, 66
4, 108958, Note_on_c, 1, 65, 0
4, 108960, Note_on_c, 1, 60, 66
4, 108990, Note_on_c, 1, 60, 0
4, 108992, Note_on_c, 1, 63, 66
4, 109022, Note_on_c, 1, 63, 0
4, 109024, Note_on_c, 1, 65, 66
4, 109054, Note_on_c, 1, 65, 0
4, 109056, Note_on_c, 1, 58, 66
4, 109086, Note_on_c, 1, 58, 0
4, 109088, Note_on_c, 1, 62, 66
4, 109118, Note_on_c, 1, 62, 0
4, 109120, Note_on_c, 1, 65, 66
4, 109150, Note_on_c, 1, 65, 0
4, 109152, Note_on_c, 1, 58, 66
4, 109182, Note_on_c, 1, 58, 0
4, 109184, Note_on_c, 1, 62, 66
4, 109214, Note_on_c, 1, 62, 0
4, 109216, Note_on_c, 1, 65, 66
4, 109246, Note_on_c, 1, 65, 0
4, 109248, Note_on_c, 1, 57, 66
4, 109278, Note_on_c, 1, 57, 0
4, 109280, Note_on_c, 1, 60, 66
4, 109310, Note_on_c, 1, 60, 0
4, 109312, Note_on_c, 1, 65, 66
4, 109342, Note_on_c, 1, 65, 0
4, 109344, Note_on_c, 1, 57, 66
4, 109374, Note_on_c, 1, 57, 0
4, 109376, Note_on_c, 1, 60, 66
4, 109406, Note_on_c, 1, 60, 0
4, 109408, Note_on_c, 1, 65, 66
4, 109438, Note_on_c, 1, 65, 0
4, 109440, Note_on_c, 1, 58, 66
4, 109573, Note_on_c, 1, 58, 0
4, 109824, Note_on_c, 1, 58, 75
4, 109824, Note_on_c, 1, 53, 75
4, 109824, Note_on_c, 1, 50, 75
4, 109957, Note_on_c, 1, 58, 0
4, 109957, Note_on_c, 1, 53, 0
4, 109957, Note_on_c, 1, 50, 0
4, 110208, Note_on_c, 1, 58, 75
4, 110208, Note_on_c, 1, 55, 75
4, 110208, Note_on_c, 1, 51, 75
4, 110341, Note_on_c, 1, 58, 0
4, 110341, Note_on_c, 1, 55, 0
4, 110341, Note_on_c, 1, 51, 0
4, 110688, Note_on_c, 1, 62, 75
4, 110688, Note_on_c, 1, 58, 75
4, 110688, Note_on_c, 1, 53, 75
4, 110727, Note_on_c, 1, 62, 0
4, 110727, Note_on_c, 1, 58, 0
4, 110727, Note_on_c, 1, 53, 0
4, 110784, Note_on_c, 1, 62, 75
4, 110784, Note_on_c, 1, 58, 75
4, 110784, Note_on_c, 1, 53, 75
4, 110873, Note_on_c, 1, 62, 0
4, 110873, Note_on_c, 1, 58, 0
4, 110873, Note_on_c, 1, 53, 0
4, 110976, Note_on_c, 1, 62, 75
4, 110976, Note_on_c, 1, 58, 75
4, 110976, Note_on_c, 1, 53, 75
4, 111015, Note_on_c, 1, 62, 0
4, 111015, Note_on_c, 1, 58, 0
4, 111015, Note_on_c, 1, 53, 0
4, 111168, Note_on_c, 1, 62, 75
4, 111168, Note_on_c, 1, 58, 75
4, 111168, Note_on_c, 1, 53, 75
4, 111207, Note_on_c, 1, 62, 0
4, 111207, Note_on_c, 1, 58, 0
4, 111207, Note_on_c, 1, 53, 0
4, 111360, Note_on_c, 1, 62, 75
4, 111360, Note_on_c, 1, 58, 75
4, 111360, Note_on_c, 1, 53, 75
4, 111399, Note_on_c, 1, 62, 0
4, 111399, Note_on_c, 1, 58, 0
4, 111399, Note_on_c, 1, 53, 0
4, 111936, Note_on_c, 1, 52, 82
4, 111936, Note_on_c, 1, 40, 82
4, 112113, Note_on_c, 1, 52, 0
4, 112113, Note_on_c, 1, 40, 0
4, 112128, Note_on_c, 1, 53, 82
4, 112128, Note_on_c, 1, 48, 82
4, 112128, Note_on_c, 1, 45, 82
4, 112128, Note_on_c, 1, 41, 82
4, 112305, Note_on_c, 1, 53, 0
4, 112305, Note_on_c, 1, 48, 0
4, 112305, Note_on_c, 1, 45, 0
4, 112305, Note_on_c, 1, 41, 0
4, 112704, Note_on_c, 1, 63, 82
4, 112704, Note_on_c, 1, 60, 82
4, 112704, Note_on_c, 1, 57, 82
4, 112704, Note_on_c, 1, 53, 82
4, 112881, Note_on_c, 1, 63, 0
4, 112881, Note_on_c, 1, 60, 0
4, 112881, Note_on_c, 1, 57, 0
4, 112881, Note_on_c, 1, 53, 0
4, 112896, Note_on_c, 1, 58, 82
4, 112963, Note_on_c, 1, 58, 0
4, 112968, Note_on_c, 1, 62, 80
4, 112991, Note_on_c, 1, 62, 0
4, 112992, Note_on_c, 1, 57, 80
4, 113059, Note_on_c, 1, 57, 0
4, 113064, Note_on_c, 1, 60, 78
4, 113087, Note_on_c, 1, 60, 0
4, 113088, Note_on_c, 1, 55, 78
4, 113155, Note_on_c, 1, 55, 0
4, 113160, Note_on_c, 1, 58, 77
4, 113183, Note_on_c, 1, 58, 0
4, 113184, Note_on_c, 1, 53, 76
4, 113251, Note_on_c, 1, 53, 0
4, 113256, Note_on_c, 1, 57, 75
4, 113279, Note_on_c, 1, 57, 0
4, 113280, Note_on_c, 1, 51, 75
4, 113545, Note_on_c, 1, 51, 0
4, 113568, Note_on_c, 1, 63, 56
4, 113657, Note_on_c, 1, 63, 0
4, 113664, Note_on_c, 1, 62, 56
4, 113753, Note_on_c, 1, 62, 0
4, 113760, Note_on_c, 1, 63, 56
4, 113849, Note_on_c, 1, 63, 0
4, 113856, Note_on_c, 1, 65, 56
4, 113945, Note_on_c, 1, 65, 0
4, 113952, Note_on_c, 1, 53, 56
4, 114041, Note_on_c, 1, 53, 0
4, 114048, Note_on_c, 1, 58, 82
4, 114078, Note_on_c, 1, 58, 0
4, 114080, Note_on_c, 1, 60, 82
4, 114110, Note_on_c, 1, 60, 0
4, 114112, Note_on_c, 1, 62, 82
4, 114142, Note_on_c, 1, 62, 0
4, 114144, Note_on_c, 1, 57, 81
4, 114174, Note_on_c, 1, 57, 0
4, 114176, Note_on_c, 1, 58, 80
4, 114206, Note_on_c, 1, 58, 0
4, 114208, Note_on_c, 1, 60, 80
4, 114238, Note_on_c, 1, 60, 0
4, 114240, Note_on_c, 1, 55, 79
4, 114270, Note_on_c, 1, 55, 0
4, 114272, Note_on_c, 1, 57, 78
4, 114302, Note_on_c, 1, 57, 0
4, 114304, Note_on_c, 1, 58, 78
4, 114334, Note_on_c, 1, 58, 0
4, 114336, Note_on_c, 1, 53, 77
4, 114366, Note_on_c, 1, 53, 0
4, 114368, Note_on_c, 1, 55, 76
4, 114398, Note_on_c, 1, 55, 0
4, 114400, Note_on_c, 1, 57, 76
4, 114430, Note_on_c, 1, 57, 0
4, 114432, Note_on_c, 1, 51, 75
4, 114697, Note_on_c, 1, 51, 0
4, 114720, Note_on_c, 1, 63, 75
4, 114809, Note_on_c, 1, 63, 0
4, 114816, Note_on_c, 1, 62, 75
4, 114905, Note_on_c, 1, 62, 0
4, 114912, Note_on_c, 1, 63, 72
4, 115001, Note_on_c, 1, 63, 0
4, 115008, Note_on_c, 1, 62, 69
4, 115097, Note_on_c, 1, 62, 0
4, 115104, Note_on_c, 1, 60, 66
4, 115193, Note_on_c, 1, 60, 0
4, 115200, Note_on_c, 1, 62, 63
4, 115200, Note_on_c, 1, 58, 63
4, 115289, Note_on_c, 1, 62, 0
4, 115289, Note_on_c, 1, 58, 0
4, 115296, Note_on_c, 1, 62, 61
4, 115296, Note_on_c, 1, 58, 61
4, 115385, Note_on_c, 1, 62, 0
4, 115385, Note_on_c, 1, 58, 0
4, 115392, Note_on_c, 1, 62, 58
4, 115392, Note_on_c, 1, 58, 58
4, 115481, Note_on_c, 1, 62, 0
4, 115481, Note_on_c, 1, 58, 0
4, 115488, Note_on_c, 1, 62, 55
4, 115488, Note_on_c, 1, 58, 55
4, 115577, Note_on_c, 1, 62, 0
4, 115577, Note_on_c, 1, 58, 0
4, 115584, Note_on_c, 1, 62, 52
4, 115584, Note_on_c, 1, 58, 52
4, 115678, Note_on_c, 1, 62, 0
4, 115678, Note_on_c, 1, 58, 0
4, 115968, Note_on_c, 1, 58, 0
4, 116057, Note_on_c, 1, 58, 0
4, 116064, End_track
5, 0, Start_track
5, 0, Program_c, 1, 0
5, 0, Control_c, 1, 7, 127
5, 0, Control_c, 1, 10, 64
5, 1248, Note_on_c, 1, 54, 64
5, 1344, Note_on_c, 1, 54, 0
5, 1344, Note_on_c, 1, 55, 64
5, 1521, Note_on_c, 1, 55, 0
5, 1632, Note_on_c, 1, 69, 64
5, 1632, Note_on_c, 1, 63, 64
5, 1728, Note_on_c, 1, 69, 0
5, 1728, Note_on_c, 1, 63, 0
5, 1728, Note_on_c, 1, 70, 64
5, 1728, Note_on_c, 1, 62, 64
5, 1905, Note_on_c, 1, 70, 0
5, 1905, Note_on_c, 1, 62, 0
5, 3072, Note_on_c, 1, 46, 64
5, 3072, Note_on_c, 1, 34, 64
5, 3249, Note_on_c, 1, 46, 0
5, 3249, Note_on_c, 1, 34, 0
5, 3528, Note_on_c, 1, 52, 64
5, 3551, Note_on_c, 1, 52, 0
5, 3552, Note_on_c, 1, 53, 64
5, 3619, Note_on_c, 1, 53, 0
5, 3624, Note_on_c, 1, 52, 64
5, 3647, Note_on_c, 1, 52, 0
5, 3648, Note_on_c, 1, 53, 64
5, 3737, Note_on_c, 1, 53, 0
5, 4896, Note_on_c, 1, 58, 64
5, 5465, Note_on_c, 1, 58, 0
5, 5664, Note_on_c, 1, 58, 64
5, 6114, Note_on_c, 1, 58, 0
5, 20064, Note_on_c, 1, 58, 64
5, 20153, Note_on_c, 1, 58, 0
5, 20160, Note_on_c, 1, 60, 64
5, 20337, Note_on_c, 1, 60, 0
5, 22368, Note_on_c, 1, 54, 64
5, 22464, Note_on_c, 1, 54, 0
5, 22464, Note_on_c, 1, 55, 64
5, 22641, Note_on_c, 1, 55, 0
5, 22752, Note_on_c, 1, 69, 64
5, 22752, Note_on_c, 1, 63, 64
5, 22848, Note_on_c, 1, 69, 0
5, 22848, Note_on_c, 1, 63, 0
5, 22848, Note_on_c, 1, 70, 64
5, 22848, Note_on_c, 1, 62, 64
5, 23025, Note_on_c, 1, 70, 0
5, 23025, Note_on_c, 1, 62, 0
5, 24192, Note_on_c, 1, 46, 64
5, 24192, Note_on_c, 1, 34, 64
5, 24369, Note_on_c, 1, 46, 0
5, 24369, Note_on_c, 1, 34, 0
5, 24648, Note_on_c, 1, 52, 64
5, 24671, Note_on_c, 1, 52, 0
5, 24672, Note_on_c, 1, 53, 64
5, 24739, Note_on_c, 1, 53, 0
5, 24744, Note_on_c, 1, 52, 64
5, 24767, Note_on_c, 1, 52, 0
5, 24768, Note_on_c, 1, 53, 64
5, 24857, Note_on_c, 1, 53, 0
5, 26016, Note_on_c, 1, 58, 64
5, 26585, Note_on_c, 1, 58, 0
5, 26784, Note_on_c, 1, 58, 64
5, 27234, Note_on_c, 1, 58, 0
5, 41184, Note_on_c, 1, 58, 64
5, 41273, Note_on_c, 1, 58, 0
5, 41280, Note_on_c, 1, 60, 64
5, 41457, Note_on_c, 1, 60, 0
5, 45024, Note_on_c, 1, 59, 64
5, 45120, Note_on_c, 1, 59, 0
5, 45120, Note_on_c, 1, 60, 64
5, 45297, Note_on_c, 1, 60, 0
5, 45408, Note_on_c, 1, 62, 64
5, 45504, Note_on_c, 1, 62, 0
5, 45504, Note_on_c, 1, 63, 64
5, 45681, Note_on_c, 1, 63, 0
5, 59232, Note_on_c, 1, 54, 64
5, 59328, Note_on_c, 1, 54, 0
5, 59328, Note_on_c, 1, 55, 64
5, 59505, Note_on_c, 1, 55, 0
5, 59616, Note_on_c, 1, 69, 64
5, 59616, Note_on_c, 1, 63, 64
5, 59712, Note_on_c, 1, 69, 0
5, 59712, Note_on_c, 1, 63, 0
5, 59712, Note_on_c, 1, 70, 64
5, 59712, Note_on_c, 1, 62, 64
5, 59889, Note_on_c, 1, 70, 0
5, 59889, Note_on_c, 1, 62, 0
5, 61056, Note_on_c, 1, 46, 64
5, 61056, Note_on_c, 1, 34, 64
5, 61233, Note_on_c, 1, 46, 0
5, 61233, Note_on_c, 1, 34, 0
5, 61512, Note_on_c, 1, 52, 64
5, 61535, Note_on_c, 1, 52, 0
5, 61536, Note_on_c, 1, 53, 64
5, 61603, Note_on_c, 1, 53, 0
5, 61608, Note_on_c, 1, 52, 64
5, 61631, Note_on_c, 1, 52, 0
5, 61632, Note_on_c, 1, 53, 64
5, 61721, Note_on_c, 1, 53, 0
5, 62880, Note_on_c, 1, 58, 64
5, 63449, Note_on_c, 1, 58, 0
5, 63648, Note_on_c, 1, 58, 64
5, 64098, Note_on_c, 1, 58, 0
5, 78144, Note_on_c, 1, 53, 64
5, 78321, Note_on_c, 1, 53, 0
5, 81888, Note_on_c, 1, 59, 64
5, 81984, Note_on_c, 1, 59, 0
5, 81984, Note_on_c, 1, 60, 64
5, 82161, Note_on_c, 1, 60, 0
5, 82272, Note_on_c, 1, 62, 64
5, 82368, Note_on_c, 1, 62, 0
5, 82368, Note_on_c, 1, 63, 64
5, 82545, Note_on_c, 1, 63, 0
5, 96096, Note_on_c, 1, 54, 64
5, 96192, Note_on_c, 1, 54, 0
5, 96192, Note_on_c, 1, 55, 64
5, 96369, Note_on_c, 1, 55, 0
5, 96480, Note_on_c, 1, 69, 64
5, 96480, Note_on_c, 1, 63, 64
5, 96576, Note_on_c, 1, 69, 0
5, 96576, Note_on_c, 1, 63, 0
5, 96576, Note_on_c, 1, 70, 64
5, 96576, Note_on_c, 1, 62, 64
5, 96753, Note_on_c, 1, 70, 0
5, 96753, Note_on_c, 1, 62, 0
5, 97920, Note_on_c, 1, 46, 64
5, 97920, Note_on_c, 1, 34, 64
5, 98097, Note_on_c, 1, 46, 0
5, 98097, Note_on_c, 1, 34, 0
5, 98376, Note_on_c, 1, 52, 64
5, 98399, Note_on_c, 1, 52, 0
5, 98400, Note_on_c, 1, 53, 64
5, 98467, Note_on_c, 1, 53, 0
5, 98472, Note_on_c, 1, 52, 64
5, 98495, Note_on_c, 1, 52, 0
5, 98496, Note_on_c, 1, 53, 64
5, 98585, Note_on_c, 1, 53, 0
5, 99744, Note_on_c, 1, 58, 64
5, 100313, Note_on_c, 1, 58, 0
5, 100512, Note_on_c, 1, 58, 64
5, 100962, Note_on_c, 1, 58, 0
5, 115008, Note_on_c, 1, 53, 64
5, 115185, Note_on_c, 1, 53, 0
5, 115968, End_track
6, 0, Start_track
6, 0, Title_t, "Sonata II   Haydn  "
6, 0, End_track
0, 0, End_of_file
