0, 0, Header, 1, 6, 96
1, 0, Start_track
1, 0, Copyright_t, "Copyright  1994-2002 Mozart Music Software"
1, 0, Text_t, "Piano Solo\015\012"
1, 0, Text_t, "<composer>\015\012"
1, 0, Sequencer_specific, 16, 68, 87, 77, 90, 86, 82, 83, 78, 32, 55, 46, 48, 46, 55, 46, 48
1, 0, Time_signature, 3, 2, 24, 8
1, 0, Tempo, 120000
1, 0, Key_signature, 0, "major"
1, 192, Tempo, 461538
1, 2496, Tempo, 461538
1, 14016, Key_signature, -2, "major"
1, 16896, Key_signature, -2, "major"
1, 28992, Key_signature, 0, "major"
1, 31296, Key_signature, 0, "major"
1, 42912, End_track
2, 0, Start_track
2, 0, Program_c, 0, 0
2, 0, Control_c, 0, 7, 127
2, 0, Control_c, 0, 10, 64
2, 192, Note_on_c, 0, 76, 75
2, 215, Note_on_c, 0, 76, 0
2, 216, Note_on_c, 0, 74, 75
2, 239, Note_on_c, 0, 74, 0
2, 240, Note_on_c, 0, 76, 75
2, 263, Note_on_c, 0, 76, 0
2, 264, Note_on_c, 0, 77, 75
2, 287, Note_on_c, 0, 77, 0
2, 288, Note_on_c, 0, 79, 91
2, 384, Note_on_c, 0, 79, 0
2, 384, Note_on_c, 0, 72, 75
2, 473, Note_on_c, 0, 72, 0
2, 480, Note_on_c, 0, 72, 75
2, 569, Note_on_c, 0, 72, 0
2, 576, Note_on_c, 0, 74, 70
2, 591, Note_on_c, 0, 74, 0
2, 592, Note_on_c, 0, 72, 70
2, 607, Note_on_c, 0, 72, 0
2, 608, Note_on_c, 0, 74, 70
2, 623, Note_on_c, 0, 74, 0
2, 624, Note_on_c, 0, 72, 70
2, 639, Note_on_c, 0, 72, 0
2, 640, Note_on_c, 0, 74, 70
2, 655, Note_on_c, 0, 74, 0
2, 656, Note_on_c, 0, 72, 70
2, 671, Note_on_c, 0, 72, 0
2, 672, Note_on_c, 0, 74, 70
2, 687, Note_on_c, 0, 74, 0
2, 688, Note_on_c, 0, 72, 70
2, 703, Note_on_c, 0, 72, 0
2, 704, Note_on_c, 0, 74, 70
2, 719, Note_on_c, 0, 74, 0
2, 720, Note_on_c, 0, 72, 70
2, 767, Note_on_c, 0, 72, 0
2, 768, Note_on_c, 0, 84, 75
2, 857, Note_on_c, 0, 84, 0
2, 864, Note_on_c, 0, 83, 75
2, 879, Note_on_c, 0, 83, 0
2, 880, Note_on_c, 0, 81, 75
2, 895, Note_on_c, 0, 81, 0
2, 896, Note_on_c, 0, 83, 75
2, 911, Note_on_c, 0, 83, 0
2, 912, Note_on_c, 0, 81, 75
2, 927, Note_on_c, 0, 81, 0
2, 928, Note_on_c, 0, 79, 75
2, 943, Note_on_c, 0, 79, 0
2, 944, Note_on_c, 0, 81, 75
2, 959, Note_on_c, 0, 81, 0
2, 960, Note_on_c, 0, 79, 75
2, 1049, Note_on_c, 0, 79, 0
2, 1056, Note_on_c, 0, 84, 75
2, 1145, Note_on_c, 0, 84, 0
2, 1152, Note_on_c, 0, 79, 75
2, 1167, Note_on_c, 0, 79, 0
2, 1168, Note_on_c, 0, 77, 75
2, 1183, Note_on_c, 0, 77, 0
2, 1184, Note_on_c, 0, 79, 75
2, 1199, Note_on_c, 0, 79, 0
2, 1200, Note_on_c, 0, 77, 75
2, 1215, Note_on_c, 0, 77, 0
2, 1216, Note_on_c, 0, 76, 75
2, 1231, Note_on_c, 0, 76, 0
2, 1232, Note_on_c, 0, 77, 75
2, 1247, Note_on_c, 0, 77, 0
2, 1248, Note_on_c, 0, 76, 75
2, 1337, Note_on_c, 0, 76, 0
2, 1344, Note_on_c, 0, 76, 75
2, 1367, Note_on_c, 0, 76, 0
2, 1368, Note_on_c, 0, 74, 75
2, 1391, Note_on_c, 0, 74, 0
2, 1392, Note_on_c, 0, 76, 75
2, 1415, Note_on_c, 0, 76, 0
2, 1416, Note_on_c, 0, 78, 75
2, 1439, Note_on_c, 0, 78, 0
2, 1440, Note_on_c, 0, 79, 91
2, 1536, Note_on_c, 0, 79, 0
2, 1536, Note_on_c, 0, 74, 75
2, 1625, Note_on_c, 0, 74, 0
2, 1632, Note_on_c, 0, 76, 75
2, 1655, Note_on_c, 0, 76, 0
2, 1656, Note_on_c, 0, 74, 75
2, 1679, Note_on_c, 0, 74, 0
2, 1680, Note_on_c, 0, 76, 75
2, 1703, Note_on_c, 0, 76, 0
2, 1704, Note_on_c, 0, 78, 75
2, 1727, Note_on_c, 0, 78, 0
2, 1728, Note_on_c, 0, 79, 91
2, 1824, Note_on_c, 0, 79, 0
2, 1824, Note_on_c, 0, 83, 75
2, 1854, Note_on_c, 0, 83, 0
2, 1856, Note_on_c, 0, 81, 75
2, 1886, Note_on_c, 0, 81, 0
2, 1888, Note_on_c, 0, 79, 75
2, 1918, Note_on_c, 0, 79, 0
2, 1920, Note_on_c, 0, 78, 75
2, 1950, Note_on_c, 0, 78, 0
2, 1952, Note_on_c, 0, 76, 75
2, 1982, Note_on_c, 0, 76, 0
2, 1984, Note_on_c, 0, 74, 75
2, 2014, Note_on_c, 0, 74, 0
2, 2016, Note_on_c, 0, 76, 75
2, 2046, Note_on_c, 0, 76, 0
2, 2048, Note_on_c, 0, 74, 75
2, 2078, Note_on_c, 0, 74, 0
2, 2080, Note_on_c, 0, 72, 75
2, 2110, Note_on_c, 0, 72, 0
2, 2112, Note_on_c, 0, 71, 75
2, 2201, Note_on_c, 0, 71, 0
2, 2208, Note_on_c, 0, 71, 75
2, 2223, Note_on_c, 0, 71, 0
2, 2224, Note_on_c, 0, 69, 75
2, 2239, Note_on_c, 0, 69, 0
2, 2240, Note_on_c, 0, 71, 75
2, 2255, Note_on_c, 0, 71, 0
2, 2256, Note_on_c, 0, 69, 75
2, 2271, Note_on_c, 0, 69, 0
2, 2272, Note_on_c, 0, 67, 75
2, 2287, Note_on_c, 0, 67, 0
2, 2288, Note_on_c, 0, 69, 75
2, 2303, Note_on_c, 0, 69, 0
2, 2304, Note_on_c, 0, 67, 75
2, 2481, Note_on_c, 0, 67, 0
2, 2496, Note_on_c, 0, 76, 75
2, 2519, Note_on_c, 0, 76, 0
2, 2520, Note_on_c, 0, 74, 75
2, 2543, Note_on_c, 0, 74, 0
2, 2544, Note_on_c, 0, 76, 75
2, 2567, Note_on_c, 0, 76, 0
2, 2568, Note_on_c, 0, 77, 75
2, 2591, Note_on_c, 0, 77, 0
2, 2592, Note_on_c, 0, 79, 91
2, 2688, Note_on_c, 0, 79, 0
2, 2688, Note_on_c, 0, 72, 75
2, 2777, Note_on_c, 0, 72, 0
2, 2784, Note_on_c, 0, 72, 75
2, 2873, Note_on_c, 0, 72, 0
2, 2880, Note_on_c, 0, 74, 70
2, 2895, Note_on_c, 0, 74, 0
2, 2896, Note_on_c, 0, 72, 70
2, 2911, Note_on_c, 0, 72, 0
2, 2912, Note_on_c, 0, 74, 70
2, 2927, Note_on_c, 0, 74, 0
2, 2928, Note_on_c, 0, 72, 70
2, 2943, Note_on_c, 0, 72, 0
2, 2944, Note_on_c, 0, 74, 70
2, 2959, Note_on_c, 0, 74, 0
2, 2960, Note_on_c, 0, 72, 70
2, 2975, Note_on_c, 0, 72, 0
2, 2976, Note_on_c, 0, 74, 70
2, 2991, Note_on_c, 0, 74, 0
2, 2992, Note_on_c, 0, 72, 70
2, 3007, Note_on_c, 0, 72, 0
2, 3008, Note_on_c, 0, 74, 70
2, 3023, Note_on_c, 0, 74, 0
2, 3024, Note_on_c, 0, 72, 70
2, 3071, Note_on_c, 0, 72, 0
2, 3072, Note_on_c, 0, 84, 75
2, 3161, Note_on_c, 0, 84, 0
2, 3168, Note_on_c, 0, 83, 75
2, 3183, Note_on_c, 0, 83, 0
2, 3184, Note_on_c, 0, 81, 75
2, 3199, Note_on_c, 0, 81, 0
2, 3200, Note_on_c, 0, 83, 75
2, 3215, Note_on_c, 0, 83, 0
2, 3216, Note_on_c, 0, 81, 75
2, 3231, Note_on_c, 0, 81, 0
2, 3232, Note_on_c, 0, 79, 75
2, 3247, Note_on_c, 0, 79, 0
2, 3248, Note_on_c, 0, 81, 75
2, 3263, Note_on_c, 0, 81, 0
2, 3264, Note_on_c, 0, 79, 75
2, 3353, Note_on_c, 0, 79, 0
2, 3360, Note_on_c, 0, 84, 75
2, 3449, Note_on_c, 0, 84, 0
2, 3456, Note_on_c, 0, 79, 75
2, 3471, Note_on_c, 0, 79, 0
2, 3472, Note_on_c, 0, 77, 75
2, 3487, Note_on_c, 0, 77, 0
2, 3488, Note_on_c, 0, 79, 75
2, 3503, Note_on_c, 0, 79, 0
2, 3504, Note_on_c, 0, 77, 75
2, 3519, Note_on_c, 0, 77, 0
2, 3520, Note_on_c, 0, 76, 75
2, 3535, Note_on_c, 0, 76, 0
2, 3536, Note_on_c, 0, 77, 75
2, 3551, Note_on_c, 0, 77, 0
2, 3552, Note_on_c, 0, 76, 75
2, 3641, Note_on_c, 0, 76, 0
2, 3648, Note_on_c, 0, 76, 75
2, 3671, Note_on_c, 0, 76, 0
2, 3672, Note_on_c, 0, 74, 75
2, 3695, Note_on_c, 0, 74, 0
2, 3696, Note_on_c, 0, 76, 75
2, 3719, Note_on_c, 0, 76, 0
2, 3720, Note_on_c, 0, 78, 75
2, 3743, Note_on_c, 0, 78, 0
2, 3744, Note_on_c, 0, 79, 91
2, 3840, Note_on_c, 0, 79, 0
2, 3840, Note_on_c, 0, 74, 75
2, 3929, Note_on_c, 0, 74, 0
2, 3936, Note_on_c, 0, 76, 75
2, 3959, Note_on_c, 0, 76, 0
2, 3960, Note_on_c, 0, 74, 75
2, 3983, Note_on_c, 0, 74, 0
2, 3984, Note_on_c, 0, 76, 75
2, 4007, Note_on_c, 0, 76, 0
2, 4008, Note_on_c, 0, 78, 75
2, 4031, Note_on_c, 0, 78, 0
2, 4032, Note_on_c, 0, 79, 91
2, 4128, Note_on_c, 0, 79, 0
2, 4128, Note_on_c, 0, 83, 75
2, 4158, Note_on_c, 0, 83, 0
2, 4160, Note_on_c, 0, 81, 75
2, 4190, Note_on_c, 0, 81, 0
2, 4192, Note_on_c, 0, 79, 75
2, 4222, Note_on_c, 0, 79, 0
2, 4224, Note_on_c, 0, 78, 75
2, 4254, Note_on_c, 0, 78, 0
2, 4256, Note_on_c, 0, 76, 75
2, 4286, Note_on_c, 0, 76, 0
2, 4288, Note_on_c, 0, 74, 75
2, 4318, Note_on_c, 0, 74, 0
2, 4320, Note_on_c, 0, 76, 75
2, 4350, Note_on_c, 0, 76, 0
2, 4352, Note_on_c, 0, 74, 75
2, 4382, Note_on_c, 0, 74, 0
2, 4384, Note_on_c, 0, 72, 75
2, 4414, Note_on_c, 0, 72, 0
2, 4416, Note_on_c, 0, 71, 75
2, 4505, Note_on_c, 0, 71, 0
2, 4512, Note_on_c, 0, 71, 75
2, 4527, Note_on_c, 0, 71, 0
2, 4528, Note_on_c, 0, 69, 75
2, 4543, Note_on_c, 0, 69, 0
2, 4544, Note_on_c, 0, 71, 75
2, 4559, Note_on_c, 0, 71, 0
2, 4560, Note_on_c, 0, 69, 75
2, 4575, Note_on_c, 0, 69, 0
2, 4576, Note_on_c, 0, 67, 75
2, 4591, Note_on_c, 0, 67, 0
2, 4592, Note_on_c, 0, 69, 75
2, 4607, Note_on_c, 0, 69, 0
2, 4608, Note_on_c, 0, 67, 75
2, 4785, Note_on_c, 0, 67, 0
2, 4800, Note_on_c, 0, 79, 70
2, 4823, Note_on_c, 0, 79, 0
2, 4824, Note_on_c, 0, 81, 70
2, 4847, Note_on_c, 0, 81, 0
2, 4848, Note_on_c, 0, 82, 70
2, 4871, Note_on_c, 0, 82, 0
2, 4872, Note_on_c, 0, 84, 70
2, 4895, Note_on_c, 0, 84, 0
2, 4896, Note_on_c, 0, 82, 70
2, 4985, Note_on_c, 0, 82, 0
2, 4992, Note_on_c, 0, 73, 70
2, 5081, Note_on_c, 0, 73, 0
2, 5088, Note_on_c, 0, 73, 70
2, 5177, Note_on_c, 0, 73, 0
2, 5184, Note_on_c, 0, 73, 70
2, 5280, Note_on_c, 0, 73, 0
2, 5280, Note_on_c, 0, 74, 70
2, 5369, Note_on_c, 0, 74, 0
2, 5376, Note_on_c, 0, 77, 70
2, 5399, Note_on_c, 0, 77, 0
2, 5400, Note_on_c, 0, 76, 70
2, 5423, Note_on_c, 0, 76, 0
2, 5424, Note_on_c, 0, 77, 70
2, 5447, Note_on_c, 0, 77, 0
2, 5448, Note_on_c, 0, 79, 70
2, 5471, Note_on_c, 0, 79, 0
2, 5472, Note_on_c, 0, 81, 70
2, 5561, Note_on_c, 0, 81, 0
2, 5568, Note_on_c, 0, 71, 70
2, 5657, Note_on_c, 0, 71, 0
2, 5664, Note_on_c, 0, 71, 70
2, 5753, Note_on_c, 0, 71, 0
2, 5760, Note_on_c, 0, 71, 70
2, 5856, Note_on_c, 0, 71, 0
2, 5856, Note_on_c, 0, 72, 70
2, 5945, Note_on_c, 0, 72, 0
2, 5952, Note_on_c, 0, 67, 70
2, 5975, Note_on_c, 0, 67, 0
2, 5976, Note_on_c, 0, 72, 70
2, 5999, Note_on_c, 0, 72, 0
2, 6000, Note_on_c, 0, 76, 70
2, 6023, Note_on_c, 0, 76, 0
2, 6024, Note_on_c, 0, 79, 70
2, 6047, Note_on_c, 0, 79, 0
2, 6048, Note_on_c, 0, 67, 71
2, 6144, Note_on_c, 0, 67, 0
2, 6144, Note_on_c, 0, 65, 72
2, 6233, Note_on_c, 0, 65, 0
2, 6240, Note_on_c, 0, 65, 73
2, 6263, Note_on_c, 0, 65, 0
2, 6264, Note_on_c, 0, 71, 73
2, 6287, Note_on_c, 0, 71, 0
2, 6288, Note_on_c, 0, 74, 73
2, 6311, Note_on_c, 0, 74, 0
2, 6312, Note_on_c, 0, 77, 74
2, 6335, Note_on_c, 0, 77, 0
2, 6336, Note_on_c, 0, 65, 74
2, 6432, Note_on_c, 0, 65, 0
2, 6432, Note_on_c, 0, 64, 75
2, 6521, Note_on_c, 0, 64, 0
2, 6528, Note_on_c, 0, 67, 76
2, 6551, Note_on_c, 0, 67, 0
2, 6552, Note_on_c, 0, 72, 76
2, 6575, Note_on_c, 0, 72, 0
2, 6576, Note_on_c, 0, 76, 77
2, 6599, Note_on_c, 0, 76, 0
2, 6600, Note_on_c, 0, 79, 77
2, 6623, Note_on_c, 0, 79, 0
2, 6624, Note_on_c, 0, 67, 77
2, 6720, Note_on_c, 0, 67, 0
2, 6720, Note_on_c, 0, 65, 78
2, 6809, Note_on_c, 0, 65, 0
2, 6816, Note_on_c, 0, 64, 79
2, 6905, Note_on_c, 0, 64, 0
2, 6912, Note_on_c, 0, 65, 81
2, 6927, Note_on_c, 0, 65, 0
2, 6928, Note_on_c, 0, 64, 81
2, 6943, Note_on_c, 0, 64, 0
2, 6944, Note_on_c, 0, 65, 81
2, 6959, Note_on_c, 0, 65, 0
2, 6960, Note_on_c, 0, 64, 81
2, 6975, Note_on_c, 0, 64, 0
2, 6976, Note_on_c, 0, 62, 81
2, 6991, Note_on_c, 0, 62, 0
2, 6992, Note_on_c, 0, 64, 81
2, 7007, Note_on_c, 0, 64, 0
2, 7008, Note_on_c, 0, 62, 81
2, 7097, Note_on_c, 0, 62, 0
2, 7104, Note_on_c, 0, 76, 75
2, 7127, Note_on_c, 0, 76, 0
2, 7128, Note_on_c, 0, 74, 75
2, 7151, Note_on_c, 0, 74, 0
2, 7152, Note_on_c, 0, 76, 75
2, 7175, Note_on_c, 0, 76, 0
2, 7176, Note_on_c, 0, 77, 75
2, 7199, Note_on_c, 0, 77, 0
2, 7200, Note_on_c, 0, 79, 75
2, 7289, Note_on_c, 0, 79, 0
2, 7296, Note_on_c, 0, 72, 75
2, 7385, Note_on_c, 0, 72, 0
2, 7392, Note_on_c, 0, 72, 75
2, 7481, Note_on_c, 0, 72, 0
2, 7488, Note_on_c, 0, 74, 70
2, 7503, Note_on_c, 0, 74, 0
2, 7504, Note_on_c, 0, 72, 70
2, 7519, Note_on_c, 0, 72, 0
2, 7520, Note_on_c, 0, 74, 70
2, 7535, Note_on_c, 0, 74, 0
2, 7536, Note_on_c, 0, 72, 70
2, 7551, Note_on_c, 0, 72, 0
2, 7552, Note_on_c, 0, 74, 70
2, 7567, Note_on_c, 0, 74, 0
2, 7568, Note_on_c, 0, 72, 70
2, 7583, Note_on_c, 0, 72, 0
2, 7584, Note_on_c, 0, 74, 70
2, 7599, Note_on_c, 0, 74, 0
2, 7600, Note_on_c, 0, 72, 70
2, 7615, Note_on_c, 0, 72, 0
2, 7616, Note_on_c, 0, 74, 70
2, 7631, Note_on_c, 0, 74, 0
2, 7632, Note_on_c, 0, 72, 70
2, 7679, Note_on_c, 0, 72, 0
2, 7680, Note_on_c, 0, 84, 75
2, 7769, Note_on_c, 0, 84, 0
2, 7776, Note_on_c, 0, 83, 75
2, 7791, Note_on_c, 0, 83, 0
2, 7792, Note_on_c, 0, 81, 75
2, 7807, Note_on_c, 0, 81, 0
2, 7808, Note_on_c, 0, 83, 75
2, 7823, Note_on_c, 0, 83, 0
2, 7824, Note_on_c, 0, 81, 75
2, 7839, Note_on_c, 0, 81, 0
2, 7840, Note_on_c, 0, 79, 75
2, 7855, Note_on_c, 0, 79, 0
2, 7856, Note_on_c, 0, 81, 75
2, 7871, Note_on_c, 0, 81, 0
2, 7872, Note_on_c, 0, 79, 75
2, 7961, Note_on_c, 0, 79, 0
2, 7968, Note_on_c, 0, 84, 75
2, 8057, Note_on_c, 0, 84, 0
2, 8064, Note_on_c, 0, 79, 75
2, 8079, Note_on_c, 0, 79, 0
2, 8080, Note_on_c, 0, 77, 75
2, 8095, Note_on_c, 0, 77, 0
2, 8096, Note_on_c, 0, 79, 75
2, 8111, Note_on_c, 0, 79, 0
2, 8112, Note_on_c, 0, 77, 75
2, 8127, Note_on_c, 0, 77, 0
2, 8128, Note_on_c, 0, 76, 75
2, 8143, Note_on_c, 0, 76, 0
2, 8144, Note_on_c, 0, 77, 75
2, 8159, Note_on_c, 0, 77, 0
2, 8160, Note_on_c, 0, 76, 75
2, 8249, Note_on_c, 0, 76, 0
2, 8256, Note_on_c, 0, 81, 75
2, 8279, Note_on_c, 0, 81, 0
2, 8280, Note_on_c, 0, 79, 75
2, 8303, Note_on_c, 0, 79, 0
2, 8304, Note_on_c, 0, 81, 75
2, 8327, Note_on_c, 0, 81, 0
2, 8328, Note_on_c, 0, 83, 75
2, 8351, Note_on_c, 0, 83, 0
2, 8352, Note_on_c, 0, 84, 75
2, 8441, Note_on_c, 0, 84, 0
2, 8448, Note_on_c, 0, 79, 75
2, 8537, Note_on_c, 0, 79, 0
2, 8544, Note_on_c, 0, 81, 75
2, 8567, Note_on_c, 0, 81, 0
2, 8568, Note_on_c, 0, 79, 75
2, 8591, Note_on_c, 0, 79, 0
2, 8592, Note_on_c, 0, 81, 75
2, 8615, Note_on_c, 0, 81, 0
2, 8616, Note_on_c, 0, 83, 75
2, 8639, Note_on_c, 0, 83, 0
2, 8640, Note_on_c, 0, 84, 75
2, 8729, Note_on_c, 0, 84, 0
2, 8736, Note_on_c, 0, 84, 75
2, 8766, Note_on_c, 0, 84, 0
2, 8768, Note_on_c, 0, 83, 75
2, 8798, Note_on_c, 0, 83, 0
2, 8800, Note_on_c, 0, 81, 75
2, 8830, Note_on_c, 0, 81, 0
2, 8832, Note_on_c, 0, 79, 75
2, 8862, Note_on_c, 0, 79, 0
2, 8864, Note_on_c, 0, 77, 75
2, 8894, Note_on_c, 0, 77, 0
2, 8896, Note_on_c, 0, 76, 75
2, 8926, Note_on_c, 0, 76, 0
2, 8928, Note_on_c, 0, 74, 75
2, 8958, Note_on_c, 0, 74, 0
2, 8960, Note_on_c, 0, 77, 75
2, 8990, Note_on_c, 0, 77, 0
2, 8992, Note_on_c, 0, 81, 75
2, 9022, Note_on_c, 0, 81, 0
2, 9024, Note_on_c, 0, 72, 75
2, 9113, Note_on_c, 0, 72, 0
2, 9120, Note_on_c, 0, 72, 75
2, 9135, Note_on_c, 0, 72, 0
2, 9136, Note_on_c, 0, 71, 75
2, 9151, Note_on_c, 0, 71, 0
2, 9152, Note_on_c, 0, 72, 75
2, 9167, Note_on_c, 0, 72, 0
2, 9168, Note_on_c, 0, 71, 75
2, 9183, Note_on_c, 0, 71, 0
2, 9184, Note_on_c, 0, 69, 75
2, 9199, Note_on_c, 0, 69, 0
2, 9200, Note_on_c, 0, 71, 75
2, 9215, Note_on_c, 0, 71, 0
2, 9216, Note_on_c, 0, 72, 75
2, 9393, Note_on_c, 0, 72, 0
2, 9408, Note_on_c, 0, 79, 70
2, 9431, Note_on_c, 0, 79, 0
2, 9432, Note_on_c, 0, 81, 70
2, 9455, Note_on_c, 0, 81, 0
2, 9456, Note_on_c, 0, 82, 70
2, 9479, Note_on_c, 0, 82, 0
2, 9480, Note_on_c, 0, 84, 70
2, 9503, Note_on_c, 0, 84, 0
2, 9504, Note_on_c, 0, 82, 70
2, 9593, Note_on_c, 0, 82, 0
2, 9600, Note_on_c, 0, 73, 70
2, 9689, Note_on_c, 0, 73, 0
2, 9696, Note_on_c, 0, 73, 70
2, 9785, Note_on_c, 0, 73, 0
2, 9792, Note_on_c, 0, 73, 70
2, 9888, Note_on_c, 0, 73, 0
2, 9888, Note_on_c, 0, 74, 70
2, 9977, Note_on_c, 0, 74, 0
2, 9984, Note_on_c, 0, 77, 70
2, 10007, Note_on_c, 0, 77, 0
2, 10008, Note_on_c, 0, 76, 70
2, 10031, Note_on_c, 0, 76, 0
2, 10032, Note_on_c, 0, 77, 70
2, 10055, Note_on_c, 0, 77, 0
2, 10056, Note_on_c, 0, 79, 70
2, 10079, Note_on_c, 0, 79, 0
2, 10080, Note_on_c, 0, 81, 70
2, 10169, Note_on_c, 0, 81, 0
2, 10176, Note_on_c, 0, 71, 70
2, 10265, Note_on_c, 0, 71, 0
2, 10272, Note_on_c, 0, 71, 70
2, 10361, Note_on_c, 0, 71, 0
2, 10368, Note_on_c, 0, 71, 70
2, 10464, Note_on_c, 0, 71, 0
2, 10464, Note_on_c, 0, 72, 70
2, 10553, Note_on_c, 0, 72, 0
2, 10560, Note_on_c, 0, 67, 70
2, 10583, Note_on_c, 0, 67, 0
2, 10584, Note_on_c, 0, 72, 70
2, 10607, Note_on_c, 0, 72, 0
2, 10608, Note_on_c, 0, 76, 70
2, 10631, Note_on_c, 0, 76, 0
2, 10632, Note_on_c, 0, 79, 70
2, 10655, Note_on_c, 0, 79, 0
2, 10656, Note_on_c, 0, 67, 71
2, 10752, Note_on_c, 0, 67, 0
2, 10752, Note_on_c, 0, 65, 72
2, 10841, Note_on_c, 0, 65, 0
2, 10848, Note_on_c, 0, 65, 73
2, 10871, Note_on_c, 0, 65, 0
2, 10872, Note_on_c, 0, 71, 73
2, 10895, Note_on_c, 0, 71, 0
2, 10896, Note_on_c, 0, 74, 73
2, 10919, Note_on_c, 0, 74, 0
2, 10920, Note_on_c, 0, 77, 74
2, 10943, Note_on_c, 0, 77, 0
2, 10944, Note_on_c, 0, 65, 74
2, 11040, Note_on_c, 0, 65, 0
2, 11040, Note_on_c, 0, 64, 75
2, 11129, Note_on_c, 0, 64, 0
2, 11136, Note_on_c, 0, 67, 76
2, 11159, Note_on_c, 0, 67, 0
2, 11160, Note_on_c, 0, 72, 76
2, 11183, Note_on_c, 0, 72, 0
2, 11184, Note_on_c, 0, 76, 77
2, 11207, Note_on_c, 0, 76, 0
2, 11208, Note_on_c, 0, 79, 77
2, 11231, Note_on_c, 0, 79, 0
2, 11232, Note_on_c, 0, 67, 77
2, 11328, Note_on_c, 0, 67, 0
2, 11328, Note_on_c, 0, 65, 78
2, 11417, Note_on_c, 0, 65, 0
2, 11424, Note_on_c, 0, 64, 79
2, 11513, Note_on_c, 0, 64, 0
2, 11520, Note_on_c, 0, 65, 81
2, 11535, Note_on_c, 0, 65, 0
2, 11536, Note_on_c, 0, 64, 81
2, 11551, Note_on_c, 0, 64, 0
2, 11552, Note_on_c, 0, 65, 81
2, 11567, Note_on_c, 0, 65, 0
2, 11568, Note_on_c, 0, 64, 81
2, 11583, Note_on_c, 0, 64, 0
2, 11584, Note_on_c, 0, 62, 81
2, 11599, Note_on_c, 0, 62, 0
2, 11600, Note_on_c, 0, 64, 81
2, 11615, Note_on_c, 0, 64, 0
2, 11616, Note_on_c, 0, 62, 81
2, 11705, Note_on_c, 0, 62, 0
2, 11712, Note_on_c, 0, 76, 75
2, 11735, Note_on_c, 0, 76, 0
2, 11736, Note_on_c, 0, 74, 75
2, 11759, Note_on_c, 0, 74, 0
2, 11760, Note_on_c, 0, 76, 75
2, 11783, Note_on_c, 0, 76, 0
2, 11784, Note_on_c, 0, 77, 75
2, 11807, Note_on_c, 0, 77, 0
2, 11808, Note_on_c, 0, 79, 75
2, 11897, Note_on_c, 0, 79, 0
2, 11904, Note_on_c, 0, 72, 75
2, 11993, Note_on_c, 0, 72, 0
2, 12000, Note_on_c, 0, 72, 75
2, 12089, Note_on_c, 0, 72, 0
2, 12096, Note_on_c, 0, 74, 70
2, 12111, Note_on_c, 0, 74, 0
2, 12112, Note_on_c, 0, 72, 70
2, 12127, Note_on_c, 0, 72, 0
2, 12128, Note_on_c, 0, 74, 70
2, 12143, Note_on_c, 0, 74, 0
2, 12144, Note_on_c, 0, 72, 70
2, 12159, Note_on_c, 0, 72, 0
2, 12160, Note_on_c, 0, 74, 70
2, 12175, Note_on_c, 0, 74, 0
2, 12176, Note_on_c, 0, 72, 70
2, 12191, Note_on_c, 0, 72, 0
2, 12192, Note_on_c, 0, 74, 70
2, 12207, Note_on_c, 0, 74, 0
2, 12208, Note_on_c, 0, 72, 70
2, 12223, Note_on_c, 0, 72, 0
2, 12224, Note_on_c, 0, 74, 70
2, 12239, Note_on_c, 0, 74, 0
2, 12240, Note_on_c, 0, 72, 70
2, 12287, Note_on_c, 0, 72, 0
2, 12288, Note_on_c, 0, 84, 75
2, 12377, Note_on_c, 0, 84, 0
2, 12384, Note_on_c, 0, 83, 75
2, 12399, Note_on_c, 0, 83, 0
2, 12400, Note_on_c, 0, 81, 75
2, 12415, Note_on_c, 0, 81, 0
2, 12416, Note_on_c, 0, 83, 75
2, 12431, Note_on_c, 0, 83, 0
2, 12432, Note_on_c, 0, 81, 75
2, 12447, Note_on_c, 0, 81, 0
2, 12448, Note_on_c, 0, 79, 75
2, 12463, Note_on_c, 0, 79, 0
2, 12464, Note_on_c, 0, 81, 75
2, 12479, Note_on_c, 0, 81, 0
2, 12480, Note_on_c, 0, 79, 75
2, 12569, Note_on_c, 0, 79, 0
2, 12576, Note_on_c, 0, 84, 75
2, 12665, Note_on_c, 0, 84, 0
2, 12672, Note_on_c, 0, 79, 75
2, 12687, Note_on_c, 0, 79, 0
2, 12688, Note_on_c, 0, 77, 75
2, 12703, Note_on_c, 0, 77, 0
2, 12704, Note_on_c, 0, 79, 75
2, 12719, Note_on_c, 0, 79, 0
2, 12720, Note_on_c, 0, 77, 75
2, 12735, Note_on_c, 0, 77, 0
2, 12736, Note_on_c, 0, 76, 75
2, 12751, Note_on_c, 0, 76, 0
2, 12752, Note_on_c, 0, 77, 75
2, 12767, Note_on_c, 0, 77, 0
2, 12768, Note_on_c, 0, 76, 75
2, 12857, Note_on_c, 0, 76, 0
2, 12864, Note_on_c, 0, 81, 75
2, 12887, Note_on_c, 0, 81, 0
2, 12888, Note_on_c, 0, 79, 75
2, 12911, Note_on_c, 0, 79, 0
2, 12912, Note_on_c, 0, 81, 75
2, 12935, Note_on_c, 0, 81, 0
2, 12936, Note_on_c, 0, 83, 75
2, 12959, Note_on_c, 0, 83, 0
2, 12960, Note_on_c, 0, 84, 75
2, 13049, Note_on_c, 0, 84, 0
2, 13056, Note_on_c, 0, 79, 75
2, 13145, Note_on_c, 0, 79, 0
2, 13152, Note_on_c, 0, 81, 75
2, 13175, Note_on_c, 0, 81, 0
2, 13176, Note_on_c, 0, 79, 75
2, 13199, Note_on_c, 0, 79, 0
2, 13200, Note_on_c, 0, 81, 75
2, 13223, Note_on_c, 0, 81, 0
2, 13224, Note_on_c, 0, 83, 75
2, 13247, Note_on_c, 0, 83, 0
2, 13248, Note_on_c, 0, 84, 75
2, 13337, Note_on_c, 0, 84, 0
2, 13344, Note_on_c, 0, 84, 75
2, 13374, Note_on_c, 0, 84, 0
2, 13376, Note_on_c, 0, 83, 75
2, 13406, Note_on_c, 0, 83, 0
2, 13408, Note_on_c, 0, 81, 75
2, 13438, Note_on_c, 0, 81, 0
2, 13440, Note_on_c, 0, 79, 75
2, 13470, Note_on_c, 0, 79, 0
2, 13472, Note_on_c, 0, 77, 75
2, 13502, Note_on_c, 0, 77, 0
2, 13504, Note_on_c, 0, 76, 75
2, 13534, Note_on_c, 0, 76, 0
2, 13536, Note_on_c, 0, 74, 75
2, 13566, Note_on_c, 0, 74, 0
2, 13568, Note_on_c, 0, 77, 75
2, 13598, Note_on_c, 0, 77, 0
2, 13600, Note_on_c, 0, 81, 75
2, 13630, Note_on_c, 0, 81, 0
2, 13632, Note_on_c, 0, 72, 75
2, 13721, Note_on_c, 0, 72, 0
2, 13728, Note_on_c, 0, 72, 75
2, 13743, Note_on_c, 0, 72, 0
2, 13744, Note_on_c, 0, 71, 75
2, 13759, Note_on_c, 0, 71, 0
2, 13760, Note_on_c, 0, 72, 75
2, 13775, Note_on_c, 0, 72, 0
2, 13776, Note_on_c, 0, 71, 75
2, 13791, Note_on_c, 0, 71, 0
2, 13792, Note_on_c, 0, 69, 75
2, 13807, Note_on_c, 0, 69, 0
2, 13808, Note_on_c, 0, 71, 75
2, 13823, Note_on_c, 0, 71, 0
2, 13824, Note_on_c, 0, 72, 75
2, 14001, Note_on_c, 0, 72, 0
2, 14016, Note_on_c, 0, 84, 70
2, 14061, Note_on_c, 0, 84, 0
2, 14064, Note_on_c, 0, 79, 70
2, 14109, Note_on_c, 0, 79, 0
2, 14112, Note_on_c, 0, 77, 70
2, 14157, Note_on_c, 0, 77, 0
2, 14160, Note_on_c, 0, 75, 70
2, 14205, Note_on_c, 0, 75, 0
2, 14208, Note_on_c, 0, 74, 70
2, 14253, Note_on_c, 0, 74, 0
2, 14256, Note_on_c, 0, 72, 70
2, 14301, Note_on_c, 0, 72, 0
2, 14304, Note_on_c, 0, 79, 70
2, 14349, Note_on_c, 0, 79, 0
2, 14352, Note_on_c, 0, 72, 70
2, 14397, Note_on_c, 0, 72, 0
2, 14400, Note_on_c, 0, 80, 70
2, 14445, Note_on_c, 0, 80, 0
2, 14448, Note_on_c, 0, 72, 70
2, 14493, Note_on_c, 0, 72, 0
2, 14496, Note_on_c, 0, 79, 70
2, 14541, Note_on_c, 0, 79, 0
2, 14544, Note_on_c, 0, 72, 70
2, 14589, Note_on_c, 0, 72, 0
2, 14592, Note_on_c, 0, 84, 70
2, 14637, Note_on_c, 0, 84, 0
2, 14640, Note_on_c, 0, 79, 70
2, 14685, Note_on_c, 0, 79, 0
2, 14688, Note_on_c, 0, 77, 70
2, 14733, Note_on_c, 0, 77, 0
2, 14736, Note_on_c, 0, 75, 70
2, 14781, Note_on_c, 0, 75, 0
2, 14784, Note_on_c, 0, 74, 70
2, 14829, Note_on_c, 0, 74, 0
2, 14832, Note_on_c, 0, 72, 70
2, 14877, Note_on_c, 0, 72, 0
2, 14880, Note_on_c, 0, 75, 70
2, 14925, Note_on_c, 0, 75, 0
2, 14928, Note_on_c, 0, 72, 70
2, 14973, Note_on_c, 0, 72, 0
2, 14976, Note_on_c, 0, 77, 70
2, 15021, Note_on_c, 0, 77, 0
2, 15024, Note_on_c, 0, 72, 70
2, 15069, Note_on_c, 0, 72, 0
2, 15072, Note_on_c, 0, 75, 70
2, 15117, Note_on_c, 0, 75, 0
2, 15120, Note_on_c, 0, 72, 70
2, 15165, Note_on_c, 0, 72, 0
2, 15168, Note_on_c, 0, 84, 70
2, 15213, Note_on_c, 0, 84, 0
2, 15216, Note_on_c, 0, 79, 70
2, 15261, Note_on_c, 0, 79, 0
2, 15264, Note_on_c, 0, 77, 70
2, 15309, Note_on_c, 0, 77, 0
2, 15312, Note_on_c, 0, 75, 70
2, 15357, Note_on_c, 0, 75, 0
2, 15360, Note_on_c, 0, 74, 70
2, 15405, Note_on_c, 0, 74, 0
2, 15408, Note_on_c, 0, 72, 70
2, 15453, Note_on_c, 0, 72, 0
2, 15456, Note_on_c, 0, 79, 70
2, 15501, Note_on_c, 0, 79, 0
2, 15504, Note_on_c, 0, 72, 70
2, 15549, Note_on_c, 0, 72, 0
2, 15552, Note_on_c, 0, 78, 70
2, 15597, Note_on_c, 0, 78, 0
2, 15600, Note_on_c, 0, 72, 70
2, 15645, Note_on_c, 0, 72, 0
2, 15648, Note_on_c, 0, 79, 71
2, 15693, Note_on_c, 0, 79, 0
2, 15696, Note_on_c, 0, 72, 71
2, 15741, Note_on_c, 0, 72, 0
2, 15744, Note_on_c, 0, 81, 72
2, 15789, Note_on_c, 0, 81, 0
2, 15792, Note_on_c, 0, 72, 72
2, 15837, Note_on_c, 0, 72, 0
2, 15840, Note_on_c, 0, 70, 73
2, 15885, Note_on_c, 0, 70, 0
2, 15888, Note_on_c, 0, 67, 73
2, 15933, Note_on_c, 0, 67, 0
2, 15936, Note_on_c, 0, 72, 74
2, 15981, Note_on_c, 0, 72, 0
2, 15984, Note_on_c, 0, 67, 74
2, 16029, Note_on_c, 0, 67, 0
2, 16032, Note_on_c, 0, 74, 75
2, 16077, Note_on_c, 0, 74, 0
2, 16080, Note_on_c, 0, 67, 76
2, 16125, Note_on_c, 0, 67, 0
2, 16128, Note_on_c, 0, 75, 76
2, 16173, Note_on_c, 0, 75, 0
2, 16176, Note_on_c, 0, 72, 77
2, 16221, Note_on_c, 0, 72, 0
2, 16224, Note_on_c, 0, 70, 77
2, 16269, Note_on_c, 0, 70, 0
2, 16272, Note_on_c, 0, 69, 78
2, 16317, Note_on_c, 0, 69, 0
2, 16320, Note_on_c, 0, 78, 78
2, 16365, Note_on_c, 0, 78, 0
2, 16368, Note_on_c, 0, 74, 79
2, 16413, Note_on_c, 0, 74, 0
2, 16416, Note_on_c, 0, 79, 79
2, 16505, Note_on_c, 0, 79, 0
2, 16512, Note_on_c, 0, 70, 81
2, 16601, Note_on_c, 0, 70, 0
2, 16608, Note_on_c, 0, 69, 81
2, 16621, Note_on_c, 0, 69, 0
2, 16622, Note_on_c, 0, 70, 80
2, 16635, Note_on_c, 0, 70, 0
2, 16636, Note_on_c, 0, 69, 80
2, 16649, Note_on_c, 0, 69, 0
2, 16650, Note_on_c, 0, 70, 80
2, 16663, Note_on_c, 0, 70, 0
2, 16664, Note_on_c, 0, 69, 80
2, 16677, Note_on_c, 0, 69, 0
2, 16678, Note_on_c, 0, 67, 79
2, 16690, Note_on_c, 0, 67, 0
2, 16691, Note_on_c, 0, 69, 79
2, 16703, Note_on_c, 0, 69, 0
2, 16704, Note_on_c, 0, 67, 79
2, 16881, Note_on_c, 0, 67, 0
2, 16896, Note_on_c, 0, 84, 70
2, 16941, Note_on_c, 0, 84, 0
2, 16944, Note_on_c, 0, 79, 70
2, 16989, Note_on_c, 0, 79, 0
2, 16992, Note_on_c, 0, 77, 70
2, 17037, Note_on_c, 0, 77, 0
2, 17040, Note_on_c, 0, 75, 70
2, 17085, Note_on_c, 0, 75, 0
2, 17088, Note_on_c, 0, 74, 70
2, 17133, Note_on_c, 0, 74, 0
2, 17136, Note_on_c, 0, 72, 70
2, 17181, Note_on_c, 0, 72, 0
2, 17184, Note_on_c, 0, 79, 70
2, 17229, Note_on_c, 0, 79, 0
2, 17232, Note_on_c, 0, 72, 70
2, 17277, Note_on_c, 0, 72, 0
2, 17280, Note_on_c, 0, 80, 70
2, 17325, Note_on_c, 0, 80, 0
2, 17328, Note_on_c, 0, 72, 70
2, 17373, Note_on_c, 0, 72, 0
2, 17376, Note_on_c, 0, 79, 70
2, 17421, Note_on_c, 0, 79, 0
2, 17424, Note_on_c, 0, 72, 70
2, 17469, Note_on_c, 0, 72, 0
2, 17472, Note_on_c, 0, 84, 70
2, 17517, Note_on_c, 0, 84, 0
2, 17520, Note_on_c, 0, 79, 70
2, 17565, Note_on_c, 0, 79, 0
2, 17568, Note_on_c, 0, 77, 70
2, 17613, Note_on_c, 0, 77, 0
2, 17616, Note_on_c, 0, 75, 70
2, 17661, Note_on_c, 0, 75, 0
2, 17664, Note_on_c, 0, 74, 70
2, 17709, Note_on_c, 0, 74, 0
2, 17712, Note_on_c, 0, 72, 70
2, 17757, Note_on_c, 0, 72, 0
2, 17760, Note_on_c, 0, 75, 70
2, 17805, Note_on_c, 0, 75, 0
2, 17808, Note_on_c, 0, 72, 70
2, 17853, Note_on_c, 0, 72, 0
2, 17856, Note_on_c, 0, 77, 70
2, 17901, Note_on_c, 0, 77, 0
2, 17904, Note_on_c, 0, 72, 70
2, 17949, Note_on_c, 0, 72, 0
2, 17952, Note_on_c, 0, 75, 70
2, 17997, Note_on_c, 0, 75, 0
2, 18000, Note_on_c, 0, 72, 70
2, 18045, Note_on_c, 0, 72, 0
2, 18048, Note_on_c, 0, 84, 70
2, 18093, Note_on_c, 0, 84, 0
2, 18096, Note_on_c, 0, 79, 70
2, 18141, Note_on_c, 0, 79, 0
2, 18144, Note_on_c, 0, 77, 70
2, 18189, Note_on_c, 0, 77, 0
2, 18192, Note_on_c, 0, 75, 70
2, 18237, Note_on_c, 0, 75, 0
2, 18240, Note_on_c, 0, 74, 70
2, 18285, Note_on_c, 0, 74, 0
2, 18288, Note_on_c, 0, 72, 70
2, 18333, Note_on_c, 0, 72, 0
2, 18336, Note_on_c, 0, 79, 70
2, 18381, Note_on_c, 0, 79, 0
2, 18384, Note_on_c, 0, 72, 70
2, 18429, Note_on_c, 0, 72, 0
2, 18432, Note_on_c, 0, 78, 70
2, 18477, Note_on_c, 0, 78, 0
2, 18480, Note_on_c, 0, 72, 70
2, 18525, Note_on_c, 0, 72, 0
2, 18528, Note_on_c, 0, 79, 71
2, 18573, Note_on_c, 0, 79, 0
2, 18576, Note_on_c, 0, 72, 71
2, 18621, Note_on_c, 0, 72, 0
2, 18624, Note_on_c, 0, 81, 72
2, 18669, Note_on_c, 0, 81, 0
2, 18672, Note_on_c, 0, 72, 72
2, 18717, Note_on_c, 0, 72, 0
2, 18720, Note_on_c, 0, 70, 73
2, 18765, Note_on_c, 0, 70, 0
2, 18768, Note_on_c, 0, 67, 73
2, 18813, Note_on_c, 0, 67, 0
2, 18816, Note_on_c, 0, 72, 74
2, 18861, Note_on_c, 0, 72, 0
2, 18864, Note_on_c, 0, 67, 74
2, 18909, Note_on_c, 0, 67, 0
2, 18912, Note_on_c, 0, 74, 75
2, 18957, Note_on_c, 0, 74, 0
2, 18960, Note_on_c, 0, 67, 76
2, 19005, Note_on_c, 0, 67, 0
2, 19008, Note_on_c, 0, 75, 76
2, 19053, Note_on_c, 0, 75, 0
2, 19056, Note_on_c, 0, 72, 77
2, 19101, Note_on_c, 0, 72, 0
2, 19104, Note_on_c, 0, 70, 77
2, 19149, Note_on_c, 0, 70, 0
2, 19152, Note_on_c, 0, 69, 78
2, 19197, Note_on_c, 0, 69, 0
2, 19200, Note_on_c, 0, 78, 78
2, 19245, Note_on_c, 0, 78, 0
2, 19248, Note_on_c, 0, 74, 79
2, 19293, Note_on_c, 0, 74, 0
2, 19296, Note_on_c, 0, 79, 79
2, 19385, Note_on_c, 0, 79, 0
2, 19392, Note_on_c, 0, 70, 81
2, 19481, Note_on_c, 0, 70, 0
2, 19488, Note_on_c, 0, 69, 81
2, 19501, Note_on_c, 0, 69, 0
2, 19502, Note_on_c, 0, 70, 80
2, 19515, Note_on_c, 0, 70, 0
2, 19516, Note_on_c, 0, 69, 80
2, 19529, Note_on_c, 0, 69, 0
2, 19530, Note_on_c, 0, 70, 80
2, 19543, Note_on_c, 0, 70, 0
2, 19544, Note_on_c, 0, 69, 80
2, 19557, Note_on_c, 0, 69, 0
2, 19558, Note_on_c, 0, 67, 79
2, 19570, Note_on_c, 0, 67, 0
2, 19571, Note_on_c, 0, 69, 79
2, 19583, Note_on_c, 0, 69, 0
2, 19584, Note_on_c, 0, 67, 79
2, 19761, Note_on_c, 0, 67, 0
2, 19776, Note_on_c, 0, 79, 75
2, 19821, Note_on_c, 0, 79, 0
2, 19824, Note_on_c, 0, 74, 75
2, 19869, Note_on_c, 0, 74, 0
2, 19872, Note_on_c, 0, 72, 75
2, 19917, Note_on_c, 0, 72, 0
2, 19920, Note_on_c, 0, 71, 75
2, 19965, Note_on_c, 0, 71, 0
2, 19968, Note_on_c, 0, 69, 75
2, 20013, Note_on_c, 0, 69, 0
2, 20016, Note_on_c, 0, 67, 75
2, 20061, Note_on_c, 0, 67, 0
2, 20064, Note_on_c, 0, 71, 75
2, 20109, Note_on_c, 0, 71, 0
2, 20112, Note_on_c, 0, 67, 75
2, 20157, Note_on_c, 0, 67, 0
2, 20160, Note_on_c, 0, 72, 75
2, 20205, Note_on_c, 0, 72, 0
2, 20208, Note_on_c, 0, 67, 75
2, 20253, Note_on_c, 0, 67, 0
2, 20256, Note_on_c, 0, 74, 75
2, 20301, Note_on_c, 0, 74, 0
2, 20304, Note_on_c, 0, 67, 75
2, 20349, Note_on_c, 0, 67, 0
2, 20352, Note_on_c, 0, 75, 75
2, 20397, Note_on_c, 0, 75, 0
2, 20400, Note_on_c, 0, 67, 75
2, 20445, Note_on_c, 0, 67, 0
2, 20448, Note_on_c, 0, 74, 75
2, 20493, Note_on_c, 0, 74, 0
2, 20496, Note_on_c, 0, 67, 75
2, 20541, Note_on_c, 0, 67, 0
2, 20544, Note_on_c, 0, 77, 75
2, 20589, Note_on_c, 0, 77, 0
2, 20592, Note_on_c, 0, 67, 75
2, 20637, Note_on_c, 0, 67, 0
2, 20640, Note_on_c, 0, 75, 75
2, 20685, Note_on_c, 0, 75, 0
2, 20688, Note_on_c, 0, 67, 75
2, 20733, Note_on_c, 0, 67, 0
2, 20736, Note_on_c, 0, 75, 75
2, 20751, Note_on_c, 0, 75, 0
2, 20752, Note_on_c, 0, 74, 74
2, 20767, Note_on_c, 0, 74, 0
2, 20768, Note_on_c, 0, 75, 74
2, 20783, Note_on_c, 0, 75, 0
2, 20784, Note_on_c, 0, 74, 73
2, 20799, Note_on_c, 0, 74, 0
2, 20800, Note_on_c, 0, 75, 73
2, 20815, Note_on_c, 0, 75, 0
2, 20816, Note_on_c, 0, 74, 73
2, 20831, Note_on_c, 0, 74, 0
2, 20832, Note_on_c, 0, 75, 72
2, 20847, Note_on_c, 0, 75, 0
2, 20848, Note_on_c, 0, 74, 72
2, 20863, Note_on_c, 0, 74, 0
2, 20864, Note_on_c, 0, 75, 72
2, 20879, Note_on_c, 0, 75, 0
2, 20880, Note_on_c, 0, 74, 71
2, 20927, Note_on_c, 0, 74, 0
2, 20928, Note_on_c, 0, 79, 70
2, 20973, Note_on_c, 0, 79, 0
2, 20976, Note_on_c, 0, 74, 69
2, 21021, Note_on_c, 0, 74, 0
2, 21024, Note_on_c, 0, 72, 66
2, 21069, Note_on_c, 0, 72, 0
2, 21072, Note_on_c, 0, 71, 66
2, 21117, Note_on_c, 0, 71, 0
2, 21120, Note_on_c, 0, 69, 66
2, 21165, Note_on_c, 0, 69, 0
2, 21168, Note_on_c, 0, 67, 66
2, 21213, Note_on_c, 0, 67, 0
2, 21216, Note_on_c, 0, 71, 66
2, 21261, Note_on_c, 0, 71, 0
2, 21264, Note_on_c, 0, 67, 66
2, 21309, Note_on_c, 0, 67, 0
2, 21312, Note_on_c, 0, 72, 66
2, 21357, Note_on_c, 0, 72, 0
2, 21360, Note_on_c, 0, 67, 66
2, 21405, Note_on_c, 0, 67, 0
2, 21408, Note_on_c, 0, 74, 66
2, 21453, Note_on_c, 0, 74, 0
2, 21456, Note_on_c, 0, 67, 66
2, 21501, Note_on_c, 0, 67, 0
2, 21504, Note_on_c, 0, 75, 66
2, 21549, Note_on_c, 0, 75, 0
2, 21552, Note_on_c, 0, 67, 66
2, 21597, Note_on_c, 0, 67, 0
2, 21600, Note_on_c, 0, 67, 66
2, 21645, Note_on_c, 0, 67, 0
2, 21648, Note_on_c, 0, 65, 66
2, 21693, Note_on_c, 0, 65, 0
2, 21696, Note_on_c, 0, 74, 66
2, 21741, Note_on_c, 0, 74, 0
2, 21744, Note_on_c, 0, 65, 66
2, 21789, Note_on_c, 0, 65, 0
2, 21792, Note_on_c, 0, 63, 66
2, 21837, Note_on_c, 0, 63, 0
2, 21840, Note_on_c, 0, 72, 66
2, 21885, Note_on_c, 0, 72, 0
2, 21888, Note_on_c, 0, 63, 66
2, 21984, Note_on_c, 0, 63, 0
2, 21984, Note_on_c, 0, 62, 66
2, 22065, Note_on_c, 0, 62, 0
2, 22080, Note_on_c, 0, 84, 70
2, 22125, Note_on_c, 0, 84, 0
2, 22128, Note_on_c, 0, 79, 70
2, 22173, Note_on_c, 0, 79, 0
2, 22176, Note_on_c, 0, 77, 70
2, 22221, Note_on_c, 0, 77, 0
2, 22224, Note_on_c, 0, 75, 70
2, 22269, Note_on_c, 0, 75, 0
2, 22272, Note_on_c, 0, 74, 70
2, 22317, Note_on_c, 0, 74, 0
2, 22320, Note_on_c, 0, 72, 70
2, 22365, Note_on_c, 0, 72, 0
2, 22368, Note_on_c, 0, 79, 70
2, 22413, Note_on_c, 0, 79, 0
2, 22416, Note_on_c, 0, 72, 70
2, 22461, Note_on_c, 0, 72, 0
2, 22464, Note_on_c, 0, 80, 70
2, 22509, Note_on_c, 0, 80, 0
2, 22512, Note_on_c, 0, 72, 70
2, 22557, Note_on_c, 0, 72, 0
2, 22560, Note_on_c, 0, 79, 70
2, 22605, Note_on_c, 0, 79, 0
2, 22608, Note_on_c, 0, 72, 70
2, 22653, Note_on_c, 0, 72, 0
2, 22656, Note_on_c, 0, 84, 70
2, 22701, Note_on_c, 0, 84, 0
2, 22704, Note_on_c, 0, 79, 70
2, 22749, Note_on_c, 0, 79, 0
2, 22752, Note_on_c, 0, 77, 70
2, 22797, Note_on_c, 0, 77, 0
2, 22800, Note_on_c, 0, 75, 70
2, 22845, Note_on_c, 0, 75, 0
2, 22848, Note_on_c, 0, 74, 70
2, 22893, Note_on_c, 0, 74, 0
2, 22896, Note_on_c, 0, 72, 70
2, 22941, Note_on_c, 0, 72, 0
2, 22944, Note_on_c, 0, 75, 70
2, 22989, Note_on_c, 0, 75, 0
2, 22992, Note_on_c, 0, 72, 70
2, 23037, Note_on_c, 0, 72, 0
2, 23040, Note_on_c, 0, 77, 70
2, 23085, Note_on_c, 0, 77, 0
2, 23088, Note_on_c, 0, 72, 70
2, 23133, Note_on_c, 0, 72, 0
2, 23136, Note_on_c, 0, 75, 70
2, 23181, Note_on_c, 0, 75, 0
2, 23184, Note_on_c, 0, 72, 70
2, 23229, Note_on_c, 0, 72, 0
2, 23232, Note_on_c, 0, 84, 70
2, 23277, Note_on_c, 0, 84, 0
2, 23280, Note_on_c, 0, 79, 70
2, 23325, Note_on_c, 0, 79, 0
2, 23328, Note_on_c, 0, 77, 70
2, 23373, Note_on_c, 0, 77, 0
2, 23376, Note_on_c, 0, 75, 70
2, 23421, Note_on_c, 0, 75, 0
2, 23424, Note_on_c, 0, 74, 70
2, 23469, Note_on_c, 0, 74, 0
2, 23472, Note_on_c, 0, 72, 70
2, 23517, Note_on_c, 0, 72, 0
2, 23520, Note_on_c, 0, 79, 70
2, 23565, Note_on_c, 0, 79, 0
2, 23568, Note_on_c, 0, 72, 70
2, 23613, Note_on_c, 0, 72, 0
2, 23616, Note_on_c, 0, 80, 70
2, 23661, Note_on_c, 0, 80, 0
2, 23664, Note_on_c, 0, 77, 70
2, 23709, Note_on_c, 0, 77, 0
2, 23712, Note_on_c, 0, 75, 70
2, 23757, Note_on_c, 0, 75, 0
2, 23760, Note_on_c, 0, 74, 70
2, 23805, Note_on_c, 0, 74, 0
2, 23808, Note_on_c, 0, 72, 70
2, 23853, Note_on_c, 0, 72, 0
2, 23856, Note_on_c, 0, 71, 70
2, 23901, Note_on_c, 0, 71, 0
2, 23904, Note_on_c, 0, 72, 70
2, 23993, Note_on_c, 0, 72, 0
2, 24000, Note_on_c, 0, 75, 70
2, 24045, Note_on_c, 0, 75, 0
2, 24048, Note_on_c, 0, 74, 70
2, 24093, Note_on_c, 0, 74, 0
2, 24096, Note_on_c, 0, 72, 70
2, 24141, Note_on_c, 0, 72, 0
2, 24144, Note_on_c, 0, 71, 70
2, 24189, Note_on_c, 0, 71, 0
2, 24192, Note_on_c, 0, 72, 70
2, 24281, Note_on_c, 0, 72, 0
2, 24384, Note_on_c, 0, 79, 75
2, 24429, Note_on_c, 0, 79, 0
2, 24432, Note_on_c, 0, 74, 75
2, 24477, Note_on_c, 0, 74, 0
2, 24480, Note_on_c, 0, 72, 75
2, 24525, Note_on_c, 0, 72, 0
2, 24528, Note_on_c, 0, 71, 75
2, 24573, Note_on_c, 0, 71, 0
2, 24576, Note_on_c, 0, 69, 75
2, 24621, Note_on_c, 0, 69, 0
2, 24624, Note_on_c, 0, 67, 75
2, 24669, Note_on_c, 0, 67, 0
2, 24672, Note_on_c, 0, 71, 75
2, 24717, Note_on_c, 0, 71, 0
2, 24720, Note_on_c, 0, 67, 75
2, 24765, Note_on_c, 0, 67, 0
2, 24768, Note_on_c, 0, 72, 75
2, 24813, Note_on_c, 0, 72, 0
2, 24816, Note_on_c, 0, 67, 75
2, 24861, Note_on_c, 0, 67, 0
2, 24864, Note_on_c, 0, 74, 75
2, 24909, Note_on_c, 0, 74, 0
2, 24912, Note_on_c, 0, 67, 75
2, 24957, Note_on_c, 0, 67, 0
2, 24960, Note_on_c, 0, 75, 75
2, 25005, Note_on_c, 0, 75, 0
2, 25008, Note_on_c, 0, 67, 75
2, 25053, Note_on_c, 0, 67, 0
2, 25056, Note_on_c, 0, 74, 75
2, 25101, Note_on_c, 0, 74, 0
2, 25104, Note_on_c, 0, 67, 75
2, 25149, Note_on_c, 0, 67, 0
2, 25152, Note_on_c, 0, 77, 75
2, 25197, Note_on_c, 0, 77, 0
2, 25200, Note_on_c, 0, 67, 75
2, 25245, Note_on_c, 0, 67, 0
2, 25248, Note_on_c, 0, 75, 75
2, 25293, Note_on_c, 0, 75, 0
2, 25296, Note_on_c, 0, 67, 75
2, 25341, Note_on_c, 0, 67, 0
2, 25344, Note_on_c, 0, 75, 75
2, 25359, Note_on_c, 0, 75, 0
2, 25360, Note_on_c, 0, 74, 74
2, 25375, Note_on_c, 0, 74, 0
2, 25376, Note_on_c, 0, 75, 74
2, 25391, Note_on_c, 0, 75, 0
2, 25392, Note_on_c, 0, 74, 73
2, 25407, Note_on_c, 0, 74, 0
2, 25408, Note_on_c, 0, 75, 73
2, 25423, Note_on_c, 0, 75, 0
2, 25424, Note_on_c, 0, 74, 73
2, 25439, Note_on_c, 0, 74, 0
2, 25440, Note_on_c, 0, 75, 72
2, 25455, Note_on_c, 0, 75, 0
2, 25456, Note_on_c, 0, 74, 72
2, 25471, Note_on_c, 0, 74, 0
2, 25472, Note_on_c, 0, 75, 72
2, 25487, Note_on_c, 0, 75, 0
2, 25488, Note_on_c, 0, 74, 71
2, 25535, Note_on_c, 0, 74, 0
2, 25536, Note_on_c, 0, 79, 70
2, 25581, Note_on_c, 0, 79, 0
2, 25584, Note_on_c, 0, 74, 69
2, 25629, Note_on_c, 0, 74, 0
2, 25632, Note_on_c, 0, 72, 66
2, 25677, Note_on_c, 0, 72, 0
2, 25680, Note_on_c, 0, 71, 66
2, 25725, Note_on_c, 0, 71, 0
2, 25728, Note_on_c, 0, 69, 66
2, 25773, Note_on_c, 0, 69, 0
2, 25776, Note_on_c, 0, 67, 66
2, 25821, Note_on_c, 0, 67, 0
2, 25824, Note_on_c, 0, 71, 66
2, 25869, Note_on_c, 0, 71, 0
2, 25872, Note_on_c, 0, 67, 66
2, 25917, Note_on_c, 0, 67, 0
2, 25920, Note_on_c, 0, 72, 66
2, 25965, Note_on_c, 0, 72, 0
2, 25968, Note_on_c, 0, 67, 66
2, 26013, Note_on_c, 0, 67, 0
2, 26016, Note_on_c, 0, 74, 66
2, 26061, Note_on_c, 0, 74, 0
2, 26064, Note_on_c, 0, 67, 66
2, 26109, Note_on_c, 0, 67, 0
2, 26112, Note_on_c, 0, 75, 66
2, 26157, Note_on_c, 0, 75, 0
2, 26160, Note_on_c, 0, 67, 66
2, 26205, Note_on_c, 0, 67, 0
2, 26208, Note_on_c, 0, 67, 66
2, 26253, Note_on_c, 0, 67, 0
2, 26256, Note_on_c, 0, 65, 66
2, 26301, Note_on_c, 0, 65, 0
2, 26304, Note_on_c, 0, 74, 66
2, 26349, Note_on_c, 0, 74, 0
2, 26352, Note_on_c, 0, 65, 66
2, 26397, Note_on_c, 0, 65, 0
2, 26400, Note_on_c, 0, 63, 66
2, 26445, Note_on_c, 0, 63, 0
2, 26448, Note_on_c, 0, 72, 66
2, 26493, Note_on_c, 0, 72, 0
2, 26496, Note_on_c, 0, 63, 66
2, 26592, Note_on_c, 0, 63, 0
2, 26592, Note_on_c, 0, 62, 66
2, 26673, Note_on_c, 0, 62, 0
2, 26688, Note_on_c, 0, 84, 70
2, 26733, Note_on_c, 0, 84, 0
2, 26736, Note_on_c, 0, 79, 70
2, 26781, Note_on_c, 0, 79, 0
2, 26784, Note_on_c, 0, 77, 70
2, 26829, Note_on_c, 0, 77, 0
2, 26832, Note_on_c, 0, 75, 70
2, 26877, Note_on_c, 0, 75, 0
2, 26880, Note_on_c, 0, 74, 70
2, 26925, Note_on_c, 0, 74, 0
2, 26928, Note_on_c, 0, 72, 70
2, 26973, Note_on_c, 0, 72, 0
2, 26976, Note_on_c, 0, 79, 70
2, 27021, Note_on_c, 0, 79, 0
2, 27024, Note_on_c, 0, 72, 70
2, 27069, Note_on_c, 0, 72, 0
2, 27072, Note_on_c, 0, 80, 70
2, 27117, Note_on_c, 0, 80, 0
2, 27120, Note_on_c, 0, 72, 70
2, 27165, Note_on_c, 0, 72, 0
2, 27168, Note_on_c, 0, 79, 70
2, 27213, Note_on_c, 0, 79, 0
2, 27216, Note_on_c, 0, 72, 70
2, 27261, Note_on_c, 0, 72, 0
2, 27264, Note_on_c, 0, 84, 70
2, 27309, Note_on_c, 0, 84, 0
2, 27312, Note_on_c, 0, 79, 70
2, 27357, Note_on_c, 0, 79, 0
2, 27360, Note_on_c, 0, 77, 70
2, 27405, Note_on_c, 0, 77, 0
2, 27408, Note_on_c, 0, 75, 70
2, 27453, Note_on_c, 0, 75, 0
2, 27456, Note_on_c, 0, 74, 70
2, 27501, Note_on_c, 0, 74, 0
2, 27504, Note_on_c, 0, 72, 70
2, 27549, Note_on_c, 0, 72, 0
2, 27552, Note_on_c, 0, 75, 70
2, 27597, Note_on_c, 0, 75, 0
2, 27600, Note_on_c, 0, 72, 70
2, 27645, Note_on_c, 0, 72, 0
2, 27648, Note_on_c, 0, 77, 70
2, 27693, Note_on_c, 0, 77, 0
2, 27696, Note_on_c, 0, 72, 70
2, 27741, Note_on_c, 0, 72, 0
2, 27744, Note_on_c, 0, 75, 70
2, 27789, Note_on_c, 0, 75, 0
2, 27792, Note_on_c, 0, 72, 70
2, 27837, Note_on_c, 0, 72, 0
2, 27840, Note_on_c, 0, 84, 70
2, 27885, Note_on_c, 0, 84, 0
2, 27888, Note_on_c, 0, 79, 70
2, 27933, Note_on_c, 0, 79, 0
2, 27936, Note_on_c, 0, 77, 70
2, 27981, Note_on_c, 0, 77, 0
2, 27984, Note_on_c, 0, 75, 70
2, 28029, Note_on_c, 0, 75, 0
2, 28032, Note_on_c, 0, 74, 70
2, 28077, Note_on_c, 0, 74, 0
2, 28080, Note_on_c, 0, 72, 70
2, 28125, Note_on_c, 0, 72, 0
2, 28128, Note_on_c, 0, 79, 70
2, 28173, Note_on_c, 0, 79, 0
2, 28176, Note_on_c, 0, 72, 70
2, 28221, Note_on_c, 0, 72, 0
2, 28224, Note_on_c, 0, 80, 70
2, 28269, Note_on_c, 0, 80, 0
2, 28272, Note_on_c, 0, 77, 70
2, 28317, Note_on_c, 0, 77, 0
2, 28320, Note_on_c, 0, 75, 70
2, 28365, Note_on_c, 0, 75, 0
2, 28368, Note_on_c, 0, 74, 70
2, 28413, Note_on_c, 0, 74, 0
2, 28416, Note_on_c, 0, 72, 70
2, 28461, Note_on_c, 0, 72, 0
2, 28464, Note_on_c, 0, 71, 70
2, 28509, Note_on_c, 0, 71, 0
2, 28512, Note_on_c, 0, 72, 70
2, 28601, Note_on_c, 0, 72, 0
2, 28608, Note_on_c, 0, 75, 70
2, 28653, Note_on_c, 0, 75, 0
2, 28656, Note_on_c, 0, 74, 70
2, 28701, Note_on_c, 0, 74, 0
2, 28704, Note_on_c, 0, 72, 70
2, 28749, Note_on_c, 0, 72, 0
2, 28752, Note_on_c, 0, 71, 70
2, 28797, Note_on_c, 0, 71, 0
2, 28800, Note_on_c, 0, 72, 70
2, 28889, Note_on_c, 0, 72, 0
2, 28992, Note_on_c, 0, 76, 75
2, 29015, Note_on_c, 0, 76, 0
2, 29016, Note_on_c, 0, 74, 75
2, 29039, Note_on_c, 0, 74, 0
2, 29040, Note_on_c, 0, 76, 75
2, 29063, Note_on_c, 0, 76, 0
2, 29064, Note_on_c, 0, 77, 75
2, 29087, Note_on_c, 0, 77, 0
2, 29088, Note_on_c, 0, 79, 91
2, 29184, Note_on_c, 0, 79, 0
2, 29184, Note_on_c, 0, 72, 75
2, 29273, Note_on_c, 0, 72, 0
2, 29280, Note_on_c, 0, 72, 75
2, 29369, Note_on_c, 0, 72, 0
2, 29376, Note_on_c, 0, 74, 70
2, 29391, Note_on_c, 0, 74, 0
2, 29392, Note_on_c, 0, 72, 70
2, 29407, Note_on_c, 0, 72, 0
2, 29408, Note_on_c, 0, 74, 70
2, 29423, Note_on_c, 0, 74, 0
2, 29424, Note_on_c, 0, 72, 70
2, 29439, Note_on_c, 0, 72, 0
2, 29440, Note_on_c, 0, 74, 70
2, 29455, Note_on_c, 0, 74, 0
2, 29456, Note_on_c, 0, 72, 70
2, 29471, Note_on_c, 0, 72, 0
2, 29472, Note_on_c, 0, 74, 70
2, 29487, Note_on_c, 0, 74, 0
2, 29488, Note_on_c, 0, 72, 70
2, 29503, Note_on_c, 0, 72, 0
2, 29504, Note_on_c, 0, 74, 70
2, 29519, Note_on_c, 0, 74, 0
2, 29520, Note_on_c, 0, 72, 70
2, 29567, Note_on_c, 0, 72, 0
2, 29568, Note_on_c, 0, 84, 75
2, 29657, Note_on_c, 0, 84, 0
2, 29664, Note_on_c, 0, 83, 75
2, 29679, Note_on_c, 0, 83, 0
2, 29680, Note_on_c, 0, 81, 75
2, 29695, Note_on_c, 0, 81, 0
2, 29696, Note_on_c, 0, 83, 75
2, 29711, Note_on_c, 0, 83, 0
2, 29712, Note_on_c, 0, 81, 75
2, 29727, Note_on_c, 0, 81, 0
2, 29728, Note_on_c, 0, 79, 75
2, 29743, Note_on_c, 0, 79, 0
2, 29744, Note_on_c, 0, 81, 75
2, 29759, Note_on_c, 0, 81, 0
2, 29760, Note_on_c, 0, 79, 75
2, 29849, Note_on_c, 0, 79, 0
2, 29856, Note_on_c, 0, 84, 75
2, 29945, Note_on_c, 0, 84, 0
2, 29952, Note_on_c, 0, 79, 75
2, 29967, Note_on_c, 0, 79, 0
2, 29968, Note_on_c, 0, 77, 75
2, 29983, Note_on_c, 0, 77, 0
2, 29984, Note_on_c, 0, 79, 75
2, 29999, Note_on_c, 0, 79, 0
2, 30000, Note_on_c, 0, 77, 75
2, 30015, Note_on_c, 0, 77, 0
2, 30016, Note_on_c, 0, 76, 75
2, 30031, Note_on_c, 0, 76, 0
2, 30032, Note_on_c, 0, 77, 75
2, 30047, Note_on_c, 0, 77, 0
2, 30048, Note_on_c, 0, 76, 75
2, 30137, Note_on_c, 0, 76, 0
2, 30144, Note_on_c, 0, 76, 75
2, 30167, Note_on_c, 0, 76, 0
2, 30168, Note_on_c, 0, 74, 75
2, 30191, Note_on_c, 0, 74, 0
2, 30192, Note_on_c, 0, 76, 75
2, 30215, Note_on_c, 0, 76, 0
2, 30216, Note_on_c, 0, 78, 75
2, 30239, Note_on_c, 0, 78, 0
2, 30240, Note_on_c, 0, 79, 91
2, 30336, Note_on_c, 0, 79, 0
2, 30336, Note_on_c, 0, 74, 75
2, 30425, Note_on_c, 0, 74, 0
2, 30432, Note_on_c, 0, 76, 75
2, 30455, Note_on_c, 0, 76, 0
2, 30456, Note_on_c, 0, 74, 75
2, 30479, Note_on_c, 0, 74, 0
2, 30480, Note_on_c, 0, 76, 75
2, 30503, Note_on_c, 0, 76, 0
2, 30504, Note_on_c, 0, 78, 75
2, 30527, Note_on_c, 0, 78, 0
2, 30528, Note_on_c, 0, 79, 91
2, 30624, Note_on_c, 0, 79, 0
2, 30624, Note_on_c, 0, 83, 75
2, 30654, Note_on_c, 0, 83, 0
2, 30656, Note_on_c, 0, 81, 75
2, 30686, Note_on_c, 0, 81, 0
2, 30688, Note_on_c, 0, 79, 75
2, 30718, Note_on_c, 0, 79, 0
2, 30720, Note_on_c, 0, 78, 75
2, 30750, Note_on_c, 0, 78, 0
2, 30752, Note_on_c, 0, 76, 75
2, 30782, Note_on_c, 0, 76, 0
2, 30784, Note_on_c, 0, 74, 75
2, 30814, Note_on_c, 0, 74, 0
2, 30816, Note_on_c, 0, 76, 75
2, 30846, Note_on_c, 0, 76, 0
2, 30848, Note_on_c, 0, 74, 75
2, 30878, Note_on_c, 0, 74, 0
2, 30880, Note_on_c, 0, 72, 75
2, 30910, Note_on_c, 0, 72, 0
2, 30912, Note_on_c, 0, 71, 75
2, 31001, Note_on_c, 0, 71, 0
2, 31008, Note_on_c, 0, 71, 75
2, 31023, Note_on_c, 0, 71, 0
2, 31024, Note_on_c, 0, 69, 75
2, 31039, Note_on_c, 0, 69, 0
2, 31040, Note_on_c, 0, 71, 75
2, 31055, Note_on_c, 0, 71, 0
2, 31056, Note_on_c, 0, 69, 75
2, 31071, Note_on_c, 0, 69, 0
2, 31072, Note_on_c, 0, 67, 75
2, 31087, Note_on_c, 0, 67, 0
2, 31088, Note_on_c, 0, 69, 75
2, 31103, Note_on_c, 0, 69, 0
2, 31104, Note_on_c, 0, 67, 75
2, 31281, Note_on_c, 0, 67, 0
2, 31296, Note_on_c, 0, 76, 75
2, 31319, Note_on_c, 0, 76, 0
2, 31320, Note_on_c, 0, 74, 75
2, 31343, Note_on_c, 0, 74, 0
2, 31344, Note_on_c, 0, 76, 75
2, 31367, Note_on_c, 0, 76, 0
2, 31368, Note_on_c, 0, 77, 75
2, 31391, Note_on_c, 0, 77, 0
2, 31392, Note_on_c, 0, 79, 91
2, 31488, Note_on_c, 0, 79, 0
2, 31488, Note_on_c, 0, 72, 75
2, 31577, Note_on_c, 0, 72, 0
2, 31584, Note_on_c, 0, 72, 75
2, 31673, Note_on_c, 0, 72, 0
2, 31680, Note_on_c, 0, 74, 70
2, 31695, Note_on_c, 0, 74, 0
2, 31696, Note_on_c, 0, 72, 70
2, 31711, Note_on_c, 0, 72, 0
2, 31712, Note_on_c, 0, 74, 70
2, 31727, Note_on_c, 0, 74, 0
2, 31728, Note_on_c, 0, 72, 70
2, 31743, Note_on_c, 0, 72, 0
2, 31744, Note_on_c, 0, 74, 70
2, 31759, Note_on_c, 0, 74, 0
2, 31760, Note_on_c, 0, 72, 70
2, 31775, Note_on_c, 0, 72, 0
2, 31776, Note_on_c, 0, 74, 70
2, 31791, Note_on_c, 0, 74, 0
2, 31792, Note_on_c, 0, 72, 70
2, 31807, Note_on_c, 0, 72, 0
2, 31808, Note_on_c, 0, 74, 70
2, 31823, Note_on_c, 0, 74, 0
2, 31824, Note_on_c, 0, 72, 70
2, 31871, Note_on_c, 0, 72, 0
2, 31872, Note_on_c, 0, 84, 75
2, 31961, Note_on_c, 0, 84, 0
2, 31968, Note_on_c, 0, 83, 75
2, 31983, Note_on_c, 0, 83, 0
2, 31984, Note_on_c, 0, 81, 75
2, 31999, Note_on_c, 0, 81, 0
2, 32000, Note_on_c, 0, 83, 75
2, 32015, Note_on_c, 0, 83, 0
2, 32016, Note_on_c, 0, 81, 75
2, 32031, Note_on_c, 0, 81, 0
2, 32032, Note_on_c, 0, 79, 75
2, 32047, Note_on_c, 0, 79, 0
2, 32048, Note_on_c, 0, 81, 75
2, 32063, Note_on_c, 0, 81, 0
2, 32064, Note_on_c, 0, 79, 75
2, 32153, Note_on_c, 0, 79, 0
2, 32160, Note_on_c, 0, 84, 75
2, 32249, Note_on_c, 0, 84, 0
2, 32256, Note_on_c, 0, 79, 75
2, 32271, Note_on_c, 0, 79, 0
2, 32272, Note_on_c, 0, 77, 75
2, 32287, Note_on_c, 0, 77, 0
2, 32288, Note_on_c, 0, 79, 75
2, 32303, Note_on_c, 0, 79, 0
2, 32304, Note_on_c, 0, 77, 75
2, 32319, Note_on_c, 0, 77, 0
2, 32320, Note_on_c, 0, 76, 75
2, 32335, Note_on_c, 0, 76, 0
2, 32336, Note_on_c, 0, 77, 75
2, 32351, Note_on_c, 0, 77, 0
2, 32352, Note_on_c, 0, 76, 75
2, 32441, Note_on_c, 0, 76, 0
2, 32448, Note_on_c, 0, 76, 75
2, 32471, Note_on_c, 0, 76, 0
2, 32472, Note_on_c, 0, 74, 75
2, 32495, Note_on_c, 0, 74, 0
2, 32496, Note_on_c, 0, 76, 75
2, 32519, Note_on_c, 0, 76, 0
2, 32520, Note_on_c, 0, 78, 75
2, 32543, Note_on_c, 0, 78, 0
2, 32544, Note_on_c, 0, 79, 91
2, 32640, Note_on_c, 0, 79, 0
2, 32640, Note_on_c, 0, 74, 75
2, 32729, Note_on_c, 0, 74, 0
2, 32736, Note_on_c, 0, 76, 75
2, 32759, Note_on_c, 0, 76, 0
2, 32760, Note_on_c, 0, 74, 75
2, 32783, Note_on_c, 0, 74, 0
2, 32784, Note_on_c, 0, 76, 75
2, 32807, Note_on_c, 0, 76, 0
2, 32808, Note_on_c, 0, 78, 75
2, 32831, Note_on_c, 0, 78, 0
2, 32832, Note_on_c, 0, 79, 91
2, 32928, Note_on_c, 0, 79, 0
2, 32928, Note_on_c, 0, 83, 75
2, 32958, Note_on_c, 0, 83, 0
2, 32960, Note_on_c, 0, 81, 75
2, 32990, Note_on_c, 0, 81, 0
2, 32992, Note_on_c, 0, 79, 75
2, 33022, Note_on_c, 0, 79, 0
2, 33024, Note_on_c, 0, 78, 75
2, 33054, Note_on_c, 0, 78, 0
2, 33056, Note_on_c, 0, 76, 75
2, 33086, Note_on_c, 0, 76, 0
2, 33088, Note_on_c, 0, 74, 75
2, 33118, Note_on_c, 0, 74, 0
2, 33120, Note_on_c, 0, 76, 75
2, 33150, Note_on_c, 0, 76, 0
2, 33152, Note_on_c, 0, 74, 75
2, 33182, Note_on_c, 0, 74, 0
2, 33184, Note_on_c, 0, 72, 75
2, 33214, Note_on_c, 0, 72, 0
2, 33216, Note_on_c, 0, 71, 75
2, 33305, Note_on_c, 0, 71, 0
2, 33312, Note_on_c, 0, 71, 75
2, 33327, Note_on_c, 0, 71, 0
2, 33328, Note_on_c, 0, 69, 75
2, 33343, Note_on_c, 0, 69, 0
2, 33344, Note_on_c, 0, 71, 75
2, 33359, Note_on_c, 0, 71, 0
2, 33360, Note_on_c, 0, 69, 75
2, 33375, Note_on_c, 0, 69, 0
2, 33376, Note_on_c, 0, 67, 75
2, 33391, Note_on_c, 0, 67, 0
2, 33392, Note_on_c, 0, 69, 75
2, 33407, Note_on_c, 0, 69, 0
2, 33408, Note_on_c, 0, 67, 75
2, 33585, Note_on_c, 0, 67, 0
2, 33600, Note_on_c, 0, 79, 70
2, 33623, Note_on_c, 0, 79, 0
2, 33624, Note_on_c, 0, 81, 70
2, 33647, Note_on_c, 0, 81, 0
2, 33648, Note_on_c, 0, 82, 70
2, 33671, Note_on_c, 0, 82, 0
2, 33672, Note_on_c, 0, 84, 70
2, 33695, Note_on_c, 0, 84, 0
2, 33696, Note_on_c, 0, 82, 70
2, 33785, Note_on_c, 0, 82, 0
2, 33792, Note_on_c, 0, 73, 70
2, 33881, Note_on_c, 0, 73, 0
2, 33888, Note_on_c, 0, 73, 70
2, 33977, Note_on_c, 0, 73, 0
2, 33984, Note_on_c, 0, 73, 70
2, 34080, Note_on_c, 0, 73, 0
2, 34080, Note_on_c, 0, 74, 70
2, 34169, Note_on_c, 0, 74, 0
2, 34176, Note_on_c, 0, 77, 70
2, 34199, Note_on_c, 0, 77, 0
2, 34200, Note_on_c, 0, 76, 70
2, 34223, Note_on_c, 0, 76, 0
2, 34224, Note_on_c, 0, 77, 70
2, 34247, Note_on_c, 0, 77, 0
2, 34248, Note_on_c, 0, 79, 70
2, 34271, Note_on_c, 0, 79, 0
2, 34272, Note_on_c, 0, 81, 70
2, 34361, Note_on_c, 0, 81, 0
2, 34368, Note_on_c, 0, 71, 70
2, 34457, Note_on_c, 0, 71, 0
2, 34464, Note_on_c, 0, 71, 70
2, 34553, Note_on_c, 0, 71, 0
2, 34560, Note_on_c, 0, 71, 70
2, 34656, Note_on_c, 0, 71, 0
2, 34656, Note_on_c, 0, 72, 70
2, 34745, Note_on_c, 0, 72, 0
2, 34752, Note_on_c, 0, 67, 70
2, 34775, Note_on_c, 0, 67, 0
2, 34776, Note_on_c, 0, 72, 70
2, 34799, Note_on_c, 0, 72, 0
2, 34800, Note_on_c, 0, 76, 70
2, 34823, Note_on_c, 0, 76, 0
2, 34824, Note_on_c, 0, 79, 70
2, 34847, Note_on_c, 0, 79, 0
2, 34848, Note_on_c, 0, 67, 71
2, 34944, Note_on_c, 0, 67, 0
2, 34944, Note_on_c, 0, 65, 72
2, 35033, Note_on_c, 0, 65, 0
2, 35040, Note_on_c, 0, 65, 73
2, 35063, Note_on_c, 0, 65, 0
2, 35064, Note_on_c, 0, 71, 73
2, 35087, Note_on_c, 0, 71, 0
2, 35088, Note_on_c, 0, 74, 73
2, 35111, Note_on_c, 0, 74, 0
2, 35112, Note_on_c, 0, 77, 74
2, 35135, Note_on_c, 0, 77, 0
2, 35136, Note_on_c, 0, 65, 74
2, 35232, Note_on_c, 0, 65, 0
2, 35232, Note_on_c, 0, 64, 75
2, 35321, Note_on_c, 0, 64, 0
2, 35328, Note_on_c, 0, 67, 76
2, 35351, Note_on_c, 0, 67, 0
2, 35352, Note_on_c, 0, 72, 76
2, 35375, Note_on_c, 0, 72, 0
2, 35376, Note_on_c, 0, 76, 77
2, 35399, Note_on_c, 0, 76, 0
2, 35400, Note_on_c, 0, 79, 77
2, 35423, Note_on_c, 0, 79, 0
2, 35424, Note_on_c, 0, 67, 77
2, 35520, Note_on_c, 0, 67, 0
2, 35520, Note_on_c, 0, 65, 78
2, 35609, Note_on_c, 0, 65, 0
2, 35616, Note_on_c, 0, 64, 79
2, 35705, Note_on_c, 0, 64, 0
2, 35712, Note_on_c, 0, 65, 81
2, 35727, Note_on_c, 0, 65, 0
2, 35728, Note_on_c, 0, 64, 81
2, 35743, Note_on_c, 0, 64, 0
2, 35744, Note_on_c, 0, 65, 81
2, 35759, Note_on_c, 0, 65, 0
2, 35760, Note_on_c, 0, 64, 81
2, 35775, Note_on_c, 0, 64, 0
2, 35776, Note_on_c, 0, 62, 81
2, 35791, Note_on_c, 0, 62, 0
2, 35792, Note_on_c, 0, 64, 81
2, 35807, Note_on_c, 0, 64, 0
2, 35808, Note_on_c, 0, 62, 81
2, 35897, Note_on_c, 0, 62, 0
2, 35904, Note_on_c, 0, 76, 75
2, 35927, Note_on_c, 0, 76, 0
2, 35928, Note_on_c, 0, 74, 75
2, 35951, Note_on_c, 0, 74, 0
2, 35952, Note_on_c, 0, 76, 75
2, 35975, Note_on_c, 0, 76, 0
2, 35976, Note_on_c, 0, 77, 75
2, 35999, Note_on_c, 0, 77, 0
2, 36000, Note_on_c, 0, 79, 75
2, 36089, Note_on_c, 0, 79, 0
2, 36096, Note_on_c, 0, 72, 75
2, 36185, Note_on_c, 0, 72, 0
2, 36192, Note_on_c, 0, 72, 75
2, 36281, Note_on_c, 0, 72, 0
2, 36288, Note_on_c, 0, 74, 70
2, 36303, Note_on_c, 0, 74, 0
2, 36304, Note_on_c, 0, 72, 70
2, 36319, Note_on_c, 0, 72, 0
2, 36320, Note_on_c, 0, 74, 70
2, 36335, Note_on_c, 0, 74, 0
2, 36336, Note_on_c, 0, 72, 70
2, 36351, Note_on_c, 0, 72, 0
2, 36352, Note_on_c, 0, 74, 70
2, 36367, Note_on_c, 0, 74, 0
2, 36368, Note_on_c, 0, 72, 70
2, 36383, Note_on_c, 0, 72, 0
2, 36384, Note_on_c, 0, 74, 70
2, 36399, Note_on_c, 0, 74, 0
2, 36400, Note_on_c, 0, 72, 70
2, 36415, Note_on_c, 0, 72, 0
2, 36416, Note_on_c, 0, 74, 70
2, 36431, Note_on_c, 0, 74, 0
2, 36432, Note_on_c, 0, 72, 70
2, 36479, Note_on_c, 0, 72, 0
2, 36480, Note_on_c, 0, 84, 75
2, 36569, Note_on_c, 0, 84, 0
2, 36576, Note_on_c, 0, 83, 75
2, 36591, Note_on_c, 0, 83, 0
2, 36592, Note_on_c, 0, 81, 75
2, 36607, Note_on_c, 0, 81, 0
2, 36608, Note_on_c, 0, 83, 75
2, 36623, Note_on_c, 0, 83, 0
2, 36624, Note_on_c, 0, 81, 75
2, 36639, Note_on_c, 0, 81, 0
2, 36640, Note_on_c, 0, 79, 75
2, 36655, Note_on_c, 0, 79, 0
2, 36656, Note_on_c, 0, 81, 75
2, 36671, Note_on_c, 0, 81, 0
2, 36672, Note_on_c, 0, 79, 75
2, 36761, Note_on_c, 0, 79, 0
2, 36768, Note_on_c, 0, 84, 75
2, 36857, Note_on_c, 0, 84, 0
2, 36864, Note_on_c, 0, 79, 75
2, 36879, Note_on_c, 0, 79, 0
2, 36880, Note_on_c, 0, 77, 75
2, 36895, Note_on_c, 0, 77, 0
2, 36896, Note_on_c, 0, 79, 75
2, 36911, Note_on_c, 0, 79, 0
2, 36912, Note_on_c, 0, 77, 75
2, 36927, Note_on_c, 0, 77, 0
2, 36928, Note_on_c, 0, 76, 75
2, 36943, Note_on_c, 0, 76, 0
2, 36944, Note_on_c, 0, 77, 75
2, 36959, Note_on_c, 0, 77, 0
2, 36960, Note_on_c, 0, 76, 75
2, 37049, Note_on_c, 0, 76, 0
2, 37056, Note_on_c, 0, 81, 75
2, 37079, Note_on_c, 0, 81, 0
2, 37080, Note_on_c, 0, 79, 75
2, 37103, Note_on_c, 0, 79, 0
2, 37104, Note_on_c, 0, 81, 75
2, 37127, Note_on_c, 0, 81, 0
2, 37128, Note_on_c, 0, 83, 75
2, 37151, Note_on_c, 0, 83, 0
2, 37152, Note_on_c, 0, 84, 75
2, 37241, Note_on_c, 0, 84, 0
2, 37248, Note_on_c, 0, 79, 75
2, 37337, Note_on_c, 0, 79, 0
2, 37344, Note_on_c, 0, 81, 75
2, 37367, Note_on_c, 0, 81, 0
2, 37368, Note_on_c, 0, 79, 75
2, 37391, Note_on_c, 0, 79, 0
2, 37392, Note_on_c, 0, 81, 75
2, 37415, Note_on_c, 0, 81, 0
2, 37416, Note_on_c, 0, 83, 75
2, 37439, Note_on_c, 0, 83, 0
2, 37440, Note_on_c, 0, 84, 75
2, 37529, Note_on_c, 0, 84, 0
2, 37536, Note_on_c, 0, 84, 75
2, 37566, Note_on_c, 0, 84, 0
2, 37568, Note_on_c, 0, 83, 75
2, 37598, Note_on_c, 0, 83, 0
2, 37600, Note_on_c, 0, 81, 75
2, 37630, Note_on_c, 0, 81, 0
2, 37632, Note_on_c, 0, 79, 75
2, 37662, Note_on_c, 0, 79, 0
2, 37664, Note_on_c, 0, 77, 75
2, 37694, Note_on_c, 0, 77, 0
2, 37696, Note_on_c, 0, 76, 75
2, 37726, Note_on_c, 0, 76, 0
2, 37728, Note_on_c, 0, 74, 75
2, 37758, Note_on_c, 0, 74, 0
2, 37760, Note_on_c, 0, 77, 75
2, 37790, Note_on_c, 0, 77, 0
2, 37792, Note_on_c, 0, 81, 75
2, 37822, Note_on_c, 0, 81, 0
2, 37824, Note_on_c, 0, 72, 75
2, 37913, Note_on_c, 0, 72, 0
2, 37920, Note_on_c, 0, 72, 75
2, 37935, Note_on_c, 0, 72, 0
2, 37936, Note_on_c, 0, 71, 75
2, 37951, Note_on_c, 0, 71, 0
2, 37952, Note_on_c, 0, 72, 75
2, 37967, Note_on_c, 0, 72, 0
2, 37968, Note_on_c, 0, 71, 75
2, 37983, Note_on_c, 0, 71, 0
2, 37984, Note_on_c, 0, 69, 75
2, 37999, Note_on_c, 0, 69, 0
2, 38000, Note_on_c, 0, 71, 75
2, 38015, Note_on_c, 0, 71, 0
2, 38016, Note_on_c, 0, 72, 75
2, 38193, Note_on_c, 0, 72, 0
2, 38208, Note_on_c, 0, 79, 70
2, 38231, Note_on_c, 0, 79, 0
2, 38232, Note_on_c, 0, 81, 70
2, 38255, Note_on_c, 0, 81, 0
2, 38256, Note_on_c, 0, 82, 70
2, 38279, Note_on_c, 0, 82, 0
2, 38280, Note_on_c, 0, 84, 70
2, 38303, Note_on_c, 0, 84, 0
2, 38304, Note_on_c, 0, 82, 70
2, 38393, Note_on_c, 0, 82, 0
2, 38400, Note_on_c, 0, 73, 70
2, 38489, Note_on_c, 0, 73, 0
2, 38496, Note_on_c, 0, 73, 70
2, 38585, Note_on_c, 0, 73, 0
2, 38592, Note_on_c, 0, 73, 70
2, 38688, Note_on_c, 0, 73, 0
2, 38688, Note_on_c, 0, 74, 70
2, 38777, Note_on_c, 0, 74, 0
2, 38784, Note_on_c, 0, 77, 70
2, 38807, Note_on_c, 0, 77, 0
2, 38808, Note_on_c, 0, 76, 70
2, 38831, Note_on_c, 0, 76, 0
2, 38832, Note_on_c, 0, 77, 70
2, 38855, Note_on_c, 0, 77, 0
2, 38856, Note_on_c, 0, 79, 70
2, 38879, Note_on_c, 0, 79, 0
2, 38880, Note_on_c, 0, 81, 70
2, 38969, Note_on_c, 0, 81, 0
2, 38976, Note_on_c, 0, 71, 70
2, 39065, Note_on_c, 0, 71, 0
2, 39072, Note_on_c, 0, 71, 70
2, 39161, Note_on_c, 0, 71, 0
2, 39168, Note_on_c, 0, 71, 70
2, 39264, Note_on_c, 0, 71, 0
2, 39264, Note_on_c, 0, 72, 70
2, 39353, Note_on_c, 0, 72, 0
2, 39360, Note_on_c, 0, 67, 70
2, 39383, Note_on_c, 0, 67, 0
2, 39384, Note_on_c, 0, 72, 70
2, 39407, Note_on_c, 0, 72, 0
2, 39408, Note_on_c, 0, 76, 70
2, 39431, Note_on_c, 0, 76, 0
2, 39432, Note_on_c, 0, 79, 70
2, 39455, Note_on_c, 0, 79, 0
2, 39456, Note_on_c, 0, 67, 71
2, 39552, Note_on_c, 0, 67, 0
2, 39552, Note_on_c, 0, 65, 72
2, 39641, Note_on_c, 0, 65, 0
2, 39648, Note_on_c, 0, 65, 73
2, 39671, Note_on_c, 0, 65, 0
2, 39672, Note_on_c, 0, 71, 73
2, 39695, Note_on_c, 0, 71, 0
2, 39696, Note_on_c, 0, 74, 73
2, 39719, Note_on_c, 0, 74, 0
2, 39720, Note_on_c, 0, 77, 74
2, 39743, Note_on_c, 0, 77, 0
2, 39744, Note_on_c, 0, 65, 74
2, 39840, Note_on_c, 0, 65, 0
2, 39840, Note_on_c, 0, 64, 75
2, 39929, Note_on_c, 0, 64, 0
2, 39936, Note_on_c, 0, 67, 76
2, 39959, Note_on_c, 0, 67, 0
2, 39960, Note_on_c, 0, 72, 76
2, 39983, Note_on_c, 0, 72, 0
2, 39984, Note_on_c, 0, 76, 77
2, 40007, Note_on_c, 0, 76, 0
2, 40008, Note_on_c, 0, 79, 77
2, 40031, Note_on_c, 0, 79, 0
2, 40032, Note_on_c, 0, 67, 77
2, 40128, Note_on_c, 0, 67, 0
2, 40128, Note_on_c, 0, 65, 78
2, 40217, Note_on_c, 0, 65, 0
2, 40224, Note_on_c, 0, 64, 79
2, 40313, Note_on_c, 0, 64, 0
2, 40320, Note_on_c, 0, 65, 81
2, 40335, Note_on_c, 0, 65, 0
2, 40336, Note_on_c, 0, 64, 81
2, 40351, Note_on_c, 0, 64, 0
2, 40352, Note_on_c, 0, 65, 81
2, 40367, Note_on_c, 0, 65, 0
2, 40368, Note_on_c, 0, 64, 81
2, 40383, Note_on_c, 0, 64, 0
2, 40384, Note_on_c, 0, 62, 81
2, 40399, Note_on_c, 0, 62, 0
2, 40400, Note_on_c, 0, 64, 81
2, 40415, Note_on_c, 0, 64, 0
2, 40416, Note_on_c, 0, 62, 81
2, 40505, Note_on_c, 0, 62, 0
2, 40512, Note_on_c, 0, 76, 75
2, 40535, Note_on_c, 0, 76, 0
2, 40536, Note_on_c, 0, 74, 75
2, 40559, Note_on_c, 0, 74, 0
2, 40560, Note_on_c, 0, 76, 75
2, 40583, Note_on_c, 0, 76, 0
2, 40584, Note_on_c, 0, 77, 75
2, 40607, Note_on_c, 0, 77, 0
2, 40608, Note_on_c, 0, 79, 75
2, 40697, Note_on_c, 0, 79, 0
2, 40704, Note_on_c, 0, 72, 75
2, 40793, Note_on_c, 0, 72, 0
2, 40800, Note_on_c, 0, 72, 75
2, 40889, Note_on_c, 0, 72, 0
2, 40896, Note_on_c, 0, 74, 70
2, 40911, Note_on_c, 0, 74, 0
2, 40912, Note_on_c, 0, 72, 70
2, 40927, Note_on_c, 0, 72, 0
2, 40928, Note_on_c, 0, 74, 70
2, 40943, Note_on_c, 0, 74, 0
2, 40944, Note_on_c, 0, 72, 70
2, 40959, Note_on_c, 0, 72, 0
2, 40960, Note_on_c, 0, 74, 70
2, 40975, Note_on_c, 0, 74, 0
2, 40976, Note_on_c, 0, 72, 70
2, 40991, Note_on_c, 0, 72, 0
2, 40992, Note_on_c, 0, 74, 70
2, 41007, Note_on_c, 0, 74, 0
2, 41008, Note_on_c, 0, 72, 70
2, 41023, Note_on_c, 0, 72, 0
2, 41024, Note_on_c, 0, 74, 70
2, 41039, Note_on_c, 0, 74, 0
2, 41040, Note_on_c, 0, 72, 70
2, 41087, Note_on_c, 0, 72, 0
2, 41088, Note_on_c, 0, 84, 75
2, 41177, Note_on_c, 0, 84, 0
2, 41184, Note_on_c, 0, 83, 75
2, 41199, Note_on_c, 0, 83, 0
2, 41200, Note_on_c, 0, 81, 75
2, 41215, Note_on_c, 0, 81, 0
2, 41216, Note_on_c, 0, 83, 75
2, 41231, Note_on_c, 0, 83, 0
2, 41232, Note_on_c, 0, 81, 75
2, 41247, Note_on_c, 0, 81, 0
2, 41248, Note_on_c, 0, 79, 75
2, 41263, Note_on_c, 0, 79, 0
2, 41264, Note_on_c, 0, 81, 75
2, 41279, Note_on_c, 0, 81, 0
2, 41280, Note_on_c, 0, 79, 75
2, 41369, Note_on_c, 0, 79, 0
2, 41376, Note_on_c, 0, 84, 75
2, 41465, Note_on_c, 0, 84, 0
2, 41472, Note_on_c, 0, 79, 75
2, 41487, Note_on_c, 0, 79, 0
2, 41488, Note_on_c, 0, 77, 75
2, 41503, Note_on_c, 0, 77, 0
2, 41504, Note_on_c, 0, 79, 75
2, 41519, Note_on_c, 0, 79, 0
2, 41520, Note_on_c, 0, 77, 75
2, 41535, Note_on_c, 0, 77, 0
2, 41536, Note_on_c, 0, 76, 75
2, 41551, Note_on_c, 0, 76, 0
2, 41552, Note_on_c, 0, 77, 75
2, 41567, Note_on_c, 0, 77, 0
2, 41568, Note_on_c, 0, 76, 75
2, 41657, Note_on_c, 0, 76, 0
2, 41664, Note_on_c, 0, 81, 75
2, 41687, Note_on_c, 0, 81, 0
2, 41688, Note_on_c, 0, 79, 75
2, 41711, Note_on_c, 0, 79, 0
2, 41712, Note_on_c, 0, 81, 75
2, 41735, Note_on_c, 0, 81, 0
2, 41736, Note_on_c, 0, 83, 75
2, 41759, Note_on_c, 0, 83, 0
2, 41760, Note_on_c, 0, 84, 75
2, 41849, Note_on_c, 0, 84, 0
2, 41856, Note_on_c, 0, 79, 75
2, 41945, Note_on_c, 0, 79, 0
2, 41952, Note_on_c, 0, 81, 75
2, 41975, Note_on_c, 0, 81, 0
2, 41976, Note_on_c, 0, 79, 75
2, 41999, Note_on_c, 0, 79, 0
2, 42000, Note_on_c, 0, 81, 75
2, 42023, Note_on_c, 0, 81, 0
2, 42024, Note_on_c, 0, 83, 75
2, 42047, Note_on_c, 0, 83, 0
2, 42048, Note_on_c, 0, 84, 75
2, 42137, Note_on_c, 0, 84, 0
2, 42144, Note_on_c, 0, 84, 75
2, 42174, Note_on_c, 0, 84, 0
2, 42176, Note_on_c, 0, 83, 75
2, 42206, Note_on_c, 0, 83, 0
2, 42208, Note_on_c, 0, 81, 75
2, 42238, Note_on_c, 0, 81, 0
2, 42240, Note_on_c, 0, 79, 75
2, 42270, Note_on_c, 0, 79, 0
2, 42272, Note_on_c, 0, 77, 75
2, 42302, Note_on_c, 0, 77, 0
2, 42304, Note_on_c, 0, 76, 75
2, 42334, Note_on_c, 0, 76, 0
2, 42336, Note_on_c, 0, 74, 75
2, 42366, Note_on_c, 0, 74, 0
2, 42368, Note_on_c, 0, 77, 75
2, 42398, Note_on_c, 0, 77, 0
2, 42400, Note_on_c, 0, 81, 75
2, 42430, Note_on_c, 0, 81, 0
2, 42432, Note_on_c, 0, 72, 75
2, 42521, Note_on_c, 0, 72, 0
2, 42528, Note_on_c, 0, 72, 75
2, 42543, Note_on_c, 0, 72, 0
2, 42544, Note_on_c, 0, 71, 75
2, 42559, Note_on_c, 0, 71, 0
2, 42560, Note_on_c, 0, 72, 75
2, 42575, Note_on_c, 0, 72, 0
2, 42576, Note_on_c, 0, 71, 75
2, 42591, Note_on_c, 0, 71, 0
2, 42592, Note_on_c, 0, 69, 75
2, 42607, Note_on_c, 0, 69, 0
2, 42608, Note_on_c, 0, 71, 75
2, 42623, Note_on_c, 0, 71, 0
2, 42624, Note_on_c, 0, 72, 75
2, 42801, Note_on_c, 0, 72, 0
2, 42912, End_track
3, 0, Start_track
3, 0, Program_c, 0, 0
3, 0, Control_c, 0, 7, 127
3, 0, Control_c, 0, 10, 64
3, 42912, End_track
4, 0, Start_track
4, 0, Program_c, 1, 0
4, 0, Control_c, 1, 7, 127
4, 0, Control_c, 1, 10, 64
4, 384, Note_on_c, 1, 64, 75
4, 384, Note_on_c, 1, 60, 75
4, 473, Note_on_c, 1, 64, 0
4, 473, Note_on_c, 1, 60, 0
4, 480, Note_on_c, 1, 65, 75
4, 480, Note_on_c, 1, 62, 75
4, 569, Note_on_c, 1, 65, 0
4, 569, Note_on_c, 1, 62, 0
4, 576, Note_on_c, 1, 67, 75
4, 576, Note_on_c, 1, 64, 75
4, 665, Note_on_c, 1, 67, 0
4, 665, Note_on_c, 1, 64, 0
4, 864, Note_on_c, 1, 72, 75
4, 864, Note_on_c, 1, 65, 75
4, 953, Note_on_c, 1, 72, 0
4, 953, Note_on_c, 1, 65, 0
4, 960, Note_on_c, 1, 72, 75
4, 960, Note_on_c, 1, 64, 75
4, 1049, Note_on_c, 1, 72, 0
4, 1049, Note_on_c, 1, 64, 0
4, 1152, Note_on_c, 1, 67, 75
4, 1152, Note_on_c, 1, 59, 75
4, 1241, Note_on_c, 1, 67, 0
4, 1241, Note_on_c, 1, 59, 0
4, 1248, Note_on_c, 1, 67, 75
4, 1248, Note_on_c, 1, 60, 75
4, 1337, Note_on_c, 1, 67, 0
4, 1337, Note_on_c, 1, 60, 0
4, 1344, Note_on_c, 1, 67, 75
4, 1344, Note_on_c, 1, 60, 75
4, 1433, Note_on_c, 1, 67, 0
4, 1433, Note_on_c, 1, 60, 0
4, 1440, Note_on_c, 1, 67, 75
4, 1440, Note_on_c, 1, 59, 75
4, 1617, Note_on_c, 1, 67, 0
4, 1617, Note_on_c, 1, 59, 0
4, 1632, Note_on_c, 1, 67, 75
4, 1632, Note_on_c, 1, 60, 75
4, 1721, Note_on_c, 1, 67, 0
4, 1721, Note_on_c, 1, 60, 0
4, 1728, Note_on_c, 1, 67, 75
4, 1728, Note_on_c, 1, 59, 75
4, 1905, Note_on_c, 1, 67, 0
4, 1905, Note_on_c, 1, 59, 0
4, 2016, Note_on_c, 1, 60, 75
4, 2105, Note_on_c, 1, 60, 0
4, 2112, Note_on_c, 1, 62, 75
4, 2201, Note_on_c, 1, 62, 0
4, 2208, Note_on_c, 1, 50, 75
4, 2297, Note_on_c, 1, 50, 0
4, 2304, Note_on_c, 1, 55, 75
4, 2393, Note_on_c, 1, 55, 0
4, 2400, Note_on_c, 1, 43, 75
4, 2489, Note_on_c, 1, 43, 0
4, 2688, Note_on_c, 1, 64, 75
4, 2688, Note_on_c, 1, 60, 75
4, 2777, Note_on_c, 1, 64, 0
4, 2777, Note_on_c, 1, 60, 0
4, 2784, Note_on_c, 1, 65, 75
4, 2784, Note_on_c, 1, 62, 75
4, 2873, Note_on_c, 1, 65, 0
4, 2873, Note_on_c, 1, 62, 0
4, 2880, Note_on_c, 1, 67, 75
4, 2880, Note_on_c, 1, 64, 75
4, 2969, Note_on_c, 1, 67, 0
4, 2969, Note_on_c, 1, 64, 0
4, 3168, Note_on_c, 1, 72, 75
4, 3168, Note_on_c, 1, 65, 75
4, 3257, Note_on_c, 1, 72, 0
4, 3257, Note_on_c, 1, 65, 0
4, 3264, Note_on_c, 1, 72, 75
4, 3264, Note_on_c, 1, 64, 75
4, 3353, Note_on_c, 1, 72, 0
4, 3353, Note_on_c, 1, 64, 0
4, 3456, Note_on_c, 1, 67, 75
4, 3456, Note_on_c, 1, 59, 75
4, 3545, Note_on_c, 1, 67, 0
4, 3545, Note_on_c, 1, 59, 0
4, 3552, Note_on_c, 1, 67, 75
4, 3552, Note_on_c, 1, 60, 75
4, 3641, Note_on_c, 1, 67, 0
4, 3641, Note_on_c, 1, 60, 0
4, 3648, Note_on_c, 1, 67, 75
4, 3648, Note_on_c, 1, 60, 75
4, 3737, Note_on_c, 1, 67, 0
4, 3737, Note_on_c, 1, 60, 0
4, 3744, Note_on_c, 1, 67, 75
4, 3744, Note_on_c, 1, 59, 75
4, 3921, Note_on_c, 1, 67, 0
4, 3921, Note_on_c, 1, 59, 0
4, 3936, Note_on_c, 1, 67, 75
4, 3936, Note_on_c, 1, 60, 75
4, 4025, Note_on_c, 1, 67, 0
4, 4025, Note_on_c, 1, 60, 0
4, 4032, Note_on_c, 1, 67, 75
4, 4032, Note_on_c, 1, 59, 75
4, 4209, Note_on_c, 1, 67, 0
4, 4209, Note_on_c, 1, 59, 0
4, 4320, Note_on_c, 1, 60, 75
4, 4409, Note_on_c, 1, 60, 0
4, 4416, Note_on_c, 1, 62, 75
4, 4505, Note_on_c, 1, 62, 0
4, 4512, Note_on_c, 1, 50, 75
4, 4601, Note_on_c, 1, 50, 0
4, 4608, Note_on_c, 1, 55, 75
4, 4697, Note_on_c, 1, 55, 0
4, 4704, Note_on_c, 1, 43, 75
4, 4793, Note_on_c, 1, 43, 0
4, 4992, Note_on_c, 1, 70, 66
4, 4992, Note_on_c, 1, 67, 66
4, 5081, Note_on_c, 1, 70, 0
4, 5081, Note_on_c, 1, 67, 0
4, 5088, Note_on_c, 1, 70, 66
4, 5088, Note_on_c, 1, 67, 66
4, 5177, Note_on_c, 1, 70, 0
4, 5177, Note_on_c, 1, 67, 0
4, 5184, Note_on_c, 1, 69, 66
4, 5184, Note_on_c, 1, 65, 66
4, 5361, Note_on_c, 1, 69, 0
4, 5361, Note_on_c, 1, 65, 0
4, 5568, Note_on_c, 1, 67, 70
4, 5568, Note_on_c, 1, 65, 70
4, 5657, Note_on_c, 1, 67, 0
4, 5657, Note_on_c, 1, 65, 0
4, 5664, Note_on_c, 1, 67, 70
4, 5664, Note_on_c, 1, 65, 70
4, 5753, Note_on_c, 1, 67, 0
4, 5753, Note_on_c, 1, 65, 0
4, 5760, Note_on_c, 1, 67, 70
4, 5760, Note_on_c, 1, 64, 70
4, 5937, Note_on_c, 1, 67, 0
4, 5937, Note_on_c, 1, 64, 0
4, 6048, Note_on_c, 1, 64, 71
4, 6144, Note_on_c, 1, 64, 0
4, 6144, Note_on_c, 1, 62, 72
4, 6233, Note_on_c, 1, 62, 0
4, 6336, Note_on_c, 1, 62, 74
4, 6432, Note_on_c, 1, 62, 0
4, 6432, Note_on_c, 1, 60, 75
4, 6521, Note_on_c, 1, 60, 0
4, 6624, Note_on_c, 1, 64, 77
4, 6720, Note_on_c, 1, 64, 0
4, 6720, Note_on_c, 1, 62, 78
4, 6809, Note_on_c, 1, 62, 0
4, 6816, Note_on_c, 1, 60, 79
4, 6905, Note_on_c, 1, 60, 0
4, 6912, Note_on_c, 1, 60, 81
4, 7008, Note_on_c, 1, 60, 0
4, 7008, Note_on_c, 1, 59, 81
4, 7097, Note_on_c, 1, 59, 0
4, 7296, Note_on_c, 1, 64, 75
4, 7296, Note_on_c, 1, 60, 75
4, 7385, Note_on_c, 1, 64, 0
4, 7385, Note_on_c, 1, 60, 0
4, 7392, Note_on_c, 1, 65, 75
4, 7392, Note_on_c, 1, 62, 75
4, 7481, Note_on_c, 1, 65, 0
4, 7481, Note_on_c, 1, 62, 0
4, 7488, Note_on_c, 1, 67, 75
4, 7488, Note_on_c, 1, 64, 75
4, 7577, Note_on_c, 1, 67, 0
4, 7577, Note_on_c, 1, 64, 0
4, 7776, Note_on_c, 1, 72, 75
4, 7776, Note_on_c, 1, 65, 75
4, 7865, Note_on_c, 1, 72, 0
4, 7865, Note_on_c, 1, 65, 0
4, 7872, Note_on_c, 1, 72, 75
4, 7872, Note_on_c, 1, 64, 75
4, 7961, Note_on_c, 1, 72, 0
4, 7961, Note_on_c, 1, 64, 0
4, 8064, Note_on_c, 1, 67, 75
4, 8064, Note_on_c, 1, 59, 75
4, 8153, Note_on_c, 1, 67, 0
4, 8153, Note_on_c, 1, 59, 0
4, 8160, Note_on_c, 1, 67, 75
4, 8160, Note_on_c, 1, 60, 75
4, 8249, Note_on_c, 1, 67, 0
4, 8249, Note_on_c, 1, 60, 0
4, 8256, Note_on_c, 1, 65, 75
4, 8256, Note_on_c, 1, 60, 75
4, 8345, Note_on_c, 1, 65, 0
4, 8345, Note_on_c, 1, 60, 0
4, 8352, Note_on_c, 1, 64, 75
4, 8352, Note_on_c, 1, 60, 75
4, 8529, Note_on_c, 1, 64, 0
4, 8529, Note_on_c, 1, 60, 0
4, 8544, Note_on_c, 1, 65, 75
4, 8544, Note_on_c, 1, 60, 75
4, 8633, Note_on_c, 1, 65, 0
4, 8633, Note_on_c, 1, 60, 0
4, 8640, Note_on_c, 1, 64, 75
4, 8640, Note_on_c, 1, 60, 75
4, 8817, Note_on_c, 1, 64, 0
4, 8817, Note_on_c, 1, 60, 0
4, 8928, Note_on_c, 1, 65, 75
4, 8928, Note_on_c, 1, 53, 75
4, 9017, Note_on_c, 1, 65, 0
4, 9017, Note_on_c, 1, 53, 0
4, 9024, Note_on_c, 1, 64, 75
4, 9024, Note_on_c, 1, 55, 75
4, 9113, Note_on_c, 1, 64, 0
4, 9113, Note_on_c, 1, 55, 0
4, 9120, Note_on_c, 1, 62, 75
4, 9120, Note_on_c, 1, 55, 75
4, 9209, Note_on_c, 1, 62, 0
4, 9209, Note_on_c, 1, 55, 0
4, 9216, Note_on_c, 1, 60, 75
4, 9305, Note_on_c, 1, 60, 0
4, 9312, Note_on_c, 1, 48, 75
4, 9401, Note_on_c, 1, 48, 0
4, 9600, Note_on_c, 1, 70, 66
4, 9600, Note_on_c, 1, 67, 66
4, 9689, Note_on_c, 1, 70, 0
4, 9689, Note_on_c, 1, 67, 0
4, 9696, Note_on_c, 1, 70, 66
4, 9696, Note_on_c, 1, 67, 66
4, 9785, Note_on_c, 1, 70, 0
4, 9785, Note_on_c, 1, 67, 0
4, 9792, Note_on_c, 1, 69, 66
4, 9792, Note_on_c, 1, 65, 66
4, 9969, Note_on_c, 1, 69, 0
4, 9969, Note_on_c, 1, 65, 0
4, 10176, Note_on_c, 1, 67, 70
4, 10176, Note_on_c, 1, 65, 70
4, 10265, Note_on_c, 1, 67, 0
4, 10265, Note_on_c, 1, 65, 0
4, 10272, Note_on_c, 1, 67, 70
4, 10272, Note_on_c, 1, 65, 70
4, 10361, Note_on_c, 1, 67, 0
4, 10361, Note_on_c, 1, 65, 0
4, 10368, Note_on_c, 1, 67, 70
4, 10368, Note_on_c, 1, 64, 70
4, 10545, Note_on_c, 1, 67, 0
4, 10545, Note_on_c, 1, 64, 0
4, 10656, Note_on_c, 1, 64, 71
4, 10752, Note_on_c, 1, 64, 0
4, 10752, Note_on_c, 1, 62, 72
4, 10841, Note_on_c, 1, 62, 0
4, 10944, Note_on_c, 1, 62, 74
4, 11040, Note_on_c, 1, 62, 0
4, 11040, Note_on_c, 1, 60, 75
4, 11129, Note_on_c, 1, 60, 0
4, 11232, Note_on_c, 1, 64, 77
4, 11328, Note_on_c, 1, 64, 0
4, 11328, Note_on_c, 1, 62, 78
4, 11417, Note_on_c, 1, 62, 0
4, 11424, Note_on_c, 1, 60, 79
4, 11513, Note_on_c, 1, 60, 0
4, 11520, Note_on_c, 1, 60, 81
4, 11616, Note_on_c, 1, 60, 0
4, 11616, Note_on_c, 1, 59, 81
4, 11705, Note_on_c, 1, 59, 0
4, 11904, Note_on_c, 1, 64, 75
4, 11904, Note_on_c, 1, 60, 75
4, 11993, Note_on_c, 1, 64, 0
4, 11993, Note_on_c, 1, 60, 0
4, 12000, Note_on_c, 1, 65, 75
4, 12000, Note_on_c, 1, 62, 75
4, 12089, Note_on_c, 1, 65, 0
4, 12089, Note_on_c, 1, 62, 0
4, 12096, Note_on_c, 1, 67, 75
4, 12096, Note_on_c, 1, 64, 75
4, 12185, Note_on_c, 1, 67, 0
4, 12185, Note_on_c, 1, 64, 0
4, 12384, Note_on_c, 1, 72, 75
4, 12384, Note_on_c, 1, 65, 75
4, 12473, Note_on_c, 1, 72, 0
4, 12473, Note_on_c, 1, 65, 0
4, 12480, Note_on_c, 1, 72, 75
4, 12480, Note_on_c, 1, 64, 75
4, 12569, Note_on_c, 1, 72, 0
4, 12569, Note_on_c, 1, 64, 0
4, 12672, Note_on_c, 1, 67, 75
4, 12672, Note_on_c, 1, 59, 75
4, 12761, Note_on_c, 1, 67, 0
4, 12761, Note_on_c, 1, 59, 0
4, 12768, Note_on_c, 1, 67, 75
4, 12768, Note_on_c, 1, 60, 75
4, 12857, Note_on_c, 1, 67, 0
4, 12857, Note_on_c, 1, 60, 0
4, 12864, Note_on_c, 1, 65, 75
4, 12864, Note_on_c, 1, 60, 75
4, 12953, Note_on_c, 1, 65, 0
4, 12953, Note_on_c, 1, 60, 0
4, 12960, Note_on_c, 1, 64, 75
4, 12960, Note_on_c, 1, 60, 75
4, 13137, Note_on_c, 1, 64, 0
4, 13137, Note_on_c, 1, 60, 0
4, 13152, Note_on_c, 1, 65, 75
4, 13152, Note_on_c, 1, 60, 75
4, 13241, Note_on_c, 1, 65, 0
4, 13241, Note_on_c, 1, 60, 0
4, 13248, Note_on_c, 1, 64, 75
4, 13248, Note_on_c, 1, 60, 75
4, 13425, Note_on_c, 1, 64, 0
4, 13425, Note_on_c, 1, 60, 0
4, 13536, Note_on_c, 1, 65, 75
4, 13536, Note_on_c, 1, 53, 75
4, 13625, Note_on_c, 1, 65, 0
4, 13625, Note_on_c, 1, 53, 0
4, 13632, Note_on_c, 1, 64, 75
4, 13632, Note_on_c, 1, 55, 75
4, 13721, Note_on_c, 1, 64, 0
4, 13721, Note_on_c, 1, 55, 0
4, 13728, Note_on_c, 1, 62, 75
4, 13728, Note_on_c, 1, 55, 75
4, 13817, Note_on_c, 1, 62, 0
4, 13817, Note_on_c, 1, 55, 0
4, 13824, Note_on_c, 1, 60, 75
4, 13913, Note_on_c, 1, 60, 0
4, 13920, Note_on_c, 1, 48, 75
4, 14009, Note_on_c, 1, 48, 0
4, 14304, Note_on_c, 1, 63, 70
4, 14393, Note_on_c, 1, 63, 0
4, 14400, Note_on_c, 1, 65, 70
4, 14489, Note_on_c, 1, 65, 0
4, 14496, Note_on_c, 1, 63, 70
4, 14585, Note_on_c, 1, 63, 0
4, 14880, Note_on_c, 1, 67, 70
4, 14969, Note_on_c, 1, 67, 0
4, 14976, Note_on_c, 1, 68, 70
4, 15065, Note_on_c, 1, 68, 0
4, 15072, Note_on_c, 1, 67, 70
4, 15161, Note_on_c, 1, 67, 0
4, 15456, Note_on_c, 1, 51, 70
4, 15545, Note_on_c, 1, 51, 0
4, 15552, Note_on_c, 1, 50, 70
4, 15641, Note_on_c, 1, 50, 0
4, 15648, Note_on_c, 1, 52, 71
4, 15737, Note_on_c, 1, 52, 0
4, 15744, Note_on_c, 1, 54, 72
4, 15833, Note_on_c, 1, 54, 0
4, 15840, Note_on_c, 1, 55, 73
4, 15929, Note_on_c, 1, 55, 0
4, 15936, Note_on_c, 1, 57, 74
4, 16025, Note_on_c, 1, 57, 0
4, 16032, Note_on_c, 1, 58, 75
4, 16121, Note_on_c, 1, 58, 0
4, 16128, Note_on_c, 1, 60, 76
4, 16393, Note_on_c, 1, 60, 0
4, 16416, Note_on_c, 1, 58, 79
4, 16505, Note_on_c, 1, 58, 0
4, 16512, Note_on_c, 1, 62, 81
4, 16601, Note_on_c, 1, 62, 0
4, 16608, Note_on_c, 1, 50, 81
4, 16697, Note_on_c, 1, 50, 0
4, 16704, Note_on_c, 1, 55, 78
4, 16793, Note_on_c, 1, 55, 0
4, 16800, Note_on_c, 1, 43, 70
4, 16889, Note_on_c, 1, 43, 0
4, 17184, Note_on_c, 1, 63, 70
4, 17273, Note_on_c, 1, 63, 0
4, 17280, Note_on_c, 1, 65, 70
4, 17369, Note_on_c, 1, 65, 0
4, 17376, Note_on_c, 1, 63, 70
4, 17465, Note_on_c, 1, 63, 0
4, 17760, Note_on_c, 1, 67, 70
4, 17849, Note_on_c, 1, 67, 0
4, 17856, Note_on_c, 1, 68, 70
4, 17945, Note_on_c, 1, 68, 0
4, 17952, Note_on_c, 1, 67, 70
4, 18041, Note_on_c, 1, 67, 0
4, 18336, Note_on_c, 1, 51, 70
4, 18425, Note_on_c, 1, 51, 0
4, 18432, Note_on_c, 1, 50, 70
4, 18521, Note_on_c, 1, 50, 0
4, 18528, Note_on_c, 1, 52, 71
4, 18617, Note_on_c, 1, 52, 0
4, 18624, Note_on_c, 1, 54, 72
4, 18713, Note_on_c, 1, 54, 0
4, 18720, Note_on_c, 1, 55, 73
4, 18809, Note_on_c, 1, 55, 0
4, 18816, Note_on_c, 1, 57, 74
4, 18905, Note_on_c, 1, 57, 0
4, 18912, Note_on_c, 1, 58, 75
4, 19001, Note_on_c, 1, 58, 0
4, 19008, Note_on_c, 1, 60, 76
4, 19273, Note_on_c, 1, 60, 0
4, 19296, Note_on_c, 1, 58, 79
4, 19385, Note_on_c, 1, 58, 0
4, 19392, Note_on_c, 1, 62, 81
4, 19481, Note_on_c, 1, 62, 0
4, 19488, Note_on_c, 1, 50, 81
4, 19577, Note_on_c, 1, 50, 0
4, 19584, Note_on_c, 1, 55, 78
4, 19673, Note_on_c, 1, 55, 0
4, 19680, Note_on_c, 1, 43, 70
4, 19769, Note_on_c, 1, 43, 0
4, 19872, Note_on_c, 1, 62, 75
4, 20049, Note_on_c, 1, 62, 0
4, 20064, Note_on_c, 1, 65, 75
4, 20153, Note_on_c, 1, 65, 0
4, 20160, Note_on_c, 1, 63, 75
4, 20249, Note_on_c, 1, 63, 0
4, 20256, Note_on_c, 1, 62, 75
4, 20345, Note_on_c, 1, 62, 0
4, 20352, Note_on_c, 1, 60, 75
4, 20441, Note_on_c, 1, 60, 0
4, 20448, Note_on_c, 1, 59, 75
4, 20537, Note_on_c, 1, 59, 0
4, 20544, Note_on_c, 1, 62, 75
4, 20633, Note_on_c, 1, 62, 0
4, 20640, Note_on_c, 1, 60, 75
4, 20729, Note_on_c, 1, 60, 0
4, 20736, Note_on_c, 1, 59, 75
4, 20913, Note_on_c, 1, 59, 0
4, 21024, Note_on_c, 1, 62, 66
4, 21201, Note_on_c, 1, 62, 0
4, 21216, Note_on_c, 1, 65, 66
4, 21305, Note_on_c, 1, 65, 0
4, 21312, Note_on_c, 1, 63, 66
4, 21401, Note_on_c, 1, 63, 0
4, 21408, Note_on_c, 1, 62, 66
4, 21497, Note_on_c, 1, 62, 0
4, 21504, Note_on_c, 1, 60, 66
4, 21593, Note_on_c, 1, 60, 0
4, 21600, Note_on_c, 1, 62, 66
4, 21689, Note_on_c, 1, 62, 0
4, 21696, Note_on_c, 1, 59, 66
4, 21785, Note_on_c, 1, 59, 0
4, 21792, Note_on_c, 1, 60, 66
4, 21881, Note_on_c, 1, 60, 0
4, 21888, Note_on_c, 1, 60, 66
4, 21984, Note_on_c, 1, 60, 0
4, 21984, Note_on_c, 1, 59, 66
4, 22065, Note_on_c, 1, 59, 0
4, 22368, Note_on_c, 1, 63, 70
4, 22457, Note_on_c, 1, 63, 0
4, 22464, Note_on_c, 1, 65, 70
4, 22553, Note_on_c, 1, 65, 0
4, 22560, Note_on_c, 1, 63, 70
4, 22649, Note_on_c, 1, 63, 0
4, 22944, Note_on_c, 1, 67, 70
4, 23033, Note_on_c, 1, 67, 0
4, 23040, Note_on_c, 1, 68, 70
4, 23129, Note_on_c, 1, 68, 0
4, 23136, Note_on_c, 1, 67, 70
4, 23225, Note_on_c, 1, 67, 0
4, 23520, Note_on_c, 1, 63, 70
4, 23609, Note_on_c, 1, 63, 0
4, 23616, Note_on_c, 1, 65, 70
4, 23881, Note_on_c, 1, 65, 0
4, 23904, Note_on_c, 1, 63, 70
4, 23993, Note_on_c, 1, 63, 0
4, 24000, Note_on_c, 1, 65, 70
4, 24089, Note_on_c, 1, 65, 0
4, 24096, Note_on_c, 1, 67, 70
4, 24185, Note_on_c, 1, 67, 0
4, 24192, Note_on_c, 1, 60, 70
4, 24281, Note_on_c, 1, 60, 0
4, 24288, Note_on_c, 1, 48, 70
4, 24377, Note_on_c, 1, 48, 0
4, 24480, Note_on_c, 1, 62, 75
4, 24657, Note_on_c, 1, 62, 0
4, 24672, Note_on_c, 1, 65, 75
4, 24761, Note_on_c, 1, 65, 0
4, 24768, Note_on_c, 1, 63, 75
4, 24857, Note_on_c, 1, 63, 0
4, 24864, Note_on_c, 1, 62, 75
4, 24953, Note_on_c, 1, 62, 0
4, 24960, Note_on_c, 1, 60, 75
4, 25049, Note_on_c, 1, 60, 0
4, 25056, Note_on_c, 1, 59, 75
4, 25145, Note_on_c, 1, 59, 0
4, 25152, Note_on_c, 1, 62, 75
4, 25241, Note_on_c, 1, 62, 0
4, 25248, Note_on_c, 1, 60, 75
4, 25337, Note_on_c, 1, 60, 0
4, 25344, Note_on_c, 1, 59, 75
4, 25521, Note_on_c, 1, 59, 0
4, 25632, Note_on_c, 1, 62, 66
4, 25809, Note_on_c, 1, 62, 0
4, 25824, Note_on_c, 1, 65, 66
4, 25913, Note_on_c, 1, 65, 0
4, 25920, Note_on_c, 1, 63, 66
4, 26009, Note_on_c, 1, 63, 0
4, 26016, Note_on_c, 1, 62, 66
4, 26105, Note_on_c, 1, 62, 0
4, 26112, Note_on_c, 1, 60, 66
4, 26201, Note_on_c, 1, 60, 0
4, 26208, Note_on_c, 1, 62, 66
4, 26297, Note_on_c, 1, 62, 0
4, 26304, Note_on_c, 1, 59, 66
4, 26393, Note_on_c, 1, 59, 0
4, 26400, Note_on_c, 1, 60, 66
4, 26489, Note_on_c, 1, 60, 0
4, 26496, Note_on_c, 1, 60, 66
4, 26592, Note_on_c, 1, 60, 0
4, 26592, Note_on_c, 1, 59, 66
4, 26673, Note_on_c, 1, 59, 0
4, 26976, Note_on_c, 1, 63, 70
4, 27065, Note_on_c, 1, 63, 0
4, 27072, Note_on_c, 1, 65, 70
4, 27161, Note_on_c, 1, 65, 0
4, 27168, Note_on_c, 1, 63, 70
4, 27257, Note_on_c, 1, 63, 0
4, 27552, Note_on_c, 1, 67, 70
4, 27641, Note_on_c, 1, 67, 0
4, 27648, Note_on_c, 1, 68, 70
4, 27737, Note_on_c, 1, 68, 0
4, 27744, Note_on_c, 1, 67, 70
4, 27833, Note_on_c, 1, 67, 0
4, 28128, Note_on_c, 1, 63, 70
4, 28217, Note_on_c, 1, 63, 0
4, 28224, Note_on_c, 1, 65, 70
4, 28489, Note_on_c, 1, 65, 0
4, 28512, Note_on_c, 1, 63, 70
4, 28601, Note_on_c, 1, 63, 0
4, 28608, Note_on_c, 1, 65, 70
4, 28697, Note_on_c, 1, 65, 0
4, 28704, Note_on_c, 1, 67, 70
4, 28793, Note_on_c, 1, 67, 0
4, 28800, Note_on_c, 1, 60, 70
4, 28889, Note_on_c, 1, 60, 0
4, 28896, Note_on_c, 1, 48, 70
4, 28985, Note_on_c, 1, 48, 0
4, 29184, Note_on_c, 1, 64, 75
4, 29184, Note_on_c, 1, 60, 75
4, 29273, Note_on_c, 1, 64, 0
4, 29273, Note_on_c, 1, 60, 0
4, 29280, Note_on_c, 1, 65, 75
4, 29280, Note_on_c, 1, 62, 75
4, 29369, Note_on_c, 1, 65, 0
4, 29369, Note_on_c, 1, 62, 0
4, 29376, Note_on_c, 1, 67, 75
4, 29376, Note_on_c, 1, 64, 75
4, 29465, Note_on_c, 1, 67, 0
4, 29465, Note_on_c, 1, 64, 0
4, 29664, Note_on_c, 1, 72, 75
4, 29664, Note_on_c, 1, 65, 75
4, 29753, Note_on_c, 1, 72, 0
4, 29753, Note_on_c, 1, 65, 0
4, 29760, Note_on_c, 1, 72, 75
4, 29760, Note_on_c, 1, 64, 75
4, 29849, Note_on_c, 1, 72, 0
4, 29849, Note_on_c, 1, 64, 0
4, 29952, Note_on_c, 1, 67, 75
4, 29952, Note_on_c, 1, 59, 75
4, 30041, Note_on_c, 1, 67, 0
4, 30041, Note_on_c, 1, 59, 0
4, 30048, Note_on_c, 1, 67, 75
4, 30048, Note_on_c, 1, 60, 75
4, 30137, Note_on_c, 1, 67, 0
4, 30137, Note_on_c, 1, 60, 0
4, 30144, Note_on_c, 1, 67, 75
4, 30144, Note_on_c, 1, 60, 75
4, 30233, Note_on_c, 1, 67, 0
4, 30233, Note_on_c, 1, 60, 0
4, 30240, Note_on_c, 1, 67, 75
4, 30240, Note_on_c, 1, 59, 75
4, 30417, Note_on_c, 1, 67, 0
4, 30417, Note_on_c, 1, 59, 0
4, 30432, Note_on_c, 1, 67, 75
4, 30432, Note_on_c, 1, 60, 75
4, 30521, Note_on_c, 1, 67, 0
4, 30521, Note_on_c, 1, 60, 0
4, 30528, Note_on_c, 1, 67, 75
4, 30528, Note_on_c, 1, 59, 75
4, 30705, Note_on_c, 1, 67, 0
4, 30705, Note_on_c, 1, 59, 0
4, 30816, Note_on_c, 1, 60, 75
4, 30905, Note_on_c, 1, 60, 0
4, 30912, Note_on_c, 1, 62, 75
4, 31001, Note_on_c, 1, 62, 0
4, 31008, Note_on_c, 1, 50, 75
4, 31097, Note_on_c, 1, 50, 0
4, 31104, Note_on_c, 1, 55, 75
4, 31193, Note_on_c, 1, 55, 0
4, 31200, Note_on_c, 1, 43, 75
4, 31289, Note_on_c, 1, 43, 0
4, 31488, Note_on_c, 1, 64, 75
4, 31488, Note_on_c, 1, 60, 75
4, 31577, Note_on_c, 1, 64, 0
4, 31577, Note_on_c, 1, 60, 0
4, 31584, Note_on_c, 1, 65, 75
4, 31584, Note_on_c, 1, 62, 75
4, 31673, Note_on_c, 1, 65, 0
4, 31673, Note_on_c, 1, 62, 0
4, 31680, Note_on_c, 1, 67, 75
4, 31680, Note_on_c, 1, 64, 75
4, 31769, Note_on_c, 1, 67, 0
4, 31769, Note_on_c, 1, 64, 0
4, 31968, Note_on_c, 1, 72, 75
4, 31968, Note_on_c, 1, 65, 75
4, 32057, Note_on_c, 1, 72, 0
4, 32057, Note_on_c, 1, 65, 0
4, 32064, Note_on_c, 1, 72, 75
4, 32064, Note_on_c, 1, 64, 75
4, 32153, Note_on_c, 1, 72, 0
4, 32153, Note_on_c, 1, 64, 0
4, 32256, Note_on_c, 1, 67, 75
4, 32256, Note_on_c, 1, 59, 75
4, 32345, Note_on_c, 1, 67, 0
4, 32345, Note_on_c, 1, 59, 0
4, 32352, Note_on_c, 1, 67, 75
4, 32352, Note_on_c, 1, 60, 75
4, 32441, Note_on_c, 1, 67, 0
4, 32441, Note_on_c, 1, 60, 0
4, 32448, Note_on_c, 1, 67, 75
4, 32448, Note_on_c, 1, 60, 75
4, 32537, Note_on_c, 1, 67, 0
4, 32537, Note_on_c, 1, 60, 0
4, 32544, Note_on_c, 1, 67, 75
4, 32544, Note_on_c, 1, 59, 75
4, 32721, Note_on_c, 1, 67, 0
4, 32721, Note_on_c, 1, 59, 0
4, 32736, Note_on_c, 1, 67, 75
4, 32736, Note_on_c, 1, 60, 75
4, 32825, Note_on_c, 1, 67, 0
4, 32825, Note_on_c, 1, 60, 0
4, 32832, Note_on_c, 1, 67, 75
4, 32832, Note_on_c, 1, 59, 75
4, 33009, Note_on_c, 1, 67, 0
4, 33009, Note_on_c, 1, 59, 0
4, 33120, Note_on_c, 1, 60, 75
4, 33209, Note_on_c, 1, 60, 0
4, 33216, Note_on_c, 1, 62, 75
4, 33305, Note_on_c, 1, 62, 0
4, 33312, Note_on_c, 1, 50, 75
4, 33401, Note_on_c, 1, 50, 0
4, 33408, Note_on_c, 1, 55, 75
4, 33497, Note_on_c, 1, 55, 0
4, 33504, Note_on_c, 1, 43, 75
4, 33593, Note_on_c, 1, 43, 0
4, 33792, Note_on_c, 1, 70, 66
4, 33792, Note_on_c, 1, 67, 66
4, 33881, Note_on_c, 1, 70, 0
4, 33881, Note_on_c, 1, 67, 0
4, 33888, Note_on_c, 1, 70, 66
4, 33888, Note_on_c, 1, 67, 66
4, 33977, Note_on_c, 1, 70, 0
4, 33977, Note_on_c, 1, 67, 0
4, 33984, Note_on_c, 1, 69, 66
4, 33984, Note_on_c, 1, 65, 66
4, 34161, Note_on_c, 1, 69, 0
4, 34161, Note_on_c, 1, 65, 0
4, 34368, Note_on_c, 1, 67, 70
4, 34368, Note_on_c, 1, 65, 70
4, 34457, Note_on_c, 1, 67, 0
4, 34457, Note_on_c, 1, 65, 0
4, 34464, Note_on_c, 1, 67, 70
4, 34464, Note_on_c, 1, 65, 70
4, 34553, Note_on_c, 1, 67, 0
4, 34553, Note_on_c, 1, 65, 0
4, 34560, Note_on_c, 1, 67, 70
4, 34560, Note_on_c, 1, 64, 70
4, 34737, Note_on_c, 1, 67, 0
4, 34737, Note_on_c, 1, 64, 0
4, 34848, Note_on_c, 1, 64, 71
4, 34944, Note_on_c, 1, 64, 0
4, 34944, Note_on_c, 1, 62, 72
4, 35033, Note_on_c, 1, 62, 0
4, 35136, Note_on_c, 1, 62, 74
4, 35232, Note_on_c, 1, 62, 0
4, 35232, Note_on_c, 1, 60, 75
4, 35321, Note_on_c, 1, 60, 0
4, 35424, Note_on_c, 1, 64, 77
4, 35520, Note_on_c, 1, 64, 0
4, 35520, Note_on_c, 1, 62, 78
4, 35609, Note_on_c, 1, 62, 0
4, 35616, Note_on_c, 1, 60, 79
4, 35705, Note_on_c, 1, 60, 0
4, 35712, Note_on_c, 1, 60, 81
4, 35808, Note_on_c, 1, 60, 0
4, 35808, Note_on_c, 1, 59, 81
4, 35897, Note_on_c, 1, 59, 0
4, 36096, Note_on_c, 1, 64, 75
4, 36096, Note_on_c, 1, 60, 75
4, 36185, Note_on_c, 1, 64, 0
4, 36185, Note_on_c, 1, 60, 0
4, 36192, Note_on_c, 1, 65, 75
4, 36192, Note_on_c, 1, 62, 75
4, 36281, Note_on_c, 1, 65, 0
4, 36281, Note_on_c, 1, 62, 0
4, 36288, Note_on_c, 1, 67, 75
4, 36288, Note_on_c, 1, 64, 75
4, 36377, Note_on_c, 1, 67, 0
4, 36377, Note_on_c, 1, 64, 0
4, 36576, Note_on_c, 1, 72, 75
4, 36576, Note_on_c, 1, 65, 75
4, 36665, Note_on_c, 1, 72, 0
4, 36665, Note_on_c, 1, 65, 0
4, 36672, Note_on_c, 1, 72, 75
4, 36672, Note_on_c, 1, 64, 75
4, 36761, Note_on_c, 1, 72, 0
4, 36761, Note_on_c, 1, 64, 0
4, 36864, Note_on_c, 1, 67, 75
4, 36864, Note_on_c, 1, 59, 75
4, 36953, Note_on_c, 1, 67, 0
4, 36953, Note_on_c, 1, 59, 0
4, 36960, Note_on_c, 1, 67, 75
4, 36960, Note_on_c, 1, 60, 75
4, 37049, Note_on_c, 1, 67, 0
4, 37049, Note_on_c, 1, 60, 0
4, 37056, Note_on_c, 1, 65, 75
4, 37056, Note_on_c, 1, 60, 75
4, 37145, Note_on_c, 1, 65, 0
4, 37145, Note_on_c, 1, 60, 0
4, 37152, Note_on_c, 1, 64, 75
4, 37152, Note_on_c, 1, 60, 75
4, 37329, Note_on_c, 1, 64, 0
4, 37329, Note_on_c, 1, 60, 0
4, 37344, Note_on_c, 1, 65, 75
4, 37344, Note_on_c, 1, 60, 75
4, 37433, Note_on_c, 1, 65, 0
4, 37433, Note_on_c, 1, 60, 0
4, 37440, Note_on_c, 1, 64, 75
4, 37440, Note_on_c, 1, 60, 75
4, 37617, Note_on_c, 1, 64, 0
4, 37617, Note_on_c, 1, 60, 0
4, 37728, Note_on_c, 1, 65, 75
4, 37728, Note_on_c, 1, 53, 75
4, 37817, Note_on_c, 1, 65, 0
4, 37817, Note_on_c, 1, 53, 0
4, 37824, Note_on_c, 1, 64, 75
4, 37824, Note_on_c, 1, 55, 75
4, 37913, Note_on_c, 1, 64, 0
4, 37913, Note_on_c, 1, 55, 0
4, 37920, Note_on_c, 1, 62, 75
4, 37920, Note_on_c, 1, 55, 75
4, 38009, Note_on_c, 1, 62, 0
4, 38009, Note_on_c, 1, 55, 0
4, 38016, Note_on_c, 1, 60, 75
4, 38105, Note_on_c, 1, 60, 0
4, 38112, Note_on_c, 1, 48, 75
4, 38201, Note_on_c, 1, 48, 0
4, 38400, Note_on_c, 1, 70, 66
4, 38400, Note_on_c, 1, 67, 66
4, 38489, Note_on_c, 1, 70, 0
4, 38489, Note_on_c, 1, 67, 0
4, 38496, Note_on_c, 1, 70, 66
4, 38496, Note_on_c, 1, 67, 66
4, 38585, Note_on_c, 1, 70, 0
4, 38585, Note_on_c, 1, 67, 0
4, 38592, Note_on_c, 1, 69, 66
4, 38592, Note_on_c, 1, 65, 66
4, 38769, Note_on_c, 1, 69, 0
4, 38769, Note_on_c, 1, 65, 0
4, 38976, Note_on_c, 1, 67, 70
4, 38976, Note_on_c, 1, 65, 70
4, 39065, Note_on_c, 1, 67, 0
4, 39065, Note_on_c, 1, 65, 0
4, 39072, Note_on_c, 1, 67, 70
4, 39072, Note_on_c, 1, 65, 70
4, 39161, Note_on_c, 1, 67, 0
4, 39161, Note_on_c, 1, 65, 0
4, 39168, Note_on_c, 1, 67, 70
4, 39168, Note_on_c, 1, 64, 70
4, 39345, Note_on_c, 1, 67, 0
4, 39345, Note_on_c, 1, 64, 0
4, 39456, Note_on_c, 1, 64, 71
4, 39552, Note_on_c, 1, 64, 0
4, 39552, Note_on_c, 1, 62, 72
4, 39641, Note_on_c, 1, 62, 0
4, 39744, Note_on_c, 1, 62, 74
4, 39840, Note_on_c, 1, 62, 0
4, 39840, Note_on_c, 1, 60, 75
4, 39929, Note_on_c, 1, 60, 0
4, 40032, Note_on_c, 1, 64, 77
4, 40128, Note_on_c, 1, 64, 0
4, 40128, Note_on_c, 1, 62, 78
4, 40217, Note_on_c, 1, 62, 0
4, 40224, Note_on_c, 1, 60, 79
4, 40313, Note_on_c, 1, 60, 0
4, 40320, Note_on_c, 1, 60, 81
4, 40416, Note_on_c, 1, 60, 0
4, 40416, Note_on_c, 1, 59, 81
4, 40505, Note_on_c, 1, 59, 0
4, 40704, Note_on_c, 1, 64, 75
4, 40704, Note_on_c, 1, 60, 75
4, 40793, Note_on_c, 1, 64, 0
4, 40793, Note_on_c, 1, 60, 0
4, 40800, Note_on_c, 1, 65, 75
4, 40800, Note_on_c, 1, 62, 75
4, 40889, Note_on_c, 1, 65, 0
4, 40889, Note_on_c, 1, 62, 0
4, 40896, Note_on_c, 1, 67, 75
4, 40896, Note_on_c, 1, 64, 75
4, 40985, Note_on_c, 1, 67, 0
4, 40985, Note_on_c, 1, 64, 0
4, 41184, Note_on_c, 1, 72, 75
4, 41184, Note_on_c, 1, 65, 75
4, 41273, Note_on_c, 1, 72, 0
4, 41273, Note_on_c, 1, 65, 0
4, 41280, Note_on_c, 1, 72, 75
4, 41280, Note_on_c, 1, 64, 75
4, 41369, Note_on_c, 1, 72, 0
4, 41369, Note_on_c, 1, 64, 0
4, 41472, Note_on_c, 1, 67, 75
4, 41472, Note_on_c, 1, 59, 75
4, 41561, Note_on_c, 1, 67, 0
4, 41561, Note_on_c, 1, 59, 0
4, 41568, Note_on_c, 1, 67, 75
4, 41568, Note_on_c, 1, 60, 75
4, 41657, Note_on_c, 1, 67, 0
4, 41657, Note_on_c, 1, 60, 0
4, 41664, Note_on_c, 1, 65, 75
4, 41664, Note_on_c, 1, 60, 75
4, 41753, Note_on_c, 1, 65, 0
4, 41753, Note_on_c, 1, 60, 0
4, 41760, Note_on_c, 1, 64, 75
4, 41760, Note_on_c, 1, 60, 75
4, 41937, Note_on_c, 1, 64, 0
4, 41937, Note_on_c, 1, 60, 0
4, 41952, Note_on_c, 1, 65, 75
4, 41952, Note_on_c, 1, 60, 75
4, 42041, Note_on_c, 1, 65, 0
4, 42041, Note_on_c, 1, 60, 0
4, 42048, Note_on_c, 1, 64, 75
4, 42048, Note_on_c, 1, 60, 75
4, 42225, Note_on_c, 1, 64, 0
4, 42225, Note_on_c, 1, 60, 0
4, 42336, Note_on_c, 1, 65, 75
4, 42336, Note_on_c, 1, 53, 75
4, 42425, Note_on_c, 1, 65, 0
4, 42425, Note_on_c, 1, 53, 0
4, 42432, Note_on_c, 1, 64, 75
4, 42432, Note_on_c, 1, 55, 75
4, 42521, Note_on_c, 1, 64, 0
4, 42521, Note_on_c, 1, 55, 0
4, 42528, Note_on_c, 1, 62, 75
4, 42528, Note_on_c, 1, 55, 75
4, 42617, Note_on_c, 1, 62, 0
4, 42617, Note_on_c, 1, 55, 0
4, 42624, Note_on_c, 1, 60, 75
4, 42713, Note_on_c, 1, 60, 0
4, 42720, Note_on_c, 1, 48, 75
4, 42809, Note_on_c, 1, 48, 0
4, 42816, Note_on_c, 1, 48, 0
4, 42905, Note_on_c, 1, 48, 0
4, 42912, End_track
5, 0, Start_track
5, 0, Program_c, 0, 0
5, 0, Control_c, 0, 7, 127
5, 0, Control_c, 0, 10, 64
5, 6048, Note_on_c, 0, 55, 64
5, 6225, Note_on_c, 0, 55, 0
5, 6336, Note_on_c, 0, 55, 64
5, 6513, Note_on_c, 0, 55, 0
5, 6624, Note_on_c, 0, 55, 64
5, 6801, Note_on_c, 0, 55, 0
5, 6912, Note_on_c, 0, 55, 64
5, 7089, Note_on_c, 0, 55, 0
5, 10656, Note_on_c, 0, 55, 64
5, 10833, Note_on_c, 0, 55, 0
5, 10944, Note_on_c, 0, 55, 64
5, 11121, Note_on_c, 0, 55, 0
5, 11232, Note_on_c, 0, 55, 64
5, 11409, Note_on_c, 0, 55, 0
5, 11520, Note_on_c, 0, 55, 64
5, 11697, Note_on_c, 0, 55, 0
5, 19872, Note_on_c, 0, 55, 75
5, 20913, Note_on_c, 0, 55, 0
5, 21024, Note_on_c, 0, 55, 66
5, 22065, Note_on_c, 0, 55, 0
5, 24480, Note_on_c, 0, 55, 75
5, 25521, Note_on_c, 0, 55, 0
5, 25632, Note_on_c, 0, 55, 66
5, 26673, Note_on_c, 0, 55, 0
5, 34848, Note_on_c, 0, 55, 67
5, 35025, Note_on_c, 0, 55, 0
5, 35136, Note_on_c, 0, 55, 72
5, 35313, Note_on_c, 0, 55, 0
5, 35424, Note_on_c, 0, 55, 76
5, 35601, Note_on_c, 0, 55, 0
5, 35712, Note_on_c, 0, 55, 81
5, 35889, Note_on_c, 0, 55, 0
5, 39456, Note_on_c, 0, 55, 67
5, 39633, Note_on_c, 0, 55, 0
5, 39744, Note_on_c, 0, 55, 72
5, 39921, Note_on_c, 0, 55, 0
5, 40032, Note_on_c, 0, 55, 76
5, 40209, Note_on_c, 0, 55, 0
5, 40320, Note_on_c, 0, 55, 81
5, 40497, Note_on_c, 0, 55, 0
5, 42912, End_track
6, 0, Start_track
6, 0, Title_t, "Piano Solo   <composer>  "
6, 0, End_track
0, 0, End_of_file
