0, 0, Header, 1, 6, 96
1, 0, Start_track
1, 0, Copyright_t, "Copyright  2000 <copyright holder>"
1, 0, Text_t, "Soanata II"
1, 0, Text_t, "Haydn\015\012"
1, 0, Sequencer_specific, 17, 68, 87, 77, 90, 86, 82, 83, 78, 32, 55, 46, 48, 46, 49, 48, 46, 48
1, 0, Time_signature, 3, 2, 24, 8
1, 0, Tempo, 444444
1, 0, Key_signature, -3, "major"
1, 18432, Key_signature, -6, "major"
1, 27648, Key_signature, -3, "major"
1, 46368, End_track
2, 0, Start_track
2, 0, Program_c, 0, 0
2, 0, Control_c, 0, 7, 127
2, 0, Control_c, 0, 10, 64
2, 168, Note_on_c, 0, 75, 77
2, 191, Note_on_c, 0, 75, 0
2, 192, Note_on_c, 0, 77, 77
2, 204, Note_on_c, 0, 77, 0
2, 204, Note_on_c, 0, 75, 77
2, 216, Note_on_c, 0, 75, 0
2, 216, Note_on_c, 0, 74, 77
2, 228, Note_on_c, 0, 74, 0
2, 228, Note_on_c, 0, 75, 77
2, 240, Note_on_c, 0, 75, 0
2, 240, Note_on_c, 0, 75, 77
2, 259, Note_on_c, 0, 75, 0
2, 264, Note_on_c, 0, 79, 77
2, 287, Note_on_c, 0, 79, 0
2, 288, Note_on_c, 0, 82, 77
2, 327, Note_on_c, 0, 82, 0
2, 456, Note_on_c, 0, 75, 77
2, 479, Note_on_c, 0, 75, 0
2, 480, Note_on_c, 0, 77, 77
2, 492, Note_on_c, 0, 77, 0
2, 492, Note_on_c, 0, 75, 77
2, 504, Note_on_c, 0, 75, 0
2, 504, Note_on_c, 0, 74, 77
2, 516, Note_on_c, 0, 74, 0
2, 516, Note_on_c, 0, 75, 77
2, 528, Note_on_c, 0, 75, 0
2, 528, Note_on_c, 0, 75, 77
2, 547, Note_on_c, 0, 75, 0
2, 552, Note_on_c, 0, 79, 77
2, 575, Note_on_c, 0, 79, 0
2, 576, Note_on_c, 0, 72, 77
2, 615, Note_on_c, 0, 72, 0
2, 744, Note_on_c, 0, 77, 77
2, 767, Note_on_c, 0, 77, 0
2, 768, Note_on_c, 0, 79, 78
2, 780, Note_on_c, 0, 79, 0
2, 780, Note_on_c, 0, 77, 78
2, 792, Note_on_c, 0, 77, 0
2, 792, Note_on_c, 0, 75, 78
2, 804, Note_on_c, 0, 75, 0
2, 804, Note_on_c, 0, 77, 78
2, 816, Note_on_c, 0, 77, 0
2, 816, Note_on_c, 0, 77, 78
2, 835, Note_on_c, 0, 77, 0
2, 840, Note_on_c, 0, 80, 83
2, 863, Note_on_c, 0, 80, 0
2, 864, Note_on_c, 0, 84, 85
2, 894, Note_on_c, 0, 84, 0
2, 896, Note_on_c, 0, 82, 84
2, 926, Note_on_c, 0, 82, 0
2, 928, Note_on_c, 0, 80, 83
2, 958, Note_on_c, 0, 80, 0
2, 960, Note_on_c, 0, 79, 82
2, 990, Note_on_c, 0, 79, 0
2, 992, Note_on_c, 0, 77, 81
2, 1022, Note_on_c, 0, 77, 0
2, 1024, Note_on_c, 0, 75, 80
2, 1054, Note_on_c, 0, 75, 0
2, 1056, Note_on_c, 0, 74, 80
2, 1086, Note_on_c, 0, 74, 0
2, 1088, Note_on_c, 0, 72, 79
2, 1118, Note_on_c, 0, 72, 0
2, 1120, Note_on_c, 0, 70, 78
2, 1150, Note_on_c, 0, 70, 0
2, 1152, Note_on_c, 0, 68, 77
2, 1248, Note_on_c, 0, 68, 0
2, 1248, Note_on_c, 0, 67, 77
2, 1315, Note_on_c, 0, 67, 0
2, 1320, Note_on_c, 0, 79, 77
2, 1343, Note_on_c, 0, 79, 0
2, 1344, Note_on_c, 0, 80, 77
2, 1356, Note_on_c, 0, 80, 0
2, 1356, Note_on_c, 0, 79, 77
2, 1368, Note_on_c, 0, 79, 0
2, 1368, Note_on_c, 0, 77, 77
2, 1380, Note_on_c, 0, 77, 0
2, 1380, Note_on_c, 0, 79, 77
2, 1392, Note_on_c, 0, 79, 0
2, 1392, Note_on_c, 0, 79, 77
2, 1411, Note_on_c, 0, 79, 0
2, 1416, Note_on_c, 0, 80, 80
2, 1439, Note_on_c, 0, 80, 0
2, 1440, Note_on_c, 0, 82, 81
2, 1479, Note_on_c, 0, 82, 0
2, 1608, Note_on_c, 0, 77, 85
2, 1631, Note_on_c, 0, 77, 0
2, 1632, Note_on_c, 0, 79, 85
2, 1644, Note_on_c, 0, 79, 0
2, 1644, Note_on_c, 0, 77, 85
2, 1656, Note_on_c, 0, 77, 0
2, 1656, Note_on_c, 0, 75, 85
2, 1668, Note_on_c, 0, 75, 0
2, 1668, Note_on_c, 0, 77, 85
2, 1680, Note_on_c, 0, 77, 0
2, 1680, Note_on_c, 0, 77, 85
2, 1699, Note_on_c, 0, 77, 0
2, 1704, Note_on_c, 0, 79, 85
2, 1727, Note_on_c, 0, 79, 0
2, 1728, Note_on_c, 0, 77, 85
2, 1795, Note_on_c, 0, 77, 0
2, 1800, Note_on_c, 0, 76, 83
2, 1823, Note_on_c, 0, 76, 0
2, 1824, Note_on_c, 0, 75, 82
2, 1957, Note_on_c, 0, 75, 0
2, 1968, Note_on_c, 0, 74, 78
2, 2013, Note_on_c, 0, 74, 0
2, 2016, Note_on_c, 0, 72, 77
2, 2046, Note_on_c, 0, 72, 0
2, 2048, Note_on_c, 0, 75, 78
2, 2078, Note_on_c, 0, 75, 0
2, 2080, Note_on_c, 0, 79, 79
2, 2110, Note_on_c, 0, 79, 0
2, 2112, Note_on_c, 0, 70, 80
2, 2201, Note_on_c, 0, 70, 0
2, 2208, Note_on_c, 0, 69, 85
2, 2221, Note_on_c, 0, 69, 0
2, 2222, Note_on_c, 0, 70, 84
2, 2235, Note_on_c, 0, 70, 0
2, 2236, Note_on_c, 0, 69, 83
2, 2249, Note_on_c, 0, 69, 0
2, 2250, Note_on_c, 0, 70, 82
2, 2263, Note_on_c, 0, 70, 0
2, 2264, Note_on_c, 0, 69, 81
2, 2277, Note_on_c, 0, 69, 0
2, 2278, Note_on_c, 0, 67, 80
2, 2290, Note_on_c, 0, 67, 0
2, 2291, Note_on_c, 0, 69, 79
2, 2303, Note_on_c, 0, 69, 0
2, 2304, Note_on_c, 0, 70, 77
2, 2622, Note_on_c, 0, 70, 0
2, 2624, Note_on_c, 0, 79, 77
2, 2654, Note_on_c, 0, 79, 0
2, 2656, Note_on_c, 0, 77, 77
2, 2686, Note_on_c, 0, 77, 0
2, 2688, Note_on_c, 0, 75, 77
2, 2718, Note_on_c, 0, 75, 0
2, 2720, Note_on_c, 0, 74, 78
2, 2750, Note_on_c, 0, 74, 0
2, 2752, Note_on_c, 0, 72, 78
2, 2782, Note_on_c, 0, 72, 0
2, 2784, Note_on_c, 0, 70, 79
2, 2814, Note_on_c, 0, 70, 0
2, 2816, Note_on_c, 0, 69, 79
2, 2846, Note_on_c, 0, 69, 0
2, 2848, Note_on_c, 0, 72, 80
2, 2878, Note_on_c, 0, 72, 0
2, 2880, Note_on_c, 0, 70, 80
2, 3198, Note_on_c, 0, 70, 0
2, 3200, Note_on_c, 0, 72, 77
2, 3230, Note_on_c, 0, 72, 0
2, 3232, Note_on_c, 0, 74, 77
2, 3262, Note_on_c, 0, 74, 0
2, 3264, Note_on_c, 0, 75, 78
2, 3294, Note_on_c, 0, 75, 0
2, 3296, Note_on_c, 0, 77, 79
2, 3326, Note_on_c, 0, 77, 0
2, 3328, Note_on_c, 0, 79, 79
2, 3358, Note_on_c, 0, 79, 0
2, 3360, Note_on_c, 0, 81, 80
2, 3390, Note_on_c, 0, 81, 0
2, 3392, Note_on_c, 0, 82, 81
2, 3422, Note_on_c, 0, 82, 0
2, 3424, Note_on_c, 0, 84, 81
2, 3454, Note_on_c, 0, 84, 0
2, 3456, Note_on_c, 0, 82, 82
2, 3495, Note_on_c, 0, 82, 0
2, 3624, Note_on_c, 0, 75, 77
2, 3647, Note_on_c, 0, 75, 0
2, 3648, Note_on_c, 0, 77, 77
2, 3660, Note_on_c, 0, 77, 0
2, 3660, Note_on_c, 0, 75, 77
2, 3672, Note_on_c, 0, 75, 0
2, 3672, Note_on_c, 0, 74, 77
2, 3684, Note_on_c, 0, 74, 0
2, 3684, Note_on_c, 0, 75, 77
2, 3696, Note_on_c, 0, 75, 0
2, 3696, Note_on_c, 0, 75, 77
2, 3715, Note_on_c, 0, 75, 0
2, 3720, Note_on_c, 0, 79, 77
2, 3743, Note_on_c, 0, 79, 0
2, 3744, Note_on_c, 0, 82, 77
2, 3783, Note_on_c, 0, 82, 0
2, 3912, Note_on_c, 0, 75, 77
2, 3935, Note_on_c, 0, 75, 0
2, 3936, Note_on_c, 0, 77, 77
2, 3948, Note_on_c, 0, 77, 0
2, 3948, Note_on_c, 0, 75, 77
2, 3960, Note_on_c, 0, 75, 0
2, 3960, Note_on_c, 0, 74, 77
2, 3972, Note_on_c, 0, 74, 0
2, 3972, Note_on_c, 0, 75, 77
2, 3984, Note_on_c, 0, 75, 0
2, 3984, Note_on_c, 0, 75, 77
2, 4003, Note_on_c, 0, 75, 0
2, 4008, Note_on_c, 0, 79, 77
2, 4031, Note_on_c, 0, 79, 0
2, 4032, Note_on_c, 0, 72, 77
2, 4071, Note_on_c, 0, 72, 0
2, 4200, Note_on_c, 0, 77, 77
2, 4223, Note_on_c, 0, 77, 0
2, 4224, Note_on_c, 0, 79, 78
2, 4236, Note_on_c, 0, 79, 0
2, 4236, Note_on_c, 0, 77, 78
2, 4248, Note_on_c, 0, 77, 0
2, 4248, Note_on_c, 0, 75, 78
2, 4260, Note_on_c, 0, 75, 0
2, 4260, Note_on_c, 0, 77, 78
2, 4272, Note_on_c, 0, 77, 0
2, 4272, Note_on_c, 0, 77, 78
2, 4291, Note_on_c, 0, 77, 0
2, 4296, Note_on_c, 0, 80, 83
2, 4319, Note_on_c, 0, 80, 0
2, 4320, Note_on_c, 0, 84, 85
2, 4350, Note_on_c, 0, 84, 0
2, 4352, Note_on_c, 0, 82, 84
2, 4382, Note_on_c, 0, 82, 0
2, 4384, Note_on_c, 0, 80, 83
2, 4414, Note_on_c, 0, 80, 0
2, 4416, Note_on_c, 0, 79, 82
2, 4446, Note_on_c, 0, 79, 0
2, 4448, Note_on_c, 0, 77, 81
2, 4478, Note_on_c, 0, 77, 0
2, 4480, Note_on_c, 0, 75, 80
2, 4510, Note_on_c, 0, 75, 0
2, 4512, Note_on_c, 0, 74, 80
2, 4542, Note_on_c, 0, 74, 0
2, 4544, Note_on_c, 0, 72, 79
2, 4574, Note_on_c, 0, 72, 0
2, 4576, Note_on_c, 0, 70, 78
2, 4606, Note_on_c, 0, 70, 0
2, 4608, Note_on_c, 0, 68, 77
2, 4704, Note_on_c, 0, 68, 0
2, 4704, Note_on_c, 0, 67, 77
2, 4771, Note_on_c, 0, 67, 0
2, 4776, Note_on_c, 0, 79, 77
2, 4799, Note_on_c, 0, 79, 0
2, 4800, Note_on_c, 0, 80, 77
2, 4812, Note_on_c, 0, 80, 0
2, 4812, Note_on_c, 0, 79, 77
2, 4824, Note_on_c, 0, 79, 0
2, 4824, Note_on_c, 0, 77, 77
2, 4836, Note_on_c, 0, 77, 0
2, 4836, Note_on_c, 0, 79, 77
2, 4848, Note_on_c, 0, 79, 0
2, 4848, Note_on_c, 0, 79, 77
2, 4867, Note_on_c, 0, 79, 0
2, 4872, Note_on_c, 0, 80, 80
2, 4895, Note_on_c, 0, 80, 0
2, 4896, Note_on_c, 0, 82, 81
2, 4935, Note_on_c, 0, 82, 0
2, 5064, Note_on_c, 0, 77, 85
2, 5087, Note_on_c, 0, 77, 0
2, 5088, Note_on_c, 0, 79, 85
2, 5100, Note_on_c, 0, 79, 0
2, 5100, Note_on_c, 0, 77, 85
2, 5112, Note_on_c, 0, 77, 0
2, 5112, Note_on_c, 0, 75, 85
2, 5124, Note_on_c, 0, 75, 0
2, 5124, Note_on_c, 0, 77, 85
2, 5136, Note_on_c, 0, 77, 0
2, 5136, Note_on_c, 0, 77, 85
2, 5155, Note_on_c, 0, 77, 0
2, 5160, Note_on_c, 0, 79, 85
2, 5183, Note_on_c, 0, 79, 0
2, 5184, Note_on_c, 0, 77, 85
2, 5251, Note_on_c, 0, 77, 0
2, 5256, Note_on_c, 0, 76, 83
2, 5279, Note_on_c, 0, 76, 0
2, 5280, Note_on_c, 0, 75, 82
2, 5413, Note_on_c, 0, 75, 0
2, 5424, Note_on_c, 0, 74, 78
2, 5469, Note_on_c, 0, 74, 0
2, 5472, Note_on_c, 0, 72, 77
2, 5502, Note_on_c, 0, 72, 0
2, 5504, Note_on_c, 0, 75, 78
2, 5534, Note_on_c, 0, 75, 0
2, 5536, Note_on_c, 0, 79, 79
2, 5566, Note_on_c, 0, 79, 0
2, 5568, Note_on_c, 0, 70, 80
2, 5657, Note_on_c, 0, 70, 0
2, 5664, Note_on_c, 0, 69, 85
2, 5677, Note_on_c, 0, 69, 0
2, 5678, Note_on_c, 0, 70, 84
2, 5691, Note_on_c, 0, 70, 0
2, 5692, Note_on_c, 0, 69, 83
2, 5705, Note_on_c, 0, 69, 0
2, 5706, Note_on_c, 0, 70, 82
2, 5719, Note_on_c, 0, 70, 0
2, 5720, Note_on_c, 0, 69, 81
2, 5733, Note_on_c, 0, 69, 0
2, 5734, Note_on_c, 0, 67, 80
2, 5746, Note_on_c, 0, 67, 0
2, 5747, Note_on_c, 0, 69, 79
2, 5759, Note_on_c, 0, 69, 0
2, 5760, Note_on_c, 0, 70, 77
2, 6078, Note_on_c, 0, 70, 0
2, 6080, Note_on_c, 0, 79, 77
2, 6110, Note_on_c, 0, 79, 0
2, 6112, Note_on_c, 0, 77, 77
2, 6142, Note_on_c, 0, 77, 0
2, 6144, Note_on_c, 0, 75, 77
2, 6174, Note_on_c, 0, 75, 0
2, 6176, Note_on_c, 0, 74, 78
2, 6206, Note_on_c, 0, 74, 0
2, 6208, Note_on_c, 0, 72, 78
2, 6238, Note_on_c, 0, 72, 0
2, 6240, Note_on_c, 0, 70, 79
2, 6270, Note_on_c, 0, 70, 0
2, 6272, Note_on_c, 0, 69, 79
2, 6302, Note_on_c, 0, 69, 0
2, 6304, Note_on_c, 0, 72, 80
2, 6334, Note_on_c, 0, 72, 0
2, 6336, Note_on_c, 0, 70, 80
2, 6654, Note_on_c, 0, 70, 0
2, 6656, Note_on_c, 0, 72, 77
2, 6686, Note_on_c, 0, 72, 0
2, 6688, Note_on_c, 0, 74, 77
2, 6718, Note_on_c, 0, 74, 0
2, 6720, Note_on_c, 0, 75, 78
2, 6750, Note_on_c, 0, 75, 0
2, 6752, Note_on_c, 0, 77, 79
2, 6782, Note_on_c, 0, 77, 0
2, 6784, Note_on_c, 0, 79, 79
2, 6814, Note_on_c, 0, 79, 0
2, 6816, Note_on_c, 0, 81, 80
2, 6846, Note_on_c, 0, 81, 0
2, 6848, Note_on_c, 0, 82, 81
2, 6878, Note_on_c, 0, 82, 0
2, 6880, Note_on_c, 0, 84, 81
2, 6910, Note_on_c, 0, 84, 0
2, 6912, Note_on_c, 0, 82, 82
2, 6951, Note_on_c, 0, 82, 0
2, 7080, Note_on_c, 0, 70, 85
2, 7103, Note_on_c, 0, 70, 0
2, 7104, Note_on_c, 0, 72, 85
2, 7116, Note_on_c, 0, 72, 0
2, 7116, Note_on_c, 0, 70, 85
2, 7128, Note_on_c, 0, 70, 0
2, 7128, Note_on_c, 0, 68, 85
2, 7140, Note_on_c, 0, 68, 0
2, 7140, Note_on_c, 0, 70, 85
2, 7152, Note_on_c, 0, 70, 0
2, 7152, Note_on_c, 0, 70, 85
2, 7171, Note_on_c, 0, 70, 0
2, 7176, Note_on_c, 0, 72, 85
2, 7199, Note_on_c, 0, 72, 0
2, 7200, Note_on_c, 0, 73, 101
2, 7326, Note_on_c, 0, 73, 0
2, 7328, Note_on_c, 0, 72, 85
2, 7358, Note_on_c, 0, 72, 0
2, 7360, Note_on_c, 0, 70, 85
2, 7390, Note_on_c, 0, 70, 0
2, 7392, Note_on_c, 0, 68, 85
2, 7422, Note_on_c, 0, 68, 0
2, 7424, Note_on_c, 0, 67, 85
2, 7454, Note_on_c, 0, 67, 0
2, 7456, Note_on_c, 0, 65, 85
2, 7486, Note_on_c, 0, 65, 0
2, 7488, Note_on_c, 0, 64, 85
2, 7584, Note_on_c, 0, 64, 0
2, 7584, Note_on_c, 0, 65, 85
2, 7651, Note_on_c, 0, 65, 0
2, 7656, Note_on_c, 0, 68, 85
2, 7679, Note_on_c, 0, 68, 0
2, 7680, Note_on_c, 0, 70, 85
2, 7692, Note_on_c, 0, 70, 0
2, 7692, Note_on_c, 0, 68, 85
2, 7704, Note_on_c, 0, 68, 0
2, 7704, Note_on_c, 0, 67, 85
2, 7716, Note_on_c, 0, 67, 0
2, 7716, Note_on_c, 0, 68, 85
2, 7728, Note_on_c, 0, 68, 0
2, 7728, Note_on_c, 0, 68, 85
2, 7747, Note_on_c, 0, 68, 0
2, 7752, Note_on_c, 0, 70, 85
2, 7775, Note_on_c, 0, 70, 0
2, 7776, Note_on_c, 0, 71, 101
2, 7902, Note_on_c, 0, 71, 0
2, 7904, Note_on_c, 0, 70, 85
2, 7934, Note_on_c, 0, 70, 0
2, 7936, Note_on_c, 0, 68, 85
2, 7966, Note_on_c, 0, 68, 0
2, 7968, Note_on_c, 0, 66, 85
2, 7998, Note_on_c, 0, 66, 0
2, 8000, Note_on_c, 0, 65, 85
2, 8030, Note_on_c, 0, 65, 0
2, 8032, Note_on_c, 0, 63, 85
2, 8062, Note_on_c, 0, 63, 0
2, 8064, Note_on_c, 0, 62, 85
2, 8160, Note_on_c, 0, 62, 0
2, 8160, Note_on_c, 0, 63, 85
2, 8227, Note_on_c, 0, 63, 0
2, 8232, Note_on_c, 0, 63, 85
2, 8255, Note_on_c, 0, 63, 0
2, 8256, Note_on_c, 0, 65, 85
2, 8268, Note_on_c, 0, 65, 0
2, 8268, Note_on_c, 0, 63, 85
2, 8280, Note_on_c, 0, 63, 0
2, 8280, Note_on_c, 0, 62, 85
2, 8292, Note_on_c, 0, 62, 0
2, 8292, Note_on_c, 0, 63, 85
2, 8304, Note_on_c, 0, 63, 0
2, 8304, Note_on_c, 0, 63, 85
2, 8323, Note_on_c, 0, 63, 0
2, 8328, Note_on_c, 0, 67, 85
2, 8351, Note_on_c, 0, 67, 0
2, 8352, Note_on_c, 0, 60, 85
2, 8382, Note_on_c, 0, 60, 0
2, 8384, Note_on_c, 0, 62, 85
2, 8414, Note_on_c, 0, 62, 0
2, 8416, Note_on_c, 0, 63, 85
2, 8446, Note_on_c, 0, 63, 0
2, 8448, Note_on_c, 0, 65, 85
2, 8478, Note_on_c, 0, 65, 0
2, 8480, Note_on_c, 0, 67, 85
2, 8510, Note_on_c, 0, 67, 0
2, 8512, Note_on_c, 0, 68, 85
2, 8542, Note_on_c, 0, 68, 0
2, 8544, Note_on_c, 0, 62, 85
2, 8574, Note_on_c, 0, 62, 0
2, 8576, Note_on_c, 0, 63, 85
2, 8606, Note_on_c, 0, 63, 0
2, 8608, Note_on_c, 0, 65, 85
2, 8638, Note_on_c, 0, 65, 0
2, 8640, Note_on_c, 0, 63, 85
2, 8670, Note_on_c, 0, 63, 0
2, 8672, Note_on_c, 0, 65, 85
2, 8702, Note_on_c, 0, 65, 0
2, 8704, Note_on_c, 0, 67, 85
2, 8734, Note_on_c, 0, 67, 0
2, 8736, Note_on_c, 0, 68, 85
2, 8766, Note_on_c, 0, 68, 0
2, 8768, Note_on_c, 0, 70, 85
2, 8798, Note_on_c, 0, 70, 0
2, 8800, Note_on_c, 0, 72, 85
2, 8830, Note_on_c, 0, 72, 0
2, 8832, Note_on_c, 0, 65, 85
2, 8862, Note_on_c, 0, 65, 0
2, 8864, Note_on_c, 0, 67, 85
2, 8894, Note_on_c, 0, 67, 0
2, 8896, Note_on_c, 0, 68, 85
2, 8926, Note_on_c, 0, 68, 0
2, 8928, Note_on_c, 0, 67, 85
2, 8958, Note_on_c, 0, 67, 0
2, 8960, Note_on_c, 0, 68, 85
2, 8990, Note_on_c, 0, 68, 0
2, 8992, Note_on_c, 0, 70, 85
2, 9022, Note_on_c, 0, 70, 0
2, 9024, Note_on_c, 0, 72, 85
2, 9054, Note_on_c, 0, 72, 0
2, 9056, Note_on_c, 0, 74, 85
2, 9086, Note_on_c, 0, 74, 0
2, 9088, Note_on_c, 0, 75, 85
2, 9118, Note_on_c, 0, 75, 0
2, 9120, Note_on_c, 0, 77, 85
2, 9150, Note_on_c, 0, 77, 0
2, 9152, Note_on_c, 0, 79, 85
2, 9182, Note_on_c, 0, 79, 0
2, 9184, Note_on_c, 0, 80, 85
2, 9214, Note_on_c, 0, 80, 0
2, 9216, Note_on_c, 0, 79, 85
2, 9216, Note_on_c, 0, 75, 85
2, 9312, Note_on_c, 0, 79, 0
2, 9312, Note_on_c, 0, 75, 0
2, 9312, Note_on_c, 0, 77, 81
2, 9312, Note_on_c, 0, 74, 81
2, 9379, Note_on_c, 0, 77, 0
2, 9379, Note_on_c, 0, 74, 0
2, 9384, Note_on_c, 0, 75, 78
2, 9407, Note_on_c, 0, 75, 0
2, 9408, Note_on_c, 0, 77, 77
2, 9420, Note_on_c, 0, 77, 0
2, 9420, Note_on_c, 0, 75, 77
2, 9432, Note_on_c, 0, 75, 0
2, 9432, Note_on_c, 0, 74, 77
2, 9444, Note_on_c, 0, 74, 0
2, 9444, Note_on_c, 0, 75, 77
2, 9456, Note_on_c, 0, 75, 0
2, 9456, Note_on_c, 0, 75, 77
2, 9475, Note_on_c, 0, 75, 0
2, 9480, Note_on_c, 0, 79, 77
2, 9503, Note_on_c, 0, 79, 0
2, 9504, Note_on_c, 0, 82, 77
2, 9543, Note_on_c, 0, 82, 0
2, 9672, Note_on_c, 0, 75, 77
2, 9695, Note_on_c, 0, 75, 0
2, 9696, Note_on_c, 0, 77, 77
2, 9708, Note_on_c, 0, 77, 0
2, 9708, Note_on_c, 0, 75, 77
2, 9720, Note_on_c, 0, 75, 0
2, 9720, Note_on_c, 0, 74, 77
2, 9732, Note_on_c, 0, 74, 0
2, 9732, Note_on_c, 0, 75, 77
2, 9744, Note_on_c, 0, 75, 0
2, 9744, Note_on_c, 0, 75, 77
2, 9763, Note_on_c, 0, 75, 0
2, 9768, Note_on_c, 0, 79, 77
2, 9791, Note_on_c, 0, 79, 0
2, 9792, Note_on_c, 0, 72, 77
2, 9831, Note_on_c, 0, 72, 0
2, 9960, Note_on_c, 0, 77, 77
2, 9983, Note_on_c, 0, 77, 0
2, 9984, Note_on_c, 0, 79, 78
2, 9996, Note_on_c, 0, 79, 0
2, 9996, Note_on_c, 0, 77, 78
2, 10008, Note_on_c, 0, 77, 0
2, 10008, Note_on_c, 0, 75, 78
2, 10020, Note_on_c, 0, 75, 0
2, 10020, Note_on_c, 0, 77, 78
2, 10032, Note_on_c, 0, 77, 0
2, 10032, Note_on_c, 0, 77, 78
2, 10051, Note_on_c, 0, 77, 0
2, 10056, Note_on_c, 0, 80, 83
2, 10079, Note_on_c, 0, 80, 0
2, 10080, Note_on_c, 0, 84, 85
2, 10110, Note_on_c, 0, 84, 0
2, 10112, Note_on_c, 0, 82, 84
2, 10142, Note_on_c, 0, 82, 0
2, 10144, Note_on_c, 0, 80, 83
2, 10174, Note_on_c, 0, 80, 0
2, 10176, Note_on_c, 0, 79, 82
2, 10206, Note_on_c, 0, 79, 0
2, 10208, Note_on_c, 0, 77, 81
2, 10238, Note_on_c, 0, 77, 0
2, 10240, Note_on_c, 0, 75, 80
2, 10270, Note_on_c, 0, 75, 0
2, 10272, Note_on_c, 0, 74, 80
2, 10302, Note_on_c, 0, 74, 0
2, 10304, Note_on_c, 0, 72, 79
2, 10334, Note_on_c, 0, 72, 0
2, 10336, Note_on_c, 0, 70, 78
2, 10366, Note_on_c, 0, 70, 0
2, 10368, Note_on_c, 0, 68, 77
2, 10464, Note_on_c, 0, 68, 0
2, 10464, Note_on_c, 0, 67, 79
2, 10531, Note_on_c, 0, 67, 0
2, 10536, Note_on_c, 0, 72, 81
2, 10559, Note_on_c, 0, 72, 0
2, 10560, Note_on_c, 0, 74, 82
2, 10572, Note_on_c, 0, 74, 0
2, 10572, Note_on_c, 0, 72, 82
2, 10584, Note_on_c, 0, 72, 0
2, 10584, Note_on_c, 0, 70, 82
2, 10596, Note_on_c, 0, 70, 0
2, 10596, Note_on_c, 0, 72, 82
2, 10608, Note_on_c, 0, 72, 0
2, 10608, Note_on_c, 0, 72, 82
2, 10627, Note_on_c, 0, 72, 0
2, 10632, Note_on_c, 0, 74, 84
2, 10655, Note_on_c, 0, 74, 0
2, 10656, Note_on_c, 0, 75, 85
2, 10695, Note_on_c, 0, 75, 0
2, 10824, Note_on_c, 0, 70, 85
2, 10847, Note_on_c, 0, 70, 0
2, 10848, Note_on_c, 0, 72, 85
2, 10860, Note_on_c, 0, 72, 0
2, 10860, Note_on_c, 0, 70, 85
2, 10872, Note_on_c, 0, 70, 0
2, 10872, Note_on_c, 0, 68, 85
2, 10884, Note_on_c, 0, 68, 0
2, 10884, Note_on_c, 0, 70, 85
2, 10896, Note_on_c, 0, 70, 0
2, 10896, Note_on_c, 0, 70, 85
2, 10915, Note_on_c, 0, 70, 0
2, 10920, Note_on_c, 0, 72, 85
2, 10943, Note_on_c, 0, 72, 0
2, 10944, Note_on_c, 0, 70, 85
2, 11011, Note_on_c, 0, 70, 0
2, 11016, Note_on_c, 0, 69, 82
2, 11039, Note_on_c, 0, 69, 0
2, 11040, Note_on_c, 0, 68, 81
2, 11173, Note_on_c, 0, 68, 0
2, 11184, Note_on_c, 0, 67, 77
2, 11229, Note_on_c, 0, 67, 0
2, 11232, Note_on_c, 0, 65, 77
2, 11262, Note_on_c, 0, 65, 0
2, 11264, Note_on_c, 0, 68, 77
2, 11294, Note_on_c, 0, 68, 0
2, 11296, Note_on_c, 0, 72, 77
2, 11326, Note_on_c, 0, 72, 0
2, 11328, Note_on_c, 0, 63, 77
2, 11417, Note_on_c, 0, 63, 0
2, 11424, Note_on_c, 0, 62, 77
2, 11437, Note_on_c, 0, 62, 0
2, 11438, Note_on_c, 0, 63, 77
2, 11451, Note_on_c, 0, 63, 0
2, 11452, Note_on_c, 0, 62, 77
2, 11465, Note_on_c, 0, 62, 0
2, 11466, Note_on_c, 0, 63, 77
2, 11479, Note_on_c, 0, 63, 0
2, 11480, Note_on_c, 0, 62, 77
2, 11493, Note_on_c, 0, 62, 0
2, 11494, Note_on_c, 0, 60, 77
2, 11506, Note_on_c, 0, 60, 0
2, 11507, Note_on_c, 0, 62, 77
2, 11519, Note_on_c, 0, 62, 0
2, 11520, Note_on_c, 0, 63, 77
2, 11838, Note_on_c, 0, 63, 0
2, 11840, Note_on_c, 0, 72, 85
2, 11870, Note_on_c, 0, 72, 0
2, 11872, Note_on_c, 0, 70, 84
2, 11902, Note_on_c, 0, 70, 0
2, 11904, Note_on_c, 0, 68, 83
2, 11934, Note_on_c, 0, 68, 0
2, 11936, Note_on_c, 0, 67, 82
2, 11966, Note_on_c, 0, 67, 0
2, 11968, Note_on_c, 0, 65, 81
2, 11998, Note_on_c, 0, 65, 0
2, 12000, Note_on_c, 0, 63, 80
2, 12030, Note_on_c, 0, 63, 0
2, 12032, Note_on_c, 0, 62, 79
2, 12062, Note_on_c, 0, 62, 0
2, 12064, Note_on_c, 0, 65, 78
2, 12094, Note_on_c, 0, 65, 0
2, 12096, Note_on_c, 0, 67, 85
2, 12126, Note_on_c, 0, 67, 0
2, 12128, Note_on_c, 0, 68, 85
2, 12158, Note_on_c, 0, 68, 0
2, 12160, Note_on_c, 0, 70, 86
2, 12190, Note_on_c, 0, 70, 0
2, 12192, Note_on_c, 0, 72, 86
2, 12222, Note_on_c, 0, 72, 0
2, 12224, Note_on_c, 0, 74, 87
2, 12254, Note_on_c, 0, 74, 0
2, 12256, Note_on_c, 0, 75, 88
2, 12286, Note_on_c, 0, 75, 0
2, 12288, Note_on_c, 0, 77, 88
2, 12318, Note_on_c, 0, 77, 0
2, 12320, Note_on_c, 0, 79, 89
2, 12350, Note_on_c, 0, 79, 0
2, 12352, Note_on_c, 0, 80, 90
2, 12382, Note_on_c, 0, 80, 0
2, 12384, Note_on_c, 0, 82, 90
2, 12414, Note_on_c, 0, 82, 0
2, 12416, Note_on_c, 0, 84, 92
2, 12446, Note_on_c, 0, 84, 0
2, 12448, Note_on_c, 0, 82, 90
2, 12478, Note_on_c, 0, 82, 0
2, 12480, Note_on_c, 0, 80, 89
2, 12510, Note_on_c, 0, 80, 0
2, 12512, Note_on_c, 0, 79, 88
2, 12542, Note_on_c, 0, 79, 0
2, 12544, Note_on_c, 0, 77, 87
2, 12574, Note_on_c, 0, 77, 0
2, 12576, Note_on_c, 0, 75, 86
2, 12606, Note_on_c, 0, 75, 0
2, 12608, Note_on_c, 0, 74, 85
2, 12638, Note_on_c, 0, 74, 0
2, 12640, Note_on_c, 0, 77, 85
2, 12670, Note_on_c, 0, 77, 0
2, 12672, Note_on_c, 0, 75, 85
2, 12761, Note_on_c, 0, 75, 0
2, 12840, Note_on_c, 0, 70, 85
2, 12863, Note_on_c, 0, 70, 0
2, 12864, Note_on_c, 0, 72, 85
2, 12876, Note_on_c, 0, 72, 0
2, 12876, Note_on_c, 0, 70, 85
2, 12888, Note_on_c, 0, 70, 0
2, 12888, Note_on_c, 0, 68, 85
2, 12900, Note_on_c, 0, 68, 0
2, 12900, Note_on_c, 0, 70, 85
2, 12912, Note_on_c, 0, 70, 0
2, 12912, Note_on_c, 0, 70, 85
2, 12931, Note_on_c, 0, 70, 0
2, 12936, Note_on_c, 0, 72, 85
2, 12959, Note_on_c, 0, 72, 0
2, 12960, Note_on_c, 0, 73, 86
2, 13086, Note_on_c, 0, 73, 0
2, 13088, Note_on_c, 0, 72, 70
2, 13118, Note_on_c, 0, 72, 0
2, 13120, Note_on_c, 0, 70, 70
2, 13150, Note_on_c, 0, 70, 0
2, 13152, Note_on_c, 0, 68, 70
2, 13182, Note_on_c, 0, 68, 0
2, 13184, Note_on_c, 0, 67, 70
2, 13214, Note_on_c, 0, 67, 0
2, 13216, Note_on_c, 0, 65, 70
2, 13246, Note_on_c, 0, 65, 0
2, 13248, Note_on_c, 0, 64, 70
2, 13344, Note_on_c, 0, 64, 0
2, 13344, Note_on_c, 0, 65, 70
2, 13411, Note_on_c, 0, 65, 0
2, 13416, Note_on_c, 0, 68, 70
2, 13439, Note_on_c, 0, 68, 0
2, 13440, Note_on_c, 0, 70, 70
2, 13452, Note_on_c, 0, 70, 0
2, 13452, Note_on_c, 0, 68, 70
2, 13464, Note_on_c, 0, 68, 0
2, 13464, Note_on_c, 0, 67, 70
2, 13476, Note_on_c, 0, 67, 0
2, 13476, Note_on_c, 0, 68, 70
2, 13488, Note_on_c, 0, 68, 0
2, 13488, Note_on_c, 0, 68, 70
2, 13507, Note_on_c, 0, 68, 0
2, 13512, Note_on_c, 0, 70, 70
2, 13535, Note_on_c, 0, 70, 0
2, 13536, Note_on_c, 0, 71, 86
2, 13662, Note_on_c, 0, 71, 0
2, 13664, Note_on_c, 0, 70, 70
2, 13694, Note_on_c, 0, 70, 0
2, 13696, Note_on_c, 0, 68, 70
2, 13726, Note_on_c, 0, 68, 0
2, 13728, Note_on_c, 0, 66, 70
2, 13758, Note_on_c, 0, 66, 0
2, 13760, Note_on_c, 0, 65, 70
2, 13790, Note_on_c, 0, 65, 0
2, 13792, Note_on_c, 0, 63, 70
2, 13822, Note_on_c, 0, 63, 0
2, 13824, Note_on_c, 0, 62, 70
2, 13920, Note_on_c, 0, 62, 0
2, 13920, Note_on_c, 0, 63, 70
2, 13987, Note_on_c, 0, 63, 0
2, 13992, Note_on_c, 0, 63, 70
2, 14015, Note_on_c, 0, 63, 0
2, 14016, Note_on_c, 0, 65, 70
2, 14028, Note_on_c, 0, 65, 0
2, 14028, Note_on_c, 0, 63, 70
2, 14040, Note_on_c, 0, 63, 0
2, 14040, Note_on_c, 0, 62, 70
2, 14052, Note_on_c, 0, 62, 0
2, 14052, Note_on_c, 0, 63, 70
2, 14064, Note_on_c, 0, 63, 0
2, 14064, Note_on_c, 0, 63, 70
2, 14083, Note_on_c, 0, 63, 0
2, 14088, Note_on_c, 0, 67, 70
2, 14111, Note_on_c, 0, 67, 0
2, 14112, Note_on_c, 0, 60, 70
2, 14142, Note_on_c, 0, 60, 0
2, 14144, Note_on_c, 0, 62, 70
2, 14174, Note_on_c, 0, 62, 0
2, 14176, Note_on_c, 0, 63, 70
2, 14206, Note_on_c, 0, 63, 0
2, 14208, Note_on_c, 0, 65, 70
2, 14238, Note_on_c, 0, 65, 0
2, 14240, Note_on_c, 0, 67, 70
2, 14270, Note_on_c, 0, 67, 0
2, 14272, Note_on_c, 0, 68, 70
2, 14302, Note_on_c, 0, 68, 0
2, 14304, Note_on_c, 0, 62, 70
2, 14334, Note_on_c, 0, 62, 0
2, 14336, Note_on_c, 0, 63, 70
2, 14366, Note_on_c, 0, 63, 0
2, 14368, Note_on_c, 0, 65, 70
2, 14398, Note_on_c, 0, 65, 0
2, 14400, Note_on_c, 0, 63, 70
2, 14430, Note_on_c, 0, 63, 0
2, 14432, Note_on_c, 0, 65, 70
2, 14462, Note_on_c, 0, 65, 0
2, 14464, Note_on_c, 0, 67, 70
2, 14494, Note_on_c, 0, 67, 0
2, 14496, Note_on_c, 0, 68, 70
2, 14526, Note_on_c, 0, 68, 0
2, 14528, Note_on_c, 0, 70, 70
2, 14558, Note_on_c, 0, 70, 0
2, 14560, Note_on_c, 0, 72, 70
2, 14590, Note_on_c, 0, 72, 0
2, 14592, Note_on_c, 0, 65, 70
2, 14622, Note_on_c, 0, 65, 0
2, 14624, Note_on_c, 0, 67, 70
2, 14654, Note_on_c, 0, 67, 0
2, 14656, Note_on_c, 0, 68, 70
2, 14686, Note_on_c, 0, 68, 0
2, 14688, Note_on_c, 0, 67, 70
2, 14718, Note_on_c, 0, 67, 0
2, 14720, Note_on_c, 0, 68, 70
2, 14750, Note_on_c, 0, 68, 0
2, 14752, Note_on_c, 0, 70, 70
2, 14782, Note_on_c, 0, 70, 0
2, 14784, Note_on_c, 0, 72, 70
2, 14814, Note_on_c, 0, 72, 0
2, 14816, Note_on_c, 0, 74, 70
2, 14846, Note_on_c, 0, 74, 0
2, 14848, Note_on_c, 0, 75, 70
2, 14878, Note_on_c, 0, 75, 0
2, 14880, Note_on_c, 0, 77, 70
2, 14910, Note_on_c, 0, 77, 0
2, 14912, Note_on_c, 0, 79, 70
2, 14942, Note_on_c, 0, 79, 0
2, 14944, Note_on_c, 0, 80, 70
2, 14974, Note_on_c, 0, 80, 0
2, 14976, Note_on_c, 0, 79, 85
2, 14976, Note_on_c, 0, 75, 85
2, 15072, Note_on_c, 0, 79, 0
2, 15072, Note_on_c, 0, 75, 0
2, 15072, Note_on_c, 0, 77, 81
2, 15072, Note_on_c, 0, 74, 81
2, 15139, Note_on_c, 0, 77, 0
2, 15139, Note_on_c, 0, 74, 0
2, 15144, Note_on_c, 0, 75, 78
2, 15167, Note_on_c, 0, 75, 0
2, 15168, Note_on_c, 0, 77, 77
2, 15180, Note_on_c, 0, 77, 0
2, 15180, Note_on_c, 0, 75, 77
2, 15192, Note_on_c, 0, 75, 0
2, 15192, Note_on_c, 0, 74, 77
2, 15204, Note_on_c, 0, 74, 0
2, 15204, Note_on_c, 0, 75, 77
2, 15216, Note_on_c, 0, 75, 0
2, 15216, Note_on_c, 0, 75, 77
2, 15235, Note_on_c, 0, 75, 0
2, 15240, Note_on_c, 0, 79, 77
2, 15263, Note_on_c, 0, 79, 0
2, 15264, Note_on_c, 0, 82, 77
2, 15303, Note_on_c, 0, 82, 0
2, 15432, Note_on_c, 0, 75, 77
2, 15455, Note_on_c, 0, 75, 0
2, 15456, Note_on_c, 0, 77, 77
2, 15468, Note_on_c, 0, 77, 0
2, 15468, Note_on_c, 0, 75, 77
2, 15480, Note_on_c, 0, 75, 0
2, 15480, Note_on_c, 0, 74, 77
2, 15492, Note_on_c, 0, 74, 0
2, 15492, Note_on_c, 0, 75, 77
2, 15504, Note_on_c, 0, 75, 0
2, 15504, Note_on_c, 0, 75, 77
2, 15523, Note_on_c, 0, 75, 0
2, 15528, Note_on_c, 0, 79, 77
2, 15551, Note_on_c, 0, 79, 0
2, 15552, Note_on_c, 0, 72, 77
2, 15591, Note_on_c, 0, 72, 0
2, 15720, Note_on_c, 0, 77, 77
2, 15743, Note_on_c, 0, 77, 0
2, 15744, Note_on_c, 0, 79, 78
2, 15756, Note_on_c, 0, 79, 0
2, 15756, Note_on_c, 0, 77, 78
2, 15768, Note_on_c, 0, 77, 0
2, 15768, Note_on_c, 0, 75, 78
2, 15780, Note_on_c, 0, 75, 0
2, 15780, Note_on_c, 0, 77, 78
2, 15792, Note_on_c, 0, 77, 0
2, 15792, Note_on_c, 0, 77, 78
2, 15811, Note_on_c, 0, 77, 0
2, 15816, Note_on_c, 0, 80, 83
2, 15839, Note_on_c, 0, 80, 0
2, 15840, Note_on_c, 0, 84, 85
2, 15870, Note_on_c, 0, 84, 0
2, 15872, Note_on_c, 0, 82, 84
2, 15902, Note_on_c, 0, 82, 0
2, 15904, Note_on_c, 0, 80, 83
2, 15934, Note_on_c, 0, 80, 0
2, 15936, Note_on_c, 0, 79, 82
2, 15966, Note_on_c, 0, 79, 0
2, 15968, Note_on_c, 0, 77, 81
2, 15998, Note_on_c, 0, 77, 0
2, 16000, Note_on_c, 0, 75, 80
2, 16030, Note_on_c, 0, 75, 0
2, 16032, Note_on_c, 0, 74, 80
2, 16062, Note_on_c, 0, 74, 0
2, 16064, Note_on_c, 0, 72, 79
2, 16094, Note_on_c, 0, 72, 0
2, 16096, Note_on_c, 0, 70, 78
2, 16126, Note_on_c, 0, 70, 0
2, 16128, Note_on_c, 0, 68, 77
2, 16224, Note_on_c, 0, 68, 0
2, 16224, Note_on_c, 0, 67, 79
2, 16291, Note_on_c, 0, 67, 0
2, 16296, Note_on_c, 0, 72, 81
2, 16319, Note_on_c, 0, 72, 0
2, 16320, Note_on_c, 0, 74, 82
2, 16332, Note_on_c, 0, 74, 0
2, 16332, Note_on_c, 0, 72, 82
2, 16344, Note_on_c, 0, 72, 0
2, 16344, Note_on_c, 0, 70, 82
2, 16356, Note_on_c, 0, 70, 0
2, 16356, Note_on_c, 0, 72, 82
2, 16368, Note_on_c, 0, 72, 0
2, 16368, Note_on_c, 0, 72, 82
2, 16387, Note_on_c, 0, 72, 0
2, 16392, Note_on_c, 0, 74, 84
2, 16415, Note_on_c, 0, 74, 0
2, 16416, Note_on_c, 0, 75, 85
2, 16455, Note_on_c, 0, 75, 0
2, 16584, Note_on_c, 0, 70, 85
2, 16607, Note_on_c, 0, 70, 0
2, 16608, Note_on_c, 0, 72, 85
2, 16620, Note_on_c, 0, 72, 0
2, 16620, Note_on_c, 0, 70, 85
2, 16632, Note_on_c, 0, 70, 0
2, 16632, Note_on_c, 0, 68, 85
2, 16644, Note_on_c, 0, 68, 0
2, 16644, Note_on_c, 0, 70, 85
2, 16656, Note_on_c, 0, 70, 0
2, 16656, Note_on_c, 0, 70, 85
2, 16675, Note_on_c, 0, 70, 0
2, 16680, Note_on_c, 0, 72, 85
2, 16703, Note_on_c, 0, 72, 0
2, 16704, Note_on_c, 0, 70, 85
2, 16771, Note_on_c, 0, 70, 0
2, 16776, Note_on_c, 0, 69, 82
2, 16799, Note_on_c, 0, 69, 0
2, 16800, Note_on_c, 0, 68, 81
2, 16933, Note_on_c, 0, 68, 0
2, 16944, Note_on_c, 0, 67, 77
2, 16989, Note_on_c, 0, 67, 0
2, 16992, Note_on_c, 0, 65, 77
2, 17022, Note_on_c, 0, 65, 0
2, 17024, Note_on_c, 0, 68, 77
2, 17054, Note_on_c, 0, 68, 0
2, 17056, Note_on_c, 0, 72, 77
2, 17086, Note_on_c, 0, 72, 0
2, 17088, Note_on_c, 0, 63, 77
2, 17177, Note_on_c, 0, 63, 0
2, 17184, Note_on_c, 0, 62, 77
2, 17197, Note_on_c, 0, 62, 0
2, 17198, Note_on_c, 0, 63, 77
2, 17211, Note_on_c, 0, 63, 0
2, 17212, Note_on_c, 0, 62, 77
2, 17225, Note_on_c, 0, 62, 0
2, 17226, Note_on_c, 0, 63, 77
2, 17239, Note_on_c, 0, 63, 0
2, 17240, Note_on_c, 0, 62, 77
2, 17253, Note_on_c, 0, 62, 0
2, 17254, Note_on_c, 0, 60, 77
2, 17266, Note_on_c, 0, 60, 0
2, 17267, Note_on_c, 0, 62, 77
2, 17279, Note_on_c, 0, 62, 0
2, 17280, Note_on_c, 0, 63, 77
2, 17598, Note_on_c, 0, 63, 0
2, 17600, Note_on_c, 0, 72, 85
2, 17630, Note_on_c, 0, 72, 0
2, 17632, Note_on_c, 0, 70, 84
2, 17662, Note_on_c, 0, 70, 0
2, 17664, Note_on_c, 0, 68, 83
2, 17694, Note_on_c, 0, 68, 0
2, 17696, Note_on_c, 0, 67, 82
2, 17726, Note_on_c, 0, 67, 0
2, 17728, Note_on_c, 0, 65, 81
2, 17758, Note_on_c, 0, 65, 0
2, 17760, Note_on_c, 0, 63, 80
2, 17790, Note_on_c, 0, 63, 0
2, 17792, Note_on_c, 0, 62, 79
2, 17822, Note_on_c, 0, 62, 0
2, 17824, Note_on_c, 0, 65, 78
2, 17854, Note_on_c, 0, 65, 0
2, 17856, Note_on_c, 0, 67, 85
2, 17886, Note_on_c, 0, 67, 0
2, 17888, Note_on_c, 0, 68, 85
2, 17918, Note_on_c, 0, 68, 0
2, 17920, Note_on_c, 0, 70, 86
2, 17950, Note_on_c, 0, 70, 0
2, 17952, Note_on_c, 0, 72, 86
2, 17982, Note_on_c, 0, 72, 0
2, 17984, Note_on_c, 0, 74, 87
2, 18014, Note_on_c, 0, 74, 0
2, 18016, Note_on_c, 0, 75, 88
2, 18046, Note_on_c, 0, 75, 0
2, 18048, Note_on_c, 0, 77, 88
2, 18078, Note_on_c, 0, 77, 0
2, 18080, Note_on_c, 0, 79, 89
2, 18110, Note_on_c, 0, 79, 0
2, 18112, Note_on_c, 0, 80, 90
2, 18142, Note_on_c, 0, 80, 0
2, 18144, Note_on_c, 0, 82, 90
2, 18174, Note_on_c, 0, 82, 0
2, 18176, Note_on_c, 0, 84, 92
2, 18206, Note_on_c, 0, 84, 0
2, 18208, Note_on_c, 0, 82, 90
2, 18238, Note_on_c, 0, 82, 0
2, 18240, Note_on_c, 0, 80, 89
2, 18270, Note_on_c, 0, 80, 0
2, 18272, Note_on_c, 0, 79, 88
2, 18302, Note_on_c, 0, 79, 0
2, 18304, Note_on_c, 0, 77, 87
2, 18334, Note_on_c, 0, 77, 0
2, 18336, Note_on_c, 0, 75, 86
2, 18366, Note_on_c, 0, 75, 0
2, 18368, Note_on_c, 0, 74, 85
2, 18398, Note_on_c, 0, 74, 0
2, 18400, Note_on_c, 0, 77, 85
2, 18430, Note_on_c, 0, 77, 0
2, 18432, Note_on_c, 0, 75, 85
2, 18521, Note_on_c, 0, 75, 0
2, 18576, Note_on_c, 0, 70, 70
2, 18621, Note_on_c, 0, 70, 0
2, 18624, Note_on_c, 0, 66, 70
2, 18669, Note_on_c, 0, 66, 0
2, 18672, Note_on_c, 0, 63, 70
2, 18717, Note_on_c, 0, 63, 0
2, 18720, Note_on_c, 0, 62, 70
2, 18816, Note_on_c, 0, 62, 0
2, 18816, Note_on_c, 0, 63, 70
2, 18861, Note_on_c, 0, 63, 0
2, 18864, Note_on_c, 0, 70, 70
2, 18909, Note_on_c, 0, 70, 0
2, 18912, Note_on_c, 0, 66, 70
2, 18957, Note_on_c, 0, 66, 0
2, 18960, Note_on_c, 0, 63, 70
2, 19005, Note_on_c, 0, 63, 0
2, 19008, Note_on_c, 0, 59, 70
2, 19104, Note_on_c, 0, 59, 0
2, 19104, Note_on_c, 0, 58, 70
2, 19149, Note_on_c, 0, 58, 0
2, 19152, Note_on_c, 0, 70, 70
2, 19197, Note_on_c, 0, 70, 0
2, 19200, Note_on_c, 0, 68, 70
2, 19245, Note_on_c, 0, 68, 0
2, 19248, Note_on_c, 0, 65, 70
2, 19293, Note_on_c, 0, 65, 0
2, 19296, Note_on_c, 0, 66, 70
2, 19392, Note_on_c, 0, 66, 0
2, 19392, Note_on_c, 0, 67, 70
2, 19481, Note_on_c, 0, 67, 0
2, 19488, Note_on_c, 0, 68, 71
2, 19533, Note_on_c, 0, 68, 0
2, 19536, Note_on_c, 0, 75, 71
2, 19581, Note_on_c, 0, 75, 0
2, 19584, Note_on_c, 0, 73, 71
2, 19629, Note_on_c, 0, 73, 0
2, 19632, Note_on_c, 0, 70, 72
2, 19677, Note_on_c, 0, 70, 0
2, 19680, Note_on_c, 0, 71, 72
2, 19776, Note_on_c, 0, 71, 0
2, 19776, Note_on_c, 0, 72, 73
2, 19865, Note_on_c, 0, 72, 0
2, 19872, Note_on_c, 0, 73, 73
2, 20109, Note_on_c, 0, 73, 0
2, 20112, Note_on_c, 0, 73, 75
2, 20157, Note_on_c, 0, 73, 0
2, 20736, Note_on_c, 0, 66, 77
2, 20825, Note_on_c, 0, 66, 0
2, 20880, Note_on_c, 0, 70, 70
2, 20925, Note_on_c, 0, 70, 0
2, 20928, Note_on_c, 0, 66, 70
2, 20973, Note_on_c, 0, 66, 0
2, 20976, Note_on_c, 0, 63, 70
2, 21021, Note_on_c, 0, 63, 0
2, 21024, Note_on_c, 0, 62, 70
2, 21120, Note_on_c, 0, 62, 0
2, 21120, Note_on_c, 0, 63, 70
2, 21165, Note_on_c, 0, 63, 0
2, 21168, Note_on_c, 0, 70, 70
2, 21213, Note_on_c, 0, 70, 0
2, 21216, Note_on_c, 0, 66, 70
2, 21261, Note_on_c, 0, 66, 0
2, 21264, Note_on_c, 0, 63, 70
2, 21309, Note_on_c, 0, 63, 0
2, 21312, Note_on_c, 0, 59, 70
2, 21408, Note_on_c, 0, 59, 0
2, 21408, Note_on_c, 0, 58, 70
2, 21453, Note_on_c, 0, 58, 0
2, 21456, Note_on_c, 0, 70, 70
2, 21501, Note_on_c, 0, 70, 0
2, 21504, Note_on_c, 0, 68, 70
2, 21549, Note_on_c, 0, 68, 0
2, 21552, Note_on_c, 0, 65, 70
2, 21597, Note_on_c, 0, 65, 0
2, 21600, Note_on_c, 0, 66, 70
2, 21696, Note_on_c, 0, 66, 0
2, 21696, Note_on_c, 0, 67, 70
2, 21785, Note_on_c, 0, 67, 0
2, 21792, Note_on_c, 0, 68, 71
2, 21837, Note_on_c, 0, 68, 0
2, 21840, Note_on_c, 0, 75, 71
2, 21885, Note_on_c, 0, 75, 0
2, 21888, Note_on_c, 0, 73, 71
2, 21933, Note_on_c, 0, 73, 0
2, 21936, Note_on_c, 0, 70, 72
2, 21981, Note_on_c, 0, 70, 0
2, 21984, Note_on_c, 0, 71, 72
2, 22080, Note_on_c, 0, 71, 0
2, 22080, Note_on_c, 0, 72, 73
2, 22169, Note_on_c, 0, 72, 0
2, 22176, Note_on_c, 0, 73, 73
2, 22413, Note_on_c, 0, 73, 0
2, 22416, Note_on_c, 0, 73, 75
2, 22461, Note_on_c, 0, 73, 0
2, 23040, Note_on_c, 0, 66, 77
2, 23129, Note_on_c, 0, 66, 0
2, 23184, Note_on_c, 0, 73, 77
2, 23229, Note_on_c, 0, 73, 0
2, 23232, Note_on_c, 0, 70, 77
2, 23277, Note_on_c, 0, 70, 0
2, 23280, Note_on_c, 0, 66, 77
2, 23325, Note_on_c, 0, 66, 0
2, 23328, Note_on_c, 0, 65, 77
2, 23424, Note_on_c, 0, 65, 0
2, 23424, Note_on_c, 0, 66, 77
2, 23469, Note_on_c, 0, 66, 0
2, 23472, Note_on_c, 0, 73, 77
2, 23517, Note_on_c, 0, 73, 0
2, 23520, Note_on_c, 0, 70, 77
2, 23565, Note_on_c, 0, 70, 0
2, 23568, Note_on_c, 0, 66, 77
2, 23613, Note_on_c, 0, 66, 0
2, 23616, Note_on_c, 0, 64, 77
2, 23712, Note_on_c, 0, 64, 0
2, 23712, Note_on_c, 0, 63, 77
2, 23757, Note_on_c, 0, 63, 0
2, 23760, Note_on_c, 0, 75, 77
2, 23805, Note_on_c, 0, 75, 0
2, 23808, Note_on_c, 0, 71, 78
2, 23853, Note_on_c, 0, 71, 0
2, 23856, Note_on_c, 0, 68, 79
2, 23901, Note_on_c, 0, 68, 0
2, 23904, Note_on_c, 0, 67, 79
2, 24000, Note_on_c, 0, 67, 0
2, 24000, Note_on_c, 0, 68, 81
2, 24045, Note_on_c, 0, 68, 0
2, 24048, Note_on_c, 0, 75, 81
2, 24093, Note_on_c, 0, 75, 0
2, 24096, Note_on_c, 0, 71, 82
2, 24141, Note_on_c, 0, 71, 0
2, 24144, Note_on_c, 0, 70, 83
2, 24189, Note_on_c, 0, 70, 0
2, 24192, Note_on_c, 0, 69, 83
2, 24288, Note_on_c, 0, 69, 0
2, 24288, Note_on_c, 0, 70, 85
2, 24333, Note_on_c, 0, 70, 0
2, 24336, Note_on_c, 0, 71, 85
2, 24381, Note_on_c, 0, 71, 0
2, 24384, Note_on_c, 0, 68, 85
2, 24429, Note_on_c, 0, 68, 0
2, 24432, Note_on_c, 0, 65, 85
2, 24477, Note_on_c, 0, 65, 0
2, 24480, Note_on_c, 0, 62, 85
2, 24500, Note_on_c, 0, 62, 0
2, 24816, Note_on_c, 0, 71, 77
2, 24861, Note_on_c, 0, 71, 0
2, 24864, Note_on_c, 0, 62, 76
2, 24909, Note_on_c, 0, 62, 0
2, 24912, Note_on_c, 0, 65, 75
2, 24957, Note_on_c, 0, 65, 0
2, 24960, Note_on_c, 0, 63, 74
2, 25005, Note_on_c, 0, 63, 0
2, 25008, Note_on_c, 0, 70, 73
2, 25101, Note_on_c, 0, 70, 0
2, 25104, Note_on_c, 0, 68, 71
2, 25193, Note_on_c, 0, 68, 0
2, 25200, Note_on_c, 0, 66, 69
2, 25289, Note_on_c, 0, 66, 0
2, 25296, Note_on_c, 0, 65, 67
2, 25341, Note_on_c, 0, 65, 0
2, 25344, Note_on_c, 0, 65, 66
2, 25392, Note_on_c, 0, 65, 0
2, 25392, Note_on_c, 0, 63, 65
2, 25437, Note_on_c, 0, 63, 0
2, 25488, Note_on_c, 0, 73, 77
2, 25533, Note_on_c, 0, 73, 0
2, 25536, Note_on_c, 0, 70, 77
2, 25581, Note_on_c, 0, 70, 0
2, 25584, Note_on_c, 0, 66, 77
2, 25629, Note_on_c, 0, 66, 0
2, 25632, Note_on_c, 0, 65, 77
2, 25728, Note_on_c, 0, 65, 0
2, 25728, Note_on_c, 0, 66, 77
2, 25773, Note_on_c, 0, 66, 0
2, 25776, Note_on_c, 0, 73, 77
2, 25821, Note_on_c, 0, 73, 0
2, 25824, Note_on_c, 0, 70, 77
2, 25869, Note_on_c, 0, 70, 0
2, 25872, Note_on_c, 0, 66, 77
2, 25917, Note_on_c, 0, 66, 0
2, 25920, Note_on_c, 0, 64, 77
2, 26016, Note_on_c, 0, 64, 0
2, 26016, Note_on_c, 0, 63, 77
2, 26061, Note_on_c, 0, 63, 0
2, 26064, Note_on_c, 0, 75, 77
2, 26109, Note_on_c, 0, 75, 0
2, 26112, Note_on_c, 0, 71, 78
2, 26157, Note_on_c, 0, 71, 0
2, 26160, Note_on_c, 0, 68, 79
2, 26205, Note_on_c, 0, 68, 0
2, 26208, Note_on_c, 0, 67, 79
2, 26304, Note_on_c, 0, 67, 0
2, 26304, Note_on_c, 0, 68, 81
2, 26349, Note_on_c, 0, 68, 0
2, 26352, Note_on_c, 0, 75, 81
2, 26397, Note_on_c, 0, 75, 0
2, 26400, Note_on_c, 0, 71, 82
2, 26445, Note_on_c, 0, 71, 0
2, 26448, Note_on_c, 0, 70, 83
2, 26493, Note_on_c, 0, 70, 0
2, 26496, Note_on_c, 0, 69, 83
2, 26592, Note_on_c, 0, 69, 0
2, 26592, Note_on_c, 0, 70, 85
2, 26637, Note_on_c, 0, 70, 0
2, 26640, Note_on_c, 0, 71, 85
2, 26685, Note_on_c, 0, 71, 0
2, 26688, Note_on_c, 0, 68, 85
2, 26733, Note_on_c, 0, 68, 0
2, 26736, Note_on_c, 0, 65, 85
2, 26781, Note_on_c, 0, 65, 0
2, 26784, Note_on_c, 0, 62, 85
2, 26804, Note_on_c, 0, 62, 0
2, 27120, Note_on_c, 0, 71, 77
2, 27165, Note_on_c, 0, 71, 0
2, 27168, Note_on_c, 0, 62, 76
2, 27213, Note_on_c, 0, 62, 0
2, 27216, Note_on_c, 0, 65, 75
2, 27261, Note_on_c, 0, 65, 0
2, 27264, Note_on_c, 0, 63, 74
2, 27309, Note_on_c, 0, 63, 0
2, 27312, Note_on_c, 0, 70, 73
2, 27405, Note_on_c, 0, 70, 0
2, 27408, Note_on_c, 0, 68, 71
2, 27497, Note_on_c, 0, 68, 0
2, 27504, Note_on_c, 0, 66, 69
2, 27593, Note_on_c, 0, 66, 0
2, 27600, Note_on_c, 0, 65, 67
2, 27645, Note_on_c, 0, 65, 0
2, 27648, Note_on_c, 0, 65, 66
2, 27696, Note_on_c, 0, 65, 0
2, 27696, Note_on_c, 0, 63, 65
2, 27741, Note_on_c, 0, 63, 0
2, 27816, Note_on_c, 0, 75, 64
2, 27839, Note_on_c, 0, 75, 0
2, 27840, Note_on_c, 0, 77, 64
2, 27852, Note_on_c, 0, 77, 0
2, 27852, Note_on_c, 0, 75, 64
2, 27864, Note_on_c, 0, 75, 0
2, 27864, Note_on_c, 0, 74, 64
2, 27876, Note_on_c, 0, 74, 0
2, 27876, Note_on_c, 0, 75, 64
2, 27888, Note_on_c, 0, 75, 0
2, 27888, Note_on_c, 0, 75, 64
2, 27907, Note_on_c, 0, 75, 0
2, 27912, Note_on_c, 0, 79, 64
2, 27935, Note_on_c, 0, 79, 0
2, 27936, Note_on_c, 0, 82, 64
2, 27975, Note_on_c, 0, 82, 0
2, 28104, Note_on_c, 0, 75, 64
2, 28127, Note_on_c, 0, 75, 0
2, 28128, Note_on_c, 0, 77, 64
2, 28140, Note_on_c, 0, 77, 0
2, 28140, Note_on_c, 0, 75, 64
2, 28152, Note_on_c, 0, 75, 0
2, 28152, Note_on_c, 0, 74, 64
2, 28164, Note_on_c, 0, 74, 0
2, 28164, Note_on_c, 0, 75, 64
2, 28176, Note_on_c, 0, 75, 0
2, 28176, Note_on_c, 0, 75, 64
2, 28195, Note_on_c, 0, 75, 0
2, 28200, Note_on_c, 0, 79, 64
2, 28223, Note_on_c, 0, 79, 0
2, 28224, Note_on_c, 0, 72, 64
2, 28263, Note_on_c, 0, 72, 0
2, 28392, Note_on_c, 0, 77, 77
2, 28415, Note_on_c, 0, 77, 0
2, 28416, Note_on_c, 0, 79, 78
2, 28428, Note_on_c, 0, 79, 0
2, 28428, Note_on_c, 0, 77, 78
2, 28440, Note_on_c, 0, 77, 0
2, 28440, Note_on_c, 0, 75, 78
2, 28452, Note_on_c, 0, 75, 0
2, 28452, Note_on_c, 0, 77, 78
2, 28464, Note_on_c, 0, 77, 0
2, 28464, Note_on_c, 0, 77, 78
2, 28483, Note_on_c, 0, 77, 0
2, 28488, Note_on_c, 0, 80, 83
2, 28511, Note_on_c, 0, 80, 0
2, 28512, Note_on_c, 0, 84, 85
2, 28542, Note_on_c, 0, 84, 0
2, 28544, Note_on_c, 0, 82, 84
2, 28574, Note_on_c, 0, 82, 0
2, 28576, Note_on_c, 0, 80, 83
2, 28606, Note_on_c, 0, 80, 0
2, 28608, Note_on_c, 0, 79, 83
2, 28638, Note_on_c, 0, 79, 0
2, 28640, Note_on_c, 0, 77, 82
2, 28670, Note_on_c, 0, 77, 0
2, 28672, Note_on_c, 0, 75, 81
2, 28702, Note_on_c, 0, 75, 0
2, 28704, Note_on_c, 0, 74, 81
2, 28734, Note_on_c, 0, 74, 0
2, 28736, Note_on_c, 0, 72, 80
2, 28766, Note_on_c, 0, 72, 0
2, 28768, Note_on_c, 0, 70, 80
2, 28798, Note_on_c, 0, 70, 0
2, 28800, Note_on_c, 0, 68, 79
2, 28896, Note_on_c, 0, 68, 0
2, 28896, Note_on_c, 0, 67, 77
2, 28963, Note_on_c, 0, 67, 0
2, 28968, Note_on_c, 0, 79, 77
2, 28991, Note_on_c, 0, 79, 0
2, 28992, Note_on_c, 0, 80, 78
2, 29004, Note_on_c, 0, 80, 0
2, 29004, Note_on_c, 0, 79, 78
2, 29016, Note_on_c, 0, 79, 0
2, 29016, Note_on_c, 0, 77, 78
2, 29028, Note_on_c, 0, 77, 0
2, 29028, Note_on_c, 0, 79, 78
2, 29040, Note_on_c, 0, 79, 0
2, 29040, Note_on_c, 0, 79, 78
2, 29059, Note_on_c, 0, 79, 0
2, 29064, Note_on_c, 0, 80, 83
2, 29087, Note_on_c, 0, 80, 0
2, 29088, Note_on_c, 0, 82, 85
2, 29127, Note_on_c, 0, 82, 0
2, 29256, Note_on_c, 0, 77, 85
2, 29279, Note_on_c, 0, 77, 0
2, 29280, Note_on_c, 0, 79, 84
2, 29292, Note_on_c, 0, 79, 0
2, 29292, Note_on_c, 0, 77, 84
2, 29304, Note_on_c, 0, 77, 0
2, 29304, Note_on_c, 0, 75, 84
2, 29316, Note_on_c, 0, 75, 0
2, 29316, Note_on_c, 0, 77, 84
2, 29328, Note_on_c, 0, 77, 0
2, 29328, Note_on_c, 0, 77, 84
2, 29347, Note_on_c, 0, 77, 0
2, 29352, Note_on_c, 0, 79, 82
2, 29375, Note_on_c, 0, 79, 0
2, 29376, Note_on_c, 0, 77, 82
2, 29443, Note_on_c, 0, 77, 0
2, 29448, Note_on_c, 0, 76, 80
2, 29471, Note_on_c, 0, 76, 0
2, 29472, Note_on_c, 0, 75, 80
2, 29605, Note_on_c, 0, 75, 0
2, 29616, Note_on_c, 0, 74, 77
2, 29661, Note_on_c, 0, 74, 0
2, 29664, Note_on_c, 0, 72, 77
2, 29694, Note_on_c, 0, 72, 0
2, 29696, Note_on_c, 0, 75, 77
2, 29726, Note_on_c, 0, 75, 0
2, 29728, Note_on_c, 0, 79, 77
2, 29758, Note_on_c, 0, 79, 0
2, 29760, Note_on_c, 0, 70, 77
2, 29849, Note_on_c, 0, 70, 0
2, 29856, Note_on_c, 0, 69, 77
2, 29869, Note_on_c, 0, 69, 0
2, 29870, Note_on_c, 0, 70, 77
2, 29883, Note_on_c, 0, 70, 0
2, 29884, Note_on_c, 0, 69, 77
2, 29897, Note_on_c, 0, 69, 0
2, 29898, Note_on_c, 0, 70, 77
2, 29911, Note_on_c, 0, 70, 0
2, 29912, Note_on_c, 0, 69, 77
2, 29925, Note_on_c, 0, 69, 0
2, 29926, Note_on_c, 0, 67, 77
2, 29938, Note_on_c, 0, 67, 0
2, 29939, Note_on_c, 0, 69, 77
2, 29951, Note_on_c, 0, 69, 0
2, 29952, Note_on_c, 0, 70, 77
2, 30270, Note_on_c, 0, 70, 0
2, 30272, Note_on_c, 0, 79, 85
2, 30302, Note_on_c, 0, 79, 0
2, 30304, Note_on_c, 0, 77, 84
2, 30334, Note_on_c, 0, 77, 0
2, 30336, Note_on_c, 0, 75, 83
2, 30366, Note_on_c, 0, 75, 0
2, 30368, Note_on_c, 0, 74, 82
2, 30398, Note_on_c, 0, 74, 0
2, 30400, Note_on_c, 0, 72, 81
2, 30430, Note_on_c, 0, 72, 0
2, 30432, Note_on_c, 0, 70, 80
2, 30462, Note_on_c, 0, 70, 0
2, 30464, Note_on_c, 0, 69, 79
2, 30494, Note_on_c, 0, 69, 0
2, 30496, Note_on_c, 0, 72, 78
2, 30526, Note_on_c, 0, 72, 0
2, 30528, Note_on_c, 0, 70, 77
2, 30846, Note_on_c, 0, 70, 0
2, 30848, Note_on_c, 0, 72, 77
2, 30878, Note_on_c, 0, 72, 0
2, 30880, Note_on_c, 0, 74, 78
2, 30910, Note_on_c, 0, 74, 0
2, 30912, Note_on_c, 0, 75, 78
2, 30942, Note_on_c, 0, 75, 0
2, 30944, Note_on_c, 0, 77, 79
2, 30974, Note_on_c, 0, 77, 0
2, 30976, Note_on_c, 0, 79, 80
2, 31006, Note_on_c, 0, 79, 0
2, 31008, Note_on_c, 0, 81, 80
2, 31038, Note_on_c, 0, 81, 0
2, 31040, Note_on_c, 0, 82, 81
2, 31070, Note_on_c, 0, 82, 0
2, 31072, Note_on_c, 0, 84, 82
2, 31102, Note_on_c, 0, 84, 0
2, 31104, Note_on_c, 0, 82, 82
2, 31143, Note_on_c, 0, 82, 0
2, 31272, Note_on_c, 0, 75, 77
2, 31295, Note_on_c, 0, 75, 0
2, 31296, Note_on_c, 0, 77, 77
2, 31308, Note_on_c, 0, 77, 0
2, 31308, Note_on_c, 0, 75, 77
2, 31320, Note_on_c, 0, 75, 0
2, 31320, Note_on_c, 0, 74, 77
2, 31332, Note_on_c, 0, 74, 0
2, 31332, Note_on_c, 0, 75, 77
2, 31344, Note_on_c, 0, 75, 0
2, 31344, Note_on_c, 0, 75, 77
2, 31363, Note_on_c, 0, 75, 0
2, 31368, Note_on_c, 0, 79, 77
2, 31391, Note_on_c, 0, 79, 0
2, 31392, Note_on_c, 0, 82, 77
2, 31431, Note_on_c, 0, 82, 0
2, 31560, Note_on_c, 0, 75, 77
2, 31583, Note_on_c, 0, 75, 0
2, 31584, Note_on_c, 0, 77, 77
2, 31596, Note_on_c, 0, 77, 0
2, 31596, Note_on_c, 0, 75, 77
2, 31608, Note_on_c, 0, 75, 0
2, 31608, Note_on_c, 0, 74, 77
2, 31620, Note_on_c, 0, 74, 0
2, 31620, Note_on_c, 0, 75, 77
2, 31632, Note_on_c, 0, 75, 0
2, 31632, Note_on_c, 0, 75, 77
2, 31651, Note_on_c, 0, 75, 0
2, 31656, Note_on_c, 0, 79, 77
2, 31679, Note_on_c, 0, 79, 0
2, 31680, Note_on_c, 0, 72, 77
2, 31719, Note_on_c, 0, 72, 0
2, 31848, Note_on_c, 0, 77, 77
2, 31871, Note_on_c, 0, 77, 0
2, 31872, Note_on_c, 0, 79, 78
2, 31884, Note_on_c, 0, 79, 0
2, 31884, Note_on_c, 0, 77, 78
2, 31896, Note_on_c, 0, 77, 0
2, 31896, Note_on_c, 0, 75, 78
2, 31908, Note_on_c, 0, 75, 0
2, 31908, Note_on_c, 0, 77, 78
2, 31920, Note_on_c, 0, 77, 0
2, 31920, Note_on_c, 0, 77, 78
2, 31939, Note_on_c, 0, 77, 0
2, 31944, Note_on_c, 0, 80, 83
2, 31967, Note_on_c, 0, 80, 0
2, 31968, Note_on_c, 0, 84, 85
2, 31998, Note_on_c, 0, 84, 0
2, 32000, Note_on_c, 0, 82, 84
2, 32030, Note_on_c, 0, 82, 0
2, 32032, Note_on_c, 0, 80, 83
2, 32062, Note_on_c, 0, 80, 0
2, 32064, Note_on_c, 0, 79, 83
2, 32094, Note_on_c, 0, 79, 0
2, 32096, Note_on_c, 0, 77, 82
2, 32126, Note_on_c, 0, 77, 0
2, 32128, Note_on_c, 0, 75, 81
2, 32158, Note_on_c, 0, 75, 0
2, 32160, Note_on_c, 0, 74, 81
2, 32190, Note_on_c, 0, 74, 0
2, 32192, Note_on_c, 0, 72, 80
2, 32222, Note_on_c, 0, 72, 0
2, 32224, Note_on_c, 0, 70, 80
2, 32254, Note_on_c, 0, 70, 0
2, 32256, Note_on_c, 0, 68, 79
2, 32352, Note_on_c, 0, 68, 0
2, 32352, Note_on_c, 0, 67, 77
2, 32419, Note_on_c, 0, 67, 0
2, 32424, Note_on_c, 0, 79, 77
2, 32447, Note_on_c, 0, 79, 0
2, 32448, Note_on_c, 0, 80, 78
2, 32460, Note_on_c, 0, 80, 0
2, 32460, Note_on_c, 0, 79, 78
2, 32472, Note_on_c, 0, 79, 0
2, 32472, Note_on_c, 0, 77, 78
2, 32484, Note_on_c, 0, 77, 0
2, 32484, Note_on_c, 0, 79, 78
2, 32496, Note_on_c, 0, 79, 0
2, 32496, Note_on_c, 0, 79, 78
2, 32515, Note_on_c, 0, 79, 0
2, 32520, Note_on_c, 0, 80, 83
2, 32543, Note_on_c, 0, 80, 0
2, 32544, Note_on_c, 0, 82, 85
2, 32583, Note_on_c, 0, 82, 0
2, 32712, Note_on_c, 0, 77, 85
2, 32735, Note_on_c, 0, 77, 0
2, 32736, Note_on_c, 0, 79, 84
2, 32748, Note_on_c, 0, 79, 0
2, 32748, Note_on_c, 0, 77, 84
2, 32760, Note_on_c, 0, 77, 0
2, 32760, Note_on_c, 0, 75, 84
2, 32772, Note_on_c, 0, 75, 0
2, 32772, Note_on_c, 0, 77, 84
2, 32784, Note_on_c, 0, 77, 0
2, 32784, Note_on_c, 0, 77, 84
2, 32803, Note_on_c, 0, 77, 0
2, 32808, Note_on_c, 0, 79, 82
2, 32831, Note_on_c, 0, 79, 0
2, 32832, Note_on_c, 0, 77, 82
2, 32899, Note_on_c, 0, 77, 0
2, 32904, Note_on_c, 0, 76, 80
2, 32927, Note_on_c, 0, 76, 0
2, 32928, Note_on_c, 0, 75, 80
2, 33061, Note_on_c, 0, 75, 0
2, 33072, Note_on_c, 0, 74, 77
2, 33117, Note_on_c, 0, 74, 0
2, 33120, Note_on_c, 0, 72, 77
2, 33150, Note_on_c, 0, 72, 0
2, 33152, Note_on_c, 0, 75, 77
2, 33182, Note_on_c, 0, 75, 0
2, 33184, Note_on_c, 0, 79, 77
2, 33214, Note_on_c, 0, 79, 0
2, 33216, Note_on_c, 0, 70, 77
2, 33305, Note_on_c, 0, 70, 0
2, 33312, Note_on_c, 0, 69, 77
2, 33325, Note_on_c, 0, 69, 0
2, 33326, Note_on_c, 0, 70, 77
2, 33339, Note_on_c, 0, 70, 0
2, 33340, Note_on_c, 0, 69, 77
2, 33353, Note_on_c, 0, 69, 0
2, 33354, Note_on_c, 0, 70, 77
2, 33367, Note_on_c, 0, 70, 0
2, 33368, Note_on_c, 0, 69, 77
2, 33381, Note_on_c, 0, 69, 0
2, 33382, Note_on_c, 0, 67, 77
2, 33394, Note_on_c, 0, 67, 0
2, 33395, Note_on_c, 0, 69, 77
2, 33407, Note_on_c, 0, 69, 0
2, 33408, Note_on_c, 0, 70, 77
2, 33726, Note_on_c, 0, 70, 0
2, 33728, Note_on_c, 0, 79, 85
2, 33758, Note_on_c, 0, 79, 0
2, 33760, Note_on_c, 0, 77, 84
2, 33790, Note_on_c, 0, 77, 0
2, 33792, Note_on_c, 0, 75, 83
2, 33822, Note_on_c, 0, 75, 0
2, 33824, Note_on_c, 0, 74, 82
2, 33854, Note_on_c, 0, 74, 0
2, 33856, Note_on_c, 0, 72, 81
2, 33886, Note_on_c, 0, 72, 0
2, 33888, Note_on_c, 0, 70, 80
2, 33918, Note_on_c, 0, 70, 0
2, 33920, Note_on_c, 0, 69, 79
2, 33950, Note_on_c, 0, 69, 0
2, 33952, Note_on_c, 0, 72, 78
2, 33982, Note_on_c, 0, 72, 0
2, 33984, Note_on_c, 0, 70, 77
2, 34302, Note_on_c, 0, 70, 0
2, 34304, Note_on_c, 0, 72, 77
2, 34334, Note_on_c, 0, 72, 0
2, 34336, Note_on_c, 0, 74, 78
2, 34366, Note_on_c, 0, 74, 0
2, 34368, Note_on_c, 0, 75, 78
2, 34398, Note_on_c, 0, 75, 0
2, 34400, Note_on_c, 0, 77, 79
2, 34430, Note_on_c, 0, 77, 0
2, 34432, Note_on_c, 0, 79, 80
2, 34462, Note_on_c, 0, 79, 0
2, 34464, Note_on_c, 0, 81, 80
2, 34494, Note_on_c, 0, 81, 0
2, 34496, Note_on_c, 0, 82, 81
2, 34526, Note_on_c, 0, 82, 0
2, 34528, Note_on_c, 0, 84, 82
2, 34558, Note_on_c, 0, 84, 0
2, 34560, Note_on_c, 0, 82, 82
2, 34599, Note_on_c, 0, 82, 0
2, 34728, Note_on_c, 0, 70, 85
2, 34751, Note_on_c, 0, 70, 0
2, 34752, Note_on_c, 0, 72, 85
2, 34764, Note_on_c, 0, 72, 0
2, 34764, Note_on_c, 0, 70, 85
2, 34776, Note_on_c, 0, 70, 0
2, 34776, Note_on_c, 0, 68, 85
2, 34788, Note_on_c, 0, 68, 0
2, 34788, Note_on_c, 0, 70, 85
2, 34800, Note_on_c, 0, 70, 0
2, 34800, Note_on_c, 0, 70, 85
2, 34819, Note_on_c, 0, 70, 0
2, 34824, Note_on_c, 0, 72, 85
2, 34847, Note_on_c, 0, 72, 0
2, 34848, Note_on_c, 0, 73, 101
2, 34974, Note_on_c, 0, 73, 0
2, 34976, Note_on_c, 0, 72, 85
2, 35006, Note_on_c, 0, 72, 0
2, 35008, Note_on_c, 0, 70, 85
2, 35038, Note_on_c, 0, 70, 0
2, 35040, Note_on_c, 0, 68, 85
2, 35070, Note_on_c, 0, 68, 0
2, 35072, Note_on_c, 0, 67, 85
2, 35102, Note_on_c, 0, 67, 0
2, 35104, Note_on_c, 0, 65, 85
2, 35134, Note_on_c, 0, 65, 0
2, 35136, Note_on_c, 0, 64, 85
2, 35232, Note_on_c, 0, 64, 0
2, 35232, Note_on_c, 0, 65, 85
2, 35299, Note_on_c, 0, 65, 0
2, 35304, Note_on_c, 0, 68, 85
2, 35327, Note_on_c, 0, 68, 0
2, 35328, Note_on_c, 0, 70, 85
2, 35340, Note_on_c, 0, 70, 0
2, 35340, Note_on_c, 0, 68, 85
2, 35352, Note_on_c, 0, 68, 0
2, 35352, Note_on_c, 0, 67, 85
2, 35364, Note_on_c, 0, 67, 0
2, 35364, Note_on_c, 0, 68, 85
2, 35376, Note_on_c, 0, 68, 0
2, 35376, Note_on_c, 0, 68, 85
2, 35395, Note_on_c, 0, 68, 0
2, 35400, Note_on_c, 0, 70, 85
2, 35423, Note_on_c, 0, 70, 0
2, 35424, Note_on_c, 0, 71, 101
2, 35550, Note_on_c, 0, 71, 0
2, 35552, Note_on_c, 0, 70, 85
2, 35582, Note_on_c, 0, 70, 0
2, 35584, Note_on_c, 0, 68, 85
2, 35614, Note_on_c, 0, 68, 0
2, 35616, Note_on_c, 0, 66, 85
2, 35646, Note_on_c, 0, 66, 0
2, 35648, Note_on_c, 0, 65, 85
2, 35678, Note_on_c, 0, 65, 0
2, 35680, Note_on_c, 0, 63, 85
2, 35710, Note_on_c, 0, 63, 0
2, 35712, Note_on_c, 0, 62, 85
2, 35808, Note_on_c, 0, 62, 0
2, 35808, Note_on_c, 0, 63, 85
2, 35875, Note_on_c, 0, 63, 0
2, 35880, Note_on_c, 0, 63, 85
2, 35903, Note_on_c, 0, 63, 0
2, 35904, Note_on_c, 0, 65, 85
2, 35916, Note_on_c, 0, 65, 0
2, 35916, Note_on_c, 0, 63, 85
2, 35928, Note_on_c, 0, 63, 0
2, 35928, Note_on_c, 0, 62, 85
2, 35940, Note_on_c, 0, 62, 0
2, 35940, Note_on_c, 0, 63, 85
2, 35952, Note_on_c, 0, 63, 0
2, 35952, Note_on_c, 0, 63, 85
2, 35971, Note_on_c, 0, 63, 0
2, 35976, Note_on_c, 0, 67, 85
2, 35999, Note_on_c, 0, 67, 0
2, 36000, Note_on_c, 0, 60, 70
2, 36030, Note_on_c, 0, 60, 0
2, 36032, Note_on_c, 0, 62, 70
2, 36062, Note_on_c, 0, 62, 0
2, 36064, Note_on_c, 0, 63, 71
2, 36094, Note_on_c, 0, 63, 0
2, 36096, Note_on_c, 0, 65, 71
2, 36126, Note_on_c, 0, 65, 0
2, 36128, Note_on_c, 0, 67, 72
2, 36158, Note_on_c, 0, 67, 0
2, 36160, Note_on_c, 0, 68, 72
2, 36190, Note_on_c, 0, 68, 0
2, 36192, Note_on_c, 0, 62, 73
2, 36222, Note_on_c, 0, 62, 0
2, 36224, Note_on_c, 0, 63, 73
2, 36254, Note_on_c, 0, 63, 0
2, 36256, Note_on_c, 0, 65, 74
2, 36286, Note_on_c, 0, 65, 0
2, 36288, Note_on_c, 0, 63, 74
2, 36318, Note_on_c, 0, 63, 0
2, 36320, Note_on_c, 0, 65, 75
2, 36350, Note_on_c, 0, 65, 0
2, 36352, Note_on_c, 0, 67, 75
2, 36382, Note_on_c, 0, 67, 0
2, 36384, Note_on_c, 0, 68, 76
2, 36414, Note_on_c, 0, 68, 0
2, 36416, Note_on_c, 0, 70, 76
2, 36446, Note_on_c, 0, 70, 0
2, 36448, Note_on_c, 0, 72, 77
2, 36478, Note_on_c, 0, 72, 0
2, 36480, Note_on_c, 0, 65, 77
2, 36510, Note_on_c, 0, 65, 0
2, 36512, Note_on_c, 0, 67, 78
2, 36542, Note_on_c, 0, 67, 0
2, 36544, Note_on_c, 0, 68, 78
2, 36574, Note_on_c, 0, 68, 0
2, 36576, Note_on_c, 0, 67, 79
2, 36606, Note_on_c, 0, 67, 0
2, 36608, Note_on_c, 0, 68, 79
2, 36638, Note_on_c, 0, 68, 0
2, 36640, Note_on_c, 0, 70, 80
2, 36670, Note_on_c, 0, 70, 0
2, 36672, Note_on_c, 0, 72, 80
2, 36702, Note_on_c, 0, 72, 0
2, 36704, Note_on_c, 0, 74, 81
2, 36734, Note_on_c, 0, 74, 0
2, 36736, Note_on_c, 0, 75, 81
2, 36766, Note_on_c, 0, 75, 0
2, 36768, Note_on_c, 0, 77, 82
2, 36798, Note_on_c, 0, 77, 0
2, 36800, Note_on_c, 0, 79, 83
2, 36830, Note_on_c, 0, 79, 0
2, 36832, Note_on_c, 0, 80, 83
2, 36862, Note_on_c, 0, 80, 0
2, 36864, Note_on_c, 0, 79, 85
2, 36864, Note_on_c, 0, 75, 85
2, 36953, Note_on_c, 0, 79, 0
2, 36953, Note_on_c, 0, 75, 0
2, 36960, Note_on_c, 0, 77, 81
2, 36960, Note_on_c, 0, 74, 81
2, 37027, Note_on_c, 0, 77, 0
2, 37027, Note_on_c, 0, 74, 0
2, 37032, Note_on_c, 0, 75, 78
2, 37055, Note_on_c, 0, 75, 0
2, 37056, Note_on_c, 0, 77, 77
2, 37068, Note_on_c, 0, 77, 0
2, 37068, Note_on_c, 0, 75, 77
2, 37080, Note_on_c, 0, 75, 0
2, 37080, Note_on_c, 0, 74, 77
2, 37092, Note_on_c, 0, 74, 0
2, 37092, Note_on_c, 0, 75, 77
2, 37104, Note_on_c, 0, 75, 0
2, 37104, Note_on_c, 0, 75, 77
2, 37123, Note_on_c, 0, 75, 0
2, 37128, Note_on_c, 0, 79, 77
2, 37151, Note_on_c, 0, 79, 0
2, 37152, Note_on_c, 0, 82, 77
2, 37191, Note_on_c, 0, 82, 0
2, 37320, Note_on_c, 0, 75, 77
2, 37343, Note_on_c, 0, 75, 0
2, 37344, Note_on_c, 0, 77, 77
2, 37356, Note_on_c, 0, 77, 0
2, 37356, Note_on_c, 0, 75, 77
2, 37368, Note_on_c, 0, 75, 0
2, 37368, Note_on_c, 0, 74, 77
2, 37380, Note_on_c, 0, 74, 0
2, 37380, Note_on_c, 0, 75, 77
2, 37392, Note_on_c, 0, 75, 0
2, 37392, Note_on_c, 0, 75, 77
2, 37411, Note_on_c, 0, 75, 0
2, 37416, Note_on_c, 0, 79, 77
2, 37439, Note_on_c, 0, 79, 0
2, 37440, Note_on_c, 0, 72, 77
2, 37479, Note_on_c, 0, 72, 0
2, 37608, Note_on_c, 0, 77, 77
2, 37631, Note_on_c, 0, 77, 0
2, 37632, Note_on_c, 0, 79, 78
2, 37644, Note_on_c, 0, 79, 0
2, 37644, Note_on_c, 0, 77, 78
2, 37656, Note_on_c, 0, 77, 0
2, 37656, Note_on_c, 0, 75, 78
2, 37668, Note_on_c, 0, 75, 0
2, 37668, Note_on_c, 0, 77, 78
2, 37680, Note_on_c, 0, 77, 0
2, 37680, Note_on_c, 0, 77, 78
2, 37699, Note_on_c, 0, 77, 0
2, 37704, Note_on_c, 0, 80, 83
2, 37727, Note_on_c, 0, 80, 0
2, 37728, Note_on_c, 0, 84, 85
2, 37758, Note_on_c, 0, 84, 0
2, 37760, Note_on_c, 0, 82, 84
2, 37790, Note_on_c, 0, 82, 0
2, 37792, Note_on_c, 0, 80, 83
2, 37822, Note_on_c, 0, 80, 0
2, 37824, Note_on_c, 0, 79, 83
2, 37854, Note_on_c, 0, 79, 0
2, 37856, Note_on_c, 0, 77, 82
2, 37886, Note_on_c, 0, 77, 0
2, 37888, Note_on_c, 0, 75, 82
2, 37918, Note_on_c, 0, 75, 0
2, 37920, Note_on_c, 0, 74, 81
2, 37950, Note_on_c, 0, 74, 0
2, 37952, Note_on_c, 0, 72, 81
2, 37982, Note_on_c, 0, 72, 0
2, 37984, Note_on_c, 0, 70, 80
2, 38014, Note_on_c, 0, 70, 0
2, 38016, Note_on_c, 0, 68, 80
2, 38112, Note_on_c, 0, 68, 0
2, 38112, Note_on_c, 0, 67, 78
2, 38179, Note_on_c, 0, 67, 0
2, 38184, Note_on_c, 0, 72, 77
2, 38207, Note_on_c, 0, 72, 0
2, 38208, Note_on_c, 0, 74, 77
2, 38220, Note_on_c, 0, 74, 0
2, 38220, Note_on_c, 0, 72, 77
2, 38232, Note_on_c, 0, 72, 0
2, 38232, Note_on_c, 0, 70, 77
2, 38244, Note_on_c, 0, 70, 0
2, 38244, Note_on_c, 0, 72, 77
2, 38256, Note_on_c, 0, 72, 0
2, 38256, Note_on_c, 0, 72, 77
2, 38275, Note_on_c, 0, 72, 0
2, 38280, Note_on_c, 0, 74, 80
2, 38303, Note_on_c, 0, 74, 0
2, 38304, Note_on_c, 0, 75, 81
2, 38343, Note_on_c, 0, 75, 0
2, 38472, Note_on_c, 0, 70, 85
2, 38495, Note_on_c, 0, 70, 0
2, 38496, Note_on_c, 0, 72, 85
2, 38508, Note_on_c, 0, 72, 0
2, 38508, Note_on_c, 0, 70, 85
2, 38520, Note_on_c, 0, 70, 0
2, 38520, Note_on_c, 0, 68, 85
2, 38532, Note_on_c, 0, 68, 0
2, 38532, Note_on_c, 0, 70, 85
2, 38544, Note_on_c, 0, 70, 0
2, 38544, Note_on_c, 0, 70, 85
2, 38563, Note_on_c, 0, 70, 0
2, 38568, Note_on_c, 0, 72, 85
2, 38591, Note_on_c, 0, 72, 0
2, 38592, Note_on_c, 0, 70, 85
2, 38659, Note_on_c, 0, 70, 0
2, 38664, Note_on_c, 0, 69, 82
2, 38687, Note_on_c, 0, 69, 0
2, 38688, Note_on_c, 0, 68, 81
2, 38821, Note_on_c, 0, 68, 0
2, 38832, Note_on_c, 0, 67, 77
2, 38877, Note_on_c, 0, 67, 0
2, 38880, Note_on_c, 0, 65, 77
2, 38910, Note_on_c, 0, 65, 0
2, 38912, Note_on_c, 0, 68, 77
2, 38942, Note_on_c, 0, 68, 0
2, 38944, Note_on_c, 0, 72, 77
2, 38974, Note_on_c, 0, 72, 0
2, 38976, Note_on_c, 0, 63, 77
2, 39065, Note_on_c, 0, 63, 0
2, 39072, Note_on_c, 0, 62, 77
2, 39085, Note_on_c, 0, 62, 0
2, 39086, Note_on_c, 0, 63, 77
2, 39099, Note_on_c, 0, 63, 0
2, 39100, Note_on_c, 0, 62, 77
2, 39113, Note_on_c, 0, 62, 0
2, 39114, Note_on_c, 0, 63, 77
2, 39127, Note_on_c, 0, 63, 0
2, 39128, Note_on_c, 0, 62, 77
2, 39141, Note_on_c, 0, 62, 0
2, 39142, Note_on_c, 0, 60, 77
2, 39154, Note_on_c, 0, 60, 0
2, 39155, Note_on_c, 0, 62, 77
2, 39167, Note_on_c, 0, 62, 0
2, 39168, Note_on_c, 0, 63, 77
2, 39486, Note_on_c, 0, 63, 0
2, 39488, Note_on_c, 0, 72, 85
2, 39518, Note_on_c, 0, 72, 0
2, 39520, Note_on_c, 0, 70, 84
2, 39550, Note_on_c, 0, 70, 0
2, 39552, Note_on_c, 0, 68, 83
2, 39582, Note_on_c, 0, 68, 0
2, 39584, Note_on_c, 0, 67, 82
2, 39614, Note_on_c, 0, 67, 0
2, 39616, Note_on_c, 0, 65, 81
2, 39646, Note_on_c, 0, 65, 0
2, 39648, Note_on_c, 0, 63, 80
2, 39678, Note_on_c, 0, 63, 0
2, 39680, Note_on_c, 0, 62, 79
2, 39710, Note_on_c, 0, 62, 0
2, 39712, Note_on_c, 0, 65, 78
2, 39742, Note_on_c, 0, 65, 0
2, 39744, Note_on_c, 0, 67, 77
2, 39774, Note_on_c, 0, 67, 0
2, 39776, Note_on_c, 0, 68, 77
2, 39806, Note_on_c, 0, 68, 0
2, 39808, Note_on_c, 0, 70, 78
2, 39838, Note_on_c, 0, 70, 0
2, 39840, Note_on_c, 0, 72, 79
2, 39870, Note_on_c, 0, 72, 0
2, 39872, Note_on_c, 0, 74, 80
2, 39902, Note_on_c, 0, 74, 0
2, 39904, Note_on_c, 0, 75, 80
2, 39934, Note_on_c, 0, 75, 0
2, 39936, Note_on_c, 0, 77, 81
2, 39966, Note_on_c, 0, 77, 0
2, 39968, Note_on_c, 0, 79, 82
2, 39998, Note_on_c, 0, 79, 0
2, 40000, Note_on_c, 0, 80, 83
2, 40030, Note_on_c, 0, 80, 0
2, 40032, Note_on_c, 0, 82, 83
2, 40062, Note_on_c, 0, 82, 0
2, 40064, Note_on_c, 0, 84, 85
2, 40094, Note_on_c, 0, 84, 0
2, 40096, Note_on_c, 0, 82, 83
2, 40126, Note_on_c, 0, 82, 0
2, 40128, Note_on_c, 0, 80, 82
2, 40158, Note_on_c, 0, 80, 0
2, 40160, Note_on_c, 0, 79, 81
2, 40190, Note_on_c, 0, 79, 0
2, 40192, Note_on_c, 0, 77, 80
2, 40222, Note_on_c, 0, 77, 0
2, 40224, Note_on_c, 0, 75, 78
2, 40254, Note_on_c, 0, 75, 0
2, 40256, Note_on_c, 0, 74, 77
2, 40286, Note_on_c, 0, 74, 0
2, 40288, Note_on_c, 0, 77, 77
2, 40318, Note_on_c, 0, 77, 0
2, 40320, Note_on_c, 0, 75, 77
2, 40409, Note_on_c, 0, 75, 0
2, 40488, Note_on_c, 0, 70, 70
2, 40511, Note_on_c, 0, 70, 0
2, 40512, Note_on_c, 0, 72, 70
2, 40524, Note_on_c, 0, 72, 0
2, 40524, Note_on_c, 0, 70, 70
2, 40536, Note_on_c, 0, 70, 0
2, 40536, Note_on_c, 0, 68, 70
2, 40548, Note_on_c, 0, 68, 0
2, 40548, Note_on_c, 0, 70, 70
2, 40560, Note_on_c, 0, 70, 0
2, 40560, Note_on_c, 0, 70, 70
2, 40579, Note_on_c, 0, 70, 0
2, 40584, Note_on_c, 0, 72, 70
2, 40607, Note_on_c, 0, 72, 0
2, 40608, Note_on_c, 0, 73, 86
2, 40734, Note_on_c, 0, 73, 0
2, 40736, Note_on_c, 0, 72, 70
2, 40766, Note_on_c, 0, 72, 0
2, 40768, Note_on_c, 0, 70, 70
2, 40798, Note_on_c, 0, 70, 0
2, 40800, Note_on_c, 0, 68, 70
2, 40830, Note_on_c, 0, 68, 0
2, 40832, Note_on_c, 0, 67, 70
2, 40862, Note_on_c, 0, 67, 0
2, 40864, Note_on_c, 0, 65, 70
2, 40894, Note_on_c, 0, 65, 0
2, 40896, Note_on_c, 0, 64, 70
2, 40992, Note_on_c, 0, 64, 0
2, 40992, Note_on_c, 0, 65, 70
2, 41059, Note_on_c, 0, 65, 0
2, 41064, Note_on_c, 0, 68, 70
2, 41087, Note_on_c, 0, 68, 0
2, 41088, Note_on_c, 0, 70, 70
2, 41100, Note_on_c, 0, 70, 0
2, 41100, Note_on_c, 0, 68, 70
2, 41112, Note_on_c, 0, 68, 0
2, 41112, Note_on_c, 0, 67, 70
2, 41124, Note_on_c, 0, 67, 0
2, 41124, Note_on_c, 0, 68, 70
2, 41136, Note_on_c, 0, 68, 0
2, 41136, Note_on_c, 0, 68, 70
2, 41155, Note_on_c, 0, 68, 0
2, 41160, Note_on_c, 0, 70, 70
2, 41183, Note_on_c, 0, 70, 0
2, 41184, Note_on_c, 0, 71, 86
2, 41310, Note_on_c, 0, 71, 0
2, 41312, Note_on_c, 0, 70, 70
2, 41342, Note_on_c, 0, 70, 0
2, 41344, Note_on_c, 0, 68, 70
2, 41374, Note_on_c, 0, 68, 0
2, 41376, Note_on_c, 0, 66, 70
2, 41406, Note_on_c, 0, 66, 0
2, 41408, Note_on_c, 0, 65, 70
2, 41438, Note_on_c, 0, 65, 0
2, 41440, Note_on_c, 0, 63, 70
2, 41470, Note_on_c, 0, 63, 0
2, 41472, Note_on_c, 0, 62, 70
2, 41568, Note_on_c, 0, 62, 0
2, 41568, Note_on_c, 0, 63, 70
2, 41635, Note_on_c, 0, 63, 0
2, 41640, Note_on_c, 0, 63, 70
2, 41663, Note_on_c, 0, 63, 0
2, 41664, Note_on_c, 0, 65, 70
2, 41676, Note_on_c, 0, 65, 0
2, 41676, Note_on_c, 0, 63, 70
2, 41688, Note_on_c, 0, 63, 0
2, 41688, Note_on_c, 0, 62, 70
2, 41700, Note_on_c, 0, 62, 0
2, 41700, Note_on_c, 0, 63, 70
2, 41712, Note_on_c, 0, 63, 0
2, 41712, Note_on_c, 0, 63, 70
2, 41731, Note_on_c, 0, 63, 0
2, 41736, Note_on_c, 0, 67, 70
2, 41759, Note_on_c, 0, 67, 0
2, 41760, Note_on_c, 0, 60, 70
2, 41790, Note_on_c, 0, 60, 0
2, 41792, Note_on_c, 0, 62, 70
2, 41822, Note_on_c, 0, 62, 0
2, 41824, Note_on_c, 0, 63, 71
2, 41854, Note_on_c, 0, 63, 0
2, 41856, Note_on_c, 0, 65, 71
2, 41886, Note_on_c, 0, 65, 0
2, 41888, Note_on_c, 0, 67, 72
2, 41918, Note_on_c, 0, 67, 0
2, 41920, Note_on_c, 0, 68, 72
2, 41950, Note_on_c, 0, 68, 0
2, 41952, Note_on_c, 0, 62, 73
2, 41982, Note_on_c, 0, 62, 0
2, 41984, Note_on_c, 0, 63, 73
2, 42014, Note_on_c, 0, 63, 0
2, 42016, Note_on_c, 0, 65, 74
2, 42046, Note_on_c, 0, 65, 0
2, 42048, Note_on_c, 0, 63, 74
2, 42078, Note_on_c, 0, 63, 0
2, 42080, Note_on_c, 0, 65, 75
2, 42110, Note_on_c, 0, 65, 0
2, 42112, Note_on_c, 0, 67, 75
2, 42142, Note_on_c, 0, 67, 0
2, 42144, Note_on_c, 0, 68, 76
2, 42174, Note_on_c, 0, 68, 0
2, 42176, Note_on_c, 0, 70, 76
2, 42206, Note_on_c, 0, 70, 0
2, 42208, Note_on_c, 0, 72, 77
2, 42238, Note_on_c, 0, 72, 0
2, 42240, Note_on_c, 0, 65, 77
2, 42270, Note_on_c, 0, 65, 0
2, 42272, Note_on_c, 0, 67, 78
2, 42302, Note_on_c, 0, 67, 0
2, 42304, Note_on_c, 0, 68, 78
2, 42334, Note_on_c, 0, 68, 0
2, 42336, Note_on_c, 0, 67, 79
2, 42366, Note_on_c, 0, 67, 0
2, 42368, Note_on_c, 0, 68, 79
2, 42398, Note_on_c, 0, 68, 0
2, 42400, Note_on_c, 0, 70, 80
2, 42430, Note_on_c, 0, 70, 0
2, 42432, Note_on_c, 0, 72, 80
2, 42462, Note_on_c, 0, 72, 0
2, 42464, Note_on_c, 0, 74, 81
2, 42494, Note_on_c, 0, 74, 0
2, 42496, Note_on_c, 0, 75, 81
2, 42526, Note_on_c, 0, 75, 0
2, 42528, Note_on_c, 0, 77, 82
2, 42558, Note_on_c, 0, 77, 0
2, 42560, Note_on_c, 0, 79, 83
2, 42590, Note_on_c, 0, 79, 0
2, 42592, Note_on_c, 0, 80, 83
2, 42622, Note_on_c, 0, 80, 0
2, 42624, Note_on_c, 0, 79, 85
2, 42624, Note_on_c, 0, 75, 85
2, 42713, Note_on_c, 0, 79, 0
2, 42713, Note_on_c, 0, 75, 0
2, 42720, Note_on_c, 0, 77, 81
2, 42720, Note_on_c, 0, 74, 81
2, 42787, Note_on_c, 0, 77, 0
2, 42787, Note_on_c, 0, 74, 0
2, 42792, Note_on_c, 0, 75, 78
2, 42815, Note_on_c, 0, 75, 0
2, 42816, Note_on_c, 0, 77, 77
2, 42828, Note_on_c, 0, 77, 0
2, 42828, Note_on_c, 0, 75, 77
2, 42840, Note_on_c, 0, 75, 0
2, 42840, Note_on_c, 0, 74, 77
2, 42852, Note_on_c, 0, 74, 0
2, 42852, Note_on_c, 0, 75, 77
2, 42864, Note_on_c, 0, 75, 0
2, 42864, Note_on_c, 0, 75, 77
2, 42883, Note_on_c, 0, 75, 0
2, 42888, Note_on_c, 0, 79, 77
2, 42911, Note_on_c, 0, 79, 0
2, 42912, Note_on_c, 0, 82, 77
2, 42951, Note_on_c, 0, 82, 0
2, 43080, Note_on_c, 0, 75, 77
2, 43103, Note_on_c, 0, 75, 0
2, 43104, Note_on_c, 0, 77, 77
2, 43116, Note_on_c, 0, 77, 0
2, 43116, Note_on_c, 0, 75, 77
2, 43128, Note_on_c, 0, 75, 0
2, 43128, Note_on_c, 0, 74, 77
2, 43140, Note_on_c, 0, 74, 0
2, 43140, Note_on_c, 0, 75, 77
2, 43152, Note_on_c, 0, 75, 0
2, 43152, Note_on_c, 0, 75, 77
2, 43171, Note_on_c, 0, 75, 0
2, 43176, Note_on_c, 0, 79, 77
2, 43199, Note_on_c, 0, 79, 0
2, 43200, Note_on_c, 0, 72, 77
2, 43239, Note_on_c, 0, 72, 0
2, 43368, Note_on_c, 0, 77, 77
2, 43391, Note_on_c, 0, 77, 0
2, 43392, Note_on_c, 0, 79, 78
2, 43404, Note_on_c, 0, 79, 0
2, 43404, Note_on_c, 0, 77, 78
2, 43416, Note_on_c, 0, 77, 0
2, 43416, Note_on_c, 0, 75, 78
2, 43428, Note_on_c, 0, 75, 0
2, 43428, Note_on_c, 0, 77, 78
2, 43440, Note_on_c, 0, 77, 0
2, 43440, Note_on_c, 0, 77, 78
2, 43459, Note_on_c, 0, 77, 0
2, 43464, Note_on_c, 0, 80, 83
2, 43487, Note_on_c, 0, 80, 0
2, 43488, Note_on_c, 0, 84, 85
2, 43518, Note_on_c, 0, 84, 0
2, 43520, Note_on_c, 0, 82, 84
2, 43550, Note_on_c, 0, 82, 0
2, 43552, Note_on_c, 0, 80, 83
2, 43582, Note_on_c, 0, 80, 0
2, 43584, Note_on_c, 0, 79, 83
2, 43614, Note_on_c, 0, 79, 0
2, 43616, Note_on_c, 0, 77, 82
2, 43646, Note_on_c, 0, 77, 0
2, 43648, Note_on_c, 0, 75, 82
2, 43678, Note_on_c, 0, 75, 0
2, 43680, Note_on_c, 0, 74, 81
2, 43710, Note_on_c, 0, 74, 0
2, 43712, Note_on_c, 0, 72, 81
2, 43742, Note_on_c, 0, 72, 0
2, 43744, Note_on_c, 0, 70, 80
2, 43774, Note_on_c, 0, 70, 0
2, 43776, Note_on_c, 0, 68, 80
2, 43872, Note_on_c, 0, 68, 0
2, 43872, Note_on_c, 0, 67, 78
2, 43939, Note_on_c, 0, 67, 0
2, 43944, Note_on_c, 0, 72, 77
2, 43967, Note_on_c, 0, 72, 0
2, 43968, Note_on_c, 0, 74, 77
2, 43980, Note_on_c, 0, 74, 0
2, 43980, Note_on_c, 0, 72, 77
2, 43992, Note_on_c, 0, 72, 0
2, 43992, Note_on_c, 0, 70, 77
2, 44004, Note_on_c, 0, 70, 0
2, 44004, Note_on_c, 0, 72, 77
2, 44016, Note_on_c, 0, 72, 0
2, 44016, Note_on_c, 0, 72, 77
2, 44035, Note_on_c, 0, 72, 0
2, 44040, Note_on_c, 0, 74, 80
2, 44063, Note_on_c, 0, 74, 0
2, 44064, Note_on_c, 0, 75, 81
2, 44103, Note_on_c, 0, 75, 0
2, 44232, Note_on_c, 0, 70, 85
2, 44255, Note_on_c, 0, 70, 0
2, 44256, Note_on_c, 0, 72, 85
2, 44268, Note_on_c, 0, 72, 0
2, 44268, Note_on_c, 0, 70, 85
2, 44280, Note_on_c, 0, 70, 0
2, 44280, Note_on_c, 0, 68, 85
2, 44292, Note_on_c, 0, 68, 0
2, 44292, Note_on_c, 0, 70, 85
2, 44304, Note_on_c, 0, 70, 0
2, 44304, Note_on_c, 0, 70, 85
2, 44323, Note_on_c, 0, 70, 0
2, 44328, Note_on_c, 0, 72, 85
2, 44351, Note_on_c, 0, 72, 0
2, 44352, Note_on_c, 0, 70, 85
2, 44419, Note_on_c, 0, 70, 0
2, 44424, Note_on_c, 0, 69, 82
2, 44447, Note_on_c, 0, 69, 0
2, 44448, Note_on_c, 0, 68, 81
2, 44581, Note_on_c, 0, 68, 0
2, 44592, Note_on_c, 0, 67, 77
2, 44637, Note_on_c, 0, 67, 0
2, 44640, Note_on_c, 0, 65, 77
2, 44670, Note_on_c, 0, 65, 0
2, 44672, Note_on_c, 0, 68, 77
2, 44702, Note_on_c, 0, 68, 0
2, 44704, Note_on_c, 0, 72, 77
2, 44734, Note_on_c, 0, 72, 0
2, 44736, Note_on_c, 0, 63, 77
2, 44825, Note_on_c, 0, 63, 0
2, 44832, Note_on_c, 0, 62, 77
2, 44845, Note_on_c, 0, 62, 0
2, 44846, Note_on_c, 0, 63, 77
2, 44859, Note_on_c, 0, 63, 0
2, 44860, Note_on_c, 0, 62, 77
2, 44873, Note_on_c, 0, 62, 0
2, 44874, Note_on_c, 0, 63, 77
2, 44887, Note_on_c, 0, 63, 0
2, 44888, Note_on_c, 0, 62, 77
2, 44901, Note_on_c, 0, 62, 0
2, 44902, Note_on_c, 0, 60, 77
2, 44914, Note_on_c, 0, 60, 0
2, 44915, Note_on_c, 0, 62, 77
2, 44927, Note_on_c, 0, 62, 0
2, 44928, Note_on_c, 0, 63, 77
2, 45246, Note_on_c, 0, 63, 0
2, 45248, Note_on_c, 0, 72, 85
2, 45278, Note_on_c, 0, 72, 0
2, 45280, Note_on_c, 0, 70, 84
2, 45310, Note_on_c, 0, 70, 0
2, 45312, Note_on_c, 0, 68, 83
2, 45342, Note_on_c, 0, 68, 0
2, 45344, Note_on_c, 0, 67, 82
2, 45374, Note_on_c, 0, 67, 0
2, 45376, Note_on_c, 0, 65, 81
2, 45406, Note_on_c, 0, 65, 0
2, 45408, Note_on_c, 0, 63, 80
2, 45438, Note_on_c, 0, 63, 0
2, 45440, Note_on_c, 0, 62, 79
2, 45470, Note_on_c, 0, 62, 0
2, 45472, Note_on_c, 0, 65, 78
2, 45502, Note_on_c, 0, 65, 0
2, 45504, Note_on_c, 0, 67, 77
2, 45534, Note_on_c, 0, 67, 0
2, 45536, Note_on_c, 0, 68, 77
2, 45566, Note_on_c, 0, 68, 0
2, 45568, Note_on_c, 0, 70, 78
2, 45598, Note_on_c, 0, 70, 0
2, 45600, Note_on_c, 0, 72, 79
2, 45630, Note_on_c, 0, 72, 0
2, 45632, Note_on_c, 0, 74, 80
2, 45662, Note_on_c, 0, 74, 0
2, 45664, Note_on_c, 0, 75, 80
2, 45694, Note_on_c, 0, 75, 0
2, 45696, Note_on_c, 0, 77, 81
2, 45726, Note_on_c, 0, 77, 0
2, 45728, Note_on_c, 0, 79, 82
2, 45758, Note_on_c, 0, 79, 0
2, 45760, Note_on_c, 0, 80, 83
2, 45790, Note_on_c, 0, 80, 0
2, 45792, Note_on_c, 0, 82, 83
2, 45822, Note_on_c, 0, 82, 0
2, 45824, Note_on_c, 0, 84, 85
2, 45854, Note_on_c, 0, 84, 0
2, 45856, Note_on_c, 0, 82, 83
2, 45886, Note_on_c, 0, 82, 0
2, 45888, Note_on_c, 0, 80, 82
2, 45918, Note_on_c, 0, 80, 0
2, 45920, Note_on_c, 0, 79, 81
2, 45950, Note_on_c, 0, 79, 0
2, 45952, Note_on_c, 0, 77, 80
2, 45982, Note_on_c, 0, 77, 0
2, 45984, Note_on_c, 0, 75, 78
2, 46014, Note_on_c, 0, 75, 0
2, 46016, Note_on_c, 0, 74, 77
2, 46046, Note_on_c, 0, 74, 0
2, 46048, Note_on_c, 0, 77, 77
2, 46078, Note_on_c, 0, 77, 0
2, 46080, Note_on_c, 0, 75, 77
2, 46169, Note_on_c, 0, 75, 0
2, 46368, End_track
3, 0, Start_track
3, 0, Program_c, 0, 0
3, 0, Control_c, 0, 7, 127
3, 0, Control_c, 0, 10, 64
3, 19872, Note_on_c, 0, 65, 64
3, 20049, Note_on_c, 0, 65, 0
3, 20160, Note_on_c, 0, 71, 64
3, 20205, Note_on_c, 0, 71, 0
3, 20208, Note_on_c, 0, 68, 64
3, 20253, Note_on_c, 0, 68, 0
3, 20256, Note_on_c, 0, 70, 64
3, 20301, Note_on_c, 0, 70, 0
3, 20304, Note_on_c, 0, 66, 64
3, 20349, Note_on_c, 0, 66, 0
3, 20352, Note_on_c, 0, 64, 64
3, 20397, Note_on_c, 0, 64, 0
3, 20400, Note_on_c, 0, 61, 64
3, 20445, Note_on_c, 0, 61, 0
3, 20448, Note_on_c, 0, 63, 77
3, 20493, Note_on_c, 0, 63, 0
3, 20496, Note_on_c, 0, 68, 79
3, 20541, Note_on_c, 0, 68, 0
3, 20544, Note_on_c, 0, 71, 82
3, 20589, Note_on_c, 0, 71, 0
3, 20592, Note_on_c, 0, 68, 85
3, 20637, Note_on_c, 0, 68, 0
3, 20640, Note_on_c, 0, 66, 82
3, 20685, Note_on_c, 0, 66, 0
3, 20688, Note_on_c, 0, 65, 79
3, 20733, Note_on_c, 0, 65, 0
3, 22176, Note_on_c, 0, 65, 64
3, 22353, Note_on_c, 0, 65, 0
3, 22464, Note_on_c, 0, 71, 64
3, 22509, Note_on_c, 0, 71, 0
3, 22512, Note_on_c, 0, 68, 64
3, 22557, Note_on_c, 0, 68, 0
3, 22560, Note_on_c, 0, 70, 64
3, 22605, Note_on_c, 0, 70, 0
3, 22608, Note_on_c, 0, 66, 64
3, 22653, Note_on_c, 0, 66, 0
3, 22656, Note_on_c, 0, 64, 64
3, 22701, Note_on_c, 0, 64, 0
3, 22704, Note_on_c, 0, 61, 64
3, 22749, Note_on_c, 0, 61, 0
3, 22752, Note_on_c, 0, 63, 77
3, 22797, Note_on_c, 0, 63, 0
3, 22800, Note_on_c, 0, 68, 79
3, 22845, Note_on_c, 0, 68, 0
3, 22848, Note_on_c, 0, 71, 82
3, 22893, Note_on_c, 0, 71, 0
3, 22896, Note_on_c, 0, 68, 85
3, 22941, Note_on_c, 0, 68, 0
3, 22944, Note_on_c, 0, 66, 82
3, 22989, Note_on_c, 0, 66, 0
3, 22992, Note_on_c, 0, 65, 79
3, 23037, Note_on_c, 0, 65, 0
3, 46368, End_track
4, 0, Start_track
4, 0, Program_c, 1, 1
4, 0, Control_c, 1, 7, 127
4, 0, Control_c, 1, 10, 64
4, 384, Note_on_c, 1, 67, 70
4, 384, Note_on_c, 1, 63, 70
4, 473, Note_on_c, 1, 67, 0
4, 473, Note_on_c, 1, 63, 0
4, 672, Note_on_c, 1, 60, 70
4, 672, Note_on_c, 1, 56, 70
4, 761, Note_on_c, 1, 60, 0
4, 761, Note_on_c, 1, 56, 0
4, 1056, Note_on_c, 1, 62, 70
4, 1056, Note_on_c, 1, 58, 70
4, 1145, Note_on_c, 1, 62, 0
4, 1145, Note_on_c, 1, 58, 0
4, 1152, Note_on_c, 1, 63, 77
4, 1241, Note_on_c, 1, 63, 0
4, 1248, Note_on_c, 1, 51, 77
4, 1337, Note_on_c, 1, 51, 0
4, 1344, Note_on_c, 1, 70, 77
4, 1344, Note_on_c, 1, 63, 77
4, 1440, Note_on_c, 1, 63, 0
4, 1529, Note_on_c, 1, 70, 0
4, 1536, Note_on_c, 1, 70, 77
4, 1817, Note_on_c, 1, 70, 0
4, 1824, Note_on_c, 1, 69, 77
4, 1913, Note_on_c, 1, 69, 0
4, 1920, Note_on_c, 1, 70, 77
4, 2009, Note_on_c, 1, 70, 0
4, 2016, Note_on_c, 1, 67, 77
4, 2105, Note_on_c, 1, 67, 0
4, 2112, Note_on_c, 1, 62, 77
4, 2201, Note_on_c, 1, 62, 0
4, 2208, Note_on_c, 1, 60, 77
4, 2297, Note_on_c, 1, 60, 0
4, 2304, Note_on_c, 1, 58, 77
4, 2334, Note_on_c, 1, 58, 0
4, 2336, Note_on_c, 1, 60, 77
4, 2366, Note_on_c, 1, 60, 0
4, 2368, Note_on_c, 1, 62, 77
4, 2398, Note_on_c, 1, 62, 0
4, 2400, Note_on_c, 1, 63, 78
4, 2430, Note_on_c, 1, 63, 0
4, 2432, Note_on_c, 1, 65, 79
4, 2462, Note_on_c, 1, 65, 0
4, 2464, Note_on_c, 1, 67, 79
4, 2494, Note_on_c, 1, 67, 0
4, 2496, Note_on_c, 1, 64, 96
4, 2528, Note_on_c, 1, 64, 0
4, 2528, Note_on_c, 1, 65, 81
4, 2558, Note_on_c, 1, 65, 0
4, 2560, Note_on_c, 1, 67, 81
4, 2590, Note_on_c, 1, 67, 0
4, 2592, Note_on_c, 1, 65, 82
4, 2681, Note_on_c, 1, 65, 0
4, 2784, Note_on_c, 1, 65, 77
4, 2873, Note_on_c, 1, 65, 0
4, 2880, Note_on_c, 1, 67, 78
4, 2910, Note_on_c, 1, 67, 0
4, 2912, Note_on_c, 1, 65, 79
4, 2942, Note_on_c, 1, 65, 0
4, 2944, Note_on_c, 1, 63, 79
4, 2974, Note_on_c, 1, 63, 0
4, 2976, Note_on_c, 1, 62, 80
4, 3006, Note_on_c, 1, 62, 0
4, 3008, Note_on_c, 1, 60, 80
4, 3038, Note_on_c, 1, 60, 0
4, 3040, Note_on_c, 1, 58, 81
4, 3070, Note_on_c, 1, 58, 0
4, 3072, Note_on_c, 1, 67, 81
4, 3102, Note_on_c, 1, 67, 0
4, 3104, Note_on_c, 1, 65, 82
4, 3134, Note_on_c, 1, 65, 0
4, 3136, Note_on_c, 1, 64, 82
4, 3166, Note_on_c, 1, 64, 0
4, 3168, Note_on_c, 1, 65, 83
4, 3257, Note_on_c, 1, 65, 0
4, 3360, Note_on_c, 1, 63, 64
4, 3360, Note_on_c, 1, 53, 64
4, 3449, Note_on_c, 1, 63, 0
4, 3449, Note_on_c, 1, 53, 0
4, 3456, Note_on_c, 1, 62, 64
4, 3456, Note_on_c, 1, 58, 64
4, 3545, Note_on_c, 1, 62, 0
4, 3545, Note_on_c, 1, 58, 0
4, 3552, Note_on_c, 1, 46, 64
4, 3641, Note_on_c, 1, 46, 0
4, 3840, Note_on_c, 1, 67, 70
4, 3840, Note_on_c, 1, 63, 70
4, 3929, Note_on_c, 1, 67, 0
4, 3929, Note_on_c, 1, 63, 0
4, 4128, Note_on_c, 1, 60, 70
4, 4128, Note_on_c, 1, 56, 70
4, 4217, Note_on_c, 1, 60, 0
4, 4217, Note_on_c, 1, 56, 0
4, 4512, Note_on_c, 1, 62, 70
4, 4512, Note_on_c, 1, 58, 70
4, 4601, Note_on_c, 1, 62, 0
4, 4601, Note_on_c, 1, 58, 0
4, 4608, Note_on_c, 1, 63, 77
4, 4697, Note_on_c, 1, 63, 0
4, 4704, Note_on_c, 1, 51, 77
4, 4793, Note_on_c, 1, 51, 0
4, 4800, Note_on_c, 1, 70, 77
4, 4800, Note_on_c, 1, 63, 77
4, 4896, Note_on_c, 1, 63, 0
4, 4985, Note_on_c, 1, 70, 0
4, 4992, Note_on_c, 1, 70, 77
4, 5273, Note_on_c, 1, 70, 0
4, 5280, Note_on_c, 1, 69, 77
4, 5369, Note_on_c, 1, 69, 0
4, 5376, Note_on_c, 1, 70, 77
4, 5465, Note_on_c, 1, 70, 0
4, 5472, Note_on_c, 1, 67, 77
4, 5561, Note_on_c, 1, 67, 0
4, 5568, Note_on_c, 1, 62, 77
4, 5657, Note_on_c, 1, 62, 0
4, 5664, Note_on_c, 1, 60, 77
4, 5753, Note_on_c, 1, 60, 0
4, 5760, Note_on_c, 1, 58, 77
4, 5790, Note_on_c, 1, 58, 0
4, 5792, Note_on_c, 1, 60, 77
4, 5822, Note_on_c, 1, 60, 0
4, 5824, Note_on_c, 1, 62, 77
4, 5854, Note_on_c, 1, 62, 0
4, 5856, Note_on_c, 1, 63, 78
4, 5886, Note_on_c, 1, 63, 0
4, 5888, Note_on_c, 1, 65, 79
4, 5918, Note_on_c, 1, 65, 0
4, 5920, Note_on_c, 1, 67, 79
4, 5950, Note_on_c, 1, 67, 0
4, 5952, Note_on_c, 1, 64, 96
4, 5984, Note_on_c, 1, 64, 0
4, 5984, Note_on_c, 1, 65, 81
4, 6014, Note_on_c, 1, 65, 0
4, 6016, Note_on_c, 1, 67, 81
4, 6046, Note_on_c, 1, 67, 0
4, 6048, Note_on_c, 1, 65, 82
4, 6137, Note_on_c, 1, 65, 0
4, 6240, Note_on_c, 1, 65, 77
4, 6329, Note_on_c, 1, 65, 0
4, 6336, Note_on_c, 1, 67, 78
4, 6366, Note_on_c, 1, 67, 0
4, 6368, Note_on_c, 1, 65, 79
4, 6398, Note_on_c, 1, 65, 0
4, 6400, Note_on_c, 1, 63, 79
4, 6430, Note_on_c, 1, 63, 0
4, 6432, Note_on_c, 1, 62, 80
4, 6462, Note_on_c, 1, 62, 0
4, 6464, Note_on_c, 1, 60, 80
4, 6494, Note_on_c, 1, 60, 0
4, 6496, Note_on_c, 1, 58, 81
4, 6526, Note_on_c, 1, 58, 0
4, 6528, Note_on_c, 1, 67, 81
4, 6558, Note_on_c, 1, 67, 0
4, 6560, Note_on_c, 1, 65, 82
4, 6590, Note_on_c, 1, 65, 0
4, 6592, Note_on_c, 1, 64, 82
4, 6622, Note_on_c, 1, 64, 0
4, 6624, Note_on_c, 1, 65, 83
4, 6713, Note_on_c, 1, 65, 0
4, 6816, Note_on_c, 1, 63, 64
4, 6816, Note_on_c, 1, 53, 64
4, 6905, Note_on_c, 1, 63, 0
4, 6905, Note_on_c, 1, 53, 0
4, 6912, Note_on_c, 1, 62, 70
4, 6912, Note_on_c, 1, 58, 70
4, 7001, Note_on_c, 1, 62, 0
4, 7001, Note_on_c, 1, 58, 0
4, 7008, Note_on_c, 1, 46, 70
4, 7097, Note_on_c, 1, 46, 0
4, 7296, Note_on_c, 1, 61, 64
4, 7296, Note_on_c, 1, 58, 64
4, 7385, Note_on_c, 1, 61, 0
4, 7385, Note_on_c, 1, 58, 0
4, 7392, Note_on_c, 1, 61, 64
4, 7392, Note_on_c, 1, 58, 64
4, 7481, Note_on_c, 1, 61, 0
4, 7481, Note_on_c, 1, 58, 0
4, 7488, Note_on_c, 1, 61, 64
4, 7488, Note_on_c, 1, 58, 64
4, 7584, Note_on_c, 1, 61, 0
4, 7584, Note_on_c, 1, 58, 0
4, 7584, Note_on_c, 1, 60, 64
4, 7584, Note_on_c, 1, 56, 64
4, 7673, Note_on_c, 1, 60, 0
4, 7673, Note_on_c, 1, 56, 0
4, 7872, Note_on_c, 1, 59, 64
4, 7872, Note_on_c, 1, 56, 64
4, 7961, Note_on_c, 1, 59, 0
4, 7961, Note_on_c, 1, 56, 0
4, 7968, Note_on_c, 1, 59, 64
4, 7968, Note_on_c, 1, 56, 64
4, 8057, Note_on_c, 1, 59, 0
4, 8057, Note_on_c, 1, 56, 0
4, 8064, Note_on_c, 1, 58, 64
4, 8241, Note_on_c, 1, 58, 0
4, 8352, Note_on_c, 1, 56, 64
4, 8441, Note_on_c, 1, 56, 0
4, 8544, Note_on_c, 1, 58, 68
4, 8583, Note_on_c, 1, 58, 0
4, 8640, Note_on_c, 1, 60, 71
4, 8679, Note_on_c, 1, 60, 0
4, 8832, Note_on_c, 1, 62, 75
4, 8871, Note_on_c, 1, 62, 0
4, 8928, Note_on_c, 1, 63, 78
4, 8967, Note_on_c, 1, 63, 0
4, 9024, Note_on_c, 1, 60, 80
4, 9063, Note_on_c, 1, 60, 0
4, 9120, Note_on_c, 1, 56, 82
4, 9159, Note_on_c, 1, 56, 0
4, 9216, Note_on_c, 1, 58, 85
4, 9305, Note_on_c, 1, 58, 0
4, 9312, Note_on_c, 1, 46, 85
4, 9401, Note_on_c, 1, 46, 0
4, 9600, Note_on_c, 1, 67, 70
4, 9600, Note_on_c, 1, 63, 70
4, 9689, Note_on_c, 1, 67, 0
4, 9689, Note_on_c, 1, 63, 0
4, 9888, Note_on_c, 1, 60, 70
4, 9888, Note_on_c, 1, 56, 70
4, 9977, Note_on_c, 1, 60, 0
4, 9977, Note_on_c, 1, 56, 0
4, 10272, Note_on_c, 1, 62, 70
4, 10272, Note_on_c, 1, 58, 70
4, 10361, Note_on_c, 1, 62, 0
4, 10361, Note_on_c, 1, 58, 0
4, 10368, Note_on_c, 1, 63, 77
4, 10457, Note_on_c, 1, 63, 0
4, 10464, Note_on_c, 1, 51, 77
4, 10553, Note_on_c, 1, 51, 0
4, 10560, Note_on_c, 1, 56, 77
4, 10649, Note_on_c, 1, 56, 0
4, 10656, Note_on_c, 1, 55, 77
4, 10833, Note_on_c, 1, 55, 0
4, 10848, Note_on_c, 1, 55, 77
4, 10937, Note_on_c, 1, 55, 0
4, 10944, Note_on_c, 1, 53, 77
4, 11121, Note_on_c, 1, 53, 0
4, 11136, Note_on_c, 1, 51, 77
4, 11225, Note_on_c, 1, 51, 0
4, 11232, Note_on_c, 1, 56, 77
4, 11321, Note_on_c, 1, 56, 0
4, 11328, Note_on_c, 1, 46, 77
4, 11505, Note_on_c, 1, 46, 0
4, 11520, Note_on_c, 1, 51, 77
4, 11550, Note_on_c, 1, 51, 0
4, 11552, Note_on_c, 1, 53, 77
4, 11582, Note_on_c, 1, 53, 0
4, 11584, Note_on_c, 1, 55, 78
4, 11614, Note_on_c, 1, 55, 0
4, 11616, Note_on_c, 1, 56, 78
4, 11646, Note_on_c, 1, 56, 0
4, 11648, Note_on_c, 1, 58, 79
4, 11678, Note_on_c, 1, 58, 0
4, 11680, Note_on_c, 1, 60, 80
4, 11710, Note_on_c, 1, 60, 0
4, 11712, Note_on_c, 1, 57, 96
4, 11744, Note_on_c, 1, 57, 0
4, 11744, Note_on_c, 1, 58, 81
4, 11774, Note_on_c, 1, 58, 0
4, 11776, Note_on_c, 1, 60, 82
4, 11806, Note_on_c, 1, 60, 0
4, 11808, Note_on_c, 1, 58, 82
4, 11897, Note_on_c, 1, 58, 0
4, 12000, Note_on_c, 1, 58, 77
4, 12089, Note_on_c, 1, 58, 0
4, 12096, Note_on_c, 1, 51, 77
4, 12126, Note_on_c, 1, 51, 0
4, 12128, Note_on_c, 1, 53, 77
4, 12158, Note_on_c, 1, 53, 0
4, 12160, Note_on_c, 1, 55, 78
4, 12190, Note_on_c, 1, 55, 0
4, 12192, Note_on_c, 1, 56, 78
4, 12222, Note_on_c, 1, 56, 0
4, 12224, Note_on_c, 1, 58, 79
4, 12254, Note_on_c, 1, 58, 0
4, 12256, Note_on_c, 1, 60, 80
4, 12286, Note_on_c, 1, 60, 0
4, 12288, Note_on_c, 1, 62, 80
4, 12318, Note_on_c, 1, 62, 0
4, 12320, Note_on_c, 1, 63, 81
4, 12350, Note_on_c, 1, 63, 0
4, 12352, Note_on_c, 1, 65, 82
4, 12382, Note_on_c, 1, 65, 0
4, 12384, Note_on_c, 1, 67, 82
4, 12473, Note_on_c, 1, 67, 0
4, 12576, Note_on_c, 1, 68, 70
4, 12576, Note_on_c, 1, 58, 70
4, 12665, Note_on_c, 1, 68, 0
4, 12665, Note_on_c, 1, 58, 0
4, 12672, Note_on_c, 1, 67, 70
4, 12672, Note_on_c, 1, 63, 70
4, 12761, Note_on_c, 1, 67, 0
4, 12761, Note_on_c, 1, 63, 0
4, 12768, Note_on_c, 1, 51, 70
4, 12857, Note_on_c, 1, 51, 0
4, 13056, Note_on_c, 1, 61, 64
4, 13056, Note_on_c, 1, 58, 64
4, 13145, Note_on_c, 1, 61, 0
4, 13145, Note_on_c, 1, 58, 0
4, 13152, Note_on_c, 1, 61, 64
4, 13152, Note_on_c, 1, 58, 64
4, 13241, Note_on_c, 1, 61, 0
4, 13241, Note_on_c, 1, 58, 0
4, 13248, Note_on_c, 1, 61, 64
4, 13248, Note_on_c, 1, 58, 64
4, 13344, Note_on_c, 1, 61, 0
4, 13344, Note_on_c, 1, 58, 0
4, 13344, Note_on_c, 1, 60, 64
4, 13344, Note_on_c, 1, 56, 64
4, 13433, Note_on_c, 1, 60, 0
4, 13433, Note_on_c, 1, 56, 0
4, 13632, Note_on_c, 1, 59, 64
4, 13632, Note_on_c, 1, 56, 64
4, 13721, Note_on_c, 1, 59, 0
4, 13721, Note_on_c, 1, 56, 0
4, 13728, Note_on_c, 1, 59, 64
4, 13728, Note_on_c, 1, 56, 64
4, 13817, Note_on_c, 1, 59, 0
4, 13817, Note_on_c, 1, 56, 0
4, 13824, Note_on_c, 1, 58, 64
4, 14001, Note_on_c, 1, 58, 0
4, 14112, Note_on_c, 1, 56, 64
4, 14201, Note_on_c, 1, 56, 0
4, 14304, Note_on_c, 1, 58, 68
4, 14343, Note_on_c, 1, 58, 0
4, 14400, Note_on_c, 1, 60, 71
4, 14439, Note_on_c, 1, 60, 0
4, 14592, Note_on_c, 1, 62, 75
4, 14631, Note_on_c, 1, 62, 0
4, 14688, Note_on_c, 1, 63, 78
4, 14727, Note_on_c, 1, 63, 0
4, 14784, Note_on_c, 1, 60, 80
4, 14823, Note_on_c, 1, 60, 0
4, 14880, Note_on_c, 1, 56, 82
4, 14919, Note_on_c, 1, 56, 0
4, 14976, Note_on_c, 1, 58, 85
4, 15065, Note_on_c, 1, 58, 0
4, 15072, Note_on_c, 1, 46, 85
4, 15161, Note_on_c, 1, 46, 0
4, 15360, Note_on_c, 1, 67, 70
4, 15360, Note_on_c, 1, 63, 70
4, 15449, Note_on_c, 1, 67, 0
4, 15449, Note_on_c, 1, 63, 0
4, 15648, Note_on_c, 1, 60, 70
4, 15648, Note_on_c, 1, 56, 70
4, 15737, Note_on_c, 1, 60, 0
4, 15737, Note_on_c, 1, 56, 0
4, 16032, Note_on_c, 1, 62, 70
4, 16032, Note_on_c, 1, 58, 70
4, 16121, Note_on_c, 1, 62, 0
4, 16121, Note_on_c, 1, 58, 0
4, 16128, Note_on_c, 1, 63, 77
4, 16217, Note_on_c, 1, 63, 0
4, 16224, Note_on_c, 1, 51, 77
4, 16313, Note_on_c, 1, 51, 0
4, 16320, Note_on_c, 1, 56, 77
4, 16409, Note_on_c, 1, 56, 0
4, 16416, Note_on_c, 1, 55, 77
4, 16593, Note_on_c, 1, 55, 0
4, 16608, Note_on_c, 1, 55, 77
4, 16697, Note_on_c, 1, 55, 0
4, 16704, Note_on_c, 1, 53, 77
4, 16881, Note_on_c, 1, 53, 0
4, 16896, Note_on_c, 1, 51, 77
4, 16985, Note_on_c, 1, 51, 0
4, 16992, Note_on_c, 1, 56, 77
4, 17081, Note_on_c, 1, 56, 0
4, 17088, Note_on_c, 1, 46, 77
4, 17265, Note_on_c, 1, 46, 0
4, 17280, Note_on_c, 1, 51, 77
4, 17310, Note_on_c, 1, 51, 0
4, 17312, Note_on_c, 1, 53, 77
4, 17342, Note_on_c, 1, 53, 0
4, 17344, Note_on_c, 1, 55, 78
4, 17374, Note_on_c, 1, 55, 0
4, 17376, Note_on_c, 1, 56, 78
4, 17406, Note_on_c, 1, 56, 0
4, 17408, Note_on_c, 1, 58, 79
4, 17438, Note_on_c, 1, 58, 0
4, 17440, Note_on_c, 1, 60, 80
4, 17470, Note_on_c, 1, 60, 0
4, 17472, Note_on_c, 1, 57, 96
4, 17504, Note_on_c, 1, 57, 0
4, 17504, Note_on_c, 1, 58, 81
4, 17534, Note_on_c, 1, 58, 0
4, 17536, Note_on_c, 1, 60, 82
4, 17566, Note_on_c, 1, 60, 0
4, 17568, Note_on_c, 1, 58, 82
4, 17657, Note_on_c, 1, 58, 0
4, 17760, Note_on_c, 1, 58, 77
4, 17849, Note_on_c, 1, 58, 0
4, 17856, Note_on_c, 1, 51, 77
4, 17886, Note_on_c, 1, 51, 0
4, 17888, Note_on_c, 1, 53, 77
4, 17918, Note_on_c, 1, 53, 0
4, 17920, Note_on_c, 1, 55, 78
4, 17950, Note_on_c, 1, 55, 0
4, 17952, Note_on_c, 1, 56, 78
4, 17982, Note_on_c, 1, 56, 0
4, 17984, Note_on_c, 1, 58, 79
4, 18014, Note_on_c, 1, 58, 0
4, 18016, Note_on_c, 1, 60, 80
4, 18046, Note_on_c, 1, 60, 0
4, 18048, Note_on_c, 1, 62, 80
4, 18078, Note_on_c, 1, 62, 0
4, 18080, Note_on_c, 1, 63, 81
4, 18110, Note_on_c, 1, 63, 0
4, 18112, Note_on_c, 1, 65, 82
4, 18142, Note_on_c, 1, 65, 0
4, 18144, Note_on_c, 1, 67, 82
4, 18233, Note_on_c, 1, 67, 0
4, 18336, Note_on_c, 1, 68, 70
4, 18336, Note_on_c, 1, 58, 70
4, 18425, Note_on_c, 1, 68, 0
4, 18425, Note_on_c, 1, 58, 0
4, 18432, Note_on_c, 1, 67, 70
4, 18432, Note_on_c, 1, 63, 70
4, 18521, Note_on_c, 1, 67, 0
4, 18521, Note_on_c, 1, 63, 0
4, 18528, Note_on_c, 1, 51, 70
4, 18617, Note_on_c, 1, 51, 0
4, 18768, Note_on_c, 1, 56, 64
4, 18768, Note_on_c, 1, 53, 64
4, 18816, Note_on_c, 1, 56, 0
4, 18816, Note_on_c, 1, 53, 0
4, 18816, Note_on_c, 1, 58, 64
4, 18816, Note_on_c, 1, 54, 64
4, 18905, Note_on_c, 1, 58, 0
4, 18905, Note_on_c, 1, 54, 0
4, 19056, Note_on_c, 1, 54, 64
4, 19056, Note_on_c, 1, 51, 64
4, 19104, Note_on_c, 1, 54, 0
4, 19104, Note_on_c, 1, 51, 0
4, 19104, Note_on_c, 1, 53, 64
4, 19104, Note_on_c, 1, 50, 64
4, 19193, Note_on_c, 1, 53, 0
4, 19193, Note_on_c, 1, 50, 0
4, 19344, Note_on_c, 1, 63, 64
4, 19389, Note_on_c, 1, 63, 0
4, 19392, Note_on_c, 1, 61, 65
4, 19437, Note_on_c, 1, 61, 0
4, 19440, Note_on_c, 1, 58, 65
4, 19485, Note_on_c, 1, 58, 0
4, 19488, Note_on_c, 1, 59, 66
4, 19577, Note_on_c, 1, 59, 0
4, 19728, Note_on_c, 1, 68, 69
4, 19773, Note_on_c, 1, 68, 0
4, 19776, Note_on_c, 1, 66, 69
4, 19821, Note_on_c, 1, 66, 0
4, 19824, Note_on_c, 1, 63, 70
4, 19869, Note_on_c, 1, 63, 0
4, 19920, Note_on_c, 1, 61, 71
4, 19965, Note_on_c, 1, 61, 0
4, 19968, Note_on_c, 1, 59, 72
4, 20013, Note_on_c, 1, 59, 0
4, 20016, Note_on_c, 1, 56, 72
4, 20061, Note_on_c, 1, 56, 0
4, 20064, Note_on_c, 1, 58, 73
4, 20153, Note_on_c, 1, 58, 0
4, 20160, Note_on_c, 1, 61, 74
4, 20337, Note_on_c, 1, 61, 0
4, 20640, Note_on_c, 1, 59, 70
4, 20729, Note_on_c, 1, 59, 0
4, 20736, Note_on_c, 1, 58, 70
4, 20736, Note_on_c, 1, 54, 70
4, 20825, Note_on_c, 1, 58, 0
4, 20825, Note_on_c, 1, 54, 0
4, 20832, Note_on_c, 1, 42, 70
4, 20921, Note_on_c, 1, 42, 0
4, 21072, Note_on_c, 1, 56, 64
4, 21072, Note_on_c, 1, 53, 64
4, 21120, Note_on_c, 1, 56, 0
4, 21120, Note_on_c, 1, 53, 0
4, 21120, Note_on_c, 1, 58, 64
4, 21120, Note_on_c, 1, 54, 64
4, 21209, Note_on_c, 1, 58, 0
4, 21209, Note_on_c, 1, 54, 0
4, 21360, Note_on_c, 1, 54, 64
4, 21360, Note_on_c, 1, 51, 64
4, 21408, Note_on_c, 1, 54, 0
4, 21408, Note_on_c, 1, 51, 0
4, 21408, Note_on_c, 1, 53, 64
4, 21408, Note_on_c, 1, 50, 64
4, 21497, Note_on_c, 1, 53, 0
4, 21497, Note_on_c, 1, 50, 0
4, 21648, Note_on_c, 1, 63, 64
4, 21693, Note_on_c, 1, 63, 0
4, 21696, Note_on_c, 1, 61, 65
4, 21741, Note_on_c, 1, 61, 0
4, 21744, Note_on_c, 1, 58, 65
4, 21789, Note_on_c, 1, 58, 0
4, 21792, Note_on_c, 1, 59, 66
4, 21881, Note_on_c, 1, 59, 0
4, 22032, Note_on_c, 1, 68, 69
4, 22077, Note_on_c, 1, 68, 0
4, 22080, Note_on_c, 1, 66, 69
4, 22125, Note_on_c, 1, 66, 0
4, 22128, Note_on_c, 1, 63, 70
4, 22173, Note_on_c, 1, 63, 0
4, 22224, Note_on_c, 1, 61, 71
4, 22269, Note_on_c, 1, 61, 0
4, 22272, Note_on_c, 1, 59, 72
4, 22317, Note_on_c, 1, 59, 0
4, 22320, Note_on_c, 1, 56, 72
4, 22365, Note_on_c, 1, 56, 0
4, 22368, Note_on_c, 1, 58, 73
4, 22457, Note_on_c, 1, 58, 0
4, 22464, Note_on_c, 1, 61, 74
4, 22641, Note_on_c, 1, 61, 0
4, 22944, Note_on_c, 1, 59, 70
4, 23033, Note_on_c, 1, 59, 0
4, 23040, Note_on_c, 1, 58, 70
4, 23040, Note_on_c, 1, 54, 70
4, 23129, Note_on_c, 1, 58, 0
4, 23129, Note_on_c, 1, 54, 0
4, 23136, Note_on_c, 1, 42, 70
4, 23225, Note_on_c, 1, 42, 0
4, 23376, Note_on_c, 1, 59, 70
4, 23376, Note_on_c, 1, 56, 70
4, 23424, Note_on_c, 1, 59, 0
4, 23424, Note_on_c, 1, 56, 0
4, 23424, Note_on_c, 1, 61, 70
4, 23424, Note_on_c, 1, 58, 70
4, 23513, Note_on_c, 1, 61, 0
4, 23513, Note_on_c, 1, 58, 0
4, 23664, Note_on_c, 1, 61, 70
4, 23664, Note_on_c, 1, 58, 70
4, 23712, Note_on_c, 1, 61, 0
4, 23712, Note_on_c, 1, 58, 0
4, 23712, Note_on_c, 1, 59, 71
4, 23801, Note_on_c, 1, 59, 0
4, 23952, Note_on_c, 1, 61, 74
4, 23952, Note_on_c, 1, 58, 74
4, 24000, Note_on_c, 1, 61, 0
4, 24000, Note_on_c, 1, 58, 0
4, 24000, Note_on_c, 1, 59, 74
4, 24089, Note_on_c, 1, 59, 0
4, 24240, Note_on_c, 1, 66, 77
4, 24240, Note_on_c, 1, 63, 77
4, 24288, Note_on_c, 1, 66, 0
4, 24288, Note_on_c, 1, 63, 0
4, 24288, Note_on_c, 1, 65, 77
4, 24288, Note_on_c, 1, 62, 77
4, 24377, Note_on_c, 1, 65, 0
4, 24377, Note_on_c, 1, 62, 0
4, 24528, Note_on_c, 1, 59, 77
4, 24573, Note_on_c, 1, 59, 0
4, 24576, Note_on_c, 1, 56, 75
4, 24621, Note_on_c, 1, 56, 0
4, 24624, Note_on_c, 1, 53, 74
4, 24669, Note_on_c, 1, 53, 0
4, 24672, Note_on_c, 1, 50, 72
4, 24717, Note_on_c, 1, 50, 0
4, 24720, Note_on_c, 1, 47, 71
4, 24765, Note_on_c, 1, 47, 0
4, 24864, Note_on_c, 1, 56, 70
4, 24953, Note_on_c, 1, 56, 0
4, 24960, Note_on_c, 1, 54, 69
4, 25049, Note_on_c, 1, 54, 0
4, 25056, Note_on_c, 1, 53, 68
4, 25145, Note_on_c, 1, 53, 0
4, 25152, Note_on_c, 1, 51, 67
4, 25241, Note_on_c, 1, 51, 0
4, 25248, Note_on_c, 1, 50, 66
4, 25337, Note_on_c, 1, 50, 0
4, 25344, Note_on_c, 1, 51, 65
4, 25383, Note_on_c, 1, 51, 0
4, 25440, Note_on_c, 1, 39, 64
4, 25529, Note_on_c, 1, 39, 0
4, 25680, Note_on_c, 1, 59, 70
4, 25680, Note_on_c, 1, 56, 70
4, 25728, Note_on_c, 1, 59, 0
4, 25728, Note_on_c, 1, 56, 0
4, 25728, Note_on_c, 1, 61, 70
4, 25728, Note_on_c, 1, 58, 70
4, 25817, Note_on_c, 1, 61, 0
4, 25817, Note_on_c, 1, 58, 0
4, 25968, Note_on_c, 1, 61, 70
4, 25968, Note_on_c, 1, 58, 70
4, 26016, Note_on_c, 1, 61, 0
4, 26016, Note_on_c, 1, 58, 0
4, 26016, Note_on_c, 1, 59, 71
4, 26105, Note_on_c, 1, 59, 0
4, 26256, Note_on_c, 1, 61, 74
4, 26256, Note_on_c, 1, 58, 74
4, 26304, Note_on_c, 1, 61, 0
4, 26304, Note_on_c, 1, 58, 0
4, 26304, Note_on_c, 1, 59, 74
4, 26393, Note_on_c, 1, 59, 0
4, 26544, Note_on_c, 1, 66, 77
4, 26544, Note_on_c, 1, 63, 77
4, 26592, Note_on_c, 1, 66, 0
4, 26592, Note_on_c, 1, 63, 0
4, 26592, Note_on_c, 1, 65, 77
4, 26592, Note_on_c, 1, 62, 77
4, 26681, Note_on_c, 1, 65, 0
4, 26681, Note_on_c, 1, 62, 0
4, 26832, Note_on_c, 1, 59, 77
4, 26877, Note_on_c, 1, 59, 0
4, 26880, Note_on_c, 1, 56, 75
4, 26925, Note_on_c, 1, 56, 0
4, 26928, Note_on_c, 1, 53, 74
4, 26973, Note_on_c, 1, 53, 0
4, 26976, Note_on_c, 1, 50, 72
4, 27021, Note_on_c, 1, 50, 0
4, 27024, Note_on_c, 1, 47, 71
4, 27069, Note_on_c, 1, 47, 0
4, 27168, Note_on_c, 1, 56, 70
4, 27257, Note_on_c, 1, 56, 0
4, 27264, Note_on_c, 1, 54, 69
4, 27353, Note_on_c, 1, 54, 0
4, 27360, Note_on_c, 1, 53, 68
4, 27449, Note_on_c, 1, 53, 0
4, 27456, Note_on_c, 1, 51, 67
4, 27545, Note_on_c, 1, 51, 0
4, 27552, Note_on_c, 1, 50, 66
4, 27641, Note_on_c, 1, 50, 0
4, 27648, Note_on_c, 1, 51, 65
4, 27687, Note_on_c, 1, 51, 0
4, 27744, Note_on_c, 1, 39, 64
4, 27833, Note_on_c, 1, 39, 0
4, 28032, Note_on_c, 1, 67, 64
4, 28032, Note_on_c, 1, 63, 64
4, 28121, Note_on_c, 1, 67, 0
4, 28121, Note_on_c, 1, 63, 0
4, 28320, Note_on_c, 1, 60, 64
4, 28320, Note_on_c, 1, 56, 64
4, 28409, Note_on_c, 1, 60, 0
4, 28409, Note_on_c, 1, 56, 0
4, 28704, Note_on_c, 1, 62, 64
4, 28704, Note_on_c, 1, 58, 64
4, 28793, Note_on_c, 1, 62, 0
4, 28793, Note_on_c, 1, 58, 0
4, 28800, Note_on_c, 1, 63, 64
4, 28889, Note_on_c, 1, 63, 0
4, 28896, Note_on_c, 1, 51, 64
4, 28985, Note_on_c, 1, 51, 0
4, 28992, Note_on_c, 1, 70, 64
4, 28992, Note_on_c, 1, 63, 64
4, 29088, Note_on_c, 1, 63, 0
4, 29177, Note_on_c, 1, 70, 0
4, 29184, Note_on_c, 1, 70, 64
4, 29465, Note_on_c, 1, 70, 0
4, 29472, Note_on_c, 1, 69, 64
4, 29561, Note_on_c, 1, 69, 0
4, 29568, Note_on_c, 1, 70, 64
4, 29657, Note_on_c, 1, 70, 0
4, 29664, Note_on_c, 1, 67, 64
4, 29753, Note_on_c, 1, 67, 0
4, 29760, Note_on_c, 1, 62, 64
4, 29849, Note_on_c, 1, 62, 0
4, 29856, Note_on_c, 1, 60, 64
4, 29945, Note_on_c, 1, 60, 0
4, 29952, Note_on_c, 1, 58, 77
4, 29982, Note_on_c, 1, 58, 0
4, 29984, Note_on_c, 1, 60, 77
4, 30014, Note_on_c, 1, 60, 0
4, 30016, Note_on_c, 1, 62, 78
4, 30046, Note_on_c, 1, 62, 0
4, 30048, Note_on_c, 1, 63, 78
4, 30078, Note_on_c, 1, 63, 0
4, 30080, Note_on_c, 1, 65, 79
4, 30110, Note_on_c, 1, 65, 0
4, 30112, Note_on_c, 1, 67, 80
4, 30142, Note_on_c, 1, 67, 0
4, 30144, Note_on_c, 1, 64, 96
4, 30176, Note_on_c, 1, 64, 0
4, 30176, Note_on_c, 1, 65, 81
4, 30206, Note_on_c, 1, 65, 0
4, 30208, Note_on_c, 1, 67, 82
4, 30238, Note_on_c, 1, 67, 0
4, 30240, Note_on_c, 1, 65, 82
4, 30329, Note_on_c, 1, 65, 0
4, 30432, Note_on_c, 1, 65, 77
4, 30521, Note_on_c, 1, 65, 0
4, 30528, Note_on_c, 1, 67, 77
4, 30558, Note_on_c, 1, 67, 0
4, 30560, Note_on_c, 1, 65, 77
4, 30590, Note_on_c, 1, 65, 0
4, 30592, Note_on_c, 1, 63, 78
4, 30622, Note_on_c, 1, 63, 0
4, 30624, Note_on_c, 1, 62, 79
4, 30654, Note_on_c, 1, 62, 0
4, 30656, Note_on_c, 1, 60, 80
4, 30686, Note_on_c, 1, 60, 0
4, 30688, Note_on_c, 1, 58, 81
4, 30718, Note_on_c, 1, 58, 0
4, 30720, Note_on_c, 1, 67, 82
4, 30750, Note_on_c, 1, 67, 0
4, 30752, Note_on_c, 1, 65, 82
4, 30782, Note_on_c, 1, 65, 0
4, 30784, Note_on_c, 1, 64, 83
4, 30814, Note_on_c, 1, 64, 0
4, 30816, Note_on_c, 1, 65, 85
4, 30905, Note_on_c, 1, 65, 0
4, 31008, Note_on_c, 1, 63, 70
4, 31008, Note_on_c, 1, 53, 70
4, 31097, Note_on_c, 1, 63, 0
4, 31097, Note_on_c, 1, 53, 0
4, 31104, Note_on_c, 1, 62, 70
4, 31104, Note_on_c, 1, 58, 70
4, 31193, Note_on_c, 1, 62, 0
4, 31193, Note_on_c, 1, 58, 0
4, 31200, Note_on_c, 1, 46, 70
4, 31289, Note_on_c, 1, 46, 0
4, 31488, Note_on_c, 1, 67, 70
4, 31488, Note_on_c, 1, 63, 70
4, 31577, Note_on_c, 1, 67, 0
4, 31577, Note_on_c, 1, 63, 0
4, 31776, Note_on_c, 1, 60, 70
4, 31776, Note_on_c, 1, 56, 70
4, 31865, Note_on_c, 1, 60, 0
4, 31865, Note_on_c, 1, 56, 0
4, 32160, Note_on_c, 1, 62, 70
4, 32160, Note_on_c, 1, 58, 70
4, 32249, Note_on_c, 1, 62, 0
4, 32249, Note_on_c, 1, 58, 0
4, 32256, Note_on_c, 1, 63, 77
4, 32345, Note_on_c, 1, 63, 0
4, 32352, Note_on_c, 1, 51, 77
4, 32441, Note_on_c, 1, 51, 0
4, 32448, Note_on_c, 1, 70, 77
4, 32448, Note_on_c, 1, 63, 77
4, 32544, Note_on_c, 1, 63, 0
4, 32633, Note_on_c, 1, 70, 0
4, 32640, Note_on_c, 1, 70, 77
4, 32921, Note_on_c, 1, 70, 0
4, 32928, Note_on_c, 1, 69, 77
4, 33017, Note_on_c, 1, 69, 0
4, 33024, Note_on_c, 1, 70, 77
4, 33113, Note_on_c, 1, 70, 0
4, 33120, Note_on_c, 1, 67, 77
4, 33209, Note_on_c, 1, 67, 0
4, 33216, Note_on_c, 1, 62, 77
4, 33305, Note_on_c, 1, 62, 0
4, 33312, Note_on_c, 1, 60, 77
4, 33401, Note_on_c, 1, 60, 0
4, 33408, Note_on_c, 1, 58, 77
4, 33438, Note_on_c, 1, 58, 0
4, 33440, Note_on_c, 1, 60, 77
4, 33470, Note_on_c, 1, 60, 0
4, 33472, Note_on_c, 1, 62, 78
4, 33502, Note_on_c, 1, 62, 0
4, 33504, Note_on_c, 1, 63, 78
4, 33534, Note_on_c, 1, 63, 0
4, 33536, Note_on_c, 1, 65, 79
4, 33566, Note_on_c, 1, 65, 0
4, 33568, Note_on_c, 1, 67, 80
4, 33598, Note_on_c, 1, 67, 0
4, 33600, Note_on_c, 1, 64, 96
4, 33632, Note_on_c, 1, 64, 0
4, 33632, Note_on_c, 1, 65, 81
4, 33662, Note_on_c, 1, 65, 0
4, 33664, Note_on_c, 1, 67, 82
4, 33694, Note_on_c, 1, 67, 0
4, 33696, Note_on_c, 1, 65, 82
4, 33785, Note_on_c, 1, 65, 0
4, 33888, Note_on_c, 1, 65, 77
4, 33977, Note_on_c, 1, 65, 0
4, 33984, Note_on_c, 1, 67, 77
4, 34014, Note_on_c, 1, 67, 0
4, 34016, Note_on_c, 1, 65, 77
4, 34046, Note_on_c, 1, 65, 0
4, 34048, Note_on_c, 1, 63, 78
4, 34078, Note_on_c, 1, 63, 0
4, 34080, Note_on_c, 1, 62, 79
4, 34110, Note_on_c, 1, 62, 0
4, 34112, Note_on_c, 1, 60, 80
4, 34142, Note_on_c, 1, 60, 0
4, 34144, Note_on_c, 1, 58, 81
4, 34174, Note_on_c, 1, 58, 0
4, 34176, Note_on_c, 1, 67, 82
4, 34206, Note_on_c, 1, 67, 0
4, 34208, Note_on_c, 1, 65, 82
4, 34238, Note_on_c, 1, 65, 0
4, 34240, Note_on_c, 1, 64, 83
4, 34270, Note_on_c, 1, 64, 0
4, 34272, Note_on_c, 1, 65, 85
4, 34361, Note_on_c, 1, 65, 0
4, 34464, Note_on_c, 1, 63, 70
4, 34464, Note_on_c, 1, 53, 70
4, 34553, Note_on_c, 1, 63, 0
4, 34553, Note_on_c, 1, 53, 0
4, 34560, Note_on_c, 1, 62, 70
4, 34560, Note_on_c, 1, 58, 70
4, 34649, Note_on_c, 1, 62, 0
4, 34649, Note_on_c, 1, 58, 0
4, 34656, Note_on_c, 1, 46, 70
4, 34745, Note_on_c, 1, 46, 0
4, 34944, Note_on_c, 1, 61, 64
4, 34944, Note_on_c, 1, 58, 64
4, 35033, Note_on_c, 1, 61, 0
4, 35033, Note_on_c, 1, 58, 0
4, 35040, Note_on_c, 1, 61, 64
4, 35040, Note_on_c, 1, 58, 64
4, 35129, Note_on_c, 1, 61, 0
4, 35129, Note_on_c, 1, 58, 0
4, 35136, Note_on_c, 1, 61, 64
4, 35136, Note_on_c, 1, 58, 64
4, 35232, Note_on_c, 1, 61, 0
4, 35232, Note_on_c, 1, 58, 0
4, 35232, Note_on_c, 1, 60, 64
4, 35232, Note_on_c, 1, 56, 64
4, 35321, Note_on_c, 1, 60, 0
4, 35321, Note_on_c, 1, 56, 0
4, 35520, Note_on_c, 1, 59, 64
4, 35520, Note_on_c, 1, 56, 64
4, 35609, Note_on_c, 1, 59, 0
4, 35609, Note_on_c, 1, 56, 0
4, 35616, Note_on_c, 1, 59, 64
4, 35616, Note_on_c, 1, 56, 64
4, 35705, Note_on_c, 1, 59, 0
4, 35705, Note_on_c, 1, 56, 0
4, 35712, Note_on_c, 1, 58, 64
4, 35889, Note_on_c, 1, 58, 0
4, 36000, Note_on_c, 1, 56, 64
4, 36089, Note_on_c, 1, 56, 0
4, 36192, Note_on_c, 1, 58, 68
4, 36231, Note_on_c, 1, 58, 0
4, 36288, Note_on_c, 1, 60, 71
4, 36327, Note_on_c, 1, 60, 0
4, 36480, Note_on_c, 1, 62, 75
4, 36519, Note_on_c, 1, 62, 0
4, 36576, Note_on_c, 1, 63, 78
4, 36615, Note_on_c, 1, 63, 0
4, 36672, Note_on_c, 1, 60, 80
4, 36711, Note_on_c, 1, 60, 0
4, 36768, Note_on_c, 1, 56, 82
4, 36807, Note_on_c, 1, 56, 0
4, 36864, Note_on_c, 1, 58, 85
4, 36953, Note_on_c, 1, 58, 0
4, 36960, Note_on_c, 1, 46, 85
4, 37049, Note_on_c, 1, 46, 0
4, 37248, Note_on_c, 1, 67, 70
4, 37248, Note_on_c, 1, 63, 70
4, 37337, Note_on_c, 1, 67, 0
4, 37337, Note_on_c, 1, 63, 0
4, 37536, Note_on_c, 1, 60, 70
4, 37536, Note_on_c, 1, 56, 70
4, 37625, Note_on_c, 1, 60, 0
4, 37625, Note_on_c, 1, 56, 0
4, 37920, Note_on_c, 1, 62, 70
4, 37920, Note_on_c, 1, 58, 70
4, 38009, Note_on_c, 1, 62, 0
4, 38009, Note_on_c, 1, 58, 0
4, 38016, Note_on_c, 1, 63, 70
4, 38105, Note_on_c, 1, 63, 0
4, 38112, Note_on_c, 1, 51, 70
4, 38201, Note_on_c, 1, 51, 0
4, 38208, Note_on_c, 1, 56, 70
4, 38297, Note_on_c, 1, 56, 0
4, 38304, Note_on_c, 1, 55, 70
4, 38481, Note_on_c, 1, 55, 0
4, 38496, Note_on_c, 1, 55, 70
4, 38585, Note_on_c, 1, 55, 0
4, 38592, Note_on_c, 1, 53, 70
4, 38769, Note_on_c, 1, 53, 0
4, 38784, Note_on_c, 1, 51, 70
4, 38873, Note_on_c, 1, 51, 0
4, 38880, Note_on_c, 1, 56, 70
4, 38969, Note_on_c, 1, 56, 0
4, 38976, Note_on_c, 1, 46, 70
4, 39153, Note_on_c, 1, 46, 0
4, 39168, Note_on_c, 1, 51, 70
4, 39198, Note_on_c, 1, 51, 0
4, 39200, Note_on_c, 1, 53, 70
4, 39230, Note_on_c, 1, 53, 0
4, 39232, Note_on_c, 1, 55, 71
4, 39262, Note_on_c, 1, 55, 0
4, 39264, Note_on_c, 1, 56, 71
4, 39294, Note_on_c, 1, 56, 0
4, 39296, Note_on_c, 1, 58, 72
4, 39326, Note_on_c, 1, 58, 0
4, 39328, Note_on_c, 1, 60, 72
4, 39358, Note_on_c, 1, 60, 0
4, 39360, Note_on_c, 1, 57, 73
4, 39390, Note_on_c, 1, 57, 0
4, 39392, Note_on_c, 1, 58, 73
4, 39422, Note_on_c, 1, 58, 0
4, 39424, Note_on_c, 1, 60, 74
4, 39454, Note_on_c, 1, 60, 0
4, 39456, Note_on_c, 1, 58, 74
4, 39545, Note_on_c, 1, 58, 0
4, 39648, Note_on_c, 1, 58, 77
4, 39737, Note_on_c, 1, 58, 0
4, 39744, Note_on_c, 1, 51, 77
4, 39774, Note_on_c, 1, 51, 0
4, 39776, Note_on_c, 1, 53, 77
4, 39806, Note_on_c, 1, 53, 0
4, 39808, Note_on_c, 1, 55, 78
4, 39838, Note_on_c, 1, 55, 0
4, 39840, Note_on_c, 1, 56, 79
4, 39870, Note_on_c, 1, 56, 0
4, 39872, Note_on_c, 1, 58, 80
4, 39902, Note_on_c, 1, 58, 0
4, 39904, Note_on_c, 1, 60, 81
4, 39934, Note_on_c, 1, 60, 0
4, 39936, Note_on_c, 1, 62, 82
4, 39966, Note_on_c, 1, 62, 0
4, 39968, Note_on_c, 1, 63, 82
4, 39998, Note_on_c, 1, 63, 0
4, 40000, Note_on_c, 1, 65, 83
4, 40030, Note_on_c, 1, 65, 0
4, 40032, Note_on_c, 1, 67, 85
4, 40121, Note_on_c, 1, 67, 0
4, 40224, Note_on_c, 1, 68, 70
4, 40224, Note_on_c, 1, 58, 70
4, 40313, Note_on_c, 1, 68, 0
4, 40313, Note_on_c, 1, 58, 0
4, 40320, Note_on_c, 1, 67, 70
4, 40320, Note_on_c, 1, 63, 70
4, 40409, Note_on_c, 1, 67, 0
4, 40409, Note_on_c, 1, 63, 0
4, 40416, Note_on_c, 1, 51, 70
4, 40505, Note_on_c, 1, 51, 0
4, 40704, Note_on_c, 1, 61, 64
4, 40704, Note_on_c, 1, 58, 64
4, 40793, Note_on_c, 1, 61, 0
4, 40793, Note_on_c, 1, 58, 0
4, 40800, Note_on_c, 1, 61, 64
4, 40800, Note_on_c, 1, 58, 64
4, 40889, Note_on_c, 1, 61, 0
4, 40889, Note_on_c, 1, 58, 0
4, 40896, Note_on_c, 1, 61, 64
4, 40896, Note_on_c, 1, 58, 64
4, 40992, Note_on_c, 1, 61, 0
4, 40992, Note_on_c, 1, 58, 0
4, 40992, Note_on_c, 1, 60, 64
4, 40992, Note_on_c, 1, 56, 64
4, 41081, Note_on_c, 1, 60, 0
4, 41081, Note_on_c, 1, 56, 0
4, 41280, Note_on_c, 1, 59, 64
4, 41280, Note_on_c, 1, 56, 64
4, 41369, Note_on_c, 1, 59, 0
4, 41369, Note_on_c, 1, 56, 0
4, 41376, Note_on_c, 1, 59, 64
4, 41376, Note_on_c, 1, 56, 64
4, 41465, Note_on_c, 1, 59, 0
4, 41465, Note_on_c, 1, 56, 0
4, 41472, Note_on_c, 1, 58, 64
4, 41649, Note_on_c, 1, 58, 0
4, 41760, Note_on_c, 1, 56, 64
4, 41849, Note_on_c, 1, 56, 0
4, 41952, Note_on_c, 1, 58, 68
4, 41991, Note_on_c, 1, 58, 0
4, 42048, Note_on_c, 1, 60, 71
4, 42087, Note_on_c, 1, 60, 0
4, 42240, Note_on_c, 1, 62, 75
4, 42279, Note_on_c, 1, 62, 0
4, 42336, Note_on_c, 1, 63, 78
4, 42375, Note_on_c, 1, 63, 0
4, 42432, Note_on_c, 1, 60, 80
4, 42471, Note_on_c, 1, 60, 0
4, 42528, Note_on_c, 1, 56, 82
4, 42567, Note_on_c, 1, 56, 0
4, 42624, Note_on_c, 1, 58, 85
4, 42713, Note_on_c, 1, 58, 0
4, 42720, Note_on_c, 1, 46, 85
4, 42809, Note_on_c, 1, 46, 0
4, 43008, Note_on_c, 1, 67, 70
4, 43008, Note_on_c, 1, 63, 70
4, 43097, Note_on_c, 1, 67, 0
4, 43097, Note_on_c, 1, 63, 0
4, 43296, Note_on_c, 1, 60, 70
4, 43296, Note_on_c, 1, 56, 70
4, 43385, Note_on_c, 1, 60, 0
4, 43385, Note_on_c, 1, 56, 0
4, 43680, Note_on_c, 1, 62, 70
4, 43680, Note_on_c, 1, 58, 70
4, 43769, Note_on_c, 1, 62, 0
4, 43769, Note_on_c, 1, 58, 0
4, 43776, Note_on_c, 1, 63, 70
4, 43865, Note_on_c, 1, 63, 0
4, 43872, Note_on_c, 1, 51, 70
4, 43961, Note_on_c, 1, 51, 0
4, 43968, Note_on_c, 1, 56, 70
4, 44057, Note_on_c, 1, 56, 0
4, 44064, Note_on_c, 1, 55, 70
4, 44241, Note_on_c, 1, 55, 0
4, 44256, Note_on_c, 1, 55, 70
4, 44345, Note_on_c, 1, 55, 0
4, 44352, Note_on_c, 1, 53, 70
4, 44529, Note_on_c, 1, 53, 0
4, 44544, Note_on_c, 1, 51, 70
4, 44633, Note_on_c, 1, 51, 0
4, 44640, Note_on_c, 1, 56, 70
4, 44729, Note_on_c, 1, 56, 0
4, 44736, Note_on_c, 1, 46, 70
4, 44913, Note_on_c, 1, 46, 0
4, 44928, Note_on_c, 1, 51, 70
4, 44958, Note_on_c, 1, 51, 0
4, 44960, Note_on_c, 1, 53, 70
4, 44990, Note_on_c, 1, 53, 0
4, 44992, Note_on_c, 1, 55, 71
4, 45022, Note_on_c, 1, 55, 0
4, 45024, Note_on_c, 1, 56, 71
4, 45054, Note_on_c, 1, 56, 0
4, 45056, Note_on_c, 1, 58, 72
4, 45086, Note_on_c, 1, 58, 0
4, 45088, Note_on_c, 1, 60, 72
4, 45118, Note_on_c, 1, 60, 0
4, 45120, Note_on_c, 1, 57, 73
4, 45150, Note_on_c, 1, 57, 0
4, 45152, Note_on_c, 1, 58, 73
4, 45182, Note_on_c, 1, 58, 0
4, 45184, Note_on_c, 1, 60, 74
4, 45214, Note_on_c, 1, 60, 0
4, 45216, Note_on_c, 1, 58, 74
4, 45305, Note_on_c, 1, 58, 0
4, 45408, Note_on_c, 1, 58, 77
4, 45497, Note_on_c, 1, 58, 0
4, 45504, Note_on_c, 1, 51, 77
4, 45534, Note_on_c, 1, 51, 0
4, 45536, Note_on_c, 1, 53, 77
4, 45566, Note_on_c, 1, 53, 0
4, 45568, Note_on_c, 1, 55, 78
4, 45598, Note_on_c, 1, 55, 0
4, 45600, Note_on_c, 1, 56, 79
4, 45630, Note_on_c, 1, 56, 0
4, 45632, Note_on_c, 1, 58, 80
4, 45662, Note_on_c, 1, 58, 0
4, 45664, Note_on_c, 1, 60, 81
4, 45694, Note_on_c, 1, 60, 0
4, 45696, Note_on_c, 1, 62, 82
4, 45726, Note_on_c, 1, 62, 0
4, 45728, Note_on_c, 1, 63, 82
4, 45758, Note_on_c, 1, 63, 0
4, 45760, Note_on_c, 1, 65, 83
4, 45790, Note_on_c, 1, 65, 0
4, 45792, Note_on_c, 1, 67, 85
4, 45881, Note_on_c, 1, 67, 0
4, 45984, Note_on_c, 1, 68, 70
4, 45984, Note_on_c, 1, 58, 70
4, 46073, Note_on_c, 1, 68, 0
4, 46073, Note_on_c, 1, 58, 0
4, 46080, Note_on_c, 1, 67, 70
4, 46080, Note_on_c, 1, 63, 70
4, 46169, Note_on_c, 1, 67, 0
4, 46169, Note_on_c, 1, 63, 0
4, 46176, Note_on_c, 1, 51, 70
4, 46265, Note_on_c, 1, 51, 0
4, 46368, Note_on_c, 1, 51, 4
4, 46457, Note_on_c, 1, 51, 0
4, 46464, End_track
5, 0, Start_track
5, 0, Program_c, 1, 1
5, 0, Control_c, 1, 7, 127
5, 0, Control_c, 1, 10, 64
5, 1440, Note_on_c, 1, 62, 64
5, 1617, Note_on_c, 1, 62, 0
5, 1632, Note_on_c, 1, 62, 64
5, 1721, Note_on_c, 1, 62, 0
5, 1728, Note_on_c, 1, 60, 64
5, 1905, Note_on_c, 1, 60, 0
5, 1920, Note_on_c, 1, 58, 64
5, 2009, Note_on_c, 1, 58, 0
5, 2016, Note_on_c, 1, 63, 64
5, 2105, Note_on_c, 1, 63, 0
5, 2112, Note_on_c, 1, 53, 64
5, 2289, Note_on_c, 1, 53, 0
5, 4896, Note_on_c, 1, 62, 64
5, 5073, Note_on_c, 1, 62, 0
5, 5088, Note_on_c, 1, 62, 64
5, 5177, Note_on_c, 1, 62, 0
5, 5184, Note_on_c, 1, 60, 64
5, 5361, Note_on_c, 1, 60, 0
5, 5376, Note_on_c, 1, 58, 64
5, 5465, Note_on_c, 1, 58, 0
5, 5472, Note_on_c, 1, 63, 64
5, 5561, Note_on_c, 1, 63, 0
5, 5568, Note_on_c, 1, 53, 64
5, 5745, Note_on_c, 1, 53, 0
5, 8064, Note_on_c, 1, 56, 64
5, 8160, Note_on_c, 1, 56, 0
5, 8160, Note_on_c, 1, 55, 64
5, 8249, Note_on_c, 1, 55, 0
5, 10560, Note_on_c, 1, 63, 64
5, 10745, Note_on_c, 1, 63, 0
5, 10752, Note_on_c, 1, 63, 64
5, 11033, Note_on_c, 1, 63, 0
5, 11040, Note_on_c, 1, 62, 64
5, 11129, Note_on_c, 1, 62, 0
5, 11136, Note_on_c, 1, 63, 64
5, 11225, Note_on_c, 1, 63, 0
5, 11232, Note_on_c, 1, 60, 64
5, 11321, Note_on_c, 1, 60, 0
5, 11328, Note_on_c, 1, 55, 64
5, 11417, Note_on_c, 1, 55, 0
5, 11424, Note_on_c, 1, 53, 64
5, 11513, Note_on_c, 1, 53, 0
5, 13824, Note_on_c, 1, 56, 64
5, 13920, Note_on_c, 1, 56, 0
5, 13920, Note_on_c, 1, 55, 64
5, 14009, Note_on_c, 1, 55, 0
5, 16320, Note_on_c, 1, 63, 64
5, 16505, Note_on_c, 1, 63, 0
5, 16512, Note_on_c, 1, 63, 64
5, 16793, Note_on_c, 1, 63, 0
5, 16800, Note_on_c, 1, 62, 64
5, 16889, Note_on_c, 1, 62, 0
5, 16896, Note_on_c, 1, 63, 64
5, 16985, Note_on_c, 1, 63, 0
5, 16992, Note_on_c, 1, 60, 64
5, 17081, Note_on_c, 1, 60, 0
5, 17088, Note_on_c, 1, 55, 64
5, 17177, Note_on_c, 1, 55, 0
5, 17184, Note_on_c, 1, 53, 64
5, 17273, Note_on_c, 1, 53, 0
5, 20160, Note_on_c, 1, 53, 64
5, 20249, Note_on_c, 1, 53, 0
5, 20256, Note_on_c, 1, 54, 64
5, 20345, Note_on_c, 1, 54, 0
5, 20352, Note_on_c, 1, 58, 64
5, 20441, Note_on_c, 1, 58, 0
5, 20448, Note_on_c, 1, 59, 64
5, 20537, Note_on_c, 1, 59, 0
5, 20640, Note_on_c, 1, 49, 70
5, 20729, Note_on_c, 1, 49, 0
5, 22464, Note_on_c, 1, 53, 64
5, 22553, Note_on_c, 1, 53, 0
5, 22560, Note_on_c, 1, 54, 64
5, 22649, Note_on_c, 1, 54, 0
5, 22656, Note_on_c, 1, 58, 64
5, 22745, Note_on_c, 1, 58, 0
5, 22752, Note_on_c, 1, 59, 64
5, 22841, Note_on_c, 1, 59, 0
5, 22944, Note_on_c, 1, 49, 70
5, 23033, Note_on_c, 1, 49, 0
5, 24768, Note_on_c, 1, 46, 70
5, 25321, Note_on_c, 1, 46, 0
5, 27072, Note_on_c, 1, 46, 70
5, 27625, Note_on_c, 1, 46, 0
5, 29088, Note_on_c, 1, 62, 70
5, 29265, Note_on_c, 1, 62, 0
5, 29280, Note_on_c, 1, 62, 70
5, 29369, Note_on_c, 1, 62, 0
5, 29376, Note_on_c, 1, 60, 70
5, 29553, Note_on_c, 1, 60, 0
5, 29568, Note_on_c, 1, 58, 70
5, 29657, Note_on_c, 1, 58, 0
5, 29664, Note_on_c, 1, 63, 70
5, 29753, Note_on_c, 1, 63, 0
5, 29760, Note_on_c, 1, 53, 70
5, 29937, Note_on_c, 1, 53, 0
5, 32544, Note_on_c, 1, 62, 70
5, 32721, Note_on_c, 1, 62, 0
5, 32736, Note_on_c, 1, 62, 70
5, 32825, Note_on_c, 1, 62, 0
5, 32832, Note_on_c, 1, 60, 70
5, 33009, Note_on_c, 1, 60, 0
5, 33024, Note_on_c, 1, 58, 70
5, 33113, Note_on_c, 1, 58, 0
5, 33120, Note_on_c, 1, 63, 70
5, 33209, Note_on_c, 1, 63, 0
5, 33216, Note_on_c, 1, 53, 70
5, 33393, Note_on_c, 1, 53, 0
5, 35712, Note_on_c, 1, 56, 70
5, 35808, Note_on_c, 1, 56, 0
5, 35808, Note_on_c, 1, 55, 70
5, 35897, Note_on_c, 1, 55, 0
5, 38208, Note_on_c, 1, 63, 70
5, 38393, Note_on_c, 1, 63, 0
5, 38400, Note_on_c, 1, 63, 70
5, 38681, Note_on_c, 1, 63, 0
5, 38688, Note_on_c, 1, 62, 70
5, 38777, Note_on_c, 1, 62, 0
5, 38784, Note_on_c, 1, 63, 70
5, 38873, Note_on_c, 1, 63, 0
5, 38880, Note_on_c, 1, 60, 70
5, 38969, Note_on_c, 1, 60, 0
5, 38976, Note_on_c, 1, 55, 70
5, 39065, Note_on_c, 1, 55, 0
5, 39072, Note_on_c, 1, 53, 70
5, 39161, Note_on_c, 1, 53, 0
5, 41472, Note_on_c, 1, 56, 70
5, 41568, Note_on_c, 1, 56, 0
5, 41568, Note_on_c, 1, 55, 70
5, 41657, Note_on_c, 1, 55, 0
5, 43968, Note_on_c, 1, 63, 70
5, 44153, Note_on_c, 1, 63, 0
5, 44160, Note_on_c, 1, 63, 70
5, 44441, Note_on_c, 1, 63, 0
5, 44448, Note_on_c, 1, 62, 70
5, 44537, Note_on_c, 1, 62, 0
5, 44544, Note_on_c, 1, 63, 70
5, 44633, Note_on_c, 1, 63, 0
5, 44640, Note_on_c, 1, 60, 70
5, 44729, Note_on_c, 1, 60, 0
5, 44736, Note_on_c, 1, 55, 70
5, 44825, Note_on_c, 1, 55, 0
5, 44832, Note_on_c, 1, 53, 70
5, 44921, Note_on_c, 1, 53, 0
5, 46368, End_track
6, 0, Start_track
6, 0, Title_t, "Soanata II Haydn  "
6, 0, End_track
0, 0, End_of_file
