0, 0, Header, 1, 2, 120
1, 0, Start_track
1, 0, Time_signature, 4, 2, 24, 8
1, 0, Key_signature, -2, "major"
1, 0, Tempo, 600000
1, 0, End_track
2, 0, Start_track
2, 0, MIDI_port, 0
2, 0, Title_t, "Sonata in Bb"
2, 0, Program_c, 2, 0
2, 427, Control_c, 2, 0, 0
2, 427, Control_c, 2, 32, 0
2, 427, Program_c, 2, 0
2, 427, Control_c, 2, 7, 127
2, 428, Pitch_bend_c, 2, 8192
2, 428, Control_c, 2, 1, 0
2, 428, Control_c, 2, 64, 0
2, 428, Note_on_c, 2, 70, 39
2, 428, Note_on_c, 2, 58, 35
2, 444, Control_c, 2, 64, 127
2, 544, Note_on_c, 2, 65, 28
2, 632, Note_on_c, 2, 62, 38
2, 644, Note_on_c, 2, 65, 0
2, 652, Note_on_c, 2, 70, 0
2, 724, Note_on_c, 2, 58, 0
2, 724, Note_on_c, 2, 65, 38
2, 748, Note_on_c, 2, 62, 0
2, 790, Note_on_c, 2, 65, 0
2, 820, Note_on_c, 2, 58, 35
2, 820, Note_on_c, 2, 74, 47
2, 849, Control_c, 2, 64, 0
2, 907, Note_on_c, 2, 65, 31
2, 920, Control_c, 2, 64, 127
2, 936, Note_on_c, 2, 74, 0
2, 936, Note_on_c, 2, 75, 42
2, 957, Note_on_c, 2, 74, 45
2, 973, Note_on_c, 2, 75, 0
2, 986, Note_on_c, 2, 74, 0
2, 986, Note_on_c, 2, 72, 45
2, 1015, Note_on_c, 2, 74, 53
2, 1016, Note_on_c, 2, 62, 42
2, 1019, Note_on_c, 2, 65, 0
2, 1028, Note_on_c, 2, 72, 0
2, 1107, Note_on_c, 2, 65, 36
2, 1107, Note_on_c, 2, 75, 46
2, 1111, Note_on_c, 2, 58, 0
2, 1115, Note_on_c, 2, 74, 0
2, 1149, Note_on_c, 2, 62, 0
2, 1174, Note_on_c, 2, 75, 0
2, 1206, Note_on_c, 2, 65, 0
2, 1207, Note_on_c, 2, 57, 30
2, 1207, Note_on_c, 2, 76, 50
2, 1224, Control_c, 2, 64, 0
2, 1315, Note_on_c, 2, 65, 29
2, 1344, Control_c, 2, 64, 127
2, 1394, Note_on_c, 2, 60, 39
2, 1398, Note_on_c, 2, 65, 0
2, 1474, Note_on_c, 2, 77, 44
2, 1477, Note_on_c, 2, 57, 0
2, 1478, Note_on_c, 2, 65, 30
2, 1490, Note_on_c, 2, 76, 0
2, 1532, Note_on_c, 2, 60, 0
2, 1557, Note_on_c, 2, 65, 0
2, 1561, Note_on_c, 2, 57, 28
2, 1561, Note_on_c, 2, 72, 37
2, 1586, Note_on_c, 2, 77, 0
2, 1598, Control_c, 2, 64, 0
2, 1648, Note_on_c, 2, 65, 28
2, 1653, Control_c, 2, 64, 127
2, 1736, Note_on_c, 2, 65, 0
2, 1736, Note_on_c, 2, 60, 24
2, 1828, Note_on_c, 2, 65, 28
2, 1832, Note_on_c, 2, 60, 0
2, 1832, Note_on_c, 2, 57, 0
2, 1907, Note_on_c, 2, 65, 0
2, 1924, Note_on_c, 2, 55, 27
2, 1924, Note_on_c, 2, 75, 38
2, 1944, Note_on_c, 2, 72, 0
2, 1949, Control_c, 2, 64, 0
2, 2020, Note_on_c, 2, 63, 34
2, 2044, Note_on_c, 2, 75, 0
2, 2044, Note_on_c, 2, 77, 47
2, 2057, Control_c, 2, 64, 127
2, 2069, Note_on_c, 2, 75, 34
2, 2078, Note_on_c, 2, 77, 0
2, 2090, Note_on_c, 2, 75, 0
2, 2090, Note_on_c, 2, 74, 52
2, 2116, Note_on_c, 2, 58, 24
2, 2116, Note_on_c, 2, 75, 55
2, 2119, Note_on_c, 2, 63, 0
2, 2136, Note_on_c, 2, 74, 0
2, 2199, Note_on_c, 2, 58, 0
2, 2199, Note_on_c, 2, 63, 32
2, 2203, Note_on_c, 2, 75, 0
2, 2203, Note_on_c, 2, 77, 54
2, 2207, Note_on_c, 2, 55, 0
2, 2211, Note_on_c, 2, 63, 0
2, 2219, Note_on_c, 2, 77, 0
2, 2295, Note_on_c, 2, 79, 47
2, 2298, Note_on_c, 2, 51, 32
2, 2315, Control_c, 2, 64, 0
2, 2391, Note_on_c, 2, 58, 35
2, 2411, Note_on_c, 2, 79, 0
2, 2411, Note_on_c, 2, 81, 46
2, 2436, Note_on_c, 2, 79, 44
2, 2448, Note_on_c, 2, 81, 0
2, 2449, Control_c, 2, 64, 127
2, 2457, Note_on_c, 2, 79, 0
2, 2458, Note_on_c, 2, 77, 41
2, 2482, Note_on_c, 2, 58, 0
2, 2482, Note_on_c, 2, 55, 40
2, 2483, Note_on_c, 2, 79, 55
2, 2499, Note_on_c, 2, 77, 0
2, 2570, Note_on_c, 2, 51, 0
2, 2570, Note_on_c, 2, 55, 0
2, 2570, Note_on_c, 2, 58, 39
2, 2570, Note_on_c, 2, 81, 49
2, 2578, Note_on_c, 2, 79, 0
2, 2603, Note_on_c, 2, 81, 0
2, 2649, Note_on_c, 2, 58, 0
2, 2661, Note_on_c, 2, 81, 48
2, 2661, Note_on_c, 2, 50, 29
2, 2682, Control_c, 2, 64, 0
2, 2762, Note_on_c, 2, 58, 27
2, 2799, Control_c, 2, 64, 127
2, 2845, Note_on_c, 2, 58, 0
2, 2845, Note_on_c, 2, 53, 36
2, 2907, Note_on_c, 2, 50, 0
2, 2928, Note_on_c, 2, 53, 0
2, 2928, Note_on_c, 2, 82, 45
2, 2928, Note_on_c, 2, 58, 35
2, 2945, Note_on_c, 2, 81, 0
2, 2999, Note_on_c, 2, 58, 0
2, 3016, Note_on_c, 2, 82, 0
2, 3016, Note_on_c, 2, 50, 36
2, 3016, Note_on_c, 2, 77, 40
2, 3037, Control_c, 2, 64, 0
2, 3103, Note_on_c, 2, 58, 35
2, 3116, Control_c, 2, 64, 127
2, 3187, Note_on_c, 2, 53, 43
2, 3194, Note_on_c, 2, 58, 0
2, 3266, Note_on_c, 2, 53, 0
2, 3266, Note_on_c, 2, 50, 0
2, 3266, Note_on_c, 2, 58, 37
2, 3353, Note_on_c, 2, 51, 40
2, 3353, Note_on_c, 2, 79, 51
2, 3357, Note_on_c, 2, 58, 0
2, 3374, Note_on_c, 2, 77, 0
2, 3374, Control_c, 2, 64, 0
2, 3445, Note_on_c, 2, 55, 45
2, 3453, Control_c, 2, 64, 127
2, 3458, Note_on_c, 2, 51, 0
2, 3528, Note_on_c, 2, 55, 0
2, 3528, Note_on_c, 2, 51, 37
2, 3533, Note_on_c, 2, 79, 0
2, 3616, Note_on_c, 2, 51, 0
2, 3616, Note_on_c, 2, 59, 38
2, 3616, Note_on_c, 2, 80, 45
2, 3653, Note_on_c, 2, 80, 0
2, 3658, Note_on_c, 2, 79, 36
2, 3695, Note_on_c, 2, 59, 0
2, 3695, Note_on_c, 2, 51, 41
2, 3695, Note_on_c, 2, 77, 47
2, 3707, Note_on_c, 2, 79, 0
2, 3732, Control_c, 2, 64, 0
2, 3770, Control_c, 2, 64, 127
2, 3778, Note_on_c, 2, 51, 0
2, 3779, Note_on_c, 2, 75, 54
2, 3779, Note_on_c, 2, 60, 39
2, 3787, Note_on_c, 2, 77, 0
2, 3857, Note_on_c, 2, 60, 0
2, 3862, Note_on_c, 2, 74, 49
2, 3862, Note_on_c, 2, 51, 38
2, 3866, Note_on_c, 2, 75, 0
2, 3870, Control_c, 2, 64, 0
2, 3920, Control_c, 2, 64, 127
2, 3945, Note_on_c, 2, 63, 29
2, 3950, Note_on_c, 2, 51, 0
2, 3950, Note_on_c, 2, 74, 0
2, 3950, Note_on_c, 2, 72, 45
2, 3978, Note_on_c, 2, 63, 0
2, 4033, Note_on_c, 2, 50, 36
2, 4033, Note_on_c, 2, 76, 46
2, 4050, Note_on_c, 2, 72, 0
2, 4050, Control_c, 2, 64, 0
2, 4141, Note_on_c, 2, 53, 28
2, 4141, Note_on_c, 2, 77, 49
2, 4149, Note_on_c, 2, 76, 0
2, 4149, Note_on_c, 2, 50, 0
2, 4157, Control_c, 2, 64, 127
2, 4220, Note_on_c, 2, 50, 33
2, 4228, Note_on_c, 2, 53, 0
2, 4304, Note_on_c, 2, 50, 0
2, 4308, Note_on_c, 2, 57, 33
2, 4308, Note_on_c, 2, 79, 39
2, 4312, Note_on_c, 2, 77, 0
2, 4328, Control_c, 2, 64, 0
2, 4350, Note_on_c, 2, 77, 48
2, 4358, Control_c, 2, 64, 127
2, 4362, Note_on_c, 2, 79, 0
2, 4392, Note_on_c, 2, 50, 37
2, 4395, Note_on_c, 2, 75, 40
2, 4399, Note_on_c, 2, 57, 0
2, 4403, Note_on_c, 2, 77, 0
2, 4478, Note_on_c, 2, 58, 31
2, 4478, Note_on_c, 2, 74, 46
2, 4487, Note_on_c, 2, 50, 0
2, 4491, Note_on_c, 2, 75, 0
2, 4566, Note_on_c, 2, 58, 0
2, 4566, Note_on_c, 2, 50, 36
2, 4570, Note_on_c, 2, 72, 40
2, 4574, Note_on_c, 2, 74, 0
2, 4578, Control_c, 2, 64, 0
2, 4658, Control_c, 2, 64, 127
2, 4666, Note_on_c, 2, 62, 35
2, 4666, Note_on_c, 2, 70, 42
2, 4674, Note_on_c, 2, 50, 0
2, 4699, Note_on_c, 2, 62, 0
2, 4704, Note_on_c, 2, 72, 0
2, 4754, Note_on_c, 2, 70, 0
2, 4791, Note_on_c, 2, 57, 37
2, 4791, Note_on_c, 2, 77, 50
2, 4804, Control_c, 2, 64, 0
2, 4887, Note_on_c, 2, 65, 36
2, 4887, Note_on_c, 2, 75, 39
2, 4895, Note_on_c, 2, 77, 0
2, 4899, Control_c, 2, 64, 127
2, 4975, Note_on_c, 2, 65, 0
2, 4975, Note_on_c, 2, 60, 31
2, 5058, Note_on_c, 2, 60, 0
2, 5058, Note_on_c, 2, 75, 0
2, 5062, Note_on_c, 2, 72, 45
2, 5062, Note_on_c, 2, 65, 33
2, 5066, Note_on_c, 2, 57, 0
2, 5141, Note_on_c, 2, 65, 0
2, 5145, Note_on_c, 2, 72, 0
2, 5146, Note_on_c, 2, 58, 42
2, 5146, Note_on_c, 2, 75, 38
2, 5166, Control_c, 2, 64, 0
2, 5229, Note_on_c, 2, 65, 39
2, 5229, Note_on_c, 2, 74, 49
2, 5237, Note_on_c, 2, 75, 0
2, 5241, Control_c, 2, 64, 127
2, 5312, Note_on_c, 2, 62, 46
2, 5320, Note_on_c, 2, 65, 0
2, 5392, Note_on_c, 2, 62, 0
2, 5395, Note_on_c, 2, 65, 48
2, 5395, Note_on_c, 2, 70, 45
2, 5400, Note_on_c, 2, 74, 0
2, 5401, Note_on_c, 2, 58, 0
2, 5416, Note_on_c, 2, 65, 0
2, 5479, Note_on_c, 2, 53, 42
2, 5479, Note_on_c, 2, 74, 46
2, 5491, Note_on_c, 2, 70, 0
2, 5500, Control_c, 2, 64, 0
2, 5570, Note_on_c, 2, 62, 37
2, 5591, Control_c, 2, 64, 127
2, 5662, Note_on_c, 2, 58, 28
2, 5679, Note_on_c, 2, 62, 0
2, 5754, Note_on_c, 2, 74, 0
2, 5754, Note_on_c, 2, 62, 31
2, 5758, Note_on_c, 2, 75, 32
2, 5766, Note_on_c, 2, 58, 0
2, 5787, Note_on_c, 2, 53, 0
2, 5787, Note_on_c, 2, 62, 0
2, 5817, Note_on_c, 2, 75, 0
2, 5817, Note_on_c, 2, 74, 31
2, 5879, Note_on_c, 2, 72, 38
2, 5879, Note_on_c, 2, 53, 20
2, 5879, Note_on_c, 2, 57, 27
2, 5879, Note_on_c, 2, 60, 24
2, 5879, Control_c, 2, 64, 0
2, 5883, Note_on_c, 2, 74, 0
2, 5992, Note_on_c, 2, 77, 40
2, 6016, Note_on_c, 2, 72, 0
2, 6108, Note_on_c, 2, 75, 32
2, 6116, Note_on_c, 2, 77, 0
2, 6142, Control_c, 2, 64, 127
2, 6195, Note_on_c, 2, 60, 0
2, 6203, Note_on_c, 2, 53, 0
2, 6208, Note_on_c, 2, 57, 0
2, 6242, Note_on_c, 2, 75, 0
2, 6242, Note_on_c, 2, 72, 39
2, 6434, Note_on_c, 2, 72, 0
2, 6434, Note_on_c, 2, 58, 41
2, 6434, Note_on_c, 2, 70, 35
2, 6458, Control_c, 2, 64, 0
2, 6542, Note_on_c, 2, 65, 28
2, 6571, Note_on_c, 2, 70, 0
2, 6571, Note_on_c, 2, 72, 45
2, 6591, Note_on_c, 2, 70, 39
2, 6600, Note_on_c, 2, 72, 0
2, 6616, Note_on_c, 2, 70, 0
2, 6621, Note_on_c, 2, 69, 45
2, 6646, Note_on_c, 2, 61, 37
2, 6646, Note_on_c, 2, 70, 45
2, 6650, Note_on_c, 2, 65, 0
2, 6663, Note_on_c, 2, 69, 0
2, 6671, Control_c, 2, 64, 127
2, 6738, Note_on_c, 2, 65, 38
2, 6738, Note_on_c, 2, 72, 53
2, 6742, Note_on_c, 2, 70, 0
2, 6746, Note_on_c, 2, 58, 0
2, 6750, Note_on_c, 2, 61, 0
2, 6758, Note_on_c, 2, 72, 0
2, 6762, Note_on_c, 2, 65, 0
2, 6838, Note_on_c, 2, 58, 33
2, 6838, Note_on_c, 2, 73, 42
2, 6854, Control_c, 2, 64, 0
2, 6921, Note_on_c, 2, 65, 36
2, 6946, Note_on_c, 2, 73, 0
2, 6946, Note_on_c, 2, 75, 40
2, 6971, Note_on_c, 2, 73, 48
2, 6988, Note_on_c, 2, 75, 0
2, 6991, Note_on_c, 2, 72, 45
2, 6996, Note_on_c, 2, 73, 0
2, 7017, Control_c, 2, 64, 127
2, 7021, Note_on_c, 2, 73, 53
2, 7025, Note_on_c, 2, 65, 0
2, 7025, Note_on_c, 2, 61, 37
2, 7046, Note_on_c, 2, 72, 0
2, 7112, Note_on_c, 2, 65, 33
2, 7112, Note_on_c, 2, 75, 45
2, 7117, Note_on_c, 2, 58, 0
2, 7125, Note_on_c, 2, 73, 0
2, 7171, Note_on_c, 2, 61, 0
2, 7213, Note_on_c, 2, 65, 0
2, 7213, Note_on_c, 2, 76, 51
2, 7213, Note_on_c, 2, 56, 36
2, 7221, Note_on_c, 2, 75, 0
2, 7250, Control_c, 2, 64, 0
2, 7321, Note_on_c, 2, 65, 38
2, 7408, Note_on_c, 2, 60, 40
2, 7416, Note_on_c, 2, 65, 0
2, 7417, Control_c, 2, 64, 127
2, 7492, Note_on_c, 2, 56, 0
2, 7496, Note_on_c, 2, 60, 0
2, 7496, Note_on_c, 2, 65, 35
2, 7496, Note_on_c, 2, 77, 50
2, 7504, Note_on_c, 2, 76, 0
2, 7566, Note_on_c, 2, 65, 0
2, 7583, Note_on_c, 2, 56, 40
2, 7583, Note_on_c, 2, 72, 46
2, 7588, Note_on_c, 2, 77, 0
2, 7617, Control_c, 2, 64, 0
2, 7667, Note_on_c, 2, 65, 49
2, 7676, Control_c, 2, 64, 127
2, 7759, Note_on_c, 2, 65, 0
2, 7759, Note_on_c, 2, 60, 39
2, 7842, Note_on_c, 2, 60, 0
2, 7850, Note_on_c, 2, 65, 28
2, 7857, Note_on_c, 2, 56, 0
2, 7871, Note_on_c, 2, 65, 0
2, 7938, Note_on_c, 2, 72, 0
2, 7967, Note_on_c, 2, 54, 23
2, 7967, Note_on_c, 2, 75, 37
2, 8000, Control_c, 2, 64, 0
2, 8063, Note_on_c, 2, 63, 35
2, 8092, Note_on_c, 2, 75, 0
2, 8092, Note_on_c, 2, 77, 46
2, 8105, Control_c, 2, 64, 127
2, 8117, Note_on_c, 2, 75, 37
2, 8129, Note_on_c, 2, 77, 0
2, 8134, Note_on_c, 2, 75, 0
2, 8138, Note_on_c, 2, 74, 50
2, 8163, Note_on_c, 2, 63, 0
2, 8163, Note_on_c, 2, 58, 36
2, 8163, Note_on_c, 2, 75, 49
2, 8184, Note_on_c, 2, 74, 0
2, 8250, Note_on_c, 2, 58, 0
2, 8250, Note_on_c, 2, 63, 35
2, 8250, Note_on_c, 2, 77, 54
2, 8254, Note_on_c, 2, 54, 0
2, 8254, Note_on_c, 2, 75, 0
2, 8267, Note_on_c, 2, 77, 0
2, 8270, Note_on_c, 2, 63, 0
2, 8338, Note_on_c, 2, 51, 40
2, 8338, Note_on_c, 2, 78, 39
2, 8396, Control_c, 2, 64, 0
2, 8421, Note_on_c, 2, 58, 39
2, 8446, Note_on_c, 2, 78, 0
2, 8446, Note_on_c, 2, 80, 45
2, 8471, Note_on_c, 2, 78, 49
2, 8484, Control_c, 2, 64, 127
2, 8488, Note_on_c, 2, 80, 0
2, 8496, Note_on_c, 2, 78, 0
2, 8496, Note_on_c, 2, 77, 53
2, 8517, Note_on_c, 2, 58, 0
2, 8522, Note_on_c, 2, 54, 40
2, 8522, Note_on_c, 2, 78, 45
2, 8542, Note_on_c, 2, 77, 0
2, 8604, Note_on_c, 2, 51, 0
2, 8609, Note_on_c, 2, 80, 51
2, 8609, Note_on_c, 2, 58, 36
2, 8617, Note_on_c, 2, 78, 0
2, 8621, Note_on_c, 2, 54, 0
2, 8696, Note_on_c, 2, 58, 0
2, 8696, Note_on_c, 2, 81, 59
2, 8697, Note_on_c, 2, 50, 40
2, 8700, Note_on_c, 2, 80, 0
2, 8717, Control_c, 2, 64, 0
2, 8797, Note_on_c, 2, 58, 44
2, 8800, Control_c, 2, 64, 127
2, 8875, Note_on_c, 2, 58, 0
2, 8880, Note_on_c, 2, 53, 47
2, 8955, Note_on_c, 2, 50, 0
2, 8968, Note_on_c, 2, 58, 40
2, 8968, Note_on_c, 2, 82, 56
2, 8975, Note_on_c, 2, 81, 0
2, 9046, Note_on_c, 2, 53, 0
2, 9050, Note_on_c, 2, 82, 0
2, 9050, Note_on_c, 2, 49, 47
2, 9050, Note_on_c, 2, 77, 55
2, 9051, Note_on_c, 2, 58, 0
2, 9084, Control_c, 2, 64, 0
2, 9142, Note_on_c, 2, 58, 45
2, 9150, Control_c, 2, 64, 127
2, 9238, Note_on_c, 2, 58, 0
2, 9238, Note_on_c, 2, 53, 40
2, 9329, Note_on_c, 2, 49, 0
2, 9338, Note_on_c, 2, 58, 34
2, 9354, Note_on_c, 2, 53, 0
2, 9392, Note_on_c, 2, 77, 0
2, 9400, Note_on_c, 2, 58, 0
2, 9438, Note_on_c, 2, 76, 50
2, 9438, Note_on_c, 2, 48, 38
2, 9455, Control_c, 2, 64, 0
2, 9568, Note_on_c, 2, 58, 30
2, 9568, Note_on_c, 2, 85, 57
2, 9572, Control_c, 2, 64, 127
2, 9663, Note_on_c, 2, 55, 39
2, 9676, Note_on_c, 2, 58, 0
2, 9751, Note_on_c, 2, 58, 37
2, 9772, Note_on_c, 2, 48, 0
2, 9776, Note_on_c, 2, 55, 0
2, 9826, Note_on_c, 2, 58, 0
2, 9838, Note_on_c, 2, 48, 32
2, 9859, Note_on_c, 2, 85, 0
2, 9876, Control_c, 2, 64, 0
2, 9926, Note_on_c, 2, 58, 35
2, 9926, Note_on_c, 2, 84, 48
2, 9930, Control_c, 2, 64, 127
2, 9967, Note_on_c, 2, 82, 40
2, 9980, Note_on_c, 2, 84, 0
2, 10009, Note_on_c, 2, 76, 0
2, 10009, Note_on_c, 2, 80, 45
2, 10009, Note_on_c, 2, 55, 36
2, 10014, Note_on_c, 2, 58, 0
2, 10030, Note_on_c, 2, 82, 0
2, 10051, Note_on_c, 2, 79, 33
2, 10063, Note_on_c, 2, 80, 0
2, 10092, Note_on_c, 2, 48, 0
2, 10093, Note_on_c, 2, 77, 49
2, 10096, Note_on_c, 2, 79, 0
2, 10096, Note_on_c, 2, 58, 31
2, 10134, Note_on_c, 2, 76, 39
2, 10150, Note_on_c, 2, 77, 0
2, 10172, Note_on_c, 2, 58, 0
2, 10176, Note_on_c, 2, 55, 0
2, 10176, Note_on_c, 2, 49, 37
2, 10176, Note_on_c, 2, 79, 48
2, 10184, Note_on_c, 2, 76, 0
2, 10209, Control_c, 2, 64, 0
2, 10272, Note_on_c, 2, 56, 33
2, 10314, Control_c, 2, 64, 127
2, 10355, Note_on_c, 2, 53, 45
2, 10355, Note_on_c, 2, 77, 47
2, 10359, Note_on_c, 2, 56, 0
2, 10359, Note_on_c, 2, 79, 0
2, 10438, Note_on_c, 2, 49, 0
2, 10442, Note_on_c, 2, 53, 0
2, 10447, Note_on_c, 2, 56, 39
2, 10534, Note_on_c, 2, 46, 49
2, 10538, Note_on_c, 2, 56, 0
2, 10564, Control_c, 2, 64, 0
2, 10626, Note_on_c, 2, 55, 41
2, 10626, Note_on_c, 2, 75, 49
2, 10634, Control_c, 2, 64, 127
2, 10638, Note_on_c, 2, 77, 0
2, 10718, Note_on_c, 2, 55, 0
2, 10718, Note_on_c, 2, 49, 34
2, 10755, Note_on_c, 2, 46, 0
2, 10805, Note_on_c, 2, 49, 0
2, 10806, Note_on_c, 2, 55, 31
2, 10806, Note_on_c, 2, 73, 40
2, 10818, Note_on_c, 2, 75, 0
2, 10901, Note_on_c, 2, 48, 35
2, 10901, Note_on_c, 2, 72, 46
2, 10902, Note_on_c, 2, 55, 0
2, 10905, Note_on_c, 2, 73, 0
2, 10922, Control_c, 2, 64, 0
2, 10992, Note_on_c, 2, 56, 26
2, 11009, Note_on_c, 2, 73, 46
2, 11014, Note_on_c, 2, 72, 0
2, 11030, Control_c, 2, 64, 127
2, 11030, Note_on_c, 2, 72, 46
2, 11043, Note_on_c, 2, 73, 0
2, 11064, Note_on_c, 2, 70, 45
2, 11068, Note_on_c, 2, 72, 0
2, 11093, Note_on_c, 2, 53, 29
2, 11093, Note_on_c, 2, 72, 50
2, 11097, Note_on_c, 2, 56, 0
2, 11101, Note_on_c, 2, 70, 0
2, 11180, Note_on_c, 2, 73, 45
2, 11180, Note_on_c, 2, 56, 35
2, 11184, Note_on_c, 2, 72, 0
2, 11197, Note_on_c, 2, 48, 0
2, 11218, Note_on_c, 2, 53, 0
2, 11239, Note_on_c, 2, 56, 0
2, 11268, Note_on_c, 2, 73, 0
2, 11276, Note_on_c, 2, 48, 31
2, 11276, Note_on_c, 2, 65, 35
2, 11297, Control_c, 2, 64, 0
2, 11372, Note_on_c, 2, 55, 31
2, 11372, Note_on_c, 2, 58, 31
2, 11459, Control_c, 2, 64, 127
2, 11480, Note_on_c, 2, 52, 44
2, 11480, Note_on_c, 2, 68, 40
2, 11484, Note_on_c, 2, 58, 0
2, 11501, Note_on_c, 2, 65, 0
2, 11564, Note_on_c, 2, 52, 0
2, 11576, Note_on_c, 2, 67, 41
2, 11576, Note_on_c, 2, 58, 31
2, 11584, Note_on_c, 2, 68, 0
2, 11588, Note_on_c, 2, 48, 0
2, 11589, Note_on_c, 2, 55, 0
2, 11614, Note_on_c, 2, 58, 0
2, 11698, Note_on_c, 2, 53, 31
2, 11698, Note_on_c, 2, 57, 27
2, 11698, Note_on_c, 2, 65, 37
2, 11701, Note_on_c, 2, 67, 0
2, 11710, Control_c, 2, 64, 0
2, 11810, Note_on_c, 2, 60, 28
2, 11822, Control_c, 2, 64, 127
2, 11851, Note_on_c, 2, 60, 0
2, 11901, Note_on_c, 2, 60, 31
2, 11930, Note_on_c, 2, 60, 0
2, 11998, Note_on_c, 2, 53, 0
2, 12002, Note_on_c, 2, 57, 0
2, 12002, Note_on_c, 2, 60, 29
2, 12089, Note_on_c, 2, 60, 0
2, 12089, Note_on_c, 2, 53, 37
2, 12089, Note_on_c, 2, 57, 39
2, 12118, Control_c, 2, 64, 0
2, 12176, Note_on_c, 2, 60, 38
2, 12181, Note_on_c, 2, 53, 0
2, 12181, Control_c, 2, 64, 127
2, 12184, Note_on_c, 2, 57, 0
2, 12260, Note_on_c, 2, 55, 40
2, 12260, Note_on_c, 2, 58, 39
2, 12272, Note_on_c, 2, 60, 0
2, 12284, Control_c, 2, 64, 0
2, 12347, Control_c, 2, 64, 127
2, 12351, Note_on_c, 2, 60, 38
2, 12356, Note_on_c, 2, 55, 0
2, 12359, Note_on_c, 2, 58, 0
2, 12434, Note_on_c, 2, 60, 0
2, 12439, Note_on_c, 2, 70, 40
2, 12439, Note_on_c, 2, 55, 40
2, 12439, Note_on_c, 2, 52, 36
2, 12452, Note_on_c, 2, 65, 0
2, 12455, Control_c, 2, 64, 0
2, 12518, Control_c, 2, 64, 127
2, 12522, Note_on_c, 2, 60, 34
2, 12551, Note_on_c, 2, 60, 0
2, 12610, Note_on_c, 2, 60, 37
2, 12635, Note_on_c, 2, 60, 0
2, 12685, Note_on_c, 2, 52, 0
2, 12689, Note_on_c, 2, 60, 33
2, 12693, Note_on_c, 2, 55, 0
2, 12772, Note_on_c, 2, 60, 0
2, 12776, Note_on_c, 2, 48, 39
2, 12776, Note_on_c, 2, 52, 39
2, 12776, Note_on_c, 2, 67, 47
2, 12780, Note_on_c, 2, 70, 0
2, 12797, Control_c, 2, 64, 0
2, 12856, Control_c, 2, 64, 127
2, 12860, Note_on_c, 2, 60, 39
2, 12864, Note_on_c, 2, 48, 0
2, 12864, Note_on_c, 2, 52, 0
2, 12947, Note_on_c, 2, 67, 0
2, 12948, Note_on_c, 2, 64, 42
2, 12948, Note_on_c, 2, 58, 40
2, 12948, Note_on_c, 2, 55, 45
2, 12956, Note_on_c, 2, 60, 0
2, 12968, Control_c, 2, 64, 0
2, 13031, Control_c, 2, 64, 127
2, 13031, Note_on_c, 2, 60, 45
2, 13034, Note_on_c, 2, 55, 0
2, 13039, Note_on_c, 2, 58, 0
2, 13102, Note_on_c, 2, 64, 0
2, 13118, Note_on_c, 2, 72, 51
2, 13118, Note_on_c, 2, 53, 36
2, 13118, Note_on_c, 2, 57, 40
2, 13122, Note_on_c, 2, 60, 0
2, 13135, Control_c, 2, 64, 0
2, 13202, Note_on_c, 2, 60, 39
2, 13239, Note_on_c, 2, 69, 42
2, 13243, Note_on_c, 2, 72, 0
2, 13248, Note_on_c, 2, 60, 0
2, 13248, Control_c, 2, 64, 127
2, 13285, Note_on_c, 2, 69, 0
2, 13285, Note_on_c, 2, 72, 53
2, 13285, Note_on_c, 2, 60, 37
2, 13314, Note_on_c, 2, 60, 0
2, 13369, Note_on_c, 2, 57, 0
2, 13369, Note_on_c, 2, 60, 39
2, 13372, Note_on_c, 2, 53, 0
2, 13443, Note_on_c, 2, 60, 0
2, 13443, Note_on_c, 2, 53, 42
2, 13443, Note_on_c, 2, 57, 44
2, 13460, Control_c, 2, 64, 0
2, 13527, Note_on_c, 2, 60, 43
2, 13530, Note_on_c, 2, 57, 0
2, 13531, Control_c, 2, 64, 127
2, 13535, Note_on_c, 2, 53, 0
2, 13606, Note_on_c, 2, 55, 51
2, 13606, Note_on_c, 2, 58, 43
2, 13614, Note_on_c, 2, 60, 0
2, 13627, Control_c, 2, 64, 0
2, 13685, Control_c, 2, 64, 127
2, 13689, Note_on_c, 2, 60, 45
2, 13693, Note_on_c, 2, 55, 0
2, 13698, Note_on_c, 2, 58, 0
2, 13769, Note_on_c, 2, 55, 46
2, 13769, Note_on_c, 2, 52, 40
2, 13769, Note_on_c, 2, 70, 45
2, 13780, Note_on_c, 2, 60, 0
2, 13785, Control_c, 2, 64, 0
2, 13789, Note_on_c, 2, 72, 0
2, 13852, Control_c, 2, 64, 127
2, 13856, Note_on_c, 2, 60, 37
2, 13886, Note_on_c, 2, 60, 0
2, 13935, Note_on_c, 2, 60, 39
2, 13968, Note_on_c, 2, 60, 0
2, 14014, Note_on_c, 2, 52, 0
2, 14014, Note_on_c, 2, 60, 35
2, 14015, Note_on_c, 2, 55, 0
2, 14098, Note_on_c, 2, 67, 25
2, 14098, Note_on_c, 2, 48, 35
2, 14098, Note_on_c, 2, 52, 40
2, 14106, Note_on_c, 2, 60, 0
2, 14111, Note_on_c, 2, 70, 0
2, 14118, Control_c, 2, 64, 0
2, 14185, Note_on_c, 2, 48, 0
2, 14185, Note_on_c, 2, 60, 36
2, 14189, Note_on_c, 2, 52, 0
2, 14189, Control_c, 2, 64, 127
2, 14273, Note_on_c, 2, 67, 0
2, 14273, Note_on_c, 2, 55, 28
2, 14273, Note_on_c, 2, 58, 36
2, 14273, Note_on_c, 2, 64, 40
2, 14281, Note_on_c, 2, 60, 0
2, 14306, Control_c, 2, 64, 0
2, 14365, Control_c, 2, 64, 127
2, 14365, Note_on_c, 2, 60, 39
2, 14368, Note_on_c, 2, 55, 0
2, 14382, Note_on_c, 2, 58, 0
2, 14394, Note_on_c, 2, 64, 0
2, 14398, Note_on_c, 2, 60, 0
2, 14464, Control_c, 2, 64, 0
2, 14469, Note_on_c, 2, 53, 42
2, 14469, Note_on_c, 2, 57, 40
2, 14469, Note_on_c, 2, 60, 33
2, 14469, Note_on_c, 2, 72, 45
2, 14631, Note_on_c, 2, 72, 0
2, 14631, Note_on_c, 2, 69, 35
2, 14690, Note_on_c, 2, 72, 40
2, 14693, Note_on_c, 2, 69, 0
2, 14748, Control_c, 2, 64, 127
2, 14818, Note_on_c, 2, 53, 0
2, 14818, Note_on_c, 2, 72, 0
2, 14828, Note_on_c, 2, 60, 0
2, 14839, Note_on_c, 2, 57, 0
2, 15127, Control_c, 2, 64, 0
2, 15244, Note_on_c, 2, 77, 32
2, 15244, Note_on_c, 2, 65, 41
2, 15244, Note_on_c, 2, 81, 28
2, 15394, Note_on_c, 2, 64, 42
2, 15394, Note_on_c, 2, 76, 48
2, 15394, Note_on_c, 2, 79, 45
2, 15398, Note_on_c, 2, 65, 0
2, 15406, Note_on_c, 2, 77, 0
2, 15406, Note_on_c, 2, 81, 0
2, 15486, Control_c, 2, 64, 127
2, 15494, Note_on_c, 2, 62, 54
2, 15494, Note_on_c, 2, 74, 45
2, 15494, Note_on_c, 2, 77, 53
2, 15498, Note_on_c, 2, 64, 0
2, 15502, Note_on_c, 2, 79, 0
2, 15502, Note_on_c, 2, 76, 0
2, 15511, Note_on_c, 2, 62, 0
2, 15514, Note_on_c, 2, 77, 0
2, 15519, Note_on_c, 2, 74, 0
2, 15573, Note_on_c, 2, 61, 46
2, 15573, Note_on_c, 2, 73, 53
2, 15573, Note_on_c, 2, 76, 47
2, 15594, Control_c, 2, 64, 0
2, 15652, Note_on_c, 2, 61, 0
2, 15653, Note_on_c, 2, 77, 47
2, 15653, Note_on_c, 2, 74, 52
2, 15653, Note_on_c, 2, 62, 45
2, 15653, Control_c, 2, 64, 127
2, 15656, Note_on_c, 2, 76, 0
2, 15660, Note_on_c, 2, 73, 0
2, 15681, Note_on_c, 2, 62, 0
2, 15687, Note_on_c, 2, 74, 0
2, 15691, Note_on_c, 2, 77, 0
2, 15736, Note_on_c, 2, 60, 40
2, 15736, Note_on_c, 2, 72, 45
2, 15736, Note_on_c, 2, 76, 46
2, 15769, Control_c, 2, 64, 0
2, 15810, Note_on_c, 2, 60, 0
2, 15815, Note_on_c, 2, 58, 36
2, 15815, Note_on_c, 2, 74, 48
2, 15815, Note_on_c, 2, 70, 45
2, 15819, Note_on_c, 2, 72, 0
2, 15845, Note_on_c, 2, 76, 0
2, 15898, Note_on_c, 2, 74, 0
2, 15899, Note_on_c, 2, 57, 40
2, 15899, Note_on_c, 2, 69, 40
2, 15899, Note_on_c, 2, 73, 52
2, 15906, Note_on_c, 2, 58, 0
2, 15911, Note_on_c, 2, 70, 0
2, 15978, Note_on_c, 2, 57, 0
2, 15981, Note_on_c, 2, 58, 32
2, 15981, Note_on_c, 2, 70, 45
2, 15981, Note_on_c, 2, 74, 40
2, 15986, Note_on_c, 2, 73, 0
2, 15998, Note_on_c, 2, 69, 0
2, 16061, Note_on_c, 2, 58, 0
2, 16061, Note_on_c, 2, 57, 42
2, 16061, Note_on_c, 2, 72, 45
2, 16061, Note_on_c, 2, 69, 41
2, 16065, Note_on_c, 2, 70, 0
2, 16073, Note_on_c, 2, 74, 0
2, 16127, Note_on_c, 2, 69, 0
2, 16152, Control_c, 2, 64, 127
2, 16156, Note_on_c, 2, 55, 40
2, 16156, Note_on_c, 2, 67, 45
2, 16156, Note_on_c, 2, 70, 35
2, 16165, Note_on_c, 2, 72, 0
2, 16169, Note_on_c, 2, 57, 0
2, 16173, Note_on_c, 2, 70, 0
2, 16177, Note_on_c, 2, 55, 0
2, 16177, Note_on_c, 2, 67, 0
2, 16257, Control_c, 2, 64, 0
2, 16260, Note_on_c, 2, 69, 48
2, 16260, Note_on_c, 2, 54, 30
2, 16260, Note_on_c, 2, 66, 45
2, 16286, Control_c, 2, 64, 127
2, 16306, Note_on_c, 2, 54, 0
2, 16315, Note_on_c, 2, 66, 0
2, 16315, Note_on_c, 2, 69, 0
2, 16391, Note_on_c, 2, 50, 53
2, 16391, Note_on_c, 2, 54, 45
2, 16391, Note_on_c, 2, 57, 43
2, 16391, Note_on_c, 2, 60, 43
2, 16391, Note_on_c, 2, 66, 47
2, 16391, Note_on_c, 2, 69, 45
2, 16398, Control_c, 2, 64, 0
2, 16548, Control_c, 2, 64, 127
2, 16661, Note_on_c, 2, 60, 0
2, 16686, Note_on_c, 2, 66, 0
2, 16744, Note_on_c, 2, 69, 0
2, 16762, Note_on_c, 2, 50, 0
2, 16778, Note_on_c, 2, 54, 0
2, 16781, Note_on_c, 2, 57, 0
2, 17182, Control_c, 2, 64, 0
2, 17265, Note_on_c, 2, 55, 25
2, 17265, Note_on_c, 2, 62, 26
2, 17265, Note_on_c, 2, 70, 29
2, 17274, Note_on_c, 2, 58, 17
2, 17340, Control_c, 2, 64, 127
2, 17402, Note_on_c, 2, 70, 0
2, 17456, Note_on_c, 2, 62, 0
2, 17490, Note_on_c, 2, 72, 36
2, 17515, Note_on_c, 2, 70, 31
2, 17519, Note_on_c, 2, 72, 0
2, 17536, Note_on_c, 2, 70, 0
2, 17536, Note_on_c, 2, 69, 40
2, 17565, Note_on_c, 2, 70, 45
2, 17570, Control_c, 2, 64, 0
2, 17586, Note_on_c, 2, 64, 38
2, 17586, Note_on_c, 2, 72, 52
2, 17590, Note_on_c, 2, 70, 0
2, 17590, Note_on_c, 2, 69, 0
2, 17628, Control_c, 2, 64, 127
2, 17728, Note_on_c, 2, 74, 54
2, 17739, Note_on_c, 2, 55, 0
2, 17740, Note_on_c, 2, 72, 0
2, 17748, Note_on_c, 2, 58, 0
2, 17786, Note_on_c, 2, 64, 0
2, 17924, Note_on_c, 2, 57, 26
2, 17924, Note_on_c, 2, 72, 44
2, 17924, Note_on_c, 2, 60, 25
2, 17924, Note_on_c, 2, 65, 35
2, 17924, Note_on_c, 2, 69, 32
2, 17928, Note_on_c, 2, 74, 0
2, 17961, Control_c, 2, 64, 0
2, 17998, Control_c, 2, 64, 127
2, 18007, Note_on_c, 2, 69, 0
2, 18015, Note_on_c, 2, 70, 35
2, 18019, Note_on_c, 2, 65, 0
2, 18027, Note_on_c, 2, 60, 0
2, 18028, Note_on_c, 2, 57, 0
2, 18053, Note_on_c, 2, 72, 0
2, 18078, Note_on_c, 2, 69, 31
2, 18086, Note_on_c, 2, 70, 0
2, 18098, Note_on_c, 2, 69, 0
2, 18144, Note_on_c, 2, 67, 40
2, 18144, Note_on_c, 2, 62, 36
2, 18144, Note_on_c, 2, 55, 32
2, 18144, Note_on_c, 2, 58, 37
2, 18170, Control_c, 2, 64, 0
2, 18203, Note_on_c, 2, 70, 39
2, 18206, Note_on_c, 2, 62, 0
2, 18207, Control_c, 2, 64, 127
2, 18210, Note_on_c, 2, 55, 0
2, 18215, Note_on_c, 2, 58, 0
2, 18262, Note_on_c, 2, 74, 45
2, 18269, Note_on_c, 2, 70, 0
2, 18281, Note_on_c, 2, 67, 0
2, 18282, Note_on_c, 2, 74, 0
2, 18336, Note_on_c, 2, 60, 39
2, 18336, Note_on_c, 2, 65, 46
2, 18336, Note_on_c, 2, 57, 40
2, 18336, Note_on_c, 2, 48, 37
2, 18361, Control_c, 2, 64, 0
2, 18403, Control_c, 2, 64, 127
2, 18461, Note_on_c, 2, 57, 0
2, 18486, Note_on_c, 2, 48, 0
2, 18490, Note_on_c, 2, 65, 0
2, 18507, Note_on_c, 2, 60, 0
2, 18578, Note_on_c, 2, 48, 28
2, 18578, Note_on_c, 2, 52, 37
2, 18578, Note_on_c, 2, 58, 40
2, 18578, Note_on_c, 2, 60, 36
2, 18578, Note_on_c, 2, 64, 40
2, 18578, Note_on_c, 2, 67, 45
2, 18595, Control_c, 2, 64, 0
2, 18665, Control_c, 2, 64, 127
2, 18689, Note_on_c, 2, 60, 0
2, 18699, Note_on_c, 2, 48, 0
2, 18703, Note_on_c, 2, 64, 0
2, 18706, Note_on_c, 2, 52, 0
2, 18706, Note_on_c, 2, 58, 0
2, 18753, Note_on_c, 2, 67, 0
2, 18844, Note_on_c, 2, 57, 24
2, 18844, Note_on_c, 2, 53, 36
2, 18844, Note_on_c, 2, 67, 28
2, 18870, Control_c, 2, 64, 0
2, 18953, Note_on_c, 2, 60, 24
2, 18990, Note_on_c, 2, 68, 39
2, 18999, Note_on_c, 2, 60, 0
2, 19020, Control_c, 2, 64, 127
2, 19036, Note_on_c, 2, 67, 0
2, 19037, Note_on_c, 2, 60, 34
2, 19037, Note_on_c, 2, 69, 47
2, 19040, Note_on_c, 2, 68, 0
2, 19066, Note_on_c, 2, 60, 0
2, 19074, Control_c, 2, 64, 0
2, 19116, Control_c, 2, 64, 127
2, 19128, Note_on_c, 2, 60, 35
2, 19161, Note_on_c, 2, 53, 0
2, 19173, Note_on_c, 2, 57, 0
2, 19220, Note_on_c, 2, 57, 42
2, 19220, Note_on_c, 2, 53, 40
2, 19224, Note_on_c, 2, 60, 0
2, 19253, Control_c, 2, 64, 0
2, 19299, Control_c, 2, 64, 127
2, 19303, Note_on_c, 2, 60, 33
2, 19311, Note_on_c, 2, 57, 0
2, 19312, Note_on_c, 2, 53, 0
2, 19386, Note_on_c, 2, 58, 39
2, 19386, Note_on_c, 2, 55, 40
2, 19398, Note_on_c, 2, 60, 0
2, 19416, Control_c, 2, 64, 0
2, 19474, Note_on_c, 2, 55, 0
2, 19474, Note_on_c, 2, 60, 39
2, 19478, Control_c, 2, 64, 127
2, 19482, Note_on_c, 2, 58, 0
2, 19558, Note_on_c, 2, 70, 43
2, 19558, Note_on_c, 2, 52, 39
2, 19558, Note_on_c, 2, 55, 38
2, 19570, Note_on_c, 2, 60, 0
2, 19570, Note_on_c, 2, 69, 0
2, 19574, Control_c, 2, 64, 0
2, 19641, Control_c, 2, 64, 127
2, 19645, Note_on_c, 2, 60, 36
2, 19678, Note_on_c, 2, 60, 0
2, 19728, Note_on_c, 2, 60, 32
2, 19758, Note_on_c, 2, 60, 0
2, 19808, Note_on_c, 2, 52, 0
2, 19812, Note_on_c, 2, 55, 0
2, 19812, Note_on_c, 2, 60, 34
2, 19891, Note_on_c, 2, 60, 0
2, 19895, Note_on_c, 2, 52, 38
2, 19895, Note_on_c, 2, 48, 40
2, 19895, Note_on_c, 2, 67, 45
2, 19907, Note_on_c, 2, 70, 0
2, 19920, Control_c, 2, 64, 0
2, 19970, Control_c, 2, 64, 127
2, 19974, Note_on_c, 2, 48, 0
2, 19974, Note_on_c, 2, 60, 38
2, 19979, Note_on_c, 2, 52, 0
2, 20054, Note_on_c, 2, 58, 37
2, 20054, Note_on_c, 2, 55, 45
2, 20054, Note_on_c, 2, 64, 47
2, 20057, Note_on_c, 2, 67, 0
2, 20065, Note_on_c, 2, 60, 0
2, 20091, Control_c, 2, 64, 0
2, 20136, Control_c, 2, 64, 127
2, 20140, Note_on_c, 2, 55, 0
2, 20140, Note_on_c, 2, 60, 45
2, 20146, Note_on_c, 2, 58, 0
2, 20220, Note_on_c, 2, 64, 0
2, 20220, Note_on_c, 2, 72, 54
2, 20220, Note_on_c, 2, 53, 39
2, 20220, Note_on_c, 2, 57, 43
2, 20228, Note_on_c, 2, 60, 0
2, 20237, Control_c, 2, 64, 0
2, 20303, Note_on_c, 2, 60, 39
2, 20337, Note_on_c, 2, 69, 35
2, 20340, Note_on_c, 2, 72, 0
2, 20345, Note_on_c, 2, 60, 0
2, 20362, Control_c, 2, 64, 127
2, 20374, Note_on_c, 2, 60, 44
2, 20374, Note_on_c, 2, 72, 53
2, 20382, Note_on_c, 2, 69, 0
2, 20407, Note_on_c, 2, 60, 0
2, 20458, Note_on_c, 2, 60, 40
2, 20466, Note_on_c, 2, 57, 0
2, 20466, Note_on_c, 2, 53, 0
2, 20537, Note_on_c, 2, 53, 45
2, 20537, Note_on_c, 2, 57, 42
2, 20541, Note_on_c, 2, 60, 0
2, 20562, Control_c, 2, 64, 0
2, 20616, Control_c, 2, 64, 127
2, 20620, Note_on_c, 2, 60, 39
2, 20628, Note_on_c, 2, 57, 0
2, 20629, Note_on_c, 2, 53, 0
2, 20703, Note_on_c, 2, 55, 38
2, 20703, Note_on_c, 2, 58, 37
2, 20712, Note_on_c, 2, 60, 0
2, 20728, Control_c, 2, 64, 0
2, 20787, Control_c, 2, 64, 127
2, 20791, Note_on_c, 2, 60, 41
2, 20798, Note_on_c, 2, 55, 0
2, 20799, Note_on_c, 2, 58, 0
2, 20895, Note_on_c, 2, 55, 43
2, 20895, Note_on_c, 2, 52, 28
2, 20895, Note_on_c, 2, 70, 39
2, 20908, Note_on_c, 2, 60, 0
2, 20912, Note_on_c, 2, 72, 0
2, 20916, Control_c, 2, 64, 0
2, 20970, Control_c, 2, 64, 127
2, 20983, Note_on_c, 2, 60, 34
2, 21016, Note_on_c, 2, 60, 0
2, 21062, Note_on_c, 2, 60, 34
2, 21087, Note_on_c, 2, 60, 0
2, 21141, Note_on_c, 2, 52, 0
2, 21141, Note_on_c, 2, 60, 30
2, 21145, Note_on_c, 2, 55, 0
2, 21216, Note_on_c, 2, 60, 0
2, 21216, Note_on_c, 2, 52, 41
2, 21216, Note_on_c, 2, 48, 29
2, 21216, Note_on_c, 2, 67, 40
2, 21237, Note_on_c, 2, 70, 0
2, 21245, Control_c, 2, 64, 0
2, 21300, Note_on_c, 2, 52, 0
2, 21304, Note_on_c, 2, 48, 0
2, 21304, Control_c, 2, 64, 127
2, 21304, Note_on_c, 2, 60, 38
2, 21387, Note_on_c, 2, 58, 37
2, 21387, Note_on_c, 2, 64, 45
2, 21387, Note_on_c, 2, 55, 35
2, 21391, Note_on_c, 2, 67, 0
2, 21395, Note_on_c, 2, 60, 0
2, 21433, Control_c, 2, 64, 0
2, 21483, Note_on_c, 2, 55, 0
2, 21483, Control_c, 2, 64, 127
2, 21483, Note_on_c, 2, 60, 40
2, 21487, Note_on_c, 2, 64, 0
2, 21491, Note_on_c, 2, 58, 0
2, 21512, Note_on_c, 2, 60, 0
2, 21592, Note_on_c, 2, 53, 34
2, 21592, Note_on_c, 2, 57, 33
2, 21592, Note_on_c, 2, 60, 36
2, 21592, Note_on_c, 2, 72, 41
2, 21592, Control_c, 2, 64, 0
2, 21737, Note_on_c, 2, 77, 36
2, 21745, Note_on_c, 2, 72, 0
2, 21783, Note_on_c, 2, 72, 40
2, 21791, Note_on_c, 2, 77, 0
2, 21812, Control_c, 2, 64, 127
2, 21947, Note_on_c, 2, 60, 0
2, 21950, Note_on_c, 2, 72, 0
2, 21951, Note_on_c, 2, 53, 0
2, 21955, Note_on_c, 2, 57, 0
2, 22116, Control_c, 2, 64, 0
2, 22208, Note_on_c, 2, 65, 42
2, 22208, Note_on_c, 2, 77, 47
2, 22208, Note_on_c, 2, 81, 39
2, 22338, Note_on_c, 2, 64, 49
2, 22338, Note_on_c, 2, 76, 50
2, 22338, Note_on_c, 2, 79, 45
2, 22346, Note_on_c, 2, 65, 0
2, 22350, Note_on_c, 2, 77, 0
2, 22350, Note_on_c, 2, 81, 0
2, 22429, Control_c, 2, 64, 127
2, 22429, Note_on_c, 2, 62, 53
2, 22429, Note_on_c, 2, 74, 48
2, 22429, Note_on_c, 2, 77, 56
2, 22438, Note_on_c, 2, 64, 0
2, 22442, Note_on_c, 2, 62, 0
2, 22442, Note_on_c, 2, 79, 0
2, 22442, Note_on_c, 2, 76, 0
2, 22454, Note_on_c, 2, 77, 0
2, 22454, Note_on_c, 2, 74, 0
2, 22508, Note_on_c, 2, 61, 52
2, 22508, Note_on_c, 2, 73, 56
2, 22508, Note_on_c, 2, 76, 56
2, 22554, Control_c, 2, 64, 0
2, 22588, Note_on_c, 2, 61, 0
2, 22588, Note_on_c, 2, 77, 48
2, 22588, Note_on_c, 2, 62, 49
2, 22588, Note_on_c, 2, 74, 53
2, 22592, Control_c, 2, 64, 127
2, 22596, Note_on_c, 2, 76, 0
2, 22596, Note_on_c, 2, 73, 0
2, 22624, Note_on_c, 2, 62, 0
2, 22629, Note_on_c, 2, 74, 0
2, 22634, Note_on_c, 2, 77, 0
2, 22663, Note_on_c, 2, 72, 55
2, 22663, Note_on_c, 2, 60, 45
2, 22663, Note_on_c, 2, 76, 55
2, 22670, Control_c, 2, 64, 0
2, 22738, Note_on_c, 2, 60, 0
2, 22742, Note_on_c, 2, 74, 47
2, 22742, Note_on_c, 2, 70, 45
2, 22742, Note_on_c, 2, 58, 46
2, 22746, Note_on_c, 2, 72, 0
2, 22758, Note_on_c, 2, 76, 0
2, 22824, Note_on_c, 2, 73, 55
2, 22824, Note_on_c, 2, 69, 40
2, 22824, Note_on_c, 2, 57, 46
2, 22829, Note_on_c, 2, 74, 0
2, 22830, Note_on_c, 2, 70, 0
2, 22834, Note_on_c, 2, 58, 0
2, 22904, Note_on_c, 2, 57, 0
2, 22904, Note_on_c, 2, 74, 45
2, 22904, Note_on_c, 2, 70, 53
2, 22904, Note_on_c, 2, 58, 37
2, 22915, Note_on_c, 2, 73, 0
2, 22920, Note_on_c, 2, 69, 0
2, 22933, Note_on_c, 2, 74, 13
2, 22983, Note_on_c, 2, 74, 0
2, 22983, Note_on_c, 2, 58, 0
2, 22988, Note_on_c, 2, 57, 45
2, 22988, Note_on_c, 2, 69, 45
2, 22988, Note_on_c, 2, 72, 45
2, 22992, Note_on_c, 2, 70, 0
2, 23000, Note_on_c, 2, 74, 0
2, 23046, Note_on_c, 2, 69, 0
2, 23072, Note_on_c, 2, 67, 45
2, 23072, Note_on_c, 2, 55, 42
2, 23072, Note_on_c, 2, 70, 45
2, 23075, Note_on_c, 2, 57, 0
2, 23092, Control_c, 2, 64, 127
2, 23095, Note_on_c, 2, 72, 0
2, 23116, Note_on_c, 2, 70, 0
2, 23126, Note_on_c, 2, 55, 0
2, 23130, Note_on_c, 2, 67, 0
2, 23171, Control_c, 2, 64, 0
2, 23175, Note_on_c, 2, 54, 48
2, 23175, Note_on_c, 2, 66, 49
2, 23175, Note_on_c, 2, 69, 51
2, 23200, Control_c, 2, 64, 127
2, 23232, Note_on_c, 2, 54, 0
2, 23240, Note_on_c, 2, 66, 0
2, 23246, Note_on_c, 2, 69, 0
2, 23331, Note_on_c, 2, 50, 49
2, 23331, Note_on_c, 2, 54, 47
2, 23331, Note_on_c, 2, 57, 48
2, 23331, Note_on_c, 2, 60, 47
2, 23331, Note_on_c, 2, 66, 47
2, 23331, Note_on_c, 2, 69, 43
2, 23346, Control_c, 2, 64, 0
2, 23433, Control_c, 2, 64, 127
2, 23500, Note_on_c, 2, 60, 0
2, 23534, Note_on_c, 2, 66, 0
2, 23671, Note_on_c, 2, 69, 0
2, 23723, Note_on_c, 2, 50, 0
2, 23735, Note_on_c, 2, 57, 0
2, 23735, Note_on_c, 2, 54, 0
2, 24058, Control_c, 2, 64, 0
2, 24138, Note_on_c, 2, 55, 20
2, 24138, Note_on_c, 2, 58, 31
2, 24138, Note_on_c, 2, 62, 17
2, 24138, Note_on_c, 2, 70, 29
2, 24196, Control_c, 2, 64, 127
2, 24292, Note_on_c, 2, 70, 0
2, 24388, Note_on_c, 2, 62, 0
2, 24388, Note_on_c, 2, 72, 43
2, 24408, Note_on_c, 2, 70, 32
2, 24417, Note_on_c, 2, 72, 0
2, 24434, Note_on_c, 2, 70, 0
2, 24434, Note_on_c, 2, 69, 41
2, 24454, Note_on_c, 2, 70, 40
2, 24466, Control_c, 2, 64, 0
2, 24492, Note_on_c, 2, 70, 0
2, 24492, Note_on_c, 2, 69, 0
2, 24496, Note_on_c, 2, 72, 47
2, 24496, Note_on_c, 2, 64, 45
2, 24521, Control_c, 2, 64, 127
2, 24630, Note_on_c, 2, 74, 48
2, 24654, Note_on_c, 2, 72, 0
2, 24654, Note_on_c, 2, 55, 0
2, 24663, Note_on_c, 2, 58, 0
2, 24712, Note_on_c, 2, 64, 0
2, 24846, Note_on_c, 2, 74, 0
2, 24847, Note_on_c, 2, 57, 18
2, 24847, Note_on_c, 2, 60, 26
2, 24847, Note_on_c, 2, 65, 33
2, 24847, Note_on_c, 2, 69, 27
2, 24847, Note_on_c, 2, 72, 42
2, 24871, Control_c, 2, 64, 0
2, 24917, Control_c, 2, 64, 127
2, 24942, Note_on_c, 2, 77, 47
2, 24963, Note_on_c, 2, 69, 0
2, 24967, Note_on_c, 2, 65, 0
2, 24981, Note_on_c, 2, 60, 0
2, 24988, Note_on_c, 2, 57, 0
2, 25008, Note_on_c, 2, 77, 0
2, 25009, Note_on_c, 2, 69, 36
2, 25013, Note_on_c, 2, 72, 0
2, 25030, Note_on_c, 2, 69, 0
2, 25076, Note_on_c, 2, 67, 42
2, 25076, Note_on_c, 2, 62, 36
2, 25076, Note_on_c, 2, 58, 32
2, 25076, Note_on_c, 2, 55, 34
2, 25100, Control_c, 2, 64, 0
2, 25142, Control_c, 2, 64, 127
2, 25146, Note_on_c, 2, 70, 42
2, 25155, Note_on_c, 2, 62, 0
2, 25159, Note_on_c, 2, 58, 0
2, 25163, Note_on_c, 2, 55, 0
2, 25200, Note_on_c, 2, 74, 47
2, 25204, Note_on_c, 2, 70, 0
2, 25217, Note_on_c, 2, 74, 0
2, 25217, Note_on_c, 2, 67, 0
2, 25276, Note_on_c, 2, 65, 40
2, 25276, Note_on_c, 2, 60, 39
2, 25276, Note_on_c, 2, 57, 45
2, 25276, Note_on_c, 2, 48, 39
2, 25296, Control_c, 2, 64, 0
2, 25346, Control_c, 2, 64, 127
2, 25446, Note_on_c, 2, 57, 0
2, 25572, Note_on_c, 2, 55, 25
2, 25572, Note_on_c, 2, 64, 31
2, 25573, Control_c, 2, 64, 0
2, 25584, Note_on_c, 2, 65, 0
2, 25726, Control_c, 2, 64, 127
2, 25795, Note_on_c, 2, 60, 0
2, 25830, Note_on_c, 2, 64, 0
2, 25926, Note_on_c, 2, 55, 0
2, 25930, Note_on_c, 2, 48, 0
2, 26038, Control_c, 2, 64, 127
2, 26109, Control_c, 2, 64, 0
2, 26146, Note_on_c, 2, 69, 53
2, 26188, Note_on_c, 2, 81, 55
2, 26288, Note_on_c, 2, 53, 41
2, 26317, Control_c, 2, 64, 127
2, 26376, Note_on_c, 2, 69, 0
2, 26376, Note_on_c, 2, 57, 47
2, 26401, Note_on_c, 2, 81, 0
2, 26418, Note_on_c, 2, 77, 50
2, 26438, Note_on_c, 2, 77, 0
2, 26455, Control_c, 2, 64, 0
2, 26467, Note_on_c, 2, 77, 52
2, 26472, Note_on_c, 2, 62, 39
2, 26480, Control_c, 2, 64, 127
2, 26488, Note_on_c, 2, 79, 55
2, 26492, Note_on_c, 2, 77, 0
2, 26505, Note_on_c, 2, 77, 50
2, 26518, Note_on_c, 2, 79, 0
2, 26518, Note_on_c, 2, 76, 48
2, 26534, Note_on_c, 2, 77, 43
2, 26542, Note_on_c, 2, 76, 0
2, 26559, Note_on_c, 2, 77, 0
2, 26568, Note_on_c, 2, 70, 72
2, 26588, Note_on_c, 2, 53, 0
2, 26588, Note_on_c, 2, 82, 65
2, 26609, Note_on_c, 2, 57, 0
2, 26638, Control_c, 2, 64, 0
2, 26664, Note_on_c, 2, 55, 53
2, 26671, Note_on_c, 2, 62, 0
2, 26704, Note_on_c, 2, 77, 0
2, 26713, Control_c, 2, 64, 127
2, 26746, Note_on_c, 2, 70, 0
2, 26746, Note_on_c, 2, 58, 43
2, 26767, Note_on_c, 2, 82, 0
2, 26792, Note_on_c, 2, 79, 41
2, 26809, Note_on_c, 2, 79, 0
2, 26830, Control_c, 2, 64, 0
2, 26839, Note_on_c, 2, 64, 45
2, 26839, Note_on_c, 2, 79, 47
2, 26850, Note_on_c, 2, 81, 52
2, 26855, Note_on_c, 2, 79, 0
2, 26859, Control_c, 2, 64, 127
2, 26870, Note_on_c, 2, 79, 45
2, 26876, Note_on_c, 2, 81, 0
2, 26884, Note_on_c, 2, 78, 45
2, 26885, Note_on_c, 2, 79, 0
2, 26905, Note_on_c, 2, 79, 55
2, 26914, Note_on_c, 2, 78, 0
2, 26926, Note_on_c, 2, 55, 0
2, 26930, Note_on_c, 2, 84, 63
2, 26934, Note_on_c, 2, 58, 0
2, 26943, Note_on_c, 2, 79, 0
2, 26997, Control_c, 2, 64, 0
2, 27009, Note_on_c, 2, 57, 45
2, 27018, Note_on_c, 2, 64, 0
2, 27050, Note_on_c, 2, 81, 55
2, 27088, Note_on_c, 2, 84, 0
2, 27088, Note_on_c, 2, 60, 45
2, 27088, Note_on_c, 2, 77, 72
2, 27100, Note_on_c, 2, 81, 0
2, 27117, Control_c, 2, 64, 127
2, 27172, Note_on_c, 2, 57, 0
2, 27172, Note_on_c, 2, 65, 43
2, 27247, Note_on_c, 2, 60, 0
2, 27251, Note_on_c, 2, 65, 0
2, 27251, Note_on_c, 2, 57, 53
2, 27268, Control_c, 2, 64, 0
2, 27342, Note_on_c, 2, 75, 41
2, 27359, Note_on_c, 2, 77, 0
2, 27418, Control_c, 2, 64, 127
2, 27426, Note_on_c, 2, 63, 38
2, 27426, Note_on_c, 2, 74, 42
2, 27438, Note_on_c, 2, 75, 0
2, 27442, Note_on_c, 2, 57, 0
2, 27447, Note_on_c, 2, 63, 0
2, 27514, Note_on_c, 2, 74, 0
2, 27517, Note_on_c, 2, 73, 42
2, 27534, Note_on_c, 2, 73, 0
2, 27601, Control_c, 2, 64, 0
2, 27618, Note_on_c, 2, 58, 40
2, 27618, Note_on_c, 2, 74, 40
2, 27618, Note_on_c, 2, 62, 37
2, 27718, Note_on_c, 2, 76, 48
2, 27739, Note_on_c, 2, 74, 0
2, 27751, Control_c, 2, 64, 127
2, 27755, Note_on_c, 2, 78, 40
2, 27759, Note_on_c, 2, 76, 0
2, 27788, Note_on_c, 2, 79, 53
2, 27806, Note_on_c, 2, 78, 0
2, 27822, Note_on_c, 2, 81, 42
2, 27830, Note_on_c, 2, 79, 0
2, 27859, Note_on_c, 2, 58, 0
2, 27859, Note_on_c, 2, 82, 40
2, 27864, Note_on_c, 2, 81, 0
2, 27869, Note_on_c, 2, 62, 0
2, 27892, Note_on_c, 2, 85, 31
2, 27897, Note_on_c, 2, 82, 0
2, 27905, Control_c, 2, 64, 0
2, 27930, Note_on_c, 2, 58, 54
2, 27930, Note_on_c, 2, 62, 55
2, 27930, Note_on_c, 2, 67, 47
2, 27930, Note_on_c, 2, 86, 62
2, 27963, Note_on_c, 2, 86, 0
2, 27964, Note_on_c, 2, 84, 54
2, 27965, Note_on_c, 2, 85, 0
2, 27972, Control_c, 2, 64, 127
2, 27988, Note_on_c, 2, 58, 0
2, 27989, Note_on_c, 2, 62, 0
2, 27992, Note_on_c, 2, 67, 0
2, 28001, Note_on_c, 2, 82, 66
2, 28017, Note_on_c, 2, 84, 0
2, 28039, Note_on_c, 2, 81, 59
2, 28047, Note_on_c, 2, 82, 0
2, 28072, Note_on_c, 2, 79, 55
2, 28084, Note_on_c, 2, 81, 0
2, 28102, Control_c, 2, 64, 0
2, 28105, Note_on_c, 2, 79, 0
2, 28105, Note_on_c, 2, 77, 48
2, 28134, Note_on_c, 2, 76, 55
2, 28147, Note_on_c, 2, 77, 0
2, 28168, Note_on_c, 2, 74, 65
2, 28172, Note_on_c, 2, 76, 0
2, 28184, Note_on_c, 2, 74, 0
2, 28201, Note_on_c, 2, 48, 52
2, 28201, Note_on_c, 2, 72, 79
2, 28226, Control_c, 2, 64, 127
2, 28284, Note_on_c, 2, 57, 46
2, 28363, Note_on_c, 2, 57, 0
2, 28368, Note_on_c, 2, 84, 47
2, 28368, Note_on_c, 2, 53, 24
2, 28443, Note_on_c, 2, 48, 0
2, 28447, Note_on_c, 2, 84, 0
2, 28448, Note_on_c, 2, 57, 35
2, 28472, Note_on_c, 2, 53, 0
2, 28518, Note_on_c, 2, 57, 0
2, 28526, Note_on_c, 2, 48, 39
2, 28555, Control_c, 2, 64, 0
2, 28564, Note_on_c, 2, 81, 54
2, 28576, Note_on_c, 2, 72, 0
2, 28588, Control_c, 2, 64, 127
2, 28606, Note_on_c, 2, 57, 41
2, 28638, Note_on_c, 2, 77, 49
2, 28643, Note_on_c, 2, 81, 0
2, 28668, Note_on_c, 2, 72, 48
2, 28680, Note_on_c, 2, 57, 0
2, 28680, Note_on_c, 2, 53, 40
2, 28693, Note_on_c, 2, 77, 0
2, 28705, Note_on_c, 2, 72, 0
2, 28705, Note_on_c, 2, 69, 53
2, 28735, Note_on_c, 2, 77, 60
2, 28738, Note_on_c, 2, 69, 0
2, 28759, Note_on_c, 2, 77, 0
2, 28772, Note_on_c, 2, 57, 45
2, 28780, Note_on_c, 2, 53, 0
2, 28781, Note_on_c, 2, 48, 0
2, 28822, Note_on_c, 2, 65, 57
2, 28864, Note_on_c, 2, 48, 45
2, 28864, Note_on_c, 2, 67, 46
2, 28868, Note_on_c, 2, 57, 0
2, 28884, Note_on_c, 2, 65, 0
2, 28901, Control_c, 2, 64, 0
2, 28918, Note_on_c, 2, 69, 50
2, 28922, Note_on_c, 2, 67, 0
2, 28938, Note_on_c, 2, 69, 0
2, 28939, Note_on_c, 2, 67, 49
2, 28951, Control_c, 2, 64, 127
2, 28956, Note_on_c, 2, 67, 0
2, 28960, Note_on_c, 2, 69, 53
2, 28976, Note_on_c, 2, 69, 0
2, 28976, Note_on_c, 2, 58, 45
2, 28976, Note_on_c, 2, 67, 47
2, 28985, Note_on_c, 2, 67, 0
2, 28993, Note_on_c, 2, 69, 47
2, 29002, Note_on_c, 2, 67, 50
2, 29005, Note_on_c, 2, 69, 0
2, 29014, Note_on_c, 2, 67, 0
2, 29018, Note_on_c, 2, 69, 41
2, 29026, Note_on_c, 2, 69, 0
2, 29031, Note_on_c, 2, 67, 52
2, 29043, Note_on_c, 2, 67, 0
2, 29048, Note_on_c, 2, 55, 39
2, 29048, Note_on_c, 2, 69, 47
2, 29060, Note_on_c, 2, 69, 0
2, 29060, Note_on_c, 2, 67, 47
2, 29063, Note_on_c, 2, 58, 0
2, 29072, Note_on_c, 2, 67, 0
2, 29072, Note_on_c, 2, 69, 41
2, 29085, Note_on_c, 2, 69, 0
2, 29085, Note_on_c, 2, 67, 47
2, 29102, Note_on_c, 2, 67, 0
2, 29102, Note_on_c, 2, 69, 47
2, 29118, Note_on_c, 2, 69, 0
2, 29118, Note_on_c, 2, 58, 39
2, 29118, Note_on_c, 2, 67, 46
2, 29122, Note_on_c, 2, 48, 0
2, 29130, Note_on_c, 2, 67, 0
2, 29135, Note_on_c, 2, 55, 0
2, 29135, Note_on_c, 2, 69, 47
2, 29143, Note_on_c, 2, 69, 0
2, 29143, Note_on_c, 2, 67, 45
2, 29155, Note_on_c, 2, 67, 0
2, 29160, Note_on_c, 2, 69, 51
2, 29168, Note_on_c, 2, 58, 0
2, 29172, Note_on_c, 2, 67, 48
2, 29176, Note_on_c, 2, 69, 0
2, 29177, Note_on_c, 2, 48, 45
2, 29185, Note_on_c, 2, 67, 0
2, 29189, Note_on_c, 2, 69, 47
2, 29197, Note_on_c, 2, 67, 48
2, 29202, Note_on_c, 2, 69, 0
2, 29206, Control_c, 2, 64, 0
2, 29214, Note_on_c, 2, 67, 0
2, 29214, Note_on_c, 2, 69, 53
2, 29231, Note_on_c, 2, 69, 0
2, 29231, Note_on_c, 2, 67, 47
2, 29239, Note_on_c, 2, 67, 0
2, 29239, Note_on_c, 2, 69, 40
2, 29252, Note_on_c, 2, 67, 53
2, 29255, Note_on_c, 2, 69, 0
2, 29255, Note_on_c, 2, 58, 45
2, 29256, Control_c, 2, 64, 127
2, 29268, Note_on_c, 2, 67, 0
2, 29268, Note_on_c, 2, 69, 52
2, 29280, Note_on_c, 2, 67, 55
2, 29285, Note_on_c, 2, 69, 0
2, 29297, Note_on_c, 2, 67, 0
2, 29297, Note_on_c, 2, 69, 45
2, 29305, Note_on_c, 2, 67, 46
2, 29310, Note_on_c, 2, 69, 0
2, 29322, Note_on_c, 2, 67, 0
2, 29322, Note_on_c, 2, 69, 46
2, 29338, Note_on_c, 2, 69, 0
2, 29339, Note_on_c, 2, 67, 41
2, 29343, Note_on_c, 2, 58, 0
2, 29344, Note_on_c, 2, 55, 40
2, 29347, Note_on_c, 2, 69, 45
2, 29352, Note_on_c, 2, 67, 0
2, 29364, Note_on_c, 2, 67, 47
2, 29372, Note_on_c, 2, 69, 0
2, 29435, Note_on_c, 2, 67, 0
2, 29439, Note_on_c, 2, 55, 0
2, 29439, Note_on_c, 2, 48, 0
2, 29439, Note_on_c, 2, 58, 40
2, 29439, Note_on_c, 2, 65, 43
2, 29480, Note_on_c, 2, 58, 0
2, 29480, Note_on_c, 2, 67, 39
2, 29484, Note_on_c, 2, 65, 0
2, 29530, Note_on_c, 2, 67, 0
2, 29530, Note_on_c, 2, 53, 35
2, 29530, Note_on_c, 2, 65, 45
2, 29548, Control_c, 2, 64, 0
2, 29614, Control_c, 2, 64, 127
2, 29626, Note_on_c, 2, 60, 33
2, 29639, Note_on_c, 2, 65, 0
2, 29705, Note_on_c, 2, 53, 0
2, 29710, Note_on_c, 2, 65, 36
2, 29714, Note_on_c, 2, 60, 0
2, 29756, Note_on_c, 2, 77, 30
2, 29772, Note_on_c, 2, 77, 0
2, 29794, Note_on_c, 2, 63, 34
2, 29794, Note_on_c, 2, 77, 47
2, 29801, Note_on_c, 2, 65, 0
2, 29810, Note_on_c, 2, 77, 0
2, 29814, Control_c, 2, 64, 0
2, 29818, Note_on_c, 2, 79, 34
2, 29830, Note_on_c, 2, 77, 46
2, 29839, Note_on_c, 2, 79, 0
2, 29839, Control_c, 2, 64, 127
2, 29848, Note_on_c, 2, 77, 0
2, 29848, Note_on_c, 2, 76, 52
2, 29872, Note_on_c, 2, 77, 42
2, 29885, Note_on_c, 2, 76, 0
2, 29889, Note_on_c, 2, 62, 48
2, 29889, Note_on_c, 2, 84, 47
2, 29890, Note_on_c, 2, 63, 0
2, 29893, Note_on_c, 2, 77, 0
2, 29910, Control_c, 2, 64, 0
2, 29972, Control_c, 2, 64, 127
2, 29985, Note_on_c, 2, 82, 46
2, 29998, Note_on_c, 2, 84, 0
2, 30026, Note_on_c, 2, 82, 0
2, 30068, Note_on_c, 2, 81, 50
2, 30068, Note_on_c, 2, 58, 33
2, 30071, Note_on_c, 2, 62, 0
2, 30081, Control_c, 2, 64, 0
2, 30118, Control_c, 2, 64, 127
2, 30150, Note_on_c, 2, 79, 55
2, 30168, Note_on_c, 2, 81, 0
2, 30193, Note_on_c, 2, 58, 0
2, 30234, Note_on_c, 2, 79, 0
2, 30239, Note_on_c, 2, 57, 46
2, 30240, Note_on_c, 2, 79, 50
2, 30260, Control_c, 2, 64, 0
2, 30331, Note_on_c, 2, 77, 50
2, 30331, Note_on_c, 2, 60, 40
2, 30339, Control_c, 2, 64, 127
2, 30340, Note_on_c, 2, 79, 0
2, 30344, Note_on_c, 2, 57, 0
2, 30406, Note_on_c, 2, 60, 0
2, 30406, Note_on_c, 2, 65, 45
2, 30431, Note_on_c, 2, 77, 0
2, 30456, Note_on_c, 2, 77, 53
2, 30472, Note_on_c, 2, 77, 0
2, 30493, Note_on_c, 2, 63, 40
2, 30498, Note_on_c, 2, 65, 0
2, 30498, Note_on_c, 2, 77, 36
2, 30510, Note_on_c, 2, 77, 0
2, 30514, Note_on_c, 2, 79, 41
2, 30531, Note_on_c, 2, 77, 56
2, 30539, Note_on_c, 2, 79, 0
2, 30548, Note_on_c, 2, 76, 49
2, 30551, Note_on_c, 2, 77, 0
2, 30572, Note_on_c, 2, 77, 48
2, 30581, Note_on_c, 2, 76, 0
2, 30585, Control_c, 2, 64, 0
2, 30589, Note_on_c, 2, 63, 0
2, 30589, Note_on_c, 2, 84, 57
2, 30594, Note_on_c, 2, 77, 0
2, 30594, Note_on_c, 2, 62, 54
2, 30648, Control_c, 2, 64, 127
2, 30681, Note_on_c, 2, 82, 49
2, 30693, Note_on_c, 2, 84, 0
2, 30714, Note_on_c, 2, 82, 0
2, 30722, Note_on_c, 2, 62, 0
2, 30764, Control_c, 2, 64, 0
2, 30769, Note_on_c, 2, 81, 54
2, 30769, Note_on_c, 2, 58, 45
2, 30798, Control_c, 2, 64, 127
2, 30848, Note_on_c, 2, 58, 0
2, 30864, Note_on_c, 2, 81, 0
2, 30864, Note_on_c, 2, 79, 52
2, 30890, Note_on_c, 2, 79, 0
2, 30952, Control_c, 2, 64, 0
2, 30953, Note_on_c, 2, 53, 28
2, 30953, Note_on_c, 2, 57, 41
2, 30953, Note_on_c, 2, 79, 45
2, 30981, Control_c, 2, 64, 127
2, 30999, Note_on_c, 2, 53, 0
2, 31003, Note_on_c, 2, 57, 0
2, 31043, Note_on_c, 2, 79, 0
2, 31048, Note_on_c, 2, 55, 39
2, 31048, Note_on_c, 2, 58, 47
2, 31048, Note_on_c, 2, 77, 42
2, 31073, Note_on_c, 2, 55, 0
2, 31077, Note_on_c, 2, 58, 0
2, 31085, Note_on_c, 2, 77, 0
2, 31127, Control_c, 2, 64, 0
2, 31128, Note_on_c, 2, 57, 57
2, 31128, Note_on_c, 2, 60, 47
2, 31128, Note_on_c, 2, 77, 54
2, 31152, Control_c, 2, 64, 127
2, 31169, Note_on_c, 2, 57, 0
2, 31173, Note_on_c, 2, 60, 0
2, 31206, Note_on_c, 2, 62, 51
2, 31206, Note_on_c, 2, 58, 66
2, 31222, Note_on_c, 2, 62, 0
2, 31223, Note_on_c, 2, 58, 0
2, 31239, Note_on_c, 2, 77, 0
2, 31290, Note_on_c, 2, 60, 57
2, 31290, Note_on_c, 2, 77, 49
2, 31290, Note_on_c, 2, 63, 49
2, 31294, Control_c, 2, 64, 0
2, 31315, Control_c, 2, 64, 127
2, 31323, Note_on_c, 2, 60, 0
2, 31331, Note_on_c, 2, 63, 0
2, 31381, Note_on_c, 2, 59, 48
2, 31381, Note_on_c, 2, 62, 42
2, 31402, Note_on_c, 2, 62, 0
2, 31402, Note_on_c, 2, 59, 0
2, 31410, Note_on_c, 2, 77, 0
2, 31482, Note_on_c, 2, 60, 46
2, 31482, Note_on_c, 2, 63, 41
2, 31482, Note_on_c, 2, 77, 45
2, 31489, Control_c, 2, 64, 0
2, 31514, Control_c, 2, 64, 127
2, 31535, Note_on_c, 2, 60, 0
2, 31541, Note_on_c, 2, 63, 0
2, 31603, Note_on_c, 2, 59, 43
2, 31603, Note_on_c, 2, 62, 42
2, 31627, Note_on_c, 2, 59, 0
2, 31631, Note_on_c, 2, 62, 0
2, 31635, Note_on_c, 2, 77, 0
2, 31748, Note_on_c, 2, 63, 39
2, 31748, Note_on_c, 2, 77, 45
2, 31748, Note_on_c, 2, 60, 51
2, 31760, Control_c, 2, 64, 0
2, 31840, Control_c, 2, 64, 127
2, 32031, Note_on_c, 2, 63, 0
2, 32040, Note_on_c, 2, 60, 0
2, 32048, Note_on_c, 2, 77, 0
2, 32315, Note_on_c, 2, 76, 31
2, 32352, Control_c, 2, 64, 0
2, 32369, Note_on_c, 2, 77, 48
2, 32377, Note_on_c, 2, 76, 0
2, 32423, Note_on_c, 2, 79, 35
2, 32432, Note_on_c, 2, 77, 0
2, 32469, Note_on_c, 2, 77, 47
2, 32477, Note_on_c, 2, 79, 0
2, 32490, Note_on_c, 2, 77, 0
2, 32523, Note_on_c, 2, 77, 42
2, 32586, Note_on_c, 2, 75, 36
2, 32594, Note_on_c, 2, 77, 0
2, 32669, Note_on_c, 2, 74, 46
2, 32681, Note_on_c, 2, 75, 0
2, 32802, Note_on_c, 2, 72, 40
2, 32811, Note_on_c, 2, 74, 0
2, 33240, Note_on_c, 2, 58, 30
2, 33241, Note_on_c, 2, 70, 37
2, 33335, Note_on_c, 2, 72, 0
2, 33344, Note_on_c, 2, 65, 28
2, 33369, Note_on_c, 2, 72, 47
2, 33373, Note_on_c, 2, 70, 0
2, 33390, Control_c, 2, 64, 127
2, 33394, Note_on_c, 2, 70, 46
2, 33402, Note_on_c, 2, 72, 0
2, 33411, Note_on_c, 2, 70, 0
2, 33411, Note_on_c, 2, 69, 45
2, 33411, Control_c, 2, 64, 0
2, 33427, Control_c, 2, 64, 127
2, 33436, Note_on_c, 2, 70, 40
2, 33436, Note_on_c, 2, 62, 40
2, 33444, Note_on_c, 2, 65, 0
2, 33452, Note_on_c, 2, 69, 0
2, 33519, Note_on_c, 2, 58, 0
2, 33523, Note_on_c, 2, 65, 36
2, 33523, Note_on_c, 2, 72, 53
2, 33528, Note_on_c, 2, 70, 0
2, 33531, Note_on_c, 2, 62, 0
2, 33540, Note_on_c, 2, 72, 0
2, 33552, Note_on_c, 2, 65, 0
2, 33606, Control_c, 2, 64, 0
2, 33611, Note_on_c, 2, 58, 39
2, 33611, Note_on_c, 2, 74, 43
2, 33720, Note_on_c, 2, 65, 32
2, 33740, Note_on_c, 2, 74, 0
2, 33740, Note_on_c, 2, 75, 46
2, 33761, Note_on_c, 2, 74, 45
2, 33777, Note_on_c, 2, 75, 0
2, 33786, Note_on_c, 2, 74, 0
2, 33786, Note_on_c, 2, 72, 45
2, 33794, Control_c, 2, 64, 127
2, 33820, Note_on_c, 2, 74, 49
2, 33820, Note_on_c, 2, 62, 40
2, 33823, Note_on_c, 2, 65, 0
2, 33828, Note_on_c, 2, 72, 0
2, 33915, Note_on_c, 2, 65, 29
2, 33915, Note_on_c, 2, 75, 40
2, 33923, Note_on_c, 2, 62, 0
2, 33923, Note_on_c, 2, 74, 0
2, 33924, Note_on_c, 2, 58, 0
2, 33953, Note_on_c, 2, 75, 0
2, 33999, Note_on_c, 2, 57, 40
2, 33999, Note_on_c, 2, 76, 49
2, 34002, Note_on_c, 2, 65, 0
2, 34019, Control_c, 2, 64, 0
2, 34094, Note_on_c, 2, 65, 37
2, 34156, Control_c, 2, 64, 127
2, 34182, Note_on_c, 2, 65, 0
2, 34186, Note_on_c, 2, 60, 24
2, 34261, Note_on_c, 2, 57, 0
2, 34265, Note_on_c, 2, 65, 33
2, 34266, Note_on_c, 2, 77, 47
2, 34269, Note_on_c, 2, 76, 0
2, 34340, Note_on_c, 2, 60, 0
2, 34353, Note_on_c, 2, 65, 0
2, 34353, Note_on_c, 2, 72, 34
2, 34354, Note_on_c, 2, 57, 20
2, 34382, Control_c, 2, 64, 0
2, 34444, Note_on_c, 2, 65, 28
2, 34473, Control_c, 2, 64, 127
2, 34498, Note_on_c, 2, 77, 0
2, 34528, Note_on_c, 2, 60, 35
2, 34532, Note_on_c, 2, 65, 0
2, 34620, Note_on_c, 2, 65, 29
2, 34623, Note_on_c, 2, 57, 0
2, 34624, Note_on_c, 2, 60, 0
2, 34661, Note_on_c, 2, 65, 0
2, 34678, Note_on_c, 2, 72, 0
2, 34720, Note_on_c, 2, 55, 26
2, 34720, Note_on_c, 2, 75, 36
2, 34749, Control_c, 2, 64, 0
2, 34828, Note_on_c, 2, 63, 31
2, 34853, Note_on_c, 2, 77, 54
2, 34856, Note_on_c, 2, 75, 0
2, 34878, Note_on_c, 2, 75, 30
2, 34886, Note_on_c, 2, 77, 0
2, 34886, Control_c, 2, 64, 127
2, 34898, Note_on_c, 2, 75, 0
2, 34899, Note_on_c, 2, 74, 51
2, 34928, Note_on_c, 2, 63, 0
2, 34928, Note_on_c, 2, 58, 36
2, 34928, Note_on_c, 2, 75, 54
2, 34944, Note_on_c, 2, 74, 0
2, 35007, Note_on_c, 2, 55, 0
2, 35011, Note_on_c, 2, 58, 0
2, 35011, Note_on_c, 2, 63, 37
2, 35012, Note_on_c, 2, 77, 56
2, 35015, Note_on_c, 2, 75, 0
2, 35028, Note_on_c, 2, 63, 0
2, 35032, Note_on_c, 2, 77, 0
2, 35103, Note_on_c, 2, 51, 42
2, 35103, Note_on_c, 2, 79, 52
2, 35124, Control_c, 2, 64, 0
2, 35191, Note_on_c, 2, 58, 39
2, 35211, Note_on_c, 2, 81, 50
2, 35215, Note_on_c, 2, 79, 0
2, 35232, Note_on_c, 2, 79, 39
2, 35248, Note_on_c, 2, 81, 0
2, 35248, Control_c, 2, 64, 127
2, 35253, Note_on_c, 2, 79, 0
2, 35257, Note_on_c, 2, 77, 63
2, 35282, Note_on_c, 2, 58, 0
2, 35282, Note_on_c, 2, 55, 41
2, 35282, Note_on_c, 2, 79, 51
2, 35294, Note_on_c, 2, 77, 0
2, 35365, Note_on_c, 2, 58, 40
2, 35366, Note_on_c, 2, 51, 0
2, 35366, Note_on_c, 2, 55, 0
2, 35366, Note_on_c, 2, 81, 52
2, 35373, Note_on_c, 2, 79, 0
2, 35403, Note_on_c, 2, 81, 0
2, 35449, Note_on_c, 2, 58, 0
2, 35453, Note_on_c, 2, 50, 42
2, 35453, Note_on_c, 2, 81, 53
2, 35457, Control_c, 2, 64, 0
2, 35557, Note_on_c, 2, 58, 37
2, 35636, Note_on_c, 2, 53, 40
2, 35640, Note_on_c, 2, 58, 0
2, 35653, Control_c, 2, 64, 127
2, 35704, Note_on_c, 2, 50, 0
2, 35712, Note_on_c, 2, 58, 34
2, 35712, Note_on_c, 2, 82, 46
2, 35724, Note_on_c, 2, 81, 0
2, 35724, Note_on_c, 2, 53, 0
2, 35786, Note_on_c, 2, 58, 0
2, 35790, Note_on_c, 2, 82, 0
2, 35790, Note_on_c, 2, 50, 48
2, 35790, Note_on_c, 2, 77, 56
2, 35832, Control_c, 2, 64, 0
2, 35870, Note_on_c, 2, 58, 45
2, 35895, Control_c, 2, 64, 127
2, 35945, Note_on_c, 2, 53, 45
2, 35949, Note_on_c, 2, 58, 0
2, 36014, Note_on_c, 2, 50, 0
2, 36020, Note_on_c, 2, 58, 39
2, 36024, Note_on_c, 2, 53, 0
2, 36099, Note_on_c, 2, 51, 40
2, 36099, Note_on_c, 2, 78, 44
2, 36107, Note_on_c, 2, 58, 0
2, 36112, Note_on_c, 2, 77, 0
2, 36132, Control_c, 2, 64, 0
2, 36195, Note_on_c, 2, 51, 0
2, 36196, Note_on_c, 2, 55, 40
2, 36196, Note_on_c, 2, 79, 54
2, 36199, Control_c, 2, 64, 127
2, 36208, Note_on_c, 2, 78, 0
2, 36267, Note_on_c, 2, 55, 0
2, 36270, Note_on_c, 2, 51, 39
2, 36282, Note_on_c, 2, 79, 0
2, 36344, Note_on_c, 2, 51, 0
2, 36345, Note_on_c, 2, 59, 40
2, 36345, Note_on_c, 2, 80, 54
2, 36382, Note_on_c, 2, 80, 0
2, 36382, Note_on_c, 2, 79, 38
2, 36420, Note_on_c, 2, 59, 0
2, 36424, Note_on_c, 2, 51, 43
2, 36424, Note_on_c, 2, 77, 55
2, 36432, Note_on_c, 2, 79, 0
2, 36495, Control_c, 2, 64, 0
2, 36495, Note_on_c, 2, 60, 47
2, 36495, Note_on_c, 2, 75, 55
2, 36503, Note_on_c, 2, 77, 0
2, 36503, Note_on_c, 2, 51, 0
2, 36516, Control_c, 2, 64, 127
2, 36566, Note_on_c, 2, 60, 0
2, 36570, Note_on_c, 2, 51, 44
2, 36570, Note_on_c, 2, 74, 55
2, 36582, Note_on_c, 2, 75, 0
2, 36636, Note_on_c, 2, 51, 0
2, 36640, Note_on_c, 2, 74, 0
2, 36641, Note_on_c, 2, 63, 54
2, 36641, Note_on_c, 2, 72, 65
2, 36666, Note_on_c, 2, 63, 0
2, 36687, Note_on_c, 2, 72, 0
2, 36712, Note_on_c, 2, 50, 51
2, 36712, Note_on_c, 2, 79, 60
2, 36732, Control_c, 2, 64, 0
2, 36791, Note_on_c, 2, 77, 59
2, 36795, Note_on_c, 2, 53, 47
2, 36799, Note_on_c, 2, 79, 0
2, 36799, Note_on_c, 2, 50, 0
2, 36799, Control_c, 2, 64, 127
2, 36866, Note_on_c, 2, 50, 37
2, 36870, Note_on_c, 2, 53, 0
2, 36937, Note_on_c, 2, 79, 46
2, 36937, Note_on_c, 2, 57, 45
2, 36941, Note_on_c, 2, 50, 0
2, 36945, Note_on_c, 2, 77, 0
2, 36974, Note_on_c, 2, 77, 46
2, 36986, Note_on_c, 2, 79, 0
2, 36991, Note_on_c, 2, 77, 0
2, 37008, Note_on_c, 2, 50, 42
2, 37008, Note_on_c, 2, 77, 50
2, 37012, Note_on_c, 2, 57, 0
2, 37041, Control_c, 2, 64, 0
2, 37049, Note_on_c, 2, 75, 46
2, 37062, Note_on_c, 2, 77, 0
2, 37070, Note_on_c, 2, 75, 0
2, 37086, Note_on_c, 2, 58, 45
2, 37087, Note_on_c, 2, 75, 47
2, 37087, Control_c, 2, 64, 127
2, 37095, Note_on_c, 2, 50, 0
2, 37120, Note_on_c, 2, 74, 51
2, 37137, Note_on_c, 2, 75, 0
2, 37141, Note_on_c, 2, 74, 0
2, 37153, Note_on_c, 2, 58, 0
2, 37166, Note_on_c, 2, 50, 40
2, 37166, Note_on_c, 2, 74, 45
2, 37204, Control_c, 2, 64, 0
2, 37212, Note_on_c, 2, 72, 47
2, 37220, Note_on_c, 2, 74, 0
2, 37232, Note_on_c, 2, 72, 0
2, 37253, Note_on_c, 2, 62, 40
2, 37253, Note_on_c, 2, 72, 47
2, 37258, Control_c, 2, 64, 127
2, 37266, Note_on_c, 2, 50, 0
2, 37303, Note_on_c, 2, 70, 40
2, 37348, Note_on_c, 2, 62, 0
2, 37354, Note_on_c, 2, 70, 0
2, 37354, Note_on_c, 2, 72, 0
2, 37357, Note_on_c, 2, 57, 43
2, 37357, Note_on_c, 2, 77, 51
2, 37374, Control_c, 2, 64, 0
2, 37412, Note_on_c, 2, 76, 45
2, 37424, Note_on_c, 2, 77, 0
2, 37458, Note_on_c, 2, 76, 0
2, 37458, Note_on_c, 2, 65, 35
2, 37458, Note_on_c, 2, 75, 46
2, 37486, Control_c, 2, 64, 127
2, 37545, Note_on_c, 2, 60, 34
2, 37554, Note_on_c, 2, 65, 0
2, 37636, Note_on_c, 2, 57, 0
2, 37637, Note_on_c, 2, 65, 26
2, 37637, Note_on_c, 2, 72, 39
2, 37641, Note_on_c, 2, 60, 0
2, 37645, Note_on_c, 2, 75, 0
2, 37728, Note_on_c, 2, 72, 0
2, 37729, Note_on_c, 2, 65, 0
2, 37732, Note_on_c, 2, 58, 29
2, 37732, Note_on_c, 2, 75, 34
2, 37754, Control_c, 2, 64, 0
2, 37766, Note_on_c, 2, 73, 38
2, 37787, Note_on_c, 2, 75, 0
2, 37808, Note_on_c, 2, 65, 36
2, 37808, Note_on_c, 2, 74, 48
2, 37816, Note_on_c, 2, 73, 0
2, 37883, Control_c, 2, 64, 127
2, 37895, Note_on_c, 2, 62, 31
2, 37908, Note_on_c, 2, 65, 0
2, 37975, Note_on_c, 2, 62, 0
2, 37975, Note_on_c, 2, 65, 26
2, 37975, Note_on_c, 2, 70, 37
2, 37979, Note_on_c, 2, 74, 0
2, 37986, Note_on_c, 2, 58, 0
2, 37995, Note_on_c, 2, 65, 0
2, 38062, Note_on_c, 2, 53, 45
2, 38062, Note_on_c, 2, 74, 47
2, 38070, Note_on_c, 2, 70, 0
2, 38074, Control_c, 2, 64, 0
2, 38149, Note_on_c, 2, 62, 40
2, 38212, Control_c, 2, 64, 127
2, 38237, Note_on_c, 2, 58, 39
2, 38245, Note_on_c, 2, 62, 0
2, 38329, Note_on_c, 2, 74, 0
2, 38332, Note_on_c, 2, 62, 36
2, 38332, Note_on_c, 2, 75, 41
2, 38341, Note_on_c, 2, 58, 0
2, 38365, Note_on_c, 2, 62, 0
2, 38366, Note_on_c, 2, 53, 0
2, 38391, Note_on_c, 2, 74, 42
2, 38396, Note_on_c, 2, 75, 0
2, 38462, Note_on_c, 2, 74, 0
2, 38470, Note_on_c, 2, 72, 39
2, 38470, Note_on_c, 2, 60, 34
2, 38470, Note_on_c, 2, 57, 40
2, 38470, Note_on_c, 2, 53, 26
2, 38474, Control_c, 2, 64, 0
2, 38546, Note_on_c, 2, 77, 46
2, 38566, Note_on_c, 2, 60, 0
2, 38566, Note_on_c, 2, 72, 0
2, 38594, Note_on_c, 2, 53, 0
2, 38600, Note_on_c, 2, 57, 0
2, 38612, Note_on_c, 2, 76, 45
2, 38628, Note_on_c, 2, 77, 0
2, 38678, Note_on_c, 2, 75, 35
2, 38687, Note_on_c, 2, 76, 0
2, 38745, Note_on_c, 2, 74, 45
2, 38753, Note_on_c, 2, 75, 0
2, 38829, Note_on_c, 2, 75, 40
2, 38837, Note_on_c, 2, 74, 0
2, 38912, Note_on_c, 2, 72, 36
2, 38924, Note_on_c, 2, 75, 0
2, 39033, Note_on_c, 2, 72, 0
2, 39033, Note_on_c, 2, 58, 31
2, 39033, Note_on_c, 2, 70, 40
2, 39133, Note_on_c, 2, 65, 33
2, 39146, Control_c, 2, 64, 127
2, 39158, Note_on_c, 2, 70, 0
2, 39158, Note_on_c, 2, 72, 46
2, 39183, Note_on_c, 2, 70, 38
2, 39196, Note_on_c, 2, 72, 0
2, 39204, Note_on_c, 2, 69, 39
2, 39208, Note_on_c, 2, 70, 0
2, 39229, Note_on_c, 2, 65, 0
2, 39230, Note_on_c, 2, 61, 26
2, 39230, Note_on_c, 2, 70, 41
2, 39242, Control_c, 2, 64, 0
2, 39250, Note_on_c, 2, 69, 0
2, 39279, Control_c, 2, 64, 127
2, 39312, Note_on_c, 2, 65, 39
2, 39312, Note_on_c, 2, 72, 52
2, 39320, Note_on_c, 2, 58, 0
2, 39320, Note_on_c, 2, 70, 0
2, 39325, Note_on_c, 2, 61, 0
2, 39333, Note_on_c, 2, 72, 0
2, 39346, Note_on_c, 2, 65, 0
2, 39400, Note_on_c, 2, 58, 42
2, 39400, Note_on_c, 2, 73, 48
2, 39425, Control_c, 2, 64, 0
2, 39496, Note_on_c, 2, 65, 43
2, 39516, Note_on_c, 2, 73, 0
2, 39516, Note_on_c, 2, 75, 44
2, 39538, Note_on_c, 2, 73, 54
2, 39550, Note_on_c, 2, 75, 0
2, 39554, Note_on_c, 2, 73, 0
2, 39554, Control_c, 2, 64, 127
2, 39558, Note_on_c, 2, 72, 59
2, 39579, Note_on_c, 2, 65, 0
2, 39579, Note_on_c, 2, 61, 37
2, 39579, Note_on_c, 2, 73, 63
2, 39595, Note_on_c, 2, 72, 0
2, 39658, Note_on_c, 2, 58, 0
2, 39658, Note_on_c, 2, 75, 49
2, 39662, Note_on_c, 2, 65, 52
2, 39671, Note_on_c, 2, 73, 0
2, 39733, Note_on_c, 2, 61, 0
2, 39737, Note_on_c, 2, 65, 0
2, 39737, Note_on_c, 2, 76, 57
2, 39737, Note_on_c, 2, 56, 47
2, 39745, Note_on_c, 2, 75, 0
2, 39762, Control_c, 2, 64, 0
2, 39829, Note_on_c, 2, 65, 57
2, 39904, Note_on_c, 2, 60, 39
2, 39916, Note_on_c, 2, 65, 0
2, 39925, Control_c, 2, 64, 127
2, 39983, Note_on_c, 2, 77, 55
2, 39984, Note_on_c, 2, 65, 39
2, 39987, Note_on_c, 2, 56, 0
2, 39992, Note_on_c, 2, 76, 0
2, 40000, Note_on_c, 2, 60, 0
2, 40058, Note_on_c, 2, 65, 0
2, 40058, Note_on_c, 2, 72, 52
2, 40058, Note_on_c, 2, 56, 55
2, 40066, Note_on_c, 2, 77, 0
2, 40096, Control_c, 2, 64, 0
2, 40138, Control_c, 2, 64, 127
2, 40146, Note_on_c, 2, 65, 57
2, 40216, Note_on_c, 2, 72, 0
2, 40225, Note_on_c, 2, 65, 0
2, 40229, Note_on_c, 2, 60, 40
2, 40308, Note_on_c, 2, 65, 40
2, 40321, Note_on_c, 2, 60, 0
2, 40321, Note_on_c, 2, 56, 0
2, 40329, Note_on_c, 2, 65, 0
2, 40388, Note_on_c, 2, 63, 63
2, 40388, Note_on_c, 2, 54, 56
2, 40421, Control_c, 2, 64, 0
2, 40479, Note_on_c, 2, 58, 51
2, 40480, Control_c, 2, 64, 127
2, 40484, Note_on_c, 2, 54, 0
2, 40563, Note_on_c, 2, 54, 48
2, 40575, Note_on_c, 2, 58, 0
2, 40583, Note_on_c, 2, 63, 0
2, 40596, Note_on_c, 2, 65, 45
2, 40616, Note_on_c, 2, 63, 45
2, 40634, Note_on_c, 2, 65, 0
2, 40654, Note_on_c, 2, 54, 0
2, 40654, Note_on_c, 2, 62, 59
2, 40658, Note_on_c, 2, 63, 0
2, 40688, Note_on_c, 2, 58, 53
2, 40688, Note_on_c, 2, 63, 53
2, 40699, Note_on_c, 2, 62, 0
2, 40717, Note_on_c, 2, 65, 31
2, 40729, Note_on_c, 2, 63, 0
2, 40740, Note_on_c, 2, 66, 50
2, 40746, Note_on_c, 2, 65, 0
2, 40760, Note_on_c, 2, 51, 46
2, 40768, Note_on_c, 2, 66, 0
2, 40775, Note_on_c, 2, 67, 55
2, 40788, Control_c, 2, 64, 0
2, 40792, Note_on_c, 2, 58, 0
2, 40800, Note_on_c, 2, 68, 65
2, 40804, Note_on_c, 2, 67, 0
2, 40817, Control_c, 2, 64, 127
2, 40825, Note_on_c, 2, 68, 0
2, 40833, Note_on_c, 2, 58, 50
2, 40833, Note_on_c, 2, 69, 54
2, 40847, Note_on_c, 2, 51, 0
2, 40858, Note_on_c, 2, 69, 0
2, 40862, Note_on_c, 2, 70, 62
2, 40879, Note_on_c, 2, 70, 0
2, 40884, Note_on_c, 2, 71, 53
2, 40908, Note_on_c, 2, 71, 0
2, 40909, Note_on_c, 2, 54, 35
2, 40909, Note_on_c, 2, 72, 48
2, 40921, Note_on_c, 2, 58, 0
2, 40925, Note_on_c, 2, 73, 62
2, 40929, Note_on_c, 2, 72, 0
2, 40937, Note_on_c, 2, 73, 0
2, 40942, Note_on_c, 2, 74, 46
2, 40963, Note_on_c, 2, 74, 0
2, 40963, Note_on_c, 2, 75, 62
2, 40980, Note_on_c, 2, 75, 0
2, 40988, Note_on_c, 2, 54, 0
2, 40988, Note_on_c, 2, 58, 42
2, 40988, Note_on_c, 2, 76, 53
2, 41008, Note_on_c, 2, 77, 46
2, 41012, Note_on_c, 2, 76, 0
2, 41021, Note_on_c, 2, 78, 52
2, 41029, Note_on_c, 2, 77, 0
2, 41041, Note_on_c, 2, 78, 0
2, 41046, Note_on_c, 2, 79, 52
2, 41065, Note_on_c, 2, 80, 55
2, 41067, Note_on_c, 2, 79, 0
2, 41089, Note_on_c, 2, 80, 0
2, 41092, Note_on_c, 2, 58, 0
2, 41096, Note_on_c, 2, 50, 49
2, 41096, Note_on_c, 2, 81, 68
2, 41129, Control_c, 2, 64, 0
2, 41175, Note_on_c, 2, 58, 42
2, 41196, Note_on_c, 2, 81, 0
2, 41196, Note_on_c, 2, 82, 53
2, 41221, Note_on_c, 2, 81, 37
2, 41225, Note_on_c, 2, 82, 0
2, 41229, Note_on_c, 2, 81, 0
2, 41229, Note_on_c, 2, 79, 68
2, 41234, Control_c, 2, 64, 127
2, 41250, Note_on_c, 2, 53, 49
2, 41254, Note_on_c, 2, 58, 0
2, 41254, Note_on_c, 2, 81, 56
2, 41262, Note_on_c, 2, 79, 0
2, 41334, Note_on_c, 2, 58, 45
2, 41334, Note_on_c, 2, 82, 59
2, 41337, Note_on_c, 2, 50, 0
2, 41342, Note_on_c, 2, 81, 0
2, 41409, Note_on_c, 2, 58, 0
2, 41417, Note_on_c, 2, 53, 0
2, 41417, Note_on_c, 2, 82, 0
2, 41417, Note_on_c, 2, 49, 46
2, 41417, Note_on_c, 2, 77, 56
2, 41446, Control_c, 2, 64, 0
2, 41504, Note_on_c, 2, 58, 40
2, 41521, Control_c, 2, 64, 127
2, 41592, Note_on_c, 2, 53, 43
2, 41596, Note_on_c, 2, 58, 0
2, 41679, Note_on_c, 2, 58, 29
2, 41680, Note_on_c, 2, 49, 0
2, 41704, Note_on_c, 2, 53, 0
2, 41759, Note_on_c, 2, 58, 0
2, 41780, Note_on_c, 2, 77, 0
2, 41784, Note_on_c, 2, 76, 49
2, 41784, Note_on_c, 2, 48, 32
2, 41804, Control_c, 2, 64, 0
2, 41930, Note_on_c, 2, 58, 34
2, 41930, Note_on_c, 2, 85, 52
2, 41963, Control_c, 2, 64, 127
2, 42021, Note_on_c, 2, 55, 44
2, 42034, Note_on_c, 2, 58, 0
2, 42104, Note_on_c, 2, 58, 35
2, 42109, Note_on_c, 2, 48, 0
2, 42130, Note_on_c, 2, 55, 0
2, 42167, Note_on_c, 2, 58, 0
2, 42188, Note_on_c, 2, 85, 0
2, 42188, Note_on_c, 2, 48, 35
2, 42225, Control_c, 2, 64, 0
2, 42284, Note_on_c, 2, 58, 38
2, 42284, Note_on_c, 2, 84, 45
2, 42313, Control_c, 2, 64, 127
2, 42321, Note_on_c, 2, 82, 41
2, 42334, Note_on_c, 2, 84, 0
2, 42363, Note_on_c, 2, 76, 0
2, 42363, Note_on_c, 2, 80, 46
2, 42363, Note_on_c, 2, 55, 32
2, 42383, Note_on_c, 2, 82, 0
2, 42383, Note_on_c, 2, 58, 0
2, 42401, Note_on_c, 2, 79, 39
2, 42413, Note_on_c, 2, 80, 0
2, 42446, Note_on_c, 2, 48, 0
2, 42446, Note_on_c, 2, 79, 0
2, 42447, Note_on_c, 2, 58, 31
2, 42447, Note_on_c, 2, 77, 46
2, 42488, Note_on_c, 2, 76, 31
2, 42500, Note_on_c, 2, 77, 0
2, 42530, Note_on_c, 2, 55, 0
2, 42530, Note_on_c, 2, 58, 0
2, 42538, Note_on_c, 2, 49, 32
2, 42538, Note_on_c, 2, 79, 41
2, 42542, Note_on_c, 2, 76, 0
2, 42563, Control_c, 2, 64, 0
2, 42634, Note_on_c, 2, 56, 38
2, 42692, Control_c, 2, 64, 127
2, 42721, Note_on_c, 2, 53, 35
2, 42721, Note_on_c, 2, 77, 43
2, 42726, Note_on_c, 2, 56, 0
2, 42726, Note_on_c, 2, 79, 0
2, 42812, Note_on_c, 2, 49, 0
2, 42813, Note_on_c, 2, 56, 37
2, 42820, Note_on_c, 2, 53, 0
2, 42909, Note_on_c, 2, 46, 38
2, 42913, Note_on_c, 2, 56, 0
2, 42955, Control_c, 2, 64, 0
2, 43009, Note_on_c, 2, 55, 35
2, 43013, Note_on_c, 2, 76, 45
2, 43055, Control_c, 2, 64, 127
2, 43063, Note_on_c, 2, 77, 0
2, 43109, Note_on_c, 2, 76, 0
2, 43109, Note_on_c, 2, 55, 0
2, 43109, Note_on_c, 2, 49, 35
2, 43109, Note_on_c, 2, 75, 40
2, 43176, Note_on_c, 2, 74, 45
2, 43184, Note_on_c, 2, 75, 0
2, 43209, Note_on_c, 2, 55, 35
2, 43214, Note_on_c, 2, 49, 0
2, 43217, Note_on_c, 2, 46, 0
2, 43238, Note_on_c, 2, 73, 47
2, 43246, Note_on_c, 2, 74, 0
2, 43309, Note_on_c, 2, 55, 0
2, 43314, Note_on_c, 2, 48, 32
2, 43314, Note_on_c, 2, 72, 42
2, 43318, Note_on_c, 2, 73, 0
2, 43330, Control_c, 2, 64, 0
2, 43409, Note_on_c, 2, 56, 39
2, 43434, Note_on_c, 2, 73, 50
2, 43438, Note_on_c, 2, 72, 0
2, 43455, Note_on_c, 2, 72, 40
2, 43456, Control_c, 2, 64, 127
2, 43471, Note_on_c, 2, 73, 0
2, 43484, Note_on_c, 2, 70, 44
2, 43492, Note_on_c, 2, 72, 0
2, 43522, Note_on_c, 2, 72, 54
2, 43522, Note_on_c, 2, 53, 35
2, 43525, Note_on_c, 2, 56, 0
2, 43526, Note_on_c, 2, 70, 0
2, 43609, Note_on_c, 2, 56, 39
2, 43613, Note_on_c, 2, 72, 0
2, 43613, Note_on_c, 2, 73, 45
2, 43626, Note_on_c, 2, 48, 0
2, 43634, Note_on_c, 2, 53, 0
2, 43663, Note_on_c, 2, 56, 0
2, 43701, Note_on_c, 2, 73, 0
2, 43701, Note_on_c, 2, 48, 31
2, 43701, Note_on_c, 2, 65, 43
2, 43722, Control_c, 2, 64, 0
2, 43809, Note_on_c, 2, 55, 32
2, 43809, Note_on_c, 2, 58, 32
2, 43926, Note_on_c, 2, 52, 40
2, 43926, Note_on_c, 2, 68, 42
2, 43934, Note_on_c, 2, 58, 0
2, 43942, Note_on_c, 2, 65, 0
2, 43947, Control_c, 2, 64, 127
2, 44047, Note_on_c, 2, 58, 25
2, 44050, Note_on_c, 2, 52, 0
2, 44063, Note_on_c, 2, 55, 0
2, 44064, Note_on_c, 2, 48, 0
2, 44110, Note_on_c, 2, 58, 0
2, 44118, Note_on_c, 2, 67, 32
2, 44134, Note_on_c, 2, 68, 0
2, 44243, Note_on_c, 2, 57, 31
2, 44243, Note_on_c, 2, 65, 40
2, 44243, Note_on_c, 2, 53, 27
2, 44247, Note_on_c, 2, 67, 0
2, 44251, Control_c, 2, 64, 0
2, 44330, Control_c, 2, 64, 127
2, 44339, Note_on_c, 2, 65, 0
2, 44359, Note_on_c, 2, 65, 39
2, 44418, Note_on_c, 2, 65, 0
2, 44451, Note_on_c, 2, 65, 36
2, 44484, Note_on_c, 2, 65, 0
2, 44505, Note_on_c, 2, 53, 0
2, 44509, Note_on_c, 2, 57, 0
2, 44543, Note_on_c, 2, 65, 32
2, 44567, Note_on_c, 2, 65, 0
2, 44651, Note_on_c, 2, 62, 37
2, 44651, Note_on_c, 2, 58, 33
2, 44689, Control_c, 2, 64, 0
2, 44738, Control_c, 2, 64, 127
2, 44739, Note_on_c, 2, 65, 38
2, 44742, Note_on_c, 2, 58, 0
2, 44746, Note_on_c, 2, 62, 0
2, 44826, Note_on_c, 2, 60, 46
2, 44826, Note_on_c, 2, 63, 45
2, 44834, Note_on_c, 2, 65, 0
2, 44843, Control_c, 2, 64, 0
2, 44888, Control_c, 2, 64, 127
2, 44914, Note_on_c, 2, 65, 46
2, 44916, Note_on_c, 2, 60, 0
2, 44922, Note_on_c, 2, 63, 0
2, 45001, Note_on_c, 2, 75, 43
2, 45001, Note_on_c, 2, 60, 38
2, 45001, Note_on_c, 2, 57, 40
2, 45005, Note_on_c, 2, 65, 0
2, 45022, Control_c, 2, 64, 0
2, 45081, Control_c, 2, 64, 127
2, 45093, Note_on_c, 2, 65, 33
2, 45122, Note_on_c, 2, 65, 0
2, 45180, Note_on_c, 2, 65, 33
2, 45205, Note_on_c, 2, 65, 0
2, 45264, Note_on_c, 2, 65, 30
2, 45268, Note_on_c, 2, 57, 0
2, 45268, Note_on_c, 2, 60, 0
2, 45347, Note_on_c, 2, 65, 0
2, 45347, Note_on_c, 2, 53, 36
2, 45347, Note_on_c, 2, 57, 37
2, 45347, Note_on_c, 2, 72, 45
2, 45351, Note_on_c, 2, 75, 0
2, 45380, Control_c, 2, 64, 0
2, 45422, Control_c, 2, 64, 127
2, 45434, Note_on_c, 2, 57, 0
2, 45434, Note_on_c, 2, 65, 29
2, 45439, Note_on_c, 2, 53, 0
2, 45514, Note_on_c, 2, 60, 18
2, 45514, Note_on_c, 2, 63, 38
2, 45514, Note_on_c, 2, 69, 39
2, 45518, Note_on_c, 2, 65, 0
2, 45518, Note_on_c, 2, 72, 0
2, 45551, Control_c, 2, 64, 0
2, 45585, Note_on_c, 2, 60, 0
2, 45589, Control_c, 2, 64, 127
2, 45593, Note_on_c, 2, 65, 45
2, 45601, Note_on_c, 2, 63, 0
2, 45655, Note_on_c, 2, 69, 0
2, 45681, Note_on_c, 2, 62, 33
2, 45681, Note_on_c, 2, 58, 28
2, 45681, Note_on_c, 2, 77, 49
2, 45684, Note_on_c, 2, 65, 0
2, 45701, Control_c, 2, 64, 0
2, 45764, Note_on_c, 2, 65, 31
2, 45776, Control_c, 2, 64, 127
2, 45802, Note_on_c, 2, 77, 0
2, 45802, Note_on_c, 2, 74, 38
2, 45806, Note_on_c, 2, 65, 0
2, 45843, Note_on_c, 2, 77, 45
2, 45843, Note_on_c, 2, 65, 32
2, 45847, Note_on_c, 2, 74, 0
2, 45868, Note_on_c, 2, 65, 0
2, 45922, Note_on_c, 2, 65, 31
2, 45926, Note_on_c, 2, 58, 0
2, 45935, Note_on_c, 2, 62, 0
2, 46005, Note_on_c, 2, 65, 0
2, 46006, Note_on_c, 2, 58, 38
2, 46006, Note_on_c, 2, 62, 33
2, 46039, Control_c, 2, 64, 0
2, 46089, Note_on_c, 2, 65, 39
2, 46090, Control_c, 2, 64, 127
2, 46093, Note_on_c, 2, 62, 0
2, 46093, Note_on_c, 2, 58, 0
2, 46180, Note_on_c, 2, 60, 39
2, 46180, Note_on_c, 2, 63, 35
2, 46185, Note_on_c, 2, 65, 0
2, 46218, Control_c, 2, 64, 0
2, 46264, Control_c, 2, 64, 127
2, 46280, Note_on_c, 2, 60, 0
2, 46280, Note_on_c, 2, 65, 40
2, 46289, Note_on_c, 2, 63, 0
2, 46326, Note_on_c, 2, 77, 0
2, 46398, Note_on_c, 2, 57, 41
2, 46398, Note_on_c, 2, 60, 31
2, 46398, Note_on_c, 2, 77, 47
2, 46410, Note_on_c, 2, 65, 0
2, 46426, Control_c, 2, 64, 0
2, 46439, Note_on_c, 2, 76, 56
2, 46451, Note_on_c, 2, 77, 0
2, 46476, Control_c, 2, 64, 127
2, 46481, Note_on_c, 2, 65, 30
2, 46481, Note_on_c, 2, 75, 65
2, 46485, Note_on_c, 2, 76, 0
2, 46502, Note_on_c, 2, 65, 0
2, 46568, Note_on_c, 2, 65, 42
2, 46597, Note_on_c, 2, 65, 0
2, 46639, Note_on_c, 2, 65, 34
2, 46640, Note_on_c, 2, 57, 0
2, 46644, Note_on_c, 2, 60, 0
2, 46722, Note_on_c, 2, 53, 36
2, 46722, Note_on_c, 2, 57, 45
2, 46722, Note_on_c, 2, 74, 48
2, 46735, Note_on_c, 2, 65, 0
2, 46739, Control_c, 2, 64, 0
2, 46748, Note_on_c, 2, 75, 0
2, 46798, Control_c, 2, 64, 127
2, 46806, Note_on_c, 2, 53, 0
2, 46806, Note_on_c, 2, 65, 38
2, 46806, Note_on_c, 2, 72, 45
2, 46810, Note_on_c, 2, 57, 0
2, 46810, Note_on_c, 2, 74, 0
2, 46847, Note_on_c, 2, 72, 0
2, 46876, Note_on_c, 2, 65, 0
2, 46885, Note_on_c, 2, 60, 38
2, 46885, Note_on_c, 2, 63, 34
2, 46885, Note_on_c, 2, 70, 45
2, 46931, Note_on_c, 2, 70, 0
2, 46956, Note_on_c, 2, 60, 0
2, 46968, Note_on_c, 2, 63, 0
2, 46972, Note_on_c, 2, 65, 47
2, 46972, Note_on_c, 2, 69, 53
2, 46993, Note_on_c, 2, 69, 0
2, 46997, Note_on_c, 2, 65, 0
2, 47056, Control_c, 2, 64, 0
2, 47064, Note_on_c, 2, 77, 49
2, 47064, Note_on_c, 2, 58, 40
2, 47064, Note_on_c, 2, 62, 37
2, 47064, Note_on_c, 2, 65, 36
2, 47214, Note_on_c, 2, 77, 0
2, 47218, Note_on_c, 2, 74, 40
2, 47281, Note_on_c, 2, 77, 42
2, 47285, Note_on_c, 2, 74, 0
2, 47364, Control_c, 2, 64, 127
2, 47448, Note_on_c, 2, 58, 0
2, 47456, Note_on_c, 2, 62, 0
2, 47464, Note_on_c, 2, 65, 0
2, 47464, Note_on_c, 2, 77, 0
2, 47576, Control_c, 2, 64, 0
2, 47644, Control_c, 2, 64, 127
2, 47727, Control_c, 2, 64, 0
2, 47790, Note_on_c, 2, 82, 49
2, 47790, Note_on_c, 2, 86, 62
2, 47790, Note_on_c, 2, 70, 62
2, 47902, Note_on_c, 2, 81, 50
2, 47902, Note_on_c, 2, 69, 49
2, 47902, Note_on_c, 2, 84, 53
2, 47906, Note_on_c, 2, 70, 0
2, 47910, Note_on_c, 2, 82, 0
2, 47918, Note_on_c, 2, 86, 0
2, 47989, Note_on_c, 2, 79, 45
2, 47989, Note_on_c, 2, 67, 46
2, 47989, Note_on_c, 2, 82, 47
2, 47998, Note_on_c, 2, 81, 0
2, 47998, Note_on_c, 2, 69, 0
2, 47998, Note_on_c, 2, 84, 0
2, 47998, Control_c, 2, 64, 127
2, 48006, Note_on_c, 2, 67, 0
2, 48013, Note_on_c, 2, 79, 0
2, 48014, Note_on_c, 2, 82, 0
2, 48073, Note_on_c, 2, 78, 52
2, 48073, Note_on_c, 2, 66, 54
2, 48073, Note_on_c, 2, 81, 42
2, 48085, Control_c, 2, 64, 0
2, 48144, Note_on_c, 2, 79, 46
2, 48144, Note_on_c, 2, 67, 47
2, 48144, Note_on_c, 2, 82, 43
2, 48148, Note_on_c, 2, 81, 0
2, 48148, Note_on_c, 2, 66, 0
2, 48148, Control_c, 2, 64, 127
2, 48157, Note_on_c, 2, 78, 0
2, 48173, Note_on_c, 2, 79, 0
2, 48173, Note_on_c, 2, 67, 0
2, 48177, Note_on_c, 2, 82, 0
2, 48218, Note_on_c, 2, 77, 56
2, 48218, Note_on_c, 2, 65, 44
2, 48218, Note_on_c, 2, 81, 55
2, 48231, Control_c, 2, 64, 0
2, 48294, Note_on_c, 2, 75, 42
2, 48294, Note_on_c, 2, 63, 45
2, 48294, Note_on_c, 2, 79, 52
2, 48296, Note_on_c, 2, 77, 0
2, 48298, Note_on_c, 2, 65, 0
2, 48318, Note_on_c, 2, 81, 0
2, 48368, Note_on_c, 2, 62, 56
2, 48368, Note_on_c, 2, 74, 50
2, 48368, Note_on_c, 2, 78, 48
2, 48373, Note_on_c, 2, 75, 0
2, 48377, Note_on_c, 2, 79, 0
2, 48381, Note_on_c, 2, 63, 0
2, 48447, Note_on_c, 2, 62, 0
2, 48452, Note_on_c, 2, 79, 40
2, 48452, Note_on_c, 2, 75, 42
2, 48452, Note_on_c, 2, 63, 40
2, 48469, Note_on_c, 2, 74, 0
2, 48469, Note_on_c, 2, 78, 0
2, 48531, Note_on_c, 2, 75, 0
2, 48531, Note_on_c, 2, 62, 45
2, 48531, Note_on_c, 2, 74, 46
2, 48531, Note_on_c, 2, 77, 49
2, 48535, Note_on_c, 2, 63, 0
2, 48544, Note_on_c, 2, 79, 0
2, 48589, Note_on_c, 2, 74, 0
2, 48623, Note_on_c, 2, 72, 40
2, 48623, Note_on_c, 2, 60, 34
2, 48623, Note_on_c, 2, 75, 41
2, 48627, Control_c, 2, 64, 127
2, 48635, Note_on_c, 2, 62, 0
2, 48635, Note_on_c, 2, 77, 0
2, 48648, Note_on_c, 2, 75, 0
2, 48652, Note_on_c, 2, 60, 0
2, 48660, Note_on_c, 2, 72, 0
2, 48719, Control_c, 2, 64, 0
2, 48731, Note_on_c, 2, 59, 30
2, 48731, Note_on_c, 2, 74, 55
2, 48731, Note_on_c, 2, 71, 42
2, 48744, Control_c, 2, 64, 127
2, 48748, Note_on_c, 2, 59, 0
2, 48756, Note_on_c, 2, 71, 0
2, 48756, Note_on_c, 2, 74, 0
2, 49040, Note_on_c, 2, 74, 52
2, 49040, Note_on_c, 2, 65, 37
2, 49040, Note_on_c, 2, 62, 36
2, 49040, Note_on_c, 2, 59, 31
2, 49040, Note_on_c, 2, 55, 39
2, 49052, Control_c, 2, 64, 0
2, 49169, Control_c, 2, 64, 127
2, 49227, Note_on_c, 2, 65, 0
2, 49239, Note_on_c, 2, 55, 0
2, 49240, Note_on_c, 2, 62, 0
2, 49244, Note_on_c, 2, 59, 0
2, 49248, Note_on_c, 2, 74, 0
2, 49549, Note_on_c, 2, 60, 23
2, 49549, Note_on_c, 2, 63, 17
2, 49549, Note_on_c, 2, 67, 24
2, 49549, Note_on_c, 2, 75, 32
2, 49557, Control_c, 2, 64, 0
2, 49623, Control_c, 2, 64, 127
2, 49695, Note_on_c, 2, 75, 0
2, 49761, Note_on_c, 2, 77, 38
2, 49781, Note_on_c, 2, 67, 0
2, 49781, Note_on_c, 2, 75, 31
2, 49794, Note_on_c, 2, 77, 0
2, 49802, Note_on_c, 2, 74, 43
2, 49806, Note_on_c, 2, 75, 0
2, 49831, Note_on_c, 2, 75, 39
2, 49844, Control_c, 2, 64, 0
2, 49853, Note_on_c, 2, 69, 41
2, 49853, Note_on_c, 2, 77, 57
2, 49861, Note_on_c, 2, 75, 0
2, 49861, Note_on_c, 2, 74, 0
2, 49885, Control_c, 2, 64, 127
2, 49998, Note_on_c, 2, 79, 47
2, 50006, Note_on_c, 2, 77, 0
2, 50016, Note_on_c, 2, 60, 0
2, 50028, Note_on_c, 2, 63, 0
2, 50037, Note_on_c, 2, 69, 0
2, 50086, Note_on_c, 2, 79, 0
2, 50178, Note_on_c, 2, 62, 36
2, 50178, Note_on_c, 2, 65, 42
2, 50178, Note_on_c, 2, 70, 31
2, 50178, Note_on_c, 2, 79, 45
2, 50190, Control_c, 2, 64, 0
2, 50228, Control_c, 2, 64, 127
2, 50273, Note_on_c, 2, 77, 36
2, 50282, Note_on_c, 2, 65, 0
2, 50286, Note_on_c, 2, 70, 0
2, 50290, Note_on_c, 2, 62, 0
2, 50332, Note_on_c, 2, 79, 0
2, 50332, Note_on_c, 2, 75, 36
2, 50344, Note_on_c, 2, 77, 0
2, 50378, Note_on_c, 2, 74, 42
2, 50386, Note_on_c, 2, 75, 0
2, 50423, Note_on_c, 2, 74, 0
2, 50423, Note_on_c, 2, 71, 46
2, 50423, Note_on_c, 2, 67, 39
2, 50423, Note_on_c, 2, 63, 31
2, 50423, Note_on_c, 2, 60, 44
2, 50444, Control_c, 2, 64, 0
2, 50473, Note_on_c, 2, 72, 45
2, 50486, Control_c, 2, 64, 127
2, 50497, Note_on_c, 2, 71, 0
2, 50498, Note_on_c, 2, 67, 0
2, 50506, Note_on_c, 2, 60, 0
2, 50511, Note_on_c, 2, 63, 0
2, 50536, Note_on_c, 2, 75, 46
2, 50552, Note_on_c, 2, 72, 0
2, 50586, Note_on_c, 2, 79, 36
2, 50594, Note_on_c, 2, 75, 0
2, 50606, Note_on_c, 2, 79, 0
2, 50707, Note_on_c, 2, 53, 37
2, 50707, Note_on_c, 2, 62, 32
2, 50707, Note_on_c, 2, 65, 35
2, 50707, Note_on_c, 2, 70, 43
2, 50728, Control_c, 2, 64, 0
2, 50769, Control_c, 2, 64, 127
2, 50832, Note_on_c, 2, 62, 0
2, 50849, Note_on_c, 2, 53, 0
2, 50861, Note_on_c, 2, 65, 0
2, 50861, Note_on_c, 2, 70, 0
2, 50974, Note_on_c, 2, 72, 47
2, 50974, Note_on_c, 2, 57, 47
2, 50975, Note_on_c, 2, 63, 37
2, 50975, Note_on_c, 2, 69, 45
2, 50975, Note_on_c, 2, 53, 36
2, 50975, Note_on_c, 2, 65, 37
2, 50982, Control_c, 2, 64, 0
2, 51044, Control_c, 2, 64, 127
2, 51090, Note_on_c, 2, 65, 0
2, 51106, Note_on_c, 2, 57, 0
2, 51111, Note_on_c, 2, 69, 0
2, 51115, Note_on_c, 2, 53, 0
2, 51123, Note_on_c, 2, 63, 0
2, 51157, Note_on_c, 2, 72, 0
2, 51274, Note_on_c, 2, 58, 36
2, 51274, Note_on_c, 2, 62, 25
2, 51274, Note_on_c, 2, 72, 46
2, 51303, Control_c, 2, 64, 0
2, 51382, Note_on_c, 2, 65, 28
2, 51415, Control_c, 2, 64, 127
2, 51420, Note_on_c, 2, 73, 44
2, 51428, Note_on_c, 2, 65, 0
2, 51444, Note_on_c, 2, 72, 0
2, 51461, Note_on_c, 2, 65, 33
2, 51462, Note_on_c, 2, 74, 56
2, 51474, Note_on_c, 2, 73, 0
2, 51482, Control_c, 2, 64, 0
2, 51524, Control_c, 2, 64, 127
2, 51528, Note_on_c, 2, 65, 0
2, 51544, Note_on_c, 2, 65, 34
2, 51566, Note_on_c, 2, 58, 0
2, 51574, Note_on_c, 2, 62, 0
2, 51603, Note_on_c, 2, 65, 0
2, 51645, Note_on_c, 2, 62, 41
2, 51645, Note_on_c, 2, 58, 39
2, 51678, Control_c, 2, 64, 0
2, 51728, Note_on_c, 2, 65, 40
2, 51728, Control_c, 2, 64, 127
2, 51736, Note_on_c, 2, 58, 0
2, 51736, Note_on_c, 2, 62, 0
2, 51820, Note_on_c, 2, 63, 41
2, 51820, Note_on_c, 2, 60, 38
2, 51828, Note_on_c, 2, 65, 0
2, 51845, Control_c, 2, 64, 0
2, 51912, Control_c, 2, 64, 127
2, 51915, Note_on_c, 2, 65, 42
2, 51920, Note_on_c, 2, 60, 0
2, 51924, Note_on_c, 2, 63, 0
2, 51961, Note_on_c, 2, 74, 0
2, 51969, Note_on_c, 2, 65, 0
2, 52045, Note_on_c, 2, 57, 37
2, 52045, Note_on_c, 2, 60, 45
2, 52045, Note_on_c, 2, 77, 47
2, 52070, Control_c, 2, 64, 0
2, 52091, Note_on_c, 2, 76, 56
2, 52111, Note_on_c, 2, 77, 0
2, 52132, Control_c, 2, 64, 127
2, 52132, Note_on_c, 2, 75, 68
2, 52132, Note_on_c, 2, 65, 28
2, 52140, Note_on_c, 2, 76, 0
2, 52157, Note_on_c, 2, 65, 0
2, 52220, Note_on_c, 2, 65, 37
2, 52248, Note_on_c, 2, 65, 0
2, 52291, Note_on_c, 2, 75, 0
2, 52299, Note_on_c, 2, 57, 0
2, 52299, Note_on_c, 2, 65, 32
2, 52307, Note_on_c, 2, 60, 0
2, 52378, Note_on_c, 2, 65, 0
2, 52378, Note_on_c, 2, 74, 28
2, 52378, Note_on_c, 2, 57, 46
2, 52378, Note_on_c, 2, 53, 28
2, 52403, Control_c, 2, 64, 0
2, 52457, Note_on_c, 2, 74, 0
2, 52458, Control_c, 2, 64, 127
2, 52466, Note_on_c, 2, 72, 43
2, 52466, Note_on_c, 2, 65, 35
2, 52469, Note_on_c, 2, 53, 0
2, 52470, Note_on_c, 2, 57, 0
2, 52545, Note_on_c, 2, 60, 35
2, 52545, Note_on_c, 2, 63, 32
2, 52545, Note_on_c, 2, 70, 40
2, 52554, Note_on_c, 2, 72, 0
2, 52557, Note_on_c, 2, 65, 0
2, 52582, Control_c, 2, 64, 0
2, 52624, Note_on_c, 2, 60, 0
2, 52624, Note_on_c, 2, 65, 40
2, 52624, Note_on_c, 2, 69, 45
2, 52624, Control_c, 2, 64, 127
2, 52628, Note_on_c, 2, 70, 0
2, 52640, Note_on_c, 2, 63, 0
2, 52657, Note_on_c, 2, 69, 0
2, 52658, Note_on_c, 2, 65, 0
2, 52712, Note_on_c, 2, 58, 29
2, 52712, Note_on_c, 2, 62, 36
2, 52712, Note_on_c, 2, 77, 47
2, 52724, Control_c, 2, 64, 0
2, 52791, Note_on_c, 2, 65, 29
2, 52812, Control_c, 2, 64, 127
2, 52832, Note_on_c, 2, 65, 0
2, 52832, Note_on_c, 2, 74, 37
2, 52836, Note_on_c, 2, 77, 0
2, 52874, Note_on_c, 2, 65, 35
2, 52874, Note_on_c, 2, 77, 43
2, 52878, Note_on_c, 2, 74, 0
2, 52904, Note_on_c, 2, 65, 0
2, 52962, Note_on_c, 2, 58, 0
2, 52966, Note_on_c, 2, 65, 37
2, 52970, Note_on_c, 2, 62, 0
2, 53053, Note_on_c, 2, 58, 45
2, 53053, Note_on_c, 2, 62, 45
2, 53061, Note_on_c, 2, 65, 0
2, 53070, Control_c, 2, 64, 0
2, 53120, Control_c, 2, 64, 127
2, 53135, Note_on_c, 2, 58, 0
2, 53136, Note_on_c, 2, 65, 46
2, 53140, Note_on_c, 2, 62, 0
2, 53216, Note_on_c, 2, 60, 55
2, 53216, Note_on_c, 2, 63, 48
2, 53228, Note_on_c, 2, 65, 0
2, 53241, Control_c, 2, 64, 0
2, 53286, Control_c, 2, 64, 127
2, 53304, Note_on_c, 2, 60, 0
2, 53308, Note_on_c, 2, 65, 46
2, 53312, Note_on_c, 2, 63, 0
2, 53332, Note_on_c, 2, 77, 0
2, 53412, Note_on_c, 2, 57, 45
2, 53412, Note_on_c, 2, 60, 45
2, 53412, Note_on_c, 2, 77, 51
2, 53420, Note_on_c, 2, 65, 0
2, 53437, Control_c, 2, 64, 0
2, 53453, Note_on_c, 2, 76, 52
2, 53466, Note_on_c, 2, 77, 0
2, 53483, Control_c, 2, 64, 127
2, 53495, Note_on_c, 2, 75, 68
2, 53495, Note_on_c, 2, 65, 40
2, 53503, Note_on_c, 2, 76, 0
2, 53528, Note_on_c, 2, 65, 0
2, 53578, Note_on_c, 2, 65, 41
2, 53607, Note_on_c, 2, 65, 0
2, 53650, Note_on_c, 2, 57, 0
2, 53657, Note_on_c, 2, 60, 0
2, 53657, Note_on_c, 2, 75, 0
2, 53657, Note_on_c, 2, 65, 32
2, 53732, Note_on_c, 2, 65, 0
2, 53737, Note_on_c, 2, 53, 39
2, 53737, Note_on_c, 2, 57, 45
2, 53737, Note_on_c, 2, 74, 55
2, 53753, Note_on_c, 2, 74, 0
2, 53758, Control_c, 2, 64, 0
2, 53774, Note_on_c, 2, 74, 49
2, 53795, Control_c, 2, 64, 127
2, 53812, Note_on_c, 2, 65, 40
2, 53812, Note_on_c, 2, 75, 49
2, 53816, Note_on_c, 2, 74, 0
2, 53816, Note_on_c, 2, 57, 0
2, 53825, Note_on_c, 2, 53, 0
2, 53850, Note_on_c, 2, 72, 46
2, 53854, Note_on_c, 2, 75, 0
2, 53891, Note_on_c, 2, 63, 33
2, 53891, Note_on_c, 2, 60, 39
2, 53891, Note_on_c, 2, 70, 52
2, 53899, Note_on_c, 2, 72, 0
2, 53900, Note_on_c, 2, 65, 0
2, 53904, Control_c, 2, 64, 0
2, 53907, Note_on_c, 2, 70, 0
2, 53933, Note_on_c, 2, 70, 45
2, 53949, Control_c, 2, 64, 127
2, 53978, Note_on_c, 2, 65, 39
2, 53978, Note_on_c, 2, 72, 35
2, 53982, Note_on_c, 2, 60, 0
2, 53990, Note_on_c, 2, 70, 0
2, 53991, Note_on_c, 2, 63, 0
2, 54015, Note_on_c, 2, 65, 0
2, 54020, Note_on_c, 2, 72, 0
2, 54024, Note_on_c, 2, 69, 46
2, 54041, Note_on_c, 2, 69, 0
2, 54078, Note_on_c, 2, 62, 47
2, 54078, Note_on_c, 2, 65, 41
2, 54078, Note_on_c, 2, 77, 54
2, 54078, Note_on_c, 2, 58, 42
2, 54087, Control_c, 2, 64, 0
2, 54094, Note_on_c, 2, 77, 0
2, 54124, Note_on_c, 2, 79, 38
2, 54137, Note_on_c, 2, 77, 53
2, 54149, Note_on_c, 2, 79, 0
2, 54158, Note_on_c, 2, 76, 42
2, 54162, Note_on_c, 2, 77, 0
2, 54178, Note_on_c, 2, 77, 53
2, 54182, Note_on_c, 2, 76, 0
2, 54228, Note_on_c, 2, 82, 48
2, 54237, Note_on_c, 2, 77, 0
2, 54295, Note_on_c, 2, 82, 0
2, 54296, Note_on_c, 2, 77, 49
2, 54350, Control_c, 2, 64, 127
2, 54441, Note_on_c, 2, 58, 0
2, 54449, Note_on_c, 2, 62, 0
2, 54450, Note_on_c, 2, 65, 0
2, 54549, Note_on_c, 2, 77, 0
2, 54757, Control_c, 2, 64, 0
2, 54846, Note_on_c, 2, 70, 49
2, 54846, Note_on_c, 2, 74, 49
2, 54908, Note_on_c, 2, 86, 54
2, 54908, Note_on_c, 2, 82, 46
2, 54909, Control_c, 2, 64, 127
2, 54937, Note_on_c, 2, 74, 0
2, 54938, Note_on_c, 2, 70, 0
2, 54958, Note_on_c, 2, 86, 0
2, 54966, Note_on_c, 2, 82, 0
2, 54966, Note_on_c, 2, 69, 51
2, 54966, Note_on_c, 2, 72, 49
2, 54987, Control_c, 2, 64, 0
2, 55012, Note_on_c, 2, 81, 57
2, 55012, Note_on_c, 2, 84, 54
2, 55016, Control_c, 2, 64, 127
2, 55024, Note_on_c, 2, 72, 0
2, 55024, Note_on_c, 2, 69, 0
2, 55050, Note_on_c, 2, 81, 0
2, 55054, Note_on_c, 2, 67, 52
2, 55054, Note_on_c, 2, 70, 52
2, 55062, Note_on_c, 2, 84, 0
2, 55087, Note_on_c, 2, 70, 0
2, 55087, Note_on_c, 2, 67, 0
2, 55091, Note_on_c, 2, 79, 47
2, 55091, Note_on_c, 2, 82, 53
2, 55123, Note_on_c, 2, 79, 0
2, 55124, Note_on_c, 2, 66, 70
2, 55124, Note_on_c, 2, 69, 53
2, 55128, Note_on_c, 2, 82, 0
2, 55137, Control_c, 2, 64, 0
2, 55166, Note_on_c, 2, 66, 0
2, 55166, Note_on_c, 2, 81, 56
2, 55166, Note_on_c, 2, 78, 46
2, 55166, Control_c, 2, 64, 127
2, 55174, Note_on_c, 2, 69, 0
2, 55195, Note_on_c, 2, 78, 0
2, 55204, Note_on_c, 2, 70, 55
2, 55204, Note_on_c, 2, 67, 54
2, 55220, Note_on_c, 2, 81, 0
2, 55237, Note_on_c, 2, 70, 0
2, 55237, Note_on_c, 2, 79, 53
2, 55237, Note_on_c, 2, 82, 55
2, 55241, Note_on_c, 2, 67, 0
2, 55270, Note_on_c, 2, 82, 0
2, 55279, Note_on_c, 2, 79, 0
2, 55279, Note_on_c, 2, 65, 59
2, 55279, Note_on_c, 2, 69, 52
2, 55287, Control_c, 2, 64, 0
2, 55320, Control_c, 2, 64, 127
2, 55320, Note_on_c, 2, 77, 57
2, 55320, Note_on_c, 2, 81, 54
2, 55332, Note_on_c, 2, 65, 0
2, 55337, Note_on_c, 2, 69, 0
2, 55366, Note_on_c, 2, 77, 0
2, 55366, Note_on_c, 2, 81, 0
2, 55366, Note_on_c, 2, 67, 52
2, 55366, Note_on_c, 2, 63, 60
2, 55399, Note_on_c, 2, 63, 0
2, 55404, Note_on_c, 2, 67, 0
2, 55404, Note_on_c, 2, 75, 53
2, 55404, Note_on_c, 2, 79, 39
2, 55438, Note_on_c, 2, 62, 55
2, 55438, Note_on_c, 2, 66, 54
2, 55441, Note_on_c, 2, 79, 0
2, 55442, Note_on_c, 2, 75, 0
2, 55454, Control_c, 2, 64, 0
2, 55471, Note_on_c, 2, 78, 54
2, 55471, Note_on_c, 2, 74, 46
2, 55475, Note_on_c, 2, 62, 0
2, 55479, Note_on_c, 2, 66, 0
2, 55479, Control_c, 2, 64, 127
2, 55508, Note_on_c, 2, 67, 46
2, 55508, Note_on_c, 2, 63, 60
2, 55512, Note_on_c, 2, 74, 0
2, 55516, Note_on_c, 2, 78, 0
2, 55541, Note_on_c, 2, 63, 0
2, 55546, Note_on_c, 2, 67, 0
2, 55546, Note_on_c, 2, 75, 48
2, 55546, Note_on_c, 2, 79, 45
2, 55579, Note_on_c, 2, 62, 46
2, 55579, Note_on_c, 2, 65, 49
2, 55580, Note_on_c, 2, 75, 0
2, 55587, Note_on_c, 2, 79, 0
2, 55595, Control_c, 2, 64, 0
2, 55620, Note_on_c, 2, 74, 45
2, 55620, Note_on_c, 2, 77, 55
2, 55629, Note_on_c, 2, 62, 0
2, 55629, Note_on_c, 2, 65, 0
2, 55629, Control_c, 2, 64, 127
2, 55654, Note_on_c, 2, 77, 0
2, 55657, Note_on_c, 2, 74, 0
2, 55667, Note_on_c, 2, 60, 54
2, 55667, Note_on_c, 2, 63, 48
2, 55704, Control_c, 2, 64, 0
2, 55712, Note_on_c, 2, 75, 46
2, 55712, Note_on_c, 2, 72, 45
2, 55720, Note_on_c, 2, 63, 0
2, 55730, Note_on_c, 2, 60, 0
2, 55733, Control_c, 2, 64, 127
2, 55762, Note_on_c, 2, 75, 0
2, 55766, Note_on_c, 2, 72, 0
2, 55774, Note_on_c, 2, 59, 45
2, 55774, Note_on_c, 2, 62, 42
2, 55816, Control_c, 2, 64, 0
2, 55850, Note_on_c, 2, 71, 46
2, 55850, Note_on_c, 2, 74, 50
2, 55854, Control_c, 2, 64, 127
2, 55862, Note_on_c, 2, 62, 0
2, 55869, Note_on_c, 2, 59, 0
2, 55871, Note_on_c, 2, 74, 0
2, 55874, Note_on_c, 2, 71, 0
2, 55979, Note_on_c, 2, 55, 46
2, 55979, Note_on_c, 2, 59, 42
2, 55979, Note_on_c, 2, 62, 40
2, 55979, Note_on_c, 2, 65, 48
2, 55979, Note_on_c, 2, 74, 59
2, 55991, Control_c, 2, 64, 0
2, 56116, Control_c, 2, 64, 127
2, 56161, Note_on_c, 2, 65, 0
2, 56174, Note_on_c, 2, 55, 0
2, 56178, Note_on_c, 2, 62, 0
2, 56179, Note_on_c, 2, 74, 0
2, 56182, Note_on_c, 2, 59, 0
2, 56654, Control_c, 2, 64, 0
2, 56662, Note_on_c, 2, 75, 24
2, 56662, Note_on_c, 2, 60, 21
2, 56662, Note_on_c, 2, 67, 24
2, 56662, Note_on_c, 2, 63, 26
2, 56750, Control_c, 2, 64, 127
2, 56808, Note_on_c, 2, 75, 0
2, 56896, Note_on_c, 2, 77, 42
2, 56916, Note_on_c, 2, 75, 39
2, 56925, Note_on_c, 2, 77, 0
2, 56925, Note_on_c, 2, 67, 0
2, 56938, Note_on_c, 2, 75, 0
2, 56938, Note_on_c, 2, 74, 46
2, 56962, Note_on_c, 2, 75, 37
2, 56975, Control_c, 2, 64, 0
2, 56984, Note_on_c, 2, 69, 45
2, 56984, Note_on_c, 2, 77, 54
2, 56992, Note_on_c, 2, 75, 0
2, 56992, Note_on_c, 2, 74, 0
2, 57016, Control_c, 2, 64, 127
2, 57111, Note_on_c, 2, 60, 0
2, 57125, Note_on_c, 2, 63, 0
2, 57138, Note_on_c, 2, 79, 46
2, 57141, Note_on_c, 2, 77, 0
2, 57147, Note_on_c, 2, 69, 0
2, 57304, Note_on_c, 2, 79, 0
2, 57304, Note_on_c, 2, 77, 46
2, 57304, Note_on_c, 2, 74, 32
2, 57304, Note_on_c, 2, 70, 33
2, 57304, Note_on_c, 2, 65, 49
2, 57304, Note_on_c, 2, 62, 35
2, 57321, Control_c, 2, 64, 0
2, 57387, Control_c, 2, 64, 127
2, 57404, Note_on_c, 2, 82, 46
2, 57407, Note_on_c, 2, 77, 0
2, 57412, Note_on_c, 2, 74, 0
2, 57412, Note_on_c, 2, 70, 0
2, 57416, Note_on_c, 2, 65, 0
2, 57421, Note_on_c, 2, 62, 0
2, 57467, Note_on_c, 2, 82, 0
2, 57467, Note_on_c, 2, 74, 45
2, 57491, Note_on_c, 2, 74, 0
2, 57538, Note_on_c, 2, 60, 55
2, 57538, Note_on_c, 2, 72, 48
2, 57538, Note_on_c, 2, 67, 45
2, 57538, Note_on_c, 2, 63, 48
2, 57550, Control_c, 2, 64, 0
2, 57592, Control_c, 2, 64, 127
2, 57613, Note_on_c, 2, 75, 42
2, 57621, Note_on_c, 2, 67, 0
2, 57629, Note_on_c, 2, 63, 0
2, 57629, Note_on_c, 2, 60, 0
2, 57675, Note_on_c, 2, 79, 46
2, 57679, Note_on_c, 2, 75, 0
2, 57688, Note_on_c, 2, 72, 0
2, 57696, Note_on_c, 2, 79, 0
2, 57758, Note_on_c, 2, 53, 40
2, 57759, Note_on_c, 2, 65, 49
2, 57759, Note_on_c, 2, 70, 53
2, 57763, Note_on_c, 2, 62, 40
2, 57784, Control_c, 2, 64, 0
2, 57825, Control_c, 2, 64, 127
2, 57946, Note_on_c, 2, 62, 0
2, 58117, Note_on_c, 2, 69, 40
2, 58117, Note_on_c, 2, 60, 31
2, 58125, Note_on_c, 2, 70, 0
2, 58129, Control_c, 2, 64, 0
2, 58221, Control_c, 2, 64, 127
2, 58288, Note_on_c, 2, 69, 0
2, 58300, Note_on_c, 2, 65, 0
2, 58330, Note_on_c, 2, 60, 0
2, 58342, Note_on_c, 2, 53, 0
2, 58492, Control_c, 2, 64, 0
2, 58585, Note_on_c, 2, 62, 56
2, 58612, Note_on_c, 2, 74, 66
2, 58705, Note_on_c, 2, 46, 52
2, 58780, Control_c, 2, 64, 127
2, 58796, Note_on_c, 2, 50, 55
2, 58819, Note_on_c, 2, 62, 0
2, 58850, Note_on_c, 2, 70, 45
2, 58854, Note_on_c, 2, 74, 0
2, 58888, Note_on_c, 2, 70, 0
2, 58892, Note_on_c, 2, 50, 0
2, 58896, Note_on_c, 2, 70, 51
2, 58896, Note_on_c, 2, 55, 48
2, 58917, Note_on_c, 2, 70, 0
2, 58938, Note_on_c, 2, 72, 52
2, 58958, Note_on_c, 2, 70, 56
2, 58967, Note_on_c, 2, 72, 0
2, 58973, Note_on_c, 2, 70, 0
2, 58975, Note_on_c, 2, 69, 48
2, 59000, Note_on_c, 2, 70, 46
2, 59008, Note_on_c, 2, 69, 0
2, 59030, Note_on_c, 2, 63, 71
2, 59037, Note_on_c, 2, 70, 0
2, 59046, Note_on_c, 2, 46, 0
2, 59050, Note_on_c, 2, 75, 65
2, 59126, Note_on_c, 2, 48, 54
2, 59130, Note_on_c, 2, 55, 0
2, 59130, Control_c, 2, 64, 0
2, 59196, Control_c, 2, 64, 127
2, 59213, Note_on_c, 2, 63, 0
2, 59213, Note_on_c, 2, 51, 36
2, 59242, Note_on_c, 2, 75, 0
2, 59259, Note_on_c, 2, 72, 48
2, 59276, Note_on_c, 2, 72, 0
2, 59309, Note_on_c, 2, 57, 43
2, 59309, Note_on_c, 2, 72, 45
2, 59326, Note_on_c, 2, 72, 0
2, 59326, Note_on_c, 2, 74, 53
2, 59346, Note_on_c, 2, 72, 41
2, 59358, Note_on_c, 2, 72, 0
2, 59358, Note_on_c, 2, 74, 0
2, 59359, Note_on_c, 2, 71, 47
2, 59384, Note_on_c, 2, 72, 40
2, 59396, Note_on_c, 2, 71, 0
2, 59409, Note_on_c, 2, 48, 0
2, 59409, Note_on_c, 2, 72, 0
2, 59409, Note_on_c, 2, 77, 65
2, 59421, Note_on_c, 2, 51, 0
2, 59492, Note_on_c, 2, 50, 47
2, 59510, Note_on_c, 2, 57, 0
2, 59530, Note_on_c, 2, 77, 0
2, 59534, Note_on_c, 2, 74, 54
2, 59534, Control_c, 2, 64, 0
2, 59571, Note_on_c, 2, 53, 39
2, 59576, Note_on_c, 2, 82, 56
2, 59659, Note_on_c, 2, 58, 36
2, 59667, Note_on_c, 2, 50, 0
2, 59668, Control_c, 2, 64, 127
2, 59742, Note_on_c, 2, 50, 40
2, 59747, Note_on_c, 2, 53, 0
2, 59750, Note_on_c, 2, 58, 0
2, 59767, Control_c, 2, 64, 0
2, 59834, Note_on_c, 2, 80, 38
2, 59842, Note_on_c, 2, 74, 0
2, 59909, Note_on_c, 2, 82, 0
2, 59930, Note_on_c, 2, 56, 35
2, 59930, Note_on_c, 2, 79, 48
2, 59930, Control_c, 2, 64, 127
2, 59938, Note_on_c, 2, 80, 0
2, 59992, Note_on_c, 2, 50, 0
2, 60034, Note_on_c, 2, 78, 46
2, 60038, Note_on_c, 2, 79, 0
2, 60042, Note_on_c, 2, 56, 0
2, 60059, Note_on_c, 2, 78, 0
2, 60152, Note_on_c, 2, 58, 35
2, 60152, Note_on_c, 2, 55, 38
2, 60152, Note_on_c, 2, 51, 33
2, 60167, Control_c, 2, 64, 0
2, 60268, Note_on_c, 2, 79, 60
2, 60305, Note_on_c, 2, 82, 56
2, 60309, Note_on_c, 2, 79, 0
2, 60347, Note_on_c, 2, 79, 53
2, 60351, Note_on_c, 2, 82, 0
2, 60351, Control_c, 2, 64, 127
2, 60376, Note_on_c, 2, 79, 0
2, 60384, Note_on_c, 2, 74, 45
2, 60418, Note_on_c, 2, 75, 46
2, 60451, Note_on_c, 2, 75, 0
2, 60455, Note_on_c, 2, 79, 39
2, 60464, Note_on_c, 2, 74, 0
2, 60485, Note_on_c, 2, 58, 0
2, 60488, Note_on_c, 2, 75, 35
2, 60500, Note_on_c, 2, 79, 0
2, 60526, Note_on_c, 2, 75, 0
2, 60526, Note_on_c, 2, 58, 39
2, 60526, Note_on_c, 2, 71, 56
2, 60551, Control_c, 2, 64, 0
2, 60568, Note_on_c, 2, 72, 47
2, 60596, Control_c, 2, 64, 127
2, 60601, Note_on_c, 2, 72, 0
2, 60601, Note_on_c, 2, 75, 39
2, 60605, Note_on_c, 2, 71, 0
2, 60643, Note_on_c, 2, 75, 0
2, 60643, Note_on_c, 2, 74, 46
2, 60680, Note_on_c, 2, 77, 48
2, 60693, Note_on_c, 2, 74, 0
2, 60702, Note_on_c, 2, 51, 0
2, 60707, Note_on_c, 2, 55, 0
2, 60717, Note_on_c, 2, 58, 0
2, 60730, Note_on_c, 2, 75, 35
2, 60746, Note_on_c, 2, 77, 0
2, 60776, Note_on_c, 2, 74, 40
2, 60792, Note_on_c, 2, 75, 0
2, 60822, Note_on_c, 2, 72, 41
2, 60826, Note_on_c, 2, 74, 0
2, 60830, Note_on_c, 2, 72, 0
2, 60847, Note_on_c, 2, 65, 50
2, 60872, Note_on_c, 2, 53, 50
2, 60872, Note_on_c, 2, 77, 56
2, 60880, Control_c, 2, 64, 127
2, 60922, Note_on_c, 2, 77, 0
2, 60943, Note_on_c, 2, 65, 0
2, 60955, Note_on_c, 2, 62, 41
2, 60955, Note_on_c, 2, 77, 60
2, 61034, Note_on_c, 2, 58, 43
2, 61043, Note_on_c, 2, 62, 0
2, 61047, Note_on_c, 2, 77, 0
2, 61109, Note_on_c, 2, 53, 0
2, 61114, Note_on_c, 2, 62, 46
2, 61114, Note_on_c, 2, 77, 52
2, 61130, Note_on_c, 2, 58, 0
2, 61198, Note_on_c, 2, 62, 0
2, 61201, Note_on_c, 2, 53, 48
2, 61247, Note_on_c, 2, 75, 45
2, 61248, Control_c, 2, 64, 0
2, 61263, Note_on_c, 2, 77, 0
2, 61280, Note_on_c, 2, 74, 49
2, 61280, Note_on_c, 2, 62, 55
2, 61280, Control_c, 2, 64, 127
2, 61284, Note_on_c, 2, 75, 0
2, 61322, Note_on_c, 2, 74, 0
2, 61322, Note_on_c, 2, 75, 40
2, 61355, Note_on_c, 2, 75, 0
2, 61360, Note_on_c, 2, 62, 0
2, 61360, Note_on_c, 2, 77, 48
2, 61360, Note_on_c, 2, 58, 33
2, 61405, Note_on_c, 2, 79, 46
2, 61413, Note_on_c, 2, 77, 0
2, 61447, Note_on_c, 2, 62, 41
2, 61447, Note_on_c, 2, 81, 43
2, 61455, Note_on_c, 2, 53, 0
2, 61459, Note_on_c, 2, 79, 0
2, 61497, Note_on_c, 2, 82, 40
2, 61505, Note_on_c, 2, 81, 0
2, 61509, Note_on_c, 2, 82, 0
2, 61518, Note_on_c, 2, 58, 0
2, 61539, Note_on_c, 2, 62, 0
2, 61556, Note_on_c, 2, 53, 45
2, 61556, Note_on_c, 2, 74, 46
2, 61593, Control_c, 2, 64, 0
2, 61638, Note_on_c, 2, 74, 0
2, 61639, Note_on_c, 2, 72, 42
2, 61652, Control_c, 2, 64, 127
2, 61664, Note_on_c, 2, 72, 0
2, 61664, Note_on_c, 2, 74, 45
2, 61680, Note_on_c, 2, 74, 0
2, 61681, Note_on_c, 2, 63, 35
2, 61681, Note_on_c, 2, 72, 45
2, 61693, Note_on_c, 2, 72, 0
2, 61697, Note_on_c, 2, 74, 53
2, 61713, Note_on_c, 2, 74, 0
2, 61714, Note_on_c, 2, 72, 42
2, 61722, Note_on_c, 2, 72, 0
2, 61730, Note_on_c, 2, 74, 37
2, 61738, Note_on_c, 2, 74, 0
2, 61738, Note_on_c, 2, 72, 46
2, 61752, Note_on_c, 2, 72, 0
2, 61755, Note_on_c, 2, 74, 45
2, 61768, Note_on_c, 2, 60, 46
2, 61768, Note_on_c, 2, 72, 44
2, 61772, Note_on_c, 2, 74, 0
2, 61773, Note_on_c, 2, 63, 0
2, 61780, Note_on_c, 2, 72, 0
2, 61780, Note_on_c, 2, 74, 36
2, 61793, Note_on_c, 2, 74, 0
2, 61793, Note_on_c, 2, 72, 47
2, 61805, Note_on_c, 2, 72, 0
2, 61814, Note_on_c, 2, 74, 47
2, 61822, Note_on_c, 2, 72, 47
2, 61826, Note_on_c, 2, 74, 0
2, 61830, Note_on_c, 2, 63, 37
2, 61834, Note_on_c, 2, 72, 0
2, 61834, Note_on_c, 2, 60, 0
2, 61839, Note_on_c, 2, 53, 0
2, 61843, Note_on_c, 2, 74, 45
2, 61851, Note_on_c, 2, 74, 0
2, 61851, Note_on_c, 2, 72, 45
2, 61864, Note_on_c, 2, 72, 0
2, 61868, Note_on_c, 2, 74, 48
2, 61876, Note_on_c, 2, 72, 47
2, 61880, Note_on_c, 2, 74, 0
2, 61893, Note_on_c, 2, 72, 0
2, 61893, Note_on_c, 2, 63, 0
2, 61897, Note_on_c, 2, 74, 46
2, 61901, Note_on_c, 2, 53, 45
2, 61905, Note_on_c, 2, 72, 54
2, 61909, Note_on_c, 2, 74, 0
2, 61922, Note_on_c, 2, 72, 0
2, 61922, Note_on_c, 2, 74, 48
2, 61934, Note_on_c, 2, 72, 55
2, 61938, Note_on_c, 2, 74, 0
2, 61938, Control_c, 2, 64, 0
2, 61952, Note_on_c, 2, 72, 0
2, 61952, Note_on_c, 2, 74, 40
2, 61963, Note_on_c, 2, 74, 0
2, 61963, Note_on_c, 2, 72, 50
2, 61968, Control_c, 2, 64, 127
2, 61976, Note_on_c, 2, 72, 0
2, 61980, Note_on_c, 2, 74, 50
2, 61993, Note_on_c, 2, 74, 0
2, 61993, Note_on_c, 2, 63, 33
2, 61993, Note_on_c, 2, 72, 54
2, 62005, Note_on_c, 2, 72, 0
2, 62018, Note_on_c, 2, 72, 42
2, 62030, Note_on_c, 2, 72, 0
2, 62030, Note_on_c, 2, 74, 53
2, 62047, Note_on_c, 2, 74, 0
2, 62060, Note_on_c, 2, 72, 30
2, 62068, Note_on_c, 2, 60, 40
2, 62076, Note_on_c, 2, 63, 0
2, 62164, Note_on_c, 2, 53, 0
2, 62168, Note_on_c, 2, 60, 0
2, 62168, Note_on_c, 2, 63, 38
2, 62168, Note_on_c, 2, 70, 36
2, 62172, Note_on_c, 2, 72, 0
2, 62214, Note_on_c, 2, 70, 0
2, 62214, Note_on_c, 2, 72, 46
2, 62268, Note_on_c, 2, 63, 0
2, 62268, Note_on_c, 2, 58, 40
2, 62268, Note_on_c, 2, 70, 51
2, 62276, Note_on_c, 2, 72, 0
2, 62293, Control_c, 2, 64, 0
2, 62376, Note_on_c, 2, 62, 31
2, 62381, Control_c, 2, 64, 127
2, 62464, Note_on_c, 2, 58, 0
2, 62464, Note_on_c, 2, 65, 35
2, 62472, Note_on_c, 2, 62, 0
2, 62480, Note_on_c, 2, 70, 0
2, 62493, Note_on_c, 2, 65, 0
2, 62518, Note_on_c, 2, 70, 28
2, 62531, Note_on_c, 2, 70, 0
2, 62555, Note_on_c, 2, 70, 44
2, 62564, Note_on_c, 2, 68, 38
2, 62572, Note_on_c, 2, 70, 0
2, 62584, Note_on_c, 2, 72, 38
2, 62593, Note_on_c, 2, 70, 45
2, 62601, Note_on_c, 2, 72, 0
2, 62614, Note_on_c, 2, 70, 0
2, 62618, Note_on_c, 2, 69, 52
2, 62639, Note_on_c, 2, 70, 44
2, 62656, Control_c, 2, 64, 0
2, 62664, Note_on_c, 2, 68, 0
2, 62668, Note_on_c, 2, 67, 40
2, 62668, Note_on_c, 2, 77, 57
2, 62676, Note_on_c, 2, 70, 0
2, 62676, Note_on_c, 2, 69, 0
2, 62722, Control_c, 2, 64, 127
2, 62764, Note_on_c, 2, 75, 42
2, 62772, Note_on_c, 2, 77, 0
2, 62797, Note_on_c, 2, 75, 0
2, 62806, Note_on_c, 2, 67, 0
2, 62856, Note_on_c, 2, 63, 38
2, 62856, Note_on_c, 2, 74, 41
2, 62872, Control_c, 2, 64, 0
2, 62918, Control_c, 2, 64, 127
2, 62951, Note_on_c, 2, 72, 46
2, 62960, Note_on_c, 2, 74, 0
2, 62972, Note_on_c, 2, 63, 0
2, 62976, Note_on_c, 2, 72, 0
2, 63060, Note_on_c, 2, 62, 45
2, 63060, Note_on_c, 2, 72, 47
2, 63080, Control_c, 2, 64, 0
2, 63148, Control_c, 2, 64, 127
2, 63152, Note_on_c, 2, 70, 54
2, 63156, Note_on_c, 2, 65, 37
2, 63160, Note_on_c, 2, 72, 0
2, 63168, Note_on_c, 2, 62, 0
2, 63176, Note_on_c, 2, 65, 0
2, 63235, Note_on_c, 2, 70, 0
2, 63239, Note_on_c, 2, 68, 53
2, 63256, Note_on_c, 2, 68, 0
2, 63294, Note_on_c, 2, 70, 51
2, 63310, Note_on_c, 2, 70, 0
2, 63343, Note_on_c, 2, 66, 44
2, 63343, Note_on_c, 2, 70, 45
2, 63356, Note_on_c, 2, 70, 0
2, 63364, Note_on_c, 2, 72, 43
2, 63377, Note_on_c, 2, 70, 52
2, 63389, Note_on_c, 2, 72, 0
2, 63397, Note_on_c, 2, 70, 0
2, 63402, Note_on_c, 2, 69, 48
2, 63414, Control_c, 2, 64, 0
2, 63418, Note_on_c, 2, 70, 43
2, 63447, Note_on_c, 2, 66, 0
2, 63448, Note_on_c, 2, 67, 40
2, 63448, Note_on_c, 2, 77, 62
2, 63451, Note_on_c, 2, 70, 0
2, 63451, Note_on_c, 2, 69, 0
2, 63510, Control_c, 2, 64, 127
2, 63539, Note_on_c, 2, 75, 50
2, 63552, Note_on_c, 2, 77, 0
2, 63580, Note_on_c, 2, 75, 0
2, 63635, Note_on_c, 2, 63, 40
2, 63636, Note_on_c, 2, 74, 44
2, 63640, Note_on_c, 2, 67, 0
2, 63643, Control_c, 2, 64, 0
2, 63693, Control_c, 2, 64, 127
2, 63726, Note_on_c, 2, 63, 0
2, 63735, Note_on_c, 2, 74, 0
2, 63735, Note_on_c, 2, 72, 45
2, 63835, Note_on_c, 2, 72, 0
2, 63835, Note_on_c, 2, 58, 38
2, 63835, Note_on_c, 2, 70, 40
2, 63848, Control_c, 2, 64, 0
2, 63927, Control_c, 2, 64, 127
2, 63931, Note_on_c, 2, 62, 42
2, 63931, Note_on_c, 2, 65, 37
2, 63944, Note_on_c, 2, 58, 0
2, 63952, Note_on_c, 2, 62, 0
2, 63960, Note_on_c, 2, 65, 0
2, 64022, Note_on_c, 2, 67, 45
2, 64022, Note_on_c, 2, 63, 55
2, 64022, Note_on_c, 2, 75, 52
2, 64026, Note_on_c, 2, 70, 0
2, 64026, Control_c, 2, 64, 0
2, 64052, Control_c, 2, 64, 127
2, 64077, Note_on_c, 2, 63, 0
2, 64084, Note_on_c, 2, 67, 0
2, 64118, Note_on_c, 2, 60, 49
2, 64118, Note_on_c, 2, 63, 42
2, 64139, Note_on_c, 2, 63, 0
2, 64142, Note_on_c, 2, 60, 0
2, 64168, Note_on_c, 2, 75, 0
2, 64168, Note_on_c, 2, 69, 47
2, 64223, Note_on_c, 2, 58, 40
2, 64223, Note_on_c, 2, 70, 45
2, 64235, Control_c, 2, 64, 0
2, 64243, Note_on_c, 2, 69, 0
2, 64331, Control_c, 2, 64, 127
2, 64336, Note_on_c, 2, 65, 37
2, 64336, Note_on_c, 2, 62, 41
2, 64353, Note_on_c, 2, 58, 0
2, 64356, Note_on_c, 2, 62, 0
2, 64360, Note_on_c, 2, 65, 0
2, 64414, Note_on_c, 2, 70, 0
2, 64464, Note_on_c, 2, 63, 40
2, 64464, Note_on_c, 2, 79, 53
2, 64464, Note_on_c, 2, 67, 40
2, 64465, Control_c, 2, 64, 0
2, 64490, Control_c, 2, 64, 127
2, 64539, Note_on_c, 2, 63, 0
2, 64548, Note_on_c, 2, 67, 0
2, 64569, Note_on_c, 2, 79, 0
2, 64627, Note_on_c, 2, 60, 39
2, 64627, Note_on_c, 2, 63, 32
2, 64681, Note_on_c, 2, 63, 0
2, 64686, Note_on_c, 2, 60, 0
2, 64748, Note_on_c, 2, 69, 49
2, 64815, Note_on_c, 2, 69, 0
2, 64914, Note_on_c, 2, 46, 36
2, 64927, Note_on_c, 2, 63, 37
2, 64931, Note_on_c, 2, 58, 33
2, 64935, Note_on_c, 2, 53, 32
2, 64940, Note_on_c, 2, 69, 45
2, 64956, Note_on_c, 2, 72, 56
2, 64973, Control_c, 2, 64, 0
2, 65077, Control_c, 2, 64, 127
2, 65281, Note_on_c, 2, 69, 0
2, 65294, Note_on_c, 2, 72, 0
2, 65323, Note_on_c, 2, 63, 0
2, 65336, Note_on_c, 2, 53, 0
2, 65435, Note_on_c, 2, 58, 0
2, 65552, Note_on_c, 2, 50, 20
2, 65552, Note_on_c, 2, 53, 20
2, 65552, Note_on_c, 2, 58, 20
2, 65552, Note_on_c, 2, 62, 20
2, 65552, Note_on_c, 2, 65, 20
2, 65552, Note_on_c, 2, 70, 20
2, 65586, Control_c, 2, 64, 0
2, 65748, Control_c, 2, 64, 127
2, 65890, Note_on_c, 2, 65, 0
2, 65890, Note_on_c, 2, 62, 0
2, 65894, Note_on_c, 2, 70, 0
2, 66557, Note_on_c, 2, 50, 0
2, 66574, Note_on_c, 2, 53, 0
2, 66577, Note_on_c, 2, 46, 0
2, 66593, Note_on_c, 2, 58, 0
2, 66807, Control_c, 2, 64, 0
2, 66807, End_track
0, 0, End_of_file
