0, 0, Header, 1, 3, 192
1, 0, Start_track
1, 0, Title_t, "Sonata en Do Mayor"
1, 0, Text_t, "By Wolfgang Amadeus Mozart"
1, 0, Copyright_t, "Copyright  199 by Juan Pablo Garcia Estefan"
1, 0, Copyright_t, "All Rights Reserved"
1, 0, Text_t, "Generated by NoteWorthy Composer"
1, 0, Tempo, 454545
1, 0, Time_signature, 4, 2, 24, 8
1, 21504, Tempo, 454545
1, 21504, End_track
2, 0, Start_track
2, 0, MIDI_port, 0
2, 0, Title_t, "Right Hand"
2, 0, Program_c, 0, 0
2, 0, Control_c, 0, 7, 127
2, 0, Control_c, 0, 10, 64
2, 0, Note_on_c, 0, 72, 60
2, 384, Note_on_c, 0, 72, 0
2, 384, Note_on_c, 0, 76, 60
2, 576, Note_on_c, 0, 76, 0
2, 576, Note_on_c, 0, 79, 60
2, 768, Note_on_c, 0, 79, 0
2, 768, Note_on_c, 0, 71, 84
2, 1056, Note_on_c, 0, 71, 0
2, 1056, Note_on_c, 0, 72, 60
2, 1104, Note_on_c, 0, 72, 0
2, 1104, Note_on_c, 0, 74, 60
2, 1152, Note_on_c, 0, 74, 0
2, 1152, Note_on_c, 0, 72, 60
2, 1312, Note_on_c, 0, 72, 0
2, 1536, Note_on_c, 0, 81, 84
2, 1920, Note_on_c, 0, 81, 0
2, 1920, Note_on_c, 0, 79, 60
2, 2112, Note_on_c, 0, 79, 0
2, 2112, Note_on_c, 0, 84, 60
2, 2304, Note_on_c, 0, 84, 0
2, 2304, Note_on_c, 0, 79, 84
2, 2496, Note_on_c, 0, 79, 0
2, 2496, Note_on_c, 0, 77, 60
2, 2528, Note_on_c, 0, 77, 0
2, 2528, Note_on_c, 0, 79, 60
2, 2560, Note_on_c, 0, 79, 0
2, 2560, Note_on_c, 0, 77, 60
2, 2592, Note_on_c, 0, 77, 0
2, 2592, Note_on_c, 0, 76, 60
2, 2640, Note_on_c, 0, 76, 0
2, 2640, Note_on_c, 0, 77, 60
2, 2688, Note_on_c, 0, 77, 0
2, 2688, Note_on_c, 0, 76, 60
2, 2848, Note_on_c, 0, 76, 0
2, 3072, Note_on_c, 0, 69, 45
2, 3168, Note_on_c, 0, 69, 0
2, 3168, Note_on_c, 0, 71, 45
2, 3216, Note_on_c, 0, 71, 0
2, 3216, Note_on_c, 0, 72, 45
2, 3264, Note_on_c, 0, 72, 0
2, 3264, Note_on_c, 0, 74, 45
2, 3312, Note_on_c, 0, 74, 0
2, 3312, Note_on_c, 0, 76, 45
2, 3360, Note_on_c, 0, 76, 0
2, 3360, Note_on_c, 0, 77, 45
2, 3408, Note_on_c, 0, 77, 0
2, 3408, Note_on_c, 0, 79, 45
2, 3456, Note_on_c, 0, 79, 0
2, 3456, Note_on_c, 0, 81, 45
2, 3504, Note_on_c, 0, 81, 0
2, 3504, Note_on_c, 0, 79, 45
2, 3552, Note_on_c, 0, 79, 0
2, 3552, Note_on_c, 0, 77, 45
2, 3600, Note_on_c, 0, 77, 0
2, 3600, Note_on_c, 0, 76, 45
2, 3648, Note_on_c, 0, 76, 0
2, 3648, Note_on_c, 0, 74, 45
2, 3696, Note_on_c, 0, 74, 0
2, 3696, Note_on_c, 0, 72, 45
2, 3744, Note_on_c, 0, 72, 0
2, 3744, Note_on_c, 0, 71, 45
2, 3792, Note_on_c, 0, 71, 0
2, 3792, Note_on_c, 0, 69, 45
2, 3840, Note_on_c, 0, 69, 0
2, 3840, Note_on_c, 0, 67, 45
2, 3936, Note_on_c, 0, 67, 0
2, 3936, Note_on_c, 0, 69, 45
2, 3984, Note_on_c, 0, 69, 0
2, 3984, Note_on_c, 0, 71, 45
2, 4032, Note_on_c, 0, 71, 0
2, 4032, Note_on_c, 0, 72, 45
2, 4080, Note_on_c, 0, 72, 0
2, 4080, Note_on_c, 0, 74, 45
2, 4128, Note_on_c, 0, 74, 0
2, 4128, Note_on_c, 0, 76, 45
2, 4176, Note_on_c, 0, 76, 0
2, 4176, Note_on_c, 0, 77, 45
2, 4224, Note_on_c, 0, 77, 0
2, 4224, Note_on_c, 0, 79, 45
2, 4272, Note_on_c, 0, 79, 0
2, 4272, Note_on_c, 0, 77, 45
2, 4320, Note_on_c, 0, 77, 0
2, 4320, Note_on_c, 0, 76, 45
2, 4368, Note_on_c, 0, 76, 0
2, 4368, Note_on_c, 0, 74, 45
2, 4416, Note_on_c, 0, 74, 0
2, 4416, Note_on_c, 0, 72, 45
2, 4464, Note_on_c, 0, 72, 0
2, 4464, Note_on_c, 0, 71, 45
2, 4512, Note_on_c, 0, 71, 0
2, 4512, Note_on_c, 0, 69, 45
2, 4560, Note_on_c, 0, 69, 0
2, 4560, Note_on_c, 0, 67, 45
2, 4608, Note_on_c, 0, 67, 0
2, 4608, Note_on_c, 0, 65, 45
2, 4704, Note_on_c, 0, 65, 0
2, 4704, Note_on_c, 0, 67, 45
2, 4752, Note_on_c, 0, 67, 0
2, 4752, Note_on_c, 0, 69, 45
2, 4800, Note_on_c, 0, 69, 0
2, 4800, Note_on_c, 0, 71, 45
2, 4848, Note_on_c, 0, 71, 0
2, 4848, Note_on_c, 0, 72, 45
2, 4896, Note_on_c, 0, 72, 0
2, 4896, Note_on_c, 0, 74, 45
2, 4944, Note_on_c, 0, 74, 0
2, 4944, Note_on_c, 0, 76, 45
2, 4992, Note_on_c, 0, 76, 0
2, 4992, Note_on_c, 0, 77, 45
2, 5040, Note_on_c, 0, 77, 0
2, 5040, Note_on_c, 0, 76, 45
2, 5088, Note_on_c, 0, 76, 0
2, 5088, Note_on_c, 0, 74, 45
2, 5136, Note_on_c, 0, 74, 0
2, 5136, Note_on_c, 0, 72, 45
2, 5184, Note_on_c, 0, 72, 0
2, 5184, Note_on_c, 0, 71, 45
2, 5232, Note_on_c, 0, 71, 0
2, 5232, Note_on_c, 0, 69, 45
2, 5280, Note_on_c, 0, 69, 0
2, 5280, Note_on_c, 0, 67, 45
2, 5328, Note_on_c, 0, 67, 0
2, 5328, Note_on_c, 0, 65, 45
2, 5376, Note_on_c, 0, 65, 0
2, 5376, Note_on_c, 0, 64, 45
2, 5472, Note_on_c, 0, 64, 0
2, 5472, Note_on_c, 0, 65, 45
2, 5520, Note_on_c, 0, 65, 0
2, 5520, Note_on_c, 0, 67, 45
2, 5568, Note_on_c, 0, 67, 0
2, 5568, Note_on_c, 0, 69, 45
2, 5616, Note_on_c, 0, 69, 0
2, 5616, Note_on_c, 0, 71, 45
2, 5664, Note_on_c, 0, 71, 0
2, 5664, Note_on_c, 0, 72, 45
2, 5712, Note_on_c, 0, 72, 0
2, 5712, Note_on_c, 0, 74, 45
2, 5760, Note_on_c, 0, 74, 0
2, 5760, Note_on_c, 0, 76, 45
2, 5808, Note_on_c, 0, 76, 0
2, 5808, Note_on_c, 0, 74, 45
2, 5856, Note_on_c, 0, 74, 0
2, 5856, Note_on_c, 0, 72, 45
2, 5904, Note_on_c, 0, 72, 0
2, 5904, Note_on_c, 0, 71, 45
2, 5952, Note_on_c, 0, 71, 0
2, 5952, Note_on_c, 0, 69, 45
2, 6000, Note_on_c, 0, 69, 0
2, 6000, Note_on_c, 0, 67, 45
2, 6048, Note_on_c, 0, 67, 0
2, 6048, Note_on_c, 0, 65, 45
2, 6096, Note_on_c, 0, 65, 0
2, 6096, Note_on_c, 0, 64, 45
2, 6144, Note_on_c, 0, 64, 0
2, 6144, Note_on_c, 0, 62, 45
2, 6240, Note_on_c, 0, 62, 0
2, 6240, Note_on_c, 0, 64, 45
2, 6288, Note_on_c, 0, 64, 0
2, 6288, Note_on_c, 0, 65, 45
2, 6336, Note_on_c, 0, 65, 0
2, 6336, Note_on_c, 0, 67, 45
2, 6384, Note_on_c, 0, 67, 0
2, 6384, Note_on_c, 0, 69, 45
2, 6432, Note_on_c, 0, 69, 0
2, 6432, Note_on_c, 0, 71, 45
2, 6480, Note_on_c, 0, 71, 0
2, 6480, Note_on_c, 0, 73, 45
2, 6528, Note_on_c, 0, 73, 0
2, 6528, Note_on_c, 0, 74, 45
2, 6576, Note_on_c, 0, 74, 0
2, 6576, Note_on_c, 0, 69, 45
2, 6624, Note_on_c, 0, 69, 0
2, 6624, Note_on_c, 0, 71, 45
2, 6672, Note_on_c, 0, 71, 0
2, 6672, Note_on_c, 0, 73, 45
2, 6720, Note_on_c, 0, 73, 0
2, 6720, Note_on_c, 0, 74, 45
2, 6768, Note_on_c, 0, 74, 0
2, 6768, Note_on_c, 0, 76, 47
2, 6816, Note_on_c, 0, 76, 0
2, 6816, Note_on_c, 0, 77, 49
2, 6864, Note_on_c, 0, 77, 0
2, 6864, Note_on_c, 0, 79, 51
2, 6912, Note_on_c, 0, 79, 0
2, 6912, Note_on_c, 0, 81, 53
2, 6960, Note_on_c, 0, 81, 0
2, 6960, Note_on_c, 0, 83, 55
2, 7008, Note_on_c, 0, 83, 0
2, 7008, Note_on_c, 0, 84, 57
2, 7056, Note_on_c, 0, 84, 0
2, 7056, Note_on_c, 0, 83, 59
2, 7104, Note_on_c, 0, 83, 0
2, 7104, Note_on_c, 0, 81, 61
2, 7152, Note_on_c, 0, 81, 0
2, 7152, Note_on_c, 0, 79, 63
2, 7200, Note_on_c, 0, 79, 0
2, 7200, Note_on_c, 0, 77, 65
2, 7248, Note_on_c, 0, 77, 0
2, 7248, Note_on_c, 0, 76, 67
2, 7296, Note_on_c, 0, 76, 0
2, 7296, Note_on_c, 0, 77, 69
2, 7344, Note_on_c, 0, 77, 0
2, 7344, Note_on_c, 0, 79, 71
2, 7392, Note_on_c, 0, 79, 0
2, 7392, Note_on_c, 0, 81, 74
2, 7440, Note_on_c, 0, 81, 0
2, 7440, Note_on_c, 0, 79, 77
2, 7488, Note_on_c, 0, 79, 0
2, 7488, Note_on_c, 0, 77, 80
2, 7536, Note_on_c, 0, 77, 0
2, 7536, Note_on_c, 0, 76, 83
2, 7584, Note_on_c, 0, 76, 0
2, 7584, Note_on_c, 0, 74, 86
2, 7632, Note_on_c, 0, 74, 0
2, 7632, Note_on_c, 0, 72, 89
2, 7680, Note_on_c, 0, 72, 0
2, 7680, Note_on_c, 0, 71, 127
2, 7776, Note_on_c, 0, 71, 0
2, 7776, Note_on_c, 0, 79, 92
2, 7870, Note_on_c, 0, 79, 0
2, 7872, Note_on_c, 0, 76, 92
2, 7904, Note_on_c, 0, 76, 0
2, 7968, Note_on_c, 0, 72, 92
2, 8000, Note_on_c, 0, 72, 0
2, 8064, Note_on_c, 0, 74, 127
2, 8160, Note_on_c, 0, 74, 0
2, 8160, Note_on_c, 0, 79, 92
2, 8192, Note_on_c, 0, 79, 0
2, 8256, Note_on_c, 0, 76, 92
2, 8288, Note_on_c, 0, 76, 0
2, 8352, Note_on_c, 0, 72, 92
2, 8384, Note_on_c, 0, 72, 0
2, 8448, Note_on_c, 0, 74, 92
2, 8496, Note_on_c, 0, 74, 0
2, 8640, Note_on_c, 0, 71, 92
2, 8640, Note_on_c, 0, 74, 92
2, 8640, Note_on_c, 0, 79, 92
2, 8688, Note_on_c, 0, 71, 0
2, 8688, Note_on_c, 0, 74, 0
2, 8688, Note_on_c, 0, 79, 0
2, 8832, Note_on_c, 0, 67, 92
2, 8880, Note_on_c, 0, 67, 0
2, 9984, Note_on_c, 0, 86, 84
2, 10080, Note_on_c, 0, 86, 0
2, 10080, Note_on_c, 0, 83, 60
2, 10174, Note_on_c, 0, 83, 0
2, 10176, Note_on_c, 0, 79, 60
2, 10464, Note_on_c, 0, 79, 0
2, 10464, Note_on_c, 0, 81, 60
2, 10512, Note_on_c, 0, 81, 0
2, 10512, Note_on_c, 0, 83, 60
2, 10560, Note_on_c, 0, 83, 0
2, 10560, Note_on_c, 0, 81, 60
2, 10654, Note_on_c, 0, 81, 0
2, 10656, Note_on_c, 0, 79, 60
2, 10688, Note_on_c, 0, 79, 0
2, 10752, Note_on_c, 0, 81, 84
2, 10776, Note_on_c, 0, 81, 0
2, 10776, Note_on_c, 0, 79, 60
2, 10800, Note_on_c, 0, 79, 0
2, 10800, Note_on_c, 0, 81, 60
2, 10824, Note_on_c, 0, 81, 0
2, 10824, Note_on_c, 0, 79, 60
2, 10848, Note_on_c, 0, 79, 0
2, 10848, Note_on_c, 0, 81, 60
2, 10872, Note_on_c, 0, 81, 0
2, 10872, Note_on_c, 0, 79, 60
2, 10896, Note_on_c, 0, 79, 0
2, 10896, Note_on_c, 0, 78, 60
2, 10928, Note_on_c, 0, 78, 0
2, 10944, Note_on_c, 0, 78, 60
2, 11104, Note_on_c, 0, 78, 0
2, 11520, Note_on_c, 0, 86, 84
2, 11616, Note_on_c, 0, 86, 0
2, 11616, Note_on_c, 0, 83, 60
2, 11648, Note_on_c, 0, 83, 0
2, 11712, Note_on_c, 0, 79, 60
2, 12000, Note_on_c, 0, 79, 0
2, 12000, Note_on_c, 0, 81, 60
2, 12048, Note_on_c, 0, 81, 0
2, 12048, Note_on_c, 0, 83, 60
2, 12096, Note_on_c, 0, 83, 0
2, 12096, Note_on_c, 0, 81, 60
2, 12192, Note_on_c, 0, 81, 0
2, 12192, Note_on_c, 0, 79, 60
2, 12224, Note_on_c, 0, 79, 0
2, 12288, Note_on_c, 0, 81, 84
2, 12312, Note_on_c, 0, 81, 0
2, 12312, Note_on_c, 0, 79, 60
2, 12336, Note_on_c, 0, 79, 0
2, 12336, Note_on_c, 0, 81, 60
2, 12360, Note_on_c, 0, 81, 0
2, 12360, Note_on_c, 0, 79, 60
2, 12384, Note_on_c, 0, 79, 0
2, 12384, Note_on_c, 0, 81, 60
2, 12408, Note_on_c, 0, 81, 0
2, 12408, Note_on_c, 0, 79, 60
2, 12432, Note_on_c, 0, 79, 0
2, 12432, Note_on_c, 0, 78, 60
2, 12464, Note_on_c, 0, 78, 0
2, 12480, Note_on_c, 0, 78, 60
2, 12640, Note_on_c, 0, 78, 0
2, 13056, Note_on_c, 0, 86, 84
2, 13216, Note_on_c, 0, 86, 0
2, 13296, Note_on_c, 0, 86, 60
2, 13344, Note_on_c, 0, 86, 0
2, 13344, Note_on_c, 0, 83, 60
2, 13392, Note_on_c, 0, 83, 0
2, 13392, Note_on_c, 0, 79, 60
2, 13440, Note_on_c, 0, 79, 0
2, 13440, Note_on_c, 0, 76, 60
2, 13600, Note_on_c, 0, 76, 0
2, 13680, Note_on_c, 0, 76, 60
2, 13728, Note_on_c, 0, 76, 0
2, 13728, Note_on_c, 0, 79, 60
2, 13776, Note_on_c, 0, 79, 0
2, 13776, Note_on_c, 0, 76, 60
2, 13824, Note_on_c, 0, 76, 0
2, 13824, Note_on_c, 0, 84, 60
2, 13984, Note_on_c, 0, 84, 0
2, 14064, Note_on_c, 0, 84, 60
2, 14110, Note_on_c, 0, 84, 0
2, 14112, Note_on_c, 0, 81, 60
2, 14158, Note_on_c, 0, 81, 0
2, 14160, Note_on_c, 0, 78, 60
2, 14206, Note_on_c, 0, 78, 0
2, 14208, Note_on_c, 0, 74, 60
2, 14368, Note_on_c, 0, 74, 0
2, 14448, Note_on_c, 0, 74, 60
2, 14496, Note_on_c, 0, 74, 0
2, 14496, Note_on_c, 0, 78, 60
2, 14544, Note_on_c, 0, 78, 0
2, 14544, Note_on_c, 0, 74, 60
2, 14592, Note_on_c, 0, 74, 0
2, 14592, Note_on_c, 0, 83, 84
2, 14752, Note_on_c, 0, 83, 0
2, 14832, Note_on_c, 0, 83, 60
2, 14880, Note_on_c, 0, 83, 0
2, 14880, Note_on_c, 0, 79, 60
2, 14928, Note_on_c, 0, 79, 0
2, 14928, Note_on_c, 0, 76, 60
2, 14976, Note_on_c, 0, 76, 0
2, 14976, Note_on_c, 0, 72, 60
2, 15136, Note_on_c, 0, 72, 0
2, 15216, Note_on_c, 0, 72, 60
2, 15262, Note_on_c, 0, 72, 0
2, 15264, Note_on_c, 0, 76, 60
2, 15310, Note_on_c, 0, 76, 0
2, 15312, Note_on_c, 0, 72, 60
2, 15358, Note_on_c, 0, 72, 0
2, 15360, Note_on_c, 0, 81, 84
2, 15520, Note_on_c, 0, 81, 0
2, 15600, Note_on_c, 0, 81, 60
2, 15648, Note_on_c, 0, 81, 0
2, 15648, Note_on_c, 0, 78, 60
2, 15696, Note_on_c, 0, 78, 0
2, 15696, Note_on_c, 0, 74, 60
2, 15744, Note_on_c, 0, 74, 0
2, 15744, Note_on_c, 0, 71, 60
2, 15904, Note_on_c, 0, 71, 0
2, 15984, Note_on_c, 0, 79, 60
2, 16032, Note_on_c, 0, 79, 0
2, 16032, Note_on_c, 0, 74, 60
2, 16080, Note_on_c, 0, 74, 0
2, 16080, Note_on_c, 0, 71, 60
2, 16128, Note_on_c, 0, 71, 0
2, 16128, Note_on_c, 0, 69, 45
2, 16464, Note_on_c, 0, 69, 0
2, 16512, Note_on_c, 0, 71, 45
2, 16536, Note_on_c, 0, 71, 0
2, 16536, Note_on_c, 0, 72, 63
2, 16702, Note_on_c, 0, 72, 0
2, 16704, Note_on_c, 0, 75, 51
2, 16728, Note_on_c, 0, 75, 0
2, 16728, Note_on_c, 0, 76, 72
2, 16894, Note_on_c, 0, 76, 0
2, 16896, Note_on_c, 0, 80, 59
2, 16920, Note_on_c, 0, 80, 0
2, 16920, Note_on_c, 0, 81, 84
2, 17182, Note_on_c, 0, 81, 0
2, 17184, Note_on_c, 0, 83, 71
2, 17208, Note_on_c, 0, 83, 0
2, 17208, Note_on_c, 0, 81, 72
2, 17232, Note_on_c, 0, 81, 0
2, 17232, Note_on_c, 0, 80, 73
2, 17256, Note_on_c, 0, 80, 0
2, 17256, Note_on_c, 0, 81, 74
2, 17280, Note_on_c, 0, 81, 0
2, 17280, Note_on_c, 0, 84, 75
2, 17376, Note_on_c, 0, 84, 0
2, 17376, Note_on_c, 0, 81, 79
2, 17408, Note_on_c, 0, 81, 0
2, 17472, Note_on_c, 0, 84, 83
2, 17568, Note_on_c, 0, 84, 0
2, 17568, Note_on_c, 0, 81, 87
2, 17600, Note_on_c, 0, 81, 0
2, 17664, Note_on_c, 0, 83, 92
2, 17760, Note_on_c, 0, 83, 0
2, 17760, Note_on_c, 0, 79, 92
2, 17792, Note_on_c, 0, 79, 0
2, 17856, Note_on_c, 0, 86, 92
2, 18240, Note_on_c, 0, 86, 0
2, 18240, Note_on_c, 0, 84, 92
2, 18288, Note_on_c, 0, 84, 0
2, 18288, Note_on_c, 0, 83, 92
2, 18336, Note_on_c, 0, 83, 0
2, 18336, Note_on_c, 0, 81, 92
2, 18384, Note_on_c, 0, 81, 0
2, 18384, Note_on_c, 0, 79, 92
2, 18430, Note_on_c, 0, 79, 0
2, 18432, Note_on_c, 0, 83, 92
2, 18456, Note_on_c, 0, 83, 0
2, 18456, Note_on_c, 0, 81, 92
2, 18480, Note_on_c, 0, 81, 0
2, 18480, Note_on_c, 0, 83, 92
2, 18504, Note_on_c, 0, 83, 0
2, 18504, Note_on_c, 0, 81, 92
2, 18528, Note_on_c, 0, 81, 0
2, 18528, Note_on_c, 0, 83, 92
2, 18552, Note_on_c, 0, 83, 0
2, 18552, Note_on_c, 0, 81, 92
2, 18576, Note_on_c, 0, 81, 0
2, 18576, Note_on_c, 0, 83, 92
2, 18600, Note_on_c, 0, 83, 0
2, 18600, Note_on_c, 0, 81, 92
2, 18624, Note_on_c, 0, 81, 0
2, 18624, Note_on_c, 0, 83, 92
2, 18648, Note_on_c, 0, 83, 0
2, 18648, Note_on_c, 0, 81, 92
2, 18672, Note_on_c, 0, 81, 0
2, 18672, Note_on_c, 0, 83, 92
2, 18696, Note_on_c, 0, 83, 0
2, 18696, Note_on_c, 0, 81, 92
2, 18720, Note_on_c, 0, 81, 0
2, 18720, Note_on_c, 0, 83, 92
2, 18744, Note_on_c, 0, 83, 0
2, 18744, Note_on_c, 0, 81, 92
2, 18768, Note_on_c, 0, 81, 0
2, 18768, Note_on_c, 0, 83, 92
2, 18792, Note_on_c, 0, 83, 0
2, 18792, Note_on_c, 0, 81, 92
2, 18816, Note_on_c, 0, 81, 0
2, 18816, Note_on_c, 0, 83, 92
2, 18840, Note_on_c, 0, 83, 0
2, 18840, Note_on_c, 0, 81, 92
2, 18864, Note_on_c, 0, 81, 0
2, 18864, Note_on_c, 0, 83, 92
2, 18888, Note_on_c, 0, 83, 0
2, 18888, Note_on_c, 0, 81, 92
2, 18912, Note_on_c, 0, 81, 0
2, 18912, Note_on_c, 0, 83, 92
2, 18936, Note_on_c, 0, 83, 0
2, 18936, Note_on_c, 0, 81, 92
2, 18960, Note_on_c, 0, 81, 0
2, 18960, Note_on_c, 0, 83, 92
2, 18984, Note_on_c, 0, 83, 0
2, 18984, Note_on_c, 0, 81, 92
2, 19008, Note_on_c, 0, 81, 0
2, 19008, Note_on_c, 0, 83, 92
2, 19032, Note_on_c, 0, 83, 0
2, 19032, Note_on_c, 0, 81, 92
2, 19056, Note_on_c, 0, 81, 0
2, 19056, Note_on_c, 0, 83, 92
2, 19080, Note_on_c, 0, 83, 0
2, 19080, Note_on_c, 0, 81, 92
2, 19104, Note_on_c, 0, 81, 0
2, 19104, Note_on_c, 0, 83, 92
2, 19128, Note_on_c, 0, 83, 0
2, 19128, Note_on_c, 0, 81, 92
2, 19152, Note_on_c, 0, 81, 0
2, 19152, Note_on_c, 0, 79, 92
2, 19176, Note_on_c, 0, 79, 0
2, 19176, Note_on_c, 0, 81, 92
2, 19200, Note_on_c, 0, 81, 0
2, 19200, Note_on_c, 0, 79, 92
2, 19248, Note_on_c, 0, 79, 0
2, 19392, Note_on_c, 0, 79, 92
2, 19440, Note_on_c, 0, 79, 0
2, 19440, Note_on_c, 0, 74, 92
2, 19488, Note_on_c, 0, 74, 0
2, 19488, Note_on_c, 0, 79, 92
2, 19536, Note_on_c, 0, 79, 0
2, 19536, Note_on_c, 0, 83, 92
2, 19584, Note_on_c, 0, 83, 0
2, 19584, Note_on_c, 0, 86, 127
2, 19632, Note_on_c, 0, 86, 0
2, 19632, Note_on_c, 0, 83, 92
2, 19680, Note_on_c, 0, 83, 0
2, 19680, Note_on_c, 0, 79, 92
2, 19728, Note_on_c, 0, 79, 0
2, 19728, Note_on_c, 0, 83, 92
2, 19776, Note_on_c, 0, 83, 0
2, 19776, Note_on_c, 0, 84, 127
2, 19824, Note_on_c, 0, 84, 0
2, 19824, Note_on_c, 0, 81, 92
2, 19872, Note_on_c, 0, 81, 0
2, 19872, Note_on_c, 0, 78, 92
2, 19920, Note_on_c, 0, 78, 0
2, 19920, Note_on_c, 0, 81, 92
2, 19968, Note_on_c, 0, 81, 0
2, 19968, Note_on_c, 0, 79, 92
2, 20016, Note_on_c, 0, 79, 0
2, 20160, Note_on_c, 0, 67, 92
2, 20208, Note_on_c, 0, 67, 0
2, 20208, Note_on_c, 0, 62, 92
2, 20256, Note_on_c, 0, 62, 0
2, 20256, Note_on_c, 0, 67, 92
2, 20304, Note_on_c, 0, 67, 0
2, 20304, Note_on_c, 0, 71, 92
2, 20352, Note_on_c, 0, 71, 0
2, 20352, Note_on_c, 0, 74, 127
2, 20400, Note_on_c, 0, 74, 0
2, 20400, Note_on_c, 0, 71, 92
2, 20448, Note_on_c, 0, 71, 0
2, 20448, Note_on_c, 0, 67, 92
2, 20496, Note_on_c, 0, 67, 0
2, 20496, Note_on_c, 0, 71, 92
2, 20544, Note_on_c, 0, 71, 0
2, 20544, Note_on_c, 0, 72, 92
2, 20592, Note_on_c, 0, 72, 0
2, 20592, Note_on_c, 0, 69, 92
2, 20640, Note_on_c, 0, 69, 0
2, 20640, Note_on_c, 0, 66, 92
2, 20688, Note_on_c, 0, 66, 0
2, 20688, Note_on_c, 0, 69, 92
2, 20736, Note_on_c, 0, 69, 0
2, 20736, Note_on_c, 0, 67, 92
2, 20784, Note_on_c, 0, 67, 0
2, 20928, Note_on_c, 0, 74, 92
2, 20928, Note_on_c, 0, 83, 92
2, 20976, Note_on_c, 0, 74, 0
2, 20976, Note_on_c, 0, 83, 0
2, 21120, Note_on_c, 0, 71, 92
2, 21120, Note_on_c, 0, 79, 92
2, 21168, Note_on_c, 0, 71, 0
2, 21168, Note_on_c, 0, 79, 0
2, 21504, Note_on_c, 0, 72, 60
2, 21888, Note_on_c, 0, 72, 0
2, 21888, Note_on_c, 0, 76, 60
2, 22080, Note_on_c, 0, 76, 0
2, 22080, Note_on_c, 0, 79, 60
2, 22272, Note_on_c, 0, 79, 0
2, 22272, Note_on_c, 0, 71, 84
2, 22560, Note_on_c, 0, 71, 0
2, 22560, Note_on_c, 0, 72, 60
2, 22608, Note_on_c, 0, 72, 0
2, 22608, Note_on_c, 0, 74, 60
2, 22656, Note_on_c, 0, 74, 0
2, 22656, Note_on_c, 0, 72, 60
2, 22816, Note_on_c, 0, 72, 0
2, 23040, Note_on_c, 0, 81, 84
2, 23424, Note_on_c, 0, 81, 0
2, 23424, Note_on_c, 0, 79, 60
2, 23616, Note_on_c, 0, 79, 0
2, 23616, Note_on_c, 0, 84, 60
2, 23808, Note_on_c, 0, 84, 0
2, 23808, Note_on_c, 0, 79, 84
2, 24000, Note_on_c, 0, 79, 0
2, 24000, Note_on_c, 0, 77, 60
2, 24032, Note_on_c, 0, 77, 0
2, 24032, Note_on_c, 0, 79, 60
2, 24064, Note_on_c, 0, 79, 0
2, 24064, Note_on_c, 0, 77, 60
2, 24096, Note_on_c, 0, 77, 0
2, 24096, Note_on_c, 0, 76, 60
2, 24144, Note_on_c, 0, 76, 0
2, 24144, Note_on_c, 0, 77, 60
2, 24192, Note_on_c, 0, 77, 0
2, 24192, Note_on_c, 0, 76, 60
2, 24352, Note_on_c, 0, 76, 0
2, 24576, Note_on_c, 0, 69, 45
2, 24672, Note_on_c, 0, 69, 0
2, 24672, Note_on_c, 0, 71, 45
2, 24720, Note_on_c, 0, 71, 0
2, 24720, Note_on_c, 0, 72, 45
2, 24768, Note_on_c, 0, 72, 0
2, 24768, Note_on_c, 0, 74, 45
2, 24816, Note_on_c, 0, 74, 0
2, 24816, Note_on_c, 0, 76, 45
2, 24864, Note_on_c, 0, 76, 0
2, 24864, Note_on_c, 0, 77, 45
2, 24912, Note_on_c, 0, 77, 0
2, 24912, Note_on_c, 0, 79, 45
2, 24960, Note_on_c, 0, 79, 0
2, 24960, Note_on_c, 0, 81, 45
2, 25008, Note_on_c, 0, 81, 0
2, 25008, Note_on_c, 0, 79, 45
2, 25056, Note_on_c, 0, 79, 0
2, 25056, Note_on_c, 0, 77, 45
2, 25104, Note_on_c, 0, 77, 0
2, 25104, Note_on_c, 0, 76, 45
2, 25152, Note_on_c, 0, 76, 0
2, 25152, Note_on_c, 0, 74, 45
2, 25200, Note_on_c, 0, 74, 0
2, 25200, Note_on_c, 0, 72, 45
2, 25248, Note_on_c, 0, 72, 0
2, 25248, Note_on_c, 0, 71, 45
2, 25296, Note_on_c, 0, 71, 0
2, 25296, Note_on_c, 0, 69, 45
2, 25344, Note_on_c, 0, 69, 0
2, 25344, Note_on_c, 0, 67, 45
2, 25440, Note_on_c, 0, 67, 0
2, 25440, Note_on_c, 0, 69, 45
2, 25488, Note_on_c, 0, 69, 0
2, 25488, Note_on_c, 0, 71, 45
2, 25536, Note_on_c, 0, 71, 0
2, 25536, Note_on_c, 0, 72, 45
2, 25584, Note_on_c, 0, 72, 0
2, 25584, Note_on_c, 0, 74, 45
2, 25632, Note_on_c, 0, 74, 0
2, 25632, Note_on_c, 0, 76, 45
2, 25680, Note_on_c, 0, 76, 0
2, 25680, Note_on_c, 0, 77, 45
2, 25728, Note_on_c, 0, 77, 0
2, 25728, Note_on_c, 0, 79, 45
2, 25776, Note_on_c, 0, 79, 0
2, 25776, Note_on_c, 0, 77, 45
2, 25824, Note_on_c, 0, 77, 0
2, 25824, Note_on_c, 0, 76, 45
2, 25872, Note_on_c, 0, 76, 0
2, 25872, Note_on_c, 0, 74, 45
2, 25920, Note_on_c, 0, 74, 0
2, 25920, Note_on_c, 0, 72, 45
2, 25968, Note_on_c, 0, 72, 0
2, 25968, Note_on_c, 0, 71, 45
2, 26016, Note_on_c, 0, 71, 0
2, 26016, Note_on_c, 0, 69, 45
2, 26064, Note_on_c, 0, 69, 0
2, 26064, Note_on_c, 0, 67, 45
2, 26112, Note_on_c, 0, 67, 0
2, 26112, Note_on_c, 0, 65, 45
2, 26208, Note_on_c, 0, 65, 0
2, 26208, Note_on_c, 0, 67, 45
2, 26256, Note_on_c, 0, 67, 0
2, 26256, Note_on_c, 0, 69, 45
2, 26304, Note_on_c, 0, 69, 0
2, 26304, Note_on_c, 0, 71, 45
2, 26352, Note_on_c, 0, 71, 0
2, 26352, Note_on_c, 0, 72, 45
2, 26400, Note_on_c, 0, 72, 0
2, 26400, Note_on_c, 0, 74, 45
2, 26448, Note_on_c, 0, 74, 0
2, 26448, Note_on_c, 0, 76, 45
2, 26496, Note_on_c, 0, 76, 0
2, 26496, Note_on_c, 0, 77, 45
2, 26544, Note_on_c, 0, 77, 0
2, 26544, Note_on_c, 0, 76, 45
2, 26592, Note_on_c, 0, 76, 0
2, 26592, Note_on_c, 0, 74, 45
2, 26640, Note_on_c, 0, 74, 0
2, 26640, Note_on_c, 0, 72, 45
2, 26688, Note_on_c, 0, 72, 0
2, 26688, Note_on_c, 0, 71, 45
2, 26736, Note_on_c, 0, 71, 0
2, 26736, Note_on_c, 0, 69, 45
2, 26784, Note_on_c, 0, 69, 0
2, 26784, Note_on_c, 0, 67, 45
2, 26832, Note_on_c, 0, 67, 0
2, 26832, Note_on_c, 0, 65, 45
2, 26880, Note_on_c, 0, 65, 0
2, 26880, Note_on_c, 0, 64, 45
2, 26976, Note_on_c, 0, 64, 0
2, 26976, Note_on_c, 0, 65, 45
2, 27024, Note_on_c, 0, 65, 0
2, 27024, Note_on_c, 0, 67, 45
2, 27072, Note_on_c, 0, 67, 0
2, 27072, Note_on_c, 0, 69, 45
2, 27120, Note_on_c, 0, 69, 0
2, 27120, Note_on_c, 0, 71, 45
2, 27168, Note_on_c, 0, 71, 0
2, 27168, Note_on_c, 0, 72, 45
2, 27216, Note_on_c, 0, 72, 0
2, 27216, Note_on_c, 0, 74, 45
2, 27264, Note_on_c, 0, 74, 0
2, 27264, Note_on_c, 0, 76, 45
2, 27312, Note_on_c, 0, 76, 0
2, 27312, Note_on_c, 0, 74, 45
2, 27360, Note_on_c, 0, 74, 0
2, 27360, Note_on_c, 0, 72, 45
2, 27408, Note_on_c, 0, 72, 0
2, 27408, Note_on_c, 0, 71, 45
2, 27456, Note_on_c, 0, 71, 0
2, 27456, Note_on_c, 0, 69, 45
2, 27504, Note_on_c, 0, 69, 0
2, 27504, Note_on_c, 0, 67, 45
2, 27552, Note_on_c, 0, 67, 0
2, 27552, Note_on_c, 0, 65, 45
2, 27600, Note_on_c, 0, 65, 0
2, 27600, Note_on_c, 0, 64, 45
2, 27648, Note_on_c, 0, 64, 0
2, 27648, Note_on_c, 0, 62, 45
2, 27744, Note_on_c, 0, 62, 0
2, 27744, Note_on_c, 0, 64, 45
2, 27792, Note_on_c, 0, 64, 0
2, 27792, Note_on_c, 0, 65, 45
2, 27840, Note_on_c, 0, 65, 0
2, 27840, Note_on_c, 0, 67, 45
2, 27888, Note_on_c, 0, 67, 0
2, 27888, Note_on_c, 0, 69, 45
2, 27936, Note_on_c, 0, 69, 0
2, 27936, Note_on_c, 0, 71, 45
2, 27984, Note_on_c, 0, 71, 0
2, 27984, Note_on_c, 0, 73, 45
2, 28032, Note_on_c, 0, 73, 0
2, 28032, Note_on_c, 0, 74, 45
2, 28080, Note_on_c, 0, 74, 0
2, 28080, Note_on_c, 0, 69, 45
2, 28128, Note_on_c, 0, 69, 0
2, 28128, Note_on_c, 0, 71, 45
2, 28176, Note_on_c, 0, 71, 0
2, 28176, Note_on_c, 0, 73, 45
2, 28224, Note_on_c, 0, 73, 0
2, 28224, Note_on_c, 0, 74, 45
2, 28272, Note_on_c, 0, 74, 0
2, 28272, Note_on_c, 0, 76, 47
2, 28320, Note_on_c, 0, 76, 0
2, 28320, Note_on_c, 0, 77, 49
2, 28368, Note_on_c, 0, 77, 0
2, 28368, Note_on_c, 0, 79, 51
2, 28416, Note_on_c, 0, 79, 0
2, 28416, Note_on_c, 0, 81, 53
2, 28464, Note_on_c, 0, 81, 0
2, 28464, Note_on_c, 0, 83, 55
2, 28512, Note_on_c, 0, 83, 0
2, 28512, Note_on_c, 0, 84, 57
2, 28560, Note_on_c, 0, 84, 0
2, 28560, Note_on_c, 0, 83, 59
2, 28608, Note_on_c, 0, 83, 0
2, 28608, Note_on_c, 0, 81, 61
2, 28656, Note_on_c, 0, 81, 0
2, 28656, Note_on_c, 0, 79, 63
2, 28704, Note_on_c, 0, 79, 0
2, 28704, Note_on_c, 0, 77, 65
2, 28752, Note_on_c, 0, 77, 0
2, 28752, Note_on_c, 0, 76, 67
2, 28800, Note_on_c, 0, 76, 0
2, 28800, Note_on_c, 0, 77, 69
2, 28848, Note_on_c, 0, 77, 0
2, 28848, Note_on_c, 0, 79, 71
2, 28896, Note_on_c, 0, 79, 0
2, 28896, Note_on_c, 0, 81, 74
2, 28944, Note_on_c, 0, 81, 0
2, 28944, Note_on_c, 0, 79, 77
2, 28992, Note_on_c, 0, 79, 0
2, 28992, Note_on_c, 0, 77, 80
2, 29040, Note_on_c, 0, 77, 0
2, 29040, Note_on_c, 0, 76, 83
2, 29088, Note_on_c, 0, 76, 0
2, 29088, Note_on_c, 0, 74, 86
2, 29136, Note_on_c, 0, 74, 0
2, 29136, Note_on_c, 0, 72, 89
2, 29184, Note_on_c, 0, 72, 0
2, 29184, Note_on_c, 0, 71, 127
2, 29280, Note_on_c, 0, 71, 0
2, 29280, Note_on_c, 0, 79, 92
2, 29374, Note_on_c, 0, 79, 0
2, 29376, Note_on_c, 0, 76, 92
2, 29408, Note_on_c, 0, 76, 0
2, 29472, Note_on_c, 0, 72, 92
2, 29504, Note_on_c, 0, 72, 0
2, 29568, Note_on_c, 0, 74, 127
2, 29664, Note_on_c, 0, 74, 0
2, 29664, Note_on_c, 0, 79, 92
2, 29696, Note_on_c, 0, 79, 0
2, 29760, Note_on_c, 0, 76, 92
2, 29792, Note_on_c, 0, 76, 0
2, 29856, Note_on_c, 0, 72, 92
2, 29888, Note_on_c, 0, 72, 0
2, 29952, Note_on_c, 0, 74, 92
2, 30000, Note_on_c, 0, 74, 0
2, 30144, Note_on_c, 0, 71, 92
2, 30144, Note_on_c, 0, 74, 92
2, 30144, Note_on_c, 0, 79, 92
2, 30192, Note_on_c, 0, 71, 0
2, 30192, Note_on_c, 0, 74, 0
2, 30192, Note_on_c, 0, 79, 0
2, 30336, Note_on_c, 0, 67, 92
2, 30384, Note_on_c, 0, 67, 0
2, 31488, Note_on_c, 0, 86, 84
2, 31584, Note_on_c, 0, 86, 0
2, 31584, Note_on_c, 0, 83, 60
2, 31678, Note_on_c, 0, 83, 0
2, 31680, Note_on_c, 0, 79, 60
2, 31968, Note_on_c, 0, 79, 0
2, 31968, Note_on_c, 0, 81, 60
2, 32016, Note_on_c, 0, 81, 0
2, 32016, Note_on_c, 0, 83, 60
2, 32064, Note_on_c, 0, 83, 0
2, 32064, Note_on_c, 0, 81, 60
2, 32158, Note_on_c, 0, 81, 0
2, 32160, Note_on_c, 0, 79, 60
2, 32192, Note_on_c, 0, 79, 0
2, 32256, Note_on_c, 0, 81, 84
2, 32280, Note_on_c, 0, 81, 0
2, 32280, Note_on_c, 0, 79, 60
2, 32304, Note_on_c, 0, 79, 0
2, 32304, Note_on_c, 0, 81, 60
2, 32328, Note_on_c, 0, 81, 0
2, 32328, Note_on_c, 0, 79, 60
2, 32352, Note_on_c, 0, 79, 0
2, 32352, Note_on_c, 0, 81, 60
2, 32376, Note_on_c, 0, 81, 0
2, 32376, Note_on_c, 0, 79, 60
2, 32400, Note_on_c, 0, 79, 0
2, 32400, Note_on_c, 0, 78, 60
2, 32432, Note_on_c, 0, 78, 0
2, 32448, Note_on_c, 0, 78, 60
2, 32608, Note_on_c, 0, 78, 0
2, 33024, Note_on_c, 0, 86, 84
2, 33120, Note_on_c, 0, 86, 0
2, 33120, Note_on_c, 0, 83, 60
2, 33152, Note_on_c, 0, 83, 0
2, 33216, Note_on_c, 0, 79, 60
2, 33504, Note_on_c, 0, 79, 0
2, 33504, Note_on_c, 0, 81, 60
2, 33552, Note_on_c, 0, 81, 0
2, 33552, Note_on_c, 0, 83, 60
2, 33600, Note_on_c, 0, 83, 0
2, 33600, Note_on_c, 0, 81, 60
2, 33696, Note_on_c, 0, 81, 0
2, 33696, Note_on_c, 0, 79, 60
2, 33728, Note_on_c, 0, 79, 0
2, 33792, Note_on_c, 0, 81, 84
2, 33816, Note_on_c, 0, 81, 0
2, 33816, Note_on_c, 0, 79, 60
2, 33840, Note_on_c, 0, 79, 0
2, 33840, Note_on_c, 0, 81, 60
2, 33864, Note_on_c, 0, 81, 0
2, 33864, Note_on_c, 0, 79, 60
2, 33888, Note_on_c, 0, 79, 0
2, 33888, Note_on_c, 0, 81, 60
2, 33912, Note_on_c, 0, 81, 0
2, 33912, Note_on_c, 0, 79, 60
2, 33936, Note_on_c, 0, 79, 0
2, 33936, Note_on_c, 0, 78, 60
2, 33968, Note_on_c, 0, 78, 0
2, 33984, Note_on_c, 0, 78, 60
2, 34144, Note_on_c, 0, 78, 0
2, 34560, Note_on_c, 0, 86, 84
2, 34720, Note_on_c, 0, 86, 0
2, 34800, Note_on_c, 0, 86, 60
2, 34848, Note_on_c, 0, 86, 0
2, 34848, Note_on_c, 0, 83, 60
2, 34896, Note_on_c, 0, 83, 0
2, 34896, Note_on_c, 0, 79, 60
2, 34944, Note_on_c, 0, 79, 0
2, 34944, Note_on_c, 0, 76, 60
2, 35104, Note_on_c, 0, 76, 0
2, 35184, Note_on_c, 0, 76, 60
2, 35232, Note_on_c, 0, 76, 0
2, 35232, Note_on_c, 0, 79, 60
2, 35280, Note_on_c, 0, 79, 0
2, 35280, Note_on_c, 0, 76, 60
2, 35328, Note_on_c, 0, 76, 0
2, 35328, Note_on_c, 0, 84, 60
2, 35488, Note_on_c, 0, 84, 0
2, 35568, Note_on_c, 0, 84, 60
2, 35614, Note_on_c, 0, 84, 0
2, 35616, Note_on_c, 0, 81, 60
2, 35662, Note_on_c, 0, 81, 0
2, 35664, Note_on_c, 0, 78, 60
2, 35710, Note_on_c, 0, 78, 0
2, 35712, Note_on_c, 0, 74, 60
2, 35872, Note_on_c, 0, 74, 0
2, 35952, Note_on_c, 0, 74, 60
2, 36000, Note_on_c, 0, 74, 0
2, 36000, Note_on_c, 0, 78, 60
2, 36048, Note_on_c, 0, 78, 0
2, 36048, Note_on_c, 0, 74, 60
2, 36096, Note_on_c, 0, 74, 0
2, 36096, Note_on_c, 0, 83, 84
2, 36256, Note_on_c, 0, 83, 0
2, 36336, Note_on_c, 0, 83, 60
2, 36384, Note_on_c, 0, 83, 0
2, 36384, Note_on_c, 0, 79, 60
2, 36432, Note_on_c, 0, 79, 0
2, 36432, Note_on_c, 0, 76, 60
2, 36480, Note_on_c, 0, 76, 0
2, 36480, Note_on_c, 0, 72, 60
2, 36640, Note_on_c, 0, 72, 0
2, 36720, Note_on_c, 0, 72, 60
2, 36766, Note_on_c, 0, 72, 0
2, 36768, Note_on_c, 0, 76, 60
2, 36814, Note_on_c, 0, 76, 0
2, 36816, Note_on_c, 0, 72, 60
2, 36862, Note_on_c, 0, 72, 0
2, 36864, Note_on_c, 0, 81, 84
2, 37024, Note_on_c, 0, 81, 0
2, 37104, Note_on_c, 0, 81, 60
2, 37152, Note_on_c, 0, 81, 0
2, 37152, Note_on_c, 0, 78, 60
2, 37200, Note_on_c, 0, 78, 0
2, 37200, Note_on_c, 0, 74, 60
2, 37248, Note_on_c, 0, 74, 0
2, 37248, Note_on_c, 0, 71, 60
2, 37408, Note_on_c, 0, 71, 0
2, 37488, Note_on_c, 0, 79, 60
2, 37536, Note_on_c, 0, 79, 0
2, 37536, Note_on_c, 0, 74, 60
2, 37584, Note_on_c, 0, 74, 0
2, 37584, Note_on_c, 0, 71, 60
2, 37632, Note_on_c, 0, 71, 0
2, 37632, Note_on_c, 0, 69, 45
2, 37968, Note_on_c, 0, 69, 0
2, 38016, Note_on_c, 0, 71, 45
2, 38040, Note_on_c, 0, 71, 0
2, 38040, Note_on_c, 0, 72, 63
2, 38206, Note_on_c, 0, 72, 0
2, 38208, Note_on_c, 0, 75, 51
2, 38232, Note_on_c, 0, 75, 0
2, 38232, Note_on_c, 0, 76, 72
2, 38398, Note_on_c, 0, 76, 0
2, 38400, Note_on_c, 0, 80, 59
2, 38424, Note_on_c, 0, 80, 0
2, 38424, Note_on_c, 0, 81, 84
2, 38686, Note_on_c, 0, 81, 0
2, 38688, Note_on_c, 0, 83, 71
2, 38712, Note_on_c, 0, 83, 0
2, 38712, Note_on_c, 0, 81, 72
2, 38736, Note_on_c, 0, 81, 0
2, 38736, Note_on_c, 0, 80, 73
2, 38760, Note_on_c, 0, 80, 0
2, 38760, Note_on_c, 0, 81, 74
2, 38784, Note_on_c, 0, 81, 0
2, 38784, Note_on_c, 0, 84, 75
2, 38880, Note_on_c, 0, 84, 0
2, 38880, Note_on_c, 0, 81, 79
2, 38912, Note_on_c, 0, 81, 0
2, 38976, Note_on_c, 0, 84, 83
2, 39072, Note_on_c, 0, 84, 0
2, 39072, Note_on_c, 0, 81, 87
2, 39104, Note_on_c, 0, 81, 0
2, 39168, Note_on_c, 0, 83, 92
2, 39264, Note_on_c, 0, 83, 0
2, 39264, Note_on_c, 0, 79, 92
2, 39296, Note_on_c, 0, 79, 0
2, 39360, Note_on_c, 0, 86, 92
2, 39744, Note_on_c, 0, 86, 0
2, 39744, Note_on_c, 0, 84, 92
2, 39792, Note_on_c, 0, 84, 0
2, 39792, Note_on_c, 0, 83, 92
2, 39840, Note_on_c, 0, 83, 0
2, 39840, Note_on_c, 0, 81, 92
2, 39888, Note_on_c, 0, 81, 0
2, 39888, Note_on_c, 0, 79, 92
2, 39934, Note_on_c, 0, 79, 0
2, 39936, Note_on_c, 0, 83, 92
2, 39960, Note_on_c, 0, 83, 0
2, 39960, Note_on_c, 0, 81, 92
2, 39984, Note_on_c, 0, 81, 0
2, 39984, Note_on_c, 0, 83, 92
2, 40008, Note_on_c, 0, 83, 0
2, 40008, Note_on_c, 0, 81, 92
2, 40032, Note_on_c, 0, 81, 0
2, 40032, Note_on_c, 0, 83, 92
2, 40056, Note_on_c, 0, 83, 0
2, 40056, Note_on_c, 0, 81, 92
2, 40080, Note_on_c, 0, 81, 0
2, 40080, Note_on_c, 0, 83, 92
2, 40104, Note_on_c, 0, 83, 0
2, 40104, Note_on_c, 0, 81, 92
2, 40128, Note_on_c, 0, 81, 0
2, 40128, Note_on_c, 0, 83, 92
2, 40152, Note_on_c, 0, 83, 0
2, 40152, Note_on_c, 0, 81, 92
2, 40176, Note_on_c, 0, 81, 0
2, 40176, Note_on_c, 0, 83, 92
2, 40200, Note_on_c, 0, 83, 0
2, 40200, Note_on_c, 0, 81, 92
2, 40224, Note_on_c, 0, 81, 0
2, 40224, Note_on_c, 0, 83, 92
2, 40248, Note_on_c, 0, 83, 0
2, 40248, Note_on_c, 0, 81, 92
2, 40272, Note_on_c, 0, 81, 0
2, 40272, Note_on_c, 0, 83, 92
2, 40296, Note_on_c, 0, 83, 0
2, 40296, Note_on_c, 0, 81, 92
2, 40320, Note_on_c, 0, 81, 0
2, 40320, Note_on_c, 0, 83, 92
2, 40344, Note_on_c, 0, 83, 0
2, 40344, Note_on_c, 0, 81, 92
2, 40368, Note_on_c, 0, 81, 0
2, 40368, Note_on_c, 0, 83, 92
2, 40392, Note_on_c, 0, 83, 0
2, 40392, Note_on_c, 0, 81, 92
2, 40416, Note_on_c, 0, 81, 0
2, 40416, Note_on_c, 0, 83, 92
2, 40440, Note_on_c, 0, 83, 0
2, 40440, Note_on_c, 0, 81, 92
2, 40464, Note_on_c, 0, 81, 0
2, 40464, Note_on_c, 0, 83, 92
2, 40488, Note_on_c, 0, 83, 0
2, 40488, Note_on_c, 0, 81, 92
2, 40512, Note_on_c, 0, 81, 0
2, 40512, Note_on_c, 0, 83, 92
2, 40536, Note_on_c, 0, 83, 0
2, 40536, Note_on_c, 0, 81, 92
2, 40560, Note_on_c, 0, 81, 0
2, 40560, Note_on_c, 0, 83, 92
2, 40584, Note_on_c, 0, 83, 0
2, 40584, Note_on_c, 0, 81, 92
2, 40608, Note_on_c, 0, 81, 0
2, 40608, Note_on_c, 0, 83, 92
2, 40632, Note_on_c, 0, 83, 0
2, 40632, Note_on_c, 0, 81, 92
2, 40656, Note_on_c, 0, 81, 0
2, 40656, Note_on_c, 0, 79, 92
2, 40680, Note_on_c, 0, 79, 0
2, 40680, Note_on_c, 0, 81, 92
2, 40704, Note_on_c, 0, 81, 0
2, 40704, Note_on_c, 0, 79, 92
2, 40752, Note_on_c, 0, 79, 0
2, 40896, Note_on_c, 0, 79, 92
2, 40944, Note_on_c, 0, 79, 0
2, 40944, Note_on_c, 0, 74, 92
2, 40992, Note_on_c, 0, 74, 0
2, 40992, Note_on_c, 0, 79, 92
2, 41040, Note_on_c, 0, 79, 0
2, 41040, Note_on_c, 0, 83, 92
2, 41088, Note_on_c, 0, 83, 0
2, 41088, Note_on_c, 0, 86, 127
2, 41136, Note_on_c, 0, 86, 0
2, 41136, Note_on_c, 0, 83, 92
2, 41184, Note_on_c, 0, 83, 0
2, 41184, Note_on_c, 0, 79, 92
2, 41232, Note_on_c, 0, 79, 0
2, 41232, Note_on_c, 0, 83, 92
2, 41280, Note_on_c, 0, 83, 0
2, 41280, Note_on_c, 0, 84, 127
2, 41328, Note_on_c, 0, 84, 0
2, 41328, Note_on_c, 0, 81, 92
2, 41376, Note_on_c, 0, 81, 0
2, 41376, Note_on_c, 0, 78, 92
2, 41424, Note_on_c, 0, 78, 0
2, 41424, Note_on_c, 0, 81, 92
2, 41472, Note_on_c, 0, 81, 0
2, 41472, Note_on_c, 0, 79, 92
2, 41520, Note_on_c, 0, 79, 0
2, 41664, Note_on_c, 0, 67, 92
2, 41712, Note_on_c, 0, 67, 0
2, 41712, Note_on_c, 0, 62, 92
2, 41760, Note_on_c, 0, 62, 0
2, 41760, Note_on_c, 0, 67, 92
2, 41808, Note_on_c, 0, 67, 0
2, 41808, Note_on_c, 0, 71, 92
2, 41856, Note_on_c, 0, 71, 0
2, 41856, Note_on_c, 0, 74, 127
2, 41904, Note_on_c, 0, 74, 0
2, 41904, Note_on_c, 0, 71, 92
2, 41952, Note_on_c, 0, 71, 0
2, 41952, Note_on_c, 0, 67, 92
2, 42000, Note_on_c, 0, 67, 0
2, 42000, Note_on_c, 0, 71, 92
2, 42048, Note_on_c, 0, 71, 0
2, 42048, Note_on_c, 0, 72, 92
2, 42096, Note_on_c, 0, 72, 0
2, 42096, Note_on_c, 0, 69, 92
2, 42144, Note_on_c, 0, 69, 0
2, 42144, Note_on_c, 0, 66, 92
2, 42192, Note_on_c, 0, 66, 0
2, 42192, Note_on_c, 0, 69, 92
2, 42240, Note_on_c, 0, 69, 0
2, 42240, Note_on_c, 0, 67, 92
2, 42288, Note_on_c, 0, 67, 0
2, 42432, Note_on_c, 0, 74, 92
2, 42432, Note_on_c, 0, 83, 92
2, 42480, Note_on_c, 0, 74, 0
2, 42480, Note_on_c, 0, 83, 0
2, 42624, Note_on_c, 0, 71, 92
2, 42624, Note_on_c, 0, 79, 92
2, 42672, Note_on_c, 0, 71, 0
2, 42672, Note_on_c, 0, 79, 0
2, 43008, Note_on_c, 0, 67, 92
2, 43056, Note_on_c, 0, 67, 0
2, 43200, Note_on_c, 0, 79, 92
2, 43248, Note_on_c, 0, 79, 0
2, 43248, Note_on_c, 0, 74, 92
2, 43296, Note_on_c, 0, 74, 0
2, 43296, Note_on_c, 0, 79, 92
2, 43344, Note_on_c, 0, 79, 0
2, 43344, Note_on_c, 0, 82, 92
2, 43392, Note_on_c, 0, 82, 0
2, 43392, Note_on_c, 0, 86, 127
2, 43440, Note_on_c, 0, 86, 0
2, 43440, Note_on_c, 0, 82, 92
2, 43488, Note_on_c, 0, 82, 0
2, 43488, Note_on_c, 0, 79, 92
2, 43536, Note_on_c, 0, 79, 0
2, 43536, Note_on_c, 0, 82, 92
2, 43584, Note_on_c, 0, 82, 0
2, 43584, Note_on_c, 0, 84, 127
2, 43632, Note_on_c, 0, 84, 0
2, 43632, Note_on_c, 0, 81, 92
2, 43680, Note_on_c, 0, 81, 0
2, 43680, Note_on_c, 0, 78, 92
2, 43728, Note_on_c, 0, 78, 0
2, 43728, Note_on_c, 0, 81, 92
2, 43776, Note_on_c, 0, 81, 0
2, 43776, Note_on_c, 0, 79, 92
2, 43824, Note_on_c, 0, 79, 0
2, 43968, Note_on_c, 0, 67, 92
2, 44016, Note_on_c, 0, 67, 0
2, 44016, Note_on_c, 0, 62, 92
2, 44064, Note_on_c, 0, 62, 0
2, 44064, Note_on_c, 0, 67, 92
2, 44112, Note_on_c, 0, 67, 0
2, 44112, Note_on_c, 0, 70, 92
2, 44160, Note_on_c, 0, 70, 0
2, 44160, Note_on_c, 0, 74, 127
2, 44208, Note_on_c, 0, 74, 0
2, 44208, Note_on_c, 0, 70, 92
2, 44256, Note_on_c, 0, 70, 0
2, 44256, Note_on_c, 0, 67, 92
2, 44304, Note_on_c, 0, 67, 0
2, 44304, Note_on_c, 0, 70, 92
2, 44352, Note_on_c, 0, 70, 0
2, 44352, Note_on_c, 0, 72, 92
2, 44400, Note_on_c, 0, 72, 0
2, 44400, Note_on_c, 0, 69, 92
2, 44448, Note_on_c, 0, 69, 0
2, 44448, Note_on_c, 0, 66, 92
2, 44496, Note_on_c, 0, 66, 0
2, 44496, Note_on_c, 0, 69, 92
2, 44544, Note_on_c, 0, 69, 0
2, 44544, Note_on_c, 0, 67, 92
2, 44592, Note_on_c, 0, 67, 0
2, 44976, Note_on_c, 0, 79, 92
2, 45024, Note_on_c, 0, 79, 0
2, 45024, Note_on_c, 0, 82, 92
2, 45072, Note_on_c, 0, 82, 0
2, 45072, Note_on_c, 0, 81, 92
2, 45120, Note_on_c, 0, 81, 0
2, 45120, Note_on_c, 0, 79, 92
2, 45168, Note_on_c, 0, 79, 0
2, 45168, Note_on_c, 0, 77, 92
2, 45216, Note_on_c, 0, 77, 0
2, 45216, Note_on_c, 0, 76, 92
2, 45264, Note_on_c, 0, 76, 0
2, 45264, Note_on_c, 0, 74, 92
2, 45312, Note_on_c, 0, 74, 0
2, 45312, Note_on_c, 0, 73, 92
2, 45360, Note_on_c, 0, 73, 0
2, 45744, Note_on_c, 0, 85, 92
2, 45792, Note_on_c, 0, 85, 0
2, 45792, Note_on_c, 0, 88, 92
2, 45840, Note_on_c, 0, 88, 0
2, 45840, Note_on_c, 0, 86, 92
2, 45888, Note_on_c, 0, 86, 0
2, 45888, Note_on_c, 0, 85, 92
2, 45936, Note_on_c, 0, 85, 0
2, 45936, Note_on_c, 0, 82, 92
2, 45984, Note_on_c, 0, 82, 0
2, 45984, Note_on_c, 0, 81, 92
2, 46032, Note_on_c, 0, 81, 0
2, 46032, Note_on_c, 0, 79, 92
2, 46080, Note_on_c, 0, 79, 0
2, 46080, Note_on_c, 0, 77, 92
2, 46128, Note_on_c, 0, 77, 0
2, 46272, Note_on_c, 0, 74, 92
2, 46320, Note_on_c, 0, 74, 0
2, 46320, Note_on_c, 0, 69, 92
2, 46368, Note_on_c, 0, 69, 0
2, 46368, Note_on_c, 0, 74, 92
2, 46416, Note_on_c, 0, 74, 0
2, 46416, Note_on_c, 0, 77, 92
2, 46464, Note_on_c, 0, 77, 0
2, 46464, Note_on_c, 0, 81, 127
2, 46512, Note_on_c, 0, 81, 0
2, 46512, Note_on_c, 0, 77, 92
2, 46560, Note_on_c, 0, 77, 0
2, 46560, Note_on_c, 0, 74, 92
2, 46608, Note_on_c, 0, 74, 0
2, 46608, Note_on_c, 0, 77, 92
2, 46656, Note_on_c, 0, 77, 0
2, 46656, Note_on_c, 0, 79, 127
2, 46704, Note_on_c, 0, 79, 0
2, 46704, Note_on_c, 0, 76, 92
2, 46752, Note_on_c, 0, 76, 0
2, 46752, Note_on_c, 0, 73, 92
2, 46800, Note_on_c, 0, 73, 0
2, 46800, Note_on_c, 0, 76, 92
2, 46848, Note_on_c, 0, 76, 0
2, 46848, Note_on_c, 0, 74, 92
2, 46896, Note_on_c, 0, 74, 0
2, 47040, Note_on_c, 0, 62, 92
2, 47088, Note_on_c, 0, 62, 0
2, 47088, Note_on_c, 0, 57, 92
2, 47136, Note_on_c, 0, 57, 0
2, 47136, Note_on_c, 0, 62, 92
2, 47184, Note_on_c, 0, 62, 0
2, 47184, Note_on_c, 0, 65, 92
2, 47232, Note_on_c, 0, 65, 0
2, 47232, Note_on_c, 0, 69, 127
2, 47280, Note_on_c, 0, 69, 0
2, 47280, Note_on_c, 0, 65, 92
2, 47328, Note_on_c, 0, 65, 0
2, 47328, Note_on_c, 0, 62, 92
2, 47376, Note_on_c, 0, 62, 0
2, 47376, Note_on_c, 0, 65, 92
2, 47424, Note_on_c, 0, 65, 0
2, 47424, Note_on_c, 0, 67, 127
2, 47472, Note_on_c, 0, 67, 0
2, 47472, Note_on_c, 0, 64, 92
2, 47520, Note_on_c, 0, 64, 0
2, 47520, Note_on_c, 0, 61, 92
2, 47568, Note_on_c, 0, 61, 0
2, 47568, Note_on_c, 0, 64, 92
2, 47614, Note_on_c, 0, 64, 0
2, 47664, Note_on_c, 0, 62, 92
2, 47712, Note_on_c, 0, 62, 0
2, 47712, Note_on_c, 0, 64, 92
2, 47760, Note_on_c, 0, 64, 0
2, 47760, Note_on_c, 0, 65, 92
2, 47808, Note_on_c, 0, 65, 0
2, 47808, Note_on_c, 0, 67, 92
2, 47856, Note_on_c, 0, 67, 0
2, 47856, Note_on_c, 0, 69, 92
2, 47904, Note_on_c, 0, 69, 0
2, 47904, Note_on_c, 0, 71, 92
2, 47952, Note_on_c, 0, 71, 0
2, 47952, Note_on_c, 0, 73, 92
2, 48000, Note_on_c, 0, 73, 0
2, 48000, Note_on_c, 0, 74, 92
2, 48048, Note_on_c, 0, 74, 0
2, 48432, Note_on_c, 0, 71, 92
2, 48480, Note_on_c, 0, 71, 0
2, 48480, Note_on_c, 0, 72, 92
2, 48528, Note_on_c, 0, 72, 0
2, 48528, Note_on_c, 0, 74, 92
2, 48576, Note_on_c, 0, 74, 0
2, 48576, Note_on_c, 0, 76, 92
2, 48624, Note_on_c, 0, 76, 0
2, 48624, Note_on_c, 0, 78, 92
2, 48672, Note_on_c, 0, 78, 0
2, 48672, Note_on_c, 0, 80, 92
2, 48720, Note_on_c, 0, 80, 0
2, 48720, Note_on_c, 0, 81, 92
2, 48768, Note_on_c, 0, 81, 0
2, 48768, Note_on_c, 0, 83, 92
2, 48816, Note_on_c, 0, 83, 0
2, 49200, Note_on_c, 0, 81, 92
2, 49248, Note_on_c, 0, 81, 0
2, 49248, Note_on_c, 0, 88, 92
2, 49296, Note_on_c, 0, 88, 0
2, 49296, Note_on_c, 0, 86, 92
2, 49344, Note_on_c, 0, 86, 0
2, 49344, Note_on_c, 0, 84, 92
2, 49392, Note_on_c, 0, 84, 0
2, 49392, Note_on_c, 0, 83, 92
2, 49440, Note_on_c, 0, 83, 0
2, 49440, Note_on_c, 0, 81, 92
2, 49488, Note_on_c, 0, 81, 0
2, 49488, Note_on_c, 0, 79, 92
2, 49536, Note_on_c, 0, 79, 0
2, 49536, Note_on_c, 0, 77, 92
2, 49584, Note_on_c, 0, 77, 0
2, 49968, Note_on_c, 0, 79, 92
2, 50016, Note_on_c, 0, 79, 0
2, 50016, Note_on_c, 0, 86, 92
2, 50064, Note_on_c, 0, 86, 0
2, 50064, Note_on_c, 0, 84, 92
2, 50112, Note_on_c, 0, 84, 0
2, 50112, Note_on_c, 0, 83, 92
2, 50160, Note_on_c, 0, 83, 0
2, 50160, Note_on_c, 0, 81, 92
2, 50208, Note_on_c, 0, 81, 0
2, 50208, Note_on_c, 0, 79, 92
2, 50256, Note_on_c, 0, 79, 0
2, 50256, Note_on_c, 0, 77, 92
2, 50304, Note_on_c, 0, 77, 0
2, 50304, Note_on_c, 0, 76, 92
2, 50352, Note_on_c, 0, 76, 0
2, 50736, Note_on_c, 0, 77, 92
2, 50784, Note_on_c, 0, 77, 0
2, 50784, Note_on_c, 0, 84, 92
2, 50832, Note_on_c, 0, 84, 0
2, 50832, Note_on_c, 0, 83, 92
2, 50880, Note_on_c, 0, 83, 0
2, 50880, Note_on_c, 0, 81, 92
2, 50928, Note_on_c, 0, 81, 0
2, 50928, Note_on_c, 0, 79, 92
2, 50976, Note_on_c, 0, 79, 0
2, 50976, Note_on_c, 0, 77, 92
2, 51024, Note_on_c, 0, 77, 0
2, 51024, Note_on_c, 0, 76, 92
2, 51072, Note_on_c, 0, 76, 0
2, 51072, Note_on_c, 0, 74, 92
2, 51120, Note_on_c, 0, 74, 0
2, 51504, Note_on_c, 0, 76, 92
2, 51552, Note_on_c, 0, 76, 0
2, 51552, Note_on_c, 0, 83, 92
2, 51600, Note_on_c, 0, 83, 0
2, 51600, Note_on_c, 0, 81, 92
2, 51648, Note_on_c, 0, 81, 0
2, 51648, Note_on_c, 0, 80, 92
2, 51696, Note_on_c, 0, 80, 0
2, 51696, Note_on_c, 0, 77, 92
2, 51744, Note_on_c, 0, 77, 0
2, 51744, Note_on_c, 0, 76, 92
2, 51792, Note_on_c, 0, 76, 0
2, 51792, Note_on_c, 0, 74, 92
2, 51840, Note_on_c, 0, 74, 0
2, 51840, Note_on_c, 0, 72, 92
2, 51888, Note_on_c, 0, 72, 0
2, 52272, Note_on_c, 0, 70, 92
2, 52320, Note_on_c, 0, 70, 0
2, 52320, Note_on_c, 0, 74, 92
2, 52368, Note_on_c, 0, 74, 0
2, 52368, Note_on_c, 0, 72, 92
2, 52416, Note_on_c, 0, 72, 0
2, 52416, Note_on_c, 0, 70, 92
2, 52464, Note_on_c, 0, 70, 0
2, 52464, Note_on_c, 0, 69, 92
2, 52512, Note_on_c, 0, 69, 0
2, 52512, Note_on_c, 0, 67, 92
2, 52560, Note_on_c, 0, 67, 0
2, 52560, Note_on_c, 0, 65, 92
2, 52608, Note_on_c, 0, 65, 0
2, 52608, Note_on_c, 0, 64, 92
2, 52656, Note_on_c, 0, 64, 0
2, 52656, Note_on_c, 0, 65, 92
2, 52704, Note_on_c, 0, 65, 0
2, 52704, Note_on_c, 0, 67, 92
2, 52752, Note_on_c, 0, 67, 0
2, 52752, Note_on_c, 0, 69, 92
2, 52800, Note_on_c, 0, 69, 0
2, 52800, Note_on_c, 0, 70, 92
2, 52848, Note_on_c, 0, 70, 0
2, 52848, Note_on_c, 0, 72, 92
2, 52896, Note_on_c, 0, 72, 0
2, 52896, Note_on_c, 0, 74, 92
2, 52944, Note_on_c, 0, 74, 0
2, 52944, Note_on_c, 0, 76, 92
2, 52992, Note_on_c, 0, 76, 0
2, 52992, Note_on_c, 0, 77, 60
2, 53376, Note_on_c, 0, 77, 0
2, 53376, Note_on_c, 0, 81, 60
2, 53568, Note_on_c, 0, 81, 0
2, 53568, Note_on_c, 0, 84, 60
2, 53760, Note_on_c, 0, 84, 0
2, 53760, Note_on_c, 0, 76, 84
2, 54048, Note_on_c, 0, 76, 0
2, 54048, Note_on_c, 0, 77, 60
2, 54096, Note_on_c, 0, 77, 0
2, 54096, Note_on_c, 0, 79, 60
2, 54144, Note_on_c, 0, 79, 0
2, 54144, Note_on_c, 0, 77, 60
2, 54304, Note_on_c, 0, 77, 0
2, 54528, Note_on_c, 0, 86, 84
2, 54912, Note_on_c, 0, 86, 0
2, 54912, Note_on_c, 0, 84, 60
2, 55104, Note_on_c, 0, 84, 0
2, 55104, Note_on_c, 0, 89, 60
2, 55296, Note_on_c, 0, 89, 0
2, 55296, Note_on_c, 0, 84, 84
2, 55488, Note_on_c, 0, 84, 0
2, 55488, Note_on_c, 0, 82, 60
2, 55520, Note_on_c, 0, 82, 0
2, 55520, Note_on_c, 0, 84, 60
2, 55552, Note_on_c, 0, 84, 0
2, 55552, Note_on_c, 0, 82, 60
2, 55584, Note_on_c, 0, 82, 0
2, 55584, Note_on_c, 0, 81, 60
2, 55632, Note_on_c, 0, 81, 0
2, 55632, Note_on_c, 0, 82, 60
2, 55680, Note_on_c, 0, 82, 0
2, 55680, Note_on_c, 0, 81, 60
2, 55840, Note_on_c, 0, 81, 0
2, 56064, Note_on_c, 0, 74, 45
2, 56160, Note_on_c, 0, 74, 0
2, 56160, Note_on_c, 0, 76, 45
2, 56208, Note_on_c, 0, 76, 0
2, 56208, Note_on_c, 0, 77, 45
2, 56256, Note_on_c, 0, 77, 0
2, 56256, Note_on_c, 0, 79, 45
2, 56304, Note_on_c, 0, 79, 0
2, 56304, Note_on_c, 0, 81, 45
2, 56352, Note_on_c, 0, 81, 0
2, 56352, Note_on_c, 0, 82, 45
2, 56400, Note_on_c, 0, 82, 0
2, 56400, Note_on_c, 0, 84, 45
2, 56448, Note_on_c, 0, 84, 0
2, 56448, Note_on_c, 0, 86, 45
2, 56496, Note_on_c, 0, 86, 0
2, 56496, Note_on_c, 0, 84, 45
2, 56544, Note_on_c, 0, 84, 0
2, 56544, Note_on_c, 0, 82, 45
2, 56592, Note_on_c, 0, 82, 0
2, 56592, Note_on_c, 0, 81, 45
2, 56640, Note_on_c, 0, 81, 0
2, 56640, Note_on_c, 0, 79, 45
2, 56688, Note_on_c, 0, 79, 0
2, 56688, Note_on_c, 0, 77, 45
2, 56736, Note_on_c, 0, 77, 0
2, 56736, Note_on_c, 0, 76, 45
2, 56784, Note_on_c, 0, 76, 0
2, 56784, Note_on_c, 0, 74, 45
2, 56832, Note_on_c, 0, 74, 0
2, 56832, Note_on_c, 0, 72, 45
2, 56928, Note_on_c, 0, 72, 0
2, 56928, Note_on_c, 0, 74, 45
2, 56976, Note_on_c, 0, 74, 0
2, 56976, Note_on_c, 0, 76, 45
2, 57024, Note_on_c, 0, 76, 0
2, 57024, Note_on_c, 0, 77, 45
2, 57072, Note_on_c, 0, 77, 0
2, 57072, Note_on_c, 0, 79, 45
2, 57120, Note_on_c, 0, 79, 0
2, 57120, Note_on_c, 0, 81, 45
2, 57168, Note_on_c, 0, 81, 0
2, 57168, Note_on_c, 0, 82, 45
2, 57216, Note_on_c, 0, 82, 0
2, 57216, Note_on_c, 0, 84, 45
2, 57264, Note_on_c, 0, 84, 0
2, 57264, Note_on_c, 0, 82, 45
2, 57312, Note_on_c, 0, 82, 0
2, 57312, Note_on_c, 0, 81, 45
2, 57360, Note_on_c, 0, 81, 0
2, 57360, Note_on_c, 0, 79, 45
2, 57408, Note_on_c, 0, 79, 0
2, 57408, Note_on_c, 0, 77, 45
2, 57456, Note_on_c, 0, 77, 0
2, 57456, Note_on_c, 0, 76, 45
2, 57504, Note_on_c, 0, 76, 0
2, 57504, Note_on_c, 0, 74, 45
2, 57552, Note_on_c, 0, 74, 0
2, 57552, Note_on_c, 0, 72, 45
2, 57600, Note_on_c, 0, 72, 0
2, 57600, Note_on_c, 0, 70, 45
2, 57696, Note_on_c, 0, 70, 0
2, 57696, Note_on_c, 0, 72, 45
2, 57744, Note_on_c, 0, 72, 0
2, 57744, Note_on_c, 0, 74, 45
2, 57792, Note_on_c, 0, 74, 0
2, 57792, Note_on_c, 0, 76, 45
2, 57840, Note_on_c, 0, 76, 0
2, 57840, Note_on_c, 0, 77, 45
2, 57888, Note_on_c, 0, 77, 0
2, 57888, Note_on_c, 0, 79, 45
2, 57936, Note_on_c, 0, 79, 0
2, 57936, Note_on_c, 0, 81, 45
2, 57984, Note_on_c, 0, 81, 0
2, 57984, Note_on_c, 0, 82, 45
2, 58032, Note_on_c, 0, 82, 0
2, 58032, Note_on_c, 0, 81, 45
2, 58080, Note_on_c, 0, 81, 0
2, 58080, Note_on_c, 0, 79, 45
2, 58128, Note_on_c, 0, 79, 0
2, 58128, Note_on_c, 0, 77, 45
2, 58176, Note_on_c, 0, 77, 0
2, 58176, Note_on_c, 0, 76, 45
2, 58224, Note_on_c, 0, 76, 0
2, 58224, Note_on_c, 0, 74, 45
2, 58272, Note_on_c, 0, 74, 0
2, 58272, Note_on_c, 0, 72, 45
2, 58320, Note_on_c, 0, 72, 0
2, 58320, Note_on_c, 0, 70, 45
2, 58368, Note_on_c, 0, 70, 0
2, 58368, Note_on_c, 0, 69, 45
2, 58464, Note_on_c, 0, 69, 0
2, 58464, Note_on_c, 0, 70, 45
2, 58512, Note_on_c, 0, 70, 0
2, 58512, Note_on_c, 0, 72, 45
2, 58560, Note_on_c, 0, 72, 0
2, 58560, Note_on_c, 0, 74, 45
2, 58608, Note_on_c, 0, 74, 0
2, 58608, Note_on_c, 0, 76, 45
2, 58656, Note_on_c, 0, 76, 0
2, 58656, Note_on_c, 0, 77, 45
2, 58704, Note_on_c, 0, 77, 0
2, 58704, Note_on_c, 0, 79, 45
2, 58752, Note_on_c, 0, 79, 0
2, 58752, Note_on_c, 0, 81, 45
2, 58800, Note_on_c, 0, 81, 0
2, 58800, Note_on_c, 0, 79, 45
2, 58848, Note_on_c, 0, 79, 0
2, 58848, Note_on_c, 0, 77, 45
2, 58896, Note_on_c, 0, 77, 0
2, 58896, Note_on_c, 0, 76, 45
2, 58944, Note_on_c, 0, 76, 0
2, 58944, Note_on_c, 0, 74, 45
2, 58992, Note_on_c, 0, 74, 0
2, 58992, Note_on_c, 0, 72, 45
2, 59040, Note_on_c, 0, 72, 0
2, 59040, Note_on_c, 0, 70, 45
2, 59088, Note_on_c, 0, 70, 0
2, 59088, Note_on_c, 0, 69, 45
2, 59136, Note_on_c, 0, 69, 0
2, 59136, Note_on_c, 0, 81, 75
2, 59184, Note_on_c, 0, 81, 0
2, 59712, Note_on_c, 0, 72, 75
2, 59712, Note_on_c, 0, 81, 75
2, 59760, Note_on_c, 0, 72, 0
2, 59760, Note_on_c, 0, 81, 0
2, 59904, Note_on_c, 0, 72, 75
2, 59904, Note_on_c, 0, 79, 75
2, 59952, Note_on_c, 0, 72, 0
2, 59952, Note_on_c, 0, 79, 0
2, 60480, Note_on_c, 0, 72, 75
2, 60480, Note_on_c, 0, 79, 75
2, 60528, Note_on_c, 0, 72, 0
2, 60528, Note_on_c, 0, 79, 0
2, 60672, Note_on_c, 0, 72, 75
2, 60672, Note_on_c, 0, 77, 75
2, 60720, Note_on_c, 0, 72, 0
2, 60720, Note_on_c, 0, 77, 0
2, 61248, Note_on_c, 0, 71, 75
2, 61248, Note_on_c, 0, 77, 75
2, 61296, Note_on_c, 0, 71, 0
2, 61296, Note_on_c, 0, 77, 0
2, 61440, Note_on_c, 0, 72, 75
2, 61440, Note_on_c, 0, 76, 75
2, 61488, Note_on_c, 0, 72, 0
2, 61488, Note_on_c, 0, 76, 0
2, 62016, Note_on_c, 0, 72, 75
2, 62016, Note_on_c, 0, 76, 75
2, 62064, Note_on_c, 0, 72, 0
2, 62064, Note_on_c, 0, 76, 0
2, 62208, Note_on_c, 0, 74, 45
2, 62256, Note_on_c, 0, 74, 0
2, 62256, Note_on_c, 0, 62, 45
2, 62304, Note_on_c, 0, 62, 0
2, 62304, Note_on_c, 0, 64, 45
2, 62352, Note_on_c, 0, 64, 0
2, 62352, Note_on_c, 0, 65, 45
2, 62400, Note_on_c, 0, 65, 0
2, 62400, Note_on_c, 0, 67, 45
2, 62448, Note_on_c, 0, 67, 0
2, 62448, Note_on_c, 0, 69, 45
2, 62496, Note_on_c, 0, 69, 0
2, 62496, Note_on_c, 0, 71, 45
2, 62544, Note_on_c, 0, 71, 0
2, 62544, Note_on_c, 0, 73, 45
2, 62592, Note_on_c, 0, 73, 0
2, 62592, Note_on_c, 0, 74, 45
2, 62640, Note_on_c, 0, 74, 0
2, 62640, Note_on_c, 0, 69, 45
2, 62688, Note_on_c, 0, 69, 0
2, 62688, Note_on_c, 0, 71, 45
2, 62736, Note_on_c, 0, 71, 0
2, 62736, Note_on_c, 0, 73, 45
2, 62784, Note_on_c, 0, 73, 0
2, 62784, Note_on_c, 0, 74, 45
2, 62832, Note_on_c, 0, 74, 0
2, 62832, Note_on_c, 0, 76, 47
2, 62880, Note_on_c, 0, 76, 0
2, 62880, Note_on_c, 0, 77, 49
2, 62928, Note_on_c, 0, 77, 0
2, 62928, Note_on_c, 0, 79, 51
2, 62976, Note_on_c, 0, 79, 0
2, 62976, Note_on_c, 0, 81, 53
2, 63024, Note_on_c, 0, 81, 0
2, 63024, Note_on_c, 0, 83, 55
2, 63072, Note_on_c, 0, 83, 0
2, 63072, Note_on_c, 0, 84, 57
2, 63120, Note_on_c, 0, 84, 0
2, 63120, Note_on_c, 0, 83, 59
2, 63168, Note_on_c, 0, 83, 0
2, 63168, Note_on_c, 0, 81, 61
2, 63216, Note_on_c, 0, 81, 0
2, 63216, Note_on_c, 0, 79, 63
2, 63264, Note_on_c, 0, 79, 0
2, 63264, Note_on_c, 0, 77, 65
2, 63312, Note_on_c, 0, 77, 0
2, 63312, Note_on_c, 0, 76, 67
2, 63360, Note_on_c, 0, 76, 0
2, 63360, Note_on_c, 0, 77, 69
2, 63408, Note_on_c, 0, 77, 0
2, 63408, Note_on_c, 0, 79, 71
2, 63456, Note_on_c, 0, 79, 0
2, 63456, Note_on_c, 0, 81, 74
2, 63504, Note_on_c, 0, 81, 0
2, 63504, Note_on_c, 0, 79, 77
2, 63552, Note_on_c, 0, 79, 0
2, 63552, Note_on_c, 0, 77, 80
2, 63600, Note_on_c, 0, 77, 0
2, 63600, Note_on_c, 0, 76, 83
2, 63648, Note_on_c, 0, 76, 0
2, 63648, Note_on_c, 0, 74, 86
2, 63696, Note_on_c, 0, 74, 0
2, 63696, Note_on_c, 0, 72, 89
2, 63744, Note_on_c, 0, 72, 0
2, 63744, Note_on_c, 0, 71, 127
2, 63840, Note_on_c, 0, 71, 0
2, 63840, Note_on_c, 0, 79, 92
2, 63872, Note_on_c, 0, 79, 0
2, 63936, Note_on_c, 0, 76, 92
2, 63968, Note_on_c, 0, 76, 0
2, 64032, Note_on_c, 0, 72, 92
2, 64064, Note_on_c, 0, 72, 0
2, 64128, Note_on_c, 0, 74, 127
2, 64224, Note_on_c, 0, 74, 0
2, 64224, Note_on_c, 0, 79, 92
2, 64256, Note_on_c, 0, 79, 0
2, 64320, Note_on_c, 0, 76, 92
2, 64352, Note_on_c, 0, 76, 0
2, 64416, Note_on_c, 0, 72, 92
2, 64448, Note_on_c, 0, 72, 0
2, 64512, Note_on_c, 0, 74, 92
2, 64560, Note_on_c, 0, 74, 0
2, 64704, Note_on_c, 0, 71, 92
2, 64704, Note_on_c, 0, 74, 92
2, 64704, Note_on_c, 0, 79, 92
2, 64752, Note_on_c, 0, 71, 0
2, 64752, Note_on_c, 0, 74, 0
2, 64752, Note_on_c, 0, 79, 0
2, 64896, Note_on_c, 0, 67, 92
2, 64944, Note_on_c, 0, 67, 0
2, 66048, Note_on_c, 0, 79, 84
2, 66144, Note_on_c, 0, 79, 0
2, 66144, Note_on_c, 0, 76, 60
2, 66176, Note_on_c, 0, 76, 0
2, 66240, Note_on_c, 0, 72, 60
2, 66528, Note_on_c, 0, 72, 0
2, 66528, Note_on_c, 0, 74, 60
2, 66576, Note_on_c, 0, 74, 0
2, 66576, Note_on_c, 0, 76, 60
2, 66624, Note_on_c, 0, 76, 0
2, 66624, Note_on_c, 0, 74, 60
2, 66720, Note_on_c, 0, 74, 0
2, 66720, Note_on_c, 0, 72, 60
2, 66752, Note_on_c, 0, 72, 0
2, 66816, Note_on_c, 0, 74, 84
2, 66840, Note_on_c, 0, 74, 0
2, 66840, Note_on_c, 0, 72, 60
2, 66864, Note_on_c, 0, 72, 0
2, 66864, Note_on_c, 0, 74, 60
2, 66888, Note_on_c, 0, 74, 0
2, 66888, Note_on_c, 0, 72, 60
2, 66912, Note_on_c, 0, 72, 0
2, 66912, Note_on_c, 0, 74, 60
2, 66936, Note_on_c, 0, 74, 0
2, 66936, Note_on_c, 0, 72, 60
2, 66960, Note_on_c, 0, 72, 0
2, 66960, Note_on_c, 0, 71, 60
2, 66992, Note_on_c, 0, 71, 0
2, 67008, Note_on_c, 0, 71, 60
2, 67168, Note_on_c, 0, 71, 0
2, 67584, Note_on_c, 0, 79, 84
2, 67680, Note_on_c, 0, 79, 0
2, 67680, Note_on_c, 0, 76, 60
2, 67712, Note_on_c, 0, 76, 0
2, 67776, Note_on_c, 0, 72, 60
2, 68064, Note_on_c, 0, 72, 0
2, 68064, Note_on_c, 0, 74, 60
2, 68112, Note_on_c, 0, 74, 0
2, 68112, Note_on_c, 0, 76, 60
2, 68160, Note_on_c, 0, 76, 0
2, 68160, Note_on_c, 0, 74, 60
2, 68256, Note_on_c, 0, 74, 0
2, 68256, Note_on_c, 0, 72, 60
2, 68288, Note_on_c, 0, 72, 0
2, 68352, Note_on_c, 0, 74, 84
2, 68374, Note_on_c, 0, 74, 0
2, 68376, Note_on_c, 0, 72, 60
2, 68398, Note_on_c, 0, 72, 0
2, 68400, Note_on_c, 0, 74, 60
2, 68422, Note_on_c, 0, 74, 0
2, 68424, Note_on_c, 0, 72, 60
2, 68446, Note_on_c, 0, 72, 0
2, 68448, Note_on_c, 0, 74, 60
2, 68470, Note_on_c, 0, 74, 0
2, 68472, Note_on_c, 0, 72, 60
2, 68494, Note_on_c, 0, 72, 0
2, 68496, Note_on_c, 0, 71, 60
2, 68528, Note_on_c, 0, 71, 0
2, 68544, Note_on_c, 0, 71, 60
2, 68704, Note_on_c, 0, 71, 0
2, 69120, Note_on_c, 0, 79, 105
2, 69312, Note_on_c, 0, 79, 0
2, 69360, Note_on_c, 0, 79, 75
2, 69408, Note_on_c, 0, 79, 0
2, 69408, Note_on_c, 0, 76, 75
2, 69456, Note_on_c, 0, 76, 0
2, 69456, Note_on_c, 0, 72, 75
2, 69504, Note_on_c, 0, 72, 0
2, 69504, Note_on_c, 0, 69, 75
2, 69696, Note_on_c, 0, 69, 0
2, 69744, Note_on_c, 0, 69, 75
2, 69792, Note_on_c, 0, 69, 0
2, 69792, Note_on_c, 0, 72, 75
2, 69840, Note_on_c, 0, 72, 0
2, 69840, Note_on_c, 0, 69, 75
2, 69888, Note_on_c, 0, 69, 0
2, 69888, Note_on_c, 0, 77, 105
2, 70048, Note_on_c, 0, 77, 0
2, 70128, Note_on_c, 0, 77, 75
2, 70176, Note_on_c, 0, 77, 0
2, 70176, Note_on_c, 0, 74, 75
2, 70224, Note_on_c, 0, 74, 0
2, 70224, Note_on_c, 0, 71, 75
2, 70272, Note_on_c, 0, 71, 0
2, 70272, Note_on_c, 0, 67, 75
2, 70432, Note_on_c, 0, 67, 0
2, 70512, Note_on_c, 0, 79, 75
2, 70560, Note_on_c, 0, 79, 0
2, 70560, Note_on_c, 0, 83, 75
2, 70608, Note_on_c, 0, 83, 0
2, 70608, Note_on_c, 0, 79, 75
2, 70656, Note_on_c, 0, 79, 0
2, 70656, Note_on_c, 0, 88, 105
2, 70816, Note_on_c, 0, 88, 0
2, 70896, Note_on_c, 0, 88, 75
2, 70944, Note_on_c, 0, 88, 0
2, 70944, Note_on_c, 0, 84, 75
2, 70992, Note_on_c, 0, 84, 0
2, 70992, Note_on_c, 0, 81, 75
2, 71040, Note_on_c, 0, 81, 0
2, 71040, Note_on_c, 0, 77, 75
2, 71200, Note_on_c, 0, 77, 0
2, 71280, Note_on_c, 0, 77, 75
2, 71328, Note_on_c, 0, 77, 0
2, 71328, Note_on_c, 0, 81, 75
2, 71376, Note_on_c, 0, 81, 0
2, 71376, Note_on_c, 0, 77, 75
2, 71424, Note_on_c, 0, 77, 0
2, 71424, Note_on_c, 0, 86, 105
2, 71584, Note_on_c, 0, 86, 0
2, 71664, Note_on_c, 0, 86, 75
2, 71712, Note_on_c, 0, 86, 0
2, 71712, Note_on_c, 0, 83, 75
2, 71760, Note_on_c, 0, 83, 0
2, 71760, Note_on_c, 0, 79, 75
2, 71808, Note_on_c, 0, 79, 0
2, 71808, Note_on_c, 0, 76, 75
2, 71968, Note_on_c, 0, 76, 0
2, 72048, Note_on_c, 0, 84, 75
2, 72096, Note_on_c, 0, 84, 0
2, 72096, Note_on_c, 0, 79, 75
2, 72144, Note_on_c, 0, 79, 0
2, 72144, Note_on_c, 0, 76, 75
2, 72192, Note_on_c, 0, 76, 0
2, 72192, Note_on_c, 0, 74, 45
2, 72576, Note_on_c, 0, 74, 0
2, 72576, Note_on_c, 0, 73, 45
2, 72600, Note_on_c, 0, 73, 0
2, 72600, Note_on_c, 0, 74, 45
2, 72768, Note_on_c, 0, 74, 0
2, 72768, Note_on_c, 0, 73, 51
2, 72792, Note_on_c, 0, 73, 0
2, 72792, Note_on_c, 0, 74, 52
2, 72960, Note_on_c, 0, 74, 0
2, 72960, Note_on_c, 0, 81, 82
2, 73344, Note_on_c, 0, 81, 0
2, 73344, Note_on_c, 0, 80, 75
2, 73368, Note_on_c, 0, 80, 0
2, 73368, Note_on_c, 0, 81, 76
2, 73536, Note_on_c, 0, 81, 0
2, 73536, Note_on_c, 0, 80, 83
2, 73560, Note_on_c, 0, 80, 0
2, 73560, Note_on_c, 0, 81, 84
2, 73728, Note_on_c, 0, 81, 0
2, 73728, Note_on_c, 0, 79, 92
2, 73824, Note_on_c, 0, 79, 0
2, 73824, Note_on_c, 0, 81, 92
2, 73872, Note_on_c, 0, 81, 0
2, 73872, Note_on_c, 0, 83, 92
2, 73920, Note_on_c, 0, 83, 0
2, 73920, Note_on_c, 0, 84, 92
2, 73968, Note_on_c, 0, 84, 0
2, 73968, Note_on_c, 0, 86, 92
2, 74016, Note_on_c, 0, 86, 0
2, 74016, Note_on_c, 0, 88, 92
2, 74064, Note_on_c, 0, 88, 0
2, 74064, Note_on_c, 0, 86, 92
2, 74112, Note_on_c, 0, 86, 0
2, 74112, Note_on_c, 0, 84, 92
2, 74160, Note_on_c, 0, 84, 0
2, 74160, Note_on_c, 0, 83, 92
2, 74208, Note_on_c, 0, 83, 0
2, 74208, Note_on_c, 0, 81, 92
2, 74256, Note_on_c, 0, 81, 0
2, 74256, Note_on_c, 0, 79, 92
2, 74304, Note_on_c, 0, 79, 0
2, 74304, Note_on_c, 0, 77, 92
2, 74352, Note_on_c, 0, 77, 0
2, 74352, Note_on_c, 0, 76, 92
2, 74400, Note_on_c, 0, 76, 0
2, 74400, Note_on_c, 0, 74, 92
2, 74448, Note_on_c, 0, 74, 0
2, 74448, Note_on_c, 0, 72, 92
2, 74494, Note_on_c, 0, 72, 0
2, 74496, Note_on_c, 0, 76, 92
2, 74520, Note_on_c, 0, 76, 0
2, 74520, Note_on_c, 0, 74, 92
2, 74544, Note_on_c, 0, 74, 0
2, 74544, Note_on_c, 0, 76, 92
2, 74568, Note_on_c, 0, 76, 0
2, 74568, Note_on_c, 0, 74, 92
2, 74592, Note_on_c, 0, 74, 0
2, 74592, Note_on_c, 0, 76, 92
2, 74616, Note_on_c, 0, 76, 0
2, 74616, Note_on_c, 0, 74, 92
2, 74640, Note_on_c, 0, 74, 0
2, 74640, Note_on_c, 0, 76, 92
2, 74664, Note_on_c, 0, 76, 0
2, 74664, Note_on_c, 0, 74, 92
2, 74688, Note_on_c, 0, 74, 0
2, 74688, Note_on_c, 0, 76, 92
2, 74712, Note_on_c, 0, 76, 0
2, 74712, Note_on_c, 0, 74, 92
2, 74736, Note_on_c, 0, 74, 0
2, 74736, Note_on_c, 0, 76, 92
2, 74760, Note_on_c, 0, 76, 0
2, 74760, Note_on_c, 0, 74, 92
2, 74784, Note_on_c, 0, 74, 0
2, 74784, Note_on_c, 0, 76, 92
2, 74808, Note_on_c, 0, 76, 0
2, 74808, Note_on_c, 0, 74, 92
2, 74832, Note_on_c, 0, 74, 0
2, 74832, Note_on_c, 0, 76, 92
2, 74856, Note_on_c, 0, 76, 0
2, 74856, Note_on_c, 0, 74, 92
2, 74880, Note_on_c, 0, 74, 0
2, 74880, Note_on_c, 0, 76, 92
2, 74904, Note_on_c, 0, 76, 0
2, 74904, Note_on_c, 0, 74, 92
2, 74928, Note_on_c, 0, 74, 0
2, 74928, Note_on_c, 0, 76, 92
2, 74952, Note_on_c, 0, 76, 0
2, 74952, Note_on_c, 0, 74, 92
2, 74976, Note_on_c, 0, 74, 0
2, 74976, Note_on_c, 0, 76, 92
2, 75000, Note_on_c, 0, 76, 0
2, 75000, Note_on_c, 0, 74, 92
2, 75024, Note_on_c, 0, 74, 0
2, 75024, Note_on_c, 0, 76, 92
2, 75048, Note_on_c, 0, 76, 0
2, 75048, Note_on_c, 0, 74, 92
2, 75072, Note_on_c, 0, 74, 0
2, 75072, Note_on_c, 0, 76, 92
2, 75096, Note_on_c, 0, 76, 0
2, 75096, Note_on_c, 0, 74, 92
2, 75120, Note_on_c, 0, 74, 0
2, 75120, Note_on_c, 0, 76, 92
2, 75144, Note_on_c, 0, 76, 0
2, 75144, Note_on_c, 0, 74, 92
2, 75168, Note_on_c, 0, 74, 0
2, 75168, Note_on_c, 0, 76, 92
2, 75192, Note_on_c, 0, 76, 0
2, 75192, Note_on_c, 0, 74, 92
2, 75216, Note_on_c, 0, 74, 0
2, 75216, Note_on_c, 0, 72, 92
2, 75240, Note_on_c, 0, 72, 0
2, 75240, Note_on_c, 0, 74, 92
2, 75264, Note_on_c, 0, 74, 0
2, 75264, Note_on_c, 0, 72, 92
2, 75312, Note_on_c, 0, 72, 0
2, 75456, Note_on_c, 0, 72, 92
2, 75504, Note_on_c, 0, 72, 0
2, 75504, Note_on_c, 0, 67, 92
2, 75552, Note_on_c, 0, 67, 0
2, 75552, Note_on_c, 0, 72, 92
2, 75600, Note_on_c, 0, 72, 0
2, 75600, Note_on_c, 0, 76, 92
2, 75648, Note_on_c, 0, 76, 0
2, 75648, Note_on_c, 0, 79, 127
2, 75696, Note_on_c, 0, 79, 0
2, 75696, Note_on_c, 0, 76, 92
2, 75744, Note_on_c, 0, 76, 0
2, 75744, Note_on_c, 0, 72, 92
2, 75792, Note_on_c, 0, 72, 0
2, 75792, Note_on_c, 0, 76, 92
2, 75840, Note_on_c, 0, 76, 0
2, 75840, Note_on_c, 0, 77, 127
2, 75888, Note_on_c, 0, 77, 0
2, 75888, Note_on_c, 0, 74, 92
2, 75936, Note_on_c, 0, 74, 0
2, 75936, Note_on_c, 0, 71, 92
2, 75984, Note_on_c, 0, 71, 0
2, 75984, Note_on_c, 0, 74, 92
2, 76032, Note_on_c, 0, 74, 0
2, 76032, Note_on_c, 0, 72, 92
2, 76080, Note_on_c, 0, 72, 0
2, 76224, Note_on_c, 0, 60, 92
2, 76272, Note_on_c, 0, 60, 0
2, 76272, Note_on_c, 0, 55, 92
2, 76320, Note_on_c, 0, 55, 0
2, 76320, Note_on_c, 0, 60, 92
2, 76368, Note_on_c, 0, 60, 0
2, 76368, Note_on_c, 0, 64, 92
2, 76416, Note_on_c, 0, 64, 0
2, 76416, Note_on_c, 0, 67, 127
2, 76464, Note_on_c, 0, 67, 0
2, 76464, Note_on_c, 0, 64, 92
2, 76512, Note_on_c, 0, 64, 0
2, 76512, Note_on_c, 0, 60, 92
2, 76560, Note_on_c, 0, 60, 0
2, 76560, Note_on_c, 0, 64, 92
2, 76608, Note_on_c, 0, 64, 0
2, 76608, Note_on_c, 0, 65, 127
2, 76656, Note_on_c, 0, 65, 0
2, 76656, Note_on_c, 0, 62, 92
2, 76704, Note_on_c, 0, 62, 0
2, 76704, Note_on_c, 0, 59, 92
2, 76752, Note_on_c, 0, 59, 0
2, 76752, Note_on_c, 0, 62, 92
2, 76800, Note_on_c, 0, 62, 0
2, 76800, Note_on_c, 0, 60, 92
2, 76848, Note_on_c, 0, 60, 0
2, 76992, Note_on_c, 0, 76, 92
2, 76992, Note_on_c, 0, 79, 92
2, 76992, Note_on_c, 0, 84, 92
2, 77040, Note_on_c, 0, 76, 0
2, 77040, Note_on_c, 0, 79, 0
2, 77040, Note_on_c, 0, 84, 0
2, 77184, Note_on_c, 0, 72, 92
2, 77232, Note_on_c, 0, 72, 0
2, 77568, Note_on_c, 0, 67, 92
2, 77616, Note_on_c, 0, 67, 0
2, 77760, Note_on_c, 0, 79, 92
2, 77808, Note_on_c, 0, 79, 0
2, 77808, Note_on_c, 0, 74, 92
2, 77856, Note_on_c, 0, 74, 0
2, 77856, Note_on_c, 0, 79, 92
2, 77904, Note_on_c, 0, 79, 0
2, 77904, Note_on_c, 0, 82, 92
2, 77952, Note_on_c, 0, 82, 0
2, 77952, Note_on_c, 0, 86, 127
2, 78000, Note_on_c, 0, 86, 0
2, 78000, Note_on_c, 0, 82, 92
2, 78048, Note_on_c, 0, 82, 0
2, 78048, Note_on_c, 0, 79, 92
2, 78096, Note_on_c, 0, 79, 0
2, 78096, Note_on_c, 0, 82, 92
2, 78144, Note_on_c, 0, 82, 0
2, 78144, Note_on_c, 0, 84, 127
2, 78192, Note_on_c, 0, 84, 0
2, 78192, Note_on_c, 0, 81, 92
2, 78240, Note_on_c, 0, 81, 0
2, 78240, Note_on_c, 0, 78, 92
2, 78288, Note_on_c, 0, 78, 0
2, 78288, Note_on_c, 0, 81, 92
2, 78336, Note_on_c, 0, 81, 0
2, 78336, Note_on_c, 0, 79, 92
2, 78384, Note_on_c, 0, 79, 0
2, 78528, Note_on_c, 0, 67, 92
2, 78576, Note_on_c, 0, 67, 0
2, 78576, Note_on_c, 0, 62, 92
2, 78624, Note_on_c, 0, 62, 0
2, 78624, Note_on_c, 0, 67, 92
2, 78672, Note_on_c, 0, 67, 0
2, 78672, Note_on_c, 0, 70, 92
2, 78720, Note_on_c, 0, 70, 0
2, 78720, Note_on_c, 0, 74, 127
2, 78768, Note_on_c, 0, 74, 0
2, 78768, Note_on_c, 0, 70, 92
2, 78816, Note_on_c, 0, 70, 0
2, 78816, Note_on_c, 0, 67, 92
2, 78864, Note_on_c, 0, 67, 0
2, 78864, Note_on_c, 0, 70, 92
2, 78912, Note_on_c, 0, 70, 0
2, 78912, Note_on_c, 0, 72, 92
2, 78960, Note_on_c, 0, 72, 0
2, 78960, Note_on_c, 0, 69, 92
2, 79008, Note_on_c, 0, 69, 0
2, 79008, Note_on_c, 0, 66, 92
2, 79056, Note_on_c, 0, 66, 0
2, 79056, Note_on_c, 0, 69, 92
2, 79104, Note_on_c, 0, 69, 0
2, 79104, Note_on_c, 0, 67, 92
2, 79152, Note_on_c, 0, 67, 0
2, 79536, Note_on_c, 0, 79, 92
2, 79584, Note_on_c, 0, 79, 0
2, 79584, Note_on_c, 0, 82, 92
2, 79632, Note_on_c, 0, 82, 0
2, 79632, Note_on_c, 0, 81, 92
2, 79680, Note_on_c, 0, 81, 0
2, 79680, Note_on_c, 0, 79, 92
2, 79728, Note_on_c, 0, 79, 0
2, 79728, Note_on_c, 0, 77, 92
2, 79776, Note_on_c, 0, 77, 0
2, 79776, Note_on_c, 0, 76, 92
2, 79824, Note_on_c, 0, 76, 0
2, 79824, Note_on_c, 0, 74, 92
2, 79872, Note_on_c, 0, 74, 0
2, 79872, Note_on_c, 0, 73, 92
2, 79920, Note_on_c, 0, 73, 0
2, 80304, Note_on_c, 0, 85, 92
2, 80352, Note_on_c, 0, 85, 0
2, 80352, Note_on_c, 0, 88, 92
2, 80400, Note_on_c, 0, 88, 0
2, 80400, Note_on_c, 0, 86, 92
2, 80448, Note_on_c, 0, 86, 0
2, 80448, Note_on_c, 0, 85, 92
2, 80496, Note_on_c, 0, 85, 0
2, 80496, Note_on_c, 0, 82, 92
2, 80544, Note_on_c, 0, 82, 0
2, 80544, Note_on_c, 0, 81, 92
2, 80592, Note_on_c, 0, 81, 0
2, 80592, Note_on_c, 0, 79, 92
2, 80640, Note_on_c, 0, 79, 0
2, 80640, Note_on_c, 0, 77, 92
2, 80688, Note_on_c, 0, 77, 0
2, 80832, Note_on_c, 0, 74, 92
2, 80880, Note_on_c, 0, 74, 0
2, 80880, Note_on_c, 0, 69, 92
2, 80928, Note_on_c, 0, 69, 0
2, 80928, Note_on_c, 0, 74, 92
2, 80976, Note_on_c, 0, 74, 0
2, 80976, Note_on_c, 0, 77, 92
2, 81024, Note_on_c, 0, 77, 0
2, 81024, Note_on_c, 0, 81, 127
2, 81072, Note_on_c, 0, 81, 0
2, 81072, Note_on_c, 0, 77, 92
2, 81120, Note_on_c, 0, 77, 0
2, 81120, Note_on_c, 0, 74, 92
2, 81168, Note_on_c, 0, 74, 0
2, 81168, Note_on_c, 0, 77, 92
2, 81216, Note_on_c, 0, 77, 0
2, 81216, Note_on_c, 0, 79, 127
2, 81264, Note_on_c, 0, 79, 0
2, 81264, Note_on_c, 0, 76, 92
2, 81312, Note_on_c, 0, 76, 0
2, 81312, Note_on_c, 0, 73, 92
2, 81360, Note_on_c, 0, 73, 0
2, 81360, Note_on_c, 0, 76, 92
2, 81408, Note_on_c, 0, 76, 0
2, 81408, Note_on_c, 0, 74, 92
2, 81456, Note_on_c, 0, 74, 0
2, 81600, Note_on_c, 0, 62, 92
2, 81648, Note_on_c, 0, 62, 0
2, 81648, Note_on_c, 0, 57, 92
2, 81696, Note_on_c, 0, 57, 0
2, 81696, Note_on_c, 0, 62, 92
2, 81744, Note_on_c, 0, 62, 0
2, 81744, Note_on_c, 0, 65, 92
2, 81792, Note_on_c, 0, 65, 0
2, 81792, Note_on_c, 0, 69, 127
2, 81840, Note_on_c, 0, 69, 0
2, 81840, Note_on_c, 0, 65, 92
2, 81888, Note_on_c, 0, 65, 0
2, 81888, Note_on_c, 0, 62, 92
2, 81936, Note_on_c, 0, 62, 0
2, 81936, Note_on_c, 0, 65, 92
2, 81984, Note_on_c, 0, 65, 0
2, 81984, Note_on_c, 0, 67, 127
2, 82032, Note_on_c, 0, 67, 0
2, 82032, Note_on_c, 0, 64, 92
2, 82080, Note_on_c, 0, 64, 0
2, 82080, Note_on_c, 0, 61, 92
2, 82128, Note_on_c, 0, 61, 0
2, 82128, Note_on_c, 0, 64, 92
2, 82174, Note_on_c, 0, 64, 0
2, 82224, Note_on_c, 0, 62, 92
2, 82272, Note_on_c, 0, 62, 0
2, 82272, Note_on_c, 0, 64, 92
2, 82320, Note_on_c, 0, 64, 0
2, 82320, Note_on_c, 0, 65, 92
2, 82368, Note_on_c, 0, 65, 0
2, 82368, Note_on_c, 0, 67, 92
2, 82416, Note_on_c, 0, 67, 0
2, 82416, Note_on_c, 0, 69, 92
2, 82464, Note_on_c, 0, 69, 0
2, 82464, Note_on_c, 0, 71, 92
2, 82512, Note_on_c, 0, 71, 0
2, 82512, Note_on_c, 0, 73, 92
2, 82560, Note_on_c, 0, 73, 0
2, 82560, Note_on_c, 0, 74, 92
2, 82608, Note_on_c, 0, 74, 0
2, 82992, Note_on_c, 0, 71, 92
2, 83040, Note_on_c, 0, 71, 0
2, 83040, Note_on_c, 0, 72, 92
2, 83088, Note_on_c, 0, 72, 0
2, 83088, Note_on_c, 0, 74, 92
2, 83136, Note_on_c, 0, 74, 0
2, 83136, Note_on_c, 0, 76, 92
2, 83184, Note_on_c, 0, 76, 0
2, 83184, Note_on_c, 0, 78, 92
2, 83232, Note_on_c, 0, 78, 0
2, 83232, Note_on_c, 0, 80, 92
2, 83280, Note_on_c, 0, 80, 0
2, 83280, Note_on_c, 0, 81, 92
2, 83328, Note_on_c, 0, 81, 0
2, 83328, Note_on_c, 0, 83, 92
2, 83376, Note_on_c, 0, 83, 0
2, 83760, Note_on_c, 0, 81, 92
2, 83808, Note_on_c, 0, 81, 0
2, 83808, Note_on_c, 0, 88, 92
2, 83856, Note_on_c, 0, 88, 0
2, 83856, Note_on_c, 0, 86, 92
2, 83904, Note_on_c, 0, 86, 0
2, 83904, Note_on_c, 0, 84, 92
2, 83952, Note_on_c, 0, 84, 0
2, 83952, Note_on_c, 0, 83, 92
2, 84000, Note_on_c, 0, 83, 0
2, 84000, Note_on_c, 0, 81, 92
2, 84048, Note_on_c, 0, 81, 0
2, 84048, Note_on_c, 0, 79, 92
2, 84096, Note_on_c, 0, 79, 0
2, 84096, Note_on_c, 0, 77, 92
2, 84144, Note_on_c, 0, 77, 0
2, 84528, Note_on_c, 0, 79, 92
2, 84576, Note_on_c, 0, 79, 0
2, 84576, Note_on_c, 0, 86, 92
2, 84624, Note_on_c, 0, 86, 0
2, 84624, Note_on_c, 0, 84, 92
2, 84672, Note_on_c, 0, 84, 0
2, 84672, Note_on_c, 0, 83, 92
2, 84720, Note_on_c, 0, 83, 0
2, 84720, Note_on_c, 0, 81, 92
2, 84768, Note_on_c, 0, 81, 0
2, 84768, Note_on_c, 0, 79, 92
2, 84816, Note_on_c, 0, 79, 0
2, 84816, Note_on_c, 0, 77, 92
2, 84864, Note_on_c, 0, 77, 0
2, 84864, Note_on_c, 0, 76, 92
2, 84912, Note_on_c, 0, 76, 0
2, 85296, Note_on_c, 0, 77, 92
2, 85344, Note_on_c, 0, 77, 0
2, 85344, Note_on_c, 0, 84, 92
2, 85392, Note_on_c, 0, 84, 0
2, 85392, Note_on_c, 0, 83, 92
2, 85440, Note_on_c, 0, 83, 0
2, 85440, Note_on_c, 0, 81, 92
2, 85488, Note_on_c, 0, 81, 0
2, 85488, Note_on_c, 0, 79, 92
2, 85536, Note_on_c, 0, 79, 0
2, 85536, Note_on_c, 0, 77, 92
2, 85584, Note_on_c, 0, 77, 0
2, 85584, Note_on_c, 0, 76, 92
2, 85632, Note_on_c, 0, 76, 0
2, 85632, Note_on_c, 0, 74, 92
2, 85680, Note_on_c, 0, 74, 0
2, 86064, Note_on_c, 0, 76, 92
2, 86112, Note_on_c, 0, 76, 0
2, 86112, Note_on_c, 0, 83, 92
2, 86160, Note_on_c, 0, 83, 0
2, 86160, Note_on_c, 0, 81, 92
2, 86208, Note_on_c, 0, 81, 0
2, 86208, Note_on_c, 0, 80, 92
2, 86256, Note_on_c, 0, 80, 0
2, 86256, Note_on_c, 0, 77, 92
2, 86304, Note_on_c, 0, 77, 0
2, 86304, Note_on_c, 0, 76, 92
2, 86352, Note_on_c, 0, 76, 0
2, 86352, Note_on_c, 0, 74, 92
2, 86400, Note_on_c, 0, 74, 0
2, 86400, Note_on_c, 0, 72, 92
2, 86448, Note_on_c, 0, 72, 0
2, 86832, Note_on_c, 0, 70, 92
2, 86880, Note_on_c, 0, 70, 0
2, 86880, Note_on_c, 0, 74, 92
2, 86928, Note_on_c, 0, 74, 0
2, 86928, Note_on_c, 0, 72, 92
2, 86976, Note_on_c, 0, 72, 0
2, 86976, Note_on_c, 0, 70, 92
2, 87024, Note_on_c, 0, 70, 0
2, 87024, Note_on_c, 0, 69, 92
2, 87072, Note_on_c, 0, 69, 0
2, 87072, Note_on_c, 0, 67, 92
2, 87120, Note_on_c, 0, 67, 0
2, 87120, Note_on_c, 0, 65, 92
2, 87168, Note_on_c, 0, 65, 0
2, 87168, Note_on_c, 0, 64, 92
2, 87216, Note_on_c, 0, 64, 0
2, 87216, Note_on_c, 0, 65, 92
2, 87264, Note_on_c, 0, 65, 0
2, 87264, Note_on_c, 0, 67, 92
2, 87312, Note_on_c, 0, 67, 0
2, 87312, Note_on_c, 0, 69, 92
2, 87360, Note_on_c, 0, 69, 0
2, 87360, Note_on_c, 0, 70, 92
2, 87408, Note_on_c, 0, 70, 0
2, 87408, Note_on_c, 0, 72, 92
2, 87456, Note_on_c, 0, 72, 0
2, 87456, Note_on_c, 0, 74, 92
2, 87504, Note_on_c, 0, 74, 0
2, 87504, Note_on_c, 0, 76, 92
2, 87552, Note_on_c, 0, 76, 0
2, 87552, Note_on_c, 0, 77, 60
2, 87936, Note_on_c, 0, 77, 0
2, 87936, Note_on_c, 0, 81, 60
2, 88128, Note_on_c, 0, 81, 0
2, 88128, Note_on_c, 0, 84, 60
2, 88320, Note_on_c, 0, 84, 0
2, 88320, Note_on_c, 0, 76, 84
2, 88608, Note_on_c, 0, 76, 0
2, 88608, Note_on_c, 0, 77, 60
2, 88656, Note_on_c, 0, 77, 0
2, 88656, Note_on_c, 0, 79, 60
2, 88704, Note_on_c, 0, 79, 0
2, 88704, Note_on_c, 0, 77, 60
2, 88864, Note_on_c, 0, 77, 0
2, 89088, Note_on_c, 0, 86, 84
2, 89472, Note_on_c, 0, 86, 0
2, 89472, Note_on_c, 0, 84, 60
2, 89664, Note_on_c, 0, 84, 0
2, 89664, Note_on_c, 0, 89, 60
2, 89856, Note_on_c, 0, 89, 0
2, 89856, Note_on_c, 0, 84, 84
2, 90048, Note_on_c, 0, 84, 0
2, 90048, Note_on_c, 0, 82, 60
2, 90080, Note_on_c, 0, 82, 0
2, 90080, Note_on_c, 0, 84, 60
2, 90112, Note_on_c, 0, 84, 0
2, 90112, Note_on_c, 0, 82, 60
2, 90144, Note_on_c, 0, 82, 0
2, 90144, Note_on_c, 0, 81, 60
2, 90192, Note_on_c, 0, 81, 0
2, 90192, Note_on_c, 0, 82, 60
2, 90240, Note_on_c, 0, 82, 0
2, 90240, Note_on_c, 0, 81, 60
2, 90400, Note_on_c, 0, 81, 0
2, 90624, Note_on_c, 0, 74, 45
2, 90720, Note_on_c, 0, 74, 0
2, 90720, Note_on_c, 0, 76, 45
2, 90768, Note_on_c, 0, 76, 0
2, 90768, Note_on_c, 0, 77, 45
2, 90816, Note_on_c, 0, 77, 0
2, 90816, Note_on_c, 0, 79, 45
2, 90864, Note_on_c, 0, 79, 0
2, 90864, Note_on_c, 0, 81, 45
2, 90912, Note_on_c, 0, 81, 0
2, 90912, Note_on_c, 0, 82, 45
2, 90960, Note_on_c, 0, 82, 0
2, 90960, Note_on_c, 0, 84, 45
2, 91008, Note_on_c, 0, 84, 0
2, 91008, Note_on_c, 0, 86, 45
2, 91056, Note_on_c, 0, 86, 0
2, 91056, Note_on_c, 0, 84, 45
2, 91104, Note_on_c, 0, 84, 0
2, 91104, Note_on_c, 0, 82, 45
2, 91152, Note_on_c, 0, 82, 0
2, 91152, Note_on_c, 0, 81, 45
2, 91200, Note_on_c, 0, 81, 0
2, 91200, Note_on_c, 0, 79, 45
2, 91248, Note_on_c, 0, 79, 0
2, 91248, Note_on_c, 0, 77, 45
2, 91296, Note_on_c, 0, 77, 0
2, 91296, Note_on_c, 0, 76, 45
2, 91344, Note_on_c, 0, 76, 0
2, 91344, Note_on_c, 0, 74, 45
2, 91392, Note_on_c, 0, 74, 0
2, 91392, Note_on_c, 0, 72, 45
2, 91488, Note_on_c, 0, 72, 0
2, 91488, Note_on_c, 0, 74, 45
2, 91536, Note_on_c, 0, 74, 0
2, 91536, Note_on_c, 0, 76, 45
2, 91584, Note_on_c, 0, 76, 0
2, 91584, Note_on_c, 0, 77, 45
2, 91632, Note_on_c, 0, 77, 0
2, 91632, Note_on_c, 0, 79, 45
2, 91680, Note_on_c, 0, 79, 0
2, 91680, Note_on_c, 0, 81, 45
2, 91728, Note_on_c, 0, 81, 0
2, 91728, Note_on_c, 0, 82, 45
2, 91776, Note_on_c, 0, 82, 0
2, 91776, Note_on_c, 0, 84, 45
2, 91824, Note_on_c, 0, 84, 0
2, 91824, Note_on_c, 0, 82, 45
2, 91872, Note_on_c, 0, 82, 0
2, 91872, Note_on_c, 0, 81, 45
2, 91920, Note_on_c, 0, 81, 0
2, 91920, Note_on_c, 0, 79, 45
2, 91968, Note_on_c, 0, 79, 0
2, 91968, Note_on_c, 0, 77, 45
2, 92016, Note_on_c, 0, 77, 0
2, 92016, Note_on_c, 0, 76, 45
2, 92064, Note_on_c, 0, 76, 0
2, 92064, Note_on_c, 0, 74, 45
2, 92112, Note_on_c, 0, 74, 0
2, 92112, Note_on_c, 0, 72, 45
2, 92160, Note_on_c, 0, 72, 0
2, 92160, Note_on_c, 0, 70, 45
2, 92256, Note_on_c, 0, 70, 0
2, 92256, Note_on_c, 0, 72, 45
2, 92304, Note_on_c, 0, 72, 0
2, 92304, Note_on_c, 0, 74, 45
2, 92352, Note_on_c, 0, 74, 0
2, 92352, Note_on_c, 0, 76, 45
2, 92400, Note_on_c, 0, 76, 0
2, 92400, Note_on_c, 0, 77, 45
2, 92448, Note_on_c, 0, 77, 0
2, 92448, Note_on_c, 0, 79, 45
2, 92496, Note_on_c, 0, 79, 0
2, 92496, Note_on_c, 0, 81, 45
2, 92544, Note_on_c, 0, 81, 0
2, 92544, Note_on_c, 0, 82, 45
2, 92592, Note_on_c, 0, 82, 0
2, 92592, Note_on_c, 0, 81, 45
2, 92640, Note_on_c, 0, 81, 0
2, 92640, Note_on_c, 0, 79, 45
2, 92688, Note_on_c, 0, 79, 0
2, 92688, Note_on_c, 0, 77, 45
2, 92736, Note_on_c, 0, 77, 0
2, 92736, Note_on_c, 0, 76, 45
2, 92784, Note_on_c, 0, 76, 0
2, 92784, Note_on_c, 0, 74, 45
2, 92832, Note_on_c, 0, 74, 0
2, 92832, Note_on_c, 0, 72, 45
2, 92880, Note_on_c, 0, 72, 0
2, 92880, Note_on_c, 0, 70, 45
2, 92928, Note_on_c, 0, 70, 0
2, 92928, Note_on_c, 0, 69, 45
2, 93024, Note_on_c, 0, 69, 0
2, 93024, Note_on_c, 0, 70, 45
2, 93072, Note_on_c, 0, 70, 0
2, 93072, Note_on_c, 0, 72, 45
2, 93120, Note_on_c, 0, 72, 0
2, 93120, Note_on_c, 0, 74, 45
2, 93168, Note_on_c, 0, 74, 0
2, 93168, Note_on_c, 0, 76, 45
2, 93216, Note_on_c, 0, 76, 0
2, 93216, Note_on_c, 0, 77, 45
2, 93264, Note_on_c, 0, 77, 0
2, 93264, Note_on_c, 0, 79, 45
2, 93312, Note_on_c, 0, 79, 0
2, 93312, Note_on_c, 0, 81, 45
2, 93360, Note_on_c, 0, 81, 0
2, 93360, Note_on_c, 0, 79, 45
2, 93408, Note_on_c, 0, 79, 0
2, 93408, Note_on_c, 0, 77, 45
2, 93456, Note_on_c, 0, 77, 0
2, 93456, Note_on_c, 0, 76, 45
2, 93504, Note_on_c, 0, 76, 0
2, 93504, Note_on_c, 0, 74, 45
2, 93552, Note_on_c, 0, 74, 0
2, 93552, Note_on_c, 0, 72, 45
2, 93600, Note_on_c, 0, 72, 0
2, 93600, Note_on_c, 0, 70, 45
2, 93648, Note_on_c, 0, 70, 0
2, 93648, Note_on_c, 0, 69, 45
2, 93696, Note_on_c, 0, 69, 0
2, 93696, Note_on_c, 0, 81, 75
2, 93744, Note_on_c, 0, 81, 0
2, 94272, Note_on_c, 0, 72, 75
2, 94272, Note_on_c, 0, 81, 75
2, 94320, Note_on_c, 0, 72, 0
2, 94320, Note_on_c, 0, 81, 0
2, 94464, Note_on_c, 0, 72, 75
2, 94464, Note_on_c, 0, 79, 75
2, 94512, Note_on_c, 0, 72, 0
2, 94512, Note_on_c, 0, 79, 0
2, 95040, Note_on_c, 0, 72, 75
2, 95040, Note_on_c, 0, 79, 75
2, 95088, Note_on_c, 0, 72, 0
2, 95088, Note_on_c, 0, 79, 0
2, 95232, Note_on_c, 0, 72, 75
2, 95232, Note_on_c, 0, 77, 75
2, 95280, Note_on_c, 0, 72, 0
2, 95280, Note_on_c, 0, 77, 0
2, 95808, Note_on_c, 0, 71, 75
2, 95808, Note_on_c, 0, 77, 75
2, 95856, Note_on_c, 0, 71, 0
2, 95856, Note_on_c, 0, 77, 0
2, 96000, Note_on_c, 0, 72, 75
2, 96000, Note_on_c, 0, 76, 75
2, 96048, Note_on_c, 0, 72, 0
2, 96048, Note_on_c, 0, 76, 0
2, 96576, Note_on_c, 0, 72, 75
2, 96576, Note_on_c, 0, 76, 75
2, 96624, Note_on_c, 0, 72, 0
2, 96624, Note_on_c, 0, 76, 0
2, 96768, Note_on_c, 0, 74, 45
2, 96816, Note_on_c, 0, 74, 0
2, 96816, Note_on_c, 0, 62, 45
2, 96864, Note_on_c, 0, 62, 0
2, 96864, Note_on_c, 0, 64, 45
2, 96912, Note_on_c, 0, 64, 0
2, 96912, Note_on_c, 0, 65, 45
2, 96960, Note_on_c, 0, 65, 0
2, 96960, Note_on_c, 0, 67, 45
2, 97008, Note_on_c, 0, 67, 0
2, 97008, Note_on_c, 0, 69, 45
2, 97056, Note_on_c, 0, 69, 0
2, 97056, Note_on_c, 0, 71, 45
2, 97104, Note_on_c, 0, 71, 0
2, 97104, Note_on_c, 0, 73, 45
2, 97152, Note_on_c, 0, 73, 0
2, 97152, Note_on_c, 0, 74, 45
2, 97200, Note_on_c, 0, 74, 0
2, 97200, Note_on_c, 0, 69, 45
2, 97248, Note_on_c, 0, 69, 0
2, 97248, Note_on_c, 0, 71, 45
2, 97296, Note_on_c, 0, 71, 0
2, 97296, Note_on_c, 0, 73, 45
2, 97344, Note_on_c, 0, 73, 0
2, 97344, Note_on_c, 0, 74, 45
2, 97392, Note_on_c, 0, 74, 0
2, 97392, Note_on_c, 0, 76, 47
2, 97440, Note_on_c, 0, 76, 0
2, 97440, Note_on_c, 0, 77, 49
2, 97488, Note_on_c, 0, 77, 0
2, 97488, Note_on_c, 0, 79, 51
2, 97536, Note_on_c, 0, 79, 0
2, 97536, Note_on_c, 0, 81, 53
2, 97584, Note_on_c, 0, 81, 0
2, 97584, Note_on_c, 0, 83, 55
2, 97632, Note_on_c, 0, 83, 0
2, 97632, Note_on_c, 0, 84, 57
2, 97680, Note_on_c, 0, 84, 0
2, 97680, Note_on_c, 0, 83, 59
2, 97728, Note_on_c, 0, 83, 0
2, 97728, Note_on_c, 0, 81, 61
2, 97776, Note_on_c, 0, 81, 0
2, 97776, Note_on_c, 0, 79, 63
2, 97824, Note_on_c, 0, 79, 0
2, 97824, Note_on_c, 0, 77, 65
2, 97872, Note_on_c, 0, 77, 0
2, 97872, Note_on_c, 0, 76, 67
2, 97920, Note_on_c, 0, 76, 0
2, 97920, Note_on_c, 0, 77, 69
2, 97968, Note_on_c, 0, 77, 0
2, 97968, Note_on_c, 0, 79, 71
2, 98016, Note_on_c, 0, 79, 0
2, 98016, Note_on_c, 0, 81, 74
2, 98064, Note_on_c, 0, 81, 0
2, 98064, Note_on_c, 0, 79, 77
2, 98112, Note_on_c, 0, 79, 0
2, 98112, Note_on_c, 0, 77, 80
2, 98160, Note_on_c, 0, 77, 0
2, 98160, Note_on_c, 0, 76, 83
2, 98208, Note_on_c, 0, 76, 0
2, 98208, Note_on_c, 0, 74, 86
2, 98256, Note_on_c, 0, 74, 0
2, 98256, Note_on_c, 0, 72, 89
2, 98304, Note_on_c, 0, 72, 0
2, 98304, Note_on_c, 0, 71, 127
2, 98400, Note_on_c, 0, 71, 0
2, 98400, Note_on_c, 0, 79, 92
2, 98432, Note_on_c, 0, 79, 0
2, 98496, Note_on_c, 0, 76, 92
2, 98528, Note_on_c, 0, 76, 0
2, 98592, Note_on_c, 0, 72, 92
2, 98624, Note_on_c, 0, 72, 0
2, 98688, Note_on_c, 0, 74, 127
2, 98784, Note_on_c, 0, 74, 0
2, 98784, Note_on_c, 0, 79, 92
2, 98816, Note_on_c, 0, 79, 0
2, 98880, Note_on_c, 0, 76, 92
2, 98912, Note_on_c, 0, 76, 0
2, 98976, Note_on_c, 0, 72, 92
2, 99008, Note_on_c, 0, 72, 0
2, 99072, Note_on_c, 0, 74, 92
2, 99120, Note_on_c, 0, 74, 0
2, 99264, Note_on_c, 0, 71, 92
2, 99264, Note_on_c, 0, 74, 92
2, 99264, Note_on_c, 0, 79, 92
2, 99312, Note_on_c, 0, 71, 0
2, 99312, Note_on_c, 0, 74, 0
2, 99312, Note_on_c, 0, 79, 0
2, 99456, Note_on_c, 0, 67, 92
2, 99504, Note_on_c, 0, 67, 0
2, 100608, Note_on_c, 0, 79, 84
2, 100704, Note_on_c, 0, 79, 0
2, 100704, Note_on_c, 0, 76, 60
2, 100736, Note_on_c, 0, 76, 0
2, 100800, Note_on_c, 0, 72, 60
2, 101088, Note_on_c, 0, 72, 0
2, 101088, Note_on_c, 0, 74, 60
2, 101136, Note_on_c, 0, 74, 0
2, 101136, Note_on_c, 0, 76, 60
2, 101184, Note_on_c, 0, 76, 0
2, 101184, Note_on_c, 0, 74, 60
2, 101280, Note_on_c, 0, 74, 0
2, 101280, Note_on_c, 0, 72, 60
2, 101312, Note_on_c, 0, 72, 0
2, 101376, Note_on_c, 0, 74, 84
2, 101400, Note_on_c, 0, 74, 0
2, 101400, Note_on_c, 0, 72, 60
2, 101424, Note_on_c, 0, 72, 0
2, 101424, Note_on_c, 0, 74, 60
2, 101448, Note_on_c, 0, 74, 0
2, 101448, Note_on_c, 0, 72, 60
2, 101472, Note_on_c, 0, 72, 0
2, 101472, Note_on_c, 0, 74, 60
2, 101496, Note_on_c, 0, 74, 0
2, 101496, Note_on_c, 0, 72, 60
2, 101520, Note_on_c, 0, 72, 0
2, 101520, Note_on_c, 0, 71, 60
2, 101552, Note_on_c, 0, 71, 0
2, 101568, Note_on_c, 0, 71, 60
2, 101728, Note_on_c, 0, 71, 0
2, 102144, Note_on_c, 0, 79, 84
2, 102240, Note_on_c, 0, 79, 0
2, 102240, Note_on_c, 0, 76, 60
2, 102272, Note_on_c, 0, 76, 0
2, 102336, Note_on_c, 0, 72, 60
2, 102624, Note_on_c, 0, 72, 0
2, 102624, Note_on_c, 0, 74, 60
2, 102672, Note_on_c, 0, 74, 0
2, 102672, Note_on_c, 0, 76, 60
2, 102720, Note_on_c, 0, 76, 0
2, 102720, Note_on_c, 0, 74, 60
2, 102816, Note_on_c, 0, 74, 0
2, 102816, Note_on_c, 0, 72, 60
2, 102848, Note_on_c, 0, 72, 0
2, 102912, Note_on_c, 0, 74, 84
2, 102934, Note_on_c, 0, 74, 0
2, 102936, Note_on_c, 0, 72, 60
2, 102958, Note_on_c, 0, 72, 0
2, 102960, Note_on_c, 0, 74, 60
2, 102982, Note_on_c, 0, 74, 0
2, 102984, Note_on_c, 0, 72, 60
2, 103006, Note_on_c, 0, 72, 0
2, 103008, Note_on_c, 0, 74, 60
2, 103030, Note_on_c, 0, 74, 0
2, 103032, Note_on_c, 0, 72, 60
2, 103054, Note_on_c, 0, 72, 0
2, 103056, Note_on_c, 0, 71, 60
2, 103088, Note_on_c, 0, 71, 0
2, 103104, Note_on_c, 0, 71, 60
2, 103264, Note_on_c, 0, 71, 0
2, 103680, Note_on_c, 0, 79, 105
2, 103872, Note_on_c, 0, 79, 0
2, 103920, Note_on_c, 0, 79, 75
2, 103968, Note_on_c, 0, 79, 0
2, 103968, Note_on_c, 0, 76, 75
2, 104016, Note_on_c, 0, 76, 0
2, 104016, Note_on_c, 0, 72, 75
2, 104064, Note_on_c, 0, 72, 0
2, 104064, Note_on_c, 0, 69, 75
2, 104256, Note_on_c, 0, 69, 0
2, 104304, Note_on_c, 0, 69, 75
2, 104352, Note_on_c, 0, 69, 0
2, 104352, Note_on_c, 0, 72, 75
2, 104400, Note_on_c, 0, 72, 0
2, 104400, Note_on_c, 0, 69, 75
2, 104448, Note_on_c, 0, 69, 0
2, 104448, Note_on_c, 0, 77, 105
2, 104608, Note_on_c, 0, 77, 0
2, 104688, Note_on_c, 0, 77, 75
2, 104736, Note_on_c, 0, 77, 0
2, 104736, Note_on_c, 0, 74, 75
2, 104784, Note_on_c, 0, 74, 0
2, 104784, Note_on_c, 0, 71, 75
2, 104832, Note_on_c, 0, 71, 0
2, 104832, Note_on_c, 0, 67, 75
2, 104992, Note_on_c, 0, 67, 0
2, 105072, Note_on_c, 0, 79, 75
2, 105120, Note_on_c, 0, 79, 0
2, 105120, Note_on_c, 0, 83, 75
2, 105168, Note_on_c, 0, 83, 0
2, 105168, Note_on_c, 0, 79, 75
2, 105216, Note_on_c, 0, 79, 0
2, 105216, Note_on_c, 0, 88, 105
2, 105376, Note_on_c, 0, 88, 0
2, 105456, Note_on_c, 0, 88, 75
2, 105504, Note_on_c, 0, 88, 0
2, 105504, Note_on_c, 0, 84, 75
2, 105552, Note_on_c, 0, 84, 0
2, 105552, Note_on_c, 0, 81, 75
2, 105600, Note_on_c, 0, 81, 0
2, 105600, Note_on_c, 0, 77, 75
2, 105760, Note_on_c, 0, 77, 0
2, 105840, Note_on_c, 0, 77, 75
2, 105888, Note_on_c, 0, 77, 0
2, 105888, Note_on_c, 0, 81, 75
2, 105936, Note_on_c, 0, 81, 0
2, 105936, Note_on_c, 0, 77, 75
2, 105984, Note_on_c, 0, 77, 0
2, 105984, Note_on_c, 0, 86, 105
2, 106144, Note_on_c, 0, 86, 0
2, 106224, Note_on_c, 0, 86, 75
2, 106272, Note_on_c, 0, 86, 0
2, 106272, Note_on_c, 0, 83, 75
2, 106320, Note_on_c, 0, 83, 0
2, 106320, Note_on_c, 0, 79, 75
2, 106368, Note_on_c, 0, 79, 0
2, 106368, Note_on_c, 0, 76, 75
2, 106528, Note_on_c, 0, 76, 0
2, 106608, Note_on_c, 0, 84, 75
2, 106656, Note_on_c, 0, 84, 0
2, 106656, Note_on_c, 0, 79, 75
2, 106704, Note_on_c, 0, 79, 0
2, 106704, Note_on_c, 0, 76, 75
2, 106752, Note_on_c, 0, 76, 0
2, 106752, Note_on_c, 0, 74, 45
2, 107136, Note_on_c, 0, 74, 0
2, 107136, Note_on_c, 0, 73, 45
2, 107160, Note_on_c, 0, 73, 0
2, 107160, Note_on_c, 0, 74, 45
2, 107328, Note_on_c, 0, 74, 0
2, 107328, Note_on_c, 0, 73, 51
2, 107352, Note_on_c, 0, 73, 0
2, 107352, Note_on_c, 0, 74, 52
2, 107520, Note_on_c, 0, 74, 0
2, 107520, Note_on_c, 0, 81, 82
2, 107904, Note_on_c, 0, 81, 0
2, 107904, Note_on_c, 0, 80, 75
2, 107928, Note_on_c, 0, 80, 0
2, 107928, Note_on_c, 0, 81, 76
2, 108096, Note_on_c, 0, 81, 0
2, 108096, Note_on_c, 0, 80, 83
2, 108120, Note_on_c, 0, 80, 0
2, 108120, Note_on_c, 0, 81, 84
2, 108288, Note_on_c, 0, 81, 0
2, 108288, Note_on_c, 0, 79, 92
2, 108384, Note_on_c, 0, 79, 0
2, 108384, Note_on_c, 0, 81, 92
2, 108432, Note_on_c, 0, 81, 0
2, 108432, Note_on_c, 0, 83, 92
2, 108480, Note_on_c, 0, 83, 0
2, 108480, Note_on_c, 0, 84, 92
2, 108528, Note_on_c, 0, 84, 0
2, 108528, Note_on_c, 0, 86, 92
2, 108576, Note_on_c, 0, 86, 0
2, 108576, Note_on_c, 0, 88, 92
2, 108624, Note_on_c, 0, 88, 0
2, 108624, Note_on_c, 0, 86, 92
2, 108672, Note_on_c, 0, 86, 0
2, 108672, Note_on_c, 0, 84, 92
2, 108720, Note_on_c, 0, 84, 0
2, 108720, Note_on_c, 0, 83, 92
2, 108768, Note_on_c, 0, 83, 0
2, 108768, Note_on_c, 0, 81, 92
2, 108816, Note_on_c, 0, 81, 0
2, 108816, Note_on_c, 0, 79, 92
2, 108864, Note_on_c, 0, 79, 0
2, 108864, Note_on_c, 0, 77, 92
2, 108912, Note_on_c, 0, 77, 0
2, 108912, Note_on_c, 0, 76, 92
2, 108960, Note_on_c, 0, 76, 0
2, 108960, Note_on_c, 0, 74, 92
2, 109008, Note_on_c, 0, 74, 0
2, 109008, Note_on_c, 0, 72, 92
2, 109054, Note_on_c, 0, 72, 0
2, 109056, Note_on_c, 0, 76, 92
2, 109080, Note_on_c, 0, 76, 0
2, 109080, Note_on_c, 0, 74, 92
2, 109104, Note_on_c, 0, 74, 0
2, 109104, Note_on_c, 0, 76, 92
2, 109128, Note_on_c, 0, 76, 0
2, 109128, Note_on_c, 0, 74, 92
2, 109152, Note_on_c, 0, 74, 0
2, 109152, Note_on_c, 0, 76, 92
2, 109176, Note_on_c, 0, 76, 0
2, 109176, Note_on_c, 0, 74, 92
2, 109200, Note_on_c, 0, 74, 0
2, 109200, Note_on_c, 0, 76, 92
2, 109224, Note_on_c, 0, 76, 0
2, 109224, Note_on_c, 0, 74, 92
2, 109248, Note_on_c, 0, 74, 0
2, 109248, Note_on_c, 0, 76, 92
2, 109272, Note_on_c, 0, 76, 0
2, 109272, Note_on_c, 0, 74, 92
2, 109296, Note_on_c, 0, 74, 0
2, 109296, Note_on_c, 0, 76, 92
2, 109320, Note_on_c, 0, 76, 0
2, 109320, Note_on_c, 0, 74, 92
2, 109344, Note_on_c, 0, 74, 0
2, 109344, Note_on_c, 0, 76, 92
2, 109368, Note_on_c, 0, 76, 0
2, 109368, Note_on_c, 0, 74, 92
2, 109392, Note_on_c, 0, 74, 0
2, 109392, Note_on_c, 0, 76, 92
2, 109416, Note_on_c, 0, 76, 0
2, 109416, Note_on_c, 0, 74, 92
2, 109440, Note_on_c, 0, 74, 0
2, 109440, Note_on_c, 0, 76, 92
2, 109464, Note_on_c, 0, 76, 0
2, 109464, Note_on_c, 0, 74, 92
2, 109488, Note_on_c, 0, 74, 0
2, 109488, Note_on_c, 0, 76, 92
2, 109512, Note_on_c, 0, 76, 0
2, 109512, Note_on_c, 0, 74, 92
2, 109536, Note_on_c, 0, 74, 0
2, 109536, Note_on_c, 0, 76, 92
2, 109560, Note_on_c, 0, 76, 0
2, 109560, Note_on_c, 0, 74, 92
2, 109584, Note_on_c, 0, 74, 0
2, 109584, Note_on_c, 0, 76, 92
2, 109608, Note_on_c, 0, 76, 0
2, 109608, Note_on_c, 0, 74, 92
2, 109632, Note_on_c, 0, 74, 0
2, 109632, Note_on_c, 0, 76, 92
2, 109656, Note_on_c, 0, 76, 0
2, 109656, Note_on_c, 0, 74, 92
2, 109680, Note_on_c, 0, 74, 0
2, 109680, Note_on_c, 0, 76, 92
2, 109704, Note_on_c, 0, 76, 0
2, 109704, Note_on_c, 0, 74, 92
2, 109728, Note_on_c, 0, 74, 0
2, 109728, Note_on_c, 0, 76, 92
2, 109752, Note_on_c, 0, 76, 0
2, 109752, Note_on_c, 0, 74, 92
2, 109776, Note_on_c, 0, 74, 0
2, 109776, Note_on_c, 0, 72, 92
2, 109800, Note_on_c, 0, 72, 0
2, 109800, Note_on_c, 0, 74, 92
2, 109824, Note_on_c, 0, 74, 0
2, 109824, Note_on_c, 0, 72, 92
2, 109872, Note_on_c, 0, 72, 0
2, 110016, Note_on_c, 0, 72, 92
2, 110064, Note_on_c, 0, 72, 0
2, 110064, Note_on_c, 0, 67, 92
2, 110112, Note_on_c, 0, 67, 0
2, 110112, Note_on_c, 0, 72, 92
2, 110160, Note_on_c, 0, 72, 0
2, 110160, Note_on_c, 0, 76, 92
2, 110208, Note_on_c, 0, 76, 0
2, 110208, Note_on_c, 0, 79, 127
2, 110256, Note_on_c, 0, 79, 0
2, 110256, Note_on_c, 0, 76, 92
2, 110304, Note_on_c, 0, 76, 0
2, 110304, Note_on_c, 0, 72, 92
2, 110352, Note_on_c, 0, 72, 0
2, 110352, Note_on_c, 0, 76, 92
2, 110400, Note_on_c, 0, 76, 0
2, 110400, Note_on_c, 0, 77, 127
2, 110448, Note_on_c, 0, 77, 0
2, 110448, Note_on_c, 0, 74, 92
2, 110496, Note_on_c, 0, 74, 0
2, 110496, Note_on_c, 0, 71, 92
2, 110544, Note_on_c, 0, 71, 0
2, 110544, Note_on_c, 0, 74, 92
2, 110592, Note_on_c, 0, 74, 0
2, 110592, Note_on_c, 0, 72, 92
2, 110640, Note_on_c, 0, 72, 0
2, 110784, Note_on_c, 0, 60, 92
2, 110832, Note_on_c, 0, 60, 0
2, 110832, Note_on_c, 0, 55, 92
2, 110880, Note_on_c, 0, 55, 0
2, 110880, Note_on_c, 0, 60, 92
2, 110928, Note_on_c, 0, 60, 0
2, 110928, Note_on_c, 0, 64, 92
2, 110976, Note_on_c, 0, 64, 0
2, 110976, Note_on_c, 0, 67, 127
2, 111024, Note_on_c, 0, 67, 0
2, 111024, Note_on_c, 0, 64, 92
2, 111072, Note_on_c, 0, 64, 0
2, 111072, Note_on_c, 0, 60, 92
2, 111120, Note_on_c, 0, 60, 0
2, 111120, Note_on_c, 0, 64, 92
2, 111168, Note_on_c, 0, 64, 0
2, 111168, Note_on_c, 0, 65, 127
2, 111216, Note_on_c, 0, 65, 0
2, 111216, Note_on_c, 0, 62, 92
2, 111264, Note_on_c, 0, 62, 0
2, 111264, Note_on_c, 0, 59, 92
2, 111312, Note_on_c, 0, 59, 0
2, 111312, Note_on_c, 0, 62, 92
2, 111360, Note_on_c, 0, 62, 0
2, 111360, Note_on_c, 0, 60, 92
2, 111408, Note_on_c, 0, 60, 0
2, 111552, Note_on_c, 0, 76, 92
2, 111552, Note_on_c, 0, 79, 92
2, 111552, Note_on_c, 0, 84, 92
2, 111600, Note_on_c, 0, 76, 0
2, 111600, Note_on_c, 0, 79, 0
2, 111600, Note_on_c, 0, 84, 0
2, 111744, Note_on_c, 0, 72, 92
2, 111792, Note_on_c, 0, 72, 0
2, 111792, End_track
3, 0, Start_track
3, 0, MIDI_port, 0
3, 0, Title_t, "Left Hand"
3, 0, Program_c, 1, 0
3, 0, Control_c, 1, 7, 127
3, 0, Control_c, 1, 10, 64
3, 0, Note_on_c, 1, 60, 45
3, 96, Note_on_c, 1, 60, 0
3, 96, Note_on_c, 1, 67, 45
3, 192, Note_on_c, 1, 67, 0
3, 192, Note_on_c, 1, 64, 45
3, 288, Note_on_c, 1, 64, 0
3, 288, Note_on_c, 1, 67, 45
3, 384, Note_on_c, 1, 67, 0
3, 384, Note_on_c, 1, 60, 45
3, 480, Note_on_c, 1, 60, 0
3, 480, Note_on_c, 1, 67, 45
3, 576, Note_on_c, 1, 67, 0
3, 576, Note_on_c, 1, 64, 45
3, 672, Note_on_c, 1, 64, 0
3, 672, Note_on_c, 1, 67, 45
3, 766, Note_on_c, 1, 67, 0
3, 768, Note_on_c, 1, 62, 45
3, 862, Note_on_c, 1, 62, 0
3, 864, Note_on_c, 1, 67, 45
3, 958, Note_on_c, 1, 67, 0
3, 960, Note_on_c, 1, 65, 45
3, 1054, Note_on_c, 1, 65, 0
3, 1056, Note_on_c, 1, 67, 45
3, 1150, Note_on_c, 1, 67, 0
3, 1152, Note_on_c, 1, 60, 45
3, 1246, Note_on_c, 1, 60, 0
3, 1248, Note_on_c, 1, 67, 45
3, 1342, Note_on_c, 1, 67, 0
3, 1344, Note_on_c, 1, 64, 45
3, 1438, Note_on_c, 1, 64, 0
3, 1440, Note_on_c, 1, 67, 45
3, 1534, Note_on_c, 1, 67, 0
3, 1536, Note_on_c, 1, 60, 45
3, 1630, Note_on_c, 1, 60, 0
3, 1632, Note_on_c, 1, 69, 45
3, 1726, Note_on_c, 1, 69, 0
3, 1728, Note_on_c, 1, 65, 45
3, 1822, Note_on_c, 1, 65, 0
3, 1824, Note_on_c, 1, 69, 45
3, 1918, Note_on_c, 1, 69, 0
3, 1920, Note_on_c, 1, 60, 45
3, 2014, Note_on_c, 1, 60, 0
3, 2016, Note_on_c, 1, 67, 45
3, 2110, Note_on_c, 1, 67, 0
3, 2112, Note_on_c, 1, 64, 45
3, 2206, Note_on_c, 1, 64, 0
3, 2208, Note_on_c, 1, 67, 45
3, 2302, Note_on_c, 1, 67, 0
3, 2304, Note_on_c, 1, 59, 45
3, 2398, Note_on_c, 1, 59, 0
3, 2400, Note_on_c, 1, 67, 45
3, 2494, Note_on_c, 1, 67, 0
3, 2496, Note_on_c, 1, 62, 45
3, 2590, Note_on_c, 1, 62, 0
3, 2592, Note_on_c, 1, 67, 45
3, 2686, Note_on_c, 1, 67, 0
3, 2688, Note_on_c, 1, 60, 45
3, 2782, Note_on_c, 1, 60, 0
3, 2784, Note_on_c, 1, 67, 45
3, 2878, Note_on_c, 1, 67, 0
3, 2880, Note_on_c, 1, 64, 45
3, 2974, Note_on_c, 1, 64, 0
3, 2976, Note_on_c, 1, 67, 45
3, 3070, Note_on_c, 1, 67, 0
3, 3072, Note_on_c, 1, 65, 45
3, 3232, Note_on_c, 1, 65, 0
3, 3648, Note_on_c, 1, 53, 45
3, 3648, Note_on_c, 1, 60, 45
3, 3696, Note_on_c, 1, 53, 0
3, 3696, Note_on_c, 1, 60, 0
3, 3840, Note_on_c, 1, 52, 45
3, 3840, Note_on_c, 1, 60, 45
3, 3888, Note_on_c, 1, 52, 0
3, 3888, Note_on_c, 1, 60, 0
3, 4416, Note_on_c, 1, 52, 45
3, 4416, Note_on_c, 1, 60, 45
3, 4464, Note_on_c, 1, 52, 0
3, 4464, Note_on_c, 1, 60, 0
3, 4608, Note_on_c, 1, 50, 45
3, 4608, Note_on_c, 1, 60, 45
3, 4656, Note_on_c, 1, 50, 0
3, 4656, Note_on_c, 1, 60, 0
3, 5184, Note_on_c, 1, 50, 45
3, 5184, Note_on_c, 1, 59, 45
3, 5232, Note_on_c, 1, 50, 0
3, 5232, Note_on_c, 1, 59, 0
3, 5376, Note_on_c, 1, 48, 45
3, 5376, Note_on_c, 1, 60, 45
3, 5424, Note_on_c, 1, 48, 0
3, 5424, Note_on_c, 1, 60, 0
3, 5952, Note_on_c, 1, 48, 45
3, 5952, Note_on_c, 1, 52, 45
3, 6000, Note_on_c, 1, 48, 0
3, 6000, Note_on_c, 1, 52, 0
3, 6144, Note_on_c, 1, 53, 45
3, 6144, Note_on_c, 1, 57, 45
3, 6864, Note_on_c, 1, 53, 0
3, 6864, Note_on_c, 1, 57, 0
3, 6912, Note_on_c, 1, 53, 45
3, 7200, Note_on_c, 1, 53, 0
3, 7200, Note_on_c, 1, 55, 62
3, 7296, Note_on_c, 1, 55, 0
3, 7296, Note_on_c, 1, 57, 68
3, 7584, Note_on_c, 1, 57, 0
3, 7584, Note_on_c, 1, 54, 86
3, 7678, Note_on_c, 1, 54, 0
3, 7680, Note_on_c, 1, 43, 92
3, 7728, Note_on_c, 1, 43, 0
3, 7728, Note_on_c, 1, 47, 92
3, 7776, Note_on_c, 1, 47, 0
3, 7776, Note_on_c, 1, 50, 92
3, 7824, Note_on_c, 1, 50, 0
3, 7824, Note_on_c, 1, 55, 92
3, 7872, Note_on_c, 1, 55, 0
3, 7872, Note_on_c, 1, 43, 92
3, 7920, Note_on_c, 1, 43, 0
3, 7920, Note_on_c, 1, 48, 92
3, 7968, Note_on_c, 1, 48, 0
3, 7968, Note_on_c, 1, 52, 92
3, 8016, Note_on_c, 1, 52, 0
3, 8016, Note_on_c, 1, 55, 92
3, 8064, Note_on_c, 1, 55, 0
3, 8064, Note_on_c, 1, 43, 92
3, 8112, Note_on_c, 1, 43, 0
3, 8112, Note_on_c, 1, 47, 92
3, 8160, Note_on_c, 1, 47, 0
3, 8160, Note_on_c, 1, 50, 92
3, 8208, Note_on_c, 1, 50, 0
3, 8208, Note_on_c, 1, 55, 92
3, 8256, Note_on_c, 1, 55, 0
3, 8256, Note_on_c, 1, 43, 92
3, 8304, Note_on_c, 1, 43, 0
3, 8304, Note_on_c, 1, 48, 92
3, 8352, Note_on_c, 1, 48, 0
3, 8352, Note_on_c, 1, 52, 92
3, 8400, Note_on_c, 1, 52, 0
3, 8400, Note_on_c, 1, 55, 92
3, 8448, Note_on_c, 1, 55, 0
3, 8448, Note_on_c, 1, 43, 92
3, 8496, Note_on_c, 1, 43, 0
3, 8640, Note_on_c, 1, 55, 92
3, 8688, Note_on_c, 1, 55, 0
3, 8832, Note_on_c, 1, 43, 92
3, 8992, Note_on_c, 1, 43, 0
3, 9216, Note_on_c, 1, 61, 63
3, 9264, Note_on_c, 1, 61, 0
3, 9264, Note_on_c, 1, 62, 45
3, 9312, Note_on_c, 1, 62, 0
3, 9312, Note_on_c, 1, 61, 45
3, 9360, Note_on_c, 1, 61, 0
3, 9360, Note_on_c, 1, 62, 45
3, 9408, Note_on_c, 1, 62, 0
3, 9408, Note_on_c, 1, 61, 45
3, 9456, Note_on_c, 1, 61, 0
3, 9456, Note_on_c, 1, 62, 45
3, 9504, Note_on_c, 1, 62, 0
3, 9504, Note_on_c, 1, 61, 45
3, 9552, Note_on_c, 1, 61, 0
3, 9552, Note_on_c, 1, 62, 45
3, 9600, Note_on_c, 1, 62, 0
3, 9600, Note_on_c, 1, 60, 63
3, 9648, Note_on_c, 1, 60, 0
3, 9648, Note_on_c, 1, 62, 45
3, 9696, Note_on_c, 1, 62, 0
3, 9696, Note_on_c, 1, 60, 45
3, 9744, Note_on_c, 1, 60, 0
3, 9744, Note_on_c, 1, 62, 45
3, 9792, Note_on_c, 1, 62, 0
3, 9792, Note_on_c, 1, 60, 45
3, 9840, Note_on_c, 1, 60, 0
3, 9840, Note_on_c, 1, 62, 45
3, 9888, Note_on_c, 1, 62, 0
3, 9888, Note_on_c, 1, 60, 45
3, 9936, Note_on_c, 1, 60, 0
3, 9936, Note_on_c, 1, 62, 45
3, 9982, Note_on_c, 1, 62, 0
3, 9984, Note_on_c, 1, 59, 63
3, 10030, Note_on_c, 1, 59, 0
3, 10032, Note_on_c, 1, 62, 45
3, 10078, Note_on_c, 1, 62, 0
3, 10080, Note_on_c, 1, 59, 45
3, 10126, Note_on_c, 1, 59, 0
3, 10128, Note_on_c, 1, 62, 45
3, 10174, Note_on_c, 1, 62, 0
3, 10176, Note_on_c, 1, 59, 45
3, 10222, Note_on_c, 1, 59, 0
3, 10224, Note_on_c, 1, 62, 45
3, 10270, Note_on_c, 1, 62, 0
3, 10272, Note_on_c, 1, 59, 45
3, 10318, Note_on_c, 1, 59, 0
3, 10320, Note_on_c, 1, 62, 45
3, 10366, Note_on_c, 1, 62, 0
3, 10368, Note_on_c, 1, 59, 45
3, 10414, Note_on_c, 1, 59, 0
3, 10416, Note_on_c, 1, 62, 45
3, 10462, Note_on_c, 1, 62, 0
3, 10464, Note_on_c, 1, 59, 45
3, 10510, Note_on_c, 1, 59, 0
3, 10512, Note_on_c, 1, 62, 45
3, 10558, Note_on_c, 1, 62, 0
3, 10560, Note_on_c, 1, 59, 45
3, 10606, Note_on_c, 1, 59, 0
3, 10608, Note_on_c, 1, 62, 45
3, 10654, Note_on_c, 1, 62, 0
3, 10656, Note_on_c, 1, 59, 45
3, 10702, Note_on_c, 1, 59, 0
3, 10704, Note_on_c, 1, 62, 45
3, 10750, Note_on_c, 1, 62, 0
3, 10752, Note_on_c, 1, 60, 60
3, 10798, Note_on_c, 1, 60, 0
3, 10800, Note_on_c, 1, 62, 60
3, 10846, Note_on_c, 1, 62, 0
3, 10848, Note_on_c, 1, 59, 60
3, 10894, Note_on_c, 1, 59, 0
3, 10896, Note_on_c, 1, 62, 60
3, 10942, Note_on_c, 1, 62, 0
3, 10944, Note_on_c, 1, 57, 60
3, 10990, Note_on_c, 1, 57, 0
3, 10992, Note_on_c, 1, 62, 60
3, 11038, Note_on_c, 1, 62, 0
3, 11040, Note_on_c, 1, 59, 60
3, 11086, Note_on_c, 1, 59, 0
3, 11088, Note_on_c, 1, 62, 60
3, 11134, Note_on_c, 1, 62, 0
3, 11136, Note_on_c, 1, 60, 60
3, 11182, Note_on_c, 1, 60, 0
3, 11184, Note_on_c, 1, 62, 60
3, 11230, Note_on_c, 1, 62, 0
3, 11232, Note_on_c, 1, 59, 60
3, 11278, Note_on_c, 1, 59, 0
3, 11280, Note_on_c, 1, 62, 60
3, 11326, Note_on_c, 1, 62, 0
3, 11328, Note_on_c, 1, 60, 60
3, 11374, Note_on_c, 1, 60, 0
3, 11376, Note_on_c, 1, 62, 60
3, 11422, Note_on_c, 1, 62, 0
3, 11424, Note_on_c, 1, 57, 60
3, 11470, Note_on_c, 1, 57, 0
3, 11472, Note_on_c, 1, 62, 60
3, 11518, Note_on_c, 1, 62, 0
3, 11520, Note_on_c, 1, 59, 45
3, 11566, Note_on_c, 1, 59, 0
3, 11568, Note_on_c, 1, 62, 45
3, 11614, Note_on_c, 1, 62, 0
3, 11616, Note_on_c, 1, 59, 45
3, 11662, Note_on_c, 1, 59, 0
3, 11664, Note_on_c, 1, 62, 45
3, 11710, Note_on_c, 1, 62, 0
3, 11712, Note_on_c, 1, 59, 45
3, 11758, Note_on_c, 1, 59, 0
3, 11760, Note_on_c, 1, 62, 45
3, 11806, Note_on_c, 1, 62, 0
3, 11808, Note_on_c, 1, 59, 45
3, 11854, Note_on_c, 1, 59, 0
3, 11856, Note_on_c, 1, 62, 45
3, 11902, Note_on_c, 1, 62, 0
3, 11904, Note_on_c, 1, 59, 45
3, 11950, Note_on_c, 1, 59, 0
3, 11952, Note_on_c, 1, 62, 45
3, 11998, Note_on_c, 1, 62, 0
3, 12000, Note_on_c, 1, 59, 45
3, 12046, Note_on_c, 1, 59, 0
3, 12048, Note_on_c, 1, 62, 45
3, 12094, Note_on_c, 1, 62, 0
3, 12096, Note_on_c, 1, 59, 45
3, 12142, Note_on_c, 1, 59, 0
3, 12144, Note_on_c, 1, 62, 45
3, 12190, Note_on_c, 1, 62, 0
3, 12192, Note_on_c, 1, 59, 45
3, 12238, Note_on_c, 1, 59, 0
3, 12240, Note_on_c, 1, 62, 45
3, 12286, Note_on_c, 1, 62, 0
3, 12288, Note_on_c, 1, 60, 60
3, 12334, Note_on_c, 1, 60, 0
3, 12336, Note_on_c, 1, 62, 60
3, 12382, Note_on_c, 1, 62, 0
3, 12384, Note_on_c, 1, 59, 60
3, 12430, Note_on_c, 1, 59, 0
3, 12432, Note_on_c, 1, 62, 60
3, 12478, Note_on_c, 1, 62, 0
3, 12480, Note_on_c, 1, 57, 60
3, 12526, Note_on_c, 1, 57, 0
3, 12528, Note_on_c, 1, 62, 60
3, 12574, Note_on_c, 1, 62, 0
3, 12576, Note_on_c, 1, 59, 60
3, 12622, Note_on_c, 1, 59, 0
3, 12624, Note_on_c, 1, 62, 60
3, 12670, Note_on_c, 1, 62, 0
3, 12672, Note_on_c, 1, 60, 60
3, 12718, Note_on_c, 1, 60, 0
3, 12720, Note_on_c, 1, 62, 60
3, 12766, Note_on_c, 1, 62, 0
3, 12768, Note_on_c, 1, 59, 60
3, 12814, Note_on_c, 1, 59, 0
3, 12816, Note_on_c, 1, 62, 60
3, 12862, Note_on_c, 1, 62, 0
3, 12864, Note_on_c, 1, 60, 60
3, 12910, Note_on_c, 1, 60, 0
3, 12912, Note_on_c, 1, 62, 60
3, 12958, Note_on_c, 1, 62, 0
3, 12960, Note_on_c, 1, 57, 60
3, 13006, Note_on_c, 1, 57, 0
3, 13008, Note_on_c, 1, 62, 60
3, 13054, Note_on_c, 1, 62, 0
3, 13104, Note_on_c, 1, 59, 60
3, 13152, Note_on_c, 1, 59, 0
3, 13152, Note_on_c, 1, 62, 60
3, 13200, Note_on_c, 1, 62, 0
3, 13200, Note_on_c, 1, 67, 60
3, 13248, Note_on_c, 1, 67, 0
3, 13248, Note_on_c, 1, 71, 60
3, 13440, Note_on_c, 1, 71, 0
3, 13488, Note_on_c, 1, 60, 60
3, 13536, Note_on_c, 1, 60, 0
3, 13536, Note_on_c, 1, 64, 60
3, 13584, Note_on_c, 1, 64, 0
3, 13584, Note_on_c, 1, 67, 60
3, 13632, Note_on_c, 1, 67, 0
3, 13632, Note_on_c, 1, 72, 60
3, 13824, Note_on_c, 1, 72, 0
3, 13872, Note_on_c, 1, 57, 60
3, 13920, Note_on_c, 1, 57, 0
3, 13920, Note_on_c, 1, 60, 60
3, 13968, Note_on_c, 1, 60, 0
3, 13968, Note_on_c, 1, 66, 60
3, 14016, Note_on_c, 1, 66, 0
3, 14016, Note_on_c, 1, 69, 60
3, 14176, Note_on_c, 1, 69, 0
3, 14256, Note_on_c, 1, 59, 60
3, 14304, Note_on_c, 1, 59, 0
3, 14304, Note_on_c, 1, 62, 60
3, 14352, Note_on_c, 1, 62, 0
3, 14352, Note_on_c, 1, 66, 60
3, 14400, Note_on_c, 1, 66, 0
3, 14400, Note_on_c, 1, 71, 60
3, 14560, Note_on_c, 1, 71, 0
3, 14640, Note_on_c, 1, 55, 60
3, 14688, Note_on_c, 1, 55, 0
3, 14688, Note_on_c, 1, 59, 60
3, 14736, Note_on_c, 1, 59, 0
3, 14736, Note_on_c, 1, 64, 60
3, 14784, Note_on_c, 1, 64, 0
3, 14784, Note_on_c, 1, 67, 60
3, 14944, Note_on_c, 1, 67, 0
3, 15024, Note_on_c, 1, 57, 60
3, 15072, Note_on_c, 1, 57, 0
3, 15072, Note_on_c, 1, 60, 60
3, 15120, Note_on_c, 1, 60, 0
3, 15120, Note_on_c, 1, 64, 60
3, 15168, Note_on_c, 1, 64, 0
3, 15168, Note_on_c, 1, 69, 60
3, 15328, Note_on_c, 1, 69, 0
3, 15408, Note_on_c, 1, 54, 60
3, 15456, Note_on_c, 1, 54, 0
3, 15456, Note_on_c, 1, 57, 60
3, 15504, Note_on_c, 1, 57, 0
3, 15504, Note_on_c, 1, 62, 60
3, 15552, Note_on_c, 1, 62, 0
3, 15552, Note_on_c, 1, 66, 60
3, 15712, Note_on_c, 1, 66, 0
3, 15792, Note_on_c, 1, 55, 60
3, 15840, Note_on_c, 1, 55, 0
3, 15840, Note_on_c, 1, 59, 60
3, 15888, Note_on_c, 1, 59, 0
3, 15888, Note_on_c, 1, 62, 60
3, 15936, Note_on_c, 1, 62, 0
3, 15936, Note_on_c, 1, 67, 60
3, 16096, Note_on_c, 1, 67, 0
3, 16128, Note_on_c, 1, 60, 60
3, 16128, Note_on_c, 1, 64, 60
3, 16160, Note_on_c, 1, 60, 0
3, 16160, Note_on_c, 1, 64, 0
3, 16224, Note_on_c, 1, 60, 60
3, 16224, Note_on_c, 1, 64, 60
3, 16256, Note_on_c, 1, 60, 0
3, 16256, Note_on_c, 1, 64, 0
3, 16320, Note_on_c, 1, 60, 60
3, 16320, Note_on_c, 1, 64, 60
3, 16352, Note_on_c, 1, 60, 0
3, 16352, Note_on_c, 1, 64, 0
3, 16416, Note_on_c, 1, 60, 60
3, 16416, Note_on_c, 1, 64, 60
3, 16448, Note_on_c, 1, 60, 0
3, 16448, Note_on_c, 1, 64, 0
3, 16512, Note_on_c, 1, 60, 60
3, 16512, Note_on_c, 1, 64, 60
3, 16544, Note_on_c, 1, 60, 0
3, 16544, Note_on_c, 1, 64, 0
3, 16608, Note_on_c, 1, 60, 62
3, 16608, Note_on_c, 1, 64, 62
3, 16640, Note_on_c, 1, 60, 0
3, 16640, Note_on_c, 1, 64, 0
3, 16704, Note_on_c, 1, 60, 64
3, 16704, Note_on_c, 1, 64, 64
3, 16736, Note_on_c, 1, 60, 0
3, 16736, Note_on_c, 1, 64, 0
3, 16800, Note_on_c, 1, 60, 66
3, 16800, Note_on_c, 1, 64, 66
3, 16832, Note_on_c, 1, 60, 0
3, 16832, Note_on_c, 1, 64, 0
3, 16896, Note_on_c, 1, 60, 68
3, 16896, Note_on_c, 1, 64, 68
3, 16928, Note_on_c, 1, 60, 0
3, 16928, Note_on_c, 1, 64, 0
3, 16992, Note_on_c, 1, 60, 71
3, 16992, Note_on_c, 1, 64, 71
3, 17024, Note_on_c, 1, 60, 0
3, 17024, Note_on_c, 1, 64, 0
3, 17088, Note_on_c, 1, 60, 74
3, 17088, Note_on_c, 1, 64, 74
3, 17120, Note_on_c, 1, 60, 0
3, 17120, Note_on_c, 1, 64, 0
3, 17184, Note_on_c, 1, 60, 77
3, 17184, Note_on_c, 1, 64, 77
3, 17216, Note_on_c, 1, 60, 0
3, 17216, Note_on_c, 1, 64, 0
3, 17280, Note_on_c, 1, 60, 80
3, 17280, Note_on_c, 1, 64, 80
3, 17312, Note_on_c, 1, 60, 0
3, 17312, Note_on_c, 1, 64, 0
3, 17376, Note_on_c, 1, 60, 83
3, 17376, Note_on_c, 1, 64, 83
3, 17408, Note_on_c, 1, 60, 0
3, 17408, Note_on_c, 1, 64, 0
3, 17472, Note_on_c, 1, 60, 86
3, 17472, Note_on_c, 1, 64, 86
3, 17504, Note_on_c, 1, 60, 0
3, 17504, Note_on_c, 1, 64, 0
3, 17568, Note_on_c, 1, 60, 89
3, 17568, Note_on_c, 1, 64, 89
3, 17600, Note_on_c, 1, 60, 0
3, 17600, Note_on_c, 1, 64, 0
3, 17664, Note_on_c, 1, 62, 92
3, 17712, Note_on_c, 1, 62, 0
3, 17712, Note_on_c, 1, 71, 92
3, 17760, Note_on_c, 1, 71, 0
3, 17760, Note_on_c, 1, 67, 92
3, 17808, Note_on_c, 1, 67, 0
3, 17808, Note_on_c, 1, 71, 92
3, 17856, Note_on_c, 1, 71, 0
3, 17856, Note_on_c, 1, 62, 92
3, 17904, Note_on_c, 1, 62, 0
3, 17904, Note_on_c, 1, 71, 92
3, 17952, Note_on_c, 1, 71, 0
3, 17952, Note_on_c, 1, 67, 92
3, 18000, Note_on_c, 1, 67, 0
3, 18000, Note_on_c, 1, 71, 92
3, 18048, Note_on_c, 1, 71, 0
3, 18048, Note_on_c, 1, 62, 92
3, 18096, Note_on_c, 1, 62, 0
3, 18096, Note_on_c, 1, 71, 92
3, 18144, Note_on_c, 1, 71, 0
3, 18144, Note_on_c, 1, 67, 92
3, 18192, Note_on_c, 1, 67, 0
3, 18192, Note_on_c, 1, 71, 92
3, 18240, Note_on_c, 1, 71, 0
3, 18240, Note_on_c, 1, 62, 92
3, 18288, Note_on_c, 1, 62, 0
3, 18288, Note_on_c, 1, 71, 92
3, 18336, Note_on_c, 1, 71, 0
3, 18336, Note_on_c, 1, 67, 92
3, 18384, Note_on_c, 1, 67, 0
3, 18384, Note_on_c, 1, 71, 92
3, 18432, Note_on_c, 1, 71, 0
3, 18432, Note_on_c, 1, 62, 92
3, 18480, Note_on_c, 1, 62, 0
3, 18480, Note_on_c, 1, 72, 92
3, 18528, Note_on_c, 1, 72, 0
3, 18528, Note_on_c, 1, 66, 92
3, 18576, Note_on_c, 1, 66, 0
3, 18576, Note_on_c, 1, 72, 92
3, 18624, Note_on_c, 1, 72, 0
3, 18624, Note_on_c, 1, 62, 92
3, 18672, Note_on_c, 1, 62, 0
3, 18672, Note_on_c, 1, 72, 92
3, 18720, Note_on_c, 1, 72, 0
3, 18720, Note_on_c, 1, 66, 92
3, 18768, Note_on_c, 1, 66, 0
3, 18768, Note_on_c, 1, 72, 92
3, 18816, Note_on_c, 1, 72, 0
3, 18816, Note_on_c, 1, 62, 92
3, 18864, Note_on_c, 1, 62, 0
3, 18864, Note_on_c, 1, 72, 92
3, 18912, Note_on_c, 1, 72, 0
3, 18912, Note_on_c, 1, 66, 92
3, 18960, Note_on_c, 1, 66, 0
3, 18960, Note_on_c, 1, 72, 92
3, 19008, Note_on_c, 1, 72, 0
3, 19008, Note_on_c, 1, 62, 92
3, 19056, Note_on_c, 1, 62, 0
3, 19056, Note_on_c, 1, 72, 92
3, 19104, Note_on_c, 1, 72, 0
3, 19104, Note_on_c, 1, 66, 92
3, 19152, Note_on_c, 1, 66, 0
3, 19152, Note_on_c, 1, 71, 92
3, 19198, Note_on_c, 1, 71, 0
3, 19200, Note_on_c, 1, 67, 92
3, 19200, Note_on_c, 1, 71, 92
3, 19248, Note_on_c, 1, 67, 0
3, 19248, Note_on_c, 1, 71, 0
3, 19776, Note_on_c, 1, 62, 92
3, 19776, Note_on_c, 1, 69, 92
3, 19776, Note_on_c, 1, 72, 92
3, 19968, Note_on_c, 1, 62, 0
3, 19968, Note_on_c, 1, 69, 0
3, 19968, Note_on_c, 1, 72, 0
3, 19968, Note_on_c, 1, 67, 92
3, 19968, Note_on_c, 1, 71, 92
3, 20016, Note_on_c, 1, 67, 0
3, 20016, Note_on_c, 1, 71, 0
3, 20544, Note_on_c, 1, 50, 92
3, 20544, Note_on_c, 1, 57, 92
3, 20544, Note_on_c, 1, 60, 92
3, 20736, Note_on_c, 1, 50, 0
3, 20736, Note_on_c, 1, 57, 0
3, 20736, Note_on_c, 1, 60, 0
3, 20736, Note_on_c, 1, 55, 92
3, 20736, Note_on_c, 1, 59, 92
3, 20784, Note_on_c, 1, 55, 0
3, 20784, Note_on_c, 1, 59, 0
3, 20928, Note_on_c, 1, 43, 92
3, 20928, Note_on_c, 1, 55, 92
3, 21088, Note_on_c, 1, 43, 0
3, 21088, Note_on_c, 1, 55, 0
3, 21120, Note_on_c, 1, 43, 92
3, 21120, Note_on_c, 1, 55, 92
3, 21280, Note_on_c, 1, 43, 0
3, 21280, Note_on_c, 1, 55, 0
3, 21504, Note_on_c, 1, 60, 45
3, 21600, Note_on_c, 1, 60, 0
3, 21600, Note_on_c, 1, 67, 45
3, 21696, Note_on_c, 1, 67, 0
3, 21696, Note_on_c, 1, 64, 45
3, 21792, Note_on_c, 1, 64, 0
3, 21792, Note_on_c, 1, 67, 45
3, 21888, Note_on_c, 1, 67, 0
3, 21888, Note_on_c, 1, 60, 45
3, 21984, Note_on_c, 1, 60, 0
3, 21984, Note_on_c, 1, 67, 45
3, 22080, Note_on_c, 1, 67, 0
3, 22080, Note_on_c, 1, 64, 45
3, 22176, Note_on_c, 1, 64, 0
3, 22176, Note_on_c, 1, 67, 45
3, 22270, Note_on_c, 1, 67, 0
3, 22272, Note_on_c, 1, 62, 45
3, 22366, Note_on_c, 1, 62, 0
3, 22368, Note_on_c, 1, 67, 45
3, 22462, Note_on_c, 1, 67, 0
3, 22464, Note_on_c, 1, 65, 45
3, 22558, Note_on_c, 1, 65, 0
3, 22560, Note_on_c, 1, 67, 45
3, 22654, Note_on_c, 1, 67, 0
3, 22656, Note_on_c, 1, 60, 45
3, 22750, Note_on_c, 1, 60, 0
3, 22752, Note_on_c, 1, 67, 45
3, 22846, Note_on_c, 1, 67, 0
3, 22848, Note_on_c, 1, 64, 45
3, 22942, Note_on_c, 1, 64, 0
3, 22944, Note_on_c, 1, 67, 45
3, 23038, Note_on_c, 1, 67, 0
3, 23040, Note_on_c, 1, 60, 45
3, 23134, Note_on_c, 1, 60, 0
3, 23136, Note_on_c, 1, 69, 45
3, 23230, Note_on_c, 1, 69, 0
3, 23232, Note_on_c, 1, 65, 45
3, 23326, Note_on_c, 1, 65, 0
3, 23328, Note_on_c, 1, 69, 45
3, 23422, Note_on_c, 1, 69, 0
3, 23424, Note_on_c, 1, 60, 45
3, 23518, Note_on_c, 1, 60, 0
3, 23520, Note_on_c, 1, 67, 45
3, 23614, Note_on_c, 1, 67, 0
3, 23616, Note_on_c, 1, 64, 45
3, 23710, Note_on_c, 1, 64, 0
3, 23712, Note_on_c, 1, 67, 45
3, 23806, Note_on_c, 1, 67, 0
3, 23808, Note_on_c, 1, 59, 45
3, 23902, Note_on_c, 1, 59, 0
3, 23904, Note_on_c, 1, 67, 45
3, 23998, Note_on_c, 1, 67, 0
3, 24000, Note_on_c, 1, 62, 45
3, 24094, Note_on_c, 1, 62, 0
3, 24096, Note_on_c, 1, 67, 45
3, 24190, Note_on_c, 1, 67, 0
3, 24192, Note_on_c, 1, 60, 45
3, 24286, Note_on_c, 1, 60, 0
3, 24288, Note_on_c, 1, 67, 45
3, 24382, Note_on_c, 1, 67, 0
3, 24384, Note_on_c, 1, 64, 45
3, 24478, Note_on_c, 1, 64, 0
3, 24480, Note_on_c, 1, 67, 45
3, 24574, Note_on_c, 1, 67, 0
3, 24576, Note_on_c, 1, 65, 45
3, 24736, Note_on_c, 1, 65, 0
3, 25152, Note_on_c, 1, 53, 45
3, 25152, Note_on_c, 1, 60, 45
3, 25200, Note_on_c, 1, 53, 0
3, 25200, Note_on_c, 1, 60, 0
3, 25344, Note_on_c, 1, 52, 45
3, 25344, Note_on_c, 1, 60, 45
3, 25392, Note_on_c, 1, 52, 0
3, 25392, Note_on_c, 1, 60, 0
3, 25920, Note_on_c, 1, 52, 45
3, 25920, Note_on_c, 1, 60, 45
3, 25968, Note_on_c, 1, 52, 0
3, 25968, Note_on_c, 1, 60, 0
3, 26112, Note_on_c, 1, 50, 45
3, 26112, Note_on_c, 1, 60, 45
3, 26160, Note_on_c, 1, 50, 0
3, 26160, Note_on_c, 1, 60, 0
3, 26688, Note_on_c, 1, 50, 45
3, 26688, Note_on_c, 1, 59, 45
3, 26736, Note_on_c, 1, 50, 0
3, 26736, Note_on_c, 1, 59, 0
3, 26880, Note_on_c, 1, 48, 45
3, 26880, Note_on_c, 1, 60, 45
3, 26928, Note_on_c, 1, 48, 0
3, 26928, Note_on_c, 1, 60, 0
3, 27456, Note_on_c, 1, 48, 45
3, 27456, Note_on_c, 1, 52, 45
3, 27504, Note_on_c, 1, 48, 0
3, 27504, Note_on_c, 1, 52, 0
3, 27648, Note_on_c, 1, 53, 45
3, 27648, Note_on_c, 1, 57, 45
3, 28368, Note_on_c, 1, 53, 0
3, 28368, Note_on_c, 1, 57, 0
3, 28416, Note_on_c, 1, 53, 45
3, 28704, Note_on_c, 1, 53, 0
3, 28704, Note_on_c, 1, 55, 62
3, 28800, Note_on_c, 1, 55, 0
3, 28800, Note_on_c, 1, 57, 68
3, 29088, Note_on_c, 1, 57, 0
3, 29088, Note_on_c, 1, 54, 86
3, 29182, Note_on_c, 1, 54, 0
3, 29184, Note_on_c, 1, 43, 92
3, 29232, Note_on_c, 1, 43, 0
3, 29232, Note_on_c, 1, 47, 92
3, 29280, Note_on_c, 1, 47, 0
3, 29280, Note_on_c, 1, 50, 92
3, 29328, Note_on_c, 1, 50, 0
3, 29328, Note_on_c, 1, 55, 92
3, 29376, Note_on_c, 1, 55, 0
3, 29376, Note_on_c, 1, 43, 92
3, 29424, Note_on_c, 1, 43, 0
3, 29424, Note_on_c, 1, 48, 92
3, 29472, Note_on_c, 1, 48, 0
3, 29472, Note_on_c, 1, 52, 92
3, 29520, Note_on_c, 1, 52, 0
3, 29520, Note_on_c, 1, 55, 92
3, 29568, Note_on_c, 1, 55, 0
3, 29568, Note_on_c, 1, 43, 92
3, 29616, Note_on_c, 1, 43, 0
3, 29616, Note_on_c, 1, 47, 92
3, 29664, Note_on_c, 1, 47, 0
3, 29664, Note_on_c, 1, 50, 92
3, 29712, Note_on_c, 1, 50, 0
3, 29712, Note_on_c, 1, 55, 92
3, 29760, Note_on_c, 1, 55, 0
3, 29760, Note_on_c, 1, 43, 92
3, 29808, Note_on_c, 1, 43, 0
3, 29808, Note_on_c, 1, 48, 92
3, 29856, Note_on_c, 1, 48, 0
3, 29856, Note_on_c, 1, 52, 92
3, 29904, Note_on_c, 1, 52, 0
3, 29904, Note_on_c, 1, 55, 92
3, 29952, Note_on_c, 1, 55, 0
3, 29952, Note_on_c, 1, 43, 92
3, 30000, Note_on_c, 1, 43, 0
3, 30144, Note_on_c, 1, 55, 92
3, 30192, Note_on_c, 1, 55, 0
3, 30336, Note_on_c, 1, 43, 92
3, 30496, Note_on_c, 1, 43, 0
3, 30720, Note_on_c, 1, 61, 63
3, 30768, Note_on_c, 1, 61, 0
3, 30768, Note_on_c, 1, 62, 45
3, 30816, Note_on_c, 1, 62, 0
3, 30816, Note_on_c, 1, 61, 45
3, 30864, Note_on_c, 1, 61, 0
3, 30864, Note_on_c, 1, 62, 45
3, 30912, Note_on_c, 1, 62, 0
3, 30912, Note_on_c, 1, 61, 45
3, 30960, Note_on_c, 1, 61, 0
3, 30960, Note_on_c, 1, 62, 45
3, 31008, Note_on_c, 1, 62, 0
3, 31008, Note_on_c, 1, 61, 45
3, 31056, Note_on_c, 1, 61, 0
3, 31056, Note_on_c, 1, 62, 45
3, 31104, Note_on_c, 1, 62, 0
3, 31104, Note_on_c, 1, 60, 63
3, 31152, Note_on_c, 1, 60, 0
3, 31152, Note_on_c, 1, 62, 45
3, 31200, Note_on_c, 1, 62, 0
3, 31200, Note_on_c, 1, 60, 45
3, 31248, Note_on_c, 1, 60, 0
3, 31248, Note_on_c, 1, 62, 45
3, 31296, Note_on_c, 1, 62, 0
3, 31296, Note_on_c, 1, 60, 45
3, 31344, Note_on_c, 1, 60, 0
3, 31344, Note_on_c, 1, 62, 45
3, 31392, Note_on_c, 1, 62, 0
3, 31392, Note_on_c, 1, 60, 45
3, 31440, Note_on_c, 1, 60, 0
3, 31440, Note_on_c, 1, 62, 45
3, 31486, Note_on_c, 1, 62, 0
3, 31488, Note_on_c, 1, 59, 63
3, 31534, Note_on_c, 1, 59, 0
3, 31536, Note_on_c, 1, 62, 45
3, 31582, Note_on_c, 1, 62, 0
3, 31584, Note_on_c, 1, 59, 45
3, 31630, Note_on_c, 1, 59, 0
3, 31632, Note_on_c, 1, 62, 45
3, 31678, Note_on_c, 1, 62, 0
3, 31680, Note_on_c, 1, 59, 45
3, 31726, Note_on_c, 1, 59, 0
3, 31728, Note_on_c, 1, 62, 45
3, 31774, Note_on_c, 1, 62, 0
3, 31776, Note_on_c, 1, 59, 45
3, 31822, Note_on_c, 1, 59, 0
3, 31824, Note_on_c, 1, 62, 45
3, 31870, Note_on_c, 1, 62, 0
3, 31872, Note_on_c, 1, 59, 45
3, 31918, Note_on_c, 1, 59, 0
3, 31920, Note_on_c, 1, 62, 45
3, 31966, Note_on_c, 1, 62, 0
3, 31968, Note_on_c, 1, 59, 45
3, 32014, Note_on_c, 1, 59, 0
3, 32016, Note_on_c, 1, 62, 45
3, 32062, Note_on_c, 1, 62, 0
3, 32064, Note_on_c, 1, 59, 45
3, 32110, Note_on_c, 1, 59, 0
3, 32112, Note_on_c, 1, 62, 45
3, 32158, Note_on_c, 1, 62, 0
3, 32160, Note_on_c, 1, 59, 45
3, 32206, Note_on_c, 1, 59, 0
3, 32208, Note_on_c, 1, 62, 45
3, 32254, Note_on_c, 1, 62, 0
3, 32256, Note_on_c, 1, 60, 60
3, 32302, Note_on_c, 1, 60, 0
3, 32304, Note_on_c, 1, 62, 60
3, 32350, Note_on_c, 1, 62, 0
3, 32352, Note_on_c, 1, 59, 60
3, 32398, Note_on_c, 1, 59, 0
3, 32400, Note_on_c, 1, 62, 60
3, 32446, Note_on_c, 1, 62, 0
3, 32448, Note_on_c, 1, 57, 60
3, 32494, Note_on_c, 1, 57, 0
3, 32496, Note_on_c, 1, 62, 60
3, 32542, Note_on_c, 1, 62, 0
3, 32544, Note_on_c, 1, 59, 60
3, 32590, Note_on_c, 1, 59, 0
3, 32592, Note_on_c, 1, 62, 60
3, 32638, Note_on_c, 1, 62, 0
3, 32640, Note_on_c, 1, 60, 60
3, 32686, Note_on_c, 1, 60, 0
3, 32688, Note_on_c, 1, 62, 60
3, 32734, Note_on_c, 1, 62, 0
3, 32736, Note_on_c, 1, 59, 60
3, 32782, Note_on_c, 1, 59, 0
3, 32784, Note_on_c, 1, 62, 60
3, 32830, Note_on_c, 1, 62, 0
3, 32832, Note_on_c, 1, 60, 60
3, 32878, Note_on_c, 1, 60, 0
3, 32880, Note_on_c, 1, 62, 60
3, 32926, Note_on_c, 1, 62, 0
3, 32928, Note_on_c, 1, 57, 60
3, 32974, Note_on_c, 1, 57, 0
3, 32976, Note_on_c, 1, 62, 60
3, 33022, Note_on_c, 1, 62, 0
3, 33024, Note_on_c, 1, 59, 45
3, 33070, Note_on_c, 1, 59, 0
3, 33072, Note_on_c, 1, 62, 45
3, 33118, Note_on_c, 1, 62, 0
3, 33120, Note_on_c, 1, 59, 45
3, 33166, Note_on_c, 1, 59, 0
3, 33168, Note_on_c, 1, 62, 45
3, 33214, Note_on_c, 1, 62, 0
3, 33216, Note_on_c, 1, 59, 45
3, 33262, Note_on_c, 1, 59, 0
3, 33264, Note_on_c, 1, 62, 45
3, 33310, Note_on_c, 1, 62, 0
3, 33312, Note_on_c, 1, 59, 45
3, 33358, Note_on_c, 1, 59, 0
3, 33360, Note_on_c, 1, 62, 45
3, 33406, Note_on_c, 1, 62, 0
3, 33408, Note_on_c, 1, 59, 45
3, 33454, Note_on_c, 1, 59, 0
3, 33456, Note_on_c, 1, 62, 45
3, 33502, Note_on_c, 1, 62, 0
3, 33504, Note_on_c, 1, 59, 45
3, 33550, Note_on_c, 1, 59, 0
3, 33552, Note_on_c, 1, 62, 45
3, 33598, Note_on_c, 1, 62, 0
3, 33600, Note_on_c, 1, 59, 45
3, 33646, Note_on_c, 1, 59, 0
3, 33648, Note_on_c, 1, 62, 45
3, 33694, Note_on_c, 1, 62, 0
3, 33696, Note_on_c, 1, 59, 45
3, 33742, Note_on_c, 1, 59, 0
3, 33744, Note_on_c, 1, 62, 45
3, 33790, Note_on_c, 1, 62, 0
3, 33792, Note_on_c, 1, 60, 60
3, 33838, Note_on_c, 1, 60, 0
3, 33840, Note_on_c, 1, 62, 60
3, 33886, Note_on_c, 1, 62, 0
3, 33888, Note_on_c, 1, 59, 60
3, 33934, Note_on_c, 1, 59, 0
3, 33936, Note_on_c, 1, 62, 60
3, 33982, Note_on_c, 1, 62, 0
3, 33984, Note_on_c, 1, 57, 60
3, 34030, Note_on_c, 1, 57, 0
3, 34032, Note_on_c, 1, 62, 60
3, 34078, Note_on_c, 1, 62, 0
3, 34080, Note_on_c, 1, 59, 60
3, 34126, Note_on_c, 1, 59, 0
3, 34128, Note_on_c, 1, 62, 60
3, 34174, Note_on_c, 1, 62, 0
3, 34176, Note_on_c, 1, 60, 60
3, 34222, Note_on_c, 1, 60, 0
3, 34224, Note_on_c, 1, 62, 60
3, 34270, Note_on_c, 1, 62, 0
3, 34272, Note_on_c, 1, 59, 60
3, 34318, Note_on_c, 1, 59, 0
3, 34320, Note_on_c, 1, 62, 60
3, 34366, Note_on_c, 1, 62, 0
3, 34368, Note_on_c, 1, 60, 60
3, 34414, Note_on_c, 1, 60, 0
3, 34416, Note_on_c, 1, 62, 60
3, 34462, Note_on_c, 1, 62, 0
3, 34464, Note_on_c, 1, 57, 60
3, 34510, Note_on_c, 1, 57, 0
3, 34512, Note_on_c, 1, 62, 60
3, 34558, Note_on_c, 1, 62, 0
3, 34608, Note_on_c, 1, 59, 60
3, 34656, Note_on_c, 1, 59, 0
3, 34656, Note_on_c, 1, 62, 60
3, 34704, Note_on_c, 1, 62, 0
3, 34704, Note_on_c, 1, 67, 60
3, 34752, Note_on_c, 1, 67, 0
3, 34752, Note_on_c, 1, 71, 60
3, 34944, Note_on_c, 1, 71, 0
3, 34992, Note_on_c, 1, 60, 60
3, 35040, Note_on_c, 1, 60, 0
3, 35040, Note_on_c, 1, 64, 60
3, 35088, Note_on_c, 1, 64, 0
3, 35088, Note_on_c, 1, 67, 60
3, 35136, Note_on_c, 1, 67, 0
3, 35136, Note_on_c, 1, 72, 60
3, 35328, Note_on_c, 1, 72, 0
3, 35376, Note_on_c, 1, 57, 60
3, 35424, Note_on_c, 1, 57, 0
3, 35424, Note_on_c, 1, 60, 60
3, 35472, Note_on_c, 1, 60, 0
3, 35472, Note_on_c, 1, 66, 60
3, 35520, Note_on_c, 1, 66, 0
3, 35520, Note_on_c, 1, 69, 60
3, 35680, Note_on_c, 1, 69, 0
3, 35760, Note_on_c, 1, 59, 60
3, 35808, Note_on_c, 1, 59, 0
3, 35808, Note_on_c, 1, 62, 60
3, 35856, Note_on_c, 1, 62, 0
3, 35856, Note_on_c, 1, 66, 60
3, 35904, Note_on_c, 1, 66, 0
3, 35904, Note_on_c, 1, 71, 60
3, 36064, Note_on_c, 1, 71, 0
3, 36144, Note_on_c, 1, 55, 60
3, 36192, Note_on_c, 1, 55, 0
3, 36192, Note_on_c, 1, 59, 60
3, 36240, Note_on_c, 1, 59, 0
3, 36240, Note_on_c, 1, 64, 60
3, 36288, Note_on_c, 1, 64, 0
3, 36288, Note_on_c, 1, 67, 60
3, 36448, Note_on_c, 1, 67, 0
3, 36528, Note_on_c, 1, 57, 60
3, 36576, Note_on_c, 1, 57, 0
3, 36576, Note_on_c, 1, 60, 60
3, 36624, Note_on_c, 1, 60, 0
3, 36624, Note_on_c, 1, 64, 60
3, 36672, Note_on_c, 1, 64, 0
3, 36672, Note_on_c, 1, 69, 60
3, 36832, Note_on_c, 1, 69, 0
3, 36912, Note_on_c, 1, 54, 60
3, 36960, Note_on_c, 1, 54, 0
3, 36960, Note_on_c, 1, 57, 60
3, 37008, Note_on_c, 1, 57, 0
3, 37008, Note_on_c, 1, 62, 60
3, 37056, Note_on_c, 1, 62, 0
3, 37056, Note_on_c, 1, 66, 60
3, 37216, Note_on_c, 1, 66, 0
3, 37296, Note_on_c, 1, 55, 60
3, 37344, Note_on_c, 1, 55, 0
3, 37344, Note_on_c, 1, 59, 60
3, 37392, Note_on_c, 1, 59, 0
3, 37392, Note_on_c, 1, 62, 60
3, 37440, Note_on_c, 1, 62, 0
3, 37440, Note_on_c, 1, 67, 60
3, 37600, Note_on_c, 1, 67, 0
3, 37632, Note_on_c, 1, 60, 60
3, 37632, Note_on_c, 1, 64, 60
3, 37664, Note_on_c, 1, 60, 0
3, 37664, Note_on_c, 1, 64, 0
3, 37728, Note_on_c, 1, 60, 60
3, 37728, Note_on_c, 1, 64, 60
3, 37760, Note_on_c, 1, 60, 0
3, 37760, Note_on_c, 1, 64, 0
3, 37824, Note_on_c, 1, 60, 60
3, 37824, Note_on_c, 1, 64, 60
3, 37856, Note_on_c, 1, 60, 0
3, 37856, Note_on_c, 1, 64, 0
3, 37920, Note_on_c, 1, 60, 60
3, 37920, Note_on_c, 1, 64, 60
3, 37952, Note_on_c, 1, 60, 0
3, 37952, Note_on_c, 1, 64, 0
3, 38016, Note_on_c, 1, 60, 60
3, 38016, Note_on_c, 1, 64, 60
3, 38048, Note_on_c, 1, 60, 0
3, 38048, Note_on_c, 1, 64, 0
3, 38112, Note_on_c, 1, 60, 62
3, 38112, Note_on_c, 1, 64, 62
3, 38144, Note_on_c, 1, 60, 0
3, 38144, Note_on_c, 1, 64, 0
3, 38208, Note_on_c, 1, 60, 64
3, 38208, Note_on_c, 1, 64, 64
3, 38240, Note_on_c, 1, 60, 0
3, 38240, Note_on_c, 1, 64, 0
3, 38304, Note_on_c, 1, 60, 66
3, 38304, Note_on_c, 1, 64, 66
3, 38336, Note_on_c, 1, 60, 0
3, 38336, Note_on_c, 1, 64, 0
3, 38400, Note_on_c, 1, 60, 68
3, 38400, Note_on_c, 1, 64, 68
3, 38432, Note_on_c, 1, 60, 0
3, 38432, Note_on_c, 1, 64, 0
3, 38496, Note_on_c, 1, 60, 71
3, 38496, Note_on_c, 1, 64, 71
3, 38528, Note_on_c, 1, 60, 0
3, 38528, Note_on_c, 1, 64, 0
3, 38592, Note_on_c, 1, 60, 74
3, 38592, Note_on_c, 1, 64, 74
3, 38624, Note_on_c, 1, 60, 0
3, 38624, Note_on_c, 1, 64, 0
3, 38688, Note_on_c, 1, 60, 77
3, 38688, Note_on_c, 1, 64, 77
3, 38720, Note_on_c, 1, 60, 0
3, 38720, Note_on_c, 1, 64, 0
3, 38784, Note_on_c, 1, 60, 80
3, 38784, Note_on_c, 1, 64, 80
3, 38816, Note_on_c, 1, 60, 0
3, 38816, Note_on_c, 1, 64, 0
3, 38880, Note_on_c, 1, 60, 83
3, 38880, Note_on_c, 1, 64, 83
3, 38912, Note_on_c, 1, 60, 0
3, 38912, Note_on_c, 1, 64, 0
3, 38976, Note_on_c, 1, 60, 86
3, 38976, Note_on_c, 1, 64, 86
3, 39008, Note_on_c, 1, 60, 0
3, 39008, Note_on_c, 1, 64, 0
3, 39072, Note_on_c, 1, 60, 89
3, 39072, Note_on_c, 1, 64, 89
3, 39104, Note_on_c, 1, 60, 0
3, 39104, Note_on_c, 1, 64, 0
3, 39168, Note_on_c, 1, 62, 92
3, 39216, Note_on_c, 1, 62, 0
3, 39216, Note_on_c, 1, 71, 92
3, 39264, Note_on_c, 1, 71, 0
3, 39264, Note_on_c, 1, 67, 92
3, 39312, Note_on_c, 1, 67, 0
3, 39312, Note_on_c, 1, 71, 92
3, 39360, Note_on_c, 1, 71, 0
3, 39360, Note_on_c, 1, 62, 92
3, 39408, Note_on_c, 1, 62, 0
3, 39408, Note_on_c, 1, 71, 92
3, 39456, Note_on_c, 1, 71, 0
3, 39456, Note_on_c, 1, 67, 92
3, 39504, Note_on_c, 1, 67, 0
3, 39504, Note_on_c, 1, 71, 92
3, 39552, Note_on_c, 1, 71, 0
3, 39552, Note_on_c, 1, 62, 92
3, 39600, Note_on_c, 1, 62, 0
3, 39600, Note_on_c, 1, 71, 92
3, 39648, Note_on_c, 1, 71, 0
3, 39648, Note_on_c, 1, 67, 92
3, 39696, Note_on_c, 1, 67, 0
3, 39696, Note_on_c, 1, 71, 92
3, 39744, Note_on_c, 1, 71, 0
3, 39744, Note_on_c, 1, 62, 92
3, 39792, Note_on_c, 1, 62, 0
3, 39792, Note_on_c, 1, 71, 92
3, 39840, Note_on_c, 1, 71, 0
3, 39840, Note_on_c, 1, 67, 92
3, 39888, Note_on_c, 1, 67, 0
3, 39888, Note_on_c, 1, 71, 92
3, 39936, Note_on_c, 1, 71, 0
3, 39936, Note_on_c, 1, 62, 92
3, 39984, Note_on_c, 1, 62, 0
3, 39984, Note_on_c, 1, 72, 92
3, 40032, Note_on_c, 1, 72, 0
3, 40032, Note_on_c, 1, 66, 92
3, 40080, Note_on_c, 1, 66, 0
3, 40080, Note_on_c, 1, 72, 92
3, 40128, Note_on_c, 1, 72, 0
3, 40128, Note_on_c, 1, 62, 92
3, 40176, Note_on_c, 1, 62, 0
3, 40176, Note_on_c, 1, 72, 92
3, 40224, Note_on_c, 1, 72, 0
3, 40224, Note_on_c, 1, 66, 92
3, 40272, Note_on_c, 1, 66, 0
3, 40272, Note_on_c, 1, 72, 92
3, 40320, Note_on_c, 1, 72, 0
3, 40320, Note_on_c, 1, 62, 92
3, 40368, Note_on_c, 1, 62, 0
3, 40368, Note_on_c, 1, 72, 92
3, 40416, Note_on_c, 1, 72, 0
3, 40416, Note_on_c, 1, 66, 92
3, 40464, Note_on_c, 1, 66, 0
3, 40464, Note_on_c, 1, 72, 92
3, 40512, Note_on_c, 1, 72, 0
3, 40512, Note_on_c, 1, 62, 92
3, 40560, Note_on_c, 1, 62, 0
3, 40560, Note_on_c, 1, 72, 92
3, 40608, Note_on_c, 1, 72, 0
3, 40608, Note_on_c, 1, 66, 92
3, 40656, Note_on_c, 1, 66, 0
3, 40656, Note_on_c, 1, 71, 92
3, 40702, Note_on_c, 1, 71, 0
3, 40704, Note_on_c, 1, 67, 92
3, 40704, Note_on_c, 1, 71, 92
3, 40752, Note_on_c, 1, 67, 0
3, 40752, Note_on_c, 1, 71, 0
3, 41280, Note_on_c, 1, 62, 92
3, 41280, Note_on_c, 1, 69, 92
3, 41280, Note_on_c, 1, 72, 92
3, 41472, Note_on_c, 1, 62, 0
3, 41472, Note_on_c, 1, 69, 0
3, 41472, Note_on_c, 1, 72, 0
3, 41472, Note_on_c, 1, 67, 92
3, 41472, Note_on_c, 1, 71, 92
3, 41520, Note_on_c, 1, 67, 0
3, 41520, Note_on_c, 1, 71, 0
3, 42048, Note_on_c, 1, 50, 92
3, 42048, Note_on_c, 1, 57, 92
3, 42048, Note_on_c, 1, 60, 92
3, 42240, Note_on_c, 1, 50, 0
3, 42240, Note_on_c, 1, 57, 0
3, 42240, Note_on_c, 1, 60, 0
3, 42240, Note_on_c, 1, 55, 92
3, 42240, Note_on_c, 1, 59, 92
3, 42288, Note_on_c, 1, 55, 0
3, 42288, Note_on_c, 1, 59, 0
3, 42432, Note_on_c, 1, 43, 92
3, 42432, Note_on_c, 1, 55, 92
3, 42592, Note_on_c, 1, 43, 0
3, 42592, Note_on_c, 1, 55, 0
3, 42624, Note_on_c, 1, 43, 92
3, 42624, Note_on_c, 1, 55, 92
3, 42784, Note_on_c, 1, 43, 0
3, 42784, Note_on_c, 1, 55, 0
3, 43008, Note_on_c, 1, 43, 92
3, 43008, Note_on_c, 1, 55, 92
3, 43056, Note_on_c, 1, 43, 0
3, 43056, Note_on_c, 1, 55, 0
3, 43584, Note_on_c, 1, 62, 92
3, 43584, Note_on_c, 1, 69, 92
3, 43584, Note_on_c, 1, 72, 92
3, 43776, Note_on_c, 1, 62, 0
3, 43776, Note_on_c, 1, 69, 0
3, 43776, Note_on_c, 1, 72, 0
3, 43776, Note_on_c, 1, 67, 92
3, 43776, Note_on_c, 1, 70, 92
3, 43824, Note_on_c, 1, 67, 0
3, 43824, Note_on_c, 1, 70, 0
3, 44352, Note_on_c, 1, 50, 92
3, 44352, Note_on_c, 1, 57, 92
3, 44352, Note_on_c, 1, 60, 92
3, 44544, Note_on_c, 1, 50, 0
3, 44544, Note_on_c, 1, 57, 0
3, 44544, Note_on_c, 1, 60, 0
3, 44592, Note_on_c, 1, 43, 92
3, 44640, Note_on_c, 1, 43, 0
3, 44640, Note_on_c, 1, 45, 92
3, 44688, Note_on_c, 1, 45, 0
3, 44688, Note_on_c, 1, 46, 92
3, 44736, Note_on_c, 1, 46, 0
3, 44736, Note_on_c, 1, 48, 92
3, 44784, Note_on_c, 1, 48, 0
3, 44784, Note_on_c, 1, 50, 92
3, 44832, Note_on_c, 1, 50, 0
3, 44832, Note_on_c, 1, 52, 92
3, 44880, Note_on_c, 1, 52, 0
3, 44880, Note_on_c, 1, 54, 92
3, 44928, Note_on_c, 1, 54, 0
3, 44928, Note_on_c, 1, 55, 92
3, 44976, Note_on_c, 1, 55, 0
3, 45360, Note_on_c, 1, 45, 92
3, 45408, Note_on_c, 1, 45, 0
3, 45408, Note_on_c, 1, 47, 92
3, 45456, Note_on_c, 1, 47, 0
3, 45456, Note_on_c, 1, 49, 92
3, 45504, Note_on_c, 1, 49, 0
3, 45504, Note_on_c, 1, 50, 92
3, 45552, Note_on_c, 1, 50, 0
3, 45552, Note_on_c, 1, 52, 92
3, 45600, Note_on_c, 1, 52, 0
3, 45600, Note_on_c, 1, 54, 92
3, 45648, Note_on_c, 1, 54, 0
3, 45648, Note_on_c, 1, 56, 92
3, 45696, Note_on_c, 1, 56, 0
3, 45696, Note_on_c, 1, 57, 92
3, 45744, Note_on_c, 1, 57, 0
3, 46080, Note_on_c, 1, 38, 92
3, 46080, Note_on_c, 1, 50, 92
3, 46240, Note_on_c, 1, 38, 0
3, 46240, Note_on_c, 1, 50, 0
3, 46656, Note_on_c, 1, 57, 92
3, 46656, Note_on_c, 1, 64, 92
3, 46656, Note_on_c, 1, 67, 92
3, 46848, Note_on_c, 1, 57, 0
3, 46848, Note_on_c, 1, 64, 0
3, 46848, Note_on_c, 1, 67, 0
3, 46848, Note_on_c, 1, 62, 92
3, 46848, Note_on_c, 1, 65, 92
3, 46896, Note_on_c, 1, 62, 0
3, 46896, Note_on_c, 1, 65, 0
3, 47424, Note_on_c, 1, 45, 92
3, 47424, Note_on_c, 1, 52, 92
3, 47424, Note_on_c, 1, 55, 92
3, 47616, Note_on_c, 1, 45, 0
3, 47616, Note_on_c, 1, 52, 0
3, 47616, Note_on_c, 1, 55, 0
3, 47616, Note_on_c, 1, 50, 92
3, 47616, Note_on_c, 1, 53, 92
3, 47664, Note_on_c, 1, 50, 0
3, 47664, Note_on_c, 1, 53, 0
3, 48048, Note_on_c, 1, 62, 92
3, 48096, Note_on_c, 1, 62, 0
3, 48096, Note_on_c, 1, 65, 92
3, 48144, Note_on_c, 1, 65, 0
3, 48144, Note_on_c, 1, 64, 92
3, 48192, Note_on_c, 1, 64, 0
3, 48192, Note_on_c, 1, 62, 92
3, 48240, Note_on_c, 1, 62, 0
3, 48240, Note_on_c, 1, 60, 92
3, 48288, Note_on_c, 1, 60, 0
3, 48288, Note_on_c, 1, 59, 92
3, 48336, Note_on_c, 1, 59, 0
3, 48336, Note_on_c, 1, 57, 92
3, 48384, Note_on_c, 1, 57, 0
3, 48384, Note_on_c, 1, 56, 92
3, 48432, Note_on_c, 1, 56, 0
3, 48816, Note_on_c, 1, 56, 92
3, 48864, Note_on_c, 1, 56, 0
3, 48864, Note_on_c, 1, 59, 92
3, 48912, Note_on_c, 1, 59, 0
3, 48912, Note_on_c, 1, 57, 92
3, 48960, Note_on_c, 1, 57, 0
3, 48960, Note_on_c, 1, 56, 92
3, 49008, Note_on_c, 1, 56, 0
3, 49008, Note_on_c, 1, 53, 92
3, 49056, Note_on_c, 1, 53, 0
3, 49056, Note_on_c, 1, 52, 92
3, 49104, Note_on_c, 1, 52, 0
3, 49104, Note_on_c, 1, 50, 92
3, 49152, Note_on_c, 1, 50, 0
3, 49152, Note_on_c, 1, 48, 92
3, 49312, Note_on_c, 1, 48, 0
3, 49584, Note_on_c, 1, 62, 92
3, 49632, Note_on_c, 1, 62, 0
3, 49632, Note_on_c, 1, 69, 92
3, 49680, Note_on_c, 1, 69, 0
3, 49680, Note_on_c, 1, 67, 92
3, 49728, Note_on_c, 1, 67, 0
3, 49728, Note_on_c, 1, 65, 92
3, 49776, Note_on_c, 1, 65, 0
3, 49776, Note_on_c, 1, 64, 92
3, 49824, Note_on_c, 1, 64, 0
3, 49824, Note_on_c, 1, 62, 92
3, 49872, Note_on_c, 1, 62, 0
3, 49872, Note_on_c, 1, 60, 92
3, 49920, Note_on_c, 1, 60, 0
3, 49920, Note_on_c, 1, 59, 92
3, 49968, Note_on_c, 1, 59, 0
3, 50352, Note_on_c, 1, 60, 92
3, 50400, Note_on_c, 1, 60, 0
3, 50400, Note_on_c, 1, 67, 92
3, 50448, Note_on_c, 1, 67, 0
3, 50448, Note_on_c, 1, 65, 92
3, 50496, Note_on_c, 1, 65, 0
3, 50496, Note_on_c, 1, 64, 92
3, 50544, Note_on_c, 1, 64, 0
3, 50544, Note_on_c, 1, 62, 92
3, 50592, Note_on_c, 1, 62, 0
3, 50592, Note_on_c, 1, 60, 92
3, 50640, Note_on_c, 1, 60, 0
3, 50640, Note_on_c, 1, 59, 92
3, 50688, Note_on_c, 1, 59, 0
3, 50688, Note_on_c, 1, 57, 92
3, 50736, Note_on_c, 1, 57, 0
3, 51120, Note_on_c, 1, 59, 92
3, 51168, Note_on_c, 1, 59, 0
3, 51168, Note_on_c, 1, 65, 92
3, 51216, Note_on_c, 1, 65, 0
3, 51216, Note_on_c, 1, 64, 92
3, 51264, Note_on_c, 1, 64, 0
3, 51264, Note_on_c, 1, 62, 92
3, 51312, Note_on_c, 1, 62, 0
3, 51312, Note_on_c, 1, 60, 92
3, 51360, Note_on_c, 1, 60, 0
3, 51360, Note_on_c, 1, 59, 92
3, 51408, Note_on_c, 1, 59, 0
3, 51408, Note_on_c, 1, 57, 92
3, 51456, Note_on_c, 1, 57, 0
3, 51456, Note_on_c, 1, 56, 92
3, 51504, Note_on_c, 1, 56, 0
3, 51888, Note_on_c, 1, 57, 92
3, 51936, Note_on_c, 1, 57, 0
3, 51936, Note_on_c, 1, 60, 92
3, 51984, Note_on_c, 1, 60, 0
3, 51984, Note_on_c, 1, 59, 92
3, 52032, Note_on_c, 1, 59, 0
3, 52032, Note_on_c, 1, 57, 92
3, 52080, Note_on_c, 1, 57, 0
3, 52080, Note_on_c, 1, 55, 92
3, 52128, Note_on_c, 1, 55, 0
3, 52128, Note_on_c, 1, 53, 92
3, 52176, Note_on_c, 1, 53, 0
3, 52176, Note_on_c, 1, 52, 92
3, 52224, Note_on_c, 1, 52, 0
3, 52224, Note_on_c, 1, 50, 92
3, 52560, Note_on_c, 1, 50, 0
3, 52608, Note_on_c, 1, 48, 92
3, 52608, Note_on_c, 1, 55, 92
3, 52608, Note_on_c, 1, 58, 92
3, 52944, Note_on_c, 1, 48, 0
3, 52944, Note_on_c, 1, 55, 0
3, 52944, Note_on_c, 1, 58, 0
3, 52992, Note_on_c, 1, 65, 45
3, 53088, Note_on_c, 1, 65, 0
3, 53088, Note_on_c, 1, 72, 45
3, 53184, Note_on_c, 1, 72, 0
3, 53184, Note_on_c, 1, 69, 45
3, 53280, Note_on_c, 1, 69, 0
3, 53280, Note_on_c, 1, 72, 45
3, 53376, Note_on_c, 1, 72, 0
3, 53376, Note_on_c, 1, 65, 45
3, 53472, Note_on_c, 1, 65, 0
3, 53472, Note_on_c, 1, 72, 45
3, 53568, Note_on_c, 1, 72, 0
3, 53568, Note_on_c, 1, 69, 45
3, 53664, Note_on_c, 1, 69, 0
3, 53664, Note_on_c, 1, 72, 45
3, 53758, Note_on_c, 1, 72, 0
3, 53760, Note_on_c, 1, 67, 45
3, 53854, Note_on_c, 1, 67, 0
3, 53856, Note_on_c, 1, 72, 45
3, 53950, Note_on_c, 1, 72, 0
3, 53952, Note_on_c, 1, 70, 45
3, 54046, Note_on_c, 1, 70, 0
3, 54048, Note_on_c, 1, 72, 45
3, 54142, Note_on_c, 1, 72, 0
3, 54144, Note_on_c, 1, 65, 45
3, 54238, Note_on_c, 1, 65, 0
3, 54240, Note_on_c, 1, 72, 45
3, 54334, Note_on_c, 1, 72, 0
3, 54336, Note_on_c, 1, 69, 45
3, 54430, Note_on_c, 1, 69, 0
3, 54432, Note_on_c, 1, 72, 45
3, 54526, Note_on_c, 1, 72, 0
3, 54528, Note_on_c, 1, 65, 45
3, 54622, Note_on_c, 1, 65, 0
3, 54624, Note_on_c, 1, 74, 45
3, 54718, Note_on_c, 1, 74, 0
3, 54720, Note_on_c, 1, 70, 45
3, 54814, Note_on_c, 1, 70, 0
3, 54816, Note_on_c, 1, 74, 45
3, 54910, Note_on_c, 1, 74, 0
3, 54912, Note_on_c, 1, 65, 45
3, 55006, Note_on_c, 1, 65, 0
3, 55008, Note_on_c, 1, 72, 45
3, 55102, Note_on_c, 1, 72, 0
3, 55104, Note_on_c, 1, 69, 45
3, 55198, Note_on_c, 1, 69, 0
3, 55200, Note_on_c, 1, 72, 45
3, 55294, Note_on_c, 1, 72, 0
3, 55296, Note_on_c, 1, 64, 45
3, 55390, Note_on_c, 1, 64, 0
3, 55392, Note_on_c, 1, 72, 45
3, 55486, Note_on_c, 1, 72, 0
3, 55488, Note_on_c, 1, 67, 45
3, 55582, Note_on_c, 1, 67, 0
3, 55584, Note_on_c, 1, 72, 45
3, 55678, Note_on_c, 1, 72, 0
3, 55680, Note_on_c, 1, 65, 45
3, 55774, Note_on_c, 1, 65, 0
3, 55776, Note_on_c, 1, 72, 45
3, 55870, Note_on_c, 1, 72, 0
3, 55872, Note_on_c, 1, 69, 45
3, 55966, Note_on_c, 1, 69, 0
3, 55968, Note_on_c, 1, 72, 45
3, 56062, Note_on_c, 1, 72, 0
3, 56064, Note_on_c, 1, 70, 45
3, 56224, Note_on_c, 1, 70, 0
3, 56640, Note_on_c, 1, 58, 45
3, 56640, Note_on_c, 1, 65, 45
3, 56688, Note_on_c, 1, 58, 0
3, 56688, Note_on_c, 1, 65, 0
3, 56832, Note_on_c, 1, 57, 45
3, 56832, Note_on_c, 1, 65, 45
3, 56880, Note_on_c, 1, 57, 0
3, 56880, Note_on_c, 1, 65, 0
3, 57408, Note_on_c, 1, 57, 45
3, 57408, Note_on_c, 1, 65, 45
3, 57456, Note_on_c, 1, 57, 0
3, 57456, Note_on_c, 1, 65, 0
3, 57600, Note_on_c, 1, 55, 45
3, 57600, Note_on_c, 1, 65, 45
3, 57648, Note_on_c, 1, 55, 0
3, 57648, Note_on_c, 1, 65, 0
3, 58176, Note_on_c, 1, 55, 45
3, 58176, Note_on_c, 1, 64, 45
3, 58224, Note_on_c, 1, 55, 0
3, 58224, Note_on_c, 1, 64, 0
3, 58368, Note_on_c, 1, 53, 45
3, 58368, Note_on_c, 1, 65, 45
3, 58416, Note_on_c, 1, 53, 0
3, 58416, Note_on_c, 1, 65, 0
3, 59136, Note_on_c, 1, 53, 75
3, 59232, Note_on_c, 1, 53, 0
3, 59232, Note_on_c, 1, 55, 75
3, 59280, Note_on_c, 1, 55, 0
3, 59280, Note_on_c, 1, 57, 75
3, 59328, Note_on_c, 1, 57, 0
3, 59328, Note_on_c, 1, 58, 75
3, 59376, Note_on_c, 1, 58, 0
3, 59376, Note_on_c, 1, 60, 75
3, 59424, Note_on_c, 1, 60, 0
3, 59424, Note_on_c, 1, 62, 75
3, 59472, Note_on_c, 1, 62, 0
3, 59472, Note_on_c, 1, 64, 75
3, 59520, Note_on_c, 1, 64, 0
3, 59520, Note_on_c, 1, 65, 75
3, 59568, Note_on_c, 1, 65, 0
3, 59568, Note_on_c, 1, 64, 75
3, 59616, Note_on_c, 1, 64, 0
3, 59616, Note_on_c, 1, 62, 75
3, 59664, Note_on_c, 1, 62, 0
3, 59664, Note_on_c, 1, 60, 75
3, 59712, Note_on_c, 1, 60, 0
3, 59712, Note_on_c, 1, 58, 75
3, 59760, Note_on_c, 1, 58, 0
3, 59760, Note_on_c, 1, 57, 75
3, 59808, Note_on_c, 1, 57, 0
3, 59808, Note_on_c, 1, 55, 75
3, 59856, Note_on_c, 1, 55, 0
3, 59856, Note_on_c, 1, 53, 75
3, 59904, Note_on_c, 1, 53, 0
3, 59904, Note_on_c, 1, 52, 75
3, 60000, Note_on_c, 1, 52, 0
3, 60000, Note_on_c, 1, 53, 75
3, 60048, Note_on_c, 1, 53, 0
3, 60048, Note_on_c, 1, 55, 75
3, 60096, Note_on_c, 1, 55, 0
3, 60096, Note_on_c, 1, 57, 75
3, 60144, Note_on_c, 1, 57, 0
3, 60144, Note_on_c, 1, 59, 75
3, 60192, Note_on_c, 1, 59, 0
3, 60192, Note_on_c, 1, 60, 75
3, 60240, Note_on_c, 1, 60, 0
3, 60240, Note_on_c, 1, 62, 75
3, 60288, Note_on_c, 1, 62, 0
3, 60288, Note_on_c, 1, 64, 75
3, 60336, Note_on_c, 1, 64, 0
3, 60336, Note_on_c, 1, 62, 75
3, 60384, Note_on_c, 1, 62, 0
3, 60384, Note_on_c, 1, 60, 75
3, 60432, Note_on_c, 1, 60, 0
3, 60432, Note_on_c, 1, 59, 75
3, 60480, Note_on_c, 1, 59, 0
3, 60480, Note_on_c, 1, 57, 75
3, 60528, Note_on_c, 1, 57, 0
3, 60528, Note_on_c, 1, 55, 75
3, 60576, Note_on_c, 1, 55, 0
3, 60576, Note_on_c, 1, 53, 75
3, 60624, Note_on_c, 1, 53, 0
3, 60624, Note_on_c, 1, 52, 75
3, 60672, Note_on_c, 1, 52, 0
3, 60672, Note_on_c, 1, 50, 75
3, 60768, Note_on_c, 1, 50, 0
3, 60768, Note_on_c, 1, 52, 75
3, 60816, Note_on_c, 1, 52, 0
3, 60816, Note_on_c, 1, 53, 75
3, 60864, Note_on_c, 1, 53, 0
3, 60864, Note_on_c, 1, 55, 75
3, 60912, Note_on_c, 1, 55, 0
3, 60912, Note_on_c, 1, 57, 75
3, 60960, Note_on_c, 1, 57, 0
3, 60960, Note_on_c, 1, 59, 75
3, 61008, Note_on_c, 1, 59, 0
3, 61008, Note_on_c, 1, 60, 75
3, 61056, Note_on_c, 1, 60, 0
3, 61056, Note_on_c, 1, 62, 75
3, 61104, Note_on_c, 1, 62, 0
3, 61104, Note_on_c, 1, 60, 75
3, 61152, Note_on_c, 1, 60, 0
3, 61152, Note_on_c, 1, 59, 75
3, 61200, Note_on_c, 1, 59, 0
3, 61200, Note_on_c, 1, 57, 75
3, 61248, Note_on_c, 1, 57, 0
3, 61248, Note_on_c, 1, 55, 75
3, 61296, Note_on_c, 1, 55, 0
3, 61296, Note_on_c, 1, 53, 75
3, 61344, Note_on_c, 1, 53, 0
3, 61344, Note_on_c, 1, 52, 75
3, 61392, Note_on_c, 1, 52, 0
3, 61392, Note_on_c, 1, 50, 75
3, 61440, Note_on_c, 1, 50, 0
3, 61440, Note_on_c, 1, 48, 75
3, 61536, Note_on_c, 1, 48, 0
3, 61536, Note_on_c, 1, 50, 75
3, 61584, Note_on_c, 1, 50, 0
3, 61584, Note_on_c, 1, 52, 75
3, 61632, Note_on_c, 1, 52, 0
3, 61632, Note_on_c, 1, 53, 75
3, 61680, Note_on_c, 1, 53, 0
3, 61680, Note_on_c, 1, 55, 75
3, 61728, Note_on_c, 1, 55, 0
3, 61728, Note_on_c, 1, 57, 75
3, 61776, Note_on_c, 1, 57, 0
3, 61776, Note_on_c, 1, 59, 75
3, 61824, Note_on_c, 1, 59, 0
3, 61824, Note_on_c, 1, 60, 75
3, 61872, Note_on_c, 1, 60, 0
3, 61872, Note_on_c, 1, 59, 75
3, 61920, Note_on_c, 1, 59, 0
3, 61920, Note_on_c, 1, 57, 75
3, 61968, Note_on_c, 1, 57, 0
3, 61968, Note_on_c, 1, 55, 75
3, 62016, Note_on_c, 1, 55, 0
3, 62016, Note_on_c, 1, 53, 75
3, 62064, Note_on_c, 1, 53, 0
3, 62064, Note_on_c, 1, 52, 75
3, 62112, Note_on_c, 1, 52, 0
3, 62112, Note_on_c, 1, 50, 75
3, 62160, Note_on_c, 1, 50, 0
3, 62160, Note_on_c, 1, 48, 75
3, 62208, Note_on_c, 1, 48, 0
3, 62208, Note_on_c, 1, 53, 75
3, 62208, Note_on_c, 1, 57, 75
3, 62928, Note_on_c, 1, 53, 0
3, 62928, Note_on_c, 1, 57, 0
3, 62976, Note_on_c, 1, 53, 75
3, 63264, Note_on_c, 1, 53, 0
3, 63264, Note_on_c, 1, 55, 81
3, 63360, Note_on_c, 1, 55, 0
3, 63360, Note_on_c, 1, 57, 83
3, 63648, Note_on_c, 1, 57, 0
3, 63648, Note_on_c, 1, 54, 89
3, 63742, Note_on_c, 1, 54, 0
3, 63744, Note_on_c, 1, 43, 92
3, 63792, Note_on_c, 1, 43, 0
3, 63792, Note_on_c, 1, 47, 92
3, 63840, Note_on_c, 1, 47, 0
3, 63840, Note_on_c, 1, 50, 92
3, 63888, Note_on_c, 1, 50, 0
3, 63888, Note_on_c, 1, 55, 92
3, 63936, Note_on_c, 1, 55, 0
3, 63936, Note_on_c, 1, 43, 92
3, 63984, Note_on_c, 1, 43, 0
3, 63984, Note_on_c, 1, 48, 92
3, 64032, Note_on_c, 1, 48, 0
3, 64032, Note_on_c, 1, 52, 92
3, 64080, Note_on_c, 1, 52, 0
3, 64080, Note_on_c, 1, 55, 92
3, 64128, Note_on_c, 1, 55, 0
3, 64128, Note_on_c, 1, 43, 92
3, 64176, Note_on_c, 1, 43, 0
3, 64176, Note_on_c, 1, 47, 92
3, 64224, Note_on_c, 1, 47, 0
3, 64224, Note_on_c, 1, 50, 92
3, 64272, Note_on_c, 1, 50, 0
3, 64272, Note_on_c, 1, 55, 92
3, 64320, Note_on_c, 1, 55, 0
3, 64320, Note_on_c, 1, 43, 92
3, 64368, Note_on_c, 1, 43, 0
3, 64368, Note_on_c, 1, 48, 92
3, 64416, Note_on_c, 1, 48, 0
3, 64416, Note_on_c, 1, 52, 92
3, 64464, Note_on_c, 1, 52, 0
3, 64464, Note_on_c, 1, 55, 92
3, 64512, Note_on_c, 1, 55, 0
3, 64512, Note_on_c, 1, 43, 92
3, 64560, Note_on_c, 1, 43, 0
3, 64704, Note_on_c, 1, 55, 92
3, 64752, Note_on_c, 1, 55, 0
3, 64896, Note_on_c, 1, 43, 92
3, 64944, Note_on_c, 1, 43, 0
3, 65280, Note_on_c, 1, 66, 63
3, 65328, Note_on_c, 1, 66, 0
3, 65328, Note_on_c, 1, 67, 45
3, 65376, Note_on_c, 1, 67, 0
3, 65376, Note_on_c, 1, 66, 45
3, 65424, Note_on_c, 1, 66, 0
3, 65424, Note_on_c, 1, 67, 45
3, 65472, Note_on_c, 1, 67, 0
3, 65472, Note_on_c, 1, 66, 45
3, 65520, Note_on_c, 1, 66, 0
3, 65520, Note_on_c, 1, 67, 45
3, 65568, Note_on_c, 1, 67, 0
3, 65568, Note_on_c, 1, 66, 45
3, 65616, Note_on_c, 1, 66, 0
3, 65616, Note_on_c, 1, 67, 45
3, 65664, Note_on_c, 1, 67, 0
3, 65664, Note_on_c, 1, 65, 63
3, 65712, Note_on_c, 1, 65, 0
3, 65712, Note_on_c, 1, 67, 45
3, 65760, Note_on_c, 1, 67, 0
3, 65760, Note_on_c, 1, 65, 45
3, 65808, Note_on_c, 1, 65, 0
3, 65808, Note_on_c, 1, 67, 45
3, 65856, Note_on_c, 1, 67, 0
3, 65856, Note_on_c, 1, 65, 45
3, 65904, Note_on_c, 1, 65, 0
3, 65904, Note_on_c, 1, 67, 45
3, 65952, Note_on_c, 1, 67, 0
3, 65952, Note_on_c, 1, 65, 45
3, 66000, Note_on_c, 1, 65, 0
3, 66000, Note_on_c, 1, 67, 45
3, 66046, Note_on_c, 1, 67, 0
3, 66048, Note_on_c, 1, 64, 63
3, 66094, Note_on_c, 1, 64, 0
3, 66096, Note_on_c, 1, 67, 45
3, 66142, Note_on_c, 1, 67, 0
3, 66144, Note_on_c, 1, 64, 45
3, 66190, Note_on_c, 1, 64, 0
3, 66192, Note_on_c, 1, 67, 45
3, 66238, Note_on_c, 1, 67, 0
3, 66240, Note_on_c, 1, 64, 45
3, 66286, Note_on_c, 1, 64, 0
3, 66288, Note_on_c, 1, 67, 45
3, 66334, Note_on_c, 1, 67, 0
3, 66336, Note_on_c, 1, 64, 45
3, 66382, Note_on_c, 1, 64, 0
3, 66384, Note_on_c, 1, 67, 45
3, 66430, Note_on_c, 1, 67, 0
3, 66432, Note_on_c, 1, 64, 45
3, 66478, Note_on_c, 1, 64, 0
3, 66480, Note_on_c, 1, 67, 45
3, 66526, Note_on_c, 1, 67, 0
3, 66528, Note_on_c, 1, 64, 45
3, 66574, Note_on_c, 1, 64, 0
3, 66576, Note_on_c, 1, 67, 45
3, 66622, Note_on_c, 1, 67, 0
3, 66624, Note_on_c, 1, 64, 45
3, 66670, Note_on_c, 1, 64, 0
3, 66672, Note_on_c, 1, 67, 45
3, 66718, Note_on_c, 1, 67, 0
3, 66720, Note_on_c, 1, 64, 45
3, 66766, Note_on_c, 1, 64, 0
3, 66768, Note_on_c, 1, 67, 45
3, 66814, Note_on_c, 1, 67, 0
3, 66816, Note_on_c, 1, 65, 45
3, 66862, Note_on_c, 1, 65, 0
3, 66864, Note_on_c, 1, 67, 45
3, 66910, Note_on_c, 1, 67, 0
3, 66912, Note_on_c, 1, 64, 45
3, 66958, Note_on_c, 1, 64, 0
3, 66960, Note_on_c, 1, 67, 45
3, 67006, Note_on_c, 1, 67, 0
3, 67008, Note_on_c, 1, 62, 45
3, 67054, Note_on_c, 1, 62, 0
3, 67056, Note_on_c, 1, 67, 45
3, 67102, Note_on_c, 1, 67, 0
3, 67104, Note_on_c, 1, 64, 45
3, 67150, Note_on_c, 1, 64, 0
3, 67152, Note_on_c, 1, 67, 45
3, 67198, Note_on_c, 1, 67, 0
3, 67200, Note_on_c, 1, 65, 45
3, 67246, Note_on_c, 1, 65, 0
3, 67248, Note_on_c, 1, 67, 45
3, 67294, Note_on_c, 1, 67, 0
3, 67296, Note_on_c, 1, 64, 45
3, 67342, Note_on_c, 1, 64, 0
3, 67344, Note_on_c, 1, 67, 45
3, 67390, Note_on_c, 1, 67, 0
3, 67392, Note_on_c, 1, 65, 45
3, 67438, Note_on_c, 1, 65, 0
3, 67440, Note_on_c, 1, 67, 45
3, 67486, Note_on_c, 1, 67, 0
3, 67488, Note_on_c, 1, 62, 45
3, 67534, Note_on_c, 1, 62, 0
3, 67536, Note_on_c, 1, 67, 45
3, 67582, Note_on_c, 1, 67, 0
3, 67584, Note_on_c, 1, 64, 45
3, 67630, Note_on_c, 1, 64, 0
3, 67632, Note_on_c, 1, 67, 45
3, 67678, Note_on_c, 1, 67, 0
3, 67680, Note_on_c, 1, 64, 45
3, 67726, Note_on_c, 1, 64, 0
3, 67728, Note_on_c, 1, 67, 45
3, 67774, Note_on_c, 1, 67, 0
3, 67776, Note_on_c, 1, 64, 45
3, 67822, Note_on_c, 1, 64, 0
3, 67824, Note_on_c, 1, 67, 45
3, 67870, Note_on_c, 1, 67, 0
3, 67872, Note_on_c, 1, 64, 45
3, 67918, Note_on_c, 1, 64, 0
3, 67920, Note_on_c, 1, 67, 45
3, 67966, Note_on_c, 1, 67, 0
3, 67968, Note_on_c, 1, 64, 45
3, 68014, Note_on_c, 1, 64, 0
3, 68016, Note_on_c, 1, 67, 45
3, 68062, Note_on_c, 1, 67, 0
3, 68064, Note_on_c, 1, 64, 45
3, 68110, Note_on_c, 1, 64, 0
3, 68112, Note_on_c, 1, 67, 45
3, 68158, Note_on_c, 1, 67, 0
3, 68160, Note_on_c, 1, 64, 45
3, 68206, Note_on_c, 1, 64, 0
3, 68208, Note_on_c, 1, 67, 45
3, 68254, Note_on_c, 1, 67, 0
3, 68256, Note_on_c, 1, 64, 45
3, 68302, Note_on_c, 1, 64, 0
3, 68304, Note_on_c, 1, 67, 45
3, 68350, Note_on_c, 1, 67, 0
3, 68352, Note_on_c, 1, 65, 60
3, 68398, Note_on_c, 1, 65, 0
3, 68400, Note_on_c, 1, 67, 60
3, 68446, Note_on_c, 1, 67, 0
3, 68448, Note_on_c, 1, 64, 60
3, 68494, Note_on_c, 1, 64, 0
3, 68496, Note_on_c, 1, 67, 60
3, 68542, Note_on_c, 1, 67, 0
3, 68544, Note_on_c, 1, 62, 60
3, 68590, Note_on_c, 1, 62, 0
3, 68592, Note_on_c, 1, 67, 60
3, 68638, Note_on_c, 1, 67, 0
3, 68640, Note_on_c, 1, 64, 60
3, 68686, Note_on_c, 1, 64, 0
3, 68688, Note_on_c, 1, 67, 60
3, 68734, Note_on_c, 1, 67, 0
3, 68736, Note_on_c, 1, 65, 60
3, 68782, Note_on_c, 1, 65, 0
3, 68784, Note_on_c, 1, 67, 60
3, 68830, Note_on_c, 1, 67, 0
3, 68832, Note_on_c, 1, 64, 60
3, 68878, Note_on_c, 1, 64, 0
3, 68880, Note_on_c, 1, 67, 60
3, 68926, Note_on_c, 1, 67, 0
3, 68928, Note_on_c, 1, 65, 60
3, 68974, Note_on_c, 1, 65, 0
3, 68976, Note_on_c, 1, 67, 60
3, 69022, Note_on_c, 1, 67, 0
3, 69024, Note_on_c, 1, 62, 60
3, 69070, Note_on_c, 1, 62, 0
3, 69072, Note_on_c, 1, 67, 60
3, 69118, Note_on_c, 1, 67, 0
3, 69168, Note_on_c, 1, 52, 60
3, 69216, Note_on_c, 1, 52, 0
3, 69216, Note_on_c, 1, 55, 60
3, 69264, Note_on_c, 1, 55, 0
3, 69264, Note_on_c, 1, 60, 60
3, 69312, Note_on_c, 1, 60, 0
3, 69312, Note_on_c, 1, 64, 60
3, 69504, Note_on_c, 1, 64, 0
3, 69552, Note_on_c, 1, 53, 60
3, 69600, Note_on_c, 1, 53, 0
3, 69600, Note_on_c, 1, 57, 60
3, 69648, Note_on_c, 1, 57, 0
3, 69648, Note_on_c, 1, 60, 60
3, 69696, Note_on_c, 1, 60, 0
3, 69696, Note_on_c, 1, 65, 60
3, 69888, Note_on_c, 1, 65, 0
3, 69936, Note_on_c, 1, 50, 60
3, 69984, Note_on_c, 1, 50, 0
3, 69984, Note_on_c, 1, 53, 60
3, 70032, Note_on_c, 1, 53, 0
3, 70032, Note_on_c, 1, 59, 60
3, 70080, Note_on_c, 1, 59, 0
3, 70080, Note_on_c, 1, 62, 60
3, 70240, Note_on_c, 1, 62, 0
3, 70320, Note_on_c, 1, 52, 60
3, 70368, Note_on_c, 1, 52, 0
3, 70368, Note_on_c, 1, 55, 60
3, 70416, Note_on_c, 1, 55, 0
3, 70416, Note_on_c, 1, 59, 60
3, 70464, Note_on_c, 1, 59, 0
3, 70464, Note_on_c, 1, 64, 60
3, 70624, Note_on_c, 1, 64, 0
3, 70704, Note_on_c, 1, 60, 60
3, 70752, Note_on_c, 1, 60, 0
3, 70752, Note_on_c, 1, 64, 60
3, 70800, Note_on_c, 1, 64, 0
3, 70800, Note_on_c, 1, 69, 60
3, 70848, Note_on_c, 1, 69, 0
3, 70848, Note_on_c, 1, 72, 60
3, 71008, Note_on_c, 1, 72, 0
3, 71088, Note_on_c, 1, 62, 60
3, 71136, Note_on_c, 1, 62, 0
3, 71136, Note_on_c, 1, 65, 60
3, 71184, Note_on_c, 1, 65, 0
3, 71184, Note_on_c, 1, 69, 60
3, 71232, Note_on_c, 1, 69, 0
3, 71232, Note_on_c, 1, 74, 60
3, 71392, Note_on_c, 1, 74, 0
3, 71472, Note_on_c, 1, 59, 60
3, 71520, Note_on_c, 1, 59, 0
3, 71520, Note_on_c, 1, 62, 60
3, 71568, Note_on_c, 1, 62, 0
3, 71568, Note_on_c, 1, 67, 60
3, 71616, Note_on_c, 1, 67, 0
3, 71616, Note_on_c, 1, 71, 60
3, 71776, Note_on_c, 1, 71, 0
3, 71856, Note_on_c, 1, 60, 60
3, 71904, Note_on_c, 1, 60, 0
3, 71904, Note_on_c, 1, 64, 60
3, 71952, Note_on_c, 1, 64, 0
3, 71952, Note_on_c, 1, 67, 60
3, 72000, Note_on_c, 1, 67, 0
3, 72000, Note_on_c, 1, 72, 60
3, 72160, Note_on_c, 1, 72, 0
3, 72288, Note_on_c, 1, 65, 60
3, 72288, Note_on_c, 1, 69, 60
3, 72320, Note_on_c, 1, 65, 0
3, 72320, Note_on_c, 1, 69, 0
3, 72384, Note_on_c, 1, 65, 60
3, 72384, Note_on_c, 1, 69, 60
3, 72416, Note_on_c, 1, 65, 0
3, 72416, Note_on_c, 1, 69, 0
3, 72480, Note_on_c, 1, 65, 60
3, 72480, Note_on_c, 1, 69, 60
3, 72512, Note_on_c, 1, 65, 0
3, 72512, Note_on_c, 1, 69, 0
3, 72576, Note_on_c, 1, 65, 60
3, 72576, Note_on_c, 1, 69, 60
3, 72608, Note_on_c, 1, 65, 0
3, 72608, Note_on_c, 1, 69, 0
3, 72672, Note_on_c, 1, 65, 62
3, 72672, Note_on_c, 1, 69, 62
3, 72704, Note_on_c, 1, 65, 0
3, 72704, Note_on_c, 1, 69, 0
3, 72768, Note_on_c, 1, 65, 64
3, 72768, Note_on_c, 1, 69, 64
3, 72800, Note_on_c, 1, 65, 0
3, 72800, Note_on_c, 1, 69, 0
3, 72864, Note_on_c, 1, 65, 66
3, 72864, Note_on_c, 1, 69, 66
3, 72896, Note_on_c, 1, 65, 0
3, 72896, Note_on_c, 1, 69, 0
3, 73056, Note_on_c, 1, 54, 71
3, 73056, Note_on_c, 1, 60, 71
3, 73056, Note_on_c, 1, 63, 71
3, 73088, Note_on_c, 1, 54, 0
3, 73088, Note_on_c, 1, 60, 0
3, 73088, Note_on_c, 1, 63, 0
3, 73152, Note_on_c, 1, 54, 74
3, 73152, Note_on_c, 1, 60, 74
3, 73152, Note_on_c, 1, 63, 74
3, 73184, Note_on_c, 1, 54, 0
3, 73184, Note_on_c, 1, 60, 0
3, 73184, Note_on_c, 1, 63, 0
3, 73248, Note_on_c, 1, 54, 77
3, 73248, Note_on_c, 1, 60, 77
3, 73248, Note_on_c, 1, 63, 77
3, 73280, Note_on_c, 1, 54, 0
3, 73280, Note_on_c, 1, 60, 0
3, 73280, Note_on_c, 1, 63, 0
3, 73344, Note_on_c, 1, 54, 80
3, 73344, Note_on_c, 1, 60, 80
3, 73344, Note_on_c, 1, 63, 80
3, 73376, Note_on_c, 1, 54, 0
3, 73376, Note_on_c, 1, 60, 0
3, 73376, Note_on_c, 1, 63, 0
3, 73440, Note_on_c, 1, 54, 83
3, 73440, Note_on_c, 1, 60, 83
3, 73440, Note_on_c, 1, 63, 83
3, 73472, Note_on_c, 1, 54, 0
3, 73472, Note_on_c, 1, 60, 0
3, 73472, Note_on_c, 1, 63, 0
3, 73536, Note_on_c, 1, 54, 86
3, 73536, Note_on_c, 1, 60, 86
3, 73536, Note_on_c, 1, 63, 86
3, 73568, Note_on_c, 1, 54, 0
3, 73568, Note_on_c, 1, 60, 0
3, 73568, Note_on_c, 1, 63, 0
3, 73632, Note_on_c, 1, 54, 89
3, 73632, Note_on_c, 1, 60, 89
3, 73632, Note_on_c, 1, 63, 89
3, 73664, Note_on_c, 1, 54, 0
3, 73664, Note_on_c, 1, 60, 0
3, 73664, Note_on_c, 1, 63, 0
3, 73728, Note_on_c, 1, 55, 92
3, 73776, Note_on_c, 1, 55, 0
3, 73776, Note_on_c, 1, 64, 92
3, 73824, Note_on_c, 1, 64, 0
3, 73824, Note_on_c, 1, 60, 92
3, 73872, Note_on_c, 1, 60, 0
3, 73872, Note_on_c, 1, 64, 92
3, 73920, Note_on_c, 1, 64, 0
3, 73920, Note_on_c, 1, 55, 92
3, 73968, Note_on_c, 1, 55, 0
3, 73968, Note_on_c, 1, 64, 92
3, 74016, Note_on_c, 1, 64, 0
3, 74016, Note_on_c, 1, 60, 92
3, 74064, Note_on_c, 1, 60, 0
3, 74064, Note_on_c, 1, 64, 92
3, 74112, Note_on_c, 1, 64, 0
3, 74112, Note_on_c, 1, 55, 92
3, 74160, Note_on_c, 1, 55, 0
3, 74160, Note_on_c, 1, 64, 92
3, 74208, Note_on_c, 1, 64, 0
3, 74208, Note_on_c, 1, 60, 92
3, 74256, Note_on_c, 1, 60, 0
3, 74256, Note_on_c, 1, 64, 92
3, 74304, Note_on_c, 1, 64, 0
3, 74304, Note_on_c, 1, 55, 92
3, 74352, Note_on_c, 1, 55, 0
3, 74352, Note_on_c, 1, 64, 92
3, 74400, Note_on_c, 1, 64, 0
3, 74400, Note_on_c, 1, 60, 92
3, 74448, Note_on_c, 1, 60, 0
3, 74448, Note_on_c, 1, 64, 92
3, 74496, Note_on_c, 1, 64, 0
3, 74496, Note_on_c, 1, 55, 92
3, 74544, Note_on_c, 1, 55, 0
3, 74544, Note_on_c, 1, 65, 92
3, 74592, Note_on_c, 1, 65, 0
3, 74592, Note_on_c, 1, 59, 92
3, 74640, Note_on_c, 1, 59, 0
3, 74640, Note_on_c, 1, 65, 92
3, 74688, Note_on_c, 1, 65, 0
3, 74688, Note_on_c, 1, 55, 92
3, 74736, Note_on_c, 1, 55, 0
3, 74736, Note_on_c, 1, 65, 92
3, 74784, Note_on_c, 1, 65, 0
3, 74784, Note_on_c, 1, 59, 92
3, 74832, Note_on_c, 1, 59, 0
3, 74832, Note_on_c, 1, 65, 92
3, 74880, Note_on_c, 1, 65, 0
3, 74880, Note_on_c, 1, 55, 92
3, 74928, Note_on_c, 1, 55, 0
3, 74928, Note_on_c, 1, 65, 92
3, 74976, Note_on_c, 1, 65, 0
3, 74976, Note_on_c, 1, 59, 92
3, 75024, Note_on_c, 1, 59, 0
3, 75024, Note_on_c, 1, 65, 92
3, 75072, Note_on_c, 1, 65, 0
3, 75072, Note_on_c, 1, 55, 92
3, 75120, Note_on_c, 1, 55, 0
3, 75120, Note_on_c, 1, 65, 92
3, 75168, Note_on_c, 1, 65, 0
3, 75168, Note_on_c, 1, 59, 92
3, 75216, Note_on_c, 1, 59, 0
3, 75216, Note_on_c, 1, 65, 92
3, 75262, Note_on_c, 1, 65, 0
3, 75264, Note_on_c, 1, 60, 92
3, 75264, Note_on_c, 1, 64, 92
3, 75312, Note_on_c, 1, 60, 0
3, 75312, Note_on_c, 1, 64, 0
3, 75840, Note_on_c, 1, 55, 92
3, 75840, Note_on_c, 1, 62, 92
3, 75840, Note_on_c, 1, 65, 92
3, 76032, Note_on_c, 1, 55, 0
3, 76032, Note_on_c, 1, 62, 0
3, 76032, Note_on_c, 1, 65, 0
3, 76032, Note_on_c, 1, 60, 92
3, 76032, Note_on_c, 1, 64, 92
3, 76080, Note_on_c, 1, 60, 0
3, 76080, Note_on_c, 1, 64, 0
3, 76608, Note_on_c, 1, 43, 92
3, 76608, Note_on_c, 1, 50, 92
3, 76608, Note_on_c, 1, 53, 92
3, 76800, Note_on_c, 1, 43, 0
3, 76800, Note_on_c, 1, 50, 0
3, 76800, Note_on_c, 1, 53, 0
3, 76800, Note_on_c, 1, 48, 92
3, 76800, Note_on_c, 1, 52, 92
3, 76848, Note_on_c, 1, 48, 0
3, 76848, Note_on_c, 1, 52, 0
3, 76992, Note_on_c, 1, 48, 92
3, 76992, Note_on_c, 1, 60, 92
3, 77040, Note_on_c, 1, 48, 0
3, 77040, Note_on_c, 1, 60, 0
3, 77184, Note_on_c, 1, 36, 92
3, 77184, Note_on_c, 1, 48, 92
3, 77232, Note_on_c, 1, 36, 0
3, 77232, Note_on_c, 1, 48, 0
3, 77568, Note_on_c, 1, 43, 92
3, 77568, Note_on_c, 1, 55, 92
3, 77616, Note_on_c, 1, 43, 0
3, 77616, Note_on_c, 1, 55, 0
3, 78144, Note_on_c, 1, 62, 92
3, 78144, Note_on_c, 1, 69, 92
3, 78144, Note_on_c, 1, 72, 92
3, 78336, Note_on_c, 1, 62, 0
3, 78336, Note_on_c, 1, 69, 0
3, 78336, Note_on_c, 1, 72, 0
3, 78336, Note_on_c, 1, 67, 92
3, 78336, Note_on_c, 1, 70, 92
3, 78384, Note_on_c, 1, 67, 0
3, 78384, Note_on_c, 1, 70, 0
3, 78912, Note_on_c, 1, 50, 92
3, 78912, Note_on_c, 1, 57, 92
3, 78912, Note_on_c, 1, 60, 92
3, 79104, Note_on_c, 1, 50, 0
3, 79104, Note_on_c, 1, 57, 0
3, 79104, Note_on_c, 1, 60, 0
3, 79152, Note_on_c, 1, 43, 92
3, 79200, Note_on_c, 1, 43, 0
3, 79200, Note_on_c, 1, 45, 92
3, 79248, Note_on_c, 1, 45, 0
3, 79248, Note_on_c, 1, 46, 92
3, 79296, Note_on_c, 1, 46, 0
3, 79296, Note_on_c, 1, 48, 92
3, 79344, Note_on_c, 1, 48, 0
3, 79344, Note_on_c, 1, 50, 92
3, 79392, Note_on_c, 1, 50, 0
3, 79392, Note_on_c, 1, 52, 92
3, 79440, Note_on_c, 1, 52, 0
3, 79440, Note_on_c, 1, 54, 92
3, 79488, Note_on_c, 1, 54, 0
3, 79488, Note_on_c, 1, 55, 92
3, 79536, Note_on_c, 1, 55, 0
3, 79920, Note_on_c, 1, 45, 92
3, 79968, Note_on_c, 1, 45, 0
3, 79968, Note_on_c, 1, 47, 92
3, 80016, Note_on_c, 1, 47, 0
3, 80016, Note_on_c, 1, 49, 92
3, 80064, Note_on_c, 1, 49, 0
3, 80064, Note_on_c, 1, 50, 92
3, 80112, Note_on_c, 1, 50, 0
3, 80112, Note_on_c, 1, 52, 92
3, 80160, Note_on_c, 1, 52, 0
3, 80160, Note_on_c, 1, 54, 92
3, 80208, Note_on_c, 1, 54, 0
3, 80208, Note_on_c, 1, 56, 92
3, 80256, Note_on_c, 1, 56, 0
3, 80256, Note_on_c, 1, 57, 92
3, 80304, Note_on_c, 1, 57, 0
3, 80640, Note_on_c, 1, 38, 92
3, 80640, Note_on_c, 1, 50, 92
3, 80800, Note_on_c, 1, 38, 0
3, 80800, Note_on_c, 1, 50, 0
3, 81216, Note_on_c, 1, 57, 92
3, 81216, Note_on_c, 1, 64, 92
3, 81216, Note_on_c, 1, 67, 92
3, 81408, Note_on_c, 1, 57, 0
3, 81408, Note_on_c, 1, 64, 0
3, 81408, Note_on_c, 1, 67, 0
3, 81408, Note_on_c, 1, 62, 92
3, 81408, Note_on_c, 1, 65, 92
3, 81456, Note_on_c, 1, 62, 0
3, 81456, Note_on_c, 1, 65, 0
3, 81984, Note_on_c, 1, 45, 92
3, 81984, Note_on_c, 1, 52, 92
3, 81984, Note_on_c, 1, 55, 92
3, 82176, Note_on_c, 1, 45, 0
3, 82176, Note_on_c, 1, 52, 0
3, 82176, Note_on_c, 1, 55, 0
3, 82176, Note_on_c, 1, 50, 92
3, 82176, Note_on_c, 1, 53, 92
3, 82224, Note_on_c, 1, 50, 0
3, 82224, Note_on_c, 1, 53, 0
3, 82608, Note_on_c, 1, 62, 92
3, 82656, Note_on_c, 1, 62, 0
3, 82656, Note_on_c, 1, 65, 92
3, 82704, Note_on_c, 1, 65, 0
3, 82704, Note_on_c, 1, 64, 92
3, 82752, Note_on_c, 1, 64, 0
3, 82752, Note_on_c, 1, 62, 92
3, 82800, Note_on_c, 1, 62, 0
3, 82800, Note_on_c, 1, 60, 92
3, 82848, Note_on_c, 1, 60, 0
3, 82848, Note_on_c, 1, 59, 92
3, 82896, Note_on_c, 1, 59, 0
3, 82896, Note_on_c, 1, 57, 92
3, 82944, Note_on_c, 1, 57, 0
3, 82944, Note_on_c, 1, 56, 92
3, 82992, Note_on_c, 1, 56, 0
3, 83376, Note_on_c, 1, 56, 92
3, 83424, Note_on_c, 1, 56, 0
3, 83424, Note_on_c, 1, 59, 92
3, 83472, Note_on_c, 1, 59, 0
3, 83472, Note_on_c, 1, 57, 92
3, 83520, Note_on_c, 1, 57, 0
3, 83520, Note_on_c, 1, 56, 92
3, 83568, Note_on_c, 1, 56, 0
3, 83568, Note_on_c, 1, 53, 92
3, 83616, Note_on_c, 1, 53, 0
3, 83616, Note_on_c, 1, 52, 92
3, 83664, Note_on_c, 1, 52, 0
3, 83664, Note_on_c, 1, 50, 92
3, 83712, Note_on_c, 1, 50, 0
3, 83712, Note_on_c, 1, 48, 92
3, 83872, Note_on_c, 1, 48, 0
3, 84144, Note_on_c, 1, 62, 92
3, 84192, Note_on_c, 1, 62, 0
3, 84192, Note_on_c, 1, 69, 92
3, 84240, Note_on_c, 1, 69, 0
3, 84240, Note_on_c, 1, 67, 92
3, 84288, Note_on_c, 1, 67, 0
3, 84288, Note_on_c, 1, 65, 92
3, 84336, Note_on_c, 1, 65, 0
3, 84336, Note_on_c, 1, 64, 92
3, 84384, Note_on_c, 1, 64, 0
3, 84384, Note_on_c, 1, 62, 92
3, 84432, Note_on_c, 1, 62, 0
3, 84432, Note_on_c, 1, 60, 92
3, 84480, Note_on_c, 1, 60, 0
3, 84480, Note_on_c, 1, 59, 92
3, 84528, Note_on_c, 1, 59, 0
3, 84912, Note_on_c, 1, 60, 92
3, 84960, Note_on_c, 1, 60, 0
3, 84960, Note_on_c, 1, 67, 92
3, 85008, Note_on_c, 1, 67, 0
3, 85008, Note_on_c, 1, 65, 92
3, 85056, Note_on_c, 1, 65, 0
3, 85056, Note_on_c, 1, 64, 92
3, 85104, Note_on_c, 1, 64, 0
3, 85104, Note_on_c, 1, 62, 92
3, 85152, Note_on_c, 1, 62, 0
3, 85152, Note_on_c, 1, 60, 92
3, 85200, Note_on_c, 1, 60, 0
3, 85200, Note_on_c, 1, 59, 92
3, 85248, Note_on_c, 1, 59, 0
3, 85248, Note_on_c, 1, 57, 92
3, 85296, Note_on_c, 1, 57, 0
3, 85680, Note_on_c, 1, 59, 92
3, 85728, Note_on_c, 1, 59, 0
3, 85728, Note_on_c, 1, 65, 92
3, 85776, Note_on_c, 1, 65, 0
3, 85776, Note_on_c, 1, 64, 92
3, 85824, Note_on_c, 1, 64, 0
3, 85824, Note_on_c, 1, 62, 92
3, 85872, Note_on_c, 1, 62, 0
3, 85872, Note_on_c, 1, 60, 92
3, 85920, Note_on_c, 1, 60, 0
3, 85920, Note_on_c, 1, 59, 92
3, 85968, Note_on_c, 1, 59, 0
3, 85968, Note_on_c, 1, 57, 92
3, 86016, Note_on_c, 1, 57, 0
3, 86016, Note_on_c, 1, 56, 92
3, 86064, Note_on_c, 1, 56, 0
3, 86448, Note_on_c, 1, 57, 92
3, 86496, Note_on_c, 1, 57, 0
3, 86496, Note_on_c, 1, 60, 92
3, 86544, Note_on_c, 1, 60, 0
3, 86544, Note_on_c, 1, 59, 92
3, 86592, Note_on_c, 1, 59, 0
3, 86592, Note_on_c, 1, 57, 92
3, 86640, Note_on_c, 1, 57, 0
3, 86640, Note_on_c, 1, 55, 92
3, 86688, Note_on_c, 1, 55, 0
3, 86688, Note_on_c, 1, 53, 92
3, 86736, Note_on_c, 1, 53, 0
3, 86736, Note_on_c, 1, 52, 92
3, 86784, Note_on_c, 1, 52, 0
3, 86784, Note_on_c, 1, 50, 92
3, 87120, Note_on_c, 1, 50, 0
3, 87168, Note_on_c, 1, 48, 92
3, 87168, Note_on_c, 1, 55, 92
3, 87168, Note_on_c, 1, 58, 92
3, 87504, Note_on_c, 1, 48, 0
3, 87504, Note_on_c, 1, 55, 0
3, 87504, Note_on_c, 1, 58, 0
3, 87552, Note_on_c, 1, 65, 45
3, 87648, Note_on_c, 1, 65, 0
3, 87648, Note_on_c, 1, 72, 45
3, 87744, Note_on_c, 1, 72, 0
3, 87744, Note_on_c, 1, 69, 45
3, 87840, Note_on_c, 1, 69, 0
3, 87840, Note_on_c, 1, 72, 45
3, 87936, Note_on_c, 1, 72, 0
3, 87936, Note_on_c, 1, 65, 45
3, 88032, Note_on_c, 1, 65, 0
3, 88032, Note_on_c, 1, 72, 45
3, 88128, Note_on_c, 1, 72, 0
3, 88128, Note_on_c, 1, 69, 45
3, 88224, Note_on_c, 1, 69, 0
3, 88224, Note_on_c, 1, 72, 45
3, 88318, Note_on_c, 1, 72, 0
3, 88320, Note_on_c, 1, 67, 45
3, 88414, Note_on_c, 1, 67, 0
3, 88416, Note_on_c, 1, 72, 45
3, 88510, Note_on_c, 1, 72, 0
3, 88512, Note_on_c, 1, 70, 45
3, 88606, Note_on_c, 1, 70, 0
3, 88608, Note_on_c, 1, 72, 45
3, 88702, Note_on_c, 1, 72, 0
3, 88704, Note_on_c, 1, 65, 45
3, 88798, Note_on_c, 1, 65, 0
3, 88800, Note_on_c, 1, 72, 45
3, 88894, Note_on_c, 1, 72, 0
3, 88896, Note_on_c, 1, 69, 45
3, 88990, Note_on_c, 1, 69, 0
3, 88992, Note_on_c, 1, 72, 45
3, 89086, Note_on_c, 1, 72, 0
3, 89088, Note_on_c, 1, 65, 45
3, 89182, Note_on_c, 1, 65, 0
3, 89184, Note_on_c, 1, 74, 45
3, 89278, Note_on_c, 1, 74, 0
3, 89280, Note_on_c, 1, 70, 45
3, 89374, Note_on_c, 1, 70, 0
3, 89376, Note_on_c, 1, 74, 45
3, 89470, Note_on_c, 1, 74, 0
3, 89472, Note_on_c, 1, 65, 45
3, 89566, Note_on_c, 1, 65, 0
3, 89568, Note_on_c, 1, 72, 45
3, 89662, Note_on_c, 1, 72, 0
3, 89664, Note_on_c, 1, 69, 45
3, 89758, Note_on_c, 1, 69, 0
3, 89760, Note_on_c, 1, 72, 45
3, 89854, Note_on_c, 1, 72, 0
3, 89856, Note_on_c, 1, 64, 45
3, 89950, Note_on_c, 1, 64, 0
3, 89952, Note_on_c, 1, 72, 45
3, 90046, Note_on_c, 1, 72, 0
3, 90048, Note_on_c, 1, 67, 45
3, 90142, Note_on_c, 1, 67, 0
3, 90144, Note_on_c, 1, 72, 45
3, 90238, Note_on_c, 1, 72, 0
3, 90240, Note_on_c, 1, 65, 45
3, 90334, Note_on_c, 1, 65, 0
3, 90336, Note_on_c, 1, 72, 45
3, 90430, Note_on_c, 1, 72, 0
3, 90432, Note_on_c, 1, 69, 45
3, 90526, Note_on_c, 1, 69, 0
3, 90528, Note_on_c, 1, 72, 45
3, 90622, Note_on_c, 1, 72, 0
3, 90624, Note_on_c, 1, 70, 45
3, 90784, Note_on_c, 1, 70, 0
3, 91200, Note_on_c, 1, 58, 45
3, 91200, Note_on_c, 1, 65, 45
3, 91248, Note_on_c, 1, 58, 0
3, 91248, Note_on_c, 1, 65, 0
3, 91392, Note_on_c, 1, 57, 45
3, 91392, Note_on_c, 1, 65, 45
3, 91440, Note_on_c, 1, 57, 0
3, 91440, Note_on_c, 1, 65, 0
3, 91968, Note_on_c, 1, 57, 45
3, 91968, Note_on_c, 1, 65, 45
3, 92016, Note_on_c, 1, 57, 0
3, 92016, Note_on_c, 1, 65, 0
3, 92160, Note_on_c, 1, 55, 45
3, 92160, Note_on_c, 1, 65, 45
3, 92208, Note_on_c, 1, 55, 0
3, 92208, Note_on_c, 1, 65, 0
3, 92736, Note_on_c, 1, 55, 45
3, 92736, Note_on_c, 1, 64, 45
3, 92784, Note_on_c, 1, 55, 0
3, 92784, Note_on_c, 1, 64, 0
3, 92928, Note_on_c, 1, 53, 45
3, 92928, Note_on_c, 1, 65, 45
3, 92976, Note_on_c, 1, 53, 0
3, 92976, Note_on_c, 1, 65, 0
3, 93696, Note_on_c, 1, 53, 75
3, 93792, Note_on_c, 1, 53, 0
3, 93792, Note_on_c, 1, 55, 75
3, 93840, Note_on_c, 1, 55, 0
3, 93840, Note_on_c, 1, 57, 75
3, 93888, Note_on_c, 1, 57, 0
3, 93888, Note_on_c, 1, 58, 75
3, 93936, Note_on_c, 1, 58, 0
3, 93936, Note_on_c, 1, 60, 75
3, 93984, Note_on_c, 1, 60, 0
3, 93984, Note_on_c, 1, 62, 75
3, 94032, Note_on_c, 1, 62, 0
3, 94032, Note_on_c, 1, 64, 75
3, 94080, Note_on_c, 1, 64, 0
3, 94080, Note_on_c, 1, 65, 75
3, 94128, Note_on_c, 1, 65, 0
3, 94128, Note_on_c, 1, 64, 75
3, 94176, Note_on_c, 1, 64, 0
3, 94176, Note_on_c, 1, 62, 75
3, 94224, Note_on_c, 1, 62, 0
3, 94224, Note_on_c, 1, 60, 75
3, 94272, Note_on_c, 1, 60, 0
3, 94272, Note_on_c, 1, 58, 75
3, 94320, Note_on_c, 1, 58, 0
3, 94320, Note_on_c, 1, 57, 75
3, 94368, Note_on_c, 1, 57, 0
3, 94368, Note_on_c, 1, 55, 75
3, 94416, Note_on_c, 1, 55, 0
3, 94416, Note_on_c, 1, 53, 75
3, 94464, Note_on_c, 1, 53, 0
3, 94464, Note_on_c, 1, 52, 75
3, 94560, Note_on_c, 1, 52, 0
3, 94560, Note_on_c, 1, 53, 75
3, 94608, Note_on_c, 1, 53, 0
3, 94608, Note_on_c, 1, 55, 75
3, 94656, Note_on_c, 1, 55, 0
3, 94656, Note_on_c, 1, 57, 75
3, 94704, Note_on_c, 1, 57, 0
3, 94704, Note_on_c, 1, 59, 75
3, 94752, Note_on_c, 1, 59, 0
3, 94752, Note_on_c, 1, 60, 75
3, 94800, Note_on_c, 1, 60, 0
3, 94800, Note_on_c, 1, 62, 75
3, 94848, Note_on_c, 1, 62, 0
3, 94848, Note_on_c, 1, 64, 75
3, 94896, Note_on_c, 1, 64, 0
3, 94896, Note_on_c, 1, 62, 75
3, 94944, Note_on_c, 1, 62, 0
3, 94944, Note_on_c, 1, 60, 75
3, 94992, Note_on_c, 1, 60, 0
3, 94992, Note_on_c, 1, 59, 75
3, 95040, Note_on_c, 1, 59, 0
3, 95040, Note_on_c, 1, 57, 75
3, 95088, Note_on_c, 1, 57, 0
3, 95088, Note_on_c, 1, 55, 75
3, 95136, Note_on_c, 1, 55, 0
3, 95136, Note_on_c, 1, 53, 75
3, 95184, Note_on_c, 1, 53, 0
3, 95184, Note_on_c, 1, 52, 75
3, 95232, Note_on_c, 1, 52, 0
3, 95232, Note_on_c, 1, 50, 75
3, 95328, Note_on_c, 1, 50, 0
3, 95328, Note_on_c, 1, 52, 75
3, 95376, Note_on_c, 1, 52, 0
3, 95376, Note_on_c, 1, 53, 75
3, 95424, Note_on_c, 1, 53, 0
3, 95424, Note_on_c, 1, 55, 75
3, 95472, Note_on_c, 1, 55, 0
3, 95472, Note_on_c, 1, 57, 75
3, 95520, Note_on_c, 1, 57, 0
3, 95520, Note_on_c, 1, 59, 75
3, 95568, Note_on_c, 1, 59, 0
3, 95568, Note_on_c, 1, 60, 75
3, 95616, Note_on_c, 1, 60, 0
3, 95616, Note_on_c, 1, 62, 75
3, 95664, Note_on_c, 1, 62, 0
3, 95664, Note_on_c, 1, 60, 75
3, 95712, Note_on_c, 1, 60, 0
3, 95712, Note_on_c, 1, 59, 75
3, 95760, Note_on_c, 1, 59, 0
3, 95760, Note_on_c, 1, 57, 75
3, 95808, Note_on_c, 1, 57, 0
3, 95808, Note_on_c, 1, 55, 75
3, 95856, Note_on_c, 1, 55, 0
3, 95856, Note_on_c, 1, 53, 75
3, 95904, Note_on_c, 1, 53, 0
3, 95904, Note_on_c, 1, 52, 75
3, 95952, Note_on_c, 1, 52, 0
3, 95952, Note_on_c, 1, 50, 75
3, 96000, Note_on_c, 1, 50, 0
3, 96000, Note_on_c, 1, 48, 75
3, 96096, Note_on_c, 1, 48, 0
3, 96096, Note_on_c, 1, 50, 75
3, 96144, Note_on_c, 1, 50, 0
3, 96144, Note_on_c, 1, 52, 75
3, 96192, Note_on_c, 1, 52, 0
3, 96192, Note_on_c, 1, 53, 75
3, 96240, Note_on_c, 1, 53, 0
3, 96240, Note_on_c, 1, 55, 75
3, 96288, Note_on_c, 1, 55, 0
3, 96288, Note_on_c, 1, 57, 75
3, 96336, Note_on_c, 1, 57, 0
3, 96336, Note_on_c, 1, 59, 75
3, 96384, Note_on_c, 1, 59, 0
3, 96384, Note_on_c, 1, 60, 75
3, 96432, Note_on_c, 1, 60, 0
3, 96432, Note_on_c, 1, 59, 75
3, 96480, Note_on_c, 1, 59, 0
3, 96480, Note_on_c, 1, 57, 75
3, 96528, Note_on_c, 1, 57, 0
3, 96528, Note_on_c, 1, 55, 75
3, 96576, Note_on_c, 1, 55, 0
3, 96576, Note_on_c, 1, 53, 75
3, 96624, Note_on_c, 1, 53, 0
3, 96624, Note_on_c, 1, 52, 75
3, 96672, Note_on_c, 1, 52, 0
3, 96672, Note_on_c, 1, 50, 75
3, 96720, Note_on_c, 1, 50, 0
3, 96720, Note_on_c, 1, 48, 75
3, 96768, Note_on_c, 1, 48, 0
3, 96768, Note_on_c, 1, 53, 75
3, 96768, Note_on_c, 1, 57, 75
3, 97488, Note_on_c, 1, 53, 0
3, 97488, Note_on_c, 1, 57, 0
3, 97536, Note_on_c, 1, 53, 75
3, 97824, Note_on_c, 1, 53, 0
3, 97824, Note_on_c, 1, 55, 81
3, 97920, Note_on_c, 1, 55, 0
3, 97920, Note_on_c, 1, 57, 83
3, 98208, Note_on_c, 1, 57, 0
3, 98208, Note_on_c, 1, 54, 89
3, 98302, Note_on_c, 1, 54, 0
3, 98304, Note_on_c, 1, 43, 92
3, 98352, Note_on_c, 1, 43, 0
3, 98352, Note_on_c, 1, 47, 92
3, 98400, Note_on_c, 1, 47, 0
3, 98400, Note_on_c, 1, 50, 92
3, 98448, Note_on_c, 1, 50, 0
3, 98448, Note_on_c, 1, 55, 92
3, 98496, Note_on_c, 1, 55, 0
3, 98496, Note_on_c, 1, 43, 92
3, 98544, Note_on_c, 1, 43, 0
3, 98544, Note_on_c, 1, 48, 92
3, 98592, Note_on_c, 1, 48, 0
3, 98592, Note_on_c, 1, 52, 92
3, 98640, Note_on_c, 1, 52, 0
3, 98640, Note_on_c, 1, 55, 92
3, 98688, Note_on_c, 1, 55, 0
3, 98688, Note_on_c, 1, 43, 92
3, 98736, Note_on_c, 1, 43, 0
3, 98736, Note_on_c, 1, 47, 92
3, 98784, Note_on_c, 1, 47, 0
3, 98784, Note_on_c, 1, 50, 92
3, 98832, Note_on_c, 1, 50, 0
3, 98832, Note_on_c, 1, 55, 92
3, 98880, Note_on_c, 1, 55, 0
3, 98880, Note_on_c, 1, 43, 92
3, 98928, Note_on_c, 1, 43, 0
3, 98928, Note_on_c, 1, 48, 92
3, 98976, Note_on_c, 1, 48, 0
3, 98976, Note_on_c, 1, 52, 92
3, 99024, Note_on_c, 1, 52, 0
3, 99024, Note_on_c, 1, 55, 92
3, 99072, Note_on_c, 1, 55, 0
3, 99072, Note_on_c, 1, 43, 92
3, 99120, Note_on_c, 1, 43, 0
3, 99264, Note_on_c, 1, 55, 92
3, 99312, Note_on_c, 1, 55, 0
3, 99456, Note_on_c, 1, 43, 92
3, 99504, Note_on_c, 1, 43, 0
3, 99840, Note_on_c, 1, 66, 63
3, 99888, Note_on_c, 1, 66, 0
3, 99888, Note_on_c, 1, 67, 45
3, 99936, Note_on_c, 1, 67, 0
3, 99936, Note_on_c, 1, 66, 45
3, 99984, Note_on_c, 1, 66, 0
3, 99984, Note_on_c, 1, 67, 45
3, 100032, Note_on_c, 1, 67, 0
3, 100032, Note_on_c, 1, 66, 45
3, 100080, Note_on_c, 1, 66, 0
3, 100080, Note_on_c, 1, 67, 45
3, 100128, Note_on_c, 1, 67, 0
3, 100128, Note_on_c, 1, 66, 45
3, 100176, Note_on_c, 1, 66, 0
3, 100176, Note_on_c, 1, 67, 45
3, 100224, Note_on_c, 1, 67, 0
3, 100224, Note_on_c, 1, 65, 63
3, 100272, Note_on_c, 1, 65, 0
3, 100272, Note_on_c, 1, 67, 45
3, 100320, Note_on_c, 1, 67, 0
3, 100320, Note_on_c, 1, 65, 45
3, 100368, Note_on_c, 1, 65, 0
3, 100368, Note_on_c, 1, 67, 45
3, 100416, Note_on_c, 1, 67, 0
3, 100416, Note_on_c, 1, 65, 45
3, 100464, Note_on_c, 1, 65, 0
3, 100464, Note_on_c, 1, 67, 45
3, 100512, Note_on_c, 1, 67, 0
3, 100512, Note_on_c, 1, 65, 45
3, 100560, Note_on_c, 1, 65, 0
3, 100560, Note_on_c, 1, 67, 45
3, 100606, Note_on_c, 1, 67, 0
3, 100608, Note_on_c, 1, 64, 63
3, 100654, Note_on_c, 1, 64, 0
3, 100656, Note_on_c, 1, 67, 45
3, 100702, Note_on_c, 1, 67, 0
3, 100704, Note_on_c, 1, 64, 45
3, 100750, Note_on_c, 1, 64, 0
3, 100752, Note_on_c, 1, 67, 45
3, 100798, Note_on_c, 1, 67, 0
3, 100800, Note_on_c, 1, 64, 45
3, 100846, Note_on_c, 1, 64, 0
3, 100848, Note_on_c, 1, 67, 45
3, 100894, Note_on_c, 1, 67, 0
3, 100896, Note_on_c, 1, 64, 45
3, 100942, Note_on_c, 1, 64, 0
3, 100944, Note_on_c, 1, 67, 45
3, 100990, Note_on_c, 1, 67, 0
3, 100992, Note_on_c, 1, 64, 45
3, 101038, Note_on_c, 1, 64, 0
3, 101040, Note_on_c, 1, 67, 45
3, 101086, Note_on_c, 1, 67, 0
3, 101088, Note_on_c, 1, 64, 45
3, 101134, Note_on_c, 1, 64, 0
3, 101136, Note_on_c, 1, 67, 45
3, 101182, Note_on_c, 1, 67, 0
3, 101184, Note_on_c, 1, 64, 45
3, 101230, Note_on_c, 1, 64, 0
3, 101232, Note_on_c, 1, 67, 45
3, 101278, Note_on_c, 1, 67, 0
3, 101280, Note_on_c, 1, 64, 45
3, 101326, Note_on_c, 1, 64, 0
3, 101328, Note_on_c, 1, 67, 45
3, 101374, Note_on_c, 1, 67, 0
3, 101376, Note_on_c, 1, 65, 45
3, 101422, Note_on_c, 1, 65, 0
3, 101424, Note_on_c, 1, 67, 45
3, 101470, Note_on_c, 1, 67, 0
3, 101472, Note_on_c, 1, 64, 45
3, 101518, Note_on_c, 1, 64, 0
3, 101520, Note_on_c, 1, 67, 45
3, 101566, Note_on_c, 1, 67, 0
3, 101568, Note_on_c, 1, 62, 45
3, 101614, Note_on_c, 1, 62, 0
3, 101616, Note_on_c, 1, 67, 45
3, 101662, Note_on_c, 1, 67, 0
3, 101664, Note_on_c, 1, 64, 45
3, 101710, Note_on_c, 1, 64, 0
3, 101712, Note_on_c, 1, 67, 45
3, 101758, Note_on_c, 1, 67, 0
3, 101760, Note_on_c, 1, 65, 45
3, 101806, Note_on_c, 1, 65, 0
3, 101808, Note_on_c, 1, 67, 45
3, 101854, Note_on_c, 1, 67, 0
3, 101856, Note_on_c, 1, 64, 45
3, 101902, Note_on_c, 1, 64, 0
3, 101904, Note_on_c, 1, 67, 45
3, 101950, Note_on_c, 1, 67, 0
3, 101952, Note_on_c, 1, 65, 45
3, 101998, Note_on_c, 1, 65, 0
3, 102000, Note_on_c, 1, 67, 45
3, 102046, Note_on_c, 1, 67, 0
3, 102048, Note_on_c, 1, 62, 45
3, 102094, Note_on_c, 1, 62, 0
3, 102096, Note_on_c, 1, 67, 45
3, 102142, Note_on_c, 1, 67, 0
3, 102144, Note_on_c, 1, 64, 45
3, 102190, Note_on_c, 1, 64, 0
3, 102192, Note_on_c, 1, 67, 45
3, 102238, Note_on_c, 1, 67, 0
3, 102240, Note_on_c, 1, 64, 45
3, 102286, Note_on_c, 1, 64, 0
3, 102288, Note_on_c, 1, 67, 45
3, 102334, Note_on_c, 1, 67, 0
3, 102336, Note_on_c, 1, 64, 45
3, 102382, Note_on_c, 1, 64, 0
3, 102384, Note_on_c, 1, 67, 45
3, 102430, Note_on_c, 1, 67, 0
3, 102432, Note_on_c, 1, 64, 45
3, 102478, Note_on_c, 1, 64, 0
3, 102480, Note_on_c, 1, 67, 45
3, 102526, Note_on_c, 1, 67, 0
3, 102528, Note_on_c, 1, 64, 45
3, 102574, Note_on_c, 1, 64, 0
3, 102576, Note_on_c, 1, 67, 45
3, 102622, Note_on_c, 1, 67, 0
3, 102624, Note_on_c, 1, 64, 45
3, 102670, Note_on_c, 1, 64, 0
3, 102672, Note_on_c, 1, 67, 45
3, 102718, Note_on_c, 1, 67, 0
3, 102720, Note_on_c, 1, 64, 45
3, 102766, Note_on_c, 1, 64, 0
3, 102768, Note_on_c, 1, 67, 45
3, 102814, Note_on_c, 1, 67, 0
3, 102816, Note_on_c, 1, 64, 45
3, 102862, Note_on_c, 1, 64, 0
3, 102864, Note_on_c, 1, 67, 45
3, 102910, Note_on_c, 1, 67, 0
3, 102912, Note_on_c, 1, 65, 60
3, 102958, Note_on_c, 1, 65, 0
3, 102960, Note_on_c, 1, 67, 60
3, 103006, Note_on_c, 1, 67, 0
3, 103008, Note_on_c, 1, 64, 60
3, 103054, Note_on_c, 1, 64, 0
3, 103056, Note_on_c, 1, 67, 60
3, 103102, Note_on_c, 1, 67, 0
3, 103104, Note_on_c, 1, 62, 60
3, 103150, Note_on_c, 1, 62, 0
3, 103152, Note_on_c, 1, 67, 60
3, 103198, Note_on_c, 1, 67, 0
3, 103200, Note_on_c, 1, 64, 60
3, 103246, Note_on_c, 1, 64, 0
3, 103248, Note_on_c, 1, 67, 60
3, 103294, Note_on_c, 1, 67, 0
3, 103296, Note_on_c, 1, 65, 60
3, 103342, Note_on_c, 1, 65, 0
3, 103344, Note_on_c, 1, 67, 60
3, 103390, Note_on_c, 1, 67, 0
3, 103392, Note_on_c, 1, 64, 60
3, 103438, Note_on_c, 1, 64, 0
3, 103440, Note_on_c, 1, 67, 60
3, 103486, Note_on_c, 1, 67, 0
3, 103488, Note_on_c, 1, 65, 60
3, 103534, Note_on_c, 1, 65, 0
3, 103536, Note_on_c, 1, 67, 60
3, 103582, Note_on_c, 1, 67, 0
3, 103584, Note_on_c, 1, 62, 60
3, 103630, Note_on_c, 1, 62, 0
3, 103632, Note_on_c, 1, 67, 60
3, 103678, Note_on_c, 1, 67, 0
3, 103728, Note_on_c, 1, 52, 60
3, 103776, Note_on_c, 1, 52, 0
3, 103776, Note_on_c, 1, 55, 60
3, 103824, Note_on_c, 1, 55, 0
3, 103824, Note_on_c, 1, 60, 60
3, 103872, Note_on_c, 1, 60, 0
3, 103872, Note_on_c, 1, 64, 60
3, 104064, Note_on_c, 1, 64, 0
3, 104112, Note_on_c, 1, 53, 60
3, 104160, Note_on_c, 1, 53, 0
3, 104160, Note_on_c, 1, 57, 60
3, 104208, Note_on_c, 1, 57, 0
3, 104208, Note_on_c, 1, 60, 60
3, 104256, Note_on_c, 1, 60, 0
3, 104256, Note_on_c, 1, 65, 60
3, 104448, Note_on_c, 1, 65, 0
3, 104496, Note_on_c, 1, 50, 60
3, 104544, Note_on_c, 1, 50, 0
3, 104544, Note_on_c, 1, 53, 60
3, 104592, Note_on_c, 1, 53, 0
3, 104592, Note_on_c, 1, 59, 60
3, 104640, Note_on_c, 1, 59, 0
3, 104640, Note_on_c, 1, 62, 60
3, 104800, Note_on_c, 1, 62, 0
3, 104880, Note_on_c, 1, 52, 60
3, 104928, Note_on_c, 1, 52, 0
3, 104928, Note_on_c, 1, 55, 60
3, 104976, Note_on_c, 1, 55, 0
3, 104976, Note_on_c, 1, 59, 60
3, 105024, Note_on_c, 1, 59, 0
3, 105024, Note_on_c, 1, 64, 60
3, 105184, Note_on_c, 1, 64, 0
3, 105264, Note_on_c, 1, 60, 60
3, 105312, Note_on_c, 1, 60, 0
3, 105312, Note_on_c, 1, 64, 60
3, 105360, Note_on_c, 1, 64, 0
3, 105360, Note_on_c, 1, 69, 60
3, 105408, Note_on_c, 1, 69, 0
3, 105408, Note_on_c, 1, 72, 60
3, 105568, Note_on_c, 1, 72, 0
3, 105648, Note_on_c, 1, 62, 60
3, 105696, Note_on_c, 1, 62, 0
3, 105696, Note_on_c, 1, 65, 60
3, 105744, Note_on_c, 1, 65, 0
3, 105744, Note_on_c, 1, 69, 60
3, 105792, Note_on_c, 1, 69, 0
3, 105792, Note_on_c, 1, 74, 60
3, 105952, Note_on_c, 1, 74, 0
3, 106032, Note_on_c, 1, 59, 60
3, 106080, Note_on_c, 1, 59, 0
3, 106080, Note_on_c, 1, 62, 60
3, 106128, Note_on_c, 1, 62, 0
3, 106128, Note_on_c, 1, 67, 60
3, 106176, Note_on_c, 1, 67, 0
3, 106176, Note_on_c, 1, 71, 60
3, 106336, Note_on_c, 1, 71, 0
3, 106416, Note_on_c, 1, 60, 60
3, 106464, Note_on_c, 1, 60, 0
3, 106464, Note_on_c, 1, 64, 60
3, 106512, Note_on_c, 1, 64, 0
3, 106512, Note_on_c, 1, 67, 60
3, 106560, Note_on_c, 1, 67, 0
3, 106560, Note_on_c, 1, 72, 60
3, 106720, Note_on_c, 1, 72, 0
3, 106848, Note_on_c, 1, 65, 60
3, 106848, Note_on_c, 1, 69, 60
3, 106880, Note_on_c, 1, 65, 0
3, 106880, Note_on_c, 1, 69, 0
3, 106944, Note_on_c, 1, 65, 60
3, 106944, Note_on_c, 1, 69, 60
3, 106976, Note_on_c, 1, 65, 0
3, 106976, Note_on_c, 1, 69, 0
3, 107040, Note_on_c, 1, 65, 60
3, 107040, Note_on_c, 1, 69, 60
3, 107072, Note_on_c, 1, 65, 0
3, 107072, Note_on_c, 1, 69, 0
3, 107136, Note_on_c, 1, 65, 60
3, 107136, Note_on_c, 1, 69, 60
3, 107168, Note_on_c, 1, 65, 0
3, 107168, Note_on_c, 1, 69, 0
3, 107232, Note_on_c, 1, 65, 62
3, 107232, Note_on_c, 1, 69, 62
3, 107264, Note_on_c, 1, 65, 0
3, 107264, Note_on_c, 1, 69, 0
3, 107328, Note_on_c, 1, 65, 64
3, 107328, Note_on_c, 1, 69, 64
3, 107360, Note_on_c, 1, 65, 0
3, 107360, Note_on_c, 1, 69, 0
3, 107424, Note_on_c, 1, 65, 66
3, 107424, Note_on_c, 1, 69, 66
3, 107456, Note_on_c, 1, 65, 0
3, 107456, Note_on_c, 1, 69, 0
3, 107616, Note_on_c, 1, 54, 71
3, 107616, Note_on_c, 1, 60, 71
3, 107616, Note_on_c, 1, 63, 71
3, 107648, Note_on_c, 1, 54, 0
3, 107648, Note_on_c, 1, 60, 0
3, 107648, Note_on_c, 1, 63, 0
3, 107712, Note_on_c, 1, 54, 74
3, 107712, Note_on_c, 1, 60, 74
3, 107712, Note_on_c, 1, 63, 74
3, 107744, Note_on_c, 1, 54, 0
3, 107744, Note_on_c, 1, 60, 0
3, 107744, Note_on_c, 1, 63, 0
3, 107808, Note_on_c, 1, 54, 77
3, 107808, Note_on_c, 1, 60, 77
3, 107808, Note_on_c, 1, 63, 77
3, 107840, Note_on_c, 1, 54, 0
3, 107840, Note_on_c, 1, 60, 0
3, 107840, Note_on_c, 1, 63, 0
3, 107904, Note_on_c, 1, 54, 80
3, 107904, Note_on_c, 1, 60, 80
3, 107904, Note_on_c, 1, 63, 80
3, 107936, Note_on_c, 1, 54, 0
3, 107936, Note_on_c, 1, 60, 0
3, 107936, Note_on_c, 1, 63, 0
3, 108000, Note_on_c, 1, 54, 83
3, 108000, Note_on_c, 1, 60, 83
3, 108000, Note_on_c, 1, 63, 83
3, 108032, Note_on_c, 1, 54, 0
3, 108032, Note_on_c, 1, 60, 0
3, 108032, Note_on_c, 1, 63, 0
3, 108096, Note_on_c, 1, 54, 86
3, 108096, Note_on_c, 1, 60, 86
3, 108096, Note_on_c, 1, 63, 86
3, 108128, Note_on_c, 1, 54, 0
3, 108128, Note_on_c, 1, 60, 0
3, 108128, Note_on_c, 1, 63, 0
3, 108192, Note_on_c, 1, 54, 89
3, 108192, Note_on_c, 1, 60, 89
3, 108192, Note_on_c, 1, 63, 89
3, 108224, Note_on_c, 1, 54, 0
3, 108224, Note_on_c, 1, 60, 0
3, 108224, Note_on_c, 1, 63, 0
3, 108288, Note_on_c, 1, 55, 92
3, 108336, Note_on_c, 1, 55, 0
3, 108336, Note_on_c, 1, 64, 92
3, 108384, Note_on_c, 1, 64, 0
3, 108384, Note_on_c, 1, 60, 92
3, 108432, Note_on_c, 1, 60, 0
3, 108432, Note_on_c, 1, 64, 92
3, 108480, Note_on_c, 1, 64, 0
3, 108480, Note_on_c, 1, 55, 92
3, 108528, Note_on_c, 1, 55, 0
3, 108528, Note_on_c, 1, 64, 92
3, 108576, Note_on_c, 1, 64, 0
3, 108576, Note_on_c, 1, 60, 92
3, 108624, Note_on_c, 1, 60, 0
3, 108624, Note_on_c, 1, 64, 92
3, 108672, Note_on_c, 1, 64, 0
3, 108672, Note_on_c, 1, 55, 92
3, 108720, Note_on_c, 1, 55, 0
3, 108720, Note_on_c, 1, 64, 92
3, 108768, Note_on_c, 1, 64, 0
3, 108768, Note_on_c, 1, 60, 92
3, 108816, Note_on_c, 1, 60, 0
3, 108816, Note_on_c, 1, 64, 92
3, 108864, Note_on_c, 1, 64, 0
3, 108864, Note_on_c, 1, 55, 92
3, 108912, Note_on_c, 1, 55, 0
3, 108912, Note_on_c, 1, 64, 92
3, 108960, Note_on_c, 1, 64, 0
3, 108960, Note_on_c, 1, 60, 92
3, 109008, Note_on_c, 1, 60, 0
3, 109008, Note_on_c, 1, 64, 92
3, 109056, Note_on_c, 1, 64, 0
3, 109056, Note_on_c, 1, 55, 92
3, 109104, Note_on_c, 1, 55, 0
3, 109104, Note_on_c, 1, 65, 92
3, 109152, Note_on_c, 1, 65, 0
3, 109152, Note_on_c, 1, 59, 92
3, 109200, Note_on_c, 1, 59, 0
3, 109200, Note_on_c, 1, 65, 92
3, 109248, Note_on_c, 1, 65, 0
3, 109248, Note_on_c, 1, 55, 92
3, 109296, Note_on_c, 1, 55, 0
3, 109296, Note_on_c, 1, 65, 92
3, 109344, Note_on_c, 1, 65, 0
3, 109344, Note_on_c, 1, 59, 92
3, 109392, Note_on_c, 1, 59, 0
3, 109392, Note_on_c, 1, 65, 92
3, 109440, Note_on_c, 1, 65, 0
3, 109440, Note_on_c, 1, 55, 92
3, 109488, Note_on_c, 1, 55, 0
3, 109488, Note_on_c, 1, 65, 92
3, 109536, Note_on_c, 1, 65, 0
3, 109536, Note_on_c, 1, 59, 92
3, 109584, Note_on_c, 1, 59, 0
3, 109584, Note_on_c, 1, 65, 92
3, 109632, Note_on_c, 1, 65, 0
3, 109632, Note_on_c, 1, 55, 92
3, 109680, Note_on_c, 1, 55, 0
3, 109680, Note_on_c, 1, 65, 92
3, 109728, Note_on_c, 1, 65, 0
3, 109728, Note_on_c, 1, 59, 92
3, 109776, Note_on_c, 1, 59, 0
3, 109776, Note_on_c, 1, 65, 92
3, 109822, Note_on_c, 1, 65, 0
3, 109824, Note_on_c, 1, 60, 92
3, 109824, Note_on_c, 1, 64, 92
3, 109872, Note_on_c, 1, 60, 0
3, 109872, Note_on_c, 1, 64, 0
3, 110400, Note_on_c, 1, 55, 92
3, 110400, Note_on_c, 1, 62, 92
3, 110400, Note_on_c, 1, 65, 92
3, 110592, Note_on_c, 1, 55, 0
3, 110592, Note_on_c, 1, 62, 0
3, 110592, Note_on_c, 1, 65, 0
3, 110592, Note_on_c, 1, 60, 92
3, 110592, Note_on_c, 1, 64, 92
3, 110640, Note_on_c, 1, 60, 0
3, 110640, Note_on_c, 1, 64, 0
3, 111168, Note_on_c, 1, 43, 92
3, 111168, Note_on_c, 1, 50, 92
3, 111168, Note_on_c, 1, 53, 92
3, 111360, Note_on_c, 1, 43, 0
3, 111360, Note_on_c, 1, 50, 0
3, 111360, Note_on_c, 1, 53, 0
3, 111360, Note_on_c, 1, 48, 92
3, 111360, Note_on_c, 1, 52, 92
3, 111408, Note_on_c, 1, 48, 0
3, 111408, Note_on_c, 1, 52, 0
3, 111552, Note_on_c, 1, 48, 92
3, 111552, Note_on_c, 1, 60, 92
3, 111600, Note_on_c, 1, 48, 0
3, 111600, Note_on_c, 1, 60, 0
3, 111744, Note_on_c, 1, 36, 92
3, 111744, Note_on_c, 1, 48, 92
3, 111792, Note_on_c, 1, 36, 0
3, 111792, Note_on_c, 1, 48, 0
3, 111792, End_track
0, 0, End_of_file
