0, 0, Header, 0, 1, 96
1, 0, Start_track
1, 0, Tempo, 400000
1, 0, Note_on_c, 0, 71, 48
1, 23, Note_on_c, 0, 71, 0
1, 24, Note_on_c, 0, 69, 48
1, 47, Note_on_c, 0, 69, 0
1, 48, Note_on_c, 0, 68, 48
1, 71, Note_on_c, 0, 68, 0
1, 72, Note_on_c, 0, 69, 48
1, 95, Note_on_c, 0, 69, 0
1, 96, Note_on_c, 0, 72, 48
1, 96, Note_on_c, 1, 57, 48
1, 135, Note_on_c, 0, 72, 0
1, 141, Note_on_c, 1, 57, 0
1, 144, Note_on_c, 1, 64, 48
1, 144, Note_on_c, 1, 60, 48
1, 164, Note_on_c, 1, 64, 0
1, 164, Note_on_c, 1, 60, 0
1, 192, Note_on_c, 0, 74, 48
1, 192, Note_on_c, 1, 64, 48
1, 192, Note_on_c, 1, 60, 48
1, 212, Note_on_c, 1, 64, 0
1, 212, Note_on_c, 1, 60, 0
1, 215, Note_on_c, 0, 74, 0
1, 216, Note_on_c, 0, 72, 48
1, 239, Note_on_c, 0, 72, 0
1, 240, Note_on_c, 0, 71, 48
1, 240, Note_on_c, 1, 64, 48
1, 240, Note_on_c, 1, 60, 48
1, 260, Note_on_c, 1, 64, 0
1, 260, Note_on_c, 1, 60, 0
1, 263, Note_on_c, 0, 71, 0
1, 264, Note_on_c, 0, 72, 48
1, 287, Note_on_c, 0, 72, 0
1, 288, Note_on_c, 0, 76, 48
1, 288, Note_on_c, 1, 57, 48
1, 327, Note_on_c, 0, 76, 0
1, 333, Note_on_c, 1, 57, 0
1, 336, Note_on_c, 1, 64, 48
1, 336, Note_on_c, 1, 60, 48
1, 356, Note_on_c, 1, 64, 0
1, 356, Note_on_c, 1, 60, 0
1, 384, Note_on_c, 0, 77, 48
1, 384, Note_on_c, 1, 64, 48
1, 384, Note_on_c, 1, 60, 48
1, 404, Note_on_c, 1, 64, 0
1, 404, Note_on_c, 1, 60, 0
1, 407, Note_on_c, 0, 77, 0
1, 408, Note_on_c, 0, 76, 48
1, 431, Note_on_c, 0, 76, 0
1, 432, Note_on_c, 0, 75, 48
1, 432, Note_on_c, 1, 64, 48
1, 432, Note_on_c, 1, 60, 48
1, 452, Note_on_c, 1, 64, 0
1, 452, Note_on_c, 1, 60, 0
1, 455, Note_on_c, 0, 75, 0
1, 456, Note_on_c, 0, 76, 48
1, 479, Note_on_c, 0, 76, 0
1, 480, Note_on_c, 0, 83, 48
1, 480, Note_on_c, 1, 57, 48
1, 503, Note_on_c, 0, 83, 0
1, 504, Note_on_c, 0, 81, 48
1, 525, Note_on_c, 1, 57, 0
1, 527, Note_on_c, 0, 81, 0
1, 528, Note_on_c, 0, 80, 48
1, 528, Note_on_c, 1, 64, 48
1, 528, Note_on_c, 1, 60, 48
1, 548, Note_on_c, 1, 64, 0
1, 548, Note_on_c, 1, 60, 0
1, 551, Note_on_c, 0, 80, 0
1, 552, Note_on_c, 0, 81, 48
1, 575, Note_on_c, 0, 81, 0
1, 576, Note_on_c, 0, 83, 48
1, 576, Note_on_c, 1, 57, 48
1, 599, Note_on_c, 0, 83, 0
1, 600, Note_on_c, 0, 81, 48
1, 621, Note_on_c, 1, 57, 0
1, 623, Note_on_c, 0, 81, 0
1, 624, Note_on_c, 0, 80, 48
1, 624, Note_on_c, 1, 64, 48
1, 624, Note_on_c, 1, 60, 48
1, 644, Note_on_c, 1, 64, 0
1, 644, Note_on_c, 1, 60, 0
1, 647, Note_on_c, 0, 80, 0
1, 648, Note_on_c, 0, 81, 48
1, 671, Note_on_c, 0, 81, 0
1, 672, Note_on_c, 0, 84, 48
1, 672, Note_on_c, 1, 57, 48
1, 717, Note_on_c, 1, 57, 0
1, 720, Note_on_c, 1, 64, 48
1, 720, Note_on_c, 1, 60, 48
1, 740, Note_on_c, 1, 64, 0
1, 740, Note_on_c, 1, 60, 0
1, 761, Note_on_c, 0, 84, 0
1, 768, Note_on_c, 0, 81, 48
1, 768, Note_on_c, 1, 64, 48
1, 768, Note_on_c, 1, 60, 48
1, 788, Note_on_c, 1, 64, 0
1, 788, Note_on_c, 1, 60, 0
1, 813, Note_on_c, 0, 81, 0
1, 816, Note_on_c, 0, 84, 48
1, 816, Note_on_c, 1, 64, 48
1, 816, Note_on_c, 1, 60, 48
1, 836, Note_on_c, 1, 64, 0
1, 836, Note_on_c, 1, 60, 0
1, 861, Note_on_c, 0, 84, 0
1, 864, Note_on_c, 0, 79, 48
1, 864, Note_on_c, 1, 52, 48
1, 870, Note_on_c, 0, 79, 0
1, 870, Note_on_c, 0, 81, 48
1, 876, Note_on_c, 0, 81, 0
1, 876, Note_on_c, 0, 83, 48
1, 909, Note_on_c, 0, 83, 0
1, 909, Note_on_c, 1, 52, 0
1, 912, Note_on_c, 0, 81, 48
1, 912, Note_on_c, 0, 78, 48
1, 912, Note_on_c, 1, 64, 48
1, 912, Note_on_c, 1, 59, 48
1, 932, Note_on_c, 1, 64, 0
1, 932, Note_on_c, 1, 59, 0
1, 957, Note_on_c, 0, 81, 0
1, 957, Note_on_c, 0, 78, 0
1, 960, Note_on_c, 0, 79, 48
1, 960, Note_on_c, 0, 76, 48
1, 960, Note_on_c, 1, 64, 48
1, 960, Note_on_c, 1, 59, 48
1, 980, Note_on_c, 1, 64, 0
1, 980, Note_on_c, 1, 59, 0
1, 1005, Note_on_c, 0, 79, 0
1, 1005, Note_on_c, 0, 76, 0
1, 1008, Note_on_c, 0, 81, 48
1, 1008, Note_on_c, 0, 78, 48
1, 1008, Note_on_c, 1, 64, 48
1, 1008, Note_on_c, 1, 59, 48
1, 1028, Note_on_c, 1, 64, 0
1, 1028, Note_on_c, 1, 59, 0
1, 1053, Note_on_c, 0, 81, 0
1, 1053, Note_on_c, 0, 78, 0
1, 1056, Note_on_c, 0, 79, 48
1, 1056, Note_on_c, 1, 52, 48
1, 1062, Note_on_c, 0, 79, 0
1, 1062, Note_on_c, 0, 81, 48
1, 1068, Note_on_c, 0, 81, 0
1, 1068, Note_on_c, 0, 83, 48
1, 1101, Note_on_c, 0, 83, 0
1, 1101, Note_on_c, 1, 52, 0
1, 1104, Note_on_c, 0, 81, 48
1, 1104, Note_on_c, 0, 78, 48
1, 1104, Note_on_c, 1, 64, 48
1, 1104, Note_on_c, 1, 59, 48
1, 1124, Note_on_c, 1, 64, 0
1, 1124, Note_on_c, 1, 59, 0
1, 1149, Note_on_c, 0, 81, 0
1, 1149, Note_on_c, 0, 78, 0
1, 1152, Note_on_c, 0, 79, 48
1, 1152, Note_on_c, 0, 76, 48
1, 1152, Note_on_c, 1, 64, 48
1, 1152, Note_on_c, 1, 59, 48
1, 1172, Note_on_c, 1, 64, 0
1, 1172, Note_on_c, 1, 59, 0
1, 1197, Note_on_c, 0, 79, 0
1, 1197, Note_on_c, 0, 76, 0
1, 1200, Note_on_c, 0, 81, 48
1, 1200, Note_on_c, 0, 78, 48
1, 1200, Note_on_c, 1, 64, 48
1, 1200, Note_on_c, 1, 59, 48
1, 1220, Note_on_c, 1, 64, 0
1, 1220, Note_on_c, 1, 59, 0
1, 1245, Note_on_c, 0, 81, 0
1, 1245, Note_on_c, 0, 78, 0
1, 1248, Note_on_c, 0, 79, 48
1, 1248, Note_on_c, 1, 52, 48
1, 1254, Note_on_c, 0, 79, 0
1, 1254, Note_on_c, 0, 81, 48
1, 1260, Note_on_c, 0, 81, 0
1, 1260, Note_on_c, 0, 83, 48
1, 1293, Note_on_c, 0, 83, 0
1, 1293, Note_on_c, 1, 52, 0
1, 1296, Note_on_c, 0, 81, 48
1, 1296, Note_on_c, 0, 78, 48
1, 1296, Note_on_c, 1, 64, 48
1, 1296, Note_on_c, 1, 59, 48
1, 1316, Note_on_c, 1, 64, 0
1, 1316, Note_on_c, 1, 59, 0
1, 1341, Note_on_c, 0, 81, 0
1, 1341, Note_on_c, 0, 78, 0
1, 1344, Note_on_c, 0, 79, 48
1, 1344, Note_on_c, 0, 76, 48
1, 1344, Note_on_c, 1, 47, 48
1, 1389, Note_on_c, 0, 79, 0
1, 1389, Note_on_c, 0, 76, 0
1, 1389, Note_on_c, 1, 47, 0
1, 1392, Note_on_c, 0, 78, 48
1, 1392, Note_on_c, 0, 75, 48
1, 1392, Note_on_c, 1, 59, 48
1, 1412, Note_on_c, 1, 59, 0
1, 1437, Note_on_c, 0, 78, 0
1, 1437, Note_on_c, 0, 75, 0
1, 1440, Note_on_c, 0, 76, 48
1, 1440, Note_on_c, 1, 52, 48
1, 1529, Note_on_c, 0, 76, 0
1, 1529, Note_on_c, 1, 52, 0
1, 1536, Note_on_c, 0, 71, 48
1, 1559, Note_on_c, 0, 71, 0
1, 1560, Note_on_c, 0, 69, 48
1, 1583, Note_on_c, 0, 69, 0
1, 1584, Note_on_c, 0, 68, 48
1, 1607, Note_on_c, 0, 68, 0
1, 1608, Note_on_c, 0, 69, 48
1, 1631, Note_on_c, 0, 69, 0
1, 1632, Note_on_c, 0, 72, 48
1, 1632, Note_on_c, 1, 57, 48
1, 1671, Note_on_c, 0, 72, 0
1, 1677, Note_on_c, 1, 57, 0
1, 1680, Note_on_c, 1, 64, 48
1, 1680, Note_on_c, 1, 60, 48
1, 1700, Note_on_c, 1, 64, 0
1, 1700, Note_on_c, 1, 60, 0
1, 1728, Note_on_c, 0, 74, 48
1, 1728, Note_on_c, 1, 64, 48
1, 1728, Note_on_c, 1, 60, 48
1, 1748, Note_on_c, 1, 64, 0
1, 1748, Note_on_c, 1, 60, 0
1, 1751, Note_on_c, 0, 74, 0
1, 1752, Note_on_c, 0, 72, 48
1, 1775, Note_on_c, 0, 72, 0
1, 1776, Note_on_c, 0, 71, 48
1, 1776, Note_on_c, 1, 64, 48
1, 1776, Note_on_c, 1, 60, 48
1, 1796, Note_on_c, 1, 64, 0
1, 1796, Note_on_c, 1, 60, 0
1, 1799, Note_on_c, 0, 71, 0
1, 1800, Note_on_c, 0, 72, 48
1, 1823, Note_on_c, 0, 72, 0
1, 1824, Note_on_c, 0, 76, 48
1, 1824, Note_on_c, 1, 57, 48
1, 1863, Note_on_c, 0, 76, 0
1, 1869, Note_on_c, 1, 57, 0
1, 1872, Note_on_c, 1, 64, 48
1, 1872, Note_on_c, 1, 60, 48
1, 1892, Note_on_c, 1, 64, 0
1, 1892, Note_on_c, 1, 60, 0
1, 1920, Note_on_c, 0, 77, 48
1, 1920, Note_on_c, 1, 64, 48
1, 1920, Note_on_c, 1, 60, 48
1, 1940, Note_on_c, 1, 64, 0
1, 1940, Note_on_c, 1, 60, 0
1, 1943, Note_on_c, 0, 77, 0
1, 1944, Note_on_c, 0, 76, 48
1, 1967, Note_on_c, 0, 76, 0
1, 1968, Note_on_c, 0, 75, 48
1, 1968, Note_on_c, 1, 64, 48
1, 1968, Note_on_c, 1, 60, 48
1, 1988, Note_on_c, 1, 64, 0
1, 1988, Note_on_c, 1, 60, 0
1, 1991, Note_on_c, 0, 75, 0
1, 1992, Note_on_c, 0, 76, 48
1, 2015, Note_on_c, 0, 76, 0
1, 2016, Note_on_c, 0, 83, 48
1, 2016, Note_on_c, 1, 57, 48
1, 2039, Note_on_c, 0, 83, 0
1, 2040, Note_on_c, 0, 81, 48
1, 2061, Note_on_c, 1, 57, 0
1, 2063, Note_on_c, 0, 81, 0
1, 2064, Note_on_c, 0, 80, 48
1, 2064, Note_on_c, 1, 64, 48
1, 2064, Note_on_c, 1, 60, 48
1, 2084, Note_on_c, 1, 64, 0
1, 2084, Note_on_c, 1, 60, 0
1, 2087, Note_on_c, 0, 80, 0
1, 2088, Note_on_c, 0, 81, 48
1, 2111, Note_on_c, 0, 81, 0
1, 2112, Note_on_c, 0, 83, 48
1, 2112, Note_on_c, 1, 57, 48
1, 2135, Note_on_c, 0, 83, 0
1, 2136, Note_on_c, 0, 81, 48
1, 2157, Note_on_c, 1, 57, 0
1, 2159, Note_on_c, 0, 81, 0
1, 2160, Note_on_c, 0, 80, 48
1, 2160, Note_on_c, 1, 64, 48
1, 2160, Note_on_c, 1, 60, 48
1, 2180, Note_on_c, 1, 64, 0
1, 2180, Note_on_c, 1, 60, 0
1, 2183, Note_on_c, 0, 80, 0
1, 2184, Note_on_c, 0, 81, 48
1, 2207, Note_on_c, 0, 81, 0
1, 2208, Note_on_c, 0, 84, 48
1, 2208, Note_on_c, 1, 57, 48
1, 2253, Note_on_c, 1, 57, 0
1, 2256, Note_on_c, 1, 64, 48
1, 2256, Note_on_c, 1, 60, 48
1, 2276, Note_on_c, 1, 64, 0
1, 2276, Note_on_c, 1, 60, 0
1, 2297, Note_on_c, 0, 84, 0
1, 2304, Note_on_c, 0, 81, 48
1, 2304, Note_on_c, 1, 64, 48
1, 2304, Note_on_c, 1, 60, 48
1, 2324, Note_on_c, 1, 64, 0
1, 2324, Note_on_c, 1, 60, 0
1, 2349, Note_on_c, 0, 81, 0
1, 2352, Note_on_c, 0, 84, 48
1, 2352, Note_on_c, 1, 64, 48
1, 2352, Note_on_c, 1, 60, 48
1, 2372, Note_on_c, 1, 64, 0
1, 2372, Note_on_c, 1, 60, 0
1, 2397, Note_on_c, 0, 84, 0
1, 2400, Note_on_c, 0, 79, 48
1, 2400, Note_on_c, 1, 52, 48
1, 2406, Note_on_c, 0, 79, 0
1, 2406, Note_on_c, 0, 81, 48
1, 2412, Note_on_c, 0, 81, 0
1, 2412, Note_on_c, 0, 83, 48
1, 2445, Note_on_c, 0, 83, 0
1, 2445, Note_on_c, 1, 52, 0
1, 2448, Note_on_c, 0, 81, 48
1, 2448, Note_on_c, 0, 78, 48
1, 2448, Note_on_c, 1, 64, 48
1, 2448, Note_on_c, 1, 59, 48
1, 2468, Note_on_c, 1, 64, 0
1, 2468, Note_on_c, 1, 59, 0
1, 2493, Note_on_c, 0, 81, 0
1, 2493, Note_on_c, 0, 78, 0
1, 2496, Note_on_c, 0, 79, 48
1, 2496, Note_on_c, 0, 76, 48
1, 2496, Note_on_c, 1, 64, 48
1, 2496, Note_on_c, 1, 59, 48
1, 2516, Note_on_c, 1, 64, 0
1, 2516, Note_on_c, 1, 59, 0
1, 2541, Note_on_c, 0, 79, 0
1, 2541, Note_on_c, 0, 76, 0
1, 2544, Note_on_c, 0, 81, 48
1, 2544, Note_on_c, 0, 78, 48
1, 2544, Note_on_c, 1, 64, 48
1, 2544, Note_on_c, 1, 59, 48
1, 2564, Note_on_c, 1, 64, 0
1, 2564, Note_on_c, 1, 59, 0
1, 2589, Note_on_c, 0, 81, 0
1, 2589, Note_on_c, 0, 78, 0
1, 2592, Note_on_c, 0, 79, 48
1, 2592, Note_on_c, 1, 52, 48
1, 2598, Note_on_c, 0, 79, 0
1, 2598, Note_on_c, 0, 81, 48
1, 2604, Note_on_c, 0, 81, 0
1, 2604, Note_on_c, 0, 83, 48
1, 2637, Note_on_c, 0, 83, 0
1, 2637, Note_on_c, 1, 52, 0
1, 2640, Note_on_c, 0, 81, 48
1, 2640, Note_on_c, 0, 78, 48
1, 2640, Note_on_c, 1, 64, 48
1, 2640, Note_on_c, 1, 59, 48
1, 2660, Note_on_c, 1, 64, 0
1, 2660, Note_on_c, 1, 59, 0
1, 2685, Note_on_c, 0, 81, 0
1, 2685, Note_on_c, 0, 78, 0
1, 2688, Note_on_c, 0, 79, 48
1, 2688, Note_on_c, 0, 76, 48
1, 2688, Note_on_c, 1, 64, 48
1, 2688, Note_on_c, 1, 59, 48
1, 2708, Note_on_c, 1, 64, 0
1, 2708, Note_on_c, 1, 59, 0
1, 2733, Note_on_c, 0, 79, 0
1, 2733, Note_on_c, 0, 76, 0
1, 2736, Note_on_c, 0, 81, 48
1, 2736, Note_on_c, 0, 78, 48
1, 2736, Note_on_c, 1, 64, 48
1, 2736, Note_on_c, 1, 59, 48
1, 2756, Note_on_c, 1, 64, 0
1, 2756, Note_on_c, 1, 59, 0
1, 2781, Note_on_c, 0, 81, 0
1, 2781, Note_on_c, 0, 78, 0
1, 2784, Note_on_c, 0, 79, 48
1, 2784, Note_on_c, 1, 52, 48
1, 2790, Note_on_c, 0, 79, 0
1, 2790, Note_on_c, 0, 81, 48
1, 2796, Note_on_c, 0, 81, 0
1, 2796, Note_on_c, 0, 83, 48
1, 2829, Note_on_c, 0, 83, 0
1, 2829, Note_on_c, 1, 52, 0
1, 2832, Note_on_c, 0, 81, 48
1, 2832, Note_on_c, 0, 78, 48
1, 2832, Note_on_c, 1, 64, 48
1, 2832, Note_on_c, 1, 59, 48
1, 2852, Note_on_c, 1, 64, 0
1, 2852, Note_on_c, 1, 59, 0
1, 2877, Note_on_c, 0, 81, 0
1, 2877, Note_on_c, 0, 78, 0
1, 2880, Note_on_c, 0, 79, 48
1, 2880, Note_on_c, 0, 76, 48
1, 2880, Note_on_c, 1, 47, 48
1, 2925, Note_on_c, 0, 79, 0
1, 2925, Note_on_c, 0, 76, 0
1, 2925, Note_on_c, 1, 47, 0
1, 2928, Note_on_c, 0, 78, 48
1, 2928, Note_on_c, 0, 75, 48
1, 2928, Note_on_c, 1, 59, 48
1, 2948, Note_on_c, 1, 59, 0
1, 2973, Note_on_c, 0, 78, 0
1, 2973, Note_on_c, 0, 75, 0
1, 2976, Note_on_c, 0, 76, 48
1, 2976, Note_on_c, 1, 52, 48
1, 3065, Note_on_c, 0, 76, 0
1, 3065, Note_on_c, 1, 52, 0
1, 3072, Note_on_c, 0, 76, 71
1, 3072, Note_on_c, 0, 72, 71
1, 3092, Note_on_c, 0, 76, 0
1, 3092, Note_on_c, 0, 72, 0
1, 3120, Note_on_c, 0, 77, 71
1, 3120, Note_on_c, 0, 74, 71
1, 3140, Note_on_c, 0, 77, 0
1, 3140, Note_on_c, 0, 74, 0
1, 3168, Note_on_c, 0, 79, 71
1, 3168, Note_on_c, 0, 76, 71
1, 3168, Note_on_c, 1, 48, 71
1, 3188, Note_on_c, 0, 79, 0
1, 3188, Note_on_c, 0, 76, 0
1, 3213, Note_on_c, 1, 48, 0
1, 3216, Note_on_c, 0, 79, 71
1, 3216, Note_on_c, 0, 76, 71
1, 3216, Note_on_c, 1, 60, 71
1, 3236, Note_on_c, 0, 79, 0
1, 3236, Note_on_c, 0, 76, 0
1, 3261, Note_on_c, 1, 60, 0
1, 3264, Note_on_c, 0, 81, 71
1, 3264, Note_on_c, 1, 52, 71
1, 3287, Note_on_c, 0, 81, 0
1, 3288, Note_on_c, 0, 79, 71
1, 3309, Note_on_c, 1, 52, 0
1, 3311, Note_on_c, 0, 79, 0
1, 3312, Note_on_c, 0, 77, 71
1, 3312, Note_on_c, 1, 64, 71
1, 3335, Note_on_c, 0, 77, 0
1, 3336, Note_on_c, 0, 76, 71
1, 3357, Note_on_c, 1, 64, 0
1, 3359, Note_on_c, 0, 76, 0
1, 3360, Note_on_c, 0, 74, 71
1, 3360, Note_on_c, 0, 71, 71
1, 3360, Note_on_c, 1, 55, 71
1, 3405, Note_on_c, 0, 71, 0
1, 3408, Note_on_c, 0, 67, 71
1, 3449, Note_on_c, 0, 74, 0
1, 3449, Note_on_c, 1, 55, 0
1, 3453, Note_on_c, 0, 67, 0
1, 3456, Note_on_c, 0, 76, 71
1, 3456, Note_on_c, 0, 72, 71
1, 3476, Note_on_c, 0, 76, 0
1, 3476, Note_on_c, 0, 72, 0
1, 3504, Note_on_c, 0, 77, 71
1, 3504, Note_on_c, 0, 74, 71
1, 3524, Note_on_c, 0, 77, 0
1, 3524, Note_on_c, 0, 74, 0
1, 3552, Note_on_c, 0, 79, 71
1, 3552, Note_on_c, 0, 76, 71
1, 3552, Note_on_c, 1, 48, 71
1, 3572, Note_on_c, 0, 79, 0
1, 3572, Note_on_c, 0, 76, 0
1, 3597, Note_on_c, 1, 48, 0
1, 3600, Note_on_c, 0, 79, 71
1, 3600, Note_on_c, 0, 76, 71
1, 3600, Note_on_c, 1, 60, 71
1, 3620, Note_on_c, 0, 79, 0
1, 3620, Note_on_c, 0, 76, 0
1, 3645, Note_on_c, 1, 60, 0
1, 3648, Note_on_c, 0, 81, 71
1, 3648, Note_on_c, 1, 52, 71
1, 3671, Note_on_c, 0, 81, 0
1, 3672, Note_on_c, 0, 79, 71
1, 3693, Note_on_c, 1, 52, 0
1, 3695, Note_on_c, 0, 79, 0
1, 3696, Note_on_c, 0, 77, 71
1, 3696, Note_on_c, 1, 64, 71
1, 3719, Note_on_c, 0, 77, 0
1, 3720, Note_on_c, 0, 76, 71
1, 3741, Note_on_c, 1, 64, 0
1, 3743, Note_on_c, 0, 76, 0
1, 3744, Note_on_c, 0, 74, 71
1, 3744, Note_on_c, 0, 71, 71
1, 3744, Note_on_c, 1, 55, 71
1, 3833, Note_on_c, 0, 74, 0
1, 3833, Note_on_c, 0, 71, 0
1, 3833, Note_on_c, 1, 55, 0
1, 3840, Note_on_c, 0, 72, 71
1, 3840, Note_on_c, 0, 69, 71
1, 3860, Note_on_c, 0, 72, 0
1, 3860, Note_on_c, 0, 69, 0
1, 3888, Note_on_c, 0, 74, 71
1, 3888, Note_on_c, 0, 71, 71
1, 3908, Note_on_c, 0, 74, 0
1, 3908, Note_on_c, 0, 71, 0
1, 3936, Note_on_c, 0, 76, 71
1, 3936, Note_on_c, 0, 72, 71
1, 3936, Note_on_c, 1, 45, 71
1, 3956, Note_on_c, 0, 76, 0
1, 3956, Note_on_c, 0, 72, 0
1, 3981, Note_on_c, 1, 45, 0
1, 3984, Note_on_c, 0, 76, 71
1, 3984, Note_on_c, 0, 72, 71
1, 3984, Note_on_c, 1, 57, 71
1, 4004, Note_on_c, 0, 76, 0
1, 4004, Note_on_c, 0, 72, 0
1, 4029, Note_on_c, 1, 57, 0
1, 4032, Note_on_c, 0, 77, 71
1, 4032, Note_on_c, 1, 48, 71
1, 4055, Note_on_c, 0, 77, 0
1, 4056, Note_on_c, 0, 76, 71
1, 4077, Note_on_c, 1, 48, 0
1, 4079, Note_on_c, 0, 76, 0
1, 4080, Note_on_c, 0, 74, 71
1, 4080, Note_on_c, 1, 60, 71
1, 4103, Note_on_c, 0, 74, 0
1, 4104, Note_on_c, 0, 72, 71
1, 4125, Note_on_c, 1, 60, 0
1, 4127, Note_on_c, 0, 72, 0
1, 4128, Note_on_c, 0, 71, 71
1, 4128, Note_on_c, 0, 68, 71
1, 4128, Note_on_c, 1, 52, 71
1, 4173, Note_on_c, 0, 68, 0
1, 4176, Note_on_c, 0, 64, 71
1, 4217, Note_on_c, 0, 71, 0
1, 4217, Note_on_c, 1, 52, 0
1, 4221, Note_on_c, 0, 64, 0
1, 4224, Note_on_c, 0, 72, 71
1, 4224, Note_on_c, 0, 69, 71
1, 4244, Note_on_c, 0, 72, 0
1, 4244, Note_on_c, 0, 69, 0
1, 4272, Note_on_c, 0, 74, 71
1, 4272, Note_on_c, 0, 71, 71
1, 4292, Note_on_c, 0, 74, 0
1, 4292, Note_on_c, 0, 71, 0
1, 4320, Note_on_c, 0, 76, 71
1, 4320, Note_on_c, 0, 72, 71
1, 4320, Note_on_c, 1, 45, 71
1, 4340, Note_on_c, 0, 76, 0
1, 4340, Note_on_c, 0, 72, 0
1, 4365, Note_on_c, 1, 45, 0
1, 4368, Note_on_c, 0, 76, 71
1, 4368, Note_on_c, 0, 72, 71
1, 4368, Note_on_c, 1, 57, 71
1, 4388, Note_on_c, 0, 76, 0
1, 4388, Note_on_c, 0, 72, 0
1, 4413, Note_on_c, 1, 57, 0
1, 4416, Note_on_c, 0, 77, 71
1, 4416, Note_on_c, 1, 48, 71
1, 4439, Note_on_c, 0, 77, 0
1, 4440, Note_on_c, 0, 76, 71
1, 4461, Note_on_c, 1, 48, 0
1, 4463, Note_on_c, 0, 76, 0
1, 4464, Note_on_c, 0, 74, 71
1, 4464, Note_on_c, 1, 60, 71
1, 4487, Note_on_c, 0, 74, 0
1, 4488, Note_on_c, 0, 72, 71
1, 4509, Note_on_c, 1, 60, 0
1, 4511, Note_on_c, 0, 72, 0
1, 4512, Note_on_c, 0, 71, 71
1, 4512, Note_on_c, 0, 68, 71
1, 4512, Note_on_c, 1, 52, 71
1, 4601, Note_on_c, 0, 71, 0
1, 4601, Note_on_c, 0, 68, 0
1, 4601, Note_on_c, 1, 52, 0
1, 4608, Note_on_c, 0, 71, 48
1, 4631, Note_on_c, 0, 71, 0
1, 4632, Note_on_c, 0, 69, 48
1, 4655, Note_on_c, 0, 69, 0
1, 4656, Note_on_c, 0, 68, 48
1, 4679, Note_on_c, 0, 68, 0
1, 4680, Note_on_c, 0, 69, 48
1, 4703, Note_on_c, 0, 69, 0
1, 4704, Note_on_c, 0, 72, 48
1, 4704, Note_on_c, 1, 57, 48
1, 4743, Note_on_c, 0, 72, 0
1, 4749, Note_on_c, 1, 57, 0
1, 4752, Note_on_c, 1, 64, 48
1, 4752, Note_on_c, 1, 60, 48
1, 4772, Note_on_c, 1, 64, 0
1, 4772, Note_on_c, 1, 60, 0
1, 4800, Note_on_c, 0, 74, 48
1, 4800, Note_on_c, 1, 64, 48
1, 4800, Note_on_c, 1, 60, 48
1, 4820, Note_on_c, 1, 64, 0
1, 4820, Note_on_c, 1, 60, 0
1, 4823, Note_on_c, 0, 74, 0
1, 4824, Note_on_c, 0, 72, 48
1, 4847, Note_on_c, 0, 72, 0
1, 4848, Note_on_c, 0, 71, 48
1, 4848, Note_on_c, 1, 64, 48
1, 4848, Note_on_c, 1, 60, 48
1, 4868, Note_on_c, 1, 64, 0
1, 4868, Note_on_c, 1, 60, 0
1, 4871, Note_on_c, 0, 71, 0
1, 4872, Note_on_c, 0, 72, 48
1, 4895, Note_on_c, 0, 72, 0
1, 4896, Note_on_c, 0, 76, 48
1, 4896, Note_on_c, 1, 57, 48
1, 4935, Note_on_c, 0, 76, 0
1, 4941, Note_on_c, 1, 57, 0
1, 4944, Note_on_c, 1, 64, 48
1, 4944, Note_on_c, 1, 60, 48
1, 4964, Note_on_c, 1, 64, 0
1, 4964, Note_on_c, 1, 60, 0
1, 4992, Note_on_c, 0, 77, 48
1, 4992, Note_on_c, 1, 64, 48
1, 4992, Note_on_c, 1, 60, 48
1, 5012, Note_on_c, 1, 64, 0
1, 5012, Note_on_c, 1, 60, 0
1, 5015, Note_on_c, 0, 77, 0
1, 5016, Note_on_c, 0, 76, 48
1, 5039, Note_on_c, 0, 76, 0
1, 5040, Note_on_c, 0, 75, 48
1, 5040, Note_on_c, 1, 64, 48
1, 5040, Note_on_c, 1, 60, 48
1, 5060, Note_on_c, 1, 64, 0
1, 5060, Note_on_c, 1, 60, 0
1, 5063, Note_on_c, 0, 75, 0
1, 5064, Note_on_c, 0, 76, 48
1, 5087, Note_on_c, 0, 76, 0
1, 5088, Note_on_c, 0, 83, 48
1, 5088, Note_on_c, 1, 57, 48
1, 5111, Note_on_c, 0, 83, 0
1, 5112, Note_on_c, 0, 81, 48
1, 5133, Note_on_c, 1, 57, 0
1, 5135, Note_on_c, 0, 81, 0
1, 5136, Note_on_c, 0, 80, 48
1, 5136, Note_on_c, 1, 64, 48
1, 5136, Note_on_c, 1, 60, 48
1, 5156, Note_on_c, 1, 64, 0
1, 5156, Note_on_c, 1, 60, 0
1, 5159, Note_on_c, 0, 80, 0
1, 5160, Note_on_c, 0, 81, 48
1, 5183, Note_on_c, 0, 81, 0
1, 5184, Note_on_c, 0, 83, 48
1, 5184, Note_on_c, 1, 57, 48
1, 5207, Note_on_c, 0, 83, 0
1, 5208, Note_on_c, 0, 81, 48
1, 5229, Note_on_c, 1, 57, 0
1, 5231, Note_on_c, 0, 81, 0
1, 5232, Note_on_c, 0, 80, 48
1, 5232, Note_on_c, 1, 64, 48
1, 5232, Note_on_c, 1, 60, 48
1, 5252, Note_on_c, 1, 64, 0
1, 5252, Note_on_c, 1, 60, 0
1, 5255, Note_on_c, 0, 80, 0
1, 5256, Note_on_c, 0, 81, 48
1, 5279, Note_on_c, 0, 81, 0
1, 5280, Note_on_c, 0, 84, 48
1, 5280, Note_on_c, 1, 53, 48
1, 5325, Note_on_c, 1, 53, 0
1, 5328, Note_on_c, 1, 63, 48
1, 5328, Note_on_c, 1, 57, 48
1, 5348, Note_on_c, 1, 63, 0
1, 5348, Note_on_c, 1, 57, 0
1, 5369, Note_on_c, 0, 84, 0
1, 5376, Note_on_c, 0, 81, 48
1, 5376, Note_on_c, 1, 63, 48
1, 5376, Note_on_c, 1, 57, 48
1, 5396, Note_on_c, 1, 63, 0
1, 5396, Note_on_c, 1, 57, 0
1, 5421, Note_on_c, 0, 81, 0
1, 5424, Note_on_c, 0, 83, 48
1, 5424, Note_on_c, 1, 63, 48
1, 5424, Note_on_c, 1, 57, 48
1, 5444, Note_on_c, 1, 63, 0
1, 5444, Note_on_c, 1, 57, 0
1, 5469, Note_on_c, 0, 83, 0
1, 5472, Note_on_c, 0, 81, 48
1, 5472, Note_on_c, 1, 52, 48
1, 5478, Note_on_c, 0, 81, 0
1, 5478, Note_on_c, 0, 83, 48
1, 5484, Note_on_c, 0, 83, 0
1, 5484, Note_on_c, 0, 84, 48
1, 5517, Note_on_c, 0, 84, 0
1, 5517, Note_on_c, 1, 52, 0
1, 5520, Note_on_c, 0, 83, 48
1, 5520, Note_on_c, 1, 64, 48
1, 5520, Note_on_c, 1, 57, 48
1, 5565, Note_on_c, 0, 83, 0
1, 5565, Note_on_c, 1, 64, 0
1, 5565, Note_on_c, 1, 57, 0
1, 5568, Note_on_c, 0, 81, 48
1, 5568, Note_on_c, 1, 50, 48
1, 5613, Note_on_c, 0, 81, 0
1, 5613, Note_on_c, 1, 50, 0
1, 5616, Note_on_c, 0, 80, 48
1, 5616, Note_on_c, 1, 59, 48
1, 5616, Note_on_c, 1, 53, 48
1, 5661, Note_on_c, 0, 80, 0
1, 5661, Note_on_c, 1, 59, 0
1, 5661, Note_on_c, 1, 53, 0
1, 5664, Note_on_c, 0, 81, 48
1, 5664, Note_on_c, 1, 48, 48
1, 5676, Note_on_c, 0, 81, 0
1, 5676, Note_on_c, 0, 83, 48
1, 5688, Note_on_c, 0, 83, 0
1, 5688, Note_on_c, 0, 81, 48
1, 5709, Note_on_c, 0, 81, 0
1, 5709, Note_on_c, 1, 48, 0
1, 5712, Note_on_c, 0, 76, 48
1, 5712, Note_on_c, 1, 57, 48
1, 5712, Note_on_c, 1, 52, 48
1, 5757, Note_on_c, 0, 76, 0
1, 5757, Note_on_c, 1, 57, 0
1, 5757, Note_on_c, 1, 52, 0
1, 5760, Note_on_c, 0, 77, 48
1, 5760, Note_on_c, 1, 50, 48
1, 5805, Note_on_c, 0, 77, 0
1, 5805, Note_on_c, 1, 50, 0
1, 5808, Note_on_c, 0, 74, 48
1, 5808, Note_on_c, 1, 59, 48
1, 5808, Note_on_c, 1, 53, 48
1, 5853, Note_on_c, 0, 74, 0
1, 5853, Note_on_c, 1, 59, 0
1, 5853, Note_on_c, 1, 53, 0
1, 5856, Note_on_c, 0, 72, 48
1, 5856, Note_on_c, 1, 57, 48
1, 5856, Note_on_c, 1, 52, 48
1, 5901, Note_on_c, 1, 57, 0
1, 5901, Note_on_c, 1, 52, 0
1, 5904, Note_on_c, 1, 57, 48
1, 5904, Note_on_c, 1, 52, 48
1, 5945, Note_on_c, 0, 72, 0
1, 5949, Note_on_c, 1, 57, 0
1, 5949, Note_on_c, 1, 52, 0
1, 5952, Note_on_c, 0, 71, 48
1, 5952, Note_on_c, 1, 56, 48
1, 5952, Note_on_c, 1, 52, 48
1, 5964, Note_on_c, 0, 71, 0
1, 5964, Note_on_c, 0, 72, 48
1, 5976, Note_on_c, 0, 72, 0
1, 5976, Note_on_c, 0, 71, 48
1, 5988, Note_on_c, 0, 71, 0
1, 5988, Note_on_c, 0, 72, 48
1, 5997, Note_on_c, 1, 56, 0
1, 5997, Note_on_c, 1, 52, 0
1, 6000, Note_on_c, 0, 72, 0
1, 6000, Note_on_c, 0, 71, 48
1, 6000, Note_on_c, 1, 56, 48
1, 6000, Note_on_c, 1, 52, 48
1, 6012, Note_on_c, 0, 71, 0
1, 6012, Note_on_c, 0, 72, 48
1, 6019, Note_on_c, 0, 72, 0
1, 6024, Note_on_c, 0, 69, 48
1, 6036, Note_on_c, 0, 69, 0
1, 6036, Note_on_c, 0, 71, 48
1, 6045, Note_on_c, 1, 56, 0
1, 6045, Note_on_c, 1, 52, 0
1, 6048, Note_on_c, 0, 71, 0
1, 6048, Note_on_c, 0, 69, 48
1, 6048, Note_on_c, 1, 57, 48
1, 6048, Note_on_c, 1, 45, 48
1, 6137, Note_on_c, 0, 69, 0
1, 6137, Note_on_c, 1, 57, 0
1, 6137, Note_on_c, 1, 45, 0
1, 6144, Note_on_c, 0, 76, 71
1, 6144, Note_on_c, 0, 72, 71
1, 6164, Note_on_c, 0, 76, 0
1, 6164, Note_on_c, 0, 72, 0
1, 6192, Note_on_c, 0, 77, 71
1, 6192, Note_on_c, 0, 74, 71
1, 6212, Note_on_c, 0, 77, 0
1, 6212, Note_on_c, 0, 74, 0
1, 6240, Note_on_c, 0, 79, 71
1, 6240, Note_on_c, 0, 76, 71
1, 6240, Note_on_c, 1, 48, 71
1, 6260, Note_on_c, 0, 79, 0
1, 6260, Note_on_c, 0, 76, 0
1, 6285, Note_on_c, 1, 48, 0
1, 6288, Note_on_c, 0, 79, 71
1, 6288, Note_on_c, 0, 76, 71
1, 6288, Note_on_c, 1, 60, 71
1, 6308, Note_on_c, 0, 79, 0
1, 6308, Note_on_c, 0, 76, 0
1, 6333, Note_on_c, 1, 60, 0
1, 6336, Note_on_c, 0, 81, 71
1, 6336, Note_on_c, 1, 52, 71
1, 6359, Note_on_c, 0, 81, 0
1, 6360, Note_on_c, 0, 79, 71
1, 6381, Note_on_c, 1, 52, 0
1, 6383, Note_on_c, 0, 79, 0
1, 6384, Note_on_c, 0, 77, 71
1, 6384, Note_on_c, 1, 64, 71
1, 6407, Note_on_c, 0, 77, 0
1, 6408, Note_on_c, 0, 76, 71
1, 6429, Note_on_c, 1, 64, 0
1, 6431, Note_on_c, 0, 76, 0
1, 6432, Note_on_c, 0, 74, 71
1, 6432, Note_on_c, 0, 71, 71
1, 6432, Note_on_c, 1, 55, 71
1, 6477, Note_on_c, 0, 71, 0
1, 6480, Note_on_c, 0, 67, 71
1, 6521, Note_on_c, 0, 74, 0
1, 6521, Note_on_c, 1, 55, 0
1, 6525, Note_on_c, 0, 67, 0
1, 6528, Note_on_c, 0, 76, 71
1, 6528, Note_on_c, 0, 72, 71
1, 6548, Note_on_c, 0, 76, 0
1, 6548, Note_on_c, 0, 72, 0
1, 6576, Note_on_c, 0, 77, 71
1, 6576, Note_on_c, 0, 74, 71
1, 6596, Note_on_c, 0, 77, 0
1, 6596, Note_on_c, 0, 74, 0
1, 6624, Note_on_c, 0, 79, 71
1, 6624, Note_on_c, 0, 76, 71
1, 6624, Note_on_c, 1, 48, 71
1, 6644, Note_on_c, 0, 79, 0
1, 6644, Note_on_c, 0, 76, 0
1, 6669, Note_on_c, 1, 48, 0
1, 6672, Note_on_c, 0, 79, 71
1, 6672, Note_on_c, 0, 76, 71
1, 6672, Note_on_c, 1, 60, 71
1, 6692, Note_on_c, 0, 79, 0
1, 6692, Note_on_c, 0, 76, 0
1, 6717, Note_on_c, 1, 60, 0
1, 6720, Note_on_c, 0, 81, 71
1, 6720, Note_on_c, 1, 52, 71
1, 6743, Note_on_c, 0, 81, 0
1, 6744, Note_on_c, 0, 79, 71
1, 6765, Note_on_c, 1, 52, 0
1, 6767, Note_on_c, 0, 79, 0
1, 6768, Note_on_c, 0, 77, 71
1, 6768, Note_on_c, 1, 64, 71
1, 6791, Note_on_c, 0, 77, 0
1, 6792, Note_on_c, 0, 76, 71
1, 6813, Note_on_c, 1, 64, 0
1, 6815, Note_on_c, 0, 76, 0
1, 6816, Note_on_c, 0, 74, 71
1, 6816, Note_on_c, 0, 71, 71
1, 6816, Note_on_c, 1, 55, 71
1, 6905, Note_on_c, 0, 74, 0
1, 6905, Note_on_c, 0, 71, 0
1, 6905, Note_on_c, 1, 55, 0
1, 6912, Note_on_c, 0, 72, 71
1, 6912, Note_on_c, 0, 69, 71
1, 6932, Note_on_c, 0, 72, 0
1, 6932, Note_on_c, 0, 69, 0
1, 6960, Note_on_c, 0, 74, 71
1, 6960, Note_on_c, 0, 71, 71
1, 6980, Note_on_c, 0, 74, 0
1, 6980, Note_on_c, 0, 71, 0
1, 7008, Note_on_c, 0, 76, 71
1, 7008, Note_on_c, 0, 72, 71
1, 7008, Note_on_c, 1, 45, 71
1, 7028, Note_on_c, 0, 76, 0
1, 7028, Note_on_c, 0, 72, 0
1, 7053, Note_on_c, 1, 45, 0
1, 7056, Note_on_c, 0, 76, 71
1, 7056, Note_on_c, 0, 72, 71
1, 7056, Note_on_c, 1, 57, 71
1, 7076, Note_on_c, 0, 76, 0
1, 7076, Note_on_c, 0, 72, 0
1, 7101, Note_on_c, 1, 57, 0
1, 7104, Note_on_c, 0, 77, 71
1, 7104, Note_on_c, 1, 48, 71
1, 7127, Note_on_c, 0, 77, 0
1, 7128, Note_on_c, 0, 76, 71
1, 7149, Note_on_c, 1, 48, 0
1, 7151, Note_on_c, 0, 76, 0
1, 7152, Note_on_c, 0, 74, 71
1, 7152, Note_on_c, 1, 60, 71
1, 7175, Note_on_c, 0, 74, 0
1, 7176, Note_on_c, 0, 72, 71
1, 7197, Note_on_c, 1, 60, 0
1, 7199, Note_on_c, 0, 72, 0
1, 7200, Note_on_c, 0, 71, 71
1, 7200, Note_on_c, 0, 68, 71
1, 7200, Note_on_c, 1, 52, 71
1, 7245, Note_on_c, 0, 68, 0
1, 7248, Note_on_c, 0, 64, 71
1, 7289, Note_on_c, 0, 71, 0
1, 7289, Note_on_c, 1, 52, 0
1, 7293, Note_on_c, 0, 64, 0
1, 7296, Note_on_c, 0, 72, 71
1, 7296, Note_on_c, 0, 69, 71
1, 7316, Note_on_c, 0, 72, 0
1, 7316, Note_on_c, 0, 69, 0
1, 7344, Note_on_c, 0, 74, 71
1, 7344, Note_on_c, 0, 71, 71
1, 7364, Note_on_c, 0, 74, 0
1, 7364, Note_on_c, 0, 71, 0
1, 7392, Note_on_c, 0, 76, 71
1, 7392, Note_on_c, 0, 72, 71
1, 7392, Note_on_c, 1, 45, 71
1, 7412, Note_on_c, 0, 76, 0
1, 7412, Note_on_c, 0, 72, 0
1, 7437, Note_on_c, 1, 45, 0
1, 7440, Note_on_c, 0, 76, 71
1, 7440, Note_on_c, 0, 72, 71
1, 7440, Note_on_c, 1, 57, 71
1, 7460, Note_on_c, 0, 76, 0
1, 7460, Note_on_c, 0, 72, 0
1, 7485, Note_on_c, 1, 57, 0
1, 7488, Note_on_c, 0, 77, 71
1, 7488, Note_on_c, 1, 48, 71
1, 7511, Note_on_c, 0, 77, 0
1, 7512, Note_on_c, 0, 76, 71
1, 7533, Note_on_c, 1, 48, 0
1, 7535, Note_on_c, 0, 76, 0
1, 7536, Note_on_c, 0, 74, 71
1, 7536, Note_on_c, 1, 60, 71
1, 7559, Note_on_c, 0, 74, 0
1, 7560, Note_on_c, 0, 72, 71
1, 7581, Note_on_c, 1, 60, 0
1, 7583, Note_on_c, 0, 72, 0
1, 7584, Note_on_c, 0, 71, 71
1, 7584, Note_on_c, 0, 68, 71
1, 7584, Note_on_c, 1, 52, 71
1, 7673, Note_on_c, 0, 71, 0
1, 7673, Note_on_c, 0, 68, 0
1, 7673, Note_on_c, 1, 52, 0
1, 7680, Note_on_c, 0, 71, 48
1, 7703, Note_on_c, 0, 71, 0
1, 7704, Note_on_c, 0, 69, 48
1, 7727, Note_on_c, 0, 69, 0
1, 7728, Note_on_c, 0, 68, 48
1, 7751, Note_on_c, 0, 68, 0
1, 7752, Note_on_c, 0, 69, 48
1, 7775, Note_on_c, 0, 69, 0
1, 7776, Note_on_c, 0, 72, 48
1, 7776, Note_on_c, 1, 57, 48
1, 7815, Note_on_c, 0, 72, 0
1, 7821, Note_on_c, 1, 57, 0
1, 7824, Note_on_c, 1, 64, 48
1, 7824, Note_on_c, 1, 60, 48
1, 7844, Note_on_c, 1, 64, 0
1, 7844, Note_on_c, 1, 60, 0
1, 7872, Note_on_c, 0, 74, 48
1, 7872, Note_on_c, 1, 64, 48
1, 7872, Note_on_c, 1, 60, 48
1, 7892, Note_on_c, 1, 64, 0
1, 7892, Note_on_c, 1, 60, 0
1, 7895, Note_on_c, 0, 74, 0
1, 7896, Note_on_c, 0, 72, 48
1, 7919, Note_on_c, 0, 72, 0
1, 7920, Note_on_c, 0, 71, 48
1, 7920, Note_on_c, 1, 64, 48
1, 7920, Note_on_c, 1, 60, 48
1, 7940, Note_on_c, 1, 64, 0
1, 7940, Note_on_c, 1, 60, 0
1, 7943, Note_on_c, 0, 71, 0
1, 7944, Note_on_c, 0, 72, 48
1, 7967, Note_on_c, 0, 72, 0
1, 7968, Note_on_c, 0, 76, 48
1, 7968, Note_on_c, 1, 57, 48
1, 8007, Note_on_c, 0, 76, 0
1, 8013, Note_on_c, 1, 57, 0
1, 8016, Note_on_c, 1, 64, 48
1, 8016, Note_on_c, 1, 60, 48
1, 8036, Note_on_c, 1, 64, 0
1, 8036, Note_on_c, 1, 60, 0
1, 8064, Note_on_c, 0, 77, 48
1, 8064, Note_on_c, 1, 64, 48
1, 8064, Note_on_c, 1, 60, 48
1, 8084, Note_on_c, 1, 64, 0
1, 8084, Note_on_c, 1, 60, 0
1, 8087, Note_on_c, 0, 77, 0
1, 8088, Note_on_c, 0, 76, 48
1, 8111, Note_on_c, 0, 76, 0
1, 8112, Note_on_c, 0, 75, 48
1, 8112, Note_on_c, 1, 64, 48
1, 8112, Note_on_c, 1, 60, 48
1, 8132, Note_on_c, 1, 64, 0
1, 8132, Note_on_c, 1, 60, 0
1, 8135, Note_on_c, 0, 75, 0
1, 8136, Note_on_c, 0, 76, 48
1, 8159, Note_on_c, 0, 76, 0
1, 8160, Note_on_c, 0, 83, 48
1, 8160, Note_on_c, 1, 57, 48
1, 8183, Note_on_c, 0, 83, 0
1, 8184, Note_on_c, 0, 81, 48
1, 8205, Note_on_c, 1, 57, 0
1, 8207, Note_on_c, 0, 81, 0
1, 8208, Note_on_c, 0, 80, 48
1, 8208, Note_on_c, 1, 64, 48
1, 8208, Note_on_c, 1, 60, 48
1, 8228, Note_on_c, 1, 64, 0
1, 8228, Note_on_c, 1, 60, 0
1, 8231, Note_on_c, 0, 80, 0
1, 8232, Note_on_c, 0, 81, 48
1, 8255, Note_on_c, 0, 81, 0
1, 8256, Note_on_c, 0, 83, 48
1, 8256, Note_on_c, 1, 57, 48
1, 8279, Note_on_c, 0, 83, 0
1, 8280, Note_on_c, 0, 81, 48
1, 8301, Note_on_c, 1, 57, 0
1, 8303, Note_on_c, 0, 81, 0
1, 8304, Note_on_c, 0, 80, 48
1, 8304, Note_on_c, 1, 64, 48
1, 8304, Note_on_c, 1, 60, 48
1, 8324, Note_on_c, 1, 64, 0
1, 8324, Note_on_c, 1, 60, 0
1, 8327, Note_on_c, 0, 80, 0
1, 8328, Note_on_c, 0, 81, 48
1, 8351, Note_on_c, 0, 81, 0
1, 8352, Note_on_c, 0, 84, 48
1, 8352, Note_on_c, 1, 53, 48
1, 8397, Note_on_c, 1, 53, 0
1, 8400, Note_on_c, 1, 63, 48
1, 8400, Note_on_c, 1, 57, 48
1, 8420, Note_on_c, 1, 63, 0
1, 8420, Note_on_c, 1, 57, 0
1, 8441, Note_on_c, 0, 84, 0
1, 8448, Note_on_c, 0, 81, 48
1, 8448, Note_on_c, 1, 63, 48
1, 8448, Note_on_c, 1, 57, 48
1, 8468, Note_on_c, 1, 63, 0
1, 8468, Note_on_c, 1, 57, 0
1, 8493, Note_on_c, 0, 81, 0
1, 8496, Note_on_c, 0, 83, 48
1, 8496, Note_on_c, 1, 63, 48
1, 8496, Note_on_c, 1, 57, 48
1, 8516, Note_on_c, 1, 63, 0
1, 8516, Note_on_c, 1, 57, 0
1, 8541, Note_on_c, 0, 83, 0
1, 8544, Note_on_c, 0, 81, 48
1, 8544, Note_on_c, 1, 52, 48
1, 8550, Note_on_c, 0, 81, 0
1, 8550, Note_on_c, 0, 83, 48
1, 8556, Note_on_c, 0, 83, 0
1, 8556, Note_on_c, 0, 84, 48
1, 8589, Note_on_c, 0, 84, 0
1, 8589, Note_on_c, 1, 52, 0
1, 8592, Note_on_c, 0, 83, 48
1, 8592, Note_on_c, 1, 64, 48
1, 8592, Note_on_c, 1, 57, 48
1, 8637, Note_on_c, 0, 83, 0
1, 8637, Note_on_c, 1, 64, 0
1, 8637, Note_on_c, 1, 57, 0
1, 8640, Note_on_c, 0, 81, 48
1, 8640, Note_on_c, 1, 50, 48
1, 8685, Note_on_c, 0, 81, 0
1, 8685, Note_on_c, 1, 50, 0
1, 8688, Note_on_c, 0, 80, 48
1, 8688, Note_on_c, 1, 59, 48
1, 8688, Note_on_c, 1, 53, 48
1, 8733, Note_on_c, 0, 80, 0
1, 8733, Note_on_c, 1, 59, 0
1, 8733, Note_on_c, 1, 53, 0
1, 8736, Note_on_c, 0, 81, 48
1, 8736, Note_on_c, 1, 48, 48
1, 8748, Note_on_c, 0, 81, 0
1, 8748, Note_on_c, 0, 83, 48
1, 8760, Note_on_c, 0, 83, 0
1, 8760, Note_on_c, 0, 81, 48
1, 8781, Note_on_c, 0, 81, 0
1, 8781, Note_on_c, 1, 48, 0
1, 8784, Note_on_c, 0, 76, 48
1, 8784, Note_on_c, 1, 57, 48
1, 8784, Note_on_c, 1, 52, 48
1, 8829, Note_on_c, 0, 76, 0
1, 8829, Note_on_c, 1, 57, 0
1, 8829, Note_on_c, 1, 52, 0
1, 8832, Note_on_c, 0, 77, 48
1, 8832, Note_on_c, 1, 50, 48
1, 8877, Note_on_c, 0, 77, 0
1, 8877, Note_on_c, 1, 50, 0
1, 8880, Note_on_c, 0, 74, 48
1, 8880, Note_on_c, 1, 59, 48
1, 8880, Note_on_c, 1, 53, 48
1, 8925, Note_on_c, 0, 74, 0
1, 8925, Note_on_c, 1, 59, 0
1, 8925, Note_on_c, 1, 53, 0
1, 8928, Note_on_c, 0, 72, 48
1, 8928, Note_on_c, 1, 57, 48
1, 8928, Note_on_c, 1, 52, 48
1, 8973, Note_on_c, 1, 57, 0
1, 8973, Note_on_c, 1, 52, 0
1, 8976, Note_on_c, 1, 57, 48
1, 8976, Note_on_c, 1, 52, 48
1, 9017, Note_on_c, 0, 72, 0
1, 9021, Note_on_c, 1, 57, 0
1, 9021, Note_on_c, 1, 52, 0
1, 9024, Note_on_c, 0, 71, 48
1, 9024, Note_on_c, 1, 56, 48
1, 9024, Note_on_c, 1, 52, 48
1, 9036, Note_on_c, 0, 71, 0
1, 9036, Note_on_c, 0, 72, 48
1, 9048, Note_on_c, 0, 72, 0
1, 9048, Note_on_c, 0, 71, 48
1, 9060, Note_on_c, 0, 71, 0
1, 9060, Note_on_c, 0, 72, 48
1, 9069, Note_on_c, 1, 56, 0
1, 9069, Note_on_c, 1, 52, 0
1, 9072, Note_on_c, 0, 72, 0
1, 9072, Note_on_c, 0, 71, 48
1, 9072, Note_on_c, 1, 56, 48
1, 9072, Note_on_c, 1, 52, 48
1, 9084, Note_on_c, 0, 71, 0
1, 9084, Note_on_c, 0, 72, 48
1, 9091, Note_on_c, 0, 72, 0
1, 9096, Note_on_c, 0, 69, 48
1, 9108, Note_on_c, 0, 69, 0
1, 9108, Note_on_c, 0, 71, 48
1, 9117, Note_on_c, 1, 56, 0
1, 9117, Note_on_c, 1, 52, 0
1, 9120, Note_on_c, 0, 71, 0
1, 9120, Note_on_c, 0, 69, 48
1, 9120, Note_on_c, 1, 57, 48
1, 9120, Note_on_c, 1, 45, 48
1, 9209, Note_on_c, 0, 69, 0
1, 9209, Note_on_c, 1, 57, 0
1, 9209, Note_on_c, 1, 45, 0
1, 9216, Note_on_c, 0, 81, 85
1, 9216, Note_on_c, 0, 69, 85
1, 9236, Note_on_c, 0, 81, 0
1, 9236, Note_on_c, 0, 69, 0
1, 9264, Note_on_c, 0, 83, 85
1, 9264, Note_on_c, 0, 71, 85
1, 9284, Note_on_c, 0, 83, 0
1, 9284, Note_on_c, 0, 71, 0
1, 9312, Note_on_c, 0, 85, 85
1, 9312, Note_on_c, 0, 73, 85
1, 9312, Note_on_c, 1, 45, 85
1, 9318, Note_on_c, 1, 45, 0
1, 9318, Note_on_c, 1, 49, 85
1, 9324, Note_on_c, 1, 49, 0
1, 9324, Note_on_c, 1, 52, 85
1, 9330, Note_on_c, 1, 52, 0
1, 9330, Note_on_c, 1, 57, 85
1, 9357, Note_on_c, 1, 57, 0
1, 9360, Note_on_c, 1, 57, 85
1, 9380, Note_on_c, 1, 57, 0
1, 9406, Note_on_c, 0, 85, 0
1, 9406, Note_on_c, 0, 73, 0
1, 9408, Note_on_c, 0, 81, 85
1, 9408, Note_on_c, 0, 69, 85
1, 9408, Note_on_c, 1, 57, 85
1, 9428, Note_on_c, 0, 81, 0
1, 9428, Note_on_c, 0, 69, 0
1, 9428, Note_on_c, 1, 57, 0
1, 9456, Note_on_c, 0, 83, 85
1, 9456, Note_on_c, 0, 71, 85
1, 9456, Note_on_c, 1, 57, 85
1, 9476, Note_on_c, 0, 83, 0
1, 9476, Note_on_c, 0, 71, 0
1, 9476, Note_on_c, 1, 57, 0
1, 9504, Note_on_c, 0, 85, 85
1, 9504, Note_on_c, 0, 73, 85
1, 9504, Note_on_c, 1, 45, 85
1, 9510, Note_on_c, 1, 45, 0
1, 9510, Note_on_c, 1, 49, 85
1, 9516, Note_on_c, 1, 49, 0
1, 9516, Note_on_c, 1, 52, 85
1, 9522, Note_on_c, 1, 52, 0
1, 9522, Note_on_c, 1, 57, 85
1, 9524, Note_on_c, 0, 85, 0
1, 9524, Note_on_c, 0, 73, 0
1, 9549, Note_on_c, 1, 57, 0
1, 9552, Note_on_c, 0, 83, 85
1, 9552, Note_on_c, 0, 71, 85
1, 9552, Note_on_c, 1, 57, 85
1, 9572, Note_on_c, 0, 83, 0
1, 9572, Note_on_c, 0, 71, 0
1, 9572, Note_on_c, 1, 57, 0
1, 9600, Note_on_c, 0, 81, 85
1, 9600, Note_on_c, 0, 69, 85
1, 9600, Note_on_c, 1, 57, 85
1, 9620, Note_on_c, 0, 81, 0
1, 9620, Note_on_c, 0, 69, 0
1, 9620, Note_on_c, 1, 57, 0
1, 9648, Note_on_c, 0, 80, 85
1, 9648, Note_on_c, 0, 68, 85
1, 9648, Note_on_c, 1, 57, 85
1, 9668, Note_on_c, 0, 80, 0
1, 9668, Note_on_c, 0, 68, 0
1, 9668, Note_on_c, 1, 57, 0
1, 9696, Note_on_c, 0, 78, 85
1, 9696, Note_on_c, 0, 66, 85
1, 9696, Note_on_c, 1, 38, 85
1, 9702, Note_on_c, 1, 38, 0
1, 9702, Note_on_c, 1, 42, 85
1, 9708, Note_on_c, 1, 42, 0
1, 9708, Note_on_c, 1, 45, 85
1, 9714, Note_on_c, 1, 45, 0
1, 9714, Note_on_c, 1, 50, 85
1, 9716, Note_on_c, 0, 78, 0
1, 9716, Note_on_c, 0, 66, 0
1, 9741, Note_on_c, 1, 50, 0
1, 9744, Note_on_c, 0, 80, 85
1, 9744, Note_on_c, 0, 68, 85
1, 9744, Note_on_c, 1, 50, 85
1, 9764, Note_on_c, 0, 80, 0
1, 9764, Note_on_c, 0, 68, 0
1, 9764, Note_on_c, 1, 50, 0
1, 9792, Note_on_c, 0, 81, 85
1, 9792, Note_on_c, 0, 69, 85
1, 9792, Note_on_c, 1, 39, 85
1, 9798, Note_on_c, 1, 39, 0
1, 9798, Note_on_c, 1, 42, 85
1, 9804, Note_on_c, 1, 42, 0
1, 9804, Note_on_c, 1, 45, 85
1, 9810, Note_on_c, 1, 45, 0
1, 9810, Note_on_c, 1, 51, 85
1, 9812, Note_on_c, 0, 81, 0
1, 9812, Note_on_c, 0, 69, 0
1, 9837, Note_on_c, 1, 51, 0
1, 9840, Note_on_c, 0, 83, 85
1, 9840, Note_on_c, 0, 71, 85
1, 9840, Note_on_c, 1, 51, 85
1, 9860, Note_on_c, 0, 83, 0
1, 9860, Note_on_c, 0, 71, 0
1, 9860, Note_on_c, 1, 51, 0
1, 9888, Note_on_c, 0, 80, 85
1, 9888, Note_on_c, 0, 68, 85
1, 9888, Note_on_c, 1, 40, 85
1, 9894, Note_on_c, 1, 40, 0
1, 9894, Note_on_c, 1, 44, 85
1, 9900, Note_on_c, 1, 44, 0
1, 9900, Note_on_c, 1, 47, 85
1, 9906, Note_on_c, 1, 47, 0
1, 9906, Note_on_c, 1, 52, 85
1, 9908, Note_on_c, 0, 80, 0
1, 9908, Note_on_c, 0, 68, 0
1, 9933, Note_on_c, 1, 52, 0
1, 9936, Note_on_c, 0, 76, 85
1, 9936, Note_on_c, 0, 64, 85
1, 9936, Note_on_c, 1, 52, 85
1, 9956, Note_on_c, 0, 76, 0
1, 9956, Note_on_c, 0, 64, 0
1, 9956, Note_on_c, 1, 52, 0
1, 9984, Note_on_c, 0, 81, 85
1, 9984, Note_on_c, 0, 69, 85
1, 9984, Note_on_c, 1, 52, 85
1, 10004, Note_on_c, 0, 81, 0
1, 10004, Note_on_c, 0, 69, 0
1, 10004, Note_on_c, 1, 52, 0
1, 10032, Note_on_c, 0, 83, 85
1, 10032, Note_on_c, 0, 71, 85
1, 10032, Note_on_c, 1, 52, 85
1, 10052, Note_on_c, 0, 83, 0
1, 10052, Note_on_c, 0, 71, 0
1, 10052, Note_on_c, 1, 52, 0
1, 10080, Note_on_c, 0, 85, 85
1, 10080, Note_on_c, 0, 73, 85
1, 10080, Note_on_c, 1, 45, 85
1, 10086, Note_on_c, 1, 45, 0
1, 10086, Note_on_c, 1, 49, 85
1, 10092, Note_on_c, 1, 49, 0
1, 10092, Note_on_c, 1, 52, 85
1, 10098, Note_on_c, 1, 52, 0
1, 10098, Note_on_c, 1, 57, 85
1, 10125, Note_on_c, 1, 57, 0
1, 10128, Note_on_c, 1, 57, 85
1, 10148, Note_on_c, 1, 57, 0
1, 10174, Note_on_c, 0, 85, 0
1, 10174, Note_on_c, 0, 73, 0
1, 10176, Note_on_c, 0, 81, 85
1, 10176, Note_on_c, 0, 69, 85
1, 10176, Note_on_c, 1, 57, 85
1, 10196, Note_on_c, 0, 81, 0
1, 10196, Note_on_c, 0, 69, 0
1, 10196, Note_on_c, 1, 57, 0
1, 10224, Note_on_c, 0, 83, 85
1, 10224, Note_on_c, 0, 71, 85
1, 10224, Note_on_c, 1, 57, 85
1, 10244, Note_on_c, 0, 83, 0
1, 10244, Note_on_c, 0, 71, 0
1, 10244, Note_on_c, 1, 57, 0
1, 10272, Note_on_c, 0, 85, 85
1, 10272, Note_on_c, 0, 73, 85
1, 10272, Note_on_c, 1, 45, 85
1, 10278, Note_on_c, 1, 45, 0
1, 10278, Note_on_c, 1, 49, 85
1, 10284, Note_on_c, 1, 49, 0
1, 10284, Note_on_c, 1, 52, 85
1, 10290, Note_on_c, 1, 52, 0
1, 10290, Note_on_c, 1, 57, 85
1, 10292, Note_on_c, 0, 85, 0
1, 10292, Note_on_c, 0, 73, 0
1, 10317, Note_on_c, 1, 57, 0
1, 10320, Note_on_c, 0, 83, 85
1, 10320, Note_on_c, 0, 71, 85
1, 10320, Note_on_c, 1, 57, 85
1, 10340, Note_on_c, 0, 83, 0
1, 10340, Note_on_c, 0, 71, 0
1, 10340, Note_on_c, 1, 57, 0
1, 10368, Note_on_c, 0, 81, 85
1, 10368, Note_on_c, 0, 69, 85
1, 10368, Note_on_c, 1, 57, 85
1, 10388, Note_on_c, 0, 81, 0
1, 10388, Note_on_c, 0, 69, 0
1, 10388, Note_on_c, 1, 57, 0
1, 10416, Note_on_c, 0, 80, 85
1, 10416, Note_on_c, 0, 68, 85
1, 10416, Note_on_c, 1, 57, 85
1, 10436, Note_on_c, 0, 80, 0
1, 10436, Note_on_c, 0, 68, 0
1, 10436, Note_on_c, 1, 57, 0
1, 10464, Note_on_c, 0, 78, 85
1, 10464, Note_on_c, 0, 66, 85
1, 10464, Note_on_c, 1, 38, 85
1, 10470, Note_on_c, 1, 38, 0
1, 10470, Note_on_c, 1, 42, 85
1, 10476, Note_on_c, 1, 42, 0
1, 10476, Note_on_c, 1, 45, 85
1, 10482, Note_on_c, 1, 45, 0
1, 10482, Note_on_c, 1, 50, 85
1, 10484, Note_on_c, 0, 78, 0
1, 10484, Note_on_c, 0, 66, 0
1, 10509, Note_on_c, 1, 50, 0
1, 10512, Note_on_c, 0, 83, 85
1, 10512, Note_on_c, 0, 71, 85
1, 10512, Note_on_c, 1, 50, 85
1, 10532, Note_on_c, 0, 83, 0
1, 10532, Note_on_c, 0, 71, 0
1, 10532, Note_on_c, 1, 50, 0
1, 10560, Note_on_c, 0, 80, 85
1, 10560, Note_on_c, 0, 68, 85
1, 10560, Note_on_c, 1, 40, 85
1, 10566, Note_on_c, 1, 40, 0
1, 10566, Note_on_c, 1, 44, 85
1, 10572, Note_on_c, 1, 44, 0
1, 10572, Note_on_c, 1, 47, 85
1, 10578, Note_on_c, 1, 47, 0
1, 10578, Note_on_c, 1, 52, 85
1, 10580, Note_on_c, 0, 80, 0
1, 10580, Note_on_c, 0, 68, 0
1, 10605, Note_on_c, 1, 52, 0
1, 10608, Note_on_c, 0, 76, 85
1, 10608, Note_on_c, 0, 64, 85
1, 10608, Note_on_c, 1, 52, 85
1, 10628, Note_on_c, 0, 76, 0
1, 10628, Note_on_c, 0, 64, 0
1, 10628, Note_on_c, 1, 52, 0
1, 10656, Note_on_c, 0, 81, 85
1, 10656, Note_on_c, 0, 69, 85
1, 10656, Note_on_c, 1, 33, 85
1, 10662, Note_on_c, 1, 33, 0
1, 10662, Note_on_c, 1, 37, 85
1, 10668, Note_on_c, 1, 37, 0
1, 10668, Note_on_c, 1, 40, 85
1, 10674, Note_on_c, 1, 40, 0
1, 10674, Note_on_c, 1, 45, 85
1, 10750, Note_on_c, 0, 81, 0
1, 10750, Note_on_c, 0, 69, 0
1, 10750, Note_on_c, 1, 45, 0
1, 10752, Note_on_c, 0, 81, 85
1, 10752, Note_on_c, 0, 69, 85
1, 10772, Note_on_c, 0, 81, 0
1, 10772, Note_on_c, 0, 69, 0
1, 10800, Note_on_c, 0, 83, 85
1, 10800, Note_on_c, 0, 71, 85
1, 10820, Note_on_c, 0, 83, 0
1, 10820, Note_on_c, 0, 71, 0
1, 10848, Note_on_c, 0, 85, 85
1, 10848, Note_on_c, 0, 73, 85
1, 10848, Note_on_c, 1, 45, 85
1, 10854, Note_on_c, 1, 45, 0
1, 10854, Note_on_c, 1, 49, 85
1, 10860, Note_on_c, 1, 49, 0
1, 10860, Note_on_c, 1, 52, 85
1, 10866, Note_on_c, 1, 52, 0
1, 10866, Note_on_c, 1, 57, 85
1, 10893, Note_on_c, 1, 57, 0
1, 10896, Note_on_c, 1, 57, 85
1, 10916, Note_on_c, 1, 57, 0
1, 10942, Note_on_c, 0, 85, 0
1, 10942, Note_on_c, 0, 73, 0
1, 10944, Note_on_c, 0, 81, 85
1, 10944, Note_on_c, 0, 69, 85
1, 10944, Note_on_c, 1, 57, 85
1, 10964, Note_on_c, 0, 81, 0
1, 10964, Note_on_c, 0, 69, 0
1, 10964, Note_on_c, 1, 57, 0
1, 10992, Note_on_c, 0, 83, 85
1, 10992, Note_on_c, 0, 71, 85
1, 10992, Note_on_c, 1, 57, 85
1, 11012, Note_on_c, 0, 83, 0
1, 11012, Note_on_c, 0, 71, 0
1, 11012, Note_on_c, 1, 57, 0
1, 11040, Note_on_c, 0, 85, 85
1, 11040, Note_on_c, 0, 73, 85
1, 11040, Note_on_c, 1, 45, 85
1, 11046, Note_on_c, 1, 45, 0
1, 11046, Note_on_c, 1, 49, 85
1, 11052, Note_on_c, 1, 49, 0
1, 11052, Note_on_c, 1, 52, 85
1, 11058, Note_on_c, 1, 52, 0
1, 11058, Note_on_c, 1, 57, 85
1, 11060, Note_on_c, 0, 85, 0
1, 11060, Note_on_c, 0, 73, 0
1, 11085, Note_on_c, 1, 57, 0
1, 11088, Note_on_c, 0, 83, 85
1, 11088, Note_on_c, 0, 71, 85
1, 11088, Note_on_c, 1, 57, 85
1, 11108, Note_on_c, 0, 83, 0
1, 11108, Note_on_c, 0, 71, 0
1, 11108, Note_on_c, 1, 57, 0
1, 11136, Note_on_c, 0, 81, 85
1, 11136, Note_on_c, 0, 69, 85
1, 11136, Note_on_c, 1, 57, 85
1, 11156, Note_on_c, 0, 81, 0
1, 11156, Note_on_c, 0, 69, 0
1, 11156, Note_on_c, 1, 57, 0
1, 11184, Note_on_c, 0, 80, 85
1, 11184, Note_on_c, 0, 68, 85
1, 11184, Note_on_c, 1, 57, 85
1, 11204, Note_on_c, 0, 80, 0
1, 11204, Note_on_c, 0, 68, 0
1, 11204, Note_on_c, 1, 57, 0
1, 11232, Note_on_c, 0, 78, 85
1, 11232, Note_on_c, 0, 66, 85
1, 11232, Note_on_c, 1, 38, 85
1, 11238, Note_on_c, 1, 38, 0
1, 11238, Note_on_c, 1, 42, 85
1, 11244, Note_on_c, 1, 42, 0
1, 11244, Note_on_c, 1, 45, 85
1, 11250, Note_on_c, 1, 45, 0
1, 11250, Note_on_c, 1, 50, 85
1, 11252, Note_on_c, 0, 78, 0
1, 11252, Note_on_c, 0, 66, 0
1, 11277, Note_on_c, 1, 50, 0
1, 11280, Note_on_c, 0, 80, 85
1, 11280, Note_on_c, 0, 68, 85
1, 11280, Note_on_c, 1, 50, 85
1, 11300, Note_on_c, 0, 80, 0
1, 11300, Note_on_c, 0, 68, 0
1, 11300, Note_on_c, 1, 50, 0
1, 11328, Note_on_c, 0, 81, 85
1, 11328, Note_on_c, 0, 69, 85
1, 11328, Note_on_c, 1, 39, 85
1, 11334, Note_on_c, 1, 39, 0
1, 11334, Note_on_c, 1, 42, 85
1, 11340, Note_on_c, 1, 42, 0
1, 11340, Note_on_c, 1, 45, 85
1, 11346, Note_on_c, 1, 45, 0
1, 11346, Note_on_c, 1, 51, 85
1, 11348, Note_on_c, 0, 81, 0
1, 11348, Note_on_c, 0, 69, 0
1, 11373, Note_on_c, 1, 51, 0
1, 11376, Note_on_c, 0, 83, 85
1, 11376, Note_on_c, 0, 71, 85
1, 11376, Note_on_c, 1, 51, 85
1, 11396, Note_on_c, 0, 83, 0
1, 11396, Note_on_c, 0, 71, 0
1, 11396, Note_on_c, 1, 51, 0
1, 11424, Note_on_c, 0, 80, 85
1, 11424, Note_on_c, 0, 68, 85
1, 11424, Note_on_c, 1, 40, 85
1, 11430, Note_on_c, 1, 40, 0
1, 11430, Note_on_c, 1, 44, 85
1, 11436, Note_on_c, 1, 44, 0
1, 11436, Note_on_c, 1, 47, 85
1, 11442, Note_on_c, 1, 47, 0
1, 11442, Note_on_c, 1, 52, 85
1, 11444, Note_on_c, 0, 80, 0
1, 11444, Note_on_c, 0, 68, 0
1, 11469, Note_on_c, 1, 52, 0
1, 11472, Note_on_c, 0, 76, 85
1, 11472, Note_on_c, 0, 64, 85
1, 11472, Note_on_c, 1, 52, 85
1, 11492, Note_on_c, 0, 76, 0
1, 11492, Note_on_c, 0, 64, 0
1, 11492, Note_on_c, 1, 52, 0
1, 11520, Note_on_c, 0, 81, 85
1, 11520, Note_on_c, 0, 69, 85
1, 11520, Note_on_c, 1, 52, 85
1, 11540, Note_on_c, 0, 81, 0
1, 11540, Note_on_c, 0, 69, 0
1, 11540, Note_on_c, 1, 52, 0
1, 11568, Note_on_c, 0, 83, 85
1, 11568, Note_on_c, 0, 71, 85
1, 11568, Note_on_c, 1, 52, 85
1, 11588, Note_on_c, 0, 83, 0
1, 11588, Note_on_c, 0, 71, 0
1, 11588, Note_on_c, 1, 52, 0
1, 11616, Note_on_c, 0, 85, 85
1, 11616, Note_on_c, 0, 73, 85
1, 11616, Note_on_c, 1, 45, 85
1, 11622, Note_on_c, 1, 45, 0
1, 11622, Note_on_c, 1, 49, 85
1, 11628, Note_on_c, 1, 49, 0
1, 11628, Note_on_c, 1, 52, 85
1, 11634, Note_on_c, 1, 52, 0
1, 11634, Note_on_c, 1, 57, 85
1, 11661, Note_on_c, 1, 57, 0
1, 11664, Note_on_c, 1, 57, 85
1, 11684, Note_on_c, 1, 57, 0
1, 11710, Note_on_c, 0, 85, 0
1, 11710, Note_on_c, 0, 73, 0
1, 11712, Note_on_c, 0, 81, 85
1, 11712, Note_on_c, 0, 69, 85
1, 11712, Note_on_c, 1, 57, 85
1, 11732, Note_on_c, 0, 81, 0
1, 11732, Note_on_c, 0, 69, 0
1, 11732, Note_on_c, 1, 57, 0
1, 11760, Note_on_c, 0, 83, 85
1, 11760, Note_on_c, 0, 71, 85
1, 11760, Note_on_c, 1, 57, 85
1, 11780, Note_on_c, 0, 83, 0
1, 11780, Note_on_c, 0, 71, 0
1, 11780, Note_on_c, 1, 57, 0
1, 11808, Note_on_c, 0, 85, 85
1, 11808, Note_on_c, 0, 73, 85
1, 11808, Note_on_c, 1, 45, 85
1, 11814, Note_on_c, 1, 45, 0
1, 11814, Note_on_c, 1, 49, 85
1, 11820, Note_on_c, 1, 49, 0
1, 11820, Note_on_c, 1, 52, 85
1, 11826, Note_on_c, 1, 52, 0
1, 11826, Note_on_c, 1, 57, 85
1, 11828, Note_on_c, 0, 85, 0
1, 11828, Note_on_c, 0, 73, 0
1, 11853, Note_on_c, 1, 57, 0
1, 11856, Note_on_c, 0, 83, 85
1, 11856, Note_on_c, 0, 71, 85
1, 11856, Note_on_c, 1, 57, 85
1, 11876, Note_on_c, 0, 83, 0
1, 11876, Note_on_c, 0, 71, 0
1, 11876, Note_on_c, 1, 57, 0
1, 11904, Note_on_c, 0, 81, 85
1, 11904, Note_on_c, 0, 69, 85
1, 11904, Note_on_c, 1, 57, 85
1, 11924, Note_on_c, 0, 81, 0
1, 11924, Note_on_c, 0, 69, 0
1, 11924, Note_on_c, 1, 57, 0
1, 11952, Note_on_c, 0, 80, 85
1, 11952, Note_on_c, 0, 68, 85
1, 11952, Note_on_c, 1, 57, 85
1, 11972, Note_on_c, 0, 80, 0
1, 11972, Note_on_c, 0, 68, 0
1, 11972, Note_on_c, 1, 57, 0
1, 12000, Note_on_c, 0, 78, 85
1, 12000, Note_on_c, 0, 66, 85
1, 12000, Note_on_c, 1, 38, 85
1, 12006, Note_on_c, 1, 38, 0
1, 12006, Note_on_c, 1, 42, 85
1, 12012, Note_on_c, 1, 42, 0
1, 12012, Note_on_c, 1, 45, 85
1, 12018, Note_on_c, 1, 45, 0
1, 12018, Note_on_c, 1, 50, 85
1, 12020, Note_on_c, 0, 78, 0
1, 12020, Note_on_c, 0, 66, 0
1, 12045, Note_on_c, 1, 50, 0
1, 12048, Note_on_c, 0, 83, 85
1, 12048, Note_on_c, 0, 71, 85
1, 12048, Note_on_c, 1, 50, 85
1, 12068, Note_on_c, 0, 83, 0
1, 12068, Note_on_c, 0, 71, 0
1, 12068, Note_on_c, 1, 50, 0
1, 12096, Note_on_c, 0, 80, 85
1, 12096, Note_on_c, 0, 68, 85
1, 12096, Note_on_c, 1, 40, 85
1, 12102, Note_on_c, 1, 40, 0
1, 12102, Note_on_c, 1, 44, 85
1, 12108, Note_on_c, 1, 44, 0
1, 12108, Note_on_c, 1, 47, 85
1, 12114, Note_on_c, 1, 47, 0
1, 12114, Note_on_c, 1, 52, 85
1, 12116, Note_on_c, 0, 80, 0
1, 12116, Note_on_c, 0, 68, 0
1, 12141, Note_on_c, 1, 52, 0
1, 12144, Note_on_c, 0, 76, 85
1, 12144, Note_on_c, 0, 64, 85
1, 12144, Note_on_c, 1, 52, 85
1, 12164, Note_on_c, 0, 76, 0
1, 12164, Note_on_c, 0, 64, 0
1, 12164, Note_on_c, 1, 52, 0
1, 12192, Note_on_c, 0, 81, 85
1, 12192, Note_on_c, 0, 69, 85
1, 12192, Note_on_c, 1, 33, 85
1, 12198, Note_on_c, 1, 33, 0
1, 12198, Note_on_c, 1, 37, 85
1, 12204, Note_on_c, 1, 37, 0
1, 12204, Note_on_c, 1, 40, 85
1, 12210, Note_on_c, 1, 40, 0
1, 12210, Note_on_c, 1, 45, 85
1, 12286, Note_on_c, 0, 81, 0
1, 12286, Note_on_c, 0, 69, 0
1, 12286, Note_on_c, 1, 45, 0
1, 12288, Tempo, 363636
1, 12288, Note_on_c, 0, 85, 48
1, 12311, Note_on_c, 0, 85, 0
1, 12312, Note_on_c, 0, 86, 48
1, 12335, Note_on_c, 0, 86, 0
1, 12336, Note_on_c, 0, 85, 48
1, 12359, Note_on_c, 0, 85, 0
1, 12360, Note_on_c, 0, 83, 48
1, 12383, Note_on_c, 0, 83, 0
1, 12384, Note_on_c, 0, 81, 48
1, 12384, Note_on_c, 1, 54, 48
1, 12404, Note_on_c, 1, 54, 0
1, 12407, Note_on_c, 0, 81, 0
1, 12408, Note_on_c, 0, 83, 48
1, 12431, Note_on_c, 0, 83, 0
1, 12432, Note_on_c, 0, 81, 48
1, 12432, Note_on_c, 1, 61, 48
1, 12432, Note_on_c, 1, 57, 48
1, 12452, Note_on_c, 1, 61, 0
1, 12452, Note_on_c, 1, 57, 0
1, 12455, Note_on_c, 0, 81, 0
1, 12456, Note_on_c, 0, 80, 48
1, 12479, Note_on_c, 0, 80, 0
1, 12480, Note_on_c, 0, 78, 48
1, 12480, Note_on_c, 1, 61, 48
1, 12480, Note_on_c, 1, 57, 48
1, 12500, Note_on_c, 1, 61, 0
1, 12500, Note_on_c, 1, 57, 0
1, 12503, Note_on_c, 0, 78, 0
1, 12504, Note_on_c, 0, 81, 48
1, 12527, Note_on_c, 0, 81, 0
1, 12528, Note_on_c, 0, 80, 48
1, 12528, Note_on_c, 1, 61, 48
1, 12528, Note_on_c, 1, 57, 48
1, 12548, Note_on_c, 1, 61, 0
1, 12548, Note_on_c, 1, 57, 0
1, 12551, Note_on_c, 0, 80, 0
1, 12552, Note_on_c, 0, 78, 48
1, 12575, Note_on_c, 0, 78, 0
1, 12576, Note_on_c, 0, 77, 48
1, 12576, Note_on_c, 1, 56, 48
1, 12596, Note_on_c, 1, 56, 0
1, 12599, Note_on_c, 0, 77, 0
1, 12600, Note_on_c, 0, 78, 48
1, 12623, Note_on_c, 0, 78, 0
1, 12624, Note_on_c, 0, 80, 48
1, 12624, Note_on_c, 1, 61, 48
1, 12624, Note_on_c, 1, 59, 48
1, 12644, Note_on_c, 1, 61, 0
1, 12644, Note_on_c, 1, 59, 0
1, 12647, Note_on_c, 0, 80, 0
1, 12648, Note_on_c, 0, 77, 48
1, 12671, Note_on_c, 0, 77, 0
1, 12672, Note_on_c, 0, 73, 48
1, 12672, Note_on_c, 1, 61, 48
1, 12672, Note_on_c, 1, 59, 48
1, 12692, Note_on_c, 1, 61, 0
1, 12692, Note_on_c, 1, 59, 0
1, 12695, Note_on_c, 0, 73, 0
1, 12696, Note_on_c, 0, 75, 48
1, 12719, Note_on_c, 0, 75, 0
1, 12720, Note_on_c, 0, 77, 48
1, 12720, Note_on_c, 1, 61, 48
1, 12720, Note_on_c, 1, 59, 48
1, 12740, Note_on_c, 1, 61, 0
1, 12740, Note_on_c, 1, 59, 0
1, 12743, Note_on_c, 0, 77, 0
1, 12744, Note_on_c, 0, 73, 48
1, 12767, Note_on_c, 0, 73, 0
1, 12768, Note_on_c, 0, 78, 48
1, 12768, Note_on_c, 1, 54, 48
1, 12788, Note_on_c, 1, 54, 0
1, 12791, Note_on_c, 0, 78, 0
1, 12792, Note_on_c, 0, 77, 48
1, 12815, Note_on_c, 0, 77, 0
1, 12816, Note_on_c, 0, 78, 48
1, 12816, Note_on_c, 1, 61, 48
1, 12816, Note_on_c, 1, 57, 48
1, 12836, Note_on_c, 1, 61, 0
1, 12836, Note_on_c, 1, 57, 0
1, 12839, Note_on_c, 0, 78, 0
1, 12840, Note_on_c, 0, 80, 48
1, 12863, Note_on_c, 0, 80, 0
1, 12864, Note_on_c, 0, 81, 48
1, 12864, Note_on_c, 1, 61, 48
1, 12864, Note_on_c, 1, 57, 48
1, 12884, Note_on_c, 1, 61, 0
1, 12884, Note_on_c, 1, 57, 0
1, 12887, Note_on_c, 0, 81, 0
1, 12888, Note_on_c, 0, 80, 48
1, 12911, Note_on_c, 0, 80, 0
1, 12912, Note_on_c, 0, 81, 48
1, 12912, Note_on_c, 1, 61, 48
1, 12912, Note_on_c, 1, 57, 48
1, 12932, Note_on_c, 1, 61, 0
1, 12932, Note_on_c, 1, 57, 0
1, 12935, Note_on_c, 0, 81, 0
1, 12936, Note_on_c, 0, 83, 48
1, 12959, Note_on_c, 0, 83, 0
1, 12960, Note_on_c, 0, 85, 48
1, 12960, Note_on_c, 1, 53, 48
1, 12980, Note_on_c, 1, 53, 0
1, 12983, Note_on_c, 0, 85, 0
1, 12984, Note_on_c, 0, 84, 48
1, 13007, Note_on_c, 0, 84, 0
1, 13008, Note_on_c, 0, 85, 48
1, 13008, Note_on_c, 1, 61, 48
1, 13008, Note_on_c, 1, 56, 48
1, 13028, Note_on_c, 1, 61, 0
1, 13028, Note_on_c, 1, 56, 0
1, 13031, Note_on_c, 0, 85, 0
1, 13032, Note_on_c, 0, 84, 48
1, 13055, Note_on_c, 0, 84, 0
1, 13056, Note_on_c, 0, 85, 48
1, 13056, Note_on_c, 1, 61, 48
1, 13056, Note_on_c, 1, 56, 48
1, 13076, Note_on_c, 1, 61, 0
1, 13076, Note_on_c, 1, 56, 0
1, 13079, Note_on_c, 0, 85, 0
1, 13080, Note_on_c, 0, 86, 48
1, 13103, Note_on_c, 0, 86, 0
1, 13104, Note_on_c, 0, 85, 48
1, 13104, Note_on_c, 1, 61, 48
1, 13104, Note_on_c, 1, 56, 48
1, 13124, Note_on_c, 1, 61, 0
1, 13124, Note_on_c, 1, 56, 0
1, 13127, Note_on_c, 0, 85, 0
1, 13128, Note_on_c, 0, 83, 48
1, 13151, Note_on_c, 0, 83, 0
1, 13152, Note_on_c, 0, 81, 48
1, 13152, Note_on_c, 1, 54, 48
1, 13172, Note_on_c, 1, 54, 0
1, 13175, Note_on_c, 0, 81, 0
1, 13176, Note_on_c, 0, 83, 48
1, 13199, Note_on_c, 0, 83, 0
1, 13200, Note_on_c, 0, 81, 48
1, 13200, Note_on_c, 1, 61, 48
1, 13200, Note_on_c, 1, 57, 48
1, 13220, Note_on_c, 1, 61, 0
1, 13220, Note_on_c, 1, 57, 0
1, 13223, Note_on_c, 0, 81, 0
1, 13224, Note_on_c, 0, 80, 48
1, 13247, Note_on_c, 0, 80, 0
1, 13248, Note_on_c, 0, 78, 48
1, 13248, Note_on_c, 1, 61, 48
1, 13248, Note_on_c, 1, 57, 48
1, 13268, Note_on_c, 1, 61, 0
1, 13268, Note_on_c, 1, 57, 0
1, 13271, Note_on_c, 0, 78, 0
1, 13272, Note_on_c, 0, 81, 48
1, 13295, Note_on_c, 0, 81, 0
1, 13296, Note_on_c, 0, 80, 48
1, 13296, Note_on_c, 1, 61, 48
1, 13296, Note_on_c, 1, 57, 48
1, 13316, Note_on_c, 1, 61, 0
1, 13316, Note_on_c, 1, 57, 0
1, 13319, Note_on_c, 0, 80, 0
1, 13320, Note_on_c, 0, 78, 48
1, 13343, Note_on_c, 0, 78, 0
1, 13344, Note_on_c, 0, 76, 48
1, 13344, Note_on_c, 1, 56, 48
1, 13364, Note_on_c, 1, 56, 0
1, 13367, Note_on_c, 0, 76, 0
1, 13368, Note_on_c, 0, 78, 48
1, 13391, Note_on_c, 0, 78, 0
1, 13392, Note_on_c, 0, 80, 48
1, 13392, Note_on_c, 1, 64, 48
1, 13392, Note_on_c, 1, 61, 48
1, 13412, Note_on_c, 1, 64, 0
1, 13412, Note_on_c, 1, 61, 0
1, 13415, Note_on_c, 0, 80, 0
1, 13416, Note_on_c, 0, 76, 48
1, 13439, Note_on_c, 0, 76, 0
1, 13440, Note_on_c, 0, 73, 48
1, 13440, Note_on_c, 1, 64, 48
1, 13440, Note_on_c, 1, 61, 48
1, 13460, Note_on_c, 1, 64, 0
1, 13460, Note_on_c, 1, 61, 0
1, 13463, Note_on_c, 0, 73, 0
1, 13464, Note_on_c, 0, 75, 48
1, 13487, Note_on_c, 0, 75, 0
1, 13488, Note_on_c, 0, 76, 48
1, 13488, Note_on_c, 1, 64, 48
1, 13488, Note_on_c, 1, 61, 48
1, 13508, Note_on_c, 1, 64, 0
1, 13508, Note_on_c, 1, 61, 0
1, 13511, Note_on_c, 0, 76, 0
1, 13512, Note_on_c, 0, 73, 48
1, 13535, Note_on_c, 0, 73, 0
1, 13536, Note_on_c, 0, 75, 48
1, 13536, Note_on_c, 1, 56, 48
1, 13556, Note_on_c, 1, 56, 0
1, 13559, Note_on_c, 0, 75, 0
1, 13560, Note_on_c, 0, 76, 48
1, 13583, Note_on_c, 0, 76, 0
1, 13584, Note_on_c, 0, 78, 48
1, 13584, Note_on_c, 1, 66, 48
1, 13584, Note_on_c, 1, 63, 48
1, 13604, Note_on_c, 1, 66, 0
1, 13604, Note_on_c, 1, 63, 0
1, 13607, Note_on_c, 0, 78, 0
1, 13608, Note_on_c, 0, 75, 48
1, 13631, Note_on_c, 0, 75, 0
1, 13632, Note_on_c, 0, 72, 48
1, 13632, Note_on_c, 1, 66, 48
1, 13632, Note_on_c, 1, 63, 48
1, 13652, Note_on_c, 1, 66, 0
1, 13652, Note_on_c, 1, 63, 0
1, 13655, Note_on_c, 0, 72, 0
1, 13656, Note_on_c, 0, 73, 48
1, 13679, Note_on_c, 0, 73, 0
1, 13680, Note_on_c, 0, 75, 48
1, 13680, Note_on_c, 1, 66, 48
1, 13680, Note_on_c, 1, 63, 48
1, 13700, Note_on_c, 1, 66, 0
1, 13700, Note_on_c, 1, 63, 0
1, 13703, Note_on_c, 0, 75, 0
1, 13704, Note_on_c, 0, 72, 48
1, 13727, Note_on_c, 0, 72, 0
1, 13728, Note_on_c, 0, 71, 48
1, 13728, Note_on_c, 1, 66, 48
1, 13734, Note_on_c, 0, 71, 0
1, 13734, Note_on_c, 0, 73, 48
1, 13734, Note_on_c, 1, 66, 0
1, 13734, Note_on_c, 1, 64, 48
1, 13734, Note_on_c, 1, 61, 48
1, 13817, Note_on_c, 0, 73, 0
1, 13817, Note_on_c, 1, 64, 0
1, 13817, Note_on_c, 1, 61, 0
1, 13824, Tempo, 363636
1, 13824, Note_on_c, 0, 85, 48
1, 13847, Note_on_c, 0, 85, 0
1, 13848, Note_on_c, 0, 86, 48
1, 13871, Note_on_c, 0, 86, 0
1, 13872, Note_on_c, 0, 85, 48
1, 13895, Note_on_c, 0, 85, 0
1, 13896, Note_on_c, 0, 83, 48
1, 13919, Note_on_c, 0, 83, 0
1, 13920, Note_on_c, 0, 81, 48
1, 13920, Note_on_c, 1, 54, 48
1, 13940, Note_on_c, 1, 54, 0
1, 13943, Note_on_c, 0, 81, 0
1, 13944, Note_on_c, 0, 83, 48
1, 13967, Note_on_c, 0, 83, 0
1, 13968, Note_on_c, 0, 81, 48
1, 13968, Note_on_c, 1, 61, 48
1, 13968, Note_on_c, 1, 57, 48
1, 13988, Note_on_c, 1, 61, 0
1, 13988, Note_on_c, 1, 57, 0
1, 13991, Note_on_c, 0, 81, 0
1, 13992, Note_on_c, 0, 80, 48
1, 14015, Note_on_c, 0, 80, 0
1, 14016, Note_on_c, 0, 78, 48
1, 14016, Note_on_c, 1, 61, 48
1, 14016, Note_on_c, 1, 57, 48
1, 14036, Note_on_c, 1, 61, 0
1, 14036, Note_on_c, 1, 57, 0
1, 14039, Note_on_c, 0, 78, 0
1, 14040, Note_on_c, 0, 81, 48
1, 14063, Note_on_c, 0, 81, 0
1, 14064, Note_on_c, 0, 80, 48
1, 14064, Note_on_c, 1, 61, 48
1, 14064, Note_on_c, 1, 57, 48
1, 14084, Note_on_c, 1, 61, 0
1, 14084, Note_on_c, 1, 57, 0
1, 14087, Note_on_c, 0, 80, 0
1, 14088, Note_on_c, 0, 78, 48
1, 14111, Note_on_c, 0, 78, 0
1, 14112, Note_on_c, 0, 77, 48
1, 14112, Note_on_c, 1, 56, 48
1, 14132, Note_on_c, 1, 56, 0
1, 14135, Note_on_c, 0, 77, 0
1, 14136, Note_on_c, 0, 78, 48
1, 14159, Note_on_c, 0, 78, 0
1, 14160, Note_on_c, 0, 80, 48
1, 14160, Note_on_c, 1, 61, 48
1, 14160, Note_on_c, 1, 59, 48
1, 14180, Note_on_c, 1, 61, 0
1, 14180, Note_on_c, 1, 59, 0
1, 14183, Note_on_c, 0, 80, 0
1, 14184, Note_on_c, 0, 77, 48
1, 14207, Note_on_c, 0, 77, 0
1, 14208, Note_on_c, 0, 73, 48
1, 14208, Note_on_c, 1, 61, 48
1, 14208, Note_on_c, 1, 59, 48
1, 14228, Note_on_c, 1, 61, 0
1, 14228, Note_on_c, 1, 59, 0
1, 14231, Note_on_c, 0, 73, 0
1, 14232, Note_on_c, 0, 75, 48
1, 14255, Note_on_c, 0, 75, 0
1, 14256, Note_on_c, 0, 77, 48
1, 14256, Note_on_c, 1, 61, 48
1, 14256, Note_on_c, 1, 59, 48
1, 14276, Note_on_c, 1, 61, 0
1, 14276, Note_on_c, 1, 59, 0
1, 14279, Note_on_c, 0, 77, 0
1, 14280, Note_on_c, 0, 73, 48
1, 14303, Note_on_c, 0, 73, 0
1, 14304, Note_on_c, 0, 78, 48
1, 14304, Note_on_c, 1, 54, 48
1, 14324, Note_on_c, 1, 54, 0
1, 14327, Note_on_c, 0, 78, 0
1, 14328, Note_on_c, 0, 77, 48
1, 14351, Note_on_c, 0, 77, 0
1, 14352, Note_on_c, 0, 78, 48
1, 14352, Note_on_c, 1, 61, 48
1, 14352, Note_on_c, 1, 57, 48
1, 14372, Note_on_c, 1, 61, 0
1, 14372, Note_on_c, 1, 57, 0
1, 14375, Note_on_c, 0, 78, 0
1, 14376, Note_on_c, 0, 80, 48
1, 14399, Note_on_c, 0, 80, 0
1, 14400, Note_on_c, 0, 81, 48
1, 14400, Note_on_c, 1, 61, 48
1, 14400, Note_on_c, 1, 57, 48
1, 14420, Note_on_c, 1, 61, 0
1, 14420, Note_on_c, 1, 57, 0
1, 14423, Note_on_c, 0, 81, 0
1, 14424, Note_on_c, 0, 80, 48
1, 14447, Note_on_c, 0, 80, 0
1, 14448, Note_on_c, 0, 81, 48
1, 14448, Note_on_c, 1, 61, 48
1, 14448, Note_on_c, 1, 57, 48
1, 14468, Note_on_c, 1, 61, 0
1, 14468, Note_on_c, 1, 57, 0
1, 14471, Note_on_c, 0, 81, 0
1, 14472, Note_on_c, 0, 83, 48
1, 14495, Note_on_c, 0, 83, 0
1, 14496, Note_on_c, 0, 85, 48
1, 14496, Note_on_c, 1, 53, 48
1, 14516, Note_on_c, 1, 53, 0
1, 14519, Note_on_c, 0, 85, 0
1, 14520, Note_on_c, 0, 84, 48
1, 14543, Note_on_c, 0, 84, 0
1, 14544, Note_on_c, 0, 85, 48
1, 14544, Note_on_c, 1, 61, 48
1, 14544, Note_on_c, 1, 56, 48
1, 14564, Note_on_c, 1, 61, 0
1, 14564, Note_on_c, 1, 56, 0
1, 14567, Note_on_c, 0, 85, 0
1, 14568, Note_on_c, 0, 84, 48
1, 14591, Note_on_c, 0, 84, 0
1, 14592, Note_on_c, 0, 85, 48
1, 14592, Note_on_c, 1, 61, 48
1, 14592, Note_on_c, 1, 56, 48
1, 14612, Note_on_c, 1, 61, 0
1, 14612, Note_on_c, 1, 56, 0
1, 14615, Note_on_c, 0, 85, 0
1, 14616, Note_on_c, 0, 86, 48
1, 14639, Note_on_c, 0, 86, 0
1, 14640, Note_on_c, 0, 85, 48
1, 14640, Note_on_c, 1, 61, 48
1, 14640, Note_on_c, 1, 56, 48
1, 14660, Note_on_c, 1, 61, 0
1, 14660, Note_on_c, 1, 56, 0
1, 14663, Note_on_c, 0, 85, 0
1, 14664, Note_on_c, 0, 83, 48
1, 14687, Note_on_c, 0, 83, 0
1, 14688, Note_on_c, 0, 81, 48
1, 14688, Note_on_c, 1, 54, 48
1, 14708, Note_on_c, 1, 54, 0
1, 14711, Note_on_c, 0, 81, 0
1, 14712, Note_on_c, 0, 83, 48
1, 14735, Note_on_c, 0, 83, 0
1, 14736, Note_on_c, 0, 81, 48
1, 14736, Note_on_c, 1, 61, 48
1, 14736, Note_on_c, 1, 57, 48
1, 14756, Note_on_c, 1, 61, 0
1, 14756, Note_on_c, 1, 57, 0
1, 14759, Note_on_c, 0, 81, 0
1, 14760, Note_on_c, 0, 80, 48
1, 14783, Note_on_c, 0, 80, 0
1, 14784, Note_on_c, 0, 78, 48
1, 14784, Note_on_c, 1, 61, 48
1, 14784, Note_on_c, 1, 57, 48
1, 14804, Note_on_c, 1, 61, 0
1, 14804, Note_on_c, 1, 57, 0
1, 14807, Note_on_c, 0, 78, 0
1, 14808, Note_on_c, 0, 81, 48
1, 14831, Note_on_c, 0, 81, 0
1, 14832, Note_on_c, 0, 80, 48
1, 14832, Note_on_c, 1, 61, 48
1, 14832, Note_on_c, 1, 57, 48
1, 14852, Note_on_c, 1, 61, 0
1, 14852, Note_on_c, 1, 57, 0
1, 14855, Note_on_c, 0, 80, 0
1, 14856, Note_on_c, 0, 78, 48
1, 14879, Note_on_c, 0, 78, 0
1, 14880, Note_on_c, 0, 76, 48
1, 14880, Note_on_c, 1, 56, 48
1, 14900, Note_on_c, 1, 56, 0
1, 14903, Note_on_c, 0, 76, 0
1, 14904, Note_on_c, 0, 78, 48
1, 14927, Note_on_c, 0, 78, 0
1, 14928, Note_on_c, 0, 80, 48
1, 14928, Note_on_c, 1, 64, 48
1, 14928, Note_on_c, 1, 61, 48
1, 14948, Note_on_c, 1, 64, 0
1, 14948, Note_on_c, 1, 61, 0
1, 14951, Note_on_c, 0, 80, 0
1, 14952, Note_on_c, 0, 76, 48
1, 14975, Note_on_c, 0, 76, 0
1, 14976, Note_on_c, 0, 73, 48
1, 14976, Note_on_c, 1, 64, 48
1, 14976, Note_on_c, 1, 61, 48
1, 14996, Note_on_c, 1, 64, 0
1, 14996, Note_on_c, 1, 61, 0
1, 14999, Note_on_c, 0, 73, 0
1, 15000, Note_on_c, 0, 75, 48
1, 15023, Note_on_c, 0, 75, 0
1, 15024, Note_on_c, 0, 76, 48
1, 15024, Note_on_c, 1, 64, 48
1, 15024, Note_on_c, 1, 61, 48
1, 15044, Note_on_c, 1, 64, 0
1, 15044, Note_on_c, 1, 61, 0
1, 15047, Note_on_c, 0, 76, 0
1, 15048, Note_on_c, 0, 73, 48
1, 15071, Note_on_c, 0, 73, 0
1, 15072, Note_on_c, 0, 75, 48
1, 15072, Note_on_c, 1, 56, 48
1, 15092, Note_on_c, 1, 56, 0
1, 15095, Note_on_c, 0, 75, 0
1, 15096, Note_on_c, 0, 76, 48
1, 15119, Note_on_c, 0, 76, 0
1, 15120, Note_on_c, 0, 78, 48
1, 15120, Note_on_c, 1, 66, 48
1, 15120, Note_on_c, 1, 63, 48
1, 15140, Note_on_c, 1, 66, 0
1, 15140, Note_on_c, 1, 63, 0
1, 15143, Note_on_c, 0, 78, 0
1, 15144, Note_on_c, 0, 75, 48
1, 15167, Note_on_c, 0, 75, 0
1, 15168, Note_on_c, 0, 72, 48
1, 15168, Note_on_c, 1, 66, 48
1, 15168, Note_on_c, 1, 63, 48
1, 15188, Note_on_c, 1, 66, 0
1, 15188, Note_on_c, 1, 63, 0
1, 15191, Note_on_c, 0, 72, 0
1, 15192, Note_on_c, 0, 73, 48
1, 15215, Note_on_c, 0, 73, 0
1, 15216, Note_on_c, 0, 75, 48
1, 15216, Note_on_c, 1, 66, 48
1, 15216, Note_on_c, 1, 63, 48
1, 15236, Note_on_c, 1, 66, 0
1, 15236, Note_on_c, 1, 63, 0
1, 15239, Note_on_c, 0, 75, 0
1, 15240, Note_on_c, 0, 72, 48
1, 15263, Note_on_c, 0, 72, 0
1, 15264, Note_on_c, 0, 71, 48
1, 15264, Note_on_c, 1, 66, 48
1, 15270, Note_on_c, 0, 71, 0
1, 15270, Note_on_c, 0, 73, 48
1, 15270, Note_on_c, 1, 66, 0
1, 15270, Note_on_c, 1, 64, 48
1, 15270, Note_on_c, 1, 61, 48
1, 15353, Note_on_c, 0, 73, 0
1, 15353, Note_on_c, 1, 64, 0
1, 15353, Note_on_c, 1, 61, 0
1, 15360, Note_on_c, 0, 76, 85
1, 15383, Note_on_c, 0, 76, 0
1, 15384, Note_on_c, 0, 74, 85
1, 15407, Note_on_c, 0, 74, 0
1, 15408, Note_on_c, 0, 73, 85
1, 15431, Note_on_c, 0, 73, 0
1, 15432, Note_on_c, 0, 71, 85
1, 15455, Note_on_c, 0, 71, 0
1, 15456, Note_on_c, 0, 69, 85
1, 15456, Note_on_c, 1, 57, 85
1, 15476, Note_on_c, 1, 57, 0
1, 15479, Note_on_c, 0, 69, 0
1, 15480, Note_on_c, 0, 71, 85
1, 15503, Note_on_c, 0, 71, 0
1, 15504, Note_on_c, 0, 73, 85
1, 15504, Note_on_c, 1, 64, 85
1, 15504, Note_on_c, 1, 61, 85
1, 15524, Note_on_c, 1, 64, 0
1, 15524, Note_on_c, 1, 61, 0
1, 15527, Note_on_c, 0, 73, 0
1, 15528, Note_on_c, 0, 74, 85
1, 15551, Note_on_c, 0, 74, 0
1, 15552, Note_on_c, 0, 76, 85
1, 15552, Note_on_c, 1, 64, 85
1, 15552, Note_on_c, 1, 61, 85
1, 15572, Note_on_c, 1, 64, 0
1, 15572, Note_on_c, 1, 61, 0
1, 15575, Note_on_c, 0, 76, 0
1, 15576, Note_on_c, 0, 78, 85
1, 15599, Note_on_c, 0, 78, 0
1, 15600, Note_on_c, 0, 80, 85
1, 15600, Note_on_c, 1, 64, 85
1, 15600, Note_on_c, 1, 61, 85
1, 15620, Note_on_c, 1, 64, 0
1, 15620, Note_on_c, 1, 61, 0
1, 15623, Note_on_c, 0, 80, 0
1, 15624, Note_on_c, 0, 81, 85
1, 15647, Note_on_c, 0, 81, 0
1, 15648, Note_on_c, 0, 81, 85
1, 15648, Note_on_c, 1, 59, 85
1, 15668, Note_on_c, 1, 59, 0
1, 15671, Note_on_c, 0, 81, 0
1, 15672, Note_on_c, 0, 80, 85
1, 15695, Note_on_c, 0, 80, 0
1, 15696, Note_on_c, 0, 78, 85
1, 15696, Note_on_c, 1, 64, 85
1, 15696, Note_on_c, 1, 62, 85
1, 15716, Note_on_c, 1, 64, 0
1, 15716, Note_on_c, 1, 62, 0
1, 15719, Note_on_c, 0, 78, 0
1, 15720, Note_on_c, 0, 76, 85
1, 15743, Note_on_c, 0, 76, 0
1, 15744, Note_on_c, 0, 76, 85
1, 15744, Note_on_c, 1, 56, 85
1, 15764, Note_on_c, 1, 56, 0
1, 15767, Note_on_c, 0, 76, 0
1, 15768, Note_on_c, 0, 74, 85
1, 15791, Note_on_c, 0, 74, 0
1, 15792, Note_on_c, 0, 73, 85
1, 15792, Note_on_c, 1, 64, 85
1, 15792, Note_on_c, 1, 62, 85
1, 15812, Note_on_c, 1, 64, 0
1, 15812, Note_on_c, 1, 62, 0
1, 15815, Note_on_c, 0, 73, 0
1, 15816, Note_on_c, 0, 71, 85
1, 15839, Note_on_c, 0, 71, 0
1, 15840, Note_on_c, 0, 69, 85
1, 15840, Note_on_c, 1, 57, 85
1, 15860, Note_on_c, 1, 57, 0
1, 15863, Note_on_c, 0, 69, 0
1, 15864, Note_on_c, 0, 71, 85
1, 15887, Note_on_c, 0, 71, 0
1, 15888, Note_on_c, 0, 73, 85
1, 15888, Note_on_c, 1, 64, 85
1, 15888, Note_on_c, 1, 61, 85
1, 15908, Note_on_c, 1, 64, 0
1, 15908, Note_on_c, 1, 61, 0
1, 15911, Note_on_c, 0, 73, 0
1, 15912, Note_on_c, 0, 74, 85
1, 15935, Note_on_c, 0, 74, 0
1, 15936, Note_on_c, 0, 76, 85
1, 15936, Note_on_c, 1, 64, 85
1, 15936, Note_on_c, 1, 61, 85
1, 15956, Note_on_c, 1, 64, 0
1, 15956, Note_on_c, 1, 61, 0
1, 15959, Note_on_c, 0, 76, 0
1, 15960, Note_on_c, 0, 78, 85
1, 15983, Note_on_c, 0, 78, 0
1, 15984, Note_on_c, 0, 80, 85
1, 15984, Note_on_c, 1, 64, 85
1, 15984, Note_on_c, 1, 61, 85
1, 16004, Note_on_c, 1, 64, 0
1, 16004, Note_on_c, 1, 61, 0
1, 16007, Note_on_c, 0, 80, 0
1, 16008, Note_on_c, 0, 81, 85
1, 16031, Note_on_c, 0, 81, 0
1, 16032, Note_on_c, 0, 82, 85
1, 16032, Note_on_c, 1, 52, 85
1, 16077, Note_on_c, 0, 82, 0
1, 16077, Note_on_c, 1, 52, 0
1, 16080, Note_on_c, 0, 83, 85
1, 16080, Note_on_c, 1, 62, 85
1, 16080, Note_on_c, 1, 56, 85
1, 16100, Note_on_c, 1, 62, 0
1, 16100, Note_on_c, 1, 56, 0
1, 16125, Note_on_c, 0, 83, 0
1, 16128, Note_on_c, 0, 76, 85
1, 16128, Note_on_c, 1, 62, 85
1, 16128, Note_on_c, 1, 56, 85
1, 16148, Note_on_c, 1, 62, 0
1, 16148, Note_on_c, 1, 56, 0
1, 16151, Note_on_c, 0, 76, 0
1, 16152, Note_on_c, 0, 74, 85
1, 16175, Note_on_c, 0, 74, 0
1, 16176, Note_on_c, 0, 73, 85
1, 16176, Note_on_c, 1, 62, 85
1, 16176, Note_on_c, 1, 56, 85
1, 16196, Note_on_c, 1, 62, 0
1, 16196, Note_on_c, 1, 56, 0
1, 16199, Note_on_c, 0, 73, 0
1, 16200, Note_on_c, 0, 71, 85
1, 16223, Note_on_c, 0, 71, 0
1, 16224, Note_on_c, 0, 69, 85
1, 16224, Note_on_c, 1, 57, 85
1, 16244, Note_on_c, 1, 57, 0
1, 16247, Note_on_c, 0, 69, 0
1, 16248, Note_on_c, 0, 71, 85
1, 16271, Note_on_c, 0, 71, 0
1, 16272, Note_on_c, 0, 73, 85
1, 16272, Note_on_c, 1, 64, 85
1, 16272, Note_on_c, 1, 61, 85
1, 16292, Note_on_c, 1, 64, 0
1, 16292, Note_on_c, 1, 61, 0
1, 16295, Note_on_c, 0, 73, 0
1, 16296, Note_on_c, 0, 74, 85
1, 16319, Note_on_c, 0, 74, 0
1, 16320, Note_on_c, 0, 76, 85
1, 16320, Note_on_c, 1, 64, 85
1, 16320, Note_on_c, 1, 61, 85
1, 16340, Note_on_c, 1, 64, 0
1, 16340, Note_on_c, 1, 61, 0
1, 16343, Note_on_c, 0, 76, 0
1, 16344, Note_on_c, 0, 78, 85
1, 16367, Note_on_c, 0, 78, 0
1, 16368, Note_on_c, 0, 80, 85
1, 16368, Note_on_c, 1, 64, 85
1, 16368, Note_on_c, 1, 61, 85
1, 16388, Note_on_c, 1, 64, 0
1, 16388, Note_on_c, 1, 61, 0
1, 16391, Note_on_c, 0, 80, 0
1, 16392, Note_on_c, 0, 81, 85
1, 16415, Note_on_c, 0, 81, 0
1, 16416, Note_on_c, 0, 81, 85
1, 16416, Note_on_c, 1, 59, 85
1, 16436, Note_on_c, 1, 59, 0
1, 16439, Note_on_c, 0, 81, 0
1, 16440, Note_on_c, 0, 80, 85
1, 16463, Note_on_c, 0, 80, 0
1, 16464, Note_on_c, 0, 78, 85
1, 16464, Note_on_c, 1, 64, 85
1, 16464, Note_on_c, 1, 62, 85
1, 16484, Note_on_c, 1, 64, 0
1, 16484, Note_on_c, 1, 62, 0
1, 16487, Note_on_c, 0, 78, 0
1, 16488, Note_on_c, 0, 76, 85
1, 16511, Note_on_c, 0, 76, 0
1, 16512, Note_on_c, 0, 76, 85
1, 16512, Note_on_c, 1, 56, 85
1, 16532, Note_on_c, 1, 56, 0
1, 16535, Note_on_c, 0, 76, 0
1, 16536, Note_on_c, 0, 74, 85
1, 16559, Note_on_c, 0, 74, 0
1, 16560, Note_on_c, 0, 73, 85
1, 16560, Note_on_c, 1, 64, 85
1, 16560, Note_on_c, 1, 62, 85
1, 16580, Note_on_c, 1, 64, 0
1, 16580, Note_on_c, 1, 62, 0
1, 16583, Note_on_c, 0, 73, 0
1, 16584, Note_on_c, 0, 71, 85
1, 16607, Note_on_c, 0, 71, 0
1, 16608, Note_on_c, 0, 73, 85
1, 16608, Note_on_c, 1, 57, 85
1, 16628, Note_on_c, 1, 57, 0
1, 16631, Note_on_c, 0, 73, 0
1, 16632, Note_on_c, 0, 76, 85
1, 16655, Note_on_c, 0, 76, 0
1, 16656, Note_on_c, 0, 69, 85
1, 16656, Note_on_c, 1, 54, 85
1, 16676, Note_on_c, 1, 54, 0
1, 16679, Note_on_c, 0, 69, 0
1, 16680, Note_on_c, 0, 73, 85
1, 16703, Note_on_c, 0, 73, 0
1, 16704, Note_on_c, 0, 71, 85
1, 16704, Note_on_c, 1, 50, 85
1, 16724, Note_on_c, 1, 50, 0
1, 16727, Note_on_c, 0, 71, 0
1, 16728, Note_on_c, 0, 74, 85
1, 16751, Note_on_c, 0, 74, 0
1, 16752, Note_on_c, 0, 68, 85
1, 16752, Note_on_c, 1, 52, 85
1, 16772, Note_on_c, 1, 52, 0
1, 16775, Note_on_c, 0, 68, 0
1, 16776, Note_on_c, 0, 71, 85
1, 16799, Note_on_c, 0, 71, 0
1, 16800, Note_on_c, 0, 69, 85
1, 16800, Note_on_c, 1, 45, 85
1, 16845, Note_on_c, 1, 45, 0
1, 16848, Note_on_c, 1, 57, 85
1, 16868, Note_on_c, 1, 57, 0
1, 16889, Note_on_c, 0, 69, 0
1, 16896, Note_on_c, 0, 85, 48
1, 16919, Note_on_c, 0, 85, 0
1, 16920, Note_on_c, 0, 86, 48
1, 16943, Note_on_c, 0, 86, 0
1, 16944, Note_on_c, 0, 85, 48
1, 16967, Note_on_c, 0, 85, 0
1, 16968, Note_on_c, 0, 83, 48
1, 16991, Note_on_c, 0, 83, 0
1, 16992, Note_on_c, 0, 81, 48
1, 16992, Note_on_c, 1, 54, 48
1, 17012, Note_on_c, 1, 54, 0
1, 17015, Note_on_c, 0, 81, 0
1, 17016, Note_on_c, 0, 83, 48
1, 17039, Note_on_c, 0, 83, 0
1, 17040, Note_on_c, 0, 81, 48
1, 17040, Note_on_c, 1, 61, 48
1, 17040, Note_on_c, 1, 57, 48
1, 17060, Note_on_c, 1, 61, 0
1, 17060, Note_on_c, 1, 57, 0
1, 17063, Note_on_c, 0, 81, 0
1, 17064, Note_on_c, 0, 80, 48
1, 17087, Note_on_c, 0, 80, 0
1, 17088, Note_on_c, 0, 78, 48
1, 17088, Note_on_c, 1, 61, 48
1, 17088, Note_on_c, 1, 57, 48
1, 17108, Note_on_c, 1, 61, 0
1, 17108, Note_on_c, 1, 57, 0
1, 17111, Note_on_c, 0, 78, 0
1, 17112, Note_on_c, 0, 81, 48
1, 17135, Note_on_c, 0, 81, 0
1, 17136, Note_on_c, 0, 80, 48
1, 17136, Note_on_c, 1, 61, 48
1, 17136, Note_on_c, 1, 57, 48
1, 17156, Note_on_c, 1, 61, 0
1, 17156, Note_on_c, 1, 57, 0
1, 17159, Note_on_c, 0, 80, 0
1, 17160, Note_on_c, 0, 78, 48
1, 17183, Note_on_c, 0, 78, 0
1, 17184, Note_on_c, 0, 77, 48
1, 17184, Note_on_c, 1, 56, 48
1, 17204, Note_on_c, 1, 56, 0
1, 17207, Note_on_c, 0, 77, 0
1, 17208, Note_on_c, 0, 78, 48
1, 17231, Note_on_c, 0, 78, 0
1, 17232, Note_on_c, 0, 80, 48
1, 17232, Note_on_c, 1, 61, 48
1, 17232, Note_on_c, 1, 59, 48
1, 17252, Note_on_c, 1, 61, 0
1, 17252, Note_on_c, 1, 59, 0
1, 17255, Note_on_c, 0, 80, 0
1, 17256, Note_on_c, 0, 77, 48
1, 17279, Note_on_c, 0, 77, 0
1, 17280, Note_on_c, 0, 73, 48
1, 17280, Note_on_c, 1, 61, 48
1, 17280, Note_on_c, 1, 59, 48
1, 17300, Note_on_c, 1, 61, 0
1, 17300, Note_on_c, 1, 59, 0
1, 17303, Note_on_c, 0, 73, 0
1, 17304, Note_on_c, 0, 75, 48
1, 17327, Note_on_c, 0, 75, 0
1, 17328, Note_on_c, 0, 77, 48
1, 17328, Note_on_c, 1, 61, 48
1, 17328, Note_on_c, 1, 59, 48
1, 17348, Note_on_c, 1, 61, 0
1, 17348, Note_on_c, 1, 59, 0
1, 17351, Note_on_c, 0, 77, 0
1, 17352, Note_on_c, 0, 73, 48
1, 17375, Note_on_c, 0, 73, 0
1, 17376, Note_on_c, 0, 78, 48
1, 17376, Note_on_c, 1, 54, 48
1, 17396, Note_on_c, 1, 54, 0
1, 17399, Note_on_c, 0, 78, 0
1, 17400, Note_on_c, 0, 77, 48
1, 17423, Note_on_c, 0, 77, 0
1, 17424, Note_on_c, 0, 78, 48
1, 17424, Note_on_c, 1, 61, 48
1, 17424, Note_on_c, 1, 57, 48
1, 17444, Note_on_c, 1, 61, 0
1, 17444, Note_on_c, 1, 57, 0
1, 17447, Note_on_c, 0, 78, 0
1, 17448, Note_on_c, 0, 80, 48
1, 17471, Note_on_c, 0, 80, 0
1, 17472, Note_on_c, 0, 81, 48
1, 17472, Note_on_c, 1, 61, 48
1, 17472, Note_on_c, 1, 57, 48
1, 17492, Note_on_c, 1, 61, 0
1, 17492, Note_on_c, 1, 57, 0
1, 17495, Note_on_c, 0, 81, 0
1, 17496, Note_on_c, 0, 80, 48
1, 17519, Note_on_c, 0, 80, 0
1, 17520, Note_on_c, 0, 81, 48
1, 17520, Note_on_c, 1, 61, 48
1, 17520, Note_on_c, 1, 57, 48
1, 17540, Note_on_c, 1, 61, 0
1, 17540, Note_on_c, 1, 57, 0
1, 17543, Note_on_c, 0, 81, 0
1, 17544, Note_on_c, 0, 83, 48
1, 17567, Note_on_c, 0, 83, 0
1, 17568, Note_on_c, 0, 85, 48
1, 17568, Note_on_c, 1, 49, 48
1, 17588, Note_on_c, 1, 49, 0
1, 17591, Note_on_c, 0, 85, 0
1, 17592, Note_on_c, 0, 84, 48
1, 17615, Note_on_c, 0, 84, 0
1, 17616, Note_on_c, 0, 85, 48
1, 17616, Note_on_c, 1, 61, 48
1, 17616, Note_on_c, 1, 56, 48
1, 17636, Note_on_c, 1, 61, 0
1, 17636, Note_on_c, 1, 56, 0
1, 17639, Note_on_c, 0, 85, 0
1, 17640, Note_on_c, 0, 84, 48
1, 17663, Note_on_c, 0, 84, 0
1, 17664, Note_on_c, 0, 85, 48
1, 17664, Note_on_c, 1, 61, 48
1, 17664, Note_on_c, 1, 55, 48
1, 17684, Note_on_c, 1, 61, 0
1, 17684, Note_on_c, 1, 55, 0
1, 17687, Note_on_c, 0, 85, 0
1, 17688, Note_on_c, 0, 84, 52
1, 17711, Note_on_c, 0, 84, 0
1, 17712, Note_on_c, 0, 85, 57
1, 17712, Note_on_c, 1, 61, 55
1, 17712, Note_on_c, 1, 54, 55
1, 17732, Note_on_c, 1, 61, 0
1, 17732, Note_on_c, 1, 54, 0
1, 17735, Note_on_c, 0, 85, 0
1, 17736, Note_on_c, 0, 82, 61
1, 17759, Note_on_c, 0, 82, 0
1, 17760, Note_on_c, 0, 86, 66
1, 17760, Note_on_c, 1, 47, 63
1, 17783, Note_on_c, 0, 86, 0
1, 17784, Note_on_c, 0, 85, 71
1, 17805, Note_on_c, 1, 47, 0
1, 17807, Note_on_c, 0, 85, 0
1, 17808, Note_on_c, 0, 86, 71
1, 17808, Note_on_c, 1, 59, 71
1, 17808, Note_on_c, 1, 54, 71
1, 17828, Note_on_c, 1, 59, 0
1, 17828, Note_on_c, 1, 54, 0
1, 17831, Note_on_c, 0, 86, 0
1, 17832, Note_on_c, 0, 85, 71
1, 17855, Note_on_c, 0, 85, 0
1, 17856, Note_on_c, 0, 86, 71
1, 17856, Note_on_c, 1, 59, 71
1, 17856, Note_on_c, 1, 54, 71
1, 17876, Note_on_c, 1, 59, 0
1, 17876, Note_on_c, 1, 54, 0
1, 17879, Note_on_c, 0, 86, 0
1, 17880, Note_on_c, 0, 85, 71
1, 17903, Note_on_c, 0, 85, 0
1, 17904, Note_on_c, 0, 86, 71
1, 17904, Note_on_c, 1, 59, 71
1, 17904, Note_on_c, 1, 54, 71
1, 17924, Note_on_c, 1, 59, 0
1, 17924, Note_on_c, 1, 54, 0
1, 17927, Note_on_c, 0, 86, 0
1, 17928, Note_on_c, 0, 85, 71
1, 17951, Note_on_c, 0, 85, 0
1, 17952, Note_on_c, 0, 86, 71
1, 17952, Note_on_c, 1, 47, 71
1, 17972, Note_on_c, 1, 47, 0
1, 17975, Note_on_c, 0, 86, 0
1, 17976, Note_on_c, 0, 85, 68
1, 17999, Note_on_c, 0, 85, 0
1, 18000, Note_on_c, 0, 83, 65
1, 18000, Note_on_c, 1, 59, 63
1, 18000, Note_on_c, 1, 56, 63
1, 18020, Note_on_c, 1, 59, 0
1, 18020, Note_on_c, 1, 56, 0
1, 18023, Note_on_c, 0, 83, 0
1, 18024, Note_on_c, 0, 81, 62
1, 18047, Note_on_c, 0, 81, 0
1, 18048, Note_on_c, 0, 80, 59
1, 18048, Note_on_c, 1, 59, 55
1, 18048, Note_on_c, 1, 56, 55
1, 18068, Note_on_c, 1, 59, 0
1, 18068, Note_on_c, 1, 56, 0
1, 18071, Note_on_c, 0, 80, 0
1, 18072, Note_on_c, 0, 81, 56
1, 18095, Note_on_c, 0, 81, 0
1, 18096, Note_on_c, 0, 83, 53
1, 18096, Note_on_c, 1, 59, 48
1, 18096, Note_on_c, 1, 56, 48
1, 18116, Note_on_c, 1, 59, 0
1, 18116, Note_on_c, 1, 56, 0
1, 18119, Note_on_c, 0, 83, 0
1, 18120, Note_on_c, 0, 80, 50
1, 18143, Note_on_c, 0, 80, 0
1, 18144, Note_on_c, 0, 81, 48
1, 18144, Note_on_c, 1, 49, 48
1, 18164, Note_on_c, 1, 49, 0
1, 18167, Note_on_c, 0, 81, 0
1, 18168, Note_on_c, 0, 83, 48
1, 18191, Note_on_c, 0, 83, 0
1, 18192, Note_on_c, 0, 85, 48
1, 18192, Note_on_c, 1, 57, 48
1, 18192, Note_on_c, 1, 54, 48
1, 18212, Note_on_c, 1, 57, 0
1, 18212, Note_on_c, 1, 54, 0
1, 18215, Note_on_c, 0, 85, 0
1, 18216, Note_on_c, 0, 78, 48
1, 18239, Note_on_c, 0, 78, 0
1, 18240, Note_on_c, 0, 77, 48
1, 18240, Note_on_c, 1, 49, 48
1, 18260, Note_on_c, 1, 49, 0
1, 18263, Note_on_c, 0, 77, 0
1, 18264, Note_on_c, 0, 78, 48
1, 18287, Note_on_c, 0, 78, 0
1, 18288, Note_on_c, 0, 80, 48
1, 18288, Note_on_c, 1, 59, 48
1, 18288, Note_on_c, 1, 56, 48
1, 18308, Note_on_c, 1, 59, 0
1, 18308, Note_on_c, 1, 56, 0
1, 18311, Note_on_c, 0, 80, 0
1, 18312, Note_on_c, 0, 77, 48
1, 18335, Note_on_c, 0, 77, 0
1, 18336, Note_on_c, 0, 78, 48
1, 18336, Note_on_c, 1, 57, 48
1, 18336, Note_on_c, 1, 54, 48
1, 18425, Note_on_c, 0, 78, 0
1, 18425, Note_on_c, 1, 57, 0
1, 18425, Note_on_c, 1, 54, 0
1, 18432, Note_on_c, 0, 76, 85
1, 18455, Note_on_c, 0, 76, 0
1, 18456, Note_on_c, 0, 74, 85
1, 18479, Note_on_c, 0, 74, 0
1, 18480, Note_on_c, 0, 73, 85
1, 18503, Note_on_c, 0, 73, 0
1, 18504, Note_on_c, 0, 71, 85
1, 18527, Note_on_c, 0, 71, 0
1, 18528, Note_on_c, 0, 69, 85
1, 18528, Note_on_c, 1, 57, 85
1, 18548, Note_on_c, 1, 57, 0
1, 18551, Note_on_c, 0, 69, 0
1, 18552, Note_on_c, 0, 71, 85
1, 18575, Note_on_c, 0, 71, 0
1, 18576, Note_on_c, 0, 73, 85
1, 18576, Note_on_c, 1, 64, 85
1, 18576, Note_on_c, 1, 61, 85
1, 18596, Note_on_c, 1, 64, 0
1, 18596, Note_on_c, 1, 61, 0
1, 18599, Note_on_c, 0, 73, 0
1, 18600, Note_on_c, 0, 74, 85
1, 18623, Note_on_c, 0, 74, 0
1, 18624, Note_on_c, 0, 76, 85
1, 18624, Note_on_c, 1, 64, 85
1, 18624, Note_on_c, 1, 61, 85
1, 18644, Note_on_c, 1, 64, 0
1, 18644, Note_on_c, 1, 61, 0
1, 18647, Note_on_c, 0, 76, 0
1, 18648, Note_on_c, 0, 78, 85
1, 18671, Note_on_c, 0, 78, 0
1, 18672, Note_on_c, 0, 80, 85
1, 18672, Note_on_c, 1, 64, 85
1, 18672, Note_on_c, 1, 61, 85
1, 18692, Note_on_c, 1, 64, 0
1, 18692, Note_on_c, 1, 61, 0
1, 18695, Note_on_c, 0, 80, 0
1, 18696, Note_on_c, 0, 81, 85
1, 18719, Note_on_c, 0, 81, 0
1, 18720, Note_on_c, 0, 81, 85
1, 18720, Note_on_c, 1, 59, 85
1, 18740, Note_on_c, 1, 59, 0
1, 18743, Note_on_c, 0, 81, 0
1, 18744, Note_on_c, 0, 80, 85
1, 18767, Note_on_c, 0, 80, 0
1, 18768, Note_on_c, 0, 78, 85
1, 18768, Note_on_c, 1, 64, 85
1, 18768, Note_on_c, 1, 62, 85
1, 18788, Note_on_c, 1, 64, 0
1, 18788, Note_on_c, 1, 62, 0
1, 18791, Note_on_c, 0, 78, 0
1, 18792, Note_on_c, 0, 76, 85
1, 18815, Note_on_c, 0, 76, 0
1, 18816, Note_on_c, 0, 76, 85
1, 18816, Note_on_c, 1, 56, 85
1, 18836, Note_on_c, 1, 56, 0
1, 18839, Note_on_c, 0, 76, 0
1, 18840, Note_on_c, 0, 74, 85
1, 18863, Note_on_c, 0, 74, 0
1, 18864, Note_on_c, 0, 73, 85
1, 18864, Note_on_c, 1, 64, 85
1, 18864, Note_on_c, 1, 62, 85
1, 18884, Note_on_c, 1, 64, 0
1, 18884, Note_on_c, 1, 62, 0
1, 18887, Note_on_c, 0, 73, 0
1, 18888, Note_on_c, 0, 71, 85
1, 18911, Note_on_c, 0, 71, 0
1, 18912, Note_on_c, 0, 69, 85
1, 18912, Note_on_c, 1, 57, 85
1, 18932, Note_on_c, 1, 57, 0
1, 18935, Note_on_c, 0, 69, 0
1, 18936, Note_on_c, 0, 71, 85
1, 18959, Note_on_c, 0, 71, 0
1, 18960, Note_on_c, 0, 73, 85
1, 18960, Note_on_c, 1, 64, 85
1, 18960, Note_on_c, 1, 61, 85
1, 18980, Note_on_c, 1, 64, 0
1, 18980, Note_on_c, 1, 61, 0
1, 18983, Note_on_c, 0, 73, 0
1, 18984, Note_on_c, 0, 74, 85
1, 19007, Note_on_c, 0, 74, 0
1, 19008, Note_on_c, 0, 76, 85
1, 19008, Note_on_c, 1, 64, 85
1, 19008, Note_on_c, 1, 61, 85
1, 19028, Note_on_c, 1, 64, 0
1, 19028, Note_on_c, 1, 61, 0
1, 19031, Note_on_c, 0, 76, 0
1, 19032, Note_on_c, 0, 78, 85
1, 19055, Note_on_c, 0, 78, 0
1, 19056, Note_on_c, 0, 80, 85
1, 19056, Note_on_c, 1, 64, 85
1, 19056, Note_on_c, 1, 61, 85
1, 19076, Note_on_c, 1, 64, 0
1, 19076, Note_on_c, 1, 61, 0
1, 19079, Note_on_c, 0, 80, 0
1, 19080, Note_on_c, 0, 81, 85
1, 19103, Note_on_c, 0, 81, 0
1, 19104, Note_on_c, 0, 82, 85
1, 19104, Note_on_c, 1, 52, 85
1, 19149, Note_on_c, 0, 82, 0
1, 19149, Note_on_c, 1, 52, 0
1, 19152, Note_on_c, 0, 83, 85
1, 19152, Note_on_c, 1, 62, 85
1, 19152, Note_on_c, 1, 56, 85
1, 19172, Note_on_c, 1, 62, 0
1, 19172, Note_on_c, 1, 56, 0
1, 19197, Note_on_c, 0, 83, 0
1, 19200, Note_on_c, 0, 76, 85
1, 19200, Note_on_c, 1, 62, 85
1, 19200, Note_on_c, 1, 56, 85
1, 19220, Note_on_c, 1, 62, 0
1, 19220, Note_on_c, 1, 56, 0
1, 19223, Note_on_c, 0, 76, 0
1, 19224, Note_on_c, 0, 74, 85
1, 19247, Note_on_c, 0, 74, 0
1, 19248, Note_on_c, 0, 73, 85
1, 19248, Note_on_c, 1, 62, 85
1, 19248, Note_on_c, 1, 56, 85
1, 19268, Note_on_c, 1, 62, 0
1, 19268, Note_on_c, 1, 56, 0
1, 19271, Note_on_c, 0, 73, 0
1, 19272, Note_on_c, 0, 71, 85
1, 19295, Note_on_c, 0, 71, 0
1, 19296, Note_on_c, 0, 69, 85
1, 19296, Note_on_c, 1, 57, 85
1, 19316, Note_on_c, 1, 57, 0
1, 19319, Note_on_c, 0, 69, 0
1, 19320, Note_on_c, 0, 71, 85
1, 19343, Note_on_c, 0, 71, 0
1, 19344, Note_on_c, 0, 73, 85
1, 19344, Note_on_c, 1, 64, 85
1, 19344, Note_on_c, 1, 61, 85
1, 19364, Note_on_c, 1, 64, 0
1, 19364, Note_on_c, 1, 61, 0
1, 19367, Note_on_c, 0, 73, 0
1, 19368, Note_on_c, 0, 74, 85
1, 19391, Note_on_c, 0, 74, 0
1, 19392, Note_on_c, 0, 76, 85
1, 19392, Note_on_c, 1, 64, 85
1, 19392, Note_on_c, 1, 61, 85
1, 19412, Note_on_c, 1, 64, 0
1, 19412, Note_on_c, 1, 61, 0
1, 19415, Note_on_c, 0, 76, 0
1, 19416, Note_on_c, 0, 78, 85
1, 19439, Note_on_c, 0, 78, 0
1, 19440, Note_on_c, 0, 80, 85
1, 19440, Note_on_c, 1, 64, 85
1, 19440, Note_on_c, 1, 61, 85
1, 19460, Note_on_c, 1, 64, 0
1, 19460, Note_on_c, 1, 61, 0
1, 19463, Note_on_c, 0, 80, 0
1, 19464, Note_on_c, 0, 81, 85
1, 19487, Note_on_c, 0, 81, 0
1, 19488, Note_on_c, 0, 81, 85
1, 19488, Note_on_c, 1, 59, 85
1, 19508, Note_on_c, 1, 59, 0
1, 19511, Note_on_c, 0, 81, 0
1, 19512, Note_on_c, 0, 80, 85
1, 19535, Note_on_c, 0, 80, 0
1, 19536, Note_on_c, 0, 78, 85
1, 19536, Note_on_c, 1, 64, 85
1, 19536, Note_on_c, 1, 62, 85
1, 19556, Note_on_c, 1, 64, 0
1, 19556, Note_on_c, 1, 62, 0
1, 19559, Note_on_c, 0, 78, 0
1, 19560, Note_on_c, 0, 76, 85
1, 19583, Note_on_c, 0, 76, 0
1, 19584, Note_on_c, 0, 76, 85
1, 19584, Note_on_c, 1, 56, 85
1, 19604, Note_on_c, 1, 56, 0
1, 19607, Note_on_c, 0, 76, 0
1, 19608, Note_on_c, 0, 74, 85
1, 19631, Note_on_c, 0, 74, 0
1, 19632, Note_on_c, 0, 73, 85
1, 19632, Note_on_c, 1, 64, 85
1, 19632, Note_on_c, 1, 62, 85
1, 19652, Note_on_c, 1, 64, 0
1, 19652, Note_on_c, 1, 62, 0
1, 19655, Note_on_c, 0, 73, 0
1, 19656, Note_on_c, 0, 71, 85
1, 19679, Note_on_c, 0, 71, 0
1, 19680, Note_on_c, 0, 73, 85
1, 19680, Note_on_c, 1, 57, 85
1, 19700, Note_on_c, 1, 57, 0
1, 19703, Note_on_c, 0, 73, 0
1, 19704, Note_on_c, 0, 76, 85
1, 19727, Note_on_c, 0, 76, 0
1, 19728, Note_on_c, 0, 69, 85
1, 19728, Note_on_c, 1, 54, 85
1, 19748, Note_on_c, 1, 54, 0
1, 19751, Note_on_c, 0, 69, 0
1, 19752, Note_on_c, 0, 73, 85
1, 19775, Note_on_c, 0, 73, 0
1, 19776, Note_on_c, 0, 71, 85
1, 19776, Note_on_c, 1, 50, 85
1, 19796, Note_on_c, 1, 50, 0
1, 19799, Note_on_c, 0, 71, 0
1, 19800, Note_on_c, 0, 74, 85
1, 19823, Note_on_c, 0, 74, 0
1, 19824, Note_on_c, 0, 68, 85
1, 19824, Note_on_c, 1, 52, 85
1, 19844, Note_on_c, 1, 52, 0
1, 19847, Note_on_c, 0, 68, 0
1, 19848, Note_on_c, 0, 71, 85
1, 19871, Note_on_c, 0, 71, 0
1, 19872, Note_on_c, 0, 69, 85
1, 19872, Note_on_c, 1, 45, 85
1, 19917, Note_on_c, 1, 45, 0
1, 19920, Note_on_c, 1, 57, 85
1, 19940, Note_on_c, 1, 57, 0
1, 19961, Note_on_c, 0, 69, 0
1, 19968, Note_on_c, 0, 85, 48
1, 19991, Note_on_c, 0, 85, 0
1, 19992, Note_on_c, 0, 86, 48
1, 20015, Note_on_c, 0, 86, 0
1, 20016, Note_on_c, 0, 85, 48
1, 20039, Note_on_c, 0, 85, 0
1, 20040, Note_on_c, 0, 83, 48
1, 20063, Note_on_c, 0, 83, 0
1, 20064, Note_on_c, 0, 81, 48
1, 20064, Note_on_c, 1, 54, 48
1, 20084, Note_on_c, 1, 54, 0
1, 20087, Note_on_c, 0, 81, 0
1, 20088, Note_on_c, 0, 83, 48
1, 20111, Note_on_c, 0, 83, 0
1, 20112, Note_on_c, 0, 81, 48
1, 20112, Note_on_c, 1, 61, 48
1, 20112, Note_on_c, 1, 57, 48
1, 20132, Note_on_c, 1, 61, 0
1, 20132, Note_on_c, 1, 57, 0
1, 20135, Note_on_c, 0, 81, 0
1, 20136, Note_on_c, 0, 80, 48
1, 20159, Note_on_c, 0, 80, 0
1, 20160, Note_on_c, 0, 78, 48
1, 20160, Note_on_c, 1, 61, 48
1, 20160, Note_on_c, 1, 57, 48
1, 20180, Note_on_c, 1, 61, 0
1, 20180, Note_on_c, 1, 57, 0
1, 20183, Note_on_c, 0, 78, 0
1, 20184, Note_on_c, 0, 81, 48
1, 20207, Note_on_c, 0, 81, 0
1, 20208, Note_on_c, 0, 80, 48
1, 20208, Note_on_c, 1, 61, 48
1, 20208, Note_on_c, 1, 57, 48
1, 20228, Note_on_c, 1, 61, 0
1, 20228, Note_on_c, 1, 57, 0
1, 20231, Note_on_c, 0, 80, 0
1, 20232, Note_on_c, 0, 78, 48
1, 20255, Note_on_c, 0, 78, 0
1, 20256, Note_on_c, 0, 77, 48
1, 20256, Note_on_c, 1, 56, 48
1, 20276, Note_on_c, 1, 56, 0
1, 20279, Note_on_c, 0, 77, 0
1, 20280, Note_on_c, 0, 78, 48
1, 20303, Note_on_c, 0, 78, 0
1, 20304, Note_on_c, 0, 80, 48
1, 20304, Note_on_c, 1, 61, 48
1, 20304, Note_on_c, 1, 59, 48
1, 20324, Note_on_c, 1, 61, 0
1, 20324, Note_on_c, 1, 59, 0
1, 20327, Note_on_c, 0, 80, 0
1, 20328, Note_on_c, 0, 77, 48
1, 20351, Note_on_c, 0, 77, 0
1, 20352, Note_on_c, 0, 73, 48
1, 20352, Note_on_c, 1, 61, 48
1, 20352, Note_on_c, 1, 59, 48
1, 20372, Note_on_c, 1, 61, 0
1, 20372, Note_on_c, 1, 59, 0
1, 20375, Note_on_c, 0, 73, 0
1, 20376, Note_on_c, 0, 75, 48
1, 20399, Note_on_c, 0, 75, 0
1, 20400, Note_on_c, 0, 77, 48
1, 20400, Note_on_c, 1, 61, 48
1, 20400, Note_on_c, 1, 59, 48
1, 20420, Note_on_c, 1, 61, 0
1, 20420, Note_on_c, 1, 59, 0
1, 20423, Note_on_c, 0, 77, 0
1, 20424, Note_on_c, 0, 73, 48
1, 20447, Note_on_c, 0, 73, 0
1, 20448, Note_on_c, 0, 78, 48
1, 20448, Note_on_c, 1, 54, 48
1, 20468, Note_on_c, 1, 54, 0
1, 20471, Note_on_c, 0, 78, 0
1, 20472, Note_on_c, 0, 77, 48
1, 20495, Note_on_c, 0, 77, 0
1, 20496, Note_on_c, 0, 78, 48
1, 20496, Note_on_c, 1, 61, 48
1, 20496, Note_on_c, 1, 57, 48
1, 20516, Note_on_c, 1, 61, 0
1, 20516, Note_on_c, 1, 57, 0
1, 20519, Note_on_c, 0, 78, 0
1, 20520, Note_on_c, 0, 80, 48
1, 20543, Note_on_c, 0, 80, 0
1, 20544, Note_on_c, 0, 81, 48
1, 20544, Note_on_c, 1, 61, 48
1, 20544, Note_on_c, 1, 57, 48
1, 20564, Note_on_c, 1, 61, 0
1, 20564, Note_on_c, 1, 57, 0
1, 20567, Note_on_c, 0, 81, 0
1, 20568, Note_on_c, 0, 80, 48
1, 20591, Note_on_c, 0, 80, 0
1, 20592, Note_on_c, 0, 81, 48
1, 20592, Note_on_c, 1, 61, 48
1, 20592, Note_on_c, 1, 57, 48
1, 20612, Note_on_c, 1, 61, 0
1, 20612, Note_on_c, 1, 57, 0
1, 20615, Note_on_c, 0, 81, 0
1, 20616, Note_on_c, 0, 83, 48
1, 20639, Note_on_c, 0, 83, 0
1, 20640, Note_on_c, 0, 85, 48
1, 20640, Note_on_c, 1, 49, 48
1, 20660, Note_on_c, 1, 49, 0
1, 20663, Note_on_c, 0, 85, 0
1, 20664, Note_on_c, 0, 84, 48
1, 20687, Note_on_c, 0, 84, 0
1, 20688, Note_on_c, 0, 85, 48
1, 20688, Note_on_c, 1, 61, 48
1, 20688, Note_on_c, 1, 56, 48
1, 20708, Note_on_c, 1, 61, 0
1, 20708, Note_on_c, 1, 56, 0
1, 20711, Note_on_c, 0, 85, 0
1, 20712, Note_on_c, 0, 84, 48
1, 20735, Note_on_c, 0, 84, 0
1, 20736, Note_on_c, 0, 85, 48
1, 20736, Note_on_c, 1, 61, 48
1, 20736, Note_on_c, 1, 55, 48
1, 20756, Note_on_c, 1, 61, 0
1, 20756, Note_on_c, 1, 55, 0
1, 20759, Note_on_c, 0, 85, 0
1, 20760, Note_on_c, 0, 84, 52
1, 20783, Note_on_c, 0, 84, 0
1, 20784, Note_on_c, 0, 85, 57
1, 20784, Note_on_c, 1, 61, 55
1, 20784, Note_on_c, 1, 54, 55
1, 20804, Note_on_c, 1, 61, 0
1, 20804, Note_on_c, 1, 54, 0
1, 20807, Note_on_c, 0, 85, 0
1, 20808, Note_on_c, 0, 82, 61
1, 20831, Note_on_c, 0, 82, 0
1, 20832, Note_on_c, 0, 86, 66
1, 20832, Note_on_c, 1, 47, 63
1, 20855, Note_on_c, 0, 86, 0
1, 20856, Note_on_c, 0, 85, 71
1, 20877, Note_on_c, 1, 47, 0
1, 20879, Note_on_c, 0, 85, 0
1, 20880, Note_on_c, 0, 86, 71
1, 20880, Note_on_c, 1, 59, 71
1, 20880, Note_on_c, 1, 54, 71
1, 20900, Note_on_c, 1, 59, 0
1, 20900, Note_on_c, 1, 54, 0
1, 20903, Note_on_c, 0, 86, 0
1, 20904, Note_on_c, 0, 85, 71
1, 20927, Note_on_c, 0, 85, 0
1, 20928, Note_on_c, 0, 86, 71
1, 20928, Note_on_c, 1, 59, 71
1, 20928, Note_on_c, 1, 54, 71
1, 20948, Note_on_c, 1, 59, 0
1, 20948, Note_on_c, 1, 54, 0
1, 20951, Note_on_c, 0, 86, 0
1, 20952, Note_on_c, 0, 85, 71
1, 20975, Note_on_c, 0, 85, 0
1, 20976, Note_on_c, 0, 86, 71
1, 20976, Note_on_c, 1, 59, 71
1, 20976, Note_on_c, 1, 54, 71
1, 20996, Note_on_c, 1, 59, 0
1, 20996, Note_on_c, 1, 54, 0
1, 20999, Note_on_c, 0, 86, 0
1, 21000, Note_on_c, 0, 85, 71
1, 21023, Note_on_c, 0, 85, 0
1, 21024, Note_on_c, 0, 86, 71
1, 21024, Note_on_c, 1, 47, 71
1, 21044, Note_on_c, 1, 47, 0
1, 21047, Note_on_c, 0, 86, 0
1, 21048, Note_on_c, 0, 85, 68
1, 21071, Note_on_c, 0, 85, 0
1, 21072, Note_on_c, 0, 83, 65
1, 21072, Note_on_c, 1, 59, 63
1, 21072, Note_on_c, 1, 56, 63
1, 21092, Note_on_c, 1, 59, 0
1, 21092, Note_on_c, 1, 56, 0
1, 21095, Note_on_c, 0, 83, 0
1, 21096, Note_on_c, 0, 81, 62
1, 21119, Note_on_c, 0, 81, 0
1, 21120, Note_on_c, 0, 80, 59
1, 21120, Note_on_c, 1, 59, 55
1, 21120, Note_on_c, 1, 56, 55
1, 21140, Note_on_c, 1, 59, 0
1, 21140, Note_on_c, 1, 56, 0
1, 21143, Note_on_c, 0, 80, 0
1, 21144, Note_on_c, 0, 81, 56
1, 21167, Note_on_c, 0, 81, 0
1, 21168, Note_on_c, 0, 83, 53
1, 21168, Note_on_c, 1, 59, 48
1, 21168, Note_on_c, 1, 56, 48
1, 21188, Note_on_c, 1, 59, 0
1, 21188, Note_on_c, 1, 56, 0
1, 21191, Note_on_c, 0, 83, 0
1, 21192, Note_on_c, 0, 80, 50
1, 21215, Note_on_c, 0, 80, 0
1, 21216, Note_on_c, 0, 81, 48
1, 21216, Note_on_c, 1, 49, 48
1, 21236, Note_on_c, 1, 49, 0
1, 21239, Note_on_c, 0, 81, 0
1, 21240, Note_on_c, 0, 83, 48
1, 21263, Note_on_c, 0, 83, 0
1, 21264, Note_on_c, 0, 85, 48
1, 21264, Note_on_c, 1, 57, 48
1, 21264, Note_on_c, 1, 54, 48
1, 21284, Note_on_c, 1, 57, 0
1, 21284, Note_on_c, 1, 54, 0
1, 21287, Note_on_c, 0, 85, 0
1, 21288, Note_on_c, 0, 78, 48
1, 21311, Note_on_c, 0, 78, 0
1, 21312, Note_on_c, 0, 77, 48
1, 21312, Note_on_c, 1, 49, 48
1, 21332, Note_on_c, 1, 49, 0
1, 21335, Note_on_c, 0, 77, 0
1, 21336, Note_on_c, 0, 78, 48
1, 21359, Note_on_c, 0, 78, 0
1, 21360, Note_on_c, 0, 80, 48
1, 21360, Note_on_c, 1, 59, 48
1, 21360, Note_on_c, 1, 56, 48
1, 21380, Note_on_c, 1, 59, 0
1, 21380, Note_on_c, 1, 56, 0
1, 21383, Note_on_c, 0, 80, 0
1, 21384, Note_on_c, 0, 77, 48
1, 21407, Note_on_c, 0, 77, 0
1, 21408, Note_on_c, 0, 78, 48
1, 21408, Note_on_c, 1, 57, 48
1, 21408, Note_on_c, 1, 54, 48
1, 21497, Note_on_c, 0, 78, 0
1, 21497, Note_on_c, 1, 57, 0
1, 21497, Note_on_c, 1, 54, 0
1, 21504, Tempo, 400000
1, 21504, Note_on_c, 0, 81, 85
1, 21504, Note_on_c, 0, 69, 85
1, 21549, Note_on_c, 0, 81, 0
1, 21549, Note_on_c, 0, 69, 0
1, 21552, Note_on_c, 0, 83, 85
1, 21552, Note_on_c, 0, 71, 85
1, 21597, Note_on_c, 0, 83, 0
1, 21597, Note_on_c, 0, 71, 0
1, 21600, Note_on_c, 0, 85, 85
1, 21600, Note_on_c, 0, 73, 85
1, 21600, Note_on_c, 1, 45, 85
1, 21606, Note_on_c, 1, 45, 0
1, 21606, Note_on_c, 1, 49, 85
1, 21612, Note_on_c, 1, 49, 0
1, 21612, Note_on_c, 1, 52, 85
1, 21618, Note_on_c, 1, 52, 0
1, 21618, Note_on_c, 1, 57, 85
1, 21645, Note_on_c, 1, 57, 0
1, 21648, Note_on_c, 1, 57, 85
1, 21668, Note_on_c, 1, 57, 0
1, 21694, Note_on_c, 0, 85, 0
1, 21694, Note_on_c, 0, 73, 0
1, 21696, Note_on_c, 0, 81, 85
1, 21696, Note_on_c, 0, 69, 85
1, 21696, Note_on_c, 1, 57, 85
1, 21716, Note_on_c, 0, 81, 0
1, 21716, Note_on_c, 0, 69, 0
1, 21716, Note_on_c, 1, 57, 0
1, 21744, Note_on_c, 0, 83, 85
1, 21744, Note_on_c, 0, 71, 85
1, 21744, Note_on_c, 1, 57, 85
1, 21764, Note_on_c, 0, 83, 0
1, 21764, Note_on_c, 0, 71, 0
1, 21764, Note_on_c, 1, 57, 0
1, 21792, Note_on_c, 0, 85, 85
1, 21792, Note_on_c, 0, 73, 85
1, 21792, Note_on_c, 1, 45, 85
1, 21798, Note_on_c, 1, 45, 0
1, 21798, Note_on_c, 1, 49, 85
1, 21804, Note_on_c, 1, 49, 0
1, 21804, Note_on_c, 1, 52, 85
1, 21810, Note_on_c, 1, 52, 0
1, 21810, Note_on_c, 1, 57, 85
1, 21812, Note_on_c, 0, 85, 0
1, 21812, Note_on_c, 0, 73, 0
1, 21837, Note_on_c, 1, 57, 0
1, 21840, Note_on_c, 0, 83, 85
1, 21840, Note_on_c, 0, 71, 85
1, 21840, Note_on_c, 1, 57, 85
1, 21860, Note_on_c, 0, 83, 0
1, 21860, Note_on_c, 0, 71, 0
1, 21860, Note_on_c, 1, 57, 0
1, 21888, Note_on_c, 0, 81, 85
1, 21888, Note_on_c, 0, 69, 85
1, 21888, Note_on_c, 1, 57, 85
1, 21908, Note_on_c, 0, 81, 0
1, 21908, Note_on_c, 0, 69, 0
1, 21908, Note_on_c, 1, 57, 0
1, 21936, Note_on_c, 0, 80, 85
1, 21936, Note_on_c, 0, 68, 85
1, 21936, Note_on_c, 1, 57, 85
1, 21956, Note_on_c, 0, 80, 0
1, 21956, Note_on_c, 0, 68, 0
1, 21956, Note_on_c, 1, 57, 0
1, 21984, Note_on_c, 0, 78, 85
1, 21984, Note_on_c, 0, 66, 85
1, 21984, Note_on_c, 1, 38, 85
1, 21990, Note_on_c, 1, 38, 0
1, 21990, Note_on_c, 1, 42, 85
1, 21996, Note_on_c, 1, 42, 0
1, 21996, Note_on_c, 1, 45, 85
1, 22002, Note_on_c, 1, 45, 0
1, 22002, Note_on_c, 1, 50, 85
1, 22004, Note_on_c, 0, 78, 0
1, 22004, Note_on_c, 0, 66, 0
1, 22029, Note_on_c, 1, 50, 0
1, 22032, Note_on_c, 0, 80, 85
1, 22032, Note_on_c, 0, 68, 85
1, 22032, Note_on_c, 1, 50, 85
1, 22052, Note_on_c, 0, 80, 0
1, 22052, Note_on_c, 0, 68, 0
1, 22052, Note_on_c, 1, 50, 0
1, 22080, Note_on_c, 0, 81, 85
1, 22080, Note_on_c, 0, 69, 85
1, 22080, Note_on_c, 1, 39, 85
1, 22086, Note_on_c, 1, 39, 0
1, 22086, Note_on_c, 1, 42, 85
1, 22092, Note_on_c, 1, 42, 0
1, 22092, Note_on_c, 1, 45, 85
1, 22098, Note_on_c, 1, 45, 0
1, 22098, Note_on_c, 1, 51, 85
1, 22100, Note_on_c, 0, 81, 0
1, 22100, Note_on_c, 0, 69, 0
1, 22125, Note_on_c, 1, 51, 0
1, 22128, Note_on_c, 0, 83, 85
1, 22128, Note_on_c, 0, 71, 85
1, 22128, Note_on_c, 1, 51, 85
1, 22148, Note_on_c, 0, 83, 0
1, 22148, Note_on_c, 0, 71, 0
1, 22148, Note_on_c, 1, 51, 0
1, 22176, Note_on_c, 0, 80, 85
1, 22176, Note_on_c, 0, 68, 85
1, 22176, Note_on_c, 1, 40, 85
1, 22182, Note_on_c, 1, 40, 0
1, 22182, Note_on_c, 1, 44, 85
1, 22188, Note_on_c, 1, 44, 0
1, 22188, Note_on_c, 1, 47, 85
1, 22194, Note_on_c, 1, 47, 0
1, 22194, Note_on_c, 1, 52, 85
1, 22196, Note_on_c, 0, 80, 0
1, 22196, Note_on_c, 0, 68, 0
1, 22221, Note_on_c, 1, 52, 0
1, 22224, Note_on_c, 0, 76, 85
1, 22224, Note_on_c, 0, 64, 85
1, 22224, Note_on_c, 1, 52, 85
1, 22244, Note_on_c, 0, 76, 0
1, 22244, Note_on_c, 0, 64, 0
1, 22244, Note_on_c, 1, 52, 0
1, 22272, Note_on_c, 0, 81, 85
1, 22272, Note_on_c, 0, 69, 85
1, 22272, Note_on_c, 1, 52, 85
1, 22292, Note_on_c, 0, 81, 0
1, 22292, Note_on_c, 0, 69, 0
1, 22292, Note_on_c, 1, 52, 0
1, 22320, Note_on_c, 0, 83, 85
1, 22320, Note_on_c, 0, 71, 85
1, 22320, Note_on_c, 1, 52, 85
1, 22340, Note_on_c, 0, 83, 0
1, 22340, Note_on_c, 0, 71, 0
1, 22340, Note_on_c, 1, 52, 0
1, 22368, Note_on_c, 0, 85, 85
1, 22368, Note_on_c, 0, 73, 85
1, 22368, Note_on_c, 1, 45, 85
1, 22374, Note_on_c, 1, 45, 0
1, 22374, Note_on_c, 1, 49, 85
1, 22380, Note_on_c, 1, 49, 0
1, 22380, Note_on_c, 1, 52, 85
1, 22386, Note_on_c, 1, 52, 0
1, 22386, Note_on_c, 1, 57, 85
1, 22413, Note_on_c, 1, 57, 0
1, 22416, Note_on_c, 1, 57, 85
1, 22436, Note_on_c, 1, 57, 0
1, 22462, Note_on_c, 0, 85, 0
1, 22462, Note_on_c, 0, 73, 0
1, 22464, Note_on_c, 0, 81, 85
1, 22464, Note_on_c, 0, 69, 85
1, 22464, Note_on_c, 1, 57, 85
1, 22484, Note_on_c, 0, 81, 0
1, 22484, Note_on_c, 0, 69, 0
1, 22484, Note_on_c, 1, 57, 0
1, 22512, Note_on_c, 0, 83, 85
1, 22512, Note_on_c, 0, 71, 85
1, 22512, Note_on_c, 1, 57, 85
1, 22532, Note_on_c, 0, 83, 0
1, 22532, Note_on_c, 0, 71, 0
1, 22532, Note_on_c, 1, 57, 0
1, 22560, Note_on_c, 0, 85, 85
1, 22560, Note_on_c, 0, 73, 85
1, 22560, Note_on_c, 1, 45, 85
1, 22566, Note_on_c, 1, 45, 0
1, 22566, Note_on_c, 1, 49, 85
1, 22572, Note_on_c, 1, 49, 0
1, 22572, Note_on_c, 1, 52, 85
1, 22578, Note_on_c, 1, 52, 0
1, 22578, Note_on_c, 1, 57, 85
1, 22580, Note_on_c, 0, 85, 0
1, 22580, Note_on_c, 0, 73, 0
1, 22605, Note_on_c, 1, 57, 0
1, 22608, Note_on_c, 0, 83, 85
1, 22608, Note_on_c, 0, 71, 85
1, 22608, Note_on_c, 1, 57, 85
1, 22628, Note_on_c, 0, 83, 0
1, 22628, Note_on_c, 0, 71, 0
1, 22628, Note_on_c, 1, 57, 0
1, 22656, Note_on_c, 0, 81, 85
1, 22656, Note_on_c, 0, 69, 85
1, 22656, Note_on_c, 1, 57, 85
1, 22676, Note_on_c, 0, 81, 0
1, 22676, Note_on_c, 0, 69, 0
1, 22676, Note_on_c, 1, 57, 0
1, 22704, Note_on_c, 0, 80, 85
1, 22704, Note_on_c, 0, 68, 85
1, 22704, Note_on_c, 1, 57, 85
1, 22724, Note_on_c, 0, 80, 0
1, 22724, Note_on_c, 0, 68, 0
1, 22724, Note_on_c, 1, 57, 0
1, 22752, Note_on_c, 0, 78, 85
1, 22752, Note_on_c, 0, 66, 85
1, 22752, Note_on_c, 1, 38, 85
1, 22758, Note_on_c, 1, 38, 0
1, 22758, Note_on_c, 1, 42, 85
1, 22764, Note_on_c, 1, 42, 0
1, 22764, Note_on_c, 1, 45, 85
1, 22770, Note_on_c, 1, 45, 0
1, 22770, Note_on_c, 1, 50, 85
1, 22772, Note_on_c, 0, 78, 0
1, 22772, Note_on_c, 0, 66, 0
1, 22797, Note_on_c, 1, 50, 0
1, 22800, Note_on_c, 0, 83, 85
1, 22800, Note_on_c, 0, 71, 85
1, 22800, Note_on_c, 1, 50, 85
1, 22820, Note_on_c, 0, 83, 0
1, 22820, Note_on_c, 0, 71, 0
1, 22820, Note_on_c, 1, 50, 0
1, 22848, Note_on_c, 0, 80, 85
1, 22848, Note_on_c, 0, 68, 85
1, 22848, Note_on_c, 1, 40, 85
1, 22854, Note_on_c, 1, 40, 0
1, 22854, Note_on_c, 1, 44, 85
1, 22860, Note_on_c, 1, 44, 0
1, 22860, Note_on_c, 1, 47, 85
1, 22866, Note_on_c, 1, 47, 0
1, 22866, Note_on_c, 1, 52, 85
1, 22868, Note_on_c, 0, 80, 0
1, 22868, Note_on_c, 0, 68, 0
1, 22893, Note_on_c, 1, 52, 0
1, 22896, Note_on_c, 0, 76, 85
1, 22896, Note_on_c, 0, 64, 85
1, 22896, Note_on_c, 1, 52, 85
1, 22916, Note_on_c, 0, 76, 0
1, 22916, Note_on_c, 0, 64, 0
1, 22916, Note_on_c, 1, 52, 0
1, 22944, Note_on_c, 0, 81, 85
1, 22944, Note_on_c, 0, 69, 85
1, 22944, Note_on_c, 1, 45, 85
1, 23038, Note_on_c, 0, 81, 0
1, 23038, Note_on_c, 0, 69, 0
1, 23038, Note_on_c, 1, 45, 0
1, 23040, Tempo, 400000
1, 23040, Note_on_c, 0, 81, 85
1, 23040, Note_on_c, 0, 69, 85
1, 23085, Note_on_c, 0, 81, 0
1, 23085, Note_on_c, 0, 69, 0
1, 23088, Note_on_c, 0, 83, 85
1, 23088, Note_on_c, 0, 71, 85
1, 23133, Note_on_c, 0, 83, 0
1, 23133, Note_on_c, 0, 71, 0
1, 23136, Note_on_c, 0, 85, 85
1, 23136, Note_on_c, 0, 73, 85
1, 23136, Note_on_c, 1, 45, 85
1, 23142, Note_on_c, 1, 45, 0
1, 23142, Note_on_c, 1, 49, 85
1, 23148, Note_on_c, 1, 49, 0
1, 23148, Note_on_c, 1, 52, 85
1, 23154, Note_on_c, 1, 52, 0
1, 23154, Note_on_c, 1, 57, 85
1, 23181, Note_on_c, 1, 57, 0
1, 23184, Note_on_c, 1, 57, 85
1, 23204, Note_on_c, 1, 57, 0
1, 23230, Note_on_c, 0, 85, 0
1, 23230, Note_on_c, 0, 73, 0
1, 23232, Note_on_c, 0, 81, 85
1, 23232, Note_on_c, 0, 69, 85
1, 23232, Note_on_c, 1, 57, 85
1, 23252, Note_on_c, 0, 81, 0
1, 23252, Note_on_c, 0, 69, 0
1, 23252, Note_on_c, 1, 57, 0
1, 23280, Note_on_c, 0, 83, 85
1, 23280, Note_on_c, 0, 71, 85
1, 23280, Note_on_c, 1, 57, 85
1, 23300, Note_on_c, 0, 83, 0
1, 23300, Note_on_c, 0, 71, 0
1, 23300, Note_on_c, 1, 57, 0
1, 23328, Note_on_c, 0, 85, 85
1, 23328, Note_on_c, 0, 73, 85
1, 23328, Note_on_c, 1, 45, 85
1, 23334, Note_on_c, 1, 45, 0
1, 23334, Note_on_c, 1, 49, 85
1, 23340, Note_on_c, 1, 49, 0
1, 23340, Note_on_c, 1, 52, 85
1, 23346, Note_on_c, 1, 52, 0
1, 23346, Note_on_c, 1, 57, 85
1, 23348, Note_on_c, 0, 85, 0
1, 23348, Note_on_c, 0, 73, 0
1, 23373, Note_on_c, 1, 57, 0
1, 23376, Note_on_c, 0, 83, 85
1, 23376, Note_on_c, 0, 71, 85
1, 23376, Note_on_c, 1, 57, 85
1, 23396, Note_on_c, 0, 83, 0
1, 23396, Note_on_c, 0, 71, 0
1, 23396, Note_on_c, 1, 57, 0
1, 23424, Note_on_c, 0, 81, 85
1, 23424, Note_on_c, 0, 69, 85
1, 23424, Note_on_c, 1, 57, 85
1, 23444, Note_on_c, 0, 81, 0
1, 23444, Note_on_c, 0, 69, 0
1, 23444, Note_on_c, 1, 57, 0
1, 23472, Note_on_c, 0, 80, 85
1, 23472, Note_on_c, 0, 68, 85
1, 23472, Note_on_c, 1, 57, 85
1, 23492, Note_on_c, 0, 80, 0
1, 23492, Note_on_c, 0, 68, 0
1, 23492, Note_on_c, 1, 57, 0
1, 23520, Note_on_c, 0, 78, 85
1, 23520, Note_on_c, 0, 66, 85
1, 23520, Note_on_c, 1, 38, 85
1, 23526, Note_on_c, 1, 38, 0
1, 23526, Note_on_c, 1, 42, 85
1, 23532, Note_on_c, 1, 42, 0
1, 23532, Note_on_c, 1, 45, 85
1, 23538, Note_on_c, 1, 45, 0
1, 23538, Note_on_c, 1, 50, 85
1, 23540, Note_on_c, 0, 78, 0
1, 23540, Note_on_c, 0, 66, 0
1, 23565, Note_on_c, 1, 50, 0
1, 23568, Note_on_c, 0, 80, 85
1, 23568, Note_on_c, 0, 68, 85
1, 23568, Note_on_c, 1, 50, 85
1, 23588, Note_on_c, 0, 80, 0
1, 23588, Note_on_c, 0, 68, 0
1, 23588, Note_on_c, 1, 50, 0
1, 23616, Note_on_c, 0, 81, 85
1, 23616, Note_on_c, 0, 69, 85
1, 23616, Note_on_c, 1, 39, 85
1, 23622, Note_on_c, 1, 39, 0
1, 23622, Note_on_c, 1, 42, 85
1, 23628, Note_on_c, 1, 42, 0
1, 23628, Note_on_c, 1, 45, 85
1, 23634, Note_on_c, 1, 45, 0
1, 23634, Note_on_c, 1, 51, 85
1, 23636, Note_on_c, 0, 81, 0
1, 23636, Note_on_c, 0, 69, 0
1, 23661, Note_on_c, 1, 51, 0
1, 23664, Note_on_c, 0, 83, 85
1, 23664, Note_on_c, 0, 71, 85
1, 23664, Note_on_c, 1, 51, 85
1, 23684, Note_on_c, 0, 83, 0
1, 23684, Note_on_c, 0, 71, 0
1, 23684, Note_on_c, 1, 51, 0
1, 23712, Note_on_c, 0, 80, 85
1, 23712, Note_on_c, 0, 68, 85
1, 23712, Note_on_c, 1, 40, 85
1, 23718, Note_on_c, 1, 40, 0
1, 23718, Note_on_c, 1, 44, 85
1, 23724, Note_on_c, 1, 44, 0
1, 23724, Note_on_c, 1, 47, 85
1, 23730, Note_on_c, 1, 47, 0
1, 23730, Note_on_c, 1, 52, 85
1, 23732, Note_on_c, 0, 80, 0
1, 23732, Note_on_c, 0, 68, 0
1, 23757, Note_on_c, 1, 52, 0
1, 23760, Note_on_c, 0, 76, 85
1, 23760, Note_on_c, 0, 64, 85
1, 23760, Note_on_c, 1, 52, 85
1, 23780, Note_on_c, 0, 76, 0
1, 23780, Note_on_c, 0, 64, 0
1, 23780, Note_on_c, 1, 52, 0
1, 23808, Note_on_c, 0, 81, 85
1, 23808, Note_on_c, 0, 69, 85
1, 23808, Note_on_c, 1, 52, 85
1, 23828, Note_on_c, 0, 81, 0
1, 23828, Note_on_c, 0, 69, 0
1, 23828, Note_on_c, 1, 52, 0
1, 23856, Note_on_c, 0, 83, 85
1, 23856, Note_on_c, 0, 71, 85
1, 23856, Note_on_c, 1, 52, 85
1, 23876, Note_on_c, 0, 83, 0
1, 23876, Note_on_c, 0, 71, 0
1, 23876, Note_on_c, 1, 52, 0
1, 23904, Note_on_c, 0, 85, 85
1, 23904, Note_on_c, 0, 73, 85
1, 23904, Note_on_c, 1, 45, 85
1, 23910, Note_on_c, 1, 45, 0
1, 23910, Note_on_c, 1, 49, 85
1, 23916, Note_on_c, 1, 49, 0
1, 23916, Note_on_c, 1, 52, 85
1, 23922, Note_on_c, 1, 52, 0
1, 23922, Note_on_c, 1, 57, 85
1, 23949, Note_on_c, 1, 57, 0
1, 23952, Note_on_c, 1, 57, 85
1, 23972, Note_on_c, 1, 57, 0
1, 23998, Note_on_c, 0, 85, 0
1, 23998, Note_on_c, 0, 73, 0
1, 24000, Note_on_c, 0, 81, 85
1, 24000, Note_on_c, 0, 69, 85
1, 24000, Note_on_c, 1, 57, 85
1, 24020, Note_on_c, 0, 81, 0
1, 24020, Note_on_c, 0, 69, 0
1, 24020, Note_on_c, 1, 57, 0
1, 24048, Note_on_c, 0, 83, 85
1, 24048, Note_on_c, 0, 71, 85
1, 24048, Note_on_c, 1, 57, 85
1, 24068, Note_on_c, 0, 83, 0
1, 24068, Note_on_c, 0, 71, 0
1, 24068, Note_on_c, 1, 57, 0
1, 24096, Note_on_c, 0, 85, 85
1, 24096, Note_on_c, 0, 73, 85
1, 24096, Note_on_c, 1, 45, 85
1, 24102, Note_on_c, 1, 45, 0
1, 24102, Note_on_c, 1, 49, 85
1, 24108, Note_on_c, 1, 49, 0
1, 24108, Note_on_c, 1, 52, 85
1, 24114, Note_on_c, 1, 52, 0
1, 24114, Note_on_c, 1, 57, 85
1, 24116, Note_on_c, 0, 85, 0
1, 24116, Note_on_c, 0, 73, 0
1, 24141, Note_on_c, 1, 57, 0
1, 24144, Note_on_c, 0, 83, 85
1, 24144, Note_on_c, 0, 71, 85
1, 24144, Note_on_c, 1, 57, 85
1, 24164, Note_on_c, 0, 83, 0
1, 24164, Note_on_c, 0, 71, 0
1, 24164, Note_on_c, 1, 57, 0
1, 24192, Note_on_c, 0, 81, 85
1, 24192, Note_on_c, 0, 69, 85
1, 24192, Note_on_c, 1, 57, 85
1, 24212, Note_on_c, 0, 81, 0
1, 24212, Note_on_c, 0, 69, 0
1, 24212, Note_on_c, 1, 57, 0
1, 24240, Note_on_c, 0, 80, 85
1, 24240, Note_on_c, 0, 68, 85
1, 24240, Note_on_c, 1, 57, 85
1, 24260, Note_on_c, 0, 80, 0
1, 24260, Note_on_c, 0, 68, 0
1, 24260, Note_on_c, 1, 57, 0
1, 24288, Note_on_c, 0, 78, 85
1, 24288, Note_on_c, 0, 66, 85
1, 24288, Note_on_c, 1, 38, 85
1, 24294, Note_on_c, 1, 38, 0
1, 24294, Note_on_c, 1, 42, 85
1, 24300, Note_on_c, 1, 42, 0
1, 24300, Note_on_c, 1, 45, 85
1, 24306, Note_on_c, 1, 45, 0
1, 24306, Note_on_c, 1, 50, 85
1, 24308, Note_on_c, 0, 78, 0
1, 24308, Note_on_c, 0, 66, 0
1, 24333, Note_on_c, 1, 50, 0
1, 24336, Note_on_c, 0, 83, 85
1, 24336, Note_on_c, 0, 71, 85
1, 24336, Note_on_c, 1, 50, 85
1, 24356, Note_on_c, 0, 83, 0
1, 24356, Note_on_c, 0, 71, 0
1, 24356, Note_on_c, 1, 50, 0
1, 24384, Note_on_c, 0, 80, 85
1, 24384, Note_on_c, 0, 68, 85
1, 24384, Note_on_c, 1, 40, 85
1, 24390, Note_on_c, 1, 40, 0
1, 24390, Note_on_c, 1, 44, 85
1, 24396, Note_on_c, 1, 44, 0
1, 24396, Note_on_c, 1, 47, 85
1, 24402, Note_on_c, 1, 47, 0
1, 24402, Note_on_c, 1, 52, 85
1, 24404, Note_on_c, 0, 80, 0
1, 24404, Note_on_c, 0, 68, 0
1, 24429, Note_on_c, 1, 52, 0
1, 24432, Note_on_c, 0, 76, 85
1, 24432, Note_on_c, 0, 64, 85
1, 24432, Note_on_c, 1, 52, 85
1, 24452, Note_on_c, 0, 76, 0
1, 24452, Note_on_c, 0, 64, 0
1, 24452, Note_on_c, 1, 52, 0
1, 24480, Note_on_c, 0, 81, 85
1, 24480, Note_on_c, 0, 69, 85
1, 24480, Note_on_c, 1, 45, 85
1, 24574, Note_on_c, 0, 81, 0
1, 24574, Note_on_c, 0, 69, 0
1, 24574, Note_on_c, 1, 45, 0
1, 24576, Note_on_c, 0, 71, 48
1, 24599, Note_on_c, 0, 71, 0
1, 24600, Note_on_c, 0, 69, 48
1, 24623, Note_on_c, 0, 69, 0
1, 24624, Note_on_c, 0, 68, 48
1, 24647, Note_on_c, 0, 68, 0
1, 24648, Note_on_c, 0, 69, 48
1, 24671, Note_on_c, 0, 69, 0
1, 24672, Note_on_c, 0, 72, 48
1, 24672, Note_on_c, 1, 57, 48
1, 24711, Note_on_c, 0, 72, 0
1, 24717, Note_on_c, 1, 57, 0
1, 24720, Note_on_c, 1, 64, 48
1, 24720, Note_on_c, 1, 60, 48
1, 24740, Note_on_c, 1, 64, 0
1, 24740, Note_on_c, 1, 60, 0
1, 24768, Note_on_c, 0, 74, 48
1, 24768, Note_on_c, 1, 64, 48
1, 24768, Note_on_c, 1, 60, 48
1, 24788, Note_on_c, 1, 64, 0
1, 24788, Note_on_c, 1, 60, 0
1, 24791, Note_on_c, 0, 74, 0
1, 24792, Note_on_c, 0, 72, 48
1, 24815, Note_on_c, 0, 72, 0
1, 24816, Note_on_c, 0, 71, 48
1, 24816, Note_on_c, 1, 64, 48
1, 24816, Note_on_c, 1, 60, 48
1, 24836, Note_on_c, 1, 64, 0
1, 24836, Note_on_c, 1, 60, 0
1, 24839, Note_on_c, 0, 71, 0
1, 24840, Note_on_c, 0, 72, 48
1, 24863, Note_on_c, 0, 72, 0
1, 24864, Note_on_c, 0, 76, 48
1, 24864, Note_on_c, 1, 57, 48
1, 24903, Note_on_c, 0, 76, 0
1, 24909, Note_on_c, 1, 57, 0
1, 24912, Note_on_c, 1, 64, 48
1, 24912, Note_on_c, 1, 60, 48
1, 24932, Note_on_c, 1, 64, 0
1, 24932, Note_on_c, 1, 60, 0
1, 24960, Note_on_c, 0, 77, 48
1, 24960, Note_on_c, 1, 64, 48
1, 24960, Note_on_c, 1, 60, 48
1, 24980, Note_on_c, 1, 64, 0
1, 24980, Note_on_c, 1, 60, 0
1, 24983, Note_on_c, 0, 77, 0
1, 24984, Note_on_c, 0, 76, 48
1, 25007, Note_on_c, 0, 76, 0
1, 25008, Note_on_c, 0, 75, 48
1, 25008, Note_on_c, 1, 64, 48
1, 25008, Note_on_c, 1, 60, 48
1, 25028, Note_on_c, 1, 64, 0
1, 25028, Note_on_c, 1, 60, 0
1, 25031, Note_on_c, 0, 75, 0
1, 25032, Note_on_c, 0, 76, 48
1, 25055, Note_on_c, 0, 76, 0
1, 25056, Note_on_c, 0, 83, 48
1, 25056, Note_on_c, 1, 57, 48
1, 25079, Note_on_c, 0, 83, 0
1, 25080, Note_on_c, 0, 81, 48
1, 25101, Note_on_c, 1, 57, 0
1, 25103, Note_on_c, 0, 81, 0
1, 25104, Note_on_c, 0, 80, 48
1, 25104, Note_on_c, 1, 64, 48
1, 25104, Note_on_c, 1, 60, 48
1, 25124, Note_on_c, 1, 64, 0
1, 25124, Note_on_c, 1, 60, 0
1, 25127, Note_on_c, 0, 80, 0
1, 25128, Note_on_c, 0, 81, 48
1, 25151, Note_on_c, 0, 81, 0
1, 25152, Note_on_c, 0, 83, 48
1, 25152, Note_on_c, 1, 57, 48
1, 25175, Note_on_c, 0, 83, 0
1, 25176, Note_on_c, 0, 81, 48
1, 25197, Note_on_c, 1, 57, 0
1, 25199, Note_on_c, 0, 81, 0
1, 25200, Note_on_c, 0, 80, 48
1, 25200, Note_on_c, 1, 64, 48
1, 25200, Note_on_c, 1, 60, 48
1, 25220, Note_on_c, 1, 64, 0
1, 25220, Note_on_c, 1, 60, 0
1, 25223, Note_on_c, 0, 80, 0
1, 25224, Note_on_c, 0, 81, 48
1, 25247, Note_on_c, 0, 81, 0
1, 25248, Note_on_c, 0, 84, 48
1, 25248, Note_on_c, 1, 57, 48
1, 25293, Note_on_c, 1, 57, 0
1, 25296, Note_on_c, 1, 64, 48
1, 25296, Note_on_c, 1, 60, 48
1, 25316, Note_on_c, 1, 64, 0
1, 25316, Note_on_c, 1, 60, 0
1, 25337, Note_on_c, 0, 84, 0
1, 25344, Note_on_c, 0, 81, 48
1, 25344, Note_on_c, 1, 64, 48
1, 25344, Note_on_c, 1, 60, 48
1, 25364, Note_on_c, 1, 64, 0
1, 25364, Note_on_c, 1, 60, 0
1, 25389, Note_on_c, 0, 81, 0
1, 25392, Note_on_c, 0, 84, 48
1, 25392, Note_on_c, 1, 64, 48
1, 25392, Note_on_c, 1, 60, 48
1, 25412, Note_on_c, 1, 64, 0
1, 25412, Note_on_c, 1, 60, 0
1, 25437, Note_on_c, 0, 84, 0
1, 25440, Note_on_c, 0, 79, 48
1, 25440, Note_on_c, 1, 52, 48
1, 25446, Note_on_c, 0, 79, 0
1, 25446, Note_on_c, 0, 81, 48
1, 25452, Note_on_c, 0, 81, 0
1, 25452, Note_on_c, 0, 83, 48
1, 25485, Note_on_c, 0, 83, 0
1, 25485, Note_on_c, 1, 52, 0
1, 25488, Note_on_c, 0, 81, 48
1, 25488, Note_on_c, 0, 78, 48
1, 25488, Note_on_c, 1, 64, 48
1, 25488, Note_on_c, 1, 59, 48
1, 25508, Note_on_c, 1, 64, 0
1, 25508, Note_on_c, 1, 59, 0
1, 25533, Note_on_c, 0, 81, 0
1, 25533, Note_on_c, 0, 78, 0
1, 25536, Note_on_c, 0, 79, 48
1, 25536, Note_on_c, 0, 76, 48
1, 25536, Note_on_c, 1, 64, 48
1, 25536, Note_on_c, 1, 59, 48
1, 25556, Note_on_c, 1, 64, 0
1, 25556, Note_on_c, 1, 59, 0
1, 25581, Note_on_c, 0, 79, 0
1, 25581, Note_on_c, 0, 76, 0
1, 25584, Note_on_c, 0, 81, 48
1, 25584, Note_on_c, 0, 78, 48
1, 25584, Note_on_c, 1, 64, 48
1, 25584, Note_on_c, 1, 59, 48
1, 25604, Note_on_c, 1, 64, 0
1, 25604, Note_on_c, 1, 59, 0
1, 25629, Note_on_c, 0, 81, 0
1, 25629, Note_on_c, 0, 78, 0
1, 25632, Note_on_c, 0, 79, 48
1, 25632, Note_on_c, 1, 52, 48
1, 25638, Note_on_c, 0, 79, 0
1, 25638, Note_on_c, 0, 81, 48
1, 25644, Note_on_c, 0, 81, 0
1, 25644, Note_on_c, 0, 83, 48
1, 25677, Note_on_c, 0, 83, 0
1, 25677, Note_on_c, 1, 52, 0
1, 25680, Note_on_c, 0, 81, 48
1, 25680, Note_on_c, 0, 78, 48
1, 25680, Note_on_c, 1, 64, 48
1, 25680, Note_on_c, 1, 59, 48
1, 25700, Note_on_c, 1, 64, 0
1, 25700, Note_on_c, 1, 59, 0
1, 25725, Note_on_c, 0, 81, 0
1, 25725, Note_on_c, 0, 78, 0
1, 25728, Note_on_c, 0, 79, 48
1, 25728, Note_on_c, 0, 76, 48
1, 25728, Note_on_c, 1, 64, 48
1, 25728, Note_on_c, 1, 59, 48
1, 25748, Note_on_c, 1, 64, 0
1, 25748, Note_on_c, 1, 59, 0
1, 25773, Note_on_c, 0, 79, 0
1, 25773, Note_on_c, 0, 76, 0
1, 25776, Note_on_c, 0, 81, 48
1, 25776, Note_on_c, 0, 78, 48
1, 25776, Note_on_c, 1, 64, 48
1, 25776, Note_on_c, 1, 59, 48
1, 25796, Note_on_c, 1, 64, 0
1, 25796, Note_on_c, 1, 59, 0
1, 25821, Note_on_c, 0, 81, 0
1, 25821, Note_on_c, 0, 78, 0
1, 25824, Note_on_c, 0, 79, 48
1, 25824, Note_on_c, 1, 52, 48
1, 25830, Note_on_c, 0, 79, 0
1, 25830, Note_on_c, 0, 81, 48
1, 25836, Note_on_c, 0, 81, 0
1, 25836, Note_on_c, 0, 83, 48
1, 25869, Note_on_c, 0, 83, 0
1, 25869, Note_on_c, 1, 52, 0
1, 25872, Note_on_c, 0, 81, 48
1, 25872, Note_on_c, 0, 78, 48
1, 25872, Note_on_c, 1, 64, 48
1, 25872, Note_on_c, 1, 59, 48
1, 25892, Note_on_c, 1, 64, 0
1, 25892, Note_on_c, 1, 59, 0
1, 25917, Note_on_c, 0, 81, 0
1, 25917, Note_on_c, 0, 78, 0
1, 25920, Note_on_c, 0, 79, 48
1, 25920, Note_on_c, 0, 76, 48
1, 25920, Note_on_c, 1, 47, 48
1, 25965, Note_on_c, 0, 79, 0
1, 25965, Note_on_c, 0, 76, 0
1, 25965, Note_on_c, 1, 47, 0
1, 25968, Note_on_c, 0, 78, 48
1, 25968, Note_on_c, 0, 75, 48
1, 25968, Note_on_c, 1, 59, 48
1, 25988, Note_on_c, 1, 59, 0
1, 26013, Note_on_c, 0, 78, 0
1, 26013, Note_on_c, 0, 75, 0
1, 26016, Note_on_c, 0, 76, 48
1, 26016, Note_on_c, 1, 52, 48
1, 26105, Note_on_c, 0, 76, 0
1, 26105, Note_on_c, 1, 52, 0
1, 26112, Note_on_c, 0, 71, 48
1, 26135, Note_on_c, 0, 71, 0
1, 26136, Note_on_c, 0, 69, 48
1, 26159, Note_on_c, 0, 69, 0
1, 26160, Note_on_c, 0, 68, 48
1, 26183, Note_on_c, 0, 68, 0
1, 26184, Note_on_c, 0, 69, 48
1, 26207, Note_on_c, 0, 69, 0
1, 26208, Note_on_c, 0, 72, 48
1, 26208, Note_on_c, 1, 57, 48
1, 26247, Note_on_c, 0, 72, 0
1, 26253, Note_on_c, 1, 57, 0
1, 26256, Note_on_c, 1, 64, 48
1, 26256, Note_on_c, 1, 60, 48
1, 26276, Note_on_c, 1, 64, 0
1, 26276, Note_on_c, 1, 60, 0
1, 26304, Note_on_c, 0, 74, 48
1, 26304, Note_on_c, 1, 64, 48
1, 26304, Note_on_c, 1, 60, 48
1, 26324, Note_on_c, 1, 64, 0
1, 26324, Note_on_c, 1, 60, 0
1, 26327, Note_on_c, 0, 74, 0
1, 26328, Note_on_c, 0, 72, 48
1, 26351, Note_on_c, 0, 72, 0
1, 26352, Note_on_c, 0, 71, 48
1, 26352, Note_on_c, 1, 64, 48
1, 26352, Note_on_c, 1, 60, 48
1, 26372, Note_on_c, 1, 64, 0
1, 26372, Note_on_c, 1, 60, 0
1, 26375, Note_on_c, 0, 71, 0
1, 26376, Note_on_c, 0, 72, 48
1, 26399, Note_on_c, 0, 72, 0
1, 26400, Note_on_c, 0, 76, 48
1, 26400, Note_on_c, 1, 57, 48
1, 26439, Note_on_c, 0, 76, 0
1, 26445, Note_on_c, 1, 57, 0
1, 26448, Note_on_c, 1, 64, 48
1, 26448, Note_on_c, 1, 60, 48
1, 26468, Note_on_c, 1, 64, 0
1, 26468, Note_on_c, 1, 60, 0
1, 26496, Note_on_c, 0, 77, 48
1, 26496, Note_on_c, 1, 64, 48
1, 26496, Note_on_c, 1, 60, 48
1, 26516, Note_on_c, 1, 64, 0
1, 26516, Note_on_c, 1, 60, 0
1, 26519, Note_on_c, 0, 77, 0
1, 26520, Note_on_c, 0, 76, 48
1, 26543, Note_on_c, 0, 76, 0
1, 26544, Note_on_c, 0, 75, 48
1, 26544, Note_on_c, 1, 64, 48
1, 26544, Note_on_c, 1, 60, 48
1, 26564, Note_on_c, 1, 64, 0
1, 26564, Note_on_c, 1, 60, 0
1, 26567, Note_on_c, 0, 75, 0
1, 26568, Note_on_c, 0, 76, 48
1, 26591, Note_on_c, 0, 76, 0
1, 26592, Note_on_c, 0, 83, 48
1, 26592, Note_on_c, 1, 57, 48
1, 26615, Note_on_c, 0, 83, 0
1, 26616, Note_on_c, 0, 81, 48
1, 26637, Note_on_c, 1, 57, 0
1, 26639, Note_on_c, 0, 81, 0
1, 26640, Note_on_c, 0, 80, 48
1, 26640, Note_on_c, 1, 64, 48
1, 26640, Note_on_c, 1, 60, 48
1, 26660, Note_on_c, 1, 64, 0
1, 26660, Note_on_c, 1, 60, 0
1, 26663, Note_on_c, 0, 80, 0
1, 26664, Note_on_c, 0, 81, 48
1, 26687, Note_on_c, 0, 81, 0
1, 26688, Note_on_c, 0, 83, 48
1, 26688, Note_on_c, 1, 57, 48
1, 26711, Note_on_c, 0, 83, 0
1, 26712, Note_on_c, 0, 81, 48
1, 26733, Note_on_c, 1, 57, 0
1, 26735, Note_on_c, 0, 81, 0
1, 26736, Note_on_c, 0, 80, 48
1, 26736, Note_on_c, 1, 64, 48
1, 26736, Note_on_c, 1, 60, 48
1, 26756, Note_on_c, 1, 64, 0
1, 26756, Note_on_c, 1, 60, 0
1, 26759, Note_on_c, 0, 80, 0
1, 26760, Note_on_c, 0, 81, 48
1, 26783, Note_on_c, 0, 81, 0
1, 26784, Note_on_c, 0, 84, 48
1, 26784, Note_on_c, 1, 57, 48
1, 26829, Note_on_c, 1, 57, 0
1, 26832, Note_on_c, 1, 64, 48
1, 26832, Note_on_c, 1, 60, 48
1, 26852, Note_on_c, 1, 64, 0
1, 26852, Note_on_c, 1, 60, 0
1, 26873, Note_on_c, 0, 84, 0
1, 26880, Note_on_c, 0, 81, 48
1, 26880, Note_on_c, 1, 64, 48
1, 26880, Note_on_c, 1, 60, 48
1, 26900, Note_on_c, 1, 64, 0
1, 26900, Note_on_c, 1, 60, 0
1, 26925, Note_on_c, 0, 81, 0
1, 26928, Note_on_c, 0, 84, 48
1, 26928, Note_on_c, 1, 64, 48
1, 26928, Note_on_c, 1, 60, 48
1, 26948, Note_on_c, 1, 64, 0
1, 26948, Note_on_c, 1, 60, 0
1, 26973, Note_on_c, 0, 84, 0
1, 26976, Note_on_c, 0, 79, 48
1, 26976, Note_on_c, 1, 52, 48
1, 26982, Note_on_c, 0, 79, 0
1, 26982, Note_on_c, 0, 81, 48
1, 26988, Note_on_c, 0, 81, 0
1, 26988, Note_on_c, 0, 83, 48
1, 27021, Note_on_c, 0, 83, 0
1, 27021, Note_on_c, 1, 52, 0
1, 27024, Note_on_c, 0, 81, 48
1, 27024, Note_on_c, 0, 78, 48
1, 27024, Note_on_c, 1, 64, 48
1, 27024, Note_on_c, 1, 59, 48
1, 27044, Note_on_c, 1, 64, 0
1, 27044, Note_on_c, 1, 59, 0
1, 27069, Note_on_c, 0, 81, 0
1, 27069, Note_on_c, 0, 78, 0
1, 27072, Note_on_c, 0, 79, 48
1, 27072, Note_on_c, 0, 76, 48
1, 27072, Note_on_c, 1, 64, 48
1, 27072, Note_on_c, 1, 59, 48
1, 27092, Note_on_c, 1, 64, 0
1, 27092, Note_on_c, 1, 59, 0
1, 27117, Note_on_c, 0, 79, 0
1, 27117, Note_on_c, 0, 76, 0
1, 27120, Note_on_c, 0, 81, 48
1, 27120, Note_on_c, 0, 78, 48
1, 27120, Note_on_c, 1, 64, 48
1, 27120, Note_on_c, 1, 59, 48
1, 27140, Note_on_c, 1, 64, 0
1, 27140, Note_on_c, 1, 59, 0
1, 27165, Note_on_c, 0, 81, 0
1, 27165, Note_on_c, 0, 78, 0
1, 27168, Note_on_c, 0, 79, 48
1, 27168, Note_on_c, 1, 52, 48
1, 27174, Note_on_c, 0, 79, 0
1, 27174, Note_on_c, 0, 81, 48
1, 27180, Note_on_c, 0, 81, 0
1, 27180, Note_on_c, 0, 83, 48
1, 27213, Note_on_c, 0, 83, 0
1, 27213, Note_on_c, 1, 52, 0
1, 27216, Note_on_c, 0, 81, 48
1, 27216, Note_on_c, 0, 78, 48
1, 27216, Note_on_c, 1, 64, 48
1, 27216, Note_on_c, 1, 59, 48
1, 27236, Note_on_c, 1, 64, 0
1, 27236, Note_on_c, 1, 59, 0
1, 27261, Note_on_c, 0, 81, 0
1, 27261, Note_on_c, 0, 78, 0
1, 27264, Note_on_c, 0, 79, 48
1, 27264, Note_on_c, 0, 76, 48
1, 27264, Note_on_c, 1, 64, 48
1, 27264, Note_on_c, 1, 59, 48
1, 27284, Note_on_c, 1, 64, 0
1, 27284, Note_on_c, 1, 59, 0
1, 27309, Note_on_c, 0, 79, 0
1, 27309, Note_on_c, 0, 76, 0
1, 27312, Note_on_c, 0, 81, 48
1, 27312, Note_on_c, 0, 78, 48
1, 27312, Note_on_c, 1, 64, 48
1, 27312, Note_on_c, 1, 59, 48
1, 27332, Note_on_c, 1, 64, 0
1, 27332, Note_on_c, 1, 59, 0
1, 27357, Note_on_c, 0, 81, 0
1, 27357, Note_on_c, 0, 78, 0
1, 27360, Note_on_c, 0, 79, 48
1, 27360, Note_on_c, 1, 52, 48
1, 27366, Note_on_c, 0, 79, 0
1, 27366, Note_on_c, 0, 81, 48
1, 27372, Note_on_c, 0, 81, 0
1, 27372, Note_on_c, 0, 83, 48
1, 27405, Note_on_c, 0, 83, 0
1, 27405, Note_on_c, 1, 52, 0
1, 27408, Note_on_c, 0, 81, 48
1, 27408, Note_on_c, 0, 78, 48
1, 27408, Note_on_c, 1, 64, 48
1, 27408, Note_on_c, 1, 59, 48
1, 27428, Note_on_c, 1, 64, 0
1, 27428, Note_on_c, 1, 59, 0
1, 27453, Note_on_c, 0, 81, 0
1, 27453, Note_on_c, 0, 78, 0
1, 27456, Note_on_c, 0, 79, 48
1, 27456, Note_on_c, 0, 76, 48
1, 27456, Note_on_c, 1, 47, 48
1, 27501, Note_on_c, 0, 79, 0
1, 27501, Note_on_c, 0, 76, 0
1, 27501, Note_on_c, 1, 47, 0
1, 27504, Note_on_c, 0, 78, 48
1, 27504, Note_on_c, 0, 75, 48
1, 27504, Note_on_c, 1, 59, 48
1, 27524, Note_on_c, 1, 59, 0
1, 27549, Note_on_c, 0, 78, 0
1, 27549, Note_on_c, 0, 75, 0
1, 27552, Note_on_c, 0, 76, 48
1, 27552, Note_on_c, 1, 52, 48
1, 27641, Note_on_c, 0, 76, 0
1, 27641, Note_on_c, 1, 52, 0
1, 27648, Note_on_c, 0, 76, 85
1, 27648, Note_on_c, 0, 72, 85
1, 27693, Note_on_c, 0, 76, 0
1, 27693, Note_on_c, 0, 72, 0
1, 27696, Note_on_c, 0, 77, 85
1, 27696, Note_on_c, 0, 74, 85
1, 27741, Note_on_c, 0, 77, 0
1, 27741, Note_on_c, 0, 74, 0
1, 27744, Note_on_c, 0, 79, 85
1, 27744, Note_on_c, 0, 76, 85
1, 27744, Note_on_c, 1, 48, 85
1, 27764, Note_on_c, 0, 79, 0
1, 27764, Note_on_c, 0, 76, 0
1, 27789, Note_on_c, 1, 48, 0
1, 27792, Note_on_c, 0, 79, 85
1, 27792, Note_on_c, 0, 76, 85
1, 27792, Note_on_c, 1, 60, 85
1, 27812, Note_on_c, 0, 79, 0
1, 27812, Note_on_c, 0, 76, 0
1, 27837, Note_on_c, 1, 60, 0
1, 27840, Note_on_c, 0, 81, 85
1, 27840, Note_on_c, 1, 52, 85
1, 27863, Note_on_c, 0, 81, 0
1, 27864, Note_on_c, 0, 79, 85
1, 27885, Note_on_c, 1, 52, 0
1, 27887, Note_on_c, 0, 79, 0
1, 27888, Note_on_c, 0, 77, 85
1, 27888, Note_on_c, 1, 64, 85
1, 27911, Note_on_c, 0, 77, 0
1, 27912, Note_on_c, 0, 76, 85
1, 27933, Note_on_c, 1, 64, 0
1, 27935, Note_on_c, 0, 76, 0
1, 27936, Note_on_c, 0, 74, 85
1, 27936, Note_on_c, 0, 71, 85
1, 27936, Note_on_c, 1, 55, 85
1, 27981, Note_on_c, 0, 71, 0
1, 27984, Note_on_c, 0, 67, 85
1, 28025, Note_on_c, 0, 74, 0
1, 28025, Note_on_c, 1, 55, 0
1, 28029, Note_on_c, 0, 67, 0
1, 28032, Note_on_c, 0, 76, 85
1, 28032, Note_on_c, 0, 72, 85
1, 28052, Note_on_c, 0, 76, 0
1, 28052, Note_on_c, 0, 72, 0
1, 28080, Note_on_c, 0, 77, 85
1, 28080, Note_on_c, 0, 74, 85
1, 28100, Note_on_c, 0, 77, 0
1, 28100, Note_on_c, 0, 74, 0
1, 28128, Note_on_c, 0, 79, 85
1, 28128, Note_on_c, 0, 76, 85
1, 28128, Note_on_c, 1, 48, 85
1, 28148, Note_on_c, 0, 79, 0
1, 28148, Note_on_c, 0, 76, 0
1, 28173, Note_on_c, 1, 48, 0
1, 28176, Note_on_c, 0, 79, 85
1, 28176, Note_on_c, 0, 76, 85
1, 28176, Note_on_c, 1, 60, 85
1, 28196, Note_on_c, 0, 79, 0
1, 28196, Note_on_c, 0, 76, 0
1, 28221, Note_on_c, 1, 60, 0
1, 28224, Note_on_c, 0, 81, 85
1, 28224, Note_on_c, 1, 52, 85
1, 28247, Note_on_c, 0, 81, 0
1, 28248, Note_on_c, 0, 79, 85
1, 28269, Note_on_c, 1, 52, 0
1, 28271, Note_on_c, 0, 79, 0
1, 28272, Note_on_c, 0, 77, 85
1, 28272, Note_on_c, 1, 64, 85
1, 28295, Note_on_c, 0, 77, 0
1, 28296, Note_on_c, 0, 76, 85
1, 28317, Note_on_c, 1, 64, 0
1, 28319, Note_on_c, 0, 76, 0
1, 28320, Note_on_c, 0, 74, 85
1, 28320, Note_on_c, 0, 71, 85
1, 28320, Note_on_c, 1, 55, 85
1, 28409, Note_on_c, 0, 74, 0
1, 28409, Note_on_c, 0, 71, 0
1, 28409, Note_on_c, 1, 55, 0
1, 28416, Note_on_c, 0, 72, 85
1, 28416, Note_on_c, 0, 69, 85
1, 28436, Note_on_c, 0, 72, 0
1, 28436, Note_on_c, 0, 69, 0
1, 28464, Note_on_c, 0, 74, 85
1, 28464, Note_on_c, 0, 71, 85
1, 28484, Note_on_c, 0, 74, 0
1, 28484, Note_on_c, 0, 71, 0
1, 28512, Note_on_c, 0, 76, 85
1, 28512, Note_on_c, 0, 72, 85
1, 28512, Note_on_c, 1, 45, 85
1, 28532, Note_on_c, 0, 76, 0
1, 28532, Note_on_c, 0, 72, 0
1, 28557, Note_on_c, 1, 45, 0
1, 28560, Note_on_c, 0, 76, 85
1, 28560, Note_on_c, 0, 72, 85
1, 28560, Note_on_c, 1, 57, 85
1, 28580, Note_on_c, 0, 76, 0
1, 28580, Note_on_c, 0, 72, 0
1, 28605, Note_on_c, 1, 57, 0
1, 28608, Note_on_c, 0, 77, 85
1, 28608, Note_on_c, 1, 48, 85
1, 28631, Note_on_c, 0, 77, 0
1, 28632, Note_on_c, 0, 76, 85
1, 28653, Note_on_c, 1, 48, 0
1, 28655, Note_on_c, 0, 76, 0
1, 28656, Note_on_c, 0, 74, 85
1, 28656, Note_on_c, 1, 60, 85
1, 28679, Note_on_c, 0, 74, 0
1, 28680, Note_on_c, 0, 72, 85
1, 28701, Note_on_c, 1, 60, 0
1, 28703, Note_on_c, 0, 72, 0
1, 28704, Note_on_c, 0, 71, 85
1, 28704, Note_on_c, 0, 68, 85
1, 28704, Note_on_c, 1, 52, 85
1, 28749, Note_on_c, 0, 68, 0
1, 28752, Note_on_c, 0, 64, 85
1, 28793, Note_on_c, 0, 71, 0
1, 28793, Note_on_c, 1, 52, 0
1, 28797, Note_on_c, 0, 64, 0
1, 28800, Note_on_c, 0, 72, 85
1, 28800, Note_on_c, 0, 69, 85
1, 28820, Note_on_c, 0, 72, 0
1, 28820, Note_on_c, 0, 69, 0
1, 28848, Note_on_c, 0, 74, 85
1, 28848, Note_on_c, 0, 71, 85
1, 28868, Note_on_c, 0, 74, 0
1, 28868, Note_on_c, 0, 71, 0
1, 28896, Note_on_c, 0, 76, 85
1, 28896, Note_on_c, 0, 72, 85
1, 28896, Note_on_c, 1, 45, 85
1, 28916, Note_on_c, 0, 76, 0
1, 28916, Note_on_c, 0, 72, 0
1, 28941, Note_on_c, 1, 45, 0
1, 28944, Note_on_c, 0, 76, 85
1, 28944, Note_on_c, 0, 72, 85
1, 28944, Note_on_c, 1, 57, 85
1, 28964, Note_on_c, 0, 76, 0
1, 28964, Note_on_c, 0, 72, 0
1, 28989, Note_on_c, 1, 57, 0
1, 28992, Note_on_c, 0, 77, 85
1, 28992, Note_on_c, 1, 48, 85
1, 29015, Note_on_c, 0, 77, 0
1, 29016, Note_on_c, 0, 76, 85
1, 29037, Note_on_c, 1, 48, 0
1, 29039, Note_on_c, 0, 76, 0
1, 29040, Note_on_c, 0, 74, 85
1, 29040, Note_on_c, 1, 60, 85
1, 29063, Note_on_c, 0, 74, 0
1, 29064, Note_on_c, 0, 72, 85
1, 29085, Note_on_c, 1, 60, 0
1, 29087, Note_on_c, 0, 72, 0
1, 29088, Note_on_c, 0, 71, 85
1, 29088, Note_on_c, 0, 68, 85
1, 29088, Note_on_c, 1, 52, 85
1, 29177, Note_on_c, 0, 71, 0
1, 29177, Note_on_c, 0, 68, 0
1, 29177, Note_on_c, 1, 52, 0
1, 29184, Note_on_c, 0, 71, 48
1, 29207, Note_on_c, 0, 71, 0
1, 29208, Note_on_c, 0, 69, 48
1, 29231, Note_on_c, 0, 69, 0
1, 29232, Note_on_c, 0, 68, 48
1, 29255, Note_on_c, 0, 68, 0
1, 29256, Note_on_c, 0, 69, 48
1, 29279, Note_on_c, 0, 69, 0
1, 29280, Note_on_c, 0, 72, 48
1, 29280, Note_on_c, 1, 57, 48
1, 29319, Note_on_c, 0, 72, 0
1, 29325, Note_on_c, 1, 57, 0
1, 29328, Note_on_c, 1, 64, 48
1, 29328, Note_on_c, 1, 60, 48
1, 29348, Note_on_c, 1, 64, 0
1, 29348, Note_on_c, 1, 60, 0
1, 29376, Note_on_c, 0, 74, 48
1, 29376, Note_on_c, 1, 64, 48
1, 29376, Note_on_c, 1, 60, 48
1, 29396, Note_on_c, 1, 64, 0
1, 29396, Note_on_c, 1, 60, 0
1, 29399, Note_on_c, 0, 74, 0
1, 29400, Note_on_c, 0, 72, 48
1, 29423, Note_on_c, 0, 72, 0
1, 29424, Note_on_c, 0, 71, 48
1, 29424, Note_on_c, 1, 64, 48
1, 29424, Note_on_c, 1, 60, 48
1, 29444, Note_on_c, 1, 64, 0
1, 29444, Note_on_c, 1, 60, 0
1, 29447, Note_on_c, 0, 71, 0
1, 29448, Note_on_c, 0, 72, 48
1, 29471, Note_on_c, 0, 72, 0
1, 29472, Note_on_c, 0, 76, 48
1, 29472, Note_on_c, 1, 57, 48
1, 29511, Note_on_c, 0, 76, 0
1, 29517, Note_on_c, 1, 57, 0
1, 29520, Note_on_c, 1, 64, 48
1, 29520, Note_on_c, 1, 60, 48
1, 29540, Note_on_c, 1, 64, 0
1, 29540, Note_on_c, 1, 60, 0
1, 29568, Note_on_c, 0, 77, 48
1, 29568, Note_on_c, 1, 64, 48
1, 29568, Note_on_c, 1, 60, 48
1, 29588, Note_on_c, 1, 64, 0
1, 29588, Note_on_c, 1, 60, 0
1, 29591, Note_on_c, 0, 77, 0
1, 29592, Note_on_c, 0, 76, 48
1, 29615, Note_on_c, 0, 76, 0
1, 29616, Note_on_c, 0, 75, 48
1, 29616, Note_on_c, 1, 64, 48
1, 29616, Note_on_c, 1, 60, 48
1, 29636, Note_on_c, 1, 64, 0
1, 29636, Note_on_c, 1, 60, 0
1, 29639, Note_on_c, 0, 75, 0
1, 29640, Note_on_c, 0, 76, 48
1, 29663, Note_on_c, 0, 76, 0
1, 29664, Note_on_c, 0, 83, 48
1, 29664, Note_on_c, 1, 57, 48
1, 29687, Note_on_c, 0, 83, 0
1, 29688, Note_on_c, 0, 81, 48
1, 29709, Note_on_c, 1, 57, 0
1, 29711, Note_on_c, 0, 81, 0
1, 29712, Note_on_c, 0, 80, 48
1, 29712, Note_on_c, 1, 64, 48
1, 29712, Note_on_c, 1, 60, 48
1, 29732, Note_on_c, 1, 64, 0
1, 29732, Note_on_c, 1, 60, 0
1, 29735, Note_on_c, 0, 80, 0
1, 29736, Note_on_c, 0, 81, 48
1, 29759, Note_on_c, 0, 81, 0
1, 29760, Note_on_c, 0, 83, 48
1, 29760, Note_on_c, 1, 57, 48
1, 29783, Note_on_c, 0, 83, 0
1, 29784, Note_on_c, 0, 81, 48
1, 29805, Note_on_c, 1, 57, 0
1, 29807, Note_on_c, 0, 81, 0
1, 29808, Note_on_c, 0, 80, 48
1, 29808, Note_on_c, 1, 64, 48
1, 29808, Note_on_c, 1, 60, 48
1, 29828, Note_on_c, 1, 64, 0
1, 29828, Note_on_c, 1, 60, 0
1, 29831, Note_on_c, 0, 80, 0
1, 29832, Note_on_c, 0, 81, 48
1, 29855, Note_on_c, 0, 81, 0
1, 29856, Note_on_c, 0, 84, 48
1, 29856, Note_on_c, 1, 53, 48
1, 29901, Note_on_c, 1, 53, 0
1, 29904, Note_on_c, 1, 63, 48
1, 29904, Note_on_c, 1, 57, 48
1, 29924, Note_on_c, 1, 63, 0
1, 29924, Note_on_c, 1, 57, 0
1, 29945, Note_on_c, 0, 84, 0
1, 29952, Note_on_c, 0, 81, 48
1, 29952, Note_on_c, 1, 63, 48
1, 29952, Note_on_c, 1, 57, 48
1, 29972, Note_on_c, 1, 63, 0
1, 29972, Note_on_c, 1, 57, 0
1, 29997, Note_on_c, 0, 81, 0
1, 30000, Note_on_c, 0, 83, 48
1, 30000, Note_on_c, 1, 63, 48
1, 30000, Note_on_c, 1, 57, 48
1, 30020, Note_on_c, 1, 63, 0
1, 30020, Note_on_c, 1, 57, 0
1, 30045, Note_on_c, 0, 83, 0
1, 30048, Note_on_c, 0, 81, 48
1, 30048, Note_on_c, 1, 52, 48
1, 30054, Note_on_c, 0, 81, 0
1, 30054, Note_on_c, 0, 83, 48
1, 30060, Note_on_c, 0, 83, 0
1, 30060, Note_on_c, 0, 84, 48
1, 30093, Note_on_c, 0, 84, 0
1, 30093, Note_on_c, 1, 52, 0
1, 30096, Note_on_c, 0, 83, 48
1, 30096, Note_on_c, 1, 64, 48
1, 30096, Note_on_c, 1, 57, 48
1, 30141, Note_on_c, 0, 83, 0
1, 30141, Note_on_c, 1, 64, 0
1, 30141, Note_on_c, 1, 57, 0
1, 30144, Note_on_c, 0, 81, 48
1, 30144, Note_on_c, 1, 50, 48
1, 30189, Note_on_c, 0, 81, 0
1, 30189, Note_on_c, 1, 50, 0
1, 30192, Note_on_c, 0, 80, 48
1, 30192, Note_on_c, 1, 59, 48
1, 30192, Note_on_c, 1, 53, 48
1, 30237, Note_on_c, 0, 80, 0
1, 30237, Note_on_c, 1, 59, 0
1, 30237, Note_on_c, 1, 53, 0
1, 30240, Note_on_c, 0, 81, 48
1, 30240, Note_on_c, 1, 48, 48
1, 30252, Note_on_c, 0, 81, 0
1, 30252, Note_on_c, 0, 83, 48
1, 30264, Note_on_c, 0, 83, 0
1, 30264, Note_on_c, 0, 81, 48
1, 30285, Note_on_c, 0, 81, 0
1, 30285, Note_on_c, 1, 48, 0
1, 30288, Note_on_c, 0, 76, 48
1, 30288, Note_on_c, 1, 57, 48
1, 30288, Note_on_c, 1, 52, 48
1, 30333, Note_on_c, 0, 76, 0
1, 30333, Note_on_c, 1, 57, 0
1, 30333, Note_on_c, 1, 52, 0
1, 30336, Note_on_c, 0, 77, 48
1, 30336, Note_on_c, 1, 50, 48
1, 30381, Note_on_c, 0, 77, 0
1, 30381, Note_on_c, 1, 50, 0
1, 30384, Note_on_c, 0, 74, 48
1, 30384, Note_on_c, 1, 59, 48
1, 30384, Note_on_c, 1, 53, 48
1, 30429, Note_on_c, 0, 74, 0
1, 30429, Note_on_c, 1, 59, 0
1, 30429, Note_on_c, 1, 53, 0
1, 30432, Note_on_c, 0, 72, 48
1, 30432, Note_on_c, 1, 57, 48
1, 30432, Note_on_c, 1, 52, 48
1, 30477, Note_on_c, 1, 57, 0
1, 30477, Note_on_c, 1, 52, 0
1, 30480, Note_on_c, 1, 57, 48
1, 30480, Note_on_c, 1, 52, 48
1, 30521, Note_on_c, 0, 72, 0
1, 30525, Note_on_c, 1, 57, 0
1, 30525, Note_on_c, 1, 52, 0
1, 30528, Note_on_c, 0, 71, 48
1, 30528, Note_on_c, 1, 56, 48
1, 30528, Note_on_c, 1, 52, 48
1, 30540, Note_on_c, 0, 71, 0
1, 30540, Note_on_c, 0, 72, 48
1, 30552, Note_on_c, 0, 72, 0
1, 30552, Note_on_c, 0, 71, 48
1, 30564, Note_on_c, 0, 71, 0
1, 30564, Note_on_c, 0, 72, 48
1, 30573, Note_on_c, 1, 56, 0
1, 30573, Note_on_c, 1, 52, 0
1, 30576, Note_on_c, 0, 72, 0
1, 30576, Note_on_c, 0, 71, 48
1, 30576, Note_on_c, 1, 56, 48
1, 30576, Note_on_c, 1, 52, 48
1, 30588, Note_on_c, 0, 71, 0
1, 30588, Note_on_c, 0, 72, 48
1, 30595, Note_on_c, 0, 72, 0
1, 30600, Note_on_c, 0, 69, 48
1, 30612, Note_on_c, 0, 69, 0
1, 30612, Note_on_c, 0, 71, 48
1, 30621, Note_on_c, 1, 56, 0
1, 30621, Note_on_c, 1, 52, 0
1, 30624, Note_on_c, 0, 71, 0
1, 30624, Note_on_c, 0, 69, 48
1, 30624, Note_on_c, 1, 57, 48
1, 30624, Note_on_c, 1, 45, 48
1, 30713, Note_on_c, 0, 69, 0
1, 30713, Note_on_c, 1, 57, 0
1, 30713, Note_on_c, 1, 45, 0
1, 30720, Note_on_c, 0, 76, 85
1, 30720, Note_on_c, 0, 72, 85
1, 30765, Note_on_c, 0, 76, 0
1, 30765, Note_on_c, 0, 72, 0
1, 30768, Note_on_c, 0, 77, 85
1, 30768, Note_on_c, 0, 74, 85
1, 30813, Note_on_c, 0, 77, 0
1, 30813, Note_on_c, 0, 74, 0
1, 30816, Note_on_c, 0, 79, 85
1, 30816, Note_on_c, 0, 76, 85
1, 30816, Note_on_c, 1, 48, 85
1, 30836, Note_on_c, 0, 79, 0
1, 30836, Note_on_c, 0, 76, 0
1, 30861, Note_on_c, 1, 48, 0
1, 30864, Note_on_c, 0, 79, 85
1, 30864, Note_on_c, 0, 76, 85
1, 30864, Note_on_c, 1, 60, 85
1, 30884, Note_on_c, 0, 79, 0
1, 30884, Note_on_c, 0, 76, 0
1, 30909, Note_on_c, 1, 60, 0
1, 30912, Note_on_c, 0, 81, 85
1, 30912, Note_on_c, 1, 52, 85
1, 30935, Note_on_c, 0, 81, 0
1, 30936, Note_on_c, 0, 79, 85
1, 30957, Note_on_c, 1, 52, 0
1, 30959, Note_on_c, 0, 79, 0
1, 30960, Note_on_c, 0, 77, 85
1, 30960, Note_on_c, 1, 64, 85
1, 30983, Note_on_c, 0, 77, 0
1, 30984, Note_on_c, 0, 76, 85
1, 31005, Note_on_c, 1, 64, 0
1, 31007, Note_on_c, 0, 76, 0
1, 31008, Note_on_c, 0, 74, 85
1, 31008, Note_on_c, 0, 71, 85
1, 31008, Note_on_c, 1, 55, 85
1, 31053, Note_on_c, 0, 71, 0
1, 31056, Note_on_c, 0, 67, 85
1, 31097, Note_on_c, 0, 74, 0
1, 31097, Note_on_c, 1, 55, 0
1, 31101, Note_on_c, 0, 67, 0
1, 31104, Note_on_c, 0, 76, 85
1, 31104, Note_on_c, 0, 72, 85
1, 31124, Note_on_c, 0, 76, 0
1, 31124, Note_on_c, 0, 72, 0
1, 31152, Note_on_c, 0, 77, 85
1, 31152, Note_on_c, 0, 74, 85
1, 31172, Note_on_c, 0, 77, 0
1, 31172, Note_on_c, 0, 74, 0
1, 31200, Note_on_c, 0, 79, 85
1, 31200, Note_on_c, 0, 76, 85
1, 31200, Note_on_c, 1, 48, 85
1, 31220, Note_on_c, 0, 79, 0
1, 31220, Note_on_c, 0, 76, 0
1, 31245, Note_on_c, 1, 48, 0
1, 31248, Note_on_c, 0, 79, 85
1, 31248, Note_on_c, 0, 76, 85
1, 31248, Note_on_c, 1, 60, 85
1, 31268, Note_on_c, 0, 79, 0
1, 31268, Note_on_c, 0, 76, 0
1, 31293, Note_on_c, 1, 60, 0
1, 31296, Note_on_c, 0, 81, 85
1, 31296, Note_on_c, 1, 52, 85
1, 31319, Note_on_c, 0, 81, 0
1, 31320, Note_on_c, 0, 79, 85
1, 31341, Note_on_c, 1, 52, 0
1, 31343, Note_on_c, 0, 79, 0
1, 31344, Note_on_c, 0, 77, 85
1, 31344, Note_on_c, 1, 64, 85
1, 31367, Note_on_c, 0, 77, 0
1, 31368, Note_on_c, 0, 76, 85
1, 31389, Note_on_c, 1, 64, 0
1, 31391, Note_on_c, 0, 76, 0
1, 31392, Note_on_c, 0, 74, 85
1, 31392, Note_on_c, 0, 71, 85
1, 31392, Note_on_c, 1, 55, 85
1, 31481, Note_on_c, 0, 74, 0
1, 31481, Note_on_c, 0, 71, 0
1, 31481, Note_on_c, 1, 55, 0
1, 31488, Note_on_c, 0, 72, 85
1, 31488, Note_on_c, 0, 69, 85
1, 31508, Note_on_c, 0, 72, 0
1, 31508, Note_on_c, 0, 69, 0
1, 31536, Note_on_c, 0, 74, 85
1, 31536, Note_on_c, 0, 71, 85
1, 31556, Note_on_c, 0, 74, 0
1, 31556, Note_on_c, 0, 71, 0
1, 31584, Note_on_c, 0, 76, 85
1, 31584, Note_on_c, 0, 72, 85
1, 31584, Note_on_c, 1, 45, 85
1, 31604, Note_on_c, 0, 76, 0
1, 31604, Note_on_c, 0, 72, 0
1, 31629, Note_on_c, 1, 45, 0
1, 31632, Note_on_c, 0, 76, 85
1, 31632, Note_on_c, 0, 72, 85
1, 31632, Note_on_c, 1, 57, 85
1, 31652, Note_on_c, 0, 76, 0
1, 31652, Note_on_c, 0, 72, 0
1, 31677, Note_on_c, 1, 57, 0
1, 31680, Note_on_c, 0, 77, 85
1, 31680, Note_on_c, 1, 48, 85
1, 31703, Note_on_c, 0, 77, 0
1, 31704, Note_on_c, 0, 76, 85
1, 31725, Note_on_c, 1, 48, 0
1, 31727, Note_on_c, 0, 76, 0
1, 31728, Note_on_c, 0, 74, 85
1, 31728, Note_on_c, 1, 60, 85
1, 31751, Note_on_c, 0, 74, 0
1, 31752, Note_on_c, 0, 72, 85
1, 31773, Note_on_c, 1, 60, 0
1, 31775, Note_on_c, 0, 72, 0
1, 31776, Note_on_c, 0, 71, 85
1, 31776, Note_on_c, 0, 68, 85
1, 31776, Note_on_c, 1, 52, 85
1, 31821, Note_on_c, 0, 68, 0
1, 31824, Note_on_c, 0, 64, 85
1, 31865, Note_on_c, 0, 71, 0
1, 31865, Note_on_c, 1, 52, 0
1, 31869, Note_on_c, 0, 64, 0
1, 31872, Note_on_c, 0, 72, 85
1, 31872, Note_on_c, 0, 69, 85
1, 31892, Note_on_c, 0, 72, 0
1, 31892, Note_on_c, 0, 69, 0
1, 31920, Note_on_c, 0, 74, 85
1, 31920, Note_on_c, 0, 71, 85
1, 31940, Note_on_c, 0, 74, 0
1, 31940, Note_on_c, 0, 71, 0
1, 31968, Note_on_c, 0, 76, 85
1, 31968, Note_on_c, 0, 72, 85
1, 31968, Note_on_c, 1, 45, 85
1, 31988, Note_on_c, 0, 76, 0
1, 31988, Note_on_c, 0, 72, 0
1, 32013, Note_on_c, 1, 45, 0
1, 32016, Note_on_c, 0, 76, 85
1, 32016, Note_on_c, 0, 72, 85
1, 32016, Note_on_c, 1, 57, 85
1, 32036, Note_on_c, 0, 76, 0
1, 32036, Note_on_c, 0, 72, 0
1, 32061, Note_on_c, 1, 57, 0
1, 32064, Note_on_c, 0, 77, 85
1, 32064, Note_on_c, 1, 48, 85
1, 32087, Note_on_c, 0, 77, 0
1, 32088, Note_on_c, 0, 76, 85
1, 32109, Note_on_c, 1, 48, 0
1, 32111, Note_on_c, 0, 76, 0
1, 32112, Note_on_c, 0, 74, 85
1, 32112, Note_on_c, 1, 60, 85
1, 32135, Note_on_c, 0, 74, 0
1, 32136, Note_on_c, 0, 72, 85
1, 32157, Note_on_c, 1, 60, 0
1, 32159, Note_on_c, 0, 72, 0
1, 32160, Note_on_c, 0, 71, 85
1, 32160, Note_on_c, 0, 68, 85
1, 32160, Note_on_c, 1, 52, 85
1, 32249, Note_on_c, 0, 71, 0
1, 32249, Note_on_c, 0, 68, 0
1, 32249, Note_on_c, 1, 52, 0
1, 32256, Note_on_c, 0, 71, 48
1, 32279, Note_on_c, 0, 71, 0
1, 32280, Note_on_c, 0, 69, 48
1, 32303, Note_on_c, 0, 69, 0
1, 32304, Note_on_c, 0, 68, 48
1, 32327, Note_on_c, 0, 68, 0
1, 32328, Note_on_c, 0, 69, 48
1, 32351, Note_on_c, 0, 69, 0
1, 32352, Note_on_c, 0, 72, 48
1, 32352, Note_on_c, 1, 57, 48
1, 32391, Note_on_c, 0, 72, 0
1, 32397, Note_on_c, 1, 57, 0
1, 32400, Note_on_c, 1, 64, 48
1, 32400, Note_on_c, 1, 60, 48
1, 32420, Note_on_c, 1, 64, 0
1, 32420, Note_on_c, 1, 60, 0
1, 32448, Note_on_c, 0, 74, 48
1, 32448, Note_on_c, 1, 64, 48
1, 32448, Note_on_c, 1, 60, 48
1, 32468, Note_on_c, 1, 64, 0
1, 32468, Note_on_c, 1, 60, 0
1, 32471, Note_on_c, 0, 74, 0
1, 32472, Note_on_c, 0, 72, 48
1, 32495, Note_on_c, 0, 72, 0
1, 32496, Note_on_c, 0, 71, 48
1, 32496, Note_on_c, 1, 64, 48
1, 32496, Note_on_c, 1, 60, 48
1, 32516, Note_on_c, 1, 64, 0
1, 32516, Note_on_c, 1, 60, 0
1, 32519, Note_on_c, 0, 71, 0
1, 32520, Note_on_c, 0, 72, 48
1, 32543, Note_on_c, 0, 72, 0
1, 32544, Note_on_c, 0, 76, 48
1, 32544, Note_on_c, 1, 57, 48
1, 32583, Note_on_c, 0, 76, 0
1, 32589, Note_on_c, 1, 57, 0
1, 32592, Note_on_c, 1, 64, 48
1, 32592, Note_on_c, 1, 60, 48
1, 32612, Note_on_c, 1, 64, 0
1, 32612, Note_on_c, 1, 60, 0
1, 32640, Note_on_c, 0, 77, 48
1, 32640, Note_on_c, 1, 64, 48
1, 32640, Note_on_c, 1, 60, 48
1, 32660, Note_on_c, 1, 64, 0
1, 32660, Note_on_c, 1, 60, 0
1, 32663, Note_on_c, 0, 77, 0
1, 32664, Note_on_c, 0, 76, 48
1, 32687, Note_on_c, 0, 76, 0
1, 32688, Note_on_c, 0, 75, 48
1, 32688, Note_on_c, 1, 64, 48
1, 32688, Note_on_c, 1, 60, 48
1, 32708, Note_on_c, 1, 64, 0
1, 32708, Note_on_c, 1, 60, 0
1, 32711, Note_on_c, 0, 75, 0
1, 32712, Note_on_c, 0, 76, 48
1, 32735, Note_on_c, 0, 76, 0
1, 32736, Note_on_c, 0, 83, 48
1, 32736, Note_on_c, 1, 57, 48
1, 32759, Note_on_c, 0, 83, 0
1, 32760, Note_on_c, 0, 81, 48
1, 32781, Note_on_c, 1, 57, 0
1, 32783, Note_on_c, 0, 81, 0
1, 32784, Note_on_c, 0, 80, 48
1, 32784, Note_on_c, 1, 64, 48
1, 32784, Note_on_c, 1, 60, 48
1, 32804, Note_on_c, 1, 64, 0
1, 32804, Note_on_c, 1, 60, 0
1, 32807, Note_on_c, 0, 80, 0
1, 32808, Note_on_c, 0, 81, 48
1, 32831, Note_on_c, 0, 81, 0
1, 32832, Note_on_c, 0, 83, 48
1, 32832, Note_on_c, 1, 57, 48
1, 32855, Note_on_c, 0, 83, 0
1, 32856, Note_on_c, 0, 81, 48
1, 32877, Note_on_c, 1, 57, 0
1, 32879, Note_on_c, 0, 81, 0
1, 32880, Note_on_c, 0, 80, 48
1, 32880, Note_on_c, 1, 64, 48
1, 32880, Note_on_c, 1, 60, 48
1, 32900, Note_on_c, 1, 64, 0
1, 32900, Note_on_c, 1, 60, 0
1, 32903, Note_on_c, 0, 80, 0
1, 32904, Note_on_c, 0, 81, 48
1, 32927, Note_on_c, 0, 81, 0
1, 32928, Note_on_c, 0, 84, 48
1, 32928, Note_on_c, 1, 53, 48
1, 32973, Note_on_c, 1, 53, 0
1, 32976, Note_on_c, 1, 63, 48
1, 32976, Note_on_c, 1, 57, 48
1, 32996, Note_on_c, 1, 63, 0
1, 32996, Note_on_c, 1, 57, 0
1, 33017, Note_on_c, 0, 84, 0
1, 33024, Note_on_c, 0, 81, 48
1, 33024, Note_on_c, 1, 63, 48
1, 33024, Note_on_c, 1, 57, 48
1, 33044, Note_on_c, 1, 63, 0
1, 33044, Note_on_c, 1, 57, 0
1, 33069, Note_on_c, 0, 81, 0
1, 33072, Note_on_c, 0, 83, 48
1, 33072, Note_on_c, 1, 63, 48
1, 33072, Note_on_c, 1, 57, 48
1, 33092, Note_on_c, 1, 63, 0
1, 33092, Note_on_c, 1, 57, 0
1, 33117, Note_on_c, 0, 83, 0
1, 33120, Note_on_c, 0, 81, 48
1, 33120, Note_on_c, 1, 52, 48
1, 33126, Note_on_c, 0, 81, 0
1, 33126, Note_on_c, 0, 83, 48
1, 33132, Note_on_c, 0, 83, 0
1, 33132, Note_on_c, 0, 84, 48
1, 33165, Note_on_c, 0, 84, 0
1, 33165, Note_on_c, 1, 52, 0
1, 33168, Note_on_c, 0, 83, 48
1, 33168, Note_on_c, 1, 64, 48
1, 33168, Note_on_c, 1, 57, 48
1, 33213, Note_on_c, 0, 83, 0
1, 33213, Note_on_c, 1, 64, 0
1, 33213, Note_on_c, 1, 57, 0
1, 33216, Note_on_c, 0, 81, 48
1, 33216, Note_on_c, 1, 50, 48
1, 33261, Note_on_c, 0, 81, 0
1, 33261, Note_on_c, 1, 50, 0
1, 33264, Note_on_c, 0, 80, 48
1, 33264, Note_on_c, 1, 59, 48
1, 33264, Note_on_c, 1, 53, 48
1, 33309, Note_on_c, 0, 80, 0
1, 33309, Note_on_c, 1, 59, 0
1, 33309, Note_on_c, 1, 53, 0
1, 33312, Note_on_c, 0, 81, 48
1, 33312, Note_on_c, 1, 48, 48
1, 33324, Note_on_c, 0, 81, 0
1, 33324, Note_on_c, 0, 83, 48
1, 33336, Note_on_c, 0, 83, 0
1, 33336, Note_on_c, 0, 81, 48
1, 33357, Note_on_c, 0, 81, 0
1, 33357, Note_on_c, 1, 48, 0
1, 33360, Note_on_c, 0, 76, 48
1, 33360, Note_on_c, 1, 57, 48
1, 33360, Note_on_c, 1, 52, 48
1, 33405, Note_on_c, 0, 76, 0
1, 33405, Note_on_c, 1, 57, 0
1, 33405, Note_on_c, 1, 52, 0
1, 33408, Note_on_c, 0, 77, 48
1, 33408, Note_on_c, 1, 50, 48
1, 33453, Note_on_c, 0, 77, 0
1, 33453, Note_on_c, 1, 50, 0
1, 33456, Note_on_c, 0, 74, 48
1, 33456, Note_on_c, 1, 59, 48
1, 33456, Note_on_c, 1, 53, 48
1, 33501, Note_on_c, 0, 74, 0
1, 33501, Note_on_c, 1, 59, 0
1, 33501, Note_on_c, 1, 53, 0
1, 33504, Note_on_c, 0, 72, 48
1, 33504, Note_on_c, 1, 57, 48
1, 33504, Note_on_c, 1, 52, 48
1, 33549, Note_on_c, 1, 57, 0
1, 33549, Note_on_c, 1, 52, 0
1, 33552, Note_on_c, 1, 57, 48
1, 33552, Note_on_c, 1, 52, 48
1, 33593, Note_on_c, 0, 72, 0
1, 33597, Note_on_c, 1, 57, 0
1, 33597, Note_on_c, 1, 52, 0
1, 33600, Note_on_c, 0, 71, 48
1, 33600, Note_on_c, 1, 56, 48
1, 33600, Note_on_c, 1, 52, 48
1, 33612, Note_on_c, 0, 71, 0
1, 33612, Note_on_c, 0, 72, 48
1, 33624, Note_on_c, 0, 72, 0
1, 33624, Note_on_c, 0, 71, 48
1, 33636, Note_on_c, 0, 71, 0
1, 33636, Note_on_c, 0, 72, 48
1, 33645, Note_on_c, 1, 56, 0
1, 33645, Note_on_c, 1, 52, 0
1, 33648, Note_on_c, 0, 72, 0
1, 33648, Note_on_c, 0, 71, 48
1, 33648, Note_on_c, 1, 56, 48
1, 33648, Note_on_c, 1, 52, 48
1, 33660, Note_on_c, 0, 71, 0
1, 33660, Note_on_c, 0, 72, 48
1, 33667, Note_on_c, 0, 72, 0
1, 33672, Note_on_c, 0, 69, 48
1, 33684, Note_on_c, 0, 69, 0
1, 33684, Note_on_c, 0, 71, 48
1, 33693, Note_on_c, 1, 56, 0
1, 33693, Note_on_c, 1, 52, 0
1, 33696, Note_on_c, 0, 71, 0
1, 33696, Note_on_c, 0, 69, 48
1, 33696, Note_on_c, 1, 57, 48
1, 33696, Note_on_c, 1, 45, 48
1, 33785, Note_on_c, 0, 69, 0
1, 33785, Note_on_c, 1, 57, 0
1, 33785, Note_on_c, 1, 45, 0
1, 33792, Note_on_c, 0, 69, 85
1, 33815, Note_on_c, 0, 69, 0
1, 33816, Note_on_c, 0, 81, 85
1, 33839, Note_on_c, 0, 81, 0
1, 33840, Note_on_c, 0, 71, 85
1, 33863, Note_on_c, 0, 71, 0
1, 33864, Note_on_c, 0, 83, 85
1, 33887, Note_on_c, 0, 83, 0
1, 33888, Note_on_c, 0, 73, 85
1, 33888, Note_on_c, 1, 45, 85
1, 33894, Note_on_c, 1, 45, 0
1, 33894, Note_on_c, 1, 49, 85
1, 33900, Note_on_c, 1, 49, 0
1, 33900, Note_on_c, 1, 52, 85
1, 33906, Note_on_c, 1, 52, 0
1, 33906, Note_on_c, 1, 57, 85
1, 33911, Note_on_c, 0, 73, 0
1, 33912, Note_on_c, 0, 85, 85
1, 33933, Note_on_c, 1, 57, 0
1, 33935, Note_on_c, 0, 85, 0
1, 33936, Note_on_c, 1, 57, 85
1, 33956, Note_on_c, 1, 57, 0
1, 33984, Note_on_c, 0, 69, 85
1, 33984, Note_on_c, 1, 57, 85
1, 34004, Note_on_c, 1, 57, 0
1, 34007, Note_on_c, 0, 69, 0
1, 34008, Note_on_c, 0, 81, 85
1, 34031, Note_on_c, 0, 81, 0
1, 34032, Note_on_c, 0, 71, 85
1, 34032, Note_on_c, 1, 57, 85
1, 34052, Note_on_c, 1, 57, 0
1, 34055, Note_on_c, 0, 71, 0
1, 34056, Note_on_c, 0, 83, 85
1, 34079, Note_on_c, 0, 83, 0
1, 34080, Note_on_c, 0, 73, 85
1, 34080, Note_on_c, 1, 45, 85
1, 34086, Note_on_c, 1, 45, 0
1, 34086, Note_on_c, 1, 49, 85
1, 34092, Note_on_c, 1, 49, 0
1, 34092, Note_on_c, 1, 52, 85
1, 34098, Note_on_c, 1, 52, 0
1, 34098, Note_on_c, 1, 57, 85
1, 34103, Note_on_c, 0, 73, 0
1, 34104, Note_on_c, 0, 85, 85
1, 34125, Note_on_c, 1, 57, 0
1, 34127, Note_on_c, 0, 85, 0
1, 34128, Note_on_c, 0, 71, 85
1, 34128, Note_on_c, 1, 57, 85
1, 34148, Note_on_c, 1, 57, 0
1, 34151, Note_on_c, 0, 71, 0
1, 34152, Note_on_c, 0, 83, 85
1, 34175, Note_on_c, 0, 83, 0
1, 34176, Note_on_c, 0, 69, 85
1, 34176, Note_on_c, 1, 57, 85
1, 34196, Note_on_c, 1, 57, 0
1, 34199, Note_on_c, 0, 69, 0
1, 34200, Note_on_c, 0, 81, 85
1, 34223, Note_on_c, 0, 81, 0
1, 34224, Note_on_c, 0, 68, 85
1, 34224, Note_on_c, 1, 57, 85
1, 34244, Note_on_c, 1, 57, 0
1, 34247, Note_on_c, 0, 68, 0
1, 34248, Note_on_c, 0, 80, 85
1, 34271, Note_on_c, 0, 80, 0
1, 34272, Note_on_c, 0, 66, 85
1, 34272, Note_on_c, 1, 38, 85
1, 34278, Note_on_c, 1, 38, 0
1, 34278, Note_on_c, 1, 42, 85
1, 34284, Note_on_c, 1, 42, 0
1, 34284, Note_on_c, 1, 45, 85
1, 34290, Note_on_c, 1, 45, 0
1, 34290, Note_on_c, 1, 50, 85
1, 34295, Note_on_c, 0, 66, 0
1, 34296, Note_on_c, 0, 78, 85
1, 34317, Note_on_c, 1, 50, 0
1, 34319, Note_on_c, 0, 78, 0
1, 34320, Note_on_c, 0, 68, 85
1, 34320, Note_on_c, 1, 50, 85
1, 34340, Note_on_c, 1, 50, 0
1, 34343, Note_on_c, 0, 68, 0
1, 34344, Note_on_c, 0, 80, 85
1, 34367, Note_on_c, 0, 80, 0
1, 34368, Note_on_c, 0, 69, 85
1, 34368, Note_on_c, 1, 39, 85
1, 34374, Note_on_c, 1, 39, 0
1, 34374, Note_on_c, 1, 42, 85
1, 34380, Note_on_c, 1, 42, 0
1, 34380, Note_on_c, 1, 45, 85
1, 34386, Note_on_c, 1, 45, 0
1, 34386, Note_on_c, 1, 51, 85
1, 34391, Note_on_c, 0, 69, 0
1, 34392, Note_on_c, 0, 81, 85
1, 34413, Note_on_c, 1, 51, 0
1, 34415, Note_on_c, 0, 81, 0
1, 34416, Note_on_c, 0, 71, 85
1, 34416, Note_on_c, 1, 51, 85
1, 34436, Note_on_c, 1, 51, 0
1, 34439, Note_on_c, 0, 71, 0
1, 34440, Note_on_c, 0, 83, 85
1, 34463, Note_on_c, 0, 83, 0
1, 34464, Note_on_c, 0, 68, 85
1, 34464, Note_on_c, 1, 40, 85
1, 34470, Note_on_c, 1, 40, 0
1, 34470, Note_on_c, 1, 44, 85
1, 34476, Note_on_c, 1, 44, 0
1, 34476, Note_on_c, 1, 47, 85
1, 34482, Note_on_c, 1, 47, 0
1, 34482, Note_on_c, 1, 52, 85
1, 34487, Note_on_c, 0, 68, 0
1, 34488, Note_on_c, 0, 80, 85
1, 34509, Note_on_c, 1, 52, 0
1, 34511, Note_on_c, 0, 80, 0
1, 34512, Note_on_c, 0, 64, 85
1, 34512, Note_on_c, 1, 52, 85
1, 34532, Note_on_c, 1, 52, 0
1, 34535, Note_on_c, 0, 64, 0
1, 34536, Note_on_c, 0, 76, 85
1, 34559, Note_on_c, 0, 76, 0
1, 34560, Note_on_c, 0, 69, 85
1, 34560, Note_on_c, 1, 52, 85
1, 34580, Note_on_c, 1, 52, 0
1, 34583, Note_on_c, 0, 69, 0
1, 34584, Note_on_c, 0, 81, 85
1, 34607, Note_on_c, 0, 81, 0
1, 34608, Note_on_c, 0, 71, 85
1, 34608, Note_on_c, 1, 52, 85
1, 34628, Note_on_c, 1, 52, 0
1, 34631, Note_on_c, 0, 71, 0
1, 34632, Note_on_c, 0, 83, 85
1, 34655, Note_on_c, 0, 83, 0
1, 34656, Note_on_c, 0, 73, 85
1, 34656, Note_on_c, 1, 45, 85
1, 34662, Note_on_c, 1, 45, 0
1, 34662, Note_on_c, 1, 49, 85
1, 34668, Note_on_c, 1, 49, 0
1, 34668, Note_on_c, 1, 52, 85
1, 34674, Note_on_c, 1, 52, 0
1, 34674, Note_on_c, 1, 57, 85
1, 34679, Note_on_c, 0, 73, 0
1, 34680, Note_on_c, 0, 85, 85
1, 34701, Note_on_c, 1, 57, 0
1, 34703, Note_on_c, 0, 85, 0
1, 34704, Note_on_c, 1, 57, 85
1, 34724, Note_on_c, 1, 57, 0
1, 34752, Note_on_c, 0, 69, 85
1, 34752, Note_on_c, 1, 57, 85
1, 34772, Note_on_c, 1, 57, 0
1, 34775, Note_on_c, 0, 69, 0
1, 34776, Note_on_c, 0, 81, 85
1, 34799, Note_on_c, 0, 81, 0
1, 34800, Note_on_c, 0, 71, 85
1, 34800, Note_on_c, 1, 57, 85
1, 34820, Note_on_c, 1, 57, 0
1, 34823, Note_on_c, 0, 71, 0
1, 34824, Note_on_c, 0, 83, 85
1, 34847, Note_on_c, 0, 83, 0
1, 34848, Note_on_c, 0, 73, 85
1, 34848, Note_on_c, 1, 45, 85
1, 34854, Note_on_c, 1, 45, 0
1, 34854, Note_on_c, 1, 49, 85
1, 34860, Note_on_c, 1, 49, 0
1, 34860, Note_on_c, 1, 52, 85
1, 34866, Note_on_c, 1, 52, 0
1, 34866, Note_on_c, 1, 57, 85
1, 34871, Note_on_c, 0, 73, 0
1, 34872, Note_on_c, 0, 85, 85
1, 34893, Note_on_c, 1, 57, 0
1, 34895, Note_on_c, 0, 85, 0
1, 34896, Note_on_c, 0, 71, 85
1, 34896, Note_on_c, 1, 57, 85
1, 34916, Note_on_c, 1, 57, 0
1, 34919, Note_on_c, 0, 71, 0
1, 34920, Note_on_c, 0, 83, 85
1, 34943, Note_on_c, 0, 83, 0
1, 34944, Note_on_c, 0, 69, 85
1, 34944, Note_on_c, 1, 57, 85
1, 34964, Note_on_c, 1, 57, 0
1, 34967, Note_on_c, 0, 69, 0
1, 34968, Note_on_c, 0, 81, 85
1, 34991, Note_on_c, 0, 81, 0
1, 34992, Note_on_c, 0, 68, 85
1, 34992, Note_on_c, 1, 57, 85
1, 35012, Note_on_c, 1, 57, 0
1, 35015, Note_on_c, 0, 68, 0
1, 35016, Note_on_c, 0, 80, 85
1, 35039, Note_on_c, 0, 80, 0
1, 35040, Note_on_c, 0, 66, 85
1, 35040, Note_on_c, 1, 38, 85
1, 35046, Note_on_c, 1, 38, 0
1, 35046, Note_on_c, 1, 42, 85
1, 35052, Note_on_c, 1, 42, 0
1, 35052, Note_on_c, 1, 45, 85
1, 35058, Note_on_c, 1, 45, 0
1, 35058, Note_on_c, 1, 50, 85
1, 35063, Note_on_c, 0, 66, 0
1, 35064, Note_on_c, 0, 78, 85
1, 35085, Note_on_c, 1, 50, 0
1, 35087, Note_on_c, 0, 78, 0
1, 35088, Note_on_c, 0, 71, 85
1, 35088, Note_on_c, 1, 50, 85
1, 35108, Note_on_c, 1, 50, 0
1, 35111, Note_on_c, 0, 71, 0
1, 35112, Note_on_c, 0, 83, 85
1, 35135, Note_on_c, 0, 83, 0
1, 35136, Note_on_c, 0, 68, 85
1, 35136, Note_on_c, 1, 40, 85
1, 35142, Note_on_c, 1, 40, 0
1, 35142, Note_on_c, 1, 44, 85
1, 35148, Note_on_c, 1, 44, 0
1, 35148, Note_on_c, 1, 47, 85
1, 35154, Note_on_c, 1, 47, 0
1, 35154, Note_on_c, 1, 52, 85
1, 35159, Note_on_c, 0, 68, 0
1, 35160, Note_on_c, 0, 80, 85
1, 35181, Note_on_c, 1, 52, 0
1, 35183, Note_on_c, 0, 80, 0
1, 35184, Note_on_c, 0, 64, 85
1, 35184, Note_on_c, 1, 52, 85
1, 35204, Note_on_c, 1, 52, 0
1, 35207, Note_on_c, 0, 64, 0
1, 35208, Note_on_c, 0, 76, 85
1, 35231, Note_on_c, 0, 76, 0
1, 35232, Note_on_c, 0, 81, 85
1, 35232, Note_on_c, 0, 69, 85
1, 35232, Note_on_c, 1, 45, 85
1, 35321, Note_on_c, 0, 81, 0
1, 35321, Note_on_c, 0, 69, 0
1, 35321, Note_on_c, 1, 45, 0
1, 35328, Note_on_c, 0, 69, 85
1, 35351, Note_on_c, 0, 69, 0
1, 35352, Note_on_c, 0, 81, 85
1, 35375, Note_on_c, 0, 81, 0
1, 35376, Note_on_c, 0, 71, 85
1, 35399, Note_on_c, 0, 71, 0
1, 35400, Note_on_c, 0, 83, 85
1, 35423, Note_on_c, 0, 83, 0
1, 35424, Note_on_c, 0, 73, 85
1, 35424, Note_on_c, 1, 45, 85
1, 35430, Note_on_c, 1, 45, 0
1, 35430, Note_on_c, 1, 49, 85
1, 35436, Note_on_c, 1, 49, 0
1, 35436, Note_on_c, 1, 52, 85
1, 35442, Note_on_c, 1, 52, 0
1, 35442, Note_on_c, 1, 57, 85
1, 35447, Note_on_c, 0, 73, 0
1, 35448, Note_on_c, 0, 85, 85
1, 35469, Note_on_c, 1, 57, 0
1, 35471, Note_on_c, 0, 85, 0
1, 35472, Note_on_c, 1, 57, 85
1, 35492, Note_on_c, 1, 57, 0
1, 35520, Note_on_c, 0, 69, 85
1, 35520, Note_on_c, 1, 57, 85
1, 35540, Note_on_c, 1, 57, 0
1, 35543, Note_on_c, 0, 69, 0
1, 35544, Note_on_c, 0, 81, 85
1, 35567, Note_on_c, 0, 81, 0
1, 35568, Note_on_c, 0, 71, 85
1, 35568, Note_on_c, 1, 57, 85
1, 35588, Note_on_c, 1, 57, 0
1, 35591, Note_on_c, 0, 71, 0
1, 35592, Note_on_c, 0, 83, 85
1, 35615, Note_on_c, 0, 83, 0
1, 35616, Note_on_c, 0, 73, 85
1, 35616, Note_on_c, 1, 45, 85
1, 35622, Note_on_c, 1, 45, 0
1, 35622, Note_on_c, 1, 49, 85
1, 35628, Note_on_c, 1, 49, 0
1, 35628, Note_on_c, 1, 52, 85
1, 35634, Note_on_c, 1, 52, 0
1, 35634, Note_on_c, 1, 57, 85
1, 35639, Note_on_c, 0, 73, 0
1, 35640, Note_on_c, 0, 85, 85
1, 35661, Note_on_c, 1, 57, 0
1, 35663, Note_on_c, 0, 85, 0
1, 35664, Note_on_c, 0, 71, 85
1, 35664, Note_on_c, 1, 57, 85
1, 35684, Note_on_c, 1, 57, 0
1, 35687, Note_on_c, 0, 71, 0
1, 35688, Note_on_c, 0, 83, 85
1, 35711, Note_on_c, 0, 83, 0
1, 35712, Note_on_c, 0, 69, 85
1, 35712, Note_on_c, 1, 57, 85
1, 35732, Note_on_c, 1, 57, 0
1, 35735, Note_on_c, 0, 69, 0
1, 35736, Note_on_c, 0, 81, 85
1, 35759, Note_on_c, 0, 81, 0
1, 35760, Note_on_c, 0, 68, 85
1, 35760, Note_on_c, 1, 57, 85
1, 35780, Note_on_c, 1, 57, 0
1, 35783, Note_on_c, 0, 68, 0
1, 35784, Note_on_c, 0, 80, 85
1, 35807, Note_on_c, 0, 80, 0
1, 35808, Note_on_c, 0, 66, 85
1, 35808, Note_on_c, 1, 38, 85
1, 35814, Note_on_c, 1, 38, 0
1, 35814, Note_on_c, 1, 42, 85
1, 35820, Note_on_c, 1, 42, 0
1, 35820, Note_on_c, 1, 45, 85
1, 35826, Note_on_c, 1, 45, 0
1, 35826, Note_on_c, 1, 50, 85
1, 35831, Note_on_c, 0, 66, 0
1, 35832, Note_on_c, 0, 78, 85
1, 35853, Note_on_c, 1, 50, 0
1, 35855, Note_on_c, 0, 78, 0
1, 35856, Note_on_c, 0, 68, 85
1, 35856, Note_on_c, 1, 50, 85
1, 35876, Note_on_c, 1, 50, 0
1, 35879, Note_on_c, 0, 68, 0
1, 35880, Note_on_c, 0, 80, 85
1, 35903, Note_on_c, 0, 80, 0
1, 35904, Note_on_c, 0, 69, 85
1, 35904, Note_on_c, 1, 39, 85
1, 35910, Note_on_c, 1, 39, 0
1, 35910, Note_on_c, 1, 42, 85
1, 35916, Note_on_c, 1, 42, 0
1, 35916, Note_on_c, 1, 45, 85
1, 35922, Note_on_c, 1, 45, 0
1, 35922, Note_on_c, 1, 51, 85
1, 35927, Note_on_c, 0, 69, 0
1, 35928, Note_on_c, 0, 81, 85
1, 35949, Note_on_c, 1, 51, 0
1, 35951, Note_on_c, 0, 81, 0
1, 35952, Note_on_c, 0, 71, 85
1, 35952, Note_on_c, 1, 51, 85
1, 35972, Note_on_c, 1, 51, 0
1, 35975, Note_on_c, 0, 71, 0
1, 35976, Note_on_c, 0, 83, 85
1, 35999, Note_on_c, 0, 83, 0
1, 36000, Note_on_c, 0, 68, 85
1, 36000, Note_on_c, 1, 40, 85
1, 36006, Note_on_c, 1, 40, 0
1, 36006, Note_on_c, 1, 44, 85
1, 36012, Note_on_c, 1, 44, 0
1, 36012, Note_on_c, 1, 47, 85
1, 36018, Note_on_c, 1, 47, 0
1, 36018, Note_on_c, 1, 52, 85
1, 36023, Note_on_c, 0, 68, 0
1, 36024, Note_on_c, 0, 80, 85
1, 36045, Note_on_c, 1, 52, 0
1, 36047, Note_on_c, 0, 80, 0
1, 36048, Note_on_c, 0, 64, 85
1, 36048, Note_on_c, 1, 52, 85
1, 36068, Note_on_c, 1, 52, 0
1, 36071, Note_on_c, 0, 64, 0
1, 36072, Note_on_c, 0, 76, 85
1, 36095, Note_on_c, 0, 76, 0
1, 36096, Note_on_c, 0, 69, 85
1, 36096, Note_on_c, 1, 52, 85
1, 36116, Note_on_c, 1, 52, 0
1, 36119, Note_on_c, 0, 69, 0
1, 36120, Note_on_c, 0, 81, 85
1, 36143, Note_on_c, 0, 81, 0
1, 36144, Note_on_c, 0, 71, 85
1, 36144, Note_on_c, 1, 52, 85
1, 36164, Note_on_c, 1, 52, 0
1, 36167, Note_on_c, 0, 71, 0
1, 36168, Note_on_c, 0, 83, 85
1, 36191, Note_on_c, 0, 83, 0
1, 36192, Note_on_c, 0, 73, 85
1, 36192, Note_on_c, 1, 45, 85
1, 36198, Note_on_c, 1, 45, 0
1, 36198, Note_on_c, 1, 49, 85
1, 36204, Note_on_c, 1, 49, 0
1, 36204, Note_on_c, 1, 52, 85
1, 36210, Note_on_c, 1, 52, 0
1, 36210, Note_on_c, 1, 57, 85
1, 36215, Note_on_c, 0, 73, 0
1, 36216, Note_on_c, 0, 85, 85
1, 36237, Note_on_c, 1, 57, 0
1, 36239, Note_on_c, 0, 85, 0
1, 36240, Note_on_c, 1, 57, 85
1, 36260, Note_on_c, 1, 57, 0
1, 36288, Note_on_c, 0, 69, 85
1, 36288, Note_on_c, 1, 57, 85
1, 36308, Note_on_c, 1, 57, 0
1, 36311, Note_on_c, 0, 69, 0
1, 36312, Note_on_c, 0, 81, 85
1, 36335, Note_on_c, 0, 81, 0
1, 36336, Note_on_c, 0, 71, 85
1, 36336, Note_on_c, 1, 57, 85
1, 36356, Note_on_c, 1, 57, 0
1, 36359, Note_on_c, 0, 71, 0
1, 36360, Note_on_c, 0, 83, 85
1, 36383, Note_on_c, 0, 83, 0
1, 36384, Note_on_c, 0, 73, 85
1, 36384, Note_on_c, 1, 45, 85
1, 36390, Note_on_c, 1, 45, 0
1, 36390, Note_on_c, 1, 49, 85
1, 36396, Note_on_c, 1, 49, 0
1, 36396, Note_on_c, 1, 52, 85
1, 36402, Note_on_c, 1, 52, 0
1, 36402, Note_on_c, 1, 57, 85
1, 36407, Note_on_c, 0, 73, 0
1, 36408, Note_on_c, 0, 85, 85
1, 36429, Note_on_c, 1, 57, 0
1, 36431, Note_on_c, 0, 85, 0
1, 36432, Note_on_c, 0, 71, 85
1, 36432, Note_on_c, 1, 57, 85
1, 36452, Note_on_c, 1, 57, 0
1, 36455, Note_on_c, 0, 71, 0
1, 36456, Note_on_c, 0, 83, 85
1, 36479, Note_on_c, 0, 83, 0
1, 36480, Note_on_c, 0, 69, 85
1, 36480, Note_on_c, 1, 57, 85
1, 36500, Note_on_c, 1, 57, 0
1, 36503, Note_on_c, 0, 69, 0
1, 36504, Note_on_c, 0, 81, 85
1, 36527, Note_on_c, 0, 81, 0
1, 36528, Note_on_c, 0, 68, 85
1, 36528, Note_on_c, 1, 57, 85
1, 36548, Note_on_c, 1, 57, 0
1, 36551, Note_on_c, 0, 68, 0
1, 36552, Note_on_c, 0, 80, 85
1, 36575, Note_on_c, 0, 80, 0
1, 36576, Note_on_c, 0, 66, 85
1, 36576, Note_on_c, 1, 38, 85
1, 36582, Note_on_c, 1, 38, 0
1, 36582, Note_on_c, 1, 42, 85
1, 36588, Note_on_c, 1, 42, 0
1, 36588, Note_on_c, 1, 45, 85
1, 36594, Note_on_c, 1, 45, 0
1, 36594, Note_on_c, 1, 50, 85
1, 36599, Note_on_c, 0, 66, 0
1, 36600, Note_on_c, 0, 78, 85
1, 36621, Note_on_c, 1, 50, 0
1, 36623, Note_on_c, 0, 78, 0
1, 36624, Note_on_c, 0, 71, 85
1, 36624, Note_on_c, 1, 50, 85
1, 36644, Note_on_c, 1, 50, 0
1, 36647, Note_on_c, 0, 71, 0
1, 36648, Note_on_c, 0, 83, 85
1, 36671, Note_on_c, 0, 83, 0
1, 36672, Note_on_c, 0, 68, 85
1, 36672, Note_on_c, 1, 40, 85
1, 36678, Note_on_c, 1, 40, 0
1, 36678, Note_on_c, 1, 44, 85
1, 36684, Note_on_c, 1, 44, 0
1, 36684, Note_on_c, 1, 47, 85
1, 36690, Note_on_c, 1, 47, 0
1, 36690, Note_on_c, 1, 52, 85
1, 36695, Note_on_c, 0, 68, 0
1, 36696, Note_on_c, 0, 80, 85
1, 36717, Note_on_c, 1, 52, 0
1, 36719, Note_on_c, 0, 80, 0
1, 36720, Note_on_c, 0, 64, 85
1, 36720, Note_on_c, 1, 52, 85
1, 36740, Note_on_c, 1, 52, 0
1, 36743, Note_on_c, 0, 64, 0
1, 36744, Note_on_c, 0, 76, 85
1, 36767, Note_on_c, 0, 76, 0
1, 36768, Note_on_c, 0, 81, 85
1, 36768, Note_on_c, 0, 69, 85
1, 36768, Note_on_c, 1, 45, 85
1, 36774, Note_on_c, 1, 45, 0
1, 36774, Note_on_c, 1, 49, 85
1, 36780, Note_on_c, 1, 49, 0
1, 36780, Note_on_c, 1, 52, 85
1, 36786, Note_on_c, 1, 52, 0
1, 36786, Note_on_c, 1, 57, 85
1, 36813, Note_on_c, 1, 57, 0
1, 36816, Note_on_c, 1, 57, 85
1, 36836, Note_on_c, 1, 57, 0
1, 36857, Note_on_c, 0, 81, 0
1, 36857, Note_on_c, 0, 69, 0
1, 36864, Note_on_c, 0, 85, 85
1, 36864, Note_on_c, 0, 73, 85
1, 36864, Note_on_c, 1, 57, 85
1, 36884, Note_on_c, 1, 57, 0
1, 36912, Note_on_c, 1, 57, 85
1, 36931, Note_on_c, 0, 85, 0
1, 36932, Note_on_c, 1, 57, 0
1, 36936, Note_on_c, 0, 85, 85
1, 36953, Note_on_c, 0, 73, 0
1, 36959, Note_on_c, 0, 85, 0
1, 36960, Note_on_c, 0, 85, 85
1, 36960, Note_on_c, 0, 73, 85
1, 36960, Note_on_c, 1, 45, 85
1, 36966, Note_on_c, 1, 45, 0
1, 36966, Note_on_c, 1, 49, 85
1, 36972, Note_on_c, 1, 49, 0
1, 36972, Note_on_c, 1, 52, 85
1, 36976, Note_on_c, 0, 76, 85
1, 36978, Note_on_c, 1, 52, 0
1, 36978, Note_on_c, 1, 57, 85
1, 36992, Note_on_c, 0, 81, 85
1, 37005, Note_on_c, 1, 57, 0
1, 37008, Note_on_c, 1, 57, 85
1, 37028, Note_on_c, 1, 57, 0
1, 37049, Note_on_c, 0, 81, 0
1, 37049, Note_on_c, 0, 76, 0
1, 37049, Note_on_c, 0, 73, 0
1, 37056, Note_on_c, 1, 57, 85
1, 37076, Note_on_c, 1, 57, 0
1, 37104, Note_on_c, 1, 57, 85
1, 37124, Note_on_c, 1, 57, 0
1, 37137, Note_on_c, 0, 85, 0
1, 37152, Note_on_c, 0, 85, 85
1, 37152, Note_on_c, 0, 73, 85
1, 37152, Note_on_c, 1, 45, 85
1, 37158, Note_on_c, 1, 45, 0
1, 37158, Note_on_c, 1, 49, 85
1, 37164, Note_on_c, 1, 49, 0
1, 37164, Note_on_c, 1, 52, 85
1, 37168, Note_on_c, 0, 76, 85
1, 37170, Note_on_c, 1, 52, 0
1, 37170, Note_on_c, 1, 57, 85
1, 37184, Note_on_c, 0, 81, 85
1, 37197, Note_on_c, 1, 57, 0
1, 37200, Note_on_c, 1, 57, 85
1, 37220, Note_on_c, 1, 57, 0
1, 37241, Note_on_c, 0, 81, 0
1, 37241, Note_on_c, 0, 76, 0
1, 37241, Note_on_c, 0, 73, 0
1, 37248, Note_on_c, 1, 57, 85
1, 37268, Note_on_c, 1, 57, 0
1, 37296, Note_on_c, 1, 57, 85
1, 37316, Note_on_c, 1, 57, 0
1, 37329, Note_on_c, 0, 85, 0
1, 37344, Note_on_c, 0, 86, 85
1, 37344, Note_on_c, 1, 45, 85
1, 37350, Note_on_c, 1, 45, 0
1, 37350, Note_on_c, 1, 49, 85
1, 37356, Note_on_c, 1, 49, 0
1, 37356, Note_on_c, 1, 52, 85
1, 37362, Note_on_c, 1, 52, 0
1, 37362, Note_on_c, 1, 57, 85
1, 37367, Note_on_c, 0, 86, 0
1, 37368, Note_on_c, 0, 85, 86
1, 37389, Note_on_c, 1, 57, 0
1, 37391, Note_on_c, 0, 85, 0
1, 37392, Note_on_c, 0, 83, 87
1, 37392, Note_on_c, 1, 57, 87
1, 37412, Note_on_c, 1, 57, 0
1, 37415, Note_on_c, 0, 83, 0
1, 37416, Note_on_c, 0, 85, 89
1, 37439, Note_on_c, 0, 85, 0
1, 37440, Note_on_c, 0, 86, 90
1, 37440, Note_on_c, 1, 57, 90
1, 37460, Note_on_c, 1, 57, 0
1, 37463, Note_on_c, 0, 86, 0
1, 37464, Note_on_c, 0, 85, 91
1, 37487, Note_on_c, 0, 85, 0
1, 37488, Note_on_c, 0, 83, 93
1, 37488, Note_on_c, 1, 57, 93
1, 37508, Note_on_c, 1, 57, 0
1, 37511, Note_on_c, 0, 83, 0
1, 37512, Note_on_c, 0, 85, 94
1, 37535, Note_on_c, 0, 85, 0
1, 37536, Note_on_c, 0, 86, 127
1, 37536, Note_on_c, 0, 81, 127
1, 37536, Note_on_c, 0, 78, 127
1, 37536, Note_on_c, 1, 38, 127
1, 37542, Note_on_c, 1, 38, 0
1, 37542, Note_on_c, 1, 42, 127
1, 37548, Note_on_c, 1, 42, 0
1, 37548, Note_on_c, 1, 45, 127
1, 37554, Note_on_c, 1, 45, 0
1, 37554, Note_on_c, 1, 50, 127
1, 37581, Note_on_c, 1, 50, 0
1, 37584, Note_on_c, 1, 50, 96
1, 37604, Note_on_c, 1, 50, 0
1, 37632, Note_on_c, 1, 50, 96
1, 37652, Note_on_c, 1, 50, 0
1, 37680, Note_on_c, 1, 50, 90
1, 37700, Note_on_c, 1, 50, 0
1, 37713, Note_on_c, 0, 86, 0
1, 37713, Note_on_c, 0, 81, 0
1, 37713, Note_on_c, 0, 78, 0
1, 37728, Note_on_c, 0, 86, 85
1, 37728, Note_on_c, 1, 45, 85
1, 37734, Note_on_c, 0, 86, 0
1, 37734, Note_on_c, 0, 85, 85
1, 37734, Note_on_c, 0, 81, 85
1, 37734, Note_on_c, 0, 76, 85
1, 37734, Note_on_c, 1, 45, 0
1, 37734, Note_on_c, 1, 49, 85
1, 37740, Note_on_c, 1, 49, 0
1, 37740, Note_on_c, 1, 52, 85
1, 37746, Note_on_c, 1, 52, 0
1, 37746, Note_on_c, 1, 57, 85
1, 37773, Note_on_c, 0, 85, 0
1, 37773, Note_on_c, 0, 81, 0
1, 37773, Note_on_c, 0, 76, 0
1, 37773, Note_on_c, 1, 57, 0
1, 37776, Note_on_c, 0, 86, 85
1, 37776, Note_on_c, 1, 57, 85
1, 37782, Note_on_c, 0, 86, 0
1, 37782, Note_on_c, 0, 85, 85
1, 37782, Note_on_c, 0, 81, 85
1, 37782, Note_on_c, 0, 76, 85
1, 37796, Note_on_c, 1, 57, 0
1, 37821, Note_on_c, 0, 85, 0
1, 37821, Note_on_c, 0, 81, 0
1, 37821, Note_on_c, 0, 76, 0
1, 37824, Note_on_c, 0, 86, 85
1, 37824, Note_on_c, 1, 57, 85
1, 37830, Note_on_c, 0, 86, 0
1, 37830, Note_on_c, 0, 85, 85
1, 37830, Note_on_c, 0, 81, 85
1, 37830, Note_on_c, 0, 76, 85
1, 37844, Note_on_c, 1, 57, 0
1, 37869, Note_on_c, 0, 85, 0
1, 37869, Note_on_c, 0, 81, 0
1, 37869, Note_on_c, 0, 76, 0
1, 37872, Note_on_c, 0, 86, 85
1, 37872, Note_on_c, 1, 57, 85
1, 37878, Note_on_c, 0, 86, 0
1, 37878, Note_on_c, 0, 85, 85
1, 37878, Note_on_c, 0, 81, 85
1, 37878, Note_on_c, 0, 76, 85
1, 37892, Note_on_c, 1, 57, 0
1, 37917, Note_on_c, 0, 85, 0
1, 37917, Note_on_c, 0, 81, 0
1, 37917, Note_on_c, 0, 76, 0
1, 37920, Note_on_c, 0, 83, 85
1, 37920, Note_on_c, 0, 80, 85
1, 37920, Note_on_c, 0, 76, 85
1, 37920, Note_on_c, 1, 40, 85
1, 37926, Note_on_c, 1, 40, 0
1, 37926, Note_on_c, 1, 44, 85
1, 37932, Note_on_c, 1, 44, 0
1, 37932, Note_on_c, 1, 47, 85
1, 37938, Note_on_c, 1, 47, 0
1, 37938, Note_on_c, 1, 52, 85
1, 37965, Note_on_c, 1, 52, 0
1, 37968, Note_on_c, 1, 52, 85
1, 37988, Note_on_c, 1, 52, 0
1, 38016, Note_on_c, 1, 52, 85
1, 38036, Note_on_c, 1, 52, 0
1, 38053, Note_on_c, 0, 83, 0
1, 38064, Note_on_c, 0, 88, 85
1, 38064, Note_on_c, 1, 52, 85
1, 38084, Note_on_c, 1, 52, 0
1, 38097, Note_on_c, 0, 80, 0
1, 38097, Note_on_c, 0, 76, 0
1, 38109, Note_on_c, 0, 88, 0
1, 38112, Note_on_c, 0, 85, 85
1, 38112, Note_on_c, 0, 73, 85
1, 38112, Note_on_c, 1, 45, 85
1, 38118, Note_on_c, 1, 45, 0
1, 38118, Note_on_c, 1, 49, 85
1, 38124, Note_on_c, 1, 49, 0
1, 38124, Note_on_c, 1, 52, 85
1, 38128, Note_on_c, 0, 76, 85
1, 38130, Note_on_c, 1, 52, 0
1, 38130, Note_on_c, 1, 57, 85
1, 38144, Note_on_c, 0, 81, 85
1, 38157, Note_on_c, 1, 57, 0
1, 38160, Note_on_c, 1, 57, 82
1, 38180, Note_on_c, 1, 57, 0
1, 38201, Note_on_c, 0, 81, 0
1, 38201, Note_on_c, 0, 76, 0
1, 38201, Note_on_c, 0, 73, 0
1, 38208, Note_on_c, 1, 57, 79
1, 38228, Note_on_c, 1, 57, 0
1, 38256, Note_on_c, 1, 57, 76
1, 38276, Note_on_c, 1, 57, 0
1, 38289, Note_on_c, 0, 85, 0
1, 38304, Note_on_c, 0, 85, 78
1, 38304, Note_on_c, 0, 73, 75
1, 38304, Note_on_c, 1, 45, 73
1, 38310, Note_on_c, 1, 45, 0
1, 38310, Note_on_c, 1, 49, 73
1, 38316, Note_on_c, 1, 49, 0
1, 38316, Note_on_c, 1, 52, 73
1, 38320, Note_on_c, 0, 76, 75
1, 38322, Note_on_c, 1, 52, 0
1, 38322, Note_on_c, 1, 57, 73
1, 38336, Note_on_c, 0, 81, 75
1, 38349, Note_on_c, 1, 57, 0
1, 38352, Note_on_c, 1, 57, 71
1, 38372, Note_on_c, 1, 57, 0
1, 38393, Note_on_c, 0, 81, 0
1, 38393, Note_on_c, 0, 76, 0
1, 38393, Note_on_c, 0, 73, 0
1, 38400, Note_on_c, 1, 57, 71
1, 38420, Note_on_c, 1, 57, 0
1, 38448, Note_on_c, 1, 57, 71
1, 38468, Note_on_c, 1, 57, 0
1, 38481, Note_on_c, 0, 85, 0
1, 38496, Note_on_c, 0, 86, 71
1, 38496, Note_on_c, 1, 45, 71
1, 38502, Note_on_c, 1, 45, 0
1, 38502, Note_on_c, 1, 49, 71
1, 38508, Note_on_c, 1, 49, 0
1, 38508, Note_on_c, 1, 52, 71
1, 38514, Note_on_c, 1, 52, 0
1, 38514, Note_on_c, 1, 57, 71
1, 38519, Note_on_c, 0, 86, 0
1, 38520, Note_on_c, 0, 85, 72
1, 38541, Note_on_c, 1, 57, 0
1, 38543, Note_on_c, 0, 85, 0
1, 38544, Note_on_c, 0, 83, 74
1, 38544, Note_on_c, 1, 57, 74
1, 38564, Note_on_c, 1, 57, 0
1, 38567, Note_on_c, 0, 83, 0
1, 38568, Note_on_c, 0, 85, 76
1, 38591, Note_on_c, 0, 85, 0
1, 38592, Note_on_c, 0, 86, 78
1, 38592, Note_on_c, 1, 57, 78
1, 38612, Note_on_c, 1, 57, 0
1, 38615, Note_on_c, 0, 86, 0
1, 38616, Note_on_c, 0, 85, 79
1, 38639, Note_on_c, 0, 85, 0
1, 38640, Note_on_c, 0, 83, 81
1, 38640, Note_on_c, 1, 57, 81
1, 38660, Note_on_c, 1, 57, 0
1, 38663, Note_on_c, 0, 83, 0
1, 38664, Note_on_c, 0, 85, 83
1, 38687, Note_on_c, 0, 85, 0
1, 38688, Note_on_c, 0, 86, 127
1, 38688, Note_on_c, 0, 81, 127
1, 38688, Note_on_c, 0, 78, 127
1, 38688, Note_on_c, 1, 38, 127
1, 38694, Note_on_c, 1, 38, 0
1, 38694, Note_on_c, 1, 42, 127
1, 38700, Note_on_c, 1, 42, 0
1, 38700, Note_on_c, 1, 45, 127
1, 38706, Note_on_c, 1, 45, 0
1, 38706, Note_on_c, 1, 50, 127
1, 38733, Note_on_c, 1, 50, 0
1, 38736, Note_on_c, 1, 50, 85
1, 38756, Note_on_c, 1, 50, 0
1, 38784, Note_on_c, 1, 50, 83
1, 38804, Note_on_c, 1, 50, 0
1, 38832, Note_on_c, 1, 50, 81
1, 38852, Note_on_c, 1, 50, 0
1, 38865, Note_on_c, 0, 86, 0
1, 38865, Note_on_c, 0, 81, 0
1, 38865, Note_on_c, 0, 78, 0
1, 38880, Note_on_c, 0, 86, 85
1, 38880, Note_on_c, 1, 45, 79
1, 38886, Note_on_c, 0, 86, 0
1, 38886, Note_on_c, 0, 85, 85
1, 38886, Note_on_c, 0, 81, 85
1, 38886, Note_on_c, 0, 76, 85
1, 38886, Note_on_c, 1, 45, 0
1, 38886, Note_on_c, 1, 49, 79
1, 38892, Note_on_c, 1, 49, 0
1, 38892, Note_on_c, 1, 52, 79
1, 38898, Note_on_c, 1, 52, 0
1, 38898, Note_on_c, 1, 57, 79
1, 38925, Note_on_c, 1, 57, 0
1, 38928, Note_on_c, 1, 57, 77
1, 38948, Note_on_c, 1, 57, 0
1, 38976, Note_on_c, 1, 57, 75
1, 38996, Note_on_c, 1, 57, 0
1, 39024, Note_on_c, 1, 57, 73
1, 39044, Note_on_c, 1, 57, 0
1, 39057, Note_on_c, 0, 85, 0
1, 39057, Note_on_c, 0, 81, 0
1, 39057, Note_on_c, 0, 76, 0
1, 39072, Note_on_c, 0, 85, 71
1, 39072, Note_on_c, 1, 40, 71
1, 39078, Note_on_c, 0, 85, 0
1, 39078, Note_on_c, 0, 83, 71
1, 39078, Note_on_c, 0, 80, 71
1, 39078, Note_on_c, 0, 76, 71
1, 39078, Note_on_c, 1, 40, 0
1, 39078, Note_on_c, 1, 44, 71
1, 39084, Note_on_c, 1, 44, 0
1, 39084, Note_on_c, 1, 47, 71
1, 39090, Note_on_c, 1, 47, 0
1, 39090, Note_on_c, 1, 52, 71
1, 39117, Note_on_c, 0, 83, 0
1, 39117, Note_on_c, 0, 80, 0
1, 39117, Note_on_c, 0, 76, 0
1, 39117, Note_on_c, 1, 52, 0
1, 39120, Note_on_c, 0, 85, 71
1, 39120, Note_on_c, 1, 52, 71
1, 39126, Note_on_c, 0, 85, 0
1, 39126, Note_on_c, 0, 83, 71
1, 39126, Note_on_c, 0, 80, 71
1, 39126, Note_on_c, 0, 76, 71
1, 39140, Note_on_c, 1, 52, 0
1, 39165, Note_on_c, 0, 83, 0
1, 39165, Note_on_c, 0, 80, 0
1, 39165, Note_on_c, 0, 76, 0
1, 39168, Note_on_c, 0, 85, 71
1, 39168, Note_on_c, 1, 52, 71
1, 39174, Note_on_c, 0, 85, 0
1, 39174, Note_on_c, 0, 83, 71
1, 39174, Note_on_c, 0, 80, 71
1, 39174, Note_on_c, 0, 76, 71
1, 39188, Note_on_c, 1, 52, 0
1, 39213, Note_on_c, 0, 83, 0
1, 39213, Note_on_c, 0, 80, 0
1, 39213, Note_on_c, 0, 76, 0
1, 39216, Note_on_c, 0, 85, 71
1, 39216, Note_on_c, 1, 52, 71
1, 39222, Note_on_c, 0, 85, 0
1, 39222, Note_on_c, 0, 83, 71
1, 39222, Note_on_c, 0, 80, 71
1, 39222, Note_on_c, 0, 76, 71
1, 39236, Note_on_c, 1, 52, 0
1, 39261, Note_on_c, 0, 83, 0
1, 39261, Note_on_c, 0, 80, 0
1, 39261, Note_on_c, 0, 76, 0
1, 39264, Note_on_c, 0, 81, 71
1, 39264, Note_on_c, 1, 57, 71
1, 39287, Note_on_c, 1, 57, 0
1, 39288, Note_on_c, 1, 64, 71
1, 39311, Note_on_c, 1, 64, 0
1, 39312, Note_on_c, 1, 61, 71
1, 39335, Note_on_c, 1, 61, 0
1, 39336, Note_on_c, 1, 64, 71
1, 39353, Note_on_c, 0, 81, 0
1, 39359, Note_on_c, 1, 64, 0
1, 39360, Note_on_c, 0, 76, 48
1, 39360, Note_on_c, 1, 57, 48
1, 39366, Note_on_c, 0, 76, 0
1, 39366, Note_on_c, 0, 81, 48
1, 39372, Note_on_c, 0, 81, 0
1, 39372, Note_on_c, 0, 85, 48
1, 39383, Note_on_c, 1, 57, 0
1, 39384, Note_on_c, 1, 64, 50
1, 39407, Note_on_c, 1, 64, 0
1, 39408, Note_on_c, 1, 61, 53
1, 39427, Note_on_c, 0, 85, 0
1, 39431, Note_on_c, 1, 61, 0
1, 39432, Note_on_c, 0, 85, 51
1, 39432, Note_on_c, 1, 64, 55
1, 39455, Note_on_c, 0, 85, 0
1, 39455, Note_on_c, 1, 64, 0
1, 39456, Note_on_c, 0, 76, 52
1, 39456, Note_on_c, 1, 57, 58
1, 39462, Note_on_c, 0, 76, 0
1, 39462, Note_on_c, 0, 81, 52
1, 39468, Note_on_c, 0, 81, 0
1, 39468, Note_on_c, 0, 85, 52
1, 39479, Note_on_c, 1, 57, 0
1, 39480, Note_on_c, 1, 64, 61
1, 39503, Note_on_c, 1, 64, 0
1, 39504, Note_on_c, 1, 61, 61
1, 39527, Note_on_c, 1, 61, 0
1, 39528, Note_on_c, 1, 64, 61
1, 39551, Note_on_c, 1, 64, 0
1, 39552, Note_on_c, 1, 57, 61
1, 39575, Note_on_c, 1, 57, 0
1, 39576, Note_on_c, 1, 64, 61
1, 39599, Note_on_c, 1, 64, 0
1, 39600, Note_on_c, 1, 61, 61
1, 39623, Note_on_c, 1, 61, 0
1, 39624, Note_on_c, 1, 64, 61
1, 39633, Note_on_c, 0, 85, 0
1, 39647, Note_on_c, 1, 64, 0
1, 39648, Note_on_c, 0, 76, 61
1, 39648, Note_on_c, 1, 57, 61
1, 39654, Note_on_c, 0, 76, 0
1, 39654, Note_on_c, 0, 81, 61
1, 39660, Note_on_c, 0, 81, 0
1, 39660, Note_on_c, 0, 85, 61
1, 39671, Note_on_c, 1, 57, 0
1, 39672, Note_on_c, 1, 64, 59
1, 39695, Note_on_c, 1, 64, 0
1, 39696, Note_on_c, 1, 61, 57
1, 39719, Note_on_c, 1, 61, 0
1, 39720, Note_on_c, 1, 64, 56
1, 39743, Note_on_c, 1, 64, 0
1, 39744, Note_on_c, 1, 57, 54
1, 39767, Note_on_c, 1, 57, 0
1, 39768, Note_on_c, 1, 64, 52
1, 39791, Note_on_c, 1, 64, 0
1, 39792, Note_on_c, 1, 61, 51
1, 39815, Note_on_c, 1, 61, 0
1, 39816, Note_on_c, 1, 64, 49
1, 39825, Note_on_c, 0, 85, 0
1, 39839, Note_on_c, 1, 64, 0
1, 39840, Note_on_c, 0, 86, 48
1, 39840, Note_on_c, 1, 57, 48
1, 39863, Note_on_c, 0, 86, 0
1, 39863, Note_on_c, 1, 57, 0
1, 39864, Note_on_c, 0, 85, 48
1, 39864, Note_on_c, 1, 64, 48
1, 39887, Note_on_c, 0, 85, 0
1, 39887, Note_on_c, 1, 64, 0
1, 39888, Note_on_c, 0, 83, 48
1, 39888, Note_on_c, 1, 61, 48
1, 39911, Note_on_c, 0, 83, 0
1, 39911, Note_on_c, 1, 61, 0
1, 39912, Note_on_c, 0, 85, 48
1, 39912, Note_on_c, 1, 64, 48
1, 39935, Note_on_c, 0, 85, 0
1, 39935, Note_on_c, 1, 64, 0
1, 39936, Note_on_c, 0, 86, 48
1, 39936, Note_on_c, 1, 57, 48
1, 39959, Note_on_c, 0, 86, 0
1, 39959, Note_on_c, 1, 57, 0
1, 39960, Note_on_c, 0, 85, 48
1, 39960, Note_on_c, 1, 64, 48
1, 39983, Note_on_c, 0, 85, 0
1, 39983, Note_on_c, 1, 64, 0
1, 39984, Note_on_c, 0, 83, 48
1, 39984, Note_on_c, 1, 61, 48
1, 40007, Note_on_c, 0, 83, 0
1, 40007, Note_on_c, 1, 61, 0
1, 40008, Note_on_c, 0, 85, 48
1, 40008, Note_on_c, 1, 64, 48
1, 40031, Note_on_c, 0, 85, 0
1, 40031, Note_on_c, 1, 64, 0
1, 40032, Note_on_c, 0, 86, 127
1, 40032, Note_on_c, 1, 57, 127
1, 40055, Note_on_c, 1, 57, 0
1, 40056, Note_on_c, 1, 66, 48
1, 40079, Note_on_c, 1, 66, 0
1, 40080, Note_on_c, 1, 62, 48
1, 40103, Note_on_c, 1, 62, 0
1, 40104, Note_on_c, 1, 66, 48
1, 40127, Note_on_c, 1, 66, 0
1, 40128, Note_on_c, 1, 57, 48
1, 40151, Note_on_c, 1, 57, 0
1, 40152, Note_on_c, 1, 66, 48
1, 40175, Note_on_c, 1, 66, 0
1, 40176, Note_on_c, 1, 62, 48
1, 40199, Note_on_c, 1, 62, 0
1, 40200, Note_on_c, 1, 66, 48
1, 40209, Note_on_c, 0, 86, 0
1, 40223, Note_on_c, 1, 66, 0
1, 40224, Note_on_c, 0, 86, 48
1, 40224, Note_on_c, 1, 57, 48
1, 40230, Note_on_c, 0, 86, 0
1, 40230, Note_on_c, 0, 85, 48
1, 40247, Note_on_c, 1, 57, 0
1, 40248, Note_on_c, 1, 64, 48
1, 40269, Note_on_c, 0, 85, 0
1, 40271, Note_on_c, 1, 64, 0
1, 40272, Note_on_c, 0, 86, 48
1, 40272, Note_on_c, 1, 61, 48
1, 40278, Note_on_c, 0, 86, 0
1, 40278, Note_on_c, 0, 85, 48
1, 40295, Note_on_c, 1, 61, 0
1, 40296, Note_on_c, 1, 64, 48
1, 40317, Note_on_c, 0, 85, 0
1, 40319, Note_on_c, 1, 64, 0
1, 40320, Note_on_c, 0, 86, 48
1, 40320, Note_on_c, 1, 57, 48
1, 40326, Note_on_c, 0, 86, 0
1, 40326, Note_on_c, 0, 85, 48
1, 40343, Note_on_c, 1, 57, 0
1, 40344, Note_on_c, 1, 64, 48
1, 40365, Note_on_c, 0, 85, 0
1, 40367, Note_on_c, 1, 64, 0
1, 40368, Note_on_c, 0, 86, 48
1, 40368, Note_on_c, 1, 61, 48
1, 40374, Note_on_c, 0, 86, 0
1, 40374, Note_on_c, 0, 85, 48
1, 40391, Note_on_c, 1, 61, 0
1, 40392, Note_on_c, 1, 64, 48
1, 40413, Note_on_c, 0, 85, 0
1, 40415, Note_on_c, 1, 64, 0
1, 40416, Note_on_c, 0, 83, 48
1, 40416, Note_on_c, 1, 52, 48
1, 40439, Note_on_c, 1, 52, 0
1, 40440, Note_on_c, 1, 64, 48
1, 40463, Note_on_c, 1, 64, 0
1, 40464, Note_on_c, 1, 59, 48
1, 40487, Note_on_c, 1, 59, 0
1, 40488, Note_on_c, 1, 64, 48
1, 40511, Note_on_c, 1, 64, 0
1, 40512, Note_on_c, 1, 52, 48
1, 40535, Note_on_c, 1, 52, 0
1, 40536, Note_on_c, 1, 64, 48
1, 40549, Note_on_c, 0, 83, 0
1, 40559, Note_on_c, 1, 64, 0
1, 40560, Note_on_c, 0, 88, 48
1, 40560, Note_on_c, 1, 59, 48
1, 40583, Note_on_c, 1, 59, 0
1, 40584, Note_on_c, 1, 64, 48
1, 40605, Note_on_c, 0, 88, 0
1, 40607, Note_on_c, 1, 64, 0
1, 40608, Note_on_c, 0, 85, 48
1, 40608, Note_on_c, 0, 73, 48
1, 40608, Note_on_c, 1, 45, 48
1, 40614, Note_on_c, 1, 45, 0
1, 40614, Note_on_c, 1, 49, 48
1, 40620, Note_on_c, 1, 49, 0
1, 40620, Note_on_c, 1, 52, 48
1, 40624, Note_on_c, 0, 76, 48
1, 40626, Note_on_c, 1, 52, 0
1, 40626, Note_on_c, 1, 57, 48
1, 40640, Note_on_c, 0, 81, 48
1, 40653, Note_on_c, 1, 57, 0
1, 40656, Note_on_c, 1, 57, 48
1, 40676, Note_on_c, 1, 57, 0
1, 40697, Note_on_c, 0, 81, 0
1, 40697, Note_on_c, 0, 76, 0
1, 40697, Note_on_c, 0, 73, 0
1, 40704, Note_on_c, 1, 57, 48
1, 40724, Note_on_c, 1, 57, 0
1, 40752, Note_on_c, 1, 57, 48
1, 40772, Note_on_c, 1, 57, 0
1, 40785, Note_on_c, 0, 85, 0
1, 40800, Note_on_c, 0, 85, 48
1, 40800, Note_on_c, 0, 73, 48
1, 40800, Note_on_c, 1, 45, 48
1, 40806, Note_on_c, 1, 45, 0
1, 40806, Note_on_c, 1, 49, 48
1, 40812, Note_on_c, 1, 49, 0
1, 40812, Note_on_c, 1, 52, 48
1, 40816, Note_on_c, 0, 76, 48
1, 40818, Note_on_c, 1, 52, 0
1, 40818, Note_on_c, 1, 57, 48
1, 40832, Note_on_c, 0, 81, 48
1, 40845, Note_on_c, 1, 57, 0
1, 40848, Note_on_c, 1, 57, 48
1, 40868, Note_on_c, 1, 57, 0
1, 40889, Note_on_c, 0, 81, 0
1, 40889, Note_on_c, 0, 76, 0
1, 40889, Note_on_c, 0, 73, 0
1, 40896, Note_on_c, 1, 57, 48
1, 40916, Note_on_c, 1, 57, 0
1, 40944, Note_on_c, 1, 57, 48
1, 40964, Note_on_c, 1, 57, 0
1, 40977, Note_on_c, 0, 85, 0
1, 40992, Note_on_c, 0, 86, 48
1, 40992, Note_on_c, 1, 45, 48
1, 40998, Note_on_c, 1, 45, 0
1, 40998, Note_on_c, 1, 49, 48
1, 41004, Note_on_c, 1, 49, 0
1, 41004, Note_on_c, 1, 52, 48
1, 41010, Note_on_c, 1, 52, 0
1, 41010, Note_on_c, 1, 57, 48
1, 41015, Note_on_c, 0, 86, 0
1, 41016, Note_on_c, 0, 85, 49
1, 41037, Note_on_c, 1, 57, 0
1, 41039, Note_on_c, 0, 85, 0
1, 41040, Note_on_c, 0, 83, 51
1, 41040, Note_on_c, 1, 57, 51
1, 41060, Note_on_c, 1, 57, 0
1, 41063, Note_on_c, 0, 83, 0
1, 41064, Note_on_c, 0, 85, 52
1, 41087, Note_on_c, 0, 85, 0
1, 41088, Note_on_c, 0, 86, 54
1, 41088, Note_on_c, 1, 57, 54
1, 41108, Note_on_c, 1, 57, 0
1, 41111, Note_on_c, 0, 86, 0
1, 41112, Note_on_c, 0, 85, 56
1, 41135, Note_on_c, 0, 85, 0
1, 41136, Note_on_c, 0, 83, 57
1, 41136, Note_on_c, 1, 57, 57
1, 41156, Note_on_c, 1, 57, 0
1, 41159, Note_on_c, 0, 83, 0
1, 41160, Note_on_c, 0, 85, 59
1, 41183, Note_on_c, 0, 85, 0
1, 41184, Note_on_c, 0, 86, 61
1, 41184, Note_on_c, 0, 81, 61
1, 41184, Note_on_c, 0, 78, 61
1, 41184, Note_on_c, 1, 38, 127
1, 41190, Note_on_c, 1, 38, 0
1, 41190, Note_on_c, 1, 42, 127
1, 41196, Note_on_c, 1, 42, 0
1, 41196, Note_on_c, 1, 45, 127
1, 41202, Note_on_c, 1, 45, 0
1, 41202, Note_on_c, 1, 50, 127
1, 41229, Note_on_c, 1, 50, 0
1, 41232, Note_on_c, 1, 50, 46
1, 41252, Note_on_c, 1, 50, 0
1, 41280, Note_on_c, 1, 50, 44
1, 41300, Note_on_c, 1, 50, 0
1, 41328, Note_on_c, 1, 50, 42
1, 41348, Note_on_c, 1, 50, 0
1, 41361, Note_on_c, 0, 86, 0
1, 41361, Note_on_c, 0, 81, 0
1, 41361, Note_on_c, 0, 78, 0
1, 41376, Note_on_c, 0, 86, 54
1, 41376, Note_on_c, 1, 45, 41
1, 41382, Note_on_c, 0, 86, 0
1, 41382, Note_on_c, 0, 85, 54
1, 41382, Note_on_c, 0, 81, 54
1, 41382, Note_on_c, 0, 76, 54
1, 41382, Note_on_c, 1, 45, 0
1, 41382, Note_on_c, 1, 49, 41
1, 41388, Note_on_c, 1, 49, 0
1, 41388, Note_on_c, 1, 52, 41
1, 41394, Note_on_c, 1, 52, 0
1, 41394, Note_on_c, 1, 57, 41
1, 41421, Note_on_c, 1, 57, 0
1, 41424, Note_on_c, 1, 57, 39
1, 41444, Note_on_c, 1, 57, 0
1, 41472, Note_on_c, 1, 57, 37
1, 41492, Note_on_c, 1, 57, 0
1, 41520, Note_on_c, 1, 57, 35
1, 41540, Note_on_c, 1, 57, 0
1, 41553, Note_on_c, 0, 85, 0
1, 41553, Note_on_c, 0, 81, 0
1, 41553, Note_on_c, 0, 76, 0
1, 41568, Note_on_c, 0, 85, 48
1, 41568, Note_on_c, 1, 40, 34
1, 41574, Note_on_c, 0, 85, 0
1, 41574, Note_on_c, 0, 83, 48
1, 41574, Note_on_c, 0, 80, 48
1, 41574, Note_on_c, 0, 76, 48
1, 41574, Note_on_c, 1, 40, 0
1, 41574, Note_on_c, 1, 44, 34
1, 41580, Note_on_c, 1, 44, 0
1, 41580, Note_on_c, 1, 47, 34
1, 41586, Note_on_c, 1, 47, 0
1, 41586, Note_on_c, 1, 52, 34
1, 41613, Note_on_c, 0, 83, 0
1, 41613, Note_on_c, 0, 80, 0
1, 41613, Note_on_c, 0, 76, 0
1, 41613, Note_on_c, 1, 52, 0
1, 41616, Note_on_c, 0, 85, 48
1, 41616, Note_on_c, 1, 52, 34
1, 41622, Note_on_c, 0, 85, 0
1, 41622, Note_on_c, 0, 83, 48
1, 41622, Note_on_c, 0, 80, 48
1, 41622, Note_on_c, 0, 76, 48
1, 41636, Note_on_c, 1, 52, 0
1, 41661, Note_on_c, 0, 83, 0
1, 41661, Note_on_c, 0, 80, 0
1, 41661, Note_on_c, 0, 76, 0
1, 41664, Note_on_c, 0, 85, 48
1, 41664, Note_on_c, 1, 52, 34
1, 41670, Note_on_c, 0, 85, 0
1, 41670, Note_on_c, 0, 83, 48
1, 41670, Note_on_c, 0, 80, 48
1, 41670, Note_on_c, 0, 76, 48
1, 41684, Note_on_c, 1, 52, 0
1, 41709, Note_on_c, 0, 83, 0
1, 41709, Note_on_c, 0, 80, 0
1, 41709, Note_on_c, 0, 76, 0
1, 41712, Note_on_c, 0, 85, 48
1, 41712, Note_on_c, 1, 52, 34
1, 41718, Note_on_c, 0, 85, 0
1, 41718, Note_on_c, 0, 83, 48
1, 41718, Note_on_c, 0, 80, 48
1, 41718, Note_on_c, 0, 76, 48
1, 41732, Note_on_c, 1, 52, 0
1, 41757, Note_on_c, 0, 83, 0
1, 41757, Note_on_c, 0, 80, 0
1, 41757, Note_on_c, 0, 76, 0
1, 41760, Note_on_c, 0, 81, 48
1, 41760, Note_on_c, 0, 76, 48
1, 41760, Note_on_c, 0, 73, 48
1, 41760, Note_on_c, 0, 69, 48
1, 41760, Note_on_c, 1, 45, 34
1, 41766, Note_on_c, 1, 45, 0
1, 41766, Note_on_c, 1, 49, 34
1, 41772, Note_on_c, 1, 49, 0
1, 41772, Note_on_c, 1, 52, 34
1, 41778, Note_on_c, 1, 52, 0
1, 41778, Note_on_c, 1, 57, 34
1, 41805, Note_on_c, 1, 57, 0
1, 41808, Note_on_c, 1, 57, 34
1, 41828, Note_on_c, 1, 57, 0
1, 41856, Note_on_c, 1, 57, 34
1, 41876, Note_on_c, 1, 57, 0
1, 41893, Note_on_c, 0, 81, 0
1, 41893, Note_on_c, 0, 76, 0
1, 41893, Note_on_c, 0, 73, 0
1, 41893, Note_on_c, 0, 69, 0
1, 41904, Note_on_c, 0, 85, 48
1, 41904, Note_on_c, 0, 73, 48
1, 41904, Note_on_c, 1, 57, 34
1, 41924, Note_on_c, 1, 57, 0
1, 41949, Note_on_c, 0, 85, 0
1, 41949, Note_on_c, 0, 73, 0
1, 41952, Note_on_c, 0, 81, 48
1, 41952, Note_on_c, 0, 69, 48
1, 41952, Note_on_c, 1, 45, 34
1, 41958, Note_on_c, 1, 45, 0
1, 41958, Note_on_c, 1, 49, 34
1, 41964, Note_on_c, 1, 49, 0
1, 41964, Note_on_c, 1, 52, 34
1, 41970, Note_on_c, 1, 52, 0
1, 41970, Note_on_c, 1, 57, 34
1, 41997, Note_on_c, 1, 57, 0
1, 42000, Note_on_c, 1, 57, 34
1, 42020, Note_on_c, 1, 57, 0
1, 42048, Note_on_c, 1, 57, 34
1, 42068, Note_on_c, 1, 57, 0
1, 42085, Note_on_c, 0, 81, 0
1, 42085, Note_on_c, 0, 69, 0
1, 42096, Note_on_c, 0, 88, 48
1, 42096, Note_on_c, 0, 76, 48
1, 42096, Note_on_c, 1, 57, 34
1, 42116, Note_on_c, 1, 57, 0
1, 42141, Note_on_c, 0, 88, 0
1, 42141, Note_on_c, 0, 76, 0
1, 42144, Note_on_c, 0, 81, 48
1, 42144, Note_on_c, 0, 69, 48
1, 42144, Note_on_c, 1, 45, 34
1, 42150, Note_on_c, 1, 45, 0
1, 42150, Note_on_c, 1, 49, 34
1, 42156, Note_on_c, 1, 49, 0
1, 42156, Note_on_c, 1, 52, 34
1, 42162, Note_on_c, 1, 52, 0
1, 42162, Note_on_c, 1, 57, 34
1, 42189, Note_on_c, 1, 57, 0
1, 42192, Note_on_c, 1, 57, 34
1, 42212, Note_on_c, 1, 57, 0
1, 42240, Note_on_c, 1, 57, 34
1, 42260, Note_on_c, 1, 57, 0
1, 42277, Note_on_c, 0, 81, 0
1, 42277, Note_on_c, 0, 69, 0
1, 42288, Note_on_c, 0, 85, 48
1, 42288, Note_on_c, 0, 73, 48
1, 42288, Note_on_c, 1, 57, 34
1, 42308, Note_on_c, 1, 57, 0
1, 42333, Note_on_c, 0, 85, 0
1, 42333, Note_on_c, 0, 73, 0
1, 42336, Note_on_c, 0, 81, 48
1, 42336, Note_on_c, 0, 69, 48
1, 42336, Note_on_c, 1, 45, 34
1, 42342, Note_on_c, 1, 45, 0
1, 42342, Note_on_c, 1, 49, 34
1, 42348, Note_on_c, 1, 49, 0
1, 42348, Note_on_c, 1, 52, 34
1, 42354, Note_on_c, 1, 52, 0
1, 42354, Note_on_c, 1, 57, 34
1, 42381, Note_on_c, 0, 81, 0
1, 42381, Note_on_c, 0, 69, 0
1, 42381, Note_on_c, 1, 57, 0
1, 42384, Note_on_c, 0, 85, 48
1, 42384, Note_on_c, 0, 73, 48
1, 42384, Note_on_c, 1, 57, 34
1, 42404, Note_on_c, 1, 57, 0
1, 42429, Note_on_c, 0, 85, 0
1, 42429, Note_on_c, 0, 73, 0
1, 42432, Note_on_c, 0, 81, 48
1, 42432, Note_on_c, 0, 69, 48
1, 42432, Note_on_c, 1, 57, 34
1, 42452, Note_on_c, 1, 57, 0
1, 42477, Note_on_c, 0, 81, 0
1, 42477, Note_on_c, 0, 69, 0
1, 42480, Note_on_c, 0, 88, 48
1, 42480, Note_on_c, 0, 76, 48
1, 42480, Note_on_c, 1, 57, 34
1, 42500, Note_on_c, 1, 57, 0
1, 42525, Note_on_c, 0, 88, 0
1, 42525, Note_on_c, 0, 76, 0
1, 42528, Note_on_c, 0, 81, 48
1, 42528, Note_on_c, 0, 69, 48
1, 42528, Note_on_c, 1, 45, 34
1, 42617, Note_on_c, 0, 81, 0
1, 42617, Note_on_c, 0, 69, 0
1, 42617, Note_on_c, 1, 45, 0
1, 42624, Note_on_c, 0, 81, 96
1, 42624, Note_on_c, 0, 76, 96
1, 42624, Note_on_c, 0, 73, 96
1, 42624, Note_on_c, 0, 69, 96
1, 42624, Note_on_c, 1, 57, 96
1, 42624, Note_on_c, 1, 52, 96
1, 42624, Note_on_c, 1, 49, 96
1, 42624, Note_on_c, 1, 45, 96
1, 42713, Note_on_c, 0, 81, 0
1, 42713, Note_on_c, 0, 76, 0
1, 42713, Note_on_c, 0, 73, 0
1, 42713, Note_on_c, 0, 69, 0
1, 42713, Note_on_c, 1, 57, 0
1, 42713, Note_on_c, 1, 52, 0
1, 42713, Note_on_c, 1, 49, 0
1, 42713, Note_on_c, 1, 45, 0
1, 42720, Note_on_c, 0, 81, 96
1, 42720, Note_on_c, 0, 76, 96
1, 42720, Note_on_c, 0, 73, 96
1, 42720, Note_on_c, 0, 69, 96
1, 42720, Note_on_c, 1, 57, 96
1, 42720, Note_on_c, 1, 52, 96
1, 42720, Note_on_c, 1, 49, 96
1, 42720, Note_on_c, 1, 45, 96
1, 42897, Note_on_c, 0, 81, 0
1, 42897, Note_on_c, 0, 76, 0
1, 42897, Note_on_c, 0, 73, 0
1, 42897, Note_on_c, 0, 69, 0
1, 42897, Note_on_c, 1, 57, 0
1, 42897, Note_on_c, 1, 52, 0
1, 42897, Note_on_c, 1, 49, 0
1, 42897, Note_on_c, 1, 45, 0
1, 43296, Note_on_c, 0, 92, 0
1, 43302, Note_on_c, 0, 92, 0
1, 43312, End_track
0, 0, End_of_file