0, 0, Header, 0, 1, 240
1, 0, Start_track
1, 0, Tempo, 909090
1, 661, Note_on_c, 0, 69, 35
1, 719, Note_on_c, 0, 69, 0
1, 720, Note_on_c, 0, 74, 35
1, 721, Note_on_c, 1, 66, 25
1, 721, Note_on_c, 2, 62, 25
1, 839, Note_on_c, 1, 66, 0
1, 839, Note_on_c, 2, 62, 0
1, 899, Note_on_c, 0, 74, 0
1, 900, Note_on_c, 0, 74, 35
1, 959, Note_on_c, 0, 74, 0
1, 960, Note_on_c, 0, 74, 35
1, 961, Note_on_c, 1, 66, 25
1, 961, Note_on_c, 2, 62, 25
1, 1079, Note_on_c, 0, 74, 0
1, 1079, Note_on_c, 1, 66, 0
1, 1079, Note_on_c, 2, 62, 0
1, 1381, Note_on_c, 0, 69, 47
1, 1399, Note_on_c, 0, 69, 0
1, 1400, Note_on_c, 0, 74, 47
1, 1419, Note_on_c, 0, 74, 0
1, 1420, Note_on_c, 0, 78, 47
1, 1439, Note_on_c, 0, 78, 0
1, 1440, Note_on_c, 0, 76, 47
1, 1441, Note_on_c, 1, 67, 25
1, 1441, Note_on_c, 2, 62, 25
1, 1619, Note_on_c, 0, 76, 0
1, 1620, Note_on_c, 0, 73, 35
1, 1679, Note_on_c, 0, 73, 0
1, 1679, Note_on_c, 1, 67, 0
1, 1680, Note_on_c, 0, 74, 35
1, 1680, Note_on_c, 1, 66, 25
1, 1739, Note_on_c, 0, 74, 0
1, 1799, Note_on_c, 1, 66, 0
1, 1799, Note_on_c, 2, 62, 0
1, 2041, Note_on_c, 0, 69, 47
1, 2069, Note_on_c, 0, 69, 0
1, 2070, Note_on_c, 0, 74, 47
1, 2099, Note_on_c, 0, 74, 0
1, 2100, Note_on_c, 0, 78, 47
1, 2129, Note_on_c, 0, 78, 0
1, 2130, Note_on_c, 0, 81, 47
1, 2159, Note_on_c, 0, 81, 0
1, 2160, Note_on_c, 0, 81, 47
1, 2161, Note_on_c, 1, 71, 31
1, 2279, Note_on_c, 0, 81, 0
1, 2279, Note_on_c, 1, 71, 0
1, 2280, Note_on_c, 0, 79, 47
1, 2309, Note_on_c, 0, 79, 0
1, 2371, Note_on_c, 0, 78, 47
1, 2371, Note_on_c, 1, 69, 31
1, 2399, Note_on_c, 0, 78, 0
1, 2399, Note_on_c, 1, 69, 0
1, 2400, Note_on_c, 0, 78, 47
1, 2400, Note_on_c, 1, 67, 31
1, 2519, Note_on_c, 0, 78, 0
1, 2519, Note_on_c, 1, 67, 0
1, 2520, Note_on_c, 0, 76, 47
1, 2549, Note_on_c, 0, 76, 0
1, 2611, Note_on_c, 0, 74, 35
1, 2611, Note_on_c, 1, 66, 25
1, 2639, Note_on_c, 0, 74, 0
1, 2639, Note_on_c, 1, 66, 0
1, 2640, Note_on_c, 0, 74, 35
1, 2640, Note_on_c, 1, 64, 25
1, 2759, Note_on_c, 0, 74, 0
1, 2759, Note_on_c, 1, 64, 0
1, 2760, Note_on_c, 0, 73, 35
1, 2789, Note_on_c, 0, 73, 0
1, 2851, Note_on_c, 0, 74, 35
1, 2851, Note_on_c, 1, 62, 25
1, 2879, Note_on_c, 0, 74, 0
1, 2879, Note_on_c, 1, 62, 0
1, 2880, Note_on_c, 0, 78, 35
1, 2881, Note_on_c, 4, 62, 25
1, 2881, Note_on_c, 5, 57, 25
1, 3119, Note_on_c, 0, 78, 0
1, 3119, Note_on_c, 4, 62, 0
1, 3120, Note_on_c, 0, 76, 28
1, 3120, Note_on_c, 4, 61, 25
1, 3239, Note_on_c, 0, 76, 0
1, 3239, Note_on_c, 4, 61, 0
1, 3239, Note_on_c, 5, 57, 0
1, 3541, Note_on_c, 0, 74, 63
1, 3559, Note_on_c, 0, 74, 0
1, 3560, Note_on_c, 0, 78, 63
1, 3579, Note_on_c, 0, 78, 0
1, 3580, Note_on_c, 0, 81, 63
1, 3599, Note_on_c, 0, 81, 0
1, 3600, Note_on_c, 0, 86, 81
1, 3601, Note_on_c, 4, 57, 63
1, 3601, Note_on_c, 5, 54, 63
1, 3601, Note_on_c, 6, 50, 63
1, 3659, Note_on_c, 0, 86, 0
1, 3660, Note_on_c, 0, 88, 81
1, 3679, Note_on_c, 0, 88, 0
1, 3680, Note_on_c, 0, 86, 81
1, 3699, Note_on_c, 0, 86, 0
1, 3700, Note_on_c, 0, 85, 81
1, 3719, Note_on_c, 0, 85, 0
1, 3720, Note_on_c, 0, 86, 81
1, 3809, Note_on_c, 0, 86, 0
1, 3810, Note_on_c, 0, 88, 81
1, 3839, Note_on_c, 0, 88, 0
1, 3839, Note_on_c, 4, 57, 0
1, 3839, Note_on_c, 5, 54, 0
1, 3839, Note_on_c, 6, 50, 0
1, 3840, Note_on_c, 0, 85, 81
1, 3840, Note_on_c, 4, 57, 63
1, 3840, Note_on_c, 5, 55, 63
1, 3840, Note_on_c, 6, 52, 63
1, 3841, Note_on_c, 1, 61, 63
1, 3899, Note_on_c, 0, 85, 0
1, 4079, Note_on_c, 1, 61, 0
1, 4079, Note_on_c, 4, 57, 0
1, 4079, Note_on_c, 5, 55, 0
1, 4079, Note_on_c, 6, 52, 0
1, 4081, Note_on_c, 0, 81, 81
1, 4139, Note_on_c, 0, 81, 0
1, 4140, Note_on_c, 0, 83, 81
1, 4159, Note_on_c, 0, 83, 0
1, 4160, Note_on_c, 0, 81, 81
1, 4179, Note_on_c, 0, 81, 0
1, 4180, Note_on_c, 0, 80, 81
1, 4199, Note_on_c, 0, 80, 0
1, 4200, Note_on_c, 0, 81, 81
1, 4289, Note_on_c, 0, 81, 0
1, 4290, Note_on_c, 0, 83, 81
1, 4319, Note_on_c, 0, 83, 0
1, 4320, Note_on_c, 0, 86, 81
1, 4321, Note_on_c, 1, 79, 63
1, 4321, Note_on_c, 2, 76, 63
1, 4379, Note_on_c, 0, 86, 0
1, 4380, Note_on_c, 0, 84, 81
1, 4439, Note_on_c, 0, 84, 0
1, 4440, Note_on_c, 0, 84, 81
1, 4529, Note_on_c, 0, 84, 0
1, 4530, Note_on_c, 0, 83, 81
1, 4559, Note_on_c, 0, 83, 0
1, 4559, Note_on_c, 1, 79, 0
1, 4559, Note_on_c, 2, 76, 0
1, 4560, Note_on_c, 0, 83, 81
1, 4560, Note_on_c, 1, 78, 63
1, 4560, Note_on_c, 2, 75, 63
1, 4859, Note_on_c, 0, 83, 0
1, 4860, Note_on_c, 0, 81, 35
1, 4919, Note_on_c, 0, 81, 0
1, 4919, Note_on_c, 1, 78, 0
1, 4919, Note_on_c, 2, 75, 0
1, 4920, Note_on_c, 0, 84, 35
1, 4920, Note_on_c, 1, 75, 25
1, 4979, Note_on_c, 0, 84, 0
1, 4980, Note_on_c, 0, 81, 35
1, 5039, Note_on_c, 0, 81, 0
1, 5039, Note_on_c, 1, 75, 0
1, 5040, Note_on_c, 0, 81, 35
1, 5040, Note_on_c, 1, 76, 25
1, 5099, Note_on_c, 0, 81, 0
1, 5100, Note_on_c, 0, 79, 35
1, 5159, Note_on_c, 0, 79, 0
1, 5159, Note_on_c, 1, 76, 0
1, 5160, Note_on_c, 0, 83, 35
1, 5160, Note_on_c, 1, 73, 25
1, 5219, Note_on_c, 0, 83, 0
1, 5220, Note_on_c, 0, 79, 35
1, 5279, Note_on_c, 0, 79, 0
1, 5279, Note_on_c, 1, 73, 0
1, 5280, Note_on_c, 0, 79, 35
1, 5280, Note_on_c, 1, 74, 25
1, 5339, Note_on_c, 0, 79, 0
1, 5340, Note_on_c, 0, 78, 35
1, 5399, Note_on_c, 0, 78, 0
1, 5399, Note_on_c, 1, 74, 0
1, 5400, Note_on_c, 0, 81, 35
1, 5400, Note_on_c, 1, 66, 25
1, 5459, Note_on_c, 0, 81, 0
1, 5460, Note_on_c, 0, 78, 35
1, 5519, Note_on_c, 0, 78, 0
1, 5519, Note_on_c, 1, 66, 0
1, 5520, Note_on_c, 0, 78, 47
1, 5520, Note_on_c, 1, 67, 31
1, 5579, Note_on_c, 0, 78, 0
1, 5580, Note_on_c, 0, 76, 47
1, 5639, Note_on_c, 0, 76, 0
1, 5639, Note_on_c, 1, 67, 0
1, 5640, Note_on_c, 0, 77, 47
1, 5640, Note_on_c, 1, 68, 31
1, 5699, Note_on_c, 0, 77, 0
1, 5700, Note_on_c, 0, 74, 47
1, 5759, Note_on_c, 0, 74, 0
1, 5759, Note_on_c, 1, 68, 0
1, 5760, Note_on_c, 0, 74, 35
1, 5760, Note_on_c, 1, 69, 25
1, 5999, Note_on_c, 0, 74, 0
1, 5999, Note_on_c, 1, 69, 0
1, 6000, Note_on_c, 0, 73, 28
1, 6000, Note_on_c, 4, 57, 19
1, 6118, Note_on_c, 4, 57, 0
1, 6119, Note_on_c, 0, 73, 0
1, 6421, Note_on_c, 4, 47, 50
1, 6439, Note_on_c, 4, 47, 0
1, 6440, Note_on_c, 4, 51, 63
1, 6459, Note_on_c, 4, 51, 0
1, 6460, Note_on_c, 4, 54, 63
1, 6479, Note_on_c, 4, 54, 0
1, 6480, Note_on_c, 4, 59, 63
1, 6659, Note_on_c, 4, 59, 0
1, 6660, Note_on_c, 4, 59, 63
1, 6719, Note_on_c, 4, 59, 0
1, 6720, Note_on_c, 4, 59, 63
1, 6839, Note_on_c, 4, 59, 0
1, 6841, Note_on_c, 0, 84, 35
1, 6899, Note_on_c, 0, 84, 0
1, 6900, Note_on_c, 0, 81, 35
1, 6959, Note_on_c, 0, 81, 0
1, 6960, Note_on_c, 0, 83, 35
1, 7019, Note_on_c, 0, 83, 0
1, 7020, Note_on_c, 0, 79, 35
1, 7079, Note_on_c, 0, 79, 0
1, 7080, Note_on_c, 0, 81, 35
1, 7139, Note_on_c, 0, 81, 0
1, 7140, Note_on_c, 0, 78, 35
1, 7141, Note_on_c, 1, 63, 31
1, 7169, Note_on_c, 1, 63, 0
1, 7199, Note_on_c, 0, 78, 0
1, 7200, Note_on_c, 0, 79, 35
1, 7201, Note_on_c, 1, 64, 41
1, 7259, Note_on_c, 1, 64, 0
1, 7260, Note_on_c, 1, 67, 41
1, 7319, Note_on_c, 0, 79, 0
1, 7319, Note_on_c, 1, 67, 0
1, 7320, Note_on_c, 1, 66, 41
1, 7379, Note_on_c, 1, 66, 0
1, 7380, Note_on_c, 1, 69, 25
1, 7439, Note_on_c, 1, 69, 0
1, 7440, Note_on_c, 1, 67, 25
1, 7559, Note_on_c, 1, 67, 0
1, 7561, Note_on_c, 0, 83, 28
1, 7619, Note_on_c, 0, 83, 0
1, 7620, Note_on_c, 0, 79, 28
1, 7679, Note_on_c, 0, 79, 0
1, 7680, Note_on_c, 0, 81, 19
1, 7739, Note_on_c, 0, 81, 0
1, 7740, Note_on_c, 0, 78, 19
1, 7799, Note_on_c, 0, 78, 0
1, 7800, Note_on_c, 0, 79, 19
1, 7859, Note_on_c, 0, 79, 0
1, 7860, Note_on_c, 0, 76, 19
1, 7861, Note_on_c, 1, 61, 25
1, 7889, Note_on_c, 1, 61, 0
1, 7919, Note_on_c, 0, 76, 0
1, 7920, Note_on_c, 0, 78, 19
1, 7921, Note_on_c, 2, 62, 41
1, 7979, Note_on_c, 2, 62, 0
1, 7980, Note_on_c, 2, 66, 41
1, 8039, Note_on_c, 0, 78, 0
1, 8039, Note_on_c, 2, 66, 0
1, 8040, Note_on_c, 2, 64, 41
1, 8099, Note_on_c, 2, 64, 0
1, 8100, Note_on_c, 2, 67, 41
1, 8159, Note_on_c, 2, 67, 0
1, 8160, Note_on_c, 2, 66, 62
1, 8221, Note_on_c, 0, 81, 47
1, 8279, Note_on_c, 0, 81, 0
1, 8280, Note_on_c, 0, 74, 47
1, 8339, Note_on_c, 0, 74, 0
1, 8340, Note_on_c, 0, 86, 63
1, 8399, Note_on_c, 0, 86, 0
1, 8399, Note_on_c, 2, 66, 0
1, 8400, Note_on_c, 0, 85, 63
1, 8400, Note_on_c, 2, 67, 62
1, 8401, Note_on_c, 1, 81, 62
1, 8459, Note_on_c, 0, 85, 0
1, 8459, Note_on_c, 1, 81, 0
1, 8460, Note_on_c, 0, 83, 63
1, 8460, Note_on_c, 1, 79, 62
1, 8519, Note_on_c, 0, 83, 0
1, 8519, Note_on_c, 1, 79, 0
1, 8520, Note_on_c, 0, 81, 63
1, 8520, Note_on_c, 1, 78, 62
1, 8579, Note_on_c, 0, 81, 0
1, 8579, Note_on_c, 1, 78, 0
1, 8579, Note_on_c, 2, 67, 0
1, 8580, Note_on_c, 0, 79, 63
1, 8580, Note_on_c, 1, 76, 62
1, 8580, Note_on_c, 2, 68, 62
1, 8639, Note_on_c, 0, 79, 0
1, 8639, Note_on_c, 1, 76, 0
1, 8639, Note_on_c, 2, 68, 0
1, 8640, Note_on_c, 0, 78, 47
1, 8640, Note_on_c, 1, 74, 41
1, 8640, Note_on_c, 2, 69, 25
1, 8879, Note_on_c, 0, 78, 0
1, 8879, Note_on_c, 1, 74, 0
1, 8880, Note_on_c, 0, 76, 19
1, 8880, Note_on_c, 1, 73, 13
1, 8939, Note_on_c, 2, 69, 0
1, 8940, Note_on_c, 2, 68, 25
1, 8999, Note_on_c, 0, 76, 0
1, 8999, Note_on_c, 1, 73, 0
1, 8999, Note_on_c, 2, 68, 0
1, 9000, Note_on_c, 2, 69, 25
1, 9059, Note_on_c, 2, 69, 0
1, 9060, Note_on_c, 2, 70, 25
1, 9119, Note_on_c, 2, 70, 0
1, 9120, Note_on_c, 2, 71, 25
1, 9179, Note_on_c, 2, 71, 0
1, 9180, Note_on_c, 2, 67, 25
1, 9239, Note_on_c, 2, 67, 0
1, 9240, Note_on_c, 2, 66, 25
1, 9299, Note_on_c, 2, 66, 0
1, 9300, Note_on_c, 2, 64, 25
1, 9301, Note_on_c, 0, 69, 31
1, 9359, Note_on_c, 0, 69, 0
1, 9359, Note_on_c, 2, 64, 0
1, 9360, Note_on_c, 0, 74, 31
1, 9360, Note_on_c, 2, 62, 25
1, 9361, Note_on_c, 1, 66, 25
1, 9479, Note_on_c, 1, 66, 0
1, 9479, Note_on_c, 2, 62, 0
1, 9539, Note_on_c, 0, 74, 0
1, 9540, Note_on_c, 0, 74, 31
1, 9599, Note_on_c, 0, 74, 0
1, 9600, Note_on_c, 0, 74, 31
1, 9601, Note_on_c, 1, 66, 25
1, 9601, Note_on_c, 2, 62, 25
1, 9719, Note_on_c, 0, 74, 0
1, 9719, Note_on_c, 1, 66, 0
1, 9719, Note_on_c, 2, 62, 0
1, 10021, Note_on_c, 0, 69, 31
1, 10039, Note_on_c, 0, 69, 0
1, 10040, Note_on_c, 0, 74, 31
1, 10059, Note_on_c, 0, 74, 0
1, 10060, Note_on_c, 0, 78, 31
1, 10079, Note_on_c, 0, 78, 0
1, 10080, Note_on_c, 0, 78, 31
1, 10081, Note_on_c, 1, 67, 25
1, 10081, Note_on_c, 2, 62, 25
1, 10139, Note_on_c, 0, 78, 0
1, 10140, Note_on_c, 0, 76, 31
1, 10199, Note_on_c, 0, 76, 0
1, 10200, Note_on_c, 0, 79, 31
1, 10259, Note_on_c, 0, 79, 0
1, 10260, Note_on_c, 0, 73, 31
1, 10319, Note_on_c, 0, 73, 0
1, 10319, Note_on_c, 1, 67, 0
1, 10320, Note_on_c, 0, 76, 31
1, 10320, Note_on_c, 1, 66, 25
1, 10439, Note_on_c, 0, 76, 0
1, 10439, Note_on_c, 1, 66, 0
1, 10439, Note_on_c, 2, 62, 0
1, 10440, Note_on_c, 0, 74, 31
1, 10559, Note_on_c, 0, 74, 0
1, 10561, Note_on_c, 1, 62, 25
1, 10599, Note_on_c, 1, 62, 0
1, 10600, Note_on_c, 1, 66, 25
1, 10639, Note_on_c, 1, 66, 0
1, 10640, Note_on_c, 1, 69, 25
1, 10679, Note_on_c, 1, 69, 0
1, 10681, Note_on_c, 0, 74, 31
1, 10719, Note_on_c, 0, 74, 0
1, 10720, Note_on_c, 0, 78, 31
1, 10759, Note_on_c, 0, 78, 0
1, 10760, Note_on_c, 0, 81, 31
1, 10799, Note_on_c, 0, 81, 0
1, 10800, Note_on_c, 0, 81, 47
1, 10801, Note_on_c, 1, 74, 41
1, 10801, Note_on_c, 2, 71, 41
1, 10919, Note_on_c, 0, 81, 0
1, 10919, Note_on_c, 1, 74, 0
1, 10919, Note_on_c, 2, 71, 0
1, 10920, Note_on_c, 0, 79, 47
1, 10949, Note_on_c, 0, 79, 0
1, 11011, Note_on_c, 0, 78, 47
1, 11011, Note_on_c, 1, 73, 41
1, 11011, Note_on_c, 2, 69, 41
1, 11039, Note_on_c, 0, 78, 0
1, 11039, Note_on_c, 1, 73, 0
1, 11039, Note_on_c, 2, 69, 0
1, 11040, Note_on_c, 0, 78, 47
1, 11040, Note_on_c, 1, 71, 41
1, 11040, Note_on_c, 2, 67, 41
1, 11159, Note_on_c, 0, 78, 0
1, 11159, Note_on_c, 1, 71, 0
1, 11159, Note_on_c, 2, 67, 0
1, 11160, Note_on_c, 0, 76, 47
1, 11189, Note_on_c, 0, 76, 0
1, 11251, Note_on_c, 0, 74, 47
1, 11251, Note_on_c, 1, 69, 41
1, 11251, Note_on_c, 2, 66, 41
1, 11279, Note_on_c, 0, 74, 0
1, 11279, Note_on_c, 1, 69, 0
1, 11279, Note_on_c, 2, 66, 0
1, 11280, Note_on_c, 0, 74, 47
1, 11280, Note_on_c, 1, 67, 41
1, 11280, Note_on_c, 2, 64, 41
1, 11399, Note_on_c, 0, 74, 0
1, 11399, Note_on_c, 1, 67, 0
1, 11399, Note_on_c, 2, 64, 0
1, 11400, Note_on_c, 0, 73, 47
1, 11429, Note_on_c, 0, 73, 0
1, 11491, Note_on_c, 0, 74, 47
1, 11491, Note_on_c, 1, 66, 41
1, 11491, Note_on_c, 2, 62, 41
1, 11519, Note_on_c, 0, 74, 0
1, 11519, Note_on_c, 1, 66, 0
1, 11519, Note_on_c, 2, 62, 0
1, 11520, Note_on_c, 0, 78, 47
1, 11520, Note_on_c, 1, 62, 41
1, 11521, Note_on_c, 4, 57, 23
1, 11609, Note_on_c, 0, 78, 0
1, 11610, Note_on_c, 0, 79, 47
1, 11639, Note_on_c, 0, 79, 0
1, 11640, Note_on_c, 0, 80, 47
1, 11729, Note_on_c, 0, 80, 0
1, 11730, Note_on_c, 0, 81, 19
1, 11759, Note_on_c, 0, 81, 0
1, 11759, Note_on_c, 1, 62, 0
1, 11760, Note_on_c, 0, 76, 19
1, 11760, Note_on_c, 1, 61, 25
1, 11819, Note_on_c, 0, 76, 0
1, 11819, Note_on_c, 1, 61, 0
1, 11879, Note_on_c, 4, 57, 0
1, 12181, Note_on_c, 0, 74, 47
1, 12199, Note_on_c, 0, 74, 0
1, 12200, Note_on_c, 0, 78, 47
1, 12219, Note_on_c, 0, 78, 0
1, 12220, Note_on_c, 0, 81, 47
1, 12239, Note_on_c, 0, 81, 0
1, 12240, Note_on_c, 0, 86, 81
1, 12241, Note_on_c, 4, 57, 76
1, 12241, Note_on_c, 5, 54, 76
1, 12241, Note_on_c, 6, 50, 76
1, 12299, Note_on_c, 0, 86, 0
1, 12300, Note_on_c, 0, 88, 81
1, 12319, Note_on_c, 0, 88, 0
1, 12320, Note_on_c, 0, 86, 81
1, 12339, Note_on_c, 0, 86, 0
1, 12340, Note_on_c, 0, 85, 81
1, 12359, Note_on_c, 0, 85, 0
1, 12360, Note_on_c, 0, 86, 81
1, 12449, Note_on_c, 0, 86, 0
1, 12450, Note_on_c, 0, 88, 81
1, 12479, Note_on_c, 0, 88, 0
1, 12479, Note_on_c, 4, 57, 0
1, 12479, Note_on_c, 5, 54, 0
1, 12479, Note_on_c, 6, 50, 0
1, 12480, Note_on_c, 0, 85, 81
1, 12480, Note_on_c, 4, 57, 76
1, 12480, Note_on_c, 5, 55, 76
1, 12480, Note_on_c, 6, 52, 76
1, 12481, Note_on_c, 1, 61, 84
1, 12539, Note_on_c, 0, 85, 0
1, 12719, Note_on_c, 1, 61, 0
1, 12719, Note_on_c, 4, 57, 0
1, 12719, Note_on_c, 5, 55, 0
1, 12719, Note_on_c, 6, 52, 0
1, 12721, Note_on_c, 0, 69, 81
1, 12749, Note_on_c, 0, 69, 0
1, 12750, Note_on_c, 0, 71, 81
1, 12779, Note_on_c, 0, 71, 0
1, 12780, Note_on_c, 0, 73, 81
1, 12809, Note_on_c, 0, 73, 0
1, 12810, Note_on_c, 0, 74, 81
1, 12839, Note_on_c, 0, 74, 0
1, 12840, Note_on_c, 0, 76, 81
1, 12869, Note_on_c, 0, 76, 0
1, 12870, Note_on_c, 0, 78, 81
1, 12899, Note_on_c, 0, 78, 0
1, 12900, Note_on_c, 0, 79, 81
1, 12929, Note_on_c, 0, 79, 0
1, 12930, Note_on_c, 0, 81, 81
1, 12943, Note_on_c, 0, 81, 0
1, 12945, Note_on_c, 0, 83, 81
1, 12958, Note_on_c, 0, 83, 0
1, 12960, Note_on_c, 0, 85, 105
1, 12961, Note_on_c, 1, 61, 107
1, 12961, Note_on_c, 4, 55, 76
1, 12961, Note_on_c, 5, 52, 76
1, 13019, Note_on_c, 0, 85, 0
1, 13020, Note_on_c, 0, 86, 105
1, 13039, Note_on_c, 0, 86, 0
1, 13040, Note_on_c, 0, 85, 105
1, 13059, Note_on_c, 0, 85, 0
1, 13060, Note_on_c, 0, 83, 105
1, 13079, Note_on_c, 0, 83, 0
1, 13080, Note_on_c, 0, 85, 105
1, 13169, Note_on_c, 0, 85, 0
1, 13170, Note_on_c, 0, 86, 105
1, 13199, Note_on_c, 0, 86, 0
1, 13199, Note_on_c, 1, 61, 0
1, 13199, Note_on_c, 4, 55, 0
1, 13199, Note_on_c, 5, 52, 0
1, 13200, Note_on_c, 0, 84, 105
1, 13200, Note_on_c, 1, 63, 107
1, 13200, Note_on_c, 4, 60, 76
1, 13200, Note_on_c, 5, 57, 76
1, 13201, Note_on_c, 6, 54, 76
1, 13259, Note_on_c, 0, 84, 0
1, 13260, Note_on_c, 0, 86, 105
1, 13279, Note_on_c, 0, 86, 0
1, 13280, Note_on_c, 0, 84, 105
1, 13299, Note_on_c, 0, 84, 0
1, 13300, Note_on_c, 0, 83, 105
1, 13319, Note_on_c, 0, 83, 0
1, 13320, Note_on_c, 0, 84, 105
1, 13409, Note_on_c, 0, 84, 0
1, 13410, Note_on_c, 0, 86, 105
1, 13439, Note_on_c, 0, 86, 0
1, 13439, Note_on_c, 1, 63, 0
1, 13439, Note_on_c, 4, 60, 0
1, 13439, Note_on_c, 5, 57, 0
1, 13439, Note_on_c, 6, 54, 0
1, 13440, Note_on_c, 0, 83, 105
1, 13440, Note_on_c, 1, 64, 107
1, 13440, Note_on_c, 4, 59, 76
1, 13440, Note_on_c, 5, 59, 76
1, 13440, Note_on_c, 6, 55, 76
1, 13559, Note_on_c, 0, 83, 0
1, 13560, Note_on_c, 0, 81, 105
1, 13589, Note_on_c, 0, 81, 0
1, 13590, Note_on_c, 0, 79, 105
1, 13619, Note_on_c, 0, 79, 0
1, 13620, Note_on_c, 0, 78, 105
1, 13649, Note_on_c, 0, 78, 0
1, 13650, Note_on_c, 0, 76, 105
1, 13679, Note_on_c, 0, 76, 0
1, 13679, Note_on_c, 1, 64, 0
1, 13679, Note_on_c, 4, 59, 0
1, 13679, Note_on_c, 5, 59, 0
1, 13679, Note_on_c, 6, 55, 0
1, 13680, Note_on_c, 0, 81, 105
1, 13680, Note_on_c, 1, 66, 107
1, 13680, Note_on_c, 4, 62, 76
1, 13680, Note_on_c, 5, 57, 76
1, 14039, Note_on_c, 0, 81, 0
1, 14040, Note_on_c, 0, 79, 81
1, 14069, Note_on_c, 0, 79, 0
1, 14070, Note_on_c, 0, 78, 81
1, 14099, Note_on_c, 0, 78, 0
1, 14100, Note_on_c, 0, 76, 63
1, 14129, Note_on_c, 0, 76, 0
1, 14130, Note_on_c, 0, 74, 63
1, 14159, Note_on_c, 0, 74, 0
1, 14159, Note_on_c, 1, 66, 0
1, 14159, Note_on_c, 4, 62, 0
1, 14159, Note_on_c, 5, 57, 0
1, 14160, Note_on_c, 0, 73, 47
1, 14160, Note_on_c, 1, 67, 41
1, 14160, Note_on_c, 4, 64, 23
1, 14160, Note_on_c, 5, 57, 23
1, 14279, Note_on_c, 0, 73, 0
1, 14279, Note_on_c, 1, 67, 0
1, 14279, Note_on_c, 4, 64, 0
1, 14279, Note_on_c, 5, 57, 0
1, 14280, Note_on_c, 0, 76, 31
1, 14280, Note_on_c, 1, 67, 25
1, 14399, Note_on_c, 0, 76, 0
1, 14399, Note_on_c, 1, 67, 0
1, 14400, Note_on_c, 0, 74, 19
1, 14400, Note_on_c, 1, 66, 25
1, 14401, Note_on_c, 4, 50, 23
1, 14519, Note_on_c, 0, 74, 0
1, 14519, Note_on_c, 1, 66, 0
1, 14519, Note_on_c, 4, 50, 0
1, 14641, Note_on_c, 4, 62, 23
1, 14759, Note_on_c, 4, 62, 0
1, 15061, Note_on_c, 4, 57, 37
1, 15119, Note_on_c, 4, 57, 0
1, 15120, Note_on_c, 4, 50, 37
1, 15121, Note_on_c, 0, 62, 31
1, 15121, Note_on_c, 5, 45, 23
1, 15121, Note_on_c, 6, 38, 23
1, 15299, Note_on_c, 0, 62, 0
1, 15300, Note_on_c, 0, 62, 31
1, 15359, Note_on_c, 0, 62, 0
1, 15359, Note_on_c, 4, 50, 0
1, 15359, Note_on_c, 5, 45, 0
1, 15359, Note_on_c, 6, 38, 0
1, 15360, Note_on_c, 0, 62, 31
1, 15401, Note_on_c, 4, 49, 37
1, 15439, Note_on_c, 4, 49, 0
1, 15440, Note_on_c, 4, 50, 37
1, 15479, Note_on_c, 0, 62, 0
1, 15479, Note_on_c, 4, 50, 0
1, 15480, Note_on_c, 4, 54, 37
1, 15519, Note_on_c, 4, 54, 0
1, 15520, Note_on_c, 4, 57, 37
1, 15559, Note_on_c, 4, 57, 0
1, 15561, Note_on_c, 0, 61, 47
1, 15599, Note_on_c, 0, 61, 0
1, 15600, Note_on_c, 0, 62, 47
1, 15639, Note_on_c, 0, 62, 0
1, 15640, Note_on_c, 0, 66, 47
1, 15679, Note_on_c, 0, 66, 0
1, 15680, Note_on_c, 0, 74, 47
1, 15719, Note_on_c, 0, 74, 0
1, 15720, Note_on_c, 0, 69, 47
1, 15759, Note_on_c, 0, 69, 0
1, 15760, Note_on_c, 0, 66, 47
1, 15839, Note_on_c, 0, 66, 0
1, 15840, Note_on_c, 0, 64, 47
1, 15841, Note_on_c, 4, 55, 37
1, 15841, Note_on_c, 5, 50, 23
1, 16019, Note_on_c, 0, 64, 0
1, 16020, Note_on_c, 0, 61, 31
1, 16079, Note_on_c, 0, 61, 0
1, 16079, Note_on_c, 4, 55, 0
1, 16080, Note_on_c, 0, 62, 31
1, 16080, Note_on_c, 4, 54, 37
1, 16119, Note_on_c, 0, 62, 0
1, 16120, Note_on_c, 0, 69, 31
1, 16159, Note_on_c, 0, 69, 0
1, 16160, Note_on_c, 0, 66, 31
1, 16199, Note_on_c, 0, 66, 0
1, 16199, Note_on_c, 4, 54, 0
1, 16199, Note_on_c, 5, 50, 0
1, 16200, Note_on_c, 0, 74, 31
1, 16239, Note_on_c, 0, 74, 0
1, 16240, Note_on_c, 0, 69, 31
1, 16279, Note_on_c, 0, 69, 0
1, 16280, Note_on_c, 0, 78, 31
1, 16319, Note_on_c, 0, 78, 0
1, 16320, Note_on_c, 0, 74, 47
1, 16359, Note_on_c, 0, 74, 0
1, 16360, Note_on_c, 0, 81, 47
1, 16399, Note_on_c, 0, 81, 0
1, 16400, Note_on_c, 0, 78, 47
1, 16439, Note_on_c, 0, 78, 0
1, 16440, Note_on_c, 0, 86, 63
1, 16479, Note_on_c, 0, 86, 0
1, 16480, Note_on_c, 0, 85, 63
1, 16519, Note_on_c, 0, 85, 0
1, 16520, Note_on_c, 0, 83, 63
1, 16559, Note_on_c, 0, 83, 0
1, 16560, Note_on_c, 0, 81, 81
1, 16561, Note_on_c, 1, 71, 107
1, 16599, Note_on_c, 0, 81, 0
1, 16600, Note_on_c, 0, 79, 63
1, 16639, Note_on_c, 0, 79, 0
1, 16640, Note_on_c, 0, 81, 63
1, 16679, Note_on_c, 0, 81, 0
1, 16679, Note_on_c, 1, 71, 0
1, 16680, Note_on_c, 0, 79, 63
1, 16680, Note_on_c, 1, 69, 62
1, 16719, Note_on_c, 0, 79, 0
1, 16720, Note_on_c, 0, 78, 63
1, 16759, Note_on_c, 0, 78, 0
1, 16760, Note_on_c, 0, 79, 63
1, 16799, Note_on_c, 0, 79, 0
1, 16799, Note_on_c, 1, 69, 0
1, 16800, Note_on_c, 0, 78, 81
1, 16800, Note_on_c, 1, 67, 107
1, 16839, Note_on_c, 0, 78, 0
1, 16840, Note_on_c, 0, 76, 63
1, 16879, Note_on_c, 0, 76, 0
1, 16880, Note_on_c, 0, 78, 63
1, 16919, Note_on_c, 0, 78, 0
1, 16919, Note_on_c, 1, 67, 0
1, 16920, Note_on_c, 0, 76, 63
1, 16920, Note_on_c, 1, 66, 62
1, 16959, Note_on_c, 0, 76, 0
1, 16960, Note_on_c, 0, 74, 63
1, 16999, Note_on_c, 0, 74, 0
1, 17000, Note_on_c, 0, 76, 63
1, 17039, Note_on_c, 0, 76, 0
1, 17039, Note_on_c, 1, 66, 0
1, 17040, Note_on_c, 0, 74, 81
1, 17040, Note_on_c, 1, 64, 107
1, 17079, Note_on_c, 0, 74, 0
1, 17080, Note_on_c, 0, 73, 63
1, 17119, Note_on_c, 0, 73, 0
1, 17120, Note_on_c, 0, 81, 63
1, 17159, Note_on_c, 0, 81, 0
1, 17159, Note_on_c, 1, 64, 0
1, 17160, Note_on_c, 0, 79, 63
1, 17160, Note_on_c, 1, 62, 62
1, 17199, Note_on_c, 0, 79, 0
1, 17200, Note_on_c, 0, 78, 63
1, 17239, Note_on_c, 0, 78, 0
1, 17240, Note_on_c, 0, 86, 63
1, 17279, Note_on_c, 0, 86, 0
1, 17279, Note_on_c, 1, 62, 0
1, 17280, Note_on_c, 0, 79, 47
1, 17281, Note_on_c, 4, 62, 37
1, 17281, Note_on_c, 5, 57, 23
1, 17299, Note_on_c, 0, 79, 0
1, 17300, Note_on_c, 0, 78, 47
1, 17319, Note_on_c, 0, 78, 0
1, 17320, Note_on_c, 0, 79, 47
1, 17339, Note_on_c, 0, 79, 0
1, 17340, Note_on_c, 0, 78, 47
1, 17359, Note_on_c, 0, 78, 0
1, 17360, Note_on_c, 0, 79, 47
1, 17379, Note_on_c, 0, 79, 0
1, 17380, Note_on_c, 0, 78, 47
1, 17399, Note_on_c, 0, 78, 0
1, 17400, Note_on_c, 0, 79, 47
1, 17419, Note_on_c, 0, 79, 0
1, 17420, Note_on_c, 0, 78, 47
1, 17439, Note_on_c, 0, 78, 0
1, 17440, Note_on_c, 0, 79, 47
1, 17459, Note_on_c, 0, 79, 0
1, 17460, Note_on_c, 0, 78, 47
1, 17479, Note_on_c, 0, 78, 0
1, 17480, Note_on_c, 0, 76, 47
1, 17499, Note_on_c, 0, 76, 0
1, 17500, Note_on_c, 0, 78, 47
1, 17519, Note_on_c, 0, 78, 0
1, 17519, Note_on_c, 4, 62, 0
1, 17520, Note_on_c, 0, 76, 31
1, 17520, Note_on_c, 4, 61, 37
1, 17639, Note_on_c, 0, 76, 0
1, 17639, Note_on_c, 4, 61, 0
1, 17639, Note_on_c, 5, 57, 0
1, 17941, Note_on_c, 0, 74, 63
1, 17959, Note_on_c, 0, 74, 0
1, 17960, Note_on_c, 0, 78, 63
1, 17979, Note_on_c, 0, 78, 0
1, 17980, Note_on_c, 0, 81, 63
1, 17999, Note_on_c, 0, 81, 0
1, 18000, Note_on_c, 0, 86, 81
1, 18001, Note_on_c, 4, 57, 37
1, 18001, Note_on_c, 5, 54, 23
1, 18001, Note_on_c, 6, 50, 23
1, 18059, Note_on_c, 0, 86, 0
1, 18060, Note_on_c, 0, 88, 81
1, 18079, Note_on_c, 0, 88, 0
1, 18080, Note_on_c, 0, 86, 81
1, 18099, Note_on_c, 0, 86, 0
1, 18100, Note_on_c, 0, 85, 81
1, 18119, Note_on_c, 0, 85, 0
1, 18120, Note_on_c, 0, 86, 81
1, 18209, Note_on_c, 0, 86, 0
1, 18210, Note_on_c, 0, 88, 81
1, 18239, Note_on_c, 0, 88, 0
1, 18239, Note_on_c, 4, 57, 0
1, 18239, Note_on_c, 5, 54, 0
1, 18239, Note_on_c, 6, 50, 0
1, 18240, Note_on_c, 0, 85, 81
1, 18240, Note_on_c, 4, 57, 37
1, 18240, Note_on_c, 5, 55, 23
1, 18240, Note_on_c, 6, 52, 23
1, 18241, Note_on_c, 2, 61, 84
1, 18299, Note_on_c, 0, 85, 0
1, 18479, Note_on_c, 2, 61, 0
1, 18479, Note_on_c, 4, 57, 0
1, 18479, Note_on_c, 5, 55, 0
1, 18479, Note_on_c, 6, 52, 0
1, 18481, Note_on_c, 0, 81, 31
1, 18519, Note_on_c, 0, 81, 0
1, 18520, Note_on_c, 0, 80, 31
1, 18559, Note_on_c, 0, 80, 0
1, 18560, Note_on_c, 0, 83, 31
1, 18599, Note_on_c, 0, 83, 0
1, 18600, Note_on_c, 0, 81, 31
1, 18639, Note_on_c, 0, 81, 0
1, 18640, Note_on_c, 0, 84, 31
1, 18679, Note_on_c, 0, 84, 0
1, 18680, Note_on_c, 0, 83, 31
1, 18719, Note_on_c, 0, 83, 0
1, 18720, Note_on_c, 0, 86, 31
1, 18721, Note_on_c, 1, 67, 25
1, 18721, Note_on_c, 2, 64, 25
1, 18839, Note_on_c, 0, 86, 0
1, 18840, Note_on_c, 0, 84, 31
1, 18959, Note_on_c, 1, 67, 0
1, 18959, Note_on_c, 2, 64, 0
1, 18960, Note_on_c, 1, 66, 25
1, 18960, Note_on_c, 2, 63, 25
1, 19079, Note_on_c, 0, 84, 0
1, 19080, Note_on_c, 0, 83, 31
1, 19199, Note_on_c, 1, 66, 0
1, 19200, Note_on_c, 1, 72, 25
1, 19259, Note_on_c, 0, 83, 0
1, 19260, Note_on_c, 0, 81, 31
1, 19289, Note_on_c, 0, 81, 0
1, 19290, Note_on_c, 0, 83, 31
1, 19319, Note_on_c, 0, 83, 0
1, 19320, Note_on_c, 0, 86, 31
1, 19349, Note_on_c, 0, 86, 0
1, 19350, Note_on_c, 0, 84, 31
1, 19379, Note_on_c, 0, 84, 0
1, 19380, Note_on_c, 0, 83, 31
1, 19409, Note_on_c, 0, 83, 0
1, 19410, Note_on_c, 0, 81, 31
1, 19439, Note_on_c, 0, 81, 0
1, 19439, Note_on_c, 1, 72, 0
1, 19439, Note_on_c, 2, 63, 0
1, 19440, Note_on_c, 0, 81, 47
1, 19440, Note_on_c, 1, 71, 41
1, 19440, Note_on_c, 2, 64, 25
1, 19559, Note_on_c, 1, 71, 0
1, 19560, Note_on_c, 1, 73, 41
1, 19619, Note_on_c, 0, 81, 0
1, 19620, Note_on_c, 0, 79, 47
1, 19679, Note_on_c, 1, 73, 0
1, 19679, Note_on_c, 2, 64, 0
1, 19680, Note_on_c, 1, 74, 41
1, 19680, Note_on_c, 2, 62, 25
1, 19769, Note_on_c, 0, 79, 0
1, 19770, Note_on_c, 0, 78, 47
1, 19799, Note_on_c, 0, 78, 0
1, 19799, Note_on_c, 1, 74, 0
1, 19800, Note_on_c, 0, 79, 31
1, 19800, Note_on_c, 1, 69, 25
1, 19819, Note_on_c, 0, 79, 0
1, 19820, Note_on_c, 0, 78, 31
1, 19839, Note_on_c, 0, 78, 0
1, 19840, Note_on_c, 0, 76, 31
1, 19859, Note_on_c, 0, 76, 0
1, 19860, Note_on_c, 0, 78, 31
1, 19919, Note_on_c, 0, 78, 0
1, 19919, Note_on_c, 1, 69, 0
1, 19919, Note_on_c, 2, 62, 0
1, 19920, Note_on_c, 0, 76, 31
1, 19920, Note_on_c, 1, 71, 25
1, 19920, Note_on_c, 2, 67, 25
1, 19959, Note_on_c, 0, 76, 0
1, 19960, Note_on_c, 0, 82, 31
1, 19999, Note_on_c, 0, 82, 0
1, 20000, Note_on_c, 0, 83, 31
1, 20039, Note_on_c, 0, 83, 0
1, 20040, Note_on_c, 0, 78, 31
1, 20079, Note_on_c, 0, 78, 0
1, 20080, Note_on_c, 0, 79, 31
1, 20119, Note_on_c, 0, 79, 0
1, 20120, Note_on_c, 0, 76, 31
1, 20159, Note_on_c, 0, 76, 0
1, 20159, Note_on_c, 1, 71, 0
1, 20159, Note_on_c, 2, 67, 0
1, 20160, Note_on_c, 0, 74, 31
1, 20161, Note_on_c, 4, 66, 23
1, 20161, Note_on_c, 5, 57, 23
1, 20399, Note_on_c, 0, 74, 0
1, 20399, Note_on_c, 4, 66, 0
1, 20400, Note_on_c, 0, 73, 19
1, 20400, Note_on_c, 4, 64, 12
1, 20519, Note_on_c, 0, 73, 0
1, 20519, Note_on_c, 4, 64, 0
1, 20519, Note_on_c, 5, 57, 0
1, 20821, Note_on_c, 0, 59, 81
1, 20839, Note_on_c, 0, 59, 0
1, 20840, Note_on_c, 0, 63, 81
1, 20859, Note_on_c, 0, 63, 0
1, 20860, Note_on_c, 0, 66, 81
1, 20879, Note_on_c, 0, 66, 0
1, 20880, Note_on_c, 0, 71, 81
1, 21059, Note_on_c, 0, 71, 0
1, 21060, Note_on_c, 0, 71, 81
1, 21119, Note_on_c, 0, 71, 0
1, 21120, Note_on_c, 0, 71, 81
1, 21239, Note_on_c, 0, 71, 0
1, 21241, Note_on_c, 4, 60, 37
1, 21299, Note_on_c, 4, 60, 0
1, 21300, Note_on_c, 4, 57, 37
1, 21359, Note_on_c, 4, 57, 0
1, 21360, Note_on_c, 4, 59, 37
1, 21419, Note_on_c, 4, 59, 0
1, 21420, Note_on_c, 4, 55, 37
1, 21479, Note_on_c, 4, 55, 0
1, 21480, Note_on_c, 4, 57, 37
1, 21539, Note_on_c, 4, 57, 0
1, 21540, Note_on_c, 4, 54, 37
1, 21541, Note_on_c, 0, 75, 31
1, 21569, Note_on_c, 0, 75, 0
1, 21599, Note_on_c, 4, 54, 0
1, 21600, Note_on_c, 4, 55, 37
1, 21601, Note_on_c, 0, 76, 31
1, 21659, Note_on_c, 0, 76, 0
1, 21660, Note_on_c, 0, 79, 31
1, 21719, Note_on_c, 0, 79, 0
1, 21719, Note_on_c, 4, 55, 0
1, 21720, Note_on_c, 0, 78, 31
1, 21779, Note_on_c, 0, 78, 0
1, 21780, Note_on_c, 0, 81, 31
1, 21839, Note_on_c, 0, 81, 0
1, 21840, Note_on_c, 0, 79, 19
1, 21959, Note_on_c, 0, 79, 0
1, 21961, Note_on_c, 4, 59, 23
1, 22019, Note_on_c, 4, 59, 0
1, 22020, Note_on_c, 4, 55, 23
1, 22079, Note_on_c, 4, 55, 0
1, 22080, Note_on_c, 4, 57, 23
1, 22139, Note_on_c, 4, 57, 0
1, 22140, Note_on_c, 4, 54, 23
1, 22199, Note_on_c, 4, 54, 0
1, 22200, Note_on_c, 4, 55, 23
1, 22259, Note_on_c, 4, 55, 0
1, 22260, Note_on_c, 4, 52, 23
1, 22261, Note_on_c, 0, 73, 31
1, 22289, Note_on_c, 0, 73, 0
1, 22319, Note_on_c, 4, 52, 0
1, 22320, Note_on_c, 4, 54, 23
1, 22321, Note_on_c, 0, 74, 31
1, 22379, Note_on_c, 0, 74, 0
1, 22380, Note_on_c, 0, 78, 31
1, 22439, Note_on_c, 0, 78, 0
1, 22439, Note_on_c, 4, 54, 0
1, 22440, Note_on_c, 0, 76, 47
1, 22499, Note_on_c, 0, 76, 0
1, 22500, Note_on_c, 0, 79, 47
1, 22559, Note_on_c, 0, 79, 0
1, 22560, Note_on_c, 0, 78, 47
1, 22619, Note_on_c, 0, 78, 0
1, 22620, Note_on_c, 0, 81, 47
1, 22621, Note_on_c, 4, 54, 23
1, 22679, Note_on_c, 0, 81, 0
1, 22679, Note_on_c, 4, 54, 0
1, 22680, Note_on_c, 0, 74, 47
1, 22680, Note_on_c, 4, 42, 23
1, 22739, Note_on_c, 0, 74, 0
1, 22739, Note_on_c, 4, 42, 0
1, 22740, Note_on_c, 0, 86, 63
1, 22740, Note_on_c, 4, 54, 23
1, 22799, Note_on_c, 0, 86, 0
1, 22799, Note_on_c, 4, 54, 0
1, 22800, Note_on_c, 0, 82, 63
1, 22800, Note_on_c, 4, 43, 23
1, 22859, Note_on_c, 0, 82, 0
1, 22859, Note_on_c, 4, 43, 0
1, 22860, Note_on_c, 0, 83, 63
1, 22860, Note_on_c, 4, 55, 23
1, 22919, Note_on_c, 0, 83, 0
1, 22919, Note_on_c, 4, 55, 0
1, 22920, Note_on_c, 0, 71, 63
1, 22920, Note_on_c, 4, 44, 23
1, 22979, Note_on_c, 0, 71, 0
1, 22979, Note_on_c, 4, 44, 0
1, 22980, Note_on_c, 0, 76, 63
1, 22980, Note_on_c, 4, 56, 23
1, 23039, Note_on_c, 0, 76, 0
1, 23039, Note_on_c, 4, 56, 0
1, 23040, Note_on_c, 0, 74, 63
1, 23101, Note_on_c, 4, 45, 23
1, 23159, Note_on_c, 4, 45, 0
1, 23160, Note_on_c, 4, 57, 23
1, 23219, Note_on_c, 4, 57, 0
1, 23220, Note_on_c, 4, 56, 23
1, 23279, Note_on_c, 4, 56, 0
1, 23280, Note_on_c, 4, 57, 23
1, 23299, Note_on_c, 0, 74, 0
1, 23300, Note_on_c, 0, 73, 31
1, 23319, Note_on_c, 0, 73, 0
1, 23320, Note_on_c, 0, 74, 31
1, 23339, Note_on_c, 0, 74, 0
1, 23339, Note_on_c, 4, 57, 0
1, 23340, Note_on_c, 0, 73, 31
1, 23340, Note_on_c, 4, 57, 23
1, 23369, Note_on_c, 0, 73, 0
1, 23399, Note_on_c, 4, 57, 0
1, 23400, Note_on_c, 4, 61, 23
1, 23459, Note_on_c, 4, 61, 0
1, 23460, Note_on_c, 4, 64, 23
1, 23519, Note_on_c, 4, 64, 0
1, 23521, Note_on_c, 1, 69, 41
1, 23579, Note_on_c, 1, 69, 0
1, 23580, Note_on_c, 1, 66, 41
1, 23639, Note_on_c, 1, 66, 0
1, 23640, Note_on_c, 1, 67, 41
1, 23699, Note_on_c, 1, 67, 0
1, 23700, Note_on_c, 1, 64, 41
1, 23701, Note_on_c, 0, 69, 63
1, 23729, Note_on_c, 0, 69, 0
1, 23759, Note_on_c, 1, 64, 0
1, 23760, Note_on_c, 1, 66, 62
1, 23761, Note_on_c, 0, 74, 63
1, 23761, Note_on_c, 2, 62, 62
1, 23879, Note_on_c, 1, 66, 0
1, 23879, Note_on_c, 2, 62, 0
1, 23939, Note_on_c, 0, 74, 0
1, 23940, Note_on_c, 0, 74, 63
1, 23999, Note_on_c, 0, 74, 0
1, 24000, Note_on_c, 0, 74, 63
1, 24001, Note_on_c, 1, 66, 62
1, 24001, Note_on_c, 2, 62, 62
1, 24029, Note_on_c, 0, 74, 0
1, 24061, Note_on_c, 0, 76, 63
1, 24089, Note_on_c, 0, 76, 0
1, 24119, Note_on_c, 1, 66, 0
1, 24119, Note_on_c, 2, 62, 0
1, 24121, Note_on_c, 0, 78, 63
1, 24149, Note_on_c, 0, 78, 0
1, 24181, Note_on_c, 0, 79, 63
1, 24209, Note_on_c, 0, 79, 0
1, 24241, Note_on_c, 0, 81, 63
1, 24269, Note_on_c, 0, 81, 0
1, 24301, Note_on_c, 0, 83, 63
1, 24329, Note_on_c, 0, 83, 0
1, 24361, Note_on_c, 0, 85, 63
1, 24389, Note_on_c, 0, 85, 0
1, 24421, Note_on_c, 0, 86, 63
1, 24449, Note_on_c, 0, 86, 0
1, 24481, Note_on_c, 0, 76, 63
1, 24481, Note_on_c, 1, 67, 62
1, 24481, Note_on_c, 2, 62, 62
1, 24659, Note_on_c, 0, 76, 0
1, 24660, Note_on_c, 0, 73, 47
1, 24719, Note_on_c, 0, 73, 0
1, 24719, Note_on_c, 1, 67, 0
1, 24720, Note_on_c, 0, 74, 47
1, 24720, Note_on_c, 1, 66, 41
1, 24839, Note_on_c, 0, 74, 0
1, 24839, Note_on_c, 1, 66, 0
1, 24839, Note_on_c, 2, 62, 0
1, 24961, Note_on_c, 0, 62, 31
1, 24979, Note_on_c, 0, 62, 0
1, 24980, Note_on_c, 0, 64, 31
1, 24999, Note_on_c, 0, 64, 0
1, 25000, Note_on_c, 0, 66, 31
1, 25019, Note_on_c, 0, 66, 0
1, 25020, Note_on_c, 0, 67, 31
1, 25039, Note_on_c, 0, 67, 0
1, 25040, Note_on_c, 0, 69, 31
1, 25059, Note_on_c, 0, 69, 0
1, 25060, Note_on_c, 0, 71, 31
1, 25079, Note_on_c, 0, 71, 0
1, 25080, Note_on_c, 0, 73, 31
1, 25099, Note_on_c, 0, 73, 0
1, 25100, Note_on_c, 0, 74, 31
1, 25119, Note_on_c, 0, 74, 0
1, 25120, Note_on_c, 0, 76, 31
1, 25139, Note_on_c, 0, 76, 0
1, 25140, Note_on_c, 0, 78, 47
1, 25159, Note_on_c, 0, 78, 0
1, 25160, Note_on_c, 0, 79, 47
1, 25179, Note_on_c, 0, 79, 0
1, 25180, Note_on_c, 0, 81, 47
1, 25199, Note_on_c, 0, 81, 0
1, 25200, Note_on_c, 0, 81, 63
1, 25201, Note_on_c, 1, 74, 62
1, 25201, Note_on_c, 2, 71, 62
1, 25319, Note_on_c, 0, 81, 0
1, 25319, Note_on_c, 1, 74, 0
1, 25319, Note_on_c, 2, 71, 0
1, 25320, Note_on_c, 0, 79, 63
1, 25349, Note_on_c, 0, 79, 0
1, 25411, Note_on_c, 0, 78, 63
1, 25411, Note_on_c, 1, 73, 62
1, 25411, Note_on_c, 2, 69, 62
1, 25439, Note_on_c, 0, 78, 0
1, 25439, Note_on_c, 1, 73, 0
1, 25439, Note_on_c, 2, 69, 0
1, 25440, Note_on_c, 0, 78, 63
1, 25440, Note_on_c, 1, 71, 62
1, 25440, Note_on_c, 2, 67, 62
1, 25559, Note_on_c, 0, 78, 0
1, 25559, Note_on_c, 1, 71, 0
1, 25559, Note_on_c, 2, 67, 0
1, 25560, Note_on_c, 0, 76, 63
1, 25589, Note_on_c, 0, 76, 0
1, 25651, Note_on_c, 0, 74, 63
1, 25651, Note_on_c, 1, 69, 62
1, 25651, Note_on_c, 2, 66, 62
1, 25679, Note_on_c, 0, 74, 0
1, 25679, Note_on_c, 1, 69, 0
1, 25679, Note_on_c, 2, 66, 0
1, 25680, Note_on_c, 0, 74, 63
1, 25680, Note_on_c, 1, 67, 62
1, 25680, Note_on_c, 2, 64, 62
1, 25799, Note_on_c, 0, 74, 0
1, 25799, Note_on_c, 1, 67, 0
1, 25799, Note_on_c, 2, 64, 0
1, 25800, Note_on_c, 0, 73, 63
1, 25829, Note_on_c, 0, 73, 0
1, 25891, Note_on_c, 0, 74, 63
1, 25891, Note_on_c, 1, 66, 62
1, 25891, Note_on_c, 2, 62, 62
1, 25919, Note_on_c, 0, 74, 0
1, 25919, Note_on_c, 1, 66, 0
1, 25919, Note_on_c, 2, 62, 0
1, 25920, Note_on_c, 0, 78, 31
1, 25921, Note_on_c, 4, 62, 56
1, 25921, Note_on_c, 5, 57, 37
1, 26009, Note_on_c, 0, 78, 0
1, 26010, Note_on_c, 0, 79, 31
1, 26039, Note_on_c, 0, 79, 0
1, 26040, Note_on_c, 0, 80, 31
1, 26129, Note_on_c, 0, 80, 0
1, 26130, Note_on_c, 0, 81, 31
1, 26159, Note_on_c, 0, 81, 0
1, 26159, Note_on_c, 4, 62, 0
1, 26160, Note_on_c, 0, 76, 31
1, 26160, Note_on_c, 4, 61, 23
1, 26219, Note_on_c, 0, 76, 0
1, 26219, Note_on_c, 4, 61, 0
1, 26279, Note_on_c, 5, 57, 0
1, 26581, Note_on_c, 0, 74, 63
1, 26599, Note_on_c, 0, 74, 0
1, 26600, Note_on_c, 0, 78, 63
1, 26619, Note_on_c, 0, 78, 0
1, 26620, Note_on_c, 0, 81, 63
1, 26639, Note_on_c, 0, 81, 0
1, 26640, Note_on_c, 0, 86, 81
1, 26641, Note_on_c, 4, 57, 76
1, 26641, Note_on_c, 5, 54, 56
1, 26641, Note_on_c, 6, 50, 56
1, 26699, Note_on_c, 0, 86, 0
1, 26700, Note_on_c, 0, 88, 81
1, 26719, Note_on_c, 0, 88, 0
1, 26720, Note_on_c, 0, 86, 81
1, 26739, Note_on_c, 0, 86, 0
1, 26740, Note_on_c, 0, 85, 81
1, 26759, Note_on_c, 0, 85, 0
1, 26760, Note_on_c, 0, 86, 81
1, 26849, Note_on_c, 0, 86, 0
1, 26850, Note_on_c, 0, 88, 81
1, 26879, Note_on_c, 0, 88, 0
1, 26879, Note_on_c, 4, 57, 0
1, 26879, Note_on_c, 5, 54, 0
1, 26879, Note_on_c, 6, 50, 0
1, 26880, Note_on_c, 0, 85, 81
1, 26880, Note_on_c, 4, 57, 76
1, 26880, Note_on_c, 5, 55, 56
1, 26880, Note_on_c, 6, 52, 56
1, 26881, Note_on_c, 1, 61, 84
1, 26939, Note_on_c, 0, 85, 0
1, 27119, Note_on_c, 1, 61, 0
1, 27119, Note_on_c, 4, 57, 0
1, 27119, Note_on_c, 5, 55, 0
1, 27119, Note_on_c, 6, 52, 0
1, 27121, Note_on_c, 0, 69, 81
1, 27149, Note_on_c, 0, 69, 0
1, 27150, Note_on_c, 0, 73, 81
1, 27179, Note_on_c, 0, 73, 0
1, 27180, Note_on_c, 0, 71, 81
1, 27209, Note_on_c, 0, 71, 0
1, 27210, Note_on_c, 0, 74, 81
1, 27239, Note_on_c, 0, 74, 0
1, 27240, Note_on_c, 0, 73, 81
1, 27269, Note_on_c, 0, 73, 0
1, 27270, Note_on_c, 0, 76, 81
1, 27299, Note_on_c, 0, 76, 0
1, 27300, Note_on_c, 0, 74, 81
1, 27329, Note_on_c, 0, 74, 0
1, 27330, Note_on_c, 0, 78, 81
1, 27359, Note_on_c, 0, 78, 0
1, 27360, Note_on_c, 0, 76, 105
1, 27361, Note_on_c, 1, 61, 107
1, 27361, Note_on_c, 4, 55, 97
1, 27361, Note_on_c, 5, 52, 76
1, 27389, Note_on_c, 0, 76, 0
1, 27390, Note_on_c, 0, 79, 105
1, 27419, Note_on_c, 0, 79, 0
1, 27420, Note_on_c, 0, 78, 105
1, 27449, Note_on_c, 0, 78, 0
1, 27450, Note_on_c, 0, 81, 105
1, 27479, Note_on_c, 0, 81, 0
1, 27480, Note_on_c, 0, 79, 105
1, 27509, Note_on_c, 0, 79, 0
1, 27510, Note_on_c, 0, 83, 105
1, 27539, Note_on_c, 0, 83, 0
1, 27540, Note_on_c, 0, 81, 105
1, 27569, Note_on_c, 0, 81, 0
1, 27570, Note_on_c, 0, 79, 105
1, 27599, Note_on_c, 0, 79, 0
1, 27599, Note_on_c, 1, 61, 0
1, 27599, Note_on_c, 4, 55, 0
1, 27599, Note_on_c, 5, 52, 0
1, 27600, Note_on_c, 0, 78, 105
1, 27600, Note_on_c, 1, 63, 107
1, 27600, Note_on_c, 4, 60, 97
1, 27600, Note_on_c, 5, 57, 76
1, 27601, Note_on_c, 6, 54, 76
1, 27629, Note_on_c, 0, 78, 0
1, 27630, Note_on_c, 0, 81, 105
1, 27659, Note_on_c, 0, 81, 0
1, 27660, Note_on_c, 0, 79, 105
1, 27689, Note_on_c, 0, 79, 0
1, 27690, Note_on_c, 0, 83, 105
1, 27719, Note_on_c, 0, 83, 0
1, 27720, Note_on_c, 0, 81, 105
1, 27749, Note_on_c, 0, 81, 0
1, 27750, Note_on_c, 0, 84, 105
1, 27779, Note_on_c, 0, 84, 0
1, 27780, Note_on_c, 0, 83, 105
1, 27809, Note_on_c, 0, 83, 0
1, 27810, Note_on_c, 0, 81, 105
1, 27839, Note_on_c, 0, 81, 0
1, 27839, Note_on_c, 1, 63, 0
1, 27839, Note_on_c, 4, 60, 0
1, 27839, Note_on_c, 5, 57, 0
1, 27839, Note_on_c, 6, 54, 0
1, 27840, Note_on_c, 0, 79, 105
1, 27840, Note_on_c, 1, 64, 107
1, 27840, Note_on_c, 4, 59, 56
1, 27840, Note_on_c, 5, 59, 56
1, 27840, Note_on_c, 6, 55, 56
1, 27869, Note_on_c, 0, 79, 0
1, 27870, Note_on_c, 0, 83, 105
1, 27899, Note_on_c, 0, 83, 0
1, 27900, Note_on_c, 0, 81, 105
1, 27929, Note_on_c, 0, 81, 0
1, 27930, Note_on_c, 0, 79, 105
1, 27959, Note_on_c, 0, 79, 0
1, 27960, Note_on_c, 0, 78, 81
1, 27989, Note_on_c, 0, 78, 0
1, 27990, Note_on_c, 0, 76, 81
1, 28019, Note_on_c, 0, 76, 0
1, 28020, Note_on_c, 0, 75, 81
1, 28049, Note_on_c, 0, 75, 0
1, 28050, Note_on_c, 0, 76, 81
1, 28079, Note_on_c, 0, 76, 0
1, 28079, Note_on_c, 1, 64, 0
1, 28079, Note_on_c, 4, 59, 0
1, 28079, Note_on_c, 5, 59, 0
1, 28079, Note_on_c, 6, 55, 0
1, 28080, Note_on_c, 4, 62, 56
1, 28080, Note_on_c, 5, 57, 56
1, 28081, Note_on_c, 2, 66, 62
1, 28111, Note_on_c, 0, 69, 63
1, 28139, Note_on_c, 0, 69, 0
1, 28140, Note_on_c, 0, 71, 63
1, 28169, Note_on_c, 0, 71, 0
1, 28170, Note_on_c, 0, 73, 63
1, 28199, Note_on_c, 0, 73, 0
1, 28200, Note_on_c, 0, 74, 63
1, 28229, Note_on_c, 0, 74, 0
1, 28230, Note_on_c, 0, 75, 63
1, 28259, Note_on_c, 0, 75, 0
1, 28260, Note_on_c, 0, 76, 63
1, 28289, Note_on_c, 0, 76, 0
1, 28290, Note_on_c, 0, 77, 81
1, 28319, Note_on_c, 0, 77, 0
1, 28320, Note_on_c, 0, 78, 81
1, 28349, Note_on_c, 0, 78, 0
1, 28350, Note_on_c, 0, 79, 81
1, 28379, Note_on_c, 0, 79, 0
1, 28380, Note_on_c, 0, 80, 81
1, 28409, Note_on_c, 0, 80, 0
1, 28410, Note_on_c, 0, 81, 81
1, 28439, Note_on_c, 0, 81, 0
1, 28440, Note_on_c, 0, 79, 81
1, 28469, Note_on_c, 0, 79, 0
1, 28470, Note_on_c, 0, 78, 81
1, 28499, Note_on_c, 0, 78, 0
1, 28500, Note_on_c, 0, 76, 63
1, 28529, Note_on_c, 0, 76, 0
1, 28530, Note_on_c, 0, 74, 63
1, 28559, Note_on_c, 0, 74, 0
1, 28559, Note_on_c, 2, 66, 0
1, 28559, Note_on_c, 4, 62, 0
1, 28559, Note_on_c, 5, 57, 0
1, 28560, Note_on_c, 0, 73, 47
1, 28560, Note_on_c, 2, 67, 25
1, 28560, Note_on_c, 4, 64, 23
1, 28560, Note_on_c, 5, 57, 56
1, 28619, Note_on_c, 0, 73, 0
1, 28619, Note_on_c, 2, 67, 0
1, 28619, Note_on_c, 4, 64, 0
1, 28619, Note_on_c, 5, 57, 0
1, 28681, Note_on_c, 0, 76, 31
1, 28681, Note_on_c, 1, 67, 25
1, 28739, Note_on_c, 0, 76, 0
1, 28739, Note_on_c, 1, 67, 0
1, 28801, Note_on_c, 0, 76, 31
1, 28801, Note_on_c, 1, 67, 25
1, 28801, Note_on_c, 4, 50, 23
1, 29039, Note_on_c, 0, 76, 0
1, 29039, Note_on_c, 1, 67, 0
1, 29039, Note_on_c, 4, 50, 0
1, 29040, Note_on_c, 0, 74, 19
1, 29040, Note_on_c, 1, 66, 13
1, 29040, Note_on_c, 4, 62, 12
1, 29159, Note_on_c, 0, 74, 0
1, 29159, Note_on_c, 1, 66, 0
1, 29159, Note_on_c, 4, 62, 0
1, 29461, Note_on_c, 0, 69, 81
1, 29519, Note_on_c, 0, 69, 0
1, 29520, Note_on_c, 0, 74, 81
1, 29521, Note_on_c, 1, 65, 84
1, 29521, Note_on_c, 4, 62, 76
1, 29521, Note_on_c, 5, 57, 76
1, 29521, Note_on_c, 6, 53, 76
1, 29521, Note_on_c, 7, 50, 76
1, 29699, Note_on_c, 0, 74, 0
1, 29699, Note_on_c, 1, 65, 0
1, 29700, Note_on_c, 0, 74, 81
1, 29700, Note_on_c, 1, 65, 84
1, 29759, Note_on_c, 0, 74, 0
1, 29759, Note_on_c, 1, 65, 0
1, 29759, Note_on_c, 4, 62, 0
1, 29759, Note_on_c, 5, 57, 0
1, 29759, Note_on_c, 6, 53, 0
1, 29759, Note_on_c, 7, 50, 0
1, 29760, Note_on_c, 0, 74, 81
1, 29760, Note_on_c, 1, 65, 84
1, 29801, Note_on_c, 4, 62, 76
1, 29839, Note_on_c, 4, 62, 0
1, 29840, Note_on_c, 4, 60, 76
1, 29879, Note_on_c, 0, 74, 0
1, 29879, Note_on_c, 1, 65, 0
1, 29879, Note_on_c, 4, 60, 0
1, 29880, Note_on_c, 4, 58, 76
1, 29919, Note_on_c, 4, 58, 0
1, 29920, Note_on_c, 4, 57, 76
1, 29959, Note_on_c, 4, 57, 0
1, 29960, Note_on_c, 4, 55, 76
1, 29999, Note_on_c, 4, 55, 0
1, 30000, Note_on_c, 4, 53, 76
1, 30039, Note_on_c, 4, 53, 0
1, 30040, Note_on_c, 4, 52, 76
1, 30079, Note_on_c, 4, 52, 0
1, 30080, Note_on_c, 4, 50, 76
1, 30119, Note_on_c, 4, 50, 0
1, 30120, Note_on_c, 4, 48, 76
1, 30159, Note_on_c, 4, 48, 0
1, 30160, Note_on_c, 4, 46, 76
1, 30181, Note_on_c, 0, 74, 81
1, 30199, Note_on_c, 4, 46, 0
1, 30200, Note_on_c, 4, 45, 76
1, 30239, Note_on_c, 0, 74, 0
1, 30239, Note_on_c, 4, 45, 0
1, 30240, Note_on_c, 0, 76, 81
1, 30240, Note_on_c, 4, 43, 76
1, 30241, Note_on_c, 1, 74, 84
1, 30419, Note_on_c, 0, 76, 0
1, 30419, Note_on_c, 1, 74, 0
1, 30420, Note_on_c, 0, 76, 81
1, 30420, Note_on_c, 1, 74, 84
1, 30479, Note_on_c, 0, 76, 0
1, 30479, Note_on_c, 1, 74, 0
1, 30479, Note_on_c, 4, 43, 0
1, 30480, Note_on_c, 0, 76, 81
1, 30480, Note_on_c, 1, 74, 84
1, 30521, Note_on_c, 4, 55, 76
1, 30559, Note_on_c, 4, 55, 0
1, 30560, Note_on_c, 4, 57, 76
1, 30599, Note_on_c, 4, 57, 0
1, 30600, Note_on_c, 4, 58, 76
1, 30639, Note_on_c, 4, 58, 0
1, 30640, Note_on_c, 4, 60, 76
1, 30679, Note_on_c, 4, 60, 0
1, 30680, Note_on_c, 4, 62, 76
1, 30719, Note_on_c, 0, 76, 0
1, 30719, Note_on_c, 1, 74, 0
1, 30719, Note_on_c, 4, 62, 0
1, 30720, Note_on_c, 0, 76, 81
1, 30720, Note_on_c, 1, 73, 84
1, 30720, Note_on_c, 4, 64, 76
1, 30759, Note_on_c, 4, 64, 0
1, 30760, Note_on_c, 4, 65, 76
1, 30779, Note_on_c, 0, 76, 0
1, 30779, Note_on_c, 1, 73, 0
1, 30799, Note_on_c, 4, 65, 0
1, 30800, Note_on_c, 4, 67, 76
1, 30839, Note_on_c, 4, 67, 0
1, 30840, Note_on_c, 4, 57, 76
1, 30841, Note_on_c, 0, 79, 81
1, 30841, Note_on_c, 1, 76, 84
1, 30879, Note_on_c, 4, 57, 0
1, 30880, Note_on_c, 4, 59, 76
1, 30899, Note_on_c, 0, 79, 0
1, 30899, Note_on_c, 1, 76, 0
1, 30919, Note_on_c, 4, 59, 0
1, 30920, Note_on_c, 4, 61, 76
1, 30959, Note_on_c, 4, 61, 0
1, 30960, Note_on_c, 4, 62, 76
1, 30961, Note_on_c, 0, 77, 81
1, 30961, Note_on_c, 1, 76, 84
1, 30999, Note_on_c, 4, 62, 0
1, 31000, Note_on_c, 4, 64, 76
1, 31039, Note_on_c, 4, 64, 0
1, 31040, Note_on_c, 4, 65, 76
1, 31079, Note_on_c, 1, 76, 0
1, 31079, Note_on_c, 4, 65, 0
1, 31080, Note_on_c, 1, 74, 84
1, 31080, Note_on_c, 4, 58, 76
1, 31119, Note_on_c, 4, 58, 0
1, 31120, Note_on_c, 4, 60, 76
1, 31159, Note_on_c, 4, 60, 0
1, 31160, Note_on_c, 4, 62, 76
1, 31199, Note_on_c, 0, 77, 0
1, 31199, Note_on_c, 1, 74, 0
1, 31199, Note_on_c, 4, 62, 0
1, 31200, Note_on_c, 0, 82, 81
1, 31200, Note_on_c, 1, 74, 84
1, 31200, Note_on_c, 4, 55, 76
1, 31239, Note_on_c, 4, 55, 0
1, 31240, Note_on_c, 4, 57, 76
1, 31279, Note_on_c, 4, 57, 0
1, 31280, Note_on_c, 4, 58, 76
1, 31319, Note_on_c, 4, 58, 0
1, 31320, Note_on_c, 4, 52, 76
1, 31359, Note_on_c, 4, 52, 0
1, 31360, Note_on_c, 4, 53, 76
1, 31399, Note_on_c, 4, 53, 0
1, 31400, Note_on_c, 4, 55, 76
1, 31439, Note_on_c, 0, 82, 0
1, 31439, Note_on_c, 1, 74, 0
1, 31439, Note_on_c, 4, 55, 0
1, 31440, Note_on_c, 0, 82, 81
1, 31440, Note_on_c, 1, 79, 84
1, 31440, Note_on_c, 4, 48, 76
1, 31441, Note_on_c, 2, 76, 25
1, 31479, Note_on_c, 4, 48, 0
1, 31480, Note_on_c, 4, 52, 76
1, 31519, Note_on_c, 4, 52, 0
1, 31520, Note_on_c, 4, 55, 76
1, 31559, Note_on_c, 4, 55, 0
1, 31560, Note_on_c, 4, 60, 76
1, 31599, Note_on_c, 4, 60, 0
1, 31600, Note_on_c, 4, 64, 76
1, 31639, Note_on_c, 4, 64, 0
1, 31640, Note_on_c, 4, 60, 76
1, 31679, Note_on_c, 0, 82, 0
1, 31679, Note_on_c, 1, 79, 0
1, 31679, Note_on_c, 2, 76, 0
1, 31679, Note_on_c, 4, 60, 0
1, 31680, Note_on_c, 0, 81, 81
1, 31680, Note_on_c, 1, 65, 84
1, 31719, Note_on_c, 0, 81, 0
1, 31720, Note_on_c, 0, 84, 81
1, 31759, Note_on_c, 0, 84, 0
1, 31760, Note_on_c, 0, 82, 81
1, 31799, Note_on_c, 0, 82, 0
1, 31800, Note_on_c, 0, 81, 81
1, 31839, Note_on_c, 0, 81, 0
1, 31840, Note_on_c, 0, 79, 81
1, 31879, Note_on_c, 0, 79, 0
1, 31880, Note_on_c, 0, 77, 81
1, 31919, Note_on_c, 0, 77, 0
1, 31919, Note_on_c, 1, 65, 0
1, 31920, Note_on_c, 0, 76, 81
1, 31920, Note_on_c, 1, 67, 84
1, 31959, Note_on_c, 0, 76, 0
1, 31960, Note_on_c, 0, 82, 81
1, 31999, Note_on_c, 0, 82, 0
1, 32000, Note_on_c, 0, 81, 81
1, 32039, Note_on_c, 0, 81, 0
1, 32040, Note_on_c, 0, 79, 81
1, 32079, Note_on_c, 0, 79, 0
1, 32080, Note_on_c, 0, 77, 81
1, 32119, Note_on_c, 0, 77, 0
1, 32120, Note_on_c, 0, 76, 81
1, 32159, Note_on_c, 0, 76, 0
1, 32159, Note_on_c, 1, 67, 0
1, 32160, Note_on_c, 0, 77, 81
1, 32160, Note_on_c, 1, 69, 84
1, 32199, Note_on_c, 0, 77, 0
1, 32200, Note_on_c, 0, 79, 81
1, 32239, Note_on_c, 0, 79, 0
1, 32240, Note_on_c, 0, 77, 81
1, 32279, Note_on_c, 0, 77, 0
1, 32280, Note_on_c, 0, 75, 81
1, 32319, Note_on_c, 0, 75, 0
1, 32320, Note_on_c, 0, 74, 81
1, 32359, Note_on_c, 0, 74, 0
1, 32360, Note_on_c, 0, 73, 81
1, 32399, Note_on_c, 0, 73, 0
1, 32399, Note_on_c, 1, 69, 0
1, 32400, Note_on_c, 0, 74, 81
1, 32400, Note_on_c, 1, 70, 84
1, 32439, Note_on_c, 0, 74, 0
1, 32440, Note_on_c, 0, 85, 81
1, 32479, Note_on_c, 0, 85, 0
1, 32480, Note_on_c, 0, 86, 81
1, 32519, Note_on_c, 0, 86, 0
1, 32520, Note_on_c, 0, 81, 81
1, 32559, Note_on_c, 0, 81, 0
1, 32560, Note_on_c, 0, 82, 81
1, 32599, Note_on_c, 0, 82, 0
1, 32600, Note_on_c, 0, 79, 81
1, 32639, Note_on_c, 0, 79, 0
1, 32639, Note_on_c, 1, 70, 0
1, 32640, Note_on_c, 0, 77, 81
1, 32640, Note_on_c, 1, 69, 84
1, 32641, Note_on_c, 2, 60, 84
1, 32679, Note_on_c, 0, 77, 0
1, 32680, Note_on_c, 0, 84, 81
1, 32719, Note_on_c, 0, 84, 0
1, 32720, Note_on_c, 0, 84, 81
1, 32739, Note_on_c, 0, 84, 0
1, 32761, Note_on_c, 0, 84, 81
1, 32799, Note_on_c, 0, 84, 0
1, 32800, Note_on_c, 0, 81, 81
1, 32839, Note_on_c, 0, 81, 0
1, 32840, Note_on_c, 0, 77, 81
1, 32879, Note_on_c, 0, 77, 0
1, 32879, Note_on_c, 1, 69, 0
1, 32880, Note_on_c, 0, 81, 81
1, 32880, Note_on_c, 1, 70, 84
1, 32899, Note_on_c, 0, 81, 0
1, 32900, Note_on_c, 0, 79, 81
1, 32919, Note_on_c, 0, 79, 0
1, 32920, Note_on_c, 0, 81, 81
1, 32939, Note_on_c, 0, 81, 0
1, 32940, Note_on_c, 0, 79, 81
1, 32959, Note_on_c, 0, 79, 0
1, 32960, Note_on_c, 0, 81, 81
1, 32979, Note_on_c, 0, 81, 0
1, 32980, Note_on_c, 0, 79, 81
1, 32999, Note_on_c, 0, 79, 0
1, 33000, Note_on_c, 0, 77, 81
1, 33059, Note_on_c, 0, 77, 0
1, 33060, Note_on_c, 0, 79, 81
1, 33119, Note_on_c, 0, 79, 0
1, 33119, Note_on_c, 1, 70, 0
1, 33119, Note_on_c, 2, 60, 0
1, 33120, Note_on_c, 0, 89, 81
1, 33120, Note_on_c, 1, 74, 84
1, 33159, Note_on_c, 0, 89, 0
1, 33160, Note_on_c, 0, 81, 81
1, 33199, Note_on_c, 0, 81, 0
1, 33200, Note_on_c, 0, 82, 81
1, 33239, Note_on_c, 0, 82, 0
1, 33239, Note_on_c, 1, 74, 0
1, 33240, Note_on_c, 0, 88, 81
1, 33240, Note_on_c, 1, 72, 84
1, 33279, Note_on_c, 0, 88, 0
1, 33280, Note_on_c, 0, 80, 81
1, 33319, Note_on_c, 0, 80, 0
1, 33320, Note_on_c, 0, 81, 81
1, 33359, Note_on_c, 0, 81, 0
1, 33359, Note_on_c, 1, 72, 0
1, 33360, Note_on_c, 0, 86, 81
1, 33360, Note_on_c, 1, 70, 84
1, 33399, Note_on_c, 0, 86, 0
1, 33400, Note_on_c, 0, 78, 81
1, 33439, Note_on_c, 0, 78, 0
1, 33440, Note_on_c, 0, 79, 81
1, 33479, Note_on_c, 0, 79, 0
1, 33479, Note_on_c, 1, 70, 0
1, 33480, Note_on_c, 0, 84, 81
1, 33480, Note_on_c, 1, 69, 84
1, 33519, Note_on_c, 0, 84, 0
1, 33520, Note_on_c, 0, 76, 81
1, 33559, Note_on_c, 0, 76, 0
1, 33560, Note_on_c, 0, 77, 81
1, 33599, Note_on_c, 0, 77, 0
1, 33599, Note_on_c, 1, 69, 0
1, 33600, Note_on_c, 0, 82, 63
1, 33600, Note_on_c, 1, 67, 62
1, 33639, Note_on_c, 0, 82, 0
1, 33640, Note_on_c, 0, 79, 63
1, 33679, Note_on_c, 0, 79, 0
1, 33680, Note_on_c, 0, 76, 63
1, 33719, Note_on_c, 0, 76, 0
1, 33719, Note_on_c, 1, 67, 0
1, 33720, Note_on_c, 0, 72, 63
1, 33720, Note_on_c, 1, 64, 62
1, 33759, Note_on_c, 0, 72, 0
1, 33760, Note_on_c, 0, 74, 63
1, 33799, Note_on_c, 0, 74, 0
1, 33800, Note_on_c, 0, 70, 63
1, 33839, Note_on_c, 0, 70, 0
1, 33839, Note_on_c, 1, 64, 0
1, 33840, Note_on_c, 0, 69, 47
1, 33841, Note_on_c, 4, 65, 37
1, 33879, Note_on_c, 0, 69, 0
1, 33880, Note_on_c, 0, 77, 47
1, 33919, Note_on_c, 0, 77, 0
1, 33920, Note_on_c, 0, 73, 47
1, 33959, Note_on_c, 0, 73, 0
1, 33959, Note_on_c, 4, 65, 0
1, 33960, Note_on_c, 0, 74, 47
1, 33960, Note_on_c, 4, 58, 37
1, 33999, Note_on_c, 0, 74, 0
1, 34000, Note_on_c, 0, 70, 47
1, 34039, Note_on_c, 0, 70, 0
1, 34040, Note_on_c, 0, 67, 47
1, 34079, Note_on_c, 0, 67, 0
1, 34079, Note_on_c, 4, 58, 0
1, 34080, Note_on_c, 0, 65, 47
1, 34080, Note_on_c, 4, 57, 37
1, 34081, Note_on_c, 5, 48, 37
1, 34119, Note_on_c, 0, 65, 0
1, 34120, Note_on_c, 0, 72, 47
1, 34159, Note_on_c, 0, 72, 0
1, 34160, Note_on_c, 0, 72, 47
1, 34179, Note_on_c, 0, 72, 0
1, 34201, Note_on_c, 0, 72, 47
1, 34239, Note_on_c, 0, 72, 0
1, 34240, Note_on_c, 0, 69, 47
1, 34279, Note_on_c, 0, 69, 0
1, 34280, Note_on_c, 0, 65, 47
1, 34319, Note_on_c, 0, 65, 0
1, 34319, Note_on_c, 4, 57, 0
1, 34320, Note_on_c, 0, 69, 47
1, 34320, Note_on_c, 4, 58, 37
1, 34339, Note_on_c, 0, 69, 0
1, 34340, Note_on_c, 0, 67, 47
1, 34359, Note_on_c, 0, 67, 0
1, 34360, Note_on_c, 0, 69, 47
1, 34379, Note_on_c, 0, 69, 0
1, 34380, Note_on_c, 0, 67, 47
1, 34399, Note_on_c, 0, 67, 0
1, 34400, Note_on_c, 0, 69, 47
1, 34419, Note_on_c, 0, 69, 0
1, 34420, Note_on_c, 0, 67, 47
1, 34439, Note_on_c, 0, 67, 0
1, 34440, Note_on_c, 0, 65, 47
1, 34499, Note_on_c, 0, 65, 0
1, 34500, Note_on_c, 0, 67, 47
1, 34559, Note_on_c, 0, 67, 0
1, 34559, Note_on_c, 4, 58, 0
1, 34559, Note_on_c, 5, 48, 0
1, 34560, Note_on_c, 0, 65, 34
1, 34560, Note_on_c, 4, 41, 25
1, 34599, Note_on_c, 4, 41, 0
1, 34600, Note_on_c, 4, 45, 25
1, 34639, Note_on_c, 4, 45, 0
1, 34640, Note_on_c, 4, 48, 25
1, 34679, Note_on_c, 4, 48, 0
1, 34680, Note_on_c, 4, 53, 25
1, 34719, Note_on_c, 4, 53, 0
1, 34720, Note_on_c, 4, 57, 25
1, 34759, Note_on_c, 4, 57, 0
1, 34760, Note_on_c, 4, 53, 25
1, 34799, Note_on_c, 0, 65, 0
1, 34799, Note_on_c, 4, 53, 0
1, 34800, Note_on_c, 4, 48, 25
1, 34839, Note_on_c, 4, 48, 0
1, 34840, Note_on_c, 4, 53, 25
1, 34879, Note_on_c, 4, 53, 0
1, 34880, Note_on_c, 4, 48, 25
1, 34919, Note_on_c, 4, 48, 0
1, 34920, Note_on_c, 4, 45, 25
1, 34959, Note_on_c, 4, 45, 0
1, 34960, Note_on_c, 4, 48, 25
1, 34999, Note_on_c, 4, 48, 0
1, 35000, Note_on_c, 4, 45, 25
1, 35039, Note_on_c, 4, 45, 0
1, 35040, Note_on_c, 4, 41, 25
1, 35159, Note_on_c, 4, 41, 0
1, 35221, Note_on_c, 4, 53, 84
1, 35279, Note_on_c, 4, 53, 0
1, 35280, Note_on_c, 4, 63, 76
1, 35459, Note_on_c, 4, 63, 0
1, 35460, Note_on_c, 4, 63, 76
1, 35461, Note_on_c, 0, 65, 81
1, 35519, Note_on_c, 0, 65, 0
1, 35519, Note_on_c, 4, 63, 0
1, 35520, Note_on_c, 0, 81, 81
1, 35520, Note_on_c, 4, 63, 76
1, 35521, Note_on_c, 1, 72, 84
1, 35699, Note_on_c, 0, 81, 0
1, 35699, Note_on_c, 1, 72, 0
1, 35700, Note_on_c, 0, 81, 81
1, 35700, Note_on_c, 1, 72, 84
1, 35759, Note_on_c, 0, 81, 0
1, 35759, Note_on_c, 1, 72, 0
1, 35759, Note_on_c, 4, 63, 0
1, 35760, Note_on_c, 0, 81, 81
1, 35760, Note_on_c, 1, 72, 84
1, 35941, Note_on_c, 4, 50, 76
1, 35999, Note_on_c, 0, 81, 0
1, 35999, Note_on_c, 1, 72, 0
1, 35999, Note_on_c, 4, 50, 0
1, 36001, Note_on_c, 2, 69, 84
1, 36001, Note_on_c, 3, 66, 84
1, 36179, Note_on_c, 2, 69, 0
1, 36179, Note_on_c, 3, 66, 0
1, 36180, Note_on_c, 2, 69, 84
1, 36180, Note_on_c, 3, 66, 84
1, 36181, Note_on_c, 0, 72, 81
1, 36239, Note_on_c, 0, 72, 0
1, 36239, Note_on_c, 2, 69, 0
1, 36239, Note_on_c, 3, 66, 0
1, 36240, Note_on_c, 0, 87, 81
1, 36240, Note_on_c, 2, 69, 84
1, 36240, Note_on_c, 3, 66, 84
1, 36241, Note_on_c, 1, 84, 84
1, 36419, Note_on_c, 0, 87, 0
1, 36419, Note_on_c, 1, 84, 0
1, 36420, Note_on_c, 0, 87, 81
1, 36420, Note_on_c, 1, 84, 84
1, 36479, Note_on_c, 0, 87, 0
1, 36479, Note_on_c, 1, 84, 0
1, 36480, Note_on_c, 0, 87, 81
1, 36480, Note_on_c, 1, 84, 84
1, 36599, Note_on_c, 2, 69, 0
1, 36599, Note_on_c, 3, 66, 0
1, 36600, Note_on_c, 2, 69, 25
1, 36600, Note_on_c, 3, 66, 25
1, 36659, Note_on_c, 0, 87, 0
1, 36659, Note_on_c, 1, 84, 0
1, 36660, Note_on_c, 0, 86, 31
1, 36689, Note_on_c, 0, 86, 0
1, 36690, Note_on_c, 0, 84, 31
1, 36719, Note_on_c, 0, 84, 0
1, 36719, Note_on_c, 2, 69, 0
1, 36719, Note_on_c, 3, 66, 0
1, 36720, Note_on_c, 0, 82, 31
1, 36720, Note_on_c, 2, 70, 25
1, 36720, Note_on_c, 3, 67, 25
1, 36759, Note_on_c, 0, 82, 0
1, 36760, Note_on_c, 0, 84, 31
1, 36799, Note_on_c, 0, 84, 0
1, 36800, Note_on_c, 0, 82, 31
1, 36839, Note_on_c, 0, 82, 0
1, 36839, Note_on_c, 2, 70, 0
1, 36839, Note_on_c, 3, 67, 0
1, 36840, Note_on_c, 0, 81, 31
1, 36840, Note_on_c, 2, 72, 25
1, 36840, Note_on_c, 3, 69, 25
1, 36879, Note_on_c, 0, 81, 0
1, 36880, Note_on_c, 0, 82, 31
1, 36919, Note_on_c, 0, 82, 0
1, 36920, Note_on_c, 0, 81, 31
1, 36959, Note_on_c, 0, 81, 0
1, 36959, Note_on_c, 2, 72, 0
1, 36959, Note_on_c, 3, 69, 0
1, 36960, Note_on_c, 0, 79, 31
1, 36960, Note_on_c, 2, 74, 25
1, 36960, Note_on_c, 3, 70, 25
1, 36999, Note_on_c, 0, 79, 0
1, 37000, Note_on_c, 0, 81, 31
1, 37039, Note_on_c, 0, 81, 0
1, 37040, Note_on_c, 0, 79, 31
1, 37079, Note_on_c, 0, 79, 0
1, 37079, Note_on_c, 2, 74, 0
1, 37079, Note_on_c, 3, 70, 0
1, 37080, Note_on_c, 0, 77, 31
1, 37080, Note_on_c, 2, 72, 25
1, 37080, Note_on_c, 3, 69, 25
1, 37119, Note_on_c, 0, 77, 0
1, 37120, Note_on_c, 0, 79, 31
1, 37159, Note_on_c, 0, 79, 0
1, 37160, Note_on_c, 0, 77, 31
1, 37199, Note_on_c, 0, 77, 0
1, 37199, Note_on_c, 2, 72, 0
1, 37199, Note_on_c, 3, 69, 0
1, 37200, Note_on_c, 0, 76, 31
1, 37200, Note_on_c, 2, 70, 25
1, 37200, Note_on_c, 3, 67, 25
1, 37239, Note_on_c, 0, 76, 0
1, 37240, Note_on_c, 0, 77, 31
1, 37279, Note_on_c, 0, 77, 0
1, 37280, Note_on_c, 0, 76, 31
1, 37319, Note_on_c, 0, 76, 0
1, 37319, Note_on_c, 2, 70, 0
1, 37319, Note_on_c, 3, 67, 0
1, 37320, Note_on_c, 0, 77, 31
1, 37320, Note_on_c, 2, 71, 25
1, 37320, Note_on_c, 3, 68, 25
1, 37359, Note_on_c, 0, 77, 0
1, 37360, Note_on_c, 0, 76, 31
1, 37399, Note_on_c, 0, 76, 0
1, 37400, Note_on_c, 0, 74, 31
1, 37439, Note_on_c, 0, 74, 0
1, 37439, Note_on_c, 2, 71, 0
1, 37439, Note_on_c, 3, 68, 0
1, 37440, Note_on_c, 0, 74, 47
1, 37440, Note_on_c, 2, 69, 41
1, 37679, Note_on_c, 0, 74, 0
1, 37679, Note_on_c, 2, 69, 0
1, 37680, Note_on_c, 0, 73, 47
1, 37681, Note_on_c, 4, 57, 37
1, 37719, Note_on_c, 0, 73, 0
1, 37720, Note_on_c, 0, 74, 47
1, 37759, Note_on_c, 0, 74, 0
1, 37760, Note_on_c, 0, 76, 47
1, 37799, Note_on_c, 0, 76, 0
1, 37800, Note_on_c, 0, 74, 47
1, 37839, Note_on_c, 0, 74, 0
1, 37840, Note_on_c, 0, 73, 47
1, 37879, Note_on_c, 0, 73, 0
1, 37880, Note_on_c, 0, 70, 47
1, 37919, Note_on_c, 0, 70, 0
1, 37919, Note_on_c, 4, 57, 0
1, 37920, Note_on_c, 0, 69, 63
1, 37959, Note_on_c, 0, 69, 0
1, 37960, Note_on_c, 0, 70, 63
1, 37999, Note_on_c, 0, 70, 0
1, 38000, Note_on_c, 0, 69, 63
1, 38039, Note_on_c, 0, 69, 0
1, 38040, Note_on_c, 0, 67, 63
1, 38079, Note_on_c, 0, 67, 0
1, 38080, Note_on_c, 0, 65, 63
1, 38101, Note_on_c, 4, 45, 76
1, 38101, Note_on_c, 5, 33, 56
1, 38119, Note_on_c, 0, 65, 0
1, 38120, Note_on_c, 0, 64, 63
1, 38129, Note_on_c, 4, 45, 0
1, 38129, Note_on_c, 5, 33, 0
1, 38159, Note_on_c, 0, 64, 0
1, 38161, Note_on_c, 4, 50, 76
1, 38161, Note_on_c, 5, 38, 56
1, 38201, Note_on_c, 0, 81, 81
1, 38201, Note_on_c, 1, 77, 84
1, 38219, Note_on_c, 0, 81, 0
1, 38219, Note_on_c, 1, 77, 0
1, 38241, Note_on_c, 0, 81, 81
1, 38241, Note_on_c, 1, 77, 84
1, 38259, Note_on_c, 0, 81, 0
1, 38259, Note_on_c, 1, 77, 0
1, 38281, Note_on_c, 0, 81, 81
1, 38281, Note_on_c, 1, 77, 84
1, 38319, Note_on_c, 0, 81, 0
1, 38319, Note_on_c, 1, 77, 0
1, 38320, Note_on_c, 0, 79, 81
1, 38320, Note_on_c, 1, 76, 84
1, 38339, Note_on_c, 4, 50, 0
1, 38339, Note_on_c, 5, 38, 0
1, 38340, Note_on_c, 4, 50, 76
1, 38340, Note_on_c, 5, 38, 56
1, 38359, Note_on_c, 0, 79, 0
1, 38359, Note_on_c, 1, 76, 0
1, 38360, Note_on_c, 0, 77, 81
1, 38360, Note_on_c, 1, 74, 84
1, 38399, Note_on_c, 0, 77, 0
1, 38399, Note_on_c, 1, 74, 0
1, 38399, Note_on_c, 4, 50, 0
1, 38399, Note_on_c, 5, 38, 0
1, 38400, Note_on_c, 4, 52, 76
1, 38400, Note_on_c, 5, 40, 56
1, 38441, Note_on_c, 0, 85, 81
1, 38441, Note_on_c, 1, 82, 84
1, 38459, Note_on_c, 0, 85, 0
1, 38459, Note_on_c, 1, 82, 0
1, 38481, Note_on_c, 0, 85, 81
1, 38481, Note_on_c, 1, 82, 84
1, 38499, Note_on_c, 0, 85, 0
1, 38499, Note_on_c, 1, 82, 0
1, 38521, Note_on_c, 0, 85, 81
1, 38521, Note_on_c, 1, 82, 84
1, 38559, Note_on_c, 0, 85, 0
1, 38559, Note_on_c, 1, 82, 0
1, 38560, Note_on_c, 0, 86, 81
1, 38560, Note_on_c, 1, 81, 84
1, 38579, Note_on_c, 4, 52, 0
1, 38579, Note_on_c, 5, 40, 0
1, 38580, Note_on_c, 4, 52, 76
1, 38580, Note_on_c, 5, 40, 56
1, 38599, Note_on_c, 0, 86, 0
1, 38599, Note_on_c, 1, 81, 0
1, 38600, Note_on_c, 0, 88, 81
1, 38600, Note_on_c, 1, 79, 84
1, 38639, Note_on_c, 0, 88, 0
1, 38639, Note_on_c, 1, 79, 0
1, 38639, Note_on_c, 4, 52, 0
1, 38639, Note_on_c, 5, 40, 0
1, 38640, Note_on_c, 4, 53, 76
1, 38640, Note_on_c, 5, 41, 56
1, 38681, Note_on_c, 0, 86, 81
1, 38681, Note_on_c, 1, 74, 84
1, 38699, Note_on_c, 0, 86, 0
1, 38699, Note_on_c, 1, 74, 0
1, 38699, Note_on_c, 4, 53, 0
1, 38699, Note_on_c, 5, 41, 0
1, 38721, Note_on_c, 0, 86, 81
1, 38721, Note_on_c, 1, 74, 84
1, 38739, Note_on_c, 0, 86, 0
1, 38739, Note_on_c, 1, 74, 0
1, 38761, Note_on_c, 4, 54, 76
1, 38761, Note_on_c, 5, 42, 56
1, 38801, Note_on_c, 0, 84, 81
1, 38801, Note_on_c, 1, 72, 84
1, 38819, Note_on_c, 0, 84, 0
1, 38819, Note_on_c, 1, 72, 0
1, 38819, Note_on_c, 4, 54, 0
1, 38819, Note_on_c, 5, 42, 0
1, 38841, Note_on_c, 0, 84, 81
1, 38841, Note_on_c, 1, 72, 84
1, 38859, Note_on_c, 0, 84, 0
1, 38859, Note_on_c, 1, 72, 0
1, 38881, Note_on_c, 4, 55, 76
1, 38881, Note_on_c, 5, 43, 56
1, 38921, Note_on_c, 0, 82, 81
1, 38921, Note_on_c, 1, 70, 84
1, 38939, Note_on_c, 0, 82, 0
1, 38939, Note_on_c, 1, 70, 0
1, 38939, Note_on_c, 4, 55, 0
1, 38939, Note_on_c, 5, 43, 0
1, 38961, Note_on_c, 0, 82, 81
1, 38961, Note_on_c, 1, 70, 84
1, 38979, Note_on_c, 0, 82, 0
1, 38979, Note_on_c, 1, 70, 0
1, 39001, Note_on_c, 4, 58, 76
1, 39001, Note_on_c, 5, 46, 56
1, 39041, Note_on_c, 0, 79, 81
1, 39041, Note_on_c, 1, 67, 84
1, 39059, Note_on_c, 0, 79, 0
1, 39059, Note_on_c, 1, 67, 0
1, 39059, Note_on_c, 4, 58, 0
1, 39059, Note_on_c, 5, 46, 0
1, 39081, Note_on_c, 0, 79, 81
1, 39081, Note_on_c, 1, 67, 84
1, 39099, Note_on_c, 0, 79, 0
1, 39099, Note_on_c, 1, 67, 0
1, 39121, Note_on_c, 4, 57, 76
1, 39139, Note_on_c, 4, 57, 0
1, 39161, Note_on_c, 4, 62, 76
1, 39179, Note_on_c, 4, 62, 0
1, 39201, Note_on_c, 4, 65, 76
1, 39219, Note_on_c, 4, 65, 0
1, 39241, Note_on_c, 0, 69, 81
1, 39259, Note_on_c, 0, 69, 0
1, 39281, Note_on_c, 0, 74, 81
1, 39299, Note_on_c, 0, 74, 0
1, 39321, Note_on_c, 0, 77, 81
1, 39339, Note_on_c, 0, 77, 0
1, 39361, Note_on_c, 0, 81, 81
1, 39479, Note_on_c, 0, 81, 0
1, 39601, Note_on_c, 4, 57, 37
1, 39619, Note_on_c, 4, 57, 0
1, 39641, Note_on_c, 4, 61, 37
1, 39659, Note_on_c, 4, 61, 0
1, 39681, Note_on_c, 4, 64, 37
1, 39699, Note_on_c, 4, 64, 0
1, 39721, Note_on_c, 0, 67, 31
1, 39759, Note_on_c, 0, 67, 0
1, 39760, Note_on_c, 0, 73, 31
1, 39799, Note_on_c, 0, 73, 0
1, 39800, Note_on_c, 0, 76, 31
1, 39839, Note_on_c, 0, 76, 0
1, 39840, Note_on_c, 0, 79, 31
1, 40079, Note_on_c, 0, 79, 0
1, 40321, Note_on_c, 4, 46, 56
1, 40321, Note_on_c, 5, 34, 56
1, 40361, Note_on_c, 0, 88, 31
1, 40399, Note_on_c, 0, 88, 0
1, 40400, Note_on_c, 0, 89, 105
1, 40439, Note_on_c, 0, 89, 0
1, 40440, Note_on_c, 0, 85, 105
1, 40479, Note_on_c, 0, 85, 0
1, 40480, Note_on_c, 0, 86, 105
1, 40519, Note_on_c, 0, 86, 0
1, 40520, Note_on_c, 0, 81, 105
1, 40559, Note_on_c, 0, 81, 0
1, 40560, Note_on_c, 0, 82, 105
1, 40599, Note_on_c, 0, 82, 0
1, 40600, Note_on_c, 0, 80, 105
1, 40639, Note_on_c, 0, 80, 0
1, 40640, Note_on_c, 0, 81, 105
1, 40679, Note_on_c, 0, 81, 0
1, 40680, Note_on_c, 0, 76, 105
1, 40719, Note_on_c, 0, 76, 0
1, 40720, Note_on_c, 0, 77, 105
1, 40759, Note_on_c, 0, 77, 0
1, 40760, Note_on_c, 0, 73, 105
1, 40799, Note_on_c, 0, 73, 0
1, 40800, Note_on_c, 0, 74, 105
1, 40839, Note_on_c, 0, 74, 0
1, 40840, Note_on_c, 0, 77, 105
1, 40879, Note_on_c, 0, 77, 0
1, 40880, Note_on_c, 0, 69, 105
1, 40919, Note_on_c, 0, 69, 0
1, 40920, Note_on_c, 0, 70, 105
1, 40959, Note_on_c, 0, 70, 0
1, 40960, Note_on_c, 0, 74, 105
1, 40999, Note_on_c, 0, 74, 0
1, 41000, Note_on_c, 0, 68, 105
1, 41039, Note_on_c, 0, 68, 0
1, 41039, Note_on_c, 4, 46, 0
1, 41039, Note_on_c, 5, 34, 0
1, 41040, Note_on_c, 0, 69, 105
1, 41040, Note_on_c, 4, 45, 56
1, 41040, Note_on_c, 5, 33, 56
1, 41079, Note_on_c, 0, 69, 0
1, 41080, Note_on_c, 0, 70, 105
1, 41119, Note_on_c, 0, 70, 0
1, 41120, Note_on_c, 0, 71, 105
1, 41159, Note_on_c, 0, 71, 0
1, 41160, Note_on_c, 0, 72, 81
1, 41199, Note_on_c, 0, 72, 0
1, 41200, Note_on_c, 0, 73, 81
1, 41239, Note_on_c, 0, 73, 0
1, 41240, Note_on_c, 0, 74, 81
1, 41279, Note_on_c, 0, 74, 0
1, 41280, Note_on_c, 0, 75, 63
1, 41319, Note_on_c, 0, 75, 0
1, 41320, Note_on_c, 0, 76, 63
1, 41359, Note_on_c, 0, 76, 0
1, 41360, Note_on_c, 0, 77, 63
1, 41399, Note_on_c, 0, 77, 0
1, 41400, Note_on_c, 0, 78, 47
1, 41439, Note_on_c, 0, 78, 0
1, 41440, Note_on_c, 0, 79, 47
1, 41479, Note_on_c, 0, 79, 0
1, 41480, Note_on_c, 0, 80, 47
1, 41519, Note_on_c, 0, 80, 0
1, 41519, Note_on_c, 4, 45, 0
1, 41519, Note_on_c, 5, 33, 0
1, 41520, Note_on_c, 0, 81, 47
1, 41579, Note_on_c, 0, 81, 0
1, 41641, Note_on_c, 0, 73, 31
1, 41641, Note_on_c, 1, 67, 25
1, 41641, Note_on_c, 4, 57, 23
1, 41699, Note_on_c, 0, 73, 0
1, 41699, Note_on_c, 1, 67, 0
1, 41699, Note_on_c, 4, 57, 0
1, 41761, Note_on_c, 0, 73, 31
1, 41761, Note_on_c, 1, 67, 25
1, 41761, Note_on_c, 4, 58, 23
1, 41999, Note_on_c, 0, 73, 0
1, 41999, Note_on_c, 1, 67, 0
1, 42000, Note_on_c, 0, 74, 19
1, 42000, Note_on_c, 1, 65, 13
1, 42119, Note_on_c, 0, 74, 0
1, 42119, Note_on_c, 1, 65, 0
1, 42119, Note_on_c, 4, 58, 0
1, 42421, Note_on_c, 0, 62, 81
1, 42421, Note_on_c, 1, 58, 84
1, 42479, Note_on_c, 0, 62, 0
1, 42479, Note_on_c, 1, 58, 0
1, 42480, Note_on_c, 0, 65, 81
1, 42480, Note_on_c, 1, 62, 84
1, 42659, Note_on_c, 0, 65, 0
1, 42659, Note_on_c, 1, 62, 0
1, 42660, Note_on_c, 0, 65, 81
1, 42660, Note_on_c, 1, 62, 84
1, 42661, Note_on_c, 4, 46, 76
1, 42719, Note_on_c, 0, 65, 0
1, 42719, Note_on_c, 1, 62, 0
1, 42719, Note_on_c, 4, 46, 0
1, 42720, Note_on_c, 0, 65, 81
1, 42720, Note_on_c, 1, 62, 84
1, 42720, Note_on_c, 4, 58, 76
1, 42899, Note_on_c, 4, 58, 0
1, 42900, Note_on_c, 4, 58, 76
1, 42959, Note_on_c, 0, 65, 0
1, 42959, Note_on_c, 1, 62, 0
1, 42959, Note_on_c, 4, 58, 0
1, 42960, Note_on_c, 4, 58, 76
1, 43079, Note_on_c, 4, 58, 0
1, 43141, Note_on_c, 0, 65, 81
1, 43141, Note_on_c, 1, 62, 84
1, 43199, Note_on_c, 0, 65, 0
1, 43199, Note_on_c, 1, 62, 0
1, 43200, Note_on_c, 0, 68, 81
1, 43200, Note_on_c, 1, 65, 84
1, 43379, Note_on_c, 0, 68, 0
1, 43379, Note_on_c, 1, 65, 0
1, 43380, Note_on_c, 0, 68, 81
1, 43380, Note_on_c, 1, 65, 84
1, 43381, Note_on_c, 4, 46, 76
1, 43381, Note_on_c, 5, 34, 56
1, 43439, Note_on_c, 0, 68, 0
1, 43439, Note_on_c, 1, 65, 0
1, 43439, Note_on_c, 4, 46, 0
1, 43439, Note_on_c, 5, 34, 0
1, 43440, Note_on_c, 0, 68, 81
1, 43440, Note_on_c, 1, 65, 84
1, 43440, Note_on_c, 4, 62, 76
1, 43440, Note_on_c, 5, 58, 56
1, 43619, Note_on_c, 4, 62, 0
1, 43619, Note_on_c, 5, 58, 0
1, 43620, Note_on_c, 4, 62, 76
1, 43620, Note_on_c, 5, 58, 56
1, 43679, Note_on_c, 0, 68, 0
1, 43679, Note_on_c, 1, 65, 0
1, 43679, Note_on_c, 4, 62, 0
1, 43679, Note_on_c, 5, 58, 0
1, 43680, Note_on_c, 4, 62, 76
1, 43680, Note_on_c, 5, 58, 56
1, 43859, Note_on_c, 4, 62, 0
1, 43859, Note_on_c, 5, 58, 0
1, 43860, Note_on_c, 4, 62, 76
1, 43860, Note_on_c, 5, 58, 56
1, 43861, Note_on_c, 0, 68, 81
1, 43919, Note_on_c, 0, 68, 0
1, 43919, Note_on_c, 4, 62, 0
1, 43919, Note_on_c, 5, 58, 0
1, 43920, Note_on_c, 0, 69, 81
1, 43920, Note_on_c, 4, 61, 76
1, 43920, Note_on_c, 5, 57, 56
1, 44099, Note_on_c, 0, 69, 0
1, 44099, Note_on_c, 4, 61, 0
1, 44099, Note_on_c, 5, 57, 0
1, 44100, Note_on_c, 0, 69, 63
1, 44100, Note_on_c, 4, 61, 56
1, 44100, Note_on_c, 5, 57, 56
1, 44159, Note_on_c, 0, 69, 0
1, 44159, Note_on_c, 4, 61, 0
1, 44159, Note_on_c, 5, 57, 0
1, 44160, Note_on_c, 0, 71, 63
1, 44160, Note_on_c, 4, 62, 56
1, 44160, Note_on_c, 5, 57, 56
1, 44339, Note_on_c, 0, 71, 0
1, 44339, Note_on_c, 4, 62, 0
1, 44339, Note_on_c, 5, 57, 0
1, 44340, Note_on_c, 0, 71, 47
1, 44340, Note_on_c, 4, 62, 37
1, 44340, Note_on_c, 5, 57, 37
1, 44399, Note_on_c, 0, 71, 0
1, 44399, Note_on_c, 4, 62, 0
1, 44399, Note_on_c, 5, 57, 0
1, 44400, Note_on_c, 0, 73, 47
1, 44400, Note_on_c, 4, 64, 37
1, 44400, Note_on_c, 5, 57, 37
1, 44401, Note_on_c, 1, 67, 41
1, 44579, Note_on_c, 0, 73, 0
1, 44579, Note_on_c, 1, 67, 0
1, 44579, Note_on_c, 4, 64, 0
1, 44579, Note_on_c, 5, 57, 0
1, 44580, Note_on_c, 0, 69, 31
1, 44639, Note_on_c, 0, 69, 0
1, 44640, Note_on_c, 0, 74, 31
1, 44641, Note_on_c, 1, 66, 25
1, 44641, Note_on_c, 2, 62, 25
1, 44759, Note_on_c, 1, 66, 0
1, 44759, Note_on_c, 2, 62, 0
1, 44819, Note_on_c, 0, 74, 0
1, 44820, Note_on_c, 0, 74, 31
1, 44879, Note_on_c, 0, 74, 0
1, 44880, Note_on_c, 0, 74, 31
1, 44881, Note_on_c, 1, 66, 25
1, 44881, Note_on_c, 2, 62, 25
1, 44999, Note_on_c, 0, 74, 0
1, 44999, Note_on_c, 1, 66, 0
1, 44999, Note_on_c, 2, 62, 0
1, 45301, Note_on_c, 0, 69, 31
1, 45319, Note_on_c, 0, 69, 0
1, 45320, Note_on_c, 0, 74, 31
1, 45339, Note_on_c, 0, 74, 0
1, 45340, Note_on_c, 0, 78, 31
1, 45359, Note_on_c, 0, 78, 0
1, 45360, Note_on_c, 0, 76, 31
1, 45361, Note_on_c, 1, 67, 25
1, 45361, Note_on_c, 2, 62, 25
1, 45539, Note_on_c, 0, 76, 0
1, 45540, Note_on_c, 0, 73, 31
1, 45599, Note_on_c, 0, 73, 0
1, 45599, Note_on_c, 1, 67, 0
1, 45600, Note_on_c, 0, 74, 31
1, 45600, Note_on_c, 1, 66, 13
1, 45659, Note_on_c, 0, 74, 0
1, 45719, Note_on_c, 1, 66, 0
1, 45719, Note_on_c, 2, 62, 0
1, 45961, Note_on_c, 0, 69, 47
1, 45989, Note_on_c, 0, 69, 0
1, 45990, Note_on_c, 0, 74, 47
1, 46019, Note_on_c, 0, 74, 0
1, 46020, Note_on_c, 0, 78, 47
1, 46049, Note_on_c, 0, 78, 0
1, 46050, Note_on_c, 0, 81, 47
1, 46079, Note_on_c, 0, 81, 0
1, 46080, Note_on_c, 0, 81, 47
1, 46081, Note_on_c, 1, 71, 41
1, 46199, Note_on_c, 0, 81, 0
1, 46199, Note_on_c, 1, 71, 0
1, 46200, Note_on_c, 0, 79, 47
1, 46229, Note_on_c, 0, 79, 0
1, 46291, Note_on_c, 0, 78, 47
1, 46291, Note_on_c, 1, 69, 41
1, 46319, Note_on_c, 0, 78, 0
1, 46319, Note_on_c, 1, 69, 0
1, 46320, Note_on_c, 0, 78, 47
1, 46320, Note_on_c, 1, 67, 41
1, 46439, Note_on_c, 0, 78, 0
1, 46439, Note_on_c, 1, 67, 0
1, 46440, Note_on_c, 0, 76, 47
1, 46469, Note_on_c, 0, 76, 0
1, 46531, Note_on_c, 0, 74, 31
1, 46531, Note_on_c, 1, 66, 25
1, 46559, Note_on_c, 0, 74, 0
1, 46559, Note_on_c, 1, 66, 0
1, 46560, Note_on_c, 0, 74, 31
1, 46560, Note_on_c, 1, 64, 25
1, 46679, Note_on_c, 0, 74, 0
1, 46679, Note_on_c, 1, 64, 0
1, 46680, Note_on_c, 0, 73, 31
1, 46709, Note_on_c, 0, 73, 0
1, 46771, Note_on_c, 0, 74, 31
1, 46771, Note_on_c, 1, 62, 25
1, 46799, Note_on_c, 0, 74, 0
1, 46799, Note_on_c, 1, 62, 0
1, 46800, Note_on_c, 0, 78, 31
1, 46801, Note_on_c, 4, 62, 23
1, 46801, Note_on_c, 5, 57, 23
1, 47039, Note_on_c, 0, 78, 0
1, 47039, Note_on_c, 4, 62, 0
1, 47040, Note_on_c, 0, 76, 19
1, 47040, Note_on_c, 4, 61, 12
1, 47159, Note_on_c, 0, 76, 0
1, 47159, Note_on_c, 4, 61, 0
1, 47159, Note_on_c, 5, 57, 0
1, 47461, Note_on_c, 0, 74, 63
1, 47479, Note_on_c, 0, 74, 0
1, 47480, Note_on_c, 0, 78, 63
1, 47499, Note_on_c, 0, 78, 0
1, 47500, Note_on_c, 0, 81, 63
1, 47519, Note_on_c, 0, 81, 0
1, 47520, Note_on_c, 0, 86, 81
1, 47521, Note_on_c, 4, 57, 76
1, 47521, Note_on_c, 5, 54, 76
1, 47521, Note_on_c, 6, 50, 76
1, 47579, Note_on_c, 0, 86, 0
1, 47580, Note_on_c, 0, 88, 81
1, 47599, Note_on_c, 0, 88, 0
1, 47600, Note_on_c, 0, 86, 81
1, 47619, Note_on_c, 0, 86, 0
1, 47620, Note_on_c, 0, 85, 81
1, 47639, Note_on_c, 0, 85, 0
1, 47640, Note_on_c, 0, 86, 81
1, 47729, Note_on_c, 0, 86, 0
1, 47730, Note_on_c, 0, 88, 81
1, 47759, Note_on_c, 0, 88, 0
1, 47759, Note_on_c, 4, 57, 0
1, 47759, Note_on_c, 5, 54, 0
1, 47759, Note_on_c, 6, 50, 0
1, 47760, Note_on_c, 0, 85, 81
1, 47760, Note_on_c, 4, 57, 76
1, 47760, Note_on_c, 5, 55, 76
1, 47760, Note_on_c, 6, 52, 76
1, 47761, Note_on_c, 1, 61, 84
1, 47819, Note_on_c, 0, 85, 0
1, 47999, Note_on_c, 1, 61, 0
1, 47999, Note_on_c, 4, 57, 0
1, 47999, Note_on_c, 5, 55, 0
1, 47999, Note_on_c, 6, 52, 0
1, 48001, Note_on_c, 0, 81, 81
1, 48059, Note_on_c, 0, 81, 0
1, 48060, Note_on_c, 0, 83, 81
1, 48079, Note_on_c, 0, 83, 0
1, 48080, Note_on_c, 0, 81, 81
1, 48099, Note_on_c, 0, 81, 0
1, 48100, Note_on_c, 0, 80, 81
1, 48119, Note_on_c, 0, 80, 0
1, 48120, Note_on_c, 0, 81, 81
1, 48209, Note_on_c, 0, 81, 0
1, 48210, Note_on_c, 0, 83, 81
1, 48239, Note_on_c, 0, 83, 0
1, 48240, Note_on_c, 0, 86, 81
1, 48241, Note_on_c, 1, 79, 84
1, 48241, Note_on_c, 2, 76, 84
1, 48299, Note_on_c, 0, 86, 0
1, 48300, Note_on_c, 0, 84, 81
1, 48359, Note_on_c, 0, 84, 0
1, 48360, Note_on_c, 0, 84, 81
1, 48449, Note_on_c, 0, 84, 0
1, 48450, Note_on_c, 0, 83, 81
1, 48479, Note_on_c, 0, 83, 0
1, 48479, Note_on_c, 1, 79, 0
1, 48479, Note_on_c, 2, 76, 0
1, 48480, Note_on_c, 0, 83, 81
1, 48480, Note_on_c, 1, 78, 84
1, 48480, Note_on_c, 2, 75, 84
1, 48779, Note_on_c, 0, 83, 0
1, 48780, Note_on_c, 0, 81, 31
1, 48839, Note_on_c, 0, 81, 0
1, 48839, Note_on_c, 1, 78, 0
1, 48839, Note_on_c, 2, 75, 0
1, 48840, Note_on_c, 0, 84, 31
1, 48840, Note_on_c, 1, 75, 25
1, 48899, Note_on_c, 0, 84, 0
1, 48900, Note_on_c, 0, 81, 31
1, 48959, Note_on_c, 0, 81, 0
1, 48959, Note_on_c, 1, 75, 0
1, 48960, Note_on_c, 0, 81, 31
1, 48960, Note_on_c, 1, 76, 25
1, 49019, Note_on_c, 0, 81, 0
1, 49020, Note_on_c, 0, 79, 31
1, 49079, Note_on_c, 0, 79, 0
1, 49079, Note_on_c, 1, 76, 0
1, 49080, Note_on_c, 0, 83, 31
1, 49080, Note_on_c, 1, 73, 25
1, 49139, Note_on_c, 0, 83, 0
1, 49140, Note_on_c, 0, 79, 31
1, 49199, Note_on_c, 0, 79, 0
1, 49199, Note_on_c, 1, 73, 0
1, 49200, Note_on_c, 0, 79, 31
1, 49200, Note_on_c, 1, 74, 25
1, 49259, Note_on_c, 0, 79, 0
1, 49260, Note_on_c, 0, 78, 31
1, 49319, Note_on_c, 0, 78, 0
1, 49319, Note_on_c, 1, 74, 0
1, 49320, Note_on_c, 0, 81, 31
1, 49320, Note_on_c, 1, 66, 25
1, 49379, Note_on_c, 0, 81, 0
1, 49380, Note_on_c, 0, 78, 31
1, 49439, Note_on_c, 0, 78, 0
1, 49439, Note_on_c, 1, 66, 0
1, 49440, Note_on_c, 0, 78, 47
1, 49440, Note_on_c, 1, 67, 41
1, 49499, Note_on_c, 0, 78, 0
1, 49500, Note_on_c, 0, 76, 47
1, 49559, Note_on_c, 0, 76, 0
1, 49559, Note_on_c, 1, 67, 0
1, 49560, Note_on_c, 0, 77, 47
1, 49560, Note_on_c, 1, 68, 41
1, 49619, Note_on_c, 0, 77, 0
1, 49620, Note_on_c, 0, 74, 47
1, 49679, Note_on_c, 0, 74, 0
1, 49679, Note_on_c, 1, 68, 0
1, 49680, Note_on_c, 0, 74, 31
1, 49680, Note_on_c, 1, 69, 25
1, 49919, Note_on_c, 0, 74, 0
1, 49919, Note_on_c, 1, 69, 0
1, 49920, Note_on_c, 0, 73, 19
1, 49921, Note_on_c, 4, 57, 12
1, 50039, Note_on_c, 0, 73, 0
1, 50039, Note_on_c, 4, 57, 0
1, 50341, Note_on_c, 0, 69, 81
1, 50399, Note_on_c, 0, 69, 0
1, 50400, Note_on_c, 0, 74, 81
1, 50401, Note_on_c, 4, 50, 76
1, 50401, Note_on_c, 5, 45, 56
1, 50401, Note_on_c, 6, 42, 56
1, 50401, Note_on_c, 7, 38, 56
1, 50519, Note_on_c, 0, 74, 0
1, 50520, Note_on_c, 0, 74, 81
1, 50549, Note_on_c, 0, 74, 0
1, 50550, Note_on_c, 0, 73, 81
1, 50565, Note_on_c, 0, 73, 0
1, 50565, Note_on_c, 0, 71, 81
1, 50580, Note_on_c, 0, 71, 0
1, 50580, Note_on_c, 0, 69, 81
1, 50595, Note_on_c, 0, 69, 0
1, 50595, Note_on_c, 0, 67, 81
1, 50610, Note_on_c, 0, 67, 0
1, 50610, Note_on_c, 0, 66, 81
1, 50625, Note_on_c, 0, 66, 0
1, 50625, Note_on_c, 0, 64, 81
1, 50639, Note_on_c, 4, 50, 0
1, 50639, Note_on_c, 5, 45, 0
1, 50639, Note_on_c, 6, 42, 0
1, 50639, Note_on_c, 7, 38, 0
1, 50640, Note_on_c, 0, 64, 0
1, 50640, Note_on_c, 0, 62, 81
1, 50759, Note_on_c, 0, 62, 0
1, 50821, Note_on_c, 0, 81, 81
1, 50839, Note_on_c, 0, 81, 0
1, 50840, Note_on_c, 0, 83, 81
1, 50859, Note_on_c, 0, 83, 0
1, 50860, Note_on_c, 0, 81, 81
1, 50879, Note_on_c, 0, 81, 0
1, 50880, Note_on_c, 0, 86, 81
1, 51029, Note_on_c, 0, 86, 0
1, 51030, Note_on_c, 0, 85, 81
1, 51059, Note_on_c, 0, 85, 0
1, 51061, Note_on_c, 0, 83, 81
1, 51075, Note_on_c, 0, 81, 81
1, 51076, Note_on_c, 0, 83, 0
1, 51090, Note_on_c, 0, 81, 0
1, 51090, Note_on_c, 0, 79, 81
1, 51105, Note_on_c, 0, 79, 0
1, 51105, Note_on_c, 0, 78, 81
1, 51120, Note_on_c, 0, 78, 0
1, 51120, Note_on_c, 0, 76, 81
1, 51121, Note_on_c, 1, 67, 84
1, 51121, Note_on_c, 2, 62, 84
1, 51269, Note_on_c, 0, 76, 0
1, 51270, Note_on_c, 0, 74, 81
1, 51299, Note_on_c, 0, 74, 0
1, 51300, Note_on_c, 0, 73, 81
1, 51329, Note_on_c, 0, 73, 0
1, 51330, Note_on_c, 0, 71, 81
1, 51345, Note_on_c, 0, 71, 0
1, 51345, Note_on_c, 0, 69, 81
1, 51359, Note_on_c, 0, 69, 0
1, 51359, Note_on_c, 1, 67, 0
1, 51360, Note_on_c, 0, 74, 63
1, 51360, Note_on_c, 1, 66, 62
1, 51479, Note_on_c, 0, 74, 0
1, 51479, Note_on_c, 1, 66, 0
1, 51479, Note_on_c, 2, 62, 0
1, 51571, Note_on_c, 0, 73, 31
1, 51599, Note_on_c, 0, 73, 0
1, 51600, Note_on_c, 0, 74, 31
1, 51629, Note_on_c, 0, 74, 0
1, 51630, Note_on_c, 0, 78, 31
1, 51659, Note_on_c, 0, 78, 0
1, 51660, Note_on_c, 0, 76, 31
1, 51689, Note_on_c, 0, 76, 0
1, 51690, Note_on_c, 0, 79, 31
1, 51719, Note_on_c, 0, 79, 0
1, 51720, Note_on_c, 0, 78, 31
1, 51749, Note_on_c, 0, 78, 0
1, 51750, Note_on_c, 0, 81, 31
1, 51779, Note_on_c, 0, 81, 0
1, 51780, Note_on_c, 0, 79, 31
1, 51809, Note_on_c, 0, 79, 0
1, 51810, Note_on_c, 0, 83, 31
1, 51839, Note_on_c, 0, 83, 0
1, 51840, Note_on_c, 0, 81, 31
1, 51841, Note_on_c, 1, 71, 25
1, 51899, Note_on_c, 0, 81, 0
1, 51900, Note_on_c, 0, 79, 31
1, 51959, Note_on_c, 0, 79, 0
1, 51959, Note_on_c, 1, 71, 0
1, 51960, Note_on_c, 1, 69, 25
1, 52021, Note_on_c, 0, 78, 31
1, 52079, Note_on_c, 0, 78, 0
1, 52079, Note_on_c, 1, 69, 0
1, 52080, Note_on_c, 1, 67, 25
1, 52141, Note_on_c, 0, 76, 31
1, 52199, Note_on_c, 0, 76, 0
1, 52199, Note_on_c, 1, 67, 0
1, 52200, Note_on_c, 1, 66, 25
1, 52261, Note_on_c, 0, 74, 31
1, 52319, Note_on_c, 0, 74, 0
1, 52319, Note_on_c, 1, 66, 0
1, 52320, Note_on_c, 1, 64, 25
1, 52381, Note_on_c, 0, 73, 31
1, 52439, Note_on_c, 0, 73, 0
1, 52439, Note_on_c, 1, 64, 0
1, 52440, Note_on_c, 1, 62, 25
1, 52501, Note_on_c, 0, 74, 31
1, 52559, Note_on_c, 0, 74, 0
1, 52559, Note_on_c, 1, 62, 0
1, 52560, Note_on_c, 0, 78, 31
1, 52561, Note_on_c, 4, 62, 23
1, 52561, Note_on_c, 5, 57, 23
1, 52579, Note_on_c, 0, 78, 0
1, 52580, Note_on_c, 0, 79, 31
1, 52599, Note_on_c, 0, 79, 0
1, 52600, Note_on_c, 0, 78, 31
1, 52619, Note_on_c, 0, 78, 0
1, 52620, Note_on_c, 0, 76, 31
1, 52639, Note_on_c, 0, 76, 0
1, 52640, Note_on_c, 0, 78, 31
1, 52659, Note_on_c, 0, 78, 0
1, 52660, Note_on_c, 0, 79, 31
1, 52679, Note_on_c, 0, 79, 0
1, 52680, Note_on_c, 0, 80, 31
1, 52769, Note_on_c, 0, 80, 0
1, 52770, Note_on_c, 0, 81, 31
1, 52799, Note_on_c, 0, 81, 0
1, 52799, Note_on_c, 4, 62, 0
1, 52800, Note_on_c, 0, 79, 19
1, 52800, Note_on_c, 4, 61, 12
1, 52814, Note_on_c, 0, 79, 0
1, 52816, Note_on_c, 0, 78, 21
1, 52831, Note_on_c, 0, 78, 0
1, 52832, Note_on_c, 0, 76, 21
1, 52845, Note_on_c, 0, 78, 19
1, 52847, Note_on_c, 0, 76, 0
1, 52859, Note_on_c, 0, 78, 0
1, 52860, Note_on_c, 0, 76, 19
1, 52889, Note_on_c, 0, 76, 0
1, 52919, Note_on_c, 4, 61, 0
1, 52919, Note_on_c, 5, 57, 0
1, 53221, Note_on_c, 0, 74, 47
1, 53239, Note_on_c, 0, 74, 0
1, 53240, Note_on_c, 0, 78, 47
1, 53259, Note_on_c, 0, 78, 0
1, 53260, Note_on_c, 0, 81, 47
1, 53279, Note_on_c, 0, 81, 0
1, 53280, Note_on_c, 0, 86, 81
1, 53281, Note_on_c, 4, 57, 76
1, 53281, Note_on_c, 5, 54, 76
1, 53281, Note_on_c, 6, 50, 76
1, 53339, Note_on_c, 0, 86, 0
1, 53340, Note_on_c, 0, 88, 81
1, 53359, Note_on_c, 0, 88, 0
1, 53360, Note_on_c, 0, 86, 81
1, 53379, Note_on_c, 0, 86, 0
1, 53380, Note_on_c, 0, 85, 81
1, 53399, Note_on_c, 0, 85, 0
1, 53400, Note_on_c, 0, 86, 81
1, 53489, Note_on_c, 0, 86, 0
1, 53490, Note_on_c, 0, 88, 81
1, 53519, Note_on_c, 0, 88, 0
1, 53519, Note_on_c, 4, 57, 0
1, 53519, Note_on_c, 5, 54, 0
1, 53519, Note_on_c, 6, 50, 0
1, 53520, Note_on_c, 0, 85, 81
1, 53520, Note_on_c, 4, 57, 76
1, 53520, Note_on_c, 5, 55, 76
1, 53520, Note_on_c, 6, 52, 76
1, 53521, Note_on_c, 1, 61, 84
1, 53579, Note_on_c, 0, 85, 0
1, 53759, Note_on_c, 1, 61, 0
1, 53759, Note_on_c, 4, 57, 0
1, 53759, Note_on_c, 5, 55, 0
1, 53759, Note_on_c, 6, 52, 0
1, 53760, Note_on_c, 4, 57, 76
1, 53819, Note_on_c, 4, 57, 0
1, 53820, Note_on_c, 4, 59, 76
1, 53839, Note_on_c, 4, 59, 0
1, 53840, Note_on_c, 4, 57, 76
1, 53859, Note_on_c, 4, 57, 0
1, 53860, Note_on_c, 4, 56, 76
1, 53879, Note_on_c, 4, 56, 0
1, 53880, Note_on_c, 4, 57, 76
1, 53969, Note_on_c, 4, 57, 0
1, 53970, Note_on_c, 4, 59, 76
1, 53999, Note_on_c, 4, 59, 0
1, 54000, Note_on_c, 4, 55, 76
1, 54001, Note_on_c, 0, 62, 81
1, 54001, Note_on_c, 5, 52, 76
1, 54119, Note_on_c, 0, 62, 0
1, 54120, Note_on_c, 0, 60, 81
1, 54239, Note_on_c, 0, 60, 0
1, 54239, Note_on_c, 4, 55, 0
1, 54239, Note_on_c, 5, 52, 0
1, 54240, Note_on_c, 0, 60, 81
1, 54240, Note_on_c, 4, 54, 76
1, 54240, Note_on_c, 5, 51, 76
1, 54329, Note_on_c, 0, 60, 0
1, 54330, Note_on_c, 0, 59, 81
1, 54359, Note_on_c, 0, 59, 0
1, 54360, Note_on_c, 0, 73, 31
1, 54479, Note_on_c, 4, 54, 0
1, 54479, Note_on_c, 5, 51, 0
1, 54480, Note_on_c, 4, 66, 23
1, 54480, Note_on_c, 5, 63, 23
1, 54539, Note_on_c, 0, 73, 0
1, 54540, Note_on_c, 0, 71, 31
1, 54599, Note_on_c, 0, 71, 0
1, 54600, Note_on_c, 0, 70, 31
1, 54659, Note_on_c, 0, 70, 0
1, 54660, Note_on_c, 0, 69, 31
1, 54719, Note_on_c, 0, 69, 0
1, 54719, Note_on_c, 4, 66, 0
1, 54719, Note_on_c, 5, 63, 0
1, 54720, Note_on_c, 0, 69, 31
1, 54720, Note_on_c, 4, 64, 23
1, 54779, Note_on_c, 0, 69, 0
1, 54780, Note_on_c, 0, 67, 31
1, 54839, Note_on_c, 4, 64, 0
1, 54840, Note_on_c, 4, 61, 23
1, 54899, Note_on_c, 0, 67, 0
1, 54900, Note_on_c, 0, 71, 31
1, 54929, Note_on_c, 0, 71, 0
1, 54930, Note_on_c, 0, 69, 31
1, 54959, Note_on_c, 0, 69, 0
1, 54959, Note_on_c, 4, 61, 0
1, 54960, Note_on_c, 0, 67, 31
1, 54960, Note_on_c, 4, 62, 23
1, 55019, Note_on_c, 0, 67, 0
1, 55020, Note_on_c, 0, 66, 31
1, 55079, Note_on_c, 4, 62, 0
1, 55080, Note_on_c, 4, 54, 23
1, 55139, Note_on_c, 0, 66, 0
1, 55140, Note_on_c, 0, 81, 31
1, 55141, Note_on_c, 1, 69, 25
1, 55199, Note_on_c, 4, 54, 0
1, 55200, Note_on_c, 4, 55, 23
1, 55259, Note_on_c, 0, 81, 0
1, 55259, Note_on_c, 1, 69, 0
1, 55260, Note_on_c, 0, 82, 31
1, 55260, Note_on_c, 1, 70, 25
1, 55319, Note_on_c, 4, 55, 0
1, 55320, Note_on_c, 4, 56, 23
1, 55379, Note_on_c, 0, 82, 0
1, 55379, Note_on_c, 1, 70, 0
1, 55380, Note_on_c, 0, 83, 31
1, 55380, Note_on_c, 1, 71, 25
1, 55439, Note_on_c, 0, 83, 0
1, 55439, Note_on_c, 1, 71, 0
1, 55439, Note_on_c, 4, 56, 0
1, 55440, Note_on_c, 0, 78, 31
1, 55440, Note_on_c, 1, 74, 25
1, 55440, Note_on_c, 4, 57, 23
1, 55441, Note_on_c, 2, 66, 25
1, 55619, Note_on_c, 2, 66, 0
1, 55620, Note_on_c, 2, 68, 25
1, 55679, Note_on_c, 0, 78, 0
1, 55679, Note_on_c, 1, 74, 0
1, 55679, Note_on_c, 2, 68, 0
1, 55680, Note_on_c, 0, 76, 31
1, 55680, Note_on_c, 1, 73, 25
1, 55680, Note_on_c, 2, 69, 25
1, 55919, Note_on_c, 0, 76, 0
1, 55919, Note_on_c, 1, 73, 0
1, 55919, Note_on_c, 2, 69, 0
1, 55919, Note_on_c, 4, 57, 0
1, 56101, Note_on_c, 4, 47, 76
1, 56119, Note_on_c, 4, 47, 0
1, 56120, Note_on_c, 4, 51, 76
1, 56139, Note_on_c, 4, 51, 0
1, 56140, Note_on_c, 4, 54, 76
1, 56159, Note_on_c, 4, 54, 0
1, 56160, Note_on_c, 4, 59, 76
1, 56339, Note_on_c, 4, 59, 0
1, 56340, Note_on_c, 4, 59, 76
1, 56399, Note_on_c, 4, 59, 0
1, 56400, Note_on_c, 4, 59, 76
1, 56521, Note_on_c, 0, 84, 31
1, 56579, Note_on_c, 0, 84, 0
1, 56580, Note_on_c, 0, 81, 31
1, 56639, Note_on_c, 0, 81, 0
1, 56639, Note_on_c, 4, 59, 0
1, 56640, Note_on_c, 0, 83, 31
1, 56699, Note_on_c, 0, 83, 0
1, 56700, Note_on_c, 0, 79, 31
1, 56759, Note_on_c, 0, 79, 0
1, 56760, Note_on_c, 0, 81, 31
1, 56819, Note_on_c, 0, 81, 0
1, 56820, Note_on_c, 0, 78, 31
1, 56821, Note_on_c, 1, 63, 41
1, 56849, Note_on_c, 1, 63, 0
1, 56879, Note_on_c, 0, 78, 0
1, 56880, Note_on_c, 0, 79, 31
1, 56881, Note_on_c, 1, 64, 41
1, 56939, Note_on_c, 1, 64, 0
1, 56940, Note_on_c, 1, 67, 41
1, 56999, Note_on_c, 0, 79, 0
1, 56999, Note_on_c, 1, 67, 0
1, 57000, Note_on_c, 1, 66, 41
1, 57059, Note_on_c, 1, 66, 0
1, 57060, Note_on_c, 1, 69, 41
1, 57119, Note_on_c, 1, 69, 0
1, 57120, Note_on_c, 1, 67, 41
1, 57239, Note_on_c, 1, 67, 0
1, 57241, Note_on_c, 0, 84, 31
1, 57279, Note_on_c, 0, 84, 0
1, 57280, Note_on_c, 0, 83, 31
1, 57319, Note_on_c, 0, 83, 0
1, 57320, Note_on_c, 0, 79, 31
1, 57359, Note_on_c, 0, 79, 0
1, 57360, Note_on_c, 0, 83, 31
1, 57399, Note_on_c, 0, 83, 0
1, 57400, Note_on_c, 0, 81, 31
1, 57439, Note_on_c, 0, 81, 0
1, 57440, Note_on_c, 0, 78, 31
1, 57479, Note_on_c, 0, 78, 0
1, 57480, Note_on_c, 0, 81, 31
1, 57519, Note_on_c, 0, 81, 0
1, 57520, Note_on_c, 0, 79, 31
1, 57541, Note_on_c, 1, 61, 41
1, 57559, Note_on_c, 0, 79, 0
1, 57560, Note_on_c, 0, 76, 31
1, 57569, Note_on_c, 1, 61, 0
1, 57599, Note_on_c, 0, 76, 0
1, 57600, Note_on_c, 0, 78, 31
1, 57601, Note_on_c, 1, 61, 41
1, 57639, Note_on_c, 1, 61, 0
1, 57640, Note_on_c, 1, 62, 41
1, 57679, Note_on_c, 1, 62, 0
1, 57680, Note_on_c, 1, 66, 41
1, 57719, Note_on_c, 0, 78, 0
1, 57719, Note_on_c, 1, 66, 0
1, 57720, Note_on_c, 1, 63, 41
1, 57759, Note_on_c, 1, 63, 0
1, 57760, Note_on_c, 1, 64, 41
1, 57799, Note_on_c, 1, 64, 0
1, 57800, Note_on_c, 1, 67, 41
1, 57839, Note_on_c, 1, 67, 0
1, 57840, Note_on_c, 1, 66, 41
1, 57881, Note_on_c, 0, 86, 31
1, 57919, Note_on_c, 0, 86, 0
1, 57920, Note_on_c, 0, 85, 31
1, 57959, Note_on_c, 0, 85, 0
1, 57959, Note_on_c, 1, 66, 0
1, 57960, Note_on_c, 0, 84, 47
1, 57999, Note_on_c, 0, 84, 0
1, 58000, Note_on_c, 0, 83, 47
1, 58039, Note_on_c, 0, 83, 0
1, 58040, Note_on_c, 0, 82, 47
1, 58079, Note_on_c, 0, 82, 0
1, 58080, Note_on_c, 0, 81, 47
1, 58119, Note_on_c, 0, 81, 0
1, 58120, Note_on_c, 0, 80, 47
1, 58159, Note_on_c, 0, 80, 0
1, 58160, Note_on_c, 0, 79, 47
1, 58199, Note_on_c, 0, 79, 0
1, 58200, Note_on_c, 0, 78, 63
1, 58239, Note_on_c, 0, 78, 0
1, 58240, Note_on_c, 0, 77, 63
1, 58279, Note_on_c, 0, 77, 0
1, 58280, Note_on_c, 0, 76, 63
1, 58319, Note_on_c, 0, 76, 0
1, 58320, Note_on_c, 0, 74, 63
1, 58321, Note_on_c, 1, 66, 62
1, 58559, Note_on_c, 0, 74, 0
1, 58559, Note_on_c, 1, 66, 0
1, 58560, Note_on_c, 0, 73, 31
1, 58560, Note_on_c, 1, 64, 25
1, 58679, Note_on_c, 0, 73, 0
1, 58679, Note_on_c, 1, 64, 0
1, 58680, Note_on_c, 1, 71, 25
1, 58799, Note_on_c, 1, 71, 0
1, 58800, Note_on_c, 1, 69, 25
1, 58919, Note_on_c, 1, 69, 0
1, 58920, Note_on_c, 1, 67, 25
1, 58981, Note_on_c, 0, 69, 31
1, 59039, Note_on_c, 0, 69, 0
1, 59039, Note_on_c, 1, 67, 0
1, 59040, Note_on_c, 0, 74, 31
1, 59040, Note_on_c, 1, 66, 25
1, 59041, Note_on_c, 2, 62, 25
1, 59159, Note_on_c, 1, 66, 0
1, 59159, Note_on_c, 2, 62, 0
1, 59219, Note_on_c, 0, 74, 0
1, 59220, Note_on_c, 0, 74, 31
1, 59279, Note_on_c, 0, 74, 0
1, 59280, Note_on_c, 0, 74, 31
1, 59281, Note_on_c, 1, 66, 25
1, 59281, Note_on_c, 2, 62, 25
1, 59399, Note_on_c, 0, 74, 0
1, 59399, Note_on_c, 1, 66, 0
1, 59399, Note_on_c, 2, 62, 0
1, 59641, Note_on_c, 0, 69, 31
1, 59679, Note_on_c, 0, 69, 0
1, 59680, Note_on_c, 0, 74, 31
1, 59719, Note_on_c, 0, 74, 0
1, 59720, Note_on_c, 0, 78, 31
1, 59759, Note_on_c, 0, 78, 0
1, 59760, Note_on_c, 0, 78, 31
1, 59761, Note_on_c, 1, 67, 25
1, 59761, Note_on_c, 2, 62, 25
1, 59819, Note_on_c, 0, 78, 0
1, 59820, Note_on_c, 0, 76, 31
1, 59879, Note_on_c, 0, 76, 0
1, 59880, Note_on_c, 0, 83, 31
1, 59939, Note_on_c, 0, 83, 0
1, 59940, Note_on_c, 0, 73, 31
1, 59999, Note_on_c, 0, 73, 0
1, 59999, Note_on_c, 1, 67, 0
1, 60000, Note_on_c, 0, 76, 31
1, 60000, Note_on_c, 1, 66, 25
1, 60059, Note_on_c, 0, 76, 0
1, 60060, Note_on_c, 0, 74, 31
1, 60119, Note_on_c, 0, 74, 0
1, 60119, Note_on_c, 1, 66, 0
1, 60119, Note_on_c, 2, 62, 0
1, 60120, Note_on_c, 0, 86, 31
1, 60299, Note_on_c, 0, 86, 0
1, 60300, Note_on_c, 0, 85, 31
1, 60329, Note_on_c, 0, 85, 0
1, 60330, Note_on_c, 0, 86, 31
1, 60359, Note_on_c, 0, 86, 0
1, 60360, Note_on_c, 0, 88, 31
1, 60389, Note_on_c, 0, 88, 0
1, 60390, Note_on_c, 0, 86, 31
1, 60419, Note_on_c, 0, 86, 0
1, 60420, Note_on_c, 0, 85, 31
1, 60449, Note_on_c, 0, 85, 0
1, 60450, Note_on_c, 0, 83, 31
1, 60479, Note_on_c, 0, 83, 0
1, 60480, Note_on_c, 0, 81, 31
1, 60481, Note_on_c, 1, 74, 25
1, 60539, Note_on_c, 0, 81, 0
1, 60540, Note_on_c, 0, 79, 31
1, 60569, Note_on_c, 0, 79, 0
1, 60570, Note_on_c, 0, 81, 31
1, 60599, Note_on_c, 0, 81, 0
1, 60599, Note_on_c, 1, 74, 0
1, 60600, Note_on_c, 0, 83, 31
1, 60629, Note_on_c, 0, 83, 0
1, 60630, Note_on_c, 0, 81, 31
1, 60659, Note_on_c, 0, 81, 0
1, 60660, Note_on_c, 0, 79, 31
1, 60661, Note_on_c, 1, 73, 25
1, 60689, Note_on_c, 0, 79, 0
1, 60689, Note_on_c, 1, 73, 0
1, 60690, Note_on_c, 0, 78, 31
1, 60719, Note_on_c, 0, 78, 0
1, 60720, Note_on_c, 0, 76, 31
1, 60721, Note_on_c, 1, 71, 25
1, 60779, Note_on_c, 0, 76, 0
1, 60779, Note_on_c, 1, 71, 0
1, 60780, Note_on_c, 0, 76, 31
1, 60809, Note_on_c, 0, 76, 0
1, 60810, Note_on_c, 0, 78, 31
1, 60839, Note_on_c, 0, 78, 0
1, 60840, Note_on_c, 0, 79, 31
1, 60841, Note_on_c, 1, 69, 25
1, 60869, Note_on_c, 0, 79, 0
1, 60869, Note_on_c, 1, 69, 0
1, 60870, Note_on_c, 0, 78, 31
1, 60899, Note_on_c, 0, 78, 0
1, 60900, Note_on_c, 0, 76, 31
1, 60929, Note_on_c, 0, 76, 0
1, 60930, Note_on_c, 0, 74, 31
1, 60959, Note_on_c, 0, 74, 0
1, 60960, Note_on_c, 0, 73, 31
1, 60961, Note_on_c, 1, 67, 25
1, 60989, Note_on_c, 0, 73, 0
1, 60989, Note_on_c, 1, 67, 0
1, 61081, Note_on_c, 0, 74, 31
1, 61081, Note_on_c, 1, 66, 25
1, 61109, Note_on_c, 0, 74, 0
1, 61109, Note_on_c, 1, 66, 0
1, 61201, Note_on_c, 0, 78, 31
1, 61201, Note_on_c, 4, 62, 23
1, 61201, Note_on_c, 5, 57, 37
1, 61439, Note_on_c, 0, 78, 0
1, 61439, Note_on_c, 4, 62, 0
1, 61440, Note_on_c, 0, 76, 31
1, 61440, Note_on_c, 4, 61, 23
1, 61559, Note_on_c, 0, 76, 0
1, 61559, Note_on_c, 4, 61, 0
1, 61559, Note_on_c, 5, 57, 0
1, 61861, Note_on_c, 0, 74, 47
1, 61879, Note_on_c, 0, 74, 0
1, 61880, Note_on_c, 0, 78, 47
1, 61899, Note_on_c, 0, 78, 0
1, 61900, Note_on_c, 0, 81, 47
1, 61919, Note_on_c, 0, 81, 0
1, 61920, Note_on_c, 0, 86, 81
1, 61921, Note_on_c, 4, 57, 76
1, 61921, Note_on_c, 5, 54, 76
1, 61921, Note_on_c, 6, 50, 76
1, 61979, Note_on_c, 0, 86, 0
1, 61980, Note_on_c, 0, 88, 81
1, 61999, Note_on_c, 0, 88, 0
1, 62000, Note_on_c, 0, 86, 81
1, 62019, Note_on_c, 0, 86, 0
1, 62020, Note_on_c, 0, 85, 81
1, 62039, Note_on_c, 0, 85, 0
1, 62040, Note_on_c, 0, 86, 81
1, 62129, Note_on_c, 0, 86, 0
1, 62130, Note_on_c, 0, 88, 81
1, 62159, Note_on_c, 0, 88, 0
1, 62159, Note_on_c, 4, 57, 0
1, 62159, Note_on_c, 5, 54, 0
1, 62159, Note_on_c, 6, 50, 0
1, 62160, Note_on_c, 0, 85, 81
1, 62160, Note_on_c, 4, 57, 76
1, 62160, Note_on_c, 5, 55, 76
1, 62160, Note_on_c, 6, 52, 76
1, 62161, Note_on_c, 1, 61, 84
1, 62219, Note_on_c, 0, 85, 0
1, 62399, Note_on_c, 1, 61, 0
1, 62399, Note_on_c, 4, 57, 0
1, 62399, Note_on_c, 5, 55, 0
1, 62399, Note_on_c, 6, 52, 0
1, 62401, Note_on_c, 0, 69, 81
1, 62429, Note_on_c, 0, 69, 0
1, 62430, Note_on_c, 0, 71, 81
1, 62459, Note_on_c, 0, 71, 0
1, 62460, Note_on_c, 0, 73, 81
1, 62489, Note_on_c, 0, 73, 0
1, 62490, Note_on_c, 0, 74, 81
1, 62519, Note_on_c, 0, 74, 0
1, 62520, Note_on_c, 0, 76, 81
1, 62549, Note_on_c, 0, 76, 0
1, 62550, Note_on_c, 0, 78, 81
1, 62579, Note_on_c, 0, 78, 0
1, 62580, Note_on_c, 0, 79, 81
1, 62609, Note_on_c, 0, 79, 0
1, 62610, Note_on_c, 0, 83, 81
1, 62639, Note_on_c, 0, 83, 0
1, 62640, Note_on_c, 0, 85, 105
1, 62641, Note_on_c, 1, 61, 107
1, 62641, Note_on_c, 4, 55, 76
1, 62641, Note_on_c, 5, 52, 76
1, 62699, Note_on_c, 0, 85, 0
1, 62700, Note_on_c, 0, 86, 105
1, 62719, Note_on_c, 0, 86, 0
1, 62720, Note_on_c, 0, 85, 105
1, 62739, Note_on_c, 0, 85, 0
1, 62740, Note_on_c, 0, 83, 105
1, 62759, Note_on_c, 0, 83, 0
1, 62760, Note_on_c, 0, 85, 105
1, 62849, Note_on_c, 0, 85, 0
1, 62850, Note_on_c, 0, 86, 105
1, 62879, Note_on_c, 0, 86, 0
1, 62879, Note_on_c, 1, 61, 0
1, 62879, Note_on_c, 4, 55, 0
1, 62879, Note_on_c, 5, 52, 0
1, 62880, Note_on_c, 0, 84, 105
1, 62880, Note_on_c, 1, 63, 107
1, 62880, Note_on_c, 4, 60, 76
1, 62880, Note_on_c, 5, 57, 76
1, 62939, Note_on_c, 0, 84, 0
1, 62940, Note_on_c, 0, 86, 105
1, 62959, Note_on_c, 0, 86, 0
1, 62960, Note_on_c, 0, 84, 105
1, 62979, Note_on_c, 0, 84, 0
1, 62980, Note_on_c, 0, 83, 105
1, 62999, Note_on_c, 0, 83, 0
1, 63000, Note_on_c, 0, 84, 105
1, 63089, Note_on_c, 0, 84, 0
1, 63090, Note_on_c, 0, 86, 105
1, 63119, Note_on_c, 0, 86, 0
1, 63119, Note_on_c, 1, 63, 0
1, 63119, Note_on_c, 4, 60, 0
1, 63119, Note_on_c, 5, 57, 0
1, 63120, Note_on_c, 0, 83, 105
1, 63120, Note_on_c, 1, 64, 107
1, 63120, Note_on_c, 4, 59, 76
1, 63120, Note_on_c, 5, 59, 76
1, 63239, Note_on_c, 0, 83, 0
1, 63240, Note_on_c, 0, 81, 105
1, 63269, Note_on_c, 0, 81, 0
1, 63270, Note_on_c, 0, 79, 105
1, 63299, Note_on_c, 0, 79, 0
1, 63300, Note_on_c, 0, 78, 105
1, 63329, Note_on_c, 0, 78, 0
1, 63330, Note_on_c, 0, 76, 105
1, 63359, Note_on_c, 0, 76, 0
1, 63359, Note_on_c, 1, 64, 0
1, 63359, Note_on_c, 4, 59, 0
1, 63359, Note_on_c, 5, 59, 0
1, 63360, Note_on_c, 0, 81, 105
1, 63360, Note_on_c, 1, 66, 107
1, 63360, Note_on_c, 4, 62, 76
1, 63360, Note_on_c, 5, 57, 76
1, 63719, Note_on_c, 0, 81, 0
1, 63720, Note_on_c, 0, 79, 81
1, 63749, Note_on_c, 0, 79, 0
1, 63750, Note_on_c, 0, 78, 81
1, 63779, Note_on_c, 0, 78, 0
1, 63780, Note_on_c, 0, 76, 63
1, 63809, Note_on_c, 0, 76, 0
1, 63810, Note_on_c, 0, 74, 63
1, 63839, Note_on_c, 0, 74, 0
1, 63839, Note_on_c, 1, 66, 0
1, 63839, Note_on_c, 4, 62, 0
1, 63839, Note_on_c, 5, 57, 0
1, 63840, Note_on_c, 0, 73, 47
1, 63840, Note_on_c, 1, 67, 41
1, 63840, Note_on_c, 4, 64, 23
1, 63840, Note_on_c, 5, 57, 23
1, 63959, Note_on_c, 0, 73, 0
1, 63959, Note_on_c, 1, 67, 0
1, 63959, Note_on_c, 4, 64, 0
1, 63959, Note_on_c, 5, 57, 0
1, 63960, Note_on_c, 0, 76, 31
1, 63960, Note_on_c, 1, 67, 25
1, 64079, Note_on_c, 0, 76, 0
1, 64079, Note_on_c, 1, 67, 0
1, 64080, Note_on_c, 0, 74, 19
1, 64080, Note_on_c, 1, 66, 25
1, 64081, Note_on_c, 4, 50, 23
1, 64199, Note_on_c, 0, 74, 0
1, 64199, Note_on_c, 1, 66, 0
1, 64199, Note_on_c, 4, 50, 0
1, 64321, Note_on_c, 4, 62, 23
1, 64439, Note_on_c, 4, 62, 0
1, 64711, Note_on_c, 4, 47, 56
1, 64729, Note_on_c, 4, 47, 0
1, 64730, Note_on_c, 4, 51, 56
1, 64749, Note_on_c, 4, 51, 0
1, 64750, Note_on_c, 4, 54, 56
1, 64769, Note_on_c, 4, 54, 0
1, 64801, Note_on_c, 4, 59, 56
1, 64829, Note_on_c, 4, 59, 0
1, 64831, Note_on_c, 0, 71, 81
1, 64859, Note_on_c, 0, 71, 0
1, 64860, Note_on_c, 0, 75, 81
1, 64889, Note_on_c, 0, 75, 0
1, 64890, Note_on_c, 0, 78, 81
1, 64919, Note_on_c, 0, 78, 0
1, 64920, Note_on_c, 0, 83, 81
1, 64949, Note_on_c, 0, 83, 0
1, 64950, Note_on_c, 0, 59, 81
1, 64979, Note_on_c, 0, 59, 0
1, 64980, Note_on_c, 0, 63, 81
1, 65009, Note_on_c, 0, 63, 0
1, 65010, Note_on_c, 0, 66, 81
1, 65039, Note_on_c, 0, 66, 0
1, 65040, Note_on_c, 0, 69, 81
1, 65069, Note_on_c, 0, 69, 0
1, 65070, Note_on_c, 0, 71, 81
1, 65099, Note_on_c, 0, 71, 0
1, 65100, Note_on_c, 0, 75, 81
1, 65129, Note_on_c, 0, 75, 0
1, 65130, Note_on_c, 0, 78, 81
1, 65159, Note_on_c, 0, 78, 0
1, 65160, Note_on_c, 0, 81, 81
1, 65189, Note_on_c, 0, 81, 0
1, 65190, Note_on_c, 0, 63, 81
1, 65219, Note_on_c, 0, 63, 0
1, 65220, Note_on_c, 0, 66, 81
1, 65249, Note_on_c, 0, 66, 0
1, 65250, Note_on_c, 0, 69, 81
1, 65279, Note_on_c, 0, 69, 0
1, 65280, Note_on_c, 0, 72, 81
1, 65309, Note_on_c, 0, 72, 0
1, 65310, Note_on_c, 0, 75, 81
1, 65339, Note_on_c, 0, 75, 0
1, 65340, Note_on_c, 0, 78, 81
1, 65369, Note_on_c, 0, 78, 0
1, 65370, Note_on_c, 0, 81, 81
1, 65399, Note_on_c, 0, 81, 0
1, 65400, Note_on_c, 0, 84, 63
1, 65429, Note_on_c, 0, 84, 0
1, 65430, Note_on_c, 0, 81, 63
1, 65459, Note_on_c, 0, 81, 0
1, 65460, Note_on_c, 0, 79, 63
1, 65489, Note_on_c, 0, 79, 0
1, 65490, Note_on_c, 0, 78, 47
1, 65519, Note_on_c, 0, 78, 0
1, 65520, Note_on_c, 0, 79, 47
1, 65549, Note_on_c, 0, 79, 0
1, 65550, Note_on_c, 0, 64, 31
1, 65579, Note_on_c, 0, 64, 0
1, 65580, Note_on_c, 0, 67, 31
1, 65609, Note_on_c, 0, 67, 0
1, 65610, Note_on_c, 0, 71, 31
1, 65639, Note_on_c, 0, 71, 0
1, 65640, Note_on_c, 0, 76, 31
1, 65669, Note_on_c, 0, 76, 0
1, 65670, Note_on_c, 0, 79, 31
1, 65699, Note_on_c, 0, 79, 0
1, 65700, Note_on_c, 0, 83, 31
1, 65729, Note_on_c, 0, 83, 0
1, 65730, Note_on_c, 0, 87, 31
1, 65759, Note_on_c, 0, 87, 0
1, 65760, Note_on_c, 0, 88, 31
1, 65789, Note_on_c, 0, 88, 0
1, 65790, Note_on_c, 0, 83, 31
1, 65819, Note_on_c, 0, 83, 0
1, 65820, Note_on_c, 0, 84, 31
1, 65849, Note_on_c, 0, 84, 0
1, 65850, Note_on_c, 0, 81, 31
1, 65879, Note_on_c, 0, 81, 0
1, 65880, Note_on_c, 0, 83, 31
1, 65909, Note_on_c, 0, 83, 0
1, 65910, Note_on_c, 0, 79, 31
1, 65939, Note_on_c, 0, 79, 0
1, 65940, Note_on_c, 0, 81, 31
1, 65969, Note_on_c, 0, 81, 0
1, 65970, Note_on_c, 0, 78, 31
1, 65999, Note_on_c, 0, 78, 0
1, 66000, Note_on_c, 0, 79, 47
1, 66029, Note_on_c, 0, 79, 0
1, 66030, Note_on_c, 0, 81, 47
1, 66059, Note_on_c, 0, 81, 0
1, 66060, Note_on_c, 0, 83, 47
1, 66089, Note_on_c, 0, 83, 0
1, 66090, Note_on_c, 0, 81, 47
1, 66119, Note_on_c, 0, 81, 0
1, 66120, Note_on_c, 0, 79, 63
1, 66149, Note_on_c, 0, 79, 0
1, 66150, Note_on_c, 0, 78, 63
1, 66179, Note_on_c, 0, 78, 0
1, 66180, Note_on_c, 0, 76, 63
1, 66209, Note_on_c, 0, 76, 0
1, 66210, Note_on_c, 0, 74, 63
1, 66239, Note_on_c, 0, 74, 0
1, 66240, Note_on_c, 0, 73, 81
1, 66269, Note_on_c, 0, 73, 0
1, 66271, Note_on_c, 4, 57, 76
1, 66299, Note_on_c, 4, 57, 0
1, 66300, Note_on_c, 4, 61, 76
1, 66329, Note_on_c, 4, 61, 0
1, 66331, Note_on_c, 0, 64, 81
1, 66359, Note_on_c, 0, 64, 0
1, 66360, Note_on_c, 0, 67, 81
1, 66389, Note_on_c, 0, 67, 0
1, 66390, Note_on_c, 0, 69, 81
1, 66419, Note_on_c, 0, 69, 0
1, 66420, Note_on_c, 0, 73, 81
1, 66449, Note_on_c, 0, 73, 0
1, 66450, Note_on_c, 0, 76, 81
1, 66479, Note_on_c, 0, 76, 0
1, 66480, Note_on_c, 0, 79, 81
1, 66509, Note_on_c, 0, 79, 0
1, 66511, Note_on_c, 4, 57, 76
1, 66539, Note_on_c, 4, 57, 0
1, 66540, Note_on_c, 4, 61, 76
1, 66569, Note_on_c, 4, 61, 0
1, 66571, Note_on_c, 0, 62, 81
1, 66599, Note_on_c, 0, 62, 0
1, 66600, Note_on_c, 0, 66, 81
1, 66629, Note_on_c, 0, 66, 0
1, 66630, Note_on_c, 0, 69, 81
1, 66659, Note_on_c, 0, 69, 0
1, 66660, Note_on_c, 0, 74, 81
1, 66689, Note_on_c, 0, 74, 0
1, 66690, Note_on_c, 0, 78, 81
1, 66719, Note_on_c, 0, 78, 0
1, 66720, Note_on_c, 0, 81, 81
1, 66749, Note_on_c, 0, 81, 0
1, 66750, Note_on_c, 0, 74, 81
1, 66779, Note_on_c, 0, 74, 0
1, 66780, Note_on_c, 0, 78, 81
1, 66809, Note_on_c, 0, 78, 0
1, 66810, Note_on_c, 0, 81, 81
1, 66839, Note_on_c, 0, 81, 0
1, 66840, Note_on_c, 0, 86, 81
1, 66929, Note_on_c, 0, 86, 0
1, 66930, Note_on_c, 0, 78, 81
1, 66959, Note_on_c, 0, 78, 0
1, 66960, Note_on_c, 0, 79, 63
1, 66961, Note_on_c, 4, 62, 56
1, 66961, Note_on_c, 5, 57, 37
1, 66979, Note_on_c, 0, 79, 0
1, 66980, Note_on_c, 0, 78, 63
1, 66999, Note_on_c, 0, 78, 0
1, 67000, Note_on_c, 0, 79, 63
1, 67019, Note_on_c, 0, 79, 0
1, 67020, Note_on_c, 0, 78, 63
1, 67039, Note_on_c, 0, 78, 0
1, 67040, Note_on_c, 0, 79, 63
1, 67059, Note_on_c, 0, 79, 0
1, 67060, Note_on_c, 0, 78, 63
1, 67079, Note_on_c, 0, 78, 0
1, 67080, Note_on_c, 0, 76, 47
1, 67139, Note_on_c, 0, 76, 0
1, 67140, Note_on_c, 0, 78, 47
1, 67199, Note_on_c, 0, 78, 0
1, 67199, Note_on_c, 4, 62, 0
1, 67200, Note_on_c, 0, 76, 31
1, 67200, Note_on_c, 4, 61, 23
1, 67439, Note_on_c, 0, 76, 0
1, 67439, Note_on_c, 4, 61, 0
1, 67439, Note_on_c, 5, 57, 0
1, 67621, Note_on_c, 0, 69, 47
1, 67679, Note_on_c, 0, 69, 0
1, 67680, Note_on_c, 0, 74, 47
1, 67681, Note_on_c, 4, 66, 23
1, 67681, Note_on_c, 5, 62, 37
1, 67799, Note_on_c, 4, 66, 0
1, 67799, Note_on_c, 5, 62, 0
1, 67859, Note_on_c, 0, 74, 0
1, 67860, Note_on_c, 0, 74, 47
1, 67919, Note_on_c, 0, 74, 0
1, 67920, Note_on_c, 0, 74, 47
1, 67921, Note_on_c, 4, 66, 23
1, 67921, Note_on_c, 5, 62, 37
1, 67949, Note_on_c, 0, 74, 0
1, 67950, Note_on_c, 0, 78, 47
1, 67979, Note_on_c, 0, 78, 0
1, 67980, Note_on_c, 0, 76, 47
1, 68009, Note_on_c, 0, 76, 0
1, 68010, Note_on_c, 0, 79, 47
1, 68039, Note_on_c, 0, 79, 0
1, 68039, Note_on_c, 4, 66, 0
1, 68039, Note_on_c, 5, 62, 0
1, 68040, Note_on_c, 0, 78, 47
1, 68069, Note_on_c, 0, 78, 0
1, 68070, Note_on_c, 0, 81, 47
1, 68099, Note_on_c, 0, 81, 0
1, 68100, Note_on_c, 0, 79, 47
1, 68129, Note_on_c, 0, 79, 0
1, 68130, Note_on_c, 0, 83, 47
1, 68159, Note_on_c, 0, 83, 0
1, 68160, Note_on_c, 0, 81, 63
1, 68189, Note_on_c, 0, 81, 0
1, 68221, Note_on_c, 0, 83, 63
1, 68249, Note_on_c, 0, 83, 0
1, 68281, Note_on_c, 0, 85, 63
1, 68309, Note_on_c, 0, 85, 0
1, 68341, Note_on_c, 0, 86, 63
1, 68369, Note_on_c, 0, 86, 0
1, 68401, Note_on_c, 0, 88, 81
1, 68401, Note_on_c, 1, 67, 84
1, 68401, Note_on_c, 4, 62, 56
1, 68429, Note_on_c, 0, 88, 0
1, 68461, Note_on_c, 0, 76, 81
1, 68549, Note_on_c, 0, 76, 0
1, 68550, Note_on_c, 0, 79, 47
1, 68579, Note_on_c, 0, 79, 0
1, 68580, Note_on_c, 0, 76, 47
1, 68609, Note_on_c, 0, 76, 0
1, 68610, Note_on_c, 0, 73, 47
1, 68639, Note_on_c, 0, 73, 0
1, 68639, Note_on_c, 1, 67, 0
1, 68640, Note_on_c, 0, 74, 47
1, 68640, Note_on_c, 1, 66, 41
1, 68759, Note_on_c, 0, 74, 0
1, 68759, Note_on_c, 1, 66, 0
1, 68759, Note_on_c, 4, 62, 0
1, 68881, Note_on_c, 0, 62, 47
1, 68899, Note_on_c, 0, 62, 0
1, 68900, Note_on_c, 0, 64, 47
1, 68919, Note_on_c, 0, 64, 0
1, 68920, Note_on_c, 0, 66, 47
1, 68939, Note_on_c, 0, 66, 0
1, 68940, Note_on_c, 0, 67, 47
1, 68959, Note_on_c, 0, 67, 0
1, 68960, Note_on_c, 0, 69, 47
1, 68979, Note_on_c, 0, 69, 0
1, 68980, Note_on_c, 0, 71, 47
1, 68999, Note_on_c, 0, 71, 0
1, 69000, Note_on_c, 0, 73, 47
1, 69019, Note_on_c, 0, 73, 0
1, 69020, Note_on_c, 0, 74, 47
1, 69039, Note_on_c, 0, 74, 0
1, 69040, Note_on_c, 0, 76, 63
1, 69059, Note_on_c, 0, 76, 0
1, 69060, Note_on_c, 0, 78, 63
1, 69079, Note_on_c, 0, 78, 0
1, 69080, Note_on_c, 0, 79, 63
1, 69099, Note_on_c, 0, 79, 0
1, 69100, Note_on_c, 0, 81, 63
1, 69119, Note_on_c, 0, 81, 0
1, 69120, Note_on_c, 0, 79, 81
1, 69121, Note_on_c, 1, 74, 62
1, 69121, Note_on_c, 2, 71, 62
1, 69179, Note_on_c, 0, 79, 0
1, 69180, Note_on_c, 0, 79, 81
1, 69209, Note_on_c, 0, 79, 0
1, 69210, Note_on_c, 0, 83, 81
1, 69239, Note_on_c, 0, 83, 0
1, 69239, Note_on_c, 1, 74, 0
1, 69239, Note_on_c, 2, 71, 0
1, 69240, Note_on_c, 0, 86, 63
1, 69269, Note_on_c, 0, 86, 0
1, 69270, Note_on_c, 0, 83, 63
1, 69299, Note_on_c, 0, 83, 0
1, 69300, Note_on_c, 0, 79, 63
1, 69301, Note_on_c, 1, 73, 62
1, 69301, Note_on_c, 2, 69, 62
1, 69329, Note_on_c, 0, 79, 0
1, 69329, Note_on_c, 1, 73, 0
1, 69329, Note_on_c, 2, 69, 0
1, 69330, Note_on_c, 0, 78, 63
1, 69359, Note_on_c, 0, 78, 0
1, 69360, Note_on_c, 0, 76, 47
1, 69361, Note_on_c, 1, 71, 62
1, 69361, Note_on_c, 2, 67, 62
1, 69419, Note_on_c, 0, 76, 0
1, 69420, Note_on_c, 0, 76, 47
1, 69449, Note_on_c, 0, 76, 0
1, 69450, Note_on_c, 0, 79, 47
1, 69479, Note_on_c, 0, 79, 0
1, 69479, Note_on_c, 1, 71, 0
1, 69479, Note_on_c, 2, 67, 0
1, 69480, Note_on_c, 0, 83, 63
1, 69509, Note_on_c, 0, 83, 0
1, 69510, Note_on_c, 0, 79, 63
1, 69539, Note_on_c, 0, 79, 0
1, 69540, Note_on_c, 0, 76, 63
1, 69541, Note_on_c, 1, 69, 62
1, 69541, Note_on_c, 2, 66, 62
1, 69569, Note_on_c, 0, 76, 0
1, 69569, Note_on_c, 1, 69, 0
1, 69569, Note_on_c, 2, 66, 0
1, 69570, Note_on_c, 0, 74, 47
1, 69599, Note_on_c, 0, 74, 0
1, 69600, Note_on_c, 0, 72, 47
1, 69601, Note_on_c, 1, 67, 62
1, 69601, Note_on_c, 2, 64, 62
1, 69629, Note_on_c, 0, 72, 0
1, 69629, Note_on_c, 1, 67, 0
1, 69629, Note_on_c, 2, 64, 0
1, 69721, Note_on_c, 0, 74, 63
1, 69721, Note_on_c, 1, 66, 62
1, 69721, Note_on_c, 2, 62, 62
1, 69749, Note_on_c, 0, 74, 0
1, 69749, Note_on_c, 1, 66, 0
1, 69749, Note_on_c, 2, 62, 0
1, 69841, Note_on_c, 0, 78, 63
1, 69841, Note_on_c, 1, 74, 62
1, 69841, Note_on_c, 4, 57, 56
1, 69869, Note_on_c, 4, 57, 0
1, 69870, Note_on_c, 4, 59, 56
1, 69899, Note_on_c, 4, 59, 0
1, 69901, Note_on_c, 2, 61, 84
1, 69929, Note_on_c, 2, 61, 0
1, 69930, Note_on_c, 2, 62, 84
1, 69959, Note_on_c, 2, 62, 0
1, 69960, Note_on_c, 2, 64, 84
1, 69989, Note_on_c, 2, 64, 0
1, 69990, Note_on_c, 2, 66, 84
1, 70019, Note_on_c, 2, 66, 0
1, 70020, Note_on_c, 2, 68, 84
1, 70049, Note_on_c, 2, 68, 0
1, 70050, Note_on_c, 2, 69, 84
1, 70079, Note_on_c, 2, 69, 0
1, 70080, Note_on_c, 2, 68, 62
1, 70109, Note_on_c, 2, 68, 0
1, 70110, Note_on_c, 2, 69, 62
1, 70139, Note_on_c, 2, 69, 0
1, 70140, Note_on_c, 2, 68, 62
1, 70169, Note_on_c, 2, 68, 0
1, 70170, Note_on_c, 2, 69, 62
1, 70199, Note_on_c, 2, 69, 0
1, 70200, Note_on_c, 2, 68, 62
1, 70229, Note_on_c, 2, 68, 0
1, 70230, Note_on_c, 2, 69, 62
1, 70259, Note_on_c, 2, 69, 0
1, 70260, Note_on_c, 2, 68, 41
1, 70289, Note_on_c, 2, 68, 0
1, 70290, Note_on_c, 2, 69, 41
1, 70319, Note_on_c, 0, 78, 0
1, 70319, Note_on_c, 1, 74, 0
1, 70319, Note_on_c, 2, 69, 0
1, 70320, Note_on_c, 0, 76, 47
1, 70320, Note_on_c, 1, 73, 41
1, 70321, Note_on_c, 4, 57, 23
1, 70439, Note_on_c, 0, 76, 0
1, 70439, Note_on_c, 1, 73, 0
1, 70439, Note_on_c, 4, 57, 0
1, 70501, Note_on_c, 0, 74, 47
1, 70519, Note_on_c, 0, 74, 0
1, 70520, Note_on_c, 0, 78, 47
1, 70539, Note_on_c, 0, 78, 0
1, 70540, Note_on_c, 0, 81, 47
1, 70559, Note_on_c, 0, 81, 0
1, 70560, Note_on_c, 0, 86, 81
1, 70561, Note_on_c, 4, 57, 76
1, 70561, Note_on_c, 5, 54, 76
1, 70561, Note_on_c, 6, 50, 76
1, 70619, Note_on_c, 0, 86, 0
1, 70620, Note_on_c, 0, 88, 81
1, 70639, Note_on_c, 0, 88, 0
1, 70640, Note_on_c, 0, 86, 81
1, 70659, Note_on_c, 0, 86, 0
1, 70660, Note_on_c, 0, 85, 81
1, 70679, Note_on_c, 0, 85, 0
1, 70680, Note_on_c, 0, 86, 81
1, 70769, Note_on_c, 0, 86, 0
1, 70770, Note_on_c, 0, 88, 81
1, 70799, Note_on_c, 0, 88, 0
1, 70799, Note_on_c, 4, 57, 0
1, 70799, Note_on_c, 5, 54, 0
1, 70799, Note_on_c, 6, 50, 0
1, 70800, Note_on_c, 0, 85, 81
1, 70800, Note_on_c, 4, 57, 76
1, 70800, Note_on_c, 5, 55, 76
1, 70800, Note_on_c, 6, 52, 76
1, 70801, Note_on_c, 1, 61, 84
1, 70859, Note_on_c, 0, 85, 0
1, 71039, Note_on_c, 1, 61, 0
1, 71039, Note_on_c, 4, 57, 0
1, 71039, Note_on_c, 5, 55, 0
1, 71039, Note_on_c, 6, 52, 0
1, 71041, Note_on_c, 0, 69, 63
1, 71069, Note_on_c, 0, 69, 0
1, 71070, Note_on_c, 0, 68, 63
1, 71099, Note_on_c, 0, 68, 0
1, 71100, Note_on_c, 0, 71, 63
1, 71129, Note_on_c, 0, 71, 0
1, 71130, Note_on_c, 0, 69, 63
1, 71159, Note_on_c, 0, 69, 0
1, 71160, Note_on_c, 0, 73, 63
1, 71189, Note_on_c, 0, 73, 0
1, 71190, Note_on_c, 0, 71, 63
1, 71219, Note_on_c, 0, 71, 0
1, 71220, Note_on_c, 0, 74, 63
1, 71249, Note_on_c, 0, 74, 0
1, 71250, Note_on_c, 0, 73, 63
1, 71279, Note_on_c, 0, 73, 0
1, 71280, Note_on_c, 0, 76, 63
1, 71281, Note_on_c, 4, 61, 56
1, 71281, Note_on_c, 5, 55, 56
1, 71281, Note_on_c, 6, 52, 56
1, 71309, Note_on_c, 0, 76, 0
1, 71310, Note_on_c, 0, 74, 63
1, 71339, Note_on_c, 0, 74, 0
1, 71340, Note_on_c, 0, 78, 63
1, 71369, Note_on_c, 0, 78, 0
1, 71370, Note_on_c, 0, 76, 63
1, 71399, Note_on_c, 0, 76, 0
1, 71400, Note_on_c, 0, 79, 81
1, 71429, Note_on_c, 0, 79, 0
1, 71430, Note_on_c, 0, 78, 81
1, 71459, Note_on_c, 0, 78, 0
1, 71460, Note_on_c, 0, 81, 81
1, 71489, Note_on_c, 0, 81, 0
1, 71490, Note_on_c, 0, 79, 81
1, 71519, Note_on_c, 0, 79, 0
1, 71519, Note_on_c, 4, 61, 0
1, 71519, Note_on_c, 5, 55, 0
1, 71519, Note_on_c, 6, 52, 0
1, 71520, Note_on_c, 0, 83, 81
1, 71520, Note_on_c, 4, 63, 56
1, 71520, Note_on_c, 5, 60, 56
1, 71520, Note_on_c, 6, 57, 56
1, 71521, Note_on_c, 7, 54, 56
1, 71549, Note_on_c, 0, 83, 0
1, 71550, Note_on_c, 0, 81, 81
1, 71579, Note_on_c, 0, 81, 0
1, 71580, Note_on_c, 0, 84, 81
1, 71609, Note_on_c, 0, 84, 0
1, 71610, Note_on_c, 0, 83, 81
1, 71639, Note_on_c, 0, 83, 0
1, 71640, Note_on_c, 0, 86, 81
1, 71669, Note_on_c, 0, 86, 0
1, 71670, Note_on_c, 0, 84, 81
1, 71699, Note_on_c, 0, 84, 0
1, 71700, Note_on_c, 0, 83, 81
1, 71729, Note_on_c, 0, 83, 0
1, 71730, Note_on_c, 0, 81, 81
1, 71759, Note_on_c, 0, 81, 0
1, 71759, Note_on_c, 4, 63, 0
1, 71759, Note_on_c, 5, 60, 0
1, 71759, Note_on_c, 6, 57, 0
1, 71759, Note_on_c, 7, 54, 0
1, 71760, Note_on_c, 0, 81, 81
1, 71760, Note_on_c, 4, 64, 56
1, 71760, Note_on_c, 5, 59, 56
1, 71760, Note_on_c, 6, 55, 56
1, 71789, Note_on_c, 0, 81, 0
1, 71790, Note_on_c, 0, 79, 81
1, 71819, Note_on_c, 0, 79, 0
1, 71820, Note_on_c, 0, 83, 81
1, 71849, Note_on_c, 0, 83, 0
1, 71850, Note_on_c, 0, 81, 63
1, 71879, Note_on_c, 0, 81, 0
1, 71880, Note_on_c, 0, 85, 63
1, 71909, Note_on_c, 0, 85, 0
1, 71910, Note_on_c, 0, 83, 63
1, 71939, Note_on_c, 0, 83, 0
1, 71940, Note_on_c, 0, 81, 63
1, 71969, Note_on_c, 0, 81, 0
1, 71970, Note_on_c, 0, 79, 63
1, 71999, Note_on_c, 0, 79, 0
1, 71999, Note_on_c, 4, 64, 0
1, 71999, Note_on_c, 5, 59, 0
1, 71999, Note_on_c, 6, 55, 0
1, 72000, Note_on_c, 0, 78, 47
1, 72000, Note_on_c, 4, 66, 23
1, 72000, Note_on_c, 5, 62, 23
1, 72000, Note_on_c, 6, 57, 23
1, 72059, Note_on_c, 0, 78, 0
1, 72121, Note_on_c, 0, 81, 31
1, 72179, Note_on_c, 0, 81, 0
1, 72239, Note_on_c, 4, 66, 0
1, 72239, Note_on_c, 5, 62, 0
1, 72239, Note_on_c, 6, 57, 0
1, 72361, Note_on_c, 0, 79, 31
1, 72389, Note_on_c, 0, 79, 0
1, 72390, Note_on_c, 0, 78, 31
1, 72419, Note_on_c, 0, 78, 0
1, 72420, Note_on_c, 0, 76, 31
1, 72449, Note_on_c, 0, 76, 0
1, 72450, Note_on_c, 0, 74, 31
1, 72479, Note_on_c, 0, 74, 0
1, 72480, Note_on_c, 0, 73, 31
1, 72481, Note_on_c, 4, 64, 23
1, 72481, Note_on_c, 5, 57, 23
1, 72539, Note_on_c, 0, 73, 0
1, 72601, Note_on_c, 0, 76, 31
1, 72659, Note_on_c, 0, 76, 0
1, 72719, Note_on_c, 4, 64, 0
1, 72719, Note_on_c, 5, 57, 0
1, 72720, Note_on_c, 4, 50, 23
1, 72959, Note_on_c, 4, 50, 0
1, 72960, Note_on_c, 4, 62, 23
1, 72961, Note_on_c, 0, 74, 31
1, 72961, Note_on_c, 1, 66, 31
1, 73199, Note_on_c, 0, 74, 0
1, 73199, Note_on_c, 1, 66, 0
1, 73199, Note_on_c, 4, 62, 0
1, 73381, Note_on_c, 0, 74, 31
1, 73399, Note_on_c, 0, 74, 0
1, 73400, Note_on_c, 0, 78, 31
1, 73419, Note_on_c, 0, 78, 0
1, 73420, Note_on_c, 0, 81, 31
1, 73439, Note_on_c, 0, 81, 0
1, 73440, Note_on_c, 0, 86, 81
1, 73441, Note_on_c, 1, 66, 84
1, 73441, Note_on_c, 4, 62, 23
1, 73499, Note_on_c, 0, 86, 0
1, 73500, Note_on_c, 0, 88, 81
1, 73519, Note_on_c, 0, 88, 0
1, 73520, Note_on_c, 0, 86, 81
1, 73539, Note_on_c, 0, 86, 0
1, 73540, Note_on_c, 0, 85, 81
1, 73559, Note_on_c, 0, 85, 0
1, 73560, Note_on_c, 0, 86, 81
1, 73649, Note_on_c, 0, 86, 0
1, 73650, Note_on_c, 0, 88, 81
1, 73679, Note_on_c, 0, 88, 0
1, 73679, Note_on_c, 1, 66, 0
1, 73679, Note_on_c, 4, 62, 0
1, 73680, Note_on_c, 0, 85, 81
1, 73680, Note_on_c, 1, 67, 84
1, 73680, Note_on_c, 4, 64, 23
1, 73739, Note_on_c, 0, 85, 0
1, 73919, Note_on_c, 1, 67, 0
1, 73919, Note_on_c, 4, 64, 0
1, 74101, Note_on_c, 0, 69, 81
1, 74119, Note_on_c, 0, 69, 0
1, 74120, Note_on_c, 0, 73, 81
1, 74139, Note_on_c, 0, 73, 0
1, 74140, Note_on_c, 0, 76, 81
1, 74159, Note_on_c, 0, 76, 0
1, 74160, Note_on_c, 0, 79, 47
1, 74161, Note_on_c, 4, 61, 56
1, 74161, Note_on_c, 5, 52, 56
1, 74279, Note_on_c, 0, 79, 0
1, 74279, Note_on_c, 4, 61, 0
1, 74279, Note_on_c, 5, 52, 0
1, 74280, Note_on_c, 0, 76, 47
1, 74309, Note_on_c, 0, 76, 0
1, 74310, Note_on_c, 0, 73, 47
1, 74339, Note_on_c, 0, 73, 0
1, 74401, Note_on_c, 0, 81, 63
1, 74401, Note_on_c, 4, 60, 56
1, 74401, Note_on_c, 5, 54, 56
1, 74519, Note_on_c, 0, 81, 0
1, 74519, Note_on_c, 4, 60, 0
1, 74519, Note_on_c, 5, 54, 0
1, 74520, Note_on_c, 0, 78, 63
1, 74549, Note_on_c, 0, 78, 0
1, 74550, Note_on_c, 0, 75, 63
1, 74579, Note_on_c, 0, 75, 0
1, 74641, Note_on_c, 0, 83, 81
1, 74641, Note_on_c, 4, 59, 56
1, 74641, Note_on_c, 5, 55, 56
1, 74759, Note_on_c, 0, 83, 0
1, 74759, Note_on_c, 4, 59, 0
1, 74759, Note_on_c, 5, 55, 0
1, 74760, Note_on_c, 0, 79, 81
1, 74789, Note_on_c, 0, 79, 0
1, 74790, Note_on_c, 0, 76, 81
1, 74819, Note_on_c, 0, 76, 0
1, 74881, Note_on_c, 0, 81, 81
1, 74881, Note_on_c, 1, 66, 84
1, 74881, Note_on_c, 4, 62, 56
1, 74881, Note_on_c, 5, 57, 56
1, 75159, Note_on_c, 0, 81, 0
1, 75160, Note_on_c, 0, 80, 63
1, 75199, Note_on_c, 0, 80, 0
1, 75200, Note_on_c, 0, 79, 63
1, 75239, Note_on_c, 0, 79, 0
1, 75239, Note_on_c, 1, 66, 0
1, 75239, Note_on_c, 4, 62, 0
1, 75239, Note_on_c, 5, 57, 0
1, 75240, Note_on_c, 0, 78, 63
1, 75279, Note_on_c, 0, 78, 0
1, 75280, Note_on_c, 0, 77, 63
1, 75319, Note_on_c, 0, 77, 0
1, 75320, Note_on_c, 0, 76, 63
1, 75359, Note_on_c, 0, 76, 0
1, 75360, Note_on_c, 0, 74, 47
1, 75419, Note_on_c, 0, 74, 0
1, 75481, Note_on_c, 0, 73, 47
1, 75481, Note_on_c, 1, 67, 41
1, 75481, Note_on_c, 4, 57, 37
1, 75539, Note_on_c, 0, 73, 0
1, 75539, Note_on_c, 1, 67, 0
1, 75539, Note_on_c, 4, 57, 0
1, 75601, Note_on_c, 0, 76, 31
1, 75601, Note_on_c, 1, 67, 25
1, 75601, Note_on_c, 4, 50, 23
1, 75839, Note_on_c, 0, 76, 0
1, 75839, Note_on_c, 1, 67, 0
1, 75839, Note_on_c, 4, 50, 0
1, 75840, Note_on_c, 0, 74, 19
1, 75840, Note_on_c, 1, 66, 25
1, 75840, Note_on_c, 4, 62, 12
1, 75959, Note_on_c, 0, 74, 0
1, 75959, Note_on_c, 1, 66, 0
1, 75959, Note_on_c, 4, 62, 0
1, 76321, Tempo, 480000
1, 76922, Note_on_c, 0, 78, 31
1, 77040, Note_on_c, 0, 78, 0
1, 77041, Note_on_c, 0, 79, 31
1, 77160, Note_on_c, 0, 79, 0
1, 77161, Note_on_c, 0, 76, 31
1, 77280, Note_on_c, 0, 76, 0
1, 77281, Note_on_c, 0, 78, 31
1, 77400, Note_on_c, 0, 78, 0
1, 77401, Note_on_c, 0, 75, 31
1, 77520, Note_on_c, 0, 75, 0
1, 77521, Note_on_c, 0, 76, 31
1, 77640, Note_on_c, 0, 76, 0
1, 77641, Note_on_c, 0, 73, 31
1, 77760, Note_on_c, 0, 73, 0
1, 77761, Note_on_c, 0, 74, 31
1, 77820, Note_on_c, 0, 74, 0
1, 77882, Note_on_c, 0, 71, 31
1, 77940, Note_on_c, 0, 71, 0
1, 78002, Note_on_c, 0, 69, 31
1, 78002, Note_on_c, 4, 62, 23
1, 78060, Note_on_c, 0, 69, 0
1, 78061, Note_on_c, 0, 68, 31
1, 78120, Note_on_c, 0, 68, 0
1, 78120, Note_on_c, 4, 62, 0
1, 78121, Note_on_c, 0, 66, 31
1, 78121, Note_on_c, 4, 62, 23
1, 78180, Note_on_c, 0, 66, 0
1, 78181, Note_on_c, 0, 64, 31
1, 78240, Note_on_c, 0, 64, 0
1, 78240, Note_on_c, 4, 62, 0
1, 78241, Note_on_c, 0, 63, 31
1, 78241, Note_on_c, 4, 62, 23
1, 78300, Note_on_c, 0, 63, 0
1, 78301, Note_on_c, 0, 64, 31
1, 78360, Note_on_c, 0, 64, 0
1, 78360, Note_on_c, 4, 62, 0
1, 78361, Note_on_c, 0, 66, 31
1, 78361, Note_on_c, 4, 62, 23
1, 78420, Note_on_c, 0, 66, 0
1, 78421, Note_on_c, 0, 68, 31
1, 78480, Note_on_c, 0, 68, 0
1, 78480, Note_on_c, 4, 62, 0
1, 78481, Note_on_c, 0, 69, 31
1, 78481, Note_on_c, 4, 61, 23
1, 78600, Note_on_c, 4, 61, 0
1, 78601, Note_on_c, 4, 61, 23
1, 78720, Note_on_c, 0, 69, 0
1, 78720, Note_on_c, 4, 61, 0
1, 78721, Note_on_c, 4, 61, 23
1, 78840, Note_on_c, 4, 61, 0
1, 78841, Note_on_c, 4, 61, 23
1, 78842, Note_on_c, 0, 73, 31
1, 78900, Note_on_c, 0, 73, 0
1, 78901, Note_on_c, 0, 71, 31
1, 78960, Note_on_c, 0, 71, 0
1, 78960, Note_on_c, 4, 61, 0
1, 78961, Note_on_c, 0, 69, 31
1, 78961, Note_on_c, 4, 62, 23
1, 79020, Note_on_c, 0, 69, 0
1, 79021, Note_on_c, 0, 68, 31
1, 79080, Note_on_c, 0, 68, 0
1, 79080, Note_on_c, 4, 62, 0
1, 79081, Note_on_c, 0, 66, 31
1, 79081, Note_on_c, 4, 62, 23
1, 79140, Note_on_c, 0, 66, 0
1, 79141, Note_on_c, 0, 64, 31
1, 79200, Note_on_c, 0, 64, 0
1, 79200, Note_on_c, 4, 62, 0
1, 79201, Note_on_c, 0, 63, 31
1, 79201, Note_on_c, 4, 62, 23
1, 79260, Note_on_c, 0, 63, 0
1, 79261, Note_on_c, 0, 64, 31
1, 79320, Note_on_c, 0, 64, 0
1, 79320, Note_on_c, 4, 62, 0
1, 79321, Note_on_c, 0, 66, 31
1, 79321, Note_on_c, 4, 62, 23
1, 79380, Note_on_c, 0, 66, 0
1, 79381, Note_on_c, 0, 68, 31
1, 79440, Note_on_c, 0, 68, 0
1, 79440, Note_on_c, 4, 62, 0
1, 79441, Note_on_c, 0, 69, 47
1, 79441, Note_on_c, 4, 61, 37
1, 79500, Note_on_c, 0, 69, 0
1, 79501, Note_on_c, 0, 71, 47
1, 79560, Note_on_c, 0, 71, 0
1, 79560, Note_on_c, 4, 61, 0
1, 79561, Note_on_c, 0, 73, 47
1, 79561, Note_on_c, 4, 61, 37
1, 79620, Note_on_c, 0, 73, 0
1, 79621, Note_on_c, 0, 74, 47
1, 79680, Note_on_c, 0, 74, 0
1, 79680, Note_on_c, 4, 61, 0
1, 79681, Note_on_c, 0, 76, 63
1, 79681, Note_on_c, 4, 61, 56
1, 79740, Note_on_c, 0, 76, 0
1, 79741, Note_on_c, 0, 78, 63
1, 79800, Note_on_c, 0, 78, 0
1, 79800, Note_on_c, 4, 61, 0
1, 79801, Note_on_c, 0, 80, 63
1, 79801, Note_on_c, 4, 61, 56
1, 79860, Note_on_c, 0, 80, 0
1, 79861, Note_on_c, 0, 81, 63
1, 79920, Note_on_c, 0, 81, 0
1, 79920, Note_on_c, 4, 61, 0
1, 79921, Note_on_c, 0, 71, 63
1, 79921, Note_on_c, 4, 62, 56
1, 79980, Note_on_c, 0, 71, 0
1, 80042, Note_on_c, 0, 78, 47
1, 80042, Note_on_c, 1, 74, 41
1, 80160, Note_on_c, 0, 78, 0
1, 80160, Note_on_c, 1, 74, 0
1, 80160, Note_on_c, 4, 62, 0
1, 80161, Note_on_c, 0, 76, 47
1, 80161, Note_on_c, 1, 73, 41
1, 80161, Note_on_c, 4, 64, 37
1, 80280, Note_on_c, 0, 76, 0
1, 80280, Note_on_c, 1, 73, 0
1, 80281, Note_on_c, 0, 68, 31
1, 80400, Note_on_c, 0, 68, 0
1, 80400, Note_on_c, 4, 64, 0
1, 80401, Note_on_c, 0, 69, 31
1, 80401, Note_on_c, 4, 57, 23
1, 80520, Note_on_c, 0, 69, 0
1, 80520, Note_on_c, 4, 57, 0
1, 80762, Note_on_c, 0, 78, 31
1, 80880, Note_on_c, 0, 78, 0
1, 80881, Note_on_c, 0, 79, 31
1, 81000, Note_on_c, 0, 79, 0
1, 81001, Note_on_c, 0, 76, 31
1, 81120, Note_on_c, 0, 76, 0
1, 81121, Note_on_c, 0, 78, 31
1, 81240, Note_on_c, 0, 78, 0
1, 81241, Note_on_c, 0, 75, 31
1, 81360, Note_on_c, 0, 75, 0
1, 81361, Note_on_c, 0, 76, 31
1, 81480, Note_on_c, 0, 76, 0
1, 81481, Note_on_c, 0, 73, 31
1, 81600, Note_on_c, 0, 73, 0
1, 81601, Note_on_c, 0, 74, 31
1, 81660, Note_on_c, 0, 74, 0
1, 81722, Note_on_c, 0, 71, 31
1, 81780, Note_on_c, 0, 71, 0
1, 81842, Note_on_c, 0, 69, 31
1, 81842, Note_on_c, 4, 62, 23
1, 81900, Note_on_c, 0, 69, 0
1, 81901, Note_on_c, 0, 68, 31
1, 81960, Note_on_c, 0, 68, 0
1, 81960, Note_on_c, 4, 62, 0
1, 81961, Note_on_c, 0, 66, 31
1, 81961, Note_on_c, 4, 62, 23
1, 82020, Note_on_c, 0, 66, 0
1, 82021, Note_on_c, 0, 64, 31
1, 82080, Note_on_c, 0, 64, 0
1, 82080, Note_on_c, 4, 62, 0
1, 82081, Note_on_c, 0, 63, 31
1, 82081, Note_on_c, 4, 62, 23
1, 82140, Note_on_c, 0, 63, 0
1, 82141, Note_on_c, 0, 64, 31
1, 82200, Note_on_c, 0, 64, 0
1, 82200, Note_on_c, 4, 62, 0
1, 82201, Note_on_c, 0, 66, 31
1, 82201, Note_on_c, 4, 62, 23
1, 82260, Note_on_c, 0, 66, 0
1, 82261, Note_on_c, 0, 68, 31
1, 82320, Note_on_c, 0, 68, 0
1, 82320, Note_on_c, 4, 62, 0
1, 82321, Note_on_c, 0, 69, 31
1, 82321, Note_on_c, 4, 61, 23
1, 82440, Note_on_c, 4, 61, 0
1, 82441, Note_on_c, 4, 61, 23
1, 82560, Note_on_c, 0, 69, 0
1, 82560, Note_on_c, 4, 61, 0
1, 82561, Note_on_c, 4, 61, 23
1, 82680, Note_on_c, 4, 61, 0
1, 82681, Note_on_c, 4, 61, 23
1, 82682, Note_on_c, 0, 73, 31
1, 82740, Note_on_c, 0, 73, 0
1, 82741, Note_on_c, 0, 71, 31
1, 82800, Note_on_c, 0, 71, 0
1, 82800, Note_on_c, 4, 61, 0
1, 82801, Note_on_c, 0, 69, 31
1, 82801, Note_on_c, 4, 62, 23
1, 82860, Note_on_c, 0, 69, 0
1, 82861, Note_on_c, 0, 68, 31
1, 82920, Note_on_c, 0, 68, 0
1, 82920, Note_on_c, 4, 62, 0
1, 82921, Note_on_c, 0, 66, 31
1, 82921, Note_on_c, 4, 62, 23
1, 82980, Note_on_c, 0, 66, 0
1, 82981, Note_on_c, 0, 64, 31
1, 83040, Note_on_c, 0, 64, 0
1, 83040, Note_on_c, 4, 62, 0
1, 83041, Note_on_c, 0, 63, 31
1, 83041, Note_on_c, 4, 62, 23
1, 83100, Note_on_c, 0, 63, 0
1, 83101, Note_on_c, 0, 64, 31
1, 83160, Note_on_c, 0, 64, 0
1, 83160, Note_on_c, 4, 62, 0
1, 83161, Note_on_c, 0, 66, 31
1, 83161, Note_on_c, 4, 62, 23
1, 83220, Note_on_c, 0, 66, 0
1, 83221, Note_on_c, 0, 68, 31
1, 83280, Note_on_c, 0, 68, 0
1, 83280, Note_on_c, 4, 62, 0
1, 83281, Note_on_c, 0, 69, 47
1, 83281, Note_on_c, 4, 61, 37
1, 83340, Note_on_c, 0, 69, 0
1, 83341, Note_on_c, 0, 71, 47
1, 83400, Note_on_c, 0, 71, 0
1, 83400, Note_on_c, 4, 61, 0
1, 83401, Note_on_c, 0, 73, 47
1, 83401, Note_on_c, 4, 61, 37
1, 83460, Note_on_c, 0, 73, 0
1, 83461, Note_on_c, 0, 74, 47
1, 83520, Note_on_c, 0, 74, 0
1, 83520, Note_on_c, 4, 61, 0
1, 83521, Note_on_c, 0, 76, 63
1, 83521, Note_on_c, 4, 61, 56
1, 83580, Note_on_c, 0, 76, 0
1, 83581, Note_on_c, 0, 78, 63
1, 83640, Note_on_c, 0, 78, 0
1, 83640, Note_on_c, 4, 61, 0
1, 83641, Note_on_c, 0, 80, 63
1, 83641, Note_on_c, 4, 61, 56
1, 83700, Note_on_c, 0, 80, 0
1, 83701, Note_on_c, 0, 81, 63
1, 83760, Note_on_c, 0, 81, 0
1, 83760, Note_on_c, 4, 61, 0
1, 83761, Note_on_c, 0, 71, 63
1, 83761, Note_on_c, 4, 62, 56
1, 83820, Note_on_c, 0, 71, 0
1, 83882, Note_on_c, 0, 78, 47
1, 83882, Note_on_c, 1, 74, 41
1, 84000, Note_on_c, 0, 78, 0
1, 84000, Note_on_c, 1, 74, 0
1, 84000, Note_on_c, 4, 62, 0
1, 84001, Note_on_c, 0, 76, 47
1, 84001, Note_on_c, 1, 73, 41
1, 84001, Note_on_c, 4, 64, 37
1, 84120, Note_on_c, 0, 76, 0
1, 84120, Note_on_c, 1, 73, 0
1, 84121, Note_on_c, 0, 68, 31
1, 84240, Note_on_c, 0, 68, 0
1, 84240, Note_on_c, 4, 64, 0
1, 84241, Note_on_c, 0, 69, 31
1, 84241, Note_on_c, 4, 57, 23
1, 84360, Note_on_c, 0, 69, 0
1, 84360, Note_on_c, 4, 57, 0
1, 84602, Note_on_c, 0, 81, 31
1, 84720, Note_on_c, 0, 81, 0
1, 84721, Note_on_c, 0, 83, 31
1, 84840, Note_on_c, 0, 83, 0
1, 84841, Note_on_c, 0, 80, 31
1, 84960, Note_on_c, 0, 80, 0
1, 84961, Note_on_c, 0, 81, 31
1, 85080, Note_on_c, 0, 81, 0
1, 85081, Note_on_c, 0, 78, 31
1, 85082, Note_on_c, 1, 74, 25
1, 85200, Note_on_c, 0, 78, 0
1, 85200, Note_on_c, 1, 74, 0
1, 85201, Note_on_c, 0, 79, 31
1, 85201, Note_on_c, 1, 76, 25
1, 85320, Note_on_c, 0, 79, 0
1, 85320, Note_on_c, 1, 76, 0
1, 85321, Note_on_c, 0, 76, 31
1, 85321, Note_on_c, 1, 73, 25
1, 85440, Note_on_c, 0, 76, 0
1, 85440, Note_on_c, 1, 73, 0
1, 85441, Note_on_c, 0, 78, 31
1, 85441, Note_on_c, 1, 74, 25
1, 85560, Note_on_c, 0, 78, 0
1, 85560, Note_on_c, 1, 74, 0
1, 85561, Note_on_c, 0, 76, 31
1, 85561, Note_on_c, 1, 73, 25
1, 85562, Note_on_c, 4, 66, 23
1, 85680, Note_on_c, 0, 76, 0
1, 85680, Note_on_c, 4, 66, 0
1, 85681, Note_on_c, 0, 74, 31
1, 85681, Note_on_c, 4, 67, 23
1, 85800, Note_on_c, 0, 74, 0
1, 85800, Note_on_c, 1, 73, 0
1, 85800, Note_on_c, 4, 67, 0
1, 85801, Note_on_c, 0, 79, 31
1, 85801, Note_on_c, 1, 71, 25
1, 85801, Note_on_c, 4, 64, 23
1, 85920, Note_on_c, 0, 79, 0
1, 85920, Note_on_c, 4, 64, 0
1, 85921, Note_on_c, 0, 73, 31
1, 85921, Note_on_c, 4, 66, 23
1, 86040, Note_on_c, 0, 73, 0
1, 86040, Note_on_c, 1, 71, 0
1, 86040, Note_on_c, 4, 66, 0
1, 86041, Note_on_c, 0, 78, 31
1, 86041, Note_on_c, 1, 69, 25
1, 86041, Note_on_c, 4, 63, 23
1, 86160, Note_on_c, 0, 78, 0
1, 86160, Note_on_c, 4, 63, 0
1, 86161, Note_on_c, 0, 71, 31
1, 86161, Note_on_c, 4, 64, 23
1, 86280, Note_on_c, 0, 71, 0
1, 86280, Note_on_c, 1, 69, 0
1, 86280, Note_on_c, 4, 64, 0
1, 86281, Note_on_c, 0, 76, 31
1, 86281, Note_on_c, 1, 67, 25
1, 86281, Note_on_c, 4, 61, 23
1, 86400, Note_on_c, 0, 76, 0
1, 86400, Note_on_c, 4, 61, 0
1, 86401, Note_on_c, 0, 69, 31
1, 86401, Note_on_c, 4, 62, 23
1, 86460, Note_on_c, 0, 69, 0
1, 86460, Note_on_c, 4, 62, 0
1, 86520, Note_on_c, 1, 67, 0
1, 86521, Note_on_c, 1, 66, 25
1, 86522, Note_on_c, 0, 74, 31
1, 86522, Note_on_c, 4, 59, 23
1, 86580, Note_on_c, 0, 74, 0
1, 86580, Note_on_c, 4, 59, 0
1, 86640, Note_on_c, 1, 66, 0
1, 86641, Note_on_c, 1, 64, 25
1, 86642, Note_on_c, 0, 74, 31
1, 86642, Note_on_c, 4, 57, 23
1, 86700, Note_on_c, 4, 57, 0
1, 86701, Note_on_c, 4, 56, 23
1, 86760, Note_on_c, 4, 56, 0
1, 86761, Note_on_c, 4, 54, 23
1, 86820, Note_on_c, 4, 54, 0
1, 86821, Note_on_c, 4, 52, 23
1, 86880, Note_on_c, 0, 74, 0
1, 86880, Note_on_c, 1, 64, 0
1, 86880, Note_on_c, 4, 52, 0
1, 86881, Note_on_c, 4, 51, 23
1, 86940, Note_on_c, 4, 51, 0
1, 86941, Note_on_c, 4, 52, 23
1, 87000, Note_on_c, 4, 52, 0
1, 87001, Note_on_c, 4, 54, 23
1, 87002, Note_on_c, 0, 74, 31
1, 87060, Note_on_c, 0, 74, 0
1, 87060, Note_on_c, 4, 54, 0
1, 87061, Note_on_c, 4, 56, 23
1, 87120, Note_on_c, 4, 56, 0
1, 87121, Note_on_c, 4, 57, 23
1, 87122, Note_on_c, 0, 74, 31
1, 87180, Note_on_c, 0, 74, 0
1, 87181, Note_on_c, 0, 73, 31
1, 87240, Note_on_c, 0, 73, 0
1, 87241, Note_on_c, 0, 71, 31
1, 87300, Note_on_c, 0, 71, 0
1, 87301, Note_on_c, 0, 69, 31
1, 87360, Note_on_c, 0, 69, 0
1, 87360, Note_on_c, 4, 57, 0
1, 87361, Note_on_c, 0, 68, 31
1, 87420, Note_on_c, 0, 68, 0
1, 87421, Note_on_c, 0, 69, 31
1, 87480, Note_on_c, 0, 69, 0
1, 87481, Note_on_c, 0, 71, 31
1, 87482, Note_on_c, 4, 57, 23
1, 87540, Note_on_c, 0, 71, 0
1, 87540, Note_on_c, 4, 57, 0
1, 87541, Note_on_c, 0, 73, 31
1, 87600, Note_on_c, 0, 73, 0
1, 87601, Note_on_c, 0, 74, 47
1, 87602, Note_on_c, 4, 57, 37
1, 87660, Note_on_c, 4, 57, 0
1, 87661, Note_on_c, 4, 56, 37
1, 87720, Note_on_c, 4, 56, 0
1, 87721, Note_on_c, 4, 54, 37
1, 87780, Note_on_c, 4, 54, 0
1, 87781, Note_on_c, 4, 52, 37
1, 87840, Note_on_c, 0, 74, 0
1, 87840, Note_on_c, 4, 52, 0
1, 87841, Note_on_c, 4, 51, 37
1, 87900, Note_on_c, 4, 51, 0
1, 87901, Note_on_c, 4, 52, 37
1, 87960, Note_on_c, 4, 52, 0
1, 87961, Note_on_c, 4, 54, 37
1, 87962, Note_on_c, 0, 74, 47
1, 88020, Note_on_c, 0, 74, 0
1, 88020, Note_on_c, 4, 54, 0
1, 88021, Note_on_c, 4, 56, 37
1, 88080, Note_on_c, 4, 56, 0
1, 88081, Note_on_c, 4, 57, 37
1, 88082, Note_on_c, 0, 74, 47
1, 88140, Note_on_c, 0, 74, 0
1, 88141, Note_on_c, 0, 73, 47
1, 88200, Note_on_c, 0, 73, 0
1, 88201, Note_on_c, 0, 71, 47
1, 88260, Note_on_c, 0, 71, 0
1, 88261, Note_on_c, 0, 69, 47
1, 88320, Note_on_c, 0, 69, 0
1, 88320, Note_on_c, 4, 57, 0
1, 88321, Note_on_c, 0, 68, 47
1, 88380, Note_on_c, 0, 68, 0
1, 88381, Note_on_c, 0, 69, 47
1, 88440, Note_on_c, 0, 69, 0
1, 88441, Note_on_c, 0, 71, 47
1, 88442, Note_on_c, 1, 67, 41
1, 88500, Note_on_c, 0, 71, 0
1, 88500, Note_on_c, 1, 67, 0
1, 88501, Note_on_c, 0, 73, 47
1, 88560, Note_on_c, 0, 73, 0
1, 88561, Note_on_c, 0, 74, 31
1, 88562, Note_on_c, 1, 67, 41
1, 88620, Note_on_c, 1, 67, 0
1, 88621, Note_on_c, 1, 66, 41
1, 88680, Note_on_c, 1, 66, 0
1, 88681, Note_on_c, 1, 64, 41
1, 88740, Note_on_c, 1, 64, 0
1, 88741, Note_on_c, 1, 62, 41
1, 88800, Note_on_c, 0, 74, 0
1, 88800, Note_on_c, 1, 62, 0
1, 88801, Note_on_c, 1, 61, 41
1, 88860, Note_on_c, 1, 61, 0
1, 88861, Note_on_c, 1, 62, 41
1, 88920, Note_on_c, 1, 62, 0
1, 88921, Note_on_c, 1, 64, 41
1, 88922, Note_on_c, 0, 81, 31
1, 88980, Note_on_c, 0, 81, 0
1, 88980, Note_on_c, 1, 64, 0
1, 88981, Note_on_c, 1, 66, 41
1, 89040, Note_on_c, 1, 66, 0
1, 89041, Note_on_c, 1, 67, 41
1, 89042, Note_on_c, 0, 81, 31
1, 89100, Note_on_c, 0, 81, 0
1, 89101, Note_on_c, 0, 71, 31
1, 89160, Note_on_c, 0, 71, 0
1, 89161, Note_on_c, 0, 73, 31
1, 89220, Note_on_c, 0, 73, 0
1, 89221, Note_on_c, 0, 71, 31
1, 89280, Note_on_c, 0, 71, 0
1, 89280, Note_on_c, 1, 67, 0
1, 89281, Note_on_c, 0, 79, 47
1, 89281, Note_on_c, 1, 64, 41
1, 89340, Note_on_c, 0, 79, 0
1, 89341, Note_on_c, 0, 78, 47
1, 89400, Note_on_c, 0, 78, 0
1, 89401, Note_on_c, 0, 76, 47
1, 89460, Note_on_c, 0, 76, 0
1, 89461, Note_on_c, 0, 74, 47
1, 89520, Note_on_c, 0, 74, 0
1, 89520, Note_on_c, 1, 64, 0
1, 89521, Note_on_c, 0, 73, 47
1, 89522, Note_on_c, 2, 69, 62
1, 89580, Note_on_c, 2, 69, 0
1, 89581, Note_on_c, 2, 67, 62
1, 89640, Note_on_c, 2, 67, 0
1, 89641, Note_on_c, 2, 66, 62
1, 89700, Note_on_c, 2, 66, 0
1, 89701, Note_on_c, 2, 64, 62
1, 89760, Note_on_c, 0, 73, 0
1, 89760, Note_on_c, 2, 64, 0
1, 89761, Note_on_c, 0, 81, 47
1, 89761, Note_on_c, 2, 62, 62
1, 89762, Note_on_c, 1, 78, 62
1, 89820, Note_on_c, 0, 81, 0
1, 89820, Note_on_c, 1, 78, 0
1, 89821, Note_on_c, 0, 79, 47
1, 89821, Note_on_c, 1, 76, 62
1, 89880, Note_on_c, 0, 79, 0
1, 89880, Note_on_c, 1, 76, 0
1, 89881, Note_on_c, 0, 78, 47
1, 89881, Note_on_c, 1, 74, 62
1, 89940, Note_on_c, 0, 78, 0
1, 89940, Note_on_c, 1, 74, 0
1, 89941, Note_on_c, 0, 76, 47
1, 89941, Note_on_c, 1, 73, 62
1, 90000, Note_on_c, 0, 76, 0
1, 90000, Note_on_c, 1, 73, 0
1, 90000, Note_on_c, 2, 62, 0
1, 90001, Note_on_c, 0, 74, 47
1, 90001, Note_on_c, 2, 71, 62
1, 90060, Note_on_c, 2, 71, 0
1, 90061, Note_on_c, 2, 69, 62
1, 90120, Note_on_c, 2, 69, 0
1, 90121, Note_on_c, 2, 67, 62
1, 90180, Note_on_c, 2, 67, 0
1, 90181, Note_on_c, 2, 66, 62
1, 90240, Note_on_c, 0, 74, 0
1, 90240, Note_on_c, 2, 66, 0
1, 90241, Note_on_c, 0, 83, 47
1, 90241, Note_on_c, 2, 62, 62
1, 90242, Note_on_c, 1, 79, 62
1, 90300, Note_on_c, 0, 83, 0
1, 90300, Note_on_c, 1, 79, 0
1, 90301, Note_on_c, 0, 81, 47
1, 90301, Note_on_c, 1, 78, 62
1, 90360, Note_on_c, 0, 81, 0
1, 90360, Note_on_c, 1, 78, 0
1, 90361, Note_on_c, 0, 79, 47
1, 90361, Note_on_c, 1, 76, 62
1, 90420, Note_on_c, 0, 79, 0
1, 90420, Note_on_c, 1, 76, 0
1, 90421, Note_on_c, 0, 78, 47
1, 90421, Note_on_c, 1, 74, 62
1, 90480, Note_on_c, 0, 78, 0
1, 90480, Note_on_c, 1, 74, 0
1, 90480, Note_on_c, 2, 62, 0
1, 90481, Note_on_c, 0, 76, 47
1, 90481, Note_on_c, 1, 73, 62
1, 90481, Note_on_c, 2, 69, 62
1, 90540, Note_on_c, 0, 76, 0
1, 90540, Note_on_c, 1, 73, 0
1, 90540, Note_on_c, 2, 69, 0
1, 90602, Note_on_c, 0, 78, 47
1, 90602, Note_on_c, 1, 74, 62
1, 90602, Note_on_c, 2, 69, 62
1, 90660, Note_on_c, 0, 78, 0
1, 90660, Note_on_c, 1, 74, 0
1, 90660, Note_on_c, 2, 69, 0
1, 90722, Note_on_c, 0, 79, 47
1, 90722, Note_on_c, 1, 76, 62
1, 90722, Note_on_c, 2, 69, 62
1, 90780, Note_on_c, 0, 79, 0
1, 90780, Note_on_c, 1, 76, 0
1, 90780, Note_on_c, 2, 69, 0
1, 90842, Note_on_c, 0, 78, 47
1, 90842, Note_on_c, 1, 74, 62
1, 90842, Note_on_c, 2, 69, 62
1, 90900, Note_on_c, 0, 78, 0
1, 90900, Note_on_c, 1, 74, 0
1, 90900, Note_on_c, 2, 69, 0
1, 90962, Note_on_c, 0, 76, 47
1, 90962, Note_on_c, 1, 73, 62
1, 90962, Note_on_c, 2, 69, 62
1, 91020, Note_on_c, 0, 76, 0
1, 91020, Note_on_c, 1, 73, 0
1, 91020, Note_on_c, 2, 69, 0
1, 91082, Note_on_c, 0, 83, 81
1, 91082, Note_on_c, 1, 73, 62
1, 91082, Note_on_c, 2, 69, 62
1, 91110, Note_on_c, 0, 83, 0
1, 91111, Note_on_c, 0, 81, 81
1, 91140, Note_on_c, 0, 81, 0
1, 91141, Note_on_c, 0, 80, 81
1, 91170, Note_on_c, 0, 80, 0
1, 91171, Note_on_c, 0, 81, 81
1, 91200, Note_on_c, 0, 81, 0
1, 91200, Note_on_c, 1, 73, 0
1, 91201, Note_on_c, 0, 83, 81
1, 91201, Note_on_c, 1, 74, 62
1, 91320, Note_on_c, 0, 83, 0
1, 91320, Note_on_c, 1, 74, 0
1, 91321, Note_on_c, 0, 80, 81
1, 91321, Note_on_c, 1, 73, 62
1, 91440, Note_on_c, 0, 80, 0
1, 91440, Note_on_c, 1, 73, 0
1, 91440, Note_on_c, 2, 69, 0
1, 91441, Note_on_c, 0, 81, 81
1, 91441, Note_on_c, 1, 73, 62
1, 91441, Note_on_c, 2, 69, 62
1, 91500, Note_on_c, 0, 81, 0
1, 91560, Note_on_c, 1, 73, 0
1, 91560, Note_on_c, 2, 69, 0
1, 91561, Note_on_c, 1, 76, 62
1, 91561, Note_on_c, 2, 69, 62
1, 91562, Note_on_c, 0, 86, 81
1, 91590, Note_on_c, 0, 86, 0
1, 91591, Note_on_c, 0, 85, 81
1, 91620, Note_on_c, 0, 85, 0
1, 91621, Note_on_c, 0, 83, 81
1, 91650, Note_on_c, 0, 83, 0
1, 91651, Note_on_c, 0, 85, 81
1, 91680, Note_on_c, 0, 85, 0
1, 91680, Note_on_c, 1, 76, 0
1, 91681, Note_on_c, 0, 86, 81
1, 91681, Note_on_c, 1, 78, 62
1, 91800, Note_on_c, 0, 86, 0
1, 91800, Note_on_c, 1, 78, 0
1, 91801, Note_on_c, 0, 83, 81
1, 91801, Note_on_c, 1, 74, 62
1, 91920, Note_on_c, 0, 83, 0
1, 91920, Note_on_c, 1, 74, 0
1, 91920, Note_on_c, 2, 69, 0
1, 91921, Note_on_c, 0, 81, 81
1, 91921, Note_on_c, 1, 73, 62
1, 91921, Note_on_c, 2, 69, 62
1, 91980, Note_on_c, 0, 81, 0
1, 91980, Note_on_c, 1, 73, 0
1, 91980, Note_on_c, 2, 69, 0
1, 92162, Note_on_c, 0, 81, 81
1, 92162, Note_on_c, 1, 73, 62
1, 92162, Note_on_c, 2, 69, 62
1, 92220, Note_on_c, 0, 81, 0
1, 92220, Note_on_c, 1, 73, 0
1, 92220, Note_on_c, 2, 69, 0
1, 92402, Note_on_c, 0, 81, 81
1, 92402, Note_on_c, 1, 73, 62
1, 92402, Note_on_c, 2, 69, 62
1, 92640, Note_on_c, 0, 81, 0
1, 92640, Note_on_c, 1, 73, 0
1, 92640, Note_on_c, 2, 69, 0
1, 92762, Note_on_c, 4, 57, 37
1, 92762, Note_on_c, 5, 54, 37
1, 92880, Note_on_c, 4, 57, 0
1, 92880, Note_on_c, 5, 54, 0
1, 92881, Note_on_c, 4, 59, 37
1, 92881, Note_on_c, 5, 55, 37
1, 93000, Note_on_c, 4, 59, 0
1, 93000, Note_on_c, 5, 55, 0
1, 93001, Note_on_c, 4, 55, 37
1, 93001, Note_on_c, 5, 52, 37
1, 93120, Note_on_c, 4, 55, 0
1, 93120, Note_on_c, 5, 52, 0
1, 93121, Note_on_c, 4, 57, 37
1, 93121, Note_on_c, 5, 54, 37
1, 93240, Note_on_c, 4, 57, 0
1, 93240, Note_on_c, 5, 54, 0
1, 93241, Note_on_c, 4, 54, 37
1, 93241, Note_on_c, 5, 51, 37
1, 93242, Note_on_c, 0, 71, 47
1, 93360, Note_on_c, 0, 71, 0
1, 93360, Note_on_c, 4, 54, 0
1, 93360, Note_on_c, 5, 51, 0
1, 93361, Note_on_c, 0, 72, 47
1, 93361, Note_on_c, 4, 55, 37
1, 93361, Note_on_c, 5, 52, 37
1, 93480, Note_on_c, 0, 72, 0
1, 93480, Note_on_c, 4, 55, 0
1, 93480, Note_on_c, 5, 52, 0
1, 93481, Note_on_c, 0, 70, 47
1, 93481, Note_on_c, 4, 52, 37
1, 93481, Note_on_c, 5, 49, 37
1, 93600, Note_on_c, 0, 70, 0
1, 93600, Note_on_c, 4, 52, 0
1, 93600, Note_on_c, 5, 49, 0
1, 93601, Note_on_c, 0, 71, 47
1, 93601, Note_on_c, 4, 54, 37
1, 93601, Note_on_c, 5, 51, 37
1, 93720, Note_on_c, 0, 71, 0
1, 93720, Note_on_c, 4, 54, 0
1, 93721, Note_on_c, 0, 69, 47
1, 93721, Note_on_c, 4, 59, 37
1, 93780, Note_on_c, 0, 69, 0
1, 93840, Note_on_c, 4, 59, 0
1, 93840, Note_on_c, 5, 51, 0
1, 93841, Note_on_c, 4, 59, 37
1, 93841, Note_on_c, 5, 52, 37
1, 93842, Note_on_c, 0, 69, 47
1, 93900, Note_on_c, 0, 69, 0
1, 93901, Note_on_c, 0, 67, 47
1, 93960, Note_on_c, 0, 67, 0
1, 93961, Note_on_c, 0, 66, 47
1, 94020, Note_on_c, 0, 66, 0
1, 94021, Note_on_c, 0, 64, 47
1, 94080, Note_on_c, 0, 64, 0
1, 94080, Note_on_c, 4, 59, 0
1, 94080, Note_on_c, 5, 52, 0
1, 94081, Note_on_c, 0, 63, 63
1, 94140, Note_on_c, 0, 63, 0
1, 94141, Note_on_c, 0, 64, 63
1, 94200, Note_on_c, 0, 64, 0
1, 94201, Note_on_c, 0, 66, 63
1, 94202, Note_on_c, 4, 50, 56
1, 94260, Note_on_c, 0, 66, 0
1, 94260, Note_on_c, 4, 50, 0
1, 94261, Note_on_c, 0, 67, 63
1, 94320, Note_on_c, 0, 67, 0
1, 94321, Note_on_c, 0, 69, 81
1, 94322, Note_on_c, 4, 50, 56
1, 94380, Note_on_c, 4, 50, 0
1, 94381, Note_on_c, 4, 49, 56
1, 94440, Note_on_c, 4, 49, 0
1, 94441, Note_on_c, 4, 47, 56
1, 94500, Note_on_c, 4, 47, 0
1, 94501, Note_on_c, 4, 45, 56
1, 94560, Note_on_c, 0, 69, 0
1, 94560, Note_on_c, 4, 45, 0
1, 94561, Note_on_c, 4, 44, 56
1, 94620, Note_on_c, 4, 44, 0
1, 94621, Note_on_c, 4, 45, 56
1, 94680, Note_on_c, 4, 45, 0
1, 94681, Note_on_c, 4, 47, 56
1, 94682, Note_on_c, 0, 67, 63
1, 94740, Note_on_c, 0, 67, 0
1, 94740, Note_on_c, 4, 47, 0
1, 94741, Note_on_c, 4, 49, 56
1, 94800, Note_on_c, 4, 49, 0
1, 94801, Note_on_c, 4, 50, 37
1, 94802, Note_on_c, 0, 67, 63
1, 94860, Note_on_c, 0, 67, 0
1, 94861, Note_on_c, 0, 66, 63
1, 94920, Note_on_c, 0, 66, 0
1, 94921, Note_on_c, 0, 64, 63
1, 94980, Note_on_c, 0, 64, 0
1, 94981, Note_on_c, 0, 62, 63
1, 95040, Note_on_c, 0, 62, 0
1, 95040, Note_on_c, 4, 50, 0
1, 95041, Note_on_c, 0, 61, 63
1, 95100, Note_on_c, 0, 61, 0
1, 95101, Note_on_c, 0, 62, 63
1, 95160, Note_on_c, 0, 62, 0
1, 95161, Note_on_c, 0, 64, 63
1, 95162, Note_on_c, 4, 60, 37
1, 95220, Note_on_c, 0, 64, 0
1, 95220, Note_on_c, 4, 60, 0
1, 95221, Note_on_c, 0, 66, 63
1, 95280, Note_on_c, 0, 66, 0
1, 95281, Note_on_c, 0, 67, 63
1, 95282, Note_on_c, 4, 60, 37
1, 95340, Note_on_c, 4, 60, 0
1, 95341, Note_on_c, 4, 59, 37
1, 95400, Note_on_c, 4, 59, 0
1, 95401, Note_on_c, 4, 57, 37
1, 95460, Note_on_c, 4, 57, 0
1, 95461, Note_on_c, 4, 55, 37
1, 95520, Note_on_c, 0, 67, 0
1, 95520, Note_on_c, 4, 55, 0
1, 95521, Note_on_c, 4, 54, 37
1, 95580, Note_on_c, 4, 54, 0
1, 95581, Note_on_c, 4, 55, 37
1, 95640, Note_on_c, 4, 55, 0
1, 95641, Note_on_c, 4, 57, 23
1, 95642, Note_on_c, 0, 79, 31
1, 95700, Note_on_c, 0, 79, 0
1, 95700, Note_on_c, 4, 57, 0
1, 95701, Note_on_c, 4, 59, 23
1, 95760, Note_on_c, 4, 59, 0
1, 95761, Note_on_c, 4, 60, 23
1, 95762, Note_on_c, 0, 79, 31
1, 95820, Note_on_c, 0, 79, 0
1, 95821, Note_on_c, 0, 78, 31
1, 95880, Note_on_c, 0, 78, 0
1, 95881, Note_on_c, 0, 76, 31
1, 95940, Note_on_c, 0, 76, 0
1, 95941, Note_on_c, 0, 74, 31
1, 96000, Note_on_c, 0, 74, 0
1, 96000, Note_on_c, 4, 60, 0
1, 96001, Note_on_c, 0, 73, 31
1, 96060, Note_on_c, 0, 73, 0
1, 96061, Note_on_c, 0, 74, 31
1, 96120, Note_on_c, 0, 74, 0
1, 96121, Note_on_c, 0, 76, 31
1, 96122, Note_on_c, 1, 72, 41
1, 96180, Note_on_c, 0, 76, 0
1, 96180, Note_on_c, 1, 72, 0
1, 96181, Note_on_c, 0, 78, 31
1, 96240, Note_on_c, 0, 78, 0
1, 96241, Note_on_c, 0, 79, 31
1, 96242, Note_on_c, 1, 71, 41
1, 96300, Note_on_c, 0, 79, 0
1, 96300, Note_on_c, 1, 71, 0
1, 96301, Note_on_c, 0, 74, 31
1, 96360, Note_on_c, 0, 74, 0
1, 96361, Note_on_c, 0, 81, 31
1, 96362, Note_on_c, 1, 69, 41
1, 96420, Note_on_c, 0, 81, 0
1, 96420, Note_on_c, 1, 69, 0
1, 96421, Note_on_c, 0, 74, 31
1, 96480, Note_on_c, 0, 74, 0
1, 96481, Note_on_c, 0, 83, 31
1, 96482, Note_on_c, 1, 67, 41
1, 96540, Note_on_c, 0, 83, 0
1, 96540, Note_on_c, 1, 67, 0
1, 96541, Note_on_c, 0, 74, 31
1, 96600, Note_on_c, 0, 74, 0
1, 96601, Note_on_c, 0, 81, 31
1, 96602, Note_on_c, 1, 66, 41
1, 96660, Note_on_c, 0, 81, 0
1, 96660, Note_on_c, 1, 66, 0
1, 96661, Note_on_c, 0, 74, 31
1, 96720, Note_on_c, 0, 74, 0
1, 96721, Note_on_c, 0, 81, 31
1, 96722, Note_on_c, 1, 64, 41
1, 96780, Note_on_c, 0, 81, 0
1, 96781, Note_on_c, 0, 80, 31
1, 96840, Note_on_c, 0, 80, 0
1, 96841, Note_on_c, 0, 78, 31
1, 96900, Note_on_c, 0, 78, 0
1, 96901, Note_on_c, 0, 76, 31
1, 96960, Note_on_c, 0, 76, 0
1, 96960, Note_on_c, 1, 64, 0
1, 96961, Note_on_c, 0, 75, 47
1, 97020, Note_on_c, 0, 75, 0
1, 97021, Note_on_c, 0, 76, 47
1, 97080, Note_on_c, 0, 76, 0
1, 97081, Note_on_c, 0, 78, 47
1, 97082, Note_on_c, 1, 74, 62
1, 97140, Note_on_c, 0, 78, 0
1, 97140, Note_on_c, 1, 74, 0
1, 97141, Note_on_c, 0, 79, 47
1, 97200, Note_on_c, 0, 79, 0
1, 97201, Note_on_c, 0, 81, 47
1, 97202, Note_on_c, 1, 72, 62
1, 97260, Note_on_c, 0, 81, 0
1, 97260, Note_on_c, 1, 72, 0
1, 97261, Note_on_c, 0, 76, 47
1, 97320, Note_on_c, 0, 76, 0
1, 97321, Note_on_c, 0, 83, 47
1, 97322, Note_on_c, 1, 71, 62
1, 97380, Note_on_c, 0, 83, 0
1, 97380, Note_on_c, 1, 71, 0
1, 97381, Note_on_c, 0, 76, 47
1, 97440, Note_on_c, 0, 76, 0
1, 97441, Note_on_c, 0, 84, 47
1, 97442, Note_on_c, 1, 69, 62
1, 97500, Note_on_c, 0, 84, 0
1, 97500, Note_on_c, 1, 69, 0
1, 97501, Note_on_c, 0, 76, 47
1, 97560, Note_on_c, 0, 76, 0
1, 97561, Note_on_c, 0, 83, 47
1, 97562, Note_on_c, 1, 67, 62
1, 97620, Note_on_c, 0, 83, 0
1, 97620, Note_on_c, 1, 67, 0
1, 97621, Note_on_c, 0, 76, 47
1, 97680, Note_on_c, 0, 76, 0
1, 97681, Note_on_c, 0, 83, 47
1, 97682, Note_on_c, 1, 66, 62
1, 97740, Note_on_c, 0, 83, 0
1, 97741, Note_on_c, 0, 82, 47
1, 97800, Note_on_c, 0, 82, 0
1, 97801, Note_on_c, 0, 80, 47
1, 97860, Note_on_c, 0, 80, 0
1, 97861, Note_on_c, 0, 78, 47
1, 97920, Note_on_c, 0, 78, 0
1, 97920, Note_on_c, 1, 66, 0
1, 97921, Note_on_c, 0, 77, 63
1, 97980, Note_on_c, 0, 77, 0
1, 97981, Note_on_c, 0, 79, 63
1, 98040, Note_on_c, 0, 79, 0
1, 98041, Note_on_c, 0, 80, 63
1, 98042, Note_on_c, 4, 64, 56
1, 98100, Note_on_c, 0, 80, 0
1, 98100, Note_on_c, 4, 64, 0
1, 98101, Note_on_c, 0, 81, 63
1, 98160, Note_on_c, 0, 81, 0
1, 98161, Note_on_c, 0, 83, 63
1, 98162, Note_on_c, 4, 64, 56
1, 98220, Note_on_c, 4, 64, 0
1, 98221, Note_on_c, 4, 63, 56
1, 98280, Note_on_c, 4, 63, 0
1, 98281, Note_on_c, 4, 61, 56
1, 98340, Note_on_c, 4, 61, 0
1, 98341, Note_on_c, 4, 59, 56
1, 98400, Note_on_c, 0, 83, 0
1, 98400, Note_on_c, 4, 59, 0
1, 98401, Note_on_c, 4, 58, 56
1, 98460, Note_on_c, 4, 58, 0
1, 98461, Note_on_c, 4, 59, 56
1, 98520, Note_on_c, 4, 59, 0
1, 98521, Note_on_c, 4, 61, 56
1, 98522, Note_on_c, 0, 81, 63
1, 98580, Note_on_c, 0, 81, 0
1, 98580, Note_on_c, 4, 61, 0
1, 98581, Note_on_c, 4, 63, 56
1, 98640, Note_on_c, 4, 63, 0
1, 98641, Note_on_c, 4, 64, 56
1, 98642, Note_on_c, 0, 81, 63
1, 98700, Note_on_c, 0, 81, 0
1, 98701, Note_on_c, 0, 80, 63
1, 98760, Note_on_c, 0, 80, 0
1, 98761, Note_on_c, 0, 78, 63
1, 98820, Note_on_c, 0, 78, 0
1, 98821, Note_on_c, 0, 76, 63
1, 98880, Note_on_c, 0, 76, 0
1, 98880, Note_on_c, 4, 64, 0
1, 98881, Note_on_c, 0, 75, 63
1, 98940, Note_on_c, 0, 75, 0
1, 98941, Note_on_c, 0, 76, 63
1, 99000, Note_on_c, 0, 76, 0
1, 99001, Note_on_c, 0, 78, 63
1, 99002, Note_on_c, 4, 62, 56
1, 99060, Note_on_c, 0, 78, 0
1, 99060, Note_on_c, 4, 62, 0
1, 99061, Note_on_c, 0, 80, 63
1, 99120, Note_on_c, 0, 80, 0
1, 99121, Note_on_c, 0, 81, 63
1, 99122, Note_on_c, 4, 62, 56
1, 99180, Note_on_c, 4, 62, 0
1, 99181, Note_on_c, 4, 61, 56
1, 99240, Note_on_c, 4, 61, 0
1, 99241, Note_on_c, 4, 59, 56
1, 99300, Note_on_c, 4, 59, 0
1, 99301, Note_on_c, 4, 57, 56
1, 99360, Note_on_c, 0, 81, 0
1, 99360, Note_on_c, 4, 57, 0
1, 99361, Note_on_c, 4, 56, 56
1, 99420, Note_on_c, 4, 56, 0
1, 99421, Note_on_c, 4, 57, 56
1, 99480, Note_on_c, 4, 57, 0
1, 99481, Note_on_c, 4, 59, 56
1, 99482, Note_on_c, 0, 79, 63
1, 99540, Note_on_c, 0, 79, 0
1, 99540, Note_on_c, 4, 59, 0
1, 99541, Note_on_c, 4, 61, 56
1, 99600, Note_on_c, 4, 61, 0
1, 99602, Note_on_c, 0, 79, 81
1, 99602, Note_on_c, 1, 62, 84
1, 99660, Note_on_c, 0, 79, 0
1, 99660, Note_on_c, 1, 62, 0
1, 99661, Note_on_c, 0, 78, 81
1, 99720, Note_on_c, 0, 78, 0
1, 99721, Note_on_c, 0, 76, 81
1, 99722, Note_on_c, 1, 71, 84
1, 99780, Note_on_c, 0, 76, 0
1, 99780, Note_on_c, 1, 71, 0
1, 99781, Note_on_c, 0, 74, 81
1, 99840, Note_on_c, 0, 74, 0
1, 99841, Note_on_c, 0, 78, 81
1, 99842, Note_on_c, 1, 61, 84
1, 99900, Note_on_c, 0, 78, 0
1, 99900, Note_on_c, 1, 61, 0
1, 99901, Note_on_c, 0, 76, 81
1, 99960, Note_on_c, 0, 76, 0
1, 99961, Note_on_c, 0, 74, 81
1, 99962, Note_on_c, 1, 69, 84
1, 100020, Note_on_c, 0, 74, 0
1, 100020, Note_on_c, 1, 69, 0
1, 100021, Note_on_c, 0, 73, 81
1, 100080, Note_on_c, 0, 73, 0
1, 100081, Note_on_c, 0, 76, 81
1, 100082, Note_on_c, 4, 59, 76
1, 100140, Note_on_c, 0, 76, 0
1, 100140, Note_on_c, 4, 59, 0
1, 100141, Note_on_c, 0, 74, 81
1, 100200, Note_on_c, 0, 74, 0
1, 100201, Note_on_c, 0, 73, 81
1, 100202, Note_on_c, 4, 68, 76
1, 100260, Note_on_c, 0, 73, 0
1, 100260, Note_on_c, 4, 68, 0
1, 100261, Note_on_c, 0, 71, 81
1, 100320, Note_on_c, 0, 71, 0
1, 100321, Note_on_c, 0, 74, 81
1, 100322, Note_on_c, 4, 57, 76
1, 100380, Note_on_c, 0, 74, 0
1, 100380, Note_on_c, 4, 57, 0
1, 100381, Note_on_c, 0, 73, 81
1, 100440, Note_on_c, 0, 73, 0
1, 100441, Note_on_c, 0, 71, 63
1, 100442, Note_on_c, 4, 66, 76
1, 100500, Note_on_c, 0, 71, 0
1, 100500, Note_on_c, 4, 66, 0
1, 100501, Note_on_c, 0, 69, 63
1, 100560, Note_on_c, 0, 69, 0
1, 100561, Note_on_c, 0, 71, 47
1, 100562, Note_on_c, 1, 69, 41
1, 100620, Note_on_c, 0, 71, 0
1, 100620, Note_on_c, 1, 69, 0
1, 100621, Note_on_c, 1, 67, 41
1, 100680, Note_on_c, 1, 67, 0
1, 100681, Note_on_c, 1, 66, 41
1, 100682, Note_on_c, 0, 76, 47
1, 100740, Note_on_c, 0, 76, 0
1, 100740, Note_on_c, 1, 66, 0
1, 100741, Note_on_c, 1, 64, 41
1, 100800, Note_on_c, 1, 64, 0
1, 100801, Note_on_c, 1, 67, 41
1, 100802, Note_on_c, 0, 69, 47
1, 100860, Note_on_c, 0, 69, 0
1, 100860, Note_on_c, 1, 67, 0
1, 100861, Note_on_c, 1, 66, 41
1, 100920, Note_on_c, 1, 66, 0
1, 100921, Note_on_c, 1, 64, 41
1, 100922, Note_on_c, 0, 74, 47
1, 100980, Note_on_c, 0, 74, 0
1, 100980, Note_on_c, 1, 64, 0
1, 100981, Note_on_c, 1, 62, 41
1, 101040, Note_on_c, 1, 62, 0
1, 101042, Note_on_c, 0, 67, 31
1, 101042, Note_on_c, 4, 64, 23
1, 101100, Note_on_c, 0, 67, 0
1, 101100, Note_on_c, 4, 64, 0
1, 101101, Note_on_c, 0, 71, 31
1, 101160, Note_on_c, 0, 71, 0
1, 101161, Note_on_c, 0, 69, 31
1, 101162, Note_on_c, 4, 61, 23
1, 101220, Note_on_c, 0, 69, 0
1, 101220, Note_on_c, 4, 61, 0
1, 101221, Note_on_c, 0, 67, 31
1, 101280, Note_on_c, 0, 67, 0
1, 101281, Note_on_c, 0, 66, 31
1, 101282, Note_on_c, 4, 62, 23
1, 101340, Note_on_c, 0, 66, 0
1, 101340, Note_on_c, 4, 62, 0
1, 101341, Note_on_c, 0, 69, 31
1, 101400, Note_on_c, 0, 69, 0
1, 101401, Note_on_c, 0, 67, 31
1, 101402, Note_on_c, 4, 54, 23
1, 101460, Note_on_c, 0, 67, 0
1, 101460, Note_on_c, 4, 54, 0
1, 101461, Note_on_c, 0, 66, 31
1, 101520, Note_on_c, 0, 66, 0
1, 101521, Note_on_c, 0, 64, 31
1, 101522, Note_on_c, 4, 55, 23
1, 101580, Note_on_c, 0, 64, 0
1, 101642, Note_on_c, 0, 71, 47
1, 101642, Note_on_c, 1, 67, 62
1, 101760, Note_on_c, 0, 71, 0
1, 101760, Note_on_c, 1, 67, 0
1, 101760, Note_on_c, 4, 55, 0
1, 101761, Tempo, 714285
1, 101761, Note_on_c, 0, 69, 47
1, 101761, Note_on_c, 1, 66, 62
1, 101880, Note_on_c, 0, 69, 0
1, 101880, Note_on_c, 1, 66, 0
1, 101881, Note_on_c, 0, 61, 63
1, 101882, Note_on_c, 4, 55, 37
1, 101882, Note_on_c, 5, 45, 37
1, 101882, Note_on_c, 6, 33, 37
1, 101940, Note_on_c, 0, 61, 0
1, 101940, Note_on_c, 4, 55, 0
1, 101940, Note_on_c, 5, 45, 0
1, 101940, Note_on_c, 6, 33, 0
1, 102002, Note_on_c, 0, 62, 63
1, 102002, Note_on_c, 4, 54, 37
1, 102002, Note_on_c, 5, 47, 37
1, 102002, Note_on_c, 6, 35, 37
1, 102121, Tempo, 480000
1, 102240, Note_on_c, 0, 62, 0
1, 102240, Note_on_c, 4, 54, 0
1, 102240, Note_on_c, 5, 47, 0
1, 102240, Note_on_c, 6, 35, 0
1, 102362, Note_on_c, 0, 78, 31
1, 102362, Note_on_c, 1, 62, 41
1, 102480, Note_on_c, 0, 78, 0
1, 102480, Note_on_c, 1, 62, 0
1, 102481, Note_on_c, 0, 79, 31
1, 102481, Note_on_c, 1, 61, 41
1, 102600, Note_on_c, 0, 79, 0
1, 102600, Note_on_c, 1, 61, 0
1, 102601, Note_on_c, 0, 76, 31
1, 102601, Note_on_c, 1, 64, 41
1, 102720, Note_on_c, 0, 76, 0
1, 102720, Note_on_c, 1, 64, 0
1, 102721, Note_on_c, 0, 78, 31
1, 102721, Note_on_c, 1, 63, 41
1, 102840, Note_on_c, 0, 78, 0
1, 102840, Note_on_c, 1, 63, 0
1, 102841, Note_on_c, 0, 75, 31
1, 102841, Note_on_c, 1, 66, 41
1, 102960, Note_on_c, 0, 75, 0
1, 102960, Note_on_c, 1, 66, 0
1, 102961, Note_on_c, 0, 76, 31
1, 102961, Note_on_c, 1, 64, 41
1, 103080, Note_on_c, 0, 76, 0
1, 103080, Note_on_c, 1, 64, 0
1, 103081, Note_on_c, 0, 73, 31
1, 103081, Note_on_c, 1, 67, 41
1, 103200, Note_on_c, 0, 73, 0
1, 103200, Note_on_c, 1, 67, 0
1, 103201, Note_on_c, 0, 74, 31
1, 103201, Note_on_c, 1, 66, 41
1, 103320, Note_on_c, 0, 74, 0
1, 103320, Note_on_c, 1, 66, 0
1, 103321, Note_on_c, 0, 81, 31
1, 103321, Note_on_c, 1, 76, 41
1, 103322, Note_on_c, 2, 73, 62
1, 103440, Note_on_c, 0, 81, 0
1, 103440, Note_on_c, 1, 76, 0
1, 103440, Note_on_c, 2, 73, 0
1, 103441, Note_on_c, 0, 80, 19
1, 103441, Note_on_c, 1, 77, 25
1, 103441, Note_on_c, 2, 74, 25
1, 103560, Note_on_c, 0, 80, 0
1, 103560, Note_on_c, 1, 77, 0
1, 103560, Note_on_c, 2, 74, 0
1, 103561, Note_on_c, 0, 83, 19
1, 103561, Note_on_c, 1, 74, 25
1, 103561, Note_on_c, 2, 71, 25
1, 103680, Note_on_c, 0, 83, 0
1, 103680, Note_on_c, 1, 74, 0
1, 103680, Note_on_c, 2, 71, 0
1, 103681, Note_on_c, 0, 81, 19
1, 103681, Note_on_c, 1, 76, 25
1, 103681, Note_on_c, 2, 73, 25
1, 103800, Note_on_c, 0, 81, 0
1, 103800, Note_on_c, 1, 76, 0
1, 103800, Note_on_c, 2, 73, 0
1, 103801, Note_on_c, 0, 85, 19
1, 103801, Note_on_c, 1, 73, 25
1, 103801, Note_on_c, 2, 69, 25
1, 103920, Note_on_c, 0, 85, 0
1, 103920, Note_on_c, 1, 73, 0
1, 103920, Note_on_c, 2, 69, 0
1, 103921, Note_on_c, 0, 83, 19
1, 103921, Note_on_c, 1, 74, 25
1, 103921, Note_on_c, 2, 71, 25
1, 104040, Note_on_c, 0, 83, 0
1, 104040, Note_on_c, 1, 74, 0
1, 104040, Note_on_c, 2, 71, 0
1, 104041, Note_on_c, 0, 86, 19
1, 104041, Note_on_c, 1, 71, 25
1, 104041, Note_on_c, 2, 68, 25
1, 104160, Note_on_c, 0, 86, 0
1, 104160, Note_on_c, 1, 71, 0
1, 104160, Note_on_c, 2, 68, 0
1, 104161, Note_on_c, 0, 85, 19
1, 104161, Note_on_c, 1, 73, 25
1, 104161, Note_on_c, 2, 69, 25
1, 104280, Note_on_c, 0, 85, 0
1, 104280, Note_on_c, 1, 73, 0
1, 104280, Note_on_c, 2, 69, 0
1, 104281, Note_on_c, 0, 88, 19
1, 104281, Note_on_c, 1, 76, 25
1, 104282, Note_on_c, 4, 61, 23
1, 104400, Note_on_c, 1, 76, 0
1, 104400, Note_on_c, 4, 61, 0
1, 104401, Note_on_c, 1, 78, 25
1, 104401, Note_on_c, 4, 62, 23
1, 104520, Note_on_c, 0, 88, 0
1, 104520, Note_on_c, 4, 62, 0
1, 104521, Note_on_c, 0, 86, 31
1, 104521, Note_on_c, 4, 59, 23
1, 104640, Note_on_c, 1, 78, 0
1, 104640, Note_on_c, 4, 59, 0
1, 104641, Note_on_c, 1, 76, 41
1, 104641, Note_on_c, 4, 61, 23
1, 104760, Note_on_c, 0, 86, 0
1, 104760, Note_on_c, 4, 61, 0
1, 104761, Note_on_c, 0, 85, 47
1, 104761, Note_on_c, 4, 58, 23
1, 104880, Note_on_c, 1, 76, 0
1, 104880, Note_on_c, 4, 58, 0
1, 104881, Note_on_c, 1, 74, 41
1, 104881, Note_on_c, 4, 59, 37
1, 105000, Note_on_c, 0, 85, 0
1, 105000, Note_on_c, 4, 59, 0
1, 105001, Note_on_c, 0, 83, 63
1, 105001, Note_on_c, 4, 56, 37
1, 105120, Note_on_c, 1, 74, 0
1, 105120, Note_on_c, 4, 56, 0
1, 105121, Note_on_c, 1, 73, 62
1, 105121, Note_on_c, 4, 57, 56
1, 105240, Note_on_c, 0, 83, 0
1, 105240, Note_on_c, 1, 73, 0
1, 105241, Note_on_c, 0, 81, 81
1, 105241, Note_on_c, 1, 66, 84
1, 105360, Note_on_c, 0, 81, 0
1, 105360, Note_on_c, 1, 66, 0
1, 105360, Note_on_c, 4, 57, 0
1, 105361, Note_on_c, 0, 83, 81
1, 105361, Note_on_c, 1, 67, 84
1, 105361, Note_on_c, 4, 57, 56
1, 105420, Note_on_c, 0, 83, 0
1, 105421, Note_on_c, 0, 85, 81
1, 105480, Note_on_c, 0, 85, 0
1, 105480, Note_on_c, 1, 67, 0
1, 105481, Note_on_c, 0, 86, 81
1, 105481, Note_on_c, 1, 64, 84
1, 105540, Note_on_c, 0, 86, 0
1, 105541, Note_on_c, 0, 88, 81
1, 105600, Note_on_c, 0, 88, 0
1, 105600, Note_on_c, 1, 64, 0
1, 105601, Note_on_c, 0, 81, 81
1, 105601, Note_on_c, 1, 66, 84
1, 105660, Note_on_c, 0, 81, 0
1, 105661, Note_on_c, 0, 84, 81
1, 105720, Note_on_c, 0, 84, 0
1, 105720, Note_on_c, 1, 66, 0
1, 105721, Note_on_c, 0, 83, 81
1, 105721, Note_on_c, 1, 63, 84
1, 105780, Note_on_c, 0, 83, 0
1, 105781, Note_on_c, 0, 81, 81
1, 105840, Note_on_c, 0, 81, 0
1, 105840, Note_on_c, 1, 63, 0
1, 105841, Note_on_c, 0, 79, 81
1, 105841, Note_on_c, 1, 64, 84
1, 105900, Note_on_c, 0, 79, 0
1, 105901, Note_on_c, 0, 83, 81
1, 105960, Note_on_c, 0, 83, 0
1, 105960, Note_on_c, 1, 64, 0
1, 105961, Note_on_c, 0, 81, 63
1, 105961, Note_on_c, 1, 61, 62
1, 106020, Note_on_c, 0, 81, 0
1, 106021, Note_on_c, 0, 79, 63
1, 106080, Note_on_c, 0, 79, 0
1, 106080, Note_on_c, 1, 61, 0
1, 106081, Note_on_c, 0, 78, 63
1, 106081, Note_on_c, 1, 62, 62
1, 106140, Note_on_c, 0, 78, 0
1, 106141, Note_on_c, 0, 81, 63
1, 106200, Note_on_c, 0, 81, 0
1, 106200, Note_on_c, 1, 62, 0
1, 106201, Note_on_c, 0, 79, 63
1, 106201, Note_on_c, 1, 66, 62
1, 106260, Note_on_c, 0, 79, 0
1, 106261, Note_on_c, 0, 78, 63
1, 106320, Note_on_c, 0, 78, 0
1, 106320, Note_on_c, 1, 66, 0
1, 106321, Note_on_c, 0, 76, 63
1, 106321, Note_on_c, 1, 67, 62
1, 106380, Note_on_c, 0, 76, 0
1, 106381, Note_on_c, 0, 75, 63
1, 106440, Note_on_c, 0, 75, 0
1, 106440, Note_on_c, 1, 67, 0
1, 106441, Note_on_c, 0, 76, 81
1, 106441, Note_on_c, 1, 66, 84
1, 106500, Note_on_c, 0, 76, 0
1, 106501, Note_on_c, 0, 75, 81
1, 106560, Note_on_c, 0, 75, 0
1, 106560, Note_on_c, 1, 66, 0
1, 106561, Note_on_c, 0, 76, 81
1, 106561, Note_on_c, 1, 67, 84
1, 106620, Note_on_c, 0, 76, 0
1, 106621, Note_on_c, 0, 78, 81
1, 106680, Note_on_c, 0, 78, 0
1, 106680, Note_on_c, 1, 67, 0
1, 106681, Note_on_c, 0, 76, 81
1, 106681, Note_on_c, 1, 68, 84
1, 106740, Note_on_c, 0, 76, 0
1, 106741, Note_on_c, 0, 74, 81
1, 106800, Note_on_c, 0, 74, 0
1, 106800, Note_on_c, 1, 68, 0
1, 106801, Note_on_c, 0, 73, 81
1, 106801, Note_on_c, 1, 69, 84
1, 106860, Note_on_c, 0, 73, 0
1, 106861, Note_on_c, 0, 74, 81
1, 106920, Note_on_c, 0, 74, 0
1, 106921, Note_on_c, 0, 76, 63
1, 106980, Note_on_c, 0, 76, 0
1, 106981, Note_on_c, 0, 74, 63
1, 107040, Note_on_c, 0, 74, 0
1, 107040, Note_on_c, 1, 69, 0
1, 107040, Note_on_c, 4, 57, 0
1, 107041, Note_on_c, 0, 73, 63
1, 107100, Note_on_c, 0, 73, 0
1, 107101, Note_on_c, 0, 71, 47
1, 107160, Note_on_c, 0, 71, 0
1, 107161, Note_on_c, 0, 69, 47
1, 107162, Note_on_c, 4, 57, 23
1, 107220, Note_on_c, 0, 69, 0
1, 107221, Note_on_c, 0, 67, 47
1, 107280, Note_on_c, 0, 67, 0
1, 107280, Note_on_c, 4, 57, 0
1, 107281, Note_on_c, 0, 66, 31
1, 107281, Note_on_c, 4, 59, 23
1, 107400, Note_on_c, 4, 59, 0
1, 107401, Note_on_c, 4, 56, 23
1, 107520, Note_on_c, 0, 66, 0
1, 107520, Note_on_c, 4, 56, 0
1, 107521, Note_on_c, 4, 57, 23
1, 107640, Note_on_c, 4, 57, 0
1, 107641, Note_on_c, 4, 54, 23
1, 107642, Note_on_c, 0, 62, 31
1, 107760, Note_on_c, 0, 62, 0
1, 107760, Note_on_c, 4, 54, 0
1, 107761, Note_on_c, 0, 64, 31
1, 107761, Note_on_c, 4, 55, 37
1, 107880, Note_on_c, 0, 64, 0
1, 107880, Note_on_c, 4, 55, 0
1, 107881, Note_on_c, 0, 61, 31
1, 107881, Note_on_c, 4, 52, 37
1, 107993, Tempo, 500000
1, 108000, Note_on_c, 0, 61, 0
1, 108000, Note_on_c, 4, 52, 0
1, 108001, Note_on_c, 0, 62, 31
1, 108001, Note_on_c, 4, 54, 37
1, 108120, Note_on_c, 0, 62, 0
1, 108120, Note_on_c, 4, 54, 0
1, 108121, Note_on_c, 0, 71, 31
1, 108121, Note_on_c, 4, 51, 37
1, 108122, Note_on_c, 1, 66, 41
1, 108240, Note_on_c, 0, 71, 0
1, 108240, Note_on_c, 1, 66, 0
1, 108240, Note_on_c, 4, 51, 0
1, 108241, Tempo, 526315
1, 108241, Note_on_c, 0, 72, 47
1, 108241, Note_on_c, 1, 67, 62
1, 108241, Note_on_c, 4, 52, 56
1, 108360, Note_on_c, 0, 72, 0
1, 108360, Note_on_c, 1, 67, 0
1, 108360, Note_on_c, 4, 52, 0
1, 108361, Note_on_c, 0, 70, 47
1, 108361, Note_on_c, 1, 64, 62
1, 108361, Note_on_c, 4, 49, 56
1, 108480, Note_on_c, 0, 70, 0
1, 108480, Note_on_c, 1, 64, 0
1, 108480, Note_on_c, 4, 49, 0
1, 108481, Note_on_c, 0, 71, 47
1, 108481, Note_on_c, 1, 66, 62
1, 108481, Note_on_c, 4, 50, 56
1, 108600, Note_on_c, 0, 71, 0
1, 108600, Note_on_c, 1, 66, 0
1, 108600, Note_on_c, 4, 50, 0
1, 108601, Note_on_c, 0, 68, 47
1, 108601, Note_on_c, 1, 62, 62
1, 108601, Note_on_c, 4, 47, 56
1, 108720, Tempo, 600000
1, 108720, Note_on_c, 0, 68, 0
1, 108720, Note_on_c, 1, 62, 0
1, 108720, Note_on_c, 4, 47, 0
1, 108721, Note_on_c, 0, 69, 63
1, 108721, Note_on_c, 1, 64, 84
1, 108721, Note_on_c, 4, 48, 56
1, 108840, Note_on_c, 0, 69, 0
1, 108840, Note_on_c, 1, 64, 0
1, 108840, Note_on_c, 4, 48, 0
1, 108841, Note_on_c, 0, 66, 63
1, 108841, Note_on_c, 1, 60, 84
1, 108841, Note_on_c, 4, 45, 56
1, 108960, Note_on_c, 0, 66, 0
1, 108960, Note_on_c, 1, 60, 0
1, 108960, Note_on_c, 4, 45, 0
1, 108961, Note_on_c, 0, 67, 63
1, 108961, Note_on_c, 1, 62, 84
1, 108961, Note_on_c, 4, 47, 56
1, 109080, Note_on_c, 0, 67, 0
1, 109080, Note_on_c, 1, 62, 0
1, 109080, Note_on_c, 4, 47, 0
1, 109081, Note_on_c, 0, 71, 63
1, 109081, Note_on_c, 4, 43, 56
1, 109140, Note_on_c, 0, 71, 0
1, 109140, Note_on_c, 4, 43, 0
1, 109200, Tempo, 1000000
1, 109202, Note_on_c, 0, 62, 81
1, 109202, Note_on_c, 4, 55, 76
1, 109202, Note_on_c, 5, 52, 66
1, 109202, Note_on_c, 6, 45, 66
1, 109440, Note_on_c, 0, 62, 0
1, 109441, Note_on_c, 0, 61, 54
1, 109560, Note_on_c, 0, 61, 0
1, 109560, Note_on_c, 4, 55, 0
1, 109560, Note_on_c, 5, 52, 0
1, 109560, Note_on_c, 6, 45, 0
1, 109561, Note_on_c, 0, 74, 81
1, 109620, Note_on_c, 0, 74, 0
1, 109680, Tempo, 480000
1, 109682, Note_on_c, 0, 74, 81
1, 109740, Note_on_c, 0, 74, 0
1, 109741, Note_on_c, 0, 73, 81
1, 109800, Note_on_c, 0, 73, 0
1, 109801, Note_on_c, 0, 71, 81
1, 109860, Note_on_c, 0, 71, 0
1, 109861, Note_on_c, 0, 69, 81
1, 109920, Note_on_c, 0, 69, 0
1, 109921, Note_on_c, 0, 68, 81
1, 109980, Note_on_c, 0, 68, 0
1, 109981, Note_on_c, 0, 69, 81
1, 110040, Note_on_c, 0, 69, 0
1, 110041, Note_on_c, 0, 71, 81
1, 110042, Note_on_c, 1, 67, 84
1, 110100, Note_on_c, 0, 71, 0
1, 110100, Note_on_c, 1, 67, 0
1, 110101, Note_on_c, 0, 73, 81
1, 110160, Note_on_c, 0, 73, 0
1, 110161, Note_on_c, 0, 74, 81
1, 110162, Note_on_c, 1, 67, 84
1, 110220, Note_on_c, 1, 67, 0
1, 110221, Note_on_c, 1, 66, 84
1, 110280, Note_on_c, 1, 66, 0
1, 110281, Note_on_c, 1, 64, 84
1, 110340, Note_on_c, 1, 64, 0
1, 110341, Note_on_c, 1, 62, 84
1, 110400, Note_on_c, 0, 74, 0
1, 110400, Note_on_c, 1, 62, 0
1, 110401, Note_on_c, 1, 61, 84
1, 110460, Note_on_c, 1, 61, 0
1, 110461, Note_on_c, 1, 62, 84
1, 110520, Note_on_c, 1, 62, 0
1, 110521, Note_on_c, 1, 64, 84
1, 110522, Note_on_c, 0, 81, 81
1, 110580, Note_on_c, 0, 81, 0
1, 110580, Note_on_c, 1, 64, 0
1, 110581, Note_on_c, 1, 66, 84
1, 110640, Note_on_c, 1, 66, 0
1, 110641, Note_on_c, 1, 67, 84
1, 110642, Note_on_c, 0, 81, 81
1, 110700, Note_on_c, 0, 81, 0
1, 110701, Note_on_c, 0, 79, 81
1, 110760, Note_on_c, 0, 79, 0
1, 110761, Note_on_c, 0, 78, 81
1, 110820, Note_on_c, 0, 78, 0
1, 110821, Note_on_c, 0, 76, 81
1, 110880, Note_on_c, 0, 76, 0
1, 110880, Note_on_c, 1, 67, 0
1, 110881, Note_on_c, 0, 75, 81
1, 110940, Note_on_c, 0, 75, 0
1, 110941, Note_on_c, 0, 76, 81
1, 111000, Note_on_c, 0, 76, 0
1, 111001, Note_on_c, 0, 78, 81
1, 111002, Note_on_c, 1, 67, 84
1, 111060, Note_on_c, 0, 78, 0
1, 111060, Note_on_c, 1, 67, 0
1, 111061, Note_on_c, 0, 79, 81
1, 111120, Note_on_c, 0, 79, 0
1, 111121, Note_on_c, 0, 81, 81
1, 111122, Note_on_c, 1, 67, 84
1, 111180, Note_on_c, 1, 67, 0
1, 111181, Note_on_c, 1, 66, 84
1, 111240, Note_on_c, 1, 66, 0
1, 111241, Note_on_c, 1, 64, 84
1, 111300, Note_on_c, 1, 64, 0
1, 111301, Note_on_c, 1, 62, 84
1, 111360, Note_on_c, 0, 81, 0
1, 111360, Note_on_c, 1, 62, 0
1, 111361, Note_on_c, 1, 61, 84
1, 111420, Note_on_c, 1, 61, 0
1, 111421, Note_on_c, 1, 62, 84
1, 111480, Note_on_c, 1, 62, 0
1, 111481, Note_on_c, 1, 64, 84
1, 111482, Note_on_c, 0, 86, 81
1, 111540, Note_on_c, 0, 86, 0
1, 111540, Note_on_c, 1, 64, 0
1, 111541, Note_on_c, 1, 66, 84
1, 111600, Note_on_c, 1, 66, 0
1, 111601, Note_on_c, 1, 67, 84
1, 111602, Note_on_c, 0, 86, 81
1, 111660, Note_on_c, 0, 86, 0
1, 111661, Note_on_c, 0, 85, 81
1, 111720, Note_on_c, 0, 85, 0
1, 111721, Note_on_c, 0, 83, 81
1, 111780, Note_on_c, 0, 83, 0
1, 111781, Note_on_c, 0, 81, 81
1, 111840, Note_on_c, 0, 81, 0
1, 111840, Note_on_c, 1, 67, 0
1, 111841, Note_on_c, 0, 80, 81
1, 111900, Note_on_c, 0, 80, 0
1, 111901, Note_on_c, 0, 81, 81
1, 111960, Note_on_c, 0, 81, 0
1, 111961, Note_on_c, 0, 83, 81
1, 111962, Note_on_c, 1, 79, 84
1, 112020, Note_on_c, 0, 83, 0
1, 112020, Note_on_c, 1, 79, 0
1, 112021, Note_on_c, 0, 85, 81
1, 112080, Note_on_c, 0, 85, 0
1, 112081, Note_on_c, 0, 86, 81
1, 112082, Note_on_c, 1, 78, 84
1, 112140, Note_on_c, 0, 86, 0
1, 112140, Note_on_c, 1, 78, 0
1, 112141, Note_on_c, 0, 81, 81
1, 112200, Note_on_c, 0, 81, 0
1, 112201, Note_on_c, 0, 85, 81
1, 112202, Note_on_c, 1, 76, 84
1, 112260, Note_on_c, 0, 85, 0
1, 112260, Note_on_c, 1, 76, 0
1, 112261, Note_on_c, 0, 79, 81
1, 112320, Note_on_c, 0, 79, 0
1, 112321, Note_on_c, 0, 83, 63
1, 112322, Note_on_c, 1, 74, 62
1, 112380, Note_on_c, 0, 83, 0
1, 112380, Note_on_c, 1, 74, 0
1, 112381, Note_on_c, 0, 78, 63
1, 112440, Note_on_c, 0, 78, 0
1, 112441, Note_on_c, 0, 81, 63
1, 112442, Note_on_c, 1, 73, 62
1, 112500, Note_on_c, 0, 81, 0
1, 112500, Note_on_c, 1, 73, 0
1, 112501, Note_on_c, 0, 76, 63
1, 112560, Note_on_c, 0, 76, 0
1, 112561, Note_on_c, 0, 78, 63
1, 112562, Note_on_c, 1, 71, 62
1, 112620, Note_on_c, 0, 78, 0
1, 112620, Note_on_c, 1, 71, 0
1, 112621, Note_on_c, 0, 74, 63
1, 112680, Note_on_c, 0, 74, 0
1, 112681, Note_on_c, 0, 78, 63
1, 112682, Note_on_c, 1, 69, 62
1, 112740, Note_on_c, 0, 78, 0
1, 112740, Note_on_c, 1, 69, 0
1, 112741, Note_on_c, 0, 73, 63
1, 112800, Note_on_c, 0, 73, 0
1, 112801, Note_on_c, 0, 76, 47
1, 112802, Note_on_c, 1, 67, 41
1, 112860, Note_on_c, 0, 76, 0
1, 112860, Note_on_c, 1, 67, 0
1, 112861, Note_on_c, 0, 71, 47
1, 112920, Note_on_c, 0, 71, 0
1, 112921, Note_on_c, 0, 75, 47
1, 112922, Note_on_c, 1, 66, 41
1, 112980, Note_on_c, 0, 75, 0
1, 112980, Note_on_c, 1, 66, 0
1, 112981, Note_on_c, 0, 71, 47
1, 113040, Note_on_c, 0, 71, 0
1, 113041, Note_on_c, 0, 76, 31
1, 113042, Note_on_c, 1, 67, 25
1, 113100, Note_on_c, 0, 76, 0
1, 113100, Note_on_c, 1, 67, 0
1, 113101, Note_on_c, 0, 71, 31
1, 113160, Note_on_c, 0, 71, 0
1, 113161, Note_on_c, 0, 75, 31
1, 113162, Note_on_c, 1, 66, 25
1, 113220, Note_on_c, 0, 75, 0
1, 113220, Note_on_c, 1, 66, 0
1, 113221, Note_on_c, 0, 71, 31
1, 113280, Note_on_c, 0, 71, 0
1, 113281, Note_on_c, 0, 76, 47
1, 113282, Note_on_c, 1, 67, 41
1, 113340, Note_on_c, 0, 76, 0
1, 113340, Note_on_c, 1, 67, 0
1, 113341, Note_on_c, 0, 71, 47
1, 113400, Note_on_c, 0, 71, 0
1, 113401, Note_on_c, 0, 78, 47
1, 113402, Note_on_c, 1, 63, 41
1, 113460, Note_on_c, 0, 78, 0
1, 113460, Note_on_c, 1, 63, 0
1, 113461, Note_on_c, 0, 71, 47
1, 113520, Note_on_c, 0, 71, 0
1, 113521, Note_on_c, 0, 79, 63
1, 113522, Note_on_c, 1, 64, 62
1, 113580, Note_on_c, 0, 79, 0
1, 113580, Note_on_c, 1, 64, 0
1, 113581, Note_on_c, 0, 71, 63
1, 113640, Note_on_c, 0, 71, 0
1, 113641, Note_on_c, 0, 78, 63
1, 113642, Note_on_c, 1, 63, 62
1, 113700, Note_on_c, 0, 78, 0
1, 113700, Note_on_c, 1, 63, 0
1, 113701, Note_on_c, 0, 71, 63
1, 113760, Note_on_c, 0, 71, 0
1, 113761, Note_on_c, 0, 79, 47
1, 113762, Note_on_c, 1, 64, 41
1, 113820, Note_on_c, 0, 79, 0
1, 113820, Note_on_c, 1, 64, 0
1, 113821, Note_on_c, 0, 71, 47
1, 113880, Note_on_c, 0, 71, 0
1, 113881, Note_on_c, 0, 73, 47
1, 113882, Note_on_c, 1, 66, 41
1, 113940, Note_on_c, 0, 73, 0
1, 113940, Note_on_c, 1, 66, 0
1, 113941, Note_on_c, 0, 69, 47
1, 114000, Note_on_c, 0, 69, 0
1, 114001, Note_on_c, 0, 74, 31
1, 114002, Note_on_c, 1, 66, 25
1, 114060, Note_on_c, 0, 74, 0
1, 114060, Note_on_c, 1, 66, 0
1, 114061, Note_on_c, 0, 69, 31
1, 114120, Note_on_c, 0, 69, 0
1, 114121, Note_on_c, 0, 73, 31
1, 114122, Note_on_c, 1, 67, 25
1, 114180, Note_on_c, 0, 73, 0
1, 114180, Note_on_c, 1, 67, 0
1, 114181, Note_on_c, 0, 69, 31
1, 114240, Note_on_c, 0, 69, 0
1, 114241, Note_on_c, 0, 74, 47
1, 114242, Note_on_c, 1, 66, 41
1, 114300, Note_on_c, 0, 74, 0
1, 114300, Note_on_c, 1, 66, 0
1, 114301, Note_on_c, 0, 69, 47
1, 114360, Note_on_c, 0, 69, 0
1, 114361, Note_on_c, 0, 76, 47
1, 114362, Note_on_c, 1, 61, 41
1, 114420, Note_on_c, 0, 76, 0
1, 114420, Note_on_c, 1, 61, 0
1, 114421, Note_on_c, 0, 69, 47
1, 114480, Note_on_c, 0, 69, 0
1, 114481, Note_on_c, 0, 78, 63
1, 114482, Note_on_c, 1, 62, 62
1, 114540, Note_on_c, 0, 78, 0
1, 114540, Note_on_c, 1, 62, 0
1, 114541, Note_on_c, 0, 69, 63
1, 114600, Note_on_c, 0, 69, 0
1, 114601, Note_on_c, 0, 76, 63
1, 114602, Note_on_c, 1, 61, 62
1, 114660, Note_on_c, 0, 76, 0
1, 114660, Note_on_c, 1, 61, 0
1, 114661, Note_on_c, 0, 69, 63
1, 114720, Note_on_c, 0, 69, 0
1, 114721, Note_on_c, 0, 78, 63
1, 114722, Note_on_c, 1, 62, 62
1, 114780, Note_on_c, 0, 78, 0
1, 114780, Note_on_c, 1, 62, 0
1, 114781, Note_on_c, 0, 69, 63
1, 114840, Note_on_c, 0, 69, 0
1, 114841, Note_on_c, 0, 76, 63
1, 114842, Note_on_c, 1, 60, 62
1, 114900, Note_on_c, 0, 76, 0
1, 114900, Note_on_c, 1, 60, 0
1, 114901, Note_on_c, 0, 69, 63
1, 114960, Note_on_c, 0, 69, 0
1, 114961, Note_on_c, 0, 76, 63
1, 114962, Note_on_c, 4, 59, 56
1, 115020, Note_on_c, 0, 76, 0
1, 115021, Note_on_c, 0, 75, 63
1, 115080, Note_on_c, 0, 75, 0
1, 115081, Note_on_c, 0, 73, 63
1, 115140, Note_on_c, 0, 73, 0
1, 115141, Note_on_c, 0, 71, 63
1, 115200, Note_on_c, 0, 71, 0
1, 115200, Note_on_c, 4, 59, 0
1, 115201, Note_on_c, 0, 70, 63
1, 115260, Note_on_c, 0, 70, 0
1, 115261, Note_on_c, 0, 71, 63
1, 115320, Note_on_c, 0, 71, 0
1, 115321, Note_on_c, 0, 73, 63
1, 115322, Note_on_c, 4, 57, 56
1, 115380, Note_on_c, 0, 73, 0
1, 115380, Note_on_c, 4, 57, 0
1, 115381, Note_on_c, 0, 75, 63
1, 115440, Note_on_c, 0, 75, 0
1, 115441, Note_on_c, 0, 76, 63
1, 115442, Note_on_c, 4, 57, 56
1, 115500, Note_on_c, 4, 57, 0
1, 115501, Note_on_c, 4, 55, 56
1, 115560, Note_on_c, 4, 55, 0
1, 115561, Note_on_c, 4, 54, 56
1, 115620, Note_on_c, 4, 54, 0
1, 115621, Note_on_c, 4, 52, 56
1, 115680, Note_on_c, 0, 76, 0
1, 115680, Note_on_c, 4, 52, 0
1, 115681, Note_on_c, 4, 51, 56
1, 115740, Note_on_c, 4, 51, 0
1, 115741, Note_on_c, 4, 52, 56
1, 115800, Note_on_c, 4, 52, 0
1, 115801, Note_on_c, 4, 54, 56
1, 115802, Note_on_c, 0, 74, 63
1, 115860, Note_on_c, 0, 74, 0
1, 115860, Note_on_c, 4, 54, 0
1, 115861, Note_on_c, 4, 55, 56
1, 115920, Note_on_c, 4, 55, 0
1, 115921, Note_on_c, 4, 57, 56
1, 115922, Note_on_c, 0, 74, 63
1, 115980, Note_on_c, 0, 74, 0
1, 115981, Note_on_c, 0, 73, 63
1, 116040, Note_on_c, 0, 73, 0
1, 116041, Note_on_c, 0, 71, 63
1, 116100, Note_on_c, 0, 71, 0
1, 116101, Note_on_c, 0, 69, 63
1, 116160, Note_on_c, 0, 69, 0
1, 116160, Note_on_c, 4, 57, 0
1, 116161, Note_on_c, 0, 68, 81
1, 116220, Note_on_c, 0, 68, 0
1, 116221, Note_on_c, 0, 69, 81
1, 116280, Note_on_c, 0, 69, 0
1, 116281, Note_on_c, 0, 71, 81
1, 116282, Note_on_c, 1, 67, 84
1, 116340, Note_on_c, 0, 71, 0
1, 116340, Note_on_c, 1, 67, 0
1, 116341, Note_on_c, 0, 73, 81
1, 116400, Note_on_c, 0, 73, 0
1, 116401, Note_on_c, 0, 74, 81
1, 116402, Note_on_c, 1, 67, 84
1, 116460, Note_on_c, 1, 67, 0
1, 116461, Note_on_c, 1, 66, 84
1, 116520, Note_on_c, 1, 66, 0
1, 116521, Note_on_c, 1, 64, 84
1, 116580, Note_on_c, 1, 64, 0
1, 116581, Note_on_c, 1, 62, 84
1, 116640, Note_on_c, 0, 74, 0
1, 116640, Note_on_c, 1, 62, 0
1, 116641, Note_on_c, 1, 61, 84
1, 116700, Note_on_c, 1, 61, 0
1, 116701, Note_on_c, 1, 62, 84
1, 116760, Note_on_c, 1, 62, 0
1, 116761, Note_on_c, 1, 64, 84
1, 116762, Note_on_c, 0, 81, 81
1, 116820, Note_on_c, 0, 81, 0
1, 116820, Note_on_c, 1, 64, 0
1, 116821, Note_on_c, 1, 66, 84
1, 116880, Note_on_c, 1, 66, 0
1, 116881, Note_on_c, 1, 67, 84
1, 116882, Note_on_c, 0, 81, 81
1, 116940, Note_on_c, 0, 81, 0
1, 116941, Note_on_c, 0, 71, 81
1, 117000, Note_on_c, 0, 71, 0
1, 117001, Note_on_c, 0, 73, 81
1, 117060, Note_on_c, 0, 73, 0
1, 117061, Note_on_c, 0, 71, 81
1, 117120, Note_on_c, 0, 71, 0
1, 117120, Note_on_c, 1, 67, 0
1, 117121, Note_on_c, 0, 79, 81
1, 117121, Note_on_c, 1, 64, 84
1, 117180, Note_on_c, 0, 79, 0
1, 117181, Note_on_c, 0, 78, 81
1, 117240, Note_on_c, 0, 78, 0
1, 117241, Note_on_c, 0, 76, 81
1, 117300, Note_on_c, 0, 76, 0
1, 117301, Note_on_c, 0, 74, 81
1, 117360, Note_on_c, 0, 74, 0
1, 117360, Note_on_c, 1, 64, 0
1, 117361, Note_on_c, 0, 73, 81
1, 117362, Note_on_c, 2, 69, 84
1, 117420, Note_on_c, 2, 69, 0
1, 117421, Note_on_c, 2, 67, 84
1, 117480, Note_on_c, 2, 67, 0
1, 117481, Note_on_c, 2, 66, 84
1, 117540, Note_on_c, 2, 66, 0
1, 117541, Note_on_c, 2, 64, 84
1, 117600, Note_on_c, 0, 73, 0
1, 117600, Note_on_c, 2, 64, 0
1, 117601, Note_on_c, 0, 81, 81
1, 117601, Note_on_c, 2, 62, 84
1, 117602, Note_on_c, 1, 78, 84
1, 117660, Note_on_c, 0, 81, 0
1, 117660, Note_on_c, 1, 78, 0
1, 117661, Note_on_c, 0, 79, 81
1, 117661, Note_on_c, 1, 76, 84
1, 117720, Note_on_c, 0, 79, 0
1, 117720, Note_on_c, 1, 76, 0
1, 117721, Note_on_c, 0, 78, 81
1, 117721, Note_on_c, 1, 74, 84
1, 117780, Note_on_c, 0, 78, 0
1, 117780, Note_on_c, 1, 74, 0
1, 117781, Note_on_c, 0, 76, 81
1, 117781, Note_on_c, 1, 73, 84
1, 117840, Note_on_c, 0, 76, 0
1, 117840, Note_on_c, 1, 73, 0
1, 117840, Note_on_c, 2, 62, 0
1, 117841, Note_on_c, 0, 74, 81
1, 117841, Note_on_c, 2, 71, 84
1, 117900, Note_on_c, 2, 71, 0
1, 117901, Note_on_c, 2, 69, 84
1, 117960, Note_on_c, 2, 69, 0
1, 117961, Note_on_c, 2, 67, 84
1, 118020, Note_on_c, 2, 67, 0
1, 118021, Note_on_c, 2, 66, 84
1, 118080, Note_on_c, 0, 74, 0
1, 118080, Note_on_c, 2, 66, 0
1, 118081, Note_on_c, 0, 83, 81
1, 118081, Note_on_c, 2, 64, 84
1, 118082, Note_on_c, 1, 79, 84
1, 118140, Note_on_c, 0, 83, 0
1, 118140, Note_on_c, 1, 79, 0
1, 118141, Note_on_c, 0, 81, 81
1, 118141, Note_on_c, 1, 78, 84
1, 118200, Note_on_c, 0, 81, 0
1, 118200, Note_on_c, 1, 78, 0
1, 118201, Note_on_c, 0, 79, 81
1, 118201, Note_on_c, 1, 76, 84
1, 118260, Note_on_c, 0, 79, 0
1, 118260, Note_on_c, 1, 76, 0
1, 118261, Note_on_c, 0, 78, 81
1, 118261, Note_on_c, 1, 74, 84
1, 118320, Note_on_c, 0, 78, 0
1, 118320, Note_on_c, 1, 74, 0
1, 118320, Note_on_c, 2, 64, 0
1, 118321, Note_on_c, 0, 76, 81
1, 118321, Note_on_c, 1, 73, 84
1, 118321, Note_on_c, 2, 69, 84
1, 118380, Note_on_c, 0, 76, 0
1, 118380, Note_on_c, 1, 73, 0
1, 118380, Note_on_c, 2, 69, 0
1, 118381, Note_on_c, 2, 68, 84
1, 118440, Note_on_c, 2, 68, 0
1, 118441, Note_on_c, 2, 69, 84
1, 118442, Note_on_c, 0, 78, 81
1, 118442, Note_on_c, 1, 74, 84
1, 118500, Note_on_c, 0, 78, 0
1, 118500, Note_on_c, 1, 74, 0
1, 118500, Note_on_c, 2, 69, 0
1, 118501, Note_on_c, 2, 68, 84
1, 118560, Note_on_c, 2, 68, 0
1, 118561, Note_on_c, 2, 69, 84
1, 118562, Note_on_c, 0, 79, 81
1, 118562, Note_on_c, 1, 76, 84
1, 118620, Note_on_c, 0, 79, 0
1, 118620, Note_on_c, 1, 76, 0
1, 118620, Note_on_c, 2, 69, 0
1, 118621, Note_on_c, 2, 68, 84
1, 118680, Note_on_c, 2, 68, 0
1, 118681, Note_on_c, 2, 69, 84
1, 118682, Note_on_c, 0, 78, 81
1, 118682, Note_on_c, 1, 74, 84
1, 118740, Note_on_c, 0, 78, 0
1, 118740, Note_on_c, 1, 74, 0
1, 118740, Note_on_c, 2, 69, 0
1, 118741, Note_on_c, 2, 68, 84
1, 118800, Note_on_c, 2, 68, 0
1, 118801, Note_on_c, 2, 69, 84
1, 118802, Note_on_c, 0, 76, 81
1, 118802, Note_on_c, 1, 73, 84
1, 118860, Note_on_c, 0, 76, 0
1, 118860, Note_on_c, 1, 73, 0
1, 118922, Note_on_c, 0, 81, 81
1, 118980, Note_on_c, 0, 81, 0
1, 118981, Note_on_c, 0, 80, 81
1, 119040, Note_on_c, 0, 80, 0
1, 119040, Note_on_c, 2, 69, 0
1, 119041, Note_on_c, 0, 81, 81
1, 119100, Note_on_c, 0, 81, 0
1, 119101, Note_on_c, 0, 80, 81
1, 119160, Note_on_c, 0, 80, 0
1, 119161, Note_on_c, 0, 81, 81
1, 119162, Note_on_c, 1, 66, 84
1, 119162, Note_on_c, 2, 62, 84
1, 119220, Note_on_c, 0, 81, 0
1, 119220, Note_on_c, 1, 66, 0
1, 119220, Note_on_c, 2, 62, 0
1, 119221, Note_on_c, 0, 80, 81
1, 119280, Note_on_c, 0, 80, 0
1, 119281, Note_on_c, 0, 81, 81
1, 119282, Note_on_c, 1, 64, 84
1, 119282, Note_on_c, 2, 61, 84
1, 119340, Note_on_c, 0, 81, 0
1, 119340, Note_on_c, 1, 64, 0
1, 119340, Note_on_c, 2, 61, 0
1, 119341, Note_on_c, 0, 80, 81
1, 119400, Note_on_c, 0, 80, 0
1, 119401, Note_on_c, 0, 81, 81
1, 119402, Note_on_c, 1, 66, 84
1, 119402, Note_on_c, 2, 62, 84
1, 119460, Note_on_c, 0, 81, 0
1, 119460, Note_on_c, 1, 66, 0
1, 119460, Note_on_c, 2, 62, 0
1, 119461, Note_on_c, 0, 80, 81
1, 119520, Note_on_c, 0, 80, 0
1, 119521, Note_on_c, 0, 81, 81
1, 119522, Note_on_c, 1, 67, 84
1, 119522, Note_on_c, 2, 64, 84
1, 119580, Note_on_c, 0, 81, 0
1, 119580, Note_on_c, 1, 67, 0
1, 119580, Note_on_c, 2, 64, 0
1, 119581, Note_on_c, 0, 80, 81
1, 119640, Note_on_c, 0, 80, 0
1, 119641, Note_on_c, 0, 81, 81
1, 119642, Note_on_c, 1, 66, 84
1, 119642, Note_on_c, 2, 62, 84
1, 119700, Note_on_c, 0, 81, 0
1, 119700, Note_on_c, 1, 66, 0
1, 119700, Note_on_c, 2, 62, 0
1, 119701, Note_on_c, 0, 80, 81
1, 119760, Note_on_c, 0, 80, 0
1, 119761, Note_on_c, 0, 81, 81
1, 119762, Note_on_c, 1, 64, 84
1, 119762, Note_on_c, 2, 61, 84
1, 120000, Note_on_c, 1, 64, 0
1, 120000, Note_on_c, 2, 61, 0
1, 120120, Note_on_c, 0, 81, 0
1, 120121, Note_on_c, 0, 82, 31
1, 120240, Note_on_c, 0, 82, 0
1, 120241, Note_on_c, 0, 83, 31
1, 120360, Note_on_c, 0, 83, 0
1, 120361, Note_on_c, 0, 80, 31
1, 120480, Note_on_c, 0, 80, 0
1, 120481, Note_on_c, 0, 81, 31
1, 120600, Note_on_c, 0, 81, 0
1, 120601, Note_on_c, 0, 78, 31
1, 120602, Note_on_c, 1, 70, 41
1, 120602, Note_on_c, 2, 70, 41
1, 120720, Note_on_c, 0, 78, 0
1, 120720, Note_on_c, 1, 70, 0
1, 120720, Note_on_c, 2, 70, 0
1, 120721, Note_on_c, 0, 79, 31
1, 120721, Note_on_c, 1, 71, 41
1, 120721, Note_on_c, 2, 71, 41
1, 120840, Note_on_c, 0, 79, 0
1, 120840, Note_on_c, 1, 71, 0
1, 120840, Note_on_c, 2, 71, 0
1, 120841, Note_on_c, 0, 77, 31
1, 120841, Note_on_c, 1, 68, 41
1, 120841, Note_on_c, 2, 68, 41
1, 120960, Note_on_c, 0, 77, 0
1, 120960, Note_on_c, 1, 68, 0
1, 120960, Note_on_c, 2, 68, 0
1, 120961, Note_on_c, 0, 78, 31
1, 120961, Note_on_c, 1, 69, 41
1, 120961, Note_on_c, 2, 69, 41
1, 121080, Note_on_c, 0, 78, 0
1, 121080, Note_on_c, 1, 69, 0
1, 121080, Note_on_c, 2, 69, 0
1, 121081, Note_on_c, 0, 75, 31
1, 121081, Note_on_c, 2, 66, 41
1, 121200, Note_on_c, 0, 75, 0
1, 121200, Note_on_c, 2, 66, 0
1, 121201, Note_on_c, 0, 76, 31
1, 121201, Note_on_c, 2, 67, 41
1, 121202, Note_on_c, 1, 71, 84
1, 121320, Note_on_c, 0, 76, 0
1, 121320, Note_on_c, 1, 71, 0
1, 121320, Note_on_c, 2, 67, 0
1, 121321, Note_on_c, 0, 73, 31
1, 121321, Note_on_c, 1, 67, 84
1, 121321, Note_on_c, 2, 64, 41
1, 121440, Note_on_c, 0, 73, 0
1, 121440, Note_on_c, 1, 67, 0
1, 121440, Note_on_c, 2, 64, 0
1, 121441, Note_on_c, 0, 74, 31
1, 121441, Note_on_c, 1, 69, 84
1, 121441, Note_on_c, 2, 66, 41
1, 121560, Note_on_c, 0, 74, 0
1, 121560, Note_on_c, 1, 69, 0
1, 121560, Note_on_c, 2, 66, 0
1, 121561, Note_on_c, 0, 79, 81
1, 121561, Note_on_c, 1, 76, 84
1, 121561, Note_on_c, 2, 73, 84
1, 121562, Note_on_c, 4, 55, 76
1, 121620, Note_on_c, 0, 79, 0
1, 121620, Note_on_c, 1, 76, 0
1, 121620, Note_on_c, 2, 73, 0
1, 121620, Note_on_c, 4, 55, 0
1, 121682, Note_on_c, 0, 78, 81
1, 121682, Note_on_c, 1, 74, 84
1, 121682, Note_on_c, 2, 69, 84
1, 121682, Note_on_c, 5, 57, 76
1, 121800, Note_on_c, 0, 78, 0
1, 121801, Note_on_c, 0, 81, 81
1, 121920, Note_on_c, 0, 81, 0
1, 121920, Note_on_c, 1, 74, 0
1, 121920, Note_on_c, 2, 69, 0
1, 121920, Note_on_c, 5, 57, 0
1, 121921, Note_on_c, 0, 73, 81
1, 121921, Note_on_c, 2, 67, 84
1, 121921, Note_on_c, 5, 57, 76
1, 121922, Note_on_c, 4, 64, 76
1, 122040, Note_on_c, 0, 73, 0
1, 122040, Note_on_c, 4, 64, 0
1, 122041, Note_on_c, 0, 76, 81
1, 122041, Note_on_c, 4, 61, 76
1, 122160, Note_on_c, 0, 76, 0
1, 122160, Note_on_c, 2, 67, 0
1, 122160, Note_on_c, 4, 61, 0
1, 122160, Note_on_c, 5, 57, 0
1, 122161, Note_on_c, 0, 74, 81
1, 122161, Note_on_c, 2, 66, 84
1, 122161, Note_on_c, 4, 62, 76
1, 122161, Note_on_c, 5, 50, 76
1, 122400, Note_on_c, 0, 74, 0
1, 122400, Note_on_c, 2, 66, 0
1, 122400, Note_on_c, 4, 62, 0
1, 122400, Note_on_c, 5, 50, 0
1, 122522, Note_on_c, 0, 86, 31
1, 122580, Note_on_c, 0, 86, 0
1, 122642, Note_on_c, 0, 86, 31
1, 122642, Note_on_c, 4, 67, 23
1, 122642, Note_on_c, 5, 64, 23
1, 122642, Note_on_c, 6, 57, 23
1, 122700, Note_on_c, 0, 86, 0
1, 122701, Note_on_c, 0, 85, 31
1, 122760, Note_on_c, 0, 85, 0
1, 122761, Note_on_c, 0, 83, 31
1, 122820, Note_on_c, 0, 83, 0
1, 122821, Note_on_c, 0, 81, 31
1, 122880, Note_on_c, 0, 81, 0
1, 122880, Note_on_c, 4, 67, 0
1, 122880, Note_on_c, 5, 64, 0
1, 122880, Note_on_c, 6, 57, 0
1, 122881, Note_on_c, 0, 80, 31
1, 122940, Note_on_c, 0, 80, 0
1, 122941, Note_on_c, 0, 81, 31
1, 123000, Note_on_c, 0, 81, 0
1, 123001, Note_on_c, 0, 83, 31
1, 123060, Note_on_c, 0, 83, 0
1, 123061, Note_on_c, 0, 85, 31
1, 123120, Note_on_c, 0, 85, 0
1, 123121, Note_on_c, 0, 86, 31
1, 123122, Note_on_c, 4, 66, 23
1, 123122, Note_on_c, 5, 62, 23
1, 123180, Note_on_c, 0, 86, 0
1, 123181, Note_on_c, 0, 85, 31
1, 123240, Note_on_c, 0, 85, 0
1, 123241, Note_on_c, 0, 83, 31
1, 123300, Note_on_c, 0, 83, 0
1, 123301, Note_on_c, 0, 81, 31
1, 123360, Note_on_c, 0, 81, 0
1, 123360, Note_on_c, 4, 66, 0
1, 123360, Note_on_c, 5, 62, 0
1, 123361, Note_on_c, 0, 79, 31
1, 123420, Note_on_c, 0, 79, 0
1, 123421, Note_on_c, 0, 78, 31
1, 123480, Note_on_c, 0, 78, 0
1, 123481, Note_on_c, 0, 76, 31
1, 123540, Note_on_c, 0, 76, 0
1, 123541, Note_on_c, 0, 74, 31
1, 123600, Note_on_c, 0, 74, 0
1, 123601, Note_on_c, 0, 74, 31
1, 123602, Note_on_c, 4, 67, 23
1, 123602, Note_on_c, 5, 64, 23
1, 123602, Note_on_c, 6, 57, 23
1, 123660, Note_on_c, 0, 74, 0
1, 123661, Note_on_c, 0, 73, 31
1, 123720, Note_on_c, 0, 73, 0
1, 123721, Note_on_c, 0, 71, 31
1, 123780, Note_on_c, 0, 71, 0
1, 123781, Note_on_c, 0, 69, 31
1, 123840, Note_on_c, 0, 69, 0
1, 123840, Note_on_c, 4, 67, 0
1, 123840, Note_on_c, 5, 64, 0
1, 123840, Note_on_c, 6, 57, 0
1, 123841, Note_on_c, 0, 68, 31
1, 123900, Note_on_c, 0, 68, 0
1, 123901, Note_on_c, 0, 69, 31
1, 123960, Note_on_c, 0, 69, 0
1, 123961, Note_on_c, 0, 71, 31
1, 124020, Note_on_c, 0, 71, 0
1, 124021, Note_on_c, 0, 73, 31
1, 124080, Note_on_c, 0, 73, 0
1, 124081, Note_on_c, 0, 74, 31
1, 124082, Note_on_c, 4, 66, 23
1, 124082, Note_on_c, 5, 62, 23
1, 124200, Note_on_c, 0, 74, 0
1, 124201, Note_on_c, 0, 78, 31
1, 124202, Note_on_c, 1, 74, 84
1, 124260, Note_on_c, 0, 78, 0
1, 124260, Note_on_c, 1, 74, 0
1, 124320, Note_on_c, 4, 66, 0
1, 124320, Note_on_c, 5, 62, 0
1, 124322, Note_on_c, 0, 81, 31
1, 124322, Note_on_c, 1, 78, 84
1, 124380, Note_on_c, 0, 81, 0
1, 124380, Note_on_c, 1, 78, 0
1, 124442, Note_on_c, 4, 62, 56
1, 124500, Note_on_c, 4, 62, 0
1, 124562, Note_on_c, 0, 79, 63
1, 124562, Note_on_c, 1, 76, 84
1, 124562, Note_on_c, 2, 69, 84
1, 124562, Note_on_c, 4, 62, 56
1, 124620, Note_on_c, 4, 62, 0
1, 124621, Note_on_c, 4, 61, 56
1, 124680, Note_on_c, 4, 61, 0
1, 124681, Note_on_c, 4, 59, 56
1, 124740, Note_on_c, 4, 59, 0
1, 124741, Note_on_c, 4, 57, 56
1, 124800, Note_on_c, 0, 79, 0
1, 124800, Note_on_c, 1, 76, 0
1, 124800, Note_on_c, 2, 69, 0
1, 124800, Note_on_c, 4, 57, 0
1, 124801, Note_on_c, 4, 56, 56
1, 124860, Note_on_c, 4, 56, 0
1, 124861, Note_on_c, 4, 57, 56
1, 124920, Note_on_c, 4, 57, 0
1, 124921, Note_on_c, 4, 59, 56
1, 124980, Note_on_c, 4, 59, 0
1, 124981, Note_on_c, 4, 61, 56
1, 125040, Note_on_c, 4, 61, 0
1, 125041, Note_on_c, 4, 62, 76
1, 125042, Note_on_c, 0, 78, 63
1, 125042, Note_on_c, 1, 74, 84
1, 125042, Note_on_c, 2, 69, 84
1, 125100, Note_on_c, 4, 62, 0
1, 125101, Note_on_c, 4, 61, 76
1, 125160, Note_on_c, 4, 61, 0
1, 125161, Note_on_c, 4, 59, 76
1, 125220, Note_on_c, 4, 59, 0
1, 125221, Note_on_c, 4, 57, 76
1, 125280, Note_on_c, 0, 78, 0
1, 125280, Note_on_c, 1, 74, 0
1, 125280, Note_on_c, 2, 69, 0
1, 125280, Note_on_c, 4, 57, 0
1, 125281, Note_on_c, 4, 55, 76
1, 125340, Note_on_c, 4, 55, 0
1, 125341, Note_on_c, 4, 54, 76
1, 125400, Note_on_c, 4, 54, 0
1, 125401, Note_on_c, 4, 52, 76
1, 125460, Note_on_c, 4, 52, 0
1, 125461, Note_on_c, 4, 50, 76
1, 125520, Note_on_c, 4, 50, 0
1, 125521, Note_on_c, 4, 50, 76
1, 125522, Note_on_c, 0, 79, 63
1, 125522, Note_on_c, 1, 76, 84
1, 125522, Note_on_c, 2, 69, 84
1, 125580, Note_on_c, 4, 50, 0
1, 125581, Note_on_c, 4, 49, 76
1, 125640, Note_on_c, 4, 49, 0
1, 125641, Note_on_c, 4, 47, 76
1, 125700, Note_on_c, 4, 47, 0
1, 125701, Note_on_c, 4, 45, 76
1, 125760, Note_on_c, 0, 79, 0
1, 125760, Note_on_c, 1, 76, 0
1, 125760, Note_on_c, 2, 69, 0
1, 125760, Note_on_c, 4, 45, 0
1, 125761, Note_on_c, 4, 44, 76
1, 125820, Note_on_c, 4, 44, 0
1, 125821, Note_on_c, 4, 45, 76
1, 125880, Note_on_c, 4, 45, 0
1, 125881, Note_on_c, 4, 47, 76
1, 125940, Note_on_c, 4, 47, 0
1, 125941, Note_on_c, 4, 49, 76
1, 126000, Note_on_c, 4, 49, 0
1, 126001, Note_on_c, 4, 50, 76
1, 126002, Note_on_c, 0, 78, 63
1, 126002, Note_on_c, 1, 74, 84
1, 126002, Note_on_c, 2, 69, 84
1, 126120, Note_on_c, 0, 78, 0
1, 126120, Note_on_c, 1, 74, 0
1, 126120, Note_on_c, 2, 69, 0
1, 126120, Note_on_c, 4, 50, 0
1, 126242, Note_on_c, 0, 86, 81
1, 126242, Note_on_c, 1, 78, 107
1, 126242, Note_on_c, 2, 74, 107
1, 126242, Note_on_c, 4, 47, 76
1, 126242, Note_on_c, 5, 35, 23
1, 126360, Note_on_c, 0, 86, 0
1, 126360, Note_on_c, 1, 78, 0
1, 126360, Note_on_c, 2, 74, 0
1, 126360, Note_on_c, 4, 47, 0
1, 126360, Note_on_c, 5, 35, 0
1, 126482, Note_on_c, 0, 83, 81
1, 126482, Note_on_c, 1, 79, 107
1, 126482, Note_on_c, 2, 74, 107
1, 126482, Note_on_c, 4, 43, 76
1, 126482, Note_on_c, 5, 31, 23
1, 126600, Note_on_c, 0, 83, 0
1, 126600, Note_on_c, 1, 79, 0
1, 126600, Note_on_c, 2, 74, 0
1, 126600, Note_on_c, 4, 43, 0
1, 126600, Note_on_c, 5, 31, 0
1, 126722, Note_on_c, 0, 73, 81
1, 126722, Note_on_c, 1, 67, 107
1, 126722, Note_on_c, 2, 64, 107
1, 126722, Note_on_c, 4, 43, 76
1, 126722, Note_on_c, 5, 31, 23
1, 126840, Note_on_c, 0, 73, 0
1, 126840, Note_on_c, 1, 67, 0
1, 126840, Note_on_c, 2, 64, 0
1, 126840, Note_on_c, 4, 43, 0
1, 126840, Note_on_c, 5, 31, 0
1, 126962, Note_on_c, 0, 74, 81
1, 126962, Note_on_c, 1, 69, 107
1, 126962, Note_on_c, 2, 66, 107
1, 126962, Note_on_c, 3, 62, 127
1, 126962, Note_on_c, 4, 50, 76
1, 126962, Note_on_c, 5, 38, 23
1, 127200, Note_on_c, 0, 74, 0
1, 127200, Note_on_c, 1, 69, 0
1, 127200, Note_on_c, 2, 66, 0
1, 127200, Note_on_c, 3, 62, 0
1, 127200, Note_on_c, 4, 50, 0
1, 127200, Note_on_c, 5, 38, 0
1, 127322, Note_on_c, 0, 74, 63
1, 127380, Note_on_c, 0, 74, 0
1, 127442, Note_on_c, 0, 74, 63
1, 127442, Note_on_c, 3, 67, 62
1, 127442, Note_on_c, 4, 64, 56
1, 127442, Note_on_c, 5, 57, 56
1, 127500, Note_on_c, 0, 74, 0
1, 127501, Note_on_c, 0, 73, 63
1, 127560, Note_on_c, 0, 73, 0
1, 127561, Note_on_c, 0, 71, 63
1, 127620, Note_on_c, 0, 71, 0
1, 127621, Note_on_c, 0, 69, 63
1, 127680, Note_on_c, 0, 69, 0
1, 127680, Note_on_c, 3, 67, 0
1, 127680, Note_on_c, 4, 64, 0
1, 127680, Note_on_c, 5, 57, 0
1, 127681, Note_on_c, 0, 68, 63
1, 127740, Note_on_c, 0, 68, 0
1, 127741, Note_on_c, 0, 69, 63
1, 127800, Note_on_c, 0, 69, 0
1, 127801, Note_on_c, 0, 71, 63
1, 127860, Note_on_c, 0, 71, 0
1, 127861, Note_on_c, 0, 73, 63
1, 127920, Note_on_c, 0, 73, 0
1, 127921, Note_on_c, 0, 74, 63
1, 127922, Note_on_c, 3, 66, 62
1, 127922, Note_on_c, 4, 66, 56
1, 127922, Note_on_c, 5, 62, 56
1, 128160, Note_on_c, 0, 74, 0
1, 128160, Note_on_c, 3, 66, 0
1, 128160, Note_on_c, 4, 66, 0
1, 128160, Note_on_c, 5, 62, 0
1, 128282, Note_on_c, 0, 62, 31
1, 128340, Note_on_c, 0, 62, 0
1, 128402, Note_on_c, 0, 61, 31
1, 128402, Note_on_c, 4, 55, 23
1, 128402, Note_on_c, 5, 52, 23
1, 128402, Note_on_c, 6, 45, 23
1, 128460, Note_on_c, 0, 61, 0
1, 128461, Note_on_c, 0, 62, 31
1, 128520, Note_on_c, 0, 62, 0
1, 128521, Note_on_c, 0, 64, 31
1, 128580, Note_on_c, 0, 64, 0
1, 128581, Note_on_c, 0, 66, 31
1, 128640, Note_on_c, 0, 66, 0
1, 128640, Note_on_c, 4, 55, 0
1, 128640, Note_on_c, 5, 52, 0
1, 128640, Note_on_c, 6, 45, 0
1, 128641, Note_on_c, 0, 69, 31
1, 128700, Note_on_c, 0, 69, 0
1, 128701, Note_on_c, 0, 67, 31
1, 128760, Note_on_c, 0, 67, 0
1, 128761, Note_on_c, 0, 66, 31
1, 128820, Note_on_c, 0, 66, 0
1, 128821, Note_on_c, 0, 64, 31
1, 128880, Note_on_c, 0, 64, 0
1, 128881, Note_on_c, 0, 62, 31
1, 128882, Note_on_c, 4, 54, 23
1, 128882, Note_on_c, 5, 50, 23
1, 129120, Note_on_c, 0, 62, 0
1, 129120, Note_on_c, 4, 54, 0
1, 129120, Note_on_c, 5, 50, 0
1, 129130, End_track
0, 0, End_of_file