0, 0, Header, 0, 1, 240
1, 0, Start_track
1, 0, Tempo, 2000000
1, 660, Note_on_c, 0, 55, 56
1, 690, Note_on_c, 0, 55, 0
1, 690, Note_on_c, 0, 60, 56
1, 720, Note_on_c, 0, 60, 0
1, 720, Note_on_c, 0, 63, 56
1, 900, Note_on_c, 0, 63, 0
1, 900, Note_on_c, 0, 62, 56
1, 960, Note_on_c, 0, 62, 0
1, 960, Note_on_c, 0, 60, 56
1, 960, Note_on_c, 1, 48, 56
1, 960, Note_on_c, 1, 51, 56
1, 1080, Note_on_c, 0, 60, 0
1, 1080, Note_on_c, 0, 59, 64
1, 1080, Note_on_c, 1, 51, 0
1, 1080, Note_on_c, 1, 48, 0
1, 1080, Note_on_c, 1, 50, 64
1, 1080, Note_on_c, 1, 53, 64
1, 1140, Note_on_c, 0, 59, 0
1, 1140, Note_on_c, 1, 53, 0
1, 1140, Note_on_c, 1, 50, 0
1, 1200, Note_on_c, 0, 80, 56
1, 1200, Note_on_c, 0, 71, 56
1, 1260, Note_on_c, 0, 71, 0
1, 1260, Note_on_c, 0, 80, 0
1, 1380, Note_on_c, 0, 59, 56
1, 1410, Note_on_c, 0, 59, 0
1, 1410, Note_on_c, 0, 62, 56
1, 1440, Note_on_c, 0, 62, 0
1, 1440, Note_on_c, 0, 65, 56
1, 1620, Note_on_c, 0, 65, 0
1, 1620, Note_on_c, 0, 63, 56
1, 1680, Note_on_c, 0, 63, 0
1, 1680, Note_on_c, 0, 62, 56
1, 1680, Note_on_c, 1, 50, 56
1, 1680, Note_on_c, 1, 53, 56
1, 1800, Note_on_c, 0, 62, 0
1, 1800, Note_on_c, 0, 60, 64
1, 1800, Note_on_c, 1, 53, 0
1, 1800, Note_on_c, 1, 50, 0
1, 1800, Note_on_c, 1, 51, 64
1, 1800, Note_on_c, 1, 55, 64
1, 1860, Note_on_c, 0, 60, 0
1, 1860, Note_on_c, 1, 55, 0
1, 1860, Note_on_c, 1, 51, 0
1, 1920, Note_on_c, 0, 75, 56
1, 1920, Note_on_c, 0, 79, 56
1, 1980, Note_on_c, 0, 79, 0
1, 1980, Note_on_c, 0, 75, 0
1, 2100, Note_on_c, 0, 60, 56
1, 2130, Note_on_c, 0, 60, 0
1, 2130, Note_on_c, 0, 63, 56
1, 2160, Note_on_c, 0, 63, 0
1, 2160, Note_on_c, 0, 67, 56
1, 2340, Note_on_c, 0, 67, 0
1, 2340, Note_on_c, 0, 60, 56
1, 2400, Note_on_c, 0, 60, 0
1, 2400, Note_on_c, 0, 72, 56
1, 2400, Note_on_c, 1, 51, 56
1, 2400, Note_on_c, 1, 60, 56
1, 2520, Note_on_c, 0, 72, 0
1, 2520, Note_on_c, 0, 70, 56
1, 2520, Note_on_c, 1, 60, 0
1, 2520, Note_on_c, 1, 51, 0
1, 2520, Note_on_c, 1, 53, 56
1, 2520, Note_on_c, 1, 60, 56
1, 2640, Note_on_c, 0, 70, 0
1, 2640, Note_on_c, 0, 68, 56
1, 2655, Note_on_c, 0, 68, 0
1, 2655, Note_on_c, 0, 70, 56
1, 2670, Note_on_c, 0, 70, 0
1, 2670, Note_on_c, 0, 68, 56
1, 2685, Note_on_c, 0, 68, 0
1, 2685, Note_on_c, 0, 70, 56
1, 2700, Note_on_c, 0, 70, 0
1, 2700, Note_on_c, 0, 68, 56
1, 2710, Note_on_c, 0, 68, 0
1, 2710, Note_on_c, 0, 70, 56
1, 2720, Note_on_c, 0, 70, 0
1, 2720, Note_on_c, 0, 68, 56
1, 2730, Note_on_c, 0, 68, 0
1, 2730, Note_on_c, 0, 67, 56
1, 2745, Note_on_c, 0, 67, 0
1, 2745, Note_on_c, 0, 68, 56
1, 2760, Note_on_c, 0, 68, 0
1, 2760, Note_on_c, 0, 67, 56
1, 2760, Note_on_c, 1, 60, 0
1, 2760, Note_on_c, 1, 53, 0
1, 2760, Note_on_c, 1, 51, 56
1, 2760, Note_on_c, 1, 60, 56
1, 2781, Note_on_c, 0, 67, 0
1, 2790, Note_on_c, 0, 68, 56
1, 2800, Note_on_c, 0, 68, 0
1, 2800, Note_on_c, 0, 67, 56
1, 2810, Note_on_c, 0, 67, 0
1, 2810, Note_on_c, 0, 65, 56
1, 2820, Note_on_c, 0, 65, 0
1, 2820, Note_on_c, 0, 67, 56
1, 2850, Note_on_c, 0, 67, 0
1, 2850, Note_on_c, 0, 68, 56
1, 2880, Note_on_c, 0, 68, 0
1, 2880, Note_on_c, 0, 67, 56
1, 2880, Note_on_c, 1, 60, 0
1, 2880, Note_on_c, 1, 51, 0
1, 2880, Note_on_c, 1, 50, 56
1, 2880, Note_on_c, 1, 59, 56
1, 3000, Note_on_c, 0, 67, 0
1, 3000, Note_on_c, 0, 65, 56
1, 3015, Note_on_c, 0, 65, 0
1, 3015, Note_on_c, 0, 67, 56
1, 3030, Note_on_c, 0, 67, 0
1, 3030, Note_on_c, 0, 65, 56
1, 3045, Note_on_c, 0, 65, 0
1, 3045, Note_on_c, 0, 67, 56
1, 3060, Note_on_c, 0, 67, 0
1, 3060, Note_on_c, 0, 65, 56
1, 3070, Note_on_c, 0, 65, 0
1, 3070, Note_on_c, 0, 67, 56
1, 3080, Note_on_c, 0, 67, 0
1, 3080, Note_on_c, 0, 65, 56
1, 3090, Note_on_c, 0, 65, 0
1, 3090, Note_on_c, 0, 62, 56
1, 3120, Note_on_c, 0, 62, 0
1, 3120, Note_on_c, 0, 63, 56
1, 3120, Note_on_c, 1, 59, 0
1, 3120, Note_on_c, 1, 50, 0
1, 3120, Note_on_c, 1, 48, 56
1, 3120, Note_on_c, 1, 60, 56
1, 3210, Note_on_c, 0, 63, 0
1, 3210, Note_on_c, 0, 60, 56
1, 3240, Note_on_c, 0, 60, 0
1, 3240, Note_on_c, 0, 59, 56
1, 3240, Note_on_c, 0, 67, 56
1, 3240, Note_on_c, 1, 60, 0
1, 3240, Note_on_c, 1, 48, 0
1, 3240, Note_on_c, 1, 43, 56
1, 3240, Note_on_c, 1, 55, 56
1, 3300, Note_on_c, 0, 67, 0
1, 3300, Note_on_c, 0, 59, 0
1, 3300, Note_on_c, 1, 55, 0
1, 3300, Note_on_c, 1, 43, 0
1, 3540, Note_on_c, 0, 58, 80
1, 3570, Note_on_c, 0, 58, 0
1, 3570, Note_on_c, 0, 63, 80
1, 3600, Note_on_c, 0, 63, 0
1, 3600, Note_on_c, 0, 67, 80
1, 3780, Note_on_c, 0, 67, 0
1, 3780, Note_on_c, 0, 65, 80
1, 3840, Note_on_c, 0, 65, 0
1, 3840, Note_on_c, 0, 63, 80
1, 3840, Note_on_c, 1, 55, 80
1, 3840, Note_on_c, 1, 51, 80
1, 3960, Note_on_c, 0, 63, 0
1, 3960, Note_on_c, 0, 62, 80
1, 3960, Note_on_c, 1, 51, 0
1, 3960, Note_on_c, 1, 55, 0
1, 3960, Note_on_c, 1, 56, 80
1, 3960, Note_on_c, 1, 53, 80
1, 4020, Note_on_c, 0, 62, 0
1, 4020, Note_on_c, 1, 53, 0
1, 4020, Note_on_c, 1, 56, 0
1, 4080, Note_on_c, 0, 80, 80
1, 4080, Note_on_c, 0, 74, 80
1, 4140, Note_on_c, 0, 74, 0
1, 4140, Note_on_c, 0, 80, 0
1, 4260, Note_on_c, 0, 62, 80
1, 4280, Note_on_c, 0, 62, 0
1, 4280, Note_on_c, 0, 65, 80
1, 4300, Note_on_c, 0, 65, 0
1, 4300, Note_on_c, 0, 68, 80
1, 4320, Note_on_c, 0, 72, 80
1, 4500, Note_on_c, 0, 72, 0
1, 4500, Note_on_c, 0, 68, 0
1, 4500, Note_on_c, 0, 67, 80
1, 4500, Note_on_c, 0, 70, 80
1, 4560, Note_on_c, 0, 70, 0
1, 4560, Note_on_c, 0, 67, 0
1, 4560, Note_on_c, 0, 65, 80
1, 4560, Note_on_c, 0, 68, 80
1, 4560, Note_on_c, 1, 58, 80
1, 4560, Note_on_c, 1, 50, 80
1, 4680, Note_on_c, 0, 68, 0
1, 4680, Note_on_c, 0, 65, 0
1, 4680, Note_on_c, 0, 63, 80
1, 4680, Note_on_c, 0, 67, 80
1, 4680, Note_on_c, 1, 50, 0
1, 4680, Note_on_c, 1, 51, 80
1, 4740, Note_on_c, 0, 67, 0
1, 4740, Note_on_c, 0, 63, 0
1, 4740, Note_on_c, 1, 51, 0
1, 4740, Note_on_c, 1, 58, 0
1, 4800, Note_on_c, 0, 82, 64
1, 4800, Note_on_c, 0, 79, 64
1, 4860, Note_on_c, 0, 79, 0
1, 4860, Note_on_c, 0, 82, 0
1, 4980, Note_on_c, 0, 63, 64
1, 5010, Note_on_c, 0, 63, 0
1, 5010, Note_on_c, 0, 67, 64
1, 5040, Note_on_c, 0, 67, 0
1, 5040, Note_on_c, 0, 75, 56
1, 5220, Note_on_c, 0, 75, 0
1, 5220, Note_on_c, 0, 74, 56
1, 5280, Note_on_c, 0, 74, 0
1, 5280, Note_on_c, 0, 72, 56
1, 5280, Note_on_c, 1, 63, 56
1, 5280, Note_on_c, 1, 67, 56
1, 5400, Note_on_c, 0, 72, 0
1, 5400, Note_on_c, 0, 72, 56
1, 5400, Note_on_c, 1, 67, 0
1, 5400, Note_on_c, 1, 63, 0
1, 5400, Note_on_c, 1, 62, 56
1, 5400, Note_on_c, 1, 65, 56
1, 5520, Note_on_c, 0, 72, 0
1, 5520, Note_on_c, 0, 70, 56
1, 5640, Note_on_c, 0, 70, 0
1, 5640, Note_on_c, 0, 68, 56
1, 5640, Note_on_c, 1, 65, 0
1, 5640, Note_on_c, 1, 62, 0
1, 5640, Note_on_c, 1, 60, 56
1, 5640, Note_on_c, 1, 63, 56
1, 5730, Note_on_c, 0, 68, 0
1, 5730, Note_on_c, 0, 67, 56
1, 5745, Note_on_c, 0, 67, 0
1, 5745, Note_on_c, 0, 70, 56
1, 5760, Note_on_c, 0, 70, 0
1, 5760, Note_on_c, 0, 68, 56
1, 5760, Note_on_c, 1, 63, 0
1, 5760, Note_on_c, 1, 60, 0
1, 5760, Note_on_c, 1, 58, 56
1, 5760, Note_on_c, 1, 62, 56
1, 5880, Note_on_c, 0, 68, 0
1, 5880, Note_on_c, 0, 67, 56
1, 5976, Note_on_c, 0, 67, 0
1, 6000, Note_on_c, 0, 65, 56
1, 6000, Note_on_c, 1, 62, 0
1, 6000, Note_on_c, 1, 58, 0
1, 6000, Note_on_c, 1, 56, 56
1, 6000, Note_on_c, 1, 60, 56
1, 6096, Note_on_c, 0, 65, 0
1, 6120, Note_on_c, 0, 70, 80
1, 6120, Note_on_c, 1, 60, 0
1, 6120, Note_on_c, 1, 56, 0
1, 6120, Note_on_c, 1, 56, 80
1, 6120, Note_on_c, 1, 58, 80
1, 6120, Note_on_c, 1, 62, 80
1, 6120, Note_on_c, 1, 65, 80
1, 6264, Note_on_c, 0, 70, 0
1, 6300, Note_on_c, 0, 72, 80
1, 6324, Note_on_c, 0, 72, 0
1, 6330, Note_on_c, 0, 70, 80
1, 6354, Note_on_c, 0, 70, 0
1, 6360, Note_on_c, 0, 72, 80
1, 6360, Note_on_c, 1, 65, 0
1, 6360, Note_on_c, 1, 56, 0
1, 6360, Note_on_c, 1, 58, 0
1, 6360, Note_on_c, 1, 62, 0
1, 6360, Note_on_c, 1, 55, 80
1, 6360, Note_on_c, 1, 58, 80
1, 6360, Note_on_c, 1, 63, 80
1, 6384, Note_on_c, 0, 72, 0
1, 6390, Note_on_c, 0, 70, 80
1, 6414, Note_on_c, 0, 70, 0
1, 6420, Note_on_c, 0, 68, 80
1, 6444, Note_on_c, 0, 68, 0
1, 6450, Note_on_c, 0, 67, 80
1, 6474, Note_on_c, 0, 67, 0
1, 6480, Note_on_c, 0, 67, 80
1, 6480, Note_on_c, 1, 63, 0
1, 6480, Note_on_c, 1, 58, 0
1, 6480, Note_on_c, 1, 55, 0
1, 6480, Note_on_c, 1, 56, 80
1, 6480, Note_on_c, 1, 60, 80
1, 6540, Note_on_c, 0, 67, 0
1, 6540, Note_on_c, 0, 65, 80
1, 6600, Note_on_c, 0, 65, 0
1, 6600, Note_on_c, 0, 63, 80
1, 6600, Note_on_c, 1, 60, 0
1, 6600, Note_on_c, 1, 56, 0
1, 6600, Note_on_c, 1, 46, 80
1, 6600, Note_on_c, 1, 55, 80
1, 6690, Note_on_c, 0, 63, 0
1, 6690, Note_on_c, 0, 63, 80
1, 6700, Note_on_c, 0, 63, 0
1, 6700, Note_on_c, 0, 65, 80
1, 6710, Note_on_c, 0, 65, 0
1, 6710, Note_on_c, 0, 63, 80
1, 6720, Note_on_c, 0, 63, 0
1, 6720, Note_on_c, 0, 62, 80
1, 6720, Note_on_c, 1, 55, 0
1, 6720, Note_on_c, 1, 46, 0
1, 6720, Note_on_c, 1, 46, 80
1, 6720, Note_on_c, 1, 53, 80
1, 6810, Note_on_c, 0, 62, 0
1, 6810, Note_on_c, 0, 63, 80
1, 6840, Note_on_c, 0, 63, 0
1, 6840, Note_on_c, 0, 63, 80
1, 6840, Note_on_c, 1, 53, 0
1, 6840, Note_on_c, 1, 46, 0
1, 6840, Note_on_c, 1, 39, 56
1, 6900, Note_on_c, 1, 39, 0
1, 6900, Note_on_c, 1, 51, 56
1, 6960, Note_on_c, 1, 51, 0
1, 6960, Note_on_c, 1, 43, 56
1, 7020, Note_on_c, 1, 43, 0
1, 7020, Note_on_c, 1, 51, 56
1, 7080, Note_on_c, 0, 63, 0
1, 7080, Note_on_c, 0, 63, 56
1, 7080, Note_on_c, 0, 67, 56
1, 7080, Note_on_c, 1, 51, 0
1, 7080, Note_on_c, 1, 39, 56
1, 7140, Note_on_c, 1, 39, 0
1, 7140, Note_on_c, 1, 51, 56
1, 7200, Note_on_c, 0, 67, 0
1, 7200, Note_on_c, 0, 63, 0
1, 7200, Note_on_c, 0, 63, 56
1, 7200, Note_on_c, 0, 65, 56
1, 7200, Note_on_c, 1, 51, 0
1, 7200, Note_on_c, 1, 44, 56
1, 7260, Note_on_c, 1, 44, 0
1, 7260, Note_on_c, 1, 56, 56
1, 7320, Note_on_c, 1, 56, 0
1, 7320, Note_on_c, 1, 48, 56
1, 7380, Note_on_c, 1, 48, 0
1, 7380, Note_on_c, 1, 56, 56
1, 7440, Note_on_c, 0, 65, 0
1, 7440, Note_on_c, 0, 63, 0
1, 7440, Note_on_c, 0, 63, 72
1, 7440, Note_on_c, 0, 68, 72
1, 7440, Note_on_c, 0, 72, 72
1, 7440, Note_on_c, 1, 56, 0
1, 7440, Note_on_c, 1, 44, 56
1, 7500, Note_on_c, 1, 44, 0
1, 7500, Note_on_c, 1, 56, 56
1, 7560, Note_on_c, 0, 72, 0
1, 7560, Note_on_c, 0, 68, 0
1, 7560, Note_on_c, 0, 63, 0
1, 7560, Note_on_c, 0, 62, 80
1, 7560, Note_on_c, 0, 68, 80
1, 7560, Note_on_c, 0, 72, 80
1, 7560, Note_on_c, 1, 56, 0
1, 7560, Note_on_c, 1, 46, 64
1, 7620, Note_on_c, 1, 46, 0
1, 7620, Note_on_c, 1, 58, 64
1, 7680, Note_on_c, 0, 72, 0
1, 7680, Note_on_c, 0, 68, 0
1, 7680, Note_on_c, 0, 62, 0
1, 7680, Note_on_c, 0, 67, 80
1, 7680, Note_on_c, 0, 70, 80
1, 7680, Note_on_c, 1, 58, 0
1, 7680, Note_on_c, 1, 50, 64
1, 7740, Note_on_c, 1, 50, 0
1, 7740, Note_on_c, 1, 58, 64
1, 7800, Note_on_c, 0, 70, 0
1, 7800, Note_on_c, 0, 67, 0
1, 7800, Note_on_c, 0, 65, 80
1, 7800, Note_on_c, 0, 68, 80
1, 7800, Note_on_c, 1, 58, 0
1, 7800, Note_on_c, 1, 46, 64
1, 7860, Note_on_c, 1, 46, 0
1, 7860, Note_on_c, 1, 58, 64
1, 7887, Note_on_c, 0, 68, 0
1, 7887, Note_on_c, 0, 65, 0
1, 7887, Note_on_c, 0, 67, 80
1, 7897, Note_on_c, 0, 67, 0
1, 7897, Note_on_c, 0, 68, 80
1, 7907, Note_on_c, 0, 68, 0
1, 7907, Note_on_c, 0, 70, 80
1, 7917, Note_on_c, 0, 70, 0
1, 7920, Note_on_c, 0, 65, 80
1, 7920, Note_on_c, 0, 68, 80
1, 7920, Note_on_c, 1, 58, 0
1, 7920, Note_on_c, 1, 48, 64
1, 7980, Note_on_c, 1, 48, 0
1, 7980, Note_on_c, 1, 60, 64
1, 8040, Note_on_c, 1, 60, 0
1, 8040, Note_on_c, 1, 59, 64
1, 8100, Note_on_c, 1, 59, 0
1, 8100, Note_on_c, 1, 60, 64
1, 8160, Note_on_c, 0, 68, 0
1, 8160, Note_on_c, 0, 65, 0
1, 8160, Note_on_c, 0, 63, 80
1, 8160, Note_on_c, 0, 67, 80
1, 8160, Note_on_c, 1, 60, 0
1, 8160, Note_on_c, 1, 48, 64
1, 8220, Note_on_c, 1, 48, 0
1, 8220, Note_on_c, 1, 60, 64
1, 8280, Note_on_c, 0, 67, 0
1, 8280, Note_on_c, 0, 63, 0
1, 8280, Note_on_c, 0, 61, 96
1, 8280, Note_on_c, 0, 63, 96
1, 8280, Note_on_c, 0, 70, 96
1, 8280, Note_on_c, 1, 60, 0
1, 8280, Note_on_c, 1, 43, 72
1, 8340, Note_on_c, 1, 43, 0
1, 8340, Note_on_c, 1, 51, 72
1, 8400, Note_on_c, 1, 51, 0
1, 8400, Note_on_c, 1, 46, 72
1, 8460, Note_on_c, 1, 46, 0
1, 8460, Note_on_c, 1, 51, 72
1, 8520, Note_on_c, 1, 51, 0
1, 8520, Note_on_c, 1, 43, 72
1, 8580, Note_on_c, 1, 43, 0
1, 8580, Note_on_c, 1, 51, 72
1, 8640, Note_on_c, 0, 70, 0
1, 8640, Note_on_c, 0, 63, 0
1, 8640, Note_on_c, 0, 61, 0
1, 8640, Note_on_c, 0, 60, 96
1, 8640, Note_on_c, 0, 63, 96
1, 8640, Note_on_c, 0, 70, 96
1, 8640, Note_on_c, 1, 51, 0
1, 8640, Note_on_c, 1, 44, 72
1, 8700, Note_on_c, 1, 44, 0
1, 8700, Note_on_c, 1, 56, 72
1, 8760, Note_on_c, 1, 56, 0
1, 8760, Note_on_c, 1, 51, 72
1, 8820, Note_on_c, 0, 70, 0
1, 8820, Note_on_c, 0, 68, 96
1, 8820, Note_on_c, 1, 51, 0
1, 8820, Note_on_c, 1, 56, 72
1, 8880, Note_on_c, 0, 68, 0
1, 8880, Note_on_c, 0, 67, 96
1, 8880, Note_on_c, 1, 56, 0
1, 8880, Note_on_c, 1, 44, 72
1, 8940, Note_on_c, 0, 67, 0
1, 8940, Note_on_c, 0, 65, 96
1, 8940, Note_on_c, 1, 44, 0
1, 8940, Note_on_c, 1, 56, 72
1, 9000, Note_on_c, 0, 65, 0
1, 9000, Note_on_c, 0, 63, 0
1, 9000, Note_on_c, 0, 60, 0
1, 9000, Note_on_c, 0, 58, 96
1, 9000, Note_on_c, 0, 63, 96
1, 9000, Note_on_c, 1, 56, 0
1, 9000, Note_on_c, 1, 46, 72
1, 9060, Note_on_c, 1, 46, 0
1, 9060, Note_on_c, 1, 55, 72
1, 9120, Note_on_c, 1, 55, 0
1, 9120, Note_on_c, 1, 51, 72
1, 9180, Note_on_c, 0, 63, 0
1, 9180, Note_on_c, 0, 67, 96
1, 9180, Note_on_c, 1, 51, 0
1, 9180, Note_on_c, 1, 55, 72
1, 9240, Note_on_c, 0, 67, 0
1, 9240, Note_on_c, 0, 58, 0
1, 9240, Note_on_c, 0, 62, 96
1, 9240, Note_on_c, 0, 65, 96
1, 9240, Note_on_c, 1, 55, 0
1, 9240, Note_on_c, 1, 46, 72
1, 9300, Note_on_c, 1, 46, 0
1, 9300, Note_on_c, 1, 56, 72
1, 9330, Note_on_c, 0, 65, 0
1, 9330, Note_on_c, 0, 63, 96
1, 9360, Note_on_c, 0, 63, 0
1, 9360, Note_on_c, 0, 62, 0
1, 9360, Note_on_c, 0, 63, 96
1, 9360, Note_on_c, 1, 56, 0
1, 9360, Note_on_c, 1, 51, 72
1, 9360, Note_on_c, 1, 55, 72
1, 9444, Note_on_c, 0, 63, 0
1, 9444, Note_on_c, 1, 55, 0
1, 9444, Note_on_c, 1, 51, 0
1, 9600, Note_on_c, 0, 55, 48
1, 9600, Note_on_c, 0, 58, 48
1, 9660, Note_on_c, 0, 58, 0
1, 9660, Note_on_c, 0, 55, 0
1, 9720, Note_on_c, 0, 51, 48
1, 9720, Note_on_c, 0, 55, 48
1, 9780, Note_on_c, 0, 55, 0
1, 9780, Note_on_c, 0, 51, 0
1, 10020, Note_on_c, 0, 55, 56
1, 10050, Note_on_c, 0, 55, 0
1, 10050, Note_on_c, 0, 60, 56
1, 10080, Note_on_c, 0, 60, 0
1, 10080, Note_on_c, 0, 63, 56
1, 10260, Note_on_c, 0, 63, 0
1, 10260, Note_on_c, 0, 62, 56
1, 10320, Note_on_c, 0, 62, 0
1, 10320, Note_on_c, 0, 60, 56
1, 10320, Note_on_c, 1, 48, 56
1, 10320, Note_on_c, 1, 51, 56
1, 10440, Note_on_c, 0, 60, 0
1, 10440, Note_on_c, 0, 59, 56
1, 10440, Note_on_c, 1, 51, 0
1, 10440, Note_on_c, 1, 48, 0
1, 10440, Note_on_c, 1, 50, 56
1, 10440, Note_on_c, 1, 53, 56
1, 10485, Note_on_c, 0, 59, 0
1, 10485, Note_on_c, 1, 53, 0
1, 10485, Note_on_c, 1, 50, 0
1, 10530, Note_on_c, 0, 74, 56
1, 10530, Note_on_c, 1, 62, 56
1, 10540, Note_on_c, 0, 77, 56
1, 10540, Note_on_c, 1, 65, 56
1, 10550, Note_on_c, 0, 80, 56
1, 10550, Note_on_c, 1, 68, 56
1, 10560, Note_on_c, 0, 83, 56
1, 10560, Note_on_c, 1, 71, 56
1, 10680, Note_on_c, 0, 83, 0
1, 10680, Note_on_c, 0, 74, 0
1, 10680, Note_on_c, 0, 77, 0
1, 10680, Note_on_c, 0, 80, 0
1, 10680, Note_on_c, 1, 71, 0
1, 10680, Note_on_c, 1, 62, 0
1, 10680, Note_on_c, 1, 65, 0
1, 10680, Note_on_c, 1, 68, 0
1, 10740, Note_on_c, 0, 59, 56
1, 10770, Note_on_c, 0, 59, 0
1, 10770, Note_on_c, 0, 62, 56
1, 10800, Note_on_c, 0, 62, 0
1, 10800, Note_on_c, 0, 65, 56
1, 10980, Note_on_c, 0, 65, 0
1, 10980, Note_on_c, 0, 63, 56
1, 11040, Note_on_c, 0, 63, 0
1, 11040, Note_on_c, 0, 62, 56
1, 11040, Note_on_c, 1, 53, 56
1, 11040, Note_on_c, 1, 50, 56
1, 11160, Note_on_c, 0, 62, 0
1, 11160, Note_on_c, 0, 60, 56
1, 11160, Note_on_c, 1, 50, 0
1, 11160, Note_on_c, 1, 53, 0
1, 11160, Note_on_c, 1, 55, 56
1, 11160, Note_on_c, 1, 51, 56
1, 11213, Note_on_c, 0, 60, 0
1, 11213, Note_on_c, 1, 51, 0
1, 11213, Note_on_c, 1, 55, 0
1, 11265, Note_on_c, 0, 79, 56
1, 11265, Note_on_c, 1, 63, 56
1, 11269, Note_on_c, 1, 67, 56
1, 11272, Note_on_c, 0, 84, 56
1, 11273, Note_on_c, 1, 72, 56
1, 11277, Note_on_c, 1, 75, 56
1, 11279, Note_on_c, 0, 87, 56
1, 11397, Note_on_c, 1, 75, 0
1, 11397, Note_on_c, 1, 63, 0
1, 11397, Note_on_c, 1, 67, 0
1, 11397, Note_on_c, 1, 72, 0
1, 11399, Note_on_c, 0, 87, 0
1, 11399, Note_on_c, 0, 84, 0
1, 11399, Note_on_c, 0, 79, 0
1, 11459, Note_on_c, 0, 60, 56
1, 11489, Note_on_c, 0, 60, 0
1, 11489, Note_on_c, 0, 63, 56
1, 11519, Note_on_c, 0, 63, 0
1, 11520, Note_on_c, 0, 67, 56
1, 11700, Note_on_c, 0, 67, 0
1, 11700, Note_on_c, 0, 60, 56
1, 11760, Note_on_c, 0, 60, 0
1, 11760, Note_on_c, 0, 72, 56
1, 11760, Note_on_c, 1, 60, 56
1, 11760, Note_on_c, 1, 51, 56
1, 11880, Note_on_c, 0, 72, 0
1, 11880, Note_on_c, 0, 70, 56
1, 11880, Note_on_c, 1, 51, 0
1, 11880, Note_on_c, 1, 60, 0
1, 11880, Note_on_c, 1, 60, 56
1, 11880, Note_on_c, 1, 53, 56
1, 12000, Note_on_c, 0, 70, 0
1, 12000, Note_on_c, 0, 68, 56
1, 12015, Note_on_c, 0, 68, 0
1, 12015, Note_on_c, 0, 70, 56
1, 12030, Note_on_c, 0, 70, 0
1, 12030, Note_on_c, 0, 68, 56
1, 12045, Note_on_c, 0, 68, 0
1, 12045, Note_on_c, 0, 70, 56
1, 12060, Note_on_c, 0, 70, 0
1, 12060, Note_on_c, 0, 68, 56
1, 12070, Note_on_c, 0, 68, 0
1, 12070, Note_on_c, 0, 70, 56
1, 12080, Note_on_c, 0, 70, 0
1, 12080, Note_on_c, 0, 68, 56
1, 12090, Note_on_c, 0, 68, 0
1, 12090, Note_on_c, 0, 67, 56
1, 12105, Note_on_c, 0, 67, 0
1, 12105, Note_on_c, 0, 68, 56
1, 12120, Note_on_c, 0, 68, 0
1, 12120, Note_on_c, 0, 67, 56
1, 12120, Note_on_c, 1, 53, 0
1, 12120, Note_on_c, 1, 60, 0
1, 12120, Note_on_c, 1, 60, 56
1, 12120, Note_on_c, 1, 51, 56
1, 12150, Note_on_c, 0, 67, 0
1, 12150, Note_on_c, 0, 68, 56
1, 12160, Note_on_c, 0, 68, 0
1, 12160, Note_on_c, 0, 67, 56
1, 12170, Note_on_c, 0, 67, 0
1, 12170, Note_on_c, 0, 65, 56
1, 12180, Note_on_c, 0, 65, 0
1, 12180, Note_on_c, 0, 67, 56
1, 12210, Note_on_c, 0, 67, 0
1, 12210, Note_on_c, 0, 68, 56
1, 12240, Note_on_c, 0, 68, 0
1, 12240, Note_on_c, 0, 67, 56
1, 12240, Note_on_c, 1, 51, 0
1, 12240, Note_on_c, 1, 60, 0
1, 12240, Note_on_c, 1, 59, 56
1, 12240, Note_on_c, 1, 50, 56
1, 12255, Note_on_c, 0, 67, 0
1, 12255, Note_on_c, 0, 68, 56
1, 12270, Note_on_c, 0, 68, 0
1, 12270, Note_on_c, 0, 67, 56
1, 12285, Note_on_c, 0, 67, 0
1, 12285, Note_on_c, 0, 68, 56
1, 12300, Note_on_c, 0, 68, 0
1, 12300, Note_on_c, 0, 67, 56
1, 12315, Note_on_c, 0, 67, 0
1, 12315, Note_on_c, 0, 68, 56
1, 12330, Note_on_c, 0, 68, 0
1, 12330, Note_on_c, 0, 67, 56
1, 12340, Note_on_c, 0, 67, 0
1, 12340, Note_on_c, 0, 68, 56
1, 12350, Note_on_c, 0, 68, 0
1, 12350, Note_on_c, 0, 67, 56
1, 12360, Note_on_c, 0, 67, 0
1, 12360, Note_on_c, 0, 65, 56
1, 12420, Note_on_c, 0, 65, 0
1, 12420, Note_on_c, 0, 63, 56
1, 12438, Note_on_c, 0, 63, 0
1, 12450, Note_on_c, 0, 62, 56
1, 12468, Note_on_c, 0, 62, 0
1, 12480, Note_on_c, 0, 65, 56
1, 12480, Note_on_c, 1, 50, 0
1, 12480, Note_on_c, 1, 59, 0
1, 12480, Note_on_c, 1, 60, 56
1, 12480, Note_on_c, 1, 48, 56
1, 12510, Note_on_c, 0, 65, 0
1, 12510, Note_on_c, 0, 63, 56
1, 12540, Note_on_c, 0, 63, 0
1, 12540, Note_on_c, 0, 62, 56
1, 12570, Note_on_c, 0, 62, 0
1, 12570, Note_on_c, 0, 60, 56
1, 12600, Note_on_c, 0, 60, 0
1, 12600, Note_on_c, 0, 67, 56
1, 12600, Note_on_c, 0, 59, 56
1, 12600, Note_on_c, 1, 48, 0
1, 12600, Note_on_c, 1, 60, 0
1, 12600, Note_on_c, 1, 55, 56
1, 12600, Note_on_c, 1, 43, 56
1, 12660, Note_on_c, 0, 59, 0
1, 12660, Note_on_c, 0, 67, 0
1, 12660, Note_on_c, 1, 43, 0
1, 12660, Note_on_c, 1, 55, 0
1, 12900, Note_on_c, 0, 58, 56
1, 12930, Note_on_c, 0, 58, 0
1, 12930, Note_on_c, 0, 63, 80
1, 12960, Note_on_c, 0, 63, 0
1, 12960, Note_on_c, 0, 67, 80
1, 13140, Note_on_c, 0, 67, 0
1, 13140, Note_on_c, 0, 65, 80
1, 13200, Note_on_c, 0, 65, 0
1, 13200, Note_on_c, 0, 63, 80
1, 13200, Note_on_c, 1, 55, 80
1, 13200, Note_on_c, 1, 51, 80
1, 13320, Note_on_c, 0, 63, 0
1, 13320, Note_on_c, 0, 62, 80
1, 13320, Note_on_c, 1, 51, 0
1, 13320, Note_on_c, 1, 55, 0
1, 13320, Note_on_c, 1, 56, 80
1, 13320, Note_on_c, 1, 53, 80
1, 13380, Note_on_c, 0, 62, 0
1, 13380, Note_on_c, 1, 53, 0
1, 13380, Note_on_c, 1, 56, 0
1, 13440, Note_on_c, 0, 80, 80
1, 13470, Note_on_c, 0, 80, 0
1, 13470, Note_on_c, 0, 79, 80
1, 13488, Note_on_c, 0, 79, 0
1, 13500, Note_on_c, 0, 82, 80
1, 13530, Note_on_c, 0, 82, 0
1, 13530, Note_on_c, 0, 80, 80
1, 13548, Note_on_c, 0, 80, 0
1, 13560, Note_on_c, 0, 84, 80
1, 13590, Note_on_c, 0, 84, 0
1, 13590, Note_on_c, 0, 82, 80
1, 13620, Note_on_c, 0, 82, 0
1, 13620, Note_on_c, 0, 80, 80
1, 13650, Note_on_c, 0, 80, 0
1, 13650, Note_on_c, 0, 79, 80
1, 13680, Note_on_c, 0, 79, 0
1, 13680, Note_on_c, 0, 77, 80
1, 13710, Note_on_c, 0, 77, 0
1, 13710, Note_on_c, 0, 75, 80
1, 13740, Note_on_c, 0, 75, 0
1, 13740, Note_on_c, 0, 74, 80
1, 13770, Note_on_c, 0, 74, 0
1, 13770, Note_on_c, 0, 72, 80
1, 13800, Note_on_c, 0, 72, 0
1, 13800, Note_on_c, 0, 70, 80
1, 13830, Note_on_c, 0, 70, 0
1, 13830, Note_on_c, 0, 68, 80
1, 13860, Note_on_c, 0, 68, 0
1, 13860, Note_on_c, 0, 67, 80
1, 13890, Note_on_c, 0, 67, 0
1, 13890, Note_on_c, 0, 65, 80
1, 13920, Note_on_c, 0, 65, 0
1, 13920, Note_on_c, 0, 63, 80
1, 13920, Note_on_c, 1, 46, 80
1, 13920, Note_on_c, 1, 53, 80
1, 13950, Note_on_c, 0, 63, 0
1, 13950, Note_on_c, 0, 62, 80
1, 13980, Note_on_c, 0, 62, 0
1, 13980, Note_on_c, 0, 65, 80
1, 14010, Note_on_c, 0, 65, 0
1, 14010, Note_on_c, 0, 68, 80
1, 14040, Note_on_c, 0, 68, 0
1, 14040, Note_on_c, 0, 67, 80
1, 14040, Note_on_c, 0, 63, 80
1, 14040, Note_on_c, 1, 53, 0
1, 14040, Note_on_c, 1, 46, 0
1, 14040, Note_on_c, 1, 51, 80
1, 14100, Note_on_c, 0, 63, 0
1, 14100, Note_on_c, 0, 67, 0
1, 14100, Note_on_c, 1, 51, 0
1, 14160, Note_on_c, 0, 82, 80
1, 14160, Note_on_c, 0, 79, 80
1, 14220, Note_on_c, 0, 79, 0
1, 14220, Note_on_c, 0, 82, 0
1, 14280, Note_on_c, 0, 63, 80
1, 14287, Note_on_c, 0, 63, 0
1, 14287, Note_on_c, 0, 65, 80
1, 14294, Note_on_c, 0, 65, 0
1, 14294, Note_on_c, 0, 67, 80
1, 14301, Note_on_c, 0, 67, 0
1, 14301, Note_on_c, 0, 68, 80
1, 14308, Note_on_c, 0, 68, 0
1, 14308, Note_on_c, 0, 70, 80
1, 14315, Note_on_c, 0, 70, 0
1, 14315, Note_on_c, 0, 72, 80
1, 14322, Note_on_c, 0, 72, 0
1, 14322, Note_on_c, 0, 74, 80
1, 14329, Note_on_c, 0, 74, 0
1, 14329, Note_on_c, 0, 75, 80
1, 14336, Note_on_c, 0, 75, 0
1, 14336, Note_on_c, 0, 74, 80
1, 14356, Note_on_c, 0, 74, 0
1, 14356, Note_on_c, 0, 75, 80
1, 14376, Note_on_c, 0, 75, 0
1, 14376, Note_on_c, 0, 77, 80
1, 14396, Note_on_c, 0, 77, 0
1, 14400, Note_on_c, 0, 75, 80
1, 14580, Note_on_c, 0, 75, 0
1, 14580, Note_on_c, 0, 74, 56
1, 14640, Note_on_c, 0, 74, 0
1, 14640, Note_on_c, 0, 72, 56
1, 14640, Note_on_c, 1, 63, 56
1, 14640, Note_on_c, 1, 67, 56
1, 14760, Note_on_c, 0, 72, 0
1, 14760, Note_on_c, 0, 72, 56
1, 14760, Note_on_c, 1, 67, 0
1, 14760, Note_on_c, 1, 63, 0
1, 14760, Note_on_c, 1, 62, 56
1, 14760, Note_on_c, 1, 65, 56
1, 14880, Note_on_c, 0, 72, 0
1, 14880, Note_on_c, 0, 70, 56
1, 14900, Note_on_c, 0, 70, 0
1, 14900, Note_on_c, 0, 72, 56
1, 14920, Note_on_c, 0, 72, 0
1, 14920, Note_on_c, 0, 70, 56
1, 14940, Note_on_c, 0, 70, 0
1, 14940, Note_on_c, 0, 69, 56
1, 14970, Note_on_c, 0, 69, 0
1, 14970, Note_on_c, 0, 70, 56
1, 15000, Note_on_c, 0, 70, 0
1, 15000, Note_on_c, 0, 74, 56
1, 15000, Note_on_c, 1, 65, 0
1, 15000, Note_on_c, 1, 62, 0
1, 15000, Note_on_c, 1, 60, 56
1, 15000, Note_on_c, 1, 63, 56
1, 15030, Note_on_c, 0, 74, 0
1, 15030, Note_on_c, 0, 72, 56
1, 15048, Note_on_c, 0, 72, 0
1, 15060, Note_on_c, 0, 70, 56
1, 15078, Note_on_c, 0, 70, 0
1, 15090, Note_on_c, 0, 68, 56
1, 15108, Note_on_c, 0, 68, 0
1, 15120, Note_on_c, 0, 68, 56
1, 15120, Note_on_c, 1, 63, 0
1, 15120, Note_on_c, 1, 60, 0
1, 15120, Note_on_c, 1, 58, 56
1, 15120, Note_on_c, 1, 62, 56
1, 15135, Note_on_c, 0, 68, 0
1, 15135, Note_on_c, 0, 70, 56
1, 15150, Note_on_c, 0, 70, 0
1, 15150, Note_on_c, 0, 68, 56
1, 15165, Note_on_c, 0, 68, 0
1, 15165, Note_on_c, 0, 70, 56
1, 15180, Note_on_c, 0, 70, 0
1, 15180, Note_on_c, 0, 68, 56
1, 15195, Note_on_c, 0, 68, 0
1, 15195, Note_on_c, 0, 70, 56
1, 15210, Note_on_c, 0, 70, 0
1, 15210, Note_on_c, 0, 68, 56
1, 15220, Note_on_c, 0, 68, 0
1, 15220, Note_on_c, 0, 70, 56
1, 15230, Note_on_c, 0, 70, 0
1, 15230, Note_on_c, 0, 68, 56
1, 15240, Note_on_c, 0, 68, 0
1, 15240, Note_on_c, 0, 67, 56
1, 15300, Note_on_c, 0, 67, 0
1, 15300, Note_on_c, 0, 65, 56
1, 15330, Note_on_c, 0, 65, 0
1, 15330, Note_on_c, 0, 67, 56
1, 15360, Note_on_c, 0, 67, 0
1, 15360, Note_on_c, 0, 70, 56
1, 15360, Note_on_c, 1, 62, 0
1, 15360, Note_on_c, 1, 58, 0
1, 15360, Note_on_c, 1, 56, 56
1, 15360, Note_on_c, 1, 60, 56
1, 15390, Note_on_c, 0, 70, 0
1, 15390, Note_on_c, 0, 68, 56
1, 15420, Note_on_c, 0, 68, 0
1, 15420, Note_on_c, 0, 67, 56
1, 15450, Note_on_c, 0, 67, 0
1, 15450, Note_on_c, 0, 65, 56
1, 15468, Note_on_c, 0, 65, 0
1, 15480, Note_on_c, 0, 70, 80
1, 15480, Note_on_c, 1, 60, 0
1, 15480, Note_on_c, 1, 56, 0
1, 15480, Note_on_c, 1, 56, 80
1, 15480, Note_on_c, 1, 58, 80
1, 15480, Note_on_c, 1, 62, 80
1, 15480, Note_on_c, 1, 65, 80
1, 15540, Note_on_c, 0, 70, 0
1, 15540, Note_on_c, 0, 69, 80
1, 15570, Note_on_c, 0, 69, 0
1, 15570, Note_on_c, 0, 70, 80
1, 15600, Note_on_c, 0, 70, 0
1, 15600, Note_on_c, 0, 69, 80
1, 15630, Note_on_c, 0, 69, 0
1, 15630, Note_on_c, 0, 70, 80
1, 15660, Note_on_c, 0, 70, 0
1, 15660, Note_on_c, 0, 69, 80
1, 15690, Note_on_c, 0, 69, 0
1, 15690, Note_on_c, 0, 70, 80
1, 15720, Note_on_c, 0, 70, 0
1, 15720, Note_on_c, 0, 72, 80
1, 15720, Note_on_c, 1, 65, 0
1, 15720, Note_on_c, 1, 56, 0
1, 15720, Note_on_c, 1, 58, 0
1, 15720, Note_on_c, 1, 62, 0
1, 15720, Note_on_c, 1, 55, 80
1, 15720, Note_on_c, 1, 58, 80
1, 15720, Note_on_c, 1, 63, 80
1, 15750, Note_on_c, 0, 72, 0
1, 15750, Note_on_c, 0, 70, 80
1, 15780, Note_on_c, 0, 70, 0
1, 15780, Note_on_c, 0, 68, 80
1, 15810, Note_on_c, 0, 68, 0
1, 15810, Note_on_c, 0, 67, 80
1, 15840, Note_on_c, 0, 67, 0
1, 15840, Note_on_c, 0, 67, 80
1, 15840, Note_on_c, 1, 63, 0
1, 15840, Note_on_c, 1, 58, 0
1, 15840, Note_on_c, 1, 55, 0
1, 15840, Note_on_c, 1, 56, 80
1, 15840, Note_on_c, 1, 60, 80
1, 15870, Note_on_c, 0, 67, 0
1, 15870, Note_on_c, 0, 65, 80
1, 15888, Note_on_c, 0, 65, 0
1, 15900, Note_on_c, 0, 68, 80
1, 15918, Note_on_c, 0, 68, 0
1, 15930, Note_on_c, 0, 65, 80
1, 15948, Note_on_c, 0, 65, 0
1, 15960, Note_on_c, 0, 65, 80
1, 15960, Note_on_c, 1, 60, 0
1, 15960, Note_on_c, 1, 56, 0
1, 15960, Note_on_c, 1, 46, 80
1, 15960, Note_on_c, 1, 55, 80
1, 15990, Note_on_c, 0, 65, 0
1, 15990, Note_on_c, 0, 63, 80
1, 16014, Note_on_c, 0, 63, 0
1, 16020, Note_on_c, 0, 67, 80
1, 16044, Note_on_c, 0, 67, 0
1, 16050, Note_on_c, 0, 63, 80
1, 16074, Note_on_c, 0, 63, 0
1, 16080, Note_on_c, 0, 63, 80
1, 16080, Note_on_c, 1, 55, 0
1, 16080, Note_on_c, 1, 46, 0
1, 16080, Note_on_c, 1, 46, 80
1, 16080, Note_on_c, 1, 53, 80
1, 16110, Note_on_c, 0, 63, 0
1, 16110, Note_on_c, 0, 62, 80
1, 16140, Note_on_c, 0, 62, 0
1, 16140, Note_on_c, 0, 65, 80
1, 16170, Note_on_c, 0, 65, 0
1, 16170, Note_on_c, 0, 62, 80
1, 16200, Note_on_c, 0, 62, 0
1, 16200, Note_on_c, 0, 63, 80
1, 16200, Note_on_c, 1, 53, 0
1, 16200, Note_on_c, 1, 46, 0
1, 16200, Note_on_c, 1, 39, 56
1, 16260, Note_on_c, 1, 39, 0
1, 16260, Note_on_c, 1, 51, 56
1, 16320, Note_on_c, 1, 51, 0
1, 16320, Note_on_c, 1, 43, 56
1, 16380, Note_on_c, 1, 43, 0
1, 16380, Note_on_c, 1, 51, 56
1, 16440, Note_on_c, 0, 63, 0
1, 16440, Note_on_c, 0, 63, 56
1, 16440, Note_on_c, 0, 67, 56
1, 16440, Note_on_c, 1, 51, 0
1, 16440, Note_on_c, 1, 39, 56
1, 16500, Note_on_c, 1, 39, 0
1, 16500, Note_on_c, 1, 51, 56
1, 16560, Note_on_c, 0, 67, 0
1, 16560, Note_on_c, 0, 63, 0
1, 16560, Note_on_c, 0, 65, 56
1, 16560, Note_on_c, 0, 63, 56
1, 16560, Note_on_c, 1, 51, 0
1, 16560, Note_on_c, 1, 44, 56
1, 16620, Note_on_c, 1, 44, 0
1, 16620, Note_on_c, 1, 56, 56
1, 16680, Note_on_c, 1, 56, 0
1, 16680, Note_on_c, 1, 48, 56
1, 16740, Note_on_c, 1, 48, 0
1, 16740, Note_on_c, 1, 56, 56
1, 16800, Note_on_c, 0, 63, 0
1, 16800, Note_on_c, 0, 65, 0
1, 16800, Note_on_c, 0, 72, 72
1, 16800, Note_on_c, 0, 68, 72
1, 16800, Note_on_c, 0, 63, 72
1, 16800, Note_on_c, 1, 56, 0
1, 16800, Note_on_c, 1, 44, 56
1, 16860, Note_on_c, 1, 44, 0
1, 16860, Note_on_c, 1, 56, 56
1, 16920, Note_on_c, 0, 63, 0
1, 16920, Note_on_c, 0, 68, 0
1, 16920, Note_on_c, 0, 72, 0
1, 16920, Note_on_c, 0, 72, 80
1, 16920, Note_on_c, 0, 68, 80
1, 16920, Note_on_c, 0, 62, 80
1, 16920, Note_on_c, 1, 56, 0
1, 16920, Note_on_c, 1, 46, 64
1, 16980, Note_on_c, 1, 46, 0
1, 16980, Note_on_c, 1, 58, 64
1, 17040, Note_on_c, 0, 62, 0
1, 17040, Note_on_c, 0, 68, 0
1, 17040, Note_on_c, 0, 72, 0
1, 17040, Note_on_c, 0, 70, 80
1, 17040, Note_on_c, 0, 67, 80
1, 17040, Note_on_c, 1, 58, 0
1, 17040, Note_on_c, 1, 50, 64
1, 17100, Note_on_c, 1, 50, 0
1, 17100, Note_on_c, 1, 58, 64
1, 17160, Note_on_c, 0, 67, 0
1, 17160, Note_on_c, 0, 70, 0
1, 17160, Note_on_c, 0, 65, 80
1, 17160, Note_on_c, 0, 68, 80
1, 17160, Note_on_c, 1, 58, 0
1, 17160, Note_on_c, 1, 46, 64
1, 17220, Note_on_c, 1, 46, 0
1, 17220, Note_on_c, 1, 58, 64
1, 17247, Note_on_c, 0, 68, 0
1, 17247, Note_on_c, 0, 65, 0
1, 17247, Note_on_c, 0, 67, 80
1, 17257, Note_on_c, 0, 67, 0
1, 17257, Note_on_c, 0, 68, 80
1, 17267, Note_on_c, 0, 68, 0
1, 17267, Note_on_c, 0, 70, 80
1, 17277, Note_on_c, 0, 70, 0
1, 17280, Note_on_c, 0, 68, 80
1, 17280, Note_on_c, 0, 65, 80
1, 17280, Note_on_c, 1, 58, 0
1, 17280, Note_on_c, 1, 48, 64
1, 17340, Note_on_c, 1, 48, 0
1, 17340, Note_on_c, 1, 60, 64
1, 17400, Note_on_c, 1, 60, 0
1, 17400, Note_on_c, 1, 59, 64
1, 17460, Note_on_c, 1, 59, 0
1, 17460, Note_on_c, 1, 60, 64
1, 17520, Note_on_c, 0, 65, 0
1, 17520, Note_on_c, 0, 68, 0
1, 17520, Note_on_c, 0, 67, 80
1, 17520, Note_on_c, 0, 63, 80
1, 17520, Note_on_c, 1, 60, 0
1, 17520, Note_on_c, 1, 48, 64
1, 17580, Note_on_c, 1, 48, 0
1, 17580, Note_on_c, 1, 60, 64
1, 17640, Note_on_c, 0, 63, 0
1, 17640, Note_on_c, 0, 67, 0
1, 17640, Note_on_c, 0, 70, 96
1, 17640, Note_on_c, 0, 63, 96
1, 17640, Note_on_c, 0, 61, 96
1, 17640, Note_on_c, 1, 60, 0
1, 17640, Note_on_c, 1, 43, 72
1, 17670, Note_on_c, 1, 43, 0
1, 17670, Note_on_c, 1, 51, 72
1, 17700, Note_on_c, 1, 51, 0
1, 17700, Note_on_c, 1, 46, 72
1, 17730, Note_on_c, 1, 46, 0
1, 17730, Note_on_c, 1, 51, 72
1, 17760, Note_on_c, 1, 51, 0
1, 17760, Note_on_c, 1, 43, 72
1, 17790, Note_on_c, 1, 43, 0
1, 17790, Note_on_c, 1, 51, 72
1, 17820, Note_on_c, 1, 51, 0
1, 17820, Note_on_c, 1, 46, 72
1, 17850, Note_on_c, 1, 46, 0
1, 17850, Note_on_c, 1, 51, 72
1, 17880, Note_on_c, 1, 51, 0
1, 17880, Note_on_c, 1, 43, 72
1, 17910, Note_on_c, 1, 43, 0
1, 17910, Note_on_c, 1, 51, 72
1, 17940, Note_on_c, 1, 51, 0
1, 17940, Note_on_c, 1, 46, 72
1, 17970, Note_on_c, 1, 46, 0
1, 17970, Note_on_c, 1, 51, 72
1, 18000, Note_on_c, 0, 61, 0
1, 18000, Note_on_c, 0, 63, 0
1, 18000, Note_on_c, 0, 70, 0
1, 18000, Note_on_c, 0, 60, 96
1, 18000, Note_on_c, 0, 63, 96
1, 18000, Note_on_c, 0, 70, 96
1, 18000, Note_on_c, 1, 51, 0
1, 18000, Note_on_c, 1, 44, 72
1, 18030, Note_on_c, 1, 44, 0
1, 18030, Note_on_c, 1, 56, 72
1, 18060, Note_on_c, 1, 56, 0
1, 18060, Note_on_c, 1, 51, 72
1, 18090, Note_on_c, 1, 51, 0
1, 18090, Note_on_c, 1, 56, 72
1, 18120, Note_on_c, 1, 56, 0
1, 18120, Note_on_c, 1, 44, 72
1, 18150, Note_on_c, 1, 44, 0
1, 18150, Note_on_c, 1, 56, 72
1, 18180, Note_on_c, 0, 70, 0
1, 18180, Note_on_c, 0, 63, 0
1, 18180, Note_on_c, 0, 60, 0
1, 18180, Note_on_c, 0, 68, 96
1, 18180, Note_on_c, 1, 56, 0
1, 18180, Note_on_c, 1, 51, 72
1, 18210, Note_on_c, 1, 51, 0
1, 18210, Note_on_c, 1, 56, 72
1, 18240, Note_on_c, 0, 68, 0
1, 18240, Note_on_c, 0, 67, 96
1, 18240, Note_on_c, 1, 56, 0
1, 18240, Note_on_c, 1, 44, 72
1, 18270, Note_on_c, 1, 44, 0
1, 18270, Note_on_c, 1, 56, 72
1, 18300, Note_on_c, 0, 67, 0
1, 18300, Note_on_c, 0, 65, 96
1, 18300, Note_on_c, 1, 56, 0
1, 18300, Note_on_c, 1, 51, 72
1, 18330, Note_on_c, 1, 51, 0
1, 18330, Note_on_c, 1, 56, 72
1, 18360, Note_on_c, 0, 65, 0
1, 18360, Note_on_c, 0, 63, 96
1, 18360, Note_on_c, 0, 58, 96
1, 18360, Note_on_c, 1, 56, 0
1, 18360, Note_on_c, 1, 46, 72
1, 18390, Note_on_c, 1, 46, 0
1, 18390, Note_on_c, 1, 55, 72
1, 18420, Note_on_c, 1, 55, 0
1, 18420, Note_on_c, 1, 51, 72
1, 18450, Note_on_c, 1, 51, 0
1, 18450, Note_on_c, 1, 55, 72
1, 18480, Note_on_c, 1, 55, 0
1, 18480, Note_on_c, 1, 46, 72
1, 18510, Note_on_c, 1, 46, 0
1, 18510, Note_on_c, 1, 55, 72
1, 18540, Note_on_c, 0, 63, 0
1, 18540, Note_on_c, 0, 67, 96
1, 18540, Note_on_c, 1, 55, 0
1, 18540, Note_on_c, 1, 51, 72
1, 18570, Note_on_c, 1, 51, 0
1, 18570, Note_on_c, 1, 55, 72
1, 18600, Note_on_c, 0, 67, 0
1, 18600, Note_on_c, 0, 58, 0
1, 18600, Note_on_c, 0, 65, 96
1, 18600, Note_on_c, 0, 62, 96
1, 18600, Note_on_c, 1, 55, 0
1, 18600, Note_on_c, 1, 46, 72
1, 18630, Note_on_c, 1, 46, 0
1, 18630, Note_on_c, 1, 56, 72
1, 18660, Note_on_c, 1, 56, 0
1, 18660, Note_on_c, 1, 53, 72
1, 18690, Note_on_c, 0, 65, 0
1, 18690, Note_on_c, 0, 63, 96
1, 18690, Note_on_c, 1, 53, 0
1, 18690, Note_on_c, 1, 56, 72
1, 18720, Note_on_c, 0, 63, 0
1, 18720, Note_on_c, 0, 62, 0
1, 18720, Note_on_c, 0, 63, 96
1, 18720, Note_on_c, 1, 56, 0
1, 18720, Note_on_c, 1, 51, 88
1, 18720, Note_on_c, 1, 55, 88
1, 18840, Note_on_c, 0, 63, 0
1, 18840, Note_on_c, 1, 55, 0
1, 18840, Note_on_c, 1, 51, 0
1, 18960, Note_on_c, 0, 55, 48
1, 18960, Note_on_c, 0, 58, 48
1, 19020, Note_on_c, 0, 58, 0
1, 19020, Note_on_c, 0, 55, 0
1, 19080, Note_on_c, 0, 51, 48
1, 19080, Note_on_c, 0, 55, 48
1, 19140, Note_on_c, 0, 55, 0
1, 19140, Note_on_c, 0, 51, 0
1, 19380, Note_on_c, 0, 70, 56
1, 19410, Note_on_c, 0, 70, 0
1, 19410, Note_on_c, 0, 75, 56
1, 19440, Note_on_c, 0, 75, 0
1, 19440, Note_on_c, 0, 79, 56
1, 19620, Note_on_c, 0, 79, 0
1, 19620, Note_on_c, 0, 77, 56
1, 19680, Note_on_c, 0, 77, 0
1, 19680, Note_on_c, 0, 75, 56
1, 19680, Note_on_c, 1, 63, 56
1, 19680, Note_on_c, 1, 67, 56
1, 19800, Note_on_c, 0, 75, 0
1, 19800, Note_on_c, 0, 74, 56
1, 19800, Note_on_c, 1, 67, 0
1, 19800, Note_on_c, 1, 63, 0
1, 19800, Note_on_c, 1, 65, 56
1, 19800, Note_on_c, 1, 68, 56
1, 19860, Note_on_c, 0, 74, 0
1, 19860, Note_on_c, 1, 68, 0
1, 19860, Note_on_c, 1, 65, 0
1, 19920, Note_on_c, 0, 77, 56
1, 19920, Note_on_c, 0, 80, 56
1, 19980, Note_on_c, 0, 80, 0
1, 19980, Note_on_c, 0, 77, 0
1, 20040, Note_on_c, 0, 58, 56
1, 20054, Note_on_c, 0, 58, 0
1, 20054, Note_on_c, 0, 60, 56
1, 20061, Note_on_c, 0, 60, 0
1, 20061, Note_on_c, 0, 62, 56
1, 20068, Note_on_c, 0, 62, 0
1, 20068, Note_on_c, 0, 63, 56
1, 20075, Note_on_c, 0, 63, 0
1, 20075, Note_on_c, 0, 65, 56
1, 20082, Note_on_c, 0, 65, 0
1, 20082, Note_on_c, 0, 67, 56
1, 20089, Note_on_c, 0, 67, 0
1, 20089, Note_on_c, 0, 68, 56
1, 20096, Note_on_c, 0, 68, 0
1, 20096, Note_on_c, 0, 70, 56
1, 20103, Note_on_c, 0, 70, 0
1, 20103, Note_on_c, 0, 72, 56
1, 20110, Note_on_c, 0, 72, 0
1, 20110, Note_on_c, 0, 74, 56
1, 20117, Note_on_c, 0, 74, 0
1, 20117, Note_on_c, 0, 75, 56
1, 20124, Note_on_c, 0, 75, 0
1, 20124, Note_on_c, 0, 77, 56
1, 20131, Note_on_c, 0, 77, 0
1, 20131, Note_on_c, 0, 79, 56
1, 20138, Note_on_c, 0, 79, 0
1, 20138, Note_on_c, 0, 80, 56
1, 20145, Note_on_c, 0, 80, 0
1, 20145, Note_on_c, 0, 82, 56
1, 20152, Note_on_c, 0, 82, 0
1, 20160, Note_on_c, 0, 80, 56
1, 20160, Note_on_c, 0, 84, 56
1, 20340, Note_on_c, 0, 84, 0
1, 20340, Note_on_c, 0, 80, 0
1, 20340, Note_on_c, 0, 79, 56
1, 20340, Note_on_c, 0, 82, 56
1, 20400, Note_on_c, 0, 82, 0
1, 20400, Note_on_c, 0, 79, 0
1, 20400, Note_on_c, 0, 77, 56
1, 20400, Note_on_c, 0, 80, 56
1, 20400, Note_on_c, 1, 62, 56
1, 20400, Note_on_c, 1, 70, 56
1, 20520, Note_on_c, 0, 80, 0
1, 20520, Note_on_c, 0, 77, 0
1, 20520, Note_on_c, 0, 75, 56
1, 20520, Note_on_c, 0, 79, 56
1, 20520, Note_on_c, 1, 70, 0
1, 20520, Note_on_c, 1, 62, 0
1, 20520, Note_on_c, 1, 63, 56
1, 20520, Note_on_c, 1, 70, 56
1, 20580, Note_on_c, 0, 79, 0
1, 20580, Note_on_c, 0, 75, 0
1, 20580, Note_on_c, 1, 70, 0
1, 20580, Note_on_c, 1, 63, 0
1, 20640, Note_on_c, 0, 79, 56
1, 20640, Note_on_c, 0, 82, 56
1, 20700, Note_on_c, 0, 82, 0
1, 20700, Note_on_c, 0, 79, 0
1, 20880, Note_on_c, 0, 63, 80
1, 20880, Note_on_c, 0, 67, 80
1, 20880, Note_on_c, 1, 51, 80
1, 20940, Note_on_c, 1, 61, 80
1, 20964, Note_on_c, 0, 67, 0
1, 20964, Note_on_c, 0, 63, 0
1, 21000, Note_on_c, 0, 82, 80
1, 21000, Note_on_c, 0, 79, 80
1, 21000, Note_on_c, 1, 61, 0
1, 21000, Note_on_c, 1, 58, 80
1, 21060, Note_on_c, 0, 79, 0
1, 21060, Note_on_c, 0, 82, 0
1, 21060, Note_on_c, 1, 58, 0
1, 21060, Note_on_c, 1, 61, 80
1, 21120, Note_on_c, 1, 61, 0
1, 21120, Note_on_c, 1, 58, 80
1, 21180, Note_on_c, 1, 58, 0
1, 21180, Note_on_c, 1, 61, 80
1, 21240, Note_on_c, 0, 60, 80
1, 21240, Note_on_c, 0, 67, 80
1, 21240, Note_on_c, 1, 61, 0
1, 21240, Note_on_c, 1, 51, 0
1, 21240, Note_on_c, 1, 52, 80
1, 21300, Note_on_c, 1, 60, 80
1, 21324, Note_on_c, 0, 67, 0
1, 21324, Note_on_c, 0, 60, 0
1, 21360, Note_on_c, 0, 82, 80
1, 21360, Note_on_c, 0, 79, 80
1, 21360, Note_on_c, 1, 60, 0
1, 21360, Note_on_c, 1, 59, 80
1, 21420, Note_on_c, 0, 79, 0
1, 21420, Note_on_c, 0, 82, 0
1, 21420, Note_on_c, 1, 59, 0
1, 21420, Note_on_c, 1, 60, 80
1, 21480, Note_on_c, 1, 60, 0
1, 21480, Note_on_c, 1, 55, 80
1, 21540, Note_on_c, 1, 55, 0
1, 21540, Note_on_c, 1, 60, 80
1, 21600, Note_on_c, 0, 65, 80
1, 21600, Note_on_c, 0, 68, 80
1, 21600, Note_on_c, 1, 60, 0
1, 21600, Note_on_c, 1, 52, 0
1, 21600, Note_on_c, 1, 53, 80
1, 21660, Note_on_c, 1, 60, 80
1, 21672, Note_on_c, 0, 68, 0
1, 21672, Note_on_c, 0, 65, 0
1, 21720, Note_on_c, 0, 77, 80
1, 21720, Note_on_c, 0, 80, 80
1, 21720, Note_on_c, 1, 60, 0
1, 21720, Note_on_c, 1, 59, 80
1, 21780, Note_on_c, 1, 59, 0
1, 21780, Note_on_c, 1, 60, 80
1, 21792, Note_on_c, 0, 80, 0
1, 21792, Note_on_c, 0, 77, 0
1, 21840, Note_on_c, 1, 60, 0
1, 21840, Note_on_c, 1, 59, 80
1, 21900, Note_on_c, 1, 59, 0
1, 21900, Note_on_c, 1, 60, 80
1, 21960, Note_on_c, 0, 65, 80
1, 21960, Note_on_c, 0, 68, 80
1, 21960, Note_on_c, 1, 60, 0
1, 21960, Note_on_c, 1, 53, 0
1, 21960, Note_on_c, 1, 53, 80
1, 22020, Note_on_c, 1, 62, 80
1, 22044, Note_on_c, 0, 68, 0
1, 22044, Note_on_c, 0, 65, 0
1, 22080, Note_on_c, 0, 77, 80
1, 22080, Note_on_c, 0, 80, 80
1, 22080, Note_on_c, 1, 62, 0
1, 22080, Note_on_c, 1, 59, 80
1, 22140, Note_on_c, 1, 59, 0
1, 22140, Note_on_c, 1, 62, 80
1, 22164, Note_on_c, 0, 80, 0
1, 22164, Note_on_c, 0, 77, 0
1, 22200, Note_on_c, 0, 77, 80
1, 22200, Note_on_c, 0, 80, 80
1, 22200, Note_on_c, 1, 62, 0
1, 22200, Note_on_c, 1, 59, 80
1, 22260, Note_on_c, 1, 59, 0
1, 22260, Note_on_c, 1, 62, 80
1, 22284, Note_on_c, 0, 80, 0
1, 22284, Note_on_c, 0, 77, 0
1, 22320, Note_on_c, 0, 79, 80
1, 22320, Note_on_c, 1, 62, 0
1, 22320, Note_on_c, 1, 53, 0
1, 22320, Note_on_c, 1, 51, 80
1, 22380, Note_on_c, 1, 60, 80
1, 22440, Note_on_c, 1, 60, 0
1, 22440, Note_on_c, 1, 55, 80
1, 22500, Note_on_c, 1, 55, 0
1, 22500, Note_on_c, 1, 60, 80
1, 22560, Note_on_c, 0, 79, 0
1, 22560, Note_on_c, 0, 77, 80
1, 22560, Note_on_c, 1, 60, 0
1, 22560, Note_on_c, 1, 51, 0
1, 22560, Note_on_c, 1, 51, 80
1, 22590, Note_on_c, 0, 77, 0
1, 22590, Note_on_c, 0, 75, 80
1, 22611, Note_on_c, 0, 75, 0
1, 22620, Note_on_c, 0, 74, 80
1, 22620, Note_on_c, 1, 60, 80
1, 22641, Note_on_c, 0, 74, 0
1, 22650, Note_on_c, 0, 72, 80
1, 22671, Note_on_c, 0, 72, 0
1, 22680, Note_on_c, 0, 74, 80
1, 22680, Note_on_c, 0, 77, 80
1, 22680, Note_on_c, 1, 60, 0
1, 22680, Note_on_c, 1, 51, 0
1, 22680, Note_on_c, 1, 47, 80
1, 22740, Note_on_c, 1, 55, 80
1, 22800, Note_on_c, 1, 55, 0
1, 22800, Note_on_c, 1, 50, 80
1, 22860, Note_on_c, 1, 50, 0
1, 22860, Note_on_c, 1, 55, 80
1, 22920, Note_on_c, 0, 77, 0
1, 22920, Note_on_c, 0, 74, 0
1, 22920, Note_on_c, 0, 77, 80
1, 22920, Note_on_c, 1, 55, 0
1, 22920, Note_on_c, 1, 47, 0
1, 22920, Note_on_c, 1, 48, 80
1, 22950, Note_on_c, 0, 77, 0
1, 22950, Note_on_c, 0, 75, 80
1, 22980, Note_on_c, 0, 75, 0
1, 22980, Note_on_c, 0, 74, 80
1, 22980, Note_on_c, 1, 55, 80
1, 23010, Note_on_c, 0, 74, 0
1, 23010, Note_on_c, 0, 72, 80
1, 23040, Note_on_c, 0, 72, 0
1, 23040, Note_on_c, 0, 71, 80
1, 23040, Note_on_c, 1, 55, 0
1, 23040, Note_on_c, 1, 48, 0
1, 23040, Note_on_c, 1, 43, 80
1, 23100, Note_on_c, 1, 43, 0
1, 23100, Note_on_c, 1, 55, 80
1, 23136, Note_on_c, 0, 71, 0
1, 23160, Note_on_c, 0, 71, 80
1, 23160, Note_on_c, 0, 79, 80
1, 23160, Note_on_c, 1, 55, 0
1, 23160, Note_on_c, 1, 50, 80
1, 23220, Note_on_c, 0, 79, 0
1, 23220, Note_on_c, 0, 71, 0
1, 23220, Note_on_c, 1, 50, 0
1, 23220, Note_on_c, 1, 55, 80
1, 23280, Note_on_c, 0, 71, 80
1, 23280, Note_on_c, 0, 79, 80
1, 23280, Note_on_c, 1, 55, 0
1, 23280, Note_on_c, 1, 47, 80
1, 23340, Note_on_c, 0, 79, 0
1, 23340, Note_on_c, 0, 71, 0
1, 23340, Note_on_c, 1, 47, 0
1, 23340, Note_on_c, 1, 50, 80
1, 23400, Note_on_c, 0, 71, 80
1, 23400, Note_on_c, 0, 79, 80
1, 23400, Note_on_c, 1, 50, 0
1, 23400, Note_on_c, 1, 43, 80
1, 23460, Note_on_c, 0, 79, 0
1, 23460, Note_on_c, 0, 71, 0
1, 23460, Note_on_c, 1, 43, 0
1, 23700, Note_on_c, 0, 55, 56
1, 23730, Note_on_c, 0, 55, 0
1, 23730, Note_on_c, 0, 60, 56
1, 23760, Note_on_c, 0, 60, 0
1, 23760, Note_on_c, 0, 63, 56
1, 23940, Note_on_c, 0, 63, 0
1, 23940, Note_on_c, 0, 62, 56
1, 24000, Note_on_c, 0, 62, 0
1, 24000, Note_on_c, 0, 60, 56
1, 24000, Note_on_c, 1, 48, 56
1, 24000, Note_on_c, 1, 51, 56
1, 24120, Note_on_c, 0, 60, 0
1, 24120, Note_on_c, 0, 59, 56
1, 24120, Note_on_c, 1, 51, 0
1, 24120, Note_on_c, 1, 48, 0
1, 24120, Note_on_c, 1, 50, 56
1, 24120, Note_on_c, 1, 53, 56
1, 24174, Note_on_c, 0, 59, 0
1, 24192, Note_on_c, 1, 53, 0
1, 24192, Note_on_c, 1, 50, 0
1, 24210, Note_on_c, 0, 80, 56
1, 24228, Note_on_c, 0, 80, 0
1, 24240, Note_on_c, 0, 80, 56
1, 24270, Note_on_c, 0, 80, 0
1, 24270, Note_on_c, 0, 79, 56
1, 24288, Note_on_c, 0, 79, 0
1, 24300, Note_on_c, 0, 79, 56
1, 24330, Note_on_c, 0, 79, 0
1, 24330, Note_on_c, 0, 77, 56
1, 24348, Note_on_c, 0, 77, 0
1, 24360, Note_on_c, 0, 77, 56
1, 24390, Note_on_c, 0, 77, 0
1, 24390, Note_on_c, 0, 75, 56
1, 24408, Note_on_c, 0, 75, 0
1, 24420, Note_on_c, 0, 75, 56
1, 24450, Note_on_c, 0, 75, 0
1, 24450, Note_on_c, 0, 74, 56
1, 24468, Note_on_c, 0, 74, 0
1, 24480, Note_on_c, 0, 74, 56
1, 24510, Note_on_c, 0, 74, 0
1, 24510, Note_on_c, 0, 72, 56
1, 24540, Note_on_c, 0, 72, 0
1, 24540, Note_on_c, 0, 72, 56
1, 24570, Note_on_c, 0, 72, 0
1, 24570, Note_on_c, 0, 71, 56
1, 24600, Note_on_c, 0, 71, 0
1, 24600, Note_on_c, 0, 71, 56
1, 24630, Note_on_c, 0, 71, 0
1, 24630, Note_on_c, 0, 68, 56
1, 24660, Note_on_c, 0, 68, 0
1, 24660, Note_on_c, 0, 67, 56
1, 24690, Note_on_c, 0, 67, 0
1, 24690, Note_on_c, 0, 65, 56
1, 24720, Note_on_c, 0, 65, 0
1, 24720, Note_on_c, 0, 63, 56
1, 24720, Note_on_c, 1, 50, 56
1, 24720, Note_on_c, 1, 53, 56
1, 24750, Note_on_c, 0, 63, 0
1, 24750, Note_on_c, 0, 62, 56
1, 24780, Note_on_c, 0, 62, 0
1, 24780, Note_on_c, 0, 60, 56
1, 24810, Note_on_c, 0, 60, 0
1, 24810, Note_on_c, 0, 59, 56
1, 24840, Note_on_c, 0, 59, 0
1, 24840, Note_on_c, 0, 60, 56
1, 24840, Note_on_c, 1, 53, 0
1, 24840, Note_on_c, 1, 50, 0
1, 24840, Note_on_c, 1, 51, 56
1, 24840, Note_on_c, 1, 55, 56
1, 24870, Note_on_c, 0, 60, 0
1, 24870, Note_on_c, 0, 55, 56
1, 24900, Note_on_c, 0, 55, 0
1, 24900, Note_on_c, 0, 63, 56
1, 24930, Note_on_c, 0, 63, 0
1, 24930, Note_on_c, 0, 60, 56
1, 24960, Note_on_c, 0, 60, 0
1, 24960, Note_on_c, 0, 67, 56
1, 24960, Note_on_c, 1, 55, 0
1, 24960, Note_on_c, 1, 51, 0
1, 24990, Note_on_c, 0, 67, 0
1, 24990, Note_on_c, 0, 63, 56
1, 25020, Note_on_c, 0, 63, 0
1, 25020, Note_on_c, 0, 72, 56
1, 25050, Note_on_c, 0, 72, 0
1, 25050, Note_on_c, 0, 67, 56
1, 25080, Note_on_c, 0, 67, 0
1, 25080, Note_on_c, 0, 75, 56
1, 25110, Note_on_c, 0, 75, 0
1, 25110, Note_on_c, 0, 72, 56
1, 25140, Note_on_c, 0, 72, 0
1, 25140, Note_on_c, 0, 79, 56
1, 25170, Note_on_c, 0, 79, 0
1, 25170, Note_on_c, 0, 75, 56
1, 25200, Note_on_c, 0, 75, 0
1, 25200, Note_on_c, 0, 84, 56
1, 25254, Note_on_c, 0, 84, 0
1, 25290, Note_on_c, 0, 79, 56
1, 25308, Note_on_c, 0, 79, 0
1, 25320, Note_on_c, 0, 84, 56
1, 25350, Note_on_c, 0, 84, 0
1, 25350, Note_on_c, 0, 79, 56
1, 25368, Note_on_c, 0, 79, 0
1, 25380, Note_on_c, 0, 84, 56
1, 25398, Note_on_c, 0, 84, 0
1, 25410, Note_on_c, 0, 79, 56
1, 25428, Note_on_c, 0, 79, 0
1, 25440, Note_on_c, 0, 84, 80
1, 25440, Note_on_c, 1, 63, 80
1, 25440, Note_on_c, 1, 72, 80
1, 25470, Note_on_c, 0, 84, 0
1, 25470, Note_on_c, 0, 79, 80
1, 25500, Note_on_c, 0, 79, 0
1, 25500, Note_on_c, 0, 84, 80
1, 25530, Note_on_c, 0, 84, 0
1, 25530, Note_on_c, 0, 79, 80
1, 25560, Note_on_c, 0, 79, 0
1, 25560, Note_on_c, 0, 82, 80
1, 25560, Note_on_c, 1, 72, 0
1, 25560, Note_on_c, 1, 63, 0
1, 25560, Note_on_c, 1, 65, 80
1, 25560, Note_on_c, 1, 72, 80
1, 25680, Note_on_c, 0, 82, 0
1, 25680, Note_on_c, 0, 80, 80
1, 25695, Note_on_c, 0, 80, 0
1, 25695, Note_on_c, 0, 82, 80
1, 25710, Note_on_c, 0, 82, 0
1, 25710, Note_on_c, 0, 80, 80
1, 25725, Note_on_c, 0, 80, 0
1, 25725, Note_on_c, 0, 82, 80
1, 25740, Note_on_c, 0, 82, 0
1, 25740, Note_on_c, 0, 80, 80
1, 25750, Note_on_c, 0, 80, 0
1, 25750, Note_on_c, 0, 82, 80
1, 25760, Note_on_c, 0, 82, 0
1, 25760, Note_on_c, 0, 80, 80
1, 25770, Note_on_c, 0, 80, 0
1, 25770, Note_on_c, 0, 79, 80
1, 25785, Note_on_c, 0, 79, 0
1, 25785, Note_on_c, 0, 80, 80
1, 25800, Note_on_c, 0, 80, 0
1, 25800, Note_on_c, 0, 79, 80
1, 25800, Note_on_c, 1, 72, 0
1, 25800, Note_on_c, 1, 65, 0
1, 25800, Note_on_c, 1, 63, 80
1, 25800, Note_on_c, 1, 72, 80
1, 25830, Note_on_c, 0, 79, 0
1, 25830, Note_on_c, 0, 80, 80
1, 25840, Note_on_c, 0, 80, 0
1, 25840, Note_on_c, 0, 79, 80
1, 25850, Note_on_c, 0, 79, 0
1, 25850, Note_on_c, 0, 77, 80
1, 25860, Note_on_c, 0, 77, 0
1, 25860, Note_on_c, 0, 79, 80
1, 25890, Note_on_c, 0, 79, 0
1, 25890, Note_on_c, 0, 80, 80
1, 25920, Note_on_c, 0, 80, 0
1, 25920, Note_on_c, 0, 79, 80
1, 25920, Note_on_c, 1, 72, 0
1, 25920, Note_on_c, 1, 63, 0
1, 25920, Note_on_c, 1, 62, 80
1, 25920, Note_on_c, 1, 71, 80
1, 26016, Note_on_c, 0, 79, 0
1, 26040, Note_on_c, 0, 77, 80
1, 26052, Note_on_c, 0, 77, 0
1, 26055, Note_on_c, 0, 79, 80
1, 26067, Note_on_c, 0, 79, 0
1, 26070, Note_on_c, 0, 77, 80
1, 26078, Note_on_c, 0, 77, 0
1, 26080, Note_on_c, 0, 79, 80
1, 26088, Note_on_c, 0, 79, 0
1, 26090, Note_on_c, 0, 77, 80
1, 26098, Note_on_c, 0, 77, 0
1, 26100, Note_on_c, 0, 75, 80
1, 26112, Note_on_c, 1, 71, 0
1, 26112, Note_on_c, 1, 62, 0
1, 26124, Note_on_c, 0, 75, 0
1, 26130, Note_on_c, 0, 74, 80
1, 26154, Note_on_c, 0, 74, 0
1, 26160, Note_on_c, 0, 77, 80
1, 26160, Note_on_c, 1, 60, 80
1, 26160, Note_on_c, 1, 72, 80
1, 26184, Note_on_c, 0, 77, 0
1, 26190, Note_on_c, 0, 75, 80
1, 26214, Note_on_c, 0, 75, 0
1, 26220, Note_on_c, 0, 74, 80
1, 26244, Note_on_c, 0, 74, 0
1, 26250, Note_on_c, 0, 72, 80
1, 26256, Note_on_c, 1, 72, 0
1, 26256, Note_on_c, 1, 60, 0
1, 26274, Note_on_c, 0, 72, 0
1, 26280, Note_on_c, 0, 71, 80
1, 26280, Note_on_c, 0, 79, 80
1, 26280, Note_on_c, 1, 55, 80
1, 26280, Note_on_c, 1, 67, 80
1, 26376, Note_on_c, 0, 79, 0
1, 26376, Note_on_c, 0, 71, 0
1, 26376, Note_on_c, 1, 67, 0
1, 26376, Note_on_c, 1, 55, 0
1, 26580, Note_on_c, 0, 71, 56
1, 26604, Note_on_c, 0, 71, 0
1, 26610, Note_on_c, 0, 74, 56
1, 26640, Note_on_c, 0, 77, 56
1, 26820, Note_on_c, 0, 77, 0
1, 26820, Note_on_c, 0, 74, 0
1, 26820, Note_on_c, 0, 72, 56
1, 26820, Note_on_c, 0, 75, 56
1, 26868, Note_on_c, 0, 75, 0
1, 26868, Note_on_c, 0, 72, 0
1, 26880, Note_on_c, 0, 71, 56
1, 26880, Note_on_c, 0, 74, 56
1, 26880, Note_on_c, 1, 65, 56
1, 26976, Note_on_c, 0, 74, 0
1, 26976, Note_on_c, 0, 71, 0
1, 26976, Note_on_c, 1, 65, 0
1, 27000, Note_on_c, 0, 75, 56
1, 27000, Note_on_c, 0, 79, 56
1, 27000, Note_on_c, 1, 63, 56
1, 27180, Note_on_c, 0, 79, 0
1, 27180, Note_on_c, 0, 75, 0
1, 27180, Note_on_c, 0, 74, 56
1, 27180, Note_on_c, 0, 77, 56
1, 27192, Note_on_c, 1, 63, 0
1, 27228, Note_on_c, 0, 77, 0
1, 27228, Note_on_c, 0, 74, 0
1, 27240, Note_on_c, 0, 72, 56
1, 27240, Note_on_c, 0, 75, 56
1, 27240, Note_on_c, 1, 68, 56
1, 27336, Note_on_c, 0, 75, 0
1, 27336, Note_on_c, 0, 72, 0
1, 27336, Note_on_c, 1, 68, 0
1, 27360, Note_on_c, 1, 65, 56
1, 27390, Note_on_c, 0, 73, 56
1, 27420, Note_on_c, 0, 73, 0
1, 27420, Note_on_c, 0, 72, 56
1, 27450, Note_on_c, 0, 72, 0
1, 27450, Note_on_c, 0, 73, 56
1, 27480, Note_on_c, 0, 73, 0
1, 27480, Note_on_c, 0, 75, 56
1, 27510, Note_on_c, 0, 75, 0
1, 27510, Note_on_c, 0, 73, 56
1, 27540, Note_on_c, 0, 73, 0
1, 27540, Note_on_c, 0, 77, 56
1, 27570, Note_on_c, 0, 77, 0
1, 27570, Note_on_c, 0, 75, 56
1, 27600, Note_on_c, 0, 75, 0
1, 27600, Note_on_c, 0, 79, 56
1, 27600, Note_on_c, 1, 65, 0
1, 27630, Note_on_c, 0, 79, 0
1, 27630, Note_on_c, 0, 77, 56
1, 27660, Note_on_c, 0, 77, 0
1, 27660, Note_on_c, 0, 75, 56
1, 27690, Note_on_c, 0, 75, 0
1, 27690, Note_on_c, 0, 73, 56
1, 27720, Note_on_c, 0, 73, 0
1, 27720, Note_on_c, 0, 72, 56
1, 27720, Note_on_c, 1, 55, 56
1, 27720, Note_on_c, 1, 63, 56
1, 27840, Note_on_c, 0, 72, 0
1, 27840, Note_on_c, 0, 74, 56
1, 27855, Note_on_c, 0, 74, 0
1, 27855, Note_on_c, 0, 72, 56
1, 27870, Note_on_c, 0, 72, 0
1, 27870, Note_on_c, 0, 71, 56
1, 27885, Note_on_c, 0, 71, 0
1, 27885, Note_on_c, 0, 72, 56
1, 27900, Note_on_c, 0, 72, 0
1, 27900, Note_on_c, 0, 74, 56
1, 27960, Note_on_c, 0, 74, 0
1, 27960, Note_on_c, 0, 71, 56
1, 27960, Note_on_c, 1, 63, 0
1, 27960, Note_on_c, 1, 62, 56
1, 28080, Note_on_c, 0, 71, 0
1, 28080, Note_on_c, 0, 79, 80
1, 28080, Note_on_c, 1, 62, 0
1, 28080, Note_on_c, 1, 55, 0
1, 28080, Note_on_c, 1, 39, 64
1, 28140, Note_on_c, 1, 39, 0
1, 28140, Note_on_c, 1, 48, 64
1, 28200, Note_on_c, 1, 48, 0
1, 28200, Note_on_c, 1, 43, 64
1, 28260, Note_on_c, 0, 79, 0
1, 28260, Note_on_c, 0, 77, 80
1, 28260, Note_on_c, 1, 43, 0
1, 28260, Note_on_c, 1, 48, 64
1, 28290, Note_on_c, 0, 77, 0
1, 28290, Note_on_c, 0, 75, 80
1, 28320, Note_on_c, 0, 75, 0
1, 28320, Note_on_c, 0, 74, 80
1, 28320, Note_on_c, 1, 48, 0
1, 28320, Note_on_c, 1, 39, 64
1, 28350, Note_on_c, 0, 74, 0
1, 28350, Note_on_c, 0, 72, 80
1, 28380, Note_on_c, 0, 72, 0
1, 28380, Note_on_c, 0, 71, 80
1, 28380, Note_on_c, 1, 39, 0
1, 28380, Note_on_c, 1, 48, 64
1, 28410, Note_on_c, 0, 71, 0
1, 28410, Note_on_c, 0, 72, 80
1, 28440, Note_on_c, 0, 72, 0
1, 28440, Note_on_c, 0, 72, 80
1, 28440, Note_on_c, 1, 48, 0
1, 28440, Note_on_c, 1, 41, 64
1, 28500, Note_on_c, 1, 41, 0
1, 28500, Note_on_c, 1, 48, 64
1, 28560, Note_on_c, 1, 48, 0
1, 28560, Note_on_c, 1, 44, 64
1, 28620, Note_on_c, 0, 72, 0
1, 28620, Note_on_c, 0, 70, 80
1, 28620, Note_on_c, 1, 44, 0
1, 28620, Note_on_c, 1, 48, 64
1, 28650, Note_on_c, 0, 70, 0
1, 28650, Note_on_c, 0, 68, 80
1, 28680, Note_on_c, 0, 68, 0
1, 28680, Note_on_c, 0, 67, 80
1, 28680, Note_on_c, 1, 48, 0
1, 28680, Note_on_c, 1, 41, 64
1, 28710, Note_on_c, 0, 67, 0
1, 28710, Note_on_c, 0, 68, 80
1, 28740, Note_on_c, 0, 68, 0
1, 28740, Note_on_c, 0, 67, 80
1, 28740, Note_on_c, 1, 41, 0
1, 28740, Note_on_c, 1, 48, 64
1, 28770, Note_on_c, 0, 67, 0
1, 28770, Note_on_c, 0, 68, 80
1, 28800, Note_on_c, 0, 68, 0
1, 28800, Note_on_c, 0, 59, 80
1, 28800, Note_on_c, 0, 62, 80
1, 28800, Note_on_c, 0, 65, 80
1, 28800, Note_on_c, 0, 68, 80
1, 28800, Note_on_c, 1, 48, 0
1, 28800, Note_on_c, 1, 43, 64
1, 28860, Note_on_c, 1, 43, 0
1, 28860, Note_on_c, 1, 55, 64
1, 28920, Note_on_c, 1, 55, 0
1, 28920, Note_on_c, 1, 47, 64
1, 28980, Note_on_c, 0, 68, 0
1, 28980, Note_on_c, 0, 59, 0
1, 28980, Note_on_c, 0, 62, 0
1, 28980, Note_on_c, 0, 65, 0
1, 28980, Note_on_c, 0, 67, 80
1, 28980, Note_on_c, 1, 47, 0
1, 28980, Note_on_c, 1, 55, 64
1, 29040, Note_on_c, 0, 67, 0
1, 29040, Note_on_c, 0, 62, 80
1, 29040, Note_on_c, 0, 65, 80
1, 29040, Note_on_c, 1, 55, 0
1, 29040, Note_on_c, 1, 43, 64
1, 29100, Note_on_c, 1, 43, 0
1, 29100, Note_on_c, 1, 55, 64
1, 29160, Note_on_c, 0, 65, 0
1, 29160, Note_on_c, 0, 62, 0
1, 29160, Note_on_c, 0, 62, 80
1, 29160, Note_on_c, 0, 65, 80
1, 29160, Note_on_c, 1, 55, 0
1, 29160, Note_on_c, 1, 44, 64
1, 29220, Note_on_c, 1, 44, 0
1, 29220, Note_on_c, 1, 56, 64
1, 29280, Note_on_c, 1, 56, 0
1, 29280, Note_on_c, 1, 55, 64
1, 29340, Note_on_c, 1, 55, 0
1, 29340, Note_on_c, 1, 56, 64
1, 29400, Note_on_c, 0, 65, 0
1, 29400, Note_on_c, 0, 62, 0
1, 29400, Note_on_c, 0, 60, 80
1, 29400, Note_on_c, 0, 63, 80
1, 29400, Note_on_c, 1, 56, 0
1, 29400, Note_on_c, 1, 44, 64
1, 29460, Note_on_c, 1, 44, 0
1, 29460, Note_on_c, 1, 56, 64
1, 29520, Note_on_c, 0, 63, 0
1, 29520, Note_on_c, 0, 60, 0
1, 29520, Note_on_c, 0, 56, 80
1, 29520, Note_on_c, 0, 62, 80
1, 29520, Note_on_c, 1, 56, 0
1, 29520, Note_on_c, 1, 41, 64
1, 29580, Note_on_c, 1, 41, 0
1, 29580, Note_on_c, 1, 53, 64
1, 29640, Note_on_c, 1, 53, 0
1, 29640, Note_on_c, 1, 44, 64
1, 29700, Note_on_c, 0, 62, 0
1, 29700, Note_on_c, 0, 63, 80
1, 29700, Note_on_c, 1, 44, 0
1, 29700, Note_on_c, 1, 53, 64
1, 29760, Note_on_c, 0, 63, 0
1, 29760, Note_on_c, 0, 56, 0
1, 29760, Note_on_c, 0, 65, 80
1, 29760, Note_on_c, 1, 53, 0
1, 29760, Note_on_c, 1, 41, 64
1, 29820, Note_on_c, 1, 41, 0
1, 29820, Note_on_c, 1, 53, 64
1, 29880, Note_on_c, 0, 65, 0
1, 29880, Note_on_c, 0, 55, 80
1, 29880, Note_on_c, 0, 60, 80
1, 29880, Note_on_c, 1, 53, 0
1, 29880, Note_on_c, 1, 43, 64
1, 29940, Note_on_c, 1, 43, 0
1, 29940, Note_on_c, 1, 51, 64
1, 30000, Note_on_c, 1, 51, 0
1, 30000, Note_on_c, 1, 48, 64
1, 30060, Note_on_c, 0, 60, 0
1, 30060, Note_on_c, 0, 62, 80
1, 30060, Note_on_c, 1, 48, 0
1, 30060, Note_on_c, 1, 51, 64
1, 30120, Note_on_c, 0, 62, 0
1, 30120, Note_on_c, 0, 55, 0
1, 30120, Note_on_c, 0, 59, 80
1, 30120, Note_on_c, 1, 51, 0
1, 30120, Note_on_c, 1, 43, 64
1, 30120, Note_on_c, 1, 53, 64
1, 30240, Note_on_c, 0, 59, 0
1, 30240, Note_on_c, 0, 60, 72
1, 30240, Note_on_c, 1, 53, 0
1, 30240, Note_on_c, 1, 43, 0
1, 30240, Note_on_c, 1, 32, 72
1, 30240, Note_on_c, 1, 44, 72
1, 30240, Note_on_c, 1, 51, 72
1, 30600, Note_on_c, 0, 60, 0
1, 30600, Note_on_c, 1, 51, 0
1, 30600, Note_on_c, 1, 44, 0
1, 30600, Note_on_c, 1, 32, 0
1, 30720, Note_on_c, 0, 63, 56
1, 30750, Note_on_c, 0, 63, 0
1, 30750, Note_on_c, 0, 62, 56
1, 30780, Note_on_c, 0, 62, 0
1, 30780, Note_on_c, 0, 65, 56
1, 30810, Note_on_c, 0, 65, 0
1, 30810, Note_on_c, 0, 63, 56
1, 30840, Note_on_c, 0, 63, 0
1, 30840, Note_on_c, 0, 67, 56
1, 30870, Note_on_c, 0, 67, 0
1, 30870, Note_on_c, 0, 65, 56
1, 30900, Note_on_c, 0, 65, 0
1, 30900, Note_on_c, 0, 63, 56
1, 30930, Note_on_c, 0, 63, 0
1, 30930, Note_on_c, 0, 62, 56
1, 30960, Note_on_c, 0, 62, 0
1, 30960, Note_on_c, 0, 60, 56
1, 30990, Note_on_c, 0, 60, 0
1, 30990, Note_on_c, 0, 59, 56
1, 31020, Note_on_c, 0, 59, 0
1, 31020, Note_on_c, 0, 62, 56
1, 31050, Note_on_c, 0, 62, 0
1, 31050, Note_on_c, 0, 60, 56
1, 31080, Note_on_c, 0, 60, 0
1, 31080, Note_on_c, 0, 63, 56
1, 31110, Note_on_c, 0, 63, 0
1, 31110, Note_on_c, 0, 62, 56
1, 31140, Note_on_c, 0, 62, 0
1, 31140, Note_on_c, 0, 60, 56
1, 31170, Note_on_c, 0, 60, 0
1, 31170, Note_on_c, 0, 58, 56
1, 31200, Note_on_c, 0, 58, 0
1, 31200, Note_on_c, 0, 56, 56
1, 31230, Note_on_c, 0, 56, 0
1, 31230, Note_on_c, 0, 55, 56
1, 31260, Note_on_c, 0, 55, 0
1, 31260, Note_on_c, 0, 58, 56
1, 31290, Note_on_c, 0, 58, 0
1, 31290, Note_on_c, 0, 56, 56
1, 31320, Note_on_c, 0, 56, 0
1, 31320, Note_on_c, 0, 60, 56
1, 31350, Note_on_c, 0, 60, 0
1, 31350, Note_on_c, 0, 58, 56
1, 31380, Note_on_c, 0, 58, 0
1, 31380, Note_on_c, 0, 56, 56
1, 31410, Note_on_c, 0, 56, 0
1, 31410, Note_on_c, 0, 55, 56
1, 31440, Note_on_c, 0, 55, 0
1, 31440, Note_on_c, 0, 54, 56
1, 31500, Note_on_c, 0, 51, 56
1, 31560, Note_on_c, 0, 51, 0
1, 31560, Note_on_c, 0, 50, 56
1, 31560, Note_on_c, 1, 44, 56
1, 31560, Note_on_c, 1, 32, 56
1, 31576, Note_on_c, 0, 50, 0
1, 31580, Note_on_c, 0, 51, 56
1, 31596, Note_on_c, 0, 51, 0
1, 31600, Note_on_c, 0, 50, 56
1, 31616, Note_on_c, 0, 50, 0
1, 31620, Note_on_c, 0, 48, 56
1, 31668, Note_on_c, 0, 48, 0
1, 31668, Note_on_c, 0, 54, 0
1, 31680, Note_on_c, 0, 47, 56
1, 31680, Note_on_c, 0, 50, 56
1, 31680, Note_on_c, 0, 55, 56
1, 31680, Note_on_c, 1, 32, 0
1, 31680, Note_on_c, 1, 44, 0
1, 31680, Note_on_c, 1, 31, 56
1, 31710, Note_on_c, 1, 31, 0
1, 31710, Note_on_c, 1, 43, 56
1, 31740, Note_on_c, 1, 43, 0
1, 31740, Note_on_c, 1, 42, 56
1, 31770, Note_on_c, 1, 42, 0
1, 31770, Note_on_c, 1, 43, 56
1, 31800, Note_on_c, 1, 43, 0
1, 31800, Note_on_c, 1, 42, 56
1, 31830, Note_on_c, 1, 42, 0
1, 31830, Note_on_c, 1, 43, 56
1, 31860, Note_on_c, 1, 43, 0
1, 31860, Note_on_c, 1, 42, 56
1, 31890, Note_on_c, 0, 50, 0
1, 31890, Note_on_c, 0, 47, 0
1, 31890, Note_on_c, 0, 53, 56
1, 31890, Note_on_c, 1, 42, 0
1, 31890, Note_on_c, 1, 43, 56
1, 31920, Note_on_c, 0, 53, 0
1, 31920, Note_on_c, 0, 48, 56
1, 31920, Note_on_c, 0, 51, 56
1, 31920, Note_on_c, 1, 43, 0
1, 31920, Note_on_c, 1, 31, 56
1, 31950, Note_on_c, 1, 31, 0
1, 31950, Note_on_c, 1, 43, 56
1, 31980, Note_on_c, 1, 43, 0
1, 31980, Note_on_c, 1, 42, 56
1, 32004, Note_on_c, 0, 51, 0
1, 32004, Note_on_c, 0, 48, 0
1, 32004, Note_on_c, 0, 55, 0
1, 32010, Note_on_c, 1, 42, 0
1, 32010, Note_on_c, 1, 43, 56
1, 32040, Note_on_c, 0, 55, 56
1, 32040, Note_on_c, 0, 50, 56
1, 32040, Note_on_c, 0, 47, 56
1, 32040, Note_on_c, 1, 43, 0
1, 32040, Note_on_c, 1, 31, 56
1, 32070, Note_on_c, 1, 31, 0
1, 32070, Note_on_c, 1, 43, 56
1, 32100, Note_on_c, 1, 43, 0
1, 32100, Note_on_c, 1, 42, 56
1, 32130, Note_on_c, 1, 42, 0
1, 32130, Note_on_c, 1, 43, 56
1, 32160, Note_on_c, 1, 43, 0
1, 32160, Note_on_c, 1, 42, 56
1, 32190, Note_on_c, 1, 42, 0
1, 32190, Note_on_c, 1, 43, 56
1, 32220, Note_on_c, 1, 43, 0
1, 32220, Note_on_c, 1, 42, 56
1, 32250, Note_on_c, 0, 47, 0
1, 32250, Note_on_c, 0, 50, 0
1, 32250, Note_on_c, 0, 53, 56
1, 32250, Note_on_c, 1, 42, 0
1, 32250, Note_on_c, 1, 43, 56
1, 32280, Note_on_c, 0, 53, 0
1, 32280, Note_on_c, 0, 51, 56
1, 32280, Note_on_c, 0, 48, 56
1, 32280, Note_on_c, 1, 43, 0
1, 32280, Note_on_c, 1, 31, 56
1, 32310, Note_on_c, 1, 31, 0
1, 32310, Note_on_c, 1, 43, 56
1, 32340, Note_on_c, 1, 43, 0
1, 32340, Note_on_c, 1, 42, 56
1, 32364, Note_on_c, 0, 48, 0
1, 32364, Note_on_c, 0, 51, 0
1, 32364, Note_on_c, 0, 55, 0
1, 32370, Note_on_c, 1, 42, 0
1, 32370, Note_on_c, 1, 43, 56
1, 32400, Note_on_c, 0, 55, 56
1, 32400, Note_on_c, 0, 50, 56
1, 32400, Note_on_c, 0, 47, 56
1, 32400, Note_on_c, 1, 43, 0
1, 32400, Note_on_c, 1, 31, 56
1, 32484, Note_on_c, 0, 47, 0
1, 32484, Note_on_c, 0, 50, 0
1, 32484, Note_on_c, 0, 55, 0
1, 32484, Note_on_c, 1, 31, 0
1, 32520, Note_on_c, 0, 55, 48
1, 32520, Note_on_c, 0, 50, 48
1, 32520, Note_on_c, 0, 47, 48
1, 32520, Note_on_c, 1, 31, 48
1, 32520, Note_on_c, 1, 43, 48
1, 32604, Note_on_c, 0, 47, 0
1, 32604, Note_on_c, 0, 50, 0
1, 32604, Note_on_c, 0, 55, 0
1, 32604, Note_on_c, 1, 43, 0
1, 32604, Note_on_c, 1, 31, 0
1, 32640, Note_on_c, 0, 55, 40
1, 32640, Note_on_c, 0, 50, 40
1, 32640, Note_on_c, 0, 47, 40
1, 32640, Note_on_c, 1, 31, 40
1, 32640, Note_on_c, 1, 43, 40
1, 32724, Note_on_c, 0, 47, 0
1, 32724, Note_on_c, 0, 50, 0
1, 32724, Note_on_c, 0, 55, 0
1, 32724, Note_on_c, 1, 43, 0
1, 32724, Note_on_c, 1, 31, 0
1, 32760, Note_on_c, 0, 55, 32
1, 32760, Note_on_c, 0, 50, 32
1, 32760, Note_on_c, 0, 47, 32
1, 32760, Note_on_c, 1, 31, 32
1, 32760, Note_on_c, 1, 43, 32
1, 33048, Note_on_c, 0, 47, 0
1, 33048, Note_on_c, 0, 50, 0
1, 33048, Note_on_c, 0, 55, 0
1, 33048, Note_on_c, 1, 43, 0
1, 33048, Note_on_c, 1, 31, 0
1, 33058, End_track
0, 0, End_of_file