0, 0, Header, 0, 1, 240
1, 0, Start_track
1, 0, Tempo, 545455
1, 480, Note_on_c, 0, 80, 80
1, 528, Note_on_c, 0, 80, 0
1, 540, Note_on_c, 0, 78, 80
1, 570, Note_on_c, 0, 78, 0
1, 600, Note_on_c, 0, 76, 80
1, 630, Note_on_c, 0, 76, 0
1, 660, Note_on_c, 0, 75, 80
1, 690, Note_on_c, 0, 75, 0
1, 720, Note_on_c, 0, 73, 80
1, 898, Note_on_c, 0, 73, 0
1, 900, Note_on_c, 0, 71, 80
1, 958, Note_on_c, 0, 71, 0
1, 960, Note_on_c, 0, 83, 80
1, 1200, Note_on_c, 1, 63, 80
1, 1200, Note_on_c, 1, 71, 80
1, 1380, Note_on_c, 0, 83, 0
1, 1380, Note_on_c, 0, 82, 80
1, 1438, Note_on_c, 0, 82, 0
1, 1438, Note_on_c, 1, 71, 0
1, 1438, Note_on_c, 1, 63, 0
1, 1440, Note_on_c, 0, 80, 80
1, 1440, Note_on_c, 1, 64, 80
1, 1440, Note_on_c, 1, 71, 80
1, 1464, Note_on_c, 0, 80, 0
1, 1470, Note_on_c, 0, 82, 80
1, 1494, Note_on_c, 0, 82, 0
1, 1500, Note_on_c, 0, 80, 80
1, 1524, Note_on_c, 0, 80, 0
1, 1530, Note_on_c, 0, 82, 80
1, 1554, Note_on_c, 0, 82, 0
1, 1560, Note_on_c, 0, 80, 80
1, 1576, Note_on_c, 0, 80, 0
1, 1580, Note_on_c, 0, 82, 80
1, 1596, Note_on_c, 0, 82, 0
1, 1600, Note_on_c, 0, 80, 80
1, 1616, Note_on_c, 0, 80, 0
1, 1620, Note_on_c, 0, 78, 80
1, 1644, Note_on_c, 0, 78, 0
1, 1650, Note_on_c, 0, 80, 80
1, 1674, Note_on_c, 0, 80, 0
1, 1678, Note_on_c, 1, 71, 0
1, 1678, Note_on_c, 1, 64, 0
1, 1680, Note_on_c, 0, 78, 80
1, 1680, Note_on_c, 1, 63, 80
1, 1680, Note_on_c, 1, 71, 80
1, 1824, Note_on_c, 0, 78, 0
1, 1824, Note_on_c, 1, 71, 0
1, 1824, Note_on_c, 1, 63, 0
1, 1920, Note_on_c, 0, 80, 80
1, 1968, Note_on_c, 0, 80, 0
1, 1980, Note_on_c, 0, 78, 80
1, 2010, Note_on_c, 0, 78, 0
1, 2040, Note_on_c, 0, 76, 80
1, 2070, Note_on_c, 0, 76, 0
1, 2100, Note_on_c, 0, 75, 80
1, 2130, Note_on_c, 0, 75, 0
1, 2160, Note_on_c, 0, 73, 80
1, 2338, Note_on_c, 0, 73, 0
1, 2340, Note_on_c, 0, 71, 80
1, 2398, Note_on_c, 0, 71, 0
1, 2400, Note_on_c, 0, 76, 80
1, 2400, Note_on_c, 1, 68, 80
1, 2638, Note_on_c, 1, 68, 0
1, 2640, Note_on_c, 1, 66, 80
1, 2820, Note_on_c, 0, 76, 0
1, 2820, Note_on_c, 0, 75, 80
1, 2878, Note_on_c, 0, 75, 0
1, 2878, Note_on_c, 1, 66, 0
1, 2880, Note_on_c, 0, 73, 80
1, 2880, Note_on_c, 1, 64, 80
1, 2904, Note_on_c, 0, 73, 0
1, 2910, Note_on_c, 0, 75, 80
1, 2934, Note_on_c, 0, 75, 0
1, 2940, Note_on_c, 0, 73, 80
1, 2964, Note_on_c, 0, 73, 0
1, 2970, Note_on_c, 0, 75, 80
1, 2994, Note_on_c, 0, 75, 0
1, 3000, Note_on_c, 0, 73, 80
1, 3016, Note_on_c, 0, 73, 0
1, 3020, Note_on_c, 0, 75, 80
1, 3036, Note_on_c, 0, 75, 0
1, 3040, Note_on_c, 0, 73, 80
1, 3056, Note_on_c, 0, 73, 0
1, 3060, Note_on_c, 0, 71, 80
1, 3084, Note_on_c, 0, 71, 0
1, 3090, Note_on_c, 0, 73, 80
1, 3114, Note_on_c, 0, 73, 0
1, 3118, Note_on_c, 1, 64, 0
1, 3120, Note_on_c, 0, 71, 80
1, 3120, Note_on_c, 1, 63, 80
1, 3264, Note_on_c, 0, 71, 0
1, 3264, Note_on_c, 1, 63, 0
1, 3360, Note_on_c, 0, 68, 80
1, 3408, Note_on_c, 0, 68, 0
1, 3420, Note_on_c, 0, 66, 80
1, 3450, Note_on_c, 0, 66, 0
1, 3480, Note_on_c, 0, 64, 80
1, 3510, Note_on_c, 0, 64, 0
1, 3540, Note_on_c, 0, 63, 80
1, 3570, Note_on_c, 0, 63, 0
1, 3600, Note_on_c, 0, 61, 80
1, 3778, Note_on_c, 0, 61, 0
1, 3780, Note_on_c, 0, 59, 80
1, 3838, Note_on_c, 0, 59, 0
1, 3840, Note_on_c, 0, 75, 80
1, 4080, Note_on_c, 1, 59, 80
1, 4080, Note_on_c, 1, 65, 80
1, 4200, Note_on_c, 0, 75, 0
1, 4200, Note_on_c, 0, 75, 80
1, 4318, Note_on_c, 0, 75, 0
1, 4318, Note_on_c, 1, 65, 0
1, 4318, Note_on_c, 1, 59, 0
1, 4320, Note_on_c, 0, 75, 80
1, 4320, Note_on_c, 1, 58, 80
1, 4320, Note_on_c, 1, 66, 80
1, 4378, Note_on_c, 0, 75, 0
1, 4380, Note_on_c, 0, 73, 80
1, 4438, Note_on_c, 0, 73, 0
1, 4440, Note_on_c, 0, 72, 80
1, 4498, Note_on_c, 0, 72, 0
1, 4500, Note_on_c, 0, 73, 80
1, 4558, Note_on_c, 0, 73, 0
1, 4558, Note_on_c, 1, 66, 0
1, 4558, Note_on_c, 1, 58, 0
1, 4560, Note_on_c, 0, 78, 80
1, 4620, Note_on_c, 0, 78, 0
1, 4680, Note_on_c, 0, 78, 80
1, 4740, Note_on_c, 0, 78, 0
1, 4800, Note_on_c, 1, 59, 48
1, 4800, Note_on_c, 1, 65, 48
1, 4920, Note_on_c, 0, 75, 48
1, 5038, Note_on_c, 0, 75, 0
1, 5038, Note_on_c, 1, 65, 0
1, 5038, Note_on_c, 1, 59, 0
1, 5040, Note_on_c, 0, 75, 48
1, 5040, Note_on_c, 1, 58, 48
1, 5040, Note_on_c, 1, 66, 48
1, 5098, Note_on_c, 0, 75, 0
1, 5100, Note_on_c, 0, 73, 48
1, 5158, Note_on_c, 0, 73, 0
1, 5160, Note_on_c, 0, 72, 48
1, 5218, Note_on_c, 0, 72, 0
1, 5220, Note_on_c, 0, 73, 48
1, 5278, Note_on_c, 0, 73, 0
1, 5278, Note_on_c, 1, 66, 0
1, 5278, Note_on_c, 1, 58, 0
1, 5280, Note_on_c, 0, 78, 48
1, 5352, Note_on_c, 0, 78, 0
1, 5400, Note_on_c, 0, 78, 48
1, 5472, Note_on_c, 0, 78, 0
1, 5520, Note_on_c, 1, 59, 80
1, 5520, Note_on_c, 1, 65, 80
1, 5640, Note_on_c, 0, 75, 80
1, 5758, Note_on_c, 0, 75, 0
1, 5758, Note_on_c, 1, 65, 0
1, 5758, Note_on_c, 1, 59, 0
1, 5760, Note_on_c, 0, 75, 80
1, 5760, Note_on_c, 1, 58, 80
1, 5760, Note_on_c, 1, 66, 80
1, 5818, Note_on_c, 0, 75, 0
1, 5820, Note_on_c, 0, 73, 80
1, 5878, Note_on_c, 0, 73, 0
1, 5880, Note_on_c, 0, 72, 80
1, 5938, Note_on_c, 0, 72, 0
1, 5940, Note_on_c, 0, 73, 80
1, 5998, Note_on_c, 0, 73, 0
1, 6000, Note_on_c, 0, 75, 80
1, 6058, Note_on_c, 0, 75, 0
1, 6060, Note_on_c, 0, 77, 80
1, 6118, Note_on_c, 0, 77, 0
1, 6120, Note_on_c, 0, 78, 80
1, 6178, Note_on_c, 0, 78, 0
1, 6180, Note_on_c, 0, 80, 80
1, 6238, Note_on_c, 0, 80, 0
1, 6240, Note_on_c, 0, 82, 80
1, 6298, Note_on_c, 0, 82, 0
1, 6300, Note_on_c, 0, 78, 80
1, 6358, Note_on_c, 0, 78, 0
1, 6360, Note_on_c, 0, 77, 80
1, 6418, Note_on_c, 0, 77, 0
1, 6420, Note_on_c, 0, 78, 80
1, 6478, Note_on_c, 0, 78, 0
1, 6478, Note_on_c, 1, 66, 0
1, 6478, Note_on_c, 1, 58, 0
1, 6480, Note_on_c, 0, 77, 80
1, 6528, Note_on_c, 0, 77, 0
1, 6540, Note_on_c, 0, 75, 80
1, 6588, Note_on_c, 0, 75, 0
1, 6600, Note_on_c, 0, 73, 80
1, 6648, Note_on_c, 0, 73, 0
1, 6660, Note_on_c, 0, 71, 80
1, 6708, Note_on_c, 0, 71, 0
1, 6720, Note_on_c, 0, 70, 80
1, 6720, Note_on_c, 1, 59, 80
1, 6720, Note_on_c, 1, 66, 80
1, 6912, Note_on_c, 0, 70, 0
1, 6958, Note_on_c, 1, 66, 0
1, 6958, Note_on_c, 1, 59, 0
1, 6960, Note_on_c, 0, 68, 80
1, 6960, Note_on_c, 1, 61, 80
1, 6960, Note_on_c, 1, 66, 80
1, 6984, Note_on_c, 0, 68, 0
1, 6990, Note_on_c, 0, 70, 80
1, 7014, Note_on_c, 0, 70, 0
1, 7020, Note_on_c, 0, 68, 80
1, 7044, Note_on_c, 0, 68, 0
1, 7050, Note_on_c, 0, 70, 80
1, 7074, Note_on_c, 0, 70, 0
1, 7080, Note_on_c, 0, 68, 80
1, 7096, Note_on_c, 0, 68, 0
1, 7100, Note_on_c, 0, 70, 80
1, 7116, Note_on_c, 0, 70, 0
1, 7120, Note_on_c, 0, 68, 80
1, 7136, Note_on_c, 0, 68, 0
1, 7140, Note_on_c, 0, 66, 80
1, 7164, Note_on_c, 0, 66, 0
1, 7170, Note_on_c, 0, 68, 80
1, 7194, Note_on_c, 0, 68, 0
1, 7198, Note_on_c, 1, 66, 0
1, 7200, Note_on_c, 0, 66, 80
1, 7200, Note_on_c, 1, 61, 0
1, 7200, Note_on_c, 1, 54, 80
1, 7438, Note_on_c, 1, 54, 0
1, 7440, Note_on_c, 1, 42, 80
1, 7560, Note_on_c, 1, 42, 0
1, 7678, Note_on_c, 0, 66, 0
1, 7680, Note_on_c, 0, 80, 80
1, 7728, Note_on_c, 0, 80, 0
1, 7740, Note_on_c, 0, 78, 80
1, 7770, Note_on_c, 0, 78, 0
1, 7800, Note_on_c, 0, 76, 80
1, 7830, Note_on_c, 0, 76, 0
1, 7860, Note_on_c, 0, 75, 80
1, 7890, Note_on_c, 0, 75, 0
1, 7920, Note_on_c, 0, 73, 80
1, 8098, Note_on_c, 0, 73, 0
1, 8100, Note_on_c, 0, 71, 80
1, 8158, Note_on_c, 0, 71, 0
1, 8160, Note_on_c, 0, 83, 80
1, 8400, Note_on_c, 1, 71, 80
1, 8400, Note_on_c, 1, 63, 80
1, 8580, Note_on_c, 0, 83, 0
1, 8580, Note_on_c, 0, 82, 80
1, 8638, Note_on_c, 0, 82, 0
1, 8638, Note_on_c, 1, 63, 0
1, 8638, Note_on_c, 1, 71, 0
1, 8640, Note_on_c, 0, 80, 80
1, 8640, Note_on_c, 1, 71, 80
1, 8640, Note_on_c, 1, 64, 80
1, 8664, Note_on_c, 0, 80, 0
1, 8670, Note_on_c, 0, 82, 80
1, 8694, Note_on_c, 0, 82, 0
1, 8700, Note_on_c, 0, 80, 80
1, 8724, Note_on_c, 0, 80, 0
1, 8730, Note_on_c, 0, 82, 80
1, 8754, Note_on_c, 0, 82, 0
1, 8760, Note_on_c, 0, 80, 80
1, 8776, Note_on_c, 0, 80, 0
1, 8780, Note_on_c, 0, 82, 80
1, 8796, Note_on_c, 0, 82, 0
1, 8800, Note_on_c, 0, 80, 80
1, 8816, Note_on_c, 0, 80, 0
1, 8820, Note_on_c, 0, 78, 80
1, 8844, Note_on_c, 0, 78, 0
1, 8850, Note_on_c, 0, 80, 80
1, 8874, Note_on_c, 0, 80, 0
1, 8878, Note_on_c, 1, 64, 0
1, 8878, Note_on_c, 1, 71, 0
1, 8880, Note_on_c, 0, 78, 80
1, 8880, Note_on_c, 1, 71, 80
1, 8880, Note_on_c, 1, 63, 80
1, 9024, Note_on_c, 0, 78, 0
1, 9024, Note_on_c, 1, 63, 0
1, 9024, Note_on_c, 1, 71, 0
1, 9120, Note_on_c, 0, 80, 80
1, 9168, Note_on_c, 0, 80, 0
1, 9180, Note_on_c, 0, 78, 80
1, 9210, Note_on_c, 0, 78, 0
1, 9240, Note_on_c, 0, 76, 80
1, 9270, Note_on_c, 0, 76, 0
1, 9300, Note_on_c, 0, 75, 80
1, 9330, Note_on_c, 0, 75, 0
1, 9360, Note_on_c, 0, 73, 80
1, 9538, Note_on_c, 0, 73, 0
1, 9540, Note_on_c, 0, 71, 80
1, 9598, Note_on_c, 0, 71, 0
1, 9600, Note_on_c, 0, 76, 80
1, 9600, Note_on_c, 1, 68, 80
1, 9838, Note_on_c, 1, 68, 0
1, 9840, Note_on_c, 1, 66, 80
1, 10020, Note_on_c, 0, 76, 0
1, 10020, Note_on_c, 0, 75, 80
1, 10078, Note_on_c, 0, 75, 0
1, 10078, Note_on_c, 1, 66, 0
1, 10080, Note_on_c, 0, 73, 80
1, 10080, Note_on_c, 1, 64, 80
1, 10104, Note_on_c, 0, 73, 0
1, 10110, Note_on_c, 0, 75, 80
1, 10134, Note_on_c, 0, 75, 0
1, 10140, Note_on_c, 0, 73, 80
1, 10164, Note_on_c, 0, 73, 0
1, 10170, Note_on_c, 0, 75, 80
1, 10194, Note_on_c, 0, 75, 0
1, 10200, Note_on_c, 0, 73, 80
1, 10216, Note_on_c, 0, 73, 0
1, 10220, Note_on_c, 0, 75, 80
1, 10236, Note_on_c, 0, 75, 0
1, 10240, Note_on_c, 0, 73, 80
1, 10256, Note_on_c, 0, 73, 0
1, 10260, Note_on_c, 0, 71, 80
1, 10284, Note_on_c, 0, 71, 0
1, 10290, Note_on_c, 0, 73, 80
1, 10314, Note_on_c, 0, 73, 0
1, 10318, Note_on_c, 1, 64, 0
1, 10320, Note_on_c, 0, 71, 80
1, 10320, Note_on_c, 1, 63, 80
1, 10464, Note_on_c, 0, 71, 0
1, 10464, Note_on_c, 1, 63, 0
1, 10560, Note_on_c, 0, 68, 80
1, 10608, Note_on_c, 0, 68, 0
1, 10620, Note_on_c, 0, 66, 80
1, 10650, Note_on_c, 0, 66, 0
1, 10680, Note_on_c, 0, 64, 80
1, 10710, Note_on_c, 0, 64, 0
1, 10740, Note_on_c, 0, 63, 80
1, 10770, Note_on_c, 0, 63, 0
1, 10800, Note_on_c, 0, 61, 80
1, 10978, Note_on_c, 0, 61, 0
1, 10980, Note_on_c, 0, 59, 80
1, 11038, Note_on_c, 0, 59, 0
1, 11040, Note_on_c, 0, 75, 80
1, 11280, Note_on_c, 1, 65, 80
1, 11280, Note_on_c, 1, 59, 80
1, 11400, Note_on_c, 0, 75, 0
1, 11400, Note_on_c, 0, 75, 80
1, 11518, Note_on_c, 0, 75, 0
1, 11518, Note_on_c, 1, 59, 0
1, 11518, Note_on_c, 1, 65, 0
1, 11520, Note_on_c, 0, 75, 80
1, 11520, Note_on_c, 1, 66, 80
1, 11520, Note_on_c, 1, 58, 80
1, 11578, Note_on_c, 0, 75, 0
1, 11580, Note_on_c, 0, 73, 80
1, 11638, Note_on_c, 0, 73, 0
1, 11640, Note_on_c, 0, 72, 80
1, 11698, Note_on_c, 0, 72, 0
1, 11700, Note_on_c, 0, 73, 80
1, 11758, Note_on_c, 0, 73, 0
1, 11758, Note_on_c, 1, 58, 0
1, 11758, Note_on_c, 1, 66, 0
1, 11760, Note_on_c, 0, 78, 80
1, 11820, Note_on_c, 0, 78, 0
1, 11880, Note_on_c, 0, 78, 80
1, 11940, Note_on_c, 0, 78, 0
1, 12000, Note_on_c, 1, 65, 48
1, 12000, Note_on_c, 1, 59, 48
1, 12120, Note_on_c, 0, 75, 48
1, 12238, Note_on_c, 0, 75, 0
1, 12238, Note_on_c, 1, 59, 0
1, 12238, Note_on_c, 1, 65, 0
1, 12240, Note_on_c, 0, 75, 48
1, 12240, Note_on_c, 1, 66, 48
1, 12240, Note_on_c, 1, 58, 48
1, 12298, Note_on_c, 0, 75, 0
1, 12300, Note_on_c, 0, 73, 48
1, 12358, Note_on_c, 0, 73, 0
1, 12360, Note_on_c, 0, 72, 48
1, 12418, Note_on_c, 0, 72, 0
1, 12420, Note_on_c, 0, 73, 48
1, 12478, Note_on_c, 0, 73, 0
1, 12478, Note_on_c, 1, 58, 0
1, 12478, Note_on_c, 1, 66, 0
1, 12480, Note_on_c, 0, 78, 48
1, 12552, Note_on_c, 0, 78, 0
1, 12600, Note_on_c, 0, 78, 48
1, 12672, Note_on_c, 0, 78, 0
1, 12720, Note_on_c, 1, 65, 80
1, 12720, Note_on_c, 1, 59, 80
1, 12840, Note_on_c, 0, 75, 80
1, 12958, Note_on_c, 0, 75, 0
1, 12958, Note_on_c, 1, 59, 0
1, 12958, Note_on_c, 1, 65, 0
1, 12960, Note_on_c, 0, 75, 80
1, 12960, Note_on_c, 1, 66, 80
1, 12960, Note_on_c, 1, 58, 80
1, 13018, Note_on_c, 0, 75, 0
1, 13020, Note_on_c, 0, 73, 80
1, 13078, Note_on_c, 0, 73, 0
1, 13080, Note_on_c, 0, 72, 80
1, 13138, Note_on_c, 0, 72, 0
1, 13140, Note_on_c, 0, 73, 80
1, 13198, Note_on_c, 0, 73, 0
1, 13200, Note_on_c, 0, 75, 80
1, 13258, Note_on_c, 0, 75, 0
1, 13260, Note_on_c, 0, 77, 80
1, 13318, Note_on_c, 0, 77, 0
1, 13320, Note_on_c, 0, 78, 80
1, 13378, Note_on_c, 0, 78, 0
1, 13380, Note_on_c, 0, 80, 80
1, 13438, Note_on_c, 0, 80, 0
1, 13440, Note_on_c, 0, 82, 80
1, 13498, Note_on_c, 0, 82, 0
1, 13500, Note_on_c, 0, 78, 80
1, 13558, Note_on_c, 0, 78, 0
1, 13560, Note_on_c, 0, 77, 80
1, 13618, Note_on_c, 0, 77, 0
1, 13620, Note_on_c, 0, 78, 80
1, 13678, Note_on_c, 0, 78, 0
1, 13678, Note_on_c, 1, 58, 0
1, 13678, Note_on_c, 1, 66, 0
1, 13680, Note_on_c, 0, 77, 80
1, 13728, Note_on_c, 0, 77, 0
1, 13740, Note_on_c, 0, 75, 80
1, 13788, Note_on_c, 0, 75, 0
1, 13800, Note_on_c, 0, 73, 80
1, 13848, Note_on_c, 0, 73, 0
1, 13860, Note_on_c, 0, 71, 80
1, 13908, Note_on_c, 0, 71, 0
1, 13920, Note_on_c, 0, 70, 80
1, 13920, Note_on_c, 1, 66, 80
1, 13920, Note_on_c, 1, 59, 80
1, 14112, Note_on_c, 0, 70, 0
1, 14158, Note_on_c, 1, 59, 0
1, 14158, Note_on_c, 1, 66, 0
1, 14160, Note_on_c, 0, 68, 80
1, 14160, Note_on_c, 1, 66, 80
1, 14160, Note_on_c, 1, 61, 80
1, 14184, Note_on_c, 0, 68, 0
1, 14190, Note_on_c, 0, 70, 80
1, 14214, Note_on_c, 0, 70, 0
1, 14220, Note_on_c, 0, 68, 80
1, 14244, Note_on_c, 0, 68, 0
1, 14250, Note_on_c, 0, 70, 80
1, 14274, Note_on_c, 0, 70, 0
1, 14280, Note_on_c, 0, 68, 80
1, 14296, Note_on_c, 0, 68, 0
1, 14300, Note_on_c, 0, 70, 80
1, 14316, Note_on_c, 0, 70, 0
1, 14320, Note_on_c, 0, 68, 80
1, 14336, Note_on_c, 0, 68, 0
1, 14340, Note_on_c, 0, 66, 80
1, 14364, Note_on_c, 0, 66, 0
1, 14370, Note_on_c, 0, 68, 80
1, 14394, Note_on_c, 0, 68, 0
1, 14398, Note_on_c, 1, 66, 0
1, 14400, Note_on_c, 0, 66, 80
1, 14400, Note_on_c, 1, 61, 0
1, 14400, Note_on_c, 1, 54, 80
1, 14638, Note_on_c, 1, 54, 0
1, 14640, Note_on_c, 1, 42, 80
1, 14760, Note_on_c, 1, 42, 0
1, 14878, Note_on_c, 0, 66, 0
1, 14880, Note_on_c, 0, 68, 80
1, 14928, Note_on_c, 0, 68, 0
1, 14940, Note_on_c, 0, 66, 80
1, 14970, Note_on_c, 0, 66, 0
1, 15000, Note_on_c, 0, 64, 80
1, 15030, Note_on_c, 0, 64, 0
1, 15060, Note_on_c, 0, 63, 80
1, 15090, Note_on_c, 0, 63, 0
1, 15120, Note_on_c, 0, 61, 80
1, 15298, Note_on_c, 0, 61, 0
1, 15300, Note_on_c, 0, 60, 80
1, 15358, Note_on_c, 0, 60, 0
1, 15360, Note_on_c, 0, 69, 80
1, 15600, Note_on_c, 1, 54, 80
1, 15720, Note_on_c, 0, 69, 0
1, 15720, Note_on_c, 0, 60, 80
1, 15838, Note_on_c, 0, 60, 0
1, 15838, Note_on_c, 1, 54, 0
1, 15840, Note_on_c, 0, 61, 80
1, 15840, Note_on_c, 1, 52, 80
1, 15958, Note_on_c, 0, 61, 0
1, 15960, Note_on_c, 0, 64, 80
1, 16020, Note_on_c, 0, 64, 0
1, 16078, Note_on_c, 1, 52, 0
1, 16080, Note_on_c, 0, 68, 80
1, 16140, Note_on_c, 0, 68, 0
1, 16200, Note_on_c, 0, 73, 80
1, 16260, Note_on_c, 0, 73, 0
1, 16320, Note_on_c, 0, 78, 80
1, 16368, Note_on_c, 0, 78, 0
1, 16380, Note_on_c, 0, 76, 80
1, 16428, Note_on_c, 0, 76, 0
1, 16440, Note_on_c, 0, 75, 80
1, 16488, Note_on_c, 0, 75, 0
1, 16500, Note_on_c, 0, 73, 80
1, 16548, Note_on_c, 0, 73, 0
1, 16560, Note_on_c, 0, 71, 80
1, 16738, Note_on_c, 0, 71, 0
1, 16740, Note_on_c, 0, 70, 80
1, 16798, Note_on_c, 0, 70, 0
1, 16800, Note_on_c, 0, 80, 80
1, 17040, Note_on_c, 1, 64, 80
1, 17160, Note_on_c, 0, 80, 0
1, 17160, Note_on_c, 0, 70, 80
1, 17278, Note_on_c, 0, 70, 0
1, 17278, Note_on_c, 1, 64, 0
1, 17280, Note_on_c, 0, 71, 80
1, 17280, Note_on_c, 1, 63, 80
1, 17338, Note_on_c, 0, 71, 0
1, 17340, Note_on_c, 0, 73, 80
1, 17398, Note_on_c, 0, 73, 0
1, 17400, Note_on_c, 0, 75, 80
1, 17458, Note_on_c, 0, 75, 0
1, 17460, Note_on_c, 0, 76, 80
1, 17518, Note_on_c, 0, 76, 0
1, 17520, Note_on_c, 0, 78, 80
1, 17578, Note_on_c, 0, 78, 0
1, 17580, Note_on_c, 0, 80, 80
1, 17638, Note_on_c, 0, 80, 0
1, 17640, Note_on_c, 0, 82, 80
1, 17698, Note_on_c, 0, 82, 0
1, 17700, Note_on_c, 0, 83, 80
1, 17758, Note_on_c, 0, 83, 0
1, 17760, Note_on_c, 0, 82, 80
1, 17818, Note_on_c, 0, 82, 0
1, 17820, Note_on_c, 0, 83, 80
1, 17878, Note_on_c, 0, 83, 0
1, 17880, Note_on_c, 0, 82, 80
1, 17938, Note_on_c, 0, 82, 0
1, 17940, Note_on_c, 0, 83, 80
1, 17998, Note_on_c, 0, 83, 0
1, 17998, Note_on_c, 1, 63, 0
1, 18000, Note_on_c, 0, 82, 80
1, 18000, Note_on_c, 1, 64, 80
1, 18058, Note_on_c, 0, 82, 0
1, 18060, Note_on_c, 0, 80, 80
1, 18118, Note_on_c, 0, 80, 0
1, 18120, Note_on_c, 0, 79, 80
1, 18178, Note_on_c, 0, 79, 0
1, 18180, Note_on_c, 0, 80, 80
1, 18238, Note_on_c, 0, 80, 0
1, 18240, Note_on_c, 0, 78, 80
1, 18298, Note_on_c, 0, 78, 0
1, 18300, Note_on_c, 0, 76, 80
1, 18358, Note_on_c, 0, 76, 0
1, 18360, Note_on_c, 0, 75, 80
1, 18418, Note_on_c, 0, 75, 0
1, 18420, Note_on_c, 0, 76, 80
1, 18478, Note_on_c, 0, 76, 0
1, 18480, Note_on_c, 0, 75, 80
1, 18538, Note_on_c, 0, 75, 0
1, 18540, Note_on_c, 0, 73, 80
1, 18598, Note_on_c, 0, 73, 0
1, 18598, Note_on_c, 1, 64, 0
1, 18600, Note_on_c, 0, 72, 80
1, 18600, Note_on_c, 1, 65, 80
1, 18658, Note_on_c, 0, 72, 0
1, 18660, Note_on_c, 0, 73, 80
1, 18718, Note_on_c, 0, 73, 0
1, 18718, Note_on_c, 1, 65, 0
1, 18720, Note_on_c, 0, 71, 80
1, 18720, Note_on_c, 1, 66, 80
1, 18960, Note_on_c, 0, 71, 0
1, 18960, Note_on_c, 0, 70, 80
1, 18960, Note_on_c, 1, 66, 0
1, 18960, Note_on_c, 1, 54, 80
1, 19080, Note_on_c, 0, 70, 0
1, 19080, Note_on_c, 1, 54, 0
1, 19200, Note_on_c, 0, 66, 80
1, 19248, Note_on_c, 0, 66, 0
1, 19260, Note_on_c, 0, 64, 80
1, 19284, Note_on_c, 0, 64, 0
1, 19320, Note_on_c, 0, 63, 80
1, 19344, Note_on_c, 0, 63, 0
1, 19380, Note_on_c, 0, 61, 80
1, 19404, Note_on_c, 0, 61, 0
1, 19440, Note_on_c, 0, 59, 80
1, 19618, Note_on_c, 0, 59, 0
1, 19620, Note_on_c, 0, 58, 80
1, 19678, Note_on_c, 0, 58, 0
1, 19680, Note_on_c, 0, 80, 80
1, 19920, Note_on_c, 1, 64, 80
1, 19920, Note_on_c, 1, 70, 80
1, 20040, Note_on_c, 0, 80, 0
1, 20040, Note_on_c, 0, 80, 80
1, 20158, Note_on_c, 0, 80, 0
1, 20158, Note_on_c, 1, 70, 0
1, 20158, Note_on_c, 1, 64, 0
1, 20160, Note_on_c, 0, 80, 80
1, 20160, Note_on_c, 1, 63, 80
1, 20160, Note_on_c, 1, 71, 80
1, 20218, Note_on_c, 0, 80, 0
1, 20220, Note_on_c, 0, 78, 80
1, 20278, Note_on_c, 0, 78, 0
1, 20280, Note_on_c, 0, 77, 80
1, 20338, Note_on_c, 0, 77, 0
1, 20340, Note_on_c, 0, 78, 80
1, 20398, Note_on_c, 0, 78, 0
1, 20398, Note_on_c, 1, 71, 0
1, 20398, Note_on_c, 1, 63, 0
1, 20400, Note_on_c, 0, 83, 80
1, 20460, Note_on_c, 0, 83, 0
1, 20520, Note_on_c, 0, 83, 80
1, 20580, Note_on_c, 0, 83, 0
1, 20640, Note_on_c, 1, 64, 48
1, 20640, Note_on_c, 1, 70, 48
1, 20760, Note_on_c, 0, 80, 48
1, 20878, Note_on_c, 0, 80, 0
1, 20878, Note_on_c, 1, 70, 0
1, 20878, Note_on_c, 1, 64, 0
1, 20880, Note_on_c, 0, 80, 48
1, 20880, Note_on_c, 1, 63, 48
1, 20880, Note_on_c, 1, 71, 48
1, 20938, Note_on_c, 0, 80, 0
1, 20940, Note_on_c, 0, 78, 48
1, 20998, Note_on_c, 0, 78, 0
1, 21000, Note_on_c, 0, 77, 48
1, 21058, Note_on_c, 0, 77, 0
1, 21060, Note_on_c, 0, 78, 48
1, 21118, Note_on_c, 0, 78, 0
1, 21118, Note_on_c, 1, 71, 0
1, 21118, Note_on_c, 1, 63, 0
1, 21120, Note_on_c, 0, 83, 48
1, 21198, Note_on_c, 0, 83, 0
1, 21240, Note_on_c, 0, 83, 48
1, 21318, Note_on_c, 0, 83, 0
1, 21360, Note_on_c, 1, 52, 80
1, 21360, Note_on_c, 1, 58, 80
1, 21480, Note_on_c, 0, 80, 80
1, 21598, Note_on_c, 0, 80, 0
1, 21598, Note_on_c, 1, 58, 0
1, 21598, Note_on_c, 1, 52, 0
1, 21600, Note_on_c, 0, 80, 80
1, 21600, Note_on_c, 1, 51, 80
1, 21600, Note_on_c, 1, 59, 80
1, 21658, Note_on_c, 0, 80, 0
1, 21660, Note_on_c, 0, 78, 80
1, 21718, Note_on_c, 0, 78, 0
1, 21720, Note_on_c, 0, 77, 80
1, 21778, Note_on_c, 0, 77, 0
1, 21780, Note_on_c, 0, 78, 80
1, 21838, Note_on_c, 0, 78, 0
1, 21840, Note_on_c, 0, 83, 80
1, 21898, Note_on_c, 0, 83, 0
1, 21900, Note_on_c, 0, 82, 80
1, 21958, Note_on_c, 0, 82, 0
1, 21960, Note_on_c, 0, 80, 80
1, 22018, Note_on_c, 0, 80, 0
1, 22020, Note_on_c, 0, 78, 80
1, 22078, Note_on_c, 0, 78, 0
1, 22080, Note_on_c, 0, 76, 80
1, 22138, Note_on_c, 0, 76, 0
1, 22140, Note_on_c, 0, 75, 80
1, 22198, Note_on_c, 0, 75, 0
1, 22200, Note_on_c, 0, 73, 80
1, 22258, Note_on_c, 0, 73, 0
1, 22260, Note_on_c, 0, 71, 80
1, 22318, Note_on_c, 0, 71, 0
1, 22318, Note_on_c, 1, 59, 0
1, 22318, Note_on_c, 1, 51, 0
1, 22320, Note_on_c, 0, 75, 80
1, 22320, Note_on_c, 1, 52, 80
1, 22378, Note_on_c, 0, 75, 0
1, 22380, Note_on_c, 0, 73, 80
1, 22438, Note_on_c, 0, 73, 0
1, 22440, Note_on_c, 0, 76, 80
1, 22440, Note_on_c, 1, 64, 80
1, 22498, Note_on_c, 0, 76, 0
1, 22500, Note_on_c, 0, 73, 80
1, 22558, Note_on_c, 0, 73, 0
1, 22558, Note_on_c, 1, 64, 0
1, 22558, Note_on_c, 1, 52, 0
1, 22560, Note_on_c, 0, 71, 80
1, 22560, Note_on_c, 1, 54, 80
1, 22560, Note_on_c, 1, 63, 80
1, 22798, Note_on_c, 0, 71, 0
1, 22798, Note_on_c, 1, 63, 0
1, 22800, Note_on_c, 0, 70, 80
1, 22800, Note_on_c, 1, 61, 80
1, 22824, Note_on_c, 0, 70, 0
1, 22830, Note_on_c, 0, 71, 80
1, 22854, Note_on_c, 0, 71, 0
1, 22860, Note_on_c, 0, 70, 80
1, 22884, Note_on_c, 0, 70, 0
1, 22890, Note_on_c, 0, 71, 80
1, 22914, Note_on_c, 0, 71, 0
1, 22920, Note_on_c, 0, 70, 80
1, 22936, Note_on_c, 0, 70, 0
1, 22940, Note_on_c, 0, 71, 80
1, 22956, Note_on_c, 0, 71, 0
1, 22960, Note_on_c, 0, 70, 80
1, 22976, Note_on_c, 0, 70, 0
1, 22980, Note_on_c, 0, 68, 80
1, 23004, Note_on_c, 0, 68, 0
1, 23010, Note_on_c, 0, 70, 80
1, 23034, Note_on_c, 0, 70, 0
1, 23038, Note_on_c, 1, 61, 0
1, 23038, Note_on_c, 1, 54, 0
1, 23040, Note_on_c, 0, 71, 80
1, 23040, Note_on_c, 1, 59, 80
1, 23278, Note_on_c, 1, 59, 0
1, 23280, Note_on_c, 1, 47, 80
1, 23490, Note_on_c, 0, 71, 0
1, 23518, Note_on_c, 1, 47, 0
1, 23520, Note_on_c, 0, 68, 80
1, 23568, Note_on_c, 0, 68, 0
1, 23580, Note_on_c, 0, 66, 80
1, 23610, Note_on_c, 0, 66, 0
1, 23640, Note_on_c, 0, 64, 80
1, 23670, Note_on_c, 0, 64, 0
1, 23700, Note_on_c, 0, 63, 80
1, 23730, Note_on_c, 0, 63, 0
1, 23760, Note_on_c, 0, 61, 80
1, 23938, Note_on_c, 0, 61, 0
1, 23940, Note_on_c, 0, 60, 80
1, 23998, Note_on_c, 0, 60, 0
1, 24000, Note_on_c, 0, 69, 80
1, 24240, Note_on_c, 1, 54, 80
1, 24360, Note_on_c, 0, 69, 0
1, 24360, Note_on_c, 0, 60, 80
1, 24478, Note_on_c, 0, 60, 0
1, 24478, Note_on_c, 1, 54, 0
1, 24480, Note_on_c, 0, 61, 80
1, 24480, Note_on_c, 1, 52, 80
1, 24598, Note_on_c, 0, 61, 0
1, 24600, Note_on_c, 0, 64, 80
1, 24660, Note_on_c, 0, 64, 0
1, 24718, Note_on_c, 1, 52, 0
1, 24720, Note_on_c, 0, 68, 80
1, 24780, Note_on_c, 0, 68, 0
1, 24840, Note_on_c, 0, 73, 80
1, 24900, Note_on_c, 0, 73, 0
1, 24960, Note_on_c, 0, 78, 80
1, 25008, Note_on_c, 0, 78, 0
1, 25020, Note_on_c, 0, 76, 80
1, 25068, Note_on_c, 0, 76, 0
1, 25080, Note_on_c, 0, 75, 80
1, 25128, Note_on_c, 0, 75, 0
1, 25140, Note_on_c, 0, 73, 80
1, 25188, Note_on_c, 0, 73, 0
1, 25200, Note_on_c, 0, 71, 80
1, 25378, Note_on_c, 0, 71, 0
1, 25380, Note_on_c, 0, 70, 80
1, 25438, Note_on_c, 0, 70, 0
1, 25440, Note_on_c, 0, 80, 80
1, 25680, Note_on_c, 1, 64, 80
1, 25800, Note_on_c, 0, 80, 0
1, 25800, Note_on_c, 0, 70, 80
1, 25918, Note_on_c, 0, 70, 0
1, 25918, Note_on_c, 1, 64, 0
1, 25920, Note_on_c, 0, 71, 80
1, 25920, Note_on_c, 1, 63, 80
1, 25978, Note_on_c, 0, 71, 0
1, 25980, Note_on_c, 0, 73, 80
1, 26038, Note_on_c, 0, 73, 0
1, 26040, Note_on_c, 0, 75, 80
1, 26098, Note_on_c, 0, 75, 0
1, 26100, Note_on_c, 0, 76, 80
1, 26158, Note_on_c, 0, 76, 0
1, 26160, Note_on_c, 0, 78, 80
1, 26218, Note_on_c, 0, 78, 0
1, 26220, Note_on_c, 0, 80, 80
1, 26278, Note_on_c, 0, 80, 0
1, 26280, Note_on_c, 0, 82, 80
1, 26338, Note_on_c, 0, 82, 0
1, 26340, Note_on_c, 0, 83, 80
1, 26398, Note_on_c, 0, 83, 0
1, 26400, Note_on_c, 0, 82, 80
1, 26458, Note_on_c, 0, 82, 0
1, 26460, Note_on_c, 0, 83, 80
1, 26518, Note_on_c, 0, 83, 0
1, 26520, Note_on_c, 0, 82, 80
1, 26578, Note_on_c, 0, 82, 0
1, 26580, Note_on_c, 0, 83, 80
1, 26638, Note_on_c, 0, 83, 0
1, 26638, Note_on_c, 1, 63, 0
1, 26640, Note_on_c, 0, 82, 80
1, 26640, Note_on_c, 1, 64, 80
1, 26698, Note_on_c, 0, 82, 0
1, 26700, Note_on_c, 0, 80, 80
1, 26758, Note_on_c, 0, 80, 0
1, 26760, Note_on_c, 0, 79, 80
1, 26818, Note_on_c, 0, 79, 0
1, 26820, Note_on_c, 0, 80, 80
1, 26878, Note_on_c, 0, 80, 0
1, 26880, Note_on_c, 0, 78, 80
1, 26938, Note_on_c, 0, 78, 0
1, 26940, Note_on_c, 0, 76, 80
1, 26998, Note_on_c, 0, 76, 0
1, 27000, Note_on_c, 0, 75, 80
1, 27058, Note_on_c, 0, 75, 0
1, 27060, Note_on_c, 0, 76, 80
1, 27118, Note_on_c, 0, 76, 0
1, 27120, Note_on_c, 0, 75, 80
1, 27178, Note_on_c, 0, 75, 0
1, 27180, Note_on_c, 0, 73, 80
1, 27238, Note_on_c, 0, 73, 0
1, 27238, Note_on_c, 1, 64, 0
1, 27240, Note_on_c, 0, 72, 80
1, 27240, Note_on_c, 1, 65, 80
1, 27298, Note_on_c, 0, 72, 0
1, 27300, Note_on_c, 0, 73, 80
1, 27358, Note_on_c, 0, 73, 0
1, 27358, Note_on_c, 1, 65, 0
1, 27360, Note_on_c, 0, 71, 80
1, 27360, Note_on_c, 1, 66, 80
1, 27600, Note_on_c, 0, 71, 0
1, 27600, Note_on_c, 0, 70, 80
1, 27600, Note_on_c, 1, 66, 0
1, 27600, Note_on_c, 1, 54, 80
1, 27720, Note_on_c, 0, 70, 0
1, 27720, Note_on_c, 1, 54, 0
1, 27840, Note_on_c, 0, 66, 80
1, 27888, Note_on_c, 0, 66, 0
1, 27900, Note_on_c, 0, 64, 80
1, 27924, Note_on_c, 0, 64, 0
1, 27960, Note_on_c, 0, 63, 80
1, 27984, Note_on_c, 0, 63, 0
1, 28020, Note_on_c, 0, 61, 80
1, 28044, Note_on_c, 0, 61, 0
1, 28080, Note_on_c, 0, 59, 80
1, 28258, Note_on_c, 0, 59, 0
1, 28260, Note_on_c, 0, 58, 80
1, 28318, Note_on_c, 0, 58, 0
1, 28320, Note_on_c, 0, 80, 80
1, 28560, Note_on_c, 1, 70, 80
1, 28560, Note_on_c, 1, 64, 80
1, 28680, Note_on_c, 0, 80, 0
1, 28680, Note_on_c, 0, 80, 80
1, 28798, Note_on_c, 0, 80, 0
1, 28798, Note_on_c, 1, 64, 0
1, 28798, Note_on_c, 1, 70, 0
1, 28800, Note_on_c, 0, 80, 80
1, 28800, Note_on_c, 1, 71, 80
1, 28800, Note_on_c, 1, 63, 80
1, 28858, Note_on_c, 0, 80, 0
1, 28860, Note_on_c, 0, 78, 80
1, 28918, Note_on_c, 0, 78, 0
1, 28920, Note_on_c, 0, 77, 80
1, 28978, Note_on_c, 0, 77, 0
1, 28980, Note_on_c, 0, 78, 80
1, 29038, Note_on_c, 0, 78, 0
1, 29038, Note_on_c, 1, 63, 0
1, 29038, Note_on_c, 1, 71, 0
1, 29040, Note_on_c, 0, 83, 80
1, 29100, Note_on_c, 0, 83, 0
1, 29160, Note_on_c, 0, 83, 80
1, 29220, Note_on_c, 0, 83, 0
1, 29280, Note_on_c, 1, 70, 48
1, 29280, Note_on_c, 1, 64, 48
1, 29400, Note_on_c, 0, 80, 48
1, 29460, Note_on_c, 0, 80, 0
1, 29518, Note_on_c, 1, 64, 0
1, 29518, Note_on_c, 1, 70, 0
1, 29520, Note_on_c, 0, 80, 48
1, 29520, Note_on_c, 1, 71, 48
1, 29520, Note_on_c, 1, 63, 48
1, 29578, Note_on_c, 0, 80, 0
1, 29580, Note_on_c, 0, 78, 48
1, 29638, Note_on_c, 0, 78, 0
1, 29640, Note_on_c, 0, 77, 48
1, 29698, Note_on_c, 0, 77, 0
1, 29700, Note_on_c, 0, 78, 48
1, 29758, Note_on_c, 0, 78, 0
1, 29758, Note_on_c, 1, 63, 0
1, 29758, Note_on_c, 1, 71, 0
1, 29760, Note_on_c, 0, 83, 48
1, 29838, Note_on_c, 0, 83, 0
1, 29880, Note_on_c, 0, 83, 48
1, 29958, Note_on_c, 0, 83, 0
1, 30000, Note_on_c, 1, 58, 80
1, 30000, Note_on_c, 1, 52, 80
1, 30120, Note_on_c, 0, 80, 80
1, 30238, Note_on_c, 0, 80, 0
1, 30238, Note_on_c, 1, 52, 0
1, 30238, Note_on_c, 1, 58, 0
1, 30240, Note_on_c, 0, 80, 80
1, 30240, Note_on_c, 1, 59, 80
1, 30240, Note_on_c, 1, 51, 80
1, 30298, Note_on_c, 0, 80, 0
1, 30300, Note_on_c, 0, 78, 80
1, 30358, Note_on_c, 0, 78, 0
1, 30360, Note_on_c, 0, 77, 80
1, 30418, Note_on_c, 0, 77, 0
1, 30420, Note_on_c, 0, 78, 80
1, 30478, Note_on_c, 0, 78, 0
1, 30480, Note_on_c, 0, 83, 80
1, 30538, Note_on_c, 0, 83, 0
1, 30540, Note_on_c, 0, 82, 80
1, 30598, Note_on_c, 0, 82, 0
1, 30600, Note_on_c, 0, 80, 80
1, 30658, Note_on_c, 0, 80, 0
1, 30660, Note_on_c, 0, 78, 80
1, 30718, Note_on_c, 0, 78, 0
1, 30720, Note_on_c, 0, 76, 80
1, 30778, Note_on_c, 0, 76, 0
1, 30780, Note_on_c, 0, 75, 80
1, 30838, Note_on_c, 0, 75, 0
1, 30840, Note_on_c, 0, 73, 80
1, 30898, Note_on_c, 0, 73, 0
1, 30900, Note_on_c, 0, 71, 80
1, 30958, Note_on_c, 0, 71, 0
1, 30958, Note_on_c, 1, 51, 0
1, 30958, Note_on_c, 1, 59, 0
1, 30960, Note_on_c, 0, 75, 80
1, 30960, Note_on_c, 1, 52, 80
1, 31018, Note_on_c, 0, 75, 0
1, 31020, Note_on_c, 0, 73, 80
1, 31078, Note_on_c, 0, 73, 0
1, 31080, Note_on_c, 0, 76, 80
1, 31080, Note_on_c, 1, 64, 80
1, 31138, Note_on_c, 0, 76, 0
1, 31140, Note_on_c, 0, 73, 80
1, 31198, Note_on_c, 0, 73, 0
1, 31198, Note_on_c, 1, 64, 0
1, 31198, Note_on_c, 1, 52, 0
1, 31200, Note_on_c, 0, 71, 80
1, 31200, Note_on_c, 1, 63, 80
1, 31200, Note_on_c, 1, 54, 80
1, 31438, Note_on_c, 0, 71, 0
1, 31438, Note_on_c, 1, 63, 0
1, 31440, Note_on_c, 0, 70, 80
1, 31440, Note_on_c, 1, 61, 80
1, 31464, Note_on_c, 0, 70, 0
1, 31470, Note_on_c, 0, 71, 80
1, 31494, Note_on_c, 0, 71, 0
1, 31500, Note_on_c, 0, 70, 80
1, 31524, Note_on_c, 0, 70, 0
1, 31530, Note_on_c, 0, 71, 80
1, 31554, Note_on_c, 0, 71, 0
1, 31560, Note_on_c, 0, 70, 80
1, 31576, Note_on_c, 0, 70, 0
1, 31580, Note_on_c, 0, 71, 80
1, 31596, Note_on_c, 0, 71, 0
1, 31600, Note_on_c, 0, 70, 80
1, 31616, Note_on_c, 0, 70, 0
1, 31620, Note_on_c, 0, 68, 80
1, 31644, Note_on_c, 0, 68, 0
1, 31650, Note_on_c, 0, 70, 80
1, 31674, Note_on_c, 0, 70, 0
1, 31678, Note_on_c, 1, 61, 0
1, 31678, Note_on_c, 1, 54, 0
1, 31680, Note_on_c, 0, 71, 80
1, 31680, Note_on_c, 1, 59, 80
1, 31918, Note_on_c, 1, 59, 0
1, 31920, Note_on_c, 1, 47, 80
1, 32130, Note_on_c, 0, 71, 0
1, 32158, Note_on_c, 1, 47, 0
1, 32160, Note_on_c, 0, 59, 80
1, 32352, Note_on_c, 0, 59, 0
1, 32400, Note_on_c, 0, 62, 88
1, 32400, Note_on_c, 1, 35, 88
1, 32400, Note_on_c, 1, 47, 88
1, 32458, Note_on_c, 0, 62, 0
1, 32460, Note_on_c, 0, 54, 51
1, 32518, Note_on_c, 0, 54, 0
1, 32520, Note_on_c, 0, 53, 53
1, 32578, Note_on_c, 0, 53, 0
1, 32580, Note_on_c, 0, 54, 56
1, 32638, Note_on_c, 0, 54, 0
1, 32638, Note_on_c, 1, 47, 0
1, 32638, Note_on_c, 1, 35, 0
1, 32640, Note_on_c, 0, 59, 59
1, 32640, Note_on_c, 1, 50, 59
1, 32698, Note_on_c, 0, 59, 0
1, 32700, Note_on_c, 0, 54, 61
1, 32700, Note_on_c, 1, 50, 0
1, 32758, Note_on_c, 0, 54, 0
1, 32760, Note_on_c, 0, 58, 64
1, 32760, Note_on_c, 1, 49, 64
1, 32818, Note_on_c, 0, 58, 0
1, 32820, Note_on_c, 0, 54, 67
1, 32820, Note_on_c, 1, 49, 0
1, 32878, Note_on_c, 0, 54, 0
1, 32880, Note_on_c, 0, 59, 69
1, 32880, Note_on_c, 1, 50, 69
1, 32938, Note_on_c, 0, 59, 0
1, 32940, Note_on_c, 0, 54, 72
1, 32940, Note_on_c, 1, 50, 0
1, 32998, Note_on_c, 0, 54, 0
1, 33000, Note_on_c, 0, 61, 75
1, 33000, Note_on_c, 1, 46, 75
1, 33058, Note_on_c, 0, 61, 0
1, 33060, Note_on_c, 0, 54, 77
1, 33060, Note_on_c, 1, 46, 0
1, 33118, Note_on_c, 0, 54, 0
1, 33120, Note_on_c, 0, 62, 88
1, 33120, Note_on_c, 1, 35, 88
1, 33120, Note_on_c, 1, 47, 88
1, 33178, Note_on_c, 0, 62, 0
1, 33180, Note_on_c, 0, 54, 51
1, 33238, Note_on_c, 0, 54, 0
1, 33240, Note_on_c, 0, 53, 53
1, 33298, Note_on_c, 0, 53, 0
1, 33300, Note_on_c, 0, 54, 56
1, 33358, Note_on_c, 0, 54, 0
1, 33358, Note_on_c, 1, 47, 0
1, 33358, Note_on_c, 1, 35, 0
1, 33360, Note_on_c, 0, 59, 59
1, 33360, Note_on_c, 1, 50, 59
1, 33418, Note_on_c, 0, 59, 0
1, 33420, Note_on_c, 0, 54, 61
1, 33420, Note_on_c, 1, 50, 0
1, 33478, Note_on_c, 0, 54, 0
1, 33480, Note_on_c, 0, 58, 64
1, 33480, Note_on_c, 1, 49, 64
1, 33538, Note_on_c, 0, 58, 0
1, 33540, Note_on_c, 0, 54, 67
1, 33540, Note_on_c, 1, 49, 0
1, 33598, Note_on_c, 0, 54, 0
1, 33600, Note_on_c, 0, 59, 69
1, 33600, Note_on_c, 1, 50, 69
1, 33658, Note_on_c, 0, 59, 0
1, 33660, Note_on_c, 0, 54, 72
1, 33660, Note_on_c, 1, 50, 0
1, 33718, Note_on_c, 0, 54, 0
1, 33720, Note_on_c, 0, 61, 75
1, 33720, Note_on_c, 1, 46, 75
1, 33778, Note_on_c, 0, 61, 0
1, 33780, Note_on_c, 0, 54, 77
1, 33780, Note_on_c, 1, 46, 0
1, 33838, Note_on_c, 0, 54, 0
1, 33840, Note_on_c, 0, 62, 85
1, 33840, Note_on_c, 1, 47, 85
1, 33960, Note_on_c, 0, 62, 0
1, 33960, Note_on_c, 0, 58, 64
1, 33960, Note_on_c, 1, 47, 0
1, 33960, Note_on_c, 1, 49, 64
1, 34020, Note_on_c, 0, 58, 0
1, 34020, Note_on_c, 1, 49, 0
1, 34080, Note_on_c, 0, 59, 64
1, 34080, Note_on_c, 1, 50, 64
1, 34140, Note_on_c, 0, 59, 0
1, 34140, Note_on_c, 1, 50, 0
1, 34200, Note_on_c, 0, 61, 64
1, 34200, Note_on_c, 1, 46, 64
1, 34260, Note_on_c, 0, 61, 0
1, 34260, Note_on_c, 1, 46, 0
1, 34320, Note_on_c, 0, 62, 64
1, 34320, Note_on_c, 1, 47, 64
1, 34380, Note_on_c, 0, 62, 0
1, 34380, Note_on_c, 1, 47, 0
1, 34440, Note_on_c, 0, 64, 64
1, 34440, Note_on_c, 1, 49, 64
1, 34500, Note_on_c, 0, 64, 0
1, 34500, Note_on_c, 1, 49, 0
1, 34560, Note_on_c, 0, 66, 64
1, 34560, Note_on_c, 1, 50, 64
1, 34680, Note_on_c, 0, 66, 0
1, 34680, Note_on_c, 0, 64, 67
1, 34680, Note_on_c, 1, 50, 0
1, 34680, Note_on_c, 1, 49, 67
1, 34728, Note_on_c, 0, 64, 0
1, 34728, Note_on_c, 1, 49, 0
1, 34800, Note_on_c, 0, 66, 69
1, 34800, Note_on_c, 1, 50, 69
1, 34920, Note_on_c, 0, 66, 0
1, 34920, Note_on_c, 0, 62, 72
1, 34920, Note_on_c, 1, 50, 0
1, 34920, Note_on_c, 1, 47, 72
1, 34968, Note_on_c, 0, 62, 0
1, 34968, Note_on_c, 1, 47, 0
1, 35040, Note_on_c, 0, 64, 75
1, 35040, Note_on_c, 1, 49, 75
1, 35088, Note_on_c, 0, 64, 0
1, 35088, Note_on_c, 1, 49, 0
1, 35160, Note_on_c, 0, 66, 77
1, 35160, Note_on_c, 1, 50, 77
1, 35268, Note_on_c, 0, 66, 0
1, 35268, Note_on_c, 1, 50, 0
1, 35280, Note_on_c, 0, 67, 85
1, 35280, Note_on_c, 1, 52, 85
1, 35338, Note_on_c, 0, 67, 0
1, 35340, Note_on_c, 0, 59, 85
1, 35398, Note_on_c, 0, 59, 0
1, 35398, Note_on_c, 1, 52, 0
1, 35400, Note_on_c, 0, 61, 85
1, 35400, Note_on_c, 1, 55, 85
1, 35458, Note_on_c, 0, 61, 0
1, 35460, Note_on_c, 0, 59, 85
1, 35518, Note_on_c, 0, 59, 0
1, 35518, Note_on_c, 1, 55, 0
1, 35520, Note_on_c, 0, 67, 85
1, 35520, Note_on_c, 1, 52, 85
1, 35578, Note_on_c, 0, 67, 0
1, 35580, Note_on_c, 0, 55, 85
1, 35638, Note_on_c, 0, 55, 0
1, 35638, Note_on_c, 1, 52, 0
1, 35640, Note_on_c, 0, 66, 85
1, 35640, Note_on_c, 1, 50, 85
1, 35698, Note_on_c, 0, 66, 0
1, 35700, Note_on_c, 0, 55, 85
1, 35758, Note_on_c, 0, 55, 0
1, 35758, Note_on_c, 1, 50, 0
1, 35760, Note_on_c, 0, 64, 85
1, 35760, Note_on_c, 1, 49, 85
1, 35818, Note_on_c, 0, 64, 0
1, 35820, Note_on_c, 0, 55, 85
1, 35878, Note_on_c, 0, 55, 0
1, 35878, Note_on_c, 1, 49, 0
1, 35880, Note_on_c, 0, 62, 85
1, 35880, Note_on_c, 1, 47, 85
1, 35938, Note_on_c, 0, 62, 0
1, 35940, Note_on_c, 0, 55, 85
1, 35998, Note_on_c, 0, 55, 0
1, 35998, Note_on_c, 1, 47, 0
1, 36000, Note_on_c, 0, 61, 85
1, 36000, Note_on_c, 1, 45, 85
1, 36058, Note_on_c, 0, 61, 0
1, 36060, Note_on_c, 0, 55, 85
1, 36118, Note_on_c, 0, 55, 0
1, 36118, Note_on_c, 1, 45, 0
1, 36120, Note_on_c, 0, 62, 85
1, 36120, Note_on_c, 1, 47, 85
1, 36178, Note_on_c, 0, 62, 0
1, 36180, Note_on_c, 0, 55, 85
1, 36238, Note_on_c, 0, 55, 0
1, 36238, Note_on_c, 1, 47, 0
1, 36240, Note_on_c, 0, 64, 85
1, 36240, Note_on_c, 1, 49, 85
1, 36298, Note_on_c, 0, 64, 0
1, 36300, Note_on_c, 0, 55, 85
1, 36358, Note_on_c, 0, 55, 0
1, 36358, Note_on_c, 1, 49, 0
1, 36360, Note_on_c, 0, 62, 85
1, 36360, Note_on_c, 1, 47, 85
1, 36418, Note_on_c, 0, 62, 0
1, 36420, Note_on_c, 0, 55, 85
1, 36478, Note_on_c, 0, 55, 0
1, 36478, Note_on_c, 1, 47, 0
1, 36480, Note_on_c, 0, 64, 85
1, 36480, Note_on_c, 1, 49, 85
1, 36538, Note_on_c, 0, 64, 0
1, 36540, Note_on_c, 0, 55, 85
1, 36598, Note_on_c, 0, 55, 0
1, 36598, Note_on_c, 1, 49, 0
1, 36600, Note_on_c, 0, 61, 85
1, 36600, Note_on_c, 1, 45, 85
1, 36658, Note_on_c, 0, 61, 0
1, 36660, Note_on_c, 0, 55, 85
1, 36718, Note_on_c, 0, 55, 0
1, 36718, Note_on_c, 1, 45, 0
1, 36720, Note_on_c, 0, 62, 85
1, 36720, Note_on_c, 1, 42, 85
1, 36778, Note_on_c, 0, 62, 0
1, 36780, Note_on_c, 0, 57, 85
1, 36838, Note_on_c, 0, 57, 0
1, 36840, Note_on_c, 0, 59, 85
1, 36898, Note_on_c, 0, 59, 0
1, 36900, Note_on_c, 0, 57, 85
1, 36958, Note_on_c, 0, 57, 0
1, 36958, Note_on_c, 1, 42, 0
1, 36960, Note_on_c, 0, 59, 85
1, 36960, Note_on_c, 1, 43, 85
1, 37018, Note_on_c, 0, 59, 0
1, 37020, Note_on_c, 0, 52, 85
1, 37078, Note_on_c, 0, 52, 0
1, 37080, Note_on_c, 0, 54, 85
1, 37138, Note_on_c, 0, 54, 0
1, 37140, Note_on_c, 0, 52, 85
1, 37198, Note_on_c, 0, 52, 0
1, 37198, Note_on_c, 1, 43, 0
1, 37200, Note_on_c, 0, 55, 85
1, 37200, Note_on_c, 1, 45, 85
1, 37258, Note_on_c, 0, 55, 0
1, 37260, Note_on_c, 0, 49, 85
1, 37318, Note_on_c, 0, 49, 0
1, 37320, Note_on_c, 0, 50, 85
1, 37378, Note_on_c, 0, 50, 0
1, 37380, Note_on_c, 0, 49, 85
1, 37438, Note_on_c, 0, 49, 0
1, 37438, Note_on_c, 1, 45, 0
1, 37440, Note_on_c, 0, 50, 85
1, 37440, Note_on_c, 1, 38, 85
1, 37678, Note_on_c, 0, 50, 0
1, 37678, Note_on_c, 1, 38, 0
1, 37680, Note_on_c, 1, 50, 85
1, 37918, Note_on_c, 1, 50, 0
1, 37920, Note_on_c, 0, 59, 80
1, 38112, Note_on_c, 0, 59, 0
1, 38160, Note_on_c, 0, 62, 88
1, 38160, Note_on_c, 1, 47, 88
1, 38160, Note_on_c, 1, 35, 88
1, 38218, Note_on_c, 0, 62, 0
1, 38220, Note_on_c, 0, 54, 51
1, 38278, Note_on_c, 0, 54, 0
1, 38280, Note_on_c, 0, 53, 53
1, 38338, Note_on_c, 0, 53, 0
1, 38340, Note_on_c, 0, 54, 56
1, 38398, Note_on_c, 0, 54, 0
1, 38398, Note_on_c, 1, 35, 0
1, 38398, Note_on_c, 1, 47, 0
1, 38400, Note_on_c, 0, 59, 59
1, 38400, Note_on_c, 1, 50, 59
1, 38458, Note_on_c, 0, 59, 0
1, 38460, Note_on_c, 0, 54, 61
1, 38460, Note_on_c, 1, 50, 0
1, 38518, Note_on_c, 0, 54, 0
1, 38520, Note_on_c, 0, 58, 64
1, 38520, Note_on_c, 1, 49, 64
1, 38578, Note_on_c, 0, 58, 0
1, 38580, Note_on_c, 0, 54, 67
1, 38580, Note_on_c, 1, 49, 0
1, 38638, Note_on_c, 0, 54, 0
1, 38640, Note_on_c, 0, 59, 69
1, 38640, Note_on_c, 1, 50, 69
1, 38698, Note_on_c, 0, 59, 0
1, 38700, Note_on_c, 0, 54, 72
1, 38700, Note_on_c, 1, 50, 0
1, 38758, Note_on_c, 0, 54, 0
1, 38760, Note_on_c, 0, 61, 75
1, 38760, Note_on_c, 1, 46, 75
1, 38818, Note_on_c, 0, 61, 0
1, 38820, Note_on_c, 0, 54, 77
1, 38820, Note_on_c, 1, 46, 0
1, 38878, Note_on_c, 0, 54, 0
1, 38880, Note_on_c, 0, 62, 88
1, 38880, Note_on_c, 1, 47, 88
1, 38880, Note_on_c, 1, 35, 88
1, 38938, Note_on_c, 0, 62, 0
1, 38940, Note_on_c, 0, 54, 51
1, 38998, Note_on_c, 0, 54, 0
1, 39000, Note_on_c, 0, 53, 53
1, 39058, Note_on_c, 0, 53, 0
1, 39060, Note_on_c, 0, 54, 56
1, 39118, Note_on_c, 0, 54, 0
1, 39118, Note_on_c, 1, 35, 0
1, 39118, Note_on_c, 1, 47, 0
1, 39120, Note_on_c, 0, 59, 59
1, 39120, Note_on_c, 1, 50, 59
1, 39178, Note_on_c, 0, 59, 0
1, 39180, Note_on_c, 0, 54, 61
1, 39180, Note_on_c, 1, 50, 0
1, 39238, Note_on_c, 0, 54, 0
1, 39240, Note_on_c, 0, 58, 64
1, 39240, Note_on_c, 1, 49, 64
1, 39298, Note_on_c, 0, 58, 0
1, 39300, Note_on_c, 0, 54, 67
1, 39300, Note_on_c, 1, 49, 0
1, 39358, Note_on_c, 0, 54, 0
1, 39360, Note_on_c, 0, 59, 69
1, 39360, Note_on_c, 1, 50, 69
1, 39418, Note_on_c, 0, 59, 0
1, 39420, Note_on_c, 0, 54, 72
1, 39420, Note_on_c, 1, 50, 0
1, 39478, Note_on_c, 0, 54, 0
1, 39480, Note_on_c, 0, 61, 75
1, 39480, Note_on_c, 1, 46, 75
1, 39538, Note_on_c, 0, 61, 0
1, 39540, Note_on_c, 0, 54, 77
1, 39540, Note_on_c, 1, 46, 0
1, 39598, Note_on_c, 0, 54, 0
1, 39600, Note_on_c, 0, 62, 85
1, 39600, Note_on_c, 1, 47, 85
1, 39720, Note_on_c, 0, 62, 0
1, 39720, Note_on_c, 0, 58, 64
1, 39720, Note_on_c, 1, 47, 0
1, 39720, Note_on_c, 1, 49, 64
1, 39780, Note_on_c, 0, 58, 0
1, 39780, Note_on_c, 1, 49, 0
1, 39840, Note_on_c, 0, 59, 64
1, 39840, Note_on_c, 1, 50, 64
1, 39900, Note_on_c, 0, 59, 0
1, 39900, Note_on_c, 1, 50, 0
1, 39960, Note_on_c, 0, 61, 64
1, 39960, Note_on_c, 1, 46, 64
1, 40020, Note_on_c, 0, 61, 0
1, 40020, Note_on_c, 1, 46, 0
1, 40080, Note_on_c, 0, 62, 64
1, 40080, Note_on_c, 1, 47, 64
1, 40140, Note_on_c, 0, 62, 0
1, 40140, Note_on_c, 1, 47, 0
1, 40200, Note_on_c, 0, 64, 64
1, 40200, Note_on_c, 1, 49, 64
1, 40260, Note_on_c, 0, 64, 0
1, 40260, Note_on_c, 1, 49, 0
1, 40320, Note_on_c, 0, 66, 64
1, 40320, Note_on_c, 1, 50, 64
1, 40440, Note_on_c, 0, 66, 0
1, 40440, Note_on_c, 0, 64, 67
1, 40440, Note_on_c, 1, 50, 0
1, 40440, Note_on_c, 1, 49, 67
1, 40488, Note_on_c, 0, 64, 0
1, 40488, Note_on_c, 1, 49, 0
1, 40560, Note_on_c, 0, 66, 69
1, 40560, Note_on_c, 1, 50, 69
1, 40680, Note_on_c, 0, 66, 0
1, 40680, Note_on_c, 0, 62, 72
1, 40680, Note_on_c, 1, 50, 0
1, 40680, Note_on_c, 1, 47, 72
1, 40728, Note_on_c, 0, 62, 0
1, 40728, Note_on_c, 1, 47, 0
1, 40800, Note_on_c, 0, 64, 75
1, 40800, Note_on_c, 1, 49, 75
1, 40848, Note_on_c, 0, 64, 0
1, 40848, Note_on_c, 1, 49, 0
1, 40920, Note_on_c, 0, 66, 77
1, 40920, Note_on_c, 1, 50, 77
1, 41028, Note_on_c, 0, 66, 0
1, 41028, Note_on_c, 1, 50, 0
1, 41040, Note_on_c, 0, 67, 85
1, 41040, Note_on_c, 1, 52, 85
1, 41098, Note_on_c, 0, 67, 0
1, 41100, Note_on_c, 0, 59, 85
1, 41158, Note_on_c, 0, 59, 0
1, 41158, Note_on_c, 1, 52, 0
1, 41160, Note_on_c, 0, 61, 85
1, 41160, Note_on_c, 1, 55, 85
1, 41208, Note_on_c, 1, 55, 0
1, 41218, Note_on_c, 0, 61, 0
1, 41220, Note_on_c, 0, 59, 85
1, 41278, Note_on_c, 0, 59, 0
1, 41280, Note_on_c, 0, 67, 85
1, 41280, Note_on_c, 1, 52, 85
1, 41328, Note_on_c, 1, 52, 0
1, 41338, Note_on_c, 0, 67, 0
1, 41340, Note_on_c, 0, 55, 85
1, 41398, Note_on_c, 0, 55, 0
1, 41400, Note_on_c, 0, 66, 85
1, 41400, Note_on_c, 1, 50, 85
1, 41448, Note_on_c, 1, 50, 0
1, 41458, Note_on_c, 0, 66, 0
1, 41460, Note_on_c, 0, 55, 85
1, 41518, Note_on_c, 0, 55, 0
1, 41520, Note_on_c, 0, 64, 85
1, 41520, Note_on_c, 1, 49, 85
1, 41568, Note_on_c, 1, 49, 0
1, 41578, Note_on_c, 0, 64, 0
1, 41580, Note_on_c, 0, 55, 85
1, 41638, Note_on_c, 0, 55, 0
1, 41640, Note_on_c, 0, 62, 85
1, 41640, Note_on_c, 1, 47, 85
1, 41688, Note_on_c, 1, 47, 0
1, 41698, Note_on_c, 0, 62, 0
1, 41700, Note_on_c, 0, 55, 85
1, 41758, Note_on_c, 0, 55, 0
1, 41760, Note_on_c, 0, 61, 85
1, 41760, Note_on_c, 1, 45, 85
1, 41818, Note_on_c, 0, 61, 0
1, 41820, Note_on_c, 0, 55, 85
1, 41878, Note_on_c, 0, 55, 0
1, 41878, Note_on_c, 1, 45, 0
1, 41880, Note_on_c, 0, 62, 85
1, 41880, Note_on_c, 1, 47, 85
1, 41928, Note_on_c, 1, 47, 0
1, 41938, Note_on_c, 0, 62, 0
1, 41940, Note_on_c, 0, 55, 85
1, 41998, Note_on_c, 0, 55, 0
1, 42000, Note_on_c, 0, 64, 85
1, 42000, Note_on_c, 1, 49, 85
1, 42048, Note_on_c, 1, 49, 0
1, 42058, Note_on_c, 0, 64, 0
1, 42060, Note_on_c, 0, 55, 85
1, 42118, Note_on_c, 0, 55, 0
1, 42120, Note_on_c, 0, 62, 85
1, 42120, Note_on_c, 1, 47, 85
1, 42168, Note_on_c, 1, 47, 0
1, 42178, Note_on_c, 0, 62, 0
1, 42180, Note_on_c, 0, 55, 85
1, 42238, Note_on_c, 0, 55, 0
1, 42240, Note_on_c, 0, 64, 85
1, 42240, Note_on_c, 1, 49, 85
1, 42288, Note_on_c, 1, 49, 0
1, 42298, Note_on_c, 0, 64, 0
1, 42300, Note_on_c, 0, 55, 85
1, 42358, Note_on_c, 0, 55, 0
1, 42360, Note_on_c, 0, 61, 85
1, 42360, Note_on_c, 1, 45, 85
1, 42408, Note_on_c, 1, 45, 0
1, 42418, Note_on_c, 0, 61, 0
1, 42420, Note_on_c, 0, 55, 85
1, 42478, Note_on_c, 0, 55, 0
1, 42480, Note_on_c, 0, 62, 85
1, 42480, Note_on_c, 1, 42, 85
1, 42538, Note_on_c, 0, 62, 0
1, 42540, Note_on_c, 0, 57, 85
1, 42598, Note_on_c, 0, 57, 0
1, 42600, Note_on_c, 0, 59, 85
1, 42658, Note_on_c, 0, 59, 0
1, 42660, Note_on_c, 0, 57, 85
1, 42718, Note_on_c, 0, 57, 0
1, 42718, Note_on_c, 1, 42, 0
1, 42720, Note_on_c, 0, 59, 85
1, 42720, Note_on_c, 1, 43, 85
1, 42778, Note_on_c, 0, 59, 0
1, 42780, Note_on_c, 0, 52, 85
1, 42838, Note_on_c, 0, 52, 0
1, 42840, Note_on_c, 0, 54, 85
1, 42840, Note_on_c, 1, 43, 0
1, 42898, Note_on_c, 0, 54, 0
1, 42900, Note_on_c, 0, 52, 85
1, 42958, Note_on_c, 0, 52, 0
1, 42960, Note_on_c, 0, 55, 85
1, 42960, Note_on_c, 1, 45, 85
1, 43018, Note_on_c, 0, 55, 0
1, 43020, Note_on_c, 0, 49, 85
1, 43078, Note_on_c, 0, 49, 0
1, 43080, Note_on_c, 0, 50, 85
1, 43080, Note_on_c, 1, 45, 0
1, 43138, Note_on_c, 0, 50, 0
1, 43140, Note_on_c, 0, 49, 85
1, 43198, Note_on_c, 0, 49, 0
1, 43200, Note_on_c, 0, 50, 85
1, 43200, Note_on_c, 1, 38, 85
1, 43368, Note_on_c, 0, 50, 0
1, 43368, Note_on_c, 1, 38, 0
1, 43440, Note_on_c, 1, 50, 85
1, 43656, Note_on_c, 1, 50, 0
1, 43680, Note_on_c, 0, 66, 85
1, 43918, Note_on_c, 0, 66, 0
1, 43920, Note_on_c, 0, 65, 80
1, 43968, Note_on_c, 0, 65, 0
1, 43980, Note_on_c, 0, 66, 80
1, 44028, Note_on_c, 0, 66, 0
1, 44040, Note_on_c, 0, 67, 80
1, 44040, Note_on_c, 1, 54, 85
1, 44088, Note_on_c, 0, 67, 0
1, 44088, Note_on_c, 1, 54, 0
1, 44100, Note_on_c, 0, 66, 80
1, 44148, Note_on_c, 0, 66, 0
1, 44160, Note_on_c, 0, 65, 80
1, 44160, Note_on_c, 1, 58, 85
1, 44208, Note_on_c, 0, 65, 0
1, 44220, Note_on_c, 0, 66, 80
1, 44268, Note_on_c, 0, 66, 0
1, 44278, Note_on_c, 1, 58, 0
1, 44280, Note_on_c, 0, 67, 80
1, 44280, Note_on_c, 1, 61, 85
1, 44328, Note_on_c, 0, 67, 0
1, 44328, Note_on_c, 1, 61, 0
1, 44340, Note_on_c, 0, 66, 80
1, 44388, Note_on_c, 0, 66, 0
1, 44400, Note_on_c, 0, 65, 80
1, 44400, Note_on_c, 1, 64, 85
1, 44448, Note_on_c, 0, 65, 0
1, 44448, Note_on_c, 1, 64, 0
1, 44460, Note_on_c, 0, 66, 80
1, 44508, Note_on_c, 0, 66, 0
1, 44520, Note_on_c, 0, 67, 80
1, 44520, Note_on_c, 1, 61, 85
1, 44568, Note_on_c, 0, 67, 0
1, 44568, Note_on_c, 1, 61, 0
1, 44580, Note_on_c, 0, 66, 80
1, 44628, Note_on_c, 0, 66, 0
1, 44640, Note_on_c, 0, 65, 80
1, 44640, Note_on_c, 1, 62, 85
1, 44688, Note_on_c, 0, 65, 0
1, 44700, Note_on_c, 0, 66, 80
1, 44748, Note_on_c, 0, 66, 0
1, 44758, Note_on_c, 1, 62, 0
1, 44760, Note_on_c, 0, 67, 80
1, 44760, Note_on_c, 1, 54, 85
1, 44808, Note_on_c, 0, 67, 0
1, 44808, Note_on_c, 1, 54, 0
1, 44820, Note_on_c, 0, 66, 80
1, 44868, Note_on_c, 0, 66, 0
1, 44880, Note_on_c, 0, 65, 80
1, 44880, Note_on_c, 1, 59, 85
1, 44928, Note_on_c, 0, 65, 0
1, 44940, Note_on_c, 0, 66, 80
1, 44988, Note_on_c, 0, 66, 0
1, 44998, Note_on_c, 1, 59, 0
1, 45000, Note_on_c, 0, 67, 80
1, 45000, Note_on_c, 1, 50, 85
1, 45048, Note_on_c, 0, 67, 0
1, 45048, Note_on_c, 1, 50, 0
1, 45060, Note_on_c, 0, 66, 80
1, 45108, Note_on_c, 0, 66, 0
1, 45120, Note_on_c, 0, 65, 80
1, 45120, Note_on_c, 1, 54, 85
1, 45168, Note_on_c, 0, 65, 0
1, 45168, Note_on_c, 1, 54, 0
1, 45180, Note_on_c, 0, 66, 80
1, 45228, Note_on_c, 0, 66, 0
1, 45240, Note_on_c, 0, 67, 80
1, 45240, Note_on_c, 1, 47, 85
1, 45288, Note_on_c, 0, 67, 0
1, 45288, Note_on_c, 1, 47, 0
1, 45300, Note_on_c, 0, 66, 80
1, 45348, Note_on_c, 0, 66, 0
1, 45360, Note_on_c, 0, 65, 80
1, 45360, Note_on_c, 1, 46, 85
1, 45408, Note_on_c, 0, 65, 0
1, 45420, Note_on_c, 0, 66, 80
1, 45468, Note_on_c, 0, 66, 0
1, 45478, Note_on_c, 1, 46, 0
1, 45480, Note_on_c, 0, 67, 80
1, 45480, Note_on_c, 1, 37, 85
1, 45480, Note_on_c, 1, 49, 85
1, 45528, Note_on_c, 0, 67, 0
1, 45528, Note_on_c, 1, 49, 0
1, 45528, Note_on_c, 1, 37, 0
1, 45540, Note_on_c, 0, 66, 80
1, 45588, Note_on_c, 0, 66, 0
1, 45600, Note_on_c, 0, 65, 80
1, 45600, Note_on_c, 1, 40, 85
1, 45600, Note_on_c, 1, 52, 85
1, 45648, Note_on_c, 0, 65, 0
1, 45648, Note_on_c, 1, 52, 0
1, 45648, Note_on_c, 1, 40, 0
1, 45660, Note_on_c, 0, 66, 80
1, 45708, Note_on_c, 0, 66, 0
1, 45720, Note_on_c, 0, 67, 80
1, 45720, Note_on_c, 1, 37, 85
1, 45720, Note_on_c, 1, 49, 85
1, 45768, Note_on_c, 0, 67, 0
1, 45768, Note_on_c, 1, 49, 0
1, 45768, Note_on_c, 1, 37, 0
1, 45780, Note_on_c, 0, 66, 80
1, 45828, Note_on_c, 0, 66, 0
1, 45840, Note_on_c, 0, 65, 80
1, 45840, Note_on_c, 1, 38, 85
1, 45840, Note_on_c, 1, 50, 85
1, 45888, Note_on_c, 0, 65, 0
1, 45888, Note_on_c, 1, 50, 0
1, 45888, Note_on_c, 1, 38, 0
1, 45900, Note_on_c, 0, 66, 80
1, 45948, Note_on_c, 0, 66, 0
1, 45960, Note_on_c, 0, 67, 80
1, 45960, Note_on_c, 1, 35, 85
1, 45960, Note_on_c, 1, 47, 85
1, 46008, Note_on_c, 0, 67, 0
1, 46008, Note_on_c, 1, 47, 0
1, 46008, Note_on_c, 1, 35, 0
1, 46020, Note_on_c, 0, 66, 80
1, 46068, Note_on_c, 0, 66, 0
1, 46080, Note_on_c, 0, 65, 85
1, 46080, Note_on_c, 1, 30, 85
1, 46080, Note_on_c, 1, 42, 85
1, 46138, Note_on_c, 0, 65, 0
1, 46140, Note_on_c, 0, 66, 85
1, 46198, Note_on_c, 0, 66, 0
1, 46200, Note_on_c, 0, 67, 85
1, 46258, Note_on_c, 0, 67, 0
1, 46260, Note_on_c, 0, 66, 85
1, 46318, Note_on_c, 0, 66, 0
1, 46318, Note_on_c, 1, 42, 0
1, 46318, Note_on_c, 1, 30, 0
1, 46320, Note_on_c, 0, 64, 85
1, 46378, Note_on_c, 0, 64, 0
1, 46380, Note_on_c, 0, 67, 85
1, 46438, Note_on_c, 0, 67, 0
1, 46440, Note_on_c, 0, 66, 85
1, 46498, Note_on_c, 0, 66, 0
1, 46500, Note_on_c, 0, 64, 85
1, 46558, Note_on_c, 0, 64, 0
1, 46560, Note_on_c, 0, 62, 85
1, 46618, Note_on_c, 0, 62, 0
1, 46620, Note_on_c, 0, 61, 85
1, 46678, Note_on_c, 0, 61, 0
1, 46680, Note_on_c, 0, 59, 85
1, 46738, Note_on_c, 0, 59, 0
1, 46740, Note_on_c, 0, 58, 85
1, 46798, Note_on_c, 0, 58, 0
1, 46800, Note_on_c, 0, 59, 96
1, 46800, Note_on_c, 1, 35, 96
1, 46800, Note_on_c, 1, 47, 96
1, 46858, Note_on_c, 0, 59, 0
1, 46860, Note_on_c, 0, 54, 51
1, 46918, Note_on_c, 0, 54, 0
1, 46920, Note_on_c, 0, 53, 53
1, 46968, Note_on_c, 1, 47, 0
1, 46968, Note_on_c, 1, 35, 0
1, 46978, Note_on_c, 0, 53, 0
1, 46980, Note_on_c, 0, 54, 56
1, 47038, Note_on_c, 0, 54, 0
1, 47040, Note_on_c, 0, 59, 59
1, 47040, Note_on_c, 1, 50, 59
1, 47088, Note_on_c, 1, 50, 0
1, 47098, Note_on_c, 0, 59, 0
1, 47100, Note_on_c, 0, 54, 61
1, 47158, Note_on_c, 0, 54, 0
1, 47160, Note_on_c, 0, 58, 64
1, 47160, Note_on_c, 1, 49, 64
1, 47208, Note_on_c, 1, 49, 0
1, 47218, Note_on_c, 0, 58, 0
1, 47220, Note_on_c, 0, 54, 67
1, 47278, Note_on_c, 0, 54, 0
1, 47280, Note_on_c, 0, 59, 69
1, 47280, Note_on_c, 1, 50, 69
1, 47328, Note_on_c, 1, 50, 0
1, 47338, Note_on_c, 0, 59, 0
1, 47340, Note_on_c, 0, 54, 72
1, 47398, Note_on_c, 0, 54, 0
1, 47400, Note_on_c, 0, 61, 75
1, 47400, Note_on_c, 1, 46, 75
1, 47448, Note_on_c, 1, 46, 0
1, 47458, Note_on_c, 0, 61, 0
1, 47460, Note_on_c, 0, 54, 77
1, 47518, Note_on_c, 0, 54, 0
1, 47520, Note_on_c, 0, 62, 96
1, 47520, Note_on_c, 1, 35, 96
1, 47520, Note_on_c, 1, 47, 96
1, 47578, Note_on_c, 0, 62, 0
1, 47580, Note_on_c, 0, 54, 51
1, 47638, Note_on_c, 0, 54, 0
1, 47640, Note_on_c, 0, 53, 53
1, 47688, Note_on_c, 1, 47, 0
1, 47688, Note_on_c, 1, 35, 0
1, 47698, Note_on_c, 0, 53, 0
1, 47700, Note_on_c, 0, 54, 56
1, 47758, Note_on_c, 0, 54, 0
1, 47760, Note_on_c, 0, 59, 59
1, 47760, Note_on_c, 1, 50, 59
1, 47808, Note_on_c, 1, 50, 0
1, 47818, Note_on_c, 0, 59, 0
1, 47820, Note_on_c, 0, 54, 61
1, 47878, Note_on_c, 0, 54, 0
1, 47880, Note_on_c, 0, 58, 64
1, 47880, Note_on_c, 1, 49, 64
1, 47928, Note_on_c, 1, 49, 0
1, 47938, Note_on_c, 0, 58, 0
1, 47940, Note_on_c, 0, 54, 67
1, 47998, Note_on_c, 0, 54, 0
1, 48000, Note_on_c, 0, 59, 69
1, 48000, Note_on_c, 1, 50, 69
1, 48048, Note_on_c, 1, 50, 0
1, 48058, Note_on_c, 0, 59, 0
1, 48060, Note_on_c, 0, 54, 72
1, 48118, Note_on_c, 0, 54, 0
1, 48120, Note_on_c, 0, 61, 75
1, 48120, Note_on_c, 1, 46, 75
1, 48168, Note_on_c, 1, 46, 0
1, 48178, Note_on_c, 0, 61, 0
1, 48180, Note_on_c, 0, 54, 77
1, 48238, Note_on_c, 0, 54, 0
1, 48240, Note_on_c, 0, 62, 85
1, 48240, Note_on_c, 1, 47, 85
1, 48298, Note_on_c, 0, 62, 0
1, 48300, Note_on_c, 0, 55, 85
1, 48358, Note_on_c, 0, 55, 0
1, 48360, Note_on_c, 0, 57, 85
1, 48418, Note_on_c, 0, 57, 0
1, 48420, Note_on_c, 0, 55, 85
1, 48478, Note_on_c, 0, 55, 0
1, 48478, Note_on_c, 1, 47, 0
1, 48480, Note_on_c, 0, 64, 85
1, 48480, Note_on_c, 1, 49, 85
1, 48538, Note_on_c, 0, 64, 0
1, 48540, Note_on_c, 0, 58, 85
1, 48598, Note_on_c, 0, 58, 0
1, 48600, Note_on_c, 0, 59, 85
1, 48600, Note_on_c, 1, 49, 0
1, 48658, Note_on_c, 0, 59, 0
1, 48660, Note_on_c, 0, 58, 85
1, 48718, Note_on_c, 0, 58, 0
1, 48720, Note_on_c, 0, 66, 85
1, 48720, Note_on_c, 1, 50, 85
1, 48778, Note_on_c, 0, 66, 0
1, 48780, Note_on_c, 0, 59, 85
1, 48838, Note_on_c, 0, 59, 0
1, 48840, Note_on_c, 0, 61, 85
1, 48840, Note_on_c, 1, 50, 0
1, 48898, Note_on_c, 0, 61, 0
1, 48900, Note_on_c, 0, 59, 85
1, 48958, Note_on_c, 0, 59, 0
1, 48960, Note_on_c, 0, 67, 85
1, 48960, Note_on_c, 1, 52, 85
1, 49018, Note_on_c, 0, 67, 0
1, 49020, Note_on_c, 0, 61, 85
1, 49078, Note_on_c, 0, 61, 0
1, 49080, Note_on_c, 0, 62, 85
1, 49138, Note_on_c, 0, 62, 0
1, 49140, Note_on_c, 0, 61, 85
1, 49198, Note_on_c, 0, 61, 0
1, 49198, Note_on_c, 1, 52, 0
1, 49200, Note_on_c, 0, 66, 85
1, 49200, Note_on_c, 1, 50, 85
1, 49258, Note_on_c, 0, 66, 0
1, 49260, Note_on_c, 0, 59, 85
1, 49318, Note_on_c, 0, 59, 0
1, 49320, Note_on_c, 0, 61, 85
1, 49320, Note_on_c, 1, 50, 0
1, 49378, Note_on_c, 0, 61, 0
1, 49380, Note_on_c, 0, 59, 85
1, 49438, Note_on_c, 0, 59, 0
1, 49440, Note_on_c, 0, 64, 85
1, 49440, Note_on_c, 1, 49, 85
1, 49498, Note_on_c, 0, 64, 0
1, 49500, Note_on_c, 0, 58, 85
1, 49558, Note_on_c, 0, 58, 0
1, 49560, Note_on_c, 0, 59, 85
1, 49560, Note_on_c, 1, 49, 0
1, 49618, Note_on_c, 0, 59, 0
1, 49620, Note_on_c, 0, 58, 85
1, 49678, Note_on_c, 0, 58, 0
1, 49680, Note_on_c, 0, 62, 85
1, 49680, Note_on_c, 1, 47, 85
1, 49738, Note_on_c, 0, 62, 0
1, 49740, Note_on_c, 0, 59, 85
1, 49798, Note_on_c, 0, 59, 0
1, 49800, Note_on_c, 0, 58, 85
1, 49858, Note_on_c, 0, 58, 0
1, 49860, Note_on_c, 0, 59, 85
1, 49918, Note_on_c, 0, 59, 0
1, 49918, Note_on_c, 1, 47, 0
1, 49920, Note_on_c, 1, 40, 85
1, 50040, Note_on_c, 0, 61, 85
1, 50040, Note_on_c, 1, 40, 0
1, 50124, Note_on_c, 0, 61, 0
1, 50160, Note_on_c, 1, 42, 85
1, 50280, Note_on_c, 0, 58, 85
1, 50280, Note_on_c, 1, 42, 0
1, 50364, Note_on_c, 0, 58, 0
1, 50400, Note_on_c, 1, 35, 85
1, 50638, Note_on_c, 1, 35, 0
1, 50640, Note_on_c, 0, 59, 85
1, 50878, Note_on_c, 0, 59, 0
1, 50880, Note_on_c, 0, 66, 80
1, 51072, Note_on_c, 0, 66, 0
1, 51120, Note_on_c, 0, 65, 80
1, 51168, Note_on_c, 0, 65, 0
1, 51180, Note_on_c, 0, 66, 80
1, 51228, Note_on_c, 0, 66, 0
1, 51240, Note_on_c, 0, 67, 80
1, 51240, Note_on_c, 1, 54, 85
1, 51288, Note_on_c, 0, 67, 0
1, 51288, Note_on_c, 1, 54, 0
1, 51300, Note_on_c, 0, 66, 80
1, 51348, Note_on_c, 0, 66, 0
1, 51360, Note_on_c, 0, 65, 80
1, 51360, Note_on_c, 1, 58, 85
1, 51408, Note_on_c, 0, 65, 0
1, 51420, Note_on_c, 0, 66, 80
1, 51468, Note_on_c, 0, 66, 0
1, 51478, Note_on_c, 1, 58, 0
1, 51480, Note_on_c, 0, 67, 80
1, 51480, Note_on_c, 1, 61, 85
1, 51528, Note_on_c, 0, 67, 0
1, 51528, Note_on_c, 1, 61, 0
1, 51540, Note_on_c, 0, 66, 80
1, 51588, Note_on_c, 0, 66, 0
1, 51600, Note_on_c, 0, 65, 80
1, 51600, Note_on_c, 1, 64, 85
1, 51648, Note_on_c, 0, 65, 0
1, 51648, Note_on_c, 1, 64, 0
1, 51660, Note_on_c, 0, 66, 80
1, 51708, Note_on_c, 0, 66, 0
1, 51720, Note_on_c, 0, 67, 80
1, 51720, Note_on_c, 1, 61, 85
1, 51768, Note_on_c, 0, 67, 0
1, 51768, Note_on_c, 1, 61, 0
1, 51780, Note_on_c, 0, 66, 80
1, 51828, Note_on_c, 0, 66, 0
1, 51840, Note_on_c, 0, 65, 80
1, 51840, Note_on_c, 1, 62, 85
1, 51888, Note_on_c, 0, 65, 0
1, 51900, Note_on_c, 0, 66, 80
1, 51948, Note_on_c, 0, 66, 0
1, 51958, Note_on_c, 1, 62, 0
1, 51960, Note_on_c, 0, 67, 80
1, 51960, Note_on_c, 1, 54, 85
1, 52008, Note_on_c, 0, 67, 0
1, 52008, Note_on_c, 1, 54, 0
1, 52020, Note_on_c, 0, 66, 80
1, 52068, Note_on_c, 0, 66, 0
1, 52080, Note_on_c, 0, 65, 80
1, 52080, Note_on_c, 1, 59, 85
1, 52128, Note_on_c, 0, 65, 0
1, 52140, Note_on_c, 0, 66, 80
1, 52188, Note_on_c, 0, 66, 0
1, 52198, Note_on_c, 1, 59, 0
1, 52200, Note_on_c, 0, 67, 80
1, 52200, Note_on_c, 1, 50, 85
1, 52248, Note_on_c, 0, 67, 0
1, 52248, Note_on_c, 1, 50, 0
1, 52260, Note_on_c, 0, 66, 80
1, 52308, Note_on_c, 0, 66, 0
1, 52320, Note_on_c, 0, 65, 80
1, 52320, Note_on_c, 1, 54, 85
1, 52368, Note_on_c, 0, 65, 0
1, 52368, Note_on_c, 1, 54, 0
1, 52380, Note_on_c, 0, 66, 80
1, 52428, Note_on_c, 0, 66, 0
1, 52440, Note_on_c, 0, 67, 80
1, 52440, Note_on_c, 1, 47, 85
1, 52488, Note_on_c, 0, 67, 0
1, 52488, Note_on_c, 1, 47, 0
1, 52500, Note_on_c, 0, 66, 80
1, 52548, Note_on_c, 0, 66, 0
1, 52560, Note_on_c, 0, 65, 80
1, 52560, Note_on_c, 1, 46, 85
1, 52608, Note_on_c, 0, 65, 0
1, 52620, Note_on_c, 0, 66, 80
1, 52668, Note_on_c, 0, 66, 0
1, 52678, Note_on_c, 1, 46, 0
1, 52680, Note_on_c, 0, 67, 80
1, 52680, Note_on_c, 1, 49, 85
1, 52680, Note_on_c, 1, 37, 85
1, 52728, Note_on_c, 0, 67, 0
1, 52728, Note_on_c, 1, 37, 0
1, 52728, Note_on_c, 1, 49, 0
1, 52740, Note_on_c, 0, 66, 80
1, 52788, Note_on_c, 0, 66, 0
1, 52800, Note_on_c, 0, 65, 80
1, 52800, Note_on_c, 1, 52, 85
1, 52800, Note_on_c, 1, 40, 85
1, 52848, Note_on_c, 0, 65, 0
1, 52848, Note_on_c, 1, 40, 0
1, 52848, Note_on_c, 1, 52, 0
1, 52860, Note_on_c, 0, 66, 80
1, 52908, Note_on_c, 0, 66, 0
1, 52920, Note_on_c, 0, 67, 80
1, 52920, Note_on_c, 1, 49, 85
1, 52920, Note_on_c, 1, 37, 85
1, 52968, Note_on_c, 0, 67, 0
1, 52968, Note_on_c, 1, 37, 0
1, 52968, Note_on_c, 1, 49, 0
1, 52980, Note_on_c, 0, 66, 80
1, 53028, Note_on_c, 0, 66, 0
1, 53040, Note_on_c, 0, 65, 80
1, 53040, Note_on_c, 1, 50, 85
1, 53040, Note_on_c, 1, 38, 85
1, 53088, Note_on_c, 0, 65, 0
1, 53088, Note_on_c, 1, 38, 0
1, 53088, Note_on_c, 1, 50, 0
1, 53100, Note_on_c, 0, 66, 80
1, 53148, Note_on_c, 0, 66, 0
1, 53160, Note_on_c, 0, 67, 80
1, 53160, Note_on_c, 1, 47, 85
1, 53160, Note_on_c, 1, 35, 85
1, 53208, Note_on_c, 0, 67, 0
1, 53208, Note_on_c, 1, 35, 0
1, 53208, Note_on_c, 1, 47, 0
1, 53220, Note_on_c, 0, 66, 80
1, 53268, Note_on_c, 0, 66, 0
1, 53280, Note_on_c, 0, 65, 85
1, 53280, Note_on_c, 1, 42, 85
1, 53280, Note_on_c, 1, 30, 85
1, 53338, Note_on_c, 0, 65, 0
1, 53340, Note_on_c, 0, 66, 85
1, 53398, Note_on_c, 0, 66, 0
1, 53400, Note_on_c, 0, 67, 85
1, 53458, Note_on_c, 0, 67, 0
1, 53460, Note_on_c, 0, 66, 85
1, 53518, Note_on_c, 0, 66, 0
1, 53518, Note_on_c, 1, 30, 0
1, 53518, Note_on_c, 1, 42, 0
1, 53520, Note_on_c, 0, 64, 85
1, 53578, Note_on_c, 0, 64, 0
1, 53580, Note_on_c, 0, 67, 85
1, 53638, Note_on_c, 0, 67, 0
1, 53640, Note_on_c, 0, 66, 85
1, 53698, Note_on_c, 0, 66, 0
1, 53700, Note_on_c, 0, 64, 85
1, 53758, Note_on_c, 0, 64, 0
1, 53760, Note_on_c, 0, 62, 85
1, 53818, Note_on_c, 0, 62, 0
1, 53820, Note_on_c, 0, 61, 85
1, 53878, Note_on_c, 0, 61, 0
1, 53880, Note_on_c, 0, 59, 85
1, 53938, Note_on_c, 0, 59, 0
1, 53940, Note_on_c, 0, 58, 85
1, 53998, Note_on_c, 0, 58, 0
1, 54000, Note_on_c, 0, 59, 96
1, 54000, Note_on_c, 1, 47, 96
1, 54000, Note_on_c, 1, 35, 96
1, 54058, Note_on_c, 0, 59, 0
1, 54060, Note_on_c, 0, 54, 51
1, 54118, Note_on_c, 0, 54, 0
1, 54120, Note_on_c, 0, 53, 53
1, 54168, Note_on_c, 1, 35, 0
1, 54168, Note_on_c, 1, 47, 0
1, 54178, Note_on_c, 0, 53, 0
1, 54180, Note_on_c, 0, 54, 56
1, 54238, Note_on_c, 0, 54, 0
1, 54240, Note_on_c, 0, 59, 59
1, 54240, Note_on_c, 1, 50, 59
1, 54288, Note_on_c, 1, 50, 0
1, 54298, Note_on_c, 0, 59, 0
1, 54300, Note_on_c, 0, 54, 61
1, 54358, Note_on_c, 0, 54, 0
1, 54360, Note_on_c, 0, 58, 64
1, 54360, Note_on_c, 1, 49, 64
1, 54408, Note_on_c, 1, 49, 0
1, 54418, Note_on_c, 0, 58, 0
1, 54420, Note_on_c, 0, 54, 67
1, 54478, Note_on_c, 0, 54, 0
1, 54480, Note_on_c, 0, 59, 69
1, 54480, Note_on_c, 1, 50, 69
1, 54528, Note_on_c, 1, 50, 0
1, 54538, Note_on_c, 0, 59, 0
1, 54540, Note_on_c, 0, 54, 72
1, 54598, Note_on_c, 0, 54, 0
1, 54600, Note_on_c, 0, 61, 75
1, 54600, Note_on_c, 1, 46, 75
1, 54648, Note_on_c, 1, 46, 0
1, 54658, Note_on_c, 0, 61, 0
1, 54660, Note_on_c, 0, 54, 77
1, 54718, Note_on_c, 0, 54, 0
1, 54720, Note_on_c, 0, 62, 96
1, 54720, Note_on_c, 1, 47, 96
1, 54720, Note_on_c, 1, 35, 96
1, 54778, Note_on_c, 0, 62, 0
1, 54780, Note_on_c, 0, 54, 51
1, 54838, Note_on_c, 0, 54, 0
1, 54840, Note_on_c, 0, 53, 53
1, 54888, Note_on_c, 1, 35, 0
1, 54888, Note_on_c, 1, 47, 0
1, 54898, Note_on_c, 0, 53, 0
1, 54900, Note_on_c, 0, 54, 56
1, 54958, Note_on_c, 0, 54, 0
1, 54960, Note_on_c, 0, 59, 59
1, 54960, Note_on_c, 1, 50, 59
1, 55008, Note_on_c, 1, 50, 0
1, 55018, Note_on_c, 0, 59, 0
1, 55020, Note_on_c, 0, 54, 61
1, 55078, Note_on_c, 0, 54, 0
1, 55080, Note_on_c, 0, 58, 64
1, 55080, Note_on_c, 1, 49, 64
1, 55128, Note_on_c, 1, 49, 0
1, 55138, Note_on_c, 0, 58, 0
1, 55140, Note_on_c, 0, 54, 67
1, 55198, Note_on_c, 0, 54, 0
1, 55200, Note_on_c, 0, 59, 69
1, 55200, Note_on_c, 1, 50, 69
1, 55248, Note_on_c, 1, 50, 0
1, 55258, Note_on_c, 0, 59, 0
1, 55260, Note_on_c, 0, 54, 72
1, 55318, Note_on_c, 0, 54, 0
1, 55320, Note_on_c, 0, 61, 75
1, 55320, Note_on_c, 1, 46, 75
1, 55368, Note_on_c, 1, 46, 0
1, 55378, Note_on_c, 0, 61, 0
1, 55380, Note_on_c, 0, 54, 77
1, 55438, Note_on_c, 0, 54, 0
1, 55440, Note_on_c, 0, 62, 85
1, 55440, Note_on_c, 1, 47, 85
1, 55498, Note_on_c, 0, 62, 0
1, 55500, Note_on_c, 0, 55, 85
1, 55558, Note_on_c, 0, 55, 0
1, 55560, Note_on_c, 0, 57, 85
1, 55618, Note_on_c, 0, 57, 0
1, 55620, Note_on_c, 0, 55, 85
1, 55678, Note_on_c, 0, 55, 0
1, 55678, Note_on_c, 1, 47, 0
1, 55680, Note_on_c, 0, 64, 85
1, 55680, Note_on_c, 1, 49, 85
1, 55738, Note_on_c, 0, 64, 0
1, 55740, Note_on_c, 0, 58, 85
1, 55798, Note_on_c, 0, 58, 0
1, 55800, Note_on_c, 0, 59, 85
1, 55800, Note_on_c, 1, 49, 0
1, 55858, Note_on_c, 0, 59, 0
1, 55860, Note_on_c, 0, 58, 85
1, 55918, Note_on_c, 0, 58, 0
1, 55920, Note_on_c, 0, 66, 85
1, 55920, Note_on_c, 1, 50, 85
1, 55978, Note_on_c, 0, 66, 0
1, 55980, Note_on_c, 0, 59, 85
1, 56038, Note_on_c, 0, 59, 0
1, 56040, Note_on_c, 0, 61, 85
1, 56040, Note_on_c, 1, 50, 0
1, 56098, Note_on_c, 0, 61, 0
1, 56100, Note_on_c, 0, 59, 85
1, 56158, Note_on_c, 0, 59, 0
1, 56160, Note_on_c, 0, 67, 85
1, 56160, Note_on_c, 1, 52, 85
1, 56218, Note_on_c, 0, 67, 0
1, 56220, Note_on_c, 0, 61, 85
1, 56278, Note_on_c, 0, 61, 0
1, 56280, Note_on_c, 0, 62, 85
1, 56338, Note_on_c, 0, 62, 0
1, 56340, Note_on_c, 0, 61, 85
1, 56398, Note_on_c, 0, 61, 0
1, 56398, Note_on_c, 1, 52, 0
1, 56400, Note_on_c, 0, 66, 85
1, 56400, Note_on_c, 1, 50, 85
1, 56458, Note_on_c, 0, 66, 0
1, 56460, Note_on_c, 0, 59, 85
1, 56518, Note_on_c, 0, 59, 0
1, 56520, Note_on_c, 0, 61, 85
1, 56520, Note_on_c, 1, 50, 0
1, 56578, Note_on_c, 0, 61, 0
1, 56580, Note_on_c, 0, 59, 85
1, 56638, Note_on_c, 0, 59, 0
1, 56640, Note_on_c, 0, 64, 85
1, 56640, Note_on_c, 1, 49, 85
1, 56698, Note_on_c, 0, 64, 0
1, 56700, Note_on_c, 0, 58, 85
1, 56758, Note_on_c, 0, 58, 0
1, 56760, Note_on_c, 0, 59, 85
1, 56760, Note_on_c, 1, 49, 0
1, 56818, Note_on_c, 0, 59, 0
1, 56820, Note_on_c, 0, 58, 85
1, 56878, Note_on_c, 0, 58, 0
1, 56880, Note_on_c, 0, 62, 85
1, 56880, Note_on_c, 1, 47, 85
1, 56938, Note_on_c, 0, 62, 0
1, 56940, Note_on_c, 0, 59, 85
1, 56998, Note_on_c, 0, 59, 0
1, 57000, Note_on_c, 0, 58, 85
1, 57058, Note_on_c, 0, 58, 0
1, 57060, Note_on_c, 0, 59, 85
1, 57118, Note_on_c, 0, 59, 0
1, 57118, Note_on_c, 1, 47, 0
1, 57120, Note_on_c, 1, 40, 85
1, 57240, Note_on_c, 0, 61, 85
1, 57240, Note_on_c, 1, 40, 0
1, 57324, Note_on_c, 0, 61, 0
1, 57360, Note_on_c, 1, 42, 85
1, 57480, Note_on_c, 0, 58, 85
1, 57480, Note_on_c, 1, 42, 0
1, 57564, Note_on_c, 0, 58, 0
1, 57600, Note_on_c, 1, 35, 85
1, 57838, Note_on_c, 1, 35, 0
1, 57840, Note_on_c, 0, 59, 85
1, 58078, Note_on_c, 0, 59, 0
1, 58080, Note_on_c, 0, 80, 80
1, 58128, Note_on_c, 0, 80, 0
1, 58140, Note_on_c, 0, 78, 80
1, 58170, Note_on_c, 0, 78, 0
1, 58200, Note_on_c, 0, 76, 80
1, 58230, Note_on_c, 0, 76, 0
1, 58260, Note_on_c, 0, 75, 80
1, 58290, Note_on_c, 0, 75, 0
1, 58320, Note_on_c, 0, 73, 80
1, 58498, Note_on_c, 0, 73, 0
1, 58500, Note_on_c, 0, 71, 80
1, 58558, Note_on_c, 0, 71, 0
1, 58560, Note_on_c, 0, 83, 80
1, 58800, Note_on_c, 1, 63, 80
1, 58800, Note_on_c, 1, 71, 80
1, 58980, Note_on_c, 0, 83, 0
1, 58980, Note_on_c, 0, 82, 80
1, 59038, Note_on_c, 0, 82, 0
1, 59038, Note_on_c, 1, 71, 0
1, 59038, Note_on_c, 1, 63, 0
1, 59040, Note_on_c, 0, 80, 80
1, 59040, Note_on_c, 1, 64, 80
1, 59040, Note_on_c, 1, 71, 80
1, 59064, Note_on_c, 0, 80, 0
1, 59070, Note_on_c, 0, 82, 80
1, 59094, Note_on_c, 0, 82, 0
1, 59100, Note_on_c, 0, 80, 80
1, 59124, Note_on_c, 0, 80, 0
1, 59130, Note_on_c, 0, 82, 80
1, 59154, Note_on_c, 0, 82, 0
1, 59160, Note_on_c, 0, 80, 80
1, 59176, Note_on_c, 0, 80, 0
1, 59180, Note_on_c, 0, 82, 80
1, 59196, Note_on_c, 0, 82, 0
1, 59200, Note_on_c, 0, 80, 80
1, 59216, Note_on_c, 0, 80, 0
1, 59220, Note_on_c, 0, 78, 80
1, 59244, Note_on_c, 0, 78, 0
1, 59250, Note_on_c, 0, 80, 80
1, 59274, Note_on_c, 0, 80, 0
1, 59278, Note_on_c, 1, 71, 0
1, 59278, Note_on_c, 1, 64, 0
1, 59280, Note_on_c, 0, 78, 80
1, 59280, Note_on_c, 1, 63, 80
1, 59280, Note_on_c, 1, 71, 80
1, 59424, Note_on_c, 0, 78, 0
1, 59424, Note_on_c, 1, 71, 0
1, 59424, Note_on_c, 1, 63, 0
1, 59520, Note_on_c, 0, 80, 80
1, 59568, Note_on_c, 0, 80, 0
1, 59580, Note_on_c, 0, 78, 80
1, 59610, Note_on_c, 0, 78, 0
1, 59640, Note_on_c, 0, 76, 80
1, 59670, Note_on_c, 0, 76, 0
1, 59700, Note_on_c, 0, 75, 80
1, 59730, Note_on_c, 0, 75, 0
1, 59760, Note_on_c, 0, 73, 80
1, 59938, Note_on_c, 0, 73, 0
1, 59940, Note_on_c, 0, 71, 80
1, 59998, Note_on_c, 0, 71, 0
1, 60000, Note_on_c, 0, 76, 80
1, 60000, Note_on_c, 1, 68, 80
1, 60238, Note_on_c, 1, 68, 0
1, 60240, Note_on_c, 1, 66, 80
1, 60420, Note_on_c, 0, 76, 0
1, 60420, Note_on_c, 0, 75, 80
1, 60478, Note_on_c, 0, 75, 0
1, 60478, Note_on_c, 1, 66, 0
1, 60480, Note_on_c, 0, 73, 80
1, 60480, Note_on_c, 1, 64, 80
1, 60504, Note_on_c, 0, 73, 0
1, 60510, Note_on_c, 0, 75, 80
1, 60534, Note_on_c, 0, 75, 0
1, 60540, Note_on_c, 0, 73, 80
1, 60564, Note_on_c, 0, 73, 0
1, 60570, Note_on_c, 0, 75, 80
1, 60594, Note_on_c, 0, 75, 0
1, 60600, Note_on_c, 0, 73, 80
1, 60616, Note_on_c, 0, 73, 0
1, 60620, Note_on_c, 0, 75, 80
1, 60636, Note_on_c, 0, 75, 0
1, 60640, Note_on_c, 0, 73, 80
1, 60656, Note_on_c, 0, 73, 0
1, 60660, Note_on_c, 0, 71, 80
1, 60684, Note_on_c, 0, 71, 0
1, 60690, Note_on_c, 0, 73, 80
1, 60714, Note_on_c, 0, 73, 0
1, 60718, Note_on_c, 1, 64, 0
1, 60720, Note_on_c, 0, 71, 80
1, 60720, Note_on_c, 1, 63, 80
1, 60864, Note_on_c, 0, 71, 0
1, 60864, Note_on_c, 1, 63, 0
1, 60960, Note_on_c, 0, 68, 80
1, 61008, Note_on_c, 0, 68, 0
1, 61020, Note_on_c, 0, 66, 80
1, 61050, Note_on_c, 0, 66, 0
1, 61080, Note_on_c, 0, 64, 80
1, 61110, Note_on_c, 0, 64, 0
1, 61140, Note_on_c, 0, 63, 80
1, 61170, Note_on_c, 0, 63, 0
1, 61200, Note_on_c, 0, 61, 80
1, 61378, Note_on_c, 0, 61, 0
1, 61380, Note_on_c, 0, 59, 80
1, 61438, Note_on_c, 0, 59, 0
1, 61440, Note_on_c, 0, 75, 80
1, 61680, Note_on_c, 1, 59, 80
1, 61680, Note_on_c, 1, 65, 80
1, 61800, Note_on_c, 0, 75, 0
1, 61800, Note_on_c, 0, 75, 80
1, 61896, Note_on_c, 0, 75, 0
1, 61918, Note_on_c, 1, 65, 0
1, 61918, Note_on_c, 1, 59, 0
1, 61920, Note_on_c, 0, 75, 80
1, 61920, Note_on_c, 1, 58, 80
1, 61920, Note_on_c, 1, 66, 80
1, 61978, Note_on_c, 0, 75, 0
1, 61980, Note_on_c, 0, 73, 80
1, 62038, Note_on_c, 0, 73, 0
1, 62040, Note_on_c, 0, 72, 80
1, 62098, Note_on_c, 0, 72, 0
1, 62100, Note_on_c, 0, 73, 80
1, 62158, Note_on_c, 0, 73, 0
1, 62158, Note_on_c, 1, 66, 0
1, 62158, Note_on_c, 1, 58, 0
1, 62160, Note_on_c, 0, 78, 80
1, 62220, Note_on_c, 0, 78, 0
1, 62280, Note_on_c, 0, 78, 80
1, 62340, Note_on_c, 0, 78, 0
1, 62400, Note_on_c, 1, 59, 48
1, 62400, Note_on_c, 1, 65, 48
1, 62520, Note_on_c, 0, 75, 48
1, 62568, Note_on_c, 0, 75, 0
1, 62638, Note_on_c, 1, 65, 0
1, 62638, Note_on_c, 1, 59, 0
1, 62640, Note_on_c, 0, 75, 48
1, 62640, Note_on_c, 1, 58, 48
1, 62640, Note_on_c, 1, 66, 48
1, 62698, Note_on_c, 0, 75, 0
1, 62700, Note_on_c, 0, 73, 48
1, 62758, Note_on_c, 0, 73, 0
1, 62760, Note_on_c, 0, 72, 48
1, 62818, Note_on_c, 0, 72, 0
1, 62820, Note_on_c, 0, 73, 48
1, 62878, Note_on_c, 0, 73, 0
1, 62878, Note_on_c, 1, 66, 0
1, 62878, Note_on_c, 1, 58, 0
1, 62880, Note_on_c, 0, 78, 48
1, 62952, Note_on_c, 0, 78, 0
1, 63000, Note_on_c, 0, 78, 48
1, 63072, Note_on_c, 0, 78, 0
1, 63120, Note_on_c, 1, 59, 80
1, 63120, Note_on_c, 1, 65, 80
1, 63240, Note_on_c, 0, 75, 80
1, 63358, Note_on_c, 0, 75, 0
1, 63358, Note_on_c, 1, 65, 0
1, 63358, Note_on_c, 1, 59, 0
1, 63360, Note_on_c, 0, 75, 80
1, 63360, Note_on_c, 1, 58, 80
1, 63360, Note_on_c, 1, 66, 80
1, 63418, Note_on_c, 0, 75, 0
1, 63420, Note_on_c, 0, 73, 80
1, 63478, Note_on_c, 0, 73, 0
1, 63480, Note_on_c, 0, 72, 80
1, 63538, Note_on_c, 0, 72, 0
1, 63540, Note_on_c, 0, 73, 80
1, 63598, Note_on_c, 0, 73, 0
1, 63600, Note_on_c, 0, 75, 80
1, 63658, Note_on_c, 0, 75, 0
1, 63660, Note_on_c, 0, 77, 80
1, 63718, Note_on_c, 0, 77, 0
1, 63720, Note_on_c, 0, 78, 80
1, 63778, Note_on_c, 0, 78, 0
1, 63780, Note_on_c, 0, 80, 80
1, 63838, Note_on_c, 0, 80, 0
1, 63840, Note_on_c, 0, 82, 80
1, 63898, Note_on_c, 0, 82, 0
1, 63900, Note_on_c, 0, 78, 80
1, 63958, Note_on_c, 0, 78, 0
1, 63960, Note_on_c, 0, 77, 80
1, 64018, Note_on_c, 0, 77, 0
1, 64020, Note_on_c, 0, 78, 80
1, 64078, Note_on_c, 0, 78, 0
1, 64078, Note_on_c, 1, 66, 0
1, 64078, Note_on_c, 1, 58, 0
1, 64080, Note_on_c, 0, 77, 80
1, 64128, Note_on_c, 0, 77, 0
1, 64140, Note_on_c, 0, 75, 80
1, 64188, Note_on_c, 0, 75, 0
1, 64200, Note_on_c, 0, 73, 80
1, 64248, Note_on_c, 0, 73, 0
1, 64260, Note_on_c, 0, 71, 80
1, 64308, Note_on_c, 0, 71, 0
1, 64320, Note_on_c, 0, 70, 80
1, 64320, Note_on_c, 1, 59, 80
1, 64320, Note_on_c, 1, 66, 80
1, 64512, Note_on_c, 0, 70, 0
1, 64558, Note_on_c, 1, 66, 0
1, 64558, Note_on_c, 1, 59, 0
1, 64560, Note_on_c, 0, 68, 80
1, 64560, Note_on_c, 1, 61, 80
1, 64560, Note_on_c, 1, 66, 80
1, 64584, Note_on_c, 0, 68, 0
1, 64590, Note_on_c, 0, 70, 80
1, 64614, Note_on_c, 0, 70, 0
1, 64620, Note_on_c, 0, 68, 80
1, 64644, Note_on_c, 0, 68, 0
1, 64650, Note_on_c, 0, 70, 80
1, 64674, Note_on_c, 0, 70, 0
1, 64680, Note_on_c, 0, 68, 80
1, 64696, Note_on_c, 0, 68, 0
1, 64700, Note_on_c, 0, 70, 80
1, 64716, Note_on_c, 0, 70, 0
1, 64720, Note_on_c, 0, 68, 80
1, 64736, Note_on_c, 0, 68, 0
1, 64740, Note_on_c, 0, 66, 80
1, 64764, Note_on_c, 0, 66, 0
1, 64770, Note_on_c, 0, 68, 80
1, 64794, Note_on_c, 0, 68, 0
1, 64798, Note_on_c, 1, 66, 0
1, 64800, Note_on_c, 0, 66, 80
1, 64800, Note_on_c, 1, 61, 0
1, 64800, Note_on_c, 1, 54, 80
1, 65038, Note_on_c, 1, 54, 0
1, 65040, Note_on_c, 1, 42, 80
1, 65160, Note_on_c, 1, 42, 0
1, 65278, Note_on_c, 0, 66, 0
1, 65280, Note_on_c, 0, 68, 80
1, 65328, Note_on_c, 0, 68, 0
1, 65340, Note_on_c, 0, 66, 80
1, 65370, Note_on_c, 0, 66, 0
1, 65400, Note_on_c, 0, 64, 80
1, 65430, Note_on_c, 0, 64, 0
1, 65460, Note_on_c, 0, 63, 80
1, 65490, Note_on_c, 0, 63, 0
1, 65520, Note_on_c, 0, 61, 80
1, 65698, Note_on_c, 0, 61, 0
1, 65700, Note_on_c, 0, 60, 80
1, 65758, Note_on_c, 0, 60, 0
1, 65760, Note_on_c, 0, 69, 80
1, 66000, Note_on_c, 1, 54, 80
1, 66120, Note_on_c, 0, 69, 0
1, 66120, Note_on_c, 0, 60, 80
1, 66238, Note_on_c, 0, 60, 0
1, 66238, Note_on_c, 1, 54, 0
1, 66240, Note_on_c, 0, 61, 80
1, 66240, Note_on_c, 1, 52, 80
1, 66358, Note_on_c, 0, 61, 0
1, 66360, Note_on_c, 0, 64, 80
1, 66420, Note_on_c, 0, 64, 0
1, 66478, Note_on_c, 1, 52, 0
1, 66480, Note_on_c, 0, 68, 80
1, 66540, Note_on_c, 0, 68, 0
1, 66600, Note_on_c, 0, 73, 80
1, 66660, Note_on_c, 0, 73, 0
1, 66720, Note_on_c, 0, 78, 80
1, 66768, Note_on_c, 0, 78, 0
1, 66780, Note_on_c, 0, 76, 80
1, 66828, Note_on_c, 0, 76, 0
1, 66840, Note_on_c, 0, 75, 80
1, 66888, Note_on_c, 0, 75, 0
1, 66900, Note_on_c, 0, 73, 80
1, 66948, Note_on_c, 0, 73, 0
1, 66960, Note_on_c, 0, 71, 80
1, 67138, Note_on_c, 0, 71, 0
1, 67140, Note_on_c, 0, 70, 80
1, 67198, Note_on_c, 0, 70, 0
1, 67200, Note_on_c, 0, 80, 80
1, 67440, Note_on_c, 1, 64, 80
1, 67560, Note_on_c, 0, 80, 0
1, 67560, Note_on_c, 0, 70, 80
1, 67678, Note_on_c, 0, 70, 0
1, 67678, Note_on_c, 1, 64, 0
1, 67680, Note_on_c, 0, 71, 80
1, 67680, Note_on_c, 1, 63, 80
1, 67738, Note_on_c, 0, 71, 0
1, 67740, Note_on_c, 0, 73, 80
1, 67798, Note_on_c, 0, 73, 0
1, 67800, Note_on_c, 0, 75, 80
1, 67858, Note_on_c, 0, 75, 0
1, 67860, Note_on_c, 0, 76, 80
1, 67918, Note_on_c, 0, 76, 0
1, 67920, Note_on_c, 0, 78, 80
1, 67978, Note_on_c, 0, 78, 0
1, 67980, Note_on_c, 0, 80, 80
1, 68038, Note_on_c, 0, 80, 0
1, 68040, Note_on_c, 0, 82, 80
1, 68098, Note_on_c, 0, 82, 0
1, 68100, Note_on_c, 0, 83, 80
1, 68158, Note_on_c, 0, 83, 0
1, 68160, Note_on_c, 0, 82, 80
1, 68218, Note_on_c, 0, 82, 0
1, 68220, Note_on_c, 0, 83, 80
1, 68278, Note_on_c, 0, 83, 0
1, 68280, Note_on_c, 0, 82, 80
1, 68338, Note_on_c, 0, 82, 0
1, 68340, Note_on_c, 0, 83, 80
1, 68398, Note_on_c, 0, 83, 0
1, 68398, Note_on_c, 1, 63, 0
1, 68400, Note_on_c, 0, 82, 80
1, 68400, Note_on_c, 1, 64, 80
1, 68458, Note_on_c, 0, 82, 0
1, 68460, Note_on_c, 0, 80, 80
1, 68518, Note_on_c, 0, 80, 0
1, 68520, Note_on_c, 0, 79, 80
1, 68578, Note_on_c, 0, 79, 0
1, 68580, Note_on_c, 0, 80, 80
1, 68638, Note_on_c, 0, 80, 0
1, 68640, Note_on_c, 0, 78, 80
1, 68698, Note_on_c, 0, 78, 0
1, 68700, Note_on_c, 0, 76, 80
1, 68758, Note_on_c, 0, 76, 0
1, 68760, Note_on_c, 0, 75, 80
1, 68818, Note_on_c, 0, 75, 0
1, 68820, Note_on_c, 0, 76, 80
1, 68878, Note_on_c, 0, 76, 0
1, 68880, Note_on_c, 0, 75, 80
1, 68938, Note_on_c, 0, 75, 0
1, 68940, Note_on_c, 0, 73, 80
1, 68998, Note_on_c, 0, 73, 0
1, 68998, Note_on_c, 1, 64, 0
1, 69000, Note_on_c, 0, 72, 80
1, 69000, Note_on_c, 1, 65, 80
1, 69058, Note_on_c, 0, 72, 0
1, 69060, Note_on_c, 0, 73, 80
1, 69118, Note_on_c, 0, 73, 0
1, 69118, Note_on_c, 1, 65, 0
1, 69120, Note_on_c, 0, 71, 80
1, 69120, Note_on_c, 1, 66, 80
1, 69360, Note_on_c, 0, 71, 0
1, 69360, Note_on_c, 0, 70, 80
1, 69360, Note_on_c, 1, 66, 0
1, 69360, Note_on_c, 1, 54, 80
1, 69480, Note_on_c, 0, 70, 0
1, 69480, Note_on_c, 1, 54, 0
1, 69600, Note_on_c, 0, 66, 80
1, 69648, Note_on_c, 0, 66, 0
1, 69660, Note_on_c, 0, 64, 80
1, 69684, Note_on_c, 0, 64, 0
1, 69720, Note_on_c, 0, 63, 80
1, 69744, Note_on_c, 0, 63, 0
1, 69780, Note_on_c, 0, 61, 80
1, 69804, Note_on_c, 0, 61, 0
1, 69840, Note_on_c, 0, 59, 80
1, 70018, Note_on_c, 0, 59, 0
1, 70020, Note_on_c, 0, 58, 80
1, 70078, Note_on_c, 0, 58, 0
1, 70080, Note_on_c, 0, 80, 80
1, 70320, Note_on_c, 1, 64, 80
1, 70320, Note_on_c, 1, 70, 80
1, 70440, Note_on_c, 0, 80, 0
1, 70440, Note_on_c, 0, 80, 80
1, 70558, Note_on_c, 0, 80, 0
1, 70558, Note_on_c, 1, 70, 0
1, 70558, Note_on_c, 1, 64, 0
1, 70560, Note_on_c, 0, 80, 80
1, 70560, Note_on_c, 1, 63, 80
1, 70560, Note_on_c, 1, 71, 80
1, 70618, Note_on_c, 0, 80, 0
1, 70620, Note_on_c, 0, 78, 80
1, 70678, Note_on_c, 0, 78, 0
1, 70680, Note_on_c, 0, 77, 80
1, 70738, Note_on_c, 0, 77, 0
1, 70740, Note_on_c, 0, 78, 80
1, 70798, Note_on_c, 0, 78, 0
1, 70798, Note_on_c, 1, 71, 0
1, 70798, Note_on_c, 1, 63, 0
1, 70800, Note_on_c, 0, 83, 80
1, 70860, Note_on_c, 0, 83, 0
1, 70920, Note_on_c, 0, 83, 80
1, 70980, Note_on_c, 0, 83, 0
1, 71040, Note_on_c, 1, 64, 48
1, 71040, Note_on_c, 1, 70, 48
1, 71160, Note_on_c, 0, 80, 48
1, 71278, Note_on_c, 0, 80, 0
1, 71278, Note_on_c, 1, 70, 0
1, 71278, Note_on_c, 1, 64, 0
1, 71280, Note_on_c, 0, 80, 48
1, 71280, Note_on_c, 1, 63, 48
1, 71280, Note_on_c, 1, 71, 48
1, 71338, Note_on_c, 0, 80, 0
1, 71340, Note_on_c, 0, 78, 48
1, 71398, Note_on_c, 0, 78, 0
1, 71400, Note_on_c, 0, 77, 48
1, 71458, Note_on_c, 0, 77, 0
1, 71460, Note_on_c, 0, 78, 48
1, 71518, Note_on_c, 0, 78, 0
1, 71518, Note_on_c, 1, 71, 0
1, 71518, Note_on_c, 1, 63, 0
1, 71520, Note_on_c, 0, 83, 48
1, 71598, Note_on_c, 0, 83, 0
1, 71640, Note_on_c, 0, 83, 48
1, 71718, Note_on_c, 0, 83, 0
1, 71760, Note_on_c, 1, 52, 80
1, 71760, Note_on_c, 1, 58, 80
1, 71880, Note_on_c, 0, 80, 80
1, 71998, Note_on_c, 0, 80, 0
1, 71998, Note_on_c, 1, 58, 0
1, 71998, Note_on_c, 1, 52, 0
1, 72000, Note_on_c, 0, 80, 80
1, 72000, Note_on_c, 1, 51, 80
1, 72000, Note_on_c, 1, 59, 80
1, 72058, Note_on_c, 0, 80, 0
1, 72060, Note_on_c, 0, 78, 80
1, 72118, Note_on_c, 0, 78, 0
1, 72120, Note_on_c, 0, 77, 80
1, 72178, Note_on_c, 0, 77, 0
1, 72180, Note_on_c, 0, 78, 80
1, 72238, Note_on_c, 0, 78, 0
1, 72240, Note_on_c, 0, 83, 80
1, 72298, Note_on_c, 0, 83, 0
1, 72300, Note_on_c, 0, 82, 80
1, 72358, Note_on_c, 0, 82, 0
1, 72360, Note_on_c, 0, 80, 80
1, 72418, Note_on_c, 0, 80, 0
1, 72420, Note_on_c, 0, 78, 80
1, 72478, Note_on_c, 0, 78, 0
1, 72480, Note_on_c, 0, 76, 80
1, 72538, Note_on_c, 0, 76, 0
1, 72540, Note_on_c, 0, 75, 80
1, 72598, Note_on_c, 0, 75, 0
1, 72600, Note_on_c, 0, 73, 80
1, 72658, Note_on_c, 0, 73, 0
1, 72660, Note_on_c, 0, 71, 80
1, 72718, Note_on_c, 0, 71, 0
1, 72718, Note_on_c, 1, 59, 0
1, 72718, Note_on_c, 1, 51, 0
1, 72720, Note_on_c, 0, 75, 80
1, 72720, Note_on_c, 1, 52, 80
1, 72778, Note_on_c, 0, 75, 0
1, 72780, Note_on_c, 0, 73, 80
1, 72838, Note_on_c, 0, 73, 0
1, 72840, Note_on_c, 0, 76, 80
1, 72840, Note_on_c, 1, 64, 80
1, 72898, Note_on_c, 0, 76, 0
1, 72900, Note_on_c, 0, 73, 80
1, 72958, Note_on_c, 0, 73, 0
1, 72958, Note_on_c, 1, 64, 0
1, 72958, Note_on_c, 1, 52, 0
1, 72960, Note_on_c, 0, 71, 80
1, 72960, Note_on_c, 1, 54, 80
1, 72960, Note_on_c, 1, 63, 80
1, 73198, Note_on_c, 0, 71, 0
1, 73198, Note_on_c, 1, 63, 0
1, 73200, Note_on_c, 0, 70, 80
1, 73200, Note_on_c, 1, 61, 80
1, 73224, Note_on_c, 0, 70, 0
1, 73230, Note_on_c, 0, 71, 80
1, 73254, Note_on_c, 0, 71, 0
1, 73260, Note_on_c, 0, 70, 80
1, 73284, Note_on_c, 0, 70, 0
1, 73290, Note_on_c, 0, 71, 80
1, 73314, Note_on_c, 0, 71, 0
1, 73320, Note_on_c, 0, 70, 80
1, 73336, Note_on_c, 0, 70, 0
1, 73340, Note_on_c, 0, 71, 80
1, 73356, Note_on_c, 0, 71, 0
1, 73360, Note_on_c, 0, 70, 80
1, 73376, Note_on_c, 0, 70, 0
1, 73380, Note_on_c, 0, 68, 80
1, 73404, Note_on_c, 0, 68, 0
1, 73410, Note_on_c, 0, 70, 80
1, 73434, Note_on_c, 0, 70, 0
1, 73438, Note_on_c, 1, 61, 0
1, 73438, Note_on_c, 1, 54, 0
1, 73440, Note_on_c, 0, 71, 80
1, 73440, Note_on_c, 1, 59, 80
1, 73678, Note_on_c, 1, 59, 0
1, 73680, Note_on_c, 1, 47, 80
1, 73890, Note_on_c, 0, 71, 0
1, 73918, Note_on_c, 1, 47, 0
1, 73928, End_track
0, 0, End_of_file