0, 0, Header, 0, 1, 240
1, 0, Start_track
1, 0, Tempo, 625000
1, 0, Note_on_c, 0, 70, 80
1, 60, Note_on_c, 1, 58, 80
1, 120, Note_on_c, 0, 70, 0
1, 120, Note_on_c, 1, 58, 0
1, 120, Note_on_c, 1, 62, 80
1, 144, Note_on_c, 1, 62, 0
1, 180, Note_on_c, 1, 58, 80
1, 204, Note_on_c, 1, 58, 0
1, 240, Note_on_c, 0, 77, 80
1, 240, Note_on_c, 1, 57, 80
1, 300, Note_on_c, 1, 57, 0
1, 300, Note_on_c, 1, 60, 80
1, 324, Note_on_c, 1, 60, 0
1, 360, Note_on_c, 0, 77, 0
1, 360, Note_on_c, 1, 53, 80
1, 384, Note_on_c, 1, 53, 0
1, 420, Note_on_c, 1, 57, 80
1, 444, Note_on_c, 1, 57, 0
1, 450, Note_on_c, 0, 72, 80
1, 480, Note_on_c, 0, 72, 0
1, 480, Note_on_c, 0, 70, 80
1, 480, Note_on_c, 1, 55, 80
1, 504, Note_on_c, 1, 55, 0
1, 510, Note_on_c, 0, 70, 0
1, 510, Note_on_c, 0, 69, 80
1, 540, Note_on_c, 0, 69, 0
1, 540, Note_on_c, 0, 70, 80
1, 540, Note_on_c, 1, 67, 80
1, 564, Note_on_c, 1, 67, 0
1, 600, Note_on_c, 1, 51, 80
1, 624, Note_on_c, 1, 51, 0
1, 660, Note_on_c, 1, 63, 80
1, 684, Note_on_c, 1, 63, 0
1, 720, Note_on_c, 0, 70, 0
1, 720, Note_on_c, 0, 82, 80
1, 720, Note_on_c, 1, 50, 80
1, 744, Note_on_c, 1, 50, 0
1, 780, Note_on_c, 1, 62, 80
1, 804, Note_on_c, 1, 62, 0
1, 840, Note_on_c, 0, 82, 0
1, 840, Note_on_c, 1, 46, 80
1, 864, Note_on_c, 1, 46, 0
1, 900, Note_on_c, 1, 58, 80
1, 924, Note_on_c, 1, 58, 0
1, 960, Note_on_c, 1, 51, 80
1, 1020, Note_on_c, 0, 79, 80
1, 1020, Note_on_c, 1, 51, 0
1, 1020, Note_on_c, 1, 63, 80
1, 1044, Note_on_c, 0, 79, 0
1, 1044, Note_on_c, 1, 63, 0
1, 1080, Note_on_c, 0, 78, 80
1, 1080, Note_on_c, 1, 62, 80
1, 1104, Note_on_c, 0, 78, 0
1, 1104, Note_on_c, 1, 62, 0
1, 1140, Note_on_c, 0, 79, 80
1, 1140, Note_on_c, 1, 63, 80
1, 1164, Note_on_c, 0, 79, 0
1, 1164, Note_on_c, 1, 63, 0
1, 1200, Note_on_c, 0, 75, 80
1, 1200, Note_on_c, 1, 60, 80
1, 1260, Note_on_c, 0, 75, 0
1, 1260, Note_on_c, 0, 72, 80
1, 1260, Note_on_c, 1, 60, 0
1, 1260, Note_on_c, 1, 63, 80
1, 1284, Note_on_c, 0, 72, 0
1, 1284, Note_on_c, 1, 63, 0
1, 1320, Note_on_c, 0, 71, 80
1, 1320, Note_on_c, 1, 62, 80
1, 1344, Note_on_c, 0, 71, 0
1, 1344, Note_on_c, 1, 62, 0
1, 1380, Note_on_c, 0, 72, 80
1, 1380, Note_on_c, 1, 63, 80
1, 1404, Note_on_c, 0, 72, 0
1, 1404, Note_on_c, 1, 63, 0
1, 1440, Note_on_c, 0, 70, 80
1, 1440, Note_on_c, 1, 53, 80
1, 1464, Note_on_c, 1, 53, 0
1, 1500, Note_on_c, 1, 60, 80
1, 1524, Note_on_c, 1, 60, 0
1, 1560, Note_on_c, 0, 70, 0
1, 1560, Note_on_c, 0, 69, 80
1, 1560, Note_on_c, 1, 65, 80
1, 1580, Note_on_c, 0, 69, 0
1, 1580, Note_on_c, 0, 70, 80
1, 1600, Note_on_c, 0, 70, 0
1, 1600, Note_on_c, 0, 69, 80
1, 1620, Note_on_c, 0, 69, 0
1, 1620, Note_on_c, 0, 67, 80
1, 1620, Note_on_c, 1, 65, 0
1, 1620, Note_on_c, 1, 63, 80
1, 1644, Note_on_c, 1, 63, 0
1, 1650, Note_on_c, 0, 67, 0
1, 1650, Note_on_c, 0, 69, 80
1, 1680, Note_on_c, 0, 69, 0
1, 1680, Note_on_c, 0, 70, 80
1, 1680, Note_on_c, 1, 62, 80
1, 1704, Note_on_c, 1, 62, 0
1, 1740, Note_on_c, 1, 65, 80
1, 1764, Note_on_c, 1, 65, 0
1, 1800, Note_on_c, 0, 70, 0
1, 1800, Note_on_c, 1, 62, 80
1, 1824, Note_on_c, 1, 62, 0
1, 1860, Note_on_c, 1, 58, 80
1, 1884, Note_on_c, 1, 58, 0
1, 1920, Note_on_c, 0, 65, 80
1, 1920, Note_on_c, 0, 72, 80
1, 1920, Note_on_c, 1, 57, 80
1, 1980, Note_on_c, 0, 72, 0
1, 1980, Note_on_c, 0, 77, 80
1, 1980, Note_on_c, 1, 57, 0
1, 2004, Note_on_c, 0, 77, 0
1, 2040, Note_on_c, 0, 72, 80
1, 2064, Note_on_c, 0, 72, 0
1, 2100, Note_on_c, 0, 75, 80
1, 2100, Note_on_c, 1, 57, 80
1, 2124, Note_on_c, 0, 75, 0
1, 2160, Note_on_c, 0, 75, 88
1, 2160, Note_on_c, 1, 57, 0
1, 2160, Note_on_c, 1, 58, 80
1, 2184, Note_on_c, 1, 58, 0
1, 2220, Note_on_c, 1, 53, 80
1, 2244, Note_on_c, 1, 53, 0
1, 2280, Note_on_c, 0, 75, 0
1, 2280, Note_on_c, 0, 74, 80
1, 2280, Note_on_c, 1, 50, 80
1, 2304, Note_on_c, 1, 50, 0
1, 2340, Note_on_c, 1, 46, 80
1, 2364, Note_on_c, 1, 46, 0
1, 2400, Note_on_c, 0, 74, 0
1, 2400, Note_on_c, 0, 65, 0
1, 2400, Note_on_c, 0, 65, 80
1, 2400, Note_on_c, 0, 72, 80
1, 2400, Note_on_c, 1, 45, 80
1, 2460, Note_on_c, 0, 72, 0
1, 2460, Note_on_c, 0, 77, 80
1, 2472, Note_on_c, 1, 45, 0
1, 2484, Note_on_c, 0, 77, 0
1, 2520, Note_on_c, 0, 72, 80
1, 2544, Note_on_c, 0, 72, 0
1, 2580, Note_on_c, 0, 75, 80
1, 2580, Note_on_c, 1, 45, 80
1, 2604, Note_on_c, 0, 75, 0
1, 2640, Note_on_c, 0, 75, 88
1, 2640, Note_on_c, 1, 45, 0
1, 2640, Note_on_c, 1, 46, 80
1, 2664, Note_on_c, 1, 46, 0
1, 2700, Note_on_c, 1, 50, 80
1, 2724, Note_on_c, 1, 50, 0
1, 2760, Note_on_c, 0, 75, 0
1, 2760, Note_on_c, 0, 74, 80
1, 2760, Note_on_c, 1, 53, 80
1, 2784, Note_on_c, 1, 53, 0
1, 2820, Note_on_c, 1, 58, 80
1, 2844, Note_on_c, 1, 58, 0
1, 2880, Note_on_c, 0, 74, 0
1, 2880, Note_on_c, 0, 72, 80
1, 2880, Note_on_c, 1, 57, 80
1, 2928, Note_on_c, 0, 72, 0
1, 2928, Note_on_c, 0, 65, 0
1, 2940, Note_on_c, 1, 57, 0
1, 2940, Note_on_c, 1, 53, 80
1, 2964, Note_on_c, 1, 53, 0
1, 3000, Note_on_c, 0, 72, 80
1, 3000, Note_on_c, 0, 75, 80
1, 3000, Note_on_c, 1, 57, 80
1, 3024, Note_on_c, 1, 57, 0
1, 3060, Note_on_c, 1, 53, 80
1, 3084, Note_on_c, 1, 53, 0
1, 3120, Note_on_c, 0, 75, 0
1, 3120, Note_on_c, 0, 72, 0
1, 3120, Note_on_c, 1, 58, 80
1, 3180, Note_on_c, 1, 58, 0
1, 3180, Note_on_c, 1, 53, 80
1, 3204, Note_on_c, 1, 53, 0
1, 3240, Note_on_c, 0, 70, 80
1, 3240, Note_on_c, 0, 74, 80
1, 3240, Note_on_c, 1, 50, 80
1, 3264, Note_on_c, 1, 50, 0
1, 3300, Note_on_c, 1, 46, 80
1, 3324, Note_on_c, 1, 46, 0
1, 3360, Note_on_c, 0, 74, 0
1, 3360, Note_on_c, 0, 70, 0
1, 3360, Note_on_c, 0, 72, 80
1, 3360, Note_on_c, 1, 41, 80
1, 3420, Note_on_c, 0, 72, 0
1, 3420, Note_on_c, 0, 65, 80
1, 3444, Note_on_c, 0, 65, 0
1, 3480, Note_on_c, 0, 67, 80
1, 3480, Note_on_c, 1, 41, 0
1, 3480, Note_on_c, 1, 53, 80
1, 3504, Note_on_c, 0, 67, 0
1, 3528, Note_on_c, 1, 53, 0
1, 3540, Note_on_c, 0, 65, 80
1, 3564, Note_on_c, 0, 65, 0
1, 3600, Note_on_c, 0, 70, 80
1, 3600, Note_on_c, 1, 55, 80
1, 3648, Note_on_c, 1, 55, 0
1, 3660, Note_on_c, 0, 70, 0
1, 3660, Note_on_c, 0, 65, 80
1, 3684, Note_on_c, 0, 65, 0
1, 3720, Note_on_c, 0, 72, 80
1, 3720, Note_on_c, 1, 57, 80
1, 3744, Note_on_c, 0, 72, 0
1, 3780, Note_on_c, 0, 65, 80
1, 3804, Note_on_c, 0, 65, 0
1, 3840, Note_on_c, 0, 74, 80
1, 3840, Note_on_c, 1, 57, 0
1, 3840, Note_on_c, 1, 46, 80
1, 3864, Note_on_c, 0, 74, 0
1, 3864, Note_on_c, 1, 46, 0
1, 3900, Note_on_c, 0, 74, 80
1, 3900, Note_on_c, 1, 58, 80
1, 3960, Note_on_c, 0, 74, 0
1, 3960, Note_on_c, 0, 73, 80
1, 3960, Note_on_c, 1, 58, 0
1, 3960, Note_on_c, 1, 57, 80
1, 4020, Note_on_c, 0, 73, 0
1, 4020, Note_on_c, 0, 74, 80
1, 4020, Note_on_c, 1, 57, 0
1, 4020, Note_on_c, 1, 58, 80
1, 4044, Note_on_c, 0, 74, 0
1, 4044, Note_on_c, 1, 58, 0
1, 4080, Note_on_c, 0, 82, 80
1, 4080, Note_on_c, 1, 55, 80
1, 4140, Note_on_c, 0, 82, 0
1, 4140, Note_on_c, 0, 79, 80
1, 4140, Note_on_c, 1, 55, 0
1, 4140, Note_on_c, 1, 58, 80
1, 4164, Note_on_c, 0, 79, 0
1, 4164, Note_on_c, 1, 58, 0
1, 4200, Note_on_c, 0, 78, 80
1, 4200, Note_on_c, 1, 57, 80
1, 4224, Note_on_c, 0, 78, 0
1, 4224, Note_on_c, 1, 57, 0
1, 4260, Note_on_c, 0, 79, 80
1, 4260, Note_on_c, 1, 58, 80
1, 4284, Note_on_c, 0, 79, 0
1, 4284, Note_on_c, 1, 58, 0
1, 4320, Note_on_c, 0, 77, 80
1, 4320, Note_on_c, 1, 48, 80
1, 4380, Note_on_c, 1, 48, 0
1, 4380, Note_on_c, 1, 60, 80
1, 4404, Note_on_c, 1, 60, 0
1, 4440, Note_on_c, 0, 77, 0
1, 4440, Note_on_c, 0, 76, 80
1, 4440, Note_on_c, 1, 58, 80
1, 4464, Note_on_c, 1, 58, 0
1, 4500, Note_on_c, 1, 60, 80
1, 4524, Note_on_c, 1, 60, 0
1, 4560, Note_on_c, 0, 76, 0
1, 4560, Note_on_c, 0, 84, 80
1, 4560, Note_on_c, 1, 57, 80
1, 4584, Note_on_c, 1, 57, 0
1, 4620, Note_on_c, 1, 60, 80
1, 4644, Note_on_c, 1, 60, 0
1, 4680, Note_on_c, 0, 84, 0
1, 4680, Note_on_c, 1, 58, 80
1, 4704, Note_on_c, 1, 58, 0
1, 4740, Note_on_c, 0, 75, 80
1, 4740, Note_on_c, 1, 60, 80
1, 4800, Note_on_c, 0, 75, 0
1, 4800, Note_on_c, 0, 77, 80
1, 4800, Note_on_c, 1, 60, 0
1, 4800, Note_on_c, 1, 50, 80
1, 4824, Note_on_c, 0, 77, 0
1, 4824, Note_on_c, 1, 50, 0
1, 4860, Note_on_c, 0, 77, 80
1, 4860, Note_on_c, 1, 62, 80
1, 4920, Note_on_c, 0, 77, 0
1, 4920, Note_on_c, 0, 76, 80
1, 4920, Note_on_c, 1, 62, 0
1, 4920, Note_on_c, 1, 61, 80
1, 4980, Note_on_c, 0, 76, 0
1, 4980, Note_on_c, 0, 77, 80
1, 4980, Note_on_c, 1, 61, 0
1, 4980, Note_on_c, 1, 62, 80
1, 5004, Note_on_c, 0, 77, 0
1, 5004, Note_on_c, 1, 62, 0
1, 5040, Note_on_c, 0, 86, 80
1, 5040, Note_on_c, 1, 58, 80
1, 5100, Note_on_c, 0, 86, 0
1, 5100, Note_on_c, 0, 77, 80
1, 5100, Note_on_c, 1, 58, 0
1, 5100, Note_on_c, 1, 62, 80
1, 5124, Note_on_c, 0, 77, 0
1, 5124, Note_on_c, 1, 62, 0
1, 5160, Note_on_c, 0, 79, 80
1, 5160, Note_on_c, 1, 59, 80
1, 5184, Note_on_c, 0, 79, 0
1, 5184, Note_on_c, 1, 59, 0
1, 5220, Note_on_c, 0, 77, 80
1, 5220, Note_on_c, 1, 62, 80
1, 5244, Note_on_c, 0, 77, 0
1, 5244, Note_on_c, 1, 62, 0
1, 5280, Note_on_c, 0, 76, 80
1, 5280, Note_on_c, 1, 60, 80
1, 5340, Note_on_c, 0, 76, 0
1, 5340, Note_on_c, 0, 79, 80
1, 5364, Note_on_c, 0, 79, 0
1, 5400, Note_on_c, 0, 71, 80
1, 5424, Note_on_c, 0, 71, 0
1, 5460, Note_on_c, 0, 72, 80
1, 5484, Note_on_c, 0, 72, 0
1, 5520, Note_on_c, 1, 60, 0
1, 5520, Note_on_c, 1, 64, 80
1, 5580, Note_on_c, 0, 84, 80
1, 5604, Note_on_c, 0, 84, 0
1, 5640, Note_on_c, 0, 72, 80
1, 5664, Note_on_c, 0, 72, 0
1, 5700, Note_on_c, 0, 84, 80
1, 5724, Note_on_c, 0, 84, 0
1, 5760, Note_on_c, 1, 64, 0
1, 5760, Note_on_c, 1, 65, 80
1, 5820, Note_on_c, 0, 84, 80
1, 5844, Note_on_c, 0, 84, 0
1, 5880, Note_on_c, 0, 74, 80
1, 5904, Note_on_c, 0, 74, 0
1, 5940, Note_on_c, 0, 84, 80
1, 6000, Note_on_c, 0, 84, 0
1, 6000, Note_on_c, 0, 83, 80
1, 6000, Note_on_c, 1, 65, 0
1, 6000, Note_on_c, 1, 67, 80
1, 6040, Note_on_c, 0, 83, 0
1, 6040, Note_on_c, 0, 81, 80
1, 6080, Note_on_c, 0, 81, 0
1, 6080, Note_on_c, 0, 79, 80
1, 6120, Note_on_c, 0, 79, 0
1, 6120, Note_on_c, 0, 77, 80
1, 6160, Note_on_c, 0, 77, 0
1, 6160, Note_on_c, 0, 76, 80
1, 6200, Note_on_c, 0, 76, 0
1, 6200, Note_on_c, 0, 74, 80
1, 6240, Note_on_c, 0, 74, 0
1, 6240, Note_on_c, 0, 76, 80
1, 6240, Note_on_c, 1, 67, 0
1, 6240, Note_on_c, 1, 60, 80
1, 6300, Note_on_c, 0, 76, 0
1, 6300, Note_on_c, 0, 79, 80
1, 6324, Note_on_c, 0, 79, 0
1, 6360, Note_on_c, 0, 71, 80
1, 6384, Note_on_c, 0, 71, 0
1, 6420, Note_on_c, 0, 72, 80
1, 6444, Note_on_c, 0, 72, 0
1, 6480, Note_on_c, 1, 60, 0
1, 6480, Note_on_c, 1, 52, 80
1, 6540, Note_on_c, 0, 72, 80
1, 6564, Note_on_c, 0, 72, 0
1, 6600, Note_on_c, 0, 60, 80
1, 6624, Note_on_c, 0, 60, 0
1, 6660, Note_on_c, 0, 72, 80
1, 6684, Note_on_c, 0, 72, 0
1, 6720, Note_on_c, 1, 52, 0
1, 6720, Note_on_c, 1, 53, 80
1, 6780, Note_on_c, 0, 72, 80
1, 6804, Note_on_c, 0, 72, 0
1, 6840, Note_on_c, 0, 60, 80
1, 6864, Note_on_c, 0, 60, 0
1, 6900, Note_on_c, 0, 72, 80
1, 6960, Note_on_c, 0, 72, 0
1, 6960, Note_on_c, 0, 71, 80
1, 6960, Note_on_c, 1, 53, 0
1, 6960, Note_on_c, 1, 55, 80
1, 7000, Note_on_c, 0, 71, 0
1, 7000, Note_on_c, 0, 69, 80
1, 7040, Note_on_c, 0, 69, 0
1, 7040, Note_on_c, 0, 67, 80
1, 7080, Note_on_c, 0, 67, 0
1, 7080, Note_on_c, 0, 65, 80
1, 7120, Note_on_c, 0, 65, 0
1, 7120, Note_on_c, 0, 64, 80
1, 7160, Note_on_c, 0, 64, 0
1, 7160, Note_on_c, 0, 62, 80
1, 7200, Note_on_c, 0, 62, 0
1, 7200, Note_on_c, 0, 64, 80
1, 7200, Note_on_c, 1, 55, 0
1, 7200, Note_on_c, 1, 48, 80
1, 7260, Note_on_c, 0, 64, 0
1, 7260, Note_on_c, 0, 60, 80
1, 7284, Note_on_c, 0, 60, 0
1, 7320, Note_on_c, 0, 67, 80
1, 7344, Note_on_c, 0, 67, 0
1, 7380, Note_on_c, 0, 64, 80
1, 7404, Note_on_c, 0, 64, 0
1, 7440, Note_on_c, 0, 72, 80
1, 7440, Note_on_c, 1, 48, 0
1, 7464, Note_on_c, 0, 72, 0
1, 7500, Note_on_c, 0, 67, 80
1, 7524, Note_on_c, 0, 67, 0
1, 7560, Note_on_c, 0, 76, 80
1, 7584, Note_on_c, 0, 76, 0
1, 7620, Note_on_c, 0, 72, 80
1, 7644, Note_on_c, 0, 72, 0
1, 7680, Note_on_c, 0, 79, 80
1, 7740, Note_on_c, 1, 48, 80
1, 7764, Note_on_c, 1, 48, 0
1, 7800, Note_on_c, 1, 36, 80
1, 7860, Note_on_c, 1, 36, 0
1, 7860, Note_on_c, 1, 48, 80
1, 7884, Note_on_c, 1, 48, 0
1, 7920, Note_on_c, 0, 79, 0
1, 7920, Note_on_c, 0, 70, 80
1, 7920, Note_on_c, 1, 38, 80
1, 7944, Note_on_c, 1, 38, 0
1, 7950, Note_on_c, 0, 70, 0
1, 7950, Note_on_c, 0, 72, 80
1, 7980, Note_on_c, 0, 72, 0
1, 7980, Note_on_c, 0, 70, 80
1, 7980, Note_on_c, 1, 48, 80
1, 8004, Note_on_c, 1, 48, 0
1, 8010, Note_on_c, 0, 70, 0
1, 8010, Note_on_c, 0, 72, 80
1, 8040, Note_on_c, 0, 72, 0
1, 8040, Note_on_c, 0, 70, 80
1, 8040, Note_on_c, 1, 40, 80
1, 8060, Note_on_c, 0, 70, 0
1, 8060, Note_on_c, 0, 72, 80
1, 8064, Note_on_c, 1, 40, 0
1, 8080, Note_on_c, 0, 72, 0
1, 8080, Note_on_c, 0, 70, 80
1, 8100, Note_on_c, 0, 70, 0
1, 8100, Note_on_c, 0, 69, 80
1, 8100, Note_on_c, 1, 48, 80
1, 8124, Note_on_c, 1, 48, 0
1, 8130, Note_on_c, 0, 69, 0
1, 8130, Note_on_c, 0, 67, 80
1, 8160, Note_on_c, 0, 67, 0
1, 8160, Note_on_c, 0, 65, 80
1, 8160, Note_on_c, 0, 69, 80
1, 8160, Note_on_c, 1, 41, 80
1, 8220, Note_on_c, 0, 69, 0
1, 8220, Note_on_c, 0, 65, 0
1, 8220, Note_on_c, 0, 60, 80
1, 8244, Note_on_c, 0, 60, 0
1, 8280, Note_on_c, 0, 64, 80
1, 8280, Note_on_c, 0, 67, 80
1, 8280, Note_on_c, 1, 41, 0
1, 8304, Note_on_c, 0, 67, 0
1, 8304, Note_on_c, 0, 64, 0
1, 8340, Note_on_c, 0, 60, 80
1, 8364, Note_on_c, 0, 60, 0
1, 8400, Note_on_c, 0, 65, 80
1, 8400, Note_on_c, 0, 69, 80
1, 8460, Note_on_c, 0, 69, 0
1, 8460, Note_on_c, 0, 65, 0
1, 8460, Note_on_c, 0, 60, 80
1, 8484, Note_on_c, 0, 60, 0
1, 8520, Note_on_c, 0, 67, 80
1, 8520, Note_on_c, 0, 70, 80
1, 8544, Note_on_c, 0, 70, 0
1, 8544, Note_on_c, 0, 67, 0
1, 8580, Note_on_c, 0, 60, 80
1, 8604, Note_on_c, 0, 60, 0
1, 8640, Note_on_c, 0, 69, 80
1, 8640, Note_on_c, 0, 72, 80
1, 8700, Note_on_c, 1, 41, 80
1, 8724, Note_on_c, 1, 41, 0
1, 8760, Note_on_c, 0, 72, 0
1, 8760, Note_on_c, 0, 69, 0
1, 8760, Note_on_c, 1, 45, 80
1, 8784, Note_on_c, 1, 45, 0
1, 8820, Note_on_c, 0, 69, 80
1, 8820, Note_on_c, 0, 72, 80
1, 8820, Note_on_c, 1, 41, 80
1, 8880, Note_on_c, 0, 72, 0
1, 8880, Note_on_c, 0, 69, 0
1, 8880, Note_on_c, 0, 67, 80
1, 8880, Note_on_c, 0, 70, 80
1, 8880, Note_on_c, 1, 41, 0
1, 8880, Note_on_c, 1, 48, 80
1, 8904, Note_on_c, 1, 48, 0
1, 8940, Note_on_c, 1, 48, 80
1, 8964, Note_on_c, 1, 48, 0
1, 9000, Note_on_c, 0, 70, 0
1, 9000, Note_on_c, 0, 67, 0
1, 9000, Note_on_c, 1, 52, 80
1, 9024, Note_on_c, 1, 52, 0
1, 9060, Note_on_c, 0, 67, 80
1, 9060, Note_on_c, 0, 70, 80
1, 9060, Note_on_c, 1, 48, 80
1, 9120, Note_on_c, 0, 70, 0
1, 9120, Note_on_c, 0, 67, 0
1, 9120, Note_on_c, 0, 69, 80
1, 9120, Note_on_c, 0, 65, 80
1, 9120, Note_on_c, 1, 48, 0
1, 9120, Note_on_c, 1, 53, 80
1, 9180, Note_on_c, 0, 65, 0
1, 9180, Note_on_c, 0, 69, 0
1, 9180, Note_on_c, 0, 60, 80
1, 9204, Note_on_c, 0, 60, 0
1, 9240, Note_on_c, 0, 67, 80
1, 9240, Note_on_c, 0, 64, 80
1, 9240, Note_on_c, 1, 53, 0
1, 9264, Note_on_c, 0, 64, 0
1, 9264, Note_on_c, 0, 67, 0
1, 9300, Note_on_c, 0, 60, 80
1, 9324, Note_on_c, 0, 60, 0
1, 9360, Note_on_c, 0, 69, 80
1, 9360, Note_on_c, 0, 65, 80
1, 9420, Note_on_c, 0, 65, 0
1, 9420, Note_on_c, 0, 69, 0
1, 9420, Note_on_c, 0, 60, 80
1, 9444, Note_on_c, 0, 60, 0
1, 9480, Note_on_c, 0, 70, 80
1, 9480, Note_on_c, 0, 67, 80
1, 9504, Note_on_c, 0, 67, 0
1, 9504, Note_on_c, 0, 70, 0
1, 9540, Note_on_c, 0, 60, 80
1, 9564, Note_on_c, 0, 60, 0
1, 9600, Note_on_c, 0, 72, 80
1, 9600, Note_on_c, 0, 69, 80
1, 9660, Note_on_c, 1, 41, 80
1, 9684, Note_on_c, 1, 41, 0
1, 9720, Note_on_c, 0, 69, 0
1, 9720, Note_on_c, 0, 72, 0
1, 9720, Note_on_c, 1, 45, 80
1, 9744, Note_on_c, 1, 45, 0
1, 9780, Note_on_c, 0, 72, 80
1, 9780, Note_on_c, 0, 69, 80
1, 9780, Note_on_c, 1, 41, 80
1, 9840, Note_on_c, 0, 69, 0
1, 9840, Note_on_c, 0, 72, 0
1, 9840, Note_on_c, 0, 70, 80
1, 9840, Note_on_c, 0, 67, 80
1, 9840, Note_on_c, 1, 41, 0
1, 9840, Note_on_c, 1, 48, 80
1, 9864, Note_on_c, 1, 48, 0
1, 9900, Note_on_c, 1, 48, 80
1, 9924, Note_on_c, 1, 48, 0
1, 9960, Note_on_c, 0, 67, 0
1, 9960, Note_on_c, 0, 70, 0
1, 9960, Note_on_c, 1, 52, 80
1, 9984, Note_on_c, 1, 52, 0
1, 10020, Note_on_c, 0, 70, 80
1, 10020, Note_on_c, 0, 67, 80
1, 10020, Note_on_c, 1, 48, 80
1, 10080, Note_on_c, 0, 67, 0
1, 10080, Note_on_c, 0, 70, 0
1, 10080, Note_on_c, 0, 65, 80
1, 10080, Note_on_c, 0, 69, 80
1, 10080, Note_on_c, 1, 48, 0
1, 10080, Note_on_c, 1, 53, 80
1, 10104, Note_on_c, 1, 53, 0
1, 10140, Note_on_c, 1, 53, 80
1, 10164, Note_on_c, 1, 53, 0
1, 10200, Note_on_c, 1, 57, 80
1, 10224, Note_on_c, 1, 57, 0
1, 10260, Note_on_c, 0, 69, 0
1, 10260, Note_on_c, 0, 65, 0
1, 10260, Note_on_c, 0, 77, 80
1, 10260, Note_on_c, 1, 53, 80
1, 10320, Note_on_c, 0, 77, 0
1, 10320, Note_on_c, 0, 74, 80
1, 10320, Note_on_c, 1, 53, 0
1, 10320, Note_on_c, 1, 58, 80
1, 10360, Note_on_c, 0, 74, 0
1, 10360, Note_on_c, 0, 76, 80
1, 10400, Note_on_c, 0, 76, 0
1, 10400, Note_on_c, 0, 77, 80
1, 10440, Note_on_c, 0, 77, 0
1, 10440, Note_on_c, 0, 79, 80
1, 10480, Note_on_c, 0, 79, 0
1, 10480, Note_on_c, 0, 81, 80
1, 10520, Note_on_c, 0, 81, 0
1, 10520, Note_on_c, 0, 82, 80
1, 10560, Note_on_c, 0, 82, 0
1, 10560, Note_on_c, 0, 72, 80
1, 10680, Note_on_c, 1, 58, 0
1, 10680, Note_on_c, 1, 57, 80
1, 10728, Note_on_c, 1, 57, 0
1, 10740, Note_on_c, 0, 72, 0
1, 10740, Note_on_c, 0, 77, 80
1, 10800, Note_on_c, 0, 77, 0
1, 10800, Note_on_c, 0, 79, 80
1, 10800, Note_on_c, 1, 58, 80
1, 10920, Note_on_c, 0, 79, 0
1, 10920, Note_on_c, 0, 81, 80
1, 10920, Note_on_c, 1, 58, 0
1, 10920, Note_on_c, 1, 60, 80
1, 10950, Note_on_c, 0, 81, 0
1, 10950, Note_on_c, 0, 79, 80
1, 10968, Note_on_c, 1, 60, 0
1, 10980, Note_on_c, 0, 79, 0
1, 10980, Note_on_c, 0, 77, 80
1, 11010, Note_on_c, 0, 77, 0
1, 11010, Note_on_c, 0, 79, 80
1, 11040, Note_on_c, 0, 79, 0
1, 11040, Note_on_c, 0, 77, 80
1, 11040, Note_on_c, 1, 62, 80
1, 11088, Note_on_c, 1, 62, 0
1, 11124, Note_on_c, 0, 77, 0
1, 11160, Note_on_c, 1, 57, 80
1, 11220, Note_on_c, 0, 77, 80
1, 11280, Note_on_c, 0, 77, 0
1, 11280, Note_on_c, 0, 74, 80
1, 11280, Note_on_c, 1, 57, 0
1, 11280, Note_on_c, 1, 58, 80
1, 11320, Note_on_c, 0, 74, 0
1, 11320, Note_on_c, 0, 77, 80
1, 11360, Note_on_c, 0, 77, 0
1, 11360, Note_on_c, 0, 76, 80
1, 11400, Note_on_c, 0, 76, 0
1, 11400, Note_on_c, 0, 74, 80
1, 11440, Note_on_c, 0, 74, 0
1, 11440, Note_on_c, 0, 72, 80
1, 11480, Note_on_c, 0, 72, 0
1, 11480, Note_on_c, 0, 70, 80
1, 11520, Note_on_c, 0, 70, 0
1, 11520, Note_on_c, 0, 69, 80
1, 11520, Note_on_c, 1, 58, 0
1, 11520, Note_on_c, 1, 60, 80
1, 11560, Note_on_c, 0, 69, 0
1, 11560, Note_on_c, 0, 72, 80
1, 11600, Note_on_c, 0, 72, 0
1, 11600, Note_on_c, 0, 70, 80
1, 11640, Note_on_c, 0, 70, 0
1, 11640, Note_on_c, 0, 69, 80
1, 11680, Note_on_c, 0, 69, 0
1, 11680, Note_on_c, 0, 67, 80
1, 11720, Note_on_c, 0, 67, 0
1, 11720, Note_on_c, 0, 65, 80
1, 11760, Note_on_c, 0, 65, 0
1, 11760, Note_on_c, 0, 60, 80
1, 11760, Note_on_c, 1, 60, 0
1, 11808, Note_on_c, 0, 60, 0
1, 11880, Note_on_c, 0, 55, 80
1, 11880, Note_on_c, 0, 60, 80
1, 11880, Note_on_c, 0, 64, 80
1, 11880, Note_on_c, 1, 48, 80
1, 11964, Note_on_c, 0, 64, 0
1, 11964, Note_on_c, 0, 60, 0
1, 11964, Note_on_c, 0, 55, 0
1, 11964, Note_on_c, 1, 48, 0
1, 12000, Note_on_c, 0, 60, 80
1, 12000, Note_on_c, 0, 57, 80
1, 12000, Note_on_c, 0, 65, 80
1, 12000, Note_on_c, 1, 41, 80
1, 12040, Note_on_c, 1, 41, 0
1, 12040, Note_on_c, 1, 45, 80
1, 12056, Note_on_c, 1, 45, 0
1, 12080, Note_on_c, 1, 46, 80
1, 12096, Note_on_c, 1, 46, 0
1, 12120, Note_on_c, 1, 48, 80
1, 12136, Note_on_c, 1, 48, 0
1, 12160, Note_on_c, 1, 50, 80
1, 12176, Note_on_c, 1, 50, 0
1, 12200, Note_on_c, 1, 52, 80
1, 12216, Note_on_c, 1, 52, 0
1, 12240, Note_on_c, 0, 65, 0
1, 12240, Note_on_c, 0, 57, 0
1, 12240, Note_on_c, 0, 60, 0
1, 12240, Note_on_c, 1, 53, 80
1, 12480, Note_on_c, 0, 65, 80
1, 12480, Note_on_c, 1, 53, 0
1, 12540, Note_on_c, 1, 53, 80
1, 12600, Note_on_c, 0, 65, 0
1, 12600, Note_on_c, 1, 53, 0
1, 12600, Note_on_c, 1, 57, 80
1, 12624, Note_on_c, 1, 57, 0
1, 12660, Note_on_c, 1, 53, 80
1, 12684, Note_on_c, 1, 53, 0
1, 12720, Note_on_c, 0, 72, 80
1, 12720, Note_on_c, 1, 52, 80
1, 12780, Note_on_c, 1, 52, 0
1, 12780, Note_on_c, 1, 55, 80
1, 12804, Note_on_c, 1, 55, 0
1, 12840, Note_on_c, 0, 72, 0
1, 12840, Note_on_c, 1, 48, 80
1, 12864, Note_on_c, 1, 48, 0
1, 12900, Note_on_c, 1, 52, 80
1, 12924, Note_on_c, 1, 52, 0
1, 12930, Note_on_c, 0, 67, 80
1, 12960, Note_on_c, 0, 67, 0
1, 12960, Note_on_c, 0, 65, 80
1, 12960, Note_on_c, 1, 50, 80
1, 12984, Note_on_c, 1, 50, 0
1, 12990, Note_on_c, 0, 65, 0
1, 12990, Note_on_c, 0, 64, 80
1, 13020, Note_on_c, 0, 64, 0
1, 13020, Note_on_c, 0, 65, 80
1, 13020, Note_on_c, 1, 62, 80
1, 13044, Note_on_c, 1, 62, 0
1, 13080, Note_on_c, 1, 46, 80
1, 13104, Note_on_c, 1, 46, 0
1, 13140, Note_on_c, 1, 58, 80
1, 13164, Note_on_c, 1, 58, 0
1, 13200, Note_on_c, 0, 65, 0
1, 13200, Note_on_c, 0, 77, 80
1, 13200, Note_on_c, 1, 45, 80
1, 13224, Note_on_c, 1, 45, 0
1, 13260, Note_on_c, 1, 57, 80
1, 13284, Note_on_c, 1, 57, 0
1, 13320, Note_on_c, 0, 77, 0
1, 13320, Note_on_c, 1, 41, 80
1, 13344, Note_on_c, 1, 41, 0
1, 13380, Note_on_c, 1, 53, 80
1, 13404, Note_on_c, 1, 53, 0
1, 13440, Note_on_c, 1, 46, 80
1, 13500, Note_on_c, 0, 74, 80
1, 13500, Note_on_c, 1, 46, 0
1, 13500, Note_on_c, 1, 58, 80
1, 13524, Note_on_c, 0, 74, 0
1, 13524, Note_on_c, 1, 58, 0
1, 13560, Note_on_c, 0, 73, 80
1, 13560, Note_on_c, 1, 57, 80
1, 13584, Note_on_c, 0, 73, 0
1, 13584, Note_on_c, 1, 57, 0
1, 13620, Note_on_c, 0, 74, 80
1, 13620, Note_on_c, 1, 58, 80
1, 13644, Note_on_c, 0, 74, 0
1, 13644, Note_on_c, 1, 58, 0
1, 13680, Note_on_c, 0, 82, 80
1, 13680, Note_on_c, 1, 55, 80
1, 13740, Note_on_c, 0, 82, 0
1, 13740, Note_on_c, 0, 79, 80
1, 13740, Note_on_c, 1, 55, 0
1, 13740, Note_on_c, 1, 58, 80
1, 13764, Note_on_c, 0, 79, 0
1, 13764, Note_on_c, 1, 58, 0
1, 13800, Note_on_c, 0, 78, 80
1, 13800, Note_on_c, 1, 57, 80
1, 13824, Note_on_c, 0, 78, 0
1, 13824, Note_on_c, 1, 57, 0
1, 13860, Note_on_c, 0, 79, 80
1, 13860, Note_on_c, 1, 58, 80
1, 13884, Note_on_c, 0, 79, 0
1, 13884, Note_on_c, 1, 58, 0
1, 13920, Note_on_c, 0, 77, 80
1, 13920, Note_on_c, 1, 48, 80
1, 13980, Note_on_c, 1, 48, 0
1, 13980, Note_on_c, 1, 55, 80
1, 14004, Note_on_c, 1, 55, 0
1, 14040, Note_on_c, 0, 77, 0
1, 14040, Note_on_c, 0, 76, 80
1, 14040, Note_on_c, 1, 60, 80
1, 14060, Note_on_c, 0, 76, 0
1, 14060, Note_on_c, 0, 77, 80
1, 14064, Note_on_c, 1, 60, 0
1, 14080, Note_on_c, 0, 77, 0
1, 14080, Note_on_c, 0, 76, 80
1, 14100, Note_on_c, 0, 76, 0
1, 14100, Note_on_c, 0, 74, 80
1, 14100, Note_on_c, 1, 58, 80
1, 14124, Note_on_c, 1, 58, 0
1, 14130, Note_on_c, 0, 74, 0
1, 14130, Note_on_c, 0, 76, 80
1, 14160, Note_on_c, 0, 76, 0
1, 14160, Note_on_c, 0, 77, 80
1, 14160, Note_on_c, 1, 57, 80
1, 14184, Note_on_c, 1, 57, 0
1, 14220, Note_on_c, 1, 60, 80
1, 14244, Note_on_c, 1, 60, 0
1, 14280, Note_on_c, 0, 77, 0
1, 14280, Note_on_c, 1, 57, 80
1, 14304, Note_on_c, 1, 57, 0
1, 14340, Note_on_c, 1, 53, 80
1, 14364, Note_on_c, 1, 53, 0
1, 14400, Note_on_c, 0, 72, 80
1, 14400, Note_on_c, 0, 79, 80
1, 14400, Note_on_c, 1, 52, 80
1, 14460, Note_on_c, 0, 79, 0
1, 14460, Note_on_c, 0, 84, 80
1, 14484, Note_on_c, 0, 84, 0
1, 14520, Note_on_c, 0, 79, 80
1, 14520, Note_on_c, 1, 52, 0
1, 14544, Note_on_c, 0, 79, 0
1, 14580, Note_on_c, 0, 82, 80
1, 14580, Note_on_c, 1, 64, 80
1, 14604, Note_on_c, 0, 82, 0
1, 14640, Note_on_c, 0, 82, 80
1, 14640, Note_on_c, 1, 64, 0
1, 14640, Note_on_c, 1, 65, 80
1, 14664, Note_on_c, 1, 65, 0
1, 14700, Note_on_c, 1, 60, 80
1, 14724, Note_on_c, 1, 60, 0
1, 14760, Note_on_c, 0, 82, 0
1, 14760, Note_on_c, 0, 81, 80
1, 14760, Note_on_c, 1, 57, 80
1, 14784, Note_on_c, 1, 57, 0
1, 14820, Note_on_c, 1, 53, 80
1, 14844, Note_on_c, 1, 53, 0
1, 14880, Note_on_c, 0, 81, 0
1, 14880, Note_on_c, 0, 79, 80
1, 14880, Note_on_c, 1, 52, 80
1, 14940, Note_on_c, 0, 79, 0
1, 14940, Note_on_c, 0, 84, 80
1, 14964, Note_on_c, 0, 84, 0
1, 15000, Note_on_c, 0, 79, 80
1, 15024, Note_on_c, 0, 79, 0
1, 15060, Note_on_c, 0, 82, 80
1, 15060, Note_on_c, 1, 52, 0
1, 15060, Note_on_c, 1, 52, 80
1, 15084, Note_on_c, 0, 82, 0
1, 15120, Note_on_c, 0, 72, 0
1, 15120, Note_on_c, 0, 82, 80
1, 15120, Note_on_c, 1, 52, 0
1, 15120, Note_on_c, 1, 53, 80
1, 15144, Note_on_c, 1, 53, 0
1, 15180, Note_on_c, 1, 48, 80
1, 15204, Note_on_c, 1, 48, 0
1, 15240, Note_on_c, 0, 82, 0
1, 15240, Note_on_c, 0, 81, 80
1, 15240, Note_on_c, 1, 45, 80
1, 15264, Note_on_c, 1, 45, 0
1, 15300, Note_on_c, 1, 41, 80
1, 15324, Note_on_c, 1, 41, 0
1, 15360, Note_on_c, 0, 81, 0
1, 15360, Note_on_c, 0, 69, 80
1, 15360, Note_on_c, 0, 76, 80
1, 15360, Note_on_c, 1, 49, 80
1, 15420, Note_on_c, 0, 76, 0
1, 15420, Note_on_c, 0, 81, 80
1, 15444, Note_on_c, 0, 81, 0
1, 15480, Note_on_c, 0, 76, 80
1, 15480, Note_on_c, 1, 49, 0
1, 15504, Note_on_c, 0, 76, 0
1, 15540, Note_on_c, 0, 79, 80
1, 15540, Note_on_c, 1, 61, 80
1, 15564, Note_on_c, 0, 79, 0
1, 15600, Note_on_c, 0, 79, 80
1, 15600, Note_on_c, 1, 61, 0
1, 15600, Note_on_c, 1, 62, 80
1, 15624, Note_on_c, 1, 62, 0
1, 15660, Note_on_c, 1, 57, 80
1, 15684, Note_on_c, 1, 57, 0
1, 15720, Note_on_c, 0, 79, 0
1, 15720, Note_on_c, 0, 77, 80
1, 15720, Note_on_c, 1, 53, 80
1, 15744, Note_on_c, 1, 53, 0
1, 15780, Note_on_c, 1, 50, 80
1, 15804, Note_on_c, 1, 50, 0
1, 15840, Note_on_c, 0, 77, 0
1, 15840, Note_on_c, 0, 76, 80
1, 15840, Note_on_c, 1, 49, 80
1, 15900, Note_on_c, 0, 76, 0
1, 15900, Note_on_c, 0, 81, 80
1, 15924, Note_on_c, 0, 81, 0
1, 15960, Note_on_c, 0, 76, 80
1, 15984, Note_on_c, 0, 76, 0
1, 16020, Note_on_c, 0, 79, 80
1, 16020, Note_on_c, 1, 49, 0
1, 16020, Note_on_c, 1, 49, 80
1, 16044, Note_on_c, 0, 79, 0
1, 16080, Note_on_c, 0, 69, 0
1, 16080, Note_on_c, 0, 79, 80
1, 16080, Note_on_c, 1, 49, 0
1, 16080, Note_on_c, 1, 50, 80
1, 16104, Note_on_c, 1, 50, 0
1, 16140, Note_on_c, 1, 45, 80
1, 16164, Note_on_c, 1, 45, 0
1, 16200, Note_on_c, 0, 79, 0
1, 16200, Note_on_c, 0, 77, 80
1, 16200, Note_on_c, 1, 41, 80
1, 16224, Note_on_c, 1, 41, 0
1, 16260, Note_on_c, 1, 38, 80
1, 16284, Note_on_c, 1, 38, 0
1, 16320, Note_on_c, 0, 77, 0
1, 16320, Note_on_c, 1, 53, 80
1, 16380, Note_on_c, 0, 81, 80
1, 16440, Note_on_c, 0, 81, 0
1, 16440, Note_on_c, 0, 82, 80
1, 16464, Note_on_c, 0, 82, 0
1, 16500, Note_on_c, 0, 81, 80
1, 16524, Note_on_c, 0, 81, 0
1, 16560, Note_on_c, 0, 79, 80
1, 16560, Note_on_c, 1, 53, 0
1, 16560, Note_on_c, 1, 55, 80
1, 16584, Note_on_c, 0, 79, 0
1, 16608, Note_on_c, 1, 55, 0
1, 16620, Note_on_c, 0, 77, 80
1, 16644, Note_on_c, 0, 77, 0
1, 16680, Note_on_c, 0, 76, 80
1, 16680, Note_on_c, 1, 56, 80
1, 16704, Note_on_c, 0, 76, 0
1, 16728, Note_on_c, 1, 56, 0
1, 16740, Note_on_c, 0, 74, 80
1, 16764, Note_on_c, 0, 74, 0
1, 16800, Note_on_c, 0, 73, 80
1, 16800, Note_on_c, 1, 57, 80
1, 16860, Note_on_c, 0, 73, 0
1, 16860, Note_on_c, 0, 76, 80
1, 16920, Note_on_c, 0, 76, 0
1, 16920, Note_on_c, 0, 69, 80
1, 16980, Note_on_c, 1, 57, 0
1, 16980, Note_on_c, 1, 55, 80
1, 17040, Note_on_c, 0, 69, 0
1, 17040, Note_on_c, 1, 55, 0
1, 17040, Note_on_c, 1, 53, 80
1, 17100, Note_on_c, 0, 74, 80
1, 17124, Note_on_c, 0, 74, 0
1, 17160, Note_on_c, 0, 62, 80
1, 17184, Note_on_c, 0, 62, 0
1, 17220, Note_on_c, 0, 74, 80
1, 17244, Note_on_c, 0, 74, 0
1, 17280, Note_on_c, 1, 53, 0
1, 17280, Note_on_c, 1, 55, 80
1, 17340, Note_on_c, 0, 74, 80
1, 17364, Note_on_c, 0, 74, 0
1, 17400, Note_on_c, 0, 63, 80
1, 17424, Note_on_c, 0, 63, 0
1, 17460, Note_on_c, 0, 74, 80
1, 17484, Note_on_c, 0, 74, 0
1, 17520, Note_on_c, 1, 55, 0
1, 17520, Note_on_c, 1, 57, 80
1, 17580, Note_on_c, 0, 72, 80
1, 17604, Note_on_c, 0, 72, 0
1, 17640, Note_on_c, 0, 63, 80
1, 17664, Note_on_c, 0, 63, 0
1, 17700, Note_on_c, 0, 72, 80
1, 17724, Note_on_c, 0, 72, 0
1, 17760, Note_on_c, 1, 57, 0
1, 17760, Note_on_c, 1, 58, 80
1, 17820, Note_on_c, 0, 72, 80
1, 17844, Note_on_c, 0, 72, 0
1, 17880, Note_on_c, 0, 62, 80
1, 17904, Note_on_c, 0, 62, 0
1, 17940, Note_on_c, 0, 72, 80
1, 17964, Note_on_c, 0, 72, 0
1, 18000, Note_on_c, 1, 58, 0
1, 18000, Note_on_c, 1, 50, 80
1, 18060, Note_on_c, 0, 70, 80
1, 18084, Note_on_c, 0, 70, 0
1, 18120, Note_on_c, 0, 62, 80
1, 18144, Note_on_c, 0, 62, 0
1, 18180, Note_on_c, 0, 70, 80
1, 18204, Note_on_c, 0, 70, 0
1, 18240, Note_on_c, 1, 50, 0
1, 18240, Note_on_c, 1, 51, 80
1, 18300, Note_on_c, 0, 70, 80
1, 18324, Note_on_c, 0, 70, 0
1, 18360, Note_on_c, 0, 60, 80
1, 18384, Note_on_c, 0, 60, 0
1, 18420, Note_on_c, 0, 70, 80
1, 18480, Note_on_c, 0, 70, 0
1, 18480, Note_on_c, 0, 69, 80
1, 18480, Note_on_c, 1, 51, 0
1, 18480, Note_on_c, 1, 53, 80
1, 18520, Note_on_c, 0, 69, 0
1, 18520, Note_on_c, 0, 67, 80
1, 18560, Note_on_c, 0, 67, 0
1, 18560, Note_on_c, 0, 65, 80
1, 18600, Note_on_c, 0, 65, 0
1, 18600, Note_on_c, 0, 63, 80
1, 18640, Note_on_c, 0, 63, 0
1, 18640, Note_on_c, 0, 62, 80
1, 18680, Note_on_c, 0, 62, 0
1, 18680, Note_on_c, 0, 60, 80
1, 18720, Note_on_c, 0, 60, 0
1, 18720, Note_on_c, 0, 62, 80
1, 18720, Note_on_c, 1, 53, 0
1, 18720, Note_on_c, 1, 46, 80
1, 18780, Note_on_c, 0, 62, 0
1, 18780, Note_on_c, 0, 65, 80
1, 18804, Note_on_c, 0, 65, 0
1, 18840, Note_on_c, 0, 57, 80
1, 18840, Note_on_c, 1, 46, 0
1, 18864, Note_on_c, 0, 57, 0
1, 18900, Note_on_c, 0, 58, 80
1, 18924, Note_on_c, 0, 58, 0
1, 18960, Note_on_c, 1, 58, 80
1, 19020, Note_on_c, 0, 79, 80
1, 19044, Note_on_c, 0, 79, 0
1, 19080, Note_on_c, 0, 67, 80
1, 19104, Note_on_c, 0, 67, 0
1, 19140, Note_on_c, 0, 79, 80
1, 19164, Note_on_c, 0, 79, 0
1, 19200, Note_on_c, 1, 58, 0
1, 19200, Note_on_c, 1, 60, 80
1, 19260, Note_on_c, 0, 79, 80
1, 19284, Note_on_c, 0, 79, 0
1, 19320, Note_on_c, 0, 68, 80
1, 19344, Note_on_c, 0, 68, 0
1, 19380, Note_on_c, 0, 79, 80
1, 19404, Note_on_c, 0, 79, 0
1, 19440, Note_on_c, 1, 60, 0
1, 19440, Note_on_c, 1, 62, 80
1, 19500, Note_on_c, 0, 77, 80
1, 19524, Note_on_c, 0, 77, 0
1, 19560, Note_on_c, 0, 68, 80
1, 19584, Note_on_c, 0, 68, 0
1, 19620, Note_on_c, 0, 77, 80
1, 19644, Note_on_c, 0, 77, 0
1, 19680, Note_on_c, 1, 62, 0
1, 19680, Note_on_c, 1, 63, 80
1, 19740, Note_on_c, 0, 77, 80
1, 19764, Note_on_c, 0, 77, 0
1, 19800, Note_on_c, 0, 67, 80
1, 19824, Note_on_c, 0, 67, 0
1, 19860, Note_on_c, 0, 77, 80
1, 19884, Note_on_c, 0, 77, 0
1, 19920, Note_on_c, 1, 63, 0
1, 19920, Note_on_c, 1, 55, 80
1, 19980, Note_on_c, 0, 75, 80
1, 20004, Note_on_c, 0, 75, 0
1, 20040, Note_on_c, 0, 67, 80
1, 20064, Note_on_c, 0, 67, 0
1, 20100, Note_on_c, 0, 75, 80
1, 20124, Note_on_c, 0, 75, 0
1, 20160, Note_on_c, 1, 55, 0
1, 20160, Note_on_c, 1, 56, 80
1, 20220, Note_on_c, 0, 75, 80
1, 20244, Note_on_c, 0, 75, 0
1, 20280, Note_on_c, 0, 65, 80
1, 20304, Note_on_c, 0, 65, 0
1, 20340, Note_on_c, 0, 75, 80
1, 20400, Note_on_c, 0, 75, 0
1, 20400, Note_on_c, 0, 74, 80
1, 20400, Note_on_c, 1, 56, 0
1, 20400, Note_on_c, 1, 58, 80
1, 20440, Note_on_c, 0, 74, 0
1, 20440, Note_on_c, 0, 72, 80
1, 20480, Note_on_c, 0, 72, 0
1, 20480, Note_on_c, 0, 70, 80
1, 20520, Note_on_c, 0, 70, 0
1, 20520, Note_on_c, 0, 68, 80
1, 20560, Note_on_c, 0, 68, 0
1, 20560, Note_on_c, 0, 67, 80
1, 20600, Note_on_c, 0, 67, 0
1, 20600, Note_on_c, 0, 65, 80
1, 20640, Note_on_c, 0, 65, 0
1, 20640, Note_on_c, 0, 67, 80
1, 20640, Note_on_c, 1, 58, 0
1, 20640, Note_on_c, 1, 51, 80
1, 20700, Note_on_c, 0, 67, 0
1, 20700, Note_on_c, 0, 63, 80
1, 20724, Note_on_c, 0, 63, 0
1, 20760, Note_on_c, 0, 70, 80
1, 20784, Note_on_c, 0, 70, 0
1, 20820, Note_on_c, 0, 67, 80
1, 20844, Note_on_c, 0, 67, 0
1, 20880, Note_on_c, 0, 75, 80
1, 20880, Note_on_c, 1, 51, 0
1, 20904, Note_on_c, 0, 75, 0
1, 20940, Note_on_c, 0, 70, 80
1, 20964, Note_on_c, 0, 70, 0
1, 21000, Note_on_c, 0, 79, 80
1, 21024, Note_on_c, 0, 79, 0
1, 21060, Note_on_c, 0, 71, 80
1, 21084, Note_on_c, 0, 71, 0
1, 21120, Note_on_c, 0, 72, 80
1, 21180, Note_on_c, 0, 72, 0
1, 21180, Note_on_c, 0, 75, 80
1, 21204, Note_on_c, 0, 75, 0
1, 21240, Note_on_c, 0, 79, 80
1, 21240, Note_on_c, 1, 63, 80
1, 21264, Note_on_c, 0, 79, 0
1, 21300, Note_on_c, 0, 83, 80
1, 21324, Note_on_c, 0, 83, 0
1, 21360, Note_on_c, 0, 84, 80
1, 21360, Note_on_c, 1, 63, 0
1, 21360, Note_on_c, 1, 63, 80
1, 21408, Note_on_c, 1, 63, 0
1, 21480, Note_on_c, 0, 84, 0
1, 21480, Note_on_c, 1, 63, 80
1, 21540, Note_on_c, 0, 67, 80
1, 21600, Note_on_c, 0, 67, 0
1, 21600, Note_on_c, 0, 65, 80
1, 21600, Note_on_c, 1, 63, 0
1, 21600, Note_on_c, 1, 62, 80
1, 21660, Note_on_c, 0, 65, 0
1, 21660, Note_on_c, 0, 62, 80
1, 21684, Note_on_c, 0, 62, 0
1, 21720, Note_on_c, 0, 70, 80
1, 21720, Note_on_c, 1, 62, 0
1, 21744, Note_on_c, 0, 70, 0
1, 21780, Note_on_c, 0, 65, 80
1, 21804, Note_on_c, 0, 65, 0
1, 21840, Note_on_c, 0, 74, 80
1, 21900, Note_on_c, 0, 74, 0
1, 21900, Note_on_c, 0, 70, 80
1, 21960, Note_on_c, 0, 70, 0
1, 21960, Note_on_c, 0, 77, 80
1, 21984, Note_on_c, 0, 77, 0
1, 22020, Note_on_c, 0, 69, 80
1, 22080, Note_on_c, 0, 69, 0
1, 22080, Note_on_c, 0, 70, 80
1, 22104, Note_on_c, 0, 70, 0
1, 22140, Note_on_c, 0, 74, 80
1, 22164, Note_on_c, 0, 74, 0
1, 22200, Note_on_c, 0, 77, 80
1, 22200, Note_on_c, 1, 62, 80
1, 22224, Note_on_c, 0, 77, 0
1, 22260, Note_on_c, 0, 81, 80
1, 22284, Note_on_c, 0, 81, 0
1, 22320, Note_on_c, 0, 82, 80
1, 22320, Note_on_c, 1, 62, 0
1, 22320, Note_on_c, 1, 62, 80
1, 22368, Note_on_c, 1, 62, 0
1, 22440, Note_on_c, 0, 82, 0
1, 22440, Note_on_c, 1, 62, 80
1, 22500, Note_on_c, 0, 77, 80
1, 22560, Note_on_c, 0, 77, 0
1, 22560, Note_on_c, 0, 77, 80
1, 22560, Note_on_c, 1, 62, 0
1, 22560, Note_on_c, 1, 60, 80
1, 22580, Note_on_c, 0, 77, 0
1, 22580, Note_on_c, 0, 75, 80
1, 22600, Note_on_c, 0, 75, 0
1, 22600, Note_on_c, 0, 74, 80
1, 22640, Note_on_c, 0, 74, 0
1, 22640, Note_on_c, 0, 75, 80
1, 22656, Note_on_c, 0, 75, 0
1, 22680, Note_on_c, 0, 72, 80
1, 22704, Note_on_c, 0, 72, 0
1, 22740, Note_on_c, 0, 75, 80
1, 22764, Note_on_c, 0, 75, 0
1, 22800, Note_on_c, 0, 65, 80
1, 22800, Note_on_c, 1, 60, 0
1, 22800, Note_on_c, 1, 57, 80
1, 22860, Note_on_c, 0, 65, 0
1, 22860, Note_on_c, 0, 75, 80
1, 22884, Note_on_c, 0, 75, 0
1, 22920, Note_on_c, 0, 84, 80
1, 22944, Note_on_c, 0, 84, 0
1, 22980, Note_on_c, 0, 75, 80
1, 23004, Note_on_c, 0, 75, 0
1, 23040, Note_on_c, 0, 75, 80
1, 23040, Note_on_c, 1, 57, 0
1, 23040, Note_on_c, 1, 58, 80
1, 23060, Note_on_c, 0, 75, 0
1, 23060, Note_on_c, 0, 74, 80
1, 23080, Note_on_c, 0, 74, 0
1, 23080, Note_on_c, 0, 72, 80
1, 23120, Note_on_c, 0, 72, 0
1, 23120, Note_on_c, 0, 74, 80
1, 23136, Note_on_c, 0, 74, 0
1, 23160, Note_on_c, 0, 70, 80
1, 23184, Note_on_c, 0, 70, 0
1, 23220, Note_on_c, 0, 74, 80
1, 23244, Note_on_c, 0, 74, 0
1, 23280, Note_on_c, 0, 65, 80
1, 23280, Note_on_c, 1, 58, 0
1, 23280, Note_on_c, 1, 46, 80
1, 23304, Note_on_c, 0, 65, 0
1, 23340, Note_on_c, 0, 74, 80
1, 23364, Note_on_c, 0, 74, 0
1, 23400, Note_on_c, 0, 82, 80
1, 23424, Note_on_c, 0, 82, 0
1, 23460, Note_on_c, 0, 74, 80
1, 23520, Note_on_c, 0, 74, 0
1, 23520, Note_on_c, 0, 74, 80
1, 23520, Note_on_c, 1, 46, 0
1, 23520, Note_on_c, 1, 51, 80
1, 23540, Note_on_c, 0, 74, 0
1, 23540, Note_on_c, 0, 72, 80
1, 23560, Note_on_c, 0, 72, 0
1, 23560, Note_on_c, 0, 71, 80
1, 23600, Note_on_c, 0, 71, 0
1, 23600, Note_on_c, 0, 72, 80
1, 23616, Note_on_c, 0, 72, 0
1, 23640, Note_on_c, 0, 67, 80
1, 23664, Note_on_c, 0, 67, 0
1, 23700, Note_on_c, 0, 72, 80
1, 23724, Note_on_c, 0, 72, 0
1, 23760, Note_on_c, 0, 72, 80
1, 23760, Note_on_c, 1, 51, 0
1, 23760, Note_on_c, 1, 52, 80
1, 23780, Note_on_c, 0, 72, 0
1, 23780, Note_on_c, 0, 70, 80
1, 23800, Note_on_c, 0, 70, 0
1, 23800, Note_on_c, 0, 69, 80
1, 23840, Note_on_c, 0, 69, 0
1, 23840, Note_on_c, 0, 70, 80
1, 23880, Note_on_c, 0, 70, 0
1, 23880, Note_on_c, 0, 79, 80
1, 23904, Note_on_c, 0, 79, 0
1, 23940, Note_on_c, 0, 70, 80
1, 24000, Note_on_c, 0, 70, 0
1, 24000, Note_on_c, 0, 69, 80
1, 24000, Note_on_c, 1, 52, 0
1, 24000, Note_on_c, 1, 53, 80
1, 24024, Note_on_c, 0, 69, 0
1, 24060, Note_on_c, 0, 72, 80
1, 24084, Note_on_c, 0, 72, 0
1, 24120, Note_on_c, 0, 63, 80
1, 24144, Note_on_c, 0, 63, 0
1, 24180, Note_on_c, 0, 65, 80
1, 24204, Note_on_c, 0, 65, 0
1, 24240, Note_on_c, 1, 53, 0
1, 24240, Note_on_c, 1, 57, 80
1, 24300, Note_on_c, 0, 77, 80
1, 24324, Note_on_c, 0, 77, 0
1, 24360, Note_on_c, 0, 65, 80
1, 24384, Note_on_c, 0, 65, 0
1, 24420, Note_on_c, 0, 77, 80
1, 24444, Note_on_c, 0, 77, 0
1, 24480, Note_on_c, 1, 57, 0
1, 24480, Note_on_c, 1, 58, 80
1, 24540, Note_on_c, 0, 77, 80
1, 24564, Note_on_c, 0, 77, 0
1, 24600, Note_on_c, 0, 67, 80
1, 24624, Note_on_c, 0, 67, 0
1, 24660, Note_on_c, 0, 77, 80
1, 24720, Note_on_c, 0, 77, 0
1, 24720, Note_on_c, 0, 76, 80
1, 24720, Note_on_c, 1, 58, 0
1, 24720, Note_on_c, 1, 60, 80
1, 24760, Note_on_c, 0, 76, 0
1, 24760, Note_on_c, 0, 74, 80
1, 24800, Note_on_c, 0, 74, 0
1, 24800, Note_on_c, 0, 72, 80
1, 24840, Note_on_c, 0, 72, 0
1, 24840, Note_on_c, 0, 70, 80
1, 24880, Note_on_c, 0, 70, 0
1, 24880, Note_on_c, 0, 69, 80
1, 24920, Note_on_c, 0, 69, 0
1, 24920, Note_on_c, 0, 67, 80
1, 24960, Note_on_c, 0, 67, 0
1, 24960, Note_on_c, 0, 69, 80
1, 24960, Note_on_c, 1, 60, 0
1, 24960, Note_on_c, 1, 53, 80
1, 25020, Note_on_c, 0, 69, 0
1, 25020, Note_on_c, 0, 65, 80
1, 25044, Note_on_c, 0, 65, 0
1, 25080, Note_on_c, 0, 72, 80
1, 25104, Note_on_c, 0, 72, 0
1, 25140, Note_on_c, 0, 69, 80
1, 25164, Note_on_c, 0, 69, 0
1, 25200, Note_on_c, 0, 77, 80
1, 25200, Note_on_c, 1, 53, 0
1, 25224, Note_on_c, 0, 77, 0
1, 25260, Note_on_c, 0, 72, 80
1, 25284, Note_on_c, 0, 72, 0
1, 25320, Note_on_c, 0, 81, 80
1, 25344, Note_on_c, 0, 81, 0
1, 25380, Note_on_c, 0, 77, 80
1, 25440, Note_on_c, 0, 77, 0
1, 25440, Note_on_c, 0, 84, 80
1, 25500, Note_on_c, 1, 53, 80
1, 25560, Note_on_c, 1, 53, 0
1, 25560, Note_on_c, 1, 41, 80
1, 25584, Note_on_c, 1, 41, 0
1, 25620, Note_on_c, 1, 53, 80
1, 25644, Note_on_c, 1, 53, 0
1, 25680, Note_on_c, 0, 84, 0
1, 25680, Note_on_c, 0, 75, 80
1, 25680, Note_on_c, 1, 43, 80
1, 25704, Note_on_c, 1, 43, 0
1, 25710, Note_on_c, 0, 75, 0
1, 25710, Note_on_c, 0, 77, 80
1, 25740, Note_on_c, 0, 77, 0
1, 25740, Note_on_c, 0, 75, 80
1, 25740, Note_on_c, 1, 53, 80
1, 25764, Note_on_c, 1, 53, 0
1, 25770, Note_on_c, 0, 75, 0
1, 25770, Note_on_c, 0, 77, 80
1, 25800, Note_on_c, 0, 77, 0
1, 25800, Note_on_c, 0, 75, 80
1, 25800, Note_on_c, 1, 45, 80
1, 25820, Note_on_c, 0, 75, 0
1, 25820, Note_on_c, 0, 77, 80
1, 25824, Note_on_c, 1, 45, 0
1, 25840, Note_on_c, 0, 77, 0
1, 25840, Note_on_c, 0, 75, 80
1, 25860, Note_on_c, 0, 75, 0
1, 25860, Note_on_c, 0, 74, 80
1, 25860, Note_on_c, 1, 53, 80
1, 25884, Note_on_c, 1, 53, 0
1, 25890, Note_on_c, 0, 74, 0
1, 25890, Note_on_c, 0, 72, 80
1, 25920, Note_on_c, 0, 72, 0
1, 25920, Note_on_c, 0, 70, 80
1, 25920, Note_on_c, 0, 74, 80
1, 25920, Note_on_c, 1, 46, 80
1, 25980, Note_on_c, 0, 74, 0
1, 25980, Note_on_c, 0, 70, 0
1, 25980, Note_on_c, 0, 65, 80
1, 26004, Note_on_c, 0, 65, 0
1, 26040, Note_on_c, 0, 69, 80
1, 26040, Note_on_c, 0, 72, 80
1, 26040, Note_on_c, 1, 46, 0
1, 26064, Note_on_c, 0, 72, 0
1, 26064, Note_on_c, 0, 69, 0
1, 26100, Note_on_c, 0, 65, 80
1, 26124, Note_on_c, 0, 65, 0
1, 26160, Note_on_c, 0, 70, 80
1, 26160, Note_on_c, 0, 74, 80
1, 26220, Note_on_c, 0, 74, 0
1, 26220, Note_on_c, 0, 70, 0
1, 26220, Note_on_c, 0, 65, 80
1, 26244, Note_on_c, 0, 65, 0
1, 26280, Note_on_c, 0, 72, 80
1, 26280, Note_on_c, 0, 75, 80
1, 26304, Note_on_c, 0, 75, 0
1, 26304, Note_on_c, 0, 72, 0
1, 26340, Note_on_c, 0, 65, 80
1, 26364, Note_on_c, 0, 65, 0
1, 26400, Note_on_c, 0, 74, 80
1, 26400, Note_on_c, 0, 77, 80
1, 26460, Note_on_c, 1, 46, 80
1, 26484, Note_on_c, 1, 46, 0
1, 26520, Note_on_c, 0, 77, 0
1, 26520, Note_on_c, 0, 74, 0
1, 26520, Note_on_c, 1, 50, 80
1, 26544, Note_on_c, 1, 50, 0
1, 26580, Note_on_c, 0, 74, 80
1, 26580, Note_on_c, 0, 77, 80
1, 26580, Note_on_c, 1, 46, 80
1, 26640, Note_on_c, 0, 77, 0
1, 26640, Note_on_c, 0, 74, 0
1, 26640, Note_on_c, 0, 72, 80
1, 26640, Note_on_c, 0, 75, 80
1, 26640, Note_on_c, 1, 46, 0
1, 26640, Note_on_c, 1, 53, 80
1, 26664, Note_on_c, 1, 53, 0
1, 26700, Note_on_c, 1, 53, 80
1, 26724, Note_on_c, 1, 53, 0
1, 26760, Note_on_c, 0, 75, 0
1, 26760, Note_on_c, 0, 72, 0
1, 26760, Note_on_c, 1, 57, 80
1, 26784, Note_on_c, 1, 57, 0
1, 26820, Note_on_c, 0, 72, 80
1, 26820, Note_on_c, 0, 75, 80
1, 26820, Note_on_c, 1, 53, 80
1, 26880, Note_on_c, 0, 75, 0
1, 26880, Note_on_c, 0, 72, 0
1, 26880, Note_on_c, 0, 74, 80
1, 26880, Note_on_c, 0, 70, 80
1, 26880, Note_on_c, 1, 53, 0
1, 26880, Note_on_c, 1, 58, 80
1, 26940, Note_on_c, 0, 70, 0
1, 26940, Note_on_c, 0, 74, 0
1, 26940, Note_on_c, 0, 65, 80
1, 26964, Note_on_c, 0, 65, 0
1, 27000, Note_on_c, 0, 72, 80
1, 27000, Note_on_c, 0, 69, 80
1, 27000, Note_on_c, 1, 58, 0
1, 27024, Note_on_c, 0, 69, 0
1, 27024, Note_on_c, 0, 72, 0
1, 27060, Note_on_c, 0, 65, 80
1, 27084, Note_on_c, 0, 65, 0
1, 27120, Note_on_c, 0, 74, 80
1, 27120, Note_on_c, 0, 70, 80
1, 27180, Note_on_c, 0, 70, 0
1, 27180, Note_on_c, 0, 74, 0
1, 27180, Note_on_c, 0, 65, 80
1, 27204, Note_on_c, 0, 65, 0
1, 27240, Note_on_c, 0, 75, 80
1, 27240, Note_on_c, 0, 72, 80
1, 27264, Note_on_c, 0, 72, 0
1, 27264, Note_on_c, 0, 75, 0
1, 27300, Note_on_c, 0, 65, 80
1, 27324, Note_on_c, 0, 65, 0
1, 27360, Note_on_c, 0, 77, 80
1, 27360, Note_on_c, 0, 74, 80
1, 27420, Note_on_c, 1, 46, 80
1, 27444, Note_on_c, 1, 46, 0
1, 27480, Note_on_c, 0, 74, 0
1, 27480, Note_on_c, 0, 77, 0
1, 27480, Note_on_c, 1, 50, 80
1, 27504, Note_on_c, 1, 50, 0
1, 27540, Note_on_c, 0, 77, 80
1, 27540, Note_on_c, 0, 74, 80
1, 27540, Note_on_c, 1, 46, 80
1, 27600, Note_on_c, 0, 74, 0
1, 27600, Note_on_c, 0, 77, 0
1, 27600, Note_on_c, 0, 75, 80
1, 27600, Note_on_c, 0, 72, 80
1, 27600, Note_on_c, 1, 46, 0
1, 27600, Note_on_c, 1, 53, 80
1, 27624, Note_on_c, 1, 53, 0
1, 27660, Note_on_c, 1, 53, 80
1, 27684, Note_on_c, 1, 53, 0
1, 27720, Note_on_c, 0, 72, 0
1, 27720, Note_on_c, 0, 75, 0
1, 27720, Note_on_c, 1, 57, 80
1, 27744, Note_on_c, 1, 57, 0
1, 27780, Note_on_c, 0, 75, 80
1, 27780, Note_on_c, 0, 72, 80
1, 27780, Note_on_c, 1, 53, 80
1, 27840, Note_on_c, 0, 72, 0
1, 27840, Note_on_c, 0, 75, 0
1, 27840, Note_on_c, 0, 70, 80
1, 27840, Note_on_c, 0, 74, 80
1, 27840, Note_on_c, 1, 53, 0
1, 27840, Note_on_c, 1, 58, 80
1, 27864, Note_on_c, 1, 58, 0
1, 27900, Note_on_c, 1, 58, 80
1, 27924, Note_on_c, 1, 58, 0
1, 27960, Note_on_c, 0, 74, 0
1, 27960, Note_on_c, 0, 70, 0
1, 27960, Note_on_c, 1, 62, 80
1, 27984, Note_on_c, 1, 62, 0
1, 28020, Note_on_c, 0, 82, 80
1, 28020, Note_on_c, 1, 58, 80
1, 28080, Note_on_c, 0, 82, 0
1, 28080, Note_on_c, 0, 79, 80
1, 28080, Note_on_c, 1, 58, 0
1, 28080, Note_on_c, 1, 63, 80
1, 28120, Note_on_c, 0, 79, 0
1, 28120, Note_on_c, 0, 82, 80
1, 28160, Note_on_c, 0, 82, 0
1, 28160, Note_on_c, 0, 81, 80
1, 28200, Note_on_c, 0, 81, 0
1, 28200, Note_on_c, 0, 79, 80
1, 28240, Note_on_c, 0, 79, 0
1, 28240, Note_on_c, 0, 77, 80
1, 28280, Note_on_c, 0, 77, 0
1, 28280, Note_on_c, 0, 75, 80
1, 28320, Note_on_c, 0, 75, 0
1, 28320, Note_on_c, 0, 74, 80
1, 28320, Note_on_c, 1, 63, 0
1, 28320, Note_on_c, 1, 65, 80
1, 28360, Note_on_c, 0, 74, 0
1, 28360, Note_on_c, 0, 77, 80
1, 28400, Note_on_c, 0, 77, 0
1, 28400, Note_on_c, 0, 75, 80
1, 28440, Note_on_c, 0, 75, 0
1, 28440, Note_on_c, 0, 74, 80
1, 28480, Note_on_c, 0, 74, 0
1, 28480, Note_on_c, 0, 72, 80
1, 28520, Note_on_c, 0, 72, 0
1, 28520, Note_on_c, 0, 70, 80
1, 28560, Note_on_c, 0, 70, 0
1, 28560, Note_on_c, 0, 69, 80
1, 28560, Note_on_c, 1, 65, 0
1, 28600, Note_on_c, 0, 69, 0
1, 28600, Note_on_c, 0, 67, 80
1, 28640, Note_on_c, 0, 67, 0
1, 28640, Note_on_c, 0, 65, 80
1, 28680, Note_on_c, 0, 65, 0
1, 28680, Note_on_c, 0, 63, 80
1, 28680, Note_on_c, 1, 53, 80
1, 28720, Note_on_c, 0, 63, 0
1, 28720, Note_on_c, 0, 62, 80
1, 28760, Note_on_c, 0, 62, 0
1, 28760, Note_on_c, 0, 60, 80
1, 28764, Note_on_c, 1, 53, 0
1, 28800, Note_on_c, 0, 60, 0
1, 28800, Note_on_c, 0, 58, 80
1, 28800, Note_on_c, 1, 55, 80
1, 28884, Note_on_c, 0, 58, 0
1, 28920, Note_on_c, 1, 55, 0
1, 28920, Note_on_c, 1, 50, 80
1, 28968, Note_on_c, 1, 50, 0
1, 28980, Note_on_c, 0, 82, 80
1, 29040, Note_on_c, 0, 82, 0
1, 29040, Note_on_c, 0, 79, 80
1, 29040, Note_on_c, 1, 51, 80
1, 29080, Note_on_c, 0, 79, 0
1, 29080, Note_on_c, 0, 82, 80
1, 29120, Note_on_c, 0, 82, 0
1, 29120, Note_on_c, 0, 81, 80
1, 29160, Note_on_c, 0, 81, 0
1, 29160, Note_on_c, 0, 79, 80
1, 29200, Note_on_c, 0, 79, 0
1, 29200, Note_on_c, 0, 77, 80
1, 29240, Note_on_c, 0, 77, 0
1, 29240, Note_on_c, 0, 75, 80
1, 29280, Note_on_c, 0, 75, 0
1, 29280, Note_on_c, 0, 74, 80
1, 29280, Note_on_c, 1, 51, 0
1, 29280, Note_on_c, 1, 53, 80
1, 29320, Note_on_c, 0, 74, 0
1, 29320, Note_on_c, 0, 77, 80
1, 29360, Note_on_c, 0, 77, 0
1, 29360, Note_on_c, 0, 75, 80
1, 29400, Note_on_c, 0, 75, 0
1, 29400, Note_on_c, 0, 74, 80
1, 29440, Note_on_c, 0, 74, 0
1, 29440, Note_on_c, 0, 72, 80
1, 29480, Note_on_c, 0, 72, 0
1, 29480, Note_on_c, 0, 70, 80
1, 29520, Note_on_c, 0, 70, 0
1, 29520, Note_on_c, 0, 65, 80
1, 29520, Note_on_c, 1, 53, 0
1, 29568, Note_on_c, 0, 65, 0
1, 29640, Note_on_c, 0, 60, 80
1, 29640, Note_on_c, 0, 63, 80
1, 29640, Note_on_c, 0, 69, 80
1, 29640, Note_on_c, 1, 41, 80
1, 29760, Note_on_c, 0, 69, 0
1, 29760, Note_on_c, 0, 63, 0
1, 29760, Note_on_c, 0, 60, 0
1, 29760, Note_on_c, 0, 62, 80
1, 29760, Note_on_c, 0, 65, 80
1, 29760, Note_on_c, 0, 70, 80
1, 29760, Note_on_c, 1, 41, 0
1, 29760, Note_on_c, 1, 46, 80
1, 29800, Note_on_c, 1, 46, 0
1, 29800, Note_on_c, 1, 50, 80
1, 29816, Note_on_c, 1, 50, 0
1, 29840, Note_on_c, 1, 51, 80
1, 29856, Note_on_c, 1, 51, 0
1, 29880, Note_on_c, 1, 53, 80
1, 29896, Note_on_c, 1, 53, 0
1, 29920, Note_on_c, 1, 55, 80
1, 29936, Note_on_c, 1, 55, 0
1, 29960, Note_on_c, 1, 57, 80
1, 29976, Note_on_c, 1, 57, 0
1, 30000, Note_on_c, 0, 70, 0
1, 30000, Note_on_c, 0, 65, 0
1, 30000, Note_on_c, 0, 62, 0
1, 30000, Note_on_c, 1, 58, 80
1, 30240, Note_on_c, 1, 58, 0
1, 30250, End_track
0, 0, End_of_file