0, 0, Header, 0, 1, 240
1, 0, Start_track
1, 0, Tempo, 652174
1, 0, Note_on_c, 0, 75, 80
1, 0, Note_on_c, 0, 79, 80
1, 120, Note_on_c, 1, 48, 80
1, 240, Note_on_c, 1, 48, 0
1, 240, Note_on_c, 1, 60, 80
1, 360, Note_on_c, 0, 79, 0
1, 360, Note_on_c, 0, 75, 0
1, 360, Note_on_c, 0, 74, 80
1, 360, Note_on_c, 0, 77, 80
1, 360, Note_on_c, 1, 60, 0
1, 420, Note_on_c, 0, 77, 0
1, 420, Note_on_c, 0, 74, 0
1, 480, Note_on_c, 0, 77, 80
1, 480, Note_on_c, 0, 80, 80
1, 600, Note_on_c, 1, 48, 80
1, 720, Note_on_c, 1, 48, 0
1, 720, Note_on_c, 1, 60, 80
1, 840, Note_on_c, 0, 80, 0
1, 840, Note_on_c, 0, 77, 0
1, 840, Note_on_c, 0, 75, 80
1, 840, Note_on_c, 0, 79, 80
1, 840, Note_on_c, 1, 60, 0
1, 900, Note_on_c, 0, 79, 0
1, 900, Note_on_c, 0, 75, 0
1, 960, Note_on_c, 0, 68, 80
1, 960, Note_on_c, 0, 77, 80
1, 1080, Note_on_c, 0, 77, 0
1, 1080, Note_on_c, 0, 68, 0
1, 1080, Note_on_c, 0, 67, 80
1, 1080, Note_on_c, 0, 75, 80
1, 1080, Note_on_c, 1, 48, 80
1, 1200, Note_on_c, 0, 75, 0
1, 1200, Note_on_c, 0, 67, 0
1, 1200, Note_on_c, 0, 65, 80
1, 1200, Note_on_c, 0, 74, 80
1, 1200, Note_on_c, 1, 48, 0
1, 1200, Note_on_c, 1, 53, 80
1, 1320, Note_on_c, 0, 74, 0
1, 1320, Note_on_c, 0, 65, 0
1, 1320, Note_on_c, 0, 63, 80
1, 1320, Note_on_c, 0, 72, 80
1, 1320, Note_on_c, 1, 53, 0
1, 1320, Note_on_c, 1, 54, 80
1, 1380, Note_on_c, 0, 72, 0
1, 1380, Note_on_c, 0, 63, 0
1, 1380, Note_on_c, 0, 71, 80
1, 1400, Note_on_c, 0, 71, 0
1, 1400, Note_on_c, 0, 72, 80
1, 1420, Note_on_c, 0, 72, 0
1, 1420, Note_on_c, 0, 74, 80
1, 1440, Note_on_c, 0, 74, 0
1, 1440, Note_on_c, 0, 63, 80
1, 1440, Note_on_c, 0, 72, 80
1, 1440, Note_on_c, 1, 54, 0
1, 1440, Note_on_c, 1, 55, 80
1, 1680, Note_on_c, 0, 72, 0
1, 1680, Note_on_c, 0, 63, 0
1, 1680, Note_on_c, 0, 62, 80
1, 1680, Note_on_c, 0, 71, 80
1, 1680, Note_on_c, 1, 55, 0
1, 1680, Note_on_c, 1, 43, 80
1, 1740, Note_on_c, 0, 71, 0
1, 1740, Note_on_c, 0, 62, 0
1, 1740, Note_on_c, 1, 43, 0
1, 1800, Note_on_c, 0, 68, 80
1, 1800, Note_on_c, 1, 60, 80
1, 1800, Note_on_c, 1, 63, 80
1, 1860, Note_on_c, 0, 68, 0
1, 1860, Note_on_c, 0, 67, 80
1, 1880, Note_on_c, 0, 67, 0
1, 1880, Note_on_c, 0, 68, 80
1, 1900, Note_on_c, 0, 68, 0
1, 1900, Note_on_c, 0, 70, 80
1, 1920, Note_on_c, 0, 70, 0
1, 1920, Note_on_c, 0, 68, 80
1, 1920, Note_on_c, 1, 63, 0
1, 1920, Note_on_c, 1, 60, 0
1, 1920, Note_on_c, 1, 59, 80
1, 1920, Note_on_c, 1, 62, 80
1, 2160, Note_on_c, 0, 68, 0
1, 2160, Note_on_c, 0, 67, 80
1, 2220, Note_on_c, 0, 67, 0
1, 2280, Note_on_c, 0, 72, 80
1, 2280, Note_on_c, 1, 62, 0
1, 2280, Note_on_c, 1, 59, 0
1, 2280, Note_on_c, 1, 63, 80
1, 2280, Note_on_c, 1, 67, 80
1, 2340, Note_on_c, 0, 72, 0
1, 2340, Note_on_c, 0, 71, 80
1, 2340, Note_on_c, 1, 67, 0
1, 2340, Note_on_c, 1, 63, 0
1, 2360, Note_on_c, 0, 71, 0
1, 2360, Note_on_c, 0, 72, 80
1, 2380, Note_on_c, 0, 72, 0
1, 2380, Note_on_c, 0, 74, 80
1, 2400, Note_on_c, 0, 74, 0
1, 2400, Note_on_c, 0, 72, 80
1, 2400, Note_on_c, 1, 62, 80
1, 2400, Note_on_c, 1, 65, 80
1, 2640, Note_on_c, 0, 72, 0
1, 2640, Note_on_c, 0, 71, 80
1, 2670, Note_on_c, 0, 71, 0
1, 2700, Note_on_c, 0, 80, 80
1, 2760, Note_on_c, 0, 80, 0
1, 2760, Note_on_c, 0, 79, 80
1, 2760, Note_on_c, 1, 65, 0
1, 2760, Note_on_c, 1, 62, 0
1, 2760, Note_on_c, 1, 59, 80
1, 2760, Note_on_c, 1, 67, 80
1, 2820, Note_on_c, 0, 79, 0
1, 2820, Note_on_c, 0, 77, 80
1, 2880, Note_on_c, 0, 77, 0
1, 2880, Note_on_c, 0, 77, 80
1, 2880, Note_on_c, 1, 59, 0
1, 2880, Note_on_c, 1, 60, 80
1, 2940, Note_on_c, 0, 77, 0
1, 2940, Note_on_c, 0, 75, 80
1, 3000, Note_on_c, 0, 75, 0
1, 3000, Note_on_c, 0, 74, 80
1, 3000, Note_on_c, 1, 60, 0
1, 3000, Note_on_c, 1, 63, 80
1, 3020, Note_on_c, 0, 74, 0
1, 3020, Note_on_c, 0, 75, 80
1, 3040, Note_on_c, 0, 75, 0
1, 3040, Note_on_c, 0, 74, 80
1, 3060, Note_on_c, 0, 74, 0
1, 3060, Note_on_c, 0, 72, 80
1, 3120, Note_on_c, 0, 72, 0
1, 3120, Note_on_c, 0, 71, 80
1, 3120, Note_on_c, 1, 63, 0
1, 3120, Note_on_c, 1, 67, 0
1, 3120, Note_on_c, 1, 62, 80
1, 3120, Note_on_c, 1, 65, 80
1, 3168, Note_on_c, 0, 71, 0
1, 3168, Note_on_c, 1, 65, 0
1, 3168, Note_on_c, 1, 62, 0
1, 3240, Note_on_c, 0, 72, 80
1, 3240, Note_on_c, 1, 60, 80
1, 3240, Note_on_c, 1, 63, 80
1, 3288, Note_on_c, 0, 72, 0
1, 3288, Note_on_c, 1, 63, 0
1, 3288, Note_on_c, 1, 60, 0
1, 3360, Note_on_c, 0, 75, 80
1, 3360, Note_on_c, 1, 55, 80
1, 3360, Note_on_c, 1, 60, 80
1, 3600, Note_on_c, 0, 75, 0
1, 3600, Note_on_c, 0, 74, 80
1, 3600, Note_on_c, 1, 60, 0
1, 3600, Note_on_c, 1, 55, 0
1, 3600, Note_on_c, 1, 59, 80
1, 3684, Note_on_c, 0, 74, 0
1, 3684, Note_on_c, 1, 59, 0
1, 3840, Note_on_c, 0, 63, 56
1, 3840, Note_on_c, 0, 67, 56
1, 3960, Note_on_c, 1, 36, 56
1, 4080, Note_on_c, 1, 36, 0
1, 4080, Note_on_c, 1, 48, 56
1, 4200, Note_on_c, 0, 67, 0
1, 4200, Note_on_c, 0, 63, 0
1, 4200, Note_on_c, 0, 62, 56
1, 4200, Note_on_c, 0, 65, 56
1, 4200, Note_on_c, 1, 48, 0
1, 4260, Note_on_c, 0, 65, 0
1, 4260, Note_on_c, 0, 62, 0
1, 4320, Note_on_c, 0, 65, 56
1, 4320, Note_on_c, 0, 68, 56
1, 4440, Note_on_c, 1, 36, 56
1, 4560, Note_on_c, 1, 36, 0
1, 4560, Note_on_c, 1, 48, 56
1, 4680, Note_on_c, 0, 68, 0
1, 4680, Note_on_c, 0, 65, 0
1, 4680, Note_on_c, 0, 63, 56
1, 4680, Note_on_c, 0, 67, 56
1, 4680, Note_on_c, 1, 48, 0
1, 4740, Note_on_c, 0, 67, 0
1, 4740, Note_on_c, 0, 63, 0
1, 4800, Note_on_c, 0, 72, 56
1, 4920, Note_on_c, 1, 63, 56
1, 4920, Note_on_c, 1, 67, 56
1, 5040, Note_on_c, 1, 67, 0
1, 5040, Note_on_c, 1, 63, 0
1, 5040, Note_on_c, 1, 62, 56
1, 5040, Note_on_c, 1, 65, 56
1, 5130, Note_on_c, 0, 72, 0
1, 5130, Note_on_c, 0, 71, 56
1, 5160, Note_on_c, 0, 71, 0
1, 5160, Note_on_c, 0, 74, 56
1, 5160, Note_on_c, 1, 65, 0
1, 5160, Note_on_c, 1, 62, 0
1, 5160, Note_on_c, 1, 65, 56
1, 5160, Note_on_c, 1, 68, 56
1, 5250, Note_on_c, 0, 74, 0
1, 5250, Note_on_c, 0, 72, 56
1, 5280, Note_on_c, 0, 72, 0
1, 5280, Note_on_c, 0, 75, 56
1, 5280, Note_on_c, 1, 68, 0
1, 5280, Note_on_c, 1, 65, 0
1, 5280, Note_on_c, 1, 63, 56
1, 5280, Note_on_c, 1, 67, 56
1, 5340, Note_on_c, 0, 75, 0
1, 5340, Note_on_c, 1, 67, 0
1, 5340, Note_on_c, 1, 63, 0
1, 5520, Note_on_c, 0, 72, 56
1, 5550, Note_on_c, 0, 72, 0
1, 5550, Note_on_c, 0, 74, 56
1, 5580, Note_on_c, 0, 74, 0
1, 5580, Note_on_c, 0, 75, 56
1, 5610, Note_on_c, 0, 75, 0
1, 5610, Note_on_c, 0, 77, 56
1, 5640, Note_on_c, 0, 77, 0
1, 5640, Note_on_c, 0, 79, 56
1, 5670, Note_on_c, 0, 79, 0
1, 5670, Note_on_c, 0, 80, 56
1, 5700, Note_on_c, 0, 80, 0
1, 5700, Note_on_c, 0, 82, 56
1, 5730, Note_on_c, 0, 82, 0
1, 5730, Note_on_c, 0, 84, 56
1, 5760, Note_on_c, 0, 84, 0
1, 5760, Note_on_c, 0, 82, 56
1, 5880, Note_on_c, 1, 65, 56
1, 5880, Note_on_c, 1, 72, 56
1, 5940, Note_on_c, 0, 82, 0
1, 5940, Note_on_c, 0, 80, 56
1, 5960, Note_on_c, 0, 80, 0
1, 5960, Note_on_c, 0, 82, 56
1, 5980, Note_on_c, 0, 82, 0
1, 5980, Note_on_c, 0, 80, 56
1, 6000, Note_on_c, 0, 80, 0
1, 6000, Note_on_c, 0, 79, 56
1, 6000, Note_on_c, 1, 72, 0
1, 6000, Note_on_c, 1, 65, 0
1, 6120, Note_on_c, 1, 63, 56
1, 6120, Note_on_c, 1, 72, 56
1, 6180, Note_on_c, 0, 79, 0
1, 6180, Note_on_c, 0, 84, 56
1, 6240, Note_on_c, 0, 84, 0
1, 6240, Note_on_c, 0, 79, 56
1, 6240, Note_on_c, 1, 72, 0
1, 6240, Note_on_c, 1, 63, 0
1, 6360, Note_on_c, 1, 62, 56
1, 6360, Note_on_c, 1, 71, 56
1, 6420, Note_on_c, 0, 79, 0
1, 6420, Note_on_c, 0, 77, 56
1, 6440, Note_on_c, 0, 77, 0
1, 6440, Note_on_c, 0, 79, 56
1, 6460, Note_on_c, 0, 79, 0
1, 6460, Note_on_c, 0, 77, 56
1, 6480, Note_on_c, 0, 77, 0
1, 6480, Note_on_c, 0, 75, 56
1, 6480, Note_on_c, 1, 71, 0
1, 6480, Note_on_c, 1, 62, 0
1, 6552, Note_on_c, 0, 75, 0
1, 6600, Note_on_c, 1, 60, 56
1, 6600, Note_on_c, 1, 72, 56
1, 6672, Note_on_c, 1, 72, 0
1, 6672, Note_on_c, 1, 60, 0
1, 6720, Note_on_c, 1, 65, 56
1, 6720, Note_on_c, 1, 68, 56
1, 6780, Note_on_c, 0, 73, 54
1, 6840, Note_on_c, 0, 73, 0
1, 6840, Note_on_c, 0, 75, 53
1, 6855, Note_on_c, 0, 75, 0
1, 6855, Note_on_c, 0, 73, 53
1, 6870, Note_on_c, 0, 73, 0
1, 6870, Note_on_c, 0, 72, 52
1, 6885, Note_on_c, 0, 72, 0
1, 6885, Note_on_c, 0, 73, 52
1, 6900, Note_on_c, 0, 73, 0
1, 6900, Note_on_c, 0, 80, 51
1, 6960, Note_on_c, 0, 80, 0
1, 6960, Note_on_c, 0, 72, 50
1, 6960, Note_on_c, 1, 68, 0
1, 6960, Note_on_c, 1, 65, 0
1, 6960, Note_on_c, 1, 55, 50
1, 6960, Note_on_c, 1, 63, 50
1, 7020, Note_on_c, 0, 72, 0
1, 7020, Note_on_c, 1, 63, 0
1, 7020, Note_on_c, 1, 55, 0
1, 7080, Note_on_c, 0, 71, 47
1, 7080, Note_on_c, 1, 55, 47
1, 7080, Note_on_c, 1, 62, 47
1, 7110, Note_on_c, 0, 71, 0
1, 7110, Note_on_c, 0, 72, 46
1, 7140, Note_on_c, 0, 72, 0
1, 7140, Note_on_c, 0, 71, 45
1, 7160, Note_on_c, 0, 71, 0
1, 7160, Note_on_c, 0, 72, 45
1, 7180, Note_on_c, 0, 72, 0
1, 7180, Note_on_c, 0, 71, 44
1, 7200, Note_on_c, 0, 71, 0
1, 7200, Note_on_c, 0, 72, 44
1, 7200, Note_on_c, 1, 62, 0
1, 7200, Note_on_c, 1, 55, 0
1, 7200, Note_on_c, 1, 48, 44
1, 7200, Note_on_c, 1, 60, 44
1, 7440, Note_on_c, 0, 72, 0
1, 7440, Note_on_c, 1, 60, 0
1, 7440, Note_on_c, 1, 48, 0
1, 7680, Note_on_c, 0, 63, 80
1, 7920, Note_on_c, 1, 61, 80
1, 7920, Note_on_c, 1, 58, 80
1, 7920, Note_on_c, 1, 51, 80
1, 7980, Note_on_c, 0, 63, 0
1, 7980, Note_on_c, 0, 63, 80
1, 8040, Note_on_c, 0, 63, 0
1, 8040, Note_on_c, 0, 65, 80
1, 8070, Note_on_c, 0, 65, 0
1, 8070, Note_on_c, 0, 63, 80
1, 8100, Note_on_c, 0, 63, 0
1, 8100, Note_on_c, 0, 62, 80
1, 8130, Note_on_c, 0, 62, 0
1, 8130, Note_on_c, 0, 63, 80
1, 8160, Note_on_c, 0, 63, 0
1, 8160, Note_on_c, 0, 68, 80
1, 8160, Note_on_c, 1, 51, 0
1, 8160, Note_on_c, 1, 58, 0
1, 8160, Note_on_c, 1, 61, 0
1, 8160, Note_on_c, 1, 60, 80
1, 8160, Note_on_c, 1, 56, 80
1, 8160, Note_on_c, 1, 51, 80
1, 8220, Note_on_c, 0, 68, 0
1, 8220, Note_on_c, 0, 63, 80
1, 8280, Note_on_c, 0, 63, 0
1, 8280, Note_on_c, 0, 65, 80
1, 8310, Note_on_c, 0, 65, 0
1, 8310, Note_on_c, 0, 63, 80
1, 8340, Note_on_c, 0, 63, 0
1, 8340, Note_on_c, 0, 62, 80
1, 8370, Note_on_c, 0, 62, 0
1, 8370, Note_on_c, 0, 63, 80
1, 8400, Note_on_c, 0, 63, 0
1, 8400, Note_on_c, 0, 70, 80
1, 8400, Note_on_c, 1, 51, 0
1, 8400, Note_on_c, 1, 56, 0
1, 8400, Note_on_c, 1, 60, 0
1, 8400, Note_on_c, 1, 61, 80
1, 8400, Note_on_c, 1, 55, 80
1, 8400, Note_on_c, 1, 51, 80
1, 8460, Note_on_c, 0, 70, 0
1, 8460, Note_on_c, 0, 63, 80
1, 8520, Note_on_c, 0, 63, 0
1, 8520, Note_on_c, 0, 65, 80
1, 8550, Note_on_c, 0, 65, 0
1, 8550, Note_on_c, 0, 63, 80
1, 8580, Note_on_c, 0, 63, 0
1, 8580, Note_on_c, 0, 62, 80
1, 8610, Note_on_c, 0, 62, 0
1, 8610, Note_on_c, 0, 63, 80
1, 8640, Note_on_c, 0, 63, 0
1, 8640, Note_on_c, 0, 72, 80
1, 8640, Note_on_c, 1, 51, 0
1, 8640, Note_on_c, 1, 55, 0
1, 8640, Note_on_c, 1, 61, 0
1, 8640, Note_on_c, 1, 56, 80
1, 8640, Note_on_c, 1, 60, 80
1, 8760, Note_on_c, 0, 72, 0
1, 8760, Note_on_c, 1, 60, 0
1, 8760, Note_on_c, 1, 56, 0
1, 8880, Note_on_c, 0, 74, 56
1, 8940, Note_on_c, 0, 74, 0
1, 8940, Note_on_c, 0, 75, 56
1, 8970, Note_on_c, 0, 75, 0
1, 9000, Note_on_c, 0, 77, 56
1, 9030, Note_on_c, 0, 77, 0
1, 9060, Note_on_c, 0, 75, 56
1, 9090, Note_on_c, 0, 75, 0
1, 9120, Note_on_c, 0, 73, 56
1, 9180, Note_on_c, 0, 73, 0
1, 9180, Note_on_c, 0, 72, 56
1, 9240, Note_on_c, 0, 72, 0
1, 9240, Note_on_c, 0, 70, 56
1, 9300, Note_on_c, 0, 70, 0
1, 9300, Note_on_c, 0, 68, 56
1, 9360, Note_on_c, 0, 68, 0
1, 9360, Note_on_c, 0, 67, 56
1, 9480, Note_on_c, 0, 67, 0
1, 9480, Note_on_c, 0, 70, 80
1, 9600, Note_on_c, 0, 70, 0
1, 9600, Note_on_c, 0, 68, 56
1, 9720, Note_on_c, 0, 68, 0
1, 9720, Note_on_c, 0, 73, 80
1, 9840, Note_on_c, 0, 73, 0
1, 9840, Note_on_c, 0, 72, 56
1, 9960, Note_on_c, 0, 72, 0
1, 9960, Note_on_c, 0, 77, 84
1, 10080, Note_on_c, 0, 77, 0
1, 10080, Note_on_c, 0, 75, 56
1, 10380, Note_on_c, 0, 75, 0
1, 10380, Note_on_c, 0, 73, 56
1, 10440, Note_on_c, 0, 73, 0
1, 10440, Note_on_c, 0, 72, 56
1, 10470, Note_on_c, 0, 72, 0
1, 10500, Note_on_c, 0, 70, 56
1, 10530, Note_on_c, 0, 70, 0
1, 10560, Note_on_c, 0, 70, 56
1, 10800, Note_on_c, 0, 70, 0
1, 10800, Note_on_c, 0, 69, 80
1, 10800, Note_on_c, 1, 63, 80
1, 10800, Note_on_c, 1, 60, 80
1, 10800, Note_on_c, 1, 53, 80
1, 10860, Note_on_c, 0, 69, 0
1, 10860, Note_on_c, 0, 65, 80
1, 10920, Note_on_c, 0, 65, 0
1, 10920, Note_on_c, 0, 67, 80
1, 10950, Note_on_c, 0, 67, 0
1, 10950, Note_on_c, 0, 65, 80
1, 10980, Note_on_c, 0, 65, 0
1, 10980, Note_on_c, 0, 64, 80
1, 11010, Note_on_c, 0, 64, 0
1, 11010, Note_on_c, 0, 65, 80
1, 11040, Note_on_c, 0, 65, 0
1, 11040, Note_on_c, 0, 70, 80
1, 11040, Note_on_c, 1, 53, 0
1, 11040, Note_on_c, 1, 60, 0
1, 11040, Note_on_c, 1, 63, 0
1, 11040, Note_on_c, 1, 62, 80
1, 11040, Note_on_c, 1, 58, 80
1, 11040, Note_on_c, 1, 53, 80
1, 11100, Note_on_c, 0, 70, 0
1, 11100, Note_on_c, 0, 65, 80
1, 11160, Note_on_c, 0, 65, 0
1, 11160, Note_on_c, 0, 67, 80
1, 11190, Note_on_c, 0, 67, 0
1, 11190, Note_on_c, 0, 65, 80
1, 11220, Note_on_c, 0, 65, 0
1, 11220, Note_on_c, 0, 64, 80
1, 11250, Note_on_c, 0, 64, 0
1, 11250, Note_on_c, 0, 65, 80
1, 11280, Note_on_c, 0, 65, 0
1, 11280, Note_on_c, 0, 72, 80
1, 11280, Note_on_c, 1, 53, 0
1, 11280, Note_on_c, 1, 58, 0
1, 11280, Note_on_c, 1, 62, 0
1, 11280, Note_on_c, 1, 63, 80
1, 11280, Note_on_c, 1, 57, 80
1, 11280, Note_on_c, 1, 53, 80
1, 11340, Note_on_c, 0, 72, 0
1, 11340, Note_on_c, 0, 65, 80
1, 11400, Note_on_c, 0, 65, 0
1, 11400, Note_on_c, 0, 67, 80
1, 11430, Note_on_c, 0, 67, 0
1, 11430, Note_on_c, 0, 65, 80
1, 11460, Note_on_c, 0, 65, 0
1, 11460, Note_on_c, 0, 64, 80
1, 11490, Note_on_c, 0, 64, 0
1, 11490, Note_on_c, 0, 65, 80
1, 11520, Note_on_c, 0, 65, 0
1, 11520, Note_on_c, 0, 74, 80
1, 11520, Note_on_c, 1, 53, 0
1, 11520, Note_on_c, 1, 57, 0
1, 11520, Note_on_c, 1, 63, 0
1, 11520, Note_on_c, 1, 62, 80
1, 11520, Note_on_c, 1, 58, 80
1, 11640, Note_on_c, 0, 74, 0
1, 11640, Note_on_c, 1, 58, 0
1, 11640, Note_on_c, 1, 62, 0
1, 11760, Note_on_c, 0, 76, 56
1, 11820, Note_on_c, 0, 76, 0
1, 11820, Note_on_c, 0, 77, 56
1, 11850, Note_on_c, 0, 77, 0
1, 11880, Note_on_c, 0, 79, 56
1, 11910, Note_on_c, 0, 79, 0
1, 11940, Note_on_c, 0, 77, 56
1, 11970, Note_on_c, 0, 77, 0
1, 12000, Note_on_c, 0, 75, 56
1, 12060, Note_on_c, 0, 75, 0
1, 12060, Note_on_c, 0, 74, 56
1, 12120, Note_on_c, 0, 74, 0
1, 12120, Note_on_c, 0, 72, 56
1, 12180, Note_on_c, 0, 72, 0
1, 12180, Note_on_c, 0, 70, 56
1, 12240, Note_on_c, 0, 70, 0
1, 12240, Note_on_c, 0, 69, 56
1, 12360, Note_on_c, 0, 69, 0
1, 12360, Note_on_c, 0, 72, 80
1, 12480, Note_on_c, 0, 72, 0
1, 12480, Note_on_c, 0, 70, 56
1, 12600, Note_on_c, 0, 70, 0
1, 12600, Note_on_c, 0, 75, 80
1, 12720, Note_on_c, 0, 75, 0
1, 12720, Note_on_c, 0, 74, 56
1, 12840, Note_on_c, 0, 74, 0
1, 12840, Note_on_c, 0, 79, 80
1, 12960, Note_on_c, 0, 79, 0
1, 12960, Note_on_c, 0, 77, 56
1, 13200, Note_on_c, 0, 77, 0
1, 13200, Note_on_c, 0, 75, 62
1, 13260, Note_on_c, 0, 75, 0
1, 13260, Note_on_c, 0, 74, 67
1, 13290, Note_on_c, 0, 74, 0
1, 13320, Note_on_c, 0, 72, 72
1, 13350, Note_on_c, 0, 72, 0
1, 13380, Note_on_c, 0, 70, 76
1, 13410, Note_on_c, 0, 70, 0
1, 13440, Note_on_c, 0, 68, 80
1, 13440, Note_on_c, 0, 65, 80
1, 13560, Note_on_c, 1, 46, 64
1, 13680, Note_on_c, 1, 46, 0
1, 13680, Note_on_c, 1, 50, 64
1, 13800, Note_on_c, 1, 50, 0
1, 13800, Note_on_c, 1, 53, 64
1, 13920, Note_on_c, 1, 53, 0
1, 13920, Note_on_c, 1, 58, 64
1, 14040, Note_on_c, 0, 65, 0
1, 14040, Note_on_c, 0, 68, 0
1, 14040, Note_on_c, 0, 65, 80
1, 14040, Note_on_c, 0, 68, 80
1, 14100, Note_on_c, 0, 68, 0
1, 14100, Note_on_c, 0, 65, 0
1, 14160, Note_on_c, 0, 67, 80
1, 14160, Note_on_c, 0, 70, 80
1, 14160, Note_on_c, 1, 58, 0
1, 14220, Note_on_c, 0, 70, 0
1, 14220, Note_on_c, 0, 67, 0
1, 14220, Note_on_c, 0, 65, 80
1, 14220, Note_on_c, 0, 68, 80
1, 14250, Note_on_c, 0, 68, 0
1, 14250, Note_on_c, 0, 65, 0
1, 14280, Note_on_c, 0, 63, 80
1, 14280, Note_on_c, 0, 67, 80
1, 14310, Note_on_c, 0, 67, 0
1, 14310, Note_on_c, 0, 63, 0
1, 14340, Note_on_c, 0, 62, 80
1, 14340, Note_on_c, 0, 65, 80
1, 14370, Note_on_c, 0, 65, 0
1, 14370, Note_on_c, 0, 62, 0
1, 14400, Note_on_c, 0, 62, 80
1, 14400, Note_on_c, 0, 66, 80
1, 14520, Note_on_c, 1, 46, 64
1, 14640, Note_on_c, 0, 66, 0
1, 14640, Note_on_c, 0, 62, 0
1, 14640, Note_on_c, 0, 63, 80
1, 14640, Note_on_c, 0, 67, 80
1, 14640, Note_on_c, 1, 46, 0
1, 14640, Note_on_c, 1, 51, 64
1, 14760, Note_on_c, 1, 51, 0
1, 14760, Note_on_c, 1, 55, 64
1, 14880, Note_on_c, 1, 55, 0
1, 14880, Note_on_c, 1, 58, 64
1, 15000, Note_on_c, 0, 67, 0
1, 15000, Note_on_c, 0, 63, 0
1, 15000, Note_on_c, 0, 79, 80
1, 15000, Note_on_c, 0, 82, 80
1, 15060, Note_on_c, 0, 82, 0
1, 15060, Note_on_c, 0, 79, 0
1, 15120, Note_on_c, 0, 80, 80
1, 15120, Note_on_c, 0, 84, 80
1, 15120, Note_on_c, 1, 58, 0
1, 15180, Note_on_c, 0, 84, 0
1, 15180, Note_on_c, 0, 80, 0
1, 15180, Note_on_c, 0, 79, 80
1, 15180, Note_on_c, 0, 82, 80
1, 15210, Note_on_c, 0, 82, 0
1, 15210, Note_on_c, 0, 79, 0
1, 15240, Note_on_c, 0, 77, 80
1, 15240, Note_on_c, 0, 80, 80
1, 15270, Note_on_c, 0, 80, 0
1, 15270, Note_on_c, 0, 77, 0
1, 15300, Note_on_c, 0, 76, 80
1, 15300, Note_on_c, 0, 79, 80
1, 15330, Note_on_c, 0, 79, 0
1, 15330, Note_on_c, 0, 76, 0
1, 15360, Note_on_c, 0, 76, 80
1, 15360, Note_on_c, 0, 79, 80
1, 15480, Note_on_c, 1, 46, 80
1, 15600, Note_on_c, 0, 79, 0
1, 15600, Note_on_c, 0, 76, 0
1, 15600, Note_on_c, 0, 77, 80
1, 15600, Note_on_c, 0, 80, 80
1, 15600, Note_on_c, 1, 46, 0
1, 15600, Note_on_c, 1, 50, 80
1, 15660, Note_on_c, 1, 50, 0
1, 15660, Note_on_c, 1, 46, 80
1, 15690, Note_on_c, 1, 46, 0
1, 15720, Note_on_c, 1, 53, 80
1, 15750, Note_on_c, 1, 53, 0
1, 15780, Note_on_c, 1, 50, 80
1, 15810, Note_on_c, 1, 50, 0
1, 15840, Note_on_c, 1, 58, 80
1, 15960, Note_on_c, 0, 80, 0
1, 15960, Note_on_c, 0, 77, 0
1, 15960, Note_on_c, 0, 77, 80
1, 15960, Note_on_c, 0, 80, 80
1, 16020, Note_on_c, 0, 80, 0
1, 16020, Note_on_c, 0, 77, 0
1, 16080, Note_on_c, 0, 78, 80
1, 16080, Note_on_c, 0, 82, 80
1, 16080, Note_on_c, 1, 58, 0
1, 16140, Note_on_c, 0, 82, 0
1, 16140, Note_on_c, 0, 78, 0
1, 16140, Note_on_c, 0, 77, 80
1, 16140, Note_on_c, 0, 80, 80
1, 16170, Note_on_c, 0, 80, 0
1, 16170, Note_on_c, 0, 77, 0
1, 16200, Note_on_c, 0, 75, 80
1, 16200, Note_on_c, 0, 78, 80
1, 16230, Note_on_c, 0, 78, 0
1, 16230, Note_on_c, 0, 75, 0
1, 16260, Note_on_c, 0, 74, 80
1, 16260, Note_on_c, 0, 77, 80
1, 16290, Note_on_c, 0, 77, 0
1, 16290, Note_on_c, 0, 74, 0
1, 16320, Tempo, 681818
1, 16320, Note_on_c, 0, 78, 56
1, 16320, Note_on_c, 0, 75, 56
1, 16440, Note_on_c, 0, 75, 0
1, 16440, Note_on_c, 0, 78, 0
1, 16440, Note_on_c, 1, 57, 59
1, 16500, Note_on_c, 1, 57, 0
1, 16500, Note_on_c, 1, 45, 61
1, 16530, Note_on_c, 1, 45, 0
1, 16560, Tempo, 674157
1, 16560, Note_on_c, 0, 75, 62
1, 16560, Note_on_c, 0, 79, 62
1, 16680, Note_on_c, 1, 58, 65
1, 16740, Note_on_c, 1, 58, 0
1, 16740, Note_on_c, 1, 46, 67
1, 16770, Note_on_c, 1, 46, 0
1, 16800, Tempo, 666667
1, 16800, Note_on_c, 0, 79, 0
1, 16800, Note_on_c, 0, 75, 0
1, 16800, Note_on_c, 0, 75, 68
1, 16800, Note_on_c, 0, 80, 68
1, 16920, Note_on_c, 1, 60, 71
1, 16980, Note_on_c, 1, 60, 0
1, 16980, Note_on_c, 1, 48, 73
1, 17040, Tempo, 659341
1, 17040, Note_on_c, 0, 80, 0
1, 17040, Note_on_c, 0, 75, 0
1, 17040, Note_on_c, 0, 75, 74
1, 17040, Note_on_c, 0, 81, 74
1, 17040, Note_on_c, 1, 48, 0
1, 17160, Note_on_c, 1, 59, 77
1, 17220, Note_on_c, 1, 59, 0
1, 17220, Note_on_c, 1, 47, 79
1, 17280, Tempo, 652174
1, 17280, Note_on_c, 0, 81, 0
1, 17280, Note_on_c, 0, 75, 0
1, 17280, Note_on_c, 1, 47, 0
1, 17280, Note_on_c, 1, 46, 80
1, 17340, Note_on_c, 1, 46, 0
1, 17340, Note_on_c, 1, 58, 80
1, 17400, Note_on_c, 0, 74, 80
1, 17400, Note_on_c, 1, 58, 0
1, 17460, Note_on_c, 0, 74, 0
1, 17460, Note_on_c, 0, 82, 80
1, 17520, Note_on_c, 0, 82, 0
1, 17520, Note_on_c, 0, 80, 80
1, 17580, Note_on_c, 0, 80, 0
1, 17580, Note_on_c, 0, 79, 80
1, 17640, Note_on_c, 0, 79, 0
1, 17640, Note_on_c, 0, 77, 80
1, 17700, Note_on_c, 0, 77, 0
1, 17700, Note_on_c, 0, 75, 80
1, 17760, Note_on_c, 0, 75, 0
1, 17760, Note_on_c, 0, 74, 80
1, 17820, Note_on_c, 0, 74, 0
1, 17820, Note_on_c, 0, 72, 80
1, 17880, Note_on_c, 0, 72, 0
1, 17880, Note_on_c, 0, 70, 80
1, 17940, Note_on_c, 0, 70, 0
1, 17940, Note_on_c, 1, 68, 80
1, 18000, Note_on_c, 1, 68, 0
1, 18000, Note_on_c, 1, 67, 80
1, 18060, Note_on_c, 1, 67, 0
1, 18060, Note_on_c, 1, 65, 80
1, 18120, Note_on_c, 1, 65, 0
1, 18120, Note_on_c, 1, 63, 80
1, 18180, Note_on_c, 1, 63, 0
1, 18180, Note_on_c, 1, 62, 80
1, 18240, Note_on_c, 1, 62, 0
1, 18240, Note_on_c, 1, 60, 80
1, 18300, Note_on_c, 1, 60, 0
1, 18300, Note_on_c, 1, 58, 80
1, 18360, Note_on_c, 1, 58, 0
1, 18360, Note_on_c, 1, 56, 80
1, 18420, Note_on_c, 0, 84, 80
1, 18420, Note_on_c, 1, 56, 0
1, 18480, Note_on_c, 0, 84, 0
1, 18480, Note_on_c, 0, 82, 80
1, 18540, Note_on_c, 0, 82, 0
1, 18540, Note_on_c, 0, 80, 80
1, 18600, Note_on_c, 0, 80, 0
1, 18600, Note_on_c, 0, 79, 80
1, 18660, Note_on_c, 0, 79, 0
1, 18660, Note_on_c, 0, 77, 80
1, 18720, Note_on_c, 0, 77, 0
1, 18720, Note_on_c, 0, 76, 48
1, 18780, Note_on_c, 0, 76, 0
1, 18780, Note_on_c, 0, 77, 48
1, 18840, Note_on_c, 0, 77, 0
1, 18840, Note_on_c, 0, 78, 48
1, 18900, Note_on_c, 0, 78, 0
1, 18900, Note_on_c, 0, 77, 48
1, 18960, Note_on_c, 0, 77, 0
1, 18960, Note_on_c, 0, 79, 48
1, 19020, Note_on_c, 0, 79, 0
1, 19020, Note_on_c, 0, 77, 48
1, 19080, Note_on_c, 0, 77, 0
1, 19080, Note_on_c, 0, 80, 48
1, 19140, Note_on_c, 0, 80, 0
1, 19140, Note_on_c, 0, 77, 48
1, 19200, Note_on_c, 0, 77, 0
1, 19200, Note_on_c, 0, 76, 48
1, 19260, Note_on_c, 0, 76, 0
1, 19260, Note_on_c, 0, 77, 50
1, 19320, Note_on_c, 0, 77, 0
1, 19320, Note_on_c, 0, 78, 52
1, 19380, Note_on_c, 0, 78, 0
1, 19380, Note_on_c, 0, 77, 54
1, 19440, Note_on_c, 0, 77, 0
1, 19440, Note_on_c, 0, 79, 56
1, 19500, Note_on_c, 0, 79, 0
1, 19500, Note_on_c, 0, 77, 58
1, 19560, Note_on_c, 0, 77, 0
1, 19560, Note_on_c, 0, 80, 60
1, 19620, Note_on_c, 0, 80, 0
1, 19620, Note_on_c, 0, 77, 62
1, 19680, Note_on_c, 0, 77, 0
1, 19680, Note_on_c, 0, 76, 64
1, 19740, Note_on_c, 0, 76, 0
1, 19740, Note_on_c, 0, 77, 66
1, 19800, Note_on_c, 0, 77, 0
1, 19800, Note_on_c, 0, 78, 68
1, 19860, Note_on_c, 0, 78, 0
1, 19860, Note_on_c, 0, 77, 70
1, 19920, Note_on_c, 0, 77, 0
1, 19920, Note_on_c, 0, 79, 72
1, 19980, Note_on_c, 0, 79, 0
1, 19980, Note_on_c, 0, 77, 74
1, 20040, Note_on_c, 0, 77, 0
1, 20040, Note_on_c, 0, 80, 76
1, 20100, Note_on_c, 0, 80, 0
1, 20100, Note_on_c, 0, 77, 78
1, 20160, Note_on_c, 0, 77, 0
1, 20160, Note_on_c, 0, 75, 80
1, 20280, Note_on_c, 1, 68, 80
1, 20280, Note_on_c, 1, 65, 80
1, 20280, Note_on_c, 1, 58, 80
1, 20340, Note_on_c, 1, 58, 0
1, 20340, Note_on_c, 1, 65, 0
1, 20340, Note_on_c, 1, 68, 0
1, 20400, Note_on_c, 1, 68, 80
1, 20400, Note_on_c, 1, 65, 80
1, 20400, Note_on_c, 1, 58, 80
1, 20460, Note_on_c, 1, 58, 0
1, 20460, Note_on_c, 1, 65, 0
1, 20460, Note_on_c, 1, 68, 0
1, 20520, Note_on_c, 1, 68, 80
1, 20520, Note_on_c, 1, 65, 80
1, 20520, Note_on_c, 1, 58, 80
1, 20580, Note_on_c, 1, 58, 0
1, 20580, Note_on_c, 1, 65, 0
1, 20580, Note_on_c, 1, 68, 0
1, 20640, Note_on_c, 1, 68, 80
1, 20640, Note_on_c, 1, 65, 80
1, 20640, Note_on_c, 1, 58, 80
1, 20680, Note_on_c, 0, 75, 0
1, 20680, Note_on_c, 0, 74, 80
1, 20720, Note_on_c, 0, 74, 0
1, 20720, Note_on_c, 0, 75, 80
1, 20760, Note_on_c, 0, 75, 0
1, 20760, Note_on_c, 0, 77, 80
1, 20800, Note_on_c, 0, 77, 0
1, 20800, Note_on_c, 0, 75, 80
1, 20840, Note_on_c, 0, 75, 0
1, 20840, Note_on_c, 0, 74, 80
1, 20880, Note_on_c, 0, 74, 0
1, 20880, Note_on_c, 0, 80, 80
1, 20920, Note_on_c, 0, 80, 0
1, 20920, Note_on_c, 0, 79, 80
1, 20960, Note_on_c, 0, 79, 0
1, 20960, Note_on_c, 0, 77, 80
1, 21000, Note_on_c, 0, 77, 0
1, 21000, Note_on_c, 0, 84, 80
1, 21040, Note_on_c, 0, 84, 0
1, 21040, Note_on_c, 0, 80, 80
1, 21080, Note_on_c, 0, 80, 0
1, 21080, Note_on_c, 0, 77, 80
1, 21120, Note_on_c, 0, 77, 0
1, 21120, Note_on_c, 0, 75, 80
1, 21120, Note_on_c, 1, 58, 0
1, 21120, Note_on_c, 1, 65, 0
1, 21120, Note_on_c, 1, 68, 0
1, 21240, Note_on_c, 1, 59, 80
1, 21280, Note_on_c, 1, 59, 0
1, 21280, Note_on_c, 1, 65, 80
1, 21320, Note_on_c, 1, 65, 0
1, 21320, Note_on_c, 1, 68, 80
1, 21360, Note_on_c, 1, 68, 0
1, 21360, Note_on_c, 1, 59, 80
1, 21400, Note_on_c, 1, 59, 0
1, 21400, Note_on_c, 1, 65, 80
1, 21440, Note_on_c, 1, 65, 0
1, 21440, Note_on_c, 1, 68, 80
1, 21480, Note_on_c, 1, 68, 0
1, 21480, Note_on_c, 1, 59, 80
1, 21520, Note_on_c, 1, 59, 0
1, 21520, Note_on_c, 1, 65, 80
1, 21560, Note_on_c, 1, 65, 0
1, 21560, Note_on_c, 1, 68, 80
1, 21600, Note_on_c, 1, 68, 0
1, 21600, Note_on_c, 1, 59, 80
1, 21640, Note_on_c, 0, 75, 0
1, 21640, Note_on_c, 0, 74, 80
1, 21680, Note_on_c, 0, 74, 0
1, 21680, Note_on_c, 0, 75, 80
1, 21720, Note_on_c, 0, 75, 0
1, 21720, Note_on_c, 0, 77, 80
1, 21760, Note_on_c, 0, 77, 0
1, 21760, Note_on_c, 0, 75, 80
1, 21800, Note_on_c, 0, 75, 0
1, 21800, Note_on_c, 0, 74, 80
1, 21840, Note_on_c, 0, 74, 0
1, 21840, Note_on_c, 0, 80, 80
1, 21880, Note_on_c, 0, 80, 0
1, 21880, Note_on_c, 0, 78, 80
1, 21920, Note_on_c, 0, 78, 0
1, 21920, Note_on_c, 0, 77, 80
1, 21960, Note_on_c, 0, 77, 0
1, 21960, Note_on_c, 0, 83, 80
1, 22000, Note_on_c, 0, 83, 0
1, 22000, Note_on_c, 0, 80, 80
1, 22040, Note_on_c, 0, 80, 0
1, 22040, Note_on_c, 0, 77, 80
1, 22080, Note_on_c, 0, 77, 0
1, 22080, Note_on_c, 0, 75, 80
1, 22080, Note_on_c, 1, 59, 0
1, 22200, Note_on_c, 1, 59, 48
1, 22240, Note_on_c, 1, 59, 0
1, 22240, Note_on_c, 1, 65, 48
1, 22280, Note_on_c, 1, 65, 0
1, 22280, Note_on_c, 1, 68, 48
1, 22320, Note_on_c, 1, 68, 0
1, 22320, Note_on_c, 1, 59, 48
1, 22360, Note_on_c, 1, 59, 0
1, 22360, Note_on_c, 1, 65, 48
1, 22400, Note_on_c, 1, 65, 0
1, 22400, Note_on_c, 1, 68, 48
1, 22440, Note_on_c, 1, 68, 0
1, 22440, Note_on_c, 1, 59, 48
1, 22480, Note_on_c, 1, 59, 0
1, 22480, Note_on_c, 1, 65, 48
1, 22520, Note_on_c, 1, 68, 48
1, 22560, Note_on_c, 1, 59, 48
1, 22592, Note_on_c, 0, 75, 0
1, 22600, Note_on_c, 0, 74, 48
1, 22632, Note_on_c, 0, 74, 0
1, 22640, Note_on_c, 0, 75, 48
1, 22672, Note_on_c, 0, 75, 0
1, 22680, Note_on_c, 0, 77, 48
1, 22712, Note_on_c, 0, 77, 0
1, 22720, Note_on_c, 0, 75, 48
1, 22752, Note_on_c, 0, 75, 0
1, 22760, Note_on_c, 0, 74, 48
1, 22792, Note_on_c, 0, 74, 0
1, 22800, Note_on_c, 0, 80, 48
1, 22864, Note_on_c, 0, 80, 0
1, 22880, Note_on_c, 0, 79, 48
1, 22944, Note_on_c, 0, 79, 0
1, 22960, Note_on_c, 0, 77, 48
1, 23024, Note_on_c, 0, 77, 0
1, 23040, Note_on_c, 0, 83, 48
1, 23280, Tempo, 674157
1, 23400, Note_on_c, 0, 83, 0
1, 23400, Note_on_c, 0, 82, 48
1, 23460, Note_on_c, 0, 82, 0
1, 23520, Tempo, 689655
1, 23520, Note_on_c, 0, 80, 48
1, 23640, Note_on_c, 0, 80, 0
1, 23640, Note_on_c, 0, 78, 48
1, 23700, Note_on_c, 0, 78, 0
1, 23760, Tempo, 714286
1, 23760, Note_on_c, 0, 77, 48
1, 23880, Note_on_c, 0, 77, 0
1, 23880, Note_on_c, 0, 75, 48
1, 23940, Note_on_c, 0, 75, 0
1, 24000, Tempo, 740741
1, 24000, Note_on_c, 0, 75, 48
1, 24000, Note_on_c, 1, 59, 0
1, 24000, Note_on_c, 1, 65, 0
1, 24120, Note_on_c, 1, 58, 48
1, 24240, Tempo, 759494
1, 24240, Note_on_c, 1, 68, 0
1, 24240, Note_on_c, 1, 68, 48
1, 24360, Note_on_c, 0, 75, 0
1, 24360, Note_on_c, 0, 74, 48
1, 24480, Tempo, 789474
1, 24480, Note_on_c, 0, 84, 48
1, 24600, Note_on_c, 1, 58, 0
1, 24600, Note_on_c, 1, 58, 46
1, 24720, Tempo, 821918
1, 24720, Note_on_c, 1, 68, 0
1, 24720, Note_on_c, 1, 68, 44
1, 24840, Note_on_c, 0, 74, 0
1, 24840, Note_on_c, 0, 74, 42
1, 24960, Tempo, 845070
1, 24960, Note_on_c, 0, 84, 0
1, 24960, Note_on_c, 0, 84, 40
1, 25200, Tempo, 882353
1, 25440, Tempo, 652174
1, 25920, Note_on_c, 0, 84, 0
1, 25920, Note_on_c, 0, 74, 0
1, 25920, Note_on_c, 1, 68, 0
1, 25920, Note_on_c, 1, 58, 0
1, 25920, Note_on_c, 1, 51, 88
1, 25920, Note_on_c, 1, 46, 88
1, 25920, Note_on_c, 1, 43, 88
1, 26040, Note_on_c, 0, 79, 80
1, 26040, Note_on_c, 1, 43, 0
1, 26040, Note_on_c, 1, 46, 0
1, 26040, Note_on_c, 1, 51, 0
1, 26070, Note_on_c, 0, 79, 0
1, 26070, Note_on_c, 0, 75, 80
1, 26106, Note_on_c, 0, 75, 0
1, 26160, Note_on_c, 0, 75, 80
1, 26190, Note_on_c, 0, 75, 0
1, 26190, Note_on_c, 0, 70, 80
1, 26226, Note_on_c, 0, 70, 0
1, 26280, Note_on_c, 0, 70, 80
1, 26310, Note_on_c, 0, 70, 0
1, 26310, Note_on_c, 0, 67, 80
1, 26355, Note_on_c, 0, 67, 0
1, 26400, Note_on_c, 1, 51, 80
1, 26400, Note_on_c, 1, 48, 80
1, 26400, Note_on_c, 1, 44, 80
1, 26520, Note_on_c, 0, 72, 80
1, 26520, Note_on_c, 1, 44, 0
1, 26520, Note_on_c, 1, 48, 0
1, 26520, Note_on_c, 1, 51, 0
1, 26550, Note_on_c, 0, 72, 0
1, 26550, Note_on_c, 0, 68, 80
1, 26595, Note_on_c, 0, 68, 0
1, 26640, Note_on_c, 0, 68, 80
1, 26670, Note_on_c, 0, 68, 0
1, 26670, Note_on_c, 0, 65, 80
1, 26715, Note_on_c, 0, 65, 0
1, 26760, Note_on_c, 0, 65, 80
1, 26790, Note_on_c, 0, 65, 0
1, 26790, Note_on_c, 0, 60, 80
1, 26844, Note_on_c, 0, 60, 0
1, 26880, Note_on_c, 0, 63, 64
1, 27000, Note_on_c, 1, 46, 64
1, 27000, Note_on_c, 1, 55, 64
1, 27120, Note_on_c, 1, 55, 0
1, 27120, Note_on_c, 1, 46, 0
1, 27120, Note_on_c, 1, 46, 64
1, 27120, Note_on_c, 1, 55, 64
1, 27180, Note_on_c, 0, 63, 0
1, 27180, Note_on_c, 0, 62, 64
1, 27240, Note_on_c, 0, 62, 0
1, 27240, Note_on_c, 0, 68, 64
1, 27240, Note_on_c, 1, 55, 0
1, 27240, Note_on_c, 1, 46, 0
1, 27240, Note_on_c, 1, 46, 64
1, 27240, Note_on_c, 1, 53, 64
1, 27280, Note_on_c, 0, 68, 0
1, 27280, Note_on_c, 0, 65, 64
1, 27320, Note_on_c, 0, 65, 0
1, 27320, Note_on_c, 0, 62, 64
1, 27360, Note_on_c, 0, 62, 0
1, 27360, Note_on_c, 1, 53, 0
1, 27360, Note_on_c, 1, 46, 0
1, 27360, Note_on_c, 1, 51, 80
1, 27360, Note_on_c, 1, 46, 80
1, 27360, Note_on_c, 1, 43, 80
1, 27420, Note_on_c, 0, 75, 80
1, 27480, Note_on_c, 0, 75, 0
1, 27480, Note_on_c, 0, 75, 80
1, 27500, Note_on_c, 0, 75, 0
1, 27500, Note_on_c, 0, 77, 80
1, 27520, Note_on_c, 0, 77, 0
1, 27520, Note_on_c, 0, 75, 80
1, 27540, Note_on_c, 0, 75, 0
1, 27540, Note_on_c, 0, 74, 80
1, 27560, Note_on_c, 0, 74, 0
1, 27560, Note_on_c, 0, 75, 80
1, 27580, Note_on_c, 0, 75, 0
1, 27580, Note_on_c, 0, 79, 80
1, 27600, Note_on_c, 0, 79, 0
1, 27600, Note_on_c, 0, 70, 80
1, 27600, Note_on_c, 1, 43, 0
1, 27600, Note_on_c, 1, 46, 0
1, 27600, Note_on_c, 1, 51, 0
1, 27636, Note_on_c, 0, 70, 0
1, 27690, Note_on_c, 0, 70, 80
1, 27720, Note_on_c, 0, 70, 0
1, 27720, Note_on_c, 0, 70, 80
1, 27740, Note_on_c, 0, 70, 0
1, 27740, Note_on_c, 0, 72, 80
1, 27760, Note_on_c, 0, 72, 0
1, 27760, Note_on_c, 0, 70, 80
1, 27780, Note_on_c, 0, 70, 0
1, 27780, Note_on_c, 0, 69, 80
1, 27800, Note_on_c, 0, 69, 0
1, 27800, Note_on_c, 0, 70, 80
1, 27820, Note_on_c, 0, 70, 0
1, 27820, Note_on_c, 0, 75, 80
1, 27840, Note_on_c, 0, 75, 0
1, 27840, Note_on_c, 0, 65, 80
1, 27840, Note_on_c, 1, 51, 80
1, 27840, Note_on_c, 1, 48, 80
1, 27840, Note_on_c, 1, 44, 80
1, 27876, Note_on_c, 0, 65, 0
1, 27930, Note_on_c, 0, 65, 80
1, 27960, Note_on_c, 0, 65, 0
1, 27960, Note_on_c, 0, 65, 80
1, 27980, Note_on_c, 0, 65, 0
1, 27980, Note_on_c, 0, 67, 80
1, 28000, Note_on_c, 0, 67, 0
1, 28000, Note_on_c, 0, 65, 80
1, 28020, Note_on_c, 0, 65, 0
1, 28020, Note_on_c, 0, 64, 80
1, 28040, Note_on_c, 0, 64, 0
1, 28040, Note_on_c, 0, 65, 80
1, 28060, Note_on_c, 0, 65, 0
1, 28060, Note_on_c, 0, 72, 80
1, 28080, Note_on_c, 0, 72, 0
1, 28080, Note_on_c, 0, 60, 80
1, 28080, Note_on_c, 1, 44, 0
1, 28080, Note_on_c, 1, 48, 0
1, 28080, Note_on_c, 1, 51, 0
1, 28116, Note_on_c, 0, 60, 0
1, 28170, Note_on_c, 0, 60, 80
1, 28200, Note_on_c, 0, 60, 0
1, 28200, Note_on_c, 0, 60, 80
1, 28220, Note_on_c, 0, 60, 0
1, 28220, Note_on_c, 0, 62, 80
1, 28240, Note_on_c, 0, 62, 0
1, 28240, Note_on_c, 0, 60, 80
1, 28260, Note_on_c, 0, 60, 0
1, 28260, Note_on_c, 0, 58, 80
1, 28280, Note_on_c, 0, 58, 0
1, 28280, Note_on_c, 0, 60, 80
1, 28300, Note_on_c, 0, 60, 0
1, 28300, Note_on_c, 0, 68, 80
1, 28320, Note_on_c, 0, 68, 0
1, 28320, Note_on_c, 0, 63, 64
1, 28440, Note_on_c, 1, 46, 64
1, 28440, Note_on_c, 1, 55, 64
1, 28560, Note_on_c, 1, 55, 0
1, 28560, Note_on_c, 1, 46, 0
1, 28560, Note_on_c, 1, 46, 64
1, 28560, Note_on_c, 1, 55, 64
1, 28620, Note_on_c, 0, 63, 0
1, 28620, Note_on_c, 0, 62, 64
1, 28680, Note_on_c, 0, 62, 0
1, 28680, Note_on_c, 0, 68, 64
1, 28680, Note_on_c, 1, 55, 0
1, 28680, Note_on_c, 1, 46, 0
1, 28680, Note_on_c, 1, 46, 64
1, 28680, Note_on_c, 1, 53, 64
1, 28720, Note_on_c, 0, 68, 0
1, 28720, Note_on_c, 0, 65, 64
1, 28760, Note_on_c, 0, 65, 0
1, 28760, Note_on_c, 0, 62, 64
1, 28800, Note_on_c, 0, 62, 0
1, 28800, Note_on_c, 0, 70, 80
1, 28800, Note_on_c, 1, 53, 0
1, 28800, Note_on_c, 1, 46, 0
1, 28920, Note_on_c, 1, 46, 80
1, 28920, Note_on_c, 1, 55, 80
1, 29040, Note_on_c, 1, 55, 0
1, 29040, Note_on_c, 1, 46, 0
1, 29040, Note_on_c, 1, 46, 80
1, 29040, Note_on_c, 1, 55, 80
1, 29080, Note_on_c, 0, 70, 0
1, 29080, Note_on_c, 0, 67, 80
1, 29120, Note_on_c, 0, 67, 0
1, 29120, Note_on_c, 0, 63, 80
1, 29160, Note_on_c, 0, 63, 0
1, 29160, Note_on_c, 0, 68, 80
1, 29160, Note_on_c, 1, 55, 0
1, 29160, Note_on_c, 1, 46, 0
1, 29160, Note_on_c, 1, 46, 80
1, 29160, Note_on_c, 1, 53, 80
1, 29200, Note_on_c, 0, 68, 0
1, 29200, Note_on_c, 0, 65, 80
1, 29240, Note_on_c, 0, 65, 0
1, 29240, Note_on_c, 0, 62, 80
1, 29280, Note_on_c, 0, 62, 0
1, 29280, Note_on_c, 0, 70, 48
1, 29280, Note_on_c, 1, 53, 0
1, 29280, Note_on_c, 1, 46, 0
1, 29400, Note_on_c, 1, 46, 48
1, 29400, Note_on_c, 1, 55, 48
1, 29520, Note_on_c, 1, 55, 0
1, 29520, Note_on_c, 1, 46, 0
1, 29520, Note_on_c, 1, 46, 48
1, 29520, Note_on_c, 1, 55, 48
1, 29560, Note_on_c, 0, 70, 0
1, 29560, Note_on_c, 0, 67, 48
1, 29600, Note_on_c, 0, 67, 0
1, 29600, Note_on_c, 0, 63, 48
1, 29640, Note_on_c, 0, 63, 0
1, 29640, Note_on_c, 0, 68, 48
1, 29640, Note_on_c, 1, 55, 0
1, 29640, Note_on_c, 1, 46, 0
1, 29640, Note_on_c, 1, 46, 48
1, 29640, Note_on_c, 1, 53, 48
1, 29680, Note_on_c, 0, 68, 0
1, 29680, Note_on_c, 0, 65, 48
1, 29720, Note_on_c, 0, 65, 0
1, 29720, Note_on_c, 0, 62, 48
1, 29760, Note_on_c, 0, 62, 0
1, 29760, Note_on_c, 0, 70, 80
1, 29760, Note_on_c, 1, 53, 0
1, 29760, Note_on_c, 1, 46, 0
1, 29880, Note_on_c, 1, 46, 80
1, 29880, Note_on_c, 1, 55, 80
1, 30000, Note_on_c, 1, 55, 0
1, 30000, Note_on_c, 1, 46, 0
1, 30000, Note_on_c, 1, 46, 80
1, 30000, Note_on_c, 1, 55, 80
1, 30040, Note_on_c, 0, 70, 0
1, 30040, Note_on_c, 0, 67, 80
1, 30080, Note_on_c, 0, 67, 0
1, 30080, Note_on_c, 0, 63, 80
1, 30120, Note_on_c, 0, 63, 0
1, 30120, Note_on_c, 0, 72, 80
1, 30120, Note_on_c, 1, 55, 0
1, 30120, Note_on_c, 1, 46, 0
1, 30120, Note_on_c, 1, 46, 80
1, 30120, Note_on_c, 1, 56, 80
1, 30160, Note_on_c, 0, 72, 0
1, 30160, Note_on_c, 0, 68, 80
1, 30200, Note_on_c, 0, 68, 0
1, 30200, Note_on_c, 0, 65, 80
1, 30240, Note_on_c, 0, 65, 0
1, 30240, Note_on_c, 0, 74, 80
1, 30240, Note_on_c, 1, 56, 0
1, 30240, Note_on_c, 1, 46, 0
1, 30240, Note_on_c, 1, 46, 80
1, 30240, Note_on_c, 1, 53, 80
1, 30280, Note_on_c, 0, 74, 0
1, 30280, Note_on_c, 0, 68, 81
1, 30320, Note_on_c, 0, 68, 0
1, 30320, Note_on_c, 0, 65, 81
1, 30360, Note_on_c, 0, 65, 0
1, 30360, Note_on_c, 0, 75, 82
1, 30360, Note_on_c, 1, 53, 0
1, 30360, Note_on_c, 1, 46, 0
1, 30360, Note_on_c, 1, 46, 82
1, 30360, Note_on_c, 1, 55, 82
1, 30400, Note_on_c, 0, 75, 0
1, 30400, Note_on_c, 0, 70, 83
1, 30440, Note_on_c, 0, 70, 0
1, 30440, Note_on_c, 0, 67, 83
1, 30480, Note_on_c, 0, 67, 0
1, 30480, Note_on_c, 0, 77, 84
1, 30480, Note_on_c, 1, 55, 0
1, 30480, Note_on_c, 1, 46, 0
1, 30480, Note_on_c, 1, 46, 84
1, 30480, Note_on_c, 1, 50, 84
1, 30520, Note_on_c, 0, 77, 0
1, 30520, Note_on_c, 0, 74, 85
1, 30560, Note_on_c, 0, 74, 0
1, 30560, Note_on_c, 0, 70, 85
1, 30600, Note_on_c, 0, 70, 0
1, 30600, Note_on_c, 0, 79, 86
1, 30600, Note_on_c, 1, 50, 0
1, 30600, Note_on_c, 1, 46, 0
1, 30600, Note_on_c, 1, 46, 86
1, 30600, Note_on_c, 1, 51, 86
1, 30640, Note_on_c, 0, 79, 0
1, 30640, Note_on_c, 0, 75, 87
1, 30680, Note_on_c, 0, 75, 0
1, 30680, Note_on_c, 0, 70, 87
1, 30720, Note_on_c, 0, 70, 0
1, 30720, Note_on_c, 0, 80, 88
1, 30720, Note_on_c, 1, 51, 0
1, 30720, Note_on_c, 1, 46, 0
1, 30720, Note_on_c, 1, 53, 88
1, 30720, Note_on_c, 1, 46, 88
1, 30840, Note_on_c, 0, 80, 0
1, 30840, Note_on_c, 1, 46, 0
1, 30840, Note_on_c, 1, 53, 0
1, 31200, Note_on_c, 1, 63, 40
1, 31240, Note_on_c, 1, 63, 0
1, 31240, Note_on_c, 1, 67, 40
1, 31280, Note_on_c, 1, 67, 0
1, 31280, Note_on_c, 1, 70, 40
1, 31320, Note_on_c, 1, 70, 0
1, 31320, Note_on_c, 1, 63, 40
1, 31360, Note_on_c, 1, 63, 0
1, 31360, Note_on_c, 1, 67, 40
1, 31400, Note_on_c, 1, 67, 0
1, 31400, Note_on_c, 1, 70, 40
1, 31440, Note_on_c, 1, 70, 0
1, 31440, Note_on_c, 1, 63, 40
1, 31480, Note_on_c, 1, 63, 0
1, 31480, Note_on_c, 1, 67, 40
1, 31520, Note_on_c, 1, 67, 0
1, 31520, Note_on_c, 1, 70, 40
1, 31560, Note_on_c, 0, 80, 56
1, 31560, Note_on_c, 1, 70, 0
1, 31560, Note_on_c, 1, 63, 40
1, 31590, Note_on_c, 0, 80, 0
1, 31590, Note_on_c, 0, 79, 56
1, 31600, Note_on_c, 1, 63, 0
1, 31600, Note_on_c, 1, 67, 40
1, 31620, Note_on_c, 0, 79, 0
1, 31620, Note_on_c, 0, 77, 56
1, 31640, Note_on_c, 1, 67, 0
1, 31640, Note_on_c, 1, 70, 40
1, 31650, Note_on_c, 0, 77, 0
1, 31650, Note_on_c, 0, 75, 56
1, 31680, Note_on_c, 0, 75, 0
1, 31680, Note_on_c, 0, 74, 56
1, 31680, Note_on_c, 1, 70, 0
1, 31680, Note_on_c, 1, 65, 40
1, 31720, Note_on_c, 1, 65, 0
1, 31720, Note_on_c, 1, 68, 40
1, 31740, Note_on_c, 0, 74, 0
1, 31760, Note_on_c, 1, 68, 0
1, 31760, Note_on_c, 1, 70, 40
1, 31800, Note_on_c, 1, 70, 0
1, 31800, Note_on_c, 1, 65, 40
1, 31840, Note_on_c, 1, 65, 0
1, 31840, Note_on_c, 1, 68, 40
1, 31880, Note_on_c, 1, 68, 0
1, 31880, Note_on_c, 1, 70, 40
1, 31920, Note_on_c, 1, 70, 0
1, 31920, Note_on_c, 1, 62, 40
1, 31960, Note_on_c, 1, 62, 0
1, 31960, Note_on_c, 1, 65, 40
1, 32000, Note_on_c, 1, 65, 0
1, 32000, Note_on_c, 1, 70, 40
1, 32040, Note_on_c, 0, 86, 56
1, 32040, Note_on_c, 1, 70, 0
1, 32040, Note_on_c, 1, 62, 40
1, 32070, Note_on_c, 0, 86, 0
1, 32070, Note_on_c, 0, 84, 56
1, 32080, Note_on_c, 1, 62, 0
1, 32080, Note_on_c, 1, 65, 40
1, 32100, Note_on_c, 0, 84, 0
1, 32100, Note_on_c, 0, 82, 56
1, 32120, Note_on_c, 1, 65, 0
1, 32120, Note_on_c, 1, 70, 40
1, 32130, Note_on_c, 0, 82, 0
1, 32130, Note_on_c, 0, 80, 56
1, 32160, Note_on_c, 0, 80, 0
1, 32160, Note_on_c, 0, 79, 56
1, 32160, Note_on_c, 1, 70, 0
1, 32160, Note_on_c, 1, 63, 40
1, 32200, Note_on_c, 1, 63, 0
1, 32200, Note_on_c, 1, 67, 41
1, 32240, Note_on_c, 1, 67, 0
1, 32240, Note_on_c, 1, 70, 43
1, 32280, Note_on_c, 0, 79, 0
1, 32280, Note_on_c, 1, 70, 0
1, 32280, Note_on_c, 1, 63, 44
1, 32320, Note_on_c, 1, 63, 0
1, 32320, Note_on_c, 1, 67, 45
1, 32360, Note_on_c, 1, 67, 0
1, 32360, Note_on_c, 1, 70, 47
1, 32400, Note_on_c, 1, 70, 0
1, 32400, Note_on_c, 1, 63, 48
1, 32440, Note_on_c, 1, 63, 0
1, 32440, Note_on_c, 1, 67, 49
1, 32480, Note_on_c, 1, 67, 0
1, 32480, Note_on_c, 1, 70, 51
1, 32520, Note_on_c, 0, 80, 65
1, 32520, Note_on_c, 1, 70, 0
1, 32520, Note_on_c, 1, 63, 52
1, 32550, Note_on_c, 0, 80, 0
1, 32550, Note_on_c, 0, 79, 66
1, 32560, Note_on_c, 1, 63, 0
1, 32560, Note_on_c, 1, 67, 53
1, 32580, Note_on_c, 0, 79, 0
1, 32580, Note_on_c, 0, 77, 67
1, 32600, Note_on_c, 1, 67, 0
1, 32600, Note_on_c, 1, 70, 55
1, 32610, Note_on_c, 0, 77, 0
1, 32610, Note_on_c, 0, 75, 67
1, 32640, Note_on_c, 0, 75, 0
1, 32640, Note_on_c, 0, 74, 68
1, 32640, Note_on_c, 1, 70, 0
1, 32640, Note_on_c, 1, 65, 56
1, 32680, Note_on_c, 1, 65, 0
1, 32680, Note_on_c, 1, 68, 57
1, 32700, Note_on_c, 0, 74, 0
1, 32720, Note_on_c, 1, 68, 0
1, 32720, Note_on_c, 1, 70, 59
1, 32760, Note_on_c, 1, 70, 0
1, 32760, Note_on_c, 1, 65, 60
1, 32800, Note_on_c, 1, 65, 0
1, 32800, Note_on_c, 1, 68, 61
1, 32840, Note_on_c, 1, 68, 0
1, 32840, Note_on_c, 1, 70, 63
1, 32880, Note_on_c, 1, 70, 0
1, 32880, Note_on_c, 1, 62, 64
1, 32920, Note_on_c, 1, 62, 0
1, 32920, Note_on_c, 1, 65, 65
1, 32960, Note_on_c, 1, 65, 0
1, 32960, Note_on_c, 1, 70, 67
1, 33000, Note_on_c, 0, 86, 77
1, 33000, Note_on_c, 1, 70, 0
1, 33000, Note_on_c, 1, 62, 68
1, 33030, Note_on_c, 0, 86, 0
1, 33030, Note_on_c, 0, 84, 78
1, 33040, Note_on_c, 1, 62, 0
1, 33040, Note_on_c, 1, 65, 69
1, 33060, Note_on_c, 0, 84, 0
1, 33060, Note_on_c, 0, 82, 79
1, 33080, Note_on_c, 1, 65, 0
1, 33080, Note_on_c, 1, 70, 71
1, 33090, Note_on_c, 0, 82, 0
1, 33090, Note_on_c, 0, 80, 79
1, 33120, Note_on_c, 0, 80, 0
1, 33120, Note_on_c, 0, 79, 80
1, 33120, Note_on_c, 1, 70, 0
1, 33120, Note_on_c, 1, 63, 80
1, 33160, Note_on_c, 1, 63, 0
1, 33160, Note_on_c, 1, 67, 80
1, 33200, Note_on_c, 1, 67, 0
1, 33200, Note_on_c, 1, 70, 80
1, 33240, Note_on_c, 0, 79, 0
1, 33240, Note_on_c, 0, 80, 80
1, 33240, Note_on_c, 1, 70, 0
1, 33240, Note_on_c, 1, 63, 80
1, 33270, Note_on_c, 0, 80, 0
1, 33270, Note_on_c, 0, 79, 80
1, 33280, Note_on_c, 1, 63, 0
1, 33280, Note_on_c, 1, 67, 80
1, 33300, Note_on_c, 0, 79, 0
1, 33300, Note_on_c, 0, 77, 80
1, 33320, Note_on_c, 1, 67, 0
1, 33320, Note_on_c, 1, 70, 80
1, 33330, Note_on_c, 0, 77, 0
1, 33330, Note_on_c, 0, 75, 80
1, 33360, Note_on_c, 0, 75, 0
1, 33360, Note_on_c, 0, 74, 80
1, 33360, Note_on_c, 1, 70, 0
1, 33360, Note_on_c, 1, 65, 80
1, 33400, Note_on_c, 1, 65, 0
1, 33400, Note_on_c, 1, 68, 80
1, 33408, Note_on_c, 0, 74, 0
1, 33440, Note_on_c, 1, 68, 0
1, 33440, Note_on_c, 1, 70, 80
1, 33480, Note_on_c, 0, 86, 80
1, 33480, Note_on_c, 1, 70, 0
1, 33480, Note_on_c, 1, 62, 80
1, 33510, Note_on_c, 0, 86, 0
1, 33510, Note_on_c, 0, 84, 80
1, 33520, Note_on_c, 1, 62, 0
1, 33520, Note_on_c, 1, 65, 80
1, 33540, Note_on_c, 0, 84, 0
1, 33540, Note_on_c, 0, 82, 80
1, 33560, Note_on_c, 1, 65, 0
1, 33560, Note_on_c, 1, 70, 80
1, 33570, Note_on_c, 0, 82, 0
1, 33570, Note_on_c, 0, 80, 80
1, 33600, Note_on_c, 0, 80, 0
1, 33600, Note_on_c, 0, 79, 80
1, 33600, Note_on_c, 1, 70, 0
1, 33600, Note_on_c, 1, 63, 80
1, 33640, Note_on_c, 1, 63, 0
1, 33640, Note_on_c, 1, 67, 80
1, 33680, Note_on_c, 1, 67, 0
1, 33680, Note_on_c, 1, 70, 80
1, 33720, Note_on_c, 0, 79, 0
1, 33720, Note_on_c, 0, 80, 80
1, 33720, Note_on_c, 1, 70, 0
1, 33720, Note_on_c, 1, 63, 80
1, 33750, Note_on_c, 0, 80, 0
1, 33750, Note_on_c, 0, 79, 80
1, 33760, Note_on_c, 1, 63, 0
1, 33760, Note_on_c, 1, 67, 80
1, 33780, Note_on_c, 0, 79, 0
1, 33780, Note_on_c, 0, 77, 80
1, 33800, Note_on_c, 1, 67, 0
1, 33800, Note_on_c, 1, 70, 80
1, 33810, Note_on_c, 0, 77, 0
1, 33810, Note_on_c, 0, 75, 80
1, 33840, Note_on_c, 0, 75, 0
1, 33840, Note_on_c, 0, 74, 80
1, 33840, Note_on_c, 1, 70, 0
1, 33840, Note_on_c, 1, 65, 80
1, 33880, Note_on_c, 1, 65, 0
1, 33880, Note_on_c, 1, 68, 80
1, 33888, Note_on_c, 0, 74, 0
1, 33920, Note_on_c, 1, 68, 0
1, 33920, Note_on_c, 1, 70, 80
1, 33960, Note_on_c, 0, 86, 80
1, 33960, Note_on_c, 1, 70, 0
1, 33960, Note_on_c, 1, 62, 80
1, 33990, Note_on_c, 0, 86, 0
1, 33990, Note_on_c, 0, 84, 80
1, 34000, Note_on_c, 1, 62, 0
1, 34000, Note_on_c, 1, 65, 80
1, 34020, Note_on_c, 0, 84, 0
1, 34020, Note_on_c, 0, 82, 80
1, 34040, Note_on_c, 1, 65, 0
1, 34040, Note_on_c, 1, 70, 80
1, 34050, Note_on_c, 0, 82, 0
1, 34050, Note_on_c, 0, 80, 80
1, 34080, Note_on_c, 0, 80, 0
1, 34080, Note_on_c, 0, 79, 80
1, 34080, Note_on_c, 1, 70, 0
1, 34080, Note_on_c, 1, 63, 80
1, 34200, Note_on_c, 0, 79, 0
1, 34200, Note_on_c, 0, 87, 80
1, 34240, Note_on_c, 0, 87, 0
1, 34240, Note_on_c, 0, 86, 80
1, 34280, Note_on_c, 0, 86, 0
1, 34280, Note_on_c, 0, 84, 80
1, 34320, Note_on_c, 0, 84, 0
1, 34320, Note_on_c, 0, 82, 80
1, 34320, Note_on_c, 1, 63, 0
1, 34360, Note_on_c, 0, 82, 0
1, 34360, Note_on_c, 0, 80, 80
1, 34400, Note_on_c, 0, 80, 0
1, 34400, Note_on_c, 0, 79, 80
1, 34440, Note_on_c, 0, 79, 0
1, 34440, Note_on_c, 0, 77, 80
1, 34480, Note_on_c, 0, 77, 0
1, 34480, Note_on_c, 0, 75, 80
1, 34520, Note_on_c, 0, 75, 0
1, 34520, Note_on_c, 0, 74, 80
1, 34560, Note_on_c, 0, 74, 0
1, 34560, Note_on_c, 0, 72, 80
1, 34560, Note_on_c, 1, 56, 80
1, 34632, Note_on_c, 0, 72, 0
1, 34740, Note_on_c, 0, 76, 80
1, 34800, Note_on_c, 0, 76, 0
1, 34800, Note_on_c, 0, 77, 80
1, 34800, Note_on_c, 1, 56, 0
1, 34860, Note_on_c, 0, 77, 0
1, 34860, Note_on_c, 0, 78, 80
1, 34920, Note_on_c, 0, 78, 0
1, 34920, Note_on_c, 0, 79, 80
1, 34980, Note_on_c, 0, 79, 0
1, 34980, Note_on_c, 0, 80, 80
1, 35040, Note_on_c, 0, 80, 0
1, 35040, Note_on_c, 0, 81, 80
1, 35100, Note_on_c, 0, 81, 0
1, 35100, Note_on_c, 0, 82, 80
1, 35160, Note_on_c, 0, 82, 0
1, 35160, Note_on_c, 0, 83, 80
1, 35220, Note_on_c, 0, 83, 0
1, 35220, Note_on_c, 0, 84, 80
1, 35280, Note_on_c, 0, 84, 0
1, 35280, Note_on_c, 0, 82, 80
1, 35340, Note_on_c, 0, 82, 0
1, 35340, Note_on_c, 0, 80, 80
1, 35400, Note_on_c, 0, 80, 0
1, 35400, Note_on_c, 0, 79, 80
1, 35460, Note_on_c, 0, 79, 0
1, 35460, Note_on_c, 0, 77, 80
1, 35520, Note_on_c, 0, 77, 0
1, 35520, Note_on_c, 0, 75, 80
1, 35640, Note_on_c, 1, 58, 80
1, 35640, Note_on_c, 1, 67, 80
1, 35760, Note_on_c, 1, 67, 0
1, 35760, Note_on_c, 1, 58, 0
1, 35760, Note_on_c, 1, 58, 80
1, 35760, Note_on_c, 1, 67, 80
1, 35820, Note_on_c, 0, 75, 0
1, 35820, Note_on_c, 0, 74, 80
1, 35880, Note_on_c, 0, 74, 0
1, 35880, Note_on_c, 0, 80, 80
1, 35880, Note_on_c, 1, 67, 0
1, 35880, Note_on_c, 1, 58, 0
1, 35880, Note_on_c, 1, 58, 80
1, 35880, Note_on_c, 1, 65, 80
1, 35920, Note_on_c, 0, 80, 0
1, 35920, Note_on_c, 0, 77, 80
1, 35960, Note_on_c, 0, 77, 0
1, 35960, Note_on_c, 0, 74, 80
1, 36000, Note_on_c, 0, 74, 0
1, 36000, Note_on_c, 0, 75, 80
1, 36000, Note_on_c, 1, 65, 0
1, 36000, Note_on_c, 1, 58, 0
1, 36000, Note_on_c, 1, 63, 80
1, 36120, Note_on_c, 0, 75, 0
1, 36120, Note_on_c, 1, 63, 0
1, 36240, Note_on_c, 0, 67, 56
1, 36240, Note_on_c, 0, 70, 56
1, 36336, Note_on_c, 0, 70, 0
1, 36360, Note_on_c, 0, 74, 56
1, 36408, Note_on_c, 0, 74, 0
1, 36408, Note_on_c, 0, 67, 0
1, 36420, Note_on_c, 0, 68, 56
1, 36420, Note_on_c, 0, 72, 56
1, 36468, Note_on_c, 0, 72, 0
1, 36468, Note_on_c, 0, 68, 0
1, 36480, Note_on_c, 0, 67, 56
1, 36480, Note_on_c, 0, 70, 56
1, 36480, Note_on_c, 1, 39, 56
1, 36576, Note_on_c, 0, 70, 0
1, 36576, Note_on_c, 0, 67, 0
1, 36600, Note_on_c, 1, 39, 0
1, 36960, Note_on_c, 0, 79, 56
1, 36960, Note_on_c, 0, 82, 56
1, 37080, Note_on_c, 1, 51, 56
1, 37200, Note_on_c, 1, 51, 0
1, 37200, Note_on_c, 1, 63, 56
1, 37320, Note_on_c, 0, 82, 0
1, 37320, Note_on_c, 0, 79, 0
1, 37320, Note_on_c, 0, 80, 56
1, 37320, Note_on_c, 0, 77, 56
1, 37320, Note_on_c, 1, 63, 0
1, 37380, Note_on_c, 0, 77, 0
1, 37380, Note_on_c, 0, 80, 0
1, 37440, Note_on_c, 0, 80, 56
1, 37440, Note_on_c, 0, 84, 56
1, 37560, Note_on_c, 1, 51, 56
1, 37680, Note_on_c, 1, 51, 0
1, 37680, Note_on_c, 1, 63, 56
1, 37800, Note_on_c, 0, 84, 0
1, 37800, Note_on_c, 0, 80, 0
1, 37800, Note_on_c, 0, 79, 56
1, 37800, Note_on_c, 0, 82, 56
1, 37800, Note_on_c, 1, 63, 0
1, 37860, Note_on_c, 0, 82, 0
1, 37860, Note_on_c, 0, 79, 0
1, 37920, Note_on_c, 0, 82, 80
1, 37920, Note_on_c, 0, 85, 80
1, 38040, Note_on_c, 1, 36, 80
1, 38160, Note_on_c, 1, 36, 0
1, 38160, Note_on_c, 1, 48, 80
1, 38280, Note_on_c, 0, 85, 0
1, 38280, Note_on_c, 0, 82, 0
1, 38280, Note_on_c, 0, 80, 80
1, 38280, Note_on_c, 0, 84, 80
1, 38340, Note_on_c, 0, 84, 0
1, 38340, Note_on_c, 0, 80, 0
1, 38400, Note_on_c, 0, 79, 80
1, 38400, Note_on_c, 0, 82, 80
1, 38520, Note_on_c, 0, 82, 0
1, 38520, Note_on_c, 0, 79, 0
1, 38520, Note_on_c, 0, 77, 80
1, 38520, Note_on_c, 0, 80, 80
1, 38640, Note_on_c, 0, 80, 0
1, 38640, Note_on_c, 0, 77, 0
1, 38640, Note_on_c, 0, 76, 80
1, 38640, Note_on_c, 0, 79, 80
1, 38760, Note_on_c, 0, 79, 0
1, 38760, Note_on_c, 0, 76, 0
1, 38760, Note_on_c, 0, 79, 80
1, 38760, Note_on_c, 0, 82, 80
1, 38880, Note_on_c, 0, 82, 0
1, 38880, Note_on_c, 0, 79, 0
1, 38880, Note_on_c, 0, 77, 80
1, 38880, Note_on_c, 0, 80, 80
1, 38880, Note_on_c, 1, 48, 0
1, 38880, Note_on_c, 1, 65, 80
1, 38880, Note_on_c, 1, 68, 80
1, 38940, Note_on_c, 0, 80, 0
1, 38940, Note_on_c, 0, 77, 0
1, 39000, Note_on_c, 0, 72, 80
1, 39120, Note_on_c, 0, 72, 0
1, 39120, Note_on_c, 0, 84, 80
1, 39240, Note_on_c, 0, 84, 0
1, 39240, Note_on_c, 1, 68, 0
1, 39240, Note_on_c, 1, 65, 0
1, 39240, Note_on_c, 1, 64, 80
1, 39240, Note_on_c, 1, 67, 80
1, 39300, Note_on_c, 1, 67, 0
1, 39300, Note_on_c, 1, 64, 0
1, 39360, Note_on_c, 1, 67, 80
1, 39360, Note_on_c, 1, 70, 80
1, 39480, Note_on_c, 0, 72, 80
1, 39600, Note_on_c, 0, 72, 0
1, 39600, Note_on_c, 0, 84, 80
1, 39720, Note_on_c, 0, 84, 0
1, 39720, Note_on_c, 1, 70, 0
1, 39720, Note_on_c, 1, 67, 0
1, 39720, Note_on_c, 1, 65, 80
1, 39720, Note_on_c, 1, 68, 80
1, 39780, Note_on_c, 1, 68, 0
1, 39780, Note_on_c, 1, 65, 0
1, 39840, Note_on_c, 1, 68, 80
1, 39840, Note_on_c, 1, 72, 80
1, 39960, Note_on_c, 0, 77, 80
1, 40080, Note_on_c, 0, 77, 0
1, 40080, Note_on_c, 0, 89, 80
1, 40200, Note_on_c, 0, 89, 0
1, 40200, Note_on_c, 0, 75, 80
1, 40200, Note_on_c, 1, 72, 0
1, 40200, Note_on_c, 1, 68, 0
1, 40200, Note_on_c, 1, 67, 80
1, 40200, Note_on_c, 1, 70, 80
1, 40260, Note_on_c, 0, 75, 0
1, 40260, Note_on_c, 0, 87, 80
1, 40320, Note_on_c, 0, 87, 0
1, 40320, Note_on_c, 0, 73, 80
1, 40320, Note_on_c, 1, 70, 0
1, 40320, Note_on_c, 1, 67, 0
1, 40320, Note_on_c, 1, 65, 80
1, 40320, Note_on_c, 1, 68, 80
1, 40380, Note_on_c, 0, 73, 0
1, 40380, Note_on_c, 0, 85, 80
1, 40440, Note_on_c, 0, 85, 0
1, 40440, Note_on_c, 0, 72, 80
1, 40440, Note_on_c, 1, 68, 0
1, 40440, Note_on_c, 1, 65, 0
1, 40440, Note_on_c, 1, 63, 80
1, 40440, Note_on_c, 1, 67, 80
1, 40500, Note_on_c, 0, 72, 0
1, 40500, Note_on_c, 0, 84, 80
1, 40560, Note_on_c, 0, 84, 0
1, 40560, Note_on_c, 0, 70, 80
1, 40560, Note_on_c, 1, 67, 0
1, 40560, Note_on_c, 1, 63, 0
1, 40560, Note_on_c, 1, 61, 80
1, 40560, Note_on_c, 1, 65, 80
1, 40620, Note_on_c, 0, 70, 0
1, 40620, Note_on_c, 0, 82, 80
1, 40680, Note_on_c, 0, 82, 0
1, 40680, Note_on_c, 0, 68, 80
1, 40680, Note_on_c, 1, 65, 0
1, 40680, Note_on_c, 1, 61, 0
1, 40680, Note_on_c, 1, 60, 80
1, 40680, Note_on_c, 1, 63, 80
1, 40740, Note_on_c, 0, 68, 0
1, 40740, Note_on_c, 0, 80, 80
1, 40800, Note_on_c, 0, 80, 0
1, 40800, Note_on_c, 0, 67, 80
1, 40800, Note_on_c, 1, 63, 0
1, 40800, Note_on_c, 1, 60, 0
1, 40800, Note_on_c, 1, 58, 80
1, 40800, Note_on_c, 1, 61, 80
1, 40860, Note_on_c, 0, 67, 0
1, 40860, Note_on_c, 0, 79, 80
1, 40920, Note_on_c, 0, 79, 0
1, 40920, Note_on_c, 0, 65, 80
1, 40920, Note_on_c, 1, 61, 0
1, 40920, Note_on_c, 1, 58, 0
1, 40920, Note_on_c, 1, 56, 80
1, 40920, Note_on_c, 1, 60, 80
1, 40980, Note_on_c, 0, 65, 0
1, 40980, Note_on_c, 0, 77, 80
1, 41040, Note_on_c, 0, 77, 0
1, 41040, Note_on_c, 0, 63, 80
1, 41040, Note_on_c, 1, 60, 0
1, 41040, Note_on_c, 1, 56, 0
1, 41040, Note_on_c, 1, 55, 80
1, 41040, Note_on_c, 1, 58, 80
1, 41100, Note_on_c, 0, 63, 0
1, 41100, Note_on_c, 0, 75, 80
1, 41160, Note_on_c, 0, 75, 0
1, 41160, Note_on_c, 0, 62, 80
1, 41160, Note_on_c, 1, 58, 0
1, 41160, Note_on_c, 1, 55, 0
1, 41160, Note_on_c, 1, 53, 80
1, 41160, Note_on_c, 1, 56, 80
1, 41220, Note_on_c, 0, 62, 0
1, 41220, Note_on_c, 0, 74, 80
1, 41280, Note_on_c, 0, 74, 0
1, 41280, Note_on_c, 0, 63, 80
1, 41280, Note_on_c, 1, 56, 0
1, 41280, Note_on_c, 1, 53, 0
1, 41280, Note_on_c, 1, 55, 80
1, 41280, Note_on_c, 1, 58, 80
1, 41340, Note_on_c, 0, 63, 0
1, 41340, Note_on_c, 0, 75, 80
1, 41400, Note_on_c, 0, 75, 0
1, 41400, Note_on_c, 0, 73, 80
1, 41460, Note_on_c, 0, 73, 0
1, 41460, Note_on_c, 0, 77, 80
1, 41520, Note_on_c, 0, 77, 0
1, 41520, Note_on_c, 0, 75, 80
1, 41580, Note_on_c, 0, 75, 0
1, 41580, Note_on_c, 0, 72, 74
1, 41640, Note_on_c, 0, 72, 0
1, 41640, Note_on_c, 0, 73, 68
1, 41700, Note_on_c, 0, 73, 0
1, 41700, Note_on_c, 0, 70, 62
1, 41760, Note_on_c, 0, 70, 0
1, 41760, Note_on_c, 0, 68, 56
1, 41760, Note_on_c, 0, 72, 56
1, 41760, Note_on_c, 1, 58, 0
1, 41760, Note_on_c, 1, 55, 0
1, 41880, Note_on_c, 1, 44, 56
1, 42000, Note_on_c, 1, 44, 0
1, 42000, Note_on_c, 1, 56, 56
1, 42120, Note_on_c, 0, 72, 0
1, 42120, Note_on_c, 0, 68, 0
1, 42120, Note_on_c, 0, 67, 56
1, 42120, Note_on_c, 0, 70, 56
1, 42120, Note_on_c, 1, 56, 0
1, 42180, Note_on_c, 0, 70, 0
1, 42180, Note_on_c, 0, 67, 0
1, 42240, Note_on_c, 0, 70, 56
1, 42240, Note_on_c, 0, 73, 56
1, 42360, Note_on_c, 1, 44, 56
1, 42480, Note_on_c, 1, 44, 0
1, 42480, Note_on_c, 1, 56, 56
1, 42600, Note_on_c, 0, 73, 0
1, 42600, Note_on_c, 0, 70, 0
1, 42600, Note_on_c, 0, 68, 56
1, 42600, Note_on_c, 0, 72, 56
1, 42600, Note_on_c, 1, 56, 0
1, 42660, Note_on_c, 0, 72, 0
1, 42660, Note_on_c, 0, 68, 0
1, 42720, Note_on_c, 0, 72, 56
1, 42720, Note_on_c, 0, 75, 56
1, 42840, Note_on_c, 1, 42, 59
1, 42960, Note_on_c, 1, 42, 0
1, 42960, Note_on_c, 1, 54, 62
1, 43080, Note_on_c, 0, 75, 0
1, 43080, Note_on_c, 0, 72, 0
1, 43080, Note_on_c, 0, 70, 65
1, 43080, Note_on_c, 0, 73, 65
1, 43080, Note_on_c, 1, 54, 0
1, 43140, Note_on_c, 0, 73, 0
1, 43140, Note_on_c, 0, 70, 0
1, 43200, Note_on_c, 0, 73, 68
1, 43200, Note_on_c, 0, 77, 68
1, 43320, Note_on_c, 1, 42, 71
1, 43440, Note_on_c, 1, 42, 0
1, 43440, Note_on_c, 1, 54, 74
1, 43560, Note_on_c, 0, 77, 0
1, 43560, Note_on_c, 0, 73, 0
1, 43560, Note_on_c, 0, 72, 77
1, 43560, Note_on_c, 0, 75, 77
1, 43560, Note_on_c, 1, 54, 0
1, 43620, Note_on_c, 0, 75, 0
1, 43620, Note_on_c, 0, 72, 0
1, 43680, Note_on_c, 0, 75, 80
1, 43680, Note_on_c, 0, 78, 80
1, 43800, Note_on_c, 1, 41, 80
1, 43920, Tempo, 681818
1, 43920, Note_on_c, 1, 41, 0
1, 43920, Note_on_c, 1, 53, 96
1, 44040, Note_on_c, 0, 78, 0
1, 44040, Note_on_c, 0, 75, 0
1, 44040, Note_on_c, 0, 73, 83
1, 44040, Note_on_c, 0, 77, 83
1, 44160, Tempo, 714286
1, 44160, Note_on_c, 0, 77, 0
1, 44160, Note_on_c, 0, 73, 0
1, 44160, Note_on_c, 0, 72, 84
1, 44160, Note_on_c, 0, 75, 84
1, 44280, Note_on_c, 0, 75, 0
1, 44280, Note_on_c, 0, 72, 0
1, 44280, Note_on_c, 0, 70, 85
1, 44280, Note_on_c, 0, 73, 85
1, 44400, Tempo, 750000
1, 44400, Note_on_c, 0, 73, 0
1, 44400, Note_on_c, 0, 70, 0
1, 44400, Note_on_c, 0, 69, 86
1, 44400, Note_on_c, 0, 72, 86
1, 44520, Note_on_c, 0, 72, 0
1, 44520, Note_on_c, 0, 69, 0
1, 44520, Note_on_c, 0, 61, 87
1, 44520, Note_on_c, 0, 65, 87
1, 44520, Note_on_c, 0, 70, 87
1, 44640, Tempo, 789474
1, 44640, Note_on_c, 0, 70, 0
1, 44640, Note_on_c, 0, 65, 0
1, 44640, Note_on_c, 0, 61, 0
1, 44640, Note_on_c, 0, 60, 88
1, 44640, Note_on_c, 0, 63, 88
1, 44640, Note_on_c, 0, 69, 88
1, 44760, Note_on_c, 0, 69, 0
1, 44760, Note_on_c, 0, 63, 0
1, 44760, Note_on_c, 0, 60, 0
1, 44760, Note_on_c, 0, 58, 89
1, 44760, Note_on_c, 0, 61, 89
1, 44760, Note_on_c, 0, 66, 89
1, 44832, Note_on_c, 0, 66, 0
1, 44832, Note_on_c, 0, 61, 0
1, 44832, Note_on_c, 0, 58, 0
1, 44880, Tempo, 833333
1, 44880, Note_on_c, 0, 57, 90
1, 44880, Note_on_c, 0, 60, 90
1, 44880, Note_on_c, 0, 65, 90
1, 44979, Note_on_c, 0, 65, 0
1, 44979, Note_on_c, 0, 60, 0
1, 44979, Note_on_c, 0, 57, 0
1, 45000, Note_on_c, 0, 55, 91
1, 45000, Note_on_c, 0, 58, 91
1, 45000, Note_on_c, 0, 64, 91
1, 45119, Note_on_c, 0, 64, 0
1, 45119, Note_on_c, 0, 58, 0
1, 45119, Note_on_c, 0, 55, 0
1, 45120, Tempo, 882353
1, 45120, Note_on_c, 0, 57, 92
1, 45120, Note_on_c, 0, 60, 92
1, 45120, Note_on_c, 0, 63, 92
1, 45360, Tempo, 937500
1, 45600, Tempo, 652174
1, 45600, Note_on_c, 0, 63, 0
1, 45600, Note_on_c, 0, 60, 0
1, 45600, Note_on_c, 0, 57, 0
1, 45600, Note_on_c, 1, 53, 0
1, 45600, Note_on_c, 1, 58, 64
1, 45640, Note_on_c, 1, 58, 0
1, 45640, Note_on_c, 1, 61, 64
1, 45680, Note_on_c, 1, 61, 0
1, 45680, Note_on_c, 1, 65, 64
1, 45720, Note_on_c, 1, 65, 0
1, 45720, Note_on_c, 1, 58, 64
1, 45760, Note_on_c, 1, 58, 0
1, 45760, Note_on_c, 1, 61, 64
1, 45800, Note_on_c, 1, 61, 0
1, 45800, Note_on_c, 1, 65, 64
1, 45840, Note_on_c, 1, 65, 0
1, 45840, Note_on_c, 1, 58, 64
1, 45880, Note_on_c, 1, 58, 0
1, 45880, Note_on_c, 1, 61, 64
1, 45920, Note_on_c, 1, 61, 0
1, 45920, Note_on_c, 1, 65, 64
1, 45960, Note_on_c, 0, 75, 80
1, 45960, Note_on_c, 1, 65, 0
1, 45960, Note_on_c, 1, 58, 64
1, 45990, Note_on_c, 0, 75, 0
1, 45990, Note_on_c, 0, 73, 80
1, 46000, Note_on_c, 1, 58, 0
1, 46000, Note_on_c, 1, 61, 64
1, 46020, Note_on_c, 0, 73, 0
1, 46020, Note_on_c, 0, 72, 80
1, 46040, Note_on_c, 1, 61, 0
1, 46040, Note_on_c, 1, 65, 64
1, 46050, Note_on_c, 0, 72, 0
1, 46050, Note_on_c, 0, 70, 80
1, 46080, Note_on_c, 0, 70, 0
1, 46080, Note_on_c, 0, 69, 80
1, 46080, Note_on_c, 1, 65, 0
1, 46080, Note_on_c, 1, 60, 64
1, 46120, Note_on_c, 1, 60, 0
1, 46120, Note_on_c, 1, 63, 64
1, 46152, Note_on_c, 0, 69, 0
1, 46160, Note_on_c, 1, 63, 0
1, 46160, Note_on_c, 1, 65, 64
1, 46200, Note_on_c, 1, 65, 0
1, 46200, Note_on_c, 1, 60, 64
1, 46240, Note_on_c, 1, 60, 0
1, 46240, Note_on_c, 1, 63, 64
1, 46280, Note_on_c, 1, 63, 0
1, 46280, Note_on_c, 1, 65, 64
1, 46320, Note_on_c, 1, 65, 0
1, 46320, Note_on_c, 1, 57, 64
1, 46360, Note_on_c, 1, 57, 0
1, 46360, Note_on_c, 1, 60, 64
1, 46400, Note_on_c, 1, 60, 0
1, 46400, Note_on_c, 1, 65, 64
1, 46440, Note_on_c, 0, 80, 80
1, 46440, Note_on_c, 1, 65, 0
1, 46440, Note_on_c, 1, 57, 64
1, 46470, Note_on_c, 0, 80, 0
1, 46470, Note_on_c, 0, 78, 80
1, 46480, Note_on_c, 1, 57, 0
1, 46480, Note_on_c, 1, 60, 64
1, 46500, Note_on_c, 0, 78, 0
1, 46500, Note_on_c, 0, 77, 80
1, 46520, Note_on_c, 1, 60, 0
1, 46520, Note_on_c, 1, 65, 64
1, 46530, Note_on_c, 0, 77, 0
1, 46530, Note_on_c, 0, 75, 80
1, 46560, Note_on_c, 0, 75, 0
1, 46560, Note_on_c, 0, 73, 80
1, 46560, Note_on_c, 1, 65, 0
1, 46560, Note_on_c, 1, 58, 64
1, 46600, Note_on_c, 1, 58, 0
1, 46600, Note_on_c, 1, 61, 64
1, 46640, Note_on_c, 1, 61, 0
1, 46640, Note_on_c, 1, 65, 64
1, 46680, Note_on_c, 0, 73, 0
1, 46680, Note_on_c, 1, 65, 0
1, 46680, Note_on_c, 1, 58, 64
1, 46720, Note_on_c, 1, 58, 0
1, 46720, Note_on_c, 1, 61, 64
1, 46760, Note_on_c, 1, 61, 0
1, 46760, Note_on_c, 1, 65, 64
1, 46800, Note_on_c, 1, 65, 0
1, 46800, Note_on_c, 1, 58, 64
1, 46840, Note_on_c, 1, 58, 0
1, 46840, Note_on_c, 1, 61, 64
1, 46880, Note_on_c, 1, 61, 0
1, 46880, Note_on_c, 1, 65, 64
1, 46920, Note_on_c, 0, 75, 80
1, 46920, Note_on_c, 1, 65, 0
1, 46920, Note_on_c, 1, 58, 64
1, 46950, Note_on_c, 0, 75, 0
1, 46950, Note_on_c, 0, 73, 80
1, 46960, Note_on_c, 1, 58, 0
1, 46960, Note_on_c, 1, 61, 64
1, 46980, Note_on_c, 0, 73, 0
1, 46980, Note_on_c, 0, 72, 80
1, 47000, Note_on_c, 1, 61, 0
1, 47000, Note_on_c, 1, 65, 64
1, 47010, Note_on_c, 0, 72, 0
1, 47010, Note_on_c, 0, 70, 80
1, 47040, Note_on_c, 0, 70, 0
1, 47040, Note_on_c, 0, 69, 80
1, 47040, Note_on_c, 1, 65, 0
1, 47040, Note_on_c, 1, 60, 64
1, 47080, Note_on_c, 1, 60, 0
1, 47080, Note_on_c, 1, 63, 64
1, 47112, Note_on_c, 0, 69, 0
1, 47120, Note_on_c, 1, 63, 0
1, 47120, Note_on_c, 1, 65, 64
1, 47160, Note_on_c, 1, 65, 0
1, 47160, Note_on_c, 1, 60, 64
1, 47200, Note_on_c, 1, 60, 0
1, 47200, Note_on_c, 1, 63, 64
1, 47240, Note_on_c, 1, 63, 0
1, 47240, Note_on_c, 1, 65, 64
1, 47280, Note_on_c, 1, 65, 0
1, 47280, Note_on_c, 1, 57, 64
1, 47320, Note_on_c, 1, 57, 0
1, 47320, Note_on_c, 1, 60, 64
1, 47360, Note_on_c, 1, 60, 0
1, 47360, Note_on_c, 1, 65, 64
1, 47400, Note_on_c, 0, 80, 80
1, 47400, Note_on_c, 1, 65, 0
1, 47400, Note_on_c, 1, 57, 64
1, 47430, Note_on_c, 0, 80, 0
1, 47430, Note_on_c, 0, 78, 80
1, 47440, Note_on_c, 1, 57, 0
1, 47440, Note_on_c, 1, 60, 64
1, 47460, Note_on_c, 0, 78, 0
1, 47460, Note_on_c, 0, 77, 80
1, 47480, Note_on_c, 1, 60, 0
1, 47480, Note_on_c, 1, 65, 64
1, 47490, Note_on_c, 0, 77, 0
1, 47490, Note_on_c, 0, 75, 80
1, 47520, Note_on_c, 0, 75, 0
1, 47520, Note_on_c, 0, 73, 80
1, 47520, Note_on_c, 1, 65, 0
1, 47520, Note_on_c, 1, 58, 64
1, 47560, Note_on_c, 1, 58, 0
1, 47560, Note_on_c, 1, 61, 64
1, 47600, Note_on_c, 1, 61, 0
1, 47600, Note_on_c, 1, 65, 64
1, 47640, Note_on_c, 0, 73, 0
1, 47640, Note_on_c, 1, 65, 0
1, 47640, Note_on_c, 1, 58, 64
1, 47680, Note_on_c, 1, 58, 0
1, 47680, Note_on_c, 1, 61, 64
1, 47720, Note_on_c, 1, 61, 0
1, 47720, Note_on_c, 1, 65, 64
1, 47760, Note_on_c, 1, 65, 0
1, 47760, Note_on_c, 1, 58, 64
1, 47800, Note_on_c, 1, 58, 0
1, 47800, Note_on_c, 1, 61, 64
1, 47840, Note_on_c, 1, 61, 0
1, 47840, Note_on_c, 1, 65, 64
1, 47880, Note_on_c, 0, 78, 80
1, 47880, Note_on_c, 1, 65, 0
1, 47880, Note_on_c, 1, 58, 64
1, 47910, Note_on_c, 0, 78, 0
1, 47910, Note_on_c, 0, 77, 80
1, 47920, Note_on_c, 1, 58, 0
1, 47920, Note_on_c, 1, 61, 64
1, 47940, Note_on_c, 0, 77, 0
1, 47940, Note_on_c, 0, 75, 80
1, 47960, Note_on_c, 1, 61, 0
1, 47960, Note_on_c, 1, 65, 64
1, 47970, Note_on_c, 0, 75, 0
1, 47970, Note_on_c, 0, 73, 80
1, 48000, Note_on_c, 0, 73, 0
1, 48000, Note_on_c, 0, 72, 80
1, 48000, Note_on_c, 1, 65, 0
1, 48000, Note_on_c, 1, 56, 64
1, 48040, Note_on_c, 1, 56, 0
1, 48040, Note_on_c, 1, 63, 64
1, 48072, Note_on_c, 0, 72, 0
1, 48080, Note_on_c, 1, 63, 0
1, 48080, Note_on_c, 1, 66, 64
1, 48120, Note_on_c, 1, 66, 0
1, 48120, Note_on_c, 1, 56, 64
1, 48160, Note_on_c, 1, 56, 0
1, 48160, Note_on_c, 1, 63, 64
1, 48200, Note_on_c, 1, 63, 0
1, 48200, Note_on_c, 1, 66, 64
1, 48240, Note_on_c, 1, 66, 0
1, 48240, Note_on_c, 1, 56, 64
1, 48280, Note_on_c, 1, 56, 0
1, 48280, Note_on_c, 1, 63, 64
1, 48320, Note_on_c, 1, 63, 0
1, 48320, Note_on_c, 1, 66, 64
1, 48360, Note_on_c, 0, 84, 80
1, 48360, Note_on_c, 1, 66, 0
1, 48360, Note_on_c, 1, 56, 64
1, 48390, Note_on_c, 0, 84, 0
1, 48390, Note_on_c, 0, 82, 80
1, 48400, Note_on_c, 1, 56, 0
1, 48400, Note_on_c, 1, 63, 64
1, 48420, Note_on_c, 0, 82, 0
1, 48420, Note_on_c, 0, 80, 80
1, 48440, Note_on_c, 1, 63, 0
1, 48440, Note_on_c, 1, 66, 64
1, 48450, Note_on_c, 0, 80, 0
1, 48450, Note_on_c, 0, 78, 80
1, 48480, Note_on_c, 0, 78, 0
1, 48480, Note_on_c, 0, 77, 80
1, 48480, Note_on_c, 1, 66, 0
1, 48480, Note_on_c, 1, 61, 64
1, 48520, Note_on_c, 1, 61, 0
1, 48520, Note_on_c, 1, 65, 64
1, 48560, Note_on_c, 1, 65, 0
1, 48560, Note_on_c, 1, 68, 64
1, 48600, Note_on_c, 0, 77, 0
1, 48600, Note_on_c, 1, 68, 0
1, 48600, Note_on_c, 1, 61, 64
1, 48640, Note_on_c, 1, 61, 0
1, 48640, Note_on_c, 1, 65, 64
1, 48680, Note_on_c, 1, 65, 0
1, 48680, Note_on_c, 1, 68, 64
1, 48720, Note_on_c, 1, 68, 0
1, 48720, Note_on_c, 1, 61, 64
1, 48760, Note_on_c, 1, 61, 0
1, 48760, Note_on_c, 1, 65, 64
1, 48800, Note_on_c, 1, 65, 0
1, 48800, Note_on_c, 1, 68, 64
1, 48840, Note_on_c, 0, 78, 80
1, 48840, Note_on_c, 1, 68, 0
1, 48840, Note_on_c, 1, 61, 64
1, 48870, Note_on_c, 0, 78, 0
1, 48870, Note_on_c, 0, 77, 80
1, 48880, Note_on_c, 1, 61, 0
1, 48880, Note_on_c, 1, 65, 64
1, 48900, Note_on_c, 0, 77, 0
1, 48900, Note_on_c, 0, 75, 80
1, 48920, Note_on_c, 1, 65, 0
1, 48920, Note_on_c, 1, 68, 64
1, 48930, Note_on_c, 0, 75, 0
1, 48930, Note_on_c, 0, 73, 80
1, 48960, Note_on_c, 0, 73, 0
1, 48960, Note_on_c, 0, 72, 80
1, 48960, Note_on_c, 1, 68, 0
1, 48960, Note_on_c, 1, 63, 64
1, 49000, Note_on_c, 1, 63, 0
1, 49000, Note_on_c, 1, 66, 64
1, 49032, Note_on_c, 0, 72, 0
1, 49040, Note_on_c, 1, 66, 0
1, 49040, Note_on_c, 1, 68, 64
1, 49080, Note_on_c, 1, 68, 0
1, 49080, Note_on_c, 1, 63, 64
1, 49120, Note_on_c, 1, 63, 0
1, 49120, Note_on_c, 1, 66, 64
1, 49160, Note_on_c, 1, 66, 0
1, 49160, Note_on_c, 1, 68, 64
1, 49200, Note_on_c, 1, 68, 0
1, 49200, Note_on_c, 1, 60, 64
1, 49240, Note_on_c, 1, 60, 0
1, 49240, Note_on_c, 1, 63, 64
1, 49280, Note_on_c, 1, 63, 0
1, 49280, Note_on_c, 1, 68, 64
1, 49320, Note_on_c, 0, 84, 80
1, 49320, Note_on_c, 1, 68, 0
1, 49320, Note_on_c, 1, 60, 64
1, 49350, Note_on_c, 0, 84, 0
1, 49350, Note_on_c, 0, 82, 80
1, 49360, Note_on_c, 1, 60, 0
1, 49360, Note_on_c, 1, 63, 64
1, 49380, Note_on_c, 0, 82, 0
1, 49380, Note_on_c, 0, 80, 80
1, 49400, Note_on_c, 1, 63, 0
1, 49400, Note_on_c, 1, 68, 64
1, 49410, Note_on_c, 0, 80, 0
1, 49410, Note_on_c, 0, 78, 80
1, 49440, Note_on_c, 0, 78, 0
1, 49440, Note_on_c, 0, 77, 80
1, 49440, Note_on_c, 1, 68, 0
1, 49440, Note_on_c, 1, 61, 80
1, 49560, Note_on_c, 0, 77, 0
1, 49560, Note_on_c, 0, 89, 80
1, 49600, Note_on_c, 0, 89, 0
1, 49600, Note_on_c, 0, 87, 80
1, 49640, Note_on_c, 0, 87, 0
1, 49640, Note_on_c, 0, 85, 80
1, 49680, Note_on_c, 0, 85, 0
1, 49680, Note_on_c, 0, 84, 80
1, 49680, Note_on_c, 1, 61, 0
1, 49720, Note_on_c, 0, 84, 0
1, 49720, Note_on_c, 0, 82, 80
1, 49760, Note_on_c, 0, 82, 0
1, 49760, Note_on_c, 0, 80, 80
1, 49800, Note_on_c, 0, 80, 0
1, 49800, Note_on_c, 0, 78, 80
1, 49840, Note_on_c, 0, 78, 0
1, 49840, Note_on_c, 0, 77, 80
1, 49880, Note_on_c, 0, 77, 0
1, 49880, Note_on_c, 0, 75, 80
1, 49920, Note_on_c, 0, 75, 0
1, 49920, Note_on_c, 0, 73, 80
1, 49992, Note_on_c, 0, 73, 0
1, 50040, Note_on_c, 0, 77, 80
1, 50040, Note_on_c, 1, 65, 80
1, 50080, Note_on_c, 0, 77, 0
1, 50080, Note_on_c, 0, 75, 80
1, 50080, Note_on_c, 1, 65, 0
1, 50080, Note_on_c, 1, 63, 80
1, 50120, Note_on_c, 0, 75, 0
1, 50120, Note_on_c, 0, 73, 80
1, 50120, Note_on_c, 1, 63, 0
1, 50120, Note_on_c, 1, 61, 80
1, 50160, Note_on_c, 0, 73, 0
1, 50160, Note_on_c, 0, 72, 80
1, 50160, Note_on_c, 1, 61, 0
1, 50160, Note_on_c, 1, 60, 80
1, 50200, Note_on_c, 0, 72, 0
1, 50200, Note_on_c, 0, 70, 80
1, 50200, Note_on_c, 1, 60, 0
1, 50200, Note_on_c, 1, 58, 80
1, 50240, Note_on_c, 0, 70, 0
1, 50240, Note_on_c, 0, 68, 80
1, 50240, Note_on_c, 1, 58, 0
1, 50240, Note_on_c, 1, 56, 80
1, 50280, Note_on_c, 0, 68, 0
1, 50280, Note_on_c, 0, 66, 80
1, 50280, Note_on_c, 1, 56, 0
1, 50280, Note_on_c, 1, 54, 80
1, 50320, Note_on_c, 0, 66, 0
1, 50320, Note_on_c, 0, 65, 80
1, 50320, Note_on_c, 1, 54, 0
1, 50320, Note_on_c, 1, 53, 80
1, 50360, Note_on_c, 0, 65, 0
1, 50360, Note_on_c, 0, 63, 80
1, 50360, Note_on_c, 1, 53, 0
1, 50360, Note_on_c, 1, 51, 80
1, 50400, Note_on_c, 0, 63, 0
1, 50400, Note_on_c, 0, 61, 80
1, 50400, Note_on_c, 1, 51, 0
1, 50400, Note_on_c, 1, 49, 80
1, 50640, Note_on_c, 0, 61, 0
1, 50640, Note_on_c, 0, 59, 80
1, 50640, Note_on_c, 1, 49, 0
1, 50640, Note_on_c, 1, 47, 80
1, 50670, Note_on_c, 0, 59, 0
1, 50670, Note_on_c, 0, 61, 80
1, 50700, Note_on_c, 0, 61, 0
1, 50700, Note_on_c, 0, 59, 80
1, 50730, Note_on_c, 0, 59, 0
1, 50730, Note_on_c, 0, 61, 80
1, 50760, Note_on_c, 0, 61, 0
1, 50760, Note_on_c, 0, 59, 80
1, 50780, Note_on_c, 0, 59, 0
1, 50780, Note_on_c, 0, 61, 80
1, 50800, Note_on_c, 0, 61, 0
1, 50800, Note_on_c, 0, 59, 80
1, 50820, Note_on_c, 0, 59, 0
1, 50820, Note_on_c, 0, 58, 80
1, 50850, Note_on_c, 0, 58, 0
1, 50850, Note_on_c, 0, 59, 80
1, 50880, Note_on_c, 0, 59, 0
1, 50880, Note_on_c, 0, 58, 96
1, 50880, Note_on_c, 1, 47, 0
1, 50880, Note_on_c, 1, 34, 96
1, 50880, Note_on_c, 1, 46, 96
1, 50920, Note_on_c, 0, 58, 0
1, 50920, Note_on_c, 0, 62, 80
1, 50960, Note_on_c, 0, 62, 0
1, 50960, Note_on_c, 0, 65, 80
1, 51000, Note_on_c, 0, 65, 0
1, 51000, Note_on_c, 0, 62, 80
1, 51040, Note_on_c, 0, 62, 0
1, 51040, Note_on_c, 0, 65, 80
1, 51080, Note_on_c, 0, 65, 0
1, 51080, Note_on_c, 0, 70, 80
1, 51120, Note_on_c, 0, 70, 0
1, 51120, Note_on_c, 0, 65, 80
1, 51160, Note_on_c, 0, 65, 0
1, 51160, Note_on_c, 0, 70, 80
1, 51200, Note_on_c, 0, 70, 0
1, 51200, Note_on_c, 0, 74, 80
1, 51240, Note_on_c, 0, 74, 0
1, 51240, Note_on_c, 0, 70, 80
1, 51280, Note_on_c, 0, 70, 0
1, 51280, Note_on_c, 0, 74, 80
1, 51320, Note_on_c, 0, 74, 0
1, 51320, Note_on_c, 0, 77, 80
1, 51360, Note_on_c, 0, 77, 0
1, 51360, Note_on_c, 0, 74, 80
1, 51400, Note_on_c, 0, 74, 0
1, 51400, Note_on_c, 0, 77, 80
1, 51440, Note_on_c, 0, 77, 0
1, 51440, Note_on_c, 0, 80, 80
1, 51480, Note_on_c, 0, 80, 0
1, 51480, Note_on_c, 0, 77, 80
1, 51520, Note_on_c, 0, 77, 0
1, 51520, Note_on_c, 0, 80, 80
1, 51560, Note_on_c, 0, 80, 0
1, 51560, Note_on_c, 0, 83, 80
1, 51600, Note_on_c, 0, 83, 0
1, 51600, Note_on_c, 0, 82, 80
1, 51640, Note_on_c, 0, 82, 0
1, 51640, Note_on_c, 0, 80, 80
1, 51680, Note_on_c, 0, 80, 0
1, 51680, Note_on_c, 0, 78, 80
1, 51720, Note_on_c, 0, 78, 0
1, 51720, Note_on_c, 0, 77, 80
1, 51759, Note_on_c, 1, 46, 0
1, 51759, Note_on_c, 1, 34, 0
1, 51760, Note_on_c, 0, 77, 0
1, 51760, Note_on_c, 0, 75, 80
1, 51800, Note_on_c, 0, 75, 0
1, 51800, Note_on_c, 0, 74, 80
1, 51840, Note_on_c, 0, 74, 0
1, 51840, Note_on_c, 0, 75, 80
1, 51840, Note_on_c, 1, 63, 64
1, 51880, Note_on_c, 1, 63, 0
1, 51880, Note_on_c, 1, 66, 64
1, 51920, Note_on_c, 1, 66, 0
1, 51920, Note_on_c, 1, 70, 64
1, 51960, Note_on_c, 0, 75, 0
1, 51960, Note_on_c, 1, 70, 0
1, 51960, Note_on_c, 1, 63, 64
1, 52000, Note_on_c, 1, 63, 0
1, 52000, Note_on_c, 1, 66, 64
1, 52040, Note_on_c, 1, 66, 0
1, 52040, Note_on_c, 1, 70, 64
1, 52080, Note_on_c, 1, 70, 0
1, 52080, Note_on_c, 1, 63, 64
1, 52120, Note_on_c, 1, 63, 0
1, 52120, Note_on_c, 1, 66, 64
1, 52160, Note_on_c, 1, 66, 0
1, 52160, Note_on_c, 1, 70, 64
1, 52200, Note_on_c, 0, 80, 80
1, 52200, Note_on_c, 1, 70, 0
1, 52200, Note_on_c, 1, 63, 64
1, 52230, Note_on_c, 0, 80, 0
1, 52230, Note_on_c, 0, 78, 80
1, 52240, Note_on_c, 1, 63, 0
1, 52240, Note_on_c, 1, 66, 64
1, 52260, Note_on_c, 0, 78, 0
1, 52260, Note_on_c, 0, 77, 80
1, 52280, Note_on_c, 1, 66, 0
1, 52280, Note_on_c, 1, 70, 64
1, 52290, Note_on_c, 0, 77, 0
1, 52290, Note_on_c, 0, 75, 80
1, 52320, Note_on_c, 0, 75, 0
1, 52320, Note_on_c, 0, 74, 80
1, 52320, Note_on_c, 1, 70, 0
1, 52320, Note_on_c, 1, 65, 64
1, 52360, Note_on_c, 1, 65, 0
1, 52360, Note_on_c, 1, 68, 64
1, 52392, Note_on_c, 0, 74, 0
1, 52400, Note_on_c, 1, 68, 0
1, 52400, Note_on_c, 1, 70, 64
1, 52440, Note_on_c, 1, 70, 0
1, 52440, Note_on_c, 1, 65, 64
1, 52480, Note_on_c, 1, 65, 0
1, 52480, Note_on_c, 1, 68, 64
1, 52520, Note_on_c, 1, 68, 0
1, 52520, Note_on_c, 1, 70, 64
1, 52560, Note_on_c, 1, 70, 0
1, 52560, Note_on_c, 1, 62, 64
1, 52600, Note_on_c, 1, 62, 0
1, 52600, Note_on_c, 1, 65, 64
1, 52640, Note_on_c, 1, 65, 0
1, 52640, Note_on_c, 1, 70, 64
1, 52680, Note_on_c, 0, 85, 80
1, 52680, Note_on_c, 1, 70, 0
1, 52680, Note_on_c, 1, 62, 64
1, 52710, Note_on_c, 0, 85, 0
1, 52710, Note_on_c, 0, 83, 80
1, 52720, Note_on_c, 1, 62, 0
1, 52720, Note_on_c, 1, 65, 64
1, 52740, Note_on_c, 0, 83, 0
1, 52740, Note_on_c, 0, 82, 80
1, 52760, Note_on_c, 1, 65, 0
1, 52760, Note_on_c, 1, 70, 64
1, 52770, Note_on_c, 0, 82, 0
1, 52770, Note_on_c, 0, 80, 80
1, 52800, Note_on_c, 0, 80, 0
1, 52800, Note_on_c, 0, 78, 80
1, 52800, Note_on_c, 1, 70, 0
1, 52800, Note_on_c, 1, 63, 64
1, 52840, Note_on_c, 1, 63, 0
1, 52840, Note_on_c, 1, 66, 64
1, 52880, Note_on_c, 1, 66, 0
1, 52880, Note_on_c, 1, 70, 64
1, 52920, Note_on_c, 0, 78, 0
1, 52920, Note_on_c, 1, 70, 0
1, 52920, Note_on_c, 1, 63, 64
1, 52960, Note_on_c, 1, 63, 0
1, 52960, Note_on_c, 1, 66, 64
1, 53000, Note_on_c, 1, 66, 0
1, 53000, Note_on_c, 1, 70, 64
1, 53040, Note_on_c, 1, 70, 0
1, 53040, Note_on_c, 1, 63, 64
1, 53080, Note_on_c, 1, 63, 0
1, 53080, Note_on_c, 1, 66, 64
1, 53120, Note_on_c, 1, 66, 0
1, 53120, Note_on_c, 1, 70, 64
1, 53160, Note_on_c, 0, 80, 80
1, 53160, Note_on_c, 1, 70, 0
1, 53160, Note_on_c, 1, 63, 64
1, 53190, Note_on_c, 0, 80, 0
1, 53190, Note_on_c, 0, 78, 80
1, 53200, Note_on_c, 1, 63, 0
1, 53200, Note_on_c, 1, 66, 64
1, 53220, Note_on_c, 0, 78, 0
1, 53220, Note_on_c, 0, 77, 80
1, 53240, Note_on_c, 1, 66, 0
1, 53240, Note_on_c, 1, 70, 64
1, 53250, Note_on_c, 0, 77, 0
1, 53250, Note_on_c, 0, 75, 80
1, 53280, Note_on_c, 0, 75, 0
1, 53280, Note_on_c, 0, 74, 80
1, 53280, Note_on_c, 1, 70, 0
1, 53280, Note_on_c, 1, 65, 64
1, 53320, Note_on_c, 1, 65, 0
1, 53320, Note_on_c, 1, 68, 64
1, 53352, Note_on_c, 0, 74, 0
1, 53360, Note_on_c, 1, 68, 0
1, 53360, Note_on_c, 1, 70, 64
1, 53400, Note_on_c, 1, 70, 0
1, 53400, Note_on_c, 1, 65, 64
1, 53440, Note_on_c, 1, 65, 0
1, 53440, Note_on_c, 1, 68, 64
1, 53480, Note_on_c, 1, 68, 0
1, 53480, Note_on_c, 1, 70, 64
1, 53520, Note_on_c, 1, 70, 0
1, 53520, Note_on_c, 1, 62, 64
1, 53560, Note_on_c, 1, 62, 0
1, 53560, Note_on_c, 1, 65, 64
1, 53600, Note_on_c, 1, 65, 0
1, 53600, Note_on_c, 1, 70, 64
1, 53640, Note_on_c, 0, 85, 80
1, 53640, Note_on_c, 1, 70, 0
1, 53640, Note_on_c, 1, 62, 64
1, 53670, Note_on_c, 0, 85, 0
1, 53670, Note_on_c, 0, 83, 80
1, 53680, Note_on_c, 1, 62, 0
1, 53680, Note_on_c, 1, 65, 64
1, 53700, Note_on_c, 0, 83, 0
1, 53700, Note_on_c, 0, 82, 80
1, 53720, Note_on_c, 1, 65, 0
1, 53720, Note_on_c, 1, 70, 64
1, 53730, Note_on_c, 0, 82, 0
1, 53730, Note_on_c, 0, 80, 80
1, 53760, Note_on_c, 0, 80, 0
1, 53760, Note_on_c, 0, 78, 80
1, 53760, Note_on_c, 1, 70, 0
1, 53760, Note_on_c, 1, 63, 64
1, 53800, Note_on_c, 1, 63, 0
1, 53800, Note_on_c, 1, 66, 64
1, 53840, Note_on_c, 1, 66, 0
1, 53840, Note_on_c, 1, 70, 64
1, 53880, Note_on_c, 1, 70, 0
1, 53880, Note_on_c, 1, 63, 64
1, 53920, Note_on_c, 1, 63, 0
1, 53920, Note_on_c, 1, 66, 64
1, 53960, Note_on_c, 1, 66, 0
1, 53960, Note_on_c, 1, 70, 64
1, 54000, Note_on_c, 0, 78, 0
1, 54000, Note_on_c, 0, 79, 96
1, 54000, Note_on_c, 1, 70, 0
1, 54000, Note_on_c, 1, 63, 64
1, 54040, Note_on_c, 1, 63, 0
1, 54040, Note_on_c, 1, 70, 64
1, 54080, Note_on_c, 1, 70, 0
1, 54080, Note_on_c, 1, 73, 64
1, 54120, Note_on_c, 1, 73, 0
1, 54120, Note_on_c, 1, 63, 64
1, 54144, Note_on_c, 0, 79, 0
1, 54160, Note_on_c, 1, 63, 0
1, 54160, Note_on_c, 1, 70, 64
1, 54200, Note_on_c, 1, 70, 0
1, 54200, Note_on_c, 1, 73, 64
1, 54240, Note_on_c, 0, 80, 80
1, 54240, Note_on_c, 1, 73, 0
1, 54240, Note_on_c, 1, 63, 64
1, 54280, Note_on_c, 1, 63, 0
1, 54280, Note_on_c, 1, 68, 64
1, 54300, Note_on_c, 0, 80, 0
1, 54300, Note_on_c, 0, 82, 80
1, 54320, Note_on_c, 0, 82, 0
1, 54320, Note_on_c, 0, 80, 80
1, 54320, Note_on_c, 1, 68, 0
1, 54320, Note_on_c, 1, 71, 64
1, 54340, Note_on_c, 0, 80, 0
1, 54340, Note_on_c, 0, 79, 80
1, 54360, Note_on_c, 0, 79, 0
1, 54360, Note_on_c, 0, 80, 80
1, 54360, Note_on_c, 1, 71, 0
1, 54360, Note_on_c, 1, 63, 64
1, 54400, Note_on_c, 1, 63, 0
1, 54400, Note_on_c, 1, 68, 64
1, 54420, Note_on_c, 0, 80, 0
1, 54420, Note_on_c, 0, 82, 80
1, 54440, Note_on_c, 1, 68, 0
1, 54440, Note_on_c, 1, 71, 64
1, 54480, Note_on_c, 0, 82, 0
1, 54480, Note_on_c, 0, 85, 80
1, 54480, Note_on_c, 1, 71, 0
1, 54480, Note_on_c, 1, 63, 64
1, 54520, Note_on_c, 1, 63, 0
1, 54520, Note_on_c, 1, 68, 64
1, 54540, Note_on_c, 0, 85, 0
1, 54540, Note_on_c, 0, 83, 80
1, 54560, Note_on_c, 1, 68, 0
1, 54560, Note_on_c, 1, 71, 64
1, 54576, Note_on_c, 0, 83, 0
1, 54600, Note_on_c, 0, 82, 80
1, 54600, Note_on_c, 1, 71, 0
1, 54600, Note_on_c, 1, 63, 64
1, 54640, Note_on_c, 1, 63, 0
1, 54640, Note_on_c, 1, 68, 64
1, 54660, Note_on_c, 0, 82, 0
1, 54660, Note_on_c, 0, 80, 80
1, 54680, Note_on_c, 1, 68, 0
1, 54680, Note_on_c, 1, 71, 64
1, 54696, Note_on_c, 0, 80, 0
1, 54720, Note_on_c, 0, 78, 80
1, 54720, Note_on_c, 1, 71, 0
1, 54720, Note_on_c, 1, 61, 64
1, 54760, Note_on_c, 1, 61, 0
1, 54760, Note_on_c, 1, 68, 64
1, 54800, Note_on_c, 1, 68, 0
1, 54800, Note_on_c, 1, 71, 64
1, 54840, Note_on_c, 1, 71, 0
1, 54840, Note_on_c, 1, 61, 64
1, 54880, Note_on_c, 1, 61, 0
1, 54880, Note_on_c, 1, 68, 64
1, 54920, Note_on_c, 1, 68, 0
1, 54920, Note_on_c, 1, 71, 64
1, 54960, Note_on_c, 0, 78, 0
1, 54960, Note_on_c, 0, 77, 80
1, 54960, Note_on_c, 1, 71, 0
1, 54960, Note_on_c, 1, 61, 64
1, 54990, Note_on_c, 0, 77, 0
1, 54990, Note_on_c, 0, 78, 80
1, 55000, Note_on_c, 1, 61, 0
1, 55000, Note_on_c, 1, 68, 64
1, 55020, Note_on_c, 0, 78, 0
1, 55020, Note_on_c, 0, 77, 80
1, 55040, Note_on_c, 1, 68, 0
1, 55040, Note_on_c, 1, 71, 64
1, 55050, Note_on_c, 0, 77, 0
1, 55050, Note_on_c, 0, 78, 80
1, 55080, Note_on_c, 0, 78, 0
1, 55080, Note_on_c, 0, 77, 80
1, 55080, Note_on_c, 1, 71, 0
1, 55080, Note_on_c, 1, 61, 64
1, 55100, Note_on_c, 0, 77, 0
1, 55100, Note_on_c, 0, 78, 80
1, 55120, Note_on_c, 0, 78, 0
1, 55120, Note_on_c, 0, 77, 80
1, 55120, Note_on_c, 1, 61, 0
1, 55120, Note_on_c, 1, 68, 64
1, 55140, Note_on_c, 0, 77, 0
1, 55140, Note_on_c, 0, 75, 80
1, 55160, Note_on_c, 1, 68, 0
1, 55160, Note_on_c, 1, 71, 64
1, 55170, Note_on_c, 0, 75, 0
1, 55170, Note_on_c, 0, 77, 80
1, 55200, Note_on_c, 0, 77, 0
1, 55200, Note_on_c, 0, 78, 80
1, 55200, Note_on_c, 1, 71, 0
1, 55200, Note_on_c, 1, 61, 64
1, 55240, Note_on_c, 1, 61, 0
1, 55240, Note_on_c, 1, 66, 64
1, 55260, Note_on_c, 0, 78, 0
1, 55260, Note_on_c, 0, 80, 80
1, 55280, Note_on_c, 0, 80, 0
1, 55280, Note_on_c, 0, 78, 80
1, 55280, Note_on_c, 1, 66, 0
1, 55280, Note_on_c, 1, 70, 64
1, 55300, Note_on_c, 0, 78, 0
1, 55300, Note_on_c, 0, 77, 80
1, 55320, Note_on_c, 0, 77, 0
1, 55320, Note_on_c, 0, 78, 80
1, 55320, Note_on_c, 1, 70, 0
1, 55320, Note_on_c, 1, 61, 64
1, 55360, Note_on_c, 1, 61, 0
1, 55360, Note_on_c, 1, 66, 64
1, 55380, Note_on_c, 0, 78, 0
1, 55380, Note_on_c, 0, 80, 80
1, 55400, Note_on_c, 1, 66, 0
1, 55400, Note_on_c, 1, 70, 64
1, 55440, Note_on_c, 0, 80, 0
1, 55440, Note_on_c, 0, 83, 80
1, 55440, Note_on_c, 1, 70, 0
1, 55440, Note_on_c, 1, 61, 64
1, 55480, Note_on_c, 1, 61, 0
1, 55480, Note_on_c, 1, 66, 64
1, 55500, Note_on_c, 0, 83, 0
1, 55500, Note_on_c, 0, 82, 80
1, 55520, Note_on_c, 1, 66, 0
1, 55520, Note_on_c, 1, 70, 64
1, 55536, Note_on_c, 0, 82, 0
1, 55560, Note_on_c, 0, 80, 80
1, 55560, Note_on_c, 1, 70, 0
1, 55560, Note_on_c, 1, 61, 64
1, 55600, Note_on_c, 1, 61, 0
1, 55600, Note_on_c, 1, 66, 64
1, 55620, Note_on_c, 0, 80, 0
1, 55620, Note_on_c, 0, 78, 80
1, 55640, Note_on_c, 1, 66, 0
1, 55640, Note_on_c, 1, 70, 64
1, 55656, Note_on_c, 0, 78, 0
1, 55680, Note_on_c, 0, 77, 80
1, 55680, Note_on_c, 1, 70, 0
1, 55680, Note_on_c, 1, 59, 64
1, 55720, Note_on_c, 1, 59, 0
1, 55720, Note_on_c, 1, 66, 64
1, 55760, Note_on_c, 1, 66, 0
1, 55760, Note_on_c, 1, 70, 64
1, 55800, Note_on_c, 1, 70, 0
1, 55800, Note_on_c, 1, 59, 64
1, 55840, Note_on_c, 1, 59, 0
1, 55840, Note_on_c, 1, 66, 64
1, 55880, Note_on_c, 1, 66, 0
1, 55880, Note_on_c, 1, 70, 64
1, 55920, Note_on_c, 0, 77, 0
1, 55920, Note_on_c, 0, 75, 80
1, 55920, Note_on_c, 1, 70, 0
1, 55920, Note_on_c, 1, 59, 64
1, 55950, Note_on_c, 0, 75, 0
1, 55950, Note_on_c, 0, 77, 80
1, 55960, Note_on_c, 1, 59, 0
1, 55960, Note_on_c, 1, 66, 64
1, 55980, Note_on_c, 0, 77, 0
1, 55980, Note_on_c, 0, 75, 80
1, 56000, Note_on_c, 1, 66, 0
1, 56000, Note_on_c, 1, 70, 64
1, 56010, Note_on_c, 0, 75, 0
1, 56010, Note_on_c, 0, 77, 80
1, 56040, Note_on_c, 0, 77, 0
1, 56040, Note_on_c, 0, 75, 80
1, 56040, Note_on_c, 1, 70, 0
1, 56040, Note_on_c, 1, 59, 64
1, 56060, Note_on_c, 0, 75, 0
1, 56060, Note_on_c, 0, 77, 80
1, 56080, Note_on_c, 0, 77, 0
1, 56080, Note_on_c, 0, 75, 80
1, 56080, Note_on_c, 1, 59, 0
1, 56080, Note_on_c, 1, 66, 64
1, 56100, Note_on_c, 0, 75, 0
1, 56100, Note_on_c, 0, 74, 80
1, 56120, Note_on_c, 1, 66, 0
1, 56120, Note_on_c, 1, 70, 64
1, 56130, Note_on_c, 0, 74, 0
1, 56130, Note_on_c, 0, 75, 80
1, 56160, Note_on_c, 0, 75, 0
1, 56160, Note_on_c, 0, 77, 80
1, 56160, Note_on_c, 1, 70, 0
1, 56160, Note_on_c, 1, 59, 64
1, 56200, Note_on_c, 1, 59, 0
1, 56200, Note_on_c, 1, 65, 64
1, 56220, Note_on_c, 0, 77, 0
1, 56220, Note_on_c, 0, 78, 80
1, 56235, Note_on_c, 0, 78, 0
1, 56240, Note_on_c, 0, 77, 80
1, 56240, Note_on_c, 1, 65, 0
1, 56240, Note_on_c, 1, 68, 64
1, 56260, Note_on_c, 0, 75, 80
1, 56270, Note_on_c, 0, 77, 0
1, 56275, Note_on_c, 0, 75, 0
1, 56280, Note_on_c, 0, 77, 80
1, 56280, Note_on_c, 1, 68, 0
1, 56280, Note_on_c, 1, 59, 64
1, 56320, Note_on_c, 1, 59, 0
1, 56320, Note_on_c, 1, 65, 64
1, 56340, Note_on_c, 0, 77, 0
1, 56340, Note_on_c, 0, 78, 80
1, 56360, Note_on_c, 1, 65, 0
1, 56360, Note_on_c, 1, 68, 64
1, 56400, Note_on_c, 0, 78, 0
1, 56400, Note_on_c, 0, 82, 80
1, 56400, Note_on_c, 1, 68, 0
1, 56400, Note_on_c, 1, 59, 64
1, 56440, Note_on_c, 1, 59, 0
1, 56440, Note_on_c, 1, 65, 64
1, 56460, Note_on_c, 0, 82, 0
1, 56460, Note_on_c, 0, 80, 80
1, 56480, Note_on_c, 1, 65, 0
1, 56480, Note_on_c, 1, 68, 64
1, 56496, Note_on_c, 0, 80, 0
1, 56520, Note_on_c, 0, 78, 80
1, 56520, Note_on_c, 1, 68, 0
1, 56520, Note_on_c, 1, 59, 64
1, 56560, Note_on_c, 1, 59, 0
1, 56560, Note_on_c, 1, 65, 64
1, 56580, Note_on_c, 0, 78, 0
1, 56580, Note_on_c, 0, 77, 80
1, 56600, Note_on_c, 1, 65, 0
1, 56600, Note_on_c, 1, 68, 64
1, 56616, Note_on_c, 0, 77, 0
1, 56640, Note_on_c, 0, 75, 80
1, 56640, Note_on_c, 1, 68, 0
1, 56640, Note_on_c, 1, 58, 64
1, 56680, Note_on_c, 1, 58, 0
1, 56680, Note_on_c, 1, 65, 64
1, 56720, Note_on_c, 1, 65, 0
1, 56720, Note_on_c, 1, 68, 64
1, 56760, Note_on_c, 1, 68, 0
1, 56760, Note_on_c, 1, 58, 64
1, 56800, Note_on_c, 1, 58, 0
1, 56800, Note_on_c, 1, 65, 64
1, 56840, Note_on_c, 1, 65, 0
1, 56840, Note_on_c, 1, 68, 64
1, 56880, Note_on_c, 0, 75, 0
1, 56880, Note_on_c, 0, 74, 80
1, 56880, Note_on_c, 1, 68, 0
1, 56880, Note_on_c, 1, 58, 64
1, 56910, Note_on_c, 0, 74, 0
1, 56910, Note_on_c, 0, 75, 80
1, 56920, Note_on_c, 1, 58, 0
1, 56920, Note_on_c, 1, 65, 64
1, 56940, Note_on_c, 0, 75, 0
1, 56940, Note_on_c, 0, 74, 80
1, 56960, Note_on_c, 1, 65, 0
1, 56960, Note_on_c, 1, 68, 64
1, 56970, Note_on_c, 0, 74, 0
1, 56970, Note_on_c, 0, 75, 80
1, 57000, Note_on_c, 0, 75, 0
1, 57000, Note_on_c, 0, 74, 80
1, 57000, Note_on_c, 1, 68, 0
1, 57000, Note_on_c, 1, 58, 64
1, 57015, Note_on_c, 0, 74, 0
1, 57020, Note_on_c, 0, 75, 80
1, 57040, Note_on_c, 0, 74, 80
1, 57040, Note_on_c, 1, 58, 0
1, 57040, Note_on_c, 1, 65, 64
1, 57050, Note_on_c, 0, 75, 0
1, 57055, Note_on_c, 0, 74, 0
1, 57060, Note_on_c, 0, 72, 80
1, 57080, Note_on_c, 1, 65, 0
1, 57080, Note_on_c, 1, 68, 64
1, 57090, Note_on_c, 0, 72, 0
1, 57090, Note_on_c, 0, 74, 80
1, 57120, Note_on_c, 0, 74, 0
1, 57120, Note_on_c, 0, 75, 80
1, 57120, Note_on_c, 1, 68, 0
1, 57120, Note_on_c, 1, 58, 64
1, 57160, Note_on_c, 1, 58, 0
1, 57160, Note_on_c, 1, 63, 64
1, 57200, Note_on_c, 1, 63, 0
1, 57200, Note_on_c, 1, 67, 64
1, 57240, Note_on_c, 1, 67, 0
1, 57240, Note_on_c, 1, 58, 64
1, 57280, Note_on_c, 1, 58, 0
1, 57280, Note_on_c, 1, 63, 64
1, 57320, Note_on_c, 1, 63, 0
1, 57320, Note_on_c, 1, 67, 64
1, 57360, Note_on_c, 0, 75, 0
1, 57360, Note_on_c, 1, 67, 0
1, 57360, Note_on_c, 1, 58, 64
1, 57400, Note_on_c, 1, 58, 0
1, 57400, Note_on_c, 1, 63, 64
1, 57420, Note_on_c, 0, 75, 80
1, 57440, Note_on_c, 1, 63, 0
1, 57440, Note_on_c, 1, 67, 64
1, 57480, Note_on_c, 0, 75, 0
1, 57480, Note_on_c, 0, 75, 80
1, 57480, Note_on_c, 1, 67, 0
1, 57480, Note_on_c, 1, 58, 64
1, 57500, Note_on_c, 0, 75, 0
1, 57500, Note_on_c, 0, 77, 80
1, 57520, Note_on_c, 0, 77, 0
1, 57520, Note_on_c, 0, 75, 80
1, 57520, Note_on_c, 1, 58, 0
1, 57520, Note_on_c, 1, 63, 64
1, 57540, Note_on_c, 0, 75, 0
1, 57540, Note_on_c, 0, 74, 80
1, 57560, Note_on_c, 1, 63, 0
1, 57560, Note_on_c, 1, 67, 64
1, 57570, Note_on_c, 0, 74, 0
1, 57570, Note_on_c, 0, 75, 80
1, 57600, Note_on_c, 0, 75, 0
1, 57600, Note_on_c, 0, 79, 80
1, 57600, Note_on_c, 1, 67, 0
1, 57600, Note_on_c, 1, 60, 64
1, 57640, Note_on_c, 1, 60, 0
1, 57640, Note_on_c, 1, 63, 64
1, 57680, Note_on_c, 1, 63, 0
1, 57680, Note_on_c, 1, 67, 64
1, 57720, Note_on_c, 0, 79, 0
1, 57720, Note_on_c, 0, 75, 80
1, 57720, Note_on_c, 1, 67, 0
1, 57720, Note_on_c, 1, 60, 64
1, 57760, Note_on_c, 1, 60, 0
1, 57760, Note_on_c, 1, 63, 64
1, 57792, Note_on_c, 0, 75, 0
1, 57800, Note_on_c, 1, 63, 0
1, 57800, Note_on_c, 1, 67, 64
1, 57840, Note_on_c, 1, 67, 0
1, 57840, Note_on_c, 1, 60, 64
1, 57880, Note_on_c, 1, 60, 0
1, 57880, Note_on_c, 1, 63, 64
1, 57900, Note_on_c, 0, 75, 80
1, 57920, Note_on_c, 1, 63, 0
1, 57920, Note_on_c, 1, 67, 64
1, 57960, Note_on_c, 0, 75, 0
1, 57960, Note_on_c, 0, 75, 80
1, 57960, Note_on_c, 1, 67, 0
1, 57960, Note_on_c, 1, 60, 64
1, 57980, Note_on_c, 0, 75, 0
1, 57980, Note_on_c, 0, 77, 80
1, 58000, Note_on_c, 0, 77, 0
1, 58000, Note_on_c, 0, 75, 80
1, 58000, Note_on_c, 1, 60, 0
1, 58000, Note_on_c, 1, 63, 64
1, 58020, Note_on_c, 0, 75, 0
1, 58020, Note_on_c, 0, 74, 80
1, 58040, Note_on_c, 1, 63, 0
1, 58040, Note_on_c, 1, 67, 64
1, 58050, Note_on_c, 0, 74, 0
1, 58050, Note_on_c, 0, 75, 80
1, 58080, Note_on_c, 0, 75, 0
1, 58080, Note_on_c, 0, 79, 80
1, 58080, Note_on_c, 1, 67, 0
1, 58080, Note_on_c, 1, 58, 64
1, 58120, Note_on_c, 1, 58, 0
1, 58120, Note_on_c, 1, 63, 64
1, 58160, Note_on_c, 1, 63, 0
1, 58160, Note_on_c, 1, 67, 64
1, 58200, Note_on_c, 0, 79, 0
1, 58200, Note_on_c, 0, 75, 80
1, 58200, Note_on_c, 1, 67, 0
1, 58200, Note_on_c, 1, 58, 64
1, 58240, Note_on_c, 1, 58, 0
1, 58240, Note_on_c, 1, 63, 64
1, 58280, Note_on_c, 1, 63, 0
1, 58280, Note_on_c, 1, 67, 64
1, 58320, Note_on_c, 0, 75, 0
1, 58320, Note_on_c, 1, 67, 0
1, 58320, Note_on_c, 1, 58, 64
1, 58360, Note_on_c, 1, 58, 0
1, 58360, Note_on_c, 1, 63, 64
1, 58380, Note_on_c, 0, 75, 80
1, 58400, Note_on_c, 1, 63, 0
1, 58400, Note_on_c, 1, 67, 64
1, 58440, Note_on_c, 0, 75, 0
1, 58440, Note_on_c, 0, 75, 80
1, 58440, Note_on_c, 1, 67, 0
1, 58440, Note_on_c, 1, 58, 64
1, 58460, Note_on_c, 0, 75, 0
1, 58460, Note_on_c, 0, 77, 80
1, 58480, Note_on_c, 0, 77, 0
1, 58480, Note_on_c, 0, 75, 80
1, 58480, Note_on_c, 1, 58, 0
1, 58480, Note_on_c, 1, 63, 64
1, 58500, Note_on_c, 0, 75, 0
1, 58500, Note_on_c, 0, 74, 80
1, 58520, Note_on_c, 1, 63, 0
1, 58520, Note_on_c, 1, 67, 64
1, 58530, Note_on_c, 0, 74, 0
1, 58530, Note_on_c, 0, 75, 80
1, 58560, Note_on_c, 0, 75, 0
1, 58560, Note_on_c, 0, 84, 80
1, 58560, Note_on_c, 1, 67, 0
1, 58560, Note_on_c, 1, 57, 64
1, 58600, Note_on_c, 1, 57, 0
1, 58600, Note_on_c, 1, 63, 64
1, 58640, Note_on_c, 1, 63, 0
1, 58640, Note_on_c, 1, 67, 64
1, 58680, Note_on_c, 0, 84, 0
1, 58680, Note_on_c, 0, 75, 80
1, 58680, Note_on_c, 1, 67, 0
1, 58680, Note_on_c, 1, 57, 64
1, 58720, Note_on_c, 1, 57, 0
1, 58720, Note_on_c, 1, 63, 64
1, 58752, Note_on_c, 0, 75, 0
1, 58760, Note_on_c, 1, 63, 0
1, 58760, Note_on_c, 1, 67, 64
1, 58800, Note_on_c, 1, 67, 0
1, 58800, Note_on_c, 1, 57, 64
1, 58840, Note_on_c, 1, 57, 0
1, 58840, Note_on_c, 1, 63, 64
1, 58860, Note_on_c, 0, 75, 80
1, 58880, Note_on_c, 1, 63, 0
1, 58880, Note_on_c, 1, 67, 64
1, 58920, Note_on_c, 0, 75, 0
1, 58920, Note_on_c, 0, 75, 80
1, 58920, Note_on_c, 1, 67, 0
1, 58920, Note_on_c, 1, 57, 64
1, 58940, Note_on_c, 0, 75, 0
1, 58940, Note_on_c, 0, 77, 80
1, 58960, Note_on_c, 0, 77, 0
1, 58960, Note_on_c, 0, 75, 80
1, 58960, Note_on_c, 1, 57, 0
1, 58960, Note_on_c, 1, 63, 64
1, 58980, Note_on_c, 0, 75, 0
1, 58980, Note_on_c, 0, 74, 80
1, 59000, Note_on_c, 1, 63, 0
1, 59000, Note_on_c, 1, 67, 64
1, 59010, Note_on_c, 0, 74, 0
1, 59010, Note_on_c, 0, 75, 80
1, 59040, Note_on_c, 0, 75, 0
1, 59040, Note_on_c, 0, 70, 64
1, 59040, Note_on_c, 1, 67, 0
1, 59040, Note_on_c, 1, 58, 64
1, 59080, Note_on_c, 0, 70, 0
1, 59080, Note_on_c, 0, 75, 65
1, 59080, Note_on_c, 1, 58, 0
1, 59080, Note_on_c, 1, 63, 65
1, 59120, Note_on_c, 0, 75, 0
1, 59120, Note_on_c, 0, 79, 66
1, 59120, Note_on_c, 1, 63, 0
1, 59120, Note_on_c, 1, 67, 66
1, 59160, Note_on_c, 0, 79, 0
1, 59160, Note_on_c, 0, 70, 67
1, 59160, Note_on_c, 1, 67, 0
1, 59160, Note_on_c, 1, 58, 67
1, 59200, Note_on_c, 0, 70, 0
1, 59200, Note_on_c, 0, 75, 68
1, 59200, Note_on_c, 1, 58, 0
1, 59200, Note_on_c, 1, 63, 68
1, 59240, Note_on_c, 0, 75, 0
1, 59240, Note_on_c, 0, 79, 69
1, 59240, Note_on_c, 1, 63, 0
1, 59240, Note_on_c, 1, 67, 69
1, 59280, Note_on_c, 0, 79, 0
1, 59280, Note_on_c, 0, 71, 70
1, 59280, Note_on_c, 1, 67, 0
1, 59280, Note_on_c, 1, 59, 70
1, 59320, Note_on_c, 0, 71, 0
1, 59320, Note_on_c, 0, 75, 71
1, 59320, Note_on_c, 1, 59, 0
1, 59320, Note_on_c, 1, 63, 71
1, 59360, Note_on_c, 0, 75, 0
1, 59360, Note_on_c, 0, 79, 72
1, 59360, Note_on_c, 1, 63, 0
1, 59360, Note_on_c, 1, 67, 72
1, 59400, Note_on_c, 0, 79, 0
1, 59400, Note_on_c, 0, 71, 73
1, 59400, Note_on_c, 1, 67, 0
1, 59400, Note_on_c, 1, 59, 73
1, 59440, Note_on_c, 0, 71, 0
1, 59440, Note_on_c, 0, 75, 74
1, 59440, Note_on_c, 1, 59, 0
1, 59440, Note_on_c, 1, 63, 74
1, 59480, Note_on_c, 0, 75, 0
1, 59480, Note_on_c, 0, 79, 75
1, 59480, Note_on_c, 1, 63, 0
1, 59480, Note_on_c, 1, 67, 75
1, 59520, Note_on_c, 0, 79, 0
1, 59520, Note_on_c, 0, 72, 76
1, 59520, Note_on_c, 1, 67, 0
1, 59520, Note_on_c, 1, 60, 76
1, 59560, Note_on_c, 0, 72, 0
1, 59560, Note_on_c, 0, 75, 77
1, 59560, Note_on_c, 1, 60, 0
1, 59560, Note_on_c, 1, 63, 77
1, 59600, Note_on_c, 0, 75, 0
1, 59600, Note_on_c, 0, 79, 78
1, 59600, Note_on_c, 1, 63, 0
1, 59600, Note_on_c, 1, 67, 78
1, 59640, Note_on_c, 0, 79, 0
1, 59640, Note_on_c, 0, 72, 79
1, 59640, Note_on_c, 1, 67, 0
1, 59640, Note_on_c, 1, 60, 79
1, 59680, Note_on_c, 0, 72, 0
1, 59680, Note_on_c, 0, 75, 80
1, 59680, Note_on_c, 1, 60, 0
1, 59680, Note_on_c, 1, 63, 80
1, 59720, Note_on_c, 0, 75, 0
1, 59720, Note_on_c, 0, 79, 81
1, 59720, Note_on_c, 1, 63, 0
1, 59720, Note_on_c, 1, 67, 81
1, 59760, Note_on_c, 0, 79, 0
1, 59760, Note_on_c, 0, 73, 82
1, 59760, Note_on_c, 1, 67, 0
1, 59760, Note_on_c, 1, 61, 82
1, 59800, Note_on_c, 0, 73, 0
1, 59800, Note_on_c, 0, 76, 83
1, 59800, Note_on_c, 1, 61, 0
1, 59800, Note_on_c, 1, 64, 83
1, 59840, Note_on_c, 0, 76, 0
1, 59840, Note_on_c, 0, 79, 84
1, 59840, Note_on_c, 1, 64, 0
1, 59840, Note_on_c, 1, 67, 84
1, 59880, Note_on_c, 0, 79, 0
1, 59880, Note_on_c, 0, 73, 85
1, 59880, Note_on_c, 1, 67, 0
1, 59880, Note_on_c, 1, 61, 85
1, 59920, Note_on_c, 0, 73, 0
1, 59920, Note_on_c, 0, 76, 86
1, 59920, Note_on_c, 1, 61, 0
1, 59920, Note_on_c, 1, 64, 86
1, 59960, Note_on_c, 0, 76, 0
1, 59960, Note_on_c, 0, 79, 87
1, 59960, Note_on_c, 1, 64, 0
1, 59960, Note_on_c, 1, 67, 87
1, 60000, Note_on_c, 0, 79, 0
1, 60000, Note_on_c, 0, 74, 88
1, 60000, Note_on_c, 1, 67, 0
1, 60000, Note_on_c, 1, 62, 88
1, 60040, Note_on_c, 0, 74, 0
1, 60040, Note_on_c, 0, 79, 88
1, 60040, Note_on_c, 1, 62, 0
1, 60040, Note_on_c, 1, 67, 88
1, 60080, Note_on_c, 0, 79, 0
1, 60080, Note_on_c, 0, 82, 88
1, 60080, Note_on_c, 1, 67, 0
1, 60080, Note_on_c, 1, 70, 88
1, 60120, Note_on_c, 0, 82, 0
1, 60120, Note_on_c, 0, 86, 88
1, 60120, Note_on_c, 1, 70, 0
1, 60120, Note_on_c, 1, 74, 88
1, 60160, Note_on_c, 0, 86, 0
1, 60160, Note_on_c, 0, 82, 88
1, 60160, Note_on_c, 1, 74, 0
1, 60160, Note_on_c, 1, 70, 88
1, 60200, Note_on_c, 0, 82, 0
1, 60200, Note_on_c, 0, 79, 88
1, 60200, Note_on_c, 1, 70, 0
1, 60200, Note_on_c, 1, 67, 88
1, 60240, Note_on_c, 0, 79, 0
1, 60240, Note_on_c, 0, 74, 88
1, 60240, Note_on_c, 1, 67, 0
1, 60240, Note_on_c, 1, 62, 88
1, 60280, Note_on_c, 0, 74, 0
1, 60280, Note_on_c, 0, 79, 88
1, 60280, Note_on_c, 1, 62, 0
1, 60280, Note_on_c, 1, 67, 88
1, 60320, Note_on_c, 0, 79, 0
1, 60320, Note_on_c, 0, 82, 88
1, 60320, Note_on_c, 1, 67, 0
1, 60320, Note_on_c, 1, 70, 88
1, 60360, Note_on_c, 0, 82, 0
1, 60360, Note_on_c, 0, 86, 88
1, 60360, Note_on_c, 1, 70, 0
1, 60360, Note_on_c, 1, 74, 88
1, 60400, Note_on_c, 0, 86, 0
1, 60400, Note_on_c, 0, 82, 88
1, 60400, Note_on_c, 1, 74, 0
1, 60400, Note_on_c, 1, 70, 88
1, 60440, Note_on_c, 0, 82, 0
1, 60440, Note_on_c, 0, 79, 88
1, 60440, Note_on_c, 1, 70, 0
1, 60440, Note_on_c, 1, 67, 88
1, 60480, Note_on_c, 0, 79, 0
1, 60480, Note_on_c, 0, 74, 88
1, 60480, Note_on_c, 1, 67, 0
1, 60480, Note_on_c, 1, 62, 88
1, 60520, Note_on_c, 0, 74, 0
1, 60520, Note_on_c, 0, 78, 88
1, 60520, Note_on_c, 1, 62, 0
1, 60520, Note_on_c, 1, 66, 88
1, 60560, Note_on_c, 0, 78, 0
1, 60560, Note_on_c, 0, 81, 88
1, 60560, Note_on_c, 1, 66, 0
1, 60560, Note_on_c, 1, 69, 88
1, 60600, Note_on_c, 0, 81, 0
1, 60600, Note_on_c, 0, 84, 88
1, 60600, Note_on_c, 1, 69, 0
1, 60600, Note_on_c, 1, 72, 88
1, 60640, Note_on_c, 0, 84, 0
1, 60640, Note_on_c, 0, 81, 88
1, 60640, Note_on_c, 1, 72, 0
1, 60640, Note_on_c, 1, 69, 88
1, 60680, Note_on_c, 0, 81, 0
1, 60680, Note_on_c, 0, 78, 88
1, 60680, Note_on_c, 1, 69, 0
1, 60680, Note_on_c, 1, 66, 88
1, 60720, Note_on_c, 0, 78, 0
1, 60720, Note_on_c, 0, 74, 88
1, 60720, Note_on_c, 1, 66, 0
1, 60720, Note_on_c, 1, 62, 88
1, 60760, Note_on_c, 0, 74, 0
1, 60760, Note_on_c, 0, 78, 88
1, 60760, Note_on_c, 1, 62, 0
1, 60760, Note_on_c, 1, 66, 88
1, 60800, Note_on_c, 0, 78, 0
1, 60800, Note_on_c, 0, 81, 88
1, 60800, Note_on_c, 1, 66, 0
1, 60800, Note_on_c, 1, 69, 88
1, 60840, Note_on_c, 0, 81, 0
1, 60840, Note_on_c, 0, 84, 88
1, 60840, Note_on_c, 1, 69, 0
1, 60840, Note_on_c, 1, 72, 88
1, 60880, Note_on_c, 0, 84, 0
1, 60880, Note_on_c, 0, 81, 88
1, 60880, Note_on_c, 1, 72, 0
1, 60880, Note_on_c, 1, 69, 88
1, 60920, Note_on_c, 0, 81, 0
1, 60920, Note_on_c, 0, 78, 88
1, 60920, Note_on_c, 1, 69, 0
1, 60920, Note_on_c, 1, 66, 88
1, 60960, Note_on_c, 0, 78, 0
1, 60960, Note_on_c, 0, 79, 88
1, 60960, Note_on_c, 1, 66, 0
1, 60960, Note_on_c, 1, 67, 88
1, 61000, Note_on_c, 0, 79, 0
1, 61000, Note_on_c, 0, 82, 87
1, 61040, Note_on_c, 0, 82, 0
1, 61040, Note_on_c, 0, 81, 87
1, 61080, Note_on_c, 0, 81, 0
1, 61080, Note_on_c, 0, 79, 86
1, 61120, Note_on_c, 0, 79, 0
1, 61120, Note_on_c, 0, 77, 85
1, 61160, Note_on_c, 0, 77, 0
1, 61160, Note_on_c, 0, 75, 85
1, 61200, Note_on_c, 0, 75, 0
1, 61200, Note_on_c, 0, 74, 84
1, 61200, Note_on_c, 1, 67, 0
1, 61240, Note_on_c, 0, 74, 0
1, 61240, Note_on_c, 0, 72, 83
1, 61280, Note_on_c, 0, 72, 0
1, 61280, Note_on_c, 0, 70, 83
1, 61320, Note_on_c, 0, 70, 0
1, 61320, Note_on_c, 0, 69, 82
1, 61360, Note_on_c, 0, 69, 0
1, 61360, Note_on_c, 0, 67, 81
1, 61400, Note_on_c, 0, 67, 0
1, 61400, Note_on_c, 0, 65, 81
1, 61440, Note_on_c, 0, 65, 0
1, 61440, Note_on_c, 0, 63, 80
1, 61440, Note_on_c, 1, 39, 80
1, 61440, Note_on_c, 1, 51, 80
1, 61480, Note_on_c, 0, 63, 0
1, 61480, Note_on_c, 0, 67, 79
1, 61520, Note_on_c, 0, 67, 0
1, 61520, Note_on_c, 0, 70, 79
1, 61560, Note_on_c, 0, 70, 0
1, 61560, Note_on_c, 0, 63, 78
1, 61600, Note_on_c, 0, 63, 0
1, 61600, Note_on_c, 0, 67, 77
1, 61640, Note_on_c, 0, 67, 0
1, 61640, Note_on_c, 0, 70, 77
1, 61680, Note_on_c, 0, 70, 0
1, 61680, Note_on_c, 0, 62, 76
1, 61680, Note_on_c, 1, 51, 0
1, 61680, Note_on_c, 1, 39, 0
1, 61680, Note_on_c, 1, 38, 80
1, 61680, Note_on_c, 1, 50, 80
1, 61720, Note_on_c, 0, 62, 0
1, 61720, Note_on_c, 0, 67, 75
1, 61760, Note_on_c, 0, 67, 0
1, 61760, Note_on_c, 0, 70, 75
1, 61800, Note_on_c, 0, 70, 0
1, 61800, Note_on_c, 0, 62, 74
1, 61840, Note_on_c, 0, 62, 0
1, 61840, Note_on_c, 0, 67, 73
1, 61880, Note_on_c, 0, 67, 0
1, 61880, Note_on_c, 0, 70, 73
1, 61920, Note_on_c, 0, 70, 0
1, 61920, Note_on_c, 0, 61, 88
1, 61920, Note_on_c, 1, 50, 0
1, 61920, Note_on_c, 1, 38, 0
1, 61920, Note_on_c, 1, 37, 88
1, 61920, Note_on_c, 1, 49, 88
1, 61960, Note_on_c, 0, 61, 0
1, 61960, Note_on_c, 0, 67, 80
1, 62000, Note_on_c, 0, 67, 0
1, 62000, Note_on_c, 0, 70, 80
1, 62040, Note_on_c, 0, 70, 0
1, 62040, Note_on_c, 0, 61, 80
1, 62080, Note_on_c, 0, 61, 0
1, 62080, Note_on_c, 0, 67, 80
1, 62120, Note_on_c, 0, 67, 0
1, 62120, Note_on_c, 0, 70, 80
1, 62160, Note_on_c, 0, 70, 0
1, 62160, Note_on_c, 0, 61, 80
1, 62200, Note_on_c, 0, 61, 0
1, 62200, Note_on_c, 0, 67, 80
1, 62240, Note_on_c, 0, 67, 0
1, 62240, Note_on_c, 0, 70, 80
1, 62280, Note_on_c, 0, 70, 0
1, 62280, Note_on_c, 0, 61, 80
1, 62320, Note_on_c, 0, 61, 0
1, 62320, Note_on_c, 0, 67, 80
1, 62360, Note_on_c, 0, 67, 0
1, 62360, Note_on_c, 0, 70, 80
1, 62400, Note_on_c, 0, 70, 0
1, 62400, Note_on_c, 0, 62, 80
1, 62400, Note_on_c, 1, 49, 0
1, 62400, Note_on_c, 1, 37, 0
1, 62400, Note_on_c, 1, 38, 80
1, 62400, Note_on_c, 1, 50, 80
1, 62440, Note_on_c, 0, 62, 0
1, 62440, Note_on_c, 0, 67, 80
1, 62480, Note_on_c, 0, 67, 0
1, 62480, Note_on_c, 0, 70, 80
1, 62520, Note_on_c, 0, 70, 0
1, 62520, Note_on_c, 0, 74, 80
1, 62544, Note_on_c, 1, 50, 0
1, 62544, Note_on_c, 1, 38, 0
1, 62560, Note_on_c, 0, 74, 0
1, 62560, Note_on_c, 0, 70, 80
1, 62600, Note_on_c, 0, 70, 0
1, 62600, Note_on_c, 0, 67, 80
1, 62640, Note_on_c, 0, 67, 0
1, 62640, Note_on_c, 0, 62, 80
1, 62712, Note_on_c, 0, 62, 0
1, 62760, Note_on_c, 0, 60, 80
1, 62760, Note_on_c, 0, 66, 80
1, 62832, Note_on_c, 0, 66, 0
1, 62832, Note_on_c, 0, 60, 0
1, 62880, Note_on_c, 1, 31, 88
1, 62880, Note_on_c, 1, 43, 88
1, 63120, Note_on_c, 0, 79, 56
1, 63120, Note_on_c, 1, 43, 0
1, 63120, Note_on_c, 1, 31, 0
1, 63180, Note_on_c, 0, 79, 0
1, 63180, Note_on_c, 0, 78, 56
1, 63216, Note_on_c, 0, 78, 0
1, 63240, Note_on_c, 0, 81, 56
1, 63276, Note_on_c, 0, 81, 0
1, 63300, Note_on_c, 0, 79, 56
1, 63336, Note_on_c, 0, 79, 0
1, 63360, Note_on_c, 0, 82, 56
1, 63420, Note_on_c, 0, 82, 0
1, 63420, Note_on_c, 0, 81, 56
1, 63480, Note_on_c, 0, 81, 0
1, 63480, Note_on_c, 0, 79, 56
1, 63540, Note_on_c, 0, 79, 0
1, 63540, Note_on_c, 0, 77, 56
1, 63600, Note_on_c, 0, 77, 0
1, 63600, Note_on_c, 0, 75, 56
1, 63720, Note_on_c, 0, 75, 0
1, 63720, Note_on_c, 0, 74, 56
1, 63840, Note_on_c, 0, 74, 0
1, 63840, Note_on_c, 0, 74, 56
1, 64080, Note_on_c, 0, 74, 0
1, 64080, Note_on_c, 0, 73, 80
1, 64080, Note_on_c, 1, 57, 80
1, 64080, Note_on_c, 1, 64, 80
1, 64080, Note_on_c, 1, 67, 80
1, 64140, Note_on_c, 0, 73, 0
1, 64140, Note_on_c, 0, 69, 80
1, 64200, Note_on_c, 0, 69, 0
1, 64200, Note_on_c, 0, 70, 80
1, 64230, Note_on_c, 0, 70, 0
1, 64230, Note_on_c, 0, 69, 80
1, 64260, Note_on_c, 0, 69, 0
1, 64260, Note_on_c, 0, 68, 80
1, 64290, Note_on_c, 0, 68, 0
1, 64290, Note_on_c, 0, 69, 80
1, 64320, Note_on_c, 0, 69, 0
1, 64320, Note_on_c, 0, 74, 80
1, 64320, Note_on_c, 1, 67, 0
1, 64320, Note_on_c, 1, 64, 0
1, 64320, Note_on_c, 1, 57, 0
1, 64320, Note_on_c, 1, 57, 80
1, 64320, Note_on_c, 1, 62, 80
1, 64320, Note_on_c, 1, 65, 80
1, 64380, Note_on_c, 0, 74, 0
1, 64380, Note_on_c, 0, 69, 80
1, 64440, Note_on_c, 0, 69, 0
1, 64440, Note_on_c, 0, 70, 80
1, 64470, Note_on_c, 0, 70, 0
1, 64470, Note_on_c, 0, 69, 80
1, 64500, Note_on_c, 0, 69, 0
1, 64500, Note_on_c, 0, 68, 80
1, 64530, Note_on_c, 0, 68, 0
1, 64530, Note_on_c, 0, 69, 80
1, 64560, Note_on_c, 0, 69, 0
1, 64560, Note_on_c, 0, 76, 80
1, 64560, Note_on_c, 1, 65, 0
1, 64560, Note_on_c, 1, 62, 0
1, 64560, Note_on_c, 1, 57, 0
1, 64560, Note_on_c, 1, 57, 80
1, 64560, Note_on_c, 1, 61, 80
1, 64560, Note_on_c, 1, 67, 80
1, 64620, Note_on_c, 0, 76, 0
1, 64620, Note_on_c, 0, 69, 80
1, 64680, Note_on_c, 0, 69, 0
1, 64680, Note_on_c, 0, 70, 80
1, 64710, Note_on_c, 0, 70, 0
1, 64710, Note_on_c, 0, 69, 80
1, 64740, Note_on_c, 0, 69, 0
1, 64740, Note_on_c, 0, 68, 80
1, 64770, Note_on_c, 0, 68, 0
1, 64770, Note_on_c, 0, 69, 80
1, 64800, Note_on_c, 0, 69, 0
1, 64800, Note_on_c, 0, 77, 80
1, 64800, Note_on_c, 1, 67, 0
1, 64800, Note_on_c, 1, 61, 0
1, 64800, Note_on_c, 1, 57, 0
1, 64800, Note_on_c, 1, 62, 80
1, 64800, Note_on_c, 1, 65, 80
1, 64920, Note_on_c, 0, 77, 0
1, 64920, Note_on_c, 1, 65, 0
1, 64920, Note_on_c, 1, 62, 0
1, 65040, Note_on_c, 0, 77, 56
1, 65100, Note_on_c, 0, 77, 0
1, 65100, Note_on_c, 0, 76, 56
1, 65136, Note_on_c, 0, 76, 0
1, 65160, Note_on_c, 0, 79, 56
1, 65196, Note_on_c, 0, 79, 0
1, 65220, Note_on_c, 0, 77, 56
1, 65256, Note_on_c, 0, 77, 0
1, 65280, Note_on_c, 0, 80, 56
1, 65340, Note_on_c, 0, 80, 0
1, 65340, Note_on_c, 0, 79, 56
1, 65400, Note_on_c, 0, 79, 0
1, 65400, Note_on_c, 0, 77, 56
1, 65460, Note_on_c, 0, 77, 0
1, 65460, Note_on_c, 0, 75, 56
1, 65520, Note_on_c, 0, 75, 0
1, 65520, Note_on_c, 0, 74, 56
1, 65640, Note_on_c, 0, 74, 0
1, 65640, Note_on_c, 0, 72, 56
1, 65712, Note_on_c, 0, 72, 0
1, 65760, Note_on_c, 0, 72, 56
1, 66000, Note_on_c, 0, 72, 0
1, 66000, Note_on_c, 0, 71, 80
1, 66000, Note_on_c, 1, 55, 80
1, 66000, Note_on_c, 1, 62, 80
1, 66000, Note_on_c, 1, 65, 80
1, 66060, Note_on_c, 0, 71, 0
1, 66060, Note_on_c, 0, 67, 80
1, 66120, Note_on_c, 0, 67, 0
1, 66120, Note_on_c, 0, 68, 80
1, 66150, Note_on_c, 0, 68, 0
1, 66150, Note_on_c, 0, 67, 80
1, 66180, Note_on_c, 0, 67, 0
1, 66180, Note_on_c, 0, 66, 80
1, 66210, Note_on_c, 0, 66, 0
1, 66210, Note_on_c, 0, 67, 80
1, 66240, Note_on_c, 0, 67, 0
1, 66240, Note_on_c, 0, 72, 80
1, 66240, Note_on_c, 1, 65, 0
1, 66240, Note_on_c, 1, 62, 0
1, 66240, Note_on_c, 1, 55, 0
1, 66240, Note_on_c, 1, 55, 80
1, 66240, Note_on_c, 1, 60, 80
1, 66240, Note_on_c, 1, 63, 80
1, 66300, Note_on_c, 0, 72, 0
1, 66300, Note_on_c, 0, 67, 80
1, 66360, Note_on_c, 0, 67, 0
1, 66360, Note_on_c, 0, 68, 80
1, 66390, Note_on_c, 0, 68, 0
1, 66390, Note_on_c, 0, 67, 80
1, 66420, Note_on_c, 0, 67, 0
1, 66420, Note_on_c, 0, 66, 80
1, 66450, Note_on_c, 0, 66, 0
1, 66450, Note_on_c, 0, 67, 80
1, 66480, Note_on_c, 0, 67, 0
1, 66480, Note_on_c, 0, 74, 80
1, 66480, Note_on_c, 1, 63, 0
1, 66480, Note_on_c, 1, 60, 0
1, 66480, Note_on_c, 1, 55, 0
1, 66480, Note_on_c, 1, 55, 80
1, 66480, Note_on_c, 1, 59, 80
1, 66480, Note_on_c, 1, 65, 80
1, 66540, Note_on_c, 0, 74, 0
1, 66540, Note_on_c, 0, 67, 80
1, 66600, Note_on_c, 0, 67, 0
1, 66600, Note_on_c, 0, 68, 80
1, 66630, Note_on_c, 0, 68, 0
1, 66630, Note_on_c, 0, 67, 80
1, 66660, Note_on_c, 0, 67, 0
1, 66660, Note_on_c, 0, 66, 80
1, 66690, Note_on_c, 0, 66, 0
1, 66690, Note_on_c, 0, 67, 80
1, 66720, Note_on_c, 0, 67, 0
1, 66720, Note_on_c, 0, 75, 80
1, 66720, Note_on_c, 0, 79, 80
1, 66720, Note_on_c, 1, 65, 0
1, 66720, Note_on_c, 1, 59, 0
1, 66720, Note_on_c, 1, 55, 0
1, 66840, Note_on_c, 1, 48, 80
1, 66960, Note_on_c, 1, 48, 0
1, 66960, Note_on_c, 1, 60, 80
1, 67080, Note_on_c, 0, 79, 0
1, 67080, Note_on_c, 0, 75, 0
1, 67080, Note_on_c, 0, 74, 80
1, 67080, Note_on_c, 0, 77, 80
1, 67080, Note_on_c, 1, 60, 0
1, 67140, Note_on_c, 0, 77, 0
1, 67140, Note_on_c, 0, 74, 0
1, 67200, Note_on_c, 0, 77, 80
1, 67200, Note_on_c, 0, 80, 80
1, 67320, Note_on_c, 1, 48, 80
1, 67440, Note_on_c, 1, 48, 0
1, 67440, Note_on_c, 1, 60, 80
1, 67560, Note_on_c, 0, 80, 0
1, 67560, Note_on_c, 0, 77, 0
1, 67560, Note_on_c, 0, 75, 80
1, 67560, Note_on_c, 0, 79, 80
1, 67560, Note_on_c, 1, 60, 0
1, 67620, Note_on_c, 0, 79, 0
1, 67620, Note_on_c, 0, 75, 0
1, 67680, Note_on_c, 0, 68, 80
1, 67680, Note_on_c, 0, 77, 80
1, 67800, Note_on_c, 0, 77, 0
1, 67800, Note_on_c, 0, 68, 0
1, 67800, Note_on_c, 0, 67, 80
1, 67800, Note_on_c, 0, 75, 80
1, 67800, Note_on_c, 1, 48, 80
1, 67920, Note_on_c, 0, 75, 0
1, 67920, Note_on_c, 0, 67, 0
1, 67920, Note_on_c, 0, 65, 80
1, 67920, Note_on_c, 0, 74, 80
1, 67920, Note_on_c, 1, 48, 0
1, 67920, Note_on_c, 1, 53, 80
1, 68040, Note_on_c, 0, 74, 0
1, 68040, Note_on_c, 0, 65, 0
1, 68040, Note_on_c, 0, 63, 80
1, 68040, Note_on_c, 0, 72, 80
1, 68040, Note_on_c, 1, 53, 0
1, 68040, Note_on_c, 1, 54, 80
1, 68100, Note_on_c, 0, 72, 0
1, 68100, Note_on_c, 0, 63, 0
1, 68100, Note_on_c, 0, 71, 80
1, 68120, Note_on_c, 0, 71, 0
1, 68120, Note_on_c, 0, 72, 80
1, 68140, Note_on_c, 0, 72, 0
1, 68140, Note_on_c, 0, 74, 80
1, 68160, Note_on_c, 0, 74, 0
1, 68160, Note_on_c, 0, 63, 80
1, 68160, Note_on_c, 0, 72, 80
1, 68160, Note_on_c, 1, 54, 0
1, 68160, Note_on_c, 1, 55, 80
1, 68400, Note_on_c, 0, 72, 0
1, 68400, Note_on_c, 0, 63, 0
1, 68400, Note_on_c, 0, 62, 80
1, 68400, Note_on_c, 0, 71, 80
1, 68400, Note_on_c, 1, 55, 0
1, 68400, Note_on_c, 1, 43, 80
1, 68460, Note_on_c, 0, 71, 0
1, 68460, Note_on_c, 0, 62, 0
1, 68460, Note_on_c, 1, 43, 0
1, 68520, Note_on_c, 0, 68, 80
1, 68520, Note_on_c, 1, 60, 80
1, 68520, Note_on_c, 1, 63, 80
1, 68580, Note_on_c, 0, 68, 0
1, 68580, Note_on_c, 0, 67, 80
1, 68600, Note_on_c, 0, 67, 0
1, 68600, Note_on_c, 0, 68, 80
1, 68620, Note_on_c, 0, 68, 0
1, 68620, Note_on_c, 0, 70, 80
1, 68640, Note_on_c, 0, 70, 0
1, 68640, Note_on_c, 0, 68, 80
1, 68640, Note_on_c, 1, 63, 0
1, 68640, Note_on_c, 1, 60, 0
1, 68640, Note_on_c, 1, 59, 80
1, 68640, Note_on_c, 1, 62, 80
1, 68880, Note_on_c, 0, 68, 0
1, 68880, Note_on_c, 0, 67, 80
1, 68940, Note_on_c, 0, 67, 0
1, 69000, Note_on_c, 0, 72, 80
1, 69000, Note_on_c, 1, 62, 0
1, 69000, Note_on_c, 1, 59, 0
1, 69000, Note_on_c, 1, 63, 80
1, 69000, Note_on_c, 1, 67, 80
1, 69060, Note_on_c, 0, 72, 0
1, 69060, Note_on_c, 0, 71, 80
1, 69080, Note_on_c, 0, 71, 0
1, 69080, Note_on_c, 0, 72, 80
1, 69100, Note_on_c, 0, 72, 0
1, 69100, Note_on_c, 0, 74, 80
1, 69120, Note_on_c, 0, 74, 0
1, 69120, Note_on_c, 0, 72, 80
1, 69120, Note_on_c, 1, 67, 0
1, 69120, Note_on_c, 1, 63, 0
1, 69120, Note_on_c, 1, 62, 80
1, 69120, Note_on_c, 1, 65, 80
1, 69360, Note_on_c, 0, 72, 0
1, 69360, Note_on_c, 0, 71, 80
1, 69396, Note_on_c, 0, 71, 0
1, 69420, Note_on_c, 0, 80, 80
1, 69480, Note_on_c, 0, 80, 0
1, 69480, Note_on_c, 0, 79, 80
1, 69480, Note_on_c, 1, 65, 0
1, 69480, Note_on_c, 1, 62, 0
1, 69480, Note_on_c, 1, 59, 80
1, 69480, Note_on_c, 1, 67, 80
1, 69540, Note_on_c, 0, 79, 0
1, 69540, Note_on_c, 0, 77, 80
1, 69600, Note_on_c, 0, 77, 0
1, 69600, Note_on_c, 0, 77, 80
1, 69600, Note_on_c, 1, 59, 0
1, 69600, Note_on_c, 1, 60, 80
1, 69660, Note_on_c, 0, 77, 0
1, 69660, Note_on_c, 0, 75, 80
1, 69720, Note_on_c, 0, 75, 0
1, 69720, Note_on_c, 0, 74, 80
1, 69720, Note_on_c, 1, 60, 0
1, 69720, Note_on_c, 1, 63, 80
1, 69740, Note_on_c, 0, 74, 0
1, 69740, Note_on_c, 0, 75, 80
1, 69760, Note_on_c, 0, 75, 0
1, 69760, Note_on_c, 0, 74, 80
1, 69780, Note_on_c, 0, 74, 0
1, 69780, Note_on_c, 0, 72, 80
1, 69840, Note_on_c, 0, 72, 0
1, 69840, Note_on_c, 0, 71, 80
1, 69840, Note_on_c, 1, 63, 0
1, 69840, Note_on_c, 1, 67, 0
1, 69840, Note_on_c, 1, 62, 80
1, 69840, Note_on_c, 1, 65, 80
1, 69900, Note_on_c, 0, 71, 0
1, 69900, Note_on_c, 1, 65, 0
1, 69900, Note_on_c, 1, 62, 0
1, 69960, Note_on_c, 0, 72, 80
1, 69960, Note_on_c, 1, 60, 80
1, 69960, Note_on_c, 1, 63, 80
1, 70020, Note_on_c, 0, 72, 0
1, 70020, Note_on_c, 1, 63, 0
1, 70020, Note_on_c, 1, 60, 0
1, 70080, Note_on_c, 0, 75, 80
1, 70080, Note_on_c, 1, 55, 80
1, 70080, Note_on_c, 1, 60, 80
1, 70320, Note_on_c, 0, 75, 0
1, 70320, Note_on_c, 0, 74, 80
1, 70320, Note_on_c, 1, 60, 0
1, 70320, Note_on_c, 1, 59, 80
1, 70440, Note_on_c, 0, 74, 0
1, 70440, Note_on_c, 1, 59, 0
1, 70440, Note_on_c, 1, 55, 0
1, 70560, Note_on_c, 1, 60, 80
1, 70560, Note_on_c, 1, 63, 80
1, 70680, Note_on_c, 0, 67, 80
1, 70800, Note_on_c, 0, 67, 0
1, 70800, Note_on_c, 0, 79, 80
1, 70920, Note_on_c, 0, 79, 0
1, 70920, Note_on_c, 1, 63, 0
1, 70920, Note_on_c, 1, 60, 0
1, 70920, Note_on_c, 1, 59, 80
1, 70920, Note_on_c, 1, 62, 80
1, 70980, Note_on_c, 1, 62, 0
1, 70980, Note_on_c, 1, 59, 0
1, 71040, Note_on_c, 1, 62, 80
1, 71040, Note_on_c, 1, 65, 80
1, 71160, Note_on_c, 0, 68, 80
1, 71280, Note_on_c, 0, 68, 0
1, 71280, Note_on_c, 0, 80, 80
1, 71400, Note_on_c, 0, 80, 0
1, 71400, Note_on_c, 1, 65, 0
1, 71400, Note_on_c, 1, 62, 0
1, 71400, Note_on_c, 1, 60, 80
1, 71400, Note_on_c, 1, 63, 80
1, 71460, Note_on_c, 1, 63, 0
1, 71460, Note_on_c, 1, 60, 0
1, 71520, Note_on_c, 1, 63, 80
1, 71520, Note_on_c, 1, 67, 80
1, 71640, Note_on_c, 0, 71, 80
1, 71760, Note_on_c, 0, 71, 0
1, 71760, Note_on_c, 0, 83, 80
1, 71880, Note_on_c, 0, 83, 0
1, 71880, Note_on_c, 1, 67, 0
1, 71880, Note_on_c, 1, 63, 0
1, 71880, Note_on_c, 1, 62, 80
1, 71880, Note_on_c, 1, 65, 80
1, 71940, Note_on_c, 1, 65, 0
1, 71940, Note_on_c, 1, 62, 0
1, 72000, Note_on_c, 1, 65, 80
1, 72000, Note_on_c, 1, 68, 80
1, 72120, Note_on_c, 0, 72, 80
1, 72240, Note_on_c, 0, 72, 0
1, 72240, Note_on_c, 0, 84, 80
1, 72360, Note_on_c, 0, 84, 0
1, 72360, Note_on_c, 1, 68, 0
1, 72360, Note_on_c, 1, 65, 0
1, 72360, Note_on_c, 1, 63, 80
1, 72360, Note_on_c, 1, 67, 80
1, 72420, Note_on_c, 1, 67, 0
1, 72420, Note_on_c, 1, 63, 0
1, 72480, Note_on_c, 1, 67, 88
1, 72480, Note_on_c, 1, 70, 88
1, 72600, Note_on_c, 0, 73, 89
1, 72720, Note_on_c, 0, 85, 90
1, 72840, Note_on_c, 0, 85, 0
1, 72840, Note_on_c, 0, 73, 0
1, 72840, Note_on_c, 0, 86, 91
1, 72840, Note_on_c, 0, 74, 91
1, 72840, Note_on_c, 1, 70, 0
1, 72840, Note_on_c, 1, 67, 0
1, 72840, Note_on_c, 1, 66, 91
1, 72840, Note_on_c, 1, 69, 91
1, 72900, Note_on_c, 0, 74, 0
1, 72900, Note_on_c, 0, 86, 0
1, 72900, Note_on_c, 1, 69, 0
1, 72900, Note_on_c, 1, 66, 0
1, 72960, Note_on_c, 0, 71, 92
1, 72960, Note_on_c, 0, 83, 92
1, 72960, Note_on_c, 1, 65, 92
1, 72960, Note_on_c, 1, 68, 92
1, 73080, Note_on_c, 0, 83, 0
1, 73080, Note_on_c, 0, 71, 0
1, 73080, Note_on_c, 0, 72, 93
1, 73080, Note_on_c, 0, 84, 93
1, 73080, Note_on_c, 1, 68, 0
1, 73080, Note_on_c, 1, 65, 0
1, 73080, Note_on_c, 1, 64, 93
1, 73080, Note_on_c, 1, 67, 93
1, 73140, Note_on_c, 0, 84, 0
1, 73140, Note_on_c, 0, 72, 0
1, 73140, Note_on_c, 1, 67, 0
1, 73140, Note_on_c, 1, 64, 0
1, 73200, Note_on_c, 0, 69, 94
1, 73200, Note_on_c, 0, 81, 94
1, 73200, Note_on_c, 1, 63, 94
1, 73200, Note_on_c, 1, 66, 94
1, 73320, Note_on_c, 0, 81, 0
1, 73320, Note_on_c, 0, 69, 0
1, 73320, Note_on_c, 0, 70, 95
1, 73320, Note_on_c, 0, 82, 95
1, 73320, Note_on_c, 1, 66, 0
1, 73320, Note_on_c, 1, 63, 0
1, 73320, Note_on_c, 1, 62, 95
1, 73320, Note_on_c, 1, 65, 95
1, 73380, Note_on_c, 0, 82, 0
1, 73380, Note_on_c, 0, 70, 0
1, 73380, Note_on_c, 1, 65, 0
1, 73380, Note_on_c, 1, 62, 0
1, 73920, Note_on_c, 1, 60, 56
1, 73920, Note_on_c, 1, 63, 56
1, 74040, Note_on_c, 0, 68, 56
1, 74040, Note_on_c, 0, 80, 56
1, 74160, Note_on_c, 0, 80, 0
1, 74160, Note_on_c, 0, 68, 0
1, 74160, Note_on_c, 0, 67, 56
1, 74160, Note_on_c, 0, 79, 56
1, 74280, Note_on_c, 0, 79, 0
1, 74280, Note_on_c, 0, 67, 0
1, 74280, Note_on_c, 0, 66, 56
1, 74280, Note_on_c, 0, 78, 56
1, 74340, Note_on_c, 0, 78, 0
1, 74340, Note_on_c, 0, 66, 0
1, 74400, Note_on_c, 0, 66, 56
1, 74400, Note_on_c, 0, 78, 56
1, 74400, Note_on_c, 1, 63, 0
1, 74400, Note_on_c, 1, 60, 0
1, 74400, Note_on_c, 1, 59, 56
1, 74400, Note_on_c, 1, 62, 56
1, 74880, Note_on_c, 0, 78, 0
1, 74880, Note_on_c, 0, 66, 0
1, 74880, Note_on_c, 0, 67, 56
1, 74880, Note_on_c, 0, 79, 56
1, 74940, Note_on_c, 0, 79, 0
1, 74940, Note_on_c, 0, 67, 0
1, 74940, Note_on_c, 1, 62, 0
1, 74940, Note_on_c, 1, 59, 0
1, 75000, Note_on_c, 0, 67, 80
1, 75120, Note_on_c, 0, 67, 0
1, 75120, Note_on_c, 0, 71, 80
1, 75240, Note_on_c, 0, 71, 0
1, 75240, Note_on_c, 0, 74, 80
1, 75360, Note_on_c, 0, 74, 0
1, 75360, Note_on_c, 0, 74, 80
1, 75360, Note_on_c, 0, 77, 80
1, 75480, Note_on_c, 1, 43, 80
1, 75600, Note_on_c, 1, 43, 0
1, 75600, Note_on_c, 1, 47, 80
1, 75720, Note_on_c, 1, 47, 0
1, 75720, Note_on_c, 1, 50, 80
1, 75840, Note_on_c, 1, 50, 0
1, 75840, Note_on_c, 1, 55, 80
1, 75960, Note_on_c, 0, 77, 0
1, 75960, Note_on_c, 0, 74, 0
1, 75960, Note_on_c, 0, 74, 80
1, 75960, Note_on_c, 0, 77, 80
1, 76032, Note_on_c, 0, 77, 0
1, 76032, Note_on_c, 0, 74, 0
1, 76080, Note_on_c, 0, 75, 80
1, 76080, Note_on_c, 0, 79, 80
1, 76080, Note_on_c, 1, 55, 0
1, 76140, Note_on_c, 0, 79, 0
1, 76140, Note_on_c, 0, 75, 0
1, 76140, Note_on_c, 0, 74, 80
1, 76140, Note_on_c, 0, 77, 80
1, 76176, Note_on_c, 0, 77, 0
1, 76176, Note_on_c, 0, 74, 0
1, 76200, Note_on_c, 0, 72, 80
1, 76200, Note_on_c, 0, 75, 80
1, 76236, Note_on_c, 0, 75, 0
1, 76236, Note_on_c, 0, 72, 0
1, 76260, Note_on_c, 0, 71, 80
1, 76260, Note_on_c, 0, 74, 80
1, 76296, Note_on_c, 0, 74, 0
1, 76296, Note_on_c, 0, 71, 0
1, 76320, Note_on_c, 0, 71, 80
1, 76320, Note_on_c, 0, 74, 80
1, 76440, Note_on_c, 1, 43, 80
1, 76560, Note_on_c, 0, 74, 0
1, 76560, Note_on_c, 0, 71, 0
1, 76560, Note_on_c, 0, 72, 80
1, 76560, Note_on_c, 0, 75, 80
1, 76560, Note_on_c, 1, 43, 0
1, 76560, Note_on_c, 1, 48, 80
1, 76680, Note_on_c, 1, 48, 0
1, 76680, Note_on_c, 1, 51, 80
1, 76800, Note_on_c, 1, 51, 0
1, 76800, Note_on_c, 1, 55, 80
1, 76920, Note_on_c, 0, 75, 0
1, 76920, Note_on_c, 0, 72, 0
1, 76920, Note_on_c, 0, 75, 80
1, 76920, Note_on_c, 0, 79, 80
1, 76992, Note_on_c, 0, 79, 0
1, 76992, Note_on_c, 0, 75, 0
1, 77040, Note_on_c, 0, 77, 80
1, 77040, Note_on_c, 0, 80, 80
1, 77040, Note_on_c, 1, 55, 0
1, 77100, Note_on_c, 0, 80, 0
1, 77100, Note_on_c, 0, 77, 0
1, 77100, Note_on_c, 0, 75, 80
1, 77100, Note_on_c, 0, 79, 80
1, 77130, Note_on_c, 0, 79, 0
1, 77130, Note_on_c, 0, 75, 0
1, 77160, Note_on_c, 0, 74, 80
1, 77160, Note_on_c, 0, 77, 80
1, 77190, Note_on_c, 0, 77, 0
1, 77190, Note_on_c, 0, 74, 0
1, 77220, Note_on_c, 0, 72, 80
1, 77220, Note_on_c, 0, 75, 80
1, 77250, Note_on_c, 0, 75, 0
1, 77250, Note_on_c, 0, 72, 0
1, 77280, Note_on_c, 0, 76, 80
1, 77280, Note_on_c, 0, 73, 80
1, 77400, Note_on_c, 1, 43, 80
1, 77460, Note_on_c, 1, 43, 0
1, 77520, Note_on_c, 0, 73, 0
1, 77520, Note_on_c, 0, 76, 0
1, 77520, Note_on_c, 0, 77, 80
1, 77520, Note_on_c, 0, 74, 80
1, 77520, Note_on_c, 1, 47, 80
1, 77580, Note_on_c, 1, 47, 0
1, 77580, Note_on_c, 1, 43, 80
1, 77610, Note_on_c, 1, 43, 0
1, 77640, Note_on_c, 1, 50, 80
1, 77670, Note_on_c, 1, 50, 0
1, 77700, Note_on_c, 1, 47, 80
1, 77730, Note_on_c, 1, 47, 0
1, 77760, Note_on_c, 1, 55, 80
1, 77880, Note_on_c, 0, 74, 0
1, 77880, Note_on_c, 0, 77, 0
1, 77880, Note_on_c, 0, 77, 80
1, 77880, Note_on_c, 0, 74, 80
1, 77940, Note_on_c, 0, 74, 0
1, 77940, Note_on_c, 0, 77, 0
1, 78000, Note_on_c, 0, 75, 80
1, 78000, Note_on_c, 0, 79, 80
1, 78000, Note_on_c, 1, 55, 0
1, 78060, Note_on_c, 0, 79, 0
1, 78060, Note_on_c, 0, 75, 0
1, 78060, Note_on_c, 0, 74, 80
1, 78060, Note_on_c, 0, 77, 80
1, 78090, Note_on_c, 0, 77, 0
1, 78090, Note_on_c, 0, 74, 0
1, 78120, Note_on_c, 0, 72, 80
1, 78120, Note_on_c, 0, 75, 80
1, 78150, Note_on_c, 0, 75, 0
1, 78150, Note_on_c, 0, 72, 0
1, 78180, Note_on_c, 0, 71, 80
1, 78180, Note_on_c, 0, 74, 80
1, 78210, Note_on_c, 0, 74, 0
1, 78210, Note_on_c, 0, 71, 0
1, 78240, Tempo, 689655
1, 78240, Note_on_c, 0, 72, 64
1, 78240, Note_on_c, 0, 75, 64
1, 78360, Note_on_c, 1, 60, 66
1, 78420, Note_on_c, 1, 60, 0
1, 78420, Note_on_c, 1, 48, 67
1, 78480, Tempo, 681818
1, 78480, Note_on_c, 0, 75, 0
1, 78480, Note_on_c, 0, 72, 0
1, 78480, Note_on_c, 0, 73, 68
1, 78480, Note_on_c, 0, 76, 68
1, 78480, Note_on_c, 1, 48, 0
1, 78600, Note_on_c, 1, 58, 70
1, 78660, Note_on_c, 1, 58, 0
1, 78660, Note_on_c, 1, 46, 71
1, 78720, Tempo, 666667
1, 78720, Note_on_c, 0, 76, 0
1, 78720, Note_on_c, 0, 73, 0
1, 78720, Note_on_c, 0, 72, 72
1, 78720, Note_on_c, 0, 77, 72
1, 78720, Note_on_c, 1, 46, 0
1, 78840, Note_on_c, 1, 57, 74
1, 78900, Note_on_c, 1, 57, 0
1, 78900, Note_on_c, 1, 45, 75
1, 78960, Tempo, 659341
1, 78960, Note_on_c, 0, 77, 0
1, 78960, Note_on_c, 0, 72, 0
1, 78960, Note_on_c, 0, 72, 76
1, 78960, Note_on_c, 0, 78, 76
1, 78960, Note_on_c, 1, 45, 0
1, 79080, Note_on_c, 1, 56, 78
1, 79140, Note_on_c, 1, 56, 0
1, 79140, Note_on_c, 1, 44, 79
1, 79200, Tempo, 652174
1, 79200, Note_on_c, 0, 78, 0
1, 79200, Note_on_c, 0, 72, 0
1, 79200, Note_on_c, 1, 44, 0
1, 79200, Note_on_c, 1, 43, 80
1, 79260, Note_on_c, 1, 43, 0
1, 79260, Note_on_c, 1, 55, 80
1, 79320, Note_on_c, 0, 71, 80
1, 79320, Note_on_c, 1, 55, 0
1, 79380, Note_on_c, 0, 71, 0
1, 79380, Note_on_c, 0, 79, 80
1, 79440, Note_on_c, 0, 79, 0
1, 79440, Note_on_c, 0, 77, 80
1, 79500, Note_on_c, 0, 77, 0
1, 79500, Note_on_c, 0, 75, 80
1, 79560, Note_on_c, 0, 75, 0
1, 79560, Note_on_c, 0, 74, 80
1, 79620, Note_on_c, 0, 74, 0
1, 79620, Note_on_c, 0, 72, 80
1, 79680, Note_on_c, 0, 72, 0
1, 79680, Note_on_c, 0, 71, 80
1, 79740, Note_on_c, 0, 71, 0
1, 79740, Note_on_c, 0, 68, 80
1, 79800, Note_on_c, 0, 68, 0
1, 79800, Note_on_c, 0, 67, 80
1, 79860, Note_on_c, 0, 67, 0
1, 79860, Note_on_c, 0, 65, 80
1, 79920, Note_on_c, 0, 65, 0
1, 79920, Note_on_c, 0, 63, 80
1, 79980, Note_on_c, 0, 63, 0
1, 79980, Note_on_c, 0, 62, 80
1, 80040, Note_on_c, 0, 62, 0
1, 80040, Note_on_c, 0, 60, 80
1, 80100, Note_on_c, 0, 60, 0
1, 80100, Note_on_c, 0, 59, 80
1, 80160, Note_on_c, 0, 59, 0
1, 80160, Note_on_c, 1, 56, 80
1, 80220, Note_on_c, 1, 56, 0
1, 80220, Note_on_c, 1, 55, 80
1, 80280, Note_on_c, 1, 55, 0
1, 80280, Note_on_c, 1, 53, 80
1, 80340, Note_on_c, 0, 80, 80
1, 80340, Note_on_c, 1, 53, 0
1, 80400, Note_on_c, 0, 80, 0
1, 80400, Note_on_c, 0, 79, 80
1, 80460, Note_on_c, 0, 79, 0
1, 80460, Note_on_c, 0, 77, 80
1, 80520, Note_on_c, 0, 77, 0
1, 80520, Note_on_c, 0, 75, 80
1, 80580, Note_on_c, 0, 75, 0
1, 80580, Note_on_c, 0, 74, 80
1, 80640, Note_on_c, 0, 74, 0
1, 80640, Note_on_c, 0, 73, 56
1, 80700, Note_on_c, 0, 73, 0
1, 80700, Note_on_c, 0, 74, 56
1, 80760, Note_on_c, 0, 74, 0
1, 80760, Note_on_c, 0, 75, 56
1, 80820, Note_on_c, 0, 75, 0
1, 80820, Note_on_c, 0, 74, 56
1, 80880, Note_on_c, 0, 74, 0
1, 80880, Note_on_c, 0, 77, 56
1, 80940, Note_on_c, 0, 77, 0
1, 80940, Note_on_c, 0, 75, 56
1, 81000, Note_on_c, 0, 75, 0
1, 81000, Note_on_c, 0, 79, 56
1, 81060, Note_on_c, 0, 79, 0
1, 81060, Note_on_c, 0, 77, 56
1, 81120, Note_on_c, 0, 77, 0
1, 81120, Note_on_c, 0, 80, 56
1, 81180, Note_on_c, 0, 80, 0
1, 81180, Note_on_c, 0, 79, 56
1, 81240, Note_on_c, 0, 79, 0
1, 81240, Note_on_c, 0, 82, 56
1, 81300, Note_on_c, 0, 82, 0
1, 81300, Note_on_c, 0, 80, 56
1, 81360, Note_on_c, 0, 80, 0
1, 81360, Note_on_c, 0, 79, 56
1, 81420, Note_on_c, 0, 79, 0
1, 81420, Note_on_c, 0, 77, 56
1, 81480, Note_on_c, 0, 77, 0
1, 81480, Note_on_c, 0, 75, 56
1, 81540, Note_on_c, 0, 75, 0
1, 81540, Note_on_c, 0, 74, 56
1, 81600, Note_on_c, 0, 74, 0
1, 81600, Note_on_c, 0, 73, 56
1, 81660, Note_on_c, 0, 73, 0
1, 81660, Note_on_c, 0, 74, 56
1, 81720, Note_on_c, 0, 74, 0
1, 81720, Note_on_c, 0, 75, 56
1, 81780, Note_on_c, 0, 75, 0
1, 81780, Note_on_c, 0, 74, 56
1, 81840, Note_on_c, 0, 74, 0
1, 81840, Note_on_c, 0, 77, 56
1, 81900, Note_on_c, 0, 77, 0
1, 81900, Note_on_c, 0, 75, 56
1, 81960, Note_on_c, 0, 75, 0
1, 81960, Note_on_c, 0, 74, 56
1, 82020, Note_on_c, 0, 74, 0
1, 82020, Note_on_c, 0, 72, 56
1, 82080, Note_on_c, 0, 72, 0
1, 82080, Note_on_c, 0, 72, 56
1, 82200, Note_on_c, 1, 65, 56
1, 82200, Note_on_c, 1, 62, 56
1, 82200, Note_on_c, 1, 55, 56
1, 82272, Note_on_c, 1, 55, 0
1, 82272, Note_on_c, 1, 62, 0
1, 82272, Note_on_c, 1, 65, 0
1, 82320, Note_on_c, 1, 65, 56
1, 82320, Note_on_c, 1, 62, 56
1, 82320, Note_on_c, 1, 55, 56
1, 82392, Note_on_c, 1, 55, 0
1, 82392, Note_on_c, 1, 62, 0
1, 82392, Note_on_c, 1, 65, 0
1, 82440, Note_on_c, 1, 65, 56
1, 82440, Note_on_c, 1, 62, 56
1, 82440, Note_on_c, 1, 55, 56
1, 82512, Note_on_c, 1, 55, 0
1, 82512, Note_on_c, 1, 62, 0
1, 82512, Note_on_c, 1, 65, 0
1, 82560, Note_on_c, 1, 65, 80
1, 82560, Note_on_c, 1, 62, 80
1, 82560, Note_on_c, 1, 55, 80
1, 82600, Note_on_c, 0, 72, 0
1, 82600, Note_on_c, 0, 71, 80
1, 82640, Note_on_c, 0, 71, 0
1, 82640, Note_on_c, 0, 72, 80
1, 82680, Note_on_c, 0, 72, 0
1, 82680, Note_on_c, 0, 74, 80
1, 82720, Note_on_c, 0, 74, 0
1, 82720, Note_on_c, 0, 72, 80
1, 82760, Note_on_c, 0, 72, 0
1, 82760, Note_on_c, 0, 71, 80
1, 82800, Note_on_c, 0, 71, 0
1, 82800, Note_on_c, 0, 77, 80
1, 82840, Note_on_c, 0, 77, 0
1, 82840, Note_on_c, 0, 75, 80
1, 82880, Note_on_c, 0, 75, 0
1, 82880, Note_on_c, 0, 74, 80
1, 82920, Note_on_c, 0, 74, 0
1, 82920, Note_on_c, 0, 80, 80
1, 82960, Note_on_c, 0, 80, 0
1, 82960, Note_on_c, 0, 77, 80
1, 83000, Note_on_c, 0, 77, 0
1, 83000, Note_on_c, 0, 74, 80
1, 83040, Note_on_c, 0, 74, 0
1, 83040, Note_on_c, 0, 72, 80
1, 83040, Note_on_c, 1, 55, 0
1, 83040, Note_on_c, 1, 62, 0
1, 83040, Note_on_c, 1, 65, 0
1, 83160, Note_on_c, 1, 56, 72
1, 83200, Note_on_c, 1, 56, 0
1, 83200, Note_on_c, 1, 62, 72
1, 83240, Note_on_c, 1, 62, 0
1, 83240, Note_on_c, 1, 65, 72
1, 83280, Note_on_c, 1, 65, 0
1, 83280, Note_on_c, 1, 56, 72
1, 83320, Note_on_c, 1, 56, 0
1, 83320, Note_on_c, 1, 62, 72
1, 83360, Note_on_c, 1, 62, 0
1, 83360, Note_on_c, 1, 65, 72
1, 83400, Note_on_c, 1, 65, 0
1, 83400, Note_on_c, 1, 56, 72
1, 83440, Note_on_c, 1, 56, 0
1, 83440, Note_on_c, 1, 62, 72
1, 83480, Note_on_c, 1, 62, 0
1, 83480, Note_on_c, 1, 65, 72
1, 83520, Note_on_c, 1, 65, 0
1, 83520, Note_on_c, 1, 56, 56
1, 83560, Note_on_c, 0, 72, 0
1, 83560, Note_on_c, 0, 71, 56
1, 83600, Note_on_c, 0, 71, 0
1, 83600, Note_on_c, 0, 72, 56
1, 83640, Note_on_c, 0, 72, 0
1, 83640, Note_on_c, 0, 74, 56
1, 83680, Note_on_c, 0, 74, 0
1, 83680, Note_on_c, 0, 72, 56
1, 83720, Note_on_c, 0, 72, 0
1, 83720, Note_on_c, 0, 71, 56
1, 83760, Note_on_c, 0, 71, 0
1, 83760, Note_on_c, 0, 77, 56
1, 83800, Note_on_c, 0, 77, 0
1, 83800, Note_on_c, 0, 75, 56
1, 83840, Note_on_c, 0, 75, 0
1, 83840, Note_on_c, 0, 74, 56
1, 83880, Note_on_c, 0, 74, 0
1, 83880, Note_on_c, 0, 80, 56
1, 83920, Note_on_c, 0, 80, 0
1, 83920, Note_on_c, 0, 77, 56
1, 83960, Note_on_c, 0, 77, 0
1, 83960, Note_on_c, 0, 74, 56
1, 84000, Note_on_c, 0, 74, 0
1, 84000, Note_on_c, 0, 72, 56
1, 84000, Note_on_c, 1, 56, 0
1, 84120, Note_on_c, 1, 56, 56
1, 84160, Note_on_c, 1, 56, 0
1, 84160, Note_on_c, 1, 62, 56
1, 84200, Note_on_c, 1, 62, 0
1, 84200, Note_on_c, 1, 65, 56
1, 84240, Note_on_c, 1, 65, 0
1, 84240, Note_on_c, 1, 56, 56
1, 84280, Note_on_c, 1, 56, 0
1, 84280, Note_on_c, 1, 62, 56
1, 84320, Note_on_c, 1, 62, 0
1, 84320, Note_on_c, 1, 65, 56
1, 84360, Note_on_c, 1, 65, 0
1, 84360, Note_on_c, 1, 56, 56
1, 84400, Note_on_c, 1, 56, 0
1, 84400, Note_on_c, 1, 62, 56
1, 84440, Note_on_c, 1, 65, 56
1, 84480, Note_on_c, 1, 56, 56
1, 84520, Note_on_c, 0, 72, 0
1, 84520, Note_on_c, 0, 71, 56
1, 84560, Note_on_c, 0, 71, 0
1, 84560, Note_on_c, 0, 72, 56
1, 84600, Note_on_c, 0, 72, 0
1, 84600, Note_on_c, 0, 74, 56
1, 84640, Note_on_c, 0, 74, 0
1, 84640, Note_on_c, 0, 72, 56
1, 84680, Note_on_c, 0, 72, 0
1, 84680, Note_on_c, 0, 71, 56
1, 84720, Note_on_c, 0, 71, 0
1, 84720, Note_on_c, 0, 77, 56
1, 84800, Note_on_c, 0, 77, 0
1, 84800, Note_on_c, 0, 75, 56
1, 84880, Note_on_c, 0, 75, 0
1, 84880, Note_on_c, 0, 74, 56
1, 84960, Note_on_c, 0, 74, 0
1, 84960, Note_on_c, 0, 80, 56
1, 85200, Tempo, 674157
1, 85320, Note_on_c, 0, 80, 0
1, 85320, Note_on_c, 0, 79, 50
1, 85440, Tempo, 689655
1, 85440, Note_on_c, 0, 79, 0
1, 85440, Note_on_c, 0, 77, 48
1, 85560, Note_on_c, 0, 77, 0
1, 85560, Note_on_c, 0, 75, 47
1, 85632, Note_on_c, 0, 75, 0
1, 85680, Tempo, 714286
1, 85680, Note_on_c, 0, 74, 46
1, 85800, Note_on_c, 0, 74, 0
1, 85800, Note_on_c, 0, 72, 45
1, 85872, Note_on_c, 0, 72, 0
1, 85920, Tempo, 740741
1, 85920, Note_on_c, 0, 72, 44
1, 85920, Note_on_c, 1, 56, 0
1, 85920, Note_on_c, 1, 65, 0
1, 85920, Note_on_c, 1, 62, 0
1, 86040, Note_on_c, 1, 55, 43
1, 86160, Tempo, 759494
1, 86160, Note_on_c, 1, 65, 42
1, 86280, Note_on_c, 0, 72, 0
1, 86280, Note_on_c, 0, 71, 41
1, 86400, Tempo, 789474
1, 86400, Note_on_c, 0, 80, 40
1, 86520, Note_on_c, 1, 55, 0
1, 86520, Note_on_c, 1, 55, 39
1, 86640, Tempo, 821918
1, 86640, Note_on_c, 1, 65, 0
1, 86640, Note_on_c, 1, 65, 38
1, 86760, Note_on_c, 0, 71, 0
1, 86760, Note_on_c, 0, 71, 37
1, 86880, Tempo, 845070
1, 86880, Note_on_c, 0, 80, 0
1, 86880, Note_on_c, 0, 80, 36
1, 87120, Tempo, 882353
1, 87360, Tempo, 652174
1, 87840, Note_on_c, 0, 80, 0
1, 87840, Note_on_c, 0, 71, 0
1, 87840, Note_on_c, 1, 65, 0
1, 87840, Note_on_c, 1, 55, 0
1, 87840, Note_on_c, 1, 60, 88
1, 87840, Note_on_c, 1, 55, 88
1, 87840, Note_on_c, 1, 51, 88
1, 87960, Note_on_c, 0, 84, 80
1, 87990, Note_on_c, 0, 84, 0
1, 87990, Note_on_c, 0, 79, 80
1, 88044, Note_on_c, 0, 79, 0
1, 88080, Note_on_c, 0, 79, 80
1, 88080, Note_on_c, 1, 51, 0
1, 88080, Note_on_c, 1, 55, 0
1, 88080, Note_on_c, 1, 60, 0
1, 88110, Note_on_c, 0, 79, 0
1, 88110, Note_on_c, 0, 75, 80
1, 88200, Note_on_c, 0, 75, 0
1, 88200, Note_on_c, 0, 75, 80
1, 88230, Note_on_c, 0, 75, 0
1, 88230, Note_on_c, 0, 72, 80
1, 88320, Note_on_c, 0, 72, 0
1, 88320, Note_on_c, 1, 60, 80
1, 88320, Note_on_c, 1, 56, 80
1, 88320, Note_on_c, 1, 53, 80
1, 88440, Note_on_c, 0, 84, 80
1, 88470, Note_on_c, 0, 84, 0
1, 88470, Note_on_c, 0, 80, 80
1, 88524, Note_on_c, 0, 80, 0
1, 88560, Note_on_c, 0, 80, 80
1, 88560, Note_on_c, 1, 53, 0
1, 88560, Note_on_c, 1, 56, 0
1, 88560, Note_on_c, 1, 60, 0
1, 88590, Note_on_c, 0, 80, 0
1, 88590, Note_on_c, 0, 77, 80
1, 88680, Note_on_c, 0, 77, 0
1, 88680, Note_on_c, 0, 77, 80
1, 88710, Note_on_c, 0, 77, 0
1, 88710, Note_on_c, 0, 74, 80
1, 88773, Note_on_c, 0, 74, 0
1, 88800, Note_on_c, 0, 72, 56
1, 88920, Note_on_c, 1, 63, 56
1, 88920, Note_on_c, 1, 55, 56
1, 89040, Note_on_c, 1, 55, 0
1, 89040, Note_on_c, 1, 63, 0
1, 89040, Note_on_c, 1, 63, 56
1, 89040, Note_on_c, 1, 55, 56
1, 89100, Note_on_c, 0, 72, 0
1, 89100, Note_on_c, 0, 71, 56
1, 89160, Note_on_c, 0, 71, 0
1, 89160, Note_on_c, 0, 77, 56
1, 89160, Note_on_c, 1, 55, 0
1, 89160, Note_on_c, 1, 63, 0
1, 89160, Note_on_c, 1, 62, 56
1, 89160, Note_on_c, 1, 55, 56
1, 89200, Note_on_c, 0, 77, 0
1, 89200, Note_on_c, 0, 74, 56
1, 89240, Note_on_c, 0, 74, 0
1, 89240, Note_on_c, 0, 71, 56
1, 89280, Note_on_c, 0, 71, 0
1, 89280, Note_on_c, 0, 79, 80
1, 89280, Note_on_c, 1, 55, 0
1, 89280, Note_on_c, 1, 62, 0
1, 89400, Note_on_c, 1, 63, 80
1, 89400, Note_on_c, 1, 55, 80
1, 89520, Note_on_c, 1, 55, 0
1, 89520, Note_on_c, 1, 63, 0
1, 89520, Note_on_c, 1, 63, 80
1, 89520, Note_on_c, 1, 55, 80
1, 89560, Note_on_c, 0, 79, 0
1, 89560, Note_on_c, 0, 75, 80
1, 89600, Note_on_c, 0, 75, 0
1, 89600, Note_on_c, 0, 72, 80
1, 89640, Note_on_c, 0, 72, 0
1, 89640, Note_on_c, 0, 77, 80
1, 89640, Note_on_c, 1, 55, 0
1, 89640, Note_on_c, 1, 63, 0
1, 89640, Note_on_c, 1, 62, 80
1, 89640, Note_on_c, 1, 55, 80
1, 89680, Note_on_c, 0, 77, 0
1, 89680, Note_on_c, 0, 74, 80
1, 89720, Note_on_c, 0, 74, 0
1, 89720, Note_on_c, 0, 71, 80
1, 89760, Note_on_c, 0, 71, 0
1, 89760, Note_on_c, 0, 79, 56
1, 89760, Note_on_c, 1, 55, 0
1, 89760, Note_on_c, 1, 62, 0
1, 89880, Note_on_c, 1, 63, 56
1, 89880, Note_on_c, 1, 55, 56
1, 90000, Note_on_c, 1, 55, 0
1, 90000, Note_on_c, 1, 63, 0
1, 90000, Note_on_c, 1, 63, 56
1, 90000, Note_on_c, 1, 55, 56
1, 90040, Note_on_c, 0, 79, 0
1, 90040, Note_on_c, 0, 75, 56
1, 90080, Note_on_c, 0, 75, 0
1, 90080, Note_on_c, 0, 72, 56
1, 90120, Note_on_c, 0, 72, 0
1, 90120, Note_on_c, 0, 77, 56
1, 90120, Note_on_c, 1, 55, 0
1, 90120, Note_on_c, 1, 63, 0
1, 90120, Note_on_c, 1, 62, 56
1, 90120, Note_on_c, 1, 55, 56
1, 90160, Note_on_c, 0, 77, 0
1, 90160, Note_on_c, 0, 74, 56
1, 90200, Note_on_c, 0, 74, 0
1, 90200, Note_on_c, 0, 71, 56
1, 90240, Note_on_c, 0, 71, 0
1, 90240, Note_on_c, 0, 79, 80
1, 90240, Note_on_c, 1, 55, 0
1, 90240, Note_on_c, 1, 62, 0
1, 90360, Note_on_c, 1, 63, 82
1, 90360, Note_on_c, 1, 55, 82
1, 90480, Note_on_c, 1, 55, 0
1, 90480, Note_on_c, 1, 63, 0
1, 90480, Note_on_c, 1, 63, 84
1, 90480, Note_on_c, 1, 55, 84
1, 90520, Note_on_c, 0, 79, 0
1, 90520, Note_on_c, 0, 75, 85
1, 90560, Note_on_c, 0, 75, 0
1, 90560, Note_on_c, 0, 72, 85
1, 90600, Note_on_c, 0, 72, 0
1, 90600, Note_on_c, 0, 80, 86
1, 90600, Note_on_c, 1, 55, 0
1, 90600, Note_on_c, 1, 63, 0
1, 90600, Note_on_c, 1, 65, 86
1, 90600, Note_on_c, 1, 55, 86
1, 90640, Note_on_c, 0, 80, 0
1, 90640, Note_on_c, 0, 77, 87
1, 90680, Note_on_c, 0, 77, 0
1, 90680, Note_on_c, 0, 74, 87
1, 90720, Note_on_c, 0, 74, 0
1, 90720, Note_on_c, 0, 83, 88
1, 90720, Note_on_c, 1, 55, 0
1, 90720, Note_on_c, 1, 65, 0
1, 90720, Note_on_c, 1, 62, 88
1, 90720, Note_on_c, 1, 55, 88
1, 90760, Note_on_c, 0, 83, 0
1, 90760, Note_on_c, 0, 77, 89
1, 90800, Note_on_c, 0, 77, 0
1, 90800, Note_on_c, 0, 74, 89
1, 90840, Note_on_c, 0, 74, 0
1, 90840, Note_on_c, 0, 84, 90
1, 90840, Note_on_c, 1, 55, 0
1, 90840, Note_on_c, 1, 62, 0
1, 90840, Note_on_c, 1, 63, 90
1, 90840, Note_on_c, 1, 55, 90
1, 90880, Note_on_c, 0, 84, 0
1, 90880, Note_on_c, 0, 79, 91
1, 90920, Note_on_c, 0, 79, 0
1, 90920, Note_on_c, 0, 75, 91
1, 90960, Note_on_c, 0, 75, 0
1, 90960, Note_on_c, 0, 86, 92
1, 90960, Note_on_c, 1, 55, 0
1, 90960, Note_on_c, 1, 63, 0
1, 90960, Note_on_c, 1, 59, 92
1, 90960, Note_on_c, 1, 55, 92
1, 91000, Note_on_c, 0, 86, 0
1, 91000, Note_on_c, 0, 83, 93
1, 91040, Note_on_c, 0, 83, 0
1, 91040, Note_on_c, 0, 79, 93
1, 91080, Note_on_c, 0, 79, 0
1, 91080, Note_on_c, 0, 87, 94
1, 91080, Note_on_c, 1, 55, 0
1, 91080, Note_on_c, 1, 59, 0
1, 91080, Note_on_c, 1, 60, 94
1, 91080, Note_on_c, 1, 55, 94
1, 91120, Note_on_c, 0, 87, 0
1, 91120, Note_on_c, 0, 84, 95
1, 91160, Note_on_c, 0, 84, 0
1, 91160, Note_on_c, 0, 79, 95
1, 91200, Note_on_c, 0, 79, 0
1, 91200, Note_on_c, 0, 89, 96
1, 91200, Note_on_c, 1, 55, 0
1, 91200, Note_on_c, 1, 60, 0
1, 91200, Note_on_c, 1, 55, 96
1, 91200, Note_on_c, 1, 62, 96
1, 91440, Note_on_c, 0, 89, 0
1, 91440, Note_on_c, 1, 62, 0
1, 91440, Note_on_c, 1, 55, 0
1, 91680, Note_on_c, 1, 60, 48
1, 91720, Note_on_c, 1, 60, 0
1, 91720, Note_on_c, 1, 63, 48
1, 91760, Note_on_c, 1, 63, 0
1, 91760, Note_on_c, 1, 67, 48
1, 91800, Note_on_c, 1, 67, 0
1, 91800, Note_on_c, 1, 60, 48
1, 91840, Note_on_c, 1, 60, 0
1, 91840, Note_on_c, 1, 63, 48
1, 91880, Note_on_c, 1, 63, 0
1, 91880, Note_on_c, 1, 67, 48
1, 91920, Note_on_c, 1, 67, 0
1, 91920, Note_on_c, 1, 60, 48
1, 91960, Note_on_c, 1, 60, 0
1, 91960, Note_on_c, 1, 63, 48
1, 92000, Note_on_c, 1, 63, 0
1, 92000, Note_on_c, 1, 67, 48
1, 92040, Note_on_c, 0, 77, 56
1, 92040, Note_on_c, 1, 67, 0
1, 92040, Note_on_c, 1, 60, 48
1, 92070, Note_on_c, 0, 77, 0
1, 92070, Note_on_c, 0, 75, 56
1, 92080, Note_on_c, 1, 60, 0
1, 92080, Note_on_c, 1, 63, 48
1, 92100, Note_on_c, 0, 75, 0
1, 92100, Note_on_c, 0, 74, 56
1, 92120, Note_on_c, 1, 63, 0
1, 92120, Note_on_c, 1, 67, 48
1, 92130, Note_on_c, 0, 74, 0
1, 92130, Note_on_c, 0, 72, 56
1, 92160, Note_on_c, 0, 72, 0
1, 92160, Note_on_c, 0, 71, 56
1, 92160, Note_on_c, 1, 67, 0
1, 92160, Note_on_c, 1, 62, 48
1, 92200, Note_on_c, 1, 62, 0
1, 92200, Note_on_c, 1, 65, 48
1, 92232, Note_on_c, 0, 71, 0
1, 92240, Note_on_c, 1, 65, 0
1, 92240, Note_on_c, 1, 67, 48
1, 92280, Note_on_c, 1, 67, 0
1, 92280, Note_on_c, 1, 62, 48
1, 92320, Note_on_c, 1, 62, 0
1, 92320, Note_on_c, 1, 65, 48
1, 92360, Note_on_c, 1, 65, 0
1, 92360, Note_on_c, 1, 67, 48
1, 92400, Note_on_c, 1, 67, 0
1, 92400, Note_on_c, 1, 59, 48
1, 92440, Note_on_c, 1, 59, 0
1, 92440, Note_on_c, 1, 62, 48
1, 92480, Note_on_c, 1, 62, 0
1, 92480, Note_on_c, 1, 67, 48
1, 92520, Note_on_c, 0, 82, 56
1, 92520, Note_on_c, 1, 67, 0
1, 92520, Note_on_c, 1, 59, 48
1, 92550, Note_on_c, 0, 82, 0
1, 92550, Note_on_c, 0, 80, 56
1, 92560, Note_on_c, 1, 59, 0
1, 92560, Note_on_c, 1, 62, 48
1, 92580, Note_on_c, 0, 80, 0
1, 92580, Note_on_c, 0, 79, 56
1, 92600, Note_on_c, 1, 62, 0
1, 92600, Note_on_c, 1, 67, 48
1, 92610, Note_on_c, 0, 79, 0
1, 92610, Note_on_c, 0, 77, 56
1, 92640, Note_on_c, 0, 77, 0
1, 92640, Note_on_c, 0, 75, 56
1, 92640, Note_on_c, 1, 67, 0
1, 92640, Note_on_c, 1, 60, 48
1, 92680, Note_on_c, 1, 60, 0
1, 92680, Note_on_c, 1, 63, 48
1, 92720, Note_on_c, 1, 63, 0
1, 92720, Note_on_c, 1, 67, 48
1, 92760, Note_on_c, 0, 75, 0
1, 92760, Note_on_c, 1, 67, 0
1, 92760, Note_on_c, 1, 60, 48
1, 92800, Note_on_c, 1, 60, 0
1, 92800, Note_on_c, 1, 63, 48
1, 92840, Note_on_c, 1, 63, 0
1, 92840, Note_on_c, 1, 67, 48
1, 92880, Note_on_c, 1, 67, 0
1, 92880, Note_on_c, 1, 60, 48
1, 92920, Note_on_c, 1, 60, 0
1, 92920, Note_on_c, 1, 63, 48
1, 92960, Note_on_c, 1, 63, 0
1, 92960, Note_on_c, 1, 67, 48
1, 93000, Note_on_c, 0, 77, 56
1, 93000, Note_on_c, 1, 67, 0
1, 93000, Note_on_c, 1, 60, 48
1, 93030, Note_on_c, 0, 77, 0
1, 93030, Note_on_c, 0, 75, 56
1, 93040, Note_on_c, 1, 60, 0
1, 93040, Note_on_c, 1, 63, 48
1, 93060, Note_on_c, 0, 75, 0
1, 93060, Note_on_c, 0, 74, 56
1, 93080, Note_on_c, 1, 63, 0
1, 93080, Note_on_c, 1, 67, 48
1, 93090, Note_on_c, 0, 74, 0
1, 93090, Note_on_c, 0, 72, 56
1, 93120, Note_on_c, 0, 72, 0
1, 93120, Note_on_c, 0, 71, 56
1, 93120, Note_on_c, 1, 67, 0
1, 93120, Note_on_c, 1, 62, 48
1, 93160, Note_on_c, 1, 62, 0
1, 93160, Note_on_c, 1, 65, 49
1, 93192, Note_on_c, 0, 71, 0
1, 93200, Note_on_c, 1, 65, 0
1, 93200, Note_on_c, 1, 67, 50
1, 93240, Note_on_c, 1, 67, 0
1, 93240, Note_on_c, 1, 62, 51
1, 93280, Note_on_c, 1, 62, 0
1, 93280, Note_on_c, 1, 65, 52
1, 93320, Note_on_c, 1, 65, 0
1, 93320, Note_on_c, 1, 67, 53
1, 93360, Note_on_c, 1, 67, 0
1, 93360, Note_on_c, 1, 59, 54
1, 93400, Note_on_c, 1, 59, 0
1, 93400, Note_on_c, 1, 62, 55
1, 93440, Note_on_c, 1, 62, 0
1, 93440, Note_on_c, 1, 67, 56
1, 93480, Note_on_c, 0, 82, 65
1, 93480, Note_on_c, 1, 67, 0
1, 93480, Note_on_c, 1, 59, 57
1, 93510, Note_on_c, 0, 82, 0
1, 93510, Note_on_c, 0, 80, 66
1, 93520, Note_on_c, 1, 59, 0
1, 93520, Note_on_c, 1, 62, 58
1, 93540, Note_on_c, 0, 80, 0
1, 93540, Note_on_c, 0, 79, 67
1, 93560, Note_on_c, 1, 62, 0
1, 93560, Note_on_c, 1, 67, 59
1, 93570, Note_on_c, 0, 79, 0
1, 93570, Note_on_c, 0, 77, 67
1, 93600, Note_on_c, 0, 77, 0
1, 93600, Note_on_c, 0, 75, 68
1, 93600, Note_on_c, 1, 67, 0
1, 93600, Note_on_c, 1, 60, 60
1, 93640, Note_on_c, 1, 60, 0
1, 93640, Note_on_c, 1, 63, 61
1, 93680, Note_on_c, 1, 63, 0
1, 93680, Note_on_c, 1, 67, 62
1, 93720, Note_on_c, 0, 75, 0
1, 93720, Note_on_c, 0, 77, 71
1, 93720, Note_on_c, 1, 67, 0
1, 93720, Note_on_c, 1, 60, 63
1, 93750, Note_on_c, 0, 77, 0
1, 93750, Note_on_c, 0, 75, 72
1, 93760, Note_on_c, 1, 60, 0
1, 93760, Note_on_c, 1, 63, 64
1, 93780, Note_on_c, 0, 75, 0
1, 93780, Note_on_c, 0, 74, 73
1, 93800, Note_on_c, 1, 63, 0
1, 93800, Note_on_c, 1, 67, 65
1, 93810, Note_on_c, 0, 74, 0
1, 93810, Note_on_c, 0, 72, 73
1, 93840, Note_on_c, 0, 72, 0
1, 93840, Note_on_c, 0, 71, 74
1, 93840, Note_on_c, 1, 67, 0
1, 93840, Note_on_c, 1, 62, 66
1, 93880, Note_on_c, 1, 62, 0
1, 93880, Note_on_c, 1, 65, 67
1, 93912, Note_on_c, 0, 71, 0
1, 93920, Note_on_c, 1, 65, 0
1, 93920, Note_on_c, 1, 67, 68
1, 93960, Note_on_c, 0, 82, 77
1, 93960, Note_on_c, 1, 67, 0
1, 93960, Note_on_c, 1, 59, 69
1, 93990, Note_on_c, 0, 82, 0
1, 93990, Note_on_c, 0, 80, 78
1, 94000, Note_on_c, 1, 59, 0
1, 94000, Note_on_c, 1, 62, 70
1, 94020, Note_on_c, 0, 80, 0
1, 94020, Note_on_c, 0, 79, 79
1, 94040, Note_on_c, 1, 62, 0
1, 94040, Note_on_c, 1, 67, 71
1, 94050, Note_on_c, 0, 79, 0
1, 94050, Note_on_c, 0, 77, 79
1, 94080, Note_on_c, 0, 77, 0
1, 94080, Note_on_c, 0, 75, 80
1, 94080, Note_on_c, 1, 67, 0
1, 94080, Note_on_c, 1, 60, 80
1, 94120, Note_on_c, 1, 60, 0
1, 94120, Note_on_c, 1, 63, 80
1, 94160, Note_on_c, 1, 63, 0
1, 94160, Note_on_c, 1, 67, 80
1, 94200, Note_on_c, 0, 75, 0
1, 94200, Note_on_c, 0, 77, 80
1, 94200, Note_on_c, 1, 67, 0
1, 94200, Note_on_c, 1, 60, 80
1, 94230, Note_on_c, 0, 77, 0
1, 94230, Note_on_c, 0, 75, 80
1, 94240, Note_on_c, 1, 60, 0
1, 94240, Note_on_c, 1, 63, 80
1, 94260, Note_on_c, 0, 75, 0
1, 94260, Note_on_c, 0, 74, 80
1, 94280, Note_on_c, 1, 63, 0
1, 94280, Note_on_c, 1, 67, 80
1, 94290, Note_on_c, 0, 74, 0
1, 94290, Note_on_c, 0, 72, 80
1, 94320, Note_on_c, 0, 72, 0
1, 94320, Note_on_c, 0, 71, 80
1, 94320, Note_on_c, 1, 67, 0
1, 94320, Note_on_c, 1, 62, 80
1, 94360, Note_on_c, 1, 62, 0
1, 94360, Note_on_c, 1, 65, 80
1, 94392, Note_on_c, 0, 71, 0
1, 94400, Note_on_c, 1, 65, 0
1, 94400, Note_on_c, 1, 67, 80
1, 94440, Note_on_c, 0, 82, 80
1, 94440, Note_on_c, 1, 67, 0
1, 94440, Note_on_c, 1, 59, 80
1, 94470, Note_on_c, 0, 82, 0
1, 94470, Note_on_c, 0, 80, 80
1, 94480, Note_on_c, 1, 59, 0
1, 94480, Note_on_c, 1, 62, 80
1, 94500, Note_on_c, 0, 80, 0
1, 94500, Note_on_c, 0, 79, 80
1, 94520, Note_on_c, 1, 62, 0
1, 94520, Note_on_c, 1, 67, 80
1, 94530, Note_on_c, 0, 79, 0
1, 94530, Note_on_c, 0, 77, 80
1, 94560, Note_on_c, 0, 77, 0
1, 94560, Note_on_c, 0, 75, 80
1, 94560, Note_on_c, 1, 67, 0
1, 94560, Note_on_c, 1, 60, 80
1, 94680, Note_on_c, 0, 75, 0
1, 94680, Note_on_c, 0, 89, 80
1, 94680, Note_on_c, 1, 60, 0
1, 94720, Note_on_c, 0, 89, 0
1, 94720, Note_on_c, 0, 87, 80
1, 94760, Note_on_c, 0, 87, 0
1, 94760, Note_on_c, 0, 86, 80
1, 94800, Note_on_c, 0, 86, 0
1, 94800, Note_on_c, 0, 84, 80
1, 94840, Note_on_c, 0, 84, 0
1, 94840, Note_on_c, 0, 82, 80
1, 94880, Note_on_c, 0, 82, 0
1, 94880, Note_on_c, 0, 80, 80
1, 94920, Note_on_c, 0, 80, 0
1, 94920, Note_on_c, 0, 79, 80
1, 94960, Note_on_c, 0, 79, 0
1, 94960, Note_on_c, 0, 77, 80
1, 95000, Note_on_c, 0, 77, 0
1, 95000, Note_on_c, 0, 75, 80
1, 95040, Note_on_c, 0, 75, 0
1, 95040, Note_on_c, 0, 74, 80
1, 95040, Note_on_c, 1, 56, 80
1, 95040, Note_on_c, 1, 53, 80
1, 95160, Note_on_c, 0, 74, 0
1, 95220, Note_on_c, 0, 73, 80
1, 95280, Note_on_c, 0, 73, 0
1, 95280, Note_on_c, 0, 74, 80
1, 95280, Note_on_c, 1, 53, 0
1, 95280, Note_on_c, 1, 56, 0
1, 95340, Note_on_c, 0, 74, 0
1, 95340, Note_on_c, 0, 75, 80
1, 95400, Note_on_c, 0, 75, 0
1, 95400, Note_on_c, 0, 76, 80
1, 95460, Note_on_c, 0, 76, 0
1, 95460, Note_on_c, 0, 77, 80
1, 95520, Note_on_c, 0, 77, 0
1, 95520, Note_on_c, 0, 78, 80
1, 95580, Note_on_c, 0, 78, 0
1, 95580, Note_on_c, 0, 79, 80
1, 95640, Note_on_c, 0, 79, 0
1, 95640, Note_on_c, 0, 82, 80
1, 95700, Note_on_c, 0, 82, 0
1, 95700, Note_on_c, 0, 80, 80
1, 95760, Note_on_c, 0, 80, 0
1, 95760, Note_on_c, 0, 79, 80
1, 95820, Note_on_c, 0, 79, 0
1, 95820, Note_on_c, 0, 77, 80
1, 95880, Note_on_c, 0, 77, 0
1, 95880, Note_on_c, 0, 75, 80
1, 95940, Note_on_c, 0, 75, 0
1, 95940, Note_on_c, 0, 74, 80
1, 96000, Note_on_c, 0, 74, 0
1, 96000, Note_on_c, 0, 72, 80
1, 96120, Note_on_c, 1, 55, 80
1, 96120, Note_on_c, 1, 63, 80
1, 96240, Note_on_c, 1, 63, 0
1, 96240, Note_on_c, 1, 55, 0
1, 96240, Note_on_c, 1, 55, 80
1, 96240, Note_on_c, 1, 63, 80
1, 96300, Note_on_c, 0, 72, 0
1, 96300, Note_on_c, 0, 71, 80
1, 96360, Note_on_c, 0, 71, 0
1, 96360, Note_on_c, 0, 77, 80
1, 96360, Note_on_c, 1, 63, 0
1, 96360, Note_on_c, 1, 55, 0
1, 96360, Note_on_c, 1, 55, 80
1, 96360, Note_on_c, 1, 62, 80
1, 96400, Note_on_c, 0, 77, 0
1, 96400, Note_on_c, 0, 74, 80
1, 96440, Note_on_c, 0, 74, 0
1, 96440, Note_on_c, 0, 71, 80
1, 96480, Note_on_c, 0, 71, 0
1, 96480, Note_on_c, 0, 72, 80
1, 96480, Note_on_c, 1, 62, 0
1, 96480, Note_on_c, 1, 55, 0
1, 96480, Note_on_c, 1, 48, 72
1, 96480, Note_on_c, 1, 60, 72
1, 96564, Note_on_c, 1, 60, 0
1, 96564, Note_on_c, 1, 48, 0
1, 96600, Note_on_c, 0, 72, 0
1, 96600, Note_on_c, 1, 48, 72
1, 96600, Note_on_c, 1, 60, 72
1, 96684, Note_on_c, 1, 60, 0
1, 96684, Note_on_c, 1, 48, 0
1, 96720, Note_on_c, 0, 75, 80
1, 96720, Note_on_c, 0, 79, 80
1, 96720, Note_on_c, 1, 48, 72
1, 96720, Note_on_c, 1, 60, 72
1, 96804, Note_on_c, 1, 60, 0
1, 96804, Note_on_c, 1, 48, 0
1, 96840, Note_on_c, 1, 48, 72
1, 96840, Note_on_c, 1, 60, 72
1, 96900, Note_on_c, 0, 79, 0
1, 96900, Note_on_c, 0, 75, 0
1, 96900, Note_on_c, 0, 77, 80
1, 96900, Note_on_c, 0, 80, 80
1, 96924, Note_on_c, 1, 60, 0
1, 96924, Note_on_c, 1, 48, 0
1, 96960, Note_on_c, 0, 80, 0
1, 96960, Note_on_c, 0, 77, 0
1, 96960, Note_on_c, 0, 75, 80
1, 96960, Note_on_c, 0, 79, 80
1, 96960, Note_on_c, 1, 48, 72
1, 96960, Note_on_c, 1, 60, 72
1, 97032, Note_on_c, 0, 79, 0
1, 97032, Note_on_c, 0, 75, 0
1, 97044, Note_on_c, 1, 60, 0
1, 97044, Note_on_c, 1, 48, 0
1, 97080, Note_on_c, 1, 48, 69
1, 97080, Note_on_c, 1, 60, 69
1, 97164, Note_on_c, 1, 60, 0
1, 97164, Note_on_c, 1, 48, 0
1, 97200, Note_on_c, 0, 67, 74
1, 97200, Note_on_c, 0, 75, 74
1, 97200, Note_on_c, 1, 48, 66
1, 97200, Note_on_c, 1, 60, 66
1, 97284, Note_on_c, 1, 60, 0
1, 97284, Note_on_c, 1, 48, 0
1, 97320, Note_on_c, 0, 75, 0
1, 97320, Note_on_c, 0, 67, 0
1, 97320, Note_on_c, 0, 65, 71
1, 97320, Note_on_c, 0, 71, 71
1, 97320, Note_on_c, 1, 48, 63
1, 97320, Note_on_c, 1, 60, 63
1, 97404, Note_on_c, 1, 60, 0
1, 97404, Note_on_c, 1, 48, 0
1, 97440, Note_on_c, 0, 71, 0
1, 97440, Note_on_c, 0, 65, 0
1, 97440, Note_on_c, 0, 63, 68
1, 97440, Note_on_c, 0, 72, 68
1, 97440, Note_on_c, 1, 48, 60
1, 97440, Note_on_c, 1, 36, 60
1, 97524, Note_on_c, 1, 36, 0
1, 97524, Note_on_c, 1, 48, 0
1, 97560, Note_on_c, 0, 72, 0
1, 97560, Note_on_c, 0, 63, 0
1, 97560, Note_on_c, 1, 48, 57
1, 97560, Note_on_c, 1, 36, 57
1, 97644, Note_on_c, 1, 36, 0
1, 97644, Note_on_c, 1, 48, 0
1, 97680, Note_on_c, 0, 63, 62
1, 97680, Note_on_c, 0, 67, 62
1, 97680, Note_on_c, 1, 48, 54
1, 97680, Note_on_c, 1, 36, 54
1, 97764, Note_on_c, 1, 36, 0
1, 97764, Note_on_c, 1, 48, 0
1, 97800, Note_on_c, 1, 48, 51
1, 97800, Note_on_c, 1, 36, 51
1, 97860, Note_on_c, 0, 67, 0
1, 97860, Note_on_c, 0, 63, 0
1, 97860, Note_on_c, 0, 65, 57
1, 97860, Note_on_c, 0, 68, 57
1, 97884, Note_on_c, 1, 36, 0
1, 97884, Note_on_c, 1, 48, 0
1, 97920, Note_on_c, 0, 68, 0
1, 97920, Note_on_c, 0, 65, 0
1, 97920, Note_on_c, 0, 63, 56
1, 97920, Note_on_c, 0, 67, 56
1, 97920, Note_on_c, 1, 48, 48
1, 97920, Note_on_c, 1, 36, 48
1, 97992, Note_on_c, 0, 67, 0
1, 97992, Note_on_c, 0, 63, 0
1, 98004, Note_on_c, 1, 36, 0
1, 98004, Note_on_c, 1, 48, 0
1, 98040, Note_on_c, 1, 48, 45
1, 98040, Note_on_c, 1, 36, 45
1, 98124, Note_on_c, 1, 36, 0
1, 98124, Note_on_c, 1, 48, 0
1, 98160, Note_on_c, 0, 55, 50
1, 98160, Note_on_c, 0, 63, 50
1, 98160, Note_on_c, 1, 48, 42
1, 98160, Note_on_c, 1, 36, 42
1, 98244, Note_on_c, 1, 36, 0
1, 98244, Note_on_c, 1, 48, 0
1, 98280, Note_on_c, 0, 63, 0
1, 98280, Note_on_c, 0, 55, 0
1, 98280, Note_on_c, 0, 53, 47
1, 98280, Note_on_c, 0, 59, 47
1, 98280, Note_on_c, 1, 48, 39
1, 98280, Note_on_c, 1, 36, 39
1, 98364, Note_on_c, 1, 36, 0
1, 98364, Note_on_c, 1, 48, 0
1, 98400, Note_on_c, 0, 59, 0
1, 98400, Note_on_c, 0, 53, 0
1, 98400, Note_on_c, 0, 51, 44
1, 98400, Note_on_c, 0, 60, 44
1, 98400, Note_on_c, 1, 36, 36
1, 98400, Note_on_c, 1, 48, 36
1, 98640, Note_on_c, 0, 60, 0
1, 98640, Note_on_c, 0, 51, 0
1, 98640, Note_on_c, 1, 48, 0
1, 98640, Note_on_c, 1, 36, 0
1, 98650, End_track
0, 0, End_of_file