0, 0, Header, 0, 1, 240
1, 0, Start_track
1, 0, Tempo, 416667
1, 480, Note_on_c, 0, 72, 80
1, 552, Note_on_c, 0, 72, 0
1, 720, Note_on_c, 0, 77, 80
1, 720, Note_on_c, 1, 60, 80
1, 720, Note_on_c, 1, 63, 80
1, 780, Note_on_c, 0, 77, 0
1, 780, Note_on_c, 0, 75, 80
1, 792, Note_on_c, 1, 63, 0
1, 792, Note_on_c, 1, 60, 0
1, 840, Note_on_c, 0, 75, 0
1, 840, Note_on_c, 0, 74, 80
1, 900, Note_on_c, 0, 74, 0
1, 900, Note_on_c, 0, 72, 80
1, 960, Note_on_c, 0, 72, 0
1, 960, Note_on_c, 0, 71, 80
1, 960, Note_on_c, 1, 62, 80
1, 960, Note_on_c, 1, 65, 80
1, 1032, Note_on_c, 0, 71, 0
1, 1032, Note_on_c, 1, 65, 0
1, 1032, Note_on_c, 1, 62, 0
1, 1200, Note_on_c, 0, 74, 80
1, 1272, Note_on_c, 0, 74, 0
1, 1440, Note_on_c, 0, 79, 80
1, 1440, Note_on_c, 1, 62, 80
1, 1440, Note_on_c, 1, 65, 80
1, 1500, Note_on_c, 0, 79, 0
1, 1500, Note_on_c, 0, 77, 80
1, 1512, Note_on_c, 1, 65, 0
1, 1512, Note_on_c, 1, 62, 0
1, 1560, Note_on_c, 0, 77, 0
1, 1560, Note_on_c, 0, 75, 80
1, 1620, Note_on_c, 0, 75, 0
1, 1620, Note_on_c, 0, 74, 80
1, 1680, Note_on_c, 0, 74, 0
1, 1680, Note_on_c, 0, 72, 80
1, 1680, Note_on_c, 1, 63, 80
1, 1680, Note_on_c, 1, 67, 80
1, 1752, Note_on_c, 0, 72, 0
1, 1752, Note_on_c, 1, 67, 0
1, 1752, Note_on_c, 1, 63, 0
1, 1920, Note_on_c, 0, 79, 80
1, 2100, Note_on_c, 0, 79, 0
1, 2100, Note_on_c, 0, 84, 80
1, 2160, Note_on_c, 0, 84, 0
1, 2160, Note_on_c, 0, 84, 80
1, 2160, Note_on_c, 1, 63, 80
1, 2160, Note_on_c, 1, 67, 80
1, 2340, Note_on_c, 0, 84, 0
1, 2340, Note_on_c, 0, 83, 80
1, 2400, Note_on_c, 0, 83, 0
1, 2400, Note_on_c, 0, 83, 80
1, 2400, Note_on_c, 1, 67, 0
1, 2400, Note_on_c, 1, 63, 0
1, 2400, Note_on_c, 1, 62, 80
1, 2400, Note_on_c, 1, 65, 80
1, 2580, Note_on_c, 0, 83, 0
1, 2580, Note_on_c, 0, 80, 80
1, 2640, Note_on_c, 0, 80, 0
1, 2640, Note_on_c, 0, 80, 80
1, 2640, Note_on_c, 1, 65, 0
1, 2640, Note_on_c, 1, 62, 0
1, 2640, Note_on_c, 1, 60, 80
1, 2640, Note_on_c, 1, 63, 80
1, 2820, Note_on_c, 0, 80, 0
1, 2820, Note_on_c, 0, 79, 80
1, 2880, Note_on_c, 0, 79, 0
1, 2880, Note_on_c, 0, 79, 80
1, 2880, Note_on_c, 1, 63, 0
1, 2880, Note_on_c, 1, 60, 0
1, 2880, Note_on_c, 1, 59, 80
1, 2880, Note_on_c, 1, 62, 80
1, 3120, Note_on_c, 1, 62, 0
1, 3120, Note_on_c, 1, 59, 0
1, 3120, Note_on_c, 1, 55, 80
1, 3120, Note_on_c, 1, 59, 80
1, 3360, Note_on_c, 0, 79, 0
1, 3360, Note_on_c, 0, 79, 80
1, 3360, Note_on_c, 1, 59, 0
1, 3360, Note_on_c, 1, 55, 0
1, 3360, Note_on_c, 1, 59, 80
1, 3360, Note_on_c, 1, 67, 80
1, 3420, Note_on_c, 0, 79, 0
1, 3420, Note_on_c, 0, 77, 80
1, 3432, Note_on_c, 1, 67, 0
1, 3432, Note_on_c, 1, 59, 0
1, 3480, Note_on_c, 0, 77, 0
1, 3480, Note_on_c, 0, 75, 80
1, 3540, Note_on_c, 0, 75, 0
1, 3540, Note_on_c, 0, 74, 80
1, 3600, Note_on_c, 0, 74, 0
1, 3600, Note_on_c, 0, 77, 80
1, 3600, Note_on_c, 1, 60, 80
1, 3600, Note_on_c, 1, 67, 80
1, 3660, Note_on_c, 0, 77, 0
1, 3660, Note_on_c, 0, 75, 80
1, 3720, Note_on_c, 0, 75, 0
1, 3720, Note_on_c, 0, 74, 80
1, 3780, Note_on_c, 0, 74, 0
1, 3780, Note_on_c, 0, 72, 80
1, 3840, Note_on_c, 0, 72, 0
1, 3840, Note_on_c, 0, 71, 80
1, 3840, Note_on_c, 1, 67, 0
1, 3840, Note_on_c, 1, 60, 0
1, 4020, Note_on_c, 0, 71, 0
1, 4020, Note_on_c, 0, 72, 80
1, 4056, Note_on_c, 0, 72, 0
1, 4080, Note_on_c, 0, 72, 80
1, 4080, Note_on_c, 1, 56, 80
1, 4080, Note_on_c, 1, 66, 80
1, 4120, Note_on_c, 0, 72, 0
1, 4120, Note_on_c, 0, 74, 80
1, 4160, Note_on_c, 0, 74, 0
1, 4160, Note_on_c, 0, 72, 80
1, 4200, Note_on_c, 0, 72, 0
1, 4200, Note_on_c, 0, 74, 80
1, 4230, Note_on_c, 0, 74, 0
1, 4230, Note_on_c, 0, 72, 80
1, 4260, Note_on_c, 0, 72, 0
1, 4260, Note_on_c, 0, 71, 80
1, 4290, Note_on_c, 0, 71, 0
1, 4290, Note_on_c, 0, 72, 80
1, 4320, Note_on_c, 0, 72, 0
1, 4320, Note_on_c, 0, 72, 80
1, 4320, Note_on_c, 1, 66, 0
1, 4320, Note_on_c, 1, 56, 0
1, 4320, Note_on_c, 1, 55, 80
1, 4320, Note_on_c, 1, 67, 80
1, 4560, Note_on_c, 0, 72, 0
1, 4560, Note_on_c, 0, 71, 80
1, 4560, Note_on_c, 0, 74, 80
1, 4560, Note_on_c, 1, 67, 0
1, 4560, Note_on_c, 1, 55, 0
1, 4752, Note_on_c, 0, 74, 0
1, 4752, Note_on_c, 0, 71, 0
1, 4800, Note_on_c, 0, 60, 80
1, 4872, Note_on_c, 0, 60, 0
1, 5040, Note_on_c, 0, 65, 80
1, 5100, Note_on_c, 0, 65, 0
1, 5100, Note_on_c, 0, 63, 80
1, 5160, Note_on_c, 0, 63, 0
1, 5160, Note_on_c, 0, 62, 80
1, 5220, Note_on_c, 0, 62, 0
1, 5220, Note_on_c, 0, 60, 80
1, 5280, Note_on_c, 0, 60, 0
1, 5280, Note_on_c, 0, 59, 80
1, 5280, Note_on_c, 1, 50, 80
1, 5280, Note_on_c, 1, 53, 80
1, 5376, Note_on_c, 0, 59, 0
1, 5376, Note_on_c, 1, 53, 0
1, 5376, Note_on_c, 1, 50, 0
1, 5520, Note_on_c, 0, 62, 80
1, 5616, Note_on_c, 0, 62, 0
1, 5760, Note_on_c, 0, 67, 80
1, 5820, Note_on_c, 0, 67, 0
1, 5820, Note_on_c, 0, 65, 80
1, 5880, Note_on_c, 0, 65, 0
1, 5880, Note_on_c, 0, 63, 80
1, 5940, Note_on_c, 0, 63, 0
1, 5940, Note_on_c, 0, 62, 80
1, 6000, Note_on_c, 0, 62, 0
1, 6000, Note_on_c, 0, 60, 80
1, 6000, Note_on_c, 1, 51, 80
1, 6000, Note_on_c, 1, 55, 80
1, 6096, Note_on_c, 0, 60, 0
1, 6096, Note_on_c, 1, 55, 0
1, 6096, Note_on_c, 1, 51, 0
1, 6240, Note_on_c, 0, 72, 48
1, 6300, Note_on_c, 0, 72, 0
1, 6300, Note_on_c, 0, 71, 48
1, 6360, Note_on_c, 0, 71, 0
1, 6360, Note_on_c, 0, 74, 48
1, 6420, Note_on_c, 0, 74, 0
1, 6420, Note_on_c, 0, 72, 48
1, 6480, Note_on_c, 0, 72, 0
1, 6480, Note_on_c, 0, 75, 48
1, 6528, Note_on_c, 0, 75, 0
1, 6600, Note_on_c, 0, 74, 48
1, 6648, Note_on_c, 0, 74, 0
1, 6720, Note_on_c, 0, 72, 48
1, 6768, Note_on_c, 0, 72, 0
1, 6840, Note_on_c, 0, 70, 48
1, 6888, Note_on_c, 0, 70, 0
1, 6960, Note_on_c, 0, 68, 48
1, 7008, Note_on_c, 0, 68, 0
1, 7080, Note_on_c, 0, 67, 48
1, 7128, Note_on_c, 0, 67, 0
1, 7200, Note_on_c, 0, 67, 48
1, 7320, Note_on_c, 0, 67, 0
1, 7320, Note_on_c, 0, 66, 48
1, 7368, Note_on_c, 0, 66, 0
1, 7440, Note_on_c, 0, 74, 48
1, 7440, Note_on_c, 1, 59, 48
1, 7488, Note_on_c, 0, 74, 0
1, 7536, Note_on_c, 1, 59, 0
1, 7560, Note_on_c, 0, 65, 48
1, 7608, Note_on_c, 0, 65, 0
1, 7680, Note_on_c, 0, 65, 48
1, 7680, Note_on_c, 1, 60, 48
1, 7776, Note_on_c, 1, 60, 0
1, 7800, Note_on_c, 0, 65, 0
1, 7800, Note_on_c, 0, 63, 48
1, 7848, Note_on_c, 0, 63, 0
1, 7920, Note_on_c, 1, 53, 48
1, 8040, Note_on_c, 0, 62, 48
1, 8160, Note_on_c, 0, 62, 0
1, 8160, Note_on_c, 0, 65, 48
1, 8160, Note_on_c, 1, 53, 0
1, 8280, Note_on_c, 0, 65, 0
1, 8280, Note_on_c, 0, 68, 48
1, 8328, Note_on_c, 0, 68, 0
1, 8400, Note_on_c, 0, 67, 48
1, 8400, Note_on_c, 1, 55, 48
1, 8448, Note_on_c, 0, 67, 0
1, 8520, Note_on_c, 0, 59, 48
1, 8640, Note_on_c, 0, 59, 0
1, 8640, Note_on_c, 0, 60, 48
1, 8640, Note_on_c, 1, 55, 0
1, 8880, Note_on_c, 0, 60, 0
1, 8880, Note_on_c, 1, 36, 32
1, 8976, Note_on_c, 1, 36, 0
1, 9120, Note_on_c, 1, 48, 80
1, 9180, Note_on_c, 1, 48, 0
1, 9180, Note_on_c, 1, 47, 80
1, 9240, Note_on_c, 1, 47, 0
1, 9240, Note_on_c, 1, 50, 80
1, 9300, Note_on_c, 1, 50, 0
1, 9300, Note_on_c, 1, 48, 80
1, 9360, Note_on_c, 1, 48, 0
1, 9360, Note_on_c, 1, 51, 80
1, 9456, Note_on_c, 1, 51, 0
1, 9480, Note_on_c, 0, 75, 80
1, 9600, Note_on_c, 0, 75, 0
1, 9600, Note_on_c, 0, 74, 80
1, 9720, Note_on_c, 0, 74, 0
1, 9720, Note_on_c, 0, 72, 80
1, 9840, Note_on_c, 0, 72, 0
1, 9840, Note_on_c, 0, 70, 80
1, 9960, Note_on_c, 0, 70, 0
1, 9960, Note_on_c, 0, 68, 80
1, 10080, Note_on_c, 0, 68, 0
1, 10080, Note_on_c, 0, 67, 80
1, 10200, Note_on_c, 1, 63, 80
1, 10320, Note_on_c, 1, 63, 0
1, 10320, Note_on_c, 1, 62, 80
1, 10440, Note_on_c, 1, 62, 0
1, 10440, Note_on_c, 1, 60, 80
1, 10560, Note_on_c, 1, 60, 0
1, 10560, Note_on_c, 1, 58, 80
1, 10680, Note_on_c, 0, 67, 0
1, 10680, Note_on_c, 0, 68, 80
1, 10680, Note_on_c, 1, 58, 0
1, 10680, Note_on_c, 1, 56, 80
1, 10740, Note_on_c, 0, 68, 0
1, 10740, Note_on_c, 0, 70, 80
1, 10770, Note_on_c, 0, 70, 0
1, 10770, Note_on_c, 0, 68, 80
1, 10800, Note_on_c, 0, 68, 0
1, 10800, Note_on_c, 0, 70, 80
1, 10800, Note_on_c, 1, 56, 0
1, 10800, Note_on_c, 1, 55, 80
1, 10872, Note_on_c, 0, 70, 0
1, 10872, Note_on_c, 1, 55, 0
1, 10920, Note_on_c, 0, 67, 80
1, 10920, Note_on_c, 1, 51, 80
1, 10980, Note_on_c, 0, 67, 0
1, 10980, Note_on_c, 0, 70, 80
1, 11040, Note_on_c, 0, 70, 0
1, 11040, Note_on_c, 0, 65, 80
1, 11040, Note_on_c, 1, 51, 0
1, 11040, Note_on_c, 1, 50, 80
1, 11100, Note_on_c, 0, 65, 0
1, 11100, Note_on_c, 0, 70, 80
1, 11160, Note_on_c, 0, 70, 0
1, 11160, Note_on_c, 0, 63, 80
1, 11160, Note_on_c, 1, 50, 0
1, 11160, Note_on_c, 1, 48, 80
1, 11220, Note_on_c, 0, 63, 0
1, 11220, Note_on_c, 0, 70, 80
1, 11280, Note_on_c, 0, 70, 0
1, 11280, Note_on_c, 0, 62, 80
1, 11280, Note_on_c, 1, 48, 0
1, 11280, Note_on_c, 1, 46, 80
1, 11340, Note_on_c, 0, 62, 0
1, 11340, Note_on_c, 0, 70, 80
1, 11400, Note_on_c, 0, 70, 0
1, 11400, Note_on_c, 0, 60, 80
1, 11400, Note_on_c, 1, 46, 0
1, 11400, Note_on_c, 1, 44, 80
1, 11460, Note_on_c, 0, 60, 0
1, 11460, Note_on_c, 0, 70, 80
1, 11520, Note_on_c, 0, 70, 0
1, 11520, Note_on_c, 0, 58, 80
1, 11520, Note_on_c, 1, 44, 0
1, 11520, Note_on_c, 1, 43, 80
1, 11640, Note_on_c, 0, 58, 0
1, 11640, Note_on_c, 0, 75, 64
1, 11760, Note_on_c, 0, 75, 0
1, 11760, Note_on_c, 0, 79, 64
1, 11760, Note_on_c, 1, 43, 0
1, 11808, Note_on_c, 0, 79, 0
1, 11880, Note_on_c, 0, 75, 64
1, 11928, Note_on_c, 0, 75, 0
1, 12000, Note_on_c, 0, 74, 64
1, 12120, Note_on_c, 0, 74, 0
1, 12120, Note_on_c, 0, 72, 64
1, 12240, Note_on_c, 0, 72, 0
1, 12240, Note_on_c, 0, 70, 64
1, 12240, Note_on_c, 1, 53, 64
1, 12360, Note_on_c, 0, 60, 64
1, 12480, Note_on_c, 0, 60, 0
1, 12480, Note_on_c, 0, 70, 0
1, 12480, Note_on_c, 0, 63, 64
1, 12480, Note_on_c, 0, 69, 64
1, 12600, Note_on_c, 0, 63, 0
1, 12600, Note_on_c, 0, 67, 64
1, 12720, Note_on_c, 0, 67, 0
1, 12720, Note_on_c, 0, 65, 64
1, 12840, Note_on_c, 0, 65, 0
1, 12840, Note_on_c, 0, 63, 64
1, 12960, Note_on_c, 0, 63, 0
1, 12960, Note_on_c, 0, 69, 0
1, 12960, Note_on_c, 0, 63, 64
1, 12960, Note_on_c, 1, 53, 0
1, 12960, Note_on_c, 1, 58, 64
1, 13080, Note_on_c, 0, 68, 64
1, 13200, Note_on_c, 0, 68, 0
1, 13200, Note_on_c, 0, 63, 0
1, 13200, Note_on_c, 0, 77, 64
1, 13200, Note_on_c, 0, 62, 64
1, 13320, Note_on_c, 0, 77, 0
1, 13320, Note_on_c, 0, 74, 64
1, 13368, Note_on_c, 0, 74, 0
1, 13440, Note_on_c, 0, 70, 64
1, 13560, Note_on_c, 0, 70, 0
1, 13560, Note_on_c, 0, 68, 64
1, 13656, Note_on_c, 0, 68, 0
1, 13656, Note_on_c, 0, 62, 0
1, 13680, Note_on_c, 0, 68, 64
1, 13680, Note_on_c, 1, 58, 0
1, 13680, Note_on_c, 1, 51, 64
1, 13800, Note_on_c, 0, 58, 64
1, 13920, Note_on_c, 0, 58, 0
1, 13920, Note_on_c, 0, 68, 0
1, 13920, Note_on_c, 0, 63, 64
1, 13920, Note_on_c, 0, 67, 64
1, 14040, Note_on_c, 0, 63, 0
1, 14040, Note_on_c, 0, 65, 64
1, 14160, Note_on_c, 0, 65, 0
1, 14160, Note_on_c, 0, 63, 64
1, 14280, Note_on_c, 0, 63, 0
1, 14280, Note_on_c, 0, 62, 64
1, 14400, Note_on_c, 0, 62, 0
1, 14400, Note_on_c, 0, 60, 64
1, 14400, Note_on_c, 1, 51, 0
1, 14400, Note_on_c, 1, 44, 64
1, 14520, Note_on_c, 0, 67, 0
1, 14520, Note_on_c, 0, 65, 67
1, 14640, Note_on_c, 0, 65, 0
1, 14640, Note_on_c, 0, 72, 69
1, 14760, Note_on_c, 0, 72, 0
1, 14760, Note_on_c, 0, 68, 72
1, 14880, Note_on_c, 0, 68, 0
1, 14880, Note_on_c, 0, 65, 75
1, 14880, Note_on_c, 1, 44, 0
1, 14880, Note_on_c, 1, 45, 75
1, 15000, Note_on_c, 0, 65, 0
1, 15000, Note_on_c, 0, 63, 77
1, 15120, Note_on_c, 0, 63, 0
1, 15120, Note_on_c, 0, 60, 0
1, 15120, Note_on_c, 0, 62, 80
1, 15120, Note_on_c, 1, 45, 0
1, 15120, Note_on_c, 1, 34, 88
1, 15120, Note_on_c, 1, 46, 88
1, 15180, Note_on_c, 0, 62, 0
1, 15180, Note_on_c, 0, 65, 80
1, 15216, Note_on_c, 1, 46, 0
1, 15216, Note_on_c, 1, 34, 0
1, 15240, Note_on_c, 0, 65, 0
1, 15240, Note_on_c, 0, 63, 80
1, 15300, Note_on_c, 0, 63, 0
1, 15300, Note_on_c, 0, 67, 80
1, 15360, Note_on_c, 0, 67, 0
1, 15360, Note_on_c, 0, 65, 80
1, 15360, Note_on_c, 1, 62, 80
1, 15408, Note_on_c, 1, 62, 0
1, 15420, Note_on_c, 0, 65, 0
1, 15420, Note_on_c, 0, 68, 80
1, 15480, Note_on_c, 0, 68, 0
1, 15480, Note_on_c, 0, 67, 80
1, 15480, Note_on_c, 1, 63, 80
1, 15528, Note_on_c, 1, 63, 0
1, 15540, Note_on_c, 0, 67, 0
1, 15540, Note_on_c, 0, 70, 80
1, 15600, Note_on_c, 0, 70, 0
1, 15600, Note_on_c, 0, 68, 80
1, 15600, Note_on_c, 1, 65, 80
1, 15648, Note_on_c, 1, 65, 0
1, 15660, Note_on_c, 0, 68, 0
1, 15840, Note_on_c, 0, 63, 80
1, 15840, Note_on_c, 1, 34, 88
1, 15840, Note_on_c, 1, 46, 88
1, 15900, Note_on_c, 0, 63, 0
1, 15900, Note_on_c, 0, 67, 80
1, 15936, Note_on_c, 1, 46, 0
1, 15936, Note_on_c, 1, 34, 0
1, 15960, Note_on_c, 0, 67, 0
1, 15960, Note_on_c, 0, 65, 80
1, 16020, Note_on_c, 0, 65, 0
1, 16020, Note_on_c, 0, 68, 80
1, 16080, Note_on_c, 0, 68, 0
1, 16080, Note_on_c, 0, 67, 80
1, 16080, Note_on_c, 1, 63, 80
1, 16140, Note_on_c, 0, 67, 0
1, 16140, Note_on_c, 0, 70, 80
1, 16200, Note_on_c, 0, 70, 0
1, 16200, Note_on_c, 0, 68, 80
1, 16200, Note_on_c, 1, 63, 0
1, 16200, Note_on_c, 1, 65, 80
1, 16260, Note_on_c, 0, 68, 0
1, 16260, Note_on_c, 0, 72, 80
1, 16320, Note_on_c, 0, 72, 0
1, 16320, Note_on_c, 0, 70, 80
1, 16320, Note_on_c, 1, 65, 0
1, 16320, Note_on_c, 1, 67, 80
1, 16380, Note_on_c, 0, 70, 0
1, 16380, Note_on_c, 1, 67, 0
1, 16560, Note_on_c, 0, 70, 80
1, 16560, Note_on_c, 1, 34, 88
1, 16560, Note_on_c, 1, 46, 88
1, 16620, Note_on_c, 0, 70, 0
1, 16620, Note_on_c, 0, 74, 80
1, 16656, Note_on_c, 1, 46, 0
1, 16656, Note_on_c, 1, 34, 0
1, 16680, Note_on_c, 0, 74, 0
1, 16680, Note_on_c, 0, 72, 80
1, 16740, Note_on_c, 0, 72, 0
1, 16740, Note_on_c, 0, 75, 80
1, 16800, Note_on_c, 0, 75, 0
1, 16800, Note_on_c, 0, 74, 80
1, 16800, Note_on_c, 1, 58, 80
1, 16860, Note_on_c, 0, 74, 0
1, 16860, Note_on_c, 0, 77, 80
1, 16920, Note_on_c, 0, 77, 0
1, 16920, Note_on_c, 0, 75, 80
1, 16920, Note_on_c, 1, 58, 0
1, 16920, Note_on_c, 1, 60, 80
1, 16968, Note_on_c, 1, 60, 0
1, 16980, Note_on_c, 0, 75, 0
1, 16980, Note_on_c, 0, 79, 80
1, 17040, Note_on_c, 0, 79, 0
1, 17040, Note_on_c, 0, 77, 80
1, 17040, Note_on_c, 1, 62, 80
1, 17088, Note_on_c, 1, 62, 0
1, 17100, Note_on_c, 0, 77, 0
1, 17100, Note_on_c, 0, 80, 80
1, 17160, Note_on_c, 0, 80, 0
1, 17160, Note_on_c, 0, 79, 80
1, 17160, Note_on_c, 1, 63, 80
1, 17208, Note_on_c, 1, 63, 0
1, 17220, Note_on_c, 0, 79, 0
1, 17220, Note_on_c, 0, 82, 80
1, 17280, Note_on_c, 0, 82, 0
1, 17280, Note_on_c, 0, 80, 80
1, 17280, Note_on_c, 1, 65, 80
1, 17340, Note_on_c, 0, 80, 0
1, 17340, Note_on_c, 0, 82, 80
1, 17400, Note_on_c, 0, 82, 0
1, 17400, Note_on_c, 0, 84, 80
1, 17460, Note_on_c, 0, 84, 0
1, 17460, Note_on_c, 0, 82, 80
1, 17520, Note_on_c, 0, 82, 0
1, 17520, Note_on_c, 0, 80, 80
1, 17520, Note_on_c, 1, 65, 0
1, 17580, Note_on_c, 0, 80, 0
1, 17580, Note_on_c, 0, 79, 80
1, 17640, Note_on_c, 0, 79, 0
1, 17640, Note_on_c, 0, 77, 80
1, 17700, Note_on_c, 0, 77, 0
1, 17700, Note_on_c, 0, 75, 80
1, 17760, Note_on_c, 0, 75, 0
1, 17760, Note_on_c, 0, 74, 80
1, 17820, Note_on_c, 0, 74, 0
1, 17820, Note_on_c, 0, 72, 80
1, 17880, Note_on_c, 0, 72, 0
1, 17880, Note_on_c, 0, 70, 80
1, 17940, Note_on_c, 0, 70, 0
1, 17940, Note_on_c, 0, 68, 80
1, 18000, Note_on_c, 0, 68, 0
1, 18000, Note_on_c, 0, 67, 80
1, 18000, Note_on_c, 1, 63, 80
1, 18060, Note_on_c, 0, 67, 0
1, 18060, Note_on_c, 0, 70, 80
1, 18120, Note_on_c, 0, 70, 0
1, 18120, Note_on_c, 0, 68, 80
1, 18120, Note_on_c, 1, 63, 0
1, 18120, Note_on_c, 1, 65, 80
1, 18168, Note_on_c, 1, 65, 0
1, 18180, Note_on_c, 0, 68, 0
1, 18180, Note_on_c, 0, 72, 80
1, 18240, Note_on_c, 0, 72, 0
1, 18240, Note_on_c, 0, 70, 80
1, 18240, Note_on_c, 1, 67, 80
1, 18288, Note_on_c, 1, 67, 0
1, 18300, Note_on_c, 0, 70, 0
1, 18300, Note_on_c, 0, 74, 80
1, 18360, Note_on_c, 0, 74, 0
1, 18360, Note_on_c, 0, 72, 80
1, 18360, Note_on_c, 1, 68, 80
1, 18408, Note_on_c, 1, 68, 0
1, 18420, Note_on_c, 0, 72, 0
1, 18420, Note_on_c, 0, 75, 80
1, 18480, Note_on_c, 0, 75, 0
1, 18480, Note_on_c, 0, 74, 80
1, 18480, Note_on_c, 1, 70, 80
1, 18528, Note_on_c, 1, 70, 0
1, 18540, Note_on_c, 0, 74, 0
1, 18540, Note_on_c, 0, 77, 80
1, 18600, Note_on_c, 0, 77, 0
1, 18600, Note_on_c, 0, 75, 80
1, 18600, Note_on_c, 1, 72, 80
1, 18660, Note_on_c, 0, 75, 0
1, 18660, Note_on_c, 0, 79, 80
1, 18720, Note_on_c, 0, 79, 0
1, 18720, Note_on_c, 0, 77, 80
1, 18720, Note_on_c, 1, 72, 0
1, 18720, Note_on_c, 1, 74, 88
1, 18780, Note_on_c, 0, 77, 0
1, 18780, Note_on_c, 0, 79, 80
1, 18816, Note_on_c, 1, 74, 0
1, 18840, Note_on_c, 0, 79, 0
1, 18840, Note_on_c, 0, 80, 80
1, 18900, Note_on_c, 0, 80, 0
1, 18900, Note_on_c, 0, 79, 80
1, 18960, Note_on_c, 0, 79, 0
1, 18960, Note_on_c, 0, 77, 80
1, 19020, Note_on_c, 0, 77, 0
1, 19020, Note_on_c, 0, 75, 80
1, 19080, Note_on_c, 0, 75, 0
1, 19080, Note_on_c, 0, 74, 80
1, 19140, Note_on_c, 0, 74, 0
1, 19140, Note_on_c, 0, 72, 80
1, 19200, Note_on_c, 0, 72, 0
1, 19200, Note_on_c, 0, 70, 80
1, 19260, Note_on_c, 0, 70, 0
1, 19260, Note_on_c, 0, 68, 80
1, 19320, Note_on_c, 0, 68, 0
1, 19320, Note_on_c, 0, 67, 80
1, 19380, Note_on_c, 0, 67, 0
1, 19380, Note_on_c, 0, 65, 80
1, 19440, Note_on_c, 0, 65, 0
1, 19440, Note_on_c, 0, 63, 80
1, 19440, Note_on_c, 1, 60, 80
1, 19500, Note_on_c, 0, 63, 0
1, 19500, Note_on_c, 0, 62, 80
1, 19560, Note_on_c, 0, 62, 0
1, 19560, Note_on_c, 0, 63, 80
1, 19620, Note_on_c, 0, 63, 0
1, 19620, Note_on_c, 0, 68, 80
1, 19680, Note_on_c, 0, 68, 0
1, 19680, Note_on_c, 0, 63, 80
1, 19680, Note_on_c, 1, 60, 0
1, 19680, Note_on_c, 1, 58, 80
1, 19740, Note_on_c, 0, 63, 0
1, 19740, Note_on_c, 0, 62, 80
1, 19776, Note_on_c, 1, 58, 0
1, 19800, Note_on_c, 0, 62, 0
1, 19800, Note_on_c, 0, 63, 80
1, 19860, Note_on_c, 0, 63, 0
1, 19860, Note_on_c, 0, 67, 80
1, 19920, Note_on_c, 0, 67, 0
1, 19920, Note_on_c, 0, 63, 80
1, 19920, Note_on_c, 1, 56, 80
1, 19980, Note_on_c, 0, 63, 0
1, 19980, Note_on_c, 0, 62, 80
1, 20016, Note_on_c, 1, 56, 0
1, 20040, Note_on_c, 0, 62, 0
1, 20040, Note_on_c, 0, 63, 80
1, 20100, Note_on_c, 0, 63, 0
1, 20100, Note_on_c, 0, 72, 80
1, 20160, Note_on_c, 0, 72, 0
1, 20160, Note_on_c, 0, 63, 80
1, 20160, Note_on_c, 1, 55, 80
1, 20220, Note_on_c, 0, 63, 0
1, 20220, Note_on_c, 0, 62, 80
1, 20256, Note_on_c, 1, 55, 0
1, 20280, Note_on_c, 0, 62, 0
1, 20280, Note_on_c, 0, 63, 80
1, 20340, Note_on_c, 0, 63, 0
1, 20340, Note_on_c, 0, 70, 80
1, 20364, Note_on_c, 0, 70, 0
1, 20400, Note_on_c, 0, 63, 80
1, 20400, Note_on_c, 1, 53, 80
1, 20460, Note_on_c, 0, 63, 0
1, 20460, Note_on_c, 0, 62, 80
1, 20496, Note_on_c, 1, 53, 0
1, 20520, Note_on_c, 0, 62, 0
1, 20520, Note_on_c, 0, 63, 80
1, 20580, Note_on_c, 0, 63, 0
1, 20580, Note_on_c, 0, 68, 80
1, 20604, Note_on_c, 0, 68, 0
1, 20640, Note_on_c, 0, 63, 80
1, 20640, Note_on_c, 1, 51, 80
1, 20700, Note_on_c, 0, 63, 0
1, 20700, Note_on_c, 0, 62, 80
1, 20736, Note_on_c, 1, 51, 0
1, 20760, Note_on_c, 0, 62, 0
1, 20760, Note_on_c, 0, 63, 80
1, 20820, Note_on_c, 0, 63, 0
1, 20820, Note_on_c, 0, 67, 80
1, 20844, Note_on_c, 0, 67, 0
1, 20880, Note_on_c, 0, 63, 48
1, 20880, Note_on_c, 1, 72, 48
1, 20940, Note_on_c, 0, 63, 0
1, 20940, Note_on_c, 0, 62, 48
1, 21000, Note_on_c, 0, 62, 0
1, 21000, Note_on_c, 0, 63, 48
1, 21060, Note_on_c, 0, 63, 0
1, 21060, Note_on_c, 0, 68, 48
1, 21120, Note_on_c, 0, 68, 0
1, 21120, Note_on_c, 0, 63, 48
1, 21120, Note_on_c, 1, 72, 0
1, 21120, Note_on_c, 1, 70, 48
1, 21180, Note_on_c, 0, 63, 0
1, 21180, Note_on_c, 0, 62, 48
1, 21240, Note_on_c, 0, 62, 0
1, 21240, Note_on_c, 0, 63, 48
1, 21300, Note_on_c, 0, 63, 0
1, 21300, Note_on_c, 0, 67, 48
1, 21360, Note_on_c, 0, 67, 0
1, 21360, Note_on_c, 0, 63, 48
1, 21360, Note_on_c, 1, 70, 0
1, 21360, Note_on_c, 1, 75, 48
1, 21420, Note_on_c, 0, 63, 0
1, 21420, Note_on_c, 0, 62, 48
1, 21480, Note_on_c, 0, 62, 0
1, 21480, Note_on_c, 0, 63, 48
1, 21540, Note_on_c, 0, 63, 0
1, 21540, Note_on_c, 0, 72, 48
1, 21600, Note_on_c, 0, 72, 0
1, 21600, Note_on_c, 0, 63, 48
1, 21600, Note_on_c, 1, 75, 0
1, 21600, Note_on_c, 1, 74, 48
1, 21660, Note_on_c, 0, 63, 0
1, 21660, Note_on_c, 0, 62, 48
1, 21720, Note_on_c, 0, 62, 0
1, 21720, Note_on_c, 0, 63, 48
1, 21780, Note_on_c, 0, 63, 0
1, 21780, Note_on_c, 0, 70, 48
1, 21840, Note_on_c, 0, 70, 0
1, 21840, Note_on_c, 0, 63, 48
1, 21840, Note_on_c, 1, 74, 0
1, 21840, Note_on_c, 1, 72, 48
1, 21900, Note_on_c, 0, 63, 0
1, 21900, Note_on_c, 0, 62, 48
1, 21960, Note_on_c, 0, 62, 0
1, 21960, Note_on_c, 0, 63, 48
1, 22020, Note_on_c, 0, 63, 0
1, 22020, Note_on_c, 0, 68, 48
1, 22080, Note_on_c, 0, 68, 0
1, 22080, Note_on_c, 0, 63, 48
1, 22080, Note_on_c, 1, 72, 0
1, 22080, Note_on_c, 1, 70, 48
1, 22140, Note_on_c, 0, 63, 0
1, 22140, Note_on_c, 0, 62, 48
1, 22200, Note_on_c, 0, 62, 0
1, 22200, Note_on_c, 0, 63, 48
1, 22260, Note_on_c, 0, 63, 0
1, 22260, Note_on_c, 0, 67, 48
1, 22320, Note_on_c, 0, 67, 0
1, 22320, Note_on_c, 0, 63, 80
1, 22320, Note_on_c, 1, 70, 0
1, 22320, Note_on_c, 1, 45, 88
1, 22380, Note_on_c, 0, 63, 0
1, 22380, Note_on_c, 0, 62, 80
1, 22416, Note_on_c, 1, 45, 0
1, 22440, Note_on_c, 0, 62, 0
1, 22440, Note_on_c, 0, 63, 80
1, 22500, Note_on_c, 0, 63, 0
1, 22500, Note_on_c, 0, 66, 80
1, 22560, Note_on_c, 0, 66, 0
1, 22560, Note_on_c, 0, 63, 80
1, 22560, Note_on_c, 1, 57, 80
1, 22620, Note_on_c, 0, 63, 0
1, 22620, Note_on_c, 0, 62, 80
1, 22656, Note_on_c, 1, 57, 0
1, 22680, Note_on_c, 0, 62, 0
1, 22680, Note_on_c, 0, 63, 80
1, 22740, Note_on_c, 0, 63, 0
1, 22740, Note_on_c, 0, 66, 80
1, 22800, Note_on_c, 0, 66, 0
1, 22800, Note_on_c, 0, 63, 80
1, 22860, Note_on_c, 0, 63, 0
1, 22860, Note_on_c, 0, 62, 80
1, 22920, Note_on_c, 0, 62, 0
1, 22920, Note_on_c, 0, 63, 80
1, 22980, Note_on_c, 0, 63, 0
1, 22980, Note_on_c, 0, 66, 80
1, 23040, Note_on_c, 0, 66, 0
1, 23040, Note_on_c, 0, 62, 80
1, 23040, Note_on_c, 1, 44, 88
1, 23100, Note_on_c, 0, 62, 0
1, 23100, Note_on_c, 0, 65, 80
1, 23124, Note_on_c, 0, 65, 0
1, 23136, Note_on_c, 1, 44, 0
1, 23160, Note_on_c, 0, 68, 80
1, 23184, Note_on_c, 0, 68, 0
1, 23220, Note_on_c, 0, 72, 80
1, 23244, Note_on_c, 0, 72, 0
1, 23280, Note_on_c, 0, 70, 80
1, 23280, Note_on_c, 1, 56, 80
1, 23340, Note_on_c, 0, 70, 0
1, 23340, Note_on_c, 0, 68, 80
1, 23376, Note_on_c, 1, 56, 0
1, 23400, Note_on_c, 0, 68, 0
1, 23400, Note_on_c, 0, 67, 80
1, 23460, Note_on_c, 0, 67, 0
1, 23460, Note_on_c, 0, 65, 80
1, 23520, Note_on_c, 0, 65, 0
1, 23520, Note_on_c, 0, 63, 80
1, 23580, Note_on_c, 0, 63, 0
1, 23580, Note_on_c, 0, 62, 80
1, 23640, Note_on_c, 0, 62, 0
1, 23640, Note_on_c, 0, 60, 80
1, 23700, Note_on_c, 0, 60, 0
1, 23700, Note_on_c, 0, 58, 80
1, 23760, Note_on_c, 0, 58, 0
1, 23760, Note_on_c, 1, 55, 80
1, 23880, Note_on_c, 0, 63, 80
1, 24000, Note_on_c, 0, 63, 0
1, 24000, Note_on_c, 0, 67, 80
1, 24000, Note_on_c, 1, 55, 0
1, 24048, Note_on_c, 0, 67, 0
1, 24120, Note_on_c, 0, 70, 80
1, 24168, Note_on_c, 0, 70, 0
1, 24240, Note_on_c, 0, 75, 80
1, 24288, Note_on_c, 0, 75, 0
1, 24360, Note_on_c, 0, 79, 48
1, 24360, Note_on_c, 0, 82, 48
1, 24360, Note_on_c, 1, 51, 48
1, 24480, Note_on_c, 1, 51, 0
1, 24480, Note_on_c, 1, 56, 48
1, 24600, Note_on_c, 0, 82, 0
1, 24600, Note_on_c, 0, 79, 0
1, 24600, Note_on_c, 0, 77, 48
1, 24600, Note_on_c, 0, 80, 48
1, 24720, Note_on_c, 1, 56, 0
1, 24720, Note_on_c, 1, 58, 48
1, 24840, Note_on_c, 0, 80, 0
1, 24840, Note_on_c, 0, 77, 0
1, 24840, Note_on_c, 0, 75, 48
1, 24840, Note_on_c, 0, 79, 48
1, 24960, Note_on_c, 1, 58, 0
1, 24960, Note_on_c, 1, 46, 48
1, 25080, Note_on_c, 0, 79, 0
1, 25080, Note_on_c, 0, 75, 0
1, 25080, Note_on_c, 0, 74, 48
1, 25080, Note_on_c, 0, 77, 48
1, 25128, Note_on_c, 0, 77, 0
1, 25128, Note_on_c, 0, 74, 0
1, 25200, Note_on_c, 0, 75, 80
1, 25200, Note_on_c, 1, 46, 0
1, 25200, Note_on_c, 1, 48, 80
1, 25248, Note_on_c, 1, 48, 0
1, 25260, Note_on_c, 0, 75, 0
1, 25260, Note_on_c, 0, 68, 80
1, 25320, Note_on_c, 0, 68, 0
1, 25320, Note_on_c, 0, 67, 80
1, 25320, Note_on_c, 1, 60, 80
1, 25368, Note_on_c, 1, 60, 0
1, 25380, Note_on_c, 0, 67, 0
1, 25380, Note_on_c, 0, 68, 80
1, 25440, Note_on_c, 0, 68, 0
1, 25440, Note_on_c, 0, 74, 80
1, 25440, Note_on_c, 1, 46, 80
1, 25488, Note_on_c, 1, 46, 0
1, 25500, Note_on_c, 0, 74, 0
1, 25500, Note_on_c, 0, 67, 80
1, 25560, Note_on_c, 0, 67, 0
1, 25560, Note_on_c, 0, 66, 80
1, 25560, Note_on_c, 1, 58, 80
1, 25608, Note_on_c, 1, 58, 0
1, 25620, Note_on_c, 0, 66, 0
1, 25620, Note_on_c, 0, 67, 80
1, 25680, Note_on_c, 0, 67, 0
1, 25680, Note_on_c, 0, 72, 80
1, 25680, Note_on_c, 1, 44, 80
1, 25728, Note_on_c, 1, 44, 0
1, 25740, Note_on_c, 0, 72, 0
1, 25740, Note_on_c, 0, 65, 80
1, 25800, Note_on_c, 0, 65, 0
1, 25800, Note_on_c, 0, 64, 80
1, 25800, Note_on_c, 1, 56, 80
1, 25848, Note_on_c, 1, 56, 0
1, 25860, Note_on_c, 0, 64, 0
1, 25860, Note_on_c, 0, 65, 80
1, 25920, Note_on_c, 0, 65, 0
1, 25920, Note_on_c, 0, 70, 80
1, 25920, Note_on_c, 1, 43, 88
1, 25980, Note_on_c, 0, 70, 0
1, 25980, Note_on_c, 0, 63, 80
1, 26040, Note_on_c, 0, 63, 0
1, 26040, Note_on_c, 0, 62, 80
1, 26040, Note_on_c, 1, 43, 0
1, 26040, Note_on_c, 1, 55, 80
1, 26100, Note_on_c, 0, 62, 0
1, 26100, Note_on_c, 0, 63, 80
1, 26160, Note_on_c, 0, 63, 0
1, 26160, Note_on_c, 0, 68, 80
1, 26160, Note_on_c, 1, 55, 0
1, 26160, Note_on_c, 1, 41, 88
1, 26220, Note_on_c, 0, 68, 0
1, 26220, Note_on_c, 0, 62, 80
1, 26280, Note_on_c, 0, 62, 0
1, 26280, Note_on_c, 0, 61, 80
1, 26280, Note_on_c, 1, 41, 0
1, 26280, Note_on_c, 1, 53, 80
1, 26340, Note_on_c, 0, 61, 0
1, 26340, Note_on_c, 0, 62, 80
1, 26400, Note_on_c, 0, 62, 0
1, 26400, Note_on_c, 0, 67, 80
1, 26400, Note_on_c, 1, 53, 0
1, 26400, Note_on_c, 1, 39, 88
1, 26460, Note_on_c, 0, 67, 0
1, 26460, Note_on_c, 0, 63, 80
1, 26520, Note_on_c, 0, 63, 0
1, 26520, Note_on_c, 0, 62, 80
1, 26520, Note_on_c, 1, 39, 0
1, 26520, Note_on_c, 1, 51, 80
1, 26580, Note_on_c, 0, 62, 0
1, 26580, Note_on_c, 0, 63, 80
1, 26640, Note_on_c, 0, 63, 0
1, 26640, Note_on_c, 1, 51, 0
1, 26640, Note_on_c, 1, 44, 80
1, 26736, Note_on_c, 1, 44, 0
1, 26760, Note_on_c, 0, 59, 80
1, 26808, Note_on_c, 0, 59, 0
1, 26880, Note_on_c, 0, 60, 80
1, 26928, Note_on_c, 0, 60, 0
1, 27000, Note_on_c, 0, 62, 80
1, 27048, Note_on_c, 0, 62, 0
1, 27120, Note_on_c, 0, 63, 80
1, 27168, Note_on_c, 0, 63, 0
1, 27240, Note_on_c, 0, 64, 80
1, 27288, Note_on_c, 0, 64, 0
1, 27360, Note_on_c, 0, 65, 80
1, 27408, Note_on_c, 0, 65, 0
1, 27480, Note_on_c, 0, 67, 75
1, 27600, Note_on_c, 0, 67, 0
1, 27600, Note_on_c, 0, 70, 69
1, 27720, Note_on_c, 0, 70, 0
1, 27720, Note_on_c, 0, 68, 64
1, 27840, Note_on_c, 0, 68, 0
1, 27840, Note_on_c, 0, 67, 59
1, 27960, Note_on_c, 0, 67, 0
1, 27960, Note_on_c, 0, 65, 53
1, 28080, Note_on_c, 0, 65, 0
1, 28080, Note_on_c, 0, 63, 48
1, 28080, Note_on_c, 0, 67, 48
1, 28200, Note_on_c, 1, 45, 48
1, 28320, Note_on_c, 1, 45, 0
1, 28320, Note_on_c, 1, 46, 48
1, 28440, Note_on_c, 1, 46, 0
1, 28440, Note_on_c, 1, 45, 48
1, 28560, Note_on_c, 1, 45, 0
1, 28560, Note_on_c, 1, 46, 48
1, 28680, Note_on_c, 1, 46, 0
1, 28680, Note_on_c, 1, 45, 48
1, 28800, Note_on_c, 1, 45, 0
1, 28800, Note_on_c, 1, 46, 48
1, 28848, Note_on_c, 0, 67, 0
1, 28848, Note_on_c, 0, 63, 0
1, 28920, Note_on_c, 0, 67, 48
1, 28920, Note_on_c, 0, 70, 48
1, 28968, Note_on_c, 0, 70, 0
1, 28968, Note_on_c, 0, 67, 0
1, 29040, Note_on_c, 0, 67, 48
1, 29040, Note_on_c, 0, 70, 48
1, 29160, Note_on_c, 0, 70, 0
1, 29160, Note_on_c, 0, 67, 0
1, 29160, Note_on_c, 0, 65, 48
1, 29160, Note_on_c, 0, 68, 48
1, 29280, Note_on_c, 0, 68, 0
1, 29280, Note_on_c, 0, 65, 0
1, 29280, Note_on_c, 0, 63, 48
1, 29280, Note_on_c, 0, 67, 48
1, 29400, Note_on_c, 0, 67, 0
1, 29400, Note_on_c, 0, 63, 0
1, 29400, Note_on_c, 0, 62, 48
1, 29400, Note_on_c, 0, 65, 48
1, 29520, Note_on_c, 0, 65, 0
1, 29520, Note_on_c, 0, 62, 0
1, 29520, Note_on_c, 0, 63, 48
1, 29520, Note_on_c, 1, 46, 0
1, 29520, Note_on_c, 1, 51, 48
1, 29640, Note_on_c, 0, 57, 48
1, 29640, Note_on_c, 1, 54, 48
1, 29760, Note_on_c, 0, 57, 0
1, 29760, Note_on_c, 0, 58, 48
1, 29760, Note_on_c, 1, 54, 0
1, 29760, Note_on_c, 1, 55, 48
1, 29880, Note_on_c, 0, 58, 0
1, 29880, Note_on_c, 0, 57, 48
1, 29880, Note_on_c, 1, 55, 0
1, 29880, Note_on_c, 1, 54, 48
1, 30000, Note_on_c, 0, 57, 0
1, 30000, Note_on_c, 0, 58, 48
1, 30000, Note_on_c, 1, 54, 0
1, 30000, Note_on_c, 1, 55, 48
1, 30120, Note_on_c, 0, 58, 0
1, 30120, Note_on_c, 0, 57, 48
1, 30120, Note_on_c, 1, 55, 0
1, 30120, Note_on_c, 1, 54, 48
1, 30240, Note_on_c, 0, 57, 0
1, 30240, Note_on_c, 0, 58, 48
1, 30240, Note_on_c, 1, 54, 0
1, 30240, Note_on_c, 1, 55, 48
1, 30300, Note_on_c, 0, 58, 0
1, 30300, Note_on_c, 1, 55, 0
1, 30360, Note_on_c, 0, 60, 48
1, 30360, Note_on_c, 1, 57, 48
1, 30480, Note_on_c, 0, 60, 0
1, 30480, Note_on_c, 0, 61, 48
1, 30480, Note_on_c, 1, 57, 0
1, 30480, Note_on_c, 1, 58, 48
1, 30600, Note_on_c, 0, 61, 0
1, 30600, Note_on_c, 0, 60, 48
1, 30600, Note_on_c, 1, 58, 0
1, 30600, Note_on_c, 1, 57, 48
1, 30720, Note_on_c, 0, 60, 0
1, 30720, Note_on_c, 0, 61, 48
1, 30720, Note_on_c, 1, 57, 0
1, 30720, Note_on_c, 1, 58, 48
1, 30840, Note_on_c, 0, 61, 0
1, 30840, Note_on_c, 0, 60, 48
1, 30840, Note_on_c, 1, 58, 0
1, 30840, Note_on_c, 1, 57, 48
1, 30960, Note_on_c, 0, 60, 0
1, 30960, Note_on_c, 0, 61, 48
1, 30960, Note_on_c, 1, 57, 0
1, 30960, Note_on_c, 1, 58, 48
1, 31020, Note_on_c, 0, 61, 0
1, 31020, Note_on_c, 1, 58, 0
1, 31080, Note_on_c, 0, 59, 48
1, 31080, Note_on_c, 1, 55, 48
1, 31200, Note_on_c, 0, 59, 0
1, 31200, Note_on_c, 0, 60, 48
1, 31200, Note_on_c, 1, 55, 0
1, 31200, Note_on_c, 1, 56, 48
1, 31320, Note_on_c, 0, 60, 0
1, 31320, Note_on_c, 0, 59, 48
1, 31320, Note_on_c, 1, 56, 0
1, 31320, Note_on_c, 1, 55, 48
1, 31440, Note_on_c, 0, 59, 0
1, 31440, Note_on_c, 0, 60, 48
1, 31440, Note_on_c, 1, 55, 0
1, 31440, Note_on_c, 1, 56, 48
1, 31560, Note_on_c, 0, 60, 0
1, 31560, Note_on_c, 0, 59, 48
1, 31560, Note_on_c, 1, 56, 0
1, 31560, Note_on_c, 1, 55, 48
1, 31680, Note_on_c, 0, 59, 0
1, 31680, Note_on_c, 0, 60, 48
1, 31680, Note_on_c, 1, 55, 0
1, 31680, Note_on_c, 1, 56, 48
1, 31728, Note_on_c, 0, 60, 0
1, 31728, Note_on_c, 0, 63, 0
1, 31800, Note_on_c, 0, 68, 48
1, 31800, Note_on_c, 0, 72, 48
1, 31848, Note_on_c, 0, 72, 0
1, 31848, Note_on_c, 0, 68, 0
1, 31920, Note_on_c, 0, 67, 48
1, 31920, Note_on_c, 0, 70, 48
1, 32040, Note_on_c, 0, 70, 0
1, 32040, Note_on_c, 0, 67, 0
1, 32040, Note_on_c, 0, 65, 48
1, 32040, Note_on_c, 0, 68, 48
1, 32160, Note_on_c, 0, 68, 0
1, 32160, Note_on_c, 0, 65, 0
1, 32160, Note_on_c, 0, 63, 48
1, 32160, Note_on_c, 0, 67, 48
1, 32280, Note_on_c, 0, 67, 0
1, 32280, Note_on_c, 0, 63, 0
1, 32280, Note_on_c, 0, 62, 48
1, 32280, Note_on_c, 0, 65, 48
1, 32400, Note_on_c, 0, 65, 0
1, 32400, Note_on_c, 0, 62, 0
1, 32400, Note_on_c, 0, 62, 56
1, 32400, Note_on_c, 0, 65, 56
1, 32400, Note_on_c, 1, 56, 0
1, 32400, Note_on_c, 1, 51, 0
1, 32400, Note_on_c, 1, 51, 56
1, 32400, Note_on_c, 1, 56, 56
1, 33120, Note_on_c, 0, 65, 0
1, 33120, Note_on_c, 0, 62, 0
1, 33120, Note_on_c, 0, 63, 32
1, 33120, Note_on_c, 0, 67, 32
1, 33120, Note_on_c, 1, 56, 0
1, 33120, Note_on_c, 1, 51, 0
1, 33120, Note_on_c, 1, 51, 32
1, 33120, Note_on_c, 1, 55, 32
1, 33360, Note_on_c, 0, 67, 0
1, 33360, Note_on_c, 0, 63, 0
1, 33360, Note_on_c, 1, 55, 0
1, 33360, Note_on_c, 1, 51, 0
1, 33600, Note_on_c, 0, 75, 80
1, 33672, Note_on_c, 0, 75, 0
1, 33840, Note_on_c, 0, 80, 80
1, 33840, Note_on_c, 1, 63, 80
1, 33840, Note_on_c, 1, 67, 80
1, 33900, Note_on_c, 0, 80, 0
1, 33900, Note_on_c, 0, 79, 80
1, 33912, Note_on_c, 1, 67, 0
1, 33912, Note_on_c, 1, 63, 0
1, 33960, Note_on_c, 0, 79, 0
1, 33960, Note_on_c, 0, 77, 80
1, 34020, Note_on_c, 0, 77, 0
1, 34020, Note_on_c, 0, 75, 80
1, 34080, Note_on_c, 0, 75, 0
1, 34080, Note_on_c, 0, 74, 80
1, 34080, Note_on_c, 1, 65, 80
1, 34080, Note_on_c, 1, 68, 80
1, 34152, Note_on_c, 0, 74, 0
1, 34152, Note_on_c, 1, 68, 0
1, 34152, Note_on_c, 1, 65, 0
1, 34320, Note_on_c, 0, 77, 80
1, 34392, Note_on_c, 0, 77, 0
1, 34560, Note_on_c, 0, 82, 80
1, 34560, Note_on_c, 1, 65, 80
1, 34560, Note_on_c, 1, 68, 80
1, 34620, Note_on_c, 0, 82, 0
1, 34620, Note_on_c, 0, 80, 80
1, 34680, Note_on_c, 0, 80, 0
1, 34680, Note_on_c, 0, 79, 80
1, 34740, Note_on_c, 0, 79, 0
1, 34740, Note_on_c, 0, 77, 80
1, 34800, Note_on_c, 0, 77, 0
1, 34800, Note_on_c, 0, 75, 80
1, 34800, Note_on_c, 1, 68, 0
1, 34800, Note_on_c, 1, 65, 0
1, 34800, Note_on_c, 1, 67, 80
1, 34800, Note_on_c, 1, 70, 80
1, 34872, Note_on_c, 0, 75, 0
1, 34872, Note_on_c, 1, 70, 0
1, 34872, Note_on_c, 1, 67, 0
1, 35040, Note_on_c, 0, 82, 80
1, 35220, Note_on_c, 0, 82, 0
1, 35220, Note_on_c, 0, 87, 80
1, 35280, Note_on_c, 0, 87, 0
1, 35280, Note_on_c, 0, 87, 80
1, 35280, Note_on_c, 1, 67, 80
1, 35280, Note_on_c, 1, 70, 80
1, 35460, Note_on_c, 0, 87, 0
1, 35460, Note_on_c, 0, 86, 80
1, 35520, Note_on_c, 0, 86, 0
1, 35520, Note_on_c, 0, 86, 80
1, 35520, Note_on_c, 1, 70, 0
1, 35520, Note_on_c, 1, 67, 0
1, 35520, Note_on_c, 1, 65, 80
1, 35520, Note_on_c, 1, 68, 80
1, 35700, Note_on_c, 0, 86, 0
1, 35700, Note_on_c, 0, 84, 80
1, 35760, Note_on_c, 0, 84, 0
1, 35760, Note_on_c, 0, 84, 80
1, 35760, Note_on_c, 1, 68, 0
1, 35760, Note_on_c, 1, 65, 0
1, 35760, Note_on_c, 1, 63, 80
1, 35760, Note_on_c, 1, 67, 80
1, 35940, Note_on_c, 0, 84, 0
1, 35940, Note_on_c, 0, 82, 80
1, 36000, Note_on_c, 0, 82, 0
1, 36000, Note_on_c, 0, 82, 80
1, 36000, Note_on_c, 1, 67, 0
1, 36000, Note_on_c, 1, 63, 0
1, 36000, Note_on_c, 1, 62, 80
1, 36000, Note_on_c, 1, 65, 80
1, 36240, Note_on_c, 1, 65, 0
1, 36240, Note_on_c, 1, 62, 0
1, 36240, Note_on_c, 1, 58, 80
1, 36240, Note_on_c, 1, 62, 80
1, 36480, Note_on_c, 0, 82, 0
1, 36480, Note_on_c, 0, 82, 80
1, 36480, Note_on_c, 1, 62, 0
1, 36480, Note_on_c, 1, 58, 0
1, 36480, Note_on_c, 1, 62, 80
1, 36480, Note_on_c, 1, 70, 80
1, 36540, Note_on_c, 0, 82, 0
1, 36540, Note_on_c, 0, 80, 80
1, 36552, Note_on_c, 1, 70, 0
1, 36552, Note_on_c, 1, 62, 0
1, 36600, Note_on_c, 0, 80, 0
1, 36600, Note_on_c, 0, 79, 80
1, 36660, Note_on_c, 0, 79, 0
1, 36660, Note_on_c, 0, 77, 80
1, 36720, Note_on_c, 0, 77, 0
1, 36720, Note_on_c, 0, 80, 80
1, 36720, Note_on_c, 1, 63, 80
1, 36720, Note_on_c, 1, 70, 80
1, 36780, Note_on_c, 0, 80, 0
1, 36780, Note_on_c, 0, 79, 80
1, 36840, Note_on_c, 0, 79, 0
1, 36840, Note_on_c, 0, 77, 80
1, 36900, Note_on_c, 0, 77, 0
1, 36900, Note_on_c, 0, 75, 80
1, 36960, Note_on_c, 0, 75, 0
1, 36960, Note_on_c, 0, 74, 80
1, 36960, Note_on_c, 1, 70, 0
1, 36960, Note_on_c, 1, 63, 0
1, 37140, Note_on_c, 0, 74, 0
1, 37140, Note_on_c, 0, 75, 80
1, 37200, Note_on_c, 0, 75, 0
1, 37200, Note_on_c, 0, 75, 80
1, 37200, Note_on_c, 1, 60, 80
1, 37200, Note_on_c, 1, 69, 80
1, 37240, Note_on_c, 0, 75, 0
1, 37240, Note_on_c, 0, 77, 80
1, 37280, Note_on_c, 0, 77, 0
1, 37280, Note_on_c, 0, 75, 80
1, 37320, Note_on_c, 0, 75, 0
1, 37320, Note_on_c, 0, 77, 80
1, 37350, Note_on_c, 0, 77, 0
1, 37350, Note_on_c, 0, 75, 80
1, 37380, Note_on_c, 0, 75, 0
1, 37380, Note_on_c, 0, 74, 80
1, 37410, Note_on_c, 0, 74, 0
1, 37410, Note_on_c, 0, 75, 80
1, 37440, Note_on_c, 0, 75, 0
1, 37440, Note_on_c, 0, 75, 80
1, 37440, Note_on_c, 1, 69, 0
1, 37440, Note_on_c, 1, 60, 0
1, 37440, Note_on_c, 1, 58, 80
1, 37440, Note_on_c, 1, 70, 80
1, 37680, Note_on_c, 0, 75, 0
1, 37680, Note_on_c, 0, 74, 64
1, 37680, Note_on_c, 0, 77, 64
1, 37680, Note_on_c, 1, 70, 0
1, 37680, Note_on_c, 1, 58, 0
1, 37920, Note_on_c, 0, 77, 0
1, 37920, Note_on_c, 0, 74, 0
1, 38640, Note_on_c, 0, 65, 48
1, 38712, Note_on_c, 0, 65, 0
1, 38880, Note_on_c, 0, 70, 48
1, 38940, Note_on_c, 0, 70, 0
1, 38940, Note_on_c, 0, 68, 48
1, 39000, Note_on_c, 0, 68, 0
1, 39000, Note_on_c, 0, 67, 48
1, 39060, Note_on_c, 0, 67, 0
1, 39060, Note_on_c, 0, 65, 48
1, 39120, Note_on_c, 0, 65, 0
1, 39120, Note_on_c, 0, 64, 48
1, 39120, Note_on_c, 1, 55, 48
1, 39120, Note_on_c, 1, 58, 48
1, 39192, Note_on_c, 0, 64, 0
1, 39192, Note_on_c, 1, 58, 0
1, 39192, Note_on_c, 1, 55, 0
1, 39360, Note_on_c, 0, 64, 48
1, 39420, Note_on_c, 0, 64, 0
1, 39420, Note_on_c, 0, 65, 48
1, 39480, Note_on_c, 0, 65, 0
1, 39480, Note_on_c, 0, 67, 48
1, 39540, Note_on_c, 0, 67, 0
1, 39540, Note_on_c, 0, 68, 48
1, 39600, Note_on_c, 0, 68, 0
1, 39600, Note_on_c, 0, 72, 48
1, 39660, Note_on_c, 0, 72, 0
1, 39660, Note_on_c, 0, 70, 48
1, 39720, Note_on_c, 0, 70, 0
1, 39720, Note_on_c, 0, 68, 48
1, 39780, Note_on_c, 0, 68, 0
1, 39780, Note_on_c, 0, 67, 48
1, 39840, Note_on_c, 0, 67, 0
1, 39840, Note_on_c, 0, 65, 48
1, 39840, Note_on_c, 1, 56, 48
1, 39840, Note_on_c, 1, 60, 48
1, 39912, Note_on_c, 0, 65, 0
1, 39912, Note_on_c, 1, 60, 0
1, 39912, Note_on_c, 1, 56, 0
1, 40080, Note_on_c, 0, 77, 80
1, 40140, Note_on_c, 0, 77, 0
1, 40140, Note_on_c, 0, 76, 80
1, 40200, Note_on_c, 0, 76, 0
1, 40200, Note_on_c, 0, 79, 80
1, 40260, Note_on_c, 0, 79, 0
1, 40260, Note_on_c, 0, 77, 80
1, 40320, Note_on_c, 0, 77, 0
1, 40320, Note_on_c, 0, 80, 80
1, 40356, Note_on_c, 0, 80, 0
1, 40440, Note_on_c, 0, 79, 80
1, 40476, Note_on_c, 0, 79, 0
1, 40560, Note_on_c, 0, 77, 80
1, 40596, Note_on_c, 0, 77, 0
1, 40680, Note_on_c, 0, 75, 80
1, 40716, Note_on_c, 0, 75, 0
1, 40800, Note_on_c, 0, 73, 80
1, 40836, Note_on_c, 0, 73, 0
1, 40920, Note_on_c, 0, 72, 80
1, 40956, Note_on_c, 0, 72, 0
1, 41040, Note_on_c, 0, 72, 80
1, 41160, Note_on_c, 1, 68, 80
1, 41280, Note_on_c, 0, 72, 0
1, 41280, Note_on_c, 0, 71, 80
1, 41280, Note_on_c, 1, 68, 0
1, 41280, Note_on_c, 1, 67, 80
1, 41316, Note_on_c, 0, 71, 0
1, 41316, Note_on_c, 1, 67, 0
1, 41400, Note_on_c, 0, 80, 80
1, 41400, Note_on_c, 1, 65, 80
1, 41436, Note_on_c, 0, 80, 0
1, 41436, Note_on_c, 1, 65, 0
1, 41520, Note_on_c, 0, 79, 80
1, 41520, Note_on_c, 1, 63, 80
1, 41556, Note_on_c, 0, 79, 0
1, 41556, Note_on_c, 1, 63, 0
1, 41640, Note_on_c, 0, 77, 80
1, 41640, Note_on_c, 1, 62, 80
1, 41676, Note_on_c, 0, 77, 0
1, 41676, Note_on_c, 1, 62, 0
1, 41760, Note_on_c, 0, 77, 80
1, 41760, Note_on_c, 1, 60, 80
1, 41880, Note_on_c, 1, 60, 0
1, 41880, Note_on_c, 1, 62, 79
1, 42000, Note_on_c, 0, 77, 0
1, 42000, Note_on_c, 0, 75, 77
1, 42000, Note_on_c, 1, 62, 0
1, 42000, Note_on_c, 1, 63, 77
1, 42036, Note_on_c, 0, 75, 0
1, 42036, Note_on_c, 1, 63, 0
1, 42120, Note_on_c, 0, 74, 76
1, 42156, Note_on_c, 0, 74, 0
1, 42240, Note_on_c, 0, 72, 75
1, 42276, Note_on_c, 0, 72, 0
1, 42360, Note_on_c, 0, 70, 73
1, 42396, Note_on_c, 0, 70, 0
1, 42480, Note_on_c, 0, 70, 72
1, 42600, Note_on_c, 1, 67, 71
1, 42720, Note_on_c, 0, 70, 0
1, 42720, Note_on_c, 0, 69, 69
1, 42720, Note_on_c, 1, 67, 0
1, 42720, Note_on_c, 1, 65, 69
1, 42756, Note_on_c, 0, 69, 0
1, 42756, Note_on_c, 1, 65, 0
1, 42840, Note_on_c, 0, 79, 68
1, 42840, Note_on_c, 1, 63, 68
1, 42876, Note_on_c, 0, 79, 0
1, 42876, Note_on_c, 1, 63, 0
1, 42960, Note_on_c, 0, 77, 67
1, 42960, Note_on_c, 1, 62, 67
1, 42996, Note_on_c, 0, 77, 0
1, 42996, Note_on_c, 1, 62, 0
1, 43080, Note_on_c, 0, 75, 65
1, 43080, Note_on_c, 1, 60, 65
1, 43116, Note_on_c, 0, 75, 0
1, 43116, Note_on_c, 1, 60, 0
1, 43200, Note_on_c, 0, 75, 64
1, 43200, Note_on_c, 1, 58, 64
1, 43320, Note_on_c, 1, 58, 0
1, 43320, Note_on_c, 1, 60, 63
1, 43440, Note_on_c, 0, 75, 0
1, 43440, Note_on_c, 0, 74, 61
1, 43440, Note_on_c, 1, 60, 0
1, 43440, Note_on_c, 1, 62, 61
1, 43476, Note_on_c, 0, 74, 0
1, 43476, Note_on_c, 1, 62, 0
1, 43560, Note_on_c, 0, 72, 60
1, 43596, Note_on_c, 0, 72, 0
1, 43680, Note_on_c, 0, 70, 59
1, 43716, Note_on_c, 0, 70, 0
1, 43800, Note_on_c, 0, 69, 57
1, 43836, Note_on_c, 0, 69, 0
1, 43920, Note_on_c, 0, 69, 56
1, 44040, Note_on_c, 1, 65, 55
1, 44160, Note_on_c, 0, 69, 0
1, 44160, Note_on_c, 0, 67, 53
1, 44160, Note_on_c, 1, 65, 0
1, 44160, Note_on_c, 1, 63, 53
1, 44196, Note_on_c, 0, 67, 0
1, 44196, Note_on_c, 1, 63, 0
1, 44280, Note_on_c, 0, 77, 52
1, 44280, Note_on_c, 1, 62, 52
1, 44316, Note_on_c, 0, 77, 0
1, 44316, Note_on_c, 1, 62, 0
1, 44400, Note_on_c, 0, 75, 51
1, 44400, Note_on_c, 1, 60, 51
1, 44436, Note_on_c, 0, 75, 0
1, 44436, Note_on_c, 1, 60, 0
1, 44520, Note_on_c, 0, 74, 49
1, 44520, Note_on_c, 1, 58, 49
1, 44556, Note_on_c, 0, 74, 0
1, 44556, Note_on_c, 1, 58, 0
1, 44640, Note_on_c, 0, 74, 48
1, 44640, Note_on_c, 1, 57, 56
1, 44760, Note_on_c, 1, 57, 0
1, 44760, Note_on_c, 1, 58, 55
1, 44880, Note_on_c, 0, 74, 0
1, 44880, Note_on_c, 0, 72, 53
1, 44880, Note_on_c, 1, 58, 0
1, 44880, Note_on_c, 1, 60, 53
1, 44916, Note_on_c, 0, 72, 0
1, 44916, Note_on_c, 1, 60, 0
1, 45000, Note_on_c, 0, 70, 56
1, 45036, Note_on_c, 0, 70, 0
1, 45120, Note_on_c, 0, 69, 59
1, 45156, Note_on_c, 0, 69, 0
1, 45240, Note_on_c, 0, 67, 61
1, 45276, Note_on_c, 0, 67, 0
1, 45360, Note_on_c, 0, 67, 64
1, 45480, Note_on_c, 1, 63, 65
1, 45600, Note_on_c, 0, 67, 0
1, 45600, Note_on_c, 0, 66, 67
1, 45600, Note_on_c, 1, 63, 0
1, 45600, Note_on_c, 1, 62, 67
1, 45636, Note_on_c, 0, 66, 0
1, 45636, Note_on_c, 1, 62, 0
1, 45720, Note_on_c, 0, 75, 68
1, 45720, Note_on_c, 1, 60, 68
1, 45756, Note_on_c, 0, 75, 0
1, 45756, Note_on_c, 1, 60, 0
1, 45840, Note_on_c, 0, 74, 69
1, 45840, Note_on_c, 1, 58, 69
1, 45876, Note_on_c, 0, 74, 0
1, 45876, Note_on_c, 1, 58, 0
1, 45960, Note_on_c, 0, 72, 71
1, 45960, Note_on_c, 1, 57, 71
1, 45996, Note_on_c, 0, 72, 0
1, 45996, Note_on_c, 1, 57, 0
1, 46080, Note_on_c, 0, 72, 72
1, 46080, Note_on_c, 1, 55, 72
1, 46116, Note_on_c, 1, 55, 0
1, 46200, Note_on_c, 0, 72, 0
1, 46200, Note_on_c, 0, 70, 73
1, 46200, Note_on_c, 1, 53, 73
1, 46236, Note_on_c, 0, 70, 0
1, 46236, Note_on_c, 1, 53, 0
1, 46320, Note_on_c, 0, 79, 75
1, 46320, Note_on_c, 1, 51, 75
1, 46356, Note_on_c, 1, 51, 0
1, 46440, Note_on_c, 1, 50, 76
1, 46476, Note_on_c, 1, 50, 0
1, 46560, Note_on_c, 0, 79, 0
1, 46560, Note_on_c, 1, 49, 77
1, 46680, Note_on_c, 0, 55, 79
1, 46680, Note_on_c, 1, 55, 79
1, 46800, Note_on_c, 0, 55, 0
1, 46800, Note_on_c, 0, 54, 80
1, 46800, Note_on_c, 1, 55, 0
1, 46800, Note_on_c, 1, 49, 0
1, 46800, Note_on_c, 1, 38, 88
1, 46800, Note_on_c, 1, 50, 88
1, 46860, Note_on_c, 0, 54, 0
1, 46860, Note_on_c, 0, 57, 80
1, 46872, Note_on_c, 1, 50, 0
1, 46872, Note_on_c, 1, 38, 0
1, 46920, Note_on_c, 0, 57, 0
1, 46920, Note_on_c, 0, 55, 80
1, 46980, Note_on_c, 0, 55, 0
1, 46980, Note_on_c, 0, 58, 80
1, 47040, Note_on_c, 0, 58, 0
1, 47040, Note_on_c, 0, 57, 80
1, 47040, Note_on_c, 1, 54, 80
1, 47076, Note_on_c, 1, 54, 0
1, 47100, Note_on_c, 0, 57, 0
1, 47100, Note_on_c, 0, 60, 80
1, 47160, Note_on_c, 0, 60, 0
1, 47160, Note_on_c, 0, 58, 80
1, 47160, Note_on_c, 1, 55, 80
1, 47196, Note_on_c, 1, 55, 0
1, 47220, Note_on_c, 0, 58, 0
1, 47220, Note_on_c, 0, 62, 80
1, 47280, Note_on_c, 0, 62, 0
1, 47280, Note_on_c, 0, 60, 80
1, 47280, Note_on_c, 1, 57, 80
1, 47316, Note_on_c, 0, 60, 0
1, 47316, Note_on_c, 1, 57, 0
1, 47520, Note_on_c, 0, 55, 80
1, 47520, Note_on_c, 1, 38, 88
1, 47520, Note_on_c, 1, 50, 88
1, 47580, Note_on_c, 0, 55, 0
1, 47580, Note_on_c, 0, 58, 80
1, 47592, Note_on_c, 1, 50, 0
1, 47592, Note_on_c, 1, 38, 0
1, 47640, Note_on_c, 0, 58, 0
1, 47640, Note_on_c, 0, 57, 80
1, 47700, Note_on_c, 0, 57, 0
1, 47700, Note_on_c, 0, 60, 80
1, 47760, Note_on_c, 0, 60, 0
1, 47760, Note_on_c, 0, 58, 80
1, 47760, Note_on_c, 1, 55, 80
1, 47796, Note_on_c, 1, 55, 0
1, 47820, Note_on_c, 0, 58, 0
1, 47820, Note_on_c, 0, 62, 80
1, 47880, Note_on_c, 0, 62, 0
1, 47880, Note_on_c, 0, 60, 80
1, 47880, Note_on_c, 1, 57, 80
1, 47916, Note_on_c, 1, 57, 0
1, 47940, Note_on_c, 0, 60, 0
1, 47940, Note_on_c, 0, 63, 80
1, 48000, Note_on_c, 0, 63, 0
1, 48000, Note_on_c, 0, 62, 80
1, 48000, Note_on_c, 1, 58, 80
1, 48036, Note_on_c, 0, 62, 0
1, 48036, Note_on_c, 1, 58, 0
1, 48240, Note_on_c, 0, 54, 80
1, 48240, Note_on_c, 1, 38, 80
1, 48276, Note_on_c, 1, 38, 0
1, 48300, Note_on_c, 0, 54, 0
1, 48300, Note_on_c, 0, 57, 80
1, 48360, Note_on_c, 0, 57, 0
1, 48360, Note_on_c, 0, 55, 80
1, 48360, Note_on_c, 1, 40, 80
1, 48396, Note_on_c, 1, 40, 0
1, 48420, Note_on_c, 0, 55, 0
1, 48420, Note_on_c, 0, 58, 80
1, 48480, Note_on_c, 0, 58, 0
1, 48480, Note_on_c, 0, 57, 80
1, 48480, Note_on_c, 1, 42, 80
1, 48540, Note_on_c, 0, 57, 0
1, 48540, Note_on_c, 0, 60, 80
1, 48600, Note_on_c, 0, 60, 0
1, 48600, Note_on_c, 0, 58, 80
1, 48660, Note_on_c, 0, 58, 0
1, 48660, Note_on_c, 0, 62, 80
1, 48720, Note_on_c, 0, 62, 0
1, 48720, Note_on_c, 0, 60, 80
1, 48720, Note_on_c, 1, 42, 0
1, 48780, Note_on_c, 0, 60, 0
1, 48780, Note_on_c, 0, 63, 80
1, 48840, Note_on_c, 0, 63, 0
1, 48840, Note_on_c, 0, 62, 80
1, 48900, Note_on_c, 0, 62, 0
1, 48900, Note_on_c, 0, 60, 80
1, 48960, Note_on_c, 0, 60, 0
1, 48960, Note_on_c, 0, 58, 80
1, 48960, Note_on_c, 1, 43, 80
1, 48996, Note_on_c, 1, 43, 0
1, 49020, Note_on_c, 0, 58, 0
1, 49020, Note_on_c, 0, 62, 80
1, 49080, Note_on_c, 0, 62, 0
1, 49080, Note_on_c, 0, 60, 80
1, 49080, Note_on_c, 1, 45, 80
1, 49116, Note_on_c, 1, 45, 0
1, 49140, Note_on_c, 0, 60, 0
1, 49140, Note_on_c, 0, 63, 80
1, 49200, Note_on_c, 0, 63, 0
1, 49200, Note_on_c, 0, 62, 80
1, 49200, Note_on_c, 1, 46, 80
1, 49260, Note_on_c, 0, 62, 0
1, 49260, Note_on_c, 0, 67, 80
1, 49272, Note_on_c, 1, 46, 0
1, 49320, Note_on_c, 0, 67, 0
1, 49320, Note_on_c, 0, 66, 80
1, 49380, Note_on_c, 0, 66, 0
1, 49380, Note_on_c, 0, 69, 80
1, 49440, Note_on_c, 0, 69, 0
1, 49440, Note_on_c, 0, 67, 80
1, 49500, Note_on_c, 0, 67, 0
1, 49500, Note_on_c, 0, 70, 80
1, 49560, Note_on_c, 0, 70, 0
1, 49560, Note_on_c, 0, 69, 80
1, 49620, Note_on_c, 0, 69, 0
1, 49620, Note_on_c, 0, 67, 80
1, 49680, Note_on_c, 0, 67, 0
1, 49680, Note_on_c, 0, 66, 64
1, 49680, Note_on_c, 1, 50, 64
1, 49716, Note_on_c, 1, 50, 0
1, 49740, Note_on_c, 0, 66, 0
1, 49740, Note_on_c, 0, 69, 64
1, 49800, Note_on_c, 0, 69, 0
1, 49800, Note_on_c, 0, 67, 65
1, 49800, Note_on_c, 1, 52, 65
1, 49836, Note_on_c, 1, 52, 0
1, 49860, Note_on_c, 0, 67, 0
1, 49860, Note_on_c, 0, 70, 65
1, 49920, Note_on_c, 0, 70, 0
1, 49920, Note_on_c, 0, 69, 65
1, 49920, Note_on_c, 1, 54, 65
1, 49980, Note_on_c, 0, 69, 0
1, 49980, Note_on_c, 0, 72, 66
1, 50040, Note_on_c, 0, 72, 0
1, 50040, Note_on_c, 0, 70, 66
1, 50100, Note_on_c, 0, 70, 0
1, 50100, Note_on_c, 0, 74, 66
1, 50160, Note_on_c, 0, 74, 0
1, 50160, Note_on_c, 0, 72, 67
1, 50160, Note_on_c, 1, 54, 0
1, 50220, Note_on_c, 0, 72, 0
1, 50220, Note_on_c, 0, 75, 67
1, 50280, Note_on_c, 0, 75, 0
1, 50280, Note_on_c, 0, 74, 67
1, 50340, Note_on_c, 0, 74, 0
1, 50340, Note_on_c, 0, 72, 68
1, 50400, Note_on_c, 0, 72, 0
1, 50400, Note_on_c, 0, 70, 68
1, 50400, Note_on_c, 1, 55, 68
1, 50460, Note_on_c, 0, 70, 0
1, 50460, Note_on_c, 0, 74, 68
1, 50520, Note_on_c, 0, 74, 0
1, 50520, Note_on_c, 0, 72, 69
1, 50520, Note_on_c, 1, 55, 0
1, 50520, Note_on_c, 1, 57, 69
1, 50580, Note_on_c, 0, 72, 0
1, 50580, Note_on_c, 0, 75, 69
1, 50640, Note_on_c, 0, 75, 0
1, 50640, Note_on_c, 0, 74, 69
1, 50640, Note_on_c, 1, 57, 0
1, 50640, Note_on_c, 1, 58, 69
1, 50700, Note_on_c, 0, 74, 0
1, 50700, Note_on_c, 0, 79, 70
1, 50712, Note_on_c, 1, 58, 0
1, 50760, Note_on_c, 0, 79, 0
1, 50760, Note_on_c, 0, 78, 70
1, 50820, Note_on_c, 0, 78, 0
1, 50820, Note_on_c, 0, 81, 70
1, 50880, Note_on_c, 0, 81, 0
1, 50880, Note_on_c, 0, 79, 71
1, 50940, Note_on_c, 0, 79, 0
1, 50940, Note_on_c, 0, 82, 71
1, 51000, Note_on_c, 0, 82, 0
1, 51000, Note_on_c, 0, 81, 71
1, 51060, Note_on_c, 0, 81, 0
1, 51060, Note_on_c, 0, 79, 72
1, 51120, Note_on_c, 0, 79, 0
1, 51120, Note_on_c, 0, 78, 72
1, 51120, Note_on_c, 1, 62, 72
1, 51156, Note_on_c, 1, 62, 0
1, 51180, Note_on_c, 0, 78, 0
1, 51180, Note_on_c, 0, 81, 72
1, 51240, Note_on_c, 0, 81, 0
1, 51240, Note_on_c, 0, 79, 73
1, 51240, Note_on_c, 1, 64, 73
1, 51276, Note_on_c, 1, 64, 0
1, 51300, Note_on_c, 0, 79, 0
1, 51300, Note_on_c, 0, 82, 73
1, 51360, Note_on_c, 0, 82, 0
1, 51360, Note_on_c, 0, 81, 73
1, 51360, Note_on_c, 1, 66, 73
1, 51420, Note_on_c, 0, 81, 0
1, 51420, Note_on_c, 0, 84, 74
1, 51480, Note_on_c, 0, 84, 0
1, 51480, Note_on_c, 0, 82, 74
1, 51540, Note_on_c, 0, 82, 0
1, 51540, Note_on_c, 0, 86, 74
1, 51600, Note_on_c, 0, 86, 0
1, 51600, Note_on_c, 0, 84, 75
1, 51600, Note_on_c, 1, 66, 0
1, 51660, Note_on_c, 0, 84, 0
1, 51660, Note_on_c, 0, 87, 75
1, 51720, Note_on_c, 0, 87, 0
1, 51720, Note_on_c, 0, 86, 75
1, 51780, Note_on_c, 0, 86, 0
1, 51780, Note_on_c, 0, 84, 76
1, 51840, Note_on_c, 0, 84, 0
1, 51840, Note_on_c, 0, 82, 76
1, 51840, Note_on_c, 1, 67, 76
1, 51900, Note_on_c, 0, 82, 0
1, 51900, Note_on_c, 0, 84, 76
1, 51912, Note_on_c, 1, 67, 0
1, 51960, Note_on_c, 0, 84, 0
1, 51960, Note_on_c, 0, 86, 77
1, 52020, Note_on_c, 0, 86, 0
1, 52020, Note_on_c, 0, 84, 77
1, 52080, Note_on_c, 0, 84, 0
1, 52080, Note_on_c, 0, 82, 77
1, 52080, Note_on_c, 1, 69, 77
1, 52140, Note_on_c, 0, 82, 0
1, 52140, Note_on_c, 0, 81, 78
1, 52152, Note_on_c, 1, 69, 0
1, 52200, Note_on_c, 0, 81, 0
1, 52200, Note_on_c, 0, 79, 78
1, 52260, Note_on_c, 0, 79, 0
1, 52260, Note_on_c, 0, 78, 78
1, 52320, Note_on_c, 0, 78, 0
1, 52320, Note_on_c, 0, 79, 79
1, 52320, Note_on_c, 1, 70, 79
1, 52380, Note_on_c, 0, 79, 0
1, 52380, Note_on_c, 0, 77, 79
1, 52392, Note_on_c, 1, 70, 0
1, 52440, Note_on_c, 0, 77, 0
1, 52440, Note_on_c, 0, 75, 79
1, 52500, Note_on_c, 0, 75, 0
1, 52500, Note_on_c, 0, 74, 80
1, 52560, Note_on_c, 0, 74, 0
1, 52560, Note_on_c, 0, 77, 80
1, 52560, Note_on_c, 1, 60, 80
1, 52560, Note_on_c, 1, 67, 80
1, 52620, Note_on_c, 0, 77, 0
1, 52620, Note_on_c, 0, 75, 80
1, 52680, Note_on_c, 0, 75, 0
1, 52680, Note_on_c, 0, 74, 80
1, 52740, Note_on_c, 0, 74, 0
1, 52740, Note_on_c, 0, 72, 80
1, 52800, Note_on_c, 0, 72, 0
1, 52800, Note_on_c, 0, 70, 80
1, 52800, Note_on_c, 1, 67, 0
1, 52800, Note_on_c, 1, 60, 0
1, 52800, Note_on_c, 1, 62, 80
1, 52800, Note_on_c, 1, 67, 80
1, 53040, Note_on_c, 0, 70, 0
1, 53040, Note_on_c, 0, 69, 80
1, 53040, Note_on_c, 1, 67, 0
1, 53040, Note_on_c, 1, 66, 80
1, 53080, Note_on_c, 0, 69, 0
1, 53080, Note_on_c, 0, 70, 80
1, 53120, Note_on_c, 0, 70, 0
1, 53120, Note_on_c, 0, 69, 80
1, 53160, Note_on_c, 0, 69, 0
1, 53160, Note_on_c, 0, 70, 80
1, 53190, Note_on_c, 0, 70, 0
1, 53190, Note_on_c, 0, 69, 80
1, 53220, Note_on_c, 0, 69, 0
1, 53220, Note_on_c, 0, 67, 80
1, 53250, Note_on_c, 0, 67, 0
1, 53250, Note_on_c, 0, 69, 80
1, 53280, Note_on_c, 0, 69, 0
1, 53280, Note_on_c, 0, 67, 80
1, 53280, Note_on_c, 1, 66, 0
1, 53280, Note_on_c, 1, 62, 0
1, 53400, Note_on_c, 1, 54, 79
1, 53520, Note_on_c, 0, 67, 0
1, 53520, Note_on_c, 1, 54, 0
1, 53520, Note_on_c, 1, 55, 77
1, 53592, Note_on_c, 1, 55, 0
1, 53640, Note_on_c, 0, 75, 76
1, 53640, Note_on_c, 0, 79, 76
1, 53760, Note_on_c, 0, 79, 0
1, 53760, Note_on_c, 0, 75, 0
1, 53760, Note_on_c, 0, 74, 75
1, 53760, Note_on_c, 0, 77, 75
1, 53796, Note_on_c, 0, 77, 0
1, 53796, Note_on_c, 0, 74, 0
1, 53880, Note_on_c, 0, 72, 73
1, 53880, Note_on_c, 0, 75, 73
1, 53916, Note_on_c, 0, 75, 0
1, 53916, Note_on_c, 0, 72, 0
1, 54000, Note_on_c, 0, 71, 72
1, 54000, Note_on_c, 0, 74, 72
1, 54120, Note_on_c, 1, 66, 71
1, 54240, Note_on_c, 0, 74, 0
1, 54240, Note_on_c, 0, 71, 0
1, 54240, Note_on_c, 1, 66, 0
1, 54240, Note_on_c, 1, 67, 69
1, 54360, Note_on_c, 0, 72, 68
1, 54360, Note_on_c, 0, 75, 68
1, 54360, Note_on_c, 1, 67, 0
1, 54480, Note_on_c, 0, 75, 0
1, 54480, Note_on_c, 0, 72, 0
1, 54480, Note_on_c, 0, 71, 67
1, 54480, Note_on_c, 0, 74, 67
1, 54600, Note_on_c, 0, 74, 0
1, 54600, Note_on_c, 0, 71, 0
1, 54600, Note_on_c, 0, 69, 65
1, 54600, Note_on_c, 0, 72, 65
1, 54720, Note_on_c, 0, 72, 0
1, 54720, Note_on_c, 0, 69, 0
1, 54720, Note_on_c, 0, 67, 64
1, 54720, Note_on_c, 0, 71, 64
1, 54792, Note_on_c, 0, 71, 0
1, 54792, Note_on_c, 0, 67, 0
1, 54840, Note_on_c, 1, 54, 63
1, 54960, Note_on_c, 1, 54, 0
1, 54960, Note_on_c, 1, 55, 61
1, 54996, Note_on_c, 1, 55, 0
1, 55080, Note_on_c, 0, 63, 60
1, 55080, Note_on_c, 0, 67, 60
1, 55200, Note_on_c, 0, 67, 0
1, 55200, Note_on_c, 0, 63, 0
1, 55200, Note_on_c, 0, 62, 59
1, 55200, Note_on_c, 0, 65, 59
1, 55236, Note_on_c, 0, 65, 0
1, 55236, Note_on_c, 0, 62, 0
1, 55320, Note_on_c, 0, 60, 57
1, 55320, Note_on_c, 0, 63, 57
1, 55356, Note_on_c, 0, 63, 0
1, 55356, Note_on_c, 0, 60, 0
1, 55440, Note_on_c, 0, 59, 56
1, 55440, Note_on_c, 0, 62, 56
1, 55560, Note_on_c, 1, 42, 55
1, 55680, Note_on_c, 0, 62, 0
1, 55680, Note_on_c, 0, 59, 0
1, 55680, Note_on_c, 1, 42, 0
1, 55680, Note_on_c, 1, 43, 53
1, 55800, Note_on_c, 0, 51, 52
1, 55800, Note_on_c, 0, 55, 52
1, 55800, Note_on_c, 1, 43, 0
1, 55920, Note_on_c, 0, 55, 0
1, 55920, Note_on_c, 0, 51, 0
1, 55920, Note_on_c, 0, 50, 51
1, 55920, Note_on_c, 0, 53, 51
1, 56040, Note_on_c, 0, 53, 0
1, 56040, Note_on_c, 0, 50, 0
1, 56040, Note_on_c, 0, 48, 49
1, 56040, Note_on_c, 0, 51, 49
1, 56160, Note_on_c, 0, 51, 0
1, 56160, Note_on_c, 0, 48, 0
1, 56160, Note_on_c, 0, 47, 48
1, 56160, Note_on_c, 0, 50, 48
1, 56232, Note_on_c, 0, 50, 0
1, 56232, Note_on_c, 0, 47, 0
1, 56280, Note_on_c, 1, 30, 53
1, 56400, Note_on_c, 1, 30, 0
1, 56400, Note_on_c, 1, 31, 40
1, 56436, Note_on_c, 1, 31, 0
1, 56520, Note_on_c, 0, 71, 64
1, 56640, Note_on_c, 0, 71, 0
1, 56640, Note_on_c, 0, 72, 69
1, 56760, Note_on_c, 0, 72, 0
1, 56760, Note_on_c, 0, 74, 75
1, 56880, Note_on_c, 0, 74, 0
1, 56880, Note_on_c, 0, 77, 80
1, 56880, Note_on_c, 1, 60, 80
1, 56880, Note_on_c, 1, 63, 80
1, 56940, Note_on_c, 0, 77, 0
1, 56940, Note_on_c, 0, 75, 80
1, 57000, Note_on_c, 0, 75, 0
1, 57000, Note_on_c, 0, 74, 80
1, 57060, Note_on_c, 0, 74, 0
1, 57060, Note_on_c, 0, 72, 80
1, 57120, Note_on_c, 0, 72, 0
1, 57120, Note_on_c, 0, 71, 80
1, 57120, Note_on_c, 1, 63, 0
1, 57120, Note_on_c, 1, 60, 0
1, 57120, Note_on_c, 1, 62, 80
1, 57120, Note_on_c, 1, 65, 80
1, 57156, Note_on_c, 0, 71, 0
1, 57192, Note_on_c, 1, 65, 0
1, 57192, Note_on_c, 1, 62, 0
1, 57240, Note_on_c, 0, 72, 80
1, 57360, Note_on_c, 0, 72, 0
1, 57360, Note_on_c, 0, 73, 80
1, 57480, Note_on_c, 0, 73, 0
1, 57480, Note_on_c, 0, 74, 80
1, 57600, Note_on_c, 0, 74, 0
1, 57600, Note_on_c, 0, 79, 80
1, 57600, Note_on_c, 1, 62, 80
1, 57600, Note_on_c, 1, 65, 80
1, 57660, Note_on_c, 0, 79, 0
1, 57660, Note_on_c, 0, 77, 80
1, 57720, Note_on_c, 0, 77, 0
1, 57720, Note_on_c, 0, 75, 80
1, 57780, Note_on_c, 0, 75, 0
1, 57780, Note_on_c, 0, 74, 80
1, 57840, Note_on_c, 0, 74, 0
1, 57840, Note_on_c, 0, 72, 80
1, 57840, Note_on_c, 1, 65, 0
1, 57840, Note_on_c, 1, 62, 0
1, 57840, Note_on_c, 1, 63, 80
1, 57840, Note_on_c, 1, 67, 80
1, 57876, Note_on_c, 0, 72, 0
1, 57912, Note_on_c, 1, 67, 0
1, 57912, Note_on_c, 1, 63, 0
1, 57960, Note_on_c, 0, 75, 80
1, 57996, Note_on_c, 0, 75, 0
1, 58080, Note_on_c, 0, 79, 80
1, 58200, Note_on_c, 0, 79, 0
1, 58200, Note_on_c, 0, 84, 80
1, 58320, Note_on_c, 0, 84, 0
1, 58320, Note_on_c, 0, 84, 80
1, 58320, Note_on_c, 1, 63, 80
1, 58320, Note_on_c, 1, 67, 80
1, 58440, Note_on_c, 0, 84, 0
1, 58440, Note_on_c, 0, 83, 80
1, 58500, Note_on_c, 0, 83, 0
1, 58560, Note_on_c, 0, 83, 80
1, 58560, Note_on_c, 1, 67, 0
1, 58560, Note_on_c, 1, 63, 0
1, 58560, Note_on_c, 1, 62, 80
1, 58560, Note_on_c, 1, 65, 80
1, 58680, Note_on_c, 0, 83, 0
1, 58680, Note_on_c, 0, 80, 80
1, 58740, Note_on_c, 0, 80, 0
1, 58800, Note_on_c, 0, 80, 80
1, 58800, Note_on_c, 1, 65, 0
1, 58800, Note_on_c, 1, 62, 0
1, 58800, Note_on_c, 1, 60, 80
1, 58800, Note_on_c, 1, 63, 80
1, 58920, Note_on_c, 0, 80, 0
1, 58920, Note_on_c, 0, 79, 80
1, 58980, Note_on_c, 0, 79, 0
1, 59040, Note_on_c, 0, 79, 80
1, 59040, Note_on_c, 1, 63, 0
1, 59040, Note_on_c, 1, 60, 0
1, 59040, Note_on_c, 1, 59, 80
1, 59040, Note_on_c, 1, 62, 80
1, 59280, Note_on_c, 1, 62, 0
1, 59280, Note_on_c, 1, 59, 0
1, 59280, Note_on_c, 1, 55, 80
1, 59280, Note_on_c, 1, 59, 80
1, 59400, Note_on_c, 0, 79, 0
1, 59400, Note_on_c, 0, 74, 80
1, 59460, Note_on_c, 0, 74, 0
1, 59460, Note_on_c, 0, 75, 80
1, 59520, Note_on_c, 0, 75, 0
1, 59520, Note_on_c, 0, 79, 80
1, 59520, Note_on_c, 1, 59, 0
1, 59520, Note_on_c, 1, 55, 0
1, 59520, Note_on_c, 1, 59, 80
1, 59520, Note_on_c, 1, 67, 80
1, 59580, Note_on_c, 0, 79, 0
1, 59580, Note_on_c, 0, 77, 80
1, 59640, Note_on_c, 0, 77, 0
1, 59640, Note_on_c, 0, 75, 80
1, 59700, Note_on_c, 0, 75, 0
1, 59700, Note_on_c, 0, 74, 80
1, 59760, Note_on_c, 0, 74, 0
1, 59760, Note_on_c, 0, 77, 80
1, 59760, Note_on_c, 1, 67, 0
1, 59760, Note_on_c, 1, 59, 0
1, 59760, Note_on_c, 1, 60, 80
1, 59760, Note_on_c, 1, 67, 80
1, 59820, Note_on_c, 0, 77, 0
1, 59820, Note_on_c, 0, 75, 80
1, 59880, Note_on_c, 0, 75, 0
1, 59880, Note_on_c, 0, 74, 80
1, 59940, Note_on_c, 0, 74, 0
1, 59940, Note_on_c, 0, 72, 80
1, 60000, Note_on_c, 0, 72, 0
1, 60000, Note_on_c, 0, 71, 80
1, 60000, Note_on_c, 1, 67, 0
1, 60000, Note_on_c, 1, 60, 0
1, 60180, Note_on_c, 0, 71, 0
1, 60180, Note_on_c, 0, 72, 80
1, 60240, Note_on_c, 0, 72, 0
1, 60240, Note_on_c, 0, 72, 80
1, 60240, Note_on_c, 1, 56, 80
1, 60240, Note_on_c, 1, 66, 80
1, 60280, Note_on_c, 0, 72, 0
1, 60280, Note_on_c, 0, 74, 80
1, 60320, Note_on_c, 0, 74, 0
1, 60320, Note_on_c, 0, 72, 80
1, 60360, Note_on_c, 0, 72, 0
1, 60360, Note_on_c, 0, 74, 80
1, 60390, Note_on_c, 0, 74, 0
1, 60390, Note_on_c, 0, 72, 80
1, 60420, Note_on_c, 0, 72, 0
1, 60420, Note_on_c, 0, 71, 80
1, 60450, Note_on_c, 0, 71, 0
1, 60450, Note_on_c, 0, 72, 80
1, 60480, Note_on_c, 0, 72, 0
1, 60480, Note_on_c, 0, 72, 80
1, 60480, Note_on_c, 1, 66, 0
1, 60480, Note_on_c, 1, 56, 0
1, 60480, Note_on_c, 1, 55, 80
1, 60480, Note_on_c, 1, 67, 80
1, 60720, Note_on_c, 0, 72, 0
1, 60720, Note_on_c, 0, 71, 80
1, 60720, Note_on_c, 0, 74, 80
1, 60720, Note_on_c, 1, 67, 0
1, 60720, Note_on_c, 1, 55, 0
1, 60840, Note_on_c, 1, 53, 80
1, 60960, Note_on_c, 0, 74, 0
1, 60960, Note_on_c, 0, 71, 0
1, 60960, Note_on_c, 1, 53, 0
1, 60960, Note_on_c, 1, 51, 80
1, 60996, Note_on_c, 1, 51, 0
1, 61080, Note_on_c, 1, 50, 80
1, 61116, Note_on_c, 1, 50, 0
1, 61200, Note_on_c, 1, 48, 80
1, 61320, Note_on_c, 0, 72, 80
1, 61440, Note_on_c, 0, 72, 0
1, 61440, Note_on_c, 0, 75, 80
1, 61440, Note_on_c, 1, 48, 0
1, 61560, Note_on_c, 0, 75, 0
1, 61560, Note_on_c, 0, 72, 80
1, 61680, Note_on_c, 0, 72, 0
1, 61680, Note_on_c, 0, 68, 80
1, 61800, Note_on_c, 0, 68, 0
1, 61800, Note_on_c, 0, 67, 80
1, 61920, Note_on_c, 0, 67, 0
1, 61920, Note_on_c, 0, 67, 80
1, 61920, Note_on_c, 1, 50, 80
1, 62040, Note_on_c, 0, 57, 80
1, 62160, Note_on_c, 0, 57, 0
1, 62160, Note_on_c, 0, 67, 0
1, 62160, Note_on_c, 0, 60, 80
1, 62160, Note_on_c, 0, 66, 80
1, 62280, Note_on_c, 0, 60, 0
1, 62280, Note_on_c, 0, 63, 80
1, 62400, Note_on_c, 0, 63, 0
1, 62400, Note_on_c, 0, 62, 80
1, 62520, Note_on_c, 0, 62, 0
1, 62520, Note_on_c, 0, 60, 80
1, 62640, Note_on_c, 0, 60, 0
1, 62640, Note_on_c, 0, 66, 0
1, 62640, Note_on_c, 0, 60, 80
1, 62640, Note_on_c, 1, 50, 0
1, 62640, Note_on_c, 1, 55, 80
1, 62760, Note_on_c, 0, 65, 80
1, 62880, Note_on_c, 0, 65, 0
1, 62880, Note_on_c, 0, 60, 0
1, 62880, Note_on_c, 0, 74, 80
1, 62880, Note_on_c, 0, 59, 80
1, 63000, Note_on_c, 0, 74, 0
1, 63000, Note_on_c, 0, 71, 80
1, 63120, Note_on_c, 0, 71, 0
1, 63120, Note_on_c, 0, 67, 80
1, 63240, Note_on_c, 0, 67, 0
1, 63240, Note_on_c, 0, 65, 80
1, 63360, Note_on_c, 0, 65, 0
1, 63360, Note_on_c, 0, 59, 0
1, 63360, Note_on_c, 0, 65, 80
1, 63360, Note_on_c, 1, 55, 0
1, 63360, Note_on_c, 1, 48, 80
1, 63480, Note_on_c, 0, 55, 80
1, 63600, Note_on_c, 0, 55, 0
1, 63600, Note_on_c, 0, 65, 0
1, 63600, Note_on_c, 0, 60, 80
1, 63600, Note_on_c, 0, 63, 80
1, 63720, Note_on_c, 0, 60, 0
1, 63720, Note_on_c, 0, 58, 80
1, 63840, Note_on_c, 0, 58, 0
1, 63840, Note_on_c, 0, 56, 80
1, 63960, Note_on_c, 0, 56, 0
1, 63960, Note_on_c, 0, 55, 80
1, 64080, Note_on_c, 0, 55, 0
1, 64080, Note_on_c, 0, 56, 80
1, 64080, Note_on_c, 1, 48, 0
1, 64080, Note_on_c, 1, 41, 80
1, 64200, Note_on_c, 0, 63, 0
1, 64200, Note_on_c, 0, 62, 80
1, 64320, Note_on_c, 0, 62, 0
1, 64320, Note_on_c, 0, 68, 80
1, 64440, Note_on_c, 0, 68, 0
1, 64440, Note_on_c, 0, 65, 80
1, 64560, Note_on_c, 0, 65, 0
1, 64560, Note_on_c, 0, 56, 0
1, 64560, Note_on_c, 0, 62, 80
1, 64560, Note_on_c, 1, 41, 0
1, 64560, Note_on_c, 1, 42, 80
1, 64680, Note_on_c, 0, 62, 0
1, 64680, Note_on_c, 0, 60, 80
1, 64800, Note_on_c, 0, 60, 0
1, 64800, Note_on_c, 0, 59, 80
1, 64800, Note_on_c, 1, 42, 0
1, 64800, Note_on_c, 1, 31, 88
1, 64800, Note_on_c, 1, 43, 88
1, 64860, Note_on_c, 0, 59, 0
1, 64860, Note_on_c, 0, 62, 80
1, 64872, Note_on_c, 1, 43, 0
1, 64872, Note_on_c, 1, 31, 0
1, 64920, Note_on_c, 0, 62, 0
1, 64920, Note_on_c, 0, 60, 80
1, 64980, Note_on_c, 0, 60, 0
1, 64980, Note_on_c, 0, 63, 80
1, 65040, Note_on_c, 0, 63, 0
1, 65040, Note_on_c, 0, 62, 80
1, 65040, Note_on_c, 1, 59, 80
1, 65076, Note_on_c, 1, 59, 0
1, 65100, Note_on_c, 0, 62, 0
1, 65100, Note_on_c, 0, 65, 80
1, 65160, Note_on_c, 0, 65, 0
1, 65160, Note_on_c, 0, 63, 80
1, 65160, Note_on_c, 1, 60, 80
1, 65196, Note_on_c, 1, 60, 0
1, 65220, Note_on_c, 0, 63, 0
1, 65220, Note_on_c, 0, 67, 80
1, 65280, Note_on_c, 0, 67, 0
1, 65280, Note_on_c, 0, 65, 80
1, 65280, Note_on_c, 1, 62, 80
1, 65316, Note_on_c, 0, 65, 0
1, 65316, Note_on_c, 1, 62, 0
1, 65520, Note_on_c, 0, 60, 80
1, 65520, Note_on_c, 1, 31, 88
1, 65520, Note_on_c, 1, 43, 88
1, 65580, Note_on_c, 0, 60, 0
1, 65580, Note_on_c, 0, 63, 80
1, 65592, Note_on_c, 1, 43, 0
1, 65592, Note_on_c, 1, 31, 0
1, 65640, Note_on_c, 0, 63, 0
1, 65640, Note_on_c, 0, 62, 80
1, 65700, Note_on_c, 0, 62, 0
1, 65700, Note_on_c, 0, 65, 80
1, 65760, Note_on_c, 0, 65, 0
1, 65760, Note_on_c, 0, 63, 80
1, 65760, Note_on_c, 1, 60, 80
1, 65820, Note_on_c, 0, 63, 0
1, 65820, Note_on_c, 0, 67, 80
1, 65880, Note_on_c, 0, 67, 0
1, 65880, Note_on_c, 0, 65, 80
1, 65880, Note_on_c, 1, 60, 0
1, 65880, Note_on_c, 1, 62, 80
1, 65940, Note_on_c, 0, 65, 0
1, 65940, Note_on_c, 0, 68, 80
1, 66000, Note_on_c, 0, 68, 0
1, 66000, Note_on_c, 0, 67, 80
1, 66000, Note_on_c, 1, 62, 0
1, 66000, Note_on_c, 1, 63, 80
1, 66036, Note_on_c, 0, 67, 0
1, 66036, Note_on_c, 1, 63, 0
1, 66240, Note_on_c, 0, 59, 80
1, 66240, Note_on_c, 1, 55, 80
1, 66276, Note_on_c, 1, 55, 0
1, 66300, Note_on_c, 0, 59, 0
1, 66300, Note_on_c, 0, 62, 80
1, 66360, Note_on_c, 0, 62, 0
1, 66360, Note_on_c, 0, 60, 80
1, 66360, Note_on_c, 1, 57, 80
1, 66396, Note_on_c, 1, 57, 0
1, 66420, Note_on_c, 0, 60, 0
1, 66420, Note_on_c, 0, 63, 80
1, 66480, Note_on_c, 0, 63, 0
1, 66480, Note_on_c, 0, 62, 80
1, 66480, Note_on_c, 1, 59, 80
1, 66540, Note_on_c, 0, 62, 0
1, 66540, Note_on_c, 0, 65, 80
1, 66600, Note_on_c, 0, 65, 0
1, 66600, Note_on_c, 0, 63, 80
1, 66660, Note_on_c, 0, 63, 0
1, 66660, Note_on_c, 0, 67, 80
1, 66720, Note_on_c, 0, 67, 0
1, 66720, Note_on_c, 0, 65, 80
1, 66720, Note_on_c, 1, 59, 0
1, 66780, Note_on_c, 0, 65, 0
1, 66780, Note_on_c, 0, 68, 80
1, 66840, Note_on_c, 0, 68, 0
1, 66840, Note_on_c, 0, 67, 80
1, 66900, Note_on_c, 0, 67, 0
1, 66900, Note_on_c, 0, 65, 80
1, 66960, Note_on_c, 0, 65, 0
1, 66960, Note_on_c, 0, 63, 80
1, 66960, Note_on_c, 1, 60, 80
1, 67020, Note_on_c, 0, 63, 0
1, 67020, Note_on_c, 0, 67, 80
1, 67080, Note_on_c, 0, 67, 0
1, 67080, Note_on_c, 0, 65, 80
1, 67080, Note_on_c, 1, 60, 0
1, 67080, Note_on_c, 1, 62, 80
1, 67140, Note_on_c, 0, 65, 0
1, 67140, Note_on_c, 0, 68, 80
1, 67200, Note_on_c, 0, 68, 0
1, 67200, Note_on_c, 0, 67, 80
1, 67200, Note_on_c, 1, 62, 0
1, 67200, Note_on_c, 1, 63, 80
1, 67260, Note_on_c, 0, 67, 0
1, 67260, Note_on_c, 0, 72, 80
1, 67272, Note_on_c, 1, 63, 0
1, 67320, Note_on_c, 0, 72, 0
1, 67320, Note_on_c, 0, 71, 80
1, 67380, Note_on_c, 0, 71, 0
1, 67380, Note_on_c, 0, 74, 80
1, 67440, Note_on_c, 0, 74, 0
1, 67440, Note_on_c, 0, 72, 80
1, 67500, Note_on_c, 0, 72, 0
1, 67500, Note_on_c, 0, 75, 80
1, 67560, Note_on_c, 0, 75, 0
1, 67560, Note_on_c, 0, 74, 80
1, 67620, Note_on_c, 0, 74, 0
1, 67620, Note_on_c, 0, 72, 80
1, 67680, Note_on_c, 0, 72, 0
1, 67680, Note_on_c, 0, 71, 80
1, 67680, Note_on_c, 1, 67, 80
1, 67716, Note_on_c, 1, 67, 0
1, 67740, Note_on_c, 0, 71, 0
1, 67740, Note_on_c, 0, 74, 80
1, 67800, Note_on_c, 0, 74, 0
1, 67800, Note_on_c, 0, 72, 80
1, 67800, Note_on_c, 1, 69, 80
1, 67836, Note_on_c, 1, 69, 0
1, 67860, Note_on_c, 0, 72, 0
1, 67860, Note_on_c, 0, 75, 80
1, 67920, Note_on_c, 0, 75, 0
1, 67920, Note_on_c, 0, 74, 80
1, 67920, Note_on_c, 1, 71, 80
1, 67980, Note_on_c, 0, 74, 0
1, 67980, Note_on_c, 0, 77, 80
1, 68040, Note_on_c, 0, 77, 0
1, 68040, Note_on_c, 0, 75, 80
1, 68100, Note_on_c, 0, 75, 0
1, 68100, Note_on_c, 0, 79, 80
1, 68160, Note_on_c, 0, 79, 0
1, 68160, Note_on_c, 0, 77, 80
1, 68160, Note_on_c, 1, 71, 0
1, 68220, Note_on_c, 0, 77, 0
1, 68220, Note_on_c, 0, 80, 80
1, 68280, Note_on_c, 0, 80, 0
1, 68280, Note_on_c, 0, 79, 80
1, 68340, Note_on_c, 0, 79, 0
1, 68340, Note_on_c, 0, 77, 80
1, 68400, Note_on_c, 0, 77, 0
1, 68400, Note_on_c, 0, 75, 80
1, 68400, Note_on_c, 1, 72, 80
1, 68460, Note_on_c, 0, 75, 0
1, 68460, Note_on_c, 0, 79, 80
1, 68520, Note_on_c, 0, 79, 0
1, 68520, Note_on_c, 0, 77, 80
1, 68520, Note_on_c, 1, 72, 0
1, 68520, Note_on_c, 1, 74, 80
1, 68580, Note_on_c, 0, 77, 0
1, 68580, Note_on_c, 0, 80, 80
1, 68640, Note_on_c, 0, 80, 0
1, 68640, Note_on_c, 0, 79, 80
1, 68640, Note_on_c, 1, 74, 0
1, 68640, Note_on_c, 1, 75, 80
1, 68700, Note_on_c, 0, 79, 0
1, 68700, Note_on_c, 0, 84, 80
1, 68712, Note_on_c, 1, 75, 0
1, 68760, Note_on_c, 0, 84, 0
1, 68760, Note_on_c, 0, 83, 80
1, 68820, Note_on_c, 0, 83, 0
1, 68820, Note_on_c, 0, 86, 80
1, 68880, Note_on_c, 0, 86, 0
1, 68880, Note_on_c, 0, 84, 80
1, 68940, Note_on_c, 0, 84, 0
1, 68940, Note_on_c, 0, 87, 80
1, 69000, Note_on_c, 0, 87, 0
1, 69000, Note_on_c, 0, 86, 80
1, 69060, Note_on_c, 0, 86, 0
1, 69060, Note_on_c, 0, 84, 80
1, 69120, Note_on_c, 0, 84, 0
1, 69120, Note_on_c, 0, 83, 80
1, 69180, Note_on_c, 0, 83, 0
1, 69180, Note_on_c, 0, 84, 80
1, 69240, Note_on_c, 0, 84, 0
1, 69240, Note_on_c, 0, 86, 80
1, 69300, Note_on_c, 0, 86, 0
1, 69300, Note_on_c, 0, 83, 80
1, 69360, Note_on_c, 0, 83, 0
1, 69360, Note_on_c, 0, 79, 80
1, 69420, Note_on_c, 1, 77, 80
1, 69480, Note_on_c, 0, 79, 0
1, 69480, Note_on_c, 1, 77, 0
1, 69480, Note_on_c, 1, 75, 80
1, 69540, Note_on_c, 1, 75, 0
1, 69540, Note_on_c, 1, 74, 80
1, 69600, Note_on_c, 1, 74, 0
1, 69600, Note_on_c, 1, 72, 80
1, 69660, Note_on_c, 1, 72, 0
1, 69660, Note_on_c, 1, 71, 80
1, 69720, Note_on_c, 1, 71, 0
1, 69720, Note_on_c, 1, 69, 80
1, 69780, Note_on_c, 1, 69, 0
1, 69780, Note_on_c, 1, 67, 80
1, 69840, Note_on_c, 0, 87, 80
1, 69840, Note_on_c, 1, 67, 0
1, 69840, Note_on_c, 1, 72, 80
1, 69900, Note_on_c, 0, 87, 0
1, 69900, Note_on_c, 0, 79, 80
1, 69960, Note_on_c, 0, 79, 0
1, 69960, Note_on_c, 0, 77, 80
1, 70020, Note_on_c, 0, 77, 0
1, 70020, Note_on_c, 0, 79, 80
1, 70080, Note_on_c, 0, 79, 0
1, 70080, Note_on_c, 0, 86, 80
1, 70080, Note_on_c, 1, 72, 0
1, 70080, Note_on_c, 1, 70, 80
1, 70140, Note_on_c, 0, 86, 0
1, 70140, Note_on_c, 0, 79, 80
1, 70200, Note_on_c, 0, 79, 0
1, 70200, Note_on_c, 0, 77, 80
1, 70260, Note_on_c, 0, 77, 0
1, 70260, Note_on_c, 0, 79, 80
1, 70320, Note_on_c, 0, 79, 0
1, 70320, Note_on_c, 0, 84, 80
1, 70320, Note_on_c, 1, 70, 0
1, 70320, Note_on_c, 1, 68, 80
1, 70380, Note_on_c, 0, 84, 0
1, 70380, Note_on_c, 0, 79, 80
1, 70440, Note_on_c, 0, 79, 0
1, 70440, Note_on_c, 0, 77, 80
1, 70500, Note_on_c, 0, 77, 0
1, 70500, Note_on_c, 0, 79, 80
1, 70560, Note_on_c, 0, 79, 0
1, 70560, Note_on_c, 0, 83, 80
1, 70560, Note_on_c, 1, 68, 0
1, 70560, Note_on_c, 1, 67, 80
1, 70620, Note_on_c, 0, 83, 0
1, 70620, Note_on_c, 0, 84, 80
1, 70680, Note_on_c, 0, 84, 0
1, 70680, Note_on_c, 0, 86, 80
1, 70740, Note_on_c, 0, 86, 0
1, 70740, Note_on_c, 0, 83, 80
1, 70800, Note_on_c, 0, 83, 0
1, 70800, Note_on_c, 0, 79, 80
1, 70800, Note_on_c, 1, 67, 0
1, 70860, Note_on_c, 1, 77, 80
1, 70920, Note_on_c, 0, 79, 0
1, 70920, Note_on_c, 1, 77, 0
1, 70920, Note_on_c, 1, 75, 80
1, 70980, Note_on_c, 1, 75, 0
1, 70980, Note_on_c, 1, 74, 80
1, 71040, Note_on_c, 1, 74, 0
1, 71040, Note_on_c, 1, 72, 80
1, 71100, Note_on_c, 1, 72, 0
1, 71100, Note_on_c, 1, 71, 80
1, 71160, Note_on_c, 1, 71, 0
1, 71160, Note_on_c, 1, 69, 80
1, 71220, Note_on_c, 1, 69, 0
1, 71220, Note_on_c, 1, 67, 80
1, 71280, Note_on_c, 0, 87, 48
1, 71280, Note_on_c, 1, 67, 0
1, 71280, Note_on_c, 1, 72, 48
1, 71340, Note_on_c, 0, 87, 0
1, 71340, Note_on_c, 0, 79, 48
1, 71400, Note_on_c, 0, 79, 0
1, 71400, Note_on_c, 0, 77, 48
1, 71460, Note_on_c, 0, 77, 0
1, 71460, Note_on_c, 0, 79, 48
1, 71520, Note_on_c, 0, 79, 0
1, 71520, Note_on_c, 0, 86, 48
1, 71520, Note_on_c, 1, 72, 0
1, 71520, Note_on_c, 1, 70, 48
1, 71580, Note_on_c, 0, 86, 0
1, 71580, Note_on_c, 0, 79, 48
1, 71640, Note_on_c, 0, 79, 0
1, 71640, Note_on_c, 0, 77, 48
1, 71700, Note_on_c, 0, 77, 0
1, 71700, Note_on_c, 0, 79, 48
1, 71760, Note_on_c, 0, 79, 0
1, 71760, Note_on_c, 0, 84, 48
1, 71760, Note_on_c, 1, 70, 0
1, 71760, Note_on_c, 1, 68, 48
1, 71820, Note_on_c, 0, 84, 0
1, 71820, Note_on_c, 0, 79, 48
1, 71880, Note_on_c, 0, 79, 0
1, 71880, Note_on_c, 0, 77, 48
1, 71940, Note_on_c, 0, 77, 0
1, 71940, Note_on_c, 0, 79, 48
1, 72000, Note_on_c, 0, 79, 0
1, 72000, Note_on_c, 0, 83, 48
1, 72000, Note_on_c, 1, 68, 0
1, 72000, Note_on_c, 1, 67, 48
1, 72060, Note_on_c, 0, 83, 0
1, 72060, Note_on_c, 0, 84, 48
1, 72120, Note_on_c, 0, 84, 0
1, 72120, Note_on_c, 0, 86, 48
1, 72180, Note_on_c, 0, 86, 0
1, 72180, Note_on_c, 0, 83, 48
1, 72240, Note_on_c, 0, 83, 0
1, 72240, Note_on_c, 0, 79, 48
1, 72240, Note_on_c, 1, 67, 0
1, 72300, Note_on_c, 1, 77, 48
1, 72360, Note_on_c, 0, 79, 0
1, 72360, Note_on_c, 1, 77, 0
1, 72360, Note_on_c, 1, 75, 48
1, 72420, Note_on_c, 1, 75, 0
1, 72420, Note_on_c, 1, 74, 48
1, 72480, Note_on_c, 1, 74, 0
1, 72480, Note_on_c, 1, 72, 48
1, 72540, Note_on_c, 1, 72, 0
1, 72540, Note_on_c, 1, 71, 48
1, 72600, Note_on_c, 1, 71, 0
1, 72600, Note_on_c, 1, 69, 48
1, 72660, Note_on_c, 1, 69, 0
1, 72660, Note_on_c, 1, 67, 48
1, 72720, Note_on_c, 0, 75, 48
1, 72720, Note_on_c, 1, 67, 0
1, 72720, Note_on_c, 1, 72, 48
1, 72780, Note_on_c, 0, 75, 0
1, 72780, Note_on_c, 0, 77, 48
1, 72840, Note_on_c, 0, 77, 0
1, 72840, Note_on_c, 0, 79, 48
1, 72900, Note_on_c, 0, 79, 0
1, 72900, Note_on_c, 0, 75, 48
1, 72960, Note_on_c, 0, 75, 0
1, 72960, Note_on_c, 0, 72, 48
1, 72960, Note_on_c, 1, 72, 0
1, 73020, Note_on_c, 1, 70, 48
1, 73080, Note_on_c, 0, 72, 0
1, 73080, Note_on_c, 1, 70, 0
1, 73080, Note_on_c, 1, 68, 48
1, 73140, Note_on_c, 1, 68, 0
1, 73140, Note_on_c, 1, 67, 48
1, 73200, Note_on_c, 1, 67, 0
1, 73200, Note_on_c, 1, 65, 48
1, 73260, Note_on_c, 1, 65, 0
1, 73260, Note_on_c, 1, 63, 48
1, 73320, Note_on_c, 1, 63, 0
1, 73320, Note_on_c, 1, 62, 48
1, 73380, Note_on_c, 1, 62, 0
1, 73380, Note_on_c, 1, 60, 48
1, 73440, Note_on_c, 0, 80, 48
1, 73440, Note_on_c, 1, 60, 0
1, 73440, Note_on_c, 1, 65, 48
1, 73500, Note_on_c, 0, 80, 0
1, 73500, Note_on_c, 0, 72, 48
1, 73560, Note_on_c, 0, 72, 0
1, 73560, Note_on_c, 0, 71, 48
1, 73620, Note_on_c, 0, 71, 0
1, 73620, Note_on_c, 0, 72, 48
1, 73680, Note_on_c, 0, 72, 0
1, 73680, Note_on_c, 0, 79, 48
1, 73680, Note_on_c, 1, 65, 0
1, 73680, Note_on_c, 1, 63, 48
1, 73740, Note_on_c, 0, 79, 0
1, 73740, Note_on_c, 0, 72, 48
1, 73800, Note_on_c, 0, 72, 0
1, 73800, Note_on_c, 0, 71, 48
1, 73860, Note_on_c, 0, 71, 0
1, 73860, Note_on_c, 0, 72, 48
1, 73920, Note_on_c, 0, 72, 0
1, 73920, Note_on_c, 0, 77, 48
1, 73920, Note_on_c, 1, 63, 0
1, 73920, Note_on_c, 1, 62, 48
1, 73980, Note_on_c, 0, 77, 0
1, 73980, Note_on_c, 0, 72, 48
1, 74040, Note_on_c, 0, 72, 0
1, 74040, Note_on_c, 0, 71, 48
1, 74100, Note_on_c, 0, 71, 0
1, 74100, Note_on_c, 0, 72, 48
1, 74160, Note_on_c, 0, 72, 0
1, 74160, Note_on_c, 0, 75, 48
1, 74160, Note_on_c, 1, 62, 0
1, 74160, Note_on_c, 1, 60, 48
1, 74220, Note_on_c, 0, 75, 0
1, 74220, Note_on_c, 0, 77, 48
1, 74280, Note_on_c, 0, 77, 0
1, 74280, Note_on_c, 0, 79, 48
1, 74340, Note_on_c, 0, 79, 0
1, 74340, Note_on_c, 0, 75, 48
1, 74400, Note_on_c, 0, 75, 0
1, 74400, Note_on_c, 0, 72, 48
1, 74400, Note_on_c, 1, 60, 0
1, 74460, Note_on_c, 1, 70, 48
1, 74520, Note_on_c, 0, 72, 0
1, 74520, Note_on_c, 1, 70, 0
1, 74520, Note_on_c, 1, 68, 48
1, 74580, Note_on_c, 1, 68, 0
1, 74580, Note_on_c, 1, 67, 48
1, 74640, Note_on_c, 1, 67, 0
1, 74640, Note_on_c, 1, 65, 48
1, 74700, Note_on_c, 1, 65, 0
1, 74700, Note_on_c, 1, 63, 48
1, 74760, Note_on_c, 1, 63, 0
1, 74760, Note_on_c, 1, 62, 48
1, 74820, Note_on_c, 1, 62, 0
1, 74820, Note_on_c, 1, 60, 48
1, 74880, Note_on_c, 0, 80, 40
1, 74880, Note_on_c, 1, 60, 0
1, 74880, Note_on_c, 1, 65, 40
1, 74940, Note_on_c, 0, 80, 0
1, 74940, Note_on_c, 0, 72, 41
1, 75000, Note_on_c, 0, 72, 0
1, 75000, Note_on_c, 0, 71, 41
1, 75060, Note_on_c, 0, 71, 0
1, 75060, Note_on_c, 0, 72, 42
1, 75120, Note_on_c, 0, 72, 0
1, 75120, Note_on_c, 0, 79, 43
1, 75120, Note_on_c, 1, 65, 0
1, 75120, Note_on_c, 1, 63, 43
1, 75180, Note_on_c, 0, 79, 0
1, 75180, Note_on_c, 0, 72, 43
1, 75240, Note_on_c, 0, 72, 0
1, 75240, Note_on_c, 0, 71, 44
1, 75300, Note_on_c, 0, 71, 0
1, 75300, Note_on_c, 0, 72, 45
1, 75360, Note_on_c, 0, 72, 0
1, 75360, Note_on_c, 0, 79, 45
1, 75360, Note_on_c, 1, 63, 0
1, 75420, Note_on_c, 0, 79, 0
1, 75420, Note_on_c, 0, 72, 46
1, 75480, Note_on_c, 0, 72, 0
1, 75480, Note_on_c, 0, 71, 47
1, 75540, Note_on_c, 0, 71, 0
1, 75540, Note_on_c, 0, 72, 47
1, 75600, Note_on_c, 0, 72, 0
1, 75600, Note_on_c, 0, 77, 48
1, 75600, Note_on_c, 1, 68, 48
1, 75660, Note_on_c, 0, 77, 0
1, 75660, Note_on_c, 0, 72, 49
1, 75720, Note_on_c, 0, 72, 0
1, 75720, Note_on_c, 0, 71, 51
1, 75780, Note_on_c, 0, 71, 0
1, 75780, Note_on_c, 0, 72, 52
1, 75840, Note_on_c, 0, 72, 0
1, 75840, Note_on_c, 0, 75, 53
1, 75840, Note_on_c, 1, 68, 0
1, 75840, Note_on_c, 1, 67, 53
1, 75900, Note_on_c, 0, 75, 0
1, 75900, Note_on_c, 0, 72, 55
1, 75960, Note_on_c, 0, 72, 0
1, 75960, Note_on_c, 0, 71, 56
1, 76020, Note_on_c, 0, 71, 0
1, 76020, Note_on_c, 0, 72, 57
1, 76080, Note_on_c, 0, 72, 0
1, 76080, Note_on_c, 0, 75, 59
1, 76080, Note_on_c, 1, 67, 0
1, 76140, Note_on_c, 0, 75, 0
1, 76140, Note_on_c, 0, 72, 60
1, 76200, Note_on_c, 0, 72, 0
1, 76200, Note_on_c, 0, 71, 61
1, 76260, Note_on_c, 0, 71, 0
1, 76260, Note_on_c, 0, 72, 63
1, 76320, Note_on_c, 0, 72, 0
1, 76320, Note_on_c, 0, 80, 64
1, 76320, Note_on_c, 1, 65, 64
1, 76380, Note_on_c, 0, 80, 0
1, 76380, Note_on_c, 0, 72, 65
1, 76440, Note_on_c, 0, 72, 0
1, 76440, Note_on_c, 0, 71, 67
1, 76500, Note_on_c, 0, 71, 0
1, 76500, Note_on_c, 0, 72, 68
1, 76560, Note_on_c, 0, 72, 0
1, 76560, Note_on_c, 0, 79, 69
1, 76560, Note_on_c, 1, 65, 0
1, 76560, Note_on_c, 1, 63, 69
1, 76620, Note_on_c, 0, 79, 0
1, 76620, Note_on_c, 0, 72, 71
1, 76680, Note_on_c, 0, 72, 0
1, 76680, Note_on_c, 0, 71, 72
1, 76740, Note_on_c, 0, 71, 0
1, 76740, Note_on_c, 0, 72, 73
1, 76800, Note_on_c, 0, 72, 0
1, 76800, Note_on_c, 0, 79, 75
1, 76800, Note_on_c, 1, 63, 0
1, 76860, Note_on_c, 0, 79, 0
1, 76860, Note_on_c, 0, 72, 76
1, 76920, Note_on_c, 0, 72, 0
1, 76920, Note_on_c, 0, 71, 77
1, 76980, Note_on_c, 0, 71, 0
1, 76980, Note_on_c, 0, 72, 79
1, 77040, Note_on_c, 0, 72, 0
1, 77040, Note_on_c, 0, 78, 80
1, 77040, Note_on_c, 1, 62, 88
1, 77040, Note_on_c, 1, 50, 88
1, 77100, Note_on_c, 0, 78, 0
1, 77100, Note_on_c, 0, 72, 80
1, 77112, Note_on_c, 1, 50, 0
1, 77112, Note_on_c, 1, 62, 0
1, 77160, Note_on_c, 0, 72, 0
1, 77160, Note_on_c, 0, 71, 80
1, 77220, Note_on_c, 0, 71, 0
1, 77220, Note_on_c, 0, 72, 80
1, 77280, Note_on_c, 0, 72, 0
1, 77280, Note_on_c, 0, 78, 80
1, 77280, Note_on_c, 1, 87, 80
1, 77340, Note_on_c, 0, 78, 0
1, 77340, Note_on_c, 0, 72, 80
1, 77400, Note_on_c, 0, 72, 0
1, 77400, Note_on_c, 0, 71, 80
1, 77460, Note_on_c, 0, 71, 0
1, 77460, Note_on_c, 0, 72, 80
1, 77520, Note_on_c, 0, 72, 0
1, 77520, Note_on_c, 0, 78, 80
1, 77520, Note_on_c, 1, 87, 0
1, 77520, Note_on_c, 1, 81, 80
1, 77580, Note_on_c, 0, 78, 0
1, 77580, Note_on_c, 0, 72, 80
1, 77640, Note_on_c, 0, 72, 0
1, 77640, Note_on_c, 0, 71, 80
1, 77700, Note_on_c, 0, 71, 0
1, 77700, Note_on_c, 0, 72, 80
1, 77760, Note_on_c, 0, 72, 0
1, 77760, Note_on_c, 0, 77, 80
1, 77760, Note_on_c, 1, 81, 0
1, 77760, Note_on_c, 1, 67, 88
1, 77760, Note_on_c, 1, 55, 88
1, 77820, Note_on_c, 0, 77, 0
1, 77820, Note_on_c, 0, 71, 80
1, 77880, Note_on_c, 0, 71, 0
1, 77880, Note_on_c, 0, 69, 80
1, 77940, Note_on_c, 0, 69, 0
1, 77940, Note_on_c, 0, 71, 80
1, 78000, Note_on_c, 0, 71, 0
1, 78000, Note_on_c, 0, 77, 80
1, 78000, Note_on_c, 1, 55, 0
1, 78000, Note_on_c, 1, 67, 0
1, 78000, Note_on_c, 1, 86, 80
1, 78060, Note_on_c, 0, 77, 0
1, 78060, Note_on_c, 0, 71, 80
1, 78072, Note_on_c, 1, 86, 0
1, 78120, Note_on_c, 0, 71, 0
1, 78120, Note_on_c, 0, 69, 80
1, 78180, Note_on_c, 0, 69, 0
1, 78180, Note_on_c, 0, 71, 80
1, 78240, Note_on_c, 0, 71, 0
1, 78240, Note_on_c, 0, 77, 80
1, 78240, Note_on_c, 1, 79, 80
1, 78300, Note_on_c, 0, 77, 0
1, 78300, Note_on_c, 0, 71, 80
1, 78312, Note_on_c, 1, 79, 0
1, 78360, Note_on_c, 0, 71, 0
1, 78360, Note_on_c, 0, 69, 80
1, 78420, Note_on_c, 0, 69, 0
1, 78420, Note_on_c, 0, 71, 80
1, 78480, Note_on_c, 0, 71, 0
1, 78480, Note_on_c, 0, 76, 80
1, 78480, Note_on_c, 1, 60, 88
1, 78480, Note_on_c, 1, 48, 88
1, 78540, Note_on_c, 0, 76, 0
1, 78540, Note_on_c, 0, 70, 80
1, 78552, Note_on_c, 1, 48, 0
1, 78552, Note_on_c, 1, 60, 0
1, 78600, Note_on_c, 0, 70, 0
1, 78600, Note_on_c, 0, 69, 80
1, 78660, Note_on_c, 0, 69, 0
1, 78660, Note_on_c, 0, 70, 80
1, 78720, Note_on_c, 0, 70, 0
1, 78720, Note_on_c, 0, 76, 80
1, 78720, Note_on_c, 1, 85, 80
1, 78780, Note_on_c, 0, 76, 0
1, 78780, Note_on_c, 0, 70, 80
1, 78840, Note_on_c, 0, 70, 0
1, 78840, Note_on_c, 0, 69, 80
1, 78900, Note_on_c, 0, 69, 0
1, 78900, Note_on_c, 0, 70, 80
1, 78960, Note_on_c, 0, 70, 0
1, 78960, Note_on_c, 0, 76, 80
1, 78960, Note_on_c, 1, 85, 0
1, 78960, Note_on_c, 1, 79, 80
1, 79020, Note_on_c, 0, 76, 0
1, 79020, Note_on_c, 0, 70, 80
1, 79080, Note_on_c, 0, 70, 0
1, 79080, Note_on_c, 0, 69, 80
1, 79140, Note_on_c, 0, 69, 0
1, 79140, Note_on_c, 0, 70, 80
1, 79200, Note_on_c, 0, 70, 0
1, 79200, Note_on_c, 0, 75, 80
1, 79200, Note_on_c, 1, 79, 0
1, 79200, Note_on_c, 1, 65, 80
1, 79200, Note_on_c, 1, 53, 80
1, 79260, Note_on_c, 0, 75, 0
1, 79260, Note_on_c, 0, 69, 80
1, 79320, Note_on_c, 0, 69, 0
1, 79320, Note_on_c, 0, 67, 80
1, 79380, Note_on_c, 0, 67, 0
1, 79380, Note_on_c, 0, 69, 80
1, 79440, Note_on_c, 0, 69, 0
1, 79440, Note_on_c, 0, 75, 80
1, 79440, Note_on_c, 1, 53, 0
1, 79440, Note_on_c, 1, 65, 0
1, 79440, Note_on_c, 1, 84, 80
1, 79500, Note_on_c, 0, 75, 0
1, 79500, Note_on_c, 0, 69, 80
1, 79512, Note_on_c, 1, 84, 0
1, 79560, Note_on_c, 0, 69, 0
1, 79560, Note_on_c, 0, 67, 80
1, 79620, Note_on_c, 0, 67, 0
1, 79620, Note_on_c, 0, 69, 80
1, 79680, Note_on_c, 0, 69, 0
1, 79680, Note_on_c, 0, 75, 80
1, 79680, Note_on_c, 1, 77, 80
1, 79740, Note_on_c, 0, 75, 0
1, 79740, Note_on_c, 0, 69, 80
1, 79752, Note_on_c, 1, 77, 0
1, 79800, Note_on_c, 0, 69, 0
1, 79800, Note_on_c, 0, 67, 80
1, 79860, Note_on_c, 0, 67, 0
1, 79860, Note_on_c, 0, 69, 80
1, 79920, Note_on_c, 0, 69, 0
1, 79920, Note_on_c, 0, 74, 80
1, 79920, Note_on_c, 1, 46, 80
1, 79920, Note_on_c, 1, 58, 80
1, 79980, Note_on_c, 0, 74, 0
1, 79980, Note_on_c, 0, 68, 80
1, 79992, Note_on_c, 1, 58, 0
1, 79992, Note_on_c, 1, 46, 0
1, 80040, Note_on_c, 0, 68, 0
1, 80040, Note_on_c, 0, 67, 80
1, 80100, Note_on_c, 0, 67, 0
1, 80100, Note_on_c, 0, 68, 80
1, 80160, Note_on_c, 0, 68, 0
1, 80160, Note_on_c, 0, 74, 80
1, 80160, Note_on_c, 1, 89, 80
1, 80220, Note_on_c, 0, 74, 0
1, 80220, Note_on_c, 0, 68, 80
1, 80232, Note_on_c, 1, 89, 0
1, 80280, Note_on_c, 0, 68, 0
1, 80280, Note_on_c, 0, 67, 80
1, 80340, Note_on_c, 0, 67, 0
1, 80340, Note_on_c, 0, 68, 80
1, 80400, Note_on_c, 0, 68, 0
1, 80400, Note_on_c, 0, 74, 80
1, 80400, Note_on_c, 1, 82, 80
1, 80460, Note_on_c, 0, 74, 0
1, 80460, Note_on_c, 0, 68, 80
1, 80520, Note_on_c, 0, 68, 0
1, 80520, Note_on_c, 0, 67, 80
1, 80580, Note_on_c, 0, 67, 0
1, 80580, Note_on_c, 0, 68, 80
1, 80640, Note_on_c, 0, 68, 0
1, 80640, Note_on_c, 0, 74, 80
1, 80640, Note_on_c, 1, 82, 0
1, 80640, Note_on_c, 1, 63, 80
1, 80640, Note_on_c, 1, 51, 80
1, 80700, Note_on_c, 0, 74, 0
1, 80700, Note_on_c, 0, 67, 80
1, 80760, Note_on_c, 0, 67, 0
1, 80760, Note_on_c, 0, 66, 80
1, 80820, Note_on_c, 0, 66, 0
1, 80820, Note_on_c, 0, 67, 80
1, 80880, Note_on_c, 0, 67, 0
1, 80880, Note_on_c, 0, 74, 80
1, 80880, Note_on_c, 1, 51, 0
1, 80880, Note_on_c, 1, 63, 0
1, 80880, Note_on_c, 1, 82, 80
1, 80940, Note_on_c, 0, 74, 0
1, 80940, Note_on_c, 0, 67, 80
1, 81000, Note_on_c, 0, 67, 0
1, 81000, Note_on_c, 0, 66, 80
1, 81060, Note_on_c, 0, 66, 0
1, 81060, Note_on_c, 0, 67, 80
1, 81120, Note_on_c, 0, 67, 0
1, 81120, Note_on_c, 0, 74, 80
1, 81120, Note_on_c, 1, 82, 0
1, 81120, Note_on_c, 1, 75, 80
1, 81180, Note_on_c, 0, 74, 0
1, 81180, Note_on_c, 0, 67, 80
1, 81192, Note_on_c, 1, 75, 0
1, 81240, Note_on_c, 0, 67, 0
1, 81240, Note_on_c, 0, 66, 80
1, 81300, Note_on_c, 0, 66, 0
1, 81300, Note_on_c, 0, 67, 80
1, 81360, Note_on_c, 0, 67, 0
1, 81360, Note_on_c, 0, 72, 80
1, 81360, Note_on_c, 1, 44, 80
1, 81360, Note_on_c, 1, 56, 80
1, 81420, Note_on_c, 0, 72, 0
1, 81420, Note_on_c, 0, 67, 80
1, 81432, Note_on_c, 1, 56, 0
1, 81432, Note_on_c, 1, 44, 0
1, 81480, Note_on_c, 0, 67, 0
1, 81480, Note_on_c, 0, 66, 80
1, 81540, Note_on_c, 0, 66, 0
1, 81540, Note_on_c, 0, 67, 80
1, 81600, Note_on_c, 0, 67, 0
1, 81600, Note_on_c, 0, 72, 80
1, 81600, Note_on_c, 1, 87, 80
1, 81660, Note_on_c, 0, 72, 0
1, 81660, Note_on_c, 0, 67, 80
1, 81672, Note_on_c, 1, 87, 0
1, 81720, Note_on_c, 0, 67, 0
1, 81720, Note_on_c, 0, 66, 80
1, 81780, Note_on_c, 0, 66, 0
1, 81780, Note_on_c, 0, 67, 80
1, 81840, Note_on_c, 0, 67, 0
1, 81840, Note_on_c, 0, 72, 80
1, 81840, Note_on_c, 1, 80, 80
1, 81900, Note_on_c, 0, 72, 0
1, 81900, Note_on_c, 0, 67, 80
1, 81960, Note_on_c, 0, 67, 0
1, 81960, Note_on_c, 0, 66, 80
1, 82020, Note_on_c, 0, 66, 0
1, 82020, Note_on_c, 0, 67, 80
1, 82080, Note_on_c, 0, 67, 0
1, 82080, Note_on_c, 0, 72, 80
1, 82080, Note_on_c, 1, 80, 0
1, 82080, Note_on_c, 1, 50, 80
1, 82080, Note_on_c, 1, 62, 80
1, 82140, Note_on_c, 0, 72, 0
1, 82140, Note_on_c, 0, 65, 80
1, 82200, Note_on_c, 0, 65, 0
1, 82200, Note_on_c, 0, 64, 80
1, 82260, Note_on_c, 0, 64, 0
1, 82260, Note_on_c, 0, 65, 80
1, 82320, Note_on_c, 0, 65, 0
1, 82320, Note_on_c, 0, 72, 80
1, 82320, Note_on_c, 1, 62, 0
1, 82320, Note_on_c, 1, 50, 0
1, 82320, Note_on_c, 1, 80, 80
1, 82380, Note_on_c, 0, 72, 0
1, 82380, Note_on_c, 0, 65, 80
1, 82440, Note_on_c, 0, 65, 0
1, 82440, Note_on_c, 0, 64, 80
1, 82500, Note_on_c, 0, 64, 0
1, 82500, Note_on_c, 0, 65, 80
1, 82560, Note_on_c, 0, 65, 0
1, 82560, Note_on_c, 0, 72, 80
1, 82560, Note_on_c, 1, 80, 0
1, 82560, Note_on_c, 1, 74, 80
1, 82620, Note_on_c, 0, 72, 0
1, 82620, Note_on_c, 0, 65, 80
1, 82632, Note_on_c, 1, 74, 0
1, 82680, Note_on_c, 0, 65, 0
1, 82680, Note_on_c, 0, 64, 80
1, 82740, Note_on_c, 0, 64, 0
1, 82740, Note_on_c, 0, 65, 80
1, 82800, Note_on_c, 0, 65, 0
1, 82800, Note_on_c, 0, 71, 80
1, 82800, Note_on_c, 1, 43, 88
1, 82800, Note_on_c, 1, 55, 88
1, 82860, Note_on_c, 0, 71, 0
1, 82860, Note_on_c, 0, 65, 80
1, 82872, Note_on_c, 1, 55, 0
1, 82872, Note_on_c, 1, 43, 0
1, 82920, Note_on_c, 0, 65, 0
1, 82920, Note_on_c, 0, 64, 80
1, 82980, Note_on_c, 0, 64, 0
1, 82980, Note_on_c, 0, 65, 80
1, 83040, Note_on_c, 0, 65, 0
1, 83040, Note_on_c, 0, 71, 80
1, 83040, Note_on_c, 1, 86, 80
1, 83100, Note_on_c, 0, 71, 0
1, 83100, Note_on_c, 0, 65, 80
1, 83112, Note_on_c, 1, 86, 0
1, 83160, Note_on_c, 0, 65, 0
1, 83160, Note_on_c, 0, 64, 80
1, 83220, Note_on_c, 0, 64, 0
1, 83220, Note_on_c, 0, 65, 80
1, 83280, Note_on_c, 0, 65, 0
1, 83280, Note_on_c, 0, 71, 80
1, 83280, Note_on_c, 1, 79, 80
1, 83340, Note_on_c, 0, 71, 0
1, 83340, Note_on_c, 0, 65, 80
1, 83352, Note_on_c, 1, 79, 0
1, 83400, Note_on_c, 0, 65, 0
1, 83400, Note_on_c, 0, 64, 80
1, 83460, Note_on_c, 0, 64, 0
1, 83460, Note_on_c, 0, 65, 80
1, 83520, Note_on_c, 0, 65, 0
1, 83520, Note_on_c, 0, 72, 80
1, 83520, Note_on_c, 1, 43, 80
1, 83520, Note_on_c, 1, 55, 80
1, 83580, Note_on_c, 0, 72, 0
1, 83580, Note_on_c, 0, 63, 80
1, 83640, Note_on_c, 0, 63, 0
1, 83640, Note_on_c, 0, 62, 80
1, 83700, Note_on_c, 0, 62, 0
1, 83700, Note_on_c, 0, 63, 80
1, 83760, Note_on_c, 0, 63, 0
1, 83760, Note_on_c, 0, 72, 80
1, 83760, Note_on_c, 1, 55, 0
1, 83760, Note_on_c, 1, 43, 0
1, 83760, Note_on_c, 1, 79, 80
1, 83820, Note_on_c, 0, 72, 0
1, 83820, Note_on_c, 0, 63, 80
1, 83880, Note_on_c, 0, 63, 0
1, 83880, Note_on_c, 0, 62, 80
1, 83940, Note_on_c, 0, 62, 0
1, 83940, Note_on_c, 0, 63, 80
1, 84000, Note_on_c, 0, 63, 0
1, 84000, Note_on_c, 0, 72, 80
1, 84000, Note_on_c, 1, 79, 0
1, 84000, Note_on_c, 1, 75, 80
1, 84060, Note_on_c, 0, 72, 0
1, 84060, Note_on_c, 0, 63, 80
1, 84120, Note_on_c, 0, 63, 0
1, 84120, Note_on_c, 0, 62, 80
1, 84180, Note_on_c, 0, 62, 0
1, 84180, Note_on_c, 0, 63, 80
1, 84240, Note_on_c, 0, 63, 0
1, 84240, Note_on_c, 0, 72, 80
1, 84240, Note_on_c, 1, 75, 0
1, 84240, Note_on_c, 1, 44, 88
1, 84240, Note_on_c, 1, 56, 88
1, 84300, Note_on_c, 0, 72, 0
1, 84300, Note_on_c, 0, 66, 80
1, 84312, Note_on_c, 1, 56, 0
1, 84312, Note_on_c, 1, 44, 0
1, 84360, Note_on_c, 0, 66, 0
1, 84360, Note_on_c, 0, 60, 48
1, 84420, Note_on_c, 0, 60, 0
1, 84420, Note_on_c, 0, 66, 48
1, 84480, Note_on_c, 0, 66, 0
1, 84480, Note_on_c, 0, 72, 48
1, 84480, Note_on_c, 1, 84, 48
1, 84540, Note_on_c, 0, 72, 0
1, 84540, Note_on_c, 0, 66, 48
1, 84600, Note_on_c, 0, 66, 0
1, 84600, Note_on_c, 0, 60, 48
1, 84660, Note_on_c, 0, 60, 0
1, 84660, Note_on_c, 0, 66, 48
1, 84720, Note_on_c, 0, 66, 0
1, 84720, Note_on_c, 0, 72, 48
1, 84720, Note_on_c, 1, 84, 0
1, 84720, Note_on_c, 1, 87, 48
1, 84780, Note_on_c, 0, 72, 0
1, 84780, Note_on_c, 0, 66, 48
1, 84840, Note_on_c, 0, 66, 0
1, 84840, Note_on_c, 0, 60, 48
1, 84900, Note_on_c, 0, 60, 0
1, 84900, Note_on_c, 0, 66, 48
1, 84960, Note_on_c, 0, 66, 0
1, 84960, Note_on_c, 0, 72, 48
1, 84960, Note_on_c, 1, 87, 0
1, 84960, Note_on_c, 1, 87, 48
1, 85020, Note_on_c, 0, 72, 0
1, 85020, Note_on_c, 0, 66, 51
1, 85080, Note_on_c, 0, 66, 0
1, 85080, Note_on_c, 0, 60, 53
1, 85140, Note_on_c, 0, 60, 0
1, 85140, Note_on_c, 0, 66, 56
1, 85200, Note_on_c, 0, 66, 0
1, 85200, Note_on_c, 0, 72, 59
1, 85200, Note_on_c, 1, 87, 0
1, 85200, Note_on_c, 1, 86, 59
1, 85260, Note_on_c, 0, 72, 0
1, 85260, Note_on_c, 0, 66, 61
1, 85320, Note_on_c, 0, 66, 0
1, 85320, Note_on_c, 0, 60, 64
1, 85380, Note_on_c, 0, 60, 0
1, 85380, Note_on_c, 0, 66, 67
1, 85440, Note_on_c, 0, 66, 0
1, 85440, Note_on_c, 0, 72, 69
1, 85440, Note_on_c, 1, 86, 0
1, 85440, Note_on_c, 1, 84, 69
1, 85500, Note_on_c, 0, 72, 0
1, 85500, Note_on_c, 0, 66, 72
1, 85560, Note_on_c, 0, 66, 0
1, 85560, Note_on_c, 0, 60, 75
1, 85620, Note_on_c, 0, 60, 0
1, 85620, Note_on_c, 0, 66, 77
1, 85680, Note_on_c, 0, 66, 0
1, 85680, Note_on_c, 0, 67, 80
1, 85680, Note_on_c, 1, 84, 0
1, 85680, Note_on_c, 1, 83, 80
1, 85740, Note_on_c, 0, 67, 0
1, 85740, Note_on_c, 0, 71, 80
1, 85800, Note_on_c, 0, 71, 0
1, 85800, Note_on_c, 0, 67, 80
1, 85860, Note_on_c, 0, 67, 0
1, 85860, Note_on_c, 0, 62, 80
1, 85920, Note_on_c, 0, 62, 0
1, 85920, Note_on_c, 0, 59, 80
1, 85920, Note_on_c, 1, 83, 0
1, 85980, Note_on_c, 0, 59, 0
1, 85980, Note_on_c, 1, 55, 80
1, 86040, Note_on_c, 1, 55, 0
1, 86040, Note_on_c, 1, 50, 80
1, 86100, Note_on_c, 1, 50, 0
1, 86100, Note_on_c, 1, 47, 80
1, 86160, Note_on_c, 1, 47, 0
1, 86160, Note_on_c, 1, 43, 88
1, 86328, Note_on_c, 1, 43, 0
1, 86880, Note_on_c, 0, 60, 48
1, 86952, Note_on_c, 0, 60, 0
1, 87120, Note_on_c, 0, 65, 48
1, 87120, Note_on_c, 1, 48, 48
1, 87120, Note_on_c, 1, 51, 48
1, 87180, Note_on_c, 0, 65, 0
1, 87180, Note_on_c, 0, 63, 48
1, 87192, Note_on_c, 1, 51, 0
1, 87192, Note_on_c, 1, 48, 0
1, 87240, Note_on_c, 0, 63, 0
1, 87240, Note_on_c, 0, 62, 48
1, 87300, Note_on_c, 0, 62, 0
1, 87300, Note_on_c, 0, 60, 48
1, 87360, Note_on_c, 0, 60, 0
1, 87360, Note_on_c, 0, 59, 48
1, 87360, Note_on_c, 1, 50, 48
1, 87360, Note_on_c, 1, 53, 48
1, 87432, Note_on_c, 0, 59, 0
1, 87432, Note_on_c, 1, 53, 0
1, 87432, Note_on_c, 1, 50, 0
1, 87600, Note_on_c, 0, 62, 48
1, 87672, Note_on_c, 0, 62, 0
1, 87840, Note_on_c, 0, 67, 48
1, 87840, Note_on_c, 1, 50, 48
1, 87840, Note_on_c, 1, 53, 48
1, 87900, Note_on_c, 0, 67, 0
1, 87900, Note_on_c, 0, 65, 48
1, 87912, Note_on_c, 1, 53, 0
1, 87912, Note_on_c, 1, 50, 0
1, 87960, Note_on_c, 0, 65, 0
1, 87960, Note_on_c, 0, 63, 48
1, 88020, Note_on_c, 0, 63, 0
1, 88020, Note_on_c, 0, 62, 48
1, 88080, Note_on_c, 0, 62, 0
1, 88080, Note_on_c, 0, 60, 48
1, 88080, Note_on_c, 1, 51, 48
1, 88080, Note_on_c, 1, 55, 48
1, 88152, Note_on_c, 0, 60, 0
1, 88152, Note_on_c, 1, 55, 0
1, 88152, Note_on_c, 1, 51, 0
1, 88320, Note_on_c, 0, 72, 52
1, 88380, Note_on_c, 0, 72, 0
1, 88380, Note_on_c, 0, 73, 59
1, 88440, Note_on_c, 0, 73, 0
1, 88440, Note_on_c, 0, 74, 66
1, 88500, Note_on_c, 0, 74, 0
1, 88500, Note_on_c, 0, 75, 73
1, 88560, Note_on_c, 0, 75, 0
1, 88560, Note_on_c, 0, 72, 80
1, 88800, Note_on_c, 0, 72, 0
1, 88800, Note_on_c, 0, 71, 64
1, 88800, Note_on_c, 1, 62, 64
1, 88800, Note_on_c, 1, 65, 64
1, 88968, Note_on_c, 0, 71, 0
1, 88968, Note_on_c, 1, 65, 0
1, 88968, Note_on_c, 1, 62, 0
1, 89040, Note_on_c, 0, 74, 48
1, 89100, Note_on_c, 0, 74, 0
1, 89100, Note_on_c, 0, 75, 48
1, 89160, Note_on_c, 0, 75, 0
1, 89160, Note_on_c, 0, 76, 48
1, 89220, Note_on_c, 0, 76, 0
1, 89220, Note_on_c, 0, 77, 48
1, 89280, Note_on_c, 0, 77, 0
1, 89280, Note_on_c, 0, 74, 80
1, 89520, Note_on_c, 0, 74, 0
1, 89520, Note_on_c, 0, 72, 64
1, 89520, Note_on_c, 1, 63, 64
1, 89520, Note_on_c, 1, 67, 64
1, 89688, Note_on_c, 0, 72, 0
1, 89688, Note_on_c, 1, 67, 0
1, 89688, Note_on_c, 1, 63, 0
1, 89760, Note_on_c, 0, 79, 80
1, 89760, Note_on_c, 1, 63, 80
1, 89760, Note_on_c, 1, 67, 80
1, 89880, Note_on_c, 0, 79, 0
1, 89880, Note_on_c, 0, 84, 80
1, 90000, Note_on_c, 1, 67, 0
1, 90000, Note_on_c, 1, 63, 0
1, 90000, Note_on_c, 1, 62, 80
1, 90000, Note_on_c, 1, 65, 80
1, 90120, Note_on_c, 0, 84, 0
1, 90120, Note_on_c, 0, 82, 77
1, 90240, Note_on_c, 1, 65, 0
1, 90240, Note_on_c, 1, 62, 0
1, 90240, Note_on_c, 1, 60, 75
1, 90240, Note_on_c, 1, 63, 75
1, 90360, Note_on_c, 0, 82, 0
1, 90360, Note_on_c, 0, 80, 72
1, 90480, Note_on_c, 1, 63, 0
1, 90480, Note_on_c, 1, 60, 0
1, 90480, Note_on_c, 1, 58, 69
1, 90480, Note_on_c, 1, 62, 69
1, 90600, Note_on_c, 0, 80, 0
1, 90600, Note_on_c, 0, 79, 67
1, 90720, Note_on_c, 1, 62, 0
1, 90720, Note_on_c, 1, 58, 0
1, 90720, Note_on_c, 1, 56, 64
1, 90720, Note_on_c, 1, 60, 64
1, 90840, Note_on_c, 0, 79, 0
1, 90840, Note_on_c, 0, 77, 61
1, 90960, Note_on_c, 1, 60, 0
1, 90960, Note_on_c, 1, 56, 0
1, 90960, Note_on_c, 1, 55, 59
1, 90960, Note_on_c, 1, 58, 59
1, 91080, Note_on_c, 0, 77, 0
1, 91080, Note_on_c, 0, 75, 56
1, 91200, Note_on_c, 1, 58, 0
1, 91200, Note_on_c, 1, 55, 0
1, 91200, Note_on_c, 1, 53, 53
1, 91200, Note_on_c, 1, 56, 53
1, 91320, Note_on_c, 0, 75, 0
1, 91320, Note_on_c, 0, 74, 51
1, 91440, Note_on_c, 1, 56, 0
1, 91440, Note_on_c, 1, 53, 0
1, 91440, Note_on_c, 1, 51, 48
1, 91440, Note_on_c, 1, 55, 48
1, 91560, Note_on_c, 0, 74, 0
1, 91560, Note_on_c, 0, 72, 51
1, 91680, Note_on_c, 1, 55, 0
1, 91680, Note_on_c, 1, 51, 0
1, 91680, Note_on_c, 1, 50, 53
1, 91680, Note_on_c, 1, 53, 53
1, 91800, Note_on_c, 0, 72, 0
1, 91800, Note_on_c, 0, 71, 56
1, 91920, Note_on_c, 1, 53, 0
1, 91920, Note_on_c, 1, 50, 0
1, 91920, Note_on_c, 1, 48, 59
1, 91920, Note_on_c, 1, 51, 59
1, 92040, Note_on_c, 0, 71, 0
1, 92040, Note_on_c, 0, 68, 61
1, 92160, Note_on_c, 1, 51, 0
1, 92160, Note_on_c, 1, 48, 0
1, 92160, Note_on_c, 1, 47, 64
1, 92160, Note_on_c, 1, 50, 64
1, 92280, Note_on_c, 0, 68, 0
1, 92280, Note_on_c, 0, 67, 67
1, 92400, Note_on_c, 1, 50, 0
1, 92400, Note_on_c, 1, 47, 0
1, 92400, Note_on_c, 1, 62, 69
1, 92400, Note_on_c, 1, 59, 69
1, 92520, Note_on_c, 0, 67, 0
1, 92520, Note_on_c, 0, 65, 72
1, 92640, Note_on_c, 0, 65, 0
1, 92640, Note_on_c, 0, 63, 75
1, 92640, Note_on_c, 1, 59, 0
1, 92640, Note_on_c, 1, 62, 0
1, 92676, Note_on_c, 0, 63, 0
1, 92760, Note_on_c, 0, 62, 77
1, 92796, Note_on_c, 0, 62, 0
1, 92880, Note_on_c, 0, 60, 80
1, 92880, Note_on_c, 1, 56, 80
1, 92940, Note_on_c, 0, 60, 0
1, 92940, Note_on_c, 0, 59, 80
1, 92952, Note_on_c, 1, 56, 0
1, 93000, Note_on_c, 0, 59, 0
1, 93000, Note_on_c, 0, 60, 80
1, 93060, Note_on_c, 0, 60, 0
1, 93060, Note_on_c, 0, 65, 80
1, 93120, Note_on_c, 0, 65, 0
1, 93120, Note_on_c, 0, 60, 80
1, 93120, Note_on_c, 1, 55, 80
1, 93180, Note_on_c, 0, 60, 0
1, 93180, Note_on_c, 0, 59, 80
1, 93192, Note_on_c, 1, 55, 0
1, 93240, Note_on_c, 0, 59, 0
1, 93240, Note_on_c, 0, 60, 80
1, 93300, Note_on_c, 0, 60, 0
1, 93300, Note_on_c, 0, 63, 80
1, 93360, Note_on_c, 0, 63, 0
1, 93360, Note_on_c, 0, 60, 80
1, 93360, Note_on_c, 1, 53, 80
1, 93420, Note_on_c, 0, 60, 0
1, 93420, Note_on_c, 0, 59, 80
1, 93432, Note_on_c, 1, 53, 0
1, 93480, Note_on_c, 0, 59, 0
1, 93480, Note_on_c, 0, 60, 80
1, 93540, Note_on_c, 0, 60, 0
1, 93540, Note_on_c, 0, 68, 80
1, 93600, Note_on_c, 0, 68, 0
1, 93600, Note_on_c, 0, 60, 80
1, 93600, Note_on_c, 1, 51, 80
1, 93660, Note_on_c, 0, 60, 0
1, 93660, Note_on_c, 0, 59, 80
1, 93672, Note_on_c, 1, 51, 0
1, 93720, Note_on_c, 0, 59, 0
1, 93720, Note_on_c, 0, 60, 80
1, 93780, Note_on_c, 0, 60, 0
1, 93780, Note_on_c, 0, 67, 80
1, 93840, Note_on_c, 0, 67, 0
1, 93840, Note_on_c, 0, 60, 80
1, 93840, Note_on_c, 1, 50, 80
1, 93900, Note_on_c, 0, 60, 0
1, 93900, Note_on_c, 0, 59, 80
1, 93912, Note_on_c, 1, 50, 0
1, 93960, Note_on_c, 0, 59, 0
1, 93960, Note_on_c, 0, 60, 80
1, 94020, Note_on_c, 0, 60, 0
1, 94020, Note_on_c, 0, 65, 80
1, 94080, Note_on_c, 0, 65, 0
1, 94080, Note_on_c, 0, 60, 80
1, 94080, Note_on_c, 1, 48, 80
1, 94140, Note_on_c, 0, 60, 0
1, 94140, Note_on_c, 0, 59, 80
1, 94152, Note_on_c, 1, 48, 0
1, 94200, Note_on_c, 0, 59, 0
1, 94200, Note_on_c, 0, 60, 80
1, 94260, Note_on_c, 0, 60, 0
1, 94260, Note_on_c, 0, 63, 80
1, 94320, Note_on_c, 0, 63, 0
1, 94320, Note_on_c, 0, 60, 48
1, 94320, Note_on_c, 1, 68, 48
1, 94380, Note_on_c, 0, 60, 0
1, 94380, Note_on_c, 0, 59, 48
1, 94440, Note_on_c, 0, 59, 0
1, 94440, Note_on_c, 0, 60, 48
1, 94500, Note_on_c, 0, 60, 0
1, 94500, Note_on_c, 0, 65, 48
1, 94560, Note_on_c, 0, 65, 0
1, 94560, Note_on_c, 0, 60, 48
1, 94560, Note_on_c, 1, 68, 0
1, 94560, Note_on_c, 1, 67, 48
1, 94620, Note_on_c, 0, 60, 0
1, 94620, Note_on_c, 0, 59, 48
1, 94680, Note_on_c, 0, 59, 0
1, 94680, Note_on_c, 0, 60, 48
1, 94740, Note_on_c, 0, 60, 0
1, 94740, Note_on_c, 0, 63, 48
1, 94800, Note_on_c, 0, 63, 0
1, 94800, Note_on_c, 0, 60, 48
1, 94800, Note_on_c, 1, 67, 0
1, 94800, Note_on_c, 1, 72, 48
1, 94860, Note_on_c, 0, 60, 0
1, 94860, Note_on_c, 0, 59, 48
1, 94920, Note_on_c, 0, 59, 0
1, 94920, Note_on_c, 0, 60, 48
1, 94980, Note_on_c, 0, 60, 0
1, 94980, Note_on_c, 0, 68, 48
1, 95040, Note_on_c, 0, 68, 0
1, 95040, Note_on_c, 0, 60, 48
1, 95040, Note_on_c, 1, 72, 0
1, 95040, Note_on_c, 1, 70, 48
1, 95100, Note_on_c, 0, 60, 0
1, 95100, Note_on_c, 0, 59, 48
1, 95160, Note_on_c, 0, 59, 0
1, 95160, Note_on_c, 0, 60, 48
1, 95220, Note_on_c, 0, 60, 0
1, 95220, Note_on_c, 0, 67, 48
1, 95280, Note_on_c, 0, 67, 0
1, 95280, Note_on_c, 0, 60, 48
1, 95280, Note_on_c, 1, 70, 0
1, 95280, Note_on_c, 1, 68, 48
1, 95340, Note_on_c, 0, 60, 0
1, 95340, Note_on_c, 0, 59, 48
1, 95400, Note_on_c, 0, 59, 0
1, 95400, Note_on_c, 0, 60, 48
1, 95460, Note_on_c, 0, 60, 0
1, 95460, Note_on_c, 0, 65, 48
1, 95520, Note_on_c, 0, 65, 0
1, 95520, Note_on_c, 0, 60, 48
1, 95520, Note_on_c, 1, 68, 0
1, 95520, Note_on_c, 1, 67, 48
1, 95580, Note_on_c, 0, 60, 0
1, 95580, Note_on_c, 0, 59, 48
1, 95640, Note_on_c, 0, 59, 0
1, 95640, Note_on_c, 0, 60, 48
1, 95700, Note_on_c, 0, 60, 0
1, 95700, Note_on_c, 0, 63, 48
1, 95760, Note_on_c, 0, 63, 0
1, 95760, Note_on_c, 0, 60, 80
1, 95760, Note_on_c, 1, 67, 0
1, 95760, Note_on_c, 1, 42, 88
1, 95820, Note_on_c, 0, 60, 0
1, 95820, Note_on_c, 0, 59, 80
1, 95832, Note_on_c, 1, 42, 0
1, 95880, Note_on_c, 0, 59, 0
1, 95880, Note_on_c, 0, 60, 80
1, 95940, Note_on_c, 0, 60, 0
1, 95940, Note_on_c, 0, 63, 80
1, 96000, Note_on_c, 0, 63, 0
1, 96000, Note_on_c, 0, 60, 80
1, 96000, Note_on_c, 1, 54, 80
1, 96060, Note_on_c, 0, 60, 0
1, 96060, Note_on_c, 0, 59, 80
1, 96072, Note_on_c, 1, 54, 0
1, 96120, Note_on_c, 0, 59, 0
1, 96120, Note_on_c, 0, 60, 80
1, 96180, Note_on_c, 0, 60, 0
1, 96180, Note_on_c, 0, 63, 80
1, 96240, Note_on_c, 0, 63, 0
1, 96240, Note_on_c, 0, 60, 80
1, 96300, Note_on_c, 0, 60, 0
1, 96300, Note_on_c, 0, 59, 80
1, 96360, Note_on_c, 0, 59, 0
1, 96360, Note_on_c, 0, 60, 80
1, 96420, Note_on_c, 0, 60, 0
1, 96420, Note_on_c, 0, 63, 80
1, 96480, Note_on_c, 0, 63, 0
1, 96480, Note_on_c, 0, 59, 80
1, 96480, Note_on_c, 1, 41, 88
1, 96540, Note_on_c, 0, 59, 0
1, 96540, Note_on_c, 0, 62, 80
1, 96552, Note_on_c, 1, 41, 0
1, 96600, Note_on_c, 0, 62, 0
1, 96600, Note_on_c, 0, 65, 80
1, 96660, Note_on_c, 0, 65, 0
1, 96660, Note_on_c, 0, 68, 80
1, 96720, Note_on_c, 0, 68, 0
1, 96720, Note_on_c, 0, 67, 80
1, 96720, Note_on_c, 1, 53, 80
1, 96780, Note_on_c, 0, 67, 0
1, 96780, Note_on_c, 0, 65, 80
1, 96792, Note_on_c, 1, 53, 0
1, 96840, Note_on_c, 0, 65, 0
1, 96840, Note_on_c, 0, 63, 80
1, 96900, Note_on_c, 0, 63, 0
1, 96900, Note_on_c, 0, 62, 80
1, 96960, Note_on_c, 0, 62, 0
1, 96960, Note_on_c, 0, 60, 80
1, 97020, Note_on_c, 0, 60, 0
1, 97020, Note_on_c, 0, 59, 80
1, 97080, Note_on_c, 0, 59, 0
1, 97080, Note_on_c, 0, 57, 80
1, 97140, Note_on_c, 0, 57, 0
1, 97140, Note_on_c, 0, 55, 80
1, 97200, Note_on_c, 0, 55, 0
1, 97200, Note_on_c, 1, 51, 80
1, 97320, Note_on_c, 0, 60, 80
1, 97356, Note_on_c, 0, 60, 0
1, 97440, Note_on_c, 0, 63, 80
1, 97440, Note_on_c, 1, 51, 0
1, 97476, Note_on_c, 0, 63, 0
1, 97560, Note_on_c, 0, 67, 80
1, 97596, Note_on_c, 0, 67, 0
1, 97680, Note_on_c, 0, 72, 80
1, 97716, Note_on_c, 0, 72, 0
1, 97800, Note_on_c, 0, 79, 48
1, 97800, Note_on_c, 0, 75, 48
1, 97800, Note_on_c, 1, 48, 48
1, 97920, Note_on_c, 1, 48, 0
1, 97920, Note_on_c, 1, 53, 48
1, 98040, Note_on_c, 0, 75, 0
1, 98040, Note_on_c, 0, 79, 0
1, 98040, Note_on_c, 0, 74, 48
1, 98040, Note_on_c, 0, 77, 48
1, 98160, Note_on_c, 1, 53, 0
1, 98160, Note_on_c, 1, 55, 48
1, 98280, Note_on_c, 0, 77, 0
1, 98280, Note_on_c, 0, 74, 0
1, 98280, Note_on_c, 0, 72, 48
1, 98280, Note_on_c, 0, 75, 48
1, 98400, Note_on_c, 1, 55, 0
1, 98400, Note_on_c, 1, 43, 48
1, 98520, Note_on_c, 0, 75, 0
1, 98520, Note_on_c, 0, 72, 0
1, 98520, Note_on_c, 0, 71, 48
1, 98520, Note_on_c, 0, 74, 48
1, 98556, Note_on_c, 0, 74, 0
1, 98556, Note_on_c, 0, 71, 0
1, 98640, Note_on_c, 0, 72, 80
1, 98640, Note_on_c, 1, 43, 0
1, 98640, Note_on_c, 1, 44, 80
1, 98676, Note_on_c, 1, 44, 0
1, 98700, Note_on_c, 0, 72, 0
1, 98700, Note_on_c, 0, 65, 80
1, 98760, Note_on_c, 0, 65, 0
1, 98760, Note_on_c, 0, 64, 80
1, 98760, Note_on_c, 1, 56, 80
1, 98796, Note_on_c, 1, 56, 0
1, 98820, Note_on_c, 0, 64, 0
1, 98820, Note_on_c, 0, 65, 80
1, 98880, Note_on_c, 0, 65, 0
1, 98880, Note_on_c, 0, 70, 80
1, 98880, Note_on_c, 1, 43, 80
1, 98916, Note_on_c, 1, 43, 0
1, 98940, Note_on_c, 0, 70, 0
1, 98940, Note_on_c, 0, 63, 80
1, 99000, Note_on_c, 0, 63, 0
1, 99000, Note_on_c, 0, 62, 80
1, 99000, Note_on_c, 1, 55, 80
1, 99036, Note_on_c, 1, 55, 0
1, 99060, Note_on_c, 0, 62, 0
1, 99060, Note_on_c, 0, 63, 80
1, 99120, Note_on_c, 0, 63, 0
1, 99120, Note_on_c, 0, 68, 80
1, 99120, Note_on_c, 1, 41, 80
1, 99156, Note_on_c, 1, 41, 0
1, 99180, Note_on_c, 0, 68, 0
1, 99180, Note_on_c, 0, 62, 80
1, 99240, Note_on_c, 0, 62, 0
1, 99240, Note_on_c, 0, 61, 80
1, 99240, Note_on_c, 1, 53, 80
1, 99276, Note_on_c, 1, 53, 0
1, 99300, Note_on_c, 0, 61, 0
1, 99300, Note_on_c, 0, 62, 80
1, 99360, Note_on_c, 0, 62, 0
1, 99360, Note_on_c, 0, 67, 80
1, 99360, Note_on_c, 1, 39, 80
1, 99396, Note_on_c, 1, 39, 0
1, 99420, Note_on_c, 0, 67, 0
1, 99420, Note_on_c, 0, 60, 80
1, 99480, Note_on_c, 0, 60, 0
1, 99480, Note_on_c, 0, 59, 80
1, 99480, Note_on_c, 1, 51, 80
1, 99516, Note_on_c, 1, 51, 0
1, 99540, Note_on_c, 0, 59, 0
1, 99540, Note_on_c, 0, 60, 80
1, 99600, Note_on_c, 0, 60, 0
1, 99600, Note_on_c, 0, 65, 80
1, 99600, Note_on_c, 1, 38, 80
1, 99636, Note_on_c, 1, 38, 0
1, 99660, Note_on_c, 0, 65, 0
1, 99660, Note_on_c, 0, 59, 80
1, 99720, Note_on_c, 0, 59, 0
1, 99720, Note_on_c, 0, 57, 80
1, 99720, Note_on_c, 1, 50, 80
1, 99756, Note_on_c, 1, 50, 0
1, 99780, Note_on_c, 0, 57, 0
1, 99780, Note_on_c, 0, 59, 80
1, 99840, Note_on_c, 0, 59, 0
1, 99840, Note_on_c, 0, 63, 80
1, 99840, Note_on_c, 1, 36, 80
1, 99876, Note_on_c, 1, 36, 0
1, 99900, Note_on_c, 0, 63, 0
1, 99900, Note_on_c, 0, 60, 80
1, 99960, Note_on_c, 0, 60, 0
1, 99960, Note_on_c, 0, 59, 80
1, 99960, Note_on_c, 1, 48, 80
1, 99996, Note_on_c, 1, 48, 0
1, 100020, Note_on_c, 0, 59, 0
1, 100020, Note_on_c, 0, 60, 80
1, 100080, Note_on_c, 0, 60, 0
1, 100080, Note_on_c, 1, 41, 80
1, 100200, Note_on_c, 0, 61, 80
1, 100320, Note_on_c, 0, 61, 0
1, 100320, Note_on_c, 0, 56, 80
1, 100320, Note_on_c, 1, 41, 0
1, 100440, Note_on_c, 0, 56, 0
1, 100440, Note_on_c, 0, 65, 80
1, 100476, Note_on_c, 0, 65, 0
1, 100560, Note_on_c, 0, 61, 80
1, 100596, Note_on_c, 0, 61, 0
1, 100680, Note_on_c, 0, 68, 80
1, 100716, Note_on_c, 0, 68, 0
1, 100800, Note_on_c, 0, 65, 80
1, 100920, Note_on_c, 0, 65, 0
1, 100920, Note_on_c, 0, 73, 80
1, 101040, Note_on_c, 0, 73, 0
1, 101040, Note_on_c, 0, 68, 80
1, 101160, Note_on_c, 0, 68, 0
1, 101160, Note_on_c, 0, 77, 80
1, 101196, Note_on_c, 0, 77, 0
1, 101280, Note_on_c, 0, 75, 80
1, 101316, Note_on_c, 0, 75, 0
1, 101400, Note_on_c, 0, 73, 80
1, 101436, Note_on_c, 0, 73, 0
1, 101520, Note_on_c, 0, 72, 80
1, 101640, Note_on_c, 0, 72, 0
1, 101640, Note_on_c, 0, 73, 80
1, 101760, Note_on_c, 0, 73, 0
1, 101760, Note_on_c, 0, 68, 80
1, 101880, Note_on_c, 0, 68, 0
1, 101880, Note_on_c, 0, 66, 80
1, 101916, Note_on_c, 0, 66, 0
1, 102000, Note_on_c, 0, 65, 80
1, 102036, Note_on_c, 0, 65, 0
1, 102120, Note_on_c, 0, 63, 80
1, 102156, Note_on_c, 0, 63, 0
1, 102240, Note_on_c, 0, 61, 80
1, 102360, Note_on_c, 0, 61, 0
1, 102360, Note_on_c, 0, 60, 75
1, 102480, Note_on_c, 0, 60, 0
1, 102480, Note_on_c, 0, 61, 69
1, 102600, Note_on_c, 0, 61, 0
1, 102600, Note_on_c, 0, 65, 64
1, 102720, Note_on_c, 0, 65, 0
1, 102720, Note_on_c, 0, 63, 59
1, 102840, Note_on_c, 0, 63, 0
1, 102840, Note_on_c, 0, 61, 53
1, 102960, Note_on_c, 0, 61, 0
1, 102960, Note_on_c, 0, 60, 48
1, 103080, Note_on_c, 1, 53, 61
1, 103080, Note_on_c, 1, 56, 61
1, 103116, Note_on_c, 1, 56, 0
1, 103116, Note_on_c, 1, 53, 0
1, 103200, Note_on_c, 1, 53, 59
1, 103200, Note_on_c, 1, 56, 59
1, 103236, Note_on_c, 1, 56, 0
1, 103236, Note_on_c, 1, 53, 0
1, 103320, Note_on_c, 1, 53, 56
1, 103320, Note_on_c, 1, 56, 56
1, 103356, Note_on_c, 1, 56, 0
1, 103356, Note_on_c, 1, 53, 0
1, 103440, Note_on_c, 0, 60, 0
1, 103440, Note_on_c, 0, 59, 48
1, 103440, Note_on_c, 1, 53, 53
1, 103440, Note_on_c, 1, 56, 53
1, 103476, Note_on_c, 1, 56, 0
1, 103476, Note_on_c, 1, 53, 0
1, 103560, Note_on_c, 1, 53, 51
1, 103560, Note_on_c, 1, 56, 51
1, 103596, Note_on_c, 1, 56, 0
1, 103596, Note_on_c, 1, 53, 0
1, 103680, Note_on_c, 0, 59, 0
1, 103680, Note_on_c, 0, 60, 48
1, 103680, Note_on_c, 0, 63, 48
1, 103800, Note_on_c, 1, 42, 48
1, 103920, Note_on_c, 1, 42, 0
1, 103920, Note_on_c, 1, 43, 48
1, 104040, Note_on_c, 1, 43, 0
1, 104040, Note_on_c, 1, 42, 48
1, 104160, Note_on_c, 1, 42, 0
1, 104160, Note_on_c, 1, 43, 48
1, 104280, Note_on_c, 1, 43, 0
1, 104280, Note_on_c, 1, 42, 48
1, 104400, Note_on_c, 1, 42, 0
1, 104400, Note_on_c, 1, 43, 48
1, 104436, Note_on_c, 0, 63, 0
1, 104436, Note_on_c, 0, 60, 0
1, 104520, Note_on_c, 0, 63, 48
1, 104520, Note_on_c, 0, 67, 48
1, 104556, Note_on_c, 0, 67, 0
1, 104556, Note_on_c, 0, 63, 0
1, 104640, Note_on_c, 0, 63, 48
1, 104640, Note_on_c, 0, 67, 48
1, 104760, Note_on_c, 0, 67, 0
1, 104760, Note_on_c, 0, 63, 0
1, 104760, Note_on_c, 0, 62, 48
1, 104760, Note_on_c, 0, 65, 48
1, 104880, Note_on_c, 0, 65, 0
1, 104880, Note_on_c, 0, 62, 0
1, 104880, Note_on_c, 0, 60, 48
1, 104880, Note_on_c, 0, 63, 48
1, 105000, Note_on_c, 0, 63, 0
1, 105000, Note_on_c, 0, 60, 0
1, 105000, Note_on_c, 0, 59, 48
1, 105000, Note_on_c, 0, 62, 48
1, 105120, Note_on_c, 0, 62, 0
1, 105120, Note_on_c, 0, 59, 0
1, 105120, Note_on_c, 0, 60, 48
1, 105120, Note_on_c, 1, 43, 0
1, 105120, Note_on_c, 1, 48, 48
1, 105240, Note_on_c, 0, 55, 51
1, 105240, Note_on_c, 1, 52, 51
1, 105360, Note_on_c, 0, 55, 0
1, 105360, Note_on_c, 0, 56, 53
1, 105360, Note_on_c, 1, 52, 0
1, 105360, Note_on_c, 1, 53, 53
1, 105480, Note_on_c, 0, 56, 0
1, 105480, Note_on_c, 0, 55, 56
1, 105480, Note_on_c, 1, 53, 0
1, 105480, Note_on_c, 1, 52, 56
1, 105600, Note_on_c, 0, 55, 0
1, 105600, Note_on_c, 0, 56, 59
1, 105600, Note_on_c, 1, 52, 0
1, 105600, Note_on_c, 1, 53, 59
1, 105720, Note_on_c, 0, 56, 0
1, 105720, Note_on_c, 0, 55, 61
1, 105720, Note_on_c, 1, 53, 0
1, 105720, Note_on_c, 1, 52, 61
1, 105840, Note_on_c, 0, 55, 0
1, 105840, Note_on_c, 0, 56, 64
1, 105840, Note_on_c, 1, 52, 0
1, 105840, Note_on_c, 1, 53, 64
1, 105912, Note_on_c, 0, 56, 0
1, 105912, Note_on_c, 1, 53, 0
1, 105960, Note_on_c, 0, 59, 67
1, 105960, Note_on_c, 1, 55, 67
1, 106080, Note_on_c, 0, 59, 0
1, 106080, Note_on_c, 0, 60, 69
1, 106080, Note_on_c, 1, 55, 0
1, 106080, Note_on_c, 1, 56, 69
1, 106200, Note_on_c, 0, 60, 0
1, 106200, Note_on_c, 0, 59, 72
1, 106200, Note_on_c, 1, 56, 0
1, 106200, Note_on_c, 1, 55, 72
1, 106320, Note_on_c, 0, 59, 0
1, 106320, Note_on_c, 0, 60, 75
1, 106320, Note_on_c, 1, 55, 0
1, 106320, Note_on_c, 1, 56, 75
1, 106440, Note_on_c, 0, 60, 0
1, 106440, Note_on_c, 0, 59, 77
1, 106440, Note_on_c, 1, 56, 0
1, 106440, Note_on_c, 1, 55, 77
1, 106560, Note_on_c, 0, 59, 0
1, 106560, Note_on_c, 0, 60, 80
1, 106560, Note_on_c, 1, 55, 0
1, 106560, Note_on_c, 1, 56, 80
1, 106632, Note_on_c, 0, 60, 0
1, 106632, Note_on_c, 1, 56, 0
1, 106680, Note_on_c, 0, 57, 77
1, 106680, Note_on_c, 1, 54, 77
1, 106800, Note_on_c, 0, 57, 0
1, 106800, Note_on_c, 0, 58, 75
1, 106800, Note_on_c, 1, 54, 0
1, 106800, Note_on_c, 1, 55, 75
1, 106920, Note_on_c, 0, 58, 0
1, 106920, Note_on_c, 0, 57, 72
1, 106920, Note_on_c, 1, 55, 0
1, 106920, Note_on_c, 1, 54, 72
1, 107040, Note_on_c, 0, 57, 0
1, 107040, Note_on_c, 0, 58, 69
1, 107040, Note_on_c, 1, 54, 0
1, 107040, Note_on_c, 1, 55, 69
1, 107160, Note_on_c, 0, 58, 0
1, 107160, Note_on_c, 0, 57, 67
1, 107160, Note_on_c, 1, 55, 0
1, 107160, Note_on_c, 1, 54, 67
1, 107280, Note_on_c, 0, 57, 0
1, 107280, Note_on_c, 0, 58, 64
1, 107280, Note_on_c, 1, 54, 0
1, 107280, Note_on_c, 1, 55, 64
1, 107352, Note_on_c, 0, 58, 0
1, 107352, Note_on_c, 1, 55, 0
1, 107400, Note_on_c, 0, 55, 61
1, 107400, Note_on_c, 1, 52, 61
1, 107520, Note_on_c, 0, 55, 0
1, 107520, Note_on_c, 0, 56, 59
1, 107520, Note_on_c, 1, 52, 0
1, 107520, Note_on_c, 1, 53, 59
1, 107640, Note_on_c, 0, 56, 0
1, 107640, Note_on_c, 0, 55, 56
1, 107640, Note_on_c, 1, 53, 0
1, 107640, Note_on_c, 1, 52, 56
1, 107760, Note_on_c, 0, 55, 0
1, 107760, Note_on_c, 0, 56, 53
1, 107760, Note_on_c, 1, 52, 0
1, 107760, Note_on_c, 1, 53, 53
1, 107880, Note_on_c, 0, 56, 0
1, 107880, Note_on_c, 0, 55, 51
1, 107880, Note_on_c, 1, 53, 0
1, 107880, Note_on_c, 1, 52, 51
1, 108000, Note_on_c, 0, 55, 0
1, 108000, Note_on_c, 0, 56, 48
1, 108000, Note_on_c, 1, 52, 0
1, 108000, Note_on_c, 1, 53, 48
1, 108072, Note_on_c, 0, 56, 0
1, 108072, Note_on_c, 1, 53, 0
1, 108120, Note_on_c, 0, 60, 0
1, 108120, Note_on_c, 0, 65, 80
1, 108120, Note_on_c, 1, 56, 80
1, 108240, Note_on_c, 0, 65, 0
1, 108240, Note_on_c, 0, 63, 80
1, 108240, Note_on_c, 1, 56, 0
1, 108240, Note_on_c, 1, 48, 0
1, 108240, Note_on_c, 1, 55, 80
1, 108360, Note_on_c, 0, 63, 0
1, 108360, Note_on_c, 0, 62, 80
1, 108360, Note_on_c, 1, 55, 0
1, 108360, Note_on_c, 1, 53, 80
1, 108480, Note_on_c, 0, 62, 0
1, 108480, Note_on_c, 0, 60, 80
1, 108480, Note_on_c, 1, 53, 0
1, 108480, Note_on_c, 1, 51, 80
1, 108600, Note_on_c, 0, 60, 0
1, 108600, Note_on_c, 0, 59, 80
1, 108600, Note_on_c, 1, 51, 0
1, 108600, Note_on_c, 1, 50, 80
1, 108720, Note_on_c, 0, 59, 0
1, 108720, Note_on_c, 0, 59, 80
1, 108720, Note_on_c, 1, 50, 0
1, 108720, Note_on_c, 1, 36, 80
1, 108720, Note_on_c, 1, 48, 80
1, 108720, Note_on_c, 1, 50, 80
1, 108720, Note_on_c, 1, 53, 80
1, 109440, Note_on_c, 0, 59, 0
1, 109440, Note_on_c, 0, 60, 64
1, 109440, Note_on_c, 1, 53, 0
1, 109440, Note_on_c, 1, 36, 0
1, 109440, Note_on_c, 1, 48, 0
1, 109440, Note_on_c, 1, 50, 0
1, 109440, Note_on_c, 1, 36, 64
1, 109440, Note_on_c, 1, 48, 64
1, 109440, Note_on_c, 1, 51, 64
1, 109440, Note_on_c, 1, 55, 64
1, 109680, Note_on_c, 0, 60, 0
1, 109680, Note_on_c, 1, 55, 0
1, 109680, Note_on_c, 1, 36, 0
1, 109680, Note_on_c, 1, 48, 0
1, 109680, Note_on_c, 1, 51, 0
1, 109690, End_track
0, 0, End_of_file