0, 0, Header, 0, 1, 240
1, 0, Start_track
1, 0, Tempo, 731707
1, 0, Note_on_c, 0, 80, 64
1, 0, Note_on_c, 0, 83, 64
1, 120, Note_on_c, 1, 64, 64
1, 180, Note_on_c, 1, 64, 0
1, 240, Note_on_c, 1, 71, 64
1, 360, Note_on_c, 0, 83, 0
1, 360, Note_on_c, 0, 80, 0
1, 360, Note_on_c, 0, 78, 64
1, 360, Note_on_c, 0, 81, 64
1, 420, Note_on_c, 0, 81, 0
1, 420, Note_on_c, 0, 78, 0
1, 480, Note_on_c, 0, 76, 64
1, 480, Note_on_c, 0, 80, 64
1, 600, Note_on_c, 1, 71, 0
1, 600, Note_on_c, 1, 73, 64
1, 720, Note_on_c, 0, 80, 0
1, 720, Note_on_c, 0, 78, 64
1, 720, Note_on_c, 1, 73, 0
1, 720, Note_on_c, 1, 70, 64
1, 840, Note_on_c, 0, 76, 0
1, 840, Note_on_c, 0, 75, 64
1, 840, Note_on_c, 1, 70, 0
1, 840, Note_on_c, 1, 71, 64
1, 960, Note_on_c, 0, 75, 0
1, 960, Note_on_c, 0, 78, 0
1, 960, Note_on_c, 0, 76, 64
1, 960, Note_on_c, 1, 68, 64
1, 1080, Note_on_c, 1, 68, 0
1, 1080, Note_on_c, 1, 64, 64
1, 1140, Note_on_c, 0, 76, 0
1, 1140, Note_on_c, 0, 78, 64
1, 1170, Note_on_c, 0, 78, 0
1, 1170, Note_on_c, 0, 80, 64
1, 1200, Note_on_c, 0, 80, 0
1, 1200, Note_on_c, 0, 81, 64
1, 1200, Note_on_c, 1, 64, 0
1, 1200, Note_on_c, 1, 63, 64
1, 1320, Note_on_c, 0, 81, 0
1, 1320, Note_on_c, 0, 80, 64
1, 1320, Note_on_c, 1, 63, 0
1, 1320, Note_on_c, 1, 64, 64
1, 1440, Note_on_c, 0, 80, 0
1, 1440, Note_on_c, 0, 78, 64
1, 1440, Note_on_c, 1, 64, 0
1, 1440, Note_on_c, 1, 71, 0
1, 1440, Note_on_c, 1, 69, 64
1, 1440, Note_on_c, 1, 73, 64
1, 1470, Note_on_c, 0, 78, 0
1, 1470, Note_on_c, 0, 80, 64
1, 1476, Note_on_c, 1, 73, 0
1, 1476, Note_on_c, 1, 69, 0
1, 1500, Note_on_c, 0, 80, 0
1, 1500, Note_on_c, 0, 78, 64
1, 1520, Note_on_c, 0, 78, 0
1, 1520, Note_on_c, 0, 80, 64
1, 1540, Note_on_c, 0, 80, 0
1, 1540, Note_on_c, 0, 78, 64
1, 1556, Note_on_c, 0, 78, 0
1, 1560, Note_on_c, 0, 76, 64
1, 1560, Note_on_c, 1, 68, 64
1, 1560, Note_on_c, 1, 71, 64
1, 1596, Note_on_c, 1, 71, 0
1, 1596, Note_on_c, 1, 68, 0
1, 1620, Note_on_c, 0, 76, 0
1, 1920, Note_on_c, 0, 71, 64
1, 1920, Note_on_c, 0, 68, 64
1, 2040, Note_on_c, 1, 52, 64
1, 2100, Note_on_c, 1, 52, 0
1, 2160, Note_on_c, 1, 59, 64
1, 2280, Note_on_c, 0, 68, 0
1, 2280, Note_on_c, 0, 71, 0
1, 2280, Note_on_c, 0, 69, 64
1, 2280, Note_on_c, 0, 66, 64
1, 2340, Note_on_c, 0, 66, 0
1, 2340, Note_on_c, 0, 69, 0
1, 2400, Note_on_c, 0, 68, 64
1, 2400, Note_on_c, 0, 64, 64
1, 2520, Note_on_c, 1, 59, 0
1, 2520, Note_on_c, 1, 61, 64
1, 2580, Note_on_c, 1, 61, 0
1, 2640, Note_on_c, 0, 68, 0
1, 2640, Note_on_c, 0, 66, 64
1, 2640, Note_on_c, 1, 58, 64
1, 2760, Note_on_c, 0, 64, 0
1, 2760, Note_on_c, 0, 63, 64
1, 2760, Note_on_c, 1, 58, 0
1, 2760, Note_on_c, 1, 59, 64
1, 2880, Note_on_c, 0, 63, 0
1, 2880, Note_on_c, 0, 66, 0
1, 2880, Note_on_c, 0, 64, 64
1, 2880, Note_on_c, 1, 56, 64
1, 3000, Note_on_c, 1, 56, 0
1, 3000, Note_on_c, 1, 52, 64
1, 3060, Note_on_c, 0, 64, 0
1, 3060, Note_on_c, 0, 66, 64
1, 3090, Note_on_c, 0, 66, 0
1, 3090, Note_on_c, 0, 68, 64
1, 3120, Note_on_c, 0, 68, 0
1, 3120, Note_on_c, 0, 69, 64
1, 3120, Note_on_c, 1, 52, 0
1, 3120, Note_on_c, 1, 51, 64
1, 3240, Note_on_c, 0, 69, 0
1, 3240, Note_on_c, 0, 68, 64
1, 3240, Note_on_c, 1, 51, 0
1, 3240, Note_on_c, 1, 52, 64
1, 3300, Note_on_c, 0, 68, 0
1, 3300, Note_on_c, 1, 52, 0
1, 3360, Note_on_c, 0, 64, 64
1, 3360, Note_on_c, 0, 69, 64
1, 3360, Note_on_c, 0, 73, 64
1, 3360, Note_on_c, 1, 59, 0
1, 3360, Note_on_c, 1, 45, 64
1, 3396, Note_on_c, 0, 73, 0
1, 3396, Note_on_c, 0, 69, 0
1, 3396, Note_on_c, 0, 64, 0
1, 3396, Note_on_c, 1, 45, 0
1, 3480, Note_on_c, 0, 64, 64
1, 3480, Note_on_c, 0, 68, 64
1, 3480, Note_on_c, 0, 71, 64
1, 3480, Note_on_c, 1, 52, 64
1, 3516, Note_on_c, 0, 71, 0
1, 3516, Note_on_c, 0, 68, 0
1, 3516, Note_on_c, 0, 64, 0
1, 3516, Note_on_c, 1, 52, 0
1, 3780, Note_on_c, 0, 64, 80
1, 3840, Note_on_c, 0, 64, 0
1, 3840, Note_on_c, 0, 76, 80
1, 3960, Note_on_c, 1, 32, 80
1, 3960, Note_on_c, 1, 44, 80
1, 4020, Note_on_c, 1, 44, 0
1, 4020, Note_on_c, 1, 32, 0
1, 4080, Note_on_c, 1, 32, 80
1, 4080, Note_on_c, 1, 44, 80
1, 4120, Note_on_c, 0, 76, 0
1, 4120, Note_on_c, 0, 75, 80
1, 4140, Note_on_c, 1, 44, 0
1, 4140, Note_on_c, 1, 32, 0
1, 4160, Note_on_c, 0, 75, 0
1, 4160, Note_on_c, 0, 73, 80
1, 4200, Note_on_c, 0, 73, 0
1, 4200, Note_on_c, 0, 71, 80
1, 4240, Note_on_c, 0, 71, 0
1, 4240, Note_on_c, 0, 69, 80
1, 4280, Note_on_c, 0, 69, 0
1, 4280, Note_on_c, 0, 68, 80
1, 4320, Note_on_c, 0, 68, 0
1, 4320, Note_on_c, 0, 66, 80
1, 4380, Note_on_c, 0, 66, 0
1, 4440, Note_on_c, 1, 33, 80
1, 4440, Note_on_c, 1, 45, 80
1, 4500, Note_on_c, 1, 45, 0
1, 4500, Note_on_c, 1, 33, 0
1, 4560, Note_on_c, 1, 33, 80
1, 4560, Note_on_c, 1, 45, 80
1, 4600, Note_on_c, 0, 85, 80
1, 4620, Note_on_c, 1, 45, 0
1, 4620, Note_on_c, 1, 33, 0
1, 4640, Note_on_c, 0, 85, 0
1, 4640, Note_on_c, 0, 83, 80
1, 4680, Note_on_c, 0, 83, 0
1, 4680, Note_on_c, 0, 81, 80
1, 4720, Note_on_c, 0, 81, 0
1, 4720, Note_on_c, 0, 80, 80
1, 4760, Note_on_c, 0, 80, 0
1, 4760, Note_on_c, 0, 78, 80
1, 4800, Note_on_c, 0, 78, 0
1, 4800, Note_on_c, 0, 76, 80
1, 4840, Note_on_c, 0, 76, 0
1, 4840, Note_on_c, 0, 75, 80
1, 4880, Note_on_c, 0, 75, 0
1, 4880, Note_on_c, 0, 73, 80
1, 4920, Note_on_c, 0, 73, 0
1, 4920, Note_on_c, 0, 71, 80
1, 4920, Note_on_c, 1, 35, 80
1, 4920, Note_on_c, 1, 47, 80
1, 4960, Note_on_c, 0, 71, 0
1, 4960, Note_on_c, 0, 69, 80
1, 4980, Note_on_c, 1, 47, 0
1, 4980, Note_on_c, 1, 35, 0
1, 5000, Note_on_c, 0, 69, 0
1, 5000, Note_on_c, 0, 68, 80
1, 5040, Note_on_c, 0, 68, 0
1, 5040, Note_on_c, 0, 66, 80
1, 5040, Note_on_c, 1, 35, 80
1, 5040, Note_on_c, 1, 47, 80
1, 5080, Note_on_c, 0, 66, 0
1, 5080, Note_on_c, 0, 64, 80
1, 5100, Note_on_c, 1, 47, 0
1, 5100, Note_on_c, 1, 35, 0
1, 5120, Note_on_c, 0, 64, 0
1, 5120, Note_on_c, 0, 63, 80
1, 5160, Note_on_c, 0, 63, 0
1, 5160, Note_on_c, 0, 61, 80
1, 5160, Note_on_c, 1, 35, 80
1, 5160, Note_on_c, 1, 47, 80
1, 5200, Note_on_c, 0, 61, 0
1, 5200, Note_on_c, 0, 59, 80
1, 5220, Note_on_c, 1, 47, 0
1, 5220, Note_on_c, 1, 35, 0
1, 5240, Note_on_c, 0, 59, 0
1, 5240, Note_on_c, 0, 57, 80
1, 5260, Note_on_c, 0, 57, 0
1, 5260, Note_on_c, 0, 59, 80
1, 5280, Note_on_c, 0, 59, 0
1, 5280, Note_on_c, 0, 57, 80
1, 5310, Note_on_c, 0, 57, 0
1, 5310, Note_on_c, 0, 59, 80
1, 5340, Note_on_c, 0, 59, 0
1, 5340, Note_on_c, 0, 57, 80
1, 5370, Note_on_c, 0, 57, 0
1, 5370, Note_on_c, 0, 59, 80
1, 5400, Note_on_c, 0, 59, 0
1, 5400, Note_on_c, 0, 57, 80
1, 5400, Note_on_c, 1, 40, 80
1, 5400, Note_on_c, 1, 52, 80
1, 5420, Note_on_c, 0, 57, 0
1, 5420, Note_on_c, 0, 59, 80
1, 5440, Note_on_c, 0, 59, 0
1, 5440, Note_on_c, 0, 57, 80
1, 5460, Note_on_c, 0, 57, 0
1, 5460, Note_on_c, 0, 56, 80
1, 5460, Note_on_c, 1, 52, 0
1, 5460, Note_on_c, 1, 40, 0
1, 5490, Note_on_c, 0, 56, 0
1, 5490, Note_on_c, 0, 57, 80
1, 5520, Note_on_c, 0, 57, 0
1, 5520, Note_on_c, 0, 56, 80
1, 5520, Note_on_c, 1, 40, 80
1, 5520, Note_on_c, 1, 52, 80
1, 5580, Note_on_c, 1, 52, 0
1, 5580, Note_on_c, 1, 40, 0
1, 5640, Note_on_c, 0, 56, 0
1, 5640, Note_on_c, 1, 40, 80
1, 5640, Note_on_c, 1, 52, 80
1, 5700, Note_on_c, 1, 52, 0
1, 5700, Note_on_c, 1, 40, 0
1, 5760, Note_on_c, 0, 76, 80
1, 5880, Note_on_c, 1, 44, 80
1, 5880, Note_on_c, 1, 32, 80
1, 5928, Note_on_c, 1, 32, 0
1, 5928, Note_on_c, 1, 44, 0
1, 6000, Note_on_c, 1, 44, 80
1, 6000, Note_on_c, 1, 32, 80
1, 6040, Note_on_c, 0, 76, 0
1, 6040, Note_on_c, 0, 75, 80
1, 6048, Note_on_c, 1, 32, 0
1, 6048, Note_on_c, 1, 44, 0
1, 6080, Note_on_c, 0, 75, 0
1, 6080, Note_on_c, 0, 73, 80
1, 6120, Note_on_c, 0, 73, 0
1, 6120, Note_on_c, 0, 71, 80
1, 6160, Note_on_c, 0, 71, 0
1, 6160, Note_on_c, 0, 69, 80
1, 6200, Note_on_c, 0, 69, 0
1, 6200, Note_on_c, 0, 68, 80
1, 6240, Note_on_c, 0, 68, 0
1, 6240, Note_on_c, 0, 66, 80
1, 6336, Note_on_c, 0, 66, 0
1, 6360, Note_on_c, 1, 45, 80
1, 6360, Note_on_c, 1, 33, 80
1, 6408, Note_on_c, 1, 33, 0
1, 6408, Note_on_c, 1, 45, 0
1, 6480, Note_on_c, 1, 45, 80
1, 6480, Note_on_c, 1, 33, 80
1, 6520, Note_on_c, 0, 88, 80
1, 6528, Note_on_c, 1, 33, 0
1, 6528, Note_on_c, 1, 45, 0
1, 6560, Note_on_c, 0, 88, 0
1, 6560, Note_on_c, 0, 87, 80
1, 6600, Note_on_c, 0, 87, 0
1, 6600, Note_on_c, 0, 85, 80
1, 6640, Note_on_c, 0, 85, 0
1, 6640, Note_on_c, 0, 83, 80
1, 6680, Note_on_c, 0, 83, 0
1, 6680, Note_on_c, 0, 81, 80
1, 6720, Note_on_c, 0, 81, 0
1, 6720, Note_on_c, 0, 80, 80
1, 6760, Note_on_c, 0, 80, 0
1, 6760, Note_on_c, 0, 78, 80
1, 6800, Note_on_c, 0, 78, 0
1, 6800, Note_on_c, 0, 76, 80
1, 6840, Note_on_c, 0, 76, 0
1, 6840, Note_on_c, 0, 75, 80
1, 6840, Note_on_c, 1, 47, 80
1, 6840, Note_on_c, 1, 35, 80
1, 6880, Note_on_c, 0, 75, 0
1, 6880, Note_on_c, 0, 73, 80
1, 6888, Note_on_c, 1, 35, 0
1, 6888, Note_on_c, 1, 47, 0
1, 6920, Note_on_c, 0, 73, 0
1, 6920, Note_on_c, 0, 71, 80
1, 6960, Note_on_c, 0, 71, 0
1, 6960, Note_on_c, 0, 69, 80
1, 6960, Note_on_c, 1, 47, 80
1, 6960, Note_on_c, 1, 35, 80
1, 7000, Note_on_c, 0, 69, 0
1, 7000, Note_on_c, 0, 68, 80
1, 7008, Note_on_c, 1, 35, 0
1, 7008, Note_on_c, 1, 47, 0
1, 7040, Note_on_c, 0, 68, 0
1, 7040, Note_on_c, 0, 66, 80
1, 7080, Note_on_c, 0, 66, 0
1, 7080, Note_on_c, 0, 64, 80
1, 7080, Note_on_c, 1, 47, 80
1, 7080, Note_on_c, 1, 35, 80
1, 7120, Note_on_c, 0, 64, 0
1, 7120, Note_on_c, 0, 63, 80
1, 7128, Note_on_c, 1, 35, 0
1, 7128, Note_on_c, 1, 47, 0
1, 7160, Note_on_c, 0, 63, 0
1, 7160, Note_on_c, 0, 69, 80
1, 7200, Note_on_c, 0, 69, 0
1, 7200, Note_on_c, 0, 68, 80
1, 7240, Note_on_c, 0, 68, 0
1, 7240, Note_on_c, 0, 66, 80
1, 7280, Note_on_c, 0, 66, 0
1, 7280, Note_on_c, 0, 64, 80
1, 7320, Note_on_c, 0, 64, 0
1, 7320, Note_on_c, 0, 64, 80
1, 7320, Note_on_c, 1, 52, 80
1, 7352, Note_on_c, 1, 52, 0
1, 7360, Note_on_c, 1, 47, 80
1, 7392, Note_on_c, 1, 47, 0
1, 7400, Note_on_c, 1, 44, 80
1, 7432, Note_on_c, 1, 44, 0
1, 7440, Note_on_c, 0, 64, 0
1, 7440, Note_on_c, 1, 40, 80
1, 7536, Note_on_c, 1, 40, 0
1, 7680, Note_on_c, 0, 80, 64
1, 7800, Note_on_c, 1, 61, 64
1, 7800, Note_on_c, 1, 64, 64
1, 7920, Note_on_c, 0, 80, 0
1, 7920, Note_on_c, 0, 81, 64
1, 7920, Note_on_c, 1, 64, 0
1, 7920, Note_on_c, 1, 61, 0
1, 7920, Note_on_c, 1, 59, 64
1, 7920, Note_on_c, 1, 63, 64
1, 7950, Note_on_c, 0, 81, 0
1, 7950, Note_on_c, 0, 80, 64
1, 7980, Note_on_c, 0, 80, 0
1, 7980, Note_on_c, 0, 78, 64
1, 8010, Note_on_c, 0, 78, 0
1, 8010, Note_on_c, 0, 80, 64
1, 8040, Note_on_c, 0, 80, 0
1, 8040, Note_on_c, 0, 81, 64
1, 8040, Note_on_c, 1, 63, 0
1, 8040, Note_on_c, 1, 59, 0
1, 8040, Note_on_c, 1, 71, 64
1, 8040, Note_on_c, 1, 75, 64
1, 8130, Note_on_c, 0, 81, 0
1, 8130, Note_on_c, 0, 78, 64
1, 8160, Note_on_c, 0, 78, 0
1, 8160, Note_on_c, 0, 78, 64
1, 8160, Note_on_c, 1, 75, 0
1, 8160, Note_on_c, 1, 71, 0
1, 8280, Note_on_c, 1, 61, 64
1, 8280, Note_on_c, 1, 68, 64
1, 8370, Note_on_c, 0, 78, 0
1, 8370, Note_on_c, 0, 76, 64
1, 8400, Note_on_c, 0, 76, 0
1, 8400, Note_on_c, 0, 78, 64
1, 8400, Note_on_c, 1, 68, 0
1, 8400, Note_on_c, 1, 61, 0
1, 8400, Note_on_c, 1, 61, 64
1, 8400, Note_on_c, 1, 68, 64
1, 8430, Note_on_c, 0, 78, 0
1, 8430, Note_on_c, 0, 76, 64
1, 8460, Note_on_c, 0, 76, 0
1, 8460, Note_on_c, 0, 75, 64
1, 8490, Note_on_c, 0, 75, 0
1, 8490, Note_on_c, 0, 76, 64
1, 8520, Note_on_c, 0, 76, 0
1, 8520, Note_on_c, 0, 80, 64
1, 8520, Note_on_c, 1, 68, 0
1, 8520, Note_on_c, 1, 61, 0
1, 8520, Note_on_c, 1, 64, 64
1, 8610, Note_on_c, 0, 80, 0
1, 8610, Note_on_c, 0, 73, 64
1, 8640, Note_on_c, 0, 73, 0
1, 8640, Note_on_c, 0, 73, 64
1, 8640, Note_on_c, 0, 75, 64
1, 8640, Note_on_c, 1, 64, 0
1, 8640, Note_on_c, 1, 66, 64
1, 8760, Note_on_c, 1, 66, 0
1, 8760, Note_on_c, 1, 66, 64
1, 8880, Note_on_c, 0, 73, 0
1, 8880, Note_on_c, 0, 72, 64
1, 8880, Note_on_c, 1, 66, 0
1, 8880, Note_on_c, 1, 68, 64
1, 9000, Note_on_c, 0, 75, 0
1, 9000, Note_on_c, 0, 76, 64
1, 9000, Note_on_c, 1, 68, 0
1, 9000, Note_on_c, 1, 68, 64
1, 9090, Note_on_c, 0, 76, 0
1, 9090, Note_on_c, 0, 78, 64
1, 9120, Note_on_c, 0, 78, 0
1, 9120, Note_on_c, 0, 72, 0
1, 9120, Note_on_c, 0, 76, 64
1, 9120, Note_on_c, 0, 73, 64
1, 9120, Note_on_c, 1, 68, 0
1, 9120, Note_on_c, 1, 61, 64
1, 9152, Note_on_c, 0, 76, 0
1, 9160, Note_on_c, 0, 75, 64
1, 9192, Note_on_c, 0, 75, 0
1, 9200, Note_on_c, 0, 73, 64
1, 9240, Note_on_c, 1, 61, 0
1, 9272, Note_on_c, 0, 73, 0
1, 9280, Note_on_c, 0, 61, 80
1, 9280, Note_on_c, 1, 49, 80
1, 9312, Note_on_c, 0, 61, 0
1, 9312, Note_on_c, 0, 73, 0
1, 9320, Note_on_c, 0, 63, 80
1, 9320, Note_on_c, 1, 49, 0
1, 9320, Note_on_c, 1, 51, 80
1, 9352, Note_on_c, 0, 63, 0
1, 9360, Note_on_c, 0, 64, 80
1, 9360, Note_on_c, 1, 51, 0
1, 9360, Note_on_c, 1, 52, 80
1, 9392, Note_on_c, 0, 64, 0
1, 9400, Note_on_c, 0, 63, 80
1, 9400, Note_on_c, 1, 52, 0
1, 9400, Note_on_c, 1, 51, 80
1, 9432, Note_on_c, 0, 63, 0
1, 9440, Note_on_c, 0, 61, 80
1, 9440, Note_on_c, 1, 51, 0
1, 9440, Note_on_c, 1, 49, 80
1, 9472, Note_on_c, 0, 61, 0
1, 9480, Note_on_c, 0, 59, 80
1, 9480, Note_on_c, 1, 49, 0
1, 9480, Note_on_c, 1, 47, 80
1, 9512, Note_on_c, 0, 59, 0
1, 9520, Note_on_c, 0, 58, 80
1, 9520, Note_on_c, 1, 47, 0
1, 9520, Note_on_c, 1, 46, 80
1, 9552, Note_on_c, 0, 58, 0
1, 9560, Note_on_c, 0, 56, 80
1, 9560, Note_on_c, 1, 46, 0
1, 9560, Note_on_c, 1, 44, 80
1, 9592, Note_on_c, 0, 56, 0
1, 9600, Note_on_c, 0, 54, 80
1, 9600, Note_on_c, 1, 44, 0
1, 9600, Note_on_c, 1, 42, 80
1, 9684, Note_on_c, 0, 54, 0
1, 9684, Note_on_c, 1, 42, 0
1, 9720, Note_on_c, 0, 78, 64
1, 9840, Note_on_c, 0, 78, 0
1, 9840, Note_on_c, 0, 80, 64
1, 9840, Note_on_c, 1, 58, 64
1, 9840, Note_on_c, 1, 61, 64
1, 9870, Note_on_c, 0, 80, 0
1, 9870, Note_on_c, 0, 78, 64
1, 9900, Note_on_c, 0, 78, 0
1, 9900, Note_on_c, 0, 76, 64
1, 9930, Note_on_c, 0, 76, 0
1, 9930, Note_on_c, 0, 78, 64
1, 9936, Note_on_c, 1, 61, 0
1, 9936, Note_on_c, 1, 58, 0
1, 9960, Note_on_c, 0, 78, 0
1, 9960, Note_on_c, 0, 80, 64
1, 10050, Note_on_c, 0, 80, 0
1, 10050, Note_on_c, 0, 76, 64
1, 10080, Note_on_c, 0, 76, 0
1, 10080, Note_on_c, 0, 76, 64
1, 10200, Note_on_c, 1, 59, 64
1, 10200, Note_on_c, 1, 66, 64
1, 10290, Note_on_c, 0, 76, 0
1, 10290, Note_on_c, 0, 75, 64
1, 10296, Note_on_c, 1, 66, 0
1, 10296, Note_on_c, 1, 59, 0
1, 10320, Note_on_c, 0, 75, 0
1, 10320, Note_on_c, 0, 76, 64
1, 10320, Note_on_c, 1, 59, 64
1, 10320, Note_on_c, 1, 66, 64
1, 10350, Note_on_c, 0, 76, 0
1, 10350, Note_on_c, 0, 75, 64
1, 10380, Note_on_c, 0, 75, 0
1, 10380, Note_on_c, 0, 73, 64
1, 10410, Note_on_c, 0, 73, 0
1, 10410, Note_on_c, 0, 75, 64
1, 10416, Note_on_c, 1, 66, 0
1, 10416, Note_on_c, 1, 59, 0
1, 10440, Note_on_c, 0, 75, 0
1, 10440, Note_on_c, 0, 76, 64
1, 10440, Note_on_c, 1, 61, 64
1, 10440, Note_on_c, 1, 64, 64
1, 10530, Note_on_c, 0, 76, 0
1, 10530, Note_on_c, 0, 73, 64
1, 10536, Note_on_c, 1, 64, 0
1, 10536, Note_on_c, 1, 61, 0
1, 10560, Note_on_c, 0, 73, 0
1, 10560, Note_on_c, 0, 71, 64
1, 10560, Note_on_c, 1, 63, 64
1, 10560, Note_on_c, 1, 66, 64
1, 10600, Note_on_c, 0, 71, 0
1, 10600, Note_on_c, 0, 75, 64
1, 10640, Note_on_c, 0, 75, 0
1, 10640, Note_on_c, 0, 73, 64
1, 10680, Note_on_c, 0, 73, 0
1, 10680, Note_on_c, 0, 71, 64
1, 10720, Note_on_c, 0, 71, 0
1, 10720, Note_on_c, 0, 75, 64
1, 10752, Note_on_c, 1, 66, 0
1, 10752, Note_on_c, 1, 63, 0
1, 10760, Note_on_c, 0, 75, 0
1, 10760, Note_on_c, 0, 78, 64
1, 10800, Note_on_c, 0, 78, 0
1, 10800, Note_on_c, 0, 83, 64
1, 10840, Note_on_c, 0, 83, 0
1, 10840, Note_on_c, 0, 82, 64
1, 10880, Note_on_c, 0, 82, 0
1, 10880, Note_on_c, 0, 80, 64
1, 10920, Note_on_c, 0, 80, 0
1, 10920, Note_on_c, 0, 78, 64
1, 10920, Note_on_c, 1, 64, 64
1, 10920, Note_on_c, 1, 71, 64
1, 10960, Note_on_c, 0, 78, 0
1, 10960, Note_on_c, 0, 76, 64
1, 11000, Note_on_c, 0, 76, 0
1, 11000, Note_on_c, 0, 75, 64
1, 11016, Note_on_c, 1, 71, 0
1, 11016, Note_on_c, 1, 64, 0
1, 11040, Note_on_c, 0, 75, 0
1, 11040, Note_on_c, 0, 75, 64
1, 11040, Note_on_c, 1, 66, 64
1, 11040, Note_on_c, 1, 71, 64
1, 11070, Note_on_c, 0, 75, 0
1, 11070, Note_on_c, 0, 76, 64
1, 11100, Note_on_c, 0, 76, 0
1, 11100, Note_on_c, 0, 75, 64
1, 11120, Note_on_c, 0, 75, 0
1, 11120, Note_on_c, 0, 76, 64
1, 11140, Note_on_c, 0, 76, 0
1, 11140, Note_on_c, 0, 75, 64
1, 11160, Note_on_c, 0, 75, 0
1, 11160, Note_on_c, 0, 73, 64
1, 11160, Note_on_c, 1, 71, 0
1, 11160, Note_on_c, 1, 70, 64
1, 11280, Note_on_c, 0, 73, 0
1, 11280, Note_on_c, 1, 70, 0
1, 11280, Note_on_c, 1, 66, 0
1, 11280, Note_on_c, 1, 54, 80
1, 11320, Note_on_c, 1, 54, 0
1, 11320, Note_on_c, 1, 56, 80
1, 11360, Note_on_c, 1, 56, 0
1, 11360, Note_on_c, 1, 54, 80
1, 11400, Note_on_c, 1, 54, 0
1, 11400, Note_on_c, 1, 52, 80
1, 11440, Note_on_c, 1, 52, 0
1, 11440, Note_on_c, 1, 51, 80
1, 11480, Note_on_c, 1, 51, 0
1, 11480, Note_on_c, 1, 49, 80
1, 11520, Note_on_c, 1, 49, 0
1, 11520, Note_on_c, 1, 47, 80
1, 11560, Note_on_c, 0, 71, 80
1, 11600, Note_on_c, 0, 71, 0
1, 11600, Note_on_c, 0, 70, 80
1, 11640, Note_on_c, 0, 70, 0
1, 11640, Note_on_c, 0, 68, 80
1, 11680, Note_on_c, 0, 68, 0
1, 11680, Note_on_c, 0, 66, 80
1, 11720, Note_on_c, 0, 66, 0
1, 11720, Note_on_c, 0, 64, 80
1, 11760, Note_on_c, 0, 64, 0
1, 11760, Note_on_c, 0, 63, 80
1, 11760, Note_on_c, 1, 47, 0
1, 11800, Note_on_c, 0, 63, 0
1, 11800, Note_on_c, 0, 61, 80
1, 11840, Note_on_c, 0, 61, 0
1, 11840, Note_on_c, 0, 59, 80
1, 11880, Note_on_c, 0, 59, 0
1, 11880, Note_on_c, 0, 58, 80
1, 11880, Note_on_c, 1, 52, 80
1, 11920, Note_on_c, 0, 58, 0
1, 11920, Note_on_c, 0, 61, 80
1, 11940, Note_on_c, 1, 52, 0
1, 11960, Note_on_c, 0, 61, 0
1, 11960, Note_on_c, 0, 66, 80
1, 12000, Note_on_c, 0, 66, 0
1, 12000, Note_on_c, 0, 59, 80
1, 12000, Note_on_c, 1, 51, 80
1, 12040, Note_on_c, 0, 59, 0
1, 12040, Note_on_c, 0, 63, 80
1, 12080, Note_on_c, 0, 63, 0
1, 12080, Note_on_c, 0, 66, 80
1, 12120, Note_on_c, 0, 66, 0
1, 12120, Note_on_c, 0, 61, 80
1, 12120, Note_on_c, 1, 51, 0
1, 12120, Note_on_c, 1, 46, 80
1, 12160, Note_on_c, 0, 61, 0
1, 12160, Note_on_c, 0, 64, 80
1, 12180, Note_on_c, 1, 46, 0
1, 12200, Note_on_c, 0, 64, 0
1, 12200, Note_on_c, 0, 66, 80
1, 12240, Note_on_c, 0, 66, 0
1, 12240, Note_on_c, 0, 63, 80
1, 12240, Note_on_c, 1, 47, 80
1, 12280, Note_on_c, 0, 63, 0
1, 12280, Note_on_c, 0, 64, 80
1, 12300, Note_on_c, 1, 47, 0
1, 12320, Note_on_c, 0, 64, 0
1, 12320, Note_on_c, 0, 66, 80
1, 12360, Note_on_c, 0, 66, 0
1, 12360, Note_on_c, 0, 64, 80
1, 12360, Note_on_c, 1, 49, 80
1, 12400, Note_on_c, 0, 64, 0
1, 12400, Note_on_c, 0, 66, 80
1, 12420, Note_on_c, 1, 49, 0
1, 12440, Note_on_c, 0, 66, 0
1, 12440, Note_on_c, 0, 68, 80
1, 12480, Note_on_c, 0, 68, 0
1, 12480, Note_on_c, 0, 66, 80
1, 12480, Note_on_c, 1, 47, 80
1, 12520, Note_on_c, 0, 66, 0
1, 12520, Note_on_c, 0, 71, 64
1, 12560, Note_on_c, 0, 71, 0
1, 12560, Note_on_c, 0, 70, 64
1, 12600, Note_on_c, 0, 70, 0
1, 12600, Note_on_c, 0, 68, 64
1, 12640, Note_on_c, 0, 68, 0
1, 12640, Note_on_c, 0, 66, 64
1, 12680, Note_on_c, 0, 66, 0
1, 12680, Note_on_c, 0, 64, 64
1, 12720, Note_on_c, 0, 64, 0
1, 12720, Note_on_c, 0, 63, 64
1, 12720, Note_on_c, 1, 47, 0
1, 12760, Note_on_c, 0, 63, 0
1, 12760, Note_on_c, 0, 61, 64
1, 12800, Note_on_c, 0, 61, 0
1, 12800, Note_on_c, 0, 59, 64
1, 12840, Note_on_c, 0, 59, 0
1, 12840, Note_on_c, 0, 58, 64
1, 12840, Note_on_c, 1, 52, 64
1, 12880, Note_on_c, 0, 58, 0
1, 12880, Note_on_c, 0, 61, 64
1, 12900, Note_on_c, 1, 52, 0
1, 12920, Note_on_c, 0, 61, 0
1, 12920, Note_on_c, 0, 66, 64
1, 12960, Note_on_c, 0, 66, 0
1, 12960, Note_on_c, 0, 59, 64
1, 12960, Note_on_c, 1, 51, 64
1, 13000, Note_on_c, 0, 59, 0
1, 13000, Note_on_c, 0, 63, 64
1, 13040, Note_on_c, 0, 63, 0
1, 13040, Note_on_c, 0, 66, 64
1, 13080, Note_on_c, 0, 66, 0
1, 13080, Note_on_c, 0, 61, 64
1, 13080, Note_on_c, 1, 51, 0
1, 13080, Note_on_c, 1, 46, 64
1, 13120, Note_on_c, 0, 61, 0
1, 13120, Note_on_c, 0, 64, 64
1, 13140, Note_on_c, 1, 46, 0
1, 13160, Note_on_c, 0, 64, 0
1, 13160, Note_on_c, 0, 66, 64
1, 13200, Note_on_c, 0, 66, 0
1, 13200, Note_on_c, 0, 63, 64
1, 13200, Note_on_c, 1, 47, 64
1, 13240, Note_on_c, 0, 63, 0
1, 13240, Note_on_c, 0, 64, 64
1, 13260, Note_on_c, 1, 47, 0
1, 13280, Note_on_c, 0, 64, 0
1, 13280, Note_on_c, 0, 66, 64
1, 13320, Note_on_c, 0, 66, 0
1, 13320, Note_on_c, 0, 64, 64
1, 13320, Note_on_c, 1, 49, 64
1, 13360, Note_on_c, 0, 64, 0
1, 13360, Note_on_c, 0, 66, 64
1, 13380, Note_on_c, 1, 49, 0
1, 13400, Note_on_c, 0, 66, 0
1, 13400, Note_on_c, 0, 68, 64
1, 13440, Note_on_c, 0, 68, 0
1, 13440, Note_on_c, 0, 66, 64
1, 13440, Note_on_c, 1, 51, 64
1, 13480, Note_on_c, 0, 66, 0
1, 13480, Note_on_c, 0, 71, 65
1, 13520, Note_on_c, 0, 71, 0
1, 13520, Note_on_c, 0, 70, 65
1, 13560, Note_on_c, 0, 70, 0
1, 13560, Note_on_c, 0, 68, 66
1, 13600, Note_on_c, 0, 68, 0
1, 13600, Note_on_c, 0, 66, 67
1, 13640, Note_on_c, 0, 66, 0
1, 13640, Note_on_c, 0, 64, 67
1, 13680, Note_on_c, 0, 64, 0
1, 13680, Note_on_c, 0, 63, 68
1, 13680, Note_on_c, 1, 51, 0
1, 13720, Note_on_c, 0, 63, 0
1, 13720, Note_on_c, 0, 61, 69
1, 13760, Note_on_c, 0, 61, 0
1, 13760, Note_on_c, 0, 59, 69
1, 13800, Note_on_c, 0, 59, 0
1, 13800, Note_on_c, 0, 69, 70
1, 13840, Note_on_c, 0, 69, 0
1, 13840, Note_on_c, 0, 68, 71
1, 13880, Note_on_c, 0, 68, 0
1, 13880, Note_on_c, 0, 66, 71
1, 13920, Note_on_c, 0, 66, 0
1, 13920, Note_on_c, 0, 67, 72
1, 14040, Note_on_c, 1, 52, 74
1, 14040, Note_on_c, 1, 59, 74
1, 14100, Note_on_c, 1, 59, 0
1, 14100, Note_on_c, 1, 52, 0
1, 14160, Note_on_c, 0, 67, 0
1, 14160, Note_on_c, 0, 68, 76
1, 14160, Note_on_c, 1, 52, 76
1, 14160, Note_on_c, 1, 59, 76
1, 14220, Note_on_c, 1, 59, 0
1, 14220, Note_on_c, 1, 52, 0
1, 14280, Note_on_c, 0, 68, 0
1, 14280, Note_on_c, 0, 76, 78
1, 14320, Note_on_c, 0, 76, 0
1, 14320, Note_on_c, 0, 75, 79
1, 14360, Note_on_c, 0, 75, 0
1, 14360, Note_on_c, 0, 73, 79
1, 14400, Note_on_c, 0, 73, 0
1, 14400, Note_on_c, 0, 72, 80
1, 14520, Note_on_c, 1, 66, 80
1, 14520, Note_on_c, 1, 63, 80
1, 14640, Note_on_c, 0, 72, 0
1, 14640, Note_on_c, 0, 73, 80
1, 14640, Note_on_c, 1, 63, 0
1, 14640, Note_on_c, 1, 66, 0
1, 14640, Note_on_c, 1, 68, 80
1, 14640, Note_on_c, 1, 64, 80
1, 14700, Note_on_c, 0, 73, 0
1, 14700, Note_on_c, 1, 64, 0
1, 14700, Note_on_c, 1, 68, 0
1, 14760, Note_on_c, 0, 80, 80
1, 14800, Note_on_c, 0, 80, 0
1, 14800, Note_on_c, 0, 78, 80
1, 14840, Note_on_c, 0, 78, 0
1, 14840, Note_on_c, 0, 76, 80
1, 14880, Note_on_c, 0, 76, 0
1, 14880, Note_on_c, 0, 71, 80
1, 14880, Note_on_c, 0, 75, 80
1, 15000, Note_on_c, 1, 65, 80
1, 15120, Note_on_c, 0, 75, 0
1, 15120, Note_on_c, 0, 71, 0
1, 15120, Note_on_c, 0, 70, 80
1, 15120, Note_on_c, 0, 73, 80
1, 15120, Note_on_c, 1, 65, 0
1, 15120, Note_on_c, 1, 66, 80
1, 15240, Note_on_c, 0, 73, 0
1, 15240, Note_on_c, 0, 70, 0
1, 15240, Note_on_c, 1, 66, 0
1, 15360, Note_on_c, 0, 83, 88
1, 15360, Note_on_c, 0, 78, 88
1, 15360, Note_on_c, 0, 75, 88
1, 15360, Note_on_c, 0, 71, 88
1, 15360, Note_on_c, 1, 47, 88
1, 15400, Note_on_c, 1, 47, 0
1, 15400, Note_on_c, 1, 51, 88
1, 15440, Note_on_c, 1, 51, 0
1, 15440, Note_on_c, 1, 52, 88
1, 15480, Note_on_c, 0, 71, 0
1, 15480, Note_on_c, 0, 83, 0
1, 15480, Note_on_c, 0, 78, 0
1, 15480, Note_on_c, 0, 75, 0
1, 15480, Note_on_c, 1, 52, 0
1, 15480, Note_on_c, 1, 54, 88
1, 15520, Note_on_c, 1, 54, 0
1, 15520, Note_on_c, 1, 56, 88
1, 15560, Note_on_c, 1, 56, 0
1, 15560, Note_on_c, 1, 58, 88
1, 15600, Note_on_c, 1, 58, 0
1, 15600, Note_on_c, 1, 59, 88
1, 15640, Note_on_c, 1, 59, 0
1, 15640, Note_on_c, 1, 61, 88
1, 15680, Note_on_c, 1, 61, 0
1, 15680, Note_on_c, 1, 63, 88
1, 15720, Note_on_c, 0, 66, 88
1, 15720, Note_on_c, 1, 63, 0
1, 15720, Note_on_c, 1, 64, 88
1, 15760, Note_on_c, 0, 66, 0
1, 15760, Note_on_c, 0, 68, 88
1, 15800, Note_on_c, 0, 68, 0
1, 15800, Note_on_c, 0, 70, 88
1, 15840, Note_on_c, 0, 70, 0
1, 15840, Note_on_c, 0, 71, 88
1, 15840, Note_on_c, 1, 64, 0
1, 15840, Note_on_c, 1, 63, 88
1, 15880, Note_on_c, 0, 71, 0
1, 15880, Note_on_c, 0, 75, 88
1, 15920, Note_on_c, 0, 75, 0
1, 15920, Note_on_c, 0, 78, 88
1, 15960, Note_on_c, 0, 78, 0
1, 15960, Note_on_c, 0, 83, 88
1, 16000, Note_on_c, 0, 83, 0
1, 16000, Note_on_c, 0, 82, 88
1, 16040, Note_on_c, 0, 82, 0
1, 16040, Note_on_c, 0, 80, 88
1, 16080, Note_on_c, 0, 80, 0
1, 16080, Note_on_c, 0, 78, 88
1, 16080, Note_on_c, 1, 63, 0
1, 16120, Note_on_c, 0, 78, 0
1, 16120, Note_on_c, 0, 76, 88
1, 16160, Note_on_c, 0, 76, 0
1, 16160, Note_on_c, 0, 75, 88
1, 16200, Note_on_c, 0, 75, 0
1, 16200, Note_on_c, 0, 73, 88
1, 16200, Note_on_c, 1, 54, 88
1, 16200, Note_on_c, 1, 58, 88
1, 16240, Note_on_c, 0, 73, 0
1, 16240, Note_on_c, 0, 75, 88
1, 16280, Note_on_c, 0, 75, 0
1, 16280, Note_on_c, 0, 76, 88
1, 16320, Note_on_c, 0, 76, 0
1, 16320, Note_on_c, 0, 75, 80
1, 16320, Note_on_c, 1, 58, 0
1, 16320, Note_on_c, 1, 54, 0
1, 16320, Note_on_c, 1, 47, 64
1, 16360, Note_on_c, 1, 47, 0
1, 16360, Note_on_c, 1, 51, 64
1, 16400, Note_on_c, 1, 51, 0
1, 16400, Note_on_c, 1, 52, 64
1, 16440, Note_on_c, 1, 52, 0
1, 16440, Note_on_c, 1, 54, 64
1, 16480, Note_on_c, 1, 54, 0
1, 16480, Note_on_c, 1, 56, 64
1, 16520, Note_on_c, 1, 56, 0
1, 16520, Note_on_c, 1, 58, 64
1, 16560, Note_on_c, 0, 75, 0
1, 16560, Note_on_c, 1, 58, 0
1, 16560, Note_on_c, 1, 59, 64
1, 16600, Note_on_c, 1, 59, 0
1, 16600, Note_on_c, 1, 61, 64
1, 16640, Note_on_c, 1, 61, 0
1, 16640, Note_on_c, 1, 63, 64
1, 16680, Note_on_c, 0, 66, 64
1, 16680, Note_on_c, 1, 63, 0
1, 16680, Note_on_c, 1, 64, 64
1, 16720, Note_on_c, 0, 66, 0
1, 16720, Note_on_c, 0, 68, 64
1, 16760, Note_on_c, 0, 68, 0
1, 16760, Note_on_c, 0, 70, 64
1, 16800, Note_on_c, 0, 70, 0
1, 16800, Note_on_c, 0, 71, 64
1, 16800, Note_on_c, 1, 64, 0
1, 16800, Note_on_c, 1, 63, 64
1, 16840, Note_on_c, 0, 71, 0
1, 16840, Note_on_c, 0, 75, 64
1, 16880, Note_on_c, 0, 75, 0
1, 16880, Note_on_c, 0, 78, 64
1, 16920, Note_on_c, 0, 78, 0
1, 16920, Note_on_c, 0, 83, 64
1, 16960, Note_on_c, 0, 83, 0
1, 16960, Note_on_c, 0, 82, 64
1, 17000, Note_on_c, 0, 82, 0
1, 17000, Note_on_c, 0, 80, 64
1, 17040, Note_on_c, 0, 80, 0
1, 17040, Note_on_c, 0, 78, 64
1, 17040, Note_on_c, 1, 63, 0
1, 17100, Note_on_c, 0, 78, 0
1, 17160, Note_on_c, 0, 83, 64
1, 17160, Note_on_c, 1, 68, 64
1, 17200, Note_on_c, 0, 83, 0
1, 17200, Note_on_c, 0, 82, 64
1, 17200, Note_on_c, 1, 68, 0
1, 17200, Note_on_c, 1, 66, 64
1, 17240, Note_on_c, 0, 82, 0
1, 17240, Note_on_c, 0, 80, 64
1, 17240, Note_on_c, 1, 66, 0
1, 17240, Note_on_c, 1, 64, 64
1, 17280, Note_on_c, 0, 80, 0
1, 17280, Note_on_c, 0, 78, 64
1, 17280, Note_on_c, 1, 64, 0
1, 17280, Note_on_c, 1, 63, 64
1, 17320, Note_on_c, 0, 78, 0
1, 17320, Note_on_c, 0, 80, 64
1, 17320, Note_on_c, 1, 63, 0
1, 17320, Note_on_c, 1, 64, 64
1, 17360, Note_on_c, 0, 80, 0
1, 17360, Note_on_c, 0, 82, 64
1, 17360, Note_on_c, 1, 64, 0
1, 17360, Note_on_c, 1, 66, 64
1, 17400, Note_on_c, 0, 82, 0
1, 17400, Note_on_c, 0, 83, 64
1, 17400, Note_on_c, 1, 66, 0
1, 17400, Note_on_c, 1, 68, 64
1, 17440, Note_on_c, 0, 83, 0
1, 17440, Note_on_c, 0, 82, 64
1, 17440, Note_on_c, 1, 68, 0
1, 17440, Note_on_c, 1, 66, 64
1, 17480, Note_on_c, 0, 82, 0
1, 17480, Note_on_c, 0, 80, 64
1, 17480, Note_on_c, 1, 66, 0
1, 17480, Note_on_c, 1, 64, 64
1, 17520, Note_on_c, 0, 80, 0
1, 17520, Note_on_c, 0, 78, 64
1, 17520, Note_on_c, 1, 64, 0
1, 17520, Note_on_c, 1, 63, 64
1, 17560, Note_on_c, 0, 78, 0
1, 17560, Note_on_c, 0, 80, 64
1, 17560, Note_on_c, 1, 63, 0
1, 17560, Note_on_c, 1, 64, 64
1, 17600, Note_on_c, 0, 80, 0
1, 17600, Note_on_c, 0, 82, 64
1, 17600, Note_on_c, 1, 64, 0
1, 17600, Note_on_c, 1, 66, 64
1, 17640, Note_on_c, 0, 82, 0
1, 17640, Note_on_c, 0, 83, 64
1, 17640, Note_on_c, 1, 66, 0
1, 17640, Note_on_c, 1, 68, 64
1, 17680, Note_on_c, 0, 83, 0
1, 17680, Note_on_c, 0, 82, 64
1, 17680, Note_on_c, 1, 68, 0
1, 17680, Note_on_c, 1, 66, 64
1, 17720, Note_on_c, 0, 82, 0
1, 17720, Note_on_c, 0, 80, 64
1, 17720, Note_on_c, 1, 66, 0
1, 17720, Note_on_c, 1, 64, 64
1, 17760, Note_on_c, 0, 80, 0
1, 17760, Note_on_c, 0, 78, 64
1, 17760, Note_on_c, 1, 64, 0
1, 17760, Note_on_c, 1, 63, 64
1, 17800, Note_on_c, 0, 78, 0
1, 17800, Note_on_c, 0, 80, 64
1, 17820, Note_on_c, 1, 63, 0
1, 17840, Note_on_c, 0, 80, 0
1, 17840, Note_on_c, 0, 81, 64
1, 17880, Note_on_c, 0, 81, 0
1, 17880, Note_on_c, 0, 80, 64
1, 17880, Note_on_c, 1, 64, 64
1, 17920, Note_on_c, 0, 80, 0
1, 17920, Note_on_c, 0, 81, 64
1, 17940, Note_on_c, 1, 64, 0
1, 17960, Note_on_c, 0, 81, 0
1, 17960, Note_on_c, 0, 83, 64
1, 18000, Note_on_c, 0, 83, 0
1, 18000, Note_on_c, 0, 81, 64
1, 18000, Note_on_c, 1, 66, 64
1, 18120, Note_on_c, 1, 66, 0
1, 18120, Note_on_c, 1, 59, 64
1, 18240, Note_on_c, 0, 81, 0
1, 18240, Note_on_c, 0, 80, 80
1, 18240, Note_on_c, 1, 59, 0
1, 18240, Note_on_c, 1, 64, 80
1, 18280, Note_on_c, 0, 80, 0
1, 18280, Note_on_c, 0, 82, 80
1, 18320, Note_on_c, 0, 82, 0
1, 18320, Note_on_c, 0, 83, 80
1, 18360, Note_on_c, 0, 83, 0
1, 18360, Note_on_c, 0, 82, 80
1, 18400, Note_on_c, 0, 82, 0
1, 18400, Note_on_c, 0, 80, 80
1, 18440, Note_on_c, 0, 80, 0
1, 18440, Note_on_c, 0, 78, 80
1, 18480, Note_on_c, 0, 78, 0
1, 18480, Note_on_c, 0, 76, 80
1, 18480, Note_on_c, 1, 64, 0
1, 18520, Note_on_c, 0, 76, 0
1, 18520, Note_on_c, 0, 75, 80
1, 18560, Note_on_c, 0, 75, 0
1, 18560, Note_on_c, 0, 73, 80
1, 18600, Note_on_c, 0, 73, 0
1, 18600, Note_on_c, 0, 71, 80
1, 18640, Note_on_c, 0, 71, 0
1, 18640, Note_on_c, 0, 70, 80
1, 18680, Note_on_c, 0, 70, 0
1, 18680, Note_on_c, 0, 68, 80
1, 18720, Note_on_c, 0, 68, 0
1, 18720, Note_on_c, 0, 66, 80
1, 18840, Note_on_c, 1, 51, 80
1, 18960, Note_on_c, 0, 66, 0
1, 18960, Note_on_c, 0, 73, 80
1, 18960, Note_on_c, 1, 51, 0
1, 18960, Note_on_c, 1, 52, 80
1, 18990, Note_on_c, 0, 73, 0
1, 18990, Note_on_c, 0, 75, 80
1, 19020, Note_on_c, 0, 75, 0
1, 19020, Note_on_c, 0, 73, 80
1, 19050, Note_on_c, 0, 73, 0
1, 19050, Note_on_c, 0, 75, 80
1, 19080, Note_on_c, 0, 75, 0
1, 19080, Note_on_c, 0, 73, 80
1, 19080, Note_on_c, 1, 52, 0
1, 19080, Note_on_c, 1, 54, 80
1, 19100, Note_on_c, 0, 73, 0
1, 19100, Note_on_c, 0, 75, 80
1, 19120, Note_on_c, 0, 75, 0
1, 19120, Note_on_c, 0, 73, 80
1, 19140, Note_on_c, 0, 73, 0
1, 19140, Note_on_c, 0, 71, 80
1, 19170, Note_on_c, 0, 71, 0
1, 19170, Note_on_c, 0, 73, 80
1, 19200, Note_on_c, 0, 73, 0
1, 19200, Note_on_c, 0, 71, 80
1, 19200, Note_on_c, 1, 54, 0
1, 19200, Note_on_c, 1, 47, 80
1, 19240, Note_on_c, 1, 47, 0
1, 19240, Note_on_c, 1, 51, 80
1, 19280, Note_on_c, 1, 51, 0
1, 19280, Note_on_c, 1, 54, 80
1, 19320, Note_on_c, 1, 54, 0
1, 19320, Note_on_c, 1, 59, 80
1, 19360, Note_on_c, 1, 59, 0
1, 19360, Note_on_c, 1, 54, 80
1, 19400, Note_on_c, 1, 54, 0
1, 19400, Note_on_c, 1, 51, 80
1, 19440, Note_on_c, 0, 71, 0
1, 19440, Note_on_c, 1, 51, 0
1, 19440, Note_on_c, 1, 47, 80
1, 19560, Note_on_c, 0, 78, 80
1, 19560, Note_on_c, 1, 47, 0
1, 19560, Note_on_c, 1, 75, 80
1, 19600, Note_on_c, 0, 78, 0
1, 19600, Note_on_c, 0, 80, 80
1, 19620, Note_on_c, 1, 75, 0
1, 19640, Note_on_c, 0, 80, 0
1, 19640, Note_on_c, 0, 78, 80
1, 19680, Note_on_c, 0, 78, 0
1, 19680, Note_on_c, 0, 81, 80
1, 19680, Note_on_c, 1, 72, 80
1, 19720, Note_on_c, 0, 81, 0
1, 19720, Note_on_c, 0, 80, 80
1, 19760, Note_on_c, 0, 80, 0
1, 19760, Note_on_c, 0, 78, 80
1, 19800, Note_on_c, 0, 78, 0
1, 19800, Note_on_c, 0, 76, 80
1, 19800, Note_on_c, 1, 72, 0
1, 19800, Note_on_c, 1, 73, 80
1, 19840, Note_on_c, 0, 76, 0
1, 19840, Note_on_c, 0, 78, 80
1, 19860, Note_on_c, 1, 73, 0
1, 19880, Note_on_c, 0, 78, 0
1, 19880, Note_on_c, 0, 76, 80
1, 19920, Note_on_c, 0, 76, 0
1, 19920, Note_on_c, 0, 80, 80
1, 19920, Note_on_c, 1, 70, 80
1, 19960, Note_on_c, 0, 80, 0
1, 19960, Note_on_c, 0, 78, 80
1, 20000, Note_on_c, 0, 78, 0
1, 20000, Note_on_c, 0, 76, 80
1, 20040, Note_on_c, 0, 76, 0
1, 20040, Note_on_c, 0, 75, 80
1, 20040, Note_on_c, 1, 70, 0
1, 20040, Note_on_c, 1, 71, 80
1, 20080, Note_on_c, 0, 75, 0
1, 20080, Note_on_c, 0, 78, 80
1, 20100, Note_on_c, 1, 71, 0
1, 20120, Note_on_c, 0, 78, 0
1, 20120, Note_on_c, 0, 83, 80
1, 20160, Note_on_c, 0, 83, 0
1, 20160, Note_on_c, 0, 80, 80
1, 20160, Note_on_c, 1, 64, 80
1, 20200, Note_on_c, 0, 80, 0
1, 20200, Note_on_c, 0, 78, 80
1, 20240, Note_on_c, 0, 78, 0
1, 20240, Note_on_c, 0, 76, 80
1, 20280, Note_on_c, 0, 76, 0
1, 20280, Note_on_c, 0, 75, 80
1, 20280, Note_on_c, 1, 64, 0
1, 20280, Note_on_c, 1, 65, 80
1, 20320, Note_on_c, 0, 75, 0
1, 20320, Note_on_c, 0, 76, 80
1, 20360, Note_on_c, 0, 76, 0
1, 20360, Note_on_c, 0, 73, 80
1, 20400, Note_on_c, 0, 73, 0
1, 20400, Note_on_c, 0, 71, 80
1, 20400, Note_on_c, 1, 65, 0
1, 20400, Note_on_c, 1, 66, 80
1, 20490, Note_on_c, 0, 71, 0
1, 20490, Note_on_c, 0, 73, 80
1, 20520, Note_on_c, 0, 73, 0
1, 20520, Note_on_c, 0, 75, 80
1, 20520, Note_on_c, 1, 66, 0
1, 20520, Note_on_c, 1, 54, 80
1, 20550, Note_on_c, 0, 75, 0
1, 20550, Note_on_c, 0, 73, 80
1, 20580, Note_on_c, 0, 73, 0
1, 20580, Note_on_c, 0, 71, 80
1, 20610, Note_on_c, 0, 71, 0
1, 20610, Note_on_c, 0, 73, 80
1, 20640, Note_on_c, 0, 73, 0
1, 20640, Note_on_c, 0, 71, 80
1, 20640, Note_on_c, 1, 54, 0
1, 20640, Note_on_c, 1, 59, 80
1, 20680, Note_on_c, 1, 59, 0
1, 20680, Note_on_c, 1, 54, 80
1, 20720, Note_on_c, 1, 54, 0
1, 20720, Note_on_c, 1, 51, 80
1, 20760, Note_on_c, 1, 51, 0
1, 20760, Note_on_c, 1, 47, 80
1, 20800, Note_on_c, 1, 47, 0
1, 20800, Note_on_c, 1, 51, 80
1, 20840, Note_on_c, 1, 51, 0
1, 20840, Note_on_c, 1, 54, 80
1, 20880, Note_on_c, 0, 71, 0
1, 20880, Note_on_c, 1, 54, 0
1, 20880, Note_on_c, 1, 59, 80
1, 21000, Note_on_c, 0, 66, 80
1, 21000, Note_on_c, 0, 69, 80
1, 21000, Note_on_c, 1, 59, 0
1, 21000, Note_on_c, 1, 63, 80
1, 21060, Note_on_c, 0, 69, 0
1, 21060, Note_on_c, 1, 63, 0
1, 21120, Note_on_c, 0, 68, 80
1, 21120, Note_on_c, 1, 60, 80
1, 21240, Note_on_c, 0, 66, 0
1, 21240, Note_on_c, 0, 64, 80
1, 21240, Note_on_c, 1, 60, 0
1, 21240, Note_on_c, 1, 61, 80
1, 21300, Note_on_c, 1, 61, 0
1, 21360, Note_on_c, 0, 68, 0
1, 21360, Note_on_c, 0, 66, 80
1, 21360, Note_on_c, 1, 58, 80
1, 21480, Note_on_c, 0, 64, 0
1, 21480, Note_on_c, 0, 63, 80
1, 21480, Note_on_c, 1, 58, 0
1, 21480, Note_on_c, 1, 59, 80
1, 21540, Note_on_c, 1, 59, 0
1, 21540, Note_on_c, 1, 52, 88
1, 21555, Note_on_c, 1, 56, 88
1, 21570, Note_on_c, 0, 66, 0
1, 21570, Note_on_c, 0, 64, 88
1, 21570, Note_on_c, 1, 61, 88
1, 21585, Note_on_c, 0, 68, 88
1, 21600, Note_on_c, 0, 63, 0
1, 21600, Note_on_c, 0, 73, 88
1, 21720, Note_on_c, 0, 73, 0
1, 21720, Note_on_c, 0, 68, 0
1, 21720, Note_on_c, 0, 64, 0
1, 21720, Note_on_c, 0, 68, 80
1, 21720, Note_on_c, 1, 61, 0
1, 21720, Note_on_c, 1, 56, 0
1, 21720, Note_on_c, 1, 52, 0
1, 21760, Note_on_c, 0, 68, 0
1, 21760, Note_on_c, 0, 64, 80
1, 21800, Note_on_c, 0, 64, 0
1, 21800, Note_on_c, 0, 61, 80
1, 21840, Note_on_c, 0, 61, 0
1, 21840, Note_on_c, 0, 59, 80
1, 21840, Note_on_c, 1, 42, 80
1, 21840, Note_on_c, 1, 51, 80
1, 21930, Note_on_c, 0, 59, 0
1, 21930, Note_on_c, 0, 58, 80
1, 21945, Note_on_c, 0, 58, 0
1, 21945, Note_on_c, 0, 59, 80
1, 21960, Note_on_c, 0, 59, 0
1, 21960, Note_on_c, 0, 58, 80
1, 21960, Note_on_c, 1, 51, 0
1, 21960, Note_on_c, 1, 49, 80
1, 22080, Note_on_c, 0, 58, 0
1, 22080, Note_on_c, 0, 59, 80
1, 22080, Note_on_c, 1, 49, 0
1, 22080, Note_on_c, 1, 42, 0
1, 22080, Note_on_c, 1, 47, 80
1, 22120, Note_on_c, 0, 59, 0
1, 22120, Note_on_c, 0, 63, 80
1, 22160, Note_on_c, 0, 63, 0
1, 22160, Note_on_c, 0, 66, 80
1, 22200, Note_on_c, 0, 66, 0
1, 22200, Note_on_c, 0, 71, 80
1, 22200, Note_on_c, 1, 47, 0
1, 22240, Note_on_c, 0, 71, 0
1, 22240, Note_on_c, 0, 66, 80
1, 22280, Note_on_c, 0, 66, 0
1, 22280, Note_on_c, 0, 63, 80
1, 22320, Note_on_c, 0, 63, 0
1, 22320, Note_on_c, 1, 59, 80
1, 22360, Note_on_c, 1, 59, 0
1, 22360, Note_on_c, 1, 54, 80
1, 22400, Note_on_c, 1, 54, 0
1, 22400, Note_on_c, 1, 51, 80
1, 22440, Note_on_c, 1, 51, 0
1, 22440, Note_on_c, 1, 47, 80
1, 22480, Note_on_c, 1, 47, 0
1, 22480, Note_on_c, 1, 42, 80
1, 22520, Note_on_c, 1, 42, 0
1, 22520, Note_on_c, 1, 39, 80
1, 22560, Note_on_c, 1, 39, 0
1, 22560, Note_on_c, 1, 35, 80
1, 22680, Note_on_c, 1, 35, 0
1, 23040, Note_on_c, 0, 78, 64
1, 23040, Note_on_c, 0, 75, 64
1, 23160, Note_on_c, 1, 59, 64
1, 23280, Note_on_c, 1, 59, 0
1, 23280, Note_on_c, 1, 66, 64
1, 23400, Note_on_c, 0, 75, 0
1, 23400, Note_on_c, 0, 78, 0
1, 23400, Note_on_c, 0, 76, 64
1, 23400, Note_on_c, 0, 73, 64
1, 23520, Note_on_c, 0, 73, 0
1, 23520, Note_on_c, 0, 76, 0
1, 23520, Note_on_c, 0, 75, 64
1, 23520, Note_on_c, 0, 71, 64
1, 23640, Note_on_c, 1, 66, 0
1, 23640, Note_on_c, 1, 68, 64
1, 23760, Note_on_c, 0, 75, 0
1, 23760, Note_on_c, 0, 73, 64
1, 23760, Note_on_c, 1, 68, 0
1, 23760, Note_on_c, 1, 65, 64
1, 23880, Note_on_c, 0, 71, 0
1, 23880, Note_on_c, 0, 70, 64
1, 23880, Note_on_c, 1, 65, 0
1, 23880, Note_on_c, 1, 66, 64
1, 24000, Note_on_c, 0, 70, 0
1, 24000, Note_on_c, 0, 73, 0
1, 24000, Note_on_c, 0, 71, 64
1, 24000, Note_on_c, 1, 63, 64
1, 24120, Note_on_c, 1, 63, 0
1, 24120, Note_on_c, 1, 59, 66
1, 24180, Note_on_c, 0, 71, 0
1, 24180, Note_on_c, 0, 73, 67
1, 24210, Note_on_c, 0, 73, 0
1, 24210, Note_on_c, 0, 75, 68
1, 24240, Note_on_c, 0, 75, 0
1, 24240, Note_on_c, 0, 76, 68
1, 24240, Note_on_c, 1, 59, 0
1, 24240, Note_on_c, 1, 58, 68
1, 24360, Note_on_c, 0, 76, 0
1, 24360, Note_on_c, 0, 75, 70
1, 24360, Note_on_c, 1, 58, 0
1, 24360, Note_on_c, 1, 59, 70
1, 24480, Note_on_c, 0, 75, 0
1, 24480, Note_on_c, 0, 73, 72
1, 24480, Note_on_c, 1, 59, 0
1, 24480, Note_on_c, 1, 66, 0
1, 24480, Note_on_c, 1, 68, 72
1, 24480, Note_on_c, 1, 64, 72
1, 24510, Note_on_c, 0, 73, 0
1, 24510, Note_on_c, 0, 75, 73
1, 24540, Note_on_c, 0, 75, 0
1, 24540, Note_on_c, 0, 73, 73
1, 24560, Note_on_c, 0, 73, 0
1, 24560, Note_on_c, 0, 75, 73
1, 24580, Note_on_c, 0, 75, 0
1, 24580, Note_on_c, 0, 73, 74
1, 24600, Note_on_c, 0, 73, 0
1, 24600, Note_on_c, 0, 71, 74
1, 24600, Note_on_c, 1, 64, 0
1, 24600, Note_on_c, 1, 68, 0
1, 24600, Note_on_c, 1, 66, 74
1, 24600, Note_on_c, 1, 63, 74
1, 24720, Note_on_c, 1, 63, 0
1, 24720, Note_on_c, 1, 66, 0
1, 24780, Note_on_c, 0, 71, 0
1, 24780, Note_on_c, 0, 73, 77
1, 24810, Note_on_c, 0, 73, 0
1, 24810, Note_on_c, 0, 75, 78
1, 24840, Note_on_c, 0, 75, 0
1, 24840, Note_on_c, 0, 76, 78
1, 24870, Note_on_c, 0, 76, 0
1, 24870, Note_on_c, 0, 78, 79
1, 24900, Note_on_c, 0, 78, 0
1, 24900, Note_on_c, 0, 80, 79
1, 24930, Note_on_c, 0, 80, 0
1, 24930, Note_on_c, 0, 81, 80
1, 24960, Note_on_c, 0, 81, 0
1, 24960, Note_on_c, 0, 83, 80
1, 24960, Note_on_c, 0, 80, 80
1, 25080, Note_on_c, 1, 64, 80
1, 25200, Note_on_c, 1, 64, 0
1, 25200, Note_on_c, 1, 71, 80
1, 25320, Note_on_c, 0, 80, 0
1, 25320, Note_on_c, 0, 83, 0
1, 25320, Note_on_c, 0, 81, 80
1, 25320, Note_on_c, 0, 78, 80
1, 25440, Note_on_c, 0, 78, 0
1, 25440, Note_on_c, 0, 81, 0
1, 25440, Note_on_c, 0, 80, 80
1, 25440, Note_on_c, 0, 76, 80
1, 25560, Note_on_c, 1, 71, 0
1, 25560, Note_on_c, 1, 73, 80
1, 25680, Note_on_c, 0, 80, 0
1, 25680, Note_on_c, 0, 78, 80
1, 25680, Note_on_c, 1, 73, 0
1, 25680, Note_on_c, 1, 70, 80
1, 25800, Note_on_c, 0, 76, 0
1, 25800, Note_on_c, 0, 75, 80
1, 25800, Note_on_c, 1, 70, 0
1, 25800, Note_on_c, 1, 71, 80
1, 25920, Note_on_c, 0, 78, 0
1, 25920, Note_on_c, 0, 76, 80
1, 25920, Note_on_c, 1, 68, 80
1, 26040, Note_on_c, 0, 75, 0
1, 26040, Note_on_c, 0, 73, 80
1, 26040, Note_on_c, 1, 68, 0
1, 26040, Note_on_c, 1, 69, 80
1, 26160, Note_on_c, 0, 76, 0
1, 26160, Note_on_c, 0, 75, 80
1, 26160, Note_on_c, 1, 69, 0
1, 26160, Note_on_c, 1, 71, 0
1, 26160, Note_on_c, 1, 66, 80
1, 26280, Note_on_c, 0, 73, 0
1, 26280, Note_on_c, 0, 72, 80
1, 26280, Note_on_c, 1, 66, 0
1, 26280, Note_on_c, 1, 68, 80
1, 26400, Note_on_c, 0, 72, 0
1, 26400, Note_on_c, 0, 75, 0
1, 26400, Note_on_c, 0, 73, 80
1, 26400, Note_on_c, 1, 64, 80
1, 26520, Note_on_c, 1, 64, 0
1, 26520, Note_on_c, 1, 61, 80
1, 26580, Note_on_c, 0, 73, 0
1, 26580, Note_on_c, 0, 75, 80
1, 26610, Note_on_c, 0, 75, 0
1, 26610, Note_on_c, 0, 76, 80
1, 26640, Note_on_c, 0, 76, 0
1, 26640, Note_on_c, 0, 78, 80
1, 26640, Note_on_c, 1, 61, 0
1, 26640, Note_on_c, 1, 60, 80
1, 26688, Note_on_c, 0, 78, 0
1, 26688, Note_on_c, 1, 60, 0
1, 26760, Note_on_c, 0, 76, 80
1, 26760, Note_on_c, 1, 61, 80
1, 26808, Note_on_c, 0, 76, 0
1, 26808, Note_on_c, 1, 61, 0
1, 26880, Note_on_c, 0, 75, 80
1, 26880, Note_on_c, 0, 72, 80
1, 26880, Note_on_c, 0, 68, 80
1, 26880, Note_on_c, 1, 68, 0
1, 26880, Note_on_c, 1, 56, 80
1, 26920, Note_on_c, 1, 56, 0
1, 26920, Note_on_c, 1, 60, 80
1, 26960, Note_on_c, 1, 60, 0
1, 26960, Note_on_c, 1, 63, 80
1, 27000, Note_on_c, 0, 68, 0
1, 27000, Note_on_c, 0, 72, 0
1, 27000, Note_on_c, 0, 75, 0
1, 27000, Note_on_c, 0, 80, 80
1, 27000, Note_on_c, 1, 63, 0
1, 27000, Note_on_c, 1, 56, 80
1, 27040, Note_on_c, 1, 56, 0
1, 27040, Note_on_c, 1, 60, 80
1, 27060, Note_on_c, 0, 80, 0
1, 27080, Note_on_c, 1, 60, 0
1, 27080, Note_on_c, 1, 63, 80
1, 27120, Note_on_c, 0, 80, 80
1, 27120, Note_on_c, 1, 63, 0
1, 27120, Note_on_c, 1, 56, 80
1, 27160, Note_on_c, 1, 56, 0
1, 27160, Note_on_c, 1, 60, 80
1, 27180, Note_on_c, 0, 80, 0
1, 27200, Note_on_c, 1, 60, 0
1, 27200, Note_on_c, 1, 63, 80
1, 27240, Note_on_c, 0, 80, 80
1, 27240, Note_on_c, 1, 63, 0
1, 27240, Note_on_c, 1, 56, 80
1, 27280, Note_on_c, 1, 56, 0
1, 27280, Note_on_c, 1, 60, 80
1, 27300, Note_on_c, 0, 80, 0
1, 27320, Note_on_c, 1, 60, 0
1, 27320, Note_on_c, 1, 63, 80
1, 27360, Note_on_c, 0, 80, 80
1, 27360, Note_on_c, 1, 63, 0
1, 27360, Note_on_c, 1, 56, 80
1, 27390, Note_on_c, 0, 80, 0
1, 27390, Note_on_c, 0, 81, 80
1, 27400, Note_on_c, 1, 56, 0
1, 27400, Note_on_c, 1, 61, 80
1, 27420, Note_on_c, 0, 81, 0
1, 27420, Note_on_c, 0, 80, 80
1, 27440, Note_on_c, 1, 61, 0
1, 27440, Note_on_c, 1, 64, 80
1, 27450, Note_on_c, 0, 80, 0
1, 27450, Note_on_c, 0, 81, 80
1, 27480, Note_on_c, 0, 81, 0
1, 27480, Note_on_c, 0, 80, 80
1, 27480, Note_on_c, 1, 64, 0
1, 27480, Note_on_c, 1, 56, 80
1, 27500, Note_on_c, 0, 80, 0
1, 27500, Note_on_c, 0, 81, 80
1, 27520, Note_on_c, 0, 81, 0
1, 27520, Note_on_c, 0, 80, 80
1, 27520, Note_on_c, 1, 56, 0
1, 27520, Note_on_c, 1, 61, 80
1, 27540, Note_on_c, 0, 80, 0
1, 27540, Note_on_c, 0, 79, 80
1, 27560, Note_on_c, 1, 61, 0
1, 27560, Note_on_c, 1, 64, 80
1, 27570, Note_on_c, 0, 79, 0
1, 27570, Note_on_c, 0, 80, 80
1, 27600, Note_on_c, 0, 80, 0
1, 27600, Note_on_c, 0, 68, 80
1, 27600, Note_on_c, 1, 64, 0
1, 27600, Note_on_c, 1, 56, 80
1, 27640, Note_on_c, 1, 56, 0
1, 27640, Note_on_c, 1, 61, 80
1, 27680, Note_on_c, 1, 61, 0
1, 27680, Note_on_c, 1, 64, 80
1, 27720, Note_on_c, 1, 64, 0
1, 27720, Note_on_c, 1, 56, 80
1, 27760, Note_on_c, 1, 56, 0
1, 27760, Note_on_c, 1, 61, 80
1, 27800, Note_on_c, 1, 61, 0
1, 27800, Note_on_c, 1, 64, 80
1, 27840, Note_on_c, 0, 68, 0
1, 27840, Note_on_c, 1, 64, 0
1, 27840, Note_on_c, 1, 56, 80
1, 27880, Note_on_c, 1, 56, 0
1, 27880, Note_on_c, 1, 63, 80
1, 27920, Note_on_c, 1, 63, 0
1, 27920, Note_on_c, 1, 66, 80
1, 27960, Note_on_c, 0, 80, 80
1, 27960, Note_on_c, 1, 66, 0
1, 27960, Note_on_c, 1, 56, 80
1, 28000, Note_on_c, 1, 56, 0
1, 28000, Note_on_c, 1, 63, 80
1, 28040, Note_on_c, 1, 63, 0
1, 28040, Note_on_c, 1, 66, 80
1, 28080, Note_on_c, 0, 80, 0
1, 28080, Note_on_c, 0, 80, 80
1, 28080, Note_on_c, 1, 66, 0
1, 28080, Note_on_c, 1, 56, 80
1, 28120, Note_on_c, 1, 56, 0
1, 28120, Note_on_c, 1, 63, 80
1, 28160, Note_on_c, 1, 63, 0
1, 28160, Note_on_c, 1, 66, 80
1, 28200, Note_on_c, 0, 80, 0
1, 28200, Note_on_c, 0, 80, 80
1, 28200, Note_on_c, 1, 66, 0
1, 28200, Note_on_c, 1, 56, 80
1, 28240, Note_on_c, 1, 56, 0
1, 28240, Note_on_c, 1, 63, 80
1, 28280, Note_on_c, 1, 63, 0
1, 28280, Note_on_c, 1, 66, 80
1, 28320, Note_on_c, 0, 80, 0
1, 28320, Note_on_c, 0, 80, 80
1, 28320, Note_on_c, 1, 66, 0
1, 28320, Note_on_c, 1, 56, 80
1, 28350, Note_on_c, 0, 80, 0
1, 28350, Note_on_c, 0, 81, 80
1, 28360, Note_on_c, 1, 56, 0
1, 28360, Note_on_c, 1, 61, 80
1, 28380, Note_on_c, 0, 81, 0
1, 28380, Note_on_c, 0, 80, 80
1, 28400, Note_on_c, 1, 61, 0
1, 28400, Note_on_c, 1, 64, 80
1, 28410, Note_on_c, 0, 80, 0
1, 28410, Note_on_c, 0, 81, 80
1, 28440, Note_on_c, 0, 81, 0
1, 28440, Note_on_c, 0, 80, 80
1, 28440, Note_on_c, 1, 64, 0
1, 28440, Note_on_c, 1, 56, 80
1, 28460, Note_on_c, 0, 80, 0
1, 28465, Note_on_c, 0, 81, 80
1, 28475, Note_on_c, 0, 80, 80
1, 28480, Note_on_c, 1, 56, 0
1, 28480, Note_on_c, 1, 61, 80
1, 28485, Note_on_c, 0, 81, 0
1, 28495, Note_on_c, 0, 80, 0
1, 28500, Note_on_c, 0, 79, 80
1, 28520, Note_on_c, 1, 61, 0
1, 28520, Note_on_c, 1, 64, 80
1, 28530, Note_on_c, 0, 79, 0
1, 28530, Note_on_c, 0, 80, 80
1, 28560, Note_on_c, 0, 80, 0
1, 28560, Note_on_c, 0, 68, 80
1, 28560, Note_on_c, 1, 64, 0
1, 28560, Note_on_c, 1, 56, 80
1, 28600, Note_on_c, 1, 56, 0
1, 28600, Note_on_c, 1, 61, 80
1, 28640, Note_on_c, 1, 61, 0
1, 28640, Note_on_c, 1, 64, 80
1, 28680, Note_on_c, 1, 64, 0
1, 28680, Note_on_c, 1, 56, 80
1, 28720, Note_on_c, 1, 56, 0
1, 28720, Note_on_c, 1, 61, 80
1, 28760, Note_on_c, 1, 61, 0
1, 28760, Note_on_c, 1, 64, 80
1, 28800, Note_on_c, 0, 68, 0
1, 28800, Note_on_c, 1, 64, 0
1, 28800, Note_on_c, 1, 56, 80
1, 28840, Note_on_c, 1, 56, 0
1, 28840, Note_on_c, 1, 59, 80
1, 28880, Note_on_c, 1, 59, 0
1, 28880, Note_on_c, 1, 65, 80
1, 28920, Note_on_c, 0, 86, 80
1, 28920, Note_on_c, 1, 65, 0
1, 28920, Note_on_c, 1, 56, 80
1, 28960, Note_on_c, 1, 56, 0
1, 28960, Note_on_c, 1, 59, 80
1, 28980, Note_on_c, 0, 86, 0
1, 29000, Note_on_c, 1, 59, 0
1, 29000, Note_on_c, 1, 65, 80
1, 29040, Note_on_c, 0, 86, 80
1, 29040, Note_on_c, 1, 65, 0
1, 29040, Note_on_c, 1, 56, 80
1, 29080, Note_on_c, 1, 56, 0
1, 29080, Note_on_c, 1, 59, 80
1, 29100, Note_on_c, 0, 86, 0
1, 29120, Note_on_c, 1, 59, 0
1, 29120, Note_on_c, 1, 65, 80
1, 29160, Note_on_c, 0, 86, 80
1, 29160, Note_on_c, 1, 65, 0
1, 29160, Note_on_c, 1, 56, 80
1, 29200, Note_on_c, 1, 56, 0
1, 29200, Note_on_c, 1, 59, 80
1, 29220, Note_on_c, 0, 86, 0
1, 29240, Note_on_c, 1, 59, 0
1, 29240, Note_on_c, 1, 65, 80
1, 29280, Note_on_c, 0, 86, 80
1, 29280, Note_on_c, 1, 65, 0
1, 29280, Note_on_c, 1, 56, 80
1, 29310, Note_on_c, 0, 86, 0
1, 29310, Note_on_c, 0, 87, 80
1, 29320, Note_on_c, 1, 56, 0
1, 29320, Note_on_c, 1, 59, 80
1, 29340, Note_on_c, 0, 87, 0
1, 29340, Note_on_c, 0, 86, 80
1, 29360, Note_on_c, 1, 59, 0
1, 29360, Note_on_c, 1, 65, 80
1, 29370, Note_on_c, 0, 86, 0
1, 29370, Note_on_c, 0, 87, 80
1, 29400, Note_on_c, 0, 87, 0
1, 29400, Note_on_c, 0, 86, 80
1, 29400, Note_on_c, 1, 65, 0
1, 29400, Note_on_c, 1, 56, 80
1, 29420, Note_on_c, 0, 86, 0
1, 29420, Note_on_c, 0, 87, 80
1, 29440, Note_on_c, 0, 87, 0
1, 29440, Note_on_c, 0, 86, 80
1, 29440, Note_on_c, 1, 56, 0
1, 29440, Note_on_c, 1, 59, 80
1, 29460, Note_on_c, 0, 86, 0
1, 29460, Note_on_c, 0, 85, 80
1, 29480, Note_on_c, 1, 59, 0
1, 29480, Note_on_c, 1, 65, 80
1, 29490, Note_on_c, 0, 85, 0
1, 29490, Note_on_c, 0, 86, 80
1, 29520, Note_on_c, 0, 86, 0
1, 29520, Note_on_c, 0, 77, 80
1, 29520, Note_on_c, 1, 65, 0
1, 29520, Note_on_c, 1, 56, 80
1, 29560, Note_on_c, 1, 56, 0
1, 29560, Note_on_c, 1, 59, 80
1, 29600, Note_on_c, 1, 59, 0
1, 29600, Note_on_c, 1, 65, 80
1, 29640, Note_on_c, 1, 65, 0
1, 29640, Note_on_c, 1, 56, 80
1, 29680, Note_on_c, 1, 56, 0
1, 29680, Note_on_c, 1, 59, 80
1, 29720, Note_on_c, 1, 59, 0
1, 29720, Note_on_c, 1, 65, 80
1, 29760, Note_on_c, 0, 77, 0
1, 29760, Note_on_c, 1, 65, 0
1, 29760, Note_on_c, 1, 66, 80
1, 29760, Note_on_c, 1, 61, 80
1, 29760, Note_on_c, 1, 57, 80
1, 29800, Note_on_c, 0, 85, 80
1, 29840, Note_on_c, 0, 85, 0
1, 29840, Note_on_c, 0, 83, 80
1, 29880, Note_on_c, 0, 83, 0
1, 29880, Note_on_c, 0, 81, 80
1, 29880, Note_on_c, 1, 57, 0
1, 29880, Note_on_c, 1, 61, 0
1, 29880, Note_on_c, 1, 66, 0
1, 29920, Note_on_c, 0, 81, 0
1, 29920, Note_on_c, 0, 80, 80
1, 29960, Note_on_c, 0, 80, 0
1, 29960, Note_on_c, 0, 78, 80
1, 30000, Note_on_c, 0, 78, 0
1, 30000, Note_on_c, 1, 66, 80
1, 30000, Note_on_c, 1, 61, 80
1, 30000, Note_on_c, 1, 57, 80
1, 30040, Note_on_c, 0, 85, 80
1, 30080, Note_on_c, 0, 85, 0
1, 30080, Note_on_c, 0, 83, 80
1, 30120, Note_on_c, 0, 83, 0
1, 30120, Note_on_c, 0, 81, 80
1, 30120, Note_on_c, 1, 57, 0
1, 30120, Note_on_c, 1, 61, 0
1, 30120, Note_on_c, 1, 66, 0
1, 30160, Note_on_c, 0, 81, 0
1, 30160, Note_on_c, 0, 80, 80
1, 30200, Note_on_c, 0, 80, 0
1, 30200, Note_on_c, 0, 78, 80
1, 30240, Note_on_c, 0, 78, 0
1, 30240, Note_on_c, 1, 57, 80
1, 30240, Note_on_c, 1, 61, 80
1, 30280, Note_on_c, 0, 88, 80
1, 30320, Note_on_c, 0, 88, 0
1, 30320, Note_on_c, 0, 87, 80
1, 30360, Note_on_c, 0, 87, 0
1, 30360, Note_on_c, 0, 85, 80
1, 30400, Note_on_c, 0, 85, 0
1, 30400, Note_on_c, 0, 83, 80
1, 30440, Note_on_c, 0, 83, 0
1, 30440, Note_on_c, 0, 81, 80
1, 30480, Note_on_c, 0, 81, 0
1, 30480, Note_on_c, 0, 80, 80
1, 30600, Note_on_c, 0, 80, 0
1, 30600, Note_on_c, 0, 79, 80
1, 30600, Note_on_c, 1, 61, 0
1, 30600, Note_on_c, 1, 57, 0
1, 30600, Note_on_c, 1, 61, 80
1, 30600, Note_on_c, 1, 57, 80
1, 30720, Note_on_c, 0, 79, 0
1, 30720, Note_on_c, 0, 79, 80
1, 30720, Note_on_c, 1, 57, 0
1, 30720, Note_on_c, 1, 61, 0
1, 30720, Note_on_c, 1, 61, 80
1, 30960, Note_on_c, 0, 79, 0
1, 30960, Note_on_c, 0, 80, 80
1, 30960, Note_on_c, 1, 61, 0
1, 30960, Note_on_c, 1, 56, 80
1, 30960, Note_on_c, 1, 60, 80
1, 31200, Note_on_c, 0, 80, 0
1, 31200, Note_on_c, 1, 60, 0
1, 31200, Note_on_c, 1, 56, 0
1, 31680, Note_on_c, 1, 37, 80
1, 31680, Note_on_c, 1, 49, 80
1, 31720, Note_on_c, 0, 73, 80
1, 31760, Note_on_c, 0, 73, 0
1, 31760, Note_on_c, 0, 71, 80
1, 31800, Note_on_c, 0, 71, 0
1, 31800, Note_on_c, 0, 69, 80
1, 31840, Note_on_c, 0, 69, 0
1, 31840, Note_on_c, 0, 68, 80
1, 31880, Note_on_c, 0, 68, 0
1, 31880, Note_on_c, 0, 66, 80
1, 31920, Note_on_c, 0, 66, 0
1, 31920, Note_on_c, 0, 64, 80
1, 31920, Note_on_c, 1, 49, 0
1, 31920, Note_on_c, 1, 37, 0
1, 31960, Note_on_c, 0, 64, 0
1, 31960, Note_on_c, 0, 63, 80
1, 32000, Note_on_c, 0, 63, 0
1, 32000, Note_on_c, 0, 61, 80
1, 32040, Note_on_c, 0, 61, 0
1, 32040, Note_on_c, 0, 60, 80
1, 32040, Note_on_c, 1, 54, 80
1, 32080, Note_on_c, 0, 60, 0
1, 32080, Note_on_c, 0, 63, 80
1, 32100, Note_on_c, 1, 54, 0
1, 32120, Note_on_c, 0, 63, 0
1, 32120, Note_on_c, 0, 68, 80
1, 32160, Note_on_c, 0, 68, 0
1, 32160, Note_on_c, 0, 61, 80
1, 32160, Note_on_c, 1, 52, 80
1, 32200, Note_on_c, 0, 61, 0
1, 32200, Note_on_c, 0, 64, 80
1, 32240, Note_on_c, 0, 64, 0
1, 32240, Note_on_c, 0, 68, 80
1, 32280, Note_on_c, 0, 68, 0
1, 32280, Note_on_c, 0, 63, 80
1, 32280, Note_on_c, 1, 52, 0
1, 32280, Note_on_c, 1, 48, 80
1, 32320, Note_on_c, 0, 63, 0
1, 32320, Note_on_c, 0, 66, 80
1, 32340, Note_on_c, 1, 48, 0
1, 32360, Note_on_c, 0, 66, 0
1, 32360, Note_on_c, 0, 68, 80
1, 32400, Note_on_c, 0, 68, 0
1, 32400, Note_on_c, 0, 64, 80
1, 32400, Note_on_c, 1, 49, 80
1, 32440, Note_on_c, 0, 64, 0
1, 32440, Note_on_c, 0, 66, 80
1, 32460, Note_on_c, 1, 49, 0
1, 32480, Note_on_c, 0, 66, 0
1, 32480, Note_on_c, 0, 68, 80
1, 32520, Note_on_c, 0, 68, 0
1, 32520, Note_on_c, 0, 66, 80
1, 32520, Note_on_c, 1, 51, 80
1, 32560, Note_on_c, 0, 66, 0
1, 32560, Note_on_c, 0, 68, 80
1, 32580, Note_on_c, 1, 51, 0
1, 32600, Note_on_c, 0, 68, 0
1, 32600, Note_on_c, 0, 69, 80
1, 32640, Note_on_c, 0, 69, 0
1, 32640, Note_on_c, 0, 68, 80
1, 32640, Note_on_c, 1, 52, 80
1, 32680, Note_on_c, 0, 68, 0
1, 32680, Note_on_c, 0, 73, 80
1, 32720, Note_on_c, 0, 73, 0
1, 32720, Note_on_c, 0, 71, 80
1, 32760, Note_on_c, 0, 71, 0
1, 32760, Note_on_c, 0, 69, 80
1, 32800, Note_on_c, 0, 69, 0
1, 32800, Note_on_c, 0, 68, 80
1, 32840, Note_on_c, 0, 68, 0
1, 32840, Note_on_c, 0, 66, 80
1, 32880, Note_on_c, 0, 66, 0
1, 32880, Note_on_c, 0, 64, 80
1, 32880, Note_on_c, 1, 52, 0
1, 32920, Note_on_c, 0, 64, 0
1, 32920, Note_on_c, 0, 63, 80
1, 32960, Note_on_c, 0, 63, 0
1, 32960, Note_on_c, 0, 61, 80
1, 33000, Note_on_c, 0, 61, 0
1, 33000, Note_on_c, 0, 60, 80
1, 33000, Note_on_c, 1, 54, 80
1, 33040, Note_on_c, 0, 60, 0
1, 33040, Note_on_c, 0, 63, 80
1, 33060, Note_on_c, 1, 54, 0
1, 33080, Note_on_c, 0, 63, 0
1, 33080, Note_on_c, 0, 68, 80
1, 33120, Note_on_c, 0, 68, 0
1, 33120, Note_on_c, 0, 61, 80
1, 33120, Note_on_c, 1, 52, 80
1, 33160, Note_on_c, 0, 61, 0
1, 33160, Note_on_c, 0, 64, 80
1, 33200, Note_on_c, 0, 64, 0
1, 33200, Note_on_c, 0, 68, 80
1, 33240, Note_on_c, 0, 68, 0
1, 33240, Note_on_c, 0, 63, 80
1, 33240, Note_on_c, 1, 52, 0
1, 33240, Note_on_c, 1, 48, 80
1, 33280, Note_on_c, 0, 63, 0
1, 33280, Note_on_c, 0, 66, 80
1, 33300, Note_on_c, 1, 48, 0
1, 33320, Note_on_c, 0, 66, 0
1, 33320, Note_on_c, 0, 68, 80
1, 33360, Note_on_c, 0, 68, 0
1, 33360, Note_on_c, 0, 64, 80
1, 33360, Note_on_c, 1, 49, 80
1, 33400, Note_on_c, 0, 64, 0
1, 33400, Note_on_c, 0, 66, 80
1, 33420, Note_on_c, 1, 49, 0
1, 33440, Note_on_c, 0, 66, 0
1, 33440, Note_on_c, 0, 68, 80
1, 33480, Note_on_c, 0, 68, 0
1, 33480, Note_on_c, 0, 66, 80
1, 33480, Note_on_c, 1, 51, 80
1, 33520, Note_on_c, 0, 66, 0
1, 33520, Note_on_c, 0, 68, 80
1, 33540, Note_on_c, 1, 51, 0
1, 33560, Note_on_c, 0, 68, 0
1, 33560, Note_on_c, 0, 69, 80
1, 33600, Note_on_c, 0, 69, 0
1, 33600, Note_on_c, 0, 68, 80
1, 33600, Note_on_c, 1, 52, 80
1, 33640, Note_on_c, 0, 68, 0
1, 33640, Note_on_c, 0, 73, 80
1, 33680, Note_on_c, 0, 73, 0
1, 33680, Note_on_c, 0, 71, 80
1, 33720, Note_on_c, 0, 71, 0
1, 33720, Note_on_c, 0, 69, 80
1, 33760, Note_on_c, 0, 69, 0
1, 33760, Note_on_c, 0, 68, 80
1, 33800, Note_on_c, 0, 68, 0
1, 33800, Note_on_c, 0, 66, 80
1, 33840, Note_on_c, 0, 66, 0
1, 33840, Note_on_c, 0, 64, 80
1, 33840, Note_on_c, 1, 52, 0
1, 33880, Note_on_c, 0, 64, 0
1, 33880, Note_on_c, 0, 63, 80
1, 33920, Note_on_c, 0, 63, 0
1, 33920, Note_on_c, 0, 61, 80
1, 33960, Note_on_c, 0, 61, 0
1, 33960, Note_on_c, 0, 60, 80
1, 33960, Note_on_c, 1, 54, 80
1, 34000, Note_on_c, 0, 60, 0
1, 34000, Note_on_c, 0, 63, 80
1, 34040, Note_on_c, 0, 63, 0
1, 34040, Note_on_c, 0, 68, 80
1, 34080, Note_on_c, 0, 68, 0
1, 34080, Note_on_c, 0, 61, 80
1, 34080, Note_on_c, 1, 54, 0
1, 34080, Note_on_c, 1, 52, 80
1, 34120, Note_on_c, 0, 61, 0
1, 34120, Note_on_c, 0, 64, 80
1, 34160, Note_on_c, 0, 64, 0
1, 34160, Note_on_c, 0, 68, 80
1, 34200, Note_on_c, 0, 68, 0
1, 34200, Note_on_c, 0, 61, 80
1, 34240, Note_on_c, 0, 61, 0
1, 34240, Note_on_c, 0, 64, 80
1, 34280, Note_on_c, 0, 64, 0
1, 34280, Note_on_c, 0, 68, 80
1, 34320, Note_on_c, 0, 68, 0
1, 34320, Note_on_c, 0, 59, 80
1, 34320, Note_on_c, 1, 40, 80
1, 34360, Note_on_c, 0, 59, 0
1, 34360, Note_on_c, 0, 62, 80
1, 34400, Note_on_c, 0, 62, 0
1, 34400, Note_on_c, 0, 68, 80
1, 34440, Note_on_c, 0, 68, 0
1, 34440, Note_on_c, 0, 59, 80
1, 34480, Note_on_c, 0, 59, 0
1, 34480, Note_on_c, 0, 62, 80
1, 34520, Note_on_c, 0, 62, 0
1, 34520, Note_on_c, 0, 68, 80
1, 34560, Note_on_c, 0, 68, 0
1, 34560, Note_on_c, 0, 61, 80
1, 34600, Note_on_c, 0, 61, 0
1, 34600, Note_on_c, 0, 64, 80
1, 34640, Note_on_c, 0, 64, 0
1, 34640, Note_on_c, 0, 69, 80
1, 34680, Note_on_c, 0, 69, 0
1, 34680, Note_on_c, 0, 61, 80
1, 34720, Note_on_c, 0, 61, 0
1, 34720, Note_on_c, 0, 64, 80
1, 34760, Note_on_c, 0, 64, 0
1, 34760, Note_on_c, 0, 69, 80
1, 34800, Note_on_c, 0, 69, 0
1, 34800, Note_on_c, 0, 64, 80
1, 34800, Note_on_c, 1, 40, 0
1, 34800, Note_on_c, 1, 44, 80
1, 34840, Note_on_c, 0, 64, 0
1, 34840, Note_on_c, 0, 71, 80
1, 34880, Note_on_c, 0, 71, 0
1, 34880, Note_on_c, 0, 74, 80
1, 34920, Note_on_c, 0, 74, 0
1, 34920, Note_on_c, 0, 64, 80
1, 34960, Note_on_c, 0, 64, 0
1, 34960, Note_on_c, 0, 71, 80
1, 35000, Note_on_c, 0, 71, 0
1, 35000, Note_on_c, 0, 74, 80
1, 35040, Note_on_c, 0, 74, 0
1, 35040, Note_on_c, 0, 64, 80
1, 35040, Note_on_c, 1, 44, 0
1, 35040, Note_on_c, 1, 45, 80
1, 35080, Note_on_c, 0, 64, 0
1, 35080, Note_on_c, 0, 69, 80
1, 35120, Note_on_c, 0, 69, 0
1, 35120, Note_on_c, 0, 73, 80
1, 35160, Note_on_c, 0, 73, 0
1, 35160, Note_on_c, 0, 64, 80
1, 35200, Note_on_c, 0, 64, 0
1, 35200, Note_on_c, 0, 69, 80
1, 35240, Note_on_c, 0, 69, 0
1, 35240, Note_on_c, 0, 73, 80
1, 35280, Note_on_c, 0, 73, 0
1, 35280, Note_on_c, 0, 61, 80
1, 35280, Note_on_c, 1, 45, 0
1, 35280, Note_on_c, 1, 52, 0
1, 35280, Note_on_c, 1, 41, 80
1, 35280, Note_on_c, 1, 49, 80
1, 35320, Note_on_c, 0, 61, 0
1, 35320, Note_on_c, 0, 68, 80
1, 35360, Note_on_c, 0, 68, 0
1, 35360, Note_on_c, 0, 71, 80
1, 35400, Note_on_c, 0, 71, 0
1, 35400, Note_on_c, 0, 61, 80
1, 35440, Note_on_c, 0, 61, 0
1, 35440, Note_on_c, 0, 68, 80
1, 35480, Note_on_c, 0, 68, 0
1, 35480, Note_on_c, 0, 71, 80
1, 35520, Note_on_c, 0, 71, 0
1, 35520, Note_on_c, 0, 61, 80
1, 35520, Note_on_c, 1, 49, 0
1, 35520, Note_on_c, 1, 41, 0
1, 35520, Note_on_c, 1, 42, 80
1, 35520, Note_on_c, 1, 54, 80
1, 35560, Note_on_c, 0, 61, 0
1, 35560, Note_on_c, 0, 66, 80
1, 35600, Note_on_c, 0, 66, 0
1, 35600, Note_on_c, 0, 70, 80
1, 35640, Note_on_c, 0, 70, 0
1, 35640, Note_on_c, 0, 61, 80
1, 35680, Note_on_c, 0, 61, 0
1, 35680, Note_on_c, 0, 67, 80
1, 35720, Note_on_c, 0, 67, 0
1, 35720, Note_on_c, 0, 70, 80
1, 35760, Note_on_c, 0, 70, 0
1, 35760, Note_on_c, 0, 61, 80
1, 35800, Note_on_c, 0, 61, 0
1, 35800, Note_on_c, 0, 66, 80
1, 35840, Note_on_c, 0, 66, 0
1, 35840, Note_on_c, 0, 70, 80
1, 35880, Note_on_c, 0, 70, 0
1, 35880, Note_on_c, 0, 61, 80
1, 35920, Note_on_c, 0, 61, 0
1, 35920, Note_on_c, 0, 64, 80
1, 35960, Note_on_c, 0, 64, 0
1, 35960, Note_on_c, 0, 70, 80
1, 36000, Note_on_c, 0, 70, 0
1, 36000, Note_on_c, 0, 59, 80
1, 36000, Note_on_c, 1, 54, 0
1, 36000, Note_on_c, 1, 42, 0
1, 36000, Note_on_c, 1, 35, 80
1, 36000, Note_on_c, 1, 47, 80
1, 36040, Note_on_c, 0, 59, 0
1, 36040, Note_on_c, 0, 63, 80
1, 36080, Note_on_c, 0, 63, 0
1, 36080, Note_on_c, 0, 69, 80
1, 36120, Note_on_c, 0, 69, 0
1, 36120, Note_on_c, 0, 60, 80
1, 36160, Note_on_c, 0, 60, 0
1, 36160, Note_on_c, 0, 63, 80
1, 36200, Note_on_c, 0, 63, 0
1, 36200, Note_on_c, 0, 69, 80
1, 36240, Note_on_c, 0, 69, 0
1, 36240, Note_on_c, 0, 59, 80
1, 36280, Note_on_c, 0, 59, 0
1, 36280, Note_on_c, 0, 63, 80
1, 36320, Note_on_c, 0, 63, 0
1, 36320, Note_on_c, 0, 69, 80
1, 36360, Note_on_c, 0, 69, 0
1, 36360, Note_on_c, 0, 57, 80
1, 36400, Note_on_c, 0, 57, 0
1, 36400, Note_on_c, 0, 63, 80
1, 36440, Note_on_c, 0, 63, 0
1, 36440, Note_on_c, 0, 69, 80
1, 36480, Note_on_c, 0, 69, 0
1, 36480, Note_on_c, 0, 59, 80
1, 36480, Note_on_c, 1, 47, 0
1, 36480, Note_on_c, 1, 35, 0
1, 36480, Note_on_c, 1, 40, 80
1, 36480, Note_on_c, 1, 52, 80
1, 36520, Note_on_c, 0, 59, 0
1, 36520, Note_on_c, 0, 64, 80
1, 36560, Note_on_c, 0, 64, 0
1, 36560, Note_on_c, 0, 68, 81
1, 36600, Note_on_c, 0, 68, 0
1, 36600, Note_on_c, 0, 59, 81
1, 36600, Note_on_c, 1, 52, 0
1, 36600, Note_on_c, 1, 40, 0
1, 36600, Note_on_c, 1, 41, 81
1, 36600, Note_on_c, 1, 53, 81
1, 36640, Note_on_c, 0, 59, 0
1, 36640, Note_on_c, 0, 64, 81
1, 36680, Note_on_c, 0, 64, 0
1, 36680, Note_on_c, 0, 68, 82
1, 36720, Note_on_c, 0, 68, 0
1, 36720, Note_on_c, 0, 59, 82
1, 36720, Note_on_c, 1, 53, 0
1, 36720, Note_on_c, 1, 41, 0
1, 36720, Note_on_c, 1, 40, 82
1, 36720, Note_on_c, 1, 52, 82
1, 36760, Note_on_c, 0, 59, 0
1, 36760, Note_on_c, 0, 64, 82
1, 36800, Note_on_c, 0, 64, 0
1, 36800, Note_on_c, 0, 68, 83
1, 36840, Note_on_c, 0, 68, 0
1, 36840, Note_on_c, 0, 59, 83
1, 36840, Note_on_c, 1, 52, 0
1, 36840, Note_on_c, 1, 40, 0
1, 36840, Note_on_c, 1, 38, 83
1, 36840, Note_on_c, 1, 50, 83
1, 36880, Note_on_c, 0, 59, 0
1, 36880, Note_on_c, 0, 64, 83
1, 36920, Note_on_c, 0, 64, 0
1, 36920, Note_on_c, 0, 68, 84
1, 36960, Note_on_c, 0, 68, 0
1, 36960, Note_on_c, 0, 57, 84
1, 36960, Note_on_c, 1, 50, 0
1, 36960, Note_on_c, 1, 38, 0
1, 36960, Note_on_c, 1, 37, 84
1, 36960, Note_on_c, 1, 49, 84
1, 37000, Note_on_c, 0, 57, 0
1, 37000, Note_on_c, 0, 64, 84
1, 37040, Note_on_c, 0, 64, 0
1, 37040, Note_on_c, 0, 69, 85
1, 37080, Note_on_c, 0, 69, 0
1, 37080, Note_on_c, 0, 57, 85
1, 37120, Note_on_c, 0, 57, 0
1, 37120, Note_on_c, 0, 64, 85
1, 37160, Note_on_c, 0, 64, 0
1, 37160, Note_on_c, 0, 69, 86
1, 37200, Note_on_c, 0, 69, 0
1, 37200, Note_on_c, 0, 61, 86
1, 37200, Note_on_c, 1, 49, 0
1, 37200, Note_on_c, 1, 37, 0
1, 37200, Note_on_c, 1, 42, 86
1, 37200, Note_on_c, 1, 54, 86
1, 37240, Note_on_c, 0, 61, 0
1, 37240, Note_on_c, 0, 64, 86
1, 37280, Note_on_c, 0, 64, 0
1, 37280, Note_on_c, 0, 70, 87
1, 37320, Note_on_c, 0, 70, 0
1, 37320, Note_on_c, 0, 61, 87
1, 37360, Note_on_c, 0, 61, 0
1, 37360, Note_on_c, 0, 64, 87
1, 37400, Note_on_c, 0, 64, 0
1, 37400, Note_on_c, 0, 70, 88
1, 37440, Note_on_c, 0, 70, 0
1, 37440, Note_on_c, 0, 59, 88
1, 37440, Note_on_c, 1, 54, 0
1, 37440, Note_on_c, 1, 42, 0
1, 37440, Note_on_c, 1, 35, 88
1, 37440, Note_on_c, 1, 47, 88
1, 37480, Note_on_c, 0, 59, 0
1, 37480, Note_on_c, 0, 63, 88
1, 37520, Note_on_c, 0, 63, 0
1, 37520, Note_on_c, 0, 66, 88
1, 37560, Note_on_c, 0, 66, 0
1, 37560, Note_on_c, 0, 71, 88
1, 37600, Note_on_c, 0, 71, 0
1, 37600, Note_on_c, 0, 66, 88
1, 37640, Note_on_c, 0, 66, 0
1, 37640, Note_on_c, 0, 63, 88
1, 37680, Note_on_c, 0, 63, 0
1, 37680, Note_on_c, 0, 59, 88
1, 37680, Note_on_c, 1, 47, 0
1, 37680, Note_on_c, 1, 35, 0
1, 37720, Note_on_c, 0, 59, 0
1, 37720, Note_on_c, 0, 63, 88
1, 37760, Note_on_c, 0, 63, 0
1, 37760, Note_on_c, 0, 66, 88
1, 37800, Note_on_c, 0, 66, 0
1, 37800, Note_on_c, 0, 61, 88
1, 37800, Note_on_c, 1, 42, 88
1, 37800, Note_on_c, 1, 54, 88
1, 37840, Note_on_c, 0, 61, 0
1, 37840, Note_on_c, 0, 64, 88
1, 37860, Note_on_c, 1, 54, 0
1, 37860, Note_on_c, 1, 42, 0
1, 37880, Note_on_c, 0, 64, 0
1, 37880, Note_on_c, 0, 70, 88
1, 37920, Note_on_c, 0, 70, 0
1, 37920, Note_on_c, 0, 59, 88
1, 37920, Note_on_c, 1, 35, 88
1, 37920, Note_on_c, 1, 47, 88
1, 37960, Note_on_c, 0, 59, 0
1, 37960, Note_on_c, 0, 63, 88
1, 38000, Note_on_c, 0, 63, 0
1, 38000, Note_on_c, 0, 66, 88
1, 38040, Note_on_c, 0, 66, 0
1, 38040, Note_on_c, 0, 71, 88
1, 38080, Note_on_c, 0, 71, 0
1, 38080, Note_on_c, 0, 66, 88
1, 38120, Note_on_c, 0, 66, 0
1, 38120, Note_on_c, 0, 63, 88
1, 38160, Note_on_c, 0, 63, 0
1, 38160, Note_on_c, 0, 59, 88
1, 38160, Note_on_c, 1, 47, 0
1, 38160, Note_on_c, 1, 35, 0
1, 38200, Note_on_c, 0, 59, 0
1, 38200, Note_on_c, 0, 63, 88
1, 38240, Note_on_c, 0, 63, 0
1, 38240, Note_on_c, 0, 66, 88
1, 38280, Note_on_c, 0, 66, 0
1, 38280, Note_on_c, 0, 61, 88
1, 38280, Note_on_c, 1, 42, 88
1, 38280, Note_on_c, 1, 54, 88
1, 38320, Note_on_c, 0, 61, 0
1, 38320, Note_on_c, 0, 64, 88
1, 38360, Note_on_c, 0, 64, 0
1, 38360, Note_on_c, 0, 70, 88
1, 38400, Note_on_c, 0, 70, 0
1, 38400, Note_on_c, 0, 59, 88
1, 38400, Note_on_c, 1, 54, 0
1, 38400, Note_on_c, 1, 42, 0
1, 38400, Note_on_c, 1, 35, 88
1, 38400, Note_on_c, 1, 47, 88
1, 38440, Note_on_c, 0, 59, 0
1, 38440, Note_on_c, 0, 63, 88
1, 38480, Note_on_c, 0, 63, 0
1, 38480, Note_on_c, 0, 66, 88
1, 38520, Note_on_c, 0, 66, 0
1, 38520, Note_on_c, 0, 71, 88
1, 38560, Note_on_c, 0, 71, 0
1, 38560, Note_on_c, 0, 66, 88
1, 38600, Note_on_c, 0, 66, 0
1, 38600, Note_on_c, 0, 63, 88
1, 38640, Note_on_c, 0, 63, 0
1, 38640, Note_on_c, 1, 47, 0
1, 38640, Note_on_c, 1, 35, 0
1, 38640, Note_on_c, 1, 59, 88
1, 38680, Note_on_c, 1, 59, 0
1, 38680, Note_on_c, 1, 54, 88
1, 38720, Note_on_c, 1, 54, 0
1, 38720, Note_on_c, 1, 51, 88
1, 38760, Note_on_c, 1, 51, 0
1, 38760, Note_on_c, 1, 47, 88
1, 38800, Note_on_c, 1, 47, 0
1, 38800, Note_on_c, 1, 42, 88
1, 38840, Note_on_c, 1, 42, 0
1, 38840, Note_on_c, 1, 39, 88
1, 38880, Note_on_c, 1, 39, 0
1, 38880, Note_on_c, 1, 35, 88
1, 39000, Note_on_c, 1, 35, 0
1, 39160, Note_on_c, 0, 75, 64
1, 39200, Note_on_c, 0, 75, 0
1, 39200, Note_on_c, 0, 76, 64
1, 39240, Note_on_c, 0, 76, 0
1, 39240, Note_on_c, 0, 78, 64
1, 39280, Note_on_c, 0, 78, 0
1, 39280, Note_on_c, 0, 80, 64
1, 39320, Note_on_c, 0, 80, 0
1, 39320, Note_on_c, 0, 81, 64
1, 39360, Note_on_c, 0, 81, 0
1, 39360, Note_on_c, 0, 83, 64
1, 39360, Note_on_c, 0, 80, 64
1, 39400, Note_on_c, 1, 63, 64
1, 39440, Note_on_c, 1, 63, 0
1, 39440, Note_on_c, 1, 64, 64
1, 39480, Note_on_c, 1, 64, 0
1, 39480, Note_on_c, 1, 66, 64
1, 39520, Note_on_c, 1, 66, 0
1, 39520, Note_on_c, 1, 68, 64
1, 39560, Note_on_c, 1, 68, 0
1, 39560, Note_on_c, 1, 69, 64
1, 39600, Note_on_c, 1, 69, 0
1, 39600, Note_on_c, 1, 71, 64
1, 39720, Note_on_c, 0, 80, 0
1, 39720, Note_on_c, 0, 83, 0
1, 39720, Note_on_c, 0, 81, 64
1, 39720, Note_on_c, 0, 78, 64
1, 39840, Note_on_c, 0, 78, 0
1, 39840, Note_on_c, 0, 81, 0
1, 39840, Note_on_c, 0, 80, 64
1, 39840, Note_on_c, 0, 76, 64
1, 39960, Note_on_c, 1, 71, 0
1, 39960, Note_on_c, 1, 73, 64
1, 40080, Note_on_c, 0, 80, 0
1, 40080, Note_on_c, 0, 78, 64
1, 40080, Note_on_c, 1, 73, 0
1, 40080, Note_on_c, 1, 70, 64
1, 40200, Note_on_c, 0, 76, 0
1, 40200, Note_on_c, 0, 75, 64
1, 40200, Note_on_c, 1, 70, 0
1, 40200, Note_on_c, 1, 71, 64
1, 40320, Note_on_c, 0, 75, 0
1, 40320, Note_on_c, 0, 78, 0
1, 40320, Note_on_c, 0, 76, 64
1, 40320, Note_on_c, 1, 68, 64
1, 40440, Note_on_c, 1, 68, 0
1, 40440, Note_on_c, 1, 64, 64
1, 40500, Note_on_c, 0, 76, 0
1, 40500, Note_on_c, 0, 78, 64
1, 40530, Note_on_c, 0, 78, 0
1, 40530, Note_on_c, 0, 80, 64
1, 40560, Note_on_c, 0, 80, 0
1, 40560, Note_on_c, 0, 81, 64
1, 40560, Note_on_c, 1, 64, 0
1, 40560, Note_on_c, 1, 63, 64
1, 40680, Note_on_c, 0, 81, 0
1, 40680, Note_on_c, 0, 80, 64
1, 40680, Note_on_c, 1, 63, 0
1, 40680, Note_on_c, 1, 64, 64
1, 40800, Note_on_c, 0, 80, 0
1, 40800, Note_on_c, 0, 78, 64
1, 40800, Note_on_c, 1, 64, 0
1, 40800, Note_on_c, 1, 71, 0
1, 40800, Note_on_c, 1, 69, 64
1, 40800, Note_on_c, 1, 73, 64
1, 40830, Note_on_c, 0, 78, 0
1, 40830, Note_on_c, 0, 80, 64
1, 40860, Note_on_c, 0, 80, 0
1, 40860, Note_on_c, 0, 78, 64
1, 40860, Note_on_c, 1, 73, 0
1, 40860, Note_on_c, 1, 69, 0
1, 40880, Note_on_c, 0, 78, 0
1, 40880, Note_on_c, 0, 80, 64
1, 40900, Note_on_c, 0, 80, 0
1, 40900, Note_on_c, 0, 78, 64
1, 40920, Note_on_c, 0, 78, 0
1, 40920, Note_on_c, 0, 76, 64
1, 40920, Note_on_c, 1, 68, 64
1, 40920, Note_on_c, 1, 71, 64
1, 40980, Note_on_c, 0, 76, 0
1, 40980, Note_on_c, 1, 71, 0
1, 40980, Note_on_c, 1, 68, 0
1, 41280, Note_on_c, 0, 68, 64
1, 41280, Note_on_c, 0, 71, 64
1, 41400, Note_on_c, 1, 52, 64
1, 41520, Note_on_c, 1, 52, 0
1, 41520, Note_on_c, 1, 59, 64
1, 41640, Note_on_c, 0, 71, 0
1, 41640, Note_on_c, 0, 68, 0
1, 41640, Note_on_c, 0, 67, 64
1, 41640, Note_on_c, 0, 70, 64
1, 41760, Note_on_c, 0, 70, 0
1, 41760, Note_on_c, 0, 67, 0
1, 41760, Note_on_c, 0, 66, 64
1, 41760, Note_on_c, 0, 69, 64
1, 41880, Note_on_c, 0, 69, 0
1, 41880, Note_on_c, 0, 66, 0
1, 41880, Note_on_c, 0, 65, 64
1, 41880, Note_on_c, 0, 68, 64
1, 41880, Note_on_c, 1, 59, 0
1, 41880, Note_on_c, 1, 61, 64
1, 42000, Note_on_c, 0, 68, 0
1, 42000, Note_on_c, 0, 65, 0
1, 42000, Note_on_c, 0, 64, 64
1, 42000, Note_on_c, 0, 67, 64
1, 42000, Note_on_c, 1, 61, 0
1, 42000, Note_on_c, 1, 58, 64
1, 42120, Note_on_c, 0, 67, 0
1, 42120, Note_on_c, 0, 64, 0
1, 42120, Note_on_c, 0, 63, 64
1, 42120, Note_on_c, 0, 66, 64
1, 42120, Note_on_c, 1, 58, 0
1, 42120, Note_on_c, 1, 59, 64
1, 42240, Note_on_c, 0, 66, 0
1, 42240, Note_on_c, 0, 63, 0
1, 42240, Note_on_c, 0, 64, 64
1, 42240, Note_on_c, 1, 56, 64
1, 42360, Note_on_c, 1, 56, 0
1, 42360, Note_on_c, 1, 52, 64
1, 42420, Note_on_c, 0, 64, 0
1, 42420, Note_on_c, 0, 66, 64
1, 42450, Note_on_c, 0, 66, 0
1, 42450, Note_on_c, 0, 68, 64
1, 42480, Note_on_c, 0, 68, 0
1, 42480, Note_on_c, 0, 69, 64
1, 42480, Note_on_c, 1, 52, 0
1, 42480, Note_on_c, 1, 51, 64
1, 42600, Note_on_c, 0, 69, 0
1, 42600, Note_on_c, 0, 68, 64
1, 42600, Note_on_c, 1, 51, 0
1, 42600, Note_on_c, 1, 52, 64
1, 42720, Note_on_c, 0, 68, 0
1, 42720, Note_on_c, 0, 64, 64
1, 42720, Note_on_c, 0, 69, 64
1, 42720, Note_on_c, 0, 73, 64
1, 42720, Note_on_c, 1, 52, 0
1, 42720, Note_on_c, 1, 59, 0
1, 42720, Note_on_c, 1, 45, 64
1, 42768, Note_on_c, 0, 73, 0
1, 42768, Note_on_c, 0, 69, 0
1, 42768, Note_on_c, 0, 64, 0
1, 42768, Note_on_c, 1, 45, 0
1, 42840, Note_on_c, 0, 64, 64
1, 42840, Note_on_c, 0, 68, 64
1, 42840, Note_on_c, 0, 71, 64
1, 42840, Note_on_c, 1, 52, 64
1, 42888, Note_on_c, 0, 71, 0
1, 42888, Note_on_c, 0, 68, 0
1, 42888, Note_on_c, 0, 64, 0
1, 42888, Note_on_c, 1, 52, 0
1, 43140, Note_on_c, 0, 64, 80
1, 43200, Note_on_c, 0, 64, 0
1, 43200, Note_on_c, 0, 76, 80
1, 43320, Note_on_c, 1, 44, 80
1, 43320, Note_on_c, 1, 32, 80
1, 43368, Note_on_c, 1, 32, 0
1, 43368, Note_on_c, 1, 44, 0
1, 43440, Note_on_c, 1, 44, 80
1, 43440, Note_on_c, 1, 32, 80
1, 43480, Note_on_c, 0, 76, 0
1, 43480, Note_on_c, 0, 75, 80
1, 43488, Note_on_c, 1, 32, 0
1, 43488, Note_on_c, 1, 44, 0
1, 43520, Note_on_c, 0, 75, 0
1, 43520, Note_on_c, 0, 73, 80
1, 43560, Note_on_c, 0, 73, 0
1, 43560, Note_on_c, 0, 71, 80
1, 43600, Note_on_c, 0, 71, 0
1, 43600, Note_on_c, 0, 69, 80
1, 43640, Note_on_c, 0, 69, 0
1, 43640, Note_on_c, 0, 68, 80
1, 43680, Note_on_c, 0, 68, 0
1, 43680, Note_on_c, 0, 66, 80
1, 43800, Note_on_c, 0, 66, 0
1, 43800, Note_on_c, 1, 45, 80
1, 43800, Note_on_c, 1, 33, 80
1, 43848, Note_on_c, 1, 33, 0
1, 43848, Note_on_c, 1, 45, 0
1, 43920, Note_on_c, 1, 45, 80
1, 43920, Note_on_c, 1, 33, 80
1, 43960, Note_on_c, 0, 85, 80
1, 43968, Note_on_c, 1, 33, 0
1, 43968, Note_on_c, 1, 45, 0
1, 44000, Note_on_c, 0, 85, 0
1, 44000, Note_on_c, 0, 83, 80
1, 44040, Note_on_c, 0, 83, 0
1, 44040, Note_on_c, 0, 81, 80
1, 44080, Note_on_c, 0, 81, 0
1, 44080, Note_on_c, 0, 80, 80
1, 44120, Note_on_c, 0, 80, 0
1, 44120, Note_on_c, 0, 78, 80
1, 44160, Note_on_c, 0, 78, 0
1, 44160, Note_on_c, 0, 76, 80
1, 44200, Note_on_c, 0, 76, 0
1, 44200, Note_on_c, 0, 75, 80
1, 44240, Note_on_c, 0, 75, 0
1, 44240, Note_on_c, 0, 73, 80
1, 44280, Note_on_c, 0, 73, 0
1, 44280, Note_on_c, 0, 71, 80
1, 44280, Note_on_c, 1, 47, 80
1, 44280, Note_on_c, 1, 35, 80
1, 44320, Note_on_c, 0, 71, 0
1, 44320, Note_on_c, 0, 69, 80
1, 44328, Note_on_c, 1, 35, 0
1, 44328, Note_on_c, 1, 47, 0
1, 44360, Note_on_c, 0, 69, 0
1, 44360, Note_on_c, 0, 68, 80
1, 44400, Note_on_c, 0, 68, 0
1, 44400, Note_on_c, 0, 66, 80
1, 44400, Note_on_c, 1, 47, 80
1, 44400, Note_on_c, 1, 35, 80
1, 44440, Note_on_c, 0, 66, 0
1, 44440, Note_on_c, 0, 64, 80
1, 44448, Note_on_c, 1, 35, 0
1, 44448, Note_on_c, 1, 47, 0
1, 44480, Note_on_c, 0, 64, 0
1, 44480, Note_on_c, 0, 63, 80
1, 44520, Note_on_c, 0, 63, 0
1, 44520, Note_on_c, 0, 61, 80
1, 44520, Note_on_c, 1, 47, 80
1, 44520, Note_on_c, 1, 35, 80
1, 44560, Note_on_c, 0, 61, 0
1, 44560, Note_on_c, 0, 59, 80
1, 44568, Note_on_c, 1, 35, 0
1, 44568, Note_on_c, 1, 47, 0
1, 44600, Note_on_c, 0, 59, 0
1, 44600, Note_on_c, 0, 57, 80
1, 44620, Note_on_c, 0, 57, 0
1, 44620, Note_on_c, 0, 59, 80
1, 44640, Note_on_c, 0, 59, 0
1, 44640, Note_on_c, 0, 57, 80
1, 44670, Note_on_c, 0, 57, 0
1, 44670, Note_on_c, 0, 59, 80
1, 44700, Note_on_c, 0, 59, 0
1, 44700, Note_on_c, 0, 57, 80
1, 44730, Note_on_c, 0, 57, 0
1, 44730, Note_on_c, 0, 59, 80
1, 44760, Note_on_c, 0, 59, 0
1, 44760, Note_on_c, 0, 57, 80
1, 44760, Note_on_c, 1, 52, 80
1, 44760, Note_on_c, 1, 40, 80
1, 44780, Note_on_c, 0, 57, 0
1, 44780, Note_on_c, 0, 59, 80
1, 44800, Note_on_c, 0, 59, 0
1, 44800, Note_on_c, 0, 57, 80
1, 44808, Note_on_c, 1, 40, 0
1, 44808, Note_on_c, 1, 52, 0
1, 44820, Note_on_c, 0, 57, 0
1, 44820, Note_on_c, 0, 56, 80
1, 44850, Note_on_c, 0, 56, 0
1, 44850, Note_on_c, 0, 57, 80
1, 44880, Note_on_c, 0, 57, 0
1, 44880, Note_on_c, 0, 56, 80
1, 44880, Note_on_c, 1, 52, 80
1, 44880, Note_on_c, 1, 40, 80
1, 44928, Note_on_c, 1, 40, 0
1, 44928, Note_on_c, 1, 52, 0
1, 45000, Note_on_c, 0, 56, 0
1, 45000, Note_on_c, 1, 52, 80
1, 45000, Note_on_c, 1, 40, 80
1, 45048, Note_on_c, 1, 40, 0
1, 45048, Note_on_c, 1, 52, 0
1, 45120, Note_on_c, 0, 76, 80
1, 45240, Note_on_c, 1, 32, 80
1, 45240, Note_on_c, 1, 44, 80
1, 45288, Note_on_c, 1, 44, 0
1, 45288, Note_on_c, 1, 32, 0
1, 45360, Note_on_c, 1, 32, 80
1, 45360, Note_on_c, 1, 44, 80
1, 45400, Note_on_c, 0, 76, 0
1, 45400, Note_on_c, 0, 75, 80
1, 45408, Note_on_c, 1, 44, 0
1, 45408, Note_on_c, 1, 32, 0
1, 45440, Note_on_c, 0, 75, 0
1, 45440, Note_on_c, 0, 73, 80
1, 45480, Note_on_c, 0, 73, 0
1, 45480, Note_on_c, 0, 71, 80
1, 45520, Note_on_c, 0, 71, 0
1, 45520, Note_on_c, 0, 69, 80
1, 45560, Note_on_c, 0, 69, 0
1, 45560, Note_on_c, 0, 68, 80
1, 45600, Note_on_c, 0, 68, 0
1, 45600, Note_on_c, 0, 66, 80
1, 45720, Note_on_c, 0, 66, 0
1, 45720, Note_on_c, 1, 33, 80
1, 45720, Note_on_c, 1, 45, 80
1, 45768, Note_on_c, 1, 45, 0
1, 45768, Note_on_c, 1, 33, 0
1, 45840, Note_on_c, 1, 33, 80
1, 45840, Note_on_c, 1, 45, 80
1, 45880, Note_on_c, 0, 88, 80
1, 45888, Note_on_c, 1, 45, 0
1, 45888, Note_on_c, 1, 33, 0
1, 45920, Note_on_c, 0, 88, 0
1, 45920, Note_on_c, 0, 87, 80
1, 45960, Note_on_c, 0, 87, 0
1, 45960, Note_on_c, 0, 85, 80
1, 46000, Note_on_c, 0, 85, 0
1, 46000, Note_on_c, 0, 83, 80
1, 46040, Note_on_c, 0, 83, 0
1, 46040, Note_on_c, 0, 81, 80
1, 46080, Note_on_c, 0, 81, 0
1, 46080, Note_on_c, 0, 80, 80
1, 46120, Note_on_c, 0, 80, 0
1, 46120, Note_on_c, 0, 78, 80
1, 46160, Note_on_c, 0, 78, 0
1, 46160, Note_on_c, 0, 76, 80
1, 46200, Note_on_c, 0, 76, 0
1, 46200, Note_on_c, 0, 75, 80
1, 46200, Note_on_c, 1, 35, 80
1, 46200, Note_on_c, 1, 47, 80
1, 46240, Note_on_c, 0, 75, 0
1, 46240, Note_on_c, 0, 73, 80
1, 46248, Note_on_c, 1, 47, 0
1, 46248, Note_on_c, 1, 35, 0
1, 46280, Note_on_c, 0, 73, 0
1, 46280, Note_on_c, 0, 71, 80
1, 46320, Note_on_c, 0, 71, 0
1, 46320, Note_on_c, 0, 69, 80
1, 46320, Note_on_c, 1, 35, 80
1, 46320, Note_on_c, 1, 47, 80
1, 46360, Note_on_c, 0, 69, 0
1, 46360, Note_on_c, 0, 68, 80
1, 46368, Note_on_c, 1, 47, 0
1, 46368, Note_on_c, 1, 35, 0
1, 46400, Note_on_c, 0, 68, 0
1, 46400, Note_on_c, 0, 66, 80
1, 46440, Note_on_c, 0, 66, 0
1, 46440, Note_on_c, 0, 64, 80
1, 46440, Note_on_c, 1, 35, 80
1, 46440, Note_on_c, 1, 47, 80
1, 46480, Note_on_c, 0, 64, 0
1, 46480, Note_on_c, 0, 63, 80
1, 46488, Note_on_c, 1, 47, 0
1, 46488, Note_on_c, 1, 35, 0
1, 46520, Note_on_c, 0, 63, 0
1, 46520, Note_on_c, 0, 69, 80
1, 46560, Note_on_c, 0, 69, 0
1, 46560, Note_on_c, 0, 68, 80
1, 46600, Note_on_c, 0, 68, 0
1, 46600, Note_on_c, 0, 66, 80
1, 46640, Note_on_c, 0, 66, 0
1, 46640, Note_on_c, 0, 64, 80
1, 46680, Note_on_c, 0, 64, 0
1, 46680, Note_on_c, 0, 64, 80
1, 46680, Note_on_c, 1, 52, 80
1, 46720, Note_on_c, 1, 52, 0
1, 46720, Note_on_c, 1, 56, 80
1, 46760, Note_on_c, 1, 56, 0
1, 46760, Note_on_c, 1, 59, 80
1, 46800, Note_on_c, 0, 64, 0
1, 46800, Note_on_c, 1, 59, 0
1, 46800, Note_on_c, 1, 64, 80
1, 46840, Note_on_c, 1, 64, 0
1, 46840, Note_on_c, 1, 59, 80
1, 46880, Note_on_c, 1, 59, 0
1, 46880, Note_on_c, 1, 56, 80
1, 46920, Note_on_c, 1, 56, 0
1, 46920, Note_on_c, 1, 62, 80
1, 46960, Note_on_c, 1, 62, 0
1, 46960, Note_on_c, 1, 59, 80
1, 47000, Note_on_c, 1, 59, 0
1, 47000, Note_on_c, 1, 56, 80
1, 47040, Note_on_c, 0, 73, 64
1, 47040, Note_on_c, 1, 56, 0
1, 47040, Note_on_c, 1, 53, 64
1, 47160, Note_on_c, 1, 53, 0
1, 47160, Note_on_c, 1, 66, 64
1, 47160, Note_on_c, 1, 69, 64
1, 47250, Note_on_c, 0, 73, 0
1, 47250, Note_on_c, 0, 85, 64
1, 47280, Note_on_c, 0, 85, 0
1, 47280, Note_on_c, 0, 86, 64
1, 47280, Note_on_c, 1, 69, 0
1, 47280, Note_on_c, 1, 66, 0
1, 47280, Note_on_c, 1, 65, 64
1, 47280, Note_on_c, 1, 68, 64
1, 47310, Note_on_c, 0, 86, 0
1, 47310, Note_on_c, 0, 85, 64
1, 47340, Note_on_c, 0, 85, 0
1, 47340, Note_on_c, 0, 84, 64
1, 47370, Note_on_c, 0, 84, 0
1, 47370, Note_on_c, 0, 85, 64
1, 47400, Note_on_c, 0, 85, 0
1, 47400, Note_on_c, 0, 86, 64
1, 47400, Note_on_c, 1, 68, 0
1, 47400, Note_on_c, 1, 65, 0
1, 47400, Note_on_c, 1, 77, 64
1, 47400, Note_on_c, 1, 80, 64
1, 47490, Note_on_c, 0, 86, 0
1, 47490, Note_on_c, 0, 85, 64
1, 47520, Note_on_c, 0, 85, 0
1, 47520, Note_on_c, 0, 83, 64
1, 47520, Note_on_c, 1, 80, 0
1, 47520, Note_on_c, 1, 77, 0
1, 47640, Note_on_c, 1, 66, 64
1, 47640, Note_on_c, 1, 73, 64
1, 47730, Note_on_c, 0, 83, 0
1, 47730, Note_on_c, 0, 81, 64
1, 47760, Note_on_c, 0, 81, 0
1, 47760, Note_on_c, 0, 83, 64
1, 47760, Note_on_c, 1, 73, 0
1, 47760, Note_on_c, 1, 66, 0
1, 47760, Note_on_c, 1, 66, 64
1, 47760, Note_on_c, 1, 73, 64
1, 47790, Note_on_c, 0, 83, 0
1, 47790, Note_on_c, 0, 81, 64
1, 47820, Note_on_c, 0, 81, 0
1, 47820, Note_on_c, 0, 80, 64
1, 47850, Note_on_c, 0, 80, 0
1, 47850, Note_on_c, 0, 81, 64
1, 47880, Note_on_c, 0, 81, 0
1, 47880, Note_on_c, 0, 85, 64
1, 47880, Note_on_c, 1, 73, 0
1, 47880, Note_on_c, 1, 66, 0
1, 47880, Note_on_c, 1, 69, 64
1, 47970, Note_on_c, 0, 85, 0
1, 47970, Note_on_c, 0, 78, 64
1, 48000, Note_on_c, 0, 78, 0
1, 48000, Note_on_c, 0, 78, 64
1, 48000, Note_on_c, 0, 80, 64
1, 48000, Note_on_c, 1, 69, 0
1, 48000, Note_on_c, 1, 71, 64
1, 48048, Note_on_c, 1, 71, 0
1, 48120, Note_on_c, 1, 71, 64
1, 48240, Note_on_c, 0, 78, 0
1, 48240, Note_on_c, 0, 77, 64
1, 48240, Note_on_c, 1, 71, 0
1, 48240, Note_on_c, 1, 73, 64
1, 48288, Note_on_c, 1, 73, 0
1, 48360, Note_on_c, 0, 80, 0
1, 48360, Note_on_c, 0, 81, 64
1, 48360, Note_on_c, 1, 73, 64
1, 48408, Note_on_c, 1, 73, 0
1, 48450, Note_on_c, 0, 81, 0
1, 48450, Note_on_c, 0, 83, 64
1, 48480, Note_on_c, 0, 83, 0
1, 48480, Note_on_c, 0, 77, 0
1, 48480, Note_on_c, 0, 81, 64
1, 48480, Note_on_c, 0, 78, 64
1, 48480, Note_on_c, 1, 66, 64
1, 48520, Note_on_c, 0, 81, 0
1, 48520, Note_on_c, 0, 80, 64
1, 48560, Note_on_c, 0, 80, 0
1, 48560, Note_on_c, 0, 78, 64
1, 48600, Note_on_c, 1, 66, 0
1, 48640, Note_on_c, 0, 78, 0
1, 48640, Note_on_c, 0, 66, 80
1, 48640, Note_on_c, 1, 54, 80
1, 48680, Note_on_c, 0, 66, 0
1, 48680, Note_on_c, 0, 68, 80
1, 48680, Note_on_c, 1, 54, 0
1, 48680, Note_on_c, 1, 56, 80
1, 48720, Note_on_c, 0, 68, 0
1, 48720, Note_on_c, 0, 78, 0
1, 48720, Note_on_c, 0, 69, 80
1, 48720, Note_on_c, 1, 56, 0
1, 48720, Note_on_c, 1, 57, 80
1, 48760, Note_on_c, 0, 69, 0
1, 48760, Note_on_c, 0, 68, 80
1, 48760, Note_on_c, 1, 57, 0
1, 48760, Note_on_c, 1, 56, 80
1, 48800, Note_on_c, 0, 68, 0
1, 48800, Note_on_c, 0, 66, 80
1, 48800, Note_on_c, 1, 56, 0
1, 48800, Note_on_c, 1, 54, 80
1, 48840, Note_on_c, 0, 66, 0
1, 48840, Note_on_c, 0, 64, 80
1, 48840, Note_on_c, 1, 54, 0
1, 48840, Note_on_c, 1, 52, 80
1, 48880, Note_on_c, 0, 64, 0
1, 48880, Note_on_c, 0, 63, 80
1, 48880, Note_on_c, 1, 52, 0
1, 48880, Note_on_c, 1, 51, 80
1, 48920, Note_on_c, 0, 63, 0
1, 48920, Note_on_c, 0, 61, 80
1, 48920, Note_on_c, 1, 51, 0
1, 48920, Note_on_c, 1, 49, 80
1, 48960, Note_on_c, 0, 61, 0
1, 48960, Note_on_c, 0, 59, 80
1, 48960, Note_on_c, 1, 49, 0
1, 48960, Note_on_c, 1, 47, 80
1, 49080, Note_on_c, 0, 59, 0
1, 49080, Note_on_c, 0, 83, 64
1, 49080, Note_on_c, 1, 47, 0
1, 49200, Note_on_c, 0, 83, 0
1, 49200, Note_on_c, 0, 85, 64
1, 49200, Note_on_c, 1, 63, 64
1, 49200, Note_on_c, 1, 66, 64
1, 49230, Note_on_c, 0, 85, 0
1, 49230, Note_on_c, 0, 83, 64
1, 49260, Note_on_c, 0, 83, 0
1, 49260, Note_on_c, 0, 82, 64
1, 49290, Note_on_c, 0, 82, 0
1, 49290, Note_on_c, 0, 83, 64
1, 49320, Note_on_c, 0, 83, 0
1, 49320, Note_on_c, 0, 85, 64
1, 49320, Note_on_c, 1, 66, 0
1, 49320, Note_on_c, 1, 63, 0
1, 49410, Note_on_c, 0, 85, 0
1, 49410, Note_on_c, 0, 81, 64
1, 49440, Note_on_c, 0, 81, 0
1, 49440, Note_on_c, 0, 81, 64
1, 49560, Note_on_c, 1, 64, 64
1, 49560, Note_on_c, 1, 71, 64
1, 49650, Note_on_c, 0, 81, 0
1, 49650, Note_on_c, 0, 80, 64
1, 49680, Note_on_c, 0, 80, 0
1, 49680, Note_on_c, 0, 81, 64
1, 49680, Note_on_c, 1, 71, 0
1, 49680, Note_on_c, 1, 64, 0
1, 49680, Note_on_c, 1, 64, 64
1, 49680, Note_on_c, 1, 71, 64
1, 49710, Note_on_c, 0, 81, 0
1, 49710, Note_on_c, 0, 80, 64
1, 49740, Note_on_c, 0, 80, 0
1, 49740, Note_on_c, 0, 78, 64
1, 49770, Note_on_c, 0, 78, 0
1, 49770, Note_on_c, 0, 80, 64
1, 49800, Note_on_c, 0, 80, 0
1, 49800, Note_on_c, 0, 81, 64
1, 49800, Note_on_c, 1, 71, 0
1, 49800, Note_on_c, 1, 64, 0
1, 49800, Note_on_c, 1, 66, 64
1, 49800, Note_on_c, 1, 69, 64
1, 49890, Note_on_c, 0, 81, 0
1, 49890, Note_on_c, 0, 78, 64
1, 49920, Note_on_c, 0, 78, 0
1, 49920, Note_on_c, 0, 76, 64
1, 49920, Note_on_c, 1, 69, 0
1, 49920, Note_on_c, 1, 66, 0
1, 49920, Note_on_c, 1, 68, 64
1, 49920, Note_on_c, 1, 71, 64
1, 49960, Note_on_c, 0, 76, 0
1, 49960, Note_on_c, 0, 80, 64
1, 50000, Note_on_c, 0, 80, 0
1, 50000, Note_on_c, 0, 78, 64
1, 50040, Note_on_c, 0, 78, 0
1, 50040, Note_on_c, 0, 76, 64
1, 50080, Note_on_c, 0, 76, 0
1, 50080, Note_on_c, 0, 80, 64
1, 50120, Note_on_c, 0, 80, 0
1, 50120, Note_on_c, 0, 83, 64
1, 50160, Note_on_c, 0, 83, 0
1, 50160, Note_on_c, 0, 88, 80
1, 50160, Note_on_c, 1, 71, 0
1, 50160, Note_on_c, 1, 68, 0
1, 50200, Note_on_c, 0, 88, 0
1, 50200, Note_on_c, 0, 87, 64
1, 50240, Note_on_c, 0, 87, 0
1, 50240, Note_on_c, 0, 85, 64
1, 50280, Note_on_c, 0, 85, 0
1, 50280, Note_on_c, 0, 83, 64
1, 50280, Note_on_c, 1, 69, 64
1, 50280, Note_on_c, 1, 76, 64
1, 50320, Note_on_c, 0, 83, 0
1, 50320, Note_on_c, 0, 81, 64
1, 50360, Note_on_c, 0, 81, 0
1, 50360, Note_on_c, 0, 80, 64
1, 50400, Note_on_c, 0, 80, 0
1, 50400, Note_on_c, 0, 80, 64
1, 50400, Note_on_c, 1, 76, 0
1, 50400, Note_on_c, 1, 69, 0
1, 50400, Note_on_c, 1, 71, 64
1, 50400, Note_on_c, 1, 76, 64
1, 50430, Note_on_c, 0, 80, 0
1, 50430, Note_on_c, 0, 81, 64
1, 50460, Note_on_c, 0, 81, 0
1, 50460, Note_on_c, 0, 80, 64
1, 50480, Note_on_c, 0, 80, 0
1, 50480, Note_on_c, 0, 81, 64
1, 50500, Note_on_c, 0, 81, 0
1, 50500, Note_on_c, 0, 80, 64
1, 50520, Note_on_c, 0, 80, 0
1, 50520, Note_on_c, 0, 78, 64
1, 50520, Note_on_c, 1, 76, 0
1, 50520, Note_on_c, 1, 75, 64
1, 50640, Note_on_c, 0, 78, 0
1, 50640, Note_on_c, 1, 75, 0
1, 50640, Note_on_c, 1, 71, 0
1, 50640, Note_on_c, 1, 59, 80
1, 50680, Note_on_c, 1, 59, 0
1, 50680, Note_on_c, 1, 61, 80
1, 50720, Note_on_c, 1, 61, 0
1, 50720, Note_on_c, 1, 59, 80
1, 50760, Note_on_c, 1, 59, 0
1, 50760, Note_on_c, 1, 57, 80
1, 50800, Note_on_c, 1, 57, 0
1, 50800, Note_on_c, 1, 56, 80
1, 50840, Note_on_c, 1, 56, 0
1, 50840, Note_on_c, 1, 54, 80
1, 50880, Note_on_c, 1, 54, 0
1, 50880, Note_on_c, 1, 52, 80
1, 50920, Note_on_c, 0, 76, 80
1, 50960, Note_on_c, 0, 76, 0
1, 50960, Note_on_c, 0, 75, 80
1, 51000, Note_on_c, 0, 75, 0
1, 51000, Note_on_c, 0, 73, 80
1, 51040, Note_on_c, 0, 73, 0
1, 51040, Note_on_c, 0, 71, 80
1, 51080, Note_on_c, 0, 71, 0
1, 51080, Note_on_c, 0, 69, 80
1, 51120, Note_on_c, 0, 69, 0
1, 51120, Note_on_c, 0, 68, 80
1, 51120, Note_on_c, 1, 52, 0
1, 51160, Note_on_c, 0, 68, 0
1, 51160, Note_on_c, 0, 66, 80
1, 51200, Note_on_c, 0, 66, 0
1, 51200, Note_on_c, 0, 64, 80
1, 51240, Note_on_c, 0, 64, 0
1, 51240, Note_on_c, 0, 63, 80
1, 51240, Note_on_c, 1, 57, 80
1, 51280, Note_on_c, 0, 63, 0
1, 51280, Note_on_c, 0, 66, 80
1, 51300, Note_on_c, 1, 57, 0
1, 51320, Note_on_c, 0, 66, 0
1, 51320, Note_on_c, 0, 71, 80
1, 51360, Note_on_c, 0, 71, 0
1, 51360, Note_on_c, 0, 64, 80
1, 51360, Note_on_c, 1, 56, 80
1, 51400, Note_on_c, 0, 64, 0
1, 51400, Note_on_c, 0, 68, 80
1, 51440, Note_on_c, 0, 68, 0
1, 51440, Note_on_c, 0, 71, 80
1, 51480, Note_on_c, 0, 71, 0
1, 51480, Note_on_c, 0, 66, 80
1, 51480, Note_on_c, 1, 56, 0
1, 51480, Note_on_c, 1, 51, 80
1, 51520, Note_on_c, 0, 66, 0
1, 51520, Note_on_c, 0, 69, 80
1, 51540, Note_on_c, 1, 51, 0
1, 51560, Note_on_c, 0, 69, 0
1, 51560, Note_on_c, 0, 71, 80
1, 51600, Note_on_c, 0, 71, 0
1, 51600, Note_on_c, 0, 68, 80
1, 51600, Note_on_c, 1, 52, 80
1, 51640, Note_on_c, 0, 68, 0
1, 51640, Note_on_c, 0, 69, 80
1, 51660, Note_on_c, 1, 52, 0
1, 51680, Note_on_c, 0, 69, 0
1, 51680, Note_on_c, 0, 71, 80
1, 51720, Note_on_c, 0, 71, 0
1, 51720, Note_on_c, 0, 69, 80
1, 51720, Note_on_c, 1, 54, 80
1, 51760, Note_on_c, 0, 69, 0
1, 51760, Note_on_c, 0, 71, 80
1, 51780, Note_on_c, 1, 54, 0
1, 51800, Note_on_c, 0, 71, 0
1, 51800, Note_on_c, 0, 73, 80
1, 51840, Note_on_c, 0, 73, 0
1, 51840, Note_on_c, 0, 71, 64
1, 51840, Note_on_c, 1, 52, 64
1, 51880, Note_on_c, 0, 71, 0
1, 51880, Note_on_c, 0, 76, 64
1, 51920, Note_on_c, 0, 76, 0
1, 51920, Note_on_c, 0, 75, 64
1, 51960, Note_on_c, 0, 75, 0
1, 51960, Note_on_c, 0, 73, 64
1, 52000, Note_on_c, 0, 73, 0
1, 52000, Note_on_c, 0, 71, 64
1, 52040, Note_on_c, 0, 71, 0
1, 52040, Note_on_c, 0, 69, 64
1, 52080, Note_on_c, 0, 69, 0
1, 52080, Note_on_c, 0, 68, 64
1, 52080, Note_on_c, 1, 52, 0
1, 52120, Note_on_c, 0, 68, 0
1, 52120, Note_on_c, 0, 66, 64
1, 52160, Note_on_c, 0, 66, 0
1, 52160, Note_on_c, 0, 64, 64
1, 52200, Note_on_c, 0, 64, 0
1, 52200, Note_on_c, 0, 63, 64
1, 52200, Note_on_c, 1, 57, 64
1, 52240, Note_on_c, 0, 63, 0
1, 52240, Note_on_c, 0, 66, 64
1, 52260, Note_on_c, 1, 57, 0
1, 52280, Note_on_c, 0, 66, 0
1, 52280, Note_on_c, 0, 71, 64
1, 52320, Note_on_c, 0, 71, 0
1, 52320, Note_on_c, 0, 64, 64
1, 52320, Note_on_c, 1, 56, 64
1, 52360, Note_on_c, 0, 64, 0
1, 52360, Note_on_c, 0, 68, 64
1, 52400, Note_on_c, 0, 68, 0
1, 52400, Note_on_c, 0, 71, 64
1, 52440, Note_on_c, 0, 71, 0
1, 52440, Note_on_c, 0, 66, 64
1, 52440, Note_on_c, 1, 56, 0
1, 52440, Note_on_c, 1, 51, 64
1, 52480, Note_on_c, 0, 66, 0
1, 52480, Note_on_c, 0, 69, 64
1, 52500, Note_on_c, 1, 51, 0
1, 52520, Note_on_c, 0, 69, 0
1, 52520, Note_on_c, 0, 71, 64
1, 52560, Note_on_c, 0, 71, 0
1, 52560, Note_on_c, 0, 68, 64
1, 52560, Note_on_c, 1, 52, 64
1, 52600, Note_on_c, 0, 68, 0
1, 52600, Note_on_c, 0, 69, 64
1, 52620, Note_on_c, 1, 52, 0
1, 52640, Note_on_c, 0, 69, 0
1, 52640, Note_on_c, 0, 71, 64
1, 52680, Note_on_c, 0, 71, 0
1, 52680, Note_on_c, 0, 69, 64
1, 52680, Note_on_c, 1, 54, 64
1, 52720, Note_on_c, 0, 69, 0
1, 52720, Note_on_c, 0, 71, 64
1, 52740, Note_on_c, 1, 54, 0
1, 52760, Note_on_c, 0, 71, 0
1, 52760, Note_on_c, 0, 73, 64
1, 52800, Note_on_c, 0, 73, 0
1, 52800, Note_on_c, 0, 71, 64
1, 52800, Note_on_c, 1, 56, 64
1, 52840, Note_on_c, 0, 71, 0
1, 52840, Note_on_c, 0, 76, 65
1, 52880, Note_on_c, 0, 76, 0
1, 52880, Note_on_c, 0, 75, 65
1, 52920, Note_on_c, 0, 75, 0
1, 52920, Note_on_c, 0, 73, 66
1, 52960, Note_on_c, 0, 73, 0
1, 52960, Note_on_c, 0, 71, 67
1, 53000, Note_on_c, 0, 71, 0
1, 53000, Note_on_c, 0, 69, 67
1, 53040, Note_on_c, 0, 69, 0
1, 53040, Note_on_c, 0, 68, 68
1, 53040, Note_on_c, 1, 56, 0
1, 53080, Note_on_c, 0, 68, 0
1, 53080, Note_on_c, 0, 66, 69
1, 53120, Note_on_c, 0, 66, 0
1, 53120, Note_on_c, 0, 64, 69
1, 53160, Note_on_c, 0, 64, 0
1, 53160, Note_on_c, 0, 74, 70
1, 53200, Note_on_c, 0, 74, 0
1, 53200, Note_on_c, 0, 73, 71
1, 53240, Note_on_c, 0, 73, 0
1, 53240, Note_on_c, 0, 71, 71
1, 53280, Note_on_c, 0, 71, 0
1, 53280, Note_on_c, 0, 72, 72
1, 53400, Note_on_c, 1, 64, 74
1, 53400, Note_on_c, 1, 57, 74
1, 53448, Note_on_c, 1, 57, 0
1, 53448, Note_on_c, 1, 64, 0
1, 53520, Note_on_c, 0, 72, 0
1, 53520, Note_on_c, 0, 73, 76
1, 53520, Note_on_c, 1, 64, 76
1, 53520, Note_on_c, 1, 57, 76
1, 53568, Note_on_c, 1, 57, 0
1, 53568, Note_on_c, 1, 64, 0
1, 53592, Note_on_c, 0, 73, 0
1, 53640, Note_on_c, 0, 81, 78
1, 53680, Note_on_c, 0, 81, 0
1, 53680, Note_on_c, 0, 80, 79
1, 53720, Note_on_c, 0, 80, 0
1, 53720, Note_on_c, 0, 78, 79
1, 53760, Note_on_c, 0, 78, 0
1, 53760, Note_on_c, 0, 77, 80
1, 53880, Note_on_c, 1, 68, 80
1, 53880, Note_on_c, 1, 71, 80
1, 54000, Note_on_c, 0, 77, 0
1, 54000, Note_on_c, 0, 78, 80
1, 54000, Note_on_c, 1, 71, 0
1, 54000, Note_on_c, 1, 68, 0
1, 54000, Note_on_c, 1, 69, 80
1, 54000, Note_on_c, 1, 73, 80
1, 54084, Note_on_c, 0, 78, 0
1, 54084, Note_on_c, 1, 73, 0
1, 54084, Note_on_c, 1, 69, 0
1, 54120, Note_on_c, 0, 85, 80
1, 54160, Note_on_c, 0, 85, 0
1, 54160, Note_on_c, 0, 81, 80
1, 54200, Note_on_c, 0, 81, 0
1, 54200, Note_on_c, 0, 78, 80
1, 54240, Note_on_c, 0, 78, 0
1, 54240, Note_on_c, 0, 76, 80
1, 54240, Note_on_c, 1, 59, 80
1, 54240, Note_on_c, 1, 68, 80
1, 54480, Note_on_c, 0, 76, 0
1, 54480, Note_on_c, 0, 75, 80
1, 54480, Note_on_c, 1, 68, 0
1, 54480, Note_on_c, 1, 59, 0
1, 54480, Note_on_c, 1, 59, 80
1, 54480, Note_on_c, 1, 66, 80
1, 54600, Note_on_c, 0, 75, 0
1, 54600, Note_on_c, 1, 66, 0
1, 54600, Note_on_c, 1, 59, 0
1, 54720, Note_on_c, 0, 88, 88
1, 54720, Note_on_c, 0, 80, 88
1, 54720, Note_on_c, 0, 76, 88
1, 54720, Note_on_c, 1, 52, 88
1, 54760, Note_on_c, 1, 52, 0
1, 54760, Note_on_c, 1, 56, 88
1, 54800, Note_on_c, 1, 56, 0
1, 54800, Note_on_c, 1, 57, 88
1, 54840, Note_on_c, 0, 76, 0
1, 54840, Note_on_c, 0, 80, 0
1, 54840, Note_on_c, 0, 88, 0
1, 54840, Note_on_c, 1, 57, 0
1, 54840, Note_on_c, 1, 59, 88
1, 54880, Note_on_c, 1, 59, 0
1, 54880, Note_on_c, 1, 61, 88
1, 54920, Note_on_c, 1, 61, 0
1, 54920, Note_on_c, 1, 63, 88
1, 54960, Note_on_c, 1, 63, 0
1, 54960, Note_on_c, 1, 64, 88
1, 55000, Note_on_c, 1, 64, 0
1, 55000, Note_on_c, 1, 66, 88
1, 55040, Note_on_c, 1, 66, 0
1, 55040, Note_on_c, 1, 68, 88
1, 55080, Note_on_c, 0, 71, 88
1, 55080, Note_on_c, 1, 68, 0
1, 55080, Note_on_c, 1, 69, 88
1, 55120, Note_on_c, 0, 71, 0
1, 55120, Note_on_c, 0, 73, 88
1, 55160, Note_on_c, 0, 73, 0
1, 55160, Note_on_c, 0, 75, 88
1, 55200, Note_on_c, 0, 75, 0
1, 55200, Note_on_c, 0, 76, 88
1, 55200, Note_on_c, 1, 69, 0
1, 55200, Note_on_c, 1, 68, 88
1, 55240, Note_on_c, 0, 76, 0
1, 55240, Note_on_c, 0, 80, 88
1, 55280, Note_on_c, 0, 80, 0
1, 55280, Note_on_c, 0, 83, 88
1, 55320, Note_on_c, 0, 83, 0
1, 55320, Note_on_c, 0, 88, 88
1, 55360, Note_on_c, 0, 88, 0
1, 55360, Note_on_c, 0, 87, 88
1, 55400, Note_on_c, 0, 87, 0
1, 55400, Note_on_c, 0, 85, 88
1, 55440, Note_on_c, 0, 85, 0
1, 55440, Note_on_c, 0, 83, 88
1, 55440, Note_on_c, 1, 68, 0
1, 55480, Note_on_c, 0, 83, 0
1, 55480, Note_on_c, 0, 81, 88
1, 55520, Note_on_c, 0, 81, 0
1, 55520, Note_on_c, 0, 80, 88
1, 55560, Note_on_c, 0, 80, 0
1, 55560, Note_on_c, 0, 78, 88
1, 55560, Note_on_c, 1, 59, 64
1, 55560, Note_on_c, 1, 63, 64
1, 55600, Note_on_c, 0, 78, 0
1, 55600, Note_on_c, 0, 80, 88
1, 55640, Note_on_c, 0, 80, 0
1, 55640, Note_on_c, 0, 81, 88
1, 55680, Note_on_c, 0, 81, 0
1, 55680, Note_on_c, 0, 80, 80
1, 55680, Note_on_c, 1, 63, 0
1, 55680, Note_on_c, 1, 59, 0
1, 55680, Note_on_c, 1, 52, 64
1, 55720, Note_on_c, 1, 52, 0
1, 55720, Note_on_c, 1, 56, 64
1, 55760, Note_on_c, 1, 56, 0
1, 55760, Note_on_c, 1, 57, 64
1, 55800, Note_on_c, 1, 57, 0
1, 55800, Note_on_c, 1, 59, 64
1, 55840, Note_on_c, 1, 59, 0
1, 55840, Note_on_c, 1, 61, 64
1, 55880, Note_on_c, 1, 61, 0
1, 55880, Note_on_c, 1, 63, 64
1, 55920, Note_on_c, 0, 80, 0
1, 55920, Note_on_c, 1, 63, 0
1, 55920, Note_on_c, 1, 64, 64
1, 55960, Note_on_c, 1, 64, 0
1, 55960, Note_on_c, 1, 66, 64
1, 56000, Note_on_c, 1, 66, 0
1, 56000, Note_on_c, 1, 68, 64
1, 56040, Note_on_c, 0, 71, 64
1, 56040, Note_on_c, 1, 68, 0
1, 56040, Note_on_c, 1, 69, 64
1, 56080, Note_on_c, 0, 71, 0
1, 56080, Note_on_c, 0, 73, 64
1, 56120, Note_on_c, 0, 73, 0
1, 56120, Note_on_c, 0, 75, 64
1, 56160, Note_on_c, 0, 75, 0
1, 56160, Note_on_c, 0, 76, 64
1, 56160, Note_on_c, 1, 69, 0
1, 56160, Note_on_c, 1, 68, 64
1, 56200, Note_on_c, 0, 76, 0
1, 56200, Note_on_c, 0, 80, 64
1, 56240, Note_on_c, 0, 80, 0
1, 56240, Note_on_c, 0, 83, 64
1, 56280, Note_on_c, 0, 83, 0
1, 56280, Note_on_c, 0, 88, 64
1, 56320, Note_on_c, 0, 88, 0
1, 56320, Note_on_c, 0, 87, 64
1, 56360, Note_on_c, 0, 87, 0
1, 56360, Note_on_c, 0, 85, 64
1, 56400, Note_on_c, 0, 85, 0
1, 56400, Note_on_c, 0, 83, 64
1, 56400, Note_on_c, 1, 68, 0
1, 56460, Note_on_c, 0, 83, 0
1, 56520, Note_on_c, 0, 88, 64
1, 56520, Note_on_c, 1, 73, 64
1, 56560, Note_on_c, 0, 88, 0
1, 56560, Note_on_c, 0, 87, 64
1, 56560, Note_on_c, 1, 73, 0
1, 56560, Note_on_c, 1, 71, 64
1, 56600, Note_on_c, 0, 87, 0
1, 56600, Note_on_c, 0, 85, 64
1, 56600, Note_on_c, 1, 71, 0
1, 56600, Note_on_c, 1, 69, 64
1, 56640, Note_on_c, 0, 85, 0
1, 56640, Note_on_c, 0, 83, 64
1, 56640, Note_on_c, 1, 69, 0
1, 56640, Note_on_c, 1, 68, 64
1, 56680, Note_on_c, 0, 83, 0
1, 56680, Note_on_c, 0, 85, 65
1, 56680, Note_on_c, 1, 68, 0
1, 56680, Note_on_c, 1, 69, 65
1, 56720, Note_on_c, 0, 85, 0
1, 56720, Note_on_c, 0, 87, 65
1, 56720, Note_on_c, 1, 69, 0
1, 56720, Note_on_c, 1, 71, 65
1, 56760, Note_on_c, 0, 87, 0
1, 56760, Note_on_c, 0, 88, 66
1, 56760, Note_on_c, 1, 71, 0
1, 56760, Note_on_c, 1, 73, 66
1, 56800, Note_on_c, 0, 88, 0
1, 56800, Note_on_c, 0, 87, 67
1, 56800, Note_on_c, 1, 73, 0
1, 56800, Note_on_c, 1, 71, 67
1, 56840, Note_on_c, 0, 87, 0
1, 56840, Note_on_c, 0, 85, 67
1, 56840, Note_on_c, 1, 71, 0
1, 56840, Note_on_c, 1, 69, 67
1, 56880, Note_on_c, 0, 85, 0
1, 56880, Note_on_c, 0, 83, 68
1, 56880, Note_on_c, 1, 69, 0
1, 56880, Note_on_c, 1, 68, 68
1, 56920, Note_on_c, 0, 83, 0
1, 56920, Note_on_c, 0, 85, 69
1, 56920, Note_on_c, 1, 68, 0
1, 56920, Note_on_c, 1, 69, 69
1, 56960, Note_on_c, 0, 85, 0
1, 56960, Note_on_c, 0, 87, 69
1, 56960, Note_on_c, 1, 69, 0
1, 56960, Note_on_c, 1, 71, 69
1, 57000, Note_on_c, 0, 87, 0
1, 57000, Note_on_c, 0, 88, 70
1, 57000, Note_on_c, 1, 71, 0
1, 57000, Note_on_c, 1, 73, 70
1, 57040, Note_on_c, 0, 88, 0
1, 57040, Note_on_c, 0, 87, 71
1, 57040, Note_on_c, 1, 73, 0
1, 57040, Note_on_c, 1, 71, 71
1, 57080, Note_on_c, 0, 87, 0
1, 57080, Note_on_c, 0, 85, 71
1, 57080, Note_on_c, 1, 71, 0
1, 57080, Note_on_c, 1, 69, 71
1, 57120, Note_on_c, 0, 85, 0
1, 57120, Note_on_c, 0, 83, 72
1, 57120, Note_on_c, 1, 69, 0
1, 57120, Note_on_c, 1, 68, 72
1, 57160, Note_on_c, 0, 83, 0
1, 57160, Note_on_c, 0, 85, 73
1, 57200, Note_on_c, 0, 85, 0
1, 57200, Note_on_c, 0, 86, 73
1, 57240, Note_on_c, 0, 86, 0
1, 57240, Note_on_c, 0, 85, 74
1, 57240, Note_on_c, 1, 68, 0
1, 57240, Note_on_c, 1, 69, 74
1, 57280, Note_on_c, 0, 85, 0
1, 57280, Note_on_c, 0, 86, 75
1, 57288, Note_on_c, 1, 69, 0
1, 57320, Note_on_c, 0, 86, 0
1, 57320, Note_on_c, 0, 88, 75
1, 57360, Note_on_c, 0, 88, 0
1, 57360, Note_on_c, 0, 86, 76
1, 57360, Note_on_c, 1, 71, 76
1, 57408, Note_on_c, 1, 71, 0
1, 57480, Note_on_c, 1, 64, 78
1, 57528, Note_on_c, 1, 64, 0
1, 57600, Note_on_c, 0, 86, 0
1, 57600, Note_on_c, 0, 85, 80
1, 57600, Note_on_c, 1, 69, 80
1, 57640, Note_on_c, 0, 85, 0
1, 57640, Note_on_c, 0, 87, 80
1, 57680, Note_on_c, 0, 87, 0
1, 57680, Note_on_c, 0, 88, 80
1, 57720, Note_on_c, 0, 88, 0
1, 57720, Note_on_c, 0, 87, 80
1, 57760, Note_on_c, 0, 87, 0
1, 57760, Note_on_c, 0, 85, 80
1, 57800, Note_on_c, 0, 85, 0
1, 57800, Note_on_c, 0, 83, 80
1, 57840, Note_on_c, 0, 83, 0
1, 57840, Note_on_c, 0, 81, 80
1, 57840, Note_on_c, 1, 69, 0
1, 57880, Note_on_c, 0, 81, 0
1, 57880, Note_on_c, 0, 80, 80
1, 57920, Note_on_c, 0, 80, 0
1, 57920, Note_on_c, 0, 78, 80
1, 57960, Note_on_c, 0, 78, 0
1, 57960, Note_on_c, 0, 76, 80
1, 58000, Note_on_c, 0, 76, 0
1, 58000, Note_on_c, 0, 75, 80
1, 58040, Note_on_c, 0, 75, 0
1, 58040, Note_on_c, 0, 73, 80
1, 58080, Note_on_c, 0, 73, 0
1, 58080, Note_on_c, 0, 71, 80
1, 58200, Note_on_c, 1, 56, 80
1, 58248, Note_on_c, 1, 56, 0
1, 58320, Note_on_c, 0, 71, 0
1, 58320, Note_on_c, 0, 78, 80
1, 58320, Note_on_c, 1, 57, 80
1, 58350, Note_on_c, 0, 78, 0
1, 58350, Note_on_c, 0, 80, 80
1, 58380, Note_on_c, 0, 80, 0
1, 58380, Note_on_c, 0, 78, 80
1, 58410, Note_on_c, 0, 78, 0
1, 58410, Note_on_c, 0, 80, 80
1, 58440, Note_on_c, 0, 80, 0
1, 58440, Note_on_c, 0, 78, 80
1, 58440, Note_on_c, 1, 57, 0
1, 58440, Note_on_c, 1, 59, 80
1, 58460, Note_on_c, 0, 78, 0
1, 58460, Note_on_c, 0, 80, 80
1, 58480, Note_on_c, 0, 80, 0
1, 58480, Note_on_c, 0, 78, 80
1, 58500, Note_on_c, 0, 78, 0
1, 58500, Note_on_c, 0, 76, 80
1, 58530, Note_on_c, 0, 76, 0
1, 58530, Note_on_c, 0, 78, 80
1, 58560, Note_on_c, 0, 78, 0
1, 58560, Note_on_c, 0, 76, 80
1, 58560, Note_on_c, 1, 59, 0
1, 58560, Note_on_c, 1, 52, 80
1, 58600, Note_on_c, 1, 52, 0
1, 58600, Note_on_c, 1, 56, 80
1, 58640, Note_on_c, 1, 56, 0
1, 58640, Note_on_c, 1, 59, 80
1, 58680, Note_on_c, 1, 59, 0
1, 58680, Note_on_c, 1, 64, 80
1, 58720, Note_on_c, 1, 64, 0
1, 58720, Note_on_c, 1, 59, 80
1, 58760, Note_on_c, 1, 59, 0
1, 58760, Note_on_c, 1, 56, 80
1, 58800, Note_on_c, 0, 76, 0
1, 58800, Note_on_c, 1, 56, 0
1, 58800, Note_on_c, 1, 52, 80
1, 58920, Note_on_c, 0, 71, 80
1, 58920, Note_on_c, 1, 52, 0
1, 58920, Note_on_c, 1, 68, 80
1, 58960, Note_on_c, 0, 71, 0
1, 58960, Note_on_c, 0, 73, 80
1, 59000, Note_on_c, 0, 73, 0
1, 59000, Note_on_c, 0, 71, 80
1, 59040, Note_on_c, 0, 71, 0
1, 59040, Note_on_c, 0, 74, 80
1, 59040, Note_on_c, 1, 68, 0
1, 59040, Note_on_c, 1, 65, 80
1, 59080, Note_on_c, 0, 74, 0
1, 59080, Note_on_c, 0, 73, 80
1, 59120, Note_on_c, 0, 73, 0
1, 59120, Note_on_c, 0, 71, 80
1, 59160, Note_on_c, 0, 71, 0
1, 59160, Note_on_c, 0, 69, 80
1, 59160, Note_on_c, 1, 65, 0
1, 59160, Note_on_c, 1, 66, 80
1, 59200, Note_on_c, 0, 69, 0
1, 59200, Note_on_c, 0, 71, 80
1, 59240, Note_on_c, 0, 71, 0
1, 59240, Note_on_c, 0, 69, 80
1, 59280, Note_on_c, 0, 69, 0
1, 59280, Note_on_c, 0, 73, 80
1, 59280, Note_on_c, 1, 66, 0
1, 59280, Note_on_c, 1, 63, 80
1, 59320, Note_on_c, 0, 73, 0
1, 59320, Note_on_c, 0, 71, 80
1, 59360, Note_on_c, 0, 71, 0
1, 59360, Note_on_c, 0, 69, 80
1, 59400, Note_on_c, 0, 69, 0
1, 59400, Note_on_c, 0, 68, 80
1, 59400, Note_on_c, 1, 63, 0
1, 59400, Note_on_c, 1, 64, 80
1, 59440, Note_on_c, 0, 68, 0
1, 59440, Note_on_c, 0, 71, 80
1, 59480, Note_on_c, 0, 71, 0
1, 59480, Note_on_c, 0, 76, 80
1, 59520, Note_on_c, 0, 76, 0
1, 59520, Note_on_c, 0, 73, 80
1, 59520, Note_on_c, 1, 64, 0
1, 59520, Note_on_c, 1, 57, 80
1, 59560, Note_on_c, 0, 73, 0
1, 59560, Note_on_c, 0, 71, 80
1, 59600, Note_on_c, 0, 71, 0
1, 59600, Note_on_c, 0, 69, 80
1, 59640, Note_on_c, 0, 69, 0
1, 59640, Note_on_c, 0, 68, 80
1, 59640, Note_on_c, 1, 57, 0
1, 59640, Note_on_c, 1, 58, 80
1, 59680, Note_on_c, 0, 68, 0
1, 59680, Note_on_c, 0, 69, 80
1, 59688, Note_on_c, 1, 58, 0
1, 59720, Note_on_c, 0, 69, 0
1, 59720, Note_on_c, 0, 66, 80
1, 59760, Note_on_c, 0, 66, 0
1, 59760, Note_on_c, 0, 64, 80
1, 59760, Note_on_c, 1, 59, 80
1, 59808, Note_on_c, 1, 59, 0
1, 59850, Note_on_c, 0, 64, 0
1, 59850, Note_on_c, 0, 66, 80
1, 59880, Note_on_c, 0, 66, 0
1, 59880, Note_on_c, 0, 68, 80
1, 59880, Note_on_c, 1, 47, 80
1, 59910, Note_on_c, 0, 68, 0
1, 59910, Note_on_c, 0, 66, 80
1, 59928, Note_on_c, 1, 47, 0
1, 59940, Note_on_c, 0, 66, 0
1, 59940, Note_on_c, 0, 64, 80
1, 59970, Note_on_c, 0, 64, 0
1, 59970, Note_on_c, 0, 66, 80
1, 60000, Note_on_c, 0, 66, 0
1, 60000, Note_on_c, 0, 64, 80
1, 60000, Note_on_c, 1, 52, 80
1, 60040, Note_on_c, 1, 52, 0
1, 60040, Note_on_c, 1, 47, 80
1, 60080, Note_on_c, 1, 47, 0
1, 60080, Note_on_c, 1, 44, 80
1, 60120, Note_on_c, 1, 44, 0
1, 60120, Note_on_c, 1, 40, 80
1, 60160, Note_on_c, 1, 40, 0
1, 60160, Note_on_c, 1, 44, 80
1, 60200, Note_on_c, 1, 44, 0
1, 60200, Note_on_c, 1, 47, 80
1, 60240, Note_on_c, 0, 64, 0
1, 60240, Note_on_c, 1, 47, 0
1, 60240, Note_on_c, 1, 52, 80
1, 60360, Note_on_c, 0, 59, 80
1, 60360, Note_on_c, 0, 62, 80
1, 60360, Note_on_c, 1, 52, 0
1, 60360, Note_on_c, 1, 56, 80
1, 60408, Note_on_c, 1, 56, 0
1, 60480, Note_on_c, 0, 62, 0
1, 60480, Note_on_c, 0, 61, 80
1, 60480, Note_on_c, 1, 53, 80
1, 60600, Note_on_c, 0, 59, 0
1, 60600, Note_on_c, 0, 57, 80
1, 60600, Note_on_c, 1, 53, 0
1, 60600, Note_on_c, 1, 54, 80
1, 60720, Note_on_c, 0, 61, 0
1, 60720, Note_on_c, 0, 59, 80
1, 60720, Note_on_c, 1, 54, 0
1, 60720, Note_on_c, 1, 51, 80
1, 60840, Note_on_c, 0, 57, 0
1, 60840, Note_on_c, 0, 56, 80
1, 60840, Note_on_c, 1, 51, 0
1, 60840, Note_on_c, 1, 52, 80
1, 60900, Note_on_c, 1, 52, 0
1, 60900, Note_on_c, 1, 45, 88
1, 60915, Note_on_c, 1, 49, 88
1, 60930, Note_on_c, 0, 59, 0
1, 60930, Note_on_c, 0, 57, 88
1, 60930, Note_on_c, 1, 54, 88
1, 60945, Note_on_c, 0, 61, 88
1, 60960, Note_on_c, 0, 56, 0
1, 60960, Note_on_c, 0, 66, 88
1, 61080, Note_on_c, 0, 66, 0
1, 61080, Note_on_c, 0, 61, 0
1, 61080, Note_on_c, 0, 57, 0
1, 61080, Note_on_c, 0, 73, 80
1, 61080, Note_on_c, 1, 54, 0
1, 61080, Note_on_c, 1, 49, 0
1, 61080, Note_on_c, 1, 45, 0
1, 61120, Note_on_c, 0, 73, 0
1, 61120, Note_on_c, 0, 69, 80
1, 61160, Note_on_c, 0, 69, 0
1, 61160, Note_on_c, 0, 66, 80
1, 61200, Note_on_c, 0, 66, 0
1, 61200, Note_on_c, 0, 64, 80
1, 61200, Note_on_c, 1, 56, 80
1, 61200, Note_on_c, 1, 47, 80
1, 61290, Note_on_c, 0, 64, 0
1, 61290, Note_on_c, 0, 63, 80
1, 61305, Note_on_c, 0, 63, 0
1, 61305, Note_on_c, 0, 64, 80
1, 61320, Note_on_c, 0, 64, 0
1, 61320, Note_on_c, 0, 63, 80
1, 61320, Note_on_c, 1, 56, 0
1, 61320, Note_on_c, 1, 54, 80
1, 61440, Note_on_c, 0, 63, 0
1, 61440, Note_on_c, 0, 64, 80
1, 61440, Note_on_c, 1, 54, 0
1, 61440, Note_on_c, 1, 47, 0
1, 61440, Note_on_c, 1, 52, 80
1, 61480, Note_on_c, 0, 64, 0
1, 61480, Note_on_c, 0, 68, 80
1, 61520, Note_on_c, 0, 68, 0
1, 61520, Note_on_c, 0, 71, 80
1, 61560, Note_on_c, 0, 71, 0
1, 61560, Note_on_c, 0, 76, 80
1, 61560, Note_on_c, 1, 52, 0
1, 61600, Note_on_c, 0, 76, 0
1, 61600, Note_on_c, 0, 71, 80
1, 61640, Note_on_c, 0, 71, 0
1, 61640, Note_on_c, 0, 68, 80
1, 61680, Note_on_c, 0, 68, 0
1, 61680, Note_on_c, 0, 64, 80
1, 61720, Note_on_c, 0, 64, 0
1, 61720, Note_on_c, 0, 59, 80
1, 61760, Note_on_c, 0, 59, 0
1, 61760, Note_on_c, 0, 56, 80
1, 61800, Note_on_c, 0, 56, 0
1, 61800, Note_on_c, 1, 52, 80
1, 61840, Note_on_c, 1, 52, 0
1, 61840, Note_on_c, 1, 47, 80
1, 61880, Note_on_c, 1, 47, 0
1, 61880, Note_on_c, 1, 44, 80
1, 61920, Note_on_c, 1, 44, 0
1, 61920, Note_on_c, 1, 40, 80
1, 62040, Note_on_c, 1, 40, 0
1, 62050, End_track
0, 0, End_of_file