0, 0, Header, 0, 1, 240
1, 0, Start_track
1, 0, Tempo, 1200000
1, 0, Note_on_c, 0, 64, 64
1, 0, Note_on_c, 1, 52, 64
1, 20, Note_on_c, 0, 66, 64
1, 24, Note_on_c, 0, 64, 0
1, 40, Note_on_c, 0, 64, 64
1, 44, Note_on_c, 0, 66, 0
1, 120, Note_on_c, 1, 40, 64
1, 145, Note_on_c, 1, 52, 0
1, 240, Note_on_c, 1, 52, 64
1, 265, Note_on_c, 1, 40, 0
1, 360, Note_on_c, 1, 54, 64
1, 385, Note_on_c, 1, 52, 0
1, 480, Note_on_c, 1, 55, 64
1, 505, Note_on_c, 1, 54, 0
1, 600, Note_on_c, 1, 52, 64
1, 625, Note_on_c, 1, 55, 0
1, 720, Note_on_c, 0, 66, 64
1, 720, Note_on_c, 0, 64, 64
1, 720, Note_on_c, 1, 57, 64
1, 745, Note_on_c, 1, 52, 0
1, 840, Note_on_c, 1, 45, 64
1, 865, Note_on_c, 0, 64, 0
1, 865, Note_on_c, 1, 57, 0
1, 960, Note_on_c, 1, 57, 64
1, 985, Note_on_c, 1, 45, 0
1, 1080, Note_on_c, 1, 59, 64
1, 1105, Note_on_c, 1, 57, 0
1, 1200, Note_on_c, 1, 60, 64
1, 1225, Note_on_c, 1, 59, 0
1, 1320, Note_on_c, 1, 57, 64
1, 1345, Note_on_c, 1, 60, 0
1, 1440, Note_on_c, 0, 63, 64
1, 1440, Note_on_c, 0, 66, 64
1, 1440, Note_on_c, 1, 59, 64
1, 1465, Note_on_c, 1, 57, 0
1, 1560, Note_on_c, 1, 47, 64
1, 1585, Note_on_c, 1, 59, 0
1, 1591, Note_on_c, 0, 66, 0
1, 1591, Note_on_c, 0, 64, 0
1, 1680, Note_on_c, 1, 59, 64
1, 1705, Note_on_c, 1, 47, 0
1, 1800, Note_on_c, 1, 60, 64
1, 1825, Note_on_c, 1, 59, 0
1, 1920, Note_on_c, 1, 59, 64
1, 1945, Note_on_c, 1, 60, 0
1, 2040, Note_on_c, 0, 72, 64
1, 2040, Note_on_c, 1, 57, 64
1, 2065, Note_on_c, 1, 59, 0
1, 2160, Note_on_c, 0, 64, 64
1, 2160, Note_on_c, 0, 71, 64
1, 2160, Note_on_c, 1, 55, 64
1, 2166, Note_on_c, 0, 66, 0
1, 2185, Note_on_c, 0, 72, 0
1, 2185, Note_on_c, 1, 57, 0
1, 2280, Note_on_c, 0, 69, 64
1, 2280, Note_on_c, 1, 54, 64
1, 2305, Note_on_c, 0, 71, 0
1, 2305, Note_on_c, 1, 55, 0
1, 2311, Note_on_c, 0, 63, 0
1, 2400, Note_on_c, 0, 76, 64
1, 2400, Note_on_c, 0, 67, 64
1, 2400, Note_on_c, 1, 52, 64
1, 2425, Note_on_c, 0, 69, 0
1, 2425, Note_on_c, 1, 54, 0
1, 2450, Note_on_c, 0, 64, 0
1, 2520, Note_on_c, 0, 66, 64
1, 2520, Note_on_c, 1, 50, 64
1, 2545, Note_on_c, 0, 67, 0
1, 2545, Note_on_c, 1, 52, 0
1, 2640, Note_on_c, 0, 64, 64
1, 2640, Note_on_c, 1, 48, 64
1, 2665, Note_on_c, 0, 66, 0
1, 2665, Note_on_c, 1, 50, 0
1, 2760, Note_on_c, 0, 74, 64
1, 2760, Note_on_c, 1, 47, 64
1, 2785, Note_on_c, 1, 48, 0
1, 2835, Note_on_c, 0, 76, 0
1, 2880, Note_on_c, 0, 72, 64
1, 2880, Note_on_c, 0, 64, 64
1, 2880, Note_on_c, 1, 45, 64
1, 2905, Note_on_c, 0, 74, 0
1, 2905, Note_on_c, 1, 47, 0
1, 3000, Note_on_c, 0, 71, 64
1, 3000, Note_on_c, 1, 47, 64
1, 3025, Note_on_c, 0, 64, 0
1, 3025, Note_on_c, 0, 72, 0
1, 3025, Note_on_c, 1, 45, 0
1, 3120, Note_on_c, 0, 70, 64
1, 3120, Note_on_c, 1, 48, 64
1, 3145, Note_on_c, 0, 71, 0
1, 3145, Note_on_c, 1, 47, 0
1, 3240, Note_on_c, 0, 67, 64
1, 3315, Note_on_c, 0, 64, 0
1, 3360, Note_on_c, 0, 66, 64
1, 3385, Note_on_c, 0, 67, 0
1, 3390, Note_on_c, 0, 67, 64
1, 3396, Note_on_c, 0, 66, 0
1, 3420, Note_on_c, 0, 66, 64
1, 3426, Note_on_c, 0, 67, 0
1, 3440, Note_on_c, 0, 67, 64
1, 3444, Note_on_c, 0, 66, 0
1, 3460, Note_on_c, 0, 66, 64
1, 3464, Note_on_c, 0, 67, 0
1, 3480, Note_on_c, 0, 64, 64
1, 3484, Note_on_c, 0, 66, 0
1, 3600, Note_on_c, 0, 71, 64
1, 3600, Note_on_c, 1, 47, 64
1, 3700, Note_on_c, 0, 70, 0
1, 3700, Note_on_c, 1, 48, 0
1, 3720, Note_on_c, 1, 54, 64
1, 3745, Note_on_c, 1, 47, 0
1, 3840, Tempo, 1276596
1, 3840, Note_on_c, 0, 63, 64
1, 3840, Note_on_c, 1, 59, 64
1, 3865, Note_on_c, 1, 54, 0
1, 3915, Note_on_c, 0, 64, 0
1, 3960, Note_on_c, 1, 60, 64
1, 3985, Note_on_c, 1, 59, 0
1, 4080, Tempo, 1395349
1, 4080, Note_on_c, 1, 59, 64
1, 4105, Note_on_c, 1, 60, 0
1, 4130, Note_on_c, 0, 63, 0
1, 4180, Note_on_c, 0, 71, 0
1, 4200, Note_on_c, 1, 57, 64
1, 4225, Note_on_c, 1, 59, 0
1, 4320, Tempo, 1200000
1, 4320, Note_on_c, 0, 67, 64
1, 4320, Note_on_c, 1, 55, 64
1, 4340, Note_on_c, 0, 69, 64
1, 4344, Note_on_c, 0, 67, 0
1, 4345, Note_on_c, 1, 57, 0
1, 4360, Note_on_c, 0, 67, 64
1, 4364, Note_on_c, 0, 69, 0
1, 4440, Note_on_c, 1, 43, 64
1, 4465, Note_on_c, 1, 55, 0
1, 4560, Note_on_c, 1, 55, 64
1, 4585, Note_on_c, 1, 43, 0
1, 4680, Note_on_c, 1, 57, 64
1, 4705, Note_on_c, 1, 55, 0
1, 4800, Note_on_c, 1, 59, 64
1, 4825, Note_on_c, 1, 57, 0
1, 4920, Note_on_c, 1, 55, 64
1, 4945, Note_on_c, 1, 59, 0
1, 5040, Note_on_c, 0, 69, 64
1, 5040, Note_on_c, 0, 67, 64
1, 5040, Note_on_c, 1, 60, 64
1, 5065, Note_on_c, 1, 55, 0
1, 5160, Note_on_c, 1, 48, 64
1, 5185, Note_on_c, 0, 67, 0
1, 5185, Note_on_c, 1, 60, 0
1, 5280, Note_on_c, 1, 60, 64
1, 5305, Note_on_c, 1, 48, 0
1, 5400, Note_on_c, 1, 62, 64
1, 5425, Note_on_c, 1, 60, 0
1, 5520, Note_on_c, 1, 64, 64
1, 5545, Note_on_c, 1, 62, 0
1, 5640, Note_on_c, 1, 61, 64
1, 5665, Note_on_c, 1, 64, 0
1, 5760, Note_on_c, 0, 66, 64
1, 5760, Note_on_c, 0, 69, 64
1, 5760, Note_on_c, 1, 62, 64
1, 5785, Note_on_c, 1, 61, 0
1, 5880, Note_on_c, 1, 50, 65
1, 5905, Note_on_c, 1, 62, 0
1, 5911, Note_on_c, 0, 69, 0
1, 5911, Note_on_c, 0, 67, 0
1, 6000, Note_on_c, 1, 62, 67
1, 6025, Note_on_c, 1, 50, 0
1, 6120, Note_on_c, 0, 66, 68
1, 6120, Note_on_c, 0, 69, 68
1, 6120, Note_on_c, 1, 64, 68
1, 6145, Note_on_c, 1, 62, 0
1, 6240, Note_on_c, 0, 67, 69
1, 6240, Note_on_c, 0, 71, 69
1, 6240, Note_on_c, 1, 62, 69
1, 6265, Note_on_c, 0, 69, 0
1, 6265, Note_on_c, 0, 66, 0
1, 6265, Note_on_c, 0, 69, 0
1, 6265, Note_on_c, 0, 66, 0
1, 6265, Note_on_c, 1, 64, 0
1, 6360, Note_on_c, 0, 72, 71
1, 6360, Note_on_c, 0, 69, 71
1, 6360, Note_on_c, 1, 60, 71
1, 6385, Note_on_c, 0, 71, 0
1, 6385, Note_on_c, 0, 67, 0
1, 6385, Note_on_c, 1, 62, 0
1, 6480, Note_on_c, 0, 71, 72
1, 6480, Note_on_c, 0, 74, 72
1, 6480, Note_on_c, 1, 59, 72
1, 6505, Note_on_c, 0, 72, 0
1, 6505, Note_on_c, 0, 69, 0
1, 6505, Note_on_c, 1, 60, 0
1, 6600, Note_on_c, 1, 62, 73
1, 6625, Note_on_c, 1, 59, 0
1, 6720, Note_on_c, 1, 67, 75
1, 6745, Note_on_c, 1, 62, 0
1, 6840, Note_on_c, 0, 71, 76
1, 6840, Note_on_c, 0, 74, 76
1, 6840, Note_on_c, 1, 65, 76
1, 6865, Note_on_c, 1, 67, 0
1, 6960, Note_on_c, 0, 72, 77
1, 6960, Note_on_c, 0, 76, 77
1, 6960, Note_on_c, 1, 64, 77
1, 6985, Note_on_c, 0, 74, 0
1, 6985, Note_on_c, 0, 71, 0
1, 6985, Note_on_c, 0, 74, 0
1, 6985, Note_on_c, 0, 71, 0
1, 6985, Note_on_c, 1, 65, 0
1, 7080, Note_on_c, 0, 77, 79
1, 7080, Note_on_c, 0, 74, 79
1, 7080, Note_on_c, 1, 62, 79
1, 7105, Note_on_c, 0, 76, 0
1, 7105, Note_on_c, 0, 72, 0
1, 7105, Note_on_c, 1, 64, 0
1, 7200, Note_on_c, 0, 79, 80
1, 7200, Note_on_c, 0, 76, 80
1, 7200, Note_on_c, 1, 60, 80
1, 7225, Note_on_c, 0, 77, 0
1, 7225, Note_on_c, 0, 74, 0
1, 7225, Note_on_c, 1, 62, 0
1, 7320, Note_on_c, 1, 67, 81
1, 7345, Note_on_c, 1, 60, 0
1, 7440, Note_on_c, 1, 72, 83
1, 7465, Note_on_c, 1, 67, 0
1, 7560, Note_on_c, 0, 74, 84
1, 7560, Note_on_c, 0, 79, 84
1, 7560, Note_on_c, 1, 71, 84
1, 7585, Note_on_c, 1, 72, 0
1, 7635, Note_on_c, 0, 76, 0
1, 7680, Note_on_c, 0, 72, 85
1, 7680, Note_on_c, 0, 78, 85
1, 7680, Note_on_c, 1, 69, 85
1, 7705, Note_on_c, 0, 79, 0
1, 7705, Note_on_c, 0, 79, 0
1, 7705, Note_on_c, 0, 74, 0
1, 7705, Note_on_c, 1, 71, 0
1, 7800, Note_on_c, 0, 79, 87
1, 7800, Note_on_c, 0, 71, 87
1, 7800, Note_on_c, 1, 67, 87
1, 7825, Note_on_c, 0, 72, 0
1, 7825, Note_on_c, 0, 78, 0
1, 7825, Note_on_c, 1, 69, 0
1, 7920, Note_on_c, 0, 69, 96
1, 7920, Note_on_c, 0, 81, 96
1, 7920, Note_on_c, 1, 66, 96
1, 7945, Note_on_c, 0, 79, 0
1, 7945, Note_on_c, 0, 71, 0
1, 7945, Note_on_c, 1, 67, 0
1, 8040, Note_on_c, 0, 79, 92
1, 8065, Note_on_c, 0, 81, 0
1, 8160, Note_on_c, 0, 78, 88
1, 8185, Note_on_c, 0, 79, 0
1, 8280, Note_on_c, 0, 76, 84
1, 8305, Note_on_c, 0, 78, 0
1, 8400, Note_on_c, 0, 74, 80
1, 8425, Note_on_c, 0, 76, 0
1, 8520, Note_on_c, 0, 72, 76
1, 8545, Note_on_c, 0, 74, 0
1, 8640, Note_on_c, 0, 71, 72
1, 8640, Note_on_c, 0, 67, 72
1, 8640, Note_on_c, 1, 67, 72
1, 8665, Note_on_c, 0, 72, 0
1, 8760, Note_on_c, 0, 79, 71
1, 8760, Note_on_c, 1, 71, 71
1, 8760, Note_on_c, 1, 74, 71
1, 8785, Note_on_c, 0, 67, 0
1, 8785, Note_on_c, 0, 71, 0
1, 8785, Note_on_c, 1, 67, 0
1, 8791, Note_on_c, 0, 69, 0
1, 8791, Note_on_c, 1, 66, 0
1, 8880, Note_on_c, 0, 78, 71
1, 8880, Note_on_c, 1, 69, 71
1, 8880, Note_on_c, 1, 72, 71
1, 8905, Note_on_c, 0, 79, 0
1, 8905, Note_on_c, 1, 71, 0
1, 8905, Note_on_c, 1, 74, 0
1, 9000, Note_on_c, 0, 76, 70
1, 9000, Note_on_c, 1, 67, 70
1, 9000, Note_on_c, 1, 71, 70
1, 9025, Note_on_c, 0, 78, 0
1, 9025, Note_on_c, 1, 69, 0
1, 9025, Note_on_c, 1, 72, 0
1, 9120, Note_on_c, 0, 74, 69
1, 9120, Note_on_c, 1, 66, 69
1, 9120, Note_on_c, 1, 69, 69
1, 9145, Note_on_c, 0, 76, 0
1, 9145, Note_on_c, 1, 67, 0
1, 9145, Note_on_c, 1, 71, 0
1, 9240, Note_on_c, 0, 73, 69
1, 9240, Note_on_c, 1, 67, 69
1, 9240, Note_on_c, 1, 64, 69
1, 9265, Note_on_c, 0, 74, 0
1, 9265, Note_on_c, 1, 66, 0
1, 9265, Note_on_c, 1, 69, 0
1, 9360, Note_on_c, 0, 74, 68
1, 9360, Note_on_c, 1, 66, 68
1, 9360, Note_on_c, 1, 69, 68
1, 9380, Note_on_c, 0, 76, 68
1, 9384, Note_on_c, 0, 74, 0
1, 9385, Note_on_c, 0, 73, 0
1, 9385, Note_on_c, 1, 67, 0
1, 9385, Note_on_c, 1, 64, 0
1, 9400, Note_on_c, 0, 74, 68
1, 9404, Note_on_c, 0, 76, 0
1, 9480, Note_on_c, 0, 76, 67
1, 9480, Note_on_c, 1, 67, 67
1, 9480, Note_on_c, 1, 71, 67
1, 9496, Note_on_c, 0, 74, 0
1, 9505, Note_on_c, 1, 66, 0
1, 9505, Note_on_c, 1, 69, 0
1, 9600, Note_on_c, 0, 74, 67
1, 9600, Note_on_c, 1, 66, 67
1, 9600, Note_on_c, 1, 69, 67
1, 9625, Note_on_c, 0, 76, 0
1, 9625, Note_on_c, 1, 67, 0
1, 9625, Note_on_c, 1, 71, 0
1, 9720, Note_on_c, 0, 72, 66
1, 9720, Note_on_c, 1, 64, 66
1, 9720, Note_on_c, 1, 67, 66
1, 9745, Note_on_c, 0, 74, 0
1, 9745, Note_on_c, 1, 66, 0
1, 9745, Note_on_c, 1, 69, 0
1, 9840, Note_on_c, 0, 71, 65
1, 9840, Note_on_c, 1, 62, 65
1, 9840, Note_on_c, 1, 66, 65
1, 9865, Note_on_c, 0, 72, 0
1, 9865, Note_on_c, 1, 64, 0
1, 9865, Note_on_c, 1, 67, 0
1, 9960, Note_on_c, 0, 70, 65
1, 9960, Note_on_c, 1, 64, 65
1, 9960, Note_on_c, 1, 61, 65
1, 9985, Note_on_c, 0, 71, 0
1, 9985, Note_on_c, 1, 62, 0
1, 9985, Note_on_c, 1, 66, 0
1, 10080, Note_on_c, 0, 71, 64
1, 10080, Note_on_c, 1, 62, 64
1, 10080, Note_on_c, 1, 66, 64
1, 10100, Note_on_c, 0, 72, 64
1, 10104, Note_on_c, 0, 71, 0
1, 10105, Note_on_c, 0, 70, 0
1, 10105, Note_on_c, 1, 64, 0
1, 10105, Note_on_c, 1, 61, 0
1, 10120, Note_on_c, 0, 71, 64
1, 10124, Note_on_c, 0, 72, 0
1, 10200, Note_on_c, 0, 72, 64
1, 10200, Note_on_c, 1, 64, 64
1, 10200, Note_on_c, 1, 67, 64
1, 10216, Note_on_c, 0, 71, 0
1, 10225, Note_on_c, 1, 62, 0
1, 10225, Note_on_c, 1, 66, 0
1, 10320, Note_on_c, 0, 71, 64
1, 10320, Note_on_c, 1, 62, 64
1, 10320, Note_on_c, 1, 66, 64
1, 10345, Note_on_c, 0, 72, 0
1, 10345, Note_on_c, 1, 64, 0
1, 10345, Note_on_c, 1, 67, 0
1, 10440, Note_on_c, 0, 69, 64
1, 10440, Note_on_c, 1, 60, 64
1, 10440, Note_on_c, 1, 64, 64
1, 10465, Note_on_c, 0, 71, 0
1, 10465, Note_on_c, 1, 62, 0
1, 10465, Note_on_c, 1, 66, 0
1, 10560, Note_on_c, 0, 67, 64
1, 10560, Note_on_c, 1, 59, 64
1, 10560, Note_on_c, 1, 62, 64
1, 10585, Note_on_c, 0, 69, 0
1, 10585, Note_on_c, 1, 60, 0
1, 10585, Note_on_c, 1, 64, 0
1, 10680, Note_on_c, 0, 66, 64
1, 10680, Note_on_c, 1, 60, 64
1, 10680, Note_on_c, 1, 57, 64
1, 10705, Note_on_c, 0, 67, 0
1, 10705, Note_on_c, 1, 59, 0
1, 10705, Note_on_c, 1, 62, 0
1, 10800, Note_on_c, 0, 62, 64
1, 10800, Note_on_c, 0, 67, 64
1, 10800, Note_on_c, 1, 59, 64
1, 10825, Note_on_c, 0, 66, 0
1, 10825, Note_on_c, 1, 60, 0
1, 10825, Note_on_c, 1, 57, 0
1, 10920, Note_on_c, 0, 69, 67
1, 10920, Note_on_c, 1, 57, 67
1, 10945, Note_on_c, 0, 67, 0
1, 10945, Note_on_c, 1, 59, 0
1, 11040, Note_on_c, 0, 71, 69
1, 11040, Note_on_c, 0, 74, 69
1, 11040, Note_on_c, 1, 55, 69
1, 11065, Note_on_c, 0, 69, 0
1, 11065, Note_on_c, 1, 57, 0
1, 11090, Note_on_c, 0, 62, 0
1, 11160, Note_on_c, 0, 69, 72
1, 11160, Note_on_c, 1, 54, 72
1, 11185, Note_on_c, 0, 71, 0
1, 11185, Note_on_c, 1, 55, 0
1, 11280, Note_on_c, 0, 67, 75
1, 11280, Note_on_c, 0, 79, 75
1, 11280, Note_on_c, 1, 52, 75
1, 11305, Note_on_c, 0, 69, 0
1, 11305, Note_on_c, 1, 54, 0
1, 11330, Note_on_c, 0, 74, 0
1, 11400, Note_on_c, 0, 78, 77
1, 11400, Note_on_c, 1, 50, 77
1, 11425, Note_on_c, 0, 79, 0
1, 11425, Note_on_c, 1, 52, 0
1, 11520, Note_on_c, 0, 76, 84
1, 11520, Note_on_c, 0, 79, 84
1, 11520, Note_on_c, 1, 48, 84
1, 11545, Note_on_c, 0, 78, 0
1, 11545, Note_on_c, 1, 50, 0
1, 11570, Note_on_c, 0, 67, 0
1, 11640, Note_on_c, 0, 74, 88
1, 11640, Note_on_c, 1, 47, 88
1, 11665, Note_on_c, 0, 76, 0
1, 11665, Note_on_c, 1, 48, 0
1, 11760, Note_on_c, 0, 72, 96
1, 11760, Note_on_c, 0, 84, 96
1, 11760, Note_on_c, 1, 45, 96
1, 11785, Note_on_c, 0, 74, 0
1, 11785, Note_on_c, 1, 47, 0
1, 11810, Note_on_c, 0, 79, 0
1, 11880, Note_on_c, 0, 83, 88
1, 11880, Note_on_c, 1, 43, 88
1, 11905, Note_on_c, 0, 84, 0
1, 11905, Note_on_c, 1, 45, 0
1, 12000, Note_on_c, 0, 81, 88
1, 12000, Note_on_c, 1, 42, 88
1, 12025, Note_on_c, 0, 83, 0
1, 12025, Note_on_c, 1, 43, 0
1, 12120, Note_on_c, 0, 79, 88
1, 12120, Note_on_c, 1, 40, 88
1, 12145, Note_on_c, 0, 81, 0
1, 12145, Note_on_c, 1, 42, 0
1, 12240, Note_on_c, 0, 78, 88
1, 12240, Note_on_c, 0, 81, 88
1, 12240, Note_on_c, 1, 38, 88
1, 12265, Note_on_c, 0, 79, 0
1, 12265, Note_on_c, 1, 40, 0
1, 12340, Note_on_c, 0, 72, 0
1, 12360, Note_on_c, 0, 76, 88
1, 12360, Note_on_c, 1, 36, 88
1, 12385, Note_on_c, 0, 78, 0
1, 12385, Note_on_c, 1, 38, 0
1, 12480, Note_on_c, 0, 74, 96
1, 12480, Note_on_c, 0, 86, 96
1, 12480, Note_on_c, 1, 35, 96
1, 12505, Note_on_c, 0, 76, 0
1, 12505, Note_on_c, 1, 36, 0
1, 12530, Note_on_c, 0, 81, 0
1, 12600, Note_on_c, 0, 84, 88
1, 12600, Note_on_c, 1, 33, 88
1, 12625, Note_on_c, 0, 86, 0
1, 12625, Note_on_c, 1, 35, 0
1, 12720, Note_on_c, 0, 83, 80
1, 12720, Note_on_c, 1, 31, 80
1, 12745, Note_on_c, 0, 84, 0
1, 12745, Note_on_c, 1, 33, 0
1, 12840, Note_on_c, 0, 81, 72
1, 12840, Note_on_c, 0, 72, 72
1, 12865, Note_on_c, 0, 83, 0
1, 12915, Note_on_c, 0, 74, 0
1, 12960, Note_on_c, 0, 71, 64
1, 12960, Note_on_c, 0, 79, 64
1, 12985, Note_on_c, 0, 81, 0
1, 12985, Note_on_c, 0, 72, 0
1, 13010, Note_on_c, 1, 31, 0
1, 13080, Note_on_c, 0, 74, 64
1, 13080, Note_on_c, 0, 78, 64
1, 13080, Note_on_c, 1, 59, 64
1, 13105, Note_on_c, 0, 71, 0
1, 13105, Note_on_c, 0, 79, 0
1, 13200, Note_on_c, 0, 76, 64
1, 13200, Note_on_c, 1, 60, 64
1, 13225, Note_on_c, 0, 78, 0
1, 13225, Note_on_c, 1, 59, 0
1, 13320, Note_on_c, 0, 72, 64
1, 13320, Note_on_c, 1, 64, 64
1, 13345, Note_on_c, 1, 60, 0
1, 13370, Note_on_c, 0, 74, 0
1, 13440, Note_on_c, 0, 74, 64
1, 13440, Note_on_c, 1, 67, 64
1, 13465, Note_on_c, 1, 64, 0
1, 13490, Note_on_c, 0, 76, 0
1, 13560, Note_on_c, 0, 71, 64
1, 13560, Note_on_c, 1, 68, 64
1, 13585, Note_on_c, 1, 67, 0
1, 13610, Note_on_c, 0, 72, 0
1, 13680, Note_on_c, 0, 72, 64
1, 13680, Note_on_c, 1, 69, 64
1, 13705, Note_on_c, 1, 68, 0
1, 13730, Note_on_c, 0, 74, 0
1, 13800, Note_on_c, 0, 69, 64
1, 13800, Note_on_c, 1, 66, 64
1, 13825, Note_on_c, 1, 69, 0
1, 13850, Note_on_c, 0, 71, 0
1, 13920, Note_on_c, 0, 71, 64
1, 13920, Note_on_c, 1, 67, 64
1, 13945, Note_on_c, 1, 66, 0
1, 13970, Note_on_c, 0, 72, 0
1, 14040, Note_on_c, 0, 67, 64
1, 14040, Note_on_c, 1, 59, 64
1, 14065, Note_on_c, 1, 67, 0
1, 14090, Note_on_c, 0, 69, 0
1, 14160, Note_on_c, 0, 69, 64
1, 14160, Note_on_c, 1, 60, 64
1, 14185, Note_on_c, 1, 59, 0
1, 14210, Note_on_c, 0, 71, 0
1, 14280, Note_on_c, 1, 61, 64
1, 14305, Note_on_c, 1, 60, 0
1, 14400, Note_on_c, 1, 62, 64
1, 14425, Note_on_c, 1, 61, 0
1, 14520, Note_on_c, 0, 64, 64
1, 14620, Note_on_c, 0, 67, 0
1, 14640, Note_on_c, 0, 66, 64
1, 14665, Note_on_c, 0, 64, 0
1, 14760, Note_on_c, 0, 67, 64
1, 14760, Note_on_c, 0, 71, 64
1, 14785, Note_on_c, 0, 66, 0
1, 14880, Note_on_c, 0, 69, 64
1, 14880, Note_on_c, 0, 72, 64
1, 14880, Note_on_c, 1, 50, 64
1, 14905, Note_on_c, 0, 71, 0
1, 14905, Note_on_c, 0, 67, 0
1, 14980, Note_on_c, 1, 62, 0
1, 15000, Note_on_c, 0, 66, 64
1, 15000, Note_on_c, 0, 60, 64
1, 15025, Note_on_c, 0, 69, 0
1, 15025, Note_on_c, 0, 72, 0
1, 15025, Note_on_c, 0, 69, 0
1, 15120, Note_on_c, 0, 59, 64
1, 15120, Note_on_c, 0, 67, 64
1, 15120, Note_on_c, 1, 55, 64
1, 15145, Note_on_c, 0, 66, 0
1, 15145, Note_on_c, 0, 60, 0
1, 15170, Note_on_c, 1, 50, 0
1, 15221, Note_on_c, 0, 59, 0
1, 15221, Note_on_c, 0, 67, 0
1, 15240, Note_on_c, 0, 59, 64
1, 15240, Note_on_c, 0, 62, 64
1, 15360, Note_on_c, 0, 60, 64
1, 15360, Note_on_c, 0, 64, 64
1, 15385, Note_on_c, 0, 62, 0
1, 15385, Note_on_c, 0, 59, 0
1, 15480, Note_on_c, 0, 62, 64
1, 15480, Note_on_c, 0, 65, 64
1, 15505, Note_on_c, 0, 60, 0
1, 15505, Note_on_c, 0, 64, 0
1, 15600, Note_on_c, 0, 60, 64
1, 15600, Note_on_c, 0, 64, 64
1, 15625, Note_on_c, 0, 62, 0
1, 15625, Note_on_c, 0, 65, 0
1, 15720, Note_on_c, 0, 72, 64
1, 15720, Note_on_c, 0, 66, 64
1, 15745, Note_on_c, 0, 60, 0
1, 15745, Note_on_c, 0, 64, 0
1, 15840, Note_on_c, 0, 67, 64
1, 15840, Note_on_c, 0, 71, 64
1, 15840, Note_on_c, 1, 43, 64
1, 15865, Note_on_c, 0, 72, 0
1, 15865, Note_on_c, 0, 66, 0
1, 15960, Note_on_c, 0, 59, 61
1, 15960, Note_on_c, 0, 62, 61
1, 15985, Note_on_c, 0, 67, 0
1, 15985, Note_on_c, 0, 71, 0
1, 15991, Note_on_c, 1, 55, 0
1, 16080, Note_on_c, 0, 60, 59
1, 16080, Note_on_c, 0, 64, 59
1, 16105, Note_on_c, 0, 59, 0
1, 16105, Note_on_c, 0, 62, 0
1, 16200, Note_on_c, 0, 62, 56
1, 16200, Note_on_c, 0, 65, 56
1, 16225, Note_on_c, 0, 60, 0
1, 16225, Note_on_c, 0, 64, 0
1, 16320, Note_on_c, 0, 60, 53
1, 16320, Note_on_c, 0, 64, 53
1, 16345, Note_on_c, 0, 62, 0
1, 16345, Note_on_c, 0, 65, 0
1, 16440, Note_on_c, 0, 54, 51
1, 16440, Note_on_c, 0, 48, 51
1, 16465, Note_on_c, 0, 60, 0
1, 16465, Note_on_c, 0, 64, 0
1, 16560, Note_on_c, 0, 48, 48
1, 16560, Note_on_c, 0, 57, 48
1, 16560, Note_on_c, 1, 31, 48
1, 16585, Note_on_c, 0, 54, 0
1, 16705, Note_on_c, 0, 48, 0
1, 16711, Note_on_c, 1, 43, 0
1, 16800, Note_on_c, 0, 47, 48
1, 16800, Note_on_c, 0, 55, 48
1, 16850, Note_on_c, 0, 48, 0
1, 16850, Note_on_c, 0, 57, 0
1, 17090, Note_on_c, 0, 47, 0
1, 17090, Note_on_c, 0, 55, 0
1, 17140, Note_on_c, 1, 31, 0
1, 17280, Note_on_c, 0, 74, 72
1, 17280, Note_on_c, 0, 68, 72
1, 17280, Note_on_c, 1, 52, 72
1, 17400, Note_on_c, 1, 40, 72
1, 17425, Note_on_c, 1, 52, 0
1, 17520, Note_on_c, 1, 52, 72
1, 17545, Note_on_c, 1, 40, 0
1, 17640, Note_on_c, 0, 69, 72
1, 17640, Note_on_c, 1, 54, 72
1, 17665, Note_on_c, 1, 52, 0
1, 17715, Note_on_c, 0, 68, 0
1, 17760, Note_on_c, 0, 71, 72
1, 17760, Note_on_c, 1, 56, 72
1, 17785, Note_on_c, 0, 69, 0
1, 17785, Note_on_c, 1, 54, 0
1, 17880, Note_on_c, 0, 68, 72
1, 17880, Note_on_c, 1, 52, 72
1, 17905, Note_on_c, 0, 71, 0
1, 17905, Note_on_c, 1, 56, 0
1, 18000, Note_on_c, 0, 64, 72
1, 18000, Note_on_c, 1, 57, 72
1, 18025, Note_on_c, 0, 68, 0
1, 18025, Note_on_c, 1, 52, 0
1, 18120, Note_on_c, 0, 66, 72
1, 18120, Note_on_c, 1, 45, 72
1, 18145, Note_on_c, 0, 64, 0
1, 18145, Note_on_c, 1, 57, 0
1, 18240, Note_on_c, 0, 67, 72
1, 18240, Note_on_c, 0, 73, 72
1, 18240, Note_on_c, 1, 57, 72
1, 18265, Note_on_c, 0, 66, 0
1, 18265, Note_on_c, 1, 45, 0
1, 18360, Note_on_c, 0, 74, 72
1, 18360, Note_on_c, 1, 59, 72
1, 18385, Note_on_c, 0, 73, 0
1, 18385, Note_on_c, 1, 57, 0
1, 18480, Note_on_c, 0, 76, 72
1, 18480, Note_on_c, 1, 61, 72
1, 18505, Note_on_c, 0, 74, 0
1, 18505, Note_on_c, 0, 74, 0
1, 18505, Note_on_c, 1, 59, 0
1, 18600, Note_on_c, 0, 73, 72
1, 18600, Note_on_c, 1, 57, 72
1, 18625, Note_on_c, 0, 76, 0
1, 18625, Note_on_c, 1, 61, 0
1, 18720, Note_on_c, 0, 69, 72
1, 18720, Note_on_c, 1, 50, 72
1, 18745, Note_on_c, 0, 73, 0
1, 18745, Note_on_c, 1, 57, 0
1, 18840, Note_on_c, 0, 71, 72
1, 18840, Note_on_c, 1, 38, 72
1, 18865, Note_on_c, 0, 69, 0
1, 18865, Note_on_c, 1, 50, 0
1, 18960, Note_on_c, 0, 72, 72
1, 18960, Note_on_c, 0, 66, 72
1, 18960, Note_on_c, 1, 50, 72
1, 18985, Note_on_c, 0, 71, 0
1, 18985, Note_on_c, 1, 38, 0
1, 19080, Note_on_c, 0, 67, 72
1, 19080, Note_on_c, 1, 52, 72
1, 19105, Note_on_c, 0, 66, 0
1, 19105, Note_on_c, 1, 50, 0
1, 19200, Note_on_c, 0, 69, 72
1, 19200, Note_on_c, 1, 54, 72
1, 19225, Note_on_c, 0, 67, 0
1, 19225, Note_on_c, 0, 67, 0
1, 19225, Note_on_c, 1, 52, 0
1, 19320, Note_on_c, 0, 66, 72
1, 19320, Note_on_c, 1, 50, 72
1, 19345, Note_on_c, 0, 69, 0
1, 19345, Note_on_c, 1, 54, 0
1, 19440, Note_on_c, 0, 62, 72
1, 19440, Note_on_c, 1, 55, 72
1, 19465, Note_on_c, 0, 66, 0
1, 19465, Note_on_c, 1, 50, 0
1, 19560, Note_on_c, 0, 64, 72
1, 19560, Note_on_c, 1, 43, 72
1, 19585, Note_on_c, 0, 62, 0
1, 19585, Note_on_c, 1, 55, 0
1, 19680, Note_on_c, 0, 65, 72
1, 19680, Note_on_c, 0, 71, 72
1, 19680, Note_on_c, 1, 55, 72
1, 19705, Note_on_c, 0, 64, 0
1, 19705, Note_on_c, 1, 43, 0
1, 19800, Note_on_c, 0, 72, 72
1, 19800, Note_on_c, 1, 57, 72
1, 19825, Note_on_c, 0, 71, 0
1, 19825, Note_on_c, 1, 55, 0
1, 19920, Note_on_c, 0, 74, 72
1, 19920, Note_on_c, 1, 59, 72
1, 19945, Note_on_c, 0, 72, 0
1, 19945, Note_on_c, 0, 72, 0
1, 19945, Note_on_c, 1, 57, 0
1, 20040, Note_on_c, 0, 71, 72
1, 20040, Note_on_c, 1, 55, 72
1, 20065, Note_on_c, 0, 74, 0
1, 20065, Note_on_c, 1, 59, 0
1, 20160, Note_on_c, 0, 67, 72
1, 20160, Note_on_c, 1, 60, 72
1, 20185, Note_on_c, 0, 71, 0
1, 20185, Note_on_c, 1, 55, 0
1, 20280, Note_on_c, 1, 48, 72
1, 20305, Note_on_c, 1, 60, 0
1, 20400, Note_on_c, 0, 64, 72
1, 20400, Note_on_c, 1, 60, 72
1, 20425, Note_on_c, 1, 48, 0
1, 20520, Note_on_c, 1, 59, 72
1, 20545, Note_on_c, 1, 60, 0
1, 20551, Note_on_c, 0, 65, 0
1, 20640, Note_on_c, 0, 72, 72
1, 20640, Note_on_c, 1, 57, 72
1, 20665, Note_on_c, 1, 59, 0
1, 20740, Note_on_c, 0, 67, 0
1, 20760, Note_on_c, 0, 71, 72
1, 20760, Note_on_c, 1, 55, 72
1, 20785, Note_on_c, 0, 72, 0
1, 20785, Note_on_c, 1, 57, 0
1, 20880, Note_on_c, 0, 69, 72
1, 20880, Note_on_c, 0, 72, 72
1, 20880, Note_on_c, 1, 54, 72
1, 20905, Note_on_c, 0, 71, 0
1, 20905, Note_on_c, 1, 55, 0
1, 20980, Note_on_c, 0, 64, 0
1, 21000, Note_on_c, 0, 67, 72
1, 21000, Note_on_c, 1, 52, 72
1, 21025, Note_on_c, 0, 69, 0
1, 21025, Note_on_c, 1, 54, 0
1, 21120, Note_on_c, 0, 71, 72
1, 21120, Note_on_c, 0, 66, 72
1, 21120, Note_on_c, 1, 51, 72
1, 21145, Note_on_c, 0, 67, 0
1, 21145, Note_on_c, 1, 52, 0
1, 21170, Note_on_c, 0, 72, 0
1, 21240, Note_on_c, 0, 64, 72
1, 21240, Note_on_c, 1, 49, 72
1, 21265, Note_on_c, 0, 66, 0
1, 21265, Note_on_c, 1, 51, 0
1, 21360, Note_on_c, 0, 63, 72
1, 21360, Note_on_c, 1, 47, 72
1, 21385, Note_on_c, 0, 64, 0
1, 21385, Note_on_c, 1, 49, 0
1, 21480, Note_on_c, 0, 66, 72
1, 21480, Note_on_c, 1, 45, 72
1, 21505, Note_on_c, 0, 63, 0
1, 21505, Note_on_c, 1, 47, 0
1, 21600, Note_on_c, 0, 59, 72
1, 21600, Note_on_c, 1, 43, 72
1, 21625, Note_on_c, 0, 66, 0
1, 21625, Note_on_c, 1, 45, 0
1, 21720, Note_on_c, 0, 69, 72
1, 21720, Note_on_c, 1, 42, 72
1, 21745, Note_on_c, 1, 43, 0
1, 21840, Note_on_c, 0, 67, 72
1, 21840, Note_on_c, 1, 40, 72
1, 21846, Note_on_c, 0, 71, 0
1, 21865, Note_on_c, 0, 69, 0
1, 21865, Note_on_c, 1, 42, 0
1, 21960, Note_on_c, 0, 66, 72
1, 21960, Note_on_c, 1, 38, 72
1, 21985, Note_on_c, 0, 67, 0
1, 21985, Note_on_c, 1, 40, 0
1, 22080, Note_on_c, 0, 64, 72
1, 22080, Note_on_c, 1, 36, 72
1, 22105, Note_on_c, 0, 66, 0
1, 22105, Note_on_c, 1, 38, 0
1, 22200, Note_on_c, 0, 58, 72
1, 22320, Note_on_c, 0, 59, 72
1, 22320, Note_on_c, 1, 35, 72
1, 22345, Note_on_c, 0, 58, 0
1, 22370, Note_on_c, 1, 36, 0
1, 22440, Note_on_c, 1, 42, 69
1, 22465, Note_on_c, 0, 59, 0
1, 22465, Note_on_c, 1, 35, 0
1, 22560, Tempo, 1276596
1, 22560, Note_on_c, 0, 63, 67
1, 22560, Note_on_c, 1, 47, 67
1, 22585, Note_on_c, 1, 42, 0
1, 22660, Note_on_c, 0, 64, 0
1, 22680, Note_on_c, 1, 45, 64
1, 22705, Note_on_c, 1, 47, 0
1, 22800, Tempo, 1395349
1, 22800, Note_on_c, 1, 43, 61
1, 22825, Note_on_c, 1, 45, 0
1, 22850, Note_on_c, 0, 63, 0
1, 22900, Note_on_c, 0, 59, 0
1, 22920, Note_on_c, 1, 42, 59
1, 22945, Note_on_c, 1, 43, 0
1, 23040, Tempo, 1200000
1, 23040, Note_on_c, 0, 64, 64
1, 23040, Note_on_c, 1, 40, 64
1, 23060, Note_on_c, 0, 66, 64
1, 23064, Note_on_c, 0, 64, 0
1, 23065, Note_on_c, 1, 42, 0
1, 23080, Note_on_c, 0, 64, 64
1, 23084, Note_on_c, 0, 66, 0
1, 23160, Note_on_c, 1, 52, 64
1, 23185, Note_on_c, 1, 40, 0
1, 23280, Note_on_c, 1, 43, 64
1, 23305, Note_on_c, 1, 52, 0
1, 23400, Note_on_c, 1, 42, 64
1, 23425, Note_on_c, 1, 43, 0
1, 23520, Note_on_c, 1, 40, 64
1, 23545, Note_on_c, 1, 42, 0
1, 23640, Note_on_c, 1, 43, 64
1, 23665, Note_on_c, 1, 40, 0
1, 23760, Note_on_c, 0, 64, 64
1, 23760, Note_on_c, 0, 66, 64
1, 23760, Note_on_c, 1, 45, 64
1, 23785, Note_on_c, 1, 43, 0
1, 23880, Note_on_c, 1, 57, 65
1, 23905, Note_on_c, 0, 64, 0
1, 23905, Note_on_c, 1, 45, 0
1, 24000, Note_on_c, 1, 48, 67
1, 24025, Note_on_c, 1, 57, 0
1, 24120, Note_on_c, 1, 47, 68
1, 24145, Note_on_c, 1, 48, 0
1, 24240, Note_on_c, 1, 45, 69
1, 24265, Note_on_c, 1, 47, 0
1, 24360, Note_on_c, 1, 48, 71
1, 24385, Note_on_c, 1, 45, 0
1, 24480, Note_on_c, 0, 68, 72
1, 24480, Note_on_c, 0, 62, 72
1, 24480, Note_on_c, 1, 47, 72
1, 24505, Note_on_c, 1, 48, 0
1, 24600, Note_on_c, 1, 59, 72
1, 24625, Note_on_c, 1, 47, 0
1, 24631, Note_on_c, 0, 66, 0
1, 24631, Note_on_c, 0, 64, 0
1, 24720, Note_on_c, 1, 52, 72
1, 24745, Note_on_c, 1, 59, 0
1, 24840, Note_on_c, 1, 53, 72
1, 24865, Note_on_c, 1, 52, 0
1, 24960, Note_on_c, 1, 52, 72
1, 24985, Note_on_c, 1, 53, 0
1, 25080, Note_on_c, 1, 50, 72
1, 25105, Note_on_c, 1, 52, 0
1, 25200, Note_on_c, 0, 64, 72
1, 25200, Note_on_c, 0, 69, 72
1, 25200, Note_on_c, 1, 48, 72
1, 25225, Note_on_c, 1, 50, 0
1, 25320, Note_on_c, 0, 62, 72
1, 25320, Note_on_c, 0, 71, 72
1, 25320, Note_on_c, 1, 47, 72
1, 25345, Note_on_c, 0, 69, 0
1, 25345, Note_on_c, 0, 64, 0
1, 25345, Note_on_c, 1, 48, 0
1, 25351, Note_on_c, 0, 68, 0
1, 25440, Note_on_c, 0, 72, 72
1, 25440, Note_on_c, 0, 60, 72
1, 25440, Note_on_c, 1, 45, 72
1, 25465, Note_on_c, 0, 62, 0
1, 25465, Note_on_c, 0, 71, 0
1, 25465, Note_on_c, 0, 62, 0
1, 25465, Note_on_c, 1, 47, 0
1, 25560, Note_on_c, 1, 57, 72
1, 25585, Note_on_c, 1, 45, 0
1, 25680, Note_on_c, 0, 69, 72
1, 25680, Note_on_c, 1, 54, 72
1, 25705, Note_on_c, 1, 57, 0
1, 25730, Note_on_c, 0, 60, 0
1, 25800, Note_on_c, 0, 67, 72
1, 25800, Note_on_c, 1, 52, 72
1, 25825, Note_on_c, 0, 69, 0
1, 25825, Note_on_c, 1, 54, 0
1, 25920, Note_on_c, 0, 66, 72
1, 25920, Note_on_c, 0, 71, 72
1, 25920, Note_on_c, 1, 51, 72
1, 25945, Note_on_c, 0, 67, 0
1, 25945, Note_on_c, 1, 52, 0
1, 26020, Note_on_c, 0, 72, 0
1, 26040, Note_on_c, 0, 70, 71
1, 26065, Note_on_c, 0, 71, 0
1, 26160, Note_on_c, 0, 71, 69
1, 26185, Note_on_c, 0, 70, 0
1, 26280, Note_on_c, 0, 72, 68
1, 26305, Note_on_c, 0, 71, 0
1, 26400, Note_on_c, 0, 71, 67
1, 26425, Note_on_c, 0, 72, 0
1, 26520, Note_on_c, 0, 69, 65
1, 26545, Note_on_c, 0, 71, 0
1, 26640, Note_on_c, 0, 67, 64
1, 26640, Note_on_c, 1, 52, 64
1, 26665, Note_on_c, 0, 69, 0
1, 26760, Note_on_c, 1, 51, 64
1, 26785, Note_on_c, 1, 52, 0
1, 26880, Note_on_c, 1, 52, 64
1, 26905, Note_on_c, 1, 51, 0
1, 26905, Note_on_c, 1, 51, 0
1, 27000, Note_on_c, 1, 48, 64
1, 27025, Note_on_c, 1, 52, 0
1, 27120, Note_on_c, 0, 64, 64
1, 27120, Note_on_c, 1, 47, 64
1, 27145, Note_on_c, 1, 48, 0
1, 27240, Note_on_c, 1, 46, 64
1, 27265, Note_on_c, 1, 47, 0
1, 27360, Note_on_c, 0, 66, 64
1, 27360, Note_on_c, 1, 47, 64
1, 27385, Note_on_c, 1, 46, 0
1, 27480, Note_on_c, 0, 61, 65
1, 27505, Note_on_c, 0, 66, 0
1, 27511, Note_on_c, 0, 67, 0
1, 27555, Note_on_c, 0, 64, 0
1, 27600, Note_on_c, 0, 63, 67
1, 27625, Note_on_c, 0, 61, 0
1, 27720, Note_on_c, 0, 67, 68
1, 27720, Note_on_c, 0, 64, 68
1, 27745, Note_on_c, 0, 63, 0
1, 27795, Note_on_c, 0, 66, 0
1, 27840, Note_on_c, 0, 66, 69
1, 27840, Note_on_c, 0, 69, 69
1, 27865, Note_on_c, 0, 67, 0
1, 27865, Note_on_c, 0, 64, 0
1, 27960, Note_on_c, 1, 51, 71
1, 28080, Note_on_c, 0, 67, 72
1, 28080, Note_on_c, 1, 52, 72
1, 28105, Note_on_c, 1, 51, 0
1, 28130, Note_on_c, 0, 69, 0
1, 28200, Note_on_c, 1, 59, 72
1, 28225, Note_on_c, 1, 52, 0
1, 28320, Note_on_c, 0, 64, 72
1, 28320, Note_on_c, 1, 55, 72
1, 28345, Note_on_c, 1, 59, 0
1, 28420, Note_on_c, 0, 66, 0
1, 28440, Note_on_c, 1, 54, 72
1, 28465, Note_on_c, 1, 55, 0
1, 28560, Note_on_c, 1, 52, 72
1, 28585, Note_on_c, 1, 54, 0
1, 28680, Note_on_c, 0, 67, 72
1, 28680, Note_on_c, 0, 71, 72
1, 28755, Note_on_c, 0, 64, 0
1, 28800, Note_on_c, 0, 69, 72
1, 28800, Note_on_c, 1, 54, 72
1, 28825, Note_on_c, 0, 71, 0
1, 28825, Note_on_c, 0, 67, 0
1, 28850, Note_on_c, 1, 52, 0
1, 28920, Note_on_c, 1, 60, 72
1, 28945, Note_on_c, 1, 54, 0
1, 29040, Note_on_c, 0, 66, 72
1, 29040, Note_on_c, 1, 57, 72
1, 29065, Note_on_c, 1, 60, 0
1, 29115, Note_on_c, 0, 67, 0
1, 29160, Note_on_c, 0, 71, 72
1, 29160, Note_on_c, 0, 67, 72
1, 29160, Note_on_c, 1, 55, 72
1, 29185, Note_on_c, 0, 66, 0
1, 29185, Note_on_c, 1, 57, 0
1, 29235, Note_on_c, 0, 69, 0
1, 29280, Note_on_c, 0, 72, 72
1, 29280, Note_on_c, 0, 69, 72
1, 29280, Note_on_c, 1, 54, 72
1, 29305, Note_on_c, 0, 71, 0
1, 29305, Note_on_c, 0, 67, 0
1, 29305, Note_on_c, 1, 55, 0
1, 29400, Note_on_c, 0, 67, 72
1, 29400, Note_on_c, 1, 52, 72
1, 29425, Note_on_c, 0, 69, 0
1, 29425, Note_on_c, 1, 54, 0
1, 29520, Note_on_c, 0, 66, 72
1, 29520, Note_on_c, 1, 51, 72
1, 29545, Note_on_c, 0, 67, 0
1, 29545, Note_on_c, 1, 52, 0
1, 29640, Note_on_c, 0, 72, 72
1, 29760, Note_on_c, 0, 71, 72
1, 29785, Note_on_c, 0, 72, 0
1, 29785, Note_on_c, 0, 72, 0
1, 29880, Note_on_c, 0, 70, 72
1, 29905, Note_on_c, 0, 71, 0
1, 30000, Note_on_c, 0, 71, 72
1, 30025, Note_on_c, 0, 70, 0
1, 30120, Note_on_c, 0, 69, 72
1, 30145, Note_on_c, 0, 71, 0
1, 30240, Note_on_c, 0, 67, 72
1, 30240, Note_on_c, 1, 52, 72
1, 30240, Note_on_c, 1, 47, 72
1, 30265, Note_on_c, 0, 69, 0
1, 30360, Note_on_c, 0, 63, 71
1, 30391, Note_on_c, 1, 51, 0
1, 30480, Note_on_c, 0, 64, 69
1, 30505, Note_on_c, 0, 63, 0
1, 30536, Note_on_c, 0, 66, 0
1, 30600, Note_on_c, 0, 60, 68
1, 30625, Note_on_c, 0, 64, 0
1, 30720, Note_on_c, 0, 59, 67
1, 30720, Note_on_c, 1, 55, 67
1, 30745, Note_on_c, 0, 60, 0
1, 30840, Note_on_c, 0, 58, 65
1, 30844, Note_on_c, 1, 47, 0
1, 30865, Note_on_c, 0, 59, 0
1, 30960, Note_on_c, 0, 59, 64
1, 30960, Note_on_c, 1, 47, 64
1, 30960, Note_on_c, 1, 54, 64
1, 30960, Note_on_c, 1, 51, 64
1, 30985, Note_on_c, 0, 58, 0
1, 31010, Note_on_c, 1, 55, 0
1, 31080, Note_on_c, 0, 71, 64
1, 31105, Note_on_c, 0, 59, 0
1, 31111, Note_on_c, 0, 67, 0
1, 31111, Note_on_c, 1, 47, 0
1, 31111, Note_on_c, 1, 52, 0
1, 31200, Note_on_c, 0, 59, 64
1, 31225, Note_on_c, 0, 71, 0
1, 31320, Note_on_c, 0, 60, 64
1, 31320, Note_on_c, 1, 52, 64
1, 31320, Note_on_c, 1, 55, 64
1, 31345, Note_on_c, 0, 59, 0
1, 31395, Note_on_c, 1, 51, 0
1, 31395, Note_on_c, 1, 54, 0
1, 31440, Note_on_c, 0, 59, 64
1, 31440, Note_on_c, 1, 51, 64
1, 31440, Note_on_c, 1, 54, 64
1, 31465, Note_on_c, 0, 60, 0
1, 31465, Note_on_c, 1, 55, 0
1, 31465, Note_on_c, 1, 52, 0
1, 31560, Note_on_c, 0, 58, 64
1, 31560, Note_on_c, 1, 52, 64
1, 31560, Note_on_c, 1, 49, 64
1, 31585, Note_on_c, 0, 59, 0
1, 31585, Note_on_c, 1, 54, 0
1, 31585, Note_on_c, 1, 51, 0
1, 31680, Note_on_c, 0, 59, 64
1, 31680, Note_on_c, 1, 47, 64
1, 31680, Note_on_c, 1, 51, 64
1, 31680, Note_on_c, 1, 54, 64
1, 31705, Note_on_c, 0, 58, 0
1, 31705, Note_on_c, 1, 49, 0
1, 31705, Note_on_c, 1, 52, 0
1, 31800, Note_on_c, 0, 71, 56
1, 31825, Note_on_c, 0, 59, 0
1, 31831, Note_on_c, 1, 47, 0
1, 31920, Note_on_c, 0, 59, 56
1, 31945, Note_on_c, 0, 71, 0
1, 32040, Note_on_c, 0, 60, 56
1, 32040, Note_on_c, 1, 55, 56
1, 32040, Note_on_c, 1, 52, 56
1, 32065, Note_on_c, 0, 59, 0
1, 32115, Note_on_c, 1, 51, 0
1, 32115, Note_on_c, 1, 54, 0
1, 32160, Note_on_c, 0, 59, 56
1, 32160, Note_on_c, 1, 54, 56
1, 32160, Note_on_c, 1, 51, 56
1, 32185, Note_on_c, 0, 60, 0
1, 32185, Note_on_c, 1, 52, 0
1, 32185, Note_on_c, 1, 55, 0
1, 32280, Note_on_c, 0, 58, 56
1, 32280, Note_on_c, 0, 55, 56
1, 32280, Note_on_c, 1, 49, 56
1, 32280, Note_on_c, 1, 52, 56
1, 32305, Note_on_c, 0, 59, 0
1, 32305, Note_on_c, 1, 51, 0
1, 32305, Note_on_c, 1, 54, 0
1, 32400, Note_on_c, 0, 58, 56
1, 32400, Note_on_c, 0, 55, 56
1, 32400, Note_on_c, 1, 47, 56
1, 32400, Note_on_c, 1, 49, 56
1, 32400, Note_on_c, 1, 52, 56
1, 33120, Note_on_c, 0, 59, 48
1, 33120, Note_on_c, 1, 35, 48
1, 33120, Note_on_c, 1, 47, 48
1, 33120, Note_on_c, 1, 51, 48
1, 33120, Note_on_c, 1, 54, 48
1, 33271, Note_on_c, 0, 55, 0
1, 33271, Note_on_c, 0, 58, 0
1, 33271, Note_on_c, 1, 52, 0
1, 33271, Note_on_c, 1, 49, 0
1, 33391, Note_on_c, 0, 58, 0
1, 33391, Note_on_c, 0, 55, 0
1, 33391, Note_on_c, 1, 47, 0
1, 33391, Note_on_c, 1, 52, 0
1, 33391, Note_on_c, 1, 49, 0
1, 33410, Note_on_c, 0, 59, 0
1, 33410, Note_on_c, 1, 47, 0
1, 33410, Note_on_c, 1, 54, 0
1, 33410, Note_on_c, 1, 51, 0
1, 33410, Note_on_c, 1, 35, 0
1, 33410, Note_on_c, 1, 47, 0
1, 33420, End_track
0, 0, End_of_file