0, 0, Header, 0, 1, 240
1, 0, Start_track
1, 0, Tempo, 444444
1, 930, Note_on_c, 0, 85, 80
1, 960, Note_on_c, 0, 85, 0
1, 960, Note_on_c, 0, 86, 80
1, 960, Note_on_c, 1, 50, 80
1, 960, Note_on_c, 1, 54, 80
1, 960, Note_on_c, 1, 57, 80
1, 960, Note_on_c, 1, 62, 80
1, 1080, Note_on_c, 0, 86, 0
1, 1080, Note_on_c, 0, 74, 80
1, 1116, Note_on_c, 0, 74, 0
1, 1200, Note_on_c, 0, 74, 80
1, 1200, Note_on_c, 1, 62, 0
1, 1200, Note_on_c, 1, 50, 0
1, 1200, Note_on_c, 1, 54, 0
1, 1200, Note_on_c, 1, 57, 0
1, 1236, Note_on_c, 0, 74, 0
1, 1320, Note_on_c, 0, 74, 80
1, 1320, Note_on_c, 1, 66, 64
1, 1320, Note_on_c, 1, 69, 64
1, 1440, Note_on_c, 0, 74, 0
1, 1440, Note_on_c, 0, 76, 80
1, 1440, Note_on_c, 1, 69, 0
1, 1440, Note_on_c, 1, 66, 0
1, 1440, Note_on_c, 1, 67, 64
1, 1440, Note_on_c, 1, 71, 64
1, 1470, Note_on_c, 0, 76, 0
1, 1470, Note_on_c, 0, 78, 80
1, 1500, Note_on_c, 0, 78, 0
1, 1500, Note_on_c, 0, 76, 80
1, 1520, Note_on_c, 0, 76, 0
1, 1520, Note_on_c, 0, 78, 80
1, 1540, Note_on_c, 0, 78, 0
1, 1540, Note_on_c, 0, 76, 80
1, 1560, Note_on_c, 0, 76, 0
1, 1560, Note_on_c, 0, 74, 80
1, 1560, Note_on_c, 1, 71, 0
1, 1560, Note_on_c, 1, 67, 0
1, 1560, Note_on_c, 1, 66, 64
1, 1560, Note_on_c, 1, 69, 64
1, 1596, Note_on_c, 0, 74, 0
1, 1596, Note_on_c, 1, 69, 0
1, 1596, Note_on_c, 1, 66, 0
1, 1680, Note_on_c, 0, 76, 80
1, 1680, Note_on_c, 1, 67, 64
1, 1680, Note_on_c, 1, 71, 64
1, 1710, Note_on_c, 0, 76, 0
1, 1710, Note_on_c, 0, 78, 80
1, 1740, Note_on_c, 0, 78, 0
1, 1740, Note_on_c, 0, 76, 80
1, 1760, Note_on_c, 0, 76, 0
1, 1760, Note_on_c, 0, 78, 80
1, 1780, Note_on_c, 0, 78, 0
1, 1780, Note_on_c, 0, 76, 80
1, 1788, Note_on_c, 0, 76, 0
1, 1800, Note_on_c, 0, 74, 80
1, 1800, Note_on_c, 1, 71, 0
1, 1800, Note_on_c, 1, 67, 0
1, 1800, Note_on_c, 1, 66, 64
1, 1800, Note_on_c, 1, 69, 64
1, 1836, Note_on_c, 1, 69, 0
1, 1836, Note_on_c, 1, 66, 0
1, 1842, Note_on_c, 0, 74, 0
1, 1905, Note_on_c, 0, 85, 80
1, 1920, Note_on_c, 0, 85, 0
1, 1920, Note_on_c, 0, 86, 80
1, 1920, Note_on_c, 1, 62, 80
1, 1920, Note_on_c, 1, 66, 80
1, 1920, Note_on_c, 1, 69, 80
1, 2040, Note_on_c, 0, 86, 0
1, 2040, Note_on_c, 0, 74, 80
1, 2076, Note_on_c, 0, 74, 0
1, 2160, Note_on_c, 0, 74, 80
1, 2160, Note_on_c, 1, 69, 0
1, 2160, Note_on_c, 1, 66, 0
1, 2160, Note_on_c, 1, 62, 0
1, 2196, Note_on_c, 0, 74, 0
1, 2280, Note_on_c, 0, 74, 80
1, 2280, Note_on_c, 1, 66, 64
1, 2280, Note_on_c, 1, 69, 64
1, 2400, Note_on_c, 0, 74, 0
1, 2400, Note_on_c, 0, 76, 80
1, 2400, Note_on_c, 1, 69, 0
1, 2400, Note_on_c, 1, 66, 0
1, 2400, Note_on_c, 1, 67, 64
1, 2400, Note_on_c, 1, 71, 64
1, 2430, Note_on_c, 0, 76, 0
1, 2430, Note_on_c, 0, 78, 80
1, 2460, Note_on_c, 0, 78, 0
1, 2460, Note_on_c, 0, 76, 80
1, 2480, Note_on_c, 0, 76, 0
1, 2480, Note_on_c, 0, 78, 80
1, 2500, Note_on_c, 0, 78, 0
1, 2500, Note_on_c, 0, 76, 80
1, 2520, Note_on_c, 0, 76, 0
1, 2520, Note_on_c, 0, 74, 80
1, 2520, Note_on_c, 1, 71, 0
1, 2520, Note_on_c, 1, 67, 0
1, 2520, Note_on_c, 1, 66, 64
1, 2520, Note_on_c, 1, 69, 64
1, 2556, Note_on_c, 0, 74, 0
1, 2556, Note_on_c, 1, 69, 0
1, 2556, Note_on_c, 1, 66, 0
1, 2640, Note_on_c, 0, 76, 80
1, 2640, Note_on_c, 1, 67, 64
1, 2640, Note_on_c, 1, 71, 64
1, 2670, Note_on_c, 0, 76, 0
1, 2670, Note_on_c, 0, 78, 80
1, 2700, Note_on_c, 0, 78, 0
1, 2700, Note_on_c, 0, 76, 80
1, 2720, Note_on_c, 0, 76, 0
1, 2720, Note_on_c, 0, 78, 80
1, 2740, Note_on_c, 0, 78, 0
1, 2740, Note_on_c, 0, 76, 80
1, 2746, Note_on_c, 0, 76, 0
1, 2760, Note_on_c, 0, 74, 80
1, 2760, Note_on_c, 1, 71, 0
1, 2760, Note_on_c, 1, 67, 0
1, 2760, Note_on_c, 1, 66, 64
1, 2760, Note_on_c, 1, 69, 64
1, 2796, Note_on_c, 0, 74, 0
1, 2796, Note_on_c, 1, 69, 0
1, 2796, Note_on_c, 1, 66, 0
1, 2880, Note_on_c, 0, 74, 80
1, 2880, Note_on_c, 0, 79, 80
1, 2880, Note_on_c, 1, 71, 80
1, 2916, Note_on_c, 0, 79, 0
1, 2916, Note_on_c, 0, 74, 0
1, 2916, Note_on_c, 1, 71, 0
1, 3000, Note_on_c, 0, 74, 64
1, 3000, Note_on_c, 0, 79, 80
1, 3000, Note_on_c, 1, 71, 80
1, 3120, Note_on_c, 0, 79, 0
1, 3120, Note_on_c, 0, 74, 0
1, 3120, Note_on_c, 0, 78, 80
1, 3120, Note_on_c, 1, 71, 0
1, 3120, Note_on_c, 1, 69, 80
1, 3156, Note_on_c, 0, 78, 0
1, 3156, Note_on_c, 1, 69, 0
1, 3240, Note_on_c, 0, 74, 64
1, 3240, Note_on_c, 0, 78, 80
1, 3240, Note_on_c, 1, 69, 80
1, 3360, Note_on_c, 0, 78, 0
1, 3360, Note_on_c, 0, 74, 0
1, 3360, Note_on_c, 0, 83, 80
1, 3360, Note_on_c, 1, 69, 0
1, 3360, Note_on_c, 1, 67, 80
1, 3396, Note_on_c, 0, 83, 0
1, 3396, Note_on_c, 1, 67, 0
1, 3480, Note_on_c, 0, 74, 64
1, 3480, Note_on_c, 0, 83, 80
1, 3480, Note_on_c, 1, 67, 80
1, 3600, Note_on_c, 0, 83, 0
1, 3600, Note_on_c, 0, 74, 0
1, 3600, Note_on_c, 0, 81, 80
1, 3600, Note_on_c, 1, 67, 0
1, 3600, Note_on_c, 1, 66, 80
1, 3636, Note_on_c, 0, 81, 0
1, 3636, Note_on_c, 1, 66, 0
1, 3720, Note_on_c, 0, 74, 80
1, 3720, Note_on_c, 0, 81, 80
1, 3720, Note_on_c, 1, 66, 80
1, 3840, Note_on_c, 0, 81, 0
1, 3840, Note_on_c, 0, 74, 0
1, 3840, Note_on_c, 0, 79, 80
1, 3840, Note_on_c, 1, 66, 0
1, 3840, Note_on_c, 1, 64, 80
1, 3960, Note_on_c, 0, 79, 0
1, 3960, Note_on_c, 0, 76, 80
1, 3960, Note_on_c, 1, 64, 0
1, 3960, Note_on_c, 1, 61, 80
1, 4080, Note_on_c, 0, 76, 0
1, 4080, Note_on_c, 0, 78, 80
1, 4080, Note_on_c, 1, 61, 0
1, 4080, Note_on_c, 1, 62, 80
1, 4200, Note_on_c, 0, 78, 0
1, 4200, Note_on_c, 0, 74, 80
1, 4200, Note_on_c, 1, 62, 0
1, 4200, Note_on_c, 1, 66, 80
1, 4320, Note_on_c, 0, 74, 0
1, 4320, Note_on_c, 0, 73, 80
1, 4320, Note_on_c, 1, 66, 0
1, 4320, Note_on_c, 1, 69, 80
1, 4380, Note_on_c, 0, 73, 0
1, 4380, Note_on_c, 0, 74, 80
1, 4440, Note_on_c, 0, 74, 0
1, 4440, Note_on_c, 0, 76, 80
1, 4500, Note_on_c, 0, 76, 0
1, 4500, Note_on_c, 0, 73, 80
1, 4560, Note_on_c, 0, 73, 0
1, 4560, Note_on_c, 0, 69, 80
1, 4560, Note_on_c, 1, 69, 0
1, 4620, Note_on_c, 0, 69, 0
1, 4770, Note_on_c, 0, 85, 80
1, 4800, Note_on_c, 0, 85, 0
1, 4800, Note_on_c, 0, 86, 80
1, 4800, Note_on_c, 1, 62, 64
1, 4860, Note_on_c, 1, 62, 0
1, 4860, Note_on_c, 1, 69, 64
1, 4920, Note_on_c, 0, 86, 0
1, 4920, Note_on_c, 0, 74, 80
1, 4920, Note_on_c, 1, 69, 0
1, 4920, Note_on_c, 1, 66, 64
1, 4956, Note_on_c, 0, 74, 0
1, 4980, Note_on_c, 1, 66, 0
1, 4980, Note_on_c, 1, 69, 64
1, 5040, Note_on_c, 0, 74, 80
1, 5040, Note_on_c, 1, 69, 0
1, 5040, Note_on_c, 1, 66, 64
1, 5076, Note_on_c, 0, 74, 0
1, 5100, Note_on_c, 1, 66, 0
1, 5100, Note_on_c, 1, 69, 64
1, 5160, Note_on_c, 0, 74, 80
1, 5160, Note_on_c, 1, 69, 0
1, 5160, Note_on_c, 1, 66, 64
1, 5187, Note_on_c, 0, 74, 0
1, 5220, Note_on_c, 1, 66, 0
1, 5220, Note_on_c, 1, 69, 64
1, 5250, Note_on_c, 0, 78, 80
1, 5280, Note_on_c, 0, 78, 0
1, 5280, Note_on_c, 0, 76, 88
1, 5280, Note_on_c, 1, 69, 0
1, 5280, Note_on_c, 1, 67, 64
1, 5340, Note_on_c, 1, 67, 0
1, 5340, Note_on_c, 1, 69, 64
1, 5400, Note_on_c, 0, 76, 0
1, 5400, Note_on_c, 0, 74, 80
1, 5400, Note_on_c, 1, 69, 0
1, 5400, Note_on_c, 1, 66, 64
1, 5427, Note_on_c, 0, 74, 0
1, 5460, Note_on_c, 1, 66, 0
1, 5460, Note_on_c, 1, 69, 64
1, 5490, Note_on_c, 0, 78, 80
1, 5520, Note_on_c, 0, 78, 0
1, 5520, Note_on_c, 0, 76, 88
1, 5520, Note_on_c, 1, 69, 0
1, 5520, Note_on_c, 1, 67, 64
1, 5580, Note_on_c, 1, 67, 0
1, 5580, Note_on_c, 1, 69, 64
1, 5640, Note_on_c, 0, 76, 0
1, 5640, Note_on_c, 0, 74, 80
1, 5640, Note_on_c, 1, 69, 0
1, 5640, Note_on_c, 1, 66, 64
1, 5667, Note_on_c, 0, 74, 0
1, 5700, Note_on_c, 1, 66, 0
1, 5700, Note_on_c, 1, 69, 64
1, 5730, Note_on_c, 0, 85, 80
1, 5760, Note_on_c, 0, 85, 0
1, 5760, Note_on_c, 0, 86, 80
1, 5760, Note_on_c, 1, 69, 0
1, 5760, Note_on_c, 1, 62, 64
1, 5820, Note_on_c, 1, 62, 0
1, 5820, Note_on_c, 1, 69, 64
1, 5880, Note_on_c, 0, 86, 0
1, 5880, Note_on_c, 0, 74, 80
1, 5880, Note_on_c, 1, 69, 0
1, 5880, Note_on_c, 1, 66, 64
1, 5916, Note_on_c, 0, 74, 0
1, 5940, Note_on_c, 1, 66, 0
1, 5940, Note_on_c, 1, 69, 64
1, 6000, Note_on_c, 0, 74, 80
1, 6000, Note_on_c, 1, 69, 0
1, 6000, Note_on_c, 1, 66, 64
1, 6036, Note_on_c, 0, 74, 0
1, 6060, Note_on_c, 1, 66, 0
1, 6060, Note_on_c, 1, 69, 64
1, 6120, Note_on_c, 0, 74, 80
1, 6120, Note_on_c, 1, 69, 0
1, 6120, Note_on_c, 1, 66, 64
1, 6147, Note_on_c, 0, 74, 0
1, 6180, Note_on_c, 1, 66, 0
1, 6180, Note_on_c, 1, 69, 64
1, 6210, Note_on_c, 0, 78, 80
1, 6240, Note_on_c, 0, 78, 0
1, 6240, Note_on_c, 0, 76, 88
1, 6240, Note_on_c, 1, 69, 0
1, 6240, Note_on_c, 1, 67, 64
1, 6300, Note_on_c, 1, 67, 0
1, 6300, Note_on_c, 1, 69, 64
1, 6360, Note_on_c, 0, 76, 0
1, 6360, Note_on_c, 0, 74, 80
1, 6360, Note_on_c, 1, 69, 0
1, 6360, Note_on_c, 1, 66, 64
1, 6387, Note_on_c, 0, 74, 0
1, 6420, Note_on_c, 1, 66, 0
1, 6420, Note_on_c, 1, 69, 64
1, 6450, Note_on_c, 0, 78, 80
1, 6480, Note_on_c, 0, 78, 0
1, 6480, Note_on_c, 0, 76, 88
1, 6480, Note_on_c, 1, 69, 0
1, 6480, Note_on_c, 1, 67, 64
1, 6540, Note_on_c, 1, 67, 0
1, 6540, Note_on_c, 1, 69, 64
1, 6600, Note_on_c, 0, 76, 0
1, 6600, Note_on_c, 0, 74, 80
1, 6600, Note_on_c, 1, 69, 0
1, 6600, Note_on_c, 1, 66, 64
1, 6636, Note_on_c, 0, 74, 0
1, 6660, Note_on_c, 1, 66, 0
1, 6660, Note_on_c, 1, 69, 64
1, 6720, Note_on_c, 0, 74, 80
1, 6720, Note_on_c, 0, 79, 80
1, 6720, Note_on_c, 1, 69, 0
1, 6720, Note_on_c, 1, 71, 80
1, 6756, Note_on_c, 0, 79, 0
1, 6756, Note_on_c, 0, 74, 0
1, 6756, Note_on_c, 1, 71, 0
1, 6840, Note_on_c, 0, 79, 80
1, 6840, Note_on_c, 0, 74, 64
1, 6840, Note_on_c, 1, 71, 80
1, 6960, Note_on_c, 0, 74, 0
1, 6960, Note_on_c, 0, 79, 0
1, 6960, Note_on_c, 0, 78, 80
1, 6960, Note_on_c, 1, 71, 0
1, 6960, Note_on_c, 1, 69, 80
1, 6996, Note_on_c, 0, 78, 0
1, 6996, Note_on_c, 1, 69, 0
1, 7080, Note_on_c, 0, 78, 80
1, 7080, Note_on_c, 0, 74, 64
1, 7080, Note_on_c, 1, 69, 80
1, 7200, Note_on_c, 0, 74, 0
1, 7200, Note_on_c, 0, 78, 0
1, 7200, Note_on_c, 0, 83, 80
1, 7200, Note_on_c, 1, 69, 0
1, 7200, Note_on_c, 1, 67, 80
1, 7236, Note_on_c, 0, 83, 0
1, 7236, Note_on_c, 1, 67, 0
1, 7320, Note_on_c, 0, 83, 80
1, 7320, Note_on_c, 0, 74, 64
1, 7320, Note_on_c, 1, 67, 80
1, 7440, Note_on_c, 0, 74, 0
1, 7440, Note_on_c, 0, 83, 0
1, 7440, Note_on_c, 0, 81, 80
1, 7440, Note_on_c, 1, 67, 0
1, 7440, Note_on_c, 1, 66, 80
1, 7476, Note_on_c, 0, 81, 0
1, 7476, Note_on_c, 1, 66, 0
1, 7560, Note_on_c, 0, 74, 80
1, 7560, Note_on_c, 0, 81, 80
1, 7560, Note_on_c, 1, 66, 80
1, 7644, Note_on_c, 0, 81, 0
1, 7644, Note_on_c, 0, 74, 0
1, 7644, Note_on_c, 1, 66, 0
1, 7680, Tempo, 451128
1, 7680, Note_on_c, 1, 67, 80
1, 7800, Note_on_c, 0, 71, 80
1, 7800, Note_on_c, 0, 79, 80
1, 7920, Note_on_c, 0, 79, 0
1, 7920, Note_on_c, 0, 71, 0
1, 7920, Note_on_c, 0, 67, 80
1, 7920, Note_on_c, 0, 76, 80
1, 7920, Note_on_c, 1, 67, 0
1, 7968, Note_on_c, 0, 76, 0
1, 7968, Note_on_c, 0, 67, 0
1, 8040, Note_on_c, 0, 64, 80
1, 8040, Note_on_c, 0, 73, 80
1, 8040, Note_on_c, 1, 57, 80
1, 8064, Note_on_c, 0, 73, 0
1, 8064, Note_on_c, 0, 64, 0
1, 8064, Note_on_c, 1, 57, 0
1, 8160, Note_on_c, 0, 66, 80
1, 8160, Note_on_c, 0, 74, 80
1, 8160, Note_on_c, 1, 50, 80
1, 8400, Note_on_c, 0, 74, 0
1, 8400, Note_on_c, 0, 66, 0
1, 8400, Note_on_c, 1, 50, 0
1, 8640, Tempo, 444444
1, 8640, Note_on_c, 0, 62, 88
1, 8640, Note_on_c, 1, 38, 88
1, 8640, Note_on_c, 1, 50, 88
1, 8700, Note_on_c, 0, 62, 0
1, 8700, Note_on_c, 0, 57, 64
1, 8760, Note_on_c, 0, 57, 0
1, 8760, Note_on_c, 0, 54, 64
1, 8820, Note_on_c, 0, 54, 0
1, 8820, Note_on_c, 0, 57, 64
1, 8880, Note_on_c, 0, 57, 0
1, 8880, Note_on_c, 0, 62, 64
1, 8880, Note_on_c, 1, 50, 0
1, 8880, Note_on_c, 1, 38, 0
1, 8880, Note_on_c, 1, 50, 64
1, 8916, Note_on_c, 1, 50, 0
1, 8940, Note_on_c, 0, 62, 0
1, 8940, Note_on_c, 0, 57, 64
1, 9000, Note_on_c, 0, 57, 0
1, 9000, Note_on_c, 0, 64, 64
1, 9000, Note_on_c, 1, 49, 64
1, 9036, Note_on_c, 1, 49, 0
1, 9060, Note_on_c, 0, 64, 0
1, 9060, Note_on_c, 0, 57, 64
1, 9120, Note_on_c, 0, 57, 0
1, 9120, Note_on_c, 0, 66, 64
1, 9120, Note_on_c, 1, 50, 64
1, 9156, Note_on_c, 1, 50, 0
1, 9180, Note_on_c, 0, 66, 0
1, 9180, Note_on_c, 0, 57, 64
1, 9240, Note_on_c, 0, 57, 0
1, 9240, Note_on_c, 0, 67, 64
1, 9240, Note_on_c, 1, 52, 64
1, 9276, Note_on_c, 1, 52, 0
1, 9300, Note_on_c, 0, 67, 0
1, 9300, Note_on_c, 0, 57, 64
1, 9360, Note_on_c, 0, 57, 0
1, 9360, Note_on_c, 0, 69, 64
1, 9360, Note_on_c, 1, 54, 64
1, 9420, Note_on_c, 0, 69, 0
1, 9420, Note_on_c, 0, 57, 64
1, 9480, Note_on_c, 0, 57, 0
1, 9480, Note_on_c, 0, 67, 64
1, 9480, Note_on_c, 1, 54, 0
1, 9480, Note_on_c, 1, 52, 64
1, 9516, Note_on_c, 1, 52, 0
1, 9540, Note_on_c, 0, 67, 0
1, 9540, Note_on_c, 0, 57, 64
1, 9600, Note_on_c, 0, 57, 0
1, 9600, Note_on_c, 0, 66, 88
1, 9600, Note_on_c, 1, 38, 88
1, 9600, Note_on_c, 1, 50, 88
1, 9660, Note_on_c, 0, 66, 0
1, 9660, Note_on_c, 0, 62, 64
1, 9720, Note_on_c, 0, 62, 0
1, 9720, Note_on_c, 0, 57, 64
1, 9780, Note_on_c, 0, 57, 0
1, 9780, Note_on_c, 0, 62, 64
1, 9840, Note_on_c, 0, 62, 0
1, 9840, Note_on_c, 0, 66, 64
1, 9840, Note_on_c, 1, 50, 0
1, 9840, Note_on_c, 1, 38, 0
1, 9840, Note_on_c, 1, 50, 64
1, 9876, Note_on_c, 1, 50, 0
1, 9900, Note_on_c, 0, 66, 0
1, 9900, Note_on_c, 0, 62, 64
1, 9960, Note_on_c, 0, 62, 0
1, 9960, Note_on_c, 0, 67, 64
1, 9960, Note_on_c, 1, 52, 64
1, 9996, Note_on_c, 1, 52, 0
1, 10020, Note_on_c, 0, 67, 0
1, 10020, Note_on_c, 0, 62, 64
1, 10080, Note_on_c, 0, 62, 0
1, 10080, Note_on_c, 0, 69, 64
1, 10080, Note_on_c, 1, 54, 64
1, 10140, Note_on_c, 0, 69, 0
1, 10140, Note_on_c, 0, 62, 64
1, 10200, Note_on_c, 0, 62, 0
1, 10200, Note_on_c, 0, 71, 64
1, 10200, Note_on_c, 1, 54, 0
1, 10200, Note_on_c, 1, 55, 64
1, 10236, Note_on_c, 1, 55, 0
1, 10260, Note_on_c, 0, 71, 0
1, 10260, Note_on_c, 0, 62, 64
1, 10320, Note_on_c, 0, 62, 0
1, 10320, Note_on_c, 0, 69, 64
1, 10320, Note_on_c, 1, 54, 64
1, 10356, Note_on_c, 1, 54, 0
1, 10380, Note_on_c, 0, 69, 0
1, 10380, Note_on_c, 0, 62, 64
1, 10440, Note_on_c, 0, 62, 0
1, 10440, Note_on_c, 0, 73, 64
1, 10440, Note_on_c, 1, 52, 64
1, 10476, Note_on_c, 1, 52, 0
1, 10500, Note_on_c, 0, 73, 0
1, 10500, Note_on_c, 0, 62, 64
1, 10560, Note_on_c, 0, 62, 0
1, 10560, Note_on_c, 0, 74, 88
1, 10560, Note_on_c, 1, 38, 88
1, 10560, Note_on_c, 1, 50, 88
1, 10620, Note_on_c, 0, 74, 0
1, 10620, Note_on_c, 0, 69, 48
1, 10680, Note_on_c, 0, 69, 0
1, 10680, Note_on_c, 0, 66, 48
1, 10740, Note_on_c, 0, 66, 0
1, 10740, Note_on_c, 0, 69, 48
1, 10800, Note_on_c, 0, 69, 0
1, 10800, Note_on_c, 0, 74, 48
1, 10800, Note_on_c, 1, 50, 0
1, 10800, Note_on_c, 1, 38, 0
1, 10800, Note_on_c, 1, 62, 48
1, 10836, Note_on_c, 1, 62, 0
1, 10860, Note_on_c, 0, 74, 0
1, 10860, Note_on_c, 0, 69, 48
1, 10920, Note_on_c, 0, 69, 0
1, 10920, Note_on_c, 0, 76, 48
1, 10920, Note_on_c, 1, 61, 48
1, 10956, Note_on_c, 1, 61, 0
1, 10980, Note_on_c, 0, 76, 0
1, 10980, Note_on_c, 0, 69, 48
1, 11040, Note_on_c, 0, 69, 0
1, 11040, Note_on_c, 0, 78, 48
1, 11040, Note_on_c, 1, 62, 48
1, 11076, Note_on_c, 1, 62, 0
1, 11100, Note_on_c, 0, 78, 0
1, 11100, Note_on_c, 0, 69, 48
1, 11160, Note_on_c, 0, 69, 0
1, 11160, Note_on_c, 0, 79, 48
1, 11160, Note_on_c, 1, 64, 48
1, 11196, Note_on_c, 1, 64, 0
1, 11220, Note_on_c, 0, 79, 0
1, 11220, Note_on_c, 0, 69, 48
1, 11280, Note_on_c, 0, 69, 0
1, 11280, Note_on_c, 0, 81, 48
1, 11280, Note_on_c, 1, 66, 48
1, 11340, Note_on_c, 0, 81, 0
1, 11340, Note_on_c, 0, 69, 48
1, 11400, Note_on_c, 0, 69, 0
1, 11400, Note_on_c, 0, 79, 48
1, 11400, Note_on_c, 1, 66, 0
1, 11400, Note_on_c, 1, 64, 48
1, 11436, Note_on_c, 1, 64, 0
1, 11460, Note_on_c, 0, 79, 0
1, 11460, Note_on_c, 0, 69, 48
1, 11520, Note_on_c, 0, 69, 0
1, 11520, Note_on_c, 0, 78, 72
1, 11520, Note_on_c, 1, 50, 72
1, 11520, Note_on_c, 1, 62, 72
1, 11580, Note_on_c, 0, 78, 0
1, 11580, Note_on_c, 0, 74, 50
1, 11640, Note_on_c, 0, 74, 0
1, 11640, Note_on_c, 0, 69, 52
1, 11700, Note_on_c, 0, 69, 0
1, 11700, Note_on_c, 0, 74, 54
1, 11760, Note_on_c, 0, 74, 0
1, 11760, Note_on_c, 0, 78, 56
1, 11760, Note_on_c, 1, 62, 0
1, 11760, Note_on_c, 1, 50, 0
1, 11760, Note_on_c, 1, 62, 56
1, 11796, Note_on_c, 1, 62, 0
1, 11820, Note_on_c, 0, 78, 0
1, 11820, Note_on_c, 0, 74, 58
1, 11880, Note_on_c, 0, 74, 0
1, 11880, Note_on_c, 0, 79, 60
1, 11880, Note_on_c, 1, 64, 60
1, 11916, Note_on_c, 1, 64, 0
1, 11940, Note_on_c, 0, 79, 0
1, 11940, Note_on_c, 0, 74, 62
1, 12000, Note_on_c, 0, 74, 0
1, 12000, Note_on_c, 0, 81, 64
1, 12000, Note_on_c, 1, 66, 64
1, 12060, Note_on_c, 0, 81, 0
1, 12060, Note_on_c, 0, 74, 66
1, 12120, Note_on_c, 0, 74, 0
1, 12120, Note_on_c, 0, 83, 68
1, 12120, Note_on_c, 1, 66, 0
1, 12120, Note_on_c, 1, 67, 68
1, 12156, Note_on_c, 1, 67, 0
1, 12180, Note_on_c, 0, 83, 0
1, 12180, Note_on_c, 0, 74, 70
1, 12240, Note_on_c, 0, 74, 0
1, 12240, Note_on_c, 0, 81, 72
1, 12240, Note_on_c, 1, 66, 72
1, 12276, Note_on_c, 1, 66, 0
1, 12300, Note_on_c, 0, 81, 0
1, 12300, Note_on_c, 0, 74, 74
1, 12360, Note_on_c, 0, 74, 0
1, 12360, Note_on_c, 0, 79, 76
1, 12360, Note_on_c, 1, 64, 76
1, 12396, Note_on_c, 1, 64, 0
1, 12420, Note_on_c, 0, 79, 0
1, 12420, Note_on_c, 0, 74, 78
1, 12480, Note_on_c, 0, 74, 0
1, 12480, Note_on_c, 0, 78, 80
1, 12480, Note_on_c, 1, 62, 80
1, 12540, Note_on_c, 0, 78, 0
1, 12540, Note_on_c, 0, 74, 80
1, 12600, Note_on_c, 0, 74, 0
1, 12600, Note_on_c, 0, 73, 80
1, 12600, Note_on_c, 1, 62, 0
1, 12600, Note_on_c, 1, 66, 80
1, 12660, Note_on_c, 0, 73, 0
1, 12660, Note_on_c, 0, 74, 80
1, 12720, Note_on_c, 0, 74, 0
1, 12720, Note_on_c, 0, 83, 80
1, 12720, Note_on_c, 1, 66, 0
1, 12720, Note_on_c, 1, 67, 80
1, 12780, Note_on_c, 0, 83, 0
1, 12780, Note_on_c, 0, 74, 80
1, 12840, Note_on_c, 0, 74, 0
1, 12840, Note_on_c, 0, 73, 80
1, 12840, Note_on_c, 1, 67, 0
1, 12840, Note_on_c, 1, 71, 80
1, 12900, Note_on_c, 0, 73, 0
1, 12900, Note_on_c, 0, 74, 80
1, 12900, Note_on_c, 1, 71, 0
1, 12960, Note_on_c, 0, 74, 0
1, 12960, Note_on_c, 0, 81, 80
1, 12960, Note_on_c, 1, 66, 80
1, 13020, Note_on_c, 0, 81, 0
1, 13020, Note_on_c, 0, 74, 80
1, 13080, Note_on_c, 0, 74, 0
1, 13080, Note_on_c, 0, 73, 80
1, 13080, Note_on_c, 1, 66, 0
1, 13080, Note_on_c, 1, 69, 80
1, 13140, Note_on_c, 0, 73, 0
1, 13140, Note_on_c, 0, 74, 80
1, 13140, Note_on_c, 1, 69, 0
1, 13200, Note_on_c, 0, 74, 0
1, 13200, Note_on_c, 0, 79, 80
1, 13200, Note_on_c, 1, 64, 80
1, 13260, Note_on_c, 0, 79, 0
1, 13260, Note_on_c, 0, 74, 80
1, 13320, Note_on_c, 0, 74, 0
1, 13320, Note_on_c, 0, 73, 80
1, 13320, Note_on_c, 1, 64, 0
1, 13320, Note_on_c, 1, 67, 80
1, 13380, Note_on_c, 0, 73, 0
1, 13380, Note_on_c, 0, 74, 80
1, 13380, Note_on_c, 1, 67, 0
1, 13440, Note_on_c, 0, 74, 0
1, 13440, Note_on_c, 0, 78, 48
1, 13440, Note_on_c, 1, 62, 48
1, 13476, Note_on_c, 1, 62, 0
1, 13500, Note_on_c, 0, 78, 0
1, 13500, Note_on_c, 0, 74, 48
1, 13518, Note_on_c, 0, 74, 0
1, 13560, Note_on_c, 0, 73, 48
1, 13560, Note_on_c, 1, 66, 48
1, 13578, Note_on_c, 0, 73, 0
1, 13596, Note_on_c, 1, 66, 0
1, 13620, Note_on_c, 0, 74, 48
1, 13638, Note_on_c, 0, 74, 0
1, 13680, Note_on_c, 0, 83, 48
1, 13680, Note_on_c, 1, 67, 48
1, 13740, Note_on_c, 0, 83, 0
1, 13740, Note_on_c, 0, 74, 48
1, 13758, Note_on_c, 0, 74, 0
1, 13800, Note_on_c, 0, 73, 48
1, 13800, Note_on_c, 1, 67, 0
1, 13800, Note_on_c, 1, 71, 48
1, 13818, Note_on_c, 0, 73, 0
1, 13836, Note_on_c, 1, 71, 0
1, 13860, Note_on_c, 0, 74, 48
1, 13878, Note_on_c, 0, 74, 0
1, 13920, Note_on_c, 0, 81, 48
1, 13920, Note_on_c, 1, 66, 48
1, 13980, Note_on_c, 0, 81, 0
1, 13980, Note_on_c, 0, 74, 48
1, 13998, Note_on_c, 0, 74, 0
1, 14040, Note_on_c, 0, 73, 48
1, 14040, Note_on_c, 1, 66, 0
1, 14040, Note_on_c, 1, 69, 48
1, 14058, Note_on_c, 0, 73, 0
1, 14076, Note_on_c, 1, 69, 0
1, 14100, Note_on_c, 0, 74, 48
1, 14118, Note_on_c, 0, 74, 0
1, 14160, Note_on_c, 0, 79, 48
1, 14160, Note_on_c, 1, 64, 48
1, 14220, Note_on_c, 0, 79, 0
1, 14220, Note_on_c, 0, 74, 48
1, 14238, Note_on_c, 0, 74, 0
1, 14280, Note_on_c, 0, 73, 48
1, 14280, Note_on_c, 1, 64, 0
1, 14280, Note_on_c, 1, 67, 48
1, 14298, Note_on_c, 0, 73, 0
1, 14316, Note_on_c, 1, 67, 0
1, 14340, Note_on_c, 0, 74, 48
1, 14358, Note_on_c, 0, 74, 0
1, 14400, Note_on_c, 0, 78, 80
1, 14400, Note_on_c, 1, 66, 80
1, 14460, Note_on_c, 0, 78, 0
1, 14460, Note_on_c, 0, 74, 80
1, 14460, Note_on_c, 1, 66, 0
1, 14460, Note_on_c, 1, 62, 80
1, 14478, Note_on_c, 0, 74, 0
1, 14478, Note_on_c, 1, 62, 0
1, 14520, Note_on_c, 0, 76, 80
1, 14520, Note_on_c, 1, 64, 80
1, 14538, Note_on_c, 0, 76, 0
1, 14538, Note_on_c, 1, 64, 0
1, 14580, Note_on_c, 0, 78, 80
1, 14580, Note_on_c, 1, 66, 80
1, 14598, Note_on_c, 0, 78, 0
1, 14598, Note_on_c, 1, 66, 0
1, 14640, Note_on_c, 0, 79, 80
1, 14640, Note_on_c, 1, 67, 80
1, 14700, Note_on_c, 0, 79, 0
1, 14700, Note_on_c, 0, 81, 80
1, 14700, Note_on_c, 1, 67, 0
1, 14700, Note_on_c, 1, 69, 80
1, 14760, Note_on_c, 0, 81, 0
1, 14760, Note_on_c, 0, 83, 80
1, 14760, Note_on_c, 1, 69, 0
1, 14760, Note_on_c, 1, 71, 80
1, 14820, Note_on_c, 0, 83, 0
1, 14820, Note_on_c, 0, 85, 80
1, 14820, Note_on_c, 1, 71, 0
1, 14820, Note_on_c, 1, 73, 80
1, 14880, Note_on_c, 0, 85, 0
1, 14880, Note_on_c, 0, 86, 80
1, 14880, Note_on_c, 1, 73, 0
1, 14880, Note_on_c, 1, 74, 80
1, 14940, Note_on_c, 0, 86, 0
1, 14940, Note_on_c, 0, 85, 80
1, 14940, Note_on_c, 1, 74, 0
1, 14940, Note_on_c, 1, 73, 80
1, 15000, Note_on_c, 0, 85, 0
1, 15000, Note_on_c, 0, 86, 80
1, 15000, Note_on_c, 1, 73, 0
1, 15000, Note_on_c, 1, 74, 80
1, 15060, Note_on_c, 0, 86, 0
1, 15060, Note_on_c, 0, 85, 80
1, 15060, Note_on_c, 1, 74, 0
1, 15060, Note_on_c, 1, 73, 80
1, 15120, Note_on_c, 0, 85, 0
1, 15120, Note_on_c, 0, 86, 80
1, 15120, Note_on_c, 1, 73, 0
1, 15120, Note_on_c, 1, 74, 80
1, 15180, Note_on_c, 0, 86, 0
1, 15180, Note_on_c, 0, 81, 80
1, 15180, Note_on_c, 1, 74, 0
1, 15180, Note_on_c, 1, 69, 80
1, 15240, Note_on_c, 0, 81, 0
1, 15240, Note_on_c, 0, 78, 80
1, 15240, Note_on_c, 1, 69, 0
1, 15240, Note_on_c, 1, 66, 80
1, 15300, Note_on_c, 0, 78, 0
1, 15300, Note_on_c, 0, 74, 80
1, 15300, Note_on_c, 1, 66, 0
1, 15300, Note_on_c, 1, 62, 80
1, 15360, Tempo, 500000
1, 15360, Note_on_c, 0, 74, 0
1, 15360, Note_on_c, 0, 81, 80
1, 15360, Note_on_c, 1, 62, 0
1, 15360, Note_on_c, 1, 69, 80
1, 15576, Note_on_c, 0, 81, 0
1, 15576, Note_on_c, 1, 69, 0
1, 15600, Note_on_c, 0, 61, 88
1, 15600, Note_on_c, 0, 69, 88
1, 15600, Note_on_c, 1, 45, 88
1, 15600, Note_on_c, 1, 57, 88
1, 15654, Note_on_c, 0, 69, 0
1, 15654, Note_on_c, 0, 61, 0
1, 15654, Note_on_c, 1, 57, 0
1, 15654, Note_on_c, 1, 45, 0
1, 15780, Note_on_c, 0, 61, 88
1, 15780, Note_on_c, 0, 69, 88
1, 15780, Note_on_c, 1, 45, 88
1, 15780, Note_on_c, 1, 57, 88
1, 15798, Note_on_c, 0, 69, 0
1, 15798, Note_on_c, 0, 61, 0
1, 15798, Note_on_c, 1, 57, 0
1, 15798, Note_on_c, 1, 45, 0
1, 15840, Note_on_c, 0, 61, 88
1, 15840, Note_on_c, 0, 69, 88
1, 15840, Note_on_c, 1, 45, 88
1, 15840, Note_on_c, 1, 57, 88
1, 16080, Note_on_c, 0, 69, 0
1, 16080, Note_on_c, 0, 61, 0
1, 16080, Note_on_c, 1, 57, 0
1, 16080, Note_on_c, 1, 45, 0
1, 16290, Note_on_c, 0, 83, 48
1, 16320, Tempo, 444444
1, 16320, Note_on_c, 0, 83, 0
1, 16320, Note_on_c, 0, 81, 48
1, 16320, Note_on_c, 1, 61, 72
1, 16320, Note_on_c, 1, 64, 72
1, 16380, Note_on_c, 0, 81, 0
1, 16380, Note_on_c, 0, 80, 48
1, 16380, Note_on_c, 1, 64, 0
1, 16380, Note_on_c, 1, 61, 0
1, 16440, Note_on_c, 0, 80, 0
1, 16440, Note_on_c, 0, 81, 48
1, 16440, Note_on_c, 1, 61, 48
1, 16440, Note_on_c, 1, 64, 48
1, 16476, Note_on_c, 1, 64, 0
1, 16476, Note_on_c, 1, 61, 0
1, 16500, Note_on_c, 0, 81, 0
1, 16500, Note_on_c, 0, 83, 48
1, 16560, Note_on_c, 0, 83, 0
1, 16560, Note_on_c, 0, 81, 48
1, 16560, Note_on_c, 1, 61, 48
1, 16560, Note_on_c, 1, 64, 48
1, 16596, Note_on_c, 1, 64, 0
1, 16596, Note_on_c, 1, 61, 0
1, 16680, Note_on_c, 0, 81, 0
1, 16680, Note_on_c, 1, 61, 48
1, 16680, Note_on_c, 1, 64, 48
1, 16770, Note_on_c, 0, 80, 48
1, 16800, Note_on_c, 0, 80, 0
1, 16800, Note_on_c, 0, 78, 48
1, 16800, Note_on_c, 1, 64, 0
1, 16800, Note_on_c, 1, 61, 0
1, 16800, Note_on_c, 1, 62, 72
1, 16800, Note_on_c, 1, 66, 72
1, 16860, Note_on_c, 0, 78, 0
1, 16860, Note_on_c, 0, 77, 48
1, 16860, Note_on_c, 1, 66, 0
1, 16860, Note_on_c, 1, 62, 0
1, 16920, Note_on_c, 0, 77, 0
1, 16920, Note_on_c, 0, 78, 48
1, 16920, Note_on_c, 1, 62, 48
1, 16920, Note_on_c, 1, 66, 48
1, 16956, Note_on_c, 1, 66, 0
1, 16956, Note_on_c, 1, 62, 0
1, 16980, Note_on_c, 0, 78, 0
1, 16980, Note_on_c, 0, 80, 48
1, 17040, Note_on_c, 0, 80, 0
1, 17040, Note_on_c, 0, 78, 48
1, 17040, Note_on_c, 1, 62, 48
1, 17040, Note_on_c, 1, 66, 48
1, 17076, Note_on_c, 1, 66, 0
1, 17076, Note_on_c, 1, 62, 0
1, 17160, Note_on_c, 0, 78, 0
1, 17160, Note_on_c, 1, 62, 48
1, 17160, Note_on_c, 1, 66, 48
1, 17250, Note_on_c, 0, 88, 48
1, 17280, Note_on_c, 0, 88, 0
1, 17280, Note_on_c, 0, 86, 48
1, 17280, Note_on_c, 1, 66, 0
1, 17280, Note_on_c, 1, 62, 0
1, 17280, Note_on_c, 1, 64, 72
1, 17280, Note_on_c, 1, 68, 72
1, 17340, Note_on_c, 0, 86, 0
1, 17340, Note_on_c, 0, 85, 48
1, 17340, Note_on_c, 1, 68, 0
1, 17340, Note_on_c, 1, 64, 0
1, 17400, Note_on_c, 0, 85, 0
1, 17400, Note_on_c, 0, 86, 48
1, 17400, Note_on_c, 1, 64, 40
1, 17400, Note_on_c, 1, 68, 40
1, 17436, Note_on_c, 1, 68, 0
1, 17436, Note_on_c, 1, 64, 0
1, 17460, Note_on_c, 0, 86, 0
1, 17460, Note_on_c, 0, 88, 48
1, 17520, Note_on_c, 0, 88, 0
1, 17520, Note_on_c, 0, 86, 48
1, 17520, Note_on_c, 1, 64, 40
1, 17520, Note_on_c, 1, 68, 40
1, 17556, Note_on_c, 1, 68, 0
1, 17556, Note_on_c, 1, 64, 0
1, 17640, Note_on_c, 0, 86, 0
1, 17640, Note_on_c, 1, 64, 40
1, 17640, Note_on_c, 1, 68, 40
1, 17730, Note_on_c, 0, 86, 48
1, 17760, Note_on_c, 0, 86, 0
1, 17760, Note_on_c, 0, 85, 48
1, 17760, Note_on_c, 1, 68, 0
1, 17760, Note_on_c, 1, 64, 0
1, 17760, Note_on_c, 1, 69, 72
1, 17760, Note_on_c, 1, 66, 72
1, 17796, Note_on_c, 1, 66, 0
1, 17796, Note_on_c, 1, 69, 0
1, 17820, Note_on_c, 0, 85, 0
1, 17820, Note_on_c, 0, 83, 48
1, 17880, Note_on_c, 0, 83, 0
1, 17880, Note_on_c, 0, 85, 48
1, 17880, Note_on_c, 1, 66, 40
1, 17880, Note_on_c, 1, 69, 40
1, 17916, Note_on_c, 1, 69, 0
1, 17916, Note_on_c, 1, 66, 0
1, 17940, Note_on_c, 0, 85, 0
1, 17940, Note_on_c, 0, 86, 48
1, 18000, Note_on_c, 0, 86, 0
1, 18000, Note_on_c, 0, 85, 48
1, 18000, Note_on_c, 1, 66, 40
1, 18000, Note_on_c, 1, 69, 40
1, 18036, Note_on_c, 1, 69, 0
1, 18036, Note_on_c, 1, 66, 0
1, 18120, Note_on_c, 0, 85, 0
1, 18120, Note_on_c, 1, 66, 40
1, 18120, Note_on_c, 1, 69, 40
1, 18210, Note_on_c, 0, 85, 48
1, 18240, Note_on_c, 0, 85, 0
1, 18240, Note_on_c, 0, 83, 48
1, 18240, Note_on_c, 1, 69, 0
1, 18240, Note_on_c, 1, 66, 0
1, 18240, Note_on_c, 1, 62, 72
1, 18240, Note_on_c, 1, 66, 72
1, 18276, Note_on_c, 1, 66, 0
1, 18276, Note_on_c, 1, 62, 0
1, 18300, Note_on_c, 0, 83, 0
1, 18300, Note_on_c, 0, 82, 48
1, 18360, Note_on_c, 0, 82, 0
1, 18360, Note_on_c, 0, 83, 48
1, 18360, Note_on_c, 1, 62, 40
1, 18360, Note_on_c, 1, 66, 40
1, 18396, Note_on_c, 1, 66, 0
1, 18396, Note_on_c, 1, 62, 0
1, 18420, Note_on_c, 0, 83, 0
1, 18420, Note_on_c, 0, 85, 48
1, 18480, Note_on_c, 0, 85, 0
1, 18480, Note_on_c, 0, 83, 48
1, 18480, Note_on_c, 1, 62, 40
1, 18480, Note_on_c, 1, 66, 40
1, 18516, Note_on_c, 1, 66, 0
1, 18516, Note_on_c, 1, 62, 0
1, 18600, Note_on_c, 1, 62, 40
1, 18600, Note_on_c, 1, 66, 40
1, 18636, Note_on_c, 1, 66, 0
1, 18636, Note_on_c, 1, 62, 0
1, 18720, Note_on_c, 0, 83, 0
1, 18720, Note_on_c, 0, 71, 72
1, 18720, Note_on_c, 0, 74, 72
1, 18720, Note_on_c, 1, 62, 40
1, 18720, Note_on_c, 1, 66, 40
1, 18840, Note_on_c, 0, 74, 0
1, 18840, Note_on_c, 0, 71, 0
1, 18840, Note_on_c, 0, 83, 48
1, 18840, Note_on_c, 0, 86, 48
1, 18876, Note_on_c, 0, 86, 0
1, 18876, Note_on_c, 0, 83, 0
1, 18960, Note_on_c, 0, 83, 48
1, 18960, Note_on_c, 0, 86, 48
1, 18960, Note_on_c, 1, 66, 0
1, 18960, Note_on_c, 1, 62, 0
1, 18996, Note_on_c, 0, 86, 0
1, 18996, Note_on_c, 0, 83, 0
1, 19080, Note_on_c, 0, 82, 48
1, 19080, Note_on_c, 0, 85, 48
1, 19112, Note_on_c, 0, 85, 0
1, 19112, Note_on_c, 0, 82, 0
1, 19185, Note_on_c, 0, 85, 48
1, 19200, Note_on_c, 0, 83, 48
1, 19200, Note_on_c, 1, 50, 72
1, 19200, Note_on_c, 1, 54, 72
1, 19215, Note_on_c, 0, 85, 0
1, 19260, Note_on_c, 0, 83, 0
1, 19260, Note_on_c, 0, 82, 48
1, 19320, Note_on_c, 0, 82, 0
1, 19320, Note_on_c, 0, 83, 48
1, 19320, Note_on_c, 1, 54, 0
1, 19320, Note_on_c, 1, 50, 0
1, 19320, Note_on_c, 1, 62, 40
1, 19320, Note_on_c, 1, 66, 40
1, 19356, Note_on_c, 1, 66, 0
1, 19356, Note_on_c, 1, 62, 0
1, 19380, Note_on_c, 0, 83, 0
1, 19380, Note_on_c, 0, 85, 48
1, 19440, Note_on_c, 0, 85, 0
1, 19440, Note_on_c, 0, 83, 48
1, 19440, Note_on_c, 1, 62, 40
1, 19440, Note_on_c, 1, 66, 40
1, 19476, Note_on_c, 1, 66, 0
1, 19476, Note_on_c, 1, 62, 0
1, 19560, Note_on_c, 1, 61, 40
1, 19560, Note_on_c, 1, 64, 40
1, 19596, Note_on_c, 1, 64, 0
1, 19596, Note_on_c, 1, 61, 0
1, 19680, Note_on_c, 0, 83, 0
1, 19680, Note_on_c, 0, 71, 72
1, 19680, Note_on_c, 0, 74, 72
1, 19680, Note_on_c, 1, 62, 40
1, 19680, Note_on_c, 1, 66, 40
1, 19800, Note_on_c, 0, 74, 0
1, 19800, Note_on_c, 0, 71, 0
1, 19800, Note_on_c, 0, 83, 48
1, 19800, Note_on_c, 0, 86, 48
1, 19836, Note_on_c, 0, 86, 0
1, 19836, Note_on_c, 0, 83, 0
1, 19920, Note_on_c, 0, 83, 48
1, 19920, Note_on_c, 0, 86, 48
1, 19920, Note_on_c, 1, 66, 0
1, 19920, Note_on_c, 1, 62, 0
1, 19956, Note_on_c, 0, 86, 0
1, 19956, Note_on_c, 0, 83, 0
1, 20040, Note_on_c, 0, 82, 48
1, 20040, Note_on_c, 0, 85, 48
1, 20067, Note_on_c, 0, 85, 0
1, 20067, Note_on_c, 0, 82, 0
1, 20130, Note_on_c, 0, 85, 48
1, 20160, Note_on_c, 0, 85, 0
1, 20160, Note_on_c, 0, 83, 48
1, 20160, Note_on_c, 1, 50, 72
1, 20160, Note_on_c, 1, 54, 72
1, 20220, Note_on_c, 0, 83, 0
1, 20220, Note_on_c, 0, 82, 50
1, 20280, Note_on_c, 0, 82, 0
1, 20280, Note_on_c, 0, 83, 52
1, 20280, Note_on_c, 1, 54, 0
1, 20280, Note_on_c, 1, 50, 0
1, 20280, Note_on_c, 1, 62, 52
1, 20280, Note_on_c, 1, 66, 52
1, 20316, Note_on_c, 1, 66, 0
1, 20316, Note_on_c, 1, 62, 0
1, 20340, Note_on_c, 0, 83, 0
1, 20340, Note_on_c, 0, 85, 54
1, 20400, Note_on_c, 0, 85, 0
1, 20400, Note_on_c, 0, 83, 56
1, 20400, Note_on_c, 1, 62, 56
1, 20400, Note_on_c, 1, 66, 56
1, 20436, Note_on_c, 1, 66, 0
1, 20436, Note_on_c, 1, 62, 0
1, 20520, Note_on_c, 0, 83, 0
1, 20520, Note_on_c, 1, 66, 60
1, 20520, Note_on_c, 1, 62, 60
1, 20556, Note_on_c, 1, 62, 0
1, 20556, Note_on_c, 1, 66, 0
1, 20610, Note_on_c, 0, 83, 63
1, 20640, Note_on_c, 0, 83, 0
1, 20640, Note_on_c, 0, 81, 64
1, 20640, Note_on_c, 1, 63, 64
1, 20640, Note_on_c, 1, 66, 64
1, 20700, Note_on_c, 0, 81, 0
1, 20700, Note_on_c, 0, 80, 66
1, 20760, Note_on_c, 0, 80, 0
1, 20760, Note_on_c, 0, 81, 68
1, 20760, Note_on_c, 1, 66, 0
1, 20760, Note_on_c, 1, 63, 0
1, 20760, Note_on_c, 1, 63, 68
1, 20760, Note_on_c, 1, 66, 68
1, 20796, Note_on_c, 1, 66, 0
1, 20796, Note_on_c, 1, 63, 0
1, 20820, Note_on_c, 0, 81, 0
1, 20820, Note_on_c, 0, 83, 70
1, 20880, Note_on_c, 0, 83, 0
1, 20880, Note_on_c, 0, 81, 72
1, 20880, Note_on_c, 1, 66, 72
1, 20880, Note_on_c, 1, 63, 72
1, 20916, Note_on_c, 1, 63, 0
1, 20916, Note_on_c, 1, 66, 0
1, 21000, Note_on_c, 1, 63, 76
1, 21000, Note_on_c, 1, 66, 76
1, 21036, Note_on_c, 1, 66, 0
1, 21036, Note_on_c, 1, 63, 0
1, 21120, Note_on_c, 0, 81, 0
1, 21120, Note_on_c, 0, 88, 88
1, 21120, Note_on_c, 1, 52, 80
1, 21180, Note_on_c, 1, 52, 0
1, 21180, Note_on_c, 1, 56, 80
1, 21240, Note_on_c, 0, 88, 0
1, 21240, Note_on_c, 0, 76, 80
1, 21240, Note_on_c, 1, 56, 0
1, 21240, Note_on_c, 1, 54, 80
1, 21276, Note_on_c, 0, 76, 0
1, 21300, Note_on_c, 1, 54, 0
1, 21300, Note_on_c, 1, 57, 80
1, 21360, Note_on_c, 0, 76, 80
1, 21360, Note_on_c, 1, 57, 0
1, 21360, Note_on_c, 1, 56, 80
1, 21396, Note_on_c, 0, 76, 0
1, 21420, Note_on_c, 1, 56, 0
1, 21420, Note_on_c, 1, 59, 80
1, 21438, Note_on_c, 1, 59, 0
1, 21480, Note_on_c, 0, 76, 80
1, 21480, Note_on_c, 1, 57, 80
1, 21498, Note_on_c, 1, 57, 0
1, 21516, Note_on_c, 0, 76, 0
1, 21540, Note_on_c, 1, 61, 80
1, 21558, Note_on_c, 1, 61, 0
1, 21600, Note_on_c, 0, 76, 80
1, 21600, Note_on_c, 1, 59, 80
1, 21660, Note_on_c, 0, 76, 0
1, 21660, Note_on_c, 0, 78, 80
1, 21720, Note_on_c, 0, 78, 0
1, 21720, Note_on_c, 0, 76, 80
1, 21780, Note_on_c, 0, 76, 0
1, 21780, Note_on_c, 0, 74, 80
1, 21840, Note_on_c, 0, 74, 0
1, 21840, Note_on_c, 0, 73, 80
1, 21840, Note_on_c, 1, 62, 80
1, 21900, Note_on_c, 0, 73, 0
1, 21900, Note_on_c, 0, 71, 80
1, 21960, Note_on_c, 0, 71, 0
1, 21960, Note_on_c, 0, 69, 80
1, 22020, Note_on_c, 0, 69, 0
1, 22020, Note_on_c, 0, 68, 80
1, 22080, Note_on_c, 0, 68, 0
1, 22080, Note_on_c, 0, 69, 80
1, 22080, Note_on_c, 1, 62, 0
1, 22080, Note_on_c, 1, 59, 0
1, 22080, Note_on_c, 1, 61, 80
1, 22140, Note_on_c, 0, 69, 0
1, 22140, Note_on_c, 0, 73, 80
1, 22200, Note_on_c, 0, 73, 0
1, 22200, Note_on_c, 0, 71, 80
1, 22260, Note_on_c, 0, 71, 0
1, 22260, Note_on_c, 0, 74, 80
1, 22320, Note_on_c, 0, 74, 0
1, 22320, Note_on_c, 0, 73, 80
1, 22320, Note_on_c, 1, 61, 0
1, 22380, Note_on_c, 0, 73, 0
1, 22380, Note_on_c, 0, 76, 80
1, 22440, Note_on_c, 0, 76, 0
1, 22440, Note_on_c, 0, 74, 80
1, 22500, Note_on_c, 0, 74, 0
1, 22500, Note_on_c, 0, 78, 80
1, 22560, Note_on_c, 0, 78, 0
1, 22560, Note_on_c, 0, 76, 77
1, 22680, Note_on_c, 0, 76, 0
1, 22680, Note_on_c, 0, 78, 70
1, 22740, Note_on_c, 0, 78, 0
1, 22740, Note_on_c, 0, 80, 66
1, 22800, Note_on_c, 0, 80, 0
1, 22800, Note_on_c, 0, 81, 62
1, 22860, Note_on_c, 0, 81, 0
1, 22860, Note_on_c, 0, 83, 59
1, 22920, Note_on_c, 0, 83, 0
1, 22920, Note_on_c, 0, 85, 55
1, 22980, Note_on_c, 0, 85, 0
1, 22980, Note_on_c, 0, 86, 51
1, 23040, Note_on_c, 0, 86, 0
1, 23040, Note_on_c, 0, 88, 64
1, 23040, Note_on_c, 1, 52, 64
1, 23100, Note_on_c, 1, 52, 0
1, 23100, Note_on_c, 1, 56, 48
1, 23160, Note_on_c, 0, 88, 0
1, 23160, Note_on_c, 0, 76, 48
1, 23160, Note_on_c, 1, 56, 0
1, 23160, Note_on_c, 1, 54, 48
1, 23196, Note_on_c, 0, 76, 0
1, 23220, Note_on_c, 1, 54, 0
1, 23220, Note_on_c, 1, 57, 48
1, 23280, Note_on_c, 0, 76, 48
1, 23280, Note_on_c, 1, 57, 0
1, 23280, Note_on_c, 1, 56, 48
1, 23316, Note_on_c, 0, 76, 0
1, 23340, Note_on_c, 1, 56, 0
1, 23340, Note_on_c, 1, 59, 48
1, 23358, Note_on_c, 1, 59, 0
1, 23400, Note_on_c, 0, 76, 48
1, 23400, Note_on_c, 1, 57, 48
1, 23418, Note_on_c, 1, 57, 0
1, 23436, Note_on_c, 0, 76, 0
1, 23460, Note_on_c, 1, 61, 48
1, 23478, Note_on_c, 1, 61, 0
1, 23520, Note_on_c, 0, 76, 48
1, 23520, Note_on_c, 1, 59, 48
1, 23580, Note_on_c, 0, 76, 0
1, 23580, Note_on_c, 0, 78, 48
1, 23640, Note_on_c, 0, 78, 0
1, 23640, Note_on_c, 0, 76, 48
1, 23700, Note_on_c, 0, 76, 0
1, 23700, Note_on_c, 0, 74, 48
1, 23760, Note_on_c, 0, 74, 0
1, 23760, Note_on_c, 0, 73, 48
1, 23760, Note_on_c, 1, 62, 48
1, 23820, Note_on_c, 0, 73, 0
1, 23820, Note_on_c, 0, 71, 48
1, 23838, Note_on_c, 0, 71, 0
1, 23880, Note_on_c, 0, 69, 48
1, 23898, Note_on_c, 0, 69, 0
1, 23940, Note_on_c, 0, 68, 48
1, 23958, Note_on_c, 0, 68, 0
1, 24000, Note_on_c, 0, 69, 48
1, 24000, Note_on_c, 1, 62, 0
1, 24000, Note_on_c, 1, 59, 0
1, 24000, Note_on_c, 1, 61, 40
1, 24060, Note_on_c, 0, 69, 0
1, 24060, Note_on_c, 0, 73, 50
1, 24120, Note_on_c, 0, 73, 0
1, 24120, Note_on_c, 0, 71, 52
1, 24180, Note_on_c, 0, 71, 0
1, 24180, Note_on_c, 0, 74, 54
1, 24240, Note_on_c, 0, 74, 0
1, 24240, Note_on_c, 0, 73, 56
1, 24240, Note_on_c, 1, 61, 0
1, 24300, Note_on_c, 0, 73, 0
1, 24300, Note_on_c, 0, 76, 58
1, 24360, Note_on_c, 0, 76, 0
1, 24360, Note_on_c, 0, 74, 60
1, 24420, Note_on_c, 0, 74, 0
1, 24420, Note_on_c, 0, 78, 62
1, 24480, Note_on_c, 0, 78, 0
1, 24480, Note_on_c, 0, 76, 64
1, 24600, Note_on_c, 0, 76, 0
1, 24600, Note_on_c, 0, 78, 68
1, 24660, Note_on_c, 0, 78, 0
1, 24660, Note_on_c, 0, 80, 70
1, 24720, Note_on_c, 0, 80, 0
1, 24720, Note_on_c, 0, 81, 72
1, 24780, Note_on_c, 0, 81, 0
1, 24780, Note_on_c, 0, 83, 74
1, 24840, Note_on_c, 0, 83, 0
1, 24840, Note_on_c, 0, 85, 76
1, 24900, Note_on_c, 0, 85, 0
1, 24900, Note_on_c, 0, 86, 78
1, 24960, Note_on_c, 0, 86, 0
1, 24960, Note_on_c, 0, 88, 88
1, 24960, Note_on_c, 1, 50, 88
1, 25020, Note_on_c, 0, 88, 0
1, 25020, Note_on_c, 0, 78, 72
1, 25020, Note_on_c, 1, 50, 0
1, 25020, Note_on_c, 1, 62, 72
1, 25080, Note_on_c, 0, 78, 0
1, 25080, Note_on_c, 0, 77, 72
1, 25080, Note_on_c, 1, 62, 0
1, 25080, Note_on_c, 1, 61, 72
1, 25140, Note_on_c, 0, 77, 0
1, 25140, Note_on_c, 0, 78, 72
1, 25140, Note_on_c, 1, 61, 0
1, 25140, Note_on_c, 1, 62, 72
1, 25200, Note_on_c, 0, 78, 0
1, 25200, Note_on_c, 0, 77, 72
1, 25200, Note_on_c, 1, 62, 0
1, 25200, Note_on_c, 1, 61, 72
1, 25260, Note_on_c, 0, 77, 0
1, 25260, Note_on_c, 0, 78, 72
1, 25260, Note_on_c, 1, 61, 0
1, 25260, Note_on_c, 1, 62, 72
1, 25320, Note_on_c, 0, 78, 0
1, 25320, Note_on_c, 0, 77, 72
1, 25320, Note_on_c, 1, 62, 0
1, 25320, Note_on_c, 1, 61, 72
1, 25380, Note_on_c, 0, 77, 0
1, 25380, Note_on_c, 0, 78, 72
1, 25380, Note_on_c, 1, 61, 0
1, 25380, Note_on_c, 1, 62, 72
1, 25440, Note_on_c, 0, 78, 0
1, 25440, Note_on_c, 0, 86, 88
1, 25440, Note_on_c, 1, 62, 0
1, 25440, Note_on_c, 1, 59, 88
1, 25500, Note_on_c, 0, 86, 0
1, 25500, Note_on_c, 0, 74, 72
1, 25500, Note_on_c, 1, 59, 0
1, 25500, Note_on_c, 1, 71, 72
1, 25560, Note_on_c, 0, 74, 0
1, 25560, Note_on_c, 0, 73, 72
1, 25560, Note_on_c, 1, 71, 0
1, 25560, Note_on_c, 1, 70, 72
1, 25620, Note_on_c, 0, 73, 0
1, 25620, Note_on_c, 0, 74, 72
1, 25620, Note_on_c, 1, 70, 0
1, 25620, Note_on_c, 1, 71, 72
1, 25680, Note_on_c, 0, 74, 0
1, 25680, Note_on_c, 0, 73, 72
1, 25680, Note_on_c, 1, 71, 0
1, 25680, Note_on_c, 1, 70, 72
1, 25740, Note_on_c, 0, 73, 0
1, 25740, Note_on_c, 0, 74, 72
1, 25740, Note_on_c, 1, 70, 0
1, 25740, Note_on_c, 1, 71, 72
1, 25800, Note_on_c, 0, 74, 0
1, 25800, Note_on_c, 0, 73, 72
1, 25800, Note_on_c, 1, 71, 0
1, 25800, Note_on_c, 1, 70, 72
1, 25860, Note_on_c, 0, 73, 0
1, 25860, Note_on_c, 0, 74, 72
1, 25860, Note_on_c, 1, 70, 0
1, 25860, Note_on_c, 1, 71, 72
1, 25920, Note_on_c, 0, 74, 0
1, 25920, Note_on_c, 0, 86, 88
1, 25920, Note_on_c, 1, 71, 0
1, 25920, Note_on_c, 1, 64, 88
1, 25980, Note_on_c, 0, 86, 0
1, 25980, Note_on_c, 0, 83, 72
1, 25980, Note_on_c, 1, 64, 0
1, 25980, Note_on_c, 1, 68, 72
1, 26040, Note_on_c, 0, 83, 0
1, 26040, Note_on_c, 0, 82, 72
1, 26040, Note_on_c, 1, 68, 0
1, 26040, Note_on_c, 1, 67, 72
1, 26100, Note_on_c, 0, 82, 0
1, 26100, Note_on_c, 0, 83, 72
1, 26100, Note_on_c, 1, 67, 0
1, 26100, Note_on_c, 1, 68, 72
1, 26160, Note_on_c, 0, 83, 0
1, 26160, Note_on_c, 0, 82, 72
1, 26160, Note_on_c, 1, 68, 0
1, 26160, Note_on_c, 1, 67, 72
1, 26220, Note_on_c, 0, 82, 0
1, 26220, Note_on_c, 0, 83, 72
1, 26220, Note_on_c, 1, 67, 0
1, 26220, Note_on_c, 1, 68, 72
1, 26280, Note_on_c, 0, 83, 0
1, 26280, Note_on_c, 0, 82, 72
1, 26280, Note_on_c, 1, 68, 0
1, 26280, Note_on_c, 1, 67, 72
1, 26340, Note_on_c, 0, 82, 0
1, 26340, Note_on_c, 0, 83, 72
1, 26340, Note_on_c, 1, 67, 0
1, 26340, Note_on_c, 1, 68, 72
1, 26400, Note_on_c, 0, 83, 0
1, 26400, Note_on_c, 0, 85, 88
1, 26400, Note_on_c, 1, 68, 0
1, 26400, Note_on_c, 1, 69, 88
1, 26460, Note_on_c, 0, 85, 0
1, 26460, Note_on_c, 0, 81, 72
1, 26460, Note_on_c, 1, 69, 0
1, 26460, Note_on_c, 1, 73, 72
1, 26520, Note_on_c, 0, 81, 0
1, 26520, Note_on_c, 0, 80, 72
1, 26520, Note_on_c, 1, 73, 0
1, 26520, Note_on_c, 1, 71, 72
1, 26580, Note_on_c, 0, 80, 0
1, 26580, Note_on_c, 0, 81, 72
1, 26580, Note_on_c, 1, 71, 0
1, 26580, Note_on_c, 1, 73, 72
1, 26640, Note_on_c, 0, 81, 0
1, 26640, Note_on_c, 0, 80, 72
1, 26640, Note_on_c, 1, 73, 0
1, 26640, Note_on_c, 1, 71, 72
1, 26700, Note_on_c, 0, 80, 0
1, 26700, Note_on_c, 0, 81, 72
1, 26700, Note_on_c, 1, 71, 0
1, 26700, Note_on_c, 1, 73, 72
1, 26760, Note_on_c, 0, 81, 0
1, 26760, Note_on_c, 0, 80, 72
1, 26760, Note_on_c, 1, 73, 0
1, 26760, Note_on_c, 1, 71, 72
1, 26820, Note_on_c, 0, 80, 0
1, 26820, Note_on_c, 0, 81, 72
1, 26820, Note_on_c, 1, 71, 0
1, 26820, Note_on_c, 1, 73, 72
1, 26880, Note_on_c, 0, 81, 0
1, 26880, Note_on_c, 0, 86, 80
1, 26880, Note_on_c, 1, 73, 0
1, 26880, Note_on_c, 1, 64, 80
1, 26940, Note_on_c, 0, 86, 0
1, 26940, Note_on_c, 0, 83, 80
1, 27000, Note_on_c, 0, 83, 0
1, 27000, Note_on_c, 0, 82, 80
1, 27000, Note_on_c, 1, 68, 80
1, 27060, Note_on_c, 0, 82, 0
1, 27060, Note_on_c, 0, 83, 80
1, 27120, Note_on_c, 0, 83, 0
1, 27120, Note_on_c, 0, 85, 80
1, 27120, Note_on_c, 1, 68, 0
1, 27120, Note_on_c, 1, 69, 80
1, 27180, Note_on_c, 0, 85, 0
1, 27180, Note_on_c, 0, 81, 80
1, 27240, Note_on_c, 0, 81, 0
1, 27240, Note_on_c, 0, 80, 80
1, 27240, Note_on_c, 1, 69, 0
1, 27240, Note_on_c, 1, 73, 80
1, 27300, Note_on_c, 0, 80, 0
1, 27300, Note_on_c, 0, 81, 80
1, 27360, Note_on_c, 0, 81, 0
1, 27360, Note_on_c, 0, 86, 80
1, 27360, Note_on_c, 1, 73, 0
1, 27360, Note_on_c, 1, 64, 0
1, 27360, Note_on_c, 1, 64, 80
1, 27420, Note_on_c, 0, 86, 0
1, 27420, Note_on_c, 0, 83, 80
1, 27480, Note_on_c, 0, 83, 0
1, 27480, Note_on_c, 0, 82, 80
1, 27480, Note_on_c, 1, 68, 80
1, 27540, Note_on_c, 0, 82, 0
1, 27540, Note_on_c, 0, 83, 80
1, 27600, Note_on_c, 0, 83, 0
1, 27600, Note_on_c, 0, 85, 80
1, 27600, Note_on_c, 1, 68, 0
1, 27600, Note_on_c, 1, 69, 80
1, 27660, Note_on_c, 0, 85, 0
1, 27660, Note_on_c, 0, 81, 80
1, 27720, Note_on_c, 0, 81, 0
1, 27720, Note_on_c, 0, 80, 80
1, 27720, Note_on_c, 1, 69, 0
1, 27720, Note_on_c, 1, 73, 80
1, 27780, Note_on_c, 0, 80, 0
1, 27780, Note_on_c, 0, 81, 80
1, 27840, Note_on_c, 0, 81, 0
1, 27840, Note_on_c, 0, 86, 80
1, 27840, Note_on_c, 1, 73, 0
1, 27840, Note_on_c, 1, 64, 0
1, 27840, Note_on_c, 1, 64, 80
1, 27900, Note_on_c, 0, 86, 0
1, 27900, Note_on_c, 0, 83, 80
1, 27930, Note_on_c, 0, 83, 0
1, 27960, Note_on_c, 0, 82, 80
1, 27960, Note_on_c, 1, 68, 80
1, 27990, Note_on_c, 0, 82, 0
1, 27996, Note_on_c, 1, 68, 0
1, 28020, Note_on_c, 0, 83, 80
1, 28050, Note_on_c, 0, 83, 0
1, 28080, Note_on_c, 0, 84, 80
1, 28080, Note_on_c, 1, 69, 80
1, 28116, Note_on_c, 1, 69, 0
1, 28140, Note_on_c, 0, 84, 0
1, 28140, Note_on_c, 0, 81, 80
1, 28170, Note_on_c, 0, 81, 0
1, 28200, Note_on_c, 0, 80, 80
1, 28200, Note_on_c, 1, 72, 80
1, 28230, Note_on_c, 0, 80, 0
1, 28236, Note_on_c, 1, 72, 0
1, 28260, Note_on_c, 0, 81, 80
1, 28290, Note_on_c, 0, 81, 0
1, 28320, Note_on_c, 0, 86, 80
1, 28320, Note_on_c, 1, 64, 0
1, 28320, Note_on_c, 1, 64, 80
1, 28380, Note_on_c, 0, 86, 0
1, 28380, Note_on_c, 0, 83, 80
1, 28410, Note_on_c, 0, 83, 0
1, 28440, Note_on_c, 0, 82, 80
1, 28440, Note_on_c, 1, 68, 80
1, 28470, Note_on_c, 0, 82, 0
1, 28476, Note_on_c, 1, 68, 0
1, 28500, Note_on_c, 0, 83, 80
1, 28530, Note_on_c, 0, 83, 0
1, 28560, Note_on_c, 0, 84, 80
1, 28560, Note_on_c, 1, 69, 80
1, 28596, Note_on_c, 1, 69, 0
1, 28620, Note_on_c, 0, 84, 0
1, 28620, Note_on_c, 0, 81, 80
1, 28650, Note_on_c, 0, 81, 0
1, 28680, Note_on_c, 0, 80, 80
1, 28680, Note_on_c, 1, 72, 80
1, 28710, Note_on_c, 0, 80, 0
1, 28716, Note_on_c, 1, 72, 0
1, 28740, Note_on_c, 0, 81, 80
1, 28770, Note_on_c, 0, 81, 0
1, 28800, Note_on_c, 1, 64, 0
1, 28800, Note_on_c, 1, 62, 88
1, 28800, Note_on_c, 1, 65, 88
1, 28800, Note_on_c, 1, 70, 88
1, 28860, Note_on_c, 0, 89, 88
1, 28920, Note_on_c, 0, 89, 0
1, 28920, Note_on_c, 0, 86, 88
1, 28980, Note_on_c, 0, 86, 0
1, 28980, Note_on_c, 0, 89, 88
1, 29040, Note_on_c, 0, 89, 0
1, 29040, Note_on_c, 0, 82, 88
1, 29100, Note_on_c, 0, 82, 0
1, 29100, Note_on_c, 0, 86, 88
1, 29160, Note_on_c, 0, 86, 0
1, 29160, Note_on_c, 0, 77, 88
1, 29220, Note_on_c, 0, 77, 0
1, 29220, Note_on_c, 0, 82, 88
1, 29280, Note_on_c, 0, 82, 0
1, 29280, Note_on_c, 0, 74, 88
1, 29280, Note_on_c, 1, 70, 0
1, 29280, Note_on_c, 1, 65, 0
1, 29280, Note_on_c, 1, 62, 0
1, 29340, Note_on_c, 1, 58, 88
1, 29400, Note_on_c, 0, 74, 0
1, 29400, Note_on_c, 1, 58, 0
1, 29400, Note_on_c, 1, 62, 88
1, 29460, Note_on_c, 1, 62, 0
1, 29460, Note_on_c, 1, 65, 88
1, 29520, Note_on_c, 1, 65, 0
1, 29520, Note_on_c, 1, 70, 88
1, 29580, Note_on_c, 0, 74, 84
1, 29640, Note_on_c, 0, 74, 0
1, 29640, Note_on_c, 0, 77, 82
1, 29700, Note_on_c, 0, 77, 0
1, 29700, Note_on_c, 0, 82, 79
1, 29760, Note_on_c, 0, 82, 0
1, 29760, Note_on_c, 0, 86, 76
1, 29760, Note_on_c, 1, 70, 0
1, 29820, Note_on_c, 0, 86, 0
1, 29820, Note_on_c, 0, 77, 73
1, 29880, Note_on_c, 0, 77, 0
1, 29880, Note_on_c, 0, 82, 71
1, 29940, Note_on_c, 0, 82, 0
1, 29940, Note_on_c, 0, 86, 68
1, 30000, Note_on_c, 0, 86, 0
1, 30000, Note_on_c, 0, 89, 65
1, 30060, Note_on_c, 0, 89, 0
1, 30060, Note_on_c, 0, 77, 62
1, 30078, Note_on_c, 0, 77, 0
1, 30120, Note_on_c, 0, 82, 59
1, 30138, Note_on_c, 0, 82, 0
1, 30180, Note_on_c, 0, 86, 57
1, 30198, Note_on_c, 0, 86, 0
1, 30240, Note_on_c, 0, 89, 54
1, 30360, Note_on_c, 0, 89, 0
1, 30720, Note_on_c, 1, 51, 88
1, 30720, Note_on_c, 1, 63, 88
1, 30780, Note_on_c, 0, 84, 88
1, 30840, Note_on_c, 0, 84, 0
1, 30840, Note_on_c, 0, 81, 88
1, 30900, Note_on_c, 0, 81, 0
1, 30900, Note_on_c, 0, 84, 88
1, 30960, Note_on_c, 0, 84, 0
1, 30960, Note_on_c, 0, 78, 88
1, 30960, Note_on_c, 1, 63, 0
1, 30960, Note_on_c, 1, 51, 0
1, 30960, Note_on_c, 1, 54, 88
1, 30960, Note_on_c, 1, 66, 88
1, 30996, Note_on_c, 1, 66, 0
1, 30996, Note_on_c, 1, 54, 0
1, 31020, Note_on_c, 0, 78, 0
1, 31020, Note_on_c, 0, 81, 88
1, 31080, Note_on_c, 0, 81, 0
1, 31080, Note_on_c, 0, 75, 88
1, 31080, Note_on_c, 1, 51, 88
1, 31080, Note_on_c, 1, 63, 88
1, 31116, Note_on_c, 1, 63, 0
1, 31116, Note_on_c, 1, 51, 0
1, 31140, Note_on_c, 0, 75, 0
1, 31140, Note_on_c, 0, 78, 88
1, 31200, Note_on_c, 0, 78, 0
1, 31200, Note_on_c, 0, 72, 88
1, 31200, Note_on_c, 1, 48, 88
1, 31200, Note_on_c, 1, 60, 88
1, 31236, Note_on_c, 1, 60, 0
1, 31236, Note_on_c, 1, 48, 0
1, 31260, Note_on_c, 0, 72, 0
1, 31260, Note_on_c, 0, 75, 88
1, 31320, Note_on_c, 0, 75, 0
1, 31320, Note_on_c, 0, 69, 88
1, 31320, Note_on_c, 1, 45, 88
1, 31320, Note_on_c, 1, 57, 88
1, 31356, Note_on_c, 1, 57, 0
1, 31356, Note_on_c, 1, 45, 0
1, 31380, Note_on_c, 0, 69, 0
1, 31380, Note_on_c, 0, 72, 88
1, 31440, Note_on_c, 0, 72, 0
1, 31440, Note_on_c, 0, 66, 88
1, 31440, Note_on_c, 1, 42, 88
1, 31440, Note_on_c, 1, 54, 88
1, 31476, Note_on_c, 1, 54, 0
1, 31476, Note_on_c, 1, 42, 0
1, 31500, Note_on_c, 0, 66, 0
1, 31500, Note_on_c, 0, 69, 88
1, 31560, Note_on_c, 0, 69, 0
1, 31560, Note_on_c, 0, 63, 88
1, 31560, Note_on_c, 1, 39, 88
1, 31560, Note_on_c, 1, 51, 88
1, 31620, Note_on_c, 0, 63, 0
1, 31620, Note_on_c, 0, 66, 88
1, 31680, Note_on_c, 0, 66, 0
1, 31680, Note_on_c, 1, 51, 0
1, 31680, Note_on_c, 1, 39, 0
1, 31680, Note_on_c, 1, 40, 88
1, 31680, Note_on_c, 1, 52, 88
1, 31800, Note_on_c, 0, 64, 88
1, 31836, Note_on_c, 0, 64, 0
1, 31920, Note_on_c, 0, 69, 88
1, 31956, Note_on_c, 0, 69, 0
1, 32040, Note_on_c, 0, 73, 88
1, 32076, Note_on_c, 0, 73, 0
1, 32160, Note_on_c, 0, 76, 88
1, 32160, Note_on_c, 1, 52, 0
1, 32160, Note_on_c, 1, 40, 0
1, 32196, Note_on_c, 0, 76, 0
1, 32280, Note_on_c, 0, 81, 88
1, 32316, Note_on_c, 0, 81, 0
1, 32400, Note_on_c, 0, 85, 88
1, 32436, Note_on_c, 0, 85, 0
1, 32520, Note_on_c, 0, 88, 88
1, 32556, Note_on_c, 0, 88, 0
1, 32640, Note_on_c, 1, 52, 88
1, 32760, Note_on_c, 1, 52, 0
1, 32760, Note_on_c, 1, 56, 88
1, 32796, Note_on_c, 1, 56, 0
1, 32880, Note_on_c, 1, 59, 88
1, 32916, Note_on_c, 1, 59, 0
1, 33000, Note_on_c, 1, 62, 88
1, 33036, Note_on_c, 1, 62, 0
1, 33120, Note_on_c, 0, 83, 53
1, 33120, Note_on_c, 1, 64, 88
1, 33120, Note_on_c, 1, 68, 88
1, 33120, Note_on_c, 1, 71, 88
1, 33120, Note_on_c, 1, 74, 88
1, 33150, Note_on_c, 0, 83, 0
1, 33150, Note_on_c, 0, 85, 55
1, 33180, Note_on_c, 0, 85, 0
1, 33180, Note_on_c, 0, 83, 57
1, 33210, Note_on_c, 0, 83, 0
1, 33210, Note_on_c, 0, 85, 58
1, 33240, Note_on_c, 0, 85, 0
1, 33240, Note_on_c, 0, 83, 60
1, 33270, Note_on_c, 0, 83, 0
1, 33270, Note_on_c, 0, 85, 62
1, 33300, Note_on_c, 0, 85, 0
1, 33300, Note_on_c, 0, 83, 63
1, 33330, Note_on_c, 0, 83, 0
1, 33330, Note_on_c, 0, 85, 65
1, 33360, Note_on_c, 0, 85, 0
1, 33360, Note_on_c, 0, 83, 67
1, 33390, Note_on_c, 0, 83, 0
1, 33390, Note_on_c, 0, 85, 68
1, 33420, Note_on_c, 0, 85, 0
1, 33420, Note_on_c, 0, 83, 70
1, 33450, Note_on_c, 0, 83, 0
1, 33450, Note_on_c, 0, 85, 72
1, 33480, Note_on_c, 0, 85, 0
1, 33480, Note_on_c, 0, 83, 73
1, 33500, Note_on_c, 0, 83, 0
1, 33500, Note_on_c, 0, 85, 74
1, 33520, Note_on_c, 0, 85, 0
1, 33520, Note_on_c, 0, 83, 76
1, 33540, Note_on_c, 0, 83, 0
1, 33540, Note_on_c, 0, 81, 77
1, 33570, Note_on_c, 0, 81, 0
1, 33570, Note_on_c, 0, 83, 78
1, 33600, Note_on_c, 0, 83, 0
1, 33600, Note_on_c, 0, 81, 80
1, 33600, Note_on_c, 1, 74, 0
1, 33600, Note_on_c, 1, 64, 0
1, 33600, Note_on_c, 1, 68, 0
1, 33600, Note_on_c, 1, 71, 0
1, 33600, Note_on_c, 1, 69, 80
1, 33600, Note_on_c, 1, 73, 80
1, 33720, Note_on_c, 0, 81, 0
1, 33720, Note_on_c, 1, 73, 0
1, 33720, Note_on_c, 1, 69, 0
1, 33840, Note_on_c, 0, 81, 64
1, 33840, Note_on_c, 0, 78, 64
1, 33876, Note_on_c, 0, 78, 0
1, 33876, Note_on_c, 0, 81, 0
1, 33960, Note_on_c, 0, 76, 64
1, 33960, Note_on_c, 0, 80, 64
1, 33978, Note_on_c, 0, 80, 0
1, 33996, Note_on_c, 0, 76, 0
1, 34020, Note_on_c, 0, 78, 64
1, 34050, Note_on_c, 0, 78, 0
1, 34050, Note_on_c, 0, 80, 64
1, 34080, Note_on_c, 0, 80, 0
1, 34080, Note_on_c, 0, 74, 64
1, 34080, Note_on_c, 0, 78, 64
1, 34140, Note_on_c, 0, 78, 0
1, 34140, Note_on_c, 0, 74, 0
1, 34320, Note_on_c, 0, 74, 64
1, 34320, Note_on_c, 0, 78, 64
1, 34356, Note_on_c, 0, 78, 0
1, 34356, Note_on_c, 0, 74, 0
1, 34440, Note_on_c, 0, 73, 64
1, 34440, Note_on_c, 0, 76, 64
1, 34458, Note_on_c, 0, 76, 0
1, 34476, Note_on_c, 0, 73, 0
1, 34500, Note_on_c, 0, 74, 64
1, 34530, Note_on_c, 0, 74, 0
1, 34530, Note_on_c, 0, 76, 64
1, 34560, Note_on_c, 0, 76, 0
1, 34560, Note_on_c, 0, 71, 64
1, 34560, Note_on_c, 0, 74, 64
1, 34620, Note_on_c, 0, 74, 0
1, 34620, Note_on_c, 0, 71, 0
1, 34800, Note_on_c, 0, 73, 88
1, 34800, Note_on_c, 0, 64, 88
1, 34800, Note_on_c, 1, 57, 88
1, 34800, Note_on_c, 1, 61, 88
1, 34836, Note_on_c, 0, 64, 0
1, 34836, Note_on_c, 0, 73, 0
1, 34836, Note_on_c, 1, 61, 0
1, 34836, Note_on_c, 1, 57, 0
1, 34920, Note_on_c, 0, 73, 88
1, 34920, Note_on_c, 0, 64, 88
1, 34920, Note_on_c, 1, 57, 88
1, 34920, Note_on_c, 1, 61, 88
1, 35040, Note_on_c, 0, 64, 0
1, 35040, Note_on_c, 0, 73, 0
1, 35040, Note_on_c, 0, 66, 88
1, 35040, Note_on_c, 0, 71, 88
1, 35040, Note_on_c, 1, 61, 0
1, 35040, Note_on_c, 1, 57, 0
1, 35040, Note_on_c, 1, 50, 88
1, 35040, Note_on_c, 1, 62, 88
1, 35160, Note_on_c, 0, 71, 0
1, 35160, Note_on_c, 0, 66, 0
1, 35160, Note_on_c, 1, 62, 0
1, 35160, Note_on_c, 1, 50, 0
1, 35280, Note_on_c, 0, 62, 88
1, 35280, Note_on_c, 0, 68, 88
1, 35280, Note_on_c, 1, 52, 88
1, 35280, Note_on_c, 1, 59, 88
1, 35316, Note_on_c, 0, 68, 0
1, 35316, Note_on_c, 0, 62, 0
1, 35316, Note_on_c, 1, 59, 0
1, 35316, Note_on_c, 1, 52, 0
1, 35400, Note_on_c, 0, 62, 88
1, 35400, Note_on_c, 0, 68, 88
1, 35400, Note_on_c, 1, 52, 88
1, 35400, Note_on_c, 1, 59, 88
1, 35520, Note_on_c, 0, 68, 0
1, 35520, Note_on_c, 0, 62, 0
1, 35520, Note_on_c, 0, 61, 88
1, 35520, Note_on_c, 0, 69, 88
1, 35520, Note_on_c, 1, 59, 0
1, 35520, Note_on_c, 1, 52, 0
1, 35520, Note_on_c, 1, 45, 88
1, 35520, Note_on_c, 1, 57, 88
1, 35640, Note_on_c, 0, 69, 0
1, 35640, Note_on_c, 0, 61, 0
1, 35640, Note_on_c, 1, 57, 0
1, 35640, Note_on_c, 1, 45, 0
1, 35760, Note_on_c, 0, 81, 64
1, 35760, Note_on_c, 1, 66, 64
1, 35820, Note_on_c, 0, 81, 0
1, 35820, Note_on_c, 0, 83, 64
1, 35880, Note_on_c, 0, 83, 0
1, 35880, Note_on_c, 0, 80, 64
1, 35880, Note_on_c, 1, 66, 0
1, 35880, Note_on_c, 1, 64, 64
1, 35940, Note_on_c, 0, 80, 0
1, 35940, Note_on_c, 0, 81, 64
1, 36000, Note_on_c, 0, 81, 0
1, 36000, Note_on_c, 0, 78, 64
1, 36000, Note_on_c, 1, 64, 0
1, 36000, Note_on_c, 1, 62, 64
1, 36060, Note_on_c, 0, 78, 0
1, 36060, Note_on_c, 1, 62, 0
1, 36240, Note_on_c, 0, 78, 64
1, 36240, Note_on_c, 1, 62, 64
1, 36300, Note_on_c, 0, 78, 0
1, 36300, Note_on_c, 0, 80, 64
1, 36360, Note_on_c, 0, 80, 0
1, 36360, Note_on_c, 0, 76, 64
1, 36360, Note_on_c, 1, 62, 0
1, 36360, Note_on_c, 1, 61, 64
1, 36420, Note_on_c, 0, 76, 0
1, 36420, Note_on_c, 0, 78, 64
1, 36480, Note_on_c, 0, 78, 0
1, 36480, Note_on_c, 0, 74, 64
1, 36480, Note_on_c, 1, 61, 0
1, 36480, Note_on_c, 1, 59, 64
1, 36540, Note_on_c, 0, 74, 0
1, 36540, Note_on_c, 1, 59, 0
1, 36720, Note_on_c, 0, 73, 88
1, 36720, Note_on_c, 0, 64, 88
1, 36720, Note_on_c, 1, 57, 88
1, 36720, Note_on_c, 1, 61, 88
1, 36756, Note_on_c, 0, 64, 0
1, 36756, Note_on_c, 0, 73, 0
1, 36756, Note_on_c, 1, 61, 0
1, 36756, Note_on_c, 1, 57, 0
1, 36840, Note_on_c, 0, 64, 88
1, 36840, Note_on_c, 0, 73, 88
1, 36840, Note_on_c, 1, 57, 88
1, 36840, Note_on_c, 1, 61, 88
1, 36960, Note_on_c, 0, 73, 0
1, 36960, Note_on_c, 0, 64, 0
1, 36960, Note_on_c, 0, 66, 88
1, 36960, Note_on_c, 0, 71, 88
1, 36960, Note_on_c, 1, 61, 0
1, 36960, Note_on_c, 1, 57, 0
1, 36960, Note_on_c, 1, 50, 88
1, 36960, Note_on_c, 1, 62, 88
1, 36996, Note_on_c, 0, 71, 0
1, 36996, Note_on_c, 0, 66, 0
1, 36996, Note_on_c, 1, 62, 0
1, 36996, Note_on_c, 1, 50, 0
1, 37080, Note_on_c, 0, 66, 88
1, 37080, Note_on_c, 0, 71, 88
1, 37080, Note_on_c, 1, 50, 88
1, 37080, Note_on_c, 1, 62, 88
1, 37200, Note_on_c, 0, 71, 0
1, 37200, Note_on_c, 0, 66, 0
1, 37200, Note_on_c, 0, 62, 88
1, 37200, Note_on_c, 0, 68, 88
1, 37200, Note_on_c, 1, 62, 0
1, 37200, Note_on_c, 1, 50, 0
1, 37200, Note_on_c, 1, 52, 88
1, 37200, Note_on_c, 1, 59, 88
1, 37236, Note_on_c, 0, 68, 0
1, 37236, Note_on_c, 0, 62, 0
1, 37236, Note_on_c, 1, 59, 0
1, 37236, Note_on_c, 1, 52, 0
1, 37320, Note_on_c, 0, 62, 88
1, 37320, Note_on_c, 0, 68, 88
1, 37320, Note_on_c, 1, 52, 88
1, 37320, Note_on_c, 1, 59, 88
1, 37356, Note_on_c, 0, 68, 0
1, 37356, Note_on_c, 0, 62, 0
1, 37356, Note_on_c, 1, 59, 0
1, 37356, Note_on_c, 1, 52, 0
1, 37440, Note_on_c, 0, 69, 88
1, 37440, Note_on_c, 1, 57, 88
1, 37440, Note_on_c, 1, 61, 88
1, 37500, Note_on_c, 0, 69, 0
1, 37500, Note_on_c, 0, 64, 88
1, 37560, Note_on_c, 0, 64, 0
1, 37560, Note_on_c, 0, 73, 88
1, 37620, Note_on_c, 0, 73, 0
1, 37620, Note_on_c, 0, 64, 88
1, 37680, Note_on_c, 0, 64, 0
1, 37680, Note_on_c, 0, 69, 88
1, 37680, Note_on_c, 1, 61, 0
1, 37680, Note_on_c, 1, 57, 0
1, 37740, Note_on_c, 0, 69, 0
1, 37740, Note_on_c, 0, 64, 88
1, 37800, Note_on_c, 0, 64, 0
1, 37800, Note_on_c, 0, 68, 88
1, 37800, Note_on_c, 1, 52, 88
1, 37800, Note_on_c, 1, 62, 88
1, 37836, Note_on_c, 1, 62, 0
1, 37836, Note_on_c, 1, 52, 0
1, 37860, Note_on_c, 0, 68, 0
1, 37860, Note_on_c, 0, 64, 88
1, 37920, Note_on_c, 0, 64, 0
1, 37920, Note_on_c, 0, 69, 88
1, 37920, Note_on_c, 1, 57, 88
1, 37920, Note_on_c, 1, 61, 88
1, 37980, Note_on_c, 0, 69, 0
1, 37980, Note_on_c, 0, 64, 88
1, 38040, Note_on_c, 0, 64, 0
1, 38040, Note_on_c, 0, 73, 88
1, 38100, Note_on_c, 0, 73, 0
1, 38100, Note_on_c, 0, 64, 88
1, 38160, Note_on_c, 0, 64, 0
1, 38160, Note_on_c, 0, 69, 88
1, 38160, Note_on_c, 1, 61, 0
1, 38160, Note_on_c, 1, 57, 0
1, 38220, Note_on_c, 0, 69, 0
1, 38220, Note_on_c, 0, 64, 88
1, 38280, Note_on_c, 0, 64, 0
1, 38280, Note_on_c, 0, 68, 88
1, 38280, Note_on_c, 1, 52, 88
1, 38280, Note_on_c, 1, 62, 88
1, 38316, Note_on_c, 1, 62, 0
1, 38316, Note_on_c, 1, 52, 0
1, 38340, Note_on_c, 0, 68, 0
1, 38340, Note_on_c, 0, 64, 88
1, 38400, Tempo, 461538
1, 38400, Note_on_c, 0, 64, 0
1, 38400, Note_on_c, 0, 69, 88
1, 38400, Note_on_c, 1, 57, 88
1, 38400, Note_on_c, 1, 61, 88
1, 38520, Note_on_c, 0, 69, 0
1, 38520, Note_on_c, 1, 61, 0
1, 38520, Note_on_c, 1, 57, 0
1, 38640, Note_on_c, 0, 69, 88
1, 38640, Note_on_c, 0, 73, 88
1, 38640, Note_on_c, 1, 45, 88
1, 38640, Note_on_c, 1, 57, 88
1, 38694, Note_on_c, 0, 73, 0
1, 38694, Note_on_c, 0, 69, 0
1, 38712, Note_on_c, 1, 57, 0
1, 38712, Note_on_c, 1, 45, 0
1, 38820, Note_on_c, 0, 73, 88
1, 38820, Note_on_c, 0, 76, 88
1, 38838, Note_on_c, 0, 76, 0
1, 38838, Note_on_c, 0, 73, 0
1, 38880, Note_on_c, 0, 69, 88
1, 38880, Note_on_c, 0, 73, 88
1, 38880, Note_on_c, 1, 33, 88
1, 38880, Note_on_c, 1, 45, 88
1, 39120, Note_on_c, 0, 73, 0
1, 39120, Note_on_c, 0, 69, 0
1, 39120, Note_on_c, 1, 45, 0
1, 39120, Note_on_c, 1, 33, 0
1, 39330, Note_on_c, 1, 68, 80
1, 39360, Tempo, 444444
1, 39360, Note_on_c, 1, 68, 0
1, 39360, Note_on_c, 1, 69, 88
1, 39480, Note_on_c, 1, 69, 0
1, 39480, Note_on_c, 1, 57, 80
1, 39516, Note_on_c, 1, 57, 0
1, 39600, Note_on_c, 1, 57, 80
1, 39636, Note_on_c, 1, 57, 0
1, 39720, Note_on_c, 0, 73, 80
1, 39720, Note_on_c, 0, 81, 80
1, 39720, Note_on_c, 1, 57, 80
1, 39756, Note_on_c, 0, 81, 0
1, 39756, Note_on_c, 0, 73, 0
1, 39756, Note_on_c, 1, 57, 0
1, 39840, Note_on_c, 0, 74, 80
1, 39840, Note_on_c, 0, 80, 80
1, 39840, Note_on_c, 1, 59, 80
1, 39870, Note_on_c, 1, 59, 0
1, 39870, Note_on_c, 1, 61, 80
1, 39900, Note_on_c, 1, 61, 0
1, 39900, Note_on_c, 1, 59, 80
1, 39920, Note_on_c, 1, 59, 0
1, 39920, Note_on_c, 1, 61, 80
1, 39940, Note_on_c, 1, 61, 0
1, 39940, Note_on_c, 1, 59, 80
1, 39960, Note_on_c, 0, 80, 0
1, 39960, Note_on_c, 0, 74, 0
1, 39960, Note_on_c, 0, 73, 80
1, 39960, Note_on_c, 0, 81, 80
1, 39960, Note_on_c, 1, 59, 0
1, 39960, Note_on_c, 1, 57, 80
1, 39996, Note_on_c, 0, 81, 0
1, 39996, Note_on_c, 0, 73, 0
1, 39996, Note_on_c, 1, 57, 0
1, 40080, Note_on_c, 0, 74, 80
1, 40080, Note_on_c, 0, 80, 80
1, 40080, Note_on_c, 1, 59, 80
1, 40110, Note_on_c, 1, 59, 0
1, 40110, Note_on_c, 1, 61, 80
1, 40140, Note_on_c, 1, 61, 0
1, 40140, Note_on_c, 1, 59, 80
1, 40160, Note_on_c, 1, 59, 0
1, 40160, Note_on_c, 1, 61, 80
1, 40180, Note_on_c, 1, 61, 0
1, 40180, Note_on_c, 1, 59, 80
1, 40200, Note_on_c, 0, 80, 0
1, 40200, Note_on_c, 0, 74, 0
1, 40200, Note_on_c, 0, 73, 80
1, 40200, Note_on_c, 0, 81, 80
1, 40200, Note_on_c, 1, 59, 0
1, 40200, Note_on_c, 1, 57, 80
1, 40236, Note_on_c, 0, 81, 0
1, 40236, Note_on_c, 0, 73, 0
1, 40236, Note_on_c, 1, 57, 0
1, 40320, Note_on_c, 0, 73, 80
1, 40320, Note_on_c, 1, 69, 80
1, 40380, Note_on_c, 0, 73, 0
1, 40380, Note_on_c, 0, 76, 80
1, 40440, Note_on_c, 0, 76, 0
1, 40440, Note_on_c, 0, 74, 80
1, 40440, Note_on_c, 1, 69, 0
1, 40440, Note_on_c, 1, 71, 80
1, 40500, Note_on_c, 0, 74, 0
1, 40500, Note_on_c, 0, 78, 80
1, 40560, Note_on_c, 0, 78, 0
1, 40560, Note_on_c, 0, 76, 80
1, 40560, Note_on_c, 1, 71, 0
1, 40560, Note_on_c, 1, 73, 80
1, 40620, Note_on_c, 0, 76, 0
1, 40620, Note_on_c, 0, 79, 80
1, 40680, Note_on_c, 0, 79, 0
1, 40680, Note_on_c, 0, 78, 80
1, 40680, Note_on_c, 1, 73, 0
1, 40680, Note_on_c, 1, 74, 80
1, 40740, Note_on_c, 0, 78, 0
1, 40740, Note_on_c, 0, 81, 80
1, 40800, Note_on_c, 0, 81, 0
1, 40800, Note_on_c, 0, 79, 80
1, 40800, Note_on_c, 1, 74, 0
1, 40800, Note_on_c, 1, 76, 80
1, 40920, Note_on_c, 0, 79, 0
1, 40920, Note_on_c, 0, 88, 88
1, 40956, Note_on_c, 0, 88, 0
1, 41040, Note_on_c, 0, 85, 80
1, 41040, Note_on_c, 1, 76, 0
1, 41076, Note_on_c, 0, 85, 0
1, 41160, Note_on_c, 0, 76, 80
1, 41160, Note_on_c, 0, 79, 80
1, 41160, Note_on_c, 1, 58, 80
1, 41196, Note_on_c, 0, 79, 0
1, 41196, Note_on_c, 0, 76, 0
1, 41280, Note_on_c, 0, 74, 80
1, 41280, Note_on_c, 0, 78, 80
1, 41280, Note_on_c, 1, 58, 0
1, 41280, Note_on_c, 1, 59, 88
1, 41400, Note_on_c, 1, 59, 0
1, 41400, Note_on_c, 1, 47, 80
1, 41436, Note_on_c, 1, 47, 0
1, 41520, Note_on_c, 0, 78, 0
1, 41520, Note_on_c, 0, 74, 0
1, 41520, Note_on_c, 1, 47, 80
1, 41556, Note_on_c, 1, 47, 0
1, 41640, Note_on_c, 0, 62, 80
1, 41640, Note_on_c, 0, 71, 80
1, 41640, Note_on_c, 1, 47, 80
1, 41676, Note_on_c, 0, 71, 0
1, 41676, Note_on_c, 0, 62, 0
1, 41676, Note_on_c, 1, 47, 0
1, 41760, Note_on_c, 0, 64, 80
1, 41760, Note_on_c, 0, 70, 80
1, 41760, Note_on_c, 1, 49, 80
1, 41790, Note_on_c, 1, 49, 0
1, 41790, Note_on_c, 1, 50, 80
1, 41820, Note_on_c, 1, 50, 0
1, 41820, Note_on_c, 1, 49, 80
1, 41840, Note_on_c, 1, 49, 0
1, 41840, Note_on_c, 1, 50, 80
1, 41860, Note_on_c, 1, 50, 0
1, 41860, Note_on_c, 1, 49, 80
1, 41880, Note_on_c, 0, 70, 0
1, 41880, Note_on_c, 0, 64, 0
1, 41880, Note_on_c, 0, 62, 80
1, 41880, Note_on_c, 0, 71, 80
1, 41880, Note_on_c, 1, 49, 0
1, 41880, Note_on_c, 1, 47, 80
1, 41916, Note_on_c, 0, 71, 0
1, 41916, Note_on_c, 0, 62, 0
1, 41916, Note_on_c, 1, 47, 0
1, 42000, Note_on_c, 0, 64, 80
1, 42000, Note_on_c, 0, 70, 80
1, 42000, Note_on_c, 1, 49, 80
1, 42030, Note_on_c, 1, 49, 0
1, 42030, Note_on_c, 1, 50, 80
1, 42060, Note_on_c, 1, 50, 0
1, 42060, Note_on_c, 1, 49, 80
1, 42080, Note_on_c, 1, 49, 0
1, 42080, Note_on_c, 1, 50, 80
1, 42100, Note_on_c, 1, 50, 0
1, 42100, Note_on_c, 1, 49, 80
1, 42120, Note_on_c, 0, 70, 0
1, 42120, Note_on_c, 0, 64, 0
1, 42120, Note_on_c, 0, 62, 80
1, 42120, Note_on_c, 0, 71, 80
1, 42120, Note_on_c, 1, 49, 0
1, 42120, Note_on_c, 1, 47, 80
1, 42156, Note_on_c, 0, 71, 0
1, 42156, Note_on_c, 0, 62, 0
1, 42156, Note_on_c, 1, 47, 0
1, 42240, Note_on_c, 0, 62, 80
1, 42240, Note_on_c, 1, 59, 80
1, 42300, Note_on_c, 0, 62, 0
1, 42300, Note_on_c, 0, 66, 80
1, 42360, Note_on_c, 0, 66, 0
1, 42360, Note_on_c, 0, 64, 80
1, 42360, Note_on_c, 1, 59, 0
1, 42360, Note_on_c, 1, 61, 80
1, 42396, Note_on_c, 1, 61, 0
1, 42420, Note_on_c, 0, 64, 0
1, 42420, Note_on_c, 0, 67, 80
1, 42480, Note_on_c, 0, 67, 0
1, 42480, Note_on_c, 0, 66, 80
1, 42480, Note_on_c, 1, 63, 80
1, 42516, Note_on_c, 1, 63, 0
1, 42540, Note_on_c, 0, 66, 0
1, 42540, Note_on_c, 0, 69, 80
1, 42600, Note_on_c, 0, 69, 0
1, 42600, Note_on_c, 0, 67, 80
1, 42600, Note_on_c, 1, 64, 80
1, 42636, Note_on_c, 1, 64, 0
1, 42660, Note_on_c, 0, 67, 0
1, 42660, Note_on_c, 0, 71, 80
1, 42720, Note_on_c, 0, 71, 0
1, 42720, Note_on_c, 0, 69, 80
1, 42720, Note_on_c, 1, 66, 80
1, 42840, Note_on_c, 0, 69, 0
1, 42840, Note_on_c, 0, 78, 80
1, 42876, Note_on_c, 0, 78, 0
1, 42960, Note_on_c, 0, 75, 80
1, 42960, Note_on_c, 1, 66, 0
1, 42996, Note_on_c, 0, 75, 0
1, 43080, Note_on_c, 0, 69, 80
1, 43080, Note_on_c, 1, 63, 80
1, 43116, Note_on_c, 0, 69, 0
1, 43116, Note_on_c, 1, 63, 0
1, 43200, Note_on_c, 0, 68, 80
1, 43200, Note_on_c, 1, 64, 88
1, 43260, Note_on_c, 0, 68, 0
1, 43260, Note_on_c, 0, 71, 80
1, 43320, Note_on_c, 0, 71, 0
1, 43320, Note_on_c, 0, 69, 80
1, 43320, Note_on_c, 1, 64, 0
1, 43320, Note_on_c, 1, 52, 80
1, 43356, Note_on_c, 1, 52, 0
1, 43380, Note_on_c, 0, 69, 0
1, 43380, Note_on_c, 0, 73, 80
1, 43440, Note_on_c, 0, 73, 0
1, 43440, Note_on_c, 0, 71, 80
1, 43440, Note_on_c, 1, 52, 80
1, 43476, Note_on_c, 1, 52, 0
1, 43500, Note_on_c, 0, 71, 0
1, 43500, Note_on_c, 0, 74, 80
1, 43560, Note_on_c, 0, 74, 0
1, 43560, Note_on_c, 0, 73, 80
1, 43560, Note_on_c, 1, 52, 80
1, 43596, Note_on_c, 1, 52, 0
1, 43620, Note_on_c, 0, 73, 0
1, 43620, Note_on_c, 0, 76, 80
1, 43680, Note_on_c, 0, 76, 0
1, 43680, Note_on_c, 0, 74, 80
1, 43680, Note_on_c, 1, 52, 80
1, 43800, Note_on_c, 0, 74, 0
1, 43800, Note_on_c, 0, 83, 80
1, 43860, Note_on_c, 0, 83, 0
1, 43860, Note_on_c, 0, 81, 80
1, 43920, Note_on_c, 0, 81, 0
1, 43920, Note_on_c, 0, 80, 80
1, 43920, Note_on_c, 1, 52, 0
1, 43980, Note_on_c, 0, 80, 0
1, 43980, Note_on_c, 0, 78, 80
1, 44040, Note_on_c, 0, 78, 0
1, 44040, Note_on_c, 0, 76, 80
1, 44040, Note_on_c, 1, 56, 80
1, 44100, Note_on_c, 0, 76, 0
1, 44100, Note_on_c, 0, 74, 80
1, 44160, Note_on_c, 0, 74, 0
1, 44160, Note_on_c, 0, 73, 80
1, 44160, Note_on_c, 1, 56, 0
1, 44160, Note_on_c, 1, 57, 88
1, 44220, Note_on_c, 0, 73, 0
1, 44220, Note_on_c, 0, 76, 80
1, 44280, Note_on_c, 0, 76, 0
1, 44280, Note_on_c, 0, 74, 80
1, 44280, Note_on_c, 1, 57, 0
1, 44280, Note_on_c, 1, 45, 80
1, 44316, Note_on_c, 1, 45, 0
1, 44340, Note_on_c, 0, 74, 0
1, 44340, Note_on_c, 0, 78, 80
1, 44400, Note_on_c, 0, 78, 0
1, 44400, Note_on_c, 0, 76, 80
1, 44400, Note_on_c, 1, 45, 80
1, 44436, Note_on_c, 1, 45, 0
1, 44460, Note_on_c, 0, 76, 0
1, 44460, Note_on_c, 0, 79, 80
1, 44520, Note_on_c, 0, 79, 0
1, 44520, Note_on_c, 0, 78, 80
1, 44520, Note_on_c, 1, 45, 80
1, 44556, Note_on_c, 1, 45, 0
1, 44580, Note_on_c, 0, 78, 0
1, 44580, Note_on_c, 0, 81, 80
1, 44640, Note_on_c, 0, 81, 0
1, 44640, Note_on_c, 0, 76, 80
1, 44640, Note_on_c, 0, 79, 80
1, 44640, Note_on_c, 1, 45, 78
1, 44700, Note_on_c, 1, 45, 0
1, 44700, Note_on_c, 1, 47, 76
1, 44760, Note_on_c, 1, 47, 0
1, 44760, Note_on_c, 1, 45, 75
1, 44820, Note_on_c, 1, 45, 0
1, 44820, Note_on_c, 1, 43, 73
1, 44880, Note_on_c, 1, 43, 0
1, 44880, Note_on_c, 1, 42, 71
1, 44940, Note_on_c, 1, 42, 0
1, 44940, Note_on_c, 1, 40, 69
1, 45000, Note_on_c, 1, 40, 0
1, 45000, Note_on_c, 1, 38, 67
1, 45060, Note_on_c, 1, 38, 0
1, 45060, Note_on_c, 1, 37, 66
1, 45120, Note_on_c, 0, 79, 0
1, 45120, Note_on_c, 0, 76, 0
1, 45120, Note_on_c, 0, 78, 80
1, 45120, Note_on_c, 0, 76, 80
1, 45120, Note_on_c, 1, 37, 0
1, 45120, Note_on_c, 1, 38, 64
1, 45180, Note_on_c, 1, 38, 0
1, 45180, Note_on_c, 1, 37, 64
1, 45240, Note_on_c, 1, 37, 0
1, 45240, Note_on_c, 1, 38, 64
1, 45300, Note_on_c, 1, 38, 0
1, 45300, Note_on_c, 1, 40, 64
1, 45360, Note_on_c, 0, 76, 0
1, 45360, Note_on_c, 0, 74, 80
1, 45360, Note_on_c, 1, 40, 0
1, 45360, Note_on_c, 1, 42, 64
1, 45420, Note_on_c, 1, 42, 0
1, 45420, Note_on_c, 1, 40, 64
1, 45480, Note_on_c, 1, 40, 0
1, 45480, Note_on_c, 1, 42, 64
1, 45540, Note_on_c, 1, 42, 0
1, 45540, Note_on_c, 1, 43, 64
1, 45600, Note_on_c, 0, 78, 0
1, 45600, Note_on_c, 0, 76, 80
1, 45600, Note_on_c, 1, 43, 0
1, 45600, Note_on_c, 1, 45, 64
1, 45660, Note_on_c, 1, 45, 0
1, 45660, Note_on_c, 1, 44, 64
1, 45720, Note_on_c, 1, 44, 0
1, 45720, Note_on_c, 1, 45, 64
1, 45780, Note_on_c, 1, 45, 0
1, 45780, Note_on_c, 1, 47, 64
1, 45840, Note_on_c, 0, 74, 0
1, 45840, Note_on_c, 0, 73, 80
1, 45840, Note_on_c, 1, 47, 0
1, 45840, Note_on_c, 1, 49, 64
1, 45900, Note_on_c, 1, 49, 0
1, 45900, Note_on_c, 1, 42, 64
1, 45960, Note_on_c, 1, 42, 0
1, 45960, Note_on_c, 1, 44, 64
1, 46020, Note_on_c, 1, 44, 0
1, 46020, Note_on_c, 1, 46, 64
1, 46080, Note_on_c, 0, 76, 0
1, 46080, Note_on_c, 0, 74, 80
1, 46080, Note_on_c, 1, 46, 0
1, 46080, Note_on_c, 1, 47, 64
1, 46140, Note_on_c, 1, 47, 0
1, 46140, Note_on_c, 1, 46, 64
1, 46200, Note_on_c, 1, 46, 0
1, 46200, Note_on_c, 1, 47, 64
1, 46260, Note_on_c, 1, 47, 0
1, 46260, Note_on_c, 1, 49, 64
1, 46320, Note_on_c, 0, 73, 0
1, 46320, Note_on_c, 0, 71, 80
1, 46320, Note_on_c, 1, 49, 0
1, 46320, Note_on_c, 1, 50, 64
1, 46380, Note_on_c, 1, 50, 0
1, 46380, Note_on_c, 1, 49, 64
1, 46440, Note_on_c, 1, 49, 0
1, 46440, Note_on_c, 1, 50, 64
1, 46500, Note_on_c, 1, 50, 0
1, 46500, Note_on_c, 1, 52, 64
1, 46560, Note_on_c, 0, 74, 0
1, 46560, Note_on_c, 0, 73, 80
1, 46560, Note_on_c, 1, 52, 0
1, 46560, Note_on_c, 1, 54, 64
1, 46620, Note_on_c, 1, 54, 0
1, 46620, Note_on_c, 1, 52, 64
1, 46680, Note_on_c, 1, 52, 0
1, 46680, Note_on_c, 1, 54, 64
1, 46740, Note_on_c, 1, 54, 0
1, 46740, Note_on_c, 1, 55, 64
1, 46800, Note_on_c, 0, 73, 0
1, 46800, Note_on_c, 0, 71, 0
1, 46800, Note_on_c, 0, 72, 80
1, 46800, Note_on_c, 0, 69, 80
1, 46800, Note_on_c, 1, 55, 0
1, 46800, Note_on_c, 1, 57, 64
1, 46860, Note_on_c, 1, 57, 0
1, 46860, Note_on_c, 1, 50, 64
1, 46920, Note_on_c, 1, 50, 0
1, 46920, Note_on_c, 1, 52, 64
1, 46980, Note_on_c, 1, 52, 0
1, 46980, Note_on_c, 1, 54, 64
1, 47040, Note_on_c, 0, 72, 0
1, 47040, Note_on_c, 0, 71, 80
1, 47040, Note_on_c, 1, 54, 0
1, 47040, Note_on_c, 1, 55, 64
1, 47100, Note_on_c, 1, 55, 0
1, 47100, Note_on_c, 1, 54, 65
1, 47160, Note_on_c, 1, 54, 0
1, 47160, Note_on_c, 1, 55, 66
1, 47220, Note_on_c, 1, 55, 0
1, 47220, Note_on_c, 1, 57, 67
1, 47280, Note_on_c, 0, 69, 0
1, 47280, Note_on_c, 0, 67, 80
1, 47280, Note_on_c, 1, 57, 0
1, 47280, Note_on_c, 1, 59, 68
1, 47340, Note_on_c, 1, 59, 0
1, 47340, Note_on_c, 1, 57, 69
1, 47400, Note_on_c, 1, 57, 0
1, 47400, Note_on_c, 1, 59, 70
1, 47460, Note_on_c, 1, 59, 0
1, 47460, Note_on_c, 1, 61, 71
1, 47520, Note_on_c, 0, 71, 0
1, 47520, Note_on_c, 0, 69, 80
1, 47520, Note_on_c, 1, 61, 0
1, 47520, Note_on_c, 1, 62, 72
1, 47580, Note_on_c, 1, 62, 0
1, 47580, Note_on_c, 1, 61, 73
1, 47640, Note_on_c, 1, 61, 0
1, 47640, Note_on_c, 1, 62, 74
1, 47700, Note_on_c, 1, 62, 0
1, 47700, Note_on_c, 1, 50, 75
1, 47760, Note_on_c, 0, 67, 0
1, 47760, Note_on_c, 0, 66, 80
1, 47760, Note_on_c, 1, 50, 0
1, 47760, Note_on_c, 1, 63, 76
1, 47820, Note_on_c, 1, 63, 0
1, 47820, Note_on_c, 1, 61, 77
1, 47880, Note_on_c, 1, 61, 0
1, 47880, Note_on_c, 1, 63, 78
1, 47940, Note_on_c, 1, 63, 0
1, 47940, Note_on_c, 1, 51, 79
1, 48000, Note_on_c, 0, 69, 0
1, 48000, Note_on_c, 0, 67, 80
1, 48000, Note_on_c, 1, 51, 0
1, 48000, Note_on_c, 1, 64, 80
1, 48060, Note_on_c, 1, 64, 0
1, 48060, Note_on_c, 1, 63, 80
1, 48120, Note_on_c, 1, 63, 0
1, 48120, Note_on_c, 1, 64, 80
1, 48180, Note_on_c, 1, 64, 0
1, 48180, Note_on_c, 1, 52, 80
1, 48240, Note_on_c, 0, 66, 0
1, 48240, Note_on_c, 0, 64, 80
1, 48240, Note_on_c, 1, 52, 0
1, 48240, Note_on_c, 1, 61, 80
1, 48300, Note_on_c, 1, 61, 0
1, 48300, Note_on_c, 1, 59, 80
1, 48360, Note_on_c, 1, 59, 0
1, 48360, Note_on_c, 1, 61, 80
1, 48420, Note_on_c, 1, 61, 0
1, 48420, Note_on_c, 1, 49, 80
1, 48480, Note_on_c, 0, 67, 0
1, 48480, Note_on_c, 0, 66, 80
1, 48480, Note_on_c, 1, 49, 0
1, 48480, Note_on_c, 1, 58, 80
1, 48540, Note_on_c, 1, 58, 0
1, 48540, Note_on_c, 1, 56, 80
1, 48600, Note_on_c, 1, 56, 0
1, 48600, Note_on_c, 1, 58, 80
1, 48660, Note_on_c, 1, 58, 0
1, 48660, Note_on_c, 1, 46, 80
1, 48720, Note_on_c, 0, 64, 0
1, 48720, Note_on_c, 0, 62, 80
1, 48720, Note_on_c, 1, 46, 0
1, 48720, Note_on_c, 1, 59, 80
1, 48780, Note_on_c, 1, 59, 0
1, 48780, Note_on_c, 1, 58, 80
1, 48840, Note_on_c, 1, 58, 0
1, 48840, Note_on_c, 1, 59, 80
1, 48900, Note_on_c, 1, 59, 0
1, 48900, Note_on_c, 1, 47, 80
1, 48960, Note_on_c, 0, 62, 0
1, 48960, Note_on_c, 0, 66, 0
1, 48960, Note_on_c, 0, 66, 80
1, 48960, Note_on_c, 0, 61, 80
1, 48960, Note_on_c, 1, 47, 0
1, 48960, Note_on_c, 1, 54, 80
1, 49020, Note_on_c, 0, 61, 0
1, 49020, Note_on_c, 0, 59, 80
1, 49080, Note_on_c, 0, 59, 0
1, 49080, Note_on_c, 0, 61, 80
1, 49140, Note_on_c, 0, 61, 0
1, 49140, Note_on_c, 0, 58, 80
1, 49200, Note_on_c, 0, 58, 0
1, 49200, Note_on_c, 0, 66, 0
1, 49200, Note_on_c, 0, 66, 80
1, 49200, Note_on_c, 0, 62, 80
1, 49200, Note_on_c, 1, 54, 0
1, 49200, Note_on_c, 1, 50, 80
1, 49260, Note_on_c, 0, 62, 0
1, 49260, Note_on_c, 0, 61, 80
1, 49320, Note_on_c, 0, 61, 0
1, 49320, Note_on_c, 0, 62, 80
1, 49380, Note_on_c, 0, 62, 0
1, 49380, Note_on_c, 0, 59, 80
1, 49440, Note_on_c, 0, 59, 0
1, 49440, Note_on_c, 0, 66, 0
1, 49440, Note_on_c, 0, 66, 80
1, 49440, Note_on_c, 0, 64, 80
1, 49440, Note_on_c, 1, 50, 0
1, 49440, Note_on_c, 1, 46, 80
1, 49500, Note_on_c, 0, 64, 0
1, 49500, Note_on_c, 0, 62, 80
1, 49560, Note_on_c, 0, 62, 0
1, 49560, Note_on_c, 0, 64, 80
1, 49620, Note_on_c, 0, 64, 0
1, 49620, Note_on_c, 0, 61, 80
1, 49680, Note_on_c, 0, 61, 0
1, 49680, Note_on_c, 0, 66, 0
1, 49680, Note_on_c, 0, 62, 80
1, 49680, Note_on_c, 0, 66, 80
1, 49680, Note_on_c, 1, 46, 0
1, 49680, Note_on_c, 1, 47, 80
1, 49740, Note_on_c, 0, 62, 0
1, 49740, Note_on_c, 0, 61, 80
1, 49800, Note_on_c, 0, 61, 0
1, 49800, Note_on_c, 0, 62, 80
1, 49860, Note_on_c, 0, 62, 0
1, 49860, Note_on_c, 0, 59, 80
1, 49920, Note_on_c, 0, 59, 0
1, 49920, Note_on_c, 0, 66, 0
1, 49920, Note_on_c, 0, 70, 80
1, 49920, Note_on_c, 1, 47, 0
1, 49920, Note_on_c, 1, 54, 80
1, 49920, Note_on_c, 1, 61, 80
1, 49980, Note_on_c, 0, 70, 0
1, 49980, Note_on_c, 0, 68, 80
1, 50040, Note_on_c, 0, 68, 0
1, 50040, Note_on_c, 0, 70, 80
1, 50040, Note_on_c, 1, 61, 0
1, 50040, Note_on_c, 1, 54, 0
1, 50040, Note_on_c, 1, 54, 80
1, 50040, Note_on_c, 1, 61, 80
1, 50058, Note_on_c, 0, 70, 0
1, 50076, Note_on_c, 1, 61, 0
1, 50076, Note_on_c, 1, 54, 0
1, 50100, Note_on_c, 0, 66, 80
1, 50118, Note_on_c, 0, 66, 0
1, 50160, Note_on_c, 0, 71, 80
1, 50160, Note_on_c, 1, 54, 80
1, 50160, Note_on_c, 1, 62, 80
1, 50196, Note_on_c, 1, 62, 0
1, 50196, Note_on_c, 1, 54, 0
1, 50220, Note_on_c, 0, 71, 0
1, 50220, Note_on_c, 0, 70, 80
1, 50280, Note_on_c, 0, 70, 0
1, 50280, Note_on_c, 0, 71, 80
1, 50280, Note_on_c, 1, 54, 80
1, 50280, Note_on_c, 1, 62, 80
1, 50298, Note_on_c, 0, 71, 0
1, 50316, Note_on_c, 1, 62, 0
1, 50316, Note_on_c, 1, 54, 0
1, 50340, Note_on_c, 0, 66, 80
1, 50358, Note_on_c, 0, 66, 0
1, 50400, Note_on_c, 0, 73, 80
1, 50400, Note_on_c, 1, 54, 80
1, 50400, Note_on_c, 1, 58, 80
1, 50460, Note_on_c, 0, 73, 0
1, 50460, Note_on_c, 0, 71, 80
1, 50520, Note_on_c, 0, 71, 0
1, 50520, Note_on_c, 0, 73, 80
1, 50520, Note_on_c, 1, 58, 0
1, 50520, Note_on_c, 1, 54, 0
1, 50520, Note_on_c, 1, 54, 80
1, 50520, Note_on_c, 1, 58, 80
1, 50538, Note_on_c, 0, 73, 0
1, 50556, Note_on_c, 1, 58, 0
1, 50556, Note_on_c, 1, 54, 0
1, 50580, Note_on_c, 0, 66, 80
1, 50598, Note_on_c, 0, 66, 0
1, 50640, Note_on_c, 0, 74, 80
1, 50640, Note_on_c, 1, 54, 80
1, 50640, Note_on_c, 1, 59, 80
1, 50676, Note_on_c, 1, 59, 0
1, 50676, Note_on_c, 1, 54, 0
1, 50700, Note_on_c, 0, 74, 0
1, 50700, Note_on_c, 0, 73, 80
1, 50760, Note_on_c, 0, 73, 0
1, 50760, Note_on_c, 0, 74, 80
1, 50760, Note_on_c, 1, 54, 80
1, 50760, Note_on_c, 1, 59, 80
1, 50778, Note_on_c, 0, 74, 0
1, 50796, Note_on_c, 1, 59, 0
1, 50796, Note_on_c, 1, 54, 0
1, 50820, Note_on_c, 0, 66, 80
1, 50838, Note_on_c, 0, 66, 0
1, 50880, Note_on_c, 1, 52, 80
1, 50880, Note_on_c, 1, 55, 80
1, 50880, Note_on_c, 1, 58, 80
1, 50880, Note_on_c, 1, 61, 80
1, 50940, Note_on_c, 0, 79, 80
1, 51000, Note_on_c, 0, 79, 0
1, 51000, Note_on_c, 0, 76, 80
1, 51060, Note_on_c, 0, 76, 0
1, 51060, Note_on_c, 0, 79, 80
1, 51120, Note_on_c, 0, 79, 0
1, 51120, Note_on_c, 0, 73, 80
1, 51180, Note_on_c, 0, 73, 0
1, 51180, Note_on_c, 0, 76, 80
1, 51240, Note_on_c, 0, 76, 0
1, 51240, Note_on_c, 0, 70, 80
1, 51300, Note_on_c, 0, 70, 0
1, 51300, Note_on_c, 0, 73, 80
1, 51360, Note_on_c, 0, 73, 0
1, 51360, Note_on_c, 1, 61, 0
1, 51360, Note_on_c, 1, 52, 0
1, 51360, Note_on_c, 1, 55, 0
1, 51360, Note_on_c, 1, 58, 0
1, 51360, Note_on_c, 1, 50, 80
1, 51360, Note_on_c, 1, 54, 80
1, 51360, Note_on_c, 1, 59, 80
1, 51420, Note_on_c, 0, 83, 80
1, 51480, Note_on_c, 0, 83, 0
1, 51480, Note_on_c, 0, 78, 80
1, 51540, Note_on_c, 0, 78, 0
1, 51540, Note_on_c, 0, 83, 80
1, 51600, Note_on_c, 0, 83, 0
1, 51600, Note_on_c, 0, 74, 80
1, 51660, Note_on_c, 0, 74, 0
1, 51660, Note_on_c, 0, 78, 80
1, 51720, Note_on_c, 0, 78, 0
1, 51720, Note_on_c, 0, 71, 80
1, 51780, Note_on_c, 0, 71, 0
1, 51780, Note_on_c, 0, 74, 80
1, 51840, Note_on_c, 0, 74, 0
1, 51840, Note_on_c, 1, 59, 0
1, 51840, Note_on_c, 1, 54, 0
1, 51840, Note_on_c, 1, 50, 0
1, 51840, Note_on_c, 1, 52, 56
1, 51840, Note_on_c, 1, 55, 56
1, 51840, Note_on_c, 1, 58, 56
1, 51840, Note_on_c, 1, 61, 56
1, 51900, Note_on_c, 0, 79, 56
1, 51960, Note_on_c, 0, 79, 0
1, 51960, Note_on_c, 0, 76, 56
1, 52020, Note_on_c, 0, 76, 0
1, 52020, Note_on_c, 0, 79, 56
1, 52080, Note_on_c, 0, 79, 0
1, 52080, Note_on_c, 0, 73, 56
1, 52140, Note_on_c, 0, 73, 0
1, 52140, Note_on_c, 0, 76, 56
1, 52200, Note_on_c, 0, 76, 0
1, 52200, Note_on_c, 0, 70, 56
1, 52260, Note_on_c, 0, 70, 0
1, 52260, Note_on_c, 0, 73, 56
1, 52320, Note_on_c, 0, 73, 0
1, 52320, Note_on_c, 1, 61, 0
1, 52320, Note_on_c, 1, 52, 0
1, 52320, Note_on_c, 1, 55, 0
1, 52320, Note_on_c, 1, 58, 0
1, 52320, Note_on_c, 1, 50, 56
1, 52320, Note_on_c, 1, 54, 56
1, 52320, Note_on_c, 1, 59, 56
1, 52380, Note_on_c, 0, 83, 56
1, 52440, Note_on_c, 0, 83, 0
1, 52440, Note_on_c, 0, 78, 56
1, 52500, Note_on_c, 0, 78, 0
1, 52500, Note_on_c, 0, 83, 56
1, 52560, Note_on_c, 0, 83, 0
1, 52560, Note_on_c, 0, 74, 56
1, 52620, Note_on_c, 0, 74, 0
1, 52620, Note_on_c, 0, 78, 56
1, 52680, Note_on_c, 0, 78, 0
1, 52680, Note_on_c, 0, 71, 56
1, 52740, Note_on_c, 0, 71, 0
1, 52740, Note_on_c, 0, 74, 56
1, 52800, Note_on_c, 0, 74, 0
1, 52800, Note_on_c, 1, 59, 0
1, 52800, Note_on_c, 1, 54, 0
1, 52800, Note_on_c, 1, 50, 0
1, 52800, Note_on_c, 1, 52, 88
1, 52800, Note_on_c, 1, 55, 88
1, 52800, Note_on_c, 1, 60, 88
1, 52860, Note_on_c, 0, 84, 88
1, 52920, Note_on_c, 0, 84, 0
1, 52920, Note_on_c, 0, 79, 88
1, 52980, Note_on_c, 0, 79, 0
1, 52980, Note_on_c, 0, 84, 88
1, 53040, Note_on_c, 0, 84, 0
1, 53040, Note_on_c, 0, 76, 88
1, 53100, Note_on_c, 0, 76, 0
1, 53100, Note_on_c, 0, 79, 88
1, 53160, Note_on_c, 0, 79, 0
1, 53160, Note_on_c, 0, 72, 88
1, 53220, Note_on_c, 0, 72, 0
1, 53220, Note_on_c, 0, 76, 88
1, 53280, Note_on_c, 0, 76, 0
1, 53280, Note_on_c, 0, 67, 88
1, 53340, Note_on_c, 0, 67, 0
1, 53340, Note_on_c, 0, 72, 88
1, 53400, Note_on_c, 0, 72, 0
1, 53400, Note_on_c, 0, 64, 88
1, 53460, Note_on_c, 0, 64, 0
1, 53460, Note_on_c, 0, 67, 88
1, 53520, Note_on_c, 0, 67, 0
1, 53520, Note_on_c, 0, 60, 88
1, 53580, Note_on_c, 0, 60, 0
1, 53580, Note_on_c, 0, 64, 88
1, 53640, Note_on_c, 0, 64, 0
1, 53640, Note_on_c, 0, 55, 88
1, 53700, Note_on_c, 0, 55, 0
1, 53700, Note_on_c, 0, 60, 88
1, 53760, Note_on_c, 0, 60, 0
1, 53760, Note_on_c, 1, 60, 0
1, 53760, Note_on_c, 1, 55, 0
1, 53760, Note_on_c, 1, 52, 0
1, 53760, Note_on_c, 1, 41, 88
1, 53760, Note_on_c, 1, 53, 88
1, 53820, Note_on_c, 0, 59, 88
1, 53880, Note_on_c, 0, 59, 0
1, 53880, Note_on_c, 0, 62, 88
1, 53940, Note_on_c, 0, 62, 0
1, 53940, Note_on_c, 0, 65, 88
1, 54000, Note_on_c, 0, 65, 0
1, 54000, Note_on_c, 0, 68, 88
1, 54060, Note_on_c, 0, 68, 0
1, 54060, Note_on_c, 0, 62, 88
1, 54120, Note_on_c, 0, 62, 0
1, 54120, Note_on_c, 0, 65, 88
1, 54180, Note_on_c, 0, 65, 0
1, 54180, Note_on_c, 0, 68, 88
1, 54240, Note_on_c, 0, 68, 0
1, 54240, Note_on_c, 0, 71, 88
1, 54300, Note_on_c, 0, 71, 0
1, 54300, Note_on_c, 0, 65, 88
1, 54360, Note_on_c, 0, 65, 0
1, 54360, Note_on_c, 0, 68, 88
1, 54420, Note_on_c, 0, 68, 0
1, 54420, Note_on_c, 0, 71, 88
1, 54480, Note_on_c, 0, 71, 0
1, 54480, Note_on_c, 0, 74, 88
1, 54540, Note_on_c, 0, 74, 0
1, 54540, Note_on_c, 0, 71, 88
1, 54600, Note_on_c, 0, 71, 0
1, 54600, Note_on_c, 0, 68, 88
1, 54660, Note_on_c, 0, 68, 0
1, 54660, Note_on_c, 0, 65, 88
1, 54720, Note_on_c, 0, 65, 0
1, 54720, Note_on_c, 1, 53, 0
1, 54720, Note_on_c, 1, 41, 0
1, 54720, Note_on_c, 1, 42, 80
1, 54720, Note_on_c, 1, 54, 80
1, 54780, Note_on_c, 0, 59, 78
1, 54840, Note_on_c, 0, 59, 0
1, 54840, Note_on_c, 0, 62, 76
1, 54900, Note_on_c, 0, 62, 0
1, 54900, Note_on_c, 0, 66, 74
1, 54960, Note_on_c, 0, 66, 0
1, 54960, Note_on_c, 0, 71, 72
1, 55020, Note_on_c, 0, 71, 0
1, 55020, Note_on_c, 0, 62, 70
1, 55080, Note_on_c, 0, 62, 0
1, 55080, Note_on_c, 0, 66, 68
1, 55140, Note_on_c, 0, 66, 0
1, 55140, Note_on_c, 0, 71, 66
1, 55200, Note_on_c, 0, 71, 0
1, 55200, Note_on_c, 0, 74, 64
1, 55260, Note_on_c, 0, 74, 0
1, 55260, Note_on_c, 0, 71, 62
1, 55320, Note_on_c, 0, 71, 0
1, 55320, Note_on_c, 0, 74, 60
1, 55380, Note_on_c, 0, 74, 0
1, 55380, Note_on_c, 0, 78, 58
1, 55440, Note_on_c, 0, 78, 0
1, 55440, Note_on_c, 0, 83, 56
1, 55680, Note_on_c, 0, 83, 0
1, 55680, Note_on_c, 0, 73, 48
1, 55680, Note_on_c, 1, 54, 0
1, 55680, Note_on_c, 1, 42, 0
1, 55710, Note_on_c, 0, 73, 0
1, 55710, Note_on_c, 0, 74, 49
1, 55740, Note_on_c, 0, 74, 0
1, 55740, Note_on_c, 0, 73, 50
1, 55770, Note_on_c, 0, 73, 0
1, 55770, Note_on_c, 0, 74, 51
1, 55800, Note_on_c, 0, 74, 0
1, 55800, Note_on_c, 0, 73, 52
1, 55830, Note_on_c, 0, 73, 0
1, 55830, Note_on_c, 0, 74, 53
1, 55860, Note_on_c, 0, 74, 0
1, 55860, Note_on_c, 0, 73, 54
1, 55890, Note_on_c, 0, 73, 0
1, 55890, Note_on_c, 0, 74, 55
1, 55920, Note_on_c, 0, 74, 0
1, 55920, Note_on_c, 0, 73, 56
1, 55950, Note_on_c, 0, 73, 0
1, 55950, Note_on_c, 0, 74, 57
1, 55980, Note_on_c, 0, 74, 0
1, 55980, Note_on_c, 0, 73, 58
1, 56010, Note_on_c, 0, 73, 0
1, 56010, Note_on_c, 0, 74, 59
1, 56040, Note_on_c, 0, 74, 0
1, 56040, Note_on_c, 0, 73, 60
1, 56070, Note_on_c, 0, 73, 0
1, 56070, Note_on_c, 0, 74, 61
1, 56100, Note_on_c, 0, 74, 0
1, 56100, Note_on_c, 0, 73, 62
1, 56130, Note_on_c, 0, 73, 0
1, 56130, Note_on_c, 0, 74, 63
1, 56160, Note_on_c, 0, 74, 0
1, 56160, Note_on_c, 0, 73, 64
1, 56160, Note_on_c, 1, 54, 80
1, 56160, Note_on_c, 1, 58, 80
1, 56160, Note_on_c, 1, 66, 80
1, 56190, Note_on_c, 0, 73, 0
1, 56190, Note_on_c, 0, 74, 65
1, 56220, Note_on_c, 0, 74, 0
1, 56220, Note_on_c, 0, 73, 66
1, 56250, Note_on_c, 0, 73, 0
1, 56250, Note_on_c, 0, 74, 67
1, 56280, Note_on_c, 0, 74, 0
1, 56280, Note_on_c, 0, 73, 68
1, 56310, Note_on_c, 0, 73, 0
1, 56310, Note_on_c, 0, 74, 69
1, 56340, Note_on_c, 0, 74, 0
1, 56340, Note_on_c, 0, 73, 70
1, 56370, Note_on_c, 0, 73, 0
1, 56370, Note_on_c, 0, 74, 71
1, 56400, Note_on_c, 0, 74, 0
1, 56400, Note_on_c, 0, 73, 72
1, 56520, Note_on_c, 0, 73, 0
1, 56520, Note_on_c, 0, 71, 76
1, 56580, Note_on_c, 0, 71, 0
1, 56580, Note_on_c, 0, 73, 78
1, 56640, Note_on_c, 0, 73, 0
1, 56640, Note_on_c, 0, 75, 80
1, 56640, Note_on_c, 1, 66, 0
1, 56640, Note_on_c, 1, 58, 0
1, 56640, Note_on_c, 1, 54, 0
1, 56640, Note_on_c, 1, 59, 80
1, 56640, Note_on_c, 1, 66, 80
1, 56640, Note_on_c, 1, 69, 80
1, 56760, Note_on_c, 0, 75, 0
1, 56760, Note_on_c, 0, 75, 80
1, 56760, Note_on_c, 1, 69, 0
1, 56760, Note_on_c, 1, 66, 0
1, 56760, Note_on_c, 1, 59, 0
1, 56760, Note_on_c, 1, 59, 80
1, 56760, Note_on_c, 1, 66, 80
1, 56760, Note_on_c, 1, 69, 80
1, 56796, Note_on_c, 0, 75, 0
1, 56796, Note_on_c, 1, 69, 0
1, 56796, Note_on_c, 1, 66, 0
1, 56796, Note_on_c, 1, 59, 0
1, 56880, Note_on_c, 0, 75, 80
1, 56880, Note_on_c, 1, 59, 80
1, 56880, Note_on_c, 1, 66, 80
1, 56880, Note_on_c, 1, 69, 80
1, 56916, Note_on_c, 0, 75, 0
1, 56916, Note_on_c, 1, 69, 0
1, 56916, Note_on_c, 1, 66, 0
1, 56916, Note_on_c, 1, 59, 0
1, 57000, Note_on_c, 0, 75, 80
1, 57000, Note_on_c, 1, 59, 80
1, 57000, Note_on_c, 1, 66, 80
1, 57000, Note_on_c, 1, 69, 80
1, 57036, Note_on_c, 0, 75, 0
1, 57036, Note_on_c, 1, 69, 0
1, 57036, Note_on_c, 1, 66, 0
1, 57036, Note_on_c, 1, 59, 0
1, 57120, Note_on_c, 0, 76, 80
1, 57120, Note_on_c, 1, 59, 80
1, 57120, Note_on_c, 1, 67, 80
1, 57150, Note_on_c, 0, 76, 0
1, 57150, Note_on_c, 0, 78, 80
1, 57180, Note_on_c, 0, 78, 0
1, 57180, Note_on_c, 0, 76, 80
1, 57200, Note_on_c, 0, 76, 0
1, 57200, Note_on_c, 0, 78, 80
1, 57220, Note_on_c, 0, 78, 0
1, 57220, Note_on_c, 0, 76, 80
1, 57240, Note_on_c, 0, 76, 0
1, 57240, Note_on_c, 0, 75, 80
1, 57240, Note_on_c, 1, 67, 0
1, 57240, Note_on_c, 1, 66, 80
1, 57360, Note_on_c, 0, 75, 0
1, 57360, Note_on_c, 0, 76, 80
1, 57360, Note_on_c, 1, 66, 0
1, 57360, Note_on_c, 1, 67, 80
1, 57480, Note_on_c, 0, 76, 0
1, 57480, Note_on_c, 0, 79, 80
1, 57480, Note_on_c, 1, 67, 0
1, 57480, Note_on_c, 1, 64, 80
1, 57600, Note_on_c, 0, 79, 0
1, 57600, Note_on_c, 0, 73, 80
1, 57600, Note_on_c, 1, 64, 0
1, 57600, Note_on_c, 1, 59, 0
1, 57600, Note_on_c, 1, 57, 80
1, 57600, Note_on_c, 1, 64, 80
1, 57600, Note_on_c, 1, 67, 80
1, 57720, Note_on_c, 0, 73, 0
1, 57720, Note_on_c, 0, 73, 80
1, 57720, Note_on_c, 1, 67, 0
1, 57720, Note_on_c, 1, 64, 0
1, 57720, Note_on_c, 1, 57, 0
1, 57720, Note_on_c, 1, 57, 80
1, 57720, Note_on_c, 1, 64, 80
1, 57720, Note_on_c, 1, 67, 80
1, 57756, Note_on_c, 0, 73, 0
1, 57756, Note_on_c, 1, 67, 0
1, 57756, Note_on_c, 1, 64, 0
1, 57756, Note_on_c, 1, 57, 0
1, 57840, Note_on_c, 0, 73, 80
1, 57840, Note_on_c, 1, 57, 80
1, 57840, Note_on_c, 1, 64, 80
1, 57840, Note_on_c, 1, 67, 80
1, 57876, Note_on_c, 0, 73, 0
1, 57876, Note_on_c, 1, 67, 0
1, 57876, Note_on_c, 1, 64, 0
1, 57876, Note_on_c, 1, 57, 0
1, 57960, Note_on_c, 0, 73, 80
1, 57960, Note_on_c, 1, 57, 80
1, 57960, Note_on_c, 1, 64, 80
1, 57960, Note_on_c, 1, 67, 80
1, 57996, Note_on_c, 0, 73, 0
1, 57996, Note_on_c, 1, 67, 0
1, 57996, Note_on_c, 1, 64, 0
1, 57996, Note_on_c, 1, 57, 0
1, 58080, Note_on_c, 0, 73, 80
1, 58080, Note_on_c, 1, 57, 80
1, 58080, Note_on_c, 1, 64, 80
1, 58080, Note_on_c, 1, 67, 80
1, 58140, Note_on_c, 0, 73, 0
1, 58140, Note_on_c, 0, 74, 80
1, 58200, Note_on_c, 0, 74, 0
1, 58200, Note_on_c, 0, 76, 80
1, 58260, Note_on_c, 0, 76, 0
1, 58260, Note_on_c, 0, 78, 80
1, 58320, Note_on_c, 0, 78, 0
1, 58320, Note_on_c, 0, 79, 80
1, 58380, Note_on_c, 0, 79, 0
1, 58380, Note_on_c, 0, 81, 80
1, 58440, Note_on_c, 0, 81, 0
1, 58440, Note_on_c, 0, 83, 80
1, 58500, Note_on_c, 0, 83, 0
1, 58500, Note_on_c, 0, 85, 80
1, 58560, Note_on_c, 0, 85, 0
1, 58560, Note_on_c, 0, 86, 80
1, 58560, Note_on_c, 1, 67, 0
1, 58560, Note_on_c, 1, 64, 0
1, 58560, Note_on_c, 1, 57, 0
1, 58560, Note_on_c, 1, 62, 80
1, 58560, Note_on_c, 1, 57, 80
1, 58560, Note_on_c, 1, 54, 80
1, 58560, Note_on_c, 1, 50, 80
1, 58680, Note_on_c, 0, 86, 0
1, 58680, Note_on_c, 0, 74, 80
1, 58716, Note_on_c, 0, 74, 0
1, 58800, Note_on_c, 0, 74, 80
1, 58800, Note_on_c, 1, 50, 0
1, 58800, Note_on_c, 1, 62, 0
1, 58800, Note_on_c, 1, 57, 0
1, 58800, Note_on_c, 1, 54, 0
1, 58836, Note_on_c, 0, 74, 0
1, 58920, Note_on_c, 0, 74, 80
1, 58920, Note_on_c, 1, 69, 64
1, 58920, Note_on_c, 1, 66, 64
1, 59040, Note_on_c, 0, 74, 0
1, 59040, Note_on_c, 0, 76, 80
1, 59040, Note_on_c, 1, 66, 0
1, 59040, Note_on_c, 1, 69, 0
1, 59040, Note_on_c, 1, 71, 64
1, 59040, Note_on_c, 1, 67, 64
1, 59070, Note_on_c, 0, 76, 0
1, 59070, Note_on_c, 0, 78, 80
1, 59100, Note_on_c, 0, 78, 0
1, 59100, Note_on_c, 0, 76, 80
1, 59120, Note_on_c, 0, 76, 0
1, 59120, Note_on_c, 0, 78, 80
1, 59140, Note_on_c, 0, 78, 0
1, 59140, Note_on_c, 0, 76, 80
1, 59160, Note_on_c, 0, 76, 0
1, 59160, Note_on_c, 0, 74, 80
1, 59160, Note_on_c, 1, 67, 0
1, 59160, Note_on_c, 1, 71, 0
1, 59160, Note_on_c, 1, 69, 64
1, 59160, Note_on_c, 1, 66, 64
1, 59196, Note_on_c, 0, 74, 0
1, 59196, Note_on_c, 1, 66, 0
1, 59196, Note_on_c, 1, 69, 0
1, 59280, Note_on_c, 0, 76, 80
1, 59280, Note_on_c, 1, 71, 64
1, 59280, Note_on_c, 1, 67, 64
1, 59310, Note_on_c, 0, 76, 0
1, 59310, Note_on_c, 0, 78, 80
1, 59340, Note_on_c, 0, 78, 0
1, 59340, Note_on_c, 0, 76, 80
1, 59360, Note_on_c, 0, 76, 0
1, 59360, Note_on_c, 0, 78, 80
1, 59380, Note_on_c, 0, 78, 0
1, 59380, Note_on_c, 0, 76, 80
1, 59388, Note_on_c, 0, 76, 0
1, 59400, Note_on_c, 0, 74, 80
1, 59400, Note_on_c, 1, 67, 0
1, 59400, Note_on_c, 1, 71, 0
1, 59400, Note_on_c, 1, 69, 64
1, 59400, Note_on_c, 1, 66, 64
1, 59436, Note_on_c, 1, 66, 0
1, 59436, Note_on_c, 1, 69, 0
1, 59442, Note_on_c, 0, 74, 0
1, 59505, Note_on_c, 0, 85, 80
1, 59520, Note_on_c, 0, 85, 0
1, 59520, Note_on_c, 0, 86, 80
1, 59520, Note_on_c, 1, 69, 80
1, 59520, Note_on_c, 1, 66, 80
1, 59520, Note_on_c, 1, 62, 80
1, 59640, Note_on_c, 0, 86, 0
1, 59640, Note_on_c, 0, 74, 80
1, 59676, Note_on_c, 0, 74, 0
1, 59760, Note_on_c, 0, 74, 80
1, 59760, Note_on_c, 1, 62, 0
1, 59760, Note_on_c, 1, 66, 0
1, 59760, Note_on_c, 1, 69, 0
1, 59796, Note_on_c, 0, 74, 0
1, 59880, Note_on_c, 0, 74, 80
1, 59880, Note_on_c, 1, 69, 64
1, 59880, Note_on_c, 1, 66, 64
1, 60000, Note_on_c, 0, 74, 0
1, 60000, Note_on_c, 0, 76, 80
1, 60000, Note_on_c, 1, 66, 0
1, 60000, Note_on_c, 1, 69, 0
1, 60000, Note_on_c, 1, 71, 64
1, 60000, Note_on_c, 1, 67, 64
1, 60030, Note_on_c, 0, 76, 0
1, 60030, Note_on_c, 0, 78, 80
1, 60060, Note_on_c, 0, 78, 0
1, 60060, Note_on_c, 0, 76, 80
1, 60080, Note_on_c, 0, 76, 0
1, 60080, Note_on_c, 0, 78, 80
1, 60100, Note_on_c, 0, 78, 0
1, 60100, Note_on_c, 0, 76, 80
1, 60120, Note_on_c, 0, 76, 0
1, 60120, Note_on_c, 0, 74, 80
1, 60120, Note_on_c, 1, 67, 0
1, 60120, Note_on_c, 1, 71, 0
1, 60120, Note_on_c, 1, 69, 64
1, 60120, Note_on_c, 1, 66, 64
1, 60156, Note_on_c, 0, 74, 0
1, 60156, Note_on_c, 1, 66, 0
1, 60156, Note_on_c, 1, 69, 0
1, 60240, Note_on_c, 0, 76, 80
1, 60240, Note_on_c, 1, 71, 64
1, 60240, Note_on_c, 1, 67, 64
1, 60270, Note_on_c, 0, 76, 0
1, 60270, Note_on_c, 0, 78, 80
1, 60300, Note_on_c, 0, 78, 0
1, 60300, Note_on_c, 0, 76, 80
1, 60320, Note_on_c, 0, 76, 0
1, 60320, Note_on_c, 0, 78, 80
1, 60340, Note_on_c, 0, 78, 0
1, 60340, Note_on_c, 0, 76, 80
1, 60346, Note_on_c, 0, 76, 0
1, 60360, Note_on_c, 0, 74, 80
1, 60360, Note_on_c, 1, 67, 0
1, 60360, Note_on_c, 1, 71, 0
1, 60360, Note_on_c, 1, 69, 64
1, 60360, Note_on_c, 1, 66, 64
1, 60396, Note_on_c, 0, 74, 0
1, 60396, Note_on_c, 1, 66, 0
1, 60396, Note_on_c, 1, 69, 0
1, 60480, Note_on_c, 0, 79, 80
1, 60480, Note_on_c, 0, 74, 80
1, 60480, Note_on_c, 1, 71, 80
1, 60516, Note_on_c, 0, 74, 0
1, 60516, Note_on_c, 0, 79, 0
1, 60516, Note_on_c, 1, 71, 0
1, 60600, Note_on_c, 0, 79, 80
1, 60600, Note_on_c, 0, 74, 64
1, 60600, Note_on_c, 1, 71, 80
1, 60720, Note_on_c, 0, 74, 0
1, 60720, Note_on_c, 0, 79, 0
1, 60720, Note_on_c, 0, 78, 80
1, 60720, Note_on_c, 1, 71, 0
1, 60720, Note_on_c, 1, 69, 80
1, 60756, Note_on_c, 0, 78, 0
1, 60756, Note_on_c, 1, 69, 0
1, 60840, Note_on_c, 0, 78, 80
1, 60840, Note_on_c, 0, 74, 64
1, 60840, Note_on_c, 1, 69, 80
1, 60960, Note_on_c, 0, 74, 0
1, 60960, Note_on_c, 0, 78, 0
1, 60960, Note_on_c, 0, 83, 80
1, 60960, Note_on_c, 1, 69, 0
1, 60960, Note_on_c, 1, 67, 80
1, 60996, Note_on_c, 0, 83, 0
1, 60996, Note_on_c, 1, 67, 0
1, 61080, Note_on_c, 0, 83, 80
1, 61080, Note_on_c, 0, 74, 64
1, 61080, Note_on_c, 1, 67, 80
1, 61200, Note_on_c, 0, 74, 0
1, 61200, Note_on_c, 0, 83, 0
1, 61200, Note_on_c, 0, 81, 80
1, 61200, Note_on_c, 1, 67, 0
1, 61200, Note_on_c, 1, 66, 80
1, 61236, Note_on_c, 0, 81, 0
1, 61236, Note_on_c, 1, 66, 0
1, 61320, Note_on_c, 0, 81, 80
1, 61320, Note_on_c, 0, 74, 80
1, 61320, Note_on_c, 1, 66, 80
1, 61440, Note_on_c, 0, 74, 0
1, 61440, Note_on_c, 0, 81, 0
1, 61440, Note_on_c, 0, 79, 80
1, 61440, Note_on_c, 1, 66, 0
1, 61440, Note_on_c, 1, 64, 80
1, 61560, Note_on_c, 0, 79, 0
1, 61560, Note_on_c, 0, 76, 80
1, 61560, Note_on_c, 1, 64, 0
1, 61560, Note_on_c, 1, 61, 80
1, 61596, Note_on_c, 0, 76, 0
1, 61596, Note_on_c, 1, 61, 0
1, 61680, Note_on_c, 0, 78, 80
1, 61680, Note_on_c, 1, 62, 80
1, 61716, Note_on_c, 0, 78, 0
1, 61716, Note_on_c, 1, 62, 0
1, 61800, Note_on_c, 0, 74, 80
1, 61800, Note_on_c, 1, 66, 80
1, 61836, Note_on_c, 0, 74, 0
1, 61836, Note_on_c, 1, 66, 0
1, 61920, Note_on_c, 0, 73, 80
1, 61920, Note_on_c, 1, 69, 80
1, 61980, Note_on_c, 0, 73, 0
1, 61980, Note_on_c, 0, 74, 80
1, 62040, Note_on_c, 0, 74, 0
1, 62040, Note_on_c, 0, 76, 80
1, 62100, Note_on_c, 0, 76, 0
1, 62100, Note_on_c, 0, 73, 80
1, 62160, Note_on_c, 0, 73, 0
1, 62160, Note_on_c, 0, 69, 80
1, 62160, Note_on_c, 1, 69, 0
1, 62220, Note_on_c, 0, 69, 0
1, 62370, Note_on_c, 0, 85, 80
1, 62400, Note_on_c, 0, 85, 0
1, 62400, Note_on_c, 0, 86, 80
1, 62400, Note_on_c, 1, 62, 64
1, 62460, Note_on_c, 1, 62, 0
1, 62460, Note_on_c, 1, 69, 64
1, 62520, Note_on_c, 0, 86, 0
1, 62520, Note_on_c, 0, 74, 80
1, 62520, Note_on_c, 1, 69, 0
1, 62520, Note_on_c, 1, 66, 64
1, 62556, Note_on_c, 0, 74, 0
1, 62580, Note_on_c, 1, 66, 0
1, 62580, Note_on_c, 1, 69, 64
1, 62640, Note_on_c, 0, 74, 80
1, 62640, Note_on_c, 1, 69, 0
1, 62640, Note_on_c, 1, 66, 64
1, 62676, Note_on_c, 0, 74, 0
1, 62700, Note_on_c, 1, 66, 0
1, 62700, Note_on_c, 1, 69, 64
1, 62760, Note_on_c, 0, 74, 80
1, 62760, Note_on_c, 1, 69, 0
1, 62760, Note_on_c, 1, 66, 64
1, 62787, Note_on_c, 0, 74, 0
1, 62820, Note_on_c, 1, 66, 0
1, 62820, Note_on_c, 1, 69, 64
1, 62850, Note_on_c, 0, 78, 80
1, 62880, Note_on_c, 0, 78, 0
1, 62880, Note_on_c, 0, 76, 88
1, 62880, Note_on_c, 1, 69, 0
1, 62880, Note_on_c, 1, 67, 64
1, 62940, Note_on_c, 1, 67, 0
1, 62940, Note_on_c, 1, 69, 64
1, 63000, Note_on_c, 0, 76, 0
1, 63000, Note_on_c, 0, 74, 80
1, 63000, Note_on_c, 1, 69, 0
1, 63000, Note_on_c, 1, 66, 64
1, 63027, Note_on_c, 0, 74, 0
1, 63060, Note_on_c, 1, 66, 0
1, 63060, Note_on_c, 1, 69, 64
1, 63090, Note_on_c, 0, 78, 80
1, 63120, Note_on_c, 0, 78, 0
1, 63120, Note_on_c, 0, 76, 88
1, 63120, Note_on_c, 1, 69, 0
1, 63120, Note_on_c, 1, 67, 64
1, 63180, Note_on_c, 1, 67, 0
1, 63180, Note_on_c, 1, 69, 64
1, 63240, Note_on_c, 0, 76, 0
1, 63240, Note_on_c, 0, 74, 80
1, 63240, Note_on_c, 1, 69, 0
1, 63240, Note_on_c, 1, 66, 64
1, 63267, Note_on_c, 0, 74, 0
1, 63300, Note_on_c, 1, 66, 0
1, 63300, Note_on_c, 1, 69, 64
1, 63330, Note_on_c, 0, 85, 80
1, 63360, Note_on_c, 0, 85, 0
1, 63360, Note_on_c, 0, 86, 80
1, 63360, Note_on_c, 1, 69, 0
1, 63360, Note_on_c, 1, 62, 64
1, 63420, Note_on_c, 1, 62, 0
1, 63420, Note_on_c, 1, 69, 64
1, 63480, Note_on_c, 0, 86, 0
1, 63480, Note_on_c, 0, 74, 80
1, 63480, Note_on_c, 1, 69, 0
1, 63480, Note_on_c, 1, 66, 64
1, 63516, Note_on_c, 0, 74, 0
1, 63540, Note_on_c, 1, 66, 0
1, 63540, Note_on_c, 1, 69, 64
1, 63600, Note_on_c, 0, 74, 80
1, 63600, Note_on_c, 1, 69, 0
1, 63600, Note_on_c, 1, 66, 64
1, 63636, Note_on_c, 0, 74, 0
1, 63660, Note_on_c, 1, 66, 0
1, 63660, Note_on_c, 1, 69, 64
1, 63720, Note_on_c, 0, 74, 80
1, 63720, Note_on_c, 1, 69, 0
1, 63720, Note_on_c, 1, 66, 64
1, 63747, Note_on_c, 0, 74, 0
1, 63780, Note_on_c, 1, 66, 0
1, 63780, Note_on_c, 1, 69, 64
1, 63810, Note_on_c, 0, 78, 80
1, 63840, Note_on_c, 0, 78, 0
1, 63840, Note_on_c, 0, 76, 88
1, 63840, Note_on_c, 1, 69, 0
1, 63840, Note_on_c, 1, 67, 64
1, 63900, Note_on_c, 1, 67, 0
1, 63900, Note_on_c, 1, 69, 64
1, 63960, Note_on_c, 0, 76, 0
1, 63960, Note_on_c, 0, 74, 80
1, 63960, Note_on_c, 1, 69, 0
1, 63960, Note_on_c, 1, 66, 64
1, 63987, Note_on_c, 0, 74, 0
1, 64020, Note_on_c, 1, 66, 0
1, 64020, Note_on_c, 1, 69, 64
1, 64050, Note_on_c, 0, 78, 80
1, 64080, Note_on_c, 0, 78, 0
1, 64080, Note_on_c, 0, 76, 88
1, 64080, Note_on_c, 1, 69, 0
1, 64080, Note_on_c, 1, 67, 64
1, 64140, Note_on_c, 1, 67, 0
1, 64140, Note_on_c, 1, 69, 64
1, 64200, Note_on_c, 0, 76, 0
1, 64200, Note_on_c, 0, 74, 80
1, 64200, Note_on_c, 1, 69, 0
1, 64200, Note_on_c, 1, 66, 64
1, 64260, Note_on_c, 1, 66, 0
1, 64260, Note_on_c, 1, 69, 64
1, 64272, Note_on_c, 0, 74, 0
1, 64290, Note_on_c, 0, 81, 80
1, 64314, Note_on_c, 0, 81, 0
1, 64320, Note_on_c, 0, 79, 88
1, 64320, Note_on_c, 1, 69, 0
1, 64320, Note_on_c, 1, 64, 88
1, 64380, Note_on_c, 1, 64, 0
1, 64380, Note_on_c, 1, 69, 80
1, 64440, Note_on_c, 0, 79, 0
1, 64440, Note_on_c, 0, 78, 80
1, 64440, Note_on_c, 1, 69, 0
1, 64440, Note_on_c, 1, 63, 80
1, 64476, Note_on_c, 0, 78, 0
1, 64500, Note_on_c, 1, 63, 0
1, 64500, Note_on_c, 1, 69, 80
1, 64560, Note_on_c, 0, 79, 80
1, 64560, Note_on_c, 1, 69, 0
1, 64560, Note_on_c, 1, 64, 80
1, 64596, Note_on_c, 0, 79, 0
1, 64620, Note_on_c, 1, 64, 0
1, 64620, Note_on_c, 1, 69, 80
1, 64680, Note_on_c, 0, 76, 80
1, 64680, Note_on_c, 1, 69, 0
1, 64680, Note_on_c, 1, 61, 80
1, 64707, Note_on_c, 0, 76, 0
1, 64740, Note_on_c, 1, 61, 0
1, 64740, Note_on_c, 1, 69, 80
1, 64770, Note_on_c, 0, 79, 80
1, 64800, Note_on_c, 0, 79, 0
1, 64800, Note_on_c, 0, 78, 88
1, 64800, Note_on_c, 1, 69, 0
1, 64800, Note_on_c, 1, 62, 88
1, 64860, Note_on_c, 1, 62, 0
1, 64860, Note_on_c, 1, 69, 80
1, 64920, Note_on_c, 0, 78, 0
1, 64920, Note_on_c, 0, 76, 80
1, 64920, Note_on_c, 1, 69, 0
1, 64920, Note_on_c, 1, 61, 80
1, 64956, Note_on_c, 0, 76, 0
1, 64980, Note_on_c, 1, 61, 0
1, 64980, Note_on_c, 1, 69, 80
1, 65040, Note_on_c, 0, 78, 80
1, 65040, Note_on_c, 1, 69, 0
1, 65040, Note_on_c, 1, 62, 80
1, 65076, Note_on_c, 0, 78, 0
1, 65100, Note_on_c, 1, 62, 0
1, 65100, Note_on_c, 1, 69, 80
1, 65160, Note_on_c, 0, 74, 80
1, 65160, Note_on_c, 1, 69, 0
1, 65160, Note_on_c, 1, 66, 80
1, 65187, Note_on_c, 0, 74, 0
1, 65220, Note_on_c, 1, 66, 0
1, 65220, Note_on_c, 1, 69, 80
1, 65250, Note_on_c, 0, 78, 80
1, 65280, Note_on_c, 0, 78, 0
1, 65280, Note_on_c, 0, 76, 88
1, 65280, Note_on_c, 1, 69, 0
1, 65280, Note_on_c, 1, 67, 88
1, 65340, Note_on_c, 1, 67, 0
1, 65340, Note_on_c, 1, 69, 80
1, 65400, Note_on_c, 0, 76, 0
1, 65400, Note_on_c, 0, 75, 80
1, 65400, Note_on_c, 1, 69, 0
1, 65400, Note_on_c, 1, 66, 80
1, 65436, Note_on_c, 0, 75, 0
1, 65460, Note_on_c, 1, 66, 0
1, 65460, Note_on_c, 1, 69, 80
1, 65520, Note_on_c, 0, 76, 80
1, 65520, Note_on_c, 1, 69, 0
1, 65520, Note_on_c, 1, 67, 80
1, 65556, Note_on_c, 0, 76, 0
1, 65580, Note_on_c, 1, 67, 0
1, 65580, Note_on_c, 1, 69, 80
1, 65640, Note_on_c, 0, 73, 80
1, 65640, Note_on_c, 1, 69, 0
1, 65640, Note_on_c, 1, 64, 80
1, 65676, Note_on_c, 0, 73, 0
1, 65700, Note_on_c, 1, 64, 0
1, 65700, Note_on_c, 1, 69, 80
1, 65760, Note_on_c, 0, 74, 88
1, 65760, Note_on_c, 1, 69, 0
1, 65760, Note_on_c, 1, 66, 88
1, 65820, Note_on_c, 1, 66, 0
1, 65820, Note_on_c, 1, 69, 80
1, 65880, Note_on_c, 0, 74, 0
1, 65880, Note_on_c, 0, 73, 80
1, 65880, Note_on_c, 1, 69, 0
1, 65880, Note_on_c, 1, 64, 80
1, 65916, Note_on_c, 0, 73, 0
1, 65940, Note_on_c, 1, 64, 0
1, 65940, Note_on_c, 1, 69, 80
1, 66000, Note_on_c, 0, 74, 80
1, 66000, Note_on_c, 1, 69, 0
1, 66000, Note_on_c, 1, 66, 80
1, 66036, Note_on_c, 0, 74, 0
1, 66060, Note_on_c, 1, 66, 0
1, 66060, Note_on_c, 1, 69, 80
1, 66120, Note_on_c, 0, 78, 80
1, 66120, Note_on_c, 1, 69, 0
1, 66120, Note_on_c, 1, 62, 80
1, 66147, Note_on_c, 0, 78, 0
1, 66180, Note_on_c, 1, 62, 0
1, 66180, Note_on_c, 1, 69, 80
1, 66210, Note_on_c, 0, 81, 80
1, 66240, Note_on_c, 0, 81, 0
1, 66240, Note_on_c, 0, 79, 48
1, 66240, Note_on_c, 1, 69, 0
1, 66240, Note_on_c, 1, 64, 48
1, 66300, Note_on_c, 1, 64, 0
1, 66300, Note_on_c, 1, 69, 48
1, 66360, Note_on_c, 0, 79, 0
1, 66360, Note_on_c, 0, 78, 48
1, 66360, Note_on_c, 1, 69, 0
1, 66360, Note_on_c, 1, 63, 48
1, 66396, Note_on_c, 0, 78, 0
1, 66420, Note_on_c, 1, 63, 0
1, 66420, Note_on_c, 1, 69, 48
1, 66480, Note_on_c, 0, 79, 48
1, 66480, Note_on_c, 1, 69, 0
1, 66480, Note_on_c, 1, 64, 48
1, 66516, Note_on_c, 0, 79, 0
1, 66540, Note_on_c, 1, 64, 0
1, 66540, Note_on_c, 1, 69, 48
1, 66600, Note_on_c, 0, 76, 48
1, 66600, Note_on_c, 1, 69, 0
1, 66600, Note_on_c, 1, 61, 48
1, 66627, Note_on_c, 0, 76, 0
1, 66660, Note_on_c, 1, 61, 0
1, 66660, Note_on_c, 1, 69, 48
1, 66690, Note_on_c, 0, 79, 48
1, 66720, Note_on_c, 0, 79, 0
1, 66720, Note_on_c, 0, 78, 48
1, 66720, Note_on_c, 1, 69, 0
1, 66720, Note_on_c, 1, 62, 48
1, 66780, Note_on_c, 1, 62, 0
1, 66780, Note_on_c, 1, 69, 48
1, 66840, Note_on_c, 0, 78, 0
1, 66840, Note_on_c, 0, 76, 48
1, 66840, Note_on_c, 1, 69, 0
1, 66840, Note_on_c, 1, 61, 48
1, 66876, Note_on_c, 0, 76, 0
1, 66900, Note_on_c, 1, 61, 0
1, 66900, Note_on_c, 1, 69, 48
1, 66960, Note_on_c, 0, 78, 48
1, 66960, Note_on_c, 1, 69, 0
1, 66960, Note_on_c, 1, 62, 48
1, 66996, Note_on_c, 0, 78, 0
1, 67020, Note_on_c, 1, 62, 0
1, 67020, Note_on_c, 1, 69, 48
1, 67080, Note_on_c, 0, 74, 48
1, 67080, Note_on_c, 1, 69, 0
1, 67080, Note_on_c, 1, 66, 48
1, 67107, Note_on_c, 0, 74, 0
1, 67140, Note_on_c, 1, 66, 0
1, 67140, Note_on_c, 1, 69, 48
1, 67170, Note_on_c, 0, 78, 48
1, 67200, Note_on_c, 0, 78, 0
1, 67200, Note_on_c, 0, 76, 48
1, 67200, Note_on_c, 1, 69, 0
1, 67200, Note_on_c, 1, 67, 48
1, 67260, Note_on_c, 1, 67, 0
1, 67260, Note_on_c, 1, 71, 50
1, 67320, Note_on_c, 0, 76, 0
1, 67320, Note_on_c, 0, 75, 52
1, 67320, Note_on_c, 1, 71, 0
1, 67320, Note_on_c, 1, 66, 52
1, 67347, Note_on_c, 0, 75, 0
1, 67380, Note_on_c, 1, 66, 0
1, 67380, Note_on_c, 1, 69, 54
1, 67410, Note_on_c, 0, 78, 55
1, 67440, Note_on_c, 0, 78, 0
1, 67440, Note_on_c, 0, 76, 56
1, 67440, Note_on_c, 1, 69, 0
1, 67440, Note_on_c, 1, 67, 56
1, 67500, Note_on_c, 1, 67, 0
1, 67500, Note_on_c, 1, 71, 58
1, 67560, Note_on_c, 0, 76, 0
1, 67560, Note_on_c, 0, 75, 60
1, 67560, Note_on_c, 1, 71, 0
1, 67560, Note_on_c, 1, 66, 60
1, 67587, Note_on_c, 0, 75, 0
1, 67620, Note_on_c, 1, 66, 0
1, 67620, Note_on_c, 1, 69, 62
1, 67650, Note_on_c, 0, 78, 63
1, 67680, Note_on_c, 0, 78, 0
1, 67680, Note_on_c, 0, 76, 64
1, 67680, Note_on_c, 1, 69, 0
1, 67680, Note_on_c, 1, 67, 64
1, 67740, Note_on_c, 1, 67, 0
1, 67740, Note_on_c, 1, 71, 66
1, 67800, Note_on_c, 0, 76, 0
1, 67800, Note_on_c, 0, 75, 68
1, 67800, Note_on_c, 1, 71, 0
1, 67800, Note_on_c, 1, 66, 68
1, 67827, Note_on_c, 0, 75, 0
1, 67860, Note_on_c, 1, 66, 0
1, 67860, Note_on_c, 1, 69, 70
1, 67890, Note_on_c, 0, 78, 71
1, 67920, Note_on_c, 0, 78, 0
1, 67920, Note_on_c, 0, 76, 72
1, 67920, Note_on_c, 1, 69, 0
1, 67920, Note_on_c, 1, 67, 72
1, 67980, Note_on_c, 1, 67, 0
1, 67980, Note_on_c, 1, 71, 74
1, 68040, Note_on_c, 0, 76, 0
1, 68040, Note_on_c, 0, 75, 76
1, 68040, Note_on_c, 1, 71, 0
1, 68040, Note_on_c, 1, 66, 76
1, 68076, Note_on_c, 0, 75, 0
1, 68100, Note_on_c, 1, 66, 0
1, 68100, Note_on_c, 1, 69, 78
1, 68160, Note_on_c, 0, 76, 80
1, 68160, Note_on_c, 1, 69, 0
1, 68160, Note_on_c, 1, 67, 80
1, 68220, Note_on_c, 0, 76, 0
1, 68220, Note_on_c, 0, 79, 80
1, 68280, Note_on_c, 0, 79, 0
1, 68280, Note_on_c, 0, 78, 80
1, 68340, Note_on_c, 0, 78, 0
1, 68340, Note_on_c, 0, 81, 80
1, 68400, Note_on_c, 0, 81, 0
1, 68400, Note_on_c, 0, 79, 80
1, 68400, Note_on_c, 1, 67, 0
1, 68460, Note_on_c, 0, 79, 0
1, 68460, Note_on_c, 0, 83, 80
1, 68520, Note_on_c, 0, 83, 0
1, 68520, Note_on_c, 0, 81, 80
1, 68580, Note_on_c, 0, 81, 0
1, 68580, Note_on_c, 0, 84, 80
1, 68640, Note_on_c, 0, 84, 0
1, 68640, Note_on_c, 0, 83, 80
1, 68700, Note_on_c, 0, 83, 0
1, 68700, Note_on_c, 0, 81, 80
1, 68760, Note_on_c, 0, 81, 0
1, 68760, Note_on_c, 0, 79, 80
1, 68820, Note_on_c, 0, 79, 0
1, 68820, Note_on_c, 0, 78, 80
1, 68880, Note_on_c, 0, 78, 0
1, 68880, Note_on_c, 0, 76, 80
1, 68880, Note_on_c, 1, 68, 80
1, 68940, Note_on_c, 0, 76, 0
1, 68940, Note_on_c, 0, 74, 80
1, 69000, Note_on_c, 0, 74, 0
1, 69000, Note_on_c, 0, 73, 80
1, 69060, Note_on_c, 0, 73, 0
1, 69060, Note_on_c, 0, 71, 80
1, 69120, Note_on_c, 0, 71, 0
1, 69120, Note_on_c, 0, 69, 80
1, 69120, Note_on_c, 1, 68, 0
1, 69120, Note_on_c, 1, 57, 80
1, 69180, Note_on_c, 0, 69, 0
1, 69180, Note_on_c, 0, 81, 80
1, 69240, Note_on_c, 0, 81, 0
1, 69240, Note_on_c, 0, 80, 80
1, 69300, Note_on_c, 0, 80, 0
1, 69300, Note_on_c, 0, 81, 80
1, 69360, Note_on_c, 0, 81, 0
1, 69360, Note_on_c, 0, 80, 80
1, 69360, Note_on_c, 1, 57, 0
1, 69420, Note_on_c, 0, 80, 0
1, 69420, Note_on_c, 0, 81, 80
1, 69480, Note_on_c, 0, 81, 0
1, 69480, Note_on_c, 0, 80, 80
1, 69540, Note_on_c, 0, 80, 0
1, 69540, Note_on_c, 0, 81, 80
1, 69600, Note_on_c, 0, 81, 0
1, 69600, Note_on_c, 0, 69, 80
1, 69660, Note_on_c, 0, 69, 0
1, 69660, Note_on_c, 0, 79, 80
1, 69720, Note_on_c, 0, 79, 0
1, 69720, Note_on_c, 0, 78, 80
1, 69780, Note_on_c, 0, 78, 0
1, 69780, Note_on_c, 0, 79, 80
1, 69840, Note_on_c, 0, 79, 0
1, 69840, Note_on_c, 0, 78, 80
1, 69900, Note_on_c, 0, 78, 0
1, 69900, Note_on_c, 0, 79, 80
1, 69960, Note_on_c, 0, 79, 0
1, 69960, Note_on_c, 0, 78, 80
1, 70020, Note_on_c, 0, 78, 0
1, 70020, Note_on_c, 0, 79, 80
1, 70080, Note_on_c, 0, 79, 0
1, 70080, Note_on_c, 0, 69, 80
1, 70080, Note_on_c, 1, 57, 80
1, 70140, Note_on_c, 0, 69, 0
1, 70140, Note_on_c, 0, 78, 78
1, 70140, Note_on_c, 1, 57, 0
1, 70140, Note_on_c, 1, 69, 78
1, 70200, Note_on_c, 0, 78, 0
1, 70200, Note_on_c, 0, 77, 76
1, 70200, Note_on_c, 1, 69, 0
1, 70200, Note_on_c, 1, 68, 76
1, 70260, Note_on_c, 0, 77, 0
1, 70260, Note_on_c, 0, 78, 74
1, 70260, Note_on_c, 1, 68, 0
1, 70260, Note_on_c, 1, 69, 74
1, 70320, Note_on_c, 0, 78, 0
1, 70320, Note_on_c, 0, 77, 72
1, 70320, Note_on_c, 1, 69, 0
1, 70320, Note_on_c, 1, 68, 72
1, 70380, Note_on_c, 0, 77, 0
1, 70380, Note_on_c, 0, 78, 70
1, 70380, Note_on_c, 1, 68, 0
1, 70380, Note_on_c, 1, 69, 70
1, 70440, Note_on_c, 0, 78, 0
1, 70440, Note_on_c, 0, 77, 68
1, 70440, Note_on_c, 1, 69, 0
1, 70440, Note_on_c, 1, 68, 68
1, 70500, Note_on_c, 0, 77, 0
1, 70500, Note_on_c, 0, 78, 66
1, 70500, Note_on_c, 1, 68, 0
1, 70500, Note_on_c, 1, 69, 66
1, 70560, Note_on_c, 0, 78, 0
1, 70560, Note_on_c, 0, 69, 64
1, 70560, Note_on_c, 1, 69, 0
1, 70560, Note_on_c, 1, 57, 64
1, 70620, Note_on_c, 0, 69, 0
1, 70620, Note_on_c, 0, 76, 62
1, 70620, Note_on_c, 1, 57, 0
1, 70620, Note_on_c, 1, 67, 62
1, 70680, Note_on_c, 0, 76, 0
1, 70680, Note_on_c, 0, 75, 60
1, 70680, Note_on_c, 1, 67, 0
1, 70680, Note_on_c, 1, 66, 60
1, 70740, Note_on_c, 0, 75, 0
1, 70740, Note_on_c, 0, 76, 58
1, 70740, Note_on_c, 1, 66, 0
1, 70740, Note_on_c, 1, 67, 58
1, 70800, Note_on_c, 0, 76, 0
1, 70800, Note_on_c, 0, 75, 56
1, 70800, Note_on_c, 1, 67, 0
1, 70800, Note_on_c, 1, 66, 56
1, 70860, Note_on_c, 0, 75, 0
1, 70860, Note_on_c, 0, 76, 54
1, 70860, Note_on_c, 1, 66, 0
1, 70860, Note_on_c, 1, 67, 54
1, 70920, Note_on_c, 0, 76, 0
1, 70920, Note_on_c, 0, 75, 52
1, 70920, Note_on_c, 1, 67, 0
1, 70920, Note_on_c, 1, 66, 52
1, 70980, Note_on_c, 0, 75, 0
1, 70980, Note_on_c, 0, 76, 50
1, 70980, Note_on_c, 1, 66, 0
1, 70980, Note_on_c, 1, 67, 50
1, 71040, Note_on_c, 0, 76, 0
1, 71040, Note_on_c, 0, 74, 88
1, 71040, Note_on_c, 1, 67, 0
1, 71040, Note_on_c, 1, 62, 88
1, 71040, Note_on_c, 1, 66, 88
1, 71100, Note_on_c, 0, 74, 0
1, 71100, Note_on_c, 0, 69, 72
1, 71160, Note_on_c, 0, 69, 0
1, 71160, Note_on_c, 0, 66, 72
1, 71220, Note_on_c, 0, 66, 0
1, 71220, Note_on_c, 0, 69, 72
1, 71280, Note_on_c, 0, 69, 0
1, 71280, Note_on_c, 0, 74, 72
1, 71280, Note_on_c, 1, 66, 0
1, 71280, Note_on_c, 1, 62, 0
1, 71280, Note_on_c, 1, 62, 72
1, 71316, Note_on_c, 1, 62, 0
1, 71340, Note_on_c, 0, 74, 0
1, 71340, Note_on_c, 0, 69, 72
1, 71400, Note_on_c, 0, 69, 0
1, 71400, Note_on_c, 0, 76, 72
1, 71400, Note_on_c, 1, 61, 72
1, 71436, Note_on_c, 1, 61, 0
1, 71460, Note_on_c, 0, 76, 0
1, 71460, Note_on_c, 0, 69, 72
1, 71520, Note_on_c, 0, 69, 0
1, 71520, Note_on_c, 0, 78, 72
1, 71520, Note_on_c, 1, 62, 72
1, 71556, Note_on_c, 1, 62, 0
1, 71580, Note_on_c, 0, 78, 0
1, 71580, Note_on_c, 0, 69, 72
1, 71640, Note_on_c, 0, 69, 0
1, 71640, Note_on_c, 0, 79, 72
1, 71640, Note_on_c, 1, 64, 72
1, 71676, Note_on_c, 1, 64, 0
1, 71700, Note_on_c, 0, 79, 0
1, 71700, Note_on_c, 0, 69, 72
1, 71760, Note_on_c, 0, 69, 0
1, 71760, Note_on_c, 0, 81, 72
1, 71760, Note_on_c, 1, 66, 72
1, 71796, Note_on_c, 1, 66, 0
1, 71820, Note_on_c, 0, 81, 0
1, 71820, Note_on_c, 0, 69, 72
1, 71880, Note_on_c, 0, 69, 0
1, 71880, Note_on_c, 0, 79, 72
1, 71880, Note_on_c, 1, 64, 72
1, 71916, Note_on_c, 1, 64, 0
1, 71940, Note_on_c, 0, 79, 0
1, 71940, Note_on_c, 0, 69, 72
1, 72000, Note_on_c, 0, 69, 0
1, 72000, Note_on_c, 0, 78, 88
1, 72000, Note_on_c, 1, 50, 88
1, 72000, Note_on_c, 1, 62, 88
1, 72060, Note_on_c, 0, 78, 0
1, 72060, Note_on_c, 0, 74, 72
1, 72120, Note_on_c, 0, 74, 0
1, 72120, Note_on_c, 0, 69, 72
1, 72180, Note_on_c, 0, 69, 0
1, 72180, Note_on_c, 0, 74, 72
1, 72240, Note_on_c, 0, 74, 0
1, 72240, Note_on_c, 0, 78, 72
1, 72240, Note_on_c, 1, 62, 0
1, 72240, Note_on_c, 1, 50, 0
1, 72240, Note_on_c, 1, 62, 72
1, 72276, Note_on_c, 1, 62, 0
1, 72300, Note_on_c, 0, 78, 0
1, 72300, Note_on_c, 0, 74, 72
1, 72360, Note_on_c, 0, 74, 0
1, 72360, Note_on_c, 0, 79, 72
1, 72360, Note_on_c, 1, 64, 72
1, 72396, Note_on_c, 1, 64, 0
1, 72420, Note_on_c, 0, 79, 0
1, 72420, Note_on_c, 0, 74, 72
1, 72480, Note_on_c, 0, 74, 0
1, 72480, Note_on_c, 0, 81, 72
1, 72480, Note_on_c, 1, 66, 72
1, 72516, Note_on_c, 1, 66, 0
1, 72540, Note_on_c, 0, 81, 0
1, 72540, Note_on_c, 0, 74, 72
1, 72600, Note_on_c, 0, 74, 0
1, 72600, Note_on_c, 0, 83, 72
1, 72600, Note_on_c, 1, 67, 72
1, 72636, Note_on_c, 1, 67, 0
1, 72660, Note_on_c, 0, 83, 0
1, 72660, Note_on_c, 0, 74, 72
1, 72720, Note_on_c, 0, 74, 0
1, 72720, Note_on_c, 0, 81, 72
1, 72720, Note_on_c, 1, 66, 72
1, 72756, Note_on_c, 1, 66, 0
1, 72780, Note_on_c, 0, 81, 0
1, 72780, Note_on_c, 0, 74, 72
1, 72840, Note_on_c, 0, 74, 0
1, 72840, Note_on_c, 0, 79, 72
1, 72840, Note_on_c, 1, 64, 72
1, 72876, Note_on_c, 1, 64, 0
1, 72900, Note_on_c, 0, 79, 0
1, 72900, Note_on_c, 0, 74, 72
1, 72960, Note_on_c, 0, 74, 0
1, 72960, Note_on_c, 0, 78, 88
1, 72960, Note_on_c, 1, 62, 88
1, 73020, Note_on_c, 0, 78, 0
1, 73020, Note_on_c, 0, 74, 72
1, 73080, Note_on_c, 0, 74, 0
1, 73080, Note_on_c, 0, 73, 72
1, 73080, Note_on_c, 1, 62, 0
1, 73080, Note_on_c, 1, 66, 72
1, 73140, Note_on_c, 0, 73, 0
1, 73140, Note_on_c, 0, 74, 72
1, 73200, Note_on_c, 0, 74, 0
1, 73200, Note_on_c, 0, 83, 72
1, 73200, Note_on_c, 1, 66, 0
1, 73200, Note_on_c, 1, 67, 72
1, 73260, Note_on_c, 0, 83, 0
1, 73260, Note_on_c, 0, 74, 72
1, 73320, Note_on_c, 0, 74, 0
1, 73320, Note_on_c, 0, 73, 72
1, 73320, Note_on_c, 1, 67, 0
1, 73320, Note_on_c, 1, 71, 72
1, 73380, Note_on_c, 0, 73, 0
1, 73380, Note_on_c, 0, 74, 72
1, 73440, Note_on_c, 0, 74, 0
1, 73440, Note_on_c, 0, 81, 72
1, 73440, Note_on_c, 1, 71, 0
1, 73440, Note_on_c, 1, 66, 72
1, 73500, Note_on_c, 0, 81, 0
1, 73500, Note_on_c, 0, 74, 72
1, 73560, Note_on_c, 0, 74, 0
1, 73560, Note_on_c, 0, 73, 72
1, 73560, Note_on_c, 1, 66, 0
1, 73560, Note_on_c, 1, 69, 72
1, 73620, Note_on_c, 0, 73, 0
1, 73620, Note_on_c, 0, 74, 72
1, 73680, Note_on_c, 0, 74, 0
1, 73680, Note_on_c, 0, 79, 72
1, 73680, Note_on_c, 1, 69, 0
1, 73680, Note_on_c, 1, 64, 72
1, 73740, Note_on_c, 0, 79, 0
1, 73740, Note_on_c, 0, 74, 72
1, 73800, Note_on_c, 0, 74, 0
1, 73800, Note_on_c, 0, 73, 72
1, 73800, Note_on_c, 1, 64, 0
1, 73800, Note_on_c, 1, 67, 72
1, 73860, Note_on_c, 0, 73, 0
1, 73860, Note_on_c, 0, 74, 72
1, 73920, Note_on_c, 0, 74, 0
1, 73920, Note_on_c, 0, 78, 80
1, 73920, Note_on_c, 1, 67, 0
1, 73920, Note_on_c, 1, 62, 80
1, 73980, Note_on_c, 0, 78, 0
1, 73980, Note_on_c, 0, 74, 80
1, 74040, Note_on_c, 0, 74, 0
1, 74040, Note_on_c, 0, 73, 80
1, 74040, Note_on_c, 1, 62, 0
1, 74040, Note_on_c, 1, 66, 80
1, 74058, Note_on_c, 0, 73, 0
1, 74076, Note_on_c, 1, 66, 0
1, 74100, Note_on_c, 0, 74, 80
1, 74118, Note_on_c, 0, 74, 0
1, 74160, Note_on_c, 0, 83, 80
1, 74160, Note_on_c, 1, 67, 80
1, 74220, Note_on_c, 0, 83, 0
1, 74220, Note_on_c, 0, 74, 80
1, 74280, Note_on_c, 0, 74, 0
1, 74280, Note_on_c, 0, 86, 80
1, 74280, Note_on_c, 1, 67, 0
1, 74280, Note_on_c, 1, 71, 80
1, 74298, Note_on_c, 0, 86, 0
1, 74316, Note_on_c, 1, 71, 0
1, 74340, Note_on_c, 0, 74, 80
1, 74358, Note_on_c, 0, 74, 0
1, 74400, Note_on_c, 0, 81, 80
1, 74400, Note_on_c, 1, 66, 80
1, 74460, Note_on_c, 0, 81, 0
1, 74460, Note_on_c, 0, 74, 80
1, 74520, Note_on_c, 0, 74, 0
1, 74520, Note_on_c, 0, 86, 80
1, 74520, Note_on_c, 1, 66, 0
1, 74520, Note_on_c, 1, 69, 80
1, 74538, Note_on_c, 0, 86, 0
1, 74556, Note_on_c, 1, 69, 0
1, 74580, Note_on_c, 0, 74, 80
1, 74598, Note_on_c, 0, 74, 0
1, 74640, Note_on_c, 0, 79, 80
1, 74640, Note_on_c, 1, 64, 80
1, 74700, Note_on_c, 0, 79, 0
1, 74700, Note_on_c, 0, 74, 80
1, 74760, Note_on_c, 0, 74, 0
1, 74760, Note_on_c, 0, 86, 80
1, 74760, Note_on_c, 1, 64, 0
1, 74760, Note_on_c, 1, 67, 80
1, 74778, Note_on_c, 0, 86, 0
1, 74796, Note_on_c, 1, 67, 0
1, 74820, Note_on_c, 0, 74, 80
1, 74838, Note_on_c, 0, 74, 0
1, 74880, Note_on_c, 0, 78, 80
1, 74880, Note_on_c, 1, 62, 80
1, 74940, Note_on_c, 0, 78, 0
1, 74940, Note_on_c, 0, 74, 80
1, 75000, Note_on_c, 0, 74, 0
1, 75000, Note_on_c, 0, 86, 80
1, 75000, Note_on_c, 1, 62, 0
1, 75000, Note_on_c, 1, 66, 80
1, 75018, Note_on_c, 0, 86, 0
1, 75036, Note_on_c, 1, 66, 0
1, 75060, Note_on_c, 0, 74, 80
1, 75078, Note_on_c, 0, 74, 0
1, 75120, Note_on_c, 0, 78, 80
1, 75120, Note_on_c, 1, 62, 80
1, 75180, Note_on_c, 0, 78, 0
1, 75180, Note_on_c, 0, 74, 80
1, 75240, Note_on_c, 0, 74, 0
1, 75240, Note_on_c, 0, 86, 80
1, 75240, Note_on_c, 1, 62, 0
1, 75240, Note_on_c, 1, 66, 80
1, 75300, Note_on_c, 0, 86, 0
1, 75300, Note_on_c, 0, 74, 80
1, 75360, Note_on_c, 0, 74, 0
1, 75360, Note_on_c, 0, 80, 80
1, 75360, Note_on_c, 1, 66, 0
1, 75360, Note_on_c, 1, 59, 80
1, 75420, Note_on_c, 0, 80, 0
1, 75420, Note_on_c, 0, 74, 80
1, 75480, Note_on_c, 0, 74, 0
1, 75480, Note_on_c, 0, 86, 80
1, 75480, Note_on_c, 1, 59, 0
1, 75480, Note_on_c, 1, 62, 80
1, 75540, Note_on_c, 0, 86, 0
1, 75540, Note_on_c, 0, 74, 80
1, 75600, Note_on_c, 0, 74, 0
1, 75600, Note_on_c, 0, 80, 80
1, 75600, Note_on_c, 1, 62, 0
1, 75600, Note_on_c, 1, 59, 80
1, 75660, Note_on_c, 0, 80, 0
1, 75660, Note_on_c, 0, 74, 80
1, 75720, Note_on_c, 0, 74, 0
1, 75720, Note_on_c, 0, 86, 80
1, 75720, Note_on_c, 1, 59, 0
1, 75720, Note_on_c, 1, 62, 80
1, 75780, Note_on_c, 0, 86, 0
1, 75780, Note_on_c, 0, 74, 80
1, 75840, Tempo, 454545
1, 75840, Note_on_c, 0, 74, 0
1, 75840, Note_on_c, 0, 81, 80
1, 75840, Note_on_c, 0, 85, 80
1, 75840, Note_on_c, 1, 62, 0
1, 75840, Note_on_c, 1, 57, 80
1, 76080, Note_on_c, 0, 85, 0
1, 76080, Note_on_c, 0, 81, 0
1, 76080, Note_on_c, 0, 61, 88
1, 76080, Note_on_c, 0, 69, 88
1, 76080, Note_on_c, 1, 57, 0
1, 76080, Note_on_c, 1, 45, 88
1, 76080, Note_on_c, 1, 57, 88
1, 76134, Note_on_c, 0, 69, 0
1, 76134, Note_on_c, 0, 61, 0
1, 76134, Note_on_c, 1, 57, 0
1, 76134, Note_on_c, 1, 45, 0
1, 76260, Note_on_c, 0, 61, 88
1, 76260, Note_on_c, 0, 69, 88
1, 76260, Note_on_c, 1, 45, 88
1, 76260, Note_on_c, 1, 57, 88
1, 76278, Note_on_c, 0, 69, 0
1, 76278, Note_on_c, 0, 61, 0
1, 76278, Note_on_c, 1, 57, 0
1, 76278, Note_on_c, 1, 45, 0
1, 76320, Note_on_c, 0, 61, 88
1, 76320, Note_on_c, 0, 69, 88
1, 76320, Note_on_c, 1, 45, 88
1, 76320, Note_on_c, 1, 57, 88
1, 76560, Note_on_c, 0, 69, 0
1, 76560, Note_on_c, 0, 61, 0
1, 76560, Note_on_c, 1, 57, 0
1, 76560, Note_on_c, 1, 45, 0
1, 76770, Note_on_c, 0, 83, 56
1, 76800, Tempo, 444444
1, 76800, Note_on_c, 0, 83, 0
1, 76800, Note_on_c, 0, 81, 56
1, 76800, Note_on_c, 1, 62, 72
1, 76800, Note_on_c, 1, 66, 72
1, 76836, Note_on_c, 1, 66, 0
1, 76836, Note_on_c, 1, 62, 0
1, 76860, Note_on_c, 0, 81, 0
1, 76860, Note_on_c, 0, 80, 56
1, 76920, Note_on_c, 0, 80, 0
1, 76920, Note_on_c, 0, 81, 56
1, 76920, Note_on_c, 1, 62, 40
1, 76920, Note_on_c, 1, 66, 40
1, 76956, Note_on_c, 1, 66, 0
1, 76956, Note_on_c, 1, 62, 0
1, 76980, Note_on_c, 0, 81, 0
1, 76980, Note_on_c, 0, 83, 56
1, 77040, Note_on_c, 0, 83, 0
1, 77040, Note_on_c, 0, 81, 56
1, 77040, Note_on_c, 1, 62, 40
1, 77040, Note_on_c, 1, 66, 40
1, 77076, Note_on_c, 1, 66, 0
1, 77076, Note_on_c, 1, 62, 0
1, 77160, Note_on_c, 0, 81, 0
1, 77160, Note_on_c, 1, 62, 40
1, 77160, Note_on_c, 1, 66, 40
1, 77250, Note_on_c, 0, 74, 56
1, 77280, Note_on_c, 0, 74, 0
1, 77280, Note_on_c, 0, 73, 56
1, 77280, Note_on_c, 1, 66, 0
1, 77280, Note_on_c, 1, 62, 0
1, 77280, Note_on_c, 1, 64, 72
1, 77280, Note_on_c, 1, 67, 72
1, 77316, Note_on_c, 1, 67, 0
1, 77316, Note_on_c, 1, 64, 0
1, 77340, Note_on_c, 0, 73, 0
1, 77340, Note_on_c, 0, 71, 56
1, 77400, Note_on_c, 0, 71, 0
1, 77400, Note_on_c, 0, 73, 56
1, 77400, Note_on_c, 1, 64, 40
1, 77400, Note_on_c, 1, 67, 40
1, 77436, Note_on_c, 1, 67, 0
1, 77436, Note_on_c, 1, 64, 0
1, 77460, Note_on_c, 0, 73, 0
1, 77460, Note_on_c, 0, 74, 56
1, 77520, Note_on_c, 0, 74, 0
1, 77520, Note_on_c, 0, 73, 56
1, 77520, Note_on_c, 1, 64, 40
1, 77520, Note_on_c, 1, 67, 40
1, 77556, Note_on_c, 1, 67, 0
1, 77556, Note_on_c, 1, 64, 0
1, 77640, Note_on_c, 0, 73, 0
1, 77640, Note_on_c, 1, 64, 40
1, 77640, Note_on_c, 1, 67, 40
1, 77730, Note_on_c, 0, 81, 56
1, 77760, Note_on_c, 0, 81, 0
1, 77760, Note_on_c, 0, 79, 56
1, 77760, Note_on_c, 1, 67, 0
1, 77760, Note_on_c, 1, 64, 0
1, 77760, Note_on_c, 1, 61, 72
1, 77760, Note_on_c, 1, 64, 72
1, 77796, Note_on_c, 1, 64, 0
1, 77796, Note_on_c, 1, 61, 0
1, 77820, Note_on_c, 0, 79, 0
1, 77820, Note_on_c, 0, 78, 56
1, 77880, Note_on_c, 0, 78, 0
1, 77880, Note_on_c, 0, 79, 56
1, 77880, Note_on_c, 1, 61, 40
1, 77880, Note_on_c, 1, 64, 40
1, 77916, Note_on_c, 1, 64, 0
1, 77916, Note_on_c, 1, 61, 0
1, 77940, Note_on_c, 0, 79, 0
1, 77940, Note_on_c, 0, 81, 56
1, 78000, Note_on_c, 0, 81, 0
1, 78000, Note_on_c, 0, 79, 56
1, 78000, Note_on_c, 1, 61, 40
1, 78000, Note_on_c, 1, 64, 40
1, 78036, Note_on_c, 1, 64, 0
1, 78036, Note_on_c, 1, 61, 0
1, 78120, Note_on_c, 0, 79, 0
1, 78120, Note_on_c, 1, 61, 40
1, 78120, Note_on_c, 1, 64, 40
1, 78210, Note_on_c, 0, 79, 56
1, 78240, Note_on_c, 0, 79, 0
1, 78240, Note_on_c, 0, 78, 56
1, 78240, Note_on_c, 1, 64, 0
1, 78240, Note_on_c, 1, 61, 0
1, 78240, Note_on_c, 1, 62, 72
1, 78240, Note_on_c, 1, 66, 72
1, 78276, Note_on_c, 1, 66, 0
1, 78276, Note_on_c, 1, 62, 0
1, 78300, Note_on_c, 0, 78, 0
1, 78300, Note_on_c, 0, 76, 56
1, 78360, Note_on_c, 0, 76, 0
1, 78360, Note_on_c, 0, 78, 56
1, 78360, Note_on_c, 1, 66, 40
1, 78360, Note_on_c, 1, 62, 40
1, 78396, Note_on_c, 1, 62, 0
1, 78396, Note_on_c, 1, 66, 0
1, 78420, Note_on_c, 0, 78, 0
1, 78420, Note_on_c, 0, 79, 56
1, 78480, Note_on_c, 0, 79, 0
1, 78480, Note_on_c, 0, 78, 56
1, 78480, Note_on_c, 1, 62, 40
1, 78480, Note_on_c, 1, 66, 40
1, 78516, Note_on_c, 1, 66, 0
1, 78516, Note_on_c, 1, 62, 0
1, 78600, Note_on_c, 0, 78, 0
1, 78600, Note_on_c, 1, 62, 40
1, 78600, Note_on_c, 1, 66, 40
1, 78690, Note_on_c, 0, 78, 56
1, 78720, Note_on_c, 0, 78, 0
1, 78720, Note_on_c, 0, 76, 56
1, 78720, Note_on_c, 1, 66, 0
1, 78720, Note_on_c, 1, 62, 0
1, 78720, Note_on_c, 1, 55, 72
1, 78720, Note_on_c, 1, 59, 72
1, 78756, Note_on_c, 1, 59, 0
1, 78756, Note_on_c, 1, 55, 0
1, 78780, Note_on_c, 0, 76, 0
1, 78780, Note_on_c, 0, 75, 56
1, 78840, Note_on_c, 0, 75, 0
1, 78840, Note_on_c, 0, 76, 56
1, 78840, Note_on_c, 1, 55, 40
1, 78840, Note_on_c, 1, 59, 40
1, 78876, Note_on_c, 1, 59, 0
1, 78876, Note_on_c, 1, 55, 0
1, 78900, Note_on_c, 0, 76, 0
1, 78900, Note_on_c, 0, 78, 56
1, 78960, Note_on_c, 0, 78, 0
1, 78960, Note_on_c, 0, 76, 56
1, 78960, Note_on_c, 1, 55, 40
1, 78960, Note_on_c, 1, 59, 40
1, 78996, Note_on_c, 1, 59, 0
1, 78996, Note_on_c, 1, 55, 0
1, 79080, Note_on_c, 1, 55, 40
1, 79080, Note_on_c, 1, 59, 40
1, 79116, Note_on_c, 1, 59, 0
1, 79116, Note_on_c, 1, 55, 0
1, 79200, Note_on_c, 0, 76, 0
1, 79200, Note_on_c, 0, 64, 72
1, 79200, Note_on_c, 0, 67, 72
1, 79200, Note_on_c, 1, 55, 40
1, 79200, Note_on_c, 1, 59, 40
1, 79320, Note_on_c, 0, 67, 0
1, 79320, Note_on_c, 0, 64, 0
1, 79320, Note_on_c, 0, 76, 48
1, 79320, Note_on_c, 0, 79, 48
1, 79356, Note_on_c, 0, 79, 0
1, 79356, Note_on_c, 0, 76, 0
1, 79440, Note_on_c, 0, 76, 48
1, 79440, Note_on_c, 0, 79, 48
1, 79440, Note_on_c, 1, 59, 0
1, 79440, Note_on_c, 1, 55, 0
1, 79476, Note_on_c, 0, 79, 0
1, 79476, Note_on_c, 0, 76, 0
1, 79560, Note_on_c, 0, 75, 48
1, 79560, Note_on_c, 0, 78, 48
1, 79587, Note_on_c, 0, 78, 0
1, 79587, Note_on_c, 0, 75, 0
1, 79650, Note_on_c, 0, 78, 48
1, 79680, Note_on_c, 0, 78, 0
1, 79680, Note_on_c, 0, 76, 48
1, 79680, Note_on_c, 1, 43, 72
1, 79680, Note_on_c, 1, 47, 72
1, 79740, Note_on_c, 0, 76, 0
1, 79740, Note_on_c, 0, 75, 48
1, 79800, Note_on_c, 0, 75, 0
1, 79800, Note_on_c, 0, 76, 48
1, 79800, Note_on_c, 1, 47, 0
1, 79800, Note_on_c, 1, 43, 0
1, 79800, Note_on_c, 1, 55, 40
1, 79800, Note_on_c, 1, 59, 40
1, 79836, Note_on_c, 1, 59, 0
1, 79836, Note_on_c, 1, 55, 0
1, 79860, Note_on_c, 0, 76, 0
1, 79860, Note_on_c, 0, 78, 48
1, 79920, Note_on_c, 0, 78, 0
1, 79920, Note_on_c, 0, 76, 48
1, 79920, Note_on_c, 1, 55, 40
1, 79920, Note_on_c, 1, 59, 40
1, 79956, Note_on_c, 1, 59, 0
1, 79956, Note_on_c, 1, 55, 0
1, 80040, Note_on_c, 1, 54, 40
1, 80040, Note_on_c, 1, 57, 40
1, 80076, Note_on_c, 1, 57, 0
1, 80076, Note_on_c, 1, 54, 0
1, 80160, Note_on_c, 0, 76, 0
1, 80160, Note_on_c, 0, 64, 72
1, 80160, Note_on_c, 0, 67, 72
1, 80160, Note_on_c, 1, 55, 40
1, 80160, Note_on_c, 1, 59, 40
1, 80280, Note_on_c, 0, 67, 0
1, 80280, Note_on_c, 0, 64, 0
1, 80280, Note_on_c, 0, 79, 48
1, 80280, Note_on_c, 0, 76, 48
1, 80316, Note_on_c, 0, 76, 0
1, 80316, Note_on_c, 0, 79, 0
1, 80400, Note_on_c, 0, 76, 48
1, 80400, Note_on_c, 0, 79, 48
1, 80400, Note_on_c, 1, 59, 0
1, 80400, Note_on_c, 1, 55, 0
1, 80436, Note_on_c, 0, 79, 0
1, 80436, Note_on_c, 0, 76, 0
1, 80520, Note_on_c, 0, 75, 48
1, 80520, Note_on_c, 0, 78, 48
1, 80547, Note_on_c, 0, 78, 0
1, 80547, Note_on_c, 0, 75, 0
1, 80610, Note_on_c, 0, 78, 48
1, 80640, Note_on_c, 0, 78, 0
1, 80640, Note_on_c, 0, 76, 48
1, 80640, Note_on_c, 1, 43, 72
1, 80640, Note_on_c, 1, 47, 72
1, 80700, Note_on_c, 0, 76, 0
1, 80700, Note_on_c, 0, 75, 50
1, 80760, Note_on_c, 0, 75, 0
1, 80760, Note_on_c, 0, 76, 52
1, 80760, Note_on_c, 1, 47, 0
1, 80760, Note_on_c, 1, 43, 0
1, 80760, Note_on_c, 1, 55, 45
1, 80760, Note_on_c, 1, 59, 45
1, 80796, Note_on_c, 1, 59, 0
1, 80796, Note_on_c, 1, 55, 0
1, 80820, Note_on_c, 0, 76, 0
1, 80820, Note_on_c, 0, 78, 54
1, 80880, Note_on_c, 0, 78, 0
1, 80880, Note_on_c, 0, 76, 56
1, 80880, Note_on_c, 1, 55, 50
1, 80880, Note_on_c, 1, 59, 50
1, 80916, Note_on_c, 1, 59, 0
1, 80916, Note_on_c, 1, 55, 0
1, 81000, Note_on_c, 0, 76, 0
1, 81000, Note_on_c, 1, 55, 55
1, 81000, Note_on_c, 1, 59, 55
1, 81036, Note_on_c, 1, 59, 0
1, 81036, Note_on_c, 1, 55, 0
1, 81090, Note_on_c, 0, 76, 63
1, 81120, Note_on_c, 0, 76, 0
1, 81120, Note_on_c, 0, 74, 64
1, 81120, Note_on_c, 1, 56, 60
1, 81120, Note_on_c, 1, 59, 60
1, 81180, Note_on_c, 0, 74, 0
1, 81180, Note_on_c, 0, 73, 66
1, 81240, Note_on_c, 0, 73, 0
1, 81240, Note_on_c, 0, 74, 68
1, 81240, Note_on_c, 1, 59, 0
1, 81240, Note_on_c, 1, 56, 0
1, 81240, Note_on_c, 1, 56, 65
1, 81240, Note_on_c, 1, 59, 65
1, 81276, Note_on_c, 1, 59, 0
1, 81276, Note_on_c, 1, 56, 0
1, 81300, Note_on_c, 0, 74, 0
1, 81300, Note_on_c, 0, 76, 70
1, 81360, Note_on_c, 0, 76, 0
1, 81360, Note_on_c, 0, 74, 72
1, 81360, Note_on_c, 1, 56, 70
1, 81360, Note_on_c, 1, 59, 70
1, 81396, Note_on_c, 1, 59, 0
1, 81396, Note_on_c, 1, 56, 0
1, 81480, Note_on_c, 0, 74, 0
1, 81480, Note_on_c, 1, 56, 75
1, 81480, Note_on_c, 1, 59, 75
1, 81516, Note_on_c, 1, 59, 0
1, 81516, Note_on_c, 1, 56, 0
1, 81600, Note_on_c, 0, 81, 80
1, 81600, Note_on_c, 1, 45, 80
1, 81660, Note_on_c, 1, 45, 0
1, 81660, Note_on_c, 1, 49, 80
1, 81720, Note_on_c, 0, 81, 0
1, 81720, Note_on_c, 0, 69, 80
1, 81720, Note_on_c, 1, 49, 0
1, 81720, Note_on_c, 1, 47, 80
1, 81756, Note_on_c, 0, 69, 0
1, 81780, Note_on_c, 1, 47, 0
1, 81780, Note_on_c, 1, 50, 80
1, 81840, Note_on_c, 0, 69, 80
1, 81840, Note_on_c, 1, 50, 0
1, 81840, Note_on_c, 1, 49, 80
1, 81876, Note_on_c, 0, 69, 0
1, 81900, Note_on_c, 1, 49, 0
1, 81900, Note_on_c, 1, 52, 80
1, 81960, Note_on_c, 0, 69, 80
1, 81960, Note_on_c, 1, 52, 0
1, 81960, Note_on_c, 1, 50, 80
1, 81996, Note_on_c, 0, 69, 0
1, 82020, Note_on_c, 1, 50, 0
1, 82020, Note_on_c, 1, 54, 80
1, 82080, Note_on_c, 0, 69, 80
1, 82080, Note_on_c, 1, 54, 0
1, 82080, Note_on_c, 1, 52, 80
1, 82140, Note_on_c, 0, 69, 0
1, 82140, Note_on_c, 0, 71, 80
1, 82200, Note_on_c, 0, 71, 0
1, 82200, Note_on_c, 0, 69, 80
1, 82260, Note_on_c, 0, 69, 0
1, 82260, Note_on_c, 0, 67, 80
1, 82320, Note_on_c, 0, 67, 0
1, 82320, Note_on_c, 0, 66, 80
1, 82320, Note_on_c, 1, 55, 80
1, 82380, Note_on_c, 0, 66, 0
1, 82380, Note_on_c, 0, 64, 80
1, 82440, Note_on_c, 0, 64, 0
1, 82440, Note_on_c, 0, 62, 80
1, 82500, Note_on_c, 0, 62, 0
1, 82500, Note_on_c, 0, 61, 80
1, 82560, Note_on_c, 0, 61, 0
1, 82560, Note_on_c, 0, 62, 80
1, 82560, Note_on_c, 1, 55, 0
1, 82560, Note_on_c, 1, 52, 0
1, 82560, Note_on_c, 1, 54, 80
1, 82620, Note_on_c, 0, 62, 0
1, 82620, Note_on_c, 0, 66, 78
1, 82680, Note_on_c, 0, 66, 0
1, 82680, Note_on_c, 0, 64, 76
1, 82740, Note_on_c, 0, 64, 0
1, 82740, Note_on_c, 0, 67, 74
1, 82800, Note_on_c, 0, 67, 0
1, 82800, Note_on_c, 0, 66, 72
1, 82800, Note_on_c, 1, 54, 0
1, 82860, Note_on_c, 0, 66, 0
1, 82860, Note_on_c, 0, 69, 70
1, 82920, Note_on_c, 0, 69, 0
1, 82920, Note_on_c, 0, 67, 68
1, 82980, Note_on_c, 0, 67, 0
1, 82980, Note_on_c, 0, 71, 66
1, 83040, Note_on_c, 0, 71, 0
1, 83040, Note_on_c, 0, 69, 64
1, 83160, Note_on_c, 0, 69, 0
1, 83160, Note_on_c, 0, 71, 60
1, 83220, Note_on_c, 0, 71, 0
1, 83220, Note_on_c, 0, 73, 58
1, 83280, Note_on_c, 0, 73, 0
1, 83280, Note_on_c, 0, 74, 56
1, 83340, Note_on_c, 0, 74, 0
1, 83340, Note_on_c, 0, 76, 54
1, 83400, Note_on_c, 0, 76, 0
1, 83400, Note_on_c, 0, 78, 52
1, 83460, Note_on_c, 0, 78, 0
1, 83460, Note_on_c, 0, 79, 50
1, 83520, Note_on_c, 0, 79, 0
1, 83520, Note_on_c, 0, 81, 48
1, 83520, Note_on_c, 1, 45, 48
1, 83580, Note_on_c, 1, 45, 0
1, 83580, Note_on_c, 1, 49, 48
1, 83640, Note_on_c, 0, 81, 0
1, 83640, Note_on_c, 0, 69, 48
1, 83640, Note_on_c, 1, 49, 0
1, 83640, Note_on_c, 1, 47, 48
1, 83676, Note_on_c, 0, 69, 0
1, 83700, Note_on_c, 1, 47, 0
1, 83700, Note_on_c, 1, 50, 48
1, 83760, Note_on_c, 0, 69, 48
1, 83760, Note_on_c, 1, 50, 0
1, 83760, Note_on_c, 1, 49, 48
1, 83796, Note_on_c, 0, 69, 0
1, 83820, Note_on_c, 1, 49, 0
1, 83820, Note_on_c, 1, 52, 48
1, 83880, Note_on_c, 0, 69, 48
1, 83880, Note_on_c, 1, 52, 0
1, 83880, Note_on_c, 1, 50, 48
1, 83916, Note_on_c, 0, 69, 0
1, 83940, Note_on_c, 1, 50, 0
1, 83940, Note_on_c, 1, 54, 48
1, 84000, Note_on_c, 0, 69, 48
1, 84000, Note_on_c, 1, 54, 0
1, 84000, Note_on_c, 1, 52, 48
1, 84060, Note_on_c, 0, 69, 0
1, 84060, Note_on_c, 0, 71, 48
1, 84120, Note_on_c, 0, 71, 0
1, 84120, Note_on_c, 0, 69, 48
1, 84180, Note_on_c, 0, 69, 0
1, 84180, Note_on_c, 0, 67, 48
1, 84240, Note_on_c, 0, 67, 0
1, 84240, Note_on_c, 0, 66, 48
1, 84240, Note_on_c, 1, 55, 48
1, 84300, Note_on_c, 0, 66, 0
1, 84300, Note_on_c, 0, 64, 48
1, 84360, Note_on_c, 0, 64, 0
1, 84360, Note_on_c, 0, 62, 48
1, 84420, Note_on_c, 0, 62, 0
1, 84420, Note_on_c, 0, 61, 48
1, 84480, Note_on_c, 0, 61, 0
1, 84480, Note_on_c, 0, 62, 48
1, 84480, Note_on_c, 1, 55, 0
1, 84480, Note_on_c, 1, 52, 0
1, 84480, Note_on_c, 1, 54, 48
1, 84540, Note_on_c, 0, 62, 0
1, 84540, Note_on_c, 0, 66, 50
1, 84600, Note_on_c, 0, 66, 0
1, 84600, Note_on_c, 0, 64, 52
1, 84660, Note_on_c, 0, 64, 0
1, 84660, Note_on_c, 0, 67, 54
1, 84720, Note_on_c, 0, 67, 0
1, 84720, Note_on_c, 0, 66, 56
1, 84720, Note_on_c, 1, 54, 0
1, 84780, Note_on_c, 0, 66, 0
1, 84780, Note_on_c, 0, 69, 58
1, 84840, Note_on_c, 0, 69, 0
1, 84840, Note_on_c, 0, 67, 60
1, 84900, Note_on_c, 0, 67, 0
1, 84900, Note_on_c, 0, 71, 62
1, 84960, Note_on_c, 0, 71, 0
1, 84960, Note_on_c, 0, 69, 64
1, 85080, Note_on_c, 0, 69, 0
1, 85080, Note_on_c, 0, 71, 68
1, 85140, Note_on_c, 0, 71, 0
1, 85140, Note_on_c, 0, 73, 70
1, 85200, Note_on_c, 0, 73, 0
1, 85200, Note_on_c, 0, 74, 72
1, 85260, Note_on_c, 0, 74, 0
1, 85260, Note_on_c, 0, 76, 74
1, 85320, Note_on_c, 0, 76, 0
1, 85320, Note_on_c, 0, 78, 76
1, 85380, Note_on_c, 0, 78, 0
1, 85380, Note_on_c, 0, 79, 78
1, 85440, Note_on_c, 0, 79, 0
1, 85440, Note_on_c, 0, 81, 88
1, 85440, Note_on_c, 1, 43, 88
1, 85500, Note_on_c, 0, 81, 0
1, 85500, Note_on_c, 0, 71, 80
1, 85500, Note_on_c, 1, 43, 0
1, 85500, Note_on_c, 1, 55, 80
1, 85560, Note_on_c, 0, 71, 0
1, 85560, Note_on_c, 0, 70, 80
1, 85560, Note_on_c, 1, 55, 0
1, 85560, Note_on_c, 1, 54, 80
1, 85620, Note_on_c, 0, 70, 0
1, 85620, Note_on_c, 0, 71, 80
1, 85620, Note_on_c, 1, 54, 0
1, 85620, Note_on_c, 1, 55, 80
1, 85680, Note_on_c, 0, 71, 0
1, 85680, Note_on_c, 0, 70, 80
1, 85680, Note_on_c, 1, 55, 0
1, 85680, Note_on_c, 1, 54, 80
1, 85740, Note_on_c, 0, 70, 0
1, 85740, Note_on_c, 0, 71, 80
1, 85740, Note_on_c, 1, 54, 0
1, 85740, Note_on_c, 1, 55, 80
1, 85800, Note_on_c, 0, 71, 0
1, 85800, Note_on_c, 0, 70, 80
1, 85800, Note_on_c, 1, 55, 0
1, 85800, Note_on_c, 1, 54, 80
1, 85860, Note_on_c, 0, 70, 0
1, 85860, Note_on_c, 0, 71, 80
1, 85860, Note_on_c, 1, 54, 0
1, 85860, Note_on_c, 1, 55, 80
1, 85920, Note_on_c, 0, 71, 0
1, 85920, Note_on_c, 0, 79, 88
1, 85920, Note_on_c, 1, 55, 0
1, 85920, Note_on_c, 1, 52, 88
1, 85980, Note_on_c, 0, 79, 0
1, 85980, Note_on_c, 0, 67, 80
1, 85980, Note_on_c, 1, 52, 0
1, 85980, Note_on_c, 1, 64, 80
1, 86040, Note_on_c, 0, 67, 0
1, 86040, Note_on_c, 0, 66, 80
1, 86040, Note_on_c, 1, 64, 0
1, 86040, Note_on_c, 1, 63, 80
1, 86100, Note_on_c, 0, 66, 0
1, 86100, Note_on_c, 0, 67, 80
1, 86100, Note_on_c, 1, 63, 0
1, 86100, Note_on_c, 1, 64, 80
1, 86160, Note_on_c, 0, 67, 0
1, 86160, Note_on_c, 0, 66, 80
1, 86160, Note_on_c, 1, 64, 0
1, 86160, Note_on_c, 1, 63, 80
1, 86220, Note_on_c, 0, 66, 0
1, 86220, Note_on_c, 0, 67, 80
1, 86220, Note_on_c, 1, 63, 0
1, 86220, Note_on_c, 1, 64, 80
1, 86280, Note_on_c, 0, 67, 0
1, 86280, Note_on_c, 0, 66, 80
1, 86280, Note_on_c, 1, 64, 0
1, 86280, Note_on_c, 1, 63, 80
1, 86340, Note_on_c, 0, 66, 0
1, 86340, Note_on_c, 0, 67, 80
1, 86340, Note_on_c, 1, 63, 0
1, 86340, Note_on_c, 1, 64, 80
1, 86400, Note_on_c, 0, 67, 0
1, 86400, Note_on_c, 0, 79, 88
1, 86400, Note_on_c, 1, 64, 0
1, 86400, Note_on_c, 1, 57, 88
1, 86460, Note_on_c, 0, 79, 0
1, 86460, Note_on_c, 0, 76, 80
1, 86460, Note_on_c, 1, 57, 0
1, 86460, Note_on_c, 1, 61, 80
1, 86520, Note_on_c, 0, 76, 0
1, 86520, Note_on_c, 0, 75, 80
1, 86520, Note_on_c, 1, 61, 0
1, 86520, Note_on_c, 1, 60, 80
1, 86580, Note_on_c, 0, 75, 0
1, 86580, Note_on_c, 0, 76, 80
1, 86580, Note_on_c, 1, 60, 0
1, 86580, Note_on_c, 1, 61, 80
1, 86640, Note_on_c, 0, 76, 0
1, 86640, Note_on_c, 0, 75, 80
1, 86640, Note_on_c, 1, 61, 0
1, 86640, Note_on_c, 1, 60, 80
1, 86700, Note_on_c, 0, 75, 0
1, 86700, Note_on_c, 0, 76, 80
1, 86700, Note_on_c, 1, 60, 0
1, 86700, Note_on_c, 1, 61, 80
1, 86760, Note_on_c, 0, 76, 0
1, 86760, Note_on_c, 0, 75, 80
1, 86760, Note_on_c, 1, 61, 0
1, 86760, Note_on_c, 1, 60, 80
1, 86820, Note_on_c, 0, 75, 0
1, 86820, Note_on_c, 0, 76, 80
1, 86820, Note_on_c, 1, 60, 0
1, 86820, Note_on_c, 1, 61, 80
1, 86880, Note_on_c, 0, 76, 0
1, 86880, Note_on_c, 0, 78, 88
1, 86880, Note_on_c, 1, 61, 0
1, 86880, Note_on_c, 1, 62, 88
1, 86940, Note_on_c, 0, 78, 0
1, 86940, Note_on_c, 0, 74, 80
1, 86940, Note_on_c, 1, 62, 0
1, 86940, Note_on_c, 1, 66, 80
1, 87000, Note_on_c, 0, 74, 0
1, 87000, Note_on_c, 0, 73, 80
1, 87000, Note_on_c, 1, 66, 0
1, 87000, Note_on_c, 1, 64, 80
1, 87060, Note_on_c, 0, 73, 0
1, 87060, Note_on_c, 0, 74, 80
1, 87060, Note_on_c, 1, 64, 0
1, 87060, Note_on_c, 1, 66, 80
1, 87120, Note_on_c, 0, 74, 0
1, 87120, Note_on_c, 0, 73, 80
1, 87120, Note_on_c, 1, 66, 0
1, 87120, Note_on_c, 1, 64, 80
1, 87180, Note_on_c, 0, 73, 0
1, 87180, Note_on_c, 0, 74, 80
1, 87180, Note_on_c, 1, 64, 0
1, 87180, Note_on_c, 1, 66, 80
1, 87240, Note_on_c, 0, 74, 0
1, 87240, Note_on_c, 0, 73, 80
1, 87240, Note_on_c, 1, 66, 0
1, 87240, Note_on_c, 1, 64, 80
1, 87300, Note_on_c, 0, 73, 0
1, 87300, Note_on_c, 0, 74, 80
1, 87300, Note_on_c, 1, 64, 0
1, 87300, Note_on_c, 1, 66, 80
1, 87360, Note_on_c, 0, 74, 0
1, 87360, Note_on_c, 0, 79, 80
1, 87360, Note_on_c, 1, 66, 0
1, 87360, Note_on_c, 1, 57, 80
1, 87420, Note_on_c, 0, 79, 0
1, 87420, Note_on_c, 0, 76, 80
1, 87480, Note_on_c, 0, 76, 0
1, 87480, Note_on_c, 0, 75, 80
1, 87480, Note_on_c, 1, 61, 80
1, 87540, Note_on_c, 0, 75, 0
1, 87540, Note_on_c, 0, 76, 80
1, 87600, Note_on_c, 0, 76, 0
1, 87600, Note_on_c, 0, 78, 80
1, 87600, Note_on_c, 1, 61, 0
1, 87600, Note_on_c, 1, 62, 80
1, 87660, Note_on_c, 0, 78, 0
1, 87660, Note_on_c, 0, 74, 80
1, 87720, Note_on_c, 0, 74, 0
1, 87720, Note_on_c, 0, 73, 80
1, 87720, Note_on_c, 1, 62, 0
1, 87720, Note_on_c, 1, 66, 80
1, 87780, Note_on_c, 0, 73, 0
1, 87780, Note_on_c, 0, 74, 80
1, 87840, Note_on_c, 0, 74, 0
1, 87840, Note_on_c, 0, 79, 80
1, 87840, Note_on_c, 1, 66, 0
1, 87840, Note_on_c, 1, 57, 0
1, 87840, Note_on_c, 1, 57, 80
1, 87900, Note_on_c, 0, 79, 0
1, 87900, Note_on_c, 0, 76, 80
1, 87960, Note_on_c, 0, 76, 0
1, 87960, Note_on_c, 0, 75, 80
1, 87960, Note_on_c, 1, 61, 80
1, 88020, Note_on_c, 0, 75, 0
1, 88020, Note_on_c, 0, 76, 80
1, 88080, Note_on_c, 0, 76, 0
1, 88080, Note_on_c, 0, 78, 80
1, 88080, Note_on_c, 1, 61, 0
1, 88080, Note_on_c, 1, 62, 80
1, 88140, Note_on_c, 0, 78, 0
1, 88140, Note_on_c, 0, 74, 80
1, 88200, Note_on_c, 0, 74, 0
1, 88200, Note_on_c, 0, 73, 80
1, 88200, Note_on_c, 1, 62, 0
1, 88200, Note_on_c, 1, 66, 80
1, 88260, Note_on_c, 0, 73, 0
1, 88260, Note_on_c, 0, 74, 80
1, 88320, Note_on_c, 0, 74, 0
1, 88320, Note_on_c, 0, 79, 64
1, 88320, Note_on_c, 1, 66, 0
1, 88320, Note_on_c, 1, 57, 0
1, 88320, Note_on_c, 1, 57, 64
1, 88380, Note_on_c, 0, 79, 0
1, 88380, Note_on_c, 0, 76, 64
1, 88440, Note_on_c, 0, 76, 0
1, 88440, Note_on_c, 0, 75, 64
1, 88440, Note_on_c, 1, 61, 64
1, 88458, Note_on_c, 0, 75, 0
1, 88476, Note_on_c, 1, 61, 0
1, 88500, Note_on_c, 0, 76, 64
1, 88518, Note_on_c, 0, 76, 0
1, 88560, Note_on_c, 0, 77, 64
1, 88560, Note_on_c, 1, 62, 64
1, 88596, Note_on_c, 1, 62, 0
1, 88620, Note_on_c, 0, 77, 0
1, 88620, Note_on_c, 0, 74, 64
1, 88680, Note_on_c, 0, 74, 0
1, 88680, Note_on_c, 0, 73, 64
1, 88680, Note_on_c, 1, 65, 64
1, 88698, Note_on_c, 0, 73, 0
1, 88716, Note_on_c, 1, 65, 0
1, 88740, Note_on_c, 0, 74, 64
1, 88758, Note_on_c, 0, 74, 0
1, 88800, Note_on_c, 0, 79, 64
1, 88800, Note_on_c, 1, 57, 0
1, 88800, Note_on_c, 1, 57, 64
1, 88860, Note_on_c, 0, 79, 0
1, 88860, Note_on_c, 0, 76, 64
1, 88920, Note_on_c, 0, 76, 0
1, 88920, Note_on_c, 0, 75, 64
1, 88920, Note_on_c, 1, 61, 64
1, 88938, Note_on_c, 0, 75, 0
1, 88956, Note_on_c, 1, 61, 0
1, 88980, Note_on_c, 0, 76, 64
1, 89040, Note_on_c, 0, 76, 0
1, 89040, Note_on_c, 0, 77, 64
1, 89040, Note_on_c, 1, 62, 64
1, 89076, Note_on_c, 1, 62, 0
1, 89100, Note_on_c, 0, 77, 0
1, 89100, Note_on_c, 0, 74, 64
1, 89160, Note_on_c, 0, 74, 0
1, 89160, Note_on_c, 0, 73, 64
1, 89160, Note_on_c, 1, 65, 64
1, 89178, Note_on_c, 0, 73, 0
1, 89196, Note_on_c, 1, 65, 0
1, 89220, Note_on_c, 0, 74, 64
1, 89238, Note_on_c, 0, 74, 0
1, 89280, Note_on_c, 1, 57, 0
1, 89280, Note_on_c, 1, 58, 80
1, 89280, Note_on_c, 1, 62, 80
1, 89280, Note_on_c, 1, 65, 80
1, 89340, Note_on_c, 0, 86, 79
1, 89400, Note_on_c, 0, 86, 0
1, 89400, Note_on_c, 0, 82, 78
1, 89460, Note_on_c, 0, 82, 0
1, 89460, Note_on_c, 0, 86, 77
1, 89520, Note_on_c, 0, 86, 0
1, 89520, Note_on_c, 0, 77, 76
1, 89520, Note_on_c, 1, 65, 0
1, 89520, Note_on_c, 1, 62, 0
1, 89520, Note_on_c, 1, 58, 0
1, 89580, Note_on_c, 0, 77, 0
1, 89580, Note_on_c, 0, 82, 75
1, 89640, Note_on_c, 0, 82, 0
1, 89640, Note_on_c, 0, 74, 74
1, 89700, Note_on_c, 0, 74, 0
1, 89700, Note_on_c, 0, 77, 73
1, 89760, Note_on_c, 0, 77, 0
1, 89760, Note_on_c, 0, 70, 72
1, 89820, Note_on_c, 1, 58, 71
1, 89880, Note_on_c, 1, 58, 0
1, 89880, Note_on_c, 1, 62, 70
1, 89940, Note_on_c, 1, 62, 0
1, 89940, Note_on_c, 1, 65, 69
1, 90000, Note_on_c, 0, 70, 0
1, 90000, Note_on_c, 1, 65, 0
1, 90000, Note_on_c, 1, 70, 68
1, 90060, Note_on_c, 0, 74, 67
1, 90120, Note_on_c, 0, 74, 0
1, 90120, Note_on_c, 0, 77, 66
1, 90180, Note_on_c, 0, 77, 0
1, 90180, Note_on_c, 0, 82, 65
1, 90240, Note_on_c, 0, 82, 0
1, 90240, Note_on_c, 0, 86, 64
1, 90240, Note_on_c, 1, 70, 0
1, 90300, Note_on_c, 0, 86, 0
1, 90300, Note_on_c, 0, 77, 62
1, 90360, Note_on_c, 0, 77, 0
1, 90360, Note_on_c, 0, 82, 61
1, 90420, Note_on_c, 0, 82, 0
1, 90420, Note_on_c, 0, 86, 59
1, 90480, Note_on_c, 0, 86, 0
1, 90480, Note_on_c, 0, 89, 58
1, 90540, Note_on_c, 0, 89, 0
1, 90540, Note_on_c, 0, 77, 56
1, 90558, Note_on_c, 0, 77, 0
1, 90600, Note_on_c, 0, 82, 55
1, 90618, Note_on_c, 0, 82, 0
1, 90660, Note_on_c, 0, 86, 53
1, 90678, Note_on_c, 0, 86, 0
1, 90720, Note_on_c, 0, 89, 52
1, 90840, Note_on_c, 0, 89, 0
1, 91200, Note_on_c, 1, 56, 80
1, 91200, Note_on_c, 1, 44, 80
1, 91260, Note_on_c, 0, 77, 80
1, 91320, Note_on_c, 0, 77, 0
1, 91320, Note_on_c, 0, 74, 80
1, 91380, Note_on_c, 0, 74, 0
1, 91380, Note_on_c, 0, 77, 80
1, 91440, Note_on_c, 0, 77, 0
1, 91440, Note_on_c, 0, 71, 80
1, 91440, Note_on_c, 1, 44, 0
1, 91440, Note_on_c, 1, 56, 0
1, 91440, Note_on_c, 1, 47, 80
1, 91440, Note_on_c, 1, 59, 80
1, 91476, Note_on_c, 1, 59, 0
1, 91476, Note_on_c, 1, 47, 0
1, 91500, Note_on_c, 0, 71, 0
1, 91500, Note_on_c, 0, 74, 80
1, 91560, Note_on_c, 0, 74, 0
1, 91560, Note_on_c, 0, 68, 80
1, 91560, Note_on_c, 1, 44, 80
1, 91560, Note_on_c, 1, 56, 80
1, 91596, Note_on_c, 1, 56, 0
1, 91596, Note_on_c, 1, 44, 0
1, 91620, Note_on_c, 0, 68, 0
1, 91620, Note_on_c, 0, 71, 80
1, 91680, Note_on_c, 0, 71, 0
1, 91680, Note_on_c, 0, 65, 80
1, 91680, Note_on_c, 1, 41, 80
1, 91680, Note_on_c, 1, 53, 80
1, 91716, Note_on_c, 1, 53, 0
1, 91716, Note_on_c, 1, 41, 0
1, 91740, Note_on_c, 0, 65, 0
1, 91740, Note_on_c, 0, 68, 80
1, 91800, Note_on_c, 0, 68, 0
1, 91800, Note_on_c, 0, 62, 80
1, 91800, Note_on_c, 1, 38, 80
1, 91800, Note_on_c, 1, 50, 80
1, 91836, Note_on_c, 1, 50, 0
1, 91836, Note_on_c, 1, 38, 0
1, 91860, Note_on_c, 0, 62, 0
1, 91860, Note_on_c, 0, 65, 80
1, 91920, Note_on_c, 0, 65, 0
1, 91920, Note_on_c, 0, 59, 80
1, 91920, Note_on_c, 1, 35, 80
1, 91920, Note_on_c, 1, 47, 80
1, 91956, Note_on_c, 1, 47, 0
1, 91956, Note_on_c, 1, 35, 0
1, 91980, Note_on_c, 0, 59, 0
1, 91980, Note_on_c, 0, 62, 80
1, 92040, Note_on_c, 0, 62, 0
1, 92040, Note_on_c, 0, 56, 80
1, 92040, Note_on_c, 1, 32, 80
1, 92040, Note_on_c, 1, 44, 80
1, 92076, Note_on_c, 1, 44, 0
1, 92076, Note_on_c, 1, 32, 0
1, 92100, Note_on_c, 0, 56, 0
1, 92100, Note_on_c, 0, 59, 80
1, 92160, Note_on_c, 0, 59, 0
1, 92160, Note_on_c, 1, 33, 80
1, 92160, Note_on_c, 1, 45, 80
1, 92280, Note_on_c, 0, 57, 80
1, 92400, Note_on_c, 0, 57, 0
1, 92400, Note_on_c, 0, 62, 80
1, 92436, Note_on_c, 0, 62, 0
1, 92520, Note_on_c, 0, 66, 80
1, 92556, Note_on_c, 0, 66, 0
1, 92640, Note_on_c, 0, 69, 80
1, 92676, Note_on_c, 0, 69, 0
1, 92760, Note_on_c, 0, 74, 80
1, 92796, Note_on_c, 0, 74, 0
1, 92880, Note_on_c, 0, 78, 80
1, 92916, Note_on_c, 0, 78, 0
1, 93000, Note_on_c, 0, 81, 80
1, 93036, Note_on_c, 0, 81, 0
1, 93120, Note_on_c, 1, 45, 0
1, 93120, Note_on_c, 1, 33, 0
1, 93120, Note_on_c, 1, 45, 80
1, 93240, Note_on_c, 1, 45, 0
1, 93240, Note_on_c, 1, 49, 80
1, 93276, Note_on_c, 1, 49, 0
1, 93360, Note_on_c, 1, 52, 80
1, 93396, Note_on_c, 1, 52, 0
1, 93480, Note_on_c, 1, 55, 80
1, 93516, Note_on_c, 1, 55, 0
1, 93600, Note_on_c, 0, 76, 67
1, 93600, Note_on_c, 1, 57, 80
1, 93600, Note_on_c, 1, 61, 80
1, 93600, Note_on_c, 1, 64, 80
1, 93600, Note_on_c, 1, 67, 80
1, 93630, Note_on_c, 0, 76, 0
1, 93630, Note_on_c, 0, 78, 68
1, 93660, Note_on_c, 0, 78, 0
1, 93660, Note_on_c, 0, 76, 69
1, 93690, Note_on_c, 0, 76, 0
1, 93690, Note_on_c, 0, 78, 70
1, 93720, Note_on_c, 0, 78, 0
1, 93720, Note_on_c, 0, 76, 71
1, 93750, Note_on_c, 0, 76, 0
1, 93750, Note_on_c, 0, 78, 71
1, 93780, Note_on_c, 0, 78, 0
1, 93780, Note_on_c, 0, 76, 72
1, 93810, Note_on_c, 0, 76, 0
1, 93810, Note_on_c, 0, 78, 73
1, 93840, Note_on_c, 0, 78, 0
1, 93840, Note_on_c, 0, 76, 74
1, 93870, Note_on_c, 0, 76, 0
1, 93870, Note_on_c, 0, 78, 75
1, 93900, Note_on_c, 0, 78, 0
1, 93900, Note_on_c, 0, 76, 75
1, 93930, Note_on_c, 0, 76, 0
1, 93930, Note_on_c, 0, 78, 76
1, 93960, Note_on_c, 0, 78, 0
1, 93960, Note_on_c, 0, 76, 77
1, 93980, Note_on_c, 0, 76, 0
1, 93980, Note_on_c, 0, 78, 77
1, 94000, Note_on_c, 0, 78, 0
1, 94000, Note_on_c, 0, 76, 78
1, 94020, Note_on_c, 0, 76, 0
1, 94020, Note_on_c, 0, 74, 79
1, 94050, Note_on_c, 0, 74, 0
1, 94050, Note_on_c, 0, 76, 79
1, 94080, Note_on_c, 0, 76, 0
1, 94080, Note_on_c, 0, 74, 80
1, 94080, Note_on_c, 1, 67, 0
1, 94080, Note_on_c, 1, 57, 0
1, 94080, Note_on_c, 1, 61, 0
1, 94080, Note_on_c, 1, 64, 0
1, 94080, Note_on_c, 1, 62, 80
1, 94080, Note_on_c, 1, 66, 80
1, 94320, Note_on_c, 0, 74, 0
1, 94320, Note_on_c, 0, 71, 64
1, 94320, Note_on_c, 0, 74, 64
1, 94320, Note_on_c, 1, 66, 0
1, 94320, Note_on_c, 1, 62, 0
1, 94356, Note_on_c, 0, 74, 0
1, 94356, Note_on_c, 0, 71, 0
1, 94440, Note_on_c, 0, 69, 64
1, 94440, Note_on_c, 0, 73, 64
1, 94458, Note_on_c, 0, 73, 0
1, 94476, Note_on_c, 0, 69, 0
1, 94500, Note_on_c, 0, 71, 64
1, 94530, Note_on_c, 0, 71, 0
1, 94530, Note_on_c, 0, 73, 64
1, 94560, Note_on_c, 0, 73, 0
1, 94560, Note_on_c, 0, 67, 64
1, 94560, Note_on_c, 0, 71, 64
1, 94620, Note_on_c, 0, 71, 0
1, 94620, Note_on_c, 0, 67, 0
1, 94800, Note_on_c, 0, 67, 64
1, 94800, Note_on_c, 0, 71, 64
1, 94836, Note_on_c, 0, 71, 0
1, 94836, Note_on_c, 0, 67, 0
1, 94920, Note_on_c, 0, 66, 64
1, 94920, Note_on_c, 0, 69, 64
1, 94938, Note_on_c, 0, 69, 0
1, 94956, Note_on_c, 0, 66, 0
1, 94980, Note_on_c, 0, 67, 64
1, 95010, Note_on_c, 0, 67, 0
1, 95010, Note_on_c, 0, 69, 64
1, 95040, Note_on_c, 0, 69, 0
1, 95040, Note_on_c, 0, 64, 64
1, 95040, Note_on_c, 0, 67, 64
1, 95112, Note_on_c, 0, 67, 0
1, 95112, Note_on_c, 0, 64, 0
1, 95280, Note_on_c, 0, 57, 88
1, 95280, Note_on_c, 0, 66, 88
1, 95280, Note_on_c, 1, 50, 88
1, 95280, Note_on_c, 1, 54, 88
1, 95316, Note_on_c, 0, 66, 0
1, 95316, Note_on_c, 0, 57, 0
1, 95316, Note_on_c, 1, 54, 0
1, 95316, Note_on_c, 1, 50, 0
1, 95400, Note_on_c, 0, 57, 88
1, 95400, Note_on_c, 0, 66, 88
1, 95400, Note_on_c, 1, 50, 88
1, 95400, Note_on_c, 1, 54, 88
1, 95520, Note_on_c, 0, 66, 0
1, 95520, Note_on_c, 0, 57, 0
1, 95520, Note_on_c, 0, 59, 88
1, 95520, Note_on_c, 0, 64, 88
1, 95520, Note_on_c, 1, 54, 0
1, 95520, Note_on_c, 1, 50, 0
1, 95520, Note_on_c, 1, 43, 88
1, 95520, Note_on_c, 1, 55, 88
1, 95640, Note_on_c, 0, 64, 0
1, 95640, Note_on_c, 0, 59, 0
1, 95640, Note_on_c, 1, 55, 0
1, 95640, Note_on_c, 1, 43, 0
1, 95760, Note_on_c, 0, 55, 88
1, 95760, Note_on_c, 0, 61, 88
1, 95760, Note_on_c, 1, 45, 88
1, 95760, Note_on_c, 1, 52, 88
1, 95796, Note_on_c, 0, 61, 0
1, 95796, Note_on_c, 0, 55, 0
1, 95796, Note_on_c, 1, 52, 0
1, 95796, Note_on_c, 1, 45, 0
1, 95880, Note_on_c, 0, 55, 88
1, 95880, Note_on_c, 0, 61, 88
1, 95880, Note_on_c, 1, 45, 88
1, 95880, Note_on_c, 1, 52, 88
1, 96000, Note_on_c, 0, 61, 0
1, 96000, Note_on_c, 0, 55, 0
1, 96000, Note_on_c, 0, 62, 88
1, 96000, Note_on_c, 1, 52, 0
1, 96000, Note_on_c, 1, 45, 0
1, 96000, Note_on_c, 1, 38, 88
1, 96000, Note_on_c, 1, 50, 88
1, 96120, Note_on_c, 0, 62, 0
1, 96120, Note_on_c, 1, 50, 0
1, 96120, Note_on_c, 1, 38, 0
1, 96240, Note_on_c, 0, 86, 64
1, 96240, Note_on_c, 1, 71, 64
1, 96300, Note_on_c, 0, 86, 0
1, 96300, Note_on_c, 0, 88, 64
1, 96300, Note_on_c, 1, 71, 0
1, 96300, Note_on_c, 1, 73, 64
1, 96360, Note_on_c, 0, 88, 0
1, 96360, Note_on_c, 0, 85, 64
1, 96360, Note_on_c, 1, 73, 0
1, 96360, Note_on_c, 1, 69, 64
1, 96420, Note_on_c, 0, 85, 0
1, 96420, Note_on_c, 0, 86, 64
1, 96420, Note_on_c, 1, 69, 0
1, 96420, Note_on_c, 1, 71, 64
1, 96480, Note_on_c, 0, 86, 0
1, 96480, Note_on_c, 0, 83, 64
1, 96480, Note_on_c, 1, 71, 0
1, 96480, Note_on_c, 1, 67, 64
1, 96600, Note_on_c, 0, 83, 0
1, 96600, Note_on_c, 1, 67, 0
1, 96720, Note_on_c, 0, 83, 64
1, 96720, Note_on_c, 1, 67, 64
1, 96780, Note_on_c, 0, 83, 0
1, 96780, Note_on_c, 0, 85, 64
1, 96780, Note_on_c, 1, 67, 0
1, 96780, Note_on_c, 1, 69, 64
1, 96840, Note_on_c, 0, 85, 0
1, 96840, Note_on_c, 0, 81, 64
1, 96840, Note_on_c, 1, 69, 0
1, 96840, Note_on_c, 1, 66, 64
1, 96900, Note_on_c, 0, 81, 0
1, 96900, Note_on_c, 0, 83, 64
1, 96900, Note_on_c, 1, 66, 0
1, 96900, Note_on_c, 1, 67, 64
1, 96960, Note_on_c, 0, 83, 0
1, 96960, Note_on_c, 0, 79, 64
1, 96960, Note_on_c, 1, 67, 0
1, 96960, Note_on_c, 1, 64, 64
1, 97080, Note_on_c, 0, 79, 0
1, 97080, Note_on_c, 1, 64, 0
1, 97200, Note_on_c, 0, 69, 88
1, 97200, Note_on_c, 0, 78, 88
1, 97200, Note_on_c, 1, 62, 88
1, 97200, Note_on_c, 1, 66, 88
1, 97236, Note_on_c, 0, 78, 0
1, 97236, Note_on_c, 0, 69, 0
1, 97236, Note_on_c, 1, 66, 0
1, 97236, Note_on_c, 1, 62, 0
1, 97320, Note_on_c, 0, 69, 88
1, 97320, Note_on_c, 0, 78, 88
1, 97320, Note_on_c, 1, 62, 88
1, 97320, Note_on_c, 1, 66, 88
1, 97440, Note_on_c, 0, 78, 0
1, 97440, Note_on_c, 0, 69, 0
1, 97440, Note_on_c, 0, 71, 88
1, 97440, Note_on_c, 0, 76, 88
1, 97440, Note_on_c, 1, 66, 0
1, 97440, Note_on_c, 1, 62, 0
1, 97440, Note_on_c, 1, 55, 88
1, 97440, Note_on_c, 1, 67, 88
1, 97476, Note_on_c, 0, 76, 0
1, 97476, Note_on_c, 0, 71, 0
1, 97476, Note_on_c, 1, 67, 0
1, 97476, Note_on_c, 1, 55, 0
1, 97560, Note_on_c, 0, 71, 88
1, 97560, Note_on_c, 0, 76, 88
1, 97560, Note_on_c, 1, 55, 88
1, 97560, Note_on_c, 1, 67, 88
1, 97680, Note_on_c, 0, 76, 0
1, 97680, Note_on_c, 0, 71, 0
1, 97680, Note_on_c, 0, 67, 88
1, 97680, Note_on_c, 0, 73, 88
1, 97680, Note_on_c, 1, 67, 0
1, 97680, Note_on_c, 1, 55, 0
1, 97680, Note_on_c, 1, 57, 88
1, 97680, Note_on_c, 1, 64, 88
1, 97716, Note_on_c, 0, 73, 0
1, 97716, Note_on_c, 0, 67, 0
1, 97716, Note_on_c, 1, 64, 0
1, 97716, Note_on_c, 1, 57, 0
1, 97800, Note_on_c, 0, 67, 88
1, 97800, Note_on_c, 0, 73, 88
1, 97800, Note_on_c, 1, 57, 88
1, 97800, Note_on_c, 1, 64, 88
1, 97920, Note_on_c, 0, 73, 0
1, 97920, Note_on_c, 0, 67, 0
1, 97920, Note_on_c, 0, 74, 88
1, 97920, Note_on_c, 1, 64, 0
1, 97920, Note_on_c, 1, 57, 0
1, 97920, Note_on_c, 1, 62, 88
1, 97920, Note_on_c, 1, 66, 88
1, 97980, Note_on_c, 0, 74, 0
1, 97980, Note_on_c, 0, 69, 89
1, 98040, Note_on_c, 0, 69, 0
1, 98040, Note_on_c, 0, 78, 89
1, 98100, Note_on_c, 0, 78, 0
1, 98100, Note_on_c, 0, 69, 90
1, 98160, Note_on_c, 0, 69, 0
1, 98160, Note_on_c, 0, 74, 90
1, 98160, Note_on_c, 1, 66, 0
1, 98160, Note_on_c, 1, 62, 0
1, 98220, Note_on_c, 0, 74, 0
1, 98220, Note_on_c, 0, 69, 91
1, 98280, Note_on_c, 0, 69, 0
1, 98280, Note_on_c, 0, 73, 91
1, 98280, Note_on_c, 1, 57, 91
1, 98280, Note_on_c, 1, 67, 91
1, 98316, Note_on_c, 1, 67, 0
1, 98316, Note_on_c, 1, 57, 0
1, 98340, Note_on_c, 0, 73, 0
1, 98340, Note_on_c, 0, 69, 92
1, 98400, Note_on_c, 0, 69, 0
1, 98400, Note_on_c, 0, 74, 92
1, 98400, Note_on_c, 1, 62, 92
1, 98400, Note_on_c, 1, 66, 92
1, 98460, Note_on_c, 0, 74, 0
1, 98460, Note_on_c, 0, 69, 93
1, 98520, Note_on_c, 0, 69, 0
1, 98520, Note_on_c, 0, 78, 93
1, 98580, Note_on_c, 0, 78, 0
1, 98580, Note_on_c, 0, 69, 94
1, 98640, Note_on_c, 0, 69, 0
1, 98640, Note_on_c, 0, 74, 94
1, 98640, Note_on_c, 1, 66, 0
1, 98640, Note_on_c, 1, 62, 0
1, 98700, Note_on_c, 0, 74, 0
1, 98700, Note_on_c, 0, 69, 95
1, 98760, Note_on_c, 0, 69, 0
1, 98760, Note_on_c, 0, 73, 95
1, 98760, Note_on_c, 1, 57, 95
1, 98760, Note_on_c, 1, 67, 95
1, 98796, Note_on_c, 1, 67, 0
1, 98796, Note_on_c, 1, 57, 0
1, 98820, Note_on_c, 0, 73, 0
1, 98820, Note_on_c, 0, 69, 96
1, 98880, Note_on_c, 0, 69, 0
1, 98880, Note_on_c, 0, 74, 96
1, 98880, Note_on_c, 1, 62, 96
1, 98880, Note_on_c, 1, 66, 96
1, 99120, Tempo, 526316
1, 99120, Note_on_c, 0, 74, 0
1, 99120, Note_on_c, 0, 74, 96
1, 99120, Note_on_c, 0, 78, 96
1, 99120, Note_on_c, 1, 66, 0
1, 99120, Note_on_c, 1, 62, 0
1, 99120, Note_on_c, 1, 50, 96
1, 99120, Note_on_c, 1, 62, 96
1, 99174, Note_on_c, 0, 78, 0
1, 99174, Note_on_c, 0, 74, 0
1, 99192, Note_on_c, 1, 62, 0
1, 99192, Note_on_c, 1, 50, 0
1, 99300, Note_on_c, 0, 78, 96
1, 99300, Note_on_c, 0, 81, 96
1, 99318, Note_on_c, 0, 81, 0
1, 99318, Note_on_c, 0, 78, 0
1, 99360, Tempo, 652174
1, 99360, Note_on_c, 0, 74, 96
1, 99360, Note_on_c, 0, 78, 96
1, 99360, Note_on_c, 1, 38, 96
1, 99360, Note_on_c, 1, 50, 96
1, 99600, Tempo, 845070
1, 99600, Note_on_c, 0, 78, 0
1, 99600, Note_on_c, 0, 74, 0
1, 99600, Note_on_c, 1, 50, 0
1, 99600, Note_on_c, 1, 38, 0
1, 99610, End_track
0, 0, End_of_file