0, 0, Header, 0, 1, 240
1, 0, Start_track
1, 0, Tempo, 400000
1, 0, Note_on_c, 0, 67, 80
1, 0, Note_on_c, 1, 59, 80
1, 0, Note_on_c, 1, 55, 80
1, 48, Note_on_c, 1, 55, 0
1, 48, Note_on_c, 1, 59, 0
1, 120, Note_on_c, 1, 59, 80
1, 120, Note_on_c, 1, 55, 80
1, 168, Note_on_c, 1, 55, 0
1, 168, Note_on_c, 1, 59, 0
1, 180, Note_on_c, 0, 67, 0
1, 180, Note_on_c, 0, 71, 80
1, 210, Note_on_c, 0, 71, 0
1, 210, Note_on_c, 0, 69, 80
1, 240, Note_on_c, 0, 69, 0
1, 240, Note_on_c, 0, 67, 80
1, 240, Note_on_c, 1, 59, 80
1, 240, Note_on_c, 1, 55, 80
1, 288, Note_on_c, 1, 55, 0
1, 288, Note_on_c, 1, 59, 0
1, 324, Note_on_c, 0, 67, 0
1, 360, Note_on_c, 1, 59, 80
1, 360, Note_on_c, 1, 55, 80
1, 408, Note_on_c, 1, 55, 0
1, 408, Note_on_c, 1, 59, 0
1, 480, Note_on_c, 1, 59, 80
1, 480, Note_on_c, 1, 55, 80
1, 528, Note_on_c, 1, 55, 0
1, 528, Note_on_c, 1, 59, 0
1, 600, Note_on_c, 0, 62, 80
1, 600, Note_on_c, 1, 59, 80
1, 600, Note_on_c, 1, 55, 80
1, 648, Note_on_c, 0, 62, 0
1, 648, Note_on_c, 1, 55, 0
1, 648, Note_on_c, 1, 59, 0
1, 720, Note_on_c, 0, 67, 80
1, 720, Note_on_c, 1, 59, 80
1, 720, Note_on_c, 1, 55, 80
1, 768, Note_on_c, 0, 67, 0
1, 768, Note_on_c, 1, 55, 0
1, 768, Note_on_c, 1, 59, 0
1, 840, Note_on_c, 0, 71, 80
1, 840, Note_on_c, 1, 59, 80
1, 840, Note_on_c, 1, 55, 80
1, 888, Note_on_c, 0, 71, 0
1, 888, Note_on_c, 1, 55, 0
1, 888, Note_on_c, 1, 59, 0
1, 960, Note_on_c, 0, 71, 80
1, 960, Note_on_c, 1, 55, 80
1, 960, Note_on_c, 1, 60, 80
1, 1020, Note_on_c, 0, 71, 0
1, 1020, Note_on_c, 0, 69, 80
1, 1080, Note_on_c, 0, 69, 0
1, 1080, Note_on_c, 0, 67, 80
1, 1140, Note_on_c, 0, 67, 0
1, 1140, Note_on_c, 0, 69, 80
1, 1200, Note_on_c, 0, 69, 0
1, 1200, Note_on_c, 0, 67, 80
1, 1200, Note_on_c, 1, 60, 0
1, 1200, Note_on_c, 1, 55, 0
1, 1200, Note_on_c, 1, 55, 80
1, 1200, Note_on_c, 1, 59, 80
1, 1320, Note_on_c, 0, 67, 0
1, 1320, Note_on_c, 0, 74, 80
1, 1320, Note_on_c, 1, 59, 0
1, 1320, Note_on_c, 1, 55, 0
1, 1368, Note_on_c, 0, 74, 0
1, 1440, Note_on_c, 0, 74, 80
1, 1440, Note_on_c, 1, 67, 80
1, 1440, Note_on_c, 1, 65, 80
1, 1488, Note_on_c, 0, 74, 0
1, 1488, Note_on_c, 1, 65, 0
1, 1488, Note_on_c, 1, 67, 0
1, 1560, Note_on_c, 0, 74, 80
1, 1560, Note_on_c, 1, 67, 80
1, 1560, Note_on_c, 1, 65, 80
1, 1608, Note_on_c, 0, 74, 0
1, 1608, Note_on_c, 1, 65, 0
1, 1608, Note_on_c, 1, 67, 0
1, 1680, Note_on_c, 0, 74, 80
1, 1680, Note_on_c, 1, 67, 80
1, 1680, Note_on_c, 1, 65, 80
1, 1728, Note_on_c, 0, 74, 0
1, 1728, Note_on_c, 1, 65, 0
1, 1728, Note_on_c, 1, 67, 0
1, 1800, Note_on_c, 0, 74, 80
1, 1800, Note_on_c, 1, 67, 80
1, 1800, Note_on_c, 1, 65, 80
1, 1872, Note_on_c, 0, 74, 0
1, 1872, Note_on_c, 1, 65, 0
1, 1872, Note_on_c, 1, 67, 0
1, 1920, Note_on_c, 0, 74, 80
1, 1920, Note_on_c, 1, 64, 80
1, 1920, Note_on_c, 1, 67, 80
1, 2100, Note_on_c, 0, 74, 0
1, 2100, Note_on_c, 0, 76, 80
1, 2130, Note_on_c, 0, 76, 0
1, 2130, Note_on_c, 0, 74, 80
1, 2160, Note_on_c, 0, 74, 0
1, 2160, Note_on_c, 0, 72, 80
1, 2232, Note_on_c, 0, 72, 0
1, 2280, Note_on_c, 0, 71, 80
1, 2280, Note_on_c, 1, 67, 0
1, 2280, Note_on_c, 1, 64, 0
1, 2280, Note_on_c, 1, 62, 80
1, 2280, Note_on_c, 1, 65, 80
1, 2352, Note_on_c, 0, 71, 0
1, 2400, Note_on_c, 0, 69, 80
1, 2400, Note_on_c, 1, 65, 0
1, 2400, Note_on_c, 1, 62, 0
1, 2400, Note_on_c, 1, 60, 80
1, 2400, Note_on_c, 1, 64, 80
1, 2472, Note_on_c, 0, 69, 0
1, 2520, Note_on_c, 0, 81, 96
1, 2640, Note_on_c, 1, 64, 0
1, 2640, Note_on_c, 1, 60, 0
1, 2640, Note_on_c, 1, 61, 80
1, 2640, Note_on_c, 1, 64, 80
1, 2760, Note_on_c, 0, 81, 0
1, 2760, Note_on_c, 0, 79, 80
1, 2832, Note_on_c, 0, 79, 0
1, 2880, Note_on_c, 0, 79, 80
1, 2880, Note_on_c, 1, 64, 0
1, 2880, Note_on_c, 1, 61, 0
1, 2880, Note_on_c, 1, 62, 80
1, 2940, Note_on_c, 0, 79, 0
1, 2940, Note_on_c, 0, 78, 80
1, 3000, Note_on_c, 0, 78, 0
1, 3000, Note_on_c, 0, 76, 80
1, 3060, Note_on_c, 0, 76, 0
1, 3060, Note_on_c, 0, 74, 80
1, 3120, Note_on_c, 0, 74, 0
1, 3120, Note_on_c, 0, 74, 80
1, 3120, Note_on_c, 1, 62, 0
1, 3192, Note_on_c, 0, 74, 0
1, 3240, Note_on_c, 0, 74, 80
1, 3312, Note_on_c, 0, 74, 0
1, 3360, Note_on_c, 0, 74, 80
1, 3420, Note_on_c, 0, 74, 0
1, 3420, Note_on_c, 0, 76, 80
1, 3480, Note_on_c, 0, 76, 0
1, 3480, Note_on_c, 0, 72, 80
1, 3540, Note_on_c, 0, 72, 0
1, 3540, Note_on_c, 0, 74, 80
1, 3600, Note_on_c, 0, 74, 0
1, 3600, Note_on_c, 0, 71, 80
1, 3660, Note_on_c, 0, 71, 0
1, 3660, Note_on_c, 0, 72, 80
1, 3720, Note_on_c, 0, 72, 0
1, 3720, Note_on_c, 0, 69, 80
1, 3780, Note_on_c, 0, 69, 0
1, 3780, Note_on_c, 0, 71, 80
1, 3840, Note_on_c, 0, 71, 0
1, 3840, Note_on_c, 0, 67, 80
1, 3840, Note_on_c, 1, 55, 80
1, 3840, Note_on_c, 1, 59, 80
1, 3888, Note_on_c, 1, 59, 0
1, 3888, Note_on_c, 1, 55, 0
1, 3960, Note_on_c, 1, 55, 80
1, 3960, Note_on_c, 1, 59, 80
1, 4008, Note_on_c, 1, 59, 0
1, 4008, Note_on_c, 1, 55, 0
1, 4020, Note_on_c, 0, 67, 0
1, 4020, Note_on_c, 0, 71, 80
1, 4050, Note_on_c, 0, 71, 0
1, 4050, Note_on_c, 0, 69, 80
1, 4080, Note_on_c, 0, 69, 0
1, 4080, Note_on_c, 0, 67, 80
1, 4080, Note_on_c, 1, 55, 80
1, 4080, Note_on_c, 1, 59, 80
1, 4128, Note_on_c, 1, 59, 0
1, 4128, Note_on_c, 1, 55, 0
1, 4164, Note_on_c, 0, 67, 0
1, 4200, Note_on_c, 1, 55, 80
1, 4200, Note_on_c, 1, 59, 80
1, 4248, Note_on_c, 1, 59, 0
1, 4248, Note_on_c, 1, 55, 0
1, 4320, Note_on_c, 1, 55, 80
1, 4320, Note_on_c, 1, 59, 80
1, 4368, Note_on_c, 1, 59, 0
1, 4368, Note_on_c, 1, 55, 0
1, 4440, Note_on_c, 0, 62, 80
1, 4440, Note_on_c, 1, 55, 80
1, 4440, Note_on_c, 1, 59, 80
1, 4488, Note_on_c, 0, 62, 0
1, 4488, Note_on_c, 1, 59, 0
1, 4488, Note_on_c, 1, 55, 0
1, 4560, Note_on_c, 0, 67, 80
1, 4560, Note_on_c, 1, 55, 80
1, 4560, Note_on_c, 1, 59, 80
1, 4608, Note_on_c, 0, 67, 0
1, 4608, Note_on_c, 1, 59, 0
1, 4608, Note_on_c, 1, 55, 0
1, 4680, Note_on_c, 0, 71, 80
1, 4680, Note_on_c, 1, 55, 80
1, 4680, Note_on_c, 1, 59, 80
1, 4728, Note_on_c, 0, 71, 0
1, 4728, Note_on_c, 1, 59, 0
1, 4728, Note_on_c, 1, 55, 0
1, 4800, Note_on_c, 0, 71, 80
1, 4800, Note_on_c, 1, 60, 80
1, 4800, Note_on_c, 1, 55, 80
1, 4860, Note_on_c, 0, 71, 0
1, 4860, Note_on_c, 0, 69, 80
1, 4920, Note_on_c, 0, 69, 0
1, 4920, Note_on_c, 0, 67, 80
1, 4980, Note_on_c, 0, 67, 0
1, 4980, Note_on_c, 0, 69, 80
1, 5040, Note_on_c, 0, 69, 0
1, 5040, Note_on_c, 0, 67, 80
1, 5040, Note_on_c, 1, 55, 0
1, 5040, Note_on_c, 1, 60, 0
1, 5040, Note_on_c, 1, 59, 80
1, 5040, Note_on_c, 1, 55, 80
1, 5160, Note_on_c, 0, 67, 0
1, 5160, Note_on_c, 0, 76, 80
1, 5160, Note_on_c, 1, 55, 0
1, 5160, Note_on_c, 1, 59, 0
1, 5208, Note_on_c, 0, 76, 0
1, 5280, Note_on_c, 0, 76, 80
1, 5280, Note_on_c, 1, 67, 80
1, 5280, Note_on_c, 1, 71, 80
1, 5328, Note_on_c, 0, 76, 0
1, 5328, Note_on_c, 1, 71, 0
1, 5328, Note_on_c, 1, 67, 0
1, 5400, Note_on_c, 0, 76, 80
1, 5400, Note_on_c, 1, 67, 80
1, 5400, Note_on_c, 1, 71, 80
1, 5448, Note_on_c, 0, 76, 0
1, 5448, Note_on_c, 1, 71, 0
1, 5448, Note_on_c, 1, 67, 0
1, 5520, Note_on_c, 0, 76, 80
1, 5520, Note_on_c, 1, 67, 80
1, 5520, Note_on_c, 1, 71, 80
1, 5568, Note_on_c, 0, 76, 0
1, 5568, Note_on_c, 1, 71, 0
1, 5568, Note_on_c, 1, 67, 0
1, 5640, Note_on_c, 0, 76, 80
1, 5640, Note_on_c, 1, 67, 80
1, 5640, Note_on_c, 1, 71, 80
1, 5712, Note_on_c, 0, 76, 0
1, 5712, Note_on_c, 1, 71, 0
1, 5712, Note_on_c, 1, 67, 0
1, 5760, Note_on_c, 0, 76, 80
1, 5760, Note_on_c, 1, 67, 80
1, 5760, Note_on_c, 1, 71, 80
1, 5808, Note_on_c, 1, 71, 0
1, 5808, Note_on_c, 1, 67, 0
1, 5880, Note_on_c, 1, 67, 80
1, 5880, Note_on_c, 1, 71, 80
1, 5928, Note_on_c, 1, 71, 0
1, 5928, Note_on_c, 1, 67, 0
1, 5940, Note_on_c, 0, 76, 0
1, 5940, Note_on_c, 0, 79, 80
1, 5970, Note_on_c, 0, 79, 0
1, 5970, Note_on_c, 0, 81, 80
1, 6000, Note_on_c, 0, 81, 0
1, 6000, Note_on_c, 0, 83, 80
1, 6000, Note_on_c, 1, 67, 80
1, 6000, Note_on_c, 1, 71, 80
1, 6048, Note_on_c, 1, 71, 0
1, 6048, Note_on_c, 1, 67, 0
1, 6120, Note_on_c, 1, 71, 80
1, 6120, Note_on_c, 1, 67, 80
1, 6168, Note_on_c, 1, 67, 0
1, 6168, Note_on_c, 1, 71, 0
1, 6180, Note_on_c, 0, 83, 0
1, 6180, Note_on_c, 0, 79, 80
1, 6210, Note_on_c, 0, 79, 0
1, 6210, Note_on_c, 0, 76, 80
1, 6240, Note_on_c, 0, 76, 0
1, 6240, Note_on_c, 0, 74, 80
1, 6240, Note_on_c, 1, 57, 80
1, 6240, Note_on_c, 1, 66, 80
1, 6288, Note_on_c, 1, 66, 0
1, 6288, Note_on_c, 1, 57, 0
1, 6360, Note_on_c, 1, 57, 80
1, 6360, Note_on_c, 1, 66, 80
1, 6408, Note_on_c, 1, 66, 0
1, 6408, Note_on_c, 1, 57, 0
1, 6480, Note_on_c, 0, 74, 0
1, 6480, Note_on_c, 0, 73, 80
1, 6480, Note_on_c, 1, 57, 80
1, 6480, Note_on_c, 1, 64, 80
1, 6510, Note_on_c, 0, 73, 0
1, 6510, Note_on_c, 0, 74, 80
1, 6528, Note_on_c, 1, 64, 0
1, 6528, Note_on_c, 1, 57, 0
1, 6540, Note_on_c, 0, 74, 0
1, 6540, Note_on_c, 0, 73, 80
1, 6570, Note_on_c, 0, 73, 0
1, 6570, Note_on_c, 0, 74, 80
1, 6600, Note_on_c, 0, 74, 0
1, 6600, Note_on_c, 0, 73, 80
1, 6600, Note_on_c, 1, 57, 80
1, 6600, Note_on_c, 1, 64, 80
1, 6620, Note_on_c, 0, 73, 0
1, 6620, Note_on_c, 0, 74, 80
1, 6640, Note_on_c, 0, 74, 0
1, 6640, Note_on_c, 0, 73, 80
1, 6648, Note_on_c, 1, 64, 0
1, 6648, Note_on_c, 1, 57, 0
1, 6660, Note_on_c, 0, 73, 0
1, 6660, Note_on_c, 0, 71, 80
1, 6690, Note_on_c, 0, 71, 0
1, 6690, Note_on_c, 0, 73, 80
1, 6720, Note_on_c, 0, 73, 0
1, 6720, Note_on_c, 0, 74, 80
1, 6720, Note_on_c, 1, 62, 80
1, 6720, Note_on_c, 1, 66, 80
1, 6768, Note_on_c, 1, 66, 0
1, 6768, Note_on_c, 1, 62, 0
1, 6780, Note_on_c, 0, 74, 0
1, 6780, Note_on_c, 0, 76, 80
1, 6840, Note_on_c, 0, 76, 0
1, 6840, Note_on_c, 0, 78, 80
1, 6840, Note_on_c, 1, 62, 80
1, 6840, Note_on_c, 1, 66, 80
1, 6888, Note_on_c, 1, 66, 0
1, 6888, Note_on_c, 1, 62, 0
1, 6900, Note_on_c, 0, 78, 0
1, 6900, Note_on_c, 0, 79, 80
1, 6960, Note_on_c, 0, 79, 0
1, 6960, Note_on_c, 0, 81, 80
1, 6960, Note_on_c, 1, 62, 80
1, 6960, Note_on_c, 1, 66, 80
1, 7008, Note_on_c, 1, 66, 0
1, 7008, Note_on_c, 1, 62, 0
1, 7020, Note_on_c, 0, 81, 0
1, 7020, Note_on_c, 0, 78, 80
1, 7080, Note_on_c, 0, 78, 0
1, 7080, Note_on_c, 0, 76, 80
1, 7080, Note_on_c, 1, 62, 80
1, 7080, Note_on_c, 1, 66, 80
1, 7128, Note_on_c, 1, 66, 0
1, 7128, Note_on_c, 1, 62, 0
1, 7140, Note_on_c, 0, 76, 0
1, 7140, Note_on_c, 0, 74, 80
1, 7200, Note_on_c, 0, 74, 0
1, 7200, Note_on_c, 0, 73, 80
1, 7200, Note_on_c, 1, 62, 80
1, 7200, Note_on_c, 1, 67, 80
1, 7248, Note_on_c, 1, 67, 0
1, 7248, Note_on_c, 1, 62, 0
1, 7260, Note_on_c, 0, 73, 0
1, 7260, Note_on_c, 0, 74, 80
1, 7320, Note_on_c, 0, 74, 0
1, 7320, Note_on_c, 0, 76, 80
1, 7320, Note_on_c, 1, 62, 80
1, 7320, Note_on_c, 1, 67, 80
1, 7368, Note_on_c, 1, 67, 0
1, 7368, Note_on_c, 1, 62, 0
1, 7380, Note_on_c, 0, 76, 0
1, 7380, Note_on_c, 0, 78, 80
1, 7440, Note_on_c, 0, 78, 0
1, 7440, Note_on_c, 0, 79, 80
1, 7440, Note_on_c, 1, 62, 80
1, 7440, Note_on_c, 1, 67, 80
1, 7488, Note_on_c, 1, 67, 0
1, 7488, Note_on_c, 1, 62, 0
1, 7500, Note_on_c, 0, 79, 0
1, 7500, Note_on_c, 0, 76, 80
1, 7560, Note_on_c, 0, 76, 0
1, 7560, Note_on_c, 0, 74, 80
1, 7560, Note_on_c, 1, 62, 80
1, 7560, Note_on_c, 1, 67, 80
1, 7608, Note_on_c, 1, 67, 0
1, 7608, Note_on_c, 1, 62, 0
1, 7620, Note_on_c, 0, 74, 0
1, 7620, Note_on_c, 0, 73, 80
1, 7680, Note_on_c, 0, 73, 0
1, 7680, Note_on_c, 0, 74, 56
1, 7680, Note_on_c, 1, 66, 56
1, 7680, Note_on_c, 1, 62, 56
1, 7728, Note_on_c, 1, 62, 0
1, 7728, Note_on_c, 1, 66, 0
1, 7740, Note_on_c, 0, 74, 0
1, 7740, Note_on_c, 0, 76, 58
1, 7800, Note_on_c, 0, 76, 0
1, 7800, Note_on_c, 0, 78, 59
1, 7800, Note_on_c, 1, 66, 59
1, 7800, Note_on_c, 1, 62, 59
1, 7848, Note_on_c, 1, 62, 0
1, 7848, Note_on_c, 1, 66, 0
1, 7860, Note_on_c, 0, 78, 0
1, 7860, Note_on_c, 0, 79, 61
1, 7920, Note_on_c, 0, 79, 0
1, 7920, Note_on_c, 0, 81, 62
1, 7920, Note_on_c, 1, 66, 62
1, 7920, Note_on_c, 1, 62, 62
1, 7968, Note_on_c, 1, 62, 0
1, 7968, Note_on_c, 1, 66, 0
1, 7980, Note_on_c, 0, 81, 0
1, 7980, Note_on_c, 0, 78, 64
1, 8040, Note_on_c, 0, 78, 0
1, 8040, Note_on_c, 0, 76, 65
1, 8040, Note_on_c, 1, 66, 65
1, 8040, Note_on_c, 1, 62, 65
1, 8088, Note_on_c, 1, 62, 0
1, 8088, Note_on_c, 1, 66, 0
1, 8100, Note_on_c, 0, 76, 0
1, 8100, Note_on_c, 0, 74, 67
1, 8160, Note_on_c, 0, 74, 0
1, 8160, Note_on_c, 0, 73, 68
1, 8160, Note_on_c, 1, 67, 68
1, 8160, Note_on_c, 1, 62, 68
1, 8208, Note_on_c, 1, 62, 0
1, 8208, Note_on_c, 1, 67, 0
1, 8220, Note_on_c, 0, 73, 0
1, 8220, Note_on_c, 0, 74, 70
1, 8280, Note_on_c, 0, 74, 0
1, 8280, Note_on_c, 0, 76, 71
1, 8280, Note_on_c, 1, 67, 71
1, 8280, Note_on_c, 1, 62, 71
1, 8328, Note_on_c, 1, 62, 0
1, 8328, Note_on_c, 1, 67, 0
1, 8340, Note_on_c, 0, 76, 0
1, 8340, Note_on_c, 0, 78, 73
1, 8400, Note_on_c, 0, 78, 0
1, 8400, Note_on_c, 0, 79, 74
1, 8400, Note_on_c, 1, 67, 74
1, 8400, Note_on_c, 1, 62, 74
1, 8448, Note_on_c, 1, 62, 0
1, 8448, Note_on_c, 1, 67, 0
1, 8460, Note_on_c, 0, 79, 0
1, 8460, Note_on_c, 0, 76, 76
1, 8520, Note_on_c, 0, 76, 0
1, 8520, Note_on_c, 0, 74, 77
1, 8520, Note_on_c, 1, 67, 77
1, 8520, Note_on_c, 1, 62, 77
1, 8568, Note_on_c, 1, 62, 0
1, 8568, Note_on_c, 1, 67, 0
1, 8580, Note_on_c, 0, 74, 0
1, 8580, Note_on_c, 0, 73, 79
1, 8640, Note_on_c, 0, 73, 0
1, 8640, Note_on_c, 0, 74, 80
1, 8640, Note_on_c, 1, 62, 80
1, 8640, Note_on_c, 1, 66, 80
1, 8808, Note_on_c, 0, 74, 0
1, 8850, Note_on_c, 0, 85, 80
1, 8874, Note_on_c, 0, 85, 0
1, 8880, Note_on_c, 0, 86, 96
1, 8880, Note_on_c, 1, 66, 0
1, 8880, Note_on_c, 1, 62, 0
1, 9048, Note_on_c, 0, 86, 0
1, 9120, Note_on_c, 1, 38, 96
1, 9120, Note_on_c, 1, 50, 96
1, 9288, Note_on_c, 1, 50, 0
1, 9288, Note_on_c, 1, 38, 0
1, 9600, Note_on_c, 0, 67, 80
1, 9600, Note_on_c, 1, 55, 80
1, 9600, Note_on_c, 1, 59, 80
1, 9648, Note_on_c, 1, 59, 0
1, 9648, Note_on_c, 1, 55, 0
1, 9720, Note_on_c, 1, 55, 80
1, 9720, Note_on_c, 1, 59, 80
1, 9768, Note_on_c, 1, 59, 0
1, 9768, Note_on_c, 1, 55, 0
1, 9780, Note_on_c, 0, 67, 0
1, 9780, Note_on_c, 0, 71, 80
1, 9810, Note_on_c, 0, 71, 0
1, 9810, Note_on_c, 0, 69, 80
1, 9840, Note_on_c, 0, 69, 0
1, 9840, Note_on_c, 0, 67, 80
1, 9840, Note_on_c, 1, 55, 80
1, 9840, Note_on_c, 1, 59, 80
1, 9888, Note_on_c, 1, 59, 0
1, 9888, Note_on_c, 1, 55, 0
1, 9924, Note_on_c, 0, 67, 0
1, 9960, Note_on_c, 1, 55, 80
1, 9960, Note_on_c, 1, 59, 80
1, 10008, Note_on_c, 1, 59, 0
1, 10008, Note_on_c, 1, 55, 0
1, 10080, Note_on_c, 1, 55, 80
1, 10080, Note_on_c, 1, 59, 80
1, 10128, Note_on_c, 1, 59, 0
1, 10128, Note_on_c, 1, 55, 0
1, 10200, Note_on_c, 0, 62, 80
1, 10200, Note_on_c, 1, 55, 80
1, 10200, Note_on_c, 1, 59, 80
1, 10248, Note_on_c, 0, 62, 0
1, 10248, Note_on_c, 1, 59, 0
1, 10248, Note_on_c, 1, 55, 0
1, 10320, Note_on_c, 0, 67, 80
1, 10320, Note_on_c, 1, 55, 80
1, 10320, Note_on_c, 1, 59, 80
1, 10368, Note_on_c, 0, 67, 0
1, 10368, Note_on_c, 1, 59, 0
1, 10368, Note_on_c, 1, 55, 0
1, 10440, Note_on_c, 0, 71, 80
1, 10440, Note_on_c, 1, 55, 80
1, 10440, Note_on_c, 1, 59, 80
1, 10488, Note_on_c, 0, 71, 0
1, 10488, Note_on_c, 1, 59, 0
1, 10488, Note_on_c, 1, 55, 0
1, 10560, Note_on_c, 0, 71, 80
1, 10560, Note_on_c, 1, 60, 80
1, 10560, Note_on_c, 1, 55, 80
1, 10620, Note_on_c, 0, 71, 0
1, 10620, Note_on_c, 0, 69, 80
1, 10680, Note_on_c, 0, 69, 0
1, 10680, Note_on_c, 0, 67, 80
1, 10740, Note_on_c, 0, 67, 0
1, 10740, Note_on_c, 0, 69, 80
1, 10800, Note_on_c, 0, 69, 0
1, 10800, Note_on_c, 0, 67, 80
1, 10800, Note_on_c, 1, 55, 0
1, 10800, Note_on_c, 1, 60, 0
1, 10800, Note_on_c, 1, 59, 80
1, 10800, Note_on_c, 1, 55, 80
1, 10920, Note_on_c, 0, 67, 0
1, 10920, Note_on_c, 0, 74, 80
1, 10920, Note_on_c, 1, 55, 0
1, 10920, Note_on_c, 1, 59, 0
1, 10968, Note_on_c, 0, 74, 0
1, 11040, Note_on_c, 0, 74, 80
1, 11040, Note_on_c, 1, 65, 80
1, 11040, Note_on_c, 1, 67, 80
1, 11088, Note_on_c, 0, 74, 0
1, 11088, Note_on_c, 1, 67, 0
1, 11088, Note_on_c, 1, 65, 0
1, 11160, Note_on_c, 0, 74, 80
1, 11160, Note_on_c, 1, 65, 80
1, 11160, Note_on_c, 1, 67, 80
1, 11208, Note_on_c, 0, 74, 0
1, 11208, Note_on_c, 1, 67, 0
1, 11208, Note_on_c, 1, 65, 0
1, 11280, Note_on_c, 0, 74, 80
1, 11280, Note_on_c, 1, 65, 80
1, 11280, Note_on_c, 1, 67, 80
1, 11328, Note_on_c, 0, 74, 0
1, 11328, Note_on_c, 1, 67, 0
1, 11328, Note_on_c, 1, 65, 0
1, 11400, Note_on_c, 0, 74, 80
1, 11400, Note_on_c, 1, 65, 80
1, 11400, Note_on_c, 1, 67, 80
1, 11472, Note_on_c, 0, 74, 0
1, 11472, Note_on_c, 1, 67, 0
1, 11472, Note_on_c, 1, 65, 0
1, 11520, Note_on_c, 0, 74, 80
1, 11520, Note_on_c, 1, 67, 80
1, 11520, Note_on_c, 1, 64, 80
1, 11700, Note_on_c, 0, 74, 0
1, 11700, Note_on_c, 0, 76, 80
1, 11730, Note_on_c, 0, 76, 0
1, 11730, Note_on_c, 0, 74, 80
1, 11760, Note_on_c, 0, 74, 0
1, 11760, Note_on_c, 0, 72, 80
1, 11832, Note_on_c, 0, 72, 0
1, 11880, Note_on_c, 0, 71, 80
1, 11880, Note_on_c, 1, 64, 0
1, 11880, Note_on_c, 1, 67, 0
1, 11880, Note_on_c, 1, 65, 80
1, 11880, Note_on_c, 1, 62, 80
1, 11952, Note_on_c, 0, 71, 0
1, 12000, Note_on_c, 0, 69, 80
1, 12000, Note_on_c, 1, 62, 0
1, 12000, Note_on_c, 1, 65, 0
1, 12000, Note_on_c, 1, 64, 80
1, 12000, Note_on_c, 1, 60, 80
1, 12072, Note_on_c, 0, 69, 0
1, 12120, Note_on_c, 0, 81, 96
1, 12240, Note_on_c, 1, 60, 0
1, 12240, Note_on_c, 1, 64, 0
1, 12240, Note_on_c, 1, 64, 80
1, 12240, Note_on_c, 1, 61, 80
1, 12360, Note_on_c, 0, 81, 0
1, 12360, Note_on_c, 0, 79, 80
1, 12432, Note_on_c, 0, 79, 0
1, 12480, Note_on_c, 0, 79, 80
1, 12480, Note_on_c, 1, 61, 0
1, 12480, Note_on_c, 1, 64, 0
1, 12480, Note_on_c, 1, 62, 80
1, 12540, Note_on_c, 0, 79, 0
1, 12540, Note_on_c, 0, 78, 80
1, 12600, Note_on_c, 0, 78, 0
1, 12600, Note_on_c, 0, 76, 80
1, 12660, Note_on_c, 0, 76, 0
1, 12660, Note_on_c, 0, 74, 80
1, 12720, Note_on_c, 0, 74, 0
1, 12720, Note_on_c, 0, 74, 80
1, 12720, Note_on_c, 1, 62, 0
1, 12792, Note_on_c, 0, 74, 0
1, 12840, Note_on_c, 0, 74, 80
1, 12912, Note_on_c, 0, 74, 0
1, 12960, Note_on_c, 0, 74, 80
1, 13020, Note_on_c, 0, 74, 0
1, 13020, Note_on_c, 0, 76, 80
1, 13080, Note_on_c, 0, 76, 0
1, 13080, Note_on_c, 0, 72, 80
1, 13140, Note_on_c, 0, 72, 0
1, 13140, Note_on_c, 0, 74, 80
1, 13200, Note_on_c, 0, 74, 0
1, 13200, Note_on_c, 0, 71, 80
1, 13260, Note_on_c, 0, 71, 0
1, 13260, Note_on_c, 0, 72, 80
1, 13320, Note_on_c, 0, 72, 0
1, 13320, Note_on_c, 0, 69, 80
1, 13380, Note_on_c, 0, 69, 0
1, 13380, Note_on_c, 0, 71, 80
1, 13440, Note_on_c, 0, 71, 0
1, 13440, Note_on_c, 0, 67, 80
1, 13440, Note_on_c, 1, 59, 80
1, 13440, Note_on_c, 1, 55, 80
1, 13488, Note_on_c, 1, 55, 0
1, 13488, Note_on_c, 1, 59, 0
1, 13560, Note_on_c, 1, 59, 80
1, 13560, Note_on_c, 1, 55, 80
1, 13608, Note_on_c, 1, 55, 0
1, 13608, Note_on_c, 1, 59, 0
1, 13620, Note_on_c, 0, 67, 0
1, 13620, Note_on_c, 0, 71, 80
1, 13650, Note_on_c, 0, 71, 0
1, 13650, Note_on_c, 0, 69, 80
1, 13680, Note_on_c, 0, 69, 0
1, 13680, Note_on_c, 0, 67, 80
1, 13680, Note_on_c, 1, 59, 80
1, 13680, Note_on_c, 1, 55, 80
1, 13728, Note_on_c, 1, 55, 0
1, 13728, Note_on_c, 1, 59, 0
1, 13764, Note_on_c, 0, 67, 0
1, 13800, Note_on_c, 1, 59, 80
1, 13800, Note_on_c, 1, 55, 80
1, 13848, Note_on_c, 1, 55, 0
1, 13848, Note_on_c, 1, 59, 0
1, 13920, Note_on_c, 1, 59, 80
1, 13920, Note_on_c, 1, 55, 80
1, 13968, Note_on_c, 1, 55, 0
1, 13968, Note_on_c, 1, 59, 0
1, 14040, Note_on_c, 0, 62, 80
1, 14040, Note_on_c, 1, 59, 80
1, 14040, Note_on_c, 1, 55, 80
1, 14088, Note_on_c, 0, 62, 0
1, 14088, Note_on_c, 1, 55, 0
1, 14088, Note_on_c, 1, 59, 0
1, 14160, Note_on_c, 0, 67, 80
1, 14160, Note_on_c, 1, 59, 80
1, 14160, Note_on_c, 1, 55, 80
1, 14208, Note_on_c, 0, 67, 0
1, 14208, Note_on_c, 1, 55, 0
1, 14208, Note_on_c, 1, 59, 0
1, 14280, Note_on_c, 0, 71, 80
1, 14280, Note_on_c, 1, 59, 80
1, 14280, Note_on_c, 1, 55, 80
1, 14328, Note_on_c, 0, 71, 0
1, 14328, Note_on_c, 1, 55, 0
1, 14328, Note_on_c, 1, 59, 0
1, 14400, Note_on_c, 0, 71, 80
1, 14400, Note_on_c, 1, 55, 80
1, 14400, Note_on_c, 1, 60, 80
1, 14460, Note_on_c, 0, 71, 0
1, 14460, Note_on_c, 0, 69, 80
1, 14520, Note_on_c, 0, 69, 0
1, 14520, Note_on_c, 0, 67, 80
1, 14580, Note_on_c, 0, 67, 0
1, 14580, Note_on_c, 0, 69, 80
1, 14640, Note_on_c, 0, 69, 0
1, 14640, Note_on_c, 0, 67, 80
1, 14640, Note_on_c, 1, 60, 0
1, 14640, Note_on_c, 1, 55, 0
1, 14640, Note_on_c, 1, 55, 80
1, 14640, Note_on_c, 1, 59, 80
1, 14760, Note_on_c, 0, 67, 0
1, 14760, Note_on_c, 0, 76, 80
1, 14760, Note_on_c, 1, 59, 0
1, 14760, Note_on_c, 1, 55, 0
1, 14808, Note_on_c, 0, 76, 0
1, 14880, Note_on_c, 0, 76, 80
1, 14880, Note_on_c, 1, 71, 80
1, 14880, Note_on_c, 1, 67, 80
1, 14928, Note_on_c, 0, 76, 0
1, 14928, Note_on_c, 1, 67, 0
1, 14928, Note_on_c, 1, 71, 0
1, 15000, Note_on_c, 0, 76, 80
1, 15000, Note_on_c, 1, 71, 80
1, 15000, Note_on_c, 1, 67, 80
1, 15048, Note_on_c, 0, 76, 0
1, 15048, Note_on_c, 1, 67, 0
1, 15048, Note_on_c, 1, 71, 0
1, 15120, Note_on_c, 0, 76, 80
1, 15120, Note_on_c, 1, 71, 80
1, 15120, Note_on_c, 1, 67, 80
1, 15168, Note_on_c, 0, 76, 0
1, 15168, Note_on_c, 1, 67, 0
1, 15168, Note_on_c, 1, 71, 0
1, 15240, Note_on_c, 0, 76, 80
1, 15240, Note_on_c, 1, 71, 80
1, 15240, Note_on_c, 1, 67, 80
1, 15312, Note_on_c, 0, 76, 0
1, 15312, Note_on_c, 1, 67, 0
1, 15312, Note_on_c, 1, 71, 0
1, 15360, Note_on_c, 0, 76, 80
1, 15360, Note_on_c, 1, 71, 80
1, 15360, Note_on_c, 1, 67, 80
1, 15408, Note_on_c, 1, 67, 0
1, 15408, Note_on_c, 1, 71, 0
1, 15480, Note_on_c, 1, 71, 80
1, 15480, Note_on_c, 1, 67, 80
1, 15528, Note_on_c, 1, 67, 0
1, 15528, Note_on_c, 1, 71, 0
1, 15540, Note_on_c, 0, 76, 0
1, 15540, Note_on_c, 0, 79, 80
1, 15570, Note_on_c, 0, 79, 0
1, 15570, Note_on_c, 0, 81, 80
1, 15600, Note_on_c, 0, 81, 0
1, 15600, Note_on_c, 0, 83, 80
1, 15600, Note_on_c, 1, 71, 80
1, 15600, Note_on_c, 1, 67, 80
1, 15648, Note_on_c, 1, 67, 0
1, 15648, Note_on_c, 1, 71, 0
1, 15720, Note_on_c, 1, 67, 80
1, 15720, Note_on_c, 1, 71, 80
1, 15768, Note_on_c, 1, 71, 0
1, 15768, Note_on_c, 1, 67, 0
1, 15780, Note_on_c, 0, 83, 0
1, 15780, Note_on_c, 0, 79, 80
1, 15810, Note_on_c, 0, 79, 0
1, 15810, Note_on_c, 0, 76, 80
1, 15840, Note_on_c, 0, 76, 0
1, 15840, Note_on_c, 0, 74, 80
1, 15840, Note_on_c, 1, 66, 80
1, 15840, Note_on_c, 1, 57, 80
1, 15888, Note_on_c, 1, 57, 0
1, 15888, Note_on_c, 1, 66, 0
1, 15960, Note_on_c, 1, 66, 80
1, 15960, Note_on_c, 1, 57, 80
1, 16008, Note_on_c, 1, 57, 0
1, 16008, Note_on_c, 1, 66, 0
1, 16080, Note_on_c, 0, 74, 0
1, 16080, Note_on_c, 0, 73, 80
1, 16080, Note_on_c, 1, 64, 80
1, 16080, Note_on_c, 1, 57, 80
1, 16110, Note_on_c, 0, 73, 0
1, 16110, Note_on_c, 0, 74, 80
1, 16128, Note_on_c, 1, 57, 0
1, 16128, Note_on_c, 1, 64, 0
1, 16140, Note_on_c, 0, 74, 0
1, 16140, Note_on_c, 0, 73, 80
1, 16170, Note_on_c, 0, 73, 0
1, 16170, Note_on_c, 0, 74, 80
1, 16200, Note_on_c, 0, 74, 0
1, 16200, Note_on_c, 0, 73, 80
1, 16200, Note_on_c, 1, 64, 80
1, 16200, Note_on_c, 1, 57, 80
1, 16220, Note_on_c, 0, 73, 0
1, 16220, Note_on_c, 0, 74, 80
1, 16240, Note_on_c, 0, 74, 0
1, 16240, Note_on_c, 0, 73, 80
1, 16248, Note_on_c, 1, 57, 0
1, 16248, Note_on_c, 1, 64, 0
1, 16260, Note_on_c, 0, 73, 0
1, 16260, Note_on_c, 0, 71, 80
1, 16290, Note_on_c, 0, 71, 0
1, 16290, Note_on_c, 0, 73, 80
1, 16320, Note_on_c, 0, 73, 0
1, 16320, Note_on_c, 0, 74, 80
1, 16320, Note_on_c, 1, 66, 80
1, 16320, Note_on_c, 1, 62, 80
1, 16368, Note_on_c, 1, 62, 0
1, 16368, Note_on_c, 1, 66, 0
1, 16380, Note_on_c, 0, 74, 0
1, 16380, Note_on_c, 0, 76, 80
1, 16440, Note_on_c, 0, 76, 0
1, 16440, Note_on_c, 0, 78, 80
1, 16440, Note_on_c, 1, 66, 80
1, 16440, Note_on_c, 1, 62, 80
1, 16488, Note_on_c, 1, 62, 0
1, 16488, Note_on_c, 1, 66, 0
1, 16500, Note_on_c, 0, 78, 0
1, 16500, Note_on_c, 0, 79, 80
1, 16560, Note_on_c, 0, 79, 0
1, 16560, Note_on_c, 0, 81, 80
1, 16560, Note_on_c, 1, 66, 80
1, 16560, Note_on_c, 1, 62, 80
1, 16608, Note_on_c, 1, 62, 0
1, 16608, Note_on_c, 1, 66, 0
1, 16620, Note_on_c, 0, 81, 0
1, 16620, Note_on_c, 0, 78, 80
1, 16680, Note_on_c, 0, 78, 0
1, 16680, Note_on_c, 0, 76, 80
1, 16680, Note_on_c, 1, 66, 80
1, 16680, Note_on_c, 1, 62, 80
1, 16728, Note_on_c, 1, 62, 0
1, 16728, Note_on_c, 1, 66, 0
1, 16740, Note_on_c, 0, 76, 0
1, 16740, Note_on_c, 0, 74, 80
1, 16800, Note_on_c, 0, 74, 0
1, 16800, Note_on_c, 0, 73, 80
1, 16800, Note_on_c, 1, 67, 80
1, 16800, Note_on_c, 1, 62, 80
1, 16848, Note_on_c, 1, 62, 0
1, 16848, Note_on_c, 1, 67, 0
1, 16860, Note_on_c, 0, 73, 0
1, 16860, Note_on_c, 0, 74, 80
1, 16920, Note_on_c, 0, 74, 0
1, 16920, Note_on_c, 0, 76, 80
1, 16920, Note_on_c, 1, 67, 80
1, 16920, Note_on_c, 1, 62, 80
1, 16968, Note_on_c, 1, 62, 0
1, 16968, Note_on_c, 1, 67, 0
1, 16980, Note_on_c, 0, 76, 0
1, 16980, Note_on_c, 0, 78, 80
1, 17040, Note_on_c, 0, 78, 0
1, 17040, Note_on_c, 0, 79, 80
1, 17040, Note_on_c, 1, 67, 80
1, 17040, Note_on_c, 1, 62, 80
1, 17088, Note_on_c, 1, 62, 0
1, 17088, Note_on_c, 1, 67, 0
1, 17100, Note_on_c, 0, 79, 0
1, 17100, Note_on_c, 0, 76, 80
1, 17160, Note_on_c, 0, 76, 0
1, 17160, Note_on_c, 0, 74, 80
1, 17160, Note_on_c, 1, 67, 80
1, 17160, Note_on_c, 1, 62, 80
1, 17208, Note_on_c, 1, 62, 0
1, 17208, Note_on_c, 1, 67, 0
1, 17220, Note_on_c, 0, 74, 0
1, 17220, Note_on_c, 0, 73, 80
1, 17280, Note_on_c, 0, 73, 0
1, 17280, Note_on_c, 0, 74, 56
1, 17280, Note_on_c, 1, 62, 56
1, 17280, Note_on_c, 1, 66, 56
1, 17328, Note_on_c, 1, 66, 0
1, 17328, Note_on_c, 1, 62, 0
1, 17340, Note_on_c, 0, 74, 0
1, 17340, Note_on_c, 0, 76, 58
1, 17400, Note_on_c, 0, 76, 0
1, 17400, Note_on_c, 0, 78, 59
1, 17400, Note_on_c, 1, 62, 59
1, 17400, Note_on_c, 1, 66, 59
1, 17448, Note_on_c, 1, 66, 0
1, 17448, Note_on_c, 1, 62, 0
1, 17460, Note_on_c, 0, 78, 0
1, 17460, Note_on_c, 0, 79, 61
1, 17520, Note_on_c, 0, 79, 0
1, 17520, Note_on_c, 0, 81, 62
1, 17520, Note_on_c, 1, 62, 62
1, 17520, Note_on_c, 1, 66, 62
1, 17568, Note_on_c, 1, 66, 0
1, 17568, Note_on_c, 1, 62, 0
1, 17580, Note_on_c, 0, 81, 0
1, 17580, Note_on_c, 0, 78, 64
1, 17640, Note_on_c, 0, 78, 0
1, 17640, Note_on_c, 0, 76, 65
1, 17640, Note_on_c, 1, 62, 65
1, 17640, Note_on_c, 1, 66, 65
1, 17688, Note_on_c, 1, 66, 0
1, 17688, Note_on_c, 1, 62, 0
1, 17700, Note_on_c, 0, 76, 0
1, 17700, Note_on_c, 0, 74, 67
1, 17760, Note_on_c, 0, 74, 0
1, 17760, Note_on_c, 0, 73, 68
1, 17760, Note_on_c, 1, 62, 68
1, 17760, Note_on_c, 1, 67, 68
1, 17808, Note_on_c, 1, 67, 0
1, 17808, Note_on_c, 1, 62, 0
1, 17820, Note_on_c, 0, 73, 0
1, 17820, Note_on_c, 0, 74, 70
1, 17880, Note_on_c, 0, 74, 0
1, 17880, Note_on_c, 0, 76, 71
1, 17880, Note_on_c, 1, 62, 71
1, 17880, Note_on_c, 1, 67, 71
1, 17928, Note_on_c, 1, 67, 0
1, 17928, Note_on_c, 1, 62, 0
1, 17940, Note_on_c, 0, 76, 0
1, 17940, Note_on_c, 0, 78, 73
1, 18000, Note_on_c, 0, 78, 0
1, 18000, Note_on_c, 0, 79, 74
1, 18000, Note_on_c, 1, 62, 74
1, 18000, Note_on_c, 1, 67, 74
1, 18048, Note_on_c, 1, 67, 0
1, 18048, Note_on_c, 1, 62, 0
1, 18060, Note_on_c, 0, 79, 0
1, 18060, Note_on_c, 0, 76, 76
1, 18120, Note_on_c, 0, 76, 0
1, 18120, Note_on_c, 0, 74, 77
1, 18120, Note_on_c, 1, 62, 77
1, 18120, Note_on_c, 1, 67, 77
1, 18168, Note_on_c, 1, 67, 0
1, 18168, Note_on_c, 1, 62, 0
1, 18180, Note_on_c, 0, 74, 0
1, 18180, Note_on_c, 0, 73, 79
1, 18240, Note_on_c, 0, 73, 0
1, 18240, Note_on_c, 0, 74, 80
1, 18240, Note_on_c, 1, 66, 80
1, 18240, Note_on_c, 1, 62, 80
1, 18408, Note_on_c, 0, 74, 0
1, 18450, Note_on_c, 0, 85, 80
1, 18474, Note_on_c, 0, 85, 0
1, 18480, Note_on_c, 0, 86, 96
1, 18480, Note_on_c, 1, 62, 0
1, 18480, Note_on_c, 1, 66, 0
1, 18648, Note_on_c, 0, 86, 0
1, 18720, Note_on_c, 1, 50, 96
1, 18720, Note_on_c, 1, 38, 96
1, 18888, Note_on_c, 1, 38, 0
1, 18888, Note_on_c, 1, 50, 0
1, 19200, Note_on_c, 0, 77, 56
1, 19200, Note_on_c, 1, 62, 56
1, 19200, Note_on_c, 1, 58, 56
1, 19380, Note_on_c, 0, 77, 0
1, 19380, Note_on_c, 0, 74, 56
1, 19410, Note_on_c, 0, 74, 0
1, 19410, Note_on_c, 0, 75, 56
1, 19440, Note_on_c, 0, 75, 0
1, 19440, Note_on_c, 0, 77, 56
1, 19440, Note_on_c, 1, 58, 0
1, 19440, Note_on_c, 1, 62, 0
1, 19560, Note_on_c, 0, 77, 0
1, 19560, Note_on_c, 1, 62, 56
1, 19560, Note_on_c, 1, 58, 56
1, 19680, Note_on_c, 1, 58, 0
1, 19680, Note_on_c, 1, 62, 0
1, 19680, Note_on_c, 1, 60, 56
1, 19680, Note_on_c, 1, 63, 56
1, 19800, Note_on_c, 0, 69, 56
1, 19848, Note_on_c, 0, 69, 0
1, 19920, Note_on_c, 0, 69, 56
1, 19920, Note_on_c, 1, 63, 0
1, 19920, Note_on_c, 1, 60, 0
1, 19968, Note_on_c, 0, 69, 0
1, 20040, Note_on_c, 0, 69, 56
1, 20040, Note_on_c, 1, 60, 56
1, 20040, Note_on_c, 1, 63, 56
1, 20088, Note_on_c, 0, 69, 0
1, 20160, Note_on_c, 0, 70, 56
1, 20160, Note_on_c, 1, 63, 0
1, 20160, Note_on_c, 1, 60, 0
1, 20160, Note_on_c, 1, 62, 56
1, 20160, Note_on_c, 1, 65, 56
1, 20340, Note_on_c, 0, 70, 0
1, 20340, Note_on_c, 0, 70, 56
1, 20370, Note_on_c, 0, 70, 0
1, 20370, Note_on_c, 0, 72, 56
1, 20400, Note_on_c, 0, 72, 0
1, 20400, Note_on_c, 0, 74, 56
1, 20400, Note_on_c, 1, 65, 0
1, 20400, Note_on_c, 1, 62, 0
1, 20520, Note_on_c, 0, 74, 0
1, 20520, Note_on_c, 1, 62, 56
1, 20520, Note_on_c, 1, 58, 56
1, 20640, Note_on_c, 1, 58, 0
1, 20640, Note_on_c, 1, 62, 0
1, 20640, Note_on_c, 1, 57, 56
1, 20640, Note_on_c, 1, 60, 56
1, 20760, Note_on_c, 0, 66, 56
1, 20808, Note_on_c, 0, 66, 0
1, 20880, Note_on_c, 0, 66, 56
1, 20880, Note_on_c, 1, 60, 0
1, 20880, Note_on_c, 1, 57, 0
1, 20928, Note_on_c, 0, 66, 0
1, 21000, Note_on_c, 0, 66, 56
1, 21000, Note_on_c, 1, 57, 56
1, 21000, Note_on_c, 1, 60, 56
1, 21048, Note_on_c, 0, 66, 0
1, 21120, Note_on_c, 0, 67, 56
1, 21120, Note_on_c, 1, 60, 0
1, 21120, Note_on_c, 1, 57, 0
1, 21120, Note_on_c, 1, 62, 56
1, 21120, Note_on_c, 1, 58, 56
1, 21300, Note_on_c, 0, 67, 0
1, 21300, Note_on_c, 0, 67, 56
1, 21330, Note_on_c, 0, 67, 0
1, 21330, Note_on_c, 0, 69, 56
1, 21360, Note_on_c, 0, 69, 0
1, 21360, Note_on_c, 0, 70, 56
1, 21360, Note_on_c, 1, 58, 0
1, 21360, Note_on_c, 1, 62, 0
1, 21480, Note_on_c, 0, 70, 0
1, 21480, Note_on_c, 1, 55, 56
1, 21480, Note_on_c, 1, 58, 56
1, 21600, Note_on_c, 1, 58, 0
1, 21600, Note_on_c, 1, 55, 0
1, 21600, Note_on_c, 1, 51, 56
1, 21600, Note_on_c, 1, 55, 56
1, 21720, Note_on_c, 0, 61, 56
1, 21768, Note_on_c, 0, 61, 0
1, 21840, Note_on_c, 0, 61, 56
1, 21840, Note_on_c, 1, 55, 0
1, 21840, Note_on_c, 1, 51, 0
1, 21888, Note_on_c, 0, 61, 0
1, 21960, Note_on_c, 0, 61, 56
1, 21960, Note_on_c, 1, 51, 56
1, 21960, Note_on_c, 1, 55, 56
1, 22008, Note_on_c, 0, 61, 0
1, 22080, Note_on_c, 0, 62, 80
1, 22080, Note_on_c, 1, 55, 0
1, 22080, Note_on_c, 1, 51, 0
1, 22080, Note_on_c, 1, 50, 80
1, 22080, Note_on_c, 1, 54, 80
1, 22260, Note_on_c, 0, 62, 0
1, 22260, Note_on_c, 0, 54, 80
1, 22260, Note_on_c, 1, 54, 0
1, 22260, Note_on_c, 1, 50, 0
1, 22260, Note_on_c, 1, 42, 80
1, 22290, Note_on_c, 0, 54, 0
1, 22290, Note_on_c, 0, 55, 80
1, 22290, Note_on_c, 1, 42, 0
1, 22290, Note_on_c, 1, 43, 80
1, 22320, Note_on_c, 0, 55, 0
1, 22320, Note_on_c, 0, 57, 80
1, 22320, Note_on_c, 1, 43, 0
1, 22320, Note_on_c, 1, 45, 80
1, 22368, Note_on_c, 0, 57, 0
1, 22368, Note_on_c, 1, 45, 0
1, 22440, Note_on_c, 0, 54, 80
1, 22440, Note_on_c, 1, 42, 80
1, 22488, Note_on_c, 0, 54, 0
1, 22488, Note_on_c, 1, 42, 0
1, 22560, Note_on_c, 0, 50, 80
1, 22560, Note_on_c, 1, 38, 80
1, 22800, Note_on_c, 0, 50, 0
1, 22800, Note_on_c, 1, 38, 0
1, 23040, Note_on_c, 0, 67, 80
1, 23040, Note_on_c, 1, 59, 80
1, 23040, Note_on_c, 1, 55, 80
1, 23088, Note_on_c, 1, 55, 0
1, 23088, Note_on_c, 1, 59, 0
1, 23160, Note_on_c, 1, 59, 80
1, 23160, Note_on_c, 1, 55, 80
1, 23208, Note_on_c, 1, 55, 0
1, 23208, Note_on_c, 1, 59, 0
1, 23220, Note_on_c, 0, 67, 0
1, 23220, Note_on_c, 0, 71, 80
1, 23250, Note_on_c, 0, 71, 0
1, 23250, Note_on_c, 0, 69, 80
1, 23280, Note_on_c, 0, 69, 0
1, 23280, Note_on_c, 0, 67, 80
1, 23280, Note_on_c, 1, 59, 80
1, 23280, Note_on_c, 1, 55, 80
1, 23328, Note_on_c, 1, 55, 0
1, 23328, Note_on_c, 1, 59, 0
1, 23400, Note_on_c, 0, 67, 0
1, 23400, Note_on_c, 1, 59, 80
1, 23400, Note_on_c, 1, 55, 80
1, 23448, Note_on_c, 1, 55, 0
1, 23448, Note_on_c, 1, 59, 0
1, 23520, Note_on_c, 1, 59, 80
1, 23520, Note_on_c, 1, 55, 80
1, 23568, Note_on_c, 1, 55, 0
1, 23568, Note_on_c, 1, 59, 0
1, 23640, Note_on_c, 0, 62, 80
1, 23640, Note_on_c, 1, 59, 80
1, 23640, Note_on_c, 1, 55, 80
1, 23688, Note_on_c, 0, 62, 0
1, 23688, Note_on_c, 1, 55, 0
1, 23688, Note_on_c, 1, 59, 0
1, 23760, Note_on_c, 0, 67, 80
1, 23760, Note_on_c, 1, 59, 80
1, 23760, Note_on_c, 1, 55, 80
1, 23808, Note_on_c, 0, 67, 0
1, 23808, Note_on_c, 1, 55, 0
1, 23808, Note_on_c, 1, 59, 0
1, 23880, Note_on_c, 0, 71, 80
1, 23880, Note_on_c, 1, 59, 80
1, 23880, Note_on_c, 1, 55, 80
1, 23928, Note_on_c, 0, 71, 0
1, 23928, Note_on_c, 1, 55, 0
1, 23928, Note_on_c, 1, 59, 0
1, 24000, Note_on_c, 0, 71, 80
1, 24000, Note_on_c, 1, 55, 80
1, 24000, Note_on_c, 1, 60, 80
1, 24060, Note_on_c, 0, 71, 0
1, 24060, Note_on_c, 0, 69, 80
1, 24120, Note_on_c, 0, 69, 0
1, 24120, Note_on_c, 0, 67, 80
1, 24180, Note_on_c, 0, 67, 0
1, 24180, Note_on_c, 0, 69, 80
1, 24240, Note_on_c, 0, 69, 0
1, 24240, Note_on_c, 0, 67, 80
1, 24240, Note_on_c, 1, 60, 0
1, 24240, Note_on_c, 1, 55, 0
1, 24240, Note_on_c, 1, 55, 80
1, 24240, Note_on_c, 1, 59, 80
1, 24360, Note_on_c, 0, 67, 0
1, 24360, Note_on_c, 0, 76, 80
1, 24360, Note_on_c, 1, 59, 0
1, 24360, Note_on_c, 1, 55, 0
1, 24408, Note_on_c, 0, 76, 0
1, 24480, Note_on_c, 0, 76, 80
1, 24480, Note_on_c, 1, 74, 80
1, 24480, Note_on_c, 1, 68, 80
1, 24528, Note_on_c, 0, 76, 0
1, 24528, Note_on_c, 1, 68, 0
1, 24528, Note_on_c, 1, 74, 0
1, 24600, Note_on_c, 0, 76, 80
1, 24600, Note_on_c, 1, 74, 80
1, 24600, Note_on_c, 1, 68, 80
1, 24648, Note_on_c, 0, 76, 0
1, 24648, Note_on_c, 1, 68, 0
1, 24648, Note_on_c, 1, 74, 0
1, 24720, Note_on_c, 0, 76, 80
1, 24720, Note_on_c, 1, 74, 80
1, 24720, Note_on_c, 1, 68, 80
1, 24768, Note_on_c, 0, 76, 0
1, 24768, Note_on_c, 1, 68, 0
1, 24768, Note_on_c, 1, 74, 0
1, 24840, Note_on_c, 0, 76, 80
1, 24840, Note_on_c, 1, 74, 80
1, 24840, Note_on_c, 1, 68, 80
1, 24888, Note_on_c, 0, 76, 0
1, 24888, Note_on_c, 1, 68, 0
1, 24888, Note_on_c, 1, 74, 0
1, 24960, Note_on_c, 0, 76, 80
1, 24960, Note_on_c, 1, 69, 80
1, 24960, Note_on_c, 1, 72, 80
1, 25140, Note_on_c, 0, 76, 0
1, 25140, Note_on_c, 0, 81, 80
1, 25170, Note_on_c, 0, 81, 0
1, 25170, Note_on_c, 0, 83, 80
1, 25200, Note_on_c, 0, 83, 0
1, 25200, Note_on_c, 0, 84, 80
1, 25200, Note_on_c, 1, 72, 0
1, 25200, Note_on_c, 1, 69, 0
1, 25320, Note_on_c, 0, 84, 0
1, 25320, Note_on_c, 0, 74, 80
1, 25368, Note_on_c, 0, 74, 0
1, 25440, Note_on_c, 0, 74, 80
1, 25440, Note_on_c, 1, 66, 80
1, 25440, Note_on_c, 1, 72, 80
1, 25488, Note_on_c, 0, 74, 0
1, 25488, Note_on_c, 1, 72, 0
1, 25488, Note_on_c, 1, 66, 0
1, 25560, Note_on_c, 0, 74, 80
1, 25560, Note_on_c, 1, 66, 80
1, 25560, Note_on_c, 1, 72, 80
1, 25608, Note_on_c, 0, 74, 0
1, 25608, Note_on_c, 1, 72, 0
1, 25608, Note_on_c, 1, 66, 0
1, 25680, Note_on_c, 0, 74, 80
1, 25680, Note_on_c, 1, 66, 80
1, 25680, Note_on_c, 1, 72, 80
1, 25728, Note_on_c, 0, 74, 0
1, 25728, Note_on_c, 1, 72, 0
1, 25728, Note_on_c, 1, 66, 0
1, 25800, Note_on_c, 0, 74, 80
1, 25800, Note_on_c, 1, 66, 80
1, 25800, Note_on_c, 1, 72, 80
1, 25848, Note_on_c, 0, 74, 0
1, 25848, Note_on_c, 1, 72, 0
1, 25848, Note_on_c, 1, 66, 0
1, 25920, Note_on_c, 0, 74, 80
1, 25920, Note_on_c, 1, 67, 80
1, 25920, Note_on_c, 1, 71, 80
1, 26100, Note_on_c, 0, 74, 0
1, 26100, Note_on_c, 0, 79, 80
1, 26130, Note_on_c, 0, 79, 0
1, 26130, Note_on_c, 0, 81, 80
1, 26160, Note_on_c, 0, 81, 0
1, 26160, Note_on_c, 0, 83, 80
1, 26160, Note_on_c, 1, 71, 0
1, 26160, Note_on_c, 1, 67, 0
1, 26280, Note_on_c, 0, 83, 0
1, 27300, Note_on_c, 0, 83, 56
1, 27330, Note_on_c, 0, 83, 0
1, 27330, Note_on_c, 0, 81, 56
1, 27360, Note_on_c, 0, 81, 0
1, 27360, Note_on_c, 0, 79, 56
1, 27432, Note_on_c, 0, 79, 0
1, 27540, Note_on_c, 0, 79, 56
1, 27570, Note_on_c, 0, 79, 0
1, 27570, Note_on_c, 0, 78, 56
1, 27600, Note_on_c, 0, 78, 0
1, 27600, Note_on_c, 0, 76, 56
1, 27720, Note_on_c, 0, 76, 0
1, 27780, Note_on_c, 0, 76, 56
1, 27810, Note_on_c, 0, 76, 0
1, 27810, Note_on_c, 0, 74, 56
1, 27840, Note_on_c, 0, 74, 0
1, 27840, Note_on_c, 0, 72, 56
1, 27840, Note_on_c, 1, 64, 56
1, 27840, Note_on_c, 1, 67, 56
1, 28080, Note_on_c, 0, 72, 0
1, 28080, Note_on_c, 1, 67, 0
1, 28080, Note_on_c, 1, 64, 0
1, 28260, Note_on_c, 0, 75, 80
1, 28260, Note_on_c, 1, 67, 80
1, 28290, Note_on_c, 0, 75, 0
1, 28290, Note_on_c, 0, 74, 80
1, 28290, Note_on_c, 1, 67, 0
1, 28290, Note_on_c, 1, 65, 80
1, 28320, Note_on_c, 0, 74, 0
1, 28320, Note_on_c, 0, 72, 80
1, 28320, Note_on_c, 1, 65, 0
1, 28320, Note_on_c, 1, 63, 80
1, 28368, Note_on_c, 0, 72, 0
1, 28440, Note_on_c, 0, 72, 80
1, 28488, Note_on_c, 0, 72, 0
1, 28560, Note_on_c, 0, 72, 80
1, 28560, Note_on_c, 1, 63, 0
1, 28608, Note_on_c, 0, 72, 0
1, 28680, Note_on_c, 0, 72, 80
1, 28728, Note_on_c, 0, 72, 0
1, 28740, Note_on_c, 1, 69, 80
1, 28770, Note_on_c, 1, 69, 0
1, 28770, Note_on_c, 1, 67, 80
1, 28800, Note_on_c, 0, 72, 80
1, 28800, Note_on_c, 1, 67, 0
1, 28800, Note_on_c, 1, 62, 80
1, 28800, Note_on_c, 1, 66, 80
1, 28980, Note_on_c, 0, 72, 0
1, 28980, Note_on_c, 0, 74, 80
1, 29010, Note_on_c, 0, 74, 0
1, 29010, Note_on_c, 0, 72, 80
1, 29040, Note_on_c, 0, 72, 0
1, 29040, Note_on_c, 0, 71, 80
1, 29040, Note_on_c, 1, 66, 0
1, 29040, Note_on_c, 1, 62, 0
1, 29040, Note_on_c, 1, 64, 80
1, 29040, Note_on_c, 1, 67, 80
1, 29088, Note_on_c, 0, 71, 0
1, 29160, Note_on_c, 0, 71, 80
1, 29208, Note_on_c, 0, 71, 0
1, 29280, Note_on_c, 0, 69, 80
1, 29280, Note_on_c, 1, 67, 0
1, 29280, Note_on_c, 1, 64, 0
1, 29280, Note_on_c, 1, 60, 80
1, 29280, Note_on_c, 1, 64, 80
1, 29400, Note_on_c, 0, 69, 0
1, 29400, Note_on_c, 0, 76, 80
1, 29448, Note_on_c, 0, 76, 0
1, 29520, Note_on_c, 0, 74, 80
1, 29520, Note_on_c, 1, 64, 0
1, 29520, Note_on_c, 1, 60, 0
1, 29520, Note_on_c, 1, 62, 80
1, 29568, Note_on_c, 0, 74, 0
1, 29640, Note_on_c, 0, 66, 80
1, 29688, Note_on_c, 0, 66, 0
1, 29760, Note_on_c, 0, 67, 80
1, 29760, Note_on_c, 1, 62, 0
1, 29760, Note_on_c, 1, 55, 80
1, 29760, Note_on_c, 1, 59, 80
1, 29808, Note_on_c, 1, 59, 0
1, 29808, Note_on_c, 1, 55, 0
1, 29820, Note_on_c, 0, 67, 0
1, 29820, Note_on_c, 0, 69, 80
1, 29880, Note_on_c, 0, 69, 0
1, 29880, Note_on_c, 0, 71, 80
1, 29880, Note_on_c, 1, 55, 80
1, 29880, Note_on_c, 1, 59, 80
1, 29928, Note_on_c, 1, 59, 0
1, 29928, Note_on_c, 1, 55, 0
1, 29940, Note_on_c, 0, 71, 0
1, 29940, Note_on_c, 0, 72, 80
1, 30000, Note_on_c, 0, 72, 0
1, 30000, Note_on_c, 0, 74, 80
1, 30000, Note_on_c, 1, 55, 80
1, 30000, Note_on_c, 1, 59, 80
1, 30048, Note_on_c, 1, 59, 0
1, 30048, Note_on_c, 1, 55, 0
1, 30060, Note_on_c, 0, 74, 0
1, 30060, Note_on_c, 0, 71, 80
1, 30120, Note_on_c, 0, 71, 0
1, 30120, Note_on_c, 0, 69, 80
1, 30120, Note_on_c, 1, 55, 80
1, 30120, Note_on_c, 1, 59, 80
1, 30168, Note_on_c, 1, 59, 0
1, 30168, Note_on_c, 1, 55, 0
1, 30180, Note_on_c, 0, 69, 0
1, 30180, Note_on_c, 0, 67, 80
1, 30240, Note_on_c, 0, 67, 0
1, 30240, Note_on_c, 0, 66, 80
1, 30240, Note_on_c, 1, 55, 80
1, 30240, Note_on_c, 1, 60, 80
1, 30288, Note_on_c, 1, 60, 0
1, 30288, Note_on_c, 1, 55, 0
1, 30300, Note_on_c, 0, 66, 0
1, 30300, Note_on_c, 0, 67, 80
1, 30360, Note_on_c, 0, 67, 0
1, 30360, Note_on_c, 0, 69, 80
1, 30360, Note_on_c, 1, 55, 80
1, 30360, Note_on_c, 1, 60, 80
1, 30408, Note_on_c, 1, 60, 0
1, 30408, Note_on_c, 1, 55, 0
1, 30420, Note_on_c, 0, 69, 0
1, 30420, Note_on_c, 0, 71, 80
1, 30480, Note_on_c, 0, 71, 0
1, 30480, Note_on_c, 0, 72, 80
1, 30480, Note_on_c, 1, 55, 80
1, 30480, Note_on_c, 1, 60, 80
1, 30528, Note_on_c, 1, 60, 0
1, 30528, Note_on_c, 1, 55, 0
1, 30540, Note_on_c, 0, 72, 0
1, 30540, Note_on_c, 0, 69, 80
1, 30600, Note_on_c, 0, 69, 0
1, 30600, Note_on_c, 0, 67, 80
1, 30600, Note_on_c, 1, 55, 80
1, 30600, Note_on_c, 1, 60, 80
1, 30648, Note_on_c, 1, 60, 0
1, 30648, Note_on_c, 1, 55, 0
1, 30660, Note_on_c, 0, 67, 0
1, 30660, Note_on_c, 0, 66, 80
1, 30720, Note_on_c, 0, 66, 0
1, 30720, Note_on_c, 0, 67, 64
1, 30720, Note_on_c, 1, 59, 64
1, 30720, Note_on_c, 1, 55, 64
1, 30768, Note_on_c, 1, 55, 0
1, 30768, Note_on_c, 1, 59, 0
1, 30780, Note_on_c, 0, 67, 0
1, 30780, Note_on_c, 0, 69, 65
1, 30840, Note_on_c, 0, 69, 0
1, 30840, Note_on_c, 0, 71, 66
1, 30840, Note_on_c, 1, 59, 66
1, 30840, Note_on_c, 1, 55, 66
1, 30888, Note_on_c, 1, 55, 0
1, 30888, Note_on_c, 1, 59, 0
1, 30900, Note_on_c, 0, 71, 0
1, 30900, Note_on_c, 0, 72, 67
1, 30960, Note_on_c, 0, 72, 0
1, 30960, Note_on_c, 0, 74, 68
1, 30960, Note_on_c, 1, 59, 68
1, 30960, Note_on_c, 1, 55, 68
1, 31008, Note_on_c, 1, 55, 0
1, 31008, Note_on_c, 1, 59, 0
1, 31020, Note_on_c, 0, 74, 0
1, 31020, Note_on_c, 0, 71, 69
1, 31080, Note_on_c, 0, 71, 0
1, 31080, Note_on_c, 0, 69, 70
1, 31080, Note_on_c, 1, 59, 70
1, 31080, Note_on_c, 1, 55, 70
1, 31128, Note_on_c, 1, 55, 0
1, 31128, Note_on_c, 1, 59, 0
1, 31140, Note_on_c, 0, 69, 0
1, 31140, Note_on_c, 0, 67, 71
1, 31200, Note_on_c, 0, 67, 0
1, 31200, Note_on_c, 0, 66, 72
1, 31200, Note_on_c, 1, 60, 72
1, 31200, Note_on_c, 1, 55, 72
1, 31248, Note_on_c, 1, 55, 0
1, 31248, Note_on_c, 1, 60, 0
1, 31260, Note_on_c, 0, 66, 0
1, 31260, Note_on_c, 0, 67, 73
1, 31320, Note_on_c, 0, 67, 0
1, 31320, Note_on_c, 0, 69, 74
1, 31320, Note_on_c, 1, 60, 74
1, 31320, Note_on_c, 1, 55, 74
1, 31368, Note_on_c, 1, 55, 0
1, 31368, Note_on_c, 1, 60, 0
1, 31380, Note_on_c, 0, 69, 0
1, 31380, Note_on_c, 0, 71, 75
1, 31440, Note_on_c, 0, 71, 0
1, 31440, Note_on_c, 0, 72, 76
1, 31440, Note_on_c, 1, 60, 76
1, 31440, Note_on_c, 1, 55, 76
1, 31488, Note_on_c, 1, 55, 0
1, 31488, Note_on_c, 1, 60, 0
1, 31500, Note_on_c, 0, 72, 0
1, 31500, Note_on_c, 0, 69, 77
1, 31560, Note_on_c, 0, 69, 0
1, 31560, Note_on_c, 0, 67, 78
1, 31560, Note_on_c, 1, 60, 78
1, 31560, Note_on_c, 1, 55, 78
1, 31608, Note_on_c, 1, 55, 0
1, 31608, Note_on_c, 1, 60, 0
1, 31620, Note_on_c, 0, 67, 0
1, 31620, Note_on_c, 0, 66, 79
1, 31680, Note_on_c, 0, 66, 0
1, 31680, Note_on_c, 0, 67, 80
1, 31680, Note_on_c, 1, 55, 80
1, 31680, Note_on_c, 1, 59, 80
1, 31827, Note_on_c, 0, 67, 0
1, 31890, Note_on_c, 0, 78, 80
1, 31920, Note_on_c, 0, 78, 0
1, 31920, Note_on_c, 0, 79, 96
1, 31920, Note_on_c, 1, 59, 0
1, 31920, Note_on_c, 1, 55, 0
1, 32088, Note_on_c, 0, 79, 0
1, 32160, Note_on_c, 1, 31, 96
1, 32160, Note_on_c, 1, 43, 96
1, 32328, Note_on_c, 1, 43, 0
1, 32328, Note_on_c, 1, 31, 0
1, 32640, Note_on_c, 0, 77, 56
1, 32640, Note_on_c, 1, 58, 56
1, 32640, Note_on_c, 1, 62, 56
1, 32820, Note_on_c, 0, 77, 0
1, 32820, Note_on_c, 0, 74, 56
1, 32850, Note_on_c, 0, 74, 0
1, 32850, Note_on_c, 0, 75, 56
1, 32880, Note_on_c, 0, 75, 0
1, 32880, Note_on_c, 0, 77, 56
1, 32880, Note_on_c, 1, 62, 0
1, 32880, Note_on_c, 1, 58, 0
1, 33000, Note_on_c, 0, 77, 0
1, 33000, Note_on_c, 1, 58, 56
1, 33000, Note_on_c, 1, 62, 56
1, 33120, Note_on_c, 1, 62, 0
1, 33120, Note_on_c, 1, 58, 0
1, 33120, Note_on_c, 1, 63, 56
1, 33120, Note_on_c, 1, 60, 56
1, 33240, Note_on_c, 0, 69, 56
1, 33288, Note_on_c, 0, 69, 0
1, 33360, Note_on_c, 0, 69, 56
1, 33360, Note_on_c, 1, 60, 0
1, 33360, Note_on_c, 1, 63, 0
1, 33408, Note_on_c, 0, 69, 0
1, 33480, Note_on_c, 0, 69, 56
1, 33480, Note_on_c, 1, 63, 56
1, 33480, Note_on_c, 1, 60, 56
1, 33528, Note_on_c, 0, 69, 0
1, 33600, Note_on_c, 0, 70, 56
1, 33600, Note_on_c, 1, 60, 0
1, 33600, Note_on_c, 1, 63, 0
1, 33600, Note_on_c, 1, 65, 56
1, 33600, Note_on_c, 1, 62, 56
1, 33780, Note_on_c, 0, 70, 0
1, 33780, Note_on_c, 0, 70, 56
1, 33810, Note_on_c, 0, 70, 0
1, 33810, Note_on_c, 0, 72, 56
1, 33840, Note_on_c, 0, 72, 0
1, 33840, Note_on_c, 0, 74, 56
1, 33840, Note_on_c, 1, 62, 0
1, 33840, Note_on_c, 1, 65, 0
1, 33960, Note_on_c, 0, 74, 0
1, 33960, Note_on_c, 1, 58, 56
1, 33960, Note_on_c, 1, 62, 56
1, 34080, Note_on_c, 1, 62, 0
1, 34080, Note_on_c, 1, 58, 0
1, 34080, Note_on_c, 1, 60, 56
1, 34080, Note_on_c, 1, 57, 56
1, 34200, Note_on_c, 0, 66, 56
1, 34248, Note_on_c, 0, 66, 0
1, 34320, Note_on_c, 0, 66, 56
1, 34320, Note_on_c, 1, 57, 0
1, 34320, Note_on_c, 1, 60, 0
1, 34368, Note_on_c, 0, 66, 0
1, 34440, Note_on_c, 0, 66, 56
1, 34440, Note_on_c, 1, 60, 56
1, 34440, Note_on_c, 1, 57, 56
1, 34488, Note_on_c, 0, 66, 0
1, 34560, Note_on_c, 0, 67, 56
1, 34560, Note_on_c, 1, 57, 0
1, 34560, Note_on_c, 1, 60, 0
1, 34560, Note_on_c, 1, 58, 56
1, 34560, Note_on_c, 1, 62, 56
1, 34740, Note_on_c, 0, 67, 0
1, 34740, Note_on_c, 0, 67, 56
1, 34770, Note_on_c, 0, 67, 0
1, 34770, Note_on_c, 0, 69, 56
1, 34800, Note_on_c, 0, 69, 0
1, 34800, Note_on_c, 0, 70, 56
1, 34800, Note_on_c, 1, 62, 0
1, 34800, Note_on_c, 1, 58, 0
1, 34920, Note_on_c, 0, 70, 0
1, 34920, Note_on_c, 1, 58, 56
1, 34920, Note_on_c, 1, 55, 56
1, 35040, Note_on_c, 1, 55, 0
1, 35040, Note_on_c, 1, 58, 0
1, 35040, Note_on_c, 1, 55, 56
1, 35040, Note_on_c, 1, 51, 56
1, 35160, Note_on_c, 0, 61, 56
1, 35208, Note_on_c, 0, 61, 0
1, 35280, Note_on_c, 0, 61, 56
1, 35280, Note_on_c, 1, 51, 0
1, 35280, Note_on_c, 1, 55, 0
1, 35328, Note_on_c, 0, 61, 0
1, 35400, Note_on_c, 0, 61, 56
1, 35400, Note_on_c, 1, 55, 56
1, 35400, Note_on_c, 1, 51, 56
1, 35448, Note_on_c, 0, 61, 0
1, 35520, Note_on_c, 0, 62, 80
1, 35520, Note_on_c, 1, 51, 0
1, 35520, Note_on_c, 1, 55, 0
1, 35520, Note_on_c, 1, 54, 80
1, 35520, Note_on_c, 1, 50, 80
1, 35700, Note_on_c, 0, 62, 0
1, 35700, Note_on_c, 0, 54, 80
1, 35700, Note_on_c, 1, 50, 0
1, 35700, Note_on_c, 1, 54, 0
1, 35700, Note_on_c, 1, 42, 80
1, 35730, Note_on_c, 0, 54, 0
1, 35730, Note_on_c, 0, 55, 80
1, 35730, Note_on_c, 1, 42, 0
1, 35730, Note_on_c, 1, 43, 80
1, 35760, Note_on_c, 0, 55, 0
1, 35760, Note_on_c, 0, 57, 80
1, 35760, Note_on_c, 1, 43, 0
1, 35760, Note_on_c, 1, 45, 80
1, 35808, Note_on_c, 0, 57, 0
1, 35808, Note_on_c, 1, 45, 0
1, 35880, Note_on_c, 0, 54, 80
1, 35880, Note_on_c, 1, 42, 80
1, 35928, Note_on_c, 0, 54, 0
1, 35928, Note_on_c, 1, 42, 0
1, 36000, Note_on_c, 0, 50, 80
1, 36000, Note_on_c, 1, 38, 80
1, 36240, Note_on_c, 0, 50, 0
1, 36240, Note_on_c, 1, 38, 0
1, 36480, Note_on_c, 0, 67, 80
1, 36480, Note_on_c, 1, 55, 80
1, 36480, Note_on_c, 1, 59, 80
1, 36528, Note_on_c, 1, 59, 0
1, 36528, Note_on_c, 1, 55, 0
1, 36600, Note_on_c, 1, 55, 80
1, 36600, Note_on_c, 1, 59, 80
1, 36648, Note_on_c, 1, 59, 0
1, 36648, Note_on_c, 1, 55, 0
1, 36660, Note_on_c, 0, 67, 0
1, 36660, Note_on_c, 0, 71, 80
1, 36690, Note_on_c, 0, 71, 0
1, 36690, Note_on_c, 0, 69, 80
1, 36720, Note_on_c, 0, 69, 0
1, 36720, Note_on_c, 0, 67, 80
1, 36720, Note_on_c, 1, 55, 80
1, 36720, Note_on_c, 1, 59, 80
1, 36768, Note_on_c, 1, 59, 0
1, 36768, Note_on_c, 1, 55, 0
1, 36840, Note_on_c, 0, 67, 0
1, 36840, Note_on_c, 1, 55, 80
1, 36840, Note_on_c, 1, 59, 80
1, 36888, Note_on_c, 1, 59, 0
1, 36888, Note_on_c, 1, 55, 0
1, 36960, Note_on_c, 1, 55, 80
1, 36960, Note_on_c, 1, 59, 80
1, 37008, Note_on_c, 1, 59, 0
1, 37008, Note_on_c, 1, 55, 0
1, 37080, Note_on_c, 0, 62, 80
1, 37080, Note_on_c, 1, 55, 80
1, 37080, Note_on_c, 1, 59, 80
1, 37128, Note_on_c, 0, 62, 0
1, 37128, Note_on_c, 1, 59, 0
1, 37128, Note_on_c, 1, 55, 0
1, 37200, Note_on_c, 0, 67, 80
1, 37200, Note_on_c, 1, 55, 80
1, 37200, Note_on_c, 1, 59, 80
1, 37248, Note_on_c, 0, 67, 0
1, 37248, Note_on_c, 1, 59, 0
1, 37248, Note_on_c, 1, 55, 0
1, 37320, Note_on_c, 0, 71, 80
1, 37320, Note_on_c, 1, 55, 80
1, 37320, Note_on_c, 1, 59, 80
1, 37368, Note_on_c, 0, 71, 0
1, 37368, Note_on_c, 1, 59, 0
1, 37368, Note_on_c, 1, 55, 0
1, 37440, Note_on_c, 0, 71, 80
1, 37440, Note_on_c, 1, 60, 80
1, 37440, Note_on_c, 1, 55, 80
1, 37500, Note_on_c, 0, 71, 0
1, 37500, Note_on_c, 0, 69, 80
1, 37560, Note_on_c, 0, 69, 0
1, 37560, Note_on_c, 0, 67, 80
1, 37620, Note_on_c, 0, 67, 0
1, 37620, Note_on_c, 0, 69, 80
1, 37680, Note_on_c, 0, 69, 0
1, 37680, Note_on_c, 0, 67, 80
1, 37680, Note_on_c, 1, 55, 0
1, 37680, Note_on_c, 1, 60, 0
1, 37680, Note_on_c, 1, 59, 80
1, 37680, Note_on_c, 1, 55, 80
1, 37800, Note_on_c, 0, 67, 0
1, 37800, Note_on_c, 0, 76, 80
1, 37800, Note_on_c, 1, 55, 0
1, 37800, Note_on_c, 1, 59, 0
1, 37848, Note_on_c, 0, 76, 0
1, 37920, Note_on_c, 0, 76, 80
1, 37920, Note_on_c, 1, 68, 80
1, 37920, Note_on_c, 1, 74, 80
1, 37968, Note_on_c, 0, 76, 0
1, 37968, Note_on_c, 1, 74, 0
1, 37968, Note_on_c, 1, 68, 0
1, 38040, Note_on_c, 0, 76, 80
1, 38040, Note_on_c, 1, 68, 80
1, 38040, Note_on_c, 1, 74, 80
1, 38088, Note_on_c, 0, 76, 0
1, 38088, Note_on_c, 1, 74, 0
1, 38088, Note_on_c, 1, 68, 0
1, 38160, Note_on_c, 0, 76, 80
1, 38160, Note_on_c, 1, 68, 80
1, 38160, Note_on_c, 1, 74, 80
1, 38208, Note_on_c, 0, 76, 0
1, 38208, Note_on_c, 1, 74, 0
1, 38208, Note_on_c, 1, 68, 0
1, 38280, Note_on_c, 0, 76, 80
1, 38280, Note_on_c, 1, 68, 80
1, 38280, Note_on_c, 1, 74, 80
1, 38328, Note_on_c, 0, 76, 0
1, 38328, Note_on_c, 1, 74, 0
1, 38328, Note_on_c, 1, 68, 0
1, 38400, Note_on_c, 0, 76, 80
1, 38400, Note_on_c, 1, 72, 80
1, 38400, Note_on_c, 1, 69, 80
1, 38580, Note_on_c, 0, 76, 0
1, 38580, Note_on_c, 0, 81, 80
1, 38610, Note_on_c, 0, 81, 0
1, 38610, Note_on_c, 0, 83, 80
1, 38640, Note_on_c, 0, 83, 0
1, 38640, Note_on_c, 0, 84, 80
1, 38640, Note_on_c, 1, 69, 0
1, 38640, Note_on_c, 1, 72, 0
1, 38760, Note_on_c, 0, 84, 0
1, 38760, Note_on_c, 0, 74, 80
1, 38808, Note_on_c, 0, 74, 0
1, 38880, Note_on_c, 0, 74, 80
1, 38880, Note_on_c, 1, 72, 80
1, 38880, Note_on_c, 1, 66, 80
1, 38928, Note_on_c, 0, 74, 0
1, 38928, Note_on_c, 1, 66, 0
1, 38928, Note_on_c, 1, 72, 0
1, 39000, Note_on_c, 0, 74, 80
1, 39000, Note_on_c, 1, 72, 80
1, 39000, Note_on_c, 1, 66, 80
1, 39048, Note_on_c, 0, 74, 0
1, 39048, Note_on_c, 1, 66, 0
1, 39048, Note_on_c, 1, 72, 0
1, 39120, Note_on_c, 0, 74, 80
1, 39120, Note_on_c, 1, 72, 80
1, 39120, Note_on_c, 1, 66, 80
1, 39168, Note_on_c, 0, 74, 0
1, 39168, Note_on_c, 1, 66, 0
1, 39168, Note_on_c, 1, 72, 0
1, 39240, Note_on_c, 0, 74, 80
1, 39240, Note_on_c, 1, 72, 80
1, 39240, Note_on_c, 1, 66, 80
1, 39288, Note_on_c, 0, 74, 0
1, 39288, Note_on_c, 1, 66, 0
1, 39288, Note_on_c, 1, 72, 0
1, 39360, Note_on_c, 0, 74, 80
1, 39360, Note_on_c, 1, 71, 80
1, 39360, Note_on_c, 1, 67, 80
1, 39540, Note_on_c, 0, 74, 0
1, 39540, Note_on_c, 0, 79, 80
1, 39570, Note_on_c, 0, 79, 0
1, 39570, Note_on_c, 0, 81, 80
1, 39600, Note_on_c, 0, 81, 0
1, 39600, Note_on_c, 0, 83, 80
1, 39600, Note_on_c, 1, 67, 0
1, 39600, Note_on_c, 1, 71, 0
1, 39720, Note_on_c, 0, 83, 0
1, 40740, Note_on_c, 0, 83, 56
1, 40770, Note_on_c, 0, 83, 0
1, 40770, Note_on_c, 0, 81, 56
1, 40800, Note_on_c, 0, 81, 0
1, 40800, Note_on_c, 0, 79, 56
1, 40872, Note_on_c, 0, 79, 0
1, 40980, Note_on_c, 0, 79, 56
1, 41010, Note_on_c, 0, 79, 0
1, 41010, Note_on_c, 0, 78, 56
1, 41040, Note_on_c, 0, 78, 0
1, 41040, Note_on_c, 0, 76, 56
1, 41160, Note_on_c, 0, 76, 0
1, 41220, Note_on_c, 0, 76, 56
1, 41250, Note_on_c, 0, 76, 0
1, 41250, Note_on_c, 0, 74, 56
1, 41280, Note_on_c, 0, 74, 0
1, 41280, Note_on_c, 0, 72, 56
1, 41280, Note_on_c, 1, 67, 56
1, 41280, Note_on_c, 1, 64, 56
1, 41520, Note_on_c, 0, 72, 0
1, 41520, Note_on_c, 1, 64, 0
1, 41520, Note_on_c, 1, 67, 0
1, 41700, Note_on_c, 0, 75, 80
1, 41700, Note_on_c, 1, 67, 80
1, 41730, Note_on_c, 0, 75, 0
1, 41730, Note_on_c, 0, 74, 80
1, 41730, Note_on_c, 1, 67, 0
1, 41730, Note_on_c, 1, 65, 80
1, 41760, Note_on_c, 0, 74, 0
1, 41760, Note_on_c, 0, 72, 80
1, 41760, Note_on_c, 1, 65, 0
1, 41760, Note_on_c, 1, 63, 80
1, 41808, Note_on_c, 0, 72, 0
1, 41880, Note_on_c, 0, 72, 80
1, 41928, Note_on_c, 0, 72, 0
1, 42000, Note_on_c, 0, 72, 80
1, 42000, Note_on_c, 1, 63, 0
1, 42048, Note_on_c, 0, 72, 0
1, 42120, Note_on_c, 0, 72, 80
1, 42168, Note_on_c, 0, 72, 0
1, 42180, Note_on_c, 1, 69, 80
1, 42210, Note_on_c, 1, 69, 0
1, 42210, Note_on_c, 1, 67, 80
1, 42240, Note_on_c, 0, 72, 80
1, 42240, Note_on_c, 1, 67, 0
1, 42240, Note_on_c, 1, 66, 80
1, 42240, Note_on_c, 1, 62, 80
1, 42420, Note_on_c, 0, 72, 0
1, 42420, Note_on_c, 0, 74, 80
1, 42450, Note_on_c, 0, 74, 0
1, 42450, Note_on_c, 0, 72, 80
1, 42480, Note_on_c, 0, 72, 0
1, 42480, Note_on_c, 0, 71, 80
1, 42480, Note_on_c, 1, 62, 0
1, 42480, Note_on_c, 1, 66, 0
1, 42480, Note_on_c, 1, 67, 80
1, 42480, Note_on_c, 1, 64, 80
1, 42528, Note_on_c, 0, 71, 0
1, 42600, Note_on_c, 0, 71, 80
1, 42648, Note_on_c, 0, 71, 0
1, 42720, Note_on_c, 0, 69, 80
1, 42720, Note_on_c, 1, 64, 0
1, 42720, Note_on_c, 1, 67, 0
1, 42720, Note_on_c, 1, 64, 80
1, 42720, Note_on_c, 1, 60, 80
1, 42840, Note_on_c, 0, 69, 0
1, 42840, Note_on_c, 0, 76, 80
1, 42888, Note_on_c, 0, 76, 0
1, 42960, Note_on_c, 0, 74, 80
1, 42960, Note_on_c, 1, 60, 0
1, 42960, Note_on_c, 1, 64, 0
1, 42960, Note_on_c, 1, 62, 80
1, 43008, Note_on_c, 0, 74, 0
1, 43080, Note_on_c, 0, 66, 80
1, 43128, Note_on_c, 0, 66, 0
1, 43200, Note_on_c, 0, 67, 80
1, 43200, Note_on_c, 1, 62, 0
1, 43200, Note_on_c, 1, 59, 80
1, 43200, Note_on_c, 1, 55, 80
1, 43248, Note_on_c, 1, 55, 0
1, 43248, Note_on_c, 1, 59, 0
1, 43260, Note_on_c, 0, 67, 0
1, 43260, Note_on_c, 0, 69, 80
1, 43320, Note_on_c, 0, 69, 0
1, 43320, Note_on_c, 0, 71, 80
1, 43320, Note_on_c, 1, 59, 80
1, 43320, Note_on_c, 1, 55, 80
1, 43368, Note_on_c, 1, 55, 0
1, 43368, Note_on_c, 1, 59, 0
1, 43380, Note_on_c, 0, 71, 0
1, 43380, Note_on_c, 0, 72, 80
1, 43440, Note_on_c, 0, 72, 0
1, 43440, Note_on_c, 0, 74, 80
1, 43440, Note_on_c, 1, 59, 80
1, 43440, Note_on_c, 1, 55, 80
1, 43488, Note_on_c, 1, 55, 0
1, 43488, Note_on_c, 1, 59, 0
1, 43500, Note_on_c, 0, 74, 0
1, 43500, Note_on_c, 0, 71, 80
1, 43560, Note_on_c, 0, 71, 0
1, 43560, Note_on_c, 0, 69, 80
1, 43560, Note_on_c, 1, 59, 80
1, 43560, Note_on_c, 1, 55, 80
1, 43608, Note_on_c, 1, 55, 0
1, 43608, Note_on_c, 1, 59, 0
1, 43620, Note_on_c, 0, 69, 0
1, 43620, Note_on_c, 0, 67, 80
1, 43680, Note_on_c, 0, 67, 0
1, 43680, Note_on_c, 0, 66, 80
1, 43680, Note_on_c, 1, 60, 80
1, 43680, Note_on_c, 1, 55, 80
1, 43728, Note_on_c, 1, 55, 0
1, 43728, Note_on_c, 1, 60, 0
1, 43740, Note_on_c, 0, 66, 0
1, 43740, Note_on_c, 0, 67, 80
1, 43800, Note_on_c, 0, 67, 0
1, 43800, Note_on_c, 0, 69, 80
1, 43800, Note_on_c, 1, 60, 80
1, 43800, Note_on_c, 1, 55, 80
1, 43848, Note_on_c, 1, 55, 0
1, 43848, Note_on_c, 1, 60, 0
1, 43860, Note_on_c, 0, 69, 0
1, 43860, Note_on_c, 0, 71, 80
1, 43920, Note_on_c, 0, 71, 0
1, 43920, Note_on_c, 0, 72, 80
1, 43920, Note_on_c, 1, 60, 80
1, 43920, Note_on_c, 1, 55, 80
1, 43968, Note_on_c, 1, 55, 0
1, 43968, Note_on_c, 1, 60, 0
1, 43980, Note_on_c, 0, 72, 0
1, 43980, Note_on_c, 0, 69, 80
1, 44040, Note_on_c, 0, 69, 0
1, 44040, Note_on_c, 0, 67, 80
1, 44040, Note_on_c, 1, 60, 80
1, 44040, Note_on_c, 1, 55, 80
1, 44088, Note_on_c, 1, 55, 0
1, 44088, Note_on_c, 1, 60, 0
1, 44100, Note_on_c, 0, 67, 0
1, 44100, Note_on_c, 0, 66, 80
1, 44160, Note_on_c, 0, 66, 0
1, 44160, Note_on_c, 0, 67, 64
1, 44160, Note_on_c, 1, 55, 64
1, 44160, Note_on_c, 1, 59, 64
1, 44208, Note_on_c, 1, 59, 0
1, 44208, Note_on_c, 1, 55, 0
1, 44220, Note_on_c, 0, 67, 0
1, 44220, Note_on_c, 0, 69, 65
1, 44280, Note_on_c, 0, 69, 0
1, 44280, Note_on_c, 0, 71, 66
1, 44280, Note_on_c, 1, 55, 66
1, 44280, Note_on_c, 1, 59, 66
1, 44328, Note_on_c, 1, 59, 0
1, 44328, Note_on_c, 1, 55, 0
1, 44340, Note_on_c, 0, 71, 0
1, 44340, Note_on_c, 0, 72, 67
1, 44400, Note_on_c, 0, 72, 0
1, 44400, Note_on_c, 0, 74, 68
1, 44400, Note_on_c, 1, 55, 68
1, 44400, Note_on_c, 1, 59, 68
1, 44448, Note_on_c, 1, 59, 0
1, 44448, Note_on_c, 1, 55, 0
1, 44460, Note_on_c, 0, 74, 0
1, 44460, Note_on_c, 0, 71, 69
1, 44520, Note_on_c, 0, 71, 0
1, 44520, Note_on_c, 0, 69, 70
1, 44520, Note_on_c, 1, 55, 70
1, 44520, Note_on_c, 1, 59, 70
1, 44568, Note_on_c, 1, 59, 0
1, 44568, Note_on_c, 1, 55, 0
1, 44580, Note_on_c, 0, 69, 0
1, 44580, Note_on_c, 0, 67, 71
1, 44640, Note_on_c, 0, 67, 0
1, 44640, Note_on_c, 0, 66, 72
1, 44640, Note_on_c, 1, 55, 72
1, 44640, Note_on_c, 1, 60, 72
1, 44688, Note_on_c, 1, 60, 0
1, 44688, Note_on_c, 1, 55, 0
1, 44700, Note_on_c, 0, 66, 0
1, 44700, Note_on_c, 0, 67, 73
1, 44760, Note_on_c, 0, 67, 0
1, 44760, Note_on_c, 0, 69, 74
1, 44760, Note_on_c, 1, 55, 74
1, 44760, Note_on_c, 1, 60, 74
1, 44808, Note_on_c, 1, 60, 0
1, 44808, Note_on_c, 1, 55, 0
1, 44820, Note_on_c, 0, 69, 0
1, 44820, Note_on_c, 0, 71, 75
1, 44880, Note_on_c, 0, 71, 0
1, 44880, Note_on_c, 0, 72, 76
1, 44880, Note_on_c, 1, 55, 76
1, 44880, Note_on_c, 1, 60, 76
1, 44928, Note_on_c, 1, 60, 0
1, 44928, Note_on_c, 1, 55, 0
1, 44940, Note_on_c, 0, 72, 0
1, 44940, Note_on_c, 0, 69, 77
1, 45000, Note_on_c, 0, 69, 0
1, 45000, Note_on_c, 0, 67, 78
1, 45000, Note_on_c, 1, 55, 78
1, 45000, Note_on_c, 1, 60, 78
1, 45048, Note_on_c, 1, 60, 0
1, 45048, Note_on_c, 1, 55, 0
1, 45060, Note_on_c, 0, 67, 0
1, 45060, Note_on_c, 0, 66, 79
1, 45120, Note_on_c, 0, 66, 0
1, 45120, Note_on_c, 0, 67, 80
1, 45120, Note_on_c, 1, 59, 80
1, 45120, Note_on_c, 1, 55, 80
1, 45267, Note_on_c, 0, 67, 0
1, 45330, Note_on_c, 0, 78, 80
1, 45360, Note_on_c, 0, 78, 0
1, 45360, Note_on_c, 0, 79, 96
1, 45360, Note_on_c, 1, 55, 0
1, 45360, Note_on_c, 1, 59, 0
1, 45528, Note_on_c, 0, 79, 0
1, 45600, Note_on_c, 1, 43, 96
1, 45600, Note_on_c, 1, 31, 96
1, 45696, Note_on_c, 1, 31, 0
1, 45768, Note_on_c, 1, 43, 0
1, 46080, Note_on_c, 1, 40, 80
1, 46080, Note_on_c, 1, 52, 80
1, 46200, Note_on_c, 0, 64, 80
1, 46320, Note_on_c, 0, 64, 0
1, 46320, Note_on_c, 0, 76, 80
1, 46320, Note_on_c, 1, 52, 0
1, 46320, Note_on_c, 1, 40, 0
1, 46440, Note_on_c, 1, 67, 80
1, 46440, Note_on_c, 1, 71, 80
1, 46560, Note_on_c, 1, 71, 0
1, 46560, Note_on_c, 1, 67, 0
1, 46560, Note_on_c, 1, 66, 80
1, 46560, Note_on_c, 1, 69, 80
1, 46680, Note_on_c, 0, 76, 0
1, 46680, Note_on_c, 0, 75, 80
1, 46800, Note_on_c, 0, 75, 0
1, 46800, Note_on_c, 0, 78, 80
1, 46920, Note_on_c, 1, 69, 0
1, 46920, Note_on_c, 1, 66, 0
1, 46920, Note_on_c, 1, 69, 80
1, 46920, Note_on_c, 1, 72, 80
1, 47040, Note_on_c, 1, 72, 0
1, 47040, Note_on_c, 1, 69, 0
1, 47040, Note_on_c, 1, 67, 80
1, 47040, Note_on_c, 1, 71, 80
1, 47160, Note_on_c, 0, 78, 0
1, 47160, Note_on_c, 0, 76, 80
1, 47280, Note_on_c, 0, 76, 0
1, 47280, Note_on_c, 0, 79, 80
1, 47400, Note_on_c, 1, 71, 0
1, 47400, Note_on_c, 1, 67, 0
1, 47400, Note_on_c, 1, 64, 80
1, 47400, Note_on_c, 1, 70, 80
1, 47520, Note_on_c, 1, 70, 0
1, 47520, Note_on_c, 1, 64, 0
1, 47520, Note_on_c, 1, 62, 80
1, 47520, Note_on_c, 1, 71, 80
1, 47640, Note_on_c, 0, 79, 0
1, 47640, Note_on_c, 0, 78, 80
1, 47760, Note_on_c, 0, 78, 0
1, 47760, Note_on_c, 0, 83, 80
1, 47880, Note_on_c, 1, 71, 0
1, 47880, Note_on_c, 1, 62, 0
1, 47880, Note_on_c, 1, 62, 80
1, 47880, Note_on_c, 1, 66, 80
1, 48000, Note_on_c, 1, 66, 0
1, 48000, Note_on_c, 1, 62, 0
1, 48000, Note_on_c, 1, 61, 80
1, 48000, Note_on_c, 1, 64, 80
1, 48120, Note_on_c, 0, 83, 0
1, 48120, Note_on_c, 0, 82, 80
1, 48240, Note_on_c, 0, 82, 0
1, 48240, Note_on_c, 0, 85, 80
1, 48240, Note_on_c, 0, 88, 80
1, 48360, Note_on_c, 1, 64, 0
1, 48360, Note_on_c, 1, 61, 0
1, 48360, Note_on_c, 1, 58, 80
1, 48480, Note_on_c, 1, 58, 0
1, 48480, Note_on_c, 1, 59, 80
1, 48576, Note_on_c, 1, 59, 0
1, 48600, Note_on_c, 0, 88, 0
1, 48600, Note_on_c, 0, 85, 0
1, 48600, Note_on_c, 0, 83, 80
1, 48600, Note_on_c, 0, 86, 80
1, 48696, Note_on_c, 0, 86, 0
1, 48696, Note_on_c, 0, 83, 0
1, 48720, Note_on_c, 1, 64, 80
1, 48816, Note_on_c, 1, 64, 0
1, 48840, Note_on_c, 0, 76, 80
1, 48840, Note_on_c, 0, 85, 80
1, 48960, Note_on_c, 1, 66, 80
1, 48972, Note_on_c, 0, 85, 0
1, 48972, Note_on_c, 0, 76, 0
1, 49056, Note_on_c, 1, 66, 0
1, 49080, Note_on_c, 0, 74, 80
1, 49080, Note_on_c, 0, 83, 80
1, 49176, Note_on_c, 0, 83, 0
1, 49176, Note_on_c, 0, 74, 0
1, 49200, Note_on_c, 1, 66, 80
1, 49296, Note_on_c, 1, 66, 0
1, 49320, Note_on_c, 0, 73, 80
1, 49320, Note_on_c, 0, 82, 80
1, 49428, Note_on_c, 0, 82, 0
1, 49428, Note_on_c, 0, 73, 0
1, 49440, Note_on_c, 1, 59, 56
1, 49536, Note_on_c, 1, 59, 0
1, 49560, Note_on_c, 0, 71, 80
1, 49668, Note_on_c, 0, 71, 0
1, 49680, Note_on_c, 0, 83, 80
1, 49788, Note_on_c, 0, 83, 0
1, 49800, Note_on_c, 1, 39, 56
1, 49800, Note_on_c, 1, 51, 56
1, 49920, Note_on_c, 1, 51, 0
1, 49920, Note_on_c, 1, 39, 0
1, 49920, Note_on_c, 1, 40, 56
1, 49920, Note_on_c, 1, 52, 56
1, 50040, Note_on_c, 0, 64, 56
1, 50160, Note_on_c, 0, 64, 0
1, 50160, Note_on_c, 0, 76, 56
1, 50160, Note_on_c, 1, 52, 0
1, 50160, Note_on_c, 1, 40, 0
1, 50280, Note_on_c, 1, 67, 56
1, 50280, Note_on_c, 1, 71, 56
1, 50400, Note_on_c, 1, 71, 0
1, 50400, Note_on_c, 1, 67, 0
1, 50400, Note_on_c, 1, 66, 56
1, 50400, Note_on_c, 1, 69, 56
1, 50520, Note_on_c, 0, 76, 0
1, 50520, Note_on_c, 0, 75, 56
1, 50640, Note_on_c, 0, 75, 0
1, 50640, Note_on_c, 0, 78, 56
1, 50760, Note_on_c, 1, 69, 0
1, 50760, Note_on_c, 1, 66, 0
1, 50760, Note_on_c, 1, 69, 56
1, 50760, Note_on_c, 1, 72, 56
1, 50880, Note_on_c, 1, 72, 0
1, 50880, Note_on_c, 1, 69, 0
1, 50880, Note_on_c, 1, 67, 56
1, 50880, Note_on_c, 1, 71, 56
1, 51000, Note_on_c, 0, 78, 0
1, 51000, Note_on_c, 0, 76, 56
1, 51120, Note_on_c, 0, 76, 0
1, 51120, Note_on_c, 0, 79, 56
1, 51240, Note_on_c, 1, 71, 0
1, 51240, Note_on_c, 1, 67, 0
1, 51240, Note_on_c, 1, 64, 56
1, 51240, Note_on_c, 1, 70, 56
1, 51360, Note_on_c, 1, 70, 0
1, 51360, Note_on_c, 1, 64, 0
1, 51360, Note_on_c, 1, 62, 56
1, 51360, Note_on_c, 1, 71, 56
1, 51480, Note_on_c, 0, 79, 0
1, 51480, Note_on_c, 0, 78, 56
1, 51600, Note_on_c, 0, 78, 0
1, 51600, Note_on_c, 0, 83, 56
1, 51720, Note_on_c, 1, 71, 0
1, 51720, Note_on_c, 1, 62, 0
1, 51720, Note_on_c, 1, 62, 56
1, 51720, Note_on_c, 1, 66, 56
1, 51840, Note_on_c, 1, 66, 0
1, 51840, Note_on_c, 1, 62, 0
1, 51840, Note_on_c, 1, 61, 56
1, 51840, Note_on_c, 1, 64, 56
1, 51960, Note_on_c, 0, 83, 0
1, 51960, Note_on_c, 0, 82, 56
1, 52080, Note_on_c, 0, 82, 0
1, 52080, Note_on_c, 0, 88, 56
1, 52080, Note_on_c, 0, 85, 56
1, 52200, Note_on_c, 1, 64, 0
1, 52200, Note_on_c, 1, 61, 0
1, 52200, Note_on_c, 1, 58, 56
1, 52320, Note_on_c, 1, 58, 0
1, 52320, Note_on_c, 1, 59, 56
1, 52416, Note_on_c, 1, 59, 0
1, 52440, Note_on_c, 0, 85, 0
1, 52440, Note_on_c, 0, 88, 0
1, 52440, Note_on_c, 0, 83, 56
1, 52440, Note_on_c, 0, 86, 56
1, 52536, Note_on_c, 0, 86, 0
1, 52536, Note_on_c, 0, 83, 0
1, 52560, Note_on_c, 1, 64, 56
1, 52656, Note_on_c, 1, 64, 0
1, 52680, Note_on_c, 0, 76, 56
1, 52680, Note_on_c, 0, 85, 56
1, 52800, Note_on_c, 1, 66, 56
1, 52812, Note_on_c, 0, 85, 0
1, 52812, Note_on_c, 0, 76, 0
1, 52896, Note_on_c, 1, 66, 0
1, 52920, Note_on_c, 0, 74, 56
1, 52920, Note_on_c, 0, 83, 56
1, 53016, Note_on_c, 0, 83, 0
1, 53016, Note_on_c, 0, 74, 0
1, 53040, Note_on_c, 1, 66, 56
1, 53136, Note_on_c, 1, 66, 0
1, 53160, Note_on_c, 0, 73, 56
1, 53160, Note_on_c, 0, 82, 56
1, 53280, Note_on_c, 0, 82, 0
1, 53280, Note_on_c, 0, 73, 0
1, 53280, Note_on_c, 1, 59, 56
1, 53400, Note_on_c, 0, 71, 56
1, 53520, Note_on_c, 0, 71, 0
1, 53520, Note_on_c, 0, 83, 56
1, 53520, Note_on_c, 1, 59, 0
1, 53640, Note_on_c, 0, 83, 0
1, 53640, Note_on_c, 1, 35, 80
1, 53640, Note_on_c, 1, 47, 80
1, 53760, Note_on_c, 1, 47, 0
1, 53760, Note_on_c, 1, 35, 0
1, 53760, Note_on_c, 1, 36, 80
1, 53760, Note_on_c, 1, 48, 80
1, 53880, Note_on_c, 0, 69, 80
1, 54000, Note_on_c, 0, 69, 0
1, 54000, Note_on_c, 0, 81, 80
1, 54000, Note_on_c, 1, 48, 0
1, 54000, Note_on_c, 1, 36, 0
1, 54120, Note_on_c, 1, 64, 80
1, 54120, Note_on_c, 1, 60, 80
1, 54240, Note_on_c, 1, 60, 0
1, 54240, Note_on_c, 1, 64, 0
1, 54240, Note_on_c, 1, 59, 80
1, 54240, Note_on_c, 1, 62, 80
1, 54360, Note_on_c, 0, 81, 0
1, 54360, Note_on_c, 0, 80, 80
1, 54480, Note_on_c, 0, 80, 0
1, 54480, Note_on_c, 0, 86, 80
1, 54600, Note_on_c, 1, 62, 0
1, 54600, Note_on_c, 1, 59, 0
1, 54600, Note_on_c, 1, 56, 80
1, 54600, Note_on_c, 1, 59, 80
1, 54720, Note_on_c, 1, 59, 0
1, 54720, Note_on_c, 1, 56, 0
1, 54720, Note_on_c, 1, 60, 80
1, 54720, Note_on_c, 1, 57, 80
1, 54732, Note_on_c, 0, 86, 0
1, 54816, Note_on_c, 1, 57, 0
1, 54816, Note_on_c, 1, 60, 0
1, 54840, Note_on_c, 0, 84, 80
1, 54936, Note_on_c, 0, 84, 0
1, 54960, Note_on_c, 1, 62, 80
1, 54960, Note_on_c, 1, 59, 80
1, 55056, Note_on_c, 1, 59, 0
1, 55056, Note_on_c, 1, 62, 0
1, 55080, Note_on_c, 0, 83, 80
1, 55176, Note_on_c, 0, 83, 0
1, 55200, Note_on_c, 1, 64, 80
1, 55200, Note_on_c, 1, 60, 80
1, 55296, Note_on_c, 1, 60, 0
1, 55296, Note_on_c, 1, 64, 0
1, 55320, Note_on_c, 0, 81, 80
1, 55440, Note_on_c, 0, 81, 0
1, 55560, Note_on_c, 0, 78, 56
1, 55680, Note_on_c, 0, 78, 0
1, 55680, Note_on_c, 0, 79, 56
1, 55800, Note_on_c, 1, 71, 56
1, 55800, Note_on_c, 1, 74, 56
1, 55920, Note_on_c, 1, 74, 0
1, 55920, Note_on_c, 1, 71, 0
1, 55920, Note_on_c, 1, 69, 56
1, 55920, Note_on_c, 1, 72, 56
1, 56040, Note_on_c, 0, 79, 0
1, 56040, Note_on_c, 0, 78, 56
1, 56160, Note_on_c, 0, 78, 0
1, 56160, Note_on_c, 0, 81, 56
1, 56160, Note_on_c, 0, 84, 56
1, 56160, Note_on_c, 1, 72, 0
1, 56160, Note_on_c, 1, 69, 0
1, 56280, Note_on_c, 1, 66, 56
1, 56400, Note_on_c, 1, 66, 0
1, 56400, Note_on_c, 1, 67, 56
1, 56520, Note_on_c, 0, 84, 0
1, 56520, Note_on_c, 0, 81, 0
1, 56520, Note_on_c, 0, 79, 56
1, 56520, Note_on_c, 0, 83, 56
1, 56640, Note_on_c, 1, 67, 0
1, 56640, Note_on_c, 1, 63, 56
1, 56652, Note_on_c, 0, 83, 0
1, 56652, Note_on_c, 0, 79, 0
1, 56736, Note_on_c, 1, 63, 0
1, 56760, Note_on_c, 0, 78, 56
1, 56760, Note_on_c, 0, 81, 56
1, 56856, Note_on_c, 0, 81, 0
1, 56856, Note_on_c, 0, 78, 0
1, 56880, Note_on_c, 1, 64, 56
1, 56976, Note_on_c, 1, 64, 0
1, 57000, Note_on_c, 0, 76, 56
1, 57000, Note_on_c, 0, 79, 56
1, 57096, Note_on_c, 0, 79, 0
1, 57096, Note_on_c, 0, 76, 0
1, 57120, Note_on_c, 1, 59, 56
1, 57216, Note_on_c, 1, 59, 0
1, 57240, Note_on_c, 0, 75, 56
1, 57240, Note_on_c, 0, 78, 56
1, 57360, Note_on_c, 0, 78, 0
1, 57360, Note_on_c, 0, 75, 0
1, 57360, Note_on_c, 0, 83, 80
1, 57420, Note_on_c, 0, 83, 0
1, 57420, Note_on_c, 0, 81, 80
1, 57480, Note_on_c, 0, 81, 0
1, 57480, Note_on_c, 0, 79, 80
1, 57540, Note_on_c, 0, 79, 0
1, 57540, Note_on_c, 0, 78, 80
1, 57600, Note_on_c, 0, 78, 0
1, 57600, Note_on_c, 0, 76, 80
1, 57720, Note_on_c, 1, 52, 80
1, 57840, Note_on_c, 0, 76, 0
1, 57840, Note_on_c, 1, 52, 0
1, 57840, Note_on_c, 1, 64, 80
1, 57960, Note_on_c, 0, 67, 80
1, 57960, Note_on_c, 0, 76, 80
1, 58080, Note_on_c, 0, 76, 0
1, 58080, Note_on_c, 0, 67, 0
1, 58080, Note_on_c, 0, 69, 80
1, 58080, Note_on_c, 0, 78, 80
1, 58200, Note_on_c, 1, 64, 0
1, 58200, Note_on_c, 1, 63, 80
1, 58320, Note_on_c, 1, 63, 0
1, 58320, Note_on_c, 1, 66, 80
1, 58440, Note_on_c, 0, 78, 0
1, 58440, Note_on_c, 0, 69, 0
1, 58440, Note_on_c, 0, 69, 80
1, 58440, Note_on_c, 0, 78, 80
1, 58560, Note_on_c, 0, 78, 0
1, 58560, Note_on_c, 0, 69, 0
1, 58560, Note_on_c, 0, 71, 80
1, 58560, Note_on_c, 0, 79, 80
1, 58680, Note_on_c, 1, 66, 0
1, 58680, Note_on_c, 1, 64, 80
1, 58800, Note_on_c, 1, 64, 0
1, 58800, Note_on_c, 1, 67, 80
1, 58920, Note_on_c, 0, 79, 0
1, 58920, Note_on_c, 0, 71, 0
1, 58920, Note_on_c, 0, 71, 80
1, 58920, Note_on_c, 0, 79, 80
1, 59040, Note_on_c, 0, 79, 0
1, 59040, Note_on_c, 0, 71, 0
1, 59040, Note_on_c, 0, 72, 80
1, 59040, Note_on_c, 0, 81, 80
1, 59160, Note_on_c, 1, 67, 0
1, 59160, Note_on_c, 1, 66, 80
1, 59280, Note_on_c, 1, 66, 0
1, 59280, Note_on_c, 1, 69, 80
1, 59400, Note_on_c, 0, 81, 0
1, 59400, Note_on_c, 0, 72, 0
1, 59400, Note_on_c, 0, 78, 80
1, 59520, Note_on_c, 0, 78, 0
1, 59520, Note_on_c, 0, 75, 80
1, 59640, Note_on_c, 1, 69, 0
1, 59640, Note_on_c, 1, 66, 80
1, 59760, Note_on_c, 1, 66, 0
1, 59760, Note_on_c, 1, 63, 80
1, 59880, Note_on_c, 0, 75, 0
1, 59880, Note_on_c, 0, 72, 80
1, 60000, Note_on_c, 0, 72, 0
1, 60000, Note_on_c, 0, 69, 80
1, 60120, Note_on_c, 1, 63, 0
1, 60120, Note_on_c, 1, 60, 80
1, 60240, Note_on_c, 1, 60, 0
1, 60240, Note_on_c, 1, 57, 80
1, 60360, Note_on_c, 0, 69, 0
1, 60360, Note_on_c, 0, 66, 80
1, 60480, Note_on_c, 0, 66, 0
1, 60480, Note_on_c, 0, 63, 80
1, 60600, Note_on_c, 1, 57, 0
1, 60600, Note_on_c, 1, 54, 80
1, 60720, Note_on_c, 1, 54, 0
1, 60720, Note_on_c, 1, 51, 80
1, 60840, Note_on_c, 0, 63, 0
1, 60840, Note_on_c, 0, 63, 80
1, 60840, Note_on_c, 1, 51, 0
1, 60840, Note_on_c, 1, 51, 80
1, 60900, Note_on_c, 0, 63, 0
1, 60900, Note_on_c, 0, 60, 80
1, 60900, Note_on_c, 1, 51, 0
1, 60900, Note_on_c, 1, 48, 80
1, 60960, Note_on_c, 0, 60, 0
1, 60960, Note_on_c, 0, 57, 80
1, 60960, Note_on_c, 1, 48, 0
1, 60960, Note_on_c, 1, 45, 80
1, 61008, Note_on_c, 0, 57, 0
1, 61008, Note_on_c, 1, 45, 0
1, 61080, Note_on_c, 0, 60, 80
1, 61080, Note_on_c, 1, 48, 80
1, 61140, Note_on_c, 0, 60, 0
1, 61140, Note_on_c, 0, 57, 80
1, 61140, Note_on_c, 1, 48, 0
1, 61140, Note_on_c, 1, 45, 80
1, 61200, Note_on_c, 0, 57, 0
1, 61200, Note_on_c, 0, 54, 80
1, 61200, Note_on_c, 1, 45, 0
1, 61200, Note_on_c, 1, 42, 80
1, 61260, Note_on_c, 0, 54, 0
1, 61260, Note_on_c, 1, 42, 0
1, 61320, Note_on_c, 0, 57, 80
1, 61320, Note_on_c, 1, 45, 80
1, 61380, Note_on_c, 0, 57, 0
1, 61380, Note_on_c, 0, 54, 80
1, 61380, Note_on_c, 1, 45, 0
1, 61380, Note_on_c, 1, 42, 80
1, 61440, Note_on_c, 0, 54, 0
1, 61440, Note_on_c, 0, 51, 80
1, 61440, Note_on_c, 1, 42, 0
1, 61440, Note_on_c, 1, 39, 80
1, 61680, Note_on_c, 0, 51, 0
1, 61680, Note_on_c, 1, 39, 0
1, 61800, Note_on_c, 0, 84, 56
1, 61860, Note_on_c, 0, 84, 0
1, 61860, Note_on_c, 0, 81, 56
1, 61920, Note_on_c, 0, 81, 0
1, 61920, Note_on_c, 0, 78, 56
1, 61968, Note_on_c, 0, 78, 0
1, 62040, Note_on_c, 0, 81, 56
1, 62100, Note_on_c, 0, 81, 0
1, 62100, Note_on_c, 0, 78, 56
1, 62160, Note_on_c, 0, 78, 0
1, 62160, Note_on_c, 0, 75, 56
1, 62208, Note_on_c, 0, 75, 0
1, 62280, Note_on_c, 0, 78, 56
1, 62340, Note_on_c, 0, 78, 0
1, 62340, Note_on_c, 0, 75, 56
1, 62400, Note_on_c, 0, 75, 0
1, 62400, Note_on_c, 0, 72, 56
1, 62640, Note_on_c, 0, 72, 0
1, 63000, Note_on_c, 0, 60, 80
1, 63120, Note_on_c, 0, 60, 0
1, 63120, Note_on_c, 0, 59, 80
1, 63120, Note_on_c, 1, 51, 80
1, 63240, Note_on_c, 0, 59, 0
1, 63240, Note_on_c, 0, 69, 80
1, 63360, Note_on_c, 0, 69, 0
1, 63360, Note_on_c, 1, 51, 0
1, 63360, Note_on_c, 1, 52, 80
1, 63408, Note_on_c, 1, 52, 0
1, 63480, Note_on_c, 0, 59, 80
1, 63480, Note_on_c, 0, 67, 80
1, 63528, Note_on_c, 0, 67, 0
1, 63528, Note_on_c, 0, 59, 0
1, 63600, Note_on_c, 1, 45, 80
1, 63648, Note_on_c, 1, 45, 0
1, 63720, Note_on_c, 0, 57, 80
1, 63720, Note_on_c, 0, 66, 80
1, 63768, Note_on_c, 0, 66, 0
1, 63768, Note_on_c, 0, 57, 0
1, 63840, Note_on_c, 1, 47, 80
1, 63888, Note_on_c, 1, 47, 0
1, 63960, Note_on_c, 0, 55, 80
1, 63960, Note_on_c, 0, 64, 80
1, 64008, Note_on_c, 0, 64, 0
1, 64008, Note_on_c, 0, 55, 0
1, 64080, Note_on_c, 1, 47, 80
1, 64128, Note_on_c, 1, 47, 0
1, 64200, Note_on_c, 0, 54, 80
1, 64200, Note_on_c, 0, 63, 80
1, 64248, Note_on_c, 0, 63, 0
1, 64248, Note_on_c, 0, 54, 0
1, 64320, Note_on_c, 0, 55, 80
1, 64320, Note_on_c, 0, 64, 80
1, 64440, Note_on_c, 1, 52, 80
1, 64560, Note_on_c, 0, 64, 0
1, 64560, Note_on_c, 0, 55, 0
1, 64560, Note_on_c, 1, 52, 0
1, 64560, Note_on_c, 1, 40, 80
1, 64680, Note_on_c, 0, 87, 80
1, 64680, Note_on_c, 1, 40, 0
1, 64800, Note_on_c, 0, 87, 0
1, 64800, Note_on_c, 0, 88, 80
1, 64920, Note_on_c, 1, 52, 80
1, 65040, Note_on_c, 0, 88, 0
1, 65040, Note_on_c, 1, 52, 0
1, 65040, Note_on_c, 1, 40, 80
1, 65160, Note_on_c, 0, 64, 80
1, 65160, Note_on_c, 1, 40, 0
1, 65280, Note_on_c, 0, 64, 0
1, 65280, Note_on_c, 0, 62, 80
1, 65280, Note_on_c, 0, 65, 80
1, 65400, Note_on_c, 1, 52, 80
1, 65520, Note_on_c, 0, 65, 0
1, 65520, Note_on_c, 0, 62, 0
1, 65520, Note_on_c, 1, 52, 0
1, 65520, Note_on_c, 1, 40, 80
1, 65640, Note_on_c, 0, 62, 80
1, 65640, Note_on_c, 0, 65, 80
1, 65640, Note_on_c, 1, 40, 0
1, 65760, Note_on_c, 0, 65, 0
1, 65760, Note_on_c, 0, 62, 0
1, 65760, Note_on_c, 0, 59, 80
1, 65760, Note_on_c, 0, 68, 80
1, 65880, Note_on_c, 1, 52, 80
1, 66000, Note_on_c, 0, 68, 0
1, 66000, Note_on_c, 0, 59, 0
1, 66000, Note_on_c, 1, 52, 0
1, 66000, Note_on_c, 1, 40, 80
1, 66120, Note_on_c, 0, 59, 80
1, 66120, Note_on_c, 0, 68, 80
1, 66120, Note_on_c, 1, 40, 0
1, 66240, Note_on_c, 0, 68, 0
1, 66240, Note_on_c, 0, 59, 0
1, 66240, Note_on_c, 0, 60, 80
1, 66240, Note_on_c, 0, 69, 80
1, 66360, Note_on_c, 1, 52, 80
1, 66480, Note_on_c, 0, 69, 0
1, 66480, Note_on_c, 0, 60, 0
1, 66480, Note_on_c, 1, 52, 0
1, 66480, Note_on_c, 1, 40, 80
1, 66600, Note_on_c, 0, 60, 80
1, 66600, Note_on_c, 0, 69, 80
1, 66600, Note_on_c, 1, 40, 0
1, 66720, Note_on_c, 0, 69, 0
1, 66720, Note_on_c, 0, 60, 0
1, 66720, Note_on_c, 0, 61, 80
1, 66720, Note_on_c, 0, 67, 80
1, 66840, Note_on_c, 1, 51, 80
1, 66960, Note_on_c, 0, 67, 0
1, 66960, Note_on_c, 0, 61, 0
1, 66960, Note_on_c, 1, 51, 0
1, 66960, Note_on_c, 1, 39, 80
1, 67080, Note_on_c, 0, 61, 80
1, 67080, Note_on_c, 0, 67, 80
1, 67080, Note_on_c, 1, 39, 0
1, 67200, Note_on_c, 0, 67, 0
1, 67200, Note_on_c, 0, 61, 0
1, 67200, Note_on_c, 0, 62, 80
1, 67200, Note_on_c, 0, 66, 80
1, 67320, Note_on_c, 1, 50, 80
1, 67440, Note_on_c, 0, 66, 0
1, 67440, Note_on_c, 0, 62, 0
1, 67440, Note_on_c, 1, 50, 0
1, 67440, Note_on_c, 1, 38, 80
1, 67560, Note_on_c, 0, 85, 80
1, 67560, Note_on_c, 1, 38, 0
1, 67680, Note_on_c, 0, 85, 0
1, 67680, Note_on_c, 0, 86, 80
1, 67800, Note_on_c, 1, 50, 56
1, 67920, Note_on_c, 0, 86, 0
1, 67920, Note_on_c, 1, 50, 0
1, 67920, Note_on_c, 1, 38, 56
1, 68040, Note_on_c, 0, 62, 56
1, 68040, Note_on_c, 1, 38, 0
1, 68160, Note_on_c, 0, 62, 0
1, 68160, Note_on_c, 0, 61, 56
1, 68160, Note_on_c, 0, 64, 56
1, 68280, Note_on_c, 1, 50, 56
1, 68400, Note_on_c, 0, 64, 0
1, 68400, Note_on_c, 0, 61, 0
1, 68400, Note_on_c, 1, 50, 0
1, 68400, Note_on_c, 1, 38, 56
1, 68520, Note_on_c, 0, 61, 56
1, 68520, Note_on_c, 0, 64, 56
1, 68520, Note_on_c, 1, 38, 0
1, 68640, Note_on_c, 0, 64, 0
1, 68640, Note_on_c, 0, 61, 0
1, 68640, Note_on_c, 0, 60, 56
1, 68640, Note_on_c, 0, 66, 56
1, 68760, Note_on_c, 1, 50, 56
1, 68880, Note_on_c, 0, 66, 0
1, 68880, Note_on_c, 0, 60, 0
1, 68880, Note_on_c, 1, 50, 0
1, 68880, Note_on_c, 1, 38, 56
1, 69000, Note_on_c, 0, 62, 56
1, 69000, Note_on_c, 1, 38, 0
1, 69120, Note_on_c, 0, 62, 0
1, 69120, Note_on_c, 0, 67, 80
1, 69120, Note_on_c, 1, 55, 80
1, 69120, Note_on_c, 1, 59, 80
1, 69168, Note_on_c, 1, 59, 0
1, 69168, Note_on_c, 1, 55, 0
1, 69240, Note_on_c, 1, 55, 80
1, 69240, Note_on_c, 1, 59, 80
1, 69288, Note_on_c, 1, 59, 0
1, 69288, Note_on_c, 1, 55, 0
1, 69300, Note_on_c, 0, 67, 0
1, 69300, Note_on_c, 0, 71, 80
1, 69330, Note_on_c, 0, 71, 0
1, 69330, Note_on_c, 0, 69, 80
1, 69360, Note_on_c, 0, 69, 0
1, 69360, Note_on_c, 0, 67, 80
1, 69360, Note_on_c, 1, 55, 80
1, 69360, Note_on_c, 1, 59, 80
1, 69408, Note_on_c, 1, 59, 0
1, 69408, Note_on_c, 1, 55, 0
1, 69444, Note_on_c, 0, 67, 0
1, 69480, Note_on_c, 1, 55, 80
1, 69480, Note_on_c, 1, 59, 80
1, 69528, Note_on_c, 1, 59, 0
1, 69528, Note_on_c, 1, 55, 0
1, 69600, Note_on_c, 1, 55, 80
1, 69600, Note_on_c, 1, 59, 80
1, 69648, Note_on_c, 1, 59, 0
1, 69648, Note_on_c, 1, 55, 0
1, 69720, Note_on_c, 0, 62, 80
1, 69720, Note_on_c, 1, 55, 80
1, 69720, Note_on_c, 1, 59, 80
1, 69768, Note_on_c, 0, 62, 0
1, 69768, Note_on_c, 1, 59, 0
1, 69768, Note_on_c, 1, 55, 0
1, 69840, Note_on_c, 0, 67, 80
1, 69840, Note_on_c, 1, 55, 80
1, 69840, Note_on_c, 1, 59, 80
1, 69888, Note_on_c, 0, 67, 0
1, 69888, Note_on_c, 1, 59, 0
1, 69888, Note_on_c, 1, 55, 0
1, 69960, Note_on_c, 0, 71, 80
1, 69960, Note_on_c, 1, 55, 80
1, 69960, Note_on_c, 1, 59, 80
1, 70008, Note_on_c, 0, 71, 0
1, 70008, Note_on_c, 1, 59, 0
1, 70008, Note_on_c, 1, 55, 0
1, 70080, Note_on_c, 0, 71, 80
1, 70080, Note_on_c, 1, 60, 80
1, 70080, Note_on_c, 1, 55, 80
1, 70140, Note_on_c, 0, 71, 0
1, 70140, Note_on_c, 0, 69, 80
1, 70200, Note_on_c, 0, 69, 0
1, 70200, Note_on_c, 0, 67, 80
1, 70260, Note_on_c, 0, 67, 0
1, 70260, Note_on_c, 0, 69, 80
1, 70320, Note_on_c, 0, 69, 0
1, 70320, Note_on_c, 0, 67, 80
1, 70320, Note_on_c, 1, 55, 0
1, 70320, Note_on_c, 1, 60, 0
1, 70320, Note_on_c, 1, 59, 80
1, 70320, Note_on_c, 1, 55, 80
1, 70440, Note_on_c, 0, 67, 0
1, 70440, Note_on_c, 0, 74, 80
1, 70440, Note_on_c, 1, 55, 0
1, 70440, Note_on_c, 1, 59, 0
1, 70488, Note_on_c, 0, 74, 0
1, 70560, Note_on_c, 0, 74, 80
1, 70560, Note_on_c, 1, 65, 80
1, 70560, Note_on_c, 1, 67, 80
1, 70608, Note_on_c, 0, 74, 0
1, 70608, Note_on_c, 1, 67, 0
1, 70608, Note_on_c, 1, 65, 0
1, 70680, Note_on_c, 0, 74, 80
1, 70680, Note_on_c, 1, 65, 80
1, 70680, Note_on_c, 1, 67, 80
1, 70728, Note_on_c, 0, 74, 0
1, 70728, Note_on_c, 1, 67, 0
1, 70728, Note_on_c, 1, 65, 0
1, 70800, Note_on_c, 0, 74, 80
1, 70800, Note_on_c, 1, 65, 80
1, 70800, Note_on_c, 1, 67, 80
1, 70848, Note_on_c, 0, 74, 0
1, 70848, Note_on_c, 1, 67, 0
1, 70848, Note_on_c, 1, 65, 0
1, 70920, Note_on_c, 0, 74, 80
1, 70920, Note_on_c, 1, 65, 80
1, 70920, Note_on_c, 1, 67, 80
1, 70968, Note_on_c, 0, 74, 0
1, 70968, Note_on_c, 1, 67, 0
1, 70968, Note_on_c, 1, 65, 0
1, 71040, Note_on_c, 0, 74, 80
1, 71040, Note_on_c, 1, 67, 80
1, 71040, Note_on_c, 1, 64, 80
1, 71220, Note_on_c, 0, 74, 0
1, 71220, Note_on_c, 0, 76, 80
1, 71250, Note_on_c, 0, 76, 0
1, 71250, Note_on_c, 0, 74, 80
1, 71280, Note_on_c, 0, 74, 0
1, 71280, Note_on_c, 0, 72, 80
1, 71328, Note_on_c, 0, 72, 0
1, 71400, Note_on_c, 0, 71, 80
1, 71400, Note_on_c, 1, 64, 0
1, 71400, Note_on_c, 1, 67, 0
1, 71400, Note_on_c, 1, 65, 80
1, 71400, Note_on_c, 1, 62, 80
1, 71448, Note_on_c, 0, 71, 0
1, 71520, Note_on_c, 0, 69, 80
1, 71520, Note_on_c, 1, 62, 0
1, 71520, Note_on_c, 1, 65, 0
1, 71520, Note_on_c, 1, 64, 80
1, 71520, Note_on_c, 1, 60, 80
1, 71568, Note_on_c, 0, 69, 0
1, 71640, Note_on_c, 0, 81, 96
1, 71760, Note_on_c, 1, 60, 0
1, 71760, Note_on_c, 1, 64, 0
1, 71760, Note_on_c, 1, 64, 80
1, 71760, Note_on_c, 1, 61, 80
1, 71880, Note_on_c, 0, 81, 0
1, 71880, Note_on_c, 0, 79, 80
1, 71928, Note_on_c, 0, 79, 0
1, 72000, Note_on_c, 0, 79, 80
1, 72000, Note_on_c, 1, 61, 0
1, 72000, Note_on_c, 1, 64, 0
1, 72000, Note_on_c, 1, 62, 80
1, 72060, Note_on_c, 0, 79, 0
1, 72060, Note_on_c, 0, 78, 80
1, 72120, Note_on_c, 0, 78, 0
1, 72120, Note_on_c, 0, 76, 80
1, 72180, Note_on_c, 0, 76, 0
1, 72180, Note_on_c, 0, 74, 80
1, 72240, Note_on_c, 0, 74, 0
1, 72240, Note_on_c, 0, 74, 80
1, 72240, Note_on_c, 1, 62, 0
1, 72288, Note_on_c, 0, 74, 0
1, 72360, Note_on_c, 0, 74, 80
1, 72408, Note_on_c, 0, 74, 0
1, 72480, Note_on_c, 0, 74, 80
1, 72540, Note_on_c, 0, 74, 0
1, 72540, Note_on_c, 0, 76, 80
1, 72600, Note_on_c, 0, 76, 0
1, 72600, Note_on_c, 0, 72, 80
1, 72660, Note_on_c, 0, 72, 0
1, 72660, Note_on_c, 0, 74, 80
1, 72720, Note_on_c, 0, 74, 0
1, 72720, Note_on_c, 0, 71, 80
1, 72780, Note_on_c, 0, 71, 0
1, 72780, Note_on_c, 0, 72, 80
1, 72840, Note_on_c, 0, 72, 0
1, 72840, Note_on_c, 0, 69, 80
1, 72900, Note_on_c, 0, 69, 0
1, 72900, Note_on_c, 0, 71, 80
1, 72960, Note_on_c, 0, 71, 0
1, 72960, Note_on_c, 0, 67, 80
1, 72960, Note_on_c, 1, 59, 80
1, 72960, Note_on_c, 1, 55, 80
1, 73008, Note_on_c, 1, 55, 0
1, 73008, Note_on_c, 1, 59, 0
1, 73080, Note_on_c, 1, 59, 80
1, 73080, Note_on_c, 1, 55, 80
1, 73128, Note_on_c, 1, 55, 0
1, 73128, Note_on_c, 1, 59, 0
1, 73140, Note_on_c, 0, 67, 0
1, 73140, Note_on_c, 0, 71, 80
1, 73170, Note_on_c, 0, 71, 0
1, 73170, Note_on_c, 0, 69, 80
1, 73200, Note_on_c, 0, 69, 0
1, 73200, Note_on_c, 0, 67, 80
1, 73200, Note_on_c, 1, 59, 80
1, 73200, Note_on_c, 1, 55, 80
1, 73248, Note_on_c, 1, 55, 0
1, 73248, Note_on_c, 1, 59, 0
1, 73260, Note_on_c, 0, 67, 0
1, 73260, Note_on_c, 0, 62, 80
1, 73320, Note_on_c, 0, 62, 0
1, 73320, Note_on_c, 0, 71, 80
1, 73320, Note_on_c, 1, 59, 80
1, 73320, Note_on_c, 1, 55, 80
1, 73368, Note_on_c, 1, 55, 0
1, 73368, Note_on_c, 1, 59, 0
1, 73380, Note_on_c, 0, 71, 0
1, 73380, Note_on_c, 0, 69, 80
1, 73440, Note_on_c, 0, 69, 0
1, 73440, Note_on_c, 0, 67, 80
1, 73440, Note_on_c, 1, 59, 80
1, 73440, Note_on_c, 1, 55, 80
1, 73488, Note_on_c, 1, 55, 0
1, 73488, Note_on_c, 1, 59, 0
1, 73500, Note_on_c, 0, 67, 0
1, 73500, Note_on_c, 0, 62, 80
1, 73560, Note_on_c, 0, 62, 0
1, 73560, Note_on_c, 0, 67, 80
1, 73560, Note_on_c, 1, 59, 80
1, 73560, Note_on_c, 1, 55, 80
1, 73608, Note_on_c, 1, 55, 0
1, 73608, Note_on_c, 1, 59, 0
1, 73620, Note_on_c, 0, 67, 0
1, 73620, Note_on_c, 0, 71, 80
1, 73680, Note_on_c, 0, 71, 0
1, 73680, Note_on_c, 0, 74, 80
1, 73680, Note_on_c, 1, 59, 80
1, 73680, Note_on_c, 1, 55, 80
1, 73728, Note_on_c, 1, 55, 0
1, 73728, Note_on_c, 1, 59, 0
1, 73740, Note_on_c, 0, 74, 0
1, 73740, Note_on_c, 0, 71, 80
1, 73800, Note_on_c, 0, 71, 0
1, 73800, Note_on_c, 0, 69, 80
1, 73800, Note_on_c, 1, 59, 80
1, 73800, Note_on_c, 1, 55, 80
1, 73848, Note_on_c, 1, 55, 0
1, 73848, Note_on_c, 1, 59, 0
1, 73860, Note_on_c, 0, 69, 0
1, 73860, Note_on_c, 0, 67, 80
1, 73920, Note_on_c, 0, 67, 0
1, 73920, Note_on_c, 0, 71, 80
1, 73920, Note_on_c, 1, 55, 80
1, 73920, Note_on_c, 1, 60, 80
1, 73980, Note_on_c, 0, 71, 0
1, 73980, Note_on_c, 0, 69, 80
1, 74040, Note_on_c, 0, 69, 0
1, 74040, Note_on_c, 0, 67, 80
1, 74100, Note_on_c, 0, 67, 0
1, 74100, Note_on_c, 0, 69, 80
1, 74160, Note_on_c, 0, 69, 0
1, 74160, Note_on_c, 0, 67, 80
1, 74160, Note_on_c, 1, 60, 0
1, 74160, Note_on_c, 1, 55, 0
1, 74160, Note_on_c, 1, 55, 80
1, 74160, Note_on_c, 1, 59, 80
1, 74280, Note_on_c, 0, 67, 0
1, 74280, Note_on_c, 0, 76, 80
1, 74280, Note_on_c, 1, 59, 0
1, 74280, Note_on_c, 1, 55, 0
1, 74400, Note_on_c, 0, 76, 0
1, 74400, Note_on_c, 0, 75, 80
1, 74400, Note_on_c, 1, 67, 80
1, 74400, Note_on_c, 1, 71, 80
1, 74448, Note_on_c, 1, 71, 0
1, 74448, Note_on_c, 1, 67, 0
1, 74460, Note_on_c, 0, 75, 0
1, 74460, Note_on_c, 0, 76, 80
1, 74520, Note_on_c, 0, 76, 0
1, 74520, Note_on_c, 0, 77, 80
1, 74520, Note_on_c, 1, 67, 80
1, 74520, Note_on_c, 1, 71, 80
1, 74568, Note_on_c, 1, 71, 0
1, 74568, Note_on_c, 1, 67, 0
1, 74580, Note_on_c, 0, 77, 0
1, 74580, Note_on_c, 0, 78, 80
1, 74640, Note_on_c, 0, 78, 0
1, 74640, Note_on_c, 0, 79, 80
1, 74640, Note_on_c, 1, 67, 80
1, 74640, Note_on_c, 1, 71, 80
1, 74688, Note_on_c, 1, 71, 0
1, 74688, Note_on_c, 1, 67, 0
1, 74700, Note_on_c, 0, 79, 0
1, 74700, Note_on_c, 0, 80, 80
1, 74760, Note_on_c, 0, 80, 0
1, 74760, Note_on_c, 0, 81, 80
1, 74760, Note_on_c, 1, 67, 80
1, 74760, Note_on_c, 1, 71, 80
1, 74808, Note_on_c, 1, 71, 0
1, 74808, Note_on_c, 1, 67, 0
1, 74820, Note_on_c, 0, 81, 0
1, 74820, Note_on_c, 0, 82, 80
1, 74880, Note_on_c, 0, 82, 0
1, 74880, Note_on_c, 0, 83, 80
1, 74880, Note_on_c, 1, 67, 80
1, 74880, Note_on_c, 1, 71, 80
1, 74928, Note_on_c, 1, 71, 0
1, 74928, Note_on_c, 1, 67, 0
1, 75000, Note_on_c, 1, 67, 80
1, 75000, Note_on_c, 1, 71, 80
1, 75048, Note_on_c, 1, 71, 0
1, 75048, Note_on_c, 1, 67, 0
1, 75120, Note_on_c, 0, 83, 0
1, 75120, Note_on_c, 0, 81, 80
1, 75120, Note_on_c, 1, 67, 80
1, 75120, Note_on_c, 1, 71, 80
1, 75168, Note_on_c, 1, 71, 0
1, 75168, Note_on_c, 1, 67, 0
1, 75180, Note_on_c, 0, 81, 0
1, 75180, Note_on_c, 0, 79, 80
1, 75240, Note_on_c, 0, 79, 0
1, 75240, Note_on_c, 0, 78, 80
1, 75240, Note_on_c, 1, 67, 80
1, 75240, Note_on_c, 1, 71, 80
1, 75288, Note_on_c, 1, 71, 0
1, 75288, Note_on_c, 1, 67, 0
1, 75300, Note_on_c, 0, 78, 0
1, 75300, Note_on_c, 0, 76, 80
1, 75360, Note_on_c, 0, 76, 0
1, 75360, Note_on_c, 0, 74, 80
1, 75360, Note_on_c, 1, 66, 80
1, 75360, Note_on_c, 1, 57, 80
1, 75408, Note_on_c, 1, 57, 0
1, 75408, Note_on_c, 1, 66, 0
1, 75480, Note_on_c, 1, 66, 80
1, 75480, Note_on_c, 1, 57, 80
1, 75528, Note_on_c, 1, 57, 0
1, 75528, Note_on_c, 1, 66, 0
1, 75600, Note_on_c, 0, 74, 0
1, 75600, Note_on_c, 0, 73, 80
1, 75600, Note_on_c, 1, 64, 80
1, 75600, Note_on_c, 1, 57, 80
1, 75630, Note_on_c, 0, 73, 0
1, 75630, Note_on_c, 0, 74, 80
1, 75648, Note_on_c, 1, 57, 0
1, 75648, Note_on_c, 1, 64, 0
1, 75660, Note_on_c, 0, 74, 0
1, 75660, Note_on_c, 0, 73, 80
1, 75690, Note_on_c, 0, 73, 0
1, 75690, Note_on_c, 0, 74, 80
1, 75720, Note_on_c, 0, 74, 0
1, 75720, Note_on_c, 0, 73, 80
1, 75720, Note_on_c, 1, 64, 80
1, 75720, Note_on_c, 1, 57, 80
1, 75740, Note_on_c, 0, 73, 0
1, 75740, Note_on_c, 0, 74, 80
1, 75760, Note_on_c, 0, 74, 0
1, 75760, Note_on_c, 0, 73, 80
1, 75768, Note_on_c, 1, 57, 0
1, 75768, Note_on_c, 1, 64, 0
1, 75780, Note_on_c, 0, 73, 0
1, 75780, Note_on_c, 0, 71, 80
1, 75810, Note_on_c, 0, 71, 0
1, 75810, Note_on_c, 0, 73, 80
1, 75840, Note_on_c, 0, 73, 0
1, 75840, Note_on_c, 0, 74, 80
1, 75840, Note_on_c, 1, 62, 80
1, 75840, Note_on_c, 1, 66, 80
1, 75888, Note_on_c, 1, 66, 0
1, 75888, Note_on_c, 1, 62, 0
1, 75900, Note_on_c, 0, 74, 0
1, 75900, Note_on_c, 0, 76, 80
1, 75960, Note_on_c, 0, 76, 0
1, 75960, Note_on_c, 0, 78, 80
1, 75960, Note_on_c, 1, 62, 80
1, 75960, Note_on_c, 1, 66, 80
1, 76008, Note_on_c, 1, 66, 0
1, 76008, Note_on_c, 1, 62, 0
1, 76020, Note_on_c, 0, 78, 0
1, 76020, Note_on_c, 0, 79, 80
1, 76080, Note_on_c, 0, 79, 0
1, 76080, Note_on_c, 0, 81, 80
1, 76080, Note_on_c, 1, 62, 80
1, 76080, Note_on_c, 1, 66, 80
1, 76128, Note_on_c, 1, 66, 0
1, 76128, Note_on_c, 1, 62, 0
1, 76140, Note_on_c, 0, 81, 0
1, 76140, Note_on_c, 0, 83, 80
1, 76200, Note_on_c, 0, 83, 0
1, 76200, Note_on_c, 0, 85, 80
1, 76200, Note_on_c, 1, 62, 80
1, 76200, Note_on_c, 1, 66, 80
1, 76248, Note_on_c, 1, 66, 0
1, 76248, Note_on_c, 1, 62, 0
1, 76260, Note_on_c, 0, 85, 0
1, 76260, Note_on_c, 0, 86, 80
1, 76320, Note_on_c, 0, 86, 0
1, 76320, Note_on_c, 0, 85, 80
1, 76320, Note_on_c, 1, 62, 80
1, 76320, Note_on_c, 1, 67, 80
1, 76368, Note_on_c, 1, 67, 0
1, 76368, Note_on_c, 1, 62, 0
1, 76380, Note_on_c, 0, 85, 0
1, 76380, Note_on_c, 0, 88, 80
1, 76440, Note_on_c, 0, 88, 0
1, 76440, Note_on_c, 0, 85, 80
1, 76440, Note_on_c, 1, 62, 80
1, 76440, Note_on_c, 1, 67, 80
1, 76488, Note_on_c, 1, 67, 0
1, 76488, Note_on_c, 1, 62, 0
1, 76500, Note_on_c, 0, 85, 0
1, 76500, Note_on_c, 0, 81, 80
1, 76560, Note_on_c, 0, 81, 0
1, 76560, Note_on_c, 0, 79, 80
1, 76560, Note_on_c, 1, 62, 80
1, 76560, Note_on_c, 1, 67, 80
1, 76608, Note_on_c, 1, 67, 0
1, 76608, Note_on_c, 1, 62, 0
1, 76620, Note_on_c, 0, 79, 0
1, 76620, Note_on_c, 0, 83, 80
1, 76680, Note_on_c, 0, 83, 0
1, 76680, Note_on_c, 0, 79, 80
1, 76680, Note_on_c, 1, 62, 80
1, 76680, Note_on_c, 1, 67, 80
1, 76728, Note_on_c, 1, 67, 0
1, 76728, Note_on_c, 1, 62, 0
1, 76740, Note_on_c, 0, 79, 0
1, 76740, Note_on_c, 0, 76, 80
1, 76800, Note_on_c, 0, 76, 0
1, 76800, Note_on_c, 0, 78, 80
1, 76800, Note_on_c, 1, 66, 80
1, 76800, Note_on_c, 1, 62, 80
1, 76848, Note_on_c, 1, 62, 0
1, 76848, Note_on_c, 1, 66, 0
1, 76860, Note_on_c, 0, 78, 0
1, 76860, Note_on_c, 0, 81, 80
1, 76920, Note_on_c, 0, 81, 0
1, 76920, Note_on_c, 0, 79, 80
1, 76920, Note_on_c, 1, 66, 80
1, 76920, Note_on_c, 1, 62, 80
1, 76968, Note_on_c, 1, 62, 0
1, 76968, Note_on_c, 1, 66, 0
1, 76980, Note_on_c, 0, 79, 0
1, 76980, Note_on_c, 0, 78, 80
1, 77040, Note_on_c, 0, 78, 0
1, 77040, Note_on_c, 0, 76, 80
1, 77040, Note_on_c, 1, 66, 80
1, 77040, Note_on_c, 1, 62, 80
1, 77088, Note_on_c, 1, 62, 0
1, 77088, Note_on_c, 1, 66, 0
1, 77100, Note_on_c, 0, 76, 0
1, 77100, Note_on_c, 0, 74, 80
1, 77160, Note_on_c, 0, 74, 0
1, 77160, Note_on_c, 0, 73, 80
1, 77160, Note_on_c, 1, 66, 80
1, 77160, Note_on_c, 1, 62, 80
1, 77208, Note_on_c, 1, 62, 0
1, 77208, Note_on_c, 1, 66, 0
1, 77220, Note_on_c, 0, 73, 0
1, 77220, Note_on_c, 0, 71, 80
1, 77280, Note_on_c, 0, 71, 0
1, 77280, Note_on_c, 0, 69, 80
1, 77280, Note_on_c, 1, 67, 80
1, 77280, Note_on_c, 1, 62, 80
1, 77328, Note_on_c, 1, 62, 0
1, 77328, Note_on_c, 1, 67, 0
1, 77340, Note_on_c, 0, 69, 0
1, 77340, Note_on_c, 0, 71, 80
1, 77400, Note_on_c, 0, 71, 0
1, 77400, Note_on_c, 0, 73, 80
1, 77400, Note_on_c, 1, 67, 80
1, 77400, Note_on_c, 1, 62, 80
1, 77448, Note_on_c, 1, 62, 0
1, 77448, Note_on_c, 1, 67, 0
1, 77460, Note_on_c, 0, 73, 0
1, 77460, Note_on_c, 0, 74, 80
1, 77520, Note_on_c, 0, 74, 0
1, 77520, Note_on_c, 0, 76, 80
1, 77520, Note_on_c, 1, 67, 80
1, 77520, Note_on_c, 1, 62, 80
1, 77568, Note_on_c, 1, 62, 0
1, 77568, Note_on_c, 1, 67, 0
1, 77580, Note_on_c, 0, 76, 0
1, 77580, Note_on_c, 0, 78, 80
1, 77640, Note_on_c, 0, 78, 0
1, 77640, Note_on_c, 0, 79, 80
1, 77640, Note_on_c, 1, 67, 80
1, 77640, Note_on_c, 1, 62, 80
1, 77688, Note_on_c, 1, 62, 0
1, 77688, Note_on_c, 1, 67, 0
1, 77700, Note_on_c, 0, 79, 0
1, 77700, Note_on_c, 0, 76, 80
1, 77760, Note_on_c, 0, 76, 0
1, 77760, Note_on_c, 0, 74, 80
1, 77760, Note_on_c, 1, 62, 80
1, 77760, Note_on_c, 1, 66, 80
1, 77808, Note_on_c, 1, 66, 0
1, 77808, Note_on_c, 1, 62, 0
1, 77820, Note_on_c, 0, 74, 0
1, 77820, Note_on_c, 0, 76, 80
1, 77880, Note_on_c, 0, 76, 0
1, 77880, Note_on_c, 0, 78, 80
1, 77880, Note_on_c, 1, 62, 80
1, 77880, Note_on_c, 1, 66, 80
1, 77928, Note_on_c, 1, 66, 0
1, 77928, Note_on_c, 1, 62, 0
1, 77940, Note_on_c, 0, 78, 0
1, 77940, Note_on_c, 0, 79, 80
1, 78000, Note_on_c, 0, 79, 0
1, 78000, Note_on_c, 0, 81, 80
1, 78000, Note_on_c, 1, 62, 80
1, 78000, Note_on_c, 1, 66, 80
1, 78048, Note_on_c, 1, 66, 0
1, 78048, Note_on_c, 1, 62, 0
1, 78060, Note_on_c, 0, 81, 0
1, 78060, Note_on_c, 0, 83, 80
1, 78120, Note_on_c, 0, 83, 0
1, 78120, Note_on_c, 0, 85, 80
1, 78120, Note_on_c, 1, 62, 80
1, 78120, Note_on_c, 1, 66, 80
1, 78168, Note_on_c, 1, 66, 0
1, 78168, Note_on_c, 1, 62, 0
1, 78180, Note_on_c, 0, 85, 0
1, 78180, Note_on_c, 0, 86, 80
1, 78240, Note_on_c, 0, 86, 0
1, 78240, Note_on_c, 0, 74, 80
1, 78240, Note_on_c, 1, 62, 80
1, 78240, Note_on_c, 1, 66, 80
1, 78480, Note_on_c, 0, 74, 0
1, 78480, Note_on_c, 1, 66, 0
1, 78480, Note_on_c, 1, 62, 0
1, 78720, Note_on_c, 0, 67, 80
1, 78720, Note_on_c, 1, 55, 80
1, 78720, Note_on_c, 1, 59, 80
1, 78768, Note_on_c, 1, 59, 0
1, 78768, Note_on_c, 1, 55, 0
1, 78840, Note_on_c, 1, 55, 80
1, 78840, Note_on_c, 1, 59, 80
1, 78888, Note_on_c, 1, 59, 0
1, 78888, Note_on_c, 1, 55, 0
1, 78900, Note_on_c, 0, 67, 0
1, 78900, Note_on_c, 0, 71, 80
1, 78930, Note_on_c, 0, 71, 0
1, 78930, Note_on_c, 0, 69, 80
1, 78960, Note_on_c, 0, 69, 0
1, 78960, Note_on_c, 0, 67, 80
1, 78960, Note_on_c, 1, 55, 80
1, 78960, Note_on_c, 1, 59, 80
1, 79008, Note_on_c, 1, 59, 0
1, 79008, Note_on_c, 1, 55, 0
1, 79020, Note_on_c, 0, 67, 0
1, 79020, Note_on_c, 0, 62, 80
1, 79080, Note_on_c, 0, 62, 0
1, 79080, Note_on_c, 0, 71, 80
1, 79080, Note_on_c, 1, 55, 80
1, 79080, Note_on_c, 1, 59, 80
1, 79128, Note_on_c, 1, 59, 0
1, 79128, Note_on_c, 1, 55, 0
1, 79140, Note_on_c, 0, 71, 0
1, 79140, Note_on_c, 0, 69, 80
1, 79200, Note_on_c, 0, 69, 0
1, 79200, Note_on_c, 0, 67, 80
1, 79200, Note_on_c, 1, 55, 80
1, 79200, Note_on_c, 1, 59, 80
1, 79248, Note_on_c, 1, 59, 0
1, 79248, Note_on_c, 1, 55, 0
1, 79260, Note_on_c, 0, 67, 0
1, 79260, Note_on_c, 0, 62, 80
1, 79320, Note_on_c, 0, 62, 0
1, 79320, Note_on_c, 0, 67, 80
1, 79320, Note_on_c, 1, 55, 80
1, 79320, Note_on_c, 1, 59, 80
1, 79368, Note_on_c, 1, 59, 0
1, 79368, Note_on_c, 1, 55, 0
1, 79380, Note_on_c, 0, 67, 0
1, 79380, Note_on_c, 0, 71, 80
1, 79440, Note_on_c, 0, 71, 0
1, 79440, Note_on_c, 0, 74, 80
1, 79440, Note_on_c, 1, 55, 80
1, 79440, Note_on_c, 1, 59, 80
1, 79488, Note_on_c, 1, 59, 0
1, 79488, Note_on_c, 1, 55, 0
1, 79500, Note_on_c, 0, 74, 0
1, 79500, Note_on_c, 0, 71, 80
1, 79560, Note_on_c, 0, 71, 0
1, 79560, Note_on_c, 0, 69, 80
1, 79560, Note_on_c, 1, 55, 80
1, 79560, Note_on_c, 1, 59, 80
1, 79608, Note_on_c, 1, 59, 0
1, 79608, Note_on_c, 1, 55, 0
1, 79620, Note_on_c, 0, 69, 0
1, 79620, Note_on_c, 0, 67, 80
1, 79680, Note_on_c, 0, 67, 0
1, 79680, Note_on_c, 0, 71, 80
1, 79680, Note_on_c, 1, 55, 80
1, 79680, Note_on_c, 1, 60, 80
1, 79740, Note_on_c, 0, 71, 0
1, 79740, Note_on_c, 0, 69, 80
1, 79800, Note_on_c, 0, 69, 0
1, 79800, Note_on_c, 0, 67, 80
1, 79860, Note_on_c, 0, 67, 0
1, 79860, Note_on_c, 0, 69, 80
1, 79920, Note_on_c, 0, 69, 0
1, 79920, Note_on_c, 0, 67, 80
1, 79920, Note_on_c, 1, 60, 0
1, 79920, Note_on_c, 1, 55, 0
1, 79920, Note_on_c, 1, 55, 80
1, 79920, Note_on_c, 1, 59, 80
1, 79968, Note_on_c, 0, 67, 0
1, 80040, Note_on_c, 0, 74, 80
1, 80040, Note_on_c, 1, 59, 0
1, 80040, Note_on_c, 1, 55, 0
1, 80088, Note_on_c, 0, 74, 0
1, 80160, Note_on_c, 0, 74, 80
1, 80160, Note_on_c, 1, 65, 80
1, 80208, Note_on_c, 0, 74, 0
1, 80220, Note_on_c, 1, 65, 0
1, 80220, Note_on_c, 1, 67, 80
1, 80280, Note_on_c, 0, 74, 80
1, 80280, Note_on_c, 1, 67, 0
1, 80280, Note_on_c, 1, 65, 80
1, 80328, Note_on_c, 0, 74, 0
1, 80340, Note_on_c, 1, 65, 0
1, 80340, Note_on_c, 1, 67, 80
1, 80400, Note_on_c, 0, 74, 80
1, 80400, Note_on_c, 1, 67, 0
1, 80400, Note_on_c, 1, 65, 80
1, 80448, Note_on_c, 0, 74, 0
1, 80460, Note_on_c, 1, 65, 0
1, 80460, Note_on_c, 1, 67, 80
1, 80520, Note_on_c, 0, 74, 80
1, 80520, Note_on_c, 1, 67, 0
1, 80520, Note_on_c, 1, 65, 80
1, 80568, Note_on_c, 0, 74, 0
1, 80580, Note_on_c, 1, 65, 0
1, 80580, Note_on_c, 1, 67, 80
1, 80640, Note_on_c, 0, 74, 80
1, 80640, Note_on_c, 1, 67, 0
1, 80640, Note_on_c, 1, 64, 80
1, 80700, Note_on_c, 0, 74, 0
1, 80700, Note_on_c, 0, 79, 80
1, 80760, Note_on_c, 0, 79, 0
1, 80760, Note_on_c, 0, 76, 80
1, 80820, Note_on_c, 0, 76, 0
1, 80820, Note_on_c, 0, 74, 80
1, 80880, Note_on_c, 0, 74, 0
1, 80880, Note_on_c, 0, 72, 80
1, 80880, Note_on_c, 1, 64, 0
1, 80940, Note_on_c, 0, 72, 0
1, 80940, Note_on_c, 0, 76, 80
1, 81000, Note_on_c, 0, 76, 0
1, 81000, Note_on_c, 0, 72, 80
1, 81000, Note_on_c, 1, 64, 80
1, 81060, Note_on_c, 0, 72, 0
1, 81060, Note_on_c, 0, 71, 80
1, 81060, Note_on_c, 1, 64, 0
1, 81060, Note_on_c, 1, 62, 80
1, 81120, Note_on_c, 0, 71, 0
1, 81120, Note_on_c, 0, 69, 80
1, 81120, Note_on_c, 1, 62, 0
1, 81120, Note_on_c, 1, 60, 80
1, 81180, Note_on_c, 0, 69, 0
1, 81180, Note_on_c, 0, 88, 80
1, 81240, Note_on_c, 0, 88, 0
1, 81240, Note_on_c, 0, 84, 80
1, 81300, Note_on_c, 0, 84, 0
1, 81300, Note_on_c, 0, 83, 80
1, 81360, Note_on_c, 0, 83, 0
1, 81360, Note_on_c, 0, 81, 80
1, 81360, Note_on_c, 1, 60, 0
1, 81420, Note_on_c, 0, 81, 0
1, 81420, Note_on_c, 0, 84, 80
1, 81480, Note_on_c, 0, 84, 0
1, 81480, Note_on_c, 0, 81, 80
1, 81480, Note_on_c, 1, 61, 80
1, 81540, Note_on_c, 0, 81, 0
1, 81540, Note_on_c, 0, 79, 80
1, 81600, Note_on_c, 0, 79, 0
1, 81600, Note_on_c, 0, 78, 80
1, 81600, Note_on_c, 1, 61, 0
1, 81600, Note_on_c, 1, 62, 80
1, 81660, Note_on_c, 0, 78, 0
1, 81660, Note_on_c, 0, 79, 80
1, 81720, Note_on_c, 0, 79, 0
1, 81720, Note_on_c, 0, 81, 80
1, 81780, Note_on_c, 0, 81, 0
1, 81780, Note_on_c, 0, 79, 80
1, 81840, Note_on_c, 0, 79, 0
1, 81840, Note_on_c, 0, 78, 80
1, 81900, Note_on_c, 0, 78, 0
1, 81900, Note_on_c, 0, 76, 80
1, 81960, Note_on_c, 0, 76, 0
1, 81960, Note_on_c, 0, 74, 80
1, 82020, Note_on_c, 0, 74, 0
1, 82020, Note_on_c, 0, 73, 80
1, 82080, Note_on_c, 0, 73, 0
1, 82080, Note_on_c, 0, 74, 80
1, 82080, Note_on_c, 1, 62, 0
1, 82080, Note_on_c, 1, 50, 80
1, 82140, Note_on_c, 0, 74, 0
1, 82140, Note_on_c, 0, 86, 80
1, 82200, Note_on_c, 0, 86, 0
1, 82200, Note_on_c, 0, 72, 80
1, 82260, Note_on_c, 0, 72, 0
1, 82260, Note_on_c, 0, 84, 80
1, 82320, Note_on_c, 0, 84, 0
1, 82320, Note_on_c, 0, 71, 80
1, 82320, Note_on_c, 1, 50, 0
1, 82380, Note_on_c, 0, 71, 0
1, 82380, Note_on_c, 0, 83, 80
1, 82440, Note_on_c, 0, 83, 0
1, 82440, Note_on_c, 0, 69, 80
1, 82500, Note_on_c, 0, 69, 0
1, 82500, Note_on_c, 0, 81, 80
1, 82560, Note_on_c, 0, 81, 0
1, 82560, Note_on_c, 0, 67, 80
1, 82560, Note_on_c, 1, 55, 80
1, 82560, Note_on_c, 1, 59, 80
1, 82608, Note_on_c, 1, 59, 0
1, 82608, Note_on_c, 1, 55, 0
1, 82680, Note_on_c, 1, 55, 80
1, 82680, Note_on_c, 1, 59, 80
1, 82728, Note_on_c, 1, 59, 0
1, 82728, Note_on_c, 1, 55, 0
1, 82740, Note_on_c, 0, 67, 0
1, 82740, Note_on_c, 0, 71, 80
1, 82770, Note_on_c, 0, 71, 0
1, 82770, Note_on_c, 0, 69, 80
1, 82800, Note_on_c, 0, 69, 0
1, 82800, Note_on_c, 0, 67, 80
1, 82800, Note_on_c, 1, 55, 80
1, 82800, Note_on_c, 1, 59, 80
1, 82848, Note_on_c, 1, 59, 0
1, 82848, Note_on_c, 1, 55, 0
1, 82860, Note_on_c, 0, 67, 0
1, 82860, Note_on_c, 0, 62, 80
1, 82920, Note_on_c, 0, 62, 0
1, 82920, Note_on_c, 0, 71, 80
1, 82920, Note_on_c, 1, 55, 80
1, 82920, Note_on_c, 1, 59, 80
1, 82968, Note_on_c, 1, 59, 0
1, 82968, Note_on_c, 1, 55, 0
1, 82980, Note_on_c, 0, 71, 0
1, 82980, Note_on_c, 0, 69, 80
1, 83040, Note_on_c, 0, 69, 0
1, 83040, Note_on_c, 0, 67, 80
1, 83040, Note_on_c, 1, 55, 80
1, 83040, Note_on_c, 1, 59, 80
1, 83088, Note_on_c, 1, 59, 0
1, 83088, Note_on_c, 1, 55, 0
1, 83100, Note_on_c, 0, 67, 0
1, 83100, Note_on_c, 0, 62, 80
1, 83160, Note_on_c, 0, 62, 0
1, 83160, Note_on_c, 0, 67, 80
1, 83160, Note_on_c, 1, 55, 80
1, 83160, Note_on_c, 1, 59, 80
1, 83208, Note_on_c, 1, 59, 0
1, 83208, Note_on_c, 1, 55, 0
1, 83220, Note_on_c, 0, 67, 0
1, 83220, Note_on_c, 0, 71, 80
1, 83280, Note_on_c, 0, 71, 0
1, 83280, Note_on_c, 0, 74, 80
1, 83280, Note_on_c, 1, 55, 80
1, 83280, Note_on_c, 1, 59, 80
1, 83328, Note_on_c, 1, 59, 0
1, 83328, Note_on_c, 1, 55, 0
1, 83340, Note_on_c, 0, 74, 0
1, 83340, Note_on_c, 0, 71, 80
1, 83400, Note_on_c, 0, 71, 0
1, 83400, Note_on_c, 0, 69, 80
1, 83400, Note_on_c, 1, 55, 80
1, 83400, Note_on_c, 1, 59, 80
1, 83448, Note_on_c, 1, 59, 0
1, 83448, Note_on_c, 1, 55, 0
1, 83460, Note_on_c, 0, 69, 0
1, 83460, Note_on_c, 0, 67, 80
1, 83520, Note_on_c, 0, 67, 0
1, 83520, Note_on_c, 0, 71, 80
1, 83520, Note_on_c, 1, 60, 80
1, 83520, Note_on_c, 1, 55, 80
1, 83580, Note_on_c, 0, 71, 0
1, 83580, Note_on_c, 0, 69, 80
1, 83640, Note_on_c, 0, 69, 0
1, 83640, Note_on_c, 0, 67, 80
1, 83700, Note_on_c, 0, 67, 0
1, 83700, Note_on_c, 0, 69, 80
1, 83760, Note_on_c, 0, 69, 0
1, 83760, Note_on_c, 0, 67, 80
1, 83760, Note_on_c, 1, 55, 0
1, 83760, Note_on_c, 1, 60, 0
1, 83760, Note_on_c, 1, 59, 80
1, 83760, Note_on_c, 1, 55, 80
1, 83808, Note_on_c, 1, 55, 0
1, 83808, Note_on_c, 1, 59, 0
1, 83880, Note_on_c, 0, 67, 0
1, 83880, Note_on_c, 0, 76, 80
1, 84000, Note_on_c, 0, 76, 0
1, 84000, Note_on_c, 0, 75, 80
1, 84000, Note_on_c, 1, 71, 80
1, 84000, Note_on_c, 1, 67, 80
1, 84048, Note_on_c, 1, 67, 0
1, 84048, Note_on_c, 1, 71, 0
1, 84060, Note_on_c, 0, 75, 0
1, 84060, Note_on_c, 0, 76, 80
1, 84120, Note_on_c, 0, 76, 0
1, 84120, Note_on_c, 0, 77, 80
1, 84120, Note_on_c, 1, 71, 80
1, 84120, Note_on_c, 1, 67, 80
1, 84168, Note_on_c, 1, 67, 0
1, 84168, Note_on_c, 1, 71, 0
1, 84180, Note_on_c, 0, 77, 0
1, 84180, Note_on_c, 0, 78, 80
1, 84240, Note_on_c, 0, 78, 0
1, 84240, Note_on_c, 0, 79, 80
1, 84240, Note_on_c, 1, 71, 80
1, 84240, Note_on_c, 1, 67, 80
1, 84288, Note_on_c, 1, 67, 0
1, 84288, Note_on_c, 1, 71, 0
1, 84300, Note_on_c, 0, 79, 0
1, 84300, Note_on_c, 0, 80, 80
1, 84360, Note_on_c, 0, 80, 0
1, 84360, Note_on_c, 0, 81, 80
1, 84360, Note_on_c, 1, 71, 80
1, 84360, Note_on_c, 1, 67, 80
1, 84408, Note_on_c, 1, 67, 0
1, 84408, Note_on_c, 1, 71, 0
1, 84420, Note_on_c, 0, 81, 0
1, 84420, Note_on_c, 0, 82, 80
1, 84480, Note_on_c, 0, 82, 0
1, 84480, Note_on_c, 0, 83, 80
1, 84480, Note_on_c, 1, 71, 80
1, 84480, Note_on_c, 1, 67, 80
1, 84528, Note_on_c, 1, 67, 0
1, 84528, Note_on_c, 1, 71, 0
1, 84600, Note_on_c, 1, 71, 80
1, 84600, Note_on_c, 1, 67, 80
1, 84648, Note_on_c, 1, 67, 0
1, 84648, Note_on_c, 1, 71, 0
1, 84720, Note_on_c, 0, 83, 0
1, 84720, Note_on_c, 0, 81, 80
1, 84720, Note_on_c, 1, 71, 80
1, 84720, Note_on_c, 1, 67, 80
1, 84768, Note_on_c, 1, 67, 0
1, 84768, Note_on_c, 1, 71, 0
1, 84780, Note_on_c, 0, 81, 0
1, 84780, Note_on_c, 0, 79, 80
1, 84840, Note_on_c, 0, 79, 0
1, 84840, Note_on_c, 0, 78, 80
1, 84840, Note_on_c, 1, 71, 80
1, 84840, Note_on_c, 1, 67, 80
1, 84888, Note_on_c, 1, 67, 0
1, 84888, Note_on_c, 1, 71, 0
1, 84900, Note_on_c, 0, 78, 0
1, 84900, Note_on_c, 0, 76, 80
1, 84960, Note_on_c, 0, 76, 0
1, 84960, Note_on_c, 0, 74, 80
1, 84960, Note_on_c, 1, 57, 80
1, 84960, Note_on_c, 1, 66, 80
1, 85008, Note_on_c, 1, 66, 0
1, 85008, Note_on_c, 1, 57, 0
1, 85080, Note_on_c, 1, 57, 80
1, 85080, Note_on_c, 1, 66, 80
1, 85128, Note_on_c, 1, 66, 0
1, 85128, Note_on_c, 1, 57, 0
1, 85200, Note_on_c, 0, 74, 0
1, 85200, Note_on_c, 0, 73, 80
1, 85200, Note_on_c, 1, 57, 80
1, 85200, Note_on_c, 1, 64, 80
1, 85230, Note_on_c, 0, 73, 0
1, 85230, Note_on_c, 0, 74, 80
1, 85248, Note_on_c, 1, 64, 0
1, 85248, Note_on_c, 1, 57, 0
1, 85260, Note_on_c, 0, 74, 0
1, 85260, Note_on_c, 0, 73, 80
1, 85290, Note_on_c, 0, 73, 0
1, 85290, Note_on_c, 0, 74, 80
1, 85320, Note_on_c, 0, 74, 0
1, 85320, Note_on_c, 0, 73, 80
1, 85320, Note_on_c, 1, 57, 80
1, 85320, Note_on_c, 1, 64, 80
1, 85340, Note_on_c, 0, 73, 0
1, 85340, Note_on_c, 0, 74, 80
1, 85360, Note_on_c, 0, 74, 0
1, 85360, Note_on_c, 0, 73, 80
1, 85368, Note_on_c, 1, 64, 0
1, 85368, Note_on_c, 1, 57, 0
1, 85380, Note_on_c, 0, 73, 0
1, 85380, Note_on_c, 0, 71, 80
1, 85410, Note_on_c, 0, 71, 0
1, 85410, Note_on_c, 0, 73, 80
1, 85440, Note_on_c, 0, 73, 0
1, 85440, Note_on_c, 0, 74, 80
1, 85440, Note_on_c, 1, 66, 80
1, 85440, Note_on_c, 1, 62, 80
1, 85488, Note_on_c, 1, 62, 0
1, 85488, Note_on_c, 1, 66, 0
1, 85500, Note_on_c, 0, 74, 0
1, 85500, Note_on_c, 0, 76, 80
1, 85560, Note_on_c, 0, 76, 0
1, 85560, Note_on_c, 0, 78, 80
1, 85560, Note_on_c, 1, 66, 80
1, 85560, Note_on_c, 1, 62, 80
1, 85608, Note_on_c, 1, 62, 0
1, 85608, Note_on_c, 1, 66, 0
1, 85620, Note_on_c, 0, 78, 0
1, 85620, Note_on_c, 0, 79, 80
1, 85680, Note_on_c, 0, 79, 0
1, 85680, Note_on_c, 0, 81, 80
1, 85680, Note_on_c, 1, 66, 80
1, 85680, Note_on_c, 1, 62, 80
1, 85728, Note_on_c, 1, 62, 0
1, 85728, Note_on_c, 1, 66, 0
1, 85740, Note_on_c, 0, 81, 0
1, 85740, Note_on_c, 0, 83, 80
1, 85800, Note_on_c, 0, 83, 0
1, 85800, Note_on_c, 0, 85, 80
1, 85800, Note_on_c, 1, 66, 80
1, 85800, Note_on_c, 1, 62, 80
1, 85848, Note_on_c, 1, 62, 0
1, 85848, Note_on_c, 1, 66, 0
1, 85860, Note_on_c, 0, 85, 0
1, 85860, Note_on_c, 0, 86, 80
1, 85920, Note_on_c, 0, 86, 0
1, 85920, Note_on_c, 0, 85, 80
1, 85920, Note_on_c, 1, 67, 80
1, 85920, Note_on_c, 1, 62, 80
1, 85968, Note_on_c, 1, 62, 0
1, 85968, Note_on_c, 1, 67, 0
1, 85980, Note_on_c, 0, 85, 0
1, 85980, Note_on_c, 0, 88, 80
1, 86040, Note_on_c, 0, 88, 0
1, 86040, Note_on_c, 0, 85, 80
1, 86040, Note_on_c, 1, 67, 80
1, 86040, Note_on_c, 1, 62, 80
1, 86088, Note_on_c, 1, 62, 0
1, 86088, Note_on_c, 1, 67, 0
1, 86100, Note_on_c, 0, 85, 0
1, 86100, Note_on_c, 0, 81, 80
1, 86160, Note_on_c, 0, 81, 0
1, 86160, Note_on_c, 0, 79, 80
1, 86160, Note_on_c, 1, 67, 80
1, 86160, Note_on_c, 1, 62, 80
1, 86208, Note_on_c, 1, 62, 0
1, 86208, Note_on_c, 1, 67, 0
1, 86220, Note_on_c, 0, 79, 0
1, 86220, Note_on_c, 0, 83, 80
1, 86280, Note_on_c, 0, 83, 0
1, 86280, Note_on_c, 0, 79, 80
1, 86280, Note_on_c, 1, 67, 80
1, 86280, Note_on_c, 1, 62, 80
1, 86328, Note_on_c, 1, 62, 0
1, 86328, Note_on_c, 1, 67, 0
1, 86340, Note_on_c, 0, 79, 0
1, 86340, Note_on_c, 0, 76, 80
1, 86400, Note_on_c, 0, 76, 0
1, 86400, Note_on_c, 0, 78, 80
1, 86400, Note_on_c, 1, 62, 80
1, 86400, Note_on_c, 1, 66, 80
1, 86448, Note_on_c, 0, 78, 0
1, 86448, Note_on_c, 1, 66, 0
1, 86448, Note_on_c, 1, 62, 0
1, 86460, Note_on_c, 0, 81, 80
1, 86508, Note_on_c, 0, 81, 0
1, 86520, Note_on_c, 0, 79, 80
1, 86520, Note_on_c, 1, 62, 80
1, 86520, Note_on_c, 1, 66, 80
1, 86568, Note_on_c, 0, 79, 0
1, 86568, Note_on_c, 1, 66, 0
1, 86568, Note_on_c, 1, 62, 0
1, 86580, Note_on_c, 0, 78, 80
1, 86628, Note_on_c, 0, 78, 0
1, 86640, Note_on_c, 0, 76, 80
1, 86640, Note_on_c, 1, 62, 80
1, 86640, Note_on_c, 1, 66, 80
1, 86688, Note_on_c, 0, 76, 0
1, 86688, Note_on_c, 1, 66, 0
1, 86688, Note_on_c, 1, 62, 0
1, 86700, Note_on_c, 0, 74, 80
1, 86748, Note_on_c, 0, 74, 0
1, 86760, Note_on_c, 0, 73, 80
1, 86760, Note_on_c, 1, 62, 80
1, 86760, Note_on_c, 1, 66, 80
1, 86808, Note_on_c, 0, 73, 0
1, 86808, Note_on_c, 1, 66, 0
1, 86808, Note_on_c, 1, 62, 0
1, 86820, Note_on_c, 0, 71, 80
1, 86868, Note_on_c, 0, 71, 0
1, 86880, Note_on_c, 0, 69, 80
1, 86880, Note_on_c, 1, 62, 80
1, 86880, Note_on_c, 1, 67, 80
1, 86928, Note_on_c, 0, 69, 0
1, 86928, Note_on_c, 1, 67, 0
1, 86928, Note_on_c, 1, 62, 0
1, 86940, Note_on_c, 0, 71, 80
1, 86988, Note_on_c, 0, 71, 0
1, 87000, Note_on_c, 0, 73, 80
1, 87000, Note_on_c, 1, 62, 80
1, 87000, Note_on_c, 1, 67, 80
1, 87048, Note_on_c, 0, 73, 0
1, 87048, Note_on_c, 1, 67, 0
1, 87048, Note_on_c, 1, 62, 0
1, 87060, Note_on_c, 0, 74, 80
1, 87108, Note_on_c, 0, 74, 0
1, 87120, Note_on_c, 0, 76, 80
1, 87120, Note_on_c, 1, 62, 80
1, 87120, Note_on_c, 1, 67, 80
1, 87168, Note_on_c, 0, 76, 0
1, 87168, Note_on_c, 1, 67, 0
1, 87168, Note_on_c, 1, 62, 0
1, 87180, Note_on_c, 0, 78, 80
1, 87228, Note_on_c, 0, 78, 0
1, 87240, Note_on_c, 0, 79, 80
1, 87240, Note_on_c, 1, 62, 80
1, 87240, Note_on_c, 1, 67, 80
1, 87288, Note_on_c, 0, 79, 0
1, 87288, Note_on_c, 1, 67, 0
1, 87288, Note_on_c, 1, 62, 0
1, 87300, Note_on_c, 0, 76, 80
1, 87348, Note_on_c, 0, 76, 0
1, 87360, Note_on_c, 0, 74, 80
1, 87360, Note_on_c, 1, 66, 80
1, 87360, Note_on_c, 1, 62, 80
1, 87408, Note_on_c, 1, 62, 0
1, 87408, Note_on_c, 1, 66, 0
1, 87420, Note_on_c, 0, 74, 0
1, 87420, Note_on_c, 0, 76, 80
1, 87480, Note_on_c, 0, 76, 0
1, 87480, Note_on_c, 0, 78, 80
1, 87480, Note_on_c, 1, 66, 80
1, 87480, Note_on_c, 1, 62, 80
1, 87528, Note_on_c, 1, 62, 0
1, 87528, Note_on_c, 1, 66, 0
1, 87540, Note_on_c, 0, 78, 0
1, 87540, Note_on_c, 0, 79, 80
1, 87600, Note_on_c, 0, 79, 0
1, 87600, Note_on_c, 0, 81, 80
1, 87600, Note_on_c, 1, 66, 80
1, 87600, Note_on_c, 1, 62, 80
1, 87648, Note_on_c, 1, 62, 0
1, 87648, Note_on_c, 1, 66, 0
1, 87660, Note_on_c, 0, 81, 0
1, 87660, Note_on_c, 0, 83, 80
1, 87720, Note_on_c, 0, 83, 0
1, 87720, Note_on_c, 0, 85, 80
1, 87720, Note_on_c, 1, 66, 80
1, 87720, Note_on_c, 1, 62, 80
1, 87768, Note_on_c, 1, 62, 0
1, 87768, Note_on_c, 1, 66, 0
1, 87780, Note_on_c, 0, 85, 0
1, 87780, Note_on_c, 0, 86, 80
1, 87840, Note_on_c, 0, 86, 0
1, 87840, Note_on_c, 0, 74, 80
1, 87840, Note_on_c, 1, 66, 80
1, 87840, Note_on_c, 1, 62, 80
1, 88080, Note_on_c, 0, 74, 0
1, 88080, Note_on_c, 1, 62, 0
1, 88080, Note_on_c, 1, 66, 0
1, 88320, Note_on_c, 0, 77, 80
1, 88320, Note_on_c, 1, 58, 80
1, 88380, Note_on_c, 1, 58, 0
1, 88380, Note_on_c, 1, 65, 80
1, 88440, Note_on_c, 1, 65, 0
1, 88440, Note_on_c, 1, 62, 80
1, 88500, Note_on_c, 0, 77, 0
1, 88500, Note_on_c, 0, 74, 80
1, 88500, Note_on_c, 1, 62, 0
1, 88500, Note_on_c, 1, 65, 80
1, 88530, Note_on_c, 0, 74, 0
1, 88530, Note_on_c, 0, 75, 80
1, 88560, Note_on_c, 0, 75, 0
1, 88560, Note_on_c, 0, 77, 80
1, 88560, Note_on_c, 1, 65, 0
1, 88560, Note_on_c, 1, 58, 80
1, 88620, Note_on_c, 1, 58, 0
1, 88620, Note_on_c, 1, 65, 80
1, 88680, Note_on_c, 0, 77, 0
1, 88680, Note_on_c, 0, 89, 96
1, 88680, Note_on_c, 1, 65, 0
1, 88680, Note_on_c, 1, 62, 80
1, 88740, Note_on_c, 1, 62, 0
1, 88740, Note_on_c, 1, 65, 80
1, 88800, Note_on_c, 1, 65, 0
1, 88800, Note_on_c, 1, 60, 80
1, 88860, Note_on_c, 1, 60, 0
1, 88860, Note_on_c, 1, 65, 80
1, 88920, Note_on_c, 0, 89, 0
1, 88920, Note_on_c, 0, 69, 80
1, 88920, Note_on_c, 1, 65, 0
1, 88920, Note_on_c, 1, 63, 80
1, 88968, Note_on_c, 0, 69, 0
1, 88980, Note_on_c, 1, 63, 0
1, 88980, Note_on_c, 1, 65, 80
1, 89040, Note_on_c, 0, 69, 80
1, 89040, Note_on_c, 1, 65, 0
1, 89040, Note_on_c, 1, 60, 80
1, 89088, Note_on_c, 0, 69, 0
1, 89100, Note_on_c, 1, 60, 0
1, 89100, Note_on_c, 1, 65, 80
1, 89160, Note_on_c, 0, 69, 80
1, 89160, Note_on_c, 1, 65, 0
1, 89160, Note_on_c, 1, 63, 80
1, 89208, Note_on_c, 0, 69, 0
1, 89220, Note_on_c, 1, 63, 0
1, 89220, Note_on_c, 1, 65, 80
1, 89280, Note_on_c, 0, 70, 80
1, 89280, Note_on_c, 1, 65, 0
1, 89280, Note_on_c, 1, 58, 80
1, 89340, Note_on_c, 1, 58, 0
1, 89340, Note_on_c, 1, 65, 80
1, 89400, Note_on_c, 1, 65, 0
1, 89400, Note_on_c, 1, 62, 80
1, 89460, Note_on_c, 0, 70, 0
1, 89460, Note_on_c, 0, 70, 80
1, 89460, Note_on_c, 1, 62, 0
1, 89460, Note_on_c, 1, 65, 80
1, 89490, Note_on_c, 0, 70, 0
1, 89490, Note_on_c, 0, 72, 80
1, 89520, Note_on_c, 0, 72, 0
1, 89520, Note_on_c, 0, 74, 80
1, 89520, Note_on_c, 1, 65, 0
1, 89520, Note_on_c, 1, 58, 80
1, 89580, Note_on_c, 1, 58, 0
1, 89580, Note_on_c, 1, 65, 80
1, 89640, Note_on_c, 0, 74, 0
1, 89640, Note_on_c, 0, 86, 96
1, 89640, Note_on_c, 1, 65, 0
1, 89640, Note_on_c, 1, 62, 80
1, 89700, Note_on_c, 1, 62, 0
1, 89700, Note_on_c, 1, 65, 80
1, 89760, Note_on_c, 1, 65, 0
1, 89760, Note_on_c, 1, 57, 80
1, 89820, Note_on_c, 1, 57, 0
1, 89820, Note_on_c, 1, 62, 80
1, 89880, Note_on_c, 0, 86, 0
1, 89880, Note_on_c, 0, 66, 80
1, 89880, Note_on_c, 1, 62, 0
1, 89880, Note_on_c, 1, 60, 80
1, 89928, Note_on_c, 0, 66, 0
1, 89940, Note_on_c, 1, 60, 0
1, 89940, Note_on_c, 1, 62, 80
1, 90000, Note_on_c, 0, 66, 80
1, 90000, Note_on_c, 1, 62, 0
1, 90000, Note_on_c, 1, 57, 80
1, 90048, Note_on_c, 0, 66, 0
1, 90060, Note_on_c, 1, 57, 0
1, 90060, Note_on_c, 1, 62, 80
1, 90120, Note_on_c, 0, 66, 80
1, 90120, Note_on_c, 1, 62, 0
1, 90120, Note_on_c, 1, 60, 80
1, 90168, Note_on_c, 0, 66, 0
1, 90180, Note_on_c, 1, 60, 0
1, 90180, Note_on_c, 1, 62, 80
1, 90240, Note_on_c, 0, 67, 80
1, 90240, Note_on_c, 1, 62, 0
1, 90240, Note_on_c, 1, 55, 80
1, 90300, Note_on_c, 1, 55, 0
1, 90300, Note_on_c, 1, 62, 80
1, 90360, Note_on_c, 1, 62, 0
1, 90360, Note_on_c, 1, 58, 80
1, 90420, Note_on_c, 0, 67, 0
1, 90420, Note_on_c, 0, 67, 80
1, 90420, Note_on_c, 1, 58, 0
1, 90420, Note_on_c, 1, 62, 80
1, 90450, Note_on_c, 0, 67, 0
1, 90450, Note_on_c, 0, 69, 80
1, 90480, Note_on_c, 0, 69, 0
1, 90480, Note_on_c, 0, 70, 80
1, 90480, Note_on_c, 1, 62, 0
1, 90480, Note_on_c, 1, 55, 80
1, 90540, Note_on_c, 1, 55, 0
1, 90540, Note_on_c, 1, 62, 80
1, 90600, Note_on_c, 0, 70, 0
1, 90600, Note_on_c, 0, 82, 96
1, 90600, Note_on_c, 1, 62, 0
1, 90600, Note_on_c, 1, 58, 80
1, 90660, Note_on_c, 1, 58, 0
1, 90660, Note_on_c, 1, 62, 80
1, 90720, Note_on_c, 1, 62, 0
1, 90720, Note_on_c, 1, 51, 80
1, 90780, Note_on_c, 1, 51, 0
1, 90780, Note_on_c, 1, 55, 80
1, 90840, Note_on_c, 0, 82, 0
1, 90840, Note_on_c, 0, 61, 80
1, 90840, Note_on_c, 1, 55, 0
1, 90840, Note_on_c, 1, 54, 80
1, 90888, Note_on_c, 0, 61, 0
1, 90900, Note_on_c, 1, 54, 0
1, 90900, Note_on_c, 1, 55, 80
1, 90960, Note_on_c, 0, 61, 80
1, 90960, Note_on_c, 1, 55, 0
1, 90960, Note_on_c, 1, 51, 80
1, 91008, Note_on_c, 0, 61, 0
1, 91020, Note_on_c, 1, 51, 0
1, 91020, Note_on_c, 1, 55, 80
1, 91080, Note_on_c, 0, 61, 80
1, 91080, Note_on_c, 1, 55, 0
1, 91080, Note_on_c, 1, 54, 80
1, 91128, Note_on_c, 0, 61, 0
1, 91140, Note_on_c, 1, 54, 0
1, 91140, Note_on_c, 1, 55, 80
1, 91200, Note_on_c, 0, 62, 80
1, 91200, Note_on_c, 1, 55, 0
1, 91200, Note_on_c, 1, 50, 80
1, 91260, Note_on_c, 0, 62, 0
1, 91260, Note_on_c, 0, 64, 80
1, 91320, Note_on_c, 0, 64, 0
1, 91320, Note_on_c, 0, 66, 80
1, 91380, Note_on_c, 0, 66, 0
1, 91380, Note_on_c, 0, 67, 80
1, 91440, Note_on_c, 0, 67, 0
1, 91440, Note_on_c, 0, 69, 80
1, 91440, Note_on_c, 1, 50, 0
1, 91500, Note_on_c, 0, 69, 0
1, 91500, Note_on_c, 0, 67, 80
1, 91560, Note_on_c, 0, 67, 0
1, 91560, Note_on_c, 0, 66, 80
1, 91620, Note_on_c, 0, 66, 0
1, 91620, Note_on_c, 0, 64, 80
1, 91680, Note_on_c, 0, 64, 0
1, 91680, Note_on_c, 0, 62, 80
1, 91680, Note_on_c, 1, 38, 80
1, 91740, Note_on_c, 1, 38, 0
1, 91740, Note_on_c, 1, 50, 80
1, 91800, Note_on_c, 1, 50, 0
1, 91800, Note_on_c, 1, 36, 80
1, 91860, Note_on_c, 1, 36, 0
1, 91860, Note_on_c, 1, 48, 80
1, 91920, Note_on_c, 0, 62, 0
1, 91920, Note_on_c, 1, 48, 0
1, 91920, Note_on_c, 1, 35, 80
1, 91980, Note_on_c, 1, 35, 0
1, 91980, Note_on_c, 1, 47, 80
1, 92040, Note_on_c, 1, 47, 0
1, 92040, Note_on_c, 1, 33, 80
1, 92100, Note_on_c, 1, 33, 0
1, 92100, Note_on_c, 1, 45, 80
1, 92160, Note_on_c, 0, 67, 80
1, 92160, Note_on_c, 1, 45, 0
1, 92160, Note_on_c, 1, 31, 80
1, 92340, Note_on_c, 0, 67, 0
1, 92340, Note_on_c, 0, 71, 80
1, 92370, Note_on_c, 0, 71, 0
1, 92370, Note_on_c, 0, 69, 80
1, 92400, Note_on_c, 0, 69, 0
1, 92400, Note_on_c, 0, 67, 80
1, 92400, Note_on_c, 1, 31, 0
1, 92400, Note_on_c, 1, 55, 80
1, 92400, Note_on_c, 1, 59, 80
1, 92448, Note_on_c, 1, 59, 0
1, 92448, Note_on_c, 1, 55, 0
1, 92460, Note_on_c, 0, 67, 0
1, 92460, Note_on_c, 0, 62, 80
1, 92520, Note_on_c, 0, 62, 0
1, 92520, Note_on_c, 0, 71, 80
1, 92520, Note_on_c, 1, 55, 80
1, 92520, Note_on_c, 1, 59, 80
1, 92568, Note_on_c, 1, 59, 0
1, 92568, Note_on_c, 1, 55, 0
1, 92580, Note_on_c, 0, 71, 0
1, 92580, Note_on_c, 0, 69, 80
1, 92640, Note_on_c, 0, 69, 0
1, 92640, Note_on_c, 0, 67, 80
1, 92640, Note_on_c, 1, 55, 80
1, 92640, Note_on_c, 1, 59, 80
1, 92688, Note_on_c, 1, 59, 0
1, 92688, Note_on_c, 1, 55, 0
1, 92700, Note_on_c, 0, 67, 0
1, 92700, Note_on_c, 0, 62, 80
1, 92760, Note_on_c, 0, 62, 0
1, 92760, Note_on_c, 0, 67, 80
1, 92760, Note_on_c, 1, 55, 80
1, 92760, Note_on_c, 1, 59, 80
1, 92808, Note_on_c, 1, 59, 0
1, 92808, Note_on_c, 1, 55, 0
1, 92820, Note_on_c, 0, 67, 0
1, 92820, Note_on_c, 0, 71, 80
1, 92880, Note_on_c, 0, 71, 0
1, 92880, Note_on_c, 0, 74, 80
1, 92880, Note_on_c, 1, 55, 80
1, 92880, Note_on_c, 1, 59, 80
1, 92928, Note_on_c, 1, 59, 0
1, 92928, Note_on_c, 1, 55, 0
1, 92940, Note_on_c, 0, 74, 0
1, 92940, Note_on_c, 0, 71, 80
1, 93000, Note_on_c, 0, 71, 0
1, 93000, Note_on_c, 0, 69, 80
1, 93000, Note_on_c, 1, 55, 80
1, 93000, Note_on_c, 1, 59, 80
1, 93048, Note_on_c, 1, 59, 0
1, 93048, Note_on_c, 1, 55, 0
1, 93060, Note_on_c, 0, 69, 0
1, 93060, Note_on_c, 0, 67, 80
1, 93120, Note_on_c, 0, 67, 0
1, 93120, Note_on_c, 0, 71, 80
1, 93120, Note_on_c, 1, 55, 80
1, 93120, Note_on_c, 1, 60, 80
1, 93180, Note_on_c, 0, 71, 0
1, 93180, Note_on_c, 0, 69, 80
1, 93240, Note_on_c, 0, 69, 0
1, 93240, Note_on_c, 0, 67, 80
1, 93300, Note_on_c, 0, 67, 0
1, 93300, Note_on_c, 0, 69, 80
1, 93360, Note_on_c, 0, 69, 0
1, 93360, Note_on_c, 0, 67, 80
1, 93360, Note_on_c, 1, 60, 0
1, 93360, Note_on_c, 1, 55, 0
1, 93360, Note_on_c, 1, 55, 80
1, 93360, Note_on_c, 1, 59, 80
1, 93444, Note_on_c, 0, 67, 0
1, 93444, Note_on_c, 1, 59, 0
1, 93444, Note_on_c, 1, 55, 0
1, 93480, Note_on_c, 0, 88, 80
1, 93540, Note_on_c, 0, 88, 0
1, 93540, Note_on_c, 0, 76, 80
1, 93600, Note_on_c, 0, 76, 0
1, 93600, Note_on_c, 0, 88, 80
1, 93600, Note_on_c, 1, 68, 80
1, 93600, Note_on_c, 1, 74, 80
1, 93648, Note_on_c, 1, 74, 0
1, 93648, Note_on_c, 1, 68, 0
1, 93660, Note_on_c, 0, 88, 0
1, 93660, Note_on_c, 0, 76, 80
1, 93720, Note_on_c, 0, 76, 0
1, 93720, Note_on_c, 0, 88, 80
1, 93720, Note_on_c, 1, 68, 80
1, 93720, Note_on_c, 1, 74, 80
1, 93768, Note_on_c, 1, 74, 0
1, 93768, Note_on_c, 1, 68, 0
1, 93780, Note_on_c, 0, 88, 0
1, 93780, Note_on_c, 0, 76, 80
1, 93840, Note_on_c, 0, 76, 0
1, 93840, Note_on_c, 0, 88, 80
1, 93840, Note_on_c, 1, 68, 80
1, 93840, Note_on_c, 1, 74, 80
1, 93888, Note_on_c, 1, 74, 0
1, 93888, Note_on_c, 1, 68, 0
1, 93900, Note_on_c, 0, 88, 0
1, 93900, Note_on_c, 0, 76, 80
1, 93960, Note_on_c, 0, 76, 0
1, 93960, Note_on_c, 0, 88, 80
1, 93960, Note_on_c, 1, 68, 80
1, 93960, Note_on_c, 1, 74, 80
1, 94008, Note_on_c, 1, 74, 0
1, 94008, Note_on_c, 1, 68, 0
1, 94020, Note_on_c, 0, 88, 0
1, 94020, Note_on_c, 0, 76, 80
1, 94080, Note_on_c, 0, 76, 0
1, 94080, Note_on_c, 0, 88, 80
1, 94080, Note_on_c, 1, 69, 80
1, 94080, Note_on_c, 1, 72, 80
1, 94230, Note_on_c, 0, 88, 0
1, 94230, Note_on_c, 0, 86, 80
1, 94260, Note_on_c, 0, 86, 0
1, 94260, Note_on_c, 0, 84, 80
1, 94290, Note_on_c, 0, 84, 0
1, 94290, Note_on_c, 0, 83, 80
1, 94320, Note_on_c, 0, 83, 0
1, 94320, Note_on_c, 0, 81, 80
1, 94320, Note_on_c, 1, 72, 0
1, 94320, Note_on_c, 1, 69, 0
1, 94404, Note_on_c, 0, 81, 0
1, 94440, Note_on_c, 0, 86, 80
1, 94440, Note_on_c, 1, 66, 80
1, 94440, Note_on_c, 1, 72, 80
1, 94488, Note_on_c, 1, 72, 0
1, 94488, Note_on_c, 1, 66, 0
1, 94500, Note_on_c, 0, 86, 0
1, 94500, Note_on_c, 0, 74, 80
1, 94560, Note_on_c, 0, 74, 0
1, 94560, Note_on_c, 0, 86, 80
1, 94560, Note_on_c, 1, 66, 80
1, 94560, Note_on_c, 1, 72, 80
1, 94608, Note_on_c, 1, 72, 0
1, 94608, Note_on_c, 1, 66, 0
1, 94620, Note_on_c, 0, 86, 0
1, 94620, Note_on_c, 0, 74, 80
1, 94680, Note_on_c, 0, 74, 0
1, 94680, Note_on_c, 0, 86, 80
1, 94680, Note_on_c, 1, 66, 80
1, 94680, Note_on_c, 1, 72, 80
1, 94728, Note_on_c, 1, 72, 0
1, 94728, Note_on_c, 1, 66, 0
1, 94740, Note_on_c, 0, 86, 0
1, 94740, Note_on_c, 0, 74, 80
1, 94800, Note_on_c, 0, 74, 0
1, 94800, Note_on_c, 0, 86, 80
1, 94800, Note_on_c, 1, 66, 80
1, 94800, Note_on_c, 1, 72, 80
1, 94848, Note_on_c, 1, 72, 0
1, 94848, Note_on_c, 1, 66, 0
1, 94860, Note_on_c, 0, 86, 0
1, 94860, Note_on_c, 0, 74, 80
1, 94920, Note_on_c, 0, 74, 0
1, 94920, Note_on_c, 0, 86, 80
1, 94920, Note_on_c, 1, 66, 80
1, 94920, Note_on_c, 1, 72, 80
1, 94968, Note_on_c, 1, 72, 0
1, 94968, Note_on_c, 1, 66, 0
1, 94980, Note_on_c, 0, 86, 0
1, 94980, Note_on_c, 0, 74, 80
1, 95040, Note_on_c, 0, 74, 0
1, 95040, Note_on_c, 0, 86, 80
1, 95040, Note_on_c, 1, 71, 80
1, 95040, Note_on_c, 1, 67, 80
1, 95190, Note_on_c, 0, 86, 0
1, 95190, Note_on_c, 0, 84, 80
1, 95220, Note_on_c, 0, 84, 0
1, 95220, Note_on_c, 0, 83, 80
1, 95250, Note_on_c, 0, 83, 0
1, 95250, Note_on_c, 0, 81, 80
1, 95280, Note_on_c, 0, 81, 0
1, 95280, Note_on_c, 0, 79, 80
1, 95280, Note_on_c, 1, 67, 0
1, 95280, Note_on_c, 1, 71, 0
1, 95400, Note_on_c, 0, 79, 0
1, 96360, Note_on_c, 0, 86, 56
1, 96390, Note_on_c, 0, 86, 0
1, 96390, Note_on_c, 0, 84, 56
1, 96420, Note_on_c, 0, 84, 0
1, 96420, Note_on_c, 0, 83, 56
1, 96450, Note_on_c, 0, 83, 0
1, 96450, Note_on_c, 0, 81, 56
1, 96480, Note_on_c, 0, 81, 0
1, 96480, Note_on_c, 0, 79, 56
1, 96528, Note_on_c, 0, 79, 0
1, 96600, Note_on_c, 0, 83, 56
1, 96630, Note_on_c, 0, 83, 0
1, 96630, Note_on_c, 0, 81, 56
1, 96660, Note_on_c, 0, 81, 0
1, 96660, Note_on_c, 0, 79, 56
1, 96690, Note_on_c, 0, 79, 0
1, 96690, Note_on_c, 0, 78, 56
1, 96720, Note_on_c, 0, 78, 0
1, 96720, Note_on_c, 0, 76, 56
1, 96768, Note_on_c, 0, 76, 0
1, 96840, Note_on_c, 0, 79, 56
1, 96870, Note_on_c, 0, 79, 0
1, 96870, Note_on_c, 0, 78, 56
1, 96900, Note_on_c, 0, 78, 0
1, 96900, Note_on_c, 0, 76, 56
1, 96930, Note_on_c, 0, 76, 0
1, 96930, Note_on_c, 0, 74, 56
1, 96960, Note_on_c, 0, 74, 0
1, 96960, Note_on_c, 0, 72, 56
1, 96960, Note_on_c, 1, 64, 56
1, 96960, Note_on_c, 1, 67, 56
1, 97200, Note_on_c, 0, 72, 0
1, 97200, Note_on_c, 1, 67, 0
1, 97200, Note_on_c, 1, 64, 0
1, 97320, Note_on_c, 0, 79, 80
1, 97350, Note_on_c, 0, 79, 0
1, 97350, Note_on_c, 0, 77, 80
1, 97380, Note_on_c, 0, 77, 0
1, 97380, Note_on_c, 0, 75, 80
1, 97410, Note_on_c, 0, 75, 0
1, 97410, Note_on_c, 0, 74, 80
1, 97440, Note_on_c, 0, 74, 0
1, 97440, Note_on_c, 0, 72, 80
1, 97440, Note_on_c, 1, 63, 80
1, 97500, Note_on_c, 1, 63, 0
1, 97500, Note_on_c, 1, 67, 80
1, 97524, Note_on_c, 0, 72, 0
1, 97560, Note_on_c, 0, 83, 80
1, 97560, Note_on_c, 1, 67, 0
1, 97560, Note_on_c, 1, 63, 80
1, 97620, Note_on_c, 1, 63, 0
1, 97620, Note_on_c, 1, 67, 80
1, 97680, Note_on_c, 0, 83, 0
1, 97680, Note_on_c, 0, 84, 80
1, 97680, Note_on_c, 1, 67, 0
1, 97680, Note_on_c, 1, 63, 80
1, 97728, Note_on_c, 0, 84, 0
1, 97740, Note_on_c, 1, 63, 0
1, 97740, Note_on_c, 1, 67, 80
1, 97800, Note_on_c, 0, 84, 80
1, 97800, Note_on_c, 1, 67, 0
1, 97800, Note_on_c, 1, 63, 80
1, 97848, Note_on_c, 0, 84, 0
1, 97860, Note_on_c, 1, 63, 0
1, 97860, Note_on_c, 1, 67, 80
1, 97920, Note_on_c, 0, 84, 80
1, 97920, Note_on_c, 1, 67, 0
1, 97920, Note_on_c, 1, 62, 80
1, 97920, Note_on_c, 1, 66, 80
1, 97980, Note_on_c, 0, 84, 0
1, 97980, Note_on_c, 0, 83, 80
1, 98040, Note_on_c, 0, 83, 0
1, 98040, Note_on_c, 0, 84, 80
1, 98100, Note_on_c, 0, 84, 0
1, 98100, Note_on_c, 0, 81, 80
1, 98160, Note_on_c, 0, 81, 0
1, 98160, Note_on_c, 0, 83, 80
1, 98160, Note_on_c, 1, 66, 0
1, 98160, Note_on_c, 1, 62, 0
1, 98160, Note_on_c, 1, 67, 80
1, 98220, Note_on_c, 0, 83, 0
1, 98220, Note_on_c, 0, 81, 80
1, 98280, Note_on_c, 0, 81, 0
1, 98280, Note_on_c, 0, 83, 80
1, 98340, Note_on_c, 0, 83, 0
1, 98340, Note_on_c, 0, 79, 80
1, 98400, Note_on_c, 0, 79, 0
1, 98400, Note_on_c, 0, 81, 80
1, 98400, Note_on_c, 1, 67, 0
1, 98400, Note_on_c, 1, 60, 80
1, 98400, Note_on_c, 1, 72, 80
1, 98460, Note_on_c, 0, 81, 0
1, 98460, Note_on_c, 0, 80, 80
1, 98520, Note_on_c, 0, 80, 0
1, 98520, Note_on_c, 0, 81, 80
1, 98580, Note_on_c, 0, 81, 0
1, 98580, Note_on_c, 0, 76, 80
1, 98640, Note_on_c, 0, 76, 0
1, 98640, Note_on_c, 0, 79, 80
1, 98640, Note_on_c, 1, 72, 0
1, 98640, Note_on_c, 1, 60, 0
1, 98640, Note_on_c, 1, 62, 80
1, 98640, Note_on_c, 1, 72, 80
1, 98700, Note_on_c, 0, 79, 0
1, 98700, Note_on_c, 0, 78, 80
1, 98760, Note_on_c, 0, 78, 0
1, 98760, Note_on_c, 0, 76, 80
1, 98820, Note_on_c, 0, 76, 0
1, 98820, Note_on_c, 0, 74, 80
1, 98880, Note_on_c, 0, 74, 0
1, 98880, Note_on_c, 0, 79, 80
1, 98880, Note_on_c, 1, 72, 0
1, 98880, Note_on_c, 1, 62, 0
1, 98880, Note_on_c, 1, 67, 80
1, 98880, Note_on_c, 1, 71, 80
1, 98928, Note_on_c, 1, 71, 0
1, 98928, Note_on_c, 1, 67, 0
1, 98940, Note_on_c, 0, 79, 0
1, 98940, Note_on_c, 0, 74, 80
1, 99000, Note_on_c, 0, 74, 0
1, 99000, Note_on_c, 0, 79, 80
1, 99000, Note_on_c, 1, 67, 80
1, 99000, Note_on_c, 1, 71, 80
1, 99048, Note_on_c, 1, 71, 0
1, 99048, Note_on_c, 1, 67, 0
1, 99060, Note_on_c, 0, 79, 0
1, 99060, Note_on_c, 0, 83, 80
1, 99120, Note_on_c, 0, 83, 0
1, 99120, Note_on_c, 0, 86, 80
1, 99120, Note_on_c, 1, 67, 80
1, 99120, Note_on_c, 1, 71, 80
1, 99168, Note_on_c, 1, 71, 0
1, 99168, Note_on_c, 1, 67, 0
1, 99180, Note_on_c, 0, 86, 0
1, 99180, Note_on_c, 0, 83, 80
1, 99240, Note_on_c, 0, 83, 0
1, 99240, Note_on_c, 0, 81, 80
1, 99240, Note_on_c, 1, 67, 80
1, 99240, Note_on_c, 1, 71, 80
1, 99288, Note_on_c, 1, 71, 0
1, 99288, Note_on_c, 1, 67, 0
1, 99300, Note_on_c, 0, 81, 0
1, 99300, Note_on_c, 0, 79, 80
1, 99360, Note_on_c, 0, 79, 0
1, 99360, Note_on_c, 0, 78, 80
1, 99360, Note_on_c, 1, 67, 80
1, 99360, Note_on_c, 1, 72, 80
1, 99408, Note_on_c, 1, 72, 0
1, 99408, Note_on_c, 1, 67, 0
1, 99420, Note_on_c, 0, 78, 0
1, 99420, Note_on_c, 0, 74, 80
1, 99480, Note_on_c, 0, 74, 0
1, 99480, Note_on_c, 0, 78, 80
1, 99480, Note_on_c, 1, 67, 80
1, 99480, Note_on_c, 1, 72, 80
1, 99528, Note_on_c, 1, 72, 0
1, 99528, Note_on_c, 1, 67, 0
1, 99540, Note_on_c, 0, 78, 0
1, 99540, Note_on_c, 0, 81, 80
1, 99600, Note_on_c, 0, 81, 0
1, 99600, Note_on_c, 0, 84, 80
1, 99600, Note_on_c, 1, 67, 80
1, 99600, Note_on_c, 1, 72, 80
1, 99648, Note_on_c, 1, 72, 0
1, 99648, Note_on_c, 1, 67, 0
1, 99660, Note_on_c, 0, 84, 0
1, 99660, Note_on_c, 0, 81, 80
1, 99720, Note_on_c, 0, 81, 0
1, 99720, Note_on_c, 0, 79, 80
1, 99720, Note_on_c, 1, 67, 80
1, 99720, Note_on_c, 1, 72, 80
1, 99768, Note_on_c, 1, 72, 0
1, 99768, Note_on_c, 1, 67, 0
1, 99780, Note_on_c, 0, 79, 0
1, 99780, Note_on_c, 0, 78, 80
1, 99840, Note_on_c, 0, 78, 0
1, 99840, Note_on_c, 0, 79, 56
1, 99840, Note_on_c, 1, 71, 56
1, 99840, Note_on_c, 1, 67, 56
1, 99888, Note_on_c, 1, 67, 0
1, 99888, Note_on_c, 1, 71, 0
1, 99900, Note_on_c, 0, 79, 0
1, 99900, Note_on_c, 0, 74, 58
1, 99960, Note_on_c, 0, 74, 0
1, 99960, Note_on_c, 0, 79, 59
1, 99960, Note_on_c, 1, 71, 59
1, 99960, Note_on_c, 1, 67, 59
1, 100008, Note_on_c, 1, 67, 0
1, 100008, Note_on_c, 1, 71, 0
1, 100020, Note_on_c, 0, 79, 0
1, 100020, Note_on_c, 0, 83, 61
1, 100080, Note_on_c, 0, 83, 0
1, 100080, Note_on_c, 0, 86, 62
1, 100080, Note_on_c, 1, 71, 62
1, 100080, Note_on_c, 1, 67, 62
1, 100128, Note_on_c, 1, 67, 0
1, 100128, Note_on_c, 1, 71, 0
1, 100140, Note_on_c, 0, 86, 0
1, 100140, Note_on_c, 0, 83, 64
1, 100200, Note_on_c, 0, 83, 0
1, 100200, Note_on_c, 0, 81, 65
1, 100200, Note_on_c, 1, 71, 65
1, 100200, Note_on_c, 1, 67, 65
1, 100248, Note_on_c, 1, 67, 0
1, 100248, Note_on_c, 1, 71, 0
1, 100260, Note_on_c, 0, 81, 0
1, 100260, Note_on_c, 0, 79, 67
1, 100320, Note_on_c, 0, 79, 0
1, 100320, Note_on_c, 0, 78, 68
1, 100320, Note_on_c, 1, 72, 68
1, 100320, Note_on_c, 1, 67, 68
1, 100368, Note_on_c, 1, 67, 0
1, 100368, Note_on_c, 1, 72, 0
1, 100380, Note_on_c, 0, 78, 0
1, 100380, Note_on_c, 0, 74, 70
1, 100440, Note_on_c, 0, 74, 0
1, 100440, Note_on_c, 0, 78, 71
1, 100440, Note_on_c, 1, 72, 71
1, 100440, Note_on_c, 1, 67, 71
1, 100488, Note_on_c, 1, 67, 0
1, 100488, Note_on_c, 1, 72, 0
1, 100500, Note_on_c, 0, 78, 0
1, 100500, Note_on_c, 0, 81, 73
1, 100560, Note_on_c, 0, 81, 0
1, 100560, Note_on_c, 0, 84, 74
1, 100560, Note_on_c, 1, 72, 74
1, 100560, Note_on_c, 1, 67, 74
1, 100608, Note_on_c, 1, 67, 0
1, 100608, Note_on_c, 1, 72, 0
1, 100620, Note_on_c, 0, 84, 0
1, 100620, Note_on_c, 0, 81, 76
1, 100680, Note_on_c, 0, 81, 0
1, 100680, Note_on_c, 0, 79, 77
1, 100680, Note_on_c, 1, 72, 77
1, 100680, Note_on_c, 1, 67, 77
1, 100728, Note_on_c, 1, 67, 0
1, 100728, Note_on_c, 1, 72, 0
1, 100740, Note_on_c, 0, 79, 0
1, 100740, Note_on_c, 0, 78, 79
1, 100800, Note_on_c, 0, 78, 0
1, 100800, Note_on_c, 0, 79, 80
1, 100800, Note_on_c, 1, 67, 80
1, 100800, Note_on_c, 1, 71, 80
1, 100860, Note_on_c, 0, 79, 0
1, 100860, Note_on_c, 0, 83, 80
1, 100920, Note_on_c, 0, 83, 0
1, 100920, Note_on_c, 0, 79, 80
1, 100980, Note_on_c, 0, 79, 0
1, 100980, Note_on_c, 0, 74, 80
1, 101040, Note_on_c, 0, 74, 0
1, 101040, Note_on_c, 0, 71, 80
1, 101040, Note_on_c, 1, 71, 0
1, 101040, Note_on_c, 1, 67, 0
1, 101100, Note_on_c, 0, 71, 0
1, 101100, Note_on_c, 0, 67, 80
1, 101160, Note_on_c, 0, 67, 0
1, 101160, Note_on_c, 0, 62, 80
1, 101220, Note_on_c, 0, 62, 0
1, 101220, Note_on_c, 0, 59, 80
1, 101280, Note_on_c, 0, 59, 0
1, 101280, Note_on_c, 0, 55, 80
1, 101400, Note_on_c, 0, 55, 0
1, 101760, Note_on_c, 0, 77, 80
1, 101760, Note_on_c, 1, 58, 80
1, 101820, Note_on_c, 1, 58, 0
1, 101820, Note_on_c, 1, 65, 80
1, 101880, Note_on_c, 1, 65, 0
1, 101880, Note_on_c, 1, 62, 80
1, 101940, Note_on_c, 0, 77, 0
1, 101940, Note_on_c, 0, 74, 80
1, 101940, Note_on_c, 1, 62, 0
1, 101940, Note_on_c, 1, 65, 80
1, 101970, Note_on_c, 0, 74, 0
1, 101970, Note_on_c, 0, 75, 80
1, 102000, Note_on_c, 0, 75, 0
1, 102000, Note_on_c, 0, 77, 80
1, 102000, Note_on_c, 1, 65, 0
1, 102000, Note_on_c, 1, 58, 80
1, 102060, Note_on_c, 1, 58, 0
1, 102060, Note_on_c, 1, 65, 80
1, 102120, Note_on_c, 0, 77, 0
1, 102120, Note_on_c, 0, 89, 96
1, 102120, Note_on_c, 1, 65, 0
1, 102120, Note_on_c, 1, 62, 80
1, 102180, Note_on_c, 1, 62, 0
1, 102180, Note_on_c, 1, 65, 80
1, 102240, Note_on_c, 1, 65, 0
1, 102240, Note_on_c, 1, 60, 80
1, 102300, Note_on_c, 1, 60, 0
1, 102300, Note_on_c, 1, 65, 80
1, 102360, Note_on_c, 0, 89, 0
1, 102360, Note_on_c, 0, 69, 80
1, 102360, Note_on_c, 1, 65, 0
1, 102360, Note_on_c, 1, 63, 80
1, 102408, Note_on_c, 0, 69, 0
1, 102420, Note_on_c, 1, 63, 0
1, 102420, Note_on_c, 1, 65, 80
1, 102480, Note_on_c, 0, 69, 80
1, 102480, Note_on_c, 1, 65, 0
1, 102480, Note_on_c, 1, 60, 80
1, 102528, Note_on_c, 0, 69, 0
1, 102540, Note_on_c, 1, 60, 0
1, 102540, Note_on_c, 1, 65, 80
1, 102600, Note_on_c, 0, 69, 80
1, 102600, Note_on_c, 1, 65, 0
1, 102600, Note_on_c, 1, 63, 80
1, 102648, Note_on_c, 0, 69, 0
1, 102660, Note_on_c, 1, 63, 0
1, 102660, Note_on_c, 1, 65, 80
1, 102720, Note_on_c, 0, 70, 80
1, 102720, Note_on_c, 1, 65, 0
1, 102720, Note_on_c, 1, 58, 80
1, 102780, Note_on_c, 1, 58, 0
1, 102780, Note_on_c, 1, 65, 80
1, 102840, Note_on_c, 1, 65, 0
1, 102840, Note_on_c, 1, 62, 80
1, 102900, Note_on_c, 0, 70, 0
1, 102900, Note_on_c, 0, 70, 80
1, 102900, Note_on_c, 1, 62, 0
1, 102900, Note_on_c, 1, 65, 80
1, 102930, Note_on_c, 0, 70, 0
1, 102930, Note_on_c, 0, 72, 80
1, 102960, Note_on_c, 0, 72, 0
1, 102960, Note_on_c, 0, 74, 80
1, 102960, Note_on_c, 1, 65, 0
1, 102960, Note_on_c, 1, 58, 80
1, 103020, Note_on_c, 1, 58, 0
1, 103020, Note_on_c, 1, 65, 80
1, 103080, Note_on_c, 0, 74, 0
1, 103080, Note_on_c, 0, 86, 96
1, 103080, Note_on_c, 1, 65, 0
1, 103080, Note_on_c, 1, 62, 80
1, 103140, Note_on_c, 1, 62, 0
1, 103140, Note_on_c, 1, 65, 80
1, 103200, Note_on_c, 1, 65, 0
1, 103200, Note_on_c, 1, 57, 80
1, 103260, Note_on_c, 1, 57, 0
1, 103260, Note_on_c, 1, 62, 80
1, 103320, Note_on_c, 0, 86, 0
1, 103320, Note_on_c, 0, 66, 80
1, 103320, Note_on_c, 1, 62, 0
1, 103320, Note_on_c, 1, 60, 80
1, 103368, Note_on_c, 0, 66, 0
1, 103380, Note_on_c, 1, 60, 0
1, 103380, Note_on_c, 1, 62, 80
1, 103440, Note_on_c, 0, 66, 80
1, 103440, Note_on_c, 1, 62, 0
1, 103440, Note_on_c, 1, 57, 80
1, 103488, Note_on_c, 0, 66, 0
1, 103500, Note_on_c, 1, 57, 0
1, 103500, Note_on_c, 1, 62, 80
1, 103560, Note_on_c, 0, 66, 80
1, 103560, Note_on_c, 1, 62, 0
1, 103560, Note_on_c, 1, 60, 80
1, 103608, Note_on_c, 0, 66, 0
1, 103620, Note_on_c, 1, 60, 0
1, 103620, Note_on_c, 1, 62, 80
1, 103680, Note_on_c, 0, 67, 80
1, 103680, Note_on_c, 1, 62, 0
1, 103680, Note_on_c, 1, 55, 80
1, 103740, Note_on_c, 1, 55, 0
1, 103740, Note_on_c, 1, 62, 80
1, 103800, Note_on_c, 1, 62, 0
1, 103800, Note_on_c, 1, 58, 80
1, 103860, Note_on_c, 0, 67, 0
1, 103860, Note_on_c, 0, 67, 80
1, 103860, Note_on_c, 1, 58, 0
1, 103860, Note_on_c, 1, 62, 80
1, 103890, Note_on_c, 0, 67, 0
1, 103890, Note_on_c, 0, 69, 80
1, 103920, Note_on_c, 0, 69, 0
1, 103920, Note_on_c, 0, 70, 80
1, 103920, Note_on_c, 1, 62, 0
1, 103920, Note_on_c, 1, 55, 80
1, 103980, Note_on_c, 1, 55, 0
1, 103980, Note_on_c, 1, 62, 80
1, 104040, Note_on_c, 0, 70, 0
1, 104040, Note_on_c, 0, 82, 96
1, 104040, Note_on_c, 1, 62, 0
1, 104040, Note_on_c, 1, 58, 80
1, 104100, Note_on_c, 1, 58, 0
1, 104100, Note_on_c, 1, 62, 80
1, 104160, Note_on_c, 1, 62, 0
1, 104160, Note_on_c, 1, 51, 80
1, 104220, Note_on_c, 1, 51, 0
1, 104220, Note_on_c, 1, 55, 80
1, 104280, Note_on_c, 0, 82, 0
1, 104280, Note_on_c, 0, 61, 80
1, 104280, Note_on_c, 1, 55, 0
1, 104280, Note_on_c, 1, 54, 80
1, 104328, Note_on_c, 0, 61, 0
1, 104340, Note_on_c, 1, 54, 0
1, 104340, Note_on_c, 1, 55, 80
1, 104400, Note_on_c, 0, 61, 80
1, 104400, Note_on_c, 1, 55, 0
1, 104400, Note_on_c, 1, 51, 80
1, 104448, Note_on_c, 0, 61, 0
1, 104460, Note_on_c, 1, 51, 0
1, 104460, Note_on_c, 1, 55, 80
1, 104520, Note_on_c, 0, 61, 80
1, 104520, Note_on_c, 1, 55, 0
1, 104520, Note_on_c, 1, 54, 80
1, 104568, Note_on_c, 0, 61, 0
1, 104580, Note_on_c, 1, 54, 0
1, 104580, Note_on_c, 1, 55, 80
1, 104640, Note_on_c, 0, 62, 80
1, 104640, Note_on_c, 1, 55, 0
1, 104640, Note_on_c, 1, 50, 80
1, 104700, Note_on_c, 0, 62, 0
1, 104700, Note_on_c, 0, 64, 80
1, 104760, Note_on_c, 0, 64, 0
1, 104760, Note_on_c, 0, 66, 80
1, 104820, Note_on_c, 0, 66, 0
1, 104820, Note_on_c, 0, 67, 80
1, 104880, Note_on_c, 0, 67, 0
1, 104880, Note_on_c, 0, 69, 80
1, 104880, Note_on_c, 1, 50, 0
1, 104940, Note_on_c, 0, 69, 0
1, 104940, Note_on_c, 0, 67, 80
1, 105000, Note_on_c, 0, 67, 0
1, 105000, Note_on_c, 0, 66, 80
1, 105060, Note_on_c, 0, 66, 0
1, 105060, Note_on_c, 0, 64, 80
1, 105120, Note_on_c, 0, 64, 0
1, 105120, Note_on_c, 0, 62, 80
1, 105120, Note_on_c, 1, 38, 80
1, 105180, Note_on_c, 1, 38, 0
1, 105180, Note_on_c, 1, 50, 80
1, 105240, Note_on_c, 1, 50, 0
1, 105240, Note_on_c, 1, 36, 80
1, 105300, Note_on_c, 1, 36, 0
1, 105300, Note_on_c, 1, 48, 80
1, 105360, Note_on_c, 0, 62, 0
1, 105360, Note_on_c, 1, 48, 0
1, 105360, Note_on_c, 1, 35, 80
1, 105420, Note_on_c, 1, 35, 0
1, 105420, Note_on_c, 1, 47, 80
1, 105480, Note_on_c, 1, 47, 0
1, 105480, Note_on_c, 1, 33, 80
1, 105540, Note_on_c, 1, 33, 0
1, 105540, Note_on_c, 1, 45, 80
1, 105600, Note_on_c, 0, 67, 80
1, 105600, Note_on_c, 1, 45, 0
1, 105600, Note_on_c, 1, 31, 80
1, 105780, Note_on_c, 0, 67, 0
1, 105780, Note_on_c, 0, 71, 80
1, 105810, Note_on_c, 0, 71, 0
1, 105810, Note_on_c, 0, 69, 80
1, 105840, Note_on_c, 0, 69, 0
1, 105840, Note_on_c, 0, 67, 80
1, 105840, Note_on_c, 1, 31, 0
1, 105840, Note_on_c, 1, 59, 80
1, 105840, Note_on_c, 1, 55, 80
1, 105888, Note_on_c, 1, 55, 0
1, 105888, Note_on_c, 1, 59, 0
1, 105900, Note_on_c, 0, 67, 0
1, 105900, Note_on_c, 0, 62, 80
1, 105960, Note_on_c, 0, 62, 0
1, 105960, Note_on_c, 0, 71, 80
1, 105960, Note_on_c, 1, 59, 80
1, 105960, Note_on_c, 1, 55, 80
1, 106008, Note_on_c, 1, 55, 0
1, 106008, Note_on_c, 1, 59, 0
1, 106020, Note_on_c, 0, 71, 0
1, 106020, Note_on_c, 0, 69, 80
1, 106080, Note_on_c, 0, 69, 0
1, 106080, Note_on_c, 0, 67, 80
1, 106080, Note_on_c, 1, 59, 80
1, 106080, Note_on_c, 1, 55, 80
1, 106128, Note_on_c, 1, 55, 0
1, 106128, Note_on_c, 1, 59, 0
1, 106140, Note_on_c, 0, 67, 0
1, 106140, Note_on_c, 0, 62, 80
1, 106200, Note_on_c, 0, 62, 0
1, 106200, Note_on_c, 0, 67, 80
1, 106200, Note_on_c, 1, 59, 80
1, 106200, Note_on_c, 1, 55, 80
1, 106248, Note_on_c, 1, 55, 0
1, 106248, Note_on_c, 1, 59, 0
1, 106260, Note_on_c, 0, 67, 0
1, 106260, Note_on_c, 0, 71, 80
1, 106320, Note_on_c, 0, 71, 0
1, 106320, Note_on_c, 0, 74, 80
1, 106320, Note_on_c, 1, 59, 80
1, 106320, Note_on_c, 1, 55, 80
1, 106368, Note_on_c, 1, 55, 0
1, 106368, Note_on_c, 1, 59, 0
1, 106380, Note_on_c, 0, 74, 0
1, 106380, Note_on_c, 0, 71, 80
1, 106440, Note_on_c, 0, 71, 0
1, 106440, Note_on_c, 0, 69, 80
1, 106440, Note_on_c, 1, 59, 80
1, 106440, Note_on_c, 1, 55, 80
1, 106488, Note_on_c, 1, 55, 0
1, 106488, Note_on_c, 1, 59, 0
1, 106500, Note_on_c, 0, 69, 0
1, 106500, Note_on_c, 0, 67, 80
1, 106560, Note_on_c, 0, 67, 0
1, 106560, Note_on_c, 0, 71, 80
1, 106560, Note_on_c, 1, 60, 80
1, 106560, Note_on_c, 1, 55, 80
1, 106620, Note_on_c, 0, 71, 0
1, 106620, Note_on_c, 0, 69, 80
1, 106680, Note_on_c, 0, 69, 0
1, 106680, Note_on_c, 0, 67, 80
1, 106740, Note_on_c, 0, 67, 0
1, 106740, Note_on_c, 0, 69, 80
1, 106800, Note_on_c, 0, 69, 0
1, 106800, Note_on_c, 0, 67, 80
1, 106800, Note_on_c, 1, 55, 0
1, 106800, Note_on_c, 1, 60, 0
1, 106800, Note_on_c, 1, 59, 80
1, 106800, Note_on_c, 1, 55, 80
1, 106884, Note_on_c, 0, 67, 0
1, 106884, Note_on_c, 1, 55, 0
1, 106884, Note_on_c, 1, 59, 0
1, 106920, Note_on_c, 0, 88, 80
1, 106980, Note_on_c, 0, 88, 0
1, 106980, Note_on_c, 0, 76, 80
1, 107040, Note_on_c, 0, 76, 0
1, 107040, Note_on_c, 0, 88, 80
1, 107040, Note_on_c, 1, 74, 80
1, 107040, Note_on_c, 1, 68, 80
1, 107088, Note_on_c, 1, 68, 0
1, 107088, Note_on_c, 1, 74, 0
1, 107100, Note_on_c, 0, 88, 0
1, 107100, Note_on_c, 0, 76, 80
1, 107160, Note_on_c, 0, 76, 0
1, 107160, Note_on_c, 0, 88, 80
1, 107160, Note_on_c, 1, 74, 80
1, 107160, Note_on_c, 1, 68, 80
1, 107208, Note_on_c, 1, 68, 0
1, 107208, Note_on_c, 1, 74, 0
1, 107220, Note_on_c, 0, 88, 0
1, 107220, Note_on_c, 0, 76, 80
1, 107280, Note_on_c, 0, 76, 0
1, 107280, Note_on_c, 0, 88, 80
1, 107280, Note_on_c, 1, 74, 80
1, 107280, Note_on_c, 1, 68, 80
1, 107328, Note_on_c, 1, 68, 0
1, 107328, Note_on_c, 1, 74, 0
1, 107340, Note_on_c, 0, 88, 0
1, 107340, Note_on_c, 0, 76, 80
1, 107400, Note_on_c, 0, 76, 0
1, 107400, Note_on_c, 0, 88, 80
1, 107400, Note_on_c, 1, 74, 80
1, 107400, Note_on_c, 1, 68, 80
1, 107448, Note_on_c, 1, 68, 0
1, 107448, Note_on_c, 1, 74, 0
1, 107460, Note_on_c, 0, 88, 0
1, 107460, Note_on_c, 0, 76, 80
1, 107520, Note_on_c, 0, 76, 0
1, 107520, Note_on_c, 0, 88, 80
1, 107520, Note_on_c, 1, 72, 80
1, 107520, Note_on_c, 1, 69, 80
1, 107670, Note_on_c, 0, 88, 0
1, 107670, Note_on_c, 0, 86, 80
1, 107700, Note_on_c, 0, 86, 0
1, 107700, Note_on_c, 0, 84, 80
1, 107730, Note_on_c, 0, 84, 0
1, 107730, Note_on_c, 0, 83, 80
1, 107760, Note_on_c, 0, 83, 0
1, 107760, Note_on_c, 0, 81, 80
1, 107760, Note_on_c, 1, 69, 0
1, 107760, Note_on_c, 1, 72, 0
1, 107844, Note_on_c, 0, 81, 0
1, 107880, Note_on_c, 0, 86, 80
1, 107880, Note_on_c, 1, 72, 80
1, 107880, Note_on_c, 1, 66, 80
1, 107928, Note_on_c, 1, 66, 0
1, 107928, Note_on_c, 1, 72, 0
1, 107940, Note_on_c, 0, 86, 0
1, 107940, Note_on_c, 0, 74, 80
1, 108000, Note_on_c, 0, 74, 0
1, 108000, Note_on_c, 0, 86, 80
1, 108000, Note_on_c, 1, 72, 80
1, 108000, Note_on_c, 1, 66, 80
1, 108048, Note_on_c, 1, 66, 0
1, 108048, Note_on_c, 1, 72, 0
1, 108060, Note_on_c, 0, 86, 0
1, 108060, Note_on_c, 0, 74, 80
1, 108120, Note_on_c, 0, 74, 0
1, 108120, Note_on_c, 0, 86, 80
1, 108120, Note_on_c, 1, 72, 80
1, 108120, Note_on_c, 1, 66, 80
1, 108168, Note_on_c, 1, 66, 0
1, 108168, Note_on_c, 1, 72, 0
1, 108180, Note_on_c, 0, 86, 0
1, 108180, Note_on_c, 0, 74, 80
1, 108240, Note_on_c, 0, 74, 0
1, 108240, Note_on_c, 0, 86, 80
1, 108240, Note_on_c, 1, 72, 80
1, 108240, Note_on_c, 1, 66, 80
1, 108288, Note_on_c, 1, 66, 0
1, 108288, Note_on_c, 1, 72, 0
1, 108300, Note_on_c, 0, 86, 0
1, 108300, Note_on_c, 0, 74, 80
1, 108360, Note_on_c, 0, 74, 0
1, 108360, Note_on_c, 0, 86, 80
1, 108360, Note_on_c, 1, 72, 80
1, 108360, Note_on_c, 1, 66, 80
1, 108408, Note_on_c, 1, 66, 0
1, 108408, Note_on_c, 1, 72, 0
1, 108420, Note_on_c, 0, 86, 0
1, 108420, Note_on_c, 0, 74, 80
1, 108480, Note_on_c, 0, 74, 0
1, 108480, Note_on_c, 0, 86, 80
1, 108480, Note_on_c, 1, 67, 80
1, 108480, Note_on_c, 1, 71, 80
1, 108630, Note_on_c, 0, 86, 0
1, 108630, Note_on_c, 0, 84, 80
1, 108660, Note_on_c, 0, 84, 0
1, 108660, Note_on_c, 0, 83, 80
1, 108690, Note_on_c, 0, 83, 0
1, 108690, Note_on_c, 0, 81, 80
1, 108720, Note_on_c, 0, 81, 0
1, 108720, Note_on_c, 0, 79, 80
1, 108720, Note_on_c, 1, 71, 0
1, 108720, Note_on_c, 1, 67, 0
1, 108840, Note_on_c, 0, 79, 0
1, 109800, Note_on_c, 0, 86, 56
1, 109830, Note_on_c, 0, 86, 0
1, 109830, Note_on_c, 0, 84, 56
1, 109860, Note_on_c, 0, 84, 0
1, 109860, Note_on_c, 0, 83, 56
1, 109890, Note_on_c, 0, 83, 0
1, 109890, Note_on_c, 0, 81, 56
1, 109920, Note_on_c, 0, 81, 0
1, 109920, Note_on_c, 0, 79, 56
1, 109968, Note_on_c, 0, 79, 0
1, 110040, Note_on_c, 0, 83, 56
1, 110070, Note_on_c, 0, 83, 0
1, 110070, Note_on_c, 0, 81, 56
1, 110100, Note_on_c, 0, 81, 0
1, 110100, Note_on_c, 0, 79, 56
1, 110130, Note_on_c, 0, 79, 0
1, 110130, Note_on_c, 0, 78, 56
1, 110160, Note_on_c, 0, 78, 0
1, 110160, Note_on_c, 0, 76, 56
1, 110208, Note_on_c, 0, 76, 0
1, 110280, Note_on_c, 0, 79, 56
1, 110310, Note_on_c, 0, 79, 0
1, 110310, Note_on_c, 0, 78, 56
1, 110340, Note_on_c, 0, 78, 0
1, 110340, Note_on_c, 0, 76, 56
1, 110370, Note_on_c, 0, 76, 0
1, 110370, Note_on_c, 0, 74, 56
1, 110400, Note_on_c, 0, 74, 0
1, 110400, Note_on_c, 0, 72, 56
1, 110400, Note_on_c, 1, 67, 56
1, 110400, Note_on_c, 1, 64, 56
1, 110640, Note_on_c, 0, 72, 0
1, 110640, Note_on_c, 1, 64, 0
1, 110640, Note_on_c, 1, 67, 0
1, 110760, Note_on_c, 0, 79, 80
1, 110790, Note_on_c, 0, 79, 0
1, 110790, Note_on_c, 0, 77, 80
1, 110820, Note_on_c, 0, 77, 0
1, 110820, Note_on_c, 0, 75, 80
1, 110850, Note_on_c, 0, 75, 0
1, 110850, Note_on_c, 0, 74, 80
1, 110880, Note_on_c, 0, 74, 0
1, 110880, Note_on_c, 0, 72, 80
1, 110880, Note_on_c, 1, 63, 80
1, 110940, Note_on_c, 1, 63, 0
1, 110940, Note_on_c, 1, 67, 80
1, 110964, Note_on_c, 0, 72, 0
1, 111000, Note_on_c, 0, 83, 80
1, 111000, Note_on_c, 1, 67, 0
1, 111000, Note_on_c, 1, 63, 80
1, 111060, Note_on_c, 1, 63, 0
1, 111060, Note_on_c, 1, 67, 80
1, 111120, Note_on_c, 0, 83, 0
1, 111120, Note_on_c, 0, 84, 80
1, 111120, Note_on_c, 1, 67, 0
1, 111120, Note_on_c, 1, 63, 80
1, 111168, Note_on_c, 0, 84, 0
1, 111180, Note_on_c, 1, 63, 0
1, 111180, Note_on_c, 1, 67, 80
1, 111240, Note_on_c, 0, 84, 80
1, 111240, Note_on_c, 1, 67, 0
1, 111240, Note_on_c, 1, 63, 80
1, 111288, Note_on_c, 0, 84, 0
1, 111300, Note_on_c, 1, 63, 0
1, 111300, Note_on_c, 1, 67, 80
1, 111360, Note_on_c, 0, 84, 80
1, 111360, Note_on_c, 1, 67, 0
1, 111360, Note_on_c, 1, 66, 80
1, 111360, Note_on_c, 1, 62, 80
1, 111420, Note_on_c, 0, 84, 0
1, 111420, Note_on_c, 0, 83, 80
1, 111480, Note_on_c, 0, 83, 0
1, 111480, Note_on_c, 0, 84, 80
1, 111540, Note_on_c, 0, 84, 0
1, 111540, Note_on_c, 0, 81, 80
1, 111600, Note_on_c, 0, 81, 0
1, 111600, Note_on_c, 0, 83, 80
1, 111600, Note_on_c, 1, 62, 0
1, 111600, Note_on_c, 1, 66, 0
1, 111600, Note_on_c, 1, 67, 80
1, 111660, Note_on_c, 0, 83, 0
1, 111660, Note_on_c, 0, 81, 80
1, 111720, Note_on_c, 0, 81, 0
1, 111720, Note_on_c, 0, 83, 80
1, 111780, Note_on_c, 0, 83, 0
1, 111780, Note_on_c, 0, 79, 80
1, 111840, Note_on_c, 0, 79, 0
1, 111840, Note_on_c, 0, 81, 80
1, 111840, Note_on_c, 1, 67, 0
1, 111840, Note_on_c, 1, 72, 80
1, 111840, Note_on_c, 1, 60, 80
1, 111900, Note_on_c, 0, 81, 0
1, 111900, Note_on_c, 0, 80, 80
1, 111960, Note_on_c, 0, 80, 0
1, 111960, Note_on_c, 0, 81, 80
1, 112020, Note_on_c, 0, 81, 0
1, 112020, Note_on_c, 0, 76, 80
1, 112080, Note_on_c, 0, 76, 0
1, 112080, Note_on_c, 0, 79, 80
1, 112080, Note_on_c, 1, 60, 0
1, 112080, Note_on_c, 1, 72, 0
1, 112080, Note_on_c, 1, 72, 80
1, 112080, Note_on_c, 1, 62, 80
1, 112140, Note_on_c, 0, 79, 0
1, 112140, Note_on_c, 0, 78, 80
1, 112200, Note_on_c, 0, 78, 0
1, 112200, Note_on_c, 0, 76, 80
1, 112260, Note_on_c, 0, 76, 0
1, 112260, Note_on_c, 0, 74, 80
1, 112320, Note_on_c, 0, 74, 0
1, 112320, Note_on_c, 0, 79, 80
1, 112320, Note_on_c, 1, 62, 0
1, 112320, Note_on_c, 1, 72, 0
1, 112320, Note_on_c, 1, 71, 80
1, 112320, Note_on_c, 1, 67, 80
1, 112368, Note_on_c, 1, 67, 0
1, 112368, Note_on_c, 1, 71, 0
1, 112380, Note_on_c, 0, 79, 0
1, 112380, Note_on_c, 0, 74, 80
1, 112440, Note_on_c, 0, 74, 0
1, 112440, Note_on_c, 0, 79, 80
1, 112440, Note_on_c, 1, 71, 80
1, 112440, Note_on_c, 1, 67, 80
1, 112488, Note_on_c, 1, 67, 0
1, 112488, Note_on_c, 1, 71, 0
1, 112500, Note_on_c, 0, 79, 0
1, 112500, Note_on_c, 0, 83, 80
1, 112560, Note_on_c, 0, 83, 0
1, 112560, Note_on_c, 0, 86, 80
1, 112560, Note_on_c, 1, 71, 80
1, 112560, Note_on_c, 1, 67, 80
1, 112608, Note_on_c, 1, 67, 0
1, 112608, Note_on_c, 1, 71, 0
1, 112620, Note_on_c, 0, 86, 0
1, 112620, Note_on_c, 0, 83, 80
1, 112680, Note_on_c, 0, 83, 0
1, 112680, Note_on_c, 0, 81, 80
1, 112680, Note_on_c, 1, 71, 80
1, 112680, Note_on_c, 1, 67, 80
1, 112728, Note_on_c, 1, 67, 0
1, 112728, Note_on_c, 1, 71, 0
1, 112740, Note_on_c, 0, 81, 0
1, 112740, Note_on_c, 0, 79, 80
1, 112800, Note_on_c, 0, 79, 0
1, 112800, Note_on_c, 0, 78, 80
1, 112800, Note_on_c, 1, 72, 80
1, 112800, Note_on_c, 1, 67, 80
1, 112848, Note_on_c, 1, 67, 0
1, 112848, Note_on_c, 1, 72, 0
1, 112860, Note_on_c, 0, 78, 0
1, 112860, Note_on_c, 0, 74, 80
1, 112920, Note_on_c, 0, 74, 0
1, 112920, Note_on_c, 0, 78, 80
1, 112920, Note_on_c, 1, 72, 80
1, 112920, Note_on_c, 1, 67, 80
1, 112968, Note_on_c, 1, 67, 0
1, 112968, Note_on_c, 1, 72, 0
1, 112980, Note_on_c, 0, 78, 0
1, 112980, Note_on_c, 0, 81, 80
1, 113040, Note_on_c, 0, 81, 0
1, 113040, Note_on_c, 0, 84, 80
1, 113040, Note_on_c, 1, 72, 80
1, 113040, Note_on_c, 1, 67, 80
1, 113088, Note_on_c, 1, 67, 0
1, 113088, Note_on_c, 1, 72, 0
1, 113100, Note_on_c, 0, 84, 0
1, 113100, Note_on_c, 0, 81, 80
1, 113160, Note_on_c, 0, 81, 0
1, 113160, Note_on_c, 0, 79, 80
1, 113160, Note_on_c, 1, 72, 80
1, 113160, Note_on_c, 1, 67, 80
1, 113208, Note_on_c, 1, 67, 0
1, 113208, Note_on_c, 1, 72, 0
1, 113220, Note_on_c, 0, 79, 0
1, 113220, Note_on_c, 0, 78, 80
1, 113280, Note_on_c, 0, 78, 0
1, 113280, Note_on_c, 0, 79, 56
1, 113280, Note_on_c, 1, 67, 56
1, 113280, Note_on_c, 1, 71, 56
1, 113328, Note_on_c, 1, 71, 0
1, 113328, Note_on_c, 1, 67, 0
1, 113340, Note_on_c, 0, 79, 0
1, 113340, Note_on_c, 0, 74, 58
1, 113400, Note_on_c, 0, 74, 0
1, 113400, Note_on_c, 0, 79, 59
1, 113400, Note_on_c, 1, 67, 59
1, 113400, Note_on_c, 1, 71, 59
1, 113448, Note_on_c, 1, 71, 0
1, 113448, Note_on_c, 1, 67, 0
1, 113460, Note_on_c, 0, 79, 0
1, 113460, Note_on_c, 0, 83, 61
1, 113520, Note_on_c, 0, 83, 0
1, 113520, Note_on_c, 0, 86, 62
1, 113520, Note_on_c, 1, 67, 62
1, 113520, Note_on_c, 1, 71, 62
1, 113568, Note_on_c, 1, 71, 0
1, 113568, Note_on_c, 1, 67, 0
1, 113580, Note_on_c, 0, 86, 0
1, 113580, Note_on_c, 0, 83, 64
1, 113640, Note_on_c, 0, 83, 0
1, 113640, Note_on_c, 0, 81, 65
1, 113640, Note_on_c, 1, 67, 65
1, 113640, Note_on_c, 1, 71, 65
1, 113688, Note_on_c, 1, 71, 0
1, 113688, Note_on_c, 1, 67, 0
1, 113700, Note_on_c, 0, 81, 0
1, 113700, Note_on_c, 0, 79, 67
1, 113760, Note_on_c, 0, 79, 0
1, 113760, Note_on_c, 0, 78, 68
1, 113760, Note_on_c, 1, 67, 68
1, 113760, Note_on_c, 1, 72, 68
1, 113808, Note_on_c, 1, 72, 0
1, 113808, Note_on_c, 1, 67, 0
1, 113820, Note_on_c, 0, 78, 0
1, 113820, Note_on_c, 0, 74, 70
1, 113880, Note_on_c, 0, 74, 0
1, 113880, Note_on_c, 0, 78, 71
1, 113880, Note_on_c, 1, 67, 71
1, 113880, Note_on_c, 1, 72, 71
1, 113928, Note_on_c, 1, 72, 0
1, 113928, Note_on_c, 1, 67, 0
1, 113940, Note_on_c, 0, 78, 0
1, 113940, Note_on_c, 0, 81, 73
1, 114000, Note_on_c, 0, 81, 0
1, 114000, Note_on_c, 0, 84, 74
1, 114000, Note_on_c, 1, 67, 74
1, 114000, Note_on_c, 1, 72, 74
1, 114048, Note_on_c, 1, 72, 0
1, 114048, Note_on_c, 1, 67, 0
1, 114060, Note_on_c, 0, 84, 0
1, 114060, Note_on_c, 0, 81, 76
1, 114120, Note_on_c, 0, 81, 0
1, 114120, Note_on_c, 0, 79, 77
1, 114120, Note_on_c, 1, 67, 77
1, 114120, Note_on_c, 1, 72, 77
1, 114168, Note_on_c, 1, 72, 0
1, 114168, Note_on_c, 1, 67, 0
1, 114180, Note_on_c, 0, 79, 0
1, 114180, Note_on_c, 0, 78, 79
1, 114240, Note_on_c, 0, 78, 0
1, 114240, Note_on_c, 0, 79, 80
1, 114240, Note_on_c, 1, 71, 80
1, 114240, Note_on_c, 1, 67, 80
1, 114300, Note_on_c, 0, 79, 0
1, 114300, Note_on_c, 0, 83, 82
1, 114360, Note_on_c, 0, 83, 0
1, 114360, Note_on_c, 0, 79, 84
1, 114420, Note_on_c, 0, 79, 0
1, 114420, Note_on_c, 0, 74, 86
1, 114480, Note_on_c, 0, 74, 0
1, 114480, Note_on_c, 0, 71, 88
1, 114480, Note_on_c, 1, 67, 0
1, 114480, Note_on_c, 1, 71, 0
1, 114540, Note_on_c, 0, 71, 0
1, 114540, Note_on_c, 0, 67, 90
1, 114600, Note_on_c, 0, 67, 0
1, 114600, Note_on_c, 0, 62, 92
1, 114660, Note_on_c, 0, 62, 0
1, 114660, Note_on_c, 0, 59, 94
1, 114720, Note_on_c, 0, 59, 0
1, 114720, Note_on_c, 0, 55, 96
1, 114840, Note_on_c, 0, 55, 0
1, 114850, End_track
0, 0, End_of_file