0, 0, Header, 0, 1, 240
1, 0, Start_track
1, 0, Tempo, 600000
1, 600, Note_on_c, 0, 67, 64
1, 600, Note_on_c, 1, 59, 64
1, 600, Note_on_c, 1, 55, 64
1, 672, Note_on_c, 0, 67, 0
1, 672, Note_on_c, 1, 55, 0
1, 672, Note_on_c, 1, 59, 0
1, 720, Note_on_c, 0, 67, 64
1, 720, Note_on_c, 1, 55, 64
1, 720, Note_on_c, 1, 59, 64
1, 900, Note_on_c, 0, 67, 0
1, 900, Note_on_c, 0, 71, 64
1, 960, Note_on_c, 0, 71, 0
1, 960, Note_on_c, 0, 69, 64
1, 960, Note_on_c, 1, 59, 0
1, 960, Note_on_c, 1, 55, 0
1, 960, Note_on_c, 1, 55, 64
1, 960, Note_on_c, 1, 60, 64
1, 1080, Note_on_c, 0, 69, 0
1, 1080, Note_on_c, 0, 62, 64
1, 1080, Note_on_c, 1, 60, 0
1, 1080, Note_on_c, 1, 55, 0
1, 1080, Note_on_c, 1, 55, 64
1, 1080, Note_on_c, 1, 60, 64
1, 1200, Note_on_c, 0, 62, 0
1, 1200, Note_on_c, 0, 64, 64
1, 1320, Note_on_c, 0, 64, 0
1, 1320, Note_on_c, 0, 67, 64
1, 1320, Note_on_c, 1, 60, 0
1, 1320, Note_on_c, 1, 55, 0
1, 1320, Note_on_c, 1, 55, 64
1, 1320, Note_on_c, 1, 60, 64
1, 1350, Note_on_c, 0, 67, 0
1, 1350, Note_on_c, 0, 66, 64
1, 1380, Note_on_c, 0, 66, 0
1, 1380, Note_on_c, 0, 64, 64
1, 1410, Note_on_c, 0, 64, 0
1, 1410, Note_on_c, 0, 66, 64
1, 1440, Note_on_c, 0, 66, 0
1, 1440, Note_on_c, 0, 67, 64
1, 1440, Note_on_c, 1, 60, 0
1, 1440, Note_on_c, 1, 55, 0
1, 1440, Note_on_c, 1, 55, 64
1, 1440, Note_on_c, 1, 59, 64
1, 1476, Note_on_c, 0, 67, 0
1, 1476, Note_on_c, 1, 59, 0
1, 1476, Note_on_c, 1, 55, 0
1, 1560, Note_on_c, 0, 67, 64
1, 1560, Note_on_c, 1, 55, 64
1, 1560, Note_on_c, 1, 59, 64
1, 1596, Note_on_c, 0, 67, 0
1, 1596, Note_on_c, 1, 59, 0
1, 1596, Note_on_c, 1, 55, 0
1, 1680, Note_on_c, 0, 67, 64
1, 1680, Note_on_c, 1, 55, 64
1, 1680, Note_on_c, 1, 59, 64
1, 1740, Note_on_c, 0, 67, 0
1, 1740, Note_on_c, 1, 59, 0
1, 1740, Note_on_c, 1, 55, 0
1, 1800, Note_on_c, 0, 67, 64
1, 1800, Note_on_c, 1, 55, 64
1, 1800, Note_on_c, 1, 59, 64
1, 2040, Note_on_c, 0, 67, 0
1, 2040, Note_on_c, 0, 62, 64
1, 2040, Note_on_c, 0, 69, 64
1, 2040, Note_on_c, 1, 59, 0
1, 2040, Note_on_c, 1, 55, 0
1, 2040, Note_on_c, 1, 54, 64
1, 2130, Note_on_c, 0, 69, 0
1, 2130, Note_on_c, 0, 72, 64
1, 2130, Note_on_c, 1, 54, 0
1, 2130, Note_on_c, 1, 57, 64
1, 2160, Note_on_c, 0, 72, 0
1, 2160, Note_on_c, 0, 62, 0
1, 2160, Note_on_c, 0, 62, 64
1, 2160, Note_on_c, 0, 71, 64
1, 2160, Note_on_c, 1, 57, 0
1, 2160, Note_on_c, 1, 55, 64
1, 2280, Note_on_c, 0, 71, 0
1, 2280, Note_on_c, 0, 69, 64
1, 2280, Note_on_c, 1, 55, 0
1, 2280, Note_on_c, 1, 54, 64
1, 2400, Note_on_c, 0, 69, 0
1, 2400, Note_on_c, 0, 71, 64
1, 2400, Note_on_c, 1, 54, 0
1, 2400, Note_on_c, 1, 55, 64
1, 2436, Note_on_c, 0, 71, 0
1, 2436, Note_on_c, 0, 62, 0
1, 2436, Note_on_c, 1, 55, 0
1, 2520, Note_on_c, 0, 62, 80
1, 2520, Note_on_c, 0, 66, 80
1, 2520, Note_on_c, 0, 74, 80
1, 2520, Note_on_c, 1, 57, 80
1, 2640, Note_on_c, 0, 74, 0
1, 2640, Note_on_c, 0, 72, 64
1, 2760, Note_on_c, 0, 72, 0
1, 2760, Note_on_c, 0, 66, 0
1, 2760, Note_on_c, 0, 67, 64
1, 2760, Note_on_c, 0, 71, 64
1, 2760, Note_on_c, 1, 57, 0
1, 2760, Note_on_c, 1, 55, 64
1, 2880, Note_on_c, 0, 71, 0
1, 2880, Note_on_c, 0, 67, 0
1, 2880, Note_on_c, 0, 62, 0
1, 2880, Note_on_c, 0, 67, 64
1, 2880, Note_on_c, 0, 71, 64
1, 2880, Note_on_c, 1, 55, 0
1, 2880, Note_on_c, 1, 50, 64
1, 3000, Note_on_c, 0, 71, 0
1, 3000, Note_on_c, 0, 67, 0
1, 3000, Note_on_c, 0, 66, 64
1, 3000, Note_on_c, 0, 69, 64
1, 3000, Note_on_c, 1, 50, 0
1, 3000, Note_on_c, 1, 62, 64
1, 3036, Note_on_c, 0, 69, 0
1, 3036, Note_on_c, 0, 66, 0
1, 3036, Note_on_c, 1, 62, 0
1, 3120, Note_on_c, 0, 66, 64
1, 3120, Note_on_c, 0, 69, 64
1, 3120, Note_on_c, 1, 62, 64
1, 3156, Note_on_c, 0, 69, 0
1, 3156, Note_on_c, 0, 66, 0
1, 3156, Note_on_c, 1, 62, 0
1, 3240, Note_on_c, 0, 66, 64
1, 3240, Note_on_c, 0, 69, 64
1, 3240, Note_on_c, 1, 62, 64
1, 3360, Note_on_c, 1, 62, 0
1, 3360, Note_on_c, 1, 60, 64
1, 3480, Note_on_c, 0, 69, 0
1, 3480, Note_on_c, 0, 66, 0
1, 3480, Note_on_c, 0, 68, 80
1, 3480, Note_on_c, 0, 71, 80
1, 3480, Note_on_c, 1, 60, 0
1, 3480, Note_on_c, 1, 59, 80
1, 3552, Note_on_c, 0, 71, 0
1, 3552, Note_on_c, 0, 68, 0
1, 3552, Note_on_c, 1, 59, 0
1, 3600, Note_on_c, 0, 69, 64
1, 3600, Note_on_c, 0, 72, 64
1, 3600, Note_on_c, 1, 57, 64
1, 3720, Note_on_c, 0, 72, 0
1, 3720, Note_on_c, 0, 69, 0
1, 3720, Note_on_c, 0, 71, 64
1, 3720, Note_on_c, 0, 74, 64
1, 3840, Note_on_c, 0, 74, 0
1, 3840, Note_on_c, 0, 71, 0
1, 3840, Note_on_c, 0, 72, 64
1, 3840, Note_on_c, 0, 76, 64
1, 3840, Note_on_c, 1, 57, 0
1, 3840, Note_on_c, 1, 55, 64
1, 3876, Note_on_c, 0, 76, 0
1, 3876, Note_on_c, 0, 72, 0
1, 3876, Note_on_c, 1, 55, 0
1, 3960, Note_on_c, 0, 72, 64
1, 3960, Note_on_c, 0, 76, 64
1, 3960, Note_on_c, 1, 54, 64
1, 4080, Note_on_c, 1, 54, 0
1, 4080, Note_on_c, 1, 57, 64
1, 4200, Note_on_c, 0, 76, 0
1, 4200, Note_on_c, 0, 72, 0
1, 4200, Note_on_c, 0, 69, 64
1, 4200, Note_on_c, 0, 74, 64
1, 4200, Note_on_c, 1, 57, 0
1, 4200, Note_on_c, 1, 62, 64
1, 4230, Note_on_c, 0, 74, 0
1, 4230, Note_on_c, 0, 72, 64
1, 4260, Note_on_c, 0, 72, 0
1, 4260, Note_on_c, 0, 71, 64
1, 4290, Note_on_c, 0, 71, 0
1, 4290, Note_on_c, 0, 72, 64
1, 4320, Note_on_c, 0, 72, 0
1, 4320, Note_on_c, 0, 69, 0
1, 4320, Note_on_c, 0, 67, 64
1, 4320, Note_on_c, 0, 71, 64
1, 4320, Note_on_c, 1, 62, 0
1, 4320, Note_on_c, 1, 55, 64
1, 4440, Note_on_c, 0, 71, 0
1, 4440, Note_on_c, 0, 67, 0
1, 4440, Note_on_c, 0, 69, 64
1, 4440, Note_on_c, 0, 72, 64
1, 4560, Note_on_c, 0, 72, 0
1, 4560, Note_on_c, 0, 69, 0
1, 4560, Note_on_c, 0, 71, 64
1, 4560, Note_on_c, 0, 74, 64
1, 4560, Note_on_c, 1, 65, 64
1, 4680, Note_on_c, 0, 74, 0
1, 4680, Note_on_c, 0, 71, 0
1, 4680, Note_on_c, 0, 67, 64
1, 4680, Note_on_c, 0, 72, 64
1, 4680, Note_on_c, 1, 65, 0
1, 4680, Note_on_c, 1, 64, 64
1, 4800, Note_on_c, 0, 72, 0
1, 4800, Note_on_c, 0, 74, 64
1, 4800, Note_on_c, 1, 64, 0
1, 4800, Note_on_c, 1, 62, 64
1, 4920, Note_on_c, 0, 74, 0
1, 4920, Note_on_c, 0, 76, 64
1, 4920, Note_on_c, 1, 62, 0
1, 4920, Note_on_c, 1, 60, 64
1, 5040, Note_on_c, 0, 76, 0
1, 5040, Note_on_c, 0, 74, 64
1, 5040, Note_on_c, 1, 60, 0
1, 5040, Note_on_c, 1, 59, 64
1, 5100, Note_on_c, 0, 74, 0
1, 5100, Note_on_c, 0, 67, 0
1, 5100, Note_on_c, 1, 59, 0
1, 5100, Note_on_c, 1, 55, 0
1, 5160, Note_on_c, 0, 79, 64
1, 5160, Note_on_c, 1, 55, 64
1, 5160, Note_on_c, 1, 59, 64
1, 5196, Note_on_c, 0, 79, 0
1, 5196, Note_on_c, 1, 59, 0
1, 5196, Note_on_c, 1, 55, 0
1, 5280, Note_on_c, 0, 79, 64
1, 5280, Note_on_c, 1, 54, 64
1, 5280, Note_on_c, 1, 57, 64
1, 5340, Note_on_c, 0, 79, 0
1, 5340, Note_on_c, 1, 57, 0
1, 5340, Note_on_c, 1, 54, 0
1, 5400, Note_on_c, 0, 81, 80
1, 5400, Note_on_c, 1, 52, 80
1, 5400, Note_on_c, 1, 55, 80
1, 5460, Note_on_c, 0, 81, 0
1, 5460, Note_on_c, 0, 79, 64
1, 5520, Note_on_c, 0, 79, 0
1, 5520, Note_on_c, 0, 78, 64
1, 5520, Note_on_c, 1, 55, 0
1, 5520, Note_on_c, 1, 52, 0
1, 5520, Note_on_c, 1, 52, 64
1, 5520, Note_on_c, 1, 59, 64
1, 5580, Note_on_c, 0, 78, 0
1, 5580, Note_on_c, 0, 76, 64
1, 5640, Note_on_c, 0, 76, 0
1, 5640, Note_on_c, 0, 74, 64
1, 5640, Note_on_c, 1, 59, 0
1, 5640, Note_on_c, 1, 52, 0
1, 5640, Note_on_c, 1, 57, 64
1, 5640, Note_on_c, 1, 67, 64
1, 5700, Note_on_c, 0, 74, 0
1, 5700, Note_on_c, 0, 73, 64
1, 5760, Note_on_c, 0, 73, 0
1, 5760, Note_on_c, 0, 76, 64
1, 5760, Note_on_c, 1, 67, 0
1, 5760, Note_on_c, 1, 57, 0
1, 5760, Note_on_c, 1, 62, 64
1, 5760, Note_on_c, 1, 67, 64
1, 5880, Note_on_c, 0, 76, 0
1, 5880, Note_on_c, 0, 74, 64
1, 5880, Note_on_c, 1, 67, 0
1, 5880, Note_on_c, 1, 66, 64
1, 5916, Note_on_c, 0, 74, 0
1, 5916, Note_on_c, 1, 66, 0
1, 6000, Note_on_c, 0, 74, 64
1, 6000, Note_on_c, 1, 66, 64
1, 6036, Note_on_c, 0, 74, 0
1, 6036, Note_on_c, 1, 66, 0
1, 6036, Note_on_c, 1, 62, 0
1, 6120, Note_on_c, 0, 74, 64
1, 6120, Note_on_c, 1, 62, 64
1, 6120, Note_on_c, 1, 66, 64
1, 6300, Note_on_c, 0, 74, 0
1, 6300, Note_on_c, 0, 71, 64
1, 6360, Note_on_c, 0, 71, 0
1, 6360, Note_on_c, 0, 72, 64
1, 6360, Note_on_c, 1, 66, 0
1, 6360, Note_on_c, 1, 62, 0
1, 6420, Note_on_c, 0, 72, 0
1, 6420, Note_on_c, 0, 69, 64
1, 6480, Note_on_c, 0, 69, 0
1, 6480, Note_on_c, 0, 67, 64
1, 6480, Note_on_c, 1, 59, 64
1, 6480, Note_on_c, 1, 55, 64
1, 6660, Note_on_c, 0, 67, 0
1, 6660, Note_on_c, 0, 71, 64
1, 6720, Note_on_c, 0, 71, 0
1, 6720, Note_on_c, 0, 69, 64
1, 6720, Note_on_c, 1, 55, 0
1, 6720, Note_on_c, 1, 59, 0
1, 6720, Note_on_c, 1, 60, 64
1, 6720, Note_on_c, 1, 55, 64
1, 6840, Note_on_c, 0, 69, 0
1, 6840, Note_on_c, 0, 62, 64
1, 6840, Note_on_c, 1, 55, 0
1, 6840, Note_on_c, 1, 60, 0
1, 6840, Note_on_c, 1, 60, 64
1, 6840, Note_on_c, 1, 55, 64
1, 6960, Note_on_c, 0, 62, 0
1, 6960, Note_on_c, 0, 64, 64
1, 7080, Note_on_c, 0, 64, 0
1, 7080, Note_on_c, 0, 67, 64
1, 7080, Note_on_c, 1, 55, 0
1, 7080, Note_on_c, 1, 60, 0
1, 7080, Note_on_c, 1, 60, 64
1, 7080, Note_on_c, 1, 55, 64
1, 7110, Note_on_c, 0, 67, 0
1, 7110, Note_on_c, 0, 66, 64
1, 7140, Note_on_c, 0, 66, 0
1, 7140, Note_on_c, 0, 64, 64
1, 7170, Note_on_c, 0, 64, 0
1, 7170, Note_on_c, 0, 66, 64
1, 7200, Note_on_c, 0, 66, 0
1, 7200, Note_on_c, 0, 67, 64
1, 7200, Note_on_c, 1, 55, 0
1, 7200, Note_on_c, 1, 60, 0
1, 7200, Note_on_c, 1, 59, 64
1, 7200, Note_on_c, 1, 55, 64
1, 7236, Note_on_c, 0, 67, 0
1, 7236, Note_on_c, 1, 55, 0
1, 7236, Note_on_c, 1, 59, 0
1, 7320, Note_on_c, 0, 67, 64
1, 7320, Note_on_c, 1, 59, 64
1, 7320, Note_on_c, 1, 55, 64
1, 7356, Note_on_c, 0, 67, 0
1, 7356, Note_on_c, 1, 55, 0
1, 7356, Note_on_c, 1, 59, 0
1, 7440, Note_on_c, 0, 67, 64
1, 7440, Note_on_c, 1, 59, 64
1, 7440, Note_on_c, 1, 55, 64
1, 7512, Note_on_c, 0, 67, 0
1, 7512, Note_on_c, 1, 55, 0
1, 7512, Note_on_c, 1, 59, 0
1, 7560, Note_on_c, 0, 67, 64
1, 7560, Note_on_c, 1, 59, 64
1, 7560, Note_on_c, 1, 55, 64
1, 7800, Note_on_c, 0, 67, 0
1, 7800, Note_on_c, 0, 69, 64
1, 7800, Note_on_c, 0, 62, 64
1, 7800, Note_on_c, 1, 55, 0
1, 7800, Note_on_c, 1, 59, 0
1, 7800, Note_on_c, 1, 54, 64
1, 7890, Note_on_c, 0, 62, 0
1, 7890, Note_on_c, 0, 69, 0
1, 7890, Note_on_c, 0, 72, 64
1, 7890, Note_on_c, 1, 54, 0
1, 7890, Note_on_c, 1, 57, 64
1, 7920, Note_on_c, 0, 72, 0
1, 7920, Note_on_c, 0, 71, 64
1, 7920, Note_on_c, 0, 62, 64
1, 7920, Note_on_c, 1, 57, 0
1, 7920, Note_on_c, 1, 55, 64
1, 8040, Note_on_c, 0, 71, 0
1, 8040, Note_on_c, 0, 69, 64
1, 8040, Note_on_c, 1, 55, 0
1, 8040, Note_on_c, 1, 54, 64
1, 8160, Note_on_c, 0, 69, 0
1, 8160, Note_on_c, 0, 71, 64
1, 8160, Note_on_c, 1, 54, 0
1, 8160, Note_on_c, 1, 55, 64
1, 8196, Note_on_c, 0, 71, 0
1, 8196, Note_on_c, 0, 62, 0
1, 8196, Note_on_c, 1, 55, 0
1, 8280, Note_on_c, 0, 74, 80
1, 8280, Note_on_c, 0, 66, 80
1, 8280, Note_on_c, 0, 62, 80
1, 8280, Note_on_c, 1, 57, 80
1, 8400, Note_on_c, 0, 74, 0
1, 8400, Note_on_c, 0, 72, 64
1, 8520, Note_on_c, 0, 72, 0
1, 8520, Note_on_c, 0, 66, 0
1, 8520, Note_on_c, 0, 71, 64
1, 8520, Note_on_c, 0, 67, 64
1, 8520, Note_on_c, 1, 57, 0
1, 8520, Note_on_c, 1, 55, 64
1, 8640, Note_on_c, 0, 67, 0
1, 8640, Note_on_c, 0, 71, 0
1, 8640, Note_on_c, 0, 62, 0
1, 8640, Note_on_c, 0, 71, 64
1, 8640, Note_on_c, 0, 67, 64
1, 8640, Note_on_c, 1, 55, 0
1, 8640, Note_on_c, 1, 50, 64
1, 8760, Note_on_c, 0, 67, 0
1, 8760, Note_on_c, 0, 71, 0
1, 8760, Note_on_c, 0, 69, 64
1, 8760, Note_on_c, 0, 66, 64
1, 8760, Note_on_c, 1, 50, 0
1, 8760, Note_on_c, 1, 62, 64
1, 8796, Note_on_c, 0, 66, 0
1, 8796, Note_on_c, 0, 69, 0
1, 8796, Note_on_c, 1, 62, 0
1, 8880, Note_on_c, 0, 69, 64
1, 8880, Note_on_c, 0, 66, 64
1, 8880, Note_on_c, 1, 62, 64
1, 8916, Note_on_c, 0, 66, 0
1, 8916, Note_on_c, 0, 69, 0
1, 8916, Note_on_c, 1, 62, 0
1, 9000, Note_on_c, 0, 69, 64
1, 9000, Note_on_c, 0, 66, 64
1, 9000, Note_on_c, 1, 62, 64
1, 9120, Note_on_c, 1, 62, 0
1, 9120, Note_on_c, 1, 60, 64
1, 9240, Note_on_c, 0, 66, 0
1, 9240, Note_on_c, 0, 69, 0
1, 9240, Note_on_c, 0, 71, 80
1, 9240, Note_on_c, 0, 68, 80
1, 9240, Note_on_c, 1, 60, 0
1, 9240, Note_on_c, 1, 59, 80
1, 9312, Note_on_c, 0, 68, 0
1, 9312, Note_on_c, 0, 71, 0
1, 9312, Note_on_c, 1, 59, 0
1, 9360, Note_on_c, 0, 72, 64
1, 9360, Note_on_c, 0, 69, 64
1, 9360, Note_on_c, 1, 57, 64
1, 9480, Note_on_c, 0, 69, 0
1, 9480, Note_on_c, 0, 72, 0
1, 9480, Note_on_c, 0, 74, 64
1, 9480, Note_on_c, 0, 71, 64
1, 9600, Note_on_c, 0, 71, 0
1, 9600, Note_on_c, 0, 74, 0
1, 9600, Note_on_c, 0, 76, 64
1, 9600, Note_on_c, 0, 72, 64
1, 9600, Note_on_c, 1, 57, 0
1, 9600, Note_on_c, 1, 55, 64
1, 9636, Note_on_c, 0, 72, 0
1, 9636, Note_on_c, 0, 76, 0
1, 9636, Note_on_c, 1, 55, 0
1, 9720, Note_on_c, 0, 76, 64
1, 9720, Note_on_c, 0, 72, 64
1, 9720, Note_on_c, 1, 54, 64
1, 9840, Note_on_c, 1, 54, 0
1, 9840, Note_on_c, 1, 57, 64
1, 9960, Note_on_c, 0, 72, 0
1, 9960, Note_on_c, 0, 76, 0
1, 9960, Note_on_c, 0, 74, 64
1, 9960, Note_on_c, 0, 69, 64
1, 9960, Note_on_c, 1, 57, 0
1, 9960, Note_on_c, 1, 62, 64
1, 9990, Note_on_c, 0, 74, 0
1, 9990, Note_on_c, 0, 72, 64
1, 10020, Note_on_c, 0, 72, 0
1, 10020, Note_on_c, 0, 71, 64
1, 10050, Note_on_c, 0, 71, 0
1, 10050, Note_on_c, 0, 72, 64
1, 10080, Note_on_c, 0, 72, 0
1, 10080, Note_on_c, 0, 69, 0
1, 10080, Note_on_c, 0, 71, 64
1, 10080, Note_on_c, 0, 67, 64
1, 10080, Note_on_c, 1, 62, 0
1, 10080, Note_on_c, 1, 55, 64
1, 10200, Note_on_c, 0, 67, 0
1, 10200, Note_on_c, 0, 71, 0
1, 10200, Note_on_c, 0, 72, 64
1, 10200, Note_on_c, 0, 69, 64
1, 10320, Note_on_c, 0, 69, 0
1, 10320, Note_on_c, 0, 72, 0
1, 10320, Note_on_c, 0, 74, 64
1, 10320, Note_on_c, 0, 71, 64
1, 10320, Note_on_c, 1, 65, 64
1, 10440, Note_on_c, 0, 71, 0
1, 10440, Note_on_c, 0, 74, 0
1, 10440, Note_on_c, 0, 72, 64
1, 10440, Note_on_c, 0, 67, 64
1, 10440, Note_on_c, 1, 65, 0
1, 10440, Note_on_c, 1, 64, 64
1, 10560, Note_on_c, 0, 72, 0
1, 10560, Note_on_c, 0, 74, 64
1, 10560, Note_on_c, 1, 64, 0
1, 10560, Note_on_c, 1, 62, 64
1, 10680, Note_on_c, 0, 74, 0
1, 10680, Note_on_c, 0, 76, 64
1, 10680, Note_on_c, 1, 62, 0
1, 10680, Note_on_c, 1, 60, 64
1, 10800, Note_on_c, 0, 76, 0
1, 10800, Note_on_c, 0, 74, 64
1, 10800, Note_on_c, 1, 60, 0
1, 10800, Note_on_c, 1, 59, 64
1, 10872, Note_on_c, 0, 74, 0
1, 10872, Note_on_c, 0, 67, 0
1, 10872, Note_on_c, 1, 59, 0
1, 10872, Note_on_c, 1, 55, 0
1, 10920, Note_on_c, 0, 79, 64
1, 10920, Note_on_c, 1, 59, 64
1, 10920, Note_on_c, 1, 55, 64
1, 10956, Note_on_c, 0, 79, 0
1, 10956, Note_on_c, 1, 55, 0
1, 10956, Note_on_c, 1, 59, 0
1, 11040, Note_on_c, 0, 79, 64
1, 11040, Note_on_c, 1, 57, 64
1, 11040, Note_on_c, 1, 54, 64
1, 11100, Note_on_c, 0, 79, 0
1, 11100, Note_on_c, 1, 54, 0
1, 11100, Note_on_c, 1, 57, 0
1, 11160, Note_on_c, 0, 81, 80
1, 11160, Note_on_c, 1, 55, 80
1, 11160, Note_on_c, 1, 52, 80
1, 11220, Note_on_c, 0, 81, 0
1, 11220, Note_on_c, 0, 79, 64
1, 11280, Note_on_c, 0, 79, 0
1, 11280, Note_on_c, 0, 78, 64
1, 11280, Note_on_c, 1, 52, 0
1, 11280, Note_on_c, 1, 55, 0
1, 11280, Note_on_c, 1, 59, 64
1, 11280, Note_on_c, 1, 52, 64
1, 11340, Note_on_c, 0, 78, 0
1, 11340, Note_on_c, 0, 76, 64
1, 11400, Note_on_c, 0, 76, 0
1, 11400, Note_on_c, 0, 74, 64
1, 11400, Note_on_c, 1, 52, 0
1, 11400, Note_on_c, 1, 59, 0
1, 11400, Note_on_c, 1, 67, 64
1, 11400, Note_on_c, 1, 57, 64
1, 11460, Note_on_c, 0, 74, 0
1, 11460, Note_on_c, 0, 73, 64
1, 11520, Note_on_c, 0, 73, 0
1, 11520, Note_on_c, 0, 76, 64
1, 11520, Note_on_c, 1, 57, 0
1, 11520, Note_on_c, 1, 67, 0
1, 11520, Note_on_c, 1, 67, 64
1, 11520, Note_on_c, 1, 62, 64
1, 11640, Note_on_c, 0, 76, 0
1, 11640, Note_on_c, 0, 74, 64
1, 11640, Note_on_c, 1, 67, 0
1, 11640, Note_on_c, 1, 66, 64
1, 11676, Note_on_c, 0, 74, 0
1, 11676, Note_on_c, 1, 66, 0
1, 11760, Note_on_c, 0, 74, 64
1, 11760, Note_on_c, 1, 66, 64
1, 11796, Note_on_c, 0, 74, 0
1, 11796, Note_on_c, 1, 66, 0
1, 11796, Note_on_c, 1, 62, 0
1, 11880, Note_on_c, 0, 74, 64
1, 11880, Note_on_c, 1, 66, 64
1, 11880, Note_on_c, 1, 62, 64
1, 12120, Note_on_c, 0, 74, 0
1, 12120, Note_on_c, 0, 79, 80
1, 12120, Note_on_c, 1, 62, 0
1, 12120, Note_on_c, 1, 66, 0
1, 12120, Note_on_c, 1, 59, 80
1, 12120, Note_on_c, 1, 62, 80
1, 12240, Note_on_c, 0, 79, 0
1, 12240, Note_on_c, 0, 79, 80
1, 12240, Note_on_c, 1, 62, 0
1, 12240, Note_on_c, 1, 59, 0
1, 12240, Note_on_c, 1, 59, 80
1, 12240, Note_on_c, 1, 62, 80
1, 12420, Note_on_c, 0, 79, 0
1, 12420, Note_on_c, 0, 83, 80
1, 12480, Note_on_c, 0, 83, 0
1, 12480, Note_on_c, 0, 81, 96
1, 12480, Note_on_c, 1, 62, 0
1, 12480, Note_on_c, 1, 59, 0
1, 12480, Note_on_c, 1, 60, 96
1, 12480, Note_on_c, 1, 64, 96
1, 12540, Note_on_c, 0, 81, 0
1, 12540, Note_on_c, 1, 64, 0
1, 12540, Note_on_c, 1, 60, 0
1, 12600, Note_on_c, 0, 79, 80
1, 12600, Note_on_c, 1, 59, 80
1, 12600, Note_on_c, 1, 62, 80
1, 12720, Note_on_c, 0, 79, 0
1, 12720, Note_on_c, 0, 78, 80
1, 12720, Note_on_c, 1, 62, 0
1, 12720, Note_on_c, 1, 59, 0
1, 12720, Note_on_c, 1, 57, 80
1, 12720, Note_on_c, 1, 60, 80
1, 12840, Note_on_c, 0, 78, 0
1, 12840, Note_on_c, 0, 76, 80
1, 12840, Note_on_c, 1, 60, 0
1, 12840, Note_on_c, 1, 57, 0
1, 12840, Note_on_c, 1, 55, 80
1, 12840, Note_on_c, 1, 59, 80
1, 12960, Note_on_c, 0, 76, 0
1, 12960, Note_on_c, 0, 74, 80
1, 12960, Note_on_c, 1, 59, 0
1, 12960, Note_on_c, 1, 55, 0
1, 12960, Note_on_c, 1, 54, 80
1, 12960, Note_on_c, 1, 57, 80
1, 12996, Note_on_c, 0, 74, 0
1, 12996, Note_on_c, 1, 57, 0
1, 12996, Note_on_c, 1, 54, 0
1, 13080, Note_on_c, 0, 74, 80
1, 13080, Note_on_c, 1, 54, 80
1, 13080, Note_on_c, 1, 57, 80
1, 13116, Note_on_c, 0, 74, 0
1, 13116, Note_on_c, 1, 57, 0
1, 13116, Note_on_c, 1, 54, 0
1, 13200, Note_on_c, 0, 74, 80
1, 13200, Note_on_c, 1, 54, 80
1, 13200, Note_on_c, 1, 57, 80
1, 13260, Note_on_c, 0, 74, 0
1, 13260, Note_on_c, 1, 57, 0
1, 13260, Note_on_c, 1, 54, 0
1, 13320, Note_on_c, 0, 74, 80
1, 13320, Note_on_c, 1, 54, 80
1, 13320, Note_on_c, 1, 57, 80
1, 13440, Note_on_c, 1, 57, 0
1, 13440, Note_on_c, 1, 59, 80
1, 13560, Note_on_c, 0, 74, 0
1, 13560, Note_on_c, 0, 75, 96
1, 13560, Note_on_c, 1, 59, 0
1, 13560, Note_on_c, 1, 60, 96
1, 13620, Note_on_c, 0, 75, 0
1, 13620, Note_on_c, 1, 60, 0
1, 13620, Note_on_c, 1, 54, 0
1, 13680, Note_on_c, 0, 76, 80
1, 13680, Note_on_c, 1, 55, 80
1, 13680, Note_on_c, 1, 59, 80
1, 13776, Note_on_c, 0, 76, 0
1, 13776, Note_on_c, 1, 59, 0
1, 13776, Note_on_c, 1, 55, 0
1, 13800, Note_on_c, 0, 79, 80
1, 13800, Note_on_c, 1, 54, 80
1, 13800, Note_on_c, 1, 57, 80
1, 13824, Note_on_c, 0, 79, 0
1, 13830, Note_on_c, 0, 78, 80
1, 13854, Note_on_c, 0, 78, 0
1, 13860, Note_on_c, 0, 76, 80
1, 13884, Note_on_c, 0, 76, 0
1, 13890, Note_on_c, 0, 78, 80
1, 13896, Note_on_c, 1, 57, 0
1, 13896, Note_on_c, 1, 54, 0
1, 13914, Note_on_c, 0, 78, 0
1, 13920, Note_on_c, 0, 79, 80
1, 13920, Note_on_c, 1, 52, 80
1, 13920, Note_on_c, 1, 55, 80
1, 14016, Note_on_c, 0, 79, 0
1, 14016, Note_on_c, 1, 55, 0
1, 14016, Note_on_c, 1, 52, 0
1, 14040, Note_on_c, 0, 69, 80
1, 14040, Note_on_c, 1, 57, 80
1, 14040, Note_on_c, 1, 67, 80
1, 14136, Note_on_c, 0, 69, 0
1, 14136, Note_on_c, 1, 67, 0
1, 14160, Note_on_c, 0, 71, 80
1, 14160, Note_on_c, 1, 66, 80
1, 14256, Note_on_c, 0, 71, 0
1, 14256, Note_on_c, 1, 66, 0
1, 14280, Note_on_c, 0, 74, 80
1, 14280, Note_on_c, 1, 64, 80
1, 14304, Note_on_c, 0, 74, 0
1, 14310, Note_on_c, 0, 73, 80
1, 14334, Note_on_c, 0, 73, 0
1, 14340, Note_on_c, 0, 71, 80
1, 14364, Note_on_c, 0, 71, 0
1, 14370, Note_on_c, 0, 73, 80
1, 14376, Note_on_c, 1, 64, 0
1, 14376, Note_on_c, 1, 57, 0
1, 14394, Note_on_c, 0, 73, 0
1, 14400, Note_on_c, 0, 74, 80
1, 14436, Note_on_c, 0, 74, 0
1, 14520, Note_on_c, 1, 50, 64
1, 14520, Note_on_c, 1, 54, 64
1, 14640, Note_on_c, 0, 74, 64
1, 14640, Note_on_c, 1, 54, 0
1, 14640, Note_on_c, 1, 50, 0
1, 14640, Note_on_c, 1, 52, 64
1, 14640, Note_on_c, 1, 55, 64
1, 14676, Note_on_c, 0, 74, 0
1, 14676, Note_on_c, 1, 55, 0
1, 14676, Note_on_c, 1, 52, 0
1, 14760, Note_on_c, 0, 74, 64
1, 14796, Note_on_c, 0, 74, 0
1, 14880, Note_on_c, 1, 54, 64
1, 14880, Note_on_c, 1, 57, 64
1, 15000, Note_on_c, 0, 74, 64
1, 15000, Note_on_c, 1, 57, 0
1, 15000, Note_on_c, 1, 54, 0
1, 15000, Note_on_c, 1, 55, 64
1, 15000, Note_on_c, 1, 59, 64
1, 15036, Note_on_c, 0, 74, 0
1, 15036, Note_on_c, 1, 59, 0
1, 15036, Note_on_c, 1, 55, 0
1, 15120, Note_on_c, 0, 74, 64
1, 15156, Note_on_c, 0, 74, 0
1, 15240, Note_on_c, 1, 60, 64
1, 15240, Note_on_c, 1, 57, 64
1, 15360, Note_on_c, 0, 74, 64
1, 15360, Note_on_c, 1, 57, 0
1, 15360, Note_on_c, 1, 60, 0
1, 15360, Note_on_c, 1, 59, 64
1, 15360, Note_on_c, 1, 55, 64
1, 15396, Note_on_c, 0, 74, 0
1, 15396, Note_on_c, 1, 55, 0
1, 15396, Note_on_c, 1, 59, 0
1, 15480, Note_on_c, 0, 74, 64
1, 15516, Note_on_c, 0, 74, 0
1, 15600, Note_on_c, 1, 57, 64
1, 15600, Note_on_c, 1, 54, 64
1, 15720, Note_on_c, 0, 74, 64
1, 15720, Note_on_c, 1, 54, 0
1, 15720, Note_on_c, 1, 57, 0
1, 15720, Note_on_c, 1, 55, 64
1, 15720, Note_on_c, 1, 52, 64
1, 15756, Note_on_c, 0, 74, 0
1, 15756, Note_on_c, 1, 52, 0
1, 15756, Note_on_c, 1, 55, 0
1, 15840, Note_on_c, 0, 74, 48
1, 15840, Note_on_c, 1, 50, 48
1, 15840, Note_on_c, 1, 54, 48
1, 15876, Note_on_c, 0, 74, 0
1, 15876, Note_on_c, 1, 54, 0
1, 15876, Note_on_c, 1, 50, 0
1, 15960, Note_on_c, 0, 78, 48
1, 15960, Note_on_c, 0, 74, 48
1, 16080, Note_on_c, 0, 74, 0
1, 16080, Note_on_c, 0, 78, 0
1, 16080, Note_on_c, 0, 79, 48
1, 16080, Note_on_c, 0, 76, 48
1, 16080, Note_on_c, 1, 62, 48
1, 16116, Note_on_c, 0, 76, 0
1, 16116, Note_on_c, 0, 79, 0
1, 16116, Note_on_c, 1, 62, 0
1, 16200, Note_on_c, 1, 62, 48
1, 16236, Note_on_c, 1, 62, 0
1, 16320, Note_on_c, 0, 81, 48
1, 16320, Note_on_c, 0, 78, 48
1, 16440, Note_on_c, 0, 78, 0
1, 16440, Note_on_c, 0, 81, 0
1, 16440, Note_on_c, 0, 83, 48
1, 16440, Note_on_c, 0, 79, 48
1, 16440, Note_on_c, 1, 62, 48
1, 16476, Note_on_c, 0, 79, 0
1, 16476, Note_on_c, 0, 83, 0
1, 16476, Note_on_c, 1, 62, 0
1, 16560, Note_on_c, 1, 62, 48
1, 16596, Note_on_c, 1, 62, 0
1, 16680, Note_on_c, 0, 81, 48
1, 16680, Note_on_c, 0, 84, 48
1, 16800, Note_on_c, 0, 84, 0
1, 16800, Note_on_c, 0, 81, 0
1, 16800, Note_on_c, 0, 79, 48
1, 16800, Note_on_c, 0, 83, 48
1, 16800, Note_on_c, 1, 62, 48
1, 16836, Note_on_c, 0, 83, 0
1, 16836, Note_on_c, 0, 79, 0
1, 16836, Note_on_c, 1, 62, 0
1, 16920, Note_on_c, 1, 62, 48
1, 17040, Note_on_c, 0, 72, 48
1, 17040, Note_on_c, 0, 81, 48
1, 17040, Note_on_c, 1, 66, 48
1, 17136, Note_on_c, 1, 66, 0
1, 17160, Note_on_c, 0, 81, 0
1, 17160, Note_on_c, 0, 72, 0
1, 17160, Note_on_c, 0, 71, 48
1, 17160, Note_on_c, 0, 79, 48
1, 17160, Note_on_c, 1, 67, 48
1, 17256, Note_on_c, 1, 67, 0
1, 17280, Note_on_c, 0, 79, 0
1, 17280, Note_on_c, 0, 71, 0
1, 17280, Note_on_c, 0, 72, 40
1, 17280, Note_on_c, 0, 78, 40
1, 17280, Note_on_c, 1, 69, 40
1, 17856, Note_on_c, 0, 78, 0
1, 17856, Note_on_c, 0, 72, 0
1, 17856, Note_on_c, 1, 69, 0
1, 17856, Note_on_c, 1, 62, 0
1, 18180, Note_on_c, 0, 71, 72
1, 18204, Note_on_c, 0, 71, 0
1, 18210, Note_on_c, 0, 72, 71
1, 18234, Note_on_c, 0, 72, 0
1, 18240, Note_on_c, 0, 74, 69
1, 18264, Note_on_c, 0, 74, 0
1, 18270, Note_on_c, 0, 72, 68
1, 18294, Note_on_c, 0, 72, 0
1, 18300, Note_on_c, 0, 71, 67
1, 18324, Note_on_c, 0, 71, 0
1, 18330, Note_on_c, 0, 69, 65
1, 18354, Note_on_c, 0, 69, 0
1, 18360, Note_on_c, 0, 67, 64
1, 18360, Note_on_c, 1, 59, 64
1, 18360, Note_on_c, 1, 55, 64
1, 18540, Note_on_c, 0, 67, 0
1, 18540, Note_on_c, 0, 71, 64
1, 18600, Note_on_c, 0, 71, 0
1, 18600, Note_on_c, 0, 69, 64
1, 18600, Note_on_c, 1, 55, 0
1, 18600, Note_on_c, 1, 59, 0
1, 18600, Note_on_c, 1, 60, 64
1, 18600, Note_on_c, 1, 55, 64
1, 18720, Note_on_c, 0, 69, 0
1, 18720, Note_on_c, 0, 62, 64
1, 18720, Note_on_c, 1, 55, 0
1, 18720, Note_on_c, 1, 60, 0
1, 18720, Note_on_c, 1, 60, 64
1, 18720, Note_on_c, 1, 55, 64
1, 18840, Note_on_c, 0, 62, 0
1, 18840, Note_on_c, 0, 64, 64
1, 18960, Note_on_c, 0, 64, 0
1, 18960, Note_on_c, 0, 67, 64
1, 18960, Note_on_c, 1, 55, 0
1, 18960, Note_on_c, 1, 60, 0
1, 18960, Note_on_c, 1, 60, 64
1, 18960, Note_on_c, 1, 55, 64
1, 18990, Note_on_c, 0, 67, 0
1, 18990, Note_on_c, 0, 66, 64
1, 19020, Note_on_c, 0, 66, 0
1, 19020, Note_on_c, 0, 64, 64
1, 19050, Note_on_c, 0, 64, 0
1, 19050, Note_on_c, 0, 66, 64
1, 19080, Note_on_c, 0, 66, 0
1, 19080, Note_on_c, 0, 67, 64
1, 19080, Note_on_c, 1, 55, 0
1, 19080, Note_on_c, 1, 60, 0
1, 19080, Note_on_c, 1, 59, 64
1, 19080, Note_on_c, 1, 55, 64
1, 19116, Note_on_c, 0, 67, 0
1, 19116, Note_on_c, 1, 55, 0
1, 19116, Note_on_c, 1, 59, 0
1, 19200, Note_on_c, 0, 67, 64
1, 19200, Note_on_c, 1, 59, 64
1, 19200, Note_on_c, 1, 55, 64
1, 19236, Note_on_c, 0, 67, 0
1, 19236, Note_on_c, 1, 55, 0
1, 19236, Note_on_c, 1, 59, 0
1, 19320, Note_on_c, 0, 67, 64
1, 19320, Note_on_c, 1, 59, 64
1, 19320, Note_on_c, 1, 55, 64
1, 19380, Note_on_c, 0, 67, 0
1, 19380, Note_on_c, 1, 55, 0
1, 19380, Note_on_c, 1, 59, 0
1, 19440, Note_on_c, 0, 67, 64
1, 19440, Note_on_c, 1, 59, 64
1, 19440, Note_on_c, 1, 55, 64
1, 19680, Note_on_c, 0, 67, 0
1, 19680, Note_on_c, 0, 69, 64
1, 19680, Note_on_c, 0, 62, 64
1, 19680, Note_on_c, 1, 55, 0
1, 19680, Note_on_c, 1, 59, 0
1, 19680, Note_on_c, 1, 54, 64
1, 19770, Note_on_c, 0, 62, 0
1, 19770, Note_on_c, 0, 69, 0
1, 19770, Note_on_c, 0, 72, 64
1, 19770, Note_on_c, 1, 54, 0
1, 19770, Note_on_c, 1, 57, 64
1, 19800, Note_on_c, 0, 72, 0
1, 19800, Note_on_c, 0, 71, 64
1, 19800, Note_on_c, 0, 62, 64
1, 19800, Note_on_c, 1, 57, 0
1, 19800, Note_on_c, 1, 55, 64
1, 19920, Note_on_c, 0, 71, 0
1, 19920, Note_on_c, 0, 69, 64
1, 19920, Note_on_c, 1, 55, 0
1, 19920, Note_on_c, 1, 54, 64
1, 20040, Note_on_c, 0, 69, 0
1, 20040, Note_on_c, 0, 71, 64
1, 20040, Note_on_c, 1, 54, 0
1, 20040, Note_on_c, 1, 55, 64
1, 20100, Note_on_c, 0, 71, 0
1, 20100, Note_on_c, 0, 62, 0
1, 20100, Note_on_c, 1, 55, 0
1, 20160, Note_on_c, 0, 74, 80
1, 20160, Note_on_c, 0, 66, 80
1, 20160, Note_on_c, 0, 62, 80
1, 20160, Note_on_c, 1, 57, 80
1, 20280, Note_on_c, 0, 74, 0
1, 20280, Note_on_c, 0, 72, 64
1, 20400, Note_on_c, 0, 72, 0
1, 20400, Note_on_c, 0, 66, 0
1, 20400, Note_on_c, 0, 71, 64
1, 20400, Note_on_c, 0, 67, 64
1, 20400, Note_on_c, 1, 57, 0
1, 20400, Note_on_c, 1, 55, 64
1, 20520, Note_on_c, 0, 67, 0
1, 20520, Note_on_c, 0, 71, 0
1, 20520, Note_on_c, 0, 62, 0
1, 20520, Note_on_c, 0, 71, 64
1, 20520, Note_on_c, 0, 67, 64
1, 20520, Note_on_c, 1, 55, 0
1, 20520, Note_on_c, 1, 50, 64
1, 20640, Note_on_c, 0, 67, 0
1, 20640, Note_on_c, 0, 71, 0
1, 20640, Note_on_c, 0, 69, 64
1, 20640, Note_on_c, 0, 66, 64
1, 20640, Note_on_c, 1, 50, 0
1, 20640, Note_on_c, 1, 62, 64
1, 20676, Note_on_c, 0, 66, 0
1, 20676, Note_on_c, 0, 69, 0
1, 20676, Note_on_c, 1, 62, 0
1, 20760, Note_on_c, 0, 69, 64
1, 20760, Note_on_c, 0, 66, 64
1, 20760, Note_on_c, 1, 62, 64
1, 20796, Note_on_c, 0, 66, 0
1, 20796, Note_on_c, 0, 69, 0
1, 20796, Note_on_c, 1, 62, 0
1, 20880, Note_on_c, 0, 69, 64
1, 20880, Note_on_c, 0, 66, 64
1, 20880, Note_on_c, 1, 62, 64
1, 21000, Note_on_c, 1, 62, 0
1, 21000, Note_on_c, 1, 60, 64
1, 21120, Note_on_c, 0, 66, 0
1, 21120, Note_on_c, 0, 69, 0
1, 21120, Note_on_c, 0, 71, 80
1, 21120, Note_on_c, 0, 68, 80
1, 21120, Note_on_c, 1, 60, 0
1, 21120, Note_on_c, 1, 59, 80
1, 21192, Note_on_c, 0, 68, 0
1, 21192, Note_on_c, 0, 71, 0
1, 21192, Note_on_c, 1, 59, 0
1, 21240, Note_on_c, 0, 72, 64
1, 21240, Note_on_c, 0, 69, 64
1, 21240, Note_on_c, 1, 57, 64
1, 21360, Note_on_c, 0, 69, 0
1, 21360, Note_on_c, 0, 72, 0
1, 21360, Note_on_c, 0, 74, 64
1, 21360, Note_on_c, 0, 71, 64
1, 21480, Note_on_c, 0, 71, 0
1, 21480, Note_on_c, 0, 74, 0
1, 21480, Note_on_c, 0, 76, 64
1, 21480, Note_on_c, 0, 72, 64
1, 21480, Note_on_c, 1, 57, 0
1, 21480, Note_on_c, 1, 55, 64
1, 21516, Note_on_c, 0, 72, 0
1, 21516, Note_on_c, 0, 76, 0
1, 21516, Note_on_c, 1, 55, 0
1, 21600, Note_on_c, 0, 76, 64
1, 21600, Note_on_c, 0, 72, 64
1, 21600, Note_on_c, 1, 54, 64
1, 21720, Note_on_c, 1, 54, 0
1, 21720, Note_on_c, 1, 57, 64
1, 21840, Note_on_c, 0, 72, 0
1, 21840, Note_on_c, 0, 76, 0
1, 21840, Note_on_c, 0, 74, 64
1, 21840, Note_on_c, 0, 69, 64
1, 21840, Note_on_c, 1, 57, 0
1, 21840, Note_on_c, 1, 62, 64
1, 21870, Note_on_c, 0, 74, 0
1, 21870, Note_on_c, 0, 72, 64
1, 21900, Note_on_c, 0, 72, 0
1, 21900, Note_on_c, 0, 71, 64
1, 21930, Note_on_c, 0, 71, 0
1, 21930, Note_on_c, 0, 72, 64
1, 21960, Note_on_c, 0, 72, 0
1, 21960, Note_on_c, 0, 69, 0
1, 21960, Note_on_c, 0, 67, 64
1, 21960, Note_on_c, 0, 71, 64
1, 21960, Note_on_c, 1, 62, 0
1, 21960, Note_on_c, 1, 55, 64
1, 22080, Note_on_c, 0, 71, 0
1, 22080, Note_on_c, 0, 67, 0
1, 22080, Note_on_c, 0, 69, 64
1, 22080, Note_on_c, 0, 72, 64
1, 22200, Note_on_c, 0, 72, 0
1, 22200, Note_on_c, 0, 69, 0
1, 22200, Note_on_c, 0, 71, 64
1, 22200, Note_on_c, 0, 74, 64
1, 22218, Note_on_c, 0, 74, 0
1, 22218, Note_on_c, 0, 71, 0
1, 22260, Note_on_c, 0, 73, 64
1, 22280, Note_on_c, 0, 73, 0
1, 22280, Note_on_c, 0, 74, 64
1, 22300, Note_on_c, 0, 74, 0
1, 22300, Note_on_c, 0, 76, 64
1, 22320, Note_on_c, 0, 76, 0
1, 22320, Note_on_c, 0, 74, 64
1, 22320, Note_on_c, 1, 55, 0
1, 22320, Note_on_c, 1, 43, 64
1, 22440, Note_on_c, 1, 43, 0
1, 22440, Note_on_c, 1, 47, 64
1, 22560, Note_on_c, 0, 74, 0
1, 22560, Note_on_c, 0, 59, 64
1, 22560, Note_on_c, 0, 69, 64
1, 22560, Note_on_c, 1, 47, 0
1, 22560, Note_on_c, 1, 52, 64
1, 22590, Note_on_c, 0, 69, 0
1, 22590, Note_on_c, 0, 67, 64
1, 22620, Note_on_c, 0, 67, 0
1, 22620, Note_on_c, 0, 66, 64
1, 22650, Note_on_c, 0, 66, 0
1, 22650, Note_on_c, 0, 59, 0
1, 22650, Note_on_c, 0, 59, 64
1, 22650, Note_on_c, 0, 67, 64
1, 22680, Note_on_c, 0, 67, 0
1, 22680, Note_on_c, 0, 59, 0
1, 22680, Note_on_c, 0, 60, 64
1, 22680, Note_on_c, 0, 69, 64
1, 22680, Note_on_c, 1, 52, 0
1, 22680, Note_on_c, 1, 48, 64
1, 22800, Note_on_c, 0, 69, 0
1, 22800, Note_on_c, 0, 60, 0
1, 22800, Note_on_c, 0, 64, 64
1, 22800, Note_on_c, 0, 72, 64
1, 22920, Note_on_c, 0, 72, 0
1, 22920, Note_on_c, 0, 64, 0
1, 22920, Note_on_c, 0, 62, 64
1, 22920, Note_on_c, 0, 71, 64
1, 23040, Note_on_c, 0, 71, 0
1, 23040, Note_on_c, 0, 62, 0
1, 23040, Note_on_c, 0, 60, 64
1, 23040, Note_on_c, 0, 69, 64
1, 23040, Note_on_c, 1, 48, 0
1, 23040, Note_on_c, 1, 50, 64
1, 23160, Note_on_c, 0, 69, 0
1, 23160, Note_on_c, 0, 60, 0
1, 23160, Note_on_c, 0, 59, 64
1, 23160, Note_on_c, 0, 67, 64
1, 23196, Note_on_c, 0, 67, 0
1, 23196, Note_on_c, 0, 59, 0
1, 23280, Note_on_c, 0, 57, 64
1, 23280, Note_on_c, 0, 67, 64
1, 23310, Note_on_c, 0, 67, 0
1, 23310, Note_on_c, 0, 66, 64
1, 23340, Note_on_c, 0, 66, 0
1, 23340, Note_on_c, 0, 64, 64
1, 23370, Note_on_c, 0, 64, 0
1, 23370, Note_on_c, 0, 66, 64
1, 23400, Note_on_c, 0, 66, 0
1, 23400, Note_on_c, 0, 57, 0
1, 23400, Note_on_c, 0, 60, 64
1, 23400, Note_on_c, 0, 69, 64
1, 23400, Note_on_c, 1, 50, 0
1, 23400, Note_on_c, 1, 43, 64
1, 23520, Note_on_c, 0, 69, 0
1, 23520, Note_on_c, 0, 60, 0
1, 23520, Note_on_c, 0, 59, 64
1, 23520, Note_on_c, 0, 67, 64
1, 23520, Note_on_c, 1, 43, 0
1, 23520, Note_on_c, 1, 47, 64
1, 23556, Note_on_c, 0, 67, 0
1, 23556, Note_on_c, 0, 59, 0
1, 23556, Note_on_c, 1, 47, 0
1, 23640, Note_on_c, 0, 59, 64
1, 23640, Note_on_c, 0, 67, 64
1, 23640, Note_on_c, 1, 50, 64
1, 23676, Note_on_c, 0, 67, 0
1, 23676, Note_on_c, 0, 59, 0
1, 23676, Note_on_c, 1, 50, 0
1, 23760, Note_on_c, 0, 59, 64
1, 23760, Note_on_c, 0, 67, 64
1, 23760, Note_on_c, 1, 55, 64
1, 24000, Note_on_c, 0, 67, 0
1, 24000, Note_on_c, 0, 59, 0
1, 24000, Note_on_c, 0, 79, 80
1, 24000, Note_on_c, 1, 55, 0
1, 24000, Note_on_c, 1, 62, 80
1, 24000, Note_on_c, 1, 59, 80
1, 24120, Note_on_c, 0, 79, 0
1, 24120, Note_on_c, 0, 79, 80
1, 24120, Note_on_c, 1, 59, 0
1, 24120, Note_on_c, 1, 62, 0
1, 24120, Note_on_c, 1, 62, 80
1, 24120, Note_on_c, 1, 59, 80
1, 24300, Note_on_c, 0, 79, 0
1, 24300, Note_on_c, 0, 83, 80
1, 24360, Note_on_c, 0, 83, 0
1, 24360, Note_on_c, 0, 81, 96
1, 24360, Note_on_c, 1, 59, 0
1, 24360, Note_on_c, 1, 62, 0
1, 24360, Note_on_c, 1, 64, 96
1, 24360, Note_on_c, 1, 60, 96
1, 24420, Note_on_c, 0, 81, 0
1, 24420, Note_on_c, 1, 60, 0
1, 24420, Note_on_c, 1, 64, 0
1, 24480, Note_on_c, 0, 79, 80
1, 24480, Note_on_c, 1, 62, 80
1, 24480, Note_on_c, 1, 59, 80
1, 24600, Note_on_c, 0, 79, 0
1, 24600, Note_on_c, 0, 78, 80
1, 24600, Note_on_c, 1, 59, 0
1, 24600, Note_on_c, 1, 62, 0
1, 24600, Note_on_c, 1, 60, 80
1, 24600, Note_on_c, 1, 57, 80
1, 24720, Note_on_c, 0, 78, 0
1, 24720, Note_on_c, 0, 76, 80
1, 24720, Note_on_c, 1, 57, 0
1, 24720, Note_on_c, 1, 60, 0
1, 24720, Note_on_c, 1, 59, 80
1, 24720, Note_on_c, 1, 55, 80
1, 24840, Note_on_c, 0, 76, 0
1, 24840, Note_on_c, 0, 74, 80
1, 24840, Note_on_c, 1, 55, 0
1, 24840, Note_on_c, 1, 59, 0
1, 24840, Note_on_c, 1, 57, 80
1, 24840, Note_on_c, 1, 54, 80
1, 24876, Note_on_c, 0, 74, 0
1, 24876, Note_on_c, 1, 54, 0
1, 24876, Note_on_c, 1, 57, 0
1, 24960, Note_on_c, 0, 74, 80
1, 24960, Note_on_c, 1, 57, 80
1, 24960, Note_on_c, 1, 54, 80
1, 24996, Note_on_c, 0, 74, 0
1, 24996, Note_on_c, 1, 54, 0
1, 24996, Note_on_c, 1, 57, 0
1, 25080, Note_on_c, 0, 74, 80
1, 25080, Note_on_c, 1, 57, 80
1, 25080, Note_on_c, 1, 54, 80
1, 25140, Note_on_c, 0, 74, 0
1, 25140, Note_on_c, 1, 54, 0
1, 25140, Note_on_c, 1, 57, 0
1, 25200, Note_on_c, 0, 74, 80
1, 25200, Note_on_c, 1, 57, 80
1, 25200, Note_on_c, 1, 54, 80
1, 25320, Note_on_c, 1, 57, 0
1, 25320, Note_on_c, 1, 59, 80
1, 25440, Note_on_c, 0, 74, 0
1, 25440, Note_on_c, 0, 75, 96
1, 25440, Note_on_c, 1, 59, 0
1, 25440, Note_on_c, 1, 60, 96
1, 25500, Note_on_c, 0, 75, 0
1, 25500, Note_on_c, 1, 60, 0
1, 25500, Note_on_c, 1, 54, 0
1, 25560, Note_on_c, 0, 76, 80
1, 25560, Note_on_c, 1, 59, 80
1, 25560, Note_on_c, 1, 55, 80
1, 25656, Note_on_c, 0, 76, 0
1, 25656, Note_on_c, 1, 55, 0
1, 25656, Note_on_c, 1, 59, 0
1, 25680, Note_on_c, 0, 79, 80
1, 25680, Note_on_c, 1, 57, 80
1, 25680, Note_on_c, 1, 54, 80
1, 25704, Note_on_c, 0, 79, 0
1, 25710, Note_on_c, 0, 78, 80
1, 25734, Note_on_c, 0, 78, 0
1, 25740, Note_on_c, 0, 76, 80
1, 25764, Note_on_c, 0, 76, 0
1, 25770, Note_on_c, 0, 78, 80
1, 25776, Note_on_c, 1, 54, 0
1, 25776, Note_on_c, 1, 57, 0
1, 25794, Note_on_c, 0, 78, 0
1, 25800, Note_on_c, 0, 79, 80
1, 25800, Note_on_c, 1, 55, 80
1, 25800, Note_on_c, 1, 52, 80
1, 25896, Note_on_c, 0, 79, 0
1, 25896, Note_on_c, 1, 52, 0
1, 25896, Note_on_c, 1, 55, 0
1, 25920, Note_on_c, 0, 69, 80
1, 25920, Note_on_c, 1, 67, 80
1, 25920, Note_on_c, 1, 57, 80
1, 26016, Note_on_c, 0, 69, 0
1, 26016, Note_on_c, 1, 67, 0
1, 26040, Note_on_c, 0, 71, 80
1, 26040, Note_on_c, 1, 66, 80
1, 26136, Note_on_c, 0, 71, 0
1, 26136, Note_on_c, 1, 66, 0
1, 26160, Note_on_c, 0, 74, 80
1, 26160, Note_on_c, 1, 64, 80
1, 26184, Note_on_c, 0, 74, 0
1, 26190, Note_on_c, 0, 73, 80
1, 26214, Note_on_c, 0, 73, 0
1, 26220, Note_on_c, 0, 71, 80
1, 26244, Note_on_c, 0, 71, 0
1, 26250, Note_on_c, 0, 73, 80
1, 26256, Note_on_c, 1, 64, 0
1, 26256, Note_on_c, 1, 57, 0
1, 26274, Note_on_c, 0, 73, 0
1, 26280, Note_on_c, 0, 74, 80
1, 26316, Note_on_c, 0, 74, 0
1, 26400, Note_on_c, 1, 54, 64
1, 26400, Note_on_c, 1, 50, 64
1, 26520, Note_on_c, 0, 74, 64
1, 26520, Note_on_c, 1, 50, 0
1, 26520, Note_on_c, 1, 54, 0
1, 26520, Note_on_c, 1, 55, 64
1, 26520, Note_on_c, 1, 52, 64
1, 26556, Note_on_c, 0, 74, 0
1, 26556, Note_on_c, 1, 52, 0
1, 26556, Note_on_c, 1, 55, 0
1, 26640, Note_on_c, 0, 74, 64
1, 26676, Note_on_c, 0, 74, 0
1, 26760, Note_on_c, 1, 57, 64
1, 26760, Note_on_c, 1, 54, 64
1, 26880, Note_on_c, 0, 74, 64
1, 26880, Note_on_c, 1, 54, 0
1, 26880, Note_on_c, 1, 57, 0
1, 26880, Note_on_c, 1, 59, 64
1, 26880, Note_on_c, 1, 55, 64
1, 26916, Note_on_c, 0, 74, 0
1, 26916, Note_on_c, 1, 55, 0
1, 26916, Note_on_c, 1, 59, 0
1, 27000, Note_on_c, 0, 74, 64
1, 27036, Note_on_c, 0, 74, 0
1, 27120, Note_on_c, 1, 57, 64
1, 27120, Note_on_c, 1, 60, 64
1, 27240, Note_on_c, 0, 74, 64
1, 27240, Note_on_c, 1, 60, 0
1, 27240, Note_on_c, 1, 57, 0
1, 27240, Note_on_c, 1, 55, 64
1, 27240, Note_on_c, 1, 59, 64
1, 27276, Note_on_c, 0, 74, 0
1, 27276, Note_on_c, 1, 59, 0
1, 27276, Note_on_c, 1, 55, 0
1, 27360, Note_on_c, 0, 74, 64
1, 27396, Note_on_c, 0, 74, 0
1, 27480, Note_on_c, 1, 54, 64
1, 27480, Note_on_c, 1, 57, 64
1, 27600, Note_on_c, 0, 74, 64
1, 27600, Note_on_c, 1, 57, 0
1, 27600, Note_on_c, 1, 54, 0
1, 27600, Note_on_c, 1, 52, 64
1, 27600, Note_on_c, 1, 55, 64
1, 27636, Note_on_c, 0, 74, 0
1, 27636, Note_on_c, 1, 55, 0
1, 27636, Note_on_c, 1, 52, 0
1, 27720, Note_on_c, 0, 74, 48
1, 27720, Note_on_c, 1, 54, 48
1, 27720, Note_on_c, 1, 50, 48
1, 27756, Note_on_c, 0, 74, 0
1, 27756, Note_on_c, 1, 50, 0
1, 27756, Note_on_c, 1, 54, 0
1, 27840, Note_on_c, 0, 74, 48
1, 27840, Note_on_c, 0, 78, 48
1, 27960, Note_on_c, 0, 78, 0
1, 27960, Note_on_c, 0, 74, 0
1, 27960, Note_on_c, 0, 76, 48
1, 27960, Note_on_c, 0, 79, 48
1, 27960, Note_on_c, 1, 62, 48
1, 27996, Note_on_c, 0, 79, 0
1, 27996, Note_on_c, 0, 76, 0
1, 27996, Note_on_c, 1, 62, 0
1, 28080, Note_on_c, 1, 62, 48
1, 28116, Note_on_c, 1, 62, 0
1, 28200, Note_on_c, 0, 78, 48
1, 28200, Note_on_c, 0, 81, 48
1, 28320, Note_on_c, 0, 81, 0
1, 28320, Note_on_c, 0, 78, 0
1, 28320, Note_on_c, 0, 79, 48
1, 28320, Note_on_c, 0, 83, 48
1, 28320, Note_on_c, 1, 62, 48
1, 28356, Note_on_c, 0, 83, 0
1, 28356, Note_on_c, 0, 79, 0
1, 28356, Note_on_c, 1, 62, 0
1, 28440, Note_on_c, 1, 62, 48
1, 28476, Note_on_c, 1, 62, 0
1, 28560, Note_on_c, 0, 84, 48
1, 28560, Note_on_c, 0, 81, 48
1, 28680, Note_on_c, 0, 81, 0
1, 28680, Note_on_c, 0, 84, 0
1, 28680, Note_on_c, 0, 83, 48
1, 28680, Note_on_c, 0, 79, 48
1, 28680, Note_on_c, 1, 62, 48
1, 28716, Note_on_c, 0, 79, 0
1, 28716, Note_on_c, 0, 83, 0
1, 28716, Note_on_c, 1, 62, 0
1, 28800, Note_on_c, 1, 62, 48
1, 28920, Note_on_c, 0, 81, 48
1, 28920, Note_on_c, 0, 72, 48
1, 28920, Note_on_c, 1, 66, 48
1, 29016, Note_on_c, 1, 66, 0
1, 29040, Note_on_c, 0, 72, 0
1, 29040, Note_on_c, 0, 81, 0
1, 29040, Note_on_c, 0, 79, 48
1, 29040, Note_on_c, 0, 71, 48
1, 29040, Note_on_c, 1, 67, 48
1, 29136, Note_on_c, 1, 67, 0
1, 29160, Note_on_c, 0, 71, 0
1, 29160, Note_on_c, 0, 79, 0
1, 29160, Note_on_c, 0, 78, 40
1, 29160, Note_on_c, 0, 72, 40
1, 29160, Note_on_c, 1, 69, 40
1, 29736, Note_on_c, 0, 72, 0
1, 29736, Note_on_c, 0, 78, 0
1, 29736, Note_on_c, 1, 69, 0
1, 29736, Note_on_c, 1, 62, 0
1, 30060, Note_on_c, 0, 71, 72
1, 30084, Note_on_c, 0, 71, 0
1, 30090, Note_on_c, 0, 72, 71
1, 30114, Note_on_c, 0, 72, 0
1, 30120, Note_on_c, 0, 74, 69
1, 30144, Note_on_c, 0, 74, 0
1, 30150, Note_on_c, 0, 72, 68
1, 30174, Note_on_c, 0, 72, 0
1, 30180, Note_on_c, 0, 71, 67
1, 30204, Note_on_c, 0, 71, 0
1, 30210, Note_on_c, 0, 69, 65
1, 30234, Note_on_c, 0, 69, 0
1, 30240, Note_on_c, 0, 67, 64
1, 30240, Note_on_c, 1, 55, 64
1, 30240, Note_on_c, 1, 59, 64
1, 30420, Note_on_c, 0, 67, 0
1, 30420, Note_on_c, 0, 71, 64
1, 30480, Note_on_c, 0, 71, 0
1, 30480, Note_on_c, 0, 69, 64
1, 30480, Note_on_c, 1, 59, 0
1, 30480, Note_on_c, 1, 55, 0
1, 30480, Note_on_c, 1, 55, 64
1, 30480, Note_on_c, 1, 60, 64
1, 30600, Note_on_c, 0, 69, 0
1, 30600, Note_on_c, 0, 62, 64
1, 30600, Note_on_c, 1, 60, 0
1, 30600, Note_on_c, 1, 55, 0
1, 30600, Note_on_c, 1, 55, 64
1, 30600, Note_on_c, 1, 60, 64
1, 30720, Note_on_c, 0, 62, 0
1, 30720, Note_on_c, 0, 64, 64
1, 30840, Note_on_c, 0, 64, 0
1, 30840, Note_on_c, 0, 67, 64
1, 30840, Note_on_c, 1, 60, 0
1, 30840, Note_on_c, 1, 55, 0
1, 30840, Note_on_c, 1, 55, 64
1, 30840, Note_on_c, 1, 60, 64
1, 30870, Note_on_c, 0, 67, 0
1, 30870, Note_on_c, 0, 66, 64
1, 30900, Note_on_c, 0, 66, 0
1, 30900, Note_on_c, 0, 64, 64
1, 30930, Note_on_c, 0, 64, 0
1, 30930, Note_on_c, 0, 66, 64
1, 30960, Note_on_c, 0, 66, 0
1, 30960, Note_on_c, 0, 67, 64
1, 30960, Note_on_c, 1, 60, 0
1, 30960, Note_on_c, 1, 55, 0
1, 30960, Note_on_c, 1, 55, 64
1, 30960, Note_on_c, 1, 59, 64
1, 30996, Note_on_c, 0, 67, 0
1, 30996, Note_on_c, 1, 59, 0
1, 30996, Note_on_c, 1, 55, 0
1, 31080, Note_on_c, 0, 67, 64
1, 31080, Note_on_c, 1, 55, 64
1, 31080, Note_on_c, 1, 59, 64
1, 31116, Note_on_c, 0, 67, 0
1, 31116, Note_on_c, 1, 59, 0
1, 31116, Note_on_c, 1, 55, 0
1, 31200, Note_on_c, 0, 67, 64
1, 31200, Note_on_c, 1, 55, 64
1, 31200, Note_on_c, 1, 59, 64
1, 31260, Note_on_c, 0, 67, 0
1, 31260, Note_on_c, 1, 59, 0
1, 31260, Note_on_c, 1, 55, 0
1, 31320, Note_on_c, 0, 67, 64
1, 31320, Note_on_c, 1, 55, 64
1, 31320, Note_on_c, 1, 59, 64
1, 31560, Note_on_c, 0, 67, 0
1, 31560, Note_on_c, 0, 62, 64
1, 31560, Note_on_c, 0, 69, 64
1, 31560, Note_on_c, 1, 59, 0
1, 31560, Note_on_c, 1, 55, 0
1, 31560, Note_on_c, 1, 54, 64
1, 31650, Note_on_c, 0, 69, 0
1, 31650, Note_on_c, 0, 62, 0
1, 31650, Note_on_c, 0, 72, 64
1, 31650, Note_on_c, 1, 54, 0
1, 31650, Note_on_c, 1, 57, 64
1, 31680, Note_on_c, 0, 72, 0
1, 31680, Note_on_c, 0, 62, 64
1, 31680, Note_on_c, 0, 71, 64
1, 31680, Note_on_c, 1, 57, 0
1, 31680, Note_on_c, 1, 55, 64
1, 31800, Note_on_c, 0, 71, 0
1, 31800, Note_on_c, 0, 69, 64
1, 31800, Note_on_c, 1, 55, 0
1, 31800, Note_on_c, 1, 54, 64
1, 31920, Note_on_c, 0, 69, 0
1, 31920, Note_on_c, 0, 71, 64
1, 31920, Note_on_c, 1, 54, 0
1, 31920, Note_on_c, 1, 55, 64
1, 31980, Note_on_c, 0, 71, 0
1, 31980, Note_on_c, 0, 62, 0
1, 31980, Note_on_c, 1, 55, 0
1, 32040, Note_on_c, 0, 62, 80
1, 32040, Note_on_c, 0, 66, 80
1, 32040, Note_on_c, 0, 74, 80
1, 32040, Note_on_c, 1, 57, 80
1, 32160, Note_on_c, 0, 74, 0
1, 32160, Note_on_c, 0, 72, 64
1, 32280, Note_on_c, 0, 72, 0
1, 32280, Note_on_c, 0, 66, 0
1, 32280, Note_on_c, 0, 67, 64
1, 32280, Note_on_c, 0, 71, 64
1, 32280, Note_on_c, 1, 57, 0
1, 32280, Note_on_c, 1, 55, 64
1, 32400, Note_on_c, 0, 71, 0
1, 32400, Note_on_c, 0, 67, 0
1, 32400, Note_on_c, 0, 62, 0
1, 32400, Note_on_c, 0, 67, 64
1, 32400, Note_on_c, 0, 71, 64
1, 32400, Note_on_c, 1, 55, 0
1, 32400, Note_on_c, 1, 50, 64
1, 32520, Note_on_c, 0, 71, 0
1, 32520, Note_on_c, 0, 67, 0
1, 32520, Note_on_c, 0, 66, 64
1, 32520, Note_on_c, 0, 69, 64
1, 32520, Note_on_c, 1, 50, 0
1, 32520, Note_on_c, 1, 62, 64
1, 32556, Note_on_c, 0, 69, 0
1, 32556, Note_on_c, 0, 66, 0
1, 32556, Note_on_c, 1, 62, 0
1, 32640, Note_on_c, 0, 66, 64
1, 32640, Note_on_c, 0, 69, 64
1, 32640, Note_on_c, 1, 62, 64
1, 32676, Note_on_c, 0, 69, 0
1, 32676, Note_on_c, 0, 66, 0
1, 32676, Note_on_c, 1, 62, 0
1, 32760, Note_on_c, 0, 66, 64
1, 32760, Note_on_c, 0, 69, 64
1, 32760, Note_on_c, 1, 62, 64
1, 32880, Note_on_c, 1, 62, 0
1, 32880, Note_on_c, 1, 60, 64
1, 33000, Note_on_c, 0, 69, 0
1, 33000, Note_on_c, 0, 66, 0
1, 33000, Note_on_c, 0, 68, 80
1, 33000, Note_on_c, 0, 71, 80
1, 33000, Note_on_c, 1, 60, 0
1, 33000, Note_on_c, 1, 59, 80
1, 33072, Note_on_c, 0, 71, 0
1, 33072, Note_on_c, 0, 68, 0
1, 33072, Note_on_c, 1, 59, 0
1, 33120, Note_on_c, 0, 69, 64
1, 33120, Note_on_c, 0, 72, 64
1, 33120, Note_on_c, 1, 57, 64
1, 33240, Note_on_c, 0, 72, 0
1, 33240, Note_on_c, 0, 69, 0
1, 33240, Note_on_c, 0, 71, 64
1, 33240, Note_on_c, 0, 74, 64
1, 33360, Note_on_c, 0, 74, 0
1, 33360, Note_on_c, 0, 71, 0
1, 33360, Note_on_c, 0, 72, 64
1, 33360, Note_on_c, 0, 76, 64
1, 33360, Note_on_c, 1, 57, 0
1, 33360, Note_on_c, 1, 55, 64
1, 33396, Note_on_c, 0, 76, 0
1, 33396, Note_on_c, 0, 72, 0
1, 33396, Note_on_c, 1, 55, 0
1, 33480, Note_on_c, 0, 72, 64
1, 33480, Note_on_c, 0, 76, 64
1, 33480, Note_on_c, 1, 54, 64
1, 33600, Note_on_c, 1, 54, 0
1, 33600, Note_on_c, 1, 57, 64
1, 33720, Note_on_c, 0, 76, 0
1, 33720, Note_on_c, 0, 72, 0
1, 33720, Note_on_c, 0, 69, 64
1, 33720, Note_on_c, 0, 74, 64
1, 33720, Note_on_c, 1, 57, 0
1, 33720, Note_on_c, 1, 62, 64
1, 33750, Note_on_c, 0, 74, 0
1, 33750, Note_on_c, 0, 72, 64
1, 33780, Note_on_c, 0, 72, 0
1, 33780, Note_on_c, 0, 71, 64
1, 33810, Note_on_c, 0, 71, 0
1, 33810, Note_on_c, 0, 72, 64
1, 33840, Note_on_c, 0, 72, 0
1, 33840, Note_on_c, 0, 69, 0
1, 33840, Note_on_c, 0, 71, 64
1, 33840, Note_on_c, 0, 67, 64
1, 33840, Note_on_c, 1, 62, 0
1, 33840, Note_on_c, 1, 55, 64
1, 33960, Note_on_c, 0, 67, 0
1, 33960, Note_on_c, 0, 71, 0
1, 33960, Note_on_c, 0, 72, 64
1, 33960, Note_on_c, 0, 69, 64
1, 34080, Note_on_c, 0, 69, 0
1, 34080, Note_on_c, 0, 72, 0
1, 34080, Note_on_c, 0, 74, 64
1, 34080, Note_on_c, 0, 71, 64
1, 34098, Note_on_c, 0, 71, 0
1, 34098, Note_on_c, 0, 74, 0
1, 34140, Note_on_c, 0, 73, 64
1, 34160, Note_on_c, 0, 73, 0
1, 34160, Note_on_c, 0, 74, 64
1, 34180, Note_on_c, 0, 74, 0
1, 34180, Note_on_c, 0, 76, 64
1, 34200, Note_on_c, 0, 76, 0
1, 34200, Note_on_c, 0, 74, 64
1, 34200, Note_on_c, 1, 55, 0
1, 34200, Note_on_c, 1, 43, 64
1, 34320, Note_on_c, 1, 43, 0
1, 34320, Note_on_c, 1, 47, 64
1, 34440, Note_on_c, 0, 74, 0
1, 34440, Note_on_c, 0, 69, 64
1, 34440, Note_on_c, 0, 59, 64
1, 34440, Note_on_c, 1, 47, 0
1, 34440, Note_on_c, 1, 52, 64
1, 34470, Note_on_c, 0, 69, 0
1, 34470, Note_on_c, 0, 67, 64
1, 34500, Note_on_c, 0, 67, 0
1, 34500, Note_on_c, 0, 66, 64
1, 34530, Note_on_c, 0, 66, 0
1, 34530, Note_on_c, 0, 59, 0
1, 34530, Note_on_c, 0, 67, 64
1, 34530, Note_on_c, 0, 59, 64
1, 34560, Note_on_c, 0, 59, 0
1, 34560, Note_on_c, 0, 67, 0
1, 34560, Note_on_c, 0, 69, 64
1, 34560, Note_on_c, 0, 60, 64
1, 34560, Note_on_c, 1, 52, 0
1, 34560, Note_on_c, 1, 48, 64
1, 34680, Note_on_c, 0, 60, 0
1, 34680, Note_on_c, 0, 69, 0
1, 34680, Note_on_c, 0, 72, 64
1, 34680, Note_on_c, 0, 64, 64
1, 34800, Note_on_c, 0, 64, 0
1, 34800, Note_on_c, 0, 72, 0
1, 34800, Note_on_c, 0, 71, 64
1, 34800, Note_on_c, 0, 62, 64
1, 34920, Note_on_c, 0, 62, 0
1, 34920, Note_on_c, 0, 71, 0
1, 34920, Note_on_c, 0, 69, 64
1, 34920, Note_on_c, 0, 60, 64
1, 34920, Note_on_c, 1, 48, 0
1, 34920, Note_on_c, 1, 50, 64
1, 35040, Note_on_c, 0, 60, 0
1, 35040, Note_on_c, 0, 69, 0
1, 35040, Note_on_c, 0, 67, 64
1, 35040, Note_on_c, 0, 59, 64
1, 35076, Note_on_c, 0, 59, 0
1, 35076, Note_on_c, 0, 67, 0
1, 35160, Note_on_c, 0, 67, 64
1, 35160, Note_on_c, 0, 57, 64
1, 35190, Note_on_c, 0, 67, 0
1, 35190, Note_on_c, 0, 66, 64
1, 35220, Note_on_c, 0, 66, 0
1, 35220, Note_on_c, 0, 64, 64
1, 35250, Note_on_c, 0, 64, 0
1, 35250, Note_on_c, 0, 66, 64
1, 35280, Note_on_c, 0, 66, 0
1, 35280, Note_on_c, 0, 57, 0
1, 35280, Note_on_c, 0, 69, 64
1, 35280, Note_on_c, 0, 60, 64
1, 35280, Note_on_c, 1, 50, 0
1, 35280, Note_on_c, 1, 43, 64
1, 35400, Note_on_c, 0, 60, 0
1, 35400, Note_on_c, 0, 69, 0
1, 35400, Note_on_c, 0, 67, 64
1, 35400, Note_on_c, 0, 59, 64
1, 35400, Note_on_c, 1, 43, 0
1, 35400, Note_on_c, 1, 47, 64
1, 35436, Note_on_c, 0, 59, 0
1, 35436, Note_on_c, 0, 67, 0
1, 35436, Note_on_c, 1, 47, 0
1, 35520, Note_on_c, 0, 67, 64
1, 35520, Note_on_c, 0, 59, 64
1, 35520, Note_on_c, 1, 50, 64
1, 35556, Note_on_c, 0, 59, 0
1, 35556, Note_on_c, 0, 67, 0
1, 35556, Note_on_c, 1, 50, 0
1, 35640, Note_on_c, 0, 67, 64
1, 35640, Note_on_c, 0, 59, 64
1, 35640, Note_on_c, 1, 55, 64
1, 35880, Note_on_c, 0, 59, 0
1, 35880, Note_on_c, 0, 67, 0
1, 35880, Note_on_c, 0, 74, 64
1, 35880, Note_on_c, 1, 55, 0
1, 35916, Note_on_c, 0, 74, 0
1, 36000, Note_on_c, 0, 74, 64
1, 36036, Note_on_c, 0, 74, 0
1, 36120, Note_on_c, 1, 55, 64
1, 36120, Note_on_c, 1, 58, 64
1, 36156, Note_on_c, 1, 58, 0
1, 36156, Note_on_c, 1, 55, 0
1, 36240, Note_on_c, 0, 75, 64
1, 36276, Note_on_c, 0, 75, 0
1, 36360, Note_on_c, 0, 75, 64
1, 36396, Note_on_c, 0, 75, 0
1, 36480, Note_on_c, 1, 55, 64
1, 36480, Note_on_c, 1, 60, 64
1, 36516, Note_on_c, 1, 60, 0
1, 36516, Note_on_c, 1, 55, 0
1, 36600, Note_on_c, 0, 78, 64
1, 36636, Note_on_c, 0, 78, 0
1, 36720, Note_on_c, 0, 78, 64
1, 36756, Note_on_c, 0, 78, 0
1, 36840, Note_on_c, 1, 60, 64
1, 36840, Note_on_c, 1, 55, 64
1, 36876, Note_on_c, 1, 55, 0
1, 36876, Note_on_c, 1, 60, 0
1, 36960, Note_on_c, 0, 79, 64
1, 36996, Note_on_c, 0, 79, 0
1, 37080, Note_on_c, 0, 79, 64
1, 37116, Note_on_c, 0, 79, 0
1, 37200, Note_on_c, 1, 55, 64
1, 37200, Note_on_c, 1, 58, 64
1, 37236, Note_on_c, 1, 58, 0
1, 37236, Note_on_c, 1, 55, 0
1, 37320, Note_on_c, 0, 73, 80
1, 37320, Note_on_c, 0, 82, 80
1, 37320, Note_on_c, 1, 55, 80
1, 37320, Note_on_c, 1, 64, 80
1, 37440, Note_on_c, 0, 73, 0
1, 37440, Note_on_c, 0, 74, 64
1, 37440, Note_on_c, 1, 64, 0
1, 37440, Note_on_c, 1, 55, 0
1, 37440, Note_on_c, 1, 53, 64
1, 37440, Note_on_c, 1, 65, 64
1, 37560, Note_on_c, 0, 82, 0
1, 37560, Note_on_c, 0, 81, 64
1, 37596, Note_on_c, 0, 81, 0
1, 37596, Note_on_c, 0, 74, 0
1, 37680, Note_on_c, 0, 73, 80
1, 37680, Note_on_c, 0, 82, 80
1, 37680, Note_on_c, 1, 65, 0
1, 37680, Note_on_c, 1, 53, 0
1, 37680, Note_on_c, 1, 55, 80
1, 37680, Note_on_c, 1, 64, 80
1, 37800, Note_on_c, 0, 73, 0
1, 37800, Note_on_c, 0, 74, 64
1, 37800, Note_on_c, 1, 64, 0
1, 37800, Note_on_c, 1, 55, 0
1, 37800, Note_on_c, 1, 53, 64
1, 37800, Note_on_c, 1, 65, 64
1, 37920, Note_on_c, 0, 82, 0
1, 37920, Note_on_c, 0, 81, 64
1, 38040, Note_on_c, 0, 81, 0
1, 38040, Note_on_c, 0, 74, 0
1, 38040, Note_on_c, 0, 81, 80
1, 38040, Note_on_c, 1, 65, 0
1, 38040, Note_on_c, 1, 53, 0
1, 38040, Note_on_c, 1, 58, 80
1, 38040, Note_on_c, 1, 62, 80
1, 38040, Note_on_c, 1, 65, 80
1, 38070, Note_on_c, 0, 81, 0
1, 38070, Note_on_c, 0, 80, 80
1, 38100, Note_on_c, 0, 80, 0
1, 38100, Note_on_c, 0, 78, 80
1, 38130, Note_on_c, 0, 78, 0
1, 38130, Note_on_c, 0, 80, 80
1, 38160, Note_on_c, 1, 65, 0
1, 38160, Note_on_c, 1, 62, 0
1, 38160, Note_on_c, 1, 58, 0
1, 38160, Note_on_c, 1, 57, 80
1, 38160, Note_on_c, 1, 62, 80
1, 38160, Note_on_c, 1, 65, 80
1, 38280, Note_on_c, 0, 80, 0
1, 38280, Note_on_c, 0, 81, 80
1, 38316, Note_on_c, 0, 81, 0
1, 38400, Note_on_c, 0, 81, 80
1, 38436, Note_on_c, 0, 81, 0
1, 38520, Note_on_c, 1, 65, 0
1, 38520, Note_on_c, 1, 62, 0
1, 38520, Note_on_c, 1, 57, 0
1, 38520, Note_on_c, 1, 56, 80
1, 38520, Note_on_c, 1, 62, 80
1, 38520, Note_on_c, 1, 65, 80
1, 38640, Note_on_c, 0, 83, 80
1, 38676, Note_on_c, 0, 83, 0
1, 38760, Note_on_c, 0, 83, 80
1, 38796, Note_on_c, 0, 83, 0
1, 38880, Note_on_c, 1, 65, 0
1, 38880, Note_on_c, 1, 62, 0
1, 38880, Note_on_c, 1, 56, 0
1, 38880, Note_on_c, 1, 57, 64
1, 38880, Note_on_c, 1, 62, 64
1, 38880, Note_on_c, 1, 65, 64
1, 39000, Note_on_c, 0, 69, 64
1, 39036, Note_on_c, 0, 69, 0
1, 39120, Note_on_c, 0, 69, 64
1, 39120, Note_on_c, 1, 65, 0
1, 39120, Note_on_c, 1, 62, 0
1, 39120, Note_on_c, 1, 57, 0
1, 39156, Note_on_c, 0, 69, 0
1, 39240, Note_on_c, 0, 69, 64
1, 39240, Note_on_c, 1, 64, 64
1, 39240, Note_on_c, 1, 57, 64
1, 39360, Note_on_c, 0, 69, 0
1, 39360, Note_on_c, 0, 71, 64
1, 39360, Note_on_c, 1, 67, 64
1, 39480, Note_on_c, 0, 71, 0
1, 39480, Note_on_c, 0, 73, 64
1, 39480, Note_on_c, 1, 67, 0
1, 39480, Note_on_c, 1, 57, 0
1, 39480, Note_on_c, 1, 64, 0
1, 39480, Note_on_c, 1, 67, 64
1, 39600, Note_on_c, 0, 73, 0
1, 39600, Note_on_c, 0, 73, 64
1, 39600, Note_on_c, 1, 67, 0
1, 39600, Note_on_c, 1, 62, 64
1, 39600, Note_on_c, 1, 67, 64
1, 39720, Note_on_c, 1, 67, 0
1, 39720, Note_on_c, 1, 65, 64
1, 39840, Note_on_c, 1, 65, 0
1, 39840, Note_on_c, 1, 64, 64
1, 39960, Note_on_c, 0, 73, 0
1, 39960, Note_on_c, 0, 74, 64
1, 39960, Note_on_c, 1, 64, 0
1, 39960, Note_on_c, 1, 62, 0
1, 39960, Note_on_c, 1, 62, 64
1, 40020, Note_on_c, 0, 74, 0
1, 40020, Note_on_c, 1, 62, 0
1, 40200, Note_on_c, 0, 74, 64
1, 40236, Note_on_c, 0, 74, 0
1, 40320, Note_on_c, 0, 74, 64
1, 40356, Note_on_c, 0, 74, 0
1, 40440, Note_on_c, 1, 58, 64
1, 40440, Note_on_c, 1, 55, 64
1, 40476, Note_on_c, 1, 55, 0
1, 40476, Note_on_c, 1, 58, 0
1, 40560, Note_on_c, 0, 75, 64
1, 40596, Note_on_c, 0, 75, 0
1, 40680, Note_on_c, 0, 75, 64
1, 40716, Note_on_c, 0, 75, 0
1, 40800, Note_on_c, 1, 60, 64
1, 40800, Note_on_c, 1, 55, 64
1, 40836, Note_on_c, 1, 55, 0
1, 40836, Note_on_c, 1, 60, 0
1, 40920, Note_on_c, 0, 78, 64
1, 40956, Note_on_c, 0, 78, 0
1, 41040, Note_on_c, 0, 78, 64
1, 41076, Note_on_c, 0, 78, 0
1, 41160, Note_on_c, 1, 55, 64
1, 41160, Note_on_c, 1, 60, 64
1, 41196, Note_on_c, 1, 60, 0
1, 41196, Note_on_c, 1, 55, 0
1, 41280, Note_on_c, 0, 79, 64
1, 41316, Note_on_c, 0, 79, 0
1, 41400, Note_on_c, 0, 79, 64
1, 41436, Note_on_c, 0, 79, 0
1, 41520, Note_on_c, 1, 58, 64
1, 41520, Note_on_c, 1, 55, 64
1, 41556, Note_on_c, 1, 55, 0
1, 41556, Note_on_c, 1, 58, 0
1, 41640, Note_on_c, 0, 82, 80
1, 41640, Note_on_c, 0, 73, 80
1, 41640, Note_on_c, 1, 64, 80
1, 41640, Note_on_c, 1, 55, 80
1, 41760, Note_on_c, 0, 73, 0
1, 41760, Note_on_c, 0, 74, 64
1, 41760, Note_on_c, 1, 55, 0
1, 41760, Note_on_c, 1, 64, 0
1, 41760, Note_on_c, 1, 65, 64
1, 41760, Note_on_c, 1, 53, 64
1, 41880, Note_on_c, 0, 82, 0
1, 41880, Note_on_c, 0, 81, 64
1, 41916, Note_on_c, 0, 81, 0
1, 41916, Note_on_c, 0, 74, 0
1, 42000, Note_on_c, 0, 82, 80
1, 42000, Note_on_c, 0, 73, 80
1, 42000, Note_on_c, 1, 53, 0
1, 42000, Note_on_c, 1, 65, 0
1, 42000, Note_on_c, 1, 64, 80
1, 42000, Note_on_c, 1, 55, 80
1, 42120, Note_on_c, 0, 73, 0
1, 42120, Note_on_c, 0, 74, 64
1, 42120, Note_on_c, 1, 55, 0
1, 42120, Note_on_c, 1, 64, 0
1, 42120, Note_on_c, 1, 65, 64
1, 42120, Note_on_c, 1, 53, 64
1, 42240, Note_on_c, 0, 82, 0
1, 42240, Note_on_c, 0, 81, 64
1, 42360, Note_on_c, 0, 81, 0
1, 42360, Note_on_c, 0, 74, 0
1, 42360, Note_on_c, 0, 81, 80
1, 42360, Note_on_c, 1, 53, 0
1, 42360, Note_on_c, 1, 65, 0
1, 42360, Note_on_c, 1, 65, 80
1, 42360, Note_on_c, 1, 62, 80
1, 42360, Note_on_c, 1, 58, 80
1, 42390, Note_on_c, 0, 81, 0
1, 42390, Note_on_c, 0, 80, 80
1, 42420, Note_on_c, 0, 80, 0
1, 42420, Note_on_c, 0, 78, 80
1, 42450, Note_on_c, 0, 78, 0
1, 42450, Note_on_c, 0, 80, 80
1, 42480, Note_on_c, 1, 58, 0
1, 42480, Note_on_c, 1, 62, 0
1, 42480, Note_on_c, 1, 65, 0
1, 42480, Note_on_c, 1, 65, 80
1, 42480, Note_on_c, 1, 62, 80
1, 42480, Note_on_c, 1, 57, 80
1, 42600, Note_on_c, 0, 80, 0
1, 42600, Note_on_c, 0, 81, 80
1, 42636, Note_on_c, 0, 81, 0
1, 42720, Note_on_c, 0, 81, 80
1, 42756, Note_on_c, 0, 81, 0
1, 42840, Note_on_c, 1, 57, 0
1, 42840, Note_on_c, 1, 62, 0
1, 42840, Note_on_c, 1, 65, 0
1, 42840, Note_on_c, 1, 65, 80
1, 42840, Note_on_c, 1, 62, 80
1, 42840, Note_on_c, 1, 56, 80
1, 42960, Note_on_c, 0, 83, 80
1, 42996, Note_on_c, 0, 83, 0
1, 43080, Note_on_c, 0, 83, 80
1, 43116, Note_on_c, 0, 83, 0
1, 43200, Note_on_c, 1, 56, 0
1, 43200, Note_on_c, 1, 62, 0
1, 43200, Note_on_c, 1, 65, 0
1, 43200, Note_on_c, 1, 65, 64
1, 43200, Note_on_c, 1, 62, 64
1, 43200, Note_on_c, 1, 57, 64
1, 43320, Note_on_c, 0, 69, 64
1, 43356, Note_on_c, 0, 69, 0
1, 43440, Note_on_c, 0, 69, 64
1, 43440, Note_on_c, 1, 57, 0
1, 43440, Note_on_c, 1, 62, 0
1, 43440, Note_on_c, 1, 65, 0
1, 43476, Note_on_c, 0, 69, 0
1, 43560, Note_on_c, 0, 69, 64
1, 43560, Note_on_c, 1, 57, 64
1, 43560, Note_on_c, 1, 64, 64
1, 43680, Note_on_c, 0, 69, 0
1, 43680, Note_on_c, 0, 71, 64
1, 43680, Note_on_c, 1, 67, 64
1, 43800, Note_on_c, 0, 71, 0
1, 43800, Note_on_c, 0, 73, 64
1, 43800, Note_on_c, 1, 67, 0
1, 43800, Note_on_c, 1, 64, 0
1, 43800, Note_on_c, 1, 57, 0
1, 43800, Note_on_c, 1, 67, 64
1, 43920, Note_on_c, 0, 73, 0
1, 43920, Note_on_c, 0, 73, 64
1, 43920, Note_on_c, 1, 67, 0
1, 43920, Note_on_c, 1, 67, 64
1, 43920, Note_on_c, 1, 62, 64
1, 44040, Note_on_c, 1, 67, 0
1, 44040, Note_on_c, 1, 65, 64
1, 44160, Note_on_c, 1, 65, 0
1, 44160, Note_on_c, 1, 64, 64
1, 44280, Note_on_c, 0, 73, 0
1, 44280, Note_on_c, 0, 74, 64
1, 44280, Note_on_c, 1, 64, 0
1, 44280, Note_on_c, 1, 62, 0
1, 44280, Note_on_c, 1, 62, 64
1, 44340, Note_on_c, 0, 74, 0
1, 44340, Note_on_c, 1, 62, 0
1, 44520, Note_on_c, 0, 74, 64
1, 44556, Note_on_c, 0, 74, 0
1, 44640, Note_on_c, 0, 74, 64
1, 44676, Note_on_c, 0, 74, 0
1, 44760, Note_on_c, 1, 62, 64
1, 44760, Note_on_c, 1, 58, 64
1, 44796, Note_on_c, 1, 58, 0
1, 44796, Note_on_c, 1, 62, 0
1, 44880, Note_on_c, 0, 67, 64
1, 45000, Note_on_c, 0, 67, 0
1, 45000, Note_on_c, 0, 72, 64
1, 45036, Note_on_c, 0, 72, 0
1, 45120, Note_on_c, 1, 63, 64
1, 45120, Note_on_c, 1, 57, 64
1, 45156, Note_on_c, 1, 57, 0
1, 45156, Note_on_c, 1, 63, 0
1, 45240, Note_on_c, 0, 66, 64
1, 45360, Note_on_c, 0, 66, 0
1, 45360, Note_on_c, 0, 70, 64
1, 45396, Note_on_c, 0, 70, 0
1, 45480, Note_on_c, 1, 58, 64
1, 45480, Note_on_c, 1, 55, 64
1, 45516, Note_on_c, 1, 55, 0
1, 45516, Note_on_c, 1, 58, 0
1, 45600, Note_on_c, 0, 61, 64
1, 45720, Note_on_c, 0, 61, 0
1, 45720, Note_on_c, 0, 62, 64
1, 45756, Note_on_c, 0, 62, 0
1, 45840, Note_on_c, 1, 38, 64
1, 45840, Note_on_c, 1, 50, 64
1, 45876, Note_on_c, 1, 50, 0
1, 45876, Note_on_c, 1, 38, 0
1, 45960, Note_on_c, 0, 67, 80
1, 45960, Note_on_c, 0, 79, 80
1, 45960, Note_on_c, 1, 62, 80
1, 45960, Note_on_c, 1, 58, 80
1, 46080, Note_on_c, 0, 67, 0
1, 46080, Note_on_c, 0, 69, 64
1, 46080, Note_on_c, 1, 58, 0
1, 46080, Note_on_c, 1, 62, 0
1, 46080, Note_on_c, 1, 60, 64
1, 46080, Note_on_c, 1, 63, 64
1, 46200, Note_on_c, 0, 79, 0
1, 46200, Note_on_c, 0, 78, 64
1, 46236, Note_on_c, 0, 78, 0
1, 46236, Note_on_c, 0, 69, 0
1, 46320, Note_on_c, 0, 67, 80
1, 46320, Note_on_c, 0, 79, 80
1, 46320, Note_on_c, 1, 63, 0
1, 46320, Note_on_c, 1, 60, 0
1, 46320, Note_on_c, 1, 58, 80
1, 46320, Note_on_c, 1, 62, 80
1, 46440, Note_on_c, 0, 67, 0
1, 46440, Note_on_c, 0, 69, 64
1, 46440, Note_on_c, 1, 62, 0
1, 46440, Note_on_c, 1, 58, 0
1, 46440, Note_on_c, 1, 60, 64
1, 46440, Note_on_c, 1, 63, 64
1, 46560, Note_on_c, 0, 79, 0
1, 46560, Note_on_c, 0, 78, 64
1, 46596, Note_on_c, 0, 78, 0
1, 46596, Note_on_c, 0, 69, 0
1, 46680, Note_on_c, 0, 67, 64
1, 46680, Note_on_c, 0, 79, 64
1, 46680, Note_on_c, 1, 63, 0
1, 46680, Note_on_c, 1, 60, 0
1, 46680, Note_on_c, 1, 58, 64
1, 46680, Note_on_c, 1, 62, 64
1, 46716, Note_on_c, 0, 79, 0
1, 46716, Note_on_c, 0, 67, 0
1, 46716, Note_on_c, 1, 62, 0
1, 46716, Note_on_c, 1, 58, 0
1, 46800, Note_on_c, 0, 72, 88
1, 46800, Note_on_c, 0, 75, 88
1, 46800, Note_on_c, 0, 78, 88
1, 46800, Note_on_c, 0, 84, 88
1, 46800, Note_on_c, 1, 54, 88
1, 46800, Note_on_c, 1, 57, 88
1, 46800, Note_on_c, 1, 60, 88
1, 46800, Note_on_c, 1, 63, 88
1, 47160, Note_on_c, 0, 78, 0
1, 47160, Note_on_c, 0, 72, 0
1, 47160, Note_on_c, 1, 63, 0
1, 47160, Note_on_c, 1, 54, 0
1, 47160, Note_on_c, 1, 57, 0
1, 47160, Note_on_c, 1, 60, 0
1, 47160, Note_on_c, 1, 55, 80
1, 47280, Note_on_c, 0, 75, 0
1, 47280, Note_on_c, 0, 84, 0
1, 47280, Note_on_c, 0, 74, 80
1, 47280, Note_on_c, 0, 82, 80
1, 47316, Note_on_c, 0, 82, 0
1, 47316, Note_on_c, 0, 74, 0
1, 47400, Note_on_c, 0, 74, 80
1, 47400, Note_on_c, 0, 82, 80
1, 47520, Note_on_c, 0, 74, 0
1, 47520, Note_on_c, 0, 75, 80
1, 47520, Note_on_c, 1, 55, 0
1, 47520, Note_on_c, 1, 60, 80
1, 47640, Note_on_c, 0, 82, 0
1, 47640, Note_on_c, 0, 81, 77
1, 47640, Note_on_c, 1, 72, 77
1, 47676, Note_on_c, 0, 81, 0
1, 47676, Note_on_c, 1, 72, 0
1, 47760, Note_on_c, 0, 81, 75
1, 47760, Note_on_c, 1, 72, 75
1, 47880, Note_on_c, 1, 60, 0
1, 47880, Note_on_c, 1, 62, 72
1, 48000, Note_on_c, 0, 81, 0
1, 48000, Note_on_c, 0, 75, 0
1, 48000, Note_on_c, 0, 74, 69
1, 48000, Note_on_c, 0, 79, 69
1, 48000, Note_on_c, 1, 72, 0
1, 48000, Note_on_c, 1, 70, 69
1, 48120, Note_on_c, 0, 79, 0
1, 48120, Note_on_c, 0, 74, 0
1, 48120, Note_on_c, 0, 72, 67
1, 48120, Note_on_c, 0, 78, 67
1, 48120, Note_on_c, 1, 70, 0
1, 48120, Note_on_c, 1, 69, 67
1, 48240, Note_on_c, 0, 78, 0
1, 48240, Note_on_c, 0, 72, 0
1, 48240, Note_on_c, 0, 72, 64
1, 48240, Note_on_c, 0, 78, 64
1, 48240, Note_on_c, 1, 69, 0
1, 48240, Note_on_c, 1, 62, 0
1, 48240, Note_on_c, 1, 55, 64
1, 48240, Note_on_c, 1, 69, 64
1, 48600, Note_on_c, 0, 78, 0
1, 48600, Note_on_c, 0, 72, 0
1, 48600, Note_on_c, 0, 70, 56
1, 48600, Note_on_c, 0, 79, 56
1, 48600, Note_on_c, 1, 69, 0
1, 48600, Note_on_c, 1, 55, 0
1, 48600, Note_on_c, 1, 55, 56
1, 48600, Note_on_c, 1, 67, 56
1, 48672, Note_on_c, 0, 79, 0
1, 48672, Note_on_c, 0, 70, 0
1, 48672, Note_on_c, 1, 67, 0
1, 48672, Note_on_c, 1, 55, 0
1, 48840, Note_on_c, 0, 74, 64
1, 48876, Note_on_c, 0, 74, 0
1, 48960, Note_on_c, 0, 74, 64
1, 48996, Note_on_c, 0, 74, 0
1, 49080, Note_on_c, 1, 58, 64
1, 49080, Note_on_c, 1, 62, 64
1, 49116, Note_on_c, 1, 62, 0
1, 49116, Note_on_c, 1, 58, 0
1, 49200, Note_on_c, 0, 67, 64
1, 49320, Note_on_c, 0, 67, 0
1, 49320, Note_on_c, 0, 72, 64
1, 49356, Note_on_c, 0, 72, 0
1, 49440, Note_on_c, 1, 57, 64
1, 49440, Note_on_c, 1, 63, 64
1, 49476, Note_on_c, 1, 63, 0
1, 49476, Note_on_c, 1, 57, 0
1, 49560, Note_on_c, 0, 66, 64
1, 49680, Note_on_c, 0, 66, 0
1, 49680, Note_on_c, 0, 70, 64
1, 49716, Note_on_c, 0, 70, 0
1, 49800, Note_on_c, 1, 55, 64
1, 49800, Note_on_c, 1, 58, 64
1, 49836, Note_on_c, 1, 58, 0
1, 49836, Note_on_c, 1, 55, 0
1, 49920, Note_on_c, 0, 61, 64
1, 50040, Note_on_c, 0, 61, 0
1, 50040, Note_on_c, 0, 62, 64
1, 50076, Note_on_c, 0, 62, 0
1, 50160, Note_on_c, 1, 50, 64
1, 50160, Note_on_c, 1, 38, 64
1, 50196, Note_on_c, 1, 38, 0
1, 50196, Note_on_c, 1, 50, 0
1, 50280, Note_on_c, 0, 79, 80
1, 50280, Note_on_c, 0, 67, 80
1, 50280, Note_on_c, 1, 58, 80
1, 50280, Note_on_c, 1, 62, 80
1, 50400, Note_on_c, 0, 67, 0
1, 50400, Note_on_c, 0, 69, 64
1, 50400, Note_on_c, 1, 62, 0
1, 50400, Note_on_c, 1, 58, 0
1, 50400, Note_on_c, 1, 63, 64
1, 50400, Note_on_c, 1, 60, 64
1, 50520, Note_on_c, 0, 79, 0
1, 50520, Note_on_c, 0, 78, 64
1, 50556, Note_on_c, 0, 78, 0
1, 50556, Note_on_c, 0, 69, 0
1, 50640, Note_on_c, 0, 79, 80
1, 50640, Note_on_c, 0, 67, 80
1, 50640, Note_on_c, 1, 60, 0
1, 50640, Note_on_c, 1, 63, 0
1, 50640, Note_on_c, 1, 62, 80
1, 50640, Note_on_c, 1, 58, 80
1, 50760, Note_on_c, 0, 67, 0
1, 50760, Note_on_c, 0, 69, 80
1, 50760, Note_on_c, 1, 58, 0
1, 50760, Note_on_c, 1, 62, 0
1, 50760, Note_on_c, 1, 63, 80
1, 50760, Note_on_c, 1, 60, 80
1, 50880, Note_on_c, 0, 79, 0
1, 50880, Note_on_c, 0, 78, 80
1, 50916, Note_on_c, 0, 78, 0
1, 50916, Note_on_c, 0, 69, 0
1, 51000, Note_on_c, 0, 79, 80
1, 51000, Note_on_c, 0, 67, 80
1, 51000, Note_on_c, 1, 60, 0
1, 51000, Note_on_c, 1, 63, 0
1, 51000, Note_on_c, 1, 62, 80
1, 51000, Note_on_c, 1, 58, 80
1, 51036, Note_on_c, 0, 67, 0
1, 51036, Note_on_c, 0, 79, 0
1, 51036, Note_on_c, 1, 58, 0
1, 51036, Note_on_c, 1, 62, 0
1, 51120, Note_on_c, 0, 84, 88
1, 51120, Note_on_c, 0, 78, 88
1, 51120, Note_on_c, 0, 75, 88
1, 51120, Note_on_c, 0, 72, 88
1, 51120, Note_on_c, 1, 63, 88
1, 51120, Note_on_c, 1, 60, 88
1, 51120, Note_on_c, 1, 57, 88
1, 51120, Note_on_c, 1, 54, 88
1, 51480, Note_on_c, 0, 72, 0
1, 51480, Note_on_c, 0, 78, 0
1, 51480, Note_on_c, 1, 54, 0
1, 51480, Note_on_c, 1, 63, 0
1, 51480, Note_on_c, 1, 60, 0
1, 51480, Note_on_c, 1, 57, 0
1, 51480, Note_on_c, 1, 55, 80
1, 51600, Note_on_c, 0, 75, 0
1, 51600, Note_on_c, 0, 84, 0
1, 51600, Note_on_c, 0, 82, 80
1, 51600, Note_on_c, 0, 74, 80
1, 51636, Note_on_c, 0, 74, 0
1, 51636, Note_on_c, 0, 82, 0
1, 51720, Note_on_c, 0, 82, 80
1, 51720, Note_on_c, 0, 74, 80
1, 51840, Note_on_c, 0, 74, 0
1, 51840, Note_on_c, 0, 75, 80
1, 51840, Note_on_c, 1, 55, 0
1, 51840, Note_on_c, 1, 60, 80
1, 51960, Note_on_c, 0, 82, 0
1, 51960, Note_on_c, 0, 81, 77
1, 51960, Note_on_c, 1, 72, 77
1, 51996, Note_on_c, 0, 81, 0
1, 51996, Note_on_c, 1, 72, 0
1, 52080, Note_on_c, 0, 81, 75
1, 52080, Note_on_c, 1, 72, 75
1, 52200, Note_on_c, 1, 60, 0
1, 52200, Note_on_c, 1, 62, 72
1, 52320, Note_on_c, 0, 81, 0
1, 52320, Note_on_c, 0, 75, 0
1, 52320, Note_on_c, 0, 79, 69
1, 52320, Note_on_c, 0, 74, 69
1, 52320, Note_on_c, 1, 72, 0
1, 52320, Note_on_c, 1, 70, 69
1, 52440, Note_on_c, 0, 74, 0
1, 52440, Note_on_c, 0, 79, 0
1, 52440, Note_on_c, 0, 78, 67
1, 52440, Note_on_c, 0, 72, 67
1, 52440, Note_on_c, 1, 70, 0
1, 52440, Note_on_c, 1, 69, 67
1, 52560, Note_on_c, 0, 72, 0
1, 52560, Note_on_c, 0, 78, 0
1, 52560, Note_on_c, 0, 78, 64
1, 52560, Note_on_c, 0, 72, 64
1, 52560, Note_on_c, 1, 69, 0
1, 52560, Note_on_c, 1, 62, 0
1, 52560, Note_on_c, 1, 69, 64
1, 52560, Note_on_c, 1, 55, 64
1, 52920, Note_on_c, 0, 72, 0
1, 52920, Note_on_c, 0, 78, 0
1, 52920, Note_on_c, 0, 79, 56
1, 52920, Note_on_c, 0, 70, 56
1, 52920, Note_on_c, 1, 55, 0
1, 52920, Note_on_c, 1, 69, 0
1, 52920, Note_on_c, 1, 67, 56
1, 52920, Note_on_c, 1, 55, 56
1, 52992, Note_on_c, 0, 70, 0
1, 52992, Note_on_c, 0, 79, 0
1, 52992, Note_on_c, 1, 55, 0
1, 52992, Note_on_c, 1, 67, 0
1, 53160, Note_on_c, 0, 67, 64
1, 53160, Note_on_c, 1, 59, 64
1, 53160, Note_on_c, 1, 55, 64
1, 53196, Note_on_c, 0, 67, 0
1, 53256, Note_on_c, 1, 55, 0
1, 53256, Note_on_c, 1, 59, 0
1, 53280, Note_on_c, 0, 67, 64
1, 53280, Note_on_c, 1, 59, 64
1, 53280, Note_on_c, 1, 55, 64
1, 53460, Note_on_c, 0, 67, 0
1, 53460, Note_on_c, 0, 71, 64
1, 53520, Note_on_c, 0, 71, 0
1, 53520, Note_on_c, 0, 69, 64
1, 53520, Note_on_c, 1, 55, 0
1, 53520, Note_on_c, 1, 59, 0
1, 53520, Note_on_c, 1, 60, 64
1, 53520, Note_on_c, 1, 55, 64
1, 53640, Note_on_c, 0, 69, 0
1, 53640, Note_on_c, 0, 62, 64
1, 53640, Note_on_c, 1, 55, 0
1, 53640, Note_on_c, 1, 60, 0
1, 53640, Note_on_c, 1, 60, 64
1, 53640, Note_on_c, 1, 55, 64
1, 53760, Note_on_c, 0, 62, 0
1, 53760, Note_on_c, 0, 63, 64
1, 53820, Note_on_c, 0, 63, 0
1, 53820, Note_on_c, 0, 64, 64
1, 53880, Note_on_c, 0, 64, 0
1, 53880, Note_on_c, 0, 65, 64
1, 53880, Note_on_c, 1, 55, 0
1, 53880, Note_on_c, 1, 60, 0
1, 53880, Note_on_c, 1, 60, 64
1, 53880, Note_on_c, 1, 55, 64
1, 53940, Note_on_c, 0, 65, 0
1, 53940, Note_on_c, 0, 66, 64
1, 54000, Note_on_c, 0, 66, 0
1, 54000, Note_on_c, 0, 67, 64
1, 54000, Note_on_c, 1, 55, 0
1, 54000, Note_on_c, 1, 60, 0
1, 54000, Note_on_c, 1, 55, 64
1, 54000, Note_on_c, 1, 59, 64
1, 54036, Note_on_c, 0, 67, 0
1, 54060, Note_on_c, 1, 59, 0
1, 54060, Note_on_c, 1, 58, 64
1, 54120, Note_on_c, 0, 67, 64
1, 54120, Note_on_c, 1, 58, 0
1, 54120, Note_on_c, 1, 59, 64
1, 54156, Note_on_c, 0, 67, 0
1, 54180, Note_on_c, 1, 59, 0
1, 54180, Note_on_c, 1, 58, 64
1, 54240, Note_on_c, 0, 67, 64
1, 54240, Note_on_c, 1, 58, 0
1, 54240, Note_on_c, 1, 59, 64
1, 54276, Note_on_c, 0, 67, 0
1, 54300, Note_on_c, 1, 59, 0
1, 54300, Note_on_c, 1, 58, 64
1, 54360, Note_on_c, 0, 67, 64
1, 54360, Note_on_c, 1, 58, 0
1, 54360, Note_on_c, 1, 59, 64
1, 54600, Note_on_c, 0, 67, 0
1, 54600, Note_on_c, 0, 62, 64
1, 54600, Note_on_c, 0, 69, 64
1, 54600, Note_on_c, 1, 59, 0
1, 54600, Note_on_c, 1, 55, 0
1, 54600, Note_on_c, 1, 54, 64
1, 54672, Note_on_c, 1, 54, 0
1, 54690, Note_on_c, 0, 69, 0
1, 54690, Note_on_c, 0, 72, 64
1, 54690, Note_on_c, 1, 57, 64
1, 54714, Note_on_c, 1, 57, 0
1, 54720, Note_on_c, 0, 72, 0
1, 54720, Note_on_c, 0, 62, 0
1, 54720, Note_on_c, 0, 71, 64
1, 54720, Note_on_c, 0, 62, 64
1, 54720, Note_on_c, 1, 55, 64
1, 54780, Note_on_c, 0, 71, 0
1, 54780, Note_on_c, 0, 70, 64
1, 54780, Note_on_c, 1, 55, 0
1, 54780, Note_on_c, 1, 54, 64
1, 54840, Note_on_c, 0, 70, 0
1, 54840, Note_on_c, 0, 71, 64
1, 54840, Note_on_c, 1, 54, 0
1, 54840, Note_on_c, 1, 55, 64
1, 54900, Note_on_c, 0, 71, 0
1, 54900, Note_on_c, 0, 70, 64
1, 54900, Note_on_c, 1, 55, 0
1, 54900, Note_on_c, 1, 54, 64
1, 54960, Note_on_c, 0, 70, 0
1, 54960, Note_on_c, 0, 71, 64
1, 54960, Note_on_c, 1, 54, 0
1, 54960, Note_on_c, 1, 55, 64
1, 55020, Note_on_c, 0, 71, 0
1, 55020, Note_on_c, 0, 74, 64
1, 55020, Note_on_c, 1, 55, 0
1, 55020, Note_on_c, 1, 59, 64
1, 55080, Note_on_c, 0, 74, 0
1, 55080, Note_on_c, 0, 62, 0
1, 55080, Note_on_c, 0, 66, 80
1, 55080, Note_on_c, 0, 74, 80
1, 55080, Note_on_c, 0, 62, 80
1, 55080, Note_on_c, 1, 59, 0
1, 55080, Note_on_c, 1, 57, 80
1, 55200, Note_on_c, 0, 74, 0
1, 55200, Note_on_c, 0, 72, 64
1, 55236, Note_on_c, 0, 72, 0
1, 55236, Note_on_c, 0, 62, 0
1, 55236, Note_on_c, 0, 66, 0
1, 55320, Note_on_c, 0, 71, 64
1, 55320, Note_on_c, 0, 67, 64
1, 55320, Note_on_c, 1, 57, 0
1, 55320, Note_on_c, 1, 55, 64
1, 55356, Note_on_c, 0, 67, 0
1, 55356, Note_on_c, 0, 71, 0
1, 55356, Note_on_c, 1, 55, 0
1, 55440, Note_on_c, 0, 67, 64
1, 55440, Note_on_c, 0, 71, 64
1, 55440, Note_on_c, 1, 50, 64
1, 55500, Note_on_c, 1, 50, 0
1, 55500, Note_on_c, 1, 61, 64
1, 55560, Note_on_c, 0, 71, 0
1, 55560, Note_on_c, 0, 67, 0
1, 55560, Note_on_c, 0, 66, 64
1, 55560, Note_on_c, 0, 69, 64
1, 55560, Note_on_c, 1, 61, 0
1, 55560, Note_on_c, 1, 62, 64
1, 55596, Note_on_c, 0, 69, 0
1, 55596, Note_on_c, 0, 66, 0
1, 55620, Note_on_c, 1, 62, 0
1, 55620, Note_on_c, 1, 61, 64
1, 55680, Note_on_c, 0, 66, 64
1, 55680, Note_on_c, 0, 69, 64
1, 55680, Note_on_c, 1, 61, 0
1, 55680, Note_on_c, 1, 62, 64
1, 55716, Note_on_c, 0, 69, 0
1, 55716, Note_on_c, 0, 66, 0
1, 55740, Note_on_c, 1, 62, 0
1, 55740, Note_on_c, 1, 61, 64
1, 55800, Note_on_c, 0, 66, 64
1, 55800, Note_on_c, 0, 69, 64
1, 55800, Note_on_c, 1, 61, 0
1, 55800, Note_on_c, 1, 62, 64
1, 55860, Note_on_c, 1, 62, 0
1, 55860, Note_on_c, 1, 64, 64
1, 55920, Note_on_c, 1, 64, 0
1, 55920, Note_on_c, 1, 60, 64
1, 55980, Note_on_c, 1, 60, 0
1, 55980, Note_on_c, 1, 62, 64
1, 56040, Note_on_c, 0, 69, 0
1, 56040, Note_on_c, 0, 66, 0
1, 56040, Note_on_c, 0, 68, 80
1, 56040, Note_on_c, 0, 71, 80
1, 56040, Note_on_c, 1, 62, 0
1, 56040, Note_on_c, 1, 59, 64
1, 56100, Note_on_c, 1, 59, 0
1, 56100, Note_on_c, 1, 60, 64
1, 56112, Note_on_c, 0, 71, 0
1, 56112, Note_on_c, 0, 68, 0
1, 56160, Note_on_c, 0, 72, 64
1, 56160, Note_on_c, 0, 69, 64
1, 56160, Note_on_c, 1, 60, 0
1, 56160, Note_on_c, 1, 57, 64
1, 56220, Note_on_c, 1, 57, 0
1, 56220, Note_on_c, 1, 64, 64
1, 56280, Note_on_c, 0, 69, 0
1, 56280, Note_on_c, 0, 72, 0
1, 56280, Note_on_c, 0, 74, 64
1, 56280, Note_on_c, 0, 71, 64
1, 56280, Note_on_c, 1, 64, 0
1, 56280, Note_on_c, 1, 60, 64
1, 56340, Note_on_c, 1, 60, 0
1, 56340, Note_on_c, 1, 59, 64
1, 56400, Note_on_c, 0, 71, 0
1, 56400, Note_on_c, 0, 74, 0
1, 56400, Note_on_c, 0, 76, 64
1, 56400, Note_on_c, 0, 72, 64
1, 56400, Note_on_c, 1, 59, 0
1, 56400, Note_on_c, 1, 57, 64
1, 56436, Note_on_c, 0, 72, 0
1, 56436, Note_on_c, 0, 76, 0
1, 56460, Note_on_c, 1, 57, 0
1, 56460, Note_on_c, 1, 55, 64
1, 56520, Note_on_c, 0, 76, 64
1, 56520, Note_on_c, 0, 72, 64
1, 56520, Note_on_c, 1, 55, 0
1, 56520, Note_on_c, 1, 54, 64
1, 56580, Note_on_c, 1, 54, 0
1, 56580, Note_on_c, 1, 57, 64
1, 56640, Note_on_c, 1, 57, 0
1, 56640, Note_on_c, 1, 60, 64
1, 56700, Note_on_c, 1, 60, 0
1, 56700, Note_on_c, 1, 62, 64
1, 56760, Note_on_c, 0, 72, 0
1, 56760, Note_on_c, 0, 76, 0
1, 56760, Note_on_c, 0, 74, 64
1, 56760, Note_on_c, 0, 71, 64
1, 56760, Note_on_c, 1, 62, 0
1, 56760, Note_on_c, 1, 64, 64
1, 56820, Note_on_c, 0, 71, 0
1, 56820, Note_on_c, 0, 74, 0
1, 56820, Note_on_c, 0, 72, 64
1, 56820, Note_on_c, 0, 69, 64
1, 56820, Note_on_c, 1, 64, 0
1, 56820, Note_on_c, 1, 66, 64
1, 56880, Note_on_c, 0, 69, 0
1, 56880, Note_on_c, 0, 72, 0
1, 56880, Note_on_c, 0, 71, 64
1, 56880, Note_on_c, 1, 66, 0
1, 56880, Note_on_c, 1, 67, 64
1, 56940, Note_on_c, 0, 71, 0
1, 56940, Note_on_c, 0, 72, 64
1, 57000, Note_on_c, 0, 72, 0
1, 57000, Note_on_c, 0, 71, 64
1, 57060, Note_on_c, 0, 71, 0
1, 57060, Note_on_c, 0, 72, 64
1, 57120, Note_on_c, 0, 72, 0
1, 57120, Note_on_c, 0, 71, 64
1, 57120, Note_on_c, 1, 67, 0
1, 57120, Note_on_c, 1, 65, 64
1, 57180, Note_on_c, 0, 71, 0
1, 57180, Note_on_c, 0, 74, 64
1, 57240, Note_on_c, 0, 74, 0
1, 57240, Note_on_c, 0, 72, 64
1, 57240, Note_on_c, 1, 65, 0
1, 57240, Note_on_c, 1, 64, 64
1, 57300, Note_on_c, 1, 64, 0
1, 57300, Note_on_c, 1, 67, 64
1, 57360, Note_on_c, 0, 72, 0
1, 57360, Note_on_c, 0, 74, 64
1, 57360, Note_on_c, 1, 67, 0
1, 57360, Note_on_c, 1, 62, 64
1, 57420, Note_on_c, 1, 62, 0
1, 57420, Note_on_c, 1, 65, 64
1, 57480, Note_on_c, 0, 74, 0
1, 57480, Note_on_c, 0, 76, 64
1, 57480, Note_on_c, 1, 65, 0
1, 57480, Note_on_c, 1, 60, 64
1, 57540, Note_on_c, 1, 60, 0
1, 57540, Note_on_c, 1, 64, 64
1, 57600, Note_on_c, 0, 76, 0
1, 57600, Note_on_c, 0, 74, 64
1, 57600, Note_on_c, 1, 64, 0
1, 57600, Note_on_c, 1, 59, 64
1, 57660, Note_on_c, 1, 59, 0
1, 57660, Note_on_c, 1, 62, 64
1, 57720, Note_on_c, 0, 74, 0
1, 57720, Note_on_c, 0, 79, 64
1, 57720, Note_on_c, 1, 62, 0
1, 57720, Note_on_c, 1, 55, 64
1, 57756, Note_on_c, 0, 79, 0
1, 57780, Note_on_c, 1, 55, 0
1, 57780, Note_on_c, 1, 59, 64
1, 57840, Note_on_c, 0, 79, 64
1, 57840, Note_on_c, 1, 59, 0
1, 57840, Note_on_c, 1, 54, 64
1, 57876, Note_on_c, 0, 79, 0
1, 57900, Note_on_c, 1, 54, 0
1, 57900, Note_on_c, 1, 57, 64
1, 57960, Note_on_c, 0, 81, 80
1, 57960, Note_on_c, 1, 57, 0
1, 57960, Note_on_c, 1, 52, 80
1, 58020, Note_on_c, 0, 81, 0
1, 58020, Note_on_c, 0, 79, 64
1, 58020, Note_on_c, 1, 52, 0
1, 58020, Note_on_c, 1, 55, 64
1, 58080, Note_on_c, 0, 79, 0
1, 58080, Note_on_c, 0, 78, 64
1, 58080, Note_on_c, 1, 55, 0
1, 58080, Note_on_c, 1, 57, 64
1, 58140, Note_on_c, 0, 78, 0
1, 58140, Note_on_c, 0, 76, 64
1, 58140, Note_on_c, 1, 57, 0
1, 58140, Note_on_c, 1, 61, 64
1, 58200, Note_on_c, 0, 76, 0
1, 58200, Note_on_c, 0, 74, 64
1, 58200, Note_on_c, 1, 61, 0
1, 58200, Note_on_c, 1, 64, 64
1, 58260, Note_on_c, 0, 74, 0
1, 58260, Note_on_c, 0, 73, 64
1, 58260, Note_on_c, 1, 64, 0
1, 58260, Note_on_c, 1, 67, 64
1, 58320, Note_on_c, 0, 73, 0
1, 58320, Note_on_c, 0, 76, 64
1, 58320, Note_on_c, 1, 62, 64
1, 58440, Note_on_c, 0, 76, 0
1, 58440, Note_on_c, 0, 74, 64
1, 58440, Note_on_c, 1, 62, 0
1, 58440, Note_on_c, 1, 67, 0
1, 58440, Note_on_c, 1, 62, 64
1, 58440, Note_on_c, 1, 66, 64
1, 58476, Note_on_c, 0, 74, 0
1, 58476, Note_on_c, 1, 66, 0
1, 58476, Note_on_c, 1, 62, 0
1, 58560, Note_on_c, 0, 74, 64
1, 58560, Note_on_c, 1, 62, 64
1, 58560, Note_on_c, 1, 66, 64
1, 58596, Note_on_c, 0, 74, 0
1, 58596, Note_on_c, 1, 66, 0
1, 58596, Note_on_c, 1, 62, 0
1, 58680, Note_on_c, 0, 74, 64
1, 58680, Note_on_c, 1, 62, 64
1, 58680, Note_on_c, 1, 66, 64
1, 58860, Note_on_c, 0, 74, 0
1, 58860, Note_on_c, 0, 71, 64
1, 58920, Note_on_c, 0, 71, 0
1, 58920, Note_on_c, 0, 72, 64
1, 58920, Note_on_c, 1, 66, 0
1, 58920, Note_on_c, 1, 62, 0
1, 58980, Note_on_c, 0, 72, 0
1, 58980, Note_on_c, 0, 69, 64
1, 59040, Note_on_c, 0, 69, 0
1, 59040, Note_on_c, 0, 67, 64
1, 59040, Note_on_c, 1, 55, 64
1, 59040, Note_on_c, 1, 59, 64
1, 59220, Note_on_c, 0, 67, 0
1, 59220, Note_on_c, 0, 71, 64
1, 59280, Note_on_c, 0, 71, 0
1, 59280, Note_on_c, 0, 69, 64
1, 59280, Note_on_c, 1, 59, 0
1, 59280, Note_on_c, 1, 55, 0
1, 59280, Note_on_c, 1, 55, 64
1, 59280, Note_on_c, 1, 60, 64
1, 59400, Note_on_c, 0, 69, 0
1, 59400, Note_on_c, 0, 62, 64
1, 59400, Note_on_c, 1, 60, 0
1, 59400, Note_on_c, 1, 55, 0
1, 59400, Note_on_c, 1, 55, 64
1, 59400, Note_on_c, 1, 60, 64
1, 59520, Note_on_c, 0, 62, 0
1, 59520, Note_on_c, 0, 63, 64
1, 59580, Note_on_c, 0, 63, 0
1, 59580, Note_on_c, 0, 64, 64
1, 59640, Note_on_c, 0, 64, 0
1, 59640, Note_on_c, 0, 65, 64
1, 59640, Note_on_c, 1, 60, 0
1, 59640, Note_on_c, 1, 55, 0
1, 59640, Note_on_c, 1, 55, 64
1, 59640, Note_on_c, 1, 60, 64
1, 59700, Note_on_c, 0, 65, 0
1, 59700, Note_on_c, 0, 66, 64
1, 59760, Note_on_c, 0, 66, 0
1, 59760, Note_on_c, 0, 67, 64
1, 59760, Note_on_c, 1, 60, 0
1, 59760, Note_on_c, 1, 55, 0
1, 59760, Note_on_c, 1, 59, 64
1, 59760, Note_on_c, 1, 55, 64
1, 59796, Note_on_c, 0, 67, 0
1, 59820, Note_on_c, 1, 59, 0
1, 59820, Note_on_c, 1, 58, 64
1, 59880, Note_on_c, 0, 67, 64
1, 59880, Note_on_c, 1, 58, 0
1, 59880, Note_on_c, 1, 59, 64
1, 59916, Note_on_c, 0, 67, 0
1, 59940, Note_on_c, 1, 59, 0
1, 59940, Note_on_c, 1, 58, 64
1, 60000, Note_on_c, 0, 67, 64
1, 60000, Note_on_c, 1, 58, 0
1, 60000, Note_on_c, 1, 59, 64
1, 60036, Note_on_c, 0, 67, 0
1, 60060, Note_on_c, 1, 59, 0
1, 60060, Note_on_c, 1, 58, 64
1, 60120, Note_on_c, 0, 67, 64
1, 60120, Note_on_c, 1, 58, 0
1, 60120, Note_on_c, 1, 59, 64
1, 60360, Note_on_c, 0, 67, 0
1, 60360, Note_on_c, 0, 69, 64
1, 60360, Note_on_c, 0, 62, 64
1, 60360, Note_on_c, 1, 59, 0
1, 60360, Note_on_c, 1, 55, 0
1, 60360, Note_on_c, 1, 54, 64
1, 60432, Note_on_c, 1, 54, 0
1, 60450, Note_on_c, 0, 69, 0
1, 60450, Note_on_c, 0, 72, 64
1, 60450, Note_on_c, 1, 57, 64
1, 60474, Note_on_c, 1, 57, 0
1, 60480, Note_on_c, 0, 72, 0
1, 60480, Note_on_c, 0, 62, 0
1, 60480, Note_on_c, 0, 62, 64
1, 60480, Note_on_c, 0, 71, 64
1, 60480, Note_on_c, 1, 55, 64
1, 60540, Note_on_c, 0, 71, 0
1, 60540, Note_on_c, 0, 70, 64
1, 60540, Note_on_c, 1, 55, 0
1, 60540, Note_on_c, 1, 54, 64
1, 60600, Note_on_c, 0, 70, 0
1, 60600, Note_on_c, 0, 71, 64
1, 60600, Note_on_c, 1, 54, 0
1, 60600, Note_on_c, 1, 55, 64
1, 60660, Note_on_c, 0, 71, 0
1, 60660, Note_on_c, 0, 70, 64
1, 60660, Note_on_c, 1, 55, 0
1, 60660, Note_on_c, 1, 54, 64
1, 60720, Note_on_c, 0, 70, 0
1, 60720, Note_on_c, 0, 71, 64
1, 60720, Note_on_c, 1, 54, 0
1, 60720, Note_on_c, 1, 55, 64
1, 60780, Note_on_c, 0, 71, 0
1, 60780, Note_on_c, 0, 74, 64
1, 60780, Note_on_c, 1, 55, 0
1, 60780, Note_on_c, 1, 59, 64
1, 60840, Note_on_c, 0, 74, 0
1, 60840, Note_on_c, 0, 62, 0
1, 60840, Note_on_c, 0, 62, 80
1, 60840, Note_on_c, 0, 74, 80
1, 60840, Note_on_c, 0, 66, 80
1, 60840, Note_on_c, 1, 59, 0
1, 60840, Note_on_c, 1, 57, 80
1, 60960, Note_on_c, 0, 74, 0
1, 60960, Note_on_c, 0, 72, 64
1, 60996, Note_on_c, 0, 72, 0
1, 60996, Note_on_c, 0, 66, 0
1, 60996, Note_on_c, 0, 62, 0
1, 61080, Note_on_c, 0, 67, 64
1, 61080, Note_on_c, 0, 71, 64
1, 61080, Note_on_c, 1, 57, 0
1, 61080, Note_on_c, 1, 55, 64
1, 61116, Note_on_c, 0, 71, 0
1, 61116, Note_on_c, 0, 67, 0
1, 61116, Note_on_c, 1, 55, 0
1, 61200, Note_on_c, 0, 71, 64
1, 61200, Note_on_c, 0, 67, 64
1, 61200, Note_on_c, 1, 50, 64
1, 61260, Note_on_c, 1, 50, 0
1, 61260, Note_on_c, 1, 61, 64
1, 61320, Note_on_c, 0, 67, 0
1, 61320, Note_on_c, 0, 71, 0
1, 61320, Note_on_c, 0, 69, 64
1, 61320, Note_on_c, 0, 66, 64
1, 61320, Note_on_c, 1, 61, 0
1, 61320, Note_on_c, 1, 62, 64
1, 61356, Note_on_c, 0, 66, 0
1, 61356, Note_on_c, 0, 69, 0
1, 61380, Note_on_c, 1, 62, 0
1, 61380, Note_on_c, 1, 61, 64
1, 61440, Note_on_c, 0, 69, 64
1, 61440, Note_on_c, 0, 66, 64
1, 61440, Note_on_c, 1, 61, 0
1, 61440, Note_on_c, 1, 62, 64
1, 61476, Note_on_c, 0, 66, 0
1, 61476, Note_on_c, 0, 69, 0
1, 61500, Note_on_c, 1, 62, 0
1, 61500, Note_on_c, 1, 61, 64
1, 61560, Note_on_c, 0, 69, 64
1, 61560, Note_on_c, 0, 66, 64
1, 61560, Note_on_c, 1, 61, 0
1, 61560, Note_on_c, 1, 62, 64
1, 61620, Note_on_c, 1, 62, 0
1, 61620, Note_on_c, 1, 64, 64
1, 61680, Note_on_c, 1, 64, 0
1, 61680, Note_on_c, 1, 60, 64
1, 61740, Note_on_c, 1, 60, 0
1, 61740, Note_on_c, 1, 62, 64
1, 61800, Note_on_c, 0, 66, 0
1, 61800, Note_on_c, 0, 69, 0
1, 61800, Note_on_c, 0, 71, 80
1, 61800, Note_on_c, 0, 68, 80
1, 61800, Note_on_c, 1, 62, 0
1, 61800, Note_on_c, 1, 59, 64
1, 61860, Note_on_c, 1, 59, 0
1, 61860, Note_on_c, 1, 60, 64
1, 61872, Note_on_c, 0, 68, 0
1, 61872, Note_on_c, 0, 71, 0
1, 61920, Note_on_c, 0, 69, 64
1, 61920, Note_on_c, 0, 72, 64
1, 61920, Note_on_c, 1, 60, 0
1, 61920, Note_on_c, 1, 57, 64
1, 61980, Note_on_c, 1, 57, 0
1, 61980, Note_on_c, 1, 64, 64
1, 62040, Note_on_c, 0, 72, 0
1, 62040, Note_on_c, 0, 69, 0
1, 62040, Note_on_c, 0, 71, 64
1, 62040, Note_on_c, 0, 74, 64
1, 62040, Note_on_c, 1, 64, 0
1, 62040, Note_on_c, 1, 60, 64
1, 62100, Note_on_c, 1, 60, 0
1, 62100, Note_on_c, 1, 59, 64
1, 62160, Note_on_c, 0, 74, 0
1, 62160, Note_on_c, 0, 71, 0
1, 62160, Note_on_c, 0, 72, 64
1, 62160, Note_on_c, 0, 76, 64
1, 62160, Note_on_c, 1, 59, 0
1, 62160, Note_on_c, 1, 57, 64
1, 62196, Note_on_c, 0, 76, 0
1, 62196, Note_on_c, 0, 72, 0
1, 62220, Note_on_c, 1, 57, 0
1, 62220, Note_on_c, 1, 55, 64
1, 62280, Note_on_c, 0, 72, 64
1, 62280, Note_on_c, 0, 76, 64
1, 62280, Note_on_c, 1, 55, 0
1, 62280, Note_on_c, 1, 54, 64
1, 62340, Note_on_c, 1, 54, 0
1, 62340, Note_on_c, 1, 57, 64
1, 62400, Note_on_c, 1, 57, 0
1, 62400, Note_on_c, 1, 60, 64
1, 62460, Note_on_c, 1, 60, 0
1, 62460, Note_on_c, 1, 62, 64
1, 62520, Note_on_c, 0, 76, 0
1, 62520, Note_on_c, 0, 72, 0
1, 62520, Note_on_c, 0, 71, 64
1, 62520, Note_on_c, 0, 74, 64
1, 62520, Note_on_c, 1, 62, 0
1, 62520, Note_on_c, 1, 64, 64
1, 62580, Note_on_c, 0, 74, 0
1, 62580, Note_on_c, 0, 71, 0
1, 62580, Note_on_c, 0, 69, 64
1, 62580, Note_on_c, 0, 72, 64
1, 62580, Note_on_c, 1, 64, 0
1, 62580, Note_on_c, 1, 66, 64
1, 62640, Note_on_c, 0, 72, 0
1, 62640, Note_on_c, 0, 69, 0
1, 62640, Note_on_c, 0, 71, 64
1, 62640, Note_on_c, 1, 66, 0
1, 62640, Note_on_c, 1, 67, 64
1, 62700, Note_on_c, 0, 71, 0
1, 62700, Note_on_c, 0, 72, 64
1, 62760, Note_on_c, 0, 72, 0
1, 62760, Note_on_c, 0, 71, 64
1, 62820, Note_on_c, 0, 71, 0
1, 62820, Note_on_c, 0, 72, 64
1, 62880, Note_on_c, 0, 72, 0
1, 62880, Note_on_c, 0, 71, 64
1, 62880, Note_on_c, 1, 67, 0
1, 62880, Note_on_c, 1, 65, 64
1, 62940, Note_on_c, 0, 71, 0
1, 62940, Note_on_c, 0, 74, 64
1, 63000, Note_on_c, 0, 74, 0
1, 63000, Note_on_c, 0, 72, 64
1, 63000, Note_on_c, 1, 65, 0
1, 63000, Note_on_c, 1, 64, 64
1, 63060, Note_on_c, 1, 64, 0
1, 63060, Note_on_c, 1, 67, 64
1, 63120, Note_on_c, 0, 72, 0
1, 63120, Note_on_c, 0, 74, 64
1, 63120, Note_on_c, 1, 67, 0
1, 63120, Note_on_c, 1, 62, 64
1, 63180, Note_on_c, 1, 62, 0
1, 63180, Note_on_c, 1, 65, 64
1, 63240, Note_on_c, 0, 74, 0
1, 63240, Note_on_c, 0, 76, 64
1, 63240, Note_on_c, 1, 65, 0
1, 63240, Note_on_c, 1, 60, 64
1, 63300, Note_on_c, 1, 60, 0
1, 63300, Note_on_c, 1, 64, 64
1, 63360, Note_on_c, 0, 76, 0
1, 63360, Note_on_c, 0, 74, 64
1, 63360, Note_on_c, 1, 64, 0
1, 63360, Note_on_c, 1, 59, 64
1, 63420, Note_on_c, 1, 59, 0
1, 63420, Note_on_c, 1, 62, 64
1, 63480, Note_on_c, 0, 74, 0
1, 63480, Note_on_c, 0, 79, 64
1, 63480, Note_on_c, 1, 62, 0
1, 63480, Note_on_c, 1, 55, 64
1, 63516, Note_on_c, 0, 79, 0
1, 63540, Note_on_c, 1, 55, 0
1, 63540, Note_on_c, 1, 59, 64
1, 63600, Note_on_c, 0, 79, 64
1, 63600, Note_on_c, 1, 59, 0
1, 63600, Note_on_c, 1, 54, 64
1, 63636, Note_on_c, 0, 79, 0
1, 63660, Note_on_c, 1, 54, 0
1, 63660, Note_on_c, 1, 57, 64
1, 63720, Note_on_c, 0, 81, 80
1, 63720, Note_on_c, 1, 57, 0
1, 63720, Note_on_c, 1, 52, 80
1, 63780, Note_on_c, 0, 81, 0
1, 63780, Note_on_c, 0, 79, 64
1, 63780, Note_on_c, 1, 52, 0
1, 63780, Note_on_c, 1, 55, 64
1, 63840, Note_on_c, 0, 79, 0
1, 63840, Note_on_c, 0, 78, 64
1, 63840, Note_on_c, 1, 55, 0
1, 63840, Note_on_c, 1, 57, 64
1, 63900, Note_on_c, 0, 78, 0
1, 63900, Note_on_c, 0, 76, 64
1, 63900, Note_on_c, 1, 57, 0
1, 63900, Note_on_c, 1, 61, 64
1, 63960, Note_on_c, 0, 76, 0
1, 63960, Note_on_c, 0, 74, 64
1, 63960, Note_on_c, 1, 61, 0
1, 63960, Note_on_c, 1, 64, 64
1, 64020, Note_on_c, 0, 74, 0
1, 64020, Note_on_c, 0, 73, 64
1, 64020, Note_on_c, 1, 64, 0
1, 64020, Note_on_c, 1, 67, 64
1, 64080, Note_on_c, 0, 73, 0
1, 64080, Note_on_c, 0, 76, 64
1, 64080, Note_on_c, 1, 62, 64
1, 64200, Note_on_c, 0, 76, 0
1, 64200, Note_on_c, 0, 74, 64
1, 64200, Note_on_c, 1, 62, 0
1, 64200, Note_on_c, 1, 67, 0
1, 64200, Note_on_c, 1, 66, 64
1, 64200, Note_on_c, 1, 62, 64
1, 64236, Note_on_c, 0, 74, 0
1, 64236, Note_on_c, 1, 62, 0
1, 64236, Note_on_c, 1, 66, 0
1, 64320, Note_on_c, 0, 74, 64
1, 64320, Note_on_c, 1, 66, 64
1, 64320, Note_on_c, 1, 62, 64
1, 64356, Note_on_c, 0, 74, 0
1, 64356, Note_on_c, 1, 62, 0
1, 64356, Note_on_c, 1, 66, 0
1, 64440, Note_on_c, 0, 74, 64
1, 64440, Note_on_c, 1, 66, 64
1, 64440, Note_on_c, 1, 62, 64
1, 64553, Note_on_c, 0, 74, 0
1, 64553, Note_on_c, 1, 62, 0
1, 64553, Note_on_c, 1, 66, 0
1, 64680, Note_on_c, 0, 79, 72
1, 64680, Note_on_c, 1, 71, 72
1, 64740, Note_on_c, 1, 71, 0
1, 64740, Note_on_c, 1, 74, 72
1, 64752, Note_on_c, 0, 79, 0
1, 64800, Note_on_c, 0, 79, 72
1, 64800, Note_on_c, 1, 74, 0
1, 64800, Note_on_c, 1, 71, 72
1, 64860, Note_on_c, 1, 71, 0
1, 64860, Note_on_c, 1, 74, 72
1, 64920, Note_on_c, 1, 74, 0
1, 64920, Note_on_c, 1, 71, 72
1, 64980, Note_on_c, 0, 79, 0
1, 64980, Note_on_c, 0, 83, 72
1, 64980, Note_on_c, 1, 71, 0
1, 64980, Note_on_c, 1, 74, 72
1, 65040, Note_on_c, 0, 83, 0
1, 65040, Note_on_c, 0, 81, 72
1, 65040, Note_on_c, 1, 74, 0
1, 65040, Note_on_c, 1, 72, 72
1, 65100, Note_on_c, 1, 72, 0
1, 65100, Note_on_c, 1, 76, 72
1, 65112, Note_on_c, 0, 81, 0
1, 65160, Note_on_c, 0, 79, 72
1, 65160, Note_on_c, 1, 76, 0
1, 65160, Note_on_c, 1, 71, 72
1, 65220, Note_on_c, 1, 71, 0
1, 65220, Note_on_c, 1, 74, 72
1, 65280, Note_on_c, 0, 79, 0
1, 65280, Note_on_c, 0, 78, 72
1, 65280, Note_on_c, 1, 74, 0
1, 65280, Note_on_c, 1, 69, 72
1, 65340, Note_on_c, 1, 69, 0
1, 65340, Note_on_c, 1, 72, 72
1, 65400, Note_on_c, 0, 78, 0
1, 65400, Note_on_c, 0, 76, 72
1, 65400, Note_on_c, 1, 72, 0
1, 65400, Note_on_c, 1, 67, 72
1, 65460, Note_on_c, 1, 67, 0
1, 65460, Note_on_c, 1, 71, 72
1, 65520, Note_on_c, 0, 76, 0
1, 65520, Note_on_c, 0, 74, 72
1, 65520, Note_on_c, 1, 71, 0
1, 65520, Note_on_c, 1, 66, 72
1, 65556, Note_on_c, 0, 74, 0
1, 65580, Note_on_c, 1, 66, 0
1, 65580, Note_on_c, 1, 69, 72
1, 65640, Note_on_c, 0, 74, 72
1, 65640, Note_on_c, 1, 69, 0
1, 65640, Note_on_c, 1, 66, 72
1, 65676, Note_on_c, 0, 74, 0
1, 65700, Note_on_c, 1, 66, 0
1, 65700, Note_on_c, 1, 69, 72
1, 65760, Note_on_c, 0, 74, 72
1, 65760, Note_on_c, 1, 69, 0
1, 65760, Note_on_c, 1, 66, 72
1, 65820, Note_on_c, 0, 74, 0
1, 65820, Note_on_c, 1, 66, 0
1, 65820, Note_on_c, 1, 69, 72
1, 65880, Note_on_c, 0, 74, 72
1, 65880, Note_on_c, 1, 69, 0
1, 65880, Note_on_c, 1, 66, 72
1, 65940, Note_on_c, 1, 66, 0
1, 65940, Note_on_c, 1, 69, 72
1, 66000, Note_on_c, 1, 69, 0
1, 66000, Note_on_c, 1, 66, 72
1, 66060, Note_on_c, 1, 66, 0
1, 66060, Note_on_c, 1, 69, 72
1, 66120, Note_on_c, 0, 74, 0
1, 66120, Note_on_c, 0, 75, 88
1, 66120, Note_on_c, 1, 69, 0
1, 66120, Note_on_c, 1, 66, 88
1, 66180, Note_on_c, 1, 66, 0
1, 66180, Note_on_c, 1, 69, 72
1, 66240, Note_on_c, 0, 75, 0
1, 66240, Note_on_c, 0, 76, 80
1, 66240, Note_on_c, 1, 69, 0
1, 66240, Note_on_c, 1, 67, 80
1, 66300, Note_on_c, 0, 76, 0
1, 66300, Note_on_c, 0, 75, 80
1, 66360, Note_on_c, 0, 75, 0
1, 66360, Note_on_c, 0, 78, 80
1, 66420, Note_on_c, 0, 78, 0
1, 66420, Note_on_c, 0, 76, 80
1, 66480, Note_on_c, 0, 76, 0
1, 66480, Note_on_c, 0, 79, 80
1, 66480, Note_on_c, 1, 67, 0
1, 66540, Note_on_c, 0, 79, 0
1, 66540, Note_on_c, 0, 78, 80
1, 66600, Note_on_c, 0, 78, 0
1, 66600, Note_on_c, 0, 81, 88
1, 66600, Note_on_c, 1, 57, 88
1, 66600, Note_on_c, 1, 61, 88
1, 66600, Note_on_c, 1, 64, 88
1, 66600, Note_on_c, 1, 67, 88
1, 66660, Note_on_c, 0, 81, 0
1, 66660, Note_on_c, 0, 79, 80
1, 66720, Note_on_c, 0, 79, 0
1, 66720, Note_on_c, 0, 78, 80
1, 66780, Note_on_c, 0, 78, 0
1, 66780, Note_on_c, 0, 76, 80
1, 66840, Note_on_c, 0, 76, 0
1, 66840, Note_on_c, 0, 74, 80
1, 66840, Note_on_c, 1, 67, 0
1, 66840, Note_on_c, 1, 57, 0
1, 66840, Note_on_c, 1, 61, 0
1, 66840, Note_on_c, 1, 64, 0
1, 66900, Note_on_c, 0, 74, 0
1, 66900, Note_on_c, 0, 73, 80
1, 66960, Note_on_c, 0, 73, 0
1, 66960, Note_on_c, 0, 74, 80
1, 66996, Note_on_c, 0, 74, 0
1, 67020, Note_on_c, 1, 50, 79
1, 67080, Note_on_c, 1, 50, 0
1, 67080, Note_on_c, 1, 54, 79
1, 67140, Note_on_c, 1, 54, 0
1, 67140, Note_on_c, 1, 50, 78
1, 67200, Note_on_c, 0, 74, 77
1, 67200, Note_on_c, 1, 50, 0
1, 67200, Note_on_c, 1, 52, 77
1, 67236, Note_on_c, 0, 74, 0
1, 67260, Note_on_c, 1, 52, 0
1, 67260, Note_on_c, 1, 55, 77
1, 67320, Note_on_c, 0, 74, 76
1, 67320, Note_on_c, 1, 55, 0
1, 67356, Note_on_c, 0, 74, 0
1, 67380, Note_on_c, 1, 54, 75
1, 67440, Note_on_c, 1, 54, 0
1, 67440, Note_on_c, 1, 57, 75
1, 67500, Note_on_c, 1, 57, 0
1, 67500, Note_on_c, 1, 54, 74
1, 67560, Note_on_c, 0, 74, 73
1, 67560, Note_on_c, 1, 54, 0
1, 67560, Note_on_c, 1, 55, 73
1, 67596, Note_on_c, 0, 74, 0
1, 67620, Note_on_c, 1, 55, 0
1, 67620, Note_on_c, 1, 59, 73
1, 67680, Note_on_c, 0, 74, 72
1, 67680, Note_on_c, 1, 59, 0
1, 67716, Note_on_c, 0, 74, 0
1, 67740, Note_on_c, 1, 57, 71
1, 67800, Note_on_c, 1, 57, 0
1, 67800, Note_on_c, 1, 60, 71
1, 67860, Note_on_c, 1, 60, 0
1, 67860, Note_on_c, 1, 57, 70
1, 67920, Note_on_c, 0, 74, 69
1, 67920, Note_on_c, 1, 57, 0
1, 67920, Note_on_c, 1, 59, 69
1, 67956, Note_on_c, 0, 74, 0
1, 67980, Note_on_c, 1, 59, 0
1, 67980, Note_on_c, 1, 55, 69
1, 68040, Note_on_c, 0, 74, 68
1, 68040, Note_on_c, 1, 55, 0
1, 68076, Note_on_c, 0, 74, 0
1, 68100, Note_on_c, 1, 54, 67
1, 68160, Note_on_c, 1, 54, 0
1, 68160, Note_on_c, 1, 57, 67
1, 68220, Note_on_c, 1, 57, 0
1, 68220, Note_on_c, 1, 54, 66
1, 68280, Note_on_c, 0, 74, 65
1, 68280, Note_on_c, 1, 54, 0
1, 68280, Note_on_c, 1, 55, 65
1, 68316, Note_on_c, 0, 74, 0
1, 68340, Note_on_c, 1, 55, 0
1, 68340, Note_on_c, 1, 52, 65
1, 68400, Note_on_c, 1, 52, 0
1, 68400, Note_on_c, 1, 50, 64
1, 68460, Note_on_c, 0, 74, 65
1, 68520, Note_on_c, 0, 74, 0
1, 68520, Note_on_c, 0, 78, 67
1, 68520, Note_on_c, 1, 50, 0
1, 68580, Note_on_c, 0, 78, 0
1, 68580, Note_on_c, 0, 74, 68
1, 68640, Note_on_c, 0, 74, 0
1, 68640, Note_on_c, 0, 76, 69
1, 68640, Note_on_c, 1, 50, 69
1, 68676, Note_on_c, 1, 50, 0
1, 68700, Note_on_c, 0, 76, 0
1, 68700, Note_on_c, 0, 79, 71
1, 68760, Note_on_c, 0, 79, 0
1, 68760, Note_on_c, 1, 50, 72
1, 68796, Note_on_c, 1, 50, 0
1, 68820, Note_on_c, 0, 78, 73
1, 68880, Note_on_c, 0, 78, 0
1, 68880, Note_on_c, 0, 81, 75
1, 68940, Note_on_c, 0, 81, 0
1, 68940, Note_on_c, 0, 78, 76
1, 69000, Note_on_c, 0, 78, 0
1, 69000, Note_on_c, 0, 79, 77
1, 69000, Note_on_c, 1, 38, 77
1, 69036, Note_on_c, 1, 38, 0
1, 69060, Note_on_c, 0, 79, 0
1, 69060, Note_on_c, 0, 83, 79
1, 69120, Note_on_c, 0, 83, 0
1, 69120, Note_on_c, 1, 38, 88
1, 69180, Note_on_c, 0, 81, 88
1, 69240, Note_on_c, 0, 81, 0
1, 69240, Note_on_c, 0, 84, 88
1, 69300, Note_on_c, 0, 84, 0
1, 69300, Note_on_c, 0, 78, 88
1, 69360, Note_on_c, 0, 78, 0
1, 69360, Note_on_c, 0, 81, 88
1, 69420, Note_on_c, 0, 81, 0
1, 69420, Note_on_c, 0, 72, 88
1, 69480, Note_on_c, 0, 72, 0
1, 69480, Note_on_c, 0, 78, 88
1, 69540, Note_on_c, 0, 78, 0
1, 69540, Note_on_c, 0, 69, 88
1, 69600, Note_on_c, 0, 69, 0
1, 69600, Note_on_c, 0, 72, 88
1, 69660, Note_on_c, 0, 72, 0
1, 69660, Note_on_c, 0, 66, 88
1, 69720, Note_on_c, 0, 66, 0
1, 69720, Note_on_c, 0, 69, 88
1, 69780, Note_on_c, 0, 69, 0
1, 69780, Note_on_c, 0, 60, 88
1, 69840, Note_on_c, 0, 60, 0
1, 69840, Note_on_c, 0, 76, 88
1, 69840, Note_on_c, 1, 38, 0
1, 69900, Note_on_c, 1, 48, 88
1, 69960, Note_on_c, 1, 48, 0
1, 69960, Note_on_c, 1, 57, 88
1, 70020, Note_on_c, 1, 57, 0
1, 70020, Note_on_c, 1, 54, 88
1, 70080, Note_on_c, 1, 54, 0
1, 70080, Note_on_c, 1, 60, 88
1, 70140, Note_on_c, 1, 60, 0
1, 70140, Note_on_c, 1, 57, 88
1, 70200, Note_on_c, 1, 57, 0
1, 70200, Note_on_c, 1, 66, 88
1, 70560, Note_on_c, 0, 76, 0
1, 70560, Note_on_c, 1, 66, 0
1, 70800, Note_on_c, 0, 74, 64
1, 70830, Note_on_c, 0, 74, 0
1, 70830, Note_on_c, 0, 72, 64
1, 70860, Note_on_c, 0, 72, 0
1, 70860, Note_on_c, 0, 71, 64
1, 70890, Note_on_c, 0, 71, 0
1, 70890, Note_on_c, 0, 69, 64
1, 70920, Note_on_c, 0, 69, 0
1, 70920, Note_on_c, 0, 67, 64
1, 70920, Note_on_c, 1, 55, 64
1, 70920, Note_on_c, 1, 59, 64
1, 71100, Note_on_c, 0, 67, 0
1, 71100, Note_on_c, 0, 71, 64
1, 71160, Note_on_c, 0, 71, 0
1, 71160, Note_on_c, 0, 69, 64
1, 71160, Note_on_c, 1, 59, 0
1, 71160, Note_on_c, 1, 55, 0
1, 71160, Note_on_c, 1, 55, 64
1, 71160, Note_on_c, 1, 60, 64
1, 71280, Note_on_c, 0, 69, 0
1, 71280, Note_on_c, 0, 62, 64
1, 71280, Note_on_c, 1, 60, 0
1, 71280, Note_on_c, 1, 55, 0
1, 71280, Note_on_c, 1, 55, 64
1, 71280, Note_on_c, 1, 60, 64
1, 71400, Note_on_c, 0, 62, 0
1, 71400, Note_on_c, 0, 63, 64
1, 71460, Note_on_c, 0, 63, 0
1, 71460, Note_on_c, 0, 64, 64
1, 71520, Note_on_c, 0, 64, 0
1, 71520, Note_on_c, 0, 65, 64
1, 71520, Note_on_c, 1, 60, 0
1, 71520, Note_on_c, 1, 55, 0
1, 71520, Note_on_c, 1, 55, 64
1, 71520, Note_on_c, 1, 60, 64
1, 71580, Note_on_c, 0, 65, 0
1, 71580, Note_on_c, 0, 66, 64
1, 71640, Note_on_c, 0, 66, 0
1, 71640, Note_on_c, 0, 67, 64
1, 71640, Note_on_c, 1, 60, 0
1, 71640, Note_on_c, 1, 55, 0
1, 71640, Note_on_c, 1, 59, 64
1, 71640, Note_on_c, 1, 55, 64
1, 71676, Note_on_c, 0, 67, 0
1, 71700, Note_on_c, 1, 59, 0
1, 71700, Note_on_c, 1, 58, 64
1, 71760, Note_on_c, 0, 67, 64
1, 71760, Note_on_c, 1, 58, 0
1, 71760, Note_on_c, 1, 59, 64
1, 71796, Note_on_c, 0, 67, 0
1, 71820, Note_on_c, 1, 59, 0
1, 71820, Note_on_c, 1, 58, 64
1, 71880, Note_on_c, 0, 67, 64
1, 71880, Note_on_c, 1, 58, 0
1, 71880, Note_on_c, 1, 59, 64
1, 71916, Note_on_c, 0, 67, 0
1, 71940, Note_on_c, 1, 59, 0
1, 71940, Note_on_c, 1, 58, 64
1, 72000, Note_on_c, 0, 67, 64
1, 72000, Note_on_c, 1, 58, 0
1, 72000, Note_on_c, 1, 59, 64
1, 72240, Note_on_c, 0, 67, 0
1, 72240, Note_on_c, 0, 69, 64
1, 72240, Note_on_c, 0, 62, 64
1, 72240, Note_on_c, 1, 59, 0
1, 72240, Note_on_c, 1, 55, 0
1, 72240, Note_on_c, 1, 54, 64
1, 72312, Note_on_c, 1, 54, 0
1, 72330, Note_on_c, 0, 69, 0
1, 72330, Note_on_c, 0, 72, 64
1, 72330, Note_on_c, 1, 57, 64
1, 72354, Note_on_c, 1, 57, 0
1, 72360, Note_on_c, 0, 72, 0
1, 72360, Note_on_c, 0, 62, 0
1, 72360, Note_on_c, 0, 62, 64
1, 72360, Note_on_c, 0, 71, 64
1, 72360, Note_on_c, 1, 55, 64
1, 72420, Note_on_c, 0, 71, 0
1, 72420, Note_on_c, 0, 70, 64
1, 72420, Note_on_c, 1, 55, 0
1, 72420, Note_on_c, 1, 54, 64
1, 72480, Note_on_c, 0, 70, 0
1, 72480, Note_on_c, 0, 71, 64
1, 72480, Note_on_c, 1, 54, 0
1, 72480, Note_on_c, 1, 55, 64
1, 72540, Note_on_c, 0, 71, 0
1, 72540, Note_on_c, 0, 70, 64
1, 72540, Note_on_c, 1, 55, 0
1, 72540, Note_on_c, 1, 54, 64
1, 72600, Note_on_c, 0, 70, 0
1, 72600, Note_on_c, 0, 71, 64
1, 72600, Note_on_c, 1, 54, 0
1, 72600, Note_on_c, 1, 55, 64
1, 72660, Note_on_c, 0, 71, 0
1, 72660, Note_on_c, 0, 74, 64
1, 72660, Note_on_c, 1, 55, 0
1, 72660, Note_on_c, 1, 59, 64
1, 72720, Note_on_c, 0, 74, 0
1, 72720, Note_on_c, 0, 62, 0
1, 72720, Note_on_c, 0, 62, 80
1, 72720, Note_on_c, 0, 74, 80
1, 72720, Note_on_c, 0, 66, 80
1, 72720, Note_on_c, 1, 59, 0
1, 72720, Note_on_c, 1, 57, 80
1, 72840, Note_on_c, 0, 74, 0
1, 72840, Note_on_c, 0, 72, 64
1, 72876, Note_on_c, 0, 72, 0
1, 72876, Note_on_c, 0, 66, 0
1, 72876, Note_on_c, 0, 62, 0
1, 72960, Note_on_c, 0, 67, 64
1, 72960, Note_on_c, 0, 71, 64
1, 72960, Note_on_c, 1, 57, 0
1, 72960, Note_on_c, 1, 55, 64
1, 72996, Note_on_c, 0, 71, 0
1, 72996, Note_on_c, 0, 67, 0
1, 72996, Note_on_c, 1, 55, 0
1, 73080, Note_on_c, 0, 71, 64
1, 73080, Note_on_c, 0, 67, 64
1, 73080, Note_on_c, 1, 50, 64
1, 73140, Note_on_c, 1, 50, 0
1, 73140, Note_on_c, 1, 61, 64
1, 73200, Note_on_c, 0, 67, 0
1, 73200, Note_on_c, 0, 71, 0
1, 73200, Note_on_c, 0, 69, 64
1, 73200, Note_on_c, 0, 66, 64
1, 73200, Note_on_c, 1, 61, 0
1, 73200, Note_on_c, 1, 62, 64
1, 73236, Note_on_c, 0, 66, 0
1, 73236, Note_on_c, 0, 69, 0
1, 73260, Note_on_c, 1, 62, 0
1, 73260, Note_on_c, 1, 61, 64
1, 73320, Note_on_c, 0, 69, 64
1, 73320, Note_on_c, 0, 66, 64
1, 73320, Note_on_c, 1, 61, 0
1, 73320, Note_on_c, 1, 62, 64
1, 73356, Note_on_c, 0, 66, 0
1, 73356, Note_on_c, 0, 69, 0
1, 73380, Note_on_c, 1, 62, 0
1, 73380, Note_on_c, 1, 61, 64
1, 73440, Note_on_c, 0, 69, 64
1, 73440, Note_on_c, 0, 66, 64
1, 73440, Note_on_c, 1, 61, 0
1, 73440, Note_on_c, 1, 62, 64
1, 73500, Note_on_c, 1, 62, 0
1, 73500, Note_on_c, 1, 64, 64
1, 73560, Note_on_c, 1, 64, 0
1, 73560, Note_on_c, 1, 60, 64
1, 73620, Note_on_c, 1, 60, 0
1, 73620, Note_on_c, 1, 62, 64
1, 73680, Note_on_c, 0, 66, 0
1, 73680, Note_on_c, 0, 69, 0
1, 73680, Note_on_c, 0, 71, 80
1, 73680, Note_on_c, 0, 68, 80
1, 73680, Note_on_c, 1, 62, 0
1, 73680, Note_on_c, 1, 59, 64
1, 73740, Note_on_c, 1, 59, 0
1, 73740, Note_on_c, 1, 60, 64
1, 73752, Note_on_c, 0, 68, 0
1, 73752, Note_on_c, 0, 71, 0
1, 73800, Note_on_c, 0, 69, 64
1, 73800, Note_on_c, 0, 72, 64
1, 73800, Note_on_c, 1, 60, 0
1, 73800, Note_on_c, 1, 57, 64
1, 73860, Note_on_c, 1, 57, 0
1, 73860, Note_on_c, 1, 64, 64
1, 73920, Note_on_c, 0, 72, 0
1, 73920, Note_on_c, 0, 69, 0
1, 73920, Note_on_c, 0, 71, 64
1, 73920, Note_on_c, 0, 74, 64
1, 73920, Note_on_c, 1, 64, 0
1, 73920, Note_on_c, 1, 60, 64
1, 73980, Note_on_c, 1, 60, 0
1, 73980, Note_on_c, 1, 59, 64
1, 74040, Note_on_c, 0, 74, 0
1, 74040, Note_on_c, 0, 71, 0
1, 74040, Note_on_c, 0, 72, 64
1, 74040, Note_on_c, 0, 76, 64
1, 74040, Note_on_c, 1, 59, 0
1, 74040, Note_on_c, 1, 57, 64
1, 74076, Note_on_c, 0, 76, 0
1, 74076, Note_on_c, 0, 72, 0
1, 74100, Note_on_c, 1, 57, 0
1, 74100, Note_on_c, 1, 55, 64
1, 74160, Note_on_c, 0, 72, 64
1, 74160, Note_on_c, 0, 76, 64
1, 74160, Note_on_c, 1, 55, 0
1, 74160, Note_on_c, 1, 54, 64
1, 74220, Note_on_c, 1, 54, 0
1, 74220, Note_on_c, 1, 57, 64
1, 74280, Note_on_c, 1, 57, 0
1, 74280, Note_on_c, 1, 60, 64
1, 74340, Note_on_c, 1, 60, 0
1, 74340, Note_on_c, 1, 50, 64
1, 74400, Note_on_c, 0, 76, 0
1, 74400, Note_on_c, 0, 72, 0
1, 74400, Note_on_c, 0, 71, 64
1, 74400, Note_on_c, 0, 74, 64
1, 74400, Note_on_c, 1, 50, 0
1, 74400, Note_on_c, 1, 52, 64
1, 74460, Note_on_c, 0, 74, 0
1, 74460, Note_on_c, 0, 71, 0
1, 74460, Note_on_c, 0, 69, 64
1, 74460, Note_on_c, 0, 72, 64
1, 74460, Note_on_c, 1, 52, 0
1, 74460, Note_on_c, 1, 54, 64
1, 74520, Note_on_c, 0, 72, 0
1, 74520, Note_on_c, 0, 69, 0
1, 74520, Note_on_c, 0, 67, 64
1, 74520, Note_on_c, 0, 71, 64
1, 74520, Note_on_c, 1, 54, 0
1, 74520, Note_on_c, 1, 55, 64
1, 74580, Note_on_c, 1, 55, 0
1, 74580, Note_on_c, 1, 54, 65
1, 74640, Note_on_c, 0, 71, 0
1, 74640, Note_on_c, 0, 67, 0
1, 74640, Note_on_c, 0, 69, 67
1, 74640, Note_on_c, 0, 72, 67
1, 74640, Note_on_c, 1, 54, 0
1, 74640, Note_on_c, 1, 52, 67
1, 74700, Note_on_c, 1, 52, 0
1, 74700, Note_on_c, 1, 50, 68
1, 74760, Note_on_c, 0, 72, 0
1, 74760, Note_on_c, 0, 69, 0
1, 74760, Note_on_c, 0, 71, 69
1, 74760, Note_on_c, 0, 74, 69
1, 74760, Note_on_c, 1, 50, 0
1, 74760, Note_on_c, 1, 48, 69
1, 74820, Note_on_c, 1, 48, 0
1, 74820, Note_on_c, 1, 47, 71
1, 74880, Note_on_c, 0, 74, 0
1, 74880, Note_on_c, 0, 71, 0
1, 74880, Note_on_c, 0, 59, 72
1, 74880, Note_on_c, 0, 67, 72
1, 74880, Note_on_c, 1, 47, 0
1, 74880, Note_on_c, 1, 52, 72
1, 74940, Note_on_c, 1, 52, 0
1, 74940, Note_on_c, 1, 50, 73
1, 75000, Note_on_c, 0, 67, 0
1, 75000, Note_on_c, 0, 59, 0
1, 75000, Note_on_c, 0, 60, 75
1, 75000, Note_on_c, 0, 69, 75
1, 75000, Note_on_c, 1, 50, 0
1, 75000, Note_on_c, 1, 48, 75
1, 75060, Note_on_c, 1, 48, 0
1, 75060, Note_on_c, 1, 47, 76
1, 75120, Note_on_c, 0, 69, 0
1, 75120, Note_on_c, 0, 60, 0
1, 75120, Note_on_c, 0, 62, 77
1, 75120, Note_on_c, 0, 71, 77
1, 75120, Note_on_c, 1, 47, 0
1, 75120, Note_on_c, 1, 45, 77
1, 75180, Note_on_c, 1, 45, 0
1, 75180, Note_on_c, 1, 43, 79
1, 75240, Note_on_c, 0, 71, 0
1, 75240, Note_on_c, 0, 62, 0
1, 75240, Note_on_c, 0, 69, 80
1, 75240, Note_on_c, 1, 43, 0
1, 75240, Note_on_c, 1, 48, 80
1, 75300, Note_on_c, 0, 64, 80
1, 75360, Note_on_c, 0, 69, 0
1, 75360, Note_on_c, 0, 71, 80
1, 75360, Note_on_c, 1, 48, 0
1, 75360, Note_on_c, 1, 47, 80
1, 75420, Note_on_c, 0, 64, 0
1, 75420, Note_on_c, 0, 62, 80
1, 75480, Note_on_c, 0, 71, 0
1, 75480, Note_on_c, 0, 72, 80
1, 75480, Note_on_c, 1, 47, 0
1, 75480, Note_on_c, 1, 45, 80
1, 75540, Note_on_c, 0, 62, 0
1, 75540, Note_on_c, 0, 60, 80
1, 75600, Note_on_c, 0, 72, 0
1, 75600, Note_on_c, 0, 72, 96
1, 75600, Note_on_c, 1, 45, 0
1, 75600, Note_on_c, 1, 48, 96
1, 75660, Note_on_c, 0, 60, 0
1, 75660, Note_on_c, 0, 60, 80
1, 75720, Note_on_c, 0, 72, 0
1, 75720, Note_on_c, 0, 69, 80
1, 75780, Note_on_c, 0, 60, 0
1, 75780, Note_on_c, 0, 60, 80
1, 75840, Note_on_c, 0, 69, 0
1, 75840, Note_on_c, 0, 66, 80
1, 75900, Note_on_c, 0, 60, 0
1, 75900, Note_on_c, 0, 60, 80
1, 75960, Note_on_c, 0, 60, 0
1, 75960, Note_on_c, 0, 66, 0
1, 75960, Note_on_c, 0, 60, 80
1, 75960, Note_on_c, 0, 69, 80
1, 75960, Note_on_c, 1, 48, 0
1, 75960, Note_on_c, 1, 43, 80
1, 76020, Note_on_c, 1, 43, 0
1, 76020, Note_on_c, 1, 54, 79
1, 76080, Note_on_c, 1, 54, 0
1, 76080, Note_on_c, 1, 55, 77
1, 76140, Note_on_c, 1, 55, 0
1, 76140, Note_on_c, 1, 54, 76
1, 76200, Note_on_c, 1, 54, 0
1, 76200, Note_on_c, 1, 55, 75
1, 76260, Note_on_c, 1, 55, 0
1, 76260, Note_on_c, 1, 54, 73
1, 76320, Note_on_c, 0, 69, 0
1, 76320, Note_on_c, 0, 60, 0
1, 76320, Note_on_c, 0, 59, 72
1, 76320, Note_on_c, 0, 67, 72
1, 76320, Note_on_c, 1, 54, 0
1, 76320, Note_on_c, 1, 55, 72
1, 76440, Note_on_c, 0, 67, 0
1, 76440, Note_on_c, 0, 59, 0
1, 76440, Note_on_c, 1, 55, 0
1, 76560, Note_on_c, 0, 79, 67
1, 76560, Note_on_c, 1, 71, 67
1, 76620, Note_on_c, 1, 71, 0
1, 76620, Note_on_c, 1, 74, 65
1, 76680, Note_on_c, 0, 79, 0
1, 76680, Note_on_c, 0, 79, 72
1, 76680, Note_on_c, 1, 74, 0
1, 76680, Note_on_c, 1, 71, 72
1, 76740, Note_on_c, 1, 71, 0
1, 76740, Note_on_c, 1, 74, 72
1, 76800, Note_on_c, 1, 74, 0
1, 76800, Note_on_c, 1, 71, 72
1, 76860, Note_on_c, 0, 79, 0
1, 76860, Note_on_c, 0, 83, 72
1, 76860, Note_on_c, 1, 71, 0
1, 76860, Note_on_c, 1, 74, 72
1, 76920, Note_on_c, 0, 83, 0
1, 76920, Note_on_c, 0, 81, 72
1, 76920, Note_on_c, 1, 74, 0
1, 76920, Note_on_c, 1, 72, 72
1, 76980, Note_on_c, 1, 72, 0
1, 76980, Note_on_c, 1, 76, 72
1, 76992, Note_on_c, 0, 81, 0
1, 77040, Note_on_c, 0, 79, 72
1, 77040, Note_on_c, 1, 76, 0
1, 77040, Note_on_c, 1, 71, 72
1, 77100, Note_on_c, 1, 71, 0
1, 77100, Note_on_c, 1, 74, 72
1, 77160, Note_on_c, 0, 79, 0
1, 77160, Note_on_c, 0, 78, 72
1, 77160, Note_on_c, 1, 74, 0
1, 77160, Note_on_c, 1, 69, 72
1, 77220, Note_on_c, 1, 69, 0
1, 77220, Note_on_c, 1, 72, 72
1, 77280, Note_on_c, 0, 78, 0
1, 77280, Note_on_c, 0, 76, 72
1, 77280, Note_on_c, 1, 72, 0
1, 77280, Note_on_c, 1, 67, 72
1, 77340, Note_on_c, 1, 67, 0
1, 77340, Note_on_c, 1, 71, 72
1, 77400, Note_on_c, 0, 76, 0
1, 77400, Note_on_c, 0, 74, 72
1, 77400, Note_on_c, 1, 71, 0
1, 77400, Note_on_c, 1, 66, 72
1, 77436, Note_on_c, 0, 74, 0
1, 77460, Note_on_c, 1, 66, 0
1, 77460, Note_on_c, 1, 69, 72
1, 77520, Note_on_c, 0, 74, 72
1, 77520, Note_on_c, 1, 69, 0
1, 77520, Note_on_c, 1, 66, 72
1, 77556, Note_on_c, 0, 74, 0
1, 77580, Note_on_c, 1, 66, 0
1, 77580, Note_on_c, 1, 69, 72
1, 77640, Note_on_c, 0, 74, 72
1, 77640, Note_on_c, 1, 69, 0
1, 77640, Note_on_c, 1, 66, 72
1, 77700, Note_on_c, 0, 74, 0
1, 77700, Note_on_c, 1, 66, 0
1, 77700, Note_on_c, 1, 69, 72
1, 77760, Note_on_c, 0, 74, 72
1, 77760, Note_on_c, 1, 69, 0
1, 77760, Note_on_c, 1, 66, 72
1, 77820, Note_on_c, 1, 66, 0
1, 77820, Note_on_c, 1, 69, 72
1, 77880, Note_on_c, 1, 69, 0
1, 77880, Note_on_c, 1, 66, 72
1, 77940, Note_on_c, 1, 66, 0
1, 77940, Note_on_c, 1, 69, 72
1, 78000, Note_on_c, 0, 74, 0
1, 78000, Note_on_c, 0, 75, 88
1, 78000, Note_on_c, 1, 69, 0
1, 78000, Note_on_c, 1, 66, 88
1, 78060, Note_on_c, 1, 66, 0
1, 78060, Note_on_c, 1, 69, 72
1, 78120, Note_on_c, 0, 75, 0
1, 78120, Note_on_c, 0, 76, 80
1, 78120, Note_on_c, 1, 69, 0
1, 78120, Note_on_c, 1, 67, 80
1, 78180, Note_on_c, 0, 76, 0
1, 78180, Note_on_c, 0, 75, 80
1, 78240, Note_on_c, 0, 75, 0
1, 78240, Note_on_c, 0, 78, 80
1, 78300, Note_on_c, 0, 78, 0
1, 78300, Note_on_c, 0, 76, 80
1, 78360, Note_on_c, 0, 76, 0
1, 78360, Note_on_c, 0, 79, 80
1, 78360, Note_on_c, 1, 67, 0
1, 78420, Note_on_c, 0, 79, 0
1, 78420, Note_on_c, 0, 78, 80
1, 78480, Note_on_c, 0, 78, 0
1, 78480, Note_on_c, 0, 81, 88
1, 78480, Note_on_c, 1, 67, 88
1, 78480, Note_on_c, 1, 64, 88
1, 78480, Note_on_c, 1, 61, 88
1, 78480, Note_on_c, 1, 57, 88
1, 78540, Note_on_c, 0, 81, 0
1, 78540, Note_on_c, 0, 79, 80
1, 78600, Note_on_c, 0, 79, 0
1, 78600, Note_on_c, 0, 78, 80
1, 78660, Note_on_c, 0, 78, 0
1, 78660, Note_on_c, 0, 76, 80
1, 78720, Note_on_c, 0, 76, 0
1, 78720, Note_on_c, 0, 74, 80
1, 78720, Note_on_c, 1, 57, 0
1, 78720, Note_on_c, 1, 67, 0
1, 78720, Note_on_c, 1, 64, 0
1, 78720, Note_on_c, 1, 61, 0
1, 78780, Note_on_c, 0, 74, 0
1, 78780, Note_on_c, 0, 73, 80
1, 78840, Note_on_c, 0, 73, 0
1, 78840, Note_on_c, 0, 74, 80
1, 78876, Note_on_c, 0, 74, 0
1, 78900, Note_on_c, 1, 50, 79
1, 78960, Note_on_c, 1, 50, 0
1, 78960, Note_on_c, 1, 54, 79
1, 79020, Note_on_c, 1, 54, 0
1, 79020, Note_on_c, 1, 50, 78
1, 79080, Note_on_c, 0, 74, 77
1, 79080, Note_on_c, 1, 50, 0
1, 79080, Note_on_c, 1, 52, 77
1, 79116, Note_on_c, 0, 74, 0
1, 79140, Note_on_c, 1, 52, 0
1, 79140, Note_on_c, 1, 55, 77
1, 79200, Note_on_c, 0, 74, 76
1, 79200, Note_on_c, 1, 55, 0
1, 79236, Note_on_c, 0, 74, 0
1, 79260, Note_on_c, 1, 54, 75
1, 79320, Note_on_c, 1, 54, 0
1, 79320, Note_on_c, 1, 57, 75
1, 79380, Note_on_c, 1, 57, 0
1, 79380, Note_on_c, 1, 54, 74
1, 79440, Note_on_c, 0, 74, 73
1, 79440, Note_on_c, 1, 54, 0
1, 79440, Note_on_c, 1, 55, 73
1, 79476, Note_on_c, 0, 74, 0
1, 79500, Note_on_c, 1, 55, 0
1, 79500, Note_on_c, 1, 59, 73
1, 79560, Note_on_c, 0, 74, 72
1, 79560, Note_on_c, 1, 59, 0
1, 79596, Note_on_c, 0, 74, 0
1, 79620, Note_on_c, 1, 57, 71
1, 79680, Note_on_c, 1, 57, 0
1, 79680, Note_on_c, 1, 60, 71
1, 79740, Note_on_c, 1, 60, 0
1, 79740, Note_on_c, 1, 57, 70
1, 79800, Note_on_c, 0, 74, 69
1, 79800, Note_on_c, 1, 57, 0
1, 79800, Note_on_c, 1, 59, 69
1, 79836, Note_on_c, 0, 74, 0
1, 79860, Note_on_c, 1, 59, 0
1, 79860, Note_on_c, 1, 55, 69
1, 79920, Note_on_c, 0, 74, 68
1, 79920, Note_on_c, 1, 55, 0
1, 79956, Note_on_c, 0, 74, 0
1, 79980, Note_on_c, 1, 54, 67
1, 80040, Note_on_c, 1, 54, 0
1, 80040, Note_on_c, 1, 57, 67
1, 80100, Note_on_c, 1, 57, 0
1, 80100, Note_on_c, 1, 54, 66
1, 80160, Note_on_c, 0, 74, 65
1, 80160, Note_on_c, 1, 54, 0
1, 80160, Note_on_c, 1, 55, 65
1, 80196, Note_on_c, 0, 74, 0
1, 80220, Note_on_c, 1, 55, 0
1, 80220, Note_on_c, 1, 52, 65
1, 80280, Note_on_c, 1, 52, 0
1, 80280, Note_on_c, 1, 50, 64
1, 80340, Note_on_c, 0, 74, 65
1, 80400, Note_on_c, 0, 74, 0
1, 80400, Note_on_c, 0, 78, 67
1, 80400, Note_on_c, 1, 50, 0
1, 80460, Note_on_c, 0, 78, 0
1, 80460, Note_on_c, 0, 74, 68
1, 80520, Note_on_c, 0, 74, 0
1, 80520, Note_on_c, 0, 76, 69
1, 80520, Note_on_c, 1, 50, 69
1, 80556, Note_on_c, 1, 50, 0
1, 80580, Note_on_c, 0, 76, 0
1, 80580, Note_on_c, 0, 79, 71
1, 80640, Note_on_c, 0, 79, 0
1, 80640, Note_on_c, 1, 50, 72
1, 80676, Note_on_c, 1, 50, 0
1, 80700, Note_on_c, 0, 78, 73
1, 80760, Note_on_c, 0, 78, 0
1, 80760, Note_on_c, 0, 81, 75
1, 80820, Note_on_c, 0, 81, 0
1, 80820, Note_on_c, 0, 78, 76
1, 80880, Note_on_c, 0, 78, 0
1, 80880, Note_on_c, 0, 79, 77
1, 80880, Note_on_c, 1, 38, 77
1, 80916, Note_on_c, 1, 38, 0
1, 80940, Note_on_c, 0, 79, 0
1, 80940, Note_on_c, 0, 83, 79
1, 81000, Note_on_c, 0, 83, 0
1, 81000, Note_on_c, 1, 38, 88
1, 81060, Note_on_c, 0, 81, 88
1, 81120, Note_on_c, 0, 81, 0
1, 81120, Note_on_c, 0, 84, 88
1, 81180, Note_on_c, 0, 84, 0
1, 81180, Note_on_c, 0, 78, 88
1, 81240, Note_on_c, 0, 78, 0
1, 81240, Note_on_c, 0, 81, 88
1, 81300, Note_on_c, 0, 81, 0
1, 81300, Note_on_c, 0, 72, 88
1, 81360, Note_on_c, 0, 72, 0
1, 81360, Note_on_c, 0, 78, 88
1, 81420, Note_on_c, 0, 78, 0
1, 81420, Note_on_c, 0, 69, 88
1, 81480, Note_on_c, 0, 69, 0
1, 81480, Note_on_c, 0, 72, 88
1, 81540, Note_on_c, 0, 72, 0
1, 81540, Note_on_c, 0, 66, 88
1, 81600, Note_on_c, 0, 66, 0
1, 81600, Note_on_c, 0, 69, 88
1, 81660, Note_on_c, 0, 69, 0
1, 81660, Note_on_c, 0, 60, 88
1, 81720, Note_on_c, 0, 60, 0
1, 81720, Note_on_c, 0, 76, 88
1, 81720, Note_on_c, 1, 38, 0
1, 81780, Note_on_c, 1, 48, 88
1, 81840, Note_on_c, 1, 48, 0
1, 81840, Note_on_c, 1, 57, 88
1, 81900, Note_on_c, 1, 57, 0
1, 81900, Note_on_c, 1, 54, 88
1, 81960, Note_on_c, 1, 54, 0
1, 81960, Note_on_c, 1, 60, 88
1, 82020, Note_on_c, 1, 60, 0
1, 82020, Note_on_c, 1, 57, 88
1, 82080, Note_on_c, 1, 57, 0
1, 82080, Note_on_c, 1, 66, 88
1, 82440, Note_on_c, 0, 76, 0
1, 82440, Note_on_c, 1, 66, 0
1, 82680, Note_on_c, 0, 74, 64
1, 82710, Note_on_c, 0, 74, 0
1, 82710, Note_on_c, 0, 72, 64
1, 82740, Note_on_c, 0, 72, 0
1, 82740, Note_on_c, 0, 71, 64
1, 82770, Note_on_c, 0, 71, 0
1, 82770, Note_on_c, 0, 69, 64
1, 82800, Note_on_c, 0, 69, 0
1, 82800, Note_on_c, 0, 67, 64
1, 82800, Note_on_c, 1, 59, 64
1, 82800, Note_on_c, 1, 55, 64
1, 82980, Note_on_c, 0, 67, 0
1, 82980, Note_on_c, 0, 71, 64
1, 83040, Note_on_c, 0, 71, 0
1, 83040, Note_on_c, 0, 69, 64
1, 83040, Note_on_c, 1, 55, 0
1, 83040, Note_on_c, 1, 59, 0
1, 83040, Note_on_c, 1, 60, 64
1, 83040, Note_on_c, 1, 55, 64
1, 83160, Note_on_c, 0, 69, 0
1, 83160, Note_on_c, 0, 62, 64
1, 83160, Note_on_c, 1, 55, 0
1, 83160, Note_on_c, 1, 60, 0
1, 83160, Note_on_c, 1, 60, 64
1, 83160, Note_on_c, 1, 55, 64
1, 83280, Note_on_c, 0, 62, 0
1, 83280, Note_on_c, 0, 63, 64
1, 83340, Note_on_c, 0, 63, 0
1, 83340, Note_on_c, 0, 64, 64
1, 83400, Note_on_c, 0, 64, 0
1, 83400, Note_on_c, 0, 65, 64
1, 83400, Note_on_c, 1, 55, 0
1, 83400, Note_on_c, 1, 60, 0
1, 83400, Note_on_c, 1, 60, 64
1, 83400, Note_on_c, 1, 55, 64
1, 83460, Note_on_c, 0, 65, 0
1, 83460, Note_on_c, 0, 66, 64
1, 83520, Note_on_c, 0, 66, 0
1, 83520, Note_on_c, 0, 67, 64
1, 83520, Note_on_c, 1, 55, 0
1, 83520, Note_on_c, 1, 60, 0
1, 83520, Note_on_c, 1, 55, 64
1, 83520, Note_on_c, 1, 59, 64
1, 83556, Note_on_c, 0, 67, 0
1, 83580, Note_on_c, 1, 59, 0
1, 83580, Note_on_c, 1, 58, 64
1, 83640, Note_on_c, 0, 67, 64
1, 83640, Note_on_c, 1, 58, 0
1, 83640, Note_on_c, 1, 59, 64
1, 83676, Note_on_c, 0, 67, 0
1, 83700, Note_on_c, 1, 59, 0
1, 83700, Note_on_c, 1, 58, 64
1, 83760, Note_on_c, 0, 67, 64
1, 83760, Note_on_c, 1, 58, 0
1, 83760, Note_on_c, 1, 59, 64
1, 83796, Note_on_c, 0, 67, 0
1, 83820, Note_on_c, 1, 59, 0
1, 83820, Note_on_c, 1, 58, 64
1, 83880, Note_on_c, 0, 67, 64
1, 83880, Note_on_c, 1, 58, 0
1, 83880, Note_on_c, 1, 59, 64
1, 84120, Note_on_c, 0, 67, 0
1, 84120, Note_on_c, 0, 62, 64
1, 84120, Note_on_c, 0, 69, 64
1, 84120, Note_on_c, 1, 59, 0
1, 84120, Note_on_c, 1, 55, 0
1, 84120, Note_on_c, 1, 54, 64
1, 84192, Note_on_c, 1, 54, 0
1, 84210, Note_on_c, 0, 69, 0
1, 84210, Note_on_c, 0, 72, 64
1, 84210, Note_on_c, 1, 57, 64
1, 84234, Note_on_c, 1, 57, 0
1, 84240, Note_on_c, 0, 72, 0
1, 84240, Note_on_c, 0, 62, 0
1, 84240, Note_on_c, 0, 71, 64
1, 84240, Note_on_c, 0, 62, 64
1, 84240, Note_on_c, 1, 55, 64
1, 84300, Note_on_c, 0, 71, 0
1, 84300, Note_on_c, 0, 70, 64
1, 84300, Note_on_c, 1, 55, 0
1, 84300, Note_on_c, 1, 54, 64
1, 84360, Note_on_c, 0, 70, 0
1, 84360, Note_on_c, 0, 71, 64
1, 84360, Note_on_c, 1, 54, 0
1, 84360, Note_on_c, 1, 55, 64
1, 84420, Note_on_c, 0, 71, 0
1, 84420, Note_on_c, 0, 70, 64
1, 84420, Note_on_c, 1, 55, 0
1, 84420, Note_on_c, 1, 54, 64
1, 84480, Note_on_c, 0, 70, 0
1, 84480, Note_on_c, 0, 71, 64
1, 84480, Note_on_c, 1, 54, 0
1, 84480, Note_on_c, 1, 55, 64
1, 84540, Note_on_c, 0, 71, 0
1, 84540, Note_on_c, 0, 74, 64
1, 84540, Note_on_c, 1, 55, 0
1, 84540, Note_on_c, 1, 59, 64
1, 84600, Note_on_c, 0, 74, 0
1, 84600, Note_on_c, 0, 62, 0
1, 84600, Note_on_c, 0, 66, 80
1, 84600, Note_on_c, 0, 74, 80
1, 84600, Note_on_c, 0, 62, 80
1, 84600, Note_on_c, 1, 59, 0
1, 84600, Note_on_c, 1, 57, 80
1, 84720, Note_on_c, 0, 74, 0
1, 84720, Note_on_c, 0, 72, 64
1, 84756, Note_on_c, 0, 72, 0
1, 84756, Note_on_c, 0, 62, 0
1, 84756, Note_on_c, 0, 66, 0
1, 84840, Note_on_c, 0, 71, 64
1, 84840, Note_on_c, 0, 67, 64
1, 84840, Note_on_c, 1, 57, 0
1, 84840, Note_on_c, 1, 55, 64
1, 84876, Note_on_c, 0, 67, 0
1, 84876, Note_on_c, 0, 71, 0
1, 84876, Note_on_c, 1, 55, 0
1, 84960, Note_on_c, 0, 67, 64
1, 84960, Note_on_c, 0, 71, 64
1, 84960, Note_on_c, 1, 50, 64
1, 85020, Note_on_c, 1, 50, 0
1, 85020, Note_on_c, 1, 61, 64
1, 85080, Note_on_c, 0, 71, 0
1, 85080, Note_on_c, 0, 67, 0
1, 85080, Note_on_c, 0, 66, 64
1, 85080, Note_on_c, 0, 69, 64
1, 85080, Note_on_c, 1, 61, 0
1, 85080, Note_on_c, 1, 62, 64
1, 85116, Note_on_c, 0, 69, 0
1, 85116, Note_on_c, 0, 66, 0
1, 85140, Note_on_c, 1, 62, 0
1, 85140, Note_on_c, 1, 61, 64
1, 85200, Note_on_c, 0, 66, 64
1, 85200, Note_on_c, 0, 69, 64
1, 85200, Note_on_c, 1, 61, 0
1, 85200, Note_on_c, 1, 62, 64
1, 85236, Note_on_c, 0, 69, 0
1, 85236, Note_on_c, 0, 66, 0
1, 85260, Note_on_c, 1, 62, 0
1, 85260, Note_on_c, 1, 61, 64
1, 85320, Note_on_c, 0, 66, 64
1, 85320, Note_on_c, 0, 69, 64
1, 85320, Note_on_c, 1, 61, 0
1, 85320, Note_on_c, 1, 62, 64
1, 85380, Note_on_c, 1, 62, 0
1, 85380, Note_on_c, 1, 64, 64
1, 85440, Note_on_c, 1, 64, 0
1, 85440, Note_on_c, 1, 60, 64
1, 85500, Note_on_c, 1, 60, 0
1, 85500, Note_on_c, 1, 62, 64
1, 85560, Note_on_c, 0, 69, 0
1, 85560, Note_on_c, 0, 66, 0
1, 85560, Note_on_c, 0, 68, 80
1, 85560, Note_on_c, 0, 71, 80
1, 85560, Note_on_c, 1, 62, 0
1, 85560, Note_on_c, 1, 59, 64
1, 85620, Note_on_c, 1, 59, 0
1, 85620, Note_on_c, 1, 60, 64
1, 85632, Note_on_c, 0, 71, 0
1, 85632, Note_on_c, 0, 68, 0
1, 85680, Note_on_c, 0, 72, 64
1, 85680, Note_on_c, 0, 69, 64
1, 85680, Note_on_c, 1, 60, 0
1, 85680, Note_on_c, 1, 57, 64
1, 85740, Note_on_c, 1, 57, 0
1, 85740, Note_on_c, 1, 64, 64
1, 85800, Note_on_c, 0, 69, 0
1, 85800, Note_on_c, 0, 72, 0
1, 85800, Note_on_c, 0, 74, 64
1, 85800, Note_on_c, 0, 71, 64
1, 85800, Note_on_c, 1, 64, 0
1, 85800, Note_on_c, 1, 60, 64
1, 85860, Note_on_c, 1, 60, 0
1, 85860, Note_on_c, 1, 59, 64
1, 85920, Note_on_c, 0, 71, 0
1, 85920, Note_on_c, 0, 74, 0
1, 85920, Note_on_c, 0, 76, 64
1, 85920, Note_on_c, 0, 72, 64
1, 85920, Note_on_c, 1, 59, 0
1, 85920, Note_on_c, 1, 57, 64
1, 85956, Note_on_c, 0, 72, 0
1, 85956, Note_on_c, 0, 76, 0
1, 85980, Note_on_c, 1, 57, 0
1, 85980, Note_on_c, 1, 55, 64
1, 86040, Note_on_c, 0, 76, 64
1, 86040, Note_on_c, 0, 72, 64
1, 86040, Note_on_c, 1, 55, 0
1, 86040, Note_on_c, 1, 54, 64
1, 86100, Note_on_c, 1, 54, 0
1, 86100, Note_on_c, 1, 57, 64
1, 86160, Note_on_c, 1, 57, 0
1, 86160, Note_on_c, 1, 60, 64
1, 86220, Note_on_c, 1, 60, 0
1, 86220, Note_on_c, 1, 50, 64
1, 86280, Note_on_c, 0, 72, 0
1, 86280, Note_on_c, 0, 76, 0
1, 86280, Note_on_c, 0, 74, 64
1, 86280, Note_on_c, 0, 71, 64
1, 86280, Note_on_c, 1, 50, 0
1, 86280, Note_on_c, 1, 52, 64
1, 86340, Note_on_c, 0, 71, 0
1, 86340, Note_on_c, 0, 74, 0
1, 86340, Note_on_c, 0, 72, 64
1, 86340, Note_on_c, 0, 69, 64
1, 86340, Note_on_c, 1, 52, 0
1, 86340, Note_on_c, 1, 54, 64
1, 86400, Note_on_c, 0, 69, 0
1, 86400, Note_on_c, 0, 72, 0
1, 86400, Note_on_c, 0, 71, 64
1, 86400, Note_on_c, 0, 67, 64
1, 86400, Note_on_c, 1, 54, 0
1, 86400, Note_on_c, 1, 55, 64
1, 86460, Note_on_c, 1, 55, 0
1, 86460, Note_on_c, 1, 54, 65
1, 86520, Note_on_c, 0, 67, 0
1, 86520, Note_on_c, 0, 71, 0
1, 86520, Note_on_c, 0, 72, 67
1, 86520, Note_on_c, 0, 69, 67
1, 86520, Note_on_c, 1, 54, 0
1, 86520, Note_on_c, 1, 52, 67
1, 86580, Note_on_c, 1, 52, 0
1, 86580, Note_on_c, 1, 50, 68
1, 86640, Note_on_c, 0, 69, 0
1, 86640, Note_on_c, 0, 72, 0
1, 86640, Note_on_c, 0, 74, 69
1, 86640, Note_on_c, 0, 71, 69
1, 86640, Note_on_c, 1, 50, 0
1, 86640, Note_on_c, 1, 48, 69
1, 86700, Note_on_c, 1, 48, 0
1, 86700, Note_on_c, 1, 47, 71
1, 86760, Note_on_c, 0, 71, 0
1, 86760, Note_on_c, 0, 74, 0
1, 86760, Note_on_c, 0, 67, 72
1, 86760, Note_on_c, 0, 59, 72
1, 86760, Note_on_c, 1, 47, 0
1, 86760, Note_on_c, 1, 52, 72
1, 86820, Note_on_c, 1, 52, 0
1, 86820, Note_on_c, 1, 50, 73
1, 86880, Note_on_c, 0, 59, 0
1, 86880, Note_on_c, 0, 67, 0
1, 86880, Note_on_c, 0, 69, 75
1, 86880, Note_on_c, 0, 60, 75
1, 86880, Note_on_c, 1, 50, 0
1, 86880, Note_on_c, 1, 48, 75
1, 86940, Note_on_c, 1, 48, 0
1, 86940, Note_on_c, 1, 47, 76
1, 87000, Note_on_c, 0, 60, 0
1, 87000, Note_on_c, 0, 69, 0
1, 87000, Note_on_c, 0, 71, 77
1, 87000, Note_on_c, 0, 62, 77
1, 87000, Note_on_c, 1, 47, 0
1, 87000, Note_on_c, 1, 45, 77
1, 87060, Note_on_c, 1, 45, 0
1, 87060, Note_on_c, 1, 43, 79
1, 87120, Note_on_c, 0, 62, 0
1, 87120, Note_on_c, 0, 71, 0
1, 87120, Note_on_c, 0, 69, 80
1, 87120, Note_on_c, 1, 43, 0
1, 87120, Note_on_c, 1, 48, 80
1, 87180, Note_on_c, 0, 64, 80
1, 87240, Note_on_c, 0, 69, 0
1, 87240, Note_on_c, 0, 71, 80
1, 87240, Note_on_c, 1, 48, 0
1, 87240, Note_on_c, 1, 47, 80
1, 87300, Note_on_c, 0, 64, 0
1, 87300, Note_on_c, 0, 62, 80
1, 87360, Note_on_c, 0, 71, 0
1, 87360, Note_on_c, 0, 72, 80
1, 87360, Note_on_c, 1, 47, 0
1, 87360, Note_on_c, 1, 45, 80
1, 87420, Note_on_c, 0, 62, 0
1, 87420, Note_on_c, 0, 60, 80
1, 87480, Note_on_c, 0, 72, 0
1, 87480, Note_on_c, 0, 72, 96
1, 87480, Note_on_c, 1, 45, 0
1, 87480, Note_on_c, 1, 48, 96
1, 87540, Note_on_c, 0, 60, 0
1, 87540, Note_on_c, 0, 60, 80
1, 87600, Note_on_c, 0, 72, 0
1, 87600, Note_on_c, 0, 69, 80
1, 87660, Note_on_c, 0, 60, 0
1, 87660, Note_on_c, 0, 60, 80
1, 87720, Note_on_c, 0, 69, 0
1, 87720, Note_on_c, 0, 66, 80
1, 87780, Note_on_c, 0, 60, 0
1, 87780, Note_on_c, 0, 60, 80
1, 87840, Note_on_c, 0, 60, 0
1, 87840, Note_on_c, 0, 66, 0
1, 87840, Note_on_c, 0, 69, 80
1, 87840, Note_on_c, 0, 60, 80
1, 87840, Note_on_c, 1, 48, 0
1, 87840, Note_on_c, 1, 43, 80
1, 87900, Note_on_c, 1, 43, 0
1, 87900, Note_on_c, 1, 54, 79
1, 87960, Note_on_c, 1, 54, 0
1, 87960, Note_on_c, 1, 55, 77
1, 88020, Note_on_c, 1, 55, 0
1, 88020, Note_on_c, 1, 54, 76
1, 88080, Note_on_c, 1, 54, 0
1, 88080, Note_on_c, 1, 55, 75
1, 88140, Note_on_c, 1, 55, 0
1, 88140, Note_on_c, 1, 54, 73
1, 88200, Note_on_c, 0, 60, 0
1, 88200, Note_on_c, 0, 69, 0
1, 88200, Note_on_c, 0, 67, 72
1, 88200, Note_on_c, 0, 59, 72
1, 88200, Note_on_c, 1, 54, 0
1, 88200, Note_on_c, 1, 55, 72
1, 88320, Note_on_c, 0, 59, 0
1, 88320, Note_on_c, 0, 67, 0
1, 88320, Note_on_c, 1, 55, 0
1, 88440, Note_on_c, 0, 74, 64
1, 88476, Note_on_c, 0, 74, 0
1, 88560, Note_on_c, 0, 74, 64
1, 88596, Note_on_c, 0, 74, 0
1, 88680, Note_on_c, 1, 58, 64
1, 88680, Note_on_c, 1, 55, 64
1, 88716, Note_on_c, 1, 55, 0
1, 88716, Note_on_c, 1, 58, 0
1, 88800, Note_on_c, 0, 74, 64
1, 88860, Note_on_c, 0, 74, 0
1, 88860, Note_on_c, 0, 75, 64
1, 88920, Note_on_c, 0, 75, 0
1, 88920, Note_on_c, 0, 75, 64
1, 88956, Note_on_c, 0, 75, 0
1, 89040, Note_on_c, 1, 60, 64
1, 89040, Note_on_c, 1, 55, 64
1, 89076, Note_on_c, 1, 55, 0
1, 89076, Note_on_c, 1, 60, 0
1, 89160, Note_on_c, 0, 79, 64
1, 89220, Note_on_c, 0, 79, 0
1, 89220, Note_on_c, 0, 78, 64
1, 89280, Note_on_c, 0, 78, 0
1, 89280, Note_on_c, 0, 78, 64
1, 89316, Note_on_c, 0, 78, 0
1, 89400, Note_on_c, 1, 60, 64
1, 89400, Note_on_c, 1, 55, 64
1, 89436, Note_on_c, 1, 55, 0
1, 89436, Note_on_c, 1, 60, 0
1, 89520, Note_on_c, 0, 82, 64
1, 89580, Note_on_c, 0, 82, 0
1, 89580, Note_on_c, 0, 78, 64
1, 89640, Note_on_c, 0, 78, 0
1, 89640, Note_on_c, 0, 79, 64
1, 89676, Note_on_c, 0, 79, 0
1, 89760, Note_on_c, 1, 55, 64
1, 89760, Note_on_c, 1, 58, 64
1, 89796, Note_on_c, 1, 58, 0
1, 89796, Note_on_c, 1, 55, 0
1, 89880, Note_on_c, 0, 82, 80
1, 89940, Note_on_c, 0, 82, 0
1, 89940, Note_on_c, 0, 81, 80
1, 90000, Note_on_c, 0, 81, 0
1, 90000, Note_on_c, 0, 84, 80
1, 90180, Note_on_c, 0, 84, 0
1, 90180, Note_on_c, 0, 82, 80
1, 90240, Note_on_c, 0, 82, 0
1, 90240, Note_on_c, 0, 81, 80
1, 90270, Note_on_c, 0, 81, 0
1, 90270, Note_on_c, 0, 79, 80
1, 90300, Note_on_c, 0, 79, 0
1, 90300, Note_on_c, 0, 77, 80
1, 90330, Note_on_c, 0, 77, 0
1, 90330, Note_on_c, 0, 76, 80
1, 90345, Note_on_c, 0, 76, 0
1, 90345, Note_on_c, 0, 74, 80
1, 90360, Note_on_c, 1, 67, 96
1, 90360, Note_on_c, 1, 70, 96
1, 90360, Note_on_c, 1, 73, 96
1, 90420, Note_on_c, 0, 74, 0
1, 90480, Note_on_c, 0, 88, 96
1, 90480, Note_on_c, 0, 85, 96
1, 90480, Note_on_c, 0, 82, 96
1, 90480, Note_on_c, 0, 79, 96
1, 90720, Note_on_c, 0, 79, 0
1, 90720, Note_on_c, 0, 88, 0
1, 90720, Note_on_c, 0, 85, 0
1, 90720, Note_on_c, 0, 82, 0
1, 90720, Note_on_c, 1, 73, 0
1, 90720, Note_on_c, 1, 70, 0
1, 90720, Note_on_c, 1, 67, 0
1, 90720, Note_on_c, 1, 65, 80
1, 90720, Note_on_c, 1, 69, 80
1, 90750, Note_on_c, 0, 77, 80
1, 90780, Note_on_c, 0, 77, 0
1, 90780, Note_on_c, 0, 81, 80
1, 90810, Note_on_c, 0, 81, 0
1, 90810, Note_on_c, 0, 85, 80
1, 90840, Note_on_c, 0, 85, 0
1, 90840, Note_on_c, 0, 86, 80
1, 90870, Note_on_c, 0, 86, 0
1, 90870, Note_on_c, 0, 81, 80
1, 90900, Note_on_c, 0, 81, 0
1, 90900, Note_on_c, 0, 85, 80
1, 90930, Note_on_c, 0, 85, 0
1, 90930, Note_on_c, 0, 86, 80
1, 90960, Note_on_c, 0, 86, 0
1, 90960, Note_on_c, 0, 88, 80
1, 90960, Note_on_c, 1, 69, 0
1, 90960, Note_on_c, 1, 65, 0
1, 90960, Note_on_c, 1, 64, 80
1, 90960, Note_on_c, 1, 67, 80
1, 90990, Note_on_c, 0, 88, 0
1, 90990, Note_on_c, 0, 81, 80
1, 91020, Note_on_c, 0, 81, 0
1, 91020, Note_on_c, 0, 86, 80
1, 91050, Note_on_c, 0, 86, 0
1, 91050, Note_on_c, 0, 88, 80
1, 91080, Note_on_c, 0, 88, 0
1, 91080, Note_on_c, 0, 89, 80
1, 91080, Note_on_c, 1, 67, 0
1, 91080, Note_on_c, 1, 64, 0
1, 91080, Note_on_c, 1, 62, 80
1, 91080, Note_on_c, 1, 65, 80
1, 91116, Note_on_c, 0, 89, 0
1, 91116, Note_on_c, 1, 65, 0
1, 91116, Note_on_c, 1, 62, 0
1, 91200, Note_on_c, 0, 74, 96
1, 91200, Note_on_c, 0, 77, 96
1, 91200, Note_on_c, 0, 83, 96
1, 91200, Note_on_c, 1, 68, 96
1, 91200, Note_on_c, 1, 71, 96
1, 91320, Note_on_c, 1, 71, 0
1, 91320, Note_on_c, 1, 68, 0
1, 91440, Note_on_c, 0, 83, 0
1, 91440, Note_on_c, 0, 77, 0
1, 91440, Note_on_c, 0, 74, 0
1, 91440, Note_on_c, 1, 57, 80
1, 91440, Note_on_c, 1, 62, 80
1, 91440, Note_on_c, 1, 65, 80
1, 91560, Note_on_c, 0, 69, 96
1, 91560, Note_on_c, 0, 81, 96
1, 91680, Note_on_c, 0, 81, 0
1, 91680, Note_on_c, 0, 69, 0
1, 91680, Note_on_c, 0, 77, 80
1, 91740, Note_on_c, 0, 77, 0
1, 91740, Note_on_c, 0, 74, 80
1, 91800, Note_on_c, 0, 74, 0
1, 91800, Note_on_c, 1, 65, 0
1, 91800, Note_on_c, 1, 62, 0
1, 91800, Note_on_c, 1, 57, 0
1, 91800, Note_on_c, 1, 57, 80
1, 91800, Note_on_c, 1, 64, 80
1, 91800, Note_on_c, 1, 67, 80
1, 91920, Note_on_c, 0, 69, 96
1, 91920, Note_on_c, 0, 79, 96
1, 92040, Note_on_c, 0, 79, 0
1, 92040, Note_on_c, 0, 69, 0
1, 92040, Note_on_c, 0, 76, 80
1, 92100, Note_on_c, 0, 76, 0
1, 92100, Note_on_c, 0, 73, 80
1, 92160, Note_on_c, 0, 73, 0
1, 92160, Note_on_c, 0, 73, 72
1, 92160, Note_on_c, 1, 67, 0
1, 92160, Note_on_c, 1, 64, 0
1, 92160, Note_on_c, 1, 57, 0
1, 92400, Note_on_c, 0, 73, 0
1, 92400, Note_on_c, 0, 74, 56
1, 92400, Note_on_c, 1, 50, 56
1, 92400, Note_on_c, 1, 62, 56
1, 92436, Note_on_c, 0, 74, 0
1, 92436, Note_on_c, 1, 62, 0
1, 92436, Note_on_c, 1, 50, 0
1, 92520, Note_on_c, 0, 74, 56
1, 92520, Note_on_c, 1, 50, 56
1, 92520, Note_on_c, 1, 62, 56
1, 92580, Note_on_c, 0, 74, 0
1, 92580, Note_on_c, 1, 62, 0
1, 92580, Note_on_c, 1, 50, 0
1, 92760, Note_on_c, 0, 74, 64
1, 92796, Note_on_c, 0, 74, 0
1, 92880, Note_on_c, 0, 74, 64
1, 92916, Note_on_c, 0, 74, 0
1, 93000, Note_on_c, 1, 55, 64
1, 93000, Note_on_c, 1, 58, 64
1, 93036, Note_on_c, 1, 58, 0
1, 93036, Note_on_c, 1, 55, 0
1, 93120, Note_on_c, 0, 74, 64
1, 93180, Note_on_c, 0, 74, 0
1, 93180, Note_on_c, 0, 75, 64
1, 93240, Note_on_c, 0, 75, 0
1, 93240, Note_on_c, 0, 75, 64
1, 93276, Note_on_c, 0, 75, 0
1, 93360, Note_on_c, 1, 55, 64
1, 93360, Note_on_c, 1, 60, 64
1, 93396, Note_on_c, 1, 60, 0
1, 93396, Note_on_c, 1, 55, 0
1, 93480, Note_on_c, 0, 79, 64
1, 93540, Note_on_c, 0, 79, 0
1, 93540, Note_on_c, 0, 78, 64
1, 93600, Note_on_c, 0, 78, 0
1, 93600, Note_on_c, 0, 78, 64
1, 93636, Note_on_c, 0, 78, 0
1, 93720, Note_on_c, 1, 55, 64
1, 93720, Note_on_c, 1, 60, 64
1, 93756, Note_on_c, 1, 60, 0
1, 93756, Note_on_c, 1, 55, 0
1, 93840, Note_on_c, 0, 82, 64
1, 93900, Note_on_c, 0, 82, 0
1, 93900, Note_on_c, 0, 78, 64
1, 93960, Note_on_c, 0, 78, 0
1, 93960, Note_on_c, 0, 79, 64
1, 93996, Note_on_c, 0, 79, 0
1, 94080, Note_on_c, 1, 58, 64
1, 94080, Note_on_c, 1, 55, 64
1, 94116, Note_on_c, 1, 55, 0
1, 94116, Note_on_c, 1, 58, 0
1, 94200, Note_on_c, 0, 82, 80
1, 94260, Note_on_c, 0, 82, 0
1, 94260, Note_on_c, 0, 81, 80
1, 94320, Note_on_c, 0, 81, 0
1, 94320, Note_on_c, 0, 84, 80
1, 94500, Note_on_c, 0, 84, 0
1, 94500, Note_on_c, 0, 82, 80
1, 94560, Note_on_c, 0, 82, 0
1, 94560, Note_on_c, 0, 81, 80
1, 94590, Note_on_c, 0, 81, 0
1, 94590, Note_on_c, 0, 79, 80
1, 94620, Note_on_c, 0, 79, 0
1, 94620, Note_on_c, 0, 77, 80
1, 94650, Note_on_c, 0, 77, 0
1, 94650, Note_on_c, 0, 76, 80
1, 94665, Note_on_c, 0, 76, 0
1, 94665, Note_on_c, 0, 74, 80
1, 94680, Note_on_c, 1, 73, 96
1, 94680, Note_on_c, 1, 70, 96
1, 94680, Note_on_c, 1, 67, 96
1, 94740, Note_on_c, 0, 74, 0
1, 94800, Note_on_c, 0, 79, 96
1, 94800, Note_on_c, 0, 82, 96
1, 94800, Note_on_c, 0, 85, 96
1, 94800, Note_on_c, 0, 88, 96
1, 95040, Note_on_c, 0, 88, 0
1, 95040, Note_on_c, 0, 79, 0
1, 95040, Note_on_c, 0, 82, 0
1, 95040, Note_on_c, 0, 85, 0
1, 95040, Note_on_c, 1, 67, 0
1, 95040, Note_on_c, 1, 70, 0
1, 95040, Note_on_c, 1, 73, 0
1, 95040, Note_on_c, 1, 69, 80
1, 95040, Note_on_c, 1, 65, 80
1, 95070, Note_on_c, 0, 77, 80
1, 95100, Note_on_c, 0, 77, 0
1, 95100, Note_on_c, 0, 81, 80
1, 95130, Note_on_c, 0, 81, 0
1, 95130, Note_on_c, 0, 85, 80
1, 95160, Note_on_c, 0, 85, 0
1, 95160, Note_on_c, 0, 86, 80
1, 95190, Note_on_c, 0, 86, 0
1, 95190, Note_on_c, 0, 81, 80
1, 95220, Note_on_c, 0, 81, 0
1, 95220, Note_on_c, 0, 85, 80
1, 95250, Note_on_c, 0, 85, 0
1, 95250, Note_on_c, 0, 86, 80
1, 95280, Note_on_c, 0, 86, 0
1, 95280, Note_on_c, 0, 88, 80
1, 95280, Note_on_c, 1, 65, 0
1, 95280, Note_on_c, 1, 69, 0
1, 95280, Note_on_c, 1, 67, 80
1, 95280, Note_on_c, 1, 64, 80
1, 95310, Note_on_c, 0, 88, 0
1, 95310, Note_on_c, 0, 81, 80
1, 95340, Note_on_c, 0, 81, 0
1, 95340, Note_on_c, 0, 86, 80
1, 95370, Note_on_c, 0, 86, 0
1, 95370, Note_on_c, 0, 88, 80
1, 95400, Note_on_c, 0, 88, 0
1, 95400, Note_on_c, 0, 89, 80
1, 95400, Note_on_c, 1, 64, 0
1, 95400, Note_on_c, 1, 67, 0
1, 95400, Note_on_c, 1, 65, 80
1, 95400, Note_on_c, 1, 62, 80
1, 95436, Note_on_c, 0, 89, 0
1, 95436, Note_on_c, 1, 62, 0
1, 95436, Note_on_c, 1, 65, 0
1, 95520, Note_on_c, 0, 83, 96
1, 95520, Note_on_c, 0, 77, 96
1, 95520, Note_on_c, 0, 74, 96
1, 95520, Note_on_c, 1, 71, 96
1, 95520, Note_on_c, 1, 68, 96
1, 95640, Note_on_c, 1, 68, 0
1, 95640, Note_on_c, 1, 71, 0
1, 95760, Note_on_c, 0, 74, 0
1, 95760, Note_on_c, 0, 77, 0
1, 95760, Note_on_c, 0, 83, 0
1, 95760, Note_on_c, 1, 65, 80
1, 95760, Note_on_c, 1, 62, 80
1, 95760, Note_on_c, 1, 57, 80
1, 95880, Note_on_c, 0, 81, 96
1, 95880, Note_on_c, 0, 69, 96
1, 96000, Note_on_c, 0, 69, 0
1, 96000, Note_on_c, 0, 81, 0
1, 96000, Note_on_c, 0, 77, 80
1, 96060, Note_on_c, 0, 77, 0
1, 96060, Note_on_c, 0, 74, 80
1, 96120, Note_on_c, 0, 74, 0
1, 96120, Note_on_c, 1, 57, 0
1, 96120, Note_on_c, 1, 62, 0
1, 96120, Note_on_c, 1, 65, 0
1, 96120, Note_on_c, 1, 67, 80
1, 96120, Note_on_c, 1, 64, 80
1, 96120, Note_on_c, 1, 57, 80
1, 96240, Note_on_c, 0, 79, 96
1, 96240, Note_on_c, 0, 69, 96
1, 96360, Note_on_c, 0, 69, 0
1, 96360, Note_on_c, 0, 79, 0
1, 96360, Note_on_c, 0, 76, 80
1, 96420, Note_on_c, 0, 76, 0
1, 96420, Note_on_c, 0, 73, 80
1, 96480, Note_on_c, 0, 73, 0
1, 96480, Note_on_c, 0, 73, 72
1, 96480, Note_on_c, 1, 57, 0
1, 96480, Note_on_c, 1, 64, 0
1, 96480, Note_on_c, 1, 67, 0
1, 96720, Note_on_c, 0, 73, 0
1, 96720, Note_on_c, 0, 74, 56
1, 96720, Note_on_c, 1, 62, 56
1, 96720, Note_on_c, 1, 50, 56
1, 96756, Note_on_c, 0, 74, 0
1, 96756, Note_on_c, 1, 50, 0
1, 96756, Note_on_c, 1, 62, 0
1, 96840, Note_on_c, 0, 74, 56
1, 96840, Note_on_c, 1, 62, 56
1, 96840, Note_on_c, 1, 50, 56
1, 96900, Note_on_c, 0, 74, 0
1, 96900, Note_on_c, 1, 50, 0
1, 96900, Note_on_c, 1, 62, 0
1, 97080, Note_on_c, 0, 74, 64
1, 97116, Note_on_c, 0, 74, 0
1, 97200, Note_on_c, 0, 74, 64
1, 97236, Note_on_c, 0, 74, 0
1, 97320, Note_on_c, 1, 62, 64
1, 97320, Note_on_c, 1, 58, 64
1, 97356, Note_on_c, 1, 58, 0
1, 97356, Note_on_c, 1, 62, 0
1, 97440, Note_on_c, 0, 67, 64
1, 97560, Note_on_c, 0, 67, 0
1, 97560, Note_on_c, 0, 72, 64
1, 97596, Note_on_c, 0, 72, 0
1, 97680, Note_on_c, 1, 63, 64
1, 97680, Note_on_c, 1, 57, 64
1, 97716, Note_on_c, 1, 57, 0
1, 97716, Note_on_c, 1, 63, 0
1, 97800, Note_on_c, 0, 66, 64
1, 97920, Note_on_c, 0, 66, 0
1, 97920, Note_on_c, 0, 70, 64
1, 97956, Note_on_c, 0, 70, 0
1, 98040, Note_on_c, 1, 58, 64
1, 98040, Note_on_c, 1, 55, 64
1, 98076, Note_on_c, 1, 55, 0
1, 98076, Note_on_c, 1, 58, 0
1, 98160, Note_on_c, 0, 61, 64
1, 98280, Note_on_c, 0, 61, 0
1, 98280, Note_on_c, 0, 62, 64
1, 98316, Note_on_c, 0, 62, 0
1, 98400, Note_on_c, 1, 38, 64
1, 98400, Note_on_c, 1, 50, 64
1, 98436, Note_on_c, 1, 50, 0
1, 98436, Note_on_c, 1, 38, 0
1, 98520, Note_on_c, 0, 67, 80
1, 98520, Note_on_c, 1, 62, 80
1, 98520, Note_on_c, 1, 58, 80
1, 98580, Note_on_c, 0, 67, 0
1, 98580, Note_on_c, 0, 79, 80
1, 98640, Note_on_c, 0, 79, 0
1, 98640, Note_on_c, 0, 69, 64
1, 98640, Note_on_c, 1, 58, 0
1, 98640, Note_on_c, 1, 62, 0
1, 98640, Note_on_c, 1, 60, 64
1, 98640, Note_on_c, 1, 63, 64
1, 98700, Note_on_c, 0, 69, 0
1, 98700, Note_on_c, 0, 79, 64
1, 98760, Note_on_c, 0, 79, 0
1, 98760, Note_on_c, 0, 78, 64
1, 98820, Note_on_c, 0, 78, 0
1, 98820, Note_on_c, 0, 69, 64
1, 98880, Note_on_c, 0, 69, 0
1, 98880, Note_on_c, 0, 67, 80
1, 98880, Note_on_c, 1, 63, 0
1, 98880, Note_on_c, 1, 60, 0
1, 98880, Note_on_c, 1, 62, 80
1, 98880, Note_on_c, 1, 58, 80
1, 98940, Note_on_c, 0, 67, 0
1, 98940, Note_on_c, 0, 79, 80
1, 99000, Note_on_c, 0, 79, 0
1, 99000, Note_on_c, 0, 69, 64
1, 99000, Note_on_c, 1, 58, 0
1, 99000, Note_on_c, 1, 62, 0
1, 99000, Note_on_c, 1, 60, 64
1, 99000, Note_on_c, 1, 63, 64
1, 99060, Note_on_c, 0, 69, 0
1, 99060, Note_on_c, 0, 79, 64
1, 99120, Note_on_c, 0, 79, 0
1, 99120, Note_on_c, 0, 78, 64
1, 99180, Note_on_c, 0, 78, 0
1, 99180, Note_on_c, 0, 69, 64
1, 99240, Note_on_c, 0, 69, 0
1, 99240, Note_on_c, 0, 67, 80
1, 99240, Note_on_c, 1, 63, 0
1, 99240, Note_on_c, 1, 60, 0
1, 99240, Note_on_c, 1, 58, 80
1, 99240, Note_on_c, 1, 62, 80
1, 99300, Note_on_c, 0, 67, 0
1, 99300, Note_on_c, 0, 79, 80
1, 99360, Note_on_c, 0, 79, 0
1, 99360, Note_on_c, 0, 75, 96
1, 99360, Note_on_c, 1, 62, 0
1, 99360, Note_on_c, 1, 58, 0
1, 99360, Note_on_c, 1, 54, 96
1, 99360, Note_on_c, 1, 60, 96
1, 99420, Note_on_c, 0, 75, 0
1, 99420, Note_on_c, 0, 87, 80
1, 99480, Note_on_c, 0, 87, 0
1, 99480, Note_on_c, 0, 74, 80
1, 99480, Note_on_c, 1, 60, 0
1, 99480, Note_on_c, 1, 62, 80
1, 99540, Note_on_c, 0, 74, 0
1, 99540, Note_on_c, 0, 86, 80
1, 99600, Note_on_c, 0, 86, 0
1, 99600, Note_on_c, 0, 72, 80
1, 99600, Note_on_c, 1, 62, 0
1, 99600, Note_on_c, 1, 63, 80
1, 99660, Note_on_c, 0, 72, 0
1, 99660, Note_on_c, 0, 84, 80
1, 99720, Note_on_c, 1, 63, 0
1, 99720, Note_on_c, 1, 54, 0
1, 99720, Note_on_c, 1, 62, 80
1, 99720, Note_on_c, 1, 55, 80
1, 99780, Note_on_c, 0, 84, 0
1, 99780, Note_on_c, 0, 82, 80
1, 99840, Note_on_c, 0, 82, 0
1, 99840, Note_on_c, 0, 81, 80
1, 99840, Note_on_c, 1, 55, 0
1, 99840, Note_on_c, 1, 57, 80
1, 99900, Note_on_c, 0, 81, 0
1, 99900, Note_on_c, 0, 79, 80
1, 99960, Note_on_c, 0, 79, 0
1, 99960, Note_on_c, 0, 78, 80
1, 99960, Note_on_c, 1, 57, 0
1, 99960, Note_on_c, 1, 58, 80
1, 100020, Note_on_c, 0, 78, 0
1, 100020, Note_on_c, 0, 79, 80
1, 100080, Note_on_c, 0, 79, 0
1, 100080, Note_on_c, 0, 77, 80
1, 100080, Note_on_c, 1, 58, 0
1, 100080, Note_on_c, 1, 62, 0
1, 100080, Note_on_c, 1, 60, 80
1, 100080, Note_on_c, 1, 63, 80
1, 100140, Note_on_c, 0, 77, 0
1, 100140, Note_on_c, 0, 75, 79
1, 100200, Note_on_c, 0, 75, 0
1, 100200, Note_on_c, 0, 74, 77
1, 100260, Note_on_c, 0, 74, 0
1, 100260, Note_on_c, 0, 72, 76
1, 100320, Note_on_c, 0, 72, 0
1, 100320, Note_on_c, 0, 70, 75
1, 100380, Note_on_c, 0, 70, 0
1, 100380, Note_on_c, 0, 69, 73
1, 100440, Note_on_c, 0, 69, 0
1, 100440, Note_on_c, 0, 67, 72
1, 100440, Note_on_c, 1, 63, 0
1, 100440, Note_on_c, 1, 60, 0
1, 100440, Note_on_c, 1, 50, 72
1, 100440, Note_on_c, 1, 58, 72
1, 100620, Note_on_c, 0, 67, 0
1, 100620, Note_on_c, 0, 69, 68
1, 100680, Note_on_c, 0, 69, 0
1, 100680, Note_on_c, 0, 66, 67
1, 100680, Note_on_c, 1, 58, 0
1, 100680, Note_on_c, 1, 57, 67
1, 100800, Note_on_c, 0, 66, 0
1, 100800, Note_on_c, 1, 57, 0
1, 100800, Note_on_c, 1, 50, 0
1, 101040, Note_on_c, 0, 67, 48
1, 101040, Note_on_c, 1, 43, 48
1, 101040, Note_on_c, 1, 55, 48
1, 101076, Note_on_c, 0, 67, 0
1, 101076, Note_on_c, 1, 55, 0
1, 101076, Note_on_c, 1, 43, 0
1, 101160, Note_on_c, 0, 67, 48
1, 101160, Note_on_c, 1, 43, 48
1, 101160, Note_on_c, 1, 55, 48
1, 101196, Note_on_c, 0, 67, 0
1, 101196, Note_on_c, 1, 55, 0
1, 101196, Note_on_c, 1, 43, 0
1, 101400, Note_on_c, 0, 74, 64
1, 101436, Note_on_c, 0, 74, 0
1, 101520, Note_on_c, 0, 74, 64
1, 101556, Note_on_c, 0, 74, 0
1, 101640, Note_on_c, 1, 58, 64
1, 101640, Note_on_c, 1, 62, 64
1, 101676, Note_on_c, 1, 62, 0
1, 101676, Note_on_c, 1, 58, 0
1, 101760, Note_on_c, 0, 67, 64
1, 101880, Note_on_c, 0, 67, 0
1, 101880, Note_on_c, 0, 72, 64
1, 101916, Note_on_c, 0, 72, 0
1, 102000, Note_on_c, 1, 57, 64
1, 102000, Note_on_c, 1, 63, 64
1, 102036, Note_on_c, 1, 63, 0
1, 102036, Note_on_c, 1, 57, 0
1, 102120, Note_on_c, 0, 66, 64
1, 102240, Note_on_c, 0, 66, 0
1, 102240, Note_on_c, 0, 70, 64
1, 102276, Note_on_c, 0, 70, 0
1, 102360, Note_on_c, 1, 55, 64
1, 102360, Note_on_c, 1, 58, 64
1, 102396, Note_on_c, 1, 58, 0
1, 102396, Note_on_c, 1, 55, 0
1, 102480, Note_on_c, 0, 61, 64
1, 102600, Note_on_c, 0, 61, 0
1, 102600, Note_on_c, 0, 62, 64
1, 102636, Note_on_c, 0, 62, 0
1, 102720, Note_on_c, 1, 50, 64
1, 102720, Note_on_c, 1, 38, 64
1, 102756, Note_on_c, 1, 38, 0
1, 102756, Note_on_c, 1, 50, 0
1, 102840, Note_on_c, 0, 67, 80
1, 102840, Note_on_c, 1, 58, 80
1, 102840, Note_on_c, 1, 62, 80
1, 102900, Note_on_c, 0, 67, 0
1, 102900, Note_on_c, 0, 79, 80
1, 102960, Note_on_c, 0, 79, 0
1, 102960, Note_on_c, 0, 69, 64
1, 102960, Note_on_c, 1, 62, 0
1, 102960, Note_on_c, 1, 58, 0
1, 102960, Note_on_c, 1, 63, 64
1, 102960, Note_on_c, 1, 60, 64
1, 103020, Note_on_c, 0, 69, 0
1, 103020, Note_on_c, 0, 79, 64
1, 103080, Note_on_c, 0, 79, 0
1, 103080, Note_on_c, 0, 78, 64
1, 103140, Note_on_c, 0, 78, 0
1, 103140, Note_on_c, 0, 69, 64
1, 103200, Note_on_c, 0, 69, 0
1, 103200, Note_on_c, 0, 67, 80
1, 103200, Note_on_c, 1, 60, 0
1, 103200, Note_on_c, 1, 63, 0
1, 103200, Note_on_c, 1, 58, 80
1, 103200, Note_on_c, 1, 62, 80
1, 103260, Note_on_c, 0, 67, 0
1, 103260, Note_on_c, 0, 79, 80
1, 103320, Note_on_c, 0, 79, 0
1, 103320, Note_on_c, 0, 69, 64
1, 103320, Note_on_c, 1, 62, 0
1, 103320, Note_on_c, 1, 58, 0
1, 103320, Note_on_c, 1, 63, 64
1, 103320, Note_on_c, 1, 60, 64
1, 103380, Note_on_c, 0, 69, 0
1, 103380, Note_on_c, 0, 79, 64
1, 103440, Note_on_c, 0, 79, 0
1, 103440, Note_on_c, 0, 78, 64
1, 103500, Note_on_c, 0, 78, 0
1, 103500, Note_on_c, 0, 69, 64
1, 103560, Note_on_c, 0, 69, 0
1, 103560, Note_on_c, 0, 67, 80
1, 103560, Note_on_c, 1, 60, 0
1, 103560, Note_on_c, 1, 63, 0
1, 103560, Note_on_c, 1, 62, 80
1, 103560, Note_on_c, 1, 58, 80
1, 103620, Note_on_c, 0, 67, 0
1, 103620, Note_on_c, 0, 79, 80
1, 103680, Note_on_c, 0, 79, 0
1, 103680, Note_on_c, 0, 75, 96
1, 103680, Note_on_c, 1, 58, 0
1, 103680, Note_on_c, 1, 62, 0
1, 103680, Note_on_c, 1, 60, 96
1, 103680, Note_on_c, 1, 54, 96
1, 103740, Note_on_c, 0, 75, 0
1, 103740, Note_on_c, 0, 87, 80
1, 103800, Note_on_c, 0, 87, 0
1, 103800, Note_on_c, 0, 74, 80
1, 103800, Note_on_c, 1, 60, 0
1, 103800, Note_on_c, 1, 62, 80
1, 103860, Note_on_c, 0, 74, 0
1, 103860, Note_on_c, 0, 86, 80
1, 103920, Note_on_c, 0, 86, 0
1, 103920, Note_on_c, 0, 72, 80
1, 103920, Note_on_c, 1, 62, 0
1, 103920, Note_on_c, 1, 63, 80
1, 103980, Note_on_c, 0, 72, 0
1, 103980, Note_on_c, 0, 84, 80
1, 104040, Note_on_c, 1, 63, 0
1, 104040, Note_on_c, 1, 54, 0
1, 104040, Note_on_c, 1, 55, 80
1, 104040, Note_on_c, 1, 62, 80
1, 104100, Note_on_c, 0, 84, 0
1, 104100, Note_on_c, 0, 82, 80
1, 104160, Note_on_c, 0, 82, 0
1, 104160, Note_on_c, 0, 81, 80
1, 104160, Note_on_c, 1, 55, 0
1, 104160, Note_on_c, 1, 57, 80
1, 104220, Note_on_c, 0, 81, 0
1, 104220, Note_on_c, 0, 79, 80
1, 104280, Note_on_c, 0, 79, 0
1, 104280, Note_on_c, 0, 78, 80
1, 104280, Note_on_c, 1, 57, 0
1, 104280, Note_on_c, 1, 58, 80
1, 104340, Note_on_c, 0, 78, 0
1, 104340, Note_on_c, 0, 79, 80
1, 104400, Note_on_c, 0, 79, 0
1, 104400, Note_on_c, 0, 77, 80
1, 104400, Note_on_c, 1, 58, 0
1, 104400, Note_on_c, 1, 62, 0
1, 104400, Note_on_c, 1, 63, 80
1, 104400, Note_on_c, 1, 60, 80
1, 104460, Note_on_c, 0, 77, 0
1, 104460, Note_on_c, 0, 75, 79
1, 104520, Note_on_c, 0, 75, 0
1, 104520, Note_on_c, 0, 74, 77
1, 104580, Note_on_c, 0, 74, 0
1, 104580, Note_on_c, 0, 72, 76
1, 104640, Note_on_c, 0, 72, 0
1, 104640, Note_on_c, 0, 70, 75
1, 104700, Note_on_c, 0, 70, 0
1, 104700, Note_on_c, 0, 69, 73
1, 104760, Note_on_c, 0, 69, 0
1, 104760, Note_on_c, 0, 67, 72
1, 104760, Note_on_c, 1, 60, 0
1, 104760, Note_on_c, 1, 63, 0
1, 104760, Note_on_c, 1, 58, 72
1, 104760, Note_on_c, 1, 50, 72
1, 104940, Note_on_c, 0, 67, 0
1, 104940, Note_on_c, 0, 69, 68
1, 105000, Note_on_c, 0, 69, 0
1, 105000, Note_on_c, 0, 66, 67
1, 105000, Note_on_c, 1, 58, 0
1, 105000, Note_on_c, 1, 57, 67
1, 105120, Note_on_c, 0, 66, 0
1, 105120, Note_on_c, 1, 57, 0
1, 105120, Note_on_c, 1, 50, 0
1, 105360, Note_on_c, 0, 67, 48
1, 105360, Note_on_c, 1, 55, 48
1, 105360, Note_on_c, 1, 43, 48
1, 105396, Note_on_c, 0, 67, 0
1, 105396, Note_on_c, 1, 43, 0
1, 105396, Note_on_c, 1, 55, 0
1, 105480, Note_on_c, 0, 67, 48
1, 105480, Note_on_c, 1, 55, 48
1, 105480, Note_on_c, 1, 43, 48
1, 105516, Note_on_c, 0, 67, 0
1, 105516, Note_on_c, 1, 43, 0
1, 105516, Note_on_c, 1, 55, 0
1, 105720, Note_on_c, 0, 67, 64
1, 105720, Note_on_c, 1, 59, 64
1, 105720, Note_on_c, 1, 55, 64
1, 105804, Note_on_c, 0, 67, 0
1, 105804, Note_on_c, 1, 55, 0
1, 105804, Note_on_c, 1, 59, 0
1, 105840, Note_on_c, 0, 67, 64
1, 105840, Note_on_c, 1, 55, 64
1, 105840, Note_on_c, 1, 59, 64
1, 106020, Note_on_c, 0, 67, 0
1, 106020, Note_on_c, 0, 71, 64
1, 106080, Note_on_c, 0, 71, 0
1, 106080, Note_on_c, 0, 69, 64
1, 106080, Note_on_c, 1, 59, 0
1, 106080, Note_on_c, 1, 55, 0
1, 106080, Note_on_c, 1, 55, 64
1, 106080, Note_on_c, 1, 60, 64
1, 106152, Note_on_c, 0, 69, 0
1, 106152, Note_on_c, 1, 60, 0
1, 106152, Note_on_c, 1, 55, 0
1, 106200, Note_on_c, 0, 62, 64
1, 106200, Note_on_c, 1, 55, 64
1, 106200, Note_on_c, 1, 60, 64
1, 106320, Note_on_c, 0, 62, 0
1, 106320, Note_on_c, 0, 66, 64
1, 106380, Note_on_c, 0, 66, 0
1, 106380, Note_on_c, 0, 64, 64
1, 106440, Note_on_c, 0, 64, 0
1, 106440, Note_on_c, 0, 67, 64
1, 106440, Note_on_c, 1, 60, 0
1, 106440, Note_on_c, 1, 55, 0
1, 106440, Note_on_c, 1, 55, 64
1, 106440, Note_on_c, 1, 60, 64
1, 106500, Note_on_c, 0, 67, 0
1, 106500, Note_on_c, 0, 66, 64
1, 106560, Note_on_c, 0, 66, 0
1, 106560, Note_on_c, 0, 69, 64
1, 106560, Note_on_c, 1, 60, 0
1, 106560, Note_on_c, 1, 55, 0
1, 106560, Note_on_c, 1, 55, 64
1, 106560, Note_on_c, 1, 59, 64
1, 106620, Note_on_c, 0, 69, 0
1, 106620, Note_on_c, 0, 67, 64
1, 106680, Note_on_c, 0, 67, 0
1, 106680, Note_on_c, 0, 72, 64
1, 106740, Note_on_c, 0, 72, 0
1, 106740, Note_on_c, 0, 71, 64
1, 106800, Note_on_c, 0, 71, 0
1, 106800, Note_on_c, 0, 74, 64
1, 106800, Note_on_c, 1, 59, 0
1, 106800, Note_on_c, 1, 55, 0
1, 106800, Note_on_c, 1, 55, 64
1, 106800, Note_on_c, 1, 59, 64
1, 106860, Note_on_c, 0, 74, 0
1, 106860, Note_on_c, 0, 71, 64
1, 106920, Note_on_c, 0, 71, 0
1, 106920, Note_on_c, 0, 67, 64
1, 106920, Note_on_c, 1, 59, 0
1, 106920, Note_on_c, 1, 55, 0
1, 106920, Note_on_c, 1, 55, 64
1, 106920, Note_on_c, 1, 59, 64
1, 107160, Note_on_c, 0, 67, 0
1, 107160, Note_on_c, 0, 62, 80
1, 107160, Note_on_c, 0, 69, 80
1, 107160, Note_on_c, 1, 59, 0
1, 107160, Note_on_c, 1, 55, 0
1, 107160, Note_on_c, 1, 54, 80
1, 107232, Note_on_c, 0, 69, 0
1, 107232, Note_on_c, 0, 62, 0
1, 107232, Note_on_c, 1, 54, 0
1, 107280, Note_on_c, 0, 62, 64
1, 107280, Note_on_c, 0, 70, 64
1, 107280, Note_on_c, 1, 55, 64
1, 107340, Note_on_c, 0, 70, 0
1, 107340, Note_on_c, 0, 71, 64
1, 107340, Note_on_c, 1, 55, 0
1, 107340, Note_on_c, 1, 56, 64
1, 107400, Note_on_c, 0, 71, 0
1, 107400, Note_on_c, 0, 72, 64
1, 107400, Note_on_c, 1, 56, 0
1, 107400, Note_on_c, 1, 57, 64
1, 107460, Note_on_c, 0, 72, 0
1, 107460, Note_on_c, 0, 73, 64
1, 107460, Note_on_c, 1, 57, 0
1, 107460, Note_on_c, 1, 58, 64
1, 107520, Note_on_c, 0, 73, 0
1, 107520, Note_on_c, 0, 74, 64
1, 107520, Note_on_c, 1, 58, 0
1, 107520, Note_on_c, 1, 59, 64
1, 107640, Note_on_c, 0, 74, 0
1, 107640, Note_on_c, 0, 62, 0
1, 107640, Note_on_c, 0, 62, 80
1, 107640, Note_on_c, 0, 66, 80
1, 107640, Note_on_c, 0, 74, 80
1, 107640, Note_on_c, 1, 59, 0
1, 107640, Note_on_c, 1, 57, 80
1, 107760, Note_on_c, 0, 74, 0
1, 107760, Note_on_c, 0, 72, 64
1, 107880, Note_on_c, 0, 72, 0
1, 107880, Note_on_c, 0, 66, 0
1, 107880, Note_on_c, 0, 71, 64
1, 107880, Note_on_c, 1, 57, 0
1, 107880, Note_on_c, 1, 55, 64
1, 107916, Note_on_c, 0, 71, 0
1, 107916, Note_on_c, 0, 62, 0
1, 107916, Note_on_c, 1, 55, 0
1, 108000, Note_on_c, 0, 67, 64
1, 108000, Note_on_c, 0, 71, 64
1, 108000, Note_on_c, 1, 50, 64
1, 108120, Note_on_c, 0, 71, 0
1, 108120, Note_on_c, 0, 67, 0
1, 108120, Note_on_c, 0, 66, 64
1, 108120, Note_on_c, 0, 69, 64
1, 108156, Note_on_c, 0, 69, 0
1, 108156, Note_on_c, 0, 66, 0
1, 108180, Note_on_c, 1, 50, 0
1, 108180, Note_on_c, 1, 52, 64
1, 108210, Note_on_c, 1, 52, 0
1, 108210, Note_on_c, 1, 54, 64
1, 108240, Note_on_c, 0, 66, 64
1, 108240, Note_on_c, 0, 69, 64
1, 108240, Note_on_c, 1, 54, 0
1, 108240, Note_on_c, 1, 55, 64
1, 108270, Note_on_c, 1, 55, 0
1, 108270, Note_on_c, 1, 57, 64
1, 108276, Note_on_c, 0, 69, 0
1, 108276, Note_on_c, 0, 66, 0
1, 108300, Note_on_c, 1, 57, 0
1, 108300, Note_on_c, 1, 59, 64
1, 108330, Note_on_c, 1, 59, 0
1, 108330, Note_on_c, 1, 61, 64
1, 108360, Note_on_c, 0, 66, 64
1, 108360, Note_on_c, 0, 69, 64
1, 108360, Note_on_c, 1, 61, 0
1, 108360, Note_on_c, 1, 62, 64
1, 108396, Note_on_c, 1, 62, 0
1, 108480, Note_on_c, 1, 60, 64
1, 108516, Note_on_c, 1, 60, 0
1, 108600, Note_on_c, 0, 69, 0
1, 108600, Note_on_c, 0, 66, 0
1, 108600, Note_on_c, 0, 68, 80
1, 108600, Note_on_c, 0, 71, 80
1, 108600, Note_on_c, 1, 59, 80
1, 108720, Note_on_c, 0, 71, 0
1, 108720, Note_on_c, 0, 68, 0
1, 108720, Note_on_c, 0, 72, 64
1, 108720, Note_on_c, 1, 59, 0
1, 108720, Note_on_c, 1, 57, 64
1, 108750, Note_on_c, 0, 72, 0
1, 108750, Note_on_c, 0, 69, 64
1, 108780, Note_on_c, 0, 69, 0
1, 108780, Note_on_c, 0, 71, 64
1, 108810, Note_on_c, 0, 71, 0
1, 108810, Note_on_c, 0, 72, 64
1, 108840, Note_on_c, 0, 72, 0
1, 108840, Note_on_c, 0, 74, 64
1, 108870, Note_on_c, 0, 74, 0
1, 108870, Note_on_c, 0, 76, 64
1, 108900, Note_on_c, 0, 76, 0
1, 108900, Note_on_c, 0, 78, 64
1, 108930, Note_on_c, 0, 78, 0
1, 108930, Note_on_c, 0, 80, 64
1, 108960, Note_on_c, 0, 80, 0
1, 108960, Note_on_c, 0, 81, 64
1, 108960, Note_on_c, 1, 57, 0
1, 108960, Note_on_c, 1, 55, 64
1, 108990, Note_on_c, 0, 81, 0
1, 108990, Note_on_c, 0, 83, 64
1, 109020, Note_on_c, 0, 83, 0
1, 109020, Note_on_c, 0, 84, 64
1, 109050, Note_on_c, 0, 84, 0
1, 109050, Note_on_c, 0, 86, 64
1, 109080, Note_on_c, 0, 86, 0
1, 109080, Note_on_c, 0, 84, 64
1, 109080, Note_on_c, 0, 88, 64
1, 109080, Note_on_c, 1, 55, 0
1, 109080, Note_on_c, 1, 54, 64
1, 109200, Note_on_c, 0, 88, 0
1, 109200, Note_on_c, 0, 84, 0
1, 109200, Note_on_c, 0, 83, 64
1, 109200, Note_on_c, 0, 86, 64
1, 109236, Note_on_c, 0, 86, 0
1, 109236, Note_on_c, 0, 83, 0
1, 109320, Note_on_c, 0, 81, 64
1, 109320, Note_on_c, 0, 84, 64
1, 109320, Note_on_c, 1, 62, 64
1, 109350, Note_on_c, 0, 84, 0
1, 109350, Note_on_c, 0, 86, 64
1, 109380, Note_on_c, 0, 86, 0
1, 109380, Note_on_c, 0, 84, 64
1, 109410, Note_on_c, 0, 84, 0
1, 109410, Note_on_c, 0, 83, 64
1, 109440, Note_on_c, 0, 83, 0
1, 109440, Note_on_c, 0, 84, 64
1, 109440, Note_on_c, 1, 54, 0
1, 109440, Note_on_c, 1, 55, 64
1, 109560, Note_on_c, 0, 84, 0
1, 109560, Note_on_c, 0, 81, 0
1, 109560, Note_on_c, 0, 79, 64
1, 109560, Note_on_c, 0, 83, 64
1, 109680, Note_on_c, 0, 83, 0
1, 109680, Note_on_c, 0, 79, 0
1, 109680, Note_on_c, 0, 86, 64
1, 109680, Note_on_c, 1, 62, 0
1, 109680, Note_on_c, 1, 65, 64
1, 109800, Note_on_c, 0, 86, 0
1, 109800, Note_on_c, 0, 88, 64
1, 109800, Note_on_c, 1, 65, 0
1, 109800, Note_on_c, 1, 64, 64
1, 109830, Note_on_c, 0, 88, 0
1, 109830, Note_on_c, 0, 86, 64
1, 109860, Note_on_c, 0, 86, 0
1, 109860, Note_on_c, 0, 84, 64
1, 109920, Note_on_c, 0, 84, 0
1, 109920, Note_on_c, 0, 86, 64
1, 109920, Note_on_c, 1, 64, 0
1, 109920, Note_on_c, 1, 62, 64
1, 109950, Note_on_c, 0, 86, 0
1, 109950, Note_on_c, 0, 84, 64
1, 109980, Note_on_c, 0, 84, 0
1, 109980, Note_on_c, 0, 83, 64
1, 110040, Note_on_c, 0, 83, 0
1, 110040, Note_on_c, 0, 84, 64
1, 110040, Note_on_c, 1, 62, 0
1, 110040, Note_on_c, 1, 60, 64
1, 110070, Note_on_c, 0, 84, 0
1, 110070, Note_on_c, 0, 83, 64
1, 110100, Note_on_c, 0, 83, 0
1, 110100, Note_on_c, 0, 81, 64
1, 110160, Note_on_c, 0, 81, 0
1, 110160, Note_on_c, 0, 83, 64
1, 110160, Note_on_c, 1, 60, 0
1, 110160, Note_on_c, 1, 59, 64
1, 110190, Note_on_c, 0, 83, 0
1, 110190, Note_on_c, 0, 81, 64
1, 110220, Note_on_c, 0, 81, 0
1, 110220, Note_on_c, 0, 79, 63
1, 110280, Note_on_c, 0, 79, 0
1, 110280, Note_on_c, 0, 81, 63
1, 110280, Note_on_c, 1, 59, 0
1, 110280, Note_on_c, 1, 57, 63
1, 110310, Note_on_c, 0, 81, 0
1, 110310, Note_on_c, 0, 79, 62
1, 110340, Note_on_c, 0, 79, 0
1, 110340, Note_on_c, 0, 78, 62
1, 110400, Note_on_c, 1, 57, 0
1, 110400, Note_on_c, 1, 60, 61
1, 110460, Note_on_c, 0, 78, 0
1, 110460, Note_on_c, 0, 81, 61
1, 110520, Note_on_c, 1, 60, 0
1, 110520, Note_on_c, 1, 59, 60
1, 110580, Note_on_c, 0, 81, 0
1, 110580, Note_on_c, 0, 79, 59
1, 110640, Note_on_c, 1, 59, 0
1, 110640, Note_on_c, 1, 67, 59
1, 110700, Note_on_c, 0, 79, 0
1, 110700, Note_on_c, 0, 76, 58
1, 110760, Note_on_c, 1, 55, 0
1, 110760, Note_on_c, 1, 57, 57
1, 110820, Note_on_c, 0, 76, 0
1, 110820, Note_on_c, 0, 73, 57
1, 110880, Note_on_c, 1, 57, 0
1, 110880, Note_on_c, 1, 62, 56
1, 110940, Note_on_c, 0, 73, 0
1, 110940, Note_on_c, 0, 74, 55
1, 111000, Note_on_c, 0, 74, 0
1, 111000, Note_on_c, 0, 76, 55
1, 111000, Note_on_c, 1, 67, 0
1, 111000, Note_on_c, 1, 66, 55
1, 111036, Note_on_c, 1, 66, 0
1, 111060, Note_on_c, 0, 76, 0
1, 111060, Note_on_c, 0, 74, 54
1, 111120, Note_on_c, 0, 74, 0
1, 111120, Note_on_c, 0, 76, 53
1, 111120, Note_on_c, 1, 66, 53
1, 111156, Note_on_c, 1, 66, 0
1, 111180, Note_on_c, 0, 76, 0
1, 111180, Note_on_c, 0, 74, 53
1, 111240, Note_on_c, 0, 74, 0
1, 111240, Note_on_c, 0, 74, 52
1, 111240, Note_on_c, 1, 66, 52
1, 111324, Note_on_c, 0, 74, 0
1, 111324, Note_on_c, 1, 66, 0
1, 111324, Note_on_c, 1, 62, 0
1, 111480, Note_on_c, 0, 67, 64
1, 111480, Note_on_c, 1, 59, 64
1, 111480, Note_on_c, 1, 55, 64
1, 111576, Note_on_c, 0, 67, 0
1, 111576, Note_on_c, 1, 55, 0
1, 111576, Note_on_c, 1, 59, 0
1, 111600, Note_on_c, 0, 67, 64
1, 111600, Note_on_c, 1, 59, 64
1, 111600, Note_on_c, 1, 55, 64
1, 111780, Note_on_c, 0, 67, 0
1, 111780, Note_on_c, 0, 71, 64
1, 111840, Note_on_c, 0, 71, 0
1, 111840, Note_on_c, 0, 69, 64
1, 111840, Note_on_c, 1, 55, 0
1, 111840, Note_on_c, 1, 59, 0
1, 111840, Note_on_c, 1, 60, 64
1, 111840, Note_on_c, 1, 55, 64
1, 111912, Note_on_c, 0, 69, 0
1, 111912, Note_on_c, 1, 55, 0
1, 111912, Note_on_c, 1, 60, 0
1, 111960, Note_on_c, 0, 62, 64
1, 111960, Note_on_c, 1, 60, 64
1, 111960, Note_on_c, 1, 55, 64
1, 112080, Note_on_c, 0, 62, 0
1, 112080, Note_on_c, 0, 66, 64
1, 112140, Note_on_c, 0, 66, 0
1, 112140, Note_on_c, 0, 64, 64
1, 112200, Note_on_c, 0, 64, 0
1, 112200, Note_on_c, 0, 67, 64
1, 112200, Note_on_c, 1, 55, 0
1, 112200, Note_on_c, 1, 60, 0
1, 112200, Note_on_c, 1, 60, 64
1, 112200, Note_on_c, 1, 55, 64
1, 112260, Note_on_c, 0, 67, 0
1, 112260, Note_on_c, 0, 66, 64
1, 112320, Note_on_c, 0, 66, 0
1, 112320, Note_on_c, 0, 69, 64
1, 112320, Note_on_c, 1, 55, 0
1, 112320, Note_on_c, 1, 60, 0
1, 112320, Note_on_c, 1, 59, 64
1, 112320, Note_on_c, 1, 55, 64
1, 112380, Note_on_c, 0, 69, 0
1, 112380, Note_on_c, 0, 67, 64
1, 112440, Note_on_c, 0, 67, 0
1, 112440, Note_on_c, 0, 72, 64
1, 112500, Note_on_c, 0, 72, 0
1, 112500, Note_on_c, 0, 71, 64
1, 112560, Note_on_c, 0, 71, 0
1, 112560, Note_on_c, 0, 74, 64
1, 112560, Note_on_c, 1, 55, 0
1, 112560, Note_on_c, 1, 59, 0
1, 112560, Note_on_c, 1, 59, 64
1, 112560, Note_on_c, 1, 55, 64
1, 112620, Note_on_c, 0, 74, 0
1, 112620, Note_on_c, 0, 71, 64
1, 112680, Note_on_c, 0, 71, 0
1, 112680, Note_on_c, 0, 67, 64
1, 112680, Note_on_c, 1, 55, 0
1, 112680, Note_on_c, 1, 59, 0
1, 112680, Note_on_c, 1, 59, 64
1, 112680, Note_on_c, 1, 55, 64
1, 112920, Note_on_c, 0, 67, 0
1, 112920, Note_on_c, 0, 69, 80
1, 112920, Note_on_c, 0, 62, 80
1, 112920, Note_on_c, 1, 55, 0
1, 112920, Note_on_c, 1, 59, 0
1, 112920, Note_on_c, 1, 54, 80
1, 112992, Note_on_c, 0, 62, 0
1, 112992, Note_on_c, 0, 69, 0
1, 112992, Note_on_c, 1, 54, 0
1, 113040, Note_on_c, 0, 70, 64
1, 113040, Note_on_c, 0, 62, 64
1, 113040, Note_on_c, 1, 55, 64
1, 113100, Note_on_c, 0, 70, 0
1, 113100, Note_on_c, 0, 71, 64
1, 113100, Note_on_c, 1, 55, 0
1, 113100, Note_on_c, 1, 56, 64
1, 113160, Note_on_c, 0, 71, 0
1, 113160, Note_on_c, 0, 72, 64
1, 113160, Note_on_c, 1, 56, 0
1, 113160, Note_on_c, 1, 57, 64
1, 113220, Note_on_c, 0, 72, 0
1, 113220, Note_on_c, 0, 73, 64
1, 113220, Note_on_c, 1, 57, 0
1, 113220, Note_on_c, 1, 58, 64
1, 113280, Note_on_c, 0, 73, 0
1, 113280, Note_on_c, 0, 74, 64
1, 113280, Note_on_c, 1, 58, 0
1, 113280, Note_on_c, 1, 59, 64
1, 113400, Note_on_c, 0, 74, 0
1, 113400, Note_on_c, 0, 62, 0
1, 113400, Note_on_c, 0, 74, 80
1, 113400, Note_on_c, 0, 66, 80
1, 113400, Note_on_c, 0, 62, 80
1, 113400, Note_on_c, 1, 59, 0
1, 113400, Note_on_c, 1, 57, 80
1, 113520, Note_on_c, 0, 74, 0
1, 113520, Note_on_c, 0, 72, 64
1, 113640, Note_on_c, 0, 72, 0
1, 113640, Note_on_c, 0, 66, 0
1, 113640, Note_on_c, 0, 71, 64
1, 113640, Note_on_c, 1, 57, 0
1, 113640, Note_on_c, 1, 55, 64
1, 113676, Note_on_c, 0, 71, 0
1, 113676, Note_on_c, 0, 62, 0
1, 113676, Note_on_c, 1, 55, 0
1, 113760, Note_on_c, 0, 71, 64
1, 113760, Note_on_c, 0, 67, 64
1, 113760, Note_on_c, 1, 50, 64
1, 113880, Note_on_c, 0, 67, 0
1, 113880, Note_on_c, 0, 71, 0
1, 113880, Note_on_c, 0, 69, 64
1, 113880, Note_on_c, 0, 66, 64
1, 113916, Note_on_c, 0, 66, 0
1, 113916, Note_on_c, 0, 69, 0
1, 113940, Note_on_c, 1, 50, 0
1, 113940, Note_on_c, 1, 52, 64
1, 113970, Note_on_c, 1, 52, 0
1, 113970, Note_on_c, 1, 54, 64
1, 114000, Note_on_c, 0, 69, 64
1, 114000, Note_on_c, 0, 66, 64
1, 114000, Note_on_c, 1, 54, 0
1, 114000, Note_on_c, 1, 55, 64
1, 114030, Note_on_c, 1, 55, 0
1, 114030, Note_on_c, 1, 57, 64
1, 114036, Note_on_c, 0, 66, 0
1, 114036, Note_on_c, 0, 69, 0
1, 114060, Note_on_c, 1, 57, 0
1, 114060, Note_on_c, 1, 59, 64
1, 114090, Note_on_c, 1, 59, 0
1, 114090, Note_on_c, 1, 61, 64
1, 114120, Note_on_c, 0, 69, 64
1, 114120, Note_on_c, 0, 66, 64
1, 114120, Note_on_c, 1, 61, 0
1, 114120, Note_on_c, 1, 62, 64
1, 114156, Note_on_c, 1, 62, 0
1, 114240, Note_on_c, 1, 60, 64
1, 114276, Note_on_c, 1, 60, 0
1, 114360, Note_on_c, 0, 66, 0
1, 114360, Note_on_c, 0, 69, 0
1, 114360, Note_on_c, 0, 71, 80
1, 114360, Note_on_c, 0, 68, 80
1, 114360, Note_on_c, 1, 59, 80
1, 114480, Note_on_c, 0, 68, 0
1, 114480, Note_on_c, 0, 71, 0
1, 114480, Note_on_c, 0, 72, 64
1, 114480, Note_on_c, 1, 59, 0
1, 114480, Note_on_c, 1, 57, 64
1, 114510, Note_on_c, 0, 72, 0
1, 114510, Note_on_c, 0, 69, 64
1, 114540, Note_on_c, 0, 69, 0
1, 114540, Note_on_c, 0, 71, 64
1, 114570, Note_on_c, 0, 71, 0
1, 114570, Note_on_c, 0, 72, 64
1, 114600, Note_on_c, 0, 72, 0
1, 114600, Note_on_c, 0, 74, 64
1, 114630, Note_on_c, 0, 74, 0
1, 114630, Note_on_c, 0, 76, 64
1, 114660, Note_on_c, 0, 76, 0
1, 114660, Note_on_c, 0, 78, 64
1, 114690, Note_on_c, 0, 78, 0
1, 114690, Note_on_c, 0, 80, 64
1, 114720, Note_on_c, 0, 80, 0
1, 114720, Note_on_c, 0, 81, 64
1, 114720, Note_on_c, 1, 57, 0
1, 114720, Note_on_c, 1, 55, 64
1, 114750, Note_on_c, 0, 81, 0
1, 114750, Note_on_c, 0, 83, 64
1, 114780, Note_on_c, 0, 83, 0
1, 114780, Note_on_c, 0, 84, 64
1, 114810, Note_on_c, 0, 84, 0
1, 114810, Note_on_c, 0, 86, 64
1, 114840, Note_on_c, 0, 86, 0
1, 114840, Note_on_c, 0, 88, 64
1, 114840, Note_on_c, 0, 84, 64
1, 114840, Note_on_c, 1, 55, 0
1, 114840, Note_on_c, 1, 54, 64
1, 114960, Note_on_c, 0, 84, 0
1, 114960, Note_on_c, 0, 88, 0
1, 114960, Note_on_c, 0, 86, 64
1, 114960, Note_on_c, 0, 83, 64
1, 114996, Note_on_c, 0, 83, 0
1, 114996, Note_on_c, 0, 86, 0
1, 115080, Note_on_c, 0, 84, 64
1, 115080, Note_on_c, 0, 81, 64
1, 115080, Note_on_c, 1, 62, 64
1, 115110, Note_on_c, 0, 84, 0
1, 115110, Note_on_c, 0, 86, 64
1, 115140, Note_on_c, 0, 86, 0
1, 115140, Note_on_c, 0, 84, 64
1, 115170, Note_on_c, 0, 84, 0
1, 115170, Note_on_c, 0, 83, 64
1, 115200, Note_on_c, 0, 83, 0
1, 115200, Note_on_c, 0, 84, 64
1, 115200, Note_on_c, 1, 54, 0
1, 115200, Note_on_c, 1, 55, 64
1, 115320, Note_on_c, 0, 84, 0
1, 115320, Note_on_c, 0, 81, 0
1, 115320, Note_on_c, 0, 83, 64
1, 115320, Note_on_c, 0, 79, 64
1, 115440, Note_on_c, 0, 79, 0
1, 115440, Note_on_c, 0, 83, 0
1, 115440, Note_on_c, 0, 86, 64
1, 115440, Note_on_c, 1, 62, 0
1, 115440, Note_on_c, 1, 65, 64
1, 115560, Note_on_c, 0, 86, 0
1, 115560, Note_on_c, 0, 88, 64
1, 115560, Note_on_c, 1, 65, 0
1, 115560, Note_on_c, 1, 64, 64
1, 115590, Note_on_c, 0, 88, 0
1, 115590, Note_on_c, 0, 86, 64
1, 115620, Note_on_c, 0, 86, 0
1, 115620, Note_on_c, 0, 84, 64
1, 115680, Note_on_c, 0, 84, 0
1, 115680, Note_on_c, 0, 86, 64
1, 115680, Note_on_c, 1, 64, 0
1, 115680, Note_on_c, 1, 62, 64
1, 115710, Note_on_c, 0, 86, 0
1, 115710, Note_on_c, 0, 84, 64
1, 115740, Note_on_c, 0, 84, 0
1, 115740, Note_on_c, 0, 83, 64
1, 115800, Note_on_c, 0, 83, 0
1, 115800, Note_on_c, 0, 84, 64
1, 115800, Note_on_c, 1, 62, 0
1, 115800, Note_on_c, 1, 60, 64
1, 115830, Note_on_c, 0, 84, 0
1, 115830, Note_on_c, 0, 83, 64
1, 115860, Note_on_c, 0, 83, 0
1, 115860, Note_on_c, 0, 81, 64
1, 115920, Note_on_c, 0, 81, 0
1, 115920, Note_on_c, 0, 83, 64
1, 115920, Note_on_c, 1, 60, 0
1, 115920, Note_on_c, 1, 59, 64
1, 115950, Note_on_c, 0, 83, 0
1, 115950, Note_on_c, 0, 81, 64
1, 115980, Note_on_c, 0, 81, 0
1, 115980, Note_on_c, 0, 79, 63
1, 116040, Note_on_c, 0, 79, 0
1, 116040, Note_on_c, 0, 81, 63
1, 116040, Note_on_c, 1, 59, 0
1, 116040, Note_on_c, 1, 57, 63
1, 116070, Note_on_c, 0, 81, 0
1, 116070, Note_on_c, 0, 79, 62
1, 116100, Note_on_c, 0, 79, 0
1, 116100, Note_on_c, 0, 78, 62
1, 116160, Note_on_c, 1, 57, 0
1, 116160, Note_on_c, 1, 60, 61
1, 116220, Note_on_c, 0, 78, 0
1, 116220, Note_on_c, 0, 81, 61
1, 116280, Note_on_c, 1, 60, 0
1, 116280, Note_on_c, 1, 59, 60
1, 116340, Note_on_c, 0, 81, 0
1, 116340, Note_on_c, 0, 79, 59
1, 116400, Note_on_c, 1, 59, 0
1, 116400, Note_on_c, 1, 67, 59
1, 116460, Note_on_c, 0, 79, 0
1, 116460, Note_on_c, 0, 76, 58
1, 116520, Note_on_c, 1, 55, 0
1, 116520, Note_on_c, 1, 57, 57
1, 116580, Note_on_c, 0, 76, 0
1, 116580, Note_on_c, 0, 73, 57
1, 116640, Note_on_c, 1, 57, 0
1, 116640, Note_on_c, 1, 62, 56
1, 116700, Note_on_c, 0, 73, 0
1, 116700, Note_on_c, 0, 74, 55
1, 116760, Note_on_c, 0, 74, 0
1, 116760, Note_on_c, 0, 76, 55
1, 116760, Note_on_c, 1, 67, 0
1, 116760, Note_on_c, 1, 66, 55
1, 116796, Note_on_c, 1, 66, 0
1, 116820, Note_on_c, 0, 76, 0
1, 116820, Note_on_c, 0, 74, 54
1, 116880, Note_on_c, 0, 74, 0
1, 116880, Note_on_c, 0, 76, 53
1, 116880, Note_on_c, 1, 66, 53
1, 116916, Note_on_c, 1, 66, 0
1, 116940, Note_on_c, 0, 76, 0
1, 116940, Note_on_c, 0, 74, 53
1, 117000, Note_on_c, 0, 74, 0
1, 117000, Note_on_c, 0, 74, 52
1, 117000, Note_on_c, 1, 66, 52
1, 117072, Note_on_c, 0, 74, 0
1, 117072, Note_on_c, 1, 66, 0
1, 117072, Note_on_c, 1, 62, 0
1, 117240, Note_on_c, 0, 79, 64
1, 117240, Note_on_c, 1, 71, 64
1, 117240, Note_on_c, 1, 74, 64
1, 117336, Note_on_c, 0, 79, 0
1, 117336, Note_on_c, 1, 74, 0
1, 117336, Note_on_c, 1, 71, 0
1, 117360, Note_on_c, 0, 78, 64
1, 117360, Note_on_c, 1, 71, 64
1, 117360, Note_on_c, 1, 74, 64
1, 117420, Note_on_c, 0, 78, 0
1, 117420, Note_on_c, 0, 79, 64
1, 117480, Note_on_c, 0, 79, 0
1, 117480, Note_on_c, 0, 81, 64
1, 117540, Note_on_c, 0, 81, 0
1, 117540, Note_on_c, 0, 79, 64
1, 117600, Note_on_c, 0, 79, 0
1, 117600, Note_on_c, 0, 81, 64
1, 117600, Note_on_c, 1, 74, 0
1, 117600, Note_on_c, 1, 71, 0
1, 117600, Note_on_c, 1, 72, 64
1, 117600, Note_on_c, 1, 76, 64
1, 117660, Note_on_c, 0, 81, 0
1, 117660, Note_on_c, 0, 79, 64
1, 117720, Note_on_c, 0, 79, 0
1, 117720, Note_on_c, 0, 81, 64
1, 117720, Note_on_c, 1, 76, 0
1, 117720, Note_on_c, 1, 72, 0
1, 117720, Note_on_c, 1, 71, 64
1, 117720, Note_on_c, 1, 74, 64
1, 117780, Note_on_c, 0, 81, 0
1, 117780, Note_on_c, 0, 79, 64
1, 117804, Note_on_c, 0, 79, 0
1, 117840, Note_on_c, 0, 79, 64
1, 117840, Note_on_c, 1, 74, 0
1, 117840, Note_on_c, 1, 71, 0
1, 117840, Note_on_c, 1, 69, 64
1, 117840, Note_on_c, 1, 72, 64
1, 117900, Note_on_c, 0, 79, 0
1, 117900, Note_on_c, 0, 78, 64
1, 117924, Note_on_c, 0, 78, 0
1, 117960, Note_on_c, 0, 78, 64
1, 117960, Note_on_c, 1, 72, 0
1, 117960, Note_on_c, 1, 69, 0
1, 117960, Note_on_c, 1, 67, 64
1, 117960, Note_on_c, 1, 71, 64
1, 118020, Note_on_c, 0, 78, 0
1, 118020, Note_on_c, 0, 76, 64
1, 118044, Note_on_c, 0, 76, 0
1, 118080, Note_on_c, 0, 76, 64
1, 118080, Note_on_c, 1, 71, 0
1, 118080, Note_on_c, 1, 67, 0
1, 118080, Note_on_c, 1, 66, 64
1, 118080, Note_on_c, 1, 69, 64
1, 118140, Note_on_c, 0, 76, 0
1, 118140, Note_on_c, 0, 74, 64
1, 118158, Note_on_c, 0, 74, 0
1, 118200, Note_on_c, 0, 74, 64
1, 118218, Note_on_c, 0, 74, 0
1, 118260, Note_on_c, 0, 74, 64
1, 118278, Note_on_c, 0, 74, 0
1, 118320, Note_on_c, 0, 74, 64
1, 118320, Note_on_c, 1, 69, 0
1, 118320, Note_on_c, 1, 66, 0
1, 118320, Note_on_c, 1, 66, 64
1, 118320, Note_on_c, 1, 69, 64
1, 118338, Note_on_c, 0, 74, 0
1, 118380, Note_on_c, 0, 74, 64
1, 118398, Note_on_c, 0, 74, 0
1, 118440, Note_on_c, 0, 76, 80
1, 118440, Note_on_c, 1, 69, 0
1, 118440, Note_on_c, 1, 66, 0
1, 118440, Note_on_c, 1, 66, 80
1, 118440, Note_on_c, 1, 69, 80
1, 118500, Note_on_c, 0, 76, 0
1, 118500, Note_on_c, 0, 75, 64
1, 118518, Note_on_c, 0, 75, 0
1, 118560, Note_on_c, 0, 75, 64
1, 118578, Note_on_c, 0, 75, 0
1, 118620, Note_on_c, 0, 75, 64
1, 118638, Note_on_c, 0, 75, 0
1, 118680, Note_on_c, 0, 75, 64
1, 118680, Note_on_c, 1, 69, 0
1, 118680, Note_on_c, 1, 66, 0
1, 118680, Note_on_c, 1, 66, 64
1, 118680, Note_on_c, 1, 69, 64
1, 118698, Note_on_c, 0, 75, 0
1, 118740, Note_on_c, 0, 75, 64
1, 118758, Note_on_c, 0, 75, 0
1, 118800, Note_on_c, 0, 75, 64
1, 118800, Note_on_c, 1, 69, 0
1, 118800, Note_on_c, 1, 66, 0
1, 118800, Note_on_c, 1, 67, 64
1, 118800, Note_on_c, 1, 71, 64
1, 118860, Note_on_c, 0, 75, 0
1, 118860, Note_on_c, 0, 76, 64
1, 118920, Note_on_c, 0, 76, 0
1, 118920, Note_on_c, 0, 78, 64
1, 118980, Note_on_c, 0, 78, 0
1, 118980, Note_on_c, 0, 76, 64
1, 119040, Note_on_c, 0, 76, 0
1, 119040, Note_on_c, 0, 79, 64
1, 119100, Note_on_c, 0, 79, 0
1, 119100, Note_on_c, 0, 78, 64
1, 119160, Note_on_c, 0, 78, 0
1, 119160, Note_on_c, 0, 81, 64
1, 119160, Note_on_c, 1, 71, 0
1, 119160, Note_on_c, 1, 67, 0
1, 119160, Note_on_c, 1, 57, 64
1, 119160, Note_on_c, 1, 64, 64
1, 119160, Note_on_c, 1, 67, 64
1, 119220, Note_on_c, 0, 81, 0
1, 119220, Note_on_c, 0, 79, 64
1, 119244, Note_on_c, 0, 79, 0
1, 119280, Note_on_c, 0, 78, 64
1, 119340, Note_on_c, 0, 78, 0
1, 119340, Note_on_c, 0, 76, 64
1, 119364, Note_on_c, 0, 76, 0
1, 119400, Note_on_c, 0, 74, 64
1, 119460, Note_on_c, 0, 74, 0
1, 119460, Note_on_c, 0, 73, 64
1, 119484, Note_on_c, 0, 73, 0
1, 119520, Note_on_c, 0, 74, 88
1, 119520, Note_on_c, 1, 67, 0
1, 119520, Note_on_c, 1, 64, 0
1, 119520, Note_on_c, 1, 57, 0
1, 119580, Note_on_c, 0, 74, 0
1, 119580, Note_on_c, 0, 86, 88
1, 119640, Note_on_c, 0, 86, 0
1, 119640, Note_on_c, 0, 74, 88
1, 119640, Note_on_c, 1, 54, 88
1, 119640, Note_on_c, 1, 50, 88
1, 119658, Note_on_c, 0, 74, 0
1, 119700, Note_on_c, 0, 74, 88
1, 119718, Note_on_c, 0, 74, 0
1, 119760, Note_on_c, 0, 74, 88
1, 119760, Note_on_c, 1, 50, 0
1, 119760, Note_on_c, 1, 54, 0
1, 119760, Note_on_c, 1, 55, 88
1, 119760, Note_on_c, 1, 52, 88
1, 119778, Note_on_c, 0, 74, 0
1, 119796, Note_on_c, 1, 52, 0
1, 119796, Note_on_c, 1, 55, 0
1, 119820, Note_on_c, 0, 74, 88
1, 119838, Note_on_c, 0, 74, 0
1, 119880, Note_on_c, 0, 74, 88
1, 119940, Note_on_c, 0, 74, 0
1, 119940, Note_on_c, 0, 86, 88
1, 120000, Note_on_c, 0, 86, 0
1, 120000, Note_on_c, 0, 74, 88
1, 120000, Note_on_c, 1, 57, 88
1, 120000, Note_on_c, 1, 54, 88
1, 120018, Note_on_c, 0, 74, 0
1, 120060, Note_on_c, 0, 74, 88
1, 120078, Note_on_c, 0, 74, 0
1, 120120, Note_on_c, 0, 74, 88
1, 120120, Note_on_c, 1, 54, 0
1, 120120, Note_on_c, 1, 57, 0
1, 120120, Note_on_c, 1, 59, 88
1, 120120, Note_on_c, 1, 55, 88
1, 120138, Note_on_c, 0, 74, 0
1, 120156, Note_on_c, 1, 55, 0
1, 120156, Note_on_c, 1, 59, 0
1, 120180, Note_on_c, 0, 74, 88
1, 120198, Note_on_c, 0, 74, 0
1, 120240, Note_on_c, 0, 74, 88
1, 120270, Note_on_c, 0, 74, 0
1, 120270, Note_on_c, 0, 78, 88
1, 120300, Note_on_c, 0, 78, 0
1, 120300, Note_on_c, 0, 81, 88
1, 120330, Note_on_c, 0, 81, 0
1, 120330, Note_on_c, 0, 86, 88
1, 120360, Note_on_c, 0, 86, 0
1, 120360, Note_on_c, 0, 74, 88
1, 120360, Note_on_c, 1, 57, 88
1, 120360, Note_on_c, 1, 60, 88
1, 120378, Note_on_c, 0, 74, 0
1, 120420, Note_on_c, 0, 74, 88
1, 120438, Note_on_c, 0, 74, 0
1, 120480, Note_on_c, 0, 74, 88
1, 120480, Note_on_c, 1, 60, 0
1, 120480, Note_on_c, 1, 57, 0
1, 120480, Note_on_c, 1, 55, 88
1, 120480, Note_on_c, 1, 59, 88
1, 120498, Note_on_c, 0, 74, 0
1, 120516, Note_on_c, 1, 59, 0
1, 120516, Note_on_c, 1, 55, 0
1, 120540, Note_on_c, 0, 74, 88
1, 120558, Note_on_c, 0, 74, 0
1, 120600, Note_on_c, 0, 74, 88
1, 120630, Note_on_c, 0, 74, 0
1, 120630, Note_on_c, 0, 78, 88
1, 120660, Note_on_c, 0, 78, 0
1, 120660, Note_on_c, 0, 81, 88
1, 120690, Note_on_c, 0, 81, 0
1, 120690, Note_on_c, 0, 86, 88
1, 120720, Note_on_c, 0, 86, 0
1, 120720, Note_on_c, 0, 74, 88
1, 120720, Note_on_c, 1, 57, 88
1, 120720, Note_on_c, 1, 54, 88
1, 120738, Note_on_c, 0, 74, 0
1, 120780, Note_on_c, 0, 74, 88
1, 120798, Note_on_c, 0, 74, 0
1, 120840, Note_on_c, 0, 74, 88
1, 120840, Note_on_c, 1, 54, 0
1, 120840, Note_on_c, 1, 57, 0
1, 120840, Note_on_c, 1, 55, 88
1, 120840, Note_on_c, 1, 52, 88
1, 120858, Note_on_c, 0, 74, 0
1, 120876, Note_on_c, 1, 52, 0
1, 120876, Note_on_c, 1, 55, 0
1, 120900, Note_on_c, 0, 74, 88
1, 120918, Note_on_c, 0, 74, 0
1, 120960, Note_on_c, 0, 74, 64
1, 120960, Note_on_c, 1, 50, 64
1, 120960, Note_on_c, 1, 54, 64
1, 121020, Note_on_c, 0, 74, 0
1, 121020, Note_on_c, 0, 86, 64
1, 121038, Note_on_c, 0, 86, 0
1, 121080, Note_on_c, 0, 86, 64
1, 121080, Note_on_c, 1, 54, 0
1, 121080, Note_on_c, 1, 50, 0
1, 121080, Note_on_c, 1, 62, 64
1, 121080, Note_on_c, 1, 66, 64
1, 121098, Note_on_c, 0, 86, 0
1, 121140, Note_on_c, 0, 86, 64
1, 121158, Note_on_c, 0, 86, 0
1, 121200, Note_on_c, 0, 86, 64
1, 121200, Note_on_c, 1, 66, 0
1, 121200, Note_on_c, 1, 62, 0
1, 121200, Note_on_c, 1, 64, 64
1, 121200, Note_on_c, 1, 67, 64
1, 121218, Note_on_c, 0, 86, 0
1, 121260, Note_on_c, 0, 86, 64
1, 121278, Note_on_c, 0, 86, 0
1, 121320, Note_on_c, 0, 85, 64
1, 121320, Note_on_c, 1, 67, 0
1, 121320, Note_on_c, 1, 64, 0
1, 121380, Note_on_c, 0, 85, 0
1, 121380, Note_on_c, 0, 86, 64
1, 121398, Note_on_c, 0, 86, 0
1, 121440, Note_on_c, 0, 86, 64
1, 121440, Note_on_c, 1, 66, 64
1, 121440, Note_on_c, 1, 69, 64
1, 121458, Note_on_c, 0, 86, 0
1, 121500, Note_on_c, 0, 86, 64
1, 121518, Note_on_c, 0, 86, 0
1, 121560, Note_on_c, 0, 86, 64
1, 121560, Note_on_c, 1, 69, 0
1, 121560, Note_on_c, 1, 66, 0
1, 121560, Note_on_c, 1, 67, 64
1, 121560, Note_on_c, 1, 70, 64
1, 121578, Note_on_c, 0, 86, 0
1, 121620, Note_on_c, 0, 86, 64
1, 121638, Note_on_c, 0, 86, 0
1, 121680, Note_on_c, 0, 87, 64
1, 121680, Note_on_c, 1, 70, 0
1, 121680, Note_on_c, 1, 67, 0
1, 121740, Note_on_c, 0, 87, 0
1, 121740, Note_on_c, 0, 86, 64
1, 121758, Note_on_c, 0, 86, 0
1, 121800, Note_on_c, 0, 86, 64
1, 121800, Note_on_c, 1, 69, 64
1, 121800, Note_on_c, 1, 72, 64
1, 121818, Note_on_c, 0, 86, 0
1, 121860, Note_on_c, 0, 86, 64
1, 121878, Note_on_c, 0, 86, 0
1, 121920, Note_on_c, 0, 86, 64
1, 121920, Note_on_c, 1, 72, 0
1, 121920, Note_on_c, 1, 69, 0
1, 121920, Note_on_c, 1, 67, 64
1, 121920, Note_on_c, 1, 70, 64
1, 121938, Note_on_c, 0, 86, 0
1, 121980, Note_on_c, 0, 86, 64
1, 121998, Note_on_c, 0, 86, 0
1, 122040, Note_on_c, 0, 85, 64
1, 122040, Note_on_c, 1, 70, 0
1, 122040, Note_on_c, 1, 67, 0
1, 122100, Note_on_c, 0, 85, 0
1, 122100, Note_on_c, 0, 86, 64
1, 122118, Note_on_c, 0, 86, 0
1, 122160, Note_on_c, 0, 86, 64
1, 122160, Note_on_c, 1, 66, 64
1, 122160, Note_on_c, 1, 69, 64
1, 122178, Note_on_c, 0, 86, 0
1, 122220, Note_on_c, 0, 86, 64
1, 122238, Note_on_c, 0, 86, 0
1, 122280, Note_on_c, 0, 86, 64
1, 122280, Note_on_c, 1, 69, 0
1, 122280, Note_on_c, 1, 66, 0
1, 122280, Note_on_c, 1, 64, 64
1, 122280, Note_on_c, 1, 67, 64
1, 122298, Note_on_c, 0, 86, 0
1, 122340, Note_on_c, 0, 86, 64
1, 122358, Note_on_c, 0, 86, 0
1, 122400, Note_on_c, 0, 86, 64
1, 122400, Note_on_c, 1, 67, 0
1, 122400, Note_on_c, 1, 64, 0
1, 122400, Note_on_c, 1, 62, 64
1, 122400, Note_on_c, 1, 66, 64
1, 122418, Note_on_c, 0, 86, 0
1, 122460, Note_on_c, 0, 86, 64
1, 122478, Note_on_c, 0, 86, 0
1, 122520, Note_on_c, 0, 86, 64
1, 122538, Note_on_c, 0, 86, 0
1, 122580, Note_on_c, 0, 86, 64
1, 122598, Note_on_c, 0, 86, 0
1, 122640, Note_on_c, 0, 86, 64
1, 122640, Note_on_c, 1, 66, 0
1, 122640, Note_on_c, 1, 62, 0
1, 122658, Note_on_c, 0, 86, 0
1, 122700, Note_on_c, 0, 86, 64
1, 122718, Note_on_c, 0, 86, 0
1, 122760, Note_on_c, 0, 86, 64
1, 122808, Note_on_c, 0, 86, 0
1, 122880, Note_on_c, 0, 86, 64
1, 122928, Note_on_c, 0, 86, 0
1, 123000, Note_on_c, 0, 86, 64
1, 123048, Note_on_c, 0, 86, 0
1, 123120, Note_on_c, 0, 84, 64
1, 123120, Note_on_c, 0, 86, 64
1, 123180, Note_on_c, 0, 86, 0
1, 123180, Note_on_c, 0, 84, 0
1, 123240, Note_on_c, 0, 84, 64
1, 123240, Note_on_c, 0, 86, 64
1, 123300, Note_on_c, 0, 86, 0
1, 123300, Note_on_c, 0, 84, 0
1, 123360, Note_on_c, 0, 84, 64
1, 123360, Note_on_c, 0, 86, 64
1, 123420, Note_on_c, 0, 86, 0
1, 123420, Note_on_c, 0, 84, 0
1, 123480, Note_on_c, 0, 84, 64
1, 123480, Note_on_c, 0, 86, 64
1, 123480, Note_on_c, 1, 81, 64
1, 123552, Note_on_c, 0, 86, 0
1, 123552, Note_on_c, 0, 84, 0
1, 123552, Note_on_c, 1, 81, 0
1, 123600, Note_on_c, 0, 84, 64
1, 123600, Note_on_c, 0, 86, 64
1, 123600, Note_on_c, 1, 81, 64
1, 123672, Note_on_c, 0, 86, 0
1, 123672, Note_on_c, 0, 84, 0
1, 123672, Note_on_c, 1, 81, 0
1, 123720, Note_on_c, 0, 84, 64
1, 123720, Note_on_c, 0, 86, 64
1, 123720, Note_on_c, 1, 81, 64
1, 123792, Note_on_c, 0, 86, 0
1, 123792, Note_on_c, 0, 84, 0
1, 123792, Note_on_c, 1, 81, 0
1, 123840, Note_on_c, 0, 84, 64
1, 123840, Note_on_c, 0, 86, 64
1, 123840, Note_on_c, 1, 78, 64
1, 123840, Note_on_c, 1, 81, 64
1, 123924, Note_on_c, 0, 86, 0
1, 123924, Note_on_c, 0, 84, 0
1, 123924, Note_on_c, 1, 81, 0
1, 123924, Note_on_c, 1, 78, 0
1, 123960, Note_on_c, 0, 84, 64
1, 123960, Note_on_c, 0, 86, 64
1, 123960, Note_on_c, 1, 78, 64
1, 123960, Note_on_c, 1, 81, 64
1, 124044, Note_on_c, 0, 86, 0
1, 124044, Note_on_c, 0, 84, 0
1, 124044, Note_on_c, 1, 81, 0
1, 124044, Note_on_c, 1, 78, 0
1, 124080, Note_on_c, 0, 84, 64
1, 124080, Note_on_c, 0, 86, 64
1, 124080, Note_on_c, 1, 78, 64
1, 124080, Note_on_c, 1, 81, 64
1, 124164, Note_on_c, 0, 86, 0
1, 124164, Note_on_c, 0, 84, 0
1, 124164, Note_on_c, 1, 81, 0
1, 124164, Note_on_c, 1, 78, 0
1, 124200, Note_on_c, 0, 84, 64
1, 124200, Note_on_c, 0, 86, 64
1, 124200, Note_on_c, 1, 78, 64
1, 124200, Note_on_c, 1, 81, 64
1, 124560, Note_on_c, 0, 86, 0
1, 124560, Note_on_c, 0, 84, 0
1, 124560, Note_on_c, 1, 81, 0
1, 124560, Note_on_c, 1, 78, 0
1, 124800, Note_on_c, 0, 72, 48
1, 124800, Note_on_c, 0, 74, 48
1, 124800, Note_on_c, 1, 66, 64
1, 124800, Note_on_c, 1, 69, 64
1, 124884, Note_on_c, 0, 74, 0
1, 124884, Note_on_c, 0, 72, 0
1, 124884, Note_on_c, 1, 69, 0
1, 124884, Note_on_c, 1, 66, 0
1, 124920, Note_on_c, 0, 72, 48
1, 124920, Note_on_c, 0, 74, 48
1, 124920, Note_on_c, 1, 66, 64
1, 124920, Note_on_c, 1, 69, 64
1, 125280, Note_on_c, 0, 74, 0
1, 125280, Note_on_c, 0, 72, 0
1, 125280, Note_on_c, 1, 69, 0
1, 125280, Note_on_c, 1, 66, 0
1, 125520, Note_on_c, 0, 67, 64
1, 125520, Note_on_c, 1, 59, 64
1, 125520, Note_on_c, 1, 55, 64
1, 125604, Note_on_c, 0, 67, 0
1, 125604, Note_on_c, 1, 55, 0
1, 125604, Note_on_c, 1, 59, 0
1, 125640, Note_on_c, 0, 67, 64
1, 125640, Note_on_c, 1, 59, 64
1, 125640, Note_on_c, 1, 55, 64
1, 125820, Note_on_c, 0, 67, 0
1, 125820, Note_on_c, 0, 71, 64
1, 125880, Note_on_c, 0, 71, 0
1, 125880, Note_on_c, 0, 69, 64
1, 125880, Note_on_c, 1, 55, 0
1, 125880, Note_on_c, 1, 59, 0
1, 125880, Note_on_c, 1, 60, 64
1, 125880, Note_on_c, 1, 55, 64
1, 126000, Note_on_c, 0, 69, 0
1, 126000, Note_on_c, 0, 62, 64
1, 126000, Note_on_c, 1, 55, 0
1, 126000, Note_on_c, 1, 60, 0
1, 126000, Note_on_c, 1, 60, 64
1, 126000, Note_on_c, 1, 55, 64
1, 126120, Note_on_c, 0, 62, 0
1, 126120, Note_on_c, 0, 64, 64
1, 126240, Note_on_c, 0, 64, 0
1, 126240, Note_on_c, 0, 67, 64
1, 126240, Note_on_c, 1, 55, 0
1, 126240, Note_on_c, 1, 60, 0
1, 126240, Note_on_c, 1, 60, 64
1, 126240, Note_on_c, 1, 55, 64
1, 126270, Note_on_c, 0, 67, 0
1, 126270, Note_on_c, 0, 66, 64
1, 126300, Note_on_c, 0, 66, 0
1, 126300, Note_on_c, 0, 64, 64
1, 126330, Note_on_c, 0, 64, 0
1, 126330, Note_on_c, 0, 66, 64
1, 126360, Note_on_c, 0, 66, 0
1, 126360, Note_on_c, 0, 67, 64
1, 126360, Note_on_c, 1, 55, 0
1, 126360, Note_on_c, 1, 60, 0
1, 126360, Note_on_c, 1, 59, 64
1, 126360, Note_on_c, 1, 55, 64
1, 126396, Note_on_c, 0, 67, 0
1, 126396, Note_on_c, 1, 55, 0
1, 126396, Note_on_c, 1, 59, 0
1, 126480, Note_on_c, 0, 67, 64
1, 126480, Note_on_c, 1, 59, 64
1, 126480, Note_on_c, 1, 55, 64
1, 126516, Note_on_c, 0, 67, 0
1, 126516, Note_on_c, 1, 55, 0
1, 126516, Note_on_c, 1, 59, 0
1, 126600, Note_on_c, 0, 67, 64
1, 126600, Note_on_c, 1, 59, 64
1, 126600, Note_on_c, 1, 55, 64
1, 126660, Note_on_c, 0, 67, 0
1, 126660, Note_on_c, 1, 55, 0
1, 126660, Note_on_c, 1, 59, 0
1, 126720, Note_on_c, 0, 67, 64
1, 126720, Note_on_c, 1, 59, 64
1, 126720, Note_on_c, 1, 55, 64
1, 126960, Note_on_c, 0, 67, 0
1, 126960, Note_on_c, 0, 62, 80
1, 126960, Note_on_c, 0, 66, 80
1, 126960, Note_on_c, 0, 69, 80
1, 126960, Note_on_c, 1, 55, 0
1, 126960, Note_on_c, 1, 59, 0
1, 126960, Note_on_c, 1, 50, 80
1, 127080, Note_on_c, 0, 69, 0
1, 127080, Note_on_c, 0, 66, 0
1, 127080, Note_on_c, 0, 62, 0
1, 127080, Note_on_c, 0, 62, 80
1, 127080, Note_on_c, 0, 67, 80
1, 127080, Note_on_c, 0, 71, 80
1, 127080, Note_on_c, 1, 50, 0
1, 127080, Note_on_c, 1, 55, 80
1, 127080, Note_on_c, 1, 59, 80
1, 127128, Note_on_c, 0, 71, 0
1, 127128, Note_on_c, 0, 67, 0
1, 127128, Note_on_c, 0, 62, 0
1, 127128, Note_on_c, 1, 59, 0
1, 127128, Note_on_c, 1, 55, 0
1, 127260, Note_on_c, 0, 62, 80
1, 127260, Note_on_c, 1, 43, 80
1, 127280, Note_on_c, 0, 67, 80
1, 127280, Note_on_c, 1, 47, 80
1, 127300, Note_on_c, 0, 71, 80
1, 127300, Note_on_c, 1, 50, 80
1, 127320, Note_on_c, 0, 74, 80
1, 127320, Note_on_c, 1, 55, 80
1, 127380, Note_on_c, 1, 43, 0
1, 127380, Note_on_c, 1, 45, 80
1, 127399, Note_on_c, 0, 67, 0
1, 127399, Note_on_c, 0, 62, 0
1, 127400, Note_on_c, 0, 62, 80
1, 127400, Note_on_c, 0, 66, 80
1, 127400, Note_on_c, 1, 47, 0
1, 127400, Note_on_c, 1, 48, 80
1, 127419, Note_on_c, 0, 71, 0
1, 127420, Note_on_c, 0, 69, 80
1, 127420, Note_on_c, 1, 50, 0
1, 127420, Note_on_c, 1, 54, 80
1, 127440, Note_on_c, 0, 74, 0
1, 127440, Note_on_c, 0, 72, 80
1, 127440, Note_on_c, 1, 55, 0
1, 127440, Note_on_c, 1, 57, 80
1, 127620, Note_on_c, 1, 45, 0
1, 127640, Note_on_c, 0, 66, 0
1, 127640, Note_on_c, 0, 62, 0
1, 127640, Note_on_c, 1, 48, 0
1, 127660, Note_on_c, 0, 69, 0
1, 127660, Note_on_c, 1, 54, 0
1, 127680, Note_on_c, 0, 72, 0
1, 127680, Note_on_c, 0, 62, 80
1, 127680, Note_on_c, 0, 67, 80
1, 127680, Note_on_c, 0, 71, 80
1, 127680, Note_on_c, 1, 57, 0
1, 127680, Note_on_c, 1, 47, 80
1, 127680, Note_on_c, 1, 50, 80
1, 127680, Note_on_c, 1, 55, 80
1, 127800, Note_on_c, 0, 71, 0
1, 127800, Note_on_c, 0, 67, 0
1, 127800, Note_on_c, 0, 62, 0
1, 127800, Note_on_c, 0, 62, 80
1, 127800, Note_on_c, 1, 55, 0
1, 127800, Note_on_c, 1, 50, 0
1, 127800, Note_on_c, 1, 47, 0
1, 127830, Note_on_c, 0, 62, 0
1, 127830, Note_on_c, 0, 64, 80
1, 127860, Note_on_c, 0, 64, 0
1, 127860, Note_on_c, 0, 66, 80
1, 127890, Note_on_c, 0, 66, 0
1, 127890, Note_on_c, 0, 67, 80
1, 127920, Note_on_c, 0, 67, 0
1, 127920, Note_on_c, 0, 69, 80
1, 127950, Note_on_c, 0, 69, 0
1, 127950, Note_on_c, 0, 71, 80
1, 127980, Note_on_c, 0, 71, 0
1, 127980, Note_on_c, 0, 73, 80
1, 128010, Note_on_c, 0, 73, 0
1, 128010, Note_on_c, 0, 74, 80
1, 128040, Note_on_c, 0, 74, 0
1, 128040, Note_on_c, 0, 76, 80
1, 128070, Note_on_c, 0, 76, 0
1, 128070, Note_on_c, 0, 78, 80
1, 128100, Note_on_c, 0, 78, 0
1, 128100, Note_on_c, 0, 79, 80
1, 128115, Note_on_c, 0, 79, 0
1, 128115, Note_on_c, 0, 81, 80
1, 128130, Note_on_c, 0, 81, 0
1, 128130, Note_on_c, 0, 83, 80
1, 128145, Note_on_c, 0, 83, 0
1, 128145, Note_on_c, 0, 85, 96
1, 128160, Note_on_c, 0, 85, 0
1, 128160, Note_on_c, 0, 86, 96
1, 128160, Note_on_c, 1, 38, 96
1, 128160, Note_on_c, 1, 42, 96
1, 128160, Note_on_c, 1, 45, 96
1, 128160, Note_on_c, 1, 50, 96
1, 128280, Note_on_c, 0, 86, 0
1, 128280, Note_on_c, 1, 50, 0
1, 128280, Note_on_c, 1, 38, 0
1, 128280, Note_on_c, 1, 42, 0
1, 128280, Note_on_c, 1, 45, 0
1, 128400, Note_on_c, 0, 68, 96
1, 128400, Note_on_c, 0, 71, 96
1, 128400, Note_on_c, 1, 64, 96
1, 128520, Note_on_c, 0, 71, 0
1, 128520, Note_on_c, 0, 68, 0
1, 128520, Note_on_c, 0, 69, 64
1, 128520, Note_on_c, 0, 72, 64
1, 128520, Note_on_c, 1, 64, 0
1, 128520, Note_on_c, 1, 60, 64
1, 128640, Note_on_c, 0, 72, 0
1, 128640, Note_on_c, 0, 69, 0
1, 128640, Note_on_c, 0, 71, 64
1, 128640, Note_on_c, 0, 74, 64
1, 128640, Note_on_c, 1, 60, 0
1, 128640, Note_on_c, 1, 59, 64
1, 128676, Note_on_c, 0, 74, 0
1, 128676, Note_on_c, 0, 71, 0
1, 128676, Note_on_c, 1, 59, 0
1, 128760, Note_on_c, 0, 72, 64
1, 128760, Note_on_c, 0, 76, 64
1, 128760, Note_on_c, 1, 57, 64
1, 128796, Note_on_c, 0, 76, 0
1, 128796, Note_on_c, 0, 72, 0
1, 128796, Note_on_c, 1, 57, 0
1, 128880, Note_on_c, 0, 72, 64
1, 128880, Note_on_c, 0, 76, 64
1, 128880, Note_on_c, 1, 57, 64
1, 129000, Note_on_c, 0, 76, 0
1, 129000, Note_on_c, 0, 72, 0
1, 129000, Note_on_c, 1, 57, 0
1, 129120, Note_on_c, 0, 66, 96
1, 129120, Note_on_c, 0, 69, 96
1, 129120, Note_on_c, 1, 62, 96
1, 129240, Note_on_c, 0, 69, 0
1, 129240, Note_on_c, 0, 66, 0
1, 129240, Note_on_c, 0, 67, 64
1, 129240, Note_on_c, 0, 71, 64
1, 129240, Note_on_c, 1, 62, 0
1, 129240, Note_on_c, 1, 59, 64
1, 129360, Note_on_c, 0, 71, 0
1, 129360, Note_on_c, 0, 67, 0
1, 129360, Note_on_c, 0, 69, 64
1, 129360, Note_on_c, 0, 72, 64
1, 129360, Note_on_c, 1, 59, 0
1, 129360, Note_on_c, 1, 57, 64
1, 129396, Note_on_c, 0, 72, 0
1, 129396, Note_on_c, 0, 69, 0
1, 129396, Note_on_c, 1, 57, 0
1, 129480, Note_on_c, 0, 71, 64
1, 129480, Note_on_c, 0, 74, 64
1, 129480, Note_on_c, 1, 55, 64
1, 129516, Note_on_c, 0, 74, 0
1, 129516, Note_on_c, 0, 71, 0
1, 129516, Note_on_c, 1, 55, 0
1, 129600, Note_on_c, 0, 71, 64
1, 129600, Note_on_c, 0, 74, 64
1, 129600, Note_on_c, 1, 55, 64
1, 129720, Note_on_c, 0, 74, 0
1, 129720, Note_on_c, 0, 71, 0
1, 129720, Note_on_c, 1, 55, 0
1, 129840, Note_on_c, 0, 67, 64
1, 129840, Note_on_c, 1, 52, 64
1, 129960, Note_on_c, 0, 67, 0
1, 129960, Note_on_c, 0, 69, 64
1, 129960, Note_on_c, 1, 52, 0
1, 129960, Note_on_c, 1, 48, 64
1, 129978, Note_on_c, 0, 69, 0
1, 129996, Note_on_c, 1, 48, 0
1, 130080, Note_on_c, 0, 71, 64
1, 130098, Note_on_c, 0, 71, 0
1, 130200, Note_on_c, 0, 72, 64
1, 130218, Note_on_c, 0, 72, 0
1, 130320, Note_on_c, 0, 62, 64
1, 130320, Note_on_c, 1, 50, 64
1, 130338, Note_on_c, 0, 62, 0
1, 130356, Note_on_c, 1, 50, 0
1, 130440, Note_on_c, 0, 64, 64
1, 130458, Note_on_c, 0, 64, 0
1, 130560, Note_on_c, 0, 66, 64
1, 130578, Note_on_c, 0, 66, 0
1, 130680, Note_on_c, 1, 55, 64
1, 130698, Note_on_c, 1, 55, 0
1, 130800, Note_on_c, 1, 50, 64
1, 130818, Note_on_c, 1, 50, 0
1, 130920, Note_on_c, 1, 47, 64
1, 130938, Note_on_c, 1, 47, 0
1, 130980, Note_on_c, 1, 43, 40
1, 131000, Note_on_c, 0, 59, 40
1, 131000, Note_on_c, 1, 47, 40
1, 131020, Note_on_c, 0, 62, 40
1, 131020, Note_on_c, 1, 50, 40
1, 131040, Note_on_c, 0, 67, 40
1, 131040, Note_on_c, 1, 55, 40
1, 131099, Note_on_c, 0, 62, 0
1, 131099, Note_on_c, 0, 59, 0
1, 131099, Note_on_c, 1, 50, 0
1, 131099, Note_on_c, 1, 43, 0
1, 131099, Note_on_c, 1, 47, 0
1, 131100, Note_on_c, 0, 67, 0
1, 131100, Note_on_c, 1, 55, 0
1, 131280, Note_on_c, 0, 79, 64
1, 131280, Note_on_c, 1, 71, 64
1, 131280, Note_on_c, 1, 74, 64
1, 131376, Note_on_c, 0, 79, 0
1, 131376, Note_on_c, 1, 74, 0
1, 131376, Note_on_c, 1, 71, 0
1, 131400, Note_on_c, 0, 78, 64
1, 131400, Note_on_c, 1, 74, 64
1, 131400, Note_on_c, 1, 71, 64
1, 131460, Note_on_c, 0, 78, 0
1, 131460, Note_on_c, 0, 79, 64
1, 131520, Note_on_c, 0, 79, 0
1, 131520, Note_on_c, 0, 81, 64
1, 131580, Note_on_c, 0, 81, 0
1, 131580, Note_on_c, 0, 79, 64
1, 131640, Note_on_c, 0, 79, 0
1, 131640, Note_on_c, 0, 81, 64
1, 131640, Note_on_c, 1, 71, 0
1, 131640, Note_on_c, 1, 74, 0
1, 131640, Note_on_c, 1, 76, 64
1, 131640, Note_on_c, 1, 72, 64
1, 131700, Note_on_c, 0, 81, 0
1, 131700, Note_on_c, 0, 79, 64
1, 131760, Note_on_c, 0, 79, 0
1, 131760, Note_on_c, 0, 81, 64
1, 131760, Note_on_c, 1, 72, 0
1, 131760, Note_on_c, 1, 76, 0
1, 131760, Note_on_c, 1, 74, 64
1, 131760, Note_on_c, 1, 71, 64
1, 131820, Note_on_c, 0, 81, 0
1, 131820, Note_on_c, 0, 79, 64
1, 131844, Note_on_c, 0, 79, 0
1, 131880, Note_on_c, 0, 79, 64
1, 131880, Note_on_c, 1, 71, 0
1, 131880, Note_on_c, 1, 74, 0
1, 131880, Note_on_c, 1, 72, 64
1, 131880, Note_on_c, 1, 69, 64
1, 131940, Note_on_c, 0, 79, 0
1, 131940, Note_on_c, 0, 78, 64
1, 131964, Note_on_c, 0, 78, 0
1, 132000, Note_on_c, 0, 78, 64
1, 132000, Note_on_c, 1, 69, 0
1, 132000, Note_on_c, 1, 72, 0
1, 132000, Note_on_c, 1, 71, 64
1, 132000, Note_on_c, 1, 67, 64
1, 132060, Note_on_c, 0, 78, 0
1, 132060, Note_on_c, 0, 76, 64
1, 132084, Note_on_c, 0, 76, 0
1, 132120, Note_on_c, 0, 76, 64
1, 132120, Note_on_c, 1, 67, 0
1, 132120, Note_on_c, 1, 71, 0
1, 132120, Note_on_c, 1, 69, 64
1, 132120, Note_on_c, 1, 66, 64
1, 132180, Note_on_c, 0, 76, 0
1, 132180, Note_on_c, 0, 74, 64
1, 132198, Note_on_c, 0, 74, 0
1, 132240, Note_on_c, 0, 74, 64
1, 132258, Note_on_c, 0, 74, 0
1, 132300, Note_on_c, 0, 74, 64
1, 132318, Note_on_c, 0, 74, 0
1, 132360, Note_on_c, 0, 74, 64
1, 132360, Note_on_c, 1, 66, 0
1, 132360, Note_on_c, 1, 69, 0
1, 132360, Note_on_c, 1, 69, 64
1, 132360, Note_on_c, 1, 66, 64
1, 132378, Note_on_c, 0, 74, 0
1, 132420, Note_on_c, 0, 74, 64
1, 132438, Note_on_c, 0, 74, 0
1, 132480, Note_on_c, 0, 76, 80
1, 132480, Note_on_c, 1, 66, 0
1, 132480, Note_on_c, 1, 69, 0
1, 132480, Note_on_c, 1, 69, 80
1, 132480, Note_on_c, 1, 66, 80
1, 132540, Note_on_c, 0, 76, 0
1, 132540, Note_on_c, 0, 75, 64
1, 132558, Note_on_c, 0, 75, 0
1, 132600, Note_on_c, 0, 75, 64
1, 132618, Note_on_c, 0, 75, 0
1, 132660, Note_on_c, 0, 75, 64
1, 132678, Note_on_c, 0, 75, 0
1, 132720, Note_on_c, 0, 75, 64
1, 132720, Note_on_c, 1, 66, 0
1, 132720, Note_on_c, 1, 69, 0
1, 132720, Note_on_c, 1, 69, 64
1, 132720, Note_on_c, 1, 66, 64
1, 132738, Note_on_c, 0, 75, 0
1, 132780, Note_on_c, 0, 75, 64
1, 132798, Note_on_c, 0, 75, 0
1, 132840, Note_on_c, 0, 75, 64
1, 132840, Note_on_c, 1, 66, 0
1, 132840, Note_on_c, 1, 69, 0
1, 132840, Note_on_c, 1, 71, 64
1, 132840, Note_on_c, 1, 67, 64
1, 132900, Note_on_c, 0, 75, 0
1, 132900, Note_on_c, 0, 76, 64
1, 132960, Note_on_c, 0, 76, 0
1, 132960, Note_on_c, 0, 78, 64
1, 133020, Note_on_c, 0, 78, 0
1, 133020, Note_on_c, 0, 76, 64
1, 133080, Note_on_c, 0, 76, 0
1, 133080, Note_on_c, 0, 79, 64
1, 133140, Note_on_c, 0, 79, 0
1, 133140, Note_on_c, 0, 78, 64
1, 133200, Note_on_c, 0, 78, 0
1, 133200, Note_on_c, 0, 81, 64
1, 133200, Note_on_c, 1, 67, 0
1, 133200, Note_on_c, 1, 71, 0
1, 133200, Note_on_c, 1, 67, 64
1, 133200, Note_on_c, 1, 64, 64
1, 133200, Note_on_c, 1, 57, 64
1, 133260, Note_on_c, 0, 81, 0
1, 133260, Note_on_c, 0, 79, 64
1, 133284, Note_on_c, 0, 79, 0
1, 133320, Note_on_c, 0, 78, 64
1, 133380, Note_on_c, 0, 78, 0
1, 133380, Note_on_c, 0, 76, 64
1, 133404, Note_on_c, 0, 76, 0
1, 133440, Note_on_c, 0, 74, 64
1, 133500, Note_on_c, 0, 74, 0
1, 133500, Note_on_c, 0, 73, 64
1, 133524, Note_on_c, 0, 73, 0
1, 133560, Note_on_c, 0, 74, 88
1, 133560, Note_on_c, 1, 57, 0
1, 133560, Note_on_c, 1, 64, 0
1, 133560, Note_on_c, 1, 67, 0
1, 133620, Note_on_c, 0, 74, 0
1, 133620, Note_on_c, 0, 86, 88
1, 133680, Note_on_c, 0, 86, 0
1, 133680, Note_on_c, 0, 74, 88
1, 133680, Note_on_c, 1, 50, 88
1, 133680, Note_on_c, 1, 54, 88
1, 133698, Note_on_c, 0, 74, 0
1, 133740, Note_on_c, 0, 74, 88
1, 133758, Note_on_c, 0, 74, 0
1, 133800, Note_on_c, 0, 74, 88
1, 133800, Note_on_c, 1, 54, 0
1, 133800, Note_on_c, 1, 50, 0
1, 133800, Note_on_c, 1, 52, 88
1, 133800, Note_on_c, 1, 55, 88
1, 133818, Note_on_c, 0, 74, 0
1, 133836, Note_on_c, 1, 55, 0
1, 133836, Note_on_c, 1, 52, 0
1, 133860, Note_on_c, 0, 74, 88
1, 133878, Note_on_c, 0, 74, 0
1, 133920, Note_on_c, 0, 74, 88
1, 133980, Note_on_c, 0, 74, 0
1, 133980, Note_on_c, 0, 86, 88
1, 134040, Note_on_c, 0, 86, 0
1, 134040, Note_on_c, 0, 74, 88
1, 134040, Note_on_c, 1, 54, 88
1, 134040, Note_on_c, 1, 57, 88
1, 134058, Note_on_c, 0, 74, 0
1, 134100, Note_on_c, 0, 74, 88
1, 134118, Note_on_c, 0, 74, 0
1, 134160, Note_on_c, 0, 74, 88
1, 134160, Note_on_c, 1, 57, 0
1, 134160, Note_on_c, 1, 54, 0
1, 134160, Note_on_c, 1, 55, 88
1, 134160, Note_on_c, 1, 59, 88
1, 134178, Note_on_c, 0, 74, 0
1, 134196, Note_on_c, 1, 59, 0
1, 134196, Note_on_c, 1, 55, 0
1, 134220, Note_on_c, 0, 74, 88
1, 134238, Note_on_c, 0, 74, 0
1, 134280, Note_on_c, 0, 74, 88
1, 134310, Note_on_c, 0, 74, 0
1, 134310, Note_on_c, 0, 78, 88
1, 134340, Note_on_c, 0, 78, 0
1, 134340, Note_on_c, 0, 81, 88
1, 134370, Note_on_c, 0, 81, 0
1, 134370, Note_on_c, 0, 86, 88
1, 134400, Note_on_c, 0, 86, 0
1, 134400, Note_on_c, 0, 74, 88
1, 134400, Note_on_c, 1, 60, 88
1, 134400, Note_on_c, 1, 57, 88
1, 134418, Note_on_c, 0, 74, 0
1, 134460, Note_on_c, 0, 74, 88
1, 134478, Note_on_c, 0, 74, 0
1, 134520, Note_on_c, 0, 74, 88
1, 134520, Note_on_c, 1, 57, 0
1, 134520, Note_on_c, 1, 60, 0
1, 134520, Note_on_c, 1, 59, 88
1, 134520, Note_on_c, 1, 55, 88
1, 134538, Note_on_c, 0, 74, 0
1, 134556, Note_on_c, 1, 55, 0
1, 134556, Note_on_c, 1, 59, 0
1, 134580, Note_on_c, 0, 74, 88
1, 134598, Note_on_c, 0, 74, 0
1, 134640, Note_on_c, 0, 74, 88
1, 134670, Note_on_c, 0, 74, 0
1, 134670, Note_on_c, 0, 78, 88
1, 134700, Note_on_c, 0, 78, 0
1, 134700, Note_on_c, 0, 81, 88
1, 134730, Note_on_c, 0, 81, 0
1, 134730, Note_on_c, 0, 86, 88
1, 134760, Note_on_c, 0, 86, 0
1, 134760, Note_on_c, 0, 74, 88
1, 134760, Note_on_c, 1, 54, 88
1, 134760, Note_on_c, 1, 57, 88
1, 134778, Note_on_c, 0, 74, 0
1, 134820, Note_on_c, 0, 74, 88
1, 134838, Note_on_c, 0, 74, 0
1, 134880, Note_on_c, 0, 74, 88
1, 134880, Note_on_c, 1, 57, 0
1, 134880, Note_on_c, 1, 54, 0
1, 134880, Note_on_c, 1, 52, 88
1, 134880, Note_on_c, 1, 55, 88
1, 134898, Note_on_c, 0, 74, 0
1, 134916, Note_on_c, 1, 55, 0
1, 134916, Note_on_c, 1, 52, 0
1, 134940, Note_on_c, 0, 74, 88
1, 134958, Note_on_c, 0, 74, 0
1, 135000, Note_on_c, 0, 74, 64
1, 135000, Note_on_c, 1, 54, 64
1, 135000, Note_on_c, 1, 50, 64
1, 135060, Note_on_c, 0, 74, 0
1, 135060, Note_on_c, 0, 86, 64
1, 135078, Note_on_c, 0, 86, 0
1, 135120, Note_on_c, 0, 86, 64
1, 135120, Note_on_c, 1, 50, 0
1, 135120, Note_on_c, 1, 54, 0
1, 135120, Note_on_c, 1, 66, 64
1, 135120, Note_on_c, 1, 62, 64
1, 135138, Note_on_c, 0, 86, 0
1, 135180, Note_on_c, 0, 86, 64
1, 135198, Note_on_c, 0, 86, 0
1, 135240, Note_on_c, 0, 86, 64
1, 135240, Note_on_c, 1, 62, 0
1, 135240, Note_on_c, 1, 66, 0
1, 135240, Note_on_c, 1, 67, 64
1, 135240, Note_on_c, 1, 64, 64
1, 135258, Note_on_c, 0, 86, 0
1, 135300, Note_on_c, 0, 86, 64
1, 135318, Note_on_c, 0, 86, 0
1, 135360, Note_on_c, 0, 85, 64
1, 135360, Note_on_c, 1, 64, 0
1, 135360, Note_on_c, 1, 67, 0
1, 135420, Note_on_c, 0, 85, 0
1, 135420, Note_on_c, 0, 86, 64
1, 135438, Note_on_c, 0, 86, 0
1, 135480, Note_on_c, 0, 86, 64
1, 135480, Note_on_c, 1, 69, 64
1, 135480, Note_on_c, 1, 66, 64
1, 135498, Note_on_c, 0, 86, 0
1, 135540, Note_on_c, 0, 86, 64
1, 135558, Note_on_c, 0, 86, 0
1, 135600, Note_on_c, 0, 86, 64
1, 135600, Note_on_c, 1, 66, 0
1, 135600, Note_on_c, 1, 69, 0
1, 135600, Note_on_c, 1, 70, 64
1, 135600, Note_on_c, 1, 67, 64
1, 135618, Note_on_c, 0, 86, 0
1, 135660, Note_on_c, 0, 86, 64
1, 135678, Note_on_c, 0, 86, 0
1, 135720, Note_on_c, 0, 87, 64
1, 135720, Note_on_c, 1, 67, 0
1, 135720, Note_on_c, 1, 70, 0
1, 135780, Note_on_c, 0, 87, 0
1, 135780, Note_on_c, 0, 86, 64
1, 135798, Note_on_c, 0, 86, 0
1, 135840, Note_on_c, 0, 86, 64
1, 135840, Note_on_c, 1, 72, 64
1, 135840, Note_on_c, 1, 69, 64
1, 135858, Note_on_c, 0, 86, 0
1, 135900, Note_on_c, 0, 86, 64
1, 135918, Note_on_c, 0, 86, 0
1, 135960, Note_on_c, 0, 86, 64
1, 135960, Note_on_c, 1, 69, 0
1, 135960, Note_on_c, 1, 72, 0
1, 135960, Note_on_c, 1, 70, 64
1, 135960, Note_on_c, 1, 67, 64
1, 135978, Note_on_c, 0, 86, 0
1, 136020, Note_on_c, 0, 86, 64
1, 136038, Note_on_c, 0, 86, 0
1, 136080, Note_on_c, 0, 85, 64
1, 136080, Note_on_c, 1, 67, 0
1, 136080, Note_on_c, 1, 70, 0
1, 136140, Note_on_c, 0, 85, 0
1, 136140, Note_on_c, 0, 86, 64
1, 136158, Note_on_c, 0, 86, 0
1, 136200, Note_on_c, 0, 86, 64
1, 136200, Note_on_c, 1, 69, 64
1, 136200, Note_on_c, 1, 66, 64
1, 136218, Note_on_c, 0, 86, 0
1, 136260, Note_on_c, 0, 86, 64
1, 136278, Note_on_c, 0, 86, 0
1, 136320, Note_on_c, 0, 86, 64
1, 136320, Note_on_c, 1, 66, 0
1, 136320, Note_on_c, 1, 69, 0
1, 136320, Note_on_c, 1, 67, 64
1, 136320, Note_on_c, 1, 64, 64
1, 136338, Note_on_c, 0, 86, 0
1, 136380, Note_on_c, 0, 86, 64
1, 136398, Note_on_c, 0, 86, 0
1, 136440, Note_on_c, 0, 86, 64
1, 136440, Note_on_c, 1, 64, 0
1, 136440, Note_on_c, 1, 67, 0
1, 136440, Note_on_c, 1, 66, 64
1, 136440, Note_on_c, 1, 62, 64
1, 136458, Note_on_c, 0, 86, 0
1, 136500, Note_on_c, 0, 86, 64
1, 136518, Note_on_c, 0, 86, 0
1, 136560, Note_on_c, 0, 86, 64
1, 136578, Note_on_c, 0, 86, 0
1, 136620, Note_on_c, 0, 86, 64
1, 136638, Note_on_c, 0, 86, 0
1, 136680, Note_on_c, 0, 86, 64
1, 136680, Note_on_c, 1, 62, 0
1, 136680, Note_on_c, 1, 66, 0
1, 136698, Note_on_c, 0, 86, 0
1, 136740, Note_on_c, 0, 86, 64
1, 136758, Note_on_c, 0, 86, 0
1, 136800, Note_on_c, 0, 86, 64
1, 136848, Note_on_c, 0, 86, 0
1, 136920, Note_on_c, 0, 86, 64
1, 136968, Note_on_c, 0, 86, 0
1, 137040, Note_on_c, 0, 86, 64
1, 137088, Note_on_c, 0, 86, 0
1, 137160, Note_on_c, 0, 86, 64
1, 137160, Note_on_c, 0, 84, 64
1, 137220, Note_on_c, 0, 84, 0
1, 137220, Note_on_c, 0, 86, 0
1, 137280, Note_on_c, 0, 86, 64
1, 137280, Note_on_c, 0, 84, 64
1, 137340, Note_on_c, 0, 84, 0
1, 137340, Note_on_c, 0, 86, 0
1, 137400, Note_on_c, 0, 86, 64
1, 137400, Note_on_c, 0, 84, 64
1, 137460, Note_on_c, 0, 84, 0
1, 137460, Note_on_c, 0, 86, 0
1, 137520, Note_on_c, 0, 86, 64
1, 137520, Note_on_c, 0, 84, 64
1, 137520, Note_on_c, 1, 81, 64
1, 137592, Note_on_c, 0, 84, 0
1, 137592, Note_on_c, 0, 86, 0
1, 137592, Note_on_c, 1, 81, 0
1, 137640, Note_on_c, 0, 86, 64
1, 137640, Note_on_c, 0, 84, 64
1, 137640, Note_on_c, 1, 81, 64
1, 137712, Note_on_c, 0, 84, 0
1, 137712, Note_on_c, 0, 86, 0
1, 137712, Note_on_c, 1, 81, 0
1, 137760, Note_on_c, 0, 86, 64
1, 137760, Note_on_c, 0, 84, 64
1, 137760, Note_on_c, 1, 81, 64
1, 137832, Note_on_c, 0, 84, 0
1, 137832, Note_on_c, 0, 86, 0
1, 137832, Note_on_c, 1, 81, 0
1, 137880, Note_on_c, 0, 86, 64
1, 137880, Note_on_c, 0, 84, 64
1, 137880, Note_on_c, 1, 81, 64
1, 137880, Note_on_c, 1, 78, 64
1, 137964, Note_on_c, 0, 84, 0
1, 137964, Note_on_c, 0, 86, 0
1, 137964, Note_on_c, 1, 78, 0
1, 137964, Note_on_c, 1, 81, 0
1, 138000, Note_on_c, 0, 86, 64
1, 138000, Note_on_c, 0, 84, 64
1, 138000, Note_on_c, 1, 81, 64
1, 138000, Note_on_c, 1, 78, 64
1, 138084, Note_on_c, 0, 84, 0
1, 138084, Note_on_c, 0, 86, 0
1, 138084, Note_on_c, 1, 78, 0
1, 138084, Note_on_c, 1, 81, 0
1, 138120, Note_on_c, 0, 86, 64
1, 138120, Note_on_c, 0, 84, 64
1, 138120, Note_on_c, 1, 81, 64
1, 138120, Note_on_c, 1, 78, 64
1, 138204, Note_on_c, 0, 84, 0
1, 138204, Note_on_c, 0, 86, 0
1, 138204, Note_on_c, 1, 78, 0
1, 138204, Note_on_c, 1, 81, 0
1, 138240, Note_on_c, 0, 86, 64
1, 138240, Note_on_c, 0, 84, 64
1, 138240, Note_on_c, 1, 81, 64
1, 138240, Note_on_c, 1, 78, 64
1, 138600, Note_on_c, 0, 84, 0
1, 138600, Note_on_c, 0, 86, 0
1, 138600, Note_on_c, 1, 78, 0
1, 138600, Note_on_c, 1, 81, 0
1, 138840, Note_on_c, 0, 74, 48
1, 138840, Note_on_c, 0, 72, 48
1, 138840, Note_on_c, 1, 69, 64
1, 138840, Note_on_c, 1, 66, 64
1, 138924, Note_on_c, 0, 72, 0
1, 138924, Note_on_c, 0, 74, 0
1, 138924, Note_on_c, 1, 66, 0
1, 138924, Note_on_c, 1, 69, 0
1, 138960, Note_on_c, 0, 74, 48
1, 138960, Note_on_c, 0, 72, 48
1, 138960, Note_on_c, 1, 69, 64
1, 138960, Note_on_c, 1, 66, 64
1, 139320, Note_on_c, 0, 72, 0
1, 139320, Note_on_c, 0, 74, 0
1, 139320, Note_on_c, 1, 66, 0
1, 139320, Note_on_c, 1, 69, 0
1, 139560, Note_on_c, 0, 67, 64
1, 139560, Note_on_c, 1, 55, 64
1, 139560, Note_on_c, 1, 59, 64
1, 139644, Note_on_c, 0, 67, 0
1, 139644, Note_on_c, 1, 59, 0
1, 139644, Note_on_c, 1, 55, 0
1, 139680, Note_on_c, 0, 67, 64
1, 139680, Note_on_c, 1, 55, 64
1, 139680, Note_on_c, 1, 59, 64
1, 139860, Note_on_c, 0, 67, 0
1, 139860, Note_on_c, 0, 71, 64
1, 139920, Note_on_c, 0, 71, 0
1, 139920, Note_on_c, 0, 69, 64
1, 139920, Note_on_c, 1, 59, 0
1, 139920, Note_on_c, 1, 55, 0
1, 139920, Note_on_c, 1, 55, 64
1, 139920, Note_on_c, 1, 60, 64
1, 140040, Note_on_c, 0, 69, 0
1, 140040, Note_on_c, 0, 62, 64
1, 140040, Note_on_c, 1, 60, 0
1, 140040, Note_on_c, 1, 55, 0
1, 140040, Note_on_c, 1, 55, 64
1, 140040, Note_on_c, 1, 60, 64
1, 140160, Note_on_c, 0, 62, 0
1, 140160, Note_on_c, 0, 64, 64
1, 140280, Note_on_c, 0, 64, 0
1, 140280, Note_on_c, 0, 67, 64
1, 140280, Note_on_c, 1, 60, 0
1, 140280, Note_on_c, 1, 55, 0
1, 140280, Note_on_c, 1, 55, 64
1, 140280, Note_on_c, 1, 60, 64
1, 140310, Note_on_c, 0, 67, 0
1, 140310, Note_on_c, 0, 66, 64
1, 140340, Note_on_c, 0, 66, 0
1, 140340, Note_on_c, 0, 64, 64
1, 140370, Note_on_c, 0, 64, 0
1, 140370, Note_on_c, 0, 66, 64
1, 140400, Note_on_c, 0, 66, 0
1, 140400, Note_on_c, 0, 67, 64
1, 140400, Note_on_c, 1, 60, 0
1, 140400, Note_on_c, 1, 55, 0
1, 140400, Note_on_c, 1, 55, 64
1, 140400, Note_on_c, 1, 59, 64
1, 140436, Note_on_c, 0, 67, 0
1, 140436, Note_on_c, 1, 59, 0
1, 140436, Note_on_c, 1, 55, 0
1, 140520, Note_on_c, 0, 67, 64
1, 140520, Note_on_c, 1, 55, 64
1, 140520, Note_on_c, 1, 59, 64
1, 140556, Note_on_c, 0, 67, 0
1, 140556, Note_on_c, 1, 59, 0
1, 140556, Note_on_c, 1, 55, 0
1, 140640, Note_on_c, 0, 67, 64
1, 140640, Note_on_c, 1, 55, 64
1, 140640, Note_on_c, 1, 59, 64
1, 140700, Note_on_c, 0, 67, 0
1, 140700, Note_on_c, 1, 59, 0
1, 140700, Note_on_c, 1, 55, 0
1, 140760, Note_on_c, 0, 67, 64
1, 140760, Note_on_c, 1, 55, 64
1, 140760, Note_on_c, 1, 59, 64
1, 141000, Note_on_c, 0, 67, 0
1, 141000, Note_on_c, 0, 69, 80
1, 141000, Note_on_c, 0, 66, 80
1, 141000, Note_on_c, 0, 62, 80
1, 141000, Note_on_c, 1, 59, 0
1, 141000, Note_on_c, 1, 55, 0
1, 141000, Note_on_c, 1, 50, 80
1, 141120, Note_on_c, 0, 62, 0
1, 141120, Note_on_c, 0, 66, 0
1, 141120, Note_on_c, 0, 69, 0
1, 141120, Note_on_c, 0, 71, 80
1, 141120, Note_on_c, 0, 67, 80
1, 141120, Note_on_c, 0, 62, 80
1, 141120, Note_on_c, 1, 50, 0
1, 141120, Note_on_c, 1, 59, 80
1, 141120, Note_on_c, 1, 55, 80
1, 141168, Note_on_c, 0, 62, 0
1, 141168, Note_on_c, 0, 67, 0
1, 141168, Note_on_c, 0, 71, 0
1, 141168, Note_on_c, 1, 55, 0
1, 141168, Note_on_c, 1, 59, 0
1, 141300, Note_on_c, 0, 62, 80
1, 141300, Note_on_c, 1, 43, 80
1, 141320, Note_on_c, 0, 67, 80
1, 141320, Note_on_c, 1, 47, 80
1, 141340, Note_on_c, 0, 71, 80
1, 141340, Note_on_c, 1, 50, 80
1, 141360, Note_on_c, 0, 74, 80
1, 141360, Note_on_c, 1, 55, 80
1, 141420, Note_on_c, 0, 62, 0
1, 141420, Note_on_c, 0, 62, 80
1, 141420, Note_on_c, 1, 43, 0
1, 141420, Note_on_c, 1, 45, 80
1, 141440, Note_on_c, 0, 67, 0
1, 141440, Note_on_c, 0, 66, 80
1, 141440, Note_on_c, 1, 47, 0
1, 141440, Note_on_c, 1, 48, 80
1, 141460, Note_on_c, 0, 71, 0
1, 141460, Note_on_c, 0, 69, 80
1, 141460, Note_on_c, 1, 50, 0
1, 141460, Note_on_c, 1, 54, 80
1, 141480, Note_on_c, 0, 74, 0
1, 141480, Note_on_c, 0, 72, 80
1, 141480, Note_on_c, 1, 55, 0
1, 141480, Note_on_c, 1, 57, 80
1, 141660, Note_on_c, 0, 62, 0
1, 141660, Note_on_c, 1, 45, 0
1, 141680, Note_on_c, 0, 66, 0
1, 141680, Note_on_c, 1, 48, 0
1, 141700, Note_on_c, 0, 69, 0
1, 141700, Note_on_c, 1, 54, 0
1, 141720, Note_on_c, 0, 72, 0
1, 141720, Note_on_c, 0, 71, 80
1, 141720, Note_on_c, 0, 67, 80
1, 141720, Note_on_c, 0, 62, 80
1, 141720, Note_on_c, 1, 57, 0
1, 141720, Note_on_c, 1, 55, 80
1, 141720, Note_on_c, 1, 50, 80
1, 141720, Note_on_c, 1, 47, 80
1, 141840, Note_on_c, 0, 62, 0
1, 141840, Note_on_c, 0, 67, 0
1, 141840, Note_on_c, 0, 71, 0
1, 141840, Note_on_c, 0, 62, 80
1, 141840, Note_on_c, 1, 47, 0
1, 141840, Note_on_c, 1, 50, 0
1, 141840, Note_on_c, 1, 55, 0
1, 141870, Note_on_c, 0, 62, 0
1, 141870, Note_on_c, 0, 64, 80
1, 141900, Note_on_c, 0, 64, 0
1, 141900, Note_on_c, 0, 66, 80
1, 141930, Note_on_c, 0, 66, 0
1, 141930, Note_on_c, 0, 67, 80
1, 141960, Note_on_c, 0, 67, 0
1, 141960, Note_on_c, 0, 69, 80
1, 141990, Note_on_c, 0, 69, 0
1, 141990, Note_on_c, 0, 71, 80
1, 142020, Note_on_c, 0, 71, 0
1, 142020, Note_on_c, 0, 73, 80
1, 142050, Note_on_c, 0, 73, 0
1, 142050, Note_on_c, 0, 74, 80
1, 142080, Note_on_c, 0, 74, 0
1, 142080, Note_on_c, 0, 76, 80
1, 142110, Note_on_c, 0, 76, 0
1, 142110, Note_on_c, 0, 78, 80
1, 142140, Note_on_c, 0, 78, 0
1, 142140, Note_on_c, 0, 79, 80
1, 142155, Note_on_c, 0, 79, 0
1, 142155, Note_on_c, 0, 81, 80
1, 142170, Note_on_c, 0, 81, 0
1, 142170, Note_on_c, 0, 83, 80
1, 142185, Note_on_c, 0, 83, 0
1, 142185, Note_on_c, 0, 85, 96
1, 142200, Note_on_c, 0, 85, 0
1, 142200, Note_on_c, 0, 86, 96
1, 142200, Note_on_c, 1, 50, 96
1, 142200, Note_on_c, 1, 45, 96
1, 142200, Note_on_c, 1, 42, 96
1, 142200, Note_on_c, 1, 38, 96
1, 142320, Note_on_c, 0, 86, 0
1, 142320, Note_on_c, 1, 38, 0
1, 142320, Note_on_c, 1, 50, 0
1, 142320, Note_on_c, 1, 45, 0
1, 142320, Note_on_c, 1, 42, 0
1, 142440, Note_on_c, 0, 71, 96
1, 142440, Note_on_c, 0, 68, 96
1, 142440, Note_on_c, 1, 64, 96
1, 142560, Note_on_c, 0, 68, 0
1, 142560, Note_on_c, 0, 71, 0
1, 142560, Note_on_c, 0, 72, 64
1, 142560, Note_on_c, 0, 69, 64
1, 142560, Note_on_c, 1, 64, 0
1, 142560, Note_on_c, 1, 60, 64
1, 142680, Note_on_c, 0, 69, 0
1, 142680, Note_on_c, 0, 72, 0
1, 142680, Note_on_c, 0, 74, 64
1, 142680, Note_on_c, 0, 71, 64
1, 142680, Note_on_c, 1, 60, 0
1, 142680, Note_on_c, 1, 59, 64
1, 142716, Note_on_c, 0, 71, 0
1, 142716, Note_on_c, 0, 74, 0
1, 142716, Note_on_c, 1, 59, 0
1, 142800, Note_on_c, 0, 76, 64
1, 142800, Note_on_c, 0, 72, 64
1, 142800, Note_on_c, 1, 57, 64
1, 142836, Note_on_c, 0, 72, 0
1, 142836, Note_on_c, 0, 76, 0
1, 142836, Note_on_c, 1, 57, 0
1, 142920, Note_on_c, 0, 76, 64
1, 142920, Note_on_c, 0, 72, 64
1, 142920, Note_on_c, 1, 57, 64
1, 143040, Note_on_c, 0, 72, 0
1, 143040, Note_on_c, 0, 76, 0
1, 143040, Note_on_c, 1, 57, 0
1, 143160, Note_on_c, 0, 69, 96
1, 143160, Note_on_c, 0, 66, 96
1, 143160, Note_on_c, 1, 62, 96
1, 143280, Note_on_c, 0, 66, 0
1, 143280, Note_on_c, 0, 69, 0
1, 143280, Note_on_c, 0, 71, 64
1, 143280, Note_on_c, 0, 67, 64
1, 143280, Note_on_c, 1, 62, 0
1, 143280, Note_on_c, 1, 59, 64
1, 143400, Note_on_c, 0, 67, 0
1, 143400, Note_on_c, 0, 71, 0
1, 143400, Note_on_c, 0, 72, 64
1, 143400, Note_on_c, 0, 69, 64
1, 143400, Note_on_c, 1, 59, 0
1, 143400, Note_on_c, 1, 57, 64
1, 143436, Note_on_c, 0, 69, 0
1, 143436, Note_on_c, 0, 72, 0
1, 143436, Note_on_c, 1, 57, 0
1, 143520, Note_on_c, 0, 74, 64
1, 143520, Note_on_c, 0, 71, 64
1, 143520, Note_on_c, 1, 55, 64
1, 143556, Note_on_c, 0, 71, 0
1, 143556, Note_on_c, 0, 74, 0
1, 143556, Note_on_c, 1, 55, 0
1, 143640, Note_on_c, 0, 74, 64
1, 143640, Note_on_c, 0, 71, 64
1, 143640, Note_on_c, 1, 55, 64
1, 143760, Note_on_c, 0, 71, 0
1, 143760, Note_on_c, 0, 74, 0
1, 143760, Note_on_c, 1, 55, 0
1, 143880, Note_on_c, 0, 67, 64
1, 143880, Note_on_c, 1, 52, 64
1, 144000, Note_on_c, 0, 67, 0
1, 144000, Note_on_c, 0, 69, 64
1, 144000, Note_on_c, 1, 52, 0
1, 144000, Note_on_c, 1, 48, 64
1, 144018, Note_on_c, 0, 69, 0
1, 144036, Note_on_c, 1, 48, 0
1, 144120, Note_on_c, 0, 71, 64
1, 144138, Note_on_c, 0, 71, 0
1, 144240, Note_on_c, 0, 72, 64
1, 144258, Note_on_c, 0, 72, 0
1, 144360, Note_on_c, 0, 62, 64
1, 144360, Note_on_c, 1, 50, 64
1, 144378, Note_on_c, 0, 62, 0
1, 144396, Note_on_c, 1, 50, 0
1, 144480, Note_on_c, 0, 64, 64
1, 144498, Note_on_c, 0, 64, 0
1, 144600, Note_on_c, 0, 66, 64
1, 144618, Note_on_c, 0, 66, 0
1, 144720, Note_on_c, 1, 55, 64
1, 144738, Note_on_c, 1, 55, 0
1, 144840, Note_on_c, 1, 50, 64
1, 144858, Note_on_c, 1, 50, 0
1, 144960, Note_on_c, 1, 47, 64
1, 144978, Note_on_c, 1, 47, 0
1, 145020, Note_on_c, 1, 43, 112
1, 145040, Note_on_c, 0, 59, 112
1, 145040, Note_on_c, 1, 47, 112
1, 145060, Note_on_c, 0, 62, 112
1, 145060, Note_on_c, 1, 50, 112
1, 145080, Note_on_c, 0, 67, 112
1, 145080, Note_on_c, 1, 55, 112
1, 145199, Note_on_c, 0, 62, 0
1, 145199, Note_on_c, 0, 59, 0
1, 145199, Note_on_c, 1, 50, 0
1, 145199, Note_on_c, 1, 43, 0
1, 145199, Note_on_c, 1, 47, 0
1, 145200, Note_on_c, 0, 67, 0
1, 145200, Note_on_c, 1, 55, 0
1, 145210, End_track
0, 0, End_of_file