0, 0, Header, 0, 1, 240
1, 0, Start_track
1, 0, Tempo, 333333
1, 360, Note_on_c, 0, 59, 72
1, 408, Note_on_c, 0, 59, 0
1, 480, Note_on_c, 0, 59, 72
1, 528, Note_on_c, 0, 59, 0
1, 600, Note_on_c, 0, 59, 72
1, 648, Note_on_c, 0, 59, 0
1, 720, Note_on_c, 0, 59, 72
1, 768, Note_on_c, 0, 59, 0
1, 840, Note_on_c, 0, 59, 72
1, 888, Note_on_c, 0, 59, 0
1, 960, Note_on_c, 0, 62, 80
1, 1080, Note_on_c, 0, 62, 0
1, 1080, Note_on_c, 0, 61, 72
1, 1164, Note_on_c, 0, 61, 0
1, 1200, Note_on_c, 0, 59, 72
1, 1248, Note_on_c, 0, 59, 0
1, 1320, Note_on_c, 0, 67, 72
1, 1320, Note_on_c, 1, 59, 72
1, 1368, Note_on_c, 0, 67, 0
1, 1440, Note_on_c, 0, 66, 72
1, 1440, Note_on_c, 1, 59, 0
1, 1440, Note_on_c, 1, 58, 72
1, 1560, Note_on_c, 0, 66, 0
1, 1560, Note_on_c, 0, 65, 72
1, 1644, Note_on_c, 0, 65, 0
1, 1680, Note_on_c, 0, 66, 72
1, 1680, Note_on_c, 1, 58, 0
1, 1728, Note_on_c, 0, 66, 0
1, 1800, Note_on_c, 0, 64, 72
1, 1800, Note_on_c, 1, 55, 72
1, 1848, Note_on_c, 0, 64, 0
1, 1920, Note_on_c, 0, 62, 72
1, 1920, Note_on_c, 1, 55, 0
1, 1920, Note_on_c, 1, 54, 72
1, 2040, Note_on_c, 0, 62, 0
1, 2040, Note_on_c, 0, 61, 72
1, 2124, Note_on_c, 0, 61, 0
1, 2160, Note_on_c, 0, 62, 72
1, 2160, Note_on_c, 1, 54, 0
1, 2208, Note_on_c, 0, 62, 0
1, 2280, Note_on_c, 0, 61, 72
1, 2280, Note_on_c, 1, 52, 72
1, 2328, Note_on_c, 0, 61, 0
1, 2400, Note_on_c, 0, 59, 72
1, 2400, Note_on_c, 1, 52, 0
1, 2400, Note_on_c, 1, 50, 72
1, 2520, Note_on_c, 0, 59, 0
1, 2520, Note_on_c, 0, 58, 72
1, 2568, Note_on_c, 0, 58, 0
1, 2640, Note_on_c, 0, 59, 72
1, 2640, Note_on_c, 1, 50, 0
1, 2688, Note_on_c, 0, 59, 0
1, 2760, Note_on_c, 0, 59, 72
1, 2760, Note_on_c, 1, 55, 72
1, 2808, Note_on_c, 0, 59, 0
1, 2808, Note_on_c, 1, 55, 0
1, 2880, Note_on_c, 0, 59, 72
1, 2880, Note_on_c, 1, 54, 72
1, 2928, Note_on_c, 0, 59, 0
1, 2928, Note_on_c, 1, 54, 0
1, 3000, Note_on_c, 0, 59, 72
1, 3000, Note_on_c, 1, 52, 72
1, 3048, Note_on_c, 0, 59, 0
1, 3048, Note_on_c, 1, 52, 0
1, 3120, Note_on_c, 0, 59, 72
1, 3120, Note_on_c, 1, 50, 72
1, 3168, Note_on_c, 0, 59, 0
1, 3168, Note_on_c, 1, 50, 0
1, 3240, Note_on_c, 0, 64, 72
1, 3240, Note_on_c, 1, 49, 72
1, 3288, Note_on_c, 0, 64, 0
1, 3288, Note_on_c, 1, 49, 0
1, 3360, Note_on_c, 0, 62, 80
1, 3360, Note_on_c, 1, 47, 72
1, 3480, Note_on_c, 0, 62, 0
1, 3480, Note_on_c, 0, 61, 72
1, 3528, Note_on_c, 0, 61, 0
1, 3600, Note_on_c, 0, 59, 72
1, 3600, Note_on_c, 1, 47, 0
1, 3648, Note_on_c, 0, 59, 0
1, 3720, Note_on_c, 0, 67, 72
1, 3720, Note_on_c, 1, 47, 72
1, 3768, Note_on_c, 0, 67, 0
1, 3768, Note_on_c, 1, 47, 0
1, 3840, Note_on_c, 0, 66, 72
1, 3840, Note_on_c, 1, 47, 72
1, 3888, Note_on_c, 0, 66, 0
1, 3888, Note_on_c, 1, 47, 0
1, 3960, Note_on_c, 0, 64, 72
1, 3960, Note_on_c, 1, 47, 72
1, 4008, Note_on_c, 0, 64, 0
1, 4008, Note_on_c, 1, 47, 0
1, 4080, Note_on_c, 0, 62, 72
1, 4080, Note_on_c, 1, 47, 72
1, 4128, Note_on_c, 0, 62, 0
1, 4128, Note_on_c, 1, 47, 0
1, 4200, Note_on_c, 0, 61, 72
1, 4200, Note_on_c, 1, 52, 72
1, 4248, Note_on_c, 0, 61, 0
1, 4248, Note_on_c, 1, 52, 0
1, 4320, Note_on_c, 0, 59, 72
1, 4320, Note_on_c, 1, 50, 80
1, 4440, Note_on_c, 1, 50, 0
1, 4440, Note_on_c, 1, 49, 72
1, 4488, Note_on_c, 1, 49, 0
1, 4560, Note_on_c, 0, 59, 0
1, 4560, Note_on_c, 1, 47, 72
1, 4608, Note_on_c, 1, 47, 0
1, 4680, Note_on_c, 0, 59, 72
1, 4680, Note_on_c, 1, 55, 72
1, 4728, Note_on_c, 0, 59, 0
1, 4728, Note_on_c, 1, 55, 0
1, 4800, Note_on_c, 0, 59, 72
1, 4800, Note_on_c, 1, 54, 72
1, 4848, Note_on_c, 0, 59, 0
1, 4848, Note_on_c, 1, 54, 0
1, 4920, Note_on_c, 0, 59, 72
1, 4920, Note_on_c, 1, 52, 72
1, 4968, Note_on_c, 0, 59, 0
1, 4968, Note_on_c, 1, 52, 0
1, 5040, Note_on_c, 0, 59, 72
1, 5040, Note_on_c, 1, 50, 72
1, 5088, Note_on_c, 0, 59, 0
1, 5088, Note_on_c, 1, 50, 0
1, 5160, Note_on_c, 0, 64, 72
1, 5160, Note_on_c, 1, 49, 72
1, 5208, Note_on_c, 0, 64, 0
1, 5208, Note_on_c, 1, 49, 0
1, 5280, Note_on_c, 0, 62, 80
1, 5280, Note_on_c, 1, 47, 72
1, 5400, Note_on_c, 0, 62, 0
1, 5400, Note_on_c, 0, 61, 72
1, 5448, Note_on_c, 0, 61, 0
1, 5520, Note_on_c, 0, 59, 72
1, 5520, Note_on_c, 1, 47, 0
1, 5568, Note_on_c, 0, 59, 0
1, 5640, Note_on_c, 0, 71, 72
1, 5688, Note_on_c, 0, 71, 0
1, 5760, Note_on_c, 0, 69, 72
1, 5760, Note_on_c, 1, 55, 72
1, 5760, Note_on_c, 1, 59, 72
1, 5880, Note_on_c, 0, 69, 0
1, 5880, Note_on_c, 0, 67, 72
1, 6000, Note_on_c, 0, 67, 0
1, 6000, Note_on_c, 0, 66, 72
1, 6120, Note_on_c, 0, 66, 0
1, 6120, Note_on_c, 0, 65, 72
1, 6240, Note_on_c, 0, 65, 0
1, 6240, Note_on_c, 0, 66, 72
1, 6240, Note_on_c, 1, 59, 0
1, 6240, Note_on_c, 1, 55, 0
1, 6240, Note_on_c, 1, 54, 72
1, 6240, Note_on_c, 1, 58, 72
1, 6480, Note_on_c, 0, 66, 0
1, 6480, Note_on_c, 1, 58, 0
1, 6480, Note_on_c, 1, 54, 0
1, 6600, Note_on_c, 0, 71, 72
1, 6648, Note_on_c, 0, 71, 0
1, 6720, Note_on_c, 0, 71, 72
1, 6768, Note_on_c, 0, 71, 0
1, 6840, Note_on_c, 0, 71, 72
1, 6888, Note_on_c, 0, 71, 0
1, 6960, Note_on_c, 0, 71, 72
1, 7008, Note_on_c, 0, 71, 0
1, 7080, Note_on_c, 0, 71, 72
1, 7128, Note_on_c, 0, 71, 0
1, 7200, Note_on_c, 0, 74, 80
1, 7320, Note_on_c, 0, 74, 0
1, 7320, Note_on_c, 0, 73, 70
1, 7368, Note_on_c, 0, 73, 0
1, 7440, Note_on_c, 0, 71, 68
1, 7488, Note_on_c, 0, 71, 0
1, 7560, Note_on_c, 0, 79, 66
1, 7560, Note_on_c, 1, 71, 80
1, 7560, Note_on_c, 1, 74, 80
1, 7608, Note_on_c, 0, 79, 0
1, 7608, Note_on_c, 1, 74, 0
1, 7608, Note_on_c, 1, 71, 0
1, 7680, Note_on_c, 0, 78, 64
1, 7680, Note_on_c, 1, 70, 64
1, 7680, Note_on_c, 1, 73, 64
1, 7800, Note_on_c, 0, 78, 0
1, 7800, Note_on_c, 0, 77, 62
1, 7848, Note_on_c, 0, 77, 0
1, 7920, Note_on_c, 0, 78, 60
1, 7968, Note_on_c, 0, 78, 0
1, 8040, Note_on_c, 0, 79, 58
1, 8040, Note_on_c, 1, 73, 0
1, 8040, Note_on_c, 1, 70, 0
1, 8040, Note_on_c, 1, 71, 64
1, 8040, Note_on_c, 1, 74, 64
1, 8088, Note_on_c, 0, 79, 0
1, 8088, Note_on_c, 1, 74, 0
1, 8088, Note_on_c, 1, 71, 0
1, 8160, Note_on_c, 0, 78, 56
1, 8160, Note_on_c, 1, 70, 56
1, 8160, Note_on_c, 1, 73, 56
1, 8280, Note_on_c, 0, 78, 0
1, 8280, Note_on_c, 0, 77, 54
1, 8328, Note_on_c, 0, 77, 0
1, 8400, Note_on_c, 0, 78, 52
1, 8448, Note_on_c, 0, 78, 0
1, 8520, Note_on_c, 0, 79, 50
1, 8520, Note_on_c, 1, 73, 0
1, 8520, Note_on_c, 1, 70, 0
1, 8520, Note_on_c, 1, 71, 64
1, 8520, Note_on_c, 1, 74, 64
1, 8568, Note_on_c, 0, 79, 0
1, 8568, Note_on_c, 1, 74, 0
1, 8568, Note_on_c, 1, 71, 0
1, 8640, Note_on_c, 0, 78, 48
1, 8640, Note_on_c, 1, 70, 48
1, 8640, Note_on_c, 1, 73, 48
1, 8760, Note_on_c, 0, 78, 0
1, 8760, Note_on_c, 0, 77, 46
1, 8808, Note_on_c, 0, 77, 0
1, 8880, Note_on_c, 0, 78, 44
1, 8880, Note_on_c, 1, 73, 0
1, 8880, Note_on_c, 1, 70, 0
1, 8976, Note_on_c, 0, 78, 0
1, 9960, Note_on_c, 0, 79, 64
1, 9960, Note_on_c, 1, 71, 64
1, 9960, Note_on_c, 1, 74, 64
1, 10008, Note_on_c, 0, 79, 0
1, 10008, Note_on_c, 1, 74, 0
1, 10008, Note_on_c, 1, 71, 0
1, 10080, Note_on_c, 0, 78, 64
1, 10080, Note_on_c, 1, 69, 64
1, 10080, Note_on_c, 1, 73, 64
1, 10200, Note_on_c, 0, 78, 0
1, 10200, Note_on_c, 0, 77, 64
1, 10248, Note_on_c, 0, 77, 0
1, 10320, Note_on_c, 0, 78, 64
1, 10368, Note_on_c, 0, 78, 0
1, 10440, Note_on_c, 0, 76, 64
1, 10440, Note_on_c, 1, 73, 0
1, 10440, Note_on_c, 1, 69, 0
1, 10440, Note_on_c, 1, 67, 64
1, 10440, Note_on_c, 1, 71, 64
1, 10488, Note_on_c, 0, 76, 0
1, 10488, Note_on_c, 1, 71, 0
1, 10488, Note_on_c, 1, 67, 0
1, 10560, Note_on_c, 0, 74, 64
1, 10560, Note_on_c, 1, 66, 64
1, 10560, Note_on_c, 1, 69, 64
1, 10680, Note_on_c, 0, 74, 0
1, 10680, Note_on_c, 0, 73, 64
1, 10728, Note_on_c, 0, 73, 0
1, 10800, Note_on_c, 0, 74, 64
1, 10800, Note_on_c, 1, 69, 0
1, 10800, Note_on_c, 1, 66, 0
1, 10848, Note_on_c, 0, 74, 0
1, 10920, Note_on_c, 0, 74, 64
1, 10920, Note_on_c, 0, 86, 64
1, 10968, Note_on_c, 0, 86, 0
1, 10968, Note_on_c, 0, 74, 0
1, 11040, Note_on_c, 0, 73, 64
1, 11040, Note_on_c, 0, 85, 64
1, 11088, Note_on_c, 0, 85, 0
1, 11088, Note_on_c, 0, 73, 0
1, 11160, Note_on_c, 0, 72, 64
1, 11160, Note_on_c, 0, 84, 64
1, 11208, Note_on_c, 0, 84, 0
1, 11208, Note_on_c, 0, 72, 0
1, 11280, Note_on_c, 0, 71, 64
1, 11280, Note_on_c, 0, 83, 64
1, 11328, Note_on_c, 0, 83, 0
1, 11328, Note_on_c, 0, 71, 0
1, 11400, Note_on_c, 0, 70, 64
1, 11400, Note_on_c, 0, 82, 64
1, 11448, Note_on_c, 0, 82, 0
1, 11448, Note_on_c, 0, 70, 0
1, 11520, Note_on_c, 0, 71, 64
1, 11520, Note_on_c, 0, 83, 64
1, 11640, Note_on_c, 1, 42, 64
1, 11640, Note_on_c, 1, 54, 64
1, 11688, Note_on_c, 1, 54, 0
1, 11688, Note_on_c, 1, 42, 0
1, 11760, Note_on_c, 0, 83, 0
1, 11760, Note_on_c, 0, 71, 0
1, 11760, Note_on_c, 1, 43, 64
1, 11760, Note_on_c, 1, 55, 64
1, 11880, Note_on_c, 0, 79, 64
1, 11880, Note_on_c, 0, 83, 64
1, 11928, Note_on_c, 0, 83, 0
1, 11928, Note_on_c, 0, 79, 0
1, 12000, Note_on_c, 0, 78, 64
1, 12000, Note_on_c, 0, 81, 64
1, 12000, Note_on_c, 1, 55, 0
1, 12000, Note_on_c, 1, 43, 0
1, 12120, Note_on_c, 1, 69, 64
1, 12168, Note_on_c, 1, 69, 0
1, 12240, Note_on_c, 0, 81, 0
1, 12240, Note_on_c, 0, 78, 0
1, 12240, Note_on_c, 1, 69, 64
1, 12360, Note_on_c, 0, 73, 64
1, 12360, Note_on_c, 0, 79, 64
1, 12408, Note_on_c, 0, 79, 0
1, 12408, Note_on_c, 0, 73, 0
1, 12480, Note_on_c, 0, 74, 64
1, 12480, Note_on_c, 0, 78, 64
1, 12480, Note_on_c, 1, 69, 0
1, 12600, Note_on_c, 1, 71, 64
1, 12720, Note_on_c, 0, 78, 0
1, 12720, Note_on_c, 0, 74, 0
1, 12720, Note_on_c, 1, 71, 0
1, 12720, Note_on_c, 1, 71, 64
1, 12840, Note_on_c, 0, 62, 64
1, 12840, Note_on_c, 0, 74, 64
1, 12888, Note_on_c, 0, 74, 0
1, 12888, Note_on_c, 0, 62, 0
1, 12960, Note_on_c, 0, 61, 64
1, 12960, Note_on_c, 0, 73, 64
1, 12960, Note_on_c, 1, 71, 0
1, 13008, Note_on_c, 0, 73, 0
1, 13008, Note_on_c, 0, 61, 0
1, 13080, Note_on_c, 0, 60, 64
1, 13080, Note_on_c, 0, 72, 64
1, 13128, Note_on_c, 0, 72, 0
1, 13128, Note_on_c, 0, 60, 0
1, 13200, Note_on_c, 0, 59, 64
1, 13200, Note_on_c, 0, 71, 64
1, 13248, Note_on_c, 0, 71, 0
1, 13248, Note_on_c, 0, 59, 0
1, 13320, Note_on_c, 0, 58, 64
1, 13320, Note_on_c, 0, 70, 64
1, 13368, Note_on_c, 0, 70, 0
1, 13368, Note_on_c, 0, 58, 0
1, 13440, Note_on_c, 0, 59, 64
1, 13440, Note_on_c, 0, 71, 64
1, 13560, Note_on_c, 1, 30, 64
1, 13560, Note_on_c, 1, 42, 64
1, 13608, Note_on_c, 1, 42, 0
1, 13608, Note_on_c, 1, 30, 0
1, 13680, Note_on_c, 1, 31, 64
1, 13680, Note_on_c, 1, 43, 64
1, 13800, Note_on_c, 0, 71, 0
1, 13800, Note_on_c, 0, 59, 0
1, 13800, Note_on_c, 0, 63, 64
1, 13800, Note_on_c, 0, 75, 64
1, 13848, Note_on_c, 0, 75, 0
1, 13848, Note_on_c, 0, 63, 0
1, 13920, Note_on_c, 0, 64, 64
1, 13920, Note_on_c, 0, 76, 64
1, 13920, Note_on_c, 1, 43, 0
1, 13920, Note_on_c, 1, 31, 0
1, 14040, Note_on_c, 1, 42, 64
1, 14040, Note_on_c, 1, 54, 64
1, 14088, Note_on_c, 1, 54, 0
1, 14088, Note_on_c, 1, 42, 0
1, 14160, Note_on_c, 1, 43, 64
1, 14160, Note_on_c, 1, 55, 64
1, 14280, Note_on_c, 0, 76, 0
1, 14280, Note_on_c, 0, 64, 0
1, 14280, Note_on_c, 0, 66, 64
1, 14280, Note_on_c, 0, 78, 64
1, 14400, Note_on_c, 0, 78, 0
1, 14400, Note_on_c, 0, 66, 0
1, 14400, Note_on_c, 0, 67, 64
1, 14400, Note_on_c, 0, 79, 64
1, 14520, Note_on_c, 1, 55, 0
1, 14520, Note_on_c, 1, 43, 0
1, 14520, Note_on_c, 1, 51, 64
1, 14520, Note_on_c, 1, 63, 64
1, 14640, Note_on_c, 1, 63, 0
1, 14640, Note_on_c, 1, 51, 0
1, 14640, Note_on_c, 1, 52, 64
1, 14640, Note_on_c, 1, 64, 64
1, 14760, Note_on_c, 0, 79, 0
1, 14760, Note_on_c, 0, 67, 0
1, 14760, Note_on_c, 0, 70, 64
1, 14760, Note_on_c, 0, 82, 64
1, 14880, Note_on_c, 0, 82, 0
1, 14880, Note_on_c, 0, 70, 0
1, 14880, Note_on_c, 0, 71, 64
1, 14880, Note_on_c, 0, 83, 64
1, 15000, Note_on_c, 1, 64, 0
1, 15000, Note_on_c, 1, 52, 0
1, 15000, Note_on_c, 1, 54, 64
1, 15000, Note_on_c, 1, 66, 64
1, 15120, Note_on_c, 1, 66, 0
1, 15120, Note_on_c, 1, 54, 0
1, 15120, Note_on_c, 1, 55, 64
1, 15120, Note_on_c, 1, 67, 64
1, 15240, Note_on_c, 0, 83, 0
1, 15240, Note_on_c, 0, 71, 0
1, 15240, Note_on_c, 0, 73, 64
1, 15240, Note_on_c, 0, 85, 64
1, 15360, Note_on_c, 0, 85, 0
1, 15360, Note_on_c, 0, 73, 0
1, 15360, Note_on_c, 0, 74, 64
1, 15360, Note_on_c, 0, 86, 64
1, 15480, Note_on_c, 1, 67, 0
1, 15480, Note_on_c, 1, 55, 0
1, 15480, Note_on_c, 1, 68, 64
1, 15600, Note_on_c, 1, 68, 0
1, 15600, Note_on_c, 1, 77, 64
1, 15720, Note_on_c, 0, 86, 0
1, 15720, Note_on_c, 0, 74, 0
1, 15720, Note_on_c, 0, 76, 64
1, 15840, Note_on_c, 0, 76, 0
1, 15840, Note_on_c, 0, 86, 64
1, 15840, Note_on_c, 1, 77, 0
1, 15960, Note_on_c, 1, 57, 64
1, 16080, Note_on_c, 1, 57, 0
1, 16080, Note_on_c, 1, 69, 64
1, 16200, Note_on_c, 0, 86, 0
1, 16200, Note_on_c, 0, 74, 64
1, 16320, Note_on_c, 0, 74, 0
1, 16320, Note_on_c, 0, 86, 64
1, 16320, Note_on_c, 1, 69, 0
1, 16440, Note_on_c, 1, 68, 64
1, 16560, Note_on_c, 1, 68, 0
1, 16560, Note_on_c, 1, 77, 64
1, 16680, Note_on_c, 0, 86, 0
1, 16680, Note_on_c, 0, 76, 64
1, 16800, Note_on_c, 0, 76, 0
1, 16800, Note_on_c, 0, 85, 64
1, 16800, Note_on_c, 1, 77, 0
1, 16920, Note_on_c, 1, 57, 64
1, 17040, Note_on_c, 1, 57, 0
1, 17040, Note_on_c, 1, 69, 64
1, 17160, Note_on_c, 0, 85, 0
1, 17160, Note_on_c, 0, 74, 64
1, 17280, Note_on_c, 0, 74, 0
1, 17280, Note_on_c, 0, 86, 64
1, 17280, Note_on_c, 1, 69, 0
1, 17400, Note_on_c, 1, 68, 64
1, 17520, Note_on_c, 1, 68, 0
1, 17520, Note_on_c, 1, 77, 64
1, 17640, Note_on_c, 0, 86, 0
1, 17640, Note_on_c, 0, 76, 64
1, 17760, Note_on_c, 0, 85, 64
1, 17760, Note_on_c, 1, 77, 0
1, 17880, Note_on_c, 1, 57, 64
1, 18000, Note_on_c, 1, 69, 64
1, 18480, Note_on_c, 0, 85, 0
1, 18480, Note_on_c, 0, 76, 0
1, 18480, Note_on_c, 1, 69, 0
1, 18480, Note_on_c, 1, 57, 0
1, 19080, Note_on_c, 0, 74, 88
1, 19128, Note_on_c, 0, 74, 0
1, 19200, Note_on_c, 0, 74, 88
1, 19248, Note_on_c, 0, 74, 0
1, 19320, Note_on_c, 0, 74, 88
1, 19368, Note_on_c, 0, 74, 0
1, 19440, Note_on_c, 0, 74, 88
1, 19488, Note_on_c, 0, 74, 0
1, 19560, Note_on_c, 0, 74, 88
1, 19608, Note_on_c, 0, 74, 0
1, 19680, Note_on_c, 0, 74, 88
1, 19740, Note_on_c, 0, 74, 0
1, 19740, Note_on_c, 0, 76, 88
1, 19800, Note_on_c, 0, 76, 0
1, 19800, Note_on_c, 0, 78, 88
1, 19860, Note_on_c, 0, 78, 0
1, 19860, Note_on_c, 0, 76, 88
1, 19920, Note_on_c, 0, 76, 0
1, 19920, Note_on_c, 0, 74, 88
1, 19980, Note_on_c, 0, 74, 0
1, 19980, Note_on_c, 0, 76, 88
1, 20040, Note_on_c, 0, 76, 0
1, 20040, Note_on_c, 0, 78, 88
1, 20040, Note_on_c, 1, 42, 88
1, 20040, Note_on_c, 1, 54, 88
1, 20088, Note_on_c, 1, 54, 0
1, 20088, Note_on_c, 1, 42, 0
1, 20100, Note_on_c, 0, 78, 0
1, 20100, Note_on_c, 0, 76, 88
1, 20160, Note_on_c, 0, 76, 0
1, 20160, Note_on_c, 0, 74, 88
1, 20160, Note_on_c, 1, 43, 88
1, 20160, Note_on_c, 1, 55, 88
1, 20208, Note_on_c, 1, 55, 0
1, 20208, Note_on_c, 1, 43, 0
1, 20220, Note_on_c, 0, 74, 0
1, 20220, Note_on_c, 0, 76, 88
1, 20280, Note_on_c, 0, 76, 0
1, 20280, Note_on_c, 0, 78, 88
1, 20280, Note_on_c, 1, 45, 88
1, 20280, Note_on_c, 1, 57, 88
1, 20328, Note_on_c, 1, 57, 0
1, 20328, Note_on_c, 1, 45, 0
1, 20340, Note_on_c, 0, 78, 0
1, 20340, Note_on_c, 0, 76, 88
1, 20400, Note_on_c, 0, 76, 0
1, 20400, Note_on_c, 0, 74, 88
1, 20400, Note_on_c, 1, 47, 88
1, 20400, Note_on_c, 1, 59, 88
1, 20448, Note_on_c, 1, 59, 0
1, 20448, Note_on_c, 1, 47, 0
1, 20460, Note_on_c, 0, 74, 0
1, 20460, Note_on_c, 0, 76, 88
1, 20520, Note_on_c, 0, 76, 0
1, 20520, Note_on_c, 0, 78, 88
1, 20520, Note_on_c, 1, 49, 88
1, 20520, Note_on_c, 1, 61, 88
1, 20568, Note_on_c, 1, 61, 0
1, 20568, Note_on_c, 1, 49, 0
1, 20580, Note_on_c, 0, 78, 0
1, 20580, Note_on_c, 0, 76, 88
1, 20640, Note_on_c, 0, 76, 0
1, 20640, Note_on_c, 0, 74, 88
1, 20640, Note_on_c, 1, 50, 88
1, 20640, Note_on_c, 1, 62, 88
1, 20700, Note_on_c, 0, 74, 0
1, 20700, Note_on_c, 0, 76, 88
1, 20760, Note_on_c, 0, 76, 0
1, 20760, Note_on_c, 0, 78, 88
1, 20820, Note_on_c, 0, 78, 0
1, 20820, Note_on_c, 0, 76, 88
1, 20880, Note_on_c, 0, 76, 0
1, 20880, Note_on_c, 0, 74, 88
1, 20880, Note_on_c, 1, 62, 0
1, 20880, Note_on_c, 1, 50, 0
1, 20940, Note_on_c, 0, 74, 0
1, 20940, Note_on_c, 0, 76, 88
1, 21000, Note_on_c, 0, 76, 0
1, 21000, Note_on_c, 0, 78, 88
1, 21000, Note_on_c, 1, 42, 88
1, 21000, Note_on_c, 1, 54, 88
1, 21048, Note_on_c, 1, 54, 0
1, 21048, Note_on_c, 1, 42, 0
1, 21060, Note_on_c, 0, 78, 0
1, 21060, Note_on_c, 0, 76, 88
1, 21120, Note_on_c, 0, 76, 0
1, 21120, Note_on_c, 0, 74, 88
1, 21120, Note_on_c, 1, 43, 88
1, 21120, Note_on_c, 1, 55, 88
1, 21168, Note_on_c, 1, 55, 0
1, 21168, Note_on_c, 1, 43, 0
1, 21180, Note_on_c, 0, 74, 0
1, 21180, Note_on_c, 0, 76, 88
1, 21240, Note_on_c, 0, 76, 0
1, 21240, Note_on_c, 0, 78, 88
1, 21240, Note_on_c, 1, 45, 88
1, 21240, Note_on_c, 1, 57, 88
1, 21288, Note_on_c, 1, 57, 0
1, 21288, Note_on_c, 1, 45, 0
1, 21300, Note_on_c, 0, 78, 0
1, 21300, Note_on_c, 0, 76, 88
1, 21360, Note_on_c, 0, 76, 0
1, 21360, Note_on_c, 0, 74, 88
1, 21360, Note_on_c, 1, 47, 88
1, 21360, Note_on_c, 1, 59, 88
1, 21408, Note_on_c, 1, 59, 0
1, 21408, Note_on_c, 1, 47, 0
1, 21420, Note_on_c, 0, 74, 0
1, 21420, Note_on_c, 0, 76, 88
1, 21480, Note_on_c, 0, 76, 0
1, 21480, Note_on_c, 0, 78, 88
1, 21480, Note_on_c, 1, 49, 88
1, 21480, Note_on_c, 1, 61, 88
1, 21528, Note_on_c, 1, 61, 0
1, 21528, Note_on_c, 1, 49, 0
1, 21540, Note_on_c, 0, 78, 0
1, 21540, Note_on_c, 0, 76, 88
1, 21600, Note_on_c, 0, 76, 0
1, 21600, Note_on_c, 0, 74, 88
1, 21600, Note_on_c, 1, 50, 88
1, 21600, Note_on_c, 1, 62, 88
1, 21660, Note_on_c, 0, 74, 0
1, 21660, Note_on_c, 0, 76, 88
1, 21720, Note_on_c, 0, 76, 0
1, 21720, Note_on_c, 0, 78, 88
1, 21780, Note_on_c, 0, 78, 0
1, 21780, Note_on_c, 0, 76, 88
1, 21840, Note_on_c, 0, 76, 0
1, 21840, Note_on_c, 0, 74, 88
1, 21840, Note_on_c, 1, 62, 0
1, 21840, Note_on_c, 1, 50, 0
1, 21900, Note_on_c, 0, 74, 0
1, 21900, Note_on_c, 0, 76, 88
1, 21960, Note_on_c, 0, 76, 0
1, 21960, Note_on_c, 0, 78, 88
1, 21960, Note_on_c, 1, 42, 88
1, 21960, Note_on_c, 1, 54, 88
1, 22020, Note_on_c, 0, 78, 0
1, 22020, Note_on_c, 0, 76, 88
1, 22080, Note_on_c, 0, 76, 0
1, 22080, Note_on_c, 0, 74, 88
1, 22080, Note_on_c, 1, 54, 0
1, 22080, Note_on_c, 1, 42, 0
1, 22080, Note_on_c, 1, 43, 88
1, 22080, Note_on_c, 1, 55, 88
1, 22128, Note_on_c, 1, 55, 0
1, 22128, Note_on_c, 1, 43, 0
1, 22140, Note_on_c, 0, 74, 0
1, 22140, Note_on_c, 0, 76, 88
1, 22200, Note_on_c, 0, 76, 0
1, 22200, Note_on_c, 0, 78, 88
1, 22200, Note_on_c, 1, 45, 82
1, 22200, Note_on_c, 1, 57, 82
1, 22248, Note_on_c, 1, 57, 0
1, 22248, Note_on_c, 1, 45, 0
1, 22260, Note_on_c, 0, 78, 0
1, 22260, Note_on_c, 0, 76, 88
1, 22320, Note_on_c, 0, 76, 0
1, 22320, Note_on_c, 0, 74, 88
1, 22320, Note_on_c, 1, 47, 76
1, 22320, Note_on_c, 1, 59, 76
1, 22368, Note_on_c, 1, 59, 0
1, 22368, Note_on_c, 1, 47, 0
1, 22380, Note_on_c, 0, 74, 0
1, 22380, Note_on_c, 0, 76, 88
1, 22440, Note_on_c, 0, 76, 0
1, 22440, Note_on_c, 0, 78, 88
1, 22440, Note_on_c, 1, 49, 70
1, 22440, Note_on_c, 1, 61, 70
1, 22488, Note_on_c, 1, 61, 0
1, 22488, Note_on_c, 1, 49, 0
1, 22500, Note_on_c, 0, 78, 0
1, 22500, Note_on_c, 0, 76, 88
1, 22560, Note_on_c, 0, 76, 0
1, 22560, Note_on_c, 0, 74, 88
1, 22560, Note_on_c, 1, 50, 64
1, 22560, Note_on_c, 1, 62, 64
1, 22620, Note_on_c, 0, 74, 0
1, 22620, Note_on_c, 0, 76, 88
1, 22680, Note_on_c, 0, 76, 0
1, 22680, Note_on_c, 0, 78, 88
1, 22740, Note_on_c, 0, 78, 0
1, 22740, Note_on_c, 0, 76, 88
1, 22800, Note_on_c, 0, 76, 0
1, 22800, Note_on_c, 0, 74, 88
1, 22800, Note_on_c, 1, 62, 0
1, 22800, Note_on_c, 1, 50, 0
1, 22860, Note_on_c, 0, 74, 0
1, 22860, Note_on_c, 0, 76, 88
1, 22920, Note_on_c, 0, 76, 0
1, 22920, Note_on_c, 0, 78, 88
1, 22980, Note_on_c, 0, 78, 0
1, 22980, Note_on_c, 0, 76, 88
1, 23040, Note_on_c, 0, 76, 0
1, 23040, Note_on_c, 0, 74, 88
1, 23040, Note_on_c, 1, 54, 88
1, 23040, Note_on_c, 1, 57, 88
1, 23040, Note_on_c, 1, 62, 88
1, 23100, Note_on_c, 0, 74, 0
1, 23100, Note_on_c, 0, 76, 88
1, 23160, Note_on_c, 0, 76, 0
1, 23160, Note_on_c, 0, 78, 88
1, 23220, Note_on_c, 0, 78, 0
1, 23220, Note_on_c, 0, 79, 88
1, 23280, Note_on_c, 0, 79, 0
1, 23280, Note_on_c, 0, 81, 88
1, 23280, Note_on_c, 1, 62, 0
1, 23280, Note_on_c, 1, 57, 0
1, 23280, Note_on_c, 1, 54, 0
1, 23340, Note_on_c, 0, 81, 0
1, 23340, Note_on_c, 0, 83, 88
1, 23400, Note_on_c, 0, 83, 0
1, 23400, Note_on_c, 0, 85, 88
1, 23460, Note_on_c, 0, 85, 0
1, 23460, Note_on_c, 0, 86, 88
1, 23520, Note_on_c, 0, 86, 0
1, 23520, Note_on_c, 0, 85, 88
1, 23520, Note_on_c, 1, 55, 88
1, 23520, Note_on_c, 1, 62, 88
1, 23580, Note_on_c, 0, 85, 0
1, 23580, Note_on_c, 0, 83, 88
1, 23640, Note_on_c, 0, 83, 0
1, 23640, Note_on_c, 0, 82, 88
1, 23700, Note_on_c, 0, 82, 0
1, 23700, Note_on_c, 0, 83, 88
1, 23760, Note_on_c, 0, 83, 0
1, 23760, Note_on_c, 0, 82, 88
1, 23760, Note_on_c, 1, 62, 0
1, 23760, Note_on_c, 1, 55, 0
1, 23820, Note_on_c, 0, 82, 0
1, 23820, Note_on_c, 0, 83, 88
1, 23880, Note_on_c, 0, 83, 0
1, 23880, Note_on_c, 0, 82, 88
1, 23940, Note_on_c, 0, 82, 0
1, 23940, Note_on_c, 0, 83, 88
1, 24000, Note_on_c, 0, 83, 0
1, 24000, Note_on_c, 0, 86, 88
1, 24060, Note_on_c, 0, 86, 0
1, 24060, Note_on_c, 0, 83, 88
1, 24120, Note_on_c, 0, 83, 0
1, 24120, Note_on_c, 0, 81, 88
1, 24180, Note_on_c, 0, 81, 0
1, 24180, Note_on_c, 0, 79, 88
1, 24240, Note_on_c, 0, 79, 0
1, 24240, Note_on_c, 0, 83, 88
1, 24300, Note_on_c, 0, 83, 0
1, 24300, Note_on_c, 0, 79, 88
1, 24360, Note_on_c, 0, 79, 0
1, 24360, Note_on_c, 0, 78, 88
1, 24420, Note_on_c, 0, 78, 0
1, 24420, Note_on_c, 0, 76, 88
1, 24480, Note_on_c, 0, 76, 0
1, 24480, Note_on_c, 0, 81, 88
1, 24480, Note_on_c, 1, 57, 88
1, 24480, Note_on_c, 1, 62, 88
1, 24480, Note_on_c, 1, 66, 88
1, 24528, Note_on_c, 1, 66, 0
1, 24528, Note_on_c, 1, 62, 0
1, 24528, Note_on_c, 1, 57, 0
1, 24540, Note_on_c, 0, 81, 0
1, 24540, Note_on_c, 0, 80, 88
1, 24600, Note_on_c, 0, 80, 0
1, 24600, Note_on_c, 0, 81, 88
1, 24600, Note_on_c, 1, 57, 88
1, 24600, Note_on_c, 1, 62, 88
1, 24600, Note_on_c, 1, 66, 88
1, 24648, Note_on_c, 1, 66, 0
1, 24648, Note_on_c, 1, 62, 0
1, 24648, Note_on_c, 1, 57, 0
1, 24660, Note_on_c, 0, 81, 0
1, 24660, Note_on_c, 0, 80, 88
1, 24720, Note_on_c, 0, 80, 0
1, 24720, Note_on_c, 0, 81, 88
1, 24720, Note_on_c, 1, 57, 88
1, 24720, Note_on_c, 1, 62, 88
1, 24720, Note_on_c, 1, 66, 88
1, 24768, Note_on_c, 1, 66, 0
1, 24768, Note_on_c, 1, 62, 0
1, 24768, Note_on_c, 1, 57, 0
1, 24780, Note_on_c, 0, 81, 0
1, 24780, Note_on_c, 0, 78, 88
1, 24840, Note_on_c, 0, 78, 0
1, 24840, Note_on_c, 0, 76, 88
1, 24840, Note_on_c, 1, 57, 88
1, 24840, Note_on_c, 1, 62, 88
1, 24840, Note_on_c, 1, 66, 88
1, 24900, Note_on_c, 0, 76, 0
1, 24900, Note_on_c, 0, 74, 88
1, 24960, Note_on_c, 0, 74, 0
1, 24960, Note_on_c, 0, 76, 80
1, 24960, Note_on_c, 1, 66, 0
1, 24960, Note_on_c, 1, 62, 0
1, 24960, Note_on_c, 1, 57, 0
1, 24960, Note_on_c, 1, 57, 88
1, 24960, Note_on_c, 1, 61, 88
1, 24960, Note_on_c, 1, 67, 88
1, 24992, Note_on_c, 0, 76, 0
1, 25000, Note_on_c, 0, 78, 80
1, 25008, Note_on_c, 1, 67, 0
1, 25008, Note_on_c, 1, 61, 0
1, 25008, Note_on_c, 1, 57, 0
1, 25032, Note_on_c, 0, 78, 0
1, 25040, Note_on_c, 0, 76, 80
1, 25072, Note_on_c, 0, 76, 0
1, 25080, Note_on_c, 0, 78, 80
1, 25080, Note_on_c, 1, 57, 88
1, 25080, Note_on_c, 1, 61, 88
1, 25080, Note_on_c, 1, 67, 88
1, 25112, Note_on_c, 0, 78, 0
1, 25120, Note_on_c, 0, 76, 80
1, 25128, Note_on_c, 1, 67, 0
1, 25128, Note_on_c, 1, 61, 0
1, 25128, Note_on_c, 1, 57, 0
1, 25152, Note_on_c, 0, 76, 0
1, 25160, Note_on_c, 0, 78, 80
1, 25192, Note_on_c, 0, 78, 0
1, 25200, Note_on_c, 0, 76, 80
1, 25200, Note_on_c, 1, 57, 88
1, 25200, Note_on_c, 1, 61, 88
1, 25200, Note_on_c, 1, 67, 88
1, 25248, Note_on_c, 0, 76, 0
1, 25248, Note_on_c, 1, 67, 0
1, 25248, Note_on_c, 1, 61, 0
1, 25248, Note_on_c, 1, 57, 0
1, 25260, Note_on_c, 0, 78, 80
1, 25308, Note_on_c, 0, 78, 0
1, 25320, Note_on_c, 0, 76, 80
1, 25320, Note_on_c, 1, 57, 88
1, 25320, Note_on_c, 1, 61, 88
1, 25320, Note_on_c, 1, 67, 88
1, 25352, Note_on_c, 0, 76, 0
1, 25360, Note_on_c, 0, 74, 80
1, 25368, Note_on_c, 1, 67, 0
1, 25368, Note_on_c, 1, 61, 0
1, 25368, Note_on_c, 1, 57, 0
1, 25392, Note_on_c, 0, 74, 0
1, 25400, Note_on_c, 0, 76, 80
1, 25432, Note_on_c, 0, 76, 0
1, 25440, Note_on_c, 0, 74, 88
1, 25440, Note_on_c, 1, 62, 88
1, 25440, Note_on_c, 1, 66, 88
1, 25500, Note_on_c, 0, 74, 0
1, 25500, Note_on_c, 0, 76, 88
1, 25560, Note_on_c, 0, 76, 0
1, 25560, Note_on_c, 0, 78, 88
1, 25620, Note_on_c, 0, 78, 0
1, 25620, Note_on_c, 0, 76, 88
1, 25680, Note_on_c, 0, 76, 0
1, 25680, Note_on_c, 0, 74, 88
1, 25680, Note_on_c, 1, 66, 0
1, 25680, Note_on_c, 1, 62, 0
1, 25740, Note_on_c, 0, 74, 0
1, 25740, Note_on_c, 0, 76, 88
1, 25800, Note_on_c, 0, 76, 0
1, 25800, Note_on_c, 0, 78, 88
1, 25800, Note_on_c, 1, 42, 88
1, 25800, Note_on_c, 1, 54, 88
1, 25860, Note_on_c, 0, 78, 0
1, 25860, Note_on_c, 0, 76, 88
1, 25920, Note_on_c, 0, 76, 0
1, 25920, Note_on_c, 0, 74, 88
1, 25920, Note_on_c, 1, 54, 0
1, 25920, Note_on_c, 1, 42, 0
1, 25920, Note_on_c, 1, 43, 88
1, 25920, Note_on_c, 1, 55, 88
1, 25968, Note_on_c, 1, 55, 0
1, 25968, Note_on_c, 1, 43, 0
1, 25980, Note_on_c, 0, 74, 0
1, 25980, Note_on_c, 0, 76, 88
1, 26040, Note_on_c, 0, 76, 0
1, 26040, Note_on_c, 0, 78, 88
1, 26040, Note_on_c, 1, 45, 88
1, 26040, Note_on_c, 1, 57, 88
1, 26088, Note_on_c, 1, 57, 0
1, 26088, Note_on_c, 1, 45, 0
1, 26100, Note_on_c, 0, 78, 0
1, 26100, Note_on_c, 0, 76, 88
1, 26160, Note_on_c, 0, 76, 0
1, 26160, Note_on_c, 0, 74, 88
1, 26160, Note_on_c, 1, 47, 88
1, 26160, Note_on_c, 1, 59, 88
1, 26208, Note_on_c, 1, 59, 0
1, 26208, Note_on_c, 1, 47, 0
1, 26220, Note_on_c, 0, 74, 0
1, 26220, Note_on_c, 0, 76, 88
1, 26280, Note_on_c, 0, 76, 0
1, 26280, Note_on_c, 0, 78, 88
1, 26280, Note_on_c, 1, 49, 88
1, 26280, Note_on_c, 1, 61, 88
1, 26328, Note_on_c, 1, 61, 0
1, 26328, Note_on_c, 1, 49, 0
1, 26340, Note_on_c, 0, 78, 0
1, 26340, Note_on_c, 0, 76, 88
1, 26400, Note_on_c, 0, 76, 0
1, 26400, Note_on_c, 0, 74, 88
1, 26400, Note_on_c, 1, 50, 88
1, 26400, Note_on_c, 1, 62, 88
1, 26460, Note_on_c, 0, 74, 0
1, 26460, Note_on_c, 0, 76, 88
1, 26520, Note_on_c, 0, 76, 0
1, 26520, Note_on_c, 0, 78, 88
1, 26580, Note_on_c, 0, 78, 0
1, 26580, Note_on_c, 0, 76, 88
1, 26640, Note_on_c, 0, 76, 0
1, 26640, Note_on_c, 0, 74, 88
1, 26640, Note_on_c, 1, 62, 0
1, 26640, Note_on_c, 1, 50, 0
1, 26700, Note_on_c, 0, 74, 0
1, 26700, Note_on_c, 0, 76, 88
1, 26760, Note_on_c, 0, 76, 0
1, 26760, Note_on_c, 0, 78, 88
1, 26760, Note_on_c, 1, 30, 88
1, 26760, Note_on_c, 1, 42, 88
1, 26820, Note_on_c, 0, 78, 0
1, 26820, Note_on_c, 0, 76, 88
1, 26880, Note_on_c, 0, 76, 0
1, 26880, Note_on_c, 0, 74, 88
1, 26880, Note_on_c, 1, 42, 0
1, 26880, Note_on_c, 1, 30, 0
1, 26880, Note_on_c, 1, 31, 88
1, 26880, Note_on_c, 1, 43, 88
1, 26928, Note_on_c, 1, 43, 0
1, 26928, Note_on_c, 1, 31, 0
1, 26940, Note_on_c, 0, 74, 0
1, 26940, Note_on_c, 0, 76, 88
1, 27000, Note_on_c, 0, 76, 0
1, 27000, Note_on_c, 0, 78, 88
1, 27000, Note_on_c, 1, 33, 88
1, 27000, Note_on_c, 1, 45, 88
1, 27048, Note_on_c, 1, 45, 0
1, 27048, Note_on_c, 1, 33, 0
1, 27060, Note_on_c, 0, 78, 0
1, 27060, Note_on_c, 0, 76, 88
1, 27120, Note_on_c, 0, 76, 0
1, 27120, Note_on_c, 0, 74, 88
1, 27120, Note_on_c, 1, 35, 88
1, 27120, Note_on_c, 1, 47, 88
1, 27168, Note_on_c, 1, 47, 0
1, 27168, Note_on_c, 1, 35, 0
1, 27180, Note_on_c, 0, 74, 0
1, 27180, Note_on_c, 0, 76, 88
1, 27240, Note_on_c, 0, 76, 0
1, 27240, Note_on_c, 0, 78, 88
1, 27240, Note_on_c, 1, 37, 88
1, 27240, Note_on_c, 1, 49, 88
1, 27288, Note_on_c, 1, 49, 0
1, 27288, Note_on_c, 1, 37, 0
1, 27300, Note_on_c, 0, 78, 0
1, 27300, Note_on_c, 0, 76, 88
1, 27360, Note_on_c, 0, 76, 0
1, 27360, Note_on_c, 0, 74, 88
1, 27360, Note_on_c, 1, 38, 88
1, 27360, Note_on_c, 1, 50, 88
1, 27420, Note_on_c, 0, 74, 0
1, 27420, Note_on_c, 0, 76, 88
1, 27480, Note_on_c, 0, 76, 0
1, 27480, Note_on_c, 0, 78, 88
1, 27540, Note_on_c, 0, 78, 0
1, 27540, Note_on_c, 0, 76, 88
1, 27600, Note_on_c, 0, 76, 0
1, 27600, Note_on_c, 0, 74, 88
1, 27600, Note_on_c, 1, 50, 0
1, 27600, Note_on_c, 1, 38, 0
1, 27660, Note_on_c, 0, 74, 0
1, 27660, Note_on_c, 0, 76, 88
1, 27720, Note_on_c, 0, 76, 0
1, 27720, Note_on_c, 0, 78, 88
1, 27720, Note_on_c, 1, 42, 88
1, 27720, Note_on_c, 1, 54, 88
1, 27780, Note_on_c, 0, 78, 0
1, 27780, Note_on_c, 0, 76, 88
1, 27840, Note_on_c, 0, 76, 0
1, 27840, Note_on_c, 0, 74, 88
1, 27840, Note_on_c, 1, 54, 0
1, 27840, Note_on_c, 1, 42, 0
1, 27840, Note_on_c, 1, 43, 88
1, 27840, Note_on_c, 1, 55, 88
1, 27888, Note_on_c, 1, 55, 0
1, 27888, Note_on_c, 1, 43, 0
1, 27900, Note_on_c, 0, 74, 0
1, 27900, Note_on_c, 0, 76, 88
1, 27960, Note_on_c, 0, 76, 0
1, 27960, Note_on_c, 0, 78, 88
1, 27960, Note_on_c, 1, 45, 88
1, 27960, Note_on_c, 1, 57, 88
1, 28008, Note_on_c, 1, 57, 0
1, 28008, Note_on_c, 1, 45, 0
1, 28020, Note_on_c, 0, 78, 0
1, 28020, Note_on_c, 0, 76, 88
1, 28080, Note_on_c, 0, 76, 0
1, 28080, Note_on_c, 0, 74, 88
1, 28080, Note_on_c, 1, 47, 88
1, 28080, Note_on_c, 1, 59, 88
1, 28128, Note_on_c, 1, 59, 0
1, 28128, Note_on_c, 1, 47, 0
1, 28140, Note_on_c, 0, 74, 0
1, 28140, Note_on_c, 0, 76, 88
1, 28200, Note_on_c, 0, 76, 0
1, 28200, Note_on_c, 0, 78, 88
1, 28200, Note_on_c, 1, 49, 88
1, 28200, Note_on_c, 1, 61, 88
1, 28248, Note_on_c, 1, 61, 0
1, 28248, Note_on_c, 1, 49, 0
1, 28260, Note_on_c, 0, 78, 0
1, 28260, Note_on_c, 0, 76, 88
1, 28320, Note_on_c, 0, 76, 0
1, 28320, Note_on_c, 0, 74, 88
1, 28320, Note_on_c, 1, 50, 88
1, 28320, Note_on_c, 1, 62, 88
1, 28380, Note_on_c, 0, 74, 0
1, 28380, Note_on_c, 0, 76, 88
1, 28440, Note_on_c, 0, 76, 0
1, 28440, Note_on_c, 0, 78, 88
1, 28500, Note_on_c, 0, 78, 0
1, 28500, Note_on_c, 0, 76, 88
1, 28560, Note_on_c, 0, 76, 0
1, 28560, Note_on_c, 0, 74, 88
1, 28560, Note_on_c, 1, 62, 0
1, 28560, Note_on_c, 1, 50, 0
1, 28620, Note_on_c, 0, 74, 0
1, 28620, Note_on_c, 0, 76, 88
1, 28680, Note_on_c, 0, 76, 0
1, 28680, Note_on_c, 0, 78, 88
1, 28740, Note_on_c, 0, 78, 0
1, 28740, Note_on_c, 0, 76, 88
1, 28800, Note_on_c, 0, 76, 0
1, 28800, Note_on_c, 0, 74, 88
1, 28800, Note_on_c, 1, 54, 88
1, 28800, Note_on_c, 1, 57, 88
1, 28800, Note_on_c, 1, 62, 88
1, 28860, Note_on_c, 0, 74, 0
1, 28860, Note_on_c, 0, 76, 88
1, 28920, Note_on_c, 0, 76, 0
1, 28920, Note_on_c, 0, 78, 88
1, 28980, Note_on_c, 0, 78, 0
1, 28980, Note_on_c, 0, 79, 88
1, 29040, Note_on_c, 0, 79, 0
1, 29040, Note_on_c, 0, 81, 88
1, 29040, Note_on_c, 1, 62, 0
1, 29040, Note_on_c, 1, 57, 0
1, 29040, Note_on_c, 1, 54, 0
1, 29100, Note_on_c, 0, 81, 0
1, 29100, Note_on_c, 0, 83, 88
1, 29160, Note_on_c, 0, 83, 0
1, 29160, Note_on_c, 0, 85, 88
1, 29220, Note_on_c, 0, 85, 0
1, 29220, Note_on_c, 0, 86, 88
1, 29280, Note_on_c, 0, 86, 0
1, 29280, Note_on_c, 0, 85, 88
1, 29280, Note_on_c, 1, 55, 88
1, 29280, Note_on_c, 1, 62, 88
1, 29340, Note_on_c, 0, 85, 0
1, 29340, Note_on_c, 0, 83, 88
1, 29400, Note_on_c, 0, 83, 0
1, 29400, Note_on_c, 0, 82, 88
1, 29460, Note_on_c, 0, 82, 0
1, 29460, Note_on_c, 0, 83, 88
1, 29520, Note_on_c, 0, 83, 0
1, 29520, Note_on_c, 0, 82, 88
1, 29520, Note_on_c, 1, 62, 0
1, 29520, Note_on_c, 1, 55, 0
1, 29580, Note_on_c, 0, 82, 0
1, 29580, Note_on_c, 0, 83, 88
1, 29640, Note_on_c, 0, 83, 0
1, 29640, Note_on_c, 0, 82, 88
1, 29700, Note_on_c, 0, 82, 0
1, 29700, Note_on_c, 0, 83, 88
1, 29760, Note_on_c, 0, 83, 0
1, 29760, Note_on_c, 0, 86, 88
1, 29820, Note_on_c, 0, 86, 0
1, 29820, Note_on_c, 0, 83, 88
1, 29880, Note_on_c, 0, 83, 0
1, 29880, Note_on_c, 0, 81, 88
1, 29940, Note_on_c, 0, 81, 0
1, 29940, Note_on_c, 0, 79, 88
1, 30000, Note_on_c, 0, 79, 0
1, 30000, Note_on_c, 0, 83, 88
1, 30060, Note_on_c, 0, 83, 0
1, 30060, Note_on_c, 0, 79, 88
1, 30120, Note_on_c, 0, 79, 0
1, 30120, Note_on_c, 0, 78, 88
1, 30180, Note_on_c, 0, 78, 0
1, 30180, Note_on_c, 0, 76, 88
1, 30240, Note_on_c, 0, 76, 0
1, 30240, Note_on_c, 0, 81, 88
1, 30240, Note_on_c, 1, 57, 88
1, 30240, Note_on_c, 1, 62, 88
1, 30240, Note_on_c, 1, 66, 88
1, 30288, Note_on_c, 1, 66, 0
1, 30288, Note_on_c, 1, 62, 0
1, 30288, Note_on_c, 1, 57, 0
1, 30300, Note_on_c, 0, 81, 0
1, 30300, Note_on_c, 0, 80, 88
1, 30360, Note_on_c, 0, 80, 0
1, 30360, Note_on_c, 0, 81, 88
1, 30360, Note_on_c, 1, 57, 88
1, 30360, Note_on_c, 1, 62, 88
1, 30360, Note_on_c, 1, 66, 88
1, 30408, Note_on_c, 1, 66, 0
1, 30408, Note_on_c, 1, 62, 0
1, 30408, Note_on_c, 1, 57, 0
1, 30420, Note_on_c, 0, 81, 0
1, 30420, Note_on_c, 0, 80, 88
1, 30480, Note_on_c, 0, 80, 0
1, 30480, Note_on_c, 0, 81, 88
1, 30480, Note_on_c, 1, 57, 88
1, 30480, Note_on_c, 1, 62, 88
1, 30480, Note_on_c, 1, 66, 88
1, 30528, Note_on_c, 1, 66, 0
1, 30528, Note_on_c, 1, 62, 0
1, 30528, Note_on_c, 1, 57, 0
1, 30540, Note_on_c, 0, 81, 0
1, 30540, Note_on_c, 0, 78, 88
1, 30600, Note_on_c, 0, 78, 0
1, 30600, Note_on_c, 0, 76, 88
1, 30600, Note_on_c, 1, 57, 88
1, 30600, Note_on_c, 1, 62, 88
1, 30600, Note_on_c, 1, 66, 88
1, 30648, Note_on_c, 1, 66, 0
1, 30648, Note_on_c, 1, 62, 0
1, 30648, Note_on_c, 1, 57, 0
1, 30660, Note_on_c, 0, 76, 0
1, 30660, Note_on_c, 0, 74, 88
1, 30720, Note_on_c, 0, 74, 0
1, 30720, Note_on_c, 0, 76, 80
1, 30720, Note_on_c, 1, 57, 88
1, 30720, Note_on_c, 1, 61, 88
1, 30720, Note_on_c, 1, 67, 88
1, 30752, Note_on_c, 0, 76, 0
1, 30760, Note_on_c, 0, 78, 80
1, 30768, Note_on_c, 1, 67, 0
1, 30768, Note_on_c, 1, 61, 0
1, 30768, Note_on_c, 1, 57, 0
1, 30792, Note_on_c, 0, 78, 0
1, 30800, Note_on_c, 0, 76, 80
1, 30832, Note_on_c, 0, 76, 0
1, 30840, Note_on_c, 0, 78, 80
1, 30840, Note_on_c, 1, 57, 88
1, 30840, Note_on_c, 1, 61, 88
1, 30840, Note_on_c, 1, 67, 88
1, 30872, Note_on_c, 0, 78, 0
1, 30880, Note_on_c, 0, 76, 80
1, 30888, Note_on_c, 1, 67, 0
1, 30888, Note_on_c, 1, 61, 0
1, 30888, Note_on_c, 1, 57, 0
1, 30912, Note_on_c, 0, 76, 0
1, 30920, Note_on_c, 0, 78, 80
1, 30952, Note_on_c, 0, 78, 0
1, 30960, Note_on_c, 0, 76, 80
1, 30960, Note_on_c, 1, 57, 88
1, 30960, Note_on_c, 1, 61, 88
1, 30960, Note_on_c, 1, 67, 88
1, 31008, Note_on_c, 0, 76, 0
1, 31008, Note_on_c, 1, 67, 0
1, 31008, Note_on_c, 1, 61, 0
1, 31008, Note_on_c, 1, 57, 0
1, 31020, Note_on_c, 0, 78, 80
1, 31068, Note_on_c, 0, 78, 0
1, 31080, Note_on_c, 0, 76, 80
1, 31080, Note_on_c, 1, 57, 88
1, 31080, Note_on_c, 1, 61, 88
1, 31080, Note_on_c, 1, 67, 88
1, 31112, Note_on_c, 0, 76, 0
1, 31120, Note_on_c, 0, 74, 80
1, 31128, Note_on_c, 1, 67, 0
1, 31128, Note_on_c, 1, 61, 0
1, 31128, Note_on_c, 1, 57, 0
1, 31152, Note_on_c, 0, 74, 0
1, 31160, Note_on_c, 0, 76, 80
1, 31192, Note_on_c, 0, 76, 0
1, 31200, Note_on_c, 0, 74, 88
1, 31200, Note_on_c, 1, 62, 88
1, 31200, Note_on_c, 1, 66, 88
1, 31260, Note_on_c, 0, 74, 0
1, 31260, Note_on_c, 0, 81, 88
1, 31320, Note_on_c, 0, 81, 0
1, 31320, Note_on_c, 0, 78, 88
1, 31380, Note_on_c, 0, 78, 0
1, 31380, Note_on_c, 0, 74, 88
1, 31440, Note_on_c, 0, 74, 0
1, 31440, Note_on_c, 0, 69, 56
1, 31440, Note_on_c, 1, 66, 0
1, 31440, Note_on_c, 1, 62, 0
1, 31440, Note_on_c, 1, 57, 56
1, 31440, Note_on_c, 1, 67, 56
1, 31500, Note_on_c, 0, 69, 0
1, 31500, Note_on_c, 0, 79, 56
1, 31560, Note_on_c, 0, 79, 0
1, 31560, Note_on_c, 0, 76, 56
1, 31620, Note_on_c, 0, 76, 0
1, 31620, Note_on_c, 0, 73, 56
1, 31680, Note_on_c, 0, 73, 0
1, 31680, Note_on_c, 0, 69, 60
1, 31680, Note_on_c, 1, 67, 0
1, 31680, Note_on_c, 1, 57, 0
1, 31680, Note_on_c, 1, 62, 60
1, 31680, Note_on_c, 1, 66, 60
1, 31740, Note_on_c, 0, 69, 0
1, 31740, Note_on_c, 0, 81, 60
1, 31800, Note_on_c, 0, 81, 0
1, 31800, Note_on_c, 0, 78, 60
1, 31860, Note_on_c, 0, 78, 0
1, 31860, Note_on_c, 0, 74, 60
1, 31920, Note_on_c, 0, 74, 0
1, 31920, Note_on_c, 0, 69, 64
1, 31920, Note_on_c, 1, 66, 0
1, 31920, Note_on_c, 1, 62, 0
1, 31920, Note_on_c, 1, 57, 64
1, 31920, Note_on_c, 1, 67, 64
1, 31980, Note_on_c, 0, 69, 0
1, 31980, Note_on_c, 0, 79, 64
1, 32040, Note_on_c, 0, 79, 0
1, 32040, Note_on_c, 0, 76, 64
1, 32100, Note_on_c, 0, 76, 0
1, 32100, Note_on_c, 0, 73, 64
1, 32160, Note_on_c, 0, 73, 0
1, 32160, Note_on_c, 0, 69, 68
1, 32160, Note_on_c, 1, 67, 0
1, 32160, Note_on_c, 1, 57, 0
1, 32160, Note_on_c, 1, 62, 68
1, 32160, Note_on_c, 1, 66, 68
1, 32220, Note_on_c, 0, 69, 0
1, 32220, Note_on_c, 0, 81, 68
1, 32280, Note_on_c, 0, 81, 0
1, 32280, Note_on_c, 0, 78, 68
1, 32340, Note_on_c, 0, 78, 0
1, 32340, Note_on_c, 0, 74, 68
1, 32400, Note_on_c, 0, 74, 0
1, 32400, Note_on_c, 0, 69, 72
1, 32400, Note_on_c, 1, 66, 0
1, 32400, Note_on_c, 1, 62, 0
1, 32400, Note_on_c, 1, 57, 72
1, 32400, Note_on_c, 1, 67, 72
1, 32460, Note_on_c, 0, 69, 0
1, 32460, Note_on_c, 0, 79, 72
1, 32520, Note_on_c, 0, 79, 0
1, 32520, Note_on_c, 0, 76, 72
1, 32580, Note_on_c, 0, 76, 0
1, 32580, Note_on_c, 0, 73, 72
1, 32640, Note_on_c, 0, 73, 0
1, 32640, Note_on_c, 0, 69, 80
1, 32640, Note_on_c, 1, 67, 0
1, 32640, Note_on_c, 1, 57, 0
1, 32640, Note_on_c, 1, 62, 80
1, 32640, Note_on_c, 1, 66, 80
1, 32700, Note_on_c, 0, 69, 0
1, 32700, Note_on_c, 0, 81, 80
1, 32760, Note_on_c, 0, 81, 0
1, 32760, Note_on_c, 0, 78, 80
1, 32820, Note_on_c, 0, 78, 0
1, 32820, Note_on_c, 0, 74, 80
1, 32880, Note_on_c, 0, 74, 0
1, 32880, Note_on_c, 0, 69, 88
1, 32880, Note_on_c, 1, 66, 0
1, 32880, Note_on_c, 1, 62, 0
1, 32880, Note_on_c, 1, 57, 88
1, 32880, Note_on_c, 1, 67, 88
1, 32940, Note_on_c, 0, 69, 0
1, 32940, Note_on_c, 0, 79, 88
1, 33000, Note_on_c, 0, 79, 0
1, 33000, Note_on_c, 0, 76, 88
1, 33060, Note_on_c, 0, 76, 0
1, 33060, Note_on_c, 0, 73, 88
1, 33120, Note_on_c, 0, 73, 0
1, 33120, Note_on_c, 0, 69, 88
1, 33120, Note_on_c, 1, 67, 0
1, 33120, Note_on_c, 1, 57, 0
1, 33120, Note_on_c, 1, 62, 88
1, 33120, Note_on_c, 1, 66, 88
1, 33240, Note_on_c, 0, 69, 0
1, 33240, Note_on_c, 0, 74, 88
1, 33240, Note_on_c, 0, 78, 88
1, 33288, Note_on_c, 0, 78, 0
1, 33288, Note_on_c, 0, 74, 0
1, 33360, Note_on_c, 0, 74, 88
1, 33360, Note_on_c, 0, 78, 88
1, 33360, Note_on_c, 1, 66, 0
1, 33360, Note_on_c, 1, 62, 0
1, 33408, Note_on_c, 0, 78, 0
1, 33408, Note_on_c, 0, 74, 0
1, 33480, Note_on_c, 0, 74, 88
1, 33480, Note_on_c, 0, 78, 88
1, 33528, Note_on_c, 0, 78, 0
1, 33528, Note_on_c, 0, 74, 0
1, 33600, Note_on_c, 0, 78, 88
1, 33600, Note_on_c, 0, 81, 88
1, 33720, Note_on_c, 0, 81, 0
1, 33720, Note_on_c, 0, 78, 0
1, 33720, Note_on_c, 0, 74, 88
1, 33720, Note_on_c, 0, 78, 88
1, 33768, Note_on_c, 0, 78, 0
1, 33768, Note_on_c, 0, 74, 0
1, 33840, Note_on_c, 0, 74, 88
1, 33840, Note_on_c, 0, 78, 88
1, 33888, Note_on_c, 0, 78, 0
1, 33888, Note_on_c, 0, 74, 0
1, 33960, Note_on_c, 0, 74, 88
1, 33960, Note_on_c, 0, 78, 88
1, 34008, Note_on_c, 0, 78, 0
1, 34008, Note_on_c, 0, 74, 0
1, 34080, Note_on_c, 0, 78, 88
1, 34080, Note_on_c, 0, 81, 88
1, 34080, Note_on_c, 0, 86, 88
1, 34200, Note_on_c, 0, 86, 0
1, 34200, Note_on_c, 0, 81, 0
1, 34200, Note_on_c, 0, 78, 0
1, 34920, Note_on_c, 0, 57, 80
1, 34968, Note_on_c, 0, 57, 0
1, 35040, Note_on_c, 0, 57, 80
1, 35088, Note_on_c, 0, 57, 0
1, 35160, Note_on_c, 0, 57, 80
1, 35208, Note_on_c, 0, 57, 0
1, 35280, Note_on_c, 0, 57, 80
1, 35328, Note_on_c, 0, 57, 0
1, 35400, Note_on_c, 0, 57, 80
1, 35448, Note_on_c, 0, 57, 0
1, 35520, Note_on_c, 0, 66, 80
1, 35640, Note_on_c, 0, 66, 0
1, 35640, Note_on_c, 0, 64, 80
1, 35688, Note_on_c, 0, 64, 0
1, 35760, Note_on_c, 0, 63, 80
1, 35808, Note_on_c, 0, 63, 0
1, 35880, Note_on_c, 0, 72, 80
1, 35880, Note_on_c, 1, 47, 80
1, 35928, Note_on_c, 0, 72, 0
1, 36000, Note_on_c, 0, 71, 80
1, 36000, Note_on_c, 1, 47, 0
1, 36000, Note_on_c, 1, 47, 80
1, 36048, Note_on_c, 0, 71, 0
1, 36048, Note_on_c, 1, 47, 0
1, 36120, Note_on_c, 0, 69, 80
1, 36120, Note_on_c, 1, 47, 80
1, 36168, Note_on_c, 0, 69, 0
1, 36168, Note_on_c, 1, 47, 0
1, 36240, Note_on_c, 0, 67, 80
1, 36240, Note_on_c, 1, 47, 80
1, 36288, Note_on_c, 0, 67, 0
1, 36288, Note_on_c, 1, 47, 0
1, 36360, Note_on_c, 0, 66, 80
1, 36360, Note_on_c, 1, 47, 80
1, 36408, Note_on_c, 0, 66, 0
1, 36408, Note_on_c, 1, 47, 0
1, 36480, Note_on_c, 0, 64, 80
1, 36480, Note_on_c, 1, 55, 80
1, 36600, Note_on_c, 1, 55, 0
1, 36600, Note_on_c, 1, 54, 80
1, 36648, Note_on_c, 1, 54, 0
1, 36720, Note_on_c, 0, 64, 0
1, 36720, Note_on_c, 1, 52, 80
1, 36768, Note_on_c, 1, 52, 0
1, 36840, Note_on_c, 0, 76, 80
1, 36840, Note_on_c, 1, 60, 80
1, 36888, Note_on_c, 0, 76, 0
1, 36888, Note_on_c, 1, 60, 0
1, 36960, Note_on_c, 0, 76, 80
1, 36960, Note_on_c, 1, 59, 80
1, 37008, Note_on_c, 0, 76, 0
1, 37008, Note_on_c, 1, 59, 0
1, 37080, Note_on_c, 0, 76, 80
1, 37080, Note_on_c, 1, 57, 80
1, 37128, Note_on_c, 0, 76, 0
1, 37128, Note_on_c, 1, 57, 0
1, 37200, Note_on_c, 0, 76, 80
1, 37200, Note_on_c, 1, 55, 80
1, 37248, Note_on_c, 0, 76, 0
1, 37248, Note_on_c, 1, 55, 0
1, 37320, Note_on_c, 0, 76, 80
1, 37320, Note_on_c, 1, 54, 80
1, 37368, Note_on_c, 0, 76, 0
1, 37368, Note_on_c, 1, 54, 0
1, 37440, Note_on_c, 0, 79, 88
1, 37440, Note_on_c, 1, 52, 80
1, 37560, Note_on_c, 0, 79, 0
1, 37560, Note_on_c, 0, 78, 80
1, 37680, Note_on_c, 0, 78, 0
1, 37680, Note_on_c, 0, 76, 80
1, 37680, Note_on_c, 1, 52, 0
1, 37728, Note_on_c, 0, 76, 0
1, 37800, Note_on_c, 0, 84, 80
1, 37800, Note_on_c, 1, 64, 80
1, 37848, Note_on_c, 0, 84, 0
1, 37848, Note_on_c, 1, 64, 0
1, 37920, Note_on_c, 0, 83, 80
1, 37920, Note_on_c, 1, 64, 80
1, 37968, Note_on_c, 0, 83, 0
1, 37968, Note_on_c, 1, 64, 0
1, 38040, Note_on_c, 0, 81, 80
1, 38040, Note_on_c, 1, 64, 80
1, 38088, Note_on_c, 0, 81, 0
1, 38088, Note_on_c, 1, 64, 0
1, 38160, Note_on_c, 0, 79, 80
1, 38160, Note_on_c, 1, 64, 80
1, 38208, Note_on_c, 0, 79, 0
1, 38208, Note_on_c, 1, 64, 0
1, 38280, Note_on_c, 0, 78, 80
1, 38280, Note_on_c, 1, 64, 80
1, 38328, Note_on_c, 0, 78, 0
1, 38328, Note_on_c, 1, 64, 0
1, 38400, Note_on_c, 0, 76, 80
1, 38400, Note_on_c, 1, 67, 80
1, 38520, Note_on_c, 1, 67, 0
1, 38520, Note_on_c, 1, 66, 80
1, 38640, Note_on_c, 0, 76, 0
1, 38640, Note_on_c, 1, 66, 0
1, 38640, Note_on_c, 1, 64, 80
1, 38688, Note_on_c, 1, 64, 0
1, 38760, Note_on_c, 0, 88, 80
1, 38760, Note_on_c, 1, 72, 80
1, 38808, Note_on_c, 0, 88, 0
1, 38808, Note_on_c, 1, 72, 0
1, 38880, Note_on_c, 0, 86, 80
1, 38880, Note_on_c, 1, 71, 80
1, 39000, Note_on_c, 0, 86, 0
1, 39000, Note_on_c, 0, 84, 80
1, 39000, Note_on_c, 1, 71, 0
1, 39000, Note_on_c, 1, 69, 80
1, 39120, Note_on_c, 0, 84, 0
1, 39120, Note_on_c, 0, 83, 80
1, 39120, Note_on_c, 1, 69, 0
1, 39120, Note_on_c, 1, 67, 80
1, 39240, Note_on_c, 0, 83, 0
1, 39240, Note_on_c, 0, 81, 80
1, 39240, Note_on_c, 1, 67, 0
1, 39240, Note_on_c, 1, 66, 80
1, 39360, Note_on_c, 0, 81, 0
1, 39360, Note_on_c, 0, 79, 80
1, 39360, Note_on_c, 1, 66, 0
1, 39360, Note_on_c, 1, 64, 80
1, 39480, Note_on_c, 1, 64, 0
1, 39480, Note_on_c, 1, 71, 80
1, 39528, Note_on_c, 1, 71, 0
1, 39600, Note_on_c, 0, 79, 0
1, 39600, Note_on_c, 1, 71, 80
1, 39648, Note_on_c, 1, 71, 0
1, 39720, Note_on_c, 1, 71, 80
1, 39768, Note_on_c, 1, 71, 0
1, 39840, Note_on_c, 1, 64, 80
1, 39840, Note_on_c, 1, 70, 80
1, 39960, Note_on_c, 0, 85, 80
1, 40008, Note_on_c, 0, 85, 0
1, 40080, Note_on_c, 0, 85, 80
1, 40128, Note_on_c, 0, 85, 0
1, 40200, Note_on_c, 0, 85, 80
1, 40248, Note_on_c, 0, 85, 0
1, 40320, Note_on_c, 0, 78, 80
1, 40320, Note_on_c, 1, 70, 0
1, 40320, Note_on_c, 1, 64, 0
1, 40320, Note_on_c, 1, 63, 80
1, 40440, Note_on_c, 1, 63, 0
1, 40440, Note_on_c, 1, 69, 80
1, 40488, Note_on_c, 1, 69, 0
1, 40560, Note_on_c, 1, 69, 80
1, 40608, Note_on_c, 1, 69, 0
1, 40680, Note_on_c, 1, 69, 80
1, 40728, Note_on_c, 1, 69, 0
1, 40800, Note_on_c, 0, 78, 0
1, 40800, Note_on_c, 1, 62, 80
1, 40800, Note_on_c, 1, 68, 80
1, 40920, Note_on_c, 0, 83, 80
1, 40968, Note_on_c, 0, 83, 0
1, 41040, Note_on_c, 0, 83, 80
1, 41088, Note_on_c, 0, 83, 0
1, 41160, Note_on_c, 0, 83, 80
1, 41208, Note_on_c, 0, 83, 0
1, 41280, Note_on_c, 0, 76, 80
1, 41280, Note_on_c, 1, 68, 0
1, 41280, Note_on_c, 1, 62, 0
1, 41280, Note_on_c, 1, 61, 80
1, 41400, Note_on_c, 1, 61, 0
1, 41400, Note_on_c, 1, 67, 80
1, 41448, Note_on_c, 1, 67, 0
1, 41520, Note_on_c, 1, 67, 80
1, 41568, Note_on_c, 1, 67, 0
1, 41640, Note_on_c, 1, 67, 80
1, 41688, Note_on_c, 1, 67, 0
1, 41760, Note_on_c, 0, 76, 0
1, 41760, Note_on_c, 1, 60, 80
1, 41760, Note_on_c, 1, 66, 80
1, 41880, Note_on_c, 0, 81, 80
1, 41928, Note_on_c, 0, 81, 0
1, 42000, Note_on_c, 0, 81, 80
1, 42048, Note_on_c, 0, 81, 0
1, 42120, Note_on_c, 0, 81, 80
1, 42168, Note_on_c, 0, 81, 0
1, 42240, Note_on_c, 0, 74, 80
1, 42240, Note_on_c, 1, 66, 0
1, 42240, Note_on_c, 1, 60, 0
1, 42240, Note_on_c, 1, 59, 80
1, 42240, Note_on_c, 1, 67, 80
1, 42360, Note_on_c, 0, 74, 0
1, 42360, Note_on_c, 0, 86, 80
1, 42408, Note_on_c, 0, 86, 0
1, 42480, Note_on_c, 0, 86, 80
1, 42528, Note_on_c, 0, 86, 0
1, 42600, Note_on_c, 0, 86, 80
1, 42648, Note_on_c, 0, 86, 0
1, 42720, Note_on_c, 0, 72, 80
1, 42720, Note_on_c, 1, 67, 0
1, 42720, Note_on_c, 1, 59, 0
1, 42720, Note_on_c, 1, 57, 80
1, 42720, Note_on_c, 1, 69, 80
1, 42840, Note_on_c, 0, 72, 0
1, 42840, Note_on_c, 0, 78, 80
1, 42840, Note_on_c, 0, 84, 80
1, 42888, Note_on_c, 0, 84, 0
1, 42888, Note_on_c, 0, 78, 0
1, 42960, Note_on_c, 0, 78, 80
1, 42960, Note_on_c, 0, 84, 80
1, 43008, Note_on_c, 0, 84, 0
1, 43008, Note_on_c, 0, 78, 0
1, 43080, Note_on_c, 0, 78, 80
1, 43080, Note_on_c, 0, 84, 80
1, 43128, Note_on_c, 0, 84, 0
1, 43128, Note_on_c, 0, 78, 0
1, 43200, Note_on_c, 0, 79, 80
1, 43200, Note_on_c, 0, 83, 80
1, 43200, Note_on_c, 1, 69, 0
1, 43200, Note_on_c, 1, 57, 0
1, 43200, Note_on_c, 1, 55, 80
1, 43200, Note_on_c, 1, 67, 80
1, 43440, Note_on_c, 0, 83, 0
1, 43440, Note_on_c, 0, 79, 0
1, 43440, Note_on_c, 1, 67, 0
1, 43440, Note_on_c, 1, 55, 0
1, 43560, Note_on_c, 0, 67, 80
1, 43608, Note_on_c, 0, 67, 0
1, 43680, Note_on_c, 0, 67, 80
1, 43728, Note_on_c, 0, 67, 0
1, 43800, Note_on_c, 0, 67, 80
1, 43848, Note_on_c, 0, 67, 0
1, 43920, Note_on_c, 0, 67, 80
1, 43968, Note_on_c, 0, 67, 0
1, 44040, Note_on_c, 0, 67, 80
1, 44088, Note_on_c, 0, 67, 0
1, 44160, Note_on_c, 0, 71, 80
1, 44280, Note_on_c, 0, 71, 0
1, 44280, Note_on_c, 0, 69, 80
1, 44328, Note_on_c, 0, 69, 0
1, 44400, Note_on_c, 0, 67, 80
1, 44448, Note_on_c, 0, 67, 0
1, 44520, Note_on_c, 0, 76, 80
1, 44520, Note_on_c, 1, 67, 80
1, 44520, Note_on_c, 1, 71, 80
1, 44568, Note_on_c, 0, 76, 0
1, 44568, Note_on_c, 1, 71, 0
1, 44568, Note_on_c, 1, 67, 0
1, 44640, Note_on_c, 0, 74, 86
1, 44640, Note_on_c, 1, 66, 86
1, 44640, Note_on_c, 1, 69, 86
1, 44760, Note_on_c, 0, 74, 0
1, 44760, Note_on_c, 0, 73, 76
1, 44808, Note_on_c, 0, 73, 0
1, 44880, Note_on_c, 0, 74, 72
1, 44928, Note_on_c, 0, 74, 0
1, 45000, Note_on_c, 0, 76, 68
1, 45000, Note_on_c, 1, 69, 0
1, 45000, Note_on_c, 1, 66, 0
1, 45000, Note_on_c, 1, 67, 68
1, 45000, Note_on_c, 1, 71, 68
1, 45048, Note_on_c, 0, 76, 0
1, 45048, Note_on_c, 1, 71, 0
1, 45048, Note_on_c, 1, 67, 0
1, 45120, Note_on_c, 0, 74, 72
1, 45120, Note_on_c, 1, 69, 72
1, 45120, Note_on_c, 1, 66, 72
1, 45240, Note_on_c, 0, 74, 0
1, 45240, Note_on_c, 0, 73, 60
1, 45288, Note_on_c, 0, 73, 0
1, 45360, Note_on_c, 0, 74, 56
1, 45408, Note_on_c, 0, 74, 0
1, 45480, Note_on_c, 0, 76, 52
1, 45480, Note_on_c, 1, 66, 0
1, 45480, Note_on_c, 1, 69, 0
1, 45480, Note_on_c, 1, 71, 52
1, 45480, Note_on_c, 1, 67, 52
1, 45528, Note_on_c, 0, 76, 0
1, 45528, Note_on_c, 1, 67, 0
1, 45528, Note_on_c, 1, 71, 0
1, 45600, Note_on_c, 0, 74, 56
1, 45600, Note_on_c, 1, 66, 56
1, 45600, Note_on_c, 1, 69, 56
1, 45720, Note_on_c, 0, 74, 0
1, 45720, Note_on_c, 0, 73, 48
1, 45768, Note_on_c, 0, 73, 0
1, 45840, Note_on_c, 0, 74, 48
1, 45840, Note_on_c, 1, 69, 0
1, 45840, Note_on_c, 1, 66, 0
1, 45936, Note_on_c, 0, 74, 0
1, 46920, Note_on_c, 1, 54, 80
1, 46968, Note_on_c, 1, 54, 0
1, 47040, Note_on_c, 1, 54, 80
1, 47088, Note_on_c, 1, 54, 0
1, 47160, Note_on_c, 1, 54, 80
1, 47208, Note_on_c, 1, 54, 0
1, 47280, Note_on_c, 1, 54, 80
1, 47328, Note_on_c, 1, 54, 0
1, 47400, Note_on_c, 1, 54, 80
1, 47448, Note_on_c, 1, 54, 0
1, 47520, Note_on_c, 1, 57, 80
1, 47640, Note_on_c, 1, 57, 0
1, 47640, Note_on_c, 1, 56, 80
1, 47688, Note_on_c, 1, 56, 0
1, 47760, Note_on_c, 1, 54, 80
1, 47808, Note_on_c, 1, 54, 0
1, 47880, Note_on_c, 0, 68, 80
1, 47880, Note_on_c, 1, 62, 80
1, 47928, Note_on_c, 0, 68, 0
1, 47928, Note_on_c, 1, 62, 0
1, 48000, Note_on_c, 0, 68, 80
1, 48000, Note_on_c, 1, 61, 80
1, 48048, Note_on_c, 0, 68, 0
1, 48048, Note_on_c, 1, 61, 0
1, 48120, Note_on_c, 0, 68, 80
1, 48120, Note_on_c, 1, 59, 80
1, 48168, Note_on_c, 0, 68, 0
1, 48168, Note_on_c, 1, 59, 0
1, 48240, Note_on_c, 0, 68, 80
1, 48240, Note_on_c, 1, 57, 80
1, 48288, Note_on_c, 0, 68, 0
1, 48288, Note_on_c, 1, 57, 0
1, 48360, Note_on_c, 0, 68, 80
1, 48360, Note_on_c, 1, 56, 80
1, 48408, Note_on_c, 0, 68, 0
1, 48408, Note_on_c, 1, 56, 0
1, 48480, Note_on_c, 0, 71, 80
1, 48480, Note_on_c, 1, 54, 80
1, 48600, Note_on_c, 0, 71, 0
1, 48600, Note_on_c, 0, 69, 80
1, 48648, Note_on_c, 0, 69, 0
1, 48720, Note_on_c, 0, 68, 80
1, 48768, Note_on_c, 0, 68, 0
1, 48840, Note_on_c, 0, 74, 80
1, 48840, Note_on_c, 1, 54, 0
1, 48840, Note_on_c, 1, 61, 80
1, 48888, Note_on_c, 0, 74, 0
1, 48888, Note_on_c, 1, 61, 0
1, 48960, Note_on_c, 0, 73, 80
1, 48960, Note_on_c, 1, 53, 80
1, 48960, Note_on_c, 1, 61, 80
1, 49008, Note_on_c, 0, 73, 0
1, 49008, Note_on_c, 1, 61, 0
1, 49080, Note_on_c, 0, 71, 80
1, 49080, Note_on_c, 1, 53, 0
1, 49080, Note_on_c, 1, 61, 80
1, 49128, Note_on_c, 0, 71, 0
1, 49128, Note_on_c, 1, 61, 0
1, 49200, Note_on_c, 0, 69, 80
1, 49200, Note_on_c, 1, 61, 80
1, 49248, Note_on_c, 0, 69, 0
1, 49248, Note_on_c, 1, 61, 0
1, 49320, Note_on_c, 0, 68, 80
1, 49320, Note_on_c, 1, 61, 80
1, 49368, Note_on_c, 0, 68, 0
1, 49368, Note_on_c, 1, 61, 0
1, 49440, Note_on_c, 0, 69, 80
1, 49440, Note_on_c, 1, 54, 80
1, 49560, Note_on_c, 0, 69, 0
1, 49560, Note_on_c, 0, 68, 80
1, 49608, Note_on_c, 0, 68, 0
1, 49680, Note_on_c, 0, 66, 80
1, 49680, Note_on_c, 1, 54, 0
1, 49728, Note_on_c, 0, 66, 0
1, 49800, Note_on_c, 0, 78, 80
1, 49800, Note_on_c, 1, 74, 80
1, 49848, Note_on_c, 0, 78, 0
1, 49848, Note_on_c, 1, 74, 0
1, 49920, Note_on_c, 0, 78, 80
1, 49920, Note_on_c, 1, 73, 80
1, 49968, Note_on_c, 0, 78, 0
1, 49968, Note_on_c, 1, 73, 0
1, 50040, Note_on_c, 0, 78, 80
1, 50040, Note_on_c, 1, 71, 80
1, 50088, Note_on_c, 0, 78, 0
1, 50088, Note_on_c, 1, 71, 0
1, 50160, Note_on_c, 0, 78, 80
1, 50160, Note_on_c, 1, 69, 80
1, 50208, Note_on_c, 0, 78, 0
1, 50208, Note_on_c, 1, 69, 0
1, 50280, Note_on_c, 0, 78, 80
1, 50280, Note_on_c, 1, 68, 80
1, 50328, Note_on_c, 0, 78, 0
1, 50328, Note_on_c, 1, 68, 0
1, 50400, Note_on_c, 0, 81, 80
1, 50400, Note_on_c, 1, 66, 80
1, 50520, Note_on_c, 0, 81, 0
1, 50520, Note_on_c, 0, 80, 80
1, 50568, Note_on_c, 0, 80, 0
1, 50640, Note_on_c, 0, 78, 80
1, 50688, Note_on_c, 0, 78, 0
1, 50760, Note_on_c, 0, 86, 80
1, 50760, Note_on_c, 1, 66, 0
1, 50760, Note_on_c, 1, 73, 80
1, 50808, Note_on_c, 0, 86, 0
1, 50808, Note_on_c, 1, 73, 0
1, 50880, Note_on_c, 0, 85, 80
1, 50880, Note_on_c, 1, 65, 80
1, 50880, Note_on_c, 1, 73, 80
1, 50928, Note_on_c, 0, 85, 0
1, 50928, Note_on_c, 1, 73, 0
1, 51000, Note_on_c, 0, 83, 80
1, 51000, Note_on_c, 1, 65, 0
1, 51000, Note_on_c, 1, 73, 80
1, 51048, Note_on_c, 0, 83, 0
1, 51048, Note_on_c, 1, 73, 0
1, 51120, Note_on_c, 0, 81, 80
1, 51120, Note_on_c, 1, 73, 80
1, 51168, Note_on_c, 0, 81, 0
1, 51168, Note_on_c, 1, 73, 0
1, 51240, Note_on_c, 0, 80, 80
1, 51240, Note_on_c, 1, 73, 80
1, 51288, Note_on_c, 0, 80, 0
1, 51288, Note_on_c, 1, 73, 0
1, 51360, Note_on_c, 0, 78, 80
1, 51360, Note_on_c, 1, 66, 80
1, 51360, Note_on_c, 1, 73, 80
1, 51420, Note_on_c, 0, 78, 0
1, 51420, Note_on_c, 0, 80, 80
1, 51480, Note_on_c, 0, 80, 0
1, 51480, Note_on_c, 0, 81, 80
1, 51540, Note_on_c, 0, 81, 0
1, 51540, Note_on_c, 0, 80, 80
1, 51600, Note_on_c, 0, 80, 0
1, 51600, Note_on_c, 0, 78, 80
1, 51600, Note_on_c, 1, 73, 0
1, 51600, Note_on_c, 1, 66, 0
1, 51660, Note_on_c, 0, 78, 0
1, 51660, Note_on_c, 0, 80, 80
1, 51720, Note_on_c, 0, 80, 0
1, 51720, Note_on_c, 0, 81, 80
1, 51720, Note_on_c, 1, 54, 80
1, 51720, Note_on_c, 1, 66, 80
1, 51780, Note_on_c, 0, 81, 0
1, 51780, Note_on_c, 0, 80, 80
1, 51840, Note_on_c, 0, 80, 0
1, 51840, Note_on_c, 0, 78, 80
1, 51840, Note_on_c, 1, 66, 0
1, 51840, Note_on_c, 1, 54, 0
1, 51840, Note_on_c, 1, 52, 80
1, 51840, Note_on_c, 1, 64, 80
1, 51888, Note_on_c, 1, 64, 0
1, 51888, Note_on_c, 1, 52, 0
1, 51900, Note_on_c, 0, 78, 0
1, 51900, Note_on_c, 0, 80, 80
1, 51960, Note_on_c, 0, 80, 0
1, 51960, Note_on_c, 0, 81, 80
1, 51960, Note_on_c, 1, 50, 80
1, 51960, Note_on_c, 1, 62, 80
1, 52008, Note_on_c, 1, 62, 0
1, 52008, Note_on_c, 1, 50, 0
1, 52020, Note_on_c, 0, 81, 0
1, 52020, Note_on_c, 0, 80, 80
1, 52080, Note_on_c, 0, 80, 0
1, 52080, Note_on_c, 0, 78, 80
1, 52080, Note_on_c, 1, 49, 80
1, 52080, Note_on_c, 1, 61, 80
1, 52128, Note_on_c, 1, 61, 0
1, 52128, Note_on_c, 1, 49, 0
1, 52140, Note_on_c, 0, 78, 0
1, 52140, Note_on_c, 0, 80, 80
1, 52200, Note_on_c, 0, 80, 0
1, 52200, Note_on_c, 0, 81, 80
1, 52200, Note_on_c, 1, 47, 80
1, 52200, Note_on_c, 1, 59, 80
1, 52248, Note_on_c, 1, 59, 0
1, 52248, Note_on_c, 1, 47, 0
1, 52260, Note_on_c, 0, 81, 0
1, 52260, Note_on_c, 0, 80, 80
1, 52320, Note_on_c, 0, 80, 0
1, 52320, Note_on_c, 0, 78, 80
1, 52320, Note_on_c, 1, 45, 80
1, 52320, Note_on_c, 1, 57, 80
1, 52380, Note_on_c, 0, 78, 0
1, 52380, Note_on_c, 0, 80, 80
1, 52440, Note_on_c, 0, 80, 0
1, 52440, Note_on_c, 0, 81, 80
1, 52500, Note_on_c, 0, 81, 0
1, 52500, Note_on_c, 0, 80, 80
1, 52560, Note_on_c, 0, 80, 0
1, 52560, Note_on_c, 0, 78, 80
1, 52560, Note_on_c, 1, 57, 0
1, 52560, Note_on_c, 1, 45, 0
1, 52620, Note_on_c, 0, 78, 0
1, 52620, Note_on_c, 0, 80, 80
1, 52680, Note_on_c, 0, 80, 0
1, 52680, Note_on_c, 0, 81, 80
1, 52680, Note_on_c, 1, 50, 80
1, 52680, Note_on_c, 1, 62, 80
1, 52740, Note_on_c, 0, 81, 0
1, 52740, Note_on_c, 0, 80, 80
1, 52800, Note_on_c, 0, 80, 0
1, 52800, Note_on_c, 0, 78, 80
1, 52800, Note_on_c, 1, 62, 0
1, 52800, Note_on_c, 1, 50, 0
1, 52800, Note_on_c, 1, 49, 80
1, 52800, Note_on_c, 1, 61, 80
1, 52848, Note_on_c, 1, 61, 0
1, 52848, Note_on_c, 1, 49, 0
1, 52860, Note_on_c, 0, 78, 0
1, 52860, Note_on_c, 0, 80, 80
1, 52920, Note_on_c, 0, 80, 0
1, 52920, Note_on_c, 0, 81, 80
1, 52920, Note_on_c, 1, 47, 80
1, 52920, Note_on_c, 1, 59, 80
1, 52968, Note_on_c, 1, 59, 0
1, 52968, Note_on_c, 1, 47, 0
1, 52980, Note_on_c, 0, 81, 0
1, 52980, Note_on_c, 0, 80, 80
1, 53040, Note_on_c, 0, 80, 0
1, 53040, Note_on_c, 0, 78, 80
1, 53040, Note_on_c, 1, 45, 80
1, 53040, Note_on_c, 1, 57, 80
1, 53088, Note_on_c, 1, 57, 0
1, 53088, Note_on_c, 1, 45, 0
1, 53100, Note_on_c, 0, 78, 0
1, 53100, Note_on_c, 0, 80, 80
1, 53160, Note_on_c, 0, 80, 0
1, 53160, Note_on_c, 0, 81, 80
1, 53160, Note_on_c, 1, 44, 80
1, 53160, Note_on_c, 1, 56, 80
1, 53208, Note_on_c, 1, 56, 0
1, 53208, Note_on_c, 1, 44, 0
1, 53220, Note_on_c, 0, 81, 0
1, 53220, Note_on_c, 0, 80, 80
1, 53280, Note_on_c, 0, 80, 0
1, 53280, Note_on_c, 0, 78, 80
1, 53280, Note_on_c, 1, 42, 80
1, 53280, Note_on_c, 1, 54, 80
1, 53340, Note_on_c, 0, 78, 0
1, 53340, Note_on_c, 0, 80, 80
1, 53400, Note_on_c, 0, 80, 0
1, 53400, Note_on_c, 0, 81, 80
1, 53460, Note_on_c, 0, 81, 0
1, 53460, Note_on_c, 0, 80, 80
1, 53520, Note_on_c, 0, 80, 0
1, 53520, Note_on_c, 0, 78, 80
1, 53520, Note_on_c, 1, 54, 0
1, 53520, Note_on_c, 1, 42, 0
1, 53580, Note_on_c, 0, 78, 0
1, 53580, Note_on_c, 0, 80, 80
1, 53640, Note_on_c, 0, 80, 0
1, 53640, Note_on_c, 0, 81, 80
1, 53700, Note_on_c, 0, 81, 0
1, 53700, Note_on_c, 0, 80, 80
1, 53760, Note_on_c, 0, 80, 0
1, 53760, Note_on_c, 0, 78, 80
1, 53820, Note_on_c, 0, 78, 0
1, 53820, Note_on_c, 0, 80, 80
1, 53880, Note_on_c, 0, 80, 0
1, 53880, Note_on_c, 0, 81, 80
1, 53940, Note_on_c, 0, 81, 0
1, 53940, Note_on_c, 0, 80, 80
1, 54000, Note_on_c, 0, 80, 0
1, 54000, Note_on_c, 0, 78, 80
1, 54060, Note_on_c, 0, 78, 0
1, 54060, Note_on_c, 0, 76, 80
1, 54120, Note_on_c, 0, 76, 0
1, 54120, Note_on_c, 0, 75, 80
1, 54180, Note_on_c, 0, 75, 0
1, 54180, Note_on_c, 0, 73, 80
1, 54240, Note_on_c, 0, 73, 0
1, 54240, Note_on_c, 0, 72, 80
1, 54240, Note_on_c, 1, 66, 80
1, 54240, Note_on_c, 1, 68, 80
1, 54288, Note_on_c, 1, 68, 0
1, 54288, Note_on_c, 1, 66, 0
1, 54300, Note_on_c, 0, 72, 0
1, 54300, Note_on_c, 0, 73, 80
1, 54360, Note_on_c, 0, 73, 0
1, 54360, Note_on_c, 0, 74, 80
1, 54360, Note_on_c, 1, 66, 80
1, 54360, Note_on_c, 1, 68, 80
1, 54408, Note_on_c, 1, 68, 0
1, 54408, Note_on_c, 1, 66, 0
1, 54420, Note_on_c, 0, 74, 0
1, 54420, Note_on_c, 0, 73, 80
1, 54480, Note_on_c, 0, 73, 0
1, 54480, Note_on_c, 0, 72, 80
1, 54480, Note_on_c, 1, 66, 80
1, 54480, Note_on_c, 1, 68, 80
1, 54528, Note_on_c, 1, 68, 0
1, 54528, Note_on_c, 1, 66, 0
1, 54540, Note_on_c, 0, 72, 0
1, 54540, Note_on_c, 0, 73, 80
1, 54600, Note_on_c, 0, 73, 0
1, 54600, Note_on_c, 0, 74, 80
1, 54600, Note_on_c, 1, 66, 80
1, 54600, Note_on_c, 1, 68, 80
1, 54648, Note_on_c, 1, 68, 0
1, 54648, Note_on_c, 1, 66, 0
1, 54660, Note_on_c, 0, 74, 0
1, 54660, Note_on_c, 0, 73, 80
1, 54720, Note_on_c, 0, 73, 0
1, 54720, Note_on_c, 0, 72, 80
1, 54720, Note_on_c, 1, 66, 80
1, 54720, Note_on_c, 1, 68, 80
1, 54780, Note_on_c, 0, 72, 0
1, 54780, Note_on_c, 0, 81, 80
1, 54840, Note_on_c, 0, 81, 0
1, 54840, Note_on_c, 0, 80, 80
1, 54900, Note_on_c, 0, 80, 0
1, 54900, Note_on_c, 0, 78, 80
1, 54960, Note_on_c, 0, 78, 0
1, 54960, Note_on_c, 0, 76, 80
1, 54960, Note_on_c, 1, 68, 0
1, 54960, Note_on_c, 1, 66, 0
1, 55020, Note_on_c, 0, 76, 0
1, 55020, Note_on_c, 0, 75, 80
1, 55080, Note_on_c, 0, 75, 0
1, 55080, Note_on_c, 0, 73, 80
1, 55140, Note_on_c, 0, 73, 0
1, 55140, Note_on_c, 0, 72, 80
1, 55200, Note_on_c, 0, 72, 0
1, 55200, Note_on_c, 0, 73, 80
1, 55200, Note_on_c, 1, 64, 80
1, 55200, Note_on_c, 1, 68, 80
1, 55248, Note_on_c, 1, 68, 0
1, 55248, Note_on_c, 1, 64, 0
1, 55260, Note_on_c, 0, 73, 0
1, 55260, Note_on_c, 0, 75, 80
1, 55320, Note_on_c, 0, 75, 0
1, 55320, Note_on_c, 0, 76, 80
1, 55320, Note_on_c, 1, 64, 80
1, 55320, Note_on_c, 1, 68, 80
1, 55368, Note_on_c, 1, 68, 0
1, 55368, Note_on_c, 1, 64, 0
1, 55380, Note_on_c, 0, 76, 0
1, 55380, Note_on_c, 0, 75, 80
1, 55440, Note_on_c, 0, 75, 0
1, 55440, Note_on_c, 0, 73, 80
1, 55440, Note_on_c, 1, 64, 80
1, 55440, Note_on_c, 1, 68, 80
1, 55488, Note_on_c, 1, 68, 0
1, 55488, Note_on_c, 1, 64, 0
1, 55500, Note_on_c, 0, 73, 0
1, 55500, Note_on_c, 0, 75, 80
1, 55560, Note_on_c, 0, 75, 0
1, 55560, Note_on_c, 0, 76, 80
1, 55560, Note_on_c, 1, 64, 80
1, 55560, Note_on_c, 1, 68, 80
1, 55608, Note_on_c, 1, 68, 0
1, 55608, Note_on_c, 1, 64, 0
1, 55620, Note_on_c, 0, 76, 0
1, 55620, Note_on_c, 0, 75, 80
1, 55680, Note_on_c, 0, 75, 0
1, 55680, Note_on_c, 0, 73, 80
1, 55680, Note_on_c, 1, 64, 80
1, 55680, Note_on_c, 1, 68, 80
1, 55800, Note_on_c, 0, 73, 0
1, 55800, Note_on_c, 0, 80, 80
1, 55860, Note_on_c, 0, 80, 0
1, 55860, Note_on_c, 0, 78, 80
1, 55920, Note_on_c, 0, 78, 0
1, 55920, Note_on_c, 0, 76, 80
1, 55920, Note_on_c, 1, 68, 0
1, 55920, Note_on_c, 1, 64, 0
1, 55980, Note_on_c, 0, 76, 0
1, 55980, Note_on_c, 0, 75, 80
1, 56040, Note_on_c, 0, 75, 0
1, 56040, Note_on_c, 0, 73, 80
1, 56100, Note_on_c, 0, 73, 0
1, 56100, Note_on_c, 0, 71, 80
1, 56160, Note_on_c, 0, 71, 0
1, 56160, Note_on_c, 0, 70, 80
1, 56160, Note_on_c, 1, 64, 80
1, 56160, Note_on_c, 1, 66, 80
1, 56208, Note_on_c, 1, 66, 0
1, 56208, Note_on_c, 1, 64, 0
1, 56220, Note_on_c, 0, 70, 0
1, 56220, Note_on_c, 0, 71, 80
1, 56280, Note_on_c, 0, 71, 0
1, 56280, Note_on_c, 0, 73, 80
1, 56280, Note_on_c, 1, 64, 80
1, 56280, Note_on_c, 1, 66, 80
1, 56328, Note_on_c, 1, 66, 0
1, 56328, Note_on_c, 1, 64, 0
1, 56340, Note_on_c, 0, 73, 0
1, 56340, Note_on_c, 0, 71, 80
1, 56400, Note_on_c, 0, 71, 0
1, 56400, Note_on_c, 0, 70, 80
1, 56400, Note_on_c, 1, 64, 80
1, 56400, Note_on_c, 1, 66, 80
1, 56448, Note_on_c, 1, 66, 0
1, 56448, Note_on_c, 1, 64, 0
1, 56460, Note_on_c, 0, 70, 0
1, 56460, Note_on_c, 0, 71, 80
1, 56520, Note_on_c, 0, 71, 0
1, 56520, Note_on_c, 0, 73, 80
1, 56520, Note_on_c, 1, 64, 80
1, 56520, Note_on_c, 1, 66, 80
1, 56568, Note_on_c, 1, 66, 0
1, 56568, Note_on_c, 1, 64, 0
1, 56580, Note_on_c, 0, 73, 0
1, 56580, Note_on_c, 0, 71, 80
1, 56640, Note_on_c, 0, 71, 0
1, 56640, Note_on_c, 0, 70, 80
1, 56640, Note_on_c, 1, 64, 80
1, 56640, Note_on_c, 1, 66, 80
1, 56700, Note_on_c, 0, 70, 0
1, 56700, Note_on_c, 0, 79, 80
1, 56760, Note_on_c, 0, 79, 0
1, 56760, Note_on_c, 0, 78, 80
1, 56820, Note_on_c, 0, 78, 0
1, 56820, Note_on_c, 0, 76, 80
1, 56880, Note_on_c, 0, 76, 0
1, 56880, Note_on_c, 0, 74, 80
1, 56880, Note_on_c, 1, 66, 0
1, 56880, Note_on_c, 1, 64, 0
1, 56940, Note_on_c, 0, 74, 0
1, 56940, Note_on_c, 0, 73, 80
1, 57000, Note_on_c, 0, 73, 0
1, 57000, Note_on_c, 0, 71, 80
1, 57060, Note_on_c, 0, 71, 0
1, 57060, Note_on_c, 0, 70, 80
1, 57120, Note_on_c, 0, 70, 0
1, 57120, Note_on_c, 0, 71, 80
1, 57120, Note_on_c, 1, 62, 80
1, 57120, Note_on_c, 1, 66, 80
1, 57168, Note_on_c, 1, 66, 0
1, 57168, Note_on_c, 1, 62, 0
1, 57180, Note_on_c, 0, 71, 0
1, 57180, Note_on_c, 0, 73, 80
1, 57240, Note_on_c, 0, 73, 0
1, 57240, Note_on_c, 0, 74, 80
1, 57240, Note_on_c, 1, 62, 80
1, 57240, Note_on_c, 1, 66, 80
1, 57288, Note_on_c, 1, 66, 0
1, 57288, Note_on_c, 1, 62, 0
1, 57300, Note_on_c, 0, 74, 0
1, 57300, Note_on_c, 0, 73, 80
1, 57360, Note_on_c, 0, 73, 0
1, 57360, Note_on_c, 0, 71, 80
1, 57360, Note_on_c, 1, 62, 80
1, 57360, Note_on_c, 1, 66, 80
1, 57408, Note_on_c, 1, 66, 0
1, 57408, Note_on_c, 1, 62, 0
1, 57420, Note_on_c, 0, 71, 0
1, 57420, Note_on_c, 0, 73, 80
1, 57480, Note_on_c, 0, 73, 0
1, 57480, Note_on_c, 0, 74, 80
1, 57480, Note_on_c, 1, 62, 80
1, 57480, Note_on_c, 1, 66, 80
1, 57528, Note_on_c, 1, 66, 0
1, 57528, Note_on_c, 1, 62, 0
1, 57540, Note_on_c, 0, 74, 0
1, 57540, Note_on_c, 0, 73, 80
1, 57600, Note_on_c, 0, 73, 0
1, 57600, Note_on_c, 0, 71, 80
1, 57600, Note_on_c, 1, 62, 80
1, 57600, Note_on_c, 1, 66, 80
1, 57720, Note_on_c, 0, 71, 0
1, 57720, Note_on_c, 0, 79, 80
1, 57780, Note_on_c, 0, 79, 0
1, 57780, Note_on_c, 0, 78, 80
1, 57840, Note_on_c, 0, 78, 0
1, 57840, Note_on_c, 0, 76, 80
1, 57840, Note_on_c, 1, 66, 0
1, 57840, Note_on_c, 1, 62, 0
1, 57900, Note_on_c, 0, 76, 0
1, 57900, Note_on_c, 0, 74, 80
1, 57960, Note_on_c, 0, 74, 0
1, 57960, Note_on_c, 0, 73, 80
1, 58020, Note_on_c, 0, 73, 0
1, 58020, Note_on_c, 0, 71, 80
1, 58080, Note_on_c, 0, 71, 0
1, 58080, Note_on_c, 0, 73, 80
1, 58080, Note_on_c, 1, 58, 80
1, 58080, Note_on_c, 1, 66, 80
1, 58128, Note_on_c, 1, 66, 0
1, 58128, Note_on_c, 1, 58, 0
1, 58140, Note_on_c, 0, 73, 0
1, 58140, Note_on_c, 0, 74, 80
1, 58200, Note_on_c, 0, 74, 0
1, 58200, Note_on_c, 0, 76, 80
1, 58200, Note_on_c, 1, 58, 80
1, 58200, Note_on_c, 1, 66, 80
1, 58248, Note_on_c, 1, 66, 0
1, 58248, Note_on_c, 1, 58, 0
1, 58260, Note_on_c, 0, 76, 0
1, 58260, Note_on_c, 0, 74, 80
1, 58320, Note_on_c, 0, 74, 0
1, 58320, Note_on_c, 0, 73, 80
1, 58320, Note_on_c, 1, 58, 80
1, 58320, Note_on_c, 1, 66, 80
1, 58368, Note_on_c, 1, 66, 0
1, 58368, Note_on_c, 1, 58, 0
1, 58380, Note_on_c, 0, 73, 0
1, 58380, Note_on_c, 0, 74, 80
1, 58440, Note_on_c, 0, 74, 0
1, 58440, Note_on_c, 0, 76, 80
1, 58440, Note_on_c, 1, 58, 80
1, 58440, Note_on_c, 1, 66, 80
1, 58488, Note_on_c, 1, 66, 0
1, 58488, Note_on_c, 1, 58, 0
1, 58500, Note_on_c, 0, 76, 0
1, 58500, Note_on_c, 0, 74, 80
1, 58560, Note_on_c, 0, 74, 0
1, 58560, Note_on_c, 0, 73, 80
1, 58560, Note_on_c, 1, 58, 80
1, 58560, Note_on_c, 1, 66, 80
1, 58680, Note_on_c, 0, 73, 0
1, 58680, Note_on_c, 0, 76, 80
1, 58740, Note_on_c, 0, 76, 0
1, 58740, Note_on_c, 0, 79, 80
1, 58800, Note_on_c, 0, 79, 0
1, 58800, Note_on_c, 0, 78, 80
1, 58800, Note_on_c, 1, 66, 0
1, 58800, Note_on_c, 1, 58, 0
1, 58860, Note_on_c, 0, 78, 0
1, 58860, Note_on_c, 0, 76, 80
1, 58920, Note_on_c, 0, 76, 0
1, 58920, Note_on_c, 0, 74, 80
1, 58980, Note_on_c, 0, 74, 0
1, 58980, Note_on_c, 0, 73, 80
1, 59040, Note_on_c, 0, 73, 0
1, 59040, Note_on_c, 0, 71, 80
1, 59040, Note_on_c, 1, 59, 80
1, 59040, Note_on_c, 1, 66, 80
1, 59100, Note_on_c, 0, 71, 0
1, 59100, Note_on_c, 0, 73, 80
1, 59160, Note_on_c, 0, 73, 0
1, 59160, Note_on_c, 0, 74, 80
1, 59220, Note_on_c, 0, 74, 0
1, 59220, Note_on_c, 0, 73, 80
1, 59280, Note_on_c, 0, 73, 0
1, 59280, Note_on_c, 0, 71, 80
1, 59280, Note_on_c, 1, 66, 0
1, 59280, Note_on_c, 1, 59, 0
1, 59340, Note_on_c, 0, 71, 0
1, 59340, Note_on_c, 0, 73, 80
1, 59400, Note_on_c, 0, 73, 0
1, 59400, Note_on_c, 0, 74, 80
1, 59460, Note_on_c, 0, 74, 0
1, 59460, Note_on_c, 0, 73, 80
1, 59520, Note_on_c, 0, 73, 0
1, 59520, Note_on_c, 0, 71, 80
1, 59520, Note_on_c, 1, 55, 80
1, 59520, Note_on_c, 1, 65, 80
1, 59580, Note_on_c, 0, 71, 0
1, 59580, Note_on_c, 0, 73, 80
1, 59640, Note_on_c, 0, 73, 0
1, 59640, Note_on_c, 0, 74, 80
1, 59700, Note_on_c, 0, 74, 0
1, 59700, Note_on_c, 0, 73, 80
1, 59760, Note_on_c, 0, 73, 0
1, 59760, Note_on_c, 0, 71, 80
1, 59760, Note_on_c, 1, 65, 0
1, 59760, Note_on_c, 1, 55, 0
1, 59820, Note_on_c, 0, 71, 0
1, 59820, Note_on_c, 0, 74, 80
1, 59880, Note_on_c, 0, 74, 0
1, 59880, Note_on_c, 0, 73, 80
1, 59940, Note_on_c, 0, 73, 0
1, 59940, Note_on_c, 0, 71, 80
1, 60000, Note_on_c, 0, 71, 0
1, 60000, Note_on_c, 0, 70, 96
1, 60000, Note_on_c, 0, 78, 96
1, 60000, Note_on_c, 1, 54, 96
1, 60000, Note_on_c, 1, 66, 96
1, 60240, Note_on_c, 0, 78, 0
1, 60240, Note_on_c, 0, 70, 0
1, 60240, Note_on_c, 1, 66, 0
1, 60240, Note_on_c, 1, 54, 0
1, 61320, Note_on_c, 0, 59, 72
1, 61368, Note_on_c, 0, 59, 0
1, 61440, Note_on_c, 0, 59, 72
1, 61488, Note_on_c, 0, 59, 0
1, 61560, Note_on_c, 0, 59, 72
1, 61608, Note_on_c, 0, 59, 0
1, 61680, Note_on_c, 0, 59, 72
1, 61728, Note_on_c, 0, 59, 0
1, 61800, Note_on_c, 0, 59, 72
1, 61848, Note_on_c, 0, 59, 0
1, 61920, Note_on_c, 0, 62, 80
1, 62040, Note_on_c, 0, 62, 0
1, 62040, Note_on_c, 0, 61, 72
1, 62124, Note_on_c, 0, 61, 0
1, 62160, Note_on_c, 0, 59, 72
1, 62208, Note_on_c, 0, 59, 0
1, 62280, Note_on_c, 0, 67, 72
1, 62280, Note_on_c, 1, 59, 72
1, 62328, Note_on_c, 0, 67, 0
1, 62400, Note_on_c, 0, 66, 72
1, 62400, Note_on_c, 1, 59, 0
1, 62400, Note_on_c, 1, 58, 72
1, 62520, Note_on_c, 0, 66, 0
1, 62520, Note_on_c, 0, 65, 72
1, 62604, Note_on_c, 0, 65, 0
1, 62640, Note_on_c, 0, 66, 72
1, 62640, Note_on_c, 1, 58, 0
1, 62688, Note_on_c, 0, 66, 0
1, 62760, Note_on_c, 0, 64, 72
1, 62760, Note_on_c, 1, 55, 72
1, 62808, Note_on_c, 0, 64, 0
1, 62880, Note_on_c, 0, 62, 72
1, 62880, Note_on_c, 1, 55, 0
1, 62880, Note_on_c, 1, 54, 72
1, 63000, Note_on_c, 0, 62, 0
1, 63000, Note_on_c, 0, 61, 72
1, 63084, Note_on_c, 0, 61, 0
1, 63120, Note_on_c, 0, 62, 72
1, 63120, Note_on_c, 1, 54, 0
1, 63168, Note_on_c, 0, 62, 0
1, 63240, Note_on_c, 0, 61, 72
1, 63240, Note_on_c, 1, 52, 72
1, 63288, Note_on_c, 0, 61, 0
1, 63360, Note_on_c, 0, 59, 72
1, 63360, Note_on_c, 1, 52, 0
1, 63360, Note_on_c, 1, 50, 72
1, 63480, Note_on_c, 0, 59, 0
1, 63480, Note_on_c, 0, 58, 72
1, 63528, Note_on_c, 0, 58, 0
1, 63600, Note_on_c, 0, 59, 72
1, 63600, Note_on_c, 1, 50, 0
1, 63648, Note_on_c, 0, 59, 0
1, 63720, Note_on_c, 0, 59, 72
1, 63720, Note_on_c, 1, 55, 72
1, 63768, Note_on_c, 0, 59, 0
1, 63768, Note_on_c, 1, 55, 0
1, 63840, Note_on_c, 0, 59, 72
1, 63840, Note_on_c, 1, 54, 72
1, 63888, Note_on_c, 0, 59, 0
1, 63888, Note_on_c, 1, 54, 0
1, 63960, Note_on_c, 0, 59, 72
1, 63960, Note_on_c, 1, 52, 72
1, 64008, Note_on_c, 0, 59, 0
1, 64008, Note_on_c, 1, 52, 0
1, 64080, Note_on_c, 0, 59, 72
1, 64080, Note_on_c, 1, 50, 72
1, 64128, Note_on_c, 0, 59, 0
1, 64128, Note_on_c, 1, 50, 0
1, 64200, Note_on_c, 0, 64, 72
1, 64200, Note_on_c, 1, 49, 72
1, 64248, Note_on_c, 0, 64, 0
1, 64248, Note_on_c, 1, 49, 0
1, 64320, Note_on_c, 0, 62, 80
1, 64320, Note_on_c, 1, 47, 72
1, 64440, Note_on_c, 0, 62, 0
1, 64440, Note_on_c, 0, 61, 72
1, 64488, Note_on_c, 0, 61, 0
1, 64560, Note_on_c, 0, 59, 72
1, 64560, Note_on_c, 1, 47, 0
1, 64608, Note_on_c, 0, 59, 0
1, 64680, Note_on_c, 0, 67, 72
1, 64680, Note_on_c, 1, 47, 72
1, 64728, Note_on_c, 0, 67, 0
1, 64728, Note_on_c, 1, 47, 0
1, 64800, Note_on_c, 0, 66, 72
1, 64800, Note_on_c, 1, 47, 72
1, 64848, Note_on_c, 0, 66, 0
1, 64848, Note_on_c, 1, 47, 0
1, 64920, Note_on_c, 0, 64, 72
1, 64920, Note_on_c, 1, 47, 72
1, 64968, Note_on_c, 0, 64, 0
1, 64968, Note_on_c, 1, 47, 0
1, 65040, Note_on_c, 0, 62, 72
1, 65040, Note_on_c, 1, 47, 72
1, 65088, Note_on_c, 0, 62, 0
1, 65088, Note_on_c, 1, 47, 0
1, 65160, Note_on_c, 0, 61, 72
1, 65160, Note_on_c, 1, 52, 72
1, 65208, Note_on_c, 0, 61, 0
1, 65208, Note_on_c, 1, 52, 0
1, 65280, Note_on_c, 0, 59, 72
1, 65280, Note_on_c, 1, 50, 80
1, 65400, Note_on_c, 1, 50, 0
1, 65400, Note_on_c, 1, 49, 72
1, 65448, Note_on_c, 1, 49, 0
1, 65520, Note_on_c, 0, 59, 0
1, 65520, Note_on_c, 1, 47, 72
1, 65568, Note_on_c, 1, 47, 0
1, 65640, Note_on_c, 0, 59, 72
1, 65640, Note_on_c, 1, 55, 72
1, 65688, Note_on_c, 0, 59, 0
1, 65688, Note_on_c, 1, 55, 0
1, 65760, Note_on_c, 0, 59, 72
1, 65760, Note_on_c, 1, 54, 72
1, 65808, Note_on_c, 0, 59, 0
1, 65808, Note_on_c, 1, 54, 0
1, 65880, Note_on_c, 0, 59, 72
1, 65880, Note_on_c, 1, 52, 72
1, 65928, Note_on_c, 0, 59, 0
1, 65928, Note_on_c, 1, 52, 0
1, 66000, Note_on_c, 0, 59, 72
1, 66000, Note_on_c, 1, 50, 72
1, 66048, Note_on_c, 0, 59, 0
1, 66048, Note_on_c, 1, 50, 0
1, 66120, Note_on_c, 0, 64, 72
1, 66120, Note_on_c, 1, 49, 72
1, 66168, Note_on_c, 0, 64, 0
1, 66168, Note_on_c, 1, 49, 0
1, 66240, Note_on_c, 0, 62, 80
1, 66240, Note_on_c, 1, 47, 72
1, 66360, Note_on_c, 0, 62, 0
1, 66360, Note_on_c, 0, 61, 72
1, 66408, Note_on_c, 0, 61, 0
1, 66480, Note_on_c, 0, 59, 72
1, 66480, Note_on_c, 1, 47, 0
1, 66528, Note_on_c, 0, 59, 0
1, 66600, Note_on_c, 0, 71, 72
1, 66648, Note_on_c, 0, 71, 0
1, 66720, Note_on_c, 0, 69, 72
1, 66720, Note_on_c, 1, 59, 72
1, 66720, Note_on_c, 1, 55, 72
1, 66840, Note_on_c, 0, 69, 0
1, 66840, Note_on_c, 0, 67, 72
1, 66960, Note_on_c, 0, 67, 0
1, 66960, Note_on_c, 0, 66, 72
1, 67080, Note_on_c, 0, 66, 0
1, 67080, Note_on_c, 0, 65, 72
1, 67200, Note_on_c, 0, 65, 0
1, 67200, Note_on_c, 0, 66, 72
1, 67200, Note_on_c, 1, 55, 0
1, 67200, Note_on_c, 1, 59, 0
1, 67200, Note_on_c, 1, 58, 72
1, 67200, Note_on_c, 1, 54, 72
1, 67440, Note_on_c, 0, 66, 0
1, 67440, Note_on_c, 1, 54, 0
1, 67440, Note_on_c, 1, 58, 0
1, 67560, Note_on_c, 0, 61, 64
1, 67560, Note_on_c, 0, 64, 64
1, 67608, Note_on_c, 0, 64, 0
1, 67608, Note_on_c, 0, 61, 0
1, 67680, Note_on_c, 0, 61, 64
1, 67680, Note_on_c, 0, 64, 64
1, 67728, Note_on_c, 0, 64, 0
1, 67728, Note_on_c, 0, 61, 0
1, 67800, Note_on_c, 0, 61, 64
1, 67800, Note_on_c, 0, 64, 64
1, 67848, Note_on_c, 0, 64, 0
1, 67848, Note_on_c, 0, 61, 0
1, 67920, Note_on_c, 0, 61, 64
1, 67920, Note_on_c, 0, 64, 64
1, 67968, Note_on_c, 0, 64, 0
1, 67968, Note_on_c, 0, 61, 0
1, 68040, Note_on_c, 0, 61, 64
1, 68040, Note_on_c, 0, 64, 64
1, 68088, Note_on_c, 0, 64, 0
1, 68088, Note_on_c, 0, 61, 0
1, 68160, Note_on_c, 0, 64, 64
1, 68160, Note_on_c, 0, 67, 64
1, 68160, Note_on_c, 1, 54, 64
1, 68280, Note_on_c, 0, 67, 0
1, 68280, Note_on_c, 0, 64, 0
1, 68280, Note_on_c, 0, 62, 64
1, 68280, Note_on_c, 0, 66, 64
1, 68328, Note_on_c, 0, 66, 0
1, 68328, Note_on_c, 0, 62, 0
1, 68400, Note_on_c, 0, 61, 64
1, 68400, Note_on_c, 0, 64, 64
1, 68400, Note_on_c, 1, 54, 0
1, 68448, Note_on_c, 0, 64, 0
1, 68448, Note_on_c, 0, 61, 0
1, 68520, Note_on_c, 0, 61, 48
1, 68520, Note_on_c, 0, 64, 48
1, 68568, Note_on_c, 0, 64, 0
1, 68568, Note_on_c, 0, 61, 0
1, 68640, Note_on_c, 0, 61, 48
1, 68640, Note_on_c, 0, 64, 48
1, 68688, Note_on_c, 0, 64, 0
1, 68688, Note_on_c, 0, 61, 0
1, 68760, Note_on_c, 0, 61, 48
1, 68760, Note_on_c, 0, 64, 48
1, 68808, Note_on_c, 0, 64, 0
1, 68808, Note_on_c, 0, 61, 0
1, 68880, Note_on_c, 0, 61, 48
1, 68880, Note_on_c, 0, 64, 48
1, 68928, Note_on_c, 0, 64, 0
1, 68928, Note_on_c, 0, 61, 0
1, 69000, Note_on_c, 0, 61, 48
1, 69000, Note_on_c, 0, 64, 48
1, 69048, Note_on_c, 0, 64, 0
1, 69048, Note_on_c, 0, 61, 0
1, 69120, Note_on_c, 0, 64, 48
1, 69120, Note_on_c, 0, 67, 48
1, 69120, Note_on_c, 1, 54, 48
1, 69240, Note_on_c, 0, 67, 0
1, 69240, Note_on_c, 0, 64, 0
1, 69240, Note_on_c, 0, 62, 48
1, 69240, Note_on_c, 0, 66, 48
1, 69288, Note_on_c, 0, 66, 0
1, 69288, Note_on_c, 0, 62, 0
1, 69360, Note_on_c, 0, 61, 64
1, 69360, Note_on_c, 0, 64, 64
1, 69360, Note_on_c, 1, 54, 0
1, 69408, Note_on_c, 0, 64, 0
1, 69408, Note_on_c, 0, 61, 0
1, 69480, Note_on_c, 0, 63, 80
1, 69480, Note_on_c, 0, 75, 80
1, 69528, Note_on_c, 0, 75, 0
1, 69528, Note_on_c, 0, 63, 0
1, 69600, Note_on_c, 0, 64, 80
1, 69600, Note_on_c, 0, 76, 80
1, 69648, Note_on_c, 0, 76, 0
1, 69648, Note_on_c, 0, 64, 0
1, 69720, Note_on_c, 0, 63, 80
1, 69720, Note_on_c, 0, 75, 80
1, 69768, Note_on_c, 0, 75, 0
1, 69768, Note_on_c, 0, 63, 0
1, 69840, Note_on_c, 0, 64, 80
1, 69840, Note_on_c, 0, 76, 80
1, 69888, Note_on_c, 0, 76, 0
1, 69888, Note_on_c, 0, 64, 0
1, 69960, Note_on_c, 0, 66, 80
1, 69960, Note_on_c, 0, 78, 80
1, 70008, Note_on_c, 0, 78, 0
1, 70008, Note_on_c, 0, 66, 0
1, 70080, Note_on_c, 0, 67, 80
1, 70080, Note_on_c, 0, 79, 80
1, 70200, Note_on_c, 1, 51, 80
1, 70200, Note_on_c, 1, 63, 80
1, 70248, Note_on_c, 1, 63, 0
1, 70248, Note_on_c, 1, 51, 0
1, 70320, Note_on_c, 0, 79, 0
1, 70320, Note_on_c, 0, 67, 0
1, 70320, Note_on_c, 1, 52, 80
1, 70320, Note_on_c, 1, 64, 80
1, 70440, Note_on_c, 0, 76, 64
1, 70440, Note_on_c, 0, 79, 64
1, 70560, Note_on_c, 0, 79, 0
1, 70560, Note_on_c, 0, 76, 0
1, 70560, Note_on_c, 0, 74, 64
1, 70560, Note_on_c, 0, 78, 64
1, 70560, Note_on_c, 1, 64, 0
1, 70560, Note_on_c, 1, 52, 0
1, 70680, Note_on_c, 1, 66, 64
1, 70728, Note_on_c, 1, 66, 0
1, 70800, Note_on_c, 0, 78, 0
1, 70800, Note_on_c, 0, 74, 0
1, 70800, Note_on_c, 1, 66, 64
1, 70896, Note_on_c, 1, 66, 0
1, 70920, Note_on_c, 0, 73, 64
1, 70920, Note_on_c, 0, 76, 64
1, 71040, Note_on_c, 0, 76, 0
1, 71040, Note_on_c, 0, 73, 0
1, 71040, Note_on_c, 0, 71, 64
1, 71040, Note_on_c, 0, 74, 64
1, 71160, Note_on_c, 1, 67, 64
1, 71208, Note_on_c, 1, 67, 0
1, 71280, Note_on_c, 0, 74, 0
1, 71280, Note_on_c, 0, 71, 0
1, 71280, Note_on_c, 1, 67, 64
1, 71376, Note_on_c, 1, 67, 0
1, 71400, Note_on_c, 0, 63, 80
1, 71400, Note_on_c, 0, 75, 80
1, 71448, Note_on_c, 0, 75, 0
1, 71448, Note_on_c, 0, 63, 0
1, 71520, Note_on_c, 0, 64, 80
1, 71520, Note_on_c, 0, 76, 80
1, 71568, Note_on_c, 0, 76, 0
1, 71568, Note_on_c, 0, 64, 0
1, 71640, Note_on_c, 0, 63, 80
1, 71640, Note_on_c, 0, 75, 80
1, 71688, Note_on_c, 0, 75, 0
1, 71688, Note_on_c, 0, 63, 0
1, 71760, Note_on_c, 0, 64, 80
1, 71760, Note_on_c, 0, 76, 80
1, 71808, Note_on_c, 0, 76, 0
1, 71808, Note_on_c, 0, 64, 0
1, 71880, Note_on_c, 0, 66, 80
1, 71880, Note_on_c, 0, 78, 80
1, 71928, Note_on_c, 0, 78, 0
1, 71928, Note_on_c, 0, 66, 0
1, 72000, Note_on_c, 0, 67, 80
1, 72000, Note_on_c, 0, 79, 80
1, 72120, Note_on_c, 1, 39, 80
1, 72120, Note_on_c, 1, 51, 80
1, 72240, Note_on_c, 1, 51, 0
1, 72240, Note_on_c, 1, 39, 0
1, 72240, Note_on_c, 1, 40, 80
1, 72240, Note_on_c, 1, 52, 80
1, 72360, Note_on_c, 0, 79, 0
1, 72360, Note_on_c, 0, 67, 0
1, 72360, Note_on_c, 0, 64, 80
1, 72360, Note_on_c, 0, 76, 80
1, 72480, Note_on_c, 0, 76, 0
1, 72480, Note_on_c, 0, 64, 0
1, 72480, Note_on_c, 0, 70, 80
1, 72480, Note_on_c, 0, 82, 80
1, 72600, Note_on_c, 1, 52, 0
1, 72600, Note_on_c, 1, 40, 0
1, 72600, Note_on_c, 1, 38, 80
1, 72600, Note_on_c, 1, 50, 80
1, 72720, Note_on_c, 1, 50, 0
1, 72720, Note_on_c, 1, 38, 0
1, 72720, Note_on_c, 1, 37, 80
1, 72720, Note_on_c, 1, 49, 80
1, 72840, Note_on_c, 0, 82, 0
1, 72840, Note_on_c, 0, 70, 0
1, 72840, Note_on_c, 0, 71, 80
1, 72840, Note_on_c, 0, 83, 80
1, 72960, Note_on_c, 0, 83, 0
1, 72960, Note_on_c, 0, 71, 0
1, 72960, Note_on_c, 0, 73, 80
1, 72960, Note_on_c, 0, 85, 80
1, 73080, Note_on_c, 1, 49, 0
1, 73080, Note_on_c, 1, 37, 0
1, 73080, Note_on_c, 1, 35, 80
1, 73080, Note_on_c, 1, 47, 80
1, 73200, Note_on_c, 1, 47, 0
1, 73200, Note_on_c, 1, 35, 0
1, 73200, Note_on_c, 1, 34, 80
1, 73200, Note_on_c, 1, 46, 80
1, 73320, Note_on_c, 0, 85, 0
1, 73320, Note_on_c, 0, 73, 0
1, 73320, Note_on_c, 0, 74, 80
1, 73320, Note_on_c, 0, 86, 80
1, 73440, Note_on_c, 0, 86, 0
1, 73440, Note_on_c, 0, 74, 0
1, 73440, Note_on_c, 0, 76, 80
1, 73440, Note_on_c, 0, 88, 80
1, 73560, Note_on_c, 1, 46, 0
1, 73560, Note_on_c, 1, 34, 0
1, 73560, Note_on_c, 1, 32, 80
1, 73560, Note_on_c, 1, 44, 80
1, 73680, Note_on_c, 1, 44, 0
1, 73680, Note_on_c, 1, 32, 0
1, 73680, Note_on_c, 1, 30, 80
1, 73680, Note_on_c, 1, 42, 80
1, 74145, Note_on_c, 0, 88, 0
1, 74145, Note_on_c, 0, 76, 0
1, 74145, Note_on_c, 1, 42, 0
1, 74145, Note_on_c, 1, 30, 0
1, 74760, Note_on_c, 0, 71, 80
1, 74808, Note_on_c, 0, 71, 0
1, 74880, Note_on_c, 0, 71, 80
1, 74928, Note_on_c, 0, 71, 0
1, 75000, Note_on_c, 0, 71, 80
1, 75048, Note_on_c, 0, 71, 0
1, 75120, Note_on_c, 0, 71, 80
1, 75168, Note_on_c, 0, 71, 0
1, 75240, Note_on_c, 0, 71, 80
1, 75288, Note_on_c, 0, 71, 0
1, 75360, Note_on_c, 0, 71, 80
1, 75420, Note_on_c, 0, 71, 0
1, 75420, Note_on_c, 0, 73, 80
1, 75480, Note_on_c, 0, 73, 0
1, 75480, Note_on_c, 0, 74, 80
1, 75540, Note_on_c, 0, 74, 0
1, 75540, Note_on_c, 0, 73, 80
1, 75600, Note_on_c, 0, 73, 0
1, 75600, Note_on_c, 0, 71, 80
1, 75660, Note_on_c, 0, 71, 0
1, 75660, Note_on_c, 0, 73, 80
1, 75720, Note_on_c, 0, 73, 0
1, 75720, Note_on_c, 0, 74, 80
1, 75720, Note_on_c, 1, 59, 80
1, 75780, Note_on_c, 0, 74, 0
1, 75780, Note_on_c, 0, 73, 80
1, 75840, Note_on_c, 0, 73, 0
1, 75840, Note_on_c, 0, 71, 80
1, 75840, Note_on_c, 1, 59, 0
1, 75840, Note_on_c, 1, 57, 80
1, 75888, Note_on_c, 1, 57, 0
1, 75900, Note_on_c, 0, 71, 0
1, 75900, Note_on_c, 0, 73, 80
1, 75960, Note_on_c, 0, 73, 0
1, 75960, Note_on_c, 0, 74, 80
1, 75960, Note_on_c, 1, 55, 80
1, 76008, Note_on_c, 1, 55, 0
1, 76020, Note_on_c, 0, 74, 0
1, 76020, Note_on_c, 0, 73, 80
1, 76080, Note_on_c, 0, 73, 0
1, 76080, Note_on_c, 0, 71, 80
1, 76080, Note_on_c, 1, 54, 80
1, 76128, Note_on_c, 1, 54, 0
1, 76140, Note_on_c, 0, 71, 0
1, 76140, Note_on_c, 0, 73, 80
1, 76200, Note_on_c, 0, 73, 0
1, 76200, Note_on_c, 0, 74, 80
1, 76200, Note_on_c, 1, 52, 80
1, 76248, Note_on_c, 1, 52, 0
1, 76260, Note_on_c, 0, 74, 0
1, 76260, Note_on_c, 0, 73, 80
1, 76320, Note_on_c, 0, 73, 0
1, 76320, Note_on_c, 0, 71, 80
1, 76320, Note_on_c, 1, 50, 80
1, 76380, Note_on_c, 0, 71, 0
1, 76380, Note_on_c, 0, 73, 80
1, 76440, Note_on_c, 0, 73, 0
1, 76440, Note_on_c, 0, 74, 80
1, 76500, Note_on_c, 0, 74, 0
1, 76500, Note_on_c, 0, 73, 80
1, 76560, Note_on_c, 0, 73, 0
1, 76560, Note_on_c, 0, 71, 80
1, 76560, Note_on_c, 1, 50, 0
1, 76620, Note_on_c, 0, 71, 0
1, 76620, Note_on_c, 0, 73, 80
1, 76680, Note_on_c, 0, 73, 0
1, 76680, Note_on_c, 0, 74, 80
1, 76680, Note_on_c, 1, 55, 80
1, 76740, Note_on_c, 0, 74, 0
1, 76740, Note_on_c, 0, 73, 80
1, 76800, Note_on_c, 0, 73, 0
1, 76800, Note_on_c, 0, 71, 80
1, 76800, Note_on_c, 1, 55, 0
1, 76800, Note_on_c, 1, 54, 80
1, 76848, Note_on_c, 1, 54, 0
1, 76860, Note_on_c, 0, 71, 0
1, 76860, Note_on_c, 0, 73, 80
1, 76920, Note_on_c, 0, 73, 0
1, 76920, Note_on_c, 0, 74, 80
1, 76920, Note_on_c, 1, 52, 80
1, 76968, Note_on_c, 1, 52, 0
1, 76980, Note_on_c, 0, 74, 0
1, 76980, Note_on_c, 0, 73, 80
1, 77040, Note_on_c, 0, 73, 0
1, 77040, Note_on_c, 0, 71, 80
1, 77040, Note_on_c, 1, 50, 80
1, 77088, Note_on_c, 1, 50, 0
1, 77100, Note_on_c, 0, 71, 0
1, 77100, Note_on_c, 0, 73, 80
1, 77160, Note_on_c, 0, 73, 0
1, 77160, Note_on_c, 0, 74, 80
1, 77160, Note_on_c, 1, 49, 80
1, 77208, Note_on_c, 1, 49, 0
1, 77220, Note_on_c, 0, 74, 0
1, 77220, Note_on_c, 0, 73, 80
1, 77280, Note_on_c, 0, 73, 0
1, 77280, Note_on_c, 0, 71, 80
1, 77280, Note_on_c, 1, 47, 80
1, 77340, Note_on_c, 0, 71, 0
1, 77340, Note_on_c, 0, 73, 80
1, 77400, Note_on_c, 0, 73, 0
1, 77400, Note_on_c, 0, 74, 80
1, 77460, Note_on_c, 0, 74, 0
1, 77460, Note_on_c, 0, 73, 80
1, 77520, Note_on_c, 0, 73, 0
1, 77520, Note_on_c, 0, 71, 80
1, 77520, Note_on_c, 1, 47, 0
1, 77580, Note_on_c, 0, 71, 0
1, 77580, Note_on_c, 0, 73, 80
1, 77640, Note_on_c, 0, 73, 0
1, 77640, Note_on_c, 0, 74, 80
1, 77640, Note_on_c, 1, 52, 80
1, 77700, Note_on_c, 0, 74, 0
1, 77700, Note_on_c, 0, 73, 80
1, 77760, Note_on_c, 0, 73, 0
1, 77760, Note_on_c, 0, 71, 80
1, 77760, Note_on_c, 1, 52, 0
1, 77760, Note_on_c, 1, 50, 80
1, 77808, Note_on_c, 1, 50, 0
1, 77820, Note_on_c, 0, 71, 0
1, 77820, Note_on_c, 0, 73, 80
1, 77880, Note_on_c, 0, 73, 0
1, 77880, Note_on_c, 0, 74, 80
1, 77880, Note_on_c, 1, 49, 80
1, 77928, Note_on_c, 1, 49, 0
1, 77940, Note_on_c, 0, 74, 0
1, 77940, Note_on_c, 0, 73, 80
1, 78000, Note_on_c, 0, 73, 0
1, 78000, Note_on_c, 0, 71, 80
1, 78000, Note_on_c, 1, 47, 80
1, 78048, Note_on_c, 1, 47, 0
1, 78060, Note_on_c, 0, 71, 0
1, 78060, Note_on_c, 0, 73, 80
1, 78120, Note_on_c, 0, 73, 0
1, 78120, Note_on_c, 0, 74, 80
1, 78120, Note_on_c, 1, 45, 80
1, 78168, Note_on_c, 1, 45, 0
1, 78180, Note_on_c, 0, 74, 0
1, 78180, Note_on_c, 0, 73, 80
1, 78240, Note_on_c, 0, 73, 0
1, 78240, Note_on_c, 0, 71, 80
1, 78240, Note_on_c, 1, 43, 80
1, 78300, Note_on_c, 0, 71, 0
1, 78300, Note_on_c, 0, 73, 80
1, 78360, Note_on_c, 0, 73, 0
1, 78360, Note_on_c, 0, 74, 80
1, 78420, Note_on_c, 0, 74, 0
1, 78420, Note_on_c, 0, 73, 80
1, 78480, Note_on_c, 0, 73, 0
1, 78480, Note_on_c, 0, 71, 80
1, 78480, Note_on_c, 1, 43, 0
1, 78540, Note_on_c, 0, 71, 0
1, 78540, Note_on_c, 0, 73, 80
1, 78600, Note_on_c, 0, 73, 0
1, 78600, Note_on_c, 0, 74, 80
1, 78660, Note_on_c, 0, 74, 0
1, 78660, Note_on_c, 0, 73, 80
1, 78720, Note_on_c, 0, 73, 0
1, 78720, Note_on_c, 0, 71, 80
1, 78720, Note_on_c, 1, 55, 80
1, 78720, Note_on_c, 1, 65, 80
1, 78780, Note_on_c, 0, 71, 0
1, 78780, Note_on_c, 0, 73, 80
1, 78840, Note_on_c, 0, 73, 0
1, 78840, Note_on_c, 0, 74, 80
1, 78900, Note_on_c, 0, 74, 0
1, 78900, Note_on_c, 0, 76, 80
1, 78960, Note_on_c, 0, 76, 0
1, 78960, Note_on_c, 0, 78, 80
1, 79020, Note_on_c, 0, 78, 0
1, 79020, Note_on_c, 0, 80, 80
1, 79080, Note_on_c, 0, 80, 0
1, 79080, Note_on_c, 0, 82, 80
1, 79140, Note_on_c, 0, 82, 0
1, 79140, Note_on_c, 0, 83, 80
1, 79200, Note_on_c, 0, 83, 0
1, 79200, Note_on_c, 0, 82, 80
1, 79200, Note_on_c, 1, 65, 0
1, 79200, Note_on_c, 1, 55, 0
1, 79200, Note_on_c, 1, 54, 80
1, 79200, Note_on_c, 1, 66, 80
1, 79260, Note_on_c, 0, 82, 0
1, 79260, Note_on_c, 0, 78, 80
1, 79320, Note_on_c, 0, 78, 0
1, 79320, Note_on_c, 0, 77, 80
1, 79380, Note_on_c, 0, 77, 0
1, 79380, Note_on_c, 0, 78, 80
1, 79440, Note_on_c, 0, 78, 0
1, 79440, Note_on_c, 0, 76, 80
1, 79440, Note_on_c, 1, 66, 0
1, 79440, Note_on_c, 1, 54, 0
1, 79440, Note_on_c, 1, 70, 80
1, 79500, Note_on_c, 0, 76, 0
1, 79500, Note_on_c, 0, 79, 80
1, 79560, Note_on_c, 0, 79, 0
1, 79560, Note_on_c, 0, 78, 80
1, 79620, Note_on_c, 0, 78, 0
1, 79620, Note_on_c, 0, 76, 80
1, 79680, Note_on_c, 0, 76, 0
1, 79680, Note_on_c, 0, 74, 80
1, 79680, Note_on_c, 1, 70, 0
1, 79680, Note_on_c, 1, 71, 80
1, 79740, Note_on_c, 0, 74, 0
1, 79740, Note_on_c, 0, 78, 80
1, 79800, Note_on_c, 0, 78, 0
1, 79800, Note_on_c, 0, 76, 80
1, 79860, Note_on_c, 0, 76, 0
1, 79860, Note_on_c, 0, 74, 80
1, 79920, Note_on_c, 0, 74, 0
1, 79920, Note_on_c, 0, 73, 80
1, 79920, Note_on_c, 1, 71, 0
1, 79920, Note_on_c, 1, 64, 80
1, 79980, Note_on_c, 0, 73, 0
1, 79980, Note_on_c, 0, 76, 80
1, 80040, Note_on_c, 0, 76, 0
1, 80040, Note_on_c, 0, 74, 80
1, 80100, Note_on_c, 0, 74, 0
1, 80100, Note_on_c, 0, 73, 80
1, 80160, Note_on_c, 0, 73, 0
1, 80160, Note_on_c, 0, 78, 80
1, 80160, Note_on_c, 1, 64, 0
1, 80160, Note_on_c, 1, 62, 80
1, 80220, Note_on_c, 0, 78, 0
1, 80220, Note_on_c, 0, 74, 80
1, 80280, Note_on_c, 0, 74, 0
1, 80280, Note_on_c, 0, 73, 80
1, 80340, Note_on_c, 0, 73, 0
1, 80340, Note_on_c, 0, 71, 80
1, 80400, Note_on_c, 0, 71, 0
1, 80400, Note_on_c, 0, 79, 80
1, 80400, Note_on_c, 1, 62, 0
1, 80400, Note_on_c, 1, 64, 80
1, 80460, Note_on_c, 0, 79, 0
1, 80460, Note_on_c, 0, 76, 80
1, 80520, Note_on_c, 0, 76, 0
1, 80520, Note_on_c, 0, 74, 80
1, 80580, Note_on_c, 0, 74, 0
1, 80580, Note_on_c, 0, 73, 80
1, 80640, Note_on_c, 0, 73, 0
1, 80640, Note_on_c, 0, 73, 80
1, 80640, Note_on_c, 1, 64, 0
1, 80640, Note_on_c, 1, 66, 80
1, 80672, Note_on_c, 0, 73, 0
1, 80680, Note_on_c, 0, 74, 80
1, 80712, Note_on_c, 0, 74, 0
1, 80720, Note_on_c, 0, 73, 80
1, 80752, Note_on_c, 0, 73, 0
1, 80760, Note_on_c, 0, 74, 80
1, 80792, Note_on_c, 0, 74, 0
1, 80800, Note_on_c, 0, 73, 80
1, 80832, Note_on_c, 0, 73, 0
1, 80840, Note_on_c, 0, 74, 80
1, 80872, Note_on_c, 0, 74, 0
1, 80880, Note_on_c, 0, 73, 80
1, 80880, Note_on_c, 1, 66, 0
1, 80880, Note_on_c, 1, 54, 80
1, 80928, Note_on_c, 0, 73, 0
1, 80940, Note_on_c, 0, 74, 80
1, 80988, Note_on_c, 0, 74, 0
1, 81000, Note_on_c, 0, 73, 80
1, 81032, Note_on_c, 0, 73, 0
1, 81040, Note_on_c, 0, 71, 80
1, 81072, Note_on_c, 0, 71, 0
1, 81080, Note_on_c, 0, 73, 80
1, 81112, Note_on_c, 0, 73, 0
1, 81120, Note_on_c, 0, 71, 80
1, 81120, Note_on_c, 1, 54, 0
1, 81120, Note_on_c, 1, 59, 80
1, 81180, Note_on_c, 0, 71, 0
1, 81180, Note_on_c, 0, 73, 80
1, 81240, Note_on_c, 0, 73, 0
1, 81240, Note_on_c, 0, 74, 80
1, 81300, Note_on_c, 0, 74, 0
1, 81300, Note_on_c, 0, 73, 80
1, 81360, Note_on_c, 0, 73, 0
1, 81360, Note_on_c, 0, 71, 80
1, 81360, Note_on_c, 1, 59, 0
1, 81420, Note_on_c, 0, 71, 0
1, 81420, Note_on_c, 0, 73, 80
1, 81480, Note_on_c, 0, 73, 0
1, 81480, Note_on_c, 0, 74, 80
1, 81480, Note_on_c, 1, 47, 80
1, 81480, Note_on_c, 1, 59, 80
1, 81540, Note_on_c, 0, 74, 0
1, 81540, Note_on_c, 0, 73, 80
1, 81600, Note_on_c, 0, 73, 0
1, 81600, Note_on_c, 0, 71, 80
1, 81600, Note_on_c, 1, 59, 0
1, 81600, Note_on_c, 1, 47, 0
1, 81600, Note_on_c, 1, 45, 80
1, 81600, Note_on_c, 1, 57, 80
1, 81648, Note_on_c, 1, 57, 0
1, 81648, Note_on_c, 1, 45, 0
1, 81660, Note_on_c, 0, 71, 0
1, 81660, Note_on_c, 0, 73, 80
1, 81720, Note_on_c, 0, 73, 0
1, 81720, Note_on_c, 0, 74, 80
1, 81720, Note_on_c, 1, 43, 80
1, 81720, Note_on_c, 1, 55, 80
1, 81768, Note_on_c, 1, 55, 0
1, 81768, Note_on_c, 1, 43, 0
1, 81780, Note_on_c, 0, 74, 0
1, 81780, Note_on_c, 0, 73, 80
1, 81840, Note_on_c, 0, 73, 0
1, 81840, Note_on_c, 0, 71, 80
1, 81840, Note_on_c, 1, 42, 80
1, 81840, Note_on_c, 1, 54, 80
1, 81888, Note_on_c, 1, 54, 0
1, 81888, Note_on_c, 1, 42, 0
1, 81900, Note_on_c, 0, 71, 0
1, 81900, Note_on_c, 0, 73, 80
1, 81960, Note_on_c, 0, 73, 0
1, 81960, Note_on_c, 0, 74, 80
1, 81960, Note_on_c, 1, 40, 80
1, 81960, Note_on_c, 1, 52, 80
1, 82008, Note_on_c, 1, 52, 0
1, 82008, Note_on_c, 1, 40, 0
1, 82020, Note_on_c, 0, 74, 0
1, 82020, Note_on_c, 0, 73, 80
1, 82080, Note_on_c, 0, 73, 0
1, 82080, Note_on_c, 0, 71, 80
1, 82080, Note_on_c, 1, 38, 80
1, 82080, Note_on_c, 1, 50, 80
1, 82140, Note_on_c, 0, 71, 0
1, 82140, Note_on_c, 0, 73, 80
1, 82200, Note_on_c, 0, 73, 0
1, 82200, Note_on_c, 0, 74, 80
1, 82260, Note_on_c, 0, 74, 0
1, 82260, Note_on_c, 0, 73, 80
1, 82320, Note_on_c, 0, 73, 0
1, 82320, Note_on_c, 0, 71, 80
1, 82320, Note_on_c, 1, 50, 0
1, 82320, Note_on_c, 1, 38, 0
1, 82380, Note_on_c, 0, 71, 0
1, 82380, Note_on_c, 0, 73, 80
1, 82440, Note_on_c, 0, 73, 0
1, 82440, Note_on_c, 0, 74, 80
1, 82440, Note_on_c, 1, 43, 80
1, 82440, Note_on_c, 1, 55, 80
1, 82500, Note_on_c, 0, 74, 0
1, 82500, Note_on_c, 0, 73, 80
1, 82560, Note_on_c, 0, 73, 0
1, 82560, Note_on_c, 0, 71, 80
1, 82560, Note_on_c, 1, 55, 0
1, 82560, Note_on_c, 1, 43, 0
1, 82560, Note_on_c, 1, 42, 80
1, 82560, Note_on_c, 1, 54, 80
1, 82608, Note_on_c, 1, 54, 0
1, 82608, Note_on_c, 1, 42, 0
1, 82620, Note_on_c, 0, 71, 0
1, 82620, Note_on_c, 0, 73, 80
1, 82680, Note_on_c, 0, 73, 0
1, 82680, Note_on_c, 0, 74, 80
1, 82680, Note_on_c, 1, 40, 80
1, 82680, Note_on_c, 1, 52, 80
1, 82728, Note_on_c, 1, 52, 0
1, 82728, Note_on_c, 1, 40, 0
1, 82740, Note_on_c, 0, 74, 0
1, 82740, Note_on_c, 0, 73, 80
1, 82800, Note_on_c, 0, 73, 0
1, 82800, Note_on_c, 0, 71, 80
1, 82800, Note_on_c, 1, 38, 80
1, 82800, Note_on_c, 1, 50, 80
1, 82848, Note_on_c, 1, 50, 0
1, 82848, Note_on_c, 1, 38, 0
1, 82860, Note_on_c, 0, 71, 0
1, 82860, Note_on_c, 0, 73, 80
1, 82920, Note_on_c, 0, 73, 0
1, 82920, Note_on_c, 0, 74, 80
1, 82920, Note_on_c, 1, 37, 80
1, 82920, Note_on_c, 1, 49, 80
1, 82968, Note_on_c, 1, 49, 0
1, 82968, Note_on_c, 1, 37, 0
1, 82980, Note_on_c, 0, 74, 0
1, 82980, Note_on_c, 0, 73, 80
1, 83040, Note_on_c, 0, 73, 0
1, 83040, Note_on_c, 0, 71, 80
1, 83040, Note_on_c, 1, 35, 80
1, 83040, Note_on_c, 1, 47, 80
1, 83100, Note_on_c, 0, 71, 0
1, 83100, Note_on_c, 0, 73, 80
1, 83160, Note_on_c, 0, 73, 0
1, 83160, Note_on_c, 0, 74, 80
1, 83220, Note_on_c, 0, 74, 0
1, 83220, Note_on_c, 0, 73, 80
1, 83280, Note_on_c, 0, 73, 0
1, 83280, Note_on_c, 0, 71, 80
1, 83280, Note_on_c, 1, 47, 0
1, 83280, Note_on_c, 1, 35, 0
1, 83340, Note_on_c, 0, 71, 0
1, 83340, Note_on_c, 0, 73, 80
1, 83400, Note_on_c, 0, 73, 0
1, 83400, Note_on_c, 0, 74, 80
1, 83400, Note_on_c, 1, 40, 80
1, 83400, Note_on_c, 1, 52, 80
1, 83460, Note_on_c, 0, 74, 0
1, 83460, Note_on_c, 0, 73, 80
1, 83520, Note_on_c, 0, 73, 0
1, 83520, Note_on_c, 0, 71, 80
1, 83520, Note_on_c, 1, 52, 0
1, 83520, Note_on_c, 1, 40, 0
1, 83520, Note_on_c, 1, 38, 80
1, 83520, Note_on_c, 1, 50, 80
1, 83568, Note_on_c, 1, 50, 0
1, 83568, Note_on_c, 1, 38, 0
1, 83580, Note_on_c, 0, 71, 0
1, 83580, Note_on_c, 0, 73, 80
1, 83640, Note_on_c, 0, 73, 0
1, 83640, Note_on_c, 0, 74, 80
1, 83640, Note_on_c, 1, 37, 80
1, 83640, Note_on_c, 1, 49, 80
1, 83688, Note_on_c, 1, 49, 0
1, 83688, Note_on_c, 1, 37, 0
1, 83700, Note_on_c, 0, 74, 0
1, 83700, Note_on_c, 0, 73, 80
1, 83760, Note_on_c, 0, 73, 0
1, 83760, Note_on_c, 0, 71, 80
1, 83760, Note_on_c, 1, 35, 80
1, 83760, Note_on_c, 1, 47, 80
1, 83808, Note_on_c, 1, 47, 0
1, 83808, Note_on_c, 1, 35, 0
1, 83820, Note_on_c, 0, 71, 0
1, 83820, Note_on_c, 0, 73, 80
1, 83880, Note_on_c, 0, 73, 0
1, 83880, Note_on_c, 0, 74, 80
1, 83880, Note_on_c, 1, 33, 80
1, 83880, Note_on_c, 1, 45, 80
1, 83928, Note_on_c, 1, 45, 0
1, 83928, Note_on_c, 1, 33, 0
1, 83940, Note_on_c, 0, 74, 0
1, 83940, Note_on_c, 0, 73, 80
1, 84000, Note_on_c, 0, 73, 0
1, 84000, Note_on_c, 0, 71, 80
1, 84000, Note_on_c, 1, 31, 80
1, 84000, Note_on_c, 1, 43, 80
1, 84060, Note_on_c, 0, 71, 0
1, 84060, Note_on_c, 0, 73, 80
1, 84120, Note_on_c, 0, 73, 0
1, 84120, Note_on_c, 0, 74, 80
1, 84180, Note_on_c, 0, 74, 0
1, 84180, Note_on_c, 0, 73, 80
1, 84240, Note_on_c, 0, 73, 0
1, 84240, Note_on_c, 0, 71, 80
1, 84240, Note_on_c, 1, 43, 0
1, 84240, Note_on_c, 1, 31, 0
1, 84300, Note_on_c, 0, 71, 0
1, 84300, Note_on_c, 0, 73, 80
1, 84360, Note_on_c, 0, 73, 0
1, 84360, Note_on_c, 0, 74, 80
1, 84420, Note_on_c, 0, 74, 0
1, 84420, Note_on_c, 0, 73, 80
1, 84480, Note_on_c, 0, 73, 0
1, 84480, Note_on_c, 0, 71, 80
1, 84480, Note_on_c, 1, 55, 80
1, 84480, Note_on_c, 1, 65, 80
1, 84540, Note_on_c, 0, 71, 0
1, 84540, Note_on_c, 0, 73, 80
1, 84600, Note_on_c, 0, 73, 0
1, 84600, Note_on_c, 0, 74, 80
1, 84660, Note_on_c, 0, 74, 0
1, 84660, Note_on_c, 0, 76, 80
1, 84720, Note_on_c, 0, 76, 0
1, 84720, Note_on_c, 0, 78, 80
1, 84780, Note_on_c, 0, 78, 0
1, 84780, Note_on_c, 0, 80, 80
1, 84840, Note_on_c, 0, 80, 0
1, 84840, Note_on_c, 0, 82, 80
1, 84900, Note_on_c, 0, 82, 0
1, 84900, Note_on_c, 0, 83, 80
1, 84960, Note_on_c, 0, 83, 0
1, 84960, Note_on_c, 0, 82, 80
1, 84960, Note_on_c, 1, 65, 0
1, 84960, Note_on_c, 1, 55, 0
1, 84960, Note_on_c, 1, 54, 80
1, 84960, Note_on_c, 1, 66, 80
1, 85020, Note_on_c, 0, 82, 0
1, 85020, Note_on_c, 0, 78, 80
1, 85080, Note_on_c, 0, 78, 0
1, 85080, Note_on_c, 0, 77, 80
1, 85140, Note_on_c, 0, 77, 0
1, 85140, Note_on_c, 0, 78, 80
1, 85200, Note_on_c, 0, 78, 0
1, 85200, Note_on_c, 0, 76, 80
1, 85200, Note_on_c, 1, 66, 0
1, 85200, Note_on_c, 1, 54, 0
1, 85200, Note_on_c, 1, 70, 80
1, 85260, Note_on_c, 0, 76, 0
1, 85260, Note_on_c, 0, 79, 80
1, 85320, Note_on_c, 0, 79, 0
1, 85320, Note_on_c, 0, 78, 80
1, 85380, Note_on_c, 0, 78, 0
1, 85380, Note_on_c, 0, 76, 80
1, 85440, Note_on_c, 0, 76, 0
1, 85440, Note_on_c, 0, 74, 80
1, 85440, Note_on_c, 1, 70, 0
1, 85440, Note_on_c, 1, 71, 80
1, 85500, Note_on_c, 0, 74, 0
1, 85500, Note_on_c, 0, 78, 80
1, 85560, Note_on_c, 0, 78, 0
1, 85560, Note_on_c, 0, 76, 80
1, 85620, Note_on_c, 0, 76, 0
1, 85620, Note_on_c, 0, 74, 80
1, 85680, Note_on_c, 0, 74, 0
1, 85680, Note_on_c, 0, 73, 80
1, 85680, Note_on_c, 1, 71, 0
1, 85680, Note_on_c, 1, 64, 80
1, 85740, Note_on_c, 0, 73, 0
1, 85740, Note_on_c, 0, 76, 80
1, 85800, Note_on_c, 0, 76, 0
1, 85800, Note_on_c, 0, 74, 80
1, 85860, Note_on_c, 0, 74, 0
1, 85860, Note_on_c, 0, 73, 80
1, 85920, Note_on_c, 0, 73, 0
1, 85920, Note_on_c, 0, 78, 80
1, 85920, Note_on_c, 1, 64, 0
1, 85920, Note_on_c, 1, 62, 80
1, 85980, Note_on_c, 0, 78, 0
1, 85980, Note_on_c, 0, 74, 80
1, 86040, Note_on_c, 0, 74, 0
1, 86040, Note_on_c, 0, 73, 80
1, 86100, Note_on_c, 0, 73, 0
1, 86100, Note_on_c, 0, 71, 80
1, 86160, Note_on_c, 0, 71, 0
1, 86160, Note_on_c, 0, 79, 80
1, 86160, Note_on_c, 1, 62, 0
1, 86160, Note_on_c, 1, 64, 80
1, 86220, Note_on_c, 0, 79, 0
1, 86220, Note_on_c, 0, 76, 80
1, 86280, Note_on_c, 0, 76, 0
1, 86280, Note_on_c, 0, 74, 80
1, 86340, Note_on_c, 0, 74, 0
1, 86340, Note_on_c, 0, 73, 80
1, 86400, Note_on_c, 0, 73, 0
1, 86400, Note_on_c, 0, 73, 80
1, 86400, Note_on_c, 1, 64, 0
1, 86400, Note_on_c, 1, 66, 80
1, 86432, Note_on_c, 0, 73, 0
1, 86440, Note_on_c, 0, 74, 80
1, 86472, Note_on_c, 0, 74, 0
1, 86480, Note_on_c, 0, 73, 80
1, 86512, Note_on_c, 0, 73, 0
1, 86520, Note_on_c, 0, 74, 80
1, 86552, Note_on_c, 0, 74, 0
1, 86560, Note_on_c, 0, 73, 80
1, 86592, Note_on_c, 0, 73, 0
1, 86600, Note_on_c, 0, 74, 80
1, 86632, Note_on_c, 0, 74, 0
1, 86640, Note_on_c, 0, 73, 80
1, 86640, Note_on_c, 1, 66, 0
1, 86640, Note_on_c, 1, 54, 80
1, 86688, Note_on_c, 0, 73, 0
1, 86700, Note_on_c, 0, 74, 80
1, 86748, Note_on_c, 0, 74, 0
1, 86760, Note_on_c, 0, 73, 80
1, 86792, Note_on_c, 0, 73, 0
1, 86800, Note_on_c, 0, 71, 80
1, 86832, Note_on_c, 0, 71, 0
1, 86840, Note_on_c, 0, 73, 80
1, 86872, Note_on_c, 0, 73, 0
1, 86880, Note_on_c, 0, 71, 80
1, 86880, Note_on_c, 1, 54, 0
1, 86880, Note_on_c, 1, 59, 80
1, 86880, Note_on_c, 1, 62, 80
1, 86940, Note_on_c, 0, 71, 0
1, 86940, Note_on_c, 0, 78, 80
1, 87000, Note_on_c, 0, 78, 0
1, 87000, Note_on_c, 0, 74, 80
1, 87060, Note_on_c, 0, 74, 0
1, 87060, Note_on_c, 0, 71, 80
1, 87120, Note_on_c, 0, 71, 0
1, 87120, Note_on_c, 0, 70, 52
1, 87120, Note_on_c, 1, 62, 0
1, 87120, Note_on_c, 1, 59, 0
1, 87120, Note_on_c, 1, 54, 52
1, 87120, Note_on_c, 1, 64, 52
1, 87180, Note_on_c, 0, 70, 0
1, 87180, Note_on_c, 0, 76, 52
1, 87240, Note_on_c, 0, 76, 0
1, 87240, Note_on_c, 0, 73, 52
1, 87300, Note_on_c, 0, 73, 0
1, 87300, Note_on_c, 0, 70, 52
1, 87360, Note_on_c, 0, 70, 0
1, 87360, Note_on_c, 0, 71, 56
1, 87360, Note_on_c, 1, 64, 0
1, 87360, Note_on_c, 1, 54, 0
1, 87360, Note_on_c, 1, 59, 56
1, 87360, Note_on_c, 1, 62, 56
1, 87420, Note_on_c, 0, 71, 0
1, 87420, Note_on_c, 0, 78, 56
1, 87480, Note_on_c, 0, 78, 0
1, 87480, Note_on_c, 0, 74, 56
1, 87540, Note_on_c, 0, 74, 0
1, 87540, Note_on_c, 0, 71, 56
1, 87600, Note_on_c, 0, 71, 0
1, 87600, Note_on_c, 0, 70, 60
1, 87600, Note_on_c, 1, 62, 0
1, 87600, Note_on_c, 1, 59, 0
1, 87600, Note_on_c, 1, 54, 60
1, 87600, Note_on_c, 1, 64, 60
1, 87660, Note_on_c, 0, 70, 0
1, 87660, Note_on_c, 0, 76, 60
1, 87720, Note_on_c, 0, 76, 0
1, 87720, Note_on_c, 0, 73, 60
1, 87780, Note_on_c, 0, 73, 0
1, 87780, Note_on_c, 0, 70, 60
1, 87840, Note_on_c, 0, 70, 0
1, 87840, Note_on_c, 0, 71, 64
1, 87840, Note_on_c, 1, 64, 0
1, 87840, Note_on_c, 1, 54, 0
1, 87840, Note_on_c, 1, 59, 64
1, 87840, Note_on_c, 1, 62, 64
1, 87900, Note_on_c, 0, 71, 0
1, 87900, Note_on_c, 0, 78, 64
1, 87960, Note_on_c, 0, 78, 0
1, 87960, Note_on_c, 0, 74, 64
1, 88020, Note_on_c, 0, 74, 0
1, 88020, Note_on_c, 0, 71, 64
1, 88080, Note_on_c, 0, 71, 0
1, 88080, Note_on_c, 0, 70, 68
1, 88080, Note_on_c, 1, 62, 0
1, 88080, Note_on_c, 1, 59, 0
1, 88080, Note_on_c, 1, 54, 68
1, 88080, Note_on_c, 1, 64, 68
1, 88140, Note_on_c, 0, 70, 0
1, 88140, Note_on_c, 0, 76, 68
1, 88200, Note_on_c, 0, 76, 0
1, 88200, Note_on_c, 0, 73, 68
1, 88260, Note_on_c, 0, 73, 0
1, 88260, Note_on_c, 0, 70, 68
1, 88320, Note_on_c, 0, 70, 0
1, 88320, Note_on_c, 0, 71, 72
1, 88320, Note_on_c, 1, 64, 0
1, 88320, Note_on_c, 1, 54, 0
1, 88320, Note_on_c, 1, 59, 72
1, 88320, Note_on_c, 1, 62, 72
1, 88380, Note_on_c, 0, 71, 0
1, 88380, Note_on_c, 0, 78, 72
1, 88440, Note_on_c, 0, 78, 0
1, 88440, Note_on_c, 0, 74, 72
1, 88500, Note_on_c, 0, 74, 0
1, 88500, Note_on_c, 0, 71, 72
1, 88560, Note_on_c, 0, 71, 0
1, 88560, Note_on_c, 0, 70, 76
1, 88560, Note_on_c, 1, 62, 0
1, 88560, Note_on_c, 1, 59, 0
1, 88560, Note_on_c, 1, 54, 76
1, 88560, Note_on_c, 1, 64, 76
1, 88620, Note_on_c, 0, 70, 0
1, 88620, Note_on_c, 0, 76, 76
1, 88680, Note_on_c, 0, 76, 0
1, 88680, Note_on_c, 0, 73, 76
1, 88740, Note_on_c, 0, 73, 0
1, 88740, Note_on_c, 0, 70, 76
1, 88800, Note_on_c, 0, 70, 0
1, 88800, Note_on_c, 0, 71, 80
1, 88800, Note_on_c, 1, 64, 0
1, 88800, Note_on_c, 1, 54, 0
1, 88800, Note_on_c, 1, 59, 80
1, 88800, Note_on_c, 1, 62, 80
1, 88920, Note_on_c, 0, 71, 0
1, 88920, Note_on_c, 0, 71, 80
1, 88920, Note_on_c, 0, 74, 80
1, 88968, Note_on_c, 0, 74, 0
1, 88968, Note_on_c, 0, 71, 0
1, 89040, Note_on_c, 0, 71, 80
1, 89040, Note_on_c, 0, 74, 80
1, 89040, Note_on_c, 1, 62, 0
1, 89040, Note_on_c, 1, 59, 0
1, 89088, Note_on_c, 0, 74, 0
1, 89088, Note_on_c, 0, 71, 0
1, 89160, Note_on_c, 0, 71, 80
1, 89160, Note_on_c, 0, 74, 80
1, 89208, Note_on_c, 0, 74, 0
1, 89208, Note_on_c, 0, 71, 0
1, 89280, Note_on_c, 0, 74, 80
1, 89280, Note_on_c, 0, 78, 80
1, 89400, Note_on_c, 0, 78, 0
1, 89400, Note_on_c, 0, 74, 0
1, 89400, Note_on_c, 0, 71, 80
1, 89400, Note_on_c, 0, 74, 80
1, 89448, Note_on_c, 0, 74, 0
1, 89448, Note_on_c, 0, 71, 0
1, 89520, Note_on_c, 0, 71, 80
1, 89520, Note_on_c, 0, 74, 80
1, 89568, Note_on_c, 0, 74, 0
1, 89568, Note_on_c, 0, 71, 0
1, 89640, Note_on_c, 0, 71, 80
1, 89640, Note_on_c, 0, 74, 80
1, 89688, Note_on_c, 0, 74, 0
1, 89688, Note_on_c, 0, 71, 0
1, 89760, Note_on_c, 0, 83, 80
1, 89760, Note_on_c, 0, 86, 80
1, 90000, Note_on_c, 0, 86, 0
1, 90000, Note_on_c, 0, 83, 0
1, 90600, Note_on_c, 0, 59, 96
1, 90600, Note_on_c, 0, 71, 96
1, 90600, Note_on_c, 1, 47, 96
1, 90648, Note_on_c, 0, 71, 0
1, 90648, Note_on_c, 0, 59, 0
1, 90648, Note_on_c, 1, 47, 0
1, 90720, Note_on_c, 0, 59, 96
1, 90720, Note_on_c, 0, 71, 96
1, 90720, Note_on_c, 1, 47, 96
1, 90768, Note_on_c, 0, 71, 0
1, 90768, Note_on_c, 0, 59, 0
1, 90768, Note_on_c, 1, 47, 0
1, 90840, Note_on_c, 0, 59, 96
1, 90840, Note_on_c, 0, 71, 96
1, 90840, Note_on_c, 1, 47, 96
1, 90888, Note_on_c, 0, 71, 0
1, 90888, Note_on_c, 0, 59, 0
1, 90888, Note_on_c, 1, 47, 0
1, 90960, Note_on_c, 0, 59, 96
1, 90960, Note_on_c, 0, 71, 96
1, 90960, Note_on_c, 1, 47, 96
1, 91008, Note_on_c, 0, 71, 0
1, 91008, Note_on_c, 0, 59, 0
1, 91008, Note_on_c, 1, 47, 0
1, 91080, Note_on_c, 0, 59, 96
1, 91080, Note_on_c, 0, 71, 96
1, 91080, Note_on_c, 1, 47, 96
1, 91128, Note_on_c, 0, 71, 0
1, 91128, Note_on_c, 0, 59, 0
1, 91128, Note_on_c, 1, 47, 0
1, 91200, Note_on_c, 0, 62, 96
1, 91200, Note_on_c, 0, 74, 96
1, 91200, Note_on_c, 1, 50, 96
1, 91320, Note_on_c, 0, 74, 0
1, 91320, Note_on_c, 0, 62, 0
1, 91320, Note_on_c, 0, 61, 96
1, 91320, Note_on_c, 0, 73, 96
1, 91320, Note_on_c, 1, 50, 0
1, 91320, Note_on_c, 1, 49, 96
1, 91368, Note_on_c, 0, 73, 0
1, 91368, Note_on_c, 0, 61, 0
1, 91368, Note_on_c, 1, 49, 0
1, 91440, Note_on_c, 0, 59, 96
1, 91440, Note_on_c, 0, 71, 96
1, 91440, Note_on_c, 1, 47, 96
1, 91488, Note_on_c, 0, 71, 0
1, 91488, Note_on_c, 0, 59, 0
1, 91488, Note_on_c, 1, 47, 0
1, 91560, Note_on_c, 0, 67, 96
1, 91560, Note_on_c, 0, 79, 96
1, 91560, Note_on_c, 1, 55, 96
1, 91608, Note_on_c, 0, 79, 0
1, 91608, Note_on_c, 0, 67, 0
1, 91608, Note_on_c, 1, 55, 0
1, 91680, Note_on_c, 0, 66, 96
1, 91680, Note_on_c, 0, 78, 96
1, 91680, Note_on_c, 1, 54, 96
1, 91800, Note_on_c, 0, 78, 0
1, 91800, Note_on_c, 0, 66, 0
1, 91800, Note_on_c, 0, 65, 96
1, 91800, Note_on_c, 0, 77, 96
1, 91800, Note_on_c, 1, 54, 0
1, 91800, Note_on_c, 1, 53, 96
1, 91848, Note_on_c, 0, 77, 0
1, 91848, Note_on_c, 0, 65, 0
1, 91848, Note_on_c, 1, 53, 0
1, 91920, Note_on_c, 0, 66, 96
1, 91920, Note_on_c, 0, 78, 96
1, 91920, Note_on_c, 1, 54, 96
1, 91968, Note_on_c, 0, 78, 0
1, 91968, Note_on_c, 0, 66, 0
1, 91968, Note_on_c, 1, 54, 0
1, 92040, Note_on_c, 0, 64, 96
1, 92040, Note_on_c, 0, 76, 96
1, 92040, Note_on_c, 1, 52, 96
1, 92088, Note_on_c, 0, 76, 0
1, 92088, Note_on_c, 0, 64, 0
1, 92088, Note_on_c, 1, 52, 0
1, 92160, Note_on_c, 0, 62, 96
1, 92160, Note_on_c, 0, 74, 96
1, 92160, Note_on_c, 1, 50, 96
1, 92280, Note_on_c, 0, 74, 0
1, 92280, Note_on_c, 0, 62, 0
1, 92280, Note_on_c, 0, 61, 96
1, 92280, Note_on_c, 0, 73, 96
1, 92280, Note_on_c, 1, 50, 0
1, 92280, Note_on_c, 1, 49, 96
1, 92328, Note_on_c, 0, 73, 0
1, 92328, Note_on_c, 0, 61, 0
1, 92328, Note_on_c, 1, 49, 0
1, 92400, Note_on_c, 0, 62, 96
1, 92400, Note_on_c, 0, 74, 96
1, 92400, Note_on_c, 1, 50, 96
1, 92448, Note_on_c, 0, 74, 0
1, 92448, Note_on_c, 0, 62, 0
1, 92448, Note_on_c, 1, 50, 0
1, 92520, Note_on_c, 0, 61, 96
1, 92520, Note_on_c, 0, 73, 96
1, 92520, Note_on_c, 1, 49, 96
1, 92568, Note_on_c, 0, 73, 0
1, 92568, Note_on_c, 0, 61, 0
1, 92568, Note_on_c, 1, 49, 0
1, 92640, Note_on_c, 0, 59, 96
1, 92640, Note_on_c, 0, 71, 96
1, 92640, Note_on_c, 1, 47, 96
1, 92760, Note_on_c, 0, 71, 0
1, 92760, Note_on_c, 0, 59, 0
1, 92760, Note_on_c, 0, 58, 96
1, 92760, Note_on_c, 0, 70, 96
1, 92760, Note_on_c, 1, 47, 0
1, 92760, Note_on_c, 1, 46, 96
1, 92808, Note_on_c, 0, 70, 0
1, 92808, Note_on_c, 0, 58, 0
1, 92808, Note_on_c, 1, 46, 0
1, 92880, Note_on_c, 0, 59, 96
1, 92880, Note_on_c, 0, 71, 96
1, 92880, Note_on_c, 1, 47, 96
1, 92928, Note_on_c, 0, 71, 0
1, 92928, Note_on_c, 0, 59, 0
1, 92928, Note_on_c, 1, 47, 0
1, 93000, Note_on_c, 0, 57, 96
1, 93000, Note_on_c, 0, 69, 96
1, 93000, Note_on_c, 1, 45, 96
1, 93048, Note_on_c, 0, 69, 0
1, 93048, Note_on_c, 0, 57, 0
1, 93048, Note_on_c, 1, 45, 0
1, 93120, Note_on_c, 0, 55, 96
1, 93120, Note_on_c, 0, 67, 96
1, 93120, Note_on_c, 1, 43, 96
1, 93360, Note_on_c, 0, 67, 0
1, 93360, Note_on_c, 0, 55, 0
1, 93360, Note_on_c, 1, 43, 0
1, 93600, Note_on_c, 1, 42, 112
1, 93600, Note_on_c, 1, 49, 112
1, 93600, Note_on_c, 1, 52, 112
1, 93600, Note_on_c, 1, 58, 112
1, 93840, Note_on_c, 1, 58, 0
1, 93840, Note_on_c, 1, 42, 0
1, 93840, Note_on_c, 1, 49, 0
1, 93840, Note_on_c, 1, 52, 0
1, 94080, Note_on_c, 1, 35, 127
1, 94080, Note_on_c, 1, 47, 127
1, 94080, Note_on_c, 1, 50, 127
1, 94080, Note_on_c, 1, 54, 127
1, 94080, Note_on_c, 1, 59, 127
1, 94320, Note_on_c, 1, 59, 0
1, 94320, Note_on_c, 1, 50, 0
1, 94320, Note_on_c, 1, 35, 0
1, 94320, Note_on_c, 1, 47, 0
1, 94320, Note_on_c, 1, 54, 0
1, 94330, End_track
0, 0, End_of_file