0, 0, Header, 0, 1, 240
1, 0, Start_track
1, 0, Tempo, 545455
1, 480, Note_on_c, 0, 69, 85
1, 658, Note_on_c, 0, 69, 0
1, 660, Note_on_c, 0, 66, 85
1, 718, Note_on_c, 0, 66, 0
1, 720, Note_on_c, 0, 74, 85
1, 720, Note_on_c, 1, 62, 85
1, 936, Note_on_c, 0, 74, 0
1, 936, Note_on_c, 1, 62, 0
1, 960, Note_on_c, 0, 74, 72
1, 960, Note_on_c, 1, 66, 72
1, 1104, Note_on_c, 0, 74, 0
1, 1104, Note_on_c, 1, 66, 0
1, 1200, Note_on_c, 0, 76, 85
1, 1200, Note_on_c, 1, 62, 85
1, 1258, Note_on_c, 0, 76, 0
1, 1260, Note_on_c, 0, 74, 85
1, 1318, Note_on_c, 0, 74, 0
1, 1320, Note_on_c, 0, 73, 85
1, 1378, Note_on_c, 0, 73, 0
1, 1380, Note_on_c, 0, 74, 85
1, 1438, Note_on_c, 0, 74, 0
1, 1438, Note_on_c, 1, 62, 0
1, 1440, Note_on_c, 0, 73, 85
1, 1440, Note_on_c, 1, 69, 85
1, 1618, Note_on_c, 0, 73, 0
1, 1620, Note_on_c, 0, 76, 85
1, 1678, Note_on_c, 0, 76, 0
1, 1678, Note_on_c, 1, 69, 0
1, 1680, Note_on_c, 0, 79, 85
1, 1680, Note_on_c, 1, 57, 85
1, 1918, Note_on_c, 1, 57, 0
1, 1920, Note_on_c, 1, 61, 85
1, 2100, Note_on_c, 0, 79, 0
1, 2100, Note_on_c, 0, 76, 85
1, 2158, Note_on_c, 0, 76, 0
1, 2158, Note_on_c, 1, 61, 0
1, 2160, Note_on_c, 0, 78, 85
1, 2160, Note_on_c, 1, 62, 85
1, 2338, Note_on_c, 0, 78, 0
1, 2340, Note_on_c, 0, 74, 85
1, 2398, Note_on_c, 0, 74, 0
1, 2398, Note_on_c, 1, 62, 0
1, 2400, Note_on_c, 0, 81, 85
1, 2400, Note_on_c, 1, 66, 85
1, 2578, Note_on_c, 0, 81, 0
1, 2580, Note_on_c, 0, 78, 85
1, 2638, Note_on_c, 0, 78, 0
1, 2638, Note_on_c, 1, 66, 0
1, 2640, Note_on_c, 0, 83, 85
1, 2640, Note_on_c, 1, 67, 85
1, 2818, Note_on_c, 0, 83, 0
1, 2820, Note_on_c, 0, 79, 85
1, 2878, Note_on_c, 0, 79, 0
1, 2878, Note_on_c, 1, 67, 0
1, 2880, Note_on_c, 0, 78, 85
1, 2880, Note_on_c, 1, 69, 85
1, 3118, Note_on_c, 0, 78, 0
1, 3118, Note_on_c, 1, 69, 0
1, 3120, Note_on_c, 0, 76, 72
1, 3120, Note_on_c, 1, 57, 72
1, 3240, Note_on_c, 0, 76, 0
1, 3240, Note_on_c, 1, 57, 0
1, 3360, Note_on_c, 0, 69, 85
1, 3538, Note_on_c, 0, 69, 0
1, 3540, Note_on_c, 0, 66, 85
1, 3598, Note_on_c, 0, 66, 0
1, 3600, Note_on_c, 0, 74, 85
1, 3600, Note_on_c, 1, 62, 85
1, 3816, Note_on_c, 0, 74, 0
1, 3816, Note_on_c, 1, 62, 0
1, 3840, Note_on_c, 0, 74, 72
1, 3840, Note_on_c, 1, 66, 72
1, 4008, Note_on_c, 0, 74, 0
1, 4008, Note_on_c, 1, 66, 0
1, 4080, Note_on_c, 0, 76, 85
1, 4080, Note_on_c, 1, 62, 85
1, 4138, Note_on_c, 0, 76, 0
1, 4140, Note_on_c, 0, 74, 85
1, 4198, Note_on_c, 0, 74, 0
1, 4200, Note_on_c, 0, 73, 85
1, 4258, Note_on_c, 0, 73, 0
1, 4260, Note_on_c, 0, 74, 85
1, 4318, Note_on_c, 0, 74, 0
1, 4318, Note_on_c, 1, 62, 0
1, 4320, Note_on_c, 0, 73, 85
1, 4320, Note_on_c, 1, 69, 85
1, 4498, Note_on_c, 0, 73, 0
1, 4500, Note_on_c, 0, 76, 85
1, 4558, Note_on_c, 0, 76, 0
1, 4558, Note_on_c, 1, 69, 0
1, 4560, Note_on_c, 0, 79, 85
1, 4560, Note_on_c, 1, 61, 85
1, 4738, Note_on_c, 0, 79, 0
1, 4740, Note_on_c, 0, 76, 85
1, 4798, Note_on_c, 0, 76, 0
1, 4798, Note_on_c, 1, 61, 0
1, 4800, Note_on_c, 0, 78, 85
1, 4800, Note_on_c, 1, 62, 85
1, 4978, Note_on_c, 0, 78, 0
1, 4980, Note_on_c, 0, 74, 85
1, 5038, Note_on_c, 0, 74, 0
1, 5038, Note_on_c, 1, 62, 0
1, 5040, Note_on_c, 0, 71, 85
1, 5040, Note_on_c, 1, 55, 85
1, 5040, Note_on_c, 1, 67, 85
1, 5278, Note_on_c, 0, 71, 0
1, 5280, Note_on_c, 0, 76, 85
1, 5400, Note_on_c, 0, 76, 0
1, 5518, Note_on_c, 1, 67, 0
1, 5518, Note_on_c, 1, 55, 0
1, 5520, Note_on_c, 0, 67, 80
1, 5520, Note_on_c, 0, 74, 85
1, 5520, Note_on_c, 1, 57, 85
1, 5520, Note_on_c, 1, 64, 85
1, 5578, Note_on_c, 0, 74, 0
1, 5580, Note_on_c, 0, 73, 85
1, 5638, Note_on_c, 0, 73, 0
1, 5640, Note_on_c, 0, 71, 85
1, 5698, Note_on_c, 0, 71, 0
1, 5700, Note_on_c, 0, 73, 85
1, 5712, Note_on_c, 0, 67, 0
1, 5758, Note_on_c, 0, 73, 0
1, 5758, Note_on_c, 1, 64, 0
1, 5758, Note_on_c, 1, 57, 0
1, 5760, Note_on_c, 0, 74, 85
1, 5760, Note_on_c, 1, 62, 85
1, 5998, Note_on_c, 0, 74, 0
1, 5998, Note_on_c, 1, 62, 0
1, 6000, Note_on_c, 1, 50, 72
1, 6120, Note_on_c, 1, 50, 0
1, 6240, Note_on_c, 0, 81, 85
1, 6418, Note_on_c, 0, 81, 0
1, 6420, Note_on_c, 0, 78, 85
1, 6478, Note_on_c, 0, 78, 0
1, 6480, Note_on_c, 0, 86, 85
1, 6658, Note_on_c, 0, 86, 0
1, 6660, Note_on_c, 0, 81, 85
1, 6718, Note_on_c, 0, 81, 0
1, 6720, Note_on_c, 0, 83, 85
1, 6720, Note_on_c, 1, 74, 85
1, 6898, Note_on_c, 0, 83, 0
1, 6900, Note_on_c, 0, 80, 85
1, 6958, Note_on_c, 0, 80, 0
1, 6958, Note_on_c, 1, 74, 0
1, 6960, Note_on_c, 0, 81, 85
1, 6960, Note_on_c, 1, 73, 85
1, 7138, Note_on_c, 0, 81, 0
1, 7140, Note_on_c, 0, 76, 85
1, 7198, Note_on_c, 0, 76, 0
1, 7198, Note_on_c, 1, 73, 0
1, 7200, Note_on_c, 0, 79, 85
1, 7200, Note_on_c, 1, 71, 85
1, 7378, Note_on_c, 0, 79, 0
1, 7380, Note_on_c, 0, 74, 85
1, 7438, Note_on_c, 0, 74, 0
1, 7438, Note_on_c, 1, 71, 0
1, 7440, Note_on_c, 0, 78, 85
1, 7440, Note_on_c, 1, 69, 85
1, 7618, Note_on_c, 0, 78, 0
1, 7620, Note_on_c, 0, 73, 85
1, 7678, Note_on_c, 0, 73, 0
1, 7678, Note_on_c, 1, 69, 0
1, 7680, Note_on_c, 0, 76, 85
1, 7680, Note_on_c, 1, 67, 85
1, 7858, Note_on_c, 0, 76, 0
1, 7860, Note_on_c, 0, 71, 85
1, 7918, Note_on_c, 0, 71, 0
1, 7918, Note_on_c, 1, 67, 0
1, 7920, Note_on_c, 0, 74, 85
1, 7920, Note_on_c, 1, 66, 85
1, 8098, Note_on_c, 0, 74, 0
1, 8100, Note_on_c, 0, 69, 85
1, 8158, Note_on_c, 0, 69, 0
1, 8158, Note_on_c, 1, 66, 0
1, 8160, Note_on_c, 0, 73, 85
1, 8160, Note_on_c, 0, 79, 85
1, 8160, Note_on_c, 1, 64, 85
1, 8338, Note_on_c, 0, 79, 0
1, 8340, Note_on_c, 0, 76, 85
1, 8398, Note_on_c, 0, 76, 0
1, 8398, Note_on_c, 0, 73, 0
1, 8398, Note_on_c, 1, 64, 0
1, 8400, Note_on_c, 0, 74, 85
1, 8400, Note_on_c, 0, 78, 85
1, 8400, Note_on_c, 1, 62, 85
1, 8578, Note_on_c, 0, 78, 0
1, 8580, Note_on_c, 0, 81, 85
1, 8638, Note_on_c, 0, 81, 0
1, 8638, Note_on_c, 0, 74, 0
1, 8638, Note_on_c, 1, 62, 0
1, 8640, Note_on_c, 0, 74, 85
1, 8640, Note_on_c, 0, 78, 85
1, 8640, Note_on_c, 1, 69, 85
1, 8878, Note_on_c, 0, 78, 0
1, 8878, Note_on_c, 0, 74, 0
1, 8878, Note_on_c, 1, 69, 0
1, 8880, Note_on_c, 0, 73, 72
1, 8880, Note_on_c, 0, 76, 72
1, 8880, Note_on_c, 1, 57, 72
1, 9000, Note_on_c, 0, 76, 0
1, 9000, Note_on_c, 0, 73, 0
1, 9000, Note_on_c, 1, 57, 0
1, 9120, Note_on_c, 0, 81, 85
1, 9298, Note_on_c, 0, 81, 0
1, 9300, Note_on_c, 0, 78, 85
1, 9358, Note_on_c, 0, 78, 0
1, 9360, Note_on_c, 0, 86, 85
1, 9538, Note_on_c, 0, 86, 0
1, 9540, Note_on_c, 0, 81, 85
1, 9598, Note_on_c, 0, 81, 0
1, 9600, Note_on_c, 0, 83, 85
1, 9600, Note_on_c, 1, 74, 85
1, 9778, Note_on_c, 0, 83, 0
1, 9780, Note_on_c, 0, 80, 85
1, 9838, Note_on_c, 0, 80, 0
1, 9838, Note_on_c, 1, 74, 0
1, 9840, Note_on_c, 0, 81, 85
1, 9840, Note_on_c, 1, 73, 85
1, 10018, Note_on_c, 0, 81, 0
1, 10020, Note_on_c, 0, 76, 85
1, 10078, Note_on_c, 0, 76, 0
1, 10078, Note_on_c, 1, 73, 0
1, 10080, Note_on_c, 0, 79, 85
1, 10080, Note_on_c, 1, 71, 85
1, 10258, Note_on_c, 0, 79, 0
1, 10260, Note_on_c, 0, 74, 85
1, 10318, Note_on_c, 0, 74, 0
1, 10318, Note_on_c, 1, 71, 0
1, 10320, Note_on_c, 0, 78, 85
1, 10320, Note_on_c, 1, 69, 85
1, 10498, Note_on_c, 0, 78, 0
1, 10500, Note_on_c, 0, 73, 85
1, 10558, Note_on_c, 0, 73, 0
1, 10558, Note_on_c, 1, 69, 0
1, 10560, Note_on_c, 0, 76, 85
1, 10560, Note_on_c, 1, 67, 85
1, 10738, Note_on_c, 0, 76, 0
1, 10740, Note_on_c, 0, 71, 85
1, 10798, Note_on_c, 0, 71, 0
1, 10798, Note_on_c, 1, 67, 0
1, 10800, Note_on_c, 0, 74, 85
1, 10800, Note_on_c, 1, 66, 85
1, 10978, Note_on_c, 0, 74, 0
1, 10980, Note_on_c, 0, 69, 85
1, 11038, Note_on_c, 0, 69, 0
1, 11038, Note_on_c, 1, 66, 0
1, 11040, Note_on_c, 0, 78, 72
1, 11040, Note_on_c, 1, 69, 72
1, 11278, Note_on_c, 0, 78, 0
1, 11278, Note_on_c, 1, 69, 0
1, 11280, Note_on_c, 0, 76, 74
1, 11280, Note_on_c, 1, 57, 85
1, 11304, Note_on_c, 0, 76, 0
1, 11310, Note_on_c, 0, 78, 75
1, 11334, Note_on_c, 0, 78, 0
1, 11340, Note_on_c, 0, 76, 75
1, 11364, Note_on_c, 0, 76, 0
1, 11370, Note_on_c, 0, 78, 76
1, 11394, Note_on_c, 0, 78, 0
1, 11400, Note_on_c, 0, 76, 77
1, 11416, Note_on_c, 0, 76, 0
1, 11420, Note_on_c, 0, 78, 77
1, 11436, Note_on_c, 0, 78, 0
1, 11440, Note_on_c, 0, 76, 78
1, 11456, Note_on_c, 0, 76, 0
1, 11460, Note_on_c, 0, 74, 79
1, 11484, Note_on_c, 0, 74, 0
1, 11490, Note_on_c, 0, 76, 79
1, 11514, Note_on_c, 0, 76, 0
1, 11518, Note_on_c, 1, 57, 0
1, 11520, Note_on_c, 0, 74, 85
1, 11520, Note_on_c, 1, 62, 85
1, 11758, Note_on_c, 0, 74, 0
1, 11758, Note_on_c, 1, 62, 0
1, 11760, Note_on_c, 1, 50, 72
1, 11880, Note_on_c, 1, 50, 0
1, 12000, Note_on_c, 0, 67, 64
1, 12058, Note_on_c, 0, 67, 0
1, 12060, Note_on_c, 0, 65, 64
1, 12090, Note_on_c, 0, 65, 0
1, 12120, Note_on_c, 0, 64, 64
1, 12150, Note_on_c, 0, 64, 0
1, 12180, Note_on_c, 0, 62, 64
1, 12210, Note_on_c, 0, 62, 0
1, 12240, Note_on_c, 0, 74, 64
1, 12480, Note_on_c, 1, 53, 64
1, 12648, Note_on_c, 1, 53, 0
1, 12660, Note_on_c, 0, 74, 0
1, 12660, Note_on_c, 0, 69, 64
1, 12718, Note_on_c, 0, 69, 0
1, 12720, Note_on_c, 0, 77, 64
1, 12720, Note_on_c, 1, 50, 64
1, 12888, Note_on_c, 1, 50, 0
1, 12898, Note_on_c, 0, 77, 0
1, 12900, Note_on_c, 0, 69, 64
1, 12958, Note_on_c, 0, 69, 0
1, 12960, Note_on_c, 0, 69, 64
1, 12960, Note_on_c, 1, 52, 64
1, 13138, Note_on_c, 0, 69, 0
1, 13140, Note_on_c, 0, 68, 64
1, 13198, Note_on_c, 0, 68, 0
1, 13200, Note_on_c, 0, 67, 64
1, 13438, Note_on_c, 1, 52, 0
1, 13440, Note_on_c, 1, 49, 64
1, 13620, Note_on_c, 0, 67, 0
1, 13620, Note_on_c, 0, 64, 64
1, 13678, Note_on_c, 0, 64, 0
1, 13678, Note_on_c, 1, 49, 0
1, 13680, Note_on_c, 0, 65, 64
1, 13680, Note_on_c, 1, 50, 64
1, 13858, Note_on_c, 0, 65, 0
1, 13860, Note_on_c, 0, 62, 64
1, 13918, Note_on_c, 0, 62, 0
1, 13918, Note_on_c, 1, 50, 0
1, 13920, Note_on_c, 0, 69, 64
1, 13920, Note_on_c, 1, 41, 64
1, 14098, Note_on_c, 0, 69, 0
1, 14100, Note_on_c, 0, 65, 64
1, 14158, Note_on_c, 0, 65, 0
1, 14158, Note_on_c, 1, 41, 0
1, 14160, Note_on_c, 0, 70, 64
1, 14160, Note_on_c, 1, 43, 64
1, 14338, Note_on_c, 0, 70, 0
1, 14340, Note_on_c, 0, 62, 64
1, 14398, Note_on_c, 0, 62, 0
1, 14398, Note_on_c, 1, 43, 0
1, 14400, Note_on_c, 0, 62, 64
1, 14400, Note_on_c, 1, 45, 64
1, 14592, Note_on_c, 0, 62, 0
1, 14638, Note_on_c, 1, 45, 0
1, 14640, Note_on_c, 0, 61, 56
1, 14640, Note_on_c, 1, 33, 56
1, 14760, Note_on_c, 0, 61, 0
1, 14760, Note_on_c, 1, 33, 0
1, 14880, Note_on_c, 0, 70, 80
1, 14928, Note_on_c, 0, 70, 0
1, 14940, Note_on_c, 0, 69, 80
1, 14970, Note_on_c, 0, 69, 0
1, 15000, Note_on_c, 0, 67, 80
1, 15030, Note_on_c, 0, 67, 0
1, 15060, Note_on_c, 0, 65, 80
1, 15090, Note_on_c, 0, 65, 0
1, 15120, Note_on_c, 0, 72, 85
1, 15120, Note_on_c, 1, 53, 85
1, 15120, Note_on_c, 1, 57, 85
1, 15120, Note_on_c, 1, 60, 85
1, 15298, Note_on_c, 0, 72, 0
1, 15300, Note_on_c, 0, 69, 85
1, 15358, Note_on_c, 0, 69, 0
1, 15360, Note_on_c, 0, 77, 85
1, 15538, Note_on_c, 0, 77, 0
1, 15540, Note_on_c, 0, 72, 85
1, 15598, Note_on_c, 0, 72, 0
1, 15598, Note_on_c, 1, 60, 0
1, 15598, Note_on_c, 1, 57, 0
1, 15598, Note_on_c, 1, 53, 0
1, 15600, Note_on_c, 0, 81, 85
1, 15600, Note_on_c, 1, 63, 85
1, 15600, Note_on_c, 1, 65, 85
1, 15778, Note_on_c, 0, 81, 0
1, 15780, Note_on_c, 0, 77, 85
1, 15838, Note_on_c, 0, 77, 0
1, 15838, Note_on_c, 1, 65, 0
1, 15838, Note_on_c, 1, 63, 0
1, 15840, Note_on_c, 0, 82, 80
1, 15840, Note_on_c, 1, 65, 80
1, 15840, Note_on_c, 1, 62, 80
1, 16018, Note_on_c, 0, 82, 0
1, 16020, Note_on_c, 0, 77, 82
1, 16078, Note_on_c, 0, 77, 0
1, 16078, Note_on_c, 1, 62, 0
1, 16080, Note_on_c, 0, 86, 83
1, 16080, Note_on_c, 1, 58, 83
1, 16258, Note_on_c, 0, 86, 0
1, 16260, Note_on_c, 0, 77, 85
1, 16318, Note_on_c, 0, 77, 0
1, 16318, Note_on_c, 1, 58, 0
1, 16318, Note_on_c, 1, 65, 0
1, 16320, Note_on_c, 0, 88, 85
1, 16320, Note_on_c, 1, 55, 85
1, 16320, Note_on_c, 1, 58, 85
1, 16320, Note_on_c, 1, 58, 85
1, 16320, Note_on_c, 1, 55, 85
1, 16498, Note_on_c, 0, 88, 0
1, 16500, Note_on_c, 0, 79, 87
1, 16558, Note_on_c, 0, 79, 0
1, 16558, Note_on_c, 1, 55, 0
1, 16558, Note_on_c, 1, 55, 0
1, 16558, Note_on_c, 1, 58, 0
1, 16558, Note_on_c, 1, 58, 0
1, 16560, Note_on_c, 0, 89, 80
1, 16560, Note_on_c, 1, 57, 127
1, 16560, Note_on_c, 1, 60, 127
1, 16738, Note_on_c, 0, 89, 0
1, 16740, Note_on_c, 0, 77, 85
1, 16798, Note_on_c, 0, 77, 0
1, 16798, Note_on_c, 1, 60, 0
1, 16798, Note_on_c, 1, 57, 0
1, 16800, Note_on_c, 0, 81, 85
1, 16800, Note_on_c, 1, 60, 85
1, 17038, Note_on_c, 0, 81, 0
1, 17038, Note_on_c, 1, 60, 0
1, 17040, Note_on_c, 0, 79, 81
1, 17040, Note_on_c, 1, 48, 85
1, 17064, Note_on_c, 0, 79, 0
1, 17070, Note_on_c, 0, 81, 82
1, 17094, Note_on_c, 0, 81, 0
1, 17100, Note_on_c, 0, 79, 83
1, 17124, Note_on_c, 0, 79, 0
1, 17130, Note_on_c, 0, 81, 84
1, 17154, Note_on_c, 0, 81, 0
1, 17160, Note_on_c, 0, 79, 85
1, 17176, Note_on_c, 0, 79, 0
1, 17180, Note_on_c, 0, 81, 85
1, 17196, Note_on_c, 0, 81, 0
1, 17200, Note_on_c, 0, 79, 86
1, 17216, Note_on_c, 0, 79, 0
1, 17220, Note_on_c, 0, 77, 86
1, 17244, Note_on_c, 0, 77, 0
1, 17250, Note_on_c, 0, 79, 87
1, 17274, Note_on_c, 0, 79, 0
1, 17278, Note_on_c, 1, 48, 0
1, 17280, Note_on_c, 0, 77, 85
1, 17280, Note_on_c, 1, 53, 85
1, 17518, Note_on_c, 1, 53, 0
1, 17520, Note_on_c, 1, 41, 72
1, 17640, Note_on_c, 1, 41, 0
1, 17664, Note_on_c, 0, 77, 0
1, 17760, Note_on_c, 0, 82, 64
1, 17818, Note_on_c, 0, 82, 0
1, 17820, Note_on_c, 0, 81, 64
1, 17850, Note_on_c, 0, 81, 0
1, 17880, Note_on_c, 0, 79, 64
1, 17910, Note_on_c, 0, 79, 0
1, 17940, Note_on_c, 0, 77, 64
1, 17970, Note_on_c, 0, 77, 0
1, 18000, Note_on_c, 0, 84, 64
1, 18240, Note_on_c, 1, 69, 64
1, 18240, Note_on_c, 1, 72, 64
1, 18420, Note_on_c, 0, 84, 0
1, 18420, Note_on_c, 0, 75, 64
1, 18478, Note_on_c, 0, 75, 0
1, 18478, Note_on_c, 1, 72, 0
1, 18478, Note_on_c, 1, 69, 0
1, 18480, Note_on_c, 0, 77, 64
1, 18480, Note_on_c, 1, 67, 64
1, 18480, Note_on_c, 1, 70, 64
1, 18658, Note_on_c, 0, 77, 0
1, 18660, Note_on_c, 0, 75, 64
1, 18718, Note_on_c, 0, 75, 0
1, 18718, Note_on_c, 1, 70, 0
1, 18718, Note_on_c, 1, 67, 0
1, 18720, Note_on_c, 0, 74, 64
1, 18720, Note_on_c, 1, 66, 64
1, 18720, Note_on_c, 1, 69, 64
1, 18898, Note_on_c, 0, 74, 0
1, 18900, Note_on_c, 0, 81, 64
1, 18958, Note_on_c, 0, 81, 0
1, 18960, Note_on_c, 0, 86, 64
1, 19138, Note_on_c, 0, 86, 0
1, 19140, Note_on_c, 0, 81, 64
1, 19198, Note_on_c, 0, 81, 0
1, 19198, Note_on_c, 1, 69, 0
1, 19198, Note_on_c, 1, 66, 0
1, 19200, Note_on_c, 0, 82, 64
1, 19200, Note_on_c, 1, 67, 64
1, 19200, Note_on_c, 1, 74, 64
1, 19378, Note_on_c, 0, 82, 0
1, 19380, Note_on_c, 0, 79, 64
1, 19438, Note_on_c, 0, 79, 0
1, 19438, Note_on_c, 1, 74, 0
1, 19438, Note_on_c, 1, 67, 0
1, 19440, Note_on_c, 0, 84, 64
1, 19440, Note_on_c, 1, 72, 64
1, 19440, Note_on_c, 1, 64, 64
1, 19618, Note_on_c, 0, 84, 0
1, 19620, Note_on_c, 0, 79, 64
1, 19678, Note_on_c, 0, 79, 0
1, 19678, Note_on_c, 1, 64, 0
1, 19680, Note_on_c, 0, 81, 64
1, 19680, Note_on_c, 1, 65, 64
1, 19858, Note_on_c, 0, 81, 0
1, 19860, Note_on_c, 0, 77, 64
1, 19918, Note_on_c, 0, 77, 0
1, 19918, Note_on_c, 1, 65, 0
1, 19918, Note_on_c, 1, 72, 0
1, 19920, Note_on_c, 0, 82, 64
1, 19920, Note_on_c, 1, 55, 64
1, 19920, Note_on_c, 1, 67, 64
1, 20038, Note_on_c, 0, 82, 0
1, 20040, Note_on_c, 0, 79, 64
1, 20098, Note_on_c, 0, 79, 0
1, 20100, Note_on_c, 0, 76, 64
1, 20158, Note_on_c, 0, 76, 0
1, 20158, Note_on_c, 1, 67, 0
1, 20158, Note_on_c, 1, 55, 0
1, 20160, Note_on_c, 0, 74, 64
1, 20160, Note_on_c, 1, 57, 64
1, 20160, Note_on_c, 1, 64, 64
1, 20398, Note_on_c, 0, 74, 0
1, 20400, Note_on_c, 0, 73, 56
1, 20520, Note_on_c, 0, 73, 0
1, 20520, Note_on_c, 1, 64, 0
1, 20520, Note_on_c, 1, 57, 0
1, 20640, Note_on_c, 0, 69, 85
1, 20698, Note_on_c, 0, 69, 0
1, 20700, Note_on_c, 0, 67, 85
1, 20758, Note_on_c, 0, 67, 0
1, 20760, Note_on_c, 0, 65, 85
1, 20818, Note_on_c, 0, 65, 0
1, 20820, Note_on_c, 0, 64, 85
1, 20878, Note_on_c, 0, 64, 0
1, 20880, Note_on_c, 0, 79, 85
1, 21120, Note_on_c, 1, 58, 85
1, 21120, Note_on_c, 1, 61, 85
1, 21300, Note_on_c, 0, 79, 0
1, 21300, Note_on_c, 0, 76, 85
1, 21358, Note_on_c, 0, 76, 0
1, 21358, Note_on_c, 1, 61, 0
1, 21358, Note_on_c, 1, 58, 0
1, 21360, Note_on_c, 0, 85, 85
1, 21360, Note_on_c, 1, 55, 85
1, 21360, Note_on_c, 1, 58, 85
1, 21538, Note_on_c, 0, 85, 0
1, 21540, Note_on_c, 0, 82, 85
1, 21598, Note_on_c, 0, 82, 0
1, 21598, Note_on_c, 1, 58, 0
1, 21598, Note_on_c, 1, 55, 0
1, 21600, Note_on_c, 0, 86, 80
1, 21600, Note_on_c, 1, 53, 80
1, 21600, Note_on_c, 1, 57, 80
1, 21600, Note_on_c, 1, 62, 80
1, 21778, Note_on_c, 0, 86, 0
1, 21780, Note_on_c, 0, 81, 82
1, 21838, Note_on_c, 0, 81, 0
1, 21838, Note_on_c, 1, 62, 0
1, 21838, Note_on_c, 1, 57, 0
1, 21838, Note_on_c, 1, 53, 0
1, 21840, Note_on_c, 0, 88, 83
1, 21840, Note_on_c, 1, 52, 83
1, 21840, Note_on_c, 1, 55, 83
1, 22018, Note_on_c, 0, 88, 0
1, 22020, Note_on_c, 0, 81, 85
1, 22078, Note_on_c, 0, 81, 0
1, 22078, Note_on_c, 1, 55, 0
1, 22078, Note_on_c, 1, 52, 0
1, 22080, Note_on_c, 0, 89, 85
1, 22080, Note_on_c, 1, 50, 85
1, 22080, Note_on_c, 1, 53, 85
1, 22080, Note_on_c, 1, 62, 85
1, 22258, Note_on_c, 0, 89, 0
1, 22260, Note_on_c, 0, 86, 87
1, 22318, Note_on_c, 0, 86, 0
1, 22318, Note_on_c, 1, 62, 0
1, 22318, Note_on_c, 1, 53, 0
1, 22318, Note_on_c, 1, 50, 0
1, 22320, Note_on_c, 0, 84, 88
1, 22320, Note_on_c, 1, 55, 88
1, 22378, Note_on_c, 0, 84, 0
1, 22380, Note_on_c, 0, 82, 85
1, 22410, Note_on_c, 0, 82, 0
1, 22440, Note_on_c, 0, 81, 85
1, 22470, Note_on_c, 0, 81, 0
1, 22500, Note_on_c, 0, 79, 85
1, 22530, Note_on_c, 0, 79, 0
1, 22558, Note_on_c, 1, 55, 0
1, 22560, Note_on_c, 0, 77, 85
1, 22560, Note_on_c, 1, 57, 85
1, 22798, Note_on_c, 0, 77, 0
1, 22798, Note_on_c, 1, 57, 0
1, 22800, Note_on_c, 0, 76, 73
1, 22800, Note_on_c, 1, 45, 85
1, 22824, Note_on_c, 0, 76, 0
1, 22830, Note_on_c, 0, 77, 74
1, 22854, Note_on_c, 0, 77, 0
1, 22860, Note_on_c, 0, 76, 75
1, 22884, Note_on_c, 0, 76, 0
1, 22890, Note_on_c, 0, 77, 76
1, 22914, Note_on_c, 0, 77, 0
1, 22920, Note_on_c, 0, 76, 77
1, 22936, Note_on_c, 0, 76, 0
1, 22940, Note_on_c, 0, 77, 77
1, 22956, Note_on_c, 0, 77, 0
1, 22960, Note_on_c, 0, 76, 78
1, 22976, Note_on_c, 0, 76, 0
1, 22980, Note_on_c, 0, 74, 78
1, 23004, Note_on_c, 0, 74, 0
1, 23010, Note_on_c, 0, 76, 79
1, 23034, Note_on_c, 0, 76, 0
1, 23038, Note_on_c, 1, 45, 0
1, 23040, Note_on_c, 0, 74, 85
1, 23040, Note_on_c, 1, 50, 80
1, 23232, Note_on_c, 1, 50, 0
1, 23280, Note_on_c, 1, 38, 72
1, 23376, Note_on_c, 0, 74, 0
1, 23400, Note_on_c, 1, 38, 0
1, 23520, Note_on_c, 0, 67, 85
1, 23578, Note_on_c, 0, 67, 0
1, 23580, Note_on_c, 0, 66, 85
1, 23610, Note_on_c, 0, 66, 0
1, 23640, Note_on_c, 0, 64, 85
1, 23670, Note_on_c, 0, 64, 0
1, 23700, Note_on_c, 0, 62, 85
1, 23730, Note_on_c, 0, 62, 0
1, 23760, Note_on_c, 0, 74, 85
1, 23760, Note_on_c, 1, 62, 85
1, 23878, Note_on_c, 0, 74, 0
1, 23880, Note_on_c, 0, 74, 72
1, 23998, Note_on_c, 0, 74, 0
1, 23998, Note_on_c, 1, 62, 0
1, 24000, Note_on_c, 1, 66, 85
1, 24120, Note_on_c, 0, 74, 85
1, 24180, Note_on_c, 0, 74, 0
1, 24238, Note_on_c, 1, 66, 0
1, 24240, Note_on_c, 0, 76, 85
1, 24240, Note_on_c, 1, 62, 85
1, 24298, Note_on_c, 0, 76, 0
1, 24300, Note_on_c, 0, 74, 85
1, 24330, Note_on_c, 0, 74, 0
1, 24360, Note_on_c, 0, 73, 85
1, 24390, Note_on_c, 0, 73, 0
1, 24420, Note_on_c, 0, 74, 85
1, 24450, Note_on_c, 0, 74, 0
1, 24478, Note_on_c, 1, 62, 0
1, 24480, Note_on_c, 0, 73, 85
1, 24480, Note_on_c, 1, 69, 85
1, 24598, Note_on_c, 0, 73, 0
1, 24600, Note_on_c, 0, 79, 72
1, 24718, Note_on_c, 0, 79, 0
1, 24718, Note_on_c, 1, 69, 0
1, 24720, Note_on_c, 1, 57, 85
1, 24840, Note_on_c, 0, 79, 85
1, 24958, Note_on_c, 0, 79, 0
1, 24958, Note_on_c, 1, 57, 0
1, 24960, Note_on_c, 0, 81, 85
1, 24960, Note_on_c, 1, 61, 85
1, 25018, Note_on_c, 0, 81, 0
1, 25020, Note_on_c, 0, 79, 85
1, 25078, Note_on_c, 0, 79, 0
1, 25080, Note_on_c, 0, 78, 85
1, 25138, Note_on_c, 0, 78, 0
1, 25140, Note_on_c, 0, 76, 85
1, 25198, Note_on_c, 0, 76, 0
1, 25198, Note_on_c, 1, 61, 0
1, 25200, Note_on_c, 0, 79, 85
1, 25200, Note_on_c, 1, 62, 85
1, 25258, Note_on_c, 0, 79, 0
1, 25260, Note_on_c, 0, 78, 85
1, 25318, Note_on_c, 0, 78, 0
1, 25320, Note_on_c, 0, 76, 85
1, 25378, Note_on_c, 0, 76, 0
1, 25380, Note_on_c, 0, 74, 85
1, 25438, Note_on_c, 0, 74, 0
1, 25438, Note_on_c, 1, 62, 0
1, 25440, Note_on_c, 0, 83, 85
1, 25440, Note_on_c, 1, 66, 85
1, 25498, Note_on_c, 0, 83, 0
1, 25500, Note_on_c, 0, 81, 85
1, 25558, Note_on_c, 0, 81, 0
1, 25560, Note_on_c, 0, 79, 85
1, 25618, Note_on_c, 0, 79, 0
1, 25620, Note_on_c, 0, 78, 85
1, 25678, Note_on_c, 0, 78, 0
1, 25678, Note_on_c, 1, 66, 0
1, 25680, Note_on_c, 0, 83, 85
1, 25680, Note_on_c, 1, 67, 85
1, 25738, Note_on_c, 0, 83, 0
1, 25740, Note_on_c, 0, 85, 85
1, 25798, Note_on_c, 0, 85, 0
1, 25800, Note_on_c, 0, 86, 85
1, 25858, Note_on_c, 0, 86, 0
1, 25860, Note_on_c, 0, 79, 85
1, 25918, Note_on_c, 0, 79, 0
1, 25918, Note_on_c, 1, 67, 0
1, 25920, Note_on_c, 0, 74, 85
1, 25920, Note_on_c, 0, 78, 85
1, 25920, Note_on_c, 1, 69, 85
1, 26158, Note_on_c, 0, 78, 0
1, 26158, Note_on_c, 0, 74, 0
1, 26158, Note_on_c, 1, 69, 0
1, 26160, Note_on_c, 0, 73, 72
1, 26160, Note_on_c, 0, 76, 72
1, 26160, Note_on_c, 1, 57, 72
1, 26280, Note_on_c, 0, 76, 0
1, 26280, Note_on_c, 0, 73, 0
1, 26280, Note_on_c, 1, 57, 0
1, 26400, Note_on_c, 0, 67, 85
1, 26458, Note_on_c, 0, 67, 0
1, 26460, Note_on_c, 0, 66, 85
1, 26490, Note_on_c, 0, 66, 0
1, 26520, Note_on_c, 0, 64, 85
1, 26550, Note_on_c, 0, 64, 0
1, 26580, Note_on_c, 0, 62, 85
1, 26610, Note_on_c, 0, 62, 0
1, 26640, Note_on_c, 0, 74, 85
1, 26640, Note_on_c, 1, 62, 85
1, 26758, Note_on_c, 0, 74, 0
1, 26760, Note_on_c, 0, 74, 72
1, 26878, Note_on_c, 0, 74, 0
1, 26878, Note_on_c, 1, 62, 0
1, 26880, Note_on_c, 1, 66, 85
1, 27000, Note_on_c, 0, 74, 85
1, 27118, Note_on_c, 0, 74, 0
1, 27118, Note_on_c, 1, 66, 0
1, 27120, Note_on_c, 0, 76, 85
1, 27120, Note_on_c, 1, 62, 85
1, 27178, Note_on_c, 0, 76, 0
1, 27180, Note_on_c, 0, 74, 85
1, 27238, Note_on_c, 0, 74, 0
1, 27240, Note_on_c, 0, 73, 85
1, 27298, Note_on_c, 0, 73, 0
1, 27300, Note_on_c, 0, 74, 85
1, 27358, Note_on_c, 0, 74, 0
1, 27358, Note_on_c, 1, 62, 0
1, 27360, Note_on_c, 0, 73, 85
1, 27360, Note_on_c, 1, 69, 85
1, 27478, Note_on_c, 0, 73, 0
1, 27480, Note_on_c, 0, 79, 72
1, 27598, Note_on_c, 0, 79, 0
1, 27598, Note_on_c, 1, 69, 0
1, 27600, Note_on_c, 0, 81, 85
1, 27600, Note_on_c, 1, 61, 85
1, 27658, Note_on_c, 0, 81, 0
1, 27660, Note_on_c, 0, 79, 85
1, 27718, Note_on_c, 0, 79, 0
1, 27720, Note_on_c, 0, 78, 85
1, 27778, Note_on_c, 0, 78, 0
1, 27780, Note_on_c, 0, 76, 85
1, 27838, Note_on_c, 0, 76, 0
1, 27838, Note_on_c, 1, 61, 0
1, 27840, Note_on_c, 0, 79, 85
1, 27840, Note_on_c, 1, 62, 85
1, 27898, Note_on_c, 0, 79, 0
1, 27900, Note_on_c, 0, 78, 85
1, 27958, Note_on_c, 0, 78, 0
1, 27960, Note_on_c, 0, 76, 85
1, 28018, Note_on_c, 0, 76, 0
1, 28020, Note_on_c, 0, 74, 85
1, 28078, Note_on_c, 0, 74, 0
1, 28078, Note_on_c, 1, 62, 0
1, 28080, Note_on_c, 0, 83, 85
1, 28080, Note_on_c, 1, 55, 85
1, 28138, Note_on_c, 0, 83, 0
1, 28140, Note_on_c, 0, 85, 85
1, 28198, Note_on_c, 0, 85, 0
1, 28200, Note_on_c, 0, 86, 85
1, 28258, Note_on_c, 0, 86, 0
1, 28260, Note_on_c, 0, 79, 85
1, 28318, Note_on_c, 0, 79, 0
1, 28318, Note_on_c, 1, 55, 0
1, 28320, Note_on_c, 0, 78, 85
1, 28320, Note_on_c, 1, 57, 85
1, 28378, Note_on_c, 0, 78, 0
1, 28380, Note_on_c, 0, 79, 85
1, 28438, Note_on_c, 0, 79, 0
1, 28440, Note_on_c, 0, 81, 85
1, 28498, Note_on_c, 0, 81, 0
1, 28500, Note_on_c, 0, 74, 85
1, 28558, Note_on_c, 0, 74, 0
1, 28558, Note_on_c, 1, 57, 0
1, 28560, Note_on_c, 0, 76, 85
1, 28560, Note_on_c, 1, 45, 85
1, 28618, Note_on_c, 0, 76, 0
1, 28620, Note_on_c, 0, 78, 85
1, 28678, Note_on_c, 0, 78, 0
1, 28680, Note_on_c, 0, 79, 85
1, 28738, Note_on_c, 0, 79, 0
1, 28740, Note_on_c, 0, 73, 85
1, 28798, Note_on_c, 0, 73, 0
1, 28798, Note_on_c, 1, 45, 0
1, 28800, Note_on_c, 0, 74, 85
1, 28800, Note_on_c, 1, 50, 85
1, 29038, Note_on_c, 0, 74, 0
1, 29038, Note_on_c, 1, 50, 0
1, 29040, Note_on_c, 1, 38, 72
1, 29160, Note_on_c, 1, 38, 0
1, 29280, Note_on_c, 0, 67, 85
1, 29338, Note_on_c, 0, 67, 0
1, 29340, Note_on_c, 0, 66, 85
1, 29370, Note_on_c, 0, 66, 0
1, 29400, Note_on_c, 0, 64, 85
1, 29430, Note_on_c, 0, 64, 0
1, 29460, Note_on_c, 0, 62, 85
1, 29490, Note_on_c, 0, 62, 0
1, 29520, Note_on_c, 0, 74, 85
1, 29638, Note_on_c, 0, 74, 0
1, 29640, Note_on_c, 0, 74, 72
1, 29758, Note_on_c, 0, 74, 0
1, 29760, Note_on_c, 1, 62, 85
1, 29880, Note_on_c, 0, 68, 85
1, 29998, Note_on_c, 0, 68, 0
1, 30000, Note_on_c, 0, 69, 85
1, 30000, Note_on_c, 1, 62, 0
1, 30000, Note_on_c, 1, 61, 85
1, 30058, Note_on_c, 0, 69, 0
1, 30060, Note_on_c, 0, 71, 85
1, 30118, Note_on_c, 0, 71, 0
1, 30120, Note_on_c, 0, 69, 85
1, 30178, Note_on_c, 0, 69, 0
1, 30180, Note_on_c, 0, 64, 85
1, 30238, Note_on_c, 0, 64, 0
1, 30240, Note_on_c, 0, 67, 85
1, 30240, Note_on_c, 1, 61, 0
1, 30240, Note_on_c, 1, 59, 85
1, 30358, Note_on_c, 0, 67, 0
1, 30360, Note_on_c, 0, 67, 72
1, 30478, Note_on_c, 0, 67, 0
1, 30480, Note_on_c, 1, 59, 0
1, 30480, Note_on_c, 1, 57, 85
1, 30600, Note_on_c, 0, 66, 85
1, 30718, Note_on_c, 0, 66, 0
1, 30720, Note_on_c, 0, 64, 85
1, 30720, Note_on_c, 1, 57, 0
1, 30720, Note_on_c, 1, 55, 85
1, 30778, Note_on_c, 0, 64, 0
1, 30780, Note_on_c, 0, 66, 85
1, 30810, Note_on_c, 0, 66, 0
1, 30840, Note_on_c, 0, 64, 85
1, 30870, Note_on_c, 0, 64, 0
1, 30900, Note_on_c, 0, 59, 85
1, 30930, Note_on_c, 0, 59, 0
1, 30960, Note_on_c, 0, 62, 85
1, 30960, Note_on_c, 1, 55, 0
1, 30960, Note_on_c, 1, 54, 85
1, 31018, Note_on_c, 0, 62, 0
1, 31020, Note_on_c, 0, 64, 85
1, 31078, Note_on_c, 0, 64, 0
1, 31080, Note_on_c, 0, 62, 85
1, 31138, Note_on_c, 0, 62, 0
1, 31140, Note_on_c, 0, 57, 85
1, 31198, Note_on_c, 0, 57, 0
1, 31200, Note_on_c, 0, 67, 85
1, 31200, Note_on_c, 1, 54, 0
1, 31200, Note_on_c, 1, 52, 85
1, 31258, Note_on_c, 0, 67, 0
1, 31260, Note_on_c, 0, 69, 85
1, 31318, Note_on_c, 0, 69, 0
1, 31320, Note_on_c, 0, 67, 85
1, 31378, Note_on_c, 0, 67, 0
1, 31380, Note_on_c, 0, 64, 85
1, 31438, Note_on_c, 0, 64, 0
1, 31440, Note_on_c, 0, 66, 85
1, 31440, Note_on_c, 1, 52, 0
1, 31440, Note_on_c, 1, 50, 85
1, 31498, Note_on_c, 0, 66, 0
1, 31500, Note_on_c, 0, 67, 85
1, 31530, Note_on_c, 0, 67, 0
1, 31560, Note_on_c, 0, 66, 85
1, 31590, Note_on_c, 0, 66, 0
1, 31620, Note_on_c, 0, 62, 85
1, 31650, Note_on_c, 0, 62, 0
1, 31680, Note_on_c, 0, 62, 85
1, 31680, Note_on_c, 0, 66, 85
1, 31680, Note_on_c, 1, 50, 0
1, 31680, Note_on_c, 1, 57, 85
1, 31918, Note_on_c, 0, 66, 0
1, 31918, Note_on_c, 0, 62, 0
1, 31918, Note_on_c, 1, 57, 0
1, 31920, Note_on_c, 0, 61, 72
1, 31920, Note_on_c, 0, 64, 72
1, 31920, Note_on_c, 1, 45, 72
1, 32040, Note_on_c, 0, 64, 0
1, 32040, Note_on_c, 0, 61, 0
1, 32040, Note_on_c, 1, 45, 0
1, 32160, Note_on_c, 0, 79, 85
1, 32218, Note_on_c, 0, 79, 0
1, 32220, Note_on_c, 0, 78, 85
1, 32250, Note_on_c, 0, 78, 0
1, 32280, Note_on_c, 0, 76, 85
1, 32310, Note_on_c, 0, 76, 0
1, 32340, Note_on_c, 0, 74, 85
1, 32370, Note_on_c, 0, 74, 0
1, 32400, Note_on_c, 0, 86, 85
1, 32518, Note_on_c, 0, 86, 0
1, 32520, Note_on_c, 0, 86, 72
1, 32638, Note_on_c, 0, 86, 0
1, 32640, Note_on_c, 1, 74, 85
1, 32760, Note_on_c, 0, 80, 85
1, 32878, Note_on_c, 0, 80, 0
1, 32880, Note_on_c, 0, 80, 85
1, 32880, Note_on_c, 1, 74, 0
1, 32880, Note_on_c, 1, 73, 85
1, 32938, Note_on_c, 0, 80, 0
1, 32940, Note_on_c, 0, 81, 85
1, 32970, Note_on_c, 0, 81, 0
1, 33000, Note_on_c, 0, 83, 85
1, 33030, Note_on_c, 0, 83, 0
1, 33060, Note_on_c, 0, 81, 85
1, 33090, Note_on_c, 0, 81, 0
1, 33120, Note_on_c, 0, 81, 85
1, 33120, Note_on_c, 1, 73, 0
1, 33120, Note_on_c, 1, 71, 85
1, 33178, Note_on_c, 0, 81, 0
1, 33180, Note_on_c, 0, 79, 85
1, 33238, Note_on_c, 0, 79, 0
1, 33240, Note_on_c, 0, 78, 85
1, 33298, Note_on_c, 0, 78, 0
1, 33300, Note_on_c, 0, 79, 85
1, 33358, Note_on_c, 0, 79, 0
1, 33360, Note_on_c, 0, 79, 85
1, 33360, Note_on_c, 1, 71, 0
1, 33360, Note_on_c, 1, 69, 85
1, 33418, Note_on_c, 0, 79, 0
1, 33420, Note_on_c, 0, 78, 85
1, 33478, Note_on_c, 0, 78, 0
1, 33480, Note_on_c, 0, 76, 85
1, 33538, Note_on_c, 0, 76, 0
1, 33540, Note_on_c, 0, 78, 85
1, 33598, Note_on_c, 0, 78, 0
1, 33600, Note_on_c, 0, 78, 85
1, 33600, Note_on_c, 1, 69, 0
1, 33600, Note_on_c, 1, 67, 85
1, 33658, Note_on_c, 0, 78, 0
1, 33660, Note_on_c, 0, 76, 85
1, 33690, Note_on_c, 0, 76, 0
1, 33720, Note_on_c, 0, 74, 85
1, 33750, Note_on_c, 0, 74, 0
1, 33780, Note_on_c, 0, 76, 85
1, 33810, Note_on_c, 0, 76, 0
1, 33840, Note_on_c, 0, 81, 85
1, 33840, Note_on_c, 1, 67, 0
1, 33840, Note_on_c, 1, 66, 85
1, 34018, Note_on_c, 0, 81, 0
1, 34018, Note_on_c, 1, 66, 0
1, 34020, Note_on_c, 0, 83, 85
1, 34020, Note_on_c, 1, 67, 85
1, 34078, Note_on_c, 0, 83, 0
1, 34078, Note_on_c, 1, 67, 0
1, 34080, Note_on_c, 0, 74, 85
1, 34080, Note_on_c, 1, 69, 85
1, 34318, Note_on_c, 0, 74, 0
1, 34318, Note_on_c, 1, 69, 0
1, 34320, Note_on_c, 0, 76, 74
1, 34320, Note_on_c, 1, 57, 85
1, 34344, Note_on_c, 0, 76, 0
1, 34350, Note_on_c, 0, 78, 75
1, 34374, Note_on_c, 0, 78, 0
1, 34380, Note_on_c, 0, 76, 75
1, 34404, Note_on_c, 0, 76, 0
1, 34410, Note_on_c, 0, 78, 76
1, 34434, Note_on_c, 0, 78, 0
1, 34440, Note_on_c, 0, 76, 77
1, 34456, Note_on_c, 0, 76, 0
1, 34460, Note_on_c, 0, 78, 78
1, 34476, Note_on_c, 0, 78, 0
1, 34480, Note_on_c, 0, 76, 78
1, 34496, Note_on_c, 0, 76, 0
1, 34500, Note_on_c, 0, 74, 79
1, 34524, Note_on_c, 0, 74, 0
1, 34530, Note_on_c, 0, 76, 80
1, 34554, Note_on_c, 0, 76, 0
1, 34558, Note_on_c, 1, 57, 0
1, 34560, Note_on_c, 0, 74, 85
1, 34560, Note_on_c, 1, 62, 85
1, 34798, Note_on_c, 1, 62, 0
1, 34800, Note_on_c, 1, 50, 72
1, 34920, Note_on_c, 1, 50, 0
1, 35038, Note_on_c, 0, 74, 0
1, 35041, Note_on_c, 0, 67, 64
1, 35099, Note_on_c, 0, 67, 0
1, 35101, Note_on_c, 0, 65, 64
1, 35131, Note_on_c, 0, 65, 0
1, 35161, Note_on_c, 0, 64, 64
1, 35191, Note_on_c, 0, 64, 0
1, 35221, Note_on_c, 0, 62, 64
1, 35251, Note_on_c, 0, 62, 0
1, 35280, Note_on_c, 0, 74, 64
1, 35520, Note_on_c, 1, 53, 64
1, 35638, Note_on_c, 0, 74, 0
1, 35640, Note_on_c, 0, 76, 64
1, 35758, Note_on_c, 1, 53, 0
1, 35760, Note_on_c, 1, 50, 64
1, 35880, Note_on_c, 0, 76, 0
1, 35880, Note_on_c, 0, 77, 64
1, 35998, Note_on_c, 1, 50, 0
1, 36000, Note_on_c, 1, 52, 64
1, 36118, Note_on_c, 0, 77, 0
1, 36120, Note_on_c, 0, 69, 64
1, 36238, Note_on_c, 1, 52, 0
1, 36240, Note_on_c, 1, 47, 64
1, 36358, Note_on_c, 0, 69, 0
1, 36360, Note_on_c, 0, 68, 64
1, 36478, Note_on_c, 1, 47, 0
1, 36480, Note_on_c, 1, 49, 64
1, 36600, Note_on_c, 0, 68, 0
1, 36600, Note_on_c, 0, 67, 64
1, 36718, Note_on_c, 1, 49, 0
1, 36720, Note_on_c, 1, 50, 64
1, 36838, Note_on_c, 0, 67, 0
1, 36840, Note_on_c, 0, 65, 64
1, 36958, Note_on_c, 1, 50, 0
1, 36960, Note_on_c, 1, 41, 64
1, 37078, Note_on_c, 0, 65, 0
1, 37080, Note_on_c, 0, 69, 64
1, 37176, Note_on_c, 0, 69, 0
1, 37198, Note_on_c, 1, 41, 0
1, 37200, Note_on_c, 0, 69, 64
1, 37200, Note_on_c, 1, 43, 64
1, 37248, Note_on_c, 0, 69, 0
1, 37260, Note_on_c, 0, 70, 64
1, 37276, Note_on_c, 0, 70, 0
1, 37280, Note_on_c, 0, 69, 64
1, 37296, Note_on_c, 0, 69, 0
1, 37300, Note_on_c, 0, 67, 64
1, 37316, Note_on_c, 0, 67, 0
1, 37320, Note_on_c, 0, 69, 64
1, 37368, Note_on_c, 0, 69, 0
1, 37380, Note_on_c, 0, 70, 64
1, 37428, Note_on_c, 0, 70, 0
1, 37438, Note_on_c, 1, 43, 0
1, 37440, Note_on_c, 0, 62, 64
1, 37440, Note_on_c, 1, 45, 64
1, 37632, Note_on_c, 0, 62, 0
1, 37678, Note_on_c, 1, 45, 0
1, 37680, Note_on_c, 0, 61, 56
1, 37680, Note_on_c, 1, 33, 56
1, 37800, Note_on_c, 0, 61, 0
1, 37800, Note_on_c, 1, 33, 0
1, 37920, Note_on_c, 0, 70, 80
1, 37968, Note_on_c, 0, 70, 0
1, 37980, Note_on_c, 0, 69, 80
1, 38010, Note_on_c, 0, 69, 0
1, 38040, Note_on_c, 0, 67, 80
1, 38070, Note_on_c, 0, 67, 0
1, 38100, Note_on_c, 0, 65, 80
1, 38130, Note_on_c, 0, 65, 0
1, 38160, Note_on_c, 0, 74, 85
1, 38160, Note_on_c, 1, 53, 85
1, 38160, Note_on_c, 1, 57, 85
1, 38160, Note_on_c, 1, 60, 85
1, 38218, Note_on_c, 0, 74, 0
1, 38220, Note_on_c, 0, 72, 85
1, 38278, Note_on_c, 0, 72, 0
1, 38280, Note_on_c, 0, 70, 85
1, 38338, Note_on_c, 0, 70, 0
1, 38340, Note_on_c, 0, 69, 85
1, 38398, Note_on_c, 0, 69, 0
1, 38400, Note_on_c, 0, 79, 85
1, 38458, Note_on_c, 0, 79, 0
1, 38460, Note_on_c, 0, 77, 85
1, 38518, Note_on_c, 0, 77, 0
1, 38520, Note_on_c, 0, 76, 85
1, 38578, Note_on_c, 0, 76, 0
1, 38580, Note_on_c, 0, 77, 85
1, 38638, Note_on_c, 0, 77, 0
1, 38638, Note_on_c, 1, 60, 0
1, 38638, Note_on_c, 1, 57, 0
1, 38638, Note_on_c, 1, 53, 0
1, 38640, Note_on_c, 0, 82, 85
1, 38640, Note_on_c, 1, 63, 85
1, 38640, Note_on_c, 1, 65, 85
1, 38698, Note_on_c, 0, 82, 0
1, 38700, Note_on_c, 0, 81, 85
1, 38730, Note_on_c, 0, 81, 0
1, 38760, Note_on_c, 0, 79, 85
1, 38790, Note_on_c, 0, 79, 0
1, 38820, Note_on_c, 0, 77, 85
1, 38850, Note_on_c, 0, 77, 0
1, 38878, Note_on_c, 1, 65, 0
1, 38878, Note_on_c, 1, 63, 0
1, 38880, Note_on_c, 0, 82, 80
1, 38880, Note_on_c, 1, 65, 80
1, 38880, Note_on_c, 1, 62, 80
1, 38998, Note_on_c, 0, 82, 0
1, 39000, Note_on_c, 0, 81, 81
1, 39058, Note_on_c, 0, 81, 0
1, 39060, Note_on_c, 0, 82, 82
1, 39118, Note_on_c, 0, 82, 0
1, 39118, Note_on_c, 1, 62, 0
1, 39120, Note_on_c, 0, 86, 83
1, 39120, Note_on_c, 1, 58, 83
1, 39178, Note_on_c, 0, 86, 0
1, 39180, Note_on_c, 0, 82, 83
1, 39238, Note_on_c, 0, 82, 0
1, 39240, Note_on_c, 0, 81, 84
1, 39298, Note_on_c, 0, 81, 0
1, 39300, Note_on_c, 0, 79, 85
1, 39358, Note_on_c, 0, 79, 0
1, 39358, Note_on_c, 1, 58, 0
1, 39358, Note_on_c, 1, 65, 0
1, 39360, Note_on_c, 0, 88, 85
1, 39360, Note_on_c, 1, 55, 85
1, 39360, Note_on_c, 1, 58, 85
1, 39418, Note_on_c, 0, 88, 0
1, 39420, Note_on_c, 0, 82, 86
1, 39450, Note_on_c, 0, 82, 0
1, 39480, Note_on_c, 0, 81, 87
1, 39510, Note_on_c, 0, 81, 0
1, 39540, Note_on_c, 0, 79, 87
1, 39570, Note_on_c, 0, 79, 0
1, 39598, Note_on_c, 1, 58, 0
1, 39598, Note_on_c, 1, 55, 0
1, 39600, Note_on_c, 0, 89, 88
1, 39600, Note_on_c, 1, 57, 88
1, 39600, Note_on_c, 1, 60, 88
1, 39658, Note_on_c, 0, 89, 0
1, 39660, Note_on_c, 0, 84, 85
1, 39718, Note_on_c, 0, 84, 0
1, 39720, Note_on_c, 0, 81, 85
1, 39778, Note_on_c, 0, 81, 0
1, 39780, Note_on_c, 0, 77, 85
1, 39838, Note_on_c, 0, 77, 0
1, 39838, Note_on_c, 1, 60, 0
1, 39838, Note_on_c, 1, 57, 0
1, 39840, Note_on_c, 0, 79, 72
1, 39840, Note_on_c, 1, 60, 85
1, 39864, Note_on_c, 0, 79, 0
1, 39870, Note_on_c, 0, 81, 73
1, 39894, Note_on_c, 0, 81, 0
1, 39900, Note_on_c, 0, 79, 73
1, 39924, Note_on_c, 0, 79, 0
1, 39930, Note_on_c, 0, 81, 74
1, 39954, Note_on_c, 0, 81, 0
1, 39960, Note_on_c, 0, 79, 74
1, 39984, Note_on_c, 0, 79, 0
1, 39990, Note_on_c, 0, 81, 75
1, 40014, Note_on_c, 0, 81, 0
1, 40020, Note_on_c, 0, 79, 75
1, 40044, Note_on_c, 0, 79, 0
1, 40050, Note_on_c, 0, 81, 76
1, 40074, Note_on_c, 0, 81, 0
1, 40078, Note_on_c, 1, 60, 0
1, 40080, Note_on_c, 0, 79, 76
1, 40080, Note_on_c, 1, 48, 85
1, 40104, Note_on_c, 0, 79, 0
1, 40110, Note_on_c, 0, 81, 77
1, 40134, Note_on_c, 0, 81, 0
1, 40140, Note_on_c, 0, 79, 77
1, 40164, Note_on_c, 0, 79, 0
1, 40170, Note_on_c, 0, 81, 78
1, 40194, Note_on_c, 0, 81, 0
1, 40200, Note_on_c, 0, 79, 78
1, 40216, Note_on_c, 0, 79, 0
1, 40220, Note_on_c, 0, 81, 79
1, 40236, Note_on_c, 0, 81, 0
1, 40240, Note_on_c, 0, 79, 79
1, 40256, Note_on_c, 0, 79, 0
1, 40260, Note_on_c, 0, 77, 79
1, 40284, Note_on_c, 0, 77, 0
1, 40290, Note_on_c, 0, 79, 80
1, 40314, Note_on_c, 0, 79, 0
1, 40318, Note_on_c, 1, 48, 0
1, 40320, Note_on_c, 0, 77, 85
1, 40320, Note_on_c, 1, 53, 85
1, 40558, Note_on_c, 1, 53, 0
1, 40560, Note_on_c, 1, 41, 72
1, 40680, Note_on_c, 1, 41, 0
1, 40770, Note_on_c, 0, 77, 0
1, 40800, Note_on_c, 0, 82, 64
1, 40858, Note_on_c, 0, 82, 0
1, 40860, Note_on_c, 0, 81, 64
1, 40890, Note_on_c, 0, 81, 0
1, 40920, Note_on_c, 0, 79, 64
1, 40950, Note_on_c, 0, 79, 0
1, 40980, Note_on_c, 0, 77, 64
1, 41010, Note_on_c, 0, 77, 0
1, 41040, Note_on_c, 0, 84, 64
1, 41280, Note_on_c, 1, 69, 64
1, 41280, Note_on_c, 1, 72, 64
1, 41338, Note_on_c, 0, 84, 0
1, 41340, Note_on_c, 0, 75, 64
1, 41398, Note_on_c, 0, 75, 0
1, 41400, Note_on_c, 0, 74, 64
1, 41458, Note_on_c, 0, 74, 0
1, 41460, Note_on_c, 0, 75, 64
1, 41518, Note_on_c, 0, 75, 0
1, 41518, Note_on_c, 1, 72, 0
1, 41518, Note_on_c, 1, 69, 0
1, 41520, Note_on_c, 0, 77, 64
1, 41520, Note_on_c, 1, 67, 64
1, 41520, Note_on_c, 1, 70, 64
1, 41578, Note_on_c, 0, 77, 0
1, 41580, Note_on_c, 0, 75, 64
1, 41610, Note_on_c, 0, 75, 0
1, 41640, Note_on_c, 0, 74, 64
1, 41670, Note_on_c, 0, 74, 0
1, 41700, Note_on_c, 0, 75, 64
1, 41730, Note_on_c, 0, 75, 0
1, 41758, Note_on_c, 1, 70, 0
1, 41758, Note_on_c, 1, 67, 0
1, 41760, Note_on_c, 0, 74, 64
1, 41760, Note_on_c, 1, 66, 64
1, 41760, Note_on_c, 1, 69, 64
1, 41818, Note_on_c, 0, 74, 0
1, 41820, Note_on_c, 0, 81, 64
1, 41878, Note_on_c, 0, 81, 0
1, 41880, Note_on_c, 0, 82, 64
1, 41938, Note_on_c, 0, 82, 0
1, 41940, Note_on_c, 0, 81, 64
1, 41998, Note_on_c, 0, 81, 0
1, 42000, Note_on_c, 0, 86, 64
1, 42058, Note_on_c, 0, 86, 0
1, 42060, Note_on_c, 0, 84, 64
1, 42118, Note_on_c, 0, 84, 0
1, 42120, Note_on_c, 0, 82, 64
1, 42178, Note_on_c, 0, 82, 0
1, 42180, Note_on_c, 0, 81, 64
1, 42238, Note_on_c, 0, 81, 0
1, 42238, Note_on_c, 1, 69, 0
1, 42238, Note_on_c, 1, 66, 0
1, 42240, Note_on_c, 0, 82, 64
1, 42240, Note_on_c, 1, 67, 64
1, 42240, Note_on_c, 1, 74, 64
1, 42298, Note_on_c, 0, 82, 0
1, 42300, Note_on_c, 0, 79, 64
1, 42330, Note_on_c, 0, 79, 0
1, 42360, Note_on_c, 0, 81, 64
1, 42390, Note_on_c, 0, 81, 0
1, 42420, Note_on_c, 0, 82, 64
1, 42450, Note_on_c, 0, 82, 0
1, 42478, Note_on_c, 1, 74, 0
1, 42478, Note_on_c, 1, 67, 0
1, 42480, Note_on_c, 0, 84, 64
1, 42480, Note_on_c, 1, 72, 64
1, 42480, Note_on_c, 1, 64, 64
1, 42538, Note_on_c, 0, 84, 0
1, 42540, Note_on_c, 0, 82, 64
1, 42598, Note_on_c, 0, 82, 0
1, 42600, Note_on_c, 0, 81, 64
1, 42658, Note_on_c, 0, 81, 0
1, 42660, Note_on_c, 0, 79, 64
1, 42718, Note_on_c, 0, 79, 0
1, 42718, Note_on_c, 1, 64, 0
1, 42720, Note_on_c, 0, 81, 64
1, 42720, Note_on_c, 1, 65, 64
1, 42778, Note_on_c, 0, 81, 0
1, 42780, Note_on_c, 0, 77, 64
1, 42838, Note_on_c, 0, 77, 0
1, 42840, Note_on_c, 0, 76, 64
1, 42898, Note_on_c, 0, 76, 0
1, 42900, Note_on_c, 0, 74, 64
1, 42958, Note_on_c, 0, 74, 0
1, 42958, Note_on_c, 1, 65, 0
1, 42958, Note_on_c, 1, 72, 0
1, 42960, Note_on_c, 0, 82, 64
1, 42960, Note_on_c, 1, 55, 64
1, 42960, Note_on_c, 1, 67, 64
1, 43018, Note_on_c, 0, 82, 0
1, 43020, Note_on_c, 0, 79, 64
1, 43050, Note_on_c, 0, 79, 0
1, 43080, Note_on_c, 0, 77, 64
1, 43110, Note_on_c, 0, 77, 0
1, 43140, Note_on_c, 0, 76, 64
1, 43170, Note_on_c, 0, 76, 0
1, 43198, Note_on_c, 1, 67, 0
1, 43198, Note_on_c, 1, 55, 0
1, 43200, Note_on_c, 0, 74, 64
1, 43200, Note_on_c, 1, 57, 64
1, 43200, Note_on_c, 1, 64, 64
1, 43438, Note_on_c, 0, 74, 0
1, 43440, Note_on_c, 0, 73, 56
1, 43560, Note_on_c, 0, 73, 0
1, 43560, Note_on_c, 1, 64, 0
1, 43560, Note_on_c, 1, 57, 0
1, 43680, Note_on_c, 0, 69, 85
1, 43738, Note_on_c, 0, 69, 0
1, 43740, Note_on_c, 0, 67, 85
1, 43770, Note_on_c, 0, 67, 0
1, 43800, Note_on_c, 0, 65, 85
1, 43830, Note_on_c, 0, 65, 0
1, 43860, Note_on_c, 0, 64, 85
1, 43890, Note_on_c, 0, 64, 0
1, 43920, Note_on_c, 0, 79, 85
1, 44160, Note_on_c, 1, 58, 85
1, 44160, Note_on_c, 1, 61, 85
1, 44218, Note_on_c, 0, 79, 0
1, 44220, Note_on_c, 0, 81, 85
1, 44278, Note_on_c, 0, 81, 0
1, 44280, Note_on_c, 0, 79, 85
1, 44338, Note_on_c, 0, 79, 0
1, 44340, Note_on_c, 0, 76, 85
1, 44398, Note_on_c, 0, 76, 0
1, 44398, Note_on_c, 1, 61, 0
1, 44398, Note_on_c, 1, 58, 0
1, 44400, Note_on_c, 0, 85, 85
1, 44400, Note_on_c, 1, 55, 85
1, 44400, Note_on_c, 1, 58, 85
1, 44458, Note_on_c, 0, 85, 0
1, 44460, Note_on_c, 0, 86, 85
1, 44490, Note_on_c, 0, 86, 0
1, 44520, Note_on_c, 0, 85, 85
1, 44550, Note_on_c, 0, 85, 0
1, 44580, Note_on_c, 0, 82, 85
1, 44610, Note_on_c, 0, 82, 0
1, 44638, Note_on_c, 1, 58, 0
1, 44638, Note_on_c, 1, 55, 0
1, 44640, Note_on_c, 0, 86, 80
1, 44640, Note_on_c, 1, 53, 80
1, 44640, Note_on_c, 1, 57, 80
1, 44640, Note_on_c, 1, 62, 80
1, 44698, Note_on_c, 0, 86, 0
1, 44700, Note_on_c, 0, 88, 81
1, 44758, Note_on_c, 0, 88, 0
1, 44760, Note_on_c, 0, 86, 81
1, 44818, Note_on_c, 0, 86, 0
1, 44820, Note_on_c, 0, 81, 82
1, 44878, Note_on_c, 0, 81, 0
1, 44878, Note_on_c, 1, 62, 0
1, 44878, Note_on_c, 1, 57, 0
1, 44878, Note_on_c, 1, 53, 0
1, 44880, Note_on_c, 0, 88, 83
1, 44880, Note_on_c, 1, 52, 83
1, 44880, Note_on_c, 1, 55, 83
1, 44880, Note_on_c, 1, 61, 83
1, 44938, Note_on_c, 0, 88, 0
1, 44940, Note_on_c, 0, 89, 83
1, 44998, Note_on_c, 0, 89, 0
1, 45000, Note_on_c, 0, 88, 84
1, 45058, Note_on_c, 0, 88, 0
1, 45060, Note_on_c, 0, 81, 85
1, 45118, Note_on_c, 0, 81, 0
1, 45118, Note_on_c, 1, 61, 0
1, 45118, Note_on_c, 1, 55, 0
1, 45118, Note_on_c, 1, 52, 0
1, 45120, Note_on_c, 0, 89, 85
1, 45120, Note_on_c, 1, 50, 85
1, 45120, Note_on_c, 1, 53, 85
1, 45120, Note_on_c, 1, 62, 85
1, 45178, Note_on_c, 0, 89, 0
1, 45180, Note_on_c, 0, 86, 86
1, 45210, Note_on_c, 0, 86, 0
1, 45240, Note_on_c, 0, 85, 87
1, 45270, Note_on_c, 0, 85, 0
1, 45300, Note_on_c, 0, 86, 87
1, 45330, Note_on_c, 0, 86, 0
1, 45358, Note_on_c, 1, 62, 0
1, 45358, Note_on_c, 1, 53, 0
1, 45358, Note_on_c, 1, 50, 0
1, 45360, Note_on_c, 0, 84, 88
1, 45360, Note_on_c, 1, 55, 88
1, 45418, Note_on_c, 0, 84, 0
1, 45420, Note_on_c, 0, 82, 85
1, 45450, Note_on_c, 0, 82, 0
1, 45480, Note_on_c, 0, 81, 85
1, 45510, Note_on_c, 0, 81, 0
1, 45540, Note_on_c, 0, 79, 85
1, 45570, Note_on_c, 0, 79, 0
1, 45598, Note_on_c, 1, 55, 0
1, 45600, Note_on_c, 0, 77, 85
1, 45600, Note_on_c, 1, 57, 85
1, 45838, Note_on_c, 0, 77, 0
1, 45838, Note_on_c, 1, 57, 0
1, 45840, Note_on_c, 0, 76, 69
1, 45840, Note_on_c, 1, 45, 85
1, 45864, Note_on_c, 0, 76, 0
1, 45870, Note_on_c, 0, 77, 69
1, 45894, Note_on_c, 0, 77, 0
1, 45900, Note_on_c, 0, 76, 70
1, 45924, Note_on_c, 0, 76, 0
1, 45930, Note_on_c, 0, 77, 71
1, 45954, Note_on_c, 0, 77, 0
1, 45960, Note_on_c, 0, 76, 72
1, 45976, Note_on_c, 0, 76, 0
1, 45980, Note_on_c, 0, 77, 72
1, 45996, Note_on_c, 0, 77, 0
1, 46000, Note_on_c, 0, 76, 73
1, 46016, Note_on_c, 0, 76, 0
1, 46020, Note_on_c, 0, 74, 73
1, 46044, Note_on_c, 0, 74, 0
1, 46050, Note_on_c, 0, 76, 74
1, 46074, Note_on_c, 0, 76, 0
1, 46078, Note_on_c, 1, 45, 0
1, 46080, Note_on_c, 0, 74, 85
1, 46080, Note_on_c, 1, 50, 85
1, 46318, Note_on_c, 1, 50, 0
1, 46320, Note_on_c, 1, 38, 72
1, 46440, Note_on_c, 1, 38, 0
1, 46530, Note_on_c, 0, 74, 0
1, 46560, Note_on_c, 0, 69, 85
1, 46738, Note_on_c, 0, 69, 0
1, 46740, Note_on_c, 0, 66, 85
1, 46798, Note_on_c, 0, 66, 0
1, 46800, Note_on_c, 0, 74, 85
1, 46800, Note_on_c, 1, 62, 85
1, 47016, Note_on_c, 0, 74, 0
1, 47016, Note_on_c, 1, 62, 0
1, 47040, Note_on_c, 0, 74, 72
1, 47040, Note_on_c, 1, 66, 72
1, 47184, Note_on_c, 0, 74, 0
1, 47184, Note_on_c, 1, 66, 0
1, 47280, Note_on_c, 0, 76, 85
1, 47280, Note_on_c, 1, 62, 85
1, 47338, Note_on_c, 0, 76, 0
1, 47340, Note_on_c, 0, 74, 85
1, 47398, Note_on_c, 0, 74, 0
1, 47400, Note_on_c, 0, 73, 85
1, 47458, Note_on_c, 0, 73, 0
1, 47460, Note_on_c, 0, 74, 85
1, 47518, Note_on_c, 0, 74, 0
1, 47518, Note_on_c, 1, 62, 0
1, 47520, Note_on_c, 0, 73, 85
1, 47520, Note_on_c, 1, 69, 85
1, 47698, Note_on_c, 0, 73, 0
1, 47700, Note_on_c, 0, 76, 85
1, 47758, Note_on_c, 0, 76, 0
1, 47758, Note_on_c, 1, 69, 0
1, 47760, Note_on_c, 0, 79, 85
1, 47760, Note_on_c, 1, 57, 85
1, 47998, Note_on_c, 1, 57, 0
1, 48000, Note_on_c, 1, 61, 85
1, 48180, Note_on_c, 0, 79, 0
1, 48180, Note_on_c, 0, 76, 85
1, 48238, Note_on_c, 0, 76, 0
1, 48238, Note_on_c, 1, 61, 0
1, 48240, Note_on_c, 0, 78, 85
1, 48240, Note_on_c, 1, 62, 85
1, 48418, Note_on_c, 0, 78, 0
1, 48420, Note_on_c, 0, 74, 85
1, 48478, Note_on_c, 0, 74, 0
1, 48478, Note_on_c, 1, 62, 0
1, 48480, Note_on_c, 0, 81, 85
1, 48480, Note_on_c, 1, 66, 85
1, 48658, Note_on_c, 0, 81, 0
1, 48660, Note_on_c, 0, 78, 85
1, 48718, Note_on_c, 0, 78, 0
1, 48718, Note_on_c, 1, 66, 0
1, 48720, Note_on_c, 0, 83, 85
1, 48720, Note_on_c, 1, 67, 85
1, 48898, Note_on_c, 0, 83, 0
1, 48900, Note_on_c, 0, 79, 85
1, 48958, Note_on_c, 0, 79, 0
1, 48958, Note_on_c, 1, 67, 0
1, 48960, Note_on_c, 0, 78, 85
1, 48960, Note_on_c, 1, 69, 85
1, 49198, Note_on_c, 0, 78, 0
1, 49198, Note_on_c, 1, 69, 0
1, 49200, Note_on_c, 0, 76, 72
1, 49200, Note_on_c, 1, 57, 72
1, 49320, Note_on_c, 0, 76, 0
1, 49320, Note_on_c, 1, 57, 0
1, 49440, Note_on_c, 0, 69, 85
1, 49618, Note_on_c, 0, 69, 0
1, 49620, Note_on_c, 0, 66, 85
1, 49678, Note_on_c, 0, 66, 0
1, 49680, Note_on_c, 0, 74, 85
1, 49680, Note_on_c, 1, 62, 85
1, 49896, Note_on_c, 0, 74, 0
1, 49896, Note_on_c, 1, 62, 0
1, 49920, Note_on_c, 0, 74, 72
1, 49920, Note_on_c, 1, 66, 72
1, 50088, Note_on_c, 0, 74, 0
1, 50088, Note_on_c, 1, 66, 0
1, 50160, Note_on_c, 0, 76, 85
1, 50160, Note_on_c, 1, 62, 85
1, 50218, Note_on_c, 0, 76, 0
1, 50220, Note_on_c, 0, 74, 85
1, 50278, Note_on_c, 0, 74, 0
1, 50280, Note_on_c, 0, 73, 85
1, 50338, Note_on_c, 0, 73, 0
1, 50340, Note_on_c, 0, 74, 85
1, 50398, Note_on_c, 0, 74, 0
1, 50398, Note_on_c, 1, 62, 0
1, 50400, Note_on_c, 0, 73, 85
1, 50400, Note_on_c, 1, 69, 85
1, 50578, Note_on_c, 0, 73, 0
1, 50580, Note_on_c, 0, 76, 85
1, 50638, Note_on_c, 0, 76, 0
1, 50638, Note_on_c, 1, 69, 0
1, 50640, Note_on_c, 0, 79, 85
1, 50640, Note_on_c, 1, 61, 85
1, 50818, Note_on_c, 0, 79, 0
1, 50820, Note_on_c, 0, 76, 85
1, 50878, Note_on_c, 0, 76, 0
1, 50878, Note_on_c, 1, 61, 0
1, 50880, Note_on_c, 0, 78, 85
1, 50880, Note_on_c, 1, 62, 85
1, 51058, Note_on_c, 0, 78, 0
1, 51060, Note_on_c, 0, 74, 85
1, 51118, Note_on_c, 0, 74, 0
1, 51118, Note_on_c, 1, 62, 0
1, 51120, Note_on_c, 0, 71, 85
1, 51120, Note_on_c, 1, 67, 85
1, 51120, Note_on_c, 1, 55, 85
1, 51358, Note_on_c, 0, 71, 0
1, 51360, Note_on_c, 0, 76, 85
1, 51480, Note_on_c, 0, 76, 0
1, 51598, Note_on_c, 1, 55, 0
1, 51598, Note_on_c, 1, 67, 0
1, 51600, Note_on_c, 0, 74, 85
1, 51600, Note_on_c, 0, 67, 80
1, 51600, Note_on_c, 1, 64, 85
1, 51600, Note_on_c, 1, 57, 85
1, 51658, Note_on_c, 0, 74, 0
1, 51660, Note_on_c, 0, 73, 85
1, 51690, Note_on_c, 0, 73, 0
1, 51720, Note_on_c, 0, 71, 85
1, 51750, Note_on_c, 0, 71, 0
1, 51780, Note_on_c, 0, 73, 85
1, 51792, Note_on_c, 0, 67, 0
1, 51810, Note_on_c, 0, 73, 0
1, 51838, Note_on_c, 1, 57, 0
1, 51838, Note_on_c, 1, 64, 0
1, 51840, Note_on_c, 0, 66, 85
1, 51840, Note_on_c, 0, 74, 85
1, 51840, Note_on_c, 1, 62, 85
1, 52078, Note_on_c, 0, 74, 0
1, 52078, Note_on_c, 0, 66, 0
1, 52078, Note_on_c, 1, 62, 0
1, 52080, Note_on_c, 1, 50, 72
1, 52200, Note_on_c, 1, 50, 0
1, 52320, Note_on_c, 0, 66, 85
1, 52378, Note_on_c, 0, 66, 0
1, 52380, Note_on_c, 0, 62, 85
1, 52410, Note_on_c, 0, 62, 0
1, 52440, Note_on_c, 0, 69, 85
1, 52470, Note_on_c, 0, 69, 0
1, 52500, Note_on_c, 0, 66, 85
1, 52530, Note_on_c, 0, 66, 0
1, 52560, Note_on_c, 0, 74, 80
1, 52608, Note_on_c, 0, 74, 0
1, 52620, Note_on_c, 0, 69, 80
1, 52668, Note_on_c, 0, 69, 0
1, 52680, Note_on_c, 0, 71, 80
1, 52728, Note_on_c, 0, 71, 0
1, 52740, Note_on_c, 0, 73, 80
1, 52788, Note_on_c, 0, 73, 0
1, 52800, Note_on_c, 0, 74, 80
1, 52800, Note_on_c, 1, 66, 85
1, 52848, Note_on_c, 0, 74, 0
1, 52860, Note_on_c, 0, 76, 80
1, 52908, Note_on_c, 0, 76, 0
1, 52920, Note_on_c, 0, 78, 80
1, 52968, Note_on_c, 0, 78, 0
1, 52980, Note_on_c, 0, 79, 80
1, 53028, Note_on_c, 0, 79, 0
1, 53038, Note_on_c, 1, 66, 0
1, 53040, Note_on_c, 0, 81, 80
1, 53040, Note_on_c, 1, 62, 85
1, 53088, Note_on_c, 0, 81, 0
1, 53100, Note_on_c, 0, 78, 80
1, 53130, Note_on_c, 0, 78, 0
1, 53160, Note_on_c, 0, 76, 80
1, 53190, Note_on_c, 0, 76, 0
1, 53220, Note_on_c, 0, 74, 80
1, 53250, Note_on_c, 0, 74, 0
1, 53278, Note_on_c, 1, 62, 0
1, 53280, Note_on_c, 0, 73, 85
1, 53280, Note_on_c, 1, 64, 85
1, 53338, Note_on_c, 0, 73, 0
1, 53340, Note_on_c, 0, 74, 85
1, 53398, Note_on_c, 0, 74, 0
1, 53400, Note_on_c, 0, 76, 85
1, 53458, Note_on_c, 0, 76, 0
1, 53460, Note_on_c, 0, 78, 85
1, 53518, Note_on_c, 0, 78, 0
1, 53518, Note_on_c, 1, 64, 0
1, 53520, Note_on_c, 0, 79, 85
1, 53520, Note_on_c, 1, 61, 85
1, 53578, Note_on_c, 0, 79, 0
1, 53580, Note_on_c, 0, 76, 85
1, 53638, Note_on_c, 0, 76, 0
1, 53640, Note_on_c, 0, 79, 85
1, 53698, Note_on_c, 0, 79, 0
1, 53700, Note_on_c, 0, 81, 85
1, 53758, Note_on_c, 0, 81, 0
1, 53758, Note_on_c, 1, 61, 0
1, 53760, Note_on_c, 0, 83, 85
1, 53760, Note_on_c, 1, 57, 85
1, 53818, Note_on_c, 0, 83, 0
1, 53820, Note_on_c, 0, 79, 85
1, 53850, Note_on_c, 0, 79, 0
1, 53880, Note_on_c, 0, 78, 85
1, 53910, Note_on_c, 0, 78, 0
1, 53940, Note_on_c, 0, 76, 85
1, 53970, Note_on_c, 0, 76, 0
1, 53998, Note_on_c, 1, 57, 0
1, 54000, Note_on_c, 0, 78, 85
1, 54000, Note_on_c, 1, 62, 85
1, 54058, Note_on_c, 0, 78, 0
1, 54060, Note_on_c, 0, 74, 85
1, 54118, Note_on_c, 0, 74, 0
1, 54120, Note_on_c, 0, 76, 85
1, 54178, Note_on_c, 0, 76, 0
1, 54180, Note_on_c, 0, 78, 85
1, 54238, Note_on_c, 0, 78, 0
1, 54238, Note_on_c, 1, 62, 0
1, 54240, Note_on_c, 0, 79, 85
1, 54240, Note_on_c, 1, 59, 85
1, 54298, Note_on_c, 0, 79, 0
1, 54300, Note_on_c, 0, 81, 85
1, 54358, Note_on_c, 0, 81, 0
1, 54360, Note_on_c, 0, 83, 85
1, 54418, Note_on_c, 0, 83, 0
1, 54420, Note_on_c, 0, 85, 85
1, 54478, Note_on_c, 0, 85, 0
1, 54478, Note_on_c, 1, 59, 0
1, 54480, Note_on_c, 0, 86, 85
1, 54480, Note_on_c, 1, 55, 85
1, 54538, Note_on_c, 0, 86, 0
1, 54540, Note_on_c, 0, 83, 85
1, 54570, Note_on_c, 0, 83, 0
1, 54600, Note_on_c, 0, 81, 85
1, 54630, Note_on_c, 0, 81, 0
1, 54660, Note_on_c, 0, 79, 85
1, 54690, Note_on_c, 0, 79, 0
1, 54718, Note_on_c, 1, 55, 0
1, 54720, Note_on_c, 0, 74, 85
1, 54720, Note_on_c, 0, 78, 85
1, 54720, Note_on_c, 1, 57, 85
1, 54958, Note_on_c, 0, 78, 0
1, 54958, Note_on_c, 0, 74, 0
1, 54958, Note_on_c, 1, 57, 0
1, 54960, Note_on_c, 0, 73, 72
1, 54960, Note_on_c, 0, 76, 72
1, 54960, Note_on_c, 1, 45, 72
1, 55080, Note_on_c, 0, 76, 0
1, 55080, Note_on_c, 0, 73, 0
1, 55080, Note_on_c, 1, 45, 0
1, 55200, Note_on_c, 0, 66, 85
1, 55258, Note_on_c, 0, 66, 0
1, 55260, Note_on_c, 0, 62, 85
1, 55290, Note_on_c, 0, 62, 0
1, 55320, Note_on_c, 0, 69, 85
1, 55350, Note_on_c, 0, 69, 0
1, 55380, Note_on_c, 0, 66, 85
1, 55410, Note_on_c, 0, 66, 0
1, 55440, Note_on_c, 0, 74, 85
1, 55498, Note_on_c, 0, 74, 0
1, 55500, Note_on_c, 0, 69, 85
1, 55558, Note_on_c, 0, 69, 0
1, 55560, Note_on_c, 0, 71, 85
1, 55618, Note_on_c, 0, 71, 0
1, 55620, Note_on_c, 0, 73, 85
1, 55678, Note_on_c, 0, 73, 0
1, 55680, Note_on_c, 0, 74, 85
1, 55680, Note_on_c, 1, 66, 85
1, 55738, Note_on_c, 0, 74, 0
1, 55740, Note_on_c, 0, 76, 85
1, 55798, Note_on_c, 0, 76, 0
1, 55800, Note_on_c, 0, 78, 85
1, 55858, Note_on_c, 0, 78, 0
1, 55860, Note_on_c, 0, 79, 85
1, 55918, Note_on_c, 0, 79, 0
1, 55918, Note_on_c, 1, 66, 0
1, 55920, Note_on_c, 0, 81, 85
1, 55920, Note_on_c, 1, 62, 85
1, 55978, Note_on_c, 0, 81, 0
1, 55980, Note_on_c, 0, 78, 85
1, 56010, Note_on_c, 0, 78, 0
1, 56040, Note_on_c, 0, 76, 85
1, 56070, Note_on_c, 0, 76, 0
1, 56100, Note_on_c, 0, 74, 85
1, 56130, Note_on_c, 0, 74, 0
1, 56158, Note_on_c, 1, 62, 0
1, 56160, Note_on_c, 0, 73, 85
1, 56160, Note_on_c, 1, 64, 85
1, 56218, Note_on_c, 0, 73, 0
1, 56220, Note_on_c, 0, 74, 85
1, 56278, Note_on_c, 0, 74, 0
1, 56280, Note_on_c, 0, 76, 85
1, 56338, Note_on_c, 0, 76, 0
1, 56340, Note_on_c, 0, 78, 85
1, 56398, Note_on_c, 0, 78, 0
1, 56398, Note_on_c, 1, 64, 0
1, 56400, Note_on_c, 0, 79, 85
1, 56400, Note_on_c, 1, 57, 85
1, 56458, Note_on_c, 0, 79, 0
1, 56460, Note_on_c, 0, 78, 85
1, 56518, Note_on_c, 0, 78, 0
1, 56520, Note_on_c, 0, 76, 85
1, 56578, Note_on_c, 0, 76, 0
1, 56580, Note_on_c, 0, 74, 85
1, 56638, Note_on_c, 0, 74, 0
1, 56638, Note_on_c, 1, 57, 0
1, 56640, Note_on_c, 0, 73, 85
1, 56640, Note_on_c, 1, 61, 85
1, 56698, Note_on_c, 0, 73, 0
1, 56700, Note_on_c, 0, 71, 85
1, 56730, Note_on_c, 0, 71, 0
1, 56760, Note_on_c, 0, 69, 85
1, 56790, Note_on_c, 0, 69, 0
1, 56820, Note_on_c, 0, 67, 85
1, 56850, Note_on_c, 0, 67, 0
1, 56878, Note_on_c, 1, 61, 0
1, 56880, Note_on_c, 0, 66, 85
1, 56880, Note_on_c, 1, 62, 85
1, 56938, Note_on_c, 0, 66, 0
1, 56940, Note_on_c, 0, 69, 85
1, 56998, Note_on_c, 0, 69, 0
1, 57000, Note_on_c, 0, 67, 85
1, 57058, Note_on_c, 0, 67, 0
1, 57060, Note_on_c, 0, 66, 85
1, 57118, Note_on_c, 0, 66, 0
1, 57118, Note_on_c, 1, 62, 0
1, 57120, Note_on_c, 0, 64, 85
1, 57120, Note_on_c, 1, 55, 85
1, 57178, Note_on_c, 0, 64, 0
1, 57180, Note_on_c, 0, 71, 85
1, 57238, Note_on_c, 0, 71, 0
1, 57240, Note_on_c, 0, 69, 85
1, 57298, Note_on_c, 0, 69, 0
1, 57300, Note_on_c, 0, 67, 85
1, 57358, Note_on_c, 0, 67, 0
1, 57358, Note_on_c, 1, 55, 0
1, 57360, Note_on_c, 0, 66, 85
1, 57360, Note_on_c, 1, 45, 85
1, 57360, Note_on_c, 1, 57, 85
1, 57418, Note_on_c, 0, 66, 0
1, 57420, Note_on_c, 0, 64, 85
1, 57450, Note_on_c, 0, 64, 0
1, 57480, Note_on_c, 0, 62, 85
1, 57510, Note_on_c, 0, 62, 0
1, 57540, Note_on_c, 0, 61, 85
1, 57570, Note_on_c, 0, 61, 0
1, 57598, Note_on_c, 1, 57, 0
1, 57598, Note_on_c, 1, 45, 0
1, 57600, Note_on_c, 0, 62, 85
1, 57600, Note_on_c, 1, 50, 85
1, 57838, Note_on_c, 0, 62, 0
1, 57838, Note_on_c, 1, 50, 0
1, 57840, Note_on_c, 1, 38, 72
1, 57960, Note_on_c, 1, 38, 0
1, 58080, Note_on_c, 0, 78, 85
1, 58138, Note_on_c, 0, 78, 0
1, 58140, Note_on_c, 0, 74, 85
1, 58170, Note_on_c, 0, 74, 0
1, 58200, Note_on_c, 0, 81, 85
1, 58230, Note_on_c, 0, 81, 0
1, 58260, Note_on_c, 0, 78, 85
1, 58290, Note_on_c, 0, 78, 0
1, 58320, Note_on_c, 0, 86, 85
1, 58378, Note_on_c, 0, 86, 0
1, 58380, Note_on_c, 0, 81, 85
1, 58438, Note_on_c, 0, 81, 0
1, 58440, Note_on_c, 0, 78, 85
1, 58498, Note_on_c, 0, 78, 0
1, 58500, Note_on_c, 0, 74, 85
1, 58558, Note_on_c, 0, 74, 0
1, 58560, Note_on_c, 0, 71, 85
1, 58618, Note_on_c, 0, 71, 0
1, 58620, Note_on_c, 0, 74, 85
1, 58678, Note_on_c, 0, 74, 0
1, 58680, Note_on_c, 0, 76, 85
1, 58738, Note_on_c, 0, 76, 0
1, 58740, Note_on_c, 0, 80, 85
1, 58798, Note_on_c, 0, 80, 0
1, 58800, Note_on_c, 0, 73, 85
1, 58858, Note_on_c, 0, 73, 0
1, 58860, Note_on_c, 0, 76, 85
1, 58890, Note_on_c, 0, 76, 0
1, 58920, Note_on_c, 0, 81, 85
1, 58950, Note_on_c, 0, 81, 0
1, 58980, Note_on_c, 0, 85, 85
1, 59010, Note_on_c, 0, 85, 0
1, 59040, Note_on_c, 0, 71, 85
1, 59098, Note_on_c, 0, 71, 0
1, 59100, Note_on_c, 0, 74, 85
1, 59158, Note_on_c, 0, 74, 0
1, 59160, Note_on_c, 0, 79, 85
1, 59218, Note_on_c, 0, 79, 0
1, 59220, Note_on_c, 0, 83, 85
1, 59278, Note_on_c, 0, 83, 0
1, 59280, Note_on_c, 0, 69, 85
1, 59338, Note_on_c, 0, 69, 0
1, 59340, Note_on_c, 0, 73, 85
1, 59398, Note_on_c, 0, 73, 0
1, 59400, Note_on_c, 0, 78, 85
1, 59458, Note_on_c, 0, 78, 0
1, 59460, Note_on_c, 0, 81, 85
1, 59518, Note_on_c, 0, 81, 0
1, 59520, Note_on_c, 0, 67, 85
1, 59578, Note_on_c, 0, 67, 0
1, 59580, Note_on_c, 0, 71, 85
1, 59610, Note_on_c, 0, 71, 0
1, 59640, Note_on_c, 0, 76, 85
1, 59670, Note_on_c, 0, 76, 0
1, 59700, Note_on_c, 0, 79, 85
1, 59730, Note_on_c, 0, 79, 0
1, 59760, Note_on_c, 0, 66, 85
1, 59818, Note_on_c, 0, 66, 0
1, 59820, Note_on_c, 0, 69, 85
1, 59878, Note_on_c, 0, 69, 0
1, 59880, Note_on_c, 0, 74, 85
1, 59938, Note_on_c, 0, 74, 0
1, 59940, Note_on_c, 0, 78, 85
1, 59998, Note_on_c, 0, 78, 0
1, 60000, Note_on_c, 0, 64, 85
1, 60058, Note_on_c, 0, 64, 0
1, 60060, Note_on_c, 0, 67, 85
1, 60118, Note_on_c, 0, 67, 0
1, 60120, Note_on_c, 0, 73, 85
1, 60178, Note_on_c, 0, 73, 0
1, 60180, Note_on_c, 0, 79, 85
1, 60238, Note_on_c, 0, 79, 0
1, 60240, Note_on_c, 0, 62, 85
1, 60298, Note_on_c, 0, 62, 0
1, 60300, Note_on_c, 0, 69, 85
1, 60330, Note_on_c, 0, 69, 0
1, 60360, Note_on_c, 0, 78, 85
1, 60390, Note_on_c, 0, 78, 0
1, 60420, Note_on_c, 0, 86, 85
1, 60450, Note_on_c, 0, 86, 0
1, 60480, Note_on_c, 0, 69, 85
1, 60480, Note_on_c, 0, 78, 85
1, 60480, Note_on_c, 0, 74, 85
1, 60718, Note_on_c, 0, 74, 0
1, 60718, Note_on_c, 0, 78, 0
1, 60718, Note_on_c, 0, 69, 0
1, 60720, Note_on_c, 0, 57, 72
1, 60720, Note_on_c, 0, 76, 72
1, 60720, Note_on_c, 0, 73, 72
1, 60840, Note_on_c, 0, 73, 0
1, 60840, Note_on_c, 0, 76, 0
1, 60840, Note_on_c, 0, 57, 0
1, 60960, Note_on_c, 0, 78, 85
1, 61018, Note_on_c, 0, 78, 0
1, 61020, Note_on_c, 0, 74, 85
1, 61050, Note_on_c, 0, 74, 0
1, 61080, Note_on_c, 0, 81, 85
1, 61110, Note_on_c, 0, 81, 0
1, 61140, Note_on_c, 0, 78, 85
1, 61170, Note_on_c, 0, 78, 0
1, 61200, Note_on_c, 0, 86, 85
1, 61258, Note_on_c, 0, 86, 0
1, 61260, Note_on_c, 0, 81, 85
1, 61318, Note_on_c, 0, 81, 0
1, 61320, Note_on_c, 0, 78, 85
1, 61378, Note_on_c, 0, 78, 0
1, 61380, Note_on_c, 0, 74, 85
1, 61438, Note_on_c, 0, 74, 0
1, 61440, Note_on_c, 0, 71, 85
1, 61498, Note_on_c, 0, 71, 0
1, 61500, Note_on_c, 0, 74, 85
1, 61558, Note_on_c, 0, 74, 0
1, 61560, Note_on_c, 0, 76, 85
1, 61618, Note_on_c, 0, 76, 0
1, 61620, Note_on_c, 0, 80, 85
1, 61678, Note_on_c, 0, 80, 0
1, 61680, Note_on_c, 0, 73, 85
1, 61738, Note_on_c, 0, 73, 0
1, 61740, Note_on_c, 0, 76, 85
1, 61770, Note_on_c, 0, 76, 0
1, 61800, Note_on_c, 0, 81, 85
1, 61830, Note_on_c, 0, 81, 0
1, 61860, Note_on_c, 0, 85, 85
1, 61890, Note_on_c, 0, 85, 0
1, 61920, Note_on_c, 0, 71, 85
1, 61978, Note_on_c, 0, 71, 0
1, 61980, Note_on_c, 0, 74, 85
1, 62038, Note_on_c, 0, 74, 0
1, 62040, Note_on_c, 0, 79, 85
1, 62098, Note_on_c, 0, 79, 0
1, 62100, Note_on_c, 0, 83, 85
1, 62158, Note_on_c, 0, 83, 0
1, 62160, Note_on_c, 0, 69, 85
1, 62218, Note_on_c, 0, 69, 0
1, 62220, Note_on_c, 0, 73, 85
1, 62278, Note_on_c, 0, 73, 0
1, 62280, Note_on_c, 0, 78, 85
1, 62338, Note_on_c, 0, 78, 0
1, 62340, Note_on_c, 0, 81, 85
1, 62398, Note_on_c, 0, 81, 0
1, 62400, Note_on_c, 0, 67, 85
1, 62458, Note_on_c, 0, 67, 0
1, 62460, Note_on_c, 0, 71, 85
1, 62490, Note_on_c, 0, 71, 0
1, 62520, Note_on_c, 0, 76, 85
1, 62550, Note_on_c, 0, 76, 0
1, 62580, Note_on_c, 0, 79, 85
1, 62610, Note_on_c, 0, 79, 0
1, 62640, Note_on_c, 0, 66, 85
1, 62698, Note_on_c, 0, 66, 0
1, 62700, Note_on_c, 0, 69, 85
1, 62758, Note_on_c, 0, 69, 0
1, 62760, Note_on_c, 0, 74, 85
1, 62818, Note_on_c, 0, 74, 0
1, 62820, Note_on_c, 0, 78, 85
1, 62878, Note_on_c, 0, 78, 0
1, 62880, Note_on_c, 0, 67, 85
1, 62938, Note_on_c, 0, 67, 0
1, 62940, Note_on_c, 0, 71, 85
1, 62998, Note_on_c, 0, 71, 0
1, 63000, Note_on_c, 0, 76, 85
1, 63058, Note_on_c, 0, 76, 0
1, 63060, Note_on_c, 0, 79, 85
1, 63118, Note_on_c, 0, 79, 0
1, 63120, Note_on_c, 0, 57, 85
1, 63178, Note_on_c, 0, 57, 0
1, 63180, Note_on_c, 0, 64, 85
1, 63210, Note_on_c, 0, 64, 0
1, 63240, Note_on_c, 0, 67, 85
1, 63270, Note_on_c, 0, 67, 0
1, 63300, Note_on_c, 0, 73, 85
1, 63330, Note_on_c, 0, 73, 0
1, 63360, Note_on_c, 0, 74, 85
1, 63360, Note_on_c, 0, 66, 85
1, 63360, Note_on_c, 1, 62, 85
1, 63598, Note_on_c, 0, 66, 0
1, 63598, Note_on_c, 0, 74, 0
1, 63598, Note_on_c, 1, 62, 0
1, 63600, Note_on_c, 1, 50, 85
1, 63838, Note_on_c, 1, 50, 0
1, 63848, End_track
0, 0, End_of_file