0, 0, Header, 0, 1, 240
1, 0, Start_track
1, 0, Tempo, 882353
1, 0, Note_on_c, 0, 81, 64
1, 0, Note_on_c, 1, 62, 64
1, 0, Note_on_c, 1, 65, 64
1, 178, Note_on_c, 0, 81, 0
1, 180, Note_on_c, 0, 77, 80
1, 208, Note_on_c, 0, 77, 0
1, 210, Note_on_c, 0, 74, 80
1, 238, Note_on_c, 0, 74, 0
1, 238, Note_on_c, 1, 65, 0
1, 238, Note_on_c, 1, 62, 0
1, 240, Note_on_c, 0, 73, 80
1, 240, Note_on_c, 1, 64, 80
1, 240, Note_on_c, 1, 67, 80
1, 360, Note_on_c, 0, 73, 0
1, 360, Note_on_c, 1, 67, 0
1, 360, Note_on_c, 1, 64, 0
1, 720, Note_on_c, 0, 82, 64
1, 720, Note_on_c, 1, 64, 64
1, 720, Note_on_c, 1, 67, 64
1, 720, Note_on_c, 1, 70, 64
1, 720, Note_on_c, 1, 73, 64
1, 898, Note_on_c, 0, 82, 0
1, 900, Note_on_c, 0, 79, 85
1, 928, Note_on_c, 0, 79, 0
1, 930, Note_on_c, 0, 76, 85
1, 958, Note_on_c, 0, 76, 0
1, 958, Note_on_c, 1, 73, 0
1, 958, Note_on_c, 1, 64, 0
1, 958, Note_on_c, 1, 67, 0
1, 958, Note_on_c, 1, 70, 0
1, 960, Note_on_c, 0, 74, 85
1, 960, Note_on_c, 1, 65, 85
1, 960, Note_on_c, 1, 69, 85
1, 960, Note_on_c, 1, 74, 85
1, 1078, Note_on_c, 0, 74, 0
1, 1078, Note_on_c, 1, 74, 0
1, 1078, Note_on_c, 1, 69, 0
1, 1078, Note_on_c, 1, 65, 0
1, 1140, Note_on_c, 0, 85, 64
1, 1198, Note_on_c, 0, 85, 0
1, 1200, Note_on_c, 0, 86, 64
1, 1313, Note_on_c, 0, 86, 0
1, 1380, Note_on_c, 0, 81, 64
1, 1428, Note_on_c, 0, 81, 0
1, 1440, Note_on_c, 0, 82, 64
1, 1440, Note_on_c, 1, 67, 64
1, 1530, Note_on_c, 0, 82, 0
1, 1558, Note_on_c, 1, 67, 0
1, 1620, Note_on_c, 0, 74, 64
1, 1680, Note_on_c, 0, 74, 0
1, 1680, Note_on_c, 0, 73, 64
1, 1680, Note_on_c, 1, 69, 64
1, 1770, Note_on_c, 0, 73, 0
1, 1798, Note_on_c, 1, 69, 0
1, 1860, Note_on_c, 0, 76, 64
1, 1920, Note_on_c, 0, 76, 0
1, 1920, Note_on_c, 0, 81, 64
1, 1920, Note_on_c, 1, 61, 64
1, 1920, Note_on_c, 1, 69, 64
1, 2010, Note_on_c, 0, 81, 0
1, 2038, Note_on_c, 1, 69, 0
1, 2038, Note_on_c, 1, 61, 0
1, 2100, Note_on_c, 0, 79, 64
1, 2160, Note_on_c, 0, 79, 0
1, 2160, Note_on_c, 0, 79, 64
1, 2160, Note_on_c, 1, 62, 64
1, 2160, Note_on_c, 1, 69, 64
1, 2220, Note_on_c, 0, 79, 0
1, 2220, Note_on_c, 0, 77, 65
1, 2250, Note_on_c, 0, 77, 0
1, 2250, Note_on_c, 0, 79, 65
1, 2280, Note_on_c, 0, 79, 0
1, 2280, Note_on_c, 0, 77, 65
1, 2280, Note_on_c, 1, 69, 0
1, 2280, Note_on_c, 1, 62, 0
1, 2310, Note_on_c, 0, 77, 0
1, 2310, Note_on_c, 0, 79, 66
1, 2340, Note_on_c, 0, 79, 0
1, 2340, Note_on_c, 0, 77, 66
1, 2360, Note_on_c, 0, 77, 0
1, 2360, Note_on_c, 0, 79, 66
1, 2380, Note_on_c, 0, 79, 0
1, 2380, Note_on_c, 0, 77, 66
1, 2400, Note_on_c, 0, 77, 0
1, 2400, Note_on_c, 0, 76, 67
1, 2400, Note_on_c, 1, 69, 64
1, 2400, Note_on_c, 1, 73, 64
1, 2496, Note_on_c, 0, 76, 0
1, 2518, Note_on_c, 1, 73, 0
1, 2518, Note_on_c, 1, 69, 0
1, 2880, Note_on_c, 0, 69, 85
1, 2880, Note_on_c, 1, 50, 85
1, 2880, Note_on_c, 1, 53, 85
1, 3000, Note_on_c, 0, 69, 0
1, 3000, Note_on_c, 0, 67, 85
1, 3030, Note_on_c, 0, 67, 0
1, 3030, Note_on_c, 0, 65, 85
1, 3060, Note_on_c, 0, 65, 0
1, 3060, Note_on_c, 0, 64, 85
1, 3090, Note_on_c, 0, 64, 0
1, 3090, Note_on_c, 0, 62, 85
1, 3118, Note_on_c, 1, 53, 0
1, 3118, Note_on_c, 1, 50, 0
1, 3120, Note_on_c, 0, 62, 0
1, 3120, Note_on_c, 0, 61, 85
1, 3120, Note_on_c, 1, 52, 85
1, 3120, Note_on_c, 1, 55, 85
1, 3216, Note_on_c, 0, 61, 0
1, 3216, Note_on_c, 1, 55, 0
1, 3216, Note_on_c, 1, 52, 0
1, 3360, Note_on_c, 0, 55, 85
1, 3398, Note_on_c, 0, 55, 0
1, 3400, Note_on_c, 0, 58, 85
1, 3438, Note_on_c, 0, 58, 0
1, 3440, Note_on_c, 0, 61, 85
1, 3478, Note_on_c, 0, 61, 0
1, 3480, Note_on_c, 0, 64, 85
1, 3518, Note_on_c, 0, 64, 0
1, 3520, Note_on_c, 0, 67, 85
1, 3558, Note_on_c, 0, 67, 0
1, 3560, Note_on_c, 0, 69, 85
1, 3598, Note_on_c, 0, 69, 0
1, 3600, Note_on_c, 0, 70, 85
1, 3600, Note_on_c, 1, 52, 85
1, 3600, Note_on_c, 1, 55, 85
1, 3600, Note_on_c, 1, 58, 85
1, 3600, Note_on_c, 1, 61, 85
1, 3720, Note_on_c, 0, 70, 0
1, 3720, Note_on_c, 0, 69, 85
1, 3750, Note_on_c, 0, 69, 0
1, 3750, Note_on_c, 0, 67, 85
1, 3780, Note_on_c, 0, 67, 0
1, 3780, Note_on_c, 0, 65, 85
1, 3810, Note_on_c, 0, 65, 0
1, 3810, Note_on_c, 0, 64, 85
1, 3838, Note_on_c, 1, 61, 0
1, 3838, Note_on_c, 1, 52, 0
1, 3838, Note_on_c, 1, 55, 0
1, 3838, Note_on_c, 1, 58, 0
1, 3840, Note_on_c, 0, 64, 0
1, 3840, Note_on_c, 0, 62, 85
1, 3840, Note_on_c, 1, 53, 85
1, 3840, Note_on_c, 1, 57, 85
1, 3840, Note_on_c, 1, 62, 85
1, 3930, Note_on_c, 0, 62, 0
1, 3936, Note_on_c, 1, 62, 0
1, 3936, Note_on_c, 1, 57, 0
1, 3936, Note_on_c, 1, 53, 0
1, 4020, Note_on_c, 0, 73, 64
1, 4080, Note_on_c, 0, 73, 0
1, 4080, Note_on_c, 0, 74, 64
1, 4140, Note_on_c, 0, 74, 0
1, 4140, Note_on_c, 0, 76, 64
1, 4160, Note_on_c, 0, 76, 0
1, 4160, Note_on_c, 0, 74, 64
1, 4180, Note_on_c, 0, 74, 0
1, 4180, Note_on_c, 0, 73, 64
1, 4200, Note_on_c, 0, 73, 0
1, 4200, Note_on_c, 0, 74, 64
1, 4230, Note_on_c, 0, 74, 0
1, 4260, Note_on_c, 0, 76, 64
1, 4320, Note_on_c, 0, 76, 0
1, 4320, Note_on_c, 0, 77, 64
1, 4320, Note_on_c, 1, 46, 64
1, 4320, Note_on_c, 1, 50, 64
1, 4320, Note_on_c, 1, 56, 64
1, 4344, Note_on_c, 0, 77, 0
1, 4350, Note_on_c, 0, 79, 64
1, 4374, Note_on_c, 0, 79, 0
1, 4380, Note_on_c, 0, 77, 64
1, 4410, Note_on_c, 0, 77, 0
1, 4500, Note_on_c, 0, 85, 64
1, 4548, Note_on_c, 0, 85, 0
1, 4558, Note_on_c, 1, 56, 0
1, 4558, Note_on_c, 1, 50, 0
1, 4558, Note_on_c, 1, 46, 0
1, 4560, Note_on_c, 0, 86, 64
1, 4656, Note_on_c, 0, 86, 0
1, 4740, Note_on_c, 0, 88, 64
1, 4788, Note_on_c, 0, 88, 0
1, 4800, Note_on_c, 0, 89, 80
1, 4800, Note_on_c, 1, 34, 64
1, 4896, Note_on_c, 0, 89, 0
1, 4918, Note_on_c, 1, 34, 0
1, 4980, Note_on_c, 0, 56, 64
1, 5028, Note_on_c, 0, 56, 0
1, 5040, Note_on_c, 0, 56, 64
1, 5040, Note_on_c, 1, 33, 64
1, 5232, Note_on_c, 0, 56, 0
1, 5278, Note_on_c, 1, 33, 0
1, 5280, Note_on_c, 0, 57, 64
1, 5304, Note_on_c, 0, 57, 0
1, 5310, Note_on_c, 0, 56, 64
1, 5334, Note_on_c, 0, 56, 0
1, 5340, Note_on_c, 0, 57, 64
1, 5364, Note_on_c, 0, 57, 0
1, 5370, Note_on_c, 0, 56, 64
1, 5394, Note_on_c, 0, 56, 0
1, 5400, Note_on_c, 0, 57, 64
1, 5496, Note_on_c, 0, 57, 0
1, 5760, Note_on_c, 1, 29, 85
1, 5760, Note_on_c, 1, 41, 85
1, 5800, Note_on_c, 0, 84, 85
1, 5830, Note_on_c, 0, 84, 0
1, 5840, Note_on_c, 0, 79, 85
1, 5880, Note_on_c, 0, 81, 85
1, 5885, Note_on_c, 0, 79, 0
1, 5920, Note_on_c, 0, 81, 0
1, 5920, Note_on_c, 0, 84, 85
1, 5960, Note_on_c, 0, 84, 0
1, 5960, Note_on_c, 0, 76, 85
1, 5998, Note_on_c, 1, 41, 0
1, 5998, Note_on_c, 1, 29, 0
1, 6000, Note_on_c, 0, 76, 0
1, 6000, Note_on_c, 0, 77, 85
1, 6040, Note_on_c, 0, 77, 0
1, 6040, Note_on_c, 0, 81, 85
1, 6080, Note_on_c, 0, 81, 0
1, 6080, Note_on_c, 0, 77, 85
1, 6120, Note_on_c, 0, 77, 0
1, 6120, Note_on_c, 0, 76, 85
1, 6160, Note_on_c, 0, 76, 0
1, 6160, Note_on_c, 0, 74, 85
1, 6200, Note_on_c, 0, 74, 0
1, 6200, Note_on_c, 0, 72, 85
1, 6240, Note_on_c, 0, 72, 0
1, 6240, Note_on_c, 0, 70, 85
1, 6280, Note_on_c, 0, 70, 0
1, 6280, Note_on_c, 0, 69, 85
1, 6320, Note_on_c, 0, 69, 0
1, 6320, Note_on_c, 0, 67, 85
1, 6360, Note_on_c, 0, 67, 0
1, 6360, Note_on_c, 0, 65, 85
1, 6400, Note_on_c, 0, 65, 0
1, 6400, Note_on_c, 0, 64, 85
1, 6440, Note_on_c, 0, 64, 0
1, 6440, Note_on_c, 0, 62, 85
1, 6480, Note_on_c, 0, 62, 0
1, 6480, Note_on_c, 0, 60, 80
1, 6600, Note_on_c, 1, 52, 67
1, 6600, Note_on_c, 1, 58, 67
1, 6684, Note_on_c, 1, 58, 0
1, 6684, Note_on_c, 1, 52, 0
1, 6720, Note_on_c, 1, 52, 69
1, 6720, Note_on_c, 1, 58, 69
1, 6804, Note_on_c, 1, 58, 0
1, 6804, Note_on_c, 1, 52, 0
1, 6816, Note_on_c, 0, 60, 0
1, 6840, Note_on_c, 1, 52, 72
1, 6840, Note_on_c, 1, 58, 72
1, 6900, Note_on_c, 0, 64, 80
1, 6924, Note_on_c, 1, 58, 0
1, 6924, Note_on_c, 1, 52, 0
1, 6948, Note_on_c, 0, 64, 0
1, 6960, Note_on_c, 0, 62, 80
1, 6960, Note_on_c, 1, 52, 75
1, 6960, Note_on_c, 1, 58, 75
1, 7044, Note_on_c, 1, 58, 0
1, 7044, Note_on_c, 1, 52, 0
1, 7080, Note_on_c, 1, 52, 77
1, 7080, Note_on_c, 1, 58, 77
1, 7104, Note_on_c, 0, 62, 0
1, 7140, Note_on_c, 0, 60, 80
1, 7164, Note_on_c, 1, 58, 0
1, 7164, Note_on_c, 1, 52, 0
1, 7188, Note_on_c, 0, 60, 0
1, 7200, Note_on_c, 0, 60, 85
1, 7200, Note_on_c, 1, 53, 85
1, 7200, Note_on_c, 1, 57, 85
1, 7240, Note_on_c, 0, 60, 0
1, 7240, Note_on_c, 0, 84, 85
1, 7280, Note_on_c, 0, 84, 0
1, 7280, Note_on_c, 0, 79, 85
1, 7320, Note_on_c, 0, 79, 0
1, 7320, Note_on_c, 0, 81, 85
1, 7360, Note_on_c, 0, 81, 0
1, 7360, Note_on_c, 0, 84, 85
1, 7400, Note_on_c, 0, 84, 0
1, 7400, Note_on_c, 0, 76, 85
1, 7438, Note_on_c, 1, 57, 0
1, 7438, Note_on_c, 1, 53, 0
1, 7440, Note_on_c, 0, 76, 0
1, 7440, Note_on_c, 0, 77, 85
1, 7480, Note_on_c, 0, 77, 0
1, 7480, Note_on_c, 0, 81, 85
1, 7520, Note_on_c, 0, 81, 0
1, 7520, Note_on_c, 0, 77, 85
1, 7560, Note_on_c, 0, 77, 0
1, 7560, Note_on_c, 0, 76, 85
1, 7600, Note_on_c, 0, 76, 0
1, 7600, Note_on_c, 0, 74, 85
1, 7640, Note_on_c, 0, 74, 0
1, 7640, Note_on_c, 0, 72, 85
1, 7680, Note_on_c, 0, 72, 0
1, 7680, Note_on_c, 0, 70, 85
1, 7720, Note_on_c, 0, 70, 0
1, 7720, Note_on_c, 0, 69, 85
1, 7760, Note_on_c, 0, 69, 0
1, 7760, Note_on_c, 0, 67, 85
1, 7800, Note_on_c, 0, 67, 0
1, 7800, Note_on_c, 0, 65, 85
1, 7840, Note_on_c, 0, 65, 0
1, 7840, Note_on_c, 0, 64, 85
1, 7880, Note_on_c, 0, 64, 0
1, 7880, Note_on_c, 0, 62, 85
1, 7920, Note_on_c, 0, 62, 0
1, 7920, Note_on_c, 0, 60, 80
1, 8040, Note_on_c, 1, 51, 67
1, 8040, Note_on_c, 1, 57, 67
1, 8124, Note_on_c, 1, 57, 0
1, 8124, Note_on_c, 1, 51, 0
1, 8160, Note_on_c, 1, 51, 69
1, 8160, Note_on_c, 1, 57, 69
1, 8244, Note_on_c, 1, 57, 0
1, 8244, Note_on_c, 1, 51, 0
1, 8256, Note_on_c, 0, 60, 0
1, 8280, Note_on_c, 1, 51, 72
1, 8280, Note_on_c, 1, 57, 72
1, 8340, Note_on_c, 0, 63, 80
1, 8364, Note_on_c, 1, 57, 0
1, 8364, Note_on_c, 1, 51, 0
1, 8388, Note_on_c, 0, 63, 0
1, 8400, Note_on_c, 0, 62, 80
1, 8400, Note_on_c, 1, 51, 75
1, 8400, Note_on_c, 1, 57, 75
1, 8484, Note_on_c, 1, 57, 0
1, 8484, Note_on_c, 1, 51, 0
1, 8520, Note_on_c, 1, 51, 77
1, 8520, Note_on_c, 1, 57, 77
1, 8544, Note_on_c, 0, 62, 0
1, 8580, Note_on_c, 0, 60, 80
1, 8604, Note_on_c, 1, 57, 0
1, 8604, Note_on_c, 1, 51, 0
1, 8628, Note_on_c, 0, 60, 0
1, 8640, Note_on_c, 0, 65, 85
1, 8760, Note_on_c, 1, 50, 77
1, 8760, Note_on_c, 1, 53, 77
1, 8818, Note_on_c, 0, 65, 0
1, 8820, Note_on_c, 0, 62, 85
1, 8844, Note_on_c, 1, 53, 0
1, 8844, Note_on_c, 1, 50, 0
1, 8878, Note_on_c, 0, 62, 0
1, 8880, Note_on_c, 0, 58, 85
1, 8880, Note_on_c, 1, 50, 75
1, 8880, Note_on_c, 1, 53, 75
1, 8964, Note_on_c, 1, 53, 0
1, 8964, Note_on_c, 1, 50, 0
1, 9000, Note_on_c, 1, 50, 72
1, 9000, Note_on_c, 1, 53, 72
1, 9084, Note_on_c, 1, 53, 0
1, 9084, Note_on_c, 1, 50, 0
1, 9120, Note_on_c, 1, 50, 69
1, 9120, Note_on_c, 1, 53, 69
1, 9158, Note_on_c, 0, 58, 0
1, 9160, Note_on_c, 0, 62, 85
1, 9198, Note_on_c, 0, 62, 0
1, 9200, Note_on_c, 0, 64, 85
1, 9238, Note_on_c, 0, 64, 0
1, 9238, Note_on_c, 1, 53, 0
1, 9238, Note_on_c, 1, 50, 0
1, 9240, Note_on_c, 0, 65, 85
1, 9278, Note_on_c, 0, 65, 0
1, 9280, Note_on_c, 0, 67, 85
1, 9318, Note_on_c, 0, 67, 0
1, 9320, Note_on_c, 0, 69, 85
1, 9358, Note_on_c, 0, 69, 0
1, 9360, Note_on_c, 0, 70, 85
1, 9360, Note_on_c, 1, 48, 64
1, 9398, Note_on_c, 1, 48, 0
1, 9400, Note_on_c, 1, 52, 64
1, 9438, Note_on_c, 1, 52, 0
1, 9440, Note_on_c, 1, 55, 64
1, 9478, Note_on_c, 1, 55, 0
1, 9480, Note_on_c, 1, 48, 64
1, 9518, Note_on_c, 1, 48, 0
1, 9520, Note_on_c, 1, 52, 64
1, 9558, Note_on_c, 1, 52, 0
1, 9560, Note_on_c, 1, 55, 64
1, 9598, Note_on_c, 1, 55, 0
1, 9600, Note_on_c, 1, 48, 64
1, 9638, Note_on_c, 1, 48, 0
1, 9640, Note_on_c, 1, 52, 64
1, 9678, Note_on_c, 1, 52, 0
1, 9680, Note_on_c, 1, 55, 64
1, 9718, Note_on_c, 1, 55, 0
1, 9720, Note_on_c, 1, 48, 64
1, 9758, Note_on_c, 1, 48, 0
1, 9760, Note_on_c, 1, 52, 64
1, 9780, Note_on_c, 0, 70, 0
1, 9780, Note_on_c, 0, 72, 85
1, 9798, Note_on_c, 1, 52, 0
1, 9800, Note_on_c, 1, 55, 64
1, 9810, Note_on_c, 0, 72, 0
1, 9810, Note_on_c, 0, 70, 85
1, 9838, Note_on_c, 1, 55, 0
1, 9840, Note_on_c, 0, 70, 0
1, 9840, Note_on_c, 0, 69, 85
1, 9840, Note_on_c, 1, 48, 64
1, 9878, Note_on_c, 1, 48, 0
1, 9880, Note_on_c, 1, 53, 64
1, 9918, Note_on_c, 1, 53, 0
1, 9920, Note_on_c, 1, 57, 64
1, 9958, Note_on_c, 1, 57, 0
1, 9960, Note_on_c, 1, 48, 64
1, 9998, Note_on_c, 1, 48, 0
1, 10000, Note_on_c, 1, 53, 64
1, 10038, Note_on_c, 1, 53, 0
1, 10040, Note_on_c, 1, 57, 64
1, 10078, Note_on_c, 1, 57, 0
1, 10080, Note_on_c, 0, 69, 0
1, 10080, Note_on_c, 0, 74, 85
1, 10080, Note_on_c, 1, 46, 64
1, 10118, Note_on_c, 1, 46, 0
1, 10120, Note_on_c, 1, 53, 64
1, 10158, Note_on_c, 1, 53, 0
1, 10160, Note_on_c, 1, 57, 64
1, 10198, Note_on_c, 1, 57, 0
1, 10200, Note_on_c, 1, 46, 64
1, 10238, Note_on_c, 1, 46, 0
1, 10240, Note_on_c, 1, 53, 64
1, 10278, Note_on_c, 1, 53, 0
1, 10280, Note_on_c, 1, 57, 64
1, 10318, Note_on_c, 1, 57, 0
1, 10320, Note_on_c, 0, 74, 0
1, 10320, Note_on_c, 0, 79, 85
1, 10320, Note_on_c, 1, 46, 64
1, 10358, Note_on_c, 1, 46, 0
1, 10360, Note_on_c, 1, 53, 64
1, 10398, Note_on_c, 1, 53, 0
1, 10400, Note_on_c, 1, 55, 64
1, 10438, Note_on_c, 1, 55, 0
1, 10440, Note_on_c, 1, 46, 64
1, 10478, Note_on_c, 1, 46, 0
1, 10480, Note_on_c, 1, 53, 64
1, 10518, Note_on_c, 1, 53, 0
1, 10520, Note_on_c, 1, 55, 64
1, 10558, Note_on_c, 1, 55, 0
1, 10560, Note_on_c, 0, 79, 0
1, 10560, Note_on_c, 0, 77, 85
1, 10560, Note_on_c, 1, 47, 64
1, 10598, Note_on_c, 1, 47, 0
1, 10600, Note_on_c, 1, 50, 64
1, 10638, Note_on_c, 1, 50, 0
1, 10640, Note_on_c, 1, 55, 64
1, 10678, Note_on_c, 1, 55, 0
1, 10680, Note_on_c, 1, 47, 64
1, 10718, Note_on_c, 1, 47, 0
1, 10720, Note_on_c, 1, 50, 64
1, 10758, Note_on_c, 1, 50, 0
1, 10760, Note_on_c, 1, 55, 64
1, 10798, Note_on_c, 1, 55, 0
1, 10800, Note_on_c, 0, 77, 0
1, 10800, Note_on_c, 0, 77, 85
1, 10800, Note_on_c, 1, 48, 64
1, 10838, Note_on_c, 1, 48, 0
1, 10840, Note_on_c, 1, 52, 65
1, 10858, Note_on_c, 0, 77, 0
1, 10860, Note_on_c, 0, 76, 85
1, 10878, Note_on_c, 1, 52, 0
1, 10880, Note_on_c, 1, 55, 66
1, 10884, Note_on_c, 0, 76, 0
1, 10918, Note_on_c, 1, 55, 0
1, 10920, Note_on_c, 0, 74, 85
1, 10920, Note_on_c, 1, 48, 67
1, 10944, Note_on_c, 0, 74, 0
1, 10958, Note_on_c, 1, 48, 0
1, 10960, Note_on_c, 1, 52, 68
1, 10980, Note_on_c, 0, 72, 85
1, 10998, Note_on_c, 1, 52, 0
1, 11000, Note_on_c, 1, 55, 68
1, 11004, Note_on_c, 0, 72, 0
1, 11038, Note_on_c, 1, 55, 0
1, 11040, Note_on_c, 0, 70, 85
1, 11040, Note_on_c, 1, 52, 69
1, 11078, Note_on_c, 1, 52, 0
1, 11080, Note_on_c, 1, 55, 70
1, 11118, Note_on_c, 1, 55, 0
1, 11120, Note_on_c, 1, 60, 71
1, 11158, Note_on_c, 1, 60, 0
1, 11160, Note_on_c, 1, 52, 72
1, 11198, Note_on_c, 1, 52, 0
1, 11200, Note_on_c, 1, 55, 73
1, 11238, Note_on_c, 1, 55, 0
1, 11240, Note_on_c, 1, 60, 74
1, 11278, Note_on_c, 1, 60, 0
1, 11280, Note_on_c, 0, 70, 0
1, 11280, Note_on_c, 0, 69, 85
1, 11280, Note_on_c, 1, 53, 75
1, 11318, Note_on_c, 1, 53, 0
1, 11320, Note_on_c, 1, 57, 76
1, 11358, Note_on_c, 1, 57, 0
1, 11360, Note_on_c, 1, 60, 76
1, 11398, Note_on_c, 1, 60, 0
1, 11400, Note_on_c, 1, 53, 77
1, 11438, Note_on_c, 1, 53, 0
1, 11440, Note_on_c, 1, 57, 78
1, 11478, Note_on_c, 1, 57, 0
1, 11480, Note_on_c, 1, 60, 79
1, 11518, Note_on_c, 0, 69, 0
1, 11518, Note_on_c, 1, 60, 0
1, 11520, Note_on_c, 1, 58, 85
1, 11520, Note_on_c, 1, 62, 85
1, 11560, Note_on_c, 0, 67, 85
1, 11598, Note_on_c, 0, 67, 0
1, 11600, Note_on_c, 0, 70, 85
1, 11638, Note_on_c, 0, 70, 0
1, 11640, Note_on_c, 0, 74, 85
1, 11640, Note_on_c, 1, 62, 0
1, 11640, Note_on_c, 1, 58, 0
1, 11678, Note_on_c, 0, 74, 0
1, 11680, Note_on_c, 0, 70, 85
1, 11718, Note_on_c, 0, 70, 0
1, 11720, Note_on_c, 0, 67, 85
1, 11758, Note_on_c, 0, 67, 0
1, 11760, Note_on_c, 0, 65, 85
1, 11760, Note_on_c, 1, 48, 85
1, 11760, Note_on_c, 1, 57, 85
1, 11998, Note_on_c, 1, 57, 0
1, 12000, Note_on_c, 1, 58, 85
1, 12072, Note_on_c, 0, 65, 0
1, 12090, Note_on_c, 0, 69, 80
1, 12114, Note_on_c, 0, 69, 0
1, 12120, Note_on_c, 0, 67, 80
1, 12216, Note_on_c, 0, 67, 0
1, 12238, Note_on_c, 1, 58, 0
1, 12238, Note_on_c, 1, 48, 0
1, 12240, Note_on_c, 0, 69, 85
1, 12240, Note_on_c, 1, 53, 85
1, 12278, Note_on_c, 0, 69, 0
1, 12278, Note_on_c, 1, 53, 0
1, 12280, Note_on_c, 0, 72, 85
1, 12280, Note_on_c, 1, 57, 85
1, 12318, Note_on_c, 0, 72, 0
1, 12318, Note_on_c, 1, 57, 0
1, 12320, Note_on_c, 0, 70, 85
1, 12320, Note_on_c, 1, 55, 85
1, 12358, Note_on_c, 0, 70, 0
1, 12358, Note_on_c, 1, 55, 0
1, 12360, Note_on_c, 0, 69, 85
1, 12360, Note_on_c, 1, 53, 85
1, 12398, Note_on_c, 0, 69, 0
1, 12398, Note_on_c, 1, 53, 0
1, 12400, Note_on_c, 0, 77, 85
1, 12400, Note_on_c, 1, 62, 85
1, 12438, Note_on_c, 0, 77, 0
1, 12438, Note_on_c, 1, 62, 0
1, 12440, Note_on_c, 0, 76, 85
1, 12440, Note_on_c, 1, 60, 85
1, 12478, Note_on_c, 0, 76, 0
1, 12478, Note_on_c, 1, 60, 0
1, 12480, Note_on_c, 0, 74, 85
1, 12480, Note_on_c, 1, 58, 80
1, 12512, Note_on_c, 1, 58, 0
1, 12518, Note_on_c, 0, 74, 0
1, 12520, Note_on_c, 0, 82, 85
1, 12520, Note_on_c, 1, 67, 80
1, 12552, Note_on_c, 1, 67, 0
1, 12558, Note_on_c, 0, 82, 0
1, 12560, Note_on_c, 0, 81, 85
1, 12560, Note_on_c, 1, 65, 80
1, 12592, Note_on_c, 1, 65, 0
1, 12598, Note_on_c, 0, 81, 0
1, 12600, Note_on_c, 0, 79, 85
1, 12600, Note_on_c, 1, 64, 80
1, 12632, Note_on_c, 1, 64, 0
1, 12638, Note_on_c, 0, 79, 0
1, 12640, Note_on_c, 0, 86, 85
1, 12640, Note_on_c, 1, 70, 80
1, 12672, Note_on_c, 1, 70, 0
1, 12678, Note_on_c, 0, 86, 0
1, 12680, Note_on_c, 0, 84, 85
1, 12680, Note_on_c, 1, 69, 80
1, 12712, Note_on_c, 1, 69, 0
1, 12718, Note_on_c, 0, 84, 0
1, 12720, Note_on_c, 0, 82, 85
1, 12720, Note_on_c, 1, 67, 80
1, 12752, Note_on_c, 1, 67, 0
1, 12758, Note_on_c, 0, 82, 0
1, 12760, Note_on_c, 0, 81, 85
1, 12760, Note_on_c, 1, 65, 80
1, 12792, Note_on_c, 1, 65, 0
1, 12798, Note_on_c, 0, 81, 0
1, 12800, Note_on_c, 0, 79, 85
1, 12800, Note_on_c, 1, 64, 80
1, 12832, Note_on_c, 1, 64, 0
1, 12838, Note_on_c, 0, 79, 0
1, 12840, Note_on_c, 0, 77, 85
1, 12840, Note_on_c, 1, 62, 80
1, 12872, Note_on_c, 1, 62, 0
1, 12878, Note_on_c, 0, 77, 0
1, 12880, Note_on_c, 0, 76, 85
1, 12880, Note_on_c, 1, 60, 80
1, 12912, Note_on_c, 1, 60, 0
1, 12918, Note_on_c, 0, 76, 0
1, 12920, Note_on_c, 0, 74, 85
1, 12920, Note_on_c, 1, 58, 80
1, 12952, Note_on_c, 1, 58, 0
1, 12958, Note_on_c, 0, 74, 0
1, 12960, Note_on_c, 0, 72, 85
1, 12960, Note_on_c, 1, 57, 85
1, 12998, Note_on_c, 1, 57, 0
1, 13000, Note_on_c, 1, 60, 85
1, 13038, Note_on_c, 1, 60, 0
1, 13040, Note_on_c, 1, 65, 85
1, 13078, Note_on_c, 1, 65, 0
1, 13080, Note_on_c, 1, 57, 85
1, 13118, Note_on_c, 1, 57, 0
1, 13120, Note_on_c, 1, 60, 85
1, 13158, Note_on_c, 1, 60, 0
1, 13160, Note_on_c, 1, 65, 85
1, 13198, Note_on_c, 0, 72, 0
1, 13198, Note_on_c, 1, 65, 0
1, 13200, Note_on_c, 0, 70, 80
1, 13200, Note_on_c, 1, 55, 85
1, 13224, Note_on_c, 0, 70, 0
1, 13230, Note_on_c, 0, 72, 80
1, 13238, Note_on_c, 1, 55, 0
1, 13240, Note_on_c, 1, 58, 85
1, 13254, Note_on_c, 0, 72, 0
1, 13260, Note_on_c, 0, 70, 80
1, 13278, Note_on_c, 1, 58, 0
1, 13280, Note_on_c, 1, 64, 85
1, 13284, Note_on_c, 0, 70, 0
1, 13290, Note_on_c, 0, 72, 80
1, 13314, Note_on_c, 0, 72, 0
1, 13318, Note_on_c, 1, 64, 0
1, 13320, Note_on_c, 0, 70, 80
1, 13320, Note_on_c, 1, 55, 85
1, 13336, Note_on_c, 0, 70, 0
1, 13340, Note_on_c, 0, 72, 80
1, 13356, Note_on_c, 0, 72, 0
1, 13358, Note_on_c, 1, 55, 0
1, 13360, Note_on_c, 0, 70, 80
1, 13360, Note_on_c, 1, 58, 85
1, 13376, Note_on_c, 0, 70, 0
1, 13380, Note_on_c, 0, 69, 80
1, 13398, Note_on_c, 1, 58, 0
1, 13400, Note_on_c, 1, 64, 85
1, 13404, Note_on_c, 0, 69, 0
1, 13410, Note_on_c, 0, 70, 80
1, 13434, Note_on_c, 0, 70, 0
1, 13438, Note_on_c, 1, 64, 0
1, 13440, Note_on_c, 0, 69, 80
1, 13440, Note_on_c, 1, 53, 85
1, 13478, Note_on_c, 1, 53, 0
1, 13480, Note_on_c, 1, 57, 85
1, 13518, Note_on_c, 1, 57, 0
1, 13520, Note_on_c, 1, 65, 85
1, 13558, Note_on_c, 1, 65, 0
1, 13560, Note_on_c, 1, 53, 85
1, 13598, Note_on_c, 1, 53, 0
1, 13600, Note_on_c, 1, 57, 85
1, 13632, Note_on_c, 0, 69, 0
1, 13638, Note_on_c, 1, 57, 0
1, 13640, Note_on_c, 1, 65, 85
1, 13678, Note_on_c, 1, 65, 0
1, 13680, Note_on_c, 1, 58, 85
1, 13680, Note_on_c, 1, 62, 85
1, 13720, Note_on_c, 0, 66, 85
1, 13758, Note_on_c, 0, 66, 0
1, 13760, Note_on_c, 0, 67, 85
1, 13798, Note_on_c, 0, 67, 0
1, 13800, Note_on_c, 0, 74, 85
1, 13838, Note_on_c, 0, 74, 0
1, 13840, Note_on_c, 0, 70, 85
1, 13878, Note_on_c, 0, 70, 0
1, 13880, Note_on_c, 0, 67, 85
1, 13918, Note_on_c, 0, 67, 0
1, 13918, Note_on_c, 1, 62, 0
1, 13918, Note_on_c, 1, 58, 0
1, 13920, Note_on_c, 0, 65, 85
1, 13920, Note_on_c, 1, 48, 85
1, 13920, Note_on_c, 1, 57, 85
1, 14158, Note_on_c, 1, 57, 0
1, 14160, Note_on_c, 1, 58, 85
1, 14232, Note_on_c, 0, 65, 0
1, 14250, Note_on_c, 0, 69, 64
1, 14274, Note_on_c, 0, 69, 0
1, 14280, Note_on_c, 0, 67, 64
1, 14376, Note_on_c, 0, 67, 0
1, 14398, Note_on_c, 1, 58, 0
1, 14398, Note_on_c, 1, 48, 0
1, 14400, Note_on_c, 0, 69, 64
1, 14400, Note_on_c, 1, 53, 64
1, 14438, Note_on_c, 0, 69, 0
1, 14438, Note_on_c, 1, 53, 0
1, 14440, Note_on_c, 0, 72, 64
1, 14440, Note_on_c, 1, 57, 64
1, 14478, Note_on_c, 0, 72, 0
1, 14478, Note_on_c, 1, 57, 0
1, 14480, Note_on_c, 0, 70, 64
1, 14480, Note_on_c, 1, 55, 64
1, 14518, Note_on_c, 0, 70, 0
1, 14518, Note_on_c, 1, 55, 0
1, 14520, Note_on_c, 0, 69, 64
1, 14520, Note_on_c, 1, 53, 64
1, 14558, Note_on_c, 0, 69, 0
1, 14558, Note_on_c, 1, 53, 0
1, 14560, Note_on_c, 0, 77, 64
1, 14560, Note_on_c, 1, 62, 64
1, 14598, Note_on_c, 0, 77, 0
1, 14598, Note_on_c, 1, 62, 0
1, 14600, Note_on_c, 0, 76, 64
1, 14600, Note_on_c, 1, 60, 64
1, 14638, Note_on_c, 0, 76, 0
1, 14638, Note_on_c, 1, 60, 0
1, 14640, Note_on_c, 0, 74, 64
1, 14640, Note_on_c, 1, 58, 64
1, 14678, Note_on_c, 0, 74, 0
1, 14678, Note_on_c, 1, 58, 0
1, 14680, Note_on_c, 0, 82, 64
1, 14680, Note_on_c, 1, 67, 64
1, 14718, Note_on_c, 0, 82, 0
1, 14718, Note_on_c, 1, 67, 0
1, 14720, Note_on_c, 0, 81, 64
1, 14720, Note_on_c, 1, 65, 64
1, 14758, Note_on_c, 0, 81, 0
1, 14758, Note_on_c, 1, 65, 0
1, 14760, Note_on_c, 0, 79, 64
1, 14760, Note_on_c, 1, 64, 64
1, 14798, Note_on_c, 0, 79, 0
1, 14798, Note_on_c, 1, 64, 0
1, 14800, Note_on_c, 0, 86, 64
1, 14800, Note_on_c, 1, 70, 64
1, 14838, Note_on_c, 0, 86, 0
1, 14838, Note_on_c, 1, 70, 0
1, 14840, Note_on_c, 0, 84, 64
1, 14840, Note_on_c, 1, 69, 64
1, 14878, Note_on_c, 0, 84, 0
1, 14878, Note_on_c, 1, 69, 0
1, 14880, Note_on_c, 0, 82, 64
1, 14880, Note_on_c, 1, 67, 64
1, 14918, Note_on_c, 0, 82, 0
1, 14918, Note_on_c, 1, 67, 0
1, 14920, Note_on_c, 0, 81, 64
1, 14920, Note_on_c, 1, 65, 64
1, 14958, Note_on_c, 0, 81, 0
1, 14958, Note_on_c, 1, 65, 0
1, 14960, Note_on_c, 0, 79, 64
1, 14960, Note_on_c, 1, 64, 64
1, 14998, Note_on_c, 0, 79, 0
1, 14998, Note_on_c, 1, 64, 0
1, 15000, Note_on_c, 0, 77, 64
1, 15000, Note_on_c, 1, 62, 64
1, 15038, Note_on_c, 0, 77, 0
1, 15038, Note_on_c, 1, 62, 0
1, 15040, Note_on_c, 0, 76, 64
1, 15040, Note_on_c, 1, 60, 64
1, 15078, Note_on_c, 0, 76, 0
1, 15078, Note_on_c, 1, 60, 0
1, 15080, Note_on_c, 0, 74, 64
1, 15080, Note_on_c, 1, 58, 64
1, 15118, Note_on_c, 0, 74, 0
1, 15118, Note_on_c, 1, 58, 0
1, 15120, Note_on_c, 0, 72, 64
1, 15120, Note_on_c, 1, 57, 64
1, 15158, Note_on_c, 1, 57, 0
1, 15160, Note_on_c, 1, 60, 65
1, 15198, Note_on_c, 1, 60, 0
1, 15200, Note_on_c, 1, 65, 66
1, 15238, Note_on_c, 1, 65, 0
1, 15240, Note_on_c, 1, 57, 67
1, 15278, Note_on_c, 1, 57, 0
1, 15280, Note_on_c, 1, 60, 68
1, 15318, Note_on_c, 1, 60, 0
1, 15320, Note_on_c, 1, 65, 68
1, 15358, Note_on_c, 0, 72, 0
1, 15358, Note_on_c, 1, 65, 0
1, 15360, Note_on_c, 0, 70, 69
1, 15360, Note_on_c, 1, 55, 69
1, 15384, Note_on_c, 0, 70, 0
1, 15390, Note_on_c, 0, 72, 70
1, 15398, Note_on_c, 1, 55, 0
1, 15400, Note_on_c, 1, 58, 70
1, 15414, Note_on_c, 0, 72, 0
1, 15420, Note_on_c, 0, 70, 71
1, 15438, Note_on_c, 1, 58, 0
1, 15440, Note_on_c, 1, 64, 71
1, 15444, Note_on_c, 0, 70, 0
1, 15450, Note_on_c, 0, 72, 71
1, 15474, Note_on_c, 0, 72, 0
1, 15478, Note_on_c, 1, 64, 0
1, 15480, Note_on_c, 0, 70, 72
1, 15480, Note_on_c, 1, 55, 72
1, 15496, Note_on_c, 0, 70, 0
1, 15500, Note_on_c, 0, 72, 72
1, 15516, Note_on_c, 0, 72, 0
1, 15518, Note_on_c, 1, 55, 0
1, 15520, Note_on_c, 0, 70, 73
1, 15520, Note_on_c, 1, 58, 73
1, 15536, Note_on_c, 0, 70, 0
1, 15540, Note_on_c, 0, 69, 73
1, 15558, Note_on_c, 1, 58, 0
1, 15560, Note_on_c, 1, 64, 74
1, 15564, Note_on_c, 0, 69, 0
1, 15570, Note_on_c, 0, 70, 74
1, 15594, Note_on_c, 0, 70, 0
1, 15598, Note_on_c, 1, 64, 0
1, 15600, Note_on_c, 0, 69, 75
1, 15600, Note_on_c, 1, 53, 75
1, 15638, Note_on_c, 1, 53, 0
1, 15640, Note_on_c, 1, 57, 76
1, 15678, Note_on_c, 1, 57, 0
1, 15680, Note_on_c, 1, 65, 76
1, 15718, Note_on_c, 1, 65, 0
1, 15720, Note_on_c, 1, 53, 77
1, 15758, Note_on_c, 1, 53, 0
1, 15760, Note_on_c, 1, 57, 78
1, 15792, Note_on_c, 0, 69, 0
1, 15798, Note_on_c, 1, 57, 0
1, 15800, Note_on_c, 1, 65, 79
1, 15838, Note_on_c, 1, 65, 0
1, 15840, Note_on_c, 0, 66, 80
1, 15840, Note_on_c, 1, 58, 80
1, 15840, Note_on_c, 1, 62, 80
1, 15878, Note_on_c, 0, 66, 0
1, 15880, Note_on_c, 0, 67, 79
1, 15918, Note_on_c, 0, 67, 0
1, 15920, Note_on_c, 0, 70, 78
1, 15958, Note_on_c, 0, 70, 0
1, 15960, Note_on_c, 0, 74, 77
1, 15998, Note_on_c, 0, 74, 0
1, 16000, Note_on_c, 0, 79, 76
1, 16038, Note_on_c, 0, 79, 0
1, 16040, Note_on_c, 0, 82, 76
1, 16078, Note_on_c, 0, 82, 0
1, 16078, Note_on_c, 1, 62, 0
1, 16078, Note_on_c, 1, 58, 0
1, 16080, Note_on_c, 0, 86, 75
1, 16118, Note_on_c, 0, 86, 0
1, 16120, Note_on_c, 0, 84, 74
1, 16158, Note_on_c, 0, 84, 0
1, 16160, Note_on_c, 0, 82, 73
1, 16198, Note_on_c, 0, 82, 0
1, 16200, Note_on_c, 0, 81, 72
1, 16238, Note_on_c, 0, 81, 0
1, 16240, Note_on_c, 0, 79, 71
1, 16278, Note_on_c, 0, 79, 0
1, 16280, Note_on_c, 0, 77, 70
1, 16318, Note_on_c, 0, 77, 0
1, 16320, Note_on_c, 0, 77, 69
1, 16320, Note_on_c, 1, 60, 69
1, 16320, Note_on_c, 1, 70, 69
1, 16358, Note_on_c, 0, 77, 0
1, 16360, Note_on_c, 0, 76, 68
1, 16398, Note_on_c, 0, 76, 0
1, 16400, Note_on_c, 0, 79, 68
1, 16438, Note_on_c, 0, 79, 0
1, 16440, Note_on_c, 0, 82, 67
1, 16478, Note_on_c, 0, 82, 0
1, 16480, Note_on_c, 0, 79, 66
1, 16518, Note_on_c, 0, 79, 0
1, 16520, Note_on_c, 0, 76, 65
1, 16558, Note_on_c, 0, 76, 0
1, 16558, Note_on_c, 1, 70, 0
1, 16558, Note_on_c, 1, 60, 0
1, 16560, Note_on_c, 0, 76, 64
1, 16560, Note_on_c, 1, 65, 64
1, 16560, Note_on_c, 1, 70, 64
1, 16752, Note_on_c, 0, 76, 0
1, 16798, Note_on_c, 1, 70, 0
1, 16800, Note_on_c, 0, 77, 56
1, 16800, Note_on_c, 1, 69, 56
1, 16918, Note_on_c, 1, 69, 0
1, 16918, Note_on_c, 1, 65, 0
1, 16992, Note_on_c, 0, 77, 0
1, 17280, Note_on_c, 0, 72, 80
1, 17280, Note_on_c, 1, 53, 80
1, 17280, Note_on_c, 1, 57, 80
1, 17458, Note_on_c, 0, 72, 0
1, 17460, Note_on_c, 0, 69, 85
1, 17488, Note_on_c, 0, 69, 0
1, 17490, Note_on_c, 0, 65, 85
1, 17518, Note_on_c, 0, 65, 0
1, 17518, Note_on_c, 1, 57, 0
1, 17518, Note_on_c, 1, 53, 0
1, 17520, Note_on_c, 0, 64, 85
1, 17520, Note_on_c, 1, 55, 85
1, 17520, Note_on_c, 1, 58, 85
1, 17638, Note_on_c, 0, 64, 0
1, 17638, Note_on_c, 1, 58, 0
1, 17638, Note_on_c, 1, 55, 0
1, 17760, Note_on_c, 1, 55, 85
1, 17798, Note_on_c, 1, 55, 0
1, 17800, Note_on_c, 1, 58, 85
1, 17838, Note_on_c, 1, 58, 0
1, 17840, Note_on_c, 1, 60, 85
1, 17878, Note_on_c, 1, 60, 0
1, 17880, Note_on_c, 0, 64, 85
1, 17918, Note_on_c, 0, 64, 0
1, 17920, Note_on_c, 0, 67, 85
1, 17958, Note_on_c, 0, 67, 0
1, 17960, Note_on_c, 0, 70, 85
1, 17998, Note_on_c, 0, 70, 0
1, 18000, Note_on_c, 0, 74, 85
1, 18118, Note_on_c, 0, 74, 0
1, 18120, Note_on_c, 0, 72, 85
1, 18148, Note_on_c, 0, 72, 0
1, 18150, Note_on_c, 0, 70, 85
1, 18178, Note_on_c, 0, 70, 0
1, 18180, Note_on_c, 0, 69, 85
1, 18208, Note_on_c, 0, 69, 0
1, 18210, Note_on_c, 0, 67, 85
1, 18238, Note_on_c, 0, 67, 0
1, 18240, Note_on_c, 0, 66, 85
1, 18240, Note_on_c, 1, 57, 85
1, 18240, Note_on_c, 1, 60, 85
1, 18240, Note_on_c, 1, 63, 85
1, 18358, Note_on_c, 0, 66, 0
1, 18358, Note_on_c, 1, 63, 0
1, 18358, Note_on_c, 1, 60, 0
1, 18358, Note_on_c, 1, 57, 0
1, 18720, Note_on_c, 1, 58, 85
1, 18758, Note_on_c, 1, 58, 0
1, 18760, Note_on_c, 1, 62, 85
1, 18798, Note_on_c, 1, 62, 0
1, 18800, Note_on_c, 1, 67, 85
1, 18838, Note_on_c, 1, 67, 0
1, 18840, Note_on_c, 0, 70, 85
1, 18878, Note_on_c, 0, 70, 0
1, 18880, Note_on_c, 0, 74, 85
1, 18918, Note_on_c, 0, 74, 0
1, 18920, Note_on_c, 0, 79, 85
1, 18958, Note_on_c, 0, 79, 0
1, 18960, Note_on_c, 0, 82, 85
1, 18998, Note_on_c, 0, 82, 0
1, 19000, Note_on_c, 0, 86, 85
1, 19038, Note_on_c, 0, 86, 0
1, 19040, Note_on_c, 0, 84, 85
1, 19078, Note_on_c, 0, 84, 0
1, 19080, Note_on_c, 0, 82, 85
1, 19118, Note_on_c, 0, 82, 0
1, 19120, Note_on_c, 0, 81, 85
1, 19158, Note_on_c, 0, 81, 0
1, 19160, Note_on_c, 0, 79, 85
1, 19198, Note_on_c, 0, 79, 0
1, 19200, Note_on_c, 0, 86, 85
1, 19238, Note_on_c, 0, 86, 0
1, 19240, Note_on_c, 0, 84, 85
1, 19278, Note_on_c, 0, 84, 0
1, 19280, Note_on_c, 0, 82, 85
1, 19318, Note_on_c, 0, 82, 0
1, 19320, Note_on_c, 0, 81, 85
1, 19358, Note_on_c, 0, 81, 0
1, 19360, Note_on_c, 0, 79, 85
1, 19398, Note_on_c, 0, 79, 0
1, 19400, Note_on_c, 0, 77, 85
1, 19438, Note_on_c, 0, 77, 0
1, 19440, Note_on_c, 0, 77, 85
1, 19440, Note_on_c, 1, 60, 64
1, 19478, Note_on_c, 1, 60, 0
1, 19480, Note_on_c, 1, 67, 64
1, 19518, Note_on_c, 1, 67, 0
1, 19520, Note_on_c, 1, 70, 64
1, 19558, Note_on_c, 1, 70, 0
1, 19560, Note_on_c, 1, 60, 64
1, 19598, Note_on_c, 1, 60, 0
1, 19600, Note_on_c, 1, 67, 64
1, 19638, Note_on_c, 1, 67, 0
1, 19640, Note_on_c, 1, 70, 64
1, 19678, Note_on_c, 1, 70, 0
1, 19680, Note_on_c, 1, 60, 64
1, 19718, Note_on_c, 1, 60, 0
1, 19720, Note_on_c, 1, 67, 64
1, 19758, Note_on_c, 1, 67, 0
1, 19760, Note_on_c, 1, 70, 64
1, 19798, Note_on_c, 1, 70, 0
1, 19800, Note_on_c, 1, 60, 64
1, 19838, Note_on_c, 1, 60, 0
1, 19840, Note_on_c, 1, 67, 64
1, 19878, Note_on_c, 1, 67, 0
1, 19880, Note_on_c, 1, 70, 64
1, 19918, Note_on_c, 0, 77, 0
1, 19918, Note_on_c, 1, 70, 0
1, 19920, Note_on_c, 0, 76, 80
1, 19920, Note_on_c, 1, 60, 64
1, 19944, Note_on_c, 0, 76, 0
1, 19950, Note_on_c, 0, 77, 80
1, 19958, Note_on_c, 1, 60, 0
1, 19960, Note_on_c, 1, 67, 64
1, 19974, Note_on_c, 0, 77, 0
1, 19980, Note_on_c, 0, 76, 80
1, 19998, Note_on_c, 1, 67, 0
1, 20000, Note_on_c, 1, 70, 64
1, 20004, Note_on_c, 0, 76, 0
1, 20010, Note_on_c, 0, 77, 80
1, 20034, Note_on_c, 0, 77, 0
1, 20038, Note_on_c, 1, 70, 0
1, 20040, Note_on_c, 0, 76, 80
1, 20040, Note_on_c, 1, 60, 64
1, 20078, Note_on_c, 1, 60, 0
1, 20080, Note_on_c, 1, 67, 64
1, 20118, Note_on_c, 1, 67, 0
1, 20120, Note_on_c, 1, 70, 64
1, 20136, Note_on_c, 0, 76, 0
1, 20158, Note_on_c, 1, 70, 0
1, 20160, Note_on_c, 1, 65, 85
1, 20160, Note_on_c, 1, 70, 85
1, 20200, Note_on_c, 0, 72, 85
1, 20238, Note_on_c, 0, 72, 0
1, 20240, Note_on_c, 0, 74, 85
1, 20278, Note_on_c, 0, 74, 0
1, 20280, Note_on_c, 0, 76, 85
1, 20318, Note_on_c, 0, 76, 0
1, 20320, Note_on_c, 0, 77, 85
1, 20358, Note_on_c, 0, 77, 0
1, 20360, Note_on_c, 0, 79, 85
1, 20398, Note_on_c, 0, 79, 0
1, 20398, Note_on_c, 1, 70, 0
1, 20400, Note_on_c, 0, 81, 85
1, 20400, Note_on_c, 1, 69, 85
1, 20438, Note_on_c, 0, 81, 0
1, 20440, Note_on_c, 0, 82, 85
1, 20478, Note_on_c, 0, 82, 0
1, 20480, Note_on_c, 0, 84, 85
1, 20518, Note_on_c, 0, 84, 0
1, 20520, Note_on_c, 0, 82, 85
1, 20558, Note_on_c, 0, 82, 0
1, 20560, Note_on_c, 0, 81, 85
1, 20598, Note_on_c, 0, 81, 0
1, 20600, Note_on_c, 0, 79, 85
1, 20638, Note_on_c, 0, 79, 0
1, 20640, Note_on_c, 0, 77, 85
1, 20678, Note_on_c, 0, 77, 0
1, 20680, Note_on_c, 0, 84, 85
1, 20718, Note_on_c, 0, 84, 0
1, 20720, Note_on_c, 0, 81, 85
1, 20758, Note_on_c, 0, 81, 0
1, 20760, Note_on_c, 0, 79, 85
1, 20798, Note_on_c, 0, 79, 0
1, 20800, Note_on_c, 0, 77, 85
1, 20838, Note_on_c, 0, 77, 0
1, 20840, Note_on_c, 0, 76, 85
1, 20878, Note_on_c, 0, 76, 0
1, 20878, Note_on_c, 1, 69, 0
1, 20878, Note_on_c, 1, 65, 0
1, 20880, Note_on_c, 0, 76, 85
1, 20880, Note_on_c, 1, 58, 64
1, 20918, Note_on_c, 1, 58, 0
1, 20920, Note_on_c, 1, 65, 64
1, 20958, Note_on_c, 1, 65, 0
1, 20960, Note_on_c, 1, 69, 64
1, 20998, Note_on_c, 1, 69, 0
1, 21000, Note_on_c, 1, 58, 64
1, 21038, Note_on_c, 1, 58, 0
1, 21040, Note_on_c, 1, 65, 64
1, 21058, Note_on_c, 0, 76, 0
1, 21060, Note_on_c, 0, 74, 85
1, 21078, Note_on_c, 1, 65, 0
1, 21080, Note_on_c, 1, 69, 64
1, 21118, Note_on_c, 0, 74, 0
1, 21118, Note_on_c, 1, 69, 0
1, 21120, Note_on_c, 0, 82, 85
1, 21120, Note_on_c, 1, 58, 64
1, 21158, Note_on_c, 1, 58, 0
1, 21160, Note_on_c, 1, 65, 64
1, 21198, Note_on_c, 1, 65, 0
1, 21200, Note_on_c, 1, 67, 64
1, 21238, Note_on_c, 1, 67, 0
1, 21240, Note_on_c, 0, 82, 0
1, 21240, Note_on_c, 1, 58, 64
1, 21278, Note_on_c, 1, 58, 0
1, 21280, Note_on_c, 1, 65, 64
1, 21318, Note_on_c, 1, 65, 0
1, 21320, Note_on_c, 1, 67, 64
1, 21358, Note_on_c, 1, 67, 0
1, 21360, Note_on_c, 0, 74, 85
1, 21360, Note_on_c, 1, 58, 64
1, 21398, Note_on_c, 1, 58, 0
1, 21400, Note_on_c, 1, 65, 64
1, 21438, Note_on_c, 1, 65, 0
1, 21440, Note_on_c, 1, 67, 64
1, 21478, Note_on_c, 1, 67, 0
1, 21480, Note_on_c, 1, 58, 64
1, 21518, Note_on_c, 1, 58, 0
1, 21520, Note_on_c, 1, 65, 64
1, 21558, Note_on_c, 1, 65, 0
1, 21560, Note_on_c, 1, 67, 64
1, 21598, Note_on_c, 0, 74, 0
1, 21598, Note_on_c, 1, 67, 0
1, 21600, Note_on_c, 0, 73, 80
1, 21600, Note_on_c, 1, 57, 64
1, 21638, Note_on_c, 1, 57, 0
1, 21640, Note_on_c, 1, 64, 65
1, 21678, Note_on_c, 1, 64, 0
1, 21680, Note_on_c, 1, 67, 66
1, 21718, Note_on_c, 1, 67, 0
1, 21720, Note_on_c, 1, 57, 67
1, 21758, Note_on_c, 1, 57, 0
1, 21760, Note_on_c, 1, 64, 68
1, 21778, Note_on_c, 0, 73, 0
1, 21780, Note_on_c, 0, 76, 82
1, 21798, Note_on_c, 1, 64, 0
1, 21800, Note_on_c, 1, 67, 68
1, 21838, Note_on_c, 0, 76, 0
1, 21838, Note_on_c, 1, 67, 0
1, 21840, Note_on_c, 0, 79, 83
1, 21840, Note_on_c, 1, 61, 69
1, 21878, Note_on_c, 1, 61, 0
1, 21880, Note_on_c, 1, 64, 70
1, 21918, Note_on_c, 1, 64, 0
1, 21920, Note_on_c, 1, 69, 71
1, 21958, Note_on_c, 1, 69, 0
1, 21960, Note_on_c, 0, 79, 0
1, 21960, Note_on_c, 1, 61, 72
1, 21998, Note_on_c, 1, 61, 0
1, 22000, Note_on_c, 1, 64, 73
1, 22038, Note_on_c, 1, 64, 0
1, 22040, Note_on_c, 1, 69, 74
1, 22078, Note_on_c, 1, 69, 0
1, 22080, Note_on_c, 0, 77, 85
1, 22080, Note_on_c, 1, 62, 75
1, 22118, Note_on_c, 1, 62, 0
1, 22120, Note_on_c, 1, 65, 76
1, 22158, Note_on_c, 1, 65, 0
1, 22160, Note_on_c, 1, 69, 76
1, 22198, Note_on_c, 1, 69, 0
1, 22200, Note_on_c, 1, 62, 77
1, 22238, Note_on_c, 1, 62, 0
1, 22240, Note_on_c, 1, 65, 78
1, 22258, Note_on_c, 0, 77, 0
1, 22260, Note_on_c, 0, 74, 87
1, 22278, Note_on_c, 1, 65, 0
1, 22280, Note_on_c, 1, 69, 79
1, 22318, Note_on_c, 0, 74, 0
1, 22318, Note_on_c, 1, 69, 0
1, 22320, Note_on_c, 0, 81, 88
1, 22320, Note_on_c, 1, 57, 85
1, 22358, Note_on_c, 1, 57, 0
1, 22360, Note_on_c, 1, 61, 85
1, 22398, Note_on_c, 1, 61, 0
1, 22400, Note_on_c, 1, 64, 85
1, 22438, Note_on_c, 1, 64, 0
1, 22440, Note_on_c, 1, 69, 85
1, 22478, Note_on_c, 1, 69, 0
1, 22480, Note_on_c, 1, 64, 85
1, 22518, Note_on_c, 1, 64, 0
1, 22520, Note_on_c, 1, 61, 85
1, 22558, Note_on_c, 0, 81, 0
1, 22558, Note_on_c, 1, 61, 0
1, 22560, Note_on_c, 1, 57, 85
1, 22678, Note_on_c, 1, 57, 0
1, 22800, Note_on_c, 1, 57, 85
1, 22838, Note_on_c, 1, 57, 0
1, 22840, Note_on_c, 1, 58, 85
1, 22860, Note_on_c, 1, 58, 0
1, 22880, Note_on_c, 1, 57, 85
1, 22900, Note_on_c, 1, 57, 0
1, 22920, Note_on_c, 1, 55, 85
1, 22940, Note_on_c, 1, 55, 0
1, 22960, Note_on_c, 1, 53, 85
1, 22980, Note_on_c, 1, 53, 0
1, 23000, Note_on_c, 1, 52, 85
1, 23020, Note_on_c, 1, 52, 0
1, 23040, Note_on_c, 1, 50, 85
1, 23080, Note_on_c, 0, 69, 85
1, 23118, Note_on_c, 0, 69, 0
1, 23120, Note_on_c, 0, 67, 85
1, 23158, Note_on_c, 0, 67, 0
1, 23158, Note_on_c, 1, 50, 0
1, 23160, Note_on_c, 0, 65, 85
1, 23198, Note_on_c, 0, 65, 0
1, 23200, Note_on_c, 0, 64, 85
1, 23238, Note_on_c, 0, 64, 0
1, 23240, Note_on_c, 0, 62, 85
1, 23278, Note_on_c, 0, 62, 0
1, 23280, Note_on_c, 0, 61, 85
1, 23280, Note_on_c, 1, 52, 85
1, 23280, Note_on_c, 1, 55, 85
1, 23280, Note_on_c, 1, 58, 85
1, 23400, Note_on_c, 0, 61, 0
1, 23400, Note_on_c, 1, 58, 0
1, 23400, Note_on_c, 1, 55, 0
1, 23400, Note_on_c, 1, 52, 0
1, 23760, Note_on_c, 1, 64, 85
1, 23760, Note_on_c, 1, 67, 85
1, 23760, Note_on_c, 1, 70, 85
1, 23760, Note_on_c, 1, 73, 85
1, 23800, Note_on_c, 0, 82, 85
1, 23838, Note_on_c, 0, 82, 0
1, 23840, Note_on_c, 0, 81, 85
1, 23878, Note_on_c, 0, 81, 0
1, 23880, Note_on_c, 0, 79, 85
1, 23918, Note_on_c, 0, 79, 0
1, 23920, Note_on_c, 0, 77, 85
1, 23958, Note_on_c, 0, 77, 0
1, 23960, Note_on_c, 0, 76, 85
1, 23998, Note_on_c, 0, 76, 0
1, 23998, Note_on_c, 1, 73, 0
1, 23998, Note_on_c, 1, 64, 0
1, 23998, Note_on_c, 1, 67, 0
1, 23998, Note_on_c, 1, 70, 0
1, 24000, Note_on_c, 0, 74, 85
1, 24000, Note_on_c, 1, 65, 85
1, 24000, Note_on_c, 1, 69, 85
1, 24000, Note_on_c, 1, 74, 85
1, 24038, Note_on_c, 0, 74, 0
1, 24040, Note_on_c, 0, 81, 85
1, 24078, Note_on_c, 0, 81, 0
1, 24080, Note_on_c, 0, 79, 85
1, 24118, Note_on_c, 0, 79, 0
1, 24120, Note_on_c, 0, 77, 85
1, 24158, Note_on_c, 0, 77, 0
1, 24160, Note_on_c, 0, 76, 85
1, 24198, Note_on_c, 0, 76, 0
1, 24200, Note_on_c, 0, 74, 85
1, 24238, Note_on_c, 0, 74, 0
1, 24238, Note_on_c, 1, 74, 0
1, 24238, Note_on_c, 1, 69, 0
1, 24238, Note_on_c, 1, 65, 0
1, 24240, Note_on_c, 0, 86, 85
1, 24330, Note_on_c, 0, 86, 0
1, 24420, Note_on_c, 0, 74, 64
1, 24420, Note_on_c, 0, 84, 64
1, 24420, Note_on_c, 1, 66, 64
1, 24478, Note_on_c, 0, 84, 0
1, 24478, Note_on_c, 0, 74, 0
1, 24478, Note_on_c, 1, 66, 0
1, 24480, Note_on_c, 0, 74, 64
1, 24480, Note_on_c, 0, 82, 64
1, 24480, Note_on_c, 1, 67, 64
1, 24570, Note_on_c, 0, 82, 0
1, 24570, Note_on_c, 0, 74, 0
1, 24570, Note_on_c, 1, 67, 0
1, 24660, Note_on_c, 0, 74, 64
1, 24660, Note_on_c, 1, 70, 64
1, 24718, Note_on_c, 0, 74, 0
1, 24718, Note_on_c, 1, 70, 0
1, 24720, Note_on_c, 0, 73, 64
1, 24720, Note_on_c, 1, 69, 64
1, 24810, Note_on_c, 0, 73, 0
1, 24810, Note_on_c, 1, 69, 0
1, 24900, Note_on_c, 0, 76, 64
1, 24900, Note_on_c, 1, 61, 64
1, 24958, Note_on_c, 0, 76, 0
1, 24958, Note_on_c, 1, 61, 0
1, 24960, Note_on_c, 0, 73, 64
1, 24960, Note_on_c, 0, 81, 64
1, 24960, Note_on_c, 1, 57, 64
1, 25078, Note_on_c, 0, 81, 0
1, 25078, Note_on_c, 0, 73, 0
1, 25078, Note_on_c, 1, 57, 0
1, 25140, Note_on_c, 0, 79, 64
1, 25140, Note_on_c, 1, 61, 64
1, 25140, Note_on_c, 1, 69, 64
1, 25198, Note_on_c, 0, 79, 0
1, 25198, Note_on_c, 1, 69, 0
1, 25198, Note_on_c, 1, 61, 0
1, 25200, Note_on_c, 0, 79, 64
1, 25200, Note_on_c, 1, 62, 64
1, 25200, Note_on_c, 1, 69, 64
1, 25257, Note_on_c, 0, 79, 0
1, 25260, Note_on_c, 0, 77, 64
1, 25284, Note_on_c, 0, 77, 0
1, 25290, Note_on_c, 0, 79, 64
1, 25314, Note_on_c, 0, 79, 0
1, 25318, Note_on_c, 1, 69, 0
1, 25318, Note_on_c, 1, 62, 0
1, 25320, Note_on_c, 0, 77, 64
1, 25344, Note_on_c, 0, 77, 0
1, 25350, Note_on_c, 0, 79, 64
1, 25374, Note_on_c, 0, 79, 0
1, 25380, Note_on_c, 0, 77, 64
1, 25396, Note_on_c, 0, 77, 0
1, 25400, Note_on_c, 0, 79, 64
1, 25416, Note_on_c, 0, 79, 0
1, 25420, Note_on_c, 0, 77, 64
1, 25430, Note_on_c, 0, 77, 0
1, 25440, Note_on_c, 0, 76, 64
1, 25440, Note_on_c, 1, 69, 64
1, 25440, Note_on_c, 1, 73, 64
1, 25560, Note_on_c, 0, 76, 0
1, 25560, Note_on_c, 1, 73, 0
1, 25560, Note_on_c, 1, 69, 0
1, 25920, Note_on_c, 0, 69, 85
1, 25958, Note_on_c, 0, 69, 0
1, 25960, Note_on_c, 0, 76, 85
1, 25960, Note_on_c, 1, 61, 85
1, 25998, Note_on_c, 0, 76, 0
1, 25998, Note_on_c, 1, 61, 0
1, 26000, Note_on_c, 0, 74, 85
1, 26000, Note_on_c, 1, 59, 85
1, 26038, Note_on_c, 0, 74, 0
1, 26038, Note_on_c, 1, 59, 0
1, 26040, Note_on_c, 0, 73, 85
1, 26040, Note_on_c, 1, 57, 85
1, 26078, Note_on_c, 0, 73, 0
1, 26078, Note_on_c, 1, 57, 0
1, 26080, Note_on_c, 0, 79, 85
1, 26080, Note_on_c, 1, 64, 85
1, 26118, Note_on_c, 0, 79, 0
1, 26118, Note_on_c, 1, 64, 0
1, 26120, Note_on_c, 0, 77, 85
1, 26120, Note_on_c, 1, 62, 85
1, 26158, Note_on_c, 0, 77, 0
1, 26158, Note_on_c, 1, 62, 0
1, 26160, Note_on_c, 0, 76, 85
1, 26160, Note_on_c, 1, 61, 85
1, 26198, Note_on_c, 0, 76, 0
1, 26198, Note_on_c, 1, 61, 0
1, 26200, Note_on_c, 0, 82, 85
1, 26200, Note_on_c, 1, 67, 85
1, 26238, Note_on_c, 0, 82, 0
1, 26238, Note_on_c, 1, 67, 0
1, 26240, Note_on_c, 0, 81, 85
1, 26240, Note_on_c, 1, 65, 85
1, 26278, Note_on_c, 0, 81, 0
1, 26278, Note_on_c, 1, 65, 0
1, 26280, Note_on_c, 0, 79, 85
1, 26280, Note_on_c, 1, 64, 85
1, 26318, Note_on_c, 0, 79, 0
1, 26320, Note_on_c, 0, 88, 85
1, 26358, Note_on_c, 0, 88, 0
1, 26360, Note_on_c, 0, 86, 85
1, 26398, Note_on_c, 0, 86, 0
1, 26398, Note_on_c, 1, 64, 0
1, 26400, Note_on_c, 0, 85, 85
1, 26438, Note_on_c, 0, 85, 0
1, 26440, Note_on_c, 0, 82, 85
1, 26478, Note_on_c, 0, 82, 0
1, 26480, Note_on_c, 0, 81, 85
1, 26518, Note_on_c, 0, 81, 0
1, 26520, Note_on_c, 0, 79, 85
1, 26558, Note_on_c, 0, 79, 0
1, 26560, Note_on_c, 0, 77, 85
1, 26598, Note_on_c, 0, 77, 0
1, 26600, Note_on_c, 0, 76, 85
1, 26638, Note_on_c, 0, 76, 0
1, 26640, Note_on_c, 0, 74, 85
1, 26678, Note_on_c, 0, 74, 0
1, 26680, Note_on_c, 0, 81, 85
1, 26680, Note_on_c, 1, 66, 85
1, 26718, Note_on_c, 0, 81, 0
1, 26718, Note_on_c, 1, 66, 0
1, 26720, Note_on_c, 0, 79, 85
1, 26720, Note_on_c, 1, 64, 85
1, 26758, Note_on_c, 0, 79, 0
1, 26758, Note_on_c, 1, 64, 0
1, 26760, Note_on_c, 0, 78, 85
1, 26760, Note_on_c, 1, 62, 85
1, 26798, Note_on_c, 0, 78, 0
1, 26798, Note_on_c, 1, 62, 0
1, 26800, Note_on_c, 0, 84, 85
1, 26800, Note_on_c, 1, 69, 85
1, 26838, Note_on_c, 0, 84, 0
1, 26838, Note_on_c, 1, 69, 0
1, 26840, Note_on_c, 0, 82, 85
1, 26840, Note_on_c, 1, 67, 85
1, 26878, Note_on_c, 0, 82, 0
1, 26878, Note_on_c, 1, 67, 0
1, 26880, Note_on_c, 0, 81, 85
1, 26880, Note_on_c, 1, 66, 85
1, 26918, Note_on_c, 0, 81, 0
1, 26918, Note_on_c, 1, 66, 0
1, 26920, Note_on_c, 0, 87, 85
1, 26920, Note_on_c, 1, 72, 85
1, 26958, Note_on_c, 0, 87, 0
1, 26958, Note_on_c, 1, 72, 0
1, 26960, Note_on_c, 0, 86, 85
1, 26960, Note_on_c, 1, 70, 85
1, 26998, Note_on_c, 0, 86, 0
1, 26998, Note_on_c, 1, 70, 0
1, 27000, Note_on_c, 0, 84, 85
1, 27000, Note_on_c, 1, 69, 85
1, 27038, Note_on_c, 0, 84, 0
1, 27040, Note_on_c, 0, 82, 85
1, 27078, Note_on_c, 0, 82, 0
1, 27080, Note_on_c, 0, 81, 85
1, 27118, Note_on_c, 0, 81, 0
1, 27118, Note_on_c, 1, 69, 0
1, 27120, Note_on_c, 0, 79, 85
1, 27158, Note_on_c, 0, 79, 0
1, 27160, Note_on_c, 0, 78, 85
1, 27198, Note_on_c, 0, 78, 0
1, 27200, Note_on_c, 0, 79, 85
1, 27238, Note_on_c, 0, 79, 0
1, 27240, Note_on_c, 0, 81, 85
1, 27278, Note_on_c, 0, 81, 0
1, 27280, Note_on_c, 0, 78, 85
1, 27318, Note_on_c, 0, 78, 0
1, 27320, Note_on_c, 0, 72, 85
1, 27358, Note_on_c, 0, 72, 0
1, 27360, Note_on_c, 0, 70, 85
1, 27360, Note_on_c, 1, 55, 72
1, 27398, Note_on_c, 1, 55, 0
1, 27400, Note_on_c, 1, 58, 72
1, 27438, Note_on_c, 1, 58, 0
1, 27440, Note_on_c, 1, 63, 72
1, 27478, Note_on_c, 1, 63, 0
1, 27480, Note_on_c, 1, 55, 72
1, 27518, Note_on_c, 1, 55, 0
1, 27520, Note_on_c, 1, 58, 72
1, 27558, Note_on_c, 1, 58, 0
1, 27560, Note_on_c, 1, 63, 72
1, 27598, Note_on_c, 0, 70, 0
1, 27598, Note_on_c, 1, 63, 0
1, 27600, Note_on_c, 0, 82, 85
1, 27600, Note_on_c, 1, 55, 72
1, 27638, Note_on_c, 1, 55, 0
1, 27640, Note_on_c, 1, 58, 72
1, 27678, Note_on_c, 1, 58, 0
1, 27680, Note_on_c, 1, 63, 72
1, 27718, Note_on_c, 1, 63, 0
1, 27720, Note_on_c, 1, 55, 72
1, 27758, Note_on_c, 1, 55, 0
1, 27760, Note_on_c, 1, 58, 72
1, 27798, Note_on_c, 1, 58, 0
1, 27800, Note_on_c, 1, 63, 72
1, 27838, Note_on_c, 0, 82, 0
1, 27838, Note_on_c, 1, 63, 0
1, 27840, Note_on_c, 0, 74, 85
1, 27840, Note_on_c, 1, 56, 72
1, 27878, Note_on_c, 1, 56, 0
1, 27880, Note_on_c, 1, 62, 72
1, 27918, Note_on_c, 1, 62, 0
1, 27920, Note_on_c, 1, 65, 72
1, 27958, Note_on_c, 1, 65, 0
1, 27960, Note_on_c, 1, 56, 72
1, 27998, Note_on_c, 1, 56, 0
1, 28000, Note_on_c, 1, 62, 72
1, 28038, Note_on_c, 1, 62, 0
1, 28040, Note_on_c, 1, 65, 72
1, 28078, Note_on_c, 0, 74, 0
1, 28078, Note_on_c, 1, 65, 0
1, 28080, Note_on_c, 0, 73, 85
1, 28080, Note_on_c, 1, 57, 72
1, 28118, Note_on_c, 1, 57, 0
1, 28120, Note_on_c, 1, 64, 72
1, 28158, Note_on_c, 1, 64, 0
1, 28160, Note_on_c, 1, 67, 73
1, 28198, Note_on_c, 1, 67, 0
1, 28200, Note_on_c, 1, 57, 73
1, 28238, Note_on_c, 1, 57, 0
1, 28240, Note_on_c, 1, 64, 74
1, 28278, Note_on_c, 1, 64, 0
1, 28280, Note_on_c, 1, 67, 74
1, 28318, Note_on_c, 0, 73, 0
1, 28318, Note_on_c, 1, 67, 0
1, 28320, Note_on_c, 0, 79, 85
1, 28320, Note_on_c, 1, 61, 75
1, 28358, Note_on_c, 1, 61, 0
1, 28360, Note_on_c, 1, 64, 75
1, 28398, Note_on_c, 1, 64, 0
1, 28400, Note_on_c, 1, 69, 76
1, 28438, Note_on_c, 1, 69, 0
1, 28440, Note_on_c, 1, 61, 76
1, 28478, Note_on_c, 1, 61, 0
1, 28480, Note_on_c, 1, 64, 76
1, 28518, Note_on_c, 1, 64, 0
1, 28520, Note_on_c, 1, 69, 77
1, 28558, Note_on_c, 0, 79, 0
1, 28558, Note_on_c, 1, 69, 0
1, 28560, Note_on_c, 0, 77, 85
1, 28560, Note_on_c, 1, 62, 77
1, 28598, Note_on_c, 1, 62, 0
1, 28600, Note_on_c, 1, 65, 78
1, 28638, Note_on_c, 1, 65, 0
1, 28640, Note_on_c, 1, 69, 78
1, 28678, Note_on_c, 1, 69, 0
1, 28680, Note_on_c, 1, 62, 79
1, 28718, Note_on_c, 1, 62, 0
1, 28720, Note_on_c, 1, 65, 79
1, 28758, Note_on_c, 1, 65, 0
1, 28760, Note_on_c, 1, 69, 80
1, 28798, Note_on_c, 0, 77, 0
1, 28798, Note_on_c, 1, 69, 0
1, 28800, Note_on_c, 1, 55, 80
1, 28840, Note_on_c, 0, 76, 85
1, 28878, Note_on_c, 0, 76, 0
1, 28880, Note_on_c, 0, 79, 85
1, 28918, Note_on_c, 0, 79, 0
1, 28920, Note_on_c, 0, 82, 85
1, 28958, Note_on_c, 0, 82, 0
1, 28960, Note_on_c, 0, 79, 85
1, 28998, Note_on_c, 0, 79, 0
1, 29000, Note_on_c, 0, 76, 85
1, 29038, Note_on_c, 0, 76, 0
1, 29038, Note_on_c, 1, 55, 0
1, 29040, Note_on_c, 0, 74, 85
1, 29040, Note_on_c, 1, 57, 77
1, 29040, Note_on_c, 1, 65, 77
1, 29278, Note_on_c, 1, 65, 0
1, 29280, Note_on_c, 1, 67, 75
1, 29352, Note_on_c, 0, 74, 0
1, 29370, Note_on_c, 0, 77, 80
1, 29394, Note_on_c, 0, 77, 0
1, 29400, Note_on_c, 0, 73, 80
1, 29400, Note_on_c, 0, 76, 80
1, 29496, Note_on_c, 0, 76, 0
1, 29496, Note_on_c, 0, 73, 0
1, 29518, Note_on_c, 1, 67, 0
1, 29518, Note_on_c, 1, 57, 0
1, 29520, Note_on_c, 0, 78, 85
1, 29520, Note_on_c, 1, 62, 72
1, 29558, Note_on_c, 1, 62, 0
1, 29560, Note_on_c, 1, 69, 72
1, 29598, Note_on_c, 1, 69, 0
1, 29600, Note_on_c, 1, 72, 72
1, 29638, Note_on_c, 1, 72, 0
1, 29640, Note_on_c, 1, 62, 72
1, 29678, Note_on_c, 1, 62, 0
1, 29680, Note_on_c, 1, 69, 72
1, 29718, Note_on_c, 1, 69, 0
1, 29720, Note_on_c, 1, 72, 72
1, 29758, Note_on_c, 0, 78, 0
1, 29758, Note_on_c, 1, 72, 0
1, 29760, Note_on_c, 0, 81, 85
1, 29760, Note_on_c, 1, 62, 72
1, 29798, Note_on_c, 1, 62, 0
1, 29800, Note_on_c, 1, 69, 72
1, 29838, Note_on_c, 1, 69, 0
1, 29840, Note_on_c, 1, 72, 72
1, 29878, Note_on_c, 1, 72, 0
1, 29880, Note_on_c, 1, 62, 72
1, 29918, Note_on_c, 1, 62, 0
1, 29920, Note_on_c, 1, 69, 72
1, 29958, Note_on_c, 1, 69, 0
1, 29960, Note_on_c, 1, 72, 72
1, 29998, Note_on_c, 1, 72, 0
1, 30000, Note_on_c, 1, 62, 72
1, 30038, Note_on_c, 0, 81, 0
1, 30038, Note_on_c, 1, 62, 0
1, 30040, Note_on_c, 0, 87, 85
1, 30040, Note_on_c, 1, 69, 72
1, 30078, Note_on_c, 0, 87, 0
1, 30078, Note_on_c, 1, 69, 0
1, 30080, Note_on_c, 0, 86, 85
1, 30080, Note_on_c, 1, 72, 72
1, 30118, Note_on_c, 0, 86, 0
1, 30118, Note_on_c, 1, 72, 0
1, 30120, Note_on_c, 0, 84, 85
1, 30120, Note_on_c, 1, 62, 72
1, 30158, Note_on_c, 0, 84, 0
1, 30158, Note_on_c, 1, 62, 0
1, 30160, Note_on_c, 0, 82, 85
1, 30160, Note_on_c, 1, 69, 72
1, 30198, Note_on_c, 0, 82, 0
1, 30198, Note_on_c, 1, 69, 0
1, 30200, Note_on_c, 0, 81, 85
1, 30200, Note_on_c, 1, 72, 72
1, 30238, Note_on_c, 0, 81, 0
1, 30238, Note_on_c, 1, 72, 0
1, 30240, Note_on_c, 0, 79, 85
1, 30240, Note_on_c, 1, 62, 72
1, 30278, Note_on_c, 1, 62, 0
1, 30280, Note_on_c, 1, 67, 72
1, 30318, Note_on_c, 1, 67, 0
1, 30320, Note_on_c, 1, 70, 72
1, 30358, Note_on_c, 1, 70, 0
1, 30360, Note_on_c, 1, 62, 72
1, 30398, Note_on_c, 1, 62, 0
1, 30400, Note_on_c, 1, 67, 72
1, 30438, Note_on_c, 1, 67, 0
1, 30440, Note_on_c, 1, 70, 72
1, 30478, Note_on_c, 0, 79, 0
1, 30478, Note_on_c, 1, 70, 0
1, 30480, Note_on_c, 0, 82, 85
1, 30480, Note_on_c, 1, 62, 72
1, 30518, Note_on_c, 1, 62, 0
1, 30520, Note_on_c, 1, 67, 72
1, 30558, Note_on_c, 1, 67, 0
1, 30560, Note_on_c, 1, 70, 72
1, 30598, Note_on_c, 1, 70, 0
1, 30600, Note_on_c, 1, 62, 72
1, 30638, Note_on_c, 1, 62, 0
1, 30640, Note_on_c, 1, 67, 72
1, 30678, Note_on_c, 1, 67, 0
1, 30680, Note_on_c, 1, 70, 72
1, 30718, Note_on_c, 1, 70, 0
1, 30720, Note_on_c, 1, 62, 72
1, 30758, Note_on_c, 0, 82, 0
1, 30758, Note_on_c, 1, 62, 0
1, 30760, Note_on_c, 0, 86, 85
1, 30760, Note_on_c, 1, 67, 72
1, 30798, Note_on_c, 0, 86, 0
1, 30798, Note_on_c, 1, 67, 0
1, 30800, Note_on_c, 0, 84, 85
1, 30800, Note_on_c, 1, 70, 72
1, 30838, Note_on_c, 0, 84, 0
1, 30838, Note_on_c, 1, 70, 0
1, 30840, Note_on_c, 0, 82, 85
1, 30840, Note_on_c, 1, 62, 72
1, 30878, Note_on_c, 0, 82, 0
1, 30878, Note_on_c, 1, 62, 0
1, 30880, Note_on_c, 0, 81, 85
1, 30880, Note_on_c, 1, 67, 72
1, 30918, Note_on_c, 0, 81, 0
1, 30918, Note_on_c, 1, 67, 0
1, 30920, Note_on_c, 0, 79, 85
1, 30920, Note_on_c, 1, 70, 72
1, 30958, Note_on_c, 0, 79, 0
1, 30958, Note_on_c, 1, 70, 0
1, 30960, Note_on_c, 0, 78, 85
1, 30960, Note_on_c, 1, 62, 72
1, 30998, Note_on_c, 1, 62, 0
1, 31000, Note_on_c, 1, 69, 72
1, 31038, Note_on_c, 1, 69, 0
1, 31040, Note_on_c, 1, 72, 73
1, 31078, Note_on_c, 1, 72, 0
1, 31080, Note_on_c, 1, 62, 73
1, 31118, Note_on_c, 1, 62, 0
1, 31120, Note_on_c, 1, 69, 74
1, 31158, Note_on_c, 1, 69, 0
1, 31160, Note_on_c, 1, 72, 74
1, 31198, Note_on_c, 1, 72, 0
1, 31200, Note_on_c, 1, 62, 75
1, 31238, Note_on_c, 0, 78, 0
1, 31238, Note_on_c, 1, 62, 0
1, 31240, Note_on_c, 0, 79, 85
1, 31240, Note_on_c, 1, 69, 75
1, 31278, Note_on_c, 0, 79, 0
1, 31278, Note_on_c, 1, 69, 0
1, 31280, Note_on_c, 0, 80, 85
1, 31280, Note_on_c, 1, 72, 76
1, 31318, Note_on_c, 0, 80, 0
1, 31318, Note_on_c, 1, 72, 0
1, 31320, Note_on_c, 0, 81, 85
1, 31320, Note_on_c, 1, 62, 76
1, 31358, Note_on_c, 0, 81, 0
1, 31358, Note_on_c, 1, 62, 0
1, 31360, Note_on_c, 0, 82, 85
1, 31360, Note_on_c, 1, 69, 76
1, 31398, Note_on_c, 0, 82, 0
1, 31398, Note_on_c, 1, 69, 0
1, 31400, Note_on_c, 0, 84, 85
1, 31400, Note_on_c, 1, 72, 77
1, 31438, Note_on_c, 0, 84, 0
1, 31438, Note_on_c, 1, 72, 0
1, 31440, Note_on_c, 0, 86, 85
1, 31440, Note_on_c, 1, 62, 77
1, 31478, Note_on_c, 0, 86, 0
1, 31478, Note_on_c, 1, 62, 0
1, 31480, Note_on_c, 0, 87, 85
1, 31480, Note_on_c, 1, 69, 78
1, 31518, Note_on_c, 0, 87, 0
1, 31518, Note_on_c, 1, 69, 0
1, 31520, Note_on_c, 0, 86, 85
1, 31520, Note_on_c, 1, 72, 78
1, 31558, Note_on_c, 0, 86, 0
1, 31558, Note_on_c, 1, 72, 0
1, 31560, Note_on_c, 0, 84, 85
1, 31560, Note_on_c, 1, 62, 79
1, 31598, Note_on_c, 0, 84, 0
1, 31598, Note_on_c, 1, 62, 0
1, 31600, Note_on_c, 0, 82, 85
1, 31600, Note_on_c, 1, 69, 79
1, 31638, Note_on_c, 0, 82, 0
1, 31638, Note_on_c, 1, 69, 0
1, 31640, Note_on_c, 0, 81, 85
1, 31640, Note_on_c, 1, 72, 80
1, 31678, Note_on_c, 0, 81, 0
1, 31678, Note_on_c, 1, 72, 0
1, 31680, Note_on_c, 0, 82, 85
1, 31680, Note_on_c, 1, 67, 85
1, 31718, Note_on_c, 0, 82, 0
1, 31720, Note_on_c, 0, 86, 85
1, 31758, Note_on_c, 0, 86, 0
1, 31760, Note_on_c, 0, 78, 85
1, 31798, Note_on_c, 0, 78, 0
1, 31800, Note_on_c, 0, 79, 85
1, 31838, Note_on_c, 0, 79, 0
1, 31840, Note_on_c, 0, 82, 85
1, 31878, Note_on_c, 0, 82, 0
1, 31880, Note_on_c, 0, 74, 85
1, 31918, Note_on_c, 0, 74, 0
1, 31918, Note_on_c, 1, 67, 0
1, 31920, Note_on_c, 0, 82, 85
1, 31958, Note_on_c, 0, 82, 0
1, 31960, Note_on_c, 0, 86, 85
1, 31998, Note_on_c, 0, 86, 0
1, 32000, Note_on_c, 0, 78, 85
1, 32038, Note_on_c, 0, 78, 0
1, 32040, Note_on_c, 0, 79, 85
1, 32078, Note_on_c, 0, 79, 0
1, 32080, Note_on_c, 0, 82, 85
1, 32118, Note_on_c, 0, 82, 0
1, 32120, Note_on_c, 0, 74, 85
1, 32158, Note_on_c, 0, 74, 0
1, 32160, Note_on_c, 0, 75, 85
1, 32198, Note_on_c, 0, 75, 0
1, 32200, Note_on_c, 0, 78, 85
1, 32238, Note_on_c, 0, 78, 0
1, 32240, Note_on_c, 0, 79, 85
1, 32278, Note_on_c, 0, 79, 0
1, 32280, Note_on_c, 0, 74, 85
1, 32318, Note_on_c, 0, 74, 0
1, 32320, Note_on_c, 0, 78, 85
1, 32358, Note_on_c, 0, 78, 0
1, 32360, Note_on_c, 0, 79, 85
1, 32398, Note_on_c, 0, 79, 0
1, 32400, Note_on_c, 0, 73, 80
1, 32518, Note_on_c, 0, 73, 0
1, 32520, Note_on_c, 1, 55, 77
1, 32558, Note_on_c, 1, 55, 0
1, 32560, Note_on_c, 1, 58, 76
1, 32598, Note_on_c, 1, 58, 0
1, 32600, Note_on_c, 1, 61, 76
1, 32638, Note_on_c, 1, 61, 0
1, 32640, Note_on_c, 1, 64, 75
1, 32678, Note_on_c, 1, 64, 0
1, 32680, Note_on_c, 0, 67, 74
1, 32712, Note_on_c, 0, 67, 0
1, 32720, Note_on_c, 0, 70, 73
1, 32752, Note_on_c, 0, 70, 0
1, 32760, Note_on_c, 0, 73, 72
1, 32792, Note_on_c, 0, 73, 0
1, 32800, Note_on_c, 0, 76, 71
1, 32832, Note_on_c, 0, 76, 0
1, 32840, Note_on_c, 0, 79, 70
1, 32872, Note_on_c, 0, 79, 0
1, 32880, Note_on_c, 0, 82, 69
1, 32912, Note_on_c, 0, 82, 0
1, 32920, Note_on_c, 0, 79, 68
1, 32952, Note_on_c, 0, 79, 0
1, 32960, Note_on_c, 0, 85, 68
1, 32992, Note_on_c, 0, 85, 0
1, 33000, Note_on_c, 0, 86, 67
1, 33000, Note_on_c, 1, 53, 67
1, 33060, Note_on_c, 0, 86, 0
1, 33060, Note_on_c, 1, 53, 0
1, 33120, Note_on_c, 1, 43, 85
1, 33120, Note_on_c, 1, 55, 85
1, 33160, Note_on_c, 0, 64, 85
1, 33198, Note_on_c, 0, 64, 0
1, 33200, Note_on_c, 0, 67, 85
1, 33238, Note_on_c, 0, 67, 0
1, 33240, Note_on_c, 0, 70, 85
1, 33278, Note_on_c, 0, 70, 0
1, 33280, Note_on_c, 0, 67, 85
1, 33318, Note_on_c, 0, 67, 0
1, 33320, Note_on_c, 0, 64, 85
1, 33358, Note_on_c, 0, 64, 0
1, 33358, Note_on_c, 1, 55, 0
1, 33358, Note_on_c, 1, 43, 0
1, 33360, Note_on_c, 0, 62, 85
1, 33360, Note_on_c, 1, 45, 85
1, 33360, Note_on_c, 1, 53, 85
1, 33598, Note_on_c, 1, 53, 0
1, 33600, Note_on_c, 1, 55, 85
1, 33672, Note_on_c, 0, 62, 0
1, 33690, Note_on_c, 0, 65, 80
1, 33714, Note_on_c, 0, 65, 0
1, 33720, Note_on_c, 0, 61, 80
1, 33720, Note_on_c, 0, 64, 80
1, 33816, Note_on_c, 0, 64, 0
1, 33816, Note_on_c, 0, 61, 0
1, 33838, Note_on_c, 1, 55, 0
1, 33838, Note_on_c, 1, 45, 0
1, 33840, Note_on_c, 0, 62, 85
1, 33840, Note_on_c, 1, 46, 72
1, 33878, Note_on_c, 1, 46, 0
1, 33880, Note_on_c, 1, 50, 72
1, 33918, Note_on_c, 1, 50, 0
1, 33920, Note_on_c, 1, 56, 72
1, 33958, Note_on_c, 1, 56, 0
1, 33960, Note_on_c, 1, 46, 72
1, 33998, Note_on_c, 1, 46, 0
1, 34000, Note_on_c, 1, 50, 72
1, 34038, Note_on_c, 1, 50, 0
1, 34040, Note_on_c, 1, 56, 72
1, 34078, Note_on_c, 0, 62, 0
1, 34078, Note_on_c, 1, 56, 0
1, 34080, Note_on_c, 1, 46, 72
1, 34198, Note_on_c, 1, 46, 0
1, 34200, Note_on_c, 0, 86, 64
1, 34200, Note_on_c, 0, 89, 64
1, 34284, Note_on_c, 0, 89, 0
1, 34284, Note_on_c, 0, 86, 0
1, 34320, Note_on_c, 0, 86, 64
1, 34320, Note_on_c, 0, 89, 64
1, 34404, Note_on_c, 0, 89, 0
1, 34404, Note_on_c, 0, 86, 0
1, 34440, Note_on_c, 0, 86, 64
1, 34440, Note_on_c, 0, 89, 64
1, 34524, Note_on_c, 0, 89, 0
1, 34524, Note_on_c, 0, 86, 0
1, 34560, Note_on_c, 1, 45, 64
1, 34598, Note_on_c, 1, 45, 0
1, 34600, Note_on_c, 1, 50, 64
1, 34638, Note_on_c, 1, 50, 0
1, 34640, Note_on_c, 1, 53, 64
1, 34678, Note_on_c, 1, 53, 0
1, 34680, Note_on_c, 1, 45, 64
1, 34718, Note_on_c, 1, 45, 0
1, 34720, Note_on_c, 1, 50, 64
1, 34758, Note_on_c, 1, 50, 0
1, 34760, Note_on_c, 1, 53, 64
1, 34798, Note_on_c, 1, 53, 0
1, 34800, Note_on_c, 1, 45, 64
1, 34918, Note_on_c, 1, 45, 0
1, 34920, Note_on_c, 0, 86, 64
1, 34920, Note_on_c, 0, 89, 64
1, 35004, Note_on_c, 0, 89, 0
1, 35004, Note_on_c, 0, 86, 0
1, 35040, Note_on_c, 0, 86, 64
1, 35040, Note_on_c, 0, 89, 64
1, 35124, Note_on_c, 0, 89, 0
1, 35124, Note_on_c, 0, 86, 0
1, 35160, Note_on_c, 0, 86, 64
1, 35160, Note_on_c, 0, 89, 64
1, 35244, Note_on_c, 0, 89, 0
1, 35244, Note_on_c, 0, 86, 0
1, 35280, Note_on_c, 1, 44, 64
1, 35318, Note_on_c, 1, 44, 0
1, 35320, Note_on_c, 1, 50, 64
1, 35358, Note_on_c, 1, 50, 0
1, 35360, Note_on_c, 1, 53, 64
1, 35398, Note_on_c, 1, 53, 0
1, 35400, Note_on_c, 1, 44, 64
1, 35438, Note_on_c, 1, 44, 0
1, 35440, Note_on_c, 1, 50, 64
1, 35478, Note_on_c, 1, 50, 0
1, 35480, Note_on_c, 1, 53, 64
1, 35518, Note_on_c, 1, 53, 0
1, 35520, Note_on_c, 1, 44, 64
1, 35638, Note_on_c, 1, 44, 0
1, 35640, Note_on_c, 0, 62, 64
1, 35640, Note_on_c, 0, 65, 64
1, 35724, Note_on_c, 0, 65, 0
1, 35724, Note_on_c, 0, 62, 0
1, 35760, Note_on_c, 0, 62, 64
1, 35760, Note_on_c, 0, 65, 64
1, 35844, Note_on_c, 0, 65, 0
1, 35844, Note_on_c, 0, 62, 0
1, 35880, Note_on_c, 0, 56, 64
1, 35880, Note_on_c, 0, 62, 64
1, 35964, Note_on_c, 0, 62, 0
1, 35964, Note_on_c, 0, 56, 0
1, 36000, Note_on_c, 0, 57, 64
1, 36038, Note_on_c, 0, 57, 0
1, 36040, Note_on_c, 0, 61, 64
1, 36078, Note_on_c, 0, 61, 0
1, 36080, Note_on_c, 0, 64, 64
1, 36118, Note_on_c, 0, 64, 0
1, 36120, Note_on_c, 0, 69, 64
1, 36158, Note_on_c, 0, 69, 0
1, 36160, Note_on_c, 0, 64, 64
1, 36198, Note_on_c, 0, 64, 0
1, 36200, Note_on_c, 0, 61, 64
1, 36238, Note_on_c, 0, 61, 0
1, 36240, Note_on_c, 1, 57, 64
1, 36278, Note_on_c, 1, 57, 0
1, 36280, Note_on_c, 1, 52, 64
1, 36318, Note_on_c, 1, 52, 0
1, 36320, Note_on_c, 1, 49, 64
1, 36358, Note_on_c, 1, 49, 0
1, 36360, Note_on_c, 1, 45, 64
1, 36398, Note_on_c, 1, 45, 0
1, 36400, Note_on_c, 1, 40, 64
1, 36438, Note_on_c, 1, 40, 0
1, 36440, Note_on_c, 1, 37, 64
1, 36478, Note_on_c, 1, 37, 0
1, 36480, Note_on_c, 1, 33, 64
1, 36518, Note_on_c, 1, 33, 0
1, 36520, Note_on_c, 1, 37, 64
1, 36558, Note_on_c, 1, 37, 0
1, 36560, Note_on_c, 1, 40, 64
1, 36598, Note_on_c, 1, 40, 0
1, 36600, Note_on_c, 1, 45, 64
1, 36638, Note_on_c, 1, 45, 0
1, 36640, Note_on_c, 1, 49, 64
1, 36678, Note_on_c, 1, 49, 0
1, 36680, Note_on_c, 1, 52, 64
1, 36718, Note_on_c, 1, 52, 0
1, 36720, Note_on_c, 1, 45, 64
1, 36840, Note_on_c, 1, 45, 0
1, 36960, Note_on_c, 1, 57, 64
1, 37198, Note_on_c, 1, 57, 0
1, 37208, End_track
0, 0, End_of_file