0, 0, Header, 0, 1, 240
1, 0, Start_track
1, 0, Tempo, 571429
1, 360, Note_on_c, 0, 57, 85
1, 388, Note_on_c, 0, 57, 0
1, 390, Note_on_c, 0, 62, 85
1, 418, Note_on_c, 0, 62, 0
1, 420, Note_on_c, 0, 66, 85
1, 448, Note_on_c, 0, 66, 0
1, 450, Note_on_c, 0, 69, 85
1, 478, Note_on_c, 0, 69, 0
1, 480, Note_on_c, 0, 66, 85
1, 480, Note_on_c, 1, 38, 85
1, 480, Note_on_c, 1, 50, 85
1, 598, Note_on_c, 0, 66, 0
1, 600, Note_on_c, 0, 62, 85
1, 718, Note_on_c, 0, 62, 0
1, 718, Note_on_c, 1, 50, 0
1, 718, Note_on_c, 1, 38, 0
1, 720, Note_on_c, 0, 74, 85
1, 768, Note_on_c, 0, 74, 0
1, 840, Note_on_c, 0, 69, 85
1, 840, Note_on_c, 1, 62, 85
1, 840, Note_on_c, 1, 66, 85
1, 912, Note_on_c, 0, 69, 0
1, 912, Note_on_c, 1, 66, 0
1, 912, Note_on_c, 1, 62, 0
1, 960, Note_on_c, 0, 71, 80
1, 960, Note_on_c, 1, 62, 85
1, 960, Note_on_c, 1, 67, 85
1, 984, Note_on_c, 0, 71, 0
1, 990, Note_on_c, 0, 73, 80
1, 1014, Note_on_c, 0, 73, 0
1, 1020, Note_on_c, 0, 71, 80
1, 1032, Note_on_c, 1, 67, 0
1, 1032, Note_on_c, 1, 62, 0
1, 1036, Note_on_c, 0, 71, 0
1, 1040, Note_on_c, 0, 73, 80
1, 1056, Note_on_c, 0, 73, 0
1, 1060, Note_on_c, 0, 71, 80
1, 1076, Note_on_c, 0, 71, 0
1, 1080, Note_on_c, 0, 69, 80
1, 1080, Note_on_c, 1, 66, 85
1, 1080, Note_on_c, 1, 62, 85
1, 1128, Note_on_c, 0, 69, 0
1, 1128, Note_on_c, 1, 62, 0
1, 1128, Note_on_c, 1, 66, 0
1, 1320, Note_on_c, 0, 57, 80
1, 1344, Note_on_c, 0, 57, 0
1, 1350, Note_on_c, 0, 62, 80
1, 1374, Note_on_c, 0, 62, 0
1, 1380, Note_on_c, 0, 66, 80
1, 1404, Note_on_c, 0, 66, 0
1, 1410, Note_on_c, 0, 69, 80
1, 1434, Note_on_c, 0, 69, 0
1, 1440, Note_on_c, 0, 66, 85
1, 1440, Note_on_c, 1, 38, 85
1, 1440, Note_on_c, 1, 50, 85
1, 1558, Note_on_c, 0, 66, 0
1, 1560, Note_on_c, 0, 62, 85
1, 1678, Note_on_c, 0, 62, 0
1, 1678, Note_on_c, 1, 50, 0
1, 1678, Note_on_c, 1, 38, 0
1, 1680, Note_on_c, 0, 78, 85
1, 1680, Note_on_c, 0, 81, 85
1, 1728, Note_on_c, 0, 81, 0
1, 1728, Note_on_c, 0, 78, 0
1, 1800, Note_on_c, 0, 74, 85
1, 1800, Note_on_c, 0, 78, 85
1, 1800, Note_on_c, 1, 62, 85
1, 1872, Note_on_c, 0, 78, 0
1, 1872, Note_on_c, 0, 74, 0
1, 1872, Note_on_c, 1, 62, 0
1, 1920, Note_on_c, 0, 76, 80
1, 1920, Note_on_c, 0, 79, 80
1, 1920, Note_on_c, 1, 57, 85
1, 1944, Note_on_c, 0, 79, 0
1, 1950, Note_on_c, 0, 81, 80
1, 1974, Note_on_c, 0, 81, 0
1, 1980, Note_on_c, 0, 79, 80
1, 1992, Note_on_c, 1, 57, 0
1, 1996, Note_on_c, 0, 79, 0
1, 2000, Note_on_c, 0, 81, 80
1, 2016, Note_on_c, 0, 81, 0
1, 2020, Note_on_c, 0, 79, 80
1, 2036, Note_on_c, 0, 79, 0
1, 2036, Note_on_c, 0, 76, 0
1, 2040, Note_on_c, 0, 78, 80
1, 2040, Note_on_c, 1, 62, 85
1, 2088, Note_on_c, 0, 78, 0
1, 2088, Note_on_c, 1, 62, 0
1, 2280, Note_on_c, 0, 74, 80
1, 2304, Note_on_c, 0, 74, 0
1, 2310, Note_on_c, 0, 78, 80
1, 2334, Note_on_c, 0, 78, 0
1, 2340, Note_on_c, 0, 81, 80
1, 2364, Note_on_c, 0, 81, 0
1, 2370, Note_on_c, 0, 86, 80
1, 2394, Note_on_c, 0, 86, 0
1, 2400, Note_on_c, 0, 72, 85
1, 2520, Note_on_c, 1, 54, 85
1, 2520, Note_on_c, 1, 62, 85
1, 2568, Note_on_c, 1, 62, 0
1, 2568, Note_on_c, 1, 54, 0
1, 2640, Note_on_c, 1, 54, 85
1, 2640, Note_on_c, 1, 62, 85
1, 2736, Note_on_c, 1, 62, 0
1, 2736, Note_on_c, 1, 54, 0
1, 2758, Note_on_c, 0, 72, 0
1, 2760, Note_on_c, 0, 84, 85
1, 2788, Note_on_c, 0, 84, 0
1, 2790, Note_on_c, 0, 81, 85
1, 2818, Note_on_c, 0, 81, 0
1, 2820, Note_on_c, 0, 78, 85
1, 2848, Note_on_c, 0, 78, 0
1, 2850, Note_on_c, 0, 72, 85
1, 2878, Note_on_c, 0, 72, 0
1, 2880, Note_on_c, 0, 71, 85
1, 3000, Note_on_c, 1, 55, 85
1, 3000, Note_on_c, 1, 62, 85
1, 3048, Note_on_c, 1, 62, 0
1, 3048, Note_on_c, 1, 55, 0
1, 3120, Note_on_c, 1, 55, 85
1, 3120, Note_on_c, 1, 62, 85
1, 3216, Note_on_c, 1, 62, 0
1, 3216, Note_on_c, 1, 55, 0
1, 3238, Note_on_c, 0, 71, 0
1, 3240, Note_on_c, 0, 71, 85
1, 3268, Note_on_c, 0, 71, 0
1, 3270, Note_on_c, 0, 74, 85
1, 3298, Note_on_c, 0, 74, 0
1, 3300, Note_on_c, 0, 79, 85
1, 3328, Note_on_c, 0, 79, 0
1, 3330, Note_on_c, 0, 83, 85
1, 3358, Note_on_c, 0, 83, 0
1, 3360, Note_on_c, 0, 78, 85
1, 3360, Note_on_c, 0, 81, 85
1, 3360, Note_on_c, 1, 57, 85
1, 3478, Note_on_c, 0, 81, 0
1, 3478, Note_on_c, 0, 78, 0
1, 3480, Note_on_c, 0, 74, 85
1, 3480, Note_on_c, 0, 78, 85
1, 3528, Note_on_c, 0, 78, 0
1, 3528, Note_on_c, 0, 74, 0
1, 3598, Note_on_c, 1, 57, 0
1, 3600, Note_on_c, 0, 76, 85
1, 3600, Note_on_c, 0, 79, 85
1, 3600, Note_on_c, 1, 45, 85
1, 3648, Note_on_c, 0, 79, 0
1, 3648, Note_on_c, 0, 76, 0
1, 3720, Note_on_c, 0, 73, 85
1, 3720, Note_on_c, 0, 76, 85
1, 3768, Note_on_c, 0, 76, 0
1, 3768, Note_on_c, 0, 73, 0
1, 3838, Note_on_c, 1, 45, 0
1, 3840, Note_on_c, 0, 73, 85
1, 3840, Note_on_c, 0, 76, 85
1, 3840, Note_on_c, 1, 50, 85
1, 4078, Note_on_c, 0, 76, 0
1, 4078, Note_on_c, 0, 73, 0
1, 4078, Note_on_c, 1, 50, 0
1, 4080, Note_on_c, 0, 74, 85
1, 4080, Note_on_c, 0, 78, 85
1, 4080, Note_on_c, 1, 38, 85
1, 4128, Note_on_c, 0, 78, 0
1, 4128, Note_on_c, 0, 74, 0
1, 4128, Note_on_c, 1, 38, 0
1, 4200, Note_on_c, 0, 74, 85
1, 4228, Note_on_c, 0, 74, 0
1, 4230, Note_on_c, 0, 78, 85
1, 4258, Note_on_c, 0, 78, 0
1, 4260, Note_on_c, 0, 81, 85
1, 4288, Note_on_c, 0, 81, 0
1, 4290, Note_on_c, 0, 86, 85
1, 4318, Note_on_c, 0, 86, 0
1, 4320, Note_on_c, 0, 72, 85
1, 4440, Note_on_c, 1, 54, 85
1, 4440, Note_on_c, 1, 62, 85
1, 4488, Note_on_c, 1, 62, 0
1, 4488, Note_on_c, 1, 54, 0
1, 4560, Note_on_c, 1, 54, 85
1, 4560, Note_on_c, 1, 62, 85
1, 4656, Note_on_c, 1, 62, 0
1, 4656, Note_on_c, 1, 54, 0
1, 4678, Note_on_c, 0, 72, 0
1, 4680, Note_on_c, 0, 84, 85
1, 4708, Note_on_c, 0, 84, 0
1, 4710, Note_on_c, 0, 81, 85
1, 4738, Note_on_c, 0, 81, 0
1, 4740, Note_on_c, 0, 78, 85
1, 4768, Note_on_c, 0, 78, 0
1, 4770, Note_on_c, 0, 72, 85
1, 4798, Note_on_c, 0, 72, 0
1, 4800, Note_on_c, 0, 71, 85
1, 4920, Note_on_c, 1, 55, 85
1, 4920, Note_on_c, 1, 62, 85
1, 4968, Note_on_c, 1, 62, 0
1, 4968, Note_on_c, 1, 55, 0
1, 5040, Note_on_c, 1, 55, 85
1, 5040, Note_on_c, 1, 62, 85
1, 5136, Note_on_c, 1, 62, 0
1, 5136, Note_on_c, 1, 55, 0
1, 5158, Note_on_c, 0, 71, 0
1, 5160, Note_on_c, 0, 83, 85
1, 5198, Note_on_c, 0, 83, 0
1, 5200, Note_on_c, 0, 85, 85
1, 5238, Note_on_c, 0, 85, 0
1, 5240, Note_on_c, 0, 86, 85
1, 5278, Note_on_c, 0, 86, 0
1, 5280, Note_on_c, 0, 85, 85
1, 5280, Note_on_c, 1, 57, 85
1, 5318, Note_on_c, 0, 85, 0
1, 5320, Note_on_c, 0, 83, 85
1, 5358, Note_on_c, 0, 83, 0
1, 5360, Note_on_c, 0, 81, 85
1, 5398, Note_on_c, 0, 81, 0
1, 5398, Note_on_c, 1, 57, 0
1, 5400, Note_on_c, 0, 79, 85
1, 5438, Note_on_c, 0, 79, 0
1, 5440, Note_on_c, 0, 78, 85
1, 5478, Note_on_c, 0, 78, 0
1, 5480, Note_on_c, 0, 76, 85
1, 5518, Note_on_c, 0, 76, 0
1, 5520, Note_on_c, 0, 74, 85
1, 5520, Note_on_c, 1, 45, 85
1, 5558, Note_on_c, 0, 74, 0
1, 5560, Note_on_c, 0, 73, 85
1, 5598, Note_on_c, 0, 73, 0
1, 5600, Note_on_c, 0, 71, 85
1, 5638, Note_on_c, 0, 71, 0
1, 5638, Note_on_c, 1, 45, 0
1, 5640, Note_on_c, 0, 69, 85
1, 5668, Note_on_c, 0, 69, 0
1, 5670, Note_on_c, 0, 67, 85
1, 5698, Note_on_c, 0, 67, 0
1, 5700, Note_on_c, 0, 66, 85
1, 5728, Note_on_c, 0, 66, 0
1, 5730, Note_on_c, 0, 64, 85
1, 5758, Note_on_c, 0, 64, 0
1, 5760, Note_on_c, 0, 62, 85
1, 5760, Note_on_c, 1, 38, 85
1, 5998, Note_on_c, 0, 62, 0
1, 5998, Note_on_c, 1, 38, 0
1, 6120, Note_on_c, 0, 57, 64
1, 6238, Note_on_c, 0, 57, 0
1, 6240, Note_on_c, 0, 62, 64
1, 6298, Note_on_c, 0, 62, 0
1, 6300, Note_on_c, 0, 61, 66
1, 6358, Note_on_c, 0, 61, 0
1, 6360, Note_on_c, 0, 64, 68
1, 6418, Note_on_c, 0, 64, 0
1, 6420, Note_on_c, 0, 62, 70
1, 6478, Note_on_c, 0, 62, 0
1, 6480, Note_on_c, 0, 66, 72
1, 6538, Note_on_c, 0, 66, 0
1, 6540, Note_on_c, 0, 64, 74
1, 6598, Note_on_c, 0, 64, 0
1, 6600, Note_on_c, 0, 67, 76
1, 6658, Note_on_c, 0, 67, 0
1, 6660, Note_on_c, 0, 66, 78
1, 6718, Note_on_c, 0, 66, 0
1, 6720, Note_on_c, 0, 62, 88
1, 6720, Note_on_c, 0, 66, 88
1, 6840, Note_on_c, 1, 56, 64
1, 6958, Note_on_c, 0, 66, 0
1, 6958, Note_on_c, 0, 62, 0
1, 6960, Note_on_c, 0, 61, 64
1, 6960, Note_on_c, 0, 64, 64
1, 6960, Note_on_c, 1, 56, 0
1, 6960, Note_on_c, 1, 57, 64
1, 7008, Note_on_c, 0, 64, 0
1, 7008, Note_on_c, 0, 61, 0
1, 7056, Note_on_c, 1, 57, 0
1, 7080, Note_on_c, 0, 57, 64
1, 7198, Note_on_c, 0, 57, 0
1, 7200, Note_on_c, 0, 64, 64
1, 7260, Note_on_c, 0, 64, 0
1, 7260, Note_on_c, 0, 63, 66
1, 7308, Note_on_c, 0, 63, 0
1, 7320, Note_on_c, 0, 66, 68
1, 7380, Note_on_c, 0, 66, 0
1, 7380, Note_on_c, 0, 64, 70
1, 7428, Note_on_c, 0, 64, 0
1, 7440, Note_on_c, 0, 67, 72
1, 7500, Note_on_c, 0, 67, 0
1, 7500, Note_on_c, 0, 66, 74
1, 7548, Note_on_c, 0, 66, 0
1, 7560, Note_on_c, 0, 69, 76
1, 7620, Note_on_c, 0, 69, 0
1, 7620, Note_on_c, 0, 67, 78
1, 7668, Note_on_c, 0, 67, 0
1, 7680, Note_on_c, 0, 64, 88
1, 7680, Note_on_c, 0, 67, 88
1, 7800, Note_on_c, 1, 49, 64
1, 7918, Note_on_c, 0, 67, 0
1, 7918, Note_on_c, 0, 64, 0
1, 7918, Note_on_c, 1, 49, 0
1, 7920, Note_on_c, 0, 62, 64
1, 7920, Note_on_c, 0, 66, 64
1, 7920, Note_on_c, 1, 50, 64
1, 7968, Note_on_c, 0, 66, 0
1, 7968, Note_on_c, 0, 62, 0
1, 8016, Note_on_c, 1, 50, 0
1, 8040, Note_on_c, 0, 62, 64
1, 8158, Note_on_c, 0, 62, 0
1, 8160, Note_on_c, 0, 67, 64
1, 8218, Note_on_c, 0, 67, 0
1, 8220, Note_on_c, 0, 66, 66
1, 8278, Note_on_c, 0, 66, 0
1, 8280, Note_on_c, 0, 69, 68
1, 8338, Note_on_c, 0, 69, 0
1, 8340, Note_on_c, 0, 67, 70
1, 8398, Note_on_c, 0, 67, 0
1, 8400, Note_on_c, 0, 71, 72
1, 8458, Note_on_c, 0, 71, 0
1, 8460, Note_on_c, 0, 69, 74
1, 8518, Note_on_c, 0, 69, 0
1, 8520, Note_on_c, 0, 72, 76
1, 8578, Note_on_c, 0, 72, 0
1, 8580, Note_on_c, 0, 71, 78
1, 8638, Note_on_c, 0, 71, 0
1, 8640, Note_on_c, 0, 71, 85
1, 8640, Note_on_c, 1, 55, 72
1, 8688, Note_on_c, 0, 71, 0
1, 8698, Note_on_c, 1, 55, 0
1, 8700, Note_on_c, 1, 62, 72
1, 8758, Note_on_c, 1, 62, 0
1, 8760, Note_on_c, 0, 71, 85
1, 8760, Note_on_c, 1, 55, 72
1, 8818, Note_on_c, 0, 71, 0
1, 8818, Note_on_c, 1, 55, 0
1, 8820, Note_on_c, 0, 74, 85
1, 8820, Note_on_c, 1, 62, 72
1, 8878, Note_on_c, 0, 74, 0
1, 8878, Note_on_c, 1, 62, 0
1, 8880, Note_on_c, 0, 69, 85
1, 8880, Note_on_c, 1, 54, 72
1, 8938, Note_on_c, 1, 54, 0
1, 8940, Note_on_c, 1, 62, 72
1, 8998, Note_on_c, 0, 69, 0
1, 8998, Note_on_c, 1, 62, 0
1, 9000, Note_on_c, 1, 54, 72
1, 9058, Note_on_c, 1, 54, 0
1, 9060, Note_on_c, 1, 62, 72
1, 9118, Note_on_c, 1, 62, 0
1, 9120, Note_on_c, 0, 67, 80
1, 9120, Note_on_c, 1, 59, 72
1, 9144, Note_on_c, 0, 67, 0
1, 9178, Note_on_c, 1, 59, 0
1, 9180, Note_on_c, 0, 69, 80
1, 9180, Note_on_c, 1, 62, 72
1, 9196, Note_on_c, 0, 69, 0
1, 9200, Note_on_c, 0, 67, 80
1, 9216, Note_on_c, 0, 67, 0
1, 9220, Note_on_c, 0, 66, 80
1, 9236, Note_on_c, 0, 66, 0
1, 9238, Note_on_c, 1, 62, 0
1, 9240, Note_on_c, 0, 67, 80
1, 9240, Note_on_c, 1, 59, 72
1, 9288, Note_on_c, 0, 67, 0
1, 9298, Note_on_c, 1, 59, 0
1, 9300, Note_on_c, 0, 71, 80
1, 9300, Note_on_c, 1, 62, 72
1, 9348, Note_on_c, 0, 71, 0
1, 9358, Note_on_c, 1, 62, 0
1, 9360, Note_on_c, 0, 66, 80
1, 9360, Note_on_c, 1, 57, 72
1, 9418, Note_on_c, 1, 57, 0
1, 9420, Note_on_c, 1, 62, 72
1, 9456, Note_on_c, 0, 66, 0
1, 9478, Note_on_c, 1, 62, 0
1, 9480, Note_on_c, 1, 57, 72
1, 9538, Note_on_c, 1, 57, 0
1, 9540, Note_on_c, 1, 62, 72
1, 9598, Note_on_c, 1, 62, 0
1, 9600, Note_on_c, 0, 71, 56
1, 9600, Note_on_c, 1, 55, 48
1, 9648, Note_on_c, 0, 71, 0
1, 9658, Note_on_c, 1, 55, 0
1, 9660, Note_on_c, 0, 73, 56
1, 9660, Note_on_c, 1, 62, 48
1, 9676, Note_on_c, 0, 73, 0
1, 9680, Note_on_c, 0, 71, 56
1, 9696, Note_on_c, 0, 71, 0
1, 9700, Note_on_c, 0, 69, 56
1, 9716, Note_on_c, 0, 69, 0
1, 9718, Note_on_c, 1, 62, 0
1, 9720, Note_on_c, 0, 71, 56
1, 9720, Note_on_c, 1, 55, 48
1, 9768, Note_on_c, 0, 71, 0
1, 9778, Note_on_c, 1, 55, 0
1, 9780, Note_on_c, 0, 74, 56
1, 9780, Note_on_c, 1, 62, 48
1, 9828, Note_on_c, 0, 74, 0
1, 9838, Note_on_c, 1, 62, 0
1, 9840, Note_on_c, 0, 69, 56
1, 9840, Note_on_c, 1, 54, 48
1, 9898, Note_on_c, 1, 54, 0
1, 9900, Note_on_c, 1, 62, 48
1, 9936, Note_on_c, 0, 69, 0
1, 9958, Note_on_c, 1, 62, 0
1, 9960, Note_on_c, 1, 54, 48
1, 10018, Note_on_c, 1, 54, 0
1, 10020, Note_on_c, 1, 62, 48
1, 10078, Note_on_c, 1, 62, 0
1, 10080, Note_on_c, 0, 67, 56
1, 10080, Note_on_c, 1, 59, 48
1, 10104, Note_on_c, 0, 67, 0
1, 10138, Note_on_c, 1, 59, 0
1, 10140, Note_on_c, 0, 69, 56
1, 10140, Note_on_c, 1, 62, 48
1, 10156, Note_on_c, 0, 69, 0
1, 10160, Note_on_c, 0, 67, 56
1, 10176, Note_on_c, 0, 67, 0
1, 10180, Note_on_c, 0, 66, 56
1, 10196, Note_on_c, 0, 66, 0
1, 10198, Note_on_c, 1, 62, 0
1, 10200, Note_on_c, 0, 67, 56
1, 10200, Note_on_c, 1, 59, 48
1, 10248, Note_on_c, 0, 67, 0
1, 10258, Note_on_c, 1, 59, 0
1, 10260, Note_on_c, 0, 71, 56
1, 10260, Note_on_c, 1, 62, 48
1, 10308, Note_on_c, 0, 71, 0
1, 10318, Note_on_c, 1, 62, 0
1, 10320, Note_on_c, 0, 66, 56
1, 10320, Note_on_c, 1, 57, 48
1, 10378, Note_on_c, 1, 57, 0
1, 10380, Note_on_c, 1, 62, 48
1, 10416, Note_on_c, 0, 66, 0
1, 10438, Note_on_c, 1, 62, 0
1, 10440, Note_on_c, 1, 57, 48
1, 10498, Note_on_c, 1, 57, 0
1, 10500, Note_on_c, 1, 62, 48
1, 10558, Note_on_c, 1, 62, 0
1, 10560, Note_on_c, 0, 63, 56
1, 10560, Note_on_c, 1, 55, 48
1, 10618, Note_on_c, 0, 63, 0
1, 10620, Note_on_c, 0, 64, 59
1, 10678, Note_on_c, 0, 64, 0
1, 10680, Note_on_c, 0, 66, 62
1, 10738, Note_on_c, 0, 66, 0
1, 10740, Note_on_c, 0, 67, 65
1, 10798, Note_on_c, 0, 67, 0
1, 10798, Note_on_c, 1, 55, 0
1, 10800, Note_on_c, 0, 69, 68
1, 10858, Note_on_c, 0, 69, 0
1, 10860, Note_on_c, 0, 71, 71
1, 10918, Note_on_c, 0, 71, 0
1, 10920, Note_on_c, 0, 67, 74
1, 10920, Note_on_c, 1, 43, 72
1, 10920, Note_on_c, 1, 55, 72
1, 10978, Note_on_c, 0, 67, 0
1, 10980, Note_on_c, 0, 64, 77
1, 11038, Note_on_c, 0, 64, 0
1, 11038, Note_on_c, 1, 55, 0
1, 11038, Note_on_c, 1, 43, 0
1, 11040, Note_on_c, 0, 62, 85
1, 11040, Note_on_c, 1, 45, 85
1, 11040, Note_on_c, 1, 54, 85
1, 11518, Note_on_c, 0, 62, 0
1, 11518, Note_on_c, 1, 54, 0
1, 11520, Note_on_c, 0, 61, 68
1, 11520, Note_on_c, 1, 52, 68
1, 11592, Note_on_c, 0, 61, 0
1, 11592, Note_on_c, 1, 52, 0
1, 11592, Note_on_c, 1, 45, 0
1, 11880, Note_on_c, 0, 64, 85
1, 11908, Note_on_c, 0, 64, 0
1, 11910, Note_on_c, 0, 69, 85
1, 11938, Note_on_c, 0, 69, 0
1, 11940, Note_on_c, 0, 73, 85
1, 11968, Note_on_c, 0, 73, 0
1, 11970, Note_on_c, 0, 76, 85
1, 11998, Note_on_c, 0, 76, 0
1, 12000, Note_on_c, 0, 73, 85
1, 12000, Note_on_c, 1, 45, 85
1, 12000, Note_on_c, 1, 49, 85
1, 12000, Note_on_c, 1, 52, 85
1, 12000, Note_on_c, 1, 57, 85
1, 12048, Note_on_c, 0, 73, 0
1, 12072, Note_on_c, 1, 57, 0
1, 12072, Note_on_c, 1, 45, 0
1, 12072, Note_on_c, 1, 49, 0
1, 12072, Note_on_c, 1, 52, 0
1, 12120, Note_on_c, 0, 69, 85
1, 12148, Note_on_c, 0, 69, 0
1, 12150, Note_on_c, 0, 73, 85
1, 12178, Note_on_c, 0, 73, 0
1, 12180, Note_on_c, 0, 76, 85
1, 12208, Note_on_c, 0, 76, 0
1, 12210, Note_on_c, 0, 81, 85
1, 12238, Note_on_c, 0, 81, 0
1, 12240, Note_on_c, 0, 76, 85
1, 12240, Note_on_c, 1, 45, 85
1, 12240, Note_on_c, 1, 49, 85
1, 12240, Note_on_c, 1, 52, 85
1, 12240, Note_on_c, 1, 57, 85
1, 12288, Note_on_c, 0, 76, 0
1, 12312, Note_on_c, 1, 57, 0
1, 12312, Note_on_c, 1, 45, 0
1, 12312, Note_on_c, 1, 49, 0
1, 12312, Note_on_c, 1, 52, 0
1, 12360, Note_on_c, 0, 76, 85
1, 12388, Note_on_c, 0, 76, 0
1, 12390, Note_on_c, 0, 81, 85
1, 12418, Note_on_c, 0, 81, 0
1, 12420, Note_on_c, 0, 85, 85
1, 12448, Note_on_c, 0, 85, 0
1, 12450, Note_on_c, 0, 88, 85
1, 12478, Note_on_c, 0, 88, 0
1, 12480, Note_on_c, 0, 85, 85
1, 12480, Note_on_c, 1, 49, 85
1, 12480, Note_on_c, 1, 52, 85
1, 12480, Note_on_c, 1, 57, 85
1, 12480, Note_on_c, 1, 45, 85
1, 12552, Note_on_c, 0, 85, 0
1, 12552, Note_on_c, 1, 45, 0
1, 12552, Note_on_c, 1, 49, 0
1, 12552, Note_on_c, 1, 52, 0
1, 12552, Note_on_c, 1, 57, 0
1, 12840, Note_on_c, 0, 69, 85
1, 12868, Note_on_c, 0, 69, 0
1, 12870, Note_on_c, 0, 64, 85
1, 12898, Note_on_c, 0, 64, 0
1, 12900, Note_on_c, 0, 61, 85
1, 12928, Note_on_c, 0, 61, 0
1, 12930, Note_on_c, 0, 57, 85
1, 12958, Note_on_c, 0, 57, 0
1, 12960, Note_on_c, 0, 55, 85
1, 12960, Note_on_c, 1, 45, 85
1, 13018, Note_on_c, 1, 45, 0
1, 13020, Note_on_c, 1, 52, 85
1, 13078, Note_on_c, 1, 52, 0
1, 13080, Note_on_c, 1, 50, 85
1, 13138, Note_on_c, 1, 50, 0
1, 13140, Note_on_c, 1, 52, 85
1, 13198, Note_on_c, 1, 52, 0
1, 13200, Note_on_c, 1, 49, 85
1, 13258, Note_on_c, 1, 49, 0
1, 13260, Note_on_c, 1, 52, 85
1, 13318, Note_on_c, 1, 52, 0
1, 13320, Note_on_c, 1, 45, 85
1, 13378, Note_on_c, 1, 45, 0
1, 13380, Note_on_c, 1, 49, 85
1, 13438, Note_on_c, 0, 55, 0
1, 13438, Note_on_c, 1, 49, 0
1, 13440, Note_on_c, 0, 54, 85
1, 13440, Note_on_c, 1, 50, 85
1, 13498, Note_on_c, 0, 54, 0
1, 13500, Note_on_c, 0, 59, 85
1, 13558, Note_on_c, 0, 59, 0
1, 13560, Note_on_c, 0, 58, 85
1, 13618, Note_on_c, 0, 58, 0
1, 13620, Note_on_c, 0, 59, 85
1, 13678, Note_on_c, 0, 59, 0
1, 13678, Note_on_c, 1, 50, 0
1, 13680, Note_on_c, 0, 61, 85
1, 13738, Note_on_c, 0, 61, 0
1, 13740, Note_on_c, 0, 59, 85
1, 13798, Note_on_c, 0, 59, 0
1, 13800, Note_on_c, 0, 58, 85
1, 13858, Note_on_c, 0, 58, 0
1, 13860, Note_on_c, 0, 59, 85
1, 13918, Note_on_c, 0, 59, 0
1, 13920, Note_on_c, 0, 57, 85
1, 13920, Note_on_c, 1, 51, 85
1, 13978, Note_on_c, 1, 51, 0
1, 13980, Note_on_c, 1, 54, 85
1, 14038, Note_on_c, 1, 54, 0
1, 14040, Note_on_c, 1, 52, 85
1, 14098, Note_on_c, 1, 52, 0
1, 14100, Note_on_c, 1, 54, 85
1, 14158, Note_on_c, 1, 54, 0
1, 14160, Note_on_c, 1, 51, 85
1, 14218, Note_on_c, 1, 51, 0
1, 14220, Note_on_c, 1, 54, 85
1, 14278, Note_on_c, 1, 54, 0
1, 14280, Note_on_c, 1, 47, 85
1, 14338, Note_on_c, 1, 47, 0
1, 14340, Note_on_c, 1, 51, 85
1, 14398, Note_on_c, 0, 57, 0
1, 14398, Note_on_c, 1, 51, 0
1, 14400, Note_on_c, 0, 56, 80
1, 14400, Note_on_c, 1, 52, 80
1, 14458, Note_on_c, 0, 56, 0
1, 14460, Note_on_c, 0, 64, 78
1, 14518, Note_on_c, 0, 64, 0
1, 14520, Note_on_c, 0, 63, 76
1, 14578, Note_on_c, 0, 63, 0
1, 14580, Note_on_c, 0, 64, 74
1, 14638, Note_on_c, 0, 64, 0
1, 14638, Note_on_c, 1, 52, 0
1, 14640, Note_on_c, 0, 66, 72
1, 14698, Note_on_c, 0, 66, 0
1, 14700, Note_on_c, 0, 64, 70
1, 14758, Note_on_c, 0, 64, 0
1, 14760, Note_on_c, 0, 63, 68
1, 14818, Note_on_c, 0, 63, 0
1, 14820, Note_on_c, 0, 64, 66
1, 14878, Note_on_c, 0, 64, 0
1, 14880, Note_on_c, 0, 63, 64
1, 14880, Note_on_c, 1, 54, 48
1, 14938, Note_on_c, 1, 54, 0
1, 14940, Note_on_c, 1, 60, 50
1, 14998, Note_on_c, 1, 60, 0
1, 15000, Note_on_c, 0, 63, 0
1, 15000, Note_on_c, 0, 69, 68
1, 15000, Note_on_c, 1, 54, 52
1, 15058, Note_on_c, 1, 54, 0
1, 15060, Note_on_c, 1, 60, 54
1, 15118, Note_on_c, 0, 69, 0
1, 15118, Note_on_c, 1, 60, 0
1, 15120, Note_on_c, 1, 54, 56
1, 15178, Note_on_c, 1, 54, 0
1, 15180, Note_on_c, 1, 60, 58
1, 15238, Note_on_c, 1, 60, 0
1, 15240, Note_on_c, 0, 63, 76
1, 15240, Note_on_c, 1, 54, 60
1, 15298, Note_on_c, 1, 54, 0
1, 15300, Note_on_c, 1, 60, 62
1, 15358, Note_on_c, 1, 60, 0
1, 15360, Note_on_c, 0, 63, 0
1, 15360, Note_on_c, 0, 64, 85
1, 15360, Note_on_c, 1, 56, 64
1, 15408, Note_on_c, 0, 64, 0
1, 15418, Note_on_c, 1, 56, 0
1, 15420, Note_on_c, 1, 59, 56
1, 15478, Note_on_c, 1, 59, 0
1, 15480, Note_on_c, 0, 64, 64
1, 15480, Note_on_c, 1, 56, 56
1, 15538, Note_on_c, 0, 64, 0
1, 15538, Note_on_c, 1, 56, 0
1, 15540, Note_on_c, 0, 71, 64
1, 15540, Note_on_c, 1, 59, 56
1, 15598, Note_on_c, 0, 71, 0
1, 15598, Note_on_c, 1, 59, 0
1, 15600, Note_on_c, 0, 64, 64
1, 15600, Note_on_c, 1, 56, 56
1, 15648, Note_on_c, 0, 64, 0
1, 15658, Note_on_c, 1, 56, 0
1, 15660, Note_on_c, 1, 59, 56
1, 15718, Note_on_c, 1, 59, 0
1, 15720, Note_on_c, 0, 64, 64
1, 15720, Note_on_c, 1, 56, 56
1, 15778, Note_on_c, 1, 56, 0
1, 15780, Note_on_c, 1, 59, 56
1, 15838, Note_on_c, 1, 59, 0
1, 15840, Note_on_c, 0, 64, 0
1, 15840, Note_on_c, 0, 63, 64
1, 15840, Note_on_c, 1, 54, 48
1, 15898, Note_on_c, 1, 54, 0
1, 15900, Note_on_c, 1, 60, 50
1, 15958, Note_on_c, 1, 60, 0
1, 15960, Note_on_c, 0, 63, 0
1, 15960, Note_on_c, 0, 69, 68
1, 15960, Note_on_c, 1, 54, 52
1, 16018, Note_on_c, 1, 54, 0
1, 16020, Note_on_c, 1, 60, 54
1, 16078, Note_on_c, 0, 69, 0
1, 16078, Note_on_c, 1, 60, 0
1, 16080, Note_on_c, 1, 54, 56
1, 16138, Note_on_c, 1, 54, 0
1, 16140, Note_on_c, 1, 60, 58
1, 16198, Note_on_c, 1, 60, 0
1, 16200, Note_on_c, 0, 63, 76
1, 16200, Note_on_c, 1, 54, 60
1, 16258, Note_on_c, 1, 54, 0
1, 16260, Note_on_c, 1, 60, 62
1, 16318, Note_on_c, 0, 63, 0
1, 16318, Note_on_c, 1, 60, 0
1, 16320, Note_on_c, 0, 64, 85
1, 16320, Note_on_c, 1, 56, 64
1, 16368, Note_on_c, 0, 64, 0
1, 16378, Note_on_c, 1, 56, 0
1, 16380, Note_on_c, 1, 59, 48
1, 16438, Note_on_c, 1, 59, 0
1, 16440, Note_on_c, 0, 64, 50
1, 16440, Note_on_c, 1, 56, 48
1, 16498, Note_on_c, 0, 64, 0
1, 16498, Note_on_c, 1, 56, 0
1, 16500, Note_on_c, 0, 71, 51
1, 16500, Note_on_c, 1, 59, 48
1, 16558, Note_on_c, 0, 71, 0
1, 16558, Note_on_c, 1, 59, 0
1, 16560, Note_on_c, 0, 64, 52
1, 16560, Note_on_c, 1, 56, 48
1, 16618, Note_on_c, 1, 56, 0
1, 16620, Note_on_c, 1, 59, 48
1, 16632, Note_on_c, 0, 64, 0
1, 16650, Note_on_c, 0, 62, 53
1, 16674, Note_on_c, 0, 62, 0
1, 16678, Note_on_c, 1, 59, 0
1, 16680, Note_on_c, 0, 64, 54
1, 16680, Note_on_c, 1, 56, 48
1, 16704, Note_on_c, 0, 64, 0
1, 16710, Note_on_c, 0, 62, 54
1, 16734, Note_on_c, 0, 62, 0
1, 16738, Note_on_c, 1, 56, 0
1, 16740, Note_on_c, 0, 61, 55
1, 16740, Note_on_c, 1, 59, 48
1, 16764, Note_on_c, 0, 61, 0
1, 16770, Note_on_c, 0, 62, 56
1, 16794, Note_on_c, 0, 62, 0
1, 16798, Note_on_c, 1, 59, 0
1, 16800, Note_on_c, 0, 61, 56
1, 16800, Note_on_c, 1, 57, 48
1, 16858, Note_on_c, 1, 57, 0
1, 16860, Note_on_c, 1, 61, 48
1, 16918, Note_on_c, 0, 61, 0
1, 16918, Note_on_c, 1, 61, 0
1, 16920, Note_on_c, 0, 76, 58
1, 16920, Note_on_c, 1, 57, 48
1, 16978, Note_on_c, 1, 57, 0
1, 16980, Note_on_c, 1, 61, 48
1, 16992, Note_on_c, 0, 76, 0
1, 17038, Note_on_c, 1, 61, 0
1, 17040, Note_on_c, 1, 57, 48
1, 17098, Note_on_c, 1, 57, 0
1, 17100, Note_on_c, 1, 61, 48
1, 17158, Note_on_c, 1, 61, 0
1, 17160, Note_on_c, 0, 69, 63
1, 17160, Note_on_c, 1, 57, 48
1, 17218, Note_on_c, 1, 57, 0
1, 17220, Note_on_c, 1, 61, 48
1, 17278, Note_on_c, 0, 69, 0
1, 17278, Note_on_c, 1, 61, 0
1, 17280, Note_on_c, 0, 68, 64
1, 17280, Note_on_c, 1, 59, 56
1, 17328, Note_on_c, 0, 68, 0
1, 17338, Note_on_c, 1, 59, 0
1, 17340, Note_on_c, 1, 62, 57
1, 17398, Note_on_c, 1, 62, 0
1, 17400, Note_on_c, 0, 68, 66
1, 17400, Note_on_c, 1, 59, 58
1, 17458, Note_on_c, 0, 68, 0
1, 17458, Note_on_c, 1, 59, 0
1, 17460, Note_on_c, 0, 76, 67
1, 17460, Note_on_c, 1, 62, 59
1, 17518, Note_on_c, 0, 76, 0
1, 17518, Note_on_c, 1, 62, 0
1, 17520, Note_on_c, 0, 68, 68
1, 17520, Note_on_c, 1, 59, 60
1, 17568, Note_on_c, 0, 68, 0
1, 17578, Note_on_c, 1, 59, 0
1, 17580, Note_on_c, 1, 62, 61
1, 17638, Note_on_c, 1, 62, 0
1, 17640, Note_on_c, 0, 68, 70
1, 17640, Note_on_c, 1, 59, 62
1, 17698, Note_on_c, 1, 59, 0
1, 17700, Note_on_c, 1, 62, 63
1, 17758, Note_on_c, 0, 68, 0
1, 17758, Note_on_c, 1, 62, 0
1, 17760, Note_on_c, 0, 69, 72
1, 17760, Note_on_c, 1, 61, 64
1, 17808, Note_on_c, 0, 69, 0
1, 17818, Note_on_c, 1, 61, 0
1, 17820, Note_on_c, 1, 64, 65
1, 17878, Note_on_c, 1, 64, 0
1, 17880, Note_on_c, 0, 69, 74
1, 17880, Note_on_c, 1, 61, 66
1, 17938, Note_on_c, 0, 69, 0
1, 17938, Note_on_c, 1, 61, 0
1, 17940, Note_on_c, 0, 76, 75
1, 17940, Note_on_c, 1, 64, 67
1, 17998, Note_on_c, 0, 76, 0
1, 17998, Note_on_c, 1, 64, 0
1, 18000, Note_on_c, 0, 69, 76
1, 18000, Note_on_c, 1, 61, 68
1, 18048, Note_on_c, 0, 69, 0
1, 18058, Note_on_c, 1, 61, 0
1, 18060, Note_on_c, 1, 64, 69
1, 18118, Note_on_c, 1, 64, 0
1, 18120, Note_on_c, 0, 69, 78
1, 18120, Note_on_c, 1, 61, 70
1, 18178, Note_on_c, 1, 61, 0
1, 18180, Note_on_c, 1, 64, 71
1, 18238, Note_on_c, 0, 69, 0
1, 18238, Note_on_c, 1, 64, 0
1, 18240, Note_on_c, 0, 71, 85
1, 18240, Note_on_c, 1, 56, 72
1, 18288, Note_on_c, 0, 71, 0
1, 18298, Note_on_c, 1, 56, 0
1, 18300, Note_on_c, 1, 64, 73
1, 18358, Note_on_c, 1, 64, 0
1, 18360, Note_on_c, 0, 71, 85
1, 18360, Note_on_c, 1, 56, 74
1, 18418, Note_on_c, 0, 71, 0
1, 18418, Note_on_c, 1, 56, 0
1, 18420, Note_on_c, 0, 76, 85
1, 18420, Note_on_c, 1, 64, 75
1, 18478, Note_on_c, 0, 76, 0
1, 18478, Note_on_c, 1, 64, 0
1, 18480, Note_on_c, 0, 71, 85
1, 18480, Note_on_c, 1, 56, 76
1, 18538, Note_on_c, 1, 56, 0
1, 18540, Note_on_c, 1, 64, 77
1, 18598, Note_on_c, 0, 71, 0
1, 18598, Note_on_c, 1, 64, 0
1, 18600, Note_on_c, 0, 74, 85
1, 18600, Note_on_c, 1, 56, 78
1, 18658, Note_on_c, 1, 56, 0
1, 18660, Note_on_c, 1, 64, 79
1, 18718, Note_on_c, 0, 74, 0
1, 18718, Note_on_c, 1, 64, 0
1, 18720, Note_on_c, 0, 73, 85
1, 18720, Note_on_c, 1, 57, 85
1, 18778, Note_on_c, 0, 73, 0
1, 18780, Note_on_c, 0, 74, 85
1, 18838, Note_on_c, 0, 74, 0
1, 18840, Note_on_c, 0, 76, 85
1, 18898, Note_on_c, 0, 76, 0
1, 18900, Note_on_c, 0, 73, 85
1, 18958, Note_on_c, 0, 73, 0
1, 18958, Note_on_c, 1, 57, 0
1, 18960, Note_on_c, 0, 71, 85
1, 19018, Note_on_c, 0, 71, 0
1, 19020, Note_on_c, 0, 69, 85
1, 19078, Note_on_c, 0, 69, 0
1, 19080, Note_on_c, 0, 68, 85
1, 19138, Note_on_c, 0, 68, 0
1, 19140, Note_on_c, 0, 66, 85
1, 19198, Note_on_c, 0, 66, 0
1, 19200, Note_on_c, 0, 64, 85
1, 19200, Note_on_c, 1, 56, 85
1, 19200, Note_on_c, 1, 59, 85
1, 19258, Note_on_c, 0, 64, 0
1, 19260, Note_on_c, 0, 63, 85
1, 19318, Note_on_c, 0, 63, 0
1, 19320, Note_on_c, 0, 64, 85
1, 19378, Note_on_c, 0, 64, 0
1, 19380, Note_on_c, 0, 66, 85
1, 19438, Note_on_c, 0, 66, 0
1, 19438, Note_on_c, 1, 59, 0
1, 19438, Note_on_c, 1, 56, 0
1, 19440, Note_on_c, 0, 64, 85
1, 19498, Note_on_c, 0, 64, 0
1, 19500, Note_on_c, 0, 62, 85
1, 19558, Note_on_c, 0, 62, 0
1, 19560, Note_on_c, 0, 61, 85
1, 19618, Note_on_c, 0, 61, 0
1, 19620, Note_on_c, 0, 59, 85
1, 19678, Note_on_c, 0, 59, 0
1, 19680, Note_on_c, 0, 61, 85
1, 19680, Note_on_c, 1, 45, 85
1, 19680, Note_on_c, 1, 57, 85
1, 19738, Note_on_c, 0, 61, 0
1, 19740, Note_on_c, 0, 62, 85
1, 19798, Note_on_c, 0, 62, 0
1, 19800, Note_on_c, 0, 64, 85
1, 19858, Note_on_c, 0, 64, 0
1, 19860, Note_on_c, 0, 61, 85
1, 19918, Note_on_c, 0, 61, 0
1, 19918, Note_on_c, 1, 57, 0
1, 19918, Note_on_c, 1, 45, 0
1, 19920, Note_on_c, 1, 59, 85
1, 19978, Note_on_c, 1, 59, 0
1, 19980, Note_on_c, 1, 57, 85
1, 20038, Note_on_c, 1, 57, 0
1, 20040, Note_on_c, 1, 56, 85
1, 20098, Note_on_c, 1, 56, 0
1, 20100, Note_on_c, 1, 54, 85
1, 20158, Note_on_c, 1, 54, 0
1, 20160, Note_on_c, 1, 52, 85
1, 20218, Note_on_c, 1, 52, 0
1, 20220, Note_on_c, 1, 51, 85
1, 20278, Note_on_c, 1, 51, 0
1, 20280, Note_on_c, 1, 52, 85
1, 20338, Note_on_c, 1, 52, 0
1, 20340, Note_on_c, 1, 54, 85
1, 20398, Note_on_c, 1, 54, 0
1, 20400, Note_on_c, 1, 52, 85
1, 20458, Note_on_c, 1, 52, 0
1, 20460, Note_on_c, 1, 50, 85
1, 20518, Note_on_c, 1, 50, 0
1, 20520, Note_on_c, 1, 49, 85
1, 20578, Note_on_c, 1, 49, 0
1, 20580, Note_on_c, 1, 47, 85
1, 20638, Note_on_c, 1, 47, 0
1, 20640, Note_on_c, 0, 73, 85
1, 20640, Note_on_c, 1, 45, 85
1, 20698, Note_on_c, 0, 73, 0
1, 20700, Note_on_c, 0, 74, 85
1, 20758, Note_on_c, 0, 74, 0
1, 20760, Note_on_c, 0, 76, 85
1, 20818, Note_on_c, 0, 76, 0
1, 20820, Note_on_c, 0, 73, 85
1, 20878, Note_on_c, 0, 73, 0
1, 20878, Note_on_c, 1, 45, 0
1, 20880, Note_on_c, 0, 71, 85
1, 20938, Note_on_c, 0, 71, 0
1, 20940, Note_on_c, 0, 69, 85
1, 20998, Note_on_c, 0, 69, 0
1, 21000, Note_on_c, 0, 68, 85
1, 21058, Note_on_c, 0, 68, 0
1, 21060, Note_on_c, 0, 69, 85
1, 21118, Note_on_c, 0, 69, 0
1, 21120, Note_on_c, 0, 78, 85
1, 21120, Note_on_c, 1, 62, 85
1, 21178, Note_on_c, 0, 78, 0
1, 21180, Note_on_c, 0, 80, 85
1, 21238, Note_on_c, 0, 80, 0
1, 21240, Note_on_c, 0, 81, 85
1, 21298, Note_on_c, 0, 81, 0
1, 21300, Note_on_c, 0, 78, 85
1, 21358, Note_on_c, 0, 78, 0
1, 21358, Note_on_c, 1, 62, 0
1, 21360, Note_on_c, 0, 76, 85
1, 21418, Note_on_c, 0, 76, 0
1, 21420, Note_on_c, 0, 74, 85
1, 21478, Note_on_c, 0, 74, 0
1, 21480, Note_on_c, 0, 73, 85
1, 21538, Note_on_c, 0, 73, 0
1, 21540, Note_on_c, 0, 71, 85
1, 21598, Note_on_c, 0, 71, 0
1, 21600, Note_on_c, 0, 70, 80
1, 21600, Note_on_c, 1, 38, 80
1, 21658, Note_on_c, 0, 70, 0
1, 21660, Note_on_c, 0, 71, 76
1, 21718, Note_on_c, 0, 71, 0
1, 21720, Note_on_c, 0, 73, 72
1, 21778, Note_on_c, 0, 73, 0
1, 21780, Note_on_c, 0, 71, 68
1, 21838, Note_on_c, 0, 71, 0
1, 21838, Note_on_c, 1, 38, 0
1, 21840, Note_on_c, 0, 74, 64
1, 21898, Note_on_c, 0, 74, 0
1, 21900, Note_on_c, 0, 73, 60
1, 21958, Note_on_c, 0, 73, 0
1, 21960, Note_on_c, 0, 76, 56
1, 22018, Note_on_c, 0, 76, 0
1, 22020, Note_on_c, 0, 74, 52
1, 22078, Note_on_c, 0, 74, 0
1, 22080, Note_on_c, 0, 78, 48
1, 22198, Note_on_c, 0, 78, 0
1, 22320, Note_on_c, 0, 76, 85
1, 22378, Note_on_c, 0, 76, 0
1, 22380, Note_on_c, 0, 74, 85
1, 22438, Note_on_c, 0, 74, 0
1, 22440, Note_on_c, 0, 73, 85
1, 22498, Note_on_c, 0, 73, 0
1, 22500, Note_on_c, 0, 71, 85
1, 22558, Note_on_c, 0, 71, 0
1, 22560, Note_on_c, 0, 69, 85
1, 22680, Note_on_c, 1, 57, 85
1, 22680, Note_on_c, 1, 49, 85
1, 22798, Note_on_c, 0, 69, 0
1, 22798, Note_on_c, 1, 49, 0
1, 22800, Note_on_c, 0, 71, 80
1, 22800, Note_on_c, 1, 50, 85
1, 22824, Note_on_c, 0, 71, 0
1, 22830, Note_on_c, 0, 73, 80
1, 22854, Note_on_c, 0, 73, 0
1, 22860, Note_on_c, 0, 71, 80
1, 22884, Note_on_c, 0, 71, 0
1, 22890, Note_on_c, 0, 73, 80
1, 22914, Note_on_c, 0, 73, 0
1, 22918, Note_on_c, 1, 50, 0
1, 22918, Note_on_c, 1, 57, 0
1, 22920, Note_on_c, 0, 71, 80
1, 22920, Note_on_c, 1, 52, 85
1, 22920, Note_on_c, 1, 56, 85
1, 22936, Note_on_c, 0, 71, 0
1, 22940, Note_on_c, 0, 73, 80
1, 22956, Note_on_c, 0, 73, 0
1, 22960, Note_on_c, 0, 71, 80
1, 22976, Note_on_c, 0, 71, 0
1, 22980, Note_on_c, 0, 69, 80
1, 23004, Note_on_c, 0, 69, 0
1, 23010, Note_on_c, 0, 71, 80
1, 23034, Note_on_c, 0, 71, 0
1, 23038, Note_on_c, 1, 56, 0
1, 23038, Note_on_c, 1, 52, 0
1, 23040, Note_on_c, 0, 73, 85
1, 23040, Note_on_c, 1, 45, 85
1, 23040, Note_on_c, 1, 57, 85
1, 23098, Note_on_c, 0, 73, 0
1, 23100, Note_on_c, 0, 74, 85
1, 23158, Note_on_c, 0, 74, 0
1, 23158, Note_on_c, 1, 57, 0
1, 23158, Note_on_c, 1, 45, 0
1, 23160, Note_on_c, 0, 76, 85
1, 23218, Note_on_c, 0, 76, 0
1, 23220, Note_on_c, 0, 73, 85
1, 23278, Note_on_c, 0, 73, 0
1, 23280, Note_on_c, 0, 71, 85
1, 23280, Note_on_c, 1, 61, 85
1, 23338, Note_on_c, 0, 71, 0
1, 23340, Note_on_c, 0, 69, 85
1, 23398, Note_on_c, 0, 69, 0
1, 23398, Note_on_c, 1, 61, 0
1, 23400, Note_on_c, 0, 68, 85
1, 23458, Note_on_c, 0, 68, 0
1, 23460, Note_on_c, 0, 69, 85
1, 23518, Note_on_c, 0, 69, 0
1, 23520, Note_on_c, 0, 78, 85
1, 23520, Note_on_c, 1, 62, 85
1, 23578, Note_on_c, 0, 78, 0
1, 23580, Note_on_c, 0, 80, 85
1, 23638, Note_on_c, 0, 80, 0
1, 23640, Note_on_c, 0, 81, 85
1, 23698, Note_on_c, 0, 81, 0
1, 23700, Note_on_c, 0, 78, 85
1, 23758, Note_on_c, 0, 78, 0
1, 23758, Note_on_c, 1, 62, 0
1, 23760, Note_on_c, 0, 76, 85
1, 23818, Note_on_c, 0, 76, 0
1, 23820, Note_on_c, 0, 74, 85
1, 23878, Note_on_c, 0, 74, 0
1, 23880, Note_on_c, 0, 73, 85
1, 23938, Note_on_c, 0, 73, 0
1, 23940, Note_on_c, 0, 71, 85
1, 23998, Note_on_c, 0, 71, 0
1, 24000, Note_on_c, 0, 70, 80
1, 24000, Note_on_c, 1, 50, 85
1, 24058, Note_on_c, 0, 70, 0
1, 24060, Note_on_c, 0, 71, 76
1, 24118, Note_on_c, 0, 71, 0
1, 24120, Note_on_c, 0, 73, 72
1, 24178, Note_on_c, 0, 73, 0
1, 24180, Note_on_c, 0, 71, 68
1, 24238, Note_on_c, 0, 71, 0
1, 24238, Note_on_c, 1, 50, 0
1, 24240, Note_on_c, 0, 74, 64
1, 24298, Note_on_c, 0, 74, 0
1, 24300, Note_on_c, 0, 73, 60
1, 24358, Note_on_c, 0, 73, 0
1, 24360, Note_on_c, 0, 76, 56
1, 24418, Note_on_c, 0, 76, 0
1, 24420, Note_on_c, 0, 74, 52
1, 24478, Note_on_c, 0, 74, 0
1, 24480, Note_on_c, 0, 78, 48
1, 24598, Note_on_c, 0, 78, 0
1, 24720, Note_on_c, 0, 74, 48
1, 24778, Note_on_c, 0, 74, 0
1, 24780, Note_on_c, 0, 73, 48
1, 24838, Note_on_c, 0, 73, 0
1, 24840, Note_on_c, 0, 76, 48
1, 24898, Note_on_c, 0, 76, 0
1, 24900, Note_on_c, 0, 74, 48
1, 24958, Note_on_c, 0, 74, 0
1, 24960, Note_on_c, 0, 78, 48
1, 25078, Note_on_c, 0, 78, 0
1, 25440, Tempo, 1250000
1, 25440, Note_on_c, 0, 74, 32
1, 25498, Note_on_c, 0, 74, 0
1, 25500, Note_on_c, 0, 73, 32
1, 25558, Note_on_c, 0, 73, 0
1, 25560, Note_on_c, 0, 76, 32
1, 25618, Note_on_c, 0, 76, 0
1, 25620, Note_on_c, 0, 74, 32
1, 25678, Note_on_c, 0, 74, 0
1, 25680, Note_on_c, 0, 78, 32
1, 25920, Tempo, 571429
1, 26112, Note_on_c, 0, 78, 0
1, 26250, Note_on_c, 0, 65, 80
1, 26279, Note_on_c, 0, 65, 0
1, 26280, Note_on_c, 0, 77, 80
1, 26352, Note_on_c, 0, 77, 0
1, 26370, Note_on_c, 0, 66, 80
1, 26394, Note_on_c, 0, 66, 0
1, 26400, Note_on_c, 0, 78, 85
1, 26472, Note_on_c, 0, 78, 0
1, 26490, Note_on_c, 0, 70, 80
1, 26514, Note_on_c, 0, 70, 0
1, 26520, Note_on_c, 0, 82, 80
1, 26592, Note_on_c, 0, 82, 0
1, 26610, Note_on_c, 0, 71, 80
1, 26634, Note_on_c, 0, 71, 0
1, 26640, Note_on_c, 0, 83, 80
1, 26712, Note_on_c, 0, 83, 0
1, 26730, Note_on_c, 0, 73, 80
1, 26754, Note_on_c, 0, 73, 0
1, 26760, Note_on_c, 0, 85, 80
1, 26832, Note_on_c, 0, 85, 0
1, 26850, Note_on_c, 0, 74, 80
1, 26874, Note_on_c, 0, 74, 0
1, 26880, Note_on_c, 0, 86, 85
1, 26880, Note_on_c, 1, 62, 85
1, 26880, Note_on_c, 1, 66, 85
1, 26880, Note_on_c, 1, 71, 85
1, 26998, Note_on_c, 1, 71, 0
1, 26998, Note_on_c, 1, 66, 0
1, 26998, Note_on_c, 1, 62, 0
1, 27000, Note_on_c, 1, 62, 85
1, 27000, Note_on_c, 1, 66, 85
1, 27000, Note_on_c, 1, 71, 85
1, 27058, Note_on_c, 0, 86, 0
1, 27060, Note_on_c, 0, 86, 85
1, 27118, Note_on_c, 0, 86, 0
1, 27118, Note_on_c, 1, 71, 0
1, 27118, Note_on_c, 1, 66, 0
1, 27118, Note_on_c, 1, 62, 0
1, 27120, Note_on_c, 0, 86, 85
1, 27120, Note_on_c, 1, 62, 85
1, 27120, Note_on_c, 1, 66, 85
1, 27120, Note_on_c, 1, 71, 85
1, 27178, Note_on_c, 0, 86, 0
1, 27180, Note_on_c, 0, 83, 85
1, 27238, Note_on_c, 0, 83, 0
1, 27238, Note_on_c, 1, 71, 0
1, 27238, Note_on_c, 1, 66, 0
1, 27238, Note_on_c, 1, 62, 0
1, 27240, Note_on_c, 0, 86, 85
1, 27240, Note_on_c, 1, 62, 85
1, 27240, Note_on_c, 1, 66, 85
1, 27240, Note_on_c, 1, 71, 85
1, 27298, Note_on_c, 0, 86, 0
1, 27300, Note_on_c, 0, 83, 85
1, 27358, Note_on_c, 0, 83, 0
1, 27358, Note_on_c, 1, 71, 0
1, 27358, Note_on_c, 1, 66, 0
1, 27358, Note_on_c, 1, 62, 0
1, 27360, Note_on_c, 0, 76, 85
1, 27360, Note_on_c, 1, 64, 85
1, 27360, Note_on_c, 1, 69, 85
1, 27360, Note_on_c, 1, 73, 85
1, 27478, Note_on_c, 1, 73, 0
1, 27478, Note_on_c, 1, 69, 0
1, 27478, Note_on_c, 1, 64, 0
1, 27480, Note_on_c, 1, 64, 85
1, 27480, Note_on_c, 1, 69, 85
1, 27480, Note_on_c, 1, 73, 85
1, 27538, Note_on_c, 0, 76, 0
1, 27540, Note_on_c, 0, 81, 85
1, 27568, Note_on_c, 0, 81, 0
1, 27570, Note_on_c, 0, 85, 85
1, 27598, Note_on_c, 0, 85, 0
1, 27598, Note_on_c, 1, 73, 0
1, 27598, Note_on_c, 1, 69, 0
1, 27598, Note_on_c, 1, 64, 0
1, 27600, Note_on_c, 0, 88, 85
1, 27600, Note_on_c, 1, 64, 85
1, 27600, Note_on_c, 1, 69, 85
1, 27600, Note_on_c, 1, 73, 85
1, 27718, Note_on_c, 1, 73, 0
1, 27718, Note_on_c, 1, 69, 0
1, 27718, Note_on_c, 1, 64, 0
1, 27720, Note_on_c, 1, 64, 85
1, 27720, Note_on_c, 1, 69, 85
1, 27720, Note_on_c, 1, 73, 85
1, 27778, Note_on_c, 0, 88, 0
1, 27780, Note_on_c, 0, 81, 85
1, 27808, Note_on_c, 0, 81, 0
1, 27810, Note_on_c, 0, 83, 85
1, 27838, Note_on_c, 0, 83, 0
1, 27838, Note_on_c, 1, 73, 0
1, 27838, Note_on_c, 1, 69, 0
1, 27838, Note_on_c, 1, 64, 0
1, 27840, Note_on_c, 0, 83, 64
1, 27840, Note_on_c, 1, 64, 85
1, 27840, Note_on_c, 1, 68, 85
1, 27864, Note_on_c, 0, 83, 0
1, 27870, Note_on_c, 0, 85, 65
1, 27894, Note_on_c, 0, 85, 0
1, 27900, Note_on_c, 0, 83, 66
1, 27924, Note_on_c, 0, 83, 0
1, 27930, Note_on_c, 0, 85, 67
1, 27954, Note_on_c, 0, 85, 0
1, 27958, Note_on_c, 1, 68, 0
1, 27958, Note_on_c, 1, 64, 0
1, 27960, Note_on_c, 0, 83, 68
1, 27960, Note_on_c, 1, 64, 85
1, 27960, Note_on_c, 1, 68, 85
1, 27984, Note_on_c, 0, 83, 0
1, 27990, Note_on_c, 0, 85, 69
1, 28014, Note_on_c, 0, 85, 0
1, 28020, Note_on_c, 0, 83, 70
1, 28044, Note_on_c, 0, 83, 0
1, 28050, Note_on_c, 0, 85, 71
1, 28074, Note_on_c, 0, 85, 0
1, 28078, Note_on_c, 1, 68, 0
1, 28078, Note_on_c, 1, 64, 0
1, 28080, Note_on_c, 0, 83, 72
1, 28080, Note_on_c, 1, 64, 85
1, 28080, Note_on_c, 1, 68, 85
1, 28104, Note_on_c, 0, 83, 0
1, 28110, Note_on_c, 0, 85, 73
1, 28134, Note_on_c, 0, 85, 0
1, 28140, Note_on_c, 0, 83, 74
1, 28164, Note_on_c, 0, 83, 0
1, 28170, Note_on_c, 0, 85, 75
1, 28194, Note_on_c, 0, 85, 0
1, 28198, Note_on_c, 1, 68, 0
1, 28198, Note_on_c, 1, 64, 0
1, 28200, Note_on_c, 0, 83, 76
1, 28200, Note_on_c, 1, 64, 85
1, 28200, Note_on_c, 1, 68, 85
1, 28216, Note_on_c, 0, 83, 0
1, 28220, Note_on_c, 0, 85, 77
1, 28236, Note_on_c, 0, 85, 0
1, 28240, Note_on_c, 0, 83, 77
1, 28256, Note_on_c, 0, 83, 0
1, 28260, Note_on_c, 0, 81, 78
1, 28284, Note_on_c, 0, 81, 0
1, 28290, Note_on_c, 0, 83, 79
1, 28314, Note_on_c, 0, 83, 0
1, 28318, Note_on_c, 1, 68, 0
1, 28318, Note_on_c, 1, 64, 0
1, 28320, Note_on_c, 0, 81, 85
1, 28320, Note_on_c, 1, 57, 85
1, 28378, Note_on_c, 1, 57, 0
1, 28380, Note_on_c, 1, 69, 85
1, 28438, Note_on_c, 1, 69, 0
1, 28440, Note_on_c, 1, 68, 85
1, 28498, Note_on_c, 1, 68, 0
1, 28500, Note_on_c, 1, 69, 85
1, 28558, Note_on_c, 0, 81, 0
1, 28558, Note_on_c, 1, 69, 0
1, 28560, Note_on_c, 1, 61, 85
1, 28618, Note_on_c, 1, 61, 0
1, 28620, Note_on_c, 1, 69, 85
1, 28678, Note_on_c, 1, 69, 0
1, 28680, Note_on_c, 0, 76, 85
1, 28680, Note_on_c, 1, 68, 85
1, 28738, Note_on_c, 1, 68, 0
1, 28740, Note_on_c, 1, 69, 85
1, 28798, Note_on_c, 0, 76, 0
1, 28798, Note_on_c, 1, 69, 0
1, 28800, Note_on_c, 0, 78, 80
1, 28800, Note_on_c, 1, 62, 85
1, 28832, Note_on_c, 0, 78, 0
1, 28840, Note_on_c, 0, 80, 80
1, 28858, Note_on_c, 1, 62, 0
1, 28860, Note_on_c, 1, 69, 85
1, 28872, Note_on_c, 0, 80, 0
1, 28880, Note_on_c, 0, 78, 80
1, 28912, Note_on_c, 0, 78, 0
1, 28918, Note_on_c, 1, 69, 0
1, 28920, Note_on_c, 0, 76, 80
1, 28920, Note_on_c, 1, 61, 85
1, 28978, Note_on_c, 1, 61, 0
1, 28980, Note_on_c, 1, 69, 85
1, 29016, Note_on_c, 0, 76, 0
1, 29038, Note_on_c, 1, 69, 0
1, 29040, Note_on_c, 0, 78, 80
1, 29040, Note_on_c, 1, 62, 85
1, 29072, Note_on_c, 0, 78, 0
1, 29080, Note_on_c, 0, 80, 80
1, 29098, Note_on_c, 1, 62, 0
1, 29100, Note_on_c, 1, 69, 85
1, 29112, Note_on_c, 0, 80, 0
1, 29120, Note_on_c, 0, 78, 80
1, 29152, Note_on_c, 0, 78, 0
1, 29158, Note_on_c, 1, 69, 0
1, 29160, Note_on_c, 0, 76, 80
1, 29160, Note_on_c, 1, 61, 85
1, 29208, Note_on_c, 0, 76, 0
1, 29218, Note_on_c, 1, 61, 0
1, 29220, Note_on_c, 0, 76, 88
1, 29220, Note_on_c, 1, 69, 85
1, 29240, Note_on_c, 0, 80, 88
1, 29260, Note_on_c, 0, 83, 88
1, 29278, Note_on_c, 1, 69, 0
1, 29280, Note_on_c, 0, 86, 88
1, 29280, Note_on_c, 1, 59, 85
1, 29280, Note_on_c, 1, 68, 85
1, 29472, Note_on_c, 0, 86, 0
1, 29472, Note_on_c, 0, 76, 0
1, 29472, Note_on_c, 0, 80, 0
1, 29472, Note_on_c, 0, 83, 0
1, 29518, Note_on_c, 1, 68, 0
1, 29518, Note_on_c, 1, 59, 0
1, 29640, Note_on_c, 0, 85, 80
1, 29640, Note_on_c, 1, 57, 85
1, 29640, Note_on_c, 1, 69, 85
1, 29736, Note_on_c, 0, 85, 0
1, 29758, Note_on_c, 1, 69, 0
1, 29758, Note_on_c, 1, 57, 0
1, 29760, Note_on_c, 0, 83, 80
1, 29760, Note_on_c, 1, 62, 85
1, 29760, Note_on_c, 1, 66, 85
1, 29792, Note_on_c, 0, 83, 0
1, 29800, Note_on_c, 0, 85, 80
1, 29832, Note_on_c, 0, 85, 0
1, 29840, Note_on_c, 0, 83, 80
1, 29872, Note_on_c, 0, 83, 0
1, 29878, Note_on_c, 1, 66, 0
1, 29878, Note_on_c, 1, 62, 0
1, 29880, Note_on_c, 0, 86, 80
1, 29976, Note_on_c, 0, 86, 0
1, 30000, Note_on_c, 0, 76, 80
1, 30000, Note_on_c, 1, 52, 85
1, 30000, Note_on_c, 1, 64, 85
1, 30032, Note_on_c, 0, 76, 0
1, 30040, Note_on_c, 0, 78, 80
1, 30072, Note_on_c, 0, 78, 0
1, 30080, Note_on_c, 0, 76, 80
1, 30112, Note_on_c, 0, 76, 0
1, 30118, Note_on_c, 1, 64, 0
1, 30118, Note_on_c, 1, 52, 0
1, 30120, Note_on_c, 0, 74, 80
1, 30120, Note_on_c, 0, 80, 80
1, 30216, Note_on_c, 0, 80, 0
1, 30216, Note_on_c, 0, 74, 0
1, 30240, Note_on_c, 0, 73, 80
1, 30240, Note_on_c, 0, 81, 80
1, 30240, Note_on_c, 1, 57, 48
1, 30298, Note_on_c, 1, 57, 0
1, 30300, Note_on_c, 1, 69, 48
1, 30358, Note_on_c, 1, 69, 0
1, 30360, Note_on_c, 1, 68, 48
1, 30418, Note_on_c, 1, 68, 0
1, 30420, Note_on_c, 1, 69, 48
1, 30478, Note_on_c, 0, 81, 0
1, 30478, Note_on_c, 0, 73, 0
1, 30478, Note_on_c, 1, 69, 0
1, 30480, Note_on_c, 1, 61, 48
1, 30538, Note_on_c, 1, 61, 0
1, 30540, Note_on_c, 1, 69, 48
1, 30598, Note_on_c, 1, 69, 0
1, 30600, Note_on_c, 0, 76, 56
1, 30600, Note_on_c, 1, 68, 48
1, 30658, Note_on_c, 1, 68, 0
1, 30660, Note_on_c, 1, 69, 48
1, 30718, Note_on_c, 0, 76, 0
1, 30718, Note_on_c, 1, 69, 0
1, 30720, Note_on_c, 0, 78, 56
1, 30720, Note_on_c, 1, 62, 48
1, 30752, Note_on_c, 0, 78, 0
1, 30760, Note_on_c, 0, 80, 56
1, 30778, Note_on_c, 1, 62, 0
1, 30780, Note_on_c, 1, 69, 48
1, 30792, Note_on_c, 0, 80, 0
1, 30800, Note_on_c, 0, 78, 56
1, 30832, Note_on_c, 0, 78, 0
1, 30838, Note_on_c, 1, 69, 0
1, 30840, Note_on_c, 0, 76, 56
1, 30840, Note_on_c, 1, 61, 48
1, 30898, Note_on_c, 1, 61, 0
1, 30900, Note_on_c, 1, 69, 48
1, 30936, Note_on_c, 0, 76, 0
1, 30958, Note_on_c, 1, 69, 0
1, 30960, Note_on_c, 0, 78, 56
1, 30960, Note_on_c, 1, 62, 48
1, 30992, Note_on_c, 0, 78, 0
1, 31000, Note_on_c, 0, 80, 56
1, 31018, Note_on_c, 1, 62, 0
1, 31020, Note_on_c, 1, 69, 48
1, 31032, Note_on_c, 0, 80, 0
1, 31040, Note_on_c, 0, 78, 56
1, 31072, Note_on_c, 0, 78, 0
1, 31078, Note_on_c, 1, 69, 0
1, 31080, Note_on_c, 0, 76, 56
1, 31080, Note_on_c, 1, 61, 48
1, 31128, Note_on_c, 0, 76, 0
1, 31138, Note_on_c, 1, 61, 0
1, 31140, Note_on_c, 0, 76, 64
1, 31140, Note_on_c, 1, 69, 48
1, 31160, Note_on_c, 0, 80, 64
1, 31180, Note_on_c, 0, 83, 64
1, 31198, Note_on_c, 1, 69, 0
1, 31200, Note_on_c, 0, 86, 64
1, 31200, Note_on_c, 1, 59, 64
1, 31200, Note_on_c, 1, 68, 64
1, 31392, Note_on_c, 0, 86, 0
1, 31392, Note_on_c, 0, 76, 0
1, 31392, Note_on_c, 0, 80, 0
1, 31392, Note_on_c, 0, 83, 0
1, 31438, Note_on_c, 1, 68, 0
1, 31438, Note_on_c, 1, 59, 0
1, 31560, Note_on_c, 0, 85, 56
1, 31560, Note_on_c, 1, 57, 48
1, 31560, Note_on_c, 1, 69, 48
1, 31656, Note_on_c, 0, 85, 0
1, 31678, Note_on_c, 1, 69, 0
1, 31678, Note_on_c, 1, 57, 0
1, 31680, Note_on_c, 0, 83, 56
1, 31680, Note_on_c, 1, 62, 48
1, 31680, Note_on_c, 1, 66, 48
1, 31712, Note_on_c, 0, 83, 0
1, 31720, Note_on_c, 0, 85, 56
1, 31752, Note_on_c, 0, 85, 0
1, 31760, Note_on_c, 0, 83, 56
1, 31776, Note_on_c, 1, 66, 0
1, 31776, Note_on_c, 1, 62, 0
1, 31792, Note_on_c, 0, 83, 0
1, 31800, Note_on_c, 0, 86, 56
1, 31896, Note_on_c, 0, 86, 0
1, 31920, Note_on_c, 0, 76, 56
1, 31920, Note_on_c, 1, 64, 48
1, 31920, Note_on_c, 1, 52, 48
1, 31952, Note_on_c, 0, 76, 0
1, 31960, Note_on_c, 0, 78, 56
1, 31992, Note_on_c, 0, 78, 0
1, 32000, Note_on_c, 0, 76, 56
1, 32016, Note_on_c, 1, 52, 0
1, 32016, Note_on_c, 1, 64, 0
1, 32032, Note_on_c, 0, 76, 0
1, 32040, Note_on_c, 0, 80, 56
1, 32040, Note_on_c, 0, 74, 56
1, 32136, Note_on_c, 0, 74, 0
1, 32136, Note_on_c, 0, 80, 0
1, 32160, Note_on_c, 0, 73, 56
1, 32160, Note_on_c, 0, 81, 56
1, 32160, Note_on_c, 1, 45, 48
1, 32160, Note_on_c, 1, 57, 48
1, 32256, Note_on_c, 1, 57, 0
1, 32256, Note_on_c, 1, 45, 0
1, 32278, Note_on_c, 0, 81, 0
1, 32278, Note_on_c, 0, 73, 0
1, 32400, Note_on_c, 1, 62, 48
1, 32400, Note_on_c, 1, 52, 48
1, 32460, Note_on_c, 0, 64, 56
1, 32496, Note_on_c, 1, 52, 0
1, 32496, Note_on_c, 1, 62, 0
1, 32518, Note_on_c, 0, 64, 0
1, 32520, Note_on_c, 0, 68, 56
1, 32578, Note_on_c, 0, 68, 0
1, 32580, Note_on_c, 0, 76, 56
1, 32638, Note_on_c, 0, 76, 0
1, 32640, Note_on_c, 1, 52, 48
1, 32640, Note_on_c, 1, 61, 48
1, 32700, Note_on_c, 0, 64, 56
1, 32736, Note_on_c, 1, 61, 0
1, 32736, Note_on_c, 1, 52, 0
1, 32758, Note_on_c, 0, 64, 0
1, 32760, Note_on_c, 0, 69, 56
1, 32818, Note_on_c, 0, 69, 0
1, 32820, Note_on_c, 0, 76, 56
1, 32878, Note_on_c, 0, 76, 0
1, 32880, Note_on_c, 1, 52, 48
1, 32880, Note_on_c, 1, 59, 48
1, 32940, Note_on_c, 0, 59, 56
1, 32976, Note_on_c, 1, 59, 0
1, 32976, Note_on_c, 1, 52, 0
1, 32998, Note_on_c, 0, 59, 0
1, 33000, Note_on_c, 0, 62, 56
1, 33058, Note_on_c, 0, 62, 0
1, 33060, Note_on_c, 0, 68, 56
1, 33118, Note_on_c, 0, 68, 0
1, 33120, Note_on_c, 0, 61, 56
1, 33120, Note_on_c, 0, 69, 56
1, 33120, Note_on_c, 1, 45, 48
1, 33120, Note_on_c, 1, 57, 48
1, 33312, Note_on_c, 1, 57, 0
1, 33312, Note_on_c, 1, 45, 0
1, 33358, Note_on_c, 0, 69, 0
1, 33358, Note_on_c, 0, 61, 0
1, 33600, Note_on_c, 1, 42, 96
1, 33600, Note_on_c, 1, 30, 96
1, 34078, Note_on_c, 1, 30, 0
1, 34320, Note_on_c, 1, 54, 80
1, 34352, Note_on_c, 1, 54, 0
1, 34360, Note_on_c, 1, 56, 80
1, 34392, Note_on_c, 1, 56, 0
1, 34400, Note_on_c, 1, 54, 80
1, 34432, Note_on_c, 1, 54, 0
1, 34440, Note_on_c, 1, 52, 80
1, 34440, Note_on_c, 1, 58, 80
1, 34512, Note_on_c, 1, 58, 0
1, 34512, Note_on_c, 1, 52, 0
1, 34560, Note_on_c, 0, 59, 80
1, 34560, Note_on_c, 1, 50, 85
1, 34592, Note_on_c, 0, 59, 0
1, 34600, Note_on_c, 0, 61, 80
1, 34632, Note_on_c, 0, 61, 0
1, 34640, Note_on_c, 0, 59, 80
1, 34672, Note_on_c, 0, 59, 0
1, 34678, Note_on_c, 1, 50, 0
1, 34680, Note_on_c, 0, 62, 80
1, 34680, Note_on_c, 1, 47, 85
1, 34752, Note_on_c, 0, 62, 0
1, 34752, Note_on_c, 1, 47, 0
1, 34800, Note_on_c, 0, 61, 80
1, 34800, Note_on_c, 1, 46, 85
1, 34832, Note_on_c, 0, 61, 0
1, 34840, Note_on_c, 0, 62, 80
1, 34872, Note_on_c, 0, 62, 0
1, 34880, Note_on_c, 0, 61, 80
1, 34912, Note_on_c, 0, 61, 0
1, 34918, Note_on_c, 1, 46, 0
1, 34920, Note_on_c, 0, 64, 80
1, 34920, Note_on_c, 1, 49, 85
1, 34992, Note_on_c, 0, 64, 0
1, 34992, Note_on_c, 1, 49, 0
1, 35038, Note_on_c, 1, 42, 0
1, 35040, Note_on_c, 0, 62, 80
1, 35040, Note_on_c, 1, 47, 85
1, 35072, Note_on_c, 0, 62, 0
1, 35080, Note_on_c, 0, 64, 80
1, 35112, Note_on_c, 0, 64, 0
1, 35120, Note_on_c, 0, 62, 80
1, 35152, Note_on_c, 0, 62, 0
1, 35160, Note_on_c, 0, 66, 80
1, 35208, Note_on_c, 0, 66, 0
1, 35278, Note_on_c, 1, 47, 0
1, 35400, Note_on_c, 0, 62, 80
1, 35424, Note_on_c, 0, 62, 0
1, 35430, Note_on_c, 0, 66, 80
1, 35454, Note_on_c, 0, 66, 0
1, 35460, Note_on_c, 0, 71, 80
1, 35484, Note_on_c, 0, 71, 0
1, 35490, Note_on_c, 0, 74, 80
1, 35514, Note_on_c, 0, 74, 0
1, 35520, Note_on_c, 0, 71, 85
1, 35640, Note_on_c, 0, 71, 0
1, 35640, Note_on_c, 0, 66, 85
1, 35760, Note_on_c, 0, 66, 0
1, 35760, Note_on_c, 0, 78, 85
1, 35808, Note_on_c, 0, 78, 0
1, 35880, Note_on_c, 0, 71, 85
1, 35880, Note_on_c, 1, 62, 85
1, 35880, Note_on_c, 1, 66, 85
1, 35928, Note_on_c, 0, 71, 0
1, 35928, Note_on_c, 1, 66, 0
1, 35928, Note_on_c, 1, 62, 0
1, 36000, Note_on_c, 0, 73, 80
1, 36000, Note_on_c, 1, 64, 85
1, 36000, Note_on_c, 1, 67, 85
1, 36032, Note_on_c, 0, 73, 0
1, 36040, Note_on_c, 0, 74, 80
1, 36072, Note_on_c, 0, 74, 0
1, 36080, Note_on_c, 0, 73, 80
1, 36112, Note_on_c, 0, 73, 0
1, 36118, Note_on_c, 1, 67, 0
1, 36118, Note_on_c, 1, 64, 0
1, 36120, Note_on_c, 0, 71, 80
1, 36120, Note_on_c, 1, 62, 85
1, 36120, Note_on_c, 1, 66, 85
1, 36168, Note_on_c, 0, 71, 0
1, 36168, Note_on_c, 1, 66, 0
1, 36168, Note_on_c, 1, 62, 0
1, 36360, Note_on_c, 0, 62, 80
1, 36384, Note_on_c, 0, 62, 0
1, 36390, Note_on_c, 0, 66, 80
1, 36414, Note_on_c, 0, 66, 0
1, 36420, Note_on_c, 0, 71, 80
1, 36444, Note_on_c, 0, 71, 0
1, 36450, Note_on_c, 0, 74, 80
1, 36474, Note_on_c, 0, 74, 0
1, 36480, Note_on_c, 0, 71, 85
1, 36600, Note_on_c, 0, 71, 0
1, 36600, Note_on_c, 0, 66, 85
1, 36720, Note_on_c, 0, 66, 0
1, 36720, Note_on_c, 0, 83, 85
1, 36768, Note_on_c, 0, 83, 0
1, 36840, Note_on_c, 0, 78, 85
1, 36840, Note_on_c, 1, 71, 85
1, 36840, Note_on_c, 1, 74, 85
1, 36888, Note_on_c, 0, 78, 0
1, 36888, Note_on_c, 1, 74, 0
1, 36888, Note_on_c, 1, 71, 0
1, 36960, Note_on_c, 0, 79, 80
1, 36960, Note_on_c, 1, 70, 85
1, 36960, Note_on_c, 1, 73, 85
1, 36992, Note_on_c, 0, 79, 0
1, 37000, Note_on_c, 0, 81, 80
1, 37032, Note_on_c, 0, 81, 0
1, 37040, Note_on_c, 0, 79, 80
1, 37072, Note_on_c, 0, 79, 0
1, 37078, Note_on_c, 1, 73, 0
1, 37078, Note_on_c, 1, 70, 0
1, 37080, Note_on_c, 0, 78, 80
1, 37080, Note_on_c, 1, 71, 85
1, 37080, Note_on_c, 1, 74, 85
1, 37128, Note_on_c, 0, 78, 0
1, 37128, Note_on_c, 1, 74, 0
1, 37128, Note_on_c, 1, 71, 0
1, 37320, Note_on_c, 0, 71, 80
1, 37344, Note_on_c, 0, 71, 0
1, 37350, Note_on_c, 0, 74, 80
1, 37374, Note_on_c, 0, 74, 0
1, 37380, Note_on_c, 0, 78, 80
1, 37404, Note_on_c, 0, 78, 0
1, 37410, Note_on_c, 0, 83, 80
1, 37434, Note_on_c, 0, 83, 0
1, 37440, Note_on_c, 0, 78, 85
1, 37560, Note_on_c, 0, 78, 0
1, 37560, Note_on_c, 0, 74, 85
1, 37680, Note_on_c, 0, 74, 0
1, 37680, Note_on_c, 0, 79, 85
1, 37680, Note_on_c, 1, 71, 85
1, 37680, Note_on_c, 1, 74, 85
1, 37728, Note_on_c, 0, 79, 0
1, 37728, Note_on_c, 1, 74, 0
1, 37728, Note_on_c, 1, 71, 0
1, 37800, Note_on_c, 0, 78, 85
1, 37800, Note_on_c, 1, 69, 85
1, 37800, Note_on_c, 1, 73, 85
1, 37848, Note_on_c, 0, 78, 0
1, 37848, Note_on_c, 1, 73, 0
1, 37848, Note_on_c, 1, 69, 0
1, 37920, Note_on_c, 0, 76, 80
1, 37920, Note_on_c, 1, 67, 85
1, 37920, Note_on_c, 1, 71, 85
1, 37952, Note_on_c, 0, 76, 0
1, 37960, Note_on_c, 0, 78, 80
1, 37992, Note_on_c, 0, 78, 0
1, 38000, Note_on_c, 0, 76, 80
1, 38032, Note_on_c, 0, 76, 0
1, 38038, Note_on_c, 1, 71, 0
1, 38038, Note_on_c, 1, 67, 0
1, 38040, Note_on_c, 0, 74, 80
1, 38040, Note_on_c, 1, 66, 85
1, 38040, Note_on_c, 1, 69, 85
1, 38088, Note_on_c, 0, 74, 0
1, 38088, Note_on_c, 1, 69, 0
1, 38088, Note_on_c, 1, 66, 0
1, 38400, Note_on_c, 1, 50, 85
1, 38460, Note_on_c, 0, 60, 85
1, 38518, Note_on_c, 0, 60, 0
1, 38520, Note_on_c, 0, 59, 85
1, 38578, Note_on_c, 0, 59, 0
1, 38580, Note_on_c, 0, 60, 85
1, 38638, Note_on_c, 0, 60, 0
1, 38640, Note_on_c, 0, 62, 85
1, 38698, Note_on_c, 0, 62, 0
1, 38700, Note_on_c, 0, 60, 85
1, 38758, Note_on_c, 0, 60, 0
1, 38760, Note_on_c, 0, 64, 85
1, 38818, Note_on_c, 0, 64, 0
1, 38820, Note_on_c, 0, 60, 85
1, 38878, Note_on_c, 0, 60, 0
1, 38880, Note_on_c, 1, 59, 85
1, 38940, Note_on_c, 0, 67, 85
1, 38998, Note_on_c, 0, 67, 0
1, 39000, Note_on_c, 0, 66, 85
1, 39058, Note_on_c, 0, 66, 0
1, 39060, Note_on_c, 0, 67, 85
1, 39118, Note_on_c, 0, 67, 0
1, 39120, Note_on_c, 0, 69, 85
1, 39178, Note_on_c, 0, 69, 0
1, 39180, Note_on_c, 0, 67, 85
1, 39238, Note_on_c, 0, 67, 0
1, 39240, Note_on_c, 0, 71, 85
1, 39298, Note_on_c, 0, 71, 0
1, 39300, Note_on_c, 0, 67, 85
1, 39358, Note_on_c, 0, 67, 0
1, 39358, Note_on_c, 1, 50, 0
1, 39360, Note_on_c, 0, 66, 85
1, 39360, Note_on_c, 1, 51, 85
1, 39418, Note_on_c, 1, 59, 0
1, 39420, Note_on_c, 1, 57, 85
1, 39478, Note_on_c, 1, 57, 0
1, 39480, Note_on_c, 1, 56, 85
1, 39538, Note_on_c, 1, 56, 0
1, 39540, Note_on_c, 1, 57, 85
1, 39598, Note_on_c, 1, 57, 0
1, 39600, Note_on_c, 1, 59, 85
1, 39658, Note_on_c, 1, 59, 0
1, 39660, Note_on_c, 1, 57, 85
1, 39718, Note_on_c, 1, 57, 0
1, 39720, Note_on_c, 1, 60, 85
1, 39778, Note_on_c, 1, 60, 0
1, 39780, Note_on_c, 1, 57, 85
1, 39838, Note_on_c, 0, 66, 0
1, 39838, Note_on_c, 1, 51, 0
1, 39840, Note_on_c, 0, 59, 85
1, 39840, Note_on_c, 1, 52, 85
1, 39898, Note_on_c, 0, 59, 0
1, 39900, Note_on_c, 0, 64, 85
1, 39958, Note_on_c, 0, 64, 0
1, 39960, Note_on_c, 0, 63, 85
1, 40018, Note_on_c, 0, 63, 0
1, 40020, Note_on_c, 0, 64, 85
1, 40078, Note_on_c, 0, 64, 0
1, 40078, Note_on_c, 1, 57, 0
1, 40080, Note_on_c, 0, 66, 85
1, 40080, Note_on_c, 1, 55, 85
1, 40138, Note_on_c, 0, 66, 0
1, 40140, Note_on_c, 0, 64, 85
1, 40198, Note_on_c, 0, 64, 0
1, 40200, Note_on_c, 0, 67, 85
1, 40258, Note_on_c, 0, 67, 0
1, 40260, Note_on_c, 0, 64, 85
1, 40318, Note_on_c, 0, 64, 0
1, 40318, Note_on_c, 1, 55, 0
1, 40318, Note_on_c, 1, 52, 0
1, 40320, Note_on_c, 0, 67, 85
1, 40320, Note_on_c, 0, 76, 85
1, 40380, Note_on_c, 1, 61, 85
1, 40438, Note_on_c, 1, 61, 0
1, 40440, Note_on_c, 1, 59, 85
1, 40498, Note_on_c, 1, 59, 0
1, 40500, Note_on_c, 1, 61, 85
1, 40558, Note_on_c, 1, 61, 0
1, 40560, Note_on_c, 1, 62, 85
1, 40618, Note_on_c, 1, 62, 0
1, 40620, Note_on_c, 1, 61, 85
1, 40678, Note_on_c, 1, 61, 0
1, 40680, Note_on_c, 1, 64, 85
1, 40738, Note_on_c, 1, 64, 0
1, 40740, Note_on_c, 1, 59, 85
1, 40798, Note_on_c, 0, 76, 0
1, 40798, Note_on_c, 0, 67, 0
1, 40798, Note_on_c, 1, 59, 0
1, 40800, Note_on_c, 1, 66, 85
1, 40800, Note_on_c, 1, 58, 85
1, 40860, Note_on_c, 0, 76, 85
1, 40918, Note_on_c, 0, 76, 0
1, 40920, Note_on_c, 0, 75, 85
1, 40978, Note_on_c, 0, 75, 0
1, 40980, Note_on_c, 0, 76, 85
1, 41038, Note_on_c, 0, 76, 0
1, 41040, Note_on_c, 0, 78, 85
1, 41098, Note_on_c, 0, 78, 0
1, 41100, Note_on_c, 0, 76, 85
1, 41158, Note_on_c, 0, 76, 0
1, 41160, Note_on_c, 0, 79, 85
1, 41218, Note_on_c, 0, 79, 0
1, 41220, Note_on_c, 0, 76, 85
1, 41278, Note_on_c, 0, 76, 0
1, 41278, Note_on_c, 1, 58, 0
1, 41280, Note_on_c, 0, 74, 80
1, 41280, Note_on_c, 1, 59, 85
1, 41338, Note_on_c, 0, 74, 0
1, 41340, Note_on_c, 0, 83, 82
1, 41398, Note_on_c, 0, 83, 0
1, 41400, Note_on_c, 0, 82, 84
1, 41458, Note_on_c, 0, 82, 0
1, 41460, Note_on_c, 0, 83, 86
1, 41518, Note_on_c, 0, 83, 0
1, 41518, Note_on_c, 1, 59, 0
1, 41518, Note_on_c, 1, 66, 0
1, 41520, Note_on_c, 0, 85, 88
1, 41520, Note_on_c, 1, 55, 85
1, 41520, Note_on_c, 1, 65, 85
1, 41578, Note_on_c, 0, 85, 0
1, 41580, Note_on_c, 0, 83, 90
1, 41638, Note_on_c, 0, 83, 0
1, 41640, Note_on_c, 0, 86, 92
1, 41698, Note_on_c, 0, 86, 0
1, 41700, Note_on_c, 0, 83, 94
1, 41758, Note_on_c, 0, 83, 0
1, 41758, Note_on_c, 1, 65, 0
1, 41758, Note_on_c, 1, 55, 0
1, 41760, Note_on_c, 0, 82, 96
1, 41760, Note_on_c, 1, 54, 85
1, 41760, Note_on_c, 1, 66, 85
1, 41818, Note_on_c, 0, 82, 0
1, 41820, Note_on_c, 0, 85, 96
1, 41844, Note_on_c, 0, 85, 0
1, 41880, Note_on_c, 0, 78, 96
1, 41904, Note_on_c, 0, 78, 0
1, 41940, Note_on_c, 0, 82, 96
1, 41964, Note_on_c, 0, 82, 0
1, 41998, Note_on_c, 1, 66, 0
1, 41998, Note_on_c, 1, 54, 0
1, 42000, Note_on_c, 0, 73, 96
1, 42058, Note_on_c, 0, 73, 0
1, 42060, Note_on_c, 0, 78, 96
1, 42118, Note_on_c, 0, 78, 0
1, 42120, Note_on_c, 0, 70, 96
1, 42178, Note_on_c, 0, 70, 0
1, 42180, Note_on_c, 0, 73, 96
1, 42238, Note_on_c, 0, 73, 0
1, 42240, Note_on_c, 0, 66, 96
1, 42240, Note_on_c, 1, 42, 96
1, 42478, Note_on_c, 0, 66, 0
1, 42478, Note_on_c, 1, 42, 0
1, 42600, Note_on_c, 0, 66, 64
1, 42718, Note_on_c, 0, 66, 0
1, 42720, Note_on_c, 0, 71, 64
1, 42778, Note_on_c, 0, 71, 0
1, 42780, Note_on_c, 0, 70, 66
1, 42838, Note_on_c, 0, 70, 0
1, 42840, Note_on_c, 0, 73, 68
1, 42898, Note_on_c, 0, 73, 0
1, 42900, Note_on_c, 0, 71, 70
1, 42958, Note_on_c, 0, 71, 0
1, 42960, Note_on_c, 0, 74, 72
1, 43018, Note_on_c, 0, 74, 0
1, 43020, Note_on_c, 0, 73, 74
1, 43078, Note_on_c, 0, 73, 0
1, 43080, Note_on_c, 0, 76, 76
1, 43138, Note_on_c, 0, 76, 0
1, 43140, Note_on_c, 0, 74, 78
1, 43198, Note_on_c, 0, 74, 0
1, 43200, Note_on_c, 0, 71, 85
1, 43200, Note_on_c, 0, 74, 85
1, 43320, Note_on_c, 1, 53, 64
1, 43438, Note_on_c, 0, 74, 0
1, 43438, Note_on_c, 0, 71, 0
1, 43438, Note_on_c, 1, 53, 0
1, 43440, Note_on_c, 0, 70, 64
1, 43440, Note_on_c, 0, 73, 64
1, 43440, Note_on_c, 1, 54, 64
1, 43488, Note_on_c, 0, 73, 0
1, 43488, Note_on_c, 0, 70, 0
1, 43536, Note_on_c, 1, 54, 0
1, 43560, Note_on_c, 0, 66, 64
1, 43678, Note_on_c, 0, 66, 0
1, 43680, Note_on_c, 0, 73, 64
1, 43738, Note_on_c, 0, 73, 0
1, 43740, Note_on_c, 0, 71, 66
1, 43798, Note_on_c, 0, 71, 0
1, 43800, Note_on_c, 0, 74, 68
1, 43858, Note_on_c, 0, 74, 0
1, 43860, Note_on_c, 0, 73, 70
1, 43918, Note_on_c, 0, 73, 0
1, 43920, Note_on_c, 0, 76, 72
1, 43978, Note_on_c, 0, 76, 0
1, 43980, Note_on_c, 0, 74, 74
1, 44038, Note_on_c, 0, 74, 0
1, 44040, Note_on_c, 0, 78, 76
1, 44098, Note_on_c, 0, 78, 0
1, 44100, Note_on_c, 0, 76, 78
1, 44158, Note_on_c, 0, 76, 0
1, 44160, Note_on_c, 0, 73, 85
1, 44160, Note_on_c, 0, 76, 85
1, 44280, Note_on_c, 1, 58, 64
1, 44398, Note_on_c, 0, 76, 0
1, 44398, Note_on_c, 0, 73, 0
1, 44398, Note_on_c, 1, 58, 0
1, 44400, Note_on_c, 0, 71, 64
1, 44400, Note_on_c, 0, 74, 64
1, 44400, Note_on_c, 1, 59, 64
1, 44448, Note_on_c, 0, 74, 0
1, 44448, Note_on_c, 0, 71, 0
1, 44496, Note_on_c, 1, 59, 0
1, 44520, Note_on_c, 0, 71, 64
1, 44638, Note_on_c, 0, 71, 0
1, 44640, Note_on_c, 0, 76, 85
1, 44698, Note_on_c, 0, 76, 0
1, 44700, Note_on_c, 0, 75, 85
1, 44758, Note_on_c, 0, 75, 0
1, 44760, Note_on_c, 0, 78, 85
1, 44760, Note_on_c, 1, 59, 85
1, 44818, Note_on_c, 0, 78, 0
1, 44820, Note_on_c, 0, 76, 85
1, 44878, Note_on_c, 0, 76, 0
1, 44878, Note_on_c, 1, 59, 0
1, 44880, Note_on_c, 0, 79, 85
1, 44880, Note_on_c, 1, 64, 85
1, 44928, Note_on_c, 1, 64, 0
1, 44938, Note_on_c, 0, 79, 0
1, 44940, Note_on_c, 0, 78, 85
1, 44998, Note_on_c, 0, 78, 0
1, 45000, Note_on_c, 0, 81, 85
1, 45000, Note_on_c, 1, 66, 85
1, 45048, Note_on_c, 1, 66, 0
1, 45058, Note_on_c, 0, 81, 0
1, 45060, Note_on_c, 0, 79, 85
1, 45118, Note_on_c, 0, 79, 0
1, 45120, Note_on_c, 0, 83, 85
1, 45120, Note_on_c, 1, 67, 85
1, 45178, Note_on_c, 0, 83, 0
1, 45180, Note_on_c, 0, 81, 85
1, 45238, Note_on_c, 0, 81, 0
1, 45240, Note_on_c, 0, 79, 85
1, 45298, Note_on_c, 0, 79, 0
1, 45300, Note_on_c, 0, 78, 85
1, 45358, Note_on_c, 0, 78, 0
1, 45358, Note_on_c, 1, 67, 0
1, 45360, Note_on_c, 0, 76, 85
1, 45418, Note_on_c, 0, 76, 0
1, 45420, Note_on_c, 0, 74, 85
1, 45478, Note_on_c, 0, 74, 0
1, 45480, Note_on_c, 0, 73, 85
1, 45480, Note_on_c, 1, 52, 85
1, 45538, Note_on_c, 0, 73, 0
1, 45540, Note_on_c, 0, 71, 85
1, 45598, Note_on_c, 0, 71, 0
1, 45598, Note_on_c, 1, 52, 0
1, 45600, Note_on_c, 0, 73, 85
1, 45600, Note_on_c, 1, 57, 85
1, 45648, Note_on_c, 1, 57, 0
1, 45658, Note_on_c, 0, 73, 0
1, 45660, Note_on_c, 0, 71, 85
1, 45718, Note_on_c, 0, 71, 0
1, 45720, Note_on_c, 0, 74, 85
1, 45720, Note_on_c, 1, 59, 85
1, 45768, Note_on_c, 1, 59, 0
1, 45778, Note_on_c, 0, 74, 0
1, 45780, Note_on_c, 0, 73, 85
1, 45838, Note_on_c, 0, 73, 0
1, 45840, Note_on_c, 0, 76, 85
1, 45840, Note_on_c, 1, 61, 85
1, 45888, Note_on_c, 1, 61, 0
1, 45898, Note_on_c, 0, 76, 0
1, 45900, Note_on_c, 0, 74, 85
1, 45958, Note_on_c, 0, 74, 0
1, 45960, Note_on_c, 0, 78, 85
1, 45960, Note_on_c, 1, 62, 85
1, 46008, Note_on_c, 1, 62, 0
1, 46018, Note_on_c, 0, 78, 0
1, 46020, Note_on_c, 0, 76, 85
1, 46078, Note_on_c, 0, 76, 0
1, 46080, Note_on_c, 0, 79, 85
1, 46080, Note_on_c, 1, 64, 85
1, 46138, Note_on_c, 0, 79, 0
1, 46140, Note_on_c, 0, 78, 85
1, 46198, Note_on_c, 0, 78, 0
1, 46200, Note_on_c, 0, 76, 85
1, 46258, Note_on_c, 0, 76, 0
1, 46260, Note_on_c, 0, 74, 85
1, 46318, Note_on_c, 0, 74, 0
1, 46318, Note_on_c, 1, 64, 0
1, 46320, Note_on_c, 0, 73, 85
1, 46378, Note_on_c, 0, 73, 0
1, 46380, Note_on_c, 0, 71, 85
1, 46438, Note_on_c, 0, 71, 0
1, 46440, Note_on_c, 0, 69, 85
1, 46440, Note_on_c, 1, 45, 85
1, 46498, Note_on_c, 0, 69, 0
1, 46500, Note_on_c, 0, 67, 85
1, 46558, Note_on_c, 0, 67, 0
1, 46558, Note_on_c, 1, 45, 0
1, 46560, Note_on_c, 0, 66, 85
1, 46560, Note_on_c, 1, 50, 85
1, 46608, Note_on_c, 1, 50, 0
1, 46618, Note_on_c, 0, 66, 0
1, 46620, Note_on_c, 0, 64, 85
1, 46678, Note_on_c, 0, 64, 0
1, 46680, Note_on_c, 0, 67, 85
1, 46680, Note_on_c, 1, 52, 85
1, 46728, Note_on_c, 1, 52, 0
1, 46738, Note_on_c, 0, 67, 0
1, 46740, Note_on_c, 0, 66, 85
1, 46798, Note_on_c, 0, 66, 0
1, 46800, Note_on_c, 0, 69, 85
1, 46800, Note_on_c, 1, 54, 85
1, 46848, Note_on_c, 1, 54, 0
1, 46858, Note_on_c, 0, 69, 0
1, 46860, Note_on_c, 0, 67, 85
1, 46918, Note_on_c, 0, 67, 0
1, 46920, Note_on_c, 0, 71, 85
1, 46920, Note_on_c, 1, 55, 85
1, 46968, Note_on_c, 1, 55, 0
1, 46978, Note_on_c, 0, 71, 0
1, 46980, Note_on_c, 0, 69, 85
1, 47038, Note_on_c, 0, 69, 0
1, 47040, Note_on_c, 0, 72, 85
1, 47040, Note_on_c, 1, 57, 85
1, 47098, Note_on_c, 0, 72, 0
1, 47100, Note_on_c, 0, 71, 85
1, 47158, Note_on_c, 0, 71, 0
1, 47160, Note_on_c, 0, 69, 85
1, 47218, Note_on_c, 0, 69, 0
1, 47220, Note_on_c, 0, 67, 85
1, 47278, Note_on_c, 0, 67, 0
1, 47278, Note_on_c, 1, 57, 0
1, 47280, Note_on_c, 0, 66, 85
1, 47338, Note_on_c, 0, 66, 0
1, 47340, Note_on_c, 0, 64, 85
1, 47398, Note_on_c, 0, 64, 0
1, 47400, Note_on_c, 0, 62, 85
1, 47400, Note_on_c, 1, 50, 85
1, 47458, Note_on_c, 0, 62, 0
1, 47460, Note_on_c, 0, 60, 85
1, 47518, Note_on_c, 0, 60, 0
1, 47518, Note_on_c, 1, 50, 0
1, 47520, Note_on_c, 0, 59, 85
1, 47520, Note_on_c, 1, 55, 85
1, 47578, Note_on_c, 0, 59, 0
1, 47580, Note_on_c, 0, 71, 85
1, 47638, Note_on_c, 0, 71, 0
1, 47640, Note_on_c, 0, 70, 85
1, 47698, Note_on_c, 0, 70, 0
1, 47700, Note_on_c, 0, 71, 85
1, 47758, Note_on_c, 0, 71, 0
1, 47758, Note_on_c, 1, 55, 0
1, 47760, Note_on_c, 0, 69, 85
1, 47818, Note_on_c, 0, 69, 0
1, 47820, Note_on_c, 0, 67, 85
1, 47878, Note_on_c, 0, 67, 0
1, 47880, Note_on_c, 0, 66, 85
1, 47938, Note_on_c, 0, 66, 0
1, 47940, Note_on_c, 0, 64, 85
1, 47998, Note_on_c, 0, 64, 0
1, 48000, Note_on_c, 0, 63, 85
1, 48000, Note_on_c, 1, 43, 85
1, 48058, Note_on_c, 0, 63, 0
1, 48060, Note_on_c, 0, 64, 85
1, 48118, Note_on_c, 0, 64, 0
1, 48120, Note_on_c, 0, 66, 85
1, 48178, Note_on_c, 0, 66, 0
1, 48180, Note_on_c, 0, 64, 85
1, 48238, Note_on_c, 0, 64, 0
1, 48238, Note_on_c, 1, 43, 0
1, 48240, Note_on_c, 0, 67, 85
1, 48298, Note_on_c, 0, 67, 0
1, 48300, Note_on_c, 0, 66, 85
1, 48358, Note_on_c, 0, 66, 0
1, 48360, Note_on_c, 0, 64, 85
1, 48418, Note_on_c, 0, 64, 0
1, 48420, Note_on_c, 0, 62, 85
1, 48478, Note_on_c, 0, 62, 0
1, 48480, Note_on_c, 0, 62, 85
1, 48480, Note_on_c, 1, 45, 85
1, 48538, Note_on_c, 1, 45, 0
1, 48540, Note_on_c, 1, 47, 85
1, 48598, Note_on_c, 1, 47, 0
1, 48600, Note_on_c, 1, 49, 85
1, 48658, Note_on_c, 1, 49, 0
1, 48660, Note_on_c, 1, 50, 85
1, 48718, Note_on_c, 1, 50, 0
1, 48720, Note_on_c, 1, 52, 85
1, 48778, Note_on_c, 1, 52, 0
1, 48780, Note_on_c, 1, 54, 85
1, 48838, Note_on_c, 1, 54, 0
1, 48840, Note_on_c, 1, 55, 85
1, 48898, Note_on_c, 1, 55, 0
1, 48900, Note_on_c, 1, 54, 85
1, 48958, Note_on_c, 0, 62, 0
1, 48958, Note_on_c, 1, 54, 0
1, 48960, Note_on_c, 0, 61, 80
1, 48960, Note_on_c, 1, 55, 85
1, 49018, Note_on_c, 0, 61, 0
1, 49020, Note_on_c, 0, 57, 78
1, 49078, Note_on_c, 0, 57, 0
1, 49080, Note_on_c, 0, 64, 76
1, 49138, Note_on_c, 0, 64, 0
1, 49140, Note_on_c, 0, 61, 74
1, 49198, Note_on_c, 0, 61, 0
1, 49198, Note_on_c, 1, 55, 0
1, 49200, Note_on_c, 0, 67, 72
1, 49258, Note_on_c, 0, 67, 0
1, 49260, Note_on_c, 0, 64, 70
1, 49318, Note_on_c, 0, 64, 0
1, 49320, Note_on_c, 0, 73, 68
1, 49378, Note_on_c, 0, 73, 0
1, 49380, Note_on_c, 0, 67, 66
1, 49438, Note_on_c, 0, 67, 0
1, 49440, Note_on_c, 0, 76, 64
1, 49498, Note_on_c, 0, 76, 0
1, 49500, Note_on_c, 0, 73, 62
1, 49558, Note_on_c, 0, 73, 0
1, 49560, Note_on_c, 0, 79, 60
1, 49618, Note_on_c, 0, 79, 0
1, 49620, Note_on_c, 0, 76, 58
1, 49678, Note_on_c, 0, 76, 0
1, 49680, Note_on_c, 0, 83, 56
1, 49776, Note_on_c, 0, 83, 0
1, 50220, Note_on_c, 0, 82, 48
1, 50268, Note_on_c, 0, 82, 0
1, 50280, Note_on_c, 0, 83, 48
1, 50328, Note_on_c, 0, 83, 0
1, 50340, Note_on_c, 0, 82, 48
1, 50388, Note_on_c, 0, 82, 0
1, 50400, Note_on_c, 0, 83, 48
1, 50484, Note_on_c, 0, 83, 0
1, 50700, Note_on_c, 0, 82, 56
1, 50748, Note_on_c, 0, 82, 0
1, 50760, Note_on_c, 0, 83, 56
1, 50808, Note_on_c, 0, 83, 0
1, 50820, Note_on_c, 0, 82, 56
1, 50868, Note_on_c, 0, 82, 0
1, 50880, Note_on_c, 0, 83, 56
1, 51024, Note_on_c, 0, 83, 0
1, 51180, Note_on_c, 0, 82, 64
1, 51238, Note_on_c, 0, 82, 0
1, 51240, Note_on_c, 0, 83, 64
1, 51298, Note_on_c, 0, 83, 0
1, 51300, Note_on_c, 0, 82, 64
1, 51358, Note_on_c, 0, 82, 0
1, 51360, Note_on_c, 0, 83, 64
1, 51418, Note_on_c, 0, 83, 0
1, 51420, Note_on_c, 0, 85, 66
1, 51478, Note_on_c, 0, 85, 0
1, 51480, Note_on_c, 0, 86, 68
1, 51538, Note_on_c, 0, 86, 0
1, 51540, Note_on_c, 0, 85, 70
1, 51598, Note_on_c, 0, 85, 0
1, 51600, Note_on_c, 0, 83, 72
1, 51658, Note_on_c, 0, 83, 0
1, 51660, Note_on_c, 0, 81, 74
1, 51718, Note_on_c, 0, 81, 0
1, 51720, Note_on_c, 0, 79, 76
1, 51778, Note_on_c, 0, 79, 0
1, 51780, Note_on_c, 0, 78, 78
1, 51838, Note_on_c, 0, 78, 0
1, 51840, Note_on_c, 0, 79, 80
1, 51840, Note_on_c, 1, 71, 85
1, 51888, Note_on_c, 0, 79, 0
1, 51898, Note_on_c, 1, 71, 0
1, 51900, Note_on_c, 0, 81, 80
1, 51900, Note_on_c, 1, 73, 85
1, 51948, Note_on_c, 0, 81, 0
1, 51958, Note_on_c, 1, 73, 0
1, 51960, Note_on_c, 0, 83, 80
1, 51960, Note_on_c, 1, 74, 85
1, 52008, Note_on_c, 0, 83, 0
1, 52018, Note_on_c, 1, 74, 0
1, 52020, Note_on_c, 0, 81, 80
1, 52020, Note_on_c, 1, 73, 85
1, 52068, Note_on_c, 0, 81, 0
1, 52078, Note_on_c, 1, 73, 0
1, 52080, Note_on_c, 0, 79, 80
1, 52080, Note_on_c, 1, 71, 85
1, 52128, Note_on_c, 0, 79, 0
1, 52138, Note_on_c, 1, 71, 0
1, 52140, Note_on_c, 0, 78, 80
1, 52140, Note_on_c, 1, 69, 85
1, 52188, Note_on_c, 0, 78, 0
1, 52198, Note_on_c, 1, 69, 0
1, 52200, Note_on_c, 0, 76, 80
1, 52200, Note_on_c, 1, 67, 85
1, 52248, Note_on_c, 0, 76, 0
1, 52258, Note_on_c, 1, 67, 0
1, 52260, Note_on_c, 0, 75, 80
1, 52260, Note_on_c, 1, 66, 85
1, 52308, Note_on_c, 0, 75, 0
1, 52318, Note_on_c, 1, 66, 0
1, 52320, Note_on_c, 0, 76, 85
1, 52320, Note_on_c, 1, 67, 85
1, 52378, Note_on_c, 0, 76, 0
1, 52378, Note_on_c, 1, 67, 0
1, 52380, Note_on_c, 0, 78, 85
1, 52380, Note_on_c, 1, 69, 85
1, 52438, Note_on_c, 0, 78, 0
1, 52438, Note_on_c, 1, 69, 0
1, 52440, Note_on_c, 0, 79, 85
1, 52440, Note_on_c, 1, 71, 85
1, 52498, Note_on_c, 0, 79, 0
1, 52498, Note_on_c, 1, 71, 0
1, 52500, Note_on_c, 0, 78, 85
1, 52500, Note_on_c, 1, 69, 85
1, 52558, Note_on_c, 0, 78, 0
1, 52558, Note_on_c, 1, 69, 0
1, 52560, Note_on_c, 0, 76, 85
1, 52560, Note_on_c, 1, 67, 85
1, 52618, Note_on_c, 0, 76, 0
1, 52618, Note_on_c, 1, 67, 0
1, 52620, Note_on_c, 0, 74, 85
1, 52620, Note_on_c, 1, 66, 85
1, 52678, Note_on_c, 0, 74, 0
1, 52678, Note_on_c, 1, 66, 0
1, 52680, Note_on_c, 0, 73, 85
1, 52680, Note_on_c, 1, 64, 85
1, 52738, Note_on_c, 0, 73, 0
1, 52738, Note_on_c, 1, 64, 0
1, 52740, Note_on_c, 0, 71, 85
1, 52740, Note_on_c, 1, 62, 85
1, 52798, Note_on_c, 0, 71, 0
1, 52798, Note_on_c, 1, 62, 0
1, 52800, Note_on_c, 0, 69, 85
1, 52800, Note_on_c, 1, 61, 85
1, 52858, Note_on_c, 0, 69, 0
1, 52860, Note_on_c, 0, 71, 85
1, 52918, Note_on_c, 0, 71, 0
1, 52920, Note_on_c, 0, 68, 85
1, 52978, Note_on_c, 0, 68, 0
1, 52980, Note_on_c, 0, 71, 85
1, 53038, Note_on_c, 0, 71, 0
1, 53040, Note_on_c, 0, 69, 85
1, 53098, Note_on_c, 0, 69, 0
1, 53100, Note_on_c, 0, 71, 85
1, 53158, Note_on_c, 0, 71, 0
1, 53158, Note_on_c, 1, 61, 0
1, 53160, Note_on_c, 0, 68, 85
1, 53160, Note_on_c, 1, 62, 85
1, 53218, Note_on_c, 0, 68, 0
1, 53220, Note_on_c, 0, 71, 85
1, 53278, Note_on_c, 0, 71, 0
1, 53278, Note_on_c, 1, 62, 0
1, 53280, Note_on_c, 0, 69, 85
1, 53280, Note_on_c, 1, 61, 85
1, 53338, Note_on_c, 0, 69, 0
1, 53340, Note_on_c, 0, 71, 85
1, 53398, Note_on_c, 0, 71, 0
1, 53398, Note_on_c, 1, 61, 0
1, 53400, Note_on_c, 0, 68, 85
1, 53400, Note_on_c, 1, 62, 85
1, 53458, Note_on_c, 0, 68, 0
1, 53460, Note_on_c, 0, 71, 85
1, 53518, Note_on_c, 0, 71, 0
1, 53518, Note_on_c, 1, 62, 0
1, 53520, Note_on_c, 0, 69, 85
1, 53520, Note_on_c, 1, 61, 85
1, 53578, Note_on_c, 0, 69, 0
1, 53580, Note_on_c, 0, 71, 85
1, 53638, Note_on_c, 0, 71, 0
1, 53638, Note_on_c, 1, 61, 0
1, 53640, Note_on_c, 0, 66, 85
1, 53640, Note_on_c, 1, 63, 85
1, 53698, Note_on_c, 0, 66, 0
1, 53700, Note_on_c, 0, 69, 85
1, 53758, Note_on_c, 0, 69, 0
1, 53758, Note_on_c, 1, 63, 0
1, 53760, Note_on_c, 0, 67, 85
1, 53760, Note_on_c, 1, 57, 85
1, 53760, Note_on_c, 1, 64, 85
1, 53818, Note_on_c, 0, 67, 0
1, 53820, Note_on_c, 0, 69, 85
1, 53878, Note_on_c, 0, 69, 0
1, 53880, Note_on_c, 0, 66, 85
1, 53938, Note_on_c, 0, 66, 0
1, 53940, Note_on_c, 0, 69, 85
1, 53998, Note_on_c, 0, 69, 0
1, 54000, Note_on_c, 0, 67, 85
1, 54058, Note_on_c, 0, 67, 0
1, 54060, Note_on_c, 0, 69, 85
1, 54118, Note_on_c, 0, 69, 0
1, 54118, Note_on_c, 1, 64, 0
1, 54120, Note_on_c, 0, 66, 85
1, 54120, Note_on_c, 1, 63, 85
1, 54178, Note_on_c, 0, 66, 0
1, 54180, Note_on_c, 0, 69, 85
1, 54238, Note_on_c, 0, 69, 0
1, 54238, Note_on_c, 1, 63, 0
1, 54240, Note_on_c, 0, 67, 85
1, 54240, Note_on_c, 1, 64, 85
1, 54298, Note_on_c, 0, 67, 0
1, 54300, Note_on_c, 0, 69, 85
1, 54358, Note_on_c, 0, 69, 0
1, 54358, Note_on_c, 1, 64, 0
1, 54360, Note_on_c, 0, 66, 85
1, 54360, Note_on_c, 1, 63, 85
1, 54418, Note_on_c, 0, 66, 0
1, 54420, Note_on_c, 0, 69, 85
1, 54478, Note_on_c, 0, 69, 0
1, 54478, Note_on_c, 1, 63, 0
1, 54480, Note_on_c, 0, 67, 85
1, 54480, Note_on_c, 1, 64, 85
1, 54538, Note_on_c, 0, 67, 0
1, 54540, Note_on_c, 0, 69, 85
1, 54598, Note_on_c, 0, 69, 0
1, 54598, Note_on_c, 1, 64, 0
1, 54600, Note_on_c, 0, 66, 85
1, 54600, Note_on_c, 1, 63, 85
1, 54658, Note_on_c, 0, 66, 0
1, 54660, Note_on_c, 0, 69, 85
1, 54718, Note_on_c, 0, 69, 0
1, 54718, Note_on_c, 1, 63, 0
1, 54720, Note_on_c, 0, 67, 80
1, 54720, Note_on_c, 1, 64, 80
1, 54898, Note_on_c, 0, 67, 0
1, 54898, Note_on_c, 1, 64, 0
1, 54900, Note_on_c, 0, 66, 74
1, 54900, Note_on_c, 1, 63, 74
1, 54958, Note_on_c, 0, 66, 0
1, 54958, Note_on_c, 1, 63, 0
1, 54960, Note_on_c, 0, 67, 72
1, 54960, Note_on_c, 1, 64, 72
1, 55138, Note_on_c, 0, 67, 0
1, 55138, Note_on_c, 1, 64, 0
1, 55140, Note_on_c, 0, 66, 66
1, 55140, Note_on_c, 1, 63, 66
1, 55198, Note_on_c, 0, 66, 0
1, 55198, Note_on_c, 1, 63, 0
1, 55200, Note_on_c, 0, 67, 64
1, 55200, Note_on_c, 1, 64, 64
1, 55378, Note_on_c, 0, 67, 0
1, 55378, Note_on_c, 1, 64, 0
1, 55380, Note_on_c, 0, 66, 58
1, 55380, Note_on_c, 1, 63, 58
1, 55438, Note_on_c, 0, 66, 0
1, 55438, Note_on_c, 1, 63, 0
1, 55440, Note_on_c, 0, 67, 56
1, 55440, Note_on_c, 1, 64, 56
1, 55498, Note_on_c, 0, 67, 0
1, 55498, Note_on_c, 1, 64, 0
1, 55500, Note_on_c, 0, 66, 54
1, 55500, Note_on_c, 1, 63, 54
1, 55558, Note_on_c, 0, 66, 0
1, 55558, Note_on_c, 1, 63, 0
1, 55560, Note_on_c, 0, 67, 52
1, 55560, Note_on_c, 1, 64, 52
1, 55618, Note_on_c, 0, 67, 0
1, 55618, Note_on_c, 1, 64, 0
1, 55620, Note_on_c, 0, 66, 50
1, 55620, Note_on_c, 1, 63, 50
1, 55678, Note_on_c, 0, 66, 0
1, 55678, Note_on_c, 1, 63, 0
1, 55680, Note_on_c, 0, 67, 48
1, 55680, Note_on_c, 1, 64, 48
1, 55918, Note_on_c, 0, 67, 0
1, 55918, Note_on_c, 1, 64, 0
1, 55918, Note_on_c, 1, 57, 0
1, 56160, Tempo, 750000
1, 56160, Note_on_c, 1, 57, 48
1, 56190, Note_on_c, 1, 61, 48
1, 56220, Note_on_c, 1, 64, 48
1, 56250, Note_on_c, 1, 67, 48
1, 56280, Note_on_c, 0, 69, 48
1, 56310, Note_on_c, 0, 73, 48
1, 56340, Note_on_c, 0, 76, 48
1, 56370, Note_on_c, 0, 79, 48
1, 56398, Note_on_c, 0, 76, 0
1, 56592, Note_on_c, 0, 69, 0
1, 56592, Note_on_c, 0, 73, 0
1, 56592, Note_on_c, 0, 79, 0
1, 56640, Tempo, 571429
1, 56664, Note_on_c, 1, 67, 0
1, 56664, Note_on_c, 1, 57, 0
1, 56664, Note_on_c, 1, 61, 0
1, 56664, Note_on_c, 1, 64, 0
1, 57000, Note_on_c, 0, 57, 80
1, 57024, Note_on_c, 0, 57, 0
1, 57030, Note_on_c, 0, 62, 80
1, 57054, Note_on_c, 0, 62, 0
1, 57060, Note_on_c, 0, 66, 80
1, 57084, Note_on_c, 0, 66, 0
1, 57090, Note_on_c, 0, 69, 80
1, 57114, Note_on_c, 0, 69, 0
1, 57120, Note_on_c, 0, 66, 85
1, 57120, Note_on_c, 1, 50, 85
1, 57120, Note_on_c, 1, 38, 85
1, 57238, Note_on_c, 0, 66, 0
1, 57240, Note_on_c, 0, 62, 85
1, 57358, Note_on_c, 0, 62, 0
1, 57358, Note_on_c, 1, 38, 0
1, 57358, Note_on_c, 1, 50, 0
1, 57360, Note_on_c, 0, 74, 85
1, 57408, Note_on_c, 0, 74, 0
1, 57480, Note_on_c, 0, 69, 85
1, 57480, Note_on_c, 1, 66, 85
1, 57480, Note_on_c, 1, 62, 85
1, 57552, Note_on_c, 0, 69, 0
1, 57552, Note_on_c, 1, 62, 0
1, 57552, Note_on_c, 1, 66, 0
1, 57600, Note_on_c, 0, 71, 80
1, 57600, Note_on_c, 1, 67, 85
1, 57600, Note_on_c, 1, 62, 85
1, 57624, Note_on_c, 0, 71, 0
1, 57630, Note_on_c, 0, 73, 80
1, 57654, Note_on_c, 0, 73, 0
1, 57660, Note_on_c, 0, 71, 80
1, 57672, Note_on_c, 1, 62, 0
1, 57672, Note_on_c, 1, 67, 0
1, 57676, Note_on_c, 0, 71, 0
1, 57680, Note_on_c, 0, 73, 80
1, 57696, Note_on_c, 0, 73, 0
1, 57700, Note_on_c, 0, 71, 80
1, 57716, Note_on_c, 0, 71, 0
1, 57720, Note_on_c, 0, 69, 80
1, 57720, Note_on_c, 1, 62, 85
1, 57720, Note_on_c, 1, 66, 85
1, 57768, Note_on_c, 0, 69, 0
1, 57768, Note_on_c, 1, 66, 0
1, 57768, Note_on_c, 1, 62, 0
1, 57960, Note_on_c, 0, 57, 80
1, 57984, Note_on_c, 0, 57, 0
1, 57990, Note_on_c, 0, 62, 80
1, 58014, Note_on_c, 0, 62, 0
1, 58020, Note_on_c, 0, 66, 80
1, 58044, Note_on_c, 0, 66, 0
1, 58050, Note_on_c, 0, 69, 80
1, 58074, Note_on_c, 0, 69, 0
1, 58080, Note_on_c, 0, 66, 85
1, 58080, Note_on_c, 1, 50, 85
1, 58080, Note_on_c, 1, 38, 85
1, 58198, Note_on_c, 0, 66, 0
1, 58200, Note_on_c, 0, 62, 85
1, 58318, Note_on_c, 0, 62, 0
1, 58318, Note_on_c, 1, 38, 0
1, 58318, Note_on_c, 1, 50, 0
1, 58320, Note_on_c, 0, 81, 85
1, 58320, Note_on_c, 0, 78, 85
1, 58368, Note_on_c, 0, 78, 0
1, 58368, Note_on_c, 0, 81, 0
1, 58440, Note_on_c, 0, 78, 85
1, 58440, Note_on_c, 0, 74, 85
1, 58440, Note_on_c, 1, 62, 85
1, 58512, Note_on_c, 0, 74, 0
1, 58512, Note_on_c, 0, 78, 0
1, 58512, Note_on_c, 1, 62, 0
1, 58560, Note_on_c, 0, 79, 80
1, 58560, Note_on_c, 0, 76, 80
1, 58560, Note_on_c, 1, 57, 85
1, 58584, Note_on_c, 0, 79, 0
1, 58590, Note_on_c, 0, 81, 80
1, 58614, Note_on_c, 0, 81, 0
1, 58620, Note_on_c, 0, 79, 80
1, 58632, Note_on_c, 1, 57, 0
1, 58636, Note_on_c, 0, 79, 0
1, 58640, Note_on_c, 0, 81, 80
1, 58656, Note_on_c, 0, 81, 0
1, 58660, Note_on_c, 0, 79, 80
1, 58676, Note_on_c, 0, 79, 0
1, 58676, Note_on_c, 0, 76, 0
1, 58680, Note_on_c, 0, 78, 80
1, 58680, Note_on_c, 1, 62, 85
1, 58728, Note_on_c, 0, 78, 0
1, 58728, Note_on_c, 1, 62, 0
1, 58920, Note_on_c, 0, 74, 80
1, 58944, Note_on_c, 0, 74, 0
1, 58950, Note_on_c, 0, 78, 80
1, 58974, Note_on_c, 0, 78, 0
1, 58980, Note_on_c, 0, 81, 80
1, 59004, Note_on_c, 0, 81, 0
1, 59010, Note_on_c, 0, 86, 80
1, 59034, Note_on_c, 0, 86, 0
1, 59040, Note_on_c, 0, 72, 85
1, 59160, Note_on_c, 1, 62, 85
1, 59160, Note_on_c, 1, 54, 85
1, 59208, Note_on_c, 1, 54, 0
1, 59208, Note_on_c, 1, 62, 0
1, 59280, Note_on_c, 1, 62, 85
1, 59280, Note_on_c, 1, 54, 85
1, 59376, Note_on_c, 1, 54, 0
1, 59376, Note_on_c, 1, 62, 0
1, 59398, Note_on_c, 0, 72, 0
1, 59400, Note_on_c, 0, 84, 85
1, 59428, Note_on_c, 0, 84, 0
1, 59430, Note_on_c, 0, 81, 85
1, 59458, Note_on_c, 0, 81, 0
1, 59460, Note_on_c, 0, 78, 85
1, 59488, Note_on_c, 0, 78, 0
1, 59490, Note_on_c, 0, 72, 85
1, 59518, Note_on_c, 0, 72, 0
1, 59520, Note_on_c, 0, 71, 85
1, 59640, Note_on_c, 1, 62, 85
1, 59640, Note_on_c, 1, 55, 85
1, 59688, Note_on_c, 1, 55, 0
1, 59688, Note_on_c, 1, 62, 0
1, 59760, Note_on_c, 1, 62, 85
1, 59760, Note_on_c, 1, 55, 85
1, 59856, Note_on_c, 1, 55, 0
1, 59856, Note_on_c, 1, 62, 0
1, 59878, Note_on_c, 0, 71, 0
1, 59880, Note_on_c, 0, 71, 85
1, 59908, Note_on_c, 0, 71, 0
1, 59910, Note_on_c, 0, 74, 85
1, 59938, Note_on_c, 0, 74, 0
1, 59940, Note_on_c, 0, 79, 85
1, 59968, Note_on_c, 0, 79, 0
1, 59970, Note_on_c, 0, 83, 85
1, 59998, Note_on_c, 0, 83, 0
1, 60000, Note_on_c, 0, 81, 85
1, 60000, Note_on_c, 0, 78, 85
1, 60000, Note_on_c, 1, 57, 85
1, 60096, Note_on_c, 1, 57, 0
1, 60118, Note_on_c, 0, 78, 0
1, 60118, Note_on_c, 0, 81, 0
1, 60120, Note_on_c, 0, 78, 85
1, 60120, Note_on_c, 0, 74, 85
1, 60192, Note_on_c, 0, 74, 0
1, 60192, Note_on_c, 0, 78, 0
1, 60240, Note_on_c, 0, 79, 85
1, 60240, Note_on_c, 0, 76, 85
1, 60240, Note_on_c, 1, 45, 85
1, 60312, Note_on_c, 0, 76, 0
1, 60312, Note_on_c, 0, 79, 0
1, 60336, Note_on_c, 1, 45, 0
1, 60360, Note_on_c, 0, 76, 85
1, 60360, Note_on_c, 0, 73, 85
1, 60432, Note_on_c, 0, 73, 0
1, 60432, Note_on_c, 0, 76, 0
1, 60480, Note_on_c, 0, 76, 85
1, 60480, Note_on_c, 0, 73, 85
1, 60480, Note_on_c, 1, 50, 85
1, 60718, Note_on_c, 0, 73, 0
1, 60718, Note_on_c, 0, 76, 0
1, 60718, Note_on_c, 1, 50, 0
1, 60720, Note_on_c, 0, 78, 85
1, 60720, Note_on_c, 0, 74, 85
1, 60720, Note_on_c, 1, 38, 85
1, 60768, Note_on_c, 0, 74, 0
1, 60768, Note_on_c, 0, 78, 0
1, 60768, Note_on_c, 1, 38, 0
1, 60840, Note_on_c, 0, 74, 85
1, 60868, Note_on_c, 0, 74, 0
1, 60870, Note_on_c, 0, 78, 85
1, 60898, Note_on_c, 0, 78, 0
1, 60900, Note_on_c, 0, 81, 85
1, 60928, Note_on_c, 0, 81, 0
1, 60930, Note_on_c, 0, 86, 85
1, 60958, Note_on_c, 0, 86, 0
1, 60960, Note_on_c, 0, 72, 85
1, 61080, Note_on_c, 1, 62, 85
1, 61080, Note_on_c, 1, 54, 85
1, 61128, Note_on_c, 1, 54, 0
1, 61128, Note_on_c, 1, 62, 0
1, 61200, Note_on_c, 1, 62, 85
1, 61200, Note_on_c, 1, 54, 85
1, 61296, Note_on_c, 1, 54, 0
1, 61296, Note_on_c, 1, 62, 0
1, 61318, Note_on_c, 0, 72, 0
1, 61320, Note_on_c, 0, 84, 85
1, 61348, Note_on_c, 0, 84, 0
1, 61350, Note_on_c, 0, 81, 85
1, 61378, Note_on_c, 0, 81, 0
1, 61380, Note_on_c, 0, 78, 85
1, 61408, Note_on_c, 0, 78, 0
1, 61410, Note_on_c, 0, 72, 85
1, 61438, Note_on_c, 0, 72, 0
1, 61440, Note_on_c, 0, 71, 85
1, 61560, Note_on_c, 1, 62, 85
1, 61560, Note_on_c, 1, 55, 85
1, 61608, Note_on_c, 1, 55, 0
1, 61608, Note_on_c, 1, 62, 0
1, 61680, Note_on_c, 1, 62, 85
1, 61680, Note_on_c, 1, 55, 85
1, 61776, Note_on_c, 1, 55, 0
1, 61776, Note_on_c, 1, 62, 0
1, 61798, Note_on_c, 0, 71, 0
1, 61800, Note_on_c, 0, 83, 85
1, 61838, Note_on_c, 0, 83, 0
1, 61840, Note_on_c, 0, 85, 85
1, 61878, Note_on_c, 0, 85, 0
1, 61880, Note_on_c, 0, 86, 85
1, 61918, Note_on_c, 0, 86, 0
1, 61920, Note_on_c, 0, 85, 85
1, 61920, Note_on_c, 1, 57, 85
1, 61958, Note_on_c, 0, 85, 0
1, 61960, Note_on_c, 0, 83, 85
1, 61998, Note_on_c, 0, 83, 0
1, 62000, Note_on_c, 0, 81, 85
1, 62038, Note_on_c, 0, 81, 0
1, 62038, Note_on_c, 1, 57, 0
1, 62040, Note_on_c, 0, 79, 85
1, 62078, Note_on_c, 0, 79, 0
1, 62080, Note_on_c, 0, 78, 85
1, 62118, Note_on_c, 0, 78, 0
1, 62120, Note_on_c, 0, 76, 85
1, 62158, Note_on_c, 0, 76, 0
1, 62160, Note_on_c, 0, 74, 85
1, 62160, Note_on_c, 1, 45, 85
1, 62198, Note_on_c, 0, 74, 0
1, 62200, Note_on_c, 0, 73, 85
1, 62238, Note_on_c, 0, 73, 0
1, 62240, Note_on_c, 0, 71, 85
1, 62278, Note_on_c, 0, 71, 0
1, 62278, Note_on_c, 1, 45, 0
1, 62280, Note_on_c, 0, 69, 85
1, 62308, Note_on_c, 0, 69, 0
1, 62310, Note_on_c, 0, 67, 85
1, 62338, Note_on_c, 0, 67, 0
1, 62340, Note_on_c, 0, 66, 85
1, 62368, Note_on_c, 0, 66, 0
1, 62370, Note_on_c, 0, 64, 85
1, 62398, Note_on_c, 0, 64, 0
1, 62400, Note_on_c, 0, 62, 85
1, 62400, Note_on_c, 1, 38, 85
1, 62638, Note_on_c, 0, 62, 0
1, 62638, Note_on_c, 1, 38, 0
1, 62760, Note_on_c, 0, 57, 64
1, 62878, Note_on_c, 0, 57, 0
1, 62880, Note_on_c, 0, 62, 64
1, 62938, Note_on_c, 0, 62, 0
1, 62940, Note_on_c, 0, 61, 66
1, 62998, Note_on_c, 0, 61, 0
1, 63000, Note_on_c, 0, 64, 68
1, 63058, Note_on_c, 0, 64, 0
1, 63060, Note_on_c, 0, 62, 70
1, 63118, Note_on_c, 0, 62, 0
1, 63120, Note_on_c, 0, 66, 72
1, 63178, Note_on_c, 0, 66, 0
1, 63180, Note_on_c, 0, 64, 74
1, 63238, Note_on_c, 0, 64, 0
1, 63240, Note_on_c, 0, 67, 76
1, 63298, Note_on_c, 0, 67, 0
1, 63300, Note_on_c, 0, 66, 78
1, 63358, Note_on_c, 0, 66, 0
1, 63360, Note_on_c, 0, 62, 85
1, 63360, Note_on_c, 0, 66, 85
1, 63480, Note_on_c, 1, 56, 64
1, 63598, Note_on_c, 0, 66, 0
1, 63598, Note_on_c, 0, 62, 0
1, 63598, Note_on_c, 1, 56, 0
1, 63600, Note_on_c, 0, 61, 64
1, 63600, Note_on_c, 0, 64, 64
1, 63600, Note_on_c, 1, 57, 64
1, 63648, Note_on_c, 0, 64, 0
1, 63648, Note_on_c, 0, 61, 0
1, 63696, Note_on_c, 1, 57, 0
1, 63720, Note_on_c, 0, 57, 64
1, 63838, Note_on_c, 0, 57, 0
1, 63840, Note_on_c, 0, 64, 64
1, 63898, Note_on_c, 0, 64, 0
1, 63900, Note_on_c, 0, 63, 66
1, 63958, Note_on_c, 0, 63, 0
1, 63960, Note_on_c, 0, 66, 68
1, 64018, Note_on_c, 0, 66, 0
1, 64020, Note_on_c, 0, 64, 70
1, 64078, Note_on_c, 0, 64, 0
1, 64080, Note_on_c, 0, 67, 72
1, 64138, Note_on_c, 0, 67, 0
1, 64140, Note_on_c, 0, 66, 74
1, 64198, Note_on_c, 0, 66, 0
1, 64200, Note_on_c, 0, 69, 76
1, 64258, Note_on_c, 0, 69, 0
1, 64260, Note_on_c, 0, 67, 78
1, 64318, Note_on_c, 0, 67, 0
1, 64320, Note_on_c, 0, 64, 85
1, 64320, Note_on_c, 0, 67, 85
1, 64440, Note_on_c, 1, 58, 64
1, 64558, Note_on_c, 0, 67, 0
1, 64558, Note_on_c, 0, 64, 0
1, 64558, Note_on_c, 1, 58, 0
1, 64560, Note_on_c, 0, 62, 64
1, 64560, Note_on_c, 0, 66, 64
1, 64560, Note_on_c, 1, 59, 64
1, 64608, Note_on_c, 0, 66, 0
1, 64608, Note_on_c, 0, 62, 0
1, 64656, Note_on_c, 1, 59, 0
1, 64680, Note_on_c, 0, 62, 64
1, 64798, Note_on_c, 0, 62, 0
1, 64800, Note_on_c, 0, 67, 64
1, 64858, Note_on_c, 0, 67, 0
1, 64860, Note_on_c, 0, 66, 66
1, 64918, Note_on_c, 0, 66, 0
1, 64920, Note_on_c, 0, 69, 68
1, 64978, Note_on_c, 0, 69, 0
1, 64980, Note_on_c, 0, 67, 70
1, 65038, Note_on_c, 0, 67, 0
1, 65040, Note_on_c, 0, 71, 72
1, 65098, Note_on_c, 0, 71, 0
1, 65100, Note_on_c, 0, 69, 74
1, 65158, Note_on_c, 0, 69, 0
1, 65160, Note_on_c, 0, 72, 76
1, 65218, Note_on_c, 0, 72, 0
1, 65220, Note_on_c, 0, 71, 78
1, 65278, Note_on_c, 0, 71, 0
1, 65280, Note_on_c, 0, 71, 85
1, 65280, Note_on_c, 1, 55, 72
1, 65338, Note_on_c, 1, 55, 0
1, 65340, Note_on_c, 1, 62, 72
1, 65398, Note_on_c, 0, 71, 0
1, 65398, Note_on_c, 1, 62, 0
1, 65400, Note_on_c, 0, 71, 85
1, 65400, Note_on_c, 1, 55, 72
1, 65458, Note_on_c, 0, 71, 0
1, 65458, Note_on_c, 1, 55, 0
1, 65460, Note_on_c, 0, 74, 85
1, 65460, Note_on_c, 1, 62, 72
1, 65518, Note_on_c, 0, 74, 0
1, 65518, Note_on_c, 1, 62, 0
1, 65520, Note_on_c, 0, 69, 85
1, 65520, Note_on_c, 1, 54, 72
1, 65578, Note_on_c, 1, 54, 0
1, 65580, Note_on_c, 1, 62, 72
1, 65638, Note_on_c, 1, 62, 0
1, 65640, Note_on_c, 1, 54, 72
1, 65698, Note_on_c, 1, 54, 0
1, 65700, Note_on_c, 1, 62, 72
1, 65758, Note_on_c, 0, 69, 0
1, 65758, Note_on_c, 1, 62, 0
1, 65760, Note_on_c, 0, 67, 80
1, 65760, Note_on_c, 1, 59, 72
1, 65808, Note_on_c, 0, 67, 0
1, 65818, Note_on_c, 1, 59, 0
1, 65820, Note_on_c, 0, 69, 80
1, 65820, Note_on_c, 1, 62, 72
1, 65836, Note_on_c, 0, 69, 0
1, 65840, Note_on_c, 0, 67, 80
1, 65856, Note_on_c, 0, 67, 0
1, 65860, Note_on_c, 0, 66, 80
1, 65876, Note_on_c, 0, 66, 0
1, 65878, Note_on_c, 1, 62, 0
1, 65880, Note_on_c, 0, 67, 80
1, 65880, Note_on_c, 1, 59, 72
1, 65928, Note_on_c, 0, 67, 0
1, 65938, Note_on_c, 1, 59, 0
1, 65940, Note_on_c, 0, 71, 80
1, 65940, Note_on_c, 1, 62, 72
1, 65988, Note_on_c, 0, 71, 0
1, 65998, Note_on_c, 1, 62, 0
1, 66000, Note_on_c, 0, 66, 80
1, 66000, Note_on_c, 1, 57, 72
1, 66058, Note_on_c, 1, 57, 0
1, 66060, Note_on_c, 1, 62, 72
1, 66096, Note_on_c, 0, 66, 0
1, 66118, Note_on_c, 1, 62, 0
1, 66120, Note_on_c, 1, 57, 72
1, 66178, Note_on_c, 1, 57, 0
1, 66180, Note_on_c, 1, 62, 72
1, 66238, Note_on_c, 1, 62, 0
1, 66240, Note_on_c, 0, 71, 56
1, 66240, Note_on_c, 1, 55, 48
1, 66288, Note_on_c, 0, 71, 0
1, 66298, Note_on_c, 1, 55, 0
1, 66300, Note_on_c, 0, 73, 56
1, 66300, Note_on_c, 1, 62, 48
1, 66316, Note_on_c, 0, 73, 0
1, 66320, Note_on_c, 0, 71, 56
1, 66336, Note_on_c, 0, 71, 0
1, 66340, Note_on_c, 0, 69, 56
1, 66356, Note_on_c, 0, 69, 0
1, 66358, Note_on_c, 1, 62, 0
1, 66360, Note_on_c, 0, 71, 56
1, 66360, Note_on_c, 1, 55, 48
1, 66408, Note_on_c, 0, 71, 0
1, 66418, Note_on_c, 1, 55, 0
1, 66420, Note_on_c, 0, 74, 56
1, 66420, Note_on_c, 1, 62, 48
1, 66468, Note_on_c, 0, 74, 0
1, 66478, Note_on_c, 1, 62, 0
1, 66480, Note_on_c, 0, 69, 56
1, 66480, Note_on_c, 1, 54, 48
1, 66538, Note_on_c, 1, 54, 0
1, 66540, Note_on_c, 1, 62, 48
1, 66576, Note_on_c, 0, 69, 0
1, 66598, Note_on_c, 1, 62, 0
1, 66600, Note_on_c, 1, 54, 48
1, 66658, Note_on_c, 1, 54, 0
1, 66660, Note_on_c, 1, 62, 48
1, 66718, Note_on_c, 1, 62, 0
1, 66720, Note_on_c, 0, 67, 56
1, 66720, Note_on_c, 1, 59, 48
1, 66768, Note_on_c, 0, 67, 0
1, 66778, Note_on_c, 1, 59, 0
1, 66780, Note_on_c, 0, 69, 56
1, 66780, Note_on_c, 1, 62, 48
1, 66796, Note_on_c, 0, 69, 0
1, 66800, Note_on_c, 0, 67, 56
1, 66816, Note_on_c, 0, 67, 0
1, 66820, Note_on_c, 0, 66, 56
1, 66836, Note_on_c, 0, 66, 0
1, 66838, Note_on_c, 1, 62, 0
1, 66840, Note_on_c, 0, 67, 56
1, 66840, Note_on_c, 1, 59, 48
1, 66888, Note_on_c, 0, 67, 0
1, 66898, Note_on_c, 1, 59, 0
1, 66900, Note_on_c, 0, 71, 56
1, 66900, Note_on_c, 1, 62, 48
1, 66948, Note_on_c, 0, 71, 0
1, 66958, Note_on_c, 1, 62, 0
1, 66960, Note_on_c, 0, 66, 56
1, 66960, Note_on_c, 1, 57, 48
1, 67018, Note_on_c, 1, 57, 0
1, 67020, Note_on_c, 1, 62, 48
1, 67056, Note_on_c, 0, 66, 0
1, 67078, Note_on_c, 1, 62, 0
1, 67080, Note_on_c, 1, 57, 48
1, 67138, Note_on_c, 1, 57, 0
1, 67140, Note_on_c, 1, 62, 48
1, 67198, Note_on_c, 1, 62, 0
1, 67200, Note_on_c, 0, 63, 56
1, 67200, Note_on_c, 1, 55, 48
1, 67258, Note_on_c, 0, 63, 0
1, 67260, Note_on_c, 0, 64, 59
1, 67284, Note_on_c, 0, 64, 0
1, 67320, Note_on_c, 0, 66, 62
1, 67344, Note_on_c, 0, 66, 0
1, 67380, Note_on_c, 0, 67, 65
1, 67404, Note_on_c, 0, 67, 0
1, 67438, Note_on_c, 1, 55, 0
1, 67440, Note_on_c, 0, 69, 68
1, 67498, Note_on_c, 0, 69, 0
1, 67500, Note_on_c, 0, 71, 71
1, 67558, Note_on_c, 0, 71, 0
1, 67560, Note_on_c, 0, 67, 74
1, 67560, Note_on_c, 1, 43, 72
1, 67560, Note_on_c, 1, 55, 72
1, 67618, Note_on_c, 0, 67, 0
1, 67620, Note_on_c, 0, 64, 77
1, 67678, Note_on_c, 0, 64, 0
1, 67678, Note_on_c, 1, 55, 0
1, 67678, Note_on_c, 1, 43, 0
1, 67680, Note_on_c, 0, 62, 85
1, 67680, Note_on_c, 1, 45, 85
1, 67680, Note_on_c, 1, 54, 85
1, 68158, Note_on_c, 0, 62, 0
1, 68158, Note_on_c, 1, 54, 0
1, 68160, Note_on_c, 0, 61, 68
1, 68160, Note_on_c, 1, 52, 68
1, 68278, Note_on_c, 0, 61, 0
1, 68278, Note_on_c, 1, 52, 0
1, 68278, Note_on_c, 1, 45, 0
1, 68520, Note_on_c, 0, 57, 85
1, 68548, Note_on_c, 0, 57, 0
1, 68550, Note_on_c, 0, 61, 85
1, 68578, Note_on_c, 0, 61, 0
1, 68580, Note_on_c, 0, 64, 85
1, 68608, Note_on_c, 0, 64, 0
1, 68610, Note_on_c, 0, 67, 85
1, 68638, Note_on_c, 0, 67, 0
1, 68640, Note_on_c, 0, 64, 85
1, 68640, Note_on_c, 1, 45, 85
1, 68640, Note_on_c, 1, 49, 85
1, 68640, Note_on_c, 1, 52, 85
1, 68640, Note_on_c, 1, 55, 85
1, 68688, Note_on_c, 0, 64, 0
1, 68736, Note_on_c, 1, 55, 0
1, 68736, Note_on_c, 1, 45, 0
1, 68736, Note_on_c, 1, 49, 0
1, 68736, Note_on_c, 1, 52, 0
1, 68760, Note_on_c, 0, 64, 85
1, 68788, Note_on_c, 0, 64, 0
1, 68790, Note_on_c, 0, 67, 85
1, 68818, Note_on_c, 0, 67, 0
1, 68820, Note_on_c, 0, 73, 85
1, 68848, Note_on_c, 0, 73, 0
1, 68850, Note_on_c, 0, 76, 85
1, 68878, Note_on_c, 0, 76, 0
1, 68880, Note_on_c, 0, 73, 85
1, 68880, Note_on_c, 1, 45, 85
1, 68880, Note_on_c, 1, 49, 85
1, 68880, Note_on_c, 1, 52, 85
1, 68880, Note_on_c, 1, 55, 85
1, 68928, Note_on_c, 0, 73, 0
1, 68976, Note_on_c, 1, 55, 0
1, 68976, Note_on_c, 1, 45, 0
1, 68976, Note_on_c, 1, 49, 0
1, 68976, Note_on_c, 1, 52, 0
1, 69000, Note_on_c, 0, 67, 85
1, 69028, Note_on_c, 0, 67, 0
1, 69030, Note_on_c, 0, 73, 85
1, 69058, Note_on_c, 0, 73, 0
1, 69060, Note_on_c, 0, 76, 85
1, 69088, Note_on_c, 0, 76, 0
1, 69090, Note_on_c, 0, 79, 85
1, 69118, Note_on_c, 0, 79, 0
1, 69120, Note_on_c, 0, 76, 85
1, 69120, Note_on_c, 1, 45, 85
1, 69120, Note_on_c, 1, 49, 85
1, 69120, Note_on_c, 1, 52, 85
1, 69120, Note_on_c, 1, 55, 85
1, 69238, Note_on_c, 0, 76, 0
1, 69238, Note_on_c, 1, 55, 0
1, 69238, Note_on_c, 1, 45, 0
1, 69238, Note_on_c, 1, 49, 0
1, 69238, Note_on_c, 1, 52, 0
1, 69480, Note_on_c, 0, 67, 85
1, 69508, Note_on_c, 0, 67, 0
1, 69510, Note_on_c, 0, 64, 85
1, 69538, Note_on_c, 0, 64, 0
1, 69540, Note_on_c, 0, 61, 85
1, 69568, Note_on_c, 0, 61, 0
1, 69570, Note_on_c, 0, 57, 85
1, 69598, Note_on_c, 0, 57, 0
1, 69600, Note_on_c, 0, 55, 85
1, 69600, Note_on_c, 1, 45, 85
1, 69658, Note_on_c, 1, 45, 0
1, 69660, Note_on_c, 1, 52, 85
1, 69718, Note_on_c, 1, 52, 0
1, 69720, Note_on_c, 1, 50, 85
1, 69778, Note_on_c, 1, 50, 0
1, 69780, Note_on_c, 1, 52, 85
1, 69838, Note_on_c, 1, 52, 0
1, 69840, Note_on_c, 1, 49, 85
1, 69898, Note_on_c, 1, 49, 0
1, 69900, Note_on_c, 1, 52, 85
1, 69924, Note_on_c, 1, 52, 0
1, 69960, Note_on_c, 1, 45, 85
1, 69984, Note_on_c, 1, 45, 0
1, 70020, Note_on_c, 1, 49, 85
1, 70044, Note_on_c, 1, 49, 0
1, 70078, Note_on_c, 0, 55, 0
1, 70080, Note_on_c, 0, 54, 85
1, 70080, Note_on_c, 1, 50, 85
1, 70138, Note_on_c, 0, 54, 0
1, 70140, Note_on_c, 0, 62, 85
1, 70198, Note_on_c, 0, 62, 0
1, 70200, Note_on_c, 0, 61, 85
1, 70258, Note_on_c, 0, 61, 0
1, 70260, Note_on_c, 0, 62, 85
1, 70318, Note_on_c, 0, 62, 0
1, 70318, Note_on_c, 1, 50, 0
1, 70320, Note_on_c, 0, 64, 85
1, 70378, Note_on_c, 0, 64, 0
1, 70380, Note_on_c, 0, 62, 85
1, 70438, Note_on_c, 0, 62, 0
1, 70440, Note_on_c, 0, 61, 85
1, 70498, Note_on_c, 0, 61, 0
1, 70500, Note_on_c, 0, 62, 85
1, 70558, Note_on_c, 0, 62, 0
1, 70560, Note_on_c, 0, 60, 85
1, 70560, Note_on_c, 1, 50, 85
1, 70618, Note_on_c, 1, 50, 0
1, 70620, Note_on_c, 1, 57, 85
1, 70678, Note_on_c, 1, 57, 0
1, 70680, Note_on_c, 1, 55, 85
1, 70738, Note_on_c, 1, 55, 0
1, 70740, Note_on_c, 1, 57, 85
1, 70798, Note_on_c, 1, 57, 0
1, 70800, Note_on_c, 1, 54, 85
1, 70858, Note_on_c, 1, 54, 0
1, 70860, Note_on_c, 1, 57, 85
1, 70884, Note_on_c, 1, 57, 0
1, 70920, Note_on_c, 1, 50, 85
1, 70944, Note_on_c, 1, 50, 0
1, 70980, Note_on_c, 1, 54, 85
1, 71004, Note_on_c, 1, 54, 0
1, 71038, Note_on_c, 0, 60, 0
1, 71040, Note_on_c, 0, 59, 85
1, 71040, Note_on_c, 1, 55, 85
1, 71098, Note_on_c, 0, 59, 0
1, 71100, Note_on_c, 0, 64, 85
1, 71158, Note_on_c, 0, 64, 0
1, 71160, Note_on_c, 0, 63, 85
1, 71218, Note_on_c, 0, 63, 0
1, 71220, Note_on_c, 0, 64, 85
1, 71278, Note_on_c, 0, 64, 0
1, 71278, Note_on_c, 1, 55, 0
1, 71280, Note_on_c, 0, 66, 85
1, 71338, Note_on_c, 0, 66, 0
1, 71340, Note_on_c, 0, 64, 85
1, 71398, Note_on_c, 0, 64, 0
1, 71400, Note_on_c, 0, 63, 85
1, 71458, Note_on_c, 0, 63, 0
1, 71460, Note_on_c, 0, 64, 85
1, 71518, Note_on_c, 0, 64, 0
1, 71520, Note_on_c, 0, 62, 85
1, 71520, Note_on_c, 1, 52, 85
1, 71578, Note_on_c, 1, 52, 0
1, 71580, Note_on_c, 1, 59, 85
1, 71638, Note_on_c, 1, 59, 0
1, 71640, Note_on_c, 1, 57, 85
1, 71698, Note_on_c, 1, 57, 0
1, 71700, Note_on_c, 1, 59, 85
1, 71758, Note_on_c, 1, 59, 0
1, 71760, Note_on_c, 1, 56, 85
1, 71818, Note_on_c, 1, 56, 0
1, 71820, Note_on_c, 1, 59, 85
1, 71844, Note_on_c, 1, 59, 0
1, 71880, Note_on_c, 1, 52, 85
1, 71904, Note_on_c, 1, 52, 0
1, 71940, Note_on_c, 1, 56, 85
1, 71964, Note_on_c, 1, 56, 0
1, 71998, Note_on_c, 0, 62, 0
1, 72000, Note_on_c, 0, 61, 80
1, 72000, Note_on_c, 1, 57, 85
1, 72058, Note_on_c, 0, 61, 0
1, 72060, Note_on_c, 0, 69, 78
1, 72118, Note_on_c, 0, 69, 0
1, 72120, Note_on_c, 0, 68, 76
1, 72178, Note_on_c, 0, 68, 0
1, 72180, Note_on_c, 0, 69, 74
1, 72238, Note_on_c, 0, 69, 0
1, 72238, Note_on_c, 1, 57, 0
1, 72240, Note_on_c, 0, 71, 72
1, 72298, Note_on_c, 0, 71, 0
1, 72300, Note_on_c, 0, 69, 70
1, 72358, Note_on_c, 0, 69, 0
1, 72360, Note_on_c, 0, 68, 68
1, 72418, Note_on_c, 0, 68, 0
1, 72420, Note_on_c, 0, 69, 66
1, 72478, Note_on_c, 0, 69, 0
1, 72480, Note_on_c, 0, 68, 64
1, 72480, Note_on_c, 1, 59, 56
1, 72538, Note_on_c, 1, 59, 0
1, 72540, Note_on_c, 1, 65, 58
1, 72598, Note_on_c, 0, 68, 0
1, 72598, Note_on_c, 1, 65, 0
1, 72600, Note_on_c, 0, 74, 68
1, 72600, Note_on_c, 1, 59, 60
1, 72658, Note_on_c, 1, 59, 0
1, 72660, Note_on_c, 1, 65, 62
1, 72718, Note_on_c, 0, 74, 0
1, 72718, Note_on_c, 1, 65, 0
1, 72720, Note_on_c, 1, 59, 64
1, 72778, Note_on_c, 1, 59, 0
1, 72780, Note_on_c, 1, 65, 66
1, 72838, Note_on_c, 1, 65, 0
1, 72840, Note_on_c, 0, 68, 76
1, 72840, Note_on_c, 1, 59, 68
1, 72898, Note_on_c, 1, 59, 0
1, 72900, Note_on_c, 1, 65, 70
1, 72958, Note_on_c, 0, 68, 0
1, 72958, Note_on_c, 1, 65, 0
1, 72960, Note_on_c, 0, 69, 80
1, 72960, Note_on_c, 1, 61, 80
1, 73008, Note_on_c, 0, 69, 0
1, 73018, Note_on_c, 1, 61, 0
1, 73020, Note_on_c, 1, 64, 64
1, 73078, Note_on_c, 1, 64, 0
1, 73080, Note_on_c, 0, 69, 64
1, 73080, Note_on_c, 1, 61, 64
1, 73138, Note_on_c, 0, 69, 0
1, 73138, Note_on_c, 1, 61, 0
1, 73140, Note_on_c, 0, 76, 64
1, 73140, Note_on_c, 1, 64, 64
1, 73198, Note_on_c, 0, 76, 0
1, 73198, Note_on_c, 1, 64, 0
1, 73200, Note_on_c, 0, 69, 64
1, 73200, Note_on_c, 1, 61, 64
1, 73248, Note_on_c, 0, 69, 0
1, 73258, Note_on_c, 1, 61, 0
1, 73260, Note_on_c, 1, 64, 64
1, 73318, Note_on_c, 1, 64, 0
1, 73320, Note_on_c, 0, 69, 64
1, 73320, Note_on_c, 1, 61, 64
1, 73378, Note_on_c, 1, 61, 0
1, 73380, Note_on_c, 1, 64, 64
1, 73438, Note_on_c, 0, 69, 0
1, 73438, Note_on_c, 1, 64, 0
1, 73440, Note_on_c, 0, 68, 64
1, 73440, Note_on_c, 1, 59, 56
1, 73498, Note_on_c, 1, 59, 0
1, 73500, Note_on_c, 1, 65, 58
1, 73558, Note_on_c, 0, 68, 0
1, 73558, Note_on_c, 1, 65, 0
1, 73560, Note_on_c, 0, 74, 68
1, 73560, Note_on_c, 1, 59, 60
1, 73618, Note_on_c, 1, 59, 0
1, 73620, Note_on_c, 1, 65, 62
1, 73678, Note_on_c, 0, 74, 0
1, 73678, Note_on_c, 1, 65, 0
1, 73680, Note_on_c, 1, 59, 64
1, 73738, Note_on_c, 1, 59, 0
1, 73740, Note_on_c, 1, 65, 66
1, 73798, Note_on_c, 1, 65, 0
1, 73800, Note_on_c, 0, 68, 76
1, 73800, Note_on_c, 1, 59, 68
1, 73858, Note_on_c, 1, 59, 0
1, 73860, Note_on_c, 1, 65, 70
1, 73918, Note_on_c, 0, 68, 0
1, 73918, Note_on_c, 1, 65, 0
1, 73920, Note_on_c, 0, 69, 85
1, 73920, Note_on_c, 1, 61, 85
1, 73968, Note_on_c, 0, 69, 0
1, 73978, Note_on_c, 1, 61, 0
1, 73980, Note_on_c, 1, 64, 64
1, 74038, Note_on_c, 1, 64, 0
1, 74040, Note_on_c, 0, 69, 64
1, 74040, Note_on_c, 1, 61, 64
1, 74098, Note_on_c, 0, 69, 0
1, 74098, Note_on_c, 1, 61, 0
1, 74100, Note_on_c, 0, 76, 64
1, 74100, Note_on_c, 1, 64, 64
1, 74158, Note_on_c, 0, 76, 0
1, 74158, Note_on_c, 1, 64, 0
1, 74160, Note_on_c, 0, 69, 64
1, 74160, Note_on_c, 1, 61, 64
1, 74218, Note_on_c, 1, 61, 0
1, 74220, Note_on_c, 1, 64, 64
1, 74232, Note_on_c, 0, 69, 0
1, 74250, Note_on_c, 0, 67, 64
1, 74274, Note_on_c, 0, 67, 0
1, 74278, Note_on_c, 1, 64, 0
1, 74280, Note_on_c, 0, 69, 64
1, 74280, Note_on_c, 1, 61, 64
1, 74304, Note_on_c, 0, 69, 0
1, 74310, Note_on_c, 0, 67, 64
1, 74334, Note_on_c, 0, 67, 0
1, 74338, Note_on_c, 1, 61, 0
1, 74340, Note_on_c, 0, 66, 64
1, 74340, Note_on_c, 1, 64, 64
1, 74364, Note_on_c, 0, 66, 0
1, 74370, Note_on_c, 0, 67, 64
1, 74394, Note_on_c, 0, 67, 0
1, 74398, Note_on_c, 1, 64, 0
1, 74400, Note_on_c, 0, 66, 64
1, 74400, Note_on_c, 1, 62, 64
1, 74458, Note_on_c, 1, 62, 0
1, 74460, Note_on_c, 1, 66, 64
1, 74518, Note_on_c, 0, 66, 0
1, 74518, Note_on_c, 1, 66, 0
1, 74520, Note_on_c, 0, 81, 64
1, 74520, Note_on_c, 1, 62, 64
1, 74578, Note_on_c, 1, 62, 0
1, 74580, Note_on_c, 1, 66, 64
1, 74604, Note_on_c, 0, 81, 0
1, 74638, Note_on_c, 1, 66, 0
1, 74640, Note_on_c, 1, 62, 64
1, 74698, Note_on_c, 1, 62, 0
1, 74700, Note_on_c, 1, 66, 64
1, 74758, Note_on_c, 1, 66, 0
1, 74760, Note_on_c, 0, 74, 64
1, 74760, Note_on_c, 1, 62, 64
1, 74818, Note_on_c, 1, 62, 0
1, 74820, Note_on_c, 1, 66, 64
1, 74878, Note_on_c, 0, 74, 0
1, 74878, Note_on_c, 1, 66, 0
1, 74880, Note_on_c, 0, 73, 64
1, 74880, Note_on_c, 1, 64, 64
1, 74928, Note_on_c, 0, 73, 0
1, 74938, Note_on_c, 1, 64, 0
1, 74940, Note_on_c, 1, 67, 64
1, 74998, Note_on_c, 1, 67, 0
1, 75000, Note_on_c, 0, 73, 64
1, 75000, Note_on_c, 1, 64, 64
1, 75058, Note_on_c, 0, 73, 0
1, 75058, Note_on_c, 1, 64, 0
1, 75060, Note_on_c, 0, 81, 64
1, 75060, Note_on_c, 1, 67, 64
1, 75118, Note_on_c, 0, 81, 0
1, 75118, Note_on_c, 1, 67, 0
1, 75120, Note_on_c, 0, 73, 64
1, 75120, Note_on_c, 1, 64, 64
1, 75168, Note_on_c, 0, 73, 0
1, 75178, Note_on_c, 1, 64, 0
1, 75180, Note_on_c, 1, 67, 64
1, 75238, Note_on_c, 1, 67, 0
1, 75240, Note_on_c, 0, 73, 64
1, 75240, Note_on_c, 1, 64, 64
1, 75298, Note_on_c, 1, 64, 0
1, 75300, Note_on_c, 1, 67, 64
1, 75358, Note_on_c, 0, 73, 0
1, 75358, Note_on_c, 1, 67, 0
1, 75360, Note_on_c, 0, 74, 64
1, 75360, Note_on_c, 1, 66, 64
1, 75408, Note_on_c, 0, 74, 0
1, 75418, Note_on_c, 1, 66, 0
1, 75420, Note_on_c, 1, 69, 65
1, 75478, Note_on_c, 1, 69, 0
1, 75480, Note_on_c, 0, 74, 66
1, 75480, Note_on_c, 1, 66, 66
1, 75538, Note_on_c, 0, 74, 0
1, 75538, Note_on_c, 1, 66, 0
1, 75540, Note_on_c, 0, 81, 67
1, 75540, Note_on_c, 1, 69, 67
1, 75598, Note_on_c, 0, 81, 0
1, 75598, Note_on_c, 1, 69, 0
1, 75600, Note_on_c, 0, 74, 68
1, 75600, Note_on_c, 1, 66, 68
1, 75648, Note_on_c, 0, 74, 0
1, 75658, Note_on_c, 1, 66, 0
1, 75660, Note_on_c, 1, 69, 69
1, 75718, Note_on_c, 1, 69, 0
1, 75720, Note_on_c, 0, 74, 70
1, 75720, Note_on_c, 1, 66, 70
1, 75778, Note_on_c, 1, 66, 0
1, 75780, Note_on_c, 1, 69, 71
1, 75838, Note_on_c, 0, 74, 0
1, 75838, Note_on_c, 1, 69, 0
1, 75840, Note_on_c, 0, 76, 72
1, 75840, Note_on_c, 1, 61, 72
1, 75888, Note_on_c, 0, 76, 0
1, 75898, Note_on_c, 1, 61, 0
1, 75900, Note_on_c, 1, 69, 73
1, 75958, Note_on_c, 1, 69, 0
1, 75960, Note_on_c, 0, 76, 74
1, 75960, Note_on_c, 1, 61, 74
1, 76018, Note_on_c, 0, 76, 0
1, 76018, Note_on_c, 1, 61, 0
1, 76020, Note_on_c, 0, 81, 75
1, 76020, Note_on_c, 1, 69, 75
1, 76078, Note_on_c, 0, 81, 0
1, 76078, Note_on_c, 1, 69, 0
1, 76080, Note_on_c, 0, 76, 76
1, 76080, Note_on_c, 1, 61, 76
1, 76138, Note_on_c, 1, 61, 0
1, 76140, Note_on_c, 1, 69, 77
1, 76152, Note_on_c, 0, 76, 0
1, 76198, Note_on_c, 1, 69, 0
1, 76200, Note_on_c, 0, 79, 78
1, 76200, Note_on_c, 1, 61, 78
1, 76258, Note_on_c, 1, 61, 0
1, 76260, Note_on_c, 1, 69, 79
1, 76318, Note_on_c, 0, 79, 0
1, 76318, Note_on_c, 1, 69, 0
1, 76320, Note_on_c, 0, 78, 85
1, 76320, Note_on_c, 1, 62, 85
1, 76378, Note_on_c, 0, 78, 0
1, 76380, Note_on_c, 0, 79, 85
1, 76438, Note_on_c, 0, 79, 0
1, 76440, Note_on_c, 0, 81, 85
1, 76498, Note_on_c, 0, 81, 0
1, 76500, Note_on_c, 0, 78, 85
1, 76558, Note_on_c, 0, 78, 0
1, 76558, Note_on_c, 1, 62, 0
1, 76560, Note_on_c, 0, 76, 85
1, 76618, Note_on_c, 0, 76, 0
1, 76620, Note_on_c, 0, 74, 85
1, 76678, Note_on_c, 0, 74, 0
1, 76680, Note_on_c, 0, 73, 85
1, 76738, Note_on_c, 0, 73, 0
1, 76740, Note_on_c, 0, 71, 85
1, 76798, Note_on_c, 0, 71, 0
1, 76800, Note_on_c, 0, 69, 85
1, 76800, Note_on_c, 1, 61, 85
1, 76800, Note_on_c, 1, 64, 85
1, 76858, Note_on_c, 0, 69, 0
1, 76860, Note_on_c, 0, 68, 85
1, 76918, Note_on_c, 0, 68, 0
1, 76920, Note_on_c, 0, 69, 85
1, 76978, Note_on_c, 0, 69, 0
1, 76980, Note_on_c, 0, 71, 85
1, 77038, Note_on_c, 0, 71, 0
1, 77038, Note_on_c, 1, 64, 0
1, 77038, Note_on_c, 1, 61, 0
1, 77040, Note_on_c, 0, 69, 85
1, 77098, Note_on_c, 0, 69, 0
1, 77100, Note_on_c, 0, 67, 85
1, 77158, Note_on_c, 0, 67, 0
1, 77160, Note_on_c, 0, 66, 85
1, 77218, Note_on_c, 0, 66, 0
1, 77220, Note_on_c, 0, 64, 85
1, 77278, Note_on_c, 0, 64, 0
1, 77280, Note_on_c, 0, 66, 85
1, 77280, Note_on_c, 1, 50, 85
1, 77338, Note_on_c, 0, 66, 0
1, 77340, Note_on_c, 0, 67, 85
1, 77398, Note_on_c, 0, 67, 0
1, 77400, Note_on_c, 0, 69, 85
1, 77458, Note_on_c, 0, 69, 0
1, 77460, Note_on_c, 0, 66, 85
1, 77518, Note_on_c, 0, 66, 0
1, 77518, Note_on_c, 1, 50, 0
1, 77520, Note_on_c, 0, 64, 85
1, 77578, Note_on_c, 0, 64, 0
1, 77580, Note_on_c, 0, 62, 85
1, 77638, Note_on_c, 0, 62, 0
1, 77640, Note_on_c, 0, 61, 85
1, 77698, Note_on_c, 0, 61, 0
1, 77700, Note_on_c, 0, 59, 85
1, 77758, Note_on_c, 0, 59, 0
1, 77760, Note_on_c, 1, 57, 85
1, 77818, Note_on_c, 1, 57, 0
1, 77820, Note_on_c, 1, 56, 85
1, 77878, Note_on_c, 1, 56, 0
1, 77880, Note_on_c, 1, 57, 85
1, 77938, Note_on_c, 1, 57, 0
1, 77940, Note_on_c, 1, 59, 85
1, 77998, Note_on_c, 1, 59, 0
1, 78000, Note_on_c, 1, 57, 85
1, 78058, Note_on_c, 1, 57, 0
1, 78060, Note_on_c, 1, 55, 85
1, 78118, Note_on_c, 1, 55, 0
1, 78120, Note_on_c, 1, 54, 85
1, 78178, Note_on_c, 1, 54, 0
1, 78180, Note_on_c, 1, 52, 85
1, 78238, Note_on_c, 1, 52, 0
1, 78240, Note_on_c, 0, 78, 85
1, 78240, Note_on_c, 1, 50, 85
1, 78298, Note_on_c, 0, 78, 0
1, 78300, Note_on_c, 0, 79, 85
1, 78358, Note_on_c, 0, 79, 0
1, 78360, Note_on_c, 0, 81, 85
1, 78418, Note_on_c, 0, 81, 0
1, 78420, Note_on_c, 0, 78, 85
1, 78478, Note_on_c, 0, 78, 0
1, 78478, Note_on_c, 1, 50, 0
1, 78480, Note_on_c, 0, 76, 85
1, 78538, Note_on_c, 0, 76, 0
1, 78540, Note_on_c, 0, 74, 85
1, 78598, Note_on_c, 0, 74, 0
1, 78600, Note_on_c, 0, 73, 85
1, 78658, Note_on_c, 0, 73, 0
1, 78660, Note_on_c, 0, 74, 85
1, 78718, Note_on_c, 0, 74, 0
1, 78720, Note_on_c, 0, 83, 85
1, 78720, Note_on_c, 1, 67, 85
1, 78778, Note_on_c, 0, 83, 0
1, 78780, Note_on_c, 0, 85, 85
1, 78838, Note_on_c, 0, 85, 0
1, 78840, Note_on_c, 0, 86, 85
1, 78898, Note_on_c, 0, 86, 0
1, 78900, Note_on_c, 0, 83, 85
1, 78958, Note_on_c, 0, 83, 0
1, 78958, Note_on_c, 1, 67, 0
1, 78960, Note_on_c, 0, 81, 85
1, 79018, Note_on_c, 0, 81, 0
1, 79020, Note_on_c, 0, 79, 85
1, 79078, Note_on_c, 0, 79, 0
1, 79080, Note_on_c, 0, 78, 85
1, 79138, Note_on_c, 0, 78, 0
1, 79140, Note_on_c, 0, 76, 85
1, 79198, Note_on_c, 0, 76, 0
1, 79200, Note_on_c, 0, 75, 80
1, 79200, Note_on_c, 1, 55, 85
1, 79258, Note_on_c, 0, 75, 0
1, 79260, Note_on_c, 0, 76, 76
1, 79318, Note_on_c, 0, 76, 0
1, 79320, Note_on_c, 0, 78, 72
1, 79378, Note_on_c, 0, 78, 0
1, 79380, Note_on_c, 0, 76, 68
1, 79438, Note_on_c, 0, 76, 0
1, 79438, Note_on_c, 1, 55, 0
1, 79440, Note_on_c, 0, 79, 64
1, 79498, Note_on_c, 0, 79, 0
1, 79500, Note_on_c, 0, 78, 60
1, 79558, Note_on_c, 0, 78, 0
1, 79560, Note_on_c, 0, 81, 56
1, 79618, Note_on_c, 0, 81, 0
1, 79620, Note_on_c, 0, 79, 52
1, 79678, Note_on_c, 0, 79, 0
1, 79680, Note_on_c, 0, 83, 48
1, 79798, Note_on_c, 0, 83, 0
1, 79920, Note_on_c, 0, 81, 85
1, 79978, Note_on_c, 0, 81, 0
1, 79980, Note_on_c, 0, 79, 85
1, 80038, Note_on_c, 0, 79, 0
1, 80040, Note_on_c, 0, 78, 85
1, 80098, Note_on_c, 0, 78, 0
1, 80100, Note_on_c, 0, 76, 85
1, 80158, Note_on_c, 0, 76, 0
1, 80160, Note_on_c, 0, 74, 85
1, 80280, Note_on_c, 1, 62, 85
1, 80280, Note_on_c, 1, 54, 85
1, 80398, Note_on_c, 0, 74, 0
1, 80398, Note_on_c, 1, 54, 0
1, 80400, Note_on_c, 0, 76, 68
1, 80400, Note_on_c, 1, 55, 85
1, 80424, Note_on_c, 0, 76, 0
1, 80430, Note_on_c, 0, 78, 69
1, 80454, Note_on_c, 0, 78, 0
1, 80460, Note_on_c, 0, 76, 71
1, 80484, Note_on_c, 0, 76, 0
1, 80490, Note_on_c, 0, 78, 72
1, 80514, Note_on_c, 0, 78, 0
1, 80518, Note_on_c, 1, 55, 0
1, 80518, Note_on_c, 1, 62, 0
1, 80520, Note_on_c, 0, 76, 74
1, 80520, Note_on_c, 1, 57, 85
1, 80520, Note_on_c, 1, 61, 85
1, 80536, Note_on_c, 0, 76, 0
1, 80540, Note_on_c, 0, 78, 75
1, 80556, Note_on_c, 0, 78, 0
1, 80560, Note_on_c, 0, 76, 76
1, 80576, Note_on_c, 0, 76, 0
1, 80580, Note_on_c, 0, 74, 77
1, 80604, Note_on_c, 0, 74, 0
1, 80610, Note_on_c, 0, 76, 79
1, 80634, Note_on_c, 0, 76, 0
1, 80638, Note_on_c, 1, 61, 0
1, 80638, Note_on_c, 1, 57, 0
1, 80640, Note_on_c, 0, 78, 85
1, 80640, Note_on_c, 1, 62, 85
1, 80698, Note_on_c, 0, 78, 0
1, 80700, Note_on_c, 0, 79, 85
1, 80758, Note_on_c, 0, 79, 0
1, 80758, Note_on_c, 1, 62, 0
1, 80760, Note_on_c, 0, 81, 85
1, 80818, Note_on_c, 0, 81, 0
1, 80820, Note_on_c, 0, 78, 85
1, 80878, Note_on_c, 0, 78, 0
1, 80880, Note_on_c, 0, 76, 85
1, 80880, Note_on_c, 1, 66, 85
1, 80938, Note_on_c, 0, 76, 0
1, 80940, Note_on_c, 0, 74, 85
1, 80998, Note_on_c, 0, 74, 0
1, 80998, Note_on_c, 1, 66, 0
1, 81000, Note_on_c, 0, 73, 85
1, 81058, Note_on_c, 0, 73, 0
1, 81060, Note_on_c, 0, 74, 85
1, 81118, Note_on_c, 0, 74, 0
1, 81120, Note_on_c, 0, 83, 85
1, 81120, Note_on_c, 1, 67, 85
1, 81178, Note_on_c, 0, 83, 0
1, 81178, Note_on_c, 1, 67, 0
1, 81180, Note_on_c, 0, 85, 85
1, 81180, Note_on_c, 1, 69, 85
1, 81238, Note_on_c, 0, 85, 0
1, 81238, Note_on_c, 1, 69, 0
1, 81240, Note_on_c, 0, 86, 85
1, 81240, Note_on_c, 1, 71, 85
1, 81298, Note_on_c, 0, 86, 0
1, 81298, Note_on_c, 1, 71, 0
1, 81300, Note_on_c, 0, 85, 85
1, 81300, Note_on_c, 1, 69, 85
1, 81358, Note_on_c, 0, 85, 0
1, 81358, Note_on_c, 1, 69, 0
1, 81360, Note_on_c, 0, 83, 85
1, 81360, Note_on_c, 1, 67, 85
1, 81418, Note_on_c, 0, 83, 0
1, 81418, Note_on_c, 1, 67, 0
1, 81420, Note_on_c, 0, 81, 85
1, 81420, Note_on_c, 1, 66, 85
1, 81478, Note_on_c, 0, 81, 0
1, 81478, Note_on_c, 1, 66, 0
1, 81480, Note_on_c, 0, 79, 85
1, 81480, Note_on_c, 1, 64, 85
1, 81538, Note_on_c, 0, 79, 0
1, 81538, Note_on_c, 1, 64, 0
1, 81540, Note_on_c, 0, 78, 85
1, 81540, Note_on_c, 1, 62, 85
1, 81598, Note_on_c, 0, 78, 0
1, 81598, Note_on_c, 1, 62, 0
1, 81600, Note_on_c, 0, 76, 85
1, 81600, Note_on_c, 1, 61, 85
1, 81658, Note_on_c, 0, 76, 0
1, 81660, Note_on_c, 0, 78, 85
1, 81718, Note_on_c, 0, 78, 0
1, 81718, Note_on_c, 1, 61, 0
1, 81720, Note_on_c, 0, 79, 85
1, 81778, Note_on_c, 0, 79, 0
1, 81780, Note_on_c, 0, 76, 85
1, 81838, Note_on_c, 0, 76, 0
1, 81840, Note_on_c, 0, 74, 85
1, 81840, Note_on_c, 1, 64, 85
1, 81898, Note_on_c, 0, 74, 0
1, 81900, Note_on_c, 0, 73, 85
1, 81958, Note_on_c, 0, 73, 0
1, 81958, Note_on_c, 1, 64, 0
1, 81960, Note_on_c, 0, 71, 85
1, 82018, Note_on_c, 0, 71, 0
1, 82020, Note_on_c, 0, 73, 85
1, 82078, Note_on_c, 0, 73, 0
1, 82080, Note_on_c, 0, 81, 85
1, 82080, Note_on_c, 1, 66, 85
1, 82138, Note_on_c, 0, 81, 0
1, 82138, Note_on_c, 1, 66, 0
1, 82140, Note_on_c, 0, 83, 85
1, 82140, Note_on_c, 1, 67, 85
1, 82198, Note_on_c, 0, 83, 0
1, 82198, Note_on_c, 1, 67, 0
1, 82200, Note_on_c, 0, 85, 85
1, 82200, Note_on_c, 1, 69, 85
1, 82258, Note_on_c, 0, 85, 0
1, 82258, Note_on_c, 1, 69, 0
1, 82260, Note_on_c, 0, 83, 85
1, 82260, Note_on_c, 1, 67, 85
1, 82318, Note_on_c, 0, 83, 0
1, 82318, Note_on_c, 1, 67, 0
1, 82320, Note_on_c, 0, 81, 85
1, 82320, Note_on_c, 1, 66, 85
1, 82378, Note_on_c, 0, 81, 0
1, 82378, Note_on_c, 1, 66, 0
1, 82380, Note_on_c, 0, 79, 85
1, 82380, Note_on_c, 1, 64, 85
1, 82438, Note_on_c, 0, 79, 0
1, 82438, Note_on_c, 1, 64, 0
1, 82440, Note_on_c, 0, 78, 85
1, 82440, Note_on_c, 1, 62, 85
1, 82498, Note_on_c, 0, 78, 0
1, 82498, Note_on_c, 1, 62, 0
1, 82500, Note_on_c, 0, 76, 85
1, 82500, Note_on_c, 1, 61, 85
1, 82558, Note_on_c, 0, 76, 0
1, 82558, Note_on_c, 1, 61, 0
1, 82560, Note_on_c, 0, 74, 85
1, 82560, Note_on_c, 1, 59, 85
1, 82618, Note_on_c, 0, 74, 0
1, 82620, Note_on_c, 0, 76, 85
1, 82678, Note_on_c, 0, 76, 0
1, 82678, Note_on_c, 1, 59, 0
1, 82680, Note_on_c, 0, 78, 85
1, 82738, Note_on_c, 0, 78, 0
1, 82740, Note_on_c, 0, 74, 85
1, 82798, Note_on_c, 0, 74, 0
1, 82800, Note_on_c, 0, 73, 85
1, 82800, Note_on_c, 1, 62, 85
1, 82858, Note_on_c, 0, 73, 0
1, 82860, Note_on_c, 0, 71, 85
1, 82918, Note_on_c, 0, 71, 0
1, 82918, Note_on_c, 1, 62, 0
1, 82920, Note_on_c, 0, 70, 85
1, 82978, Note_on_c, 0, 70, 0
1, 82980, Note_on_c, 0, 71, 85
1, 83038, Note_on_c, 0, 71, 0
1, 83040, Note_on_c, 0, 79, 85
1, 83040, Note_on_c, 1, 64, 85
1, 83098, Note_on_c, 0, 79, 0
1, 83098, Note_on_c, 1, 64, 0
1, 83100, Note_on_c, 0, 81, 85
1, 83100, Note_on_c, 1, 66, 85
1, 83158, Note_on_c, 0, 81, 0
1, 83158, Note_on_c, 1, 66, 0
1, 83160, Note_on_c, 0, 83, 85
1, 83160, Note_on_c, 1, 67, 85
1, 83218, Note_on_c, 0, 83, 0
1, 83218, Note_on_c, 1, 67, 0
1, 83220, Note_on_c, 0, 81, 85
1, 83220, Note_on_c, 1, 66, 85
1, 83278, Note_on_c, 0, 81, 0
1, 83278, Note_on_c, 1, 66, 0
1, 83280, Note_on_c, 0, 79, 85
1, 83280, Note_on_c, 1, 64, 85
1, 83338, Note_on_c, 0, 79, 0
1, 83338, Note_on_c, 1, 64, 0
1, 83340, Note_on_c, 0, 78, 85
1, 83340, Note_on_c, 1, 62, 85
1, 83398, Note_on_c, 0, 78, 0
1, 83398, Note_on_c, 1, 62, 0
1, 83400, Note_on_c, 0, 76, 85
1, 83400, Note_on_c, 1, 61, 85
1, 83458, Note_on_c, 0, 76, 0
1, 83458, Note_on_c, 1, 61, 0
1, 83460, Note_on_c, 0, 74, 85
1, 83460, Note_on_c, 1, 59, 85
1, 83518, Note_on_c, 0, 74, 0
1, 83518, Note_on_c, 1, 59, 0
1, 83520, Note_on_c, 0, 73, 85
1, 83520, Note_on_c, 1, 57, 85
1, 83578, Note_on_c, 0, 73, 0
1, 83580, Note_on_c, 0, 74, 85
1, 83638, Note_on_c, 0, 74, 0
1, 83638, Note_on_c, 1, 57, 0
1, 83640, Note_on_c, 0, 76, 85
1, 83698, Note_on_c, 0, 76, 0
1, 83700, Note_on_c, 0, 74, 85
1, 83758, Note_on_c, 0, 74, 0
1, 83760, Note_on_c, 0, 73, 85
1, 83760, Note_on_c, 1, 61, 85
1, 83818, Note_on_c, 0, 73, 0
1, 83820, Note_on_c, 0, 71, 85
1, 83878, Note_on_c, 0, 71, 0
1, 83878, Note_on_c, 1, 61, 0
1, 83880, Note_on_c, 0, 69, 85
1, 83938, Note_on_c, 0, 69, 0
1, 83940, Note_on_c, 0, 67, 85
1, 83998, Note_on_c, 0, 67, 0
1, 84000, Note_on_c, 0, 66, 85
1, 84000, Note_on_c, 1, 62, 85
1, 84058, Note_on_c, 0, 66, 0
1, 84060, Note_on_c, 0, 67, 85
1, 84118, Note_on_c, 0, 67, 0
1, 84120, Note_on_c, 0, 69, 85
1, 84178, Note_on_c, 0, 69, 0
1, 84180, Note_on_c, 0, 66, 85
1, 84238, Note_on_c, 0, 66, 0
1, 84238, Note_on_c, 1, 62, 0
1, 84240, Note_on_c, 0, 64, 85
1, 84298, Note_on_c, 0, 64, 0
1, 84300, Note_on_c, 0, 62, 85
1, 84358, Note_on_c, 0, 62, 0
1, 84360, Note_on_c, 0, 61, 85
1, 84418, Note_on_c, 0, 61, 0
1, 84420, Note_on_c, 0, 62, 85
1, 84478, Note_on_c, 0, 62, 0
1, 84480, Note_on_c, 0, 71, 85
1, 84480, Note_on_c, 1, 55, 85
1, 84538, Note_on_c, 0, 71, 0
1, 84540, Note_on_c, 0, 73, 85
1, 84598, Note_on_c, 0, 73, 0
1, 84600, Note_on_c, 0, 74, 85
1, 84658, Note_on_c, 0, 74, 0
1, 84660, Note_on_c, 0, 71, 85
1, 84718, Note_on_c, 0, 71, 0
1, 84718, Note_on_c, 1, 55, 0
1, 84720, Note_on_c, 0, 69, 85
1, 84778, Note_on_c, 0, 69, 0
1, 84780, Note_on_c, 0, 67, 85
1, 84838, Note_on_c, 0, 67, 0
1, 84840, Note_on_c, 0, 66, 85
1, 84898, Note_on_c, 0, 66, 0
1, 84900, Note_on_c, 0, 64, 85
1, 84958, Note_on_c, 0, 64, 0
1, 84960, Note_on_c, 0, 63, 80
1, 84960, Note_on_c, 1, 43, 85
1, 85018, Note_on_c, 0, 63, 0
1, 85020, Note_on_c, 0, 64, 76
1, 85078, Note_on_c, 0, 64, 0
1, 85080, Note_on_c, 0, 66, 72
1, 85138, Note_on_c, 0, 66, 0
1, 85140, Note_on_c, 0, 64, 68
1, 85198, Note_on_c, 0, 64, 0
1, 85198, Note_on_c, 1, 43, 0
1, 85200, Note_on_c, 0, 67, 64
1, 85258, Note_on_c, 0, 67, 0
1, 85260, Note_on_c, 0, 66, 60
1, 85318, Note_on_c, 0, 66, 0
1, 85320, Note_on_c, 0, 69, 56
1, 85378, Note_on_c, 0, 69, 0
1, 85380, Note_on_c, 0, 67, 52
1, 85438, Note_on_c, 0, 67, 0
1, 85440, Note_on_c, 0, 71, 48
1, 85558, Note_on_c, 0, 71, 0
1, 85680, Note_on_c, 0, 79, 48
1, 85738, Note_on_c, 0, 79, 0
1, 85740, Note_on_c, 0, 78, 48
1, 85798, Note_on_c, 0, 78, 0
1, 85800, Note_on_c, 0, 81, 48
1, 85858, Note_on_c, 0, 81, 0
1, 85860, Note_on_c, 0, 79, 48
1, 85918, Note_on_c, 0, 79, 0
1, 85920, Note_on_c, 0, 83, 48
1, 86038, Note_on_c, 0, 83, 0
1, 86400, Tempo, 1250000
1, 86400, Note_on_c, 0, 55, 32
1, 86458, Note_on_c, 0, 55, 0
1, 86460, Note_on_c, 0, 54, 32
1, 86518, Note_on_c, 0, 54, 0
1, 86520, Note_on_c, 0, 57, 32
1, 86578, Note_on_c, 0, 57, 0
1, 86580, Note_on_c, 0, 55, 32
1, 86638, Note_on_c, 0, 55, 0
1, 86640, Note_on_c, 0, 59, 32
1, 86880, Tempo, 571429
1, 87072, Note_on_c, 0, 59, 0
1, 87210, Note_on_c, 0, 63, 80
1, 87234, Note_on_c, 0, 63, 0
1, 87240, Note_on_c, 0, 75, 80
1, 87312, Note_on_c, 0, 75, 0
1, 87330, Note_on_c, 0, 64, 80
1, 87354, Note_on_c, 0, 64, 0
1, 87360, Note_on_c, 0, 76, 80
1, 87432, Note_on_c, 0, 76, 0
1, 87450, Note_on_c, 0, 66, 80
1, 87474, Note_on_c, 0, 66, 0
1, 87480, Note_on_c, 0, 78, 80
1, 87552, Note_on_c, 0, 78, 0
1, 87570, Note_on_c, 0, 67, 80
1, 87594, Note_on_c, 0, 67, 0
1, 87600, Note_on_c, 0, 79, 80
1, 87672, Note_on_c, 0, 79, 0
1, 87690, Note_on_c, 0, 70, 80
1, 87714, Note_on_c, 0, 70, 0
1, 87720, Note_on_c, 0, 82, 80
1, 87792, Note_on_c, 0, 82, 0
1, 87810, Note_on_c, 0, 71, 80
1, 87834, Note_on_c, 0, 71, 0
1, 87840, Note_on_c, 0, 83, 80
1, 87912, Note_on_c, 0, 83, 0
1, 87930, Note_on_c, 0, 73, 80
1, 87954, Note_on_c, 0, 73, 0
1, 87960, Note_on_c, 0, 85, 80
1, 88032, Note_on_c, 0, 85, 0
1, 88050, Note_on_c, 0, 74, 80
1, 88074, Note_on_c, 0, 74, 0
1, 88080, Note_on_c, 0, 86, 80
1, 88152, Note_on_c, 0, 86, 0
1, 88170, Note_on_c, 0, 68, 80
1, 88194, Note_on_c, 0, 68, 0
1, 88200, Note_on_c, 0, 80, 80
1, 88272, Note_on_c, 0, 80, 0
1, 88290, Note_on_c, 0, 69, 80
1, 88314, Note_on_c, 0, 69, 0
1, 88320, Note_on_c, 0, 81, 85
1, 88320, Note_on_c, 1, 57, 64
1, 88320, Note_on_c, 1, 62, 64
1, 88320, Note_on_c, 1, 66, 64
1, 88368, Note_on_c, 1, 66, 0
1, 88368, Note_on_c, 1, 62, 0
1, 88368, Note_on_c, 1, 57, 0
1, 88440, Note_on_c, 1, 57, 64
1, 88440, Note_on_c, 1, 62, 64
1, 88440, Note_on_c, 1, 66, 64
1, 88488, Note_on_c, 1, 66, 0
1, 88488, Note_on_c, 1, 62, 0
1, 88488, Note_on_c, 1, 57, 0
1, 88560, Note_on_c, 1, 57, 64
1, 88560, Note_on_c, 1, 62, 64
1, 88560, Note_on_c, 1, 66, 64
1, 88608, Note_on_c, 1, 66, 0
1, 88608, Note_on_c, 1, 62, 0
1, 88608, Note_on_c, 1, 57, 0
1, 88678, Note_on_c, 0, 81, 0
1, 88680, Note_on_c, 0, 79, 85
1, 88680, Note_on_c, 1, 57, 64
1, 88680, Note_on_c, 1, 62, 64
1, 88680, Note_on_c, 1, 66, 64
1, 88708, Note_on_c, 0, 79, 0
1, 88710, Note_on_c, 0, 78, 85
1, 88738, Note_on_c, 0, 78, 0
1, 88740, Note_on_c, 0, 76, 85
1, 88768, Note_on_c, 0, 76, 0
1, 88770, Note_on_c, 0, 74, 85
1, 88798, Note_on_c, 0, 74, 0
1, 88798, Note_on_c, 1, 66, 0
1, 88798, Note_on_c, 1, 62, 0
1, 88798, Note_on_c, 1, 57, 0
1, 88800, Note_on_c, 0, 76, 64
1, 88800, Note_on_c, 1, 57, 64
1, 88800, Note_on_c, 1, 61, 64
1, 88824, Note_on_c, 0, 76, 0
1, 88830, Note_on_c, 0, 78, 65
1, 88848, Note_on_c, 1, 61, 0
1, 88848, Note_on_c, 1, 57, 0
1, 88854, Note_on_c, 0, 78, 0
1, 88860, Note_on_c, 0, 76, 66
1, 88884, Note_on_c, 0, 76, 0
1, 88890, Note_on_c, 0, 78, 67
1, 88914, Note_on_c, 0, 78, 0
1, 88920, Note_on_c, 0, 76, 68
1, 88920, Note_on_c, 1, 57, 68
1, 88920, Note_on_c, 1, 61, 68
1, 88944, Note_on_c, 0, 76, 0
1, 88950, Note_on_c, 0, 78, 69
1, 88968, Note_on_c, 1, 61, 0
1, 88968, Note_on_c, 1, 57, 0
1, 88974, Note_on_c, 0, 78, 0
1, 88980, Note_on_c, 0, 76, 70
1, 89004, Note_on_c, 0, 76, 0
1, 89010, Note_on_c, 0, 78, 71
1, 89034, Note_on_c, 0, 78, 0
1, 89040, Note_on_c, 0, 76, 72
1, 89040, Note_on_c, 1, 57, 72
1, 89040, Note_on_c, 1, 61, 72
1, 89064, Note_on_c, 0, 76, 0
1, 89070, Note_on_c, 0, 78, 73
1, 89088, Note_on_c, 1, 61, 0
1, 89088, Note_on_c, 1, 57, 0
1, 89094, Note_on_c, 0, 78, 0
1, 89100, Note_on_c, 0, 76, 74
1, 89124, Note_on_c, 0, 76, 0
1, 89130, Note_on_c, 0, 78, 75
1, 89154, Note_on_c, 0, 78, 0
1, 89160, Note_on_c, 0, 76, 76
1, 89160, Note_on_c, 1, 57, 76
1, 89160, Note_on_c, 1, 61, 76
1, 89176, Note_on_c, 0, 76, 0
1, 89180, Note_on_c, 0, 78, 77
1, 89196, Note_on_c, 0, 78, 0
1, 89200, Note_on_c, 0, 76, 77
1, 89216, Note_on_c, 0, 76, 0
1, 89220, Note_on_c, 0, 74, 78
1, 89244, Note_on_c, 0, 74, 0
1, 89250, Note_on_c, 0, 76, 79
1, 89274, Note_on_c, 0, 76, 0
1, 89278, Note_on_c, 1, 61, 0
1, 89278, Note_on_c, 1, 57, 0
1, 89280, Note_on_c, 0, 74, 85
1, 89280, Note_on_c, 1, 50, 85
1, 89338, Note_on_c, 1, 50, 0
1, 89340, Note_on_c, 1, 62, 85
1, 89398, Note_on_c, 1, 62, 0
1, 89400, Note_on_c, 1, 61, 85
1, 89458, Note_on_c, 1, 61, 0
1, 89460, Note_on_c, 1, 62, 85
1, 89518, Note_on_c, 0, 74, 0
1, 89518, Note_on_c, 1, 62, 0
1, 89520, Note_on_c, 1, 54, 85
1, 89578, Note_on_c, 1, 54, 0
1, 89580, Note_on_c, 1, 62, 85
1, 89638, Note_on_c, 1, 62, 0
1, 89640, Note_on_c, 0, 69, 85
1, 89640, Note_on_c, 1, 61, 85
1, 89698, Note_on_c, 1, 61, 0
1, 89700, Note_on_c, 1, 62, 85
1, 89758, Note_on_c, 0, 69, 0
1, 89758, Note_on_c, 1, 62, 0
1, 89760, Note_on_c, 0, 71, 80
1, 89760, Note_on_c, 1, 55, 85
1, 89792, Note_on_c, 0, 71, 0
1, 89800, Note_on_c, 0, 73, 80
1, 89818, Note_on_c, 1, 55, 0
1, 89820, Note_on_c, 1, 62, 85
1, 89832, Note_on_c, 0, 73, 0
1, 89840, Note_on_c, 0, 71, 80
1, 89872, Note_on_c, 0, 71, 0
1, 89878, Note_on_c, 1, 62, 0
1, 89880, Note_on_c, 0, 69, 80
1, 89880, Note_on_c, 1, 54, 85
1, 89928, Note_on_c, 0, 69, 0
1, 89938, Note_on_c, 1, 54, 0
1, 89940, Note_on_c, 1, 62, 85
1, 89998, Note_on_c, 1, 62, 0
1, 90000, Note_on_c, 0, 71, 80
1, 90000, Note_on_c, 1, 55, 85
1, 90032, Note_on_c, 0, 71, 0
1, 90040, Note_on_c, 0, 73, 80
1, 90058, Note_on_c, 1, 55, 0
1, 90060, Note_on_c, 1, 62, 85
1, 90072, Note_on_c, 0, 73, 0
1, 90080, Note_on_c, 0, 71, 80
1, 90112, Note_on_c, 0, 71, 0
1, 90118, Note_on_c, 1, 62, 0
1, 90120, Note_on_c, 0, 69, 80
1, 90120, Note_on_c, 1, 54, 85
1, 90177, Note_on_c, 0, 69, 0
1, 90178, Note_on_c, 1, 54, 0
1, 90180, Note_on_c, 0, 69, 88
1, 90180, Note_on_c, 1, 62, 85
1, 90200, Note_on_c, 0, 73, 88
1, 90220, Note_on_c, 0, 76, 88
1, 90238, Note_on_c, 1, 62, 0
1, 90240, Note_on_c, 0, 79, 88
1, 90240, Note_on_c, 1, 52, 88
1, 90240, Note_on_c, 1, 61, 88
1, 90478, Note_on_c, 0, 79, 0
1, 90478, Note_on_c, 0, 69, 0
1, 90478, Note_on_c, 0, 73, 0
1, 90478, Note_on_c, 0, 76, 0
1, 90478, Note_on_c, 1, 61, 0
1, 90478, Note_on_c, 1, 52, 0
1, 90600, Note_on_c, 0, 78, 85
1, 90600, Note_on_c, 1, 50, 85
1, 90600, Note_on_c, 1, 62, 85
1, 90660, Note_on_c, 0, 78, 0
1, 90660, Note_on_c, 1, 62, 0
1, 90660, Note_on_c, 1, 50, 0
1, 90720, Note_on_c, 0, 76, 80
1, 90720, Note_on_c, 1, 55, 85
1, 90720, Note_on_c, 1, 59, 85
1, 90752, Note_on_c, 0, 76, 0
1, 90760, Note_on_c, 0, 78, 80
1, 90792, Note_on_c, 0, 78, 0
1, 90800, Note_on_c, 0, 76, 80
1, 90832, Note_on_c, 0, 76, 0
1, 90838, Note_on_c, 1, 59, 0
1, 90838, Note_on_c, 1, 55, 0
1, 90840, Note_on_c, 0, 79, 80
1, 90936, Note_on_c, 0, 79, 0
1, 90960, Note_on_c, 0, 69, 80
1, 90960, Note_on_c, 1, 45, 85
1, 90960, Note_on_c, 1, 57, 85
1, 90992, Note_on_c, 0, 69, 0
1, 91000, Note_on_c, 0, 71, 80
1, 91032, Note_on_c, 0, 71, 0
1, 91040, Note_on_c, 0, 69, 80
1, 91072, Note_on_c, 0, 69, 0
1, 91078, Note_on_c, 1, 57, 0
1, 91078, Note_on_c, 1, 45, 0
1, 91080, Note_on_c, 0, 67, 80
1, 91080, Note_on_c, 0, 73, 80
1, 91176, Note_on_c, 0, 73, 0
1, 91176, Note_on_c, 0, 67, 0
1, 91200, Note_on_c, 0, 66, 76
1, 91200, Note_on_c, 0, 74, 76
1, 91200, Note_on_c, 1, 50, 48
1, 91258, Note_on_c, 1, 50, 0
1, 91260, Note_on_c, 1, 62, 48
1, 91318, Note_on_c, 1, 62, 0
1, 91320, Note_on_c, 1, 61, 48
1, 91378, Note_on_c, 1, 61, 0
1, 91380, Note_on_c, 1, 62, 48
1, 91438, Note_on_c, 0, 74, 0
1, 91438, Note_on_c, 0, 66, 0
1, 91438, Note_on_c, 1, 62, 0
1, 91440, Note_on_c, 1, 54, 48
1, 91498, Note_on_c, 1, 54, 0
1, 91500, Note_on_c, 1, 62, 48
1, 91558, Note_on_c, 1, 62, 0
1, 91560, Note_on_c, 0, 69, 56
1, 91560, Note_on_c, 1, 61, 48
1, 91618, Note_on_c, 1, 61, 0
1, 91620, Note_on_c, 1, 62, 48
1, 91678, Note_on_c, 0, 69, 0
1, 91678, Note_on_c, 1, 62, 0
1, 91680, Note_on_c, 0, 71, 56
1, 91680, Note_on_c, 1, 55, 48
1, 91712, Note_on_c, 0, 71, 0
1, 91720, Note_on_c, 0, 73, 56
1, 91738, Note_on_c, 1, 55, 0
1, 91740, Note_on_c, 1, 62, 48
1, 91752, Note_on_c, 0, 73, 0
1, 91760, Note_on_c, 0, 71, 56
1, 91792, Note_on_c, 0, 71, 0
1, 91798, Note_on_c, 1, 62, 0
1, 91800, Note_on_c, 0, 69, 56
1, 91800, Note_on_c, 1, 54, 48
1, 91858, Note_on_c, 1, 54, 0
1, 91860, Note_on_c, 0, 69, 0
1, 91860, Note_on_c, 1, 62, 48
1, 91918, Note_on_c, 1, 62, 0
1, 91920, Note_on_c, 0, 71, 56
1, 91920, Note_on_c, 1, 55, 48
1, 91952, Note_on_c, 0, 71, 0
1, 91960, Note_on_c, 0, 73, 56
1, 91978, Note_on_c, 1, 55, 0
1, 91980, Note_on_c, 1, 62, 48
1, 91992, Note_on_c, 0, 73, 0
1, 92000, Note_on_c, 0, 71, 56
1, 92032, Note_on_c, 0, 71, 0
1, 92038, Note_on_c, 1, 62, 0
1, 92040, Note_on_c, 0, 69, 56
1, 92040, Note_on_c, 1, 54, 48
1, 92070, Note_on_c, 0, 69, 0
1, 92098, Note_on_c, 1, 54, 0
1, 92100, Note_on_c, 0, 69, 64
1, 92100, Note_on_c, 1, 62, 48
1, 92120, Note_on_c, 0, 73, 64
1, 92140, Note_on_c, 0, 76, 64
1, 92158, Note_on_c, 1, 62, 0
1, 92160, Note_on_c, 0, 79, 64
1, 92160, Note_on_c, 1, 52, 64
1, 92160, Note_on_c, 1, 61, 64
1, 92398, Note_on_c, 0, 79, 0
1, 92398, Note_on_c, 0, 69, 0
1, 92398, Note_on_c, 0, 73, 0
1, 92398, Note_on_c, 0, 76, 0
1, 92398, Note_on_c, 1, 61, 0
1, 92398, Note_on_c, 1, 52, 0
1, 92520, Note_on_c, 0, 78, 56
1, 92520, Note_on_c, 1, 50, 48
1, 92520, Note_on_c, 1, 62, 48
1, 92580, Note_on_c, 0, 78, 0
1, 92580, Note_on_c, 1, 62, 0
1, 92580, Note_on_c, 1, 50, 0
1, 92640, Note_on_c, 0, 76, 56
1, 92640, Note_on_c, 1, 55, 48
1, 92640, Note_on_c, 1, 59, 48
1, 92672, Note_on_c, 0, 76, 0
1, 92680, Note_on_c, 0, 78, 56
1, 92712, Note_on_c, 0, 78, 0
1, 92720, Note_on_c, 0, 76, 56
1, 92752, Note_on_c, 0, 76, 0
1, 92760, Note_on_c, 0, 79, 56
1, 92760, Note_on_c, 1, 59, 0
1, 92760, Note_on_c, 1, 55, 0
1, 92820, Note_on_c, 0, 79, 0
1, 92880, Note_on_c, 0, 69, 56
1, 92880, Note_on_c, 1, 45, 48
1, 92880, Note_on_c, 1, 57, 48
1, 92912, Note_on_c, 0, 69, 0
1, 92920, Note_on_c, 0, 71, 56
1, 92952, Note_on_c, 0, 71, 0
1, 92960, Note_on_c, 0, 69, 56
1, 92992, Note_on_c, 0, 69, 0
1, 93000, Note_on_c, 0, 73, 56
1, 93000, Note_on_c, 0, 67, 56
1, 93000, Note_on_c, 1, 57, 0
1, 93000, Note_on_c, 1, 45, 0
1, 93060, Note_on_c, 0, 67, 0
1, 93060, Note_on_c, 0, 73, 0
1, 93120, Note_on_c, 0, 66, 56
1, 93120, Note_on_c, 0, 74, 56
1, 93120, Note_on_c, 1, 38, 48
1, 93120, Note_on_c, 1, 50, 48
1, 93238, Note_on_c, 0, 74, 0
1, 93238, Note_on_c, 0, 66, 0
1, 93240, Note_on_c, 1, 50, 0
1, 93240, Note_on_c, 1, 38, 0
1, 93360, Note_on_c, 1, 45, 48
1, 93360, Note_on_c, 1, 55, 48
1, 93420, Note_on_c, 0, 57, 56
1, 93478, Note_on_c, 0, 57, 0
1, 93480, Note_on_c, 0, 61, 56
1, 93480, Note_on_c, 1, 55, 0
1, 93480, Note_on_c, 1, 45, 0
1, 93538, Note_on_c, 0, 61, 0
1, 93540, Note_on_c, 0, 69, 56
1, 93598, Note_on_c, 0, 69, 0
1, 93600, Note_on_c, 1, 45, 48
1, 93600, Note_on_c, 1, 54, 48
1, 93660, Note_on_c, 0, 57, 55
1, 93718, Note_on_c, 0, 57, 0
1, 93720, Note_on_c, 0, 62, 54
1, 93720, Note_on_c, 1, 54, 0
1, 93720, Note_on_c, 1, 45, 0
1, 93778, Note_on_c, 0, 62, 0
1, 93780, Note_on_c, 0, 69, 53
1, 93838, Note_on_c, 0, 69, 0
1, 93840, Note_on_c, 1, 45, 44
1, 93840, Note_on_c, 1, 52, 44
1, 93900, Note_on_c, 0, 52, 51
1, 93958, Note_on_c, 0, 52, 0
1, 93960, Note_on_c, 0, 55, 50
1, 93960, Note_on_c, 1, 52, 0
1, 93960, Note_on_c, 1, 45, 0
1, 94018, Note_on_c, 0, 55, 0
1, 94020, Note_on_c, 0, 61, 49
1, 94078, Note_on_c, 0, 61, 0
1, 94080, Note_on_c, 0, 54, 32
1, 94080, Note_on_c, 0, 62, 32
1, 94080, Note_on_c, 1, 38, 32
1, 94080, Note_on_c, 1, 50, 32
1, 94318, Note_on_c, 0, 62, 0
1, 94318, Note_on_c, 0, 54, 0
1, 94318, Note_on_c, 1, 50, 0
1, 94318, Note_on_c, 1, 38, 0
1, 94328, End_track
0, 0, End_of_file