0, 0, Header, 0, 1, 240
1, 0, Start_track
1, 0, Tempo, 582524
1, 900, Note_on_c, 0, 59, 80
1, 924, Note_on_c, 0, 59, 0
1, 930, Note_on_c, 0, 58, 80
1, 954, Note_on_c, 0, 58, 0
1, 960, Note_on_c, 0, 59, 80
1, 1080, Note_on_c, 1, 47, 85
1, 1140, Note_on_c, 1, 47, 0
1, 1200, Note_on_c, 1, 50, 85
1, 1318, Note_on_c, 1, 50, 0
1, 1320, Note_on_c, 1, 47, 64
1, 1344, Note_on_c, 0, 59, 0
1, 1380, Note_on_c, 0, 66, 80
1, 1404, Note_on_c, 0, 66, 0
1, 1410, Note_on_c, 0, 65, 80
1, 1434, Note_on_c, 0, 65, 0
1, 1438, Note_on_c, 1, 47, 0
1, 1440, Note_on_c, 0, 66, 80
1, 1560, Note_on_c, 1, 46, 85
1, 1620, Note_on_c, 1, 46, 0
1, 1680, Note_on_c, 1, 49, 85
1, 1798, Note_on_c, 1, 49, 0
1, 1800, Note_on_c, 1, 42, 64
1, 1824, Note_on_c, 0, 66, 0
1, 1918, Note_on_c, 1, 42, 0
1, 1920, Note_on_c, 0, 71, 85
1, 2040, Note_on_c, 1, 43, 68
1, 2158, Note_on_c, 1, 43, 0
1, 2160, Note_on_c, 1, 42, 72
1, 2220, Note_on_c, 1, 42, 0
1, 2278, Note_on_c, 0, 71, 0
1, 2280, Note_on_c, 0, 73, 85
1, 2280, Note_on_c, 1, 40, 76
1, 2340, Note_on_c, 1, 40, 0
1, 2368, Note_on_c, 0, 73, 0
1, 2370, Note_on_c, 0, 74, 85
1, 2398, Note_on_c, 0, 74, 0
1, 2400, Note_on_c, 0, 71, 85
1, 2400, Note_on_c, 1, 38, 80
1, 2518, Note_on_c, 0, 71, 0
1, 2520, Note_on_c, 0, 78, 67
1, 2604, Note_on_c, 0, 78, 0
1, 2638, Note_on_c, 1, 38, 0
1, 2640, Note_on_c, 0, 78, 72
1, 2724, Note_on_c, 0, 78, 0
1, 2760, Note_on_c, 0, 78, 78
1, 2844, Note_on_c, 0, 78, 0
1, 2880, Note_on_c, 0, 78, 88
1, 3000, Note_on_c, 1, 58, 72
1, 3000, Note_on_c, 1, 61, 72
1, 3072, Note_on_c, 0, 78, 0
1, 3118, Note_on_c, 1, 61, 0
1, 3118, Note_on_c, 1, 58, 0
1, 3120, Note_on_c, 0, 79, 80
1, 3120, Note_on_c, 1, 58, 85
1, 3120, Note_on_c, 1, 61, 85
1, 3144, Note_on_c, 0, 79, 0
1, 3150, Note_on_c, 0, 78, 80
1, 3174, Note_on_c, 0, 78, 0
1, 3180, Note_on_c, 0, 76, 80
1, 3204, Note_on_c, 0, 76, 0
1, 3210, Note_on_c, 0, 78, 80
1, 3234, Note_on_c, 0, 78, 0
1, 3238, Note_on_c, 1, 61, 0
1, 3238, Note_on_c, 1, 58, 0
1, 3240, Note_on_c, 0, 79, 80
1, 3240, Note_on_c, 1, 58, 72
1, 3240, Note_on_c, 1, 61, 72
1, 3312, Note_on_c, 0, 79, 0
1, 3330, Note_on_c, 0, 76, 80
1, 3354, Note_on_c, 0, 76, 0
1, 3358, Note_on_c, 1, 61, 0
1, 3358, Note_on_c, 1, 58, 0
1, 3360, Note_on_c, 0, 76, 80
1, 3480, Note_on_c, 1, 59, 72
1, 3480, Note_on_c, 1, 66, 72
1, 3598, Note_on_c, 1, 66, 0
1, 3598, Note_on_c, 1, 59, 0
1, 3600, Note_on_c, 0, 76, 0
1, 3600, Note_on_c, 0, 74, 80
1, 3600, Note_on_c, 1, 59, 85
1, 3600, Note_on_c, 1, 66, 85
1, 3624, Note_on_c, 0, 74, 0
1, 3630, Note_on_c, 0, 76, 80
1, 3654, Note_on_c, 0, 76, 0
1, 3660, Note_on_c, 0, 74, 80
1, 3684, Note_on_c, 0, 74, 0
1, 3690, Note_on_c, 0, 73, 80
1, 3714, Note_on_c, 0, 73, 0
1, 3718, Note_on_c, 1, 66, 0
1, 3718, Note_on_c, 1, 59, 0
1, 3720, Note_on_c, 0, 78, 80
1, 3720, Note_on_c, 1, 62, 72
1, 3792, Note_on_c, 0, 78, 0
1, 3810, Note_on_c, 0, 71, 80
1, 3834, Note_on_c, 0, 71, 0
1, 3838, Note_on_c, 1, 62, 0
1, 3840, Note_on_c, 0, 73, 80
1, 3840, Note_on_c, 1, 64, 85
1, 3864, Note_on_c, 0, 73, 0
1, 3870, Note_on_c, 0, 74, 80
1, 3894, Note_on_c, 0, 74, 0
1, 3900, Note_on_c, 0, 73, 80
1, 3916, Note_on_c, 0, 73, 0
1, 3920, Note_on_c, 0, 74, 80
1, 3936, Note_on_c, 0, 74, 0
1, 3940, Note_on_c, 0, 73, 80
1, 3956, Note_on_c, 0, 73, 0
1, 3958, Note_on_c, 1, 64, 0
1, 3960, Note_on_c, 0, 71, 80
1, 3960, Note_on_c, 1, 62, 85
1, 4056, Note_on_c, 0, 71, 0
1, 4078, Note_on_c, 1, 62, 0
1, 4080, Note_on_c, 0, 74, 80
1, 4080, Note_on_c, 1, 64, 85
1, 4128, Note_on_c, 0, 74, 0
1, 4140, Note_on_c, 0, 73, 80
1, 4188, Note_on_c, 0, 73, 0
1, 4198, Note_on_c, 1, 64, 0
1, 4200, Note_on_c, 0, 71, 80
1, 4200, Note_on_c, 1, 66, 85
1, 4248, Note_on_c, 0, 71, 0
1, 4260, Note_on_c, 0, 70, 80
1, 4308, Note_on_c, 0, 70, 0
1, 4318, Note_on_c, 1, 66, 0
1, 4320, Note_on_c, 0, 71, 80
1, 4320, Note_on_c, 1, 67, 85
1, 4512, Note_on_c, 0, 71, 0
1, 4558, Note_on_c, 1, 67, 0
1, 4680, Note_on_c, 0, 83, 80
1, 4728, Note_on_c, 0, 83, 0
1, 4740, Note_on_c, 0, 79, 80
1, 4788, Note_on_c, 0, 79, 0
1, 4800, Note_on_c, 0, 78, 85
1, 4858, Note_on_c, 0, 78, 0
1, 4860, Note_on_c, 0, 76, 85
1, 4918, Note_on_c, 0, 76, 0
1, 4920, Note_on_c, 0, 75, 85
1, 4978, Note_on_c, 0, 75, 0
1, 4980, Note_on_c, 0, 76, 85
1, 5038, Note_on_c, 0, 76, 0
1, 5040, Note_on_c, 0, 78, 85
1, 5098, Note_on_c, 0, 78, 0
1, 5100, Note_on_c, 0, 76, 85
1, 5158, Note_on_c, 0, 76, 0
1, 5160, Note_on_c, 0, 79, 85
1, 5218, Note_on_c, 0, 79, 0
1, 5220, Note_on_c, 0, 76, 85
1, 5278, Note_on_c, 0, 76, 0
1, 5280, Note_on_c, 0, 70, 85
1, 5280, Note_on_c, 1, 64, 85
1, 5280, Note_on_c, 1, 67, 85
1, 5518, Note_on_c, 0, 70, 0
1, 5518, Note_on_c, 1, 67, 0
1, 5518, Note_on_c, 1, 64, 0
1, 5520, Note_on_c, 0, 71, 85
1, 5520, Note_on_c, 1, 62, 72
1, 5520, Note_on_c, 1, 66, 72
1, 5580, Note_on_c, 0, 71, 0
1, 5580, Note_on_c, 1, 66, 0
1, 5580, Note_on_c, 1, 62, 0
1, 5640, Note_on_c, 0, 83, 48
1, 5698, Note_on_c, 0, 83, 0
1, 5700, Note_on_c, 0, 79, 48
1, 5758, Note_on_c, 0, 79, 0
1, 5760, Note_on_c, 0, 78, 48
1, 5818, Note_on_c, 0, 78, 0
1, 5820, Note_on_c, 0, 76, 48
1, 5878, Note_on_c, 0, 76, 0
1, 5880, Note_on_c, 0, 75, 48
1, 5938, Note_on_c, 0, 75, 0
1, 5940, Note_on_c, 0, 76, 48
1, 5998, Note_on_c, 0, 76, 0
1, 6000, Note_on_c, 0, 78, 48
1, 6058, Note_on_c, 0, 78, 0
1, 6060, Note_on_c, 0, 76, 48
1, 6118, Note_on_c, 0, 76, 0
1, 6120, Note_on_c, 0, 79, 48
1, 6178, Note_on_c, 0, 79, 0
1, 6180, Note_on_c, 0, 76, 48
1, 6238, Note_on_c, 0, 76, 0
1, 6240, Note_on_c, 0, 70, 48
1, 6240, Note_on_c, 1, 64, 48
1, 6240, Note_on_c, 1, 67, 48
1, 6478, Note_on_c, 0, 70, 0
1, 6478, Note_on_c, 1, 67, 0
1, 6478, Note_on_c, 1, 64, 0
1, 6480, Note_on_c, 0, 71, 48
1, 6480, Note_on_c, 1, 62, 48
1, 6480, Note_on_c, 1, 66, 48
1, 6540, Note_on_c, 0, 71, 0
1, 6540, Note_on_c, 1, 66, 0
1, 6540, Note_on_c, 1, 62, 0
1, 6600, Note_on_c, 0, 83, 85
1, 6658, Note_on_c, 0, 83, 0
1, 6660, Note_on_c, 0, 79, 85
1, 6718, Note_on_c, 0, 79, 0
1, 6720, Note_on_c, 0, 78, 85
1, 6778, Note_on_c, 0, 78, 0
1, 6780, Note_on_c, 0, 76, 85
1, 6838, Note_on_c, 0, 76, 0
1, 6840, Note_on_c, 0, 75, 85
1, 6898, Note_on_c, 0, 75, 0
1, 6900, Note_on_c, 0, 76, 85
1, 6958, Note_on_c, 0, 76, 0
1, 6960, Note_on_c, 0, 78, 85
1, 7018, Note_on_c, 0, 78, 0
1, 7020, Note_on_c, 0, 76, 85
1, 7078, Note_on_c, 0, 76, 0
1, 7080, Note_on_c, 0, 79, 85
1, 7138, Note_on_c, 0, 79, 0
1, 7140, Note_on_c, 0, 76, 85
1, 7198, Note_on_c, 0, 76, 0
1, 7200, Note_on_c, 0, 73, 88
1, 7200, Note_on_c, 0, 82, 88
1, 7200, Note_on_c, 1, 64, 88
1, 7200, Note_on_c, 1, 67, 88
1, 7438, Note_on_c, 0, 82, 0
1, 7438, Note_on_c, 0, 73, 0
1, 7438, Note_on_c, 1, 67, 0
1, 7438, Note_on_c, 1, 64, 0
1, 7440, Note_on_c, 0, 74, 85
1, 7440, Note_on_c, 0, 83, 85
1, 7440, Note_on_c, 1, 62, 85
1, 7440, Note_on_c, 1, 66, 85
1, 7500, Note_on_c, 0, 83, 0
1, 7500, Note_on_c, 0, 74, 0
1, 7500, Note_on_c, 1, 66, 0
1, 7500, Note_on_c, 1, 62, 0
1, 7560, Note_on_c, 0, 76, 80
1, 7560, Note_on_c, 0, 79, 80
1, 7560, Note_on_c, 1, 64, 85
1, 7584, Note_on_c, 0, 79, 0
1, 7584, Note_on_c, 0, 76, 0
1, 7590, Note_on_c, 0, 74, 80
1, 7590, Note_on_c, 0, 78, 80
1, 7614, Note_on_c, 0, 78, 0
1, 7614, Note_on_c, 0, 74, 0
1, 7620, Note_on_c, 0, 76, 80
1, 7620, Note_on_c, 0, 73, 80
1, 7644, Note_on_c, 0, 73, 0
1, 7644, Note_on_c, 0, 76, 0
1, 7650, Note_on_c, 0, 76, 80
1, 7650, Note_on_c, 0, 79, 80
1, 7674, Note_on_c, 0, 79, 0
1, 7674, Note_on_c, 0, 76, 0
1, 7678, Note_on_c, 1, 64, 0
1, 7680, Note_on_c, 0, 74, 80
1, 7680, Note_on_c, 0, 78, 80
1, 7680, Note_on_c, 1, 66, 85
1, 7728, Note_on_c, 0, 78, 0
1, 7728, Note_on_c, 0, 74, 0
1, 7800, Note_on_c, 0, 73, 80
1, 7800, Note_on_c, 0, 76, 80
1, 7872, Note_on_c, 0, 76, 0
1, 7872, Note_on_c, 0, 73, 0
1, 7918, Note_on_c, 1, 66, 0
1, 7920, Note_on_c, 0, 71, 80
1, 7920, Note_on_c, 0, 74, 80
1, 7920, Note_on_c, 1, 54, 85
1, 7952, Note_on_c, 0, 74, 0
1, 7952, Note_on_c, 0, 71, 0
1, 7960, Note_on_c, 0, 73, 80
1, 7960, Note_on_c, 0, 76, 80
1, 7992, Note_on_c, 0, 76, 0
1, 7992, Note_on_c, 0, 73, 0
1, 8000, Note_on_c, 0, 71, 80
1, 8000, Note_on_c, 0, 74, 80
1, 8032, Note_on_c, 0, 74, 0
1, 8032, Note_on_c, 0, 71, 0
1, 8040, Note_on_c, 0, 70, 80
1, 8040, Note_on_c, 0, 73, 80
1, 8136, Note_on_c, 0, 73, 0
1, 8136, Note_on_c, 0, 70, 0
1, 8158, Note_on_c, 1, 54, 0
1, 8160, Note_on_c, 0, 71, 80
1, 8160, Note_on_c, 1, 47, 85
1, 8160, Note_on_c, 1, 59, 85
1, 8352, Note_on_c, 0, 71, 0
1, 8398, Note_on_c, 1, 59, 0
1, 8398, Note_on_c, 1, 47, 0
1, 8580, Note_on_c, 0, 59, 80
1, 8604, Note_on_c, 0, 59, 0
1, 8610, Note_on_c, 0, 58, 80
1, 8634, Note_on_c, 0, 58, 0
1, 8640, Note_on_c, 0, 59, 80
1, 8760, Note_on_c, 1, 47, 85
1, 8820, Note_on_c, 1, 47, 0
1, 8880, Note_on_c, 1, 50, 85
1, 8998, Note_on_c, 1, 50, 0
1, 9000, Note_on_c, 1, 47, 64
1, 9024, Note_on_c, 0, 59, 0
1, 9060, Note_on_c, 0, 66, 80
1, 9084, Note_on_c, 0, 66, 0
1, 9090, Note_on_c, 0, 65, 80
1, 9114, Note_on_c, 0, 65, 0
1, 9118, Note_on_c, 1, 47, 0
1, 9120, Note_on_c, 0, 66, 80
1, 9240, Note_on_c, 1, 46, 85
1, 9300, Note_on_c, 1, 46, 0
1, 9360, Note_on_c, 1, 49, 85
1, 9478, Note_on_c, 1, 49, 0
1, 9480, Note_on_c, 1, 42, 64
1, 9504, Note_on_c, 0, 66, 0
1, 9598, Note_on_c, 1, 42, 0
1, 9600, Note_on_c, 0, 71, 85
1, 9720, Note_on_c, 1, 43, 68
1, 9780, Note_on_c, 1, 43, 0
1, 9840, Note_on_c, 1, 42, 72
1, 9958, Note_on_c, 0, 71, 0
1, 9958, Note_on_c, 1, 42, 0
1, 9960, Note_on_c, 0, 73, 85
1, 9960, Note_on_c, 1, 40, 76
1, 10048, Note_on_c, 0, 73, 0
1, 10050, Note_on_c, 0, 74, 85
1, 10078, Note_on_c, 0, 74, 0
1, 10078, Note_on_c, 1, 40, 0
1, 10080, Note_on_c, 0, 71, 85
1, 10080, Note_on_c, 1, 38, 80
1, 10198, Note_on_c, 0, 71, 0
1, 10200, Note_on_c, 0, 73, 85
1, 10288, Note_on_c, 0, 73, 0
1, 10290, Note_on_c, 0, 74, 85
1, 10318, Note_on_c, 0, 74, 0
1, 10318, Note_on_c, 1, 38, 0
1, 10320, Note_on_c, 0, 71, 85
1, 10438, Note_on_c, 0, 71, 0
1, 10440, Note_on_c, 0, 73, 85
1, 10528, Note_on_c, 0, 73, 0
1, 10530, Note_on_c, 0, 74, 85
1, 10558, Note_on_c, 0, 74, 0
1, 10560, Note_on_c, 0, 71, 85
1, 10680, Note_on_c, 1, 55, 85
1, 10798, Note_on_c, 1, 55, 0
1, 10800, Note_on_c, 1, 67, 85
1, 10918, Note_on_c, 0, 71, 0
1, 10918, Note_on_c, 1, 67, 0
1, 10920, Note_on_c, 0, 73, 85
1, 11008, Note_on_c, 0, 73, 0
1, 11010, Note_on_c, 0, 74, 85
1, 11038, Note_on_c, 0, 74, 0
1, 11040, Note_on_c, 0, 69, 85
1, 11160, Note_on_c, 1, 54, 85
1, 11278, Note_on_c, 1, 54, 0
1, 11280, Note_on_c, 1, 66, 85
1, 11368, Note_on_c, 0, 69, 0
1, 11370, Note_on_c, 0, 74, 85
1, 11398, Note_on_c, 0, 74, 0
1, 11400, Note_on_c, 0, 78, 85
1, 11488, Note_on_c, 0, 78, 0
1, 11490, Note_on_c, 0, 81, 85
1, 11518, Note_on_c, 0, 81, 0
1, 11518, Note_on_c, 1, 66, 0
1, 11520, Note_on_c, 0, 79, 85
1, 11520, Note_on_c, 1, 64, 85
1, 11608, Note_on_c, 0, 79, 0
1, 11610, Note_on_c, 0, 85, 85
1, 11638, Note_on_c, 0, 85, 0
1, 11638, Note_on_c, 1, 64, 0
1, 11640, Note_on_c, 0, 76, 85
1, 11640, Note_on_c, 1, 61, 85
1, 11728, Note_on_c, 0, 76, 0
1, 11730, Note_on_c, 0, 79, 85
1, 11758, Note_on_c, 0, 79, 0
1, 11758, Note_on_c, 1, 61, 0
1, 11760, Note_on_c, 0, 78, 85
1, 11760, Note_on_c, 1, 62, 85
1, 11760, Note_on_c, 1, 62, 85
1, 11848, Note_on_c, 0, 78, 0
1, 11850, Note_on_c, 0, 74, 85
1, 11878, Note_on_c, 0, 74, 0
1, 11878, Note_on_c, 1, 62, 0
1, 11880, Note_on_c, 0, 86, 85
1, 11880, Note_on_c, 1, 56, 85
1, 11968, Note_on_c, 0, 86, 0
1, 11970, Note_on_c, 0, 78, 85
1, 11998, Note_on_c, 0, 78, 0
1, 11998, Note_on_c, 1, 56, 0
1, 12000, Note_on_c, 0, 78, 80
1, 12000, Note_on_c, 1, 57, 85
1, 12024, Note_on_c, 0, 78, 0
1, 12030, Note_on_c, 0, 79, 80
1, 12054, Note_on_c, 0, 79, 0
1, 12060, Note_on_c, 0, 78, 80
1, 12076, Note_on_c, 0, 78, 0
1, 12080, Note_on_c, 0, 79, 80
1, 12096, Note_on_c, 0, 79, 0
1, 12100, Note_on_c, 0, 78, 80
1, 12116, Note_on_c, 0, 78, 0
1, 12118, Note_on_c, 1, 62, 0
1, 12120, Note_on_c, 0, 76, 80
1, 12120, Note_on_c, 1, 61, 85
1, 12216, Note_on_c, 0, 76, 0
1, 12238, Note_on_c, 1, 61, 0
1, 12238, Note_on_c, 1, 57, 0
1, 12480, Note_on_c, 1, 38, 96
1, 12480, Note_on_c, 1, 42, 96
1, 12480, Note_on_c, 1, 45, 96
1, 12480, Note_on_c, 1, 50, 96
1, 12598, Note_on_c, 1, 50, 0
1, 12598, Note_on_c, 1, 38, 0
1, 12598, Note_on_c, 1, 42, 0
1, 12598, Note_on_c, 1, 45, 0
1, 12600, Note_on_c, 0, 74, 66
1, 12600, Note_on_c, 1, 50, 66
1, 12658, Note_on_c, 0, 74, 0
1, 12660, Note_on_c, 0, 62, 67
1, 12718, Note_on_c, 0, 62, 0
1, 12720, Note_on_c, 0, 73, 68
1, 12720, Note_on_c, 1, 52, 68
1, 12778, Note_on_c, 0, 73, 0
1, 12780, Note_on_c, 0, 62, 69
1, 12816, Note_on_c, 1, 52, 0
1, 12838, Note_on_c, 0, 62, 0
1, 12840, Note_on_c, 0, 72, 70
1, 12840, Note_on_c, 1, 54, 70
1, 12898, Note_on_c, 0, 72, 0
1, 12900, Note_on_c, 0, 62, 71
1, 12936, Note_on_c, 1, 54, 0
1, 12958, Note_on_c, 0, 62, 0
1, 12960, Note_on_c, 0, 71, 72
1, 12960, Note_on_c, 1, 55, 72
1, 13018, Note_on_c, 0, 71, 0
1, 13020, Note_on_c, 0, 62, 73
1, 13056, Note_on_c, 1, 55, 0
1, 13078, Note_on_c, 0, 62, 0
1, 13080, Note_on_c, 0, 70, 74
1, 13080, Note_on_c, 1, 54, 74
1, 13138, Note_on_c, 0, 70, 0
1, 13140, Note_on_c, 0, 62, 75
1, 13176, Note_on_c, 1, 54, 0
1, 13198, Note_on_c, 0, 62, 0
1, 13200, Note_on_c, 0, 71, 76
1, 13200, Note_on_c, 1, 55, 76
1, 13258, Note_on_c, 0, 71, 0
1, 13260, Note_on_c, 0, 62, 77
1, 13296, Note_on_c, 1, 55, 0
1, 13318, Note_on_c, 0, 62, 0
1, 13320, Note_on_c, 0, 67, 78
1, 13320, Note_on_c, 1, 59, 78
1, 13378, Note_on_c, 0, 67, 0
1, 13380, Note_on_c, 0, 62, 79
1, 13416, Note_on_c, 1, 59, 0
1, 13416, Note_on_c, 1, 50, 0
1, 13438, Note_on_c, 0, 62, 0
1, 13440, Note_on_c, 0, 66, 96
1, 13440, Note_on_c, 1, 50, 96
1, 13440, Note_on_c, 1, 45, 96
1, 13440, Note_on_c, 1, 42, 96
1, 13440, Note_on_c, 1, 38, 96
1, 13498, Note_on_c, 0, 66, 0
1, 13500, Note_on_c, 0, 62, 65
1, 13558, Note_on_c, 0, 62, 0
1, 13558, Note_on_c, 1, 38, 0
1, 13558, Note_on_c, 1, 50, 0
1, 13558, Note_on_c, 1, 45, 0
1, 13558, Note_on_c, 1, 42, 0
1, 13560, Note_on_c, 0, 74, 66
1, 13560, Note_on_c, 1, 50, 66
1, 13618, Note_on_c, 0, 74, 0
1, 13620, Note_on_c, 0, 62, 67
1, 13678, Note_on_c, 0, 62, 0
1, 13680, Note_on_c, 0, 73, 68
1, 13680, Note_on_c, 1, 52, 68
1, 13738, Note_on_c, 0, 73, 0
1, 13740, Note_on_c, 0, 62, 69
1, 13776, Note_on_c, 1, 52, 0
1, 13798, Note_on_c, 0, 62, 0
1, 13800, Note_on_c, 0, 72, 70
1, 13800, Note_on_c, 1, 54, 70
1, 13858, Note_on_c, 0, 72, 0
1, 13860, Note_on_c, 0, 62, 71
1, 13896, Note_on_c, 1, 54, 0
1, 13918, Note_on_c, 0, 62, 0
1, 13920, Note_on_c, 0, 71, 72
1, 13920, Note_on_c, 1, 55, 72
1, 13978, Note_on_c, 0, 71, 0
1, 13980, Note_on_c, 0, 62, 73
1, 14016, Note_on_c, 1, 55, 0
1, 14038, Note_on_c, 0, 62, 0
1, 14040, Note_on_c, 0, 70, 74
1, 14040, Note_on_c, 1, 54, 74
1, 14098, Note_on_c, 0, 70, 0
1, 14100, Note_on_c, 0, 62, 75
1, 14136, Note_on_c, 1, 54, 0
1, 14158, Note_on_c, 0, 62, 0
1, 14160, Note_on_c, 0, 71, 76
1, 14160, Note_on_c, 1, 55, 76
1, 14218, Note_on_c, 0, 71, 0
1, 14220, Note_on_c, 0, 62, 77
1, 14256, Note_on_c, 1, 55, 0
1, 14278, Note_on_c, 0, 62, 0
1, 14280, Note_on_c, 0, 67, 78
1, 14280, Note_on_c, 1, 59, 78
1, 14338, Note_on_c, 0, 67, 0
1, 14340, Note_on_c, 0, 62, 79
1, 14376, Note_on_c, 1, 59, 0
1, 14376, Note_on_c, 1, 50, 0
1, 14398, Note_on_c, 0, 62, 0
1, 14400, Note_on_c, 0, 66, 96
1, 14400, Note_on_c, 1, 38, 96
1, 14400, Note_on_c, 1, 42, 96
1, 14400, Note_on_c, 1, 45, 96
1, 14400, Note_on_c, 1, 50, 96
1, 14458, Note_on_c, 0, 66, 0
1, 14460, Note_on_c, 0, 62, 48
1, 14518, Note_on_c, 0, 62, 0
1, 14518, Note_on_c, 1, 50, 0
1, 14518, Note_on_c, 1, 38, 0
1, 14518, Note_on_c, 1, 42, 0
1, 14518, Note_on_c, 1, 45, 0
1, 14520, Note_on_c, 0, 74, 48
1, 14520, Note_on_c, 1, 50, 48
1, 14578, Note_on_c, 0, 74, 0
1, 14580, Note_on_c, 0, 62, 48
1, 14638, Note_on_c, 0, 62, 0
1, 14640, Note_on_c, 0, 73, 48
1, 14640, Note_on_c, 1, 52, 48
1, 14698, Note_on_c, 0, 73, 0
1, 14700, Note_on_c, 0, 62, 48
1, 14736, Note_on_c, 1, 52, 0
1, 14758, Note_on_c, 0, 62, 0
1, 14760, Note_on_c, 0, 72, 48
1, 14760, Note_on_c, 1, 54, 48
1, 14818, Note_on_c, 0, 72, 0
1, 14820, Note_on_c, 0, 62, 48
1, 14856, Note_on_c, 1, 54, 0
1, 14878, Note_on_c, 0, 62, 0
1, 14880, Note_on_c, 0, 71, 48
1, 14880, Note_on_c, 1, 55, 48
1, 14938, Note_on_c, 0, 71, 0
1, 14940, Note_on_c, 0, 62, 48
1, 14976, Note_on_c, 1, 55, 0
1, 14998, Note_on_c, 0, 62, 0
1, 15000, Note_on_c, 0, 70, 48
1, 15000, Note_on_c, 1, 54, 48
1, 15058, Note_on_c, 0, 70, 0
1, 15060, Note_on_c, 0, 62, 48
1, 15096, Note_on_c, 1, 54, 0
1, 15118, Note_on_c, 0, 62, 0
1, 15120, Note_on_c, 0, 71, 48
1, 15120, Note_on_c, 1, 55, 48
1, 15178, Note_on_c, 0, 71, 0
1, 15180, Note_on_c, 0, 62, 48
1, 15216, Note_on_c, 1, 55, 0
1, 15238, Note_on_c, 0, 62, 0
1, 15240, Note_on_c, 0, 74, 48
1, 15240, Note_on_c, 1, 59, 48
1, 15298, Note_on_c, 0, 74, 0
1, 15300, Note_on_c, 0, 62, 48
1, 15336, Note_on_c, 1, 59, 0
1, 15336, Note_on_c, 1, 50, 0
1, 15358, Note_on_c, 0, 62, 0
1, 15360, Note_on_c, 0, 69, 48
1, 15360, Note_on_c, 1, 54, 48
1, 15418, Note_on_c, 0, 69, 0
1, 15420, Note_on_c, 0, 62, 49
1, 15478, Note_on_c, 0, 62, 0
1, 15478, Note_on_c, 1, 54, 0
1, 15480, Note_on_c, 0, 68, 50
1, 15480, Note_on_c, 1, 53, 50
1, 15538, Note_on_c, 0, 68, 0
1, 15540, Note_on_c, 0, 62, 51
1, 15598, Note_on_c, 0, 62, 0
1, 15598, Note_on_c, 1, 53, 0
1, 15600, Note_on_c, 0, 69, 52
1, 15600, Note_on_c, 1, 54, 52
1, 15658, Note_on_c, 0, 69, 0
1, 15660, Note_on_c, 0, 62, 53
1, 15718, Note_on_c, 0, 62, 0
1, 15718, Note_on_c, 1, 54, 0
1, 15720, Note_on_c, 0, 72, 54
1, 15720, Note_on_c, 1, 57, 54
1, 15778, Note_on_c, 0, 72, 0
1, 15780, Note_on_c, 0, 62, 55
1, 15838, Note_on_c, 0, 62, 0
1, 15838, Note_on_c, 1, 57, 0
1, 15840, Note_on_c, 0, 71, 56
1, 15840, Note_on_c, 1, 55, 56
1, 15898, Note_on_c, 0, 71, 0
1, 15900, Note_on_c, 0, 62, 57
1, 15958, Note_on_c, 0, 62, 0
1, 15958, Note_on_c, 1, 55, 0
1, 15960, Note_on_c, 0, 70, 58
1, 15960, Note_on_c, 1, 54, 58
1, 16018, Note_on_c, 0, 70, 0
1, 16020, Note_on_c, 0, 62, 59
1, 16078, Note_on_c, 0, 62, 0
1, 16078, Note_on_c, 1, 54, 0
1, 16080, Note_on_c, 0, 71, 60
1, 16080, Note_on_c, 1, 55, 60
1, 16138, Note_on_c, 0, 71, 0
1, 16140, Note_on_c, 0, 62, 61
1, 16198, Note_on_c, 0, 62, 0
1, 16198, Note_on_c, 1, 55, 0
1, 16200, Note_on_c, 0, 74, 62
1, 16200, Note_on_c, 1, 59, 62
1, 16258, Note_on_c, 0, 74, 0
1, 16260, Note_on_c, 0, 62, 63
1, 16318, Note_on_c, 0, 62, 0
1, 16318, Note_on_c, 1, 59, 0
1, 16320, Note_on_c, 0, 69, 64
1, 16320, Note_on_c, 1, 54, 64
1, 16378, Note_on_c, 0, 69, 0
1, 16380, Note_on_c, 0, 62, 65
1, 16438, Note_on_c, 0, 62, 0
1, 16438, Note_on_c, 1, 54, 0
1, 16440, Note_on_c, 0, 68, 66
1, 16440, Note_on_c, 1, 53, 66
1, 16498, Note_on_c, 0, 68, 0
1, 16500, Note_on_c, 0, 62, 67
1, 16558, Note_on_c, 0, 62, 0
1, 16558, Note_on_c, 1, 53, 0
1, 16560, Note_on_c, 0, 69, 68
1, 16560, Note_on_c, 1, 54, 68
1, 16618, Note_on_c, 0, 69, 0
1, 16620, Note_on_c, 0, 62, 69
1, 16678, Note_on_c, 0, 62, 0
1, 16678, Note_on_c, 1, 54, 0
1, 16680, Note_on_c, 0, 72, 70
1, 16680, Note_on_c, 1, 57, 70
1, 16738, Note_on_c, 0, 72, 0
1, 16740, Note_on_c, 0, 62, 71
1, 16798, Note_on_c, 0, 62, 0
1, 16798, Note_on_c, 1, 57, 0
1, 16800, Note_on_c, 0, 71, 72
1, 16800, Note_on_c, 1, 55, 72
1, 16858, Note_on_c, 0, 71, 0
1, 16858, Note_on_c, 1, 55, 0
1, 16860, Note_on_c, 0, 62, 73
1, 16860, Note_on_c, 1, 59, 73
1, 16918, Note_on_c, 0, 62, 0
1, 16918, Note_on_c, 1, 59, 0
1, 16920, Note_on_c, 0, 71, 74
1, 16920, Note_on_c, 1, 55, 74
1, 16978, Note_on_c, 0, 71, 0
1, 16978, Note_on_c, 1, 55, 0
1, 16980, Note_on_c, 0, 62, 75
1, 16980, Note_on_c, 1, 59, 75
1, 17038, Note_on_c, 0, 62, 0
1, 17038, Note_on_c, 1, 59, 0
1, 17040, Note_on_c, 0, 69, 76
1, 17040, Note_on_c, 1, 54, 76
1, 17098, Note_on_c, 0, 69, 0
1, 17098, Note_on_c, 1, 54, 0
1, 17100, Note_on_c, 0, 63, 77
1, 17100, Note_on_c, 1, 60, 77
1, 17158, Note_on_c, 0, 63, 0
1, 17158, Note_on_c, 1, 60, 0
1, 17160, Note_on_c, 0, 69, 78
1, 17160, Note_on_c, 1, 54, 78
1, 17208, Note_on_c, 0, 69, 0
1, 17218, Note_on_c, 1, 54, 0
1, 17220, Note_on_c, 0, 63, 79
1, 17220, Note_on_c, 1, 60, 79
1, 17268, Note_on_c, 0, 63, 0
1, 17278, Note_on_c, 1, 60, 0
1, 17280, Note_on_c, 0, 67, 80
1, 17280, Note_on_c, 1, 55, 80
1, 17338, Note_on_c, 0, 67, 0
1, 17338, Note_on_c, 1, 55, 0
1, 17340, Note_on_c, 0, 64, 79
1, 17340, Note_on_c, 1, 59, 79
1, 17398, Note_on_c, 0, 64, 0
1, 17398, Note_on_c, 1, 59, 0
1, 17400, Note_on_c, 0, 67, 78
1, 17400, Note_on_c, 1, 55, 78
1, 17458, Note_on_c, 0, 67, 0
1, 17458, Note_on_c, 1, 55, 0
1, 17460, Note_on_c, 0, 64, 77
1, 17460, Note_on_c, 1, 59, 77
1, 17518, Note_on_c, 0, 64, 0
1, 17518, Note_on_c, 1, 59, 0
1, 17520, Note_on_c, 0, 66, 76
1, 17520, Note_on_c, 1, 57, 76
1, 17578, Note_on_c, 0, 66, 0
1, 17578, Note_on_c, 1, 57, 0
1, 17580, Note_on_c, 0, 63, 75
1, 17580, Note_on_c, 1, 60, 75
1, 17638, Note_on_c, 0, 63, 0
1, 17638, Note_on_c, 1, 60, 0
1, 17640, Note_on_c, 0, 66, 74
1, 17640, Note_on_c, 1, 57, 74
1, 17698, Note_on_c, 0, 66, 0
1, 17698, Note_on_c, 1, 57, 0
1, 17700, Note_on_c, 0, 63, 73
1, 17700, Note_on_c, 1, 60, 73
1, 17758, Note_on_c, 0, 63, 0
1, 17758, Note_on_c, 1, 60, 0
1, 17760, Note_on_c, 0, 67, 72
1, 17760, Note_on_c, 1, 55, 72
1, 17818, Note_on_c, 0, 67, 0
1, 17818, Note_on_c, 1, 55, 0
1, 17820, Note_on_c, 0, 64, 71
1, 17820, Note_on_c, 1, 59, 71
1, 17878, Note_on_c, 0, 64, 0
1, 17878, Note_on_c, 1, 59, 0
1, 17880, Note_on_c, 0, 67, 70
1, 17880, Note_on_c, 1, 55, 70
1, 17938, Note_on_c, 0, 67, 0
1, 17938, Note_on_c, 1, 55, 0
1, 17940, Note_on_c, 0, 64, 69
1, 17940, Note_on_c, 1, 59, 69
1, 17998, Note_on_c, 0, 64, 0
1, 17998, Note_on_c, 1, 59, 0
1, 18000, Note_on_c, 0, 66, 68
1, 18000, Note_on_c, 1, 56, 68
1, 18058, Note_on_c, 0, 66, 0
1, 18058, Note_on_c, 1, 56, 0
1, 18060, Note_on_c, 0, 62, 67
1, 18060, Note_on_c, 1, 59, 67
1, 18118, Note_on_c, 0, 62, 0
1, 18118, Note_on_c, 1, 59, 0
1, 18120, Note_on_c, 0, 66, 66
1, 18120, Note_on_c, 1, 56, 66
1, 18178, Note_on_c, 0, 66, 0
1, 18178, Note_on_c, 1, 56, 0
1, 18180, Note_on_c, 0, 62, 65
1, 18180, Note_on_c, 1, 59, 65
1, 18238, Note_on_c, 0, 62, 0
1, 18238, Note_on_c, 1, 59, 0
1, 18240, Note_on_c, 0, 61, 64
1, 18240, Note_on_c, 1, 45, 64
1, 18298, Note_on_c, 1, 45, 0
1, 18300, Note_on_c, 1, 57, 64
1, 18358, Note_on_c, 0, 61, 0
1, 18358, Note_on_c, 1, 57, 0
1, 18360, Note_on_c, 0, 62, 64
1, 18360, Note_on_c, 1, 47, 64
1, 18418, Note_on_c, 1, 47, 0
1, 18420, Note_on_c, 1, 57, 64
1, 18478, Note_on_c, 0, 62, 0
1, 18478, Note_on_c, 1, 57, 0
1, 18480, Note_on_c, 0, 64, 64
1, 18480, Note_on_c, 1, 49, 64
1, 18538, Note_on_c, 1, 49, 0
1, 18540, Note_on_c, 1, 57, 64
1, 18598, Note_on_c, 0, 64, 0
1, 18598, Note_on_c, 1, 57, 0
1, 18600, Note_on_c, 0, 67, 64
1, 18600, Note_on_c, 1, 50, 64
1, 18624, Note_on_c, 0, 67, 0
1, 18630, Note_on_c, 0, 66, 64
1, 18654, Note_on_c, 0, 66, 0
1, 18658, Note_on_c, 1, 50, 0
1, 18660, Note_on_c, 0, 64, 64
1, 18660, Note_on_c, 1, 57, 64
1, 18684, Note_on_c, 0, 64, 0
1, 18690, Note_on_c, 0, 66, 64
1, 18714, Note_on_c, 0, 66, 0
1, 18718, Note_on_c, 1, 57, 0
1, 18720, Note_on_c, 0, 67, 64
1, 18720, Note_on_c, 1, 52, 64
1, 18778, Note_on_c, 1, 52, 0
1, 18780, Note_on_c, 1, 57, 64
1, 18816, Note_on_c, 0, 67, 0
1, 18838, Note_on_c, 1, 57, 0
1, 18840, Note_on_c, 0, 66, 64
1, 18840, Note_on_c, 1, 51, 64
1, 18898, Note_on_c, 1, 51, 0
1, 18900, Note_on_c, 1, 57, 64
1, 18936, Note_on_c, 0, 66, 0
1, 18958, Note_on_c, 1, 57, 0
1, 18960, Note_on_c, 0, 67, 64
1, 18960, Note_on_c, 1, 52, 64
1, 19018, Note_on_c, 1, 52, 0
1, 19020, Note_on_c, 1, 57, 64
1, 19056, Note_on_c, 0, 67, 0
1, 19078, Note_on_c, 1, 57, 0
1, 19080, Note_on_c, 0, 64, 64
1, 19080, Note_on_c, 1, 49, 64
1, 19138, Note_on_c, 1, 49, 0
1, 19140, Note_on_c, 1, 57, 64
1, 19176, Note_on_c, 0, 64, 0
1, 19198, Note_on_c, 1, 57, 0
1, 19200, Note_on_c, 0, 66, 64
1, 19200, Note_on_c, 1, 50, 64
1, 19258, Note_on_c, 0, 66, 0
1, 19260, Note_on_c, 0, 62, 65
1, 19318, Note_on_c, 0, 62, 0
1, 19318, Note_on_c, 1, 50, 0
1, 19320, Note_on_c, 0, 67, 66
1, 19320, Note_on_c, 1, 52, 66
1, 19378, Note_on_c, 0, 67, 0
1, 19380, Note_on_c, 0, 62, 67
1, 19438, Note_on_c, 0, 62, 0
1, 19438, Note_on_c, 1, 52, 0
1, 19440, Note_on_c, 0, 69, 68
1, 19440, Note_on_c, 1, 54, 68
1, 19498, Note_on_c, 0, 69, 0
1, 19500, Note_on_c, 0, 62, 69
1, 19558, Note_on_c, 0, 62, 0
1, 19558, Note_on_c, 1, 54, 0
1, 19560, Note_on_c, 0, 71, 70
1, 19560, Note_on_c, 1, 55, 70
1, 19618, Note_on_c, 0, 71, 0
1, 19620, Note_on_c, 0, 62, 71
1, 19678, Note_on_c, 0, 62, 0
1, 19678, Note_on_c, 1, 55, 0
1, 19680, Note_on_c, 0, 72, 72
1, 19680, Note_on_c, 1, 57, 72
1, 19738, Note_on_c, 0, 72, 0
1, 19740, Note_on_c, 0, 62, 73
1, 19798, Note_on_c, 0, 62, 0
1, 19798, Note_on_c, 1, 57, 0
1, 19800, Note_on_c, 0, 71, 74
1, 19800, Note_on_c, 1, 55, 74
1, 19858, Note_on_c, 0, 71, 0
1, 19860, Note_on_c, 0, 62, 75
1, 19918, Note_on_c, 0, 62, 0
1, 19918, Note_on_c, 1, 55, 0
1, 19920, Note_on_c, 0, 72, 76
1, 19920, Note_on_c, 1, 57, 76
1, 19978, Note_on_c, 0, 72, 0
1, 19980, Note_on_c, 0, 62, 77
1, 20038, Note_on_c, 0, 62, 0
1, 20038, Note_on_c, 1, 57, 0
1, 20040, Note_on_c, 0, 69, 78
1, 20040, Note_on_c, 1, 54, 78
1, 20098, Note_on_c, 0, 69, 0
1, 20100, Note_on_c, 0, 62, 79
1, 20158, Note_on_c, 0, 62, 0
1, 20158, Note_on_c, 1, 54, 0
1, 20160, Note_on_c, 0, 71, 85
1, 20160, Note_on_c, 1, 55, 85
1, 20218, Note_on_c, 0, 71, 0
1, 20220, Note_on_c, 0, 62, 85
1, 20278, Note_on_c, 0, 62, 0
1, 20278, Note_on_c, 1, 55, 0
1, 20280, Note_on_c, 0, 70, 85
1, 20280, Note_on_c, 1, 54, 85
1, 20338, Note_on_c, 0, 70, 0
1, 20340, Note_on_c, 0, 62, 85
1, 20398, Note_on_c, 0, 62, 0
1, 20398, Note_on_c, 1, 54, 0
1, 20400, Note_on_c, 0, 71, 85
1, 20400, Note_on_c, 1, 55, 85
1, 20458, Note_on_c, 0, 71, 0
1, 20460, Note_on_c, 0, 62, 85
1, 20518, Note_on_c, 0, 62, 0
1, 20518, Note_on_c, 1, 55, 0
1, 20520, Note_on_c, 0, 73, 85
1, 20520, Note_on_c, 1, 67, 85
1, 20578, Note_on_c, 0, 73, 0
1, 20580, Note_on_c, 0, 64, 85
1, 20580, Note_on_c, 1, 67, 0
1, 20638, Note_on_c, 0, 64, 0
1, 20640, Note_on_c, 0, 74, 85
1, 20640, Note_on_c, 1, 66, 85
1, 20698, Note_on_c, 0, 74, 0
1, 20700, Note_on_c, 0, 62, 85
1, 20700, Note_on_c, 1, 66, 0
1, 20758, Note_on_c, 0, 62, 0
1, 20760, Note_on_c, 0, 76, 85
1, 20760, Note_on_c, 1, 61, 85
1, 20818, Note_on_c, 0, 76, 0
1, 20820, Note_on_c, 0, 70, 85
1, 20820, Note_on_c, 1, 61, 0
1, 20878, Note_on_c, 0, 70, 0
1, 20880, Note_on_c, 0, 78, 85
1, 20880, Note_on_c, 1, 62, 85
1, 20938, Note_on_c, 0, 78, 0
1, 20940, Note_on_c, 0, 70, 85
1, 20940, Note_on_c, 1, 62, 0
1, 20998, Note_on_c, 0, 70, 0
1, 21000, Note_on_c, 0, 79, 85
1, 21000, Note_on_c, 1, 64, 85
1, 21058, Note_on_c, 0, 79, 0
1, 21060, Note_on_c, 0, 70, 85
1, 21060, Note_on_c, 1, 64, 0
1, 21118, Note_on_c, 0, 70, 0
1, 21120, Note_on_c, 0, 81, 85
1, 21120, Note_on_c, 1, 66, 85
1, 21180, Note_on_c, 0, 81, 0
1, 21240, Note_on_c, 0, 86, 85
1, 21278, Note_on_c, 0, 86, 0
1, 21280, Note_on_c, 0, 85, 85
1, 21318, Note_on_c, 0, 85, 0
1, 21320, Note_on_c, 0, 83, 85
1, 21358, Note_on_c, 0, 83, 0
1, 21358, Note_on_c, 1, 66, 0
1, 21360, Note_on_c, 0, 81, 85
1, 21398, Note_on_c, 0, 81, 0
1, 21400, Note_on_c, 0, 79, 85
1, 21438, Note_on_c, 0, 79, 0
1, 21440, Note_on_c, 0, 78, 85
1, 21478, Note_on_c, 0, 78, 0
1, 21480, Note_on_c, 0, 76, 85
1, 21518, Note_on_c, 0, 76, 0
1, 21520, Note_on_c, 0, 74, 85
1, 21558, Note_on_c, 0, 74, 0
1, 21560, Note_on_c, 0, 73, 85
1, 21598, Note_on_c, 0, 73, 0
1, 21600, Note_on_c, 0, 71, 85
1, 21600, Note_on_c, 1, 55, 85
1, 21660, Note_on_c, 0, 71, 0
1, 21720, Note_on_c, 0, 66, 85
1, 21758, Note_on_c, 0, 66, 0
1, 21760, Note_on_c, 0, 67, 85
1, 21798, Note_on_c, 0, 67, 0
1, 21800, Note_on_c, 0, 69, 85
1, 21838, Note_on_c, 0, 69, 0
1, 21838, Note_on_c, 1, 55, 0
1, 21840, Note_on_c, 0, 71, 85
1, 21878, Note_on_c, 0, 71, 0
1, 21880, Note_on_c, 0, 73, 85
1, 21918, Note_on_c, 0, 73, 0
1, 21920, Note_on_c, 0, 74, 85
1, 21958, Note_on_c, 0, 74, 0
1, 21960, Note_on_c, 0, 76, 85
1, 21998, Note_on_c, 0, 76, 0
1, 22000, Note_on_c, 0, 78, 85
1, 22038, Note_on_c, 0, 78, 0
1, 22040, Note_on_c, 0, 79, 85
1, 22078, Note_on_c, 0, 79, 0
1, 22080, Note_on_c, 0, 81, 85
1, 22140, Note_on_c, 0, 81, 0
1, 22200, Note_on_c, 0, 78, 85
1, 22200, Note_on_c, 1, 54, 85
1, 22238, Note_on_c, 0, 78, 0
1, 22240, Note_on_c, 0, 76, 85
1, 22260, Note_on_c, 1, 54, 0
1, 22278, Note_on_c, 0, 76, 0
1, 22280, Note_on_c, 0, 74, 85
1, 22318, Note_on_c, 0, 74, 0
1, 22320, Note_on_c, 0, 76, 80
1, 22320, Note_on_c, 1, 55, 85
1, 22344, Note_on_c, 0, 76, 0
1, 22350, Note_on_c, 0, 78, 80
1, 22374, Note_on_c, 0, 78, 0
1, 22380, Note_on_c, 0, 76, 80
1, 22380, Note_on_c, 1, 55, 0
1, 22404, Note_on_c, 0, 76, 0
1, 22410, Note_on_c, 0, 78, 80
1, 22434, Note_on_c, 0, 78, 0
1, 22440, Note_on_c, 0, 76, 80
1, 22440, Note_on_c, 1, 57, 85
1, 22456, Note_on_c, 0, 76, 0
1, 22460, Note_on_c, 0, 78, 80
1, 22476, Note_on_c, 0, 78, 0
1, 22480, Note_on_c, 0, 76, 80
1, 22496, Note_on_c, 0, 76, 0
1, 22500, Note_on_c, 0, 74, 80
1, 22500, Note_on_c, 1, 57, 0
1, 22524, Note_on_c, 0, 74, 0
1, 22530, Note_on_c, 0, 76, 80
1, 22554, Note_on_c, 0, 76, 0
1, 22560, Note_on_c, 0, 74, 80
1, 22560, Note_on_c, 1, 50, 85
1, 22620, Note_on_c, 0, 74, 0
1, 22680, Note_on_c, 0, 86, 64
1, 22712, Note_on_c, 0, 86, 0
1, 22720, Note_on_c, 0, 85, 64
1, 22752, Note_on_c, 0, 85, 0
1, 22760, Note_on_c, 0, 83, 64
1, 22792, Note_on_c, 0, 83, 0
1, 22798, Note_on_c, 1, 50, 0
1, 22800, Note_on_c, 0, 81, 64
1, 22832, Note_on_c, 0, 81, 0
1, 22840, Note_on_c, 0, 79, 64
1, 22872, Note_on_c, 0, 79, 0
1, 22880, Note_on_c, 0, 78, 64
1, 22912, Note_on_c, 0, 78, 0
1, 22920, Note_on_c, 0, 76, 64
1, 22952, Note_on_c, 0, 76, 0
1, 22960, Note_on_c, 0, 74, 64
1, 22992, Note_on_c, 0, 74, 0
1, 23000, Note_on_c, 0, 73, 64
1, 23032, Note_on_c, 0, 73, 0
1, 23040, Note_on_c, 0, 71, 64
1, 23040, Note_on_c, 1, 55, 64
1, 23158, Note_on_c, 0, 71, 0
1, 23160, Note_on_c, 0, 66, 64
1, 23198, Note_on_c, 0, 66, 0
1, 23200, Note_on_c, 0, 67, 64
1, 23238, Note_on_c, 0, 67, 0
1, 23240, Note_on_c, 0, 69, 64
1, 23278, Note_on_c, 0, 69, 0
1, 23278, Note_on_c, 1, 55, 0
1, 23280, Note_on_c, 0, 71, 64
1, 23318, Note_on_c, 0, 71, 0
1, 23320, Note_on_c, 0, 73, 64
1, 23358, Note_on_c, 0, 73, 0
1, 23360, Note_on_c, 0, 74, 64
1, 23398, Note_on_c, 0, 74, 0
1, 23400, Note_on_c, 0, 76, 64
1, 23438, Note_on_c, 0, 76, 0
1, 23440, Note_on_c, 0, 78, 64
1, 23478, Note_on_c, 0, 78, 0
1, 23480, Note_on_c, 0, 79, 64
1, 23518, Note_on_c, 0, 79, 0
1, 23520, Note_on_c, 0, 81, 64
1, 23638, Note_on_c, 0, 81, 0
1, 23640, Note_on_c, 0, 78, 64
1, 23640, Note_on_c, 1, 54, 64
1, 23678, Note_on_c, 0, 78, 0
1, 23680, Note_on_c, 0, 76, 64
1, 23700, Note_on_c, 1, 54, 0
1, 23718, Note_on_c, 0, 76, 0
1, 23720, Note_on_c, 0, 74, 64
1, 23758, Note_on_c, 0, 74, 0
1, 23760, Note_on_c, 0, 76, 64
1, 23760, Note_on_c, 1, 55, 64
1, 23784, Note_on_c, 0, 76, 0
1, 23790, Note_on_c, 0, 78, 64
1, 23814, Note_on_c, 0, 78, 0
1, 23820, Note_on_c, 0, 76, 64
1, 23820, Note_on_c, 1, 55, 0
1, 23844, Note_on_c, 0, 76, 0
1, 23850, Note_on_c, 0, 78, 64
1, 23874, Note_on_c, 0, 78, 0
1, 23880, Note_on_c, 0, 76, 64
1, 23880, Note_on_c, 1, 57, 64
1, 23896, Note_on_c, 0, 76, 0
1, 23900, Note_on_c, 0, 78, 64
1, 23916, Note_on_c, 0, 78, 0
1, 23920, Note_on_c, 0, 76, 64
1, 23936, Note_on_c, 0, 76, 0
1, 23940, Note_on_c, 0, 74, 64
1, 23940, Note_on_c, 1, 57, 0
1, 23964, Note_on_c, 0, 74, 0
1, 23970, Note_on_c, 0, 76, 64
1, 23994, Note_on_c, 0, 76, 0
1, 24000, Note_on_c, 0, 74, 64
1, 24000, Note_on_c, 1, 50, 64
1, 24118, Note_on_c, 0, 74, 0
1, 24118, Note_on_c, 1, 50, 0
1, 24120, Note_on_c, 0, 66, 64
1, 24120, Note_on_c, 1, 62, 64
1, 24178, Note_on_c, 0, 66, 0
1, 24180, Note_on_c, 0, 74, 64
1, 24238, Note_on_c, 0, 74, 0
1, 24238, Note_on_c, 1, 62, 0
1, 24240, Note_on_c, 0, 67, 64
1, 24240, Note_on_c, 1, 64, 64
1, 24298, Note_on_c, 0, 67, 0
1, 24300, Note_on_c, 0, 74, 64
1, 24358, Note_on_c, 0, 74, 0
1, 24358, Note_on_c, 1, 64, 0
1, 24360, Note_on_c, 0, 69, 64
1, 24360, Note_on_c, 1, 66, 64
1, 24418, Note_on_c, 0, 69, 0
1, 24420, Note_on_c, 0, 74, 64
1, 24478, Note_on_c, 0, 74, 0
1, 24478, Note_on_c, 1, 66, 0
1, 24480, Note_on_c, 0, 71, 64
1, 24480, Note_on_c, 1, 67, 64
1, 24538, Note_on_c, 0, 71, 0
1, 24540, Note_on_c, 0, 74, 64
1, 24598, Note_on_c, 0, 74, 0
1, 24598, Note_on_c, 1, 67, 0
1, 24600, Note_on_c, 0, 70, 64
1, 24600, Note_on_c, 1, 66, 64
1, 24658, Note_on_c, 0, 70, 0
1, 24660, Note_on_c, 0, 74, 64
1, 24718, Note_on_c, 0, 74, 0
1, 24718, Note_on_c, 1, 66, 0
1, 24720, Note_on_c, 0, 71, 64
1, 24720, Note_on_c, 1, 67, 64
1, 24778, Note_on_c, 0, 71, 0
1, 24780, Note_on_c, 0, 74, 64
1, 24838, Note_on_c, 0, 74, 0
1, 24838, Note_on_c, 1, 67, 0
1, 24840, Note_on_c, 0, 73, 64
1, 24840, Note_on_c, 1, 69, 64
1, 24898, Note_on_c, 0, 73, 0
1, 24900, Note_on_c, 0, 79, 64
1, 24958, Note_on_c, 0, 79, 0
1, 24958, Note_on_c, 1, 69, 0
1, 24960, Note_on_c, 0, 78, 64
1, 24960, Note_on_c, 1, 71, 64
1, 25018, Note_on_c, 0, 78, 0
1, 25020, Note_on_c, 0, 74, 64
1, 25078, Note_on_c, 0, 74, 0
1, 25078, Note_on_c, 1, 71, 0
1, 25080, Note_on_c, 0, 67, 64
1, 25080, Note_on_c, 1, 55, 64
1, 25138, Note_on_c, 0, 67, 0
1, 25140, Note_on_c, 0, 76, 64
1, 25140, Note_on_c, 1, 55, 0
1, 25198, Note_on_c, 0, 76, 0
1, 25200, Note_on_c, 0, 66, 64
1, 25200, Note_on_c, 1, 57, 64
1, 25258, Note_on_c, 0, 66, 0
1, 25260, Note_on_c, 0, 74, 64
1, 25260, Note_on_c, 1, 57, 0
1, 25318, Note_on_c, 0, 74, 0
1, 25320, Note_on_c, 0, 64, 64
1, 25320, Note_on_c, 1, 45, 64
1, 25378, Note_on_c, 0, 64, 0
1, 25380, Note_on_c, 0, 73, 64
1, 25380, Note_on_c, 1, 45, 0
1, 25438, Note_on_c, 0, 73, 0
1, 25440, Note_on_c, 0, 66, 64
1, 25440, Note_on_c, 0, 74, 64
1, 25440, Note_on_c, 1, 50, 64
1, 25512, Note_on_c, 0, 74, 0
1, 25512, Note_on_c, 0, 66, 0
1, 25512, Note_on_c, 1, 50, 0
1, 25560, Note_on_c, 0, 66, 80
1, 25560, Note_on_c, 1, 38, 80
1, 25618, Note_on_c, 0, 66, 0
1, 25618, Note_on_c, 1, 38, 0
1, 25620, Note_on_c, 0, 74, 80
1, 25620, Note_on_c, 1, 50, 80
1, 25678, Note_on_c, 0, 74, 0
1, 25678, Note_on_c, 1, 50, 0
1, 25680, Note_on_c, 0, 67, 80
1, 25680, Note_on_c, 1, 40, 80
1, 25738, Note_on_c, 0, 67, 0
1, 25738, Note_on_c, 1, 40, 0
1, 25740, Note_on_c, 0, 74, 80
1, 25740, Note_on_c, 1, 52, 80
1, 25798, Note_on_c, 0, 74, 0
1, 25798, Note_on_c, 1, 52, 0
1, 25800, Note_on_c, 0, 69, 80
1, 25800, Note_on_c, 1, 42, 80
1, 25858, Note_on_c, 0, 69, 0
1, 25858, Note_on_c, 1, 42, 0
1, 25860, Note_on_c, 0, 74, 80
1, 25860, Note_on_c, 1, 54, 80
1, 25918, Note_on_c, 0, 74, 0
1, 25918, Note_on_c, 1, 54, 0
1, 25920, Note_on_c, 0, 71, 85
1, 25920, Note_on_c, 1, 43, 85
1, 25978, Note_on_c, 0, 71, 0
1, 25978, Note_on_c, 1, 43, 0
1, 25980, Note_on_c, 0, 74, 85
1, 25980, Note_on_c, 1, 55, 85
1, 26038, Note_on_c, 0, 74, 0
1, 26038, Note_on_c, 1, 55, 0
1, 26040, Note_on_c, 0, 70, 85
1, 26040, Note_on_c, 1, 42, 85
1, 26098, Note_on_c, 0, 70, 0
1, 26098, Note_on_c, 1, 42, 0
1, 26100, Note_on_c, 0, 74, 85
1, 26100, Note_on_c, 1, 54, 85
1, 26158, Note_on_c, 0, 74, 0
1, 26158, Note_on_c, 1, 54, 0
1, 26160, Note_on_c, 0, 71, 85
1, 26160, Note_on_c, 1, 43, 85
1, 26218, Note_on_c, 0, 71, 0
1, 26218, Note_on_c, 1, 43, 0
1, 26220, Note_on_c, 0, 74, 85
1, 26220, Note_on_c, 1, 55, 85
1, 26278, Note_on_c, 0, 74, 0
1, 26278, Note_on_c, 1, 55, 0
1, 26280, Note_on_c, 0, 73, 85
1, 26280, Note_on_c, 1, 45, 85
1, 26338, Note_on_c, 0, 73, 0
1, 26338, Note_on_c, 1, 45, 0
1, 26340, Note_on_c, 0, 79, 85
1, 26340, Note_on_c, 1, 57, 85
1, 26398, Note_on_c, 0, 79, 0
1, 26398, Note_on_c, 1, 57, 0
1, 26400, Note_on_c, 0, 78, 85
1, 26400, Note_on_c, 1, 47, 85
1, 26458, Note_on_c, 0, 78, 0
1, 26458, Note_on_c, 1, 47, 0
1, 26460, Note_on_c, 0, 74, 85
1, 26460, Note_on_c, 1, 59, 85
1, 26518, Note_on_c, 0, 74, 0
1, 26518, Note_on_c, 1, 59, 0
1, 26520, Note_on_c, 0, 67, 85
1, 26520, Note_on_c, 1, 55, 85
1, 26578, Note_on_c, 0, 67, 0
1, 26580, Note_on_c, 0, 76, 85
1, 26580, Note_on_c, 1, 55, 0
1, 26638, Note_on_c, 0, 76, 0
1, 26640, Note_on_c, 0, 66, 85
1, 26640, Note_on_c, 1, 57, 85
1, 26698, Note_on_c, 0, 66, 0
1, 26700, Note_on_c, 0, 74, 85
1, 26700, Note_on_c, 1, 57, 0
1, 26758, Note_on_c, 0, 74, 0
1, 26760, Note_on_c, 0, 64, 85
1, 26760, Note_on_c, 1, 45, 85
1, 26818, Note_on_c, 0, 64, 0
1, 26820, Note_on_c, 0, 73, 85
1, 26820, Note_on_c, 1, 45, 0
1, 26878, Note_on_c, 0, 73, 0
1, 26880, Note_on_c, 0, 66, 85
1, 26880, Note_on_c, 0, 74, 85
1, 26880, Note_on_c, 1, 50, 85
1, 26998, Note_on_c, 0, 74, 0
1, 26998, Note_on_c, 0, 66, 0
1, 27000, Note_on_c, 0, 74, 85
1, 27000, Note_on_c, 0, 78, 85
1, 27060, Note_on_c, 0, 78, 0
1, 27060, Note_on_c, 0, 74, 0
1, 27118, Note_on_c, 1, 50, 0
1, 27120, Note_on_c, 0, 78, 85
1, 27120, Note_on_c, 0, 81, 85
1, 27180, Note_on_c, 0, 81, 0
1, 27180, Note_on_c, 0, 78, 0
1, 27240, Note_on_c, 0, 74, 85
1, 27240, Note_on_c, 0, 78, 85
1, 27300, Note_on_c, 0, 78, 0
1, 27300, Note_on_c, 0, 74, 0
1, 27360, Note_on_c, 0, 74, 96
1, 27360, Note_on_c, 0, 78, 96
1, 27360, Note_on_c, 0, 81, 96
1, 27360, Note_on_c, 0, 86, 96
1, 27360, Note_on_c, 1, 38, 96
1, 27360, Note_on_c, 1, 42, 96
1, 27360, Note_on_c, 1, 45, 96
1, 27360, Note_on_c, 1, 50, 96
1, 27598, Note_on_c, 0, 86, 0
1, 27598, Note_on_c, 0, 74, 0
1, 27598, Note_on_c, 0, 78, 0
1, 27598, Note_on_c, 0, 81, 0
1, 27598, Note_on_c, 1, 50, 0
1, 27598, Note_on_c, 1, 38, 0
1, 27598, Note_on_c, 1, 42, 0
1, 27598, Note_on_c, 1, 45, 0
1, 27780, Note_on_c, 0, 60, 80
1, 27804, Note_on_c, 0, 60, 0
1, 27810, Note_on_c, 0, 59, 80
1, 27834, Note_on_c, 0, 59, 0
1, 27840, Note_on_c, 0, 60, 85
1, 27960, Note_on_c, 1, 50, 85
1, 28008, Note_on_c, 1, 50, 0
1, 28080, Note_on_c, 1, 54, 85
1, 28198, Note_on_c, 1, 54, 0
1, 28200, Note_on_c, 1, 50, 64
1, 28224, Note_on_c, 0, 60, 0
1, 28260, Note_on_c, 0, 69, 80
1, 28284, Note_on_c, 0, 69, 0
1, 28290, Note_on_c, 0, 68, 80
1, 28314, Note_on_c, 0, 68, 0
1, 28320, Note_on_c, 0, 69, 80
1, 28320, Note_on_c, 1, 50, 0
1, 28440, Note_on_c, 1, 48, 85
1, 28488, Note_on_c, 1, 48, 0
1, 28560, Note_on_c, 1, 54, 85
1, 28673, Note_on_c, 1, 54, 0
1, 28680, Note_on_c, 1, 48, 64
1, 28704, Note_on_c, 0, 69, 0
1, 28740, Note_on_c, 0, 78, 80
1, 28764, Note_on_c, 0, 78, 0
1, 28770, Note_on_c, 0, 77, 80
1, 28793, Note_on_c, 1, 48, 0
1, 28794, Note_on_c, 0, 77, 0
1, 28800, Note_on_c, 0, 78, 85
1, 28920, Note_on_c, 1, 45, 85
1, 28980, Note_on_c, 1, 45, 0
1, 29040, Note_on_c, 1, 51, 85
1, 29158, Note_on_c, 1, 51, 0
1, 29160, Note_on_c, 1, 45, 64
1, 29278, Note_on_c, 0, 78, 0
1, 29278, Note_on_c, 1, 45, 0
1, 29280, Note_on_c, 0, 84, 85
1, 29400, Note_on_c, 1, 42, 85
1, 29472, Note_on_c, 1, 42, 0
1, 29520, Note_on_c, 1, 51, 85
1, 29638, Note_on_c, 0, 84, 0
1, 29638, Note_on_c, 1, 51, 0
1, 29640, Note_on_c, 0, 63, 80
1, 29640, Note_on_c, 1, 57, 85
1, 29688, Note_on_c, 0, 63, 0
1, 29700, Note_on_c, 0, 64, 80
1, 29724, Note_on_c, 0, 64, 0
1, 29730, Note_on_c, 0, 63, 80
1, 29754, Note_on_c, 0, 63, 0
1, 29758, Note_on_c, 1, 57, 0
1, 29760, Note_on_c, 0, 64, 85
1, 29880, Note_on_c, 1, 52, 85
1, 29928, Note_on_c, 1, 52, 0
1, 30000, Note_on_c, 1, 55, 85
1, 30118, Note_on_c, 1, 55, 0
1, 30120, Note_on_c, 1, 52, 64
1, 30144, Note_on_c, 0, 64, 0
1, 30180, Note_on_c, 0, 71, 80
1, 30204, Note_on_c, 0, 71, 0
1, 30210, Note_on_c, 0, 70, 80
1, 30234, Note_on_c, 0, 70, 0
1, 30238, Note_on_c, 1, 52, 0
1, 30240, Note_on_c, 0, 71, 80
1, 30360, Note_on_c, 1, 51, 85
1, 30408, Note_on_c, 1, 51, 0
1, 30480, Note_on_c, 1, 54, 85
1, 30598, Note_on_c, 1, 54, 0
1, 30600, Note_on_c, 1, 47, 64
1, 30624, Note_on_c, 0, 71, 0
1, 30718, Note_on_c, 1, 47, 0
1, 30720, Note_on_c, 0, 76, 85
1, 30840, Note_on_c, 1, 48, 68
1, 30958, Note_on_c, 1, 48, 0
1, 30960, Note_on_c, 1, 47, 72
1, 31008, Note_on_c, 1, 47, 0
1, 31078, Note_on_c, 0, 76, 0
1, 31080, Note_on_c, 0, 78, 85
1, 31080, Note_on_c, 1, 45, 76
1, 31128, Note_on_c, 1, 45, 0
1, 31168, Note_on_c, 0, 78, 0
1, 31170, Note_on_c, 0, 79, 85
1, 31198, Note_on_c, 0, 79, 0
1, 31200, Note_on_c, 0, 76, 85
1, 31200, Note_on_c, 1, 43, 80
1, 31318, Note_on_c, 0, 76, 0
1, 31320, Note_on_c, 0, 83, 67
1, 31368, Note_on_c, 0, 83, 0
1, 31438, Note_on_c, 1, 43, 0
1, 31440, Note_on_c, 0, 83, 72
1, 31512, Note_on_c, 0, 83, 0
1, 31560, Note_on_c, 0, 83, 77
1, 31656, Note_on_c, 0, 83, 0
1, 31680, Note_on_c, 0, 83, 88
1, 31800, Note_on_c, 1, 63, 85
1, 31800, Note_on_c, 1, 66, 85
1, 31905, Note_on_c, 0, 83, 0
1, 31918, Note_on_c, 1, 66, 0
1, 31918, Note_on_c, 1, 63, 0
1, 31920, Note_on_c, 0, 84, 80
1, 31920, Note_on_c, 1, 66, 85
1, 31920, Note_on_c, 1, 63, 85
1, 31944, Note_on_c, 0, 84, 0
1, 31950, Note_on_c, 0, 83, 80
1, 31974, Note_on_c, 0, 83, 0
1, 31980, Note_on_c, 0, 81, 80
1, 32004, Note_on_c, 0, 81, 0
1, 32010, Note_on_c, 0, 83, 80
1, 32034, Note_on_c, 0, 83, 0
1, 32038, Note_on_c, 1, 63, 0
1, 32038, Note_on_c, 1, 66, 0
1, 32040, Note_on_c, 0, 84, 80
1, 32040, Note_on_c, 1, 66, 85
1, 32040, Note_on_c, 1, 63, 85
1, 32112, Note_on_c, 0, 84, 0
1, 32130, Note_on_c, 0, 81, 80
1, 32154, Note_on_c, 0, 81, 0
1, 32158, Note_on_c, 1, 63, 0
1, 32158, Note_on_c, 1, 66, 0
1, 32160, Note_on_c, 0, 81, 80
1, 32280, Note_on_c, 1, 71, 85
1, 32280, Note_on_c, 1, 64, 85
1, 32352, Note_on_c, 0, 81, 0
1, 32398, Note_on_c, 1, 64, 0
1, 32398, Note_on_c, 1, 71, 0
1, 32400, Note_on_c, 0, 79, 80
1, 32400, Note_on_c, 1, 71, 85
1, 32400, Note_on_c, 1, 64, 85
1, 32496, Note_on_c, 0, 79, 0
1, 32518, Note_on_c, 1, 64, 0
1, 32518, Note_on_c, 1, 71, 0
1, 32520, Note_on_c, 0, 83, 80
1, 32520, Note_on_c, 1, 67, 85
1, 32592, Note_on_c, 0, 83, 0
1, 32610, Note_on_c, 0, 76, 80
1, 32634, Note_on_c, 0, 76, 0
1, 32638, Note_on_c, 1, 67, 0
1, 32640, Note_on_c, 0, 79, 80
1, 32640, Note_on_c, 1, 69, 85
1, 32688, Note_on_c, 0, 79, 0
1, 32700, Note_on_c, 0, 78, 80
1, 32748, Note_on_c, 0, 78, 0
1, 32758, Note_on_c, 1, 69, 0
1, 32760, Note_on_c, 0, 76, 80
1, 32760, Note_on_c, 1, 67, 85
1, 32856, Note_on_c, 0, 76, 0
1, 32878, Note_on_c, 1, 67, 0
1, 32880, Note_on_c, 0, 79, 80
1, 32880, Note_on_c, 1, 69, 85
1, 32928, Note_on_c, 0, 79, 0
1, 32940, Note_on_c, 0, 78, 80
1, 32988, Note_on_c, 0, 78, 0
1, 32998, Note_on_c, 1, 69, 0
1, 33000, Note_on_c, 0, 76, 80
1, 33000, Note_on_c, 1, 71, 85
1, 33048, Note_on_c, 0, 76, 0
1, 33060, Note_on_c, 0, 75, 80
1, 33108, Note_on_c, 0, 75, 0
1, 33118, Note_on_c, 1, 71, 0
1, 33120, Note_on_c, 0, 76, 64
1, 33120, Note_on_c, 1, 68, 48
1, 33180, Note_on_c, 1, 68, 0
1, 33180, Note_on_c, 1, 71, 48
1, 33216, Note_on_c, 0, 76, 0
1, 33240, Note_on_c, 0, 74, 64
1, 33240, Note_on_c, 1, 71, 0
1, 33240, Note_on_c, 1, 68, 48
1, 33300, Note_on_c, 1, 68, 0
1, 33300, Note_on_c, 1, 71, 48
1, 33336, Note_on_c, 0, 74, 0
1, 33360, Note_on_c, 0, 83, 64
1, 33360, Note_on_c, 1, 71, 0
1, 33360, Note_on_c, 1, 68, 48
1, 33420, Note_on_c, 1, 68, 0
1, 33420, Note_on_c, 1, 71, 48
1, 33480, Note_on_c, 1, 71, 0
1, 33480, Note_on_c, 1, 68, 48
1, 33540, Note_on_c, 1, 68, 0
1, 33540, Note_on_c, 1, 71, 48
1, 33600, Note_on_c, 1, 71, 0
1, 33600, Note_on_c, 1, 68, 48
1, 33648, Note_on_c, 0, 83, 0
1, 33660, Note_on_c, 0, 81, 64
1, 33660, Note_on_c, 1, 68, 0
1, 33660, Note_on_c, 1, 71, 48
1, 33708, Note_on_c, 0, 81, 0
1, 33720, Note_on_c, 0, 80, 64
1, 33720, Note_on_c, 1, 71, 0
1, 33720, Note_on_c, 1, 68, 48
1, 33768, Note_on_c, 0, 80, 0
1, 33780, Note_on_c, 0, 81, 64
1, 33780, Note_on_c, 1, 68, 0
1, 33780, Note_on_c, 1, 71, 48
1, 33828, Note_on_c, 0, 81, 0
1, 33840, Note_on_c, 0, 80, 64
1, 33840, Note_on_c, 1, 71, 0
1, 33840, Note_on_c, 1, 68, 48
1, 33888, Note_on_c, 0, 80, 0
1, 33900, Note_on_c, 0, 78, 64
1, 33900, Note_on_c, 1, 68, 0
1, 33900, Note_on_c, 1, 71, 48
1, 33948, Note_on_c, 0, 78, 0
1, 33960, Note_on_c, 0, 76, 64
1, 33960, Note_on_c, 1, 71, 0
1, 33960, Note_on_c, 1, 68, 48
1, 34008, Note_on_c, 0, 76, 0
1, 34020, Note_on_c, 0, 74, 64
1, 34020, Note_on_c, 1, 68, 0
1, 34020, Note_on_c, 1, 71, 48
1, 34044, Note_on_c, 0, 74, 0
1, 34050, Note_on_c, 0, 76, 64
1, 34074, Note_on_c, 0, 76, 0
1, 34080, Note_on_c, 0, 74, 64
1, 34080, Note_on_c, 1, 71, 0
1, 34080, Note_on_c, 1, 65, 48
1, 34140, Note_on_c, 1, 65, 0
1, 34140, Note_on_c, 1, 68, 48
1, 34176, Note_on_c, 0, 74, 0
1, 34200, Note_on_c, 0, 73, 64
1, 34200, Note_on_c, 1, 68, 0
1, 34200, Note_on_c, 1, 65, 48
1, 34260, Note_on_c, 1, 65, 0
1, 34260, Note_on_c, 1, 68, 48
1, 34296, Note_on_c, 0, 73, 0
1, 34320, Note_on_c, 0, 80, 64
1, 34320, Note_on_c, 1, 68, 0
1, 34320, Note_on_c, 1, 65, 48
1, 34380, Note_on_c, 1, 65, 0
1, 34380, Note_on_c, 1, 68, 48
1, 34440, Note_on_c, 1, 68, 0
1, 34440, Note_on_c, 1, 65, 48
1, 34500, Note_on_c, 1, 65, 0
1, 34500, Note_on_c, 1, 68, 48
1, 34560, Note_on_c, 1, 68, 0
1, 34560, Note_on_c, 1, 65, 72
1, 34608, Note_on_c, 0, 80, 0
1, 34618, Note_on_c, 1, 65, 0
1, 34620, Note_on_c, 0, 78, 65
1, 34620, Note_on_c, 1, 68, 72
1, 34668, Note_on_c, 0, 78, 0
1, 34678, Note_on_c, 1, 68, 0
1, 34680, Note_on_c, 0, 77, 66
1, 34680, Note_on_c, 1, 65, 72
1, 34728, Note_on_c, 0, 77, 0
1, 34738, Note_on_c, 1, 65, 0
1, 34740, Note_on_c, 0, 78, 67
1, 34740, Note_on_c, 1, 68, 72
1, 34788, Note_on_c, 0, 78, 0
1, 34798, Note_on_c, 1, 68, 0
1, 34800, Note_on_c, 0, 77, 68
1, 34800, Note_on_c, 1, 65, 72
1, 34848, Note_on_c, 0, 77, 0
1, 34858, Note_on_c, 1, 65, 0
1, 34860, Note_on_c, 0, 74, 69
1, 34860, Note_on_c, 1, 68, 72
1, 34908, Note_on_c, 0, 74, 0
1, 34918, Note_on_c, 1, 68, 0
1, 34920, Note_on_c, 0, 73, 70
1, 34920, Note_on_c, 1, 65, 72
1, 34968, Note_on_c, 0, 73, 0
1, 34978, Note_on_c, 1, 65, 0
1, 34980, Note_on_c, 0, 71, 71
1, 34980, Note_on_c, 1, 68, 72
1, 35028, Note_on_c, 0, 71, 0
1, 35038, Note_on_c, 1, 68, 0
1, 35040, Note_on_c, 0, 69, 72
1, 35040, Note_on_c, 1, 66, 72
1, 35098, Note_on_c, 1, 66, 0
1, 35100, Note_on_c, 1, 69, 72
1, 35112, Note_on_c, 0, 69, 0
1, 35130, Note_on_c, 0, 73, 74
1, 35154, Note_on_c, 0, 73, 0
1, 35158, Note_on_c, 1, 69, 0
1, 35160, Note_on_c, 0, 74, 74
1, 35160, Note_on_c, 1, 66, 72
1, 35184, Note_on_c, 0, 74, 0
1, 35190, Note_on_c, 0, 73, 75
1, 35214, Note_on_c, 0, 73, 0
1, 35218, Note_on_c, 1, 66, 0
1, 35220, Note_on_c, 0, 71, 75
1, 35220, Note_on_c, 1, 69, 72
1, 35244, Note_on_c, 0, 71, 0
1, 35250, Note_on_c, 0, 73, 76
1, 35274, Note_on_c, 0, 73, 0
1, 35278, Note_on_c, 1, 69, 0
1, 35280, Note_on_c, 0, 81, 76
1, 35280, Note_on_c, 1, 66, 72
1, 35338, Note_on_c, 1, 66, 0
1, 35340, Note_on_c, 1, 69, 72
1, 35398, Note_on_c, 1, 69, 0
1, 35400, Note_on_c, 1, 66, 72
1, 35458, Note_on_c, 1, 66, 0
1, 35460, Note_on_c, 1, 69, 72
1, 35518, Note_on_c, 1, 69, 0
1, 35520, Note_on_c, 1, 62, 72
1, 35578, Note_on_c, 1, 62, 0
1, 35580, Note_on_c, 1, 66, 73
1, 35616, Note_on_c, 0, 81, 0
1, 35638, Note_on_c, 1, 66, 0
1, 35640, Note_on_c, 0, 80, 80
1, 35640, Note_on_c, 1, 62, 73
1, 35688, Note_on_c, 0, 80, 0
1, 35698, Note_on_c, 1, 62, 0
1, 35700, Note_on_c, 0, 78, 80
1, 35700, Note_on_c, 1, 66, 74
1, 35748, Note_on_c, 0, 78, 0
1, 35758, Note_on_c, 1, 66, 0
1, 35760, Note_on_c, 0, 76, 80
1, 35760, Note_on_c, 1, 62, 74
1, 35808, Note_on_c, 0, 76, 0
1, 35818, Note_on_c, 1, 62, 0
1, 35820, Note_on_c, 0, 74, 80
1, 35820, Note_on_c, 1, 66, 75
1, 35868, Note_on_c, 0, 74, 0
1, 35878, Note_on_c, 1, 66, 0
1, 35880, Note_on_c, 0, 73, 80
1, 35880, Note_on_c, 1, 62, 75
1, 35928, Note_on_c, 0, 73, 0
1, 35938, Note_on_c, 1, 62, 0
1, 35940, Note_on_c, 0, 72, 80
1, 35940, Note_on_c, 1, 66, 76
1, 35988, Note_on_c, 0, 72, 0
1, 35998, Note_on_c, 1, 66, 0
1, 36000, Note_on_c, 0, 72, 80
1, 36000, Note_on_c, 1, 66, 76
1, 36000, Note_on_c, 1, 61, 76
1, 36192, Note_on_c, 0, 72, 0
1, 36238, Note_on_c, 1, 61, 0
1, 36238, Note_on_c, 1, 66, 0
1, 36240, Note_on_c, 0, 73, 80
1, 36240, Note_on_c, 1, 65, 78
1, 36240, Note_on_c, 1, 61, 78
1, 36300, Note_on_c, 0, 73, 0
1, 36300, Note_on_c, 1, 61, 0
1, 36300, Note_on_c, 1, 65, 0
1, 36420, Note_on_c, 0, 66, 80
1, 36444, Note_on_c, 0, 66, 0
1, 36450, Note_on_c, 0, 65, 80
1, 36474, Note_on_c, 0, 65, 0
1, 36480, Note_on_c, 0, 66, 85
1, 36600, Note_on_c, 1, 42, 80
1, 36600, Note_on_c, 1, 54, 80
1, 36660, Note_on_c, 1, 54, 0
1, 36660, Note_on_c, 1, 42, 0
1, 36720, Note_on_c, 1, 45, 80
1, 36720, Note_on_c, 1, 57, 80
1, 36840, Note_on_c, 1, 57, 0
1, 36840, Note_on_c, 1, 45, 0
1, 36840, Note_on_c, 1, 42, 64
1, 36840, Note_on_c, 1, 54, 64
1, 36864, Note_on_c, 0, 66, 0
1, 36900, Note_on_c, 0, 73, 80
1, 36924, Note_on_c, 0, 73, 0
1, 36930, Note_on_c, 0, 72, 80
1, 36936, Note_on_c, 1, 54, 0
1, 36936, Note_on_c, 1, 42, 0
1, 36954, Note_on_c, 0, 72, 0
1, 36960, Note_on_c, 0, 73, 80
1, 37080, Note_on_c, 1, 41, 80
1, 37080, Note_on_c, 1, 53, 80
1, 37140, Note_on_c, 1, 53, 0
1, 37140, Note_on_c, 1, 41, 0
1, 37200, Note_on_c, 1, 44, 80
1, 37200, Note_on_c, 1, 56, 80
1, 37320, Note_on_c, 1, 56, 0
1, 37320, Note_on_c, 1, 44, 0
1, 37320, Note_on_c, 1, 37, 64
1, 37320, Note_on_c, 1, 49, 64
1, 37344, Note_on_c, 0, 73, 0
1, 37416, Note_on_c, 1, 49, 0
1, 37416, Note_on_c, 1, 37, 0
1, 37440, Note_on_c, 0, 78, 85
1, 37560, Note_on_c, 1, 38, 68
1, 37560, Note_on_c, 1, 50, 68
1, 37678, Note_on_c, 1, 50, 0
1, 37678, Note_on_c, 1, 38, 0
1, 37680, Note_on_c, 1, 37, 72
1, 37680, Note_on_c, 1, 49, 72
1, 37728, Note_on_c, 1, 49, 0
1, 37728, Note_on_c, 1, 37, 0
1, 37798, Note_on_c, 0, 78, 0
1, 37800, Note_on_c, 0, 80, 85
1, 37800, Note_on_c, 1, 35, 76
1, 37800, Note_on_c, 1, 47, 76
1, 37848, Note_on_c, 1, 47, 0
1, 37848, Note_on_c, 1, 35, 0
1, 37888, Note_on_c, 0, 80, 0
1, 37890, Note_on_c, 0, 81, 85
1, 37918, Note_on_c, 0, 81, 0
1, 37920, Note_on_c, 0, 78, 85
1, 37920, Note_on_c, 1, 33, 80
1, 37920, Note_on_c, 1, 45, 80
1, 38038, Note_on_c, 0, 78, 0
1, 38040, Note_on_c, 0, 80, 85
1, 38128, Note_on_c, 0, 80, 0
1, 38130, Note_on_c, 0, 81, 85
1, 38158, Note_on_c, 0, 81, 0
1, 38158, Note_on_c, 1, 45, 0
1, 38158, Note_on_c, 1, 33, 0
1, 38160, Note_on_c, 0, 78, 85
1, 38278, Note_on_c, 0, 78, 0
1, 38280, Note_on_c, 0, 80, 85
1, 38368, Note_on_c, 0, 80, 0
1, 38370, Note_on_c, 0, 81, 85
1, 38398, Note_on_c, 0, 81, 0
1, 38400, Note_on_c, 0, 78, 85
1, 38520, Note_on_c, 1, 57, 48
1, 38638, Note_on_c, 1, 57, 0
1, 38640, Note_on_c, 1, 69, 48
1, 38758, Note_on_c, 0, 78, 0
1, 38758, Note_on_c, 1, 69, 0
1, 38760, Note_on_c, 0, 80, 48
1, 38848, Note_on_c, 0, 80, 0
1, 38850, Note_on_c, 0, 81, 48
1, 38878, Note_on_c, 0, 81, 0
1, 38880, Note_on_c, 0, 78, 48
1, 39000, Note_on_c, 1, 62, 48
1, 39118, Note_on_c, 1, 62, 0
1, 39120, Note_on_c, 1, 74, 48
1, 39238, Note_on_c, 0, 78, 0
1, 39238, Note_on_c, 1, 74, 0
1, 39240, Note_on_c, 0, 80, 48
1, 39328, Note_on_c, 0, 80, 0
1, 39330, Note_on_c, 0, 81, 48
1, 39358, Note_on_c, 0, 81, 0
1, 39360, Note_on_c, 0, 76, 48
1, 39360, Note_on_c, 1, 73, 48
1, 39456, Note_on_c, 0, 76, 0
1, 39480, Note_on_c, 0, 80, 50
1, 39552, Note_on_c, 0, 80, 0
1, 39552, Note_on_c, 1, 73, 0
1, 39570, Note_on_c, 0, 81, 52
1, 39594, Note_on_c, 0, 81, 0
1, 39600, Note_on_c, 0, 74, 52
1, 39600, Note_on_c, 1, 71, 52
1, 39696, Note_on_c, 0, 74, 0
1, 39720, Note_on_c, 0, 80, 54
1, 39792, Note_on_c, 0, 80, 0
1, 39792, Note_on_c, 1, 71, 0
1, 39810, Note_on_c, 0, 81, 56
1, 39834, Note_on_c, 0, 81, 0
1, 39840, Note_on_c, 0, 73, 56
1, 39840, Note_on_c, 1, 69, 56
1, 39936, Note_on_c, 0, 73, 0
1, 39960, Note_on_c, 0, 80, 58
1, 40032, Note_on_c, 0, 80, 0
1, 40032, Note_on_c, 1, 69, 0
1, 40050, Note_on_c, 0, 81, 60
1, 40074, Note_on_c, 0, 81, 0
1, 40080, Note_on_c, 0, 71, 60
1, 40080, Note_on_c, 1, 68, 60
1, 40176, Note_on_c, 0, 71, 0
1, 40200, Note_on_c, 0, 80, 62
1, 40272, Note_on_c, 0, 80, 0
1, 40272, Note_on_c, 1, 68, 0
1, 40290, Note_on_c, 0, 81, 64
1, 40314, Note_on_c, 0, 81, 0
1, 40320, Note_on_c, 0, 69, 64
1, 40320, Note_on_c, 1, 66, 64
1, 40438, Note_on_c, 0, 69, 0
1, 40440, Note_on_c, 0, 80, 66
1, 40528, Note_on_c, 0, 80, 0
1, 40530, Note_on_c, 0, 81, 68
1, 40558, Note_on_c, 0, 81, 0
1, 40560, Note_on_c, 0, 72, 68
1, 40678, Note_on_c, 0, 72, 0
1, 40680, Note_on_c, 0, 78, 70
1, 40768, Note_on_c, 0, 78, 0
1, 40770, Note_on_c, 0, 81, 72
1, 40798, Note_on_c, 0, 81, 0
1, 40798, Note_on_c, 1, 66, 0
1, 40800, Note_on_c, 0, 73, 72
1, 40800, Note_on_c, 1, 64, 72
1, 40918, Note_on_c, 0, 73, 0
1, 40920, Note_on_c, 0, 76, 74
1, 41008, Note_on_c, 0, 76, 0
1, 41010, Note_on_c, 0, 80, 76
1, 41038, Note_on_c, 0, 80, 0
1, 41038, Note_on_c, 1, 64, 0
1, 41040, Note_on_c, 0, 68, 76
1, 41040, Note_on_c, 1, 60, 76
1, 41158, Note_on_c, 0, 68, 0
1, 41160, Note_on_c, 0, 75, 78
1, 41248, Note_on_c, 0, 75, 0
1, 41250, Note_on_c, 0, 78, 80
1, 41278, Note_on_c, 0, 78, 0
1, 41278, Note_on_c, 1, 60, 0
1, 41280, Note_on_c, 0, 68, 85
1, 41280, Note_on_c, 1, 61, 85
1, 41398, Note_on_c, 0, 68, 0
1, 41400, Note_on_c, 0, 73, 85
1, 41488, Note_on_c, 0, 73, 0
1, 41490, Note_on_c, 0, 76, 85
1, 41518, Note_on_c, 0, 76, 0
1, 41518, Note_on_c, 1, 61, 0
1, 41520, Note_on_c, 0, 69, 85
1, 41520, Note_on_c, 1, 57, 85
1, 41638, Note_on_c, 0, 69, 0
1, 41638, Note_on_c, 1, 57, 0
1, 41640, Note_on_c, 0, 73, 85
1, 41640, Note_on_c, 1, 61, 85
1, 41728, Note_on_c, 0, 73, 0
1, 41728, Note_on_c, 1, 61, 0
1, 41730, Note_on_c, 0, 76, 85
1, 41730, Note_on_c, 1, 64, 85
1, 41758, Note_on_c, 0, 76, 0
1, 41758, Note_on_c, 1, 64, 0
1, 41760, Note_on_c, 0, 68, 85
1, 41760, Note_on_c, 1, 56, 85
1, 41878, Note_on_c, 0, 68, 0
1, 41878, Note_on_c, 1, 56, 0
1, 41880, Note_on_c, 0, 73, 85
1, 41880, Note_on_c, 1, 61, 85
1, 41968, Note_on_c, 0, 73, 0
1, 41968, Note_on_c, 1, 61, 0
1, 41970, Note_on_c, 0, 76, 85
1, 41970, Note_on_c, 1, 64, 85
1, 41998, Note_on_c, 0, 76, 0
1, 41998, Note_on_c, 1, 64, 0
1, 42000, Note_on_c, 0, 67, 85
1, 42000, Note_on_c, 1, 55, 85
1, 42118, Note_on_c, 0, 67, 0
1, 42118, Note_on_c, 1, 55, 0
1, 42120, Note_on_c, 0, 73, 85
1, 42120, Note_on_c, 1, 61, 85
1, 42208, Note_on_c, 0, 73, 0
1, 42208, Note_on_c, 1, 61, 0
1, 42210, Note_on_c, 0, 76, 85
1, 42210, Note_on_c, 1, 64, 85
1, 42238, Note_on_c, 0, 76, 0
1, 42238, Note_on_c, 1, 64, 0
1, 42240, Note_on_c, 0, 66, 85
1, 42240, Note_on_c, 1, 54, 85
1, 42358, Note_on_c, 0, 66, 0
1, 42358, Note_on_c, 1, 54, 0
1, 42360, Note_on_c, 0, 73, 85
1, 42360, Note_on_c, 1, 61, 85
1, 42448, Note_on_c, 0, 73, 0
1, 42448, Note_on_c, 1, 61, 0
1, 42450, Note_on_c, 0, 76, 85
1, 42450, Note_on_c, 1, 64, 85
1, 42478, Note_on_c, 0, 76, 0
1, 42478, Note_on_c, 1, 64, 0
1, 42480, Note_on_c, 0, 66, 85
1, 42480, Note_on_c, 1, 54, 85
1, 42598, Note_on_c, 0, 66, 0
1, 42598, Note_on_c, 1, 54, 0
1, 42600, Note_on_c, 0, 70, 85
1, 42600, Note_on_c, 1, 61, 85
1, 42688, Note_on_c, 0, 70, 0
1, 42688, Note_on_c, 1, 61, 0
1, 42690, Note_on_c, 0, 73, 85
1, 42690, Note_on_c, 1, 64, 85
1, 42718, Note_on_c, 0, 73, 0
1, 42718, Note_on_c, 1, 64, 0
1, 42720, Note_on_c, 0, 66, 85
1, 42720, Note_on_c, 1, 54, 85
1, 42838, Note_on_c, 0, 66, 0
1, 42838, Note_on_c, 1, 54, 0
1, 42840, Note_on_c, 0, 71, 85
1, 42840, Note_on_c, 1, 59, 85
1, 42928, Note_on_c, 0, 71, 0
1, 42928, Note_on_c, 1, 59, 0
1, 42930, Note_on_c, 0, 74, 85
1, 42930, Note_on_c, 1, 62, 85
1, 42958, Note_on_c, 0, 74, 0
1, 42958, Note_on_c, 1, 62, 0
1, 42960, Note_on_c, 0, 66, 85
1, 42960, Note_on_c, 1, 54, 85
1, 43078, Note_on_c, 0, 66, 0
1, 43078, Note_on_c, 1, 54, 0
1, 43080, Note_on_c, 0, 73, 85
1, 43080, Note_on_c, 1, 58, 85
1, 43168, Note_on_c, 0, 73, 0
1, 43168, Note_on_c, 1, 58, 0
1, 43170, Note_on_c, 0, 76, 85
1, 43170, Note_on_c, 1, 61, 85
1, 43198, Note_on_c, 0, 76, 0
1, 43198, Note_on_c, 1, 61, 0
1, 43200, Note_on_c, 0, 66, 85
1, 43200, Note_on_c, 1, 54, 85
1, 43318, Note_on_c, 0, 66, 0
1, 43318, Note_on_c, 1, 54, 0
1, 43320, Note_on_c, 0, 74, 85
1, 43320, Note_on_c, 1, 59, 85
1, 43408, Note_on_c, 0, 74, 0
1, 43408, Note_on_c, 1, 59, 0
1, 43410, Note_on_c, 0, 78, 85
1, 43410, Note_on_c, 1, 62, 85
1, 43438, Note_on_c, 0, 78, 0
1, 43438, Note_on_c, 1, 62, 0
1, 43440, Note_on_c, 0, 66, 85
1, 43440, Note_on_c, 1, 54, 85
1, 43558, Note_on_c, 0, 66, 0
1, 43558, Note_on_c, 1, 54, 0
1, 43560, Note_on_c, 0, 69, 85
1, 43560, Note_on_c, 1, 61, 85
1, 43648, Note_on_c, 0, 69, 0
1, 43648, Note_on_c, 1, 61, 0
1, 43650, Note_on_c, 0, 73, 85
1, 43650, Note_on_c, 1, 64, 85
1, 43678, Note_on_c, 0, 73, 0
1, 43678, Note_on_c, 1, 64, 0
1, 43680, Note_on_c, 0, 66, 85
1, 43680, Note_on_c, 1, 54, 85
1, 43798, Note_on_c, 0, 66, 0
1, 43798, Note_on_c, 1, 54, 0
1, 43800, Note_on_c, 0, 71, 85
1, 43800, Note_on_c, 1, 59, 85
1, 43888, Note_on_c, 0, 71, 0
1, 43888, Note_on_c, 1, 59, 0
1, 43890, Note_on_c, 0, 74, 85
1, 43890, Note_on_c, 1, 62, 85
1, 43918, Note_on_c, 0, 74, 0
1, 43918, Note_on_c, 1, 62, 0
1, 43920, Note_on_c, 0, 65, 85
1, 43920, Note_on_c, 1, 54, 85
1, 44038, Note_on_c, 0, 65, 0
1, 44038, Note_on_c, 1, 54, 0
1, 44040, Note_on_c, 0, 71, 85
1, 44040, Note_on_c, 1, 56, 85
1, 44128, Note_on_c, 0, 71, 0
1, 44128, Note_on_c, 1, 56, 0
1, 44130, Note_on_c, 0, 74, 85
1, 44130, Note_on_c, 1, 59, 85
1, 44158, Note_on_c, 0, 74, 0
1, 44158, Note_on_c, 1, 59, 0
1, 44160, Note_on_c, 0, 66, 80
1, 44160, Note_on_c, 1, 54, 80
1, 44278, Note_on_c, 0, 66, 0
1, 44280, Note_on_c, 0, 70, 78
1, 44368, Note_on_c, 0, 70, 0
1, 44370, Note_on_c, 0, 73, 76
1, 44398, Note_on_c, 0, 73, 0
1, 44400, Note_on_c, 0, 64, 76
1, 44518, Note_on_c, 0, 64, 0
1, 44520, Note_on_c, 0, 70, 74
1, 44608, Note_on_c, 0, 70, 0
1, 44610, Note_on_c, 0, 73, 72
1, 44638, Note_on_c, 0, 73, 0
1, 44640, Note_on_c, 0, 62, 72
1, 44758, Note_on_c, 0, 62, 0
1, 44760, Note_on_c, 0, 66, 70
1, 44848, Note_on_c, 0, 66, 0
1, 44850, Note_on_c, 0, 71, 68
1, 44878, Note_on_c, 0, 71, 0
1, 44880, Note_on_c, 0, 59, 68
1, 44998, Note_on_c, 0, 59, 0
1, 45000, Note_on_c, 0, 62, 66
1, 45088, Note_on_c, 0, 62, 0
1, 45090, Note_on_c, 0, 65, 64
1, 45118, Note_on_c, 0, 65, 0
1, 45118, Note_on_c, 1, 54, 0
1, 45120, Note_on_c, 0, 58, 64
1, 45120, Note_on_c, 1, 42, 64
1, 45238, Note_on_c, 0, 58, 0
1, 45240, Note_on_c, 0, 61, 66
1, 45328, Note_on_c, 0, 61, 0
1, 45330, Note_on_c, 0, 66, 68
1, 45358, Note_on_c, 0, 66, 0
1, 45360, Note_on_c, 0, 55, 68
1, 45478, Note_on_c, 0, 55, 0
1, 45480, Note_on_c, 0, 58, 70
1, 45568, Note_on_c, 0, 58, 0
1, 45570, Note_on_c, 0, 61, 72
1, 45598, Note_on_c, 0, 61, 0
1, 45600, Note_on_c, 0, 54, 72
1, 45600, Note_on_c, 1, 30, 72
1, 45718, Note_on_c, 0, 54, 0
1, 45720, Note_on_c, 0, 58, 74
1, 45808, Note_on_c, 0, 58, 0
1, 45810, Note_on_c, 0, 61, 76
1, 45838, Note_on_c, 0, 61, 0
1, 45840, Note_on_c, 0, 52, 76
1, 45958, Note_on_c, 0, 52, 0
1, 45960, Note_on_c, 0, 58, 78
1, 46048, Note_on_c, 0, 58, 0
1, 46050, Note_on_c, 0, 61, 80
1, 46078, Note_on_c, 0, 61, 0
1, 46078, Note_on_c, 1, 30, 0
1, 46078, Note_on_c, 1, 42, 0
1, 46080, Note_on_c, 0, 59, 85
1, 46080, Note_on_c, 1, 35, 85
1, 46198, Note_on_c, 1, 35, 0
1, 46200, Note_on_c, 1, 47, 85
1, 46248, Note_on_c, 1, 47, 0
1, 46320, Note_on_c, 1, 50, 85
1, 46438, Note_on_c, 1, 50, 0
1, 46440, Note_on_c, 1, 47, 64
1, 46464, Note_on_c, 0, 59, 0
1, 46500, Note_on_c, 0, 66, 80
1, 46524, Note_on_c, 0, 66, 0
1, 46530, Note_on_c, 0, 65, 80
1, 46554, Note_on_c, 0, 65, 0
1, 46558, Note_on_c, 1, 47, 0
1, 46560, Note_on_c, 0, 66, 80
1, 46680, Note_on_c, 1, 46, 85
1, 46728, Note_on_c, 1, 46, 0
1, 46800, Note_on_c, 1, 49, 85
1, 46918, Note_on_c, 1, 49, 0
1, 46920, Note_on_c, 1, 42, 64
1, 46944, Note_on_c, 0, 66, 0
1, 46980, Note_on_c, 0, 71, 80
1, 47004, Note_on_c, 0, 71, 0
1, 47010, Note_on_c, 0, 70, 80
1, 47034, Note_on_c, 0, 70, 0
1, 47038, Note_on_c, 1, 42, 0
1, 47040, Note_on_c, 0, 71, 85
1, 47160, Note_on_c, 1, 43, 68
1, 47280, Note_on_c, 1, 43, 0
1, 47280, Note_on_c, 1, 42, 72
1, 47328, Note_on_c, 1, 42, 0
1, 47398, Note_on_c, 0, 71, 0
1, 47400, Note_on_c, 0, 73, 85
1, 47400, Note_on_c, 1, 40, 76
1, 47448, Note_on_c, 1, 40, 0
1, 47488, Note_on_c, 0, 73, 0
1, 47490, Note_on_c, 0, 74, 85
1, 47518, Note_on_c, 0, 74, 0
1, 47520, Note_on_c, 0, 71, 85
1, 47520, Note_on_c, 1, 38, 80
1, 47638, Note_on_c, 0, 71, 0
1, 47640, Note_on_c, 0, 78, 66
1, 47724, Note_on_c, 0, 78, 0
1, 47758, Note_on_c, 1, 38, 0
1, 47760, Note_on_c, 0, 78, 71
1, 47844, Note_on_c, 0, 78, 0
1, 47880, Note_on_c, 0, 78, 76
1, 47964, Note_on_c, 0, 78, 0
1, 48000, Note_on_c, 0, 78, 88
1, 48120, Note_on_c, 1, 58, 85
1, 48120, Note_on_c, 1, 61, 85
1, 48192, Note_on_c, 1, 61, 0
1, 48192, Note_on_c, 1, 58, 0
1, 48240, Note_on_c, 0, 78, 0
1, 48240, Note_on_c, 0, 79, 80
1, 48240, Note_on_c, 1, 58, 85
1, 48240, Note_on_c, 1, 61, 85
1, 48264, Note_on_c, 0, 79, 0
1, 48270, Note_on_c, 0, 78, 80
1, 48294, Note_on_c, 0, 78, 0
1, 48300, Note_on_c, 0, 76, 80
1, 48324, Note_on_c, 0, 76, 0
1, 48330, Note_on_c, 0, 78, 80
1, 48354, Note_on_c, 0, 78, 0
1, 48358, Note_on_c, 1, 61, 0
1, 48358, Note_on_c, 1, 58, 0
1, 48360, Note_on_c, 0, 79, 80
1, 48360, Note_on_c, 1, 58, 64
1, 48360, Note_on_c, 1, 61, 64
1, 48432, Note_on_c, 0, 79, 0
1, 48450, Note_on_c, 0, 76, 80
1, 48474, Note_on_c, 0, 76, 0
1, 48478, Note_on_c, 1, 61, 0
1, 48478, Note_on_c, 1, 58, 0
1, 48480, Note_on_c, 0, 76, 80
1, 48600, Note_on_c, 1, 59, 85
1, 48600, Note_on_c, 1, 66, 85
1, 48672, Note_on_c, 1, 66, 0
1, 48672, Note_on_c, 1, 59, 0
1, 48720, Note_on_c, 0, 76, 0
1, 48720, Note_on_c, 0, 74, 80
1, 48720, Note_on_c, 1, 59, 85
1, 48720, Note_on_c, 1, 66, 85
1, 48744, Note_on_c, 0, 74, 0
1, 48750, Note_on_c, 0, 76, 80
1, 48774, Note_on_c, 0, 76, 0
1, 48780, Note_on_c, 0, 74, 80
1, 48804, Note_on_c, 0, 74, 0
1, 48810, Note_on_c, 0, 73, 80
1, 48834, Note_on_c, 0, 73, 0
1, 48838, Note_on_c, 1, 66, 0
1, 48838, Note_on_c, 1, 59, 0
1, 48840, Note_on_c, 0, 78, 80
1, 48840, Note_on_c, 1, 62, 64
1, 48912, Note_on_c, 0, 78, 0
1, 48930, Note_on_c, 0, 71, 80
1, 48954, Note_on_c, 0, 71, 0
1, 48958, Note_on_c, 1, 62, 0
1, 48960, Note_on_c, 0, 73, 80
1, 48960, Note_on_c, 1, 64, 85
1, 48984, Note_on_c, 0, 73, 0
1, 48990, Note_on_c, 0, 74, 80
1, 49014, Note_on_c, 0, 74, 0
1, 49020, Note_on_c, 0, 73, 80
1, 49036, Note_on_c, 0, 73, 0
1, 49040, Note_on_c, 0, 74, 80
1, 49056, Note_on_c, 0, 74, 0
1, 49060, Note_on_c, 0, 73, 80
1, 49076, Note_on_c, 0, 73, 0
1, 49078, Note_on_c, 1, 64, 0
1, 49080, Note_on_c, 0, 71, 80
1, 49080, Note_on_c, 1, 62, 85
1, 49176, Note_on_c, 0, 71, 0
1, 49198, Note_on_c, 1, 62, 0
1, 49200, Note_on_c, 0, 74, 80
1, 49200, Note_on_c, 1, 64, 85
1, 49248, Note_on_c, 0, 74, 0
1, 49260, Note_on_c, 0, 73, 80
1, 49308, Note_on_c, 0, 73, 0
1, 49318, Note_on_c, 1, 64, 0
1, 49320, Note_on_c, 0, 71, 80
1, 49320, Note_on_c, 1, 66, 85
1, 49368, Note_on_c, 0, 71, 0
1, 49380, Note_on_c, 0, 70, 80
1, 49428, Note_on_c, 0, 70, 0
1, 49438, Note_on_c, 1, 66, 0
1, 49440, Note_on_c, 0, 71, 80
1, 49440, Note_on_c, 1, 67, 85
1, 49632, Note_on_c, 0, 71, 0
1, 49678, Note_on_c, 1, 67, 0
1, 49800, Note_on_c, 0, 83, 80
1, 49848, Note_on_c, 0, 83, 0
1, 49860, Note_on_c, 0, 79, 80
1, 49908, Note_on_c, 0, 79, 0
1, 49920, Note_on_c, 0, 78, 85
1, 49978, Note_on_c, 0, 78, 0
1, 49980, Note_on_c, 0, 76, 85
1, 50038, Note_on_c, 0, 76, 0
1, 50040, Note_on_c, 0, 75, 85
1, 50098, Note_on_c, 0, 75, 0
1, 50100, Note_on_c, 0, 76, 85
1, 50158, Note_on_c, 0, 76, 0
1, 50160, Note_on_c, 0, 78, 85
1, 50218, Note_on_c, 0, 78, 0
1, 50220, Note_on_c, 0, 76, 85
1, 50278, Note_on_c, 0, 76, 0
1, 50280, Note_on_c, 0, 79, 85
1, 50338, Note_on_c, 0, 79, 0
1, 50340, Note_on_c, 0, 76, 85
1, 50398, Note_on_c, 0, 76, 0
1, 50400, Note_on_c, 0, 70, 85
1, 50400, Note_on_c, 1, 64, 85
1, 50400, Note_on_c, 1, 67, 85
1, 50638, Note_on_c, 0, 70, 0
1, 50638, Note_on_c, 1, 67, 0
1, 50638, Note_on_c, 1, 64, 0
1, 50640, Note_on_c, 0, 71, 85
1, 50640, Note_on_c, 1, 62, 85
1, 50640, Note_on_c, 1, 66, 85
1, 50688, Note_on_c, 0, 71, 0
1, 50688, Note_on_c, 1, 66, 0
1, 50688, Note_on_c, 1, 62, 0
1, 50760, Note_on_c, 0, 78, 64
1, 50818, Note_on_c, 0, 78, 0
1, 50820, Note_on_c, 0, 74, 64
1, 50878, Note_on_c, 0, 74, 0
1, 50880, Note_on_c, 0, 73, 64
1, 50938, Note_on_c, 0, 73, 0
1, 50940, Note_on_c, 0, 71, 64
1, 50998, Note_on_c, 0, 71, 0
1, 51000, Note_on_c, 0, 70, 64
1, 51058, Note_on_c, 0, 70, 0
1, 51060, Note_on_c, 0, 71, 64
1, 51118, Note_on_c, 0, 71, 0
1, 51120, Note_on_c, 0, 73, 64
1, 51178, Note_on_c, 0, 73, 0
1, 51180, Note_on_c, 0, 71, 64
1, 51238, Note_on_c, 0, 71, 0
1, 51240, Note_on_c, 0, 74, 64
1, 51298, Note_on_c, 0, 74, 0
1, 51300, Note_on_c, 0, 71, 64
1, 51358, Note_on_c, 0, 71, 0
1, 51360, Note_on_c, 0, 65, 64
1, 51360, Note_on_c, 1, 59, 64
1, 51360, Note_on_c, 1, 62, 64
1, 51598, Note_on_c, 0, 65, 0
1, 51598, Note_on_c, 1, 62, 0
1, 51598, Note_on_c, 1, 59, 0
1, 51600, Note_on_c, 0, 66, 64
1, 51600, Note_on_c, 1, 58, 64
1, 51600, Note_on_c, 1, 61, 64
1, 51648, Note_on_c, 0, 66, 0
1, 51648, Note_on_c, 1, 61, 0
1, 51648, Note_on_c, 1, 58, 0
1, 51720, Note_on_c, 0, 73, 88
1, 51720, Note_on_c, 1, 61, 88
1, 51750, Note_on_c, 0, 73, 0
1, 51750, Note_on_c, 1, 61, 0
1, 51780, Note_on_c, 0, 64, 88
1, 51780, Note_on_c, 1, 52, 88
1, 51810, Note_on_c, 0, 64, 0
1, 51810, Note_on_c, 1, 52, 0
1, 51840, Note_on_c, 0, 64, 88
1, 51840, Note_on_c, 1, 52, 88
1, 51898, Note_on_c, 0, 64, 0
1, 51898, Note_on_c, 1, 52, 0
1, 51900, Note_on_c, 0, 62, 88
1, 51900, Note_on_c, 1, 50, 88
1, 51958, Note_on_c, 0, 62, 0
1, 51958, Note_on_c, 1, 50, 0
1, 51960, Note_on_c, 0, 61, 88
1, 51960, Note_on_c, 1, 49, 88
1, 52018, Note_on_c, 0, 61, 0
1, 52018, Note_on_c, 1, 49, 0
1, 52020, Note_on_c, 0, 62, 88
1, 52020, Note_on_c, 1, 50, 88
1, 52078, Note_on_c, 0, 62, 0
1, 52078, Note_on_c, 1, 50, 0
1, 52080, Note_on_c, 0, 61, 88
1, 52080, Note_on_c, 1, 49, 88
1, 52138, Note_on_c, 0, 61, 0
1, 52138, Note_on_c, 1, 49, 0
1, 52140, Note_on_c, 0, 59, 88
1, 52140, Note_on_c, 1, 47, 88
1, 52170, Note_on_c, 0, 59, 0
1, 52170, Note_on_c, 1, 47, 0
1, 52200, Note_on_c, 0, 58, 88
1, 52200, Note_on_c, 1, 46, 88
1, 52230, Note_on_c, 0, 58, 0
1, 52230, Note_on_c, 1, 46, 0
1, 52260, Note_on_c, 0, 59, 88
1, 52260, Note_on_c, 1, 47, 88
1, 52290, Note_on_c, 0, 59, 0
1, 52290, Note_on_c, 1, 47, 0
1, 52320, Note_on_c, 0, 66, 88
1, 52320, Note_on_c, 1, 42, 88
1, 52558, Note_on_c, 0, 66, 0
1, 52558, Note_on_c, 1, 42, 0
1, 52800, Note_on_c, 0, 62, 96
1, 52800, Note_on_c, 0, 66, 96
1, 52800, Note_on_c, 0, 71, 96
1, 52800, Note_on_c, 1, 47, 96
1, 52800, Note_on_c, 1, 50, 96
1, 52800, Note_on_c, 1, 54, 96
1, 52800, Note_on_c, 1, 59, 96
1, 52918, Note_on_c, 0, 71, 0
1, 52918, Note_on_c, 0, 66, 0
1, 52918, Note_on_c, 0, 62, 0
1, 52918, Note_on_c, 1, 59, 0
1, 52918, Note_on_c, 1, 47, 0
1, 52918, Note_on_c, 1, 50, 0
1, 52918, Note_on_c, 1, 54, 0
1, 52920, Note_on_c, 0, 83, 66
1, 52920, Note_on_c, 1, 59, 66
1, 52978, Note_on_c, 0, 83, 0
1, 52980, Note_on_c, 0, 71, 67
1, 53038, Note_on_c, 0, 71, 0
1, 53040, Note_on_c, 0, 82, 68
1, 53040, Note_on_c, 1, 61, 68
1, 53098, Note_on_c, 0, 82, 0
1, 53100, Note_on_c, 0, 71, 69
1, 53136, Note_on_c, 1, 61, 0
1, 53158, Note_on_c, 0, 71, 0
1, 53160, Note_on_c, 0, 81, 70
1, 53160, Note_on_c, 1, 63, 70
1, 53218, Note_on_c, 0, 81, 0
1, 53220, Note_on_c, 0, 71, 71
1, 53256, Note_on_c, 1, 63, 0
1, 53278, Note_on_c, 0, 71, 0
1, 53280, Note_on_c, 0, 79, 72
1, 53280, Note_on_c, 1, 64, 72
1, 53338, Note_on_c, 0, 79, 0
1, 53340, Note_on_c, 0, 71, 73
1, 53376, Note_on_c, 1, 64, 0
1, 53398, Note_on_c, 0, 71, 0
1, 53400, Note_on_c, 0, 78, 74
1, 53400, Note_on_c, 1, 63, 74
1, 53458, Note_on_c, 0, 78, 0
1, 53460, Note_on_c, 0, 71, 75
1, 53496, Note_on_c, 1, 63, 0
1, 53518, Note_on_c, 0, 71, 0
1, 53520, Note_on_c, 0, 79, 76
1, 53520, Note_on_c, 1, 64, 76
1, 53578, Note_on_c, 0, 79, 0
1, 53580, Note_on_c, 0, 71, 77
1, 53616, Note_on_c, 1, 64, 0
1, 53638, Note_on_c, 0, 71, 0
1, 53640, Note_on_c, 0, 76, 78
1, 53640, Note_on_c, 1, 67, 78
1, 53698, Note_on_c, 0, 76, 0
1, 53700, Note_on_c, 0, 70, 79
1, 53736, Note_on_c, 1, 67, 0
1, 53736, Note_on_c, 1, 59, 0
1, 53758, Note_on_c, 0, 70, 0
1, 53760, Note_on_c, 0, 66, 96
1, 53760, Note_on_c, 0, 71, 96
1, 53760, Note_on_c, 0, 74, 96
1, 53760, Note_on_c, 1, 59, 96
1, 53760, Note_on_c, 1, 54, 96
1, 53760, Note_on_c, 1, 50, 96
1, 53760, Note_on_c, 1, 47, 96
1, 53878, Note_on_c, 0, 74, 0
1, 53878, Note_on_c, 0, 71, 0
1, 53878, Note_on_c, 0, 66, 0
1, 53878, Note_on_c, 1, 47, 0
1, 53878, Note_on_c, 1, 59, 0
1, 53878, Note_on_c, 1, 54, 0
1, 53878, Note_on_c, 1, 50, 0
1, 53880, Note_on_c, 0, 83, 66
1, 53880, Note_on_c, 1, 59, 66
1, 53938, Note_on_c, 0, 83, 0
1, 53940, Note_on_c, 0, 71, 67
1, 53998, Note_on_c, 0, 71, 0
1, 54000, Note_on_c, 0, 82, 68
1, 54000, Note_on_c, 1, 61, 68
1, 54058, Note_on_c, 0, 82, 0
1, 54060, Note_on_c, 0, 71, 69
1, 54096, Note_on_c, 1, 61, 0
1, 54118, Note_on_c, 0, 71, 0
1, 54120, Note_on_c, 0, 81, 70
1, 54120, Note_on_c, 1, 63, 70
1, 54178, Note_on_c, 0, 81, 0
1, 54180, Note_on_c, 0, 71, 71
1, 54216, Note_on_c, 1, 63, 0
1, 54238, Note_on_c, 0, 71, 0
1, 54240, Note_on_c, 0, 79, 72
1, 54240, Note_on_c, 1, 64, 72
1, 54298, Note_on_c, 0, 79, 0
1, 54300, Note_on_c, 0, 71, 73
1, 54336, Note_on_c, 1, 64, 0
1, 54358, Note_on_c, 0, 71, 0
1, 54360, Note_on_c, 0, 78, 74
1, 54360, Note_on_c, 1, 63, 74
1, 54418, Note_on_c, 0, 78, 0
1, 54420, Note_on_c, 0, 71, 75
1, 54456, Note_on_c, 1, 63, 0
1, 54478, Note_on_c, 0, 71, 0
1, 54480, Note_on_c, 0, 79, 76
1, 54480, Note_on_c, 1, 64, 76
1, 54538, Note_on_c, 0, 79, 0
1, 54540, Note_on_c, 0, 71, 77
1, 54576, Note_on_c, 1, 64, 0
1, 54598, Note_on_c, 0, 71, 0
1, 54600, Note_on_c, 0, 76, 78
1, 54600, Note_on_c, 1, 67, 78
1, 54658, Note_on_c, 0, 76, 0
1, 54660, Note_on_c, 0, 70, 79
1, 54696, Note_on_c, 1, 67, 0
1, 54696, Note_on_c, 1, 59, 0
1, 54718, Note_on_c, 0, 70, 0
1, 54720, Note_on_c, 0, 66, 96
1, 54720, Note_on_c, 0, 71, 96
1, 54720, Note_on_c, 0, 74, 96
1, 54720, Note_on_c, 1, 47, 96
1, 54720, Note_on_c, 1, 50, 96
1, 54720, Note_on_c, 1, 54, 96
1, 54720, Note_on_c, 1, 59, 96
1, 54838, Note_on_c, 0, 74, 0
1, 54838, Note_on_c, 0, 71, 0
1, 54838, Note_on_c, 0, 66, 0
1, 54838, Note_on_c, 1, 59, 0
1, 54838, Note_on_c, 1, 47, 0
1, 54838, Note_on_c, 1, 50, 0
1, 54838, Note_on_c, 1, 54, 0
1, 54840, Note_on_c, 0, 83, 48
1, 54840, Note_on_c, 1, 59, 48
1, 54840, Note_on_c, 1, 59, 48
1, 54898, Note_on_c, 0, 83, 0
1, 54900, Note_on_c, 0, 71, 48
1, 54958, Note_on_c, 0, 71, 0
1, 54958, Note_on_c, 1, 59, 0
1, 54960, Note_on_c, 0, 82, 48
1, 54960, Note_on_c, 1, 61, 48
1, 55018, Note_on_c, 0, 82, 0
1, 55020, Note_on_c, 0, 71, 48
1, 55078, Note_on_c, 0, 71, 0
1, 55078, Note_on_c, 1, 61, 0
1, 55080, Note_on_c, 0, 81, 48
1, 55080, Note_on_c, 1, 63, 48
1, 55138, Note_on_c, 0, 81, 0
1, 55140, Note_on_c, 0, 71, 48
1, 55198, Note_on_c, 0, 71, 0
1, 55198, Note_on_c, 1, 63, 0
1, 55200, Note_on_c, 0, 79, 48
1, 55200, Note_on_c, 1, 64, 48
1, 55258, Note_on_c, 0, 79, 0
1, 55260, Note_on_c, 0, 71, 48
1, 55318, Note_on_c, 0, 71, 0
1, 55318, Note_on_c, 1, 64, 0
1, 55320, Note_on_c, 0, 78, 48
1, 55320, Note_on_c, 1, 63, 48
1, 55378, Note_on_c, 0, 78, 0
1, 55380, Note_on_c, 0, 71, 48
1, 55438, Note_on_c, 0, 71, 0
1, 55438, Note_on_c, 1, 63, 0
1, 55440, Note_on_c, 0, 79, 48
1, 55440, Note_on_c, 1, 64, 48
1, 55498, Note_on_c, 0, 79, 0
1, 55500, Note_on_c, 0, 71, 48
1, 55558, Note_on_c, 0, 71, 0
1, 55558, Note_on_c, 1, 64, 0
1, 55560, Note_on_c, 0, 83, 48
1, 55560, Note_on_c, 1, 67, 48
1, 55618, Note_on_c, 0, 83, 0
1, 55620, Note_on_c, 0, 71, 48
1, 55678, Note_on_c, 0, 71, 0
1, 55678, Note_on_c, 1, 67, 0
1, 55678, Note_on_c, 1, 59, 0
1, 55680, Note_on_c, 0, 78, 48
1, 55680, Note_on_c, 1, 59, 48
1, 55680, Note_on_c, 1, 62, 48
1, 55738, Note_on_c, 0, 78, 0
1, 55740, Note_on_c, 0, 71, 49
1, 55798, Note_on_c, 0, 71, 0
1, 55798, Note_on_c, 1, 62, 0
1, 55800, Note_on_c, 0, 76, 50
1, 55800, Note_on_c, 1, 61, 50
1, 55858, Note_on_c, 0, 76, 0
1, 55860, Note_on_c, 0, 71, 51
1, 55918, Note_on_c, 0, 71, 0
1, 55918, Note_on_c, 1, 61, 0
1, 55920, Note_on_c, 0, 78, 52
1, 55920, Note_on_c, 1, 62, 52
1, 55978, Note_on_c, 0, 78, 0
1, 55980, Note_on_c, 0, 71, 53
1, 56038, Note_on_c, 0, 71, 0
1, 56038, Note_on_c, 1, 62, 0
1, 56040, Note_on_c, 0, 74, 54
1, 56040, Note_on_c, 1, 66, 54
1, 56098, Note_on_c, 0, 74, 0
1, 56100, Note_on_c, 0, 71, 55
1, 56158, Note_on_c, 0, 71, 0
1, 56158, Note_on_c, 1, 66, 0
1, 56160, Note_on_c, 0, 76, 56
1, 56160, Note_on_c, 1, 67, 56
1, 56218, Note_on_c, 0, 76, 0
1, 56220, Note_on_c, 0, 71, 57
1, 56278, Note_on_c, 0, 71, 0
1, 56278, Note_on_c, 1, 67, 0
1, 56280, Note_on_c, 0, 74, 58
1, 56280, Note_on_c, 1, 66, 58
1, 56338, Note_on_c, 0, 74, 0
1, 56340, Note_on_c, 0, 71, 59
1, 56398, Note_on_c, 0, 71, 0
1, 56398, Note_on_c, 1, 66, 0
1, 56400, Note_on_c, 0, 76, 60
1, 56400, Note_on_c, 1, 67, 60
1, 56458, Note_on_c, 0, 76, 0
1, 56460, Note_on_c, 0, 71, 61
1, 56518, Note_on_c, 0, 71, 0
1, 56518, Note_on_c, 1, 67, 0
1, 56520, Note_on_c, 0, 73, 62
1, 56520, Note_on_c, 1, 64, 62
1, 56578, Note_on_c, 0, 73, 0
1, 56580, Note_on_c, 0, 71, 63
1, 56638, Note_on_c, 0, 71, 0
1, 56638, Note_on_c, 1, 64, 0
1, 56638, Note_on_c, 1, 59, 0
1, 56640, Note_on_c, 0, 74, 64
1, 56640, Note_on_c, 1, 59, 64
1, 56640, Note_on_c, 1, 66, 64
1, 56698, Note_on_c, 0, 74, 0
1, 56700, Note_on_c, 0, 71, 65
1, 56758, Note_on_c, 0, 71, 0
1, 56758, Note_on_c, 1, 66, 0
1, 56760, Note_on_c, 0, 73, 66
1, 56760, Note_on_c, 1, 64, 66
1, 56818, Note_on_c, 0, 73, 0
1, 56820, Note_on_c, 0, 71, 67
1, 56878, Note_on_c, 0, 71, 0
1, 56878, Note_on_c, 1, 64, 0
1, 56880, Note_on_c, 0, 74, 68
1, 56880, Note_on_c, 1, 66, 68
1, 56938, Note_on_c, 0, 74, 0
1, 56940, Note_on_c, 0, 71, 69
1, 56998, Note_on_c, 0, 71, 0
1, 56998, Note_on_c, 1, 66, 0
1, 57000, Note_on_c, 0, 78, 70
1, 57000, Note_on_c, 1, 62, 70
1, 57058, Note_on_c, 0, 78, 0
1, 57060, Note_on_c, 0, 71, 71
1, 57118, Note_on_c, 0, 71, 0
1, 57118, Note_on_c, 1, 62, 0
1, 57118, Note_on_c, 1, 59, 0
1, 57120, Note_on_c, 0, 77, 72
1, 57120, Note_on_c, 1, 61, 72
1, 57178, Note_on_c, 0, 77, 0
1, 57178, Note_on_c, 1, 61, 0
1, 57180, Note_on_c, 0, 71, 73
1, 57180, Note_on_c, 1, 68, 73
1, 57238, Note_on_c, 0, 71, 0
1, 57238, Note_on_c, 1, 68, 0
1, 57240, Note_on_c, 0, 77, 74
1, 57240, Note_on_c, 1, 61, 74
1, 57298, Note_on_c, 0, 77, 0
1, 57298, Note_on_c, 1, 61, 0
1, 57300, Note_on_c, 0, 71, 75
1, 57300, Note_on_c, 1, 68, 75
1, 57358, Note_on_c, 0, 71, 0
1, 57358, Note_on_c, 1, 68, 0
1, 57360, Note_on_c, 0, 76, 76
1, 57360, Note_on_c, 1, 61, 76
1, 57418, Note_on_c, 0, 76, 0
1, 57418, Note_on_c, 1, 61, 0
1, 57420, Note_on_c, 0, 70, 77
1, 57420, Note_on_c, 1, 67, 77
1, 57478, Note_on_c, 0, 70, 0
1, 57478, Note_on_c, 1, 67, 0
1, 57480, Note_on_c, 0, 76, 78
1, 57480, Note_on_c, 1, 61, 78
1, 57538, Note_on_c, 0, 76, 0
1, 57538, Note_on_c, 1, 61, 0
1, 57540, Note_on_c, 0, 70, 79
1, 57540, Note_on_c, 1, 67, 79
1, 57598, Note_on_c, 0, 70, 0
1, 57598, Note_on_c, 1, 67, 0
1, 57600, Note_on_c, 0, 74, 80
1, 57600, Note_on_c, 1, 62, 80
1, 57658, Note_on_c, 0, 74, 0
1, 57658, Note_on_c, 1, 62, 0
1, 57660, Note_on_c, 0, 71, 79
1, 57660, Note_on_c, 1, 66, 79
1, 57718, Note_on_c, 0, 71, 0
1, 57718, Note_on_c, 1, 66, 0
1, 57720, Note_on_c, 0, 74, 78
1, 57720, Note_on_c, 1, 62, 78
1, 57778, Note_on_c, 0, 74, 0
1, 57778, Note_on_c, 1, 62, 0
1, 57780, Note_on_c, 0, 71, 77
1, 57780, Note_on_c, 1, 66, 77
1, 57838, Note_on_c, 0, 71, 0
1, 57838, Note_on_c, 1, 66, 0
1, 57840, Note_on_c, 0, 78, 76
1, 57840, Note_on_c, 1, 63, 76
1, 57898, Note_on_c, 0, 78, 0
1, 57898, Note_on_c, 1, 63, 0
1, 57900, Note_on_c, 0, 69, 75
1, 57900, Note_on_c, 1, 72, 75
1, 57958, Note_on_c, 0, 69, 0
1, 57958, Note_on_c, 1, 72, 0
1, 57960, Note_on_c, 0, 78, 74
1, 57960, Note_on_c, 1, 63, 74
1, 58018, Note_on_c, 0, 78, 0
1, 58018, Note_on_c, 1, 63, 0
1, 58020, Note_on_c, 0, 69, 73
1, 58020, Note_on_c, 1, 72, 73
1, 58078, Note_on_c, 0, 69, 0
1, 58078, Note_on_c, 1, 72, 0
1, 58080, Note_on_c, 0, 76, 72
1, 58080, Note_on_c, 1, 64, 72
1, 58138, Note_on_c, 0, 76, 0
1, 58138, Note_on_c, 1, 64, 0
1, 58140, Note_on_c, 0, 67, 71
1, 58140, Note_on_c, 1, 71, 71
1, 58198, Note_on_c, 0, 67, 0
1, 58198, Note_on_c, 1, 71, 0
1, 58200, Note_on_c, 0, 76, 70
1, 58200, Note_on_c, 1, 64, 70
1, 58258, Note_on_c, 0, 76, 0
1, 58258, Note_on_c, 1, 64, 0
1, 58260, Note_on_c, 0, 67, 69
1, 58260, Note_on_c, 1, 71, 69
1, 58318, Note_on_c, 0, 67, 0
1, 58318, Note_on_c, 1, 71, 0
1, 58320, Note_on_c, 0, 74, 68
1, 58320, Note_on_c, 1, 65, 68
1, 58378, Note_on_c, 0, 74, 0
1, 58378, Note_on_c, 1, 65, 0
1, 58380, Note_on_c, 0, 71, 67
1, 58380, Note_on_c, 1, 68, 67
1, 58438, Note_on_c, 0, 71, 0
1, 58438, Note_on_c, 1, 68, 0
1, 58440, Note_on_c, 0, 74, 66
1, 58440, Note_on_c, 1, 65, 66
1, 58498, Note_on_c, 0, 74, 0
1, 58498, Note_on_c, 1, 65, 0
1, 58500, Note_on_c, 0, 71, 65
1, 58500, Note_on_c, 1, 68, 65
1, 58558, Note_on_c, 0, 71, 0
1, 58558, Note_on_c, 1, 68, 0
1, 58560, Note_on_c, 0, 70, 48
1, 58560, Note_on_c, 1, 54, 64
1, 58618, Note_on_c, 1, 54, 0
1, 58620, Note_on_c, 1, 66, 64
1, 58678, Note_on_c, 0, 70, 0
1, 58678, Note_on_c, 1, 66, 0
1, 58680, Note_on_c, 0, 71, 50
1, 58680, Note_on_c, 1, 56, 64
1, 58738, Note_on_c, 1, 56, 0
1, 58740, Note_on_c, 1, 66, 64
1, 58798, Note_on_c, 0, 71, 0
1, 58798, Note_on_c, 1, 66, 0
1, 58800, Note_on_c, 0, 73, 52
1, 58800, Note_on_c, 1, 58, 64
1, 58858, Note_on_c, 1, 58, 0
1, 58860, Note_on_c, 1, 66, 64
1, 58918, Note_on_c, 0, 73, 0
1, 58918, Note_on_c, 1, 66, 0
1, 58920, Note_on_c, 0, 76, 54
1, 58920, Note_on_c, 1, 59, 64
1, 58944, Note_on_c, 0, 76, 0
1, 58950, Note_on_c, 0, 74, 55
1, 58974, Note_on_c, 0, 74, 0
1, 58978, Note_on_c, 1, 59, 0
1, 58980, Note_on_c, 0, 73, 55
1, 58980, Note_on_c, 1, 66, 64
1, 59004, Note_on_c, 0, 73, 0
1, 59010, Note_on_c, 0, 74, 56
1, 59034, Note_on_c, 0, 74, 0
1, 59038, Note_on_c, 1, 66, 0
1, 59040, Note_on_c, 0, 76, 56
1, 59040, Note_on_c, 1, 61, 64
1, 59098, Note_on_c, 1, 61, 0
1, 59100, Note_on_c, 1, 66, 64
1, 59136, Note_on_c, 0, 76, 0
1, 59158, Note_on_c, 1, 66, 0
1, 59160, Note_on_c, 0, 74, 58
1, 59160, Note_on_c, 1, 59, 64
1, 59218, Note_on_c, 1, 59, 0
1, 59220, Note_on_c, 1, 66, 64
1, 59256, Note_on_c, 0, 74, 0
1, 59278, Note_on_c, 1, 66, 0
1, 59280, Note_on_c, 0, 76, 60
1, 59280, Note_on_c, 1, 61, 64
1, 59338, Note_on_c, 1, 61, 0
1, 59340, Note_on_c, 1, 66, 64
1, 59376, Note_on_c, 0, 76, 0
1, 59398, Note_on_c, 1, 66, 0
1, 59400, Note_on_c, 0, 73, 62
1, 59400, Note_on_c, 1, 58, 64
1, 59458, Note_on_c, 1, 58, 0
1, 59460, Note_on_c, 1, 66, 64
1, 59496, Note_on_c, 0, 73, 0
1, 59518, Note_on_c, 1, 66, 0
1, 59520, Note_on_c, 0, 75, 64
1, 59520, Note_on_c, 1, 59, 64
1, 59578, Note_on_c, 0, 75, 0
1, 59580, Note_on_c, 0, 71, 65
1, 59638, Note_on_c, 0, 71, 0
1, 59640, Note_on_c, 0, 76, 66
1, 59640, Note_on_c, 1, 61, 66
1, 59698, Note_on_c, 0, 76, 0
1, 59700, Note_on_c, 0, 71, 67
1, 59736, Note_on_c, 1, 61, 0
1, 59758, Note_on_c, 0, 71, 0
1, 59760, Note_on_c, 0, 78, 68
1, 59760, Note_on_c, 1, 63, 68
1, 59818, Note_on_c, 0, 78, 0
1, 59820, Note_on_c, 0, 71, 69
1, 59856, Note_on_c, 1, 63, 0
1, 59878, Note_on_c, 0, 71, 0
1, 59880, Note_on_c, 0, 79, 70
1, 59880, Note_on_c, 1, 64, 70
1, 59938, Note_on_c, 0, 79, 0
1, 59940, Note_on_c, 0, 71, 71
1, 59976, Note_on_c, 1, 64, 0
1, 59998, Note_on_c, 0, 71, 0
1, 60000, Note_on_c, 0, 81, 72
1, 60000, Note_on_c, 1, 66, 72
1, 60058, Note_on_c, 0, 81, 0
1, 60060, Note_on_c, 0, 71, 73
1, 60096, Note_on_c, 1, 66, 0
1, 60118, Note_on_c, 0, 71, 0
1, 60120, Note_on_c, 0, 79, 74
1, 60120, Note_on_c, 1, 64, 74
1, 60178, Note_on_c, 0, 79, 0
1, 60180, Note_on_c, 0, 71, 75
1, 60216, Note_on_c, 1, 64, 0
1, 60238, Note_on_c, 0, 71, 0
1, 60240, Note_on_c, 0, 81, 76
1, 60240, Note_on_c, 1, 66, 76
1, 60298, Note_on_c, 0, 81, 0
1, 60300, Note_on_c, 0, 71, 77
1, 60336, Note_on_c, 1, 66, 0
1, 60358, Note_on_c, 0, 71, 0
1, 60360, Note_on_c, 0, 78, 78
1, 60360, Note_on_c, 1, 63, 78
1, 60418, Note_on_c, 0, 78, 0
1, 60420, Note_on_c, 0, 71, 79
1, 60456, Note_on_c, 1, 63, 0
1, 60456, Note_on_c, 1, 59, 0
1, 60478, Note_on_c, 0, 71, 0
1, 60480, Note_on_c, 0, 79, 85
1, 60480, Note_on_c, 1, 64, 80
1, 60538, Note_on_c, 0, 79, 0
1, 60540, Note_on_c, 0, 71, 85
1, 60576, Note_on_c, 1, 64, 0
1, 60598, Note_on_c, 0, 71, 0
1, 60600, Note_on_c, 0, 78, 85
1, 60600, Note_on_c, 1, 63, 80
1, 60658, Note_on_c, 0, 78, 0
1, 60660, Note_on_c, 0, 71, 85
1, 60696, Note_on_c, 1, 63, 0
1, 60718, Note_on_c, 0, 71, 0
1, 60720, Note_on_c, 0, 79, 85
1, 60720, Note_on_c, 1, 64, 80
1, 60778, Note_on_c, 0, 79, 0
1, 60780, Note_on_c, 0, 71, 85
1, 60816, Note_on_c, 1, 64, 0
1, 60838, Note_on_c, 0, 71, 0
1, 60840, Note_on_c, 0, 82, 85
1, 60840, Note_on_c, 1, 61, 80
1, 60898, Note_on_c, 0, 82, 0
1, 60900, Note_on_c, 0, 71, 85
1, 60936, Note_on_c, 1, 61, 0
1, 60958, Note_on_c, 0, 71, 0
1, 60960, Note_on_c, 0, 83, 85
1, 60960, Note_on_c, 1, 66, 80
1, 60960, Note_on_c, 1, 62, 80
1, 61018, Note_on_c, 0, 83, 0
1, 61020, Note_on_c, 0, 71, 85
1, 61056, Note_on_c, 1, 62, 0
1, 61056, Note_on_c, 1, 66, 0
1, 61078, Note_on_c, 0, 71, 0
1, 61080, Note_on_c, 0, 82, 85
1, 61080, Note_on_c, 1, 67, 80
1, 61080, Note_on_c, 1, 64, 80
1, 61138, Note_on_c, 0, 82, 0
1, 61140, Note_on_c, 0, 73, 85
1, 61176, Note_on_c, 1, 64, 0
1, 61176, Note_on_c, 1, 67, 0
1, 61198, Note_on_c, 0, 73, 0
1, 61200, Note_on_c, 0, 83, 85
1, 61200, Note_on_c, 1, 66, 80
1, 61200, Note_on_c, 1, 62, 80
1, 61258, Note_on_c, 0, 83, 0
1, 61260, Note_on_c, 0, 71, 85
1, 61296, Note_on_c, 1, 62, 0
1, 61296, Note_on_c, 1, 66, 0
1, 61318, Note_on_c, 0, 71, 0
1, 61320, Note_on_c, 0, 82, 85
1, 61320, Note_on_c, 1, 67, 80
1, 61320, Note_on_c, 1, 64, 80
1, 61378, Note_on_c, 0, 82, 0
1, 61380, Note_on_c, 0, 73, 85
1, 61416, Note_on_c, 1, 64, 0
1, 61416, Note_on_c, 1, 67, 0
1, 61438, Note_on_c, 0, 73, 0
1, 61440, Note_on_c, 0, 83, 85
1, 61440, Note_on_c, 1, 59, 85
1, 61440, Note_on_c, 1, 62, 85
1, 61440, Note_on_c, 1, 66, 85
1, 61500, Note_on_c, 0, 83, 0
1, 61560, Note_on_c, 0, 86, 85
1, 61598, Note_on_c, 0, 86, 0
1, 61600, Note_on_c, 0, 85, 85
1, 61638, Note_on_c, 0, 85, 0
1, 61640, Note_on_c, 0, 83, 85
1, 61678, Note_on_c, 0, 83, 0
1, 61678, Note_on_c, 1, 66, 0
1, 61678, Note_on_c, 1, 62, 0
1, 61678, Note_on_c, 1, 59, 0
1, 61680, Note_on_c, 0, 81, 85
1, 61718, Note_on_c, 0, 81, 0
1, 61720, Note_on_c, 0, 79, 85
1, 61758, Note_on_c, 0, 79, 0
1, 61760, Note_on_c, 0, 78, 85
1, 61798, Note_on_c, 0, 78, 0
1, 61800, Note_on_c, 0, 76, 85
1, 61838, Note_on_c, 0, 76, 0
1, 61840, Note_on_c, 0, 74, 85
1, 61878, Note_on_c, 0, 74, 0
1, 61880, Note_on_c, 0, 73, 85
1, 61918, Note_on_c, 0, 73, 0
1, 61920, Note_on_c, 0, 71, 85
1, 61920, Note_on_c, 1, 67, 85
1, 61980, Note_on_c, 0, 71, 0
1, 62040, Note_on_c, 0, 75, 85
1, 62078, Note_on_c, 0, 75, 0
1, 62080, Note_on_c, 0, 76, 85
1, 62118, Note_on_c, 0, 76, 0
1, 62120, Note_on_c, 0, 78, 85
1, 62158, Note_on_c, 0, 78, 0
1, 62158, Note_on_c, 1, 67, 0
1, 62160, Note_on_c, 0, 79, 85
1, 62198, Note_on_c, 0, 79, 0
1, 62200, Note_on_c, 0, 78, 85
1, 62238, Note_on_c, 0, 78, 0
1, 62240, Note_on_c, 0, 76, 85
1, 62278, Note_on_c, 0, 76, 0
1, 62280, Note_on_c, 0, 88, 85
1, 62280, Note_on_c, 1, 64, 85
1, 62318, Note_on_c, 0, 88, 0
1, 62320, Note_on_c, 0, 85, 85
1, 62358, Note_on_c, 0, 85, 0
1, 62360, Note_on_c, 0, 82, 85
1, 62398, Note_on_c, 0, 82, 0
1, 62398, Note_on_c, 1, 64, 0
1, 62400, Note_on_c, 0, 83, 85
1, 62400, Note_on_c, 1, 62, 85
1, 62518, Note_on_c, 0, 83, 0
1, 62518, Note_on_c, 1, 62, 0
1, 62520, Note_on_c, 0, 79, 85
1, 62520, Note_on_c, 1, 64, 85
1, 62558, Note_on_c, 0, 79, 0
1, 62560, Note_on_c, 0, 78, 85
1, 62580, Note_on_c, 1, 64, 0
1, 62598, Note_on_c, 0, 78, 0
1, 62600, Note_on_c, 0, 76, 85
1, 62638, Note_on_c, 0, 76, 0
1, 62640, Note_on_c, 0, 74, 85
1, 62640, Note_on_c, 1, 66, 85
1, 62700, Note_on_c, 0, 74, 0
1, 62700, Note_on_c, 1, 66, 0
1, 62760, Note_on_c, 0, 73, 80
1, 62760, Note_on_c, 1, 54, 85
1, 62784, Note_on_c, 0, 73, 0
1, 62790, Note_on_c, 0, 74, 80
1, 62814, Note_on_c, 0, 74, 0
1, 62820, Note_on_c, 0, 73, 80
1, 62820, Note_on_c, 1, 54, 0
1, 62836, Note_on_c, 0, 73, 0
1, 62840, Note_on_c, 0, 74, 80
1, 62856, Note_on_c, 0, 74, 0
1, 62860, Note_on_c, 0, 73, 80
1, 62876, Note_on_c, 0, 73, 0
1, 62880, Note_on_c, 0, 71, 80
1, 62880, Note_on_c, 1, 59, 85
1, 62976, Note_on_c, 0, 71, 0
1, 63000, Note_on_c, 0, 74, 64
1, 63032, Note_on_c, 0, 74, 0
1, 63040, Note_on_c, 0, 73, 64
1, 63072, Note_on_c, 0, 73, 0
1, 63080, Note_on_c, 0, 71, 64
1, 63112, Note_on_c, 0, 71, 0
1, 63118, Note_on_c, 1, 59, 0
1, 63120, Note_on_c, 0, 69, 64
1, 63152, Note_on_c, 0, 69, 0
1, 63160, Note_on_c, 0, 67, 64
1, 63192, Note_on_c, 0, 67, 0
1, 63200, Note_on_c, 0, 66, 64
1, 63232, Note_on_c, 0, 66, 0
1, 63240, Note_on_c, 0, 64, 64
1, 63272, Note_on_c, 0, 64, 0
1, 63280, Note_on_c, 0, 62, 64
1, 63312, Note_on_c, 0, 62, 0
1, 63320, Note_on_c, 0, 61, 64
1, 63352, Note_on_c, 0, 61, 0
1, 63360, Note_on_c, 0, 59, 64
1, 63360, Note_on_c, 1, 55, 64
1, 63478, Note_on_c, 0, 59, 0
1, 63478, Note_on_c, 1, 55, 0
1, 63480, Note_on_c, 1, 58, 64
1, 63518, Note_on_c, 1, 58, 0
1, 63520, Note_on_c, 1, 61, 64
1, 63558, Note_on_c, 1, 61, 0
1, 63560, Note_on_c, 1, 64, 64
1, 63598, Note_on_c, 1, 64, 0
1, 63600, Note_on_c, 0, 67, 64
1, 63638, Note_on_c, 0, 67, 0
1, 63640, Note_on_c, 0, 70, 64
1, 63678, Note_on_c, 0, 70, 0
1, 63680, Note_on_c, 0, 73, 64
1, 63718, Note_on_c, 0, 73, 0
1, 63720, Note_on_c, 0, 76, 64
1, 63758, Note_on_c, 0, 76, 0
1, 63760, Note_on_c, 0, 79, 64
1, 63798, Note_on_c, 0, 79, 0
1, 63800, Note_on_c, 0, 82, 64
1, 63838, Note_on_c, 0, 82, 0
1, 63840, Note_on_c, 0, 83, 64
1, 63840, Note_on_c, 1, 62, 64
1, 63958, Note_on_c, 0, 83, 0
1, 63958, Note_on_c, 1, 62, 0
1, 63960, Note_on_c, 0, 79, 64
1, 63960, Note_on_c, 1, 64, 64
1, 63998, Note_on_c, 0, 79, 0
1, 64000, Note_on_c, 0, 78, 64
1, 64038, Note_on_c, 0, 78, 0
1, 64040, Note_on_c, 0, 76, 64
1, 64078, Note_on_c, 0, 76, 0
1, 64078, Note_on_c, 1, 64, 0
1, 64080, Note_on_c, 0, 74, 64
1, 64080, Note_on_c, 1, 66, 64
1, 64140, Note_on_c, 0, 74, 0
1, 64140, Note_on_c, 1, 66, 0
1, 64200, Note_on_c, 0, 73, 64
1, 64200, Note_on_c, 1, 54, 64
1, 64224, Note_on_c, 0, 73, 0
1, 64230, Note_on_c, 0, 74, 64
1, 64254, Note_on_c, 0, 74, 0
1, 64260, Note_on_c, 0, 73, 64
1, 64260, Note_on_c, 1, 54, 0
1, 64276, Note_on_c, 0, 73, 0
1, 64280, Note_on_c, 0, 74, 64
1, 64296, Note_on_c, 0, 74, 0
1, 64300, Note_on_c, 0, 73, 64
1, 64316, Note_on_c, 0, 73, 0
1, 64320, Note_on_c, 0, 71, 64
1, 64320, Note_on_c, 1, 59, 64
1, 64438, Note_on_c, 0, 71, 0
1, 64438, Note_on_c, 1, 59, 0
1, 64440, Note_on_c, 0, 74, 85
1, 64440, Note_on_c, 1, 59, 85
1, 64498, Note_on_c, 0, 74, 0
1, 64500, Note_on_c, 0, 83, 85
1, 64558, Note_on_c, 0, 83, 0
1, 64558, Note_on_c, 1, 59, 0
1, 64560, Note_on_c, 0, 76, 85
1, 64560, Note_on_c, 1, 61, 85
1, 64618, Note_on_c, 0, 76, 0
1, 64620, Note_on_c, 0, 83, 85
1, 64678, Note_on_c, 0, 83, 0
1, 64678, Note_on_c, 1, 61, 0
1, 64680, Note_on_c, 0, 78, 85
1, 64680, Note_on_c, 1, 62, 85
1, 64738, Note_on_c, 0, 78, 0
1, 64740, Note_on_c, 0, 83, 85
1, 64798, Note_on_c, 0, 83, 0
1, 64798, Note_on_c, 1, 62, 0
1, 64800, Note_on_c, 0, 79, 85
1, 64800, Note_on_c, 1, 64, 85
1, 64858, Note_on_c, 0, 79, 0
1, 64860, Note_on_c, 0, 83, 85
1, 64918, Note_on_c, 0, 83, 0
1, 64918, Note_on_c, 1, 64, 0
1, 64920, Note_on_c, 0, 78, 85
1, 64920, Note_on_c, 1, 62, 85
1, 64978, Note_on_c, 0, 78, 0
1, 64980, Note_on_c, 0, 83, 85
1, 65038, Note_on_c, 0, 83, 0
1, 65038, Note_on_c, 1, 62, 0
1, 65040, Note_on_c, 0, 79, 85
1, 65040, Note_on_c, 1, 64, 85
1, 65098, Note_on_c, 0, 79, 0
1, 65100, Note_on_c, 0, 83, 85
1, 65158, Note_on_c, 0, 83, 0
1, 65158, Note_on_c, 1, 64, 0
1, 65160, Note_on_c, 0, 82, 85
1, 65160, Note_on_c, 1, 66, 85
1, 65218, Note_on_c, 0, 82, 0
1, 65220, Note_on_c, 0, 88, 85
1, 65278, Note_on_c, 0, 88, 0
1, 65278, Note_on_c, 1, 66, 0
1, 65280, Note_on_c, 0, 86, 85
1, 65280, Note_on_c, 1, 67, 85
1, 65338, Note_on_c, 0, 86, 0
1, 65340, Note_on_c, 0, 83, 85
1, 65398, Note_on_c, 0, 83, 0
1, 65398, Note_on_c, 1, 67, 0
1, 65400, Note_on_c, 0, 76, 85
1, 65400, Note_on_c, 1, 64, 85
1, 65458, Note_on_c, 0, 76, 0
1, 65460, Note_on_c, 0, 85, 85
1, 65518, Note_on_c, 0, 85, 0
1, 65518, Note_on_c, 1, 64, 0
1, 65520, Note_on_c, 0, 74, 85
1, 65520, Note_on_c, 1, 66, 85
1, 65578, Note_on_c, 0, 74, 0
1, 65580, Note_on_c, 0, 83, 85
1, 65638, Note_on_c, 0, 83, 0
1, 65638, Note_on_c, 1, 66, 0
1, 65640, Note_on_c, 0, 73, 85
1, 65640, Note_on_c, 1, 54, 85
1, 65698, Note_on_c, 0, 73, 0
1, 65700, Note_on_c, 0, 82, 85
1, 65758, Note_on_c, 0, 82, 0
1, 65758, Note_on_c, 1, 54, 0
1, 65760, Note_on_c, 0, 74, 85
1, 65760, Note_on_c, 0, 83, 85
1, 65760, Note_on_c, 1, 59, 85
1, 65832, Note_on_c, 0, 83, 0
1, 65832, Note_on_c, 0, 74, 0
1, 65832, Note_on_c, 1, 59, 0
1, 65880, Note_on_c, 0, 62, 85
1, 65880, Note_on_c, 1, 35, 85
1, 65938, Note_on_c, 0, 62, 0
1, 65938, Note_on_c, 1, 35, 0
1, 65940, Note_on_c, 0, 71, 85
1, 65940, Note_on_c, 1, 47, 85
1, 65998, Note_on_c, 0, 71, 0
1, 65998, Note_on_c, 1, 47, 0
1, 66000, Note_on_c, 0, 64, 85
1, 66000, Note_on_c, 1, 37, 85
1, 66058, Note_on_c, 0, 64, 0
1, 66058, Note_on_c, 1, 37, 0
1, 66060, Note_on_c, 0, 71, 85
1, 66060, Note_on_c, 1, 49, 85
1, 66118, Note_on_c, 0, 71, 0
1, 66118, Note_on_c, 1, 49, 0
1, 66120, Note_on_c, 0, 66, 85
1, 66120, Note_on_c, 1, 38, 85
1, 66178, Note_on_c, 0, 66, 0
1, 66178, Note_on_c, 1, 38, 0
1, 66180, Note_on_c, 0, 71, 85
1, 66180, Note_on_c, 1, 50, 85
1, 66238, Note_on_c, 0, 71, 0
1, 66238, Note_on_c, 1, 50, 0
1, 66240, Note_on_c, 0, 67, 85
1, 66240, Note_on_c, 1, 40, 80
1, 66288, Note_on_c, 1, 40, 0
1, 66298, Note_on_c, 0, 67, 0
1, 66300, Note_on_c, 0, 71, 85
1, 66300, Note_on_c, 1, 52, 80
1, 66348, Note_on_c, 1, 52, 0
1, 66358, Note_on_c, 0, 71, 0
1, 66360, Note_on_c, 0, 66, 85
1, 66360, Note_on_c, 1, 38, 80
1, 66408, Note_on_c, 1, 38, 0
1, 66418, Note_on_c, 0, 66, 0
1, 66420, Note_on_c, 0, 71, 85
1, 66420, Note_on_c, 1, 50, 80
1, 66468, Note_on_c, 1, 50, 0
1, 66478, Note_on_c, 0, 71, 0
1, 66480, Note_on_c, 0, 67, 85
1, 66480, Note_on_c, 1, 40, 80
1, 66528, Note_on_c, 1, 40, 0
1, 66538, Note_on_c, 0, 67, 0
1, 66540, Note_on_c, 0, 71, 85
1, 66540, Note_on_c, 1, 52, 80
1, 66588, Note_on_c, 1, 52, 0
1, 66598, Note_on_c, 0, 71, 0
1, 66600, Note_on_c, 0, 70, 85
1, 66600, Note_on_c, 1, 42, 80
1, 66648, Note_on_c, 1, 42, 0
1, 66658, Note_on_c, 0, 70, 0
1, 66660, Note_on_c, 0, 76, 85
1, 66660, Note_on_c, 1, 54, 80
1, 66708, Note_on_c, 1, 54, 0
1, 66718, Note_on_c, 0, 76, 0
1, 66720, Note_on_c, 0, 74, 85
1, 66720, Note_on_c, 1, 43, 80
1, 66768, Note_on_c, 1, 43, 0
1, 66778, Note_on_c, 0, 74, 0
1, 66780, Note_on_c, 0, 71, 85
1, 66780, Note_on_c, 1, 55, 80
1, 66828, Note_on_c, 1, 55, 0
1, 66838, Note_on_c, 0, 71, 0
1, 66840, Note_on_c, 0, 64, 85
1, 66840, Note_on_c, 1, 52, 80
1, 66898, Note_on_c, 0, 64, 0
1, 66900, Note_on_c, 0, 73, 85
1, 66936, Note_on_c, 1, 52, 0
1, 66958, Note_on_c, 0, 73, 0
1, 66960, Note_on_c, 0, 62, 85
1, 66960, Note_on_c, 1, 54, 80
1, 67018, Note_on_c, 0, 62, 0
1, 67020, Note_on_c, 0, 71, 85
1, 67056, Note_on_c, 1, 54, 0
1, 67078, Note_on_c, 0, 71, 0
1, 67080, Note_on_c, 0, 61, 85
1, 67080, Note_on_c, 1, 42, 80
1, 67138, Note_on_c, 0, 61, 0
1, 67140, Note_on_c, 0, 70, 85
1, 67176, Note_on_c, 1, 42, 0
1, 67198, Note_on_c, 0, 70, 0
1, 67200, Note_on_c, 0, 62, 80
1, 67200, Note_on_c, 0, 71, 80
1, 67200, Note_on_c, 1, 47, 80
1, 67320, Note_on_c, 0, 71, 0
1, 67320, Note_on_c, 0, 62, 0
1, 67320, Note_on_c, 0, 71, 84
1, 67320, Note_on_c, 0, 74, 84
1, 67320, Note_on_c, 1, 47, 0
1, 67392, Note_on_c, 0, 74, 0
1, 67392, Note_on_c, 0, 71, 0
1, 67440, Note_on_c, 0, 74, 88
1, 67440, Note_on_c, 0, 78, 88
1, 67512, Note_on_c, 0, 78, 0
1, 67512, Note_on_c, 0, 74, 0
1, 67560, Note_on_c, 0, 71, 92
1, 67560, Note_on_c, 0, 74, 92
1, 67632, Note_on_c, 0, 74, 0
1, 67632, Note_on_c, 0, 71, 0
1, 67680, Note_on_c, 0, 71, 108
1, 67680, Note_on_c, 0, 74, 108
1, 67680, Note_on_c, 0, 78, 108
1, 67680, Note_on_c, 0, 83, 108
1, 67680, Note_on_c, 1, 35, 108
1, 67680, Note_on_c, 1, 38, 108
1, 67680, Note_on_c, 1, 42, 108
1, 67680, Note_on_c, 1, 47, 108
1, 67918, Note_on_c, 0, 83, 0
1, 67918, Note_on_c, 0, 71, 0
1, 67918, Note_on_c, 0, 74, 0
1, 67918, Note_on_c, 0, 78, 0
1, 67918, Note_on_c, 1, 47, 0
1, 67918, Note_on_c, 1, 35, 0
1, 67918, Note_on_c, 1, 38, 0
1, 67918, Note_on_c, 1, 42, 0
1, 67928, End_track
0, 0, End_of_file