0, 0, Header, 0, 1, 240
1, 0, Start_track
1, 0, Tempo, 666667
1, 0, Note_on_c, 1, 39, 76
1, 15, Note_on_c, 1, 43, 76
1, 30, Note_on_c, 1, 46, 76
1, 45, Note_on_c, 1, 51, 76
1, 60, Note_on_c, 0, 55, 76
1, 75, Note_on_c, 0, 58, 76
1, 90, Note_on_c, 0, 63, 76
1, 240, Note_on_c, 0, 63, 0
1, 240, Note_on_c, 0, 58, 0
1, 240, Note_on_c, 0, 55, 0
1, 240, Note_on_c, 0, 63, 76
1, 240, Note_on_c, 0, 61, 76
1, 240, Note_on_c, 0, 67, 76
1, 240, Note_on_c, 1, 51, 0
1, 240, Note_on_c, 1, 39, 0
1, 240, Note_on_c, 1, 43, 0
1, 240, Note_on_c, 1, 46, 0
1, 240, Note_on_c, 1, 46, 76
1, 240, Note_on_c, 1, 43, 76
1, 240, Note_on_c, 1, 39, 76
1, 240, Note_on_c, 1, 49, 76
1, 420, Note_on_c, 0, 67, 0
1, 420, Note_on_c, 0, 61, 0
1, 420, Note_on_c, 0, 63, 0
1, 420, Note_on_c, 0, 61, 76
1, 420, Note_on_c, 0, 63, 76
1, 420, Note_on_c, 0, 67, 76
1, 420, Note_on_c, 1, 49, 0
1, 420, Note_on_c, 1, 46, 0
1, 420, Note_on_c, 1, 43, 0
1, 420, Note_on_c, 1, 39, 0
1, 420, Note_on_c, 1, 39, 76
1, 420, Note_on_c, 1, 43, 76
1, 420, Note_on_c, 1, 46, 76
1, 420, Note_on_c, 1, 49, 76
1, 480, Note_on_c, 0, 67, 0
1, 480, Note_on_c, 0, 63, 0
1, 480, Note_on_c, 0, 61, 0
1, 480, Note_on_c, 0, 60, 76
1, 480, Note_on_c, 1, 49, 0
1, 480, Note_on_c, 1, 39, 0
1, 480, Note_on_c, 1, 43, 0
1, 480, Note_on_c, 1, 46, 0
1, 480, Note_on_c, 1, 39, 76
1, 480, Note_on_c, 1, 48, 76
1, 480, Note_on_c, 1, 44, 76
1, 495, Note_on_c, 0, 63, 76
1, 510, Note_on_c, 0, 68, 76
1, 840, Note_on_c, 0, 63, 0
1, 840, Note_on_c, 0, 60, 0
1, 840, Note_on_c, 1, 44, 0
1, 840, Note_on_c, 1, 48, 0
1, 840, Note_on_c, 1, 39, 0
1, 870, Note_on_c, 0, 68, 0
1, 870, Note_on_c, 0, 67, 76
1, 885, Note_on_c, 1, 39, 76
1, 900, Note_on_c, 0, 67, 0
1, 900, Note_on_c, 0, 65, 76
1, 900, Note_on_c, 1, 41, 76
1, 915, Note_on_c, 1, 46, 76
1, 930, Note_on_c, 0, 65, 0
1, 930, Note_on_c, 0, 63, 76
1, 930, Note_on_c, 1, 50, 76
1, 960, Note_on_c, 0, 63, 0
1, 960, Note_on_c, 0, 58, 76
1, 960, Note_on_c, 0, 56, 76
1, 960, Note_on_c, 0, 62, 76
1, 1080, Note_on_c, 0, 56, 0
1, 1080, Note_on_c, 0, 58, 0
1, 1080, Note_on_c, 1, 50, 0
1, 1080, Note_on_c, 1, 39, 0
1, 1080, Note_on_c, 1, 41, 0
1, 1080, Note_on_c, 1, 46, 0
1, 1140, Note_on_c, 0, 62, 0
1, 1140, Note_on_c, 0, 65, 76
1, 1200, Note_on_c, 0, 65, 0
1, 1200, Note_on_c, 0, 70, 76
1, 1200, Note_on_c, 1, 65, 76
1, 1200, Note_on_c, 1, 62, 76
1, 1200, Note_on_c, 1, 50, 76
1, 1200, Note_on_c, 1, 44, 76
1, 1200, Note_on_c, 1, 41, 76
1, 1200, Note_on_c, 1, 39, 76
1, 1320, Note_on_c, 1, 39, 0
1, 1320, Note_on_c, 1, 62, 0
1, 1320, Note_on_c, 1, 50, 0
1, 1320, Note_on_c, 1, 65, 0
1, 1320, Note_on_c, 1, 41, 0
1, 1320, Note_on_c, 1, 44, 0
1, 1380, Note_on_c, 0, 70, 0
1, 1380, Note_on_c, 0, 68, 76
1, 1380, Note_on_c, 1, 39, 76
1, 1395, Note_on_c, 1, 43, 76
1, 1410, Note_on_c, 1, 46, 76
1, 1425, Note_on_c, 1, 51, 76
1, 1440, Note_on_c, 0, 68, 0
1, 1440, Note_on_c, 0, 58, 76
1, 1440, Note_on_c, 0, 63, 76
1, 1440, Note_on_c, 0, 67, 76
1, 1440, Note_on_c, 1, 51, 0
1, 1440, Note_on_c, 1, 43, 0
1, 1440, Note_on_c, 1, 43, 76
1, 1440, Note_on_c, 1, 51, 76
1, 1680, Note_on_c, 0, 67, 0
1, 1680, Note_on_c, 0, 63, 0
1, 1680, Note_on_c, 0, 58, 0
1, 1680, Note_on_c, 1, 51, 0
1, 1680, Note_on_c, 1, 39, 0
1, 1680, Note_on_c, 1, 46, 0
1, 1680, Note_on_c, 1, 43, 0
1, 1920, Note_on_c, 0, 74, 48
1, 1920, Note_on_c, 1, 58, 48
1, 1920, Note_on_c, 1, 65, 48
1, 1920, Note_on_c, 1, 68, 48
1, 2040, Note_on_c, 1, 68, 0
1, 2040, Note_on_c, 1, 65, 0
1, 2040, Note_on_c, 1, 58, 0
1, 2100, Note_on_c, 0, 74, 0
1, 2100, Note_on_c, 0, 77, 48
1, 2160, Note_on_c, 0, 77, 0
1, 2160, Note_on_c, 0, 82, 48
1, 2160, Note_on_c, 1, 58, 48
1, 2160, Note_on_c, 1, 65, 48
1, 2160, Note_on_c, 1, 68, 48
1, 2280, Note_on_c, 1, 68, 0
1, 2280, Note_on_c, 1, 65, 0
1, 2280, Note_on_c, 1, 58, 0
1, 2340, Note_on_c, 0, 82, 0
1, 2340, Note_on_c, 0, 80, 48
1, 2340, Note_on_c, 1, 62, 48
1, 2400, Note_on_c, 0, 80, 0
1, 2400, Note_on_c, 0, 79, 48
1, 2400, Note_on_c, 1, 62, 0
1, 2400, Note_on_c, 1, 63, 48
1, 2496, Note_on_c, 0, 79, 0
1, 2496, Note_on_c, 1, 63, 0
1, 2700, Note_on_c, 0, 84, 48
1, 2700, Note_on_c, 0, 80, 48
1, 2700, Note_on_c, 1, 58, 48
1, 2718, Note_on_c, 0, 80, 0
1, 2718, Note_on_c, 0, 84, 0
1, 2718, Note_on_c, 1, 58, 0
1, 2760, Note_on_c, 0, 82, 48
1, 2760, Note_on_c, 0, 79, 48
1, 2760, Note_on_c, 1, 60, 48
1, 2778, Note_on_c, 0, 79, 0
1, 2778, Note_on_c, 0, 82, 0
1, 2778, Note_on_c, 1, 60, 0
1, 2820, Note_on_c, 0, 77, 48
1, 2820, Note_on_c, 0, 80, 48
1, 2820, Note_on_c, 1, 62, 48
1, 2838, Note_on_c, 0, 80, 0
1, 2838, Note_on_c, 0, 77, 0
1, 2838, Note_on_c, 1, 62, 0
1, 2880, Note_on_c, 0, 75, 48
1, 2880, Note_on_c, 0, 79, 48
1, 2880, Note_on_c, 1, 63, 48
1, 3000, Note_on_c, 0, 79, 0
1, 3000, Note_on_c, 0, 75, 0
1, 3000, Note_on_c, 1, 63, 0
1, 3180, Note_on_c, 0, 80, 80
1, 3180, Note_on_c, 0, 84, 80
1, 3180, Note_on_c, 1, 58, 80
1, 3198, Note_on_c, 0, 84, 0
1, 3198, Note_on_c, 0, 80, 0
1, 3198, Note_on_c, 1, 58, 0
1, 3240, Note_on_c, 0, 79, 80
1, 3240, Note_on_c, 0, 82, 80
1, 3240, Note_on_c, 1, 60, 80
1, 3258, Note_on_c, 0, 82, 0
1, 3258, Note_on_c, 0, 79, 0
1, 3258, Note_on_c, 1, 60, 0
1, 3300, Note_on_c, 0, 77, 80
1, 3300, Note_on_c, 0, 80, 80
1, 3300, Note_on_c, 1, 62, 80
1, 3318, Note_on_c, 0, 80, 0
1, 3318, Note_on_c, 0, 77, 0
1, 3318, Note_on_c, 1, 62, 0
1, 3360, Note_on_c, 0, 79, 80
1, 3360, Note_on_c, 0, 75, 80
1, 3360, Note_on_c, 1, 63, 80
1, 3480, Note_on_c, 0, 75, 0
1, 3480, Note_on_c, 0, 79, 0
1, 3480, Note_on_c, 1, 63, 0
1, 3660, Note_on_c, 0, 80, 80
1, 3660, Note_on_c, 0, 84, 80
1, 3678, Note_on_c, 0, 84, 0
1, 3678, Note_on_c, 0, 80, 0
1, 3720, Note_on_c, 0, 79, 80
1, 3720, Note_on_c, 0, 82, 80
1, 3738, Note_on_c, 0, 82, 0
1, 3738, Note_on_c, 0, 79, 0
1, 3780, Note_on_c, 0, 77, 80
1, 3780, Note_on_c, 0, 80, 80
1, 3798, Note_on_c, 0, 80, 0
1, 3798, Note_on_c, 0, 77, 0
1, 3840, Note_on_c, 0, 75, 80
1, 3840, Note_on_c, 0, 79, 80
1, 3900, Note_on_c, 0, 79, 0
1, 3900, Note_on_c, 0, 75, 0
1, 3900, Note_on_c, 0, 80, 79
1, 3900, Note_on_c, 0, 84, 79
1, 3918, Note_on_c, 0, 84, 0
1, 3918, Note_on_c, 0, 80, 0
1, 3960, Note_on_c, 0, 79, 78
1, 3960, Note_on_c, 0, 82, 78
1, 3978, Note_on_c, 0, 82, 0
1, 3978, Note_on_c, 0, 79, 0
1, 4020, Note_on_c, 0, 77, 77
1, 4020, Note_on_c, 0, 80, 77
1, 4038, Note_on_c, 0, 80, 0
1, 4038, Note_on_c, 0, 77, 0
1, 4080, Note_on_c, 0, 75, 76
1, 4080, Note_on_c, 0, 79, 76
1, 4140, Note_on_c, 0, 79, 0
1, 4140, Note_on_c, 0, 75, 0
1, 4140, Note_on_c, 0, 79, 75
1, 4140, Note_on_c, 0, 82, 75
1, 4170, Note_on_c, 0, 82, 0
1, 4170, Note_on_c, 0, 79, 0
1, 4200, Note_on_c, 0, 77, 74
1, 4200, Note_on_c, 0, 80, 74
1, 4230, Note_on_c, 0, 80, 0
1, 4230, Note_on_c, 0, 77, 0
1, 4260, Note_on_c, 0, 75, 73
1, 4260, Note_on_c, 0, 79, 73
1, 4290, Note_on_c, 0, 79, 0
1, 4290, Note_on_c, 0, 75, 0
1, 4320, Note_on_c, 0, 74, 72
1, 4320, Note_on_c, 0, 77, 72
1, 4380, Note_on_c, 0, 77, 0
1, 4380, Note_on_c, 0, 74, 0
1, 4380, Note_on_c, 0, 72, 71
1, 4380, Note_on_c, 0, 75, 71
1, 4440, Note_on_c, 0, 75, 0
1, 4440, Note_on_c, 0, 72, 0
1, 4440, Note_on_c, 0, 70, 70
1, 4440, Note_on_c, 0, 74, 70
1, 4500, Note_on_c, 0, 74, 0
1, 4500, Note_on_c, 0, 70, 0
1, 4500, Note_on_c, 0, 68, 69
1, 4500, Note_on_c, 0, 72, 69
1, 4560, Note_on_c, 0, 72, 0
1, 4560, Note_on_c, 0, 68, 0
1, 4560, Note_on_c, 0, 67, 68
1, 4560, Note_on_c, 0, 70, 68
1, 4620, Note_on_c, 0, 70, 0
1, 4620, Note_on_c, 0, 67, 0
1, 4620, Note_on_c, 0, 65, 67
1, 4620, Note_on_c, 0, 68, 67
1, 4680, Note_on_c, 0, 68, 0
1, 4680, Note_on_c, 0, 65, 0
1, 4680, Note_on_c, 0, 63, 66
1, 4680, Note_on_c, 0, 67, 66
1, 4740, Note_on_c, 0, 67, 0
1, 4740, Note_on_c, 0, 63, 0
1, 4740, Note_on_c, 0, 62, 65
1, 4740, Note_on_c, 0, 65, 65
1, 4800, Note_on_c, 0, 65, 0
1, 4800, Note_on_c, 0, 62, 0
1, 4800, Note_on_c, 0, 63, 64
1, 4800, Note_on_c, 1, 48, 40
1, 4860, Note_on_c, 1, 48, 0
1, 4860, Note_on_c, 1, 56, 40
1, 4920, Note_on_c, 1, 56, 0
1, 4920, Note_on_c, 1, 48, 40
1, 4980, Note_on_c, 1, 48, 0
1, 4980, Note_on_c, 1, 56, 40
1, 5040, Note_on_c, 1, 56, 0
1, 5040, Note_on_c, 1, 48, 40
1, 5100, Note_on_c, 1, 48, 0
1, 5100, Note_on_c, 1, 56, 40
1, 5160, Note_on_c, 1, 56, 0
1, 5160, Note_on_c, 1, 48, 40
1, 5184, Note_on_c, 0, 63, 0
1, 5220, Note_on_c, 0, 65, 64
1, 5220, Note_on_c, 1, 48, 0
1, 5220, Note_on_c, 1, 56, 40
1, 5244, Note_on_c, 0, 65, 0
1, 5250, Note_on_c, 0, 63, 64
1, 5274, Note_on_c, 0, 63, 0
1, 5280, Note_on_c, 0, 62, 64
1, 5280, Note_on_c, 1, 56, 0
1, 5280, Note_on_c, 1, 46, 40
1, 5340, Note_on_c, 1, 46, 0
1, 5340, Note_on_c, 1, 56, 40
1, 5400, Note_on_c, 0, 62, 0
1, 5400, Note_on_c, 1, 56, 0
1, 5400, Note_on_c, 1, 46, 40
1, 5460, Note_on_c, 1, 46, 0
1, 5460, Note_on_c, 1, 56, 40
1, 5520, Note_on_c, 0, 61, 72
1, 5520, Note_on_c, 1, 56, 0
1, 5520, Note_on_c, 1, 46, 40
1, 5580, Note_on_c, 1, 46, 0
1, 5580, Note_on_c, 1, 55, 40
1, 5640, Note_on_c, 1, 55, 0
1, 5640, Note_on_c, 1, 46, 40
1, 5700, Note_on_c, 1, 46, 0
1, 5700, Note_on_c, 1, 55, 40
1, 5760, Note_on_c, 0, 61, 0
1, 5760, Note_on_c, 0, 60, 64
1, 5760, Note_on_c, 1, 55, 0
1, 5760, Note_on_c, 1, 44, 40
1, 5820, Note_on_c, 1, 44, 0
1, 5820, Note_on_c, 1, 55, 40
1, 5880, Note_on_c, 1, 55, 0
1, 5880, Note_on_c, 1, 44, 40
1, 5940, Note_on_c, 1, 44, 0
1, 5940, Note_on_c, 1, 55, 40
1, 6000, Note_on_c, 1, 55, 0
1, 6000, Note_on_c, 1, 44, 40
1, 6060, Note_on_c, 1, 44, 0
1, 6060, Note_on_c, 1, 53, 40
1, 6120, Note_on_c, 1, 53, 0
1, 6120, Note_on_c, 1, 44, 40
1, 6144, Note_on_c, 0, 60, 0
1, 6180, Note_on_c, 0, 62, 72
1, 6180, Note_on_c, 1, 44, 0
1, 6180, Note_on_c, 1, 53, 40
1, 6204, Note_on_c, 0, 62, 0
1, 6210, Note_on_c, 0, 60, 72
1, 6234, Note_on_c, 0, 60, 0
1, 6240, Note_on_c, 0, 58, 72
1, 6240, Note_on_c, 1, 53, 0
1, 6240, Note_on_c, 1, 43, 40
1, 6300, Note_on_c, 1, 43, 0
1, 6300, Note_on_c, 1, 53, 40
1, 6360, Note_on_c, 1, 53, 0
1, 6360, Note_on_c, 1, 43, 40
1, 6384, Note_on_c, 0, 58, 0
1, 6420, Note_on_c, 0, 60, 72
1, 6420, Note_on_c, 1, 43, 0
1, 6420, Note_on_c, 1, 53, 40
1, 6444, Note_on_c, 0, 60, 0
1, 6450, Note_on_c, 0, 62, 72
1, 6474, Note_on_c, 0, 62, 0
1, 6480, Note_on_c, 0, 63, 72
1, 6480, Note_on_c, 1, 53, 0
1, 6480, Note_on_c, 1, 43, 40
1, 6540, Note_on_c, 1, 43, 0
1, 6540, Note_on_c, 1, 51, 40
1, 6600, Note_on_c, 1, 51, 0
1, 6600, Note_on_c, 1, 43, 40
1, 6624, Note_on_c, 0, 63, 0
1, 6660, Note_on_c, 0, 65, 72
1, 6660, Note_on_c, 1, 43, 0
1, 6660, Note_on_c, 1, 51, 40
1, 6684, Note_on_c, 0, 65, 0
1, 6690, Note_on_c, 0, 67, 72
1, 6714, Note_on_c, 0, 67, 0
1, 6720, Note_on_c, 0, 68, 64
1, 6720, Note_on_c, 1, 51, 0
1, 6720, Note_on_c, 1, 41, 48
1, 6780, Note_on_c, 1, 41, 0
1, 6780, Note_on_c, 1, 50, 47
1, 6840, Note_on_c, 1, 50, 0
1, 6840, Note_on_c, 1, 41, 47
1, 6900, Note_on_c, 1, 41, 0
1, 6900, Note_on_c, 1, 50, 46
1, 6960, Note_on_c, 0, 68, 0
1, 6960, Note_on_c, 0, 67, 62
1, 6960, Note_on_c, 1, 50, 0
1, 6960, Note_on_c, 1, 39, 46
1, 7020, Note_on_c, 1, 39, 0
1, 7020, Note_on_c, 1, 43, 45
1, 7050, Note_on_c, 1, 43, 0
1, 7080, Note_on_c, 1, 46, 45
1, 7110, Note_on_c, 1, 46, 0
1, 7140, Note_on_c, 1, 51, 44
1, 7170, Note_on_c, 1, 51, 0
1, 7200, Note_on_c, 0, 67, 0
1, 7200, Note_on_c, 0, 60, 60
1, 7200, Note_on_c, 0, 65, 60
1, 7200, Note_on_c, 1, 44, 44
1, 7200, Note_on_c, 1, 56, 44
1, 7284, Note_on_c, 0, 65, 0
1, 7284, Note_on_c, 0, 60, 0
1, 7284, Note_on_c, 1, 56, 0
1, 7284, Note_on_c, 1, 44, 0
1, 7440, Note_on_c, 0, 56, 58
1, 7440, Note_on_c, 0, 62, 58
1, 7440, Note_on_c, 1, 46, 42
1, 7440, Note_on_c, 1, 53, 42
1, 7524, Note_on_c, 0, 62, 0
1, 7524, Note_on_c, 0, 56, 0
1, 7524, Note_on_c, 1, 53, 0
1, 7524, Note_on_c, 1, 46, 0
1, 7605, Note_on_c, 1, 51, 80
1, 7620, Note_on_c, 1, 55, 80
1, 7635, Note_on_c, 1, 58, 80
1, 7650, Note_on_c, 1, 63, 80
1, 7680, Note_on_c, 0, 70, 80
1, 7680, Note_on_c, 0, 67, 80
1, 7680, Note_on_c, 0, 75, 80
1, 7872, Note_on_c, 0, 75, 0
1, 7872, Note_on_c, 0, 67, 0
1, 7872, Note_on_c, 0, 70, 0
1, 7872, Note_on_c, 1, 63, 0
1, 7872, Note_on_c, 1, 51, 0
1, 7872, Note_on_c, 1, 55, 0
1, 7872, Note_on_c, 1, 58, 0
1, 7920, Note_on_c, 0, 73, 80
1, 7920, Note_on_c, 0, 75, 80
1, 7920, Note_on_c, 0, 79, 80
1, 7920, Note_on_c, 1, 61, 80
1, 7920, Note_on_c, 1, 58, 80
1, 7920, Note_on_c, 1, 55, 80
1, 7920, Note_on_c, 1, 51, 80
1, 8064, Note_on_c, 0, 79, 0
1, 8064, Note_on_c, 0, 75, 0
1, 8064, Note_on_c, 0, 73, 0
1, 8100, Note_on_c, 0, 75, 80
1, 8112, Note_on_c, 1, 51, 0
1, 8112, Note_on_c, 1, 61, 0
1, 8112, Note_on_c, 1, 58, 0
1, 8112, Note_on_c, 1, 55, 0
1, 8148, Note_on_c, 0, 75, 0
1, 8160, Note_on_c, 0, 72, 80
1, 8160, Note_on_c, 1, 51, 80
1, 8160, Note_on_c, 1, 56, 80
1, 8160, Note_on_c, 1, 60, 80
1, 8175, Note_on_c, 0, 75, 80
1, 8190, Note_on_c, 0, 80, 80
1, 8364, Note_on_c, 0, 80, 0
1, 8364, Note_on_c, 0, 75, 0
1, 8364, Note_on_c, 0, 72, 0
1, 8400, Note_on_c, 0, 84, 80
1, 8424, Note_on_c, 0, 84, 0
1, 8430, Note_on_c, 0, 82, 80
1, 8454, Note_on_c, 0, 82, 0
1, 8460, Note_on_c, 0, 80, 80
1, 8484, Note_on_c, 0, 80, 0
1, 8490, Note_on_c, 0, 79, 80
1, 8514, Note_on_c, 0, 79, 0
1, 8520, Note_on_c, 0, 77, 80
1, 8544, Note_on_c, 0, 77, 0
1, 8544, Note_on_c, 1, 60, 0
1, 8544, Note_on_c, 1, 56, 0
1, 8544, Note_on_c, 1, 51, 0
1, 8550, Note_on_c, 0, 75, 80
1, 8574, Note_on_c, 0, 75, 0
1, 8580, Note_on_c, 0, 74, 80
1, 8604, Note_on_c, 0, 74, 0
1, 8610, Note_on_c, 0, 72, 80
1, 8634, Note_on_c, 0, 72, 0
1, 8640, Note_on_c, 0, 70, 80
1, 8640, Note_on_c, 1, 53, 80
1, 8640, Note_on_c, 1, 56, 80
1, 8640, Note_on_c, 1, 58, 80
1, 8640, Note_on_c, 1, 62, 80
1, 8664, Note_on_c, 0, 70, 0
1, 8670, Note_on_c, 0, 68, 79
1, 8694, Note_on_c, 0, 68, 0
1, 8700, Note_on_c, 0, 67, 78
1, 8724, Note_on_c, 0, 67, 0
1, 8730, Note_on_c, 0, 65, 78
1, 8754, Note_on_c, 0, 65, 0
1, 8760, Note_on_c, 0, 63, 77
1, 8784, Note_on_c, 0, 63, 0
1, 8790, Note_on_c, 0, 62, 76
1, 8814, Note_on_c, 0, 62, 0
1, 8820, Note_on_c, 0, 60, 75
1, 8832, Note_on_c, 1, 62, 0
1, 8832, Note_on_c, 1, 53, 0
1, 8832, Note_on_c, 1, 56, 0
1, 8832, Note_on_c, 1, 58, 0
1, 8844, Note_on_c, 0, 60, 0
1, 8850, Note_on_c, 0, 58, 75
1, 8874, Note_on_c, 0, 58, 0
1, 8880, Note_on_c, 0, 56, 74
1, 8899, Note_on_c, 0, 56, 0
1, 8904, Note_on_c, 0, 55, 73
1, 8923, Note_on_c, 0, 55, 0
1, 8928, Note_on_c, 0, 53, 73
1, 8947, Note_on_c, 0, 53, 0
1, 8952, Note_on_c, 0, 51, 72
1, 8971, Note_on_c, 0, 51, 0
1, 8976, Note_on_c, 0, 50, 72
1, 8995, Note_on_c, 0, 50, 0
1, 9000, Note_on_c, 0, 48, 71
1, 9019, Note_on_c, 0, 48, 0
1, 9024, Note_on_c, 0, 46, 70
1, 9043, Note_on_c, 0, 46, 0
1, 9048, Note_on_c, 0, 44, 70
1, 9067, Note_on_c, 0, 44, 0
1, 9072, Note_on_c, 0, 43, 69
1, 9091, Note_on_c, 0, 43, 0
1, 9096, Note_on_c, 0, 41, 69
1, 9115, Note_on_c, 0, 41, 0
1, 9120, Note_on_c, 1, 39, 68
1, 9312, Note_on_c, 1, 39, 0
1, 9360, Note_on_c, 0, 84, 40
1, 9360, Note_on_c, 1, 75, 56
1, 9420, Note_on_c, 0, 84, 0
1, 9420, Note_on_c, 0, 79, 40
1, 9480, Note_on_c, 0, 79, 0
1, 9480, Note_on_c, 0, 84, 40
1, 9540, Note_on_c, 0, 84, 0
1, 9540, Note_on_c, 0, 79, 40
1, 9540, Note_on_c, 1, 75, 0
1, 9540, Note_on_c, 1, 77, 64
1, 9570, Note_on_c, 1, 77, 0
1, 9570, Note_on_c, 1, 75, 64
1, 9600, Note_on_c, 0, 79, 0
1, 9600, Note_on_c, 0, 84, 40
1, 9600, Note_on_c, 1, 75, 0
1, 9600, Note_on_c, 1, 74, 56
1, 9660, Note_on_c, 0, 84, 0
1, 9660, Note_on_c, 0, 77, 40
1, 9720, Note_on_c, 0, 77, 0
1, 9720, Note_on_c, 0, 84, 40
1, 9780, Note_on_c, 0, 84, 0
1, 9780, Note_on_c, 0, 77, 40
1, 9840, Note_on_c, 0, 77, 0
1, 9840, Note_on_c, 0, 82, 40
1, 9840, Note_on_c, 1, 74, 0
1, 9840, Note_on_c, 1, 73, 56
1, 9900, Note_on_c, 0, 82, 0
1, 9900, Note_on_c, 0, 77, 40
1, 9960, Note_on_c, 0, 77, 0
1, 9960, Note_on_c, 0, 82, 40
1, 10020, Note_on_c, 0, 82, 0
1, 10020, Note_on_c, 0, 77, 40
1, 10080, Note_on_c, 0, 77, 0
1, 10080, Note_on_c, 0, 82, 40
1, 10080, Note_on_c, 1, 73, 0
1, 10080, Note_on_c, 1, 72, 56
1, 10140, Note_on_c, 0, 82, 0
1, 10140, Note_on_c, 0, 76, 40
1, 10200, Note_on_c, 0, 76, 0
1, 10200, Note_on_c, 0, 82, 40
1, 10260, Note_on_c, 0, 82, 0
1, 10260, Note_on_c, 0, 76, 40
1, 10320, Note_on_c, 0, 76, 0
1, 10320, Note_on_c, 0, 80, 40
1, 10380, Note_on_c, 0, 80, 0
1, 10380, Note_on_c, 0, 75, 40
1, 10440, Note_on_c, 0, 75, 0
1, 10440, Note_on_c, 0, 80, 40
1, 10500, Note_on_c, 0, 80, 0
1, 10500, Note_on_c, 0, 75, 40
1, 10500, Note_on_c, 1, 72, 0
1, 10500, Note_on_c, 1, 74, 72
1, 10530, Note_on_c, 1, 74, 0
1, 10530, Note_on_c, 1, 72, 72
1, 10560, Note_on_c, 0, 75, 0
1, 10560, Note_on_c, 0, 80, 40
1, 10560, Note_on_c, 1, 72, 0
1, 10560, Note_on_c, 1, 70, 56
1, 10620, Note_on_c, 0, 80, 0
1, 10620, Note_on_c, 0, 74, 40
1, 10680, Note_on_c, 0, 74, 0
1, 10680, Note_on_c, 0, 80, 40
1, 10740, Note_on_c, 0, 80, 0
1, 10740, Note_on_c, 0, 74, 40
1, 10800, Note_on_c, 0, 74, 0
1, 10800, Note_on_c, 0, 79, 40
1, 10860, Note_on_c, 0, 79, 0
1, 10860, Note_on_c, 0, 73, 40
1, 10920, Note_on_c, 0, 73, 0
1, 10920, Note_on_c, 0, 79, 40
1, 10980, Note_on_c, 0, 79, 0
1, 10980, Note_on_c, 0, 73, 40
1, 10980, Note_on_c, 1, 70, 0
1, 10980, Note_on_c, 1, 72, 72
1, 11010, Note_on_c, 1, 72, 0
1, 11010, Note_on_c, 1, 70, 72
1, 11040, Note_on_c, 0, 73, 0
1, 11040, Note_on_c, 0, 79, 40
1, 11040, Note_on_c, 1, 70, 0
1, 11040, Note_on_c, 1, 69, 56
1, 11100, Note_on_c, 0, 79, 0
1, 11100, Note_on_c, 0, 72, 40
1, 11160, Note_on_c, 0, 72, 0
1, 11160, Note_on_c, 0, 79, 40
1, 11220, Note_on_c, 0, 79, 0
1, 11220, Note_on_c, 0, 72, 40
1, 11280, Note_on_c, 0, 72, 0
1, 11280, Note_on_c, 0, 77, 40
1, 11280, Note_on_c, 1, 69, 0
1, 11280, Note_on_c, 1, 68, 56
1, 11340, Note_on_c, 0, 77, 0
1, 11340, Note_on_c, 0, 72, 40
1, 11400, Note_on_c, 0, 72, 0
1, 11400, Note_on_c, 0, 77, 40
1, 11460, Note_on_c, 0, 77, 0
1, 11460, Note_on_c, 0, 72, 40
1, 11460, Note_on_c, 1, 68, 0
1, 11460, Note_on_c, 1, 70, 72
1, 11490, Note_on_c, 1, 70, 0
1, 11490, Note_on_c, 1, 68, 72
1, 11520, Note_on_c, 0, 72, 0
1, 11520, Note_on_c, 0, 77, 40
1, 11520, Note_on_c, 1, 68, 0
1, 11520, Note_on_c, 1, 67, 56
1, 11580, Note_on_c, 0, 77, 0
1, 11580, Note_on_c, 0, 70, 42
1, 11640, Note_on_c, 0, 70, 0
1, 11640, Note_on_c, 0, 77, 44
1, 11700, Note_on_c, 0, 77, 0
1, 11700, Note_on_c, 0, 70, 46
1, 11712, Note_on_c, 1, 67, 0
1, 11760, Note_on_c, 0, 70, 0
1, 11760, Note_on_c, 0, 75, 48
1, 11760, Note_on_c, 1, 66, 62
1, 11820, Note_on_c, 0, 75, 0
1, 11820, Note_on_c, 0, 70, 50
1, 11880, Note_on_c, 0, 70, 0
1, 11880, Note_on_c, 0, 75, 52
1, 11940, Note_on_c, 0, 75, 0
1, 11940, Note_on_c, 0, 70, 54
1, 11952, Note_on_c, 1, 66, 0
1, 12000, Note_on_c, 0, 70, 0
1, 12000, Note_on_c, 0, 75, 56
1, 12000, Note_on_c, 1, 65, 68
1, 12060, Note_on_c, 0, 75, 0
1, 12060, Note_on_c, 0, 69, 58
1, 12120, Note_on_c, 0, 69, 0
1, 12120, Note_on_c, 0, 75, 60
1, 12180, Note_on_c, 0, 75, 0
1, 12180, Note_on_c, 0, 69, 62
1, 12192, Note_on_c, 1, 65, 0
1, 12240, Note_on_c, 0, 69, 0
1, 12240, Note_on_c, 0, 73, 64
1, 12240, Note_on_c, 1, 64, 74
1, 12300, Note_on_c, 0, 73, 0
1, 12300, Note_on_c, 0, 70, 66
1, 12360, Note_on_c, 0, 70, 0
1, 12360, Note_on_c, 0, 73, 68
1, 12420, Note_on_c, 0, 73, 0
1, 12420, Note_on_c, 0, 70, 70
1, 12432, Note_on_c, 1, 64, 0
1, 12480, Note_on_c, 0, 70, 0
1, 12480, Note_on_c, 0, 69, 72
1, 12480, Note_on_c, 1, 65, 80
1, 12480, Note_on_c, 1, 53, 80
1, 12528, Note_on_c, 0, 69, 0
1, 12540, Note_on_c, 0, 72, 72
1, 12588, Note_on_c, 0, 72, 0
1, 12600, Note_on_c, 0, 77, 72
1, 12648, Note_on_c, 0, 77, 0
1, 12660, Note_on_c, 0, 72, 72
1, 12672, Note_on_c, 1, 65, 0
1, 12708, Note_on_c, 0, 72, 0
1, 12720, Note_on_c, 0, 78, 72
1, 12720, Note_on_c, 1, 63, 80
1, 12768, Note_on_c, 0, 78, 0
1, 12780, Note_on_c, 0, 69, 72
1, 12828, Note_on_c, 0, 69, 0
1, 12840, Note_on_c, 0, 81, 72
1, 12864, Note_on_c, 1, 63, 0
1, 12888, Note_on_c, 0, 81, 0
1, 12900, Note_on_c, 0, 72, 72
1, 12900, Note_on_c, 1, 65, 80
1, 12924, Note_on_c, 1, 65, 0
1, 12930, Note_on_c, 1, 63, 80
1, 12948, Note_on_c, 0, 72, 0
1, 12954, Note_on_c, 1, 63, 0
1, 12960, Note_on_c, 0, 82, 72
1, 12960, Note_on_c, 1, 61, 80
1, 13008, Note_on_c, 0, 82, 0
1, 13020, Note_on_c, 0, 70, 72
1, 13056, Note_on_c, 1, 61, 0
1, 13068, Note_on_c, 0, 70, 0
1, 13080, Note_on_c, 0, 78, 72
1, 13080, Note_on_c, 1, 58, 80
1, 13128, Note_on_c, 0, 78, 0
1, 13140, Note_on_c, 0, 70, 72
1, 13176, Note_on_c, 1, 58, 0
1, 13188, Note_on_c, 0, 70, 0
1, 13200, Note_on_c, 0, 77, 72
1, 13200, Note_on_c, 1, 60, 80
1, 13248, Note_on_c, 0, 77, 0
1, 13248, Note_on_c, 1, 53, 0
1, 13260, Note_on_c, 0, 70, 72
1, 13296, Note_on_c, 1, 60, 0
1, 13308, Note_on_c, 0, 70, 0
1, 13320, Note_on_c, 0, 76, 72
1, 13320, Note_on_c, 1, 61, 80
1, 13368, Note_on_c, 0, 76, 0
1, 13380, Note_on_c, 0, 70, 72
1, 13416, Note_on_c, 1, 61, 0
1, 13428, Note_on_c, 0, 70, 0
1, 13440, Note_on_c, 0, 77, 48
1, 13440, Note_on_c, 1, 53, 56
1, 13440, Note_on_c, 1, 60, 56
1, 13488, Note_on_c, 0, 77, 0
1, 13500, Note_on_c, 0, 69, 48
1, 13548, Note_on_c, 0, 69, 0
1, 13560, Note_on_c, 0, 72, 48
1, 13608, Note_on_c, 0, 72, 0
1, 13620, Note_on_c, 0, 69, 48
1, 13632, Note_on_c, 1, 60, 0
1, 13668, Note_on_c, 0, 69, 0
1, 13680, Note_on_c, 0, 78, 48
1, 13680, Note_on_c, 1, 63, 56
1, 13728, Note_on_c, 0, 78, 0
1, 13740, Note_on_c, 0, 69, 48
1, 13788, Note_on_c, 0, 69, 0
1, 13800, Note_on_c, 0, 81, 48
1, 13824, Note_on_c, 1, 63, 0
1, 13848, Note_on_c, 0, 81, 0
1, 13860, Note_on_c, 0, 72, 48
1, 13860, Note_on_c, 1, 65, 56
1, 13884, Note_on_c, 1, 65, 0
1, 13890, Note_on_c, 1, 63, 56
1, 13908, Note_on_c, 0, 72, 0
1, 13914, Note_on_c, 1, 63, 0
1, 13920, Note_on_c, 0, 82, 48
1, 13920, Note_on_c, 1, 61, 56
1, 13968, Note_on_c, 0, 82, 0
1, 13980, Note_on_c, 0, 70, 48
1, 14016, Note_on_c, 1, 61, 0
1, 14028, Note_on_c, 0, 70, 0
1, 14040, Note_on_c, 0, 78, 48
1, 14040, Note_on_c, 1, 58, 56
1, 14088, Note_on_c, 0, 78, 0
1, 14100, Note_on_c, 0, 70, 48
1, 14136, Note_on_c, 1, 58, 0
1, 14148, Note_on_c, 0, 70, 0
1, 14160, Note_on_c, 0, 77, 48
1, 14160, Note_on_c, 1, 60, 56
1, 14208, Note_on_c, 0, 77, 0
1, 14208, Note_on_c, 1, 53, 0
1, 14220, Note_on_c, 0, 70, 48
1, 14256, Note_on_c, 1, 60, 0
1, 14268, Note_on_c, 0, 70, 0
1, 14280, Note_on_c, 0, 76, 48
1, 14280, Note_on_c, 1, 61, 56
1, 14328, Note_on_c, 0, 76, 0
1, 14340, Note_on_c, 0, 70, 48
1, 14376, Note_on_c, 1, 61, 0
1, 14388, Note_on_c, 0, 70, 0
1, 14400, Note_on_c, 0, 77, 48
1, 14400, Note_on_c, 1, 60, 56
1, 14400, Note_on_c, 1, 53, 56
1, 14448, Note_on_c, 0, 77, 0
1, 14460, Note_on_c, 0, 69, 50
1, 14508, Note_on_c, 0, 69, 0
1, 14520, Note_on_c, 0, 72, 52
1, 14568, Note_on_c, 0, 72, 0
1, 14580, Note_on_c, 0, 69, 54
1, 14592, Note_on_c, 1, 60, 0
1, 14628, Note_on_c, 0, 69, 0
1, 14640, Note_on_c, 0, 77, 56
1, 14640, Note_on_c, 1, 57, 62
1, 14640, Note_on_c, 1, 60, 62
1, 14672, Note_on_c, 0, 77, 0
1, 14680, Note_on_c, 0, 72, 57
1, 14712, Note_on_c, 0, 72, 0
1, 14720, Note_on_c, 0, 69, 59
1, 14752, Note_on_c, 0, 69, 0
1, 14760, Note_on_c, 0, 77, 60
1, 14792, Note_on_c, 0, 77, 0
1, 14800, Note_on_c, 0, 72, 61
1, 14832, Note_on_c, 0, 72, 0
1, 14832, Note_on_c, 1, 60, 0
1, 14832, Note_on_c, 1, 57, 0
1, 14840, Note_on_c, 0, 69, 63
1, 14872, Note_on_c, 0, 69, 0
1, 14880, Note_on_c, 0, 76, 64
1, 14880, Note_on_c, 1, 58, 68
1, 14880, Note_on_c, 1, 61, 68
1, 14912, Note_on_c, 0, 76, 0
1, 14920, Note_on_c, 0, 70, 65
1, 14952, Note_on_c, 0, 70, 0
1, 14960, Note_on_c, 0, 67, 67
1, 14992, Note_on_c, 0, 67, 0
1, 15000, Note_on_c, 0, 76, 68
1, 15032, Note_on_c, 0, 76, 0
1, 15040, Note_on_c, 0, 70, 69
1, 15072, Note_on_c, 0, 70, 0
1, 15072, Note_on_c, 1, 61, 0
1, 15072, Note_on_c, 1, 58, 0
1, 15080, Note_on_c, 0, 67, 71
1, 15112, Note_on_c, 0, 67, 0
1, 15120, Note_on_c, 0, 75, 72
1, 15120, Note_on_c, 1, 57, 74
1, 15120, Note_on_c, 1, 60, 74
1, 15152, Note_on_c, 0, 75, 0
1, 15160, Note_on_c, 0, 72, 73
1, 15168, Note_on_c, 1, 53, 0
1, 15192, Note_on_c, 0, 72, 0
1, 15200, Note_on_c, 0, 65, 75
1, 15232, Note_on_c, 0, 65, 0
1, 15240, Note_on_c, 0, 75, 76
1, 15272, Note_on_c, 0, 75, 0
1, 15280, Note_on_c, 0, 72, 77
1, 15312, Note_on_c, 0, 72, 0
1, 15312, Note_on_c, 1, 60, 0
1, 15312, Note_on_c, 1, 57, 0
1, 15320, Note_on_c, 0, 65, 79
1, 15352, Note_on_c, 0, 65, 0
1, 15360, Note_on_c, 0, 70, 80
1, 15360, Note_on_c, 0, 65, 80
1, 15360, Note_on_c, 0, 62, 80
1, 15360, Note_on_c, 1, 46, 80
1, 15375, Note_on_c, 1, 50, 80
1, 15390, Note_on_c, 1, 53, 80
1, 15405, Note_on_c, 1, 58, 80
1, 15552, Note_on_c, 0, 62, 0
1, 15552, Note_on_c, 0, 65, 0
1, 15552, Note_on_c, 0, 70, 0
1, 15564, Note_on_c, 1, 58, 0
1, 15564, Note_on_c, 1, 46, 0
1, 15564, Note_on_c, 1, 50, 0
1, 15564, Note_on_c, 1, 53, 0
1, 15600, Note_on_c, 0, 70, 80
1, 15600, Note_on_c, 0, 74, 80
1, 15600, Note_on_c, 0, 68, 80
1, 15600, Note_on_c, 1, 46, 80
1, 15615, Note_on_c, 1, 50, 80
1, 15630, Note_on_c, 1, 53, 80
1, 15645, Note_on_c, 1, 56, 80
1, 15744, Note_on_c, 0, 68, 0
1, 15744, Note_on_c, 0, 74, 0
1, 15744, Note_on_c, 0, 70, 0
1, 15780, Note_on_c, 0, 70, 80
1, 15804, Note_on_c, 1, 56, 0
1, 15804, Note_on_c, 1, 46, 0
1, 15804, Note_on_c, 1, 50, 0
1, 15804, Note_on_c, 1, 53, 0
1, 15828, Note_on_c, 0, 70, 0
1, 15840, Note_on_c, 0, 75, 80
1, 15840, Note_on_c, 0, 70, 80
1, 15840, Note_on_c, 0, 67, 80
1, 15840, Note_on_c, 1, 46, 80
1, 15840, Note_on_c, 1, 51, 80
1, 15840, Note_on_c, 1, 55, 80
1, 16128, Note_on_c, 0, 67, 0
1, 16128, Note_on_c, 0, 70, 0
1, 16128, Note_on_c, 0, 75, 0
1, 16140, Note_on_c, 0, 79, 56
1, 16164, Note_on_c, 0, 79, 0
1, 16170, Note_on_c, 0, 77, 56
1, 16194, Note_on_c, 0, 77, 0
1, 16200, Note_on_c, 0, 75, 56
1, 16224, Note_on_c, 0, 75, 0
1, 16224, Note_on_c, 1, 55, 0
1, 16224, Note_on_c, 1, 51, 0
1, 16224, Note_on_c, 1, 46, 0
1, 16230, Note_on_c, 0, 74, 56
1, 16254, Note_on_c, 0, 74, 0
1, 16260, Note_on_c, 0, 72, 56
1, 16284, Note_on_c, 0, 72, 0
1, 16290, Note_on_c, 0, 70, 56
1, 16314, Note_on_c, 0, 70, 0
1, 16320, Note_on_c, 0, 69, 56
1, 16320, Note_on_c, 1, 46, 40
1, 16320, Note_on_c, 1, 48, 40
1, 16320, Note_on_c, 1, 51, 40
1, 16320, Note_on_c, 1, 57, 40
1, 16344, Note_on_c, 0, 69, 0
1, 16350, Note_on_c, 0, 70, 56
1, 16374, Note_on_c, 0, 70, 0
1, 16380, Note_on_c, 0, 72, 56
1, 16404, Note_on_c, 0, 72, 0
1, 16410, Note_on_c, 0, 74, 56
1, 16434, Note_on_c, 0, 74, 0
1, 16440, Note_on_c, 0, 75, 56
1, 16464, Note_on_c, 0, 75, 0
1, 16470, Note_on_c, 0, 77, 56
1, 16494, Note_on_c, 0, 77, 0
1, 16500, Note_on_c, 0, 79, 56
1, 16524, Note_on_c, 0, 79, 0
1, 16530, Note_on_c, 0, 81, 56
1, 16554, Note_on_c, 0, 81, 0
1, 16560, Note_on_c, 0, 82, 56
1, 16584, Note_on_c, 0, 82, 0
1, 16590, Note_on_c, 0, 84, 56
1, 16614, Note_on_c, 0, 84, 0
1, 16620, Note_on_c, 0, 86, 56
1, 16644, Note_on_c, 0, 86, 0
1, 16650, Note_on_c, 0, 87, 56
1, 16674, Note_on_c, 0, 87, 0
1, 16680, Note_on_c, 0, 89, 56
1, 16710, Note_on_c, 0, 89, 0
1, 16740, Note_on_c, 0, 87, 56
1, 16770, Note_on_c, 0, 87, 0
1, 16800, Note_on_c, 0, 86, 56
1, 16800, Note_on_c, 1, 57, 0
1, 16800, Note_on_c, 1, 46, 0
1, 16800, Note_on_c, 1, 48, 0
1, 16800, Note_on_c, 1, 51, 0
1, 16800, Note_on_c, 1, 58, 32
1, 16800, Note_on_c, 1, 53, 32
1, 16800, Note_on_c, 1, 50, 32
1, 16800, Note_on_c, 1, 46, 32
1, 16860, Note_on_c, 0, 86, 0
1, 16860, Note_on_c, 0, 84, 56
1, 16890, Note_on_c, 0, 84, 0
1, 16920, Note_on_c, 0, 82, 56
1, 16950, Note_on_c, 0, 82, 0
1, 16980, Note_on_c, 0, 81, 56
1, 17010, Note_on_c, 0, 81, 0
1, 17040, Note_on_c, 0, 79, 56
1, 17040, Note_on_c, 1, 46, 0
1, 17040, Note_on_c, 1, 58, 0
1, 17040, Note_on_c, 1, 53, 0
1, 17040, Note_on_c, 1, 50, 0
1, 17100, Note_on_c, 0, 79, 0
1, 17100, Note_on_c, 0, 77, 56
1, 17130, Note_on_c, 0, 77, 0
1, 17160, Note_on_c, 0, 75, 56
1, 17190, Note_on_c, 0, 75, 0
1, 17220, Note_on_c, 0, 74, 56
1, 17250, Note_on_c, 0, 74, 0
1, 17280, Note_on_c, 0, 72, 56
1, 17280, Note_on_c, 1, 57, 40
1, 17280, Note_on_c, 1, 51, 40
1, 17280, Note_on_c, 1, 48, 40
1, 17280, Note_on_c, 1, 46, 40
1, 17299, Note_on_c, 0, 72, 0
1, 17304, Note_on_c, 0, 70, 56
1, 17323, Note_on_c, 0, 70, 0
1, 17328, Note_on_c, 0, 69, 57
1, 17347, Note_on_c, 0, 69, 0
1, 17352, Note_on_c, 0, 70, 57
1, 17371, Note_on_c, 0, 70, 0
1, 17376, Note_on_c, 0, 72, 58
1, 17395, Note_on_c, 0, 72, 0
1, 17400, Note_on_c, 0, 74, 58
1, 17419, Note_on_c, 0, 74, 0
1, 17424, Note_on_c, 0, 75, 58
1, 17443, Note_on_c, 0, 75, 0
1, 17448, Note_on_c, 0, 77, 59
1, 17467, Note_on_c, 0, 77, 0
1, 17472, Note_on_c, 0, 79, 59
1, 17491, Note_on_c, 0, 79, 0
1, 17496, Note_on_c, 0, 81, 60
1, 17515, Note_on_c, 0, 81, 0
1, 17520, Note_on_c, 0, 82, 60
1, 17544, Note_on_c, 0, 82, 0
1, 17550, Note_on_c, 0, 84, 61
1, 17574, Note_on_c, 0, 84, 0
1, 17580, Note_on_c, 0, 86, 61
1, 17604, Note_on_c, 0, 86, 0
1, 17610, Note_on_c, 0, 87, 62
1, 17634, Note_on_c, 0, 87, 0
1, 17640, Note_on_c, 0, 89, 62
1, 17670, Note_on_c, 0, 89, 0
1, 17700, Note_on_c, 0, 87, 63
1, 17730, Note_on_c, 0, 87, 0
1, 17760, Note_on_c, 0, 86, 64
1, 17760, Note_on_c, 1, 46, 0
1, 17760, Note_on_c, 1, 57, 0
1, 17760, Note_on_c, 1, 51, 0
1, 17760, Note_on_c, 1, 48, 0
1, 17760, Note_on_c, 1, 46, 32
1, 17760, Note_on_c, 1, 50, 32
1, 17760, Note_on_c, 1, 53, 32
1, 17760, Note_on_c, 1, 58, 32
1, 17772, Note_on_c, 0, 86, 0
1, 17775, Note_on_c, 0, 87, 64
1, 17787, Note_on_c, 0, 87, 0
1, 17790, Note_on_c, 0, 86, 65
1, 17802, Note_on_c, 0, 86, 0
1, 17805, Note_on_c, 0, 87, 65
1, 17817, Note_on_c, 0, 87, 0
1, 17820, Note_on_c, 0, 84, 65
1, 17838, Note_on_c, 0, 84, 0
1, 17880, Note_on_c, 0, 82, 66
1, 17892, Note_on_c, 0, 82, 0
1, 17895, Note_on_c, 0, 84, 66
1, 17907, Note_on_c, 0, 84, 0
1, 17910, Note_on_c, 0, 82, 67
1, 17922, Note_on_c, 0, 82, 0
1, 17925, Note_on_c, 0, 84, 67
1, 17937, Note_on_c, 0, 84, 0
1, 17940, Note_on_c, 0, 81, 67
1, 17958, Note_on_c, 0, 81, 0
1, 18000, Note_on_c, 0, 79, 68
1, 18000, Note_on_c, 1, 58, 0
1, 18000, Note_on_c, 1, 46, 0
1, 18000, Note_on_c, 1, 50, 0
1, 18000, Note_on_c, 1, 53, 0
1, 18012, Note_on_c, 0, 79, 0
1, 18015, Note_on_c, 0, 81, 68
1, 18027, Note_on_c, 0, 81, 0
1, 18030, Note_on_c, 0, 79, 69
1, 18042, Note_on_c, 0, 79, 0
1, 18045, Note_on_c, 0, 81, 69
1, 18057, Note_on_c, 0, 81, 0
1, 18060, Note_on_c, 0, 77, 69
1, 18078, Note_on_c, 0, 77, 0
1, 18120, Note_on_c, 0, 75, 70
1, 18132, Note_on_c, 0, 75, 0
1, 18135, Note_on_c, 0, 77, 70
1, 18147, Note_on_c, 0, 77, 0
1, 18150, Note_on_c, 0, 75, 71
1, 18162, Note_on_c, 0, 75, 0
1, 18165, Note_on_c, 0, 77, 71
1, 18177, Note_on_c, 0, 77, 0
1, 18180, Note_on_c, 0, 74, 71
1, 18240, Note_on_c, 0, 79, 72
1, 18240, Note_on_c, 1, 51, 64
1, 18300, Note_on_c, 0, 74, 0
1, 18300, Note_on_c, 0, 77, 72
1, 18300, Note_on_c, 1, 51, 0
1, 18300, Note_on_c, 1, 55, 64
1, 18360, Note_on_c, 0, 77, 0
1, 18360, Note_on_c, 0, 75, 72
1, 18360, Note_on_c, 1, 55, 0
1, 18360, Note_on_c, 1, 57, 64
1, 18420, Note_on_c, 0, 75, 0
1, 18420, Note_on_c, 0, 74, 72
1, 18420, Note_on_c, 1, 57, 0
1, 18420, Note_on_c, 1, 59, 64
1, 18480, Note_on_c, 0, 74, 0
1, 18480, Note_on_c, 0, 75, 72
1, 18480, Note_on_c, 1, 59, 0
1, 18480, Note_on_c, 1, 60, 64
1, 18540, Note_on_c, 0, 79, 0
1, 18540, Note_on_c, 0, 82, 72
1, 18600, Note_on_c, 0, 82, 0
1, 18600, Note_on_c, 0, 81, 72
1, 18660, Note_on_c, 0, 81, 0
1, 18660, Note_on_c, 0, 79, 72
1, 18660, Note_on_c, 1, 60, 0
1, 18660, Note_on_c, 1, 58, 64
1, 18720, Note_on_c, 0, 79, 0
1, 18720, Note_on_c, 0, 77, 72
1, 18720, Note_on_c, 1, 58, 0
1, 18720, Note_on_c, 1, 57, 64
1, 18780, Note_on_c, 0, 75, 0
1, 18780, Note_on_c, 0, 74, 72
1, 18780, Note_on_c, 1, 57, 0
1, 18780, Note_on_c, 1, 65, 64
1, 18840, Note_on_c, 0, 74, 0
1, 18840, Note_on_c, 0, 75, 72
1, 18840, Note_on_c, 1, 65, 0
1, 18840, Note_on_c, 1, 67, 64
1, 18900, Note_on_c, 0, 75, 0
1, 18900, Note_on_c, 0, 72, 72
1, 18900, Note_on_c, 1, 67, 0
1, 18900, Note_on_c, 1, 69, 64
1, 18960, Note_on_c, 0, 72, 0
1, 18960, Note_on_c, 0, 74, 72
1, 18960, Note_on_c, 1, 69, 0
1, 18960, Note_on_c, 1, 70, 64
1, 19020, Note_on_c, 0, 77, 0
1, 19020, Note_on_c, 0, 82, 72
1, 19080, Note_on_c, 0, 82, 0
1, 19080, Note_on_c, 0, 81, 72
1, 19140, Note_on_c, 0, 81, 0
1, 19140, Note_on_c, 0, 79, 72
1, 19200, Note_on_c, 0, 79, 0
1, 19200, Note_on_c, 0, 74, 0
1, 19200, Note_on_c, 0, 77, 72
1, 19200, Note_on_c, 1, 70, 0
1, 19200, Note_on_c, 1, 67, 64
1, 19200, Note_on_c, 1, 70, 64
1, 19200, Note_on_c, 1, 72, 64
1, 19260, Note_on_c, 0, 77, 0
1, 19260, Note_on_c, 0, 76, 71
1, 19320, Note_on_c, 0, 76, 0
1, 19320, Note_on_c, 0, 79, 70
1, 19380, Note_on_c, 0, 79, 0
1, 19380, Note_on_c, 0, 77, 69
1, 19440, Note_on_c, 0, 77, 0
1, 19440, Note_on_c, 0, 76, 68
1, 19500, Note_on_c, 0, 76, 0
1, 19500, Note_on_c, 0, 82, 67
1, 19560, Note_on_c, 0, 82, 0
1, 19560, Note_on_c, 0, 81, 66
1, 19620, Note_on_c, 0, 81, 0
1, 19620, Note_on_c, 0, 79, 65
1, 19680, Note_on_c, 0, 79, 0
1, 19680, Note_on_c, 0, 77, 64
1, 19680, Note_on_c, 1, 72, 0
1, 19680, Note_on_c, 1, 70, 0
1, 19680, Note_on_c, 1, 67, 0
1, 19680, Note_on_c, 1, 67, 56
1, 19680, Note_on_c, 1, 73, 56
1, 19740, Note_on_c, 0, 77, 0
1, 19740, Note_on_c, 0, 76, 63
1, 19800, Note_on_c, 0, 76, 0
1, 19800, Note_on_c, 0, 79, 62
1, 19860, Note_on_c, 0, 79, 0
1, 19860, Note_on_c, 0, 77, 61
1, 19920, Note_on_c, 0, 77, 0
1, 19920, Note_on_c, 0, 76, 60
1, 19980, Note_on_c, 0, 76, 0
1, 19980, Note_on_c, 0, 82, 59
1, 20040, Note_on_c, 0, 82, 0
1, 20040, Note_on_c, 0, 81, 58
1, 20100, Note_on_c, 0, 81, 0
1, 20100, Note_on_c, 0, 79, 57
1, 20160, Note_on_c, 0, 79, 0
1, 20160, Note_on_c, 0, 77, 56
1, 20160, Note_on_c, 1, 73, 0
1, 20160, Note_on_c, 1, 72, 48
1, 20220, Note_on_c, 0, 77, 0
1, 20220, Note_on_c, 0, 76, 56
1, 20280, Note_on_c, 0, 76, 0
1, 20280, Note_on_c, 0, 79, 56
1, 20340, Note_on_c, 0, 79, 0
1, 20340, Note_on_c, 0, 77, 56
1, 20400, Note_on_c, 0, 77, 0
1, 20400, Note_on_c, 0, 76, 56
1, 20400, Note_on_c, 1, 72, 0
1, 20400, Note_on_c, 1, 70, 48
1, 20460, Note_on_c, 0, 76, 0
1, 20460, Note_on_c, 0, 82, 56
1, 20520, Note_on_c, 0, 82, 0
1, 20520, Note_on_c, 0, 79, 56
1, 20580, Note_on_c, 0, 79, 0
1, 20580, Note_on_c, 0, 76, 56
1, 20640, Note_on_c, 0, 76, 0
1, 20640, Note_on_c, 0, 79, 32
1, 20640, Note_on_c, 1, 70, 0
1, 20640, Note_on_c, 1, 67, 0
1, 20640, Note_on_c, 1, 69, 48
1, 20640, Note_on_c, 1, 65, 48
1, 20700, Note_on_c, 0, 79, 0
1, 20700, Note_on_c, 0, 77, 42
1, 20760, Note_on_c, 0, 77, 0
1, 20760, Note_on_c, 0, 76, 52
1, 20820, Note_on_c, 0, 76, 0
1, 20820, Note_on_c, 0, 77, 62
1, 20880, Note_on_c, 0, 77, 0
1, 20880, Note_on_c, 0, 76, 72
1, 20940, Note_on_c, 0, 76, 0
1, 20940, Note_on_c, 0, 77, 83
1, 21000, Note_on_c, 0, 77, 0
1, 21000, Note_on_c, 0, 70, 56
1, 21000, Note_on_c, 0, 75, 56
1, 21000, Note_on_c, 0, 79, 56
1, 21000, Note_on_c, 0, 82, 56
1, 21000, Note_on_c, 1, 65, 0
1, 21000, Note_on_c, 1, 69, 0
1, 21000, Note_on_c, 1, 55, 48
1, 21000, Note_on_c, 1, 58, 48
1, 21000, Note_on_c, 1, 63, 48
1, 21000, Note_on_c, 1, 67, 48
1, 21060, Note_on_c, 0, 82, 0
1, 21060, Note_on_c, 0, 70, 0
1, 21060, Note_on_c, 0, 75, 0
1, 21060, Note_on_c, 0, 79, 0
1, 21060, Note_on_c, 0, 75, 56
1, 21120, Note_on_c, 0, 75, 0
1, 21120, Note_on_c, 0, 75, 56
1, 21120, Note_on_c, 1, 67, 0
1, 21120, Note_on_c, 1, 55, 0
1, 21120, Note_on_c, 1, 58, 0
1, 21120, Note_on_c, 1, 63, 0
1, 21120, Note_on_c, 1, 69, 48
1, 21120, Note_on_c, 1, 65, 48
1, 21168, Note_on_c, 0, 75, 0
1, 21180, Note_on_c, 0, 74, 61
1, 21228, Note_on_c, 0, 74, 0
1, 21240, Note_on_c, 0, 73, 66
1, 21288, Note_on_c, 0, 73, 0
1, 21300, Note_on_c, 0, 74, 71
1, 21348, Note_on_c, 0, 74, 0
1, 21360, Note_on_c, 0, 73, 76
1, 21408, Note_on_c, 0, 73, 0
1, 21408, Note_on_c, 1, 65, 0
1, 21408, Note_on_c, 1, 69, 0
1, 21420, Note_on_c, 0, 74, 80
1, 21468, Note_on_c, 0, 74, 0
1, 21480, Note_on_c, 0, 67, 56
1, 21480, Note_on_c, 0, 72, 56
1, 21480, Note_on_c, 0, 75, 56
1, 21480, Note_on_c, 0, 79, 56
1, 21480, Note_on_c, 1, 63, 48
1, 21480, Note_on_c, 1, 60, 48
1, 21480, Note_on_c, 1, 55, 48
1, 21480, Note_on_c, 1, 51, 48
1, 21528, Note_on_c, 0, 79, 0
1, 21528, Note_on_c, 0, 67, 0
1, 21528, Note_on_c, 0, 72, 0
1, 21528, Note_on_c, 0, 75, 0
1, 21540, Note_on_c, 0, 72, 56
1, 21576, Note_on_c, 1, 51, 0
1, 21576, Note_on_c, 1, 63, 0
1, 21576, Note_on_c, 1, 60, 0
1, 21576, Note_on_c, 1, 55, 0
1, 21588, Note_on_c, 0, 72, 0
1, 21600, Note_on_c, 0, 72, 30
1, 21600, Note_on_c, 1, 65, 48
1, 21600, Note_on_c, 1, 62, 48
1, 21648, Note_on_c, 0, 72, 0
1, 21660, Note_on_c, 0, 70, 37
1, 21708, Note_on_c, 0, 70, 0
1, 21720, Note_on_c, 0, 69, 44
1, 21768, Note_on_c, 0, 69, 0
1, 21780, Note_on_c, 0, 70, 51
1, 21828, Note_on_c, 0, 70, 0
1, 21840, Note_on_c, 0, 69, 59
1, 21888, Note_on_c, 0, 69, 0
1, 21888, Note_on_c, 1, 62, 0
1, 21888, Note_on_c, 1, 65, 0
1, 21900, Note_on_c, 0, 70, 66
1, 21948, Note_on_c, 0, 70, 0
1, 21960, Note_on_c, 0, 65, 56
1, 21960, Note_on_c, 0, 70, 56
1, 21960, Note_on_c, 0, 74, 56
1, 21960, Note_on_c, 0, 77, 56
1, 21960, Note_on_c, 1, 62, 48
1, 21960, Note_on_c, 1, 58, 48
1, 21960, Note_on_c, 1, 53, 48
1, 21960, Note_on_c, 1, 50, 48
1, 22008, Note_on_c, 0, 77, 0
1, 22008, Note_on_c, 0, 65, 0
1, 22008, Note_on_c, 0, 70, 0
1, 22008, Note_on_c, 0, 74, 0
1, 22020, Note_on_c, 0, 70, 56
1, 22056, Note_on_c, 1, 50, 0
1, 22056, Note_on_c, 1, 62, 0
1, 22056, Note_on_c, 1, 58, 0
1, 22056, Note_on_c, 1, 53, 0
1, 22068, Note_on_c, 0, 70, 0
1, 22080, Note_on_c, 0, 69, 56
1, 22080, Note_on_c, 1, 60, 48
1, 22080, Note_on_c, 1, 57, 48
1, 22080, Note_on_c, 1, 53, 48
1, 22080, Note_on_c, 1, 51, 48
1, 22104, Note_on_c, 0, 69, 0
1, 22110, Note_on_c, 0, 79, 56
1, 22116, Note_on_c, 1, 51, 0
1, 22116, Note_on_c, 1, 60, 0
1, 22116, Note_on_c, 1, 57, 0
1, 22116, Note_on_c, 1, 53, 0
1, 22134, Note_on_c, 0, 79, 0
1, 22140, Note_on_c, 0, 77, 56
1, 22164, Note_on_c, 0, 77, 0
1, 22170, Note_on_c, 0, 75, 56
1, 22194, Note_on_c, 0, 75, 0
1, 22200, Note_on_c, 0, 74, 56
1, 22224, Note_on_c, 0, 74, 0
1, 22230, Note_on_c, 0, 72, 56
1, 22254, Note_on_c, 0, 72, 0
1, 22260, Note_on_c, 0, 70, 56
1, 22284, Note_on_c, 0, 70, 0
1, 22290, Note_on_c, 0, 69, 56
1, 22314, Note_on_c, 0, 69, 0
1, 22320, Note_on_c, 0, 70, 56
1, 22320, Note_on_c, 1, 62, 48
1, 22320, Note_on_c, 1, 58, 48
1, 22320, Note_on_c, 1, 53, 48
1, 22320, Note_on_c, 1, 50, 48
1, 22344, Note_on_c, 0, 70, 0
1, 22350, Note_on_c, 0, 77, 56
1, 22356, Note_on_c, 1, 50, 0
1, 22356, Note_on_c, 1, 62, 0
1, 22356, Note_on_c, 1, 58, 0
1, 22356, Note_on_c, 1, 53, 0
1, 22374, Note_on_c, 0, 77, 0
1, 22380, Note_on_c, 0, 79, 56
1, 22404, Note_on_c, 0, 79, 0
1, 22410, Note_on_c, 0, 77, 56
1, 22434, Note_on_c, 0, 77, 0
1, 22440, Note_on_c, 0, 75, 56
1, 22464, Note_on_c, 0, 75, 0
1, 22470, Note_on_c, 0, 74, 56
1, 22494, Note_on_c, 0, 74, 0
1, 22500, Note_on_c, 0, 72, 56
1, 22524, Note_on_c, 0, 72, 0
1, 22530, Note_on_c, 0, 70, 56
1, 22554, Note_on_c, 0, 70, 0
1, 22560, Note_on_c, 0, 69, 56
1, 22560, Note_on_c, 1, 60, 48
1, 22560, Note_on_c, 1, 57, 48
1, 22560, Note_on_c, 1, 53, 48
1, 22560, Note_on_c, 1, 51, 48
1, 22584, Note_on_c, 0, 69, 0
1, 22590, Note_on_c, 0, 79, 56
1, 22596, Note_on_c, 1, 51, 0
1, 22596, Note_on_c, 1, 60, 0
1, 22596, Note_on_c, 1, 57, 0
1, 22596, Note_on_c, 1, 53, 0
1, 22614, Note_on_c, 0, 79, 0
1, 22620, Note_on_c, 0, 77, 56
1, 22644, Note_on_c, 0, 77, 0
1, 22650, Note_on_c, 0, 75, 56
1, 22674, Note_on_c, 0, 75, 0
1, 22680, Note_on_c, 0, 74, 56
1, 22704, Note_on_c, 0, 74, 0
1, 22710, Note_on_c, 0, 72, 56
1, 22734, Note_on_c, 0, 72, 0
1, 22740, Note_on_c, 0, 70, 56
1, 22764, Note_on_c, 0, 70, 0
1, 22770, Note_on_c, 0, 69, 56
1, 22794, Note_on_c, 0, 69, 0
1, 22800, Note_on_c, 0, 70, 56
1, 22800, Note_on_c, 1, 62, 48
1, 22800, Note_on_c, 1, 58, 48
1, 22800, Note_on_c, 1, 53, 48
1, 22800, Note_on_c, 1, 50, 48
1, 22824, Note_on_c, 0, 70, 0
1, 22830, Note_on_c, 0, 72, 56
1, 22836, Note_on_c, 1, 50, 0
1, 22836, Note_on_c, 1, 62, 0
1, 22836, Note_on_c, 1, 58, 0
1, 22836, Note_on_c, 1, 53, 0
1, 22854, Note_on_c, 0, 72, 0
1, 22860, Note_on_c, 0, 74, 56
1, 22884, Note_on_c, 0, 74, 0
1, 22890, Note_on_c, 0, 75, 56
1, 22914, Note_on_c, 0, 75, 0
1, 22920, Note_on_c, 0, 77, 56
1, 22944, Note_on_c, 0, 77, 0
1, 22950, Note_on_c, 0, 79, 56
1, 22974, Note_on_c, 0, 79, 0
1, 22980, Note_on_c, 0, 81, 56
1, 23004, Note_on_c, 0, 81, 0
1, 23010, Note_on_c, 0, 82, 56
1, 23034, Note_on_c, 0, 82, 0
1, 23040, Note_on_c, 0, 80, 64
1, 23040, Note_on_c, 1, 62, 48
1, 23040, Note_on_c, 1, 58, 48
1, 23040, Note_on_c, 1, 56, 48
1, 23040, Note_on_c, 1, 53, 48
1, 23040, Note_on_c, 1, 50, 48
1, 23064, Note_on_c, 0, 80, 0
1, 23070, Note_on_c, 0, 82, 64
1, 23094, Note_on_c, 0, 82, 0
1, 23100, Note_on_c, 0, 84, 64
1, 23124, Note_on_c, 0, 84, 0
1, 23130, Note_on_c, 0, 82, 64
1, 23154, Note_on_c, 0, 82, 0
1, 23160, Note_on_c, 0, 80, 64
1, 23184, Note_on_c, 0, 80, 0
1, 23190, Note_on_c, 0, 79, 64
1, 23214, Note_on_c, 0, 79, 0
1, 23220, Note_on_c, 0, 77, 64
1, 23244, Note_on_c, 0, 77, 0
1, 23250, Note_on_c, 0, 75, 64
1, 23274, Note_on_c, 0, 75, 0
1, 23280, Note_on_c, 0, 74, 64
1, 23304, Note_on_c, 0, 74, 0
1, 23310, Note_on_c, 0, 75, 64
1, 23334, Note_on_c, 0, 75, 0
1, 23340, Note_on_c, 0, 77, 64
1, 23364, Note_on_c, 0, 77, 0
1, 23370, Note_on_c, 0, 75, 64
1, 23394, Note_on_c, 0, 75, 0
1, 23400, Note_on_c, 0, 74, 64
1, 23424, Note_on_c, 0, 74, 0
1, 23424, Note_on_c, 1, 50, 0
1, 23424, Note_on_c, 1, 56, 0
1, 23424, Note_on_c, 1, 62, 0
1, 23424, Note_on_c, 1, 58, 0
1, 23424, Note_on_c, 1, 53, 0
1, 23430, Note_on_c, 0, 72, 64
1, 23454, Note_on_c, 0, 72, 0
1, 23460, Note_on_c, 0, 70, 64
1, 23484, Note_on_c, 0, 70, 0
1, 23490, Note_on_c, 0, 68, 64
1, 23514, Note_on_c, 0, 68, 0
1, 23520, Note_on_c, 0, 67, 64
1, 23520, Note_on_c, 1, 63, 48
1, 23520, Note_on_c, 1, 58, 48
1, 23520, Note_on_c, 1, 55, 48
1, 23520, Note_on_c, 1, 51, 48
1, 23568, Note_on_c, 0, 67, 0
1, 23580, Note_on_c, 0, 79, 64
1, 23598, Note_on_c, 0, 79, 0
1, 23640, Note_on_c, 0, 78, 64
1, 23658, Note_on_c, 0, 78, 0
1, 23700, Note_on_c, 0, 81, 64
1, 23712, Note_on_c, 1, 51, 0
1, 23712, Note_on_c, 1, 63, 0
1, 23712, Note_on_c, 1, 58, 0
1, 23712, Note_on_c, 1, 55, 0
1, 23718, Note_on_c, 0, 81, 0
1, 23760, Note_on_c, 0, 79, 64
1, 23820, Note_on_c, 0, 79, 0
1, 23820, Note_on_c, 0, 82, 64
1, 23838, Note_on_c, 0, 82, 0
1, 23880, Note_on_c, 0, 78, 64
1, 23898, Note_on_c, 0, 78, 0
1, 23940, Note_on_c, 0, 81, 64
1, 23958, Note_on_c, 0, 81, 0
1, 24000, Note_on_c, 0, 79, 64
1, 24060, Note_on_c, 0, 79, 0
1, 24060, Note_on_c, 0, 82, 62
1, 24078, Note_on_c, 0, 82, 0
1, 24120, Note_on_c, 0, 78, 61
1, 24120, Note_on_c, 1, 66, 54
1, 24138, Note_on_c, 0, 78, 0
1, 24138, Note_on_c, 1, 66, 0
1, 24180, Note_on_c, 0, 81, 59
1, 24180, Note_on_c, 1, 69, 53
1, 24198, Note_on_c, 0, 81, 0
1, 24198, Note_on_c, 1, 69, 0
1, 24240, Note_on_c, 0, 79, 58
1, 24240, Note_on_c, 1, 67, 52
1, 24300, Note_on_c, 0, 79, 0
1, 24300, Note_on_c, 0, 82, 56
1, 24300, Note_on_c, 1, 67, 0
1, 24300, Note_on_c, 1, 70, 51
1, 24360, Note_on_c, 0, 82, 0
1, 24360, Note_on_c, 0, 79, 55
1, 24360, Note_on_c, 1, 70, 0
1, 24360, Note_on_c, 1, 67, 50
1, 24400, Note_on_c, 0, 79, 0
1, 24400, Note_on_c, 0, 75, 54
1, 24400, Note_on_c, 1, 67, 0
1, 24400, Note_on_c, 1, 63, 49
1, 24440, Note_on_c, 0, 75, 0
1, 24440, Note_on_c, 0, 72, 53
1, 24440, Note_on_c, 1, 63, 0
1, 24440, Note_on_c, 1, 60, 49
1, 24480, Note_on_c, 0, 72, 0
1, 24480, Note_on_c, 0, 70, 52
1, 24480, Note_on_c, 1, 60, 0
1, 24480, Note_on_c, 1, 53, 48
1, 24480, Note_on_c, 1, 62, 48
1, 24600, Note_on_c, 0, 70, 0
1, 24600, Note_on_c, 0, 72, 49
1, 24630, Note_on_c, 0, 72, 0
1, 24630, Note_on_c, 0, 70, 48
1, 24660, Note_on_c, 0, 70, 0
1, 24660, Note_on_c, 0, 69, 47
1, 24690, Note_on_c, 0, 69, 0
1, 24690, Note_on_c, 0, 70, 47
1, 24720, Note_on_c, 0, 70, 0
1, 24720, Note_on_c, 0, 69, 46
1, 24720, Note_on_c, 0, 74, 46
1, 24720, Note_on_c, 1, 62, 0
1, 24720, Note_on_c, 1, 63, 44
1, 24900, Note_on_c, 0, 74, 0
1, 24900, Note_on_c, 0, 72, 41
1, 24960, Note_on_c, 0, 72, 0
1, 24960, Note_on_c, 0, 69, 0
1, 24960, Note_on_c, 0, 70, 40
1, 24960, Note_on_c, 1, 63, 0
1, 24960, Note_on_c, 1, 53, 0
1, 24960, Note_on_c, 1, 58, 40
1, 24960, Note_on_c, 1, 62, 40
1, 25056, Note_on_c, 0, 70, 0
1, 25056, Note_on_c, 1, 62, 0
1, 25056, Note_on_c, 1, 58, 0
1, 25170, Note_on_c, 0, 89, 40
1, 25194, Note_on_c, 0, 89, 0
1, 25200, Note_on_c, 0, 86, 40
1, 25200, Note_on_c, 1, 70, 56
1, 25200, Note_on_c, 1, 74, 56
1, 25218, Note_on_c, 0, 86, 0
1, 25236, Note_on_c, 1, 74, 0
1, 25236, Note_on_c, 1, 70, 0
1, 25290, Note_on_c, 0, 89, 40
1, 25314, Note_on_c, 0, 89, 0
1, 25320, Note_on_c, 0, 84, 40
1, 25320, Note_on_c, 1, 65, 56
1, 25320, Note_on_c, 1, 72, 56
1, 25338, Note_on_c, 0, 84, 0
1, 25356, Note_on_c, 1, 72, 0
1, 25356, Note_on_c, 1, 65, 0
1, 25410, Note_on_c, 0, 89, 40
1, 25434, Note_on_c, 0, 89, 0
1, 25440, Note_on_c, 0, 82, 40
1, 25440, Note_on_c, 1, 62, 56
1, 25440, Note_on_c, 1, 70, 56
1, 25458, Note_on_c, 0, 82, 0
1, 25530, Note_on_c, 0, 89, 40
1, 25554, Note_on_c, 0, 89, 0
1, 25560, Note_on_c, 0, 77, 40
1, 25560, Note_on_c, 1, 70, 0
1, 25560, Note_on_c, 1, 62, 0
1, 25608, Note_on_c, 0, 77, 0
1, 25650, Note_on_c, 0, 89, 40
1, 25674, Note_on_c, 0, 89, 0
1, 25680, Note_on_c, 0, 86, 40
1, 25680, Note_on_c, 1, 70, 56
1, 25680, Note_on_c, 1, 74, 56
1, 25716, Note_on_c, 1, 74, 0
1, 25716, Note_on_c, 1, 70, 0
1, 25728, Note_on_c, 0, 86, 0
1, 25770, Note_on_c, 0, 89, 40
1, 25794, Note_on_c, 0, 89, 0
1, 25800, Note_on_c, 0, 84, 40
1, 25800, Note_on_c, 1, 65, 56
1, 25800, Note_on_c, 1, 72, 56
1, 25836, Note_on_c, 1, 72, 0
1, 25836, Note_on_c, 1, 65, 0
1, 25848, Note_on_c, 0, 84, 0
1, 25890, Note_on_c, 0, 89, 40
1, 25914, Note_on_c, 0, 89, 0
1, 25920, Note_on_c, 0, 82, 40
1, 25920, Note_on_c, 1, 62, 56
1, 25920, Note_on_c, 1, 70, 56
1, 25968, Note_on_c, 0, 82, 0
1, 26010, Note_on_c, 0, 89, 40
1, 26034, Note_on_c, 0, 89, 0
1, 26040, Note_on_c, 0, 77, 40
1, 26040, Note_on_c, 1, 70, 0
1, 26040, Note_on_c, 1, 62, 0
1, 26088, Note_on_c, 0, 77, 0
1, 26130, Note_on_c, 0, 89, 40
1, 26154, Note_on_c, 0, 89, 0
1, 26160, Note_on_c, 0, 80, 40
1, 26160, Note_on_c, 1, 62, 56
1, 26160, Note_on_c, 1, 70, 56
1, 26196, Note_on_c, 1, 70, 0
1, 26196, Note_on_c, 1, 62, 0
1, 26208, Note_on_c, 0, 80, 0
1, 26250, Note_on_c, 0, 89, 40
1, 26274, Note_on_c, 0, 89, 0
1, 26280, Note_on_c, 0, 78, 40
1, 26280, Note_on_c, 1, 62, 56
1, 26280, Note_on_c, 1, 70, 56
1, 26316, Note_on_c, 1, 70, 0
1, 26316, Note_on_c, 1, 62, 0
1, 26328, Note_on_c, 0, 78, 0
1, 26370, Note_on_c, 0, 89, 40
1, 26394, Note_on_c, 0, 89, 0
1, 26400, Note_on_c, 0, 79, 40
1, 26400, Note_on_c, 1, 63, 56
1, 26400, Note_on_c, 1, 70, 56
1, 26448, Note_on_c, 0, 79, 0
1, 26490, Note_on_c, 0, 83, 40
1, 26496, Note_on_c, 1, 70, 0
1, 26514, Note_on_c, 0, 83, 0
1, 26520, Note_on_c, 0, 84, 40
1, 26520, Note_on_c, 1, 67, 56
1, 26568, Note_on_c, 0, 84, 0
1, 26610, Note_on_c, 0, 86, 40
1, 26616, Note_on_c, 1, 67, 0
1, 26634, Note_on_c, 0, 86, 0
1, 26640, Note_on_c, 0, 87, 40
1, 26640, Note_on_c, 1, 72, 56
1, 26688, Note_on_c, 0, 87, 0
1, 26688, Note_on_c, 1, 63, 0
1, 26730, Note_on_c, 0, 86, 40
1, 26754, Note_on_c, 0, 86, 0
1, 26760, Note_on_c, 0, 84, 40
1, 26760, Note_on_c, 1, 64, 56
1, 26808, Note_on_c, 0, 84, 0
1, 26850, Note_on_c, 0, 82, 40
1, 26856, Note_on_c, 1, 64, 0
1, 26874, Note_on_c, 0, 82, 0
1, 26880, Note_on_c, 0, 81, 40
1, 26880, Note_on_c, 1, 65, 56
1, 26928, Note_on_c, 0, 81, 0
1, 26970, Note_on_c, 0, 79, 43
1, 26976, Note_on_c, 1, 65, 0
1, 26994, Note_on_c, 0, 79, 0
1, 27000, Note_on_c, 0, 77, 44
1, 27000, Note_on_c, 1, 67, 58
1, 27048, Note_on_c, 0, 77, 0
1, 27090, Note_on_c, 0, 76, 47
1, 27096, Note_on_c, 1, 67, 0
1, 27114, Note_on_c, 0, 76, 0
1, 27120, Note_on_c, 0, 77, 48
1, 27120, Note_on_c, 1, 69, 60
1, 27168, Note_on_c, 0, 77, 0
1, 27168, Note_on_c, 1, 72, 0
1, 27210, Note_on_c, 0, 79, 51
1, 27216, Note_on_c, 1, 69, 0
1, 27234, Note_on_c, 0, 79, 0
1, 27240, Note_on_c, 0, 77, 52
1, 27240, Note_on_c, 1, 57, 62
1, 27240, Note_on_c, 1, 65, 62
1, 27288, Note_on_c, 0, 77, 0
1, 27330, Note_on_c, 0, 75, 64
1, 27336, Note_on_c, 1, 65, 0
1, 27336, Note_on_c, 1, 57, 0
1, 27354, Note_on_c, 0, 75, 0
1, 27360, Note_on_c, 0, 73, 72
1, 27360, Note_on_c, 1, 58, 72
1, 27360, Note_on_c, 1, 61, 72
1, 27384, Note_on_c, 0, 73, 0
1, 27390, Note_on_c, 0, 75, 72
1, 27408, Note_on_c, 1, 61, 0
1, 27408, Note_on_c, 1, 58, 0
1, 27414, Note_on_c, 0, 75, 0
1, 27420, Note_on_c, 0, 73, 72
1, 27420, Note_on_c, 1, 65, 72
1, 27444, Note_on_c, 0, 73, 0
1, 27450, Note_on_c, 0, 72, 72
1, 27468, Note_on_c, 1, 65, 0
1, 27474, Note_on_c, 0, 72, 0
1, 27480, Note_on_c, 0, 70, 72
1, 27480, Note_on_c, 1, 58, 72
1, 27480, Note_on_c, 1, 61, 72
1, 27504, Note_on_c, 0, 70, 0
1, 27504, Note_on_c, 1, 61, 0
1, 27504, Note_on_c, 1, 58, 0
1, 27540, Note_on_c, 0, 70, 72
1, 27540, Note_on_c, 1, 65, 72
1, 27564, Note_on_c, 0, 70, 0
1, 27564, Note_on_c, 1, 65, 0
1, 27600, Note_on_c, 0, 75, 72
1, 27600, Note_on_c, 1, 57, 72
1, 27600, Note_on_c, 1, 60, 72
1, 27624, Note_on_c, 0, 75, 0
1, 27630, Note_on_c, 0, 77, 72
1, 27648, Note_on_c, 1, 60, 0
1, 27648, Note_on_c, 1, 57, 0
1, 27654, Note_on_c, 0, 77, 0
1, 27660, Note_on_c, 0, 75, 72
1, 27660, Note_on_c, 1, 65, 72
1, 27684, Note_on_c, 0, 75, 0
1, 27690, Note_on_c, 0, 73, 72
1, 27708, Note_on_c, 1, 65, 0
1, 27714, Note_on_c, 0, 73, 0
1, 27720, Note_on_c, 0, 72, 72
1, 27720, Note_on_c, 1, 57, 72
1, 27720, Note_on_c, 1, 60, 72
1, 27744, Note_on_c, 0, 72, 0
1, 27744, Note_on_c, 1, 60, 0
1, 27744, Note_on_c, 1, 57, 0
1, 27780, Note_on_c, 0, 72, 72
1, 27780, Note_on_c, 1, 65, 72
1, 27804, Note_on_c, 0, 72, 0
1, 27804, Note_on_c, 1, 65, 0
1, 27840, Note_on_c, 0, 73, 40
1, 27840, Note_on_c, 1, 61, 40
1, 27840, Note_on_c, 1, 58, 40
1, 27864, Note_on_c, 0, 73, 0
1, 27870, Note_on_c, 0, 75, 40
1, 27888, Note_on_c, 1, 58, 0
1, 27888, Note_on_c, 1, 61, 0
1, 27894, Note_on_c, 0, 75, 0
1, 27900, Note_on_c, 0, 73, 40
1, 27900, Note_on_c, 1, 65, 40
1, 27924, Note_on_c, 0, 73, 0
1, 27930, Note_on_c, 0, 72, 40
1, 27948, Note_on_c, 1, 65, 0
1, 27954, Note_on_c, 0, 72, 0
1, 27960, Note_on_c, 0, 70, 40
1, 27960, Note_on_c, 1, 61, 40
1, 27960, Note_on_c, 1, 58, 40
1, 27990, Note_on_c, 0, 70, 0
1, 27990, Note_on_c, 1, 58, 0
1, 27990, Note_on_c, 1, 61, 0
1, 28020, Note_on_c, 0, 70, 40
1, 28020, Note_on_c, 1, 65, 40
1, 28050, Note_on_c, 0, 70, 0
1, 28050, Note_on_c, 1, 65, 0
1, 28080, Note_on_c, 0, 75, 40
1, 28080, Note_on_c, 1, 60, 40
1, 28080, Note_on_c, 1, 57, 40
1, 28104, Note_on_c, 0, 75, 0
1, 28110, Note_on_c, 0, 77, 40
1, 28128, Note_on_c, 1, 57, 0
1, 28128, Note_on_c, 1, 60, 0
1, 28134, Note_on_c, 0, 77, 0
1, 28140, Note_on_c, 0, 75, 40
1, 28140, Note_on_c, 1, 65, 40
1, 28164, Note_on_c, 0, 75, 0
1, 28170, Note_on_c, 0, 73, 40
1, 28188, Note_on_c, 1, 65, 0
1, 28194, Note_on_c, 0, 73, 0
1, 28200, Note_on_c, 0, 72, 40
1, 28200, Note_on_c, 1, 60, 40
1, 28200, Note_on_c, 1, 57, 40
1, 28230, Note_on_c, 0, 72, 0
1, 28230, Note_on_c, 1, 57, 0
1, 28230, Note_on_c, 1, 60, 0
1, 28260, Note_on_c, 0, 72, 40
1, 28260, Note_on_c, 1, 65, 40
1, 28290, Note_on_c, 0, 72, 0
1, 28290, Note_on_c, 1, 65, 0
1, 28320, Note_on_c, 0, 73, 56
1, 28320, Note_on_c, 1, 49, 64
1, 28320, Note_on_c, 1, 61, 64
1, 28344, Note_on_c, 0, 73, 0
1, 28350, Note_on_c, 0, 75, 56
1, 28374, Note_on_c, 0, 75, 0
1, 28380, Note_on_c, 0, 73, 56
1, 28404, Note_on_c, 0, 73, 0
1, 28410, Note_on_c, 0, 72, 56
1, 28416, Note_on_c, 1, 61, 0
1, 28416, Note_on_c, 1, 49, 0
1, 28434, Note_on_c, 0, 72, 0
1, 28440, Note_on_c, 0, 70, 56
1, 28440, Note_on_c, 1, 46, 62
1, 28440, Note_on_c, 1, 58, 62
1, 28464, Note_on_c, 0, 70, 0
1, 28470, Note_on_c, 0, 72, 56
1, 28494, Note_on_c, 0, 72, 0
1, 28500, Note_on_c, 0, 70, 56
1, 28524, Note_on_c, 0, 70, 0
1, 28530, Note_on_c, 0, 68, 56
1, 28536, Note_on_c, 1, 58, 0
1, 28536, Note_on_c, 1, 46, 0
1, 28554, Note_on_c, 0, 68, 0
1, 28560, Note_on_c, 0, 66, 56
1, 28560, Note_on_c, 1, 42, 60
1, 28560, Note_on_c, 1, 54, 60
1, 28584, Note_on_c, 0, 66, 0
1, 28590, Note_on_c, 0, 68, 56
1, 28614, Note_on_c, 0, 68, 0
1, 28620, Note_on_c, 0, 66, 56
1, 28644, Note_on_c, 0, 66, 0
1, 28650, Note_on_c, 0, 65, 56
1, 28656, Note_on_c, 1, 54, 0
1, 28656, Note_on_c, 1, 42, 0
1, 28674, Note_on_c, 0, 65, 0
1, 28680, Note_on_c, 0, 63, 56
1, 28680, Note_on_c, 1, 39, 58
1, 28680, Note_on_c, 1, 51, 58
1, 28704, Note_on_c, 0, 63, 0
1, 28710, Note_on_c, 0, 65, 56
1, 28734, Note_on_c, 0, 65, 0
1, 28740, Note_on_c, 0, 63, 56
1, 28764, Note_on_c, 0, 63, 0
1, 28770, Note_on_c, 0, 61, 56
1, 28776, Note_on_c, 1, 51, 0
1, 28776, Note_on_c, 1, 39, 0
1, 28794, Note_on_c, 0, 61, 0
1, 28800, Note_on_c, 0, 60, 56
1, 28800, Note_on_c, 1, 36, 56
1, 28800, Note_on_c, 1, 48, 56
1, 28824, Note_on_c, 0, 60, 0
1, 28830, Note_on_c, 0, 61, 56
1, 28854, Note_on_c, 0, 61, 0
1, 28860, Note_on_c, 0, 63, 55
1, 28884, Note_on_c, 0, 63, 0
1, 28890, Note_on_c, 0, 61, 55
1, 28914, Note_on_c, 0, 61, 0
1, 28920, Note_on_c, 0, 60, 55
1, 28944, Note_on_c, 0, 60, 0
1, 28950, Note_on_c, 0, 61, 55
1, 28974, Note_on_c, 0, 61, 0
1, 28980, Note_on_c, 0, 63, 54
1, 28992, Note_on_c, 1, 48, 0
1, 28992, Note_on_c, 1, 36, 0
1, 29004, Note_on_c, 0, 63, 0
1, 29010, Note_on_c, 0, 61, 54
1, 29034, Note_on_c, 0, 61, 0
1, 29040, Note_on_c, 0, 60, 54
1, 29040, Note_on_c, 1, 34, 52
1, 29040, Note_on_c, 1, 46, 52
1, 29064, Note_on_c, 0, 60, 0
1, 29070, Note_on_c, 0, 61, 54
1, 29094, Note_on_c, 0, 61, 0
1, 29100, Note_on_c, 0, 63, 53
1, 29124, Note_on_c, 0, 63, 0
1, 29130, Note_on_c, 0, 61, 53
1, 29154, Note_on_c, 0, 61, 0
1, 29160, Note_on_c, 0, 60, 53
1, 29184, Note_on_c, 0, 60, 0
1, 29190, Note_on_c, 0, 61, 53
1, 29214, Note_on_c, 0, 61, 0
1, 29220, Note_on_c, 0, 63, 52
1, 29232, Note_on_c, 1, 46, 0
1, 29232, Note_on_c, 1, 34, 0
1, 29244, Note_on_c, 0, 63, 0
1, 29250, Note_on_c, 0, 61, 52
1, 29274, Note_on_c, 0, 61, 0
1, 29280, Note_on_c, 0, 60, 52
1, 29280, Note_on_c, 1, 33, 48
1, 29280, Note_on_c, 1, 45, 48
1, 29304, Note_on_c, 0, 60, 0
1, 29310, Note_on_c, 0, 61, 52
1, 29334, Note_on_c, 0, 61, 0
1, 29340, Note_on_c, 0, 63, 51
1, 29364, Note_on_c, 0, 63, 0
1, 29370, Note_on_c, 0, 61, 51
1, 29394, Note_on_c, 0, 61, 0
1, 29400, Note_on_c, 0, 60, 51
1, 29424, Note_on_c, 0, 60, 0
1, 29430, Note_on_c, 0, 61, 51
1, 29454, Note_on_c, 0, 61, 0
1, 29460, Note_on_c, 0, 63, 50
1, 29472, Note_on_c, 1, 45, 0
1, 29472, Note_on_c, 1, 33, 0
1, 29484, Note_on_c, 0, 63, 0
1, 29490, Note_on_c, 0, 61, 50
1, 29514, Note_on_c, 0, 61, 0
1, 29520, Note_on_c, 0, 60, 50
1, 29520, Note_on_c, 1, 30, 44
1, 29520, Note_on_c, 1, 42, 44
1, 29544, Note_on_c, 0, 60, 0
1, 29550, Note_on_c, 0, 61, 50
1, 29574, Note_on_c, 0, 61, 0
1, 29580, Note_on_c, 0, 63, 49
1, 29604, Note_on_c, 0, 63, 0
1, 29610, Note_on_c, 0, 61, 49
1, 29634, Note_on_c, 0, 61, 0
1, 29640, Note_on_c, 0, 60, 49
1, 29664, Note_on_c, 0, 60, 0
1, 29670, Note_on_c, 0, 61, 49
1, 29694, Note_on_c, 0, 61, 0
1, 29700, Note_on_c, 0, 63, 48
1, 29712, Note_on_c, 1, 42, 0
1, 29712, Note_on_c, 1, 30, 0
1, 29724, Note_on_c, 0, 63, 0
1, 29730, Note_on_c, 0, 61, 48
1, 29754, Note_on_c, 0, 61, 0
1, 29760, Note_on_c, 0, 60, 40
1, 29760, Note_on_c, 1, 29, 40
1, 29760, Note_on_c, 1, 41, 40
1, 29784, Note_on_c, 0, 60, 0
1, 29790, Note_on_c, 0, 62, 41
1, 29814, Note_on_c, 0, 62, 0
1, 29820, Note_on_c, 0, 63, 43
1, 29844, Note_on_c, 0, 63, 0
1, 29850, Note_on_c, 0, 62, 44
1, 29874, Note_on_c, 0, 62, 0
1, 29880, Note_on_c, 0, 60, 45
1, 29904, Note_on_c, 0, 60, 0
1, 29910, Note_on_c, 0, 62, 46
1, 29934, Note_on_c, 0, 62, 0
1, 29940, Note_on_c, 0, 63, 48
1, 29964, Note_on_c, 0, 63, 0
1, 29970, Note_on_c, 0, 62, 49
1, 29994, Note_on_c, 0, 62, 0
1, 30000, Note_on_c, 0, 60, 50
1, 30024, Note_on_c, 0, 60, 0
1, 30030, Note_on_c, 0, 62, 51
1, 30054, Note_on_c, 0, 62, 0
1, 30060, Note_on_c, 0, 63, 53
1, 30084, Note_on_c, 0, 63, 0
1, 30090, Note_on_c, 0, 62, 54
1, 30114, Note_on_c, 0, 62, 0
1, 30120, Note_on_c, 0, 60, 55
1, 30144, Note_on_c, 0, 60, 0
1, 30150, Note_on_c, 0, 62, 56
1, 30174, Note_on_c, 0, 62, 0
1, 30180, Note_on_c, 0, 63, 58
1, 30204, Note_on_c, 0, 63, 0
1, 30210, Note_on_c, 0, 62, 59
1, 30234, Note_on_c, 0, 62, 0
1, 30240, Note_on_c, 0, 60, 60
1, 30264, Note_on_c, 0, 60, 0
1, 30270, Note_on_c, 0, 62, 61
1, 30294, Note_on_c, 0, 62, 0
1, 30300, Note_on_c, 0, 63, 63
1, 30324, Note_on_c, 0, 63, 0
1, 30330, Note_on_c, 0, 62, 64
1, 30354, Note_on_c, 0, 62, 0
1, 30360, Note_on_c, 0, 60, 65
1, 30384, Note_on_c, 0, 60, 0
1, 30390, Note_on_c, 0, 62, 66
1, 30414, Note_on_c, 0, 62, 0
1, 30420, Note_on_c, 0, 63, 68
1, 30444, Note_on_c, 0, 63, 0
1, 30450, Note_on_c, 0, 62, 69
1, 30474, Note_on_c, 0, 62, 0
1, 30480, Note_on_c, 0, 60, 70
1, 30504, Note_on_c, 0, 60, 0
1, 30510, Note_on_c, 0, 62, 71
1, 30528, Note_on_c, 1, 41, 0
1, 30528, Note_on_c, 1, 29, 0
1, 30534, Note_on_c, 0, 62, 0
1, 30540, Note_on_c, 0, 63, 73
1, 30564, Note_on_c, 0, 63, 0
1, 30570, Note_on_c, 0, 65, 74
1, 30594, Note_on_c, 0, 65, 0
1, 30600, Note_on_c, 0, 67, 75
1, 30624, Note_on_c, 0, 67, 0
1, 30630, Note_on_c, 0, 69, 76
1, 30654, Note_on_c, 0, 69, 0
1, 30660, Note_on_c, 0, 70, 78
1, 30684, Note_on_c, 0, 70, 0
1, 30690, Note_on_c, 0, 72, 79
1, 30714, Note_on_c, 0, 72, 0
1, 30720, Note_on_c, 0, 70, 80
1, 30720, Note_on_c, 0, 74, 80
1, 30720, Note_on_c, 1, 65, 80
1, 30720, Note_on_c, 1, 62, 80
1, 30720, Note_on_c, 1, 58, 80
1, 30912, Note_on_c, 0, 74, 0
1, 30912, Note_on_c, 0, 70, 0
1, 30912, Note_on_c, 1, 58, 0
1, 30912, Note_on_c, 1, 62, 0
1, 30912, Note_on_c, 1, 65, 0
1, 30960, Note_on_c, 0, 77, 80
1, 30960, Note_on_c, 0, 72, 80
1, 30960, Note_on_c, 1, 65, 80
1, 30960, Note_on_c, 1, 60, 80
1, 30960, Note_on_c, 1, 57, 80
1, 31128, Note_on_c, 1, 57, 0
1, 31128, Note_on_c, 1, 60, 0
1, 31128, Note_on_c, 1, 65, 0
1, 31152, Note_on_c, 0, 72, 0
1, 31152, Note_on_c, 0, 77, 0
1, 31155, Note_on_c, 1, 55, 80
1, 31170, Note_on_c, 1, 58, 80
1, 31185, Note_on_c, 1, 63, 80
1, 31200, Note_on_c, 0, 82, 80
1, 31200, Note_on_c, 0, 75, 80
1, 31200, Note_on_c, 0, 70, 80
1, 31584, Note_on_c, 0, 70, 0
1, 31584, Note_on_c, 0, 75, 0
1, 31584, Note_on_c, 0, 82, 0
1, 31584, Note_on_c, 1, 63, 0
1, 31584, Note_on_c, 1, 58, 0
1, 31584, Note_on_c, 1, 55, 0
1, 31620, Note_on_c, 0, 81, 80
1, 31636, Note_on_c, 0, 81, 0
1, 31640, Note_on_c, 0, 79, 80
1, 31656, Note_on_c, 0, 79, 0
1, 31660, Note_on_c, 0, 77, 80
1, 31676, Note_on_c, 0, 77, 0
1, 31680, Note_on_c, 0, 75, 80
1, 31680, Note_on_c, 1, 67, 80
1, 31680, Note_on_c, 1, 70, 80
1, 31776, Note_on_c, 0, 75, 0
1, 31776, Note_on_c, 1, 70, 0
1, 31776, Note_on_c, 1, 67, 0
1, 31860, Note_on_c, 0, 74, 80
1, 31860, Note_on_c, 1, 65, 80
1, 31860, Note_on_c, 1, 70, 80
1, 31908, Note_on_c, 0, 74, 0
1, 31908, Note_on_c, 1, 65, 0
1, 31920, Note_on_c, 0, 79, 80
1, 31920, Note_on_c, 1, 63, 80
1, 32016, Note_on_c, 0, 79, 0
1, 32016, Note_on_c, 1, 63, 0
1, 32016, Note_on_c, 1, 70, 0
1, 32100, Note_on_c, 0, 70, 80
1, 32100, Note_on_c, 0, 77, 80
1, 32100, Note_on_c, 1, 61, 80
1, 32100, Note_on_c, 1, 65, 80
1, 32148, Note_on_c, 0, 77, 0
1, 32148, Note_on_c, 0, 70, 0
1, 32148, Note_on_c, 1, 65, 0
1, 32148, Note_on_c, 1, 61, 0
1, 32160, Note_on_c, 0, 70, 80
1, 32160, Note_on_c, 0, 76, 80
1, 32160, Note_on_c, 1, 60, 80
1, 32160, Note_on_c, 1, 67, 80
1, 32400, Note_on_c, 0, 76, 0
1, 32400, Note_on_c, 0, 70, 0
1, 32400, Note_on_c, 1, 67, 0
1, 32400, Note_on_c, 1, 60, 0
1, 32460, Note_on_c, 0, 75, 48
1, 32460, Note_on_c, 0, 79, 48
1, 32484, Note_on_c, 0, 79, 0
1, 32484, Note_on_c, 0, 75, 0
1, 32520, Note_on_c, 0, 74, 48
1, 32520, Note_on_c, 0, 77, 48
1, 32544, Note_on_c, 0, 77, 0
1, 32544, Note_on_c, 0, 74, 0
1, 32580, Note_on_c, 0, 72, 48
1, 32580, Note_on_c, 0, 75, 48
1, 32604, Note_on_c, 0, 75, 0
1, 32604, Note_on_c, 0, 72, 0
1, 32640, Note_on_c, 0, 74, 48
1, 32640, Note_on_c, 0, 70, 48
1, 32700, Note_on_c, 1, 65, 48
1, 32700, Note_on_c, 1, 62, 48
1, 32724, Note_on_c, 1, 62, 0
1, 32724, Note_on_c, 1, 65, 0
1, 32760, Note_on_c, 1, 63, 48
1, 32760, Note_on_c, 1, 60, 48
1, 32784, Note_on_c, 1, 60, 0
1, 32784, Note_on_c, 1, 63, 0
1, 32820, Note_on_c, 1, 62, 48
1, 32820, Note_on_c, 1, 58, 48
1, 32832, Note_on_c, 0, 70, 0
1, 32832, Note_on_c, 0, 74, 0
1, 32844, Note_on_c, 1, 58, 0
1, 32844, Note_on_c, 1, 62, 0
1, 32880, Note_on_c, 1, 57, 48
1, 32880, Note_on_c, 1, 60, 48
1, 32940, Note_on_c, 0, 75, 48
1, 32940, Note_on_c, 0, 79, 48
1, 32952, Note_on_c, 0, 79, 0
1, 32952, Note_on_c, 0, 75, 0
1, 33000, Note_on_c, 0, 74, 48
1, 33000, Note_on_c, 0, 77, 48
1, 33012, Note_on_c, 0, 77, 0
1, 33012, Note_on_c, 0, 74, 0
1, 33060, Note_on_c, 0, 72, 48
1, 33060, Note_on_c, 0, 75, 48
1, 33072, Note_on_c, 0, 75, 0
1, 33072, Note_on_c, 0, 72, 0
1, 33072, Note_on_c, 1, 60, 0
1, 33072, Note_on_c, 1, 57, 0
1, 33120, Note_on_c, 0, 70, 48
1, 33120, Note_on_c, 0, 74, 48
1, 33180, Note_on_c, 1, 62, 48
1, 33180, Note_on_c, 1, 65, 48
1, 33192, Note_on_c, 1, 65, 0
1, 33192, Note_on_c, 1, 62, 0
1, 33240, Note_on_c, 1, 60, 48
1, 33240, Note_on_c, 1, 63, 48
1, 33252, Note_on_c, 1, 63, 0
1, 33252, Note_on_c, 1, 60, 0
1, 33300, Note_on_c, 1, 58, 48
1, 33300, Note_on_c, 1, 62, 48
1, 33312, Note_on_c, 0, 74, 0
1, 33312, Note_on_c, 0, 70, 0
1, 33312, Note_on_c, 1, 62, 0
1, 33312, Note_on_c, 1, 58, 0
1, 33360, Note_on_c, 1, 57, 48
1, 33360, Note_on_c, 1, 60, 48
1, 33420, Note_on_c, 0, 75, 48
1, 33420, Note_on_c, 0, 79, 48
1, 33420, Note_on_c, 1, 60, 0
1, 33420, Note_on_c, 1, 57, 0
1, 33420, Note_on_c, 1, 65, 48
1, 33480, Note_on_c, 0, 79, 0
1, 33480, Note_on_c, 0, 75, 0
1, 33480, Note_on_c, 0, 74, 56
1, 33480, Note_on_c, 0, 77, 56
1, 33480, Note_on_c, 1, 65, 0
1, 33480, Note_on_c, 1, 67, 56
1, 33540, Note_on_c, 0, 77, 0
1, 33540, Note_on_c, 0, 74, 0
1, 33540, Note_on_c, 0, 72, 64
1, 33540, Note_on_c, 0, 75, 64
1, 33540, Note_on_c, 1, 67, 0
1, 33540, Note_on_c, 1, 69, 64
1, 33600, Note_on_c, 0, 75, 0
1, 33600, Note_on_c, 0, 72, 0
1, 33600, Note_on_c, 0, 70, 72
1, 33600, Note_on_c, 0, 74, 72
1, 33600, Note_on_c, 1, 69, 0
1, 33600, Note_on_c, 1, 70, 72
1, 33648, Note_on_c, 0, 74, 0
1, 33648, Note_on_c, 0, 70, 0
1, 33648, Note_on_c, 1, 70, 0
1, 33660, Note_on_c, 0, 77, 80
1, 33660, Note_on_c, 0, 82, 80
1, 33660, Note_on_c, 1, 74, 80
1, 33708, Note_on_c, 0, 82, 0
1, 33708, Note_on_c, 0, 77, 0
1, 33708, Note_on_c, 1, 74, 0
1, 33720, Note_on_c, 0, 75, 80
1, 33720, Note_on_c, 0, 81, 80
1, 33720, Note_on_c, 1, 72, 80
1, 33768, Note_on_c, 0, 81, 0
1, 33768, Note_on_c, 0, 75, 0
1, 33768, Note_on_c, 1, 72, 0
1, 33780, Note_on_c, 0, 74, 80
1, 33780, Note_on_c, 0, 79, 80
1, 33780, Note_on_c, 1, 70, 80
1, 33828, Note_on_c, 0, 79, 0
1, 33828, Note_on_c, 0, 74, 0
1, 33828, Note_on_c, 1, 70, 0
1, 33840, Note_on_c, 0, 72, 80
1, 33840, Note_on_c, 0, 77, 80
1, 33840, Note_on_c, 1, 69, 80
1, 33888, Note_on_c, 0, 77, 0
1, 33888, Note_on_c, 0, 72, 0
1, 33888, Note_on_c, 1, 69, 0
1, 33900, Note_on_c, 0, 75, 80
1, 33900, Note_on_c, 1, 67, 80
1, 33900, Note_on_c, 1, 70, 80
1, 33948, Note_on_c, 0, 75, 0
1, 33948, Note_on_c, 1, 70, 0
1, 33948, Note_on_c, 1, 67, 0
1, 33960, Note_on_c, 0, 74, 80
1, 33960, Note_on_c, 1, 65, 80
1, 33960, Note_on_c, 1, 69, 80
1, 34008, Note_on_c, 0, 74, 0
1, 34008, Note_on_c, 1, 69, 0
1, 34008, Note_on_c, 1, 65, 0
1, 34020, Note_on_c, 0, 72, 80
1, 34020, Note_on_c, 1, 63, 80
1, 34020, Note_on_c, 1, 67, 80
1, 34068, Note_on_c, 0, 72, 0
1, 34068, Note_on_c, 1, 67, 0
1, 34068, Note_on_c, 1, 63, 0
1, 34080, Note_on_c, 0, 71, 80
1, 34080, Note_on_c, 1, 62, 80
1, 34080, Note_on_c, 1, 65, 80
1, 34320, Note_on_c, 0, 71, 0
1, 34320, Note_on_c, 0, 72, 80
1, 34320, Note_on_c, 1, 65, 0
1, 34320, Note_on_c, 1, 62, 0
1, 34320, Note_on_c, 1, 63, 80
1, 34320, Note_on_c, 1, 67, 80
1, 34416, Note_on_c, 0, 72, 0
1, 34416, Note_on_c, 1, 67, 0
1, 34416, Note_on_c, 1, 63, 0
1, 34560, Note_on_c, 0, 69, 64
1, 34560, Note_on_c, 0, 65, 64
1, 34560, Note_on_c, 1, 60, 64
1, 34560, Note_on_c, 1, 63, 64
1, 34800, Note_on_c, 0, 65, 0
1, 34800, Note_on_c, 0, 69, 0
1, 34800, Note_on_c, 0, 65, 64
1, 34800, Note_on_c, 0, 70, 64
1, 34800, Note_on_c, 1, 63, 0
1, 34800, Note_on_c, 1, 60, 0
1, 34800, Note_on_c, 1, 62, 64
1, 34896, Note_on_c, 0, 70, 0
1, 34896, Note_on_c, 0, 65, 0
1, 34896, Note_on_c, 1, 62, 0
1, 35520, Note_on_c, 0, 55, 40
1, 35520, Note_on_c, 0, 67, 40
1, 36000, Note_on_c, 0, 67, 0
1, 36000, Note_on_c, 0, 55, 0
1, 36000, Note_on_c, 0, 54, 32
1, 36000, Note_on_c, 0, 66, 32
1, 36000, Note_on_c, 1, 30, 32
1, 36000, Note_on_c, 1, 42, 32
1, 36480, Note_on_c, 0, 66, 0
1, 36480, Note_on_c, 0, 54, 0
1, 36480, Note_on_c, 0, 53, 80
1, 36480, Note_on_c, 0, 65, 80
1, 36480, Note_on_c, 1, 42, 0
1, 36480, Note_on_c, 1, 30, 0
1, 36480, Note_on_c, 1, 29, 80
1, 36504, Note_on_c, 1, 29, 0
1, 36510, Note_on_c, 1, 41, 80
1, 36534, Note_on_c, 1, 41, 0
1, 36540, Note_on_c, 1, 29, 80
1, 36564, Note_on_c, 1, 29, 0
1, 36570, Note_on_c, 1, 41, 80
1, 36576, Note_on_c, 0, 65, 0
1, 36576, Note_on_c, 0, 53, 0
1, 36594, Note_on_c, 1, 41, 0
1, 36600, Note_on_c, 0, 77, 80
1, 36600, Note_on_c, 0, 74, 80
1, 36600, Note_on_c, 0, 70, 80
1, 36600, Note_on_c, 0, 65, 80
1, 36600, Note_on_c, 1, 29, 80
1, 36624, Note_on_c, 1, 29, 0
1, 36630, Note_on_c, 1, 41, 80
1, 36654, Note_on_c, 1, 41, 0
1, 36660, Note_on_c, 1, 29, 80
1, 36684, Note_on_c, 1, 29, 0
1, 36690, Note_on_c, 1, 41, 80
1, 36696, Note_on_c, 0, 65, 0
1, 36696, Note_on_c, 0, 77, 0
1, 36696, Note_on_c, 0, 74, 0
1, 36696, Note_on_c, 0, 70, 0
1, 36714, Note_on_c, 1, 41, 0
1, 36720, Note_on_c, 0, 82, 80
1, 36720, Note_on_c, 0, 77, 80
1, 36720, Note_on_c, 0, 74, 80
1, 36720, Note_on_c, 1, 29, 80
1, 36744, Note_on_c, 1, 29, 0
1, 36750, Note_on_c, 1, 41, 80
1, 36774, Note_on_c, 1, 41, 0
1, 36780, Note_on_c, 1, 29, 80
1, 36804, Note_on_c, 1, 29, 0
1, 36810, Note_on_c, 1, 41, 80
1, 36816, Note_on_c, 0, 74, 0
1, 36816, Note_on_c, 0, 77, 0
1, 36816, Note_on_c, 0, 82, 0
1, 36834, Note_on_c, 1, 41, 0
1, 36840, Note_on_c, 0, 86, 80
1, 36840, Note_on_c, 0, 82, 80
1, 36840, Note_on_c, 0, 77, 80
1, 36840, Note_on_c, 1, 29, 80
1, 36864, Note_on_c, 1, 29, 0
1, 36870, Note_on_c, 1, 41, 80
1, 36894, Note_on_c, 1, 41, 0
1, 36900, Note_on_c, 1, 29, 80
1, 36924, Note_on_c, 1, 29, 0
1, 36930, Note_on_c, 1, 41, 80
1, 36936, Note_on_c, 0, 77, 0
1, 36936, Note_on_c, 0, 82, 0
1, 36936, Note_on_c, 0, 86, 0
1, 36954, Note_on_c, 1, 41, 0
1, 36960, Note_on_c, 0, 89, 80
1, 36960, Note_on_c, 0, 86, 80
1, 36960, Note_on_c, 0, 82, 80
1, 36960, Note_on_c, 0, 77, 80
1, 36960, Note_on_c, 1, 29, 80
1, 37056, Note_on_c, 0, 77, 0
1, 37056, Note_on_c, 0, 89, 0
1, 37056, Note_on_c, 0, 86, 0
1, 37056, Note_on_c, 0, 82, 0
1, 37056, Note_on_c, 1, 29, 0
1, 37200, Note_on_c, 0, 81, 80
1, 37200, Note_on_c, 0, 77, 80
1, 37200, Note_on_c, 0, 75, 80
1, 37200, Note_on_c, 0, 72, 80
1, 37200, Note_on_c, 1, 63, 80
1, 37200, Note_on_c, 1, 60, 80
1, 37200, Note_on_c, 1, 57, 80
1, 37200, Note_on_c, 1, 53, 80
1, 37296, Note_on_c, 0, 72, 0
1, 37296, Note_on_c, 0, 81, 0
1, 37296, Note_on_c, 0, 77, 0
1, 37296, Note_on_c, 0, 75, 0
1, 37296, Note_on_c, 1, 53, 0
1, 37296, Note_on_c, 1, 63, 0
1, 37296, Note_on_c, 1, 60, 0
1, 37296, Note_on_c, 1, 57, 0
1, 37440, Note_on_c, 0, 82, 80
1, 37440, Note_on_c, 1, 58, 80
1, 37440, Note_on_c, 1, 53, 80
1, 37440, Note_on_c, 1, 50, 80
1, 37440, Note_on_c, 1, 46, 80
1, 37464, Note_on_c, 0, 82, 0
1, 37470, Note_on_c, 0, 86, 80
1, 37494, Note_on_c, 0, 86, 0
1, 37500, Note_on_c, 0, 84, 80
1, 37524, Note_on_c, 0, 84, 0
1, 37530, Note_on_c, 0, 82, 80
1, 37554, Note_on_c, 0, 82, 0
1, 37560, Note_on_c, 0, 81, 80
1, 37560, Note_on_c, 1, 46, 0
1, 37560, Note_on_c, 1, 58, 0
1, 37560, Note_on_c, 1, 53, 0
1, 37560, Note_on_c, 1, 50, 0
1, 37584, Note_on_c, 0, 81, 0
1, 37590, Note_on_c, 0, 79, 80
1, 37614, Note_on_c, 0, 79, 0
1, 37620, Note_on_c, 0, 77, 80
1, 37644, Note_on_c, 0, 77, 0
1, 37650, Note_on_c, 0, 76, 80
1, 37674, Note_on_c, 0, 76, 0
1, 37680, Note_on_c, 0, 75, 80
1, 37680, Note_on_c, 1, 57, 80
1, 37680, Note_on_c, 1, 51, 80
1, 37680, Note_on_c, 1, 48, 80
1, 37680, Note_on_c, 1, 46, 80
1, 37704, Note_on_c, 0, 75, 0
1, 37710, Note_on_c, 0, 79, 80
1, 37734, Note_on_c, 0, 79, 0
1, 37740, Note_on_c, 0, 77, 80
1, 37740, Note_on_c, 1, 46, 0
1, 37740, Note_on_c, 1, 57, 0
1, 37740, Note_on_c, 1, 51, 0
1, 37740, Note_on_c, 1, 48, 0
1, 37764, Note_on_c, 0, 77, 0
1, 37770, Note_on_c, 0, 75, 80
1, 37794, Note_on_c, 0, 75, 0
1, 37800, Note_on_c, 0, 74, 80
1, 37824, Note_on_c, 0, 74, 0
1, 37830, Note_on_c, 0, 72, 80
1, 37854, Note_on_c, 0, 72, 0
1, 37860, Note_on_c, 0, 70, 80
1, 37884, Note_on_c, 0, 70, 0
1, 37890, Note_on_c, 0, 69, 80
1, 37914, Note_on_c, 0, 69, 0
1, 37920, Note_on_c, 0, 70, 80
1, 37920, Note_on_c, 1, 58, 80
1, 37920, Note_on_c, 1, 53, 80
1, 37920, Note_on_c, 1, 50, 80
1, 37920, Note_on_c, 1, 46, 80
1, 37944, Note_on_c, 0, 70, 0
1, 37950, Note_on_c, 0, 74, 80
1, 37974, Note_on_c, 0, 74, 0
1, 37980, Note_on_c, 0, 72, 80
1, 38004, Note_on_c, 0, 72, 0
1, 38010, Note_on_c, 0, 70, 80
1, 38034, Note_on_c, 0, 70, 0
1, 38040, Note_on_c, 0, 69, 80
1, 38040, Note_on_c, 1, 46, 0
1, 38040, Note_on_c, 1, 58, 0
1, 38040, Note_on_c, 1, 53, 0
1, 38040, Note_on_c, 1, 50, 0
1, 38064, Note_on_c, 0, 69, 0
1, 38070, Note_on_c, 0, 67, 80
1, 38094, Note_on_c, 0, 67, 0
1, 38100, Note_on_c, 0, 65, 80
1, 38124, Note_on_c, 0, 65, 0
1, 38130, Note_on_c, 0, 64, 80
1, 38154, Note_on_c, 0, 64, 0
1, 38160, Note_on_c, 0, 63, 80
1, 38160, Note_on_c, 1, 57, 80
1, 38160, Note_on_c, 1, 51, 80
1, 38160, Note_on_c, 1, 48, 80
1, 38160, Note_on_c, 1, 46, 80
1, 38184, Note_on_c, 0, 63, 0
1, 38190, Note_on_c, 0, 67, 80
1, 38214, Note_on_c, 0, 67, 0
1, 38220, Note_on_c, 0, 65, 80
1, 38220, Note_on_c, 1, 46, 0
1, 38220, Note_on_c, 1, 57, 0
1, 38220, Note_on_c, 1, 51, 0
1, 38220, Note_on_c, 1, 48, 0
1, 38244, Note_on_c, 0, 65, 0
1, 38250, Note_on_c, 0, 63, 80
1, 38274, Note_on_c, 0, 63, 0
1, 38280, Note_on_c, 0, 62, 80
1, 38304, Note_on_c, 0, 62, 0
1, 38310, Note_on_c, 0, 60, 80
1, 38334, Note_on_c, 0, 60, 0
1, 38340, Note_on_c, 0, 58, 80
1, 38364, Note_on_c, 0, 58, 0
1, 38370, Note_on_c, 0, 57, 80
1, 38394, Note_on_c, 0, 57, 0
1, 38400, Note_on_c, 0, 58, 80
1, 38400, Note_on_c, 1, 46, 80
1, 38400, Note_on_c, 1, 34, 80
1, 38424, Note_on_c, 0, 58, 0
1, 38430, Note_on_c, 0, 57, 80
1, 38454, Note_on_c, 0, 57, 0
1, 38460, Note_on_c, 0, 58, 80
1, 38484, Note_on_c, 0, 58, 0
1, 38490, Note_on_c, 0, 53, 80
1, 38496, Note_on_c, 1, 34, 0
1, 38496, Note_on_c, 1, 46, 0
1, 38514, Note_on_c, 0, 53, 0
1, 38520, Note_on_c, 0, 62, 80
1, 38520, Note_on_c, 1, 50, 80
1, 38520, Note_on_c, 1, 38, 80
1, 38544, Note_on_c, 0, 62, 0
1, 38550, Note_on_c, 0, 61, 80
1, 38574, Note_on_c, 0, 61, 0
1, 38580, Note_on_c, 0, 62, 80
1, 38604, Note_on_c, 0, 62, 0
1, 38610, Note_on_c, 0, 58, 80
1, 38616, Note_on_c, 1, 38, 0
1, 38616, Note_on_c, 1, 50, 0
1, 38634, Note_on_c, 0, 58, 0
1, 38640, Note_on_c, 0, 65, 80
1, 38640, Note_on_c, 1, 53, 80
1, 38640, Note_on_c, 1, 41, 80
1, 38664, Note_on_c, 0, 65, 0
1, 38670, Note_on_c, 0, 64, 80
1, 38694, Note_on_c, 0, 64, 0
1, 38700, Note_on_c, 0, 65, 80
1, 38724, Note_on_c, 0, 65, 0
1, 38730, Note_on_c, 0, 62, 80
1, 38736, Note_on_c, 1, 41, 0
1, 38736, Note_on_c, 1, 53, 0
1, 38754, Note_on_c, 0, 62, 0
1, 38760, Note_on_c, 0, 70, 80
1, 38760, Note_on_c, 1, 58, 80
1, 38760, Note_on_c, 1, 46, 80
1, 38784, Note_on_c, 0, 70, 0
1, 38790, Note_on_c, 0, 69, 80
1, 38814, Note_on_c, 0, 69, 0
1, 38820, Note_on_c, 0, 70, 80
1, 38844, Note_on_c, 0, 70, 0
1, 38850, Note_on_c, 0, 65, 80
1, 38856, Note_on_c, 1, 46, 0
1, 38856, Note_on_c, 1, 58, 0
1, 38874, Note_on_c, 0, 65, 0
1, 38880, Note_on_c, 0, 74, 80
1, 38880, Note_on_c, 1, 62, 80
1, 38880, Note_on_c, 1, 50, 80
1, 38904, Note_on_c, 0, 74, 0
1, 38910, Note_on_c, 0, 73, 80
1, 38934, Note_on_c, 0, 73, 0
1, 38940, Note_on_c, 0, 74, 80
1, 38964, Note_on_c, 0, 74, 0
1, 38970, Note_on_c, 0, 70, 80
1, 38976, Note_on_c, 1, 50, 0
1, 38976, Note_on_c, 1, 62, 0
1, 38994, Note_on_c, 0, 70, 0
1, 39000, Note_on_c, 0, 77, 80
1, 39000, Note_on_c, 1, 65, 80
1, 39000, Note_on_c, 1, 53, 80
1, 39024, Note_on_c, 0, 77, 0
1, 39030, Note_on_c, 0, 76, 80
1, 39054, Note_on_c, 0, 76, 0
1, 39060, Note_on_c, 0, 77, 80
1, 39084, Note_on_c, 0, 77, 0
1, 39090, Note_on_c, 0, 74, 80
1, 39096, Note_on_c, 1, 53, 0
1, 39096, Note_on_c, 1, 65, 0
1, 39114, Note_on_c, 0, 74, 0
1, 39120, Note_on_c, 0, 82, 80
1, 39120, Note_on_c, 1, 70, 80
1, 39120, Note_on_c, 1, 58, 80
1, 39144, Note_on_c, 0, 82, 0
1, 39150, Note_on_c, 0, 81, 80
1, 39174, Note_on_c, 0, 81, 0
1, 39180, Note_on_c, 0, 82, 80
1, 39204, Note_on_c, 0, 82, 0
1, 39210, Note_on_c, 0, 77, 80
1, 39216, Note_on_c, 1, 58, 0
1, 39216, Note_on_c, 1, 70, 0
1, 39234, Note_on_c, 0, 77, 0
1, 39240, Note_on_c, 0, 84, 80
1, 39240, Note_on_c, 1, 75, 80
1, 39240, Note_on_c, 1, 65, 80
1, 39264, Note_on_c, 0, 84, 0
1, 39270, Note_on_c, 0, 83, 80
1, 39294, Note_on_c, 0, 83, 0
1, 39300, Note_on_c, 0, 84, 80
1, 39324, Note_on_c, 0, 84, 0
1, 39330, Note_on_c, 0, 77, 80
1, 39336, Note_on_c, 1, 65, 0
1, 39336, Note_on_c, 1, 75, 0
1, 39354, Note_on_c, 0, 77, 0
1, 39360, Note_on_c, 0, 82, 80
1, 39360, Note_on_c, 1, 70, 80
1, 39360, Note_on_c, 1, 74, 80
1, 39384, Note_on_c, 0, 82, 0
1, 39390, Note_on_c, 0, 81, 79
1, 39414, Note_on_c, 0, 81, 0
1, 39420, Note_on_c, 0, 82, 77
1, 39444, Note_on_c, 0, 82, 0
1, 39450, Note_on_c, 0, 77, 76
1, 39456, Note_on_c, 1, 74, 0
1, 39456, Note_on_c, 1, 70, 0
1, 39474, Note_on_c, 0, 77, 0
1, 39480, Note_on_c, 0, 84, 75
1, 39480, Note_on_c, 1, 65, 75
1, 39480, Note_on_c, 1, 75, 75
1, 39504, Note_on_c, 0, 84, 0
1, 39510, Note_on_c, 0, 82, 74
1, 39534, Note_on_c, 0, 82, 0
1, 39540, Note_on_c, 0, 84, 72
1, 39564, Note_on_c, 0, 84, 0
1, 39570, Note_on_c, 0, 77, 71
1, 39576, Note_on_c, 1, 75, 0
1, 39576, Note_on_c, 1, 65, 0
1, 39594, Note_on_c, 0, 77, 0
1, 39600, Note_on_c, 0, 82, 70
1, 39600, Note_on_c, 1, 70, 70
1, 39600, Note_on_c, 1, 74, 70
1, 39624, Note_on_c, 0, 82, 0
1, 39630, Note_on_c, 0, 81, 69
1, 39654, Note_on_c, 0, 81, 0
1, 39660, Note_on_c, 0, 82, 67
1, 39684, Note_on_c, 0, 82, 0
1, 39690, Note_on_c, 0, 77, 66
1, 39696, Note_on_c, 1, 74, 0
1, 39696, Note_on_c, 1, 70, 0
1, 39714, Note_on_c, 0, 77, 0
1, 39720, Note_on_c, 0, 84, 65
1, 39720, Note_on_c, 1, 65, 65
1, 39720, Note_on_c, 1, 75, 65
1, 39744, Note_on_c, 0, 84, 0
1, 39750, Note_on_c, 0, 82, 64
1, 39774, Note_on_c, 0, 82, 0
1, 39780, Note_on_c, 0, 84, 62
1, 39804, Note_on_c, 0, 84, 0
1, 39810, Note_on_c, 0, 77, 61
1, 39816, Note_on_c, 1, 75, 0
1, 39816, Note_on_c, 1, 65, 0
1, 39834, Note_on_c, 0, 77, 0
1, 39840, Note_on_c, 0, 82, 60
1, 39840, Note_on_c, 1, 70, 40
1, 39864, Note_on_c, 1, 70, 0
1, 39870, Note_on_c, 1, 74, 40
1, 39894, Note_on_c, 1, 74, 0
1, 39900, Note_on_c, 1, 70, 40
1, 39924, Note_on_c, 1, 70, 0
1, 39930, Note_on_c, 1, 74, 40
1, 39936, Note_on_c, 0, 82, 0
1, 39954, Note_on_c, 1, 74, 0
1, 39960, Note_on_c, 0, 82, 55
1, 39960, Note_on_c, 0, 86, 55
1, 39960, Note_on_c, 1, 70, 40
1, 39984, Note_on_c, 1, 70, 0
1, 39990, Note_on_c, 1, 74, 40
1, 39996, Note_on_c, 0, 86, 0
1, 39996, Note_on_c, 0, 82, 0
1, 40014, Note_on_c, 1, 74, 0
1, 40020, Note_on_c, 1, 70, 40
1, 40044, Note_on_c, 1, 70, 0
1, 40050, Note_on_c, 1, 74, 40
1, 40074, Note_on_c, 1, 74, 0
1, 40080, Note_on_c, 0, 86, 50
1, 40080, Note_on_c, 0, 89, 50
1, 40080, Note_on_c, 1, 70, 40
1, 40104, Note_on_c, 1, 70, 0
1, 40110, Note_on_c, 1, 74, 40
1, 40116, Note_on_c, 0, 89, 0
1, 40116, Note_on_c, 0, 86, 0
1, 40134, Note_on_c, 1, 74, 0
1, 40140, Note_on_c, 1, 70, 40
1, 40164, Note_on_c, 1, 70, 0
1, 40170, Note_on_c, 1, 74, 40
1, 40194, Note_on_c, 1, 74, 0
1, 40200, Note_on_c, 0, 82, 45
1, 40200, Note_on_c, 0, 86, 45
1, 40200, Note_on_c, 1, 70, 40
1, 40224, Note_on_c, 1, 70, 0
1, 40230, Note_on_c, 1, 74, 40
1, 40236, Note_on_c, 0, 86, 0
1, 40236, Note_on_c, 0, 82, 0
1, 40254, Note_on_c, 1, 74, 0
1, 40260, Note_on_c, 1, 70, 40
1, 40284, Note_on_c, 1, 70, 0
1, 40290, Note_on_c, 1, 74, 40
1, 40314, Note_on_c, 1, 74, 0
1, 40320, Note_on_c, 0, 86, 40
1, 40320, Note_on_c, 0, 89, 40
1, 40320, Note_on_c, 1, 70, 40
1, 40368, Note_on_c, 0, 89, 0
1, 40368, Note_on_c, 0, 86, 0
1, 40368, Note_on_c, 1, 70, 0
1, 40560, Note_on_c, 0, 82, 38
1, 40560, Note_on_c, 0, 86, 38
1, 40560, Note_on_c, 1, 70, 38
1, 40560, Note_on_c, 1, 74, 38
1, 40632, Note_on_c, 0, 86, 0
1, 40632, Note_on_c, 0, 82, 0
1, 40632, Note_on_c, 1, 74, 0
1, 40632, Note_on_c, 1, 70, 0
1, 40800, Note_on_c, 0, 82, 36
1, 40800, Note_on_c, 0, 77, 36
1, 40800, Note_on_c, 1, 70, 36
1, 40800, Note_on_c, 1, 74, 36
1, 40896, Note_on_c, 0, 77, 0
1, 40896, Note_on_c, 0, 82, 0
1, 40896, Note_on_c, 1, 74, 0
1, 40896, Note_on_c, 1, 70, 0
1, 41280, Note_on_c, 0, 62, 40
1, 41280, Note_on_c, 0, 65, 40
1, 41280, Note_on_c, 1, 34, 40
1, 41280, Note_on_c, 1, 46, 40
1, 41760, Note_on_c, 0, 65, 0
1, 41760, Note_on_c, 0, 62, 0
1, 41760, Note_on_c, 0, 60, 40
1, 41760, Note_on_c, 0, 66, 40
1, 41760, Note_on_c, 1, 46, 0
1, 41760, Note_on_c, 1, 34, 0
1, 41760, Note_on_c, 1, 44, 40
1, 41760, Note_on_c, 1, 32, 40
1, 42240, Note_on_c, 0, 66, 0
1, 42240, Note_on_c, 0, 60, 0
1, 42240, Note_on_c, 0, 59, 40
1, 42240, Note_on_c, 0, 67, 40
1, 42240, Note_on_c, 1, 32, 0
1, 42240, Note_on_c, 1, 44, 0
1, 42240, Note_on_c, 1, 31, 40
1, 42240, Note_on_c, 1, 43, 40
1, 43008, Note_on_c, 0, 67, 0
1, 43008, Note_on_c, 0, 59, 0
1, 43008, Note_on_c, 1, 43, 0
1, 43008, Note_on_c, 1, 31, 0
1, 43380, Note_on_c, 0, 79, 64
1, 43428, Note_on_c, 0, 79, 0
1, 43440, Note_on_c, 0, 76, 64
1, 43440, Note_on_c, 1, 64, 80
1, 43440, Note_on_c, 1, 60, 80
1, 43470, Note_on_c, 0, 76, 0
1, 43476, Note_on_c, 1, 60, 0
1, 43476, Note_on_c, 1, 64, 0
1, 43530, Note_on_c, 0, 79, 64
1, 43554, Note_on_c, 0, 79, 0
1, 43560, Note_on_c, 0, 74, 64
1, 43560, Note_on_c, 1, 55, 80
1, 43560, Note_on_c, 1, 62, 80
1, 43590, Note_on_c, 0, 74, 0
1, 43596, Note_on_c, 1, 62, 0
1, 43596, Note_on_c, 1, 55, 0
1, 43650, Note_on_c, 0, 79, 64
1, 43674, Note_on_c, 0, 79, 0
1, 43680, Note_on_c, 0, 72, 64
1, 43680, Note_on_c, 1, 52, 80
1, 43680, Note_on_c, 1, 60, 80
1, 43710, Note_on_c, 0, 72, 0
1, 43770, Note_on_c, 0, 79, 64
1, 43776, Note_on_c, 1, 60, 0
1, 43776, Note_on_c, 1, 52, 0
1, 43794, Note_on_c, 0, 79, 0
1, 43800, Note_on_c, 0, 67, 64
1, 43830, Note_on_c, 0, 67, 0
1, 43890, Note_on_c, 0, 79, 48
1, 43914, Note_on_c, 0, 79, 0
1, 43920, Note_on_c, 0, 76, 48
1, 43920, Note_on_c, 1, 64, 64
1, 43920, Note_on_c, 1, 60, 64
1, 43956, Note_on_c, 1, 60, 0
1, 43956, Note_on_c, 1, 64, 0
1, 43968, Note_on_c, 0, 76, 0
1, 44010, Note_on_c, 0, 79, 48
1, 44034, Note_on_c, 0, 79, 0
1, 44040, Note_on_c, 0, 74, 48
1, 44040, Note_on_c, 1, 55, 64
1, 44040, Note_on_c, 1, 62, 64
1, 44076, Note_on_c, 1, 62, 0
1, 44076, Note_on_c, 1, 55, 0
1, 44088, Note_on_c, 0, 74, 0
1, 44130, Note_on_c, 0, 79, 48
1, 44154, Note_on_c, 0, 79, 0
1, 44160, Note_on_c, 0, 72, 48
1, 44160, Note_on_c, 1, 60, 64
1, 44160, Note_on_c, 1, 52, 64
1, 44208, Note_on_c, 0, 72, 0
1, 44250, Note_on_c, 0, 79, 48
1, 44256, Note_on_c, 1, 52, 0
1, 44256, Note_on_c, 1, 60, 0
1, 44274, Note_on_c, 0, 79, 0
1, 44280, Note_on_c, 0, 67, 48
1, 44328, Note_on_c, 0, 67, 0
1, 44370, Note_on_c, 0, 84, 68
1, 44370, Note_on_c, 1, 60, 80
1, 44394, Note_on_c, 0, 84, 0
1, 44394, Note_on_c, 1, 60, 0
1, 44400, Note_on_c, 0, 79, 68
1, 44400, Note_on_c, 1, 64, 80
1, 44448, Note_on_c, 0, 79, 0
1, 44448, Note_on_c, 1, 64, 0
1, 44490, Note_on_c, 0, 84, 70
1, 44490, Note_on_c, 1, 60, 80
1, 44514, Note_on_c, 0, 84, 0
1, 44514, Note_on_c, 1, 60, 0
1, 44520, Note_on_c, 0, 81, 70
1, 44520, Note_on_c, 1, 65, 80
1, 44568, Note_on_c, 0, 81, 0
1, 44568, Note_on_c, 1, 65, 0
1, 44610, Note_on_c, 0, 84, 72
1, 44610, Note_on_c, 1, 60, 80
1, 44634, Note_on_c, 0, 84, 0
1, 44634, Note_on_c, 1, 60, 0
1, 44640, Note_on_c, 0, 82, 72
1, 44640, Note_on_c, 1, 67, 80
1, 44688, Note_on_c, 0, 82, 0
1, 44688, Note_on_c, 1, 67, 0
1, 44730, Note_on_c, 0, 84, 74
1, 44730, Note_on_c, 1, 60, 80
1, 44754, Note_on_c, 0, 84, 0
1, 44754, Note_on_c, 1, 60, 0
1, 44760, Note_on_c, 0, 81, 74
1, 44760, Note_on_c, 1, 69, 80
1, 44808, Note_on_c, 0, 81, 0
1, 44808, Note_on_c, 1, 69, 0
1, 44850, Note_on_c, 0, 84, 76
1, 44850, Note_on_c, 1, 60, 80
1, 44874, Note_on_c, 0, 84, 0
1, 44874, Note_on_c, 1, 60, 0
1, 44880, Note_on_c, 0, 79, 76
1, 44880, Note_on_c, 1, 70, 80
1, 44928, Note_on_c, 0, 79, 0
1, 44928, Note_on_c, 1, 70, 0
1, 44970, Note_on_c, 0, 84, 78
1, 44970, Note_on_c, 1, 60, 80
1, 44994, Note_on_c, 0, 84, 0
1, 44994, Note_on_c, 1, 60, 0
1, 45000, Note_on_c, 0, 76, 78
1, 45000, Note_on_c, 1, 70, 80
1, 45048, Note_on_c, 0, 76, 0
1, 45048, Note_on_c, 1, 70, 0
1, 45090, Note_on_c, 0, 84, 80
1, 45090, Note_on_c, 1, 60, 80
1, 45114, Note_on_c, 0, 84, 0
1, 45114, Note_on_c, 1, 60, 0
1, 45120, Note_on_c, 0, 77, 80
1, 45120, Note_on_c, 1, 69, 80
1, 45120, Note_on_c, 1, 65, 80
1, 45144, Note_on_c, 0, 77, 0
1, 45150, Note_on_c, 0, 84, 79
1, 45174, Note_on_c, 0, 84, 0
1, 45180, Note_on_c, 0, 86, 79
1, 45204, Note_on_c, 0, 86, 0
1, 45210, Note_on_c, 0, 84, 78
1, 45234, Note_on_c, 0, 84, 0
1, 45240, Note_on_c, 0, 82, 78
1, 45240, Note_on_c, 1, 65, 0
1, 45240, Note_on_c, 1, 69, 0
1, 45264, Note_on_c, 0, 82, 0
1, 45270, Note_on_c, 0, 81, 77
1, 45294, Note_on_c, 0, 81, 0
1, 45300, Note_on_c, 0, 79, 77
1, 45324, Note_on_c, 0, 79, 0
1, 45330, Note_on_c, 0, 77, 76
1, 45354, Note_on_c, 0, 77, 0
1, 45360, Note_on_c, 0, 76, 76
1, 45360, Note_on_c, 1, 60, 76
1, 45360, Note_on_c, 1, 70, 76
1, 45384, Note_on_c, 0, 76, 0
1, 45390, Note_on_c, 0, 79, 75
1, 45414, Note_on_c, 0, 79, 0
1, 45420, Note_on_c, 0, 82, 75
1, 45420, Note_on_c, 1, 70, 0
1, 45420, Note_on_c, 1, 60, 0
1, 45444, Note_on_c, 0, 82, 0
1, 45450, Note_on_c, 0, 86, 74
1, 45474, Note_on_c, 0, 86, 0
1, 45480, Note_on_c, 0, 84, 74
1, 45504, Note_on_c, 0, 84, 0
1, 45510, Note_on_c, 0, 82, 73
1, 45534, Note_on_c, 0, 82, 0
1, 45540, Note_on_c, 0, 81, 73
1, 45564, Note_on_c, 0, 81, 0
1, 45570, Note_on_c, 0, 79, 72
1, 45594, Note_on_c, 0, 79, 0
1, 45600, Note_on_c, 0, 77, 72
1, 45600, Note_on_c, 1, 69, 72
1, 45600, Note_on_c, 1, 65, 72
1, 45600, Note_on_c, 1, 62, 72
1, 45624, Note_on_c, 0, 77, 0
1, 45630, Note_on_c, 0, 76, 71
1, 45654, Note_on_c, 0, 76, 0
1, 45660, Note_on_c, 0, 77, 71
1, 45660, Note_on_c, 1, 62, 0
1, 45660, Note_on_c, 1, 65, 0
1, 45660, Note_on_c, 1, 69, 0
1, 45684, Note_on_c, 0, 77, 0
1, 45690, Note_on_c, 0, 79, 70
1, 45714, Note_on_c, 0, 79, 0
1, 45720, Note_on_c, 0, 81, 70
1, 45744, Note_on_c, 0, 81, 0
1, 45750, Note_on_c, 0, 77, 69
1, 45774, Note_on_c, 0, 77, 0
1, 45780, Note_on_c, 0, 76, 69
1, 45804, Note_on_c, 0, 76, 0
1, 45810, Note_on_c, 0, 74, 68
1, 45834, Note_on_c, 0, 74, 0
1, 45840, Note_on_c, 0, 73, 68
1, 45840, Note_on_c, 1, 67, 68
1, 45840, Note_on_c, 1, 57, 68
1, 45864, Note_on_c, 0, 73, 0
1, 45870, Note_on_c, 0, 76, 67
1, 45894, Note_on_c, 0, 76, 0
1, 45900, Note_on_c, 0, 79, 67
1, 45900, Note_on_c, 1, 57, 0
1, 45900, Note_on_c, 1, 67, 0
1, 45924, Note_on_c, 0, 79, 0
1, 45930, Note_on_c, 0, 82, 66
1, 45954, Note_on_c, 0, 82, 0
1, 45960, Note_on_c, 0, 81, 66
1, 45984, Note_on_c, 0, 81, 0
1, 45990, Note_on_c, 0, 79, 65
1, 46014, Note_on_c, 0, 79, 0
1, 46020, Note_on_c, 0, 77, 65
1, 46044, Note_on_c, 0, 77, 0
1, 46050, Note_on_c, 0, 76, 64
1, 46074, Note_on_c, 0, 76, 0
1, 46080, Note_on_c, 0, 74, 64
1, 46080, Note_on_c, 1, 58, 64
1, 46080, Note_on_c, 1, 65, 64
1, 46104, Note_on_c, 0, 74, 0
1, 46110, Note_on_c, 0, 75, 63
1, 46134, Note_on_c, 0, 75, 0
1, 46140, Note_on_c, 0, 77, 63
1, 46164, Note_on_c, 0, 77, 0
1, 46170, Note_on_c, 0, 79, 62
1, 46194, Note_on_c, 0, 79, 0
1, 46200, Note_on_c, 0, 77, 62
1, 46200, Note_on_c, 1, 65, 0
1, 46200, Note_on_c, 1, 58, 0
1, 46224, Note_on_c, 0, 77, 0
1, 46230, Note_on_c, 0, 74, 61
1, 46254, Note_on_c, 0, 74, 0
1, 46260, Note_on_c, 0, 72, 61
1, 46284, Note_on_c, 0, 72, 0
1, 46290, Note_on_c, 0, 70, 60
1, 46314, Note_on_c, 0, 70, 0
1, 46320, Note_on_c, 0, 69, 60
1, 46320, Note_on_c, 1, 63, 60
1, 46320, Note_on_c, 1, 53, 60
1, 46344, Note_on_c, 0, 69, 0
1, 46350, Note_on_c, 0, 72, 59
1, 46374, Note_on_c, 0, 72, 0
1, 46380, Note_on_c, 0, 75, 59
1, 46380, Note_on_c, 1, 53, 0
1, 46380, Note_on_c, 1, 63, 0
1, 46404, Note_on_c, 0, 75, 0
1, 46410, Note_on_c, 0, 79, 58
1, 46434, Note_on_c, 0, 79, 0
1, 46440, Note_on_c, 0, 77, 58
1, 46464, Note_on_c, 0, 77, 0
1, 46470, Note_on_c, 0, 75, 57
1, 46494, Note_on_c, 0, 75, 0
1, 46500, Note_on_c, 0, 74, 57
1, 46524, Note_on_c, 0, 74, 0
1, 46530, Note_on_c, 0, 72, 56
1, 46554, Note_on_c, 0, 72, 0
1, 46560, Note_on_c, 0, 70, 56
1, 46560, Note_on_c, 1, 62, 56
1, 46560, Note_on_c, 1, 55, 56
1, 46584, Note_on_c, 0, 70, 0
1, 46590, Note_on_c, 0, 69, 55
1, 46614, Note_on_c, 0, 69, 0
1, 46620, Note_on_c, 0, 70, 55
1, 46620, Note_on_c, 1, 55, 0
1, 46620, Note_on_c, 1, 62, 0
1, 46644, Note_on_c, 0, 70, 0
1, 46650, Note_on_c, 0, 72, 54
1, 46674, Note_on_c, 0, 72, 0
1, 46680, Note_on_c, 0, 74, 54
1, 46704, Note_on_c, 0, 74, 0
1, 46710, Note_on_c, 0, 70, 53
1, 46734, Note_on_c, 0, 70, 0
1, 46740, Note_on_c, 0, 69, 53
1, 46764, Note_on_c, 0, 69, 0
1, 46770, Note_on_c, 0, 67, 52
1, 46794, Note_on_c, 0, 67, 0
1, 46800, Note_on_c, 0, 66, 52
1, 46800, Note_on_c, 1, 60, 52
1, 46800, Note_on_c, 1, 50, 52
1, 46824, Note_on_c, 0, 66, 0
1, 46830, Note_on_c, 0, 69, 51
1, 46854, Note_on_c, 0, 69, 0
1, 46860, Note_on_c, 0, 72, 51
1, 46860, Note_on_c, 1, 50, 0
1, 46860, Note_on_c, 1, 60, 0
1, 46884, Note_on_c, 0, 72, 0
1, 46890, Note_on_c, 0, 75, 50
1, 46914, Note_on_c, 0, 75, 0
1, 46920, Note_on_c, 0, 74, 50
1, 46944, Note_on_c, 0, 74, 0
1, 46950, Note_on_c, 0, 72, 49
1, 46974, Note_on_c, 0, 72, 0
1, 46980, Note_on_c, 0, 70, 49
1, 47004, Note_on_c, 0, 70, 0
1, 47010, Note_on_c, 0, 69, 48
1, 47034, Note_on_c, 0, 69, 0
1, 47040, Note_on_c, 0, 67, 48
1, 47040, Note_on_c, 1, 51, 56
1, 47070, Note_on_c, 1, 51, 0
1, 47070, Note_on_c, 1, 55, 56
1, 47100, Note_on_c, 0, 67, 0
1, 47100, Note_on_c, 1, 55, 0
1, 47100, Note_on_c, 1, 51, 56
1, 47130, Note_on_c, 1, 51, 0
1, 47130, Note_on_c, 1, 55, 56
1, 47160, Note_on_c, 0, 70, 90
1, 47160, Note_on_c, 0, 82, 90
1, 47160, Note_on_c, 1, 55, 0
1, 47160, Note_on_c, 1, 51, 56
1, 47190, Note_on_c, 1, 51, 0
1, 47190, Note_on_c, 1, 55, 56
1, 47220, Note_on_c, 1, 55, 0
1, 47220, Note_on_c, 1, 51, 56
1, 47250, Note_on_c, 1, 51, 0
1, 47250, Note_on_c, 1, 55, 56
1, 47280, Note_on_c, 1, 55, 0
1, 47280, Note_on_c, 1, 51, 56
1, 47310, Note_on_c, 1, 51, 0
1, 47310, Note_on_c, 1, 55, 56
1, 47340, Note_on_c, 1, 55, 0
1, 47340, Note_on_c, 1, 51, 56
1, 47370, Note_on_c, 1, 51, 0
1, 47370, Note_on_c, 1, 55, 56
1, 47400, Note_on_c, 0, 82, 0
1, 47400, Note_on_c, 0, 70, 0
1, 47400, Note_on_c, 0, 69, 80
1, 47400, Note_on_c, 0, 81, 80
1, 47400, Note_on_c, 1, 55, 0
1, 47400, Note_on_c, 1, 51, 56
1, 47430, Note_on_c, 1, 51, 0
1, 47430, Note_on_c, 1, 55, 56
1, 47460, Note_on_c, 1, 55, 0
1, 47460, Note_on_c, 1, 51, 56
1, 47490, Note_on_c, 1, 51, 0
1, 47490, Note_on_c, 1, 55, 56
1, 47520, Note_on_c, 0, 81, 0
1, 47520, Note_on_c, 0, 69, 0
1, 47520, Note_on_c, 0, 67, 80
1, 47520, Note_on_c, 0, 79, 80
1, 47520, Note_on_c, 1, 55, 0
1, 47520, Note_on_c, 1, 51, 56
1, 47550, Note_on_c, 1, 51, 0
1, 47550, Note_on_c, 1, 55, 56
1, 47556, Note_on_c, 0, 79, 0
1, 47556, Note_on_c, 0, 67, 0
1, 47580, Note_on_c, 1, 55, 0
1, 47580, Note_on_c, 1, 51, 56
1, 47610, Note_on_c, 1, 51, 0
1, 47610, Note_on_c, 1, 55, 56
1, 47640, Note_on_c, 0, 63, 80
1, 47640, Note_on_c, 0, 75, 80
1, 47640, Note_on_c, 1, 55, 0
1, 47640, Note_on_c, 1, 51, 56
1, 47670, Note_on_c, 1, 51, 0
1, 47670, Note_on_c, 1, 55, 56
1, 47676, Note_on_c, 0, 75, 0
1, 47676, Note_on_c, 0, 63, 0
1, 47700, Note_on_c, 1, 55, 0
1, 47700, Note_on_c, 1, 51, 56
1, 47730, Note_on_c, 1, 51, 0
1, 47730, Note_on_c, 1, 55, 56
1, 47760, Note_on_c, 0, 62, 80
1, 47760, Note_on_c, 0, 74, 80
1, 47760, Note_on_c, 1, 55, 0
1, 47760, Note_on_c, 1, 51, 56
1, 47790, Note_on_c, 1, 51, 0
1, 47790, Note_on_c, 1, 55, 56
1, 47796, Note_on_c, 0, 74, 0
1, 47796, Note_on_c, 0, 62, 0
1, 47820, Note_on_c, 1, 55, 0
1, 47820, Note_on_c, 1, 51, 56
1, 47850, Note_on_c, 1, 51, 0
1, 47850, Note_on_c, 1, 55, 56
1, 47880, Note_on_c, 0, 61, 80
1, 47880, Note_on_c, 0, 73, 80
1, 47880, Note_on_c, 1, 55, 0
1, 47880, Note_on_c, 1, 51, 56
1, 47910, Note_on_c, 1, 51, 0
1, 47910, Note_on_c, 1, 55, 56
1, 47940, Note_on_c, 1, 55, 0
1, 47940, Note_on_c, 1, 51, 56
1, 47970, Note_on_c, 1, 51, 0
1, 47970, Note_on_c, 1, 55, 56
1, 48000, Note_on_c, 0, 73, 0
1, 48000, Note_on_c, 0, 61, 0
1, 48000, Note_on_c, 0, 74, 80
1, 48000, Note_on_c, 1, 55, 0
1, 48000, Note_on_c, 1, 54, 64
1, 48000, Note_on_c, 1, 50, 64
1, 48048, Note_on_c, 0, 74, 0
1, 48060, Note_on_c, 0, 86, 80
1, 48084, Note_on_c, 0, 86, 0
1, 48120, Note_on_c, 0, 85, 80
1, 48144, Note_on_c, 0, 85, 0
1, 48180, Note_on_c, 0, 87, 80
1, 48192, Note_on_c, 1, 54, 0
1, 48204, Note_on_c, 0, 87, 0
1, 48240, Note_on_c, 0, 86, 80
1, 48288, Note_on_c, 0, 86, 0
1, 48300, Note_on_c, 0, 82, 80
1, 48300, Note_on_c, 1, 55, 80
1, 48324, Note_on_c, 0, 82, 0
1, 48324, Note_on_c, 1, 55, 0
1, 48360, Note_on_c, 0, 81, 80
1, 48360, Note_on_c, 1, 54, 80
1, 48384, Note_on_c, 0, 81, 0
1, 48384, Note_on_c, 1, 54, 0
1, 48420, Note_on_c, 0, 84, 80
1, 48420, Note_on_c, 1, 57, 80
1, 48444, Note_on_c, 0, 84, 0
1, 48444, Note_on_c, 1, 57, 0
1, 48480, Note_on_c, 0, 82, 80
1, 48480, Note_on_c, 1, 55, 80
1, 48528, Note_on_c, 0, 82, 0
1, 48528, Note_on_c, 1, 55, 0
1, 48540, Note_on_c, 0, 79, 80
1, 48540, Note_on_c, 1, 58, 80
1, 48564, Note_on_c, 0, 79, 0
1, 48564, Note_on_c, 1, 58, 0
1, 48600, Note_on_c, 0, 78, 80
1, 48600, Note_on_c, 1, 57, 80
1, 48624, Note_on_c, 0, 78, 0
1, 48624, Note_on_c, 1, 57, 0
1, 48660, Note_on_c, 0, 81, 80
1, 48660, Note_on_c, 1, 60, 80
1, 48684, Note_on_c, 0, 81, 0
1, 48684, Note_on_c, 1, 60, 0
1, 48720, Note_on_c, 0, 79, 80
1, 48720, Note_on_c, 1, 58, 80
1, 48768, Note_on_c, 0, 79, 0
1, 48768, Note_on_c, 1, 50, 0
1, 48780, Note_on_c, 0, 75, 80
1, 48816, Note_on_c, 1, 58, 0
1, 48828, Note_on_c, 0, 75, 0
1, 48840, Note_on_c, 0, 74, 80
1, 48840, Note_on_c, 1, 55, 80
1, 48888, Note_on_c, 0, 74, 0
1, 48900, Note_on_c, 0, 73, 80
1, 48936, Note_on_c, 1, 55, 0
1, 48948, Note_on_c, 0, 73, 0
1, 48960, Note_on_c, 0, 74, 48
1, 48960, Note_on_c, 1, 50, 48
1, 48960, Note_on_c, 1, 54, 48
1, 49008, Note_on_c, 0, 74, 0
1, 49020, Note_on_c, 0, 86, 48
1, 49044, Note_on_c, 0, 86, 0
1, 49080, Note_on_c, 0, 85, 48
1, 49104, Note_on_c, 0, 85, 0
1, 49140, Note_on_c, 0, 87, 48
1, 49152, Note_on_c, 1, 54, 0
1, 49152, Note_on_c, 1, 50, 0
1, 49164, Note_on_c, 0, 87, 0
1, 49200, Note_on_c, 0, 86, 48
1, 49248, Note_on_c, 0, 86, 0
1, 49260, Note_on_c, 0, 82, 48
1, 49260, Note_on_c, 1, 67, 48
1, 49284, Note_on_c, 0, 82, 0
1, 49284, Note_on_c, 1, 67, 0
1, 49320, Note_on_c, 0, 81, 48
1, 49320, Note_on_c, 1, 66, 48
1, 49344, Note_on_c, 0, 81, 0
1, 49344, Note_on_c, 1, 66, 0
1, 49380, Note_on_c, 0, 84, 48
1, 49380, Note_on_c, 1, 69, 48
1, 49404, Note_on_c, 0, 84, 0
1, 49404, Note_on_c, 1, 69, 0
1, 49440, Note_on_c, 0, 82, 50
1, 49440, Note_on_c, 1, 67, 48
1, 49488, Note_on_c, 0, 82, 0
1, 49488, Note_on_c, 1, 67, 0
1, 49500, Note_on_c, 0, 79, 57
1, 49500, Note_on_c, 1, 70, 48
1, 49524, Note_on_c, 0, 79, 0
1, 49524, Note_on_c, 1, 70, 0
1, 49560, Note_on_c, 0, 78, 64
1, 49560, Note_on_c, 1, 69, 48
1, 49584, Note_on_c, 0, 78, 0
1, 49584, Note_on_c, 1, 69, 0
1, 49620, Note_on_c, 0, 81, 70
1, 49620, Note_on_c, 1, 72, 48
1, 49644, Note_on_c, 0, 81, 0
1, 49644, Note_on_c, 1, 72, 0
1, 49680, Note_on_c, 0, 79, 77
1, 49680, Note_on_c, 1, 70, 51
1, 49728, Note_on_c, 0, 79, 0
1, 49728, Note_on_c, 1, 70, 0
1, 49740, Note_on_c, 0, 87, 48
1, 49740, Note_on_c, 1, 67, 57
1, 49764, Note_on_c, 0, 87, 0
1, 49764, Note_on_c, 1, 67, 0
1, 49800, Note_on_c, 0, 86, 48
1, 49800, Note_on_c, 1, 66, 64
1, 49824, Note_on_c, 0, 86, 0
1, 49824, Note_on_c, 1, 66, 0
1, 49860, Note_on_c, 0, 84, 48
1, 49860, Note_on_c, 1, 69, 70
1, 49884, Note_on_c, 0, 84, 0
1, 49884, Note_on_c, 1, 69, 0
1, 49920, Note_on_c, 0, 82, 48
1, 49920, Note_on_c, 1, 67, 76
1, 49968, Note_on_c, 0, 82, 0
1, 49968, Note_on_c, 1, 67, 0
1, 49980, Note_on_c, 0, 79, 55
1, 49980, Note_on_c, 1, 75, 48
1, 50028, Note_on_c, 0, 79, 0
1, 50028, Note_on_c, 1, 75, 0
1, 50040, Note_on_c, 0, 78, 63
1, 50040, Note_on_c, 1, 74, 48
1, 50088, Note_on_c, 0, 78, 0
1, 50088, Note_on_c, 1, 74, 0
1, 50100, Note_on_c, 0, 81, 70
1, 50100, Note_on_c, 1, 72, 48
1, 50148, Note_on_c, 0, 81, 0
1, 50148, Note_on_c, 1, 72, 0
1, 50160, Note_on_c, 0, 79, 77
1, 50160, Note_on_c, 1, 70, 50
1, 50208, Note_on_c, 0, 79, 0
1, 50208, Note_on_c, 1, 70, 0
1, 50220, Note_on_c, 0, 87, 48
1, 50220, Note_on_c, 1, 67, 57
1, 50244, Note_on_c, 0, 87, 0
1, 50244, Note_on_c, 1, 67, 0
1, 50280, Note_on_c, 0, 86, 48
1, 50280, Note_on_c, 1, 66, 64
1, 50304, Note_on_c, 0, 86, 0
1, 50304, Note_on_c, 1, 66, 0
1, 50340, Note_on_c, 0, 84, 48
1, 50340, Note_on_c, 1, 69, 71
1, 50364, Note_on_c, 0, 84, 0
1, 50364, Note_on_c, 1, 69, 0
1, 50400, Note_on_c, 0, 82, 48
1, 50400, Note_on_c, 1, 67, 77
1, 50448, Note_on_c, 0, 82, 0
1, 50448, Note_on_c, 1, 67, 0
1, 50460, Note_on_c, 0, 79, 48
1, 50460, Note_on_c, 1, 75, 48
1, 50508, Note_on_c, 0, 79, 0
1, 50508, Note_on_c, 1, 75, 0
1, 50520, Note_on_c, 0, 78, 48
1, 50520, Note_on_c, 1, 74, 48
1, 50568, Note_on_c, 0, 78, 0
1, 50568, Note_on_c, 1, 74, 0
1, 50580, Note_on_c, 0, 81, 48
1, 50580, Note_on_c, 1, 72, 48
1, 50628, Note_on_c, 0, 81, 0
1, 50628, Note_on_c, 1, 72, 0
1, 50640, Note_on_c, 0, 79, 48
1, 50640, Note_on_c, 1, 70, 48
1, 50688, Note_on_c, 0, 79, 0
1, 50688, Note_on_c, 1, 70, 0
1, 50700, Note_on_c, 0, 82, 48
1, 50700, Note_on_c, 1, 67, 48
1, 50724, Note_on_c, 0, 82, 0
1, 50724, Note_on_c, 1, 67, 0
1, 50760, Note_on_c, 0, 76, 48
1, 50760, Note_on_c, 1, 72, 48
1, 50784, Note_on_c, 0, 76, 0
1, 50784, Note_on_c, 1, 72, 0
1, 50820, Note_on_c, 0, 79, 48
1, 50820, Note_on_c, 1, 70, 48
1, 50844, Note_on_c, 0, 79, 0
1, 50844, Note_on_c, 1, 70, 0
1, 50880, Note_on_c, 0, 77, 48
1, 50880, Note_on_c, 1, 68, 48
1, 50928, Note_on_c, 0, 77, 0
1, 50928, Note_on_c, 1, 68, 0
1, 50940, Note_on_c, 0, 80, 48
1, 50940, Note_on_c, 1, 65, 48
1, 50952, Note_on_c, 0, 80, 0
1, 50952, Note_on_c, 1, 65, 0
1, 51000, Note_on_c, 0, 74, 48
1, 51000, Note_on_c, 1, 70, 48
1, 51012, Note_on_c, 0, 74, 0
1, 51012, Note_on_c, 1, 70, 0
1, 51060, Note_on_c, 0, 77, 48
1, 51060, Note_on_c, 1, 68, 48
1, 51072, Note_on_c, 0, 77, 0
1, 51072, Note_on_c, 1, 68, 0
1, 51120, Note_on_c, 0, 75, 48
1, 51120, Note_on_c, 1, 67, 48
1, 51168, Note_on_c, 0, 75, 0
1, 51168, Note_on_c, 1, 67, 0
1, 51180, Note_on_c, 0, 79, 48
1, 51180, Note_on_c, 1, 63, 48
1, 51192, Note_on_c, 0, 79, 0
1, 51192, Note_on_c, 1, 63, 0
1, 51240, Note_on_c, 0, 72, 48
1, 51240, Note_on_c, 1, 68, 48
1, 51252, Note_on_c, 0, 72, 0
1, 51252, Note_on_c, 1, 68, 0
1, 51300, Note_on_c, 0, 75, 48
1, 51300, Note_on_c, 1, 67, 48
1, 51312, Note_on_c, 0, 75, 0
1, 51312, Note_on_c, 1, 67, 0
1, 51360, Note_on_c, 0, 74, 51
1, 51360, Note_on_c, 1, 65, 48
1, 51408, Note_on_c, 0, 74, 0
1, 51408, Note_on_c, 1, 65, 0
1, 51420, Note_on_c, 0, 77, 60
1, 51420, Note_on_c, 1, 62, 48
1, 51444, Note_on_c, 0, 77, 0
1, 51444, Note_on_c, 1, 62, 0
1, 51480, Note_on_c, 0, 71, 68
1, 51480, Note_on_c, 1, 67, 48
1, 51504, Note_on_c, 0, 71, 0
1, 51504, Note_on_c, 1, 67, 0
1, 51540, Note_on_c, 0, 74, 77
1, 51540, Note_on_c, 1, 65, 48
1, 51564, Note_on_c, 0, 74, 0
1, 51564, Note_on_c, 1, 65, 0
1, 51600, Note_on_c, 0, 72, 86
1, 51600, Note_on_c, 1, 63, 50
1, 51648, Note_on_c, 0, 72, 0
1, 51648, Note_on_c, 1, 63, 0
1, 51660, Note_on_c, 0, 80, 48
1, 51660, Note_on_c, 1, 60, 59
1, 51684, Note_on_c, 0, 80, 0
1, 51684, Note_on_c, 1, 60, 0
1, 51720, Note_on_c, 0, 79, 48
1, 51720, Note_on_c, 1, 59, 67
1, 51744, Note_on_c, 0, 79, 0
1, 51744, Note_on_c, 1, 59, 0
1, 51780, Note_on_c, 0, 77, 48
1, 51780, Note_on_c, 1, 62, 76
1, 51804, Note_on_c, 0, 77, 0
1, 51804, Note_on_c, 1, 62, 0
1, 51840, Note_on_c, 0, 75, 48
1, 51840, Note_on_c, 1, 60, 85
1, 51888, Note_on_c, 0, 75, 0
1, 51888, Note_on_c, 1, 60, 0
1, 51900, Note_on_c, 0, 72, 58
1, 51900, Note_on_c, 1, 68, 48
1, 51948, Note_on_c, 0, 72, 0
1, 51948, Note_on_c, 1, 68, 0
1, 51960, Note_on_c, 0, 71, 67
1, 51960, Note_on_c, 1, 67, 48
1, 52008, Note_on_c, 0, 71, 0
1, 52008, Note_on_c, 1, 67, 0
1, 52020, Note_on_c, 0, 74, 77
1, 52020, Note_on_c, 1, 65, 48
1, 52068, Note_on_c, 0, 74, 0
1, 52068, Note_on_c, 1, 65, 0
1, 52080, Note_on_c, 0, 72, 86
1, 52080, Note_on_c, 1, 63, 51
1, 52128, Note_on_c, 0, 72, 0
1, 52128, Note_on_c, 1, 63, 0
1, 52140, Note_on_c, 0, 80, 48
1, 52140, Note_on_c, 1, 60, 59
1, 52164, Note_on_c, 0, 80, 0
1, 52164, Note_on_c, 1, 60, 0
1, 52200, Note_on_c, 0, 79, 48
1, 52200, Note_on_c, 1, 59, 68
1, 52224, Note_on_c, 0, 79, 0
1, 52224, Note_on_c, 1, 59, 0
1, 52260, Note_on_c, 0, 77, 48
1, 52260, Note_on_c, 1, 62, 77
1, 52284, Note_on_c, 0, 77, 0
1, 52284, Note_on_c, 1, 62, 0
1, 52320, Note_on_c, 0, 75, 48
1, 52320, Note_on_c, 1, 60, 85
1, 52368, Note_on_c, 0, 75, 0
1, 52368, Note_on_c, 1, 60, 0
1, 52380, Note_on_c, 0, 72, 48
1, 52380, Note_on_c, 1, 68, 48
1, 52428, Note_on_c, 0, 72, 0
1, 52428, Note_on_c, 1, 68, 0
1, 52440, Note_on_c, 0, 71, 48
1, 52440, Note_on_c, 1, 67, 48
1, 52488, Note_on_c, 0, 71, 0
1, 52488, Note_on_c, 1, 67, 0
1, 52500, Note_on_c, 0, 74, 48
1, 52500, Note_on_c, 1, 65, 48
1, 52548, Note_on_c, 0, 74, 0
1, 52548, Note_on_c, 1, 65, 0
1, 52560, Note_on_c, 0, 72, 48
1, 52560, Note_on_c, 1, 63, 48
1, 52608, Note_on_c, 0, 72, 0
1, 52620, Note_on_c, 0, 79, 48
1, 52644, Note_on_c, 0, 79, 0
1, 52656, Note_on_c, 1, 63, 0
1, 52680, Note_on_c, 0, 71, 48
1, 52704, Note_on_c, 0, 71, 0
1, 52740, Note_on_c, 0, 74, 48
1, 52740, Note_on_c, 1, 65, 48
1, 52740, Note_on_c, 1, 68, 48
1, 52764, Note_on_c, 0, 74, 0
1, 52764, Note_on_c, 1, 68, 0
1, 52764, Note_on_c, 1, 65, 0
1, 52800, Note_on_c, 0, 72, 48
1, 52800, Note_on_c, 1, 63, 48
1, 52800, Note_on_c, 1, 67, 48
1, 52848, Note_on_c, 0, 72, 0
1, 52860, Note_on_c, 0, 79, 50
1, 52872, Note_on_c, 0, 79, 0
1, 52896, Note_on_c, 1, 67, 0
1, 52896, Note_on_c, 1, 63, 0
1, 52920, Note_on_c, 0, 71, 52
1, 52932, Note_on_c, 0, 71, 0
1, 52980, Note_on_c, 0, 74, 54
1, 52980, Note_on_c, 1, 65, 54
1, 52980, Note_on_c, 1, 68, 54
1, 52992, Note_on_c, 0, 74, 0
1, 52992, Note_on_c, 1, 68, 0
1, 52992, Note_on_c, 1, 65, 0
1, 53040, Note_on_c, 0, 72, 56
1, 53040, Note_on_c, 1, 63, 56
1, 53040, Note_on_c, 1, 67, 56
1, 53088, Note_on_c, 0, 72, 0
1, 53100, Note_on_c, 0, 79, 58
1, 53112, Note_on_c, 0, 79, 0
1, 53136, Note_on_c, 1, 67, 0
1, 53136, Note_on_c, 1, 63, 0
1, 53160, Note_on_c, 0, 71, 60
1, 53172, Note_on_c, 0, 71, 0
1, 53220, Note_on_c, 0, 74, 62
1, 53220, Note_on_c, 1, 65, 62
1, 53220, Note_on_c, 1, 68, 62
1, 53232, Note_on_c, 0, 74, 0
1, 53232, Note_on_c, 1, 68, 0
1, 53232, Note_on_c, 1, 65, 0
1, 53280, Note_on_c, 0, 72, 64
1, 53280, Note_on_c, 1, 63, 64
1, 53280, Note_on_c, 1, 67, 64
1, 53328, Note_on_c, 0, 72, 0
1, 53340, Note_on_c, 0, 79, 66
1, 53388, Note_on_c, 0, 79, 0
1, 53400, Note_on_c, 0, 72, 68
1, 53448, Note_on_c, 0, 72, 0
1, 53460, Note_on_c, 0, 79, 70
1, 53508, Note_on_c, 0, 79, 0
1, 53520, Note_on_c, 0, 72, 72
1, 53568, Note_on_c, 0, 72, 0
1, 53580, Note_on_c, 0, 79, 74
1, 53628, Note_on_c, 0, 79, 0
1, 53640, Note_on_c, 0, 72, 76
1, 53664, Note_on_c, 1, 67, 0
1, 53664, Note_on_c, 1, 63, 0
1, 53688, Note_on_c, 0, 72, 0
1, 53700, Note_on_c, 0, 79, 78
1, 53748, Note_on_c, 0, 79, 0
1, 53760, Note_on_c, 0, 72, 48
1, 53760, Note_on_c, 1, 67, 48
1, 53760, Note_on_c, 1, 63, 48
1, 53808, Note_on_c, 0, 72, 0
1, 53808, Note_on_c, 1, 63, 0
1, 53820, Note_on_c, 0, 84, 52
1, 53820, Note_on_c, 0, 79, 52
1, 53820, Note_on_c, 1, 60, 52
1, 53844, Note_on_c, 0, 79, 0
1, 53844, Note_on_c, 0, 84, 0
1, 53844, Note_on_c, 1, 60, 0
1, 53856, Note_on_c, 1, 67, 0
1, 53880, Note_on_c, 0, 72, 57
1, 53880, Note_on_c, 1, 67, 57
1, 53880, Note_on_c, 1, 63, 57
1, 53904, Note_on_c, 0, 72, 0
1, 53904, Note_on_c, 1, 63, 0
1, 53928, Note_on_c, 1, 67, 0
1, 53940, Note_on_c, 0, 84, 61
1, 53940, Note_on_c, 0, 79, 61
1, 53940, Note_on_c, 1, 60, 61
1, 53964, Note_on_c, 0, 79, 0
1, 53964, Note_on_c, 0, 84, 0
1, 53964, Note_on_c, 1, 60, 0
1, 54000, Note_on_c, 0, 72, 65
1, 54000, Note_on_c, 1, 67, 65
1, 54000, Note_on_c, 1, 63, 65
1, 54024, Note_on_c, 0, 72, 0
1, 54024, Note_on_c, 1, 63, 0
1, 54048, Note_on_c, 1, 67, 0
1, 54060, Note_on_c, 0, 84, 70
1, 54060, Note_on_c, 0, 79, 70
1, 54060, Note_on_c, 1, 60, 70
1, 54084, Note_on_c, 0, 79, 0
1, 54084, Note_on_c, 0, 84, 0
1, 54084, Note_on_c, 1, 60, 0
1, 54120, Note_on_c, 0, 72, 74
1, 54120, Note_on_c, 1, 67, 74
1, 54120, Note_on_c, 1, 63, 74
1, 54144, Note_on_c, 0, 72, 0
1, 54144, Note_on_c, 1, 63, 0
1, 54168, Note_on_c, 1, 67, 0
1, 54180, Note_on_c, 0, 84, 78
1, 54180, Note_on_c, 0, 79, 78
1, 54180, Note_on_c, 1, 60, 78
1, 54204, Note_on_c, 0, 79, 0
1, 54204, Note_on_c, 0, 84, 0
1, 54204, Note_on_c, 1, 60, 0
1, 54240, Note_on_c, 0, 84, 48
1, 54240, Note_on_c, 0, 79, 49
1, 54240, Note_on_c, 1, 68, 48
1, 54300, Note_on_c, 1, 68, 0
1, 54300, Note_on_c, 1, 72, 48
1, 54360, Note_on_c, 1, 72, 0
1, 54360, Note_on_c, 1, 68, 48
1, 54420, Note_on_c, 0, 79, 0
1, 54420, Note_on_c, 0, 80, 62
1, 54420, Note_on_c, 1, 68, 0
1, 54420, Note_on_c, 1, 72, 48
1, 54450, Note_on_c, 0, 80, 0
1, 54450, Note_on_c, 0, 79, 64
1, 54480, Note_on_c, 0, 79, 0
1, 54480, Note_on_c, 0, 77, 66
1, 54480, Note_on_c, 1, 72, 0
1, 54480, Note_on_c, 1, 68, 48
1, 54540, Note_on_c, 1, 68, 0
1, 54540, Note_on_c, 1, 72, 48
1, 54600, Note_on_c, 0, 77, 0
1, 54600, Note_on_c, 0, 77, 74
1, 54600, Note_on_c, 1, 72, 0
1, 54600, Note_on_c, 1, 68, 48
1, 54660, Note_on_c, 1, 68, 0
1, 54660, Note_on_c, 1, 72, 48
1, 54720, Note_on_c, 0, 77, 0
1, 54720, Note_on_c, 0, 84, 0
1, 54720, Note_on_c, 0, 85, 48
1, 54720, Note_on_c, 0, 77, 48
1, 54720, Note_on_c, 1, 72, 0
1, 54720, Note_on_c, 1, 67, 48
1, 54780, Note_on_c, 1, 67, 0
1, 54780, Note_on_c, 1, 70, 48
1, 54840, Note_on_c, 1, 70, 0
1, 54840, Note_on_c, 1, 67, 48
1, 54900, Note_on_c, 0, 77, 0
1, 54900, Note_on_c, 0, 79, 61
1, 54900, Note_on_c, 1, 67, 0
1, 54900, Note_on_c, 1, 70, 48
1, 54930, Note_on_c, 0, 79, 0
1, 54930, Note_on_c, 0, 77, 63
1, 54960, Note_on_c, 0, 77, 0
1, 54960, Note_on_c, 0, 76, 65
1, 54960, Note_on_c, 1, 70, 0
1, 54960, Note_on_c, 1, 60, 48
1, 55020, Note_on_c, 1, 60, 0
1, 55020, Note_on_c, 1, 70, 48
1, 55080, Note_on_c, 0, 76, 0
1, 55080, Note_on_c, 0, 85, 0
1, 55080, Note_on_c, 0, 82, 73
1, 55080, Note_on_c, 0, 76, 73
1, 55080, Note_on_c, 1, 70, 0
1, 55080, Note_on_c, 1, 60, 48
1, 55140, Note_on_c, 0, 82, 0
1, 55140, Note_on_c, 0, 79, 77
1, 55140, Note_on_c, 1, 60, 0
1, 55140, Note_on_c, 1, 70, 48
1, 55200, Note_on_c, 0, 79, 0
1, 55200, Note_on_c, 0, 76, 0
1, 55200, Note_on_c, 0, 80, 48
1, 55200, Note_on_c, 1, 70, 0
1, 55200, Note_on_c, 1, 65, 48
1, 55260, Note_on_c, 0, 80, 0
1, 55260, Note_on_c, 0, 72, 48
1, 55320, Note_on_c, 0, 72, 0
1, 55320, Note_on_c, 0, 80, 48
1, 55380, Note_on_c, 0, 80, 0
1, 55380, Note_on_c, 0, 72, 48
1, 55440, Note_on_c, 0, 72, 0
1, 55440, Note_on_c, 0, 80, 48
1, 55440, Note_on_c, 1, 65, 0
1, 55440, Note_on_c, 1, 41, 64
1, 55500, Note_on_c, 0, 80, 0
1, 55500, Note_on_c, 0, 73, 48
1, 55560, Note_on_c, 0, 73, 0
1, 55560, Note_on_c, 0, 80, 48
1, 55620, Note_on_c, 0, 80, 0
1, 55620, Note_on_c, 0, 73, 48
1, 55620, Note_on_c, 1, 41, 0
1, 55620, Note_on_c, 1, 43, 64
1, 55650, Note_on_c, 1, 43, 0
1, 55650, Note_on_c, 1, 41, 64
1, 55680, Note_on_c, 0, 73, 0
1, 55680, Note_on_c, 0, 79, 48
1, 55680, Note_on_c, 1, 41, 0
1, 55680, Note_on_c, 1, 40, 64
1, 55740, Note_on_c, 0, 79, 0
1, 55740, Note_on_c, 0, 73, 48
1, 55800, Note_on_c, 0, 73, 0
1, 55800, Note_on_c, 0, 79, 48
1, 55800, Note_on_c, 1, 40, 0
1, 55860, Note_on_c, 0, 79, 0
1, 55860, Note_on_c, 0, 73, 48
1, 55920, Note_on_c, 0, 73, 0
1, 55920, Note_on_c, 0, 79, 48
1, 55920, Note_on_c, 1, 63, 64
1, 55980, Note_on_c, 0, 79, 0
1, 55980, Note_on_c, 0, 72, 48
1, 56040, Note_on_c, 0, 72, 0
1, 56040, Note_on_c, 0, 79, 48
1, 56100, Note_on_c, 0, 79, 0
1, 56100, Note_on_c, 0, 72, 48
1, 56100, Note_on_c, 1, 63, 0
1, 56100, Note_on_c, 1, 65, 64
1, 56130, Note_on_c, 1, 65, 0
1, 56130, Note_on_c, 1, 63, 64
1, 56160, Note_on_c, 0, 72, 0
1, 56160, Note_on_c, 0, 77, 48
1, 56160, Note_on_c, 1, 63, 0
1, 56160, Note_on_c, 1, 62, 64
1, 56220, Note_on_c, 0, 77, 0
1, 56220, Note_on_c, 0, 72, 48
1, 56280, Note_on_c, 0, 72, 0
1, 56280, Note_on_c, 0, 77, 48
1, 56280, Note_on_c, 1, 62, 0
1, 56340, Note_on_c, 0, 77, 0
1, 56340, Note_on_c, 0, 72, 48
1, 56400, Note_on_c, 0, 72, 0
1, 56400, Note_on_c, 0, 77, 48
1, 56400, Note_on_c, 1, 37, 64
1, 56460, Note_on_c, 0, 77, 0
1, 56460, Note_on_c, 0, 70, 48
1, 56520, Note_on_c, 0, 70, 0
1, 56520, Note_on_c, 0, 77, 48
1, 56580, Note_on_c, 0, 77, 0
1, 56580, Note_on_c, 0, 70, 48
1, 56580, Note_on_c, 1, 37, 0
1, 56580, Note_on_c, 1, 39, 64
1, 56610, Note_on_c, 1, 39, 0
1, 56610, Note_on_c, 1, 37, 64
1, 56640, Note_on_c, 0, 70, 0
1, 56640, Note_on_c, 0, 75, 48
1, 56640, Note_on_c, 1, 37, 0
1, 56640, Note_on_c, 1, 36, 64
1, 56688, Note_on_c, 0, 75, 0
1, 56700, Note_on_c, 0, 70, 50
1, 56736, Note_on_c, 1, 36, 0
1, 56748, Note_on_c, 0, 70, 0
1, 56760, Note_on_c, 0, 75, 52
1, 56808, Note_on_c, 0, 75, 0
1, 56820, Note_on_c, 0, 70, 54
1, 56868, Note_on_c, 0, 70, 0
1, 56880, Note_on_c, 0, 75, 56
1, 56880, Note_on_c, 1, 60, 64
1, 56928, Note_on_c, 0, 75, 0
1, 56940, Note_on_c, 0, 68, 58
1, 56988, Note_on_c, 0, 68, 0
1, 57000, Note_on_c, 0, 75, 60
1, 57024, Note_on_c, 1, 60, 0
1, 57048, Note_on_c, 0, 75, 0
1, 57060, Note_on_c, 0, 68, 62
1, 57060, Note_on_c, 1, 61, 64
1, 57084, Note_on_c, 1, 61, 0
1, 57090, Note_on_c, 1, 60, 64
1, 57108, Note_on_c, 0, 68, 0
1, 57114, Note_on_c, 1, 60, 0
1, 57120, Note_on_c, 0, 73, 64
1, 57120, Note_on_c, 1, 58, 64
1, 57168, Note_on_c, 0, 73, 0
1, 57180, Note_on_c, 0, 68, 66
1, 57216, Note_on_c, 1, 58, 0
1, 57228, Note_on_c, 0, 68, 0
1, 57240, Note_on_c, 0, 73, 68
1, 57288, Note_on_c, 0, 73, 0
1, 57300, Note_on_c, 0, 68, 70
1, 57348, Note_on_c, 0, 68, 0
1, 57360, Note_on_c, 0, 73, 72
1, 57360, Note_on_c, 1, 34, 64
1, 57408, Note_on_c, 0, 73, 0
1, 57420, Note_on_c, 0, 67, 74
1, 57468, Note_on_c, 0, 67, 0
1, 57480, Note_on_c, 0, 73, 76
1, 57504, Note_on_c, 1, 34, 0
1, 57528, Note_on_c, 0, 73, 0
1, 57540, Note_on_c, 0, 67, 78
1, 57540, Note_on_c, 1, 36, 64
1, 57564, Note_on_c, 1, 36, 0
1, 57570, Note_on_c, 1, 34, 64
1, 57588, Note_on_c, 0, 67, 0
1, 57594, Note_on_c, 1, 34, 0
1, 57600, Note_on_c, 0, 72, 80
1, 57600, Note_on_c, 1, 32, 72
1, 57624, Note_on_c, 0, 72, 0
1, 57630, Note_on_c, 0, 75, 80
1, 57654, Note_on_c, 0, 75, 0
1, 57660, Note_on_c, 0, 77, 80
1, 57684, Note_on_c, 0, 77, 0
1, 57690, Note_on_c, 0, 75, 80
1, 57714, Note_on_c, 0, 75, 0
1, 57720, Note_on_c, 0, 73, 80
1, 57744, Note_on_c, 0, 73, 0
1, 57750, Note_on_c, 0, 72, 80
1, 57774, Note_on_c, 0, 72, 0
1, 57780, Note_on_c, 0, 70, 80
1, 57804, Note_on_c, 0, 70, 0
1, 57810, Note_on_c, 0, 68, 80
1, 57834, Note_on_c, 0, 68, 0
1, 57840, Note_on_c, 0, 67, 80
1, 57840, Note_on_c, 1, 32, 0
1, 57840, Note_on_c, 1, 61, 72
1, 57840, Note_on_c, 1, 58, 72
1, 57840, Note_on_c, 1, 51, 72
1, 57864, Note_on_c, 0, 67, 0
1, 57870, Note_on_c, 0, 77, 80
1, 57894, Note_on_c, 0, 77, 0
1, 57900, Note_on_c, 0, 75, 80
1, 57924, Note_on_c, 0, 75, 0
1, 57930, Note_on_c, 0, 73, 80
1, 57954, Note_on_c, 0, 73, 0
1, 57960, Note_on_c, 0, 72, 80
1, 57960, Note_on_c, 1, 51, 0
1, 57960, Note_on_c, 1, 58, 0
1, 57960, Note_on_c, 1, 61, 0
1, 57984, Note_on_c, 0, 72, 0
1, 57990, Note_on_c, 0, 70, 80
1, 58014, Note_on_c, 0, 70, 0
1, 58020, Note_on_c, 0, 68, 80
1, 58044, Note_on_c, 0, 68, 0
1, 58050, Note_on_c, 0, 67, 80
1, 58074, Note_on_c, 0, 67, 0
1, 58080, Note_on_c, 0, 68, 80
1, 58080, Note_on_c, 1, 60, 72
1, 58080, Note_on_c, 1, 56, 72
1, 58104, Note_on_c, 0, 68, 0
1, 58110, Note_on_c, 0, 70, 80
1, 58134, Note_on_c, 0, 70, 0
1, 58140, Note_on_c, 0, 72, 80
1, 58164, Note_on_c, 0, 72, 0
1, 58170, Note_on_c, 0, 73, 80
1, 58194, Note_on_c, 0, 73, 0
1, 58200, Note_on_c, 0, 75, 80
1, 58200, Note_on_c, 1, 56, 0
1, 58200, Note_on_c, 1, 60, 0
1, 58224, Note_on_c, 0, 75, 0
1, 58230, Note_on_c, 0, 77, 80
1, 58254, Note_on_c, 0, 77, 0
1, 58260, Note_on_c, 0, 79, 80
1, 58284, Note_on_c, 0, 79, 0
1, 58290, Note_on_c, 0, 80, 80
1, 58314, Note_on_c, 0, 80, 0
1, 58320, Note_on_c, 0, 82, 80
1, 58320, Note_on_c, 1, 63, 72
1, 58320, Note_on_c, 1, 58, 72
1, 58320, Note_on_c, 1, 55, 72
1, 58344, Note_on_c, 0, 82, 0
1, 58350, Note_on_c, 0, 84, 80
1, 58374, Note_on_c, 0, 84, 0
1, 58380, Note_on_c, 0, 82, 80
1, 58404, Note_on_c, 0, 82, 0
1, 58410, Note_on_c, 0, 80, 80
1, 58434, Note_on_c, 0, 80, 0
1, 58440, Note_on_c, 0, 79, 80
1, 58440, Note_on_c, 1, 55, 0
1, 58440, Note_on_c, 1, 58, 0
1, 58440, Note_on_c, 1, 63, 0
1, 58464, Note_on_c, 0, 79, 0
1, 58470, Note_on_c, 0, 77, 80
1, 58494, Note_on_c, 0, 77, 0
1, 58500, Note_on_c, 0, 75, 80
1, 58524, Note_on_c, 0, 75, 0
1, 58530, Note_on_c, 0, 73, 80
1, 58554, Note_on_c, 0, 73, 0
1, 58560, Note_on_c, 0, 72, 64
1, 58560, Note_on_c, 1, 60, 48
1, 58560, Note_on_c, 1, 56, 48
1, 58560, Note_on_c, 1, 63, 48
1, 58584, Note_on_c, 0, 72, 0
1, 58590, Note_on_c, 0, 75, 64
1, 58614, Note_on_c, 0, 75, 0
1, 58620, Note_on_c, 0, 77, 64
1, 58644, Note_on_c, 0, 77, 0
1, 58650, Note_on_c, 0, 75, 64
1, 58674, Note_on_c, 0, 75, 0
1, 58680, Note_on_c, 0, 73, 64
1, 58704, Note_on_c, 0, 73, 0
1, 58710, Note_on_c, 0, 72, 64
1, 58734, Note_on_c, 0, 72, 0
1, 58740, Note_on_c, 0, 70, 64
1, 58764, Note_on_c, 0, 70, 0
1, 58770, Note_on_c, 0, 68, 64
1, 58794, Note_on_c, 0, 68, 0
1, 58800, Note_on_c, 0, 67, 64
1, 58800, Note_on_c, 1, 63, 0
1, 58800, Note_on_c, 1, 56, 0
1, 58800, Note_on_c, 1, 60, 0
1, 58800, Note_on_c, 1, 63, 48
1, 58800, Note_on_c, 1, 61, 48
1, 58800, Note_on_c, 1, 58, 48
1, 58824, Note_on_c, 0, 67, 0
1, 58830, Note_on_c, 0, 77, 64
1, 58854, Note_on_c, 0, 77, 0
1, 58860, Note_on_c, 0, 75, 64
1, 58884, Note_on_c, 0, 75, 0
1, 58890, Note_on_c, 0, 73, 64
1, 58914, Note_on_c, 0, 73, 0
1, 58920, Note_on_c, 0, 72, 64
1, 58920, Note_on_c, 1, 58, 0
1, 58920, Note_on_c, 1, 61, 0
1, 58920, Note_on_c, 1, 63, 0
1, 58944, Note_on_c, 0, 72, 0
1, 58950, Note_on_c, 0, 70, 64
1, 58974, Note_on_c, 0, 70, 0
1, 58980, Note_on_c, 0, 68, 64
1, 59004, Note_on_c, 0, 68, 0
1, 59010, Note_on_c, 0, 67, 64
1, 59034, Note_on_c, 0, 67, 0
1, 59040, Note_on_c, 0, 68, 64
1, 59040, Note_on_c, 1, 63, 48
1, 59040, Note_on_c, 1, 60, 48
1, 59064, Note_on_c, 0, 68, 0
1, 59070, Note_on_c, 0, 70, 64
1, 59094, Note_on_c, 0, 70, 0
1, 59100, Note_on_c, 0, 72, 64
1, 59124, Note_on_c, 0, 72, 0
1, 59130, Note_on_c, 0, 73, 64
1, 59154, Note_on_c, 0, 73, 0
1, 59160, Note_on_c, 0, 75, 64
1, 59160, Note_on_c, 1, 60, 0
1, 59160, Note_on_c, 1, 63, 0
1, 59184, Note_on_c, 0, 75, 0
1, 59190, Note_on_c, 0, 77, 64
1, 59214, Note_on_c, 0, 77, 0
1, 59220, Note_on_c, 0, 79, 64
1, 59244, Note_on_c, 0, 79, 0
1, 59250, Note_on_c, 0, 80, 64
1, 59274, Note_on_c, 0, 80, 0
1, 59280, Note_on_c, 0, 82, 64
1, 59280, Note_on_c, 1, 63, 48
1, 59280, Note_on_c, 1, 58, 48
1, 59280, Note_on_c, 1, 55, 48
1, 59304, Note_on_c, 0, 82, 0
1, 59310, Note_on_c, 0, 84, 64
1, 59334, Note_on_c, 0, 84, 0
1, 59340, Note_on_c, 0, 82, 64
1, 59364, Note_on_c, 0, 82, 0
1, 59370, Note_on_c, 0, 80, 64
1, 59394, Note_on_c, 0, 80, 0
1, 59400, Note_on_c, 0, 79, 64
1, 59400, Note_on_c, 1, 55, 0
1, 59400, Note_on_c, 1, 58, 0
1, 59400, Note_on_c, 1, 63, 0
1, 59424, Note_on_c, 0, 79, 0
1, 59430, Note_on_c, 0, 77, 64
1, 59454, Note_on_c, 0, 77, 0
1, 59460, Note_on_c, 0, 75, 64
1, 59484, Note_on_c, 0, 75, 0
1, 59490, Note_on_c, 0, 73, 64
1, 59514, Note_on_c, 0, 73, 0
1, 59520, Note_on_c, 0, 72, 64
1, 59520, Note_on_c, 1, 68, 80
1, 59544, Note_on_c, 0, 72, 0
1, 59550, Note_on_c, 0, 73, 64
1, 59574, Note_on_c, 0, 73, 0
1, 59580, Note_on_c, 0, 75, 64
1, 59604, Note_on_c, 0, 75, 0
1, 59610, Note_on_c, 0, 73, 64
1, 59616, Note_on_c, 1, 68, 0
1, 59634, Note_on_c, 0, 73, 0
1, 59640, Note_on_c, 0, 72, 64
1, 59640, Note_on_c, 1, 63, 80
1, 59664, Note_on_c, 0, 72, 0
1, 59670, Note_on_c, 0, 73, 64
1, 59676, Note_on_c, 1, 63, 0
1, 59694, Note_on_c, 0, 73, 0
1, 59700, Note_on_c, 0, 75, 64
1, 59724, Note_on_c, 0, 75, 0
1, 59730, Note_on_c, 0, 73, 64
1, 59754, Note_on_c, 0, 73, 0
1, 59760, Note_on_c, 0, 72, 64
1, 59760, Note_on_c, 1, 60, 80
1, 59784, Note_on_c, 0, 72, 0
1, 59790, Note_on_c, 0, 73, 64
1, 59796, Note_on_c, 1, 60, 0
1, 59814, Note_on_c, 0, 73, 0
1, 59820, Note_on_c, 0, 75, 64
1, 59844, Note_on_c, 0, 75, 0
1, 59850, Note_on_c, 0, 73, 64
1, 59874, Note_on_c, 0, 73, 0
1, 59880, Note_on_c, 0, 72, 64
1, 59880, Note_on_c, 1, 56, 80
1, 59904, Note_on_c, 0, 72, 0
1, 59910, Note_on_c, 0, 73, 64
1, 59916, Note_on_c, 1, 56, 0
1, 59934, Note_on_c, 0, 73, 0
1, 59940, Note_on_c, 0, 75, 64
1, 59964, Note_on_c, 0, 75, 0
1, 59970, Note_on_c, 0, 73, 64
1, 59994, Note_on_c, 0, 73, 0
1, 60000, Note_on_c, 0, 72, 64
1, 60000, Note_on_c, 1, 66, 80
1, 60024, Note_on_c, 0, 72, 0
1, 60030, Note_on_c, 0, 73, 64
1, 60054, Note_on_c, 0, 73, 0
1, 60060, Note_on_c, 0, 75, 64
1, 60084, Note_on_c, 0, 75, 0
1, 60090, Note_on_c, 0, 73, 64
1, 60096, Note_on_c, 1, 66, 0
1, 60114, Note_on_c, 0, 73, 0
1, 60120, Note_on_c, 0, 72, 64
1, 60120, Note_on_c, 1, 63, 80
1, 60144, Note_on_c, 0, 72, 0
1, 60150, Note_on_c, 0, 73, 64
1, 60156, Note_on_c, 1, 63, 0
1, 60174, Note_on_c, 0, 73, 0
1, 60180, Note_on_c, 0, 75, 64
1, 60204, Note_on_c, 0, 75, 0
1, 60210, Note_on_c, 0, 73, 64
1, 60234, Note_on_c, 0, 73, 0
1, 60240, Note_on_c, 0, 72, 64
1, 60240, Note_on_c, 1, 60, 80
1, 60264, Note_on_c, 0, 72, 0
1, 60270, Note_on_c, 0, 73, 64
1, 60276, Note_on_c, 1, 60, 0
1, 60294, Note_on_c, 0, 73, 0
1, 60300, Note_on_c, 0, 75, 64
1, 60324, Note_on_c, 0, 75, 0
1, 60330, Note_on_c, 0, 73, 64
1, 60354, Note_on_c, 0, 73, 0
1, 60360, Note_on_c, 0, 72, 64
1, 60360, Note_on_c, 1, 54, 80
1, 60384, Note_on_c, 0, 72, 0
1, 60390, Note_on_c, 0, 73, 64
1, 60396, Note_on_c, 1, 54, 0
1, 60414, Note_on_c, 0, 73, 0
1, 60420, Note_on_c, 0, 75, 64
1, 60444, Note_on_c, 0, 75, 0
1, 60450, Note_on_c, 0, 73, 64
1, 60474, Note_on_c, 0, 73, 0
1, 60480, Note_on_c, 0, 72, 48
1, 60480, Note_on_c, 1, 30, 80
1, 60480, Note_on_c, 1, 42, 80
1, 60504, Note_on_c, 0, 72, 0
1, 60510, Note_on_c, 0, 74, 50
1, 60534, Note_on_c, 0, 74, 0
1, 60540, Note_on_c, 0, 75, 51
1, 60564, Note_on_c, 0, 75, 0
1, 60570, Note_on_c, 0, 74, 53
1, 60594, Note_on_c, 0, 74, 0
1, 60600, Note_on_c, 0, 72, 55
1, 60624, Note_on_c, 0, 72, 0
1, 60630, Note_on_c, 0, 74, 56
1, 60654, Note_on_c, 0, 74, 0
1, 60660, Note_on_c, 0, 75, 58
1, 60684, Note_on_c, 0, 75, 0
1, 60690, Note_on_c, 0, 74, 59
1, 60714, Note_on_c, 0, 74, 0
1, 60720, Note_on_c, 0, 72, 61
1, 60744, Note_on_c, 0, 72, 0
1, 60750, Note_on_c, 0, 74, 63
1, 60774, Note_on_c, 0, 74, 0
1, 60780, Note_on_c, 0, 75, 64
1, 60804, Note_on_c, 0, 75, 0
1, 60810, Note_on_c, 0, 74, 66
1, 60834, Note_on_c, 0, 74, 0
1, 60840, Note_on_c, 0, 72, 68
1, 60864, Note_on_c, 0, 72, 0
1, 60864, Note_on_c, 1, 42, 0
1, 60864, Note_on_c, 1, 30, 0
1, 60870, Note_on_c, 0, 75, 69
1, 60894, Note_on_c, 0, 75, 0
1, 60900, Note_on_c, 0, 74, 71
1, 60924, Note_on_c, 0, 74, 0
1, 60930, Note_on_c, 0, 72, 72
1, 60954, Note_on_c, 0, 72, 0
1, 60960, Note_on_c, 0, 71, 80
1, 60960, Note_on_c, 1, 31, 80
1, 60960, Note_on_c, 1, 43, 80
1, 60984, Note_on_c, 0, 71, 0
1, 60990, Note_on_c, 0, 67, 80
1, 61014, Note_on_c, 0, 67, 0
1, 61020, Note_on_c, 0, 71, 80
1, 61044, Note_on_c, 0, 71, 0
1, 61050, Note_on_c, 0, 74, 80
1, 61056, Note_on_c, 1, 43, 0
1, 61056, Note_on_c, 1, 31, 0
1, 61074, Note_on_c, 0, 74, 0
1, 61080, Note_on_c, 0, 79, 80
1, 61104, Note_on_c, 0, 79, 0
1, 61110, Note_on_c, 0, 74, 80
1, 61134, Note_on_c, 0, 74, 0
1, 61140, Note_on_c, 0, 71, 80
1, 61164, Note_on_c, 0, 71, 0
1, 61170, Note_on_c, 0, 67, 80
1, 61194, Note_on_c, 0, 67, 0
1, 61200, Note_on_c, 0, 66, 80
1, 61200, Note_on_c, 1, 55, 80
1, 61200, Note_on_c, 1, 51, 80
1, 61200, Note_on_c, 1, 48, 80
1, 61200, Note_on_c, 1, 43, 80
1, 61224, Note_on_c, 0, 66, 0
1, 61230, Note_on_c, 0, 67, 80
1, 61254, Note_on_c, 0, 67, 0
1, 61260, Note_on_c, 0, 72, 80
1, 61284, Note_on_c, 0, 72, 0
1, 61290, Note_on_c, 0, 75, 80
1, 61296, Note_on_c, 1, 43, 0
1, 61296, Note_on_c, 1, 55, 0
1, 61296, Note_on_c, 1, 51, 0
1, 61296, Note_on_c, 1, 48, 0
1, 61314, Note_on_c, 0, 75, 0
1, 61320, Note_on_c, 0, 79, 80
1, 61344, Note_on_c, 0, 79, 0
1, 61350, Note_on_c, 0, 75, 80
1, 61374, Note_on_c, 0, 75, 0
1, 61380, Note_on_c, 0, 72, 80
1, 61404, Note_on_c, 0, 72, 0
1, 61410, Note_on_c, 0, 67, 80
1, 61434, Note_on_c, 0, 67, 0
1, 61440, Note_on_c, 0, 66, 80
1, 61440, Note_on_c, 1, 55, 80
1, 61440, Note_on_c, 1, 50, 80
1, 61440, Note_on_c, 1, 47, 80
1, 61440, Note_on_c, 1, 43, 80
1, 61464, Note_on_c, 0, 66, 0
1, 61470, Note_on_c, 0, 67, 80
1, 61494, Note_on_c, 0, 67, 0
1, 61500, Note_on_c, 0, 71, 80
1, 61524, Note_on_c, 0, 71, 0
1, 61530, Note_on_c, 0, 74, 80
1, 61536, Note_on_c, 1, 43, 0
1, 61536, Note_on_c, 1, 55, 0
1, 61536, Note_on_c, 1, 50, 0
1, 61536, Note_on_c, 1, 47, 0
1, 61554, Note_on_c, 0, 74, 0
1, 61560, Note_on_c, 0, 79, 80
1, 61584, Note_on_c, 0, 79, 0
1, 61590, Note_on_c, 0, 74, 80
1, 61614, Note_on_c, 0, 74, 0
1, 61620, Note_on_c, 0, 71, 80
1, 61644, Note_on_c, 0, 71, 0
1, 61650, Note_on_c, 0, 67, 80
1, 61674, Note_on_c, 0, 67, 0
1, 61680, Note_on_c, 0, 66, 80
1, 61680, Note_on_c, 1, 55, 80
1, 61680, Note_on_c, 1, 51, 80
1, 61680, Note_on_c, 1, 48, 80
1, 61680, Note_on_c, 1, 43, 80
1, 61704, Note_on_c, 0, 66, 0
1, 61710, Note_on_c, 0, 67, 80
1, 61734, Note_on_c, 0, 67, 0
1, 61740, Note_on_c, 0, 72, 80
1, 61764, Note_on_c, 0, 72, 0
1, 61770, Note_on_c, 0, 75, 80
1, 61776, Note_on_c, 1, 43, 0
1, 61776, Note_on_c, 1, 55, 0
1, 61776, Note_on_c, 1, 51, 0
1, 61776, Note_on_c, 1, 48, 0
1, 61794, Note_on_c, 0, 75, 0
1, 61800, Note_on_c, 0, 79, 80
1, 61824, Note_on_c, 0, 79, 0
1, 61830, Note_on_c, 0, 75, 80
1, 61854, Note_on_c, 0, 75, 0
1, 61860, Note_on_c, 0, 72, 80
1, 61884, Note_on_c, 0, 72, 0
1, 61890, Note_on_c, 0, 67, 80
1, 61914, Note_on_c, 0, 67, 0
1, 61920, Note_on_c, 0, 79, 80
1, 61920, Note_on_c, 1, 43, 80
1, 61944, Note_on_c, 1, 43, 0
1, 61950, Note_on_c, 1, 47, 80
1, 61974, Note_on_c, 1, 47, 0
1, 61980, Note_on_c, 1, 50, 80
1, 62004, Note_on_c, 1, 50, 0
1, 62010, Note_on_c, 1, 55, 80
1, 62016, Note_on_c, 0, 79, 0
1, 62034, Note_on_c, 1, 55, 0
1, 62040, Note_on_c, 1, 56, 80
1, 62064, Note_on_c, 1, 56, 0
1, 62070, Note_on_c, 1, 55, 80
1, 62094, Note_on_c, 1, 55, 0
1, 62100, Note_on_c, 1, 50, 80
1, 62124, Note_on_c, 1, 50, 0
1, 62130, Note_on_c, 1, 47, 80
1, 62154, Note_on_c, 1, 47, 0
1, 62160, Note_on_c, 0, 79, 80
1, 62160, Note_on_c, 0, 75, 80
1, 62160, Note_on_c, 0, 72, 80
1, 62160, Note_on_c, 0, 67, 80
1, 62160, Note_on_c, 1, 43, 80
1, 62184, Note_on_c, 1, 43, 0
1, 62190, Note_on_c, 1, 48, 80
1, 62214, Note_on_c, 1, 48, 0
1, 62220, Note_on_c, 1, 51, 80
1, 62244, Note_on_c, 1, 51, 0
1, 62250, Note_on_c, 1, 55, 80
1, 62256, Note_on_c, 0, 67, 0
1, 62256, Note_on_c, 0, 79, 0
1, 62256, Note_on_c, 0, 75, 0
1, 62256, Note_on_c, 0, 72, 0
1, 62274, Note_on_c, 1, 55, 0
1, 62280, Note_on_c, 1, 56, 80
1, 62304, Note_on_c, 1, 56, 0
1, 62310, Note_on_c, 1, 55, 80
1, 62334, Note_on_c, 1, 55, 0
1, 62340, Note_on_c, 1, 51, 80
1, 62364, Note_on_c, 1, 51, 0
1, 62370, Note_on_c, 1, 48, 80
1, 62394, Note_on_c, 1, 48, 0
1, 62400, Note_on_c, 0, 79, 80
1, 62400, Note_on_c, 0, 74, 80
1, 62400, Note_on_c, 0, 71, 80
1, 62400, Note_on_c, 0, 67, 80
1, 62400, Note_on_c, 1, 43, 80
1, 62424, Note_on_c, 1, 43, 0
1, 62430, Note_on_c, 1, 47, 80
1, 62454, Note_on_c, 1, 47, 0
1, 62460, Note_on_c, 1, 50, 80
1, 62484, Note_on_c, 1, 50, 0
1, 62490, Note_on_c, 1, 55, 80
1, 62496, Note_on_c, 0, 67, 0
1, 62496, Note_on_c, 0, 79, 0
1, 62496, Note_on_c, 0, 74, 0
1, 62496, Note_on_c, 0, 71, 0
1, 62514, Note_on_c, 1, 55, 0
1, 62520, Note_on_c, 1, 56, 80
1, 62544, Note_on_c, 1, 56, 0
1, 62550, Note_on_c, 1, 55, 80
1, 62574, Note_on_c, 1, 55, 0
1, 62580, Note_on_c, 1, 50, 80
1, 62604, Note_on_c, 1, 50, 0
1, 62610, Note_on_c, 1, 47, 80
1, 62634, Note_on_c, 1, 47, 0
1, 62640, Note_on_c, 0, 79, 80
1, 62640, Note_on_c, 0, 75, 80
1, 62640, Note_on_c, 0, 72, 80
1, 62640, Note_on_c, 0, 67, 80
1, 62640, Note_on_c, 1, 43, 80
1, 62664, Note_on_c, 1, 43, 0
1, 62670, Note_on_c, 1, 48, 80
1, 62694, Note_on_c, 1, 48, 0
1, 62700, Note_on_c, 1, 51, 80
1, 62724, Note_on_c, 1, 51, 0
1, 62730, Note_on_c, 1, 55, 80
1, 62736, Note_on_c, 0, 67, 0
1, 62736, Note_on_c, 0, 79, 0
1, 62736, Note_on_c, 0, 75, 0
1, 62736, Note_on_c, 0, 72, 0
1, 62754, Note_on_c, 1, 55, 0
1, 62760, Note_on_c, 1, 56, 80
1, 62784, Note_on_c, 1, 56, 0
1, 62790, Note_on_c, 1, 55, 80
1, 62814, Note_on_c, 1, 55, 0
1, 62820, Note_on_c, 1, 51, 80
1, 62844, Note_on_c, 1, 51, 0
1, 62850, Note_on_c, 1, 48, 80
1, 62874, Note_on_c, 1, 48, 0
1, 62880, Note_on_c, 0, 79, 80
1, 62880, Note_on_c, 0, 74, 80
1, 62880, Note_on_c, 0, 71, 80
1, 62880, Note_on_c, 0, 67, 80
1, 62880, Note_on_c, 1, 43, 80
1, 62964, Note_on_c, 0, 67, 0
1, 62964, Note_on_c, 0, 79, 0
1, 62964, Note_on_c, 0, 74, 0
1, 62964, Note_on_c, 0, 71, 0
1, 62964, Note_on_c, 1, 43, 0
1, 63120, Note_on_c, 0, 83, 80
1, 63120, Note_on_c, 0, 79, 80
1, 63120, Note_on_c, 0, 74, 80
1, 63120, Note_on_c, 1, 55, 80
1, 63120, Note_on_c, 1, 50, 80
1, 63120, Note_on_c, 1, 47, 80
1, 63120, Note_on_c, 1, 43, 80
1, 63204, Note_on_c, 0, 74, 0
1, 63204, Note_on_c, 0, 79, 0
1, 63204, Note_on_c, 0, 83, 0
1, 63204, Note_on_c, 1, 43, 0
1, 63204, Note_on_c, 1, 55, 0
1, 63204, Note_on_c, 1, 50, 0
1, 63204, Note_on_c, 1, 47, 0
1, 63360, Note_on_c, 0, 55, 80
1, 63360, Note_on_c, 0, 50, 80
1, 63360, Note_on_c, 0, 47, 80
1, 63360, Note_on_c, 1, 31, 56
1, 63360, Note_on_c, 1, 43, 80
1, 64128, Note_on_c, 0, 47, 0
1, 64128, Note_on_c, 0, 50, 0
1, 64128, Note_on_c, 0, 55, 0
1, 64128, Note_on_c, 1, 43, 0
1, 64128, Note_on_c, 1, 31, 0
1, 64500, Note_on_c, 0, 83, 56
1, 64548, Note_on_c, 0, 83, 0
1, 64560, Note_on_c, 0, 80, 56
1, 64560, Note_on_c, 1, 64, 64
1, 64560, Note_on_c, 1, 68, 64
1, 64596, Note_on_c, 1, 68, 0
1, 64596, Note_on_c, 1, 64, 0
1, 64608, Note_on_c, 0, 80, 0
1, 64650, Note_on_c, 0, 83, 56
1, 64674, Note_on_c, 0, 83, 0
1, 64680, Note_on_c, 0, 78, 56
1, 64680, Note_on_c, 1, 59, 64
1, 64680, Note_on_c, 1, 66, 64
1, 64716, Note_on_c, 1, 66, 0
1, 64716, Note_on_c, 1, 59, 0
1, 64728, Note_on_c, 0, 78, 0
1, 64770, Note_on_c, 0, 83, 56
1, 64794, Note_on_c, 0, 83, 0
1, 64800, Note_on_c, 0, 76, 56
1, 64800, Note_on_c, 1, 56, 64
1, 64800, Note_on_c, 1, 64, 64
1, 64848, Note_on_c, 0, 76, 0
1, 64890, Note_on_c, 0, 83, 56
1, 64896, Note_on_c, 1, 64, 0
1, 64896, Note_on_c, 1, 56, 0
1, 64914, Note_on_c, 0, 83, 0
1, 64920, Note_on_c, 0, 71, 56
1, 64968, Note_on_c, 0, 71, 0
1, 65010, Note_on_c, 0, 83, 40
1, 65034, Note_on_c, 0, 83, 0
1, 65040, Note_on_c, 0, 80, 40
1, 65040, Note_on_c, 1, 64, 48
1, 65040, Note_on_c, 1, 68, 48
1, 65076, Note_on_c, 1, 68, 0
1, 65076, Note_on_c, 1, 64, 0
1, 65088, Note_on_c, 0, 80, 0
1, 65130, Note_on_c, 0, 83, 40
1, 65154, Note_on_c, 0, 83, 0
1, 65160, Note_on_c, 0, 78, 40
1, 65160, Note_on_c, 1, 59, 48
1, 65160, Note_on_c, 1, 66, 48
1, 65196, Note_on_c, 1, 66, 0
1, 65196, Note_on_c, 1, 59, 0
1, 65208, Note_on_c, 0, 78, 0
1, 65250, Note_on_c, 0, 83, 40
1, 65274, Note_on_c, 0, 83, 0
1, 65280, Note_on_c, 0, 76, 40
1, 65280, Note_on_c, 1, 56, 40
1, 65280, Note_on_c, 1, 64, 40
1, 65328, Note_on_c, 0, 76, 0
1, 65370, Note_on_c, 0, 83, 42
1, 65376, Note_on_c, 1, 64, 0
1, 65376, Note_on_c, 1, 56, 0
1, 65394, Note_on_c, 0, 83, 0
1, 65400, Note_on_c, 0, 71, 43
1, 65448, Note_on_c, 0, 71, 0
1, 65490, Note_on_c, 0, 88, 45
1, 65490, Note_on_c, 1, 64, 45
1, 65514, Note_on_c, 0, 88, 0
1, 65514, Note_on_c, 1, 64, 0
1, 65520, Note_on_c, 0, 83, 46
1, 65520, Note_on_c, 1, 68, 46
1, 65568, Note_on_c, 0, 83, 0
1, 65568, Note_on_c, 1, 68, 0
1, 65610, Note_on_c, 0, 88, 48
1, 65610, Note_on_c, 1, 64, 48
1, 65634, Note_on_c, 0, 88, 0
1, 65634, Note_on_c, 1, 64, 0
1, 65640, Note_on_c, 0, 85, 49
1, 65640, Note_on_c, 1, 69, 49
1, 65688, Note_on_c, 0, 85, 0
1, 65688, Note_on_c, 1, 69, 0
1, 65730, Note_on_c, 0, 88, 51
1, 65730, Note_on_c, 1, 64, 51
1, 65754, Note_on_c, 0, 88, 0
1, 65754, Note_on_c, 1, 64, 0
1, 65760, Note_on_c, 0, 86, 52
1, 65760, Note_on_c, 1, 71, 52
1, 65808, Note_on_c, 0, 86, 0
1, 65808, Note_on_c, 1, 71, 0
1, 65850, Note_on_c, 0, 88, 54
1, 65850, Note_on_c, 1, 64, 54
1, 65874, Note_on_c, 0, 88, 0
1, 65874, Note_on_c, 1, 64, 0
1, 65880, Note_on_c, 0, 85, 55
1, 65880, Note_on_c, 1, 73, 55
1, 65928, Note_on_c, 0, 85, 0
1, 65928, Note_on_c, 1, 73, 0
1, 65970, Note_on_c, 0, 88, 57
1, 65970, Note_on_c, 1, 64, 57
1, 65994, Note_on_c, 0, 88, 0
1, 65994, Note_on_c, 1, 64, 0
1, 66000, Note_on_c, 0, 83, 58
1, 66000, Note_on_c, 1, 74, 58
1, 66048, Note_on_c, 0, 83, 0
1, 66048, Note_on_c, 1, 74, 0
1, 66090, Note_on_c, 0, 88, 60
1, 66090, Note_on_c, 1, 64, 60
1, 66114, Note_on_c, 0, 88, 0
1, 66114, Note_on_c, 1, 64, 0
1, 66120, Note_on_c, 0, 80, 61
1, 66120, Note_on_c, 1, 74, 61
1, 66168, Note_on_c, 0, 80, 0
1, 66168, Note_on_c, 1, 74, 0
1, 66210, Note_on_c, 0, 88, 63
1, 66210, Note_on_c, 1, 64, 63
1, 66234, Note_on_c, 0, 88, 0
1, 66234, Note_on_c, 1, 64, 0
1, 66240, Note_on_c, 0, 81, 64
1, 66240, Note_on_c, 1, 73, 64
1, 66288, Note_on_c, 0, 81, 0
1, 66330, Note_on_c, 0, 85, 56
1, 66336, Note_on_c, 1, 73, 0
1, 66354, Note_on_c, 0, 85, 0
1, 66360, Note_on_c, 0, 76, 56
1, 66408, Note_on_c, 0, 76, 0
1, 66450, Note_on_c, 0, 76, 56
1, 66474, Note_on_c, 0, 76, 0
1, 66480, Note_on_c, 0, 73, 56
1, 66480, Note_on_c, 1, 61, 64
1, 66480, Note_on_c, 1, 57, 64
1, 66516, Note_on_c, 1, 57, 0
1, 66516, Note_on_c, 1, 61, 0
1, 66528, Note_on_c, 0, 73, 0
1, 66570, Note_on_c, 0, 76, 56
1, 66594, Note_on_c, 0, 76, 0
1, 66600, Note_on_c, 0, 71, 56
1, 66600, Note_on_c, 1, 59, 64
1, 66600, Note_on_c, 1, 52, 64
1, 66636, Note_on_c, 1, 52, 0
1, 66636, Note_on_c, 1, 59, 0
1, 66648, Note_on_c, 0, 71, 0
1, 66690, Note_on_c, 0, 76, 56
1, 66714, Note_on_c, 0, 76, 0
1, 66720, Note_on_c, 0, 69, 56
1, 66720, Note_on_c, 1, 57, 64
1, 66720, Note_on_c, 1, 49, 64
1, 66768, Note_on_c, 0, 69, 0
1, 66810, Note_on_c, 0, 76, 56
1, 66816, Note_on_c, 1, 49, 0
1, 66816, Note_on_c, 1, 57, 0
1, 66834, Note_on_c, 0, 76, 0
1, 66840, Note_on_c, 0, 64, 56
1, 66888, Note_on_c, 0, 64, 0
1, 66930, Note_on_c, 0, 76, 40
1, 66954, Note_on_c, 0, 76, 0
1, 66960, Note_on_c, 0, 73, 40
1, 66960, Note_on_c, 1, 61, 48
1, 66960, Note_on_c, 1, 57, 48
1, 66996, Note_on_c, 1, 57, 0
1, 66996, Note_on_c, 1, 61, 0
1, 67008, Note_on_c, 0, 73, 0
1, 67050, Note_on_c, 0, 76, 40
1, 67074, Note_on_c, 0, 76, 0
1, 67080, Note_on_c, 0, 71, 40
1, 67080, Note_on_c, 1, 59, 48
1, 67080, Note_on_c, 1, 52, 48
1, 67116, Note_on_c, 1, 52, 0
1, 67116, Note_on_c, 1, 59, 0
1, 67128, Note_on_c, 0, 71, 0
1, 67170, Note_on_c, 0, 76, 40
1, 67194, Note_on_c, 0, 76, 0
1, 67200, Note_on_c, 0, 69, 40
1, 67200, Note_on_c, 1, 57, 48
1, 67200, Note_on_c, 1, 49, 48
1, 67248, Note_on_c, 0, 69, 0
1, 67290, Note_on_c, 0, 76, 42
1, 67296, Note_on_c, 1, 49, 0
1, 67296, Note_on_c, 1, 57, 0
1, 67314, Note_on_c, 0, 76, 0
1, 67320, Note_on_c, 0, 64, 43
1, 67368, Note_on_c, 0, 64, 0
1, 67410, Note_on_c, 0, 81, 45
1, 67434, Note_on_c, 0, 81, 0
1, 67440, Note_on_c, 0, 69, 46
1, 67488, Note_on_c, 0, 69, 0
1, 67530, Note_on_c, 0, 85, 48
1, 67554, Note_on_c, 0, 85, 0
1, 67560, Note_on_c, 0, 73, 49
1, 67608, Note_on_c, 0, 73, 0
1, 67650, Note_on_c, 0, 88, 51
1, 67674, Note_on_c, 0, 88, 0
1, 67680, Note_on_c, 0, 79, 52
1, 67680, Note_on_c, 1, 76, 52
1, 67680, Note_on_c, 1, 73, 52
1, 67728, Note_on_c, 0, 79, 0
1, 67770, Note_on_c, 0, 88, 54
1, 67794, Note_on_c, 0, 88, 0
1, 67800, Note_on_c, 0, 79, 55
1, 67848, Note_on_c, 0, 79, 0
1, 67890, Note_on_c, 0, 88, 57
1, 67914, Note_on_c, 0, 88, 0
1, 67920, Note_on_c, 0, 79, 58
1, 67920, Note_on_c, 1, 73, 0
1, 67920, Note_on_c, 1, 76, 0
1, 67920, Note_on_c, 1, 74, 58
1, 67920, Note_on_c, 1, 71, 58
1, 67968, Note_on_c, 0, 79, 0
1, 68010, Note_on_c, 0, 88, 60
1, 68034, Note_on_c, 0, 88, 0
1, 68040, Note_on_c, 0, 79, 61
1, 68088, Note_on_c, 0, 79, 0
1, 68130, Note_on_c, 0, 88, 63
1, 68154, Note_on_c, 0, 88, 0
1, 68160, Note_on_c, 0, 78, 64
1, 68160, Note_on_c, 1, 71, 0
1, 68160, Note_on_c, 1, 74, 0
1, 68160, Note_on_c, 1, 70, 64
1, 68160, Note_on_c, 1, 73, 64
1, 68208, Note_on_c, 0, 78, 0
1, 68250, Note_on_c, 0, 88, 66
1, 68274, Note_on_c, 0, 88, 0
1, 68280, Note_on_c, 0, 79, 66
1, 68280, Note_on_c, 1, 73, 0
1, 68280, Note_on_c, 1, 70, 0
1, 68280, Note_on_c, 1, 71, 66
1, 68280, Note_on_c, 1, 74, 66
1, 68328, Note_on_c, 0, 79, 0
1, 68370, Note_on_c, 0, 88, 68
1, 68394, Note_on_c, 0, 88, 0
1, 68400, Note_on_c, 0, 78, 68
1, 68400, Note_on_c, 1, 74, 0
1, 68400, Note_on_c, 1, 71, 0
1, 68400, Note_on_c, 1, 70, 68
1, 68400, Note_on_c, 1, 73, 68
1, 68448, Note_on_c, 0, 78, 0
1, 68490, Note_on_c, 0, 88, 70
1, 68514, Note_on_c, 0, 88, 0
1, 68520, Note_on_c, 0, 85, 70
1, 68520, Note_on_c, 1, 73, 0
1, 68520, Note_on_c, 1, 70, 0
1, 68520, Note_on_c, 1, 66, 70
1, 68520, Note_on_c, 1, 70, 70
1, 68592, Note_on_c, 0, 85, 0
1, 68610, Note_on_c, 0, 88, 72
1, 68634, Note_on_c, 0, 88, 0
1, 68640, Note_on_c, 0, 86, 72
1, 68640, Note_on_c, 1, 70, 0
1, 68640, Note_on_c, 1, 66, 0
1, 68640, Note_on_c, 1, 71, 64
1, 68700, Note_on_c, 1, 71, 0
1, 68700, Note_on_c, 1, 74, 64
1, 68760, Note_on_c, 1, 74, 0
1, 68760, Note_on_c, 1, 71, 64
1, 68820, Note_on_c, 1, 71, 0
1, 68820, Note_on_c, 1, 74, 64
1, 68880, Note_on_c, 0, 86, 0
1, 68880, Note_on_c, 0, 79, 80
1, 68880, Note_on_c, 1, 74, 0
1, 68880, Note_on_c, 1, 71, 64
1, 68940, Note_on_c, 1, 71, 0
1, 68940, Note_on_c, 1, 74, 64
1, 69000, Note_on_c, 1, 74, 0
1, 69000, Note_on_c, 1, 71, 64
1, 69060, Note_on_c, 0, 79, 0
1, 69060, Note_on_c, 0, 81, 80
1, 69060, Note_on_c, 1, 71, 0
1, 69060, Note_on_c, 1, 74, 64
1, 69090, Note_on_c, 0, 81, 0
1, 69090, Note_on_c, 0, 79, 80
1, 69120, Note_on_c, 0, 79, 0
1, 69120, Note_on_c, 0, 78, 80
1, 69120, Note_on_c, 1, 74, 0
1, 69120, Note_on_c, 1, 70, 64
1, 69180, Note_on_c, 1, 70, 0
1, 69180, Note_on_c, 1, 73, 64
1, 69240, Note_on_c, 1, 73, 0
1, 69240, Note_on_c, 1, 70, 64
1, 69300, Note_on_c, 1, 70, 0
1, 69300, Note_on_c, 1, 73, 64
1, 69360, Note_on_c, 0, 78, 0
1, 69360, Note_on_c, 0, 77, 80
1, 69360, Note_on_c, 1, 73, 0
1, 69360, Note_on_c, 1, 71, 64
1, 69420, Note_on_c, 1, 71, 0
1, 69420, Note_on_c, 1, 74, 64
1, 69480, Note_on_c, 1, 74, 0
1, 69480, Note_on_c, 1, 71, 64
1, 69540, Note_on_c, 1, 71, 0
1, 69540, Note_on_c, 1, 74, 64
1, 69600, Note_on_c, 0, 77, 0
1, 69600, Note_on_c, 0, 78, 80
1, 69600, Note_on_c, 1, 74, 0
1, 69600, Note_on_c, 1, 70, 64
1, 69660, Note_on_c, 1, 70, 0
1, 69660, Note_on_c, 1, 73, 64
1, 69720, Note_on_c, 1, 73, 0
1, 69720, Note_on_c, 1, 70, 64
1, 69780, Note_on_c, 1, 70, 0
1, 69780, Note_on_c, 1, 73, 64
1, 69840, Note_on_c, 0, 78, 0
1, 69840, Note_on_c, 0, 86, 64
1, 69840, Note_on_c, 1, 73, 0
1, 69840, Note_on_c, 1, 71, 80
1, 69900, Note_on_c, 0, 86, 0
1, 69900, Note_on_c, 0, 79, 64
1, 69960, Note_on_c, 0, 79, 0
1, 69960, Note_on_c, 0, 86, 64
1, 70020, Note_on_c, 0, 86, 0
1, 70020, Note_on_c, 0, 79, 64
1, 70020, Note_on_c, 1, 71, 0
1, 70020, Note_on_c, 1, 73, 80
1, 70050, Note_on_c, 1, 73, 0
1, 70050, Note_on_c, 1, 71, 80
1, 70080, Note_on_c, 0, 79, 0
1, 70080, Note_on_c, 0, 85, 64
1, 70080, Note_on_c, 1, 71, 0
1, 70080, Note_on_c, 1, 70, 80
1, 70140, Note_on_c, 0, 85, 0
1, 70140, Note_on_c, 0, 79, 64
1, 70200, Note_on_c, 0, 79, 0
1, 70200, Note_on_c, 0, 85, 64
1, 70260, Note_on_c, 0, 85, 0
1, 70260, Note_on_c, 0, 79, 64
1, 70320, Note_on_c, 0, 79, 0
1, 70320, Note_on_c, 0, 84, 64
1, 70320, Note_on_c, 1, 70, 0
1, 70320, Note_on_c, 1, 69, 80
1, 70380, Note_on_c, 0, 84, 0
1, 70380, Note_on_c, 0, 78, 64
1, 70440, Note_on_c, 0, 78, 0
1, 70440, Note_on_c, 0, 84, 64
1, 70500, Note_on_c, 0, 84, 0
1, 70500, Note_on_c, 0, 78, 64
1, 70560, Note_on_c, 0, 78, 0
1, 70560, Note_on_c, 0, 83, 64
1, 70560, Note_on_c, 1, 69, 0
1, 70560, Note_on_c, 1, 68, 80
1, 70620, Note_on_c, 0, 83, 0
1, 70620, Note_on_c, 0, 78, 64
1, 70680, Note_on_c, 0, 78, 0
1, 70680, Note_on_c, 0, 83, 64
1, 70740, Note_on_c, 0, 83, 0
1, 70740, Note_on_c, 0, 78, 64
1, 70800, Note_on_c, 0, 78, 0
1, 70800, Note_on_c, 0, 83, 64
1, 70800, Note_on_c, 1, 68, 0
1, 70800, Note_on_c, 1, 67, 80
1, 70860, Note_on_c, 0, 83, 0
1, 70860, Note_on_c, 0, 76, 64
1, 70920, Note_on_c, 0, 76, 0
1, 70920, Note_on_c, 0, 83, 64
1, 70980, Note_on_c, 0, 83, 0
1, 70980, Note_on_c, 0, 76, 64
1, 70980, Note_on_c, 1, 67, 0
1, 70980, Note_on_c, 1, 69, 80
1, 71010, Note_on_c, 1, 69, 0
1, 71010, Note_on_c, 1, 67, 80
1, 71040, Note_on_c, 0, 76, 0
1, 71040, Note_on_c, 0, 82, 64
1, 71040, Note_on_c, 1, 67, 0
1, 71040, Note_on_c, 1, 66, 80
1, 71100, Note_on_c, 0, 82, 0
1, 71100, Note_on_c, 0, 76, 64
1, 71160, Note_on_c, 0, 76, 0
1, 71160, Note_on_c, 0, 82, 64
1, 71220, Note_on_c, 0, 82, 0
1, 71220, Note_on_c, 0, 76, 64
1, 71280, Note_on_c, 0, 76, 0
1, 71280, Note_on_c, 0, 82, 64
1, 71340, Note_on_c, 0, 82, 0
1, 71340, Note_on_c, 0, 76, 64
1, 71400, Note_on_c, 0, 76, 0
1, 71400, Note_on_c, 0, 83, 64
1, 71400, Note_on_c, 1, 66, 0
1, 71400, Note_on_c, 1, 67, 80
1, 71460, Note_on_c, 0, 83, 0
1, 71460, Note_on_c, 0, 76, 64
1, 71520, Note_on_c, 0, 76, 0
1, 71520, Note_on_c, 0, 82, 64
1, 71520, Note_on_c, 1, 67, 0
1, 71520, Note_on_c, 1, 66, 80
1, 71580, Note_on_c, 0, 82, 0
1, 71580, Note_on_c, 0, 76, 64
1, 71640, Note_on_c, 0, 76, 0
1, 71640, Note_on_c, 0, 82, 64
1, 71700, Note_on_c, 0, 82, 0
1, 71700, Note_on_c, 0, 76, 64
1, 71760, Note_on_c, 0, 76, 0
1, 71760, Note_on_c, 0, 82, 64
1, 71820, Note_on_c, 0, 82, 0
1, 71820, Note_on_c, 0, 76, 64
1, 71880, Note_on_c, 0, 76, 0
1, 71880, Note_on_c, 0, 83, 64
1, 71880, Note_on_c, 1, 66, 0
1, 71880, Note_on_c, 1, 67, 80
1, 71940, Note_on_c, 0, 83, 0
1, 71940, Note_on_c, 0, 76, 64
1, 72000, Note_on_c, 0, 76, 0
1, 72000, Note_on_c, 0, 82, 64
1, 72000, Note_on_c, 1, 67, 0
1, 72000, Note_on_c, 1, 66, 80
1, 72060, Note_on_c, 0, 82, 0
1, 72060, Note_on_c, 0, 76, 62
1, 72120, Note_on_c, 0, 76, 0
1, 72120, Note_on_c, 0, 82, 61
1, 72180, Note_on_c, 0, 82, 0
1, 72180, Note_on_c, 0, 76, 59
1, 72240, Note_on_c, 0, 76, 0
1, 72240, Note_on_c, 0, 82, 58
1, 72300, Note_on_c, 0, 82, 0
1, 72300, Note_on_c, 0, 76, 56
1, 72360, Note_on_c, 0, 76, 0
1, 72360, Note_on_c, 0, 82, 55
1, 72420, Note_on_c, 0, 82, 0
1, 72420, Note_on_c, 0, 76, 53
1, 72480, Note_on_c, 0, 76, 0
1, 72480, Note_on_c, 0, 81, 52
1, 72480, Note_on_c, 1, 66, 0
1, 72480, Note_on_c, 1, 65, 68
1, 72540, Note_on_c, 0, 81, 0
1, 72540, Note_on_c, 0, 75, 50
1, 72600, Note_on_c, 0, 75, 0
1, 72600, Note_on_c, 0, 81, 49
1, 72660, Note_on_c, 0, 81, 0
1, 72660, Note_on_c, 0, 75, 47
1, 72720, Note_on_c, 0, 75, 0
1, 72720, Note_on_c, 0, 81, 46
1, 72780, Note_on_c, 0, 81, 0
1, 72780, Note_on_c, 0, 75, 44
1, 72840, Note_on_c, 0, 75, 0
1, 72840, Note_on_c, 0, 81, 43
1, 72900, Note_on_c, 0, 81, 0
1, 72900, Note_on_c, 0, 75, 41
1, 72960, Note_on_c, 0, 75, 0
1, 72960, Note_on_c, 0, 80, 40
1, 72960, Note_on_c, 1, 65, 0
1, 72960, Note_on_c, 1, 58, 56
1, 72960, Note_on_c, 1, 65, 56
1, 73020, Note_on_c, 0, 80, 0
1, 73020, Note_on_c, 0, 74, 40
1, 73080, Note_on_c, 0, 74, 0
1, 73080, Note_on_c, 0, 80, 40
1, 73140, Note_on_c, 0, 80, 0
1, 73140, Note_on_c, 0, 74, 40
1, 73200, Note_on_c, 0, 74, 0
1, 73200, Note_on_c, 0, 80, 40
1, 73260, Note_on_c, 0, 80, 0
1, 73260, Note_on_c, 0, 74, 40
1, 73320, Note_on_c, 0, 74, 0
1, 73320, Note_on_c, 0, 80, 40
1, 73320, Note_on_c, 1, 58, 0
1, 73320, Note_on_c, 1, 59, 56
1, 73380, Note_on_c, 0, 80, 0
1, 73380, Note_on_c, 0, 75, 40
1, 73440, Note_on_c, 0, 75, 0
1, 73440, Note_on_c, 0, 80, 40
1, 73440, Note_on_c, 1, 59, 0
1, 73440, Note_on_c, 1, 65, 0
1, 73440, Note_on_c, 1, 58, 56
1, 73440, Note_on_c, 1, 65, 56
1, 73500, Note_on_c, 0, 80, 0
1, 73500, Note_on_c, 0, 74, 40
1, 73560, Note_on_c, 0, 74, 0
1, 73560, Note_on_c, 0, 80, 40
1, 73620, Note_on_c, 0, 80, 0
1, 73620, Note_on_c, 0, 74, 40
1, 73680, Note_on_c, 0, 74, 0
1, 73680, Note_on_c, 0, 80, 40
1, 73740, Note_on_c, 0, 80, 0
1, 73740, Note_on_c, 0, 74, 40
1, 73800, Note_on_c, 0, 74, 0
1, 73800, Note_on_c, 0, 80, 40
1, 73800, Note_on_c, 1, 58, 0
1, 73800, Note_on_c, 1, 59, 56
1, 73860, Note_on_c, 0, 80, 0
1, 73860, Note_on_c, 0, 75, 40
1, 73920, Note_on_c, 0, 75, 0
1, 73920, Note_on_c, 0, 80, 40
1, 73920, Note_on_c, 1, 59, 0
1, 73920, Note_on_c, 1, 65, 0
1, 73920, Note_on_c, 1, 58, 56
1, 73920, Note_on_c, 1, 65, 56
1, 73968, Note_on_c, 0, 80, 0
1, 73980, Note_on_c, 0, 74, 43
1, 74028, Note_on_c, 0, 74, 0
1, 74040, Note_on_c, 0, 77, 45
1, 74088, Note_on_c, 0, 77, 0
1, 74100, Note_on_c, 0, 68, 48
1, 74148, Note_on_c, 0, 68, 0
1, 74160, Note_on_c, 0, 72, 50
1, 74208, Note_on_c, 0, 72, 0
1, 74220, Note_on_c, 0, 65, 53
1, 74268, Note_on_c, 0, 65, 0
1, 74280, Note_on_c, 0, 68, 55
1, 74304, Note_on_c, 1, 65, 0
1, 74304, Note_on_c, 1, 58, 0
1, 74328, Note_on_c, 0, 68, 0
1, 74340, Note_on_c, 0, 62, 58
1, 74388, Note_on_c, 0, 62, 0
1, 74400, Note_on_c, 0, 65, 60
1, 74448, Note_on_c, 0, 65, 0
1, 74460, Note_on_c, 0, 56, 63
1, 74508, Note_on_c, 0, 56, 0
1, 74520, Note_on_c, 0, 60, 65
1, 74568, Note_on_c, 0, 60, 0
1, 74580, Note_on_c, 0, 53, 68
1, 74628, Note_on_c, 0, 53, 0
1, 74640, Note_on_c, 0, 56, 70
1, 74688, Note_on_c, 0, 56, 0
1, 74700, Note_on_c, 1, 46, 76
1, 74748, Note_on_c, 1, 46, 0
1, 74760, Note_on_c, 1, 48, 77
1, 74808, Note_on_c, 1, 48, 0
1, 74820, Note_on_c, 1, 50, 79
1, 74868, Note_on_c, 1, 50, 0
1, 74880, Note_on_c, 1, 39, 76
1, 74895, Note_on_c, 1, 43, 76
1, 74910, Note_on_c, 1, 46, 76
1, 74925, Note_on_c, 1, 51, 76
1, 74940, Note_on_c, 0, 55, 76
1, 74955, Note_on_c, 0, 58, 76
1, 74970, Note_on_c, 0, 63, 76
1, 75120, Note_on_c, 0, 63, 0
1, 75120, Note_on_c, 0, 58, 0
1, 75120, Note_on_c, 0, 55, 0
1, 75120, Note_on_c, 0, 67, 76
1, 75120, Note_on_c, 0, 61, 76
1, 75120, Note_on_c, 0, 63, 76
1, 75120, Note_on_c, 1, 51, 0
1, 75120, Note_on_c, 1, 39, 0
1, 75120, Note_on_c, 1, 43, 0
1, 75120, Note_on_c, 1, 46, 0
1, 75120, Note_on_c, 1, 49, 76
1, 75120, Note_on_c, 1, 39, 76
1, 75120, Note_on_c, 1, 43, 76
1, 75120, Note_on_c, 1, 46, 76
1, 75300, Note_on_c, 0, 63, 0
1, 75300, Note_on_c, 0, 61, 0
1, 75300, Note_on_c, 0, 67, 0
1, 75300, Note_on_c, 0, 67, 76
1, 75300, Note_on_c, 0, 63, 76
1, 75300, Note_on_c, 0, 61, 76
1, 75300, Note_on_c, 1, 46, 0
1, 75300, Note_on_c, 1, 49, 0
1, 75300, Note_on_c, 1, 39, 0
1, 75300, Note_on_c, 1, 43, 0
1, 75300, Note_on_c, 1, 49, 76
1, 75300, Note_on_c, 1, 46, 76
1, 75300, Note_on_c, 1, 43, 76
1, 75300, Note_on_c, 1, 39, 76
1, 75360, Note_on_c, 0, 61, 0
1, 75360, Note_on_c, 0, 63, 0
1, 75360, Note_on_c, 0, 67, 0
1, 75360, Note_on_c, 0, 60, 76
1, 75360, Note_on_c, 1, 39, 0
1, 75360, Note_on_c, 1, 49, 0
1, 75360, Note_on_c, 1, 46, 0
1, 75360, Note_on_c, 1, 43, 0
1, 75360, Note_on_c, 1, 44, 76
1, 75360, Note_on_c, 1, 48, 76
1, 75360, Note_on_c, 1, 39, 76
1, 75375, Note_on_c, 0, 63, 76
1, 75390, Note_on_c, 0, 68, 76
1, 75720, Note_on_c, 0, 63, 0
1, 75720, Note_on_c, 0, 60, 0
1, 75720, Note_on_c, 1, 39, 0
1, 75720, Note_on_c, 1, 48, 0
1, 75720, Note_on_c, 1, 44, 0
1, 75750, Note_on_c, 0, 68, 0
1, 75750, Note_on_c, 0, 67, 76
1, 75765, Note_on_c, 1, 39, 76
1, 75780, Note_on_c, 0, 67, 0
1, 75780, Note_on_c, 0, 65, 76
1, 75780, Note_on_c, 1, 41, 76
1, 75795, Note_on_c, 1, 46, 76
1, 75810, Note_on_c, 0, 65, 0
1, 75810, Note_on_c, 0, 63, 76
1, 75810, Note_on_c, 1, 50, 76
1, 75840, Note_on_c, 0, 63, 0
1, 75840, Note_on_c, 0, 62, 76
1, 75840, Note_on_c, 0, 56, 76
1, 75840, Note_on_c, 0, 58, 76
1, 75960, Note_on_c, 0, 58, 0
1, 75960, Note_on_c, 0, 56, 0
1, 75960, Note_on_c, 1, 50, 0
1, 75960, Note_on_c, 1, 39, 0
1, 75960, Note_on_c, 1, 41, 0
1, 75960, Note_on_c, 1, 46, 0
1, 76020, Note_on_c, 0, 62, 0
1, 76020, Note_on_c, 0, 65, 76
1, 76080, Note_on_c, 0, 65, 0
1, 76080, Note_on_c, 0, 70, 76
1, 76080, Note_on_c, 1, 39, 76
1, 76080, Note_on_c, 1, 41, 76
1, 76080, Note_on_c, 1, 44, 76
1, 76080, Note_on_c, 1, 50, 76
1, 76080, Note_on_c, 1, 62, 76
1, 76080, Note_on_c, 1, 65, 76
1, 76200, Note_on_c, 1, 65, 0
1, 76200, Note_on_c, 1, 41, 0
1, 76200, Note_on_c, 1, 44, 0
1, 76200, Note_on_c, 1, 39, 0
1, 76200, Note_on_c, 1, 62, 0
1, 76200, Note_on_c, 1, 50, 0
1, 76260, Note_on_c, 0, 70, 0
1, 76260, Note_on_c, 0, 68, 76
1, 76260, Note_on_c, 1, 39, 76
1, 76275, Note_on_c, 1, 43, 76
1, 76290, Note_on_c, 1, 46, 76
1, 76305, Note_on_c, 1, 51, 76
1, 76320, Note_on_c, 0, 68, 0
1, 76320, Note_on_c, 0, 67, 76
1, 76320, Note_on_c, 0, 63, 76
1, 76320, Note_on_c, 0, 58, 76
1, 76320, Note_on_c, 1, 51, 0
1, 76320, Note_on_c, 1, 43, 0
1, 76320, Note_on_c, 1, 51, 76
1, 76320, Note_on_c, 1, 43, 76
1, 76560, Note_on_c, 0, 58, 0
1, 76560, Note_on_c, 0, 63, 0
1, 76560, Note_on_c, 0, 67, 0
1, 76560, Note_on_c, 1, 43, 0
1, 76560, Note_on_c, 1, 39, 0
1, 76560, Note_on_c, 1, 46, 0
1, 76560, Note_on_c, 1, 51, 0
1, 76800, Note_on_c, 0, 74, 48
1, 76800, Note_on_c, 1, 68, 48
1, 76800, Note_on_c, 1, 65, 48
1, 76800, Note_on_c, 1, 58, 48
1, 76920, Note_on_c, 1, 58, 0
1, 76920, Note_on_c, 1, 65, 0
1, 76920, Note_on_c, 1, 68, 0
1, 76980, Note_on_c, 0, 74, 0
1, 76980, Note_on_c, 0, 77, 48
1, 77040, Note_on_c, 0, 77, 0
1, 77040, Note_on_c, 0, 82, 48
1, 77040, Note_on_c, 1, 68, 48
1, 77040, Note_on_c, 1, 65, 48
1, 77040, Note_on_c, 1, 58, 48
1, 77160, Note_on_c, 1, 58, 0
1, 77160, Note_on_c, 1, 65, 0
1, 77160, Note_on_c, 1, 68, 0
1, 77220, Note_on_c, 0, 82, 0
1, 77220, Note_on_c, 0, 80, 48
1, 77220, Note_on_c, 1, 62, 48
1, 77280, Note_on_c, 0, 80, 0
1, 77280, Note_on_c, 0, 79, 48
1, 77280, Note_on_c, 1, 62, 0
1, 77280, Note_on_c, 1, 63, 48
1, 77376, Note_on_c, 0, 79, 0
1, 77376, Note_on_c, 1, 63, 0
1, 77580, Note_on_c, 0, 80, 48
1, 77580, Note_on_c, 0, 84, 48
1, 77580, Note_on_c, 1, 58, 48
1, 77598, Note_on_c, 0, 84, 0
1, 77598, Note_on_c, 0, 80, 0
1, 77598, Note_on_c, 1, 58, 0
1, 77640, Note_on_c, 0, 79, 48
1, 77640, Note_on_c, 0, 82, 48
1, 77640, Note_on_c, 1, 60, 48
1, 77658, Note_on_c, 0, 82, 0
1, 77658, Note_on_c, 0, 79, 0
1, 77658, Note_on_c, 1, 60, 0
1, 77700, Note_on_c, 0, 80, 48
1, 77700, Note_on_c, 0, 77, 48
1, 77700, Note_on_c, 1, 62, 48
1, 77718, Note_on_c, 0, 77, 0
1, 77718, Note_on_c, 0, 80, 0
1, 77718, Note_on_c, 1, 62, 0
1, 77760, Note_on_c, 0, 79, 48
1, 77760, Note_on_c, 0, 75, 48
1, 77760, Note_on_c, 1, 63, 48
1, 77880, Note_on_c, 0, 75, 0
1, 77880, Note_on_c, 0, 79, 0
1, 77880, Note_on_c, 1, 63, 0
1, 78060, Note_on_c, 0, 84, 80
1, 78060, Note_on_c, 0, 80, 80
1, 78060, Note_on_c, 1, 58, 80
1, 78078, Note_on_c, 0, 80, 0
1, 78078, Note_on_c, 0, 84, 0
1, 78078, Note_on_c, 1, 58, 0
1, 78120, Note_on_c, 0, 82, 80
1, 78120, Note_on_c, 0, 79, 80
1, 78120, Note_on_c, 1, 60, 80
1, 78138, Note_on_c, 0, 79, 0
1, 78138, Note_on_c, 0, 82, 0
1, 78138, Note_on_c, 1, 60, 0
1, 78180, Note_on_c, 0, 80, 80
1, 78180, Note_on_c, 0, 77, 80
1, 78180, Note_on_c, 1, 62, 80
1, 78198, Note_on_c, 0, 77, 0
1, 78198, Note_on_c, 0, 80, 0
1, 78198, Note_on_c, 1, 62, 0
1, 78240, Note_on_c, 0, 75, 80
1, 78240, Note_on_c, 0, 79, 80
1, 78240, Note_on_c, 1, 63, 80
1, 78360, Note_on_c, 0, 79, 0
1, 78360, Note_on_c, 0, 75, 0
1, 78360, Note_on_c, 1, 63, 0
1, 78540, Note_on_c, 0, 84, 80
1, 78540, Note_on_c, 0, 80, 80
1, 78558, Note_on_c, 0, 80, 0
1, 78558, Note_on_c, 0, 84, 0
1, 78600, Note_on_c, 0, 82, 80
1, 78600, Note_on_c, 0, 79, 80
1, 78618, Note_on_c, 0, 79, 0
1, 78618, Note_on_c, 0, 82, 0
1, 78660, Note_on_c, 0, 80, 80
1, 78660, Note_on_c, 0, 77, 80
1, 78678, Note_on_c, 0, 77, 0
1, 78678, Note_on_c, 0, 80, 0
1, 78720, Note_on_c, 0, 79, 80
1, 78720, Note_on_c, 0, 75, 80
1, 78780, Note_on_c, 0, 75, 0
1, 78780, Note_on_c, 0, 79, 0
1, 78780, Note_on_c, 0, 84, 79
1, 78780, Note_on_c, 0, 80, 79
1, 78798, Note_on_c, 0, 80, 0
1, 78798, Note_on_c, 0, 84, 0
1, 78840, Note_on_c, 0, 82, 78
1, 78840, Note_on_c, 0, 79, 78
1, 78858, Note_on_c, 0, 79, 0
1, 78858, Note_on_c, 0, 82, 0
1, 78900, Note_on_c, 0, 80, 77
1, 78900, Note_on_c, 0, 77, 77
1, 78918, Note_on_c, 0, 77, 0
1, 78918, Note_on_c, 0, 80, 0
1, 78960, Note_on_c, 0, 79, 76
1, 78960, Note_on_c, 0, 75, 76
1, 79020, Note_on_c, 0, 75, 0
1, 79020, Note_on_c, 0, 79, 0
1, 79020, Note_on_c, 0, 82, 75
1, 79020, Note_on_c, 0, 79, 75
1, 79050, Note_on_c, 0, 79, 0
1, 79050, Note_on_c, 0, 82, 0
1, 79080, Note_on_c, 0, 80, 74
1, 79080, Note_on_c, 0, 77, 74
1, 79110, Note_on_c, 0, 77, 0
1, 79110, Note_on_c, 0, 80, 0
1, 79140, Note_on_c, 0, 79, 73
1, 79140, Note_on_c, 0, 75, 73
1, 79170, Note_on_c, 0, 75, 0
1, 79170, Note_on_c, 0, 79, 0
1, 79200, Note_on_c, 0, 77, 72
1, 79200, Note_on_c, 0, 74, 72
1, 79260, Note_on_c, 0, 74, 0
1, 79260, Note_on_c, 0, 77, 0
1, 79260, Note_on_c, 0, 75, 71
1, 79260, Note_on_c, 0, 72, 71
1, 79320, Note_on_c, 0, 72, 0
1, 79320, Note_on_c, 0, 75, 0
1, 79320, Note_on_c, 0, 74, 70
1, 79320, Note_on_c, 0, 70, 70
1, 79380, Note_on_c, 0, 70, 0
1, 79380, Note_on_c, 0, 74, 0
1, 79380, Note_on_c, 0, 72, 69
1, 79380, Note_on_c, 0, 68, 69
1, 79440, Note_on_c, 0, 68, 0
1, 79440, Note_on_c, 0, 72, 0
1, 79440, Note_on_c, 0, 70, 68
1, 79440, Note_on_c, 0, 67, 68
1, 79500, Note_on_c, 0, 67, 0
1, 79500, Note_on_c, 0, 70, 0
1, 79500, Note_on_c, 0, 68, 67
1, 79500, Note_on_c, 0, 65, 67
1, 79560, Note_on_c, 0, 65, 0
1, 79560, Note_on_c, 0, 68, 0
1, 79560, Note_on_c, 0, 67, 66
1, 79560, Note_on_c, 0, 63, 66
1, 79620, Note_on_c, 0, 63, 0
1, 79620, Note_on_c, 0, 67, 0
1, 79620, Note_on_c, 0, 65, 65
1, 79620, Note_on_c, 0, 62, 65
1, 79680, Note_on_c, 0, 62, 0
1, 79680, Note_on_c, 0, 65, 0
1, 79680, Note_on_c, 0, 63, 64
1, 79680, Note_on_c, 1, 48, 40
1, 79740, Note_on_c, 1, 48, 0
1, 79740, Note_on_c, 1, 56, 40
1, 79800, Note_on_c, 1, 56, 0
1, 79800, Note_on_c, 1, 48, 40
1, 79860, Note_on_c, 1, 48, 0
1, 79860, Note_on_c, 1, 56, 40
1, 79920, Note_on_c, 1, 56, 0
1, 79920, Note_on_c, 1, 48, 40
1, 79980, Note_on_c, 1, 48, 0
1, 79980, Note_on_c, 1, 56, 40
1, 80040, Note_on_c, 1, 56, 0
1, 80040, Note_on_c, 1, 48, 40
1, 80064, Note_on_c, 0, 63, 0
1, 80100, Note_on_c, 0, 65, 64
1, 80100, Note_on_c, 1, 48, 0
1, 80100, Note_on_c, 1, 56, 40
1, 80124, Note_on_c, 0, 65, 0
1, 80130, Note_on_c, 0, 63, 64
1, 80154, Note_on_c, 0, 63, 0
1, 80160, Note_on_c, 0, 62, 64
1, 80160, Note_on_c, 1, 56, 0
1, 80160, Note_on_c, 1, 46, 40
1, 80220, Note_on_c, 1, 46, 0
1, 80220, Note_on_c, 1, 56, 40
1, 80280, Note_on_c, 0, 62, 0
1, 80280, Note_on_c, 1, 56, 0
1, 80280, Note_on_c, 1, 46, 40
1, 80340, Note_on_c, 1, 46, 0
1, 80340, Note_on_c, 1, 56, 40
1, 80400, Note_on_c, 0, 61, 72
1, 80400, Note_on_c, 1, 56, 0
1, 80400, Note_on_c, 1, 46, 40
1, 80460, Note_on_c, 1, 46, 0
1, 80460, Note_on_c, 1, 55, 40
1, 80520, Note_on_c, 1, 55, 0
1, 80520, Note_on_c, 1, 46, 40
1, 80580, Note_on_c, 1, 46, 0
1, 80580, Note_on_c, 1, 55, 40
1, 80640, Note_on_c, 0, 61, 0
1, 80640, Note_on_c, 0, 60, 64
1, 80640, Note_on_c, 1, 55, 0
1, 80640, Note_on_c, 1, 44, 40
1, 80700, Note_on_c, 1, 44, 0
1, 80700, Note_on_c, 1, 55, 40
1, 80760, Note_on_c, 1, 55, 0
1, 80760, Note_on_c, 1, 44, 40
1, 80820, Note_on_c, 1, 44, 0
1, 80820, Note_on_c, 1, 55, 40
1, 80880, Note_on_c, 1, 55, 0
1, 80880, Note_on_c, 1, 44, 40
1, 80940, Note_on_c, 1, 44, 0
1, 80940, Note_on_c, 1, 53, 40
1, 81000, Note_on_c, 1, 53, 0
1, 81000, Note_on_c, 1, 44, 40
1, 81024, Note_on_c, 0, 60, 0
1, 81060, Note_on_c, 0, 62, 72
1, 81060, Note_on_c, 1, 44, 0
1, 81060, Note_on_c, 1, 53, 40
1, 81084, Note_on_c, 0, 62, 0
1, 81090, Note_on_c, 0, 60, 72
1, 81114, Note_on_c, 0, 60, 0
1, 81120, Note_on_c, 0, 58, 72
1, 81120, Note_on_c, 1, 53, 0
1, 81120, Note_on_c, 1, 43, 40
1, 81180, Note_on_c, 1, 43, 0
1, 81180, Note_on_c, 1, 53, 40
1, 81240, Note_on_c, 1, 53, 0
1, 81240, Note_on_c, 1, 43, 40
1, 81264, Note_on_c, 0, 58, 0
1, 81300, Note_on_c, 0, 60, 72
1, 81300, Note_on_c, 1, 43, 0
1, 81300, Note_on_c, 1, 53, 40
1, 81324, Note_on_c, 0, 60, 0
1, 81330, Note_on_c, 0, 62, 72
1, 81354, Note_on_c, 0, 62, 0
1, 81360, Note_on_c, 0, 63, 72
1, 81360, Note_on_c, 1, 53, 0
1, 81360, Note_on_c, 1, 43, 40
1, 81420, Note_on_c, 1, 43, 0
1, 81420, Note_on_c, 1, 51, 40
1, 81480, Note_on_c, 1, 51, 0
1, 81480, Note_on_c, 1, 43, 40
1, 81504, Note_on_c, 0, 63, 0
1, 81540, Note_on_c, 0, 65, 72
1, 81540, Note_on_c, 1, 43, 0
1, 81540, Note_on_c, 1, 51, 40
1, 81564, Note_on_c, 0, 65, 0
1, 81570, Note_on_c, 0, 67, 72
1, 81594, Note_on_c, 0, 67, 0
1, 81600, Note_on_c, 0, 68, 72
1, 81600, Note_on_c, 1, 51, 0
1, 81600, Note_on_c, 1, 41, 48
1, 81660, Note_on_c, 1, 41, 0
1, 81660, Note_on_c, 1, 50, 48
1, 81720, Note_on_c, 1, 50, 0
1, 81720, Note_on_c, 1, 41, 48
1, 81780, Note_on_c, 1, 41, 0
1, 81780, Note_on_c, 1, 50, 48
1, 81792, Note_on_c, 0, 68, 0
1, 81840, Note_on_c, 0, 67, 72
1, 81840, Note_on_c, 1, 50, 0
1, 81840, Note_on_c, 1, 39, 48
1, 81900, Note_on_c, 1, 39, 0
1, 81900, Note_on_c, 1, 43, 48
1, 81918, Note_on_c, 1, 43, 0
1, 81960, Note_on_c, 1, 46, 48
1, 81978, Note_on_c, 1, 46, 0
1, 82020, Note_on_c, 1, 51, 48
1, 82032, Note_on_c, 0, 67, 0
1, 82038, Note_on_c, 1, 51, 0
1, 82080, Note_on_c, 0, 65, 80
1, 82080, Note_on_c, 1, 46, 48
1, 82128, Note_on_c, 0, 65, 0
1, 82140, Note_on_c, 0, 70, 80
1, 82158, Note_on_c, 0, 70, 0
1, 82200, Note_on_c, 0, 69, 80
1, 82218, Note_on_c, 0, 69, 0
1, 82260, Note_on_c, 0, 72, 80
1, 82272, Note_on_c, 1, 46, 0
1, 82278, Note_on_c, 0, 72, 0
1, 82320, Note_on_c, 0, 70, 80
1, 82368, Note_on_c, 0, 70, 0
1, 82380, Note_on_c, 0, 74, 80
1, 82380, Note_on_c, 1, 58, 48
1, 82398, Note_on_c, 0, 74, 0
1, 82398, Note_on_c, 1, 58, 0
1, 82440, Note_on_c, 0, 72, 80
1, 82440, Note_on_c, 1, 57, 48
1, 82458, Note_on_c, 0, 72, 0
1, 82458, Note_on_c, 1, 57, 0
1, 82500, Note_on_c, 0, 75, 80
1, 82500, Note_on_c, 1, 60, 48
1, 82518, Note_on_c, 0, 75, 0
1, 82518, Note_on_c, 1, 60, 0
1, 82560, Note_on_c, 0, 74, 80
1, 82560, Note_on_c, 1, 58, 80
1, 82608, Note_on_c, 0, 74, 0
1, 82608, Note_on_c, 1, 58, 0
1, 82620, Note_on_c, 0, 77, 80
1, 82620, Note_on_c, 1, 62, 80
1, 82638, Note_on_c, 0, 77, 0
1, 82638, Note_on_c, 1, 62, 0
1, 82680, Note_on_c, 0, 75, 80
1, 82680, Note_on_c, 1, 60, 80
1, 82698, Note_on_c, 0, 75, 0
1, 82698, Note_on_c, 1, 60, 0
1, 82740, Note_on_c, 0, 79, 80
1, 82740, Note_on_c, 1, 63, 80
1, 82758, Note_on_c, 0, 79, 0
1, 82758, Note_on_c, 1, 63, 0
1, 82800, Note_on_c, 0, 77, 80
1, 82800, Note_on_c, 1, 62, 80
1, 82848, Note_on_c, 0, 77, 0
1, 82848, Note_on_c, 1, 62, 0
1, 82860, Note_on_c, 0, 80, 80
1, 82860, Note_on_c, 1, 65, 80
1, 82878, Note_on_c, 0, 80, 0
1, 82878, Note_on_c, 1, 65, 0
1, 82920, Note_on_c, 0, 79, 80
1, 82920, Note_on_c, 1, 64, 80
1, 82938, Note_on_c, 0, 79, 0
1, 82938, Note_on_c, 1, 64, 0
1, 82980, Note_on_c, 0, 82, 80
1, 82980, Note_on_c, 1, 67, 80
1, 82998, Note_on_c, 0, 82, 0
1, 82998, Note_on_c, 1, 67, 0
1, 83040, Note_on_c, 0, 80, 80
1, 83040, Note_on_c, 1, 65, 80
1, 83100, Note_on_c, 0, 80, 0
1, 83100, Note_on_c, 0, 79, 80
1, 83160, Note_on_c, 0, 79, 0
1, 83160, Note_on_c, 0, 77, 80
1, 83220, Note_on_c, 0, 77, 0
1, 83220, Note_on_c, 0, 75, 80
1, 83280, Note_on_c, 0, 75, 0
1, 83280, Note_on_c, 0, 74, 80
1, 83280, Note_on_c, 1, 58, 80
1, 83340, Note_on_c, 0, 74, 0
1, 83340, Note_on_c, 0, 84, 80
1, 83400, Note_on_c, 0, 84, 0
1, 83400, Note_on_c, 0, 82, 80
1, 83460, Note_on_c, 0, 82, 0
1, 83460, Note_on_c, 0, 80, 80
1, 83520, Note_on_c, 0, 80, 0
1, 83520, Note_on_c, 0, 79, 80
1, 83520, Note_on_c, 1, 58, 0
1, 83520, Note_on_c, 1, 65, 0
1, 83520, Note_on_c, 1, 63, 80
1, 83520, Note_on_c, 1, 67, 80
1, 83580, Note_on_c, 0, 79, 0
1, 83580, Note_on_c, 0, 80, 72
1, 83640, Note_on_c, 0, 80, 0
1, 83640, Note_on_c, 0, 82, 64
1, 83700, Note_on_c, 0, 82, 0
1, 83700, Note_on_c, 0, 83, 56
1, 83760, Note_on_c, 0, 83, 0
1, 83760, Note_on_c, 0, 84, 48
1, 83760, Note_on_c, 1, 67, 0
1, 83760, Note_on_c, 1, 63, 0
1, 83760, Note_on_c, 1, 75, 64
1, 83820, Note_on_c, 0, 84, 0
1, 83820, Note_on_c, 0, 79, 48
1, 83880, Note_on_c, 0, 79, 0
1, 83880, Note_on_c, 0, 84, 48
1, 83940, Note_on_c, 0, 84, 0
1, 83940, Note_on_c, 0, 79, 48
1, 83940, Note_on_c, 1, 75, 0
1, 83940, Note_on_c, 1, 77, 72
1, 83970, Note_on_c, 1, 77, 0
1, 83970, Note_on_c, 1, 75, 72
1, 84000, Note_on_c, 0, 79, 0
1, 84000, Note_on_c, 0, 84, 48
1, 84000, Note_on_c, 1, 75, 0
1, 84000, Note_on_c, 1, 74, 64
1, 84060, Note_on_c, 0, 84, 0
1, 84060, Note_on_c, 0, 77, 48
1, 84120, Note_on_c, 0, 77, 0
1, 84120, Note_on_c, 0, 84, 48
1, 84120, Note_on_c, 1, 74, 0
1, 84180, Note_on_c, 0, 84, 0
1, 84180, Note_on_c, 0, 77, 48
1, 84240, Note_on_c, 0, 77, 0
1, 84240, Note_on_c, 0, 82, 48
1, 84240, Note_on_c, 1, 38, 64
1, 84300, Note_on_c, 0, 82, 0
1, 84300, Note_on_c, 0, 77, 48
1, 84360, Note_on_c, 0, 77, 0
1, 84360, Note_on_c, 0, 82, 48
1, 84420, Note_on_c, 0, 82, 0
1, 84420, Note_on_c, 0, 77, 48
1, 84420, Note_on_c, 1, 38, 0
1, 84420, Note_on_c, 1, 39, 72
1, 84450, Note_on_c, 1, 39, 0
1, 84450, Note_on_c, 1, 38, 72
1, 84480, Note_on_c, 0, 77, 0
1, 84480, Note_on_c, 0, 82, 48
1, 84480, Note_on_c, 1, 38, 0
1, 84480, Note_on_c, 1, 36, 64
1, 84540, Note_on_c, 0, 82, 0
1, 84540, Note_on_c, 0, 76, 48
1, 84600, Note_on_c, 0, 76, 0
1, 84600, Note_on_c, 0, 82, 48
1, 84600, Note_on_c, 1, 36, 0
1, 84660, Note_on_c, 0, 82, 0
1, 84660, Note_on_c, 0, 76, 48
1, 84720, Note_on_c, 0, 76, 0
1, 84720, Note_on_c, 0, 80, 48
1, 84720, Note_on_c, 1, 72, 64
1, 84780, Note_on_c, 0, 80, 0
1, 84780, Note_on_c, 0, 75, 48
1, 84840, Note_on_c, 0, 75, 0
1, 84840, Note_on_c, 0, 80, 48
1, 84900, Note_on_c, 0, 80, 0
1, 84900, Note_on_c, 0, 75, 48
1, 84900, Note_on_c, 1, 72, 0
1, 84900, Note_on_c, 1, 74, 72
1, 84930, Note_on_c, 1, 74, 0
1, 84930, Note_on_c, 1, 72, 72
1, 84960, Note_on_c, 0, 75, 0
1, 84960, Note_on_c, 0, 80, 48
1, 84960, Note_on_c, 1, 72, 0
1, 84960, Note_on_c, 1, 70, 64
1, 85020, Note_on_c, 0, 80, 0
1, 85020, Note_on_c, 0, 74, 48
1, 85080, Note_on_c, 0, 74, 0
1, 85080, Note_on_c, 0, 80, 48
1, 85080, Note_on_c, 1, 70, 0
1, 85140, Note_on_c, 0, 80, 0
1, 85140, Note_on_c, 0, 74, 48
1, 85200, Note_on_c, 0, 74, 0
1, 85200, Note_on_c, 0, 79, 48
1, 85200, Note_on_c, 1, 34, 64
1, 85260, Note_on_c, 0, 79, 0
1, 85260, Note_on_c, 0, 73, 48
1, 85320, Note_on_c, 0, 73, 0
1, 85320, Note_on_c, 0, 79, 48
1, 85380, Note_on_c, 0, 79, 0
1, 85380, Note_on_c, 0, 73, 48
1, 85380, Note_on_c, 1, 34, 0
1, 85380, Note_on_c, 1, 36, 64
1, 85410, Note_on_c, 1, 36, 0
1, 85410, Note_on_c, 1, 34, 64
1, 85440, Note_on_c, 0, 73, 0
1, 85440, Note_on_c, 0, 79, 48
1, 85440, Note_on_c, 1, 34, 0
1, 85440, Note_on_c, 1, 32, 64
1, 85488, Note_on_c, 0, 79, 0
1, 85500, Note_on_c, 0, 72, 48
1, 85548, Note_on_c, 0, 72, 0
1, 85560, Note_on_c, 0, 79, 48
1, 85560, Note_on_c, 1, 32, 0
1, 85608, Note_on_c, 0, 79, 0
1, 85620, Note_on_c, 0, 72, 48
1, 85668, Note_on_c, 0, 72, 0
1, 85680, Note_on_c, 0, 77, 48
1, 85680, Note_on_c, 1, 68, 64
1, 85728, Note_on_c, 0, 77, 0
1, 85740, Note_on_c, 0, 72, 48
1, 85788, Note_on_c, 0, 72, 0
1, 85800, Note_on_c, 0, 77, 48
1, 85848, Note_on_c, 0, 77, 0
1, 85860, Note_on_c, 0, 72, 48
1, 85860, Note_on_c, 1, 68, 0
1, 85860, Note_on_c, 1, 70, 72
1, 85890, Note_on_c, 1, 70, 0
1, 85890, Note_on_c, 1, 68, 72
1, 85908, Note_on_c, 0, 72, 0
1, 85920, Note_on_c, 0, 77, 48
1, 85920, Note_on_c, 1, 68, 0
1, 85920, Note_on_c, 1, 67, 64
1, 85968, Note_on_c, 0, 77, 0
1, 85980, Note_on_c, 0, 70, 48
1, 86028, Note_on_c, 0, 70, 0
1, 86040, Note_on_c, 0, 77, 48
1, 86040, Note_on_c, 1, 67, 0
1, 86088, Note_on_c, 0, 77, 0
1, 86100, Note_on_c, 0, 70, 48
1, 86148, Note_on_c, 0, 70, 0
1, 86160, Note_on_c, 0, 75, 48
1, 86160, Note_on_c, 1, 31, 64
1, 86208, Note_on_c, 0, 75, 0
1, 86220, Note_on_c, 0, 70, 48
1, 86268, Note_on_c, 0, 70, 0
1, 86280, Note_on_c, 0, 75, 48
1, 86328, Note_on_c, 0, 75, 0
1, 86340, Note_on_c, 0, 70, 48
1, 86340, Note_on_c, 1, 31, 0
1, 86340, Note_on_c, 1, 32, 72
1, 86370, Note_on_c, 1, 32, 0
1, 86370, Note_on_c, 1, 31, 72
1, 86388, Note_on_c, 0, 70, 0
1, 86400, Note_on_c, 0, 74, 48
1, 86400, Note_on_c, 1, 31, 0
1, 86400, Note_on_c, 1, 29, 64
1, 86448, Note_on_c, 0, 74, 0
1, 86460, Note_on_c, 0, 70, 48
1, 86508, Note_on_c, 0, 70, 0
1, 86520, Note_on_c, 0, 80, 48
1, 86520, Note_on_c, 1, 29, 0
1, 86520, Note_on_c, 1, 38, 64
1, 86568, Note_on_c, 0, 80, 0
1, 86580, Note_on_c, 0, 70, 48
1, 86628, Note_on_c, 0, 70, 0
1, 86640, Note_on_c, 0, 79, 48
1, 86640, Note_on_c, 1, 38, 0
1, 86640, Note_on_c, 1, 39, 64
1, 86688, Note_on_c, 0, 79, 0
1, 86700, Note_on_c, 0, 70, 48
1, 86748, Note_on_c, 0, 70, 0
1, 86760, Note_on_c, 0, 75, 48
1, 86760, Note_on_c, 1, 39, 0
1, 86760, Note_on_c, 1, 43, 64
1, 86808, Note_on_c, 0, 75, 0
1, 86820, Note_on_c, 0, 70, 48
1, 86868, Note_on_c, 0, 70, 0
1, 86880, Note_on_c, 0, 74, 48
1, 86880, Note_on_c, 1, 43, 0
1, 86880, Note_on_c, 1, 46, 64
1, 86940, Note_on_c, 0, 74, 0
1, 86940, Note_on_c, 1, 46, 0
1, 87000, Note_on_c, 0, 82, 64
1, 87000, Note_on_c, 0, 74, 64
1, 87000, Note_on_c, 1, 53, 64
1, 87060, Note_on_c, 1, 53, 0
1, 87060, Note_on_c, 1, 46, 64
1, 87096, Note_on_c, 0, 74, 0
1, 87096, Note_on_c, 0, 82, 0
1, 87120, Note_on_c, 0, 81, 64
1, 87120, Note_on_c, 0, 75, 64
1, 87120, Note_on_c, 1, 46, 0
1, 87120, Note_on_c, 1, 54, 64
1, 87180, Note_on_c, 1, 54, 0
1, 87180, Note_on_c, 1, 46, 64
1, 87216, Note_on_c, 0, 75, 0
1, 87216, Note_on_c, 0, 81, 0
1, 87240, Note_on_c, 0, 78, 64
1, 87240, Note_on_c, 0, 75, 64
1, 87240, Note_on_c, 1, 46, 0
1, 87240, Note_on_c, 1, 57, 64
1, 87300, Note_on_c, 1, 57, 0
1, 87300, Note_on_c, 1, 46, 64
1, 87336, Note_on_c, 0, 75, 0
1, 87336, Note_on_c, 0, 78, 0
1, 87360, Note_on_c, 0, 74, 64
1, 87360, Note_on_c, 0, 77, 64
1, 87360, Note_on_c, 1, 46, 0
1, 87360, Note_on_c, 1, 58, 64
1, 87408, Note_on_c, 1, 58, 0
1, 87420, Note_on_c, 0, 77, 0
1, 87420, Note_on_c, 0, 74, 0
1, 87420, Note_on_c, 1, 46, 64
1, 87468, Note_on_c, 1, 46, 0
1, 87480, Note_on_c, 0, 74, 41
1, 87480, Note_on_c, 0, 82, 41
1, 87480, Note_on_c, 1, 53, 41
1, 87528, Note_on_c, 1, 53, 0
1, 87540, Note_on_c, 1, 46, 43
1, 87576, Note_on_c, 0, 82, 0
1, 87576, Note_on_c, 0, 74, 0
1, 87588, Note_on_c, 1, 46, 0
1, 87600, Note_on_c, 0, 75, 45
1, 87600, Note_on_c, 0, 81, 45
1, 87600, Note_on_c, 1, 54, 45
1, 87648, Note_on_c, 1, 54, 0
1, 87660, Note_on_c, 1, 46, 47
1, 87696, Note_on_c, 0, 81, 0
1, 87696, Note_on_c, 0, 75, 0
1, 87708, Note_on_c, 1, 46, 0
1, 87720, Note_on_c, 0, 75, 48
1, 87720, Note_on_c, 0, 78, 48
1, 87720, Note_on_c, 1, 57, 48
1, 87768, Note_on_c, 1, 57, 0
1, 87780, Note_on_c, 1, 46, 50
1, 87816, Note_on_c, 0, 78, 0
1, 87816, Note_on_c, 0, 75, 0
1, 87828, Note_on_c, 1, 46, 0
1, 87840, Note_on_c, 0, 74, 52
1, 87840, Note_on_c, 0, 77, 52
1, 87840, Note_on_c, 1, 58, 52
1, 87888, Note_on_c, 1, 58, 0
1, 87900, Note_on_c, 1, 46, 54
1, 87936, Note_on_c, 0, 77, 0
1, 87936, Note_on_c, 0, 74, 0
1, 87948, Note_on_c, 1, 46, 0
1, 87960, Note_on_c, 0, 76, 56
1, 87960, Note_on_c, 0, 79, 56
1, 87960, Note_on_c, 1, 58, 56
1, 88008, Note_on_c, 1, 58, 0
1, 88020, Note_on_c, 1, 46, 57
1, 88056, Note_on_c, 0, 79, 0
1, 88056, Note_on_c, 0, 76, 0
1, 88068, Note_on_c, 1, 46, 0
1, 88080, Note_on_c, 0, 77, 59
1, 88080, Note_on_c, 0, 80, 59
1, 88080, Note_on_c, 1, 58, 59
1, 88128, Note_on_c, 1, 58, 0
1, 88140, Note_on_c, 1, 46, 61
1, 88176, Note_on_c, 0, 80, 0
1, 88176, Note_on_c, 0, 77, 0
1, 88188, Note_on_c, 1, 46, 0
1, 88200, Note_on_c, 0, 76, 63
1, 88200, Note_on_c, 0, 79, 63
1, 88200, Note_on_c, 1, 58, 63
1, 88248, Note_on_c, 1, 58, 0
1, 88260, Note_on_c, 1, 46, 65
1, 88296, Note_on_c, 0, 79, 0
1, 88296, Note_on_c, 0, 76, 0
1, 88308, Note_on_c, 1, 46, 0
1, 88320, Note_on_c, 0, 79, 67
1, 88320, Note_on_c, 0, 82, 67
1, 88320, Note_on_c, 1, 58, 67
1, 88368, Note_on_c, 1, 58, 0
1, 88380, Note_on_c, 1, 46, 68
1, 88428, Note_on_c, 1, 46, 0
1, 88440, Note_on_c, 1, 58, 70
1, 88488, Note_on_c, 1, 58, 0
1, 88500, Note_on_c, 1, 46, 72
1, 88512, Note_on_c, 0, 82, 0
1, 88512, Note_on_c, 0, 79, 0
1, 88548, Note_on_c, 1, 46, 0
1, 88560, Note_on_c, 0, 77, 74
1, 88560, Note_on_c, 0, 80, 74
1, 88560, Note_on_c, 1, 58, 74
1, 88608, Note_on_c, 1, 58, 0
1, 88620, Note_on_c, 0, 80, 0
1, 88620, Note_on_c, 0, 77, 0
1, 88620, Note_on_c, 1, 46, 76
1, 88668, Note_on_c, 1, 46, 0
1, 88680, Note_on_c, 0, 74, 78
1, 88680, Note_on_c, 0, 77, 78
1, 88680, Note_on_c, 1, 58, 78
1, 88728, Note_on_c, 1, 58, 0
1, 88740, Note_on_c, 1, 46, 79
1, 88776, Note_on_c, 0, 77, 0
1, 88776, Note_on_c, 0, 74, 0
1, 88788, Note_on_c, 1, 46, 0
1, 88800, Note_on_c, 0, 75, 80
1, 88800, Note_on_c, 0, 70, 80
1, 88800, Note_on_c, 0, 67, 80
1, 88800, Note_on_c, 1, 58, 80
1, 88800, Note_on_c, 1, 55, 80
1, 88800, Note_on_c, 1, 51, 80
1, 88992, Note_on_c, 0, 67, 0
1, 88992, Note_on_c, 0, 70, 0
1, 88992, Note_on_c, 0, 75, 0
1, 88992, Note_on_c, 1, 51, 0
1, 88992, Note_on_c, 1, 55, 0
1, 88992, Note_on_c, 1, 58, 0
1, 89040, Note_on_c, 0, 79, 80
1, 89040, Note_on_c, 0, 75, 80
1, 89040, Note_on_c, 0, 73, 80
1, 89040, Note_on_c, 1, 61, 80
1, 89040, Note_on_c, 1, 58, 80
1, 89040, Note_on_c, 1, 55, 80
1, 89040, Note_on_c, 1, 51, 80
1, 89184, Note_on_c, 0, 73, 0
1, 89184, Note_on_c, 0, 75, 0
1, 89184, Note_on_c, 0, 79, 0
1, 89184, Note_on_c, 1, 51, 0
1, 89184, Note_on_c, 1, 61, 0
1, 89184, Note_on_c, 1, 58, 0
1, 89184, Note_on_c, 1, 55, 0
1, 89220, Note_on_c, 0, 79, 80
1, 89220, Note_on_c, 0, 75, 80
1, 89220, Note_on_c, 0, 73, 80
1, 89220, Note_on_c, 1, 61, 80
1, 89220, Note_on_c, 1, 58, 80
1, 89220, Note_on_c, 1, 55, 80
1, 89220, Note_on_c, 1, 51, 80
1, 89268, Note_on_c, 0, 73, 0
1, 89268, Note_on_c, 0, 75, 0
1, 89268, Note_on_c, 0, 79, 0
1, 89268, Note_on_c, 1, 51, 0
1, 89268, Note_on_c, 1, 61, 0
1, 89268, Note_on_c, 1, 58, 0
1, 89268, Note_on_c, 1, 55, 0
1, 89280, Note_on_c, 0, 80, 80
1, 89280, Note_on_c, 0, 75, 80
1, 89280, Note_on_c, 0, 72, 80
1, 89280, Note_on_c, 1, 60, 80
1, 89280, Note_on_c, 1, 56, 80
1, 89280, Note_on_c, 1, 51, 80
1, 89520, Note_on_c, 0, 72, 0
1, 89520, Note_on_c, 0, 75, 0
1, 89550, Note_on_c, 0, 80, 0
1, 89550, Note_on_c, 0, 82, 64
1, 89580, Note_on_c, 0, 82, 0
1, 89580, Note_on_c, 0, 84, 64
1, 89610, Note_on_c, 0, 84, 0
1, 89610, Note_on_c, 0, 82, 64
1, 89640, Note_on_c, 0, 82, 0
1, 89640, Note_on_c, 0, 80, 64
1, 89664, Note_on_c, 1, 51, 0
1, 89664, Note_on_c, 1, 56, 0
1, 89664, Note_on_c, 1, 60, 0
1, 89670, Note_on_c, 0, 80, 0
1, 89670, Note_on_c, 0, 79, 64
1, 89700, Note_on_c, 0, 79, 0
1, 89700, Note_on_c, 0, 77, 64
1, 89730, Note_on_c, 0, 77, 0
1, 89730, Note_on_c, 0, 75, 64
1, 89760, Note_on_c, 0, 75, 0
1, 89760, Note_on_c, 0, 74, 64
1, 89760, Note_on_c, 1, 62, 56
1, 89760, Note_on_c, 1, 56, 56
1, 89760, Note_on_c, 1, 53, 56
1, 89760, Note_on_c, 1, 51, 56
1, 89790, Note_on_c, 0, 74, 0
1, 89790, Note_on_c, 0, 75, 64
1, 89820, Note_on_c, 0, 75, 0
1, 89820, Note_on_c, 0, 77, 64
1, 89850, Note_on_c, 0, 77, 0
1, 89850, Note_on_c, 0, 79, 64
1, 89880, Note_on_c, 0, 79, 0
1, 89880, Note_on_c, 0, 80, 64
1, 89910, Note_on_c, 0, 80, 0
1, 89910, Note_on_c, 0, 79, 64
1, 89940, Note_on_c, 0, 79, 0
1, 89940, Note_on_c, 0, 77, 64
1, 89970, Note_on_c, 0, 77, 0
1, 89970, Note_on_c, 0, 75, 64
1, 90000, Note_on_c, 0, 75, 0
1, 90000, Note_on_c, 0, 74, 64
1, 90030, Note_on_c, 0, 74, 0
1, 90030, Note_on_c, 0, 75, 64
1, 90060, Note_on_c, 0, 75, 0
1, 90060, Note_on_c, 0, 77, 64
1, 90090, Note_on_c, 0, 77, 0
1, 90090, Note_on_c, 0, 75, 64
1, 90120, Note_on_c, 0, 75, 0
1, 90120, Note_on_c, 0, 74, 64
1, 90144, Note_on_c, 1, 51, 0
1, 90144, Note_on_c, 1, 62, 0
1, 90144, Note_on_c, 1, 56, 0
1, 90144, Note_on_c, 1, 53, 0
1, 90150, Note_on_c, 0, 74, 0
1, 90150, Note_on_c, 0, 72, 64
1, 90180, Note_on_c, 0, 72, 0
1, 90180, Note_on_c, 0, 70, 64
1, 90210, Note_on_c, 0, 70, 0
1, 90210, Note_on_c, 0, 68, 64
1, 90240, Note_on_c, 0, 68, 0
1, 90240, Note_on_c, 0, 67, 64
1, 90240, Note_on_c, 1, 63, 56
1, 90240, Note_on_c, 1, 58, 56
1, 90240, Note_on_c, 1, 55, 56
1, 90240, Note_on_c, 1, 51, 56
1, 90270, Note_on_c, 0, 67, 0
1, 90270, Note_on_c, 0, 82, 64
1, 90300, Note_on_c, 0, 82, 0
1, 90300, Note_on_c, 0, 84, 64
1, 90330, Note_on_c, 0, 84, 0
1, 90330, Note_on_c, 0, 82, 64
1, 90360, Note_on_c, 0, 82, 0
1, 90360, Note_on_c, 0, 80, 64
1, 90390, Note_on_c, 0, 80, 0
1, 90390, Note_on_c, 0, 79, 64
1, 90420, Note_on_c, 0, 79, 0
1, 90420, Note_on_c, 0, 77, 64
1, 90432, Note_on_c, 1, 51, 0
1, 90432, Note_on_c, 1, 63, 0
1, 90432, Note_on_c, 1, 58, 0
1, 90432, Note_on_c, 1, 55, 0
1, 90450, Note_on_c, 0, 77, 0
1, 90450, Note_on_c, 0, 75, 64
1, 90480, Note_on_c, 0, 75, 0
1, 90480, Note_on_c, 0, 74, 64
1, 90480, Note_on_c, 1, 65, 56
1, 90480, Note_on_c, 1, 58, 56
1, 90480, Note_on_c, 1, 56, 56
1, 90510, Note_on_c, 0, 74, 0
1, 90510, Note_on_c, 0, 84, 64
1, 90540, Note_on_c, 0, 84, 0
1, 90540, Note_on_c, 0, 82, 64
1, 90570, Note_on_c, 0, 82, 0
1, 90570, Note_on_c, 0, 80, 64
1, 90600, Note_on_c, 0, 80, 0
1, 90600, Note_on_c, 0, 79, 64
1, 90600, Note_on_c, 1, 56, 0
1, 90600, Note_on_c, 1, 58, 0
1, 90600, Note_on_c, 1, 65, 0
1, 90630, Note_on_c, 0, 79, 0
1, 90630, Note_on_c, 0, 77, 64
1, 90660, Note_on_c, 0, 77, 0
1, 90660, Note_on_c, 0, 75, 64
1, 90690, Note_on_c, 0, 75, 0
1, 90690, Note_on_c, 0, 74, 64
1, 90720, Note_on_c, 0, 74, 0
1, 90720, Note_on_c, 0, 75, 48
1, 90720, Note_on_c, 1, 63, 40
1, 90720, Note_on_c, 1, 58, 40
1, 90720, Note_on_c, 1, 55, 40
1, 90750, Note_on_c, 0, 75, 0
1, 90750, Note_on_c, 0, 82, 48
1, 90780, Note_on_c, 0, 82, 0
1, 90780, Note_on_c, 0, 84, 48
1, 90810, Note_on_c, 0, 84, 0
1, 90810, Note_on_c, 0, 82, 48
1, 90840, Note_on_c, 0, 82, 0
1, 90840, Note_on_c, 0, 80, 48
1, 90840, Note_on_c, 1, 55, 0
1, 90840, Note_on_c, 1, 58, 0
1, 90840, Note_on_c, 1, 63, 0
1, 90870, Note_on_c, 0, 80, 0
1, 90870, Note_on_c, 0, 79, 48
1, 90900, Note_on_c, 0, 79, 0
1, 90900, Note_on_c, 0, 77, 48
1, 90930, Note_on_c, 0, 77, 0
1, 90930, Note_on_c, 0, 75, 48
1, 90960, Note_on_c, 0, 75, 0
1, 90960, Note_on_c, 0, 74, 48
1, 90960, Note_on_c, 1, 65, 40
1, 90960, Note_on_c, 1, 58, 40
1, 90960, Note_on_c, 1, 56, 40
1, 90990, Note_on_c, 0, 74, 0
1, 90990, Note_on_c, 0, 84, 48
1, 91020, Note_on_c, 0, 84, 0
1, 91020, Note_on_c, 0, 82, 48
1, 91050, Note_on_c, 0, 82, 0
1, 91050, Note_on_c, 0, 80, 48
1, 91080, Note_on_c, 0, 80, 0
1, 91080, Note_on_c, 0, 79, 48
1, 91080, Note_on_c, 1, 56, 0
1, 91080, Note_on_c, 1, 58, 0
1, 91080, Note_on_c, 1, 65, 0
1, 91110, Note_on_c, 0, 79, 0
1, 91110, Note_on_c, 0, 77, 48
1, 91140, Note_on_c, 0, 77, 0
1, 91140, Note_on_c, 0, 75, 48
1, 91170, Note_on_c, 0, 75, 0
1, 91170, Note_on_c, 0, 74, 48
1, 91200, Note_on_c, 0, 74, 0
1, 91200, Note_on_c, 0, 75, 48
1, 91200, Note_on_c, 1, 63, 40
1, 91200, Note_on_c, 1, 58, 40
1, 91200, Note_on_c, 1, 55, 40
1, 91224, Note_on_c, 0, 75, 0
1, 91230, Note_on_c, 0, 77, 48
1, 91254, Note_on_c, 0, 77, 0
1, 91260, Note_on_c, 0, 79, 48
1, 91284, Note_on_c, 0, 79, 0
1, 91290, Note_on_c, 0, 80, 48
1, 91314, Note_on_c, 0, 80, 0
1, 91320, Note_on_c, 0, 82, 48
1, 91344, Note_on_c, 0, 82, 0
1, 91350, Note_on_c, 0, 84, 48
1, 91374, Note_on_c, 0, 84, 0
1, 91380, Note_on_c, 0, 85, 48
1, 91404, Note_on_c, 0, 85, 0
1, 91410, Note_on_c, 0, 87, 48
1, 91434, Note_on_c, 0, 87, 0
1, 91440, Note_on_c, 0, 85, 48
1, 91464, Note_on_c, 0, 85, 0
1, 91470, Note_on_c, 0, 84, 48
1, 91494, Note_on_c, 0, 84, 0
1, 91500, Note_on_c, 0, 82, 48
1, 91524, Note_on_c, 0, 82, 0
1, 91530, Note_on_c, 0, 80, 48
1, 91554, Note_on_c, 0, 80, 0
1, 91560, Note_on_c, 0, 79, 48
1, 91584, Note_on_c, 0, 79, 0
1, 91584, Note_on_c, 1, 55, 0
1, 91584, Note_on_c, 1, 58, 0
1, 91584, Note_on_c, 1, 63, 0
1, 91590, Note_on_c, 0, 77, 48
1, 91614, Note_on_c, 0, 77, 0
1, 91620, Note_on_c, 0, 75, 48
1, 91644, Note_on_c, 0, 75, 0
1, 91650, Note_on_c, 0, 73, 48
1, 91674, Note_on_c, 0, 73, 0
1, 91680, Note_on_c, 0, 72, 48
1, 91680, Note_on_c, 1, 63, 40
1, 91680, Note_on_c, 1, 60, 40
1, 91680, Note_on_c, 1, 56, 40
1, 91728, Note_on_c, 0, 72, 0
1, 91740, Note_on_c, 0, 84, 48
1, 91758, Note_on_c, 0, 84, 0
1, 91800, Note_on_c, 0, 83, 48
1, 91818, Note_on_c, 0, 83, 0
1, 91860, Note_on_c, 0, 86, 48
1, 91872, Note_on_c, 1, 56, 0
1, 91872, Note_on_c, 1, 60, 0
1, 91872, Note_on_c, 1, 63, 0
1, 91878, Note_on_c, 0, 86, 0
1, 91920, Note_on_c, 0, 84, 48
1, 91968, Note_on_c, 0, 84, 0
1, 91980, Note_on_c, 0, 87, 48
1, 91998, Note_on_c, 0, 87, 0
1, 92040, Note_on_c, 0, 83, 48
1, 92058, Note_on_c, 0, 83, 0
1, 92100, Note_on_c, 0, 86, 48
1, 92118, Note_on_c, 0, 86, 0
1, 92160, Note_on_c, 0, 84, 48
1, 92208, Note_on_c, 0, 84, 0
1, 92220, Note_on_c, 0, 87, 48
1, 92238, Note_on_c, 0, 87, 0
1, 92280, Note_on_c, 0, 83, 48
1, 92280, Note_on_c, 1, 71, 48
1, 92298, Note_on_c, 0, 83, 0
1, 92298, Note_on_c, 1, 71, 0
1, 92340, Note_on_c, 0, 86, 48
1, 92340, Note_on_c, 1, 74, 48
1, 92358, Note_on_c, 0, 86, 0
1, 92358, Note_on_c, 1, 74, 0
1, 92400, Note_on_c, 0, 84, 48
1, 92400, Note_on_c, 1, 72, 48
1, 92460, Note_on_c, 0, 84, 0
1, 92460, Note_on_c, 0, 87, 48
1, 92460, Note_on_c, 1, 72, 0
1, 92460, Note_on_c, 1, 75, 48
1, 92520, Note_on_c, 0, 87, 0
1, 92520, Note_on_c, 0, 84, 48
1, 92520, Note_on_c, 1, 75, 0
1, 92520, Note_on_c, 1, 72, 48
1, 92560, Note_on_c, 0, 84, 0
1, 92560, Note_on_c, 0, 80, 48
1, 92560, Note_on_c, 1, 72, 0
1, 92560, Note_on_c, 1, 68, 48
1, 92600, Note_on_c, 0, 80, 0
1, 92600, Note_on_c, 0, 77, 48
1, 92600, Note_on_c, 1, 68, 0
1, 92600, Note_on_c, 1, 65, 48
1, 92640, Note_on_c, 0, 77, 0
1, 92640, Note_on_c, 0, 75, 48
1, 92640, Note_on_c, 1, 65, 0
1, 92640, Note_on_c, 1, 58, 48
1, 92640, Note_on_c, 1, 67, 48
1, 92760, Note_on_c, 0, 75, 0
1, 92760, Note_on_c, 0, 77, 48
1, 92790, Note_on_c, 0, 77, 0
1, 92790, Note_on_c, 0, 75, 48
1, 92820, Note_on_c, 0, 75, 0
1, 92820, Note_on_c, 0, 74, 48
1, 92850, Note_on_c, 0, 74, 0
1, 92850, Note_on_c, 0, 75, 48
1, 92880, Note_on_c, 0, 75, 0
1, 92880, Note_on_c, 0, 74, 48
1, 92880, Note_on_c, 0, 79, 48
1, 92880, Note_on_c, 1, 67, 0
1, 92880, Note_on_c, 1, 68, 48
1, 93060, Note_on_c, 0, 79, 0
1, 93060, Note_on_c, 0, 77, 48
1, 93120, Note_on_c, 0, 77, 0
1, 93120, Note_on_c, 0, 74, 0
1, 93120, Note_on_c, 0, 75, 48
1, 93120, Note_on_c, 1, 68, 0
1, 93120, Note_on_c, 1, 58, 0
1, 93120, Note_on_c, 1, 63, 48
1, 93120, Note_on_c, 1, 67, 48
1, 93216, Note_on_c, 0, 75, 0
1, 93216, Note_on_c, 1, 67, 0
1, 93216, Note_on_c, 1, 63, 0
1, 93330, Note_on_c, 0, 82, 40
1, 93354, Note_on_c, 0, 82, 0
1, 93360, Note_on_c, 0, 79, 40
1, 93360, Note_on_c, 1, 63, 56
1, 93360, Note_on_c, 1, 67, 56
1, 93390, Note_on_c, 0, 79, 0
1, 93396, Note_on_c, 1, 67, 0
1, 93396, Note_on_c, 1, 63, 0
1, 93450, Note_on_c, 0, 82, 40
1, 93474, Note_on_c, 0, 82, 0
1, 93480, Note_on_c, 0, 77, 40
1, 93480, Note_on_c, 1, 58, 56
1, 93480, Note_on_c, 1, 65, 56
1, 93510, Note_on_c, 0, 77, 0
1, 93516, Note_on_c, 1, 65, 0
1, 93516, Note_on_c, 1, 58, 0
1, 93570, Note_on_c, 0, 82, 40
1, 93594, Note_on_c, 0, 82, 0
1, 93600, Note_on_c, 0, 75, 40
1, 93600, Note_on_c, 1, 55, 56
1, 93600, Note_on_c, 1, 63, 56
1, 93630, Note_on_c, 0, 75, 0
1, 93690, Note_on_c, 0, 82, 40
1, 93696, Note_on_c, 1, 63, 0
1, 93696, Note_on_c, 1, 55, 0
1, 93714, Note_on_c, 0, 82, 0
1, 93720, Note_on_c, 0, 70, 40
1, 93750, Note_on_c, 0, 70, 0
1, 93810, Note_on_c, 0, 82, 40
1, 93834, Note_on_c, 0, 82, 0
1, 93840, Note_on_c, 0, 79, 40
1, 93840, Note_on_c, 1, 63, 56
1, 93840, Note_on_c, 1, 67, 56
1, 93870, Note_on_c, 0, 79, 0
1, 93876, Note_on_c, 1, 67, 0
1, 93876, Note_on_c, 1, 63, 0
1, 93930, Note_on_c, 0, 82, 40
1, 93954, Note_on_c, 0, 82, 0
1, 93960, Note_on_c, 0, 77, 40
1, 93960, Note_on_c, 1, 58, 56
1, 93960, Note_on_c, 1, 65, 56
1, 93996, Note_on_c, 1, 65, 0
1, 93996, Note_on_c, 1, 58, 0
1, 94008, Note_on_c, 0, 77, 0
1, 94050, Note_on_c, 0, 82, 40
1, 94074, Note_on_c, 0, 82, 0
1, 94080, Note_on_c, 0, 75, 40
1, 94080, Note_on_c, 1, 55, 56
1, 94080, Note_on_c, 1, 63, 56
1, 94128, Note_on_c, 0, 75, 0
1, 94170, Note_on_c, 0, 82, 40
1, 94176, Note_on_c, 1, 63, 0
1, 94176, Note_on_c, 1, 55, 0
1, 94194, Note_on_c, 0, 82, 0
1, 94200, Note_on_c, 0, 70, 40
1, 94248, Note_on_c, 0, 70, 0
1, 94290, Note_on_c, 0, 82, 40
1, 94314, Note_on_c, 0, 82, 0
1, 94320, Note_on_c, 0, 73, 40
1, 94320, Note_on_c, 1, 63, 56
1, 94320, Note_on_c, 1, 55, 56
1, 94368, Note_on_c, 0, 73, 0
1, 94410, Note_on_c, 0, 82, 40
1, 94416, Note_on_c, 1, 55, 0
1, 94416, Note_on_c, 1, 63, 0
1, 94434, Note_on_c, 0, 82, 0
1, 94440, Note_on_c, 0, 71, 40
1, 94440, Note_on_c, 1, 63, 56
1, 94440, Note_on_c, 1, 55, 56
1, 94488, Note_on_c, 0, 71, 0
1, 94530, Note_on_c, 0, 82, 40
1, 94536, Note_on_c, 1, 55, 0
1, 94536, Note_on_c, 1, 63, 0
1, 94554, Note_on_c, 0, 82, 0
1, 94560, Note_on_c, 0, 72, 40
1, 94560, Note_on_c, 1, 56, 56
1, 94560, Note_on_c, 1, 63, 56
1, 94608, Note_on_c, 0, 72, 0
1, 94650, Note_on_c, 0, 76, 40
1, 94656, Note_on_c, 1, 63, 0
1, 94674, Note_on_c, 0, 76, 0
1, 94680, Note_on_c, 0, 77, 40
1, 94680, Note_on_c, 1, 60, 56
1, 94728, Note_on_c, 0, 77, 0
1, 94770, Note_on_c, 0, 79, 40
1, 94776, Note_on_c, 1, 60, 0
1, 94794, Note_on_c, 0, 79, 0
1, 94800, Note_on_c, 0, 80, 40
1, 94800, Note_on_c, 1, 65, 56
1, 94848, Note_on_c, 0, 80, 0
1, 94848, Note_on_c, 1, 56, 0
1, 94890, Note_on_c, 0, 79, 40
1, 94914, Note_on_c, 0, 79, 0
1, 94920, Note_on_c, 0, 77, 40
1, 94920, Note_on_c, 1, 57, 56
1, 94968, Note_on_c, 0, 77, 0
1, 95010, Note_on_c, 0, 75, 40
1, 95016, Note_on_c, 1, 57, 0
1, 95034, Note_on_c, 0, 75, 0
1, 95040, Note_on_c, 0, 74, 56
1, 95040, Note_on_c, 1, 58, 56
1, 95088, Note_on_c, 0, 74, 0
1, 95130, Note_on_c, 0, 84, 56
1, 95136, Note_on_c, 1, 58, 0
1, 95154, Note_on_c, 0, 84, 0
1, 95160, Note_on_c, 0, 82, 56
1, 95160, Note_on_c, 1, 60, 59
1, 95208, Note_on_c, 0, 82, 0
1, 95250, Note_on_c, 0, 81, 56
1, 95256, Note_on_c, 1, 60, 0
1, 95274, Note_on_c, 0, 81, 0
1, 95280, Note_on_c, 0, 82, 56
1, 95280, Note_on_c, 1, 62, 62
1, 95328, Note_on_c, 0, 82, 0
1, 95328, Note_on_c, 1, 65, 0
1, 95370, Note_on_c, 0, 84, 56
1, 95394, Note_on_c, 0, 84, 0
1, 95400, Note_on_c, 0, 82, 56
1, 95400, Note_on_c, 1, 70, 65
1, 95448, Note_on_c, 0, 82, 0
1, 95472, Note_on_c, 1, 62, 0
1, 95490, Note_on_c, 0, 80, 56
1, 95496, Note_on_c, 1, 70, 0
1, 95514, Note_on_c, 0, 80, 0
1, 95520, Note_on_c, 0, 78, 64
1, 95520, Note_on_c, 1, 66, 56
1, 95520, Note_on_c, 1, 63, 56
1, 95544, Note_on_c, 0, 78, 0
1, 95550, Note_on_c, 0, 80, 64
1, 95568, Note_on_c, 1, 66, 0
1, 95574, Note_on_c, 0, 80, 0
1, 95580, Note_on_c, 0, 78, 64
1, 95580, Note_on_c, 1, 70, 56
1, 95604, Note_on_c, 0, 78, 0
1, 95610, Note_on_c, 0, 77, 64
1, 95616, Note_on_c, 1, 63, 0
1, 95628, Note_on_c, 1, 70, 0
1, 95634, Note_on_c, 0, 77, 0
1, 95640, Note_on_c, 0, 75, 64
1, 95640, Note_on_c, 1, 66, 56
1, 95640, Note_on_c, 1, 63, 56
1, 95658, Note_on_c, 0, 75, 0
1, 95658, Note_on_c, 1, 66, 0
1, 95676, Note_on_c, 1, 63, 0
1, 95700, Note_on_c, 0, 75, 64
1, 95700, Note_on_c, 1, 70, 56
1, 95718, Note_on_c, 0, 75, 0
1, 95718, Note_on_c, 1, 70, 0
1, 95760, Note_on_c, 0, 80, 64
1, 95760, Note_on_c, 1, 65, 56
1, 95760, Note_on_c, 1, 62, 56
1, 95784, Note_on_c, 0, 80, 0
1, 95790, Note_on_c, 0, 82, 64
1, 95808, Note_on_c, 1, 65, 0
1, 95814, Note_on_c, 0, 82, 0
1, 95820, Note_on_c, 0, 80, 64
1, 95820, Note_on_c, 1, 70, 56
1, 95844, Note_on_c, 0, 80, 0
1, 95850, Note_on_c, 0, 78, 64
1, 95856, Note_on_c, 1, 62, 0
1, 95868, Note_on_c, 1, 70, 0
1, 95874, Note_on_c, 0, 78, 0
1, 95880, Note_on_c, 0, 77, 64
1, 95880, Note_on_c, 1, 65, 56
1, 95880, Note_on_c, 1, 62, 56
1, 95898, Note_on_c, 0, 77, 0
1, 95898, Note_on_c, 1, 65, 0
1, 95916, Note_on_c, 1, 62, 0
1, 95940, Note_on_c, 0, 77, 64
1, 95940, Note_on_c, 1, 70, 56
1, 95958, Note_on_c, 0, 77, 0
1, 95958, Note_on_c, 1, 70, 0
1, 96000, Note_on_c, 0, 78, 48
1, 96000, Note_on_c, 1, 66, 40
1, 96000, Note_on_c, 1, 63, 40
1, 96024, Note_on_c, 0, 78, 0
1, 96030, Note_on_c, 0, 80, 48
1, 96048, Note_on_c, 1, 66, 0
1, 96054, Note_on_c, 0, 80, 0
1, 96060, Note_on_c, 0, 78, 48
1, 96060, Note_on_c, 1, 70, 40
1, 96084, Note_on_c, 0, 78, 0
1, 96090, Note_on_c, 0, 77, 48
1, 96096, Note_on_c, 1, 63, 0
1, 96108, Note_on_c, 1, 70, 0
1, 96114, Note_on_c, 0, 77, 0
1, 96120, Note_on_c, 0, 75, 48
1, 96120, Note_on_c, 1, 66, 40
1, 96120, Note_on_c, 1, 63, 40
1, 96150, Note_on_c, 0, 75, 0
1, 96150, Note_on_c, 1, 66, 0
1, 96180, Note_on_c, 0, 75, 48
1, 96180, Note_on_c, 1, 63, 0
1, 96180, Note_on_c, 1, 70, 40
1, 96210, Note_on_c, 0, 75, 0
1, 96210, Note_on_c, 1, 70, 0
1, 96240, Note_on_c, 0, 80, 48
1, 96240, Note_on_c, 1, 65, 40
1, 96240, Note_on_c, 1, 62, 40
1, 96264, Note_on_c, 0, 80, 0
1, 96270, Note_on_c, 0, 82, 48
1, 96288, Note_on_c, 1, 65, 0
1, 96294, Note_on_c, 0, 82, 0
1, 96300, Note_on_c, 0, 80, 48
1, 96300, Note_on_c, 1, 70, 40
1, 96324, Note_on_c, 0, 80, 0
1, 96330, Note_on_c, 0, 78, 48
1, 96336, Note_on_c, 1, 62, 0
1, 96348, Note_on_c, 1, 70, 0
1, 96354, Note_on_c, 0, 78, 0
1, 96360, Note_on_c, 0, 77, 48
1, 96360, Note_on_c, 1, 65, 40
1, 96360, Note_on_c, 1, 62, 40
1, 96390, Note_on_c, 0, 77, 0
1, 96390, Note_on_c, 1, 65, 0
1, 96420, Note_on_c, 0, 77, 48
1, 96420, Note_on_c, 1, 62, 0
1, 96420, Note_on_c, 1, 70, 40
1, 96450, Note_on_c, 0, 77, 0
1, 96450, Note_on_c, 1, 70, 0
1, 96480, Note_on_c, 0, 78, 48
1, 96480, Note_on_c, 1, 66, 64
1, 96480, Note_on_c, 1, 54, 64
1, 96504, Note_on_c, 0, 78, 0
1, 96510, Note_on_c, 0, 80, 48
1, 96534, Note_on_c, 0, 80, 0
1, 96540, Note_on_c, 0, 78, 48
1, 96564, Note_on_c, 0, 78, 0
1, 96570, Note_on_c, 0, 77, 48
1, 96576, Note_on_c, 1, 54, 0
1, 96576, Note_on_c, 1, 66, 0
1, 96594, Note_on_c, 0, 77, 0
1, 96600, Note_on_c, 0, 75, 48
1, 96600, Note_on_c, 1, 51, 64
1, 96600, Note_on_c, 1, 63, 64
1, 96624, Note_on_c, 0, 75, 0
1, 96630, Note_on_c, 0, 77, 48
1, 96654, Note_on_c, 0, 77, 0
1, 96660, Note_on_c, 0, 75, 48
1, 96684, Note_on_c, 0, 75, 0
1, 96690, Note_on_c, 0, 73, 48
1, 96696, Note_on_c, 1, 63, 0
1, 96696, Note_on_c, 1, 51, 0
1, 96714, Note_on_c, 0, 73, 0
1, 96720, Note_on_c, 0, 71, 48
1, 96720, Note_on_c, 1, 47, 64
1, 96720, Note_on_c, 1, 59, 64
1, 96744, Note_on_c, 0, 71, 0
1, 96750, Note_on_c, 0, 73, 48
1, 96774, Note_on_c, 0, 73, 0
1, 96780, Note_on_c, 0, 71, 48
1, 96804, Note_on_c, 0, 71, 0
1, 96810, Note_on_c, 0, 70, 48
1, 96816, Note_on_c, 1, 59, 0
1, 96816, Note_on_c, 1, 47, 0
1, 96834, Note_on_c, 0, 70, 0
1, 96840, Note_on_c, 0, 68, 48
1, 96840, Note_on_c, 1, 44, 64
1, 96840, Note_on_c, 1, 56, 64
1, 96864, Note_on_c, 0, 68, 0
1, 96870, Note_on_c, 0, 70, 48
1, 96894, Note_on_c, 0, 70, 0
1, 96900, Note_on_c, 0, 68, 48
1, 96924, Note_on_c, 0, 68, 0
1, 96930, Note_on_c, 0, 66, 48
1, 96936, Note_on_c, 1, 56, 0
1, 96936, Note_on_c, 1, 44, 0
1, 96954, Note_on_c, 0, 66, 0
1, 96960, Note_on_c, 0, 65, 48
1, 96960, Note_on_c, 1, 41, 64
1, 96960, Note_on_c, 1, 53, 64
1, 96984, Note_on_c, 0, 65, 0
1, 96990, Note_on_c, 0, 66, 48
1, 97014, Note_on_c, 0, 66, 0
1, 97020, Note_on_c, 0, 68, 48
1, 97044, Note_on_c, 0, 68, 0
1, 97050, Note_on_c, 0, 66, 48
1, 97074, Note_on_c, 0, 66, 0
1, 97080, Note_on_c, 0, 65, 48
1, 97104, Note_on_c, 0, 65, 0
1, 97110, Note_on_c, 0, 66, 48
1, 97134, Note_on_c, 0, 66, 0
1, 97140, Note_on_c, 0, 68, 48
1, 97164, Note_on_c, 0, 68, 0
1, 97170, Note_on_c, 0, 66, 48
1, 97194, Note_on_c, 0, 66, 0
1, 97200, Note_on_c, 0, 65, 48
1, 97200, Note_on_c, 1, 53, 0
1, 97200, Note_on_c, 1, 41, 0
1, 97200, Note_on_c, 1, 39, 64
1, 97200, Note_on_c, 1, 51, 64
1, 97224, Note_on_c, 0, 65, 0
1, 97230, Note_on_c, 0, 66, 48
1, 97254, Note_on_c, 0, 66, 0
1, 97260, Note_on_c, 0, 68, 48
1, 97284, Note_on_c, 0, 68, 0
1, 97290, Note_on_c, 0, 66, 48
1, 97314, Note_on_c, 0, 66, 0
1, 97320, Note_on_c, 0, 65, 48
1, 97344, Note_on_c, 0, 65, 0
1, 97350, Note_on_c, 0, 66, 48
1, 97374, Note_on_c, 0, 66, 0
1, 97380, Note_on_c, 0, 68, 48
1, 97404, Note_on_c, 0, 68, 0
1, 97410, Note_on_c, 0, 66, 48
1, 97434, Note_on_c, 0, 66, 0
1, 97440, Note_on_c, 0, 65, 48
1, 97440, Note_on_c, 1, 51, 0
1, 97440, Note_on_c, 1, 39, 0
1, 97440, Note_on_c, 1, 38, 64
1, 97440, Note_on_c, 1, 50, 64
1, 97464, Note_on_c, 0, 65, 0
1, 97470, Note_on_c, 0, 66, 48
1, 97494, Note_on_c, 0, 66, 0
1, 97500, Note_on_c, 0, 68, 48
1, 97524, Note_on_c, 0, 68, 0
1, 97530, Note_on_c, 0, 66, 48
1, 97554, Note_on_c, 0, 66, 0
1, 97560, Note_on_c, 0, 65, 48
1, 97584, Note_on_c, 0, 65, 0
1, 97590, Note_on_c, 0, 66, 48
1, 97614, Note_on_c, 0, 66, 0
1, 97620, Note_on_c, 0, 68, 48
1, 97644, Note_on_c, 0, 68, 0
1, 97650, Note_on_c, 0, 66, 48
1, 97674, Note_on_c, 0, 66, 0
1, 97680, Note_on_c, 0, 65, 48
1, 97680, Note_on_c, 1, 50, 0
1, 97680, Note_on_c, 1, 38, 0
1, 97680, Note_on_c, 1, 35, 64
1, 97680, Note_on_c, 1, 47, 64
1, 97704, Note_on_c, 0, 65, 0
1, 97710, Note_on_c, 0, 66, 48
1, 97734, Note_on_c, 0, 66, 0
1, 97740, Note_on_c, 0, 68, 48
1, 97764, Note_on_c, 0, 68, 0
1, 97770, Note_on_c, 0, 66, 48
1, 97794, Note_on_c, 0, 66, 0
1, 97800, Note_on_c, 0, 65, 48
1, 97824, Note_on_c, 0, 65, 0
1, 97830, Note_on_c, 0, 66, 48
1, 97854, Note_on_c, 0, 66, 0
1, 97860, Note_on_c, 0, 68, 48
1, 97884, Note_on_c, 0, 68, 0
1, 97890, Note_on_c, 0, 66, 48
1, 97914, Note_on_c, 0, 66, 0
1, 97920, Note_on_c, 0, 65, 48
1, 97920, Note_on_c, 1, 47, 0
1, 97920, Note_on_c, 1, 35, 0
1, 97920, Note_on_c, 1, 34, 64
1, 97920, Note_on_c, 1, 46, 64
1, 97944, Note_on_c, 0, 65, 0
1, 97950, Note_on_c, 0, 67, 49
1, 97974, Note_on_c, 0, 67, 0
1, 97980, Note_on_c, 0, 68, 50
1, 98004, Note_on_c, 0, 68, 0
1, 98010, Note_on_c, 0, 67, 51
1, 98034, Note_on_c, 0, 67, 0
1, 98040, Note_on_c, 0, 65, 52
1, 98064, Note_on_c, 0, 65, 0
1, 98070, Note_on_c, 0, 67, 53
1, 98094, Note_on_c, 0, 67, 0
1, 98100, Note_on_c, 0, 68, 54
1, 98124, Note_on_c, 0, 68, 0
1, 98130, Note_on_c, 0, 67, 55
1, 98154, Note_on_c, 0, 67, 0
1, 98160, Note_on_c, 0, 65, 56
1, 98184, Note_on_c, 0, 65, 0
1, 98190, Note_on_c, 0, 67, 57
1, 98214, Note_on_c, 0, 67, 0
1, 98220, Note_on_c, 0, 68, 58
1, 98244, Note_on_c, 0, 68, 0
1, 98250, Note_on_c, 0, 67, 59
1, 98274, Note_on_c, 0, 67, 0
1, 98280, Note_on_c, 0, 65, 60
1, 98304, Note_on_c, 0, 65, 0
1, 98310, Note_on_c, 0, 67, 61
1, 98334, Note_on_c, 0, 67, 0
1, 98340, Note_on_c, 0, 68, 62
1, 98364, Note_on_c, 0, 68, 0
1, 98370, Note_on_c, 0, 67, 63
1, 98394, Note_on_c, 0, 67, 0
1, 98400, Note_on_c, 0, 65, 64
1, 98424, Note_on_c, 0, 65, 0
1, 98430, Note_on_c, 0, 67, 65
1, 98454, Note_on_c, 0, 67, 0
1, 98460, Note_on_c, 0, 68, 66
1, 98484, Note_on_c, 0, 68, 0
1, 98490, Note_on_c, 0, 67, 67
1, 98514, Note_on_c, 0, 67, 0
1, 98520, Note_on_c, 0, 65, 68
1, 98544, Note_on_c, 0, 65, 0
1, 98550, Note_on_c, 0, 67, 69
1, 98574, Note_on_c, 0, 67, 0
1, 98580, Note_on_c, 0, 68, 70
1, 98604, Note_on_c, 0, 68, 0
1, 98610, Note_on_c, 0, 67, 71
1, 98634, Note_on_c, 0, 67, 0
1, 98640, Note_on_c, 0, 65, 72
1, 98664, Note_on_c, 0, 65, 0
1, 98670, Note_on_c, 0, 67, 73
1, 98688, Note_on_c, 1, 46, 0
1, 98688, Note_on_c, 1, 34, 0
1, 98694, Note_on_c, 0, 67, 0
1, 98700, Note_on_c, 0, 68, 74
1, 98724, Note_on_c, 0, 68, 0
1, 98730, Note_on_c, 0, 70, 75
1, 98754, Note_on_c, 0, 70, 0
1, 98760, Note_on_c, 0, 72, 76
1, 98784, Note_on_c, 0, 72, 0
1, 98790, Note_on_c, 0, 74, 77
1, 98814, Note_on_c, 0, 74, 0
1, 98820, Note_on_c, 0, 75, 78
1, 98844, Note_on_c, 0, 75, 0
1, 98850, Note_on_c, 0, 77, 79
1, 98874, Note_on_c, 0, 77, 0
1, 98880, Note_on_c, 0, 79, 80
1, 98880, Note_on_c, 0, 75, 80
1, 98880, Note_on_c, 1, 70, 80
1, 98880, Note_on_c, 1, 67, 80
1, 98880, Note_on_c, 1, 63, 80
1, 99072, Note_on_c, 0, 75, 0
1, 99072, Note_on_c, 0, 79, 0
1, 99072, Note_on_c, 1, 63, 0
1, 99072, Note_on_c, 1, 67, 0
1, 99072, Note_on_c, 1, 70, 0
1, 99120, Note_on_c, 0, 82, 80
1, 99120, Note_on_c, 0, 77, 80
1, 99120, Note_on_c, 1, 70, 80
1, 99120, Note_on_c, 1, 65, 80
1, 99120, Note_on_c, 1, 62, 80
1, 99288, Note_on_c, 1, 62, 0
1, 99288, Note_on_c, 1, 65, 0
1, 99288, Note_on_c, 1, 70, 0
1, 99312, Note_on_c, 0, 77, 0
1, 99312, Note_on_c, 0, 82, 0
1, 99315, Note_on_c, 1, 60, 80
1, 99330, Note_on_c, 1, 63, 80
1, 99345, Note_on_c, 1, 68, 80
1, 99360, Note_on_c, 0, 87, 80
1, 99360, Note_on_c, 0, 80, 80
1, 99360, Note_on_c, 0, 75, 80
1, 99552, Note_on_c, 0, 75, 0
1, 99552, Note_on_c, 0, 80, 0
1, 99744, Note_on_c, 0, 87, 0
1, 99744, Note_on_c, 1, 68, 0
1, 99744, Note_on_c, 1, 63, 0
1, 99744, Note_on_c, 1, 60, 0
1, 99780, Note_on_c, 0, 86, 80
1, 99796, Note_on_c, 0, 86, 0
1, 99800, Note_on_c, 0, 84, 80
1, 99816, Note_on_c, 0, 84, 0
1, 99820, Note_on_c, 0, 82, 80
1, 99836, Note_on_c, 0, 82, 0
1, 99840, Note_on_c, 0, 80, 80
1, 99840, Note_on_c, 1, 75, 80
1, 99840, Note_on_c, 1, 72, 80
1, 99936, Note_on_c, 0, 80, 0
1, 99936, Note_on_c, 1, 72, 0
1, 99936, Note_on_c, 1, 75, 0
1, 100020, Note_on_c, 0, 79, 80
1, 100020, Note_on_c, 1, 75, 80
1, 100020, Note_on_c, 1, 70, 80
1, 100068, Note_on_c, 0, 79, 0
1, 100068, Note_on_c, 1, 70, 0
1, 100080, Note_on_c, 0, 84, 80
1, 100080, Note_on_c, 1, 68, 80
1, 100176, Note_on_c, 0, 84, 0
1, 100176, Note_on_c, 1, 68, 0
1, 100176, Note_on_c, 1, 75, 0
1, 100260, Note_on_c, 0, 75, 80
1, 100260, Note_on_c, 0, 82, 80
1, 100260, Note_on_c, 1, 66, 80
1, 100260, Note_on_c, 1, 70, 80
1, 100308, Note_on_c, 0, 82, 0
1, 100308, Note_on_c, 1, 70, 0
1, 100308, Note_on_c, 1, 66, 0
1, 100320, Note_on_c, 0, 81, 80
1, 100320, Note_on_c, 1, 65, 80
1, 100320, Note_on_c, 1, 72, 80
1, 100512, Note_on_c, 0, 81, 0
1, 100512, Note_on_c, 0, 75, 0
1, 100512, Note_on_c, 1, 72, 0
1, 100512, Note_on_c, 1, 65, 0
1, 100620, Note_on_c, 0, 80, 48
1, 100620, Note_on_c, 0, 84, 48
1, 100644, Note_on_c, 0, 84, 0
1, 100644, Note_on_c, 0, 80, 0
1, 100680, Note_on_c, 0, 79, 48
1, 100680, Note_on_c, 0, 82, 48
1, 100704, Note_on_c, 0, 82, 0
1, 100704, Note_on_c, 0, 79, 0
1, 100740, Note_on_c, 0, 77, 48
1, 100740, Note_on_c, 0, 80, 48
1, 100764, Note_on_c, 0, 80, 0
1, 100764, Note_on_c, 0, 77, 0
1, 100800, Note_on_c, 0, 79, 48
1, 100800, Note_on_c, 0, 75, 48
1, 100860, Note_on_c, 1, 67, 48
1, 100860, Note_on_c, 1, 70, 48
1, 100884, Note_on_c, 1, 70, 0
1, 100884, Note_on_c, 1, 67, 0
1, 100920, Note_on_c, 1, 65, 48
1, 100920, Note_on_c, 1, 68, 48
1, 100944, Note_on_c, 1, 68, 0
1, 100944, Note_on_c, 1, 65, 0
1, 100980, Note_on_c, 1, 63, 48
1, 100980, Note_on_c, 1, 67, 48
1, 100992, Note_on_c, 0, 75, 0
1, 100992, Note_on_c, 0, 79, 0
1, 101004, Note_on_c, 1, 67, 0
1, 101004, Note_on_c, 1, 63, 0
1, 101040, Note_on_c, 1, 62, 48
1, 101040, Note_on_c, 1, 65, 48
1, 101100, Note_on_c, 0, 80, 48
1, 101100, Note_on_c, 0, 84, 48
1, 101112, Note_on_c, 0, 84, 0
1, 101112, Note_on_c, 0, 80, 0
1, 101160, Note_on_c, 0, 79, 48
1, 101160, Note_on_c, 0, 82, 48
1, 101172, Note_on_c, 0, 82, 0
1, 101172, Note_on_c, 0, 79, 0
1, 101220, Note_on_c, 0, 77, 48
1, 101220, Note_on_c, 0, 80, 48
1, 101232, Note_on_c, 0, 80, 0
1, 101232, Note_on_c, 0, 77, 0
1, 101232, Note_on_c, 1, 65, 0
1, 101232, Note_on_c, 1, 62, 0
1, 101280, Note_on_c, 0, 75, 48
1, 101280, Note_on_c, 0, 79, 48
1, 101340, Note_on_c, 1, 67, 48
1, 101340, Note_on_c, 1, 70, 48
1, 101352, Note_on_c, 1, 70, 0
1, 101352, Note_on_c, 1, 67, 0
1, 101400, Note_on_c, 1, 65, 48
1, 101400, Note_on_c, 1, 68, 48
1, 101412, Note_on_c, 1, 68, 0
1, 101412, Note_on_c, 1, 65, 0
1, 101460, Note_on_c, 1, 63, 48
1, 101460, Note_on_c, 1, 67, 48
1, 101472, Note_on_c, 0, 79, 0
1, 101472, Note_on_c, 0, 75, 0
1, 101472, Note_on_c, 1, 67, 0
1, 101472, Note_on_c, 1, 63, 0
1, 101520, Note_on_c, 1, 65, 48
1, 101520, Note_on_c, 1, 62, 48
1, 101568, Note_on_c, 1, 62, 0
1, 101568, Note_on_c, 1, 65, 0
1, 101580, Note_on_c, 0, 80, 48
1, 101580, Note_on_c, 0, 84, 48
1, 101580, Note_on_c, 1, 70, 48
1, 101628, Note_on_c, 0, 84, 0
1, 101628, Note_on_c, 0, 80, 0
1, 101628, Note_on_c, 1, 70, 0
1, 101640, Note_on_c, 0, 79, 56
1, 101640, Note_on_c, 0, 82, 56
1, 101640, Note_on_c, 1, 72, 56
1, 101688, Note_on_c, 0, 82, 0
1, 101688, Note_on_c, 0, 79, 0
1, 101688, Note_on_c, 1, 72, 0
1, 101700, Note_on_c, 0, 77, 64
1, 101700, Note_on_c, 0, 80, 64
1, 101700, Note_on_c, 1, 74, 64
1, 101748, Note_on_c, 0, 80, 0
1, 101748, Note_on_c, 0, 77, 0
1, 101748, Note_on_c, 1, 74, 0
1, 101760, Note_on_c, 0, 79, 72
1, 101760, Note_on_c, 0, 75, 72
1, 101760, Note_on_c, 1, 75, 72
1, 101808, Note_on_c, 0, 75, 0
1, 101808, Note_on_c, 0, 79, 0
1, 101808, Note_on_c, 1, 75, 0
1, 101820, Note_on_c, 0, 82, 80
1, 101820, Note_on_c, 0, 87, 80
1, 101820, Note_on_c, 1, 79, 80
1, 101868, Note_on_c, 0, 87, 0
1, 101868, Note_on_c, 0, 82, 0
1, 101868, Note_on_c, 1, 79, 0
1, 101880, Note_on_c, 0, 80, 80
1, 101880, Note_on_c, 0, 86, 80
1, 101880, Note_on_c, 1, 77, 80
1, 101928, Note_on_c, 0, 86, 0
1, 101928, Note_on_c, 0, 80, 0
1, 101928, Note_on_c, 1, 77, 0
1, 101940, Note_on_c, 0, 79, 80
1, 101940, Note_on_c, 0, 84, 80
1, 101940, Note_on_c, 1, 75, 80
1, 101988, Note_on_c, 0, 84, 0
1, 101988, Note_on_c, 0, 79, 0
1, 101988, Note_on_c, 1, 75, 0
1, 102000, Note_on_c, 0, 77, 80
1, 102000, Note_on_c, 0, 82, 80
1, 102000, Note_on_c, 1, 74, 80
1, 102048, Note_on_c, 0, 82, 0
1, 102048, Note_on_c, 0, 77, 0
1, 102048, Note_on_c, 1, 74, 0
1, 102060, Note_on_c, 0, 80, 80
1, 102060, Note_on_c, 1, 72, 80
1, 102060, Note_on_c, 1, 75, 80
1, 102108, Note_on_c, 0, 80, 0
1, 102108, Note_on_c, 1, 75, 0
1, 102108, Note_on_c, 1, 72, 0
1, 102120, Note_on_c, 0, 79, 80
1, 102120, Note_on_c, 1, 70, 80
1, 102120, Note_on_c, 1, 74, 80
1, 102168, Note_on_c, 0, 79, 0
1, 102168, Note_on_c, 1, 74, 0
1, 102168, Note_on_c, 1, 70, 0
1, 102180, Note_on_c, 0, 77, 80
1, 102180, Note_on_c, 1, 68, 80
1, 102180, Note_on_c, 1, 72, 80
1, 102228, Note_on_c, 0, 77, 0
1, 102228, Note_on_c, 1, 72, 0
1, 102228, Note_on_c, 1, 68, 0
1, 102240, Note_on_c, 0, 76, 80
1, 102240, Note_on_c, 1, 67, 80
1, 102240, Note_on_c, 1, 70, 80
1, 102480, Note_on_c, 0, 76, 0
1, 102480, Note_on_c, 0, 77, 80
1, 102480, Note_on_c, 1, 70, 0
1, 102480, Note_on_c, 1, 67, 0
1, 102480, Note_on_c, 1, 68, 80
1, 102480, Note_on_c, 1, 72, 80
1, 102576, Note_on_c, 0, 77, 0
1, 102576, Note_on_c, 1, 72, 0
1, 102576, Note_on_c, 1, 68, 0
1, 102720, Note_on_c, 0, 70, 64
1, 102720, Note_on_c, 0, 74, 64
1, 102720, Note_on_c, 1, 65, 64
1, 102720, Note_on_c, 1, 68, 64
1, 102960, Note_on_c, 0, 74, 0
1, 102960, Note_on_c, 0, 75, 64
1, 102960, Note_on_c, 1, 68, 0
1, 102960, Note_on_c, 1, 65, 0
1, 102960, Note_on_c, 1, 67, 64
1, 103056, Note_on_c, 0, 75, 0
1, 103056, Note_on_c, 0, 70, 0
1, 103056, Note_on_c, 1, 67, 0
1, 103680, Note_on_c, 0, 60, 40
1, 103680, Note_on_c, 0, 72, 40
1, 104160, Note_on_c, 0, 72, 0
1, 104160, Note_on_c, 0, 60, 0
1, 104160, Note_on_c, 0, 59, 40
1, 104160, Note_on_c, 0, 71, 40
1, 104160, Note_on_c, 1, 35, 40
1, 104160, Note_on_c, 1, 47, 40
1, 104640, Note_on_c, 0, 71, 0
1, 104640, Note_on_c, 0, 59, 0
1, 104640, Note_on_c, 0, 57, 40
1, 104640, Note_on_c, 0, 69, 40
1, 104640, Note_on_c, 1, 47, 0
1, 104640, Note_on_c, 1, 35, 0
1, 104640, Note_on_c, 1, 33, 40
1, 104640, Note_on_c, 1, 45, 40
1, 105120, Note_on_c, 0, 69, 0
1, 105120, Note_on_c, 0, 57, 0
1, 105120, Note_on_c, 0, 56, 40
1, 105120, Note_on_c, 0, 68, 40
1, 105120, Note_on_c, 1, 45, 0
1, 105120, Note_on_c, 1, 33, 0
1, 105120, Note_on_c, 1, 32, 40
1, 105120, Note_on_c, 1, 44, 40
1, 105360, Note_on_c, 0, 68, 0
1, 105360, Note_on_c, 0, 56, 0
1, 105360, Note_on_c, 0, 57, 40
1, 105360, Note_on_c, 0, 69, 40
1, 105360, Note_on_c, 1, 44, 0
1, 105360, Note_on_c, 1, 32, 0
1, 105360, Note_on_c, 1, 33, 40
1, 105360, Note_on_c, 1, 45, 40
1, 105600, Note_on_c, 0, 69, 0
1, 105600, Note_on_c, 0, 57, 0
1, 105600, Note_on_c, 0, 70, 80
1, 105600, Note_on_c, 0, 67, 80
1, 105600, Note_on_c, 0, 63, 80
1, 105600, Note_on_c, 0, 58, 80
1, 105600, Note_on_c, 1, 45, 0
1, 105600, Note_on_c, 1, 33, 0
1, 105600, Note_on_c, 1, 34, 80
1, 105624, Note_on_c, 1, 34, 0
1, 105630, Note_on_c, 1, 46, 80
1, 105654, Note_on_c, 1, 46, 0
1, 105660, Note_on_c, 1, 34, 80
1, 105684, Note_on_c, 1, 34, 0
1, 105690, Note_on_c, 1, 46, 80
1, 105714, Note_on_c, 1, 46, 0
1, 105720, Note_on_c, 1, 34, 80
1, 105744, Note_on_c, 1, 34, 0
1, 105750, Note_on_c, 1, 46, 80
1, 105774, Note_on_c, 1, 46, 0
1, 105780, Note_on_c, 1, 34, 80
1, 105792, Note_on_c, 0, 58, 0
1, 105792, Note_on_c, 0, 70, 0
1, 105792, Note_on_c, 0, 67, 0
1, 105792, Note_on_c, 0, 63, 0
1, 105804, Note_on_c, 1, 34, 0
1, 105810, Note_on_c, 1, 46, 80
1, 105834, Note_on_c, 1, 46, 0
1, 105840, Note_on_c, 0, 67, 80
1, 105840, Note_on_c, 0, 70, 80
1, 105840, Note_on_c, 0, 75, 80
1, 105840, Note_on_c, 1, 34, 80
1, 105864, Note_on_c, 1, 34, 0
1, 105870, Note_on_c, 1, 46, 80
1, 105894, Note_on_c, 1, 46, 0
1, 105900, Note_on_c, 0, 75, 0
1, 105900, Note_on_c, 0, 70, 0
1, 105900, Note_on_c, 0, 67, 0
1, 105900, Note_on_c, 1, 34, 80
1, 105924, Note_on_c, 1, 34, 0
1, 105930, Note_on_c, 1, 46, 80
1, 105954, Note_on_c, 1, 46, 0
1, 105960, Note_on_c, 0, 70, 80
1, 105960, Note_on_c, 0, 75, 80
1, 105960, Note_on_c, 0, 79, 80
1, 105960, Note_on_c, 1, 34, 80
1, 105984, Note_on_c, 1, 34, 0
1, 105990, Note_on_c, 1, 46, 80
1, 106014, Note_on_c, 1, 46, 0
1, 106020, Note_on_c, 0, 79, 0
1, 106020, Note_on_c, 0, 75, 0
1, 106020, Note_on_c, 0, 70, 0
1, 106020, Note_on_c, 1, 34, 80
1, 106044, Note_on_c, 1, 34, 0
1, 106050, Note_on_c, 1, 46, 80
1, 106074, Note_on_c, 1, 46, 0
1, 106080, Note_on_c, 0, 75, 80
1, 106080, Note_on_c, 0, 79, 80
1, 106080, Note_on_c, 0, 82, 80
1, 106080, Note_on_c, 1, 34, 80
1, 106140, Note_on_c, 0, 82, 0
1, 106140, Note_on_c, 0, 79, 0
1, 106140, Note_on_c, 0, 75, 0
1, 106176, Note_on_c, 1, 34, 0
1, 106260, Note_on_c, 0, 79, 80
1, 106260, Note_on_c, 0, 75, 80
1, 106260, Note_on_c, 1, 63, 80
1, 106260, Note_on_c, 1, 67, 80
1, 106320, Note_on_c, 0, 75, 0
1, 106320, Note_on_c, 0, 79, 0
1, 106320, Note_on_c, 0, 79, 80
1, 106320, Note_on_c, 0, 82, 80
1, 106320, Note_on_c, 1, 67, 0
1, 106320, Note_on_c, 1, 63, 0
1, 106320, Note_on_c, 1, 67, 80
1, 106320, Note_on_c, 1, 70, 80
1, 106338, Note_on_c, 0, 82, 0
1, 106338, Note_on_c, 0, 79, 0
1, 106338, Note_on_c, 1, 70, 0
1, 106338, Note_on_c, 1, 67, 0
1, 106380, Note_on_c, 0, 75, 80
1, 106380, Note_on_c, 0, 79, 80
1, 106380, Note_on_c, 1, 63, 80
1, 106380, Note_on_c, 1, 67, 80
1, 106398, Note_on_c, 0, 79, 0
1, 106398, Note_on_c, 0, 75, 0
1, 106398, Note_on_c, 1, 67, 0
1, 106398, Note_on_c, 1, 63, 0
1, 106440, Note_on_c, 0, 79, 80
1, 106440, Note_on_c, 0, 82, 80
1, 106440, Note_on_c, 1, 67, 80
1, 106440, Note_on_c, 1, 70, 80
1, 106458, Note_on_c, 0, 82, 0
1, 106458, Note_on_c, 0, 79, 0
1, 106458, Note_on_c, 1, 70, 0
1, 106458, Note_on_c, 1, 67, 0
1, 106500, Note_on_c, 0, 75, 80
1, 106500, Note_on_c, 0, 79, 80
1, 106500, Note_on_c, 1, 63, 80
1, 106500, Note_on_c, 1, 67, 80
1, 106518, Note_on_c, 0, 79, 0
1, 106518, Note_on_c, 0, 75, 0
1, 106518, Note_on_c, 1, 67, 0
1, 106518, Note_on_c, 1, 63, 0
1, 106560, Note_on_c, 0, 79, 80
1, 106560, Note_on_c, 0, 82, 80
1, 106560, Note_on_c, 1, 67, 80
1, 106560, Note_on_c, 1, 70, 80
1, 106620, Note_on_c, 0, 82, 0
1, 106620, Note_on_c, 0, 79, 0
1, 106620, Note_on_c, 1, 70, 0
1, 106620, Note_on_c, 1, 67, 0
1, 106800, Note_on_c, 0, 65, 80
1, 106800, Note_on_c, 0, 68, 80
1, 106800, Note_on_c, 0, 70, 80
1, 106800, Note_on_c, 0, 74, 80
1, 106800, Note_on_c, 1, 46, 80
1, 106800, Note_on_c, 1, 50, 80
1, 106800, Note_on_c, 1, 53, 80
1, 106800, Note_on_c, 1, 58, 80
1, 106896, Note_on_c, 0, 74, 0
1, 106896, Note_on_c, 0, 65, 0
1, 106896, Note_on_c, 0, 68, 0
1, 106896, Note_on_c, 0, 70, 0
1, 106896, Note_on_c, 1, 58, 0
1, 106896, Note_on_c, 1, 46, 0
1, 106896, Note_on_c, 1, 50, 0
1, 106896, Note_on_c, 1, 53, 0
1, 107040, Note_on_c, 0, 75, 56
1, 107040, Note_on_c, 1, 51, 40
1, 107040, Note_on_c, 1, 55, 40
1, 107064, Note_on_c, 0, 75, 0
1, 107070, Note_on_c, 0, 79, 56
1, 107094, Note_on_c, 0, 79, 0
1, 107100, Note_on_c, 0, 77, 56
1, 107124, Note_on_c, 0, 77, 0
1, 107130, Note_on_c, 0, 75, 56
1, 107136, Note_on_c, 1, 55, 0
1, 107136, Note_on_c, 1, 51, 0
1, 107154, Note_on_c, 0, 75, 0
1, 107160, Note_on_c, 0, 74, 56
1, 107184, Note_on_c, 0, 74, 0
1, 107190, Note_on_c, 0, 72, 56
1, 107214, Note_on_c, 0, 72, 0
1, 107220, Note_on_c, 0, 70, 56
1, 107244, Note_on_c, 0, 70, 0
1, 107250, Note_on_c, 0, 69, 56
1, 107274, Note_on_c, 0, 69, 0
1, 107280, Note_on_c, 0, 68, 56
1, 107280, Note_on_c, 1, 46, 40
1, 107280, Note_on_c, 1, 53, 40
1, 107304, Note_on_c, 0, 68, 0
1, 107310, Note_on_c, 0, 72, 56
1, 107334, Note_on_c, 0, 72, 0
1, 107340, Note_on_c, 0, 70, 56
1, 107364, Note_on_c, 0, 70, 0
1, 107370, Note_on_c, 0, 68, 56
1, 107376, Note_on_c, 1, 53, 0
1, 107376, Note_on_c, 1, 46, 0
1, 107394, Note_on_c, 0, 68, 0
1, 107400, Note_on_c, 0, 67, 56
1, 107424, Note_on_c, 0, 67, 0
1, 107430, Note_on_c, 0, 65, 56
1, 107454, Note_on_c, 0, 65, 0
1, 107460, Note_on_c, 0, 63, 56
1, 107484, Note_on_c, 0, 63, 0
1, 107490, Note_on_c, 0, 62, 56
1, 107514, Note_on_c, 0, 62, 0
1, 107520, Note_on_c, 0, 63, 56
1, 107520, Note_on_c, 1, 55, 56
1, 107520, Note_on_c, 1, 51, 56
1, 107544, Note_on_c, 0, 63, 0
1, 107550, Note_on_c, 0, 79, 57
1, 107574, Note_on_c, 0, 79, 0
1, 107580, Note_on_c, 0, 77, 57
1, 107604, Note_on_c, 0, 77, 0
1, 107610, Note_on_c, 0, 75, 58
1, 107616, Note_on_c, 1, 51, 0
1, 107616, Note_on_c, 1, 55, 0
1, 107634, Note_on_c, 0, 75, 0
1, 107640, Note_on_c, 0, 74, 58
1, 107664, Note_on_c, 0, 74, 0
1, 107670, Note_on_c, 0, 72, 59
1, 107694, Note_on_c, 0, 72, 0
1, 107700, Note_on_c, 0, 70, 59
1, 107724, Note_on_c, 0, 70, 0
1, 107730, Note_on_c, 0, 69, 60
1, 107754, Note_on_c, 0, 69, 0
1, 107760, Note_on_c, 0, 68, 60
1, 107760, Note_on_c, 1, 46, 60
1, 107760, Note_on_c, 1, 53, 60
1, 107784, Note_on_c, 0, 68, 0
1, 107790, Note_on_c, 0, 72, 61
1, 107814, Note_on_c, 0, 72, 0
1, 107820, Note_on_c, 0, 70, 61
1, 107844, Note_on_c, 0, 70, 0
1, 107850, Note_on_c, 0, 68, 62
1, 107856, Note_on_c, 1, 53, 0
1, 107856, Note_on_c, 1, 46, 0
1, 107874, Note_on_c, 0, 68, 0
1, 107880, Note_on_c, 0, 67, 62
1, 107904, Note_on_c, 0, 67, 0
1, 107910, Note_on_c, 0, 65, 63
1, 107934, Note_on_c, 0, 65, 0
1, 107940, Note_on_c, 0, 63, 63
1, 107964, Note_on_c, 0, 63, 0
1, 107970, Note_on_c, 0, 62, 64
1, 107994, Note_on_c, 0, 62, 0
1, 108000, Note_on_c, 0, 63, 64
1, 108000, Note_on_c, 1, 39, 64
1, 108000, Note_on_c, 1, 51, 64
1, 108024, Note_on_c, 0, 63, 0
1, 108030, Note_on_c, 0, 62, 65
1, 108054, Note_on_c, 0, 62, 0
1, 108060, Note_on_c, 0, 63, 65
1, 108084, Note_on_c, 0, 63, 0
1, 108090, Note_on_c, 0, 67, 66
1, 108096, Note_on_c, 1, 51, 0
1, 108096, Note_on_c, 1, 39, 0
1, 108114, Note_on_c, 0, 67, 0
1, 108120, Note_on_c, 0, 67, 66
1, 108120, Note_on_c, 1, 43, 66
1, 108120, Note_on_c, 1, 55, 66
1, 108144, Note_on_c, 0, 67, 0
1, 108150, Note_on_c, 0, 66, 67
1, 108174, Note_on_c, 0, 66, 0
1, 108180, Note_on_c, 0, 67, 67
1, 108204, Note_on_c, 0, 67, 0
1, 108210, Note_on_c, 0, 70, 68
1, 108216, Note_on_c, 1, 55, 0
1, 108216, Note_on_c, 1, 43, 0
1, 108234, Note_on_c, 0, 70, 0
1, 108240, Note_on_c, 0, 70, 68
1, 108240, Note_on_c, 1, 46, 68
1, 108240, Note_on_c, 1, 58, 68
1, 108264, Note_on_c, 0, 70, 0
1, 108270, Note_on_c, 0, 69, 69
1, 108294, Note_on_c, 0, 69, 0
1, 108300, Note_on_c, 0, 70, 69
1, 108324, Note_on_c, 0, 70, 0
1, 108330, Note_on_c, 0, 75, 70
1, 108336, Note_on_c, 1, 58, 0
1, 108336, Note_on_c, 1, 46, 0
1, 108354, Note_on_c, 0, 75, 0
1, 108360, Note_on_c, 0, 75, 70
1, 108360, Note_on_c, 1, 51, 70
1, 108360, Note_on_c, 1, 63, 70
1, 108384, Note_on_c, 0, 75, 0
1, 108390, Note_on_c, 0, 74, 71
1, 108414, Note_on_c, 0, 74, 0
1, 108420, Note_on_c, 0, 75, 71
1, 108444, Note_on_c, 0, 75, 0
1, 108450, Note_on_c, 0, 79, 72
1, 108456, Note_on_c, 1, 63, 0
1, 108456, Note_on_c, 1, 51, 0
1, 108474, Note_on_c, 0, 79, 0
1, 108480, Note_on_c, 0, 79, 72
1, 108480, Note_on_c, 1, 55, 72
1, 108480, Note_on_c, 1, 67, 72
1, 108504, Note_on_c, 0, 79, 0
1, 108510, Note_on_c, 0, 78, 73
1, 108534, Note_on_c, 0, 78, 0
1, 108540, Note_on_c, 0, 79, 73
1, 108564, Note_on_c, 0, 79, 0
1, 108570, Note_on_c, 0, 82, 74
1, 108576, Note_on_c, 1, 67, 0
1, 108576, Note_on_c, 1, 55, 0
1, 108594, Note_on_c, 0, 82, 0
1, 108600, Note_on_c, 0, 82, 74
1, 108600, Note_on_c, 1, 58, 74
1, 108600, Note_on_c, 1, 70, 74
1, 108624, Note_on_c, 0, 82, 0
1, 108630, Note_on_c, 0, 81, 75
1, 108654, Note_on_c, 0, 81, 0
1, 108660, Note_on_c, 0, 82, 75
1, 108684, Note_on_c, 0, 82, 0
1, 108690, Note_on_c, 0, 87, 76
1, 108696, Note_on_c, 1, 70, 0
1, 108696, Note_on_c, 1, 58, 0
1, 108714, Note_on_c, 0, 87, 0
1, 108720, Note_on_c, 0, 87, 76
1, 108720, Note_on_c, 1, 63, 76
1, 108720, Note_on_c, 1, 75, 76
1, 108744, Note_on_c, 0, 87, 0
1, 108750, Note_on_c, 0, 82, 77
1, 108774, Note_on_c, 0, 82, 0
1, 108780, Note_on_c, 0, 81, 77
1, 108780, Note_on_c, 1, 75, 0
1, 108780, Note_on_c, 1, 63, 0
1, 108804, Note_on_c, 0, 81, 0
1, 108810, Note_on_c, 0, 82, 78
1, 108834, Note_on_c, 0, 82, 0
1, 108840, Note_on_c, 0, 86, 78
1, 108840, Note_on_c, 1, 58, 78
1, 108840, Note_on_c, 1, 68, 78
1, 108864, Note_on_c, 0, 86, 0
1, 108870, Note_on_c, 0, 82, 79
1, 108894, Note_on_c, 0, 82, 0
1, 108900, Note_on_c, 0, 81, 79
1, 108924, Note_on_c, 0, 81, 0
1, 108930, Note_on_c, 0, 82, 80
1, 108936, Note_on_c, 1, 68, 0
1, 108936, Note_on_c, 1, 58, 0
1, 108954, Note_on_c, 0, 82, 0
1, 108960, Note_on_c, 0, 87, 80
1, 108960, Note_on_c, 1, 63, 80
1, 108960, Note_on_c, 1, 67, 80
1, 108984, Note_on_c, 0, 87, 0
1, 108990, Note_on_c, 0, 82, 81
1, 109014, Note_on_c, 0, 82, 0
1, 109020, Note_on_c, 0, 81, 81
1, 109020, Note_on_c, 1, 67, 0
1, 109020, Note_on_c, 1, 63, 0
1, 109044, Note_on_c, 0, 81, 0
1, 109050, Note_on_c, 0, 82, 82
1, 109074, Note_on_c, 0, 82, 0
1, 109080, Note_on_c, 0, 86, 82
1, 109080, Note_on_c, 1, 58, 82
1, 109080, Note_on_c, 1, 68, 82
1, 109104, Note_on_c, 0, 86, 0
1, 109110, Note_on_c, 0, 82, 83
1, 109134, Note_on_c, 0, 82, 0
1, 109140, Note_on_c, 0, 81, 83
1, 109164, Note_on_c, 0, 81, 0
1, 109170, Note_on_c, 0, 82, 84
1, 109176, Note_on_c, 1, 68, 0
1, 109176, Note_on_c, 1, 58, 0
1, 109194, Note_on_c, 0, 82, 0
1, 109200, Note_on_c, 0, 87, 84
1, 109200, Note_on_c, 1, 63, 84
1, 109200, Note_on_c, 1, 67, 84
1, 109224, Note_on_c, 0, 87, 0
1, 109230, Note_on_c, 0, 82, 85
1, 109254, Note_on_c, 0, 82, 0
1, 109260, Note_on_c, 0, 81, 85
1, 109260, Note_on_c, 1, 67, 0
1, 109260, Note_on_c, 1, 63, 0
1, 109284, Note_on_c, 0, 81, 0
1, 109290, Note_on_c, 0, 82, 86
1, 109314, Note_on_c, 0, 82, 0
1, 109320, Note_on_c, 0, 86, 86
1, 109320, Note_on_c, 1, 58, 86
1, 109320, Note_on_c, 1, 68, 86
1, 109344, Note_on_c, 0, 86, 0
1, 109350, Note_on_c, 0, 82, 87
1, 109374, Note_on_c, 0, 82, 0
1, 109380, Note_on_c, 0, 81, 87
1, 109404, Note_on_c, 0, 81, 0
1, 109410, Note_on_c, 0, 82, 88
1, 109416, Note_on_c, 1, 68, 0
1, 109416, Note_on_c, 1, 58, 0
1, 109434, Note_on_c, 0, 82, 0
1, 109440, Note_on_c, 0, 87, 88
1, 109440, Note_on_c, 1, 63, 72
1, 109464, Note_on_c, 1, 63, 0
1, 109470, Note_on_c, 1, 67, 72
1, 109494, Note_on_c, 1, 67, 0
1, 109500, Note_on_c, 1, 63, 72
1, 109524, Note_on_c, 1, 63, 0
1, 109530, Note_on_c, 1, 67, 72
1, 109536, Note_on_c, 0, 87, 0
1, 109554, Note_on_c, 1, 67, 0
1, 109560, Note_on_c, 0, 75, 88
1, 109560, Note_on_c, 0, 79, 88
1, 109560, Note_on_c, 1, 63, 72
1, 109584, Note_on_c, 1, 63, 0
1, 109590, Note_on_c, 1, 67, 72
1, 109614, Note_on_c, 1, 67, 0
1, 109620, Note_on_c, 1, 63, 72
1, 109644, Note_on_c, 1, 63, 0
1, 109650, Note_on_c, 1, 67, 72
1, 109656, Note_on_c, 0, 79, 0
1, 109656, Note_on_c, 0, 75, 0
1, 109674, Note_on_c, 1, 67, 0
1, 109680, Note_on_c, 0, 79, 88
1, 109680, Note_on_c, 0, 82, 88
1, 109680, Note_on_c, 1, 63, 72
1, 109704, Note_on_c, 1, 63, 0
1, 109710, Note_on_c, 1, 67, 72
1, 109734, Note_on_c, 1, 67, 0
1, 109740, Note_on_c, 0, 82, 0
1, 109740, Note_on_c, 0, 79, 0
1, 109740, Note_on_c, 1, 63, 72
1, 109764, Note_on_c, 1, 63, 0
1, 109770, Note_on_c, 1, 67, 72
1, 109794, Note_on_c, 1, 67, 0
1, 109800, Note_on_c, 0, 75, 88
1, 109800, Note_on_c, 0, 79, 88
1, 109800, Note_on_c, 1, 63, 72
1, 109824, Note_on_c, 1, 63, 0
1, 109830, Note_on_c, 1, 67, 72
1, 109854, Note_on_c, 1, 67, 0
1, 109860, Note_on_c, 1, 63, 72
1, 109884, Note_on_c, 1, 63, 0
1, 109890, Note_on_c, 1, 67, 72
1, 109896, Note_on_c, 0, 79, 0
1, 109896, Note_on_c, 0, 75, 0
1, 109914, Note_on_c, 1, 67, 0
1, 109920, Note_on_c, 0, 79, 88
1, 109920, Note_on_c, 0, 82, 88
1, 109920, Note_on_c, 1, 63, 72
1, 109944, Note_on_c, 1, 63, 0
1, 109950, Note_on_c, 1, 67, 72
1, 109973, Note_on_c, 0, 82, 0
1, 109973, Note_on_c, 0, 79, 0
1, 109974, Note_on_c, 1, 67, 0
1, 109980, Note_on_c, 1, 63, 72
1, 110004, Note_on_c, 1, 63, 0
1, 110010, Note_on_c, 1, 67, 72
1, 110025, Note_on_c, 0, 50, 88
1, 110033, Note_on_c, 0, 50, 0
1, 110034, Note_on_c, 1, 67, 0
1, 110040, Note_on_c, 0, 51, 88
1, 110040, Note_on_c, 1, 63, 72
1, 110064, Note_on_c, 1, 63, 0
1, 110070, Note_on_c, 1, 67, 72
1, 110093, Note_on_c, 0, 51, 0
1, 110094, Note_on_c, 1, 67, 0
1, 110100, Note_on_c, 1, 63, 72
1, 110124, Note_on_c, 1, 63, 0
1, 110130, Note_on_c, 1, 67, 72
1, 110145, Note_on_c, 0, 45, 88
1, 110153, Note_on_c, 0, 45, 0
1, 110154, Note_on_c, 1, 67, 0
1, 110160, Note_on_c, 0, 46, 88
1, 110160, Note_on_c, 1, 63, 72
1, 110184, Note_on_c, 1, 63, 0
1, 110190, Note_on_c, 1, 67, 72
1, 110213, Note_on_c, 0, 46, 0
1, 110214, Note_on_c, 1, 67, 0
1, 110220, Note_on_c, 1, 63, 72
1, 110244, Note_on_c, 1, 63, 0
1, 110250, Note_on_c, 1, 67, 72
1, 110265, Note_on_c, 0, 63, 88
1, 110273, Note_on_c, 0, 63, 0
1, 110274, Note_on_c, 1, 67, 0
1, 110280, Note_on_c, 0, 43, 88
1, 110280, Note_on_c, 1, 63, 72
1, 110304, Note_on_c, 1, 63, 0
1, 110310, Note_on_c, 1, 67, 72
1, 110334, Note_on_c, 1, 67, 0
1, 110340, Note_on_c, 0, 43, 0
1, 110340, Note_on_c, 1, 63, 72
1, 110364, Note_on_c, 1, 63, 0
1, 110370, Note_on_c, 1, 67, 72
1, 110394, Note_on_c, 1, 67, 0
1, 110400, Note_on_c, 0, 39, 88
1, 110400, Note_on_c, 1, 63, 88
1, 110520, Note_on_c, 0, 39, 0
1, 110520, Note_on_c, 1, 63, 0
1, 110640, Note_on_c, 0, 87, 88
1, 110640, Note_on_c, 0, 82, 88
1, 110640, Note_on_c, 0, 79, 88
1, 110640, Note_on_c, 1, 63, 88
1, 110640, Note_on_c, 1, 58, 88
1, 110640, Note_on_c, 1, 55, 88
1, 110640, Note_on_c, 1, 51, 88
1, 110760, Note_on_c, 0, 79, 0
1, 110760, Note_on_c, 0, 82, 0
1, 110760, Note_on_c, 0, 87, 0
1, 110760, Note_on_c, 1, 51, 0
1, 110760, Note_on_c, 1, 63, 0
1, 110760, Note_on_c, 1, 58, 0
1, 110760, Note_on_c, 1, 55, 0
1, 110880, Note_on_c, 0, 55, 88
1, 110880, Note_on_c, 0, 58, 88
1, 110880, Note_on_c, 0, 63, 88
1, 110880, Note_on_c, 1, 39, 88
1, 110880, Note_on_c, 1, 43, 88
1, 110880, Note_on_c, 1, 46, 88
1, 110880, Note_on_c, 1, 51, 88
1, 111072, Note_on_c, 0, 63, 0
1, 111072, Note_on_c, 0, 58, 0
1, 111072, Note_on_c, 0, 55, 0
1, 111072, Note_on_c, 1, 51, 0
1, 111072, Note_on_c, 1, 39, 0
1, 111072, Note_on_c, 1, 43, 0
1, 111072, Note_on_c, 1, 46, 0
1, 111082, End_track
0, 0, End_of_file