0, 0, Header, 0, 1, 240
1, 0, Start_track
1, 0, Tempo, 1333333
1, 0, Note_on_c, 0, 67, 64
1, 0, Note_on_c, 1, 55, 56
1, 0, Note_on_c, 1, 59, 56
1, 178, Note_on_c, 0, 67, 0
1, 180, Note_on_c, 0, 69, 64
1, 198, Note_on_c, 0, 69, 0
1, 200, Note_on_c, 0, 67, 64
1, 218, Note_on_c, 0, 67, 0
1, 220, Note_on_c, 0, 66, 64
1, 238, Note_on_c, 0, 66, 0
1, 240, Note_on_c, 0, 67, 72
1, 358, Note_on_c, 0, 67, 0
1, 360, Note_on_c, 0, 71, 64
1, 450, Note_on_c, 0, 71, 0
1, 480, Note_on_c, 0, 74, 64
1, 570, Note_on_c, 0, 74, 0
1, 600, Note_on_c, 0, 67, 64
1, 718, Note_on_c, 0, 67, 0
1, 720, Note_on_c, 0, 66, 64
1, 720, Note_on_c, 1, 59, 0
1, 720, Note_on_c, 1, 55, 0
1, 720, Note_on_c, 1, 50, 56
1, 720, Note_on_c, 1, 57, 56
1, 720, Note_on_c, 1, 60, 56
1, 898, Note_on_c, 0, 66, 0
1, 900, Note_on_c, 0, 67, 64
1, 918, Note_on_c, 0, 67, 0
1, 920, Note_on_c, 0, 66, 64
1, 938, Note_on_c, 0, 66, 0
1, 940, Note_on_c, 0, 64, 64
1, 958, Note_on_c, 0, 64, 0
1, 960, Tempo, 1276596
1, 960, Note_on_c, 0, 66, 64
1, 988, Note_on_c, 0, 66, 0
1, 990, Note_on_c, 0, 69, 64
1, 1018, Note_on_c, 0, 69, 0
1, 1020, Note_on_c, 0, 67, 64
1, 1048, Note_on_c, 0, 67, 0
1, 1050, Note_on_c, 0, 71, 64
1, 1078, Note_on_c, 0, 71, 0
1, 1080, Note_on_c, 0, 69, 64
1, 1108, Note_on_c, 0, 69, 0
1, 1110, Note_on_c, 0, 72, 64
1, 1138, Note_on_c, 0, 72, 0
1, 1140, Note_on_c, 0, 71, 64
1, 1168, Note_on_c, 0, 71, 0
1, 1170, Note_on_c, 0, 74, 64
1, 1198, Note_on_c, 0, 74, 0
1, 1200, Tempo, 1200000
1, 1200, Note_on_c, 0, 72, 64
1, 1296, Note_on_c, 0, 72, 0
1, 1296, Note_on_c, 1, 60, 0
1, 1296, Note_on_c, 1, 57, 0
1, 1296, Note_on_c, 1, 50, 0
1, 1440, Tempo, 1333333
1, 1440, Note_on_c, 0, 69, 64
1, 1440, Note_on_c, 1, 50, 56
1, 1440, Note_on_c, 1, 54, 56
1, 1440, Note_on_c, 1, 60, 56
1, 1618, Note_on_c, 0, 69, 0
1, 1620, Note_on_c, 0, 71, 64
1, 1638, Note_on_c, 0, 71, 0
1, 1640, Note_on_c, 0, 69, 64
1, 1658, Note_on_c, 0, 69, 0
1, 1660, Note_on_c, 0, 68, 64
1, 1678, Note_on_c, 0, 68, 0
1, 1680, Note_on_c, 0, 69, 64
1, 1738, Note_on_c, 0, 69, 0
1, 1740, Note_on_c, 0, 71, 64
1, 1785, Note_on_c, 0, 71, 0
1, 1800, Note_on_c, 0, 72, 64
1, 1845, Note_on_c, 0, 72, 0
1, 1860, Note_on_c, 0, 74, 64
1, 1905, Note_on_c, 0, 74, 0
1, 1920, Note_on_c, 0, 76, 64
1, 1965, Note_on_c, 0, 76, 0
1, 1980, Note_on_c, 0, 72, 64
1, 2040, Note_on_c, 0, 72, 0
1, 2040, Note_on_c, 0, 71, 64
1, 2100, Note_on_c, 0, 71, 0
1, 2100, Note_on_c, 0, 69, 64
1, 2160, Note_on_c, 0, 69, 0
1, 2160, Note_on_c, 0, 71, 64
1, 2160, Note_on_c, 1, 60, 0
1, 2160, Note_on_c, 1, 54, 0
1, 2160, Note_on_c, 1, 50, 0
1, 2160, Note_on_c, 1, 55, 64
1, 2160, Note_on_c, 1, 59, 64
1, 2338, Note_on_c, 0, 71, 0
1, 2340, Note_on_c, 0, 72, 64
1, 2358, Note_on_c, 0, 72, 0
1, 2360, Note_on_c, 0, 71, 64
1, 2378, Note_on_c, 0, 71, 0
1, 2380, Note_on_c, 0, 69, 64
1, 2398, Note_on_c, 0, 69, 0
1, 2400, Tempo, 1276596
1, 2400, Note_on_c, 0, 71, 64
1, 2400, Note_on_c, 1, 59, 0
1, 2400, Note_on_c, 1, 55, 0
1, 2400, Note_on_c, 1, 43, 56
1, 2400, Note_on_c, 1, 47, 56
1, 2428, Note_on_c, 0, 71, 0
1, 2430, Note_on_c, 0, 67, 64
1, 2458, Note_on_c, 0, 67, 0
1, 2460, Note_on_c, 0, 72, 64
1, 2488, Note_on_c, 0, 72, 0
1, 2490, Note_on_c, 0, 69, 64
1, 2518, Note_on_c, 0, 69, 0
1, 2520, Note_on_c, 0, 74, 64
1, 2548, Note_on_c, 0, 74, 0
1, 2550, Note_on_c, 0, 71, 64
1, 2578, Note_on_c, 0, 71, 0
1, 2580, Note_on_c, 0, 76, 64
1, 2608, Note_on_c, 0, 76, 0
1, 2610, Note_on_c, 0, 72, 64
1, 2638, Note_on_c, 0, 72, 0
1, 2640, Tempo, 1200000
1, 2640, Note_on_c, 0, 74, 64
1, 2640, Note_on_c, 1, 47, 0
1, 2640, Note_on_c, 1, 43, 0
1, 2758, Note_on_c, 0, 74, 0
1, 2880, Tempo, 1333333
1, 2880, Note_on_c, 0, 79, 64
1, 2880, Note_on_c, 1, 59, 64
1, 2880, Note_on_c, 1, 62, 64
1, 2880, Note_on_c, 1, 67, 64
1, 3058, Note_on_c, 0, 79, 0
1, 3060, Note_on_c, 0, 81, 64
1, 3078, Note_on_c, 0, 81, 0
1, 3080, Note_on_c, 0, 79, 64
1, 3098, Note_on_c, 0, 79, 0
1, 3100, Note_on_c, 0, 78, 64
1, 3118, Note_on_c, 0, 78, 0
1, 3120, Tempo, 1304348
1, 3120, Note_on_c, 0, 79, 64
1, 3178, Note_on_c, 0, 79, 0
1, 3180, Note_on_c, 0, 83, 64
1, 3216, Note_on_c, 0, 83, 0
1, 3240, Note_on_c, 0, 86, 64
1, 3276, Note_on_c, 0, 86, 0
1, 3300, Note_on_c, 0, 83, 64
1, 3336, Note_on_c, 0, 83, 0
1, 3360, Tempo, 1276596
1, 3360, Note_on_c, 0, 79, 64
1, 3396, Note_on_c, 0, 79, 0
1, 3420, Note_on_c, 0, 74, 64
1, 3480, Note_on_c, 0, 74, 0
1, 3480, Note_on_c, 0, 72, 64
1, 3540, Note_on_c, 0, 72, 0
1, 3540, Note_on_c, 0, 71, 64
1, 3600, Tempo, 1333333
1, 3600, Note_on_c, 0, 71, 0
1, 3600, Note_on_c, 0, 69, 64
1, 3600, Note_on_c, 1, 67, 0
1, 3600, Note_on_c, 1, 62, 0
1, 3600, Note_on_c, 1, 59, 0
1, 3600, Note_on_c, 1, 60, 64
1, 3600, Note_on_c, 1, 64, 64
1, 3778, Note_on_c, 0, 69, 0
1, 3780, Note_on_c, 0, 71, 64
1, 3798, Note_on_c, 0, 71, 0
1, 3800, Note_on_c, 0, 69, 64
1, 3818, Note_on_c, 0, 69, 0
1, 3820, Note_on_c, 0, 68, 64
1, 3838, Note_on_c, 0, 68, 0
1, 3840, Tempo, 1304348
1, 3840, Note_on_c, 0, 69, 64
1, 3840, Note_on_c, 1, 64, 0
1, 3840, Note_on_c, 1, 60, 0
1, 3840, Note_on_c, 1, 48, 56
1, 3840, Note_on_c, 1, 52, 56
1, 3898, Note_on_c, 0, 69, 0
1, 3900, Note_on_c, 0, 71, 64
1, 3936, Note_on_c, 0, 71, 0
1, 3960, Note_on_c, 0, 72, 64
1, 3996, Note_on_c, 0, 72, 0
1, 4020, Note_on_c, 0, 74, 64
1, 4056, Note_on_c, 0, 74, 0
1, 4080, Tempo, 1276596
1, 4080, Note_on_c, 0, 75, 64
1, 4080, Note_on_c, 1, 52, 0
1, 4080, Note_on_c, 1, 48, 0
1, 4116, Note_on_c, 0, 75, 0
1, 4140, Note_on_c, 0, 76, 64
1, 4198, Note_on_c, 0, 76, 0
1, 4200, Note_on_c, 0, 72, 64
1, 4258, Note_on_c, 0, 72, 0
1, 4260, Note_on_c, 0, 69, 64
1, 4318, Note_on_c, 0, 69, 0
1, 4320, Tempo, 1250000
1, 4320, Note_on_c, 0, 74, 64
1, 4320, Note_on_c, 1, 50, 64
1, 4560, Tempo, 1276596
1, 4560, Note_on_c, 1, 50, 0
1, 4560, Note_on_c, 1, 55, 64
1, 4560, Note_on_c, 1, 59, 64
1, 4800, Tempo, 1304348
1, 4800, Note_on_c, 1, 59, 0
1, 4800, Note_on_c, 1, 55, 0
1, 4800, Note_on_c, 1, 57, 48
1, 4800, Note_on_c, 1, 60, 48
1, 4838, Note_on_c, 0, 74, 0
1, 4840, Note_on_c, 0, 73, 32
1, 4878, Note_on_c, 0, 73, 0
1, 4880, Note_on_c, 0, 72, 32
1, 4918, Note_on_c, 0, 72, 0
1, 4920, Note_on_c, 0, 71, 32
1, 4920, Note_on_c, 1, 60, 0
1, 4920, Note_on_c, 1, 57, 0
1, 4958, Note_on_c, 0, 71, 0
1, 4960, Note_on_c, 0, 70, 32
1, 4998, Note_on_c, 0, 70, 0
1, 5000, Note_on_c, 0, 69, 32
1, 5038, Note_on_c, 0, 69, 0
1, 5040, Tempo, 1333333
1, 5040, Note_on_c, 0, 67, 32
1, 5040, Note_on_c, 1, 59, 32
1, 5040, Note_on_c, 1, 55, 32
1, 5278, Note_on_c, 0, 67, 0
1, 5280, Note_on_c, 1, 55, 0
1, 5280, Note_on_c, 1, 59, 0
1, 5280, Note_on_c, 1, 43, 16
1, 5400, Note_on_c, 1, 43, 0
1, 5520, Note_on_c, 0, 55, 64
1, 5550, Note_on_c, 0, 59, 64
1, 5580, Note_on_c, 0, 62, 64
1, 5608, Note_on_c, 0, 55, 0
1, 5610, Note_on_c, 0, 67, 64
1, 5638, Note_on_c, 0, 59, 0
1, 5640, Note_on_c, 0, 71, 64
1, 5668, Note_on_c, 0, 62, 0
1, 5670, Note_on_c, 0, 74, 64
1, 5698, Note_on_c, 0, 67, 0
1, 5700, Note_on_c, 0, 79, 64
1, 5728, Note_on_c, 0, 71, 0
1, 5730, Note_on_c, 0, 83, 64
1, 5758, Note_on_c, 0, 83, 0
1, 5758, Note_on_c, 0, 79, 0
1, 5758, Note_on_c, 0, 74, 0
1, 5760, Note_on_c, 0, 86, 64
1, 6000, Tempo, 1276596
1, 6000, Note_on_c, 1, 55, 64
1, 6000, Note_on_c, 1, 59, 64
1, 6058, Note_on_c, 0, 86, 0
1, 6060, Note_on_c, 0, 84, 64
1, 6088, Note_on_c, 0, 84, 0
1, 6090, Note_on_c, 0, 83, 64
1, 6118, Note_on_c, 0, 83, 0
1, 6120, Note_on_c, 0, 81, 64
1, 6120, Note_on_c, 1, 59, 0
1, 6120, Note_on_c, 1, 55, 0
1, 6148, Note_on_c, 0, 81, 0
1, 6150, Note_on_c, 0, 79, 64
1, 6178, Note_on_c, 0, 79, 0
1, 6180, Note_on_c, 0, 78, 64
1, 6208, Note_on_c, 0, 78, 0
1, 6210, Note_on_c, 0, 79, 64
1, 6238, Note_on_c, 0, 79, 0
1, 6240, Tempo, 1250000
1, 6240, Note_on_c, 0, 81, 64
1, 6240, Note_on_c, 1, 67, 64
1, 6240, Note_on_c, 1, 71, 64
1, 6268, Note_on_c, 0, 81, 0
1, 6270, Note_on_c, 0, 79, 64
1, 6298, Note_on_c, 0, 79, 0
1, 6300, Note_on_c, 0, 83, 64
1, 6328, Note_on_c, 0, 83, 0
1, 6330, Note_on_c, 0, 81, 64
1, 6358, Note_on_c, 0, 81, 0
1, 6360, Note_on_c, 0, 84, 64
1, 6360, Note_on_c, 1, 71, 0
1, 6360, Note_on_c, 1, 67, 0
1, 6388, Note_on_c, 0, 84, 0
1, 6390, Note_on_c, 0, 83, 64
1, 6418, Note_on_c, 0, 83, 0
1, 6420, Note_on_c, 0, 81, 64
1, 6448, Note_on_c, 0, 81, 0
1, 6450, Note_on_c, 0, 79, 64
1, 6478, Note_on_c, 0, 79, 0
1, 6480, Tempo, 1333333
1, 6480, Note_on_c, 0, 80, 64
1, 6660, Note_on_c, 0, 80, 0
1, 6660, Note_on_c, 0, 83, 64
1, 6718, Note_on_c, 0, 83, 0
1, 6720, Tempo, 1304348
1, 6720, Note_on_c, 0, 81, 48
1, 6720, Note_on_c, 1, 62, 64
1, 6720, Note_on_c, 1, 54, 64
1, 6838, Note_on_c, 0, 81, 0
1, 6840, Note_on_c, 1, 54, 0
1, 6840, Note_on_c, 1, 62, 0
1, 6960, Tempo, 1276596
1, 6960, Note_on_c, 1, 54, 48
1, 6960, Note_on_c, 1, 62, 48
1, 7020, Note_on_c, 0, 74, 70
1, 7048, Note_on_c, 0, 74, 0
1, 7050, Note_on_c, 0, 76, 73
1, 7078, Note_on_c, 0, 76, 0
1, 7080, Note_on_c, 0, 78, 76
1, 7080, Note_on_c, 1, 62, 0
1, 7080, Note_on_c, 1, 54, 0
1, 7108, Note_on_c, 0, 78, 0
1, 7110, Note_on_c, 0, 79, 79
1, 7138, Note_on_c, 0, 79, 0
1, 7140, Note_on_c, 0, 81, 82
1, 7168, Note_on_c, 0, 81, 0
1, 7170, Note_on_c, 0, 83, 85
1, 7198, Note_on_c, 0, 83, 0
1, 7200, Tempo, 1333333
1, 7200, Note_on_c, 0, 86, 56
1, 7440, Tempo, 1304348
1, 7440, Note_on_c, 1, 54, 56
1, 7440, Note_on_c, 1, 62, 56
1, 7468, Note_on_c, 0, 86, 0
1, 7470, Note_on_c, 0, 81, 64
1, 7498, Note_on_c, 0, 81, 0
1, 7500, Note_on_c, 0, 79, 64
1, 7528, Note_on_c, 0, 79, 0
1, 7530, Note_on_c, 0, 81, 64
1, 7558, Note_on_c, 0, 81, 0
1, 7560, Note_on_c, 0, 78, 64
1, 7560, Note_on_c, 1, 62, 0
1, 7560, Note_on_c, 1, 54, 0
1, 7588, Note_on_c, 0, 78, 0
1, 7590, Note_on_c, 0, 79, 64
1, 7618, Note_on_c, 0, 79, 0
1, 7620, Note_on_c, 0, 76, 64
1, 7648, Note_on_c, 0, 76, 0
1, 7650, Note_on_c, 0, 78, 64
1, 7678, Note_on_c, 0, 78, 0
1, 7680, Tempo, 1276596
1, 7680, Note_on_c, 0, 74, 64
1, 7680, Note_on_c, 1, 54, 48
1, 7680, Note_on_c, 1, 62, 48
1, 7708, Note_on_c, 0, 74, 0
1, 7710, Note_on_c, 0, 76, 64
1, 7738, Note_on_c, 0, 76, 0
1, 7740, Note_on_c, 0, 73, 64
1, 7768, Note_on_c, 0, 73, 0
1, 7770, Note_on_c, 0, 76, 64
1, 7798, Note_on_c, 0, 76, 0
1, 7800, Note_on_c, 0, 74, 64
1, 7800, Note_on_c, 1, 62, 0
1, 7800, Note_on_c, 1, 54, 0
1, 7858, Note_on_c, 0, 74, 0
1, 7890, Note_on_c, 0, 81, 64
1, 7918, Note_on_c, 0, 81, 0
1, 7920, Tempo, 1250000
1, 7920, Note_on_c, 0, 81, 64
1, 8038, Note_on_c, 0, 81, 0
1, 8040, Note_on_c, 0, 80, 64
1, 8160, Tempo, 1276596
1, 8160, Note_on_c, 1, 71, 64
1, 8160, Note_on_c, 1, 64, 64
1, 8278, Note_on_c, 0, 80, 0
1, 8280, Note_on_c, 0, 80, 64
1, 8400, Tempo, 1304348
1, 8400, Note_on_c, 1, 64, 0
1, 8400, Note_on_c, 1, 62, 64
1, 8484, Note_on_c, 0, 80, 0
1, 8520, Note_on_c, 0, 79, 64
1, 8640, Tempo, 1333333
1, 8640, Note_on_c, 1, 62, 0
1, 8640, Note_on_c, 1, 71, 0
1, 8640, Note_on_c, 1, 61, 64
1, 8640, Note_on_c, 1, 69, 64
1, 8668, Note_on_c, 0, 79, 0
1, 8670, Note_on_c, 0, 76, 64
1, 8698, Note_on_c, 0, 76, 0
1, 8700, Note_on_c, 0, 78, 64
1, 8728, Note_on_c, 0, 78, 0
1, 8730, Note_on_c, 0, 79, 64
1, 8758, Note_on_c, 0, 79, 0
1, 8760, Note_on_c, 0, 81, 64
1, 8788, Note_on_c, 0, 81, 0
1, 8790, Note_on_c, 0, 83, 64
1, 8818, Note_on_c, 0, 83, 0
1, 8820, Note_on_c, 0, 85, 64
1, 8848, Note_on_c, 0, 85, 0
1, 8850, Note_on_c, 0, 86, 64
1, 8878, Note_on_c, 0, 86, 0
1, 8880, Tempo, 1276596
1, 8880, Note_on_c, 0, 88, 64
1, 8908, Note_on_c, 0, 88, 0
1, 8910, Note_on_c, 0, 86, 64
1, 8938, Note_on_c, 0, 86, 0
1, 8940, Note_on_c, 0, 85, 64
1, 8968, Note_on_c, 0, 85, 0
1, 8970, Note_on_c, 0, 83, 64
1, 8998, Note_on_c, 0, 83, 0
1, 9000, Note_on_c, 0, 81, 64
1, 9028, Note_on_c, 0, 81, 0
1, 9030, Note_on_c, 0, 80, 64
1, 9058, Note_on_c, 0, 80, 0
1, 9060, Note_on_c, 0, 81, 64
1, 9088, Note_on_c, 0, 81, 0
1, 9090, Note_on_c, 0, 80, 64
1, 9118, Note_on_c, 0, 80, 0
1, 9120, Tempo, 1224490
1, 9120, Note_on_c, 0, 81, 64
1, 9148, Note_on_c, 0, 81, 0
1, 9150, Note_on_c, 0, 82, 64
1, 9178, Note_on_c, 0, 82, 0
1, 9180, Note_on_c, 0, 83, 64
1, 9208, Note_on_c, 0, 83, 0
1, 9210, Note_on_c, 0, 82, 64
1, 9238, Note_on_c, 0, 82, 0
1, 9240, Note_on_c, 0, 83, 64
1, 9268, Note_on_c, 0, 83, 0
1, 9270, Note_on_c, 0, 79, 64
1, 9298, Note_on_c, 0, 79, 0
1, 9300, Note_on_c, 0, 78, 64
1, 9328, Note_on_c, 0, 78, 0
1, 9330, Note_on_c, 0, 76, 64
1, 9358, Note_on_c, 0, 76, 0
1, 9360, Note_on_c, 0, 78, 64
1, 9360, Note_on_c, 1, 69, 0
1, 9360, Note_on_c, 1, 61, 0
1, 9360, Note_on_c, 1, 62, 64
1, 9360, Note_on_c, 1, 69, 64
1, 9388, Note_on_c, 0, 78, 0
1, 9390, Note_on_c, 0, 74, 64
1, 9418, Note_on_c, 0, 74, 0
1, 9420, Note_on_c, 0, 76, 64
1, 9448, Note_on_c, 0, 76, 0
1, 9450, Note_on_c, 0, 78, 64
1, 9478, Note_on_c, 0, 78, 0
1, 9480, Note_on_c, 0, 79, 64
1, 9508, Note_on_c, 0, 79, 0
1, 9510, Note_on_c, 0, 81, 64
1, 9538, Note_on_c, 0, 81, 0
1, 9540, Note_on_c, 0, 83, 64
1, 9568, Note_on_c, 0, 83, 0
1, 9570, Note_on_c, 0, 85, 64
1, 9598, Note_on_c, 0, 85, 0
1, 9600, Note_on_c, 0, 86, 64
1, 9600, Note_on_c, 1, 69, 0
1, 9600, Note_on_c, 1, 62, 0
1, 9628, Note_on_c, 0, 86, 0
1, 9630, Note_on_c, 0, 85, 64
1, 9645, Note_on_c, 0, 85, 0
1, 9660, Note_on_c, 0, 86, 64
1, 9688, Note_on_c, 0, 86, 0
1, 9690, Note_on_c, 0, 85, 64
1, 9705, Note_on_c, 0, 85, 0
1, 9720, Note_on_c, 0, 86, 64
1, 9748, Note_on_c, 0, 86, 0
1, 9750, Note_on_c, 0, 85, 64
1, 9765, Note_on_c, 0, 85, 0
1, 9780, Note_on_c, 0, 86, 64
1, 9808, Note_on_c, 0, 86, 0
1, 9810, Note_on_c, 0, 85, 64
1, 9838, Note_on_c, 0, 85, 0
1, 9840, Note_on_c, 0, 86, 64
1, 9840, Note_on_c, 1, 54, 64
1, 9840, Note_on_c, 1, 62, 64
1, 9868, Note_on_c, 0, 86, 0
1, 9870, Note_on_c, 0, 85, 64
1, 9898, Note_on_c, 0, 85, 0
1, 9900, Note_on_c, 0, 83, 64
1, 9928, Note_on_c, 0, 83, 0
1, 9930, Note_on_c, 0, 81, 64
1, 9958, Note_on_c, 0, 81, 0
1, 9960, Note_on_c, 0, 79, 64
1, 9988, Note_on_c, 0, 79, 0
1, 9990, Note_on_c, 0, 78, 64
1, 10018, Note_on_c, 0, 78, 0
1, 10020, Note_on_c, 0, 76, 64
1, 10048, Note_on_c, 0, 76, 0
1, 10050, Note_on_c, 0, 74, 64
1, 10078, Note_on_c, 0, 74, 0
1, 10080, Note_on_c, 0, 76, 64
1, 10080, Note_on_c, 1, 62, 0
1, 10080, Note_on_c, 1, 54, 0
1, 10080, Note_on_c, 1, 55, 40
1, 10080, Note_on_c, 1, 59, 40
1, 10108, Note_on_c, 0, 76, 0
1, 10110, Note_on_c, 0, 75, 41
1, 10138, Note_on_c, 0, 75, 0
1, 10140, Note_on_c, 0, 78, 42
1, 10168, Note_on_c, 0, 78, 0
1, 10170, Note_on_c, 0, 76, 43
1, 10198, Note_on_c, 0, 76, 0
1, 10200, Note_on_c, 0, 79, 44
1, 10228, Note_on_c, 0, 79, 0
1, 10230, Note_on_c, 0, 78, 45
1, 10258, Note_on_c, 0, 78, 0
1, 10260, Note_on_c, 0, 81, 46
1, 10288, Note_on_c, 0, 81, 0
1, 10290, Note_on_c, 0, 79, 47
1, 10318, Note_on_c, 0, 79, 0
1, 10320, Tempo, 1250000
1, 10320, Note_on_c, 0, 83, 48
1, 10320, Note_on_c, 1, 59, 0
1, 10320, Note_on_c, 1, 55, 0
1, 10348, Note_on_c, 0, 83, 0
1, 10350, Note_on_c, 0, 79, 49
1, 10378, Note_on_c, 0, 79, 0
1, 10380, Note_on_c, 0, 78, 50
1, 10408, Note_on_c, 0, 78, 0
1, 10410, Note_on_c, 0, 76, 51
1, 10438, Note_on_c, 0, 76, 0
1, 10440, Note_on_c, 0, 75, 52
1, 10468, Note_on_c, 0, 75, 0
1, 10470, Note_on_c, 0, 76, 53
1, 10498, Note_on_c, 0, 76, 0
1, 10500, Note_on_c, 0, 78, 54
1, 10528, Note_on_c, 0, 78, 0
1, 10530, Note_on_c, 0, 76, 55
1, 10558, Note_on_c, 0, 76, 0
1, 10560, Tempo, 1304348
1, 10560, Note_on_c, 0, 79, 56
1, 10588, Note_on_c, 0, 79, 0
1, 10590, Note_on_c, 0, 78, 57
1, 10618, Note_on_c, 0, 78, 0
1, 10620, Note_on_c, 0, 81, 58
1, 10648, Note_on_c, 0, 81, 0
1, 10650, Note_on_c, 0, 79, 59
1, 10678, Note_on_c, 0, 79, 0
1, 10680, Note_on_c, 0, 83, 60
1, 10708, Note_on_c, 0, 83, 0
1, 10710, Note_on_c, 0, 79, 61
1, 10725, Note_on_c, 0, 79, 0
1, 10740, Note_on_c, 0, 78, 62
1, 10755, Note_on_c, 0, 78, 0
1, 10770, Note_on_c, 0, 76, 63
1, 10785, Note_on_c, 0, 76, 0
1, 10800, Tempo, 1250000
1, 10800, Note_on_c, 0, 81, 56
1, 10800, Note_on_c, 1, 57, 64
1, 10800, Note_on_c, 1, 62, 64
1, 10800, Note_on_c, 1, 66, 64
1, 10828, Note_on_c, 0, 81, 0
1, 10830, Note_on_c, 0, 83, 57
1, 10858, Note_on_c, 0, 83, 0
1, 10860, Note_on_c, 0, 80, 57
1, 10888, Note_on_c, 0, 80, 0
1, 10890, Note_on_c, 0, 83, 58
1, 10918, Note_on_c, 0, 83, 0
1, 10920, Note_on_c, 0, 81, 59
1, 10948, Note_on_c, 0, 81, 0
1, 10950, Note_on_c, 0, 83, 59
1, 10978, Note_on_c, 0, 83, 0
1, 10980, Note_on_c, 0, 80, 60
1, 11008, Note_on_c, 0, 80, 0
1, 11010, Note_on_c, 0, 83, 61
1, 11038, Note_on_c, 0, 83, 0
1, 11040, Tempo, 1276596
1, 11040, Note_on_c, 0, 81, 61
1, 11068, Note_on_c, 0, 81, 0
1, 11070, Note_on_c, 0, 83, 62
1, 11098, Note_on_c, 0, 83, 0
1, 11100, Note_on_c, 0, 80, 63
1, 11128, Note_on_c, 0, 80, 0
1, 11130, Note_on_c, 0, 83, 63
1, 11158, Note_on_c, 0, 83, 0
1, 11160, Note_on_c, 0, 81, 64
1, 11188, Note_on_c, 0, 81, 0
1, 11190, Note_on_c, 0, 83, 65
1, 11218, Note_on_c, 0, 83, 0
1, 11220, Note_on_c, 0, 80, 65
1, 11248, Note_on_c, 0, 80, 0
1, 11250, Note_on_c, 0, 83, 66
1, 11278, Note_on_c, 0, 83, 0
1, 11280, Tempo, 1333333
1, 11280, Note_on_c, 0, 81, 67
1, 11340, Note_on_c, 0, 81, 0
1, 11340, Note_on_c, 0, 82, 68
1, 11364, Note_on_c, 0, 82, 0
1, 11400, Note_on_c, 0, 83, 69
1, 11424, Note_on_c, 0, 83, 0
1, 11460, Note_on_c, 0, 86, 71
1, 11484, Note_on_c, 0, 86, 0
1, 11520, Tempo, 1363636
1, 11520, Note_on_c, 0, 76, 56
1, 11520, Note_on_c, 1, 66, 0
1, 11520, Note_on_c, 1, 62, 0
1, 11520, Note_on_c, 1, 57, 0
1, 11544, Note_on_c, 0, 76, 0
1, 11550, Note_on_c, 0, 78, 57
1, 11574, Note_on_c, 0, 78, 0
1, 11580, Note_on_c, 0, 76, 57
1, 11604, Note_on_c, 0, 76, 0
1, 11610, Note_on_c, 0, 78, 58
1, 11634, Note_on_c, 0, 78, 0
1, 11640, Note_on_c, 0, 76, 59
1, 11656, Note_on_c, 0, 76, 0
1, 11660, Note_on_c, 0, 78, 59
1, 11676, Note_on_c, 0, 78, 0
1, 11680, Note_on_c, 0, 76, 60
1, 11696, Note_on_c, 0, 76, 0
1, 11700, Note_on_c, 0, 78, 60
1, 11716, Note_on_c, 0, 78, 0
1, 11720, Note_on_c, 0, 76, 60
1, 11736, Note_on_c, 0, 76, 0
1, 11740, Note_on_c, 0, 78, 61
1, 11756, Note_on_c, 0, 78, 0
1, 11760, Note_on_c, 0, 76, 61
1, 11760, Note_on_c, 1, 33, 64
1, 11760, Note_on_c, 1, 45, 64
1, 11772, Note_on_c, 0, 76, 0
1, 11775, Note_on_c, 0, 78, 62
1, 11787, Note_on_c, 0, 78, 0
1, 11790, Note_on_c, 0, 76, 62
1, 11802, Note_on_c, 0, 76, 0
1, 11805, Note_on_c, 0, 78, 62
1, 11817, Note_on_c, 0, 78, 0
1, 11820, Note_on_c, 0, 76, 63
1, 11832, Note_on_c, 0, 76, 0
1, 11835, Note_on_c, 0, 78, 63
1, 11847, Note_on_c, 0, 78, 0
1, 11850, Note_on_c, 0, 76, 63
1, 11862, Note_on_c, 0, 76, 0
1, 11865, Note_on_c, 0, 78, 64
1, 11877, Note_on_c, 0, 78, 0
1, 11880, Note_on_c, 0, 76, 64
1, 11892, Note_on_c, 0, 76, 0
1, 11895, Note_on_c, 0, 78, 64
1, 11907, Note_on_c, 0, 78, 0
1, 11910, Note_on_c, 0, 76, 65
1, 11922, Note_on_c, 0, 76, 0
1, 11925, Note_on_c, 0, 78, 65
1, 11937, Note_on_c, 0, 78, 0
1, 11940, Note_on_c, 0, 76, 65
1, 11952, Note_on_c, 0, 76, 0
1, 11955, Note_on_c, 0, 78, 66
1, 11967, Note_on_c, 0, 78, 0
1, 11970, Note_on_c, 0, 76, 66
1, 11982, Note_on_c, 0, 76, 0
1, 11985, Note_on_c, 0, 78, 66
1, 11997, Note_on_c, 0, 78, 0
1, 12000, Note_on_c, 0, 76, 67
1, 12000, Note_on_c, 1, 45, 0
1, 12000, Note_on_c, 1, 33, 0
1, 12000, Note_on_c, 1, 57, 64
1, 12000, Note_on_c, 1, 61, 64
1, 12000, Note_on_c, 1, 67, 64
1, 12012, Note_on_c, 0, 76, 0
1, 12015, Note_on_c, 0, 78, 67
1, 12027, Note_on_c, 0, 78, 0
1, 12030, Note_on_c, 0, 76, 67
1, 12042, Note_on_c, 0, 76, 0
1, 12045, Note_on_c, 0, 78, 68
1, 12057, Note_on_c, 0, 78, 0
1, 12060, Note_on_c, 0, 76, 68
1, 12072, Note_on_c, 0, 76, 0
1, 12075, Note_on_c, 0, 78, 68
1, 12087, Note_on_c, 0, 78, 0
1, 12090, Note_on_c, 0, 76, 69
1, 12102, Note_on_c, 0, 76, 0
1, 12105, Note_on_c, 0, 78, 69
1, 12117, Note_on_c, 0, 78, 0
1, 12120, Note_on_c, 0, 76, 69
1, 12132, Note_on_c, 0, 76, 0
1, 12135, Note_on_c, 0, 78, 70
1, 12147, Note_on_c, 0, 78, 0
1, 12150, Note_on_c, 0, 76, 70
1, 12162, Note_on_c, 0, 76, 0
1, 12165, Note_on_c, 0, 78, 70
1, 12177, Note_on_c, 0, 78, 0
1, 12180, Note_on_c, 0, 76, 71
1, 12188, Note_on_c, 0, 76, 0
1, 12190, Note_on_c, 0, 78, 71
1, 12198, Note_on_c, 0, 78, 0
1, 12200, Note_on_c, 0, 76, 71
1, 12208, Note_on_c, 0, 76, 0
1, 12210, Note_on_c, 0, 74, 71
1, 12222, Note_on_c, 0, 74, 0
1, 12225, Note_on_c, 0, 76, 72
1, 12237, Note_on_c, 0, 76, 0
1, 12240, Tempo, 1250000
1, 12240, Note_on_c, 0, 74, 72
1, 12240, Note_on_c, 1, 67, 0
1, 12240, Note_on_c, 1, 61, 0
1, 12240, Note_on_c, 1, 57, 0
1, 12240, Note_on_c, 1, 62, 64
1, 12240, Note_on_c, 1, 66, 64
1, 12432, Note_on_c, 0, 74, 0
1, 12432, Note_on_c, 1, 66, 0
1, 12432, Note_on_c, 1, 62, 0
1, 12480, Tempo, 1304348
1, 12480, Note_on_c, 1, 42, 24
1, 12510, Note_on_c, 0, 81, 57
1, 12538, Note_on_c, 0, 81, 0
1, 12540, Note_on_c, 0, 79, 58
1, 12568, Note_on_c, 0, 79, 0
1, 12570, Note_on_c, 0, 78, 59
1, 12598, Note_on_c, 0, 78, 0
1, 12600, Note_on_c, 0, 76, 60
1, 12600, Note_on_c, 1, 42, 0
1, 12628, Note_on_c, 0, 76, 0
1, 12630, Note_on_c, 0, 74, 61
1, 12645, Note_on_c, 0, 74, 0
1, 12660, Note_on_c, 0, 73, 62
1, 12675, Note_on_c, 0, 73, 0
1, 12690, Note_on_c, 0, 71, 63
1, 12705, Note_on_c, 0, 71, 0
1, 12720, Tempo, 1333333
1, 12720, Note_on_c, 0, 69, 64
1, 12748, Note_on_c, 0, 69, 0
1, 12750, Note_on_c, 0, 67, 65
1, 12765, Note_on_c, 0, 67, 0
1, 12780, Note_on_c, 0, 66, 66
1, 12795, Note_on_c, 0, 66, 0
1, 12810, Note_on_c, 0, 64, 67
1, 12825, Note_on_c, 0, 64, 0
1, 12840, Note_on_c, 0, 62, 68
1, 12868, Note_on_c, 0, 62, 0
1, 12870, Note_on_c, 0, 61, 69
1, 12885, Note_on_c, 0, 61, 0
1, 12900, Note_on_c, 0, 59, 70
1, 12915, Note_on_c, 0, 59, 0
1, 12930, Note_on_c, 0, 57, 71
1, 12945, Note_on_c, 0, 57, 0
1, 12960, Tempo, 1395349
1, 12960, Note_on_c, 0, 58, 64
1, 13200, Tempo, 1428571
1, 13200, Note_on_c, 1, 31, 56
1, 13258, Note_on_c, 0, 58, 0
1, 13260, Note_on_c, 0, 59, 64
1, 13318, Note_on_c, 0, 59, 0
1, 13320, Note_on_c, 0, 61, 64
1, 13320, Note_on_c, 1, 31, 0
1, 13378, Note_on_c, 0, 61, 0
1, 13380, Note_on_c, 0, 62, 64
1, 13438, Note_on_c, 0, 62, 0
1, 13440, Tempo, 1463415
1, 13440, Note_on_c, 0, 52, 64
1, 13440, Note_on_c, 1, 33, 40
1, 13498, Note_on_c, 0, 52, 0
1, 13500, Note_on_c, 0, 54, 64
1, 13558, Note_on_c, 0, 54, 0
1, 13560, Note_on_c, 0, 55, 64
1, 13560, Note_on_c, 1, 33, 0
1, 13618, Note_on_c, 0, 55, 0
1, 13620, Note_on_c, 0, 49, 64
1, 13678, Note_on_c, 0, 49, 0
1, 13680, Tempo, 1714286
1, 13680, Note_on_c, 0, 49, 64
1, 13824, Note_on_c, 0, 49, 0
1, 13860, Note_on_c, 0, 50, 24
1, 13908, Note_on_c, 0, 50, 0
1, 13920, Note_on_c, 1, 38, 24
1, 14088, Note_on_c, 1, 38, 0
1, 14400, Tempo, 1333333
1, 14400, Note_on_c, 0, 71, 64
1, 14400, Note_on_c, 1, 59, 64
1, 14400, Note_on_c, 1, 51, 64
1, 14400, Note_on_c, 1, 54, 64
1, 14578, Note_on_c, 0, 71, 0
1, 14580, Note_on_c, 0, 73, 64
1, 14598, Note_on_c, 0, 73, 0
1, 14600, Note_on_c, 0, 71, 64
1, 14618, Note_on_c, 0, 71, 0
1, 14620, Note_on_c, 0, 70, 64
1, 14638, Note_on_c, 0, 70, 0
1, 14640, Tempo, 1363636
1, 14640, Note_on_c, 0, 71, 64
1, 14758, Note_on_c, 0, 71, 0
1, 14760, Note_on_c, 0, 75, 64
1, 14878, Note_on_c, 0, 75, 0
1, 14880, Tempo, 1428571
1, 14880, Note_on_c, 0, 78, 64
1, 14998, Note_on_c, 0, 78, 0
1, 15000, Note_on_c, 0, 66, 64
1, 15000, Note_on_c, 0, 69, 64
1, 15118, Note_on_c, 0, 69, 0
1, 15118, Note_on_c, 0, 66, 0
1, 15120, Tempo, 1395349
1, 15120, Note_on_c, 0, 66, 64
1, 15120, Note_on_c, 0, 69, 64
1, 15120, Note_on_c, 1, 54, 0
1, 15120, Note_on_c, 1, 51, 0
1, 15120, Note_on_c, 1, 52, 64
1, 15238, Note_on_c, 0, 69, 0
1, 15238, Note_on_c, 0, 66, 0
1, 15240, Note_on_c, 0, 64, 64
1, 15240, Note_on_c, 0, 67, 64
1, 15240, Note_on_c, 1, 52, 0
1, 15240, Note_on_c, 1, 59, 0
1, 15240, Note_on_c, 1, 58, 64
1, 15240, Note_on_c, 1, 61, 64
1, 15270, Note_on_c, 0, 67, 0
1, 15270, Note_on_c, 0, 64, 0
1, 15270, Note_on_c, 0, 66, 64
1, 15270, Note_on_c, 0, 69, 64
1, 15300, Note_on_c, 0, 69, 0
1, 15300, Note_on_c, 0, 66, 0
1, 15300, Note_on_c, 0, 67, 64
1, 15300, Note_on_c, 0, 64, 64
1, 15320, Note_on_c, 0, 64, 0
1, 15320, Note_on_c, 0, 67, 0
1, 15320, Note_on_c, 0, 69, 64
1, 15320, Note_on_c, 0, 66, 64
1, 15340, Note_on_c, 0, 66, 0
1, 15340, Note_on_c, 0, 69, 0
1, 15340, Note_on_c, 0, 64, 64
1, 15340, Note_on_c, 0, 67, 64
1, 15360, Tempo, 1428571
1, 15360, Note_on_c, 0, 67, 0
1, 15360, Note_on_c, 0, 64, 0
1, 15360, Note_on_c, 0, 63, 64
1, 15360, Note_on_c, 0, 66, 64
1, 15360, Note_on_c, 1, 61, 0
1, 15360, Note_on_c, 1, 58, 0
1, 15360, Note_on_c, 1, 59, 64
1, 15480, Note_on_c, 0, 66, 0
1, 15480, Note_on_c, 0, 63, 0
1, 15528, Note_on_c, 1, 59, 0
1, 15600, Tempo, 1428571
1, 15840, Tempo, 1463415
1, 15840, Note_on_c, 0, 76, 24
1, 15840, Note_on_c, 1, 64, 24
1, 15840, Note_on_c, 1, 67, 24
1, 16018, Note_on_c, 0, 76, 0
1, 16020, Note_on_c, 0, 78, 64
1, 16038, Note_on_c, 0, 78, 0
1, 16040, Note_on_c, 0, 76, 64
1, 16058, Note_on_c, 0, 76, 0
1, 16060, Note_on_c, 0, 75, 64
1, 16078, Note_on_c, 0, 75, 0
1, 16080, Note_on_c, 0, 76, 64
1, 16198, Note_on_c, 0, 76, 0
1, 16200, Note_on_c, 0, 79, 64
1, 16290, Note_on_c, 0, 79, 0
1, 16320, Note_on_c, 0, 83, 64
1, 16410, Note_on_c, 0, 83, 0
1, 16440, Note_on_c, 0, 76, 64
1, 16558, Note_on_c, 0, 76, 0
1, 16560, Tempo, 1333333
1, 16560, Note_on_c, 0, 75, 64
1, 16560, Note_on_c, 1, 67, 0
1, 16560, Note_on_c, 1, 64, 0
1, 16560, Note_on_c, 1, 59, 56
1, 16560, Note_on_c, 1, 66, 56
1, 16560, Note_on_c, 1, 69, 56
1, 16588, Note_on_c, 0, 75, 0
1, 16590, Note_on_c, 0, 76, 67
1, 16618, Note_on_c, 0, 76, 0
1, 16620, Note_on_c, 0, 78, 69
1, 16648, Note_on_c, 0, 78, 0
1, 16650, Note_on_c, 0, 76, 72
1, 16678, Note_on_c, 0, 76, 0
1, 16680, Note_on_c, 0, 79, 74
1, 16708, Note_on_c, 0, 79, 0
1, 16710, Note_on_c, 0, 78, 77
1, 16738, Note_on_c, 0, 78, 0
1, 16740, Note_on_c, 0, 81, 79
1, 16768, Note_on_c, 0, 81, 0
1, 16770, Note_on_c, 0, 79, 82
1, 16798, Note_on_c, 0, 79, 0
1, 16800, Tempo, 1304348
1, 16800, Note_on_c, 0, 83, 84
1, 16828, Note_on_c, 0, 83, 0
1, 16830, Note_on_c, 0, 81, 87
1, 16858, Note_on_c, 0, 81, 0
1, 16860, Note_on_c, 0, 84, 85
1, 16888, Note_on_c, 0, 84, 0
1, 16890, Note_on_c, 0, 83, 80
1, 16918, Note_on_c, 0, 83, 0
1, 16920, Note_on_c, 0, 81, 75
1, 16948, Note_on_c, 0, 81, 0
1, 16950, Note_on_c, 0, 79, 70
1, 16978, Note_on_c, 0, 79, 0
1, 16980, Note_on_c, 0, 78, 65
1, 17008, Note_on_c, 0, 78, 0
1, 17010, Note_on_c, 0, 76, 60
1, 17038, Note_on_c, 0, 76, 0
1, 17040, Tempo, 1276596
1, 17040, Note_on_c, 0, 75, 55
1, 17158, Note_on_c, 0, 75, 0
1, 17280, Tempo, 1250000
1, 17280, Note_on_c, 1, 69, 0
1, 17280, Note_on_c, 1, 66, 0
1, 17280, Note_on_c, 1, 59, 0
1, 17280, Note_on_c, 1, 52, 64
1, 17310, Note_on_c, 1, 56, 64
1, 17340, Note_on_c, 1, 59, 64
1, 17370, Note_on_c, 1, 62, 64
1, 17400, Note_on_c, 0, 64, 64
1, 17428, Note_on_c, 0, 64, 0
1, 17430, Note_on_c, 0, 68, 64
1, 17458, Note_on_c, 0, 68, 0
1, 17460, Note_on_c, 0, 71, 64
1, 17460, Note_on_c, 1, 62, 0
1, 17460, Note_on_c, 1, 52, 0
1, 17460, Note_on_c, 1, 56, 0
1, 17460, Note_on_c, 1, 59, 0
1, 17488, Note_on_c, 0, 71, 0
1, 17490, Note_on_c, 0, 74, 64
1, 17518, Note_on_c, 0, 74, 0
1, 17520, Tempo, 1276596
1, 17520, Note_on_c, 0, 64, 64
1, 17550, Note_on_c, 0, 68, 64
1, 17580, Note_on_c, 0, 71, 64
1, 17610, Note_on_c, 0, 74, 64
1, 17640, Note_on_c, 0, 76, 64
1, 17668, Note_on_c, 0, 76, 0
1, 17670, Note_on_c, 0, 80, 64
1, 17698, Note_on_c, 0, 80, 0
1, 17698, Note_on_c, 0, 74, 0
1, 17698, Note_on_c, 0, 64, 0
1, 17698, Note_on_c, 0, 68, 0
1, 17698, Note_on_c, 0, 71, 0
1, 17700, Note_on_c, 0, 83, 64
1, 17728, Note_on_c, 0, 83, 0
1, 17730, Note_on_c, 0, 84, 64
1, 17758, Note_on_c, 0, 84, 0
1, 17760, Tempo, 1304348
1, 17760, Note_on_c, 0, 86, 64
1, 17788, Note_on_c, 0, 86, 0
1, 17790, Note_on_c, 0, 84, 64
1, 17818, Note_on_c, 0, 84, 0
1, 17820, Note_on_c, 0, 83, 64
1, 17848, Note_on_c, 0, 83, 0
1, 17850, Note_on_c, 0, 81, 64
1, 17878, Note_on_c, 0, 81, 0
1, 17880, Note_on_c, 0, 80, 64
1, 17908, Note_on_c, 0, 80, 0
1, 17910, Note_on_c, 0, 77, 64
1, 17938, Note_on_c, 0, 77, 0
1, 17940, Note_on_c, 0, 76, 64
1, 17968, Note_on_c, 0, 76, 0
1, 17970, Note_on_c, 0, 74, 64
1, 17998, Note_on_c, 0, 74, 0
1, 18000, Note_on_c, 0, 72, 64
1, 18028, Note_on_c, 0, 72, 0
1, 18030, Note_on_c, 0, 76, 64
1, 18058, Note_on_c, 0, 76, 0
1, 18060, Note_on_c, 0, 78, 64
1, 18088, Note_on_c, 0, 78, 0
1, 18090, Note_on_c, 0, 80, 64
1, 18118, Note_on_c, 0, 80, 0
1, 18120, Note_on_c, 0, 81, 64
1, 18148, Note_on_c, 0, 81, 0
1, 18150, Note_on_c, 0, 76, 64
1, 18178, Note_on_c, 0, 76, 0
1, 18180, Note_on_c, 0, 78, 64
1, 18208, Note_on_c, 0, 78, 0
1, 18210, Note_on_c, 0, 80, 64
1, 18238, Note_on_c, 0, 80, 0
1, 18240, Tempo, 1276596
1, 18240, Note_on_c, 0, 81, 64
1, 18268, Note_on_c, 0, 81, 0
1, 18270, Note_on_c, 0, 83, 64
1, 18298, Note_on_c, 0, 83, 0
1, 18300, Note_on_c, 0, 84, 64
1, 18328, Note_on_c, 0, 84, 0
1, 18330, Note_on_c, 0, 86, 64
1, 18358, Note_on_c, 0, 86, 0
1, 18360, Note_on_c, 0, 88, 64
1, 18388, Note_on_c, 0, 88, 0
1, 18390, Note_on_c, 0, 86, 64
1, 18418, Note_on_c, 0, 86, 0
1, 18420, Note_on_c, 0, 84, 64
1, 18448, Note_on_c, 0, 84, 0
1, 18450, Note_on_c, 0, 83, 64
1, 18478, Note_on_c, 0, 83, 0
1, 18480, Tempo, 1250000
1, 18480, Note_on_c, 0, 81, 64
1, 18508, Note_on_c, 0, 81, 0
1, 18510, Note_on_c, 0, 83, 64
1, 18538, Note_on_c, 0, 83, 0
1, 18540, Note_on_c, 0, 84, 64
1, 18568, Note_on_c, 0, 84, 0
1, 18570, Note_on_c, 0, 83, 64
1, 18598, Note_on_c, 0, 83, 0
1, 18600, Note_on_c, 0, 81, 64
1, 18628, Note_on_c, 0, 81, 0
1, 18630, Note_on_c, 0, 79, 64
1, 18658, Note_on_c, 0, 79, 0
1, 18660, Note_on_c, 0, 78, 64
1, 18688, Note_on_c, 0, 78, 0
1, 18690, Note_on_c, 0, 76, 64
1, 18718, Note_on_c, 0, 76, 0
1, 18720, Tempo, 1224490
1, 18720, Note_on_c, 0, 74, 64
1, 18748, Note_on_c, 0, 74, 0
1, 18750, Note_on_c, 1, 50, 64
1, 18780, Note_on_c, 1, 54, 64
1, 18810, Note_on_c, 1, 57, 64
1, 18840, Note_on_c, 0, 60, 64
1, 18870, Note_on_c, 0, 62, 64
1, 18900, Note_on_c, 0, 66, 64
1, 18900, Note_on_c, 1, 57, 0
1, 18900, Note_on_c, 1, 54, 0
1, 18900, Note_on_c, 1, 50, 0
1, 18930, Note_on_c, 0, 69, 64
1, 18958, Note_on_c, 0, 69, 0
1, 18958, Note_on_c, 0, 60, 0
1, 18958, Note_on_c, 0, 62, 0
1, 18958, Note_on_c, 0, 66, 0
1, 18960, Tempo, 1224490
1, 18960, Note_on_c, 0, 72, 64
1, 18988, Note_on_c, 0, 72, 0
1, 18990, Note_on_c, 0, 74, 64
1, 19018, Note_on_c, 0, 74, 0
1, 19020, Note_on_c, 0, 78, 64
1, 19048, Note_on_c, 0, 78, 0
1, 19050, Note_on_c, 0, 81, 64
1, 19078, Note_on_c, 0, 81, 0
1, 19080, Note_on_c, 0, 84, 64
1, 19108, Note_on_c, 0, 84, 0
1, 19110, Note_on_c, 0, 83, 64
1, 19138, Note_on_c, 0, 83, 0
1, 19140, Note_on_c, 0, 81, 64
1, 19168, Note_on_c, 0, 81, 0
1, 19170, Note_on_c, 0, 79, 64
1, 19198, Note_on_c, 0, 79, 0
1, 19200, Tempo, 1224490
1, 19200, Note_on_c, 0, 78, 64
1, 19228, Note_on_c, 0, 78, 0
1, 19230, Note_on_c, 0, 79, 64
1, 19258, Note_on_c, 0, 79, 0
1, 19260, Note_on_c, 0, 81, 64
1, 19288, Note_on_c, 0, 81, 0
1, 19290, Note_on_c, 0, 79, 64
1, 19318, Note_on_c, 0, 79, 0
1, 19320, Note_on_c, 0, 78, 64
1, 19348, Note_on_c, 0, 78, 0
1, 19350, Note_on_c, 0, 76, 64
1, 19378, Note_on_c, 0, 76, 0
1, 19380, Note_on_c, 0, 74, 64
1, 19408, Note_on_c, 0, 74, 0
1, 19410, Note_on_c, 0, 72, 64
1, 19438, Note_on_c, 0, 72, 0
1, 19440, Note_on_c, 0, 71, 64
1, 19468, Note_on_c, 0, 71, 0
1, 19470, Note_on_c, 0, 55, 64
1, 19500, Note_on_c, 0, 59, 64
1, 19530, Note_on_c, 0, 62, 64
1, 19560, Note_on_c, 0, 67, 64
1, 19590, Note_on_c, 0, 71, 64
1, 19620, Note_on_c, 0, 74, 64
1, 19648, Note_on_c, 0, 74, 0
1, 19648, Note_on_c, 0, 59, 0
1, 19648, Note_on_c, 0, 62, 0
1, 19648, Note_on_c, 0, 55, 0
1, 19648, Note_on_c, 0, 71, 0
1, 19648, Note_on_c, 0, 67, 0
1, 19650, Note_on_c, 0, 79, 64
1, 19678, Note_on_c, 0, 79, 0
1, 19680, Note_on_c, 0, 83, 64
1, 19708, Note_on_c, 0, 83, 0
1, 19710, Note_on_c, 0, 74, 64
1, 19738, Note_on_c, 0, 74, 0
1, 19740, Note_on_c, 0, 79, 64
1, 19768, Note_on_c, 0, 79, 0
1, 19770, Note_on_c, 0, 83, 64
1, 19798, Note_on_c, 0, 83, 0
1, 19800, Note_on_c, 0, 86, 64
1, 19828, Note_on_c, 0, 86, 0
1, 19830, Note_on_c, 0, 83, 64
1, 19858, Note_on_c, 0, 83, 0
1, 19860, Note_on_c, 0, 81, 64
1, 19888, Note_on_c, 0, 81, 0
1, 19890, Note_on_c, 0, 79, 64
1, 19918, Note_on_c, 0, 79, 0
1, 19920, Note_on_c, 0, 78, 64
1, 19948, Note_on_c, 0, 78, 0
1, 19950, Note_on_c, 0, 79, 64
1, 19978, Note_on_c, 0, 79, 0
1, 19980, Note_on_c, 0, 81, 64
1, 20008, Note_on_c, 0, 81, 0
1, 20010, Note_on_c, 0, 79, 64
1, 20038, Note_on_c, 0, 79, 0
1, 20040, Note_on_c, 0, 83, 64
1, 20068, Note_on_c, 0, 83, 0
1, 20070, Note_on_c, 0, 67, 64
1, 20100, Note_on_c, 0, 71, 64
1, 20130, Note_on_c, 0, 74, 64
1, 20158, Note_on_c, 0, 74, 0
1, 20158, Note_on_c, 0, 71, 0
1, 20158, Note_on_c, 0, 67, 0
1, 20160, Note_on_c, 0, 66, 64
1, 20190, Note_on_c, 0, 74, 64
1, 20220, Note_on_c, 0, 78, 64
1, 20250, Note_on_c, 0, 81, 64
1, 20278, Note_on_c, 0, 81, 0
1, 20278, Note_on_c, 0, 66, 0
1, 20278, Note_on_c, 0, 74, 0
1, 20278, Note_on_c, 0, 78, 0
1, 20280, Note_on_c, 0, 86, 64
1, 20308, Note_on_c, 0, 86, 0
1, 20310, Note_on_c, 0, 85, 64
1, 20338, Note_on_c, 0, 85, 0
1, 20340, Note_on_c, 0, 83, 64
1, 20368, Note_on_c, 0, 83, 0
1, 20370, Note_on_c, 0, 81, 64
1, 20398, Note_on_c, 0, 81, 0
1, 20400, Tempo, 1250000
1, 20400, Note_on_c, 0, 79, 64
1, 20428, Note_on_c, 0, 79, 0
1, 20430, Note_on_c, 0, 78, 64
1, 20458, Note_on_c, 0, 78, 0
1, 20460, Note_on_c, 0, 76, 64
1, 20488, Note_on_c, 0, 76, 0
1, 20490, Note_on_c, 0, 74, 64
1, 20518, Note_on_c, 0, 74, 0
1, 20520, Note_on_c, 0, 73, 64
1, 20548, Note_on_c, 0, 73, 0
1, 20550, Note_on_c, 0, 74, 64
1, 20578, Note_on_c, 0, 74, 0
1, 20580, Note_on_c, 0, 76, 64
1, 20608, Note_on_c, 0, 76, 0
1, 20610, Note_on_c, 0, 74, 64
1, 20638, Note_on_c, 0, 74, 0
1, 20640, Tempo, 1304348
1, 20640, Note_on_c, 0, 79, 64
1, 20640, Note_on_c, 1, 40, 48
1, 20668, Note_on_c, 0, 79, 0
1, 20670, Note_on_c, 0, 78, 64
1, 20698, Note_on_c, 0, 78, 0
1, 20700, Note_on_c, 0, 76, 64
1, 20728, Note_on_c, 0, 76, 0
1, 20730, Note_on_c, 0, 74, 64
1, 20758, Note_on_c, 0, 74, 0
1, 20760, Note_on_c, 0, 73, 64
1, 20788, Note_on_c, 0, 73, 0
1, 20790, Note_on_c, 0, 71, 64
1, 20818, Note_on_c, 0, 71, 0
1, 20820, Note_on_c, 0, 69, 64
1, 20848, Note_on_c, 0, 69, 0
1, 20850, Note_on_c, 0, 67, 64
1, 20878, Note_on_c, 0, 67, 0
1, 20880, Tempo, 1333333
1, 20880, Note_on_c, 0, 66, 64
1, 20880, Note_on_c, 1, 40, 0
1, 20880, Note_on_c, 1, 45, 56
1, 20908, Note_on_c, 0, 66, 0
1, 20910, Note_on_c, 0, 69, 64
1, 20938, Note_on_c, 0, 69, 0
1, 20940, Note_on_c, 0, 67, 64
1, 20968, Note_on_c, 0, 67, 0
1, 20970, Note_on_c, 0, 66, 64
1, 20998, Note_on_c, 0, 66, 0
1, 21000, Note_on_c, 0, 64, 64
1, 21028, Note_on_c, 0, 64, 0
1, 21030, Note_on_c, 0, 62, 64
1, 21058, Note_on_c, 0, 62, 0
1, 21060, Note_on_c, 0, 61, 64
1, 21088, Note_on_c, 0, 61, 0
1, 21090, Note_on_c, 0, 62, 64
1, 21118, Note_on_c, 0, 62, 0
1, 21120, Tempo, 1395349
1, 21120, Note_on_c, 0, 61, 64
1, 21120, Note_on_c, 1, 45, 0
1, 21148, Note_on_c, 0, 61, 0
1, 21150, Note_on_c, 0, 62, 64
1, 21178, Note_on_c, 0, 62, 0
1, 21180, Note_on_c, 0, 64, 64
1, 21208, Note_on_c, 0, 64, 0
1, 21210, Note_on_c, 0, 62, 64
1, 21238, Note_on_c, 0, 62, 0
1, 21240, Note_on_c, 0, 66, 64
1, 21268, Note_on_c, 0, 66, 0
1, 21270, Note_on_c, 0, 64, 64
1, 21285, Note_on_c, 0, 64, 0
1, 21300, Note_on_c, 0, 67, 64
1, 21315, Note_on_c, 0, 67, 0
1, 21330, Note_on_c, 0, 66, 64
1, 21345, Note_on_c, 0, 66, 0
1, 21360, Tempo, 1500000
1, 21360, Note_on_c, 0, 69, 64
1, 21418, Note_on_c, 0, 69, 0
1, 21420, Note_on_c, 0, 67, 64
1, 21478, Note_on_c, 0, 67, 0
1, 21480, Note_on_c, 0, 71, 64
1, 21538, Note_on_c, 0, 71, 0
1, 21540, Note_on_c, 0, 61, 64
1, 21598, Note_on_c, 0, 61, 0
1, 21600, Tempo, 1714286
1, 21600, Note_on_c, 0, 61, 56
1, 21778, Note_on_c, 0, 61, 0
1, 21780, Note_on_c, 0, 64, 48
1, 21808, Note_on_c, 0, 64, 0
1, 21810, Note_on_c, 0, 62, 48
1, 21838, Note_on_c, 0, 62, 0
1, 21840, Tempo, 1818182
1, 21840, Note_on_c, 1, 38, 24
1, 22080, Note_on_c, 1, 38, 0
1, 22320, Tempo, 1333333
1, 22320, Note_on_c, 0, 67, 64
1, 22320, Note_on_c, 1, 55, 56
1, 22320, Note_on_c, 1, 59, 56
1, 22498, Note_on_c, 0, 67, 0
1, 22500, Note_on_c, 0, 69, 64
1, 22518, Note_on_c, 0, 69, 0
1, 22520, Note_on_c, 0, 67, 64
1, 22538, Note_on_c, 0, 67, 0
1, 22540, Note_on_c, 0, 66, 64
1, 22558, Note_on_c, 0, 66, 0
1, 22560, Note_on_c, 0, 67, 72
1, 22678, Note_on_c, 0, 67, 0
1, 22680, Note_on_c, 0, 71, 64
1, 22752, Note_on_c, 0, 71, 0
1, 22800, Note_on_c, 0, 74, 64
1, 22872, Note_on_c, 0, 74, 0
1, 22920, Note_on_c, 0, 67, 64
1, 23038, Note_on_c, 0, 67, 0
1, 23040, Note_on_c, 0, 66, 64
1, 23040, Note_on_c, 1, 59, 0
1, 23040, Note_on_c, 1, 55, 0
1, 23040, Note_on_c, 1, 50, 48
1, 23040, Note_on_c, 1, 57, 48
1, 23040, Note_on_c, 1, 60, 48
1, 23218, Note_on_c, 0, 66, 0
1, 23220, Note_on_c, 0, 67, 64
1, 23238, Note_on_c, 0, 67, 0
1, 23240, Note_on_c, 0, 66, 64
1, 23258, Note_on_c, 0, 66, 0
1, 23260, Note_on_c, 0, 64, 64
1, 23278, Note_on_c, 0, 64, 0
1, 23280, Tempo, 1395349
1, 23280, Note_on_c, 0, 66, 65
1, 23318, Note_on_c, 0, 66, 0
1, 23320, Note_on_c, 0, 67, 58
1, 23340, Note_on_c, 0, 67, 0
1, 23360, Note_on_c, 0, 68, 52
1, 23380, Note_on_c, 0, 68, 0
1, 23400, Note_on_c, 0, 69, 45
1, 23420, Note_on_c, 0, 69, 0
1, 23440, Note_on_c, 0, 70, 39
1, 23460, Note_on_c, 0, 70, 0
1, 23480, Note_on_c, 0, 71, 32
1, 23512, Note_on_c, 0, 71, 0
1, 23520, Tempo, 1428571
1, 23520, Note_on_c, 0, 72, 26
1, 23616, Note_on_c, 1, 60, 0
1, 23616, Note_on_c, 1, 57, 0
1, 23616, Note_on_c, 1, 50, 0
1, 23638, Note_on_c, 0, 72, 0
1, 23760, Tempo, 1276596
1, 23760, Note_on_c, 0, 69, 48
1, 23760, Note_on_c, 1, 50, 48
1, 23760, Note_on_c, 1, 54, 48
1, 23760, Note_on_c, 1, 60, 48
1, 23938, Note_on_c, 0, 69, 0
1, 23940, Note_on_c, 0, 71, 52
1, 23958, Note_on_c, 0, 71, 0
1, 23960, Note_on_c, 0, 69, 52
1, 23978, Note_on_c, 0, 69, 0
1, 23980, Note_on_c, 0, 68, 53
1, 23998, Note_on_c, 0, 68, 0
1, 24000, Tempo, 1304348
1, 24000, Note_on_c, 0, 69, 53
1, 24060, Note_on_c, 0, 69, 0
1, 24060, Note_on_c, 0, 71, 55
1, 24102, Note_on_c, 0, 71, 0
1, 24120, Note_on_c, 0, 72, 56
1, 24180, Note_on_c, 0, 72, 0
1, 24180, Note_on_c, 0, 74, 57
1, 24222, Note_on_c, 0, 74, 0
1, 24240, Tempo, 1363636
1, 24240, Note_on_c, 0, 75, 65
1, 24300, Note_on_c, 0, 75, 0
1, 24300, Note_on_c, 0, 76, 67
1, 24342, Note_on_c, 0, 76, 0
1, 24360, Note_on_c, 0, 72, 69
1, 24402, Note_on_c, 0, 72, 0
1, 24420, Note_on_c, 0, 69, 70
1, 24462, Note_on_c, 0, 69, 0
1, 24480, Tempo, 1250000
1, 24480, Note_on_c, 0, 71, 56
1, 24480, Note_on_c, 1, 60, 0
1, 24480, Note_on_c, 1, 54, 0
1, 24480, Note_on_c, 1, 50, 0
1, 24480, Note_on_c, 1, 55, 56
1, 24480, Note_on_c, 1, 59, 56
1, 24658, Note_on_c, 0, 71, 0
1, 24660, Note_on_c, 0, 72, 64
1, 24678, Note_on_c, 0, 72, 0
1, 24680, Note_on_c, 0, 71, 64
1, 24698, Note_on_c, 0, 71, 0
1, 24700, Note_on_c, 0, 69, 64
1, 24718, Note_on_c, 0, 69, 0
1, 24720, Tempo, 1333333
1, 24720, Note_on_c, 0, 71, 64
1, 24720, Note_on_c, 1, 59, 0
1, 24720, Note_on_c, 1, 55, 0
1, 24720, Note_on_c, 1, 43, 40
1, 24720, Note_on_c, 1, 47, 40
1, 24748, Note_on_c, 0, 71, 0
1, 24750, Note_on_c, 0, 67, 64
1, 24778, Note_on_c, 0, 67, 0
1, 24780, Note_on_c, 0, 72, 64
1, 24808, Note_on_c, 0, 72, 0
1, 24810, Note_on_c, 0, 69, 64
1, 24838, Note_on_c, 0, 69, 0
1, 24840, Note_on_c, 0, 74, 64
1, 24868, Note_on_c, 0, 74, 0
1, 24870, Note_on_c, 0, 71, 64
1, 24898, Note_on_c, 0, 71, 0
1, 24900, Note_on_c, 0, 76, 64
1, 24928, Note_on_c, 0, 76, 0
1, 24930, Note_on_c, 0, 72, 64
1, 24958, Note_on_c, 0, 72, 0
1, 24960, Tempo, 1395349
1, 24960, Note_on_c, 0, 74, 64
1, 24960, Note_on_c, 1, 47, 0
1, 24960, Note_on_c, 1, 43, 0
1, 25078, Note_on_c, 0, 74, 0
1, 25200, Tempo, 1333333
1, 25200, Note_on_c, 0, 79, 64
1, 25200, Note_on_c, 1, 59, 48
1, 25200, Note_on_c, 1, 62, 48
1, 25200, Note_on_c, 1, 67, 48
1, 25378, Note_on_c, 0, 79, 0
1, 25380, Note_on_c, 0, 81, 64
1, 25398, Note_on_c, 0, 81, 0
1, 25400, Note_on_c, 0, 79, 64
1, 25418, Note_on_c, 0, 79, 0
1, 25420, Note_on_c, 0, 78, 72
1, 25438, Note_on_c, 0, 78, 0
1, 25440, Tempo, 1304348
1, 25440, Note_on_c, 0, 79, 71
1, 25500, Note_on_c, 0, 79, 0
1, 25500, Note_on_c, 0, 83, 66
1, 25530, Note_on_c, 0, 83, 0
1, 25560, Note_on_c, 0, 86, 62
1, 25620, Note_on_c, 0, 86, 0
1, 25620, Note_on_c, 0, 83, 58
1, 25650, Note_on_c, 0, 83, 0
1, 25680, Tempo, 1276596
1, 25680, Note_on_c, 0, 79, 65
1, 25740, Note_on_c, 0, 79, 0
1, 25740, Note_on_c, 0, 74, 67
1, 25798, Note_on_c, 0, 74, 0
1, 25800, Note_on_c, 0, 72, 69
1, 25858, Note_on_c, 0, 72, 0
1, 25860, Note_on_c, 0, 71, 71
1, 25918, Note_on_c, 0, 71, 0
1, 25920, Tempo, 1224490
1, 25920, Note_on_c, 0, 69, 64
1, 25920, Note_on_c, 1, 67, 0
1, 25920, Note_on_c, 1, 62, 0
1, 25920, Note_on_c, 1, 59, 0
1, 25920, Note_on_c, 1, 60, 64
1, 25920, Note_on_c, 1, 64, 64
1, 26098, Note_on_c, 0, 69, 0
1, 26100, Note_on_c, 0, 71, 64
1, 26118, Note_on_c, 0, 71, 0
1, 26120, Note_on_c, 0, 69, 64
1, 26138, Note_on_c, 0, 69, 0
1, 26140, Note_on_c, 0, 68, 64
1, 26158, Note_on_c, 0, 68, 0
1, 26160, Tempo, 1276596
1, 26160, Note_on_c, 0, 69, 64
1, 26220, Note_on_c, 0, 69, 0
1, 26220, Note_on_c, 0, 71, 64
1, 26250, Note_on_c, 0, 71, 0
1, 26280, Note_on_c, 0, 72, 64
1, 26340, Note_on_c, 0, 72, 0
1, 26340, Note_on_c, 0, 74, 64
1, 26370, Note_on_c, 0, 74, 0
1, 26400, Tempo, 1333333
1, 26400, Note_on_c, 0, 76, 64
1, 26400, Note_on_c, 1, 64, 0
1, 26400, Note_on_c, 1, 60, 0
1, 26460, Note_on_c, 0, 76, 0
1, 26460, Note_on_c, 0, 72, 64
1, 26518, Note_on_c, 0, 72, 0
1, 26520, Note_on_c, 0, 69, 64
1, 26520, Note_on_c, 1, 61, 64
1, 26578, Note_on_c, 0, 69, 0
1, 26580, Note_on_c, 0, 67, 64
1, 26638, Note_on_c, 0, 67, 0
1, 26640, Note_on_c, 0, 66, 64
1, 26640, Note_on_c, 1, 61, 0
1, 26640, Note_on_c, 1, 62, 64
1, 26668, Note_on_c, 0, 66, 0
1, 26670, Note_on_c, 0, 64, 64
1, 26698, Note_on_c, 0, 64, 0
1, 26700, Note_on_c, 0, 62, 64
1, 26728, Note_on_c, 0, 62, 0
1, 26730, Note_on_c, 0, 61, 64
1, 26758, Note_on_c, 0, 61, 0
1, 26760, Note_on_c, 0, 62, 64
1, 26788, Note_on_c, 0, 62, 0
1, 26790, Note_on_c, 0, 64, 64
1, 26818, Note_on_c, 0, 64, 0
1, 26820, Note_on_c, 0, 66, 64
1, 26848, Note_on_c, 0, 66, 0
1, 26850, Note_on_c, 0, 67, 64
1, 26878, Note_on_c, 0, 67, 0
1, 26880, Tempo, 1304348
1, 26880, Note_on_c, 0, 69, 64
1, 26880, Note_on_c, 1, 62, 0
1, 26908, Note_on_c, 0, 69, 0
1, 26910, Note_on_c, 0, 67, 64
1, 26938, Note_on_c, 0, 67, 0
1, 26940, Note_on_c, 0, 66, 64
1, 26968, Note_on_c, 0, 66, 0
1, 26970, Note_on_c, 0, 64, 64
1, 26998, Note_on_c, 0, 64, 0
1, 27000, Note_on_c, 0, 66, 64
1, 27028, Note_on_c, 0, 66, 0
1, 27030, Note_on_c, 0, 67, 64
1, 27058, Note_on_c, 0, 67, 0
1, 27060, Note_on_c, 0, 69, 64
1, 27088, Note_on_c, 0, 69, 0
1, 27090, Note_on_c, 0, 71, 64
1, 27118, Note_on_c, 0, 71, 0
1, 27120, Tempo, 1276596
1, 27120, Note_on_c, 0, 72, 64
1, 27120, Note_on_c, 1, 54, 64
1, 27120, Note_on_c, 1, 62, 64
1, 27148, Note_on_c, 0, 72, 0
1, 27150, Note_on_c, 0, 69, 64
1, 27178, Note_on_c, 0, 69, 0
1, 27180, Note_on_c, 0, 74, 64
1, 27208, Note_on_c, 0, 74, 0
1, 27210, Note_on_c, 0, 71, 64
1, 27238, Note_on_c, 0, 71, 0
1, 27240, Note_on_c, 0, 76, 64
1, 27268, Note_on_c, 0, 76, 0
1, 27270, Note_on_c, 0, 72, 64
1, 27298, Note_on_c, 0, 72, 0
1, 27300, Note_on_c, 0, 71, 64
1, 27328, Note_on_c, 0, 71, 0
1, 27330, Note_on_c, 0, 69, 64
1, 27358, Note_on_c, 0, 69, 0
1, 27360, Tempo, 1250000
1, 27360, Note_on_c, 0, 71, 64
1, 27360, Note_on_c, 1, 62, 0
1, 27360, Note_on_c, 1, 54, 0
1, 27360, Note_on_c, 1, 55, 64
1, 27360, Note_on_c, 1, 62, 64
1, 27388, Note_on_c, 0, 71, 0
1, 27390, Note_on_c, 0, 67, 64
1, 27418, Note_on_c, 0, 67, 0
1, 27420, Note_on_c, 0, 69, 64
1, 27448, Note_on_c, 0, 69, 0
1, 27450, Note_on_c, 0, 71, 64
1, 27478, Note_on_c, 0, 71, 0
1, 27480, Note_on_c, 0, 72, 64
1, 27508, Note_on_c, 0, 72, 0
1, 27510, Note_on_c, 0, 74, 64
1, 27538, Note_on_c, 0, 74, 0
1, 27540, Note_on_c, 0, 76, 64
1, 27568, Note_on_c, 0, 76, 0
1, 27570, Note_on_c, 0, 78, 64
1, 27598, Note_on_c, 0, 78, 0
1, 27600, Note_on_c, 0, 79, 64
1, 27600, Note_on_c, 1, 62, 0
1, 27600, Note_on_c, 1, 55, 0
1, 27628, Note_on_c, 0, 79, 0
1, 27630, Note_on_c, 0, 78, 64
1, 27645, Note_on_c, 0, 78, 0
1, 27660, Note_on_c, 0, 79, 64
1, 27688, Note_on_c, 0, 79, 0
1, 27690, Note_on_c, 0, 78, 64
1, 27705, Note_on_c, 0, 78, 0
1, 27720, Note_on_c, 0, 79, 64
1, 27748, Note_on_c, 0, 79, 0
1, 27750, Note_on_c, 0, 78, 64
1, 27765, Note_on_c, 0, 78, 0
1, 27780, Note_on_c, 0, 79, 64
1, 27808, Note_on_c, 0, 79, 0
1, 27810, Note_on_c, 0, 78, 64
1, 27825, Note_on_c, 0, 78, 0
1, 27840, Note_on_c, 0, 79, 64
1, 27840, Note_on_c, 1, 47, 64
1, 27840, Note_on_c, 1, 55, 64
1, 27868, Note_on_c, 0, 79, 0
1, 27870, Note_on_c, 0, 78, 64
1, 27898, Note_on_c, 0, 78, 0
1, 27900, Note_on_c, 0, 76, 64
1, 27928, Note_on_c, 0, 76, 0
1, 27930, Note_on_c, 0, 74, 64
1, 27954, Note_on_c, 0, 74, 0
1, 27960, Note_on_c, 0, 72, 64
1, 27984, Note_on_c, 0, 72, 0
1, 27990, Note_on_c, 0, 71, 64
1, 28014, Note_on_c, 0, 71, 0
1, 28020, Note_on_c, 0, 69, 64
1, 28044, Note_on_c, 0, 69, 0
1, 28050, Note_on_c, 0, 67, 64
1, 28074, Note_on_c, 0, 67, 0
1, 28080, Note_on_c, 0, 69, 64
1, 28080, Note_on_c, 1, 55, 0
1, 28080, Note_on_c, 1, 47, 0
1, 28080, Note_on_c, 1, 52, 64
1, 28080, Note_on_c, 1, 48, 64
1, 28108, Note_on_c, 0, 69, 0
1, 28110, Note_on_c, 0, 68, 64
1, 28138, Note_on_c, 0, 68, 0
1, 28140, Note_on_c, 0, 71, 64
1, 28168, Note_on_c, 0, 71, 0
1, 28170, Note_on_c, 0, 69, 64
1, 28198, Note_on_c, 0, 69, 0
1, 28200, Note_on_c, 0, 72, 64
1, 28228, Note_on_c, 0, 72, 0
1, 28230, Note_on_c, 0, 71, 64
1, 28258, Note_on_c, 0, 71, 0
1, 28260, Note_on_c, 0, 74, 64
1, 28288, Note_on_c, 0, 74, 0
1, 28290, Note_on_c, 0, 72, 64
1, 28318, Note_on_c, 0, 72, 0
1, 28320, Note_on_c, 0, 76, 64
1, 28320, Note_on_c, 1, 48, 0
1, 28320, Note_on_c, 1, 52, 0
1, 28348, Note_on_c, 0, 76, 0
1, 28350, Note_on_c, 0, 72, 64
1, 28378, Note_on_c, 0, 72, 0
1, 28380, Note_on_c, 0, 71, 64
1, 28408, Note_on_c, 0, 71, 0
1, 28410, Note_on_c, 0, 69, 64
1, 28438, Note_on_c, 0, 69, 0
1, 28440, Note_on_c, 0, 68, 64
1, 28468, Note_on_c, 0, 68, 0
1, 28470, Note_on_c, 0, 69, 64
1, 28498, Note_on_c, 0, 69, 0
1, 28500, Note_on_c, 0, 71, 64
1, 28528, Note_on_c, 0, 71, 0
1, 28530, Note_on_c, 0, 69, 64
1, 28558, Note_on_c, 0, 69, 0
1, 28560, Note_on_c, 0, 72, 64
1, 28588, Note_on_c, 0, 72, 0
1, 28590, Note_on_c, 0, 71, 63
1, 28618, Note_on_c, 0, 71, 0
1, 28620, Note_on_c, 0, 74, 62
1, 28648, Note_on_c, 0, 74, 0
1, 28650, Note_on_c, 0, 72, 61
1, 28678, Note_on_c, 0, 72, 0
1, 28680, Note_on_c, 0, 76, 60
1, 28708, Note_on_c, 0, 76, 0
1, 28710, Note_on_c, 0, 72, 58
1, 28725, Note_on_c, 0, 72, 0
1, 28740, Note_on_c, 0, 71, 57
1, 28755, Note_on_c, 0, 71, 0
1, 28770, Note_on_c, 0, 69, 56
1, 28785, Note_on_c, 0, 69, 0
1, 28800, Note_on_c, 0, 74, 56
1, 28800, Note_on_c, 1, 50, 64
1, 28800, Note_on_c, 1, 55, 64
1, 28800, Note_on_c, 1, 59, 64
1, 28824, Note_on_c, 0, 74, 0
1, 28830, Note_on_c, 0, 76, 57
1, 28854, Note_on_c, 0, 76, 0
1, 28860, Note_on_c, 0, 73, 58
1, 28884, Note_on_c, 0, 73, 0
1, 28890, Note_on_c, 0, 76, 59
1, 28914, Note_on_c, 0, 76, 0
1, 28920, Note_on_c, 0, 74, 60
1, 28944, Note_on_c, 0, 74, 0
1, 28950, Note_on_c, 0, 76, 61
1, 28974, Note_on_c, 0, 76, 0
1, 28980, Note_on_c, 0, 73, 62
1, 29004, Note_on_c, 0, 73, 0
1, 29010, Note_on_c, 0, 76, 63
1, 29034, Note_on_c, 0, 76, 0
1, 29040, Tempo, 1224490
1, 29040, Note_on_c, 0, 74, 64
1, 29040, Note_on_c, 1, 59, 0
1, 29040, Note_on_c, 1, 55, 0
1, 29040, Note_on_c, 1, 50, 0
1, 29064, Note_on_c, 0, 74, 0
1, 29070, Note_on_c, 0, 79, 65
1, 29094, Note_on_c, 0, 79, 0
1, 29100, Note_on_c, 0, 78, 66
1, 29124, Note_on_c, 0, 78, 0
1, 29130, Note_on_c, 0, 81, 67
1, 29154, Note_on_c, 0, 81, 0
1, 29160, Note_on_c, 0, 79, 68
1, 29184, Note_on_c, 0, 79, 0
1, 29190, Note_on_c, 0, 81, 69
1, 29214, Note_on_c, 0, 81, 0
1, 29220, Note_on_c, 0, 78, 70
1, 29244, Note_on_c, 0, 78, 0
1, 29250, Note_on_c, 0, 81, 71
1, 29274, Note_on_c, 0, 81, 0
1, 29280, Tempo, 1200000
1, 29280, Note_on_c, 0, 79, 72
1, 29304, Note_on_c, 0, 79, 0
1, 29310, Note_on_c, 0, 83, 73
1, 29334, Note_on_c, 0, 83, 0
1, 29340, Note_on_c, 0, 81, 74
1, 29364, Note_on_c, 0, 81, 0
1, 29370, Note_on_c, 0, 84, 75
1, 29394, Note_on_c, 0, 84, 0
1, 29400, Note_on_c, 0, 83, 76
1, 29424, Note_on_c, 0, 83, 0
1, 29430, Note_on_c, 0, 86, 77
1, 29445, Note_on_c, 0, 86, 0
1, 29460, Note_on_c, 0, 78, 78
1, 29475, Note_on_c, 0, 78, 0
1, 29490, Note_on_c, 0, 81, 79
1, 29505, Note_on_c, 0, 81, 0
1, 29520, Tempo, 1176471
1, 29520, Note_on_c, 0, 79, 80
1, 29548, Note_on_c, 0, 79, 0
1, 29550, Note_on_c, 0, 83, 79
1, 29578, Note_on_c, 0, 83, 0
1, 29580, Note_on_c, 0, 75, 78
1, 29608, Note_on_c, 0, 75, 0
1, 29610, Note_on_c, 0, 78, 77
1, 29638, Note_on_c, 0, 78, 0
1, 29640, Note_on_c, 0, 76, 76
1, 29668, Note_on_c, 0, 76, 0
1, 29670, Note_on_c, 0, 79, 75
1, 29698, Note_on_c, 0, 79, 0
1, 29700, Note_on_c, 0, 71, 74
1, 29728, Note_on_c, 0, 71, 0
1, 29730, Note_on_c, 0, 74, 73
1, 29758, Note_on_c, 0, 74, 0
1, 29760, Tempo, 1200000
1, 29760, Note_on_c, 0, 72, 72
1, 29788, Note_on_c, 0, 72, 0
1, 29790, Note_on_c, 0, 76, 71
1, 29818, Note_on_c, 0, 76, 0
1, 29820, Note_on_c, 0, 69, 70
1, 29848, Note_on_c, 0, 69, 0
1, 29850, Note_on_c, 0, 72, 69
1, 29878, Note_on_c, 0, 72, 0
1, 29880, Note_on_c, 0, 71, 68
1, 29908, Note_on_c, 0, 71, 0
1, 29910, Note_on_c, 0, 74, 67
1, 29938, Note_on_c, 0, 74, 0
1, 29940, Note_on_c, 0, 67, 66
1, 29968, Note_on_c, 0, 67, 0
1, 29970, Note_on_c, 0, 71, 65
1, 29998, Note_on_c, 0, 71, 0
1, 30000, Tempo, 1224490
1, 30000, Note_on_c, 0, 69, 64
1, 30028, Note_on_c, 0, 69, 0
1, 30030, Note_on_c, 0, 72, 63
1, 30058, Note_on_c, 0, 72, 0
1, 30060, Note_on_c, 0, 66, 62
1, 30088, Note_on_c, 0, 66, 0
1, 30090, Note_on_c, 0, 69, 61
1, 30118, Note_on_c, 0, 69, 0
1, 30120, Note_on_c, 0, 67, 60
1, 30148, Note_on_c, 0, 67, 0
1, 30150, Note_on_c, 0, 71, 59
1, 30178, Note_on_c, 0, 71, 0
1, 30180, Note_on_c, 0, 59, 58
1, 30180, Note_on_c, 1, 47, 64
1, 30208, Note_on_c, 0, 59, 0
1, 30210, Note_on_c, 0, 71, 57
1, 30238, Note_on_c, 0, 71, 0
1, 30240, Tempo, 1250000
1, 30240, Note_on_c, 0, 60, 64
1, 30240, Note_on_c, 1, 47, 0
1, 30240, Note_on_c, 1, 48, 64
1, 30268, Note_on_c, 0, 60, 0
1, 30270, Note_on_c, 0, 71, 64
1, 30298, Note_on_c, 0, 71, 0
1, 30300, Note_on_c, 0, 61, 64
1, 30300, Note_on_c, 1, 48, 0
1, 30300, Note_on_c, 1, 49, 64
1, 30328, Note_on_c, 0, 61, 0
1, 30330, Note_on_c, 0, 71, 64
1, 30358, Note_on_c, 0, 71, 0
1, 30360, Note_on_c, 0, 62, 64
1, 30360, Note_on_c, 1, 49, 0
1, 30360, Note_on_c, 1, 50, 64
1, 30388, Note_on_c, 0, 62, 0
1, 30390, Note_on_c, 0, 71, 64
1, 30418, Note_on_c, 0, 71, 0
1, 30420, Note_on_c, 0, 63, 64
1, 30420, Note_on_c, 1, 50, 0
1, 30420, Note_on_c, 1, 51, 64
1, 30448, Note_on_c, 0, 63, 0
1, 30450, Note_on_c, 0, 71, 64
1, 30478, Note_on_c, 0, 71, 0
1, 30480, Tempo, 1304348
1, 30480, Note_on_c, 0, 64, 64
1, 30480, Note_on_c, 1, 51, 0
1, 30480, Note_on_c, 1, 52, 64
1, 30508, Note_on_c, 0, 64, 0
1, 30510, Note_on_c, 0, 71, 64
1, 30538, Note_on_c, 0, 71, 0
1, 30540, Note_on_c, 0, 66, 64
1, 30540, Note_on_c, 1, 52, 0
1, 30540, Note_on_c, 1, 54, 64
1, 30568, Note_on_c, 0, 66, 0
1, 30570, Note_on_c, 0, 71, 64
1, 30598, Note_on_c, 0, 71, 0
1, 30600, Note_on_c, 0, 67, 64
1, 30600, Note_on_c, 1, 54, 0
1, 30600, Note_on_c, 1, 55, 64
1, 30628, Note_on_c, 0, 67, 0
1, 30630, Note_on_c, 0, 71, 64
1, 30658, Note_on_c, 0, 71, 0
1, 30660, Note_on_c, 0, 66, 64
1, 30660, Note_on_c, 1, 55, 0
1, 30660, Note_on_c, 1, 54, 64
1, 30688, Note_on_c, 0, 66, 0
1, 30690, Note_on_c, 0, 71, 64
1, 30718, Note_on_c, 0, 71, 0
1, 30720, Tempo, 1333333
1, 30720, Note_on_c, 0, 64, 64
1, 30720, Note_on_c, 1, 54, 0
1, 30720, Note_on_c, 1, 52, 64
1, 30748, Note_on_c, 0, 64, 0
1, 30750, Note_on_c, 0, 71, 64
1, 30778, Note_on_c, 0, 71, 0
1, 30780, Note_on_c, 0, 62, 64
1, 30780, Note_on_c, 1, 52, 0
1, 30780, Note_on_c, 1, 50, 64
1, 30808, Note_on_c, 0, 62, 0
1, 30810, Note_on_c, 0, 71, 64
1, 30838, Note_on_c, 0, 71, 0
1, 30840, Note_on_c, 0, 60, 64
1, 30840, Note_on_c, 1, 50, 0
1, 30840, Note_on_c, 1, 48, 64
1, 30868, Note_on_c, 0, 60, 0
1, 30870, Note_on_c, 0, 71, 64
1, 30898, Note_on_c, 0, 71, 0
1, 30900, Note_on_c, 0, 61, 64
1, 30900, Note_on_c, 1, 48, 0
1, 30900, Note_on_c, 1, 49, 64
1, 30928, Note_on_c, 0, 61, 0
1, 30930, Note_on_c, 0, 71, 64
1, 30958, Note_on_c, 0, 71, 0
1, 30960, Tempo, 1395349
1, 30960, Note_on_c, 1, 49, 0
1, 30960, Note_on_c, 1, 50, 64
1, 30990, Note_on_c, 1, 55, 66
1, 31020, Note_on_c, 1, 59, 69
1, 31050, Note_on_c, 1, 62, 71
1, 31080, Note_on_c, 0, 67, 71
1, 31100, Note_on_c, 0, 71, 70
1, 31118, Note_on_c, 0, 71, 0
1, 31118, Note_on_c, 0, 67, 0
1, 31120, Note_on_c, 0, 74, 69
1, 31138, Note_on_c, 0, 74, 0
1, 31140, Note_on_c, 0, 71, 67
1, 31140, Note_on_c, 1, 62, 0
1, 31140, Note_on_c, 1, 50, 0
1, 31140, Note_on_c, 1, 55, 0
1, 31140, Note_on_c, 1, 59, 0
1, 31158, Note_on_c, 0, 71, 0
1, 31160, Note_on_c, 0, 67, 66
1, 31178, Note_on_c, 0, 67, 0
1, 31180, Note_on_c, 0, 62, 65
1, 31195, Note_on_c, 0, 79, 72
1, 31198, Note_on_c, 0, 62, 0
1, 31200, Note_on_c, 1, 38, 64
1, 31211, Note_on_c, 0, 79, 0
1, 31215, Note_on_c, 0, 81, 70
1, 31231, Note_on_c, 0, 81, 0
1, 31235, Note_on_c, 0, 83, 68
1, 31251, Note_on_c, 0, 83, 0
1, 31255, Note_on_c, 0, 81, 66
1, 31267, Note_on_c, 0, 81, 0
1, 31270, Note_on_c, 0, 83, 64
1, 31282, Note_on_c, 0, 83, 0
1, 31285, Note_on_c, 0, 81, 63
1, 31297, Note_on_c, 0, 81, 0
1, 31300, Note_on_c, 0, 83, 61
1, 31312, Note_on_c, 0, 83, 0
1, 31315, Note_on_c, 0, 81, 60
1, 31327, Note_on_c, 0, 81, 0
1, 31330, Note_on_c, 0, 83, 58
1, 31342, Note_on_c, 0, 83, 0
1, 31345, Note_on_c, 0, 81, 57
1, 31357, Note_on_c, 0, 81, 0
1, 31360, Note_on_c, 0, 83, 55
1, 31372, Note_on_c, 0, 83, 0
1, 31375, Note_on_c, 0, 81, 54
1, 31387, Note_on_c, 0, 81, 0
1, 31390, Note_on_c, 0, 83, 52
1, 31402, Note_on_c, 0, 83, 0
1, 31405, Note_on_c, 0, 81, 51
1, 31417, Note_on_c, 0, 81, 0
1, 31420, Note_on_c, 0, 83, 49
1, 31432, Note_on_c, 0, 83, 0
1, 31435, Note_on_c, 0, 81, 48
1, 31440, Note_on_c, 1, 38, 0
1, 31440, Note_on_c, 1, 62, 64
1, 31440, Note_on_c, 1, 66, 64
1, 31440, Note_on_c, 1, 72, 49
1, 31447, Note_on_c, 0, 81, 0
1, 31450, Note_on_c, 0, 83, 50
1, 31462, Note_on_c, 0, 83, 0
1, 31465, Note_on_c, 0, 81, 52
1, 31477, Note_on_c, 0, 81, 0
1, 31480, Note_on_c, 0, 83, 54
1, 31492, Note_on_c, 0, 83, 0
1, 31495, Note_on_c, 0, 81, 56
1, 31507, Note_on_c, 0, 81, 0
1, 31510, Note_on_c, 0, 83, 58
1, 31522, Note_on_c, 0, 83, 0
1, 31525, Note_on_c, 0, 81, 60
1, 31537, Note_on_c, 0, 81, 0
1, 31540, Note_on_c, 0, 83, 62
1, 31552, Note_on_c, 0, 83, 0
1, 31555, Note_on_c, 0, 81, 64
1, 31567, Note_on_c, 0, 81, 0
1, 31570, Note_on_c, 0, 83, 66
1, 31582, Note_on_c, 0, 83, 0
1, 31585, Note_on_c, 0, 81, 68
1, 31597, Note_on_c, 0, 81, 0
1, 31600, Note_on_c, 0, 83, 70
1, 31612, Note_on_c, 0, 83, 0
1, 31615, Note_on_c, 0, 81, 72
1, 31623, Note_on_c, 0, 81, 0
1, 31625, Note_on_c, 0, 83, 73
1, 31633, Note_on_c, 0, 83, 0
1, 31635, Note_on_c, 0, 81, 74
1, 31643, Note_on_c, 0, 81, 0
1, 31645, Note_on_c, 0, 79, 76
1, 31657, Note_on_c, 0, 79, 0
1, 31660, Note_on_c, 0, 81, 78
1, 31672, Note_on_c, 0, 81, 0
1, 31680, Tempo, 1333333
1, 31680, Note_on_c, 0, 79, 80
1, 31680, Note_on_c, 1, 72, 0
1, 31680, Note_on_c, 1, 66, 0
1, 31680, Note_on_c, 1, 62, 0
1, 31680, Note_on_c, 1, 64, 80
1, 31680, Note_on_c, 1, 67, 80
1, 31680, Note_on_c, 1, 71, 80
1, 31848, Note_on_c, 0, 79, 0
1, 31848, Note_on_c, 1, 71, 0
1, 31848, Note_on_c, 1, 67, 0
1, 31848, Note_on_c, 1, 64, 0
1, 31920, Note_on_c, 0, 72, 88
1, 31920, Note_on_c, 0, 76, 88
1, 31920, Note_on_c, 0, 79, 88
1, 31920, Note_on_c, 0, 84, 88
1, 31920, Note_on_c, 1, 52, 88
1, 31920, Note_on_c, 1, 64, 88
1, 32160, Note_on_c, 0, 84, 0
1, 32160, Note_on_c, 0, 72, 0
1, 32160, Note_on_c, 0, 76, 0
1, 32160, Note_on_c, 0, 79, 0
1, 32160, Note_on_c, 1, 64, 0
1, 32160, Note_on_c, 1, 52, 0
1, 32340, Note_on_c, 0, 67, 80
1, 32340, Note_on_c, 0, 72, 80
1, 32340, Note_on_c, 1, 52, 80
1, 32340, Note_on_c, 1, 64, 80
1, 32398, Note_on_c, 0, 72, 0
1, 32398, Note_on_c, 0, 67, 0
1, 32400, Note_on_c, 0, 66, 80
1, 32400, Note_on_c, 0, 71, 80
1, 32400, Note_on_c, 1, 64, 0
1, 32400, Note_on_c, 1, 52, 0
1, 32400, Note_on_c, 1, 51, 80
1, 32400, Note_on_c, 1, 63, 80
1, 32520, Note_on_c, 0, 71, 0
1, 32520, Note_on_c, 0, 66, 0
1, 32520, Note_on_c, 1, 63, 0
1, 32520, Note_on_c, 1, 51, 0
1, 32640, Tempo, 1428571
1, 32640, Note_on_c, 0, 71, 88
1, 32640, Note_on_c, 0, 75, 88
1, 32640, Note_on_c, 0, 78, 88
1, 32640, Note_on_c, 0, 83, 88
1, 32640, Note_on_c, 1, 51, 88
1, 32640, Note_on_c, 1, 54, 88
1, 32640, Note_on_c, 1, 59, 88
1, 32832, Note_on_c, 0, 83, 0
1, 32832, Note_on_c, 0, 71, 0
1, 32832, Note_on_c, 0, 75, 0
1, 32832, Note_on_c, 0, 78, 0
1, 32832, Note_on_c, 1, 59, 0
1, 32832, Note_on_c, 1, 54, 0
1, 32832, Note_on_c, 1, 51, 0
1, 32880, Tempo, 1500000
1, 33060, Note_on_c, 0, 66, 64
1, 33060, Note_on_c, 0, 69, 64
1, 33118, Note_on_c, 0, 69, 0
1, 33118, Note_on_c, 0, 66, 0
1, 33120, Tempo, 1333333
1, 33120, Note_on_c, 0, 66, 64
1, 33120, Note_on_c, 0, 69, 64
1, 33360, Tempo, 1395349
1, 33360, Note_on_c, 1, 52, 56
1, 33598, Note_on_c, 0, 69, 0
1, 33598, Note_on_c, 0, 66, 0
1, 33600, Tempo, 1428571
1, 33600, Note_on_c, 0, 66, 64
1, 33600, Note_on_c, 0, 69, 64
1, 33600, Note_on_c, 1, 52, 0
1, 33600, Note_on_c, 1, 46, 48
1, 33660, Note_on_c, 0, 69, 0
1, 33660, Note_on_c, 0, 66, 0
1, 33660, Note_on_c, 0, 64, 64
1, 33660, Note_on_c, 0, 67, 64
1, 33718, Note_on_c, 0, 67, 0
1, 33718, Note_on_c, 0, 64, 0
1, 33720, Note_on_c, 0, 63, 64
1, 33720, Note_on_c, 0, 66, 64
1, 33780, Note_on_c, 0, 66, 0
1, 33780, Note_on_c, 0, 63, 0
1, 33780, Note_on_c, 0, 64, 64
1, 33780, Note_on_c, 0, 67, 64
1, 33840, Tempo, 1333333
1, 33840, Note_on_c, 0, 67, 0
1, 33840, Note_on_c, 0, 64, 0
1, 33840, Note_on_c, 0, 63, 64
1, 33840, Note_on_c, 0, 66, 64
1, 33840, Note_on_c, 1, 46, 0
1, 33840, Note_on_c, 1, 47, 40
1, 33960, Note_on_c, 0, 66, 0
1, 33960, Note_on_c, 0, 63, 0
1, 33960, Note_on_c, 1, 47, 0
1, 34080, Tempo, 1395349
1, 34080, Note_on_c, 0, 51, 40
1, 34080, Note_on_c, 0, 59, 40
1, 34080, Note_on_c, 1, 35, 40
1, 34080, Note_on_c, 1, 47, 40
1, 34176, Note_on_c, 0, 59, 0
1, 34176, Note_on_c, 0, 51, 0
1, 34176, Note_on_c, 1, 47, 0
1, 34176, Note_on_c, 1, 35, 0
1, 34320, Tempo, 1428571
1, 34320, Note_on_c, 0, 51, 32
1, 34320, Note_on_c, 0, 59, 32
1, 34320, Note_on_c, 1, 35, 32
1, 34320, Note_on_c, 1, 47, 32
1, 34416, Note_on_c, 0, 59, 0
1, 34416, Note_on_c, 0, 51, 0
1, 34416, Note_on_c, 1, 47, 0
1, 34416, Note_on_c, 1, 35, 0
1, 34560, Tempo, 1500000
1, 34560, Note_on_c, 0, 51, 24
1, 34560, Note_on_c, 0, 59, 24
1, 34560, Note_on_c, 1, 35, 24
1, 34560, Note_on_c, 1, 47, 24
1, 34776, Note_on_c, 0, 59, 0
1, 34776, Note_on_c, 0, 51, 0
1, 34776, Note_on_c, 1, 47, 0
1, 34776, Note_on_c, 1, 35, 0
1, 35280, Tempo, 1333333
1, 35290, End_track
0, 0, End_of_file