0, 0, Header, 0, 1, 240
1, 0, Start_track
1, 0, Tempo, 428571
1, 720, Note_on_c, 0, 70, 80
1, 780, Note_on_c, 0, 70, 0
1, 780, Note_on_c, 0, 72, 80
1, 798, Note_on_c, 0, 72, 0
1, 840, Note_on_c, 0, 74, 80
1, 858, Note_on_c, 0, 74, 0
1, 900, Note_on_c, 0, 75, 80
1, 918, Note_on_c, 0, 75, 0
1, 960, Note_on_c, 0, 77, 88
1, 960, Note_on_c, 1, 58, 56
1, 1080, Note_on_c, 0, 77, 0
1, 1080, Note_on_c, 1, 58, 0
1, 1080, Note_on_c, 1, 62, 56
1, 1116, Note_on_c, 1, 62, 0
1, 1200, Note_on_c, 0, 77, 80
1, 1200, Note_on_c, 1, 58, 56
1, 1236, Note_on_c, 1, 58, 0
1, 1320, Note_on_c, 1, 62, 56
1, 1356, Note_on_c, 1, 62, 0
1, 1440, Note_on_c, 1, 58, 56
1, 1560, Note_on_c, 1, 58, 0
1, 1560, Note_on_c, 1, 62, 56
1, 1680, Note_on_c, 0, 77, 0
1, 1680, Note_on_c, 0, 82, 80
1, 1680, Note_on_c, 1, 62, 0
1, 1680, Note_on_c, 1, 58, 56
1, 1800, Note_on_c, 0, 82, 0
1, 1800, Note_on_c, 0, 79, 80
1, 1800, Note_on_c, 1, 58, 0
1, 1800, Note_on_c, 1, 63, 56
1, 1920, Note_on_c, 0, 79, 0
1, 1920, Note_on_c, 0, 77, 88
1, 1920, Note_on_c, 1, 63, 0
1, 1920, Note_on_c, 1, 58, 56
1, 2016, Note_on_c, 0, 77, 0
1, 2040, Note_on_c, 1, 58, 0
1, 2040, Note_on_c, 1, 62, 56
1, 2076, Note_on_c, 1, 62, 0
1, 2160, Note_on_c, 0, 77, 80
1, 2160, Note_on_c, 1, 58, 56
1, 2196, Note_on_c, 1, 58, 0
1, 2280, Note_on_c, 1, 62, 56
1, 2316, Note_on_c, 1, 62, 0
1, 2400, Note_on_c, 1, 58, 56
1, 2520, Note_on_c, 1, 58, 0
1, 2520, Note_on_c, 1, 62, 56
1, 2640, Note_on_c, 0, 77, 0
1, 2640, Note_on_c, 0, 82, 80
1, 2640, Note_on_c, 1, 62, 0
1, 2640, Note_on_c, 1, 58, 56
1, 2760, Note_on_c, 0, 82, 0
1, 2760, Note_on_c, 0, 79, 80
1, 2760, Note_on_c, 1, 58, 0
1, 2760, Note_on_c, 1, 63, 56
1, 2880, Note_on_c, 0, 79, 0
1, 2880, Note_on_c, 0, 77, 88
1, 2880, Note_on_c, 1, 63, 0
1, 2880, Note_on_c, 1, 58, 56
1, 3000, Note_on_c, 0, 77, 0
1, 3000, Note_on_c, 1, 58, 0
1, 3000, Note_on_c, 1, 62, 56
1, 3036, Note_on_c, 1, 62, 0
1, 3090, Note_on_c, 0, 75, 61
1, 3120, Note_on_c, 0, 75, 0
1, 3120, Note_on_c, 0, 74, 63
1, 3120, Note_on_c, 1, 55, 56
1, 3150, Note_on_c, 0, 74, 0
1, 3150, Note_on_c, 0, 75, 64
1, 3156, Note_on_c, 1, 55, 0
1, 3180, Note_on_c, 0, 75, 0
1, 3180, Note_on_c, 0, 74, 65
1, 3210, Note_on_c, 0, 74, 0
1, 3210, Note_on_c, 0, 75, 67
1, 3240, Note_on_c, 0, 75, 0
1, 3240, Note_on_c, 0, 74, 68
1, 3240, Note_on_c, 1, 58, 56
1, 3260, Note_on_c, 0, 74, 0
1, 3260, Note_on_c, 0, 75, 69
1, 3276, Note_on_c, 1, 58, 0
1, 3280, Note_on_c, 0, 75, 0
1, 3280, Note_on_c, 0, 74, 70
1, 3300, Note_on_c, 0, 74, 0
1, 3300, Note_on_c, 0, 72, 71
1, 3330, Note_on_c, 0, 72, 0
1, 3330, Note_on_c, 0, 74, 72
1, 3360, Note_on_c, 0, 74, 0
1, 3360, Note_on_c, 0, 75, 73
1, 3360, Note_on_c, 1, 51, 56
1, 3480, Note_on_c, 0, 75, 0
1, 3480, Note_on_c, 1, 51, 0
1, 3480, Note_on_c, 1, 60, 56
1, 3570, Note_on_c, 0, 74, 62
1, 3600, Note_on_c, 0, 74, 0
1, 3600, Note_on_c, 0, 72, 63
1, 3600, Note_on_c, 1, 60, 0
1, 3600, Note_on_c, 1, 53, 56
1, 3630, Note_on_c, 0, 72, 0
1, 3630, Note_on_c, 0, 74, 64
1, 3660, Note_on_c, 0, 74, 0
1, 3660, Note_on_c, 0, 72, 66
1, 3690, Note_on_c, 0, 72, 0
1, 3690, Note_on_c, 0, 74, 67
1, 3720, Note_on_c, 0, 74, 0
1, 3720, Note_on_c, 0, 72, 68
1, 3720, Note_on_c, 1, 53, 0
1, 3720, Note_on_c, 1, 57, 56
1, 3740, Note_on_c, 0, 72, 0
1, 3740, Note_on_c, 0, 74, 69
1, 3760, Note_on_c, 0, 74, 0
1, 3760, Note_on_c, 0, 72, 70
1, 3780, Note_on_c, 0, 72, 0
1, 3780, Note_on_c, 0, 70, 71
1, 3810, Note_on_c, 0, 70, 0
1, 3810, Note_on_c, 0, 72, 72
1, 3840, Note_on_c, 0, 72, 0
1, 3840, Note_on_c, 0, 74, 80
1, 3840, Note_on_c, 1, 57, 0
1, 3840, Note_on_c, 1, 58, 56
1, 3920, Note_on_c, 0, 74, 0
1, 3920, Note_on_c, 0, 72, 80
1, 3944, Note_on_c, 0, 72, 0
1, 3960, Note_on_c, 1, 58, 0
1, 3960, Note_on_c, 1, 62, 56
1, 3996, Note_on_c, 1, 62, 0
1, 4000, Note_on_c, 0, 70, 80
1, 4024, Note_on_c, 0, 70, 0
1, 4080, Note_on_c, 0, 77, 80
1, 4080, Note_on_c, 1, 58, 56
1, 4116, Note_on_c, 1, 58, 0
1, 4200, Note_on_c, 1, 62, 56
1, 4236, Note_on_c, 1, 62, 0
1, 4320, Note_on_c, 1, 58, 56
1, 4440, Note_on_c, 1, 58, 0
1, 4440, Note_on_c, 1, 62, 56
1, 4560, Note_on_c, 0, 77, 0
1, 4560, Note_on_c, 0, 82, 80
1, 4560, Note_on_c, 1, 62, 0
1, 4560, Note_on_c, 1, 58, 56
1, 4680, Note_on_c, 0, 82, 0
1, 4680, Note_on_c, 0, 79, 80
1, 4680, Note_on_c, 1, 58, 0
1, 4680, Note_on_c, 1, 63, 56
1, 4800, Note_on_c, 0, 79, 0
1, 4800, Note_on_c, 0, 77, 88
1, 4800, Note_on_c, 1, 63, 0
1, 4800, Note_on_c, 1, 58, 56
1, 4920, Note_on_c, 0, 77, 0
1, 4920, Note_on_c, 1, 58, 0
1, 4920, Note_on_c, 1, 62, 56
1, 4956, Note_on_c, 1, 62, 0
1, 5010, Note_on_c, 0, 75, 60
1, 5040, Note_on_c, 0, 75, 0
1, 5040, Note_on_c, 0, 74, 61
1, 5040, Note_on_c, 1, 55, 56
1, 5070, Note_on_c, 0, 74, 0
1, 5070, Note_on_c, 0, 75, 62
1, 5076, Note_on_c, 1, 55, 0
1, 5100, Note_on_c, 0, 75, 0
1, 5100, Note_on_c, 0, 74, 63
1, 5130, Note_on_c, 0, 74, 0
1, 5130, Note_on_c, 0, 75, 64
1, 5160, Note_on_c, 0, 75, 0
1, 5160, Note_on_c, 0, 74, 65
1, 5160, Note_on_c, 1, 58, 56
1, 5180, Note_on_c, 0, 74, 0
1, 5180, Note_on_c, 0, 75, 66
1, 5196, Note_on_c, 1, 58, 0
1, 5200, Note_on_c, 0, 75, 0
1, 5200, Note_on_c, 0, 74, 67
1, 5220, Note_on_c, 0, 74, 0
1, 5220, Note_on_c, 0, 72, 67
1, 5250, Note_on_c, 0, 72, 0
1, 5250, Note_on_c, 0, 74, 69
1, 5280, Note_on_c, 0, 74, 0
1, 5280, Note_on_c, 0, 75, 70
1, 5280, Note_on_c, 1, 51, 56
1, 5400, Note_on_c, 0, 75, 0
1, 5400, Note_on_c, 1, 51, 0
1, 5400, Note_on_c, 1, 60, 56
1, 5490, Note_on_c, 0, 74, 59
1, 5520, Note_on_c, 0, 74, 0
1, 5520, Note_on_c, 0, 72, 61
1, 5520, Note_on_c, 1, 60, 0
1, 5520, Note_on_c, 1, 53, 56
1, 5550, Note_on_c, 0, 72, 0
1, 5550, Note_on_c, 0, 74, 62
1, 5580, Note_on_c, 0, 74, 0
1, 5580, Note_on_c, 0, 72, 64
1, 5610, Note_on_c, 0, 72, 0
1, 5610, Note_on_c, 0, 74, 65
1, 5640, Note_on_c, 0, 74, 0
1, 5640, Note_on_c, 0, 72, 67
1, 5640, Note_on_c, 1, 53, 0
1, 5640, Note_on_c, 1, 57, 56
1, 5660, Note_on_c, 0, 72, 0
1, 5660, Note_on_c, 0, 74, 68
1, 5680, Note_on_c, 0, 74, 0
1, 5680, Note_on_c, 0, 72, 69
1, 5700, Note_on_c, 0, 72, 0
1, 5700, Note_on_c, 0, 70, 70
1, 5730, Note_on_c, 0, 70, 0
1, 5730, Note_on_c, 0, 72, 71
1, 5760, Note_on_c, 0, 72, 0
1, 5760, Note_on_c, 0, 74, 80
1, 5760, Note_on_c, 1, 57, 0
1, 5760, Note_on_c, 1, 46, 72
1, 5760, Note_on_c, 1, 58, 72
1, 5880, Note_on_c, 0, 74, 0
1, 5880, Note_on_c, 0, 70, 80
1, 5916, Note_on_c, 0, 70, 0
1, 6000, Note_on_c, 0, 65, 80
1, 6036, Note_on_c, 0, 65, 0
1, 6120, Note_on_c, 0, 62, 80
1, 6156, Note_on_c, 0, 62, 0
1, 6240, Note_on_c, 0, 58, 80
1, 6240, Note_on_c, 1, 58, 0
1, 6240, Note_on_c, 1, 46, 0
1, 6480, Note_on_c, 0, 58, 0
1, 6480, Note_on_c, 0, 70, 50
1, 6480, Note_on_c, 1, 58, 49
1, 6480, Note_on_c, 1, 62, 49
1, 6540, Note_on_c, 0, 70, 0
1, 6540, Note_on_c, 0, 72, 50
1, 6552, Note_on_c, 1, 62, 0
1, 6552, Note_on_c, 1, 58, 0
1, 6600, Note_on_c, 0, 72, 0
1, 6600, Note_on_c, 0, 74, 51
1, 6660, Note_on_c, 0, 74, 0
1, 6660, Note_on_c, 0, 75, 52
1, 6720, Note_on_c, 0, 75, 0
1, 6720, Note_on_c, 0, 77, 53
1, 6720, Note_on_c, 1, 57, 53
1, 6720, Note_on_c, 1, 60, 53
1, 6780, Note_on_c, 0, 77, 0
1, 6780, Note_on_c, 0, 75, 54
1, 6792, Note_on_c, 1, 60, 0
1, 6792, Note_on_c, 1, 57, 0
1, 6840, Note_on_c, 0, 75, 0
1, 6840, Note_on_c, 0, 74, 55
1, 6900, Note_on_c, 0, 74, 0
1, 6900, Note_on_c, 0, 72, 56
1, 6960, Note_on_c, 0, 72, 0
1, 6960, Note_on_c, 0, 70, 56
1, 7020, Note_on_c, 0, 70, 0
1, 7020, Note_on_c, 0, 69, 57
1, 7038, Note_on_c, 0, 69, 0
1, 7080, Note_on_c, 0, 67, 58
1, 7098, Note_on_c, 0, 67, 0
1, 7140, Note_on_c, 0, 65, 59
1, 7158, Note_on_c, 0, 65, 0
1, 7200, Note_on_c, 0, 70, 60
1, 7200, Note_on_c, 1, 55, 60
1, 7200, Note_on_c, 1, 58, 60
1, 7260, Note_on_c, 0, 70, 0
1, 7260, Note_on_c, 0, 69, 61
1, 7320, Note_on_c, 0, 69, 0
1, 7320, Note_on_c, 0, 67, 61
1, 7320, Note_on_c, 1, 58, 0
1, 7320, Note_on_c, 1, 55, 0
1, 7380, Note_on_c, 0, 67, 0
1, 7380, Note_on_c, 0, 66, 62
1, 7440, Note_on_c, 0, 66, 0
1, 7440, Note_on_c, 0, 67, 63
1, 7500, Note_on_c, 0, 67, 0
1, 7500, Note_on_c, 0, 69, 64
1, 7518, Note_on_c, 0, 69, 0
1, 7560, Note_on_c, 0, 70, 65
1, 7578, Note_on_c, 0, 70, 0
1, 7620, Note_on_c, 0, 72, 66
1, 7638, Note_on_c, 0, 72, 0
1, 7680, Note_on_c, 0, 74, 67
1, 7680, Note_on_c, 1, 53, 67
1, 7680, Note_on_c, 1, 57, 67
1, 7740, Note_on_c, 0, 74, 0
1, 7740, Note_on_c, 0, 72, 67
1, 7800, Note_on_c, 0, 72, 0
1, 7800, Note_on_c, 0, 70, 68
1, 7848, Note_on_c, 1, 57, 0
1, 7848, Note_on_c, 1, 53, 0
1, 7860, Note_on_c, 0, 70, 0
1, 7860, Note_on_c, 0, 69, 69
1, 7920, Note_on_c, 0, 69, 0
1, 7920, Note_on_c, 0, 67, 70
1, 7980, Note_on_c, 0, 67, 0
1, 7980, Note_on_c, 0, 65, 71
1, 8040, Note_on_c, 0, 65, 0
1, 8040, Note_on_c, 0, 63, 72
1, 8100, Note_on_c, 0, 63, 0
1, 8100, Note_on_c, 0, 62, 72
1, 8160, Note_on_c, 0, 62, 0
1, 8160, Note_on_c, 0, 67, 73
1, 8160, Note_on_c, 1, 51, 73
1, 8160, Note_on_c, 1, 55, 73
1, 8220, Note_on_c, 0, 67, 0
1, 8220, Note_on_c, 0, 65, 74
1, 8280, Note_on_c, 0, 65, 0
1, 8280, Note_on_c, 0, 63, 75
1, 8340, Note_on_c, 0, 63, 0
1, 8340, Note_on_c, 0, 62, 76
1, 8400, Note_on_c, 0, 62, 0
1, 8400, Note_on_c, 0, 63, 77
1, 8400, Note_on_c, 1, 55, 0
1, 8400, Note_on_c, 1, 51, 0
1, 8460, Note_on_c, 0, 63, 0
1, 8460, Note_on_c, 0, 65, 78
1, 8520, Note_on_c, 0, 65, 0
1, 8520, Note_on_c, 0, 67, 78
1, 8580, Note_on_c, 0, 67, 0
1, 8580, Note_on_c, 0, 69, 79
1, 8640, Note_on_c, 0, 69, 0
1, 8640, Note_on_c, 0, 70, 80
1, 8640, Note_on_c, 1, 53, 80
1, 8640, Note_on_c, 1, 50, 80
1, 8712, Note_on_c, 1, 50, 0
1, 8712, Note_on_c, 1, 53, 0
1, 8760, Note_on_c, 0, 70, 0
1, 8760, Note_on_c, 0, 65, 80
1, 8796, Note_on_c, 0, 65, 0
1, 8880, Note_on_c, 0, 70, 80
1, 8880, Note_on_c, 1, 53, 80
1, 8880, Note_on_c, 1, 50, 80
1, 8916, Note_on_c, 0, 70, 0
1, 9000, Note_on_c, 0, 77, 80
1, 9090, Note_on_c, 0, 77, 0
1, 9090, Note_on_c, 0, 77, 80
1, 9120, Note_on_c, 0, 77, 0
1, 9120, Note_on_c, 0, 75, 80
1, 9120, Note_on_c, 1, 50, 0
1, 9120, Note_on_c, 1, 53, 0
1, 9120, Note_on_c, 1, 57, 80
1, 9120, Note_on_c, 1, 48, 80
1, 9192, Note_on_c, 1, 48, 0
1, 9192, Note_on_c, 1, 57, 0
1, 9360, Note_on_c, 1, 58, 80
1, 9360, Note_on_c, 1, 46, 80
1, 9432, Note_on_c, 1, 46, 0
1, 9432, Note_on_c, 1, 58, 0
1, 9480, Note_on_c, 0, 75, 0
1, 9480, Note_on_c, 0, 74, 80
1, 9600, Note_on_c, 0, 74, 0
1, 9600, Note_on_c, 0, 74, 80
1, 9600, Note_on_c, 1, 58, 80
1, 9600, Note_on_c, 1, 53, 80
1, 9630, Note_on_c, 0, 74, 0
1, 9630, Note_on_c, 0, 75, 80
1, 9660, Note_on_c, 0, 75, 0
1, 9660, Note_on_c, 0, 74, 80
1, 9690, Note_on_c, 0, 74, 0
1, 9690, Note_on_c, 0, 75, 80
1, 9720, Note_on_c, 0, 75, 0
1, 9720, Note_on_c, 0, 74, 80
1, 9740, Note_on_c, 0, 74, 0
1, 9740, Note_on_c, 0, 75, 80
1, 9760, Note_on_c, 0, 75, 0
1, 9760, Note_on_c, 0, 74, 80
1, 9780, Note_on_c, 0, 74, 0
1, 9780, Note_on_c, 0, 72, 80
1, 9810, Note_on_c, 0, 72, 0
1, 9810, Note_on_c, 0, 74, 80
1, 9840, Note_on_c, 0, 74, 0
1, 9840, Note_on_c, 0, 72, 80
1, 9840, Note_on_c, 1, 58, 0
1, 9840, Note_on_c, 1, 57, 80
1, 10080, Note_on_c, 0, 72, 0
1, 10080, Note_on_c, 1, 57, 0
1, 10080, Note_on_c, 1, 53, 0
1, 10080, Note_on_c, 1, 58, 80
1, 10200, Note_on_c, 0, 74, 80
1, 10236, Note_on_c, 0, 74, 0
1, 10320, Note_on_c, 0, 82, 80
1, 10320, Note_on_c, 1, 62, 80
1, 10400, Note_on_c, 0, 82, 0
1, 10400, Note_on_c, 0, 81, 80
1, 10424, Note_on_c, 0, 81, 0
1, 10480, Note_on_c, 0, 79, 80
1, 10504, Note_on_c, 0, 79, 0
1, 10560, Note_on_c, 0, 79, 80
1, 10560, Note_on_c, 1, 62, 0
1, 10560, Note_on_c, 1, 58, 0
1, 10560, Note_on_c, 1, 60, 80
1, 10560, Note_on_c, 1, 57, 80
1, 10680, Note_on_c, 0, 79, 0
1, 10680, Note_on_c, 0, 76, 80
1, 10716, Note_on_c, 0, 76, 0
1, 10800, Note_on_c, 0, 76, 80
1, 10800, Note_on_c, 1, 57, 0
1, 10800, Note_on_c, 1, 60, 0
1, 10800, Note_on_c, 1, 72, 80
1, 10800, Note_on_c, 1, 69, 80
1, 10920, Note_on_c, 0, 76, 0
1, 10920, Note_on_c, 0, 77, 80
1, 11040, Note_on_c, 0, 77, 0
1, 11040, Note_on_c, 1, 69, 0
1, 11040, Note_on_c, 1, 72, 0
1, 11040, Note_on_c, 1, 70, 80
1, 11040, Note_on_c, 1, 67, 80
1, 11160, Note_on_c, 0, 75, 80
1, 11196, Note_on_c, 0, 75, 0
1, 11280, Note_on_c, 0, 79, 80
1, 11280, Note_on_c, 1, 67, 0
1, 11280, Note_on_c, 1, 70, 0
1, 11280, Note_on_c, 1, 58, 80
1, 11280, Note_on_c, 1, 55, 80
1, 11360, Note_on_c, 0, 79, 0
1, 11360, Note_on_c, 0, 77, 80
1, 11384, Note_on_c, 0, 77, 0
1, 11440, Note_on_c, 0, 75, 80
1, 11464, Note_on_c, 0, 75, 0
1, 11520, Note_on_c, 0, 75, 80
1, 11520, Note_on_c, 1, 55, 0
1, 11520, Note_on_c, 1, 58, 0
1, 11520, Note_on_c, 1, 57, 80
1, 11520, Note_on_c, 1, 53, 80
1, 11640, Note_on_c, 0, 75, 0
1, 11640, Note_on_c, 0, 73, 80
1, 11676, Note_on_c, 0, 73, 0
1, 11760, Note_on_c, 0, 73, 80
1, 11760, Note_on_c, 1, 53, 0
1, 11760, Note_on_c, 1, 57, 0
1, 11760, Note_on_c, 1, 65, 80
1, 11760, Note_on_c, 1, 69, 80
1, 11880, Note_on_c, 0, 73, 0
1, 11880, Note_on_c, 0, 74, 80
1, 12000, Note_on_c, 0, 74, 0
1, 12000, Note_on_c, 1, 69, 0
1, 12000, Note_on_c, 1, 65, 0
1, 12000, Note_on_c, 1, 63, 80
1, 12000, Note_on_c, 1, 67, 80
1, 12120, Note_on_c, 0, 72, 80
1, 12156, Note_on_c, 0, 72, 0
1, 12240, Note_on_c, 0, 75, 80
1, 12240, Note_on_c, 1, 67, 0
1, 12240, Note_on_c, 1, 63, 0
1, 12240, Note_on_c, 1, 51, 80
1, 12240, Note_on_c, 1, 55, 80
1, 12320, Note_on_c, 0, 75, 0
1, 12320, Note_on_c, 0, 74, 80
1, 12344, Note_on_c, 0, 74, 0
1, 12400, Note_on_c, 0, 72, 80
1, 12424, Note_on_c, 0, 72, 0
1, 12480, Note_on_c, 0, 72, 80
1, 12480, Note_on_c, 1, 55, 0
1, 12480, Note_on_c, 1, 51, 0
1, 12480, Note_on_c, 1, 50, 80
1, 12480, Note_on_c, 1, 53, 80
1, 12600, Note_on_c, 0, 72, 0
1, 12600, Note_on_c, 0, 69, 80
1, 12720, Note_on_c, 0, 69, 0
1, 12720, Note_on_c, 0, 69, 80
1, 12720, Note_on_c, 1, 53, 0
1, 12720, Note_on_c, 1, 50, 0
1, 12720, Note_on_c, 1, 65, 80
1, 12720, Note_on_c, 1, 62, 80
1, 12840, Note_on_c, 0, 69, 0
1, 12840, Note_on_c, 0, 70, 80
1, 12960, Note_on_c, 0, 70, 0
1, 12960, Note_on_c, 0, 77, 80
1, 12960, Note_on_c, 0, 72, 80
1, 12960, Note_on_c, 1, 62, 0
1, 12960, Note_on_c, 1, 65, 0
1, 12960, Note_on_c, 1, 57, 80
1, 12960, Note_on_c, 1, 65, 80
1, 13080, Note_on_c, 0, 77, 0
1, 13080, Note_on_c, 0, 75, 80
1, 13200, Note_on_c, 0, 75, 0
1, 13200, Note_on_c, 0, 72, 0
1, 13200, Note_on_c, 1, 65, 0
1, 13200, Note_on_c, 1, 57, 0
1, 13200, Note_on_c, 1, 58, 80
1, 13200, Note_on_c, 1, 65, 80
1, 13320, Note_on_c, 0, 74, 80
1, 13320, Note_on_c, 0, 70, 80
1, 13440, Note_on_c, 0, 70, 0
1, 13440, Note_on_c, 0, 74, 0
1, 13440, Note_on_c, 0, 74, 80
1, 13440, Note_on_c, 0, 70, 80
1, 13440, Note_on_c, 1, 65, 0
1, 13440, Note_on_c, 1, 58, 0
1, 13560, Note_on_c, 1, 53, 82
1, 13680, Note_on_c, 0, 70, 0
1, 13680, Note_on_c, 0, 74, 0
1, 13680, Note_on_c, 0, 72, 80
1, 13680, Note_on_c, 0, 69, 80
1, 13680, Note_on_c, 1, 53, 0
1, 13680, Note_on_c, 1, 48, 84
1, 13728, Note_on_c, 1, 48, 0
1, 13800, Note_on_c, 0, 69, 0
1, 13800, Note_on_c, 0, 72, 0
1, 13800, Note_on_c, 1, 45, 86
1, 13848, Note_on_c, 1, 45, 0
1, 13920, Note_on_c, 1, 41, 88
1, 14160, Note_on_c, 0, 65, 80
1, 14160, Note_on_c, 1, 41, 0
1, 14220, Note_on_c, 0, 65, 0
1, 14220, Note_on_c, 0, 67, 80
1, 14250, Note_on_c, 0, 67, 0
1, 14280, Note_on_c, 0, 69, 80
1, 14310, Note_on_c, 0, 69, 0
1, 14340, Note_on_c, 0, 70, 80
1, 14370, Note_on_c, 0, 70, 0
1, 14400, Note_on_c, 0, 72, 80
1, 14400, Note_on_c, 1, 53, 56
1, 14520, Note_on_c, 1, 53, 0
1, 14520, Note_on_c, 1, 57, 56
1, 14556, Note_on_c, 1, 57, 0
1, 14640, Note_on_c, 0, 72, 0
1, 14640, Note_on_c, 0, 72, 80
1, 14640, Note_on_c, 1, 53, 56
1, 14676, Note_on_c, 1, 53, 0
1, 14760, Note_on_c, 1, 57, 56
1, 14796, Note_on_c, 1, 57, 0
1, 14880, Note_on_c, 1, 53, 56
1, 15000, Note_on_c, 1, 53, 0
1, 15000, Note_on_c, 1, 57, 56
1, 15120, Note_on_c, 0, 72, 0
1, 15120, Note_on_c, 0, 77, 80
1, 15120, Note_on_c, 1, 57, 0
1, 15120, Note_on_c, 1, 53, 56
1, 15240, Note_on_c, 1, 53, 0
1, 15240, Note_on_c, 1, 57, 56
1, 15300, Note_on_c, 0, 77, 0
1, 15300, Note_on_c, 0, 72, 80
1, 15360, Note_on_c, 0, 72, 0
1, 15360, Note_on_c, 0, 72, 80
1, 15360, Note_on_c, 1, 57, 0
1, 15360, Note_on_c, 1, 53, 56
1, 15480, Note_on_c, 1, 53, 0
1, 15480, Note_on_c, 1, 55, 56
1, 15516, Note_on_c, 1, 55, 0
1, 15540, Note_on_c, 0, 72, 0
1, 15540, Note_on_c, 0, 70, 80
1, 15600, Note_on_c, 0, 70, 0
1, 15600, Note_on_c, 0, 70, 80
1, 15600, Note_on_c, 1, 53, 56
1, 15636, Note_on_c, 1, 53, 0
1, 15720, Note_on_c, 1, 55, 56
1, 15756, Note_on_c, 1, 55, 0
1, 15840, Note_on_c, 1, 53, 56
1, 15960, Note_on_c, 1, 53, 0
1, 15960, Note_on_c, 1, 55, 56
1, 16080, Note_on_c, 0, 70, 0
1, 16080, Note_on_c, 0, 70, 63
1, 16080, Note_on_c, 1, 55, 0
1, 16080, Note_on_c, 1, 53, 56
1, 16110, Note_on_c, 0, 70, 0
1, 16110, Note_on_c, 0, 72, 64
1, 16140, Note_on_c, 0, 72, 0
1, 16140, Note_on_c, 0, 70, 65
1, 16170, Note_on_c, 0, 70, 0
1, 16170, Note_on_c, 0, 72, 66
1, 16200, Note_on_c, 0, 72, 0
1, 16200, Note_on_c, 0, 70, 67
1, 16200, Note_on_c, 1, 53, 0
1, 16200, Note_on_c, 1, 55, 56
1, 16220, Note_on_c, 0, 70, 0
1, 16220, Note_on_c, 0, 72, 68
1, 16240, Note_on_c, 0, 72, 0
1, 16240, Note_on_c, 0, 70, 69
1, 16260, Note_on_c, 0, 70, 0
1, 16260, Note_on_c, 0, 69, 70
1, 16290, Note_on_c, 0, 69, 0
1, 16290, Note_on_c, 0, 70, 71
1, 16320, Note_on_c, 0, 70, 0
1, 16320, Note_on_c, 0, 60, 80
1, 16320, Note_on_c, 1, 55, 0
1, 16320, Note_on_c, 1, 52, 56
1, 16440, Note_on_c, 1, 52, 0
1, 16440, Note_on_c, 1, 55, 56
1, 16476, Note_on_c, 1, 55, 0
1, 16560, Note_on_c, 0, 60, 0
1, 16560, Note_on_c, 0, 70, 61
1, 16560, Note_on_c, 1, 52, 56
1, 16590, Note_on_c, 0, 70, 0
1, 16590, Note_on_c, 0, 72, 62
1, 16596, Note_on_c, 1, 52, 0
1, 16620, Note_on_c, 0, 72, 0
1, 16620, Note_on_c, 0, 70, 64
1, 16650, Note_on_c, 0, 70, 0
1, 16650, Note_on_c, 0, 72, 65
1, 16680, Note_on_c, 0, 72, 0
1, 16680, Note_on_c, 0, 70, 67
1, 16680, Note_on_c, 1, 55, 56
1, 16700, Note_on_c, 0, 70, 0
1, 16700, Note_on_c, 0, 72, 68
1, 16716, Note_on_c, 1, 55, 0
1, 16720, Note_on_c, 0, 72, 0
1, 16720, Note_on_c, 0, 70, 69
1, 16740, Note_on_c, 0, 70, 0
1, 16740, Note_on_c, 0, 69, 70
1, 16770, Note_on_c, 0, 69, 0
1, 16770, Note_on_c, 0, 70, 72
1, 16800, Note_on_c, 0, 70, 0
1, 16800, Note_on_c, 0, 79, 80
1, 16800, Note_on_c, 1, 52, 56
1, 16920, Note_on_c, 1, 52, 0
1, 16920, Note_on_c, 1, 55, 56
1, 16980, Note_on_c, 1, 55, 0
1, 17040, Note_on_c, 0, 79, 0
1, 17040, Note_on_c, 0, 70, 80
1, 17040, Note_on_c, 1, 52, 56
1, 17100, Note_on_c, 1, 52, 0
1, 17160, Note_on_c, 1, 55, 56
1, 17220, Note_on_c, 0, 70, 0
1, 17220, Note_on_c, 0, 72, 80
1, 17220, Note_on_c, 1, 55, 0
1, 17280, Note_on_c, 0, 72, 0
1, 17280, Note_on_c, 0, 70, 56
1, 17280, Note_on_c, 1, 41, 56
1, 17310, Note_on_c, 0, 70, 0
1, 17310, Note_on_c, 0, 72, 58
1, 17340, Note_on_c, 0, 72, 0
1, 17340, Note_on_c, 0, 70, 60
1, 17370, Note_on_c, 0, 70, 0
1, 17370, Note_on_c, 0, 72, 63
1, 17400, Note_on_c, 0, 72, 0
1, 17400, Note_on_c, 0, 70, 65
1, 17400, Note_on_c, 1, 41, 0
1, 17400, Note_on_c, 1, 53, 56
1, 17420, Note_on_c, 0, 70, 0
1, 17420, Note_on_c, 0, 72, 66
1, 17440, Note_on_c, 0, 72, 0
1, 17440, Note_on_c, 0, 70, 68
1, 17460, Note_on_c, 0, 70, 0
1, 17460, Note_on_c, 0, 69, 69
1, 17460, Note_on_c, 1, 53, 0
1, 17490, Note_on_c, 0, 69, 0
1, 17490, Note_on_c, 0, 70, 72
1, 17520, Note_on_c, 0, 70, 0
1, 17520, Note_on_c, 0, 69, 80
1, 17520, Note_on_c, 1, 41, 56
1, 17580, Note_on_c, 1, 41, 0
1, 17640, Note_on_c, 1, 53, 56
1, 17700, Note_on_c, 1, 53, 0
1, 17760, Note_on_c, 1, 45, 56
1, 17880, Note_on_c, 1, 45, 0
1, 17880, Note_on_c, 1, 53, 56
1, 18000, Note_on_c, 0, 69, 0
1, 18000, Note_on_c, 0, 72, 80
1, 18000, Note_on_c, 1, 53, 0
1, 18000, Note_on_c, 1, 45, 56
1, 18060, Note_on_c, 0, 72, 0
1, 18060, Note_on_c, 0, 69, 80
1, 18120, Note_on_c, 1, 45, 0
1, 18120, Note_on_c, 1, 53, 56
1, 18240, Note_on_c, 0, 69, 0
1, 18240, Note_on_c, 0, 69, 80
1, 18240, Note_on_c, 1, 53, 0
1, 18240, Note_on_c, 1, 46, 56
1, 18300, Note_on_c, 0, 69, 0
1, 18300, Note_on_c, 0, 67, 80
1, 18360, Note_on_c, 1, 46, 0
1, 18360, Note_on_c, 1, 53, 56
1, 18480, Note_on_c, 0, 67, 0
1, 18480, Note_on_c, 0, 68, 80
1, 18480, Note_on_c, 1, 53, 0
1, 18480, Note_on_c, 1, 47, 56
1, 18600, Note_on_c, 1, 47, 0
1, 18600, Note_on_c, 1, 53, 56
1, 18720, Note_on_c, 1, 53, 0
1, 18720, Note_on_c, 1, 47, 56
1, 18840, Note_on_c, 0, 68, 0
1, 18840, Note_on_c, 0, 67, 80
1, 18840, Note_on_c, 1, 47, 0
1, 18840, Note_on_c, 1, 53, 56
1, 18900, Note_on_c, 0, 67, 0
1, 18900, Note_on_c, 0, 68, 80
1, 18960, Note_on_c, 0, 68, 0
1, 18960, Note_on_c, 0, 70, 80
1, 18960, Note_on_c, 1, 53, 0
1, 18960, Note_on_c, 1, 47, 56
1, 19080, Note_on_c, 0, 70, 0
1, 19080, Note_on_c, 0, 68, 80
1, 19080, Note_on_c, 1, 47, 0
1, 19080, Note_on_c, 1, 53, 56
1, 19200, Note_on_c, 0, 68, 0
1, 19200, Note_on_c, 0, 68, 80
1, 19200, Note_on_c, 1, 53, 0
1, 19200, Note_on_c, 1, 48, 56
1, 19260, Note_on_c, 0, 68, 0
1, 19260, Note_on_c, 0, 67, 80
1, 19320, Note_on_c, 1, 48, 0
1, 19320, Note_on_c, 1, 52, 56
1, 19440, Note_on_c, 0, 67, 0
1, 19440, Note_on_c, 0, 67, 80
1, 19440, Note_on_c, 1, 52, 0
1, 19440, Note_on_c, 1, 48, 56
1, 19560, Note_on_c, 1, 48, 0
1, 19560, Note_on_c, 1, 52, 56
1, 19680, Note_on_c, 1, 52, 0
1, 19680, Note_on_c, 1, 48, 56
1, 19800, Note_on_c, 1, 48, 0
1, 19800, Note_on_c, 1, 52, 56
1, 19920, Note_on_c, 0, 67, 0
1, 19920, Note_on_c, 0, 72, 64
1, 19920, Note_on_c, 1, 52, 0
1, 19920, Note_on_c, 1, 45, 48
1, 19980, Note_on_c, 0, 72, 0
1, 19980, Note_on_c, 0, 69, 64
1, 20040, Note_on_c, 1, 45, 0
1, 20040, Note_on_c, 1, 53, 48
1, 20160, Note_on_c, 0, 69, 0
1, 20160, Note_on_c, 0, 69, 64
1, 20160, Note_on_c, 1, 53, 0
1, 20160, Note_on_c, 1, 46, 48
1, 20220, Note_on_c, 0, 69, 0
1, 20220, Note_on_c, 0, 67, 64
1, 20280, Note_on_c, 1, 46, 0
1, 20280, Note_on_c, 1, 53, 48
1, 20328, Note_on_c, 1, 53, 0
1, 20400, Note_on_c, 0, 67, 0
1, 20400, Note_on_c, 0, 68, 64
1, 20400, Note_on_c, 1, 47, 48
1, 20448, Note_on_c, 1, 47, 0
1, 20520, Note_on_c, 1, 53, 48
1, 20568, Note_on_c, 1, 53, 0
1, 20640, Note_on_c, 1, 47, 48
1, 20688, Note_on_c, 1, 47, 0
1, 20760, Note_on_c, 0, 68, 0
1, 20760, Note_on_c, 0, 67, 64
1, 20760, Note_on_c, 1, 53, 48
1, 20808, Note_on_c, 1, 53, 0
1, 20820, Note_on_c, 0, 67, 0
1, 20820, Note_on_c, 0, 68, 64
1, 20880, Note_on_c, 0, 68, 0
1, 20880, Note_on_c, 0, 70, 64
1, 20880, Note_on_c, 1, 47, 48
1, 20928, Note_on_c, 1, 47, 0
1, 21000, Note_on_c, 0, 70, 0
1, 21000, Note_on_c, 0, 68, 64
1, 21000, Note_on_c, 1, 53, 48
1, 21048, Note_on_c, 1, 53, 0
1, 21120, Note_on_c, 0, 68, 0
1, 21120, Note_on_c, 0, 68, 64
1, 21120, Note_on_c, 1, 48, 48
1, 21180, Note_on_c, 0, 68, 0
1, 21180, Note_on_c, 0, 67, 64
1, 21240, Note_on_c, 1, 48, 0
1, 21240, Note_on_c, 1, 52, 48
1, 21360, Note_on_c, 0, 67, 0
1, 21360, Note_on_c, 0, 67, 64
1, 21360, Note_on_c, 1, 52, 0
1, 21360, Note_on_c, 1, 48, 48
1, 21480, Note_on_c, 1, 48, 0
1, 21480, Note_on_c, 1, 52, 48
1, 21600, Note_on_c, 0, 67, 0
1, 21600, Note_on_c, 0, 72, 62
1, 21600, Note_on_c, 1, 52, 0
1, 21600, Note_on_c, 1, 45, 56
1, 21630, Note_on_c, 0, 72, 0
1, 21630, Note_on_c, 0, 74, 63
1, 21660, Note_on_c, 0, 74, 0
1, 21660, Note_on_c, 0, 72, 65
1, 21680, Note_on_c, 0, 72, 0
1, 21680, Note_on_c, 0, 74, 66
1, 21700, Note_on_c, 0, 74, 0
1, 21700, Note_on_c, 0, 72, 67
1, 21720, Note_on_c, 0, 72, 0
1, 21720, Note_on_c, 0, 71, 68
1, 21720, Note_on_c, 1, 45, 0
1, 21720, Note_on_c, 1, 53, 56
1, 21780, Note_on_c, 0, 71, 0
1, 21780, Note_on_c, 0, 72, 71
1, 21840, Note_on_c, 0, 72, 0
1, 21840, Note_on_c, 0, 74, 80
1, 21840, Note_on_c, 1, 53, 0
1, 21840, Note_on_c, 1, 45, 56
1, 21960, Note_on_c, 0, 74, 0
1, 21960, Note_on_c, 0, 72, 80
1, 21960, Note_on_c, 1, 45, 0
1, 21960, Note_on_c, 1, 53, 56
1, 22080, Note_on_c, 0, 72, 0
1, 22080, Note_on_c, 0, 72, 80
1, 22080, Note_on_c, 1, 53, 0
1, 22080, Note_on_c, 1, 43, 56
1, 22200, Note_on_c, 1, 43, 0
1, 22200, Note_on_c, 1, 53, 56
1, 22320, Note_on_c, 0, 72, 0
1, 22320, Note_on_c, 0, 71, 80
1, 22320, Note_on_c, 1, 53, 0
1, 22320, Note_on_c, 1, 43, 56
1, 22440, Note_on_c, 1, 43, 0
1, 22440, Note_on_c, 1, 53, 56
1, 22464, Note_on_c, 0, 71, 0
1, 22560, Note_on_c, 0, 70, 62
1, 22560, Note_on_c, 1, 53, 0
1, 22560, Note_on_c, 1, 48, 56
1, 22590, Note_on_c, 0, 70, 0
1, 22590, Note_on_c, 0, 72, 64
1, 22620, Note_on_c, 0, 72, 0
1, 22620, Note_on_c, 0, 70, 65
1, 22640, Note_on_c, 0, 70, 0
1, 22640, Note_on_c, 0, 72, 66
1, 22660, Note_on_c, 0, 72, 0
1, 22660, Note_on_c, 0, 70, 67
1, 22680, Note_on_c, 0, 70, 0
1, 22680, Note_on_c, 0, 69, 68
1, 22680, Note_on_c, 1, 48, 0
1, 22680, Note_on_c, 1, 52, 56
1, 22740, Note_on_c, 0, 69, 0
1, 22740, Note_on_c, 0, 70, 72
1, 22800, Note_on_c, 0, 70, 0
1, 22800, Note_on_c, 0, 72, 80
1, 22800, Note_on_c, 1, 52, 0
1, 22800, Note_on_c, 1, 48, 56
1, 22920, Note_on_c, 0, 72, 0
1, 22920, Note_on_c, 0, 70, 80
1, 22920, Note_on_c, 1, 48, 0
1, 22920, Note_on_c, 1, 52, 56
1, 23040, Note_on_c, 0, 70, 0
1, 23040, Note_on_c, 0, 70, 80
1, 23040, Note_on_c, 1, 52, 0
1, 23040, Note_on_c, 1, 41, 56
1, 23160, Note_on_c, 1, 41, 0
1, 23160, Note_on_c, 1, 53, 56
1, 23280, Note_on_c, 0, 70, 0
1, 23280, Note_on_c, 0, 69, 80
1, 23280, Note_on_c, 1, 53, 0
1, 23280, Note_on_c, 1, 41, 56
1, 23400, Note_on_c, 1, 41, 0
1, 23400, Note_on_c, 1, 53, 56
1, 23520, Note_on_c, 0, 69, 0
1, 23520, Note_on_c, 0, 69, 62
1, 23520, Note_on_c, 1, 53, 0
1, 23520, Note_on_c, 1, 50, 56
1, 23550, Note_on_c, 0, 69, 0
1, 23550, Note_on_c, 0, 70, 63
1, 23580, Note_on_c, 0, 70, 0
1, 23580, Note_on_c, 0, 69, 65
1, 23600, Note_on_c, 0, 69, 0
1, 23600, Note_on_c, 0, 70, 66
1, 23620, Note_on_c, 0, 70, 0
1, 23620, Note_on_c, 0, 69, 67
1, 23640, Note_on_c, 0, 69, 0
1, 23640, Note_on_c, 0, 67, 68
1, 23640, Note_on_c, 1, 50, 0
1, 23640, Note_on_c, 1, 53, 56
1, 23700, Note_on_c, 0, 67, 0
1, 23700, Note_on_c, 0, 69, 71
1, 23760, Note_on_c, 0, 69, 0
1, 23760, Note_on_c, 0, 70, 80
1, 23760, Note_on_c, 1, 53, 0
1, 23760, Note_on_c, 1, 50, 56
1, 23880, Note_on_c, 0, 70, 0
1, 23880, Note_on_c, 0, 69, 80
1, 23880, Note_on_c, 1, 50, 0
1, 23880, Note_on_c, 1, 53, 56
1, 24000, Note_on_c, 0, 69, 0
1, 24000, Note_on_c, 0, 69, 80
1, 24000, Note_on_c, 1, 53, 0
1, 24000, Note_on_c, 1, 46, 80
1, 24000, Note_on_c, 1, 58, 80
1, 24120, Note_on_c, 0, 69, 0
1, 24120, Note_on_c, 0, 67, 80
1, 24240, Note_on_c, 0, 67, 0
1, 24240, Note_on_c, 0, 65, 80
1, 24240, Note_on_c, 1, 58, 0
1, 24240, Note_on_c, 1, 57, 80
1, 24480, Note_on_c, 1, 46, 0
1, 24480, Note_on_c, 1, 48, 80
1, 24720, Note_on_c, 0, 65, 0
1, 24720, Note_on_c, 0, 67, 80
1, 24720, Note_on_c, 1, 57, 0
1, 24720, Note_on_c, 1, 58, 80
1, 24780, Note_on_c, 0, 67, 0
1, 24780, Note_on_c, 0, 64, 80
1, 24780, Note_on_c, 1, 58, 0
1, 24780, Note_on_c, 1, 55, 80
1, 24960, Note_on_c, 0, 64, 0
1, 24960, Note_on_c, 0, 64, 80
1, 24960, Note_on_c, 1, 55, 0
1, 24960, Note_on_c, 1, 48, 0
1, 24960, Note_on_c, 1, 41, 80
1, 25080, Note_on_c, 1, 41, 0
1, 25080, Note_on_c, 1, 53, 80
1, 25128, Note_on_c, 1, 53, 0
1, 25200, Note_on_c, 0, 64, 0
1, 25200, Note_on_c, 0, 65, 80
1, 25200, Note_on_c, 1, 52, 80
1, 25248, Note_on_c, 1, 52, 0
1, 25320, Note_on_c, 1, 53, 80
1, 25368, Note_on_c, 1, 53, 0
1, 25440, Note_on_c, 0, 65, 0
1, 25440, Note_on_c, 0, 72, 61
1, 25440, Note_on_c, 1, 45, 80
1, 25470, Note_on_c, 0, 72, 0
1, 25470, Note_on_c, 0, 74, 62
1, 25500, Note_on_c, 0, 74, 0
1, 25500, Note_on_c, 0, 72, 64
1, 25520, Note_on_c, 0, 72, 0
1, 25520, Note_on_c, 0, 74, 65
1, 25540, Note_on_c, 0, 74, 0
1, 25540, Note_on_c, 0, 72, 66
1, 25560, Note_on_c, 0, 72, 0
1, 25560, Note_on_c, 0, 71, 67
1, 25560, Note_on_c, 1, 45, 0
1, 25560, Note_on_c, 1, 53, 80
1, 25620, Note_on_c, 0, 71, 0
1, 25620, Note_on_c, 0, 72, 71
1, 25680, Note_on_c, 0, 72, 0
1, 25680, Note_on_c, 0, 74, 80
1, 25680, Note_on_c, 1, 53, 0
1, 25680, Note_on_c, 1, 45, 80
1, 25800, Note_on_c, 0, 74, 0
1, 25800, Note_on_c, 0, 72, 80
1, 25800, Note_on_c, 1, 45, 0
1, 25800, Note_on_c, 1, 53, 80
1, 25920, Note_on_c, 0, 72, 0
1, 25920, Note_on_c, 0, 72, 80
1, 25920, Note_on_c, 1, 53, 0
1, 25920, Note_on_c, 1, 43, 56
1, 26040, Note_on_c, 0, 72, 0
1, 26040, Note_on_c, 0, 70, 80
1, 26040, Note_on_c, 1, 43, 0
1, 26040, Note_on_c, 1, 53, 56
1, 26076, Note_on_c, 0, 70, 0
1, 26076, Note_on_c, 1, 53, 0
1, 26160, Note_on_c, 0, 70, 80
1, 26160, Note_on_c, 1, 43, 56
1, 26196, Note_on_c, 0, 70, 0
1, 26196, Note_on_c, 1, 43, 0
1, 26280, Note_on_c, 0, 70, 80
1, 26280, Note_on_c, 1, 53, 56
1, 26316, Note_on_c, 0, 70, 0
1, 26316, Note_on_c, 1, 53, 0
1, 26400, Note_on_c, 0, 70, 80
1, 26400, Note_on_c, 1, 48, 56
1, 26430, Note_on_c, 0, 70, 0
1, 26430, Note_on_c, 0, 72, 80
1, 26460, Note_on_c, 0, 72, 0
1, 26460, Note_on_c, 0, 70, 80
1, 26480, Note_on_c, 0, 70, 0
1, 26480, Note_on_c, 0, 72, 80
1, 26500, Note_on_c, 0, 72, 0
1, 26500, Note_on_c, 0, 70, 80
1, 26520, Note_on_c, 0, 70, 0
1, 26520, Note_on_c, 0, 69, 80
1, 26520, Note_on_c, 1, 48, 0
1, 26520, Note_on_c, 1, 52, 56
1, 26580, Note_on_c, 0, 69, 0
1, 26580, Note_on_c, 0, 70, 80
1, 26640, Note_on_c, 0, 70, 0
1, 26640, Note_on_c, 0, 72, 80
1, 26640, Note_on_c, 1, 52, 0
1, 26640, Note_on_c, 1, 48, 56
1, 26760, Note_on_c, 0, 72, 0
1, 26760, Note_on_c, 0, 70, 80
1, 26760, Note_on_c, 1, 48, 0
1, 26760, Note_on_c, 1, 52, 56
1, 26880, Note_on_c, 0, 70, 0
1, 26880, Note_on_c, 0, 70, 80
1, 26880, Note_on_c, 1, 52, 0
1, 26880, Note_on_c, 1, 50, 56
1, 27000, Note_on_c, 0, 70, 0
1, 27000, Note_on_c, 0, 69, 80
1, 27000, Note_on_c, 1, 50, 0
1, 27000, Note_on_c, 1, 53, 56
1, 27036, Note_on_c, 0, 69, 0
1, 27036, Note_on_c, 1, 53, 0
1, 27120, Note_on_c, 0, 69, 80
1, 27120, Note_on_c, 1, 50, 56
1, 27156, Note_on_c, 0, 69, 0
1, 27156, Note_on_c, 1, 50, 0
1, 27240, Note_on_c, 0, 69, 80
1, 27240, Note_on_c, 1, 53, 56
1, 27276, Note_on_c, 0, 69, 0
1, 27276, Note_on_c, 1, 53, 0
1, 27360, Note_on_c, 0, 69, 80
1, 27360, Note_on_c, 1, 50, 56
1, 27390, Note_on_c, 0, 69, 0
1, 27390, Note_on_c, 0, 70, 80
1, 27420, Note_on_c, 0, 70, 0
1, 27420, Note_on_c, 0, 69, 80
1, 27450, Note_on_c, 0, 69, 0
1, 27450, Note_on_c, 0, 70, 80
1, 27480, Note_on_c, 0, 70, 0
1, 27480, Note_on_c, 0, 69, 80
1, 27480, Note_on_c, 1, 50, 0
1, 27480, Note_on_c, 1, 53, 56
1, 27500, Note_on_c, 0, 69, 0
1, 27500, Note_on_c, 0, 70, 80
1, 27520, Note_on_c, 0, 70, 0
1, 27520, Note_on_c, 0, 69, 80
1, 27540, Note_on_c, 0, 69, 0
1, 27540, Note_on_c, 0, 67, 80
1, 27570, Note_on_c, 0, 67, 0
1, 27570, Note_on_c, 0, 69, 80
1, 27600, Note_on_c, 0, 69, 0
1, 27600, Note_on_c, 0, 70, 80
1, 27600, Note_on_c, 1, 53, 0
1, 27600, Note_on_c, 1, 50, 56
1, 27720, Note_on_c, 0, 70, 0
1, 27720, Note_on_c, 0, 69, 80
1, 27720, Note_on_c, 1, 50, 0
1, 27720, Note_on_c, 1, 53, 56
1, 27840, Note_on_c, 0, 69, 0
1, 27840, Note_on_c, 0, 69, 80
1, 27840, Note_on_c, 1, 53, 0
1, 27840, Note_on_c, 1, 58, 80
1, 27840, Note_on_c, 1, 46, 80
1, 27960, Note_on_c, 0, 69, 0
1, 27960, Note_on_c, 0, 67, 80
1, 28080, Note_on_c, 0, 67, 0
1, 28080, Note_on_c, 0, 65, 80
1, 28080, Note_on_c, 1, 58, 0
1, 28080, Note_on_c, 1, 57, 80
1, 28320, Note_on_c, 1, 46, 0
1, 28320, Note_on_c, 1, 48, 80
1, 28560, Note_on_c, 0, 65, 0
1, 28560, Note_on_c, 0, 67, 80
1, 28560, Note_on_c, 1, 57, 0
1, 28560, Note_on_c, 1, 58, 80
1, 28620, Note_on_c, 0, 67, 0
1, 28620, Note_on_c, 0, 64, 80
1, 28620, Note_on_c, 1, 58, 0
1, 28620, Note_on_c, 1, 55, 80
1, 28800, Note_on_c, 0, 64, 0
1, 28800, Note_on_c, 0, 65, 80
1, 28800, Note_on_c, 1, 55, 0
1, 28800, Note_on_c, 1, 48, 0
1, 28920, Note_on_c, 0, 65, 0
1, 28920, Note_on_c, 1, 65, 64
1, 28980, Note_on_c, 1, 65, 0
1, 29040, Note_on_c, 0, 69, 80
1, 29040, Note_on_c, 0, 77, 80
1, 29040, Note_on_c, 1, 57, 64
1, 29076, Note_on_c, 1, 57, 0
1, 29112, Note_on_c, 0, 77, 0
1, 29112, Note_on_c, 0, 69, 0
1, 29160, Note_on_c, 1, 65, 64
1, 29196, Note_on_c, 1, 65, 0
1, 29280, Note_on_c, 0, 69, 80
1, 29280, Note_on_c, 0, 77, 80
1, 29280, Note_on_c, 1, 58, 64
1, 29340, Note_on_c, 1, 58, 0
1, 29400, Note_on_c, 0, 77, 0
1, 29400, Note_on_c, 0, 69, 0
1, 29400, Note_on_c, 1, 65, 64
1, 29460, Note_on_c, 1, 65, 0
1, 29520, Note_on_c, 0, 69, 80
1, 29520, Note_on_c, 0, 77, 80
1, 29520, Note_on_c, 1, 60, 64
1, 29640, Note_on_c, 1, 60, 0
1, 29640, Note_on_c, 1, 65, 64
1, 29688, Note_on_c, 0, 77, 0
1, 29688, Note_on_c, 0, 69, 0
1, 29700, Note_on_c, 1, 65, 0
1, 29760, Note_on_c, 0, 69, 80
1, 29760, Note_on_c, 0, 77, 80
1, 29760, Note_on_c, 1, 62, 64
1, 29880, Note_on_c, 0, 77, 0
1, 29880, Note_on_c, 0, 79, 80
1, 29880, Note_on_c, 1, 62, 0
1, 29880, Note_on_c, 1, 65, 64
1, 29940, Note_on_c, 0, 79, 0
1, 29940, Note_on_c, 0, 81, 80
1, 29940, Note_on_c, 1, 65, 0
1, 30000, Note_on_c, 0, 81, 0
1, 30000, Note_on_c, 0, 69, 0
1, 30000, Note_on_c, 0, 69, 80
1, 30000, Note_on_c, 0, 77, 80
1, 30000, Note_on_c, 1, 57, 64
1, 30072, Note_on_c, 0, 77, 0
1, 30072, Note_on_c, 0, 69, 0
1, 30120, Note_on_c, 1, 57, 0
1, 30120, Note_on_c, 1, 65, 64
1, 30180, Note_on_c, 1, 65, 0
1, 30240, Note_on_c, 0, 69, 80
1, 30240, Note_on_c, 0, 77, 80
1, 30240, Note_on_c, 1, 58, 64
1, 30360, Note_on_c, 0, 77, 0
1, 30360, Note_on_c, 0, 69, 0
1, 30360, Note_on_c, 1, 58, 0
1, 30360, Note_on_c, 1, 65, 64
1, 30420, Note_on_c, 1, 65, 0
1, 30480, Note_on_c, 0, 69, 80
1, 30480, Note_on_c, 0, 77, 80
1, 30480, Note_on_c, 1, 60, 64
1, 30600, Note_on_c, 1, 60, 0
1, 30600, Note_on_c, 1, 65, 64
1, 30660, Note_on_c, 1, 65, 0
1, 30720, Note_on_c, 0, 77, 0
1, 30720, Note_on_c, 0, 69, 0
1, 30720, Note_on_c, 0, 69, 80
1, 30720, Note_on_c, 0, 77, 80
1, 30720, Note_on_c, 1, 62, 80
1, 30810, Note_on_c, 0, 77, 0
1, 30810, Note_on_c, 0, 69, 0
1, 30900, Note_on_c, 0, 77, 80
1, 30960, Note_on_c, 0, 77, 0
1, 30960, Note_on_c, 0, 67, 80
1, 30960, Note_on_c, 1, 62, 0
1, 30960, Note_on_c, 1, 58, 80
1, 31050, Note_on_c, 0, 67, 0
1, 31080, Note_on_c, 1, 58, 0
1, 31140, Note_on_c, 0, 70, 80
1, 31140, Note_on_c, 0, 74, 80
1, 31170, Note_on_c, 0, 74, 0
1, 31170, Note_on_c, 0, 70, 0
1, 31185, Note_on_c, 0, 74, 80
1, 31185, Note_on_c, 0, 70, 80
1, 31200, Note_on_c, 0, 69, 80
1, 31200, Note_on_c, 0, 72, 80
1, 31200, Note_on_c, 1, 60, 80
1, 31215, Note_on_c, 0, 70, 0
1, 31215, Note_on_c, 0, 74, 0
1, 31290, Note_on_c, 0, 69, 0
1, 31290, Note_on_c, 0, 72, 0
1, 31320, Note_on_c, 1, 60, 0
1, 31380, Note_on_c, 0, 67, 80
1, 31380, Note_on_c, 0, 70, 80
1, 31410, Note_on_c, 0, 70, 0
1, 31410, Note_on_c, 0, 67, 0
1, 31425, Note_on_c, 0, 67, 80
1, 31425, Note_on_c, 0, 70, 80
1, 31440, Note_on_c, 0, 65, 80
1, 31440, Note_on_c, 0, 69, 80
1, 31440, Note_on_c, 1, 48, 80
1, 31455, Note_on_c, 0, 70, 0
1, 31455, Note_on_c, 0, 67, 0
1, 31620, Note_on_c, 0, 65, 0
1, 31620, Note_on_c, 0, 69, 0
1, 31620, Note_on_c, 0, 64, 80
1, 31620, Note_on_c, 0, 67, 80
1, 31680, Note_on_c, 0, 67, 0
1, 31680, Note_on_c, 0, 64, 0
1, 31680, Note_on_c, 0, 65, 48
1, 31680, Note_on_c, 1, 48, 0
1, 31800, Note_on_c, 0, 65, 0
1, 31800, Note_on_c, 1, 65, 40
1, 31860, Note_on_c, 1, 65, 0
1, 31920, Note_on_c, 0, 77, 48
1, 31920, Note_on_c, 0, 69, 48
1, 31920, Note_on_c, 1, 57, 40
1, 31980, Note_on_c, 1, 57, 0
1, 31992, Note_on_c, 0, 69, 0
1, 31992, Note_on_c, 0, 77, 0
1, 32040, Note_on_c, 1, 65, 40
1, 32100, Note_on_c, 1, 65, 0
1, 32160, Note_on_c, 0, 77, 48
1, 32160, Note_on_c, 0, 69, 48
1, 32160, Note_on_c, 1, 58, 40
1, 32220, Note_on_c, 1, 58, 0
1, 32232, Note_on_c, 0, 69, 0
1, 32232, Note_on_c, 0, 77, 0
1, 32280, Note_on_c, 1, 65, 40
1, 32340, Note_on_c, 1, 65, 0
1, 32400, Note_on_c, 0, 77, 48
1, 32400, Note_on_c, 0, 69, 48
1, 32400, Note_on_c, 1, 60, 40
1, 32460, Note_on_c, 1, 60, 0
1, 32520, Note_on_c, 1, 65, 40
1, 32580, Note_on_c, 1, 65, 0
1, 32640, Note_on_c, 0, 69, 0
1, 32640, Note_on_c, 0, 77, 0
1, 32640, Note_on_c, 0, 77, 48
1, 32640, Note_on_c, 0, 69, 48
1, 32640, Note_on_c, 1, 62, 40
1, 32700, Note_on_c, 1, 62, 0
1, 32760, Note_on_c, 0, 77, 0
1, 32760, Note_on_c, 0, 79, 48
1, 32760, Note_on_c, 1, 65, 40
1, 32820, Note_on_c, 0, 79, 0
1, 32820, Note_on_c, 0, 81, 48
1, 32820, Note_on_c, 1, 65, 0
1, 32880, Note_on_c, 0, 81, 0
1, 32880, Note_on_c, 0, 69, 0
1, 32880, Note_on_c, 0, 77, 48
1, 32880, Note_on_c, 0, 69, 48
1, 32880, Note_on_c, 1, 57, 40
1, 32940, Note_on_c, 1, 57, 0
1, 32952, Note_on_c, 0, 69, 0
1, 32952, Note_on_c, 0, 77, 0
1, 33000, Note_on_c, 1, 65, 40
1, 33060, Note_on_c, 1, 65, 0
1, 33120, Note_on_c, 0, 77, 48
1, 33120, Note_on_c, 0, 69, 48
1, 33120, Note_on_c, 1, 58, 40
1, 33180, Note_on_c, 1, 58, 0
1, 33192, Note_on_c, 0, 69, 0
1, 33192, Note_on_c, 0, 77, 0
1, 33240, Note_on_c, 1, 65, 40
1, 33300, Note_on_c, 1, 65, 0
1, 33360, Note_on_c, 0, 77, 48
1, 33360, Note_on_c, 0, 69, 48
1, 33360, Note_on_c, 1, 60, 40
1, 33420, Note_on_c, 1, 60, 0
1, 33480, Note_on_c, 1, 65, 40
1, 33540, Note_on_c, 1, 65, 0
1, 33600, Note_on_c, 0, 69, 0
1, 33600, Note_on_c, 0, 77, 0
1, 33600, Note_on_c, 0, 77, 48
1, 33600, Note_on_c, 0, 69, 48
1, 33600, Note_on_c, 1, 62, 48
1, 33780, Note_on_c, 0, 69, 0
1, 33780, Note_on_c, 0, 77, 0
1, 33780, Note_on_c, 0, 77, 48
1, 33840, Note_on_c, 0, 77, 0
1, 33840, Note_on_c, 0, 67, 48
1, 33840, Note_on_c, 1, 62, 0
1, 33840, Note_on_c, 1, 58, 48
1, 33930, Note_on_c, 0, 67, 0
1, 33960, Note_on_c, 1, 58, 0
1, 34020, Note_on_c, 0, 74, 48
1, 34020, Note_on_c, 0, 70, 48
1, 34050, Note_on_c, 0, 70, 0
1, 34050, Note_on_c, 0, 74, 0
1, 34065, Note_on_c, 0, 70, 48
1, 34065, Note_on_c, 0, 74, 48
1, 34080, Note_on_c, 0, 72, 48
1, 34080, Note_on_c, 0, 69, 48
1, 34080, Note_on_c, 1, 60, 48
1, 34095, Note_on_c, 0, 74, 0
1, 34095, Note_on_c, 0, 70, 0
1, 34170, Note_on_c, 0, 72, 0
1, 34170, Note_on_c, 0, 69, 0
1, 34200, Note_on_c, 1, 60, 0
1, 34260, Note_on_c, 0, 70, 48
1, 34260, Note_on_c, 0, 67, 48
1, 34290, Note_on_c, 0, 67, 0
1, 34290, Note_on_c, 0, 70, 0
1, 34305, Note_on_c, 0, 70, 48
1, 34305, Note_on_c, 0, 67, 48
1, 34320, Note_on_c, 0, 69, 48
1, 34320, Note_on_c, 0, 65, 48
1, 34320, Note_on_c, 1, 48, 48
1, 34335, Note_on_c, 0, 67, 0
1, 34335, Note_on_c, 0, 70, 0
1, 34410, Note_on_c, 0, 69, 0
1, 34410, Note_on_c, 0, 65, 0
1, 34500, Note_on_c, 0, 67, 48
1, 34500, Note_on_c, 0, 64, 48
1, 34560, Note_on_c, 0, 64, 0
1, 34560, Note_on_c, 0, 67, 0
1, 34560, Note_on_c, 0, 65, 80
1, 34560, Note_on_c, 1, 48, 0
1, 34560, Note_on_c, 1, 50, 80
1, 34740, Note_on_c, 0, 65, 0
1, 34740, Note_on_c, 0, 77, 80
1, 34800, Note_on_c, 0, 77, 0
1, 34800, Note_on_c, 0, 67, 80
1, 34800, Note_on_c, 1, 50, 0
1, 34800, Note_on_c, 1, 46, 80
1, 34908, Note_on_c, 0, 67, 0
1, 34920, Note_on_c, 1, 46, 0
1, 34980, Note_on_c, 0, 70, 80
1, 34980, Note_on_c, 0, 74, 80
1, 35010, Note_on_c, 0, 74, 0
1, 35010, Note_on_c, 0, 70, 0
1, 35025, Note_on_c, 0, 74, 80
1, 35025, Note_on_c, 0, 70, 80
1, 35040, Note_on_c, 0, 69, 80
1, 35040, Note_on_c, 0, 72, 80
1, 35040, Note_on_c, 1, 48, 80
1, 35055, Note_on_c, 0, 70, 0
1, 35055, Note_on_c, 0, 74, 0
1, 35148, Note_on_c, 0, 69, 0
1, 35148, Note_on_c, 0, 72, 0
1, 35160, Note_on_c, 1, 48, 0
1, 35220, Note_on_c, 0, 67, 80
1, 35220, Note_on_c, 0, 70, 80
1, 35250, Note_on_c, 0, 70, 0
1, 35250, Note_on_c, 0, 67, 0
1, 35265, Note_on_c, 0, 67, 80
1, 35265, Note_on_c, 0, 70, 80
1, 35280, Note_on_c, 0, 65, 80
1, 35280, Note_on_c, 0, 69, 80
1, 35280, Note_on_c, 1, 36, 80
1, 35295, Note_on_c, 0, 70, 0
1, 35295, Note_on_c, 0, 67, 0
1, 35460, Note_on_c, 0, 65, 0
1, 35460, Note_on_c, 0, 69, 0
1, 35460, Note_on_c, 0, 64, 80
1, 35460, Note_on_c, 0, 67, 80
1, 35520, Note_on_c, 0, 67, 0
1, 35520, Note_on_c, 0, 64, 0
1, 35520, Note_on_c, 0, 65, 80
1, 35520, Note_on_c, 1, 36, 0
1, 35520, Note_on_c, 1, 41, 80
1, 35600, Note_on_c, 0, 65, 0
1, 35600, Note_on_c, 0, 60, 80
1, 35624, Note_on_c, 0, 60, 0
1, 35680, Note_on_c, 0, 58, 80
1, 35704, Note_on_c, 0, 58, 0
1, 35760, Note_on_c, 0, 57, 80
1, 35840, Note_on_c, 0, 57, 0
1, 35840, Note_on_c, 0, 58, 80
1, 35864, Note_on_c, 0, 58, 0
1, 35920, Note_on_c, 0, 60, 80
1, 35944, Note_on_c, 0, 60, 0
1, 36000, Note_on_c, 0, 53, 80
1, 36168, Note_on_c, 0, 53, 0
1, 36240, Note_on_c, 0, 65, 80
1, 36240, Note_on_c, 1, 41, 0
1, 36300, Note_on_c, 0, 65, 0
1, 36300, Note_on_c, 0, 67, 80
1, 36324, Note_on_c, 0, 67, 0
1, 36360, Note_on_c, 0, 69, 80
1, 36384, Note_on_c, 0, 69, 0
1, 36420, Note_on_c, 0, 70, 80
1, 36444, Note_on_c, 0, 70, 0
1, 36480, Note_on_c, 0, 72, 80
1, 36480, Note_on_c, 1, 53, 56
1, 36576, Note_on_c, 0, 72, 0
1, 36600, Note_on_c, 1, 53, 0
1, 36600, Note_on_c, 1, 57, 56
1, 36648, Note_on_c, 1, 57, 0
1, 36720, Note_on_c, 0, 72, 80
1, 36720, Note_on_c, 1, 53, 56
1, 36768, Note_on_c, 1, 53, 0
1, 36840, Note_on_c, 1, 57, 56
1, 36888, Note_on_c, 1, 57, 0
1, 36960, Note_on_c, 1, 53, 56
1, 37080, Note_on_c, 1, 53, 0
1, 37080, Note_on_c, 1, 57, 56
1, 37200, Note_on_c, 0, 72, 0
1, 37200, Note_on_c, 0, 77, 80
1, 37200, Note_on_c, 1, 57, 0
1, 37200, Note_on_c, 1, 53, 56
1, 37320, Note_on_c, 0, 77, 0
1, 37320, Note_on_c, 0, 74, 80
1, 37320, Note_on_c, 1, 53, 0
1, 37320, Note_on_c, 1, 58, 56
1, 37440, Note_on_c, 0, 74, 0
1, 37440, Note_on_c, 0, 72, 80
1, 37440, Note_on_c, 1, 58, 0
1, 37440, Note_on_c, 1, 53, 56
1, 37536, Note_on_c, 0, 72, 0
1, 37560, Note_on_c, 1, 53, 0
1, 37560, Note_on_c, 1, 57, 56
1, 37608, Note_on_c, 1, 57, 0
1, 37680, Note_on_c, 0, 72, 80
1, 37680, Note_on_c, 1, 53, 56
1, 37728, Note_on_c, 1, 53, 0
1, 37800, Note_on_c, 1, 57, 56
1, 37848, Note_on_c, 1, 57, 0
1, 37920, Note_on_c, 1, 53, 56
1, 38040, Note_on_c, 1, 53, 0
1, 38040, Note_on_c, 1, 57, 56
1, 38160, Note_on_c, 0, 72, 0
1, 38160, Note_on_c, 0, 77, 80
1, 38160, Note_on_c, 1, 57, 0
1, 38160, Note_on_c, 1, 53, 56
1, 38280, Note_on_c, 0, 77, 0
1, 38280, Note_on_c, 0, 74, 80
1, 38280, Note_on_c, 1, 53, 0
1, 38280, Note_on_c, 1, 58, 56
1, 38400, Note_on_c, 0, 74, 0
1, 38400, Note_on_c, 0, 72, 80
1, 38400, Note_on_c, 1, 58, 0
1, 38400, Note_on_c, 1, 53, 56
1, 38520, Note_on_c, 0, 72, 0
1, 38520, Note_on_c, 1, 53, 0
1, 38520, Note_on_c, 1, 57, 56
1, 38580, Note_on_c, 1, 57, 0
1, 38610, Note_on_c, 0, 70, 67
1, 38640, Note_on_c, 0, 70, 0
1, 38640, Note_on_c, 0, 69, 68
1, 38640, Note_on_c, 1, 50, 56
1, 38670, Note_on_c, 0, 69, 0
1, 38670, Note_on_c, 0, 70, 70
1, 38700, Note_on_c, 0, 70, 0
1, 38700, Note_on_c, 0, 69, 72
1, 38700, Note_on_c, 1, 50, 0
1, 38730, Note_on_c, 0, 69, 0
1, 38730, Note_on_c, 0, 70, 73
1, 38760, Note_on_c, 0, 70, 0
1, 38760, Note_on_c, 0, 69, 75
1, 38760, Note_on_c, 1, 53, 56
1, 38780, Note_on_c, 0, 69, 0
1, 38780, Note_on_c, 0, 70, 76
1, 38800, Note_on_c, 0, 70, 0
1, 38800, Note_on_c, 0, 69, 77
1, 38820, Note_on_c, 0, 69, 0
1, 38820, Note_on_c, 0, 67, 78
1, 38820, Note_on_c, 1, 53, 0
1, 38850, Note_on_c, 0, 67, 0
1, 38850, Note_on_c, 0, 69, 79
1, 38880, Note_on_c, 0, 69, 0
1, 38880, Note_on_c, 0, 70, 80
1, 38880, Note_on_c, 1, 46, 56
1, 39000, Note_on_c, 0, 70, 0
1, 39000, Note_on_c, 1, 46, 0
1, 39000, Note_on_c, 1, 55, 56
1, 39090, Note_on_c, 0, 69, 67
1, 39120, Note_on_c, 0, 69, 0
1, 39120, Note_on_c, 0, 67, 69
1, 39120, Note_on_c, 1, 55, 0
1, 39120, Note_on_c, 1, 48, 56
1, 39150, Note_on_c, 0, 67, 0
1, 39150, Note_on_c, 0, 69, 70
1, 39180, Note_on_c, 0, 69, 0
1, 39180, Note_on_c, 0, 67, 72
1, 39210, Note_on_c, 0, 67, 0
1, 39210, Note_on_c, 0, 69, 73
1, 39240, Note_on_c, 0, 69, 0
1, 39240, Note_on_c, 0, 67, 74
1, 39240, Note_on_c, 1, 48, 0
1, 39240, Note_on_c, 1, 52, 56
1, 39260, Note_on_c, 0, 67, 0
1, 39260, Note_on_c, 0, 69, 75
1, 39280, Note_on_c, 0, 69, 0
1, 39280, Note_on_c, 0, 67, 76
1, 39300, Note_on_c, 0, 67, 0
1, 39300, Note_on_c, 0, 65, 77
1, 39330, Note_on_c, 0, 65, 0
1, 39330, Note_on_c, 0, 67, 79
1, 39360, Note_on_c, 0, 67, 0
1, 39360, Note_on_c, 0, 69, 80
1, 39360, Note_on_c, 1, 52, 0
1, 39360, Note_on_c, 1, 53, 56
1, 39440, Note_on_c, 0, 69, 0
1, 39440, Note_on_c, 0, 67, 80
1, 39480, Note_on_c, 0, 67, 0
1, 39480, Note_on_c, 1, 53, 0
1, 39480, Note_on_c, 1, 57, 56
1, 39520, Note_on_c, 0, 65, 80
1, 39540, Note_on_c, 1, 57, 0
1, 39560, Note_on_c, 0, 65, 0
1, 39600, Note_on_c, 0, 72, 80
1, 39600, Note_on_c, 1, 53, 56
1, 39660, Note_on_c, 1, 53, 0
1, 39720, Note_on_c, 1, 57, 56
1, 39780, Note_on_c, 1, 57, 0
1, 39840, Note_on_c, 1, 53, 56
1, 39960, Note_on_c, 1, 53, 0
1, 39960, Note_on_c, 1, 57, 56
1, 40080, Note_on_c, 0, 72, 0
1, 40080, Note_on_c, 0, 77, 80
1, 40080, Note_on_c, 1, 57, 0
1, 40080, Note_on_c, 1, 53, 56
1, 40200, Note_on_c, 0, 77, 0
1, 40200, Note_on_c, 0, 74, 80
1, 40200, Note_on_c, 1, 53, 0
1, 40200, Note_on_c, 1, 58, 56
1, 40320, Note_on_c, 0, 74, 0
1, 40320, Note_on_c, 0, 72, 80
1, 40320, Note_on_c, 1, 58, 0
1, 40320, Note_on_c, 1, 53, 56
1, 40440, Note_on_c, 0, 72, 0
1, 40440, Note_on_c, 1, 53, 0
1, 40440, Note_on_c, 1, 57, 56
1, 40488, Note_on_c, 1, 57, 0
1, 40530, Note_on_c, 0, 70, 67
1, 40560, Note_on_c, 0, 70, 0
1, 40560, Note_on_c, 0, 69, 69
1, 40560, Note_on_c, 1, 50, 56
1, 40590, Note_on_c, 0, 69, 0
1, 40590, Note_on_c, 0, 70, 70
1, 40608, Note_on_c, 1, 50, 0
1, 40620, Note_on_c, 0, 70, 0
1, 40620, Note_on_c, 0, 69, 72
1, 40650, Note_on_c, 0, 69, 0
1, 40650, Note_on_c, 0, 70, 73
1, 40680, Note_on_c, 0, 70, 0
1, 40680, Note_on_c, 0, 69, 74
1, 40680, Note_on_c, 1, 53, 56
1, 40700, Note_on_c, 0, 69, 0
1, 40700, Note_on_c, 0, 70, 75
1, 40720, Note_on_c, 0, 70, 0
1, 40720, Note_on_c, 0, 69, 76
1, 40728, Note_on_c, 1, 53, 0
1, 40740, Note_on_c, 0, 69, 0
1, 40740, Note_on_c, 0, 67, 77
1, 40770, Note_on_c, 0, 67, 0
1, 40770, Note_on_c, 0, 69, 79
1, 40800, Note_on_c, 0, 69, 0
1, 40800, Note_on_c, 0, 70, 80
1, 40800, Note_on_c, 1, 46, 56
1, 40920, Note_on_c, 0, 70, 0
1, 40920, Note_on_c, 1, 46, 0
1, 40920, Note_on_c, 1, 55, 56
1, 41010, Note_on_c, 0, 69, 68
1, 41040, Note_on_c, 0, 69, 0
1, 41040, Note_on_c, 0, 67, 69
1, 41040, Note_on_c, 1, 55, 0
1, 41040, Note_on_c, 1, 48, 56
1, 41070, Note_on_c, 0, 67, 0
1, 41070, Note_on_c, 0, 69, 71
1, 41100, Note_on_c, 0, 69, 0
1, 41100, Note_on_c, 0, 67, 72
1, 41130, Note_on_c, 0, 67, 0
1, 41130, Note_on_c, 0, 69, 73
1, 41160, Note_on_c, 0, 69, 0
1, 41160, Note_on_c, 0, 67, 75
1, 41160, Note_on_c, 1, 48, 0
1, 41160, Note_on_c, 1, 52, 56
1, 41180, Note_on_c, 0, 67, 0
1, 41180, Note_on_c, 0, 69, 76
1, 41200, Note_on_c, 0, 69, 0
1, 41200, Note_on_c, 0, 67, 77
1, 41220, Note_on_c, 0, 67, 0
1, 41220, Note_on_c, 0, 65, 77
1, 41250, Note_on_c, 0, 65, 0
1, 41250, Note_on_c, 0, 67, 79
1, 41280, Note_on_c, 0, 67, 0
1, 41280, Note_on_c, 0, 69, 80
1, 41280, Note_on_c, 1, 52, 0
1, 41280, Note_on_c, 1, 53, 56
1, 41360, Note_on_c, 0, 69, 0
1, 41360, Note_on_c, 0, 67, 80
1, 41392, Note_on_c, 0, 67, 0
1, 41400, Note_on_c, 1, 53, 0
1, 41400, Note_on_c, 1, 41, 56
1, 41440, Note_on_c, 0, 65, 80
1, 41448, Note_on_c, 1, 41, 0
1, 41472, Note_on_c, 0, 65, 0
1, 41520, Note_on_c, 0, 65, 80
1, 41520, Note_on_c, 1, 45, 56
1, 41568, Note_on_c, 1, 45, 0
1, 41640, Note_on_c, 1, 48, 56
1, 41688, Note_on_c, 1, 48, 0
1, 41760, Note_on_c, 0, 65, 0
1, 41760, Note_on_c, 1, 53, 56
1, 42000, Note_on_c, 0, 65, 80
1, 42000, Note_on_c, 1, 53, 0
1, 42060, Note_on_c, 0, 65, 0
1, 42060, Note_on_c, 0, 67, 80
1, 42120, Note_on_c, 0, 67, 0
1, 42120, Note_on_c, 0, 69, 80
1, 42180, Note_on_c, 0, 69, 0
1, 42180, Note_on_c, 0, 70, 80
1, 42240, Note_on_c, 0, 70, 0
1, 42240, Note_on_c, 0, 72, 80
1, 42240, Note_on_c, 1, 53, 56
1, 42360, Note_on_c, 0, 72, 0
1, 42360, Note_on_c, 1, 53, 0
1, 42360, Note_on_c, 1, 57, 56
1, 42408, Note_on_c, 1, 57, 0
1, 42480, Note_on_c, 0, 72, 80
1, 42480, Note_on_c, 1, 53, 56
1, 42528, Note_on_c, 1, 53, 0
1, 42600, Note_on_c, 1, 57, 56
1, 42648, Note_on_c, 1, 57, 0
1, 42720, Note_on_c, 1, 51, 56
1, 42840, Note_on_c, 1, 51, 0
1, 42840, Note_on_c, 1, 57, 56
1, 42960, Note_on_c, 0, 72, 0
1, 42960, Note_on_c, 0, 69, 80
1, 42960, Note_on_c, 1, 57, 0
1, 42960, Note_on_c, 1, 51, 56
1, 43040, Note_on_c, 0, 69, 0
1, 43040, Note_on_c, 0, 70, 80
1, 43080, Note_on_c, 1, 51, 0
1, 43080, Note_on_c, 1, 57, 56
1, 43120, Note_on_c, 0, 70, 0
1, 43120, Note_on_c, 0, 72, 80
1, 43200, Note_on_c, 0, 72, 0
1, 43200, Note_on_c, 0, 67, 80
1, 43200, Note_on_c, 1, 57, 0
1, 43200, Note_on_c, 1, 50, 56
1, 43320, Note_on_c, 1, 50, 0
1, 43320, Note_on_c, 1, 57, 56
1, 43368, Note_on_c, 1, 57, 0
1, 43440, Note_on_c, 0, 67, 0
1, 43440, Note_on_c, 0, 66, 80
1, 43440, Note_on_c, 1, 50, 56
1, 43488, Note_on_c, 1, 50, 0
1, 43560, Note_on_c, 1, 57, 56
1, 43608, Note_on_c, 1, 57, 0
1, 43680, Note_on_c, 1, 50, 56
1, 43800, Note_on_c, 1, 50, 0
1, 43800, Note_on_c, 1, 57, 56
1, 43920, Note_on_c, 0, 66, 0
1, 43920, Note_on_c, 0, 75, 80
1, 43920, Note_on_c, 1, 57, 0
1, 43920, Note_on_c, 1, 48, 56
1, 44040, Note_on_c, 1, 48, 0
1, 44040, Note_on_c, 1, 57, 56
1, 44160, Note_on_c, 0, 75, 0
1, 44160, Note_on_c, 0, 74, 80
1, 44160, Note_on_c, 1, 57, 0
1, 44160, Note_on_c, 1, 46, 56
1, 44280, Note_on_c, 0, 74, 0
1, 44280, Note_on_c, 1, 46, 0
1, 44280, Note_on_c, 1, 57, 56
1, 44340, Note_on_c, 1, 57, 0
1, 44400, Note_on_c, 0, 75, 80
1, 44400, Note_on_c, 1, 51, 56
1, 44460, Note_on_c, 0, 75, 0
1, 44460, Note_on_c, 0, 74, 80
1, 44460, Note_on_c, 1, 51, 0
1, 44490, Note_on_c, 0, 74, 0
1, 44520, Note_on_c, 0, 72, 80
1, 44520, Note_on_c, 1, 55, 56
1, 44550, Note_on_c, 0, 72, 0
1, 44580, Note_on_c, 0, 70, 80
1, 44580, Note_on_c, 1, 55, 0
1, 44610, Note_on_c, 0, 70, 0
1, 44640, Note_on_c, 0, 72, 80
1, 44640, Note_on_c, 1, 45, 56
1, 44760, Note_on_c, 0, 72, 0
1, 44760, Note_on_c, 1, 45, 0
1, 44760, Note_on_c, 1, 55, 56
1, 44880, Note_on_c, 0, 74, 80
1, 44880, Note_on_c, 1, 55, 0
1, 44880, Note_on_c, 1, 50, 56
1, 44940, Note_on_c, 0, 74, 0
1, 44940, Note_on_c, 0, 72, 80
1, 45000, Note_on_c, 0, 72, 0
1, 45000, Note_on_c, 0, 70, 80
1, 45000, Note_on_c, 1, 50, 0
1, 45000, Note_on_c, 1, 54, 56
1, 45060, Note_on_c, 0, 70, 0
1, 45060, Note_on_c, 0, 69, 80
1, 45120, Note_on_c, 0, 69, 0
1, 45120, Note_on_c, 0, 70, 80
1, 45120, Note_on_c, 1, 54, 0
1, 45120, Note_on_c, 1, 43, 80
1, 45120, Note_on_c, 1, 55, 80
1, 45240, Note_on_c, 0, 70, 0
1, 45240, Note_on_c, 0, 67, 80
1, 45300, Note_on_c, 0, 67, 0
1, 45360, Note_on_c, 0, 62, 80
1, 45420, Note_on_c, 0, 62, 0
1, 45480, Note_on_c, 0, 58, 80
1, 45540, Note_on_c, 0, 58, 0
1, 45600, Note_on_c, 0, 55, 80
1, 45600, Note_on_c, 1, 55, 0
1, 45600, Note_on_c, 1, 43, 0
1, 45720, Note_on_c, 0, 55, 0
1, 45720, Note_on_c, 0, 58, 80
1, 45840, Note_on_c, 0, 58, 0
1, 45840, Note_on_c, 0, 62, 80
1, 45960, Note_on_c, 0, 62, 0
1, 45960, Note_on_c, 0, 67, 80
1, 46080, Note_on_c, 0, 67, 0
1, 46080, Note_on_c, 0, 70, 80
1, 46200, Note_on_c, 0, 70, 0
1, 46200, Note_on_c, 0, 74, 80
1, 46320, Note_on_c, 0, 74, 0
1, 46320, Note_on_c, 0, 79, 80
1, 46320, Note_on_c, 1, 67, 80
1, 46320, Note_on_c, 1, 70, 80
1, 46380, Note_on_c, 0, 79, 0
1, 46440, Note_on_c, 0, 81, 80
1, 46464, Note_on_c, 1, 70, 0
1, 46464, Note_on_c, 1, 67, 0
1, 46500, Note_on_c, 0, 81, 0
1, 46560, Note_on_c, 0, 82, 80
1, 46560, Note_on_c, 1, 67, 80
1, 46560, Note_on_c, 1, 70, 80
1, 46680, Note_on_c, 0, 82, 0
1, 46680, Note_on_c, 0, 79, 80
1, 46704, Note_on_c, 1, 70, 0
1, 46704, Note_on_c, 1, 67, 0
1, 46800, Note_on_c, 0, 79, 0
1, 46800, Note_on_c, 0, 75, 80
1, 46800, Note_on_c, 1, 67, 80
1, 46800, Note_on_c, 1, 70, 80
1, 46920, Note_on_c, 0, 75, 0
1, 46920, Note_on_c, 0, 74, 80
1, 47040, Note_on_c, 0, 74, 0
1, 47040, Note_on_c, 0, 74, 80
1, 47040, Note_on_c, 1, 70, 0
1, 47040, Note_on_c, 1, 67, 0
1, 47040, Note_on_c, 1, 67, 80
1, 47040, Note_on_c, 1, 69, 80
1, 47280, Note_on_c, 1, 69, 0
1, 47280, Note_on_c, 1, 67, 0
1, 47280, Note_on_c, 1, 67, 80
1, 47280, Note_on_c, 1, 69, 80
1, 47424, Note_on_c, 1, 69, 0
1, 47424, Note_on_c, 1, 67, 0
1, 47520, Note_on_c, 0, 74, 0
1, 47520, Note_on_c, 0, 73, 67
1, 47520, Note_on_c, 1, 67, 80
1, 47520, Note_on_c, 1, 69, 80
1, 47550, Note_on_c, 0, 73, 0
1, 47550, Note_on_c, 0, 74, 68
1, 47580, Note_on_c, 0, 74, 0
1, 47580, Note_on_c, 0, 73, 68
1, 47610, Note_on_c, 0, 73, 0
1, 47610, Note_on_c, 0, 74, 69
1, 47640, Note_on_c, 0, 74, 0
1, 47640, Note_on_c, 0, 73, 70
1, 47664, Note_on_c, 1, 69, 0
1, 47664, Note_on_c, 1, 67, 0
1, 47670, Note_on_c, 0, 73, 0
1, 47670, Note_on_c, 0, 74, 71
1, 47700, Note_on_c, 0, 74, 0
1, 47700, Note_on_c, 0, 73, 72
1, 47730, Note_on_c, 0, 73, 0
1, 47730, Note_on_c, 0, 74, 73
1, 47760, Note_on_c, 0, 74, 0
1, 47760, Note_on_c, 0, 73, 73
1, 47760, Note_on_c, 1, 67, 80
1, 47760, Note_on_c, 1, 69, 80
1, 47790, Note_on_c, 0, 73, 0
1, 47790, Note_on_c, 0, 74, 74
1, 47820, Note_on_c, 0, 74, 0
1, 47820, Note_on_c, 0, 73, 75
1, 47850, Note_on_c, 0, 73, 0
1, 47850, Note_on_c, 0, 74, 76
1, 47880, Note_on_c, 0, 74, 0
1, 47880, Note_on_c, 0, 73, 77
1, 47900, Note_on_c, 0, 73, 0
1, 47900, Note_on_c, 0, 74, 77
1, 47920, Note_on_c, 0, 74, 0
1, 47920, Note_on_c, 0, 73, 78
1, 47940, Note_on_c, 0, 73, 0
1, 47940, Note_on_c, 0, 71, 78
1, 47970, Note_on_c, 0, 71, 0
1, 47970, Note_on_c, 0, 73, 79
1, 48000, Note_on_c, 0, 73, 0
1, 48000, Note_on_c, 0, 74, 80
1, 48000, Note_on_c, 1, 69, 0
1, 48000, Note_on_c, 1, 67, 0
1, 48000, Note_on_c, 1, 65, 80
1, 48000, Note_on_c, 1, 69, 80
1, 48120, Note_on_c, 0, 74, 0
1, 48120, Note_on_c, 0, 75, 80
1, 48180, Note_on_c, 0, 75, 0
1, 48240, Note_on_c, 0, 77, 80
1, 48240, Note_on_c, 1, 69, 0
1, 48240, Note_on_c, 1, 65, 0
1, 48240, Note_on_c, 1, 65, 80
1, 48240, Note_on_c, 1, 68, 80
1, 48300, Note_on_c, 0, 77, 0
1, 48360, Note_on_c, 0, 79, 80
1, 48384, Note_on_c, 1, 68, 0
1, 48384, Note_on_c, 1, 65, 0
1, 48420, Note_on_c, 0, 79, 0
1, 48480, Note_on_c, 0, 80, 80
1, 48480, Note_on_c, 1, 65, 80
1, 48480, Note_on_c, 1, 68, 80
1, 48600, Note_on_c, 0, 80, 0
1, 48600, Note_on_c, 0, 77, 80
1, 48624, Note_on_c, 1, 68, 0
1, 48624, Note_on_c, 1, 65, 0
1, 48720, Note_on_c, 0, 77, 0
1, 48720, Note_on_c, 0, 74, 80
1, 48720, Note_on_c, 1, 65, 80
1, 48720, Note_on_c, 1, 68, 80
1, 48840, Note_on_c, 0, 74, 0
1, 48840, Note_on_c, 0, 72, 80
1, 48960, Note_on_c, 0, 72, 0
1, 48960, Note_on_c, 0, 72, 80
1, 48960, Note_on_c, 1, 68, 0
1, 48960, Note_on_c, 1, 65, 0
1, 48960, Note_on_c, 1, 65, 80
1, 48960, Note_on_c, 1, 67, 80
1, 49200, Note_on_c, 1, 67, 0
1, 49200, Note_on_c, 1, 65, 0
1, 49200, Note_on_c, 1, 65, 80
1, 49200, Note_on_c, 1, 67, 80
1, 49344, Note_on_c, 1, 67, 0
1, 49344, Note_on_c, 1, 65, 0
1, 49440, Note_on_c, 0, 72, 0
1, 49440, Note_on_c, 0, 71, 67
1, 49440, Note_on_c, 1, 65, 80
1, 49440, Note_on_c, 1, 67, 80
1, 49470, Note_on_c, 0, 71, 0
1, 49470, Note_on_c, 0, 72, 68
1, 49500, Note_on_c, 0, 72, 0
1, 49500, Note_on_c, 0, 71, 69
1, 49530, Note_on_c, 0, 71, 0
1, 49530, Note_on_c, 0, 72, 69
1, 49560, Note_on_c, 0, 72, 0
1, 49560, Note_on_c, 0, 71, 70
1, 49584, Note_on_c, 1, 67, 0
1, 49584, Note_on_c, 1, 65, 0
1, 49590, Note_on_c, 0, 71, 0
1, 49590, Note_on_c, 0, 72, 71
1, 49620, Note_on_c, 0, 72, 0
1, 49620, Note_on_c, 0, 71, 72
1, 49650, Note_on_c, 0, 71, 0
1, 49650, Note_on_c, 0, 72, 73
1, 49680, Note_on_c, 0, 72, 0
1, 49680, Note_on_c, 0, 71, 74
1, 49680, Note_on_c, 1, 65, 80
1, 49680, Note_on_c, 1, 67, 80
1, 49710, Note_on_c, 0, 71, 0
1, 49710, Note_on_c, 0, 72, 74
1, 49740, Note_on_c, 0, 72, 0
1, 49740, Note_on_c, 0, 71, 75
1, 49770, Note_on_c, 0, 71, 0
1, 49770, Note_on_c, 0, 72, 76
1, 49800, Note_on_c, 0, 72, 0
1, 49800, Note_on_c, 0, 71, 77
1, 49820, Note_on_c, 0, 71, 0
1, 49820, Note_on_c, 0, 72, 77
1, 49840, Note_on_c, 0, 72, 0
1, 49840, Note_on_c, 0, 71, 78
1, 49860, Note_on_c, 0, 71, 0
1, 49860, Note_on_c, 0, 69, 78
1, 49890, Note_on_c, 0, 69, 0
1, 49890, Note_on_c, 0, 71, 79
1, 49920, Note_on_c, 0, 71, 0
1, 49920, Note_on_c, 0, 72, 64
1, 49920, Note_on_c, 1, 67, 0
1, 49920, Note_on_c, 1, 65, 0
1, 49920, Note_on_c, 1, 63, 64
1, 49920, Note_on_c, 1, 67, 64
1, 49960, Note_on_c, 0, 72, 0
1, 49960, Note_on_c, 0, 74, 65
1, 50000, Note_on_c, 0, 74, 0
1, 50000, Note_on_c, 0, 72, 65
1, 50040, Note_on_c, 0, 72, 0
1, 50040, Note_on_c, 0, 74, 66
1, 50064, Note_on_c, 1, 67, 0
1, 50064, Note_on_c, 1, 63, 0
1, 50080, Note_on_c, 0, 74, 0
1, 50080, Note_on_c, 0, 72, 67
1, 50120, Note_on_c, 0, 72, 0
1, 50120, Note_on_c, 0, 74, 67
1, 50160, Note_on_c, 0, 74, 0
1, 50160, Note_on_c, 0, 72, 68
1, 50160, Note_on_c, 1, 63, 68
1, 50160, Note_on_c, 1, 67, 68
1, 50200, Note_on_c, 0, 72, 0
1, 50200, Note_on_c, 0, 74, 69
1, 50240, Note_on_c, 0, 74, 0
1, 50240, Note_on_c, 0, 72, 69
1, 50280, Note_on_c, 0, 72, 0
1, 50280, Note_on_c, 0, 74, 70
1, 50320, Note_on_c, 0, 74, 0
1, 50320, Note_on_c, 0, 72, 71
1, 50360, Note_on_c, 0, 72, 0
1, 50360, Note_on_c, 0, 74, 71
1, 50400, Note_on_c, 0, 74, 0
1, 50400, Note_on_c, 0, 73, 72
1, 50400, Note_on_c, 1, 67, 0
1, 50400, Note_on_c, 1, 63, 0
1, 50400, Note_on_c, 1, 64, 72
1, 50400, Note_on_c, 1, 67, 72
1, 50440, Note_on_c, 0, 73, 0
1, 50440, Note_on_c, 0, 74, 73
1, 50480, Note_on_c, 0, 74, 0
1, 50480, Note_on_c, 0, 73, 73
1, 50520, Note_on_c, 0, 73, 0
1, 50520, Note_on_c, 0, 74, 74
1, 50544, Note_on_c, 1, 67, 0
1, 50544, Note_on_c, 1, 64, 0
1, 50560, Note_on_c, 0, 74, 0
1, 50560, Note_on_c, 0, 73, 75
1, 50600, Note_on_c, 0, 73, 0
1, 50600, Note_on_c, 0, 74, 75
1, 50640, Note_on_c, 0, 74, 0
1, 50640, Note_on_c, 0, 73, 76
1, 50640, Note_on_c, 1, 64, 76
1, 50640, Note_on_c, 1, 67, 76
1, 50680, Note_on_c, 0, 73, 0
1, 50680, Note_on_c, 0, 74, 77
1, 50720, Note_on_c, 0, 74, 0
1, 50720, Note_on_c, 0, 73, 77
1, 50760, Note_on_c, 0, 73, 0
1, 50760, Note_on_c, 0, 74, 78
1, 50800, Note_on_c, 0, 74, 0
1, 50800, Note_on_c, 0, 73, 79
1, 50840, Note_on_c, 0, 73, 0
1, 50840, Note_on_c, 0, 74, 79
1, 50880, Note_on_c, 0, 74, 0
1, 50880, Note_on_c, 0, 74, 80
1, 50880, Note_on_c, 1, 67, 0
1, 50880, Note_on_c, 1, 64, 0
1, 50880, Note_on_c, 1, 65, 80
1, 50880, Note_on_c, 1, 69, 80
1, 50920, Note_on_c, 0, 74, 0
1, 50920, Note_on_c, 0, 76, 79
1, 50960, Note_on_c, 0, 76, 0
1, 50960, Note_on_c, 0, 74, 79
1, 51000, Note_on_c, 0, 74, 0
1, 51000, Note_on_c, 0, 76, 78
1, 51000, Note_on_c, 1, 69, 0
1, 51000, Note_on_c, 1, 65, 0
1, 51040, Note_on_c, 0, 76, 0
1, 51040, Note_on_c, 0, 74, 77
1, 51080, Note_on_c, 0, 74, 0
1, 51080, Note_on_c, 0, 76, 77
1, 51120, Note_on_c, 0, 76, 0
1, 51120, Note_on_c, 0, 74, 76
1, 51120, Note_on_c, 1, 65, 76
1, 51120, Note_on_c, 1, 69, 76
1, 51160, Note_on_c, 0, 74, 0
1, 51160, Note_on_c, 0, 76, 75
1, 51200, Note_on_c, 0, 76, 0
1, 51200, Note_on_c, 0, 74, 75
1, 51240, Note_on_c, 0, 74, 0
1, 51240, Note_on_c, 0, 76, 74
1, 51270, Note_on_c, 0, 76, 0
1, 51270, Note_on_c, 0, 74, 73
1, 51300, Note_on_c, 0, 74, 0
1, 51300, Note_on_c, 0, 76, 73
1, 51330, Note_on_c, 0, 76, 0
1, 51330, Note_on_c, 0, 74, 72
1, 51360, Note_on_c, 0, 74, 0
1, 51360, Note_on_c, 0, 76, 72
1, 51360, Note_on_c, 1, 69, 0
1, 51360, Note_on_c, 1, 65, 0
1, 51360, Note_on_c, 1, 61, 72
1, 51360, Note_on_c, 1, 69, 72
1, 51400, Note_on_c, 0, 76, 0
1, 51400, Note_on_c, 0, 77, 71
1, 51440, Note_on_c, 0, 77, 0
1, 51440, Note_on_c, 0, 76, 71
1, 51480, Note_on_c, 0, 76, 0
1, 51480, Note_on_c, 0, 77, 70
1, 51480, Note_on_c, 1, 69, 0
1, 51480, Note_on_c, 1, 61, 0
1, 51520, Note_on_c, 0, 77, 0
1, 51520, Note_on_c, 0, 76, 69
1, 51560, Note_on_c, 0, 76, 0
1, 51560, Note_on_c, 0, 77, 69
1, 51600, Note_on_c, 0, 77, 0
1, 51600, Note_on_c, 0, 76, 68
1, 51600, Note_on_c, 1, 61, 68
1, 51600, Note_on_c, 1, 69, 68
1, 51640, Note_on_c, 0, 76, 0
1, 51640, Note_on_c, 0, 77, 67
1, 51680, Note_on_c, 0, 77, 0
1, 51680, Note_on_c, 0, 76, 67
1, 51720, Note_on_c, 0, 76, 0
1, 51720, Note_on_c, 0, 77, 66
1, 51750, Note_on_c, 0, 77, 0
1, 51750, Note_on_c, 0, 76, 65
1, 51780, Note_on_c, 0, 76, 0
1, 51780, Note_on_c, 0, 77, 65
1, 51810, Note_on_c, 0, 77, 0
1, 51810, Note_on_c, 0, 76, 64
1, 51840, Note_on_c, 0, 76, 0
1, 51840, Note_on_c, 0, 77, 64
1, 51840, Note_on_c, 1, 69, 0
1, 51840, Note_on_c, 1, 61, 0
1, 51840, Note_on_c, 1, 62, 64
1, 51840, Note_on_c, 1, 69, 64
1, 51880, Note_on_c, 0, 77, 0
1, 51880, Note_on_c, 0, 79, 65
1, 51920, Note_on_c, 0, 79, 0
1, 51920, Note_on_c, 0, 77, 67
1, 51960, Note_on_c, 0, 77, 0
1, 51960, Note_on_c, 0, 79, 68
1, 51960, Note_on_c, 1, 69, 0
1, 51960, Note_on_c, 1, 62, 0
1, 52000, Note_on_c, 0, 79, 0
1, 52000, Note_on_c, 0, 77, 69
1, 52040, Note_on_c, 0, 77, 0
1, 52040, Note_on_c, 0, 79, 71
1, 52080, Note_on_c, 0, 79, 0
1, 52080, Note_on_c, 0, 77, 72
1, 52080, Note_on_c, 1, 62, 72
1, 52080, Note_on_c, 1, 69, 72
1, 52120, Note_on_c, 0, 77, 0
1, 52120, Note_on_c, 0, 79, 73
1, 52160, Note_on_c, 0, 79, 0
1, 52160, Note_on_c, 0, 77, 75
1, 52200, Note_on_c, 0, 77, 0
1, 52200, Note_on_c, 0, 76, 76
1, 52260, Note_on_c, 0, 76, 0
1, 52260, Note_on_c, 0, 77, 78
1, 52320, Note_on_c, 0, 77, 0
1, 52320, Note_on_c, 0, 79, 80
1, 52320, Note_on_c, 1, 69, 0
1, 52320, Note_on_c, 1, 62, 0
1, 52320, Note_on_c, 1, 67, 80
1, 52320, Note_on_c, 1, 70, 80
1, 52440, Note_on_c, 0, 79, 0
1, 52440, Note_on_c, 0, 77, 84
1, 52440, Note_on_c, 1, 70, 0
1, 52440, Note_on_c, 1, 67, 0
1, 52500, Note_on_c, 0, 77, 0
1, 52560, Note_on_c, 0, 76, 88
1, 52560, Note_on_c, 1, 58, 88
1, 52560, Note_on_c, 1, 62, 88
1, 52620, Note_on_c, 0, 76, 0
1, 52680, Note_on_c, 0, 74, 92
1, 52680, Note_on_c, 1, 62, 0
1, 52680, Note_on_c, 1, 58, 0
1, 52740, Note_on_c, 0, 74, 0
1, 52800, Note_on_c, 0, 74, 96
1, 52800, Note_on_c, 1, 57, 96
1, 52800, Note_on_c, 1, 64, 96
1, 53040, Note_on_c, 0, 74, 0
1, 53040, Note_on_c, 0, 73, 80
1, 53160, Note_on_c, 0, 73, 0
1, 53280, Note_on_c, 0, 81, 80
1, 53280, Note_on_c, 1, 64, 0
1, 53280, Note_on_c, 1, 57, 0
1, 53280, Note_on_c, 1, 65, 80
1, 53400, Note_on_c, 0, 81, 0
1, 53400, Note_on_c, 0, 79, 80
1, 53460, Note_on_c, 0, 79, 0
1, 53460, Note_on_c, 0, 81, 80
1, 53520, Note_on_c, 0, 81, 0
1, 53520, Note_on_c, 0, 82, 80
1, 53520, Note_on_c, 1, 62, 80
1, 53640, Note_on_c, 0, 82, 0
1, 53640, Note_on_c, 0, 81, 80
1, 53760, Note_on_c, 0, 81, 0
1, 53760, Note_on_c, 0, 81, 80
1, 53760, Note_on_c, 1, 62, 0
1, 53760, Note_on_c, 1, 65, 0
1, 53760, Note_on_c, 1, 59, 80
1, 53880, Note_on_c, 0, 81, 0
1, 53880, Note_on_c, 0, 80, 80
1, 53928, Note_on_c, 0, 80, 0
1, 54000, Note_on_c, 0, 80, 80
1, 54000, Note_on_c, 1, 62, 80
1, 54048, Note_on_c, 0, 80, 0
1, 54120, Note_on_c, 0, 79, 80
1, 54168, Note_on_c, 0, 79, 0
1, 54240, Note_on_c, 0, 79, 80
1, 54240, Note_on_c, 1, 62, 0
1, 54240, Note_on_c, 1, 59, 0
1, 54240, Note_on_c, 1, 61, 80
1, 54360, Note_on_c, 0, 79, 0
1, 54360, Note_on_c, 0, 78, 80
1, 54420, Note_on_c, 0, 78, 0
1, 54420, Note_on_c, 0, 79, 80
1, 54480, Note_on_c, 0, 79, 0
1, 54480, Note_on_c, 0, 81, 80
1, 54480, Note_on_c, 1, 64, 80
1, 54600, Note_on_c, 0, 81, 0
1, 54600, Note_on_c, 0, 79, 80
1, 54720, Note_on_c, 0, 79, 0
1, 54720, Note_on_c, 0, 79, 80
1, 54720, Note_on_c, 1, 64, 0
1, 54720, Note_on_c, 1, 61, 0
1, 54720, Note_on_c, 1, 62, 80
1, 54840, Note_on_c, 0, 79, 0
1, 54840, Note_on_c, 0, 78, 80
1, 54888, Note_on_c, 0, 78, 0
1, 54960, Note_on_c, 0, 78, 80
1, 54960, Note_on_c, 1, 50, 80
1, 55008, Note_on_c, 0, 78, 0
1, 55080, Note_on_c, 0, 77, 80
1, 55128, Note_on_c, 0, 77, 0
1, 55200, Note_on_c, 0, 79, 80
1, 55200, Note_on_c, 1, 50, 0
1, 55200, Note_on_c, 1, 62, 0
1, 55200, Note_on_c, 1, 58, 80
1, 55260, Note_on_c, 0, 79, 0
1, 55260, Note_on_c, 0, 77, 80
1, 55320, Note_on_c, 0, 77, 0
1, 55320, Note_on_c, 0, 76, 80
1, 55380, Note_on_c, 0, 76, 0
1, 55380, Note_on_c, 0, 77, 80
1, 55440, Note_on_c, 0, 77, 0
1, 55440, Note_on_c, 0, 79, 80
1, 55440, Note_on_c, 1, 62, 80
1, 55560, Note_on_c, 0, 79, 0
1, 55560, Note_on_c, 0, 77, 80
1, 55620, Note_on_c, 0, 77, 0
1, 55680, Note_on_c, 0, 77, 80
1, 55680, Note_on_c, 1, 62, 0
1, 55680, Note_on_c, 1, 58, 0
1, 55680, Note_on_c, 1, 55, 80
1, 55680, Note_on_c, 1, 67, 80
1, 55800, Note_on_c, 0, 77, 0
1, 55800, Note_on_c, 0, 76, 80
1, 55920, Note_on_c, 0, 76, 0
1, 55920, Note_on_c, 0, 74, 80
1, 55920, Note_on_c, 1, 67, 0
1, 55920, Note_on_c, 1, 65, 80
1, 56160, Note_on_c, 1, 55, 0
1, 56160, Note_on_c, 1, 57, 80
1, 56400, Note_on_c, 0, 74, 0
1, 56400, Note_on_c, 0, 76, 80
1, 56400, Note_on_c, 1, 65, 0
1, 56400, Note_on_c, 1, 67, 80
1, 56460, Note_on_c, 0, 76, 0
1, 56460, Note_on_c, 0, 73, 80
1, 56460, Note_on_c, 1, 67, 0
1, 56460, Note_on_c, 1, 64, 80
1, 56640, Note_on_c, 0, 73, 0
1, 56640, Note_on_c, 0, 74, 80
1, 56640, Note_on_c, 1, 64, 0
1, 56640, Note_on_c, 1, 57, 0
1, 56700, Note_on_c, 0, 74, 0
1, 56760, Note_on_c, 1, 62, 64
1, 56808, Note_on_c, 1, 62, 0
1, 56880, Note_on_c, 0, 77, 67
1, 56880, Note_on_c, 1, 58, 64
1, 56910, Note_on_c, 0, 77, 0
1, 56910, Note_on_c, 0, 79, 69
1, 56928, Note_on_c, 1, 58, 0
1, 56940, Note_on_c, 0, 79, 0
1, 56940, Note_on_c, 0, 77, 70
1, 56970, Note_on_c, 0, 77, 0
1, 56970, Note_on_c, 0, 79, 72
1, 57000, Note_on_c, 0, 79, 0
1, 57000, Note_on_c, 0, 77, 74
1, 57000, Note_on_c, 1, 62, 64
1, 57020, Note_on_c, 0, 77, 0
1, 57020, Note_on_c, 0, 79, 75
1, 57040, Note_on_c, 0, 79, 0
1, 57040, Note_on_c, 0, 77, 76
1, 57048, Note_on_c, 1, 62, 0
1, 57060, Note_on_c, 0, 77, 0
1, 57060, Note_on_c, 0, 76, 77
1, 57090, Note_on_c, 0, 76, 0
1, 57090, Note_on_c, 0, 77, 79
1, 57120, Note_on_c, 0, 77, 0
1, 57120, Note_on_c, 0, 79, 80
1, 57120, Note_on_c, 1, 55, 64
1, 57240, Note_on_c, 0, 79, 0
1, 57240, Note_on_c, 1, 55, 0
1, 57240, Note_on_c, 1, 64, 64
1, 57360, Note_on_c, 0, 76, 67
1, 57360, Note_on_c, 1, 64, 0
1, 57360, Note_on_c, 1, 57, 64
1, 57390, Note_on_c, 0, 76, 0
1, 57390, Note_on_c, 0, 77, 69
1, 57420, Note_on_c, 0, 77, 0
1, 57420, Note_on_c, 0, 76, 70
1, 57450, Note_on_c, 0, 76, 0
1, 57450, Note_on_c, 0, 77, 72
1, 57480, Note_on_c, 0, 77, 0
1, 57480, Note_on_c, 0, 76, 74
1, 57480, Note_on_c, 1, 57, 0
1, 57480, Note_on_c, 1, 61, 64
1, 57500, Note_on_c, 0, 76, 0
1, 57500, Note_on_c, 0, 77, 75
1, 57520, Note_on_c, 0, 77, 0
1, 57520, Note_on_c, 0, 76, 76
1, 57540, Note_on_c, 0, 76, 0
1, 57540, Note_on_c, 0, 74, 77
1, 57570, Note_on_c, 0, 74, 0
1, 57570, Note_on_c, 0, 76, 79
1, 57600, Note_on_c, 0, 76, 0
1, 57600, Note_on_c, 0, 81, 80
1, 57600, Note_on_c, 1, 61, 0
1, 57600, Note_on_c, 1, 53, 64
1, 57720, Note_on_c, 0, 81, 0
1, 57720, Note_on_c, 1, 53, 0
1, 57720, Note_on_c, 1, 65, 64
1, 57768, Note_on_c, 1, 65, 0
1, 57840, Note_on_c, 0, 77, 69
1, 57840, Note_on_c, 1, 58, 64
1, 57870, Note_on_c, 0, 77, 0
1, 57870, Note_on_c, 0, 79, 71
1, 57888, Note_on_c, 1, 58, 0
1, 57900, Note_on_c, 0, 79, 0
1, 57900, Note_on_c, 0, 77, 72
1, 57930, Note_on_c, 0, 77, 0
1, 57930, Note_on_c, 0, 79, 74
1, 57960, Note_on_c, 0, 79, 0
1, 57960, Note_on_c, 0, 77, 76
1, 57960, Note_on_c, 1, 62, 64
1, 57980, Note_on_c, 0, 77, 0
1, 57980, Note_on_c, 0, 79, 77
1, 58000, Note_on_c, 0, 79, 0
1, 58000, Note_on_c, 0, 77, 78
1, 58008, Note_on_c, 1, 62, 0
1, 58020, Note_on_c, 0, 77, 0
1, 58020, Note_on_c, 0, 76, 79
1, 58050, Note_on_c, 0, 76, 0
1, 58050, Note_on_c, 0, 77, 80
1, 58080, Note_on_c, 0, 77, 0
1, 58080, Note_on_c, 0, 79, 80
1, 58080, Note_on_c, 1, 55, 64
1, 58200, Note_on_c, 0, 79, 0
1, 58200, Note_on_c, 1, 55, 0
1, 58200, Note_on_c, 1, 64, 64
1, 58320, Note_on_c, 0, 76, 67
1, 58320, Note_on_c, 1, 64, 0
1, 58320, Note_on_c, 1, 57, 64
1, 58350, Note_on_c, 0, 76, 0
1, 58350, Note_on_c, 0, 77, 69
1, 58380, Note_on_c, 0, 77, 0
1, 58380, Note_on_c, 0, 76, 70
1, 58410, Note_on_c, 0, 76, 0
1, 58410, Note_on_c, 0, 77, 72
1, 58440, Note_on_c, 0, 77, 0
1, 58440, Note_on_c, 0, 76, 74
1, 58440, Note_on_c, 1, 57, 0
1, 58440, Note_on_c, 1, 61, 64
1, 58460, Note_on_c, 0, 76, 0
1, 58460, Note_on_c, 0, 77, 75
1, 58480, Note_on_c, 0, 77, 0
1, 58480, Note_on_c, 0, 76, 76
1, 58500, Note_on_c, 0, 76, 0
1, 58500, Note_on_c, 0, 74, 77
1, 58530, Note_on_c, 0, 74, 0
1, 58530, Note_on_c, 0, 76, 79
1, 58560, Note_on_c, 0, 76, 0
1, 58560, Note_on_c, 0, 74, 80
1, 58560, Note_on_c, 1, 61, 0
1, 58560, Note_on_c, 1, 50, 64
1, 58680, Note_on_c, 1, 50, 0
1, 58680, Note_on_c, 1, 62, 64
1, 58728, Note_on_c, 1, 62, 0
1, 58800, Note_on_c, 1, 53, 64
1, 58848, Note_on_c, 1, 53, 0
1, 58920, Note_on_c, 1, 62, 64
1, 58968, Note_on_c, 1, 62, 0
1, 59040, Note_on_c, 0, 74, 0
1, 59040, Note_on_c, 1, 57, 64
1, 59160, Note_on_c, 1, 57, 0
1, 59160, Note_on_c, 1, 62, 64
1, 59280, Note_on_c, 0, 77, 80
1, 59280, Note_on_c, 1, 62, 0
1, 59280, Note_on_c, 1, 56, 64
1, 59340, Note_on_c, 0, 77, 0
1, 59340, Note_on_c, 0, 72, 80
1, 59400, Note_on_c, 1, 56, 0
1, 59400, Note_on_c, 1, 60, 64
1, 59520, Note_on_c, 0, 72, 0
1, 59520, Note_on_c, 0, 72, 80
1, 59520, Note_on_c, 1, 60, 0
1, 59520, Note_on_c, 1, 55, 64
1, 59640, Note_on_c, 0, 72, 0
1, 59640, Note_on_c, 0, 71, 80
1, 59640, Note_on_c, 1, 55, 0
1, 59640, Note_on_c, 1, 62, 64
1, 59688, Note_on_c, 1, 62, 0
1, 59760, Note_on_c, 0, 71, 0
1, 59760, Note_on_c, 0, 71, 80
1, 59760, Note_on_c, 1, 55, 64
1, 59808, Note_on_c, 1, 55, 0
1, 59880, Note_on_c, 1, 62, 64
1, 59928, Note_on_c, 1, 62, 0
1, 60000, Note_on_c, 1, 55, 64
1, 60120, Note_on_c, 1, 55, 0
1, 60120, Note_on_c, 1, 62, 64
1, 60240, Note_on_c, 0, 71, 0
1, 60240, Note_on_c, 0, 77, 48
1, 60240, Note_on_c, 1, 62, 0
1, 60240, Note_on_c, 1, 56, 40
1, 60300, Note_on_c, 0, 77, 0
1, 60300, Note_on_c, 0, 72, 48
1, 60360, Note_on_c, 1, 56, 0
1, 60360, Note_on_c, 1, 60, 40
1, 60480, Note_on_c, 0, 72, 0
1, 60480, Note_on_c, 0, 72, 48
1, 60480, Note_on_c, 1, 60, 0
1, 60480, Note_on_c, 1, 55, 40
1, 60600, Note_on_c, 0, 72, 0
1, 60600, Note_on_c, 0, 71, 48
1, 60600, Note_on_c, 1, 55, 0
1, 60600, Note_on_c, 1, 62, 40
1, 60648, Note_on_c, 1, 62, 0
1, 60720, Note_on_c, 0, 71, 0
1, 60720, Note_on_c, 0, 71, 48
1, 60720, Note_on_c, 1, 55, 40
1, 60768, Note_on_c, 1, 55, 0
1, 60840, Note_on_c, 1, 62, 40
1, 60888, Note_on_c, 1, 62, 0
1, 60960, Note_on_c, 1, 55, 40
1, 61080, Note_on_c, 1, 55, 0
1, 61080, Note_on_c, 1, 62, 40
1, 61200, Note_on_c, 0, 71, 0
1, 61200, Note_on_c, 0, 80, 80
1, 61200, Note_on_c, 1, 62, 0
1, 61200, Note_on_c, 1, 53, 64
1, 61320, Note_on_c, 1, 53, 0
1, 61320, Note_on_c, 1, 62, 64
1, 61440, Note_on_c, 0, 80, 0
1, 61440, Note_on_c, 0, 79, 80
1, 61440, Note_on_c, 1, 62, 0
1, 61440, Note_on_c, 1, 51, 64
1, 61560, Note_on_c, 0, 79, 0
1, 61560, Note_on_c, 1, 51, 0
1, 61560, Note_on_c, 1, 62, 64
1, 61608, Note_on_c, 1, 62, 0
1, 61680, Note_on_c, 0, 80, 80
1, 61680, Note_on_c, 1, 56, 64
1, 61728, Note_on_c, 1, 56, 0
1, 61740, Note_on_c, 0, 80, 0
1, 61740, Note_on_c, 0, 79, 80
1, 61764, Note_on_c, 0, 79, 0
1, 61800, Note_on_c, 0, 77, 80
1, 61800, Note_on_c, 1, 60, 64
1, 61824, Note_on_c, 0, 77, 0
1, 61848, Note_on_c, 1, 60, 0
1, 61860, Note_on_c, 0, 75, 80
1, 61884, Note_on_c, 0, 75, 0
1, 61920, Note_on_c, 0, 77, 80
1, 61920, Note_on_c, 1, 50, 64
1, 62040, Note_on_c, 0, 77, 0
1, 62040, Note_on_c, 1, 50, 0
1, 62040, Note_on_c, 1, 60, 64
1, 62088, Note_on_c, 1, 60, 0
1, 62160, Note_on_c, 0, 79, 80
1, 62160, Note_on_c, 1, 55, 64
1, 62208, Note_on_c, 1, 55, 0
1, 62220, Note_on_c, 0, 79, 0
1, 62220, Note_on_c, 0, 77, 80
1, 62280, Note_on_c, 0, 77, 0
1, 62280, Note_on_c, 0, 75, 80
1, 62280, Note_on_c, 1, 59, 64
1, 62340, Note_on_c, 0, 75, 0
1, 62340, Note_on_c, 0, 74, 80
1, 62400, Note_on_c, 0, 74, 0
1, 62400, Note_on_c, 0, 75, 80
1, 62400, Note_on_c, 1, 59, 0
1, 62400, Note_on_c, 1, 48, 80
1, 62400, Note_on_c, 1, 60, 80
1, 62520, Note_on_c, 0, 75, 0
1, 62520, Note_on_c, 0, 72, 84
1, 62580, Note_on_c, 0, 72, 0
1, 62640, Note_on_c, 0, 67, 88
1, 62700, Note_on_c, 0, 67, 0
1, 62760, Note_on_c, 0, 63, 92
1, 62820, Note_on_c, 0, 63, 0
1, 62880, Note_on_c, 0, 60, 96
1, 62880, Note_on_c, 1, 60, 0
1, 62880, Note_on_c, 1, 48, 0
1, 63000, Note_on_c, 0, 60, 0
1, 63000, Note_on_c, 1, 60, 64
1, 63048, Note_on_c, 1, 60, 0
1, 63120, Note_on_c, 0, 75, 80
1, 63120, Note_on_c, 1, 55, 64
1, 63168, Note_on_c, 1, 55, 0
1, 63180, Note_on_c, 0, 75, 0
1, 63180, Note_on_c, 0, 70, 80
1, 63240, Note_on_c, 1, 58, 64
1, 63288, Note_on_c, 1, 58, 0
1, 63360, Note_on_c, 0, 70, 0
1, 63360, Note_on_c, 0, 70, 80
1, 63360, Note_on_c, 1, 53, 64
1, 63480, Note_on_c, 0, 70, 0
1, 63480, Note_on_c, 0, 69, 80
1, 63480, Note_on_c, 1, 53, 0
1, 63480, Note_on_c, 1, 60, 64
1, 63528, Note_on_c, 0, 69, 0
1, 63528, Note_on_c, 1, 60, 0
1, 63600, Note_on_c, 0, 69, 80
1, 63600, Note_on_c, 1, 53, 64
1, 63648, Note_on_c, 1, 53, 0
1, 63720, Note_on_c, 1, 60, 64
1, 63768, Note_on_c, 1, 60, 0
1, 63840, Note_on_c, 1, 53, 64
1, 63960, Note_on_c, 1, 53, 0
1, 63960, Note_on_c, 1, 60, 64
1, 64080, Note_on_c, 0, 69, 0
1, 64080, Note_on_c, 0, 75, 48
1, 64080, Note_on_c, 1, 60, 0
1, 64080, Note_on_c, 1, 55, 40
1, 64140, Note_on_c, 0, 75, 0
1, 64140, Note_on_c, 0, 70, 48
1, 64200, Note_on_c, 1, 55, 0
1, 64200, Note_on_c, 1, 58, 40
1, 64320, Note_on_c, 0, 70, 0
1, 64320, Note_on_c, 0, 70, 48
1, 64320, Note_on_c, 1, 58, 0
1, 64320, Note_on_c, 1, 53, 40
1, 64440, Note_on_c, 0, 70, 0
1, 64440, Note_on_c, 0, 69, 48
1, 64440, Note_on_c, 1, 53, 0
1, 64440, Note_on_c, 1, 60, 40
1, 64488, Note_on_c, 1, 60, 0
1, 64512, Note_on_c, 0, 69, 0
1, 64560, Note_on_c, 0, 69, 48
1, 64560, Note_on_c, 1, 53, 40
1, 64608, Note_on_c, 1, 53, 0
1, 64680, Note_on_c, 1, 60, 40
1, 64728, Note_on_c, 1, 60, 0
1, 64800, Note_on_c, 1, 53, 40
1, 64920, Note_on_c, 1, 53, 0
1, 64920, Note_on_c, 1, 60, 40
1, 65040, Note_on_c, 0, 69, 0
1, 65040, Note_on_c, 0, 79, 80
1, 65040, Note_on_c, 1, 60, 0
1, 65040, Note_on_c, 1, 51, 64
1, 65160, Note_on_c, 1, 51, 0
1, 65160, Note_on_c, 1, 60, 64
1, 65280, Note_on_c, 0, 79, 0
1, 65280, Note_on_c, 0, 77, 80
1, 65280, Note_on_c, 1, 60, 0
1, 65280, Note_on_c, 1, 50, 64
1, 65400, Note_on_c, 0, 77, 0
1, 65400, Note_on_c, 1, 50, 0
1, 65400, Note_on_c, 1, 60, 66
1, 65448, Note_on_c, 1, 60, 0
1, 65520, Note_on_c, 0, 79, 80
1, 65520, Note_on_c, 1, 55, 68
1, 65568, Note_on_c, 1, 55, 0
1, 65580, Note_on_c, 0, 79, 0
1, 65580, Note_on_c, 0, 77, 80
1, 65640, Note_on_c, 0, 77, 0
1, 65640, Note_on_c, 0, 75, 80
1, 65640, Note_on_c, 1, 58, 70
1, 65688, Note_on_c, 1, 58, 0
1, 65700, Note_on_c, 0, 75, 0
1, 65700, Note_on_c, 0, 74, 80
1, 65760, Note_on_c, 0, 74, 0
1, 65760, Note_on_c, 0, 75, 80
1, 65760, Note_on_c, 1, 48, 72
1, 65880, Note_on_c, 0, 75, 0
1, 65880, Note_on_c, 1, 48, 0
1, 65880, Note_on_c, 1, 58, 74
1, 65928, Note_on_c, 1, 58, 0
1, 66000, Note_on_c, 0, 77, 80
1, 66000, Note_on_c, 1, 53, 76
1, 66048, Note_on_c, 1, 53, 0
1, 66060, Note_on_c, 0, 77, 0
1, 66060, Note_on_c, 0, 75, 80
1, 66084, Note_on_c, 0, 75, 0
1, 66120, Note_on_c, 0, 74, 80
1, 66120, Note_on_c, 1, 57, 78
1, 66144, Note_on_c, 0, 74, 0
1, 66180, Note_on_c, 0, 72, 80
1, 66204, Note_on_c, 0, 72, 0
1, 66240, Note_on_c, 0, 74, 80
1, 66240, Note_on_c, 1, 57, 0
1, 66240, Note_on_c, 1, 46, 80
1, 66240, Note_on_c, 1, 58, 80
1, 66360, Note_on_c, 0, 74, 0
1, 66360, Note_on_c, 0, 70, 84
1, 66420, Note_on_c, 0, 70, 0
1, 66480, Note_on_c, 0, 65, 88
1, 66540, Note_on_c, 0, 65, 0
1, 66600, Note_on_c, 0, 62, 92
1, 66660, Note_on_c, 0, 62, 0
1, 66720, Note_on_c, 0, 58, 96
1, 66720, Note_on_c, 1, 58, 0
1, 66720, Note_on_c, 1, 46, 0
1, 66840, Note_on_c, 0, 58, 0
1, 66840, Note_on_c, 0, 77, 80
1, 66960, Note_on_c, 0, 77, 0
1, 66960, Note_on_c, 0, 70, 80
1, 66960, Note_on_c, 1, 62, 80
1, 67080, Note_on_c, 0, 70, 0
1, 67080, Note_on_c, 0, 77, 80
1, 67200, Note_on_c, 0, 77, 0
1, 67200, Note_on_c, 0, 79, 80
1, 67200, Note_on_c, 1, 62, 0
1, 67200, Note_on_c, 1, 63, 80
1, 67380, Note_on_c, 0, 79, 0
1, 67380, Note_on_c, 0, 82, 80
1, 67440, Note_on_c, 0, 82, 0
1, 67440, Note_on_c, 0, 82, 80
1, 67440, Note_on_c, 1, 67, 80
1, 67470, Note_on_c, 0, 82, 0
1, 67470, Note_on_c, 0, 84, 80
1, 67500, Note_on_c, 0, 84, 0
1, 67500, Note_on_c, 0, 82, 80
1, 67530, Note_on_c, 0, 82, 0
1, 67530, Note_on_c, 0, 84, 80
1, 67560, Note_on_c, 0, 84, 0
1, 67560, Note_on_c, 0, 82, 80
1, 67580, Note_on_c, 0, 82, 0
1, 67580, Note_on_c, 0, 84, 80
1, 67600, Note_on_c, 0, 84, 0
1, 67600, Note_on_c, 0, 82, 80
1, 67620, Note_on_c, 0, 82, 0
1, 67620, Note_on_c, 0, 81, 80
1, 67650, Note_on_c, 0, 81, 0
1, 67650, Note_on_c, 0, 82, 80
1, 67680, Note_on_c, 0, 82, 0
1, 67680, Note_on_c, 0, 84, 80
1, 67680, Note_on_c, 1, 67, 0
1, 67680, Note_on_c, 1, 63, 0
1, 67680, Note_on_c, 1, 63, 80
1, 67800, Note_on_c, 0, 84, 0
1, 67800, Note_on_c, 0, 72, 80
1, 67848, Note_on_c, 0, 72, 0
1, 67920, Note_on_c, 0, 75, 80
1, 67920, Note_on_c, 1, 72, 80
1, 67968, Note_on_c, 0, 75, 0
1, 68040, Note_on_c, 0, 79, 80
1, 68088, Note_on_c, 0, 79, 0
1, 68160, Note_on_c, 0, 77, 80
1, 68160, Note_on_c, 1, 63, 0
1, 68160, Note_on_c, 1, 62, 80
1, 68340, Note_on_c, 0, 77, 0
1, 68340, Note_on_c, 0, 81, 80
1, 68400, Note_on_c, 0, 81, 0
1, 68400, Note_on_c, 0, 81, 80
1, 68400, Note_on_c, 1, 72, 0
1, 68400, Note_on_c, 1, 65, 80
1, 68430, Note_on_c, 0, 81, 0
1, 68430, Note_on_c, 0, 82, 80
1, 68460, Note_on_c, 0, 82, 0
1, 68460, Note_on_c, 0, 81, 80
1, 68490, Note_on_c, 0, 81, 0
1, 68490, Note_on_c, 0, 82, 80
1, 68520, Note_on_c, 0, 82, 0
1, 68520, Note_on_c, 0, 81, 80
1, 68540, Note_on_c, 0, 81, 0
1, 68540, Note_on_c, 0, 82, 80
1, 68560, Note_on_c, 0, 82, 0
1, 68560, Note_on_c, 0, 81, 80
1, 68580, Note_on_c, 0, 81, 0
1, 68580, Note_on_c, 0, 79, 80
1, 68610, Note_on_c, 0, 79, 0
1, 68610, Note_on_c, 0, 81, 80
1, 68640, Note_on_c, 0, 81, 0
1, 68640, Note_on_c, 0, 82, 80
1, 68640, Note_on_c, 1, 62, 0
1, 68640, Note_on_c, 1, 62, 80
1, 68760, Note_on_c, 0, 82, 0
1, 68760, Note_on_c, 0, 70, 80
1, 68880, Note_on_c, 0, 70, 0
1, 68880, Note_on_c, 0, 74, 80
1, 68880, Note_on_c, 1, 65, 0
1, 68880, Note_on_c, 1, 70, 80
1, 69000, Note_on_c, 0, 74, 0
1, 69000, Note_on_c, 0, 77, 80
1, 69120, Note_on_c, 0, 77, 0
1, 69120, Note_on_c, 0, 75, 80
1, 69120, Note_on_c, 1, 62, 0
1, 69120, Note_on_c, 1, 60, 80
1, 69180, Note_on_c, 0, 75, 0
1, 69180, Note_on_c, 0, 74, 80
1, 69240, Note_on_c, 0, 74, 0
1, 69240, Note_on_c, 0, 72, 80
1, 69300, Note_on_c, 0, 72, 0
1, 69300, Note_on_c, 0, 74, 80
1, 69360, Note_on_c, 0, 74, 0
1, 69360, Note_on_c, 0, 75, 80
1, 69360, Note_on_c, 1, 60, 0
1, 69360, Note_on_c, 1, 70, 0
1, 69360, Note_on_c, 1, 60, 80
1, 69360, Note_on_c, 1, 70, 80
1, 69600, Note_on_c, 0, 75, 0
1, 69600, Note_on_c, 0, 75, 80
1, 69600, Note_on_c, 1, 70, 0
1, 69600, Note_on_c, 1, 60, 0
1, 69600, Note_on_c, 1, 65, 80
1, 69600, Note_on_c, 1, 69, 80
1, 69660, Note_on_c, 0, 75, 0
1, 69660, Note_on_c, 0, 81, 80
1, 69684, Note_on_c, 0, 81, 0
1, 69720, Note_on_c, 0, 84, 80
1, 69744, Note_on_c, 0, 84, 0
1, 69780, Note_on_c, 0, 82, 80
1, 69804, Note_on_c, 0, 82, 0
1, 69840, Note_on_c, 0, 81, 80
1, 69840, Note_on_c, 1, 69, 0
1, 69840, Note_on_c, 1, 65, 0
1, 69840, Note_on_c, 1, 65, 80
1, 69840, Note_on_c, 1, 69, 80
1, 69900, Note_on_c, 0, 81, 0
1, 69900, Note_on_c, 0, 79, 80
1, 69960, Note_on_c, 0, 79, 0
1, 69960, Note_on_c, 0, 77, 80
1, 70020, Note_on_c, 0, 77, 0
1, 70020, Note_on_c, 0, 75, 80
1, 70080, Note_on_c, 0, 75, 0
1, 70080, Note_on_c, 0, 74, 80
1, 70080, Note_on_c, 1, 69, 0
1, 70080, Note_on_c, 1, 65, 0
1, 70080, Note_on_c, 1, 58, 80
1, 70080, Note_on_c, 1, 70, 80
1, 70140, Note_on_c, 0, 74, 0
1, 70140, Note_on_c, 0, 72, 80
1, 70164, Note_on_c, 0, 72, 0
1, 70200, Note_on_c, 0, 70, 80
1, 70224, Note_on_c, 0, 70, 0
1, 70260, Note_on_c, 0, 69, 80
1, 70284, Note_on_c, 0, 69, 0
1, 70320, Note_on_c, 0, 70, 80
1, 70320, Note_on_c, 1, 70, 0
1, 70320, Note_on_c, 1, 58, 0
1, 70380, Note_on_c, 0, 70, 0
1, 70380, Note_on_c, 0, 72, 80
1, 70440, Note_on_c, 0, 72, 0
1, 70440, Note_on_c, 0, 74, 80
1, 70500, Note_on_c, 0, 74, 0
1, 70500, Note_on_c, 0, 75, 80
1, 70560, Note_on_c, 0, 75, 0
1, 70560, Note_on_c, 0, 77, 80
1, 70680, Note_on_c, 0, 77, 0
1, 70680, Note_on_c, 1, 58, 64
1, 70728, Note_on_c, 1, 58, 0
1, 70800, Note_on_c, 0, 79, 80
1, 70800, Note_on_c, 1, 46, 64
1, 70848, Note_on_c, 1, 46, 0
1, 70860, Note_on_c, 0, 79, 0
1, 70860, Note_on_c, 0, 77, 80
1, 70884, Note_on_c, 0, 77, 0
1, 70920, Note_on_c, 0, 75, 80
1, 70920, Note_on_c, 1, 58, 64
1, 70944, Note_on_c, 0, 75, 0
1, 70968, Note_on_c, 1, 58, 0
1, 70980, Note_on_c, 0, 74, 80
1, 71004, Note_on_c, 0, 74, 0
1, 71040, Note_on_c, 0, 74, 80
1, 71040, Note_on_c, 1, 51, 64
1, 71100, Note_on_c, 0, 74, 0
1, 71100, Note_on_c, 0, 72, 80
1, 71160, Note_on_c, 1, 51, 0
1, 71160, Note_on_c, 1, 58, 64
1, 71208, Note_on_c, 1, 58, 0
1, 71280, Note_on_c, 0, 72, 0
1, 71280, Note_on_c, 0, 73, 80
1, 71280, Note_on_c, 1, 52, 64
1, 71328, Note_on_c, 1, 52, 0
1, 71400, Note_on_c, 1, 58, 64
1, 71448, Note_on_c, 1, 58, 0
1, 71520, Note_on_c, 1, 52, 64
1, 71640, Note_on_c, 0, 73, 0
1, 71640, Note_on_c, 0, 72, 80
1, 71640, Note_on_c, 1, 52, 0
1, 71640, Note_on_c, 1, 58, 64
1, 71700, Note_on_c, 0, 72, 0
1, 71700, Note_on_c, 0, 73, 80
1, 71760, Note_on_c, 0, 73, 0
1, 71760, Note_on_c, 0, 75, 80
1, 71760, Note_on_c, 1, 58, 0
1, 71760, Note_on_c, 1, 52, 64
1, 71880, Note_on_c, 0, 75, 0
1, 71880, Note_on_c, 0, 73, 80
1, 71880, Note_on_c, 1, 52, 0
1, 71880, Note_on_c, 1, 58, 64
1, 72000, Note_on_c, 0, 73, 0
1, 72000, Note_on_c, 0, 73, 80
1, 72000, Note_on_c, 1, 58, 0
1, 72000, Note_on_c, 1, 53, 64
1, 72060, Note_on_c, 0, 73, 0
1, 72060, Note_on_c, 0, 72, 80
1, 72120, Note_on_c, 1, 53, 0
1, 72120, Note_on_c, 1, 57, 64
1, 72168, Note_on_c, 1, 57, 0
1, 72240, Note_on_c, 0, 72, 0
1, 72240, Note_on_c, 0, 72, 80
1, 72240, Note_on_c, 1, 53, 64
1, 72288, Note_on_c, 1, 53, 0
1, 72360, Note_on_c, 1, 57, 64
1, 72408, Note_on_c, 1, 57, 0
1, 72480, Note_on_c, 1, 53, 64
1, 72600, Note_on_c, 1, 53, 0
1, 72600, Note_on_c, 1, 57, 64
1, 72720, Note_on_c, 0, 72, 0
1, 72720, Note_on_c, 0, 77, 48
1, 72720, Note_on_c, 1, 57, 0
1, 72720, Note_on_c, 1, 50, 40
1, 72780, Note_on_c, 0, 77, 0
1, 72780, Note_on_c, 0, 74, 48
1, 72840, Note_on_c, 1, 50, 0
1, 72840, Note_on_c, 1, 58, 40
1, 72960, Note_on_c, 0, 74, 0
1, 72960, Note_on_c, 0, 74, 48
1, 72960, Note_on_c, 1, 58, 0
1, 72960, Note_on_c, 1, 51, 40
1, 73020, Note_on_c, 0, 74, 0
1, 73020, Note_on_c, 0, 72, 48
1, 73080, Note_on_c, 1, 51, 0
1, 73080, Note_on_c, 1, 58, 40
1, 73128, Note_on_c, 1, 58, 0
1, 73200, Note_on_c, 0, 72, 0
1, 73200, Note_on_c, 0, 73, 48
1, 73200, Note_on_c, 1, 52, 40
1, 73248, Note_on_c, 1, 52, 0
1, 73320, Note_on_c, 1, 58, 40
1, 73368, Note_on_c, 1, 58, 0
1, 73440, Note_on_c, 1, 52, 40
1, 73560, Note_on_c, 0, 73, 0
1, 73560, Note_on_c, 0, 72, 48
1, 73560, Note_on_c, 1, 52, 0
1, 73560, Note_on_c, 1, 58, 40
1, 73620, Note_on_c, 0, 72, 0
1, 73620, Note_on_c, 0, 73, 48
1, 73680, Note_on_c, 0, 73, 0
1, 73680, Note_on_c, 0, 75, 48
1, 73680, Note_on_c, 1, 58, 0
1, 73680, Note_on_c, 1, 52, 40
1, 73800, Note_on_c, 0, 75, 0
1, 73800, Note_on_c, 0, 73, 48
1, 73800, Note_on_c, 1, 52, 0
1, 73800, Note_on_c, 1, 58, 40
1, 73920, Note_on_c, 0, 73, 0
1, 73920, Note_on_c, 0, 73, 48
1, 73920, Note_on_c, 1, 58, 0
1, 73920, Note_on_c, 1, 53, 40
1, 73980, Note_on_c, 0, 73, 0
1, 73980, Note_on_c, 0, 72, 48
1, 74040, Note_on_c, 1, 53, 0
1, 74040, Note_on_c, 1, 57, 40
1, 74088, Note_on_c, 1, 57, 0
1, 74160, Note_on_c, 0, 72, 0
1, 74160, Note_on_c, 0, 72, 48
1, 74160, Note_on_c, 1, 53, 40
1, 74208, Note_on_c, 1, 53, 0
1, 74280, Note_on_c, 1, 57, 40
1, 74328, Note_on_c, 1, 57, 0
1, 74400, Note_on_c, 0, 72, 0
1, 74400, Note_on_c, 0, 77, 80
1, 74400, Note_on_c, 1, 50, 64
1, 74430, Note_on_c, 0, 77, 0
1, 74430, Note_on_c, 0, 79, 80
1, 74460, Note_on_c, 0, 79, 0
1, 74460, Note_on_c, 0, 77, 80
1, 74480, Note_on_c, 0, 77, 0
1, 74480, Note_on_c, 0, 79, 80
1, 74500, Note_on_c, 0, 79, 0
1, 74500, Note_on_c, 0, 77, 80
1, 74520, Note_on_c, 0, 77, 0
1, 74520, Note_on_c, 0, 76, 80
1, 74520, Note_on_c, 1, 50, 0
1, 74520, Note_on_c, 1, 58, 64
1, 74580, Note_on_c, 0, 76, 0
1, 74580, Note_on_c, 0, 77, 80
1, 74640, Note_on_c, 0, 77, 0
1, 74640, Note_on_c, 0, 79, 80
1, 74640, Note_on_c, 1, 58, 0
1, 74640, Note_on_c, 1, 50, 64
1, 74760, Note_on_c, 0, 79, 0
1, 74760, Note_on_c, 0, 77, 80
1, 74760, Note_on_c, 1, 50, 0
1, 74760, Note_on_c, 1, 58, 64
1, 74880, Note_on_c, 0, 77, 0
1, 74880, Note_on_c, 0, 77, 80
1, 74880, Note_on_c, 1, 58, 0
1, 74880, Note_on_c, 1, 48, 64
1, 75000, Note_on_c, 1, 48, 0
1, 75000, Note_on_c, 1, 58, 64
1, 75048, Note_on_c, 1, 58, 0
1, 75120, Note_on_c, 0, 77, 0
1, 75120, Note_on_c, 0, 76, 80
1, 75120, Note_on_c, 1, 48, 64
1, 75168, Note_on_c, 1, 48, 0
1, 75240, Note_on_c, 1, 58, 64
1, 75288, Note_on_c, 1, 58, 0
1, 75360, Note_on_c, 0, 76, 0
1, 75360, Note_on_c, 0, 75, 80
1, 75360, Note_on_c, 1, 53, 64
1, 75390, Note_on_c, 0, 75, 0
1, 75390, Note_on_c, 0, 77, 80
1, 75420, Note_on_c, 0, 77, 0
1, 75420, Note_on_c, 0, 75, 80
1, 75440, Note_on_c, 0, 75, 0
1, 75440, Note_on_c, 0, 77, 80
1, 75460, Note_on_c, 0, 77, 0
1, 75460, Note_on_c, 0, 75, 80
1, 75480, Note_on_c, 0, 75, 0
1, 75480, Note_on_c, 0, 74, 80
1, 75480, Note_on_c, 1, 53, 0
1, 75480, Note_on_c, 1, 57, 64
1, 75540, Note_on_c, 0, 74, 0
1, 75540, Note_on_c, 0, 75, 80
1, 75600, Note_on_c, 0, 75, 0
1, 75600, Note_on_c, 0, 77, 80
1, 75600, Note_on_c, 1, 57, 0
1, 75600, Note_on_c, 1, 53, 64
1, 75720, Note_on_c, 0, 77, 0
1, 75720, Note_on_c, 0, 75, 80
1, 75720, Note_on_c, 1, 53, 0
1, 75720, Note_on_c, 1, 57, 64
1, 75840, Note_on_c, 0, 75, 0
1, 75840, Note_on_c, 0, 75, 80
1, 75840, Note_on_c, 1, 57, 0
1, 75840, Note_on_c, 1, 46, 64
1, 75960, Note_on_c, 1, 46, 0
1, 75960, Note_on_c, 1, 58, 66
1, 76008, Note_on_c, 1, 58, 0
1, 76080, Note_on_c, 0, 75, 0
1, 76080, Note_on_c, 0, 74, 80
1, 76080, Note_on_c, 1, 46, 68
1, 76128, Note_on_c, 1, 46, 0
1, 76200, Note_on_c, 1, 58, 70
1, 76248, Note_on_c, 1, 58, 0
1, 76260, Note_on_c, 0, 74, 0
1, 76260, Note_on_c, 0, 75, 80
1, 76320, Note_on_c, 0, 75, 0
1, 76320, Note_on_c, 0, 74, 80
1, 76320, Note_on_c, 1, 55, 72
1, 76350, Note_on_c, 0, 74, 0
1, 76350, Note_on_c, 0, 75, 80
1, 76380, Note_on_c, 0, 75, 0
1, 76380, Note_on_c, 0, 74, 80
1, 76400, Note_on_c, 0, 74, 0
1, 76400, Note_on_c, 0, 75, 80
1, 76420, Note_on_c, 0, 75, 0
1, 76420, Note_on_c, 0, 74, 80
1, 76440, Note_on_c, 0, 74, 0
1, 76440, Note_on_c, 0, 72, 80
1, 76440, Note_on_c, 1, 55, 0
1, 76440, Note_on_c, 1, 58, 74
1, 76500, Note_on_c, 0, 72, 0
1, 76500, Note_on_c, 0, 74, 80
1, 76560, Note_on_c, 0, 74, 0
1, 76560, Note_on_c, 0, 75, 80
1, 76560, Note_on_c, 1, 58, 0
1, 76560, Note_on_c, 1, 55, 76
1, 76680, Note_on_c, 0, 75, 0
1, 76680, Note_on_c, 0, 74, 80
1, 76680, Note_on_c, 1, 55, 0
1, 76680, Note_on_c, 1, 58, 78
1, 76800, Note_on_c, 0, 74, 0
1, 76800, Note_on_c, 0, 74, 80
1, 76800, Note_on_c, 1, 58, 0
1, 76800, Note_on_c, 1, 51, 80
1, 76800, Note_on_c, 1, 63, 80
1, 76920, Note_on_c, 0, 74, 0
1, 76920, Note_on_c, 0, 72, 80
1, 77040, Note_on_c, 0, 72, 0
1, 77040, Note_on_c, 0, 70, 80
1, 77040, Note_on_c, 1, 63, 0
1, 77040, Note_on_c, 1, 62, 80
1, 77280, Note_on_c, 1, 51, 0
1, 77280, Note_on_c, 1, 53, 80
1, 77520, Note_on_c, 0, 70, 0
1, 77520, Note_on_c, 0, 72, 80
1, 77520, Note_on_c, 1, 62, 0
1, 77520, Note_on_c, 1, 63, 80
1, 77580, Note_on_c, 0, 72, 0
1, 77580, Note_on_c, 0, 69, 80
1, 77580, Note_on_c, 1, 63, 0
1, 77580, Note_on_c, 1, 60, 80
1, 77760, Note_on_c, 0, 69, 0
1, 77760, Note_on_c, 0, 69, 80
1, 77760, Note_on_c, 1, 60, 0
1, 77760, Note_on_c, 1, 53, 0
1, 77760, Note_on_c, 1, 46, 64
1, 77880, Note_on_c, 1, 46, 0
1, 77880, Note_on_c, 1, 58, 64
1, 77928, Note_on_c, 1, 58, 0
1, 78000, Note_on_c, 0, 69, 0
1, 78000, Note_on_c, 0, 70, 80
1, 78000, Note_on_c, 1, 57, 64
1, 78048, Note_on_c, 1, 57, 0
1, 78120, Note_on_c, 0, 70, 0
1, 78120, Note_on_c, 1, 58, 64
1, 78168, Note_on_c, 1, 58, 0
1, 78240, Note_on_c, 0, 79, 80
1, 78240, Note_on_c, 1, 50, 64
1, 78300, Note_on_c, 0, 79, 0
1, 78300, Note_on_c, 0, 77, 80
1, 78324, Note_on_c, 0, 77, 0
1, 78360, Note_on_c, 0, 76, 80
1, 78360, Note_on_c, 1, 50, 0
1, 78360, Note_on_c, 1, 58, 64
1, 78384, Note_on_c, 0, 76, 0
1, 78420, Note_on_c, 0, 77, 80
1, 78444, Note_on_c, 0, 77, 0
1, 78480, Note_on_c, 0, 79, 80
1, 78480, Note_on_c, 1, 58, 0
1, 78480, Note_on_c, 1, 50, 64
1, 78600, Note_on_c, 0, 79, 0
1, 78600, Note_on_c, 0, 77, 80
1, 78600, Note_on_c, 1, 50, 0
1, 78600, Note_on_c, 1, 58, 64
1, 78720, Note_on_c, 0, 77, 0
1, 78720, Note_on_c, 0, 77, 80
1, 78720, Note_on_c, 1, 58, 0
1, 78720, Note_on_c, 1, 48, 64
1, 78840, Note_on_c, 0, 77, 0
1, 78840, Note_on_c, 0, 76, 80
1, 78840, Note_on_c, 1, 48, 0
1, 78840, Note_on_c, 1, 58, 64
1, 78888, Note_on_c, 0, 76, 0
1, 78888, Note_on_c, 1, 58, 0
1, 78960, Note_on_c, 0, 76, 80
1, 78960, Note_on_c, 1, 48, 64
1, 79008, Note_on_c, 0, 76, 0
1, 79008, Note_on_c, 1, 48, 0
1, 79080, Note_on_c, 0, 76, 80
1, 79080, Note_on_c, 1, 58, 64
1, 79128, Note_on_c, 0, 76, 0
1, 79128, Note_on_c, 1, 58, 0
1, 79200, Note_on_c, 0, 77, 80
1, 79200, Note_on_c, 1, 53, 64
1, 79260, Note_on_c, 0, 77, 0
1, 79260, Note_on_c, 0, 75, 80
1, 79284, Note_on_c, 0, 75, 0
1, 79320, Note_on_c, 0, 74, 80
1, 79320, Note_on_c, 1, 53, 0
1, 79320, Note_on_c, 1, 57, 64
1, 79344, Note_on_c, 0, 74, 0
1, 79380, Note_on_c, 0, 75, 80
1, 79404, Note_on_c, 0, 75, 0
1, 79440, Note_on_c, 0, 77, 80
1, 79440, Note_on_c, 1, 57, 0
1, 79440, Note_on_c, 1, 53, 64
1, 79560, Note_on_c, 0, 77, 0
1, 79560, Note_on_c, 0, 75, 80
1, 79560, Note_on_c, 1, 53, 0
1, 79560, Note_on_c, 1, 57, 64
1, 79680, Note_on_c, 0, 75, 0
1, 79680, Note_on_c, 0, 75, 80
1, 79680, Note_on_c, 1, 57, 0
1, 79680, Note_on_c, 1, 46, 64
1, 79800, Note_on_c, 0, 75, 0
1, 79800, Note_on_c, 0, 74, 80
1, 79800, Note_on_c, 1, 46, 0
1, 79800, Note_on_c, 1, 58, 66
1, 79848, Note_on_c, 0, 74, 0
1, 79848, Note_on_c, 1, 58, 0
1, 79920, Note_on_c, 0, 74, 80
1, 79920, Note_on_c, 1, 46, 68
1, 79968, Note_on_c, 0, 74, 0
1, 79968, Note_on_c, 1, 46, 0
1, 80040, Note_on_c, 0, 74, 80
1, 80040, Note_on_c, 1, 58, 70
1, 80088, Note_on_c, 0, 74, 0
1, 80088, Note_on_c, 1, 58, 0
1, 80160, Note_on_c, 0, 74, 80
1, 80160, Note_on_c, 1, 55, 72
1, 80190, Note_on_c, 0, 74, 0
1, 80190, Note_on_c, 0, 75, 80
1, 80220, Note_on_c, 0, 75, 0
1, 80220, Note_on_c, 0, 74, 80
1, 80240, Note_on_c, 0, 74, 0
1, 80240, Note_on_c, 0, 75, 80
1, 80260, Note_on_c, 0, 75, 0
1, 80260, Note_on_c, 0, 74, 80
1, 80280, Note_on_c, 0, 74, 0
1, 80280, Note_on_c, 0, 72, 80
1, 80280, Note_on_c, 1, 55, 0
1, 80280, Note_on_c, 1, 58, 74
1, 80340, Note_on_c, 0, 72, 0
1, 80340, Note_on_c, 0, 74, 80
1, 80400, Note_on_c, 0, 74, 0
1, 80400, Note_on_c, 0, 75, 80
1, 80400, Note_on_c, 1, 58, 0
1, 80400, Note_on_c, 1, 55, 76
1, 80520, Note_on_c, 0, 75, 0
1, 80520, Note_on_c, 0, 74, 80
1, 80520, Note_on_c, 1, 55, 0
1, 80520, Note_on_c, 1, 58, 78
1, 80640, Note_on_c, 0, 74, 0
1, 80640, Note_on_c, 0, 74, 80
1, 80640, Note_on_c, 1, 58, 0
1, 80640, Note_on_c, 1, 63, 80
1, 80640, Note_on_c, 1, 51, 80
1, 80760, Note_on_c, 0, 74, 0
1, 80760, Note_on_c, 0, 72, 80
1, 80880, Note_on_c, 0, 72, 0
1, 80880, Note_on_c, 0, 70, 80
1, 80880, Note_on_c, 1, 63, 0
1, 80880, Note_on_c, 1, 62, 80
1, 81120, Note_on_c, 1, 51, 0
1, 81120, Note_on_c, 1, 53, 80
1, 81360, Note_on_c, 0, 70, 0
1, 81360, Note_on_c, 0, 72, 80
1, 81360, Note_on_c, 1, 62, 0
1, 81360, Note_on_c, 1, 63, 80
1, 81420, Note_on_c, 0, 72, 0
1, 81420, Note_on_c, 0, 69, 80
1, 81420, Note_on_c, 1, 63, 0
1, 81420, Note_on_c, 1, 60, 80
1, 81600, Note_on_c, 0, 69, 0
1, 81600, Note_on_c, 0, 70, 80
1, 81600, Note_on_c, 1, 60, 0
1, 81600, Note_on_c, 1, 53, 0
1, 81660, Note_on_c, 0, 70, 0
1, 81720, Note_on_c, 1, 70, 64
1, 81840, Note_on_c, 0, 74, 80
1, 81840, Note_on_c, 0, 82, 80
1, 81840, Note_on_c, 1, 70, 0
1, 81840, Note_on_c, 1, 62, 64
1, 81882, Note_on_c, 1, 62, 0
1, 81924, Note_on_c, 0, 82, 0
1, 81924, Note_on_c, 0, 74, 0
1, 81960, Note_on_c, 1, 70, 64
1, 82002, Note_on_c, 1, 70, 0
1, 82080, Note_on_c, 0, 74, 80
1, 82080, Note_on_c, 0, 82, 80
1, 82080, Note_on_c, 1, 63, 64
1, 82122, Note_on_c, 1, 63, 0
1, 82164, Note_on_c, 0, 82, 0
1, 82164, Note_on_c, 0, 74, 0
1, 82200, Note_on_c, 1, 70, 64
1, 82242, Note_on_c, 1, 70, 0
1, 82320, Note_on_c, 0, 74, 80
1, 82320, Note_on_c, 0, 82, 80
1, 82320, Note_on_c, 1, 65, 64
1, 82440, Note_on_c, 1, 65, 0
1, 82440, Note_on_c, 1, 70, 64
1, 82560, Note_on_c, 0, 82, 0
1, 82560, Note_on_c, 0, 74, 0
1, 82560, Note_on_c, 0, 74, 80
1, 82560, Note_on_c, 0, 82, 80
1, 82560, Note_on_c, 1, 70, 0
1, 82560, Note_on_c, 1, 67, 64
1, 82680, Note_on_c, 0, 82, 0
1, 82680, Note_on_c, 0, 84, 80
1, 82680, Note_on_c, 1, 67, 0
1, 82680, Note_on_c, 1, 70, 66
1, 82740, Note_on_c, 0, 84, 0
1, 82740, Note_on_c, 0, 86, 80
1, 82800, Note_on_c, 0, 86, 0
1, 82800, Note_on_c, 0, 74, 0
1, 82800, Note_on_c, 0, 74, 80
1, 82800, Note_on_c, 0, 82, 80
1, 82800, Note_on_c, 1, 70, 0
1, 82800, Note_on_c, 1, 62, 68
1, 82842, Note_on_c, 1, 62, 0
1, 82884, Note_on_c, 0, 82, 0
1, 82884, Note_on_c, 0, 74, 0
1, 82920, Note_on_c, 1, 70, 70
1, 82962, Note_on_c, 1, 70, 0
1, 83040, Note_on_c, 0, 74, 80
1, 83040, Note_on_c, 0, 82, 80
1, 83040, Note_on_c, 1, 63, 72
1, 83082, Note_on_c, 1, 63, 0
1, 83124, Note_on_c, 0, 82, 0
1, 83124, Note_on_c, 0, 74, 0
1, 83160, Note_on_c, 1, 70, 74
1, 83202, Note_on_c, 1, 70, 0
1, 83280, Note_on_c, 0, 74, 80
1, 83280, Note_on_c, 0, 82, 80
1, 83280, Note_on_c, 1, 65, 76
1, 83400, Note_on_c, 1, 65, 0
1, 83400, Note_on_c, 1, 70, 78
1, 83520, Note_on_c, 0, 82, 0
1, 83520, Note_on_c, 0, 74, 0
1, 83520, Note_on_c, 0, 74, 80
1, 83520, Note_on_c, 0, 82, 80
1, 83520, Note_on_c, 1, 70, 0
1, 83520, Note_on_c, 1, 67, 80
1, 83700, Note_on_c, 0, 82, 0
1, 83700, Note_on_c, 0, 74, 0
1, 83700, Note_on_c, 0, 82, 80
1, 83760, Note_on_c, 0, 82, 0
1, 83760, Note_on_c, 0, 72, 80
1, 83760, Note_on_c, 1, 67, 0
1, 83760, Note_on_c, 1, 63, 80
1, 83850, Note_on_c, 0, 72, 0
1, 83880, Note_on_c, 1, 63, 0
1, 83940, Note_on_c, 0, 75, 80
1, 83940, Note_on_c, 0, 79, 80
1, 83970, Note_on_c, 0, 79, 0
1, 83970, Note_on_c, 0, 75, 0
1, 83985, Note_on_c, 0, 79, 80
1, 83985, Note_on_c, 0, 75, 80
1, 84000, Note_on_c, 0, 74, 80
1, 84000, Note_on_c, 0, 77, 80
1, 84000, Note_on_c, 1, 65, 80
1, 84015, Note_on_c, 0, 75, 0
1, 84015, Note_on_c, 0, 79, 0
1, 84090, Note_on_c, 0, 74, 0
1, 84090, Note_on_c, 0, 77, 0
1, 84120, Note_on_c, 1, 65, 0
1, 84180, Note_on_c, 0, 72, 80
1, 84180, Note_on_c, 0, 75, 80
1, 84210, Note_on_c, 0, 75, 0
1, 84210, Note_on_c, 0, 72, 0
1, 84225, Note_on_c, 0, 72, 80
1, 84225, Note_on_c, 0, 75, 80
1, 84240, Note_on_c, 0, 70, 80
1, 84240, Note_on_c, 0, 74, 80
1, 84240, Note_on_c, 1, 53, 80
1, 84255, Note_on_c, 0, 75, 0
1, 84255, Note_on_c, 0, 72, 0
1, 84420, Note_on_c, 0, 70, 0
1, 84420, Note_on_c, 0, 74, 0
1, 84420, Note_on_c, 0, 69, 80
1, 84420, Note_on_c, 0, 72, 80
1, 84480, Note_on_c, 0, 72, 0
1, 84480, Note_on_c, 0, 69, 0
1, 84480, Note_on_c, 0, 70, 80
1, 84480, Note_on_c, 1, 53, 0
1, 84600, Note_on_c, 0, 70, 0
1, 84600, Note_on_c, 1, 70, 40
1, 84720, Note_on_c, 0, 82, 48
1, 84720, Note_on_c, 0, 74, 48
1, 84720, Note_on_c, 1, 70, 0
1, 84720, Note_on_c, 1, 62, 40
1, 84750, Note_on_c, 1, 62, 0
1, 84780, Note_on_c, 0, 74, 0
1, 84780, Note_on_c, 0, 82, 0
1, 84840, Note_on_c, 1, 70, 40
1, 84870, Note_on_c, 1, 70, 0
1, 84960, Note_on_c, 0, 82, 48
1, 84960, Note_on_c, 0, 74, 48
1, 84960, Note_on_c, 1, 63, 40
1, 84990, Note_on_c, 1, 63, 0
1, 85020, Note_on_c, 0, 74, 0
1, 85020, Note_on_c, 0, 82, 0
1, 85080, Note_on_c, 1, 70, 40
1, 85110, Note_on_c, 1, 70, 0
1, 85200, Note_on_c, 0, 82, 48
1, 85200, Note_on_c, 0, 74, 48
1, 85200, Note_on_c, 1, 65, 40
1, 85320, Note_on_c, 1, 65, 0
1, 85320, Note_on_c, 1, 70, 40
1, 85440, Note_on_c, 0, 74, 0
1, 85440, Note_on_c, 0, 82, 0
1, 85440, Note_on_c, 0, 82, 48
1, 85440, Note_on_c, 0, 74, 48
1, 85440, Note_on_c, 1, 70, 0
1, 85440, Note_on_c, 1, 67, 40
1, 85560, Note_on_c, 0, 82, 0
1, 85560, Note_on_c, 0, 84, 48
1, 85560, Note_on_c, 1, 67, 0
1, 85560, Note_on_c, 1, 70, 40
1, 85620, Note_on_c, 0, 84, 0
1, 85620, Note_on_c, 0, 86, 48
1, 85680, Note_on_c, 0, 86, 0
1, 85680, Note_on_c, 0, 74, 0
1, 85680, Note_on_c, 0, 82, 48
1, 85680, Note_on_c, 0, 74, 48
1, 85680, Note_on_c, 1, 70, 0
1, 85680, Note_on_c, 1, 62, 40
1, 85710, Note_on_c, 1, 62, 0
1, 85740, Note_on_c, 0, 74, 0
1, 85740, Note_on_c, 0, 82, 0
1, 85800, Note_on_c, 1, 70, 40
1, 85830, Note_on_c, 1, 70, 0
1, 85920, Note_on_c, 0, 82, 48
1, 85920, Note_on_c, 0, 74, 48
1, 85920, Note_on_c, 1, 63, 40
1, 85950, Note_on_c, 1, 63, 0
1, 85980, Note_on_c, 0, 74, 0
1, 85980, Note_on_c, 0, 82, 0
1, 86040, Note_on_c, 1, 70, 40
1, 86070, Note_on_c, 1, 70, 0
1, 86160, Note_on_c, 0, 82, 48
1, 86160, Note_on_c, 0, 74, 48
1, 86160, Note_on_c, 1, 65, 40
1, 86280, Note_on_c, 1, 65, 0
1, 86280, Note_on_c, 1, 70, 40
1, 86400, Note_on_c, 0, 74, 0
1, 86400, Note_on_c, 0, 82, 0
1, 86400, Note_on_c, 0, 82, 48
1, 86400, Note_on_c, 0, 74, 48
1, 86400, Note_on_c, 1, 70, 0
1, 86400, Note_on_c, 1, 67, 40
1, 86580, Note_on_c, 0, 74, 0
1, 86580, Note_on_c, 0, 82, 0
1, 86580, Note_on_c, 0, 82, 54
1, 86640, Note_on_c, 0, 82, 0
1, 86640, Note_on_c, 0, 72, 56
1, 86640, Note_on_c, 1, 67, 0
1, 86640, Note_on_c, 1, 63, 48
1, 86712, Note_on_c, 0, 72, 0
1, 86736, Note_on_c, 1, 63, 0
1, 86820, Note_on_c, 0, 79, 62
1, 86820, Note_on_c, 0, 75, 62
1, 86850, Note_on_c, 0, 75, 0
1, 86850, Note_on_c, 0, 79, 0
1, 86865, Note_on_c, 0, 75, 64
1, 86865, Note_on_c, 0, 79, 64
1, 86880, Note_on_c, 0, 77, 64
1, 86880, Note_on_c, 0, 74, 64
1, 86880, Note_on_c, 1, 65, 56
1, 86895, Note_on_c, 0, 79, 0
1, 86895, Note_on_c, 0, 75, 0
1, 86970, Note_on_c, 0, 77, 0
1, 86970, Note_on_c, 0, 74, 0
1, 86976, Note_on_c, 1, 65, 0
1, 87060, Note_on_c, 0, 75, 70
1, 87060, Note_on_c, 0, 72, 70
1, 87090, Note_on_c, 0, 72, 0
1, 87090, Note_on_c, 0, 75, 0
1, 87105, Note_on_c, 0, 75, 72
1, 87105, Note_on_c, 0, 72, 72
1, 87120, Note_on_c, 0, 74, 72
1, 87120, Note_on_c, 0, 70, 72
1, 87120, Note_on_c, 1, 53, 64
1, 87135, Note_on_c, 0, 72, 0
1, 87135, Note_on_c, 0, 75, 0
1, 87300, Note_on_c, 0, 74, 0
1, 87300, Note_on_c, 0, 70, 0
1, 87300, Note_on_c, 0, 72, 78
1, 87300, Note_on_c, 0, 69, 78
1, 87360, Note_on_c, 0, 69, 0
1, 87360, Note_on_c, 0, 72, 0
1, 87360, Note_on_c, 0, 70, 80
1, 87360, Note_on_c, 1, 53, 0
1, 87360, Note_on_c, 1, 55, 80
1, 87540, Note_on_c, 0, 70, 0
1, 87540, Note_on_c, 0, 82, 80
1, 87600, Note_on_c, 0, 82, 0
1, 87600, Note_on_c, 0, 72, 80
1, 87600, Note_on_c, 1, 55, 0
1, 87600, Note_on_c, 1, 51, 80
1, 87690, Note_on_c, 0, 72, 0
1, 87720, Note_on_c, 1, 51, 0
1, 87780, Note_on_c, 0, 79, 80
1, 87780, Note_on_c, 0, 75, 80
1, 87810, Note_on_c, 0, 75, 0
1, 87810, Note_on_c, 0, 79, 0
1, 87825, Note_on_c, 0, 75, 80
1, 87825, Note_on_c, 0, 79, 80
1, 87840, Note_on_c, 0, 77, 80
1, 87840, Note_on_c, 0, 74, 80
1, 87840, Note_on_c, 1, 53, 80
1, 87855, Note_on_c, 0, 79, 0
1, 87855, Note_on_c, 0, 75, 0
1, 87948, Note_on_c, 0, 77, 0
1, 87948, Note_on_c, 0, 74, 0
1, 87984, Note_on_c, 1, 53, 0
1, 88020, Note_on_c, 0, 75, 80
1, 88020, Note_on_c, 0, 72, 80
1, 88050, Note_on_c, 0, 72, 0
1, 88050, Note_on_c, 0, 75, 0
1, 88065, Note_on_c, 0, 75, 80
1, 88065, Note_on_c, 0, 72, 80
1, 88080, Note_on_c, 0, 74, 80
1, 88080, Note_on_c, 0, 70, 80
1, 88080, Note_on_c, 1, 41, 80
1, 88095, Note_on_c, 0, 72, 0
1, 88095, Note_on_c, 0, 75, 0
1, 88260, Note_on_c, 0, 74, 0
1, 88260, Note_on_c, 0, 70, 0
1, 88260, Note_on_c, 0, 72, 80
1, 88260, Note_on_c, 0, 69, 80
1, 88320, Note_on_c, 0, 69, 0
1, 88320, Note_on_c, 0, 72, 0
1, 88320, Note_on_c, 0, 70, 80
1, 88320, Note_on_c, 1, 41, 0
1, 88320, Note_on_c, 1, 46, 80
1, 88400, Note_on_c, 0, 70, 0
1, 88400, Note_on_c, 0, 65, 82
1, 88432, Note_on_c, 0, 65, 0
1, 88480, Note_on_c, 0, 63, 85
1, 88512, Note_on_c, 0, 63, 0
1, 88560, Note_on_c, 0, 62, 87
1, 88640, Note_on_c, 0, 62, 0
1, 88640, Note_on_c, 0, 63, 89
1, 88720, Note_on_c, 0, 63, 0
1, 88720, Note_on_c, 0, 65, 92
1, 88800, Note_on_c, 0, 65, 0
1, 88800, Note_on_c, 0, 58, 94
1, 88800, Note_on_c, 1, 46, 0
1, 89040, Note_on_c, 0, 58, 0
1, 89050, End_track
0, 0, End_of_file