0, 0, Header, 0, 1, 240
1, 0, Start_track
1, 0, Tempo, 372671
1, 360, Note_on_c, 0, 71, 80
1, 420, Note_on_c, 0, 71, 0
1, 480, Note_on_c, 0, 71, 80
1, 480, Note_on_c, 1, 52, 80
1, 480, Note_on_c, 1, 56, 80
1, 528, Note_on_c, 0, 71, 0
1, 540, Note_on_c, 0, 73, 80
1, 588, Note_on_c, 0, 73, 0
1, 600, Note_on_c, 0, 71, 80
1, 648, Note_on_c, 0, 71, 0
1, 660, Note_on_c, 0, 69, 80
1, 708, Note_on_c, 0, 69, 0
1, 718, Note_on_c, 1, 56, 0
1, 718, Note_on_c, 1, 52, 0
1, 720, Note_on_c, 0, 68, 80
1, 768, Note_on_c, 0, 68, 0
1, 840, Note_on_c, 0, 68, 80
1, 912, Note_on_c, 0, 68, 0
1, 960, Note_on_c, 0, 68, 80
1, 960, Note_on_c, 1, 61, 80
1, 960, Note_on_c, 1, 64, 80
1, 1008, Note_on_c, 0, 68, 0
1, 1020, Note_on_c, 0, 69, 80
1, 1068, Note_on_c, 0, 69, 0
1, 1080, Note_on_c, 0, 68, 80
1, 1128, Note_on_c, 0, 68, 0
1, 1140, Note_on_c, 0, 66, 80
1, 1188, Note_on_c, 0, 66, 0
1, 1198, Note_on_c, 1, 64, 0
1, 1198, Note_on_c, 1, 61, 0
1, 1200, Note_on_c, 0, 64, 80
1, 1248, Note_on_c, 0, 64, 0
1, 1320, Note_on_c, 0, 64, 80
1, 1392, Note_on_c, 0, 64, 0
1, 1440, Note_on_c, 0, 66, 80
1, 1440, Note_on_c, 1, 57, 80
1, 1472, Note_on_c, 0, 66, 0
1, 1480, Note_on_c, 0, 68, 80
1, 1512, Note_on_c, 0, 68, 0
1, 1520, Note_on_c, 0, 66, 80
1, 1552, Note_on_c, 0, 66, 0
1, 1560, Note_on_c, 0, 64, 80
1, 1608, Note_on_c, 0, 64, 0
1, 1678, Note_on_c, 1, 57, 0
1, 1680, Note_on_c, 0, 66, 80
1, 1680, Note_on_c, 1, 58, 80
1, 1712, Note_on_c, 0, 66, 0
1, 1720, Note_on_c, 0, 68, 80
1, 1752, Note_on_c, 0, 68, 0
1, 1760, Note_on_c, 0, 66, 80
1, 1792, Note_on_c, 0, 66, 0
1, 1800, Note_on_c, 0, 64, 80
1, 1848, Note_on_c, 0, 64, 0
1, 1918, Note_on_c, 1, 58, 0
1, 1920, Note_on_c, 0, 59, 80
1, 1920, Note_on_c, 1, 47, 80
1, 2158, Note_on_c, 0, 59, 0
1, 2158, Note_on_c, 1, 47, 0
1, 2160, Note_on_c, 1, 35, 80
1, 2280, Note_on_c, 0, 71, 80
1, 2340, Note_on_c, 0, 71, 0
1, 2398, Note_on_c, 1, 35, 0
1, 2400, Note_on_c, 0, 71, 80
1, 2400, Note_on_c, 1, 52, 80
1, 2400, Note_on_c, 1, 56, 80
1, 2448, Note_on_c, 0, 71, 0
1, 2460, Note_on_c, 0, 73, 80
1, 2508, Note_on_c, 0, 73, 0
1, 2520, Note_on_c, 0, 71, 80
1, 2568, Note_on_c, 0, 71, 0
1, 2580, Note_on_c, 0, 69, 80
1, 2628, Note_on_c, 0, 69, 0
1, 2638, Note_on_c, 1, 56, 0
1, 2638, Note_on_c, 1, 52, 0
1, 2640, Note_on_c, 0, 68, 80
1, 2688, Note_on_c, 0, 68, 0
1, 2760, Note_on_c, 0, 68, 80
1, 2832, Note_on_c, 0, 68, 0
1, 2880, Note_on_c, 0, 68, 80
1, 2880, Note_on_c, 1, 61, 80
1, 2880, Note_on_c, 1, 64, 80
1, 2928, Note_on_c, 0, 68, 0
1, 2940, Note_on_c, 0, 69, 80
1, 2988, Note_on_c, 0, 69, 0
1, 3000, Note_on_c, 0, 68, 80
1, 3048, Note_on_c, 0, 68, 0
1, 3060, Note_on_c, 0, 66, 80
1, 3108, Note_on_c, 0, 66, 0
1, 3118, Note_on_c, 1, 64, 0
1, 3118, Note_on_c, 1, 61, 0
1, 3120, Note_on_c, 0, 64, 80
1, 3216, Note_on_c, 0, 64, 0
1, 3240, Note_on_c, 0, 73, 80
1, 3240, Note_on_c, 1, 52, 80
1, 3312, Note_on_c, 0, 73, 0
1, 3312, Note_on_c, 1, 52, 0
1, 3360, Note_on_c, 0, 73, 80
1, 3360, Note_on_c, 1, 52, 80
1, 3408, Note_on_c, 0, 73, 0
1, 3420, Note_on_c, 0, 75, 80
1, 3468, Note_on_c, 0, 75, 0
1, 3478, Note_on_c, 1, 52, 0
1, 3480, Note_on_c, 0, 73, 80
1, 3480, Note_on_c, 1, 51, 80
1, 3528, Note_on_c, 0, 73, 0
1, 3540, Note_on_c, 0, 72, 80
1, 3588, Note_on_c, 0, 72, 0
1, 3598, Note_on_c, 1, 51, 0
1, 3600, Note_on_c, 0, 73, 80
1, 3600, Note_on_c, 1, 52, 80
1, 3648, Note_on_c, 0, 73, 0
1, 3648, Note_on_c, 1, 52, 0
1, 3720, Note_on_c, 0, 75, 80
1, 3720, Note_on_c, 1, 54, 80
1, 3768, Note_on_c, 0, 75, 0
1, 3768, Note_on_c, 1, 54, 0
1, 3840, Note_on_c, 0, 68, 80
1, 3840, Note_on_c, 1, 56, 80
1, 4078, Note_on_c, 0, 68, 0
1, 4078, Note_on_c, 1, 56, 0
1, 4080, Note_on_c, 1, 44, 80
1, 4198, Note_on_c, 1, 44, 0
1, 4200, Note_on_c, 0, 71, 80
1, 4272, Note_on_c, 0, 71, 0
1, 4320, Note_on_c, 0, 71, 80
1, 4320, Note_on_c, 1, 56, 80
1, 4320, Note_on_c, 1, 63, 80
1, 4368, Note_on_c, 0, 71, 0
1, 4380, Note_on_c, 0, 73, 80
1, 4428, Note_on_c, 0, 73, 0
1, 4440, Note_on_c, 0, 71, 80
1, 4488, Note_on_c, 0, 71, 0
1, 4500, Note_on_c, 0, 70, 80
1, 4548, Note_on_c, 0, 70, 0
1, 4558, Note_on_c, 1, 63, 0
1, 4558, Note_on_c, 1, 56, 0
1, 4560, Note_on_c, 0, 71, 80
1, 4608, Note_on_c, 0, 71, 0
1, 4680, Note_on_c, 0, 75, 80
1, 4752, Note_on_c, 0, 75, 0
1, 4800, Note_on_c, 0, 70, 80
1, 4800, Note_on_c, 1, 63, 80
1, 4800, Note_on_c, 1, 67, 80
1, 4848, Note_on_c, 0, 70, 0
1, 4860, Note_on_c, 0, 71, 80
1, 4908, Note_on_c, 0, 71, 0
1, 4920, Note_on_c, 0, 70, 80
1, 4968, Note_on_c, 0, 70, 0
1, 4980, Note_on_c, 0, 68, 80
1, 5028, Note_on_c, 0, 68, 0
1, 5038, Note_on_c, 1, 67, 0
1, 5038, Note_on_c, 1, 63, 0
1, 5040, Note_on_c, 0, 70, 80
1, 5088, Note_on_c, 0, 70, 0
1, 5160, Note_on_c, 0, 63, 80
1, 5232, Note_on_c, 0, 63, 0
1, 5280, Note_on_c, 0, 68, 80
1, 5280, Note_on_c, 1, 52, 80
1, 5280, Note_on_c, 1, 59, 80
1, 5328, Note_on_c, 0, 68, 0
1, 5340, Note_on_c, 0, 69, 80
1, 5388, Note_on_c, 0, 69, 0
1, 5400, Note_on_c, 0, 68, 80
1, 5448, Note_on_c, 0, 68, 0
1, 5460, Note_on_c, 0, 66, 80
1, 5508, Note_on_c, 0, 66, 0
1, 5518, Note_on_c, 1, 59, 0
1, 5518, Note_on_c, 1, 52, 0
1, 5520, Note_on_c, 0, 68, 80
1, 5568, Note_on_c, 0, 68, 0
1, 5640, Note_on_c, 0, 71, 80
1, 5712, Note_on_c, 0, 71, 0
1, 5760, Note_on_c, 0, 66, 80
1, 5760, Note_on_c, 1, 59, 80
1, 5760, Note_on_c, 1, 63, 80
1, 5808, Note_on_c, 0, 66, 0
1, 5820, Note_on_c, 0, 68, 80
1, 5868, Note_on_c, 0, 68, 0
1, 5880, Note_on_c, 0, 66, 80
1, 5928, Note_on_c, 0, 66, 0
1, 5940, Note_on_c, 0, 64, 80
1, 5988, Note_on_c, 0, 64, 0
1, 5998, Note_on_c, 1, 63, 0
1, 5998, Note_on_c, 1, 59, 0
1, 6000, Note_on_c, 0, 66, 80
1, 6048, Note_on_c, 0, 66, 0
1, 6120, Note_on_c, 0, 59, 80
1, 6192, Note_on_c, 0, 59, 0
1, 6240, Note_on_c, 0, 69, 80
1, 6240, Note_on_c, 1, 54, 80
1, 6240, Note_on_c, 1, 61, 80
1, 6288, Note_on_c, 0, 69, 0
1, 6300, Note_on_c, 0, 71, 80
1, 6348, Note_on_c, 0, 71, 0
1, 6360, Note_on_c, 0, 69, 80
1, 6408, Note_on_c, 0, 69, 0
1, 6420, Note_on_c, 0, 68, 80
1, 6468, Note_on_c, 0, 68, 0
1, 6478, Note_on_c, 1, 61, 0
1, 6478, Note_on_c, 1, 54, 0
1, 6480, Note_on_c, 0, 69, 80
1, 6528, Note_on_c, 0, 69, 0
1, 6600, Note_on_c, 0, 73, 80
1, 6672, Note_on_c, 0, 73, 0
1, 6720, Note_on_c, 0, 66, 80
1, 6720, Note_on_c, 1, 57, 80
1, 6752, Note_on_c, 0, 66, 0
1, 6760, Note_on_c, 0, 68, 80
1, 6792, Note_on_c, 0, 68, 0
1, 6800, Note_on_c, 0, 66, 80
1, 6832, Note_on_c, 0, 66, 0
1, 6838, Note_on_c, 1, 57, 0
1, 6840, Note_on_c, 0, 64, 80
1, 6840, Note_on_c, 1, 56, 80
1, 6888, Note_on_c, 0, 64, 0
1, 6888, Note_on_c, 1, 56, 0
1, 6960, Note_on_c, 0, 66, 80
1, 6960, Note_on_c, 1, 57, 80
1, 6992, Note_on_c, 0, 66, 0
1, 7000, Note_on_c, 0, 68, 80
1, 7032, Note_on_c, 0, 68, 0
1, 7040, Note_on_c, 0, 66, 80
1, 7072, Note_on_c, 0, 66, 0
1, 7078, Note_on_c, 1, 57, 0
1, 7080, Note_on_c, 0, 64, 80
1, 7080, Note_on_c, 1, 56, 80
1, 7128, Note_on_c, 0, 64, 0
1, 7140, Note_on_c, 0, 63, 80
1, 7188, Note_on_c, 0, 63, 0
1, 7198, Note_on_c, 1, 56, 0
1, 7200, Note_on_c, 0, 61, 80
1, 7200, Note_on_c, 1, 49, 80
1, 7296, Note_on_c, 0, 61, 0
1, 7318, Note_on_c, 1, 49, 0
1, 7320, Note_on_c, 0, 59, 80
1, 7320, Note_on_c, 1, 47, 80
1, 7368, Note_on_c, 0, 59, 0
1, 7368, Note_on_c, 1, 47, 0
1, 7440, Note_on_c, 0, 61, 80
1, 7440, Note_on_c, 1, 49, 80
1, 7488, Note_on_c, 0, 61, 0
1, 7488, Note_on_c, 1, 49, 0
1, 7560, Note_on_c, 0, 63, 80
1, 7560, Note_on_c, 1, 51, 80
1, 7608, Note_on_c, 0, 63, 0
1, 7608, Note_on_c, 1, 51, 0
1, 7680, Note_on_c, 0, 64, 80
1, 7680, Note_on_c, 1, 52, 80
1, 7918, Note_on_c, 1, 52, 0
1, 7920, Note_on_c, 1, 40, 80
1, 8033, Note_on_c, 0, 64, 0
1, 8038, Note_on_c, 1, 40, 0
1, 8040, Note_on_c, 0, 71, 80
1, 8153, Note_on_c, 0, 71, 0
1, 8160, Note_on_c, 0, 71, 80
1, 8160, Note_on_c, 1, 52, 80
1, 8160, Note_on_c, 1, 56, 80
1, 8218, Note_on_c, 0, 71, 0
1, 8220, Note_on_c, 0, 73, 80
1, 8278, Note_on_c, 0, 73, 0
1, 8280, Note_on_c, 0, 69, 80
1, 8338, Note_on_c, 0, 69, 0
1, 8340, Note_on_c, 0, 71, 80
1, 8398, Note_on_c, 0, 71, 0
1, 8398, Note_on_c, 1, 56, 0
1, 8398, Note_on_c, 1, 52, 0
1, 8400, Note_on_c, 0, 68, 80
1, 8448, Note_on_c, 0, 68, 0
1, 8520, Note_on_c, 0, 68, 80
1, 8592, Note_on_c, 0, 68, 0
1, 8640, Note_on_c, 0, 68, 80
1, 8640, Note_on_c, 1, 61, 80
1, 8640, Note_on_c, 1, 64, 80
1, 8698, Note_on_c, 0, 68, 0
1, 8700, Note_on_c, 0, 69, 80
1, 8758, Note_on_c, 0, 69, 0
1, 8760, Note_on_c, 0, 66, 80
1, 8818, Note_on_c, 0, 66, 0
1, 8820, Note_on_c, 0, 68, 80
1, 8878, Note_on_c, 0, 68, 0
1, 8878, Note_on_c, 1, 64, 0
1, 8878, Note_on_c, 1, 61, 0
1, 8880, Note_on_c, 0, 64, 80
1, 8928, Note_on_c, 0, 64, 0
1, 9000, Note_on_c, 0, 76, 80
1, 9058, Note_on_c, 0, 76, 0
1, 9060, Note_on_c, 0, 75, 80
1, 9118, Note_on_c, 0, 75, 0
1, 9120, Note_on_c, 0, 73, 80
1, 9120, Note_on_c, 1, 45, 80
1, 9178, Note_on_c, 0, 73, 0
1, 9180, Note_on_c, 0, 71, 80
1, 9238, Note_on_c, 0, 71, 0
1, 9240, Note_on_c, 0, 69, 80
1, 9298, Note_on_c, 0, 69, 0
1, 9300, Note_on_c, 0, 68, 80
1, 9358, Note_on_c, 0, 68, 0
1, 9358, Note_on_c, 1, 45, 0
1, 9360, Note_on_c, 0, 66, 80
1, 9360, Note_on_c, 1, 46, 80
1, 9418, Note_on_c, 0, 66, 0
1, 9420, Note_on_c, 0, 64, 80
1, 9478, Note_on_c, 0, 64, 0
1, 9480, Note_on_c, 0, 63, 80
1, 9538, Note_on_c, 0, 63, 0
1, 9540, Note_on_c, 0, 61, 80
1, 9598, Note_on_c, 0, 61, 0
1, 9598, Note_on_c, 1, 46, 0
1, 9600, Note_on_c, 0, 59, 80
1, 9660, Note_on_c, 1, 47, 80
1, 9718, Note_on_c, 1, 47, 0
1, 9720, Note_on_c, 1, 46, 80
1, 9778, Note_on_c, 1, 46, 0
1, 9780, Note_on_c, 1, 47, 80
1, 9838, Note_on_c, 0, 59, 0
1, 9838, Note_on_c, 1, 47, 0
1, 9840, Note_on_c, 1, 35, 80
1, 9936, Note_on_c, 1, 35, 0
1, 9960, Note_on_c, 0, 71, 80
1, 10032, Note_on_c, 0, 71, 0
1, 10080, Note_on_c, 0, 71, 80
1, 10080, Note_on_c, 1, 52, 80
1, 10080, Note_on_c, 1, 56, 80
1, 10138, Note_on_c, 0, 71, 0
1, 10140, Note_on_c, 0, 73, 80
1, 10198, Note_on_c, 0, 73, 0
1, 10200, Note_on_c, 0, 69, 80
1, 10258, Note_on_c, 0, 69, 0
1, 10260, Note_on_c, 0, 71, 80
1, 10318, Note_on_c, 0, 71, 0
1, 10318, Note_on_c, 1, 56, 0
1, 10318, Note_on_c, 1, 52, 0
1, 10320, Note_on_c, 0, 68, 80
1, 10368, Note_on_c, 0, 68, 0
1, 10440, Note_on_c, 0, 68, 80
1, 10512, Note_on_c, 0, 68, 0
1, 10560, Note_on_c, 0, 68, 80
1, 10560, Note_on_c, 1, 61, 80
1, 10560, Note_on_c, 1, 64, 80
1, 10618, Note_on_c, 0, 68, 0
1, 10620, Note_on_c, 0, 69, 80
1, 10678, Note_on_c, 0, 69, 0
1, 10680, Note_on_c, 0, 66, 80
1, 10738, Note_on_c, 0, 66, 0
1, 10740, Note_on_c, 0, 68, 80
1, 10798, Note_on_c, 0, 68, 0
1, 10798, Note_on_c, 1, 64, 0
1, 10798, Note_on_c, 1, 61, 0
1, 10800, Note_on_c, 0, 64, 80
1, 10848, Note_on_c, 0, 64, 0
1, 10920, Note_on_c, 0, 73, 80
1, 10920, Note_on_c, 1, 52, 80
1, 10992, Note_on_c, 0, 73, 0
1, 10992, Note_on_c, 1, 52, 0
1, 11040, Note_on_c, 0, 73, 80
1, 11040, Note_on_c, 1, 52, 80
1, 11098, Note_on_c, 0, 73, 0
1, 11100, Note_on_c, 0, 75, 80
1, 11158, Note_on_c, 0, 75, 0
1, 11158, Note_on_c, 1, 52, 0
1, 11160, Note_on_c, 0, 72, 80
1, 11160, Note_on_c, 1, 51, 80
1, 11208, Note_on_c, 1, 51, 0
1, 11218, Note_on_c, 0, 72, 0
1, 11220, Note_on_c, 0, 75, 80
1, 11278, Note_on_c, 0, 75, 0
1, 11280, Note_on_c, 0, 73, 80
1, 11280, Note_on_c, 1, 52, 80
1, 11328, Note_on_c, 1, 52, 0
1, 11338, Note_on_c, 0, 73, 0
1, 11340, Note_on_c, 0, 76, 80
1, 11398, Note_on_c, 0, 76, 0
1, 11400, Note_on_c, 0, 75, 80
1, 11400, Note_on_c, 1, 54, 80
1, 11448, Note_on_c, 1, 54, 0
1, 11458, Note_on_c, 0, 75, 0
1, 11460, Note_on_c, 0, 73, 80
1, 11518, Note_on_c, 0, 73, 0
1, 11520, Note_on_c, 0, 68, 80
1, 11520, Note_on_c, 1, 56, 80
1, 11758, Note_on_c, 0, 68, 0
1, 11758, Note_on_c, 1, 56, 0
1, 11760, Note_on_c, 1, 44, 80
1, 11878, Note_on_c, 1, 44, 0
1, 11880, Note_on_c, 0, 71, 80
1, 11998, Note_on_c, 0, 71, 0
1, 12000, Note_on_c, 0, 71, 80
1, 12000, Note_on_c, 1, 56, 80
1, 12000, Note_on_c, 1, 63, 80
1, 12058, Note_on_c, 0, 71, 0
1, 12060, Note_on_c, 0, 73, 80
1, 12118, Note_on_c, 0, 73, 0
1, 12120, Note_on_c, 0, 71, 80
1, 12178, Note_on_c, 0, 71, 0
1, 12180, Note_on_c, 0, 70, 80
1, 12238, Note_on_c, 0, 70, 0
1, 12238, Note_on_c, 1, 63, 0
1, 12238, Note_on_c, 1, 56, 0
1, 12240, Note_on_c, 0, 71, 80
1, 12298, Note_on_c, 0, 71, 0
1, 12300, Note_on_c, 0, 75, 80
1, 12358, Note_on_c, 0, 75, 0
1, 12360, Note_on_c, 0, 73, 80
1, 12418, Note_on_c, 0, 73, 0
1, 12420, Note_on_c, 0, 71, 80
1, 12478, Note_on_c, 0, 71, 0
1, 12480, Note_on_c, 0, 70, 80
1, 12480, Note_on_c, 1, 63, 80
1, 12480, Note_on_c, 1, 67, 80
1, 12538, Note_on_c, 0, 70, 0
1, 12540, Note_on_c, 0, 71, 80
1, 12598, Note_on_c, 0, 71, 0
1, 12600, Note_on_c, 0, 70, 80
1, 12658, Note_on_c, 0, 70, 0
1, 12660, Note_on_c, 0, 68, 80
1, 12718, Note_on_c, 0, 68, 0
1, 12718, Note_on_c, 1, 67, 0
1, 12718, Note_on_c, 1, 63, 0
1, 12720, Note_on_c, 0, 70, 80
1, 12768, Note_on_c, 0, 70, 0
1, 12840, Note_on_c, 0, 63, 80
1, 12912, Note_on_c, 0, 63, 0
1, 12960, Note_on_c, 0, 68, 80
1, 12960, Note_on_c, 1, 52, 80
1, 12960, Note_on_c, 1, 59, 80
1, 13018, Note_on_c, 0, 68, 0
1, 13020, Note_on_c, 0, 69, 80
1, 13078, Note_on_c, 0, 69, 0
1, 13080, Note_on_c, 0, 68, 80
1, 13138, Note_on_c, 0, 68, 0
1, 13140, Note_on_c, 0, 66, 80
1, 13198, Note_on_c, 0, 66, 0
1, 13198, Note_on_c, 1, 59, 0
1, 13198, Note_on_c, 1, 52, 0
1, 13200, Note_on_c, 0, 68, 80
1, 13258, Note_on_c, 0, 68, 0
1, 13260, Note_on_c, 0, 71, 80
1, 13318, Note_on_c, 0, 71, 0
1, 13320, Note_on_c, 0, 69, 80
1, 13378, Note_on_c, 0, 69, 0
1, 13380, Note_on_c, 0, 68, 80
1, 13438, Note_on_c, 0, 68, 0
1, 13440, Note_on_c, 0, 66, 80
1, 13440, Note_on_c, 1, 59, 80
1, 13440, Note_on_c, 1, 63, 80
1, 13498, Note_on_c, 0, 66, 0
1, 13500, Note_on_c, 0, 64, 80
1, 13558, Note_on_c, 0, 64, 0
1, 13560, Note_on_c, 0, 63, 80
1, 13618, Note_on_c, 0, 63, 0
1, 13620, Note_on_c, 0, 61, 80
1, 13678, Note_on_c, 0, 61, 0
1, 13678, Note_on_c, 1, 63, 0
1, 13678, Note_on_c, 1, 59, 0
1, 13680, Note_on_c, 0, 59, 80
1, 13728, Note_on_c, 0, 59, 0
1, 13800, Note_on_c, 0, 59, 80
1, 13872, Note_on_c, 0, 59, 0
1, 13920, Note_on_c, 0, 69, 80
1, 13920, Note_on_c, 1, 54, 80
1, 13920, Note_on_c, 1, 61, 80
1, 13978, Note_on_c, 0, 69, 0
1, 13980, Note_on_c, 0, 71, 80
1, 14038, Note_on_c, 0, 71, 0
1, 14040, Note_on_c, 0, 69, 80
1, 14098, Note_on_c, 0, 69, 0
1, 14100, Note_on_c, 0, 68, 80
1, 14158, Note_on_c, 0, 68, 0
1, 14158, Note_on_c, 1, 61, 0
1, 14158, Note_on_c, 1, 54, 0
1, 14160, Note_on_c, 0, 69, 80
1, 14208, Note_on_c, 0, 69, 0
1, 14280, Note_on_c, 0, 73, 80
1, 14352, Note_on_c, 0, 73, 0
1, 14400, Note_on_c, 0, 66, 80
1, 14400, Note_on_c, 1, 57, 80
1, 14458, Note_on_c, 0, 66, 0
1, 14460, Note_on_c, 0, 68, 80
1, 14518, Note_on_c, 0, 68, 0
1, 14518, Note_on_c, 1, 57, 0
1, 14520, Note_on_c, 0, 64, 80
1, 14520, Note_on_c, 1, 56, 80
1, 14580, Note_on_c, 0, 64, 0
1, 14580, Note_on_c, 1, 56, 0
1, 14640, Note_on_c, 0, 66, 80
1, 14640, Note_on_c, 1, 57, 80
1, 14698, Note_on_c, 0, 66, 0
1, 14700, Note_on_c, 0, 68, 80
1, 14758, Note_on_c, 0, 68, 0
1, 14758, Note_on_c, 1, 57, 0
1, 14760, Note_on_c, 0, 64, 80
1, 14760, Note_on_c, 1, 56, 80
1, 14832, Note_on_c, 0, 64, 0
1, 14832, Note_on_c, 1, 56, 0
1, 14880, Note_on_c, 0, 61, 80
1, 14880, Note_on_c, 1, 49, 80
1, 14938, Note_on_c, 0, 61, 0
1, 14940, Note_on_c, 0, 63, 80
1, 14998, Note_on_c, 0, 63, 0
1, 14998, Note_on_c, 1, 49, 0
1, 15000, Note_on_c, 0, 59, 80
1, 15000, Note_on_c, 1, 47, 80
1, 15096, Note_on_c, 0, 59, 0
1, 15096, Note_on_c, 1, 47, 0
1, 15120, Note_on_c, 0, 61, 80
1, 15120, Note_on_c, 1, 49, 80
1, 15178, Note_on_c, 0, 61, 0
1, 15180, Note_on_c, 0, 64, 80
1, 15238, Note_on_c, 0, 64, 0
1, 15238, Note_on_c, 1, 49, 0
1, 15240, Note_on_c, 0, 63, 80
1, 15240, Note_on_c, 1, 51, 80
1, 15298, Note_on_c, 0, 63, 0
1, 15300, Note_on_c, 0, 66, 80
1, 15358, Note_on_c, 0, 66, 0
1, 15358, Note_on_c, 1, 51, 0
1, 15360, Note_on_c, 0, 64, 80
1, 15360, Note_on_c, 1, 52, 80
1, 15598, Note_on_c, 0, 64, 0
1, 15598, Note_on_c, 1, 52, 0
1, 15600, Note_on_c, 1, 40, 80
1, 15718, Note_on_c, 1, 40, 0
1, 15720, Note_on_c, 0, 83, 64
1, 15720, Note_on_c, 0, 80, 64
1, 15780, Note_on_c, 0, 80, 0
1, 15780, Note_on_c, 0, 83, 0
1, 15840, Note_on_c, 0, 80, 64
1, 15840, Note_on_c, 0, 83, 64
1, 15840, Note_on_c, 1, 64, 64
1, 15958, Note_on_c, 0, 83, 0
1, 15958, Note_on_c, 0, 80, 0
1, 15960, Note_on_c, 0, 78, 64
1, 15960, Note_on_c, 0, 81, 64
1, 16078, Note_on_c, 0, 81, 0
1, 16078, Note_on_c, 0, 78, 0
1, 16078, Note_on_c, 1, 64, 0
1, 16080, Note_on_c, 0, 76, 64
1, 16080, Note_on_c, 0, 80, 64
1, 16128, Note_on_c, 0, 80, 0
1, 16128, Note_on_c, 0, 76, 0
1, 16200, Note_on_c, 0, 80, 64
1, 16200, Note_on_c, 1, 64, 64
1, 16200, Note_on_c, 1, 71, 64
1, 16272, Note_on_c, 0, 80, 0
1, 16272, Note_on_c, 1, 71, 0
1, 16272, Note_on_c, 1, 64, 0
1, 16320, Note_on_c, 0, 80, 64
1, 16320, Note_on_c, 1, 64, 64
1, 16320, Note_on_c, 1, 71, 64
1, 16438, Note_on_c, 0, 80, 0
1, 16438, Note_on_c, 1, 71, 0
1, 16440, Note_on_c, 0, 78, 64
1, 16440, Note_on_c, 1, 69, 64
1, 16558, Note_on_c, 0, 78, 0
1, 16558, Note_on_c, 1, 69, 0
1, 16560, Note_on_c, 0, 76, 64
1, 16560, Note_on_c, 1, 68, 64
1, 16608, Note_on_c, 0, 76, 0
1, 16678, Note_on_c, 1, 64, 0
1, 16680, Note_on_c, 0, 88, 64
1, 16800, Note_on_c, 1, 68, 0
1, 16800, Note_on_c, 1, 61, 64
1, 16800, Note_on_c, 1, 64, 64
1, 16920, Note_on_c, 0, 88, 0
1, 16920, Note_on_c, 0, 85, 64
1, 17040, Note_on_c, 0, 85, 0
1, 17040, Note_on_c, 0, 80, 64
1, 17040, Note_on_c, 1, 64, 0
1, 17040, Note_on_c, 1, 61, 0
1, 17040, Note_on_c, 1, 76, 64
1, 17040, Note_on_c, 1, 73, 64
1, 17112, Note_on_c, 0, 80, 0
1, 17160, Note_on_c, 0, 82, 64
1, 17232, Note_on_c, 0, 82, 0
1, 17278, Note_on_c, 1, 73, 0
1, 17280, Note_on_c, 0, 82, 64
1, 17280, Note_on_c, 1, 71, 64
1, 17518, Note_on_c, 0, 82, 0
1, 17518, Note_on_c, 1, 76, 0
1, 17520, Note_on_c, 0, 83, 64
1, 17520, Note_on_c, 1, 75, 64
1, 17568, Note_on_c, 0, 83, 0
1, 17638, Note_on_c, 1, 75, 0
1, 17638, Note_on_c, 1, 71, 0
1, 17640, Note_on_c, 0, 80, 64
1, 17640, Note_on_c, 0, 83, 64
1, 17712, Note_on_c, 0, 83, 0
1, 17712, Note_on_c, 0, 80, 0
1, 17760, Note_on_c, 0, 80, 64
1, 17760, Note_on_c, 0, 83, 64
1, 17760, Note_on_c, 1, 64, 64
1, 17878, Note_on_c, 0, 83, 0
1, 17878, Note_on_c, 0, 80, 0
1, 17880, Note_on_c, 0, 78, 64
1, 17880, Note_on_c, 0, 81, 64
1, 17998, Note_on_c, 0, 81, 0
1, 17998, Note_on_c, 0, 78, 0
1, 17998, Note_on_c, 1, 64, 0
1, 18000, Note_on_c, 0, 76, 64
1, 18000, Note_on_c, 0, 80, 64
1, 18048, Note_on_c, 0, 80, 0
1, 18048, Note_on_c, 0, 76, 0
1, 18120, Note_on_c, 0, 80, 64
1, 18120, Note_on_c, 1, 64, 64
1, 18120, Note_on_c, 1, 71, 64
1, 18192, Note_on_c, 0, 80, 0
1, 18192, Note_on_c, 1, 71, 0
1, 18192, Note_on_c, 1, 64, 0
1, 18240, Note_on_c, 0, 80, 64
1, 18240, Note_on_c, 1, 64, 64
1, 18240, Note_on_c, 1, 71, 64
1, 18358, Note_on_c, 0, 80, 0
1, 18358, Note_on_c, 1, 71, 0
1, 18360, Note_on_c, 0, 78, 64
1, 18360, Note_on_c, 1, 69, 64
1, 18478, Note_on_c, 0, 78, 0
1, 18478, Note_on_c, 1, 69, 0
1, 18480, Note_on_c, 0, 76, 64
1, 18480, Note_on_c, 1, 68, 64
1, 18528, Note_on_c, 0, 76, 0
1, 18528, Note_on_c, 1, 68, 0
1, 18598, Note_on_c, 1, 64, 0
1, 18600, Note_on_c, 0, 80, 64
1, 18600, Note_on_c, 1, 64, 64
1, 18600, Note_on_c, 1, 70, 64
1, 18720, Note_on_c, 0, 80, 0
1, 18720, Note_on_c, 0, 78, 64
1, 18720, Note_on_c, 1, 70, 0
1, 18720, Note_on_c, 1, 64, 0
1, 18720, Note_on_c, 1, 63, 64
1, 18720, Note_on_c, 1, 71, 64
1, 18840, Note_on_c, 0, 78, 0
1, 18840, Note_on_c, 0, 73, 64
1, 18840, Note_on_c, 0, 76, 64
1, 18840, Note_on_c, 1, 71, 0
1, 18840, Note_on_c, 1, 63, 0
1, 18840, Note_on_c, 1, 64, 64
1, 18888, Note_on_c, 0, 76, 0
1, 18888, Note_on_c, 0, 73, 0
1, 18888, Note_on_c, 1, 64, 0
1, 18960, Note_on_c, 0, 71, 64
1, 18960, Note_on_c, 0, 75, 64
1, 18960, Note_on_c, 1, 66, 64
1, 19008, Note_on_c, 0, 75, 0
1, 19008, Note_on_c, 0, 71, 0
1, 19008, Note_on_c, 1, 66, 0
1, 19080, Note_on_c, 0, 70, 64
1, 19080, Note_on_c, 0, 73, 64
1, 19080, Note_on_c, 1, 54, 64
1, 19128, Note_on_c, 0, 73, 0
1, 19128, Note_on_c, 0, 70, 0
1, 19128, Note_on_c, 1, 54, 0
1, 19200, Note_on_c, 0, 71, 64
1, 19200, Note_on_c, 1, 59, 64
1, 19438, Note_on_c, 0, 71, 0
1, 19438, Note_on_c, 1, 59, 0
1, 19440, Note_on_c, 1, 47, 64
1, 19558, Note_on_c, 1, 47, 0
1, 19560, Note_on_c, 0, 78, 64
1, 19560, Note_on_c, 0, 75, 64
1, 19678, Note_on_c, 0, 75, 0
1, 19678, Note_on_c, 0, 78, 0
1, 19680, Note_on_c, 0, 75, 64
1, 19680, Note_on_c, 0, 78, 64
1, 19680, Note_on_c, 1, 59, 64
1, 19798, Note_on_c, 0, 78, 0
1, 19798, Note_on_c, 0, 75, 0
1, 19800, Note_on_c, 0, 73, 64
1, 19800, Note_on_c, 0, 76, 64
1, 19918, Note_on_c, 0, 76, 0
1, 19918, Note_on_c, 0, 73, 0
1, 19918, Note_on_c, 1, 59, 0
1, 19920, Note_on_c, 0, 71, 64
1, 19920, Note_on_c, 0, 75, 64
1, 19968, Note_on_c, 0, 75, 0
1, 19968, Note_on_c, 0, 71, 0
1, 20040, Note_on_c, 0, 78, 64
1, 20040, Note_on_c, 0, 81, 64
1, 20112, Note_on_c, 0, 81, 0
1, 20112, Note_on_c, 0, 78, 0
1, 20160, Note_on_c, 0, 78, 64
1, 20160, Note_on_c, 0, 81, 64
1, 20160, Note_on_c, 1, 59, 64
1, 20278, Note_on_c, 0, 81, 0
1, 20278, Note_on_c, 0, 78, 0
1, 20280, Note_on_c, 0, 76, 64
1, 20280, Note_on_c, 0, 80, 64
1, 20398, Note_on_c, 0, 80, 0
1, 20398, Note_on_c, 0, 76, 0
1, 20398, Note_on_c, 1, 59, 0
1, 20400, Note_on_c, 0, 75, 64
1, 20400, Note_on_c, 0, 78, 64
1, 20448, Note_on_c, 0, 78, 0
1, 20448, Note_on_c, 0, 75, 0
1, 20520, Note_on_c, 0, 81, 64
1, 20520, Note_on_c, 0, 85, 64
1, 20520, Note_on_c, 1, 59, 64
1, 20520, Note_on_c, 1, 63, 64
1, 20592, Note_on_c, 0, 85, 0
1, 20592, Note_on_c, 0, 81, 0
1, 20592, Note_on_c, 1, 63, 0
1, 20592, Note_on_c, 1, 59, 0
1, 20640, Note_on_c, 0, 81, 64
1, 20640, Note_on_c, 0, 85, 64
1, 20640, Note_on_c, 1, 59, 64
1, 20640, Note_on_c, 1, 63, 64
1, 20760, Note_on_c, 0, 85, 0
1, 20760, Note_on_c, 0, 81, 0
1, 20760, Note_on_c, 0, 80, 64
1, 20760, Note_on_c, 0, 83, 64
1, 20760, Note_on_c, 1, 63, 0
1, 20760, Note_on_c, 1, 59, 0
1, 20760, Note_on_c, 1, 64, 64
1, 20808, Note_on_c, 0, 83, 0
1, 20808, Note_on_c, 0, 80, 0
1, 20808, Note_on_c, 1, 64, 0
1, 20880, Note_on_c, 0, 78, 64
1, 20880, Note_on_c, 0, 81, 64
1, 20880, Note_on_c, 1, 66, 64
1, 20928, Note_on_c, 0, 81, 0
1, 20928, Note_on_c, 0, 78, 0
1, 20928, Note_on_c, 1, 66, 0
1, 21000, Note_on_c, 0, 76, 64
1, 21000, Note_on_c, 0, 80, 64
1, 21000, Note_on_c, 1, 68, 64
1, 21048, Note_on_c, 0, 80, 0
1, 21048, Note_on_c, 0, 76, 0
1, 21048, Note_on_c, 1, 68, 0
1, 21120, Note_on_c, 0, 71, 64
1, 21120, Note_on_c, 0, 75, 64
1, 21120, Note_on_c, 0, 78, 64
1, 21120, Note_on_c, 1, 59, 64
1, 21120, Note_on_c, 1, 69, 64
1, 21570, Note_on_c, 0, 78, 0
1, 21570, Note_on_c, 0, 75, 0
1, 21570, Note_on_c, 0, 71, 0
1, 21570, Note_on_c, 1, 69, 0
1, 21570, Note_on_c, 1, 59, 0
1, 21960, Note_on_c, 0, 76, 64
1, 21960, Note_on_c, 0, 71, 64
1, 21960, Note_on_c, 1, 68, 64
1, 22032, Note_on_c, 0, 71, 0
1, 22032, Note_on_c, 0, 76, 0
1, 22032, Note_on_c, 1, 68, 0
1, 22080, Note_on_c, 0, 71, 64
1, 22080, Note_on_c, 0, 76, 64
1, 22080, Note_on_c, 1, 68, 64
1, 22188, Note_on_c, 0, 76, 0
1, 22188, Note_on_c, 0, 71, 0
1, 22188, Note_on_c, 1, 68, 0
1, 22200, Note_on_c, 0, 78, 64
1, 22200, Note_on_c, 1, 66, 64
1, 22308, Note_on_c, 0, 78, 0
1, 22308, Note_on_c, 1, 66, 0
1, 22320, Note_on_c, 0, 80, 64
1, 22320, Note_on_c, 1, 64, 64
1, 22368, Note_on_c, 0, 80, 0
1, 22368, Note_on_c, 1, 64, 0
1, 22440, Note_on_c, 0, 71, 64
1, 22440, Note_on_c, 0, 78, 64
1, 22440, Note_on_c, 1, 63, 64
1, 22512, Note_on_c, 0, 78, 0
1, 22512, Note_on_c, 0, 71, 0
1, 22512, Note_on_c, 1, 63, 0
1, 22560, Note_on_c, 0, 71, 64
1, 22560, Note_on_c, 0, 78, 64
1, 22560, Note_on_c, 1, 63, 64
1, 22678, Note_on_c, 0, 78, 0
1, 22678, Note_on_c, 1, 63, 0
1, 22680, Note_on_c, 0, 80, 64
1, 22680, Note_on_c, 1, 64, 64
1, 22798, Note_on_c, 0, 80, 0
1, 22798, Note_on_c, 1, 64, 0
1, 22800, Note_on_c, 0, 81, 64
1, 22800, Note_on_c, 1, 66, 64
1, 22848, Note_on_c, 0, 81, 0
1, 22848, Note_on_c, 1, 66, 0
1, 22918, Note_on_c, 0, 71, 0
1, 22920, Note_on_c, 0, 71, 64
1, 22920, Note_on_c, 0, 80, 64
1, 22920, Note_on_c, 1, 64, 64
1, 22992, Note_on_c, 0, 80, 0
1, 22992, Note_on_c, 0, 71, 0
1, 22992, Note_on_c, 1, 64, 0
1, 23040, Note_on_c, 0, 80, 64
1, 23040, Note_on_c, 0, 83, 64
1, 23040, Note_on_c, 1, 59, 64
1, 23158, Note_on_c, 0, 83, 0
1, 23158, Note_on_c, 0, 80, 0
1, 23160, Note_on_c, 0, 78, 64
1, 23160, Note_on_c, 0, 81, 64
1, 23208, Note_on_c, 0, 81, 0
1, 23208, Note_on_c, 0, 78, 0
1, 23278, Note_on_c, 1, 59, 0
1, 23280, Note_on_c, 0, 76, 64
1, 23280, Note_on_c, 0, 80, 64
1, 23328, Note_on_c, 0, 80, 0
1, 23328, Note_on_c, 0, 76, 0
1, 23400, Note_on_c, 0, 75, 64
1, 23400, Note_on_c, 0, 78, 64
1, 23400, Note_on_c, 1, 59, 64
1, 23448, Note_on_c, 0, 78, 0
1, 23448, Note_on_c, 0, 75, 0
1, 23448, Note_on_c, 1, 59, 0
1, 23520, Note_on_c, 0, 76, 64
1, 23520, Note_on_c, 1, 64, 64
1, 23758, Note_on_c, 0, 76, 0
1, 23758, Note_on_c, 1, 64, 0
1, 23760, Note_on_c, 1, 52, 64
1, 23878, Note_on_c, 1, 52, 0
1, 23880, Note_on_c, 0, 71, 88
1, 23998, Note_on_c, 0, 71, 0
1, 24000, Note_on_c, 0, 67, 88
1, 24000, Note_on_c, 0, 71, 88
1, 24000, Note_on_c, 0, 76, 88
1, 24000, Note_on_c, 1, 40, 88
1, 24058, Note_on_c, 1, 40, 0
1, 24060, Note_on_c, 1, 52, 88
1, 24118, Note_on_c, 1, 52, 0
1, 24120, Note_on_c, 1, 51, 88
1, 24178, Note_on_c, 1, 51, 0
1, 24180, Note_on_c, 1, 52, 88
1, 24238, Note_on_c, 0, 76, 0
1, 24238, Note_on_c, 0, 71, 0
1, 24238, Note_on_c, 0, 67, 0
1, 24238, Note_on_c, 1, 52, 0
1, 24240, Note_on_c, 1, 40, 88
1, 24298, Note_on_c, 1, 40, 0
1, 24300, Note_on_c, 1, 52, 88
1, 24358, Note_on_c, 1, 52, 0
1, 24360, Note_on_c, 0, 67, 88
1, 24360, Note_on_c, 0, 71, 88
1, 24360, Note_on_c, 1, 40, 88
1, 24418, Note_on_c, 1, 40, 0
1, 24420, Note_on_c, 1, 52, 88
1, 24432, Note_on_c, 0, 71, 0
1, 24432, Note_on_c, 0, 67, 0
1, 24478, Note_on_c, 1, 52, 0
1, 24480, Note_on_c, 0, 69, 88
1, 24480, Note_on_c, 0, 72, 88
1, 24480, Note_on_c, 1, 40, 88
1, 24538, Note_on_c, 1, 40, 0
1, 24540, Note_on_c, 1, 52, 88
1, 24598, Note_on_c, 1, 52, 0
1, 24600, Note_on_c, 1, 51, 88
1, 24658, Note_on_c, 1, 51, 0
1, 24660, Note_on_c, 1, 52, 88
1, 24718, Note_on_c, 0, 72, 0
1, 24718, Note_on_c, 0, 69, 0
1, 24718, Note_on_c, 1, 52, 0
1, 24720, Note_on_c, 1, 40, 88
1, 24778, Note_on_c, 1, 40, 0
1, 24780, Note_on_c, 1, 52, 88
1, 24838, Note_on_c, 1, 52, 0
1, 24840, Note_on_c, 0, 71, 88
1, 24840, Note_on_c, 0, 67, 88
1, 24840, Note_on_c, 1, 40, 88
1, 24898, Note_on_c, 1, 40, 0
1, 24900, Note_on_c, 1, 52, 88
1, 24912, Note_on_c, 0, 67, 0
1, 24912, Note_on_c, 0, 71, 0
1, 24958, Note_on_c, 1, 52, 0
1, 24960, Note_on_c, 0, 66, 88
1, 24960, Note_on_c, 0, 69, 88
1, 24960, Note_on_c, 1, 51, 88
1, 25018, Note_on_c, 1, 51, 0
1, 25020, Note_on_c, 1, 59, 88
1, 25032, Note_on_c, 0, 69, 0
1, 25032, Note_on_c, 0, 66, 0
1, 25078, Note_on_c, 1, 59, 0
1, 25080, Note_on_c, 0, 66, 88
1, 25080, Note_on_c, 0, 69, 88
1, 25080, Note_on_c, 1, 51, 88
1, 25138, Note_on_c, 1, 51, 0
1, 25140, Note_on_c, 1, 59, 88
1, 25152, Note_on_c, 0, 69, 0
1, 25152, Note_on_c, 0, 66, 0
1, 25198, Note_on_c, 1, 59, 0
1, 25200, Note_on_c, 0, 64, 88
1, 25200, Note_on_c, 0, 67, 88
1, 25200, Note_on_c, 1, 52, 88
1, 25258, Note_on_c, 1, 52, 0
1, 25260, Note_on_c, 1, 59, 88
1, 25272, Note_on_c, 0, 67, 0
1, 25272, Note_on_c, 0, 64, 0
1, 25318, Note_on_c, 1, 59, 0
1, 25320, Note_on_c, 0, 64, 88
1, 25320, Note_on_c, 0, 67, 88
1, 25320, Note_on_c, 1, 52, 88
1, 25378, Note_on_c, 1, 52, 0
1, 25380, Note_on_c, 1, 59, 88
1, 25392, Note_on_c, 0, 67, 0
1, 25392, Note_on_c, 0, 64, 0
1, 25438, Note_on_c, 1, 59, 0
1, 25440, Note_on_c, 0, 63, 88
1, 25440, Note_on_c, 0, 66, 88
1, 25440, Note_on_c, 1, 47, 88
1, 25498, Note_on_c, 1, 47, 0
1, 25500, Note_on_c, 1, 59, 88
1, 25558, Note_on_c, 1, 59, 0
1, 25560, Note_on_c, 1, 58, 88
1, 25618, Note_on_c, 1, 58, 0
1, 25620, Note_on_c, 1, 59, 88
1, 25678, Note_on_c, 0, 66, 0
1, 25678, Note_on_c, 0, 63, 0
1, 25678, Note_on_c, 1, 59, 0
1, 25680, Note_on_c, 1, 47, 88
1, 25798, Note_on_c, 1, 47, 0
1, 25800, Note_on_c, 0, 74, 88
1, 25918, Note_on_c, 0, 74, 0
1, 25920, Note_on_c, 0, 71, 88
1, 25920, Note_on_c, 0, 79, 88
1, 25920, Note_on_c, 1, 31, 88
1, 25978, Note_on_c, 1, 31, 0
1, 25980, Note_on_c, 1, 43, 88
1, 26038, Note_on_c, 1, 43, 0
1, 26040, Note_on_c, 1, 42, 88
1, 26098, Note_on_c, 1, 42, 0
1, 26100, Note_on_c, 1, 43, 88
1, 26158, Note_on_c, 0, 79, 0
1, 26158, Note_on_c, 0, 71, 0
1, 26158, Note_on_c, 1, 43, 0
1, 26160, Note_on_c, 1, 31, 88
1, 26218, Note_on_c, 1, 31, 0
1, 26220, Note_on_c, 1, 43, 88
1, 26278, Note_on_c, 1, 43, 0
1, 26280, Note_on_c, 0, 71, 88
1, 26280, Note_on_c, 0, 74, 88
1, 26280, Note_on_c, 1, 31, 88
1, 26338, Note_on_c, 1, 31, 0
1, 26340, Note_on_c, 1, 43, 88
1, 26398, Note_on_c, 0, 74, 0
1, 26398, Note_on_c, 0, 71, 0
1, 26398, Note_on_c, 1, 43, 0
1, 26400, Note_on_c, 0, 72, 88
1, 26400, Note_on_c, 0, 76, 88
1, 26400, Note_on_c, 1, 36, 88
1, 26458, Note_on_c, 1, 36, 0
1, 26460, Note_on_c, 1, 48, 88
1, 26518, Note_on_c, 1, 48, 0
1, 26520, Note_on_c, 1, 47, 88
1, 26578, Note_on_c, 1, 47, 0
1, 26580, Note_on_c, 1, 48, 88
1, 26638, Note_on_c, 0, 76, 0
1, 26638, Note_on_c, 0, 72, 0
1, 26638, Note_on_c, 1, 48, 0
1, 26640, Note_on_c, 1, 36, 88
1, 26698, Note_on_c, 1, 36, 0
1, 26700, Note_on_c, 1, 48, 88
1, 26758, Note_on_c, 1, 48, 0
1, 26760, Note_on_c, 0, 72, 88
1, 26760, Note_on_c, 0, 76, 88
1, 26760, Note_on_c, 1, 36, 88
1, 26818, Note_on_c, 1, 36, 0
1, 26820, Note_on_c, 1, 48, 88
1, 26878, Note_on_c, 0, 76, 0
1, 26878, Note_on_c, 0, 72, 0
1, 26878, Note_on_c, 1, 48, 0
1, 26880, Note_on_c, 0, 71, 88
1, 26880, Note_on_c, 0, 74, 88
1, 26880, Note_on_c, 1, 38, 88
1, 26928, Note_on_c, 0, 74, 0
1, 26928, Note_on_c, 0, 71, 0
1, 26938, Note_on_c, 1, 38, 0
1, 26940, Note_on_c, 1, 50, 88
1, 26998, Note_on_c, 1, 50, 0
1, 27000, Note_on_c, 0, 69, 88
1, 27000, Note_on_c, 0, 72, 88
1, 27000, Note_on_c, 1, 38, 88
1, 27048, Note_on_c, 0, 72, 0
1, 27048, Note_on_c, 0, 69, 0
1, 27058, Note_on_c, 1, 38, 0
1, 27060, Note_on_c, 1, 50, 88
1, 27118, Note_on_c, 1, 50, 0
1, 27120, Note_on_c, 0, 67, 88
1, 27120, Note_on_c, 0, 71, 88
1, 27120, Note_on_c, 1, 38, 88
1, 27168, Note_on_c, 0, 71, 0
1, 27168, Note_on_c, 0, 67, 0
1, 27178, Note_on_c, 1, 38, 0
1, 27180, Note_on_c, 1, 50, 88
1, 27238, Note_on_c, 1, 50, 0
1, 27240, Note_on_c, 0, 66, 88
1, 27240, Note_on_c, 0, 69, 88
1, 27240, Note_on_c, 1, 38, 88
1, 27288, Note_on_c, 0, 69, 0
1, 27288, Note_on_c, 0, 66, 0
1, 27298, Note_on_c, 1, 38, 0
1, 27300, Note_on_c, 1, 50, 88
1, 27358, Note_on_c, 1, 50, 0
1, 27360, Note_on_c, 0, 67, 88
1, 27360, Note_on_c, 1, 31, 88
1, 27418, Note_on_c, 1, 31, 0
1, 27420, Note_on_c, 1, 43, 88
1, 27478, Note_on_c, 1, 43, 0
1, 27480, Note_on_c, 1, 42, 88
1, 27538, Note_on_c, 1, 42, 0
1, 27540, Note_on_c, 1, 43, 88
1, 27598, Note_on_c, 0, 67, 0
1, 27598, Note_on_c, 1, 43, 0
1, 27600, Note_on_c, 1, 31, 88
1, 27718, Note_on_c, 1, 31, 0
1, 27720, Note_on_c, 0, 71, 88
1, 27838, Note_on_c, 0, 71, 0
1, 27840, Note_on_c, 0, 83, 88
1, 27840, Note_on_c, 1, 63, 88
1, 27840, Note_on_c, 1, 66, 88
1, 27840, Note_on_c, 1, 69, 88
1, 27898, Note_on_c, 0, 83, 0
1, 27900, Note_on_c, 0, 71, 88
1, 27958, Note_on_c, 0, 71, 0
1, 27960, Note_on_c, 0, 70, 88
1, 28018, Note_on_c, 0, 70, 0
1, 28020, Note_on_c, 0, 71, 88
1, 28078, Note_on_c, 0, 71, 0
1, 28078, Note_on_c, 1, 69, 0
1, 28078, Note_on_c, 1, 66, 0
1, 28078, Note_on_c, 1, 63, 0
1, 28080, Note_on_c, 0, 83, 88
1, 28138, Note_on_c, 0, 83, 0
1, 28140, Note_on_c, 0, 71, 88
1, 28198, Note_on_c, 0, 71, 0
1, 28200, Note_on_c, 0, 83, 88
1, 28200, Note_on_c, 1, 63, 88
1, 28200, Note_on_c, 1, 66, 88
1, 28200, Note_on_c, 1, 69, 88
1, 28248, Note_on_c, 1, 69, 0
1, 28248, Note_on_c, 1, 66, 0
1, 28248, Note_on_c, 1, 63, 0
1, 28258, Note_on_c, 0, 83, 0
1, 28260, Note_on_c, 0, 71, 88
1, 28318, Note_on_c, 0, 71, 0
1, 28320, Note_on_c, 0, 83, 88
1, 28320, Note_on_c, 1, 64, 88
1, 28320, Note_on_c, 1, 67, 88
1, 28378, Note_on_c, 0, 83, 0
1, 28380, Note_on_c, 0, 71, 88
1, 28438, Note_on_c, 0, 71, 0
1, 28440, Note_on_c, 0, 70, 88
1, 28498, Note_on_c, 0, 70, 0
1, 28500, Note_on_c, 0, 71, 88
1, 28558, Note_on_c, 0, 71, 0
1, 28558, Note_on_c, 1, 67, 0
1, 28558, Note_on_c, 1, 64, 0
1, 28560, Note_on_c, 0, 83, 88
1, 28618, Note_on_c, 0, 83, 0
1, 28620, Note_on_c, 0, 71, 88
1, 28678, Note_on_c, 0, 71, 0
1, 28680, Note_on_c, 0, 83, 88
1, 28680, Note_on_c, 1, 64, 88
1, 28680, Note_on_c, 1, 67, 88
1, 28728, Note_on_c, 1, 67, 0
1, 28728, Note_on_c, 1, 64, 0
1, 28738, Note_on_c, 0, 83, 0
1, 28740, Note_on_c, 0, 71, 88
1, 28798, Note_on_c, 0, 71, 0
1, 28800, Note_on_c, 0, 83, 88
1, 28800, Note_on_c, 1, 57, 88
1, 28800, Note_on_c, 1, 63, 88
1, 28800, Note_on_c, 1, 66, 88
1, 28858, Note_on_c, 0, 83, 0
1, 28860, Note_on_c, 0, 71, 88
1, 28918, Note_on_c, 0, 71, 0
1, 28920, Note_on_c, 0, 70, 88
1, 28978, Note_on_c, 0, 70, 0
1, 28980, Note_on_c, 0, 71, 88
1, 29038, Note_on_c, 0, 71, 0
1, 29038, Note_on_c, 1, 66, 0
1, 29038, Note_on_c, 1, 63, 0
1, 29038, Note_on_c, 1, 57, 0
1, 29040, Note_on_c, 0, 83, 88
1, 29098, Note_on_c, 0, 83, 0
1, 29100, Note_on_c, 0, 71, 88
1, 29158, Note_on_c, 0, 71, 0
1, 29160, Note_on_c, 0, 83, 88
1, 29160, Note_on_c, 1, 57, 88
1, 29160, Note_on_c, 1, 63, 88
1, 29160, Note_on_c, 1, 66, 88
1, 29208, Note_on_c, 1, 66, 0
1, 29208, Note_on_c, 1, 63, 0
1, 29208, Note_on_c, 1, 57, 0
1, 29218, Note_on_c, 0, 83, 0
1, 29220, Note_on_c, 0, 71, 88
1, 29278, Note_on_c, 0, 71, 0
1, 29280, Note_on_c, 0, 83, 88
1, 29280, Note_on_c, 1, 55, 88
1, 29280, Note_on_c, 1, 59, 88
1, 29280, Note_on_c, 1, 64, 88
1, 29338, Note_on_c, 0, 83, 0
1, 29340, Note_on_c, 0, 71, 88
1, 29398, Note_on_c, 0, 71, 0
1, 29400, Note_on_c, 0, 70, 88
1, 29458, Note_on_c, 0, 70, 0
1, 29460, Note_on_c, 0, 71, 88
1, 29518, Note_on_c, 0, 71, 0
1, 29518, Note_on_c, 1, 64, 0
1, 29518, Note_on_c, 1, 59, 0
1, 29518, Note_on_c, 1, 55, 0
1, 29520, Note_on_c, 0, 83, 88
1, 29578, Note_on_c, 0, 83, 0
1, 29580, Note_on_c, 0, 71, 88
1, 29638, Note_on_c, 0, 71, 0
1, 29640, Note_on_c, 0, 83, 88
1, 29640, Note_on_c, 1, 55, 88
1, 29640, Note_on_c, 1, 59, 88
1, 29640, Note_on_c, 1, 64, 88
1, 29698, Note_on_c, 0, 83, 0
1, 29700, Note_on_c, 0, 71, 80
1, 29758, Note_on_c, 0, 71, 0
1, 29758, Note_on_c, 1, 64, 0
1, 29758, Note_on_c, 1, 59, 0
1, 29758, Note_on_c, 1, 55, 0
1, 29760, Note_on_c, 0, 84, 88
1, 29760, Note_on_c, 1, 57, 88
1, 29760, Note_on_c, 1, 60, 88
1, 29760, Note_on_c, 1, 63, 88
1, 29760, Note_on_c, 1, 66, 88
1, 29818, Note_on_c, 0, 84, 0
1, 29820, Note_on_c, 0, 72, 88
1, 29878, Note_on_c, 0, 72, 0
1, 29880, Note_on_c, 0, 84, 88
1, 29938, Note_on_c, 0, 84, 0
1, 29940, Note_on_c, 0, 72, 88
1, 29998, Note_on_c, 0, 72, 0
1, 30000, Note_on_c, 0, 87, 88
1, 30058, Note_on_c, 0, 87, 0
1, 30060, Note_on_c, 0, 75, 88
1, 30118, Note_on_c, 0, 75, 0
1, 30120, Note_on_c, 0, 87, 88
1, 30178, Note_on_c, 0, 87, 0
1, 30180, Note_on_c, 0, 75, 88
1, 30238, Note_on_c, 0, 75, 0
1, 30238, Note_on_c, 1, 66, 0
1, 30238, Note_on_c, 1, 57, 0
1, 30238, Note_on_c, 1, 60, 0
1, 30238, Note_on_c, 1, 63, 0
1, 30240, Note_on_c, 0, 88, 88
1, 30240, Note_on_c, 1, 55, 88
1, 30240, Note_on_c, 1, 59, 88
1, 30240, Note_on_c, 1, 64, 88
1, 30298, Note_on_c, 0, 88, 0
1, 30300, Note_on_c, 0, 76, 88
1, 30358, Note_on_c, 0, 76, 0
1, 30360, Note_on_c, 0, 75, 88
1, 30418, Note_on_c, 0, 75, 0
1, 30420, Note_on_c, 0, 76, 88
1, 30478, Note_on_c, 0, 76, 0
1, 30478, Note_on_c, 1, 64, 0
1, 30478, Note_on_c, 1, 59, 0
1, 30478, Note_on_c, 1, 55, 0
1, 30480, Note_on_c, 0, 88, 88
1, 30538, Note_on_c, 0, 88, 0
1, 30540, Note_on_c, 0, 76, 88
1, 30598, Note_on_c, 0, 76, 0
1, 30600, Note_on_c, 0, 88, 88
1, 30600, Note_on_c, 1, 55, 88
1, 30600, Note_on_c, 1, 59, 88
1, 30600, Note_on_c, 1, 64, 88
1, 30658, Note_on_c, 0, 88, 0
1, 30660, Note_on_c, 0, 76, 88
1, 30718, Note_on_c, 0, 76, 0
1, 30718, Note_on_c, 1, 64, 0
1, 30718, Note_on_c, 1, 59, 0
1, 30718, Note_on_c, 1, 55, 0
1, 30720, Note_on_c, 0, 84, 88
1, 30720, Note_on_c, 1, 57, 88
1, 30720, Note_on_c, 1, 60, 88
1, 30720, Note_on_c, 1, 64, 88
1, 30768, Note_on_c, 0, 84, 0
1, 30780, Note_on_c, 0, 76, 88
1, 30828, Note_on_c, 0, 76, 0
1, 30840, Note_on_c, 0, 84, 88
1, 30888, Note_on_c, 0, 84, 0
1, 30900, Note_on_c, 0, 76, 88
1, 30948, Note_on_c, 0, 76, 0
1, 30958, Note_on_c, 1, 64, 0
1, 30958, Note_on_c, 1, 60, 0
1, 30958, Note_on_c, 1, 57, 0
1, 30960, Note_on_c, 0, 75, 88
1, 30960, Note_on_c, 1, 59, 88
1, 30960, Note_on_c, 1, 66, 88
1, 30960, Note_on_c, 1, 69, 88
1, 31008, Note_on_c, 0, 75, 0
1, 31020, Note_on_c, 0, 71, 88
1, 31068, Note_on_c, 0, 71, 0
1, 31080, Note_on_c, 0, 75, 88
1, 31128, Note_on_c, 0, 75, 0
1, 31140, Note_on_c, 0, 71, 88
1, 31188, Note_on_c, 0, 71, 0
1, 31198, Note_on_c, 1, 69, 0
1, 31198, Note_on_c, 1, 66, 0
1, 31198, Note_on_c, 1, 59, 0
1, 31200, Note_on_c, 0, 76, 88
1, 31200, Note_on_c, 1, 64, 88
1, 31200, Note_on_c, 1, 67, 88
1, 31438, Note_on_c, 0, 76, 0
1, 31438, Note_on_c, 1, 67, 0
1, 31438, Note_on_c, 1, 64, 0
1, 31440, Note_on_c, 1, 52, 88
1, 31558, Note_on_c, 1, 52, 0
1, 31560, Note_on_c, 0, 71, 80
1, 31620, Note_on_c, 0, 71, 0
1, 31680, Note_on_c, 0, 71, 80
1, 31680, Note_on_c, 1, 52, 80
1, 31680, Note_on_c, 1, 56, 80
1, 31728, Note_on_c, 0, 71, 0
1, 31740, Note_on_c, 0, 73, 80
1, 31788, Note_on_c, 0, 73, 0
1, 31800, Note_on_c, 0, 71, 80
1, 31848, Note_on_c, 0, 71, 0
1, 31860, Note_on_c, 0, 69, 80
1, 31908, Note_on_c, 0, 69, 0
1, 31918, Note_on_c, 1, 56, 0
1, 31918, Note_on_c, 1, 52, 0
1, 31920, Note_on_c, 0, 68, 80
1, 31968, Note_on_c, 0, 68, 0
1, 32040, Note_on_c, 0, 68, 80
1, 32112, Note_on_c, 0, 68, 0
1, 32160, Note_on_c, 0, 68, 80
1, 32160, Note_on_c, 1, 61, 80
1, 32160, Note_on_c, 1, 64, 80
1, 32208, Note_on_c, 0, 68, 0
1, 32220, Note_on_c, 0, 69, 80
1, 32268, Note_on_c, 0, 69, 0
1, 32280, Note_on_c, 0, 68, 80
1, 32328, Note_on_c, 0, 68, 0
1, 32340, Note_on_c, 0, 66, 80
1, 32388, Note_on_c, 0, 66, 0
1, 32398, Note_on_c, 1, 64, 0
1, 32398, Note_on_c, 1, 61, 0
1, 32400, Note_on_c, 0, 64, 80
1, 32448, Note_on_c, 0, 64, 0
1, 32520, Note_on_c, 0, 64, 80
1, 32592, Note_on_c, 0, 64, 0
1, 32640, Note_on_c, 0, 66, 80
1, 32640, Note_on_c, 1, 57, 80
1, 32672, Note_on_c, 0, 66, 0
1, 32680, Note_on_c, 0, 68, 80
1, 32712, Note_on_c, 0, 68, 0
1, 32720, Note_on_c, 0, 66, 80
1, 32752, Note_on_c, 0, 66, 0
1, 32760, Note_on_c, 0, 64, 80
1, 32808, Note_on_c, 0, 64, 0
1, 32878, Note_on_c, 1, 57, 0
1, 32880, Note_on_c, 0, 66, 80
1, 32880, Note_on_c, 1, 58, 80
1, 32912, Note_on_c, 0, 66, 0
1, 32920, Note_on_c, 0, 68, 80
1, 32952, Note_on_c, 0, 68, 0
1, 32960, Note_on_c, 0, 66, 80
1, 32992, Note_on_c, 0, 66, 0
1, 33000, Note_on_c, 0, 64, 80
1, 33048, Note_on_c, 0, 64, 0
1, 33118, Note_on_c, 1, 58, 0
1, 33120, Note_on_c, 0, 59, 80
1, 33120, Note_on_c, 1, 47, 80
1, 33358, Note_on_c, 0, 59, 0
1, 33358, Note_on_c, 1, 47, 0
1, 33360, Note_on_c, 1, 35, 80
1, 33480, Note_on_c, 0, 71, 80
1, 33540, Note_on_c, 0, 71, 0
1, 33598, Note_on_c, 1, 35, 0
1, 33600, Note_on_c, 0, 71, 80
1, 33600, Note_on_c, 1, 52, 80
1, 33600, Note_on_c, 1, 56, 80
1, 33648, Note_on_c, 0, 71, 0
1, 33660, Note_on_c, 0, 73, 80
1, 33708, Note_on_c, 0, 73, 0
1, 33720, Note_on_c, 0, 71, 80
1, 33768, Note_on_c, 0, 71, 0
1, 33780, Note_on_c, 0, 69, 80
1, 33828, Note_on_c, 0, 69, 0
1, 33838, Note_on_c, 1, 56, 0
1, 33838, Note_on_c, 1, 52, 0
1, 33840, Note_on_c, 0, 68, 80
1, 33888, Note_on_c, 0, 68, 0
1, 33960, Note_on_c, 0, 68, 80
1, 34032, Note_on_c, 0, 68, 0
1, 34080, Note_on_c, 0, 68, 80
1, 34080, Note_on_c, 1, 61, 80
1, 34080, Note_on_c, 1, 64, 80
1, 34128, Note_on_c, 0, 68, 0
1, 34140, Note_on_c, 0, 69, 80
1, 34188, Note_on_c, 0, 69, 0
1, 34200, Note_on_c, 0, 68, 80
1, 34248, Note_on_c, 0, 68, 0
1, 34260, Note_on_c, 0, 66, 80
1, 34308, Note_on_c, 0, 66, 0
1, 34318, Note_on_c, 1, 64, 0
1, 34318, Note_on_c, 1, 61, 0
1, 34320, Note_on_c, 0, 64, 80
1, 34368, Note_on_c, 0, 64, 0
1, 34440, Note_on_c, 0, 64, 80
1, 34440, Note_on_c, 1, 52, 80
1, 34512, Note_on_c, 0, 64, 0
1, 34512, Note_on_c, 1, 52, 0
1, 34560, Note_on_c, 0, 73, 80
1, 34560, Note_on_c, 1, 52, 80
1, 34608, Note_on_c, 0, 73, 0
1, 34620, Note_on_c, 0, 75, 80
1, 34668, Note_on_c, 0, 75, 0
1, 34678, Note_on_c, 1, 52, 0
1, 34680, Note_on_c, 0, 73, 80
1, 34680, Note_on_c, 1, 51, 80
1, 34728, Note_on_c, 0, 73, 0
1, 34740, Note_on_c, 0, 72, 80
1, 34788, Note_on_c, 0, 72, 0
1, 34798, Note_on_c, 1, 51, 0
1, 34800, Note_on_c, 0, 73, 80
1, 34800, Note_on_c, 1, 52, 80
1, 34848, Note_on_c, 0, 73, 0
1, 34848, Note_on_c, 1, 52, 0
1, 34920, Note_on_c, 0, 75, 80
1, 34920, Note_on_c, 1, 54, 80
1, 34992, Note_on_c, 0, 75, 0
1, 34992, Note_on_c, 1, 54, 0
1, 35040, Note_on_c, 0, 68, 80
1, 35040, Note_on_c, 1, 56, 80
1, 35278, Note_on_c, 0, 68, 0
1, 35278, Note_on_c, 1, 56, 0
1, 35280, Note_on_c, 1, 44, 80
1, 35398, Note_on_c, 1, 44, 0
1, 35400, Note_on_c, 0, 71, 88
1, 35460, Note_on_c, 0, 71, 0
1, 35520, Note_on_c, 0, 73, 88
1, 35520, Note_on_c, 1, 52, 88
1, 35520, Note_on_c, 1, 56, 88
1, 35578, Note_on_c, 0, 73, 0
1, 35580, Note_on_c, 0, 71, 88
1, 35638, Note_on_c, 0, 71, 0
1, 35640, Note_on_c, 0, 76, 88
1, 35698, Note_on_c, 0, 76, 0
1, 35700, Note_on_c, 0, 75, 88
1, 35758, Note_on_c, 0, 75, 0
1, 35758, Note_on_c, 1, 56, 0
1, 35758, Note_on_c, 1, 52, 0
1, 35760, Note_on_c, 0, 73, 88
1, 35818, Note_on_c, 0, 73, 0
1, 35820, Note_on_c, 0, 71, 88
1, 35878, Note_on_c, 0, 71, 0
1, 35880, Note_on_c, 0, 69, 88
1, 35938, Note_on_c, 0, 69, 0
1, 35940, Note_on_c, 0, 68, 88
1, 35998, Note_on_c, 0, 68, 0
1, 36000, Note_on_c, 0, 69, 88
1, 36000, Note_on_c, 1, 61, 88
1, 36000, Note_on_c, 1, 64, 88
1, 36058, Note_on_c, 0, 69, 0
1, 36060, Note_on_c, 0, 68, 88
1, 36118, Note_on_c, 0, 68, 0
1, 36120, Note_on_c, 0, 73, 88
1, 36178, Note_on_c, 0, 73, 0
1, 36180, Note_on_c, 0, 71, 88
1, 36238, Note_on_c, 0, 71, 0
1, 36238, Note_on_c, 1, 64, 0
1, 36238, Note_on_c, 1, 61, 0
1, 36240, Note_on_c, 0, 69, 88
1, 36298, Note_on_c, 0, 69, 0
1, 36300, Note_on_c, 0, 68, 88
1, 36358, Note_on_c, 0, 68, 0
1, 36360, Note_on_c, 0, 66, 88
1, 36418, Note_on_c, 0, 66, 0
1, 36420, Note_on_c, 0, 64, 88
1, 36478, Note_on_c, 0, 64, 0
1, 36480, Note_on_c, 0, 68, 88
1, 36480, Note_on_c, 1, 57, 88
1, 36538, Note_on_c, 0, 68, 0
1, 36540, Note_on_c, 0, 66, 88
1, 36598, Note_on_c, 0, 66, 0
1, 36600, Note_on_c, 0, 69, 88
1, 36600, Note_on_c, 1, 57, 0
1, 36658, Note_on_c, 0, 69, 0
1, 36660, Note_on_c, 0, 68, 88
1, 36718, Note_on_c, 0, 68, 0
1, 36720, Note_on_c, 0, 66, 88
1, 36720, Note_on_c, 1, 58, 88
1, 36778, Note_on_c, 0, 66, 0
1, 36780, Note_on_c, 0, 64, 88
1, 36838, Note_on_c, 0, 64, 0
1, 36840, Note_on_c, 0, 63, 88
1, 36840, Note_on_c, 1, 58, 0
1, 36898, Note_on_c, 0, 63, 0
1, 36900, Note_on_c, 0, 61, 88
1, 36958, Note_on_c, 0, 61, 0
1, 36960, Note_on_c, 0, 59, 88
1, 37020, Note_on_c, 1, 47, 88
1, 37078, Note_on_c, 1, 47, 0
1, 37080, Note_on_c, 1, 46, 88
1, 37138, Note_on_c, 1, 46, 0
1, 37140, Note_on_c, 1, 47, 88
1, 37198, Note_on_c, 0, 59, 0
1, 37198, Note_on_c, 1, 47, 0
1, 37200, Note_on_c, 1, 35, 88
1, 37318, Note_on_c, 1, 35, 0
1, 37320, Note_on_c, 0, 71, 88
1, 37380, Note_on_c, 0, 71, 0
1, 37440, Note_on_c, 0, 73, 88
1, 37440, Note_on_c, 1, 52, 88
1, 37440, Note_on_c, 1, 56, 88
1, 37498, Note_on_c, 0, 73, 0
1, 37500, Note_on_c, 0, 71, 88
1, 37558, Note_on_c, 0, 71, 0
1, 37560, Note_on_c, 0, 76, 88
1, 37618, Note_on_c, 0, 76, 0
1, 37620, Note_on_c, 0, 75, 88
1, 37678, Note_on_c, 0, 75, 0
1, 37678, Note_on_c, 1, 56, 0
1, 37678, Note_on_c, 1, 52, 0
1, 37680, Note_on_c, 0, 73, 88
1, 37738, Note_on_c, 0, 73, 0
1, 37740, Note_on_c, 0, 71, 88
1, 37798, Note_on_c, 0, 71, 0
1, 37800, Note_on_c, 0, 69, 88
1, 37858, Note_on_c, 0, 69, 0
1, 37860, Note_on_c, 0, 68, 88
1, 37918, Note_on_c, 0, 68, 0
1, 37920, Note_on_c, 0, 69, 88
1, 37920, Note_on_c, 1, 61, 88
1, 37920, Note_on_c, 1, 64, 88
1, 37978, Note_on_c, 0, 69, 0
1, 37980, Note_on_c, 0, 68, 88
1, 38038, Note_on_c, 0, 68, 0
1, 38040, Note_on_c, 0, 73, 88
1, 38098, Note_on_c, 0, 73, 0
1, 38100, Note_on_c, 0, 71, 88
1, 38158, Note_on_c, 0, 71, 0
1, 38158, Note_on_c, 1, 64, 0
1, 38158, Note_on_c, 1, 61, 0
1, 38160, Note_on_c, 0, 69, 88
1, 38218, Note_on_c, 0, 69, 0
1, 38220, Note_on_c, 0, 68, 88
1, 38278, Note_on_c, 0, 68, 0
1, 38280, Note_on_c, 0, 66, 88
1, 38338, Note_on_c, 0, 66, 0
1, 38340, Note_on_c, 0, 64, 88
1, 38398, Note_on_c, 0, 64, 0
1, 38400, Note_on_c, 0, 68, 88
1, 38400, Note_on_c, 1, 52, 88
1, 38458, Note_on_c, 0, 68, 0
1, 38460, Note_on_c, 0, 66, 88
1, 38518, Note_on_c, 0, 66, 0
1, 38520, Note_on_c, 0, 69, 88
1, 38520, Note_on_c, 1, 52, 0
1, 38578, Note_on_c, 0, 69, 0
1, 38580, Note_on_c, 0, 68, 88
1, 38638, Note_on_c, 0, 68, 0
1, 38640, Note_on_c, 0, 66, 88
1, 38640, Note_on_c, 1, 54, 88
1, 38698, Note_on_c, 0, 66, 0
1, 38700, Note_on_c, 0, 64, 88
1, 38758, Note_on_c, 0, 64, 0
1, 38760, Note_on_c, 0, 63, 88
1, 38760, Note_on_c, 1, 54, 0
1, 38818, Note_on_c, 0, 63, 0
1, 38820, Note_on_c, 0, 61, 88
1, 38878, Note_on_c, 0, 61, 0
1, 38880, Note_on_c, 0, 56, 88
1, 38880, Note_on_c, 1, 44, 88
1, 39118, Note_on_c, 0, 56, 0
1, 39118, Note_on_c, 1, 44, 0
1, 39120, Note_on_c, 1, 32, 88
1, 39238, Note_on_c, 1, 32, 0
1, 39240, Note_on_c, 0, 71, 80
1, 39300, Note_on_c, 0, 71, 0
1, 39360, Note_on_c, 0, 70, 80
1, 39360, Note_on_c, 1, 56, 80
1, 39418, Note_on_c, 0, 70, 0
1, 39418, Note_on_c, 1, 56, 0
1, 39420, Note_on_c, 0, 71, 80
1, 39420, Note_on_c, 1, 63, 80
1, 39478, Note_on_c, 0, 71, 0
1, 39478, Note_on_c, 1, 63, 0
1, 39480, Note_on_c, 0, 73, 80
1, 39480, Note_on_c, 1, 59, 80
1, 39538, Note_on_c, 0, 73, 0
1, 39538, Note_on_c, 1, 59, 0
1, 39540, Note_on_c, 0, 71, 80
1, 39540, Note_on_c, 1, 63, 80
1, 39598, Note_on_c, 0, 71, 0
1, 39598, Note_on_c, 1, 63, 0
1, 39600, Note_on_c, 0, 75, 80
1, 39600, Note_on_c, 1, 56, 80
1, 39648, Note_on_c, 0, 75, 0
1, 39658, Note_on_c, 1, 56, 0
1, 39660, Note_on_c, 1, 63, 80
1, 39718, Note_on_c, 1, 63, 0
1, 39720, Note_on_c, 0, 71, 80
1, 39720, Note_on_c, 1, 59, 80
1, 39778, Note_on_c, 1, 59, 0
1, 39780, Note_on_c, 1, 63, 80
1, 39792, Note_on_c, 0, 71, 0
1, 39838, Note_on_c, 1, 63, 0
1, 39840, Note_on_c, 0, 70, 80
1, 39840, Note_on_c, 1, 55, 80
1, 39888, Note_on_c, 0, 70, 0
1, 39898, Note_on_c, 1, 55, 0
1, 39900, Note_on_c, 1, 63, 80
1, 39958, Note_on_c, 1, 63, 0
1, 39960, Note_on_c, 0, 75, 80
1, 39960, Note_on_c, 0, 87, 80
1, 39960, Note_on_c, 1, 58, 80
1, 40018, Note_on_c, 1, 58, 0
1, 40020, Note_on_c, 1, 63, 80
1, 40078, Note_on_c, 0, 87, 0
1, 40078, Note_on_c, 0, 75, 0
1, 40078, Note_on_c, 1, 63, 0
1, 40080, Note_on_c, 0, 75, 80
1, 40080, Note_on_c, 0, 87, 80
1, 40080, Note_on_c, 1, 55, 80
1, 40138, Note_on_c, 1, 55, 0
1, 40140, Note_on_c, 1, 63, 80
1, 40198, Note_on_c, 1, 63, 0
1, 40200, Note_on_c, 1, 58, 80
1, 40258, Note_on_c, 1, 58, 0
1, 40260, Note_on_c, 1, 63, 80
1, 40318, Note_on_c, 0, 87, 0
1, 40318, Note_on_c, 0, 75, 0
1, 40318, Note_on_c, 1, 63, 0
1, 40320, Note_on_c, 0, 66, 80
1, 40320, Note_on_c, 1, 52, 80
1, 40378, Note_on_c, 0, 66, 0
1, 40378, Note_on_c, 1, 52, 0
1, 40380, Note_on_c, 0, 68, 80
1, 40380, Note_on_c, 1, 59, 80
1, 40438, Note_on_c, 0, 68, 0
1, 40438, Note_on_c, 1, 59, 0
1, 40440, Note_on_c, 0, 69, 80
1, 40440, Note_on_c, 1, 56, 80
1, 40498, Note_on_c, 0, 69, 0
1, 40498, Note_on_c, 1, 56, 0
1, 40500, Note_on_c, 0, 68, 80
1, 40500, Note_on_c, 1, 59, 80
1, 40558, Note_on_c, 0, 68, 0
1, 40558, Note_on_c, 1, 59, 0
1, 40560, Note_on_c, 0, 71, 80
1, 40560, Note_on_c, 1, 52, 80
1, 40608, Note_on_c, 0, 71, 0
1, 40618, Note_on_c, 1, 52, 0
1, 40620, Note_on_c, 1, 59, 80
1, 40678, Note_on_c, 1, 59, 0
1, 40680, Note_on_c, 0, 68, 80
1, 40680, Note_on_c, 1, 56, 80
1, 40738, Note_on_c, 1, 56, 0
1, 40740, Note_on_c, 1, 59, 80
1, 40752, Note_on_c, 0, 68, 0
1, 40798, Note_on_c, 1, 59, 0
1, 40800, Note_on_c, 0, 66, 80
1, 40800, Note_on_c, 1, 51, 80
1, 40848, Note_on_c, 0, 66, 0
1, 40858, Note_on_c, 1, 51, 0
1, 40860, Note_on_c, 1, 59, 80
1, 40918, Note_on_c, 1, 59, 0
1, 40920, Note_on_c, 0, 71, 80
1, 40920, Note_on_c, 0, 83, 80
1, 40920, Note_on_c, 1, 54, 80
1, 40978, Note_on_c, 1, 54, 0
1, 40980, Note_on_c, 1, 59, 80
1, 41038, Note_on_c, 0, 83, 0
1, 41038, Note_on_c, 0, 71, 0
1, 41038, Note_on_c, 1, 59, 0
1, 41040, Note_on_c, 0, 71, 80
1, 41040, Note_on_c, 0, 83, 80
1, 41040, Note_on_c, 1, 51, 80
1, 41098, Note_on_c, 1, 51, 0
1, 41100, Note_on_c, 1, 59, 80
1, 41158, Note_on_c, 1, 59, 0
1, 41160, Note_on_c, 1, 54, 80
1, 41218, Note_on_c, 1, 54, 0
1, 41220, Note_on_c, 1, 59, 80
1, 41278, Note_on_c, 0, 83, 0
1, 41278, Note_on_c, 0, 71, 0
1, 41278, Note_on_c, 1, 59, 0
1, 41280, Note_on_c, 0, 69, 80
1, 41280, Note_on_c, 0, 81, 80
1, 41280, Note_on_c, 1, 54, 80
1, 41328, Note_on_c, 0, 81, 0
1, 41328, Note_on_c, 0, 69, 0
1, 41338, Note_on_c, 1, 54, 0
1, 41340, Note_on_c, 1, 61, 80
1, 41398, Note_on_c, 1, 61, 0
1, 41400, Note_on_c, 0, 69, 80
1, 41400, Note_on_c, 0, 81, 80
1, 41400, Note_on_c, 1, 57, 80
1, 41448, Note_on_c, 0, 81, 0
1, 41448, Note_on_c, 0, 69, 0
1, 41458, Note_on_c, 1, 57, 0
1, 41460, Note_on_c, 1, 61, 80
1, 41518, Note_on_c, 1, 61, 0
1, 41520, Note_on_c, 0, 69, 80
1, 41520, Note_on_c, 0, 81, 80
1, 41520, Note_on_c, 1, 54, 80
1, 41568, Note_on_c, 0, 81, 0
1, 41568, Note_on_c, 0, 69, 0
1, 41578, Note_on_c, 1, 54, 0
1, 41580, Note_on_c, 1, 61, 80
1, 41638, Note_on_c, 1, 61, 0
1, 41640, Note_on_c, 0, 73, 80
1, 41640, Note_on_c, 0, 85, 80
1, 41640, Note_on_c, 1, 57, 80
1, 41698, Note_on_c, 1, 57, 0
1, 41700, Note_on_c, 1, 61, 80
1, 41712, Note_on_c, 0, 85, 0
1, 41712, Note_on_c, 0, 73, 0
1, 41758, Note_on_c, 1, 61, 0
1, 41760, Note_on_c, 0, 69, 80
1, 41760, Note_on_c, 0, 81, 80
1, 41760, Note_on_c, 1, 51, 80
1, 41818, Note_on_c, 1, 51, 0
1, 41820, Note_on_c, 1, 59, 80
1, 41878, Note_on_c, 1, 59, 0
1, 41880, Note_on_c, 0, 81, 0
1, 41880, Note_on_c, 0, 69, 0
1, 41880, Note_on_c, 1, 54, 80
1, 41938, Note_on_c, 1, 54, 0
1, 41940, Note_on_c, 1, 59, 80
1, 41998, Note_on_c, 1, 59, 0
1, 42000, Note_on_c, 0, 68, 80
1, 42000, Note_on_c, 0, 80, 80
1, 42000, Note_on_c, 1, 52, 80
1, 42058, Note_on_c, 1, 52, 0
1, 42060, Note_on_c, 1, 59, 80
1, 42118, Note_on_c, 1, 59, 0
1, 42120, Note_on_c, 1, 56, 80
1, 42178, Note_on_c, 1, 56, 0
1, 42180, Note_on_c, 1, 59, 80
1, 42238, Note_on_c, 1, 59, 0
1, 42240, Note_on_c, 0, 80, 0
1, 42240, Note_on_c, 0, 68, 0
1, 42240, Note_on_c, 0, 66, 80
1, 42240, Note_on_c, 0, 78, 80
1, 42240, Note_on_c, 1, 45, 80
1, 42298, Note_on_c, 1, 45, 0
1, 42300, Note_on_c, 1, 57, 80
1, 42358, Note_on_c, 1, 57, 0
1, 42360, Note_on_c, 0, 78, 0
1, 42360, Note_on_c, 0, 66, 0
1, 42360, Note_on_c, 1, 49, 80
1, 42418, Note_on_c, 1, 49, 0
1, 42420, Note_on_c, 1, 57, 80
1, 42478, Note_on_c, 1, 57, 0
1, 42480, Note_on_c, 0, 63, 80
1, 42480, Note_on_c, 0, 75, 80
1, 42480, Note_on_c, 1, 47, 80
1, 42538, Note_on_c, 1, 47, 0
1, 42540, Note_on_c, 1, 57, 80
1, 42598, Note_on_c, 1, 57, 0
1, 42600, Note_on_c, 0, 75, 0
1, 42600, Note_on_c, 0, 63, 0
1, 42600, Note_on_c, 1, 51, 80
1, 42658, Note_on_c, 1, 51, 0
1, 42660, Note_on_c, 1, 57, 80
1, 42718, Note_on_c, 1, 57, 0
1, 42720, Note_on_c, 0, 64, 80
1, 42720, Note_on_c, 0, 76, 80
1, 42720, Note_on_c, 1, 40, 80
1, 42778, Note_on_c, 1, 40, 0
1, 42780, Note_on_c, 1, 52, 80
1, 42838, Note_on_c, 1, 52, 0
1, 42840, Note_on_c, 1, 51, 80
1, 42898, Note_on_c, 1, 51, 0
1, 42900, Note_on_c, 1, 52, 80
1, 42958, Note_on_c, 0, 76, 0
1, 42958, Note_on_c, 0, 64, 0
1, 42958, Note_on_c, 1, 52, 0
1, 42960, Note_on_c, 1, 40, 80
1, 43078, Note_on_c, 1, 40, 0
1, 43080, Note_on_c, 0, 71, 80
1, 43140, Note_on_c, 0, 71, 0
1, 43200, Note_on_c, 0, 70, 80
1, 43200, Note_on_c, 1, 56, 80
1, 43258, Note_on_c, 0, 70, 0
1, 43258, Note_on_c, 1, 56, 0
1, 43260, Note_on_c, 0, 71, 80
1, 43260, Note_on_c, 1, 63, 80
1, 43318, Note_on_c, 0, 71, 0
1, 43318, Note_on_c, 1, 63, 0
1, 43320, Note_on_c, 0, 73, 80
1, 43320, Note_on_c, 1, 59, 80
1, 43378, Note_on_c, 0, 73, 0
1, 43378, Note_on_c, 1, 59, 0
1, 43380, Note_on_c, 0, 71, 80
1, 43380, Note_on_c, 1, 63, 80
1, 43438, Note_on_c, 0, 71, 0
1, 43438, Note_on_c, 1, 63, 0
1, 43440, Note_on_c, 0, 75, 80
1, 43440, Note_on_c, 1, 56, 80
1, 43488, Note_on_c, 0, 75, 0
1, 43498, Note_on_c, 1, 56, 0
1, 43500, Note_on_c, 1, 63, 80
1, 43558, Note_on_c, 1, 63, 0
1, 43560, Note_on_c, 0, 71, 80
1, 43560, Note_on_c, 1, 59, 80
1, 43618, Note_on_c, 1, 59, 0
1, 43620, Note_on_c, 1, 63, 80
1, 43632, Note_on_c, 0, 71, 0
1, 43678, Note_on_c, 1, 63, 0
1, 43680, Note_on_c, 0, 70, 80
1, 43680, Note_on_c, 1, 55, 80
1, 43738, Note_on_c, 1, 55, 0
1, 43740, Note_on_c, 1, 63, 80
1, 43764, Note_on_c, 0, 70, 0
1, 43798, Note_on_c, 1, 63, 0
1, 43800, Note_on_c, 0, 75, 80
1, 43800, Note_on_c, 0, 87, 80
1, 43800, Note_on_c, 1, 58, 80
1, 43858, Note_on_c, 1, 58, 0
1, 43860, Note_on_c, 1, 63, 80
1, 43884, Note_on_c, 0, 87, 0
1, 43884, Note_on_c, 0, 75, 0
1, 43918, Note_on_c, 1, 63, 0
1, 43920, Note_on_c, 0, 75, 80
1, 43920, Note_on_c, 0, 87, 80
1, 43920, Note_on_c, 1, 55, 80
1, 43978, Note_on_c, 1, 55, 0
1, 43980, Note_on_c, 1, 63, 80
1, 44038, Note_on_c, 1, 63, 0
1, 44040, Note_on_c, 1, 58, 80
1, 44098, Note_on_c, 1, 58, 0
1, 44100, Note_on_c, 1, 63, 80
1, 44158, Note_on_c, 0, 87, 0
1, 44158, Note_on_c, 0, 75, 0
1, 44158, Note_on_c, 1, 63, 0
1, 44160, Note_on_c, 0, 66, 80
1, 44160, Note_on_c, 1, 52, 80
1, 44218, Note_on_c, 0, 66, 0
1, 44218, Note_on_c, 1, 52, 0
1, 44220, Note_on_c, 0, 68, 80
1, 44220, Note_on_c, 1, 59, 80
1, 44278, Note_on_c, 0, 68, 0
1, 44278, Note_on_c, 1, 59, 0
1, 44280, Note_on_c, 0, 69, 80
1, 44280, Note_on_c, 1, 56, 80
1, 44338, Note_on_c, 0, 69, 0
1, 44338, Note_on_c, 1, 56, 0
1, 44340, Note_on_c, 0, 68, 80
1, 44340, Note_on_c, 1, 59, 80
1, 44398, Note_on_c, 0, 68, 0
1, 44398, Note_on_c, 1, 59, 0
1, 44400, Note_on_c, 0, 71, 80
1, 44400, Note_on_c, 1, 52, 80
1, 44448, Note_on_c, 0, 71, 0
1, 44458, Note_on_c, 1, 52, 0
1, 44460, Note_on_c, 1, 59, 80
1, 44518, Note_on_c, 1, 59, 0
1, 44520, Note_on_c, 0, 68, 80
1, 44520, Note_on_c, 1, 56, 80
1, 44578, Note_on_c, 1, 56, 0
1, 44580, Note_on_c, 1, 59, 80
1, 44592, Note_on_c, 0, 68, 0
1, 44638, Note_on_c, 1, 59, 0
1, 44640, Note_on_c, 0, 66, 80
1, 44640, Note_on_c, 1, 51, 80
1, 44698, Note_on_c, 1, 51, 0
1, 44700, Note_on_c, 1, 59, 80
1, 44724, Note_on_c, 0, 66, 0
1, 44758, Note_on_c, 1, 59, 0
1, 44760, Note_on_c, 0, 71, 80
1, 44760, Note_on_c, 0, 83, 80
1, 44760, Note_on_c, 1, 54, 80
1, 44818, Note_on_c, 1, 54, 0
1, 44820, Note_on_c, 1, 59, 80
1, 44844, Note_on_c, 0, 83, 0
1, 44844, Note_on_c, 0, 71, 0
1, 44878, Note_on_c, 1, 59, 0
1, 44880, Note_on_c, 0, 71, 80
1, 44880, Note_on_c, 0, 83, 80
1, 44880, Note_on_c, 1, 51, 80
1, 44938, Note_on_c, 1, 51, 0
1, 44940, Note_on_c, 1, 59, 80
1, 44998, Note_on_c, 1, 59, 0
1, 45000, Note_on_c, 1, 54, 80
1, 45058, Note_on_c, 1, 54, 0
1, 45060, Note_on_c, 1, 59, 80
1, 45118, Note_on_c, 0, 83, 0
1, 45118, Note_on_c, 0, 71, 0
1, 45118, Note_on_c, 1, 59, 0
1, 45120, Note_on_c, 0, 69, 80
1, 45120, Note_on_c, 0, 81, 80
1, 45120, Note_on_c, 1, 54, 80
1, 45168, Note_on_c, 0, 81, 0
1, 45168, Note_on_c, 0, 69, 0
1, 45178, Note_on_c, 1, 54, 0
1, 45180, Note_on_c, 1, 61, 80
1, 45238, Note_on_c, 1, 61, 0
1, 45240, Note_on_c, 0, 69, 80
1, 45240, Note_on_c, 0, 81, 80
1, 45240, Note_on_c, 1, 57, 80
1, 45288, Note_on_c, 0, 81, 0
1, 45288, Note_on_c, 0, 69, 0
1, 45298, Note_on_c, 1, 57, 0
1, 45300, Note_on_c, 1, 61, 80
1, 45358, Note_on_c, 1, 61, 0
1, 45360, Note_on_c, 0, 69, 80
1, 45360, Note_on_c, 0, 81, 80
1, 45360, Note_on_c, 1, 54, 80
1, 45408, Note_on_c, 0, 81, 0
1, 45408, Note_on_c, 0, 69, 0
1, 45418, Note_on_c, 1, 54, 0
1, 45420, Note_on_c, 1, 61, 80
1, 45478, Note_on_c, 1, 61, 0
1, 45480, Note_on_c, 0, 73, 80
1, 45480, Note_on_c, 0, 85, 80
1, 45480, Note_on_c, 1, 57, 80
1, 45538, Note_on_c, 1, 57, 0
1, 45540, Note_on_c, 1, 61, 80
1, 45598, Note_on_c, 1, 61, 0
1, 45600, Note_on_c, 0, 85, 0
1, 45600, Note_on_c, 0, 73, 0
1, 45600, Note_on_c, 0, 69, 80
1, 45600, Note_on_c, 0, 81, 80
1, 45600, Note_on_c, 1, 51, 80
1, 45658, Note_on_c, 1, 51, 0
1, 45660, Note_on_c, 1, 59, 80
1, 45718, Note_on_c, 1, 59, 0
1, 45720, Note_on_c, 0, 81, 0
1, 45720, Note_on_c, 0, 69, 0
1, 45720, Note_on_c, 1, 54, 80
1, 45778, Note_on_c, 1, 54, 0
1, 45780, Note_on_c, 1, 59, 80
1, 45838, Note_on_c, 1, 59, 0
1, 45840, Note_on_c, 0, 68, 80
1, 45840, Note_on_c, 0, 80, 80
1, 45840, Note_on_c, 1, 52, 80
1, 45898, Note_on_c, 1, 52, 0
1, 45900, Note_on_c, 1, 59, 80
1, 45958, Note_on_c, 1, 59, 0
1, 45960, Note_on_c, 1, 56, 80
1, 46018, Note_on_c, 1, 56, 0
1, 46020, Note_on_c, 1, 59, 80
1, 46078, Note_on_c, 1, 59, 0
1, 46080, Note_on_c, 0, 80, 0
1, 46080, Note_on_c, 0, 68, 0
1, 46080, Note_on_c, 0, 66, 80
1, 46080, Note_on_c, 0, 78, 80
1, 46080, Note_on_c, 1, 45, 80
1, 46138, Note_on_c, 1, 45, 0
1, 46140, Note_on_c, 1, 57, 80
1, 46198, Note_on_c, 1, 57, 0
1, 46200, Note_on_c, 0, 78, 0
1, 46200, Note_on_c, 0, 66, 0
1, 46200, Note_on_c, 1, 49, 80
1, 46258, Note_on_c, 1, 49, 0
1, 46260, Note_on_c, 1, 57, 80
1, 46318, Note_on_c, 1, 57, 0
1, 46320, Note_on_c, 0, 63, 88
1, 46320, Note_on_c, 0, 75, 88
1, 46320, Note_on_c, 1, 47, 80
1, 46378, Note_on_c, 1, 47, 0
1, 46380, Note_on_c, 1, 57, 80
1, 46438, Note_on_c, 1, 57, 0
1, 46440, Note_on_c, 0, 75, 0
1, 46440, Note_on_c, 0, 63, 0
1, 46440, Note_on_c, 1, 51, 80
1, 46498, Note_on_c, 1, 51, 0
1, 46500, Note_on_c, 1, 57, 80
1, 46558, Note_on_c, 1, 57, 0
1, 46560, Note_on_c, 0, 64, 96
1, 46560, Note_on_c, 0, 76, 96
1, 46560, Note_on_c, 1, 40, 80
1, 46618, Note_on_c, 1, 40, 0
1, 46620, Note_on_c, 1, 52, 80
1, 46678, Note_on_c, 1, 52, 0
1, 46680, Note_on_c, 1, 51, 80
1, 46738, Note_on_c, 1, 51, 0
1, 46740, Note_on_c, 1, 52, 80
1, 46798, Note_on_c, 0, 76, 0
1, 46798, Note_on_c, 0, 64, 0
1, 46798, Note_on_c, 1, 52, 0
1, 46800, Note_on_c, 1, 40, 80
1, 46858, Note_on_c, 1, 40, 0
1, 46860, Note_on_c, 1, 52, 80
1, 46918, Note_on_c, 1, 52, 0
1, 46920, Note_on_c, 0, 75, 96
1, 46920, Note_on_c, 0, 81, 96
1, 46920, Note_on_c, 1, 40, 80
1, 46978, Note_on_c, 1, 40, 0
1, 46980, Note_on_c, 1, 52, 80
1, 47038, Note_on_c, 1, 52, 0
1, 47040, Note_on_c, 0, 81, 0
1, 47040, Note_on_c, 0, 75, 0
1, 47040, Note_on_c, 0, 76, 96
1, 47040, Note_on_c, 0, 80, 96
1, 47040, Note_on_c, 1, 40, 80
1, 47098, Note_on_c, 1, 40, 0
1, 47100, Note_on_c, 1, 52, 80
1, 47158, Note_on_c, 1, 52, 0
1, 47160, Note_on_c, 1, 51, 80
1, 47218, Note_on_c, 1, 51, 0
1, 47220, Note_on_c, 1, 52, 80
1, 47278, Note_on_c, 0, 80, 0
1, 47278, Note_on_c, 0, 76, 0
1, 47278, Note_on_c, 1, 52, 0
1, 47280, Note_on_c, 1, 40, 80
1, 47338, Note_on_c, 1, 40, 0
1, 47340, Note_on_c, 1, 52, 80
1, 47398, Note_on_c, 1, 52, 0
1, 47400, Note_on_c, 0, 69, 96
1, 47400, Note_on_c, 0, 75, 96
1, 47400, Note_on_c, 1, 40, 80
1, 47458, Note_on_c, 1, 40, 0
1, 47460, Note_on_c, 1, 52, 80
1, 47472, Note_on_c, 0, 75, 0
1, 47472, Note_on_c, 0, 69, 0
1, 47518, Note_on_c, 1, 52, 0
1, 47520, Note_on_c, 0, 68, 96
1, 47520, Note_on_c, 0, 76, 96
1, 47520, Note_on_c, 1, 40, 80
1, 47578, Note_on_c, 1, 40, 0
1, 47580, Note_on_c, 1, 52, 80
1, 47638, Note_on_c, 1, 52, 0
1, 47640, Note_on_c, 1, 51, 80
1, 47698, Note_on_c, 1, 51, 0
1, 47700, Note_on_c, 1, 52, 80
1, 47758, Note_on_c, 0, 76, 0
1, 47758, Note_on_c, 0, 68, 0
1, 47758, Note_on_c, 1, 52, 0
1, 47760, Note_on_c, 1, 40, 80
1, 47818, Note_on_c, 1, 40, 0
1, 47820, Note_on_c, 1, 52, 80
1, 47878, Note_on_c, 1, 52, 0
1, 47880, Note_on_c, 0, 63, 96
1, 47880, Note_on_c, 0, 69, 96
1, 47880, Note_on_c, 1, 40, 80
1, 47938, Note_on_c, 1, 40, 0
1, 47940, Note_on_c, 1, 52, 80
1, 47998, Note_on_c, 0, 69, 0
1, 47998, Note_on_c, 0, 63, 0
1, 47998, Note_on_c, 1, 52, 0
1, 48000, Note_on_c, 0, 64, 96
1, 48000, Note_on_c, 0, 68, 96
1, 48000, Note_on_c, 1, 40, 80
1, 48058, Note_on_c, 1, 40, 0
1, 48060, Note_on_c, 1, 52, 80
1, 48118, Note_on_c, 1, 52, 0
1, 48120, Note_on_c, 1, 51, 80
1, 48178, Note_on_c, 1, 51, 0
1, 48180, Note_on_c, 1, 52, 80
1, 48238, Note_on_c, 0, 68, 0
1, 48238, Note_on_c, 0, 64, 0
1, 48238, Note_on_c, 1, 52, 0
1, 48240, Note_on_c, 1, 40, 80
1, 48298, Note_on_c, 1, 40, 0
1, 48300, Note_on_c, 1, 52, 80
1, 48358, Note_on_c, 1, 52, 0
1, 48360, Note_on_c, 0, 57, 96
1, 48360, Note_on_c, 0, 63, 96
1, 48360, Note_on_c, 1, 40, 80
1, 48418, Note_on_c, 1, 40, 0
1, 48420, Note_on_c, 1, 52, 80
1, 48478, Note_on_c, 0, 63, 0
1, 48478, Note_on_c, 0, 57, 0
1, 48478, Note_on_c, 1, 52, 0
1, 48480, Note_on_c, 0, 56, 96
1, 48480, Note_on_c, 0, 64, 96
1, 48480, Note_on_c, 1, 40, 96
1, 48576, Note_on_c, 0, 64, 0
1, 48576, Note_on_c, 0, 56, 0
1, 48576, Note_on_c, 1, 40, 0
1, 48720, Note_on_c, 0, 64, 96
1, 48720, Note_on_c, 0, 68, 96
1, 48720, Note_on_c, 0, 71, 96
1, 48720, Note_on_c, 0, 76, 96
1, 48720, Note_on_c, 1, 40, 96
1, 48720, Note_on_c, 1, 52, 96
1, 48888, Note_on_c, 0, 76, 0
1, 48888, Note_on_c, 0, 64, 0
1, 48888, Note_on_c, 0, 68, 0
1, 48888, Note_on_c, 0, 71, 0
1, 48888, Note_on_c, 1, 52, 0
1, 48888, Note_on_c, 1, 40, 0
1, 48960, Note_on_c, 0, 64, 96
1, 48960, Note_on_c, 0, 68, 96
1, 48960, Note_on_c, 0, 71, 96
1, 48960, Note_on_c, 0, 76, 96
1, 48960, Note_on_c, 1, 40, 96
1, 48960, Note_on_c, 1, 52, 96
1, 49200, Note_on_c, 0, 76, 0
1, 49200, Note_on_c, 0, 64, 0
1, 49200, Note_on_c, 0, 68, 0
1, 49200, Note_on_c, 0, 71, 0
1, 49200, Note_on_c, 1, 52, 0
1, 49200, Note_on_c, 1, 40, 0
1, 49210, End_track
0, 0, End_of_file