0, 0, Header, 0, 1, 240
1, 0, Start_track
1, 0, Tempo, 480000
1, 0, Note_on_c, 1, 40, 64
1, 120, Note_on_c, 1, 40, 0
1, 120, Note_on_c, 1, 43, 64
1, 168, Note_on_c, 1, 43, 0
1, 240, Note_on_c, 1, 47, 64
1, 288, Note_on_c, 1, 47, 0
1, 360, Note_on_c, 1, 52, 64
1, 408, Note_on_c, 1, 52, 0
1, 480, Note_on_c, 0, 59, 64
1, 480, Note_on_c, 0, 67, 64
1, 600, Note_on_c, 0, 67, 0
1, 600, Note_on_c, 0, 59, 0
1, 600, Note_on_c, 0, 57, 64
1, 600, Note_on_c, 0, 63, 64
1, 720, Note_on_c, 0, 63, 0
1, 720, Note_on_c, 0, 57, 0
1, 720, Note_on_c, 0, 55, 64
1, 720, Note_on_c, 0, 64, 64
1, 720, Note_on_c, 1, 40, 64
1, 840, Note_on_c, 0, 64, 0
1, 840, Note_on_c, 0, 55, 0
1, 840, Note_on_c, 1, 40, 0
1, 840, Note_on_c, 1, 43, 64
1, 888, Note_on_c, 1, 43, 0
1, 960, Note_on_c, 1, 47, 64
1, 1008, Note_on_c, 1, 47, 0
1, 1080, Note_on_c, 1, 52, 64
1, 1128, Note_on_c, 1, 52, 0
1, 1200, Note_on_c, 0, 67, 64
1, 1200, Note_on_c, 0, 71, 64
1, 1320, Note_on_c, 0, 71, 0
1, 1320, Note_on_c, 0, 67, 0
1, 1320, Note_on_c, 0, 66, 64
1, 1320, Note_on_c, 0, 69, 64
1, 1440, Note_on_c, 0, 69, 0
1, 1440, Note_on_c, 0, 66, 0
1, 1440, Note_on_c, 0, 64, 64
1, 1440, Note_on_c, 0, 67, 64
1, 1440, Note_on_c, 1, 40, 64
1, 1560, Note_on_c, 0, 67, 0
1, 1560, Note_on_c, 0, 64, 0
1, 1560, Note_on_c, 1, 40, 0
1, 1560, Note_on_c, 1, 43, 64
1, 1608, Note_on_c, 1, 43, 0
1, 1680, Note_on_c, 1, 47, 64
1, 1728, Note_on_c, 1, 47, 0
1, 1800, Note_on_c, 1, 52, 64
1, 1848, Note_on_c, 1, 52, 0
1, 1920, Note_on_c, 0, 71, 64
1, 1920, Note_on_c, 0, 79, 64
1, 2040, Note_on_c, 0, 79, 0
1, 2040, Note_on_c, 0, 71, 0
1, 2040, Note_on_c, 0, 69, 64
1, 2040, Note_on_c, 0, 78, 64
1, 2160, Note_on_c, 0, 78, 0
1, 2160, Note_on_c, 0, 69, 0
1, 2160, Note_on_c, 0, 67, 64
1, 2160, Note_on_c, 0, 76, 64
1, 2160, Note_on_c, 1, 48, 64
1, 2280, Note_on_c, 1, 48, 0
1, 2280, Note_on_c, 1, 52, 64
1, 2328, Note_on_c, 1, 52, 0
1, 2400, Note_on_c, 1, 55, 64
1, 2448, Note_on_c, 1, 55, 0
1, 2520, Note_on_c, 1, 60, 64
1, 2640, Note_on_c, 0, 76, 0
1, 2640, Note_on_c, 0, 67, 0
1, 2640, Note_on_c, 0, 69, 64
1, 2640, Note_on_c, 0, 72, 64
1, 2760, Note_on_c, 0, 72, 0
1, 2760, Note_on_c, 0, 69, 0
1, 2760, Note_on_c, 0, 66, 64
1, 2760, Note_on_c, 0, 69, 64
1, 2880, Note_on_c, 0, 69, 0
1, 2880, Note_on_c, 0, 66, 0
1, 2880, Note_on_c, 0, 63, 64
1, 2880, Note_on_c, 0, 66, 64
1, 3000, Note_on_c, 1, 60, 0
1, 3000, Note_on_c, 1, 51, 64
1, 3048, Note_on_c, 1, 51, 0
1, 3120, Note_on_c, 1, 54, 64
1, 3168, Note_on_c, 1, 54, 0
1, 3240, Note_on_c, 1, 59, 64
1, 3360, Note_on_c, 0, 66, 0
1, 3360, Note_on_c, 0, 63, 0
1, 3360, Note_on_c, 0, 71, 64
1, 3480, Note_on_c, 0, 71, 0
1, 3480, Note_on_c, 0, 69, 64
1, 3600, Note_on_c, 0, 69, 0
1, 3600, Note_on_c, 0, 66, 64
1, 3600, Note_on_c, 0, 69, 64
1, 3600, Note_on_c, 1, 59, 0
1, 3720, Note_on_c, 1, 52, 64
1, 3768, Note_on_c, 1, 52, 0
1, 3840, Note_on_c, 0, 69, 0
1, 3840, Note_on_c, 0, 66, 0
1, 3840, Note_on_c, 0, 64, 64
1, 3840, Note_on_c, 0, 67, 64
1, 3840, Note_on_c, 1, 58, 64
1, 3888, Note_on_c, 1, 58, 0
1, 3960, Note_on_c, 0, 67, 0
1, 3960, Note_on_c, 0, 64, 0
1, 3960, Note_on_c, 0, 66, 64
1, 3960, Note_on_c, 1, 59, 64
1, 4008, Note_on_c, 0, 66, 0
1, 4008, Note_on_c, 1, 59, 0
1, 4080, Note_on_c, 0, 70, 40
1, 4200, Note_on_c, 0, 70, 0
1, 4200, Note_on_c, 0, 71, 40
1, 4320, Note_on_c, 0, 71, 0
1, 4320, Note_on_c, 0, 66, 40
1, 4320, Note_on_c, 0, 69, 40
1, 4440, Tempo, 487805
1, 4440, Note_on_c, 1, 52, 40
1, 4488, Note_on_c, 1, 52, 0
1, 4558, Note_on_c, 0, 69, 0
1, 4558, Note_on_c, 0, 66, 0
1, 4560, Tempo, 500000
1, 4560, Note_on_c, 0, 64, 40
1, 4560, Note_on_c, 0, 67, 40
1, 4560, Note_on_c, 1, 58, 40
1, 4608, Note_on_c, 1, 58, 0
1, 4678, Note_on_c, 0, 67, 0
1, 4678, Note_on_c, 0, 64, 0
1, 4680, Tempo, 508475
1, 4680, Note_on_c, 0, 66, 40
1, 4680, Note_on_c, 1, 59, 40
1, 4728, Note_on_c, 0, 66, 0
1, 4728, Note_on_c, 1, 59, 0
1, 4800, Tempo, 521739
1, 4800, Note_on_c, 0, 70, 64
1, 4918, Note_on_c, 0, 70, 0
1, 4920, Tempo, 530973
1, 4920, Note_on_c, 0, 71, 72
1, 5038, Note_on_c, 0, 71, 0
1, 5040, Tempo, 666667
1, 5040, Note_on_c, 0, 66, 80
1, 5040, Note_on_c, 0, 69, 80
1, 5160, Tempo, 714286
1, 5160, Note_on_c, 1, 52, 64
1, 5278, Note_on_c, 0, 69, 0
1, 5278, Note_on_c, 0, 66, 0
1, 5278, Note_on_c, 1, 52, 0
1, 5280, Tempo, 779221
1, 5280, Note_on_c, 0, 64, 64
1, 5280, Note_on_c, 0, 67, 64
1, 5280, Note_on_c, 1, 58, 64
1, 5312, Note_on_c, 0, 67, 0
1, 5312, Note_on_c, 0, 64, 0
1, 5320, Note_on_c, 0, 66, 64
1, 5320, Note_on_c, 0, 69, 64
1, 5352, Note_on_c, 0, 69, 0
1, 5352, Note_on_c, 0, 66, 0
1, 5360, Note_on_c, 0, 64, 64
1, 5360, Note_on_c, 0, 67, 64
1, 5392, Note_on_c, 0, 67, 0
1, 5392, Note_on_c, 0, 64, 0
1, 5398, Note_on_c, 1, 58, 0
1, 5400, Tempo, 857143
1, 5400, Note_on_c, 0, 63, 48
1, 5400, Note_on_c, 0, 66, 48
1, 5400, Note_on_c, 1, 59, 48
1, 5520, Tempo, 937500
1, 5640, Tempo, 1052632
1, 5688, Note_on_c, 0, 66, 0
1, 5688, Note_on_c, 0, 63, 0
1, 5688, Note_on_c, 1, 59, 0
1, 5760, Tempo, 480000
1, 5760, Note_on_c, 1, 40, 64
1, 5878, Note_on_c, 1, 40, 0
1, 5880, Note_on_c, 1, 43, 64
1, 5928, Note_on_c, 1, 43, 0
1, 6000, Note_on_c, 1, 47, 64
1, 6048, Note_on_c, 1, 47, 0
1, 6120, Note_on_c, 1, 52, 64
1, 6168, Note_on_c, 1, 52, 0
1, 6240, Note_on_c, 0, 59, 64
1, 6240, Note_on_c, 0, 67, 64
1, 6360, Note_on_c, 0, 67, 0
1, 6360, Note_on_c, 0, 59, 0
1, 6360, Note_on_c, 0, 57, 64
1, 6360, Note_on_c, 0, 63, 64
1, 6480, Note_on_c, 0, 63, 0
1, 6480, Note_on_c, 0, 57, 0
1, 6480, Note_on_c, 0, 55, 64
1, 6480, Note_on_c, 0, 64, 64
1, 6480, Note_on_c, 1, 40, 64
1, 6598, Note_on_c, 1, 40, 0
1, 6600, Note_on_c, 0, 64, 0
1, 6600, Note_on_c, 0, 55, 0
1, 6600, Note_on_c, 1, 43, 64
1, 6648, Note_on_c, 1, 43, 0
1, 6720, Note_on_c, 1, 47, 64
1, 6768, Note_on_c, 1, 47, 0
1, 6840, Note_on_c, 1, 52, 64
1, 6888, Note_on_c, 1, 52, 0
1, 6960, Note_on_c, 0, 67, 64
1, 6960, Note_on_c, 0, 71, 64
1, 7080, Note_on_c, 0, 71, 0
1, 7080, Note_on_c, 0, 67, 0
1, 7080, Note_on_c, 0, 66, 64
1, 7080, Note_on_c, 0, 69, 64
1, 7200, Note_on_c, 0, 69, 0
1, 7200, Note_on_c, 0, 66, 0
1, 7200, Note_on_c, 0, 64, 64
1, 7200, Note_on_c, 0, 67, 64
1, 7200, Note_on_c, 1, 40, 64
1, 7318, Note_on_c, 1, 40, 0
1, 7320, Note_on_c, 0, 67, 0
1, 7320, Note_on_c, 0, 64, 0
1, 7320, Note_on_c, 1, 43, 64
1, 7368, Note_on_c, 1, 43, 0
1, 7440, Note_on_c, 1, 47, 64
1, 7488, Note_on_c, 1, 47, 0
1, 7560, Note_on_c, 1, 52, 64
1, 7608, Note_on_c, 1, 52, 0
1, 7680, Note_on_c, 0, 68, 64
1, 7680, Note_on_c, 0, 76, 64
1, 7800, Note_on_c, 0, 76, 0
1, 7800, Note_on_c, 0, 68, 0
1, 7800, Note_on_c, 0, 71, 64
1, 7800, Note_on_c, 0, 74, 64
1, 7920, Note_on_c, 0, 74, 0
1, 7920, Note_on_c, 0, 71, 0
1, 7920, Note_on_c, 0, 69, 64
1, 7920, Note_on_c, 0, 72, 64
1, 7920, Note_on_c, 1, 40, 64
1, 8038, Note_on_c, 1, 40, 0
1, 8040, Note_on_c, 0, 72, 0
1, 8040, Note_on_c, 0, 69, 0
1, 8040, Note_on_c, 1, 45, 65
1, 8088, Note_on_c, 1, 45, 0
1, 8160, Note_on_c, 1, 48, 67
1, 8208, Note_on_c, 1, 48, 0
1, 8280, Note_on_c, 1, 52, 68
1, 8328, Note_on_c, 1, 52, 0
1, 8400, Note_on_c, 0, 69, 69
1, 8400, Note_on_c, 0, 72, 69
1, 8520, Note_on_c, 0, 72, 0
1, 8520, Note_on_c, 0, 69, 0
1, 8520, Note_on_c, 0, 67, 71
1, 8520, Note_on_c, 0, 76, 71
1, 8640, Note_on_c, 0, 76, 0
1, 8640, Note_on_c, 0, 67, 0
1, 8640, Note_on_c, 0, 66, 72
1, 8640, Note_on_c, 0, 74, 72
1, 8640, Note_on_c, 1, 38, 72
1, 8758, Note_on_c, 0, 74, 0
1, 8758, Note_on_c, 0, 66, 0
1, 8758, Note_on_c, 1, 38, 0
1, 8760, Note_on_c, 1, 42, 73
1, 8808, Note_on_c, 1, 42, 0
1, 8880, Note_on_c, 1, 45, 75
1, 8928, Note_on_c, 1, 45, 0
1, 9000, Note_on_c, 1, 50, 76
1, 9048, Note_on_c, 1, 50, 0
1, 9120, Note_on_c, 0, 66, 77
1, 9120, Note_on_c, 0, 69, 77
1, 9238, Note_on_c, 0, 69, 0
1, 9238, Note_on_c, 0, 66, 0
1, 9240, Note_on_c, 0, 69, 79
1, 9240, Note_on_c, 0, 72, 79
1, 9358, Note_on_c, 0, 72, 0
1, 9358, Note_on_c, 0, 69, 0
1, 9360, Note_on_c, 0, 67, 80
1, 9360, Note_on_c, 0, 71, 80
1, 9360, Note_on_c, 1, 31, 80
1, 9360, Note_on_c, 1, 43, 80
1, 9478, Note_on_c, 0, 71, 0
1, 9478, Note_on_c, 0, 67, 0
1, 9478, Note_on_c, 1, 43, 0
1, 9478, Note_on_c, 1, 31, 0
1, 9480, Note_on_c, 1, 35, 80
1, 9480, Note_on_c, 1, 47, 80
1, 9528, Note_on_c, 1, 47, 0
1, 9528, Note_on_c, 1, 35, 0
1, 9600, Note_on_c, 1, 38, 80
1, 9600, Note_on_c, 1, 50, 80
1, 9648, Note_on_c, 1, 50, 0
1, 9648, Note_on_c, 1, 38, 0
1, 9720, Note_on_c, 1, 43, 80
1, 9720, Note_on_c, 1, 55, 80
1, 9768, Note_on_c, 1, 55, 0
1, 9768, Note_on_c, 1, 43, 0
1, 9780, Note_on_c, 0, 62, 80
1, 9838, Note_on_c, 0, 62, 0
1, 9840, Note_on_c, 0, 74, 80
1, 9898, Note_on_c, 0, 74, 0
1, 9900, Note_on_c, 0, 71, 80
1, 9958, Note_on_c, 0, 71, 0
1, 9960, Note_on_c, 0, 69, 80
1, 10018, Note_on_c, 0, 69, 0
1, 10020, Note_on_c, 0, 67, 80
1, 10078, Note_on_c, 0, 67, 0
1, 10080, Note_on_c, 0, 66, 80
1, 10080, Note_on_c, 1, 33, 80
1, 10080, Note_on_c, 1, 45, 80
1, 10198, Note_on_c, 0, 66, 0
1, 10198, Note_on_c, 1, 45, 0
1, 10198, Note_on_c, 1, 33, 0
1, 10200, Note_on_c, 1, 36, 80
1, 10200, Note_on_c, 1, 48, 80
1, 10248, Note_on_c, 1, 48, 0
1, 10248, Note_on_c, 1, 36, 0
1, 10320, Note_on_c, 1, 38, 80
1, 10320, Note_on_c, 1, 50, 80
1, 10368, Note_on_c, 1, 50, 0
1, 10368, Note_on_c, 1, 38, 0
1, 10440, Note_on_c, 1, 42, 80
1, 10440, Note_on_c, 1, 54, 80
1, 10488, Note_on_c, 1, 54, 0
1, 10488, Note_on_c, 1, 42, 0
1, 10500, Note_on_c, 0, 62, 80
1, 10558, Note_on_c, 0, 62, 0
1, 10560, Note_on_c, 0, 74, 80
1, 10618, Note_on_c, 0, 74, 0
1, 10620, Note_on_c, 0, 72, 80
1, 10678, Note_on_c, 0, 72, 0
1, 10680, Note_on_c, 0, 71, 80
1, 10738, Note_on_c, 0, 71, 0
1, 10740, Note_on_c, 0, 69, 80
1, 10798, Note_on_c, 0, 69, 0
1, 10800, Note_on_c, 0, 71, 48
1, 10800, Note_on_c, 1, 55, 48
1, 10918, Note_on_c, 0, 71, 0
1, 10920, Note_on_c, 1, 59, 48
1, 11040, Note_on_c, 1, 62, 48
1, 11160, Note_on_c, 1, 67, 48
1, 11220, Note_on_c, 0, 74, 48
1, 11278, Note_on_c, 0, 74, 0
1, 11280, Note_on_c, 0, 86, 48
1, 11338, Note_on_c, 0, 86, 0
1, 11340, Note_on_c, 0, 83, 48
1, 11398, Note_on_c, 0, 83, 0
1, 11400, Note_on_c, 0, 81, 48
1, 11448, Note_on_c, 1, 67, 0
1, 11448, Note_on_c, 1, 55, 0
1, 11448, Note_on_c, 1, 59, 0
1, 11448, Note_on_c, 1, 62, 0
1, 11458, Note_on_c, 0, 81, 0
1, 11460, Note_on_c, 0, 79, 48
1, 11518, Note_on_c, 0, 79, 0
1, 11520, Note_on_c, 0, 79, 48
1, 11520, Note_on_c, 1, 57, 48
1, 11640, Note_on_c, 1, 60, 48
1, 11758, Note_on_c, 0, 79, 0
1, 11760, Note_on_c, 0, 78, 48
1, 11760, Note_on_c, 1, 62, 48
1, 11832, Note_on_c, 0, 78, 0
1, 11880, Note_on_c, 1, 66, 48
1, 11940, Note_on_c, 0, 74, 48
1, 11998, Note_on_c, 0, 74, 0
1, 12000, Note_on_c, 0, 86, 48
1, 12058, Note_on_c, 0, 86, 0
1, 12060, Note_on_c, 0, 84, 48
1, 12118, Note_on_c, 0, 84, 0
1, 12120, Note_on_c, 0, 83, 48
1, 12168, Note_on_c, 1, 66, 0
1, 12168, Note_on_c, 1, 57, 0
1, 12168, Note_on_c, 1, 60, 0
1, 12168, Note_on_c, 1, 62, 0
1, 12178, Note_on_c, 0, 83, 0
1, 12180, Note_on_c, 0, 81, 48
1, 12238, Note_on_c, 0, 81, 0
1, 12240, Note_on_c, 0, 81, 48
1, 12240, Note_on_c, 1, 59, 48
1, 12360, Note_on_c, 1, 62, 52
1, 12478, Note_on_c, 0, 81, 0
1, 12480, Note_on_c, 0, 83, 56
1, 12480, Note_on_c, 1, 66, 56
1, 12552, Note_on_c, 0, 83, 0
1, 12576, Note_on_c, 1, 66, 0
1, 12600, Note_on_c, 1, 67, 60
1, 12660, Note_on_c, 0, 74, 62
1, 12718, Note_on_c, 0, 74, 0
1, 12720, Note_on_c, 0, 86, 64
1, 12778, Note_on_c, 0, 86, 0
1, 12780, Note_on_c, 0, 83, 66
1, 12838, Note_on_c, 0, 83, 0
1, 12840, Note_on_c, 0, 81, 68
1, 12888, Note_on_c, 1, 67, 0
1, 12888, Note_on_c, 1, 62, 0
1, 12888, Note_on_c, 1, 59, 0
1, 12898, Note_on_c, 0, 81, 0
1, 12900, Note_on_c, 0, 79, 70
1, 12958, Note_on_c, 0, 79, 0
1, 12960, Note_on_c, 0, 88, 72
1, 12960, Note_on_c, 1, 60, 72
1, 13020, Note_on_c, 0, 88, 0
1, 13020, Note_on_c, 0, 76, 72
1, 13080, Note_on_c, 0, 76, 0
1, 13080, Note_on_c, 0, 84, 72
1, 13080, Note_on_c, 1, 60, 0
1, 13080, Note_on_c, 1, 69, 72
1, 13140, Note_on_c, 0, 84, 0
1, 13140, Note_on_c, 0, 88, 72
1, 13200, Note_on_c, 0, 88, 0
1, 13200, Note_on_c, 0, 83, 72
1, 13200, Note_on_c, 1, 69, 0
1, 13200, Note_on_c, 1, 67, 72
1, 13260, Note_on_c, 0, 83, 0
1, 13260, Note_on_c, 0, 88, 72
1, 13320, Note_on_c, 0, 88, 0
1, 13320, Note_on_c, 0, 81, 72
1, 13320, Note_on_c, 1, 67, 0
1, 13320, Note_on_c, 1, 66, 72
1, 13380, Note_on_c, 0, 81, 0
1, 13380, Note_on_c, 0, 83, 72
1, 13440, Note_on_c, 0, 83, 0
1, 13440, Note_on_c, 0, 84, 72
1, 13440, Note_on_c, 1, 66, 0
1, 13500, Note_on_c, 0, 84, 0
1, 13500, Note_on_c, 0, 86, 72
1, 13560, Note_on_c, 0, 86, 0
1, 13560, Note_on_c, 0, 88, 72
1, 13620, Note_on_c, 0, 88, 0
1, 13620, Note_on_c, 0, 84, 72
1, 13680, Note_on_c, 0, 84, 0
1, 13680, Note_on_c, 0, 86, 72
1, 13680, Note_on_c, 1, 59, 72
1, 13740, Note_on_c, 0, 86, 0
1, 13740, Note_on_c, 0, 74, 72
1, 13800, Note_on_c, 0, 74, 0
1, 13800, Note_on_c, 0, 83, 72
1, 13800, Note_on_c, 1, 59, 0
1, 13800, Note_on_c, 1, 67, 72
1, 13860, Note_on_c, 0, 83, 0
1, 13860, Note_on_c, 0, 86, 72
1, 13920, Note_on_c, 0, 86, 0
1, 13920, Note_on_c, 0, 81, 72
1, 13920, Note_on_c, 1, 67, 0
1, 13920, Note_on_c, 1, 66, 72
1, 13980, Note_on_c, 0, 81, 0
1, 13980, Note_on_c, 0, 86, 72
1, 14040, Note_on_c, 0, 86, 0
1, 14040, Note_on_c, 0, 79, 72
1, 14040, Note_on_c, 1, 66, 0
1, 14040, Note_on_c, 1, 64, 72
1, 14100, Note_on_c, 0, 79, 0
1, 14100, Note_on_c, 0, 81, 72
1, 14160, Note_on_c, 0, 81, 0
1, 14160, Note_on_c, 0, 83, 72
1, 14160, Note_on_c, 1, 64, 0
1, 14220, Note_on_c, 0, 83, 0
1, 14220, Note_on_c, 0, 84, 72
1, 14280, Note_on_c, 0, 84, 0
1, 14280, Note_on_c, 0, 86, 72
1, 14340, Note_on_c, 0, 86, 0
1, 14340, Note_on_c, 0, 83, 72
1, 14400, Note_on_c, 0, 83, 0
1, 14400, Note_on_c, 0, 84, 72
1, 14400, Note_on_c, 1, 57, 72
1, 14460, Note_on_c, 0, 84, 0
1, 14460, Note_on_c, 0, 72, 72
1, 14520, Note_on_c, 0, 72, 0
1, 14520, Note_on_c, 0, 81, 72
1, 14520, Note_on_c, 1, 57, 0
1, 14520, Note_on_c, 1, 66, 72
1, 14580, Note_on_c, 0, 81, 0
1, 14580, Note_on_c, 0, 84, 72
1, 14640, Note_on_c, 0, 84, 0
1, 14640, Note_on_c, 0, 79, 72
1, 14640, Note_on_c, 1, 66, 0
1, 14640, Note_on_c, 1, 64, 72
1, 14700, Note_on_c, 0, 79, 0
1, 14700, Note_on_c, 0, 84, 72
1, 14760, Note_on_c, 0, 84, 0
1, 14760, Note_on_c, 0, 78, 72
1, 14760, Note_on_c, 1, 64, 0
1, 14760, Note_on_c, 1, 62, 72
1, 14820, Note_on_c, 0, 78, 0
1, 14820, Note_on_c, 0, 84, 72
1, 14880, Note_on_c, 0, 84, 0
1, 14880, Note_on_c, 0, 79, 72
1, 14880, Note_on_c, 1, 62, 0
1, 14880, Note_on_c, 1, 64, 72
1, 14940, Note_on_c, 0, 79, 0
1, 14940, Note_on_c, 0, 84, 72
1, 15000, Note_on_c, 0, 84, 0
1, 15000, Note_on_c, 0, 81, 72
1, 15000, Note_on_c, 1, 64, 0
1, 15000, Note_on_c, 1, 66, 72
1, 15060, Note_on_c, 0, 81, 0
1, 15060, Note_on_c, 0, 84, 72
1, 15120, Note_on_c, 0, 84, 0
1, 15120, Note_on_c, 0, 83, 72
1, 15120, Note_on_c, 1, 66, 0
1, 15120, Note_on_c, 1, 55, 72
1, 15178, Note_on_c, 1, 55, 0
1, 15180, Note_on_c, 1, 67, 72
1, 15216, Note_on_c, 0, 83, 0
1, 15238, Note_on_c, 1, 67, 0
1, 15240, Note_on_c, 0, 84, 72
1, 15240, Note_on_c, 1, 57, 72
1, 15272, Note_on_c, 0, 84, 0
1, 15280, Note_on_c, 0, 86, 72
1, 15298, Note_on_c, 1, 57, 0
1, 15300, Note_on_c, 1, 67, 72
1, 15312, Note_on_c, 0, 86, 0
1, 15320, Note_on_c, 0, 84, 72
1, 15352, Note_on_c, 0, 84, 0
1, 15358, Note_on_c, 1, 67, 0
1, 15360, Note_on_c, 0, 86, 72
1, 15360, Note_on_c, 1, 59, 72
1, 15418, Note_on_c, 1, 59, 0
1, 15420, Note_on_c, 1, 67, 72
1, 15456, Note_on_c, 0, 86, 0
1, 15478, Note_on_c, 1, 67, 0
1, 15480, Note_on_c, 0, 81, 72
1, 15480, Note_on_c, 1, 60, 72
1, 15528, Note_on_c, 0, 81, 0
1, 15538, Note_on_c, 1, 60, 0
1, 15540, Note_on_c, 1, 67, 72
1, 15598, Note_on_c, 1, 67, 0
1, 15600, Note_on_c, 0, 81, 72
1, 15600, Note_on_c, 1, 60, 72
1, 15648, Note_on_c, 0, 81, 0
1, 15658, Note_on_c, 1, 60, 0
1, 15660, Note_on_c, 1, 67, 72
1, 15718, Note_on_c, 1, 67, 0
1, 15720, Note_on_c, 0, 81, 72
1, 15720, Note_on_c, 1, 60, 72
1, 15768, Note_on_c, 0, 81, 0
1, 15778, Note_on_c, 1, 60, 0
1, 15780, Note_on_c, 1, 67, 72
1, 15838, Note_on_c, 1, 67, 0
1, 15840, Note_on_c, 0, 83, 48
1, 15840, Note_on_c, 1, 55, 48
1, 15898, Note_on_c, 1, 55, 0
1, 15900, Note_on_c, 1, 67, 48
1, 15936, Note_on_c, 0, 83, 0
1, 15958, Note_on_c, 1, 67, 0
1, 15960, Note_on_c, 0, 84, 48
1, 15960, Note_on_c, 1, 57, 48
1, 15992, Note_on_c, 0, 84, 0
1, 16000, Note_on_c, 0, 86, 48
1, 16018, Note_on_c, 1, 57, 0
1, 16020, Note_on_c, 1, 67, 48
1, 16032, Note_on_c, 0, 86, 0
1, 16040, Note_on_c, 0, 84, 48
1, 16072, Note_on_c, 0, 84, 0
1, 16078, Note_on_c, 1, 67, 0
1, 16080, Note_on_c, 0, 86, 48
1, 16080, Note_on_c, 1, 59, 48
1, 16138, Note_on_c, 1, 59, 0
1, 16140, Note_on_c, 1, 67, 48
1, 16176, Note_on_c, 0, 86, 0
1, 16198, Note_on_c, 1, 67, 0
1, 16200, Note_on_c, 0, 81, 48
1, 16200, Note_on_c, 1, 60, 48
1, 16248, Note_on_c, 0, 81, 0
1, 16258, Note_on_c, 1, 60, 0
1, 16260, Note_on_c, 1, 67, 48
1, 16318, Note_on_c, 1, 67, 0
1, 16320, Note_on_c, 0, 81, 48
1, 16320, Note_on_c, 1, 60, 48
1, 16368, Note_on_c, 0, 81, 0
1, 16378, Note_on_c, 1, 60, 0
1, 16380, Note_on_c, 1, 67, 48
1, 16438, Note_on_c, 1, 67, 0
1, 16440, Note_on_c, 0, 81, 48
1, 16440, Note_on_c, 1, 60, 48
1, 16488, Note_on_c, 0, 81, 0
1, 16497, Note_on_c, 1, 60, 0
1, 16500, Note_on_c, 1, 67, 48
1, 16548, Note_on_c, 1, 67, 0
1, 16560, Note_on_c, 0, 83, 56
1, 16560, Note_on_c, 1, 55, 56
1, 16618, Note_on_c, 1, 55, 0
1, 16620, Note_on_c, 1, 67, 58
1, 16656, Note_on_c, 0, 83, 0
1, 16678, Note_on_c, 1, 67, 0
1, 16680, Note_on_c, 0, 84, 60
1, 16680, Note_on_c, 1, 57, 60
1, 16712, Note_on_c, 0, 84, 0
1, 16720, Note_on_c, 0, 86, 61
1, 16738, Note_on_c, 1, 57, 0
1, 16740, Note_on_c, 1, 67, 62
1, 16752, Note_on_c, 0, 86, 0
1, 16760, Note_on_c, 0, 84, 63
1, 16792, Note_on_c, 0, 84, 0
1, 16798, Note_on_c, 1, 67, 0
1, 16800, Note_on_c, 0, 86, 64
1, 16800, Note_on_c, 1, 59, 64
1, 16858, Note_on_c, 1, 59, 0
1, 16860, Note_on_c, 1, 67, 66
1, 16896, Note_on_c, 0, 86, 0
1, 16918, Note_on_c, 1, 67, 0
1, 16920, Note_on_c, 0, 81, 68
1, 16920, Note_on_c, 1, 60, 68
1, 16968, Note_on_c, 0, 81, 0
1, 16978, Note_on_c, 1, 60, 0
1, 16980, Note_on_c, 1, 67, 70
1, 17038, Note_on_c, 1, 67, 0
1, 17040, Note_on_c, 0, 81, 72
1, 17040, Note_on_c, 1, 60, 72
1, 17088, Note_on_c, 0, 81, 0
1, 17098, Note_on_c, 1, 60, 0
1, 17100, Note_on_c, 1, 67, 74
1, 17158, Note_on_c, 1, 67, 0
1, 17160, Note_on_c, 0, 81, 76
1, 17160, Note_on_c, 1, 60, 76
1, 17218, Note_on_c, 1, 60, 0
1, 17220, Note_on_c, 1, 67, 78
1, 17278, Note_on_c, 1, 67, 0
1, 17280, Note_on_c, 0, 81, 0
1, 17280, Note_on_c, 0, 79, 80
1, 17280, Note_on_c, 1, 61, 80
1, 17328, Note_on_c, 0, 79, 0
1, 17338, Note_on_c, 1, 61, 0
1, 17340, Note_on_c, 1, 70, 80
1, 17398, Note_on_c, 1, 70, 0
1, 17400, Note_on_c, 0, 79, 80
1, 17400, Note_on_c, 1, 61, 80
1, 17448, Note_on_c, 0, 79, 0
1, 17458, Note_on_c, 1, 61, 0
1, 17460, Note_on_c, 1, 70, 80
1, 17518, Note_on_c, 1, 70, 0
1, 17520, Note_on_c, 0, 79, 80
1, 17520, Note_on_c, 1, 61, 80
1, 17578, Note_on_c, 1, 61, 0
1, 17580, Note_on_c, 1, 70, 80
1, 17638, Note_on_c, 1, 70, 0
1, 17640, Note_on_c, 0, 79, 0
1, 17640, Note_on_c, 0, 78, 80
1, 17640, Note_on_c, 1, 62, 80
1, 17688, Note_on_c, 0, 78, 0
1, 17698, Note_on_c, 1, 62, 0
1, 17700, Note_on_c, 1, 69, 80
1, 17758, Note_on_c, 1, 69, 0
1, 17760, Note_on_c, 0, 78, 80
1, 17760, Note_on_c, 1, 62, 80
1, 17808, Note_on_c, 0, 78, 0
1, 17818, Note_on_c, 1, 62, 0
1, 17820, Note_on_c, 1, 69, 80
1, 17878, Note_on_c, 1, 69, 0
1, 17880, Note_on_c, 0, 78, 80
1, 17880, Note_on_c, 1, 62, 80
1, 17938, Note_on_c, 1, 62, 0
1, 17940, Note_on_c, 1, 69, 80
1, 17998, Note_on_c, 1, 69, 0
1, 18000, Note_on_c, 0, 78, 0
1, 18000, Note_on_c, 0, 73, 80
1, 18000, Note_on_c, 1, 64, 80
1, 18048, Note_on_c, 0, 73, 0
1, 18058, Note_on_c, 1, 64, 0
1, 18060, Note_on_c, 1, 67, 80
1, 18118, Note_on_c, 1, 67, 0
1, 18120, Note_on_c, 0, 73, 80
1, 18120, Note_on_c, 1, 64, 80
1, 18168, Note_on_c, 0, 73, 0
1, 18178, Note_on_c, 1, 64, 0
1, 18180, Note_on_c, 1, 67, 80
1, 18238, Note_on_c, 1, 67, 0
1, 18240, Note_on_c, 0, 73, 80
1, 18240, Note_on_c, 1, 64, 80
1, 18298, Note_on_c, 1, 64, 0
1, 18300, Note_on_c, 1, 67, 80
1, 18358, Note_on_c, 1, 67, 0
1, 18360, Note_on_c, 0, 73, 0
1, 18360, Note_on_c, 0, 74, 80
1, 18360, Note_on_c, 1, 66, 80
1, 18418, Note_on_c, 0, 74, 0
1, 18420, Note_on_c, 0, 69, 80
1, 18478, Note_on_c, 0, 69, 0
1, 18478, Note_on_c, 1, 66, 0
1, 18480, Note_on_c, 0, 71, 80
1, 18538, Note_on_c, 0, 71, 0
1, 18540, Note_on_c, 0, 73, 80
1, 18598, Note_on_c, 0, 73, 0
1, 18600, Note_on_c, 0, 74, 80
1, 18658, Note_on_c, 0, 74, 0
1, 18660, Note_on_c, 0, 76, 80
1, 18718, Note_on_c, 0, 76, 0
1, 18720, Note_on_c, 0, 78, 80
1, 18778, Note_on_c, 0, 78, 0
1, 18780, Note_on_c, 0, 74, 80
1, 18780, Note_on_c, 1, 62, 80
1, 18838, Note_on_c, 0, 74, 0
1, 18838, Note_on_c, 1, 62, 0
1, 18840, Note_on_c, 0, 76, 80
1, 18840, Note_on_c, 1, 64, 80
1, 18898, Note_on_c, 0, 76, 0
1, 18898, Note_on_c, 1, 64, 0
1, 18900, Note_on_c, 0, 78, 80
1, 18900, Note_on_c, 1, 66, 80
1, 18958, Note_on_c, 0, 78, 0
1, 18958, Note_on_c, 1, 66, 0
1, 18960, Note_on_c, 0, 79, 80
1, 18960, Note_on_c, 1, 67, 80
1, 19018, Note_on_c, 0, 79, 0
1, 19018, Note_on_c, 1, 67, 0
1, 19020, Note_on_c, 0, 81, 80
1, 19020, Note_on_c, 1, 69, 80
1, 19078, Note_on_c, 0, 81, 0
1, 19078, Note_on_c, 1, 69, 0
1, 19080, Note_on_c, 0, 83, 80
1, 19080, Note_on_c, 1, 71, 80
1, 19138, Note_on_c, 0, 83, 0
1, 19138, Note_on_c, 1, 71, 0
1, 19140, Note_on_c, 0, 81, 80
1, 19140, Note_on_c, 1, 69, 80
1, 19198, Note_on_c, 0, 81, 0
1, 19198, Note_on_c, 1, 69, 0
1, 19200, Note_on_c, 0, 79, 80
1, 19200, Note_on_c, 1, 67, 80
1, 19258, Note_on_c, 0, 79, 0
1, 19258, Note_on_c, 1, 67, 0
1, 19260, Note_on_c, 0, 81, 80
1, 19260, Note_on_c, 1, 69, 80
1, 19318, Note_on_c, 0, 81, 0
1, 19318, Note_on_c, 1, 69, 0
1, 19320, Note_on_c, 0, 83, 80
1, 19320, Note_on_c, 1, 71, 80
1, 19378, Note_on_c, 0, 83, 0
1, 19378, Note_on_c, 1, 71, 0
1, 19380, Note_on_c, 0, 85, 80
1, 19380, Note_on_c, 1, 73, 80
1, 19438, Note_on_c, 0, 85, 0
1, 19438, Note_on_c, 1, 73, 0
1, 19440, Note_on_c, 0, 86, 80
1, 19440, Note_on_c, 1, 74, 80
1, 19558, Note_on_c, 0, 86, 0
1, 19558, Note_on_c, 1, 74, 0
1, 19560, Note_on_c, 0, 81, 83
1, 19560, Note_on_c, 1, 69, 83
1, 19608, Note_on_c, 0, 81, 0
1, 19608, Note_on_c, 1, 69, 0
1, 19680, Note_on_c, 0, 78, 85
1, 19680, Note_on_c, 1, 66, 85
1, 19728, Note_on_c, 0, 78, 0
1, 19728, Note_on_c, 1, 66, 0
1, 19800, Note_on_c, 0, 74, 88
1, 19800, Note_on_c, 1, 62, 88
1, 19848, Note_on_c, 0, 74, 0
1, 19848, Note_on_c, 1, 62, 0
1, 19920, Note_on_c, 0, 69, 91
1, 19920, Note_on_c, 1, 57, 91
1, 19968, Note_on_c, 0, 69, 0
1, 19968, Note_on_c, 1, 57, 0
1, 20040, Note_on_c, 0, 66, 93
1, 20040, Note_on_c, 1, 54, 93
1, 20088, Note_on_c, 0, 66, 0
1, 20088, Note_on_c, 1, 54, 0
1, 20160, Note_on_c, 0, 62, 96
1, 20160, Note_on_c, 1, 50, 96
1, 20736, Note_on_c, 0, 62, 0
1, 20736, Note_on_c, 1, 50, 0
1, 20880, Note_on_c, 1, 31, 48
1, 20880, Note_on_c, 1, 43, 48
1, 21000, Note_on_c, 0, 71, 48
1, 21000, Note_on_c, 0, 74, 48
1, 21120, Note_on_c, 0, 74, 0
1, 21120, Note_on_c, 0, 71, 0
1, 21120, Note_on_c, 0, 69, 48
1, 21120, Note_on_c, 0, 72, 48
1, 21120, Note_on_c, 1, 43, 0
1, 21120, Note_on_c, 1, 31, 0
1, 21240, Note_on_c, 0, 72, 0
1, 21240, Note_on_c, 0, 69, 0
1, 21240, Note_on_c, 0, 67, 48
1, 21240, Note_on_c, 0, 71, 48
1, 21288, Note_on_c, 0, 71, 0
1, 21288, Note_on_c, 0, 67, 0
1, 21360, Note_on_c, 0, 74, 48
1, 21360, Note_on_c, 0, 83, 48
1, 21408, Note_on_c, 0, 83, 0
1, 21408, Note_on_c, 0, 74, 0
1, 21480, Note_on_c, 0, 71, 48
1, 21480, Note_on_c, 0, 79, 48
1, 21480, Note_on_c, 1, 59, 48
1, 21480, Note_on_c, 1, 55, 48
1, 21528, Note_on_c, 0, 79, 0
1, 21528, Note_on_c, 0, 71, 0
1, 21528, Note_on_c, 1, 55, 0
1, 21528, Note_on_c, 1, 59, 0
1, 21600, Note_on_c, 0, 69, 48
1, 21600, Note_on_c, 0, 78, 48
1, 21600, Note_on_c, 1, 57, 48
1, 21600, Note_on_c, 1, 60, 48
1, 21720, Note_on_c, 0, 78, 0
1, 21720, Note_on_c, 0, 69, 0
1, 21720, Note_on_c, 0, 81, 48
1, 21720, Note_on_c, 0, 84, 48
1, 21840, Note_on_c, 0, 84, 0
1, 21840, Note_on_c, 0, 81, 0
1, 21840, Note_on_c, 0, 79, 48
1, 21840, Note_on_c, 0, 83, 48
1, 21840, Note_on_c, 1, 60, 0
1, 21840, Note_on_c, 1, 57, 0
1, 21960, Note_on_c, 0, 83, 0
1, 21960, Note_on_c, 0, 79, 0
1, 21960, Note_on_c, 0, 78, 48
1, 21960, Note_on_c, 0, 81, 48
1, 22008, Note_on_c, 0, 81, 0
1, 22008, Note_on_c, 0, 78, 0
1, 22080, Note_on_c, 0, 84, 48
1, 22080, Note_on_c, 0, 88, 48
1, 22080, Note_on_c, 1, 66, 48
1, 22080, Note_on_c, 1, 62, 48
1, 22128, Note_on_c, 0, 88, 0
1, 22128, Note_on_c, 0, 84, 0
1, 22128, Note_on_c, 1, 62, 0
1, 22128, Note_on_c, 1, 66, 0
1, 22200, Note_on_c, 0, 81, 48
1, 22200, Note_on_c, 0, 84, 48
1, 22200, Note_on_c, 1, 69, 48
1, 22200, Note_on_c, 1, 66, 48
1, 22248, Note_on_c, 0, 84, 0
1, 22248, Note_on_c, 0, 81, 0
1, 22248, Note_on_c, 1, 66, 0
1, 22248, Note_on_c, 1, 69, 0
1, 22320, Note_on_c, 0, 83, 48
1, 22320, Note_on_c, 0, 79, 48
1, 22320, Note_on_c, 1, 67, 48
1, 22320, Note_on_c, 1, 71, 48
1, 22440, Note_on_c, 0, 83, 0
1, 22440, Note_on_c, 0, 86, 48
1, 22560, Note_on_c, 0, 79, 0
1, 22560, Note_on_c, 0, 74, 48
1, 22560, Note_on_c, 1, 71, 0
1, 22560, Note_on_c, 1, 67, 0
1, 22560, Note_on_c, 1, 71, 48
1, 22680, Note_on_c, 0, 74, 0
1, 22680, Note_on_c, 0, 76, 48
1, 22680, Note_on_c, 1, 71, 0
1, 22680, Note_on_c, 1, 72, 48
1, 22800, Note_on_c, 0, 76, 0
1, 22800, Note_on_c, 0, 80, 48
1, 22800, Note_on_c, 1, 72, 0
1, 22800, Note_on_c, 1, 71, 48
1, 22920, Note_on_c, 0, 80, 0
1, 22920, Note_on_c, 0, 86, 0
1, 22920, Note_on_c, 0, 84, 48
1, 22920, Note_on_c, 0, 81, 48
1, 22920, Note_on_c, 1, 71, 0
1, 22920, Note_on_c, 1, 69, 48
1, 23040, Note_on_c, 0, 81, 0
1, 23040, Note_on_c, 0, 75, 48
1, 23040, Note_on_c, 1, 69, 0
1, 23040, Note_on_c, 1, 67, 48
1, 23160, Note_on_c, 0, 75, 0
1, 23160, Note_on_c, 0, 74, 48
1, 23160, Note_on_c, 1, 67, 0
1, 23160, Note_on_c, 1, 66, 48
1, 23280, Note_on_c, 0, 84, 0
1, 23280, Note_on_c, 0, 83, 48
1, 23280, Note_on_c, 1, 66, 0
1, 23280, Note_on_c, 1, 67, 48
1, 23400, Note_on_c, 0, 83, 0
1, 23400, Note_on_c, 0, 74, 0
1, 23400, Note_on_c, 0, 76, 48
1, 23400, Note_on_c, 0, 81, 48
1, 23400, Note_on_c, 1, 67, 0
1, 23400, Note_on_c, 1, 72, 48
1, 23448, Note_on_c, 0, 81, 0
1, 23448, Note_on_c, 0, 76, 0
1, 23448, Note_on_c, 1, 72, 0
1, 23520, Note_on_c, 0, 74, 48
1, 23520, Note_on_c, 0, 83, 48
1, 23520, Note_on_c, 1, 71, 48
1, 23568, Note_on_c, 0, 83, 0
1, 23568, Note_on_c, 0, 74, 0
1, 23568, Note_on_c, 1, 71, 0
1, 23640, Note_on_c, 0, 72, 48
1, 23640, Note_on_c, 0, 84, 48
1, 23640, Note_on_c, 1, 69, 48
1, 23688, Note_on_c, 0, 84, 0
1, 23688, Note_on_c, 0, 72, 0
1, 23688, Note_on_c, 1, 69, 0
1, 23760, Note_on_c, 0, 79, 48
1, 23760, Note_on_c, 0, 74, 48
1, 23760, Note_on_c, 1, 62, 48
1, 23760, Note_on_c, 1, 71, 48
1, 24120, Note_on_c, 0, 74, 0
1, 24120, Note_on_c, 0, 79, 0
1, 24120, Note_on_c, 0, 72, 48
1, 24120, Note_on_c, 1, 71, 0
1, 24120, Note_on_c, 1, 62, 0
1, 24120, Note_on_c, 1, 69, 48
1, 24240, Note_on_c, 0, 72, 0
1, 24240, Note_on_c, 0, 81, 48
1, 24360, Note_on_c, 0, 81, 0
1, 24360, Note_on_c, 0, 78, 48
1, 24480, Note_on_c, 0, 78, 0
1, 24480, Note_on_c, 0, 71, 48
1, 24480, Note_on_c, 0, 79, 48
1, 24480, Note_on_c, 1, 69, 0
1, 24480, Note_on_c, 1, 67, 48
1, 24600, Note_on_c, 0, 79, 0
1, 24600, Note_on_c, 0, 71, 0
1, 24600, Note_on_c, 1, 67, 0
1, 25200, Note_on_c, 1, 31, 80
1, 25200, Note_on_c, 1, 43, 80
1, 25320, Note_on_c, 0, 71, 80
1, 25320, Note_on_c, 0, 74, 80
1, 25438, Note_on_c, 1, 43, 0
1, 25438, Note_on_c, 1, 31, 0
1, 25440, Note_on_c, 0, 74, 0
1, 25440, Note_on_c, 0, 71, 0
1, 25440, Note_on_c, 0, 69, 80
1, 25440, Note_on_c, 0, 72, 80
1, 25560, Note_on_c, 0, 72, 0
1, 25560, Note_on_c, 0, 69, 0
1, 25560, Note_on_c, 0, 67, 80
1, 25560, Note_on_c, 0, 71, 80
1, 25608, Note_on_c, 0, 71, 0
1, 25608, Note_on_c, 0, 67, 0
1, 25680, Note_on_c, 0, 74, 80
1, 25680, Note_on_c, 0, 83, 80
1, 25728, Note_on_c, 0, 83, 0
1, 25728, Note_on_c, 0, 74, 0
1, 25800, Note_on_c, 0, 71, 80
1, 25800, Note_on_c, 0, 79, 80
1, 25800, Note_on_c, 1, 55, 80
1, 25800, Note_on_c, 1, 59, 80
1, 25848, Note_on_c, 0, 79, 0
1, 25848, Note_on_c, 0, 71, 0
1, 25848, Note_on_c, 1, 59, 0
1, 25848, Note_on_c, 1, 55, 0
1, 25920, Note_on_c, 0, 69, 80
1, 25920, Note_on_c, 0, 78, 80
1, 25920, Note_on_c, 1, 57, 80
1, 25920, Note_on_c, 1, 60, 80
1, 26040, Note_on_c, 0, 78, 0
1, 26040, Note_on_c, 0, 69, 0
1, 26040, Note_on_c, 0, 81, 80
1, 26040, Note_on_c, 0, 84, 80
1, 26158, Note_on_c, 1, 60, 0
1, 26158, Note_on_c, 1, 57, 0
1, 26160, Note_on_c, 0, 84, 0
1, 26160, Note_on_c, 0, 81, 0
1, 26160, Note_on_c, 0, 79, 80
1, 26160, Note_on_c, 0, 83, 80
1, 26280, Note_on_c, 0, 83, 0
1, 26280, Note_on_c, 0, 79, 0
1, 26280, Note_on_c, 0, 78, 80
1, 26280, Note_on_c, 0, 81, 80
1, 26328, Note_on_c, 0, 81, 0
1, 26328, Note_on_c, 0, 78, 0
1, 26400, Note_on_c, 0, 84, 80
1, 26400, Note_on_c, 0, 88, 80
1, 26400, Note_on_c, 1, 62, 80
1, 26400, Note_on_c, 1, 66, 80
1, 26448, Note_on_c, 0, 88, 0
1, 26448, Note_on_c, 0, 84, 0
1, 26448, Note_on_c, 1, 66, 0
1, 26448, Note_on_c, 1, 62, 0
1, 26520, Note_on_c, 0, 81, 80
1, 26520, Note_on_c, 0, 84, 80
1, 26520, Note_on_c, 1, 66, 80
1, 26520, Note_on_c, 1, 69, 80
1, 26568, Note_on_c, 0, 84, 0
1, 26568, Note_on_c, 0, 81, 0
1, 26568, Note_on_c, 1, 69, 0
1, 26568, Note_on_c, 1, 66, 0
1, 26640, Note_on_c, 0, 79, 80
1, 26640, Note_on_c, 0, 83, 80
1, 26640, Note_on_c, 1, 67, 80
1, 26640, Note_on_c, 1, 71, 80
1, 26760, Note_on_c, 0, 83, 0
1, 26760, Note_on_c, 0, 79, 0
1, 26760, Note_on_c, 0, 86, 80
1, 26880, Note_on_c, 0, 86, 0
1, 26880, Note_on_c, 0, 74, 80
1, 26880, Note_on_c, 1, 71, 0
1, 26880, Note_on_c, 1, 67, 0
1, 26880, Note_on_c, 1, 71, 80
1, 27000, Note_on_c, 0, 74, 0
1, 27000, Note_on_c, 0, 76, 80
1, 27000, Note_on_c, 1, 71, 0
1, 27000, Note_on_c, 1, 72, 80
1, 27120, Note_on_c, 0, 76, 0
1, 27120, Note_on_c, 0, 80, 80
1, 27120, Note_on_c, 1, 72, 0
1, 27120, Note_on_c, 1, 71, 80
1, 27240, Note_on_c, 0, 80, 0
1, 27240, Note_on_c, 0, 84, 80
1, 27240, Note_on_c, 0, 81, 80
1, 27240, Note_on_c, 1, 71, 0
1, 27240, Note_on_c, 1, 69, 80
1, 27360, Note_on_c, 0, 81, 0
1, 27360, Note_on_c, 0, 75, 80
1, 27360, Note_on_c, 1, 69, 0
1, 27360, Note_on_c, 1, 67, 80
1, 27480, Note_on_c, 0, 75, 0
1, 27480, Note_on_c, 0, 84, 0
1, 27480, Note_on_c, 0, 74, 80
1, 27480, Note_on_c, 1, 67, 0
1, 27480, Note_on_c, 1, 66, 80
1, 27600, Note_on_c, 0, 74, 0
1, 27600, Note_on_c, 0, 83, 80
1, 27600, Note_on_c, 1, 66, 0
1, 27600, Note_on_c, 1, 67, 80
1, 27720, Note_on_c, 0, 83, 0
1, 27720, Note_on_c, 0, 72, 80
1, 27720, Note_on_c, 1, 67, 0
1, 27720, Note_on_c, 1, 64, 80
1, 27840, Note_on_c, 0, 81, 80
1, 27840, Note_on_c, 1, 64, 0
1, 27840, Note_on_c, 1, 66, 80
1, 27960, Note_on_c, 0, 72, 0
1, 27960, Note_on_c, 0, 71, 80
1, 27960, Note_on_c, 1, 66, 0
1, 27960, Note_on_c, 1, 63, 80
1, 28080, Note_on_c, 0, 81, 0
1, 28080, Note_on_c, 0, 79, 85
1, 28080, Note_on_c, 1, 63, 0
1, 28080, Note_on_c, 1, 64, 85
1, 28200, Note_on_c, 0, 79, 0
1, 28200, Note_on_c, 0, 71, 0
1, 28200, Note_on_c, 0, 69, 85
1, 28200, Note_on_c, 0, 79, 85
1, 28200, Note_on_c, 1, 64, 0
1, 28200, Note_on_c, 1, 60, 85
1, 28320, Note_on_c, 0, 79, 0
1, 28320, Note_on_c, 0, 69, 0
1, 28320, Note_on_c, 0, 70, 85
1, 28320, Note_on_c, 0, 79, 85
1, 28320, Note_on_c, 1, 60, 0
1, 28320, Note_on_c, 1, 61, 85
1, 28440, Note_on_c, 0, 79, 0
1, 28440, Note_on_c, 0, 70, 0
1, 28440, Note_on_c, 0, 71, 85
1, 28440, Note_on_c, 0, 79, 85
1, 28440, Note_on_c, 1, 61, 0
1, 28440, Note_on_c, 1, 62, 85
1, 28488, Note_on_c, 0, 79, 0
1, 28488, Note_on_c, 0, 71, 0
1, 28488, Note_on_c, 1, 62, 0
1, 28560, Note_on_c, 0, 72, 85
1, 28560, Note_on_c, 0, 79, 85
1, 28560, Note_on_c, 1, 63, 85
1, 28608, Note_on_c, 0, 79, 0
1, 28608, Note_on_c, 0, 72, 0
1, 28608, Note_on_c, 1, 63, 0
1, 28680, Note_on_c, 0, 73, 85
1, 28680, Note_on_c, 0, 79, 85
1, 28680, Note_on_c, 1, 64, 85
1, 28728, Note_on_c, 0, 79, 0
1, 28728, Note_on_c, 0, 73, 0
1, 28728, Note_on_c, 1, 64, 0
1, 28800, Note_on_c, 0, 79, 85
1, 28800, Note_on_c, 0, 74, 85
1, 28800, Note_on_c, 1, 62, 85
1, 28800, Note_on_c, 1, 71, 85
1, 29160, Note_on_c, 0, 74, 0
1, 29160, Note_on_c, 0, 79, 0
1, 29160, Note_on_c, 0, 72, 85
1, 29160, Note_on_c, 1, 71, 0
1, 29160, Note_on_c, 1, 62, 0
1, 29160, Note_on_c, 1, 69, 85
1, 29280, Note_on_c, 0, 81, 85
1, 29398, Note_on_c, 0, 81, 0
1, 29400, Note_on_c, 0, 78, 85
1, 29518, Note_on_c, 0, 78, 0
1, 29518, Note_on_c, 0, 72, 0
1, 29518, Note_on_c, 1, 69, 0
1, 29520, Note_on_c, 0, 79, 85
1, 29520, Note_on_c, 1, 55, 85
1, 29520, Note_on_c, 1, 67, 85
1, 29578, Note_on_c, 0, 79, 0
1, 29580, Note_on_c, 0, 74, 85
1, 29638, Note_on_c, 0, 74, 0
1, 29640, Note_on_c, 0, 71, 85
1, 29698, Note_on_c, 0, 71, 0
1, 29700, Note_on_c, 0, 74, 85
1, 29712, Note_on_c, 1, 67, 0
1, 29712, Note_on_c, 1, 55, 0
1, 29758, Note_on_c, 0, 74, 0
1, 29760, Note_on_c, 0, 72, 85
1, 29760, Note_on_c, 1, 62, 85
1, 29760, Note_on_c, 1, 66, 85
1, 29808, Note_on_c, 1, 66, 0
1, 29808, Note_on_c, 1, 62, 0
1, 29818, Note_on_c, 0, 72, 0
1, 29820, Note_on_c, 0, 74, 85
1, 29878, Note_on_c, 0, 74, 0
1, 29880, Note_on_c, 0, 71, 85
1, 29880, Note_on_c, 1, 55, 85
1, 29880, Note_on_c, 1, 67, 85
1, 29938, Note_on_c, 0, 71, 0
1, 29940, Note_on_c, 0, 74, 85
1, 29998, Note_on_c, 0, 74, 0
1, 30000, Note_on_c, 0, 79, 85
1, 30058, Note_on_c, 0, 79, 0
1, 30060, Note_on_c, 0, 74, 85
1, 30072, Note_on_c, 1, 67, 0
1, 30072, Note_on_c, 1, 55, 0
1, 30118, Note_on_c, 0, 74, 0
1, 30120, Note_on_c, 0, 81, 85
1, 30120, Note_on_c, 1, 62, 85
1, 30120, Note_on_c, 1, 66, 85
1, 30168, Note_on_c, 1, 66, 0
1, 30168, Note_on_c, 1, 62, 0
1, 30178, Note_on_c, 0, 81, 0
1, 30180, Note_on_c, 0, 74, 85
1, 30238, Note_on_c, 0, 74, 0
1, 30240, Note_on_c, 0, 83, 85
1, 30240, Note_on_c, 1, 55, 85
1, 30240, Note_on_c, 1, 67, 85
1, 30298, Note_on_c, 0, 83, 0
1, 30300, Note_on_c, 0, 74, 85
1, 30358, Note_on_c, 0, 74, 0
1, 30360, Note_on_c, 0, 71, 85
1, 30418, Note_on_c, 0, 71, 0
1, 30420, Note_on_c, 0, 74, 85
1, 30432, Note_on_c, 1, 67, 0
1, 30432, Note_on_c, 1, 55, 0
1, 30478, Note_on_c, 0, 74, 0
1, 30480, Note_on_c, 0, 72, 85
1, 30480, Note_on_c, 1, 62, 85
1, 30480, Note_on_c, 1, 66, 85
1, 30528, Note_on_c, 1, 66, 0
1, 30528, Note_on_c, 1, 62, 0
1, 30538, Note_on_c, 0, 72, 0
1, 30540, Note_on_c, 0, 74, 85
1, 30598, Note_on_c, 0, 74, 0
1, 30600, Note_on_c, 0, 71, 85
1, 30600, Note_on_c, 1, 55, 85
1, 30600, Note_on_c, 1, 67, 85
1, 30658, Note_on_c, 0, 71, 0
1, 30660, Note_on_c, 0, 74, 85
1, 30718, Note_on_c, 0, 74, 0
1, 30720, Note_on_c, 0, 79, 85
1, 30778, Note_on_c, 0, 79, 0
1, 30780, Note_on_c, 0, 74, 85
1, 30792, Note_on_c, 1, 67, 0
1, 30792, Note_on_c, 1, 55, 0
1, 30838, Note_on_c, 0, 74, 0
1, 30840, Note_on_c, 0, 81, 85
1, 30840, Note_on_c, 1, 62, 85
1, 30840, Note_on_c, 1, 66, 85
1, 30888, Note_on_c, 1, 66, 0
1, 30888, Note_on_c, 1, 62, 0
1, 30898, Note_on_c, 0, 81, 0
1, 30900, Note_on_c, 0, 74, 85
1, 30958, Note_on_c, 0, 74, 0
1, 30960, Note_on_c, 0, 83, 80
1, 30960, Note_on_c, 1, 55, 80
1, 30960, Note_on_c, 1, 67, 80
1, 31018, Note_on_c, 0, 83, 0
1, 31020, Note_on_c, 0, 74, 77
1, 31078, Note_on_c, 0, 74, 0
1, 31080, Note_on_c, 0, 71, 75
1, 31138, Note_on_c, 0, 71, 0
1, 31140, Note_on_c, 0, 74, 72
1, 31152, Note_on_c, 1, 67, 0
1, 31152, Note_on_c, 1, 55, 0
1, 31198, Note_on_c, 0, 74, 0
1, 31200, Note_on_c, 0, 72, 69
1, 31200, Note_on_c, 1, 62, 69
1, 31200, Note_on_c, 1, 66, 69
1, 31248, Note_on_c, 1, 66, 0
1, 31248, Note_on_c, 1, 62, 0
1, 31258, Note_on_c, 0, 72, 0
1, 31260, Note_on_c, 0, 74, 67
1, 31318, Note_on_c, 0, 74, 0
1, 31320, Note_on_c, 0, 71, 64
1, 31320, Note_on_c, 1, 55, 64
1, 31320, Note_on_c, 1, 67, 64
1, 31378, Note_on_c, 0, 71, 0
1, 31380, Note_on_c, 0, 74, 61
1, 31438, Note_on_c, 0, 74, 0
1, 31440, Note_on_c, 0, 79, 59
1, 31498, Note_on_c, 0, 79, 0
1, 31500, Note_on_c, 0, 74, 56
1, 31512, Note_on_c, 1, 67, 0
1, 31512, Note_on_c, 1, 55, 0
1, 31558, Note_on_c, 0, 74, 0
1, 31560, Note_on_c, 0, 81, 53
1, 31560, Note_on_c, 1, 62, 53
1, 31560, Note_on_c, 1, 66, 53
1, 31608, Note_on_c, 1, 66, 0
1, 31608, Note_on_c, 1, 62, 0
1, 31618, Note_on_c, 0, 81, 0
1, 31620, Note_on_c, 0, 74, 51
1, 31678, Note_on_c, 0, 74, 0
1, 31680, Note_on_c, 0, 83, 48
1, 31680, Note_on_c, 1, 55, 48
1, 31680, Note_on_c, 1, 67, 48
1, 31788, Note_on_c, 0, 83, 0
1, 31800, Note_on_c, 0, 79, 48
1, 31800, Note_on_c, 0, 83, 48
1, 31848, Note_on_c, 0, 83, 0
1, 31848, Note_on_c, 0, 79, 0
1, 31918, Note_on_c, 1, 67, 0
1, 31918, Note_on_c, 1, 55, 0
1, 31920, Note_on_c, 0, 83, 48
1, 31920, Note_on_c, 0, 86, 48
1, 31968, Note_on_c, 0, 86, 0
1, 31968, Note_on_c, 0, 83, 0
1, 32040, Note_on_c, 0, 79, 48
1, 32040, Note_on_c, 0, 83, 48
1, 32112, Note_on_c, 0, 83, 0
1, 32112, Note_on_c, 0, 79, 0
1, 32400, Note_on_c, 1, 40, 64
1, 32518, Note_on_c, 1, 40, 0
1, 32520, Note_on_c, 1, 44, 64
1, 32568, Note_on_c, 1, 44, 0
1, 32640, Note_on_c, 1, 47, 64
1, 32688, Note_on_c, 1, 47, 0
1, 32760, Note_on_c, 1, 52, 64
1, 32868, Note_on_c, 1, 52, 0
1, 32880, Note_on_c, 0, 56, 64
1, 32880, Note_on_c, 0, 64, 64
1, 33000, Note_on_c, 0, 64, 0
1, 33000, Note_on_c, 0, 56, 0
1, 33000, Note_on_c, 0, 59, 64
1, 33000, Note_on_c, 0, 62, 64
1, 33120, Note_on_c, 0, 62, 0
1, 33120, Note_on_c, 0, 59, 0
1, 33120, Note_on_c, 0, 57, 64
1, 33120, Note_on_c, 0, 60, 64
1, 33120, Note_on_c, 1, 40, 64
1, 33238, Note_on_c, 1, 40, 0
1, 33240, Note_on_c, 0, 60, 0
1, 33240, Note_on_c, 0, 57, 0
1, 33240, Note_on_c, 1, 45, 64
1, 33288, Note_on_c, 1, 45, 0
1, 33360, Note_on_c, 1, 48, 64
1, 33408, Note_on_c, 1, 48, 0
1, 33480, Note_on_c, 1, 52, 64
1, 33588, Note_on_c, 1, 52, 0
1, 33600, Note_on_c, 0, 64, 64
1, 33600, Note_on_c, 0, 72, 64
1, 33720, Note_on_c, 0, 72, 0
1, 33720, Note_on_c, 0, 64, 0
1, 33720, Note_on_c, 0, 60, 64
1, 33720, Note_on_c, 0, 69, 64
1, 33840, Note_on_c, 0, 69, 0
1, 33840, Note_on_c, 0, 60, 0
1, 33840, Note_on_c, 0, 59, 64
1, 33840, Note_on_c, 0, 68, 64
1, 33840, Note_on_c, 1, 40, 64
1, 33958, Note_on_c, 1, 40, 0
1, 33960, Note_on_c, 0, 68, 0
1, 33960, Note_on_c, 0, 59, 0
1, 33960, Note_on_c, 1, 44, 64
1, 34008, Note_on_c, 1, 44, 0
1, 34080, Note_on_c, 1, 47, 64
1, 34128, Note_on_c, 1, 47, 0
1, 34200, Note_on_c, 1, 52, 64
1, 34318, Note_on_c, 1, 52, 0
1, 34320, Note_on_c, 0, 68, 64
1, 34320, Note_on_c, 0, 76, 64
1, 34440, Note_on_c, 0, 76, 0
1, 34440, Note_on_c, 0, 68, 0
1, 34440, Note_on_c, 0, 71, 64
1, 34440, Note_on_c, 0, 74, 64
1, 34560, Note_on_c, 0, 74, 0
1, 34560, Note_on_c, 0, 71, 0
1, 34560, Note_on_c, 0, 69, 64
1, 34560, Note_on_c, 0, 72, 64
1, 34560, Note_on_c, 1, 40, 64
1, 34678, Note_on_c, 1, 40, 0
1, 34680, Note_on_c, 0, 72, 0
1, 34680, Note_on_c, 0, 69, 0
1, 34680, Note_on_c, 1, 45, 64
1, 34728, Note_on_c, 1, 45, 0
1, 34800, Note_on_c, 1, 48, 64
1, 34848, Note_on_c, 1, 48, 0
1, 34920, Note_on_c, 1, 52, 64
1, 35038, Note_on_c, 1, 52, 0
1, 35040, Note_on_c, 0, 72, 64
1, 35040, Note_on_c, 0, 81, 64
1, 35160, Note_on_c, 0, 81, 0
1, 35160, Note_on_c, 0, 72, 0
1, 35160, Note_on_c, 0, 69, 64
1, 35160, Note_on_c, 0, 75, 64
1, 35280, Note_on_c, 0, 75, 0
1, 35280, Note_on_c, 0, 69, 0
1, 35280, Note_on_c, 0, 68, 64
1, 35280, Note_on_c, 0, 76, 64
1, 35280, Note_on_c, 1, 40, 64
1, 35398, Note_on_c, 1, 40, 0
1, 35400, Note_on_c, 0, 76, 0
1, 35400, Note_on_c, 0, 68, 0
1, 35400, Note_on_c, 1, 44, 64
1, 35448, Note_on_c, 1, 44, 0
1, 35520, Note_on_c, 1, 47, 64
1, 35568, Note_on_c, 1, 47, 0
1, 35640, Note_on_c, 1, 52, 64
1, 35928, Note_on_c, 1, 52, 0
1, 36720, Note_on_c, 1, 36, 85
1, 36720, Note_on_c, 1, 48, 85
1, 36838, Note_on_c, 1, 48, 0
1, 36838, Note_on_c, 1, 36, 0
1, 36840, Note_on_c, 1, 40, 85
1, 36840, Note_on_c, 1, 52, 85
1, 36888, Note_on_c, 1, 52, 0
1, 36888, Note_on_c, 1, 40, 0
1, 36960, Note_on_c, 1, 43, 85
1, 36960, Note_on_c, 1, 55, 85
1, 37008, Note_on_c, 1, 55, 0
1, 37008, Note_on_c, 1, 43, 0
1, 37080, Note_on_c, 1, 48, 85
1, 37080, Note_on_c, 1, 60, 85
1, 37140, Note_on_c, 0, 67, 85
1, 37198, Note_on_c, 0, 67, 0
1, 37200, Note_on_c, 0, 79, 85
1, 37258, Note_on_c, 0, 79, 0
1, 37260, Note_on_c, 0, 76, 85
1, 37318, Note_on_c, 0, 76, 0
1, 37318, Note_on_c, 1, 60, 0
1, 37318, Note_on_c, 1, 48, 0
1, 37320, Note_on_c, 0, 74, 85
1, 37378, Note_on_c, 0, 74, 0
1, 37380, Note_on_c, 0, 72, 85
1, 37438, Note_on_c, 0, 72, 0
1, 37440, Note_on_c, 0, 71, 85
1, 37440, Note_on_c, 1, 38, 85
1, 37440, Note_on_c, 1, 50, 85
1, 37558, Note_on_c, 0, 71, 0
1, 37558, Note_on_c, 1, 50, 0
1, 37558, Note_on_c, 1, 38, 0
1, 37560, Note_on_c, 1, 41, 85
1, 37560, Note_on_c, 1, 53, 85
1, 37608, Note_on_c, 1, 53, 0
1, 37608, Note_on_c, 1, 41, 0
1, 37680, Note_on_c, 1, 43, 85
1, 37680, Note_on_c, 1, 55, 85
1, 37728, Note_on_c, 1, 55, 0
1, 37728, Note_on_c, 1, 43, 0
1, 37800, Note_on_c, 1, 47, 85
1, 37800, Note_on_c, 1, 59, 85
1, 37860, Note_on_c, 0, 67, 85
1, 37918, Note_on_c, 0, 67, 0
1, 37920, Note_on_c, 0, 79, 85
1, 37978, Note_on_c, 0, 79, 0
1, 37980, Note_on_c, 0, 77, 85
1, 38038, Note_on_c, 0, 77, 0
1, 38038, Note_on_c, 1, 59, 0
1, 38038, Note_on_c, 1, 47, 0
1, 38040, Note_on_c, 0, 76, 85
1, 38098, Note_on_c, 0, 76, 0
1, 38100, Note_on_c, 0, 74, 85
1, 38158, Note_on_c, 0, 74, 0
1, 38160, Note_on_c, 0, 76, 48
1, 38160, Note_on_c, 1, 48, 48
1, 38280, Note_on_c, 1, 52, 48
1, 38398, Note_on_c, 0, 76, 0
1, 38400, Note_on_c, 1, 55, 48
1, 38520, Note_on_c, 1, 60, 48
1, 38580, Note_on_c, 0, 67, 48
1, 38638, Note_on_c, 0, 67, 0
1, 38640, Note_on_c, 0, 79, 48
1, 38698, Note_on_c, 0, 79, 0
1, 38700, Note_on_c, 0, 76, 48
1, 38758, Note_on_c, 0, 76, 0
1, 38760, Note_on_c, 0, 74, 48
1, 38808, Note_on_c, 1, 60, 0
1, 38808, Note_on_c, 1, 48, 0
1, 38808, Note_on_c, 1, 52, 0
1, 38808, Note_on_c, 1, 55, 0
1, 38818, Note_on_c, 0, 74, 0
1, 38820, Note_on_c, 0, 72, 48
1, 38878, Note_on_c, 0, 72, 0
1, 38880, Note_on_c, 0, 72, 48
1, 38880, Note_on_c, 1, 50, 48
1, 39000, Note_on_c, 1, 53, 48
1, 39118, Note_on_c, 0, 72, 0
1, 39120, Note_on_c, 0, 71, 48
1, 39120, Note_on_c, 1, 55, 48
1, 39238, Note_on_c, 0, 71, 0
1, 39240, Note_on_c, 1, 59, 48
1, 39300, Note_on_c, 0, 67, 48
1, 39358, Note_on_c, 0, 67, 0
1, 39360, Note_on_c, 0, 79, 48
1, 39418, Note_on_c, 0, 79, 0
1, 39420, Note_on_c, 0, 77, 48
1, 39478, Note_on_c, 0, 77, 0
1, 39480, Note_on_c, 0, 76, 48
1, 39528, Note_on_c, 1, 59, 0
1, 39528, Note_on_c, 1, 50, 0
1, 39528, Note_on_c, 1, 53, 0
1, 39528, Note_on_c, 1, 55, 0
1, 39538, Note_on_c, 0, 76, 0
1, 39540, Note_on_c, 0, 74, 48
1, 39598, Note_on_c, 0, 74, 0
1, 39600, Note_on_c, 0, 74, 48
1, 39600, Note_on_c, 1, 52, 48
1, 39720, Note_on_c, 1, 55, 48
1, 39838, Note_on_c, 0, 74, 0
1, 39840, Note_on_c, 0, 73, 48
1, 39840, Note_on_c, 1, 58, 48
1, 39958, Note_on_c, 0, 73, 0
1, 39960, Note_on_c, 1, 61, 48
1, 40020, Note_on_c, 0, 82, 48
1, 40078, Note_on_c, 0, 82, 0
1, 40080, Note_on_c, 0, 81, 48
1, 40138, Note_on_c, 0, 81, 0
1, 40140, Note_on_c, 0, 79, 48
1, 40198, Note_on_c, 0, 79, 0
1, 40200, Note_on_c, 0, 77, 48
1, 40248, Note_on_c, 1, 61, 0
1, 40248, Note_on_c, 1, 52, 0
1, 40248, Note_on_c, 1, 55, 0
1, 40248, Note_on_c, 1, 58, 0
1, 40258, Note_on_c, 0, 77, 0
1, 40260, Note_on_c, 0, 76, 48
1, 40318, Note_on_c, 0, 76, 0
1, 40320, Note_on_c, 0, 76, 48
1, 40320, Note_on_c, 1, 53, 48
1, 40440, Note_on_c, 1, 57, 48
1, 40558, Note_on_c, 0, 76, 0
1, 40560, Note_on_c, 0, 74, 48
1, 40560, Note_on_c, 1, 61, 48
1, 40656, Note_on_c, 1, 61, 0
1, 40678, Note_on_c, 0, 74, 0
1, 40680, Note_on_c, 1, 62, 48
1, 40740, Note_on_c, 0, 69, 48
1, 40798, Note_on_c, 0, 69, 0
1, 40800, Note_on_c, 0, 81, 48
1, 40858, Note_on_c, 0, 81, 0
1, 40860, Note_on_c, 0, 77, 48
1, 40918, Note_on_c, 0, 77, 0
1, 40920, Note_on_c, 0, 76, 48
1, 40968, Note_on_c, 1, 62, 0
1, 40968, Note_on_c, 1, 57, 0
1, 40968, Note_on_c, 1, 53, 0
1, 40978, Note_on_c, 0, 76, 0
1, 40980, Note_on_c, 0, 74, 48
1, 41038, Note_on_c, 0, 74, 0
1, 41040, Note_on_c, 0, 74, 48
1, 41040, Note_on_c, 1, 52, 48
1, 41160, Note_on_c, 1, 55, 48
1, 41278, Note_on_c, 0, 74, 0
1, 41280, Note_on_c, 0, 73, 48
1, 41280, Note_on_c, 1, 58, 48
1, 41398, Note_on_c, 0, 73, 0
1, 41400, Note_on_c, 1, 61, 48
1, 41460, Note_on_c, 0, 82, 48
1, 41518, Note_on_c, 0, 82, 0
1, 41520, Note_on_c, 0, 81, 48
1, 41578, Note_on_c, 0, 81, 0
1, 41580, Note_on_c, 0, 79, 48
1, 41638, Note_on_c, 0, 79, 0
1, 41640, Note_on_c, 0, 77, 48
1, 41688, Note_on_c, 1, 61, 0
1, 41688, Note_on_c, 1, 52, 0
1, 41688, Note_on_c, 1, 55, 0
1, 41688, Note_on_c, 1, 58, 0
1, 41698, Note_on_c, 0, 77, 0
1, 41700, Note_on_c, 0, 76, 48
1, 41758, Note_on_c, 0, 76, 0
1, 41760, Note_on_c, 0, 76, 48
1, 41760, Note_on_c, 1, 54, 48
1, 41880, Note_on_c, 1, 57, 48
1, 41998, Note_on_c, 0, 76, 0
1, 42000, Note_on_c, 0, 75, 48
1, 42000, Note_on_c, 1, 60, 48
1, 42118, Note_on_c, 0, 75, 0
1, 42120, Note_on_c, 1, 63, 48
1, 42180, Note_on_c, 0, 84, 48
1, 42238, Note_on_c, 0, 84, 0
1, 42240, Note_on_c, 0, 83, 48
1, 42298, Note_on_c, 0, 83, 0
1, 42300, Note_on_c, 0, 81, 48
1, 42358, Note_on_c, 0, 81, 0
1, 42360, Note_on_c, 0, 79, 48
1, 42408, Note_on_c, 1, 63, 0
1, 42408, Note_on_c, 1, 54, 0
1, 42408, Note_on_c, 1, 57, 0
1, 42408, Note_on_c, 1, 60, 0
1, 42418, Note_on_c, 0, 79, 0
1, 42420, Note_on_c, 0, 78, 48
1, 42478, Note_on_c, 0, 78, 0
1, 42480, Note_on_c, 0, 78, 48
1, 42480, Note_on_c, 1, 55, 48
1, 42600, Note_on_c, 1, 59, 48
1, 42718, Note_on_c, 0, 78, 0
1, 42720, Note_on_c, 0, 76, 48
1, 42720, Note_on_c, 1, 63, 48
1, 42816, Note_on_c, 1, 63, 0
1, 42838, Note_on_c, 0, 76, 0
1, 42840, Note_on_c, 1, 64, 48
1, 42900, Note_on_c, 0, 71, 48
1, 42958, Note_on_c, 0, 71, 0
1, 42960, Note_on_c, 0, 83, 48
1, 43018, Note_on_c, 0, 83, 0
1, 43020, Note_on_c, 0, 79, 48
1, 43078, Note_on_c, 0, 79, 0
1, 43080, Note_on_c, 0, 78, 48
1, 43128, Note_on_c, 1, 64, 0
1, 43128, Note_on_c, 1, 59, 0
1, 43128, Note_on_c, 1, 55, 0
1, 43138, Note_on_c, 0, 78, 0
1, 43140, Note_on_c, 0, 76, 48
1, 43198, Note_on_c, 0, 76, 0
1, 43200, Note_on_c, 0, 83, 48
1, 43200, Note_on_c, 1, 54, 48
1, 43320, Note_on_c, 1, 58, 48
1, 43438, Note_on_c, 0, 83, 0
1, 43440, Note_on_c, 0, 82, 48
1, 43440, Note_on_c, 1, 61, 48
1, 43558, Note_on_c, 0, 82, 0
1, 43560, Note_on_c, 1, 64, 48
1, 43620, Note_on_c, 0, 79, 48
1, 43678, Note_on_c, 0, 79, 0
1, 43680, Note_on_c, 0, 78, 48
1, 43738, Note_on_c, 0, 78, 0
1, 43740, Note_on_c, 0, 76, 48
1, 43798, Note_on_c, 0, 76, 0
1, 43800, Note_on_c, 0, 74, 48
1, 43848, Note_on_c, 1, 64, 0
1, 43848, Note_on_c, 1, 54, 0
1, 43848, Note_on_c, 1, 58, 0
1, 43848, Note_on_c, 1, 61, 0
1, 43858, Note_on_c, 0, 74, 0
1, 43860, Note_on_c, 0, 73, 48
1, 43918, Note_on_c, 0, 73, 0
1, 43920, Note_on_c, 0, 76, 48
1, 43920, Note_on_c, 1, 59, 48
1, 44040, Note_on_c, 1, 62, 48
1, 44158, Note_on_c, 0, 76, 0
1, 44160, Note_on_c, 0, 74, 48
1, 44160, Note_on_c, 1, 66, 48
1, 44278, Note_on_c, 0, 74, 0
1, 44280, Note_on_c, 1, 71, 48
1, 44340, Note_on_c, 0, 74, 48
1, 44398, Note_on_c, 0, 74, 0
1, 44400, Note_on_c, 0, 78, 48
1, 44458, Note_on_c, 0, 78, 0
1, 44460, Note_on_c, 0, 74, 48
1, 44518, Note_on_c, 0, 74, 0
1, 44520, Note_on_c, 0, 73, 48
1, 44568, Note_on_c, 1, 71, 0
1, 44568, Note_on_c, 1, 59, 0
1, 44568, Note_on_c, 1, 62, 0
1, 44568, Note_on_c, 1, 66, 0
1, 44578, Note_on_c, 0, 73, 0
1, 44580, Note_on_c, 0, 71, 48
1, 44638, Note_on_c, 0, 71, 0
1, 44640, Note_on_c, 0, 71, 48
1, 44640, Note_on_c, 1, 61, 48
1, 44760, Note_on_c, 1, 64, 48
1, 44878, Note_on_c, 0, 71, 0
1, 44880, Note_on_c, 0, 70, 48
1, 44880, Note_on_c, 1, 67, 48
1, 44998, Note_on_c, 0, 70, 0
1, 45000, Note_on_c, 1, 70, 48
1, 45060, Note_on_c, 0, 79, 48
1, 45118, Note_on_c, 0, 79, 0
1, 45120, Note_on_c, 0, 78, 48
1, 45178, Note_on_c, 0, 78, 0
1, 45180, Note_on_c, 0, 76, 48
1, 45238, Note_on_c, 0, 76, 0
1, 45240, Note_on_c, 0, 74, 48
1, 45288, Note_on_c, 1, 70, 0
1, 45288, Note_on_c, 1, 61, 0
1, 45288, Note_on_c, 1, 64, 0
1, 45288, Note_on_c, 1, 67, 0
1, 45298, Note_on_c, 0, 74, 0
1, 45300, Note_on_c, 0, 73, 48
1, 45358, Note_on_c, 0, 73, 0
1, 45360, Note_on_c, 0, 76, 48
1, 45360, Note_on_c, 1, 62, 48
1, 45480, Note_on_c, 1, 66, 48
1, 45598, Note_on_c, 0, 76, 0
1, 45600, Note_on_c, 0, 74, 48
1, 45600, Note_on_c, 1, 70, 48
1, 45696, Note_on_c, 1, 70, 0
1, 45718, Note_on_c, 0, 74, 0
1, 45720, Note_on_c, 1, 71, 48
1, 45780, Note_on_c, 0, 83, 80
1, 45838, Note_on_c, 0, 83, 0
1, 45840, Note_on_c, 0, 82, 80
1, 45898, Note_on_c, 0, 82, 0
1, 45900, Note_on_c, 0, 83, 80
1, 45958, Note_on_c, 0, 83, 0
1, 45960, Note_on_c, 0, 86, 80
1, 46008, Note_on_c, 1, 71, 0
1, 46008, Note_on_c, 1, 66, 0
1, 46008, Note_on_c, 1, 62, 0
1, 46018, Note_on_c, 0, 86, 0
1, 46020, Note_on_c, 0, 83, 80
1, 46078, Note_on_c, 0, 83, 0
1, 46080, Note_on_c, 0, 79, 80
1, 46080, Note_on_c, 1, 64, 80
1, 46138, Note_on_c, 0, 79, 0
1, 46140, Note_on_c, 0, 83, 80
1, 46198, Note_on_c, 0, 83, 0
1, 46198, Note_on_c, 1, 64, 0
1, 46200, Note_on_c, 0, 78, 80
1, 46200, Note_on_c, 1, 62, 80
1, 46248, Note_on_c, 1, 62, 0
1, 46258, Note_on_c, 0, 78, 0
1, 46260, Note_on_c, 0, 83, 80
1, 46318, Note_on_c, 0, 83, 0
1, 46320, Note_on_c, 0, 76, 80
1, 46320, Note_on_c, 1, 61, 80
1, 46368, Note_on_c, 1, 61, 0
1, 46378, Note_on_c, 0, 76, 0
1, 46380, Note_on_c, 0, 83, 80
1, 46438, Note_on_c, 0, 83, 0
1, 46440, Note_on_c, 0, 74, 80
1, 46440, Note_on_c, 1, 59, 80
1, 46498, Note_on_c, 0, 74, 0
1, 46500, Note_on_c, 0, 83, 80
1, 46558, Note_on_c, 0, 83, 0
1, 46560, Note_on_c, 0, 82, 80
1, 46618, Note_on_c, 0, 82, 0
1, 46620, Note_on_c, 0, 83, 80
1, 46678, Note_on_c, 0, 83, 0
1, 46678, Note_on_c, 1, 59, 0
1, 46680, Note_on_c, 0, 86, 80
1, 46738, Note_on_c, 0, 86, 0
1, 46740, Note_on_c, 0, 83, 80
1, 46798, Note_on_c, 0, 83, 0
1, 46800, Note_on_c, 0, 76, 80
1, 46800, Note_on_c, 1, 67, 80
1, 46858, Note_on_c, 0, 76, 0
1, 46860, Note_on_c, 0, 83, 80
1, 46918, Note_on_c, 0, 83, 0
1, 46918, Note_on_c, 1, 67, 0
1, 46920, Note_on_c, 0, 74, 80
1, 46920, Note_on_c, 1, 66, 80
1, 46968, Note_on_c, 1, 66, 0
1, 46978, Note_on_c, 0, 74, 0
1, 46980, Note_on_c, 0, 83, 80
1, 47038, Note_on_c, 0, 83, 0
1, 47040, Note_on_c, 0, 73, 80
1, 47040, Note_on_c, 1, 64, 80
1, 47088, Note_on_c, 1, 64, 0
1, 47098, Note_on_c, 0, 73, 0
1, 47100, Note_on_c, 0, 83, 80
1, 47158, Note_on_c, 0, 83, 0
1, 47160, Note_on_c, 0, 71, 80
1, 47160, Note_on_c, 1, 62, 80
1, 47218, Note_on_c, 0, 71, 0
1, 47220, Note_on_c, 0, 83, 80
1, 47278, Note_on_c, 0, 83, 0
1, 47280, Note_on_c, 0, 82, 80
1, 47338, Note_on_c, 0, 82, 0
1, 47340, Note_on_c, 0, 83, 80
1, 47398, Note_on_c, 0, 83, 0
1, 47398, Note_on_c, 1, 62, 0
1, 47400, Note_on_c, 0, 86, 80
1, 47458, Note_on_c, 0, 86, 0
1, 47460, Note_on_c, 0, 83, 80
1, 47518, Note_on_c, 0, 83, 0
1, 47520, Note_on_c, 0, 79, 80
1, 47520, Note_on_c, 1, 76, 80
1, 47578, Note_on_c, 0, 79, 0
1, 47580, Note_on_c, 0, 83, 80
1, 47638, Note_on_c, 0, 83, 0
1, 47638, Note_on_c, 1, 76, 0
1, 47640, Note_on_c, 0, 78, 80
1, 47640, Note_on_c, 1, 74, 80
1, 47688, Note_on_c, 1, 74, 0
1, 47698, Note_on_c, 0, 78, 0
1, 47700, Note_on_c, 0, 83, 80
1, 47758, Note_on_c, 0, 83, 0
1, 47760, Note_on_c, 0, 76, 80
1, 47760, Note_on_c, 1, 73, 80
1, 47808, Note_on_c, 1, 73, 0
1, 47818, Note_on_c, 0, 76, 0
1, 47820, Note_on_c, 0, 83, 80
1, 47878, Note_on_c, 0, 83, 0
1, 47880, Note_on_c, 0, 74, 80
1, 47880, Note_on_c, 1, 71, 80
1, 47938, Note_on_c, 0, 74, 0
1, 47940, Note_on_c, 0, 83, 80
1, 47998, Note_on_c, 0, 83, 0
1, 48000, Note_on_c, 0, 82, 80
1, 48058, Note_on_c, 0, 82, 0
1, 48060, Note_on_c, 0, 83, 80
1, 48118, Note_on_c, 0, 83, 0
1, 48118, Note_on_c, 1, 71, 0
1, 48120, Note_on_c, 0, 86, 80
1, 48178, Note_on_c, 0, 86, 0
1, 48180, Note_on_c, 0, 83, 80
1, 48238, Note_on_c, 0, 83, 0
1, 48240, Note_on_c, 0, 76, 80
1, 48240, Note_on_c, 1, 67, 80
1, 48298, Note_on_c, 0, 76, 0
1, 48300, Note_on_c, 0, 83, 80
1, 48358, Note_on_c, 0, 83, 0
1, 48358, Note_on_c, 1, 67, 0
1, 48360, Note_on_c, 0, 74, 80
1, 48360, Note_on_c, 1, 66, 80
1, 48408, Note_on_c, 1, 66, 0
1, 48418, Note_on_c, 0, 74, 0
1, 48420, Note_on_c, 0, 83, 80
1, 48478, Note_on_c, 0, 83, 0
1, 48480, Note_on_c, 0, 73, 80
1, 48480, Note_on_c, 1, 64, 80
1, 48528, Note_on_c, 1, 64, 0
1, 48538, Note_on_c, 0, 73, 0
1, 48540, Note_on_c, 0, 83, 80
1, 48598, Note_on_c, 0, 83, 0
1, 48600, Note_on_c, 0, 71, 80
1, 48600, Note_on_c, 1, 62, 80
1, 48658, Note_on_c, 1, 62, 0
1, 48660, Note_on_c, 1, 66, 80
1, 48718, Note_on_c, 1, 66, 0
1, 48720, Note_on_c, 1, 62, 80
1, 48778, Note_on_c, 1, 62, 0
1, 48780, Note_on_c, 1, 66, 80
1, 48792, Note_on_c, 0, 71, 0
1, 48838, Note_on_c, 1, 66, 0
1, 48840, Note_on_c, 0, 83, 80
1, 48840, Note_on_c, 1, 62, 80
1, 48888, Note_on_c, 0, 83, 0
1, 48898, Note_on_c, 1, 62, 0
1, 48900, Note_on_c, 1, 66, 80
1, 48958, Note_on_c, 1, 66, 0
1, 48960, Note_on_c, 0, 73, 80
1, 48960, Note_on_c, 1, 64, 80
1, 49018, Note_on_c, 1, 64, 0
1, 49020, Note_on_c, 1, 67, 80
1, 49078, Note_on_c, 1, 67, 0
1, 49080, Note_on_c, 1, 64, 80
1, 49138, Note_on_c, 1, 64, 0
1, 49140, Note_on_c, 1, 67, 80
1, 49152, Note_on_c, 0, 73, 0
1, 49198, Note_on_c, 1, 67, 0
1, 49200, Note_on_c, 0, 79, 80
1, 49200, Note_on_c, 1, 64, 80
1, 49248, Note_on_c, 0, 79, 0
1, 49258, Note_on_c, 1, 64, 0
1, 49260, Note_on_c, 1, 67, 80
1, 49318, Note_on_c, 1, 67, 0
1, 49320, Note_on_c, 0, 78, 80
1, 49320, Note_on_c, 1, 66, 80
1, 49378, Note_on_c, 1, 66, 0
1, 49380, Note_on_c, 1, 70, 80
1, 49438, Note_on_c, 1, 70, 0
1, 49440, Note_on_c, 1, 66, 80
1, 49498, Note_on_c, 1, 66, 0
1, 49500, Note_on_c, 1, 70, 80
1, 49512, Note_on_c, 0, 78, 0
1, 49558, Note_on_c, 1, 70, 0
1, 49560, Note_on_c, 0, 76, 80
1, 49560, Note_on_c, 1, 66, 80
1, 49608, Note_on_c, 0, 76, 0
1, 49618, Note_on_c, 1, 66, 0
1, 49620, Note_on_c, 1, 70, 80
1, 49678, Note_on_c, 1, 70, 0
1, 49680, Note_on_c, 0, 76, 80
1, 49680, Note_on_c, 1, 67, 80
1, 49738, Note_on_c, 1, 67, 0
1, 49740, Note_on_c, 1, 71, 80
1, 49798, Note_on_c, 1, 71, 0
1, 49800, Note_on_c, 1, 67, 80
1, 49858, Note_on_c, 1, 67, 0
1, 49860, Note_on_c, 1, 71, 80
1, 49872, Note_on_c, 0, 76, 0
1, 49918, Note_on_c, 1, 71, 0
1, 49920, Note_on_c, 0, 74, 80
1, 49920, Note_on_c, 1, 67, 80
1, 49968, Note_on_c, 0, 74, 0
1, 49978, Note_on_c, 1, 67, 0
1, 49980, Note_on_c, 1, 71, 80
1, 50038, Note_on_c, 1, 71, 0
1, 50040, Note_on_c, 0, 71, 80
1, 50040, Note_on_c, 1, 62, 80
1, 50098, Note_on_c, 1, 62, 0
1, 50100, Note_on_c, 1, 66, 80
1, 50158, Note_on_c, 1, 66, 0
1, 50160, Note_on_c, 1, 62, 80
1, 50218, Note_on_c, 1, 62, 0
1, 50220, Note_on_c, 1, 66, 80
1, 50232, Note_on_c, 0, 71, 0
1, 50278, Note_on_c, 1, 66, 0
1, 50280, Note_on_c, 0, 83, 80
1, 50280, Note_on_c, 1, 62, 80
1, 50328, Note_on_c, 0, 83, 0
1, 50338, Note_on_c, 1, 62, 0
1, 50340, Note_on_c, 1, 66, 80
1, 50398, Note_on_c, 1, 66, 0
1, 50400, Note_on_c, 0, 73, 80
1, 50400, Note_on_c, 1, 64, 80
1, 50448, Note_on_c, 1, 64, 0
1, 50460, Note_on_c, 1, 67, 80
1, 50508, Note_on_c, 1, 67, 0
1, 50520, Note_on_c, 1, 64, 80
1, 50568, Note_on_c, 1, 64, 0
1, 50580, Note_on_c, 1, 67, 80
1, 50592, Note_on_c, 0, 73, 0
1, 50628, Note_on_c, 1, 67, 0
1, 50640, Note_on_c, 0, 79, 80
1, 50640, Note_on_c, 1, 64, 80
1, 50688, Note_on_c, 0, 79, 0
1, 50688, Note_on_c, 1, 64, 0
1, 50700, Note_on_c, 1, 67, 80
1, 50748, Note_on_c, 1, 67, 0
1, 50760, Note_on_c, 1, 66, 80
1, 50856, Note_on_c, 1, 66, 0
1, 50880, Note_on_c, 0, 78, 80
1, 50998, Note_on_c, 0, 78, 0
1, 51000, Note_on_c, 0, 70, 80
1, 51118, Note_on_c, 0, 70, 0
1, 51120, Note_on_c, 0, 71, 80
1, 51120, Note_on_c, 1, 59, 80
1, 51238, Note_on_c, 0, 71, 0
1, 51240, Note_on_c, 0, 74, 80
1, 51288, Note_on_c, 0, 74, 0
1, 51358, Note_on_c, 1, 59, 0
1, 51360, Note_on_c, 0, 78, 80
1, 51408, Note_on_c, 0, 78, 0
1, 51480, Note_on_c, 0, 83, 80
1, 51598, Note_on_c, 0, 83, 0
1, 51600, Note_on_c, 1, 62, 80
1, 51600, Note_on_c, 1, 66, 80
1, 51720, Note_on_c, 1, 66, 0
1, 51720, Note_on_c, 1, 62, 0
1, 51720, Note_on_c, 1, 61, 80
1, 51720, Note_on_c, 1, 64, 80
1, 51840, Note_on_c, 0, 71, 80
1, 51840, Note_on_c, 1, 64, 0
1, 51840, Note_on_c, 1, 61, 0
1, 51840, Note_on_c, 1, 59, 80
1, 51840, Note_on_c, 1, 62, 80
1, 51958, Note_on_c, 0, 71, 0
1, 51960, Note_on_c, 0, 74, 80
1, 51960, Note_on_c, 1, 62, 0
1, 51960, Note_on_c, 1, 59, 0
1, 52008, Note_on_c, 0, 74, 0
1, 52080, Note_on_c, 0, 78, 80
1, 52128, Note_on_c, 0, 78, 0
1, 52200, Note_on_c, 0, 83, 80
1, 52318, Note_on_c, 0, 83, 0
1, 52320, Note_on_c, 1, 59, 80
1, 52320, Note_on_c, 1, 62, 80
1, 52440, Note_on_c, 1, 62, 0
1, 52440, Note_on_c, 1, 59, 0
1, 52440, Note_on_c, 1, 57, 80
1, 52440, Note_on_c, 1, 60, 80
1, 52560, Note_on_c, 0, 71, 80
1, 52560, Note_on_c, 1, 60, 0
1, 52560, Note_on_c, 1, 57, 0
1, 52560, Note_on_c, 1, 55, 80
1, 52560, Note_on_c, 1, 59, 80
1, 52678, Note_on_c, 0, 71, 0
1, 52680, Note_on_c, 0, 74, 80
1, 52680, Note_on_c, 1, 59, 0
1, 52680, Note_on_c, 1, 55, 0
1, 52728, Note_on_c, 0, 74, 0
1, 52800, Note_on_c, 0, 79, 80
1, 52848, Note_on_c, 0, 79, 0
1, 52920, Note_on_c, 0, 83, 80
1, 53038, Note_on_c, 0, 83, 0
1, 53040, Note_on_c, 1, 55, 80
1, 53040, Note_on_c, 1, 59, 80
1, 53160, Note_on_c, 1, 59, 0
1, 53160, Note_on_c, 1, 55, 0
1, 53160, Note_on_c, 1, 54, 80
1, 53160, Note_on_c, 1, 57, 80
1, 53280, Note_on_c, 0, 71, 80
1, 53280, Note_on_c, 1, 57, 0
1, 53280, Note_on_c, 1, 54, 0
1, 53280, Note_on_c, 1, 52, 80
1, 53280, Note_on_c, 1, 55, 80
1, 53398, Note_on_c, 0, 71, 0
1, 53400, Note_on_c, 0, 76, 80
1, 53400, Note_on_c, 1, 55, 0
1, 53400, Note_on_c, 1, 52, 0
1, 53448, Note_on_c, 0, 76, 0
1, 53520, Note_on_c, 0, 79, 80
1, 53568, Note_on_c, 0, 79, 0
1, 53640, Note_on_c, 0, 83, 80
1, 53758, Note_on_c, 0, 83, 0
1, 53760, Note_on_c, 1, 52, 80
1, 53760, Note_on_c, 1, 55, 80
1, 53880, Note_on_c, 1, 55, 0
1, 53880, Note_on_c, 1, 52, 0
1, 53880, Note_on_c, 1, 50, 80
1, 53880, Note_on_c, 1, 53, 80
1, 54000, Note_on_c, 0, 72, 80
1, 54000, Note_on_c, 1, 53, 0
1, 54000, Note_on_c, 1, 50, 0
1, 54000, Note_on_c, 1, 48, 80
1, 54000, Note_on_c, 1, 52, 80
1, 54118, Note_on_c, 0, 72, 0
1, 54120, Note_on_c, 0, 76, 80
1, 54120, Note_on_c, 1, 52, 0
1, 54120, Note_on_c, 1, 48, 0
1, 54168, Note_on_c, 0, 76, 0
1, 54240, Note_on_c, 0, 79, 80
1, 54288, Note_on_c, 0, 79, 0
1, 54360, Note_on_c, 0, 84, 80
1, 54478, Note_on_c, 0, 84, 0
1, 54480, Note_on_c, 1, 48, 80
1, 54480, Note_on_c, 1, 52, 80
1, 54600, Note_on_c, 1, 52, 0
1, 54600, Note_on_c, 1, 48, 0
1, 54600, Note_on_c, 1, 47, 80
1, 54600, Note_on_c, 1, 50, 80
1, 54720, Note_on_c, 0, 72, 80
1, 54720, Note_on_c, 1, 50, 0
1, 54720, Note_on_c, 1, 47, 0
1, 54720, Note_on_c, 1, 45, 80
1, 54720, Note_on_c, 1, 48, 80
1, 54838, Note_on_c, 0, 72, 0
1, 54840, Note_on_c, 0, 76, 80
1, 54840, Note_on_c, 1, 48, 0
1, 54840, Note_on_c, 1, 45, 0
1, 54888, Note_on_c, 0, 76, 0
1, 54960, Note_on_c, 0, 81, 80
1, 55008, Note_on_c, 0, 81, 0
1, 55080, Note_on_c, 0, 84, 80
1, 55198, Note_on_c, 0, 84, 0
1, 55200, Note_on_c, 1, 45, 80
1, 55200, Note_on_c, 1, 48, 80
1, 55320, Note_on_c, 1, 48, 0
1, 55320, Note_on_c, 1, 45, 0
1, 55320, Note_on_c, 1, 43, 80
1, 55320, Note_on_c, 1, 47, 80
1, 55440, Note_on_c, 0, 72, 80
1, 55440, Note_on_c, 1, 47, 0
1, 55440, Note_on_c, 1, 43, 0
1, 55440, Note_on_c, 1, 42, 80
1, 55440, Note_on_c, 1, 45, 80
1, 55558, Note_on_c, 0, 72, 0
1, 55560, Note_on_c, 0, 78, 83
1, 55560, Note_on_c, 1, 45, 0
1, 55560, Note_on_c, 1, 42, 0
1, 55608, Note_on_c, 0, 78, 0
1, 55680, Note_on_c, 0, 81, 85
1, 55728, Note_on_c, 0, 81, 0
1, 55800, Note_on_c, 0, 84, 88
1, 55918, Note_on_c, 0, 84, 0
1, 55920, Note_on_c, 1, 42, 91
1, 55920, Note_on_c, 1, 45, 91
1, 56040, Note_on_c, 1, 45, 0
1, 56040, Note_on_c, 1, 42, 0
1, 56040, Note_on_c, 1, 40, 93
1, 56040, Note_on_c, 1, 43, 93
1, 56160, Note_on_c, 0, 71, 96
1, 56160, Note_on_c, 1, 43, 0
1, 56160, Note_on_c, 1, 40, 0
1, 56160, Note_on_c, 1, 39, 96
1, 56160, Note_on_c, 1, 42, 96
1, 56256, Note_on_c, 0, 71, 0
1, 56280, Note_on_c, 0, 75, 96
1, 56328, Note_on_c, 0, 75, 0
1, 56400, Note_on_c, 0, 78, 96
1, 56448, Note_on_c, 0, 78, 0
1, 56520, Note_on_c, 0, 83, 96
1, 56808, Note_on_c, 0, 83, 0
1, 56878, Note_on_c, 1, 42, 0
1, 56878, Note_on_c, 1, 39, 0
1, 57600, Note_on_c, 1, 40, 64
1, 57718, Note_on_c, 1, 40, 0
1, 57720, Note_on_c, 1, 43, 64
1, 57768, Note_on_c, 1, 43, 0
1, 57840, Note_on_c, 1, 47, 64
1, 57888, Note_on_c, 1, 47, 0
1, 57960, Note_on_c, 1, 52, 64
1, 58078, Note_on_c, 1, 52, 0
1, 58080, Note_on_c, 0, 59, 64
1, 58080, Note_on_c, 0, 67, 64
1, 58200, Note_on_c, 0, 67, 0
1, 58200, Note_on_c, 0, 59, 0
1, 58200, Note_on_c, 0, 57, 64
1, 58200, Note_on_c, 0, 63, 64
1, 58320, Note_on_c, 0, 63, 0
1, 58320, Note_on_c, 0, 57, 0
1, 58320, Note_on_c, 0, 64, 64
1, 58320, Note_on_c, 0, 55, 64
1, 58320, Note_on_c, 1, 40, 64
1, 58440, Note_on_c, 0, 55, 0
1, 58440, Note_on_c, 0, 64, 0
1, 58440, Note_on_c, 1, 40, 0
1, 58440, Note_on_c, 1, 43, 64
1, 58488, Note_on_c, 1, 43, 0
1, 58560, Note_on_c, 1, 47, 64
1, 58608, Note_on_c, 1, 47, 0
1, 58680, Note_on_c, 1, 52, 64
1, 58728, Note_on_c, 1, 52, 0
1, 58800, Note_on_c, 0, 71, 64
1, 58800, Note_on_c, 0, 67, 64
1, 58920, Note_on_c, 0, 67, 0
1, 58920, Note_on_c, 0, 71, 0
1, 58920, Note_on_c, 0, 69, 64
1, 58920, Note_on_c, 0, 66, 64
1, 59040, Note_on_c, 0, 66, 0
1, 59040, Note_on_c, 0, 69, 0
1, 59040, Note_on_c, 0, 64, 64
1, 59040, Note_on_c, 0, 67, 64
1, 59040, Note_on_c, 1, 52, 48
1, 59158, Note_on_c, 0, 67, 0
1, 59158, Note_on_c, 0, 64, 0
1, 59160, Note_on_c, 1, 55, 48
1, 59280, Note_on_c, 1, 59, 48
1, 59400, Note_on_c, 1, 64, 48
1, 59460, Note_on_c, 0, 83, 48
1, 59518, Note_on_c, 0, 83, 0
1, 59520, Note_on_c, 0, 81, 48
1, 59578, Note_on_c, 0, 81, 0
1, 59580, Note_on_c, 0, 79, 48
1, 59638, Note_on_c, 0, 79, 0
1, 59640, Note_on_c, 0, 78, 48
1, 59688, Note_on_c, 1, 64, 0
1, 59688, Note_on_c, 1, 52, 0
1, 59688, Note_on_c, 1, 55, 0
1, 59688, Note_on_c, 1, 59, 0
1, 59698, Note_on_c, 0, 78, 0
1, 59700, Note_on_c, 0, 76, 48
1, 59758, Note_on_c, 0, 76, 0
1, 59760, Note_on_c, 0, 76, 48
1, 59760, Note_on_c, 1, 54, 48
1, 59880, Note_on_c, 1, 57, 48
1, 59998, Note_on_c, 0, 76, 0
1, 60000, Note_on_c, 0, 75, 48
1, 60000, Note_on_c, 1, 60, 48
1, 60118, Note_on_c, 0, 75, 0
1, 60120, Note_on_c, 1, 63, 48
1, 60180, Note_on_c, 0, 84, 48
1, 60238, Note_on_c, 0, 84, 0
1, 60240, Note_on_c, 0, 83, 48
1, 60298, Note_on_c, 0, 83, 0
1, 60300, Note_on_c, 0, 81, 48
1, 60358, Note_on_c, 0, 81, 0
1, 60360, Note_on_c, 0, 79, 48
1, 60408, Note_on_c, 1, 63, 0
1, 60408, Note_on_c, 1, 54, 0
1, 60408, Note_on_c, 1, 57, 0
1, 60408, Note_on_c, 1, 60, 0
1, 60418, Note_on_c, 0, 79, 0
1, 60420, Note_on_c, 0, 78, 48
1, 60478, Note_on_c, 0, 78, 0
1, 60480, Note_on_c, 0, 78, 48
1, 60480, Note_on_c, 1, 55, 48
1, 60600, Note_on_c, 1, 59, 48
1, 60718, Note_on_c, 0, 78, 0
1, 60720, Note_on_c, 0, 76, 48
1, 60720, Note_on_c, 1, 63, 48
1, 60816, Note_on_c, 1, 63, 0
1, 60838, Note_on_c, 0, 76, 0
1, 60840, Note_on_c, 1, 64, 48
1, 60900, Note_on_c, 0, 83, 80
1, 60958, Note_on_c, 0, 83, 0
1, 60960, Note_on_c, 0, 81, 80
1, 61018, Note_on_c, 0, 81, 0
1, 61020, Note_on_c, 0, 79, 80
1, 61078, Note_on_c, 0, 79, 0
1, 61080, Note_on_c, 0, 78, 80
1, 61128, Note_on_c, 1, 64, 0
1, 61128, Note_on_c, 1, 59, 0
1, 61128, Note_on_c, 1, 55, 0
1, 61138, Note_on_c, 0, 78, 0
1, 61140, Note_on_c, 0, 76, 80
1, 61198, Note_on_c, 0, 76, 0
1, 61200, Note_on_c, 0, 84, 80
1, 61200, Note_on_c, 1, 57, 80
1, 61258, Note_on_c, 0, 84, 0
1, 61260, Note_on_c, 0, 72, 80
1, 61318, Note_on_c, 0, 72, 0
1, 61318, Note_on_c, 1, 57, 0
1, 61320, Note_on_c, 0, 81, 80
1, 61320, Note_on_c, 1, 66, 80
1, 61368, Note_on_c, 1, 66, 0
1, 61378, Note_on_c, 0, 81, 0
1, 61380, Note_on_c, 0, 84, 80
1, 61438, Note_on_c, 0, 84, 0
1, 61440, Note_on_c, 0, 79, 80
1, 61440, Note_on_c, 1, 64, 80
1, 61488, Note_on_c, 1, 64, 0
1, 61498, Note_on_c, 0, 79, 0
1, 61500, Note_on_c, 0, 84, 80
1, 61558, Note_on_c, 0, 84, 0
1, 61560, Note_on_c, 0, 78, 80
1, 61560, Note_on_c, 1, 62, 80
1, 61618, Note_on_c, 0, 78, 0
1, 61620, Note_on_c, 0, 81, 80
1, 61678, Note_on_c, 0, 81, 0
1, 61680, Note_on_c, 0, 86, 80
1, 61738, Note_on_c, 0, 86, 0
1, 61740, Note_on_c, 0, 84, 80
1, 61798, Note_on_c, 0, 84, 0
1, 61798, Note_on_c, 1, 62, 0
1, 61800, Note_on_c, 0, 83, 80
1, 61858, Note_on_c, 0, 83, 0
1, 61860, Note_on_c, 0, 81, 80
1, 61918, Note_on_c, 0, 81, 0
1, 61920, Note_on_c, 0, 83, 80
1, 61920, Note_on_c, 1, 55, 80
1, 61978, Note_on_c, 0, 83, 0
1, 61980, Note_on_c, 0, 71, 80
1, 62038, Note_on_c, 0, 71, 0
1, 62038, Note_on_c, 1, 55, 0
1, 62040, Note_on_c, 0, 79, 80
1, 62040, Note_on_c, 1, 64, 80
1, 62088, Note_on_c, 1, 64, 0
1, 62098, Note_on_c, 0, 79, 0
1, 62100, Note_on_c, 0, 83, 80
1, 62158, Note_on_c, 0, 83, 0
1, 62160, Note_on_c, 0, 78, 80
1, 62160, Note_on_c, 1, 62, 80
1, 62208, Note_on_c, 1, 62, 0
1, 62218, Note_on_c, 0, 78, 0
1, 62220, Note_on_c, 0, 83, 80
1, 62278, Note_on_c, 0, 83, 0
1, 62280, Note_on_c, 0, 76, 80
1, 62280, Note_on_c, 1, 60, 80
1, 62338, Note_on_c, 0, 76, 0
1, 62340, Note_on_c, 0, 79, 80
1, 62398, Note_on_c, 0, 79, 0
1, 62400, Note_on_c, 0, 84, 80
1, 62458, Note_on_c, 0, 84, 0
1, 62460, Note_on_c, 0, 83, 80
1, 62518, Note_on_c, 0, 83, 0
1, 62518, Note_on_c, 1, 60, 0
1, 62520, Note_on_c, 0, 81, 80
1, 62578, Note_on_c, 0, 81, 0
1, 62580, Note_on_c, 0, 79, 80
1, 62638, Note_on_c, 0, 79, 0
1, 62640, Note_on_c, 0, 81, 80
1, 62640, Note_on_c, 1, 54, 80
1, 62698, Note_on_c, 0, 81, 0
1, 62700, Note_on_c, 0, 69, 80
1, 62758, Note_on_c, 0, 69, 0
1, 62758, Note_on_c, 1, 54, 0
1, 62760, Note_on_c, 0, 78, 80
1, 62760, Note_on_c, 1, 63, 80
1, 62808, Note_on_c, 1, 63, 0
1, 62818, Note_on_c, 0, 78, 0
1, 62820, Note_on_c, 0, 83, 80
1, 62878, Note_on_c, 0, 83, 0
1, 62880, Note_on_c, 0, 76, 80
1, 62880, Note_on_c, 1, 61, 80
1, 62928, Note_on_c, 1, 61, 0
1, 62938, Note_on_c, 0, 76, 0
1, 62940, Note_on_c, 0, 81, 80
1, 62998, Note_on_c, 0, 81, 0
1, 63000, Note_on_c, 0, 75, 80
1, 63000, Note_on_c, 1, 59, 80
1, 63058, Note_on_c, 0, 75, 0
1, 63060, Note_on_c, 0, 78, 80
1, 63118, Note_on_c, 0, 78, 0
1, 63120, Note_on_c, 0, 83, 80
1, 63178, Note_on_c, 0, 83, 0
1, 63180, Note_on_c, 0, 81, 80
1, 63238, Note_on_c, 0, 81, 0
1, 63238, Note_on_c, 1, 59, 0
1, 63240, Note_on_c, 0, 79, 80
1, 63298, Note_on_c, 0, 79, 0
1, 63300, Note_on_c, 0, 78, 80
1, 63358, Note_on_c, 0, 78, 0
1, 63360, Note_on_c, 0, 79, 80
1, 63360, Note_on_c, 1, 52, 80
1, 63418, Note_on_c, 1, 52, 0
1, 63420, Note_on_c, 1, 64, 80
1, 63456, Note_on_c, 0, 79, 0
1, 63478, Note_on_c, 1, 64, 0
1, 63480, Note_on_c, 0, 81, 80
1, 63480, Note_on_c, 1, 54, 80
1, 63512, Note_on_c, 0, 81, 0
1, 63520, Note_on_c, 0, 83, 80
1, 63538, Note_on_c, 1, 54, 0
1, 63540, Note_on_c, 1, 64, 80
1, 63552, Note_on_c, 0, 83, 0
1, 63560, Note_on_c, 0, 81, 80
1, 63592, Note_on_c, 0, 81, 0
1, 63598, Note_on_c, 1, 64, 0
1, 63600, Note_on_c, 0, 83, 80
1, 63600, Note_on_c, 1, 55, 80
1, 63658, Note_on_c, 1, 55, 0
1, 63660, Note_on_c, 1, 64, 80
1, 63696, Note_on_c, 0, 83, 0
1, 63718, Note_on_c, 1, 64, 0
1, 63720, Note_on_c, 0, 78, 80
1, 63720, Note_on_c, 1, 57, 80
1, 63768, Note_on_c, 0, 78, 0
1, 63778, Note_on_c, 1, 57, 0
1, 63780, Note_on_c, 1, 64, 80
1, 63838, Note_on_c, 1, 64, 0
1, 63840, Note_on_c, 0, 78, 80
1, 63840, Note_on_c, 1, 57, 80
1, 63888, Note_on_c, 0, 78, 0
1, 63898, Note_on_c, 1, 57, 0
1, 63900, Note_on_c, 1, 64, 80
1, 63958, Note_on_c, 1, 64, 0
1, 63960, Note_on_c, 0, 78, 80
1, 63960, Note_on_c, 1, 57, 80
1, 64008, Note_on_c, 0, 78, 0
1, 64018, Note_on_c, 1, 57, 0
1, 64020, Note_on_c, 1, 64, 80
1, 64078, Note_on_c, 1, 64, 0
1, 64080, Note_on_c, 0, 79, 48
1, 64080, Note_on_c, 1, 52, 48
1, 64138, Note_on_c, 1, 52, 0
1, 64140, Note_on_c, 1, 64, 48
1, 64176, Note_on_c, 0, 79, 0
1, 64198, Note_on_c, 1, 64, 0
1, 64200, Note_on_c, 0, 81, 48
1, 64200, Note_on_c, 1, 54, 48
1, 64232, Note_on_c, 0, 81, 0
1, 64240, Note_on_c, 0, 83, 48
1, 64258, Note_on_c, 1, 54, 0
1, 64260, Note_on_c, 1, 64, 48
1, 64272, Note_on_c, 0, 83, 0
1, 64280, Note_on_c, 0, 81, 48
1, 64312, Note_on_c, 0, 81, 0
1, 64318, Note_on_c, 1, 64, 0
1, 64320, Note_on_c, 0, 83, 48
1, 64320, Note_on_c, 1, 55, 48
1, 64378, Note_on_c, 1, 55, 0
1, 64380, Note_on_c, 1, 64, 48
1, 64416, Note_on_c, 0, 83, 0
1, 64438, Note_on_c, 1, 64, 0
1, 64440, Note_on_c, 0, 78, 48
1, 64440, Note_on_c, 1, 57, 48
1, 64488, Note_on_c, 0, 78, 0
1, 64498, Note_on_c, 1, 57, 0
1, 64500, Note_on_c, 1, 64, 48
1, 64558, Note_on_c, 1, 64, 0
1, 64560, Note_on_c, 0, 78, 48
1, 64560, Note_on_c, 1, 57, 48
1, 64608, Note_on_c, 0, 78, 0
1, 64618, Note_on_c, 1, 57, 0
1, 64620, Note_on_c, 1, 64, 48
1, 64678, Note_on_c, 1, 64, 0
1, 64680, Note_on_c, 0, 78, 48
1, 64680, Note_on_c, 1, 57, 48
1, 64728, Note_on_c, 0, 78, 0
1, 64738, Note_on_c, 1, 57, 0
1, 64740, Note_on_c, 1, 64, 48
1, 64798, Note_on_c, 1, 64, 0
1, 64800, Note_on_c, 0, 79, 48
1, 64800, Note_on_c, 1, 52, 48
1, 64858, Note_on_c, 1, 52, 0
1, 64860, Note_on_c, 1, 64, 51
1, 64896, Note_on_c, 0, 79, 0
1, 64918, Note_on_c, 1, 64, 0
1, 64920, Note_on_c, 0, 81, 53
1, 64920, Note_on_c, 1, 54, 53
1, 64952, Note_on_c, 0, 81, 0
1, 64960, Note_on_c, 0, 83, 55
1, 64978, Note_on_c, 1, 54, 0
1, 64980, Note_on_c, 1, 64, 56
1, 64992, Note_on_c, 0, 83, 0
1, 65000, Note_on_c, 0, 81, 57
1, 65032, Note_on_c, 0, 81, 0
1, 65038, Note_on_c, 1, 64, 0
1, 65040, Note_on_c, 0, 83, 59
1, 65040, Note_on_c, 1, 55, 59
1, 65098, Note_on_c, 1, 55, 0
1, 65100, Note_on_c, 1, 64, 61
1, 65136, Note_on_c, 0, 83, 0
1, 65158, Note_on_c, 1, 64, 0
1, 65160, Note_on_c, 0, 78, 64
1, 65160, Note_on_c, 1, 57, 64
1, 65208, Note_on_c, 0, 78, 0
1, 65218, Note_on_c, 1, 57, 0
1, 65220, Note_on_c, 1, 64, 67
1, 65278, Note_on_c, 1, 64, 0
1, 65280, Note_on_c, 0, 78, 69
1, 65280, Note_on_c, 1, 57, 69
1, 65328, Note_on_c, 0, 78, 0
1, 65338, Note_on_c, 1, 57, 0
1, 65340, Note_on_c, 1, 64, 72
1, 65398, Note_on_c, 1, 64, 0
1, 65400, Note_on_c, 0, 78, 75
1, 65400, Note_on_c, 1, 57, 75
1, 65458, Note_on_c, 1, 57, 0
1, 65460, Note_on_c, 1, 64, 77
1, 65518, Note_on_c, 1, 64, 0
1, 65520, Note_on_c, 0, 78, 0
1, 65520, Note_on_c, 0, 76, 85
1, 65520, Note_on_c, 1, 58, 85
1, 65568, Note_on_c, 0, 76, 0
1, 65578, Note_on_c, 1, 58, 0
1, 65580, Note_on_c, 1, 61, 85
1, 65638, Note_on_c, 1, 61, 0
1, 65640, Note_on_c, 0, 76, 85
1, 65640, Note_on_c, 1, 58, 85
1, 65688, Note_on_c, 0, 76, 0
1, 65698, Note_on_c, 1, 58, 0
1, 65700, Note_on_c, 1, 61, 85
1, 65758, Note_on_c, 1, 61, 0
1, 65760, Note_on_c, 0, 76, 85
1, 65760, Note_on_c, 1, 58, 85
1, 65818, Note_on_c, 1, 58, 0
1, 65820, Note_on_c, 1, 61, 85
1, 65878, Note_on_c, 1, 61, 0
1, 65880, Note_on_c, 0, 76, 0
1, 65880, Note_on_c, 0, 75, 85
1, 65880, Note_on_c, 1, 59, 85
1, 65928, Note_on_c, 0, 75, 0
1, 65938, Note_on_c, 1, 59, 0
1, 65940, Note_on_c, 1, 66, 85
1, 65998, Note_on_c, 1, 66, 0
1, 66000, Note_on_c, 0, 75, 85
1, 66000, Note_on_c, 1, 59, 85
1, 66048, Note_on_c, 0, 75, 0
1, 66058, Note_on_c, 1, 59, 0
1, 66060, Note_on_c, 1, 66, 85
1, 66118, Note_on_c, 1, 66, 0
1, 66120, Note_on_c, 0, 75, 85
1, 66120, Note_on_c, 1, 59, 85
1, 66178, Note_on_c, 1, 59, 0
1, 66180, Note_on_c, 1, 66, 85
1, 66238, Note_on_c, 1, 66, 0
1, 66240, Note_on_c, 0, 75, 0
1, 66240, Note_on_c, 0, 70, 85
1, 66240, Note_on_c, 1, 60, 85
1, 66288, Note_on_c, 0, 70, 0
1, 66298, Note_on_c, 1, 60, 0
1, 66300, Note_on_c, 1, 64, 85
1, 66358, Note_on_c, 1, 64, 0
1, 66360, Note_on_c, 0, 70, 85
1, 66360, Note_on_c, 1, 60, 85
1, 66408, Note_on_c, 0, 70, 0
1, 66418, Note_on_c, 1, 60, 0
1, 66420, Note_on_c, 1, 64, 85
1, 66478, Note_on_c, 1, 64, 0
1, 66480, Note_on_c, 0, 70, 85
1, 66480, Note_on_c, 1, 60, 85
1, 66538, Note_on_c, 1, 60, 0
1, 66540, Note_on_c, 1, 64, 85
1, 66598, Note_on_c, 0, 70, 0
1, 66598, Note_on_c, 1, 64, 0
1, 66600, Note_on_c, 1, 59, 85
1, 66660, Note_on_c, 0, 71, 85
1, 66718, Note_on_c, 0, 71, 0
1, 66720, Note_on_c, 0, 73, 85
1, 66778, Note_on_c, 0, 73, 0
1, 66780, Note_on_c, 0, 75, 85
1, 66838, Note_on_c, 0, 75, 0
1, 66838, Note_on_c, 1, 59, 0
1, 66840, Note_on_c, 0, 76, 85
1, 66898, Note_on_c, 0, 76, 0
1, 66900, Note_on_c, 0, 78, 85
1, 66958, Note_on_c, 0, 78, 0
1, 66960, Note_on_c, 0, 79, 85
1, 67018, Note_on_c, 0, 79, 0
1, 67020, Note_on_c, 0, 71, 85
1, 67020, Note_on_c, 1, 59, 85
1, 67078, Note_on_c, 0, 71, 0
1, 67078, Note_on_c, 1, 59, 0
1, 67080, Note_on_c, 0, 73, 85
1, 67080, Note_on_c, 1, 61, 85
1, 67138, Note_on_c, 0, 73, 0
1, 67138, Note_on_c, 1, 61, 0
1, 67140, Note_on_c, 0, 75, 85
1, 67140, Note_on_c, 1, 63, 85
1, 67198, Note_on_c, 0, 75, 0
1, 67198, Note_on_c, 1, 63, 0
1, 67200, Note_on_c, 0, 76, 85
1, 67200, Note_on_c, 1, 64, 85
1, 67258, Note_on_c, 0, 76, 0
1, 67258, Note_on_c, 1, 64, 0
1, 67260, Note_on_c, 0, 78, 85
1, 67260, Note_on_c, 1, 66, 85
1, 67318, Note_on_c, 0, 78, 0
1, 67318, Note_on_c, 1, 66, 0
1, 67320, Note_on_c, 0, 79, 85
1, 67320, Note_on_c, 1, 67, 85
1, 67378, Note_on_c, 0, 79, 0
1, 67378, Note_on_c, 1, 67, 0
1, 67380, Note_on_c, 0, 78, 85
1, 67380, Note_on_c, 1, 66, 85
1, 67438, Note_on_c, 0, 78, 0
1, 67438, Note_on_c, 1, 66, 0
1, 67440, Note_on_c, 0, 76, 85
1, 67440, Note_on_c, 1, 64, 85
1, 67498, Note_on_c, 0, 76, 0
1, 67498, Note_on_c, 1, 64, 0
1, 67500, Note_on_c, 0, 78, 85
1, 67500, Note_on_c, 1, 66, 85
1, 67558, Note_on_c, 0, 78, 0
1, 67558, Note_on_c, 1, 66, 0
1, 67560, Note_on_c, 0, 79, 85
1, 67560, Note_on_c, 1, 67, 85
1, 67618, Note_on_c, 0, 79, 0
1, 67618, Note_on_c, 1, 67, 0
1, 67620, Note_on_c, 0, 81, 85
1, 67620, Note_on_c, 1, 69, 85
1, 67678, Note_on_c, 0, 81, 0
1, 67678, Note_on_c, 1, 69, 0
1, 67680, Note_on_c, 0, 83, 80
1, 67680, Note_on_c, 1, 71, 80
1, 67798, Note_on_c, 0, 83, 0
1, 67798, Note_on_c, 1, 71, 0
1, 67800, Note_on_c, 0, 78, 83
1, 67800, Note_on_c, 1, 66, 83
1, 67848, Note_on_c, 0, 78, 0
1, 67848, Note_on_c, 1, 66, 0
1, 67920, Note_on_c, 0, 75, 85
1, 67920, Note_on_c, 1, 63, 85
1, 67968, Note_on_c, 0, 75, 0
1, 67968, Note_on_c, 1, 63, 0
1, 68040, Note_on_c, 0, 71, 88
1, 68040, Note_on_c, 1, 59, 88
1, 68088, Note_on_c, 0, 71, 0
1, 68088, Note_on_c, 1, 59, 0
1, 68160, Note_on_c, 0, 66, 91
1, 68160, Note_on_c, 1, 54, 91
1, 68208, Note_on_c, 0, 66, 0
1, 68208, Note_on_c, 1, 54, 0
1, 68280, Note_on_c, 0, 63, 93
1, 68280, Note_on_c, 1, 51, 93
1, 68328, Note_on_c, 0, 63, 0
1, 68328, Note_on_c, 1, 51, 0
1, 68400, Note_on_c, 0, 59, 96
1, 68400, Note_on_c, 1, 47, 96
1, 68976, Note_on_c, 0, 59, 0
1, 68976, Note_on_c, 1, 47, 0
1, 69120, Note_on_c, 1, 40, 48
1, 69240, Note_on_c, 0, 67, 48
1, 69240, Note_on_c, 0, 71, 48
1, 69358, Note_on_c, 0, 71, 0
1, 69358, Note_on_c, 0, 67, 0
1, 69358, Note_on_c, 1, 40, 0
1, 69360, Note_on_c, 0, 66, 48
1, 69360, Note_on_c, 0, 69, 48
1, 69478, Note_on_c, 0, 69, 0
1, 69478, Note_on_c, 0, 66, 0
1, 69480, Note_on_c, 0, 64, 48
1, 69480, Note_on_c, 0, 67, 48
1, 69528, Note_on_c, 0, 67, 0
1, 69528, Note_on_c, 0, 64, 0
1, 69600, Note_on_c, 0, 71, 48
1, 69600, Note_on_c, 0, 79, 48
1, 69648, Note_on_c, 0, 79, 0
1, 69648, Note_on_c, 0, 71, 0
1, 69720, Note_on_c, 0, 67, 48
1, 69720, Note_on_c, 0, 76, 48
1, 69720, Note_on_c, 1, 52, 48
1, 69720, Note_on_c, 1, 55, 48
1, 69768, Note_on_c, 0, 76, 0
1, 69768, Note_on_c, 0, 67, 0
1, 69768, Note_on_c, 1, 55, 0
1, 69768, Note_on_c, 1, 52, 0
1, 69840, Note_on_c, 0, 66, 48
1, 69840, Note_on_c, 0, 75, 48
1, 69840, Note_on_c, 1, 54, 48
1, 69840, Note_on_c, 1, 57, 48
1, 69958, Note_on_c, 0, 75, 0
1, 69958, Note_on_c, 0, 66, 0
1, 69960, Note_on_c, 0, 78, 48
1, 69960, Note_on_c, 0, 81, 48
1, 70078, Note_on_c, 0, 81, 0
1, 70078, Note_on_c, 0, 78, 0
1, 70078, Note_on_c, 1, 57, 0
1, 70078, Note_on_c, 1, 54, 0
1, 70080, Note_on_c, 0, 76, 48
1, 70080, Note_on_c, 0, 79, 48
1, 70198, Note_on_c, 0, 79, 0
1, 70198, Note_on_c, 0, 76, 0
1, 70200, Note_on_c, 0, 75, 48
1, 70200, Note_on_c, 0, 78, 48
1, 70248, Note_on_c, 0, 78, 0
1, 70248, Note_on_c, 0, 75, 0
1, 70320, Note_on_c, 0, 81, 48
1, 70320, Note_on_c, 0, 84, 48
1, 70320, Note_on_c, 1, 63, 48
1, 70320, Note_on_c, 1, 59, 48
1, 70368, Note_on_c, 0, 84, 0
1, 70368, Note_on_c, 0, 81, 0
1, 70368, Note_on_c, 1, 59, 0
1, 70368, Note_on_c, 1, 63, 0
1, 70440, Note_on_c, 0, 78, 48
1, 70440, Note_on_c, 0, 81, 48
1, 70440, Note_on_c, 1, 66, 48
1, 70488, Note_on_c, 0, 81, 0
1, 70488, Note_on_c, 0, 78, 0
1, 70488, Note_on_c, 1, 66, 0
1, 70560, Note_on_c, 0, 76, 48
1, 70560, Note_on_c, 0, 79, 48
1, 70560, Note_on_c, 1, 64, 48
1, 70560, Note_on_c, 1, 67, 48
1, 70680, Note_on_c, 0, 79, 0
1, 70680, Note_on_c, 0, 83, 48
1, 70800, Note_on_c, 0, 76, 0
1, 70800, Note_on_c, 0, 71, 48
1, 70800, Note_on_c, 1, 67, 0
1, 70800, Note_on_c, 1, 64, 0
1, 70800, Note_on_c, 1, 67, 48
1, 70920, Note_on_c, 0, 71, 0
1, 70920, Note_on_c, 0, 72, 48
1, 70920, Note_on_c, 1, 67, 0
1, 70920, Note_on_c, 1, 69, 48
1, 71040, Note_on_c, 0, 83, 0
1, 71040, Note_on_c, 0, 81, 48
1, 71040, Note_on_c, 1, 69, 0
1, 71040, Note_on_c, 1, 66, 48
1, 71160, Note_on_c, 1, 66, 0
1, 71160, Note_on_c, 1, 64, 48
1, 71280, Note_on_c, 0, 72, 0
1, 71280, Note_on_c, 0, 71, 48
1, 71280, Note_on_c, 1, 64, 0
1, 71280, Note_on_c, 1, 63, 48
1, 71400, Note_on_c, 0, 81, 0
1, 71400, Note_on_c, 0, 79, 48
1, 71400, Note_on_c, 1, 63, 0
1, 71400, Note_on_c, 1, 64, 48
1, 71520, Note_on_c, 0, 79, 0
1, 71520, Note_on_c, 0, 76, 48
1, 71520, Note_on_c, 1, 64, 0
1, 71520, Note_on_c, 1, 67, 48
1, 71520, Note_on_c, 1, 71, 48
1, 71640, Note_on_c, 0, 71, 0
1, 71640, Note_on_c, 0, 69, 48
1, 71640, Note_on_c, 1, 71, 0
1, 71640, Note_on_c, 1, 67, 0
1, 71640, Note_on_c, 1, 69, 48
1, 71640, Note_on_c, 1, 72, 48
1, 71760, Note_on_c, 0, 76, 0
1, 71760, Note_on_c, 0, 78, 48
1, 71880, Note_on_c, 0, 78, 0
1, 71880, Note_on_c, 0, 81, 48
1, 72000, Note_on_c, 0, 81, 0
1, 72000, Note_on_c, 0, 69, 0
1, 72000, Note_on_c, 0, 76, 48
1, 72000, Note_on_c, 0, 71, 48
1, 72000, Note_on_c, 1, 72, 0
1, 72000, Note_on_c, 1, 69, 0
1, 72000, Note_on_c, 1, 59, 48
1, 72000, Note_on_c, 1, 67, 48
1, 72360, Note_on_c, 0, 71, 0
1, 72360, Note_on_c, 0, 76, 0
1, 72360, Note_on_c, 0, 69, 48
1, 72360, Note_on_c, 1, 67, 0
1, 72360, Note_on_c, 1, 59, 0
1, 72360, Note_on_c, 1, 66, 48
1, 72480, Note_on_c, 0, 78, 48
1, 72528, Note_on_c, 0, 78, 0
1, 72600, Note_on_c, 0, 75, 48
1, 72648, Note_on_c, 0, 75, 0
1, 72718, Note_on_c, 0, 69, 0
1, 72718, Note_on_c, 1, 66, 0
1, 72720, Note_on_c, 0, 67, 48
1, 72720, Note_on_c, 0, 76, 48
1, 72720, Note_on_c, 1, 64, 48
1, 72720, Note_on_c, 1, 64, 48
1, 73080, Note_on_c, 0, 76, 0
1, 73080, Note_on_c, 0, 67, 0
1, 73080, Note_on_c, 1, 64, 0
1, 73080, Note_on_c, 1, 64, 0
1, 73440, Note_on_c, 1, 40, 80
1, 73560, Note_on_c, 0, 67, 80
1, 73560, Note_on_c, 0, 71, 80
1, 73678, Note_on_c, 0, 71, 0
1, 73678, Note_on_c, 0, 67, 0
1, 73678, Note_on_c, 1, 40, 0
1, 73680, Note_on_c, 0, 66, 80
1, 73680, Note_on_c, 0, 69, 80
1, 73798, Note_on_c, 0, 69, 0
1, 73798, Note_on_c, 0, 66, 0
1, 73800, Note_on_c, 0, 64, 80
1, 73800, Note_on_c, 0, 67, 80
1, 73848, Note_on_c, 0, 67, 0
1, 73848, Note_on_c, 0, 64, 0
1, 73920, Note_on_c, 0, 71, 80
1, 73920, Note_on_c, 0, 79, 80
1, 73968, Note_on_c, 0, 79, 0
1, 73968, Note_on_c, 0, 71, 0
1, 74040, Note_on_c, 0, 67, 80
1, 74040, Note_on_c, 0, 76, 80
1, 74040, Note_on_c, 1, 52, 80
1, 74040, Note_on_c, 1, 55, 80
1, 74088, Note_on_c, 0, 76, 0
1, 74088, Note_on_c, 0, 67, 0
1, 74088, Note_on_c, 1, 55, 0
1, 74088, Note_on_c, 1, 52, 0
1, 74160, Note_on_c, 0, 66, 80
1, 74160, Note_on_c, 0, 75, 80
1, 74160, Note_on_c, 1, 54, 80
1, 74160, Note_on_c, 1, 57, 80
1, 74278, Note_on_c, 0, 75, 0
1, 74278, Note_on_c, 0, 66, 0
1, 74280, Note_on_c, 0, 78, 80
1, 74280, Note_on_c, 0, 81, 80
1, 74398, Note_on_c, 0, 81, 0
1, 74398, Note_on_c, 0, 78, 0
1, 74398, Note_on_c, 1, 57, 0
1, 74398, Note_on_c, 1, 54, 0
1, 74400, Note_on_c, 0, 76, 80
1, 74400, Note_on_c, 0, 79, 80
1, 74518, Note_on_c, 0, 79, 0
1, 74518, Note_on_c, 0, 76, 0
1, 74520, Note_on_c, 0, 75, 80
1, 74520, Note_on_c, 0, 78, 80
1, 74568, Note_on_c, 0, 78, 0
1, 74568, Note_on_c, 0, 75, 0
1, 74640, Note_on_c, 0, 81, 80
1, 74640, Note_on_c, 0, 84, 80
1, 74640, Note_on_c, 1, 59, 80
1, 74640, Note_on_c, 1, 63, 80
1, 74688, Note_on_c, 0, 84, 0
1, 74688, Note_on_c, 0, 81, 0
1, 74688, Note_on_c, 1, 63, 0
1, 74688, Note_on_c, 1, 59, 0
1, 74760, Note_on_c, 0, 78, 80
1, 74760, Note_on_c, 0, 81, 80
1, 74760, Note_on_c, 1, 63, 80
1, 74760, Note_on_c, 1, 66, 80
1, 74808, Note_on_c, 0, 81, 0
1, 74808, Note_on_c, 0, 78, 0
1, 74808, Note_on_c, 1, 66, 0
1, 74808, Note_on_c, 1, 63, 0
1, 74880, Note_on_c, 0, 79, 80
1, 74880, Note_on_c, 0, 76, 80
1, 74880, Note_on_c, 1, 64, 80
1, 74880, Note_on_c, 1, 67, 80
1, 75000, Note_on_c, 0, 79, 0
1, 75000, Note_on_c, 0, 83, 80
1, 75120, Note_on_c, 0, 76, 0
1, 75120, Note_on_c, 0, 71, 80
1, 75120, Note_on_c, 1, 67, 0
1, 75120, Note_on_c, 1, 64, 0
1, 75120, Note_on_c, 1, 67, 80
1, 75240, Note_on_c, 0, 71, 0
1, 75240, Note_on_c, 0, 72, 80
1, 75240, Note_on_c, 1, 67, 0
1, 75240, Note_on_c, 1, 69, 80
1, 75360, Note_on_c, 0, 83, 0
1, 75360, Note_on_c, 0, 81, 80
1, 75360, Note_on_c, 1, 69, 0
1, 75360, Note_on_c, 1, 66, 80
1, 75480, Note_on_c, 1, 66, 0
1, 75480, Note_on_c, 1, 64, 80
1, 75600, Note_on_c, 0, 72, 0
1, 75600, Note_on_c, 0, 71, 80
1, 75600, Note_on_c, 1, 64, 0
1, 75600, Note_on_c, 1, 63, 80
1, 75720, Note_on_c, 0, 81, 0
1, 75720, Note_on_c, 0, 79, 80
1, 75720, Note_on_c, 1, 63, 0
1, 75720, Note_on_c, 1, 64, 80
1, 75840, Note_on_c, 0, 79, 0
1, 75840, Note_on_c, 0, 71, 0
1, 75840, Note_on_c, 0, 76, 80
1, 75840, Note_on_c, 0, 77, 80
1, 75840, Note_on_c, 1, 64, 0
1, 75840, Note_on_c, 1, 67, 80
1, 75960, Note_on_c, 1, 67, 0
1, 75960, Note_on_c, 1, 69, 80
1, 76080, Note_on_c, 0, 76, 0
1, 76080, Note_on_c, 0, 74, 80
1, 76080, Note_on_c, 1, 69, 0
1, 76080, Note_on_c, 1, 71, 80
1, 76200, Note_on_c, 0, 77, 0
1, 76200, Note_on_c, 1, 71, 0
1, 76200, Note_on_c, 1, 69, 80
1, 76320, Note_on_c, 0, 76, 80
1, 76320, Note_on_c, 1, 69, 0
1, 76320, Note_on_c, 1, 68, 80
1, 76440, Note_on_c, 0, 74, 0
1, 76440, Note_on_c, 0, 72, 80
1, 76440, Note_on_c, 1, 68, 0
1, 76440, Note_on_c, 1, 69, 80
1, 76560, Note_on_c, 1, 69, 0
1, 76560, Note_on_c, 1, 67, 80
1, 76680, Note_on_c, 0, 76, 0
1, 76680, Note_on_c, 0, 74, 80
1, 76680, Note_on_c, 1, 67, 0
1, 76680, Note_on_c, 1, 66, 80
1, 76800, Note_on_c, 0, 72, 0
1, 76800, Note_on_c, 0, 71, 80
1, 76800, Note_on_c, 1, 66, 0
1, 76800, Note_on_c, 1, 67, 80
1, 76920, Note_on_c, 1, 67, 0
1, 76920, Note_on_c, 1, 66, 80
1, 77040, Note_on_c, 0, 74, 0
1, 77040, Note_on_c, 0, 72, 80
1, 77040, Note_on_c, 1, 66, 0
1, 77040, Note_on_c, 1, 64, 80
1, 77160, Note_on_c, 0, 71, 0
1, 77160, Note_on_c, 0, 69, 80
1, 77160, Note_on_c, 1, 64, 0
1, 77160, Note_on_c, 1, 66, 80
1, 77280, Note_on_c, 1, 66, 0
1, 77280, Note_on_c, 1, 64, 80
1, 77400, Note_on_c, 0, 72, 0
1, 77400, Note_on_c, 0, 71, 80
1, 77400, Note_on_c, 1, 64, 0
1, 77400, Note_on_c, 1, 63, 80
1, 77520, Note_on_c, 0, 69, 0
1, 77520, Note_on_c, 0, 67, 80
1, 77520, Note_on_c, 1, 63, 0
1, 77520, Note_on_c, 1, 64, 80
1, 77640, Note_on_c, 0, 67, 0
1, 77640, Note_on_c, 0, 71, 0
1, 77640, Note_on_c, 0, 76, 80
1, 77640, Note_on_c, 0, 64, 80
1, 77640, Note_on_c, 1, 64, 0
1, 77640, Note_on_c, 1, 55, 80
1, 77760, Note_on_c, 0, 64, 0
1, 77760, Note_on_c, 0, 76, 0
1, 77760, Note_on_c, 0, 65, 80
1, 77760, Note_on_c, 0, 76, 80
1, 77760, Note_on_c, 1, 55, 0
1, 77760, Note_on_c, 1, 56, 80
1, 77880, Note_on_c, 0, 76, 0
1, 77880, Note_on_c, 0, 65, 0
1, 77880, Note_on_c, 0, 66, 80
1, 77880, Note_on_c, 0, 76, 80
1, 77880, Note_on_c, 1, 56, 0
1, 77880, Note_on_c, 1, 57, 80
1, 78000, Note_on_c, 0, 76, 0
1, 78000, Note_on_c, 0, 66, 0
1, 78000, Note_on_c, 0, 67, 80
1, 78000, Note_on_c, 0, 76, 80
1, 78000, Note_on_c, 1, 57, 0
1, 78000, Note_on_c, 1, 58, 80
1, 78120, Note_on_c, 0, 76, 0
1, 78120, Note_on_c, 0, 67, 0
1, 78120, Note_on_c, 0, 68, 80
1, 78120, Note_on_c, 0, 76, 80
1, 78120, Note_on_c, 1, 58, 0
1, 78120, Note_on_c, 1, 59, 80
1, 78168, Note_on_c, 0, 76, 0
1, 78168, Note_on_c, 0, 68, 0
1, 78168, Note_on_c, 1, 59, 0
1, 78240, Note_on_c, 0, 69, 80
1, 78240, Note_on_c, 0, 76, 80
1, 78240, Note_on_c, 1, 60, 80
1, 78288, Note_on_c, 0, 76, 0
1, 78288, Note_on_c, 0, 69, 0
1, 78288, Note_on_c, 1, 60, 0
1, 78360, Note_on_c, 0, 70, 80
1, 78360, Note_on_c, 0, 76, 80
1, 78360, Note_on_c, 1, 61, 80
1, 78408, Note_on_c, 0, 76, 0
1, 78408, Note_on_c, 0, 70, 0
1, 78408, Note_on_c, 1, 61, 0
1, 78480, Note_on_c, 0, 71, 80
1, 78480, Note_on_c, 0, 76, 80
1, 78480, Note_on_c, 1, 67, 80
1, 78480, Note_on_c, 1, 59, 80
1, 78768, Note_on_c, 0, 71, 0
1, 78768, Note_on_c, 1, 67, 0
1, 78840, Note_on_c, 0, 69, 80
1, 78840, Note_on_c, 1, 66, 80
1, 78936, Note_on_c, 0, 76, 0
1, 78960, Note_on_c, 0, 78, 80
1, 79056, Note_on_c, 0, 78, 0
1, 79080, Note_on_c, 0, 75, 80
1, 79128, Note_on_c, 1, 66, 0
1, 79128, Note_on_c, 1, 59, 0
1, 79176, Note_on_c, 0, 75, 0
1, 79176, Note_on_c, 0, 69, 0
1, 79200, Note_on_c, 0, 76, 85
1, 79200, Note_on_c, 1, 52, 85
1, 79200, Note_on_c, 1, 64, 85
1, 79258, Note_on_c, 0, 76, 0
1, 79260, Note_on_c, 0, 71, 85
1, 79318, Note_on_c, 0, 71, 0
1, 79320, Note_on_c, 0, 67, 85
1, 79378, Note_on_c, 0, 67, 0
1, 79380, Note_on_c, 0, 71, 85
1, 79392, Note_on_c, 1, 64, 0
1, 79392, Note_on_c, 1, 52, 0
1, 79438, Note_on_c, 0, 71, 0
1, 79440, Note_on_c, 0, 69, 85
1, 79440, Note_on_c, 1, 59, 85
1, 79440, Note_on_c, 1, 63, 85
1, 79488, Note_on_c, 1, 63, 0
1, 79488, Note_on_c, 1, 59, 0
1, 79498, Note_on_c, 0, 69, 0
1, 79500, Note_on_c, 0, 71, 85
1, 79558, Note_on_c, 0, 71, 0
1, 79560, Note_on_c, 0, 67, 85
1, 79560, Note_on_c, 1, 52, 85
1, 79560, Note_on_c, 1, 64, 85
1, 79618, Note_on_c, 0, 67, 0
1, 79620, Note_on_c, 0, 71, 85
1, 79678, Note_on_c, 0, 71, 0
1, 79680, Note_on_c, 0, 76, 85
1, 79738, Note_on_c, 0, 76, 0
1, 79740, Note_on_c, 0, 71, 85
1, 79752, Note_on_c, 1, 64, 0
1, 79752, Note_on_c, 1, 52, 0
1, 79798, Note_on_c, 0, 71, 0
1, 79800, Note_on_c, 0, 78, 85
1, 79800, Note_on_c, 1, 59, 85
1, 79800, Note_on_c, 1, 63, 85
1, 79848, Note_on_c, 1, 63, 0
1, 79848, Note_on_c, 1, 59, 0
1, 79858, Note_on_c, 0, 78, 0
1, 79860, Note_on_c, 0, 71, 85
1, 79918, Note_on_c, 0, 71, 0
1, 79920, Note_on_c, 0, 79, 85
1, 79920, Note_on_c, 1, 52, 85
1, 79920, Note_on_c, 1, 64, 85
1, 79978, Note_on_c, 0, 79, 0
1, 79980, Note_on_c, 0, 71, 85
1, 80038, Note_on_c, 0, 71, 0
1, 80040, Note_on_c, 0, 67, 85
1, 80098, Note_on_c, 0, 67, 0
1, 80100, Note_on_c, 0, 71, 85
1, 80112, Note_on_c, 1, 64, 0
1, 80112, Note_on_c, 1, 52, 0
1, 80158, Note_on_c, 0, 71, 0
1, 80160, Note_on_c, 0, 69, 85
1, 80160, Note_on_c, 1, 59, 85
1, 80160, Note_on_c, 1, 63, 85
1, 80208, Note_on_c, 1, 63, 0
1, 80208, Note_on_c, 1, 59, 0
1, 80218, Note_on_c, 0, 69, 0
1, 80220, Note_on_c, 0, 71, 85
1, 80278, Note_on_c, 0, 71, 0
1, 80280, Note_on_c, 0, 67, 85
1, 80280, Note_on_c, 1, 52, 85
1, 80280, Note_on_c, 1, 64, 85
1, 80338, Note_on_c, 0, 67, 0
1, 80340, Note_on_c, 0, 71, 85
1, 80398, Note_on_c, 0, 71, 0
1, 80400, Note_on_c, 0, 76, 85
1, 80458, Note_on_c, 0, 76, 0
1, 80460, Note_on_c, 0, 71, 85
1, 80472, Note_on_c, 1, 64, 0
1, 80472, Note_on_c, 1, 52, 0
1, 80518, Note_on_c, 0, 71, 0
1, 80520, Note_on_c, 0, 78, 85
1, 80520, Note_on_c, 1, 59, 85
1, 80520, Note_on_c, 1, 63, 85
1, 80568, Note_on_c, 1, 63, 0
1, 80568, Note_on_c, 1, 59, 0
1, 80578, Note_on_c, 0, 78, 0
1, 80580, Note_on_c, 0, 71, 85
1, 80638, Note_on_c, 0, 71, 0
1, 80640, Note_on_c, 0, 79, 85
1, 80640, Note_on_c, 1, 64, 85
1, 80698, Note_on_c, 1, 64, 0
1, 80700, Note_on_c, 1, 71, 85
1, 80758, Note_on_c, 1, 71, 0
1, 80760, Note_on_c, 1, 67, 85
1, 80818, Note_on_c, 1, 67, 0
1, 80820, Note_on_c, 1, 71, 85
1, 80878, Note_on_c, 1, 71, 0
1, 80880, Note_on_c, 1, 67, 85
1, 80938, Note_on_c, 1, 67, 0
1, 80940, Note_on_c, 1, 71, 85
1, 80998, Note_on_c, 0, 79, 0
1, 80998, Note_on_c, 1, 71, 0
1, 81000, Note_on_c, 0, 77, 85
1, 81000, Note_on_c, 1, 62, 85
1, 81058, Note_on_c, 1, 62, 0
1, 81060, Note_on_c, 1, 71, 85
1, 81118, Note_on_c, 1, 71, 0
1, 81120, Note_on_c, 1, 67, 85
1, 81178, Note_on_c, 1, 67, 0
1, 81180, Note_on_c, 1, 71, 85
1, 81238, Note_on_c, 1, 71, 0
1, 81240, Note_on_c, 1, 62, 85
1, 81298, Note_on_c, 1, 62, 0
1, 81300, Note_on_c, 1, 71, 85
1, 81358, Note_on_c, 0, 77, 0
1, 81358, Note_on_c, 1, 71, 0
1, 81360, Note_on_c, 0, 76, 85
1, 81360, Note_on_c, 1, 60, 85
1, 81418, Note_on_c, 0, 76, 0
1, 81420, Note_on_c, 0, 79, 85
1, 81478, Note_on_c, 0, 79, 0
1, 81480, Note_on_c, 0, 76, 85
1, 81538, Note_on_c, 0, 76, 0
1, 81540, Note_on_c, 0, 79, 85
1, 81552, Note_on_c, 1, 60, 0
1, 81598, Note_on_c, 0, 79, 0
1, 81600, Note_on_c, 0, 77, 85
1, 81600, Note_on_c, 1, 67, 85
1, 81600, Note_on_c, 1, 71, 85
1, 81648, Note_on_c, 1, 71, 0
1, 81648, Note_on_c, 1, 67, 0
1, 81658, Note_on_c, 0, 77, 0
1, 81660, Note_on_c, 0, 79, 85
1, 81718, Note_on_c, 0, 79, 0
1, 81720, Note_on_c, 0, 76, 85
1, 81720, Note_on_c, 1, 60, 85
1, 81720, Note_on_c, 1, 72, 85
1, 81778, Note_on_c, 0, 76, 0
1, 81780, Note_on_c, 0, 79, 85
1, 81838, Note_on_c, 0, 79, 0
1, 81840, Note_on_c, 0, 84, 85
1, 81898, Note_on_c, 0, 84, 0
1, 81900, Note_on_c, 0, 79, 85
1, 81912, Note_on_c, 1, 72, 0
1, 81912, Note_on_c, 1, 60, 0
1, 81958, Note_on_c, 0, 79, 0
1, 81960, Note_on_c, 0, 86, 85
1, 81960, Note_on_c, 1, 67, 85
1, 81960, Note_on_c, 1, 71, 85
1, 82008, Note_on_c, 1, 71, 0
1, 82008, Note_on_c, 1, 67, 0
1, 82018, Note_on_c, 0, 86, 0
1, 82020, Note_on_c, 0, 79, 85
1, 82078, Note_on_c, 0, 79, 0
1, 82080, Note_on_c, 0, 88, 85
1, 82080, Note_on_c, 1, 60, 85
1, 82080, Note_on_c, 1, 72, 85
1, 82138, Note_on_c, 0, 88, 0
1, 82140, Note_on_c, 0, 79, 85
1, 82198, Note_on_c, 0, 79, 0
1, 82200, Note_on_c, 0, 76, 85
1, 82258, Note_on_c, 0, 76, 0
1, 82260, Note_on_c, 0, 79, 85
1, 82272, Note_on_c, 1, 72, 0
1, 82272, Note_on_c, 1, 60, 0
1, 82318, Note_on_c, 0, 79, 0
1, 82320, Note_on_c, 0, 77, 85
1, 82320, Note_on_c, 1, 67, 85
1, 82320, Note_on_c, 1, 71, 85
1, 82368, Note_on_c, 1, 71, 0
1, 82368, Note_on_c, 1, 67, 0
1, 82378, Note_on_c, 0, 77, 0
1, 82380, Note_on_c, 0, 79, 85
1, 82438, Note_on_c, 0, 79, 0
1, 82440, Note_on_c, 0, 76, 85
1, 82440, Note_on_c, 1, 60, 85
1, 82440, Note_on_c, 1, 72, 85
1, 82498, Note_on_c, 0, 76, 0
1, 82500, Note_on_c, 0, 79, 85
1, 82558, Note_on_c, 0, 79, 0
1, 82560, Note_on_c, 0, 84, 85
1, 82618, Note_on_c, 0, 84, 0
1, 82620, Note_on_c, 0, 79, 85
1, 82632, Note_on_c, 1, 72, 0
1, 82632, Note_on_c, 1, 60, 0
1, 82678, Note_on_c, 0, 79, 0
1, 82680, Note_on_c, 0, 86, 85
1, 82680, Note_on_c, 1, 67, 85
1, 82680, Note_on_c, 1, 71, 85
1, 82728, Note_on_c, 1, 71, 0
1, 82728, Note_on_c, 1, 67, 0
1, 82738, Note_on_c, 0, 86, 0
1, 82740, Note_on_c, 0, 79, 85
1, 82798, Note_on_c, 0, 79, 0
1, 82800, Note_on_c, 0, 88, 85
1, 82800, Note_on_c, 1, 72, 85
1, 82858, Note_on_c, 1, 72, 0
1, 82860, Note_on_c, 1, 76, 85
1, 82918, Note_on_c, 0, 88, 0
1, 82918, Note_on_c, 1, 76, 0
1, 82920, Note_on_c, 0, 81, 85
1, 82920, Note_on_c, 1, 72, 85
1, 82968, Note_on_c, 0, 81, 0
1, 82978, Note_on_c, 1, 72, 0
1, 82980, Note_on_c, 1, 76, 85
1, 83038, Note_on_c, 1, 76, 0
1, 83040, Note_on_c, 0, 81, 85
1, 83040, Note_on_c, 1, 72, 85
1, 83088, Note_on_c, 0, 81, 0
1, 83098, Note_on_c, 1, 72, 0
1, 83100, Note_on_c, 1, 76, 85
1, 83158, Note_on_c, 1, 76, 0
1, 83160, Note_on_c, 0, 86, 85
1, 83160, Note_on_c, 1, 71, 85
1, 83218, Note_on_c, 1, 71, 0
1, 83220, Note_on_c, 1, 74, 85
1, 83278, Note_on_c, 0, 86, 0
1, 83278, Note_on_c, 1, 74, 0
1, 83280, Note_on_c, 0, 80, 85
1, 83280, Note_on_c, 1, 71, 85
1, 83328, Note_on_c, 0, 80, 0
1, 83338, Note_on_c, 1, 71, 0
1, 83340, Note_on_c, 1, 74, 85
1, 83398, Note_on_c, 1, 74, 0
1, 83400, Note_on_c, 0, 80, 85
1, 83400, Note_on_c, 1, 71, 85
1, 83448, Note_on_c, 0, 80, 0
1, 83458, Note_on_c, 1, 71, 0
1, 83460, Note_on_c, 1, 74, 85
1, 83518, Note_on_c, 1, 74, 0
1, 83520, Note_on_c, 0, 84, 85
1, 83520, Note_on_c, 1, 69, 85
1, 83578, Note_on_c, 1, 69, 0
1, 83580, Note_on_c, 1, 72, 85
1, 83638, Note_on_c, 0, 84, 0
1, 83638, Note_on_c, 1, 72, 0
1, 83640, Note_on_c, 0, 77, 85
1, 83640, Note_on_c, 1, 69, 85
1, 83688, Note_on_c, 0, 77, 0
1, 83698, Note_on_c, 1, 69, 0
1, 83700, Note_on_c, 1, 72, 85
1, 83758, Note_on_c, 1, 72, 0
1, 83760, Note_on_c, 0, 77, 85
1, 83760, Note_on_c, 1, 69, 85
1, 83808, Note_on_c, 0, 77, 0
1, 83818, Note_on_c, 1, 69, 0
1, 83820, Note_on_c, 1, 72, 85
1, 83878, Note_on_c, 1, 72, 0
1, 83880, Note_on_c, 0, 83, 85
1, 83880, Note_on_c, 1, 67, 85
1, 83938, Note_on_c, 1, 67, 0
1, 83940, Note_on_c, 1, 71, 85
1, 83998, Note_on_c, 0, 83, 0
1, 83998, Note_on_c, 1, 71, 0
1, 84000, Note_on_c, 0, 76, 85
1, 84000, Note_on_c, 1, 67, 85
1, 84048, Note_on_c, 0, 76, 0
1, 84058, Note_on_c, 1, 67, 0
1, 84060, Note_on_c, 1, 71, 85
1, 84118, Note_on_c, 1, 71, 0
1, 84120, Note_on_c, 0, 76, 85
1, 84120, Note_on_c, 1, 67, 85
1, 84168, Note_on_c, 0, 76, 0
1, 84178, Note_on_c, 1, 67, 0
1, 84180, Note_on_c, 1, 71, 85
1, 84238, Note_on_c, 1, 71, 0
1, 84240, Note_on_c, 0, 81, 85
1, 84240, Note_on_c, 1, 66, 85
1, 84298, Note_on_c, 1, 66, 0
1, 84300, Note_on_c, 1, 69, 85
1, 84358, Note_on_c, 0, 81, 0
1, 84358, Note_on_c, 1, 69, 0
1, 84360, Note_on_c, 0, 75, 85
1, 84360, Note_on_c, 1, 66, 85
1, 84408, Note_on_c, 0, 75, 0
1, 84418, Note_on_c, 1, 66, 0
1, 84420, Note_on_c, 1, 69, 85
1, 84478, Note_on_c, 1, 69, 0
1, 84480, Note_on_c, 0, 75, 85
1, 84480, Note_on_c, 1, 66, 85
1, 84528, Note_on_c, 0, 75, 0
1, 84538, Note_on_c, 1, 66, 0
1, 84540, Note_on_c, 1, 69, 85
1, 84598, Note_on_c, 1, 69, 0
1, 84600, Note_on_c, 0, 79, 85
1, 84600, Note_on_c, 1, 64, 85
1, 84658, Note_on_c, 1, 64, 0
1, 84660, Note_on_c, 1, 67, 85
1, 84718, Note_on_c, 0, 79, 0
1, 84718, Note_on_c, 1, 67, 0
1, 84720, Note_on_c, 0, 70, 85
1, 84720, Note_on_c, 1, 64, 85
1, 84768, Note_on_c, 0, 70, 0
1, 84778, Note_on_c, 1, 64, 0
1, 84780, Note_on_c, 1, 67, 85
1, 84838, Note_on_c, 1, 67, 0
1, 84840, Note_on_c, 0, 70, 85
1, 84840, Note_on_c, 1, 64, 85
1, 84888, Note_on_c, 0, 70, 0
1, 84898, Note_on_c, 1, 64, 0
1, 84900, Note_on_c, 1, 67, 85
1, 84958, Note_on_c, 1, 67, 0
1, 84960, Note_on_c, 0, 78, 85
1, 84960, Note_on_c, 1, 63, 85
1, 85018, Note_on_c, 1, 63, 0
1, 85020, Note_on_c, 1, 66, 85
1, 85078, Note_on_c, 0, 78, 0
1, 85078, Note_on_c, 1, 66, 0
1, 85080, Note_on_c, 0, 71, 85
1, 85080, Note_on_c, 1, 63, 85
1, 85128, Note_on_c, 0, 71, 0
1, 85138, Note_on_c, 1, 63, 0
1, 85140, Note_on_c, 1, 66, 85
1, 85198, Note_on_c, 1, 66, 0
1, 85200, Note_on_c, 0, 71, 85
1, 85200, Note_on_c, 1, 63, 85
1, 85248, Note_on_c, 0, 71, 0
1, 85258, Note_on_c, 1, 63, 0
1, 85260, Note_on_c, 1, 66, 85
1, 85318, Note_on_c, 1, 66, 0
1, 85320, Note_on_c, 0, 81, 85
1, 85320, Note_on_c, 1, 63, 85
1, 85378, Note_on_c, 1, 63, 0
1, 85380, Note_on_c, 1, 66, 85
1, 85438, Note_on_c, 0, 81, 0
1, 85438, Note_on_c, 1, 66, 0
1, 85440, Note_on_c, 0, 69, 85
1, 85440, Note_on_c, 1, 63, 85
1, 85488, Note_on_c, 0, 69, 0
1, 85498, Note_on_c, 1, 63, 0
1, 85500, Note_on_c, 1, 66, 85
1, 85558, Note_on_c, 1, 66, 0
1, 85560, Note_on_c, 0, 69, 85
1, 85560, Note_on_c, 1, 63, 85
1, 85608, Note_on_c, 0, 69, 0
1, 85618, Note_on_c, 1, 63, 0
1, 85620, Note_on_c, 1, 66, 85
1, 85678, Note_on_c, 1, 66, 0
1, 85680, Note_on_c, 0, 79, 85
1, 85680, Note_on_c, 1, 52, 85
1, 85680, Note_on_c, 1, 64, 85
1, 85738, Note_on_c, 0, 79, 0
1, 85740, Note_on_c, 0, 71, 85
1, 85798, Note_on_c, 0, 71, 0
1, 85800, Note_on_c, 0, 67, 85
1, 85858, Note_on_c, 0, 67, 0
1, 85860, Note_on_c, 0, 71, 85
1, 85872, Note_on_c, 1, 64, 0
1, 85872, Note_on_c, 1, 52, 0
1, 85918, Note_on_c, 0, 71, 0
1, 85920, Note_on_c, 0, 69, 85
1, 85920, Note_on_c, 1, 59, 85
1, 85920, Note_on_c, 1, 63, 85
1, 85968, Note_on_c, 1, 63, 0
1, 85968, Note_on_c, 1, 59, 0
1, 85978, Note_on_c, 0, 69, 0
1, 85980, Note_on_c, 0, 71, 85
1, 86038, Note_on_c, 0, 71, 0
1, 86040, Note_on_c, 0, 67, 85
1, 86040, Note_on_c, 1, 52, 85
1, 86040, Note_on_c, 1, 64, 85
1, 86098, Note_on_c, 0, 67, 0
1, 86100, Note_on_c, 0, 71, 85
1, 86158, Note_on_c, 0, 71, 0
1, 86160, Note_on_c, 0, 76, 85
1, 86218, Note_on_c, 0, 76, 0
1, 86220, Note_on_c, 0, 71, 85
1, 86232, Note_on_c, 1, 64, 0
1, 86232, Note_on_c, 1, 52, 0
1, 86278, Note_on_c, 0, 71, 0
1, 86280, Note_on_c, 0, 78, 85
1, 86280, Note_on_c, 1, 59, 85
1, 86280, Note_on_c, 1, 63, 85
1, 86328, Note_on_c, 1, 63, 0
1, 86328, Note_on_c, 1, 59, 0
1, 86338, Note_on_c, 0, 78, 0
1, 86340, Note_on_c, 0, 71, 85
1, 86398, Note_on_c, 0, 71, 0
1, 86400, Note_on_c, 0, 79, 85
1, 86400, Note_on_c, 1, 52, 85
1, 86400, Note_on_c, 1, 64, 85
1, 86458, Note_on_c, 0, 79, 0
1, 86460, Note_on_c, 0, 71, 85
1, 86518, Note_on_c, 0, 71, 0
1, 86520, Note_on_c, 0, 67, 85
1, 86578, Note_on_c, 0, 67, 0
1, 86580, Note_on_c, 0, 71, 85
1, 86592, Note_on_c, 1, 64, 0
1, 86592, Note_on_c, 1, 52, 0
1, 86638, Note_on_c, 0, 71, 0
1, 86640, Note_on_c, 0, 69, 85
1, 86640, Note_on_c, 1, 59, 85
1, 86640, Note_on_c, 1, 63, 85
1, 86688, Note_on_c, 1, 63, 0
1, 86688, Note_on_c, 1, 59, 0
1, 86698, Note_on_c, 0, 69, 0
1, 86700, Note_on_c, 0, 71, 85
1, 86758, Note_on_c, 0, 71, 0
1, 86760, Note_on_c, 0, 67, 85
1, 86760, Note_on_c, 1, 52, 85
1, 86760, Note_on_c, 1, 64, 85
1, 86818, Note_on_c, 0, 67, 0
1, 86820, Note_on_c, 0, 71, 85
1, 86878, Note_on_c, 0, 71, 0
1, 86880, Note_on_c, 0, 76, 85
1, 86938, Note_on_c, 0, 76, 0
1, 86940, Note_on_c, 0, 71, 85
1, 86952, Note_on_c, 1, 64, 0
1, 86952, Note_on_c, 1, 52, 0
1, 86998, Note_on_c, 0, 71, 0
1, 87000, Note_on_c, 0, 78, 85
1, 87000, Note_on_c, 1, 59, 85
1, 87000, Note_on_c, 1, 63, 85
1, 87048, Note_on_c, 1, 63, 0
1, 87048, Note_on_c, 1, 59, 0
1, 87058, Note_on_c, 0, 78, 0
1, 87060, Note_on_c, 0, 71, 85
1, 87118, Note_on_c, 0, 71, 0
1, 87120, Note_on_c, 0, 79, 85
1, 87120, Note_on_c, 1, 52, 85
1, 87120, Note_on_c, 1, 64, 85
1, 87178, Note_on_c, 0, 79, 0
1, 87180, Note_on_c, 0, 71, 85
1, 87238, Note_on_c, 0, 71, 0
1, 87240, Note_on_c, 0, 67, 85
1, 87298, Note_on_c, 0, 67, 0
1, 87300, Note_on_c, 0, 71, 85
1, 87358, Note_on_c, 0, 71, 0
1, 87358, Note_on_c, 1, 64, 0
1, 87358, Note_on_c, 1, 52, 0
1, 87360, Note_on_c, 0, 67, 85
1, 87418, Note_on_c, 0, 67, 0
1, 87420, Note_on_c, 0, 71, 85
1, 87478, Note_on_c, 0, 71, 0
1, 87480, Note_on_c, 0, 76, 85
1, 87480, Note_on_c, 1, 48, 85
1, 87480, Note_on_c, 1, 60, 85
1, 87538, Note_on_c, 0, 76, 0
1, 87540, Note_on_c, 0, 72, 85
1, 87598, Note_on_c, 0, 72, 0
1, 87600, Note_on_c, 0, 67, 85
1, 87658, Note_on_c, 0, 67, 0
1, 87660, Note_on_c, 0, 72, 85
1, 87718, Note_on_c, 0, 72, 0
1, 87718, Note_on_c, 1, 60, 0
1, 87718, Note_on_c, 1, 48, 0
1, 87720, Note_on_c, 0, 67, 85
1, 87778, Note_on_c, 0, 67, 0
1, 87780, Note_on_c, 0, 72, 85
1, 87838, Note_on_c, 0, 72, 0
1, 87840, Note_on_c, 0, 66, 85
1, 87840, Note_on_c, 1, 45, 85
1, 87840, Note_on_c, 1, 57, 85
1, 87898, Note_on_c, 0, 66, 0
1, 87900, Note_on_c, 0, 72, 85
1, 87958, Note_on_c, 0, 72, 0
1, 87960, Note_on_c, 0, 76, 85
1, 88018, Note_on_c, 0, 76, 0
1, 88020, Note_on_c, 0, 72, 85
1, 88078, Note_on_c, 0, 72, 0
1, 88078, Note_on_c, 1, 57, 0
1, 88078, Note_on_c, 1, 45, 0
1, 88080, Note_on_c, 0, 76, 85
1, 88138, Note_on_c, 0, 76, 0
1, 88140, Note_on_c, 0, 72, 85
1, 88198, Note_on_c, 0, 72, 0
1, 88200, Note_on_c, 0, 66, 85
1, 88200, Note_on_c, 1, 47, 85
1, 88200, Note_on_c, 1, 59, 85
1, 88258, Note_on_c, 0, 66, 0
1, 88260, Note_on_c, 0, 71, 85
1, 88318, Note_on_c, 0, 71, 0
1, 88320, Note_on_c, 0, 75, 85
1, 88378, Note_on_c, 0, 75, 0
1, 88380, Note_on_c, 0, 71, 85
1, 88438, Note_on_c, 0, 71, 0
1, 88438, Note_on_c, 1, 59, 0
1, 88438, Note_on_c, 1, 47, 0
1, 88440, Note_on_c, 0, 75, 85
1, 88498, Note_on_c, 0, 75, 0
1, 88500, Note_on_c, 0, 71, 85
1, 88558, Note_on_c, 0, 71, 0
1, 88560, Note_on_c, 0, 79, 85
1, 88560, Note_on_c, 1, 40, 85
1, 88560, Note_on_c, 1, 52, 85
1, 88618, Note_on_c, 0, 79, 0
1, 88620, Note_on_c, 0, 71, 85
1, 88678, Note_on_c, 0, 71, 0
1, 88680, Note_on_c, 0, 67, 85
1, 88738, Note_on_c, 0, 67, 0
1, 88740, Note_on_c, 0, 71, 85
1, 88798, Note_on_c, 0, 71, 0
1, 88798, Note_on_c, 1, 52, 0
1, 88798, Note_on_c, 1, 40, 0
1, 88800, Note_on_c, 0, 67, 85
1, 88858, Note_on_c, 0, 67, 0
1, 88860, Note_on_c, 0, 71, 85
1, 88918, Note_on_c, 0, 71, 0
1, 88920, Note_on_c, 0, 76, 85
1, 88920, Note_on_c, 1, 48, 85
1, 88920, Note_on_c, 1, 60, 85
1, 88978, Note_on_c, 0, 76, 0
1, 88980, Note_on_c, 0, 72, 85
1, 89038, Note_on_c, 0, 72, 0
1, 89040, Note_on_c, 0, 67, 85
1, 89098, Note_on_c, 0, 67, 0
1, 89100, Note_on_c, 0, 72, 85
1, 89158, Note_on_c, 0, 72, 0
1, 89158, Note_on_c, 1, 60, 0
1, 89158, Note_on_c, 1, 48, 0
1, 89160, Note_on_c, 0, 67, 85
1, 89218, Note_on_c, 0, 67, 0
1, 89220, Note_on_c, 0, 72, 85
1, 89278, Note_on_c, 0, 72, 0
1, 89280, Note_on_c, 0, 66, 85
1, 89280, Note_on_c, 1, 45, 85
1, 89280, Note_on_c, 1, 57, 85
1, 89338, Note_on_c, 0, 66, 0
1, 89340, Note_on_c, 0, 72, 85
1, 89398, Note_on_c, 0, 72, 0
1, 89400, Note_on_c, 0, 76, 85
1, 89458, Note_on_c, 0, 76, 0
1, 89460, Note_on_c, 0, 72, 85
1, 89518, Note_on_c, 0, 72, 0
1, 89518, Note_on_c, 1, 57, 0
1, 89518, Note_on_c, 1, 45, 0
1, 89520, Note_on_c, 0, 76, 85
1, 89578, Note_on_c, 0, 76, 0
1, 89580, Note_on_c, 0, 72, 85
1, 89638, Note_on_c, 0, 72, 0
1, 89640, Note_on_c, 0, 66, 85
1, 89640, Note_on_c, 1, 47, 85
1, 89640, Note_on_c, 1, 59, 85
1, 89698, Note_on_c, 0, 66, 0
1, 89700, Note_on_c, 0, 71, 85
1, 89758, Note_on_c, 0, 71, 0
1, 89760, Note_on_c, 0, 75, 85
1, 89818, Note_on_c, 0, 75, 0
1, 89820, Note_on_c, 0, 71, 85
1, 89878, Note_on_c, 0, 71, 0
1, 89878, Note_on_c, 1, 59, 0
1, 89878, Note_on_c, 1, 47, 0
1, 89880, Note_on_c, 0, 75, 85
1, 89938, Note_on_c, 0, 75, 0
1, 89940, Note_on_c, 0, 71, 85
1, 89998, Note_on_c, 0, 71, 0
1, 90000, Note_on_c, 0, 76, 80
1, 90000, Note_on_c, 1, 40, 80
1, 90118, Note_on_c, 1, 40, 0
1, 90120, Note_on_c, 1, 43, 79
1, 90168, Note_on_c, 1, 43, 0
1, 90238, Note_on_c, 0, 76, 0
1, 90240, Note_on_c, 1, 47, 77
1, 90288, Note_on_c, 1, 47, 0
1, 90360, Note_on_c, 1, 52, 76
1, 90478, Note_on_c, 1, 52, 0
1, 90480, Note_on_c, 0, 59, 75
1, 90480, Note_on_c, 0, 67, 75
1, 90600, Note_on_c, 0, 67, 0
1, 90600, Note_on_c, 0, 59, 0
1, 90600, Note_on_c, 0, 57, 73
1, 90600, Note_on_c, 0, 63, 73
1, 90720, Note_on_c, 0, 63, 0
1, 90720, Note_on_c, 0, 57, 0
1, 90720, Note_on_c, 0, 55, 72
1, 90720, Note_on_c, 0, 64, 72
1, 90720, Note_on_c, 1, 40, 72
1, 90838, Note_on_c, 1, 40, 0
1, 90840, Note_on_c, 0, 64, 0
1, 90840, Note_on_c, 0, 55, 0
1, 90840, Note_on_c, 1, 43, 71
1, 90888, Note_on_c, 1, 43, 0
1, 90960, Note_on_c, 1, 47, 69
1, 91008, Note_on_c, 1, 47, 0
1, 91080, Note_on_c, 1, 52, 68
1, 91198, Note_on_c, 1, 52, 0
1, 91200, Note_on_c, 0, 67, 67
1, 91200, Note_on_c, 0, 71, 67
1, 91320, Note_on_c, 0, 71, 0
1, 91320, Note_on_c, 0, 67, 0
1, 91320, Note_on_c, 0, 63, 65
1, 91320, Note_on_c, 0, 66, 65
1, 91440, Note_on_c, 0, 66, 0
1, 91440, Note_on_c, 0, 63, 0
1, 91440, Note_on_c, 0, 64, 64
1, 91440, Note_on_c, 0, 67, 64
1, 91440, Note_on_c, 1, 40, 64
1, 91558, Note_on_c, 1, 40, 0
1, 91560, Note_on_c, 0, 67, 0
1, 91560, Note_on_c, 0, 64, 0
1, 91560, Note_on_c, 1, 43, 63
1, 91608, Note_on_c, 1, 43, 0
1, 91680, Note_on_c, 1, 47, 61
1, 91728, Note_on_c, 1, 47, 0
1, 91800, Note_on_c, 1, 52, 60
1, 91918, Note_on_c, 1, 52, 0
1, 91920, Note_on_c, 0, 79, 59
1, 91920, Note_on_c, 0, 83, 59
1, 92040, Note_on_c, 0, 83, 0
1, 92040, Note_on_c, 0, 79, 0
1, 92040, Note_on_c, 0, 78, 57
1, 92040, Note_on_c, 0, 81, 57
1, 92160, Note_on_c, 0, 81, 0
1, 92160, Note_on_c, 0, 78, 0
1, 92160, Note_on_c, 0, 76, 56
1, 92160, Note_on_c, 0, 79, 56
1, 92278, Note_on_c, 0, 79, 0
1, 92278, Note_on_c, 0, 76, 0
1, 92280, Note_on_c, 0, 76, 53
1, 92280, Note_on_c, 0, 88, 53
1, 92328, Note_on_c, 0, 88, 0
1, 92328, Note_on_c, 0, 76, 0
1, 92400, Note_on_c, 0, 76, 51
1, 92400, Note_on_c, 0, 88, 51
1, 92448, Note_on_c, 0, 88, 0
1, 92448, Note_on_c, 0, 76, 0
1, 92520, Note_on_c, 0, 76, 48
1, 92520, Note_on_c, 0, 88, 48
1, 92638, Note_on_c, 0, 88, 0
1, 92638, Note_on_c, 0, 76, 0
1, 92648, End_track
0, 0, End_of_file