0, 0, Header, 0, 1, 240
1, 0, Start_track
1, 0, Tempo, 500000
1, 0, Note_on_c, 0, 61, 85
1, 0, Note_on_c, 1, 37, 85
1, 0, Note_on_c, 1, 49, 85
1, 63, Note_on_c, 0, 61, 0
1, 63, Note_on_c, 1, 49, 0
1, 63, Note_on_c, 1, 37, 0
1, 90, Note_on_c, 0, 63, 85
1, 90, Note_on_c, 1, 51, 85
1, 120, Note_on_c, 0, 63, 0
1, 120, Note_on_c, 0, 61, 85
1, 120, Note_on_c, 1, 51, 0
1, 120, Note_on_c, 1, 49, 85
1, 150, Note_on_c, 0, 61, 0
1, 150, Note_on_c, 0, 60, 85
1, 150, Note_on_c, 1, 49, 0
1, 150, Note_on_c, 1, 48, 85
1, 180, Note_on_c, 0, 60, 0
1, 180, Note_on_c, 0, 61, 85
1, 180, Note_on_c, 1, 48, 0
1, 180, Note_on_c, 1, 49, 85
1, 210, Note_on_c, 0, 61, 0
1, 210, Note_on_c, 0, 63, 85
1, 210, Note_on_c, 1, 49, 0
1, 210, Note_on_c, 1, 51, 85
1, 240, Note_on_c, 0, 63, 0
1, 240, Note_on_c, 0, 64, 85
1, 240, Note_on_c, 1, 51, 0
1, 240, Note_on_c, 1, 52, 85
1, 360, Note_on_c, 0, 64, 0
1, 360, Note_on_c, 0, 63, 85
1, 360, Note_on_c, 1, 52, 0
1, 360, Note_on_c, 1, 51, 85
1, 420, Note_on_c, 0, 63, 0
1, 420, Note_on_c, 1, 51, 0
1, 480, Note_on_c, 0, 61, 85
1, 480, Note_on_c, 1, 49, 85
1, 540, Note_on_c, 0, 61, 0
1, 540, Note_on_c, 1, 49, 0
1, 600, Note_on_c, 0, 56, 85
1, 600, Note_on_c, 1, 44, 85
1, 660, Note_on_c, 0, 56, 0
1, 660, Note_on_c, 1, 44, 0
1, 720, Note_on_c, 0, 61, 85
1, 720, Note_on_c, 1, 49, 85
1, 780, Note_on_c, 0, 61, 0
1, 780, Note_on_c, 1, 49, 0
1, 840, Note_on_c, 0, 64, 85
1, 840, Note_on_c, 1, 52, 85
1, 900, Note_on_c, 0, 64, 0
1, 900, Note_on_c, 1, 52, 0
1, 960, Note_on_c, 0, 61, 85
1, 960, Note_on_c, 1, 49, 85
1, 1078, Note_on_c, 0, 61, 0
1, 1080, Note_on_c, 0, 68, 64
1, 1198, Note_on_c, 0, 68, 0
1, 1198, Note_on_c, 1, 49, 0
1, 1200, Note_on_c, 0, 68, 64
1, 1318, Note_on_c, 0, 68, 0
1, 1320, Note_on_c, 0, 68, 64
1, 1438, Note_on_c, 0, 68, 0
1, 1440, Note_on_c, 0, 69, 64
1, 1472, Note_on_c, 0, 69, 0
1, 1480, Note_on_c, 0, 68, 64
1, 1512, Note_on_c, 0, 68, 0
1, 1520, Note_on_c, 0, 67, 64
1, 1552, Note_on_c, 0, 67, 0
1, 1560, Note_on_c, 0, 68, 64
1, 1560, Note_on_c, 1, 61, 64
1, 1560, Note_on_c, 1, 64, 64
1, 1656, Note_on_c, 0, 68, 0
1, 1680, Note_on_c, 1, 64, 0
1, 1680, Note_on_c, 1, 61, 0
1, 1680, Note_on_c, 1, 60, 64
1, 1680, Note_on_c, 1, 63, 64
1, 1800, Note_on_c, 1, 63, 0
1, 1800, Note_on_c, 1, 60, 0
1, 1800, Note_on_c, 1, 61, 64
1, 1800, Note_on_c, 1, 64, 64
1, 1920, Note_on_c, 1, 64, 0
1, 1920, Note_on_c, 1, 61, 0
1, 1920, Note_on_c, 1, 63, 64
1, 1920, Note_on_c, 1, 66, 64
1, 2040, Note_on_c, 0, 68, 64
1, 2136, Note_on_c, 0, 68, 0
1, 2158, Note_on_c, 1, 66, 0
1, 2158, Note_on_c, 1, 63, 0
1, 2160, Note_on_c, 0, 68, 64
1, 2256, Note_on_c, 0, 68, 0
1, 2280, Note_on_c, 0, 68, 64
1, 2376, Note_on_c, 0, 68, 0
1, 2400, Note_on_c, 0, 69, 64
1, 2432, Note_on_c, 0, 69, 0
1, 2440, Note_on_c, 0, 68, 64
1, 2472, Note_on_c, 0, 68, 0
1, 2480, Note_on_c, 0, 67, 64
1, 2512, Note_on_c, 0, 67, 0
1, 2520, Note_on_c, 0, 68, 64
1, 2520, Note_on_c, 1, 63, 64
1, 2520, Note_on_c, 1, 66, 64
1, 2616, Note_on_c, 0, 68, 0
1, 2640, Note_on_c, 1, 66, 0
1, 2640, Note_on_c, 1, 63, 0
1, 2640, Note_on_c, 1, 61, 64
1, 2640, Note_on_c, 1, 64, 64
1, 2760, Note_on_c, 1, 64, 0
1, 2760, Note_on_c, 1, 61, 0
1, 2760, Note_on_c, 1, 63, 64
1, 2760, Note_on_c, 1, 66, 64
1, 2880, Note_on_c, 1, 66, 0
1, 2880, Note_on_c, 1, 63, 0
1, 2880, Note_on_c, 1, 64, 64
1, 2880, Note_on_c, 1, 68, 64
1, 3000, Note_on_c, 0, 73, 67
1, 3118, Note_on_c, 0, 73, 0
1, 3118, Note_on_c, 1, 68, 0
1, 3118, Note_on_c, 1, 64, 0
1, 3120, Note_on_c, 0, 73, 69
1, 3238, Note_on_c, 0, 73, 0
1, 3240, Note_on_c, 0, 73, 72
1, 3312, Note_on_c, 0, 73, 0
1, 3330, Note_on_c, 0, 75, 74
1, 3359, Note_on_c, 0, 75, 0
1, 3360, Note_on_c, 0, 73, 75
1, 3384, Note_on_c, 0, 73, 0
1, 3390, Note_on_c, 0, 72, 75
1, 3414, Note_on_c, 0, 72, 0
1, 3420, Note_on_c, 0, 73, 76
1, 3444, Note_on_c, 0, 73, 0
1, 3450, Note_on_c, 0, 75, 76
1, 3474, Note_on_c, 0, 75, 0
1, 3480, Note_on_c, 0, 76, 77
1, 3480, Note_on_c, 1, 52, 77
1, 3480, Note_on_c, 1, 56, 77
1, 3576, Note_on_c, 0, 76, 0
1, 3576, Note_on_c, 1, 56, 0
1, 3576, Note_on_c, 1, 52, 0
1, 3600, Note_on_c, 0, 76, 80
1, 3600, Note_on_c, 1, 52, 80
1, 3600, Note_on_c, 1, 56, 80
1, 3696, Note_on_c, 0, 76, 0
1, 3696, Note_on_c, 1, 56, 0
1, 3696, Note_on_c, 1, 52, 0
1, 3720, Note_on_c, 0, 76, 82
1, 3720, Note_on_c, 1, 52, 82
1, 3720, Note_on_c, 1, 56, 82
1, 3816, Note_on_c, 0, 76, 0
1, 3816, Note_on_c, 1, 56, 0
1, 3816, Note_on_c, 1, 52, 0
1, 3840, Note_on_c, 0, 76, 96
1, 3960, Note_on_c, 1, 54, 72
1, 3960, Note_on_c, 1, 57, 72
1, 4078, Note_on_c, 0, 76, 0
1, 4078, Note_on_c, 1, 57, 0
1, 4078, Note_on_c, 1, 54, 0
1, 4080, Note_on_c, 0, 74, 80
1, 4080, Note_on_c, 1, 54, 68
1, 4080, Note_on_c, 1, 57, 68
1, 4198, Note_on_c, 0, 74, 0
1, 4198, Note_on_c, 1, 57, 0
1, 4198, Note_on_c, 1, 54, 0
1, 4200, Note_on_c, 0, 81, 77
1, 4200, Note_on_c, 1, 54, 64
1, 4200, Note_on_c, 1, 57, 64
1, 4318, Note_on_c, 0, 81, 0
1, 4318, Note_on_c, 1, 57, 0
1, 4318, Note_on_c, 1, 54, 0
1, 4320, Note_on_c, 0, 73, 74
1, 4440, Note_on_c, 1, 56, 72
1, 4440, Note_on_c, 1, 64, 72
1, 4558, Note_on_c, 1, 64, 0
1, 4560, Note_on_c, 1, 63, 69
1, 4618, Note_on_c, 0, 73, 0
1, 4620, Note_on_c, 0, 72, 68
1, 4678, Note_on_c, 0, 72, 0
1, 4678, Note_on_c, 1, 63, 0
1, 4680, Note_on_c, 0, 75, 67
1, 4680, Note_on_c, 1, 66, 67
1, 4738, Note_on_c, 0, 75, 0
1, 4740, Note_on_c, 0, 72, 65
1, 4798, Note_on_c, 0, 72, 0
1, 4798, Note_on_c, 1, 66, 0
1, 4798, Note_on_c, 1, 56, 0
1, 4800, Note_on_c, 0, 73, 60
1, 4800, Note_on_c, 1, 61, 60
1, 4800, Note_on_c, 1, 64, 60
1, 5038, Note_on_c, 0, 73, 0
1, 5038, Note_on_c, 1, 64, 0
1, 5038, Note_on_c, 1, 61, 0
1, 5160, Note_on_c, 0, 69, 69
1, 5184, Note_on_c, 0, 69, 0
1, 5190, Note_on_c, 0, 66, 70
1, 5262, Note_on_c, 0, 66, 0
1, 5280, Note_on_c, 0, 68, 73
1, 5304, Note_on_c, 0, 68, 0
1, 5310, Note_on_c, 0, 64, 73
1, 5382, Note_on_c, 0, 64, 0
1, 5400, Note_on_c, 0, 66, 76
1, 5424, Note_on_c, 0, 66, 0
1, 5430, Note_on_c, 0, 63, 76
1, 5502, Note_on_c, 0, 63, 0
1, 5520, Note_on_c, 0, 64, 79
1, 5544, Note_on_c, 0, 64, 0
1, 5550, Note_on_c, 0, 61, 80
1, 5622, Note_on_c, 0, 61, 0
1, 5640, Note_on_c, 0, 63, 82
1, 5664, Note_on_c, 0, 63, 0
1, 5670, Note_on_c, 0, 60, 83
1, 5742, Note_on_c, 0, 60, 0
1, 5760, Note_on_c, 0, 61, 85
1, 5760, Note_on_c, 1, 37, 85
1, 5760, Note_on_c, 1, 49, 85
1, 5832, Note_on_c, 0, 61, 0
1, 5832, Note_on_c, 1, 49, 0
1, 5832, Note_on_c, 1, 37, 0
1, 5850, Note_on_c, 0, 63, 85
1, 5850, Note_on_c, 1, 51, 85
1, 5880, Note_on_c, 0, 63, 0
1, 5880, Note_on_c, 0, 61, 85
1, 5880, Note_on_c, 1, 51, 0
1, 5880, Note_on_c, 1, 49, 85
1, 5910, Note_on_c, 0, 61, 0
1, 5910, Note_on_c, 0, 60, 85
1, 5910, Note_on_c, 1, 49, 0
1, 5910, Note_on_c, 1, 48, 85
1, 5940, Note_on_c, 0, 60, 0
1, 5940, Note_on_c, 0, 61, 85
1, 5940, Note_on_c, 1, 48, 0
1, 5940, Note_on_c, 1, 49, 85
1, 5970, Note_on_c, 0, 61, 0
1, 5970, Note_on_c, 0, 63, 85
1, 5970, Note_on_c, 1, 49, 0
1, 5970, Note_on_c, 1, 51, 85
1, 6000, Note_on_c, 0, 63, 0
1, 6000, Note_on_c, 0, 64, 85
1, 6000, Note_on_c, 1, 51, 0
1, 6000, Note_on_c, 1, 52, 85
1, 6120, Note_on_c, 0, 64, 0
1, 6120, Note_on_c, 0, 63, 85
1, 6120, Note_on_c, 1, 52, 0
1, 6120, Note_on_c, 1, 51, 85
1, 6180, Note_on_c, 0, 63, 0
1, 6180, Note_on_c, 1, 51, 0
1, 6240, Note_on_c, 0, 61, 85
1, 6240, Note_on_c, 1, 49, 85
1, 6300, Note_on_c, 0, 61, 0
1, 6300, Note_on_c, 1, 49, 0
1, 6360, Note_on_c, 0, 56, 85
1, 6360, Note_on_c, 1, 44, 85
1, 6420, Note_on_c, 0, 56, 0
1, 6420, Note_on_c, 1, 44, 0
1, 6480, Note_on_c, 0, 61, 85
1, 6480, Note_on_c, 1, 49, 85
1, 6540, Note_on_c, 0, 61, 0
1, 6540, Note_on_c, 1, 49, 0
1, 6600, Note_on_c, 0, 64, 85
1, 6600, Note_on_c, 1, 52, 85
1, 6660, Note_on_c, 0, 64, 0
1, 6660, Note_on_c, 1, 52, 0
1, 6720, Note_on_c, 0, 57, 64
1, 6720, Note_on_c, 1, 33, 64
1, 6720, Note_on_c, 1, 45, 64
1, 6792, Note_on_c, 0, 57, 0
1, 6792, Note_on_c, 1, 45, 0
1, 6792, Note_on_c, 1, 33, 0
1, 6810, Note_on_c, 0, 59, 64
1, 6810, Note_on_c, 1, 47, 64
1, 6840, Note_on_c, 0, 59, 0
1, 6840, Note_on_c, 0, 57, 64
1, 6840, Note_on_c, 1, 47, 0
1, 6840, Note_on_c, 1, 45, 64
1, 6870, Note_on_c, 0, 57, 0
1, 6870, Note_on_c, 0, 56, 64
1, 6870, Note_on_c, 1, 45, 0
1, 6870, Note_on_c, 1, 44, 64
1, 6900, Note_on_c, 0, 56, 0
1, 6900, Note_on_c, 0, 57, 64
1, 6900, Note_on_c, 1, 44, 0
1, 6900, Note_on_c, 1, 45, 64
1, 6930, Note_on_c, 0, 57, 0
1, 6930, Note_on_c, 0, 59, 64
1, 6930, Note_on_c, 1, 45, 0
1, 6930, Note_on_c, 1, 47, 64
1, 6960, Note_on_c, 0, 59, 0
1, 6960, Note_on_c, 0, 61, 64
1, 6960, Note_on_c, 1, 47, 0
1, 6960, Note_on_c, 1, 49, 64
1, 7080, Note_on_c, 0, 61, 0
1, 7080, Note_on_c, 0, 59, 64
1, 7080, Note_on_c, 1, 49, 0
1, 7080, Note_on_c, 1, 47, 64
1, 7140, Note_on_c, 0, 59, 0
1, 7140, Note_on_c, 1, 47, 0
1, 7200, Note_on_c, 0, 57, 64
1, 7200, Note_on_c, 1, 45, 64
1, 7260, Note_on_c, 0, 57, 0
1, 7260, Note_on_c, 1, 45, 0
1, 7320, Note_on_c, 0, 52, 64
1, 7320, Note_on_c, 1, 40, 64
1, 7380, Note_on_c, 0, 52, 0
1, 7380, Note_on_c, 1, 40, 0
1, 7440, Note_on_c, 0, 57, 64
1, 7440, Note_on_c, 1, 45, 64
1, 7500, Note_on_c, 0, 57, 0
1, 7500, Note_on_c, 1, 45, 0
1, 7560, Note_on_c, 0, 61, 64
1, 7560, Note_on_c, 1, 49, 64
1, 7620, Note_on_c, 0, 61, 0
1, 7620, Note_on_c, 1, 49, 0
1, 7680, Note_on_c, 0, 51, 96
1, 7680, Note_on_c, 1, 39, 96
1, 8038, Note_on_c, 0, 51, 0
1, 8038, Note_on_c, 1, 39, 0
1, 8040, Note_on_c, 0, 54, 85
1, 8040, Note_on_c, 1, 42, 85
1, 8100, Note_on_c, 0, 54, 0
1, 8100, Note_on_c, 0, 58, 85
1, 8100, Note_on_c, 1, 42, 0
1, 8100, Note_on_c, 1, 46, 85
1, 8160, Note_on_c, 0, 58, 0
1, 8160, Note_on_c, 0, 59, 85
1, 8160, Note_on_c, 1, 46, 0
1, 8160, Note_on_c, 1, 47, 85
1, 8280, Note_on_c, 0, 59, 0
1, 8280, Note_on_c, 0, 63, 85
1, 8280, Note_on_c, 1, 47, 0
1, 8280, Note_on_c, 1, 51, 85
1, 8340, Note_on_c, 0, 63, 0
1, 8340, Note_on_c, 1, 51, 0
1, 8400, Note_on_c, 0, 66, 85
1, 8400, Note_on_c, 1, 54, 85
1, 8460, Note_on_c, 0, 66, 0
1, 8460, Note_on_c, 1, 54, 0
1, 8520, Note_on_c, 0, 70, 85
1, 8520, Note_on_c, 1, 58, 85
1, 8592, Note_on_c, 0, 70, 0
1, 8592, Note_on_c, 1, 58, 0
1, 8610, Note_on_c, 0, 70, 85
1, 8610, Note_on_c, 1, 58, 85
1, 8634, Note_on_c, 0, 70, 0
1, 8634, Note_on_c, 1, 58, 0
1, 8640, Note_on_c, 0, 71, 85
1, 8640, Note_on_c, 1, 59, 85
1, 8928, Note_on_c, 0, 71, 0
1, 8940, Note_on_c, 0, 73, 85
1, 8970, Note_on_c, 0, 73, 0
1, 8970, Note_on_c, 0, 75, 85
1, 9000, Note_on_c, 0, 75, 0
1, 9000, Note_on_c, 0, 76, 85
1, 9030, Note_on_c, 0, 76, 0
1, 9030, Note_on_c, 0, 78, 85
1, 9060, Note_on_c, 0, 78, 0
1, 9060, Note_on_c, 0, 80, 85
1, 9090, Note_on_c, 0, 80, 0
1, 9090, Note_on_c, 0, 82, 85
1, 9120, Note_on_c, 0, 82, 0
1, 9120, Note_on_c, 0, 83, 85
1, 9238, Note_on_c, 1, 59, 0
1, 9240, Note_on_c, 0, 83, 0
1, 9240, Note_on_c, 0, 78, 85
1, 9240, Note_on_c, 0, 81, 85
1, 9240, Note_on_c, 1, 63, 85
1, 9240, Note_on_c, 1, 66, 85
1, 9288, Note_on_c, 0, 81, 0
1, 9288, Note_on_c, 0, 78, 0
1, 9300, Note_on_c, 0, 71, 85
1, 9348, Note_on_c, 0, 71, 0
1, 9358, Note_on_c, 1, 66, 0
1, 9358, Note_on_c, 1, 63, 0
1, 9360, Note_on_c, 0, 78, 85
1, 9360, Note_on_c, 0, 81, 85
1, 9360, Note_on_c, 1, 63, 85
1, 9360, Note_on_c, 1, 66, 85
1, 9408, Note_on_c, 0, 81, 0
1, 9408, Note_on_c, 0, 78, 0
1, 9420, Note_on_c, 0, 71, 85
1, 9468, Note_on_c, 0, 71, 0
1, 9478, Note_on_c, 1, 66, 0
1, 9478, Note_on_c, 1, 63, 0
1, 9480, Note_on_c, 0, 78, 85
1, 9480, Note_on_c, 0, 81, 85
1, 9480, Note_on_c, 1, 63, 85
1, 9480, Note_on_c, 1, 66, 85
1, 9528, Note_on_c, 0, 81, 0
1, 9528, Note_on_c, 0, 78, 0
1, 9540, Note_on_c, 0, 71, 85
1, 9588, Note_on_c, 0, 71, 0
1, 9598, Note_on_c, 1, 66, 0
1, 9598, Note_on_c, 1, 63, 0
1, 9600, Note_on_c, 0, 78, 85
1, 9600, Note_on_c, 0, 81, 85
1, 9600, Note_on_c, 1, 63, 85
1, 9600, Note_on_c, 1, 66, 85
1, 9838, Note_on_c, 0, 81, 0
1, 9838, Note_on_c, 0, 78, 0
1, 9838, Note_on_c, 1, 66, 0
1, 9838, Note_on_c, 1, 63, 0
1, 10560, Note_on_c, 0, 64, 85
1, 10632, Note_on_c, 0, 64, 0
1, 10650, Note_on_c, 0, 66, 85
1, 10680, Note_on_c, 0, 66, 0
1, 10680, Note_on_c, 0, 64, 85
1, 10710, Note_on_c, 0, 64, 0
1, 10710, Note_on_c, 0, 63, 85
1, 10740, Note_on_c, 0, 63, 0
1, 10740, Note_on_c, 0, 64, 85
1, 10770, Note_on_c, 0, 64, 0
1, 10770, Note_on_c, 0, 66, 85
1, 10800, Note_on_c, 0, 66, 0
1, 10800, Note_on_c, 0, 68, 85
1, 10920, Note_on_c, 0, 68, 0
1, 10920, Note_on_c, 0, 66, 85
1, 10980, Note_on_c, 0, 66, 0
1, 11040, Note_on_c, 0, 64, 85
1, 11040, Note_on_c, 1, 52, 85
1, 11098, Note_on_c, 1, 52, 0
1, 11100, Note_on_c, 0, 64, 0
1, 11100, Note_on_c, 1, 51, 85
1, 11130, Note_on_c, 1, 51, 0
1, 11160, Note_on_c, 0, 59, 85
1, 11160, Note_on_c, 1, 49, 85
1, 11190, Note_on_c, 1, 49, 0
1, 11220, Note_on_c, 0, 59, 0
1, 11220, Note_on_c, 1, 47, 85
1, 11250, Note_on_c, 1, 47, 0
1, 11280, Note_on_c, 0, 64, 85
1, 11280, Note_on_c, 1, 45, 85
1, 11338, Note_on_c, 1, 45, 0
1, 11340, Note_on_c, 0, 64, 0
1, 11340, Note_on_c, 1, 44, 85
1, 11370, Note_on_c, 1, 44, 0
1, 11400, Note_on_c, 0, 68, 85
1, 11400, Note_on_c, 1, 42, 85
1, 11430, Note_on_c, 1, 42, 0
1, 11460, Note_on_c, 0, 68, 0
1, 11460, Note_on_c, 1, 40, 85
1, 11490, Note_on_c, 1, 40, 0
1, 11520, Note_on_c, 0, 66, 85
1, 11520, Note_on_c, 1, 39, 85
1, 11592, Note_on_c, 0, 66, 0
1, 11610, Note_on_c, 0, 68, 85
1, 11640, Note_on_c, 0, 68, 0
1, 11640, Note_on_c, 0, 66, 85
1, 11670, Note_on_c, 0, 66, 0
1, 11670, Note_on_c, 0, 64, 85
1, 11700, Note_on_c, 0, 64, 0
1, 11700, Note_on_c, 0, 66, 85
1, 11730, Note_on_c, 0, 66, 0
1, 11730, Note_on_c, 0, 68, 85
1, 11758, Note_on_c, 1, 39, 0
1, 11760, Note_on_c, 0, 68, 0
1, 11760, Note_on_c, 0, 69, 85
1, 11880, Note_on_c, 0, 69, 0
1, 11880, Note_on_c, 0, 68, 85
1, 11940, Note_on_c, 0, 68, 0
1, 12000, Note_on_c, 0, 66, 85
1, 12000, Note_on_c, 1, 57, 85
1, 12060, Note_on_c, 0, 66, 0
1, 12060, Note_on_c, 1, 57, 0
1, 12060, Note_on_c, 1, 56, 85
1, 12090, Note_on_c, 1, 56, 0
1, 12120, Note_on_c, 0, 59, 85
1, 12120, Note_on_c, 1, 54, 85
1, 12150, Note_on_c, 1, 54, 0
1, 12180, Note_on_c, 0, 59, 0
1, 12180, Note_on_c, 1, 52, 85
1, 12210, Note_on_c, 1, 52, 0
1, 12240, Note_on_c, 0, 66, 85
1, 12240, Note_on_c, 1, 51, 85
1, 12300, Note_on_c, 0, 66, 0
1, 12300, Note_on_c, 1, 51, 0
1, 12300, Note_on_c, 1, 49, 85
1, 12330, Note_on_c, 1, 49, 0
1, 12360, Note_on_c, 0, 69, 85
1, 12360, Note_on_c, 1, 47, 85
1, 12390, Note_on_c, 1, 47, 0
1, 12420, Note_on_c, 0, 69, 0
1, 12420, Note_on_c, 1, 51, 85
1, 12450, Note_on_c, 1, 51, 0
1, 12480, Note_on_c, 0, 68, 85
1, 12480, Note_on_c, 1, 52, 85
1, 12552, Note_on_c, 0, 68, 0
1, 12570, Note_on_c, 0, 69, 85
1, 12600, Note_on_c, 0, 69, 0
1, 12600, Note_on_c, 0, 68, 85
1, 12630, Note_on_c, 0, 68, 0
1, 12630, Note_on_c, 0, 66, 85
1, 12660, Note_on_c, 0, 66, 0
1, 12660, Note_on_c, 0, 68, 85
1, 12690, Note_on_c, 0, 68, 0
1, 12690, Note_on_c, 0, 69, 85
1, 12718, Note_on_c, 1, 52, 0
1, 12720, Note_on_c, 0, 69, 0
1, 12720, Note_on_c, 0, 71, 85
1, 12840, Note_on_c, 0, 71, 0
1, 12840, Note_on_c, 0, 69, 85
1, 12900, Note_on_c, 0, 69, 0
1, 12960, Note_on_c, 0, 68, 85
1, 12960, Note_on_c, 1, 62, 85
1, 13020, Note_on_c, 0, 68, 0
1, 13020, Note_on_c, 1, 62, 0
1, 13020, Note_on_c, 1, 61, 85
1, 13050, Note_on_c, 1, 61, 0
1, 13080, Note_on_c, 0, 64, 85
1, 13080, Note_on_c, 1, 59, 85
1, 13110, Note_on_c, 1, 59, 0
1, 13140, Note_on_c, 0, 64, 0
1, 13140, Note_on_c, 1, 57, 85
1, 13170, Note_on_c, 1, 57, 0
1, 13200, Note_on_c, 0, 68, 85
1, 13200, Note_on_c, 1, 56, 85
1, 13258, Note_on_c, 1, 56, 0
1, 13260, Note_on_c, 0, 68, 0
1, 13260, Note_on_c, 1, 54, 85
1, 13290, Note_on_c, 1, 54, 0
1, 13320, Note_on_c, 0, 71, 85
1, 13320, Note_on_c, 1, 52, 85
1, 13350, Note_on_c, 1, 52, 0
1, 13380, Note_on_c, 0, 71, 0
1, 13380, Note_on_c, 1, 50, 85
1, 13410, Note_on_c, 1, 50, 0
1, 13440, Note_on_c, 0, 69, 85
1, 13440, Note_on_c, 1, 49, 85
1, 13498, Note_on_c, 1, 49, 0
1, 13500, Note_on_c, 1, 50, 85
1, 13558, Note_on_c, 0, 69, 0
1, 13558, Note_on_c, 1, 50, 0
1, 13560, Note_on_c, 0, 64, 85
1, 13560, Note_on_c, 1, 52, 85
1, 13618, Note_on_c, 1, 52, 0
1, 13620, Note_on_c, 1, 50, 85
1, 13678, Note_on_c, 0, 64, 0
1, 13678, Note_on_c, 1, 50, 0
1, 13680, Note_on_c, 0, 69, 85
1, 13680, Note_on_c, 1, 49, 85
1, 13738, Note_on_c, 1, 49, 0
1, 13740, Note_on_c, 1, 47, 85
1, 13764, Note_on_c, 1, 47, 0
1, 13798, Note_on_c, 0, 69, 0
1, 13800, Note_on_c, 0, 73, 85
1, 13800, Note_on_c, 1, 45, 85
1, 13824, Note_on_c, 1, 45, 0
1, 13860, Note_on_c, 1, 44, 85
1, 13884, Note_on_c, 1, 44, 0
1, 13918, Note_on_c, 0, 73, 0
1, 13920, Note_on_c, 0, 69, 85
1, 13920, Note_on_c, 1, 42, 85
1, 13978, Note_on_c, 1, 42, 0
1, 13980, Note_on_c, 1, 44, 85
1, 14038, Note_on_c, 0, 69, 0
1, 14038, Note_on_c, 1, 44, 0
1, 14040, Note_on_c, 0, 73, 85
1, 14040, Note_on_c, 1, 45, 85
1, 14098, Note_on_c, 1, 45, 0
1, 14100, Note_on_c, 1, 44, 85
1, 14158, Note_on_c, 0, 73, 0
1, 14158, Note_on_c, 1, 44, 0
1, 14160, Note_on_c, 0, 81, 85
1, 14160, Note_on_c, 1, 42, 85
1, 14208, Note_on_c, 0, 81, 0
1, 14218, Note_on_c, 1, 42, 0
1, 14220, Note_on_c, 1, 40, 85
1, 14244, Note_on_c, 1, 40, 0
1, 14280, Note_on_c, 0, 81, 85
1, 14280, Note_on_c, 1, 39, 85
1, 14304, Note_on_c, 1, 39, 0
1, 14328, Note_on_c, 0, 81, 0
1, 14340, Note_on_c, 1, 37, 85
1, 14364, Note_on_c, 1, 37, 0
1, 14400, Note_on_c, 0, 81, 85
1, 14400, Note_on_c, 1, 35, 85
1, 14458, Note_on_c, 0, 81, 0
1, 14460, Note_on_c, 0, 80, 85
1, 14518, Note_on_c, 0, 80, 0
1, 14520, Note_on_c, 0, 78, 85
1, 14578, Note_on_c, 0, 78, 0
1, 14580, Note_on_c, 0, 76, 85
1, 14638, Note_on_c, 0, 76, 0
1, 14638, Note_on_c, 1, 35, 0
1, 14640, Note_on_c, 0, 75, 85
1, 14698, Note_on_c, 0, 75, 0
1, 14700, Note_on_c, 0, 73, 85
1, 14730, Note_on_c, 0, 73, 0
1, 14760, Note_on_c, 0, 71, 85
1, 14760, Note_on_c, 1, 39, 85
1, 14790, Note_on_c, 0, 71, 0
1, 14820, Note_on_c, 0, 69, 85
1, 14850, Note_on_c, 0, 69, 0
1, 14878, Note_on_c, 1, 39, 0
1, 14880, Note_on_c, 0, 68, 85
1, 14880, Note_on_c, 1, 40, 85
1, 14938, Note_on_c, 0, 68, 0
1, 14940, Note_on_c, 0, 71, 85
1, 14940, Note_on_c, 1, 40, 0
1, 14998, Note_on_c, 0, 71, 0
1, 15000, Note_on_c, 0, 69, 85
1, 15000, Note_on_c, 1, 44, 85
1, 15058, Note_on_c, 0, 69, 0
1, 15060, Note_on_c, 0, 68, 85
1, 15060, Note_on_c, 1, 44, 0
1, 15118, Note_on_c, 0, 68, 0
1, 15120, Note_on_c, 0, 66, 85
1, 15120, Note_on_c, 1, 45, 85
1, 15178, Note_on_c, 0, 66, 0
1, 15180, Note_on_c, 0, 64, 85
1, 15180, Note_on_c, 1, 45, 0
1, 15210, Note_on_c, 0, 64, 0
1, 15240, Note_on_c, 0, 63, 85
1, 15240, Note_on_c, 1, 46, 85
1, 15270, Note_on_c, 0, 63, 0
1, 15300, Note_on_c, 0, 61, 85
1, 15300, Note_on_c, 1, 46, 0
1, 15330, Note_on_c, 0, 61, 0
1, 15360, Note_on_c, 0, 59, 85
1, 15360, Note_on_c, 1, 47, 85
1, 15478, Note_on_c, 0, 59, 0
1, 15480, Note_on_c, 0, 71, 64
1, 15598, Note_on_c, 0, 71, 0
1, 15598, Note_on_c, 1, 47, 0
1, 15600, Note_on_c, 0, 71, 64
1, 15718, Note_on_c, 0, 71, 0
1, 15720, Note_on_c, 0, 71, 64
1, 15838, Note_on_c, 0, 71, 0
1, 15840, Note_on_c, 0, 73, 64
1, 15872, Note_on_c, 0, 73, 0
1, 15880, Note_on_c, 0, 71, 64
1, 15912, Note_on_c, 0, 71, 0
1, 15920, Note_on_c, 0, 70, 64
1, 15952, Note_on_c, 0, 70, 0
1, 15960, Note_on_c, 0, 71, 64
1, 15960, Note_on_c, 1, 64, 64
1, 15960, Note_on_c, 1, 68, 64
1, 16056, Note_on_c, 0, 71, 0
1, 16080, Note_on_c, 1, 68, 0
1, 16080, Note_on_c, 1, 64, 0
1, 16080, Note_on_c, 1, 63, 64
1, 16080, Note_on_c, 1, 66, 64
1, 16200, Note_on_c, 1, 66, 0
1, 16200, Note_on_c, 1, 63, 0
1, 16200, Note_on_c, 1, 64, 64
1, 16200, Note_on_c, 1, 68, 64
1, 16320, Note_on_c, 1, 68, 0
1, 16320, Note_on_c, 1, 64, 0
1, 16320, Note_on_c, 1, 66, 64
1, 16320, Note_on_c, 1, 69, 64
1, 16440, Note_on_c, 0, 71, 64
1, 16558, Note_on_c, 0, 71, 0
1, 16558, Note_on_c, 1, 69, 0
1, 16558, Note_on_c, 1, 66, 0
1, 16560, Note_on_c, 0, 71, 64
1, 16678, Note_on_c, 0, 71, 0
1, 16680, Note_on_c, 0, 71, 64
1, 16798, Note_on_c, 0, 71, 0
1, 16800, Note_on_c, 0, 73, 64
1, 16832, Note_on_c, 0, 73, 0
1, 16840, Note_on_c, 0, 71, 64
1, 16872, Note_on_c, 0, 71, 0
1, 16880, Note_on_c, 0, 70, 64
1, 16912, Note_on_c, 0, 70, 0
1, 16920, Note_on_c, 0, 71, 64
1, 16920, Note_on_c, 1, 69, 64
1, 16920, Note_on_c, 1, 66, 64
1, 17016, Note_on_c, 0, 71, 0
1, 17040, Note_on_c, 1, 66, 0
1, 17040, Note_on_c, 1, 69, 0
1, 17040, Note_on_c, 1, 64, 64
1, 17040, Note_on_c, 1, 68, 64
1, 17160, Note_on_c, 1, 68, 0
1, 17160, Note_on_c, 1, 64, 0
1, 17160, Note_on_c, 1, 66, 64
1, 17160, Note_on_c, 1, 69, 64
1, 17280, Note_on_c, 1, 69, 0
1, 17280, Note_on_c, 1, 66, 0
1, 17280, Note_on_c, 1, 68, 64
1, 17280, Note_on_c, 1, 71, 64
1, 17400, Note_on_c, 0, 76, 67
1, 17496, Note_on_c, 0, 76, 0
1, 17518, Note_on_c, 1, 71, 0
1, 17518, Note_on_c, 1, 68, 0
1, 17520, Note_on_c, 0, 76, 69
1, 17616, Note_on_c, 0, 76, 0
1, 17640, Note_on_c, 0, 76, 72
1, 17736, Note_on_c, 0, 76, 0
1, 17760, Note_on_c, 0, 77, 75
1, 17784, Note_on_c, 0, 77, 0
1, 17790, Note_on_c, 0, 76, 75
1, 17814, Note_on_c, 0, 76, 0
1, 17820, Note_on_c, 0, 74, 76
1, 17844, Note_on_c, 0, 74, 0
1, 17850, Note_on_c, 0, 76, 76
1, 17874, Note_on_c, 0, 76, 0
1, 17880, Note_on_c, 0, 74, 77
1, 17880, Note_on_c, 0, 77, 77
1, 17880, Note_on_c, 1, 68, 77
1, 17880, Note_on_c, 1, 71, 77
1, 17976, Note_on_c, 0, 77, 0
1, 17976, Note_on_c, 0, 74, 0
1, 17998, Note_on_c, 1, 71, 0
1, 17998, Note_on_c, 1, 68, 0
1, 18000, Note_on_c, 0, 74, 80
1, 18000, Note_on_c, 0, 77, 80
1, 18000, Note_on_c, 1, 68, 80
1, 18000, Note_on_c, 1, 71, 80
1, 18096, Note_on_c, 0, 77, 0
1, 18096, Note_on_c, 0, 74, 0
1, 18118, Note_on_c, 1, 71, 0
1, 18118, Note_on_c, 1, 68, 0
1, 18120, Note_on_c, 0, 74, 82
1, 18120, Note_on_c, 0, 77, 82
1, 18120, Note_on_c, 1, 68, 82
1, 18120, Note_on_c, 1, 71, 82
1, 18216, Note_on_c, 0, 77, 0
1, 18216, Note_on_c, 0, 74, 0
1, 18238, Note_on_c, 1, 71, 0
1, 18238, Note_on_c, 1, 68, 0
1, 18240, Note_on_c, 0, 74, 96
1, 18240, Note_on_c, 0, 77, 96
1, 18240, Note_on_c, 1, 68, 96
1, 18240, Note_on_c, 1, 71, 96
1, 18478, Note_on_c, 0, 77, 0
1, 18478, Note_on_c, 0, 74, 0
1, 18478, Note_on_c, 1, 71, 0
1, 18478, Note_on_c, 1, 68, 0
1, 18480, Note_on_c, 0, 73, 74
1, 18480, Note_on_c, 0, 78, 74
1, 18480, Note_on_c, 1, 66, 74
1, 18480, Note_on_c, 1, 69, 74
1, 18516, Note_on_c, 0, 78, 0
1, 18516, Note_on_c, 0, 73, 0
1, 18516, Note_on_c, 1, 69, 0
1, 18516, Note_on_c, 1, 66, 0
1, 18600, Note_on_c, 0, 74, 74
1, 18600, Note_on_c, 0, 80, 74
1, 18600, Note_on_c, 1, 65, 74
1, 18600, Note_on_c, 1, 71, 74
1, 18636, Note_on_c, 0, 80, 0
1, 18636, Note_on_c, 0, 74, 0
1, 18636, Note_on_c, 1, 71, 0
1, 18636, Note_on_c, 1, 65, 0
1, 18720, Note_on_c, 0, 74, 96
1, 18720, Note_on_c, 0, 80, 96
1, 18720, Note_on_c, 1, 65, 96
1, 18720, Note_on_c, 1, 71, 96
1, 18958, Note_on_c, 0, 80, 0
1, 18958, Note_on_c, 0, 74, 0
1, 18958, Note_on_c, 1, 71, 0
1, 18958, Note_on_c, 1, 65, 0
1, 18960, Note_on_c, 0, 73, 74
1, 18960, Note_on_c, 0, 81, 74
1, 18960, Note_on_c, 1, 66, 74
1, 18960, Note_on_c, 1, 69, 74
1, 19008, Note_on_c, 0, 81, 0
1, 19008, Note_on_c, 0, 73, 0
1, 19008, Note_on_c, 1, 69, 0
1, 19008, Note_on_c, 1, 66, 0
1, 19080, Note_on_c, 0, 72, 74
1, 19080, Note_on_c, 0, 75, 74
1, 19080, Note_on_c, 1, 66, 74
1, 19080, Note_on_c, 1, 69, 74
1, 19128, Note_on_c, 0, 75, 0
1, 19128, Note_on_c, 0, 72, 0
1, 19128, Note_on_c, 1, 69, 0
1, 19128, Note_on_c, 1, 66, 0
1, 19200, Note_on_c, 0, 72, 96
1, 19200, Note_on_c, 0, 75, 96
1, 19200, Note_on_c, 1, 66, 96
1, 19200, Note_on_c, 1, 69, 96
1, 19438, Note_on_c, 0, 75, 0
1, 19438, Note_on_c, 0, 72, 0
1, 19438, Note_on_c, 1, 69, 0
1, 19438, Note_on_c, 1, 66, 0
1, 19440, Tempo, 508475
1, 19440, Note_on_c, 0, 71, 74
1, 19440, Note_on_c, 0, 76, 74
1, 19440, Note_on_c, 1, 64, 74
1, 19440, Note_on_c, 1, 68, 74
1, 19512, Note_on_c, 0, 76, 0
1, 19512, Note_on_c, 0, 71, 0
1, 19512, Note_on_c, 1, 68, 0
1, 19512, Note_on_c, 1, 64, 0
1, 19560, Note_on_c, 0, 72, 74
1, 19560, Note_on_c, 0, 78, 74
1, 19560, Note_on_c, 1, 63, 74
1, 19560, Note_on_c, 1, 69, 74
1, 19632, Note_on_c, 0, 78, 0
1, 19632, Note_on_c, 0, 72, 0
1, 19632, Note_on_c, 1, 69, 0
1, 19632, Note_on_c, 1, 63, 0
1, 19680, Tempo, 517241
1, 19680, Note_on_c, 0, 72, 96
1, 19680, Note_on_c, 0, 78, 96
1, 19680, Note_on_c, 1, 63, 96
1, 19680, Note_on_c, 1, 69, 96
1, 19918, Note_on_c, 0, 78, 0
1, 19918, Note_on_c, 0, 72, 0
1, 19918, Note_on_c, 1, 69, 0
1, 19918, Note_on_c, 1, 63, 0
1, 19920, Tempo, 526316
1, 19920, Note_on_c, 0, 71, 85
1, 19920, Note_on_c, 0, 80, 85
1, 19920, Note_on_c, 1, 64, 85
1, 19920, Note_on_c, 1, 68, 85
1, 20016, Note_on_c, 0, 80, 0
1, 20016, Note_on_c, 0, 71, 0
1, 20016, Note_on_c, 1, 68, 0
1, 20016, Note_on_c, 1, 64, 0
1, 20040, Note_on_c, 0, 71, 85
1, 20040, Note_on_c, 0, 83, 85
1, 20040, Note_on_c, 1, 56, 85
1, 20040, Note_on_c, 1, 64, 85
1, 20136, Note_on_c, 0, 83, 0
1, 20136, Note_on_c, 0, 71, 0
1, 20136, Note_on_c, 1, 64, 0
1, 20136, Note_on_c, 1, 56, 0
1, 20160, Tempo, 535714
1, 20160, Note_on_c, 0, 71, 85
1, 20160, Note_on_c, 0, 83, 85
1, 20160, Note_on_c, 1, 64, 85
1, 20160, Note_on_c, 1, 56, 85
1, 20400, Tempo, 545455
1, 20400, Note_on_c, 0, 83, 0
1, 20400, Note_on_c, 0, 71, 0
1, 20400, Note_on_c, 0, 70, 85
1, 20400, Note_on_c, 0, 82, 85
1, 20400, Note_on_c, 1, 56, 0
1, 20400, Note_on_c, 1, 55, 85
1, 20520, Note_on_c, 0, 82, 0
1, 20520, Note_on_c, 0, 70, 0
1, 20520, Note_on_c, 0, 71, 85
1, 20520, Note_on_c, 0, 83, 85
1, 20520, Note_on_c, 1, 55, 0
1, 20520, Note_on_c, 1, 56, 85
1, 20640, Tempo, 550459
1, 20640, Note_on_c, 0, 83, 0
1, 20640, Note_on_c, 0, 71, 0
1, 20640, Note_on_c, 0, 72, 85
1, 20640, Note_on_c, 0, 84, 85
1, 20640, Note_on_c, 1, 56, 0
1, 20640, Note_on_c, 1, 64, 0
1, 20640, Note_on_c, 1, 57, 85
1, 20640, Note_on_c, 1, 64, 85
1, 20880, Tempo, 560748
1, 20880, Note_on_c, 0, 84, 0
1, 20880, Note_on_c, 0, 72, 0
1, 20880, Note_on_c, 0, 73, 85
1, 20880, Note_on_c, 0, 85, 85
1, 21000, Note_on_c, 0, 85, 0
1, 21000, Note_on_c, 0, 73, 0
1, 21000, Note_on_c, 0, 71, 85
1, 21000, Note_on_c, 0, 83, 85
1, 21000, Note_on_c, 1, 64, 0
1, 21000, Note_on_c, 1, 57, 0
1, 21000, Note_on_c, 1, 56, 85
1, 21036, Note_on_c, 0, 83, 0
1, 21036, Note_on_c, 0, 71, 0
1, 21120, Tempo, 566038
1, 21120, Note_on_c, 0, 71, 85
1, 21120, Note_on_c, 0, 83, 85
1, 21120, Note_on_c, 1, 56, 0
1, 21120, Note_on_c, 1, 54, 85
1, 21120, Note_on_c, 1, 63, 85
1, 21238, Note_on_c, 0, 83, 0
1, 21238, Note_on_c, 0, 71, 0
1, 21238, Note_on_c, 1, 63, 0
1, 21238, Note_on_c, 1, 54, 0
1, 21240, Note_on_c, 0, 69, 82
1, 21240, Note_on_c, 0, 81, 82
1, 21298, Note_on_c, 0, 81, 0
1, 21298, Note_on_c, 0, 69, 0
1, 21360, Tempo, 588235
1, 21360, Note_on_c, 0, 69, 80
1, 21360, Note_on_c, 0, 81, 80
1, 21360, Note_on_c, 1, 52, 80
1, 21360, Note_on_c, 1, 64, 80
1, 21478, Note_on_c, 0, 81, 0
1, 21478, Note_on_c, 0, 69, 0
1, 21478, Note_on_c, 1, 64, 0
1, 21478, Note_on_c, 1, 52, 0
1, 21480, Note_on_c, 0, 68, 77
1, 21480, Note_on_c, 0, 80, 77
1, 21538, Note_on_c, 0, 80, 0
1, 21538, Note_on_c, 0, 68, 0
1, 21600, Tempo, 612245
1, 21600, Note_on_c, 0, 68, 74
1, 21600, Note_on_c, 0, 80, 74
1, 21600, Note_on_c, 1, 57, 74
1, 21600, Note_on_c, 1, 61, 74
1, 21718, Note_on_c, 0, 80, 0
1, 21718, Note_on_c, 0, 68, 0
1, 21718, Note_on_c, 1, 61, 0
1, 21718, Note_on_c, 1, 57, 0
1, 21720, Note_on_c, 0, 66, 72
1, 21720, Note_on_c, 0, 78, 72
1, 21778, Note_on_c, 0, 78, 0
1, 21778, Note_on_c, 0, 66, 0
1, 21840, Tempo, 638298
1, 21840, Note_on_c, 0, 81, 69
1, 21958, Note_on_c, 0, 81, 0
1, 21960, Note_on_c, 0, 75, 67
1, 21960, Note_on_c, 1, 59, 67
1, 21960, Note_on_c, 1, 69, 67
1, 22078, Note_on_c, 0, 75, 0
1, 22078, Note_on_c, 1, 69, 0
1, 22078, Note_on_c, 1, 59, 0
1, 22080, Tempo, 857143
1, 22080, Note_on_c, 0, 75, 64
1, 22080, Note_on_c, 1, 61, 64
1, 22080, Note_on_c, 1, 69, 64
1, 22320, Tempo, 705882
1, 22368, Note_on_c, 0, 75, 0
1, 22440, Note_on_c, 0, 78, 64
1, 22536, Note_on_c, 0, 78, 0
1, 22558, Note_on_c, 1, 69, 0
1, 22560, Tempo, 600000
1, 22560, Note_on_c, 0, 76, 64
1, 22560, Note_on_c, 1, 68, 64
1, 22800, Tempo, 521739
1, 22800, Note_on_c, 1, 68, 0
1, 22812, Note_on_c, 0, 76, 0
1, 22920, Note_on_c, 0, 76, 85
1, 22944, Note_on_c, 0, 76, 0
1, 22950, Note_on_c, 0, 75, 85
1, 22974, Note_on_c, 0, 75, 0
1, 22980, Note_on_c, 0, 73, 85
1, 23004, Note_on_c, 0, 73, 0
1, 23010, Note_on_c, 0, 71, 85
1, 23034, Note_on_c, 0, 71, 0
1, 23038, Note_on_c, 1, 61, 0
1, 23040, Tempo, 500000
1, 23040, Note_on_c, 0, 70, 85
1, 23040, Note_on_c, 1, 61, 85
1, 23040, Note_on_c, 1, 64, 85
1, 23040, Note_on_c, 1, 67, 85
1, 23208, Note_on_c, 0, 70, 0
1, 23250, Note_on_c, 0, 70, 87
1, 23274, Note_on_c, 0, 70, 0
1, 23278, Note_on_c, 1, 67, 0
1, 23278, Note_on_c, 1, 64, 0
1, 23278, Note_on_c, 1, 61, 0
1, 23280, Note_on_c, 0, 88, 88
1, 23370, Note_on_c, 0, 88, 0
1, 23370, Note_on_c, 0, 73, 89
1, 23400, Note_on_c, 0, 73, 0
1, 23400, Note_on_c, 0, 85, 89
1, 23490, Note_on_c, 0, 85, 0
1, 23490, Note_on_c, 0, 70, 90
1, 23520, Note_on_c, 0, 70, 0
1, 23520, Note_on_c, 0, 82, 91
1, 23610, Note_on_c, 0, 82, 0
1, 23610, Note_on_c, 0, 67, 92
1, 23640, Note_on_c, 0, 67, 0
1, 23640, Note_on_c, 0, 79, 92
1, 23730, Note_on_c, 0, 79, 0
1, 23730, Note_on_c, 0, 64, 93
1, 23760, Note_on_c, 0, 64, 0
1, 23760, Note_on_c, 0, 76, 93
1, 23850, Note_on_c, 0, 76, 0
1, 23850, Note_on_c, 0, 61, 94
1, 23880, Note_on_c, 0, 61, 0
1, 23880, Note_on_c, 0, 73, 95
1, 24000, Note_on_c, 0, 73, 0
1, 24000, Note_on_c, 0, 58, 96
1, 24000, Note_on_c, 0, 70, 96
1, 24000, Note_on_c, 1, 34, 96
1, 24000, Note_on_c, 1, 46, 96
1, 24478, Note_on_c, 0, 70, 0
1, 24478, Note_on_c, 0, 58, 0
1, 24478, Note_on_c, 1, 46, 0
1, 24478, Note_on_c, 1, 34, 0
1, 24480, Note_on_c, 0, 57, 85
1, 24480, Note_on_c, 0, 69, 85
1, 24480, Note_on_c, 1, 33, 85
1, 24480, Note_on_c, 1, 45, 85
1, 24958, Note_on_c, 0, 69, 0
1, 24958, Note_on_c, 0, 57, 0
1, 24958, Note_on_c, 1, 45, 0
1, 24958, Note_on_c, 1, 33, 0
1, 24960, Note_on_c, 0, 56, 85
1, 24960, Note_on_c, 1, 32, 85
1, 24960, Note_on_c, 1, 44, 85
1, 25018, Note_on_c, 0, 56, 0
1, 25020, Note_on_c, 0, 68, 85
1, 25078, Note_on_c, 0, 68, 0
1, 25080, Note_on_c, 0, 59, 85
1, 25138, Note_on_c, 0, 59, 0
1, 25140, Note_on_c, 0, 71, 85
1, 25198, Note_on_c, 0, 71, 0
1, 25198, Note_on_c, 1, 44, 0
1, 25198, Note_on_c, 1, 32, 0
1, 25200, Note_on_c, 0, 69, 85
1, 25258, Note_on_c, 0, 69, 0
1, 25260, Note_on_c, 0, 68, 85
1, 25296, Note_on_c, 0, 68, 0
1, 25320, Note_on_c, 0, 66, 85
1, 25356, Note_on_c, 0, 66, 0
1, 25380, Note_on_c, 0, 64, 85
1, 25416, Note_on_c, 0, 64, 0
1, 25440, Note_on_c, 0, 61, 85
1, 25440, Note_on_c, 1, 33, 85
1, 25440, Note_on_c, 1, 45, 85
1, 25498, Note_on_c, 0, 61, 0
1, 25500, Note_on_c, 0, 73, 85
1, 25558, Note_on_c, 0, 73, 0
1, 25560, Note_on_c, 0, 64, 85
1, 25618, Note_on_c, 0, 64, 0
1, 25620, Note_on_c, 0, 76, 85
1, 25678, Note_on_c, 0, 76, 0
1, 25678, Note_on_c, 1, 45, 0
1, 25678, Note_on_c, 1, 33, 0
1, 25680, Note_on_c, 0, 75, 85
1, 25738, Note_on_c, 0, 75, 0
1, 25740, Note_on_c, 0, 73, 85
1, 25764, Note_on_c, 0, 73, 0
1, 25800, Note_on_c, 0, 71, 85
1, 25824, Note_on_c, 0, 71, 0
1, 25860, Note_on_c, 0, 69, 85
1, 25884, Note_on_c, 0, 69, 0
1, 25920, Note_on_c, 0, 68, 85
1, 25920, Note_on_c, 1, 47, 85
1, 25920, Note_on_c, 1, 52, 85
1, 26158, Note_on_c, 0, 68, 0
1, 26158, Note_on_c, 1, 52, 0
1, 26158, Note_on_c, 1, 47, 0
1, 26160, Note_on_c, 0, 71, 85
1, 26160, Note_on_c, 1, 47, 85
1, 26160, Note_on_c, 1, 51, 85
1, 26218, Note_on_c, 0, 71, 0
1, 26220, Note_on_c, 0, 69, 85
1, 26244, Note_on_c, 0, 69, 0
1, 26280, Note_on_c, 0, 68, 85
1, 26304, Note_on_c, 0, 68, 0
1, 26340, Note_on_c, 0, 66, 85
1, 26364, Note_on_c, 0, 66, 0
1, 26398, Note_on_c, 1, 51, 0
1, 26398, Note_on_c, 1, 47, 0
1, 26400, Note_on_c, 0, 68, 85
1, 26400, Note_on_c, 1, 40, 85
1, 26458, Note_on_c, 0, 68, 0
1, 26458, Note_on_c, 1, 40, 0
1, 26460, Note_on_c, 0, 80, 85
1, 26460, Note_on_c, 1, 52, 85
1, 26518, Note_on_c, 0, 80, 0
1, 26518, Note_on_c, 1, 52, 0
1, 26520, Note_on_c, 0, 68, 85
1, 26520, Note_on_c, 1, 44, 85
1, 26578, Note_on_c, 0, 68, 0
1, 26578, Note_on_c, 1, 44, 0
1, 26580, Note_on_c, 0, 83, 85
1, 26580, Note_on_c, 1, 56, 85
1, 26638, Note_on_c, 0, 83, 0
1, 26638, Note_on_c, 1, 56, 0
1, 26640, Note_on_c, 0, 81, 85
1, 26698, Note_on_c, 0, 81, 0
1, 26700, Note_on_c, 0, 80, 85
1, 26736, Note_on_c, 0, 80, 0
1, 26760, Note_on_c, 0, 78, 85
1, 26796, Note_on_c, 0, 78, 0
1, 26820, Note_on_c, 0, 76, 85
1, 26856, Note_on_c, 0, 76, 0
1, 26880, Note_on_c, 0, 73, 85
1, 26880, Note_on_c, 1, 45, 85
1, 26938, Note_on_c, 0, 73, 0
1, 26938, Note_on_c, 1, 45, 0
1, 26940, Note_on_c, 0, 85, 85
1, 26940, Note_on_c, 1, 57, 85
1, 26998, Note_on_c, 0, 85, 0
1, 26998, Note_on_c, 1, 57, 0
1, 27000, Note_on_c, 0, 76, 85
1, 27000, Note_on_c, 1, 49, 85
1, 27058, Note_on_c, 0, 76, 0
1, 27058, Note_on_c, 1, 49, 0
1, 27060, Note_on_c, 0, 88, 85
1, 27060, Note_on_c, 1, 61, 85
1, 27118, Note_on_c, 0, 88, 0
1, 27118, Note_on_c, 1, 61, 0
1, 27240, Note_on_c, 0, 85, 85
1, 27270, Note_on_c, 0, 85, 0
1, 27270, Note_on_c, 0, 84, 85
1, 27300, Note_on_c, 0, 84, 0
1, 27300, Note_on_c, 0, 85, 85
1, 27330, Note_on_c, 0, 85, 0
1, 27330, Note_on_c, 0, 87, 85
1, 27360, Note_on_c, 0, 87, 0
1, 27360, Note_on_c, 0, 88, 85
1, 27480, Note_on_c, 0, 88, 0
1, 27480, Note_on_c, 0, 81, 85
1, 27540, Note_on_c, 0, 81, 0
1, 27600, Note_on_c, 0, 85, 85
1, 27660, Note_on_c, 0, 85, 0
1, 27720, Note_on_c, 0, 78, 85
1, 27777, Note_on_c, 0, 78, 0
1, 27780, Note_on_c, 0, 71, 85
1, 27795, Note_on_c, 0, 75, 85
1, 27810, Note_on_c, 0, 78, 85
1, 27840, Note_on_c, 0, 81, 85
1, 27840, Note_on_c, 1, 59, 85
1, 27840, Note_on_c, 1, 63, 85
1, 27840, Note_on_c, 1, 66, 85
1, 27840, Note_on_c, 1, 69, 85
1, 27984, Note_on_c, 0, 81, 0
1, 27984, Note_on_c, 0, 71, 0
1, 27984, Note_on_c, 0, 75, 0
1, 27984, Note_on_c, 0, 78, 0
1, 28020, Note_on_c, 0, 73, 85
1, 28040, Note_on_c, 0, 75, 85
1, 28060, Note_on_c, 0, 76, 85
1, 28076, Note_on_c, 0, 76, 0
1, 28076, Note_on_c, 0, 75, 0
1, 28076, Note_on_c, 0, 73, 0
1, 28078, Note_on_c, 1, 69, 0
1, 28078, Note_on_c, 1, 59, 0
1, 28078, Note_on_c, 1, 63, 0
1, 28078, Note_on_c, 1, 66, 0
1, 28080, Note_on_c, 0, 80, 85
1, 28080, Note_on_c, 1, 61, 85
1, 28080, Note_on_c, 1, 64, 85
1, 28080, Note_on_c, 1, 68, 85
1, 28224, Note_on_c, 0, 80, 0
1, 28260, Note_on_c, 0, 69, 85
1, 28280, Note_on_c, 0, 73, 85
1, 28300, Note_on_c, 0, 77, 85
1, 28316, Note_on_c, 0, 77, 0
1, 28316, Note_on_c, 0, 73, 0
1, 28316, Note_on_c, 0, 69, 0
1, 28318, Note_on_c, 1, 68, 0
1, 28318, Note_on_c, 1, 64, 0
1, 28318, Note_on_c, 1, 61, 0
1, 28320, Note_on_c, 0, 78, 85
1, 28320, Note_on_c, 1, 57, 85
1, 28320, Note_on_c, 1, 61, 85
1, 28320, Note_on_c, 1, 66, 85
1, 28512, Note_on_c, 0, 78, 0
1, 28558, Note_on_c, 1, 66, 0
1, 28558, Note_on_c, 1, 61, 0
1, 28558, Note_on_c, 1, 57, 0
1, 28680, Note_on_c, 0, 75, 85
1, 28680, Note_on_c, 1, 59, 85
1, 28680, Note_on_c, 1, 69, 85
1, 28752, Note_on_c, 0, 75, 0
1, 28770, Note_on_c, 0, 71, 85
1, 28794, Note_on_c, 0, 71, 0
1, 28798, Note_on_c, 1, 69, 0
1, 28798, Note_on_c, 1, 59, 0
1, 28800, Note_on_c, 0, 76, 85
1, 28800, Note_on_c, 1, 64, 85
1, 28800, Note_on_c, 1, 68, 85
1, 28914, Note_on_c, 0, 76, 0
1, 28920, Note_on_c, 0, 80, 85
1, 28920, Note_on_c, 0, 83, 85
1, 29038, Note_on_c, 0, 83, 0
1, 29038, Note_on_c, 0, 80, 0
1, 29038, Note_on_c, 1, 68, 0
1, 29038, Note_on_c, 1, 64, 0
1, 29040, Note_on_c, 0, 76, 85
1, 29040, Note_on_c, 0, 80, 85
1, 29158, Note_on_c, 0, 80, 0
1, 29158, Note_on_c, 0, 76, 0
1, 29160, Note_on_c, 0, 75, 85
1, 29160, Note_on_c, 1, 59, 85
1, 29160, Note_on_c, 1, 69, 85
1, 29248, Note_on_c, 0, 75, 0
1, 29250, Note_on_c, 0, 71, 85
1, 29278, Note_on_c, 0, 71, 0
1, 29278, Note_on_c, 1, 69, 0
1, 29278, Note_on_c, 1, 59, 0
1, 29280, Note_on_c, 0, 76, 85
1, 29280, Note_on_c, 1, 64, 85
1, 29280, Note_on_c, 1, 68, 85
1, 29398, Note_on_c, 0, 76, 0
1, 29400, Note_on_c, 0, 75, 85
1, 29400, Note_on_c, 0, 78, 85
1, 29448, Note_on_c, 0, 78, 0
1, 29448, Note_on_c, 0, 75, 0
1, 29518, Note_on_c, 1, 68, 0
1, 29518, Note_on_c, 1, 64, 0
1, 29520, Note_on_c, 0, 76, 85
1, 29520, Note_on_c, 0, 80, 85
1, 29568, Note_on_c, 0, 80, 0
1, 29568, Note_on_c, 0, 76, 0
1, 29640, Note_on_c, 0, 75, 64
1, 29640, Note_on_c, 1, 59, 64
1, 29640, Note_on_c, 1, 69, 64
1, 29712, Note_on_c, 0, 75, 0
1, 29730, Note_on_c, 0, 71, 64
1, 29754, Note_on_c, 0, 71, 0
1, 29758, Note_on_c, 1, 69, 0
1, 29758, Note_on_c, 1, 59, 0
1, 29760, Note_on_c, 0, 76, 64
1, 29760, Note_on_c, 1, 64, 64
1, 29760, Note_on_c, 1, 68, 64
1, 29878, Note_on_c, 0, 76, 0
1, 29880, Note_on_c, 0, 80, 62
1, 29880, Note_on_c, 0, 83, 62
1, 29998, Note_on_c, 0, 83, 0
1, 29998, Note_on_c, 0, 80, 0
1, 29998, Note_on_c, 1, 68, 0
1, 29998, Note_on_c, 1, 64, 0
1, 30000, Note_on_c, 0, 76, 60
1, 30000, Note_on_c, 0, 80, 60
1, 30118, Note_on_c, 0, 80, 0
1, 30118, Note_on_c, 0, 76, 0
1, 30120, Note_on_c, 0, 75, 58
1, 30120, Note_on_c, 1, 59, 58
1, 30120, Note_on_c, 1, 69, 58
1, 30208, Note_on_c, 0, 75, 0
1, 30210, Note_on_c, 0, 71, 56
1, 30238, Note_on_c, 0, 71, 0
1, 30238, Note_on_c, 1, 69, 0
1, 30238, Note_on_c, 1, 59, 0
1, 30240, Note_on_c, 0, 76, 56
1, 30240, Note_on_c, 1, 64, 56
1, 30240, Note_on_c, 1, 68, 56
1, 30358, Note_on_c, 0, 76, 0
1, 30360, Note_on_c, 0, 75, 54
1, 30360, Note_on_c, 0, 78, 54
1, 30408, Note_on_c, 0, 78, 0
1, 30408, Note_on_c, 0, 75, 0
1, 30478, Note_on_c, 1, 68, 0
1, 30478, Note_on_c, 1, 64, 0
1, 30480, Note_on_c, 0, 76, 52
1, 30480, Note_on_c, 0, 80, 52
1, 30528, Note_on_c, 0, 80, 0
1, 30528, Note_on_c, 0, 76, 0
1, 30600, Note_on_c, 0, 75, 50
1, 30600, Note_on_c, 1, 59, 50
1, 30600, Note_on_c, 1, 69, 50
1, 30688, Note_on_c, 0, 75, 0
1, 30690, Note_on_c, 0, 71, 48
1, 30718, Note_on_c, 0, 71, 0
1, 30718, Note_on_c, 1, 69, 0
1, 30718, Note_on_c, 1, 59, 0
1, 30720, Note_on_c, 0, 76, 48
1, 30720, Note_on_c, 1, 64, 48
1, 30720, Note_on_c, 1, 68, 48
1, 30840, Note_on_c, 0, 76, 0
1, 30840, Note_on_c, 1, 68, 0
1, 30840, Note_on_c, 1, 64, 0
1, 30960, Note_on_c, 0, 78, 41
1, 30960, Note_on_c, 0, 87, 41
1, 30960, Note_on_c, 1, 59, 41
1, 31080, Note_on_c, 0, 87, 0
1, 31080, Note_on_c, 0, 78, 0
1, 31080, Note_on_c, 1, 59, 0
1, 31200, Note_on_c, 0, 80, 34
1, 31200, Note_on_c, 0, 88, 34
1, 31200, Note_on_c, 1, 52, 34
1, 31438, Note_on_c, 0, 88, 0
1, 31438, Note_on_c, 0, 80, 0
1, 31438, Note_on_c, 1, 52, 0
1, 31680, Note_on_c, 0, 76, 85
1, 31752, Note_on_c, 0, 76, 0
1, 31770, Note_on_c, 0, 78, 85
1, 31800, Note_on_c, 0, 78, 0
1, 31800, Note_on_c, 0, 76, 85
1, 31830, Note_on_c, 0, 76, 0
1, 31830, Note_on_c, 0, 75, 85
1, 31860, Note_on_c, 0, 75, 0
1, 31860, Note_on_c, 0, 76, 85
1, 31890, Note_on_c, 0, 76, 0
1, 31890, Note_on_c, 0, 78, 85
1, 31920, Note_on_c, 0, 78, 0
1, 31920, Note_on_c, 0, 80, 85
1, 32040, Note_on_c, 0, 80, 0
1, 32040, Note_on_c, 0, 78, 85
1, 32100, Note_on_c, 0, 78, 0
1, 32160, Note_on_c, 0, 76, 85
1, 32160, Note_on_c, 1, 64, 85
1, 32220, Note_on_c, 0, 76, 0
1, 32220, Note_on_c, 1, 64, 0
1, 32220, Note_on_c, 1, 63, 85
1, 32250, Note_on_c, 1, 63, 0
1, 32280, Note_on_c, 0, 71, 85
1, 32280, Note_on_c, 1, 61, 85
1, 32310, Note_on_c, 1, 61, 0
1, 32340, Note_on_c, 0, 71, 0
1, 32340, Note_on_c, 1, 59, 85
1, 32370, Note_on_c, 1, 59, 0
1, 32400, Note_on_c, 0, 76, 85
1, 32400, Note_on_c, 1, 57, 85
1, 32460, Note_on_c, 0, 76, 0
1, 32460, Note_on_c, 1, 57, 0
1, 32460, Note_on_c, 1, 56, 85
1, 32490, Note_on_c, 1, 56, 0
1, 32520, Note_on_c, 0, 80, 85
1, 32520, Note_on_c, 1, 54, 85
1, 32550, Note_on_c, 1, 54, 0
1, 32580, Note_on_c, 0, 80, 0
1, 32580, Note_on_c, 1, 52, 85
1, 32610, Note_on_c, 1, 52, 0
1, 32640, Note_on_c, 0, 78, 85
1, 32640, Note_on_c, 1, 51, 85
1, 32712, Note_on_c, 0, 78, 0
1, 32730, Note_on_c, 0, 80, 85
1, 32760, Note_on_c, 0, 80, 0
1, 32760, Note_on_c, 0, 78, 85
1, 32790, Note_on_c, 0, 78, 0
1, 32790, Note_on_c, 0, 77, 85
1, 32820, Note_on_c, 0, 77, 0
1, 32820, Note_on_c, 0, 78, 85
1, 32850, Note_on_c, 0, 78, 0
1, 32850, Note_on_c, 0, 80, 85
1, 32878, Note_on_c, 1, 51, 0
1, 32880, Note_on_c, 0, 80, 0
1, 32880, Note_on_c, 0, 81, 85
1, 33000, Note_on_c, 0, 81, 0
1, 33000, Note_on_c, 0, 80, 85
1, 33060, Note_on_c, 0, 80, 0
1, 33120, Note_on_c, 0, 78, 85
1, 33120, Note_on_c, 1, 69, 85
1, 33180, Note_on_c, 0, 78, 0
1, 33180, Note_on_c, 1, 69, 0
1, 33180, Note_on_c, 1, 68, 85
1, 33210, Note_on_c, 1, 68, 0
1, 33240, Note_on_c, 0, 71, 85
1, 33240, Note_on_c, 1, 66, 85
1, 33270, Note_on_c, 1, 66, 0
1, 33300, Note_on_c, 0, 71, 0
1, 33300, Note_on_c, 1, 64, 85
1, 33330, Note_on_c, 1, 64, 0
1, 33360, Note_on_c, 0, 78, 85
1, 33360, Note_on_c, 1, 63, 85
1, 33420, Note_on_c, 0, 78, 0
1, 33420, Note_on_c, 1, 63, 0
1, 33420, Note_on_c, 1, 61, 85
1, 33450, Note_on_c, 1, 61, 0
1, 33480, Note_on_c, 0, 81, 85
1, 33480, Note_on_c, 1, 59, 85
1, 33510, Note_on_c, 1, 59, 0
1, 33540, Note_on_c, 0, 81, 0
1, 33540, Note_on_c, 1, 63, 85
1, 33570, Note_on_c, 1, 63, 0
1, 33600, Note_on_c, 0, 80, 85
1, 33600, Note_on_c, 1, 64, 85
1, 33672, Note_on_c, 0, 80, 0
1, 33690, Note_on_c, 0, 81, 85
1, 33720, Note_on_c, 0, 81, 0
1, 33720, Note_on_c, 0, 80, 85
1, 33750, Note_on_c, 0, 80, 0
1, 33750, Note_on_c, 0, 78, 85
1, 33780, Note_on_c, 0, 78, 0
1, 33780, Note_on_c, 0, 80, 85
1, 33810, Note_on_c, 0, 80, 0
1, 33810, Note_on_c, 0, 81, 85
1, 33840, Note_on_c, 0, 81, 0
1, 33840, Note_on_c, 0, 83, 85
1, 33900, Note_on_c, 0, 83, 0
1, 33900, Note_on_c, 0, 81, 85
1, 33924, Note_on_c, 0, 81, 0
1, 33958, Note_on_c, 1, 64, 0
1, 33960, Note_on_c, 0, 80, 85
1, 33960, Note_on_c, 1, 62, 85
1, 33984, Note_on_c, 0, 80, 0
1, 34020, Note_on_c, 0, 78, 85
1, 34044, Note_on_c, 0, 78, 0
1, 34078, Note_on_c, 1, 62, 0
1, 34080, Note_on_c, 0, 77, 85
1, 34080, Note_on_c, 1, 61, 85
1, 34128, Note_on_c, 0, 77, 0
1, 34140, Note_on_c, 0, 80, 85
1, 34188, Note_on_c, 0, 80, 0
1, 34200, Note_on_c, 0, 83, 85
1, 34248, Note_on_c, 0, 83, 0
1, 34260, Note_on_c, 0, 86, 85
1, 34308, Note_on_c, 0, 86, 0
1, 34318, Note_on_c, 1, 61, 0
1, 34320, Note_on_c, 0, 85, 85
1, 34320, Note_on_c, 1, 65, 85
1, 34368, Note_on_c, 0, 85, 0
1, 34380, Note_on_c, 0, 83, 85
1, 34428, Note_on_c, 0, 83, 0
1, 34440, Note_on_c, 0, 81, 85
1, 34488, Note_on_c, 0, 81, 0
1, 34500, Note_on_c, 0, 80, 85
1, 34548, Note_on_c, 0, 80, 0
1, 34558, Note_on_c, 1, 65, 0
1, 34560, Note_on_c, 0, 78, 85
1, 34560, Note_on_c, 1, 66, 85
1, 34632, Note_on_c, 0, 78, 0
1, 34632, Note_on_c, 1, 66, 0
1, 34650, Note_on_c, 0, 80, 85
1, 34650, Note_on_c, 1, 68, 85
1, 34680, Note_on_c, 0, 80, 0
1, 34680, Note_on_c, 0, 78, 85
1, 34680, Note_on_c, 1, 68, 0
1, 34680, Note_on_c, 1, 66, 85
1, 34710, Note_on_c, 0, 78, 0
1, 34710, Note_on_c, 0, 77, 85
1, 34710, Note_on_c, 1, 66, 0
1, 34710, Note_on_c, 1, 65, 85
1, 34740, Note_on_c, 0, 77, 0
1, 34740, Note_on_c, 0, 78, 85
1, 34740, Note_on_c, 1, 65, 0
1, 34740, Note_on_c, 1, 66, 85
1, 34770, Note_on_c, 0, 78, 0
1, 34770, Note_on_c, 0, 80, 85
1, 34770, Note_on_c, 1, 66, 0
1, 34770, Note_on_c, 1, 68, 85
1, 34800, Note_on_c, 0, 80, 0
1, 34800, Note_on_c, 0, 81, 85
1, 34800, Note_on_c, 1, 68, 0
1, 34800, Note_on_c, 1, 69, 85
1, 34920, Note_on_c, 0, 81, 0
1, 34920, Note_on_c, 0, 80, 85
1, 34920, Note_on_c, 1, 69, 0
1, 34920, Note_on_c, 1, 68, 85
1, 34980, Note_on_c, 0, 80, 0
1, 34980, Note_on_c, 1, 68, 0
1, 35040, Note_on_c, 0, 78, 85
1, 35040, Note_on_c, 1, 66, 85
1, 35100, Note_on_c, 0, 78, 0
1, 35100, Note_on_c, 1, 66, 0
1, 35160, Note_on_c, 0, 73, 85
1, 35160, Note_on_c, 1, 61, 85
1, 35220, Note_on_c, 0, 73, 0
1, 35220, Note_on_c, 1, 61, 0
1, 35280, Note_on_c, 0, 78, 85
1, 35280, Note_on_c, 1, 66, 85
1, 35340, Note_on_c, 0, 78, 0
1, 35340, Note_on_c, 1, 66, 0
1, 35400, Note_on_c, 0, 81, 85
1, 35400, Note_on_c, 1, 69, 85
1, 35460, Note_on_c, 0, 81, 0
1, 35460, Note_on_c, 1, 69, 0
1, 35520, Note_on_c, 0, 78, 85
1, 35520, Note_on_c, 1, 66, 85
1, 35638, Note_on_c, 0, 78, 0
1, 35640, Note_on_c, 0, 85, 64
1, 35758, Note_on_c, 0, 85, 0
1, 35758, Note_on_c, 1, 66, 0
1, 35760, Note_on_c, 0, 85, 64
1, 35878, Note_on_c, 0, 85, 0
1, 35880, Note_on_c, 0, 85, 64
1, 35998, Note_on_c, 0, 85, 0
1, 36000, Note_on_c, 0, 86, 64
1, 36032, Note_on_c, 0, 86, 0
1, 36040, Note_on_c, 0, 85, 64
1, 36072, Note_on_c, 0, 85, 0
1, 36080, Note_on_c, 0, 84, 64
1, 36112, Note_on_c, 0, 84, 0
1, 36120, Note_on_c, 0, 85, 64
1, 36120, Note_on_c, 1, 66, 64
1, 36120, Note_on_c, 1, 69, 64
1, 36216, Note_on_c, 0, 85, 0
1, 36240, Note_on_c, 1, 69, 0
1, 36240, Note_on_c, 1, 66, 0
1, 36240, Note_on_c, 1, 65, 64
1, 36240, Note_on_c, 1, 68, 64
1, 36360, Note_on_c, 1, 68, 0
1, 36360, Note_on_c, 1, 65, 0
1, 36360, Note_on_c, 1, 66, 64
1, 36360, Note_on_c, 1, 69, 64
1, 36480, Note_on_c, 1, 69, 0
1, 36480, Note_on_c, 1, 66, 0
1, 36480, Note_on_c, 1, 68, 64
1, 36480, Note_on_c, 1, 71, 64
1, 36600, Note_on_c, 0, 85, 64
1, 36718, Note_on_c, 0, 85, 0
1, 36718, Note_on_c, 1, 71, 0
1, 36718, Note_on_c, 1, 68, 0
1, 36720, Note_on_c, 0, 85, 64
1, 36838, Note_on_c, 0, 85, 0
1, 36840, Note_on_c, 0, 85, 64
1, 36958, Note_on_c, 0, 85, 0
1, 36960, Note_on_c, 0, 86, 64
1, 36992, Note_on_c, 0, 86, 0
1, 37000, Note_on_c, 0, 85, 64
1, 37032, Note_on_c, 0, 85, 0
1, 37040, Note_on_c, 0, 84, 64
1, 37072, Note_on_c, 0, 84, 0
1, 37080, Note_on_c, 0, 85, 64
1, 37080, Note_on_c, 1, 68, 64
1, 37080, Note_on_c, 1, 71, 64
1, 37176, Note_on_c, 0, 85, 0
1, 37200, Note_on_c, 1, 71, 0
1, 37200, Note_on_c, 1, 68, 0
1, 37200, Note_on_c, 1, 66, 64
1, 37200, Note_on_c, 1, 69, 64
1, 37320, Note_on_c, 1, 69, 0
1, 37320, Note_on_c, 1, 66, 0
1, 37320, Note_on_c, 1, 68, 64
1, 37320, Note_on_c, 1, 71, 64
1, 37440, Note_on_c, 1, 71, 0
1, 37440, Note_on_c, 1, 68, 0
1, 37440, Note_on_c, 1, 69, 64
1, 37440, Note_on_c, 1, 73, 64
1, 37560, Note_on_c, 0, 78, 67
1, 37656, Note_on_c, 0, 78, 0
1, 37678, Note_on_c, 1, 73, 0
1, 37678, Note_on_c, 1, 69, 0
1, 37680, Note_on_c, 0, 78, 69
1, 37776, Note_on_c, 0, 78, 0
1, 37800, Note_on_c, 0, 78, 72
1, 37872, Note_on_c, 0, 78, 0
1, 37890, Note_on_c, 0, 80, 74
1, 37914, Note_on_c, 0, 80, 0
1, 37920, Note_on_c, 0, 78, 75
1, 37944, Note_on_c, 0, 78, 0
1, 37950, Note_on_c, 0, 77, 75
1, 37974, Note_on_c, 0, 77, 0
1, 37980, Note_on_c, 0, 78, 76
1, 38004, Note_on_c, 0, 78, 0
1, 38010, Note_on_c, 0, 80, 76
1, 38034, Note_on_c, 0, 80, 0
1, 38040, Note_on_c, 0, 69, 77
1, 38040, Note_on_c, 0, 73, 77
1, 38040, Note_on_c, 0, 81, 77
1, 38040, Note_on_c, 1, 57, 77
1, 38040, Note_on_c, 1, 61, 77
1, 38040, Note_on_c, 1, 64, 77
1, 38136, Note_on_c, 0, 81, 0
1, 38136, Note_on_c, 0, 73, 0
1, 38136, Note_on_c, 0, 69, 0
1, 38158, Note_on_c, 1, 64, 0
1, 38158, Note_on_c, 1, 61, 0
1, 38158, Note_on_c, 1, 57, 0
1, 38160, Note_on_c, 0, 69, 80
1, 38160, Note_on_c, 0, 73, 80
1, 38160, Note_on_c, 0, 81, 80
1, 38160, Note_on_c, 1, 57, 80
1, 38160, Note_on_c, 1, 61, 80
1, 38160, Note_on_c, 1, 64, 80
1, 38256, Note_on_c, 0, 81, 0
1, 38256, Note_on_c, 0, 73, 0
1, 38256, Note_on_c, 0, 69, 0
1, 38278, Note_on_c, 1, 64, 0
1, 38278, Note_on_c, 1, 61, 0
1, 38278, Note_on_c, 1, 57, 0
1, 38280, Note_on_c, 0, 69, 82
1, 38280, Note_on_c, 0, 73, 82
1, 38280, Note_on_c, 0, 81, 82
1, 38280, Note_on_c, 1, 57, 82
1, 38280, Note_on_c, 1, 61, 82
1, 38280, Note_on_c, 1, 64, 82
1, 38376, Note_on_c, 0, 81, 0
1, 38376, Note_on_c, 0, 73, 0
1, 38376, Note_on_c, 0, 69, 0
1, 38398, Note_on_c, 1, 64, 0
1, 38398, Note_on_c, 1, 61, 0
1, 38398, Note_on_c, 1, 57, 0
1, 38400, Note_on_c, 0, 81, 85
1, 38400, Note_on_c, 0, 69, 85
1, 38400, Note_on_c, 0, 73, 85
1, 38400, Note_on_c, 1, 57, 85
1, 38400, Note_on_c, 1, 61, 85
1, 38400, Note_on_c, 1, 64, 85
1, 38496, Note_on_c, 0, 81, 0
1, 38518, Note_on_c, 0, 73, 0
1, 38518, Note_on_c, 0, 69, 0
1, 38518, Note_on_c, 1, 64, 0
1, 38518, Note_on_c, 1, 61, 0
1, 38518, Note_on_c, 1, 57, 0
1, 38520, Note_on_c, 0, 79, 85
1, 38520, Note_on_c, 0, 76, 85
1, 38520, Note_on_c, 1, 61, 85
1, 38520, Note_on_c, 1, 64, 85
1, 38578, Note_on_c, 0, 76, 0
1, 38580, Note_on_c, 0, 69, 85
1, 38616, Note_on_c, 0, 79, 0
1, 38638, Note_on_c, 0, 69, 0
1, 38638, Note_on_c, 1, 64, 0
1, 38638, Note_on_c, 1, 61, 0
1, 38640, Note_on_c, 0, 79, 85
1, 38640, Note_on_c, 0, 76, 85
1, 38640, Note_on_c, 1, 61, 85
1, 38640, Note_on_c, 1, 64, 85
1, 38698, Note_on_c, 0, 76, 0
1, 38700, Note_on_c, 0, 69, 85
1, 38736, Note_on_c, 0, 79, 0
1, 38758, Note_on_c, 0, 69, 0
1, 38758, Note_on_c, 1, 64, 0
1, 38758, Note_on_c, 1, 61, 0
1, 38760, Note_on_c, 0, 79, 85
1, 38760, Note_on_c, 0, 76, 85
1, 38760, Note_on_c, 1, 61, 85
1, 38760, Note_on_c, 1, 64, 85
1, 38818, Note_on_c, 0, 76, 0
1, 38820, Note_on_c, 0, 69, 85
1, 38856, Note_on_c, 0, 79, 0
1, 38878, Note_on_c, 1, 64, 0
1, 38878, Note_on_c, 1, 61, 0
1, 38880, Note_on_c, 0, 76, 85
1, 38880, Note_on_c, 0, 79, 85
1, 38880, Note_on_c, 1, 61, 85
1, 38880, Note_on_c, 1, 64, 85
1, 39072, Note_on_c, 0, 79, 0
1, 39118, Note_on_c, 0, 76, 0
1, 39118, Note_on_c, 0, 69, 0
1, 39118, Note_on_c, 1, 64, 0
1, 39118, Note_on_c, 1, 61, 0
1, 39360, Note_on_c, 1, 61, 48
1, 39360, Note_on_c, 1, 64, 48
1, 39480, Note_on_c, 0, 79, 48
1, 39480, Note_on_c, 0, 76, 48
1, 39538, Note_on_c, 0, 76, 0
1, 39540, Note_on_c, 0, 69, 48
1, 39576, Note_on_c, 0, 79, 0
1, 39598, Note_on_c, 0, 69, 0
1, 39598, Note_on_c, 1, 64, 0
1, 39598, Note_on_c, 1, 61, 0
1, 39600, Note_on_c, 0, 79, 48
1, 39600, Note_on_c, 0, 76, 48
1, 39658, Note_on_c, 0, 76, 0
1, 39660, Note_on_c, 0, 69, 48
1, 39696, Note_on_c, 0, 79, 0
1, 39718, Note_on_c, 0, 69, 0
1, 39720, Note_on_c, 0, 79, 48
1, 39720, Note_on_c, 0, 76, 48
1, 39778, Note_on_c, 0, 76, 0
1, 39780, Note_on_c, 0, 69, 48
1, 39816, Note_on_c, 0, 79, 0
1, 39838, Note_on_c, 0, 69, 0
1, 39840, Note_on_c, 0, 79, 48
1, 39840, Note_on_c, 0, 76, 48
1, 39912, Note_on_c, 0, 76, 0
1, 39912, Note_on_c, 0, 79, 0
1, 39960, Note_on_c, 0, 79, 96
1, 39960, Note_on_c, 0, 73, 96
1, 39960, Note_on_c, 1, 57, 96
1, 39960, Note_on_c, 1, 64, 96
1, 40018, Note_on_c, 0, 73, 0
1, 40020, Note_on_c, 0, 69, 96
1, 40056, Note_on_c, 0, 79, 0
1, 40078, Note_on_c, 0, 69, 0
1, 40078, Note_on_c, 1, 64, 0
1, 40078, Note_on_c, 1, 57, 0
1, 40080, Note_on_c, 0, 79, 96
1, 40080, Note_on_c, 0, 73, 96
1, 40080, Note_on_c, 1, 57, 96
1, 40080, Note_on_c, 1, 64, 96
1, 40138, Note_on_c, 0, 73, 0
1, 40140, Note_on_c, 0, 69, 96
1, 40176, Note_on_c, 0, 79, 0
1, 40198, Note_on_c, 0, 69, 0
1, 40198, Note_on_c, 1, 64, 0
1, 40198, Note_on_c, 1, 57, 0
1, 40200, Note_on_c, 0, 79, 96
1, 40200, Note_on_c, 0, 73, 96
1, 40200, Note_on_c, 1, 57, 96
1, 40200, Note_on_c, 1, 61, 96
1, 40258, Note_on_c, 0, 73, 0
1, 40260, Note_on_c, 0, 69, 96
1, 40296, Note_on_c, 0, 79, 0
1, 40318, Note_on_c, 0, 69, 0
1, 40318, Note_on_c, 1, 61, 0
1, 40318, Note_on_c, 1, 57, 0
1, 40320, Note_on_c, 0, 80, 96
1, 40320, Note_on_c, 0, 72, 96
1, 40320, Note_on_c, 0, 75, 96
1, 40320, Note_on_c, 1, 56, 96
1, 40320, Note_on_c, 1, 60, 96
1, 40320, Note_on_c, 1, 63, 96
1, 40416, Note_on_c, 0, 80, 0
1, 40438, Note_on_c, 0, 75, 0
1, 40438, Note_on_c, 0, 72, 0
1, 40438, Note_on_c, 1, 63, 0
1, 40438, Note_on_c, 1, 60, 0
1, 40438, Note_on_c, 1, 56, 0
1, 40440, Note_on_c, 0, 80, 96
1, 40440, Note_on_c, 0, 75, 96
1, 40440, Note_on_c, 1, 56, 96
1, 40440, Note_on_c, 1, 60, 96
1, 40440, Note_on_c, 1, 63, 96
1, 40498, Note_on_c, 0, 75, 0
1, 40500, Note_on_c, 0, 72, 96
1, 40536, Note_on_c, 0, 80, 0
1, 40558, Note_on_c, 0, 72, 0
1, 40558, Note_on_c, 1, 63, 0
1, 40558, Note_on_c, 1, 60, 0
1, 40558, Note_on_c, 1, 56, 0
1, 40560, Note_on_c, 0, 80, 96
1, 40560, Note_on_c, 0, 75, 96
1, 40560, Note_on_c, 1, 56, 96
1, 40560, Note_on_c, 1, 60, 96
1, 40560, Note_on_c, 1, 63, 96
1, 40618, Note_on_c, 0, 75, 0
1, 40620, Note_on_c, 0, 72, 96
1, 40656, Note_on_c, 0, 80, 0
1, 40678, Note_on_c, 0, 72, 0
1, 40678, Note_on_c, 1, 63, 0
1, 40678, Note_on_c, 1, 60, 0
1, 40678, Note_on_c, 1, 56, 0
1, 40680, Note_on_c, 0, 80, 96
1, 40680, Note_on_c, 0, 75, 96
1, 40680, Note_on_c, 1, 56, 96
1, 40680, Note_on_c, 1, 60, 96
1, 40680, Note_on_c, 1, 63, 96
1, 40738, Note_on_c, 0, 75, 0
1, 40740, Note_on_c, 0, 72, 96
1, 40776, Note_on_c, 0, 80, 0
1, 40798, Note_on_c, 0, 72, 0
1, 40798, Note_on_c, 1, 63, 0
1, 40798, Note_on_c, 1, 60, 0
1, 40798, Note_on_c, 1, 56, 0
1, 40800, Note_on_c, 0, 80, 96
1, 40800, Note_on_c, 0, 75, 96
1, 40800, Note_on_c, 1, 56, 96
1, 40800, Note_on_c, 1, 60, 96
1, 40800, Note_on_c, 1, 63, 96
1, 41250, Note_on_c, 0, 75, 0
1, 41250, Note_on_c, 0, 80, 0
1, 41250, Note_on_c, 1, 63, 0
1, 41250, Note_on_c, 1, 60, 0
1, 41250, Note_on_c, 1, 56, 0
1, 41760, Note_on_c, 0, 56, 85
1, 41760, Note_on_c, 1, 32, 85
1, 41760, Note_on_c, 1, 44, 85
1, 41832, Note_on_c, 0, 56, 0
1, 41832, Note_on_c, 1, 44, 0
1, 41832, Note_on_c, 1, 32, 0
1, 41850, Note_on_c, 0, 58, 85
1, 41850, Note_on_c, 1, 46, 85
1, 41880, Note_on_c, 0, 58, 0
1, 41880, Note_on_c, 0, 56, 85
1, 41880, Note_on_c, 1, 46, 0
1, 41880, Note_on_c, 1, 44, 85
1, 41910, Note_on_c, 0, 56, 0
1, 41910, Note_on_c, 0, 55, 85
1, 41910, Note_on_c, 1, 44, 0
1, 41910, Note_on_c, 1, 43, 85
1, 41940, Note_on_c, 0, 55, 0
1, 41940, Note_on_c, 0, 56, 85
1, 41940, Note_on_c, 1, 43, 0
1, 41940, Note_on_c, 1, 44, 85
1, 41970, Note_on_c, 0, 56, 0
1, 41970, Note_on_c, 0, 58, 85
1, 41970, Note_on_c, 1, 44, 0
1, 41970, Note_on_c, 1, 46, 85
1, 42000, Note_on_c, 0, 58, 0
1, 42000, Note_on_c, 0, 59, 85
1, 42000, Note_on_c, 1, 46, 0
1, 42000, Note_on_c, 1, 47, 85
1, 42120, Note_on_c, 0, 59, 0
1, 42120, Note_on_c, 0, 58, 85
1, 42120, Note_on_c, 1, 47, 0
1, 42120, Note_on_c, 1, 46, 85
1, 42180, Note_on_c, 0, 58, 0
1, 42180, Note_on_c, 1, 46, 0
1, 42240, Note_on_c, 0, 56, 85
1, 42240, Note_on_c, 1, 44, 85
1, 42300, Note_on_c, 0, 56, 0
1, 42300, Note_on_c, 1, 44, 0
1, 42360, Note_on_c, 0, 51, 85
1, 42360, Note_on_c, 1, 39, 85
1, 42420, Note_on_c, 0, 51, 0
1, 42420, Note_on_c, 1, 39, 0
1, 42480, Note_on_c, 0, 56, 85
1, 42480, Note_on_c, 1, 44, 85
1, 42540, Note_on_c, 0, 56, 0
1, 42540, Note_on_c, 1, 44, 0
1, 42600, Note_on_c, 0, 59, 85
1, 42600, Note_on_c, 1, 47, 85
1, 42660, Note_on_c, 0, 59, 0
1, 42660, Note_on_c, 1, 47, 0
1, 42720, Note_on_c, 0, 56, 85
1, 42720, Note_on_c, 1, 44, 85
1, 42838, Note_on_c, 0, 56, 0
1, 42840, Note_on_c, 0, 63, 64
1, 42958, Note_on_c, 0, 63, 0
1, 42958, Note_on_c, 1, 44, 0
1, 42960, Note_on_c, 0, 63, 64
1, 43078, Note_on_c, 0, 63, 0
1, 43080, Note_on_c, 0, 63, 64
1, 43198, Note_on_c, 0, 63, 0
1, 43200, Note_on_c, 0, 64, 64
1, 43232, Note_on_c, 0, 64, 0
1, 43240, Note_on_c, 0, 63, 64
1, 43272, Note_on_c, 0, 63, 0
1, 43280, Note_on_c, 0, 62, 64
1, 43312, Note_on_c, 0, 62, 0
1, 43320, Note_on_c, 0, 63, 64
1, 43320, Note_on_c, 1, 59, 64
1, 43320, Note_on_c, 1, 56, 64
1, 43416, Note_on_c, 0, 63, 0
1, 43440, Note_on_c, 1, 56, 0
1, 43440, Note_on_c, 1, 59, 0
1, 43440, Note_on_c, 1, 58, 64
1, 43440, Note_on_c, 1, 55, 64
1, 43560, Note_on_c, 1, 55, 0
1, 43560, Note_on_c, 1, 58, 0
1, 43560, Note_on_c, 1, 56, 64
1, 43560, Note_on_c, 1, 59, 64
1, 43680, Note_on_c, 1, 59, 0
1, 43680, Note_on_c, 1, 56, 0
1, 43680, Note_on_c, 1, 58, 64
1, 43680, Note_on_c, 1, 61, 64
1, 43800, Note_on_c, 0, 63, 64
1, 43918, Note_on_c, 0, 63, 0
1, 43918, Note_on_c, 1, 61, 0
1, 43918, Note_on_c, 1, 58, 0
1, 43920, Note_on_c, 0, 63, 64
1, 44038, Note_on_c, 0, 63, 0
1, 44040, Note_on_c, 0, 63, 64
1, 44158, Note_on_c, 0, 63, 0
1, 44160, Note_on_c, 0, 64, 64
1, 44192, Note_on_c, 0, 64, 0
1, 44200, Note_on_c, 0, 63, 64
1, 44232, Note_on_c, 0, 63, 0
1, 44240, Note_on_c, 0, 62, 64
1, 44272, Note_on_c, 0, 62, 0
1, 44280, Note_on_c, 0, 63, 64
1, 44280, Note_on_c, 1, 58, 64
1, 44280, Note_on_c, 1, 61, 64
1, 44376, Note_on_c, 0, 63, 0
1, 44400, Note_on_c, 1, 61, 0
1, 44400, Note_on_c, 1, 58, 0
1, 44400, Note_on_c, 1, 56, 64
1, 44400, Note_on_c, 1, 59, 64
1, 44520, Note_on_c, 1, 59, 0
1, 44520, Note_on_c, 1, 56, 0
1, 44520, Note_on_c, 1, 58, 64
1, 44520, Note_on_c, 1, 61, 64
1, 44640, Note_on_c, 1, 61, 0
1, 44640, Note_on_c, 1, 58, 0
1, 44640, Note_on_c, 1, 59, 64
1, 44640, Note_on_c, 1, 63, 64
1, 44760, Note_on_c, 0, 68, 67
1, 44878, Note_on_c, 0, 68, 0
1, 44878, Note_on_c, 1, 63, 0
1, 44878, Note_on_c, 1, 59, 0
1, 44880, Note_on_c, 0, 68, 69
1, 44998, Note_on_c, 0, 68, 0
1, 45000, Note_on_c, 0, 68, 72
1, 45072, Note_on_c, 0, 68, 0
1, 45090, Note_on_c, 0, 70, 74
1, 45114, Note_on_c, 0, 70, 0
1, 45120, Note_on_c, 0, 68, 75
1, 45144, Note_on_c, 0, 68, 0
1, 45150, Note_on_c, 0, 67, 75
1, 45174, Note_on_c, 0, 67, 0
1, 45180, Note_on_c, 0, 68, 76
1, 45204, Note_on_c, 0, 68, 0
1, 45210, Note_on_c, 0, 70, 76
1, 45234, Note_on_c, 0, 70, 0
1, 45240, Note_on_c, 0, 71, 77
1, 45240, Note_on_c, 1, 47, 77
1, 45240, Note_on_c, 1, 51, 77
1, 45336, Note_on_c, 0, 71, 0
1, 45358, Note_on_c, 1, 51, 0
1, 45358, Note_on_c, 1, 47, 0
1, 45360, Note_on_c, 0, 71, 80
1, 45360, Note_on_c, 1, 47, 80
1, 45360, Note_on_c, 1, 51, 80
1, 45456, Note_on_c, 0, 71, 0
1, 45478, Note_on_c, 1, 51, 0
1, 45478, Note_on_c, 1, 47, 0
1, 45480, Note_on_c, 0, 71, 82
1, 45480, Note_on_c, 1, 47, 82
1, 45480, Note_on_c, 1, 51, 82
1, 45576, Note_on_c, 0, 71, 0
1, 45598, Note_on_c, 1, 51, 0
1, 45598, Note_on_c, 1, 47, 0
1, 45600, Note_on_c, 0, 71, 96
1, 45720, Note_on_c, 1, 49, 48
1, 45720, Note_on_c, 1, 52, 48
1, 45780, Note_on_c, 1, 52, 0
1, 45780, Note_on_c, 1, 49, 0
1, 45838, Note_on_c, 0, 71, 0
1, 45840, Note_on_c, 0, 70, 48
1, 45840, Note_on_c, 1, 49, 48
1, 45840, Note_on_c, 1, 52, 48
1, 45900, Note_on_c, 0, 70, 0
1, 45900, Note_on_c, 1, 52, 0
1, 45900, Note_on_c, 1, 49, 0
1, 45960, Note_on_c, 0, 76, 48
1, 45960, Note_on_c, 1, 49, 48
1, 45960, Note_on_c, 1, 52, 48
1, 46020, Note_on_c, 0, 76, 0
1, 46020, Note_on_c, 1, 52, 0
1, 46020, Note_on_c, 1, 49, 0
1, 46080, Note_on_c, 0, 68, 48
1, 46200, Note_on_c, 1, 51, 48
1, 46200, Note_on_c, 1, 58, 48
1, 46318, Note_on_c, 0, 68, 0
1, 46318, Note_on_c, 1, 58, 0
1, 46318, Note_on_c, 1, 51, 0
1, 46320, Note_on_c, 0, 67, 48
1, 46320, Note_on_c, 1, 51, 48
1, 46320, Note_on_c, 1, 58, 48
1, 46438, Note_on_c, 0, 67, 0
1, 46438, Note_on_c, 1, 58, 0
1, 46438, Note_on_c, 1, 51, 0
1, 46440, Note_on_c, 0, 73, 64
1, 46440, Note_on_c, 1, 51, 64
1, 46440, Note_on_c, 1, 58, 64
1, 46558, Note_on_c, 0, 73, 0
1, 46558, Note_on_c, 1, 58, 0
1, 46558, Note_on_c, 1, 51, 0
1, 46560, Note_on_c, 0, 73, 96
1, 46680, Note_on_c, 1, 44, 48
1, 46680, Note_on_c, 1, 56, 48
1, 46740, Note_on_c, 1, 56, 0
1, 46740, Note_on_c, 1, 44, 0
1, 46798, Note_on_c, 0, 73, 0
1, 46800, Note_on_c, 0, 72, 48
1, 46800, Note_on_c, 1, 44, 48
1, 46800, Note_on_c, 1, 56, 48
1, 46860, Note_on_c, 0, 72, 0
1, 46860, Note_on_c, 1, 56, 0
1, 46860, Note_on_c, 1, 44, 0
1, 46920, Note_on_c, 0, 78, 48
1, 46920, Note_on_c, 1, 44, 48
1, 46920, Note_on_c, 1, 56, 48
1, 46980, Note_on_c, 0, 78, 0
1, 46980, Note_on_c, 1, 56, 0
1, 46980, Note_on_c, 1, 44, 0
1, 47040, Note_on_c, 0, 66, 48
1, 47160, Note_on_c, 1, 49, 48
1, 47160, Note_on_c, 1, 56, 48
1, 47278, Note_on_c, 0, 66, 0
1, 47278, Note_on_c, 1, 56, 0
1, 47278, Note_on_c, 1, 49, 0
1, 47280, Note_on_c, 0, 65, 48
1, 47280, Note_on_c, 1, 49, 48
1, 47280, Note_on_c, 1, 56, 48
1, 47398, Note_on_c, 0, 65, 0
1, 47398, Note_on_c, 1, 56, 0
1, 47398, Note_on_c, 1, 49, 0
1, 47400, Note_on_c, 0, 71, 64
1, 47400, Note_on_c, 1, 49, 64
1, 47400, Note_on_c, 1, 56, 64
1, 47518, Note_on_c, 0, 71, 0
1, 47518, Note_on_c, 1, 56, 0
1, 47518, Note_on_c, 1, 49, 0
1, 47520, Note_on_c, 0, 71, 96
1, 47640, Note_on_c, 1, 42, 53
1, 47640, Note_on_c, 1, 54, 53
1, 47700, Note_on_c, 1, 54, 0
1, 47700, Note_on_c, 1, 42, 0
1, 47758, Note_on_c, 0, 71, 0
1, 47760, Note_on_c, 0, 70, 57
1, 47760, Note_on_c, 1, 42, 57
1, 47760, Note_on_c, 1, 54, 57
1, 47820, Note_on_c, 0, 70, 0
1, 47820, Note_on_c, 1, 54, 0
1, 47820, Note_on_c, 1, 42, 0
1, 47880, Note_on_c, 0, 76, 62
1, 47880, Note_on_c, 1, 42, 62
1, 47880, Note_on_c, 1, 54, 62
1, 47940, Note_on_c, 0, 76, 0
1, 47940, Note_on_c, 1, 54, 0
1, 47940, Note_on_c, 1, 42, 0
1, 48000, Note_on_c, 0, 64, 67
1, 48120, Note_on_c, 1, 47, 71
1, 48120, Note_on_c, 1, 54, 71
1, 48238, Note_on_c, 0, 64, 0
1, 48238, Note_on_c, 1, 54, 0
1, 48238, Note_on_c, 1, 47, 0
1, 48240, Note_on_c, 0, 63, 76
1, 48240, Note_on_c, 1, 47, 76
1, 48240, Note_on_c, 1, 54, 76
1, 48358, Note_on_c, 0, 63, 0
1, 48358, Note_on_c, 1, 54, 0
1, 48358, Note_on_c, 1, 47, 0
1, 48360, Note_on_c, 0, 69, 80
1, 48360, Note_on_c, 1, 47, 80
1, 48360, Note_on_c, 1, 54, 80
1, 48478, Note_on_c, 0, 69, 0
1, 48478, Note_on_c, 1, 54, 0
1, 48478, Note_on_c, 1, 47, 0
1, 48480, Note_on_c, 0, 64, 85
1, 48480, Note_on_c, 1, 40, 85
1, 48480, Note_on_c, 1, 52, 85
1, 48538, Note_on_c, 0, 64, 0
1, 48540, Note_on_c, 0, 76, 85
1, 48598, Note_on_c, 0, 76, 0
1, 48598, Note_on_c, 1, 52, 0
1, 48598, Note_on_c, 1, 40, 0
1, 48600, Note_on_c, 0, 68, 85
1, 48600, Note_on_c, 1, 56, 85
1, 48648, Note_on_c, 1, 56, 0
1, 48658, Note_on_c, 0, 68, 0
1, 48660, Note_on_c, 0, 76, 85
1, 48718, Note_on_c, 0, 76, 0
1, 48720, Note_on_c, 0, 71, 85
1, 48720, Note_on_c, 1, 59, 85
1, 48768, Note_on_c, 1, 59, 0
1, 48778, Note_on_c, 0, 71, 0
1, 48780, Note_on_c, 0, 76, 85
1, 48838, Note_on_c, 0, 76, 0
1, 48840, Note_on_c, 0, 68, 85
1, 48840, Note_on_c, 1, 56, 85
1, 48888, Note_on_c, 1, 56, 0
1, 48898, Note_on_c, 0, 68, 0
1, 48900, Note_on_c, 0, 76, 85
1, 48958, Note_on_c, 0, 76, 0
1, 48960, Note_on_c, 0, 64, 85
1, 48960, Note_on_c, 1, 52, 85
1, 49018, Note_on_c, 0, 64, 0
1, 49020, Note_on_c, 0, 76, 85
1, 49078, Note_on_c, 0, 76, 0
1, 49080, Note_on_c, 0, 68, 85
1, 49138, Note_on_c, 0, 68, 0
1, 49140, Note_on_c, 0, 76, 85
1, 49198, Note_on_c, 0, 76, 0
1, 49198, Note_on_c, 1, 52, 0
1, 49200, Note_on_c, 0, 71, 85
1, 49258, Note_on_c, 0, 71, 0
1, 49260, Note_on_c, 0, 76, 85
1, 49318, Note_on_c, 0, 76, 0
1, 49320, Note_on_c, 0, 68, 85
1, 49378, Note_on_c, 0, 68, 0
1, 49380, Note_on_c, 0, 76, 85
1, 49438, Note_on_c, 0, 76, 0
1, 49440, Note_on_c, 0, 65, 85
1, 49440, Note_on_c, 1, 41, 85
1, 49440, Note_on_c, 1, 53, 85
1, 49498, Note_on_c, 0, 65, 0
1, 49500, Note_on_c, 0, 74, 85
1, 49558, Note_on_c, 0, 74, 0
1, 49558, Note_on_c, 1, 53, 0
1, 49558, Note_on_c, 1, 41, 0
1, 49560, Note_on_c, 0, 68, 85
1, 49560, Note_on_c, 1, 56, 85
1, 49618, Note_on_c, 0, 68, 0
1, 49620, Note_on_c, 0, 74, 85
1, 49678, Note_on_c, 0, 74, 0
1, 49678, Note_on_c, 1, 56, 0
1, 49680, Note_on_c, 0, 71, 85
1, 49680, Note_on_c, 1, 59, 85
1, 49738, Note_on_c, 0, 71, 0
1, 49740, Note_on_c, 0, 74, 85
1, 49798, Note_on_c, 0, 74, 0
1, 49798, Note_on_c, 1, 59, 0
1, 49800, Note_on_c, 0, 68, 85
1, 49800, Note_on_c, 1, 56, 85
1, 49858, Note_on_c, 0, 68, 0
1, 49860, Note_on_c, 0, 74, 85
1, 49918, Note_on_c, 0, 74, 0
1, 49918, Note_on_c, 1, 56, 0
1, 49920, Note_on_c, 0, 65, 85
1, 49920, Note_on_c, 1, 53, 85
1, 49978, Note_on_c, 0, 65, 0
1, 49980, Note_on_c, 0, 74, 85
1, 50038, Note_on_c, 0, 74, 0
1, 50040, Note_on_c, 0, 68, 85
1, 50098, Note_on_c, 0, 68, 0
1, 50100, Note_on_c, 0, 74, 85
1, 50158, Note_on_c, 0, 74, 0
1, 50158, Note_on_c, 1, 53, 0
1, 50160, Note_on_c, 0, 71, 85
1, 50218, Note_on_c, 0, 71, 0
1, 50220, Note_on_c, 0, 74, 85
1, 50278, Note_on_c, 0, 74, 0
1, 50280, Note_on_c, 0, 68, 85
1, 50338, Note_on_c, 0, 68, 0
1, 50340, Note_on_c, 0, 74, 85
1, 50398, Note_on_c, 0, 74, 0
1, 50400, Note_on_c, 0, 66, 85
1, 50400, Note_on_c, 1, 42, 85
1, 50400, Note_on_c, 1, 54, 85
1, 50458, Note_on_c, 0, 66, 0
1, 50460, Note_on_c, 0, 78, 85
1, 50518, Note_on_c, 0, 78, 0
1, 50518, Note_on_c, 1, 54, 0
1, 50518, Note_on_c, 1, 42, 0
1, 50520, Note_on_c, 0, 69, 85
1, 50520, Note_on_c, 1, 57, 85
1, 50568, Note_on_c, 1, 57, 0
1, 50578, Note_on_c, 0, 69, 0
1, 50580, Note_on_c, 0, 78, 85
1, 50638, Note_on_c, 0, 78, 0
1, 50640, Note_on_c, 0, 73, 85
1, 50640, Note_on_c, 1, 61, 85
1, 50688, Note_on_c, 1, 61, 0
1, 50698, Note_on_c, 0, 73, 0
1, 50700, Note_on_c, 0, 78, 85
1, 50758, Note_on_c, 0, 78, 0
1, 50760, Note_on_c, 0, 69, 85
1, 50760, Note_on_c, 1, 57, 85
1, 50808, Note_on_c, 1, 57, 0
1, 50818, Note_on_c, 0, 69, 0
1, 50820, Note_on_c, 0, 78, 85
1, 50878, Note_on_c, 0, 78, 0
1, 50880, Note_on_c, 0, 66, 85
1, 50880, Note_on_c, 1, 54, 85
1, 50938, Note_on_c, 0, 66, 0
1, 50940, Note_on_c, 0, 78, 85
1, 50998, Note_on_c, 0, 78, 0
1, 51000, Note_on_c, 0, 69, 85
1, 51058, Note_on_c, 0, 69, 0
1, 51060, Note_on_c, 0, 78, 85
1, 51118, Note_on_c, 0, 78, 0
1, 51118, Note_on_c, 1, 54, 0
1, 51120, Note_on_c, 0, 73, 85
1, 51178, Note_on_c, 0, 73, 0
1, 51180, Note_on_c, 0, 78, 85
1, 51238, Note_on_c, 0, 78, 0
1, 51240, Note_on_c, 0, 69, 85
1, 51298, Note_on_c, 0, 69, 0
1, 51300, Note_on_c, 0, 78, 85
1, 51358, Note_on_c, 0, 78, 0
1, 51360, Note_on_c, 0, 67, 85
1, 51360, Note_on_c, 1, 43, 85
1, 51360, Note_on_c, 1, 55, 85
1, 51418, Note_on_c, 0, 67, 0
1, 51420, Note_on_c, 0, 76, 85
1, 51478, Note_on_c, 0, 76, 0
1, 51478, Note_on_c, 1, 55, 0
1, 51478, Note_on_c, 1, 43, 0
1, 51480, Note_on_c, 0, 70, 85
1, 51480, Note_on_c, 1, 58, 85
1, 51538, Note_on_c, 0, 70, 0
1, 51540, Note_on_c, 0, 76, 85
1, 51598, Note_on_c, 0, 76, 0
1, 51598, Note_on_c, 1, 58, 0
1, 51600, Note_on_c, 0, 73, 85
1, 51600, Note_on_c, 1, 61, 85
1, 51658, Note_on_c, 0, 73, 0
1, 51660, Note_on_c, 0, 76, 85
1, 51718, Note_on_c, 0, 76, 0
1, 51718, Note_on_c, 1, 61, 0
1, 51720, Note_on_c, 0, 70, 85
1, 51720, Note_on_c, 1, 58, 85
1, 51778, Note_on_c, 0, 70, 0
1, 51780, Note_on_c, 0, 76, 85
1, 51838, Note_on_c, 0, 76, 0
1, 51838, Note_on_c, 1, 58, 0
1, 51840, Note_on_c, 0, 67, 85
1, 51840, Note_on_c, 1, 55, 85
1, 51898, Note_on_c, 0, 67, 0
1, 51900, Note_on_c, 0, 76, 85
1, 51958, Note_on_c, 0, 76, 0
1, 51960, Note_on_c, 0, 70, 85
1, 52018, Note_on_c, 0, 70, 0
1, 52020, Note_on_c, 0, 76, 85
1, 52078, Note_on_c, 0, 76, 0
1, 52080, Note_on_c, 0, 73, 85
1, 52080, Note_on_c, 1, 55, 0
1, 52138, Note_on_c, 0, 73, 0
1, 52140, Note_on_c, 0, 76, 85
1, 52198, Note_on_c, 0, 76, 0
1, 52200, Note_on_c, 0, 70, 85
1, 52258, Note_on_c, 0, 70, 0
1, 52260, Note_on_c, 0, 76, 85
1, 52318, Note_on_c, 0, 76, 0
1, 52320, Note_on_c, 0, 68, 50
1, 52320, Note_on_c, 1, 56, 50
1, 52378, Note_on_c, 0, 68, 0
1, 52380, Note_on_c, 0, 80, 50
1, 52438, Note_on_c, 0, 80, 0
1, 52440, Note_on_c, 0, 71, 51
1, 52440, Note_on_c, 1, 59, 51
1, 52488, Note_on_c, 1, 59, 0
1, 52498, Note_on_c, 0, 71, 0
1, 52500, Note_on_c, 0, 80, 51
1, 52558, Note_on_c, 0, 80, 0
1, 52560, Note_on_c, 0, 75, 51
1, 52560, Note_on_c, 1, 63, 51
1, 52608, Note_on_c, 1, 63, 0
1, 52618, Note_on_c, 0, 75, 0
1, 52620, Note_on_c, 0, 80, 52
1, 52678, Note_on_c, 0, 80, 0
1, 52680, Note_on_c, 0, 71, 52
1, 52680, Note_on_c, 1, 59, 52
1, 52728, Note_on_c, 1, 59, 0
1, 52738, Note_on_c, 0, 71, 0
1, 52740, Note_on_c, 0, 80, 52
1, 52798, Note_on_c, 0, 80, 0
1, 52798, Note_on_c, 1, 56, 0
1, 52800, Note_on_c, 0, 68, 53
1, 52800, Note_on_c, 1, 56, 53
1, 52858, Note_on_c, 0, 68, 0
1, 52860, Note_on_c, 0, 80, 53
1, 52918, Note_on_c, 0, 80, 0
1, 52920, Note_on_c, 0, 71, 53
1, 52920, Note_on_c, 1, 59, 53
1, 52978, Note_on_c, 0, 71, 0
1, 52980, Note_on_c, 0, 80, 53
1, 53038, Note_on_c, 0, 80, 0
1, 53040, Note_on_c, 0, 75, 54
1, 53040, Note_on_c, 1, 59, 0
1, 53040, Note_on_c, 1, 63, 54
1, 53098, Note_on_c, 0, 75, 0
1, 53100, Note_on_c, 0, 80, 54
1, 53158, Note_on_c, 0, 80, 0
1, 53160, Note_on_c, 0, 71, 54
1, 53160, Note_on_c, 1, 63, 0
1, 53160, Note_on_c, 1, 59, 54
1, 53218, Note_on_c, 0, 71, 0
1, 53220, Note_on_c, 0, 80, 55
1, 53278, Note_on_c, 0, 80, 0
1, 53278, Note_on_c, 1, 56, 0
1, 53280, Note_on_c, 0, 69, 55
1, 53280, Note_on_c, 1, 59, 0
1, 53280, Note_on_c, 1, 54, 55
1, 53338, Note_on_c, 0, 69, 0
1, 53340, Note_on_c, 0, 81, 55
1, 53398, Note_on_c, 0, 81, 0
1, 53400, Note_on_c, 0, 72, 56
1, 53400, Note_on_c, 1, 57, 56
1, 53448, Note_on_c, 1, 57, 0
1, 53458, Note_on_c, 0, 72, 0
1, 53460, Note_on_c, 0, 81, 56
1, 53518, Note_on_c, 0, 81, 0
1, 53520, Note_on_c, 0, 75, 56
1, 53520, Note_on_c, 1, 60, 56
1, 53568, Note_on_c, 1, 60, 0
1, 53578, Note_on_c, 0, 75, 0
1, 53580, Note_on_c, 0, 81, 57
1, 53638, Note_on_c, 0, 81, 0
1, 53640, Note_on_c, 0, 72, 57
1, 53640, Note_on_c, 1, 57, 57
1, 53688, Note_on_c, 1, 57, 0
1, 53698, Note_on_c, 0, 72, 0
1, 53700, Note_on_c, 0, 81, 57
1, 53758, Note_on_c, 0, 81, 0
1, 53758, Note_on_c, 1, 54, 0
1, 53760, Note_on_c, 0, 69, 58
1, 53760, Note_on_c, 1, 54, 58
1, 53818, Note_on_c, 0, 69, 0
1, 53820, Note_on_c, 0, 81, 58
1, 53878, Note_on_c, 0, 81, 0
1, 53880, Note_on_c, 0, 72, 58
1, 53880, Note_on_c, 1, 57, 58
1, 53938, Note_on_c, 0, 72, 0
1, 53940, Note_on_c, 0, 81, 58
1, 53998, Note_on_c, 0, 81, 0
1, 54000, Note_on_c, 0, 75, 59
1, 54000, Note_on_c, 1, 57, 0
1, 54000, Note_on_c, 1, 60, 59
1, 54058, Note_on_c, 0, 75, 0
1, 54060, Note_on_c, 0, 81, 59
1, 54118, Note_on_c, 0, 81, 0
1, 54120, Note_on_c, 0, 72, 59
1, 54120, Note_on_c, 1, 60, 0
1, 54120, Note_on_c, 1, 57, 59
1, 54178, Note_on_c, 0, 72, 0
1, 54180, Note_on_c, 0, 81, 60
1, 54238, Note_on_c, 0, 81, 0
1, 54238, Note_on_c, 1, 54, 0
1, 54240, Note_on_c, 0, 69, 60
1, 54240, Note_on_c, 1, 57, 0
1, 54240, Note_on_c, 1, 53, 60
1, 54298, Note_on_c, 0, 69, 0
1, 54300, Note_on_c, 0, 81, 60
1, 54358, Note_on_c, 0, 81, 0
1, 54360, Note_on_c, 0, 72, 61
1, 54360, Note_on_c, 1, 57, 61
1, 54408, Note_on_c, 1, 57, 0
1, 54418, Note_on_c, 0, 72, 0
1, 54420, Note_on_c, 0, 81, 61
1, 54478, Note_on_c, 0, 81, 0
1, 54480, Note_on_c, 0, 75, 61
1, 54480, Note_on_c, 1, 60, 61
1, 54528, Note_on_c, 1, 60, 0
1, 54538, Note_on_c, 0, 75, 0
1, 54540, Note_on_c, 0, 81, 62
1, 54598, Note_on_c, 0, 81, 0
1, 54600, Note_on_c, 0, 72, 62
1, 54600, Note_on_c, 1, 57, 62
1, 54648, Note_on_c, 1, 57, 0
1, 54658, Note_on_c, 0, 72, 0
1, 54660, Note_on_c, 0, 81, 62
1, 54718, Note_on_c, 0, 81, 0
1, 54718, Note_on_c, 1, 53, 0
1, 54720, Note_on_c, 0, 69, 63
1, 54720, Note_on_c, 1, 53, 63
1, 54778, Note_on_c, 0, 69, 0
1, 54780, Note_on_c, 0, 81, 63
1, 54838, Note_on_c, 0, 81, 0
1, 54840, Note_on_c, 0, 72, 63
1, 54840, Note_on_c, 1, 57, 63
1, 54898, Note_on_c, 0, 72, 0
1, 54900, Note_on_c, 0, 81, 63
1, 54958, Note_on_c, 0, 81, 0
1, 54960, Note_on_c, 0, 75, 64
1, 54960, Note_on_c, 1, 57, 0
1, 54960, Note_on_c, 1, 60, 64
1, 55018, Note_on_c, 0, 75, 0
1, 55020, Note_on_c, 0, 81, 64
1, 55078, Note_on_c, 0, 81, 0
1, 55080, Note_on_c, 0, 72, 64
1, 55080, Note_on_c, 1, 60, 0
1, 55080, Note_on_c, 1, 57, 64
1, 55138, Note_on_c, 0, 72, 0
1, 55140, Note_on_c, 0, 81, 65
1, 55198, Note_on_c, 0, 81, 0
1, 55198, Note_on_c, 1, 53, 0
1, 55200, Note_on_c, 0, 69, 65
1, 55200, Note_on_c, 1, 57, 0
1, 55200, Note_on_c, 1, 52, 65
1, 55258, Note_on_c, 0, 69, 0
1, 55260, Note_on_c, 0, 81, 65
1, 55318, Note_on_c, 0, 81, 0
1, 55320, Note_on_c, 0, 73, 66
1, 55320, Note_on_c, 1, 57, 66
1, 55368, Note_on_c, 1, 57, 0
1, 55378, Note_on_c, 0, 73, 0
1, 55380, Note_on_c, 0, 81, 66
1, 55438, Note_on_c, 0, 81, 0
1, 55440, Note_on_c, 0, 76, 66
1, 55440, Note_on_c, 1, 61, 66
1, 55488, Note_on_c, 1, 61, 0
1, 55498, Note_on_c, 0, 76, 0
1, 55500, Note_on_c, 0, 81, 67
1, 55558, Note_on_c, 0, 81, 0
1, 55560, Note_on_c, 0, 73, 67
1, 55560, Note_on_c, 1, 57, 67
1, 55608, Note_on_c, 1, 57, 0
1, 55618, Note_on_c, 0, 73, 0
1, 55620, Note_on_c, 0, 81, 67
1, 55678, Note_on_c, 0, 81, 0
1, 55678, Note_on_c, 1, 52, 0
1, 55680, Note_on_c, 0, 69, 68
1, 55680, Note_on_c, 1, 52, 68
1, 55738, Note_on_c, 0, 69, 0
1, 55740, Note_on_c, 0, 81, 68
1, 55798, Note_on_c, 0, 81, 0
1, 55800, Note_on_c, 0, 73, 68
1, 55800, Note_on_c, 1, 57, 68
1, 55858, Note_on_c, 0, 73, 0
1, 55860, Note_on_c, 0, 81, 68
1, 55918, Note_on_c, 0, 81, 0
1, 55920, Note_on_c, 0, 76, 69
1, 55920, Note_on_c, 1, 57, 0
1, 55920, Note_on_c, 1, 61, 69
1, 55978, Note_on_c, 0, 76, 0
1, 55980, Note_on_c, 0, 81, 69
1, 56038, Note_on_c, 0, 81, 0
1, 56040, Note_on_c, 0, 73, 69
1, 56040, Note_on_c, 1, 61, 0
1, 56040, Note_on_c, 1, 57, 69
1, 56098, Note_on_c, 0, 73, 0
1, 56100, Note_on_c, 0, 81, 70
1, 56158, Note_on_c, 0, 81, 0
1, 56158, Note_on_c, 1, 52, 0
1, 56160, Note_on_c, 0, 69, 70
1, 56160, Note_on_c, 1, 57, 0
1, 56160, Note_on_c, 1, 51, 70
1, 56218, Note_on_c, 0, 69, 0
1, 56220, Note_on_c, 0, 81, 70
1, 56278, Note_on_c, 0, 81, 0
1, 56280, Note_on_c, 0, 72, 71
1, 56280, Note_on_c, 1, 57, 71
1, 56328, Note_on_c, 1, 57, 0
1, 56338, Note_on_c, 0, 72, 0
1, 56340, Note_on_c, 0, 81, 71
1, 56398, Note_on_c, 0, 81, 0
1, 56400, Note_on_c, 0, 75, 71
1, 56400, Note_on_c, 1, 60, 71
1, 56448, Note_on_c, 1, 60, 0
1, 56458, Note_on_c, 0, 75, 0
1, 56460, Note_on_c, 0, 81, 72
1, 56518, Note_on_c, 0, 81, 0
1, 56520, Note_on_c, 0, 72, 72
1, 56520, Note_on_c, 1, 57, 72
1, 56568, Note_on_c, 1, 57, 0
1, 56578, Note_on_c, 0, 72, 0
1, 56580, Note_on_c, 0, 81, 72
1, 56638, Note_on_c, 0, 81, 0
1, 56638, Note_on_c, 1, 51, 0
1, 56640, Note_on_c, 0, 69, 73
1, 56640, Note_on_c, 1, 51, 73
1, 56698, Note_on_c, 0, 69, 0
1, 56700, Note_on_c, 0, 81, 73
1, 56758, Note_on_c, 0, 81, 0
1, 56760, Note_on_c, 0, 72, 73
1, 56760, Note_on_c, 1, 57, 73
1, 56818, Note_on_c, 0, 72, 0
1, 56820, Note_on_c, 0, 81, 73
1, 56878, Note_on_c, 0, 81, 0
1, 56880, Note_on_c, 0, 75, 74
1, 56880, Note_on_c, 1, 57, 0
1, 56880, Note_on_c, 1, 60, 74
1, 56938, Note_on_c, 0, 75, 0
1, 56940, Note_on_c, 0, 81, 74
1, 56998, Note_on_c, 0, 81, 0
1, 57000, Note_on_c, 0, 72, 74
1, 57000, Note_on_c, 1, 60, 0
1, 57000, Note_on_c, 1, 57, 74
1, 57058, Note_on_c, 0, 72, 0
1, 57060, Note_on_c, 0, 81, 75
1, 57118, Note_on_c, 0, 81, 0
1, 57118, Note_on_c, 1, 51, 0
1, 57120, Note_on_c, 0, 68, 75
1, 57120, Note_on_c, 1, 57, 0
1, 57120, Note_on_c, 1, 52, 75
1, 57178, Note_on_c, 0, 68, 0
1, 57180, Note_on_c, 0, 80, 75
1, 57238, Note_on_c, 0, 80, 0
1, 57240, Note_on_c, 0, 73, 76
1, 57240, Note_on_c, 1, 56, 76
1, 57288, Note_on_c, 1, 56, 0
1, 57298, Note_on_c, 0, 73, 0
1, 57300, Note_on_c, 0, 80, 76
1, 57358, Note_on_c, 0, 80, 0
1, 57360, Note_on_c, 0, 76, 76
1, 57360, Note_on_c, 1, 61, 76
1, 57408, Note_on_c, 1, 61, 0
1, 57418, Note_on_c, 0, 76, 0
1, 57420, Note_on_c, 0, 80, 77
1, 57478, Note_on_c, 0, 80, 0
1, 57480, Note_on_c, 0, 73, 77
1, 57480, Note_on_c, 1, 56, 77
1, 57528, Note_on_c, 1, 56, 0
1, 57538, Note_on_c, 0, 73, 0
1, 57540, Note_on_c, 0, 80, 77
1, 57598, Note_on_c, 0, 80, 0
1, 57598, Note_on_c, 1, 52, 0
1, 57600, Note_on_c, 0, 68, 78
1, 57600, Note_on_c, 1, 52, 78
1, 57658, Note_on_c, 0, 68, 0
1, 57660, Note_on_c, 0, 80, 78
1, 57718, Note_on_c, 0, 80, 0
1, 57720, Note_on_c, 0, 73, 78
1, 57720, Note_on_c, 1, 56, 78
1, 57778, Note_on_c, 0, 73, 0
1, 57780, Note_on_c, 0, 80, 78
1, 57838, Note_on_c, 0, 80, 0
1, 57840, Note_on_c, 0, 76, 79
1, 57840, Note_on_c, 1, 56, 0
1, 57840, Note_on_c, 1, 61, 79
1, 57898, Note_on_c, 0, 76, 0
1, 57900, Note_on_c, 0, 80, 79
1, 57958, Note_on_c, 0, 80, 0
1, 57960, Note_on_c, 0, 73, 79
1, 57960, Note_on_c, 1, 61, 0
1, 57960, Note_on_c, 1, 56, 79
1, 58018, Note_on_c, 0, 73, 0
1, 58020, Note_on_c, 0, 80, 80
1, 58078, Note_on_c, 0, 80, 0
1, 58078, Note_on_c, 1, 52, 0
1, 58080, Note_on_c, 0, 68, 80
1, 58080, Note_on_c, 1, 56, 0
1, 58080, Note_on_c, 1, 48, 80
1, 58138, Note_on_c, 0, 68, 0
1, 58140, Note_on_c, 0, 78, 80
1, 58198, Note_on_c, 0, 78, 0
1, 58200, Note_on_c, 0, 75, 81
1, 58200, Note_on_c, 1, 51, 81
1, 58248, Note_on_c, 1, 51, 0
1, 58258, Note_on_c, 0, 75, 0
1, 58260, Note_on_c, 0, 78, 81
1, 58318, Note_on_c, 0, 78, 0
1, 58320, Note_on_c, 0, 68, 81
1, 58320, Note_on_c, 1, 56, 81
1, 58368, Note_on_c, 1, 56, 0
1, 58378, Note_on_c, 0, 68, 0
1, 58380, Note_on_c, 0, 78, 82
1, 58438, Note_on_c, 0, 78, 0
1, 58440, Note_on_c, 0, 75, 82
1, 58440, Note_on_c, 1, 51, 82
1, 58488, Note_on_c, 1, 51, 0
1, 58498, Note_on_c, 0, 75, 0
1, 58500, Note_on_c, 0, 78, 82
1, 58558, Note_on_c, 0, 78, 0
1, 58558, Note_on_c, 1, 48, 0
1, 58560, Note_on_c, 0, 68, 83
1, 58560, Note_on_c, 1, 49, 83
1, 58618, Note_on_c, 0, 68, 0
1, 58620, Note_on_c, 0, 76, 83
1, 58678, Note_on_c, 0, 76, 0
1, 58680, Note_on_c, 0, 73, 83
1, 58680, Note_on_c, 1, 52, 83
1, 58738, Note_on_c, 0, 73, 0
1, 58740, Note_on_c, 0, 76, 83
1, 58798, Note_on_c, 0, 76, 0
1, 58800, Note_on_c, 0, 68, 84
1, 58800, Note_on_c, 1, 52, 0
1, 58800, Note_on_c, 1, 56, 84
1, 58858, Note_on_c, 0, 68, 0
1, 58860, Note_on_c, 0, 76, 84
1, 58918, Note_on_c, 0, 76, 0
1, 58920, Note_on_c, 0, 73, 84
1, 58920, Note_on_c, 1, 56, 0
1, 58920, Note_on_c, 1, 52, 84
1, 58978, Note_on_c, 0, 73, 0
1, 58980, Note_on_c, 0, 76, 85
1, 59038, Note_on_c, 0, 76, 0
1, 59038, Note_on_c, 1, 49, 0
1, 59040, Note_on_c, 0, 75, 85
1, 59040, Note_on_c, 1, 52, 0
1, 59040, Note_on_c, 1, 56, 85
1, 59040, Note_on_c, 1, 60, 85
1, 59098, Note_on_c, 0, 75, 0
1, 59100, Note_on_c, 0, 68, 85
1, 59158, Note_on_c, 0, 68, 0
1, 59158, Note_on_c, 1, 60, 0
1, 59158, Note_on_c, 1, 56, 0
1, 59160, Note_on_c, 0, 75, 85
1, 59160, Note_on_c, 1, 56, 85
1, 59160, Note_on_c, 1, 60, 85
1, 59218, Note_on_c, 0, 75, 0
1, 59220, Note_on_c, 0, 68, 85
1, 59278, Note_on_c, 0, 68, 0
1, 59278, Note_on_c, 1, 60, 0
1, 59278, Note_on_c, 1, 56, 0
1, 59280, Note_on_c, 0, 80, 85
1, 59280, Note_on_c, 1, 56, 85
1, 59280, Note_on_c, 1, 64, 85
1, 59328, Note_on_c, 1, 64, 0
1, 59328, Note_on_c, 1, 56, 0
1, 59338, Note_on_c, 0, 80, 0
1, 59340, Note_on_c, 0, 68, 85
1, 59398, Note_on_c, 0, 68, 0
1, 59400, Note_on_c, 0, 80, 85
1, 59400, Note_on_c, 1, 56, 85
1, 59400, Note_on_c, 1, 64, 85
1, 59448, Note_on_c, 1, 64, 0
1, 59448, Note_on_c, 1, 56, 0
1, 59458, Note_on_c, 0, 80, 0
1, 59460, Note_on_c, 0, 68, 85
1, 59518, Note_on_c, 0, 68, 0
1, 59520, Note_on_c, 0, 78, 85
1, 59520, Note_on_c, 1, 56, 85
1, 59520, Note_on_c, 1, 63, 85
1, 59568, Note_on_c, 1, 63, 0
1, 59568, Note_on_c, 1, 56, 0
1, 59578, Note_on_c, 0, 78, 0
1, 59580, Note_on_c, 0, 68, 85
1, 59638, Note_on_c, 0, 68, 0
1, 59640, Note_on_c, 0, 78, 85
1, 59640, Note_on_c, 1, 56, 85
1, 59640, Note_on_c, 1, 63, 85
1, 59688, Note_on_c, 1, 63, 0
1, 59688, Note_on_c, 1, 56, 0
1, 59698, Note_on_c, 0, 78, 0
1, 59700, Note_on_c, 0, 68, 85
1, 59758, Note_on_c, 0, 68, 0
1, 59760, Note_on_c, 0, 76, 85
1, 59760, Note_on_c, 1, 56, 85
1, 59760, Note_on_c, 1, 61, 85
1, 59808, Note_on_c, 1, 61, 0
1, 59808, Note_on_c, 1, 56, 0
1, 59818, Note_on_c, 0, 76, 0
1, 59820, Note_on_c, 0, 68, 85
1, 59878, Note_on_c, 0, 68, 0
1, 59880, Note_on_c, 0, 76, 85
1, 59880, Note_on_c, 1, 56, 85
1, 59880, Note_on_c, 1, 61, 85
1, 59928, Note_on_c, 1, 61, 0
1, 59928, Note_on_c, 1, 56, 0
1, 59938, Note_on_c, 0, 76, 0
1, 59940, Note_on_c, 0, 68, 85
1, 59998, Note_on_c, 0, 68, 0
1, 60000, Note_on_c, 0, 75, 85
1, 60000, Note_on_c, 1, 56, 85
1, 60000, Note_on_c, 1, 60, 85
1, 60058, Note_on_c, 0, 75, 0
1, 60060, Note_on_c, 0, 68, 85
1, 60118, Note_on_c, 0, 68, 0
1, 60118, Note_on_c, 1, 60, 0
1, 60118, Note_on_c, 1, 56, 0
1, 60120, Note_on_c, 0, 75, 85
1, 60120, Note_on_c, 1, 56, 85
1, 60120, Note_on_c, 1, 60, 85
1, 60178, Note_on_c, 0, 75, 0
1, 60180, Note_on_c, 0, 68, 85
1, 60238, Note_on_c, 0, 68, 0
1, 60238, Note_on_c, 1, 60, 0
1, 60238, Note_on_c, 1, 56, 0
1, 60240, Note_on_c, 0, 73, 85
1, 60240, Note_on_c, 1, 56, 85
1, 60240, Note_on_c, 1, 64, 85
1, 60288, Note_on_c, 1, 64, 0
1, 60288, Note_on_c, 1, 56, 0
1, 60298, Note_on_c, 0, 73, 0
1, 60300, Note_on_c, 0, 68, 85
1, 60358, Note_on_c, 0, 68, 0
1, 60360, Note_on_c, 0, 73, 85
1, 60360, Note_on_c, 1, 56, 85
1, 60360, Note_on_c, 1, 64, 85
1, 60408, Note_on_c, 1, 64, 0
1, 60408, Note_on_c, 1, 56, 0
1, 60418, Note_on_c, 0, 73, 0
1, 60420, Note_on_c, 0, 68, 85
1, 60478, Note_on_c, 0, 68, 0
1, 60480, Note_on_c, 0, 72, 85
1, 60480, Note_on_c, 1, 56, 85
1, 60480, Note_on_c, 1, 63, 85
1, 60528, Note_on_c, 1, 63, 0
1, 60528, Note_on_c, 1, 56, 0
1, 60538, Note_on_c, 0, 72, 0
1, 60540, Note_on_c, 0, 66, 85
1, 60598, Note_on_c, 0, 66, 0
1, 60600, Note_on_c, 0, 72, 85
1, 60600, Note_on_c, 1, 56, 85
1, 60600, Note_on_c, 1, 63, 85
1, 60648, Note_on_c, 1, 63, 0
1, 60648, Note_on_c, 1, 56, 0
1, 60658, Note_on_c, 0, 72, 0
1, 60660, Note_on_c, 0, 66, 85
1, 60718, Note_on_c, 0, 66, 0
1, 60720, Note_on_c, 0, 73, 85
1, 60720, Note_on_c, 1, 56, 85
1, 60720, Note_on_c, 1, 61, 85
1, 60768, Note_on_c, 1, 61, 0
1, 60768, Note_on_c, 1, 56, 0
1, 60778, Note_on_c, 0, 73, 0
1, 60780, Note_on_c, 0, 64, 85
1, 60838, Note_on_c, 0, 64, 0
1, 60840, Note_on_c, 0, 73, 85
1, 60840, Note_on_c, 1, 56, 85
1, 60840, Note_on_c, 1, 61, 85
1, 60888, Note_on_c, 1, 61, 0
1, 60888, Note_on_c, 1, 56, 0
1, 60898, Note_on_c, 0, 73, 0
1, 60900, Note_on_c, 0, 64, 85
1, 60958, Note_on_c, 0, 64, 0
1, 60960, Note_on_c, 0, 75, 96
1, 60960, Note_on_c, 1, 56, 96
1, 60960, Note_on_c, 1, 60, 96
1, 61104, Note_on_c, 0, 75, 0
1, 61104, Note_on_c, 1, 60, 0
1, 61104, Note_on_c, 1, 56, 0
1, 61200, Note_on_c, 0, 60, 85
1, 61200, Note_on_c, 0, 63, 85
1, 61200, Note_on_c, 0, 68, 85
1, 61200, Note_on_c, 1, 44, 85
1, 61200, Note_on_c, 1, 56, 85
1, 61378, Note_on_c, 0, 68, 0
1, 61378, Note_on_c, 0, 63, 0
1, 61378, Note_on_c, 0, 60, 0
1, 61378, Note_on_c, 1, 56, 0
1, 61378, Note_on_c, 1, 44, 0
1, 61380, Note_on_c, 0, 60, 85
1, 61380, Note_on_c, 0, 63, 85
1, 61380, Note_on_c, 0, 68, 85
1, 61380, Note_on_c, 1, 44, 85
1, 61380, Note_on_c, 1, 56, 85
1, 61438, Note_on_c, 0, 68, 0
1, 61438, Note_on_c, 0, 63, 0
1, 61438, Note_on_c, 0, 60, 0
1, 61438, Note_on_c, 1, 56, 0
1, 61438, Note_on_c, 1, 44, 0
1, 61440, Note_on_c, 0, 60, 85
1, 61440, Note_on_c, 0, 63, 85
1, 61440, Note_on_c, 0, 68, 85
1, 61440, Note_on_c, 1, 44, 85
1, 61440, Note_on_c, 1, 56, 85
1, 61678, Note_on_c, 0, 68, 0
1, 61678, Note_on_c, 0, 63, 0
1, 61678, Note_on_c, 0, 60, 0
1, 61678, Note_on_c, 1, 56, 0
1, 61678, Note_on_c, 1, 44, 0
1, 61920, Note_on_c, 0, 61, 85
1, 61920, Note_on_c, 1, 37, 85
1, 61920, Note_on_c, 1, 49, 85
1, 61992, Note_on_c, 0, 61, 0
1, 61992, Note_on_c, 1, 49, 0
1, 61992, Note_on_c, 1, 37, 0
1, 62010, Note_on_c, 0, 63, 85
1, 62010, Note_on_c, 1, 51, 85
1, 62040, Note_on_c, 0, 63, 0
1, 62040, Note_on_c, 0, 61, 85
1, 62040, Note_on_c, 1, 51, 0
1, 62040, Note_on_c, 1, 49, 85
1, 62070, Note_on_c, 0, 61, 0
1, 62070, Note_on_c, 0, 60, 85
1, 62070, Note_on_c, 1, 49, 0
1, 62070, Note_on_c, 1, 48, 85
1, 62100, Note_on_c, 0, 60, 0
1, 62100, Note_on_c, 0, 61, 85
1, 62100, Note_on_c, 1, 48, 0
1, 62100, Note_on_c, 1, 49, 85
1, 62130, Note_on_c, 0, 61, 0
1, 62130, Note_on_c, 0, 63, 85
1, 62130, Note_on_c, 1, 49, 0
1, 62130, Note_on_c, 1, 51, 85
1, 62160, Note_on_c, 0, 63, 0
1, 62160, Note_on_c, 0, 64, 85
1, 62160, Note_on_c, 1, 51, 0
1, 62160, Note_on_c, 1, 52, 85
1, 62280, Note_on_c, 0, 64, 0
1, 62280, Note_on_c, 0, 63, 85
1, 62280, Note_on_c, 1, 52, 0
1, 62280, Note_on_c, 1, 51, 85
1, 62340, Note_on_c, 0, 63, 0
1, 62340, Note_on_c, 1, 51, 0
1, 62400, Note_on_c, 0, 61, 85
1, 62400, Note_on_c, 1, 49, 85
1, 62460, Note_on_c, 0, 61, 0
1, 62460, Note_on_c, 1, 49, 0
1, 62520, Note_on_c, 0, 56, 85
1, 62520, Note_on_c, 1, 44, 85
1, 62580, Note_on_c, 0, 56, 0
1, 62580, Note_on_c, 1, 44, 0
1, 62640, Note_on_c, 0, 61, 85
1, 62640, Note_on_c, 1, 49, 85
1, 62700, Note_on_c, 0, 61, 0
1, 62700, Note_on_c, 1, 49, 0
1, 62760, Note_on_c, 0, 64, 85
1, 62760, Note_on_c, 1, 52, 85
1, 62820, Note_on_c, 0, 64, 0
1, 62820, Note_on_c, 1, 52, 0
1, 62880, Note_on_c, 0, 61, 85
1, 62880, Note_on_c, 1, 49, 85
1, 62998, Note_on_c, 0, 61, 0
1, 63000, Note_on_c, 0, 68, 64
1, 63118, Note_on_c, 0, 68, 0
1, 63118, Note_on_c, 1, 49, 0
1, 63120, Note_on_c, 0, 68, 64
1, 63238, Note_on_c, 0, 68, 0
1, 63240, Note_on_c, 0, 68, 64
1, 63358, Note_on_c, 0, 68, 0
1, 63360, Note_on_c, 0, 69, 64
1, 63392, Note_on_c, 0, 69, 0
1, 63400, Note_on_c, 0, 68, 64
1, 63432, Note_on_c, 0, 68, 0
1, 63440, Note_on_c, 0, 67, 64
1, 63472, Note_on_c, 0, 67, 0
1, 63480, Note_on_c, 0, 68, 64
1, 63480, Note_on_c, 1, 61, 64
1, 63480, Note_on_c, 1, 64, 64
1, 63576, Note_on_c, 0, 68, 0
1, 63600, Note_on_c, 1, 64, 0
1, 63600, Note_on_c, 1, 61, 0
1, 63600, Note_on_c, 1, 60, 64
1, 63600, Note_on_c, 1, 63, 64
1, 63720, Note_on_c, 1, 63, 0
1, 63720, Note_on_c, 1, 60, 0
1, 63720, Note_on_c, 1, 61, 64
1, 63720, Note_on_c, 1, 64, 64
1, 63840, Note_on_c, 1, 64, 0
1, 63840, Note_on_c, 1, 61, 0
1, 63840, Note_on_c, 1, 63, 64
1, 63840, Note_on_c, 1, 66, 64
1, 63960, Note_on_c, 0, 68, 64
1, 64078, Note_on_c, 0, 68, 0
1, 64078, Note_on_c, 1, 66, 0
1, 64078, Note_on_c, 1, 63, 0
1, 64080, Note_on_c, 0, 68, 64
1, 64198, Note_on_c, 0, 68, 0
1, 64200, Note_on_c, 0, 68, 64
1, 64318, Note_on_c, 0, 68, 0
1, 64320, Note_on_c, 0, 69, 64
1, 64352, Note_on_c, 0, 69, 0
1, 64360, Note_on_c, 0, 68, 64
1, 64392, Note_on_c, 0, 68, 0
1, 64400, Note_on_c, 0, 67, 64
1, 64432, Note_on_c, 0, 67, 0
1, 64440, Note_on_c, 0, 68, 64
1, 64440, Note_on_c, 1, 63, 64
1, 64440, Note_on_c, 1, 66, 64
1, 64536, Note_on_c, 0, 68, 0
1, 64560, Note_on_c, 1, 66, 0
1, 64560, Note_on_c, 1, 63, 0
1, 64560, Note_on_c, 1, 61, 64
1, 64560, Note_on_c, 1, 64, 64
1, 64680, Note_on_c, 1, 64, 0
1, 64680, Note_on_c, 1, 61, 0
1, 64680, Note_on_c, 1, 63, 64
1, 64680, Note_on_c, 1, 66, 64
1, 64800, Note_on_c, 1, 66, 0
1, 64800, Note_on_c, 1, 63, 0
1, 64800, Note_on_c, 1, 64, 64
1, 64800, Note_on_c, 1, 68, 64
1, 64920, Note_on_c, 0, 73, 65
1, 64920, Note_on_c, 0, 76, 65
1, 65038, Note_on_c, 0, 76, 0
1, 65038, Note_on_c, 0, 73, 0
1, 65038, Note_on_c, 1, 68, 0
1, 65038, Note_on_c, 1, 64, 0
1, 65040, Note_on_c, 0, 72, 66
1, 65040, Note_on_c, 0, 75, 66
1, 65158, Note_on_c, 0, 75, 0
1, 65158, Note_on_c, 0, 72, 0
1, 65160, Note_on_c, 0, 73, 67
1, 65160, Note_on_c, 0, 76, 67
1, 65278, Note_on_c, 0, 76, 0
1, 65278, Note_on_c, 0, 73, 0
1, 65280, Note_on_c, 0, 75, 68
1, 65280, Note_on_c, 0, 78, 68
1, 65400, Note_on_c, 1, 66, 68
1, 65400, Note_on_c, 1, 69, 68
1, 65518, Note_on_c, 0, 78, 0
1, 65518, Note_on_c, 0, 75, 0
1, 65520, Note_on_c, 1, 69, 0
1, 65520, Note_on_c, 1, 66, 0
1, 65520, Note_on_c, 1, 64, 69
1, 65520, Note_on_c, 1, 68, 69
1, 65640, Note_on_c, 1, 68, 0
1, 65640, Note_on_c, 1, 64, 0
1, 65640, Note_on_c, 1, 66, 70
1, 65640, Note_on_c, 1, 69, 70
1, 65760, Note_on_c, 1, 69, 0
1, 65760, Note_on_c, 1, 66, 0
1, 65760, Note_on_c, 1, 68, 71
1, 65760, Note_on_c, 1, 71, 71
1, 65880, Note_on_c, 0, 77, 72
1, 65880, Note_on_c, 0, 80, 72
1, 65998, Note_on_c, 0, 80, 0
1, 65998, Note_on_c, 0, 77, 0
1, 65998, Note_on_c, 1, 71, 0
1, 65998, Note_on_c, 1, 68, 0
1, 66000, Note_on_c, 0, 75, 73
1, 66000, Note_on_c, 0, 78, 73
1, 66118, Note_on_c, 0, 78, 0
1, 66118, Note_on_c, 0, 75, 0
1, 66120, Note_on_c, 0, 77, 74
1, 66120, Note_on_c, 0, 80, 74
1, 66238, Note_on_c, 0, 80, 0
1, 66238, Note_on_c, 0, 77, 0
1, 66240, Note_on_c, 0, 78, 76
1, 66240, Note_on_c, 0, 81, 76
1, 66360, Note_on_c, 1, 69, 77
1, 66360, Note_on_c, 1, 73, 77
1, 66478, Note_on_c, 0, 81, 0
1, 66478, Note_on_c, 0, 78, 0
1, 66478, Note_on_c, 1, 73, 0
1, 66478, Note_on_c, 1, 69, 0
1, 66480, Note_on_c, 1, 68, 78
1, 66480, Note_on_c, 1, 71, 78
1, 66598, Note_on_c, 1, 71, 0
1, 66598, Note_on_c, 1, 68, 0
1, 66600, Note_on_c, 1, 69, 79
1, 66600, Note_on_c, 1, 73, 79
1, 66718, Note_on_c, 1, 73, 0
1, 66718, Note_on_c, 1, 69, 0
1, 66720, Note_on_c, 1, 66, 80
1, 66720, Note_on_c, 1, 69, 80
1, 66840, Note_on_c, 0, 81, 79
1, 66840, Note_on_c, 0, 85, 79
1, 66958, Note_on_c, 0, 85, 0
1, 66958, Note_on_c, 0, 81, 0
1, 66958, Note_on_c, 1, 69, 0
1, 66958, Note_on_c, 1, 66, 0
1, 66960, Note_on_c, 0, 80, 78
1, 66960, Note_on_c, 0, 83, 78
1, 67078, Note_on_c, 0, 83, 0
1, 67078, Note_on_c, 0, 80, 0
1, 67080, Note_on_c, 0, 81, 77
1, 67080, Note_on_c, 0, 85, 77
1, 67198, Note_on_c, 0, 85, 0
1, 67198, Note_on_c, 0, 81, 0
1, 67200, Note_on_c, 0, 78, 75
1, 67200, Note_on_c, 0, 81, 75
1, 67318, Note_on_c, 0, 81, 0
1, 67318, Note_on_c, 0, 78, 0
1, 67320, Note_on_c, 0, 81, 74
1, 67320, Note_on_c, 1, 73, 74
1, 67438, Note_on_c, 0, 81, 0
1, 67438, Note_on_c, 1, 73, 0
1, 67440, Note_on_c, 0, 80, 73
1, 67440, Note_on_c, 1, 71, 73
1, 67558, Note_on_c, 0, 80, 0
1, 67558, Note_on_c, 1, 71, 0
1, 67560, Note_on_c, 0, 81, 72
1, 67560, Note_on_c, 1, 73, 72
1, 67678, Note_on_c, 0, 81, 0
1, 67678, Note_on_c, 1, 73, 0
1, 67680, Note_on_c, 0, 78, 71
1, 67680, Note_on_c, 1, 69, 71
1, 67798, Note_on_c, 0, 78, 0
1, 67798, Note_on_c, 1, 69, 0
1, 67800, Note_on_c, 0, 78, 70
1, 67800, Note_on_c, 1, 69, 70
1, 67800, Note_on_c, 1, 73, 70
1, 67918, Note_on_c, 0, 78, 0
1, 67918, Note_on_c, 1, 73, 0
1, 67918, Note_on_c, 1, 69, 0
1, 67920, Note_on_c, 0, 77, 69
1, 67920, Note_on_c, 1, 68, 69
1, 67920, Note_on_c, 1, 71, 69
1, 68038, Note_on_c, 0, 77, 0
1, 68038, Note_on_c, 1, 71, 0
1, 68038, Note_on_c, 1, 68, 0
1, 68040, Note_on_c, 0, 78, 68
1, 68040, Note_on_c, 1, 69, 68
1, 68040, Note_on_c, 1, 73, 68
1, 68158, Note_on_c, 0, 78, 0
1, 68158, Note_on_c, 1, 73, 0
1, 68158, Note_on_c, 1, 69, 0
1, 68160, Note_on_c, 0, 74, 67
1, 68160, Note_on_c, 1, 66, 67
1, 68160, Note_on_c, 1, 69, 67
1, 68278, Note_on_c, 0, 74, 0
1, 68280, Note_on_c, 0, 74, 64
1, 68398, Note_on_c, 0, 74, 0
1, 68398, Note_on_c, 1, 69, 0
1, 68398, Note_on_c, 1, 66, 0
1, 68400, Note_on_c, 0, 78, 72
1, 68400, Note_on_c, 1, 54, 72
1, 68400, Note_on_c, 1, 57, 72
1, 68518, Note_on_c, 0, 78, 0
1, 68520, Note_on_c, 0, 81, 80
1, 68638, Note_on_c, 0, 81, 0
1, 68638, Note_on_c, 1, 57, 0
1, 68638, Note_on_c, 1, 54, 0
1, 68640, Note_on_c, 0, 73, 85
1, 68640, Note_on_c, 1, 56, 85
1, 68760, Note_on_c, 1, 64, 80
1, 68878, Note_on_c, 1, 64, 0
1, 68880, Note_on_c, 1, 63, 76
1, 68938, Note_on_c, 0, 73, 0
1, 68940, Note_on_c, 0, 72, 73
1, 68998, Note_on_c, 0, 72, 0
1, 68998, Note_on_c, 1, 63, 0
1, 69000, Note_on_c, 0, 75, 71
1, 69000, Note_on_c, 1, 66, 71
1, 69024, Note_on_c, 1, 56, 0
1, 69058, Note_on_c, 0, 75, 0
1, 69060, Note_on_c, 0, 72, 69
1, 69118, Note_on_c, 0, 72, 0
1, 69118, Note_on_c, 1, 66, 0
1, 69120, Note_on_c, 0, 73, 66
1, 69120, Note_on_c, 1, 61, 66
1, 69120, Note_on_c, 1, 64, 66
1, 69358, Note_on_c, 0, 73, 0
1, 69358, Note_on_c, 1, 64, 0
1, 69358, Note_on_c, 1, 61, 0
1, 69480, Note_on_c, 0, 69, 85
1, 69480, Note_on_c, 1, 36, 85
1, 69480, Note_on_c, 1, 48, 85
1, 69508, Note_on_c, 0, 69, 0
1, 69510, Note_on_c, 0, 66, 85
1, 69598, Note_on_c, 0, 66, 0
1, 69598, Note_on_c, 1, 48, 0
1, 69598, Note_on_c, 1, 36, 0
1, 69600, Note_on_c, 0, 68, 85
1, 69600, Note_on_c, 1, 37, 85
1, 69600, Note_on_c, 1, 49, 85
1, 69628, Note_on_c, 0, 68, 0
1, 69630, Note_on_c, 0, 64, 85
1, 69718, Note_on_c, 0, 64, 0
1, 69720, Note_on_c, 0, 66, 85
1, 69748, Note_on_c, 0, 66, 0
1, 69750, Note_on_c, 0, 63, 85
1, 69838, Note_on_c, 0, 63, 0
1, 69838, Note_on_c, 1, 49, 0
1, 69838, Note_on_c, 1, 37, 0
1, 69840, Note_on_c, 0, 64, 85
1, 69868, Note_on_c, 0, 64, 0
1, 69870, Note_on_c, 0, 61, 85
1, 69958, Note_on_c, 0, 61, 0
1, 69960, Note_on_c, 0, 76, 85
1, 69960, Note_on_c, 1, 43, 85
1, 69960, Note_on_c, 1, 55, 85
1, 69988, Note_on_c, 0, 76, 0
1, 69990, Note_on_c, 0, 73, 85
1, 70078, Note_on_c, 0, 73, 0
1, 70078, Note_on_c, 1, 55, 0
1, 70078, Note_on_c, 1, 43, 0
1, 70080, Note_on_c, 0, 75, 85
1, 70080, Note_on_c, 1, 44, 85
1, 70080, Note_on_c, 1, 56, 85
1, 70108, Note_on_c, 0, 75, 0
1, 70110, Note_on_c, 0, 72, 85
1, 70198, Note_on_c, 0, 72, 0
1, 70200, Note_on_c, 0, 73, 85
1, 70228, Note_on_c, 0, 73, 0
1, 70230, Note_on_c, 0, 70, 85
1, 70318, Note_on_c, 0, 70, 0
1, 70318, Note_on_c, 1, 56, 0
1, 70318, Note_on_c, 1, 44, 0
1, 70320, Note_on_c, 0, 72, 85
1, 70348, Note_on_c, 0, 72, 0
1, 70350, Note_on_c, 0, 68, 85
1, 70438, Note_on_c, 0, 68, 0
1, 70440, Note_on_c, 0, 81, 85
1, 70440, Note_on_c, 1, 48, 85
1, 70440, Note_on_c, 1, 60, 85
1, 70468, Note_on_c, 0, 81, 0
1, 70470, Note_on_c, 0, 78, 85
1, 70558, Note_on_c, 0, 78, 0
1, 70558, Note_on_c, 1, 60, 0
1, 70558, Note_on_c, 1, 48, 0
1, 70560, Note_on_c, 0, 80, 85
1, 70560, Note_on_c, 1, 49, 85
1, 70560, Note_on_c, 1, 61, 85
1, 70588, Note_on_c, 0, 80, 0
1, 70590, Note_on_c, 0, 76, 85
1, 70678, Note_on_c, 0, 76, 0
1, 70680, Note_on_c, 0, 78, 85
1, 70708, Note_on_c, 0, 78, 0
1, 70710, Note_on_c, 0, 75, 85
1, 70798, Note_on_c, 0, 75, 0
1, 70798, Note_on_c, 1, 61, 0
1, 70798, Note_on_c, 1, 49, 0
1, 70800, Note_on_c, 0, 76, 85
1, 70828, Note_on_c, 0, 76, 0
1, 70830, Note_on_c, 0, 73, 85
1, 70918, Note_on_c, 0, 73, 0
1, 70920, Note_on_c, 0, 85, 85
1, 70920, Note_on_c, 1, 64, 85
1, 70948, Note_on_c, 0, 85, 0
1, 70950, Note_on_c, 0, 80, 85
1, 71038, Note_on_c, 0, 80, 0
1, 71038, Note_on_c, 1, 64, 0
1, 71040, Note_on_c, 0, 81, 85
1, 71040, Note_on_c, 1, 66, 85
1, 71068, Note_on_c, 0, 81, 0
1, 71070, Note_on_c, 0, 78, 85
1, 71158, Note_on_c, 0, 78, 0
1, 71158, Note_on_c, 1, 66, 0
1, 71160, Note_on_c, 0, 80, 85
1, 71160, Note_on_c, 1, 68, 85
1, 71188, Note_on_c, 0, 80, 0
1, 71190, Note_on_c, 0, 76, 85
1, 71278, Note_on_c, 0, 76, 0
1, 71278, Note_on_c, 1, 68, 0
1, 71280, Note_on_c, 0, 78, 85
1, 71280, Note_on_c, 1, 69, 85
1, 71308, Note_on_c, 0, 78, 0
1, 71310, Note_on_c, 0, 75, 85
1, 71398, Note_on_c, 0, 75, 0
1, 71398, Note_on_c, 1, 69, 0
1, 71400, Note_on_c, 0, 76, 85
1, 71400, Note_on_c, 1, 68, 85
1, 71428, Note_on_c, 0, 76, 0
1, 71430, Note_on_c, 0, 73, 85
1, 71518, Note_on_c, 0, 73, 0
1, 71518, Note_on_c, 1, 68, 0
1, 71520, Note_on_c, 0, 75, 85
1, 71520, Note_on_c, 1, 66, 85
1, 71550, Note_on_c, 0, 75, 0
1, 71550, Note_on_c, 0, 73, 85
1, 71638, Note_on_c, 1, 66, 0
1, 71640, Note_on_c, 0, 73, 0
1, 71640, Note_on_c, 0, 75, 85
1, 71640, Note_on_c, 1, 66, 85
1, 71670, Note_on_c, 0, 75, 0
1, 71670, Note_on_c, 0, 73, 85
1, 71758, Note_on_c, 1, 66, 0
1, 71760, Note_on_c, 0, 73, 0
1, 71760, Note_on_c, 0, 76, 85
1, 71760, Note_on_c, 1, 68, 85
1, 71790, Note_on_c, 0, 76, 0
1, 71790, Note_on_c, 0, 73, 85
1, 71878, Note_on_c, 1, 68, 0
1, 71880, Note_on_c, 0, 73, 0
1, 71880, Note_on_c, 0, 76, 85
1, 71880, Note_on_c, 1, 68, 85
1, 71910, Note_on_c, 0, 76, 0
1, 71910, Note_on_c, 0, 73, 85
1, 71998, Note_on_c, 1, 68, 0
1, 72000, Note_on_c, 0, 73, 0
1, 72000, Note_on_c, 0, 78, 85
1, 72000, Note_on_c, 1, 69, 85
1, 72030, Note_on_c, 0, 78, 0
1, 72030, Note_on_c, 0, 73, 85
1, 72118, Note_on_c, 1, 69, 0
1, 72120, Note_on_c, 0, 73, 0
1, 72120, Note_on_c, 0, 78, 85
1, 72120, Note_on_c, 1, 69, 85
1, 72150, Note_on_c, 0, 78, 0
1, 72150, Note_on_c, 0, 73, 85
1, 72238, Note_on_c, 1, 69, 0
1, 72240, Note_on_c, 0, 73, 0
1, 72240, Note_on_c, 0, 76, 85
1, 72240, Note_on_c, 1, 68, 85
1, 72270, Note_on_c, 0, 76, 0
1, 72270, Note_on_c, 0, 73, 85
1, 72358, Note_on_c, 1, 68, 0
1, 72360, Note_on_c, 0, 73, 0
1, 72360, Note_on_c, 0, 76, 85
1, 72360, Note_on_c, 1, 68, 85
1, 72390, Note_on_c, 0, 76, 0
1, 72390, Note_on_c, 0, 73, 85
1, 72478, Note_on_c, 1, 68, 0
1, 72480, Note_on_c, 0, 73, 0
1, 72480, Note_on_c, 0, 75, 85
1, 72480, Note_on_c, 1, 66, 85
1, 72510, Note_on_c, 0, 75, 0
1, 72510, Note_on_c, 0, 73, 85
1, 72528, Note_on_c, 1, 66, 0
1, 72600, Note_on_c, 0, 73, 0
1, 72600, Note_on_c, 0, 75, 85
1, 72600, Note_on_c, 1, 66, 85
1, 72630, Note_on_c, 0, 75, 0
1, 72630, Note_on_c, 0, 73, 85
1, 72718, Note_on_c, 1, 66, 0
1, 72720, Note_on_c, 0, 73, 0
1, 72720, Note_on_c, 0, 76, 85
1, 72720, Note_on_c, 1, 68, 85
1, 72750, Note_on_c, 0, 76, 0
1, 72750, Note_on_c, 0, 73, 85
1, 72768, Note_on_c, 1, 68, 0
1, 72840, Note_on_c, 0, 73, 0
1, 72840, Note_on_c, 0, 76, 85
1, 72840, Note_on_c, 1, 68, 85
1, 72870, Note_on_c, 0, 76, 0
1, 72870, Note_on_c, 0, 73, 85
1, 72958, Note_on_c, 1, 68, 0
1, 72960, Note_on_c, 0, 73, 0
1, 72960, Note_on_c, 0, 78, 85
1, 72960, Note_on_c, 1, 69, 85
1, 72990, Note_on_c, 0, 78, 0
1, 72990, Note_on_c, 0, 73, 85
1, 73008, Note_on_c, 1, 69, 0
1, 73080, Note_on_c, 0, 73, 0
1, 73080, Note_on_c, 0, 78, 85
1, 73080, Note_on_c, 1, 69, 85
1, 73110, Note_on_c, 0, 78, 0
1, 73110, Note_on_c, 0, 73, 85
1, 73198, Note_on_c, 1, 69, 0
1, 73200, Note_on_c, 0, 73, 0
1, 73200, Note_on_c, 0, 76, 85
1, 73200, Note_on_c, 1, 68, 85
1, 73230, Note_on_c, 0, 76, 0
1, 73230, Note_on_c, 0, 73, 85
1, 73248, Note_on_c, 1, 68, 0
1, 73320, Note_on_c, 0, 73, 0
1, 73320, Note_on_c, 0, 76, 85
1, 73320, Note_on_c, 1, 68, 85
1, 73350, Note_on_c, 0, 76, 0
1, 73350, Note_on_c, 0, 73, 85
1, 73368, Note_on_c, 1, 68, 0
1, 73440, Note_on_c, 0, 73, 0
1, 73440, Note_on_c, 0, 75, 85
1, 73440, Note_on_c, 1, 67, 85
1, 73470, Note_on_c, 0, 75, 0
1, 73470, Note_on_c, 0, 73, 85
1, 73560, Note_on_c, 0, 73, 0
1, 73560, Note_on_c, 0, 75, 85
1, 73560, Note_on_c, 1, 67, 0
1, 73560, Note_on_c, 1, 67, 85
1, 73590, Note_on_c, 0, 75, 0
1, 73590, Note_on_c, 0, 73, 85
1, 73680, Note_on_c, 0, 73, 0
1, 73680, Note_on_c, 0, 75, 85
1, 73680, Note_on_c, 1, 67, 0
1, 73680, Note_on_c, 1, 67, 85
1, 73710, Note_on_c, 0, 75, 0
1, 73710, Note_on_c, 0, 73, 85
1, 73800, Note_on_c, 0, 73, 0
1, 73800, Note_on_c, 0, 75, 85
1, 73800, Note_on_c, 1, 67, 0
1, 73800, Note_on_c, 1, 67, 85
1, 73830, Note_on_c, 0, 75, 0
1, 73830, Note_on_c, 0, 73, 85
1, 73920, Note_on_c, 0, 73, 0
1, 73920, Note_on_c, 0, 72, 85
1, 73920, Note_on_c, 1, 67, 0
1, 73920, Note_on_c, 1, 68, 85
1, 74040, Note_on_c, 0, 72, 0
1, 74040, Note_on_c, 0, 68, 64
1, 74158, Note_on_c, 0, 68, 0
1, 74160, Note_on_c, 0, 68, 64
1, 74160, Note_on_c, 1, 68, 0
1, 74278, Note_on_c, 0, 68, 0
1, 74280, Note_on_c, 0, 68, 64
1, 74398, Note_on_c, 0, 68, 0
1, 74400, Note_on_c, 0, 69, 64
1, 74432, Note_on_c, 0, 69, 0
1, 74440, Note_on_c, 0, 68, 64
1, 74472, Note_on_c, 0, 68, 0
1, 74480, Note_on_c, 0, 67, 64
1, 74512, Note_on_c, 0, 67, 0
1, 74520, Note_on_c, 0, 68, 64
1, 74520, Note_on_c, 1, 61, 64
1, 74520, Note_on_c, 1, 64, 64
1, 74616, Note_on_c, 0, 68, 0
1, 74640, Note_on_c, 1, 64, 0
1, 74640, Note_on_c, 1, 61, 0
1, 74640, Note_on_c, 1, 60, 64
1, 74640, Note_on_c, 1, 63, 64
1, 74760, Note_on_c, 1, 63, 0
1, 74760, Note_on_c, 1, 60, 0
1, 74760, Note_on_c, 1, 61, 64
1, 74760, Note_on_c, 1, 64, 64
1, 74880, Note_on_c, 1, 64, 0
1, 74880, Note_on_c, 1, 61, 0
1, 74880, Note_on_c, 1, 63, 64
1, 74880, Note_on_c, 1, 66, 64
1, 75000, Note_on_c, 0, 68, 64
1, 75096, Note_on_c, 0, 68, 0
1, 75118, Note_on_c, 1, 66, 0
1, 75118, Note_on_c, 1, 63, 0
1, 75120, Note_on_c, 0, 68, 64
1, 75216, Note_on_c, 0, 68, 0
1, 75240, Note_on_c, 0, 68, 64
1, 75336, Note_on_c, 0, 68, 0
1, 75360, Note_on_c, 0, 69, 64
1, 75392, Note_on_c, 0, 69, 0
1, 75400, Note_on_c, 0, 68, 64
1, 75432, Note_on_c, 0, 68, 0
1, 75440, Note_on_c, 0, 67, 64
1, 75472, Note_on_c, 0, 67, 0
1, 75480, Note_on_c, 0, 68, 64
1, 75480, Note_on_c, 1, 63, 64
1, 75480, Note_on_c, 1, 66, 64
1, 75576, Note_on_c, 0, 68, 0
1, 75600, Note_on_c, 1, 66, 0
1, 75600, Note_on_c, 1, 63, 0
1, 75600, Note_on_c, 1, 61, 64
1, 75600, Note_on_c, 1, 64, 64
1, 75720, Note_on_c, 1, 64, 0
1, 75720, Note_on_c, 1, 61, 0
1, 75720, Note_on_c, 1, 63, 64
1, 75720, Note_on_c, 1, 66, 64
1, 75840, Note_on_c, 1, 66, 0
1, 75840, Note_on_c, 1, 63, 0
1, 75840, Note_on_c, 1, 64, 64
1, 75840, Note_on_c, 1, 68, 64
1, 75960, Note_on_c, 0, 73, 64
1, 76056, Note_on_c, 0, 73, 0
1, 76078, Note_on_c, 1, 68, 0
1, 76078, Note_on_c, 1, 64, 0
1, 76080, Note_on_c, 0, 73, 64
1, 76176, Note_on_c, 0, 73, 0
1, 76200, Note_on_c, 0, 73, 64
1, 76296, Note_on_c, 0, 73, 0
1, 76320, Note_on_c, 0, 75, 64
1, 76344, Note_on_c, 0, 75, 0
1, 76350, Note_on_c, 0, 73, 65
1, 76374, Note_on_c, 0, 73, 0
1, 76380, Note_on_c, 0, 72, 66
1, 76404, Note_on_c, 0, 72, 0
1, 76410, Note_on_c, 0, 73, 67
1, 76434, Note_on_c, 0, 73, 0
1, 76440, Note_on_c, 0, 71, 68
1, 76440, Note_on_c, 0, 74, 68
1, 76440, Note_on_c, 1, 65, 68
1, 76440, Note_on_c, 1, 68, 68
1, 76536, Note_on_c, 0, 74, 0
1, 76536, Note_on_c, 0, 71, 0
1, 76558, Note_on_c, 1, 68, 0
1, 76558, Note_on_c, 1, 65, 0
1, 76560, Note_on_c, 0, 71, 72
1, 76560, Note_on_c, 0, 74, 72
1, 76560, Note_on_c, 1, 65, 72
1, 76560, Note_on_c, 1, 68, 72
1, 76656, Note_on_c, 0, 74, 0
1, 76656, Note_on_c, 0, 71, 0
1, 76678, Note_on_c, 1, 68, 0
1, 76678, Note_on_c, 1, 65, 0
1, 76680, Note_on_c, 0, 71, 76
1, 76680, Note_on_c, 0, 74, 76
1, 76680, Note_on_c, 1, 65, 76
1, 76680, Note_on_c, 1, 68, 76
1, 76776, Note_on_c, 0, 74, 0
1, 76776, Note_on_c, 0, 71, 0
1, 76798, Note_on_c, 1, 68, 0
1, 76798, Note_on_c, 1, 65, 0
1, 76800, Note_on_c, 0, 71, 96
1, 76800, Note_on_c, 0, 74, 96
1, 76800, Note_on_c, 1, 65, 96
1, 76800, Note_on_c, 1, 68, 96
1, 77025, Note_on_c, 0, 74, 0
1, 77025, Note_on_c, 0, 71, 0
1, 77038, Note_on_c, 1, 68, 0
1, 77038, Note_on_c, 1, 65, 0
1, 77040, Note_on_c, 0, 69, 72
1, 77040, Note_on_c, 0, 73, 72
1, 77040, Note_on_c, 1, 66, 72
1, 77040, Note_on_c, 1, 69, 72
1, 77076, Note_on_c, 0, 73, 0
1, 77076, Note_on_c, 0, 69, 0
1, 77076, Note_on_c, 1, 69, 0
1, 77076, Note_on_c, 1, 66, 0
1, 77160, Note_on_c, 0, 71, 72
1, 77160, Note_on_c, 0, 77, 72
1, 77160, Note_on_c, 1, 61, 72
1, 77160, Note_on_c, 1, 68, 72
1, 77196, Note_on_c, 0, 77, 0
1, 77196, Note_on_c, 0, 71, 0
1, 77196, Note_on_c, 1, 68, 0
1, 77196, Note_on_c, 1, 61, 0
1, 77280, Note_on_c, 0, 71, 96
1, 77280, Note_on_c, 0, 77, 96
1, 77280, Note_on_c, 1, 61, 96
1, 77280, Note_on_c, 1, 68, 96
1, 77518, Note_on_c, 0, 77, 0
1, 77518, Note_on_c, 0, 71, 0
1, 77518, Note_on_c, 1, 68, 0
1, 77518, Note_on_c, 1, 61, 0
1, 77520, Note_on_c, 0, 69, 72
1, 77520, Note_on_c, 0, 78, 72
1, 77520, Note_on_c, 1, 66, 72
1, 77580, Note_on_c, 0, 78, 0
1, 77580, Note_on_c, 0, 69, 0
1, 77580, Note_on_c, 1, 66, 0
1, 77640, Note_on_c, 0, 73, 72
1, 77640, Note_on_c, 0, 76, 72
1, 77640, Note_on_c, 1, 67, 72
1, 77640, Note_on_c, 1, 70, 72
1, 77700, Note_on_c, 0, 76, 0
1, 77700, Note_on_c, 0, 73, 0
1, 77700, Note_on_c, 1, 70, 0
1, 77700, Note_on_c, 1, 67, 0
1, 77760, Note_on_c, 0, 73, 96
1, 77760, Note_on_c, 0, 76, 96
1, 77760, Note_on_c, 1, 67, 96
1, 77760, Note_on_c, 1, 70, 96
1, 77998, Note_on_c, 0, 76, 0
1, 77998, Note_on_c, 0, 73, 0
1, 77998, Note_on_c, 1, 70, 0
1, 77998, Note_on_c, 1, 67, 0
1, 78000, Note_on_c, 0, 72, 72
1, 78000, Note_on_c, 0, 75, 72
1, 78000, Note_on_c, 1, 68, 72
1, 78084, Note_on_c, 0, 75, 0
1, 78084, Note_on_c, 0, 72, 0
1, 78084, Note_on_c, 1, 68, 0
1, 78120, Note_on_c, 0, 73, 72
1, 78120, Note_on_c, 0, 79, 72
1, 78120, Note_on_c, 1, 63, 72
1, 78120, Note_on_c, 1, 70, 72
1, 78204, Note_on_c, 0, 79, 0
1, 78204, Note_on_c, 0, 73, 0
1, 78204, Note_on_c, 1, 70, 0
1, 78204, Note_on_c, 1, 63, 0
1, 78240, Note_on_c, 0, 73, 96
1, 78240, Note_on_c, 0, 79, 96
1, 78240, Note_on_c, 1, 63, 96
1, 78240, Note_on_c, 1, 70, 96
1, 78478, Note_on_c, 0, 79, 0
1, 78478, Note_on_c, 0, 73, 0
1, 78478, Note_on_c, 1, 70, 0
1, 78478, Note_on_c, 1, 63, 0
1, 78480, Note_on_c, 0, 72, 85
1, 78480, Note_on_c, 0, 80, 85
1, 78480, Note_on_c, 1, 68, 85
1, 78588, Note_on_c, 0, 80, 0
1, 78588, Note_on_c, 0, 72, 0
1, 78588, Note_on_c, 1, 68, 0
1, 78600, Note_on_c, 0, 68, 85
1, 78600, Note_on_c, 0, 80, 85
1, 78600, Note_on_c, 1, 52, 85
1, 78600, Note_on_c, 1, 61, 85
1, 78708, Note_on_c, 0, 80, 0
1, 78708, Note_on_c, 0, 68, 0
1, 78708, Note_on_c, 1, 61, 0
1, 78708, Note_on_c, 1, 52, 0
1, 78720, Note_on_c, 0, 68, 85
1, 78720, Note_on_c, 0, 80, 85
1, 78720, Note_on_c, 1, 52, 85
1, 78720, Note_on_c, 1, 61, 85
1, 78958, Note_on_c, 0, 80, 0
1, 78958, Note_on_c, 0, 68, 0
1, 78960, Note_on_c, 0, 73, 85
1, 78960, Note_on_c, 0, 85, 85
1, 79078, Note_on_c, 1, 61, 0
1, 79078, Note_on_c, 1, 52, 0
1, 79080, Note_on_c, 0, 85, 0
1, 79080, Note_on_c, 0, 73, 0
1, 79080, Note_on_c, 0, 71, 85
1, 79080, Note_on_c, 0, 83, 85
1, 79080, Note_on_c, 1, 53, 85
1, 79080, Note_on_c, 1, 61, 85
1, 79200, Note_on_c, 0, 83, 0
1, 79200, Note_on_c, 0, 71, 0
1, 79200, Note_on_c, 0, 71, 85
1, 79200, Note_on_c, 0, 83, 85
1, 79200, Note_on_c, 1, 61, 0
1, 79200, Note_on_c, 1, 53, 0
1, 79200, Note_on_c, 1, 54, 85
1, 79200, Note_on_c, 1, 61, 85
1, 79318, Note_on_c, 0, 83, 0
1, 79318, Note_on_c, 0, 71, 0
1, 79318, Note_on_c, 1, 61, 0
1, 79318, Note_on_c, 1, 54, 0
1, 79320, Note_on_c, 0, 69, 85
1, 79320, Note_on_c, 0, 81, 85
1, 79378, Note_on_c, 0, 81, 0
1, 79378, Note_on_c, 0, 69, 0
1, 79440, Note_on_c, 0, 69, 85
1, 79440, Note_on_c, 0, 81, 85
1, 79440, Note_on_c, 1, 56, 85
1, 79440, Note_on_c, 1, 61, 85
1, 79558, Note_on_c, 0, 81, 0
1, 79558, Note_on_c, 0, 69, 0
1, 79558, Note_on_c, 1, 61, 0
1, 79558, Note_on_c, 1, 56, 0
1, 79560, Note_on_c, 0, 68, 85
1, 79560, Note_on_c, 0, 80, 85
1, 79618, Note_on_c, 0, 80, 0
1, 79618, Note_on_c, 0, 68, 0
1, 79680, Note_on_c, 0, 68, 85
1, 79680, Note_on_c, 0, 80, 85
1, 79680, Note_on_c, 1, 57, 85
1, 79680, Note_on_c, 1, 61, 85
1, 79798, Note_on_c, 0, 80, 0
1, 79798, Note_on_c, 0, 68, 0
1, 79798, Note_on_c, 1, 61, 0
1, 79798, Note_on_c, 1, 57, 0
1, 79800, Note_on_c, 0, 66, 85
1, 79800, Note_on_c, 0, 78, 85
1, 79858, Note_on_c, 0, 78, 0
1, 79858, Note_on_c, 0, 66, 0
1, 80040, Note_on_c, 0, 71, 64
1, 80040, Note_on_c, 0, 83, 64
1, 80040, Note_on_c, 1, 53, 64
1, 80040, Note_on_c, 1, 61, 64
1, 80158, Note_on_c, 0, 83, 0
1, 80158, Note_on_c, 0, 71, 0
1, 80158, Note_on_c, 1, 61, 0
1, 80158, Note_on_c, 1, 53, 0
1, 80160, Note_on_c, 0, 71, 64
1, 80160, Note_on_c, 0, 83, 64
1, 80160, Note_on_c, 1, 54, 64
1, 80160, Note_on_c, 1, 61, 64
1, 80278, Note_on_c, 0, 83, 0
1, 80278, Note_on_c, 0, 71, 0
1, 80278, Note_on_c, 1, 61, 0
1, 80278, Note_on_c, 1, 54, 0
1, 80280, Note_on_c, 0, 69, 64
1, 80280, Note_on_c, 0, 81, 64
1, 80338, Note_on_c, 0, 81, 0
1, 80338, Note_on_c, 0, 69, 0
1, 80400, Note_on_c, 0, 69, 64
1, 80400, Note_on_c, 0, 81, 64
1, 80400, Note_on_c, 1, 56, 64
1, 80400, Note_on_c, 1, 61, 64
1, 80518, Note_on_c, 0, 81, 0
1, 80518, Note_on_c, 0, 69, 0
1, 80518, Note_on_c, 1, 61, 0
1, 80518, Note_on_c, 1, 56, 0
1, 80520, Note_on_c, 0, 68, 64
1, 80520, Note_on_c, 0, 80, 64
1, 80578, Note_on_c, 0, 80, 0
1, 80578, Note_on_c, 0, 68, 0
1, 80640, Note_on_c, 0, 68, 64
1, 80640, Note_on_c, 0, 80, 64
1, 80640, Note_on_c, 1, 57, 64
1, 80640, Note_on_c, 1, 61, 64
1, 80758, Note_on_c, 0, 80, 0
1, 80758, Note_on_c, 0, 68, 0
1, 80758, Note_on_c, 1, 61, 0
1, 80758, Note_on_c, 1, 57, 0
1, 80760, Note_on_c, 0, 66, 64
1, 80760, Note_on_c, 0, 78, 64
1, 80818, Note_on_c, 0, 78, 0
1, 80818, Note_on_c, 0, 66, 0
1, 81000, Note_on_c, 0, 78, 64
1, 81118, Note_on_c, 0, 78, 0
1, 81120, Note_on_c, 0, 78, 60
1, 81238, Note_on_c, 0, 78, 0
1, 81240, Note_on_c, 0, 76, 55
1, 81298, Note_on_c, 0, 76, 0
1, 81360, Tempo, 560748
1, 81360, Note_on_c, 0, 76, 50
1, 81478, Note_on_c, 0, 76, 0
1, 81480, Note_on_c, 0, 75, 52
1, 81538, Note_on_c, 0, 75, 0
1, 81600, Tempo, 631579
1, 81600, Note_on_c, 0, 75, 56
1, 81600, Note_on_c, 1, 66, 50
1, 81600, Note_on_c, 1, 69, 50
1, 81658, Note_on_c, 0, 75, 0
1, 81660, Note_on_c, 0, 78, 58
1, 81718, Note_on_c, 0, 78, 0
1, 81720, Note_on_c, 0, 76, 60
1, 81778, Note_on_c, 0, 76, 0
1, 81780, Note_on_c, 0, 80, 62
1, 81838, Note_on_c, 0, 80, 0
1, 81840, Tempo, 731707
1, 81840, Note_on_c, 0, 78, 64
1, 81898, Note_on_c, 0, 78, 0
1, 81900, Note_on_c, 0, 81, 66
1, 81958, Note_on_c, 0, 81, 0
1, 81960, Note_on_c, 0, 80, 68
1, 82018, Note_on_c, 0, 80, 0
1, 82020, Note_on_c, 0, 83, 70
1, 82078, Note_on_c, 0, 83, 0
1, 82080, Tempo, 857143
1, 82080, Note_on_c, 0, 81, 85
1, 82320, Tempo, 923077
1, 82358, Note_on_c, 0, 81, 0
1, 82360, Note_on_c, 0, 80, 74
1, 82398, Note_on_c, 0, 80, 0
1, 82400, Note_on_c, 0, 78, 73
1, 82438, Note_on_c, 0, 78, 0
1, 82440, Note_on_c, 0, 76, 71
1, 82478, Note_on_c, 0, 76, 0
1, 82480, Note_on_c, 0, 75, 70
1, 82518, Note_on_c, 0, 75, 0
1, 82520, Note_on_c, 0, 73, 68
1, 82558, Note_on_c, 0, 73, 0
1, 82560, Tempo, 1000000
1, 82560, Note_on_c, 0, 72, 66
1, 82800, Tempo, 1090909
1, 82896, Note_on_c, 0, 72, 0
1, 82944, Note_on_c, 1, 69, 0
1, 82944, Note_on_c, 1, 66, 0
1, 83040, Tempo, 500000
1, 83280, Note_on_c, 0, 75, 85
1, 83338, Note_on_c, 0, 75, 0
1, 83340, Note_on_c, 0, 87, 85
1, 83398, Note_on_c, 0, 87, 0
1, 83400, Note_on_c, 0, 72, 85
1, 83458, Note_on_c, 0, 72, 0
1, 83460, Note_on_c, 0, 84, 85
1, 83518, Note_on_c, 0, 84, 0
1, 83520, Note_on_c, 0, 69, 85
1, 83578, Note_on_c, 0, 69, 0
1, 83580, Note_on_c, 0, 81, 85
1, 83638, Note_on_c, 0, 81, 0
1, 83640, Note_on_c, 0, 66, 85
1, 83698, Note_on_c, 0, 66, 0
1, 83700, Note_on_c, 0, 78, 85
1, 83758, Note_on_c, 0, 78, 0
1, 83760, Note_on_c, 0, 63, 85
1, 83818, Note_on_c, 0, 63, 0
1, 83820, Note_on_c, 0, 75, 85
1, 83878, Note_on_c, 0, 75, 0
1, 83880, Note_on_c, 0, 60, 85
1, 83938, Note_on_c, 0, 60, 0
1, 83940, Note_on_c, 0, 72, 85
1, 83998, Note_on_c, 0, 72, 0
1, 84000, Note_on_c, 0, 57, 85
1, 84000, Note_on_c, 0, 69, 85
1, 84000, Note_on_c, 1, 33, 85
1, 84000, Note_on_c, 1, 45, 85
1, 84478, Note_on_c, 0, 69, 0
1, 84478, Note_on_c, 0, 57, 0
1, 84478, Note_on_c, 1, 45, 0
1, 84478, Note_on_c, 1, 33, 0
1, 84480, Note_on_c, 0, 56, 85
1, 84480, Note_on_c, 0, 68, 85
1, 84480, Note_on_c, 1, 32, 85
1, 84480, Note_on_c, 1, 44, 85
1, 84718, Note_on_c, 0, 68, 0
1, 84718, Note_on_c, 0, 56, 0
1, 84718, Note_on_c, 1, 44, 0
1, 84718, Note_on_c, 1, 32, 0
1, 84720, Note_on_c, 0, 66, 85
1, 84720, Note_on_c, 1, 30, 85
1, 84720, Note_on_c, 1, 42, 85
1, 84720, Note_on_c, 1, 54, 85
1, 84958, Note_on_c, 0, 66, 0
1, 84958, Note_on_c, 1, 54, 0
1, 84958, Note_on_c, 1, 42, 0
1, 84958, Note_on_c, 1, 30, 0
1, 84960, Note_on_c, 0, 52, 85
1, 84960, Note_on_c, 1, 40, 85
1, 85018, Note_on_c, 0, 52, 0
1, 85020, Note_on_c, 0, 64, 85
1, 85078, Note_on_c, 0, 64, 0
1, 85080, Note_on_c, 0, 56, 85
1, 85138, Note_on_c, 0, 56, 0
1, 85140, Note_on_c, 0, 68, 85
1, 85198, Note_on_c, 0, 68, 0
1, 85198, Note_on_c, 1, 40, 0
1, 85200, Note_on_c, 0, 60, 85
1, 85258, Note_on_c, 0, 60, 0
1, 85260, Note_on_c, 0, 61, 85
1, 85318, Note_on_c, 0, 61, 0
1, 85320, Note_on_c, 0, 63, 85
1, 85378, Note_on_c, 0, 63, 0
1, 85380, Note_on_c, 0, 61, 85
1, 85438, Note_on_c, 0, 61, 0
1, 85440, Note_on_c, 0, 57, 85
1, 85440, Note_on_c, 1, 42, 85
1, 85440, Note_on_c, 1, 54, 85
1, 85498, Note_on_c, 0, 57, 0
1, 85500, Note_on_c, 0, 69, 85
1, 85558, Note_on_c, 0, 69, 0
1, 85560, Note_on_c, 0, 61, 85
1, 85618, Note_on_c, 0, 61, 0
1, 85620, Note_on_c, 0, 73, 85
1, 85678, Note_on_c, 0, 73, 0
1, 85678, Note_on_c, 1, 54, 0
1, 85678, Note_on_c, 1, 42, 0
1, 85680, Note_on_c, 0, 65, 85
1, 85738, Note_on_c, 0, 65, 0
1, 85740, Note_on_c, 0, 66, 85
1, 85798, Note_on_c, 0, 66, 0
1, 85800, Note_on_c, 0, 68, 85
1, 85858, Note_on_c, 0, 68, 0
1, 85860, Note_on_c, 0, 66, 85
1, 85918, Note_on_c, 0, 66, 0
1, 85920, Note_on_c, 0, 64, 85
1, 85920, Note_on_c, 1, 44, 85
1, 85920, Note_on_c, 1, 49, 85
1, 86158, Note_on_c, 0, 64, 0
1, 86158, Note_on_c, 1, 49, 0
1, 86160, Note_on_c, 0, 68, 85
1, 86160, Note_on_c, 1, 48, 85
1, 86218, Note_on_c, 0, 68, 0
1, 86220, Note_on_c, 0, 66, 85
1, 86278, Note_on_c, 0, 66, 0
1, 86280, Note_on_c, 0, 64, 85
1, 86304, Note_on_c, 1, 44, 0
1, 86338, Note_on_c, 0, 64, 0
1, 86340, Note_on_c, 0, 63, 85
1, 86398, Note_on_c, 0, 63, 0
1, 86398, Note_on_c, 1, 48, 0
1, 86400, Note_on_c, 0, 64, 85
1, 86400, Note_on_c, 1, 37, 85
1, 86400, Note_on_c, 1, 49, 85
1, 86458, Note_on_c, 0, 64, 0
1, 86460, Note_on_c, 0, 76, 85
1, 86518, Note_on_c, 0, 76, 0
1, 86518, Note_on_c, 1, 49, 0
1, 86518, Note_on_c, 1, 37, 0
1, 86520, Note_on_c, 0, 68, 85
1, 86520, Note_on_c, 1, 40, 85
1, 86520, Note_on_c, 1, 52, 85
1, 86578, Note_on_c, 0, 68, 0
1, 86580, Note_on_c, 0, 80, 85
1, 86638, Note_on_c, 0, 80, 0
1, 86638, Note_on_c, 1, 52, 0
1, 86638, Note_on_c, 1, 40, 0
1, 86640, Note_on_c, 0, 72, 85
1, 86698, Note_on_c, 0, 72, 0
1, 86700, Note_on_c, 0, 73, 85
1, 86758, Note_on_c, 0, 73, 0
1, 86760, Note_on_c, 0, 75, 85
1, 86818, Note_on_c, 0, 75, 0
1, 86820, Note_on_c, 0, 73, 85
1, 86878, Note_on_c, 0, 73, 0
1, 86880, Note_on_c, 0, 69, 85
1, 86880, Note_on_c, 1, 42, 85
1, 86880, Note_on_c, 1, 54, 85
1, 86938, Note_on_c, 0, 69, 0
1, 86940, Note_on_c, 0, 81, 85
1, 86998, Note_on_c, 0, 81, 0
1, 86998, Note_on_c, 1, 54, 0
1, 86998, Note_on_c, 1, 42, 0
1, 87000, Note_on_c, 0, 73, 85
1, 87000, Note_on_c, 1, 45, 85
1, 87000, Note_on_c, 1, 57, 85
1, 87058, Note_on_c, 0, 73, 0
1, 87060, Note_on_c, 0, 85, 85
1, 87118, Note_on_c, 0, 85, 0
1, 87118, Note_on_c, 1, 57, 0
1, 87118, Note_on_c, 1, 45, 0
1, 87120, Note_on_c, 0, 72, 85
1, 87120, Note_on_c, 1, 44, 85
1, 87120, Note_on_c, 1, 56, 85
1, 87178, Note_on_c, 0, 72, 0
1, 87180, Note_on_c, 0, 84, 85
1, 87238, Note_on_c, 0, 84, 0
1, 87238, Note_on_c, 1, 56, 0
1, 87238, Note_on_c, 1, 44, 0
1, 87240, Note_on_c, 0, 75, 85
1, 87240, Note_on_c, 1, 42, 85
1, 87240, Note_on_c, 1, 54, 85
1, 87298, Note_on_c, 0, 75, 0
1, 87300, Note_on_c, 0, 87, 85
1, 87358, Note_on_c, 0, 87, 0
1, 87358, Note_on_c, 1, 54, 0
1, 87358, Note_on_c, 1, 42, 0
1, 87360, Note_on_c, 0, 73, 85
1, 87360, Note_on_c, 1, 40, 85
1, 87360, Note_on_c, 1, 52, 85
1, 87418, Note_on_c, 0, 73, 0
1, 87420, Note_on_c, 0, 85, 85
1, 87478, Note_on_c, 0, 85, 0
1, 87480, Note_on_c, 0, 76, 85
1, 87538, Note_on_c, 0, 76, 0
1, 87540, Note_on_c, 0, 88, 85
1, 87598, Note_on_c, 0, 88, 0
1, 87598, Note_on_c, 1, 52, 0
1, 87598, Note_on_c, 1, 40, 0
1, 87600, Note_on_c, 0, 75, 85
1, 87658, Note_on_c, 0, 75, 0
1, 87660, Note_on_c, 0, 87, 85
1, 87718, Note_on_c, 0, 87, 0
1, 87720, Note_on_c, 0, 73, 85
1, 87778, Note_on_c, 0, 73, 0
1, 87780, Note_on_c, 0, 85, 85
1, 87838, Note_on_c, 0, 85, 0
1, 87840, Note_on_c, 0, 71, 85
1, 87898, Note_on_c, 0, 71, 0
1, 87900, Note_on_c, 0, 83, 85
1, 87958, Note_on_c, 0, 83, 0
1, 87960, Note_on_c, 0, 69, 85
1, 88018, Note_on_c, 0, 69, 0
1, 88020, Note_on_c, 0, 81, 85
1, 88078, Note_on_c, 0, 81, 0
1, 88080, Note_on_c, 0, 68, 85
1, 88138, Note_on_c, 0, 68, 0
1, 88140, Note_on_c, 0, 80, 85
1, 88198, Note_on_c, 0, 80, 0
1, 88200, Note_on_c, 0, 67, 85
1, 88200, Note_on_c, 1, 61, 85
1, 88200, Note_on_c, 1, 64, 85
1, 88258, Note_on_c, 0, 67, 0
1, 88260, Note_on_c, 0, 79, 85
1, 88318, Note_on_c, 0, 79, 0
1, 88318, Note_on_c, 1, 64, 0
1, 88318, Note_on_c, 1, 61, 0
1, 88320, Note_on_c, 0, 68, 85
1, 88320, Note_on_c, 1, 60, 85
1, 88320, Note_on_c, 1, 63, 85
1, 88378, Note_on_c, 0, 68, 0
1, 88380, Note_on_c, 0, 80, 85
1, 88438, Note_on_c, 0, 80, 0
1, 88438, Note_on_c, 1, 63, 0
1, 88438, Note_on_c, 1, 60, 0
1, 88440, Note_on_c, 0, 67, 85
1, 88440, Note_on_c, 1, 61, 85
1, 88440, Note_on_c, 1, 64, 85
1, 88498, Note_on_c, 0, 67, 0
1, 88500, Note_on_c, 0, 79, 85
1, 88558, Note_on_c, 0, 79, 0
1, 88558, Note_on_c, 1, 64, 0
1, 88558, Note_on_c, 1, 61, 0
1, 88560, Note_on_c, 0, 68, 85
1, 88560, Note_on_c, 1, 60, 85
1, 88560, Note_on_c, 1, 63, 85
1, 88618, Note_on_c, 0, 68, 0
1, 88620, Note_on_c, 0, 80, 85
1, 88678, Note_on_c, 0, 80, 0
1, 88678, Note_on_c, 1, 63, 0
1, 88678, Note_on_c, 1, 60, 0
1, 88680, Note_on_c, 0, 67, 85
1, 88680, Note_on_c, 1, 61, 85
1, 88680, Note_on_c, 1, 64, 85
1, 88738, Note_on_c, 0, 67, 0
1, 88740, Note_on_c, 0, 79, 85
1, 88798, Note_on_c, 0, 79, 0
1, 88798, Note_on_c, 1, 64, 0
1, 88798, Note_on_c, 1, 61, 0
1, 88800, Note_on_c, 0, 68, 85
1, 88800, Note_on_c, 1, 60, 85
1, 88800, Note_on_c, 1, 63, 85
1, 88858, Note_on_c, 0, 68, 0
1, 88860, Note_on_c, 0, 80, 85
1, 88918, Note_on_c, 0, 80, 0
1, 88918, Note_on_c, 1, 63, 0
1, 88918, Note_on_c, 1, 60, 0
1, 89160, Note_on_c, 0, 72, 85
1, 89188, Note_on_c, 0, 72, 0
1, 89190, Note_on_c, 0, 70, 85
1, 89218, Note_on_c, 0, 70, 0
1, 89220, Note_on_c, 0, 72, 85
1, 89248, Note_on_c, 0, 72, 0
1, 89250, Note_on_c, 0, 73, 85
1, 89278, Note_on_c, 0, 73, 0
1, 89280, Note_on_c, 0, 75, 85
1, 89280, Note_on_c, 1, 54, 85
1, 89280, Note_on_c, 1, 56, 85
1, 89280, Note_on_c, 1, 60, 85
1, 89398, Note_on_c, 0, 75, 0
1, 89398, Note_on_c, 1, 60, 0
1, 89398, Note_on_c, 1, 56, 0
1, 89398, Note_on_c, 1, 54, 0
1, 89400, Note_on_c, 0, 75, 85
1, 89428, Note_on_c, 0, 75, 0
1, 89430, Note_on_c, 0, 73, 85
1, 89458, Note_on_c, 0, 73, 0
1, 89460, Note_on_c, 0, 75, 85
1, 89488, Note_on_c, 0, 75, 0
1, 89490, Note_on_c, 0, 76, 85
1, 89518, Note_on_c, 0, 76, 0
1, 89520, Note_on_c, 0, 78, 85
1, 89520, Note_on_c, 1, 54, 85
1, 89520, Note_on_c, 1, 56, 85
1, 89520, Note_on_c, 1, 60, 85
1, 89638, Note_on_c, 0, 78, 0
1, 89638, Note_on_c, 1, 60, 0
1, 89638, Note_on_c, 1, 56, 0
1, 89638, Note_on_c, 1, 54, 0
1, 89640, Note_on_c, 0, 78, 85
1, 89668, Note_on_c, 0, 78, 0
1, 89670, Note_on_c, 0, 76, 85
1, 89698, Note_on_c, 0, 76, 0
1, 89700, Note_on_c, 0, 78, 85
1, 89728, Note_on_c, 0, 78, 0
1, 89730, Note_on_c, 0, 80, 85
1, 89758, Note_on_c, 0, 80, 0
1, 89760, Note_on_c, 0, 81, 85
1, 89760, Note_on_c, 1, 54, 85
1, 89760, Note_on_c, 1, 56, 85
1, 89760, Note_on_c, 1, 60, 85
1, 89878, Note_on_c, 0, 81, 0
1, 89878, Note_on_c, 1, 60, 0
1, 89878, Note_on_c, 1, 56, 0
1, 89878, Note_on_c, 1, 54, 0
1, 89880, Note_on_c, 0, 75, 85
1, 89998, Note_on_c, 0, 75, 0
1, 90000, Note_on_c, 0, 78, 85
1, 90118, Note_on_c, 0, 78, 0
1, 90120, Note_on_c, 0, 72, 85
1, 90238, Note_on_c, 0, 72, 0
1, 90240, Note_on_c, 0, 68, 85
1, 90240, Note_on_c, 0, 73, 85
1, 90240, Note_on_c, 0, 76, 85
1, 90240, Note_on_c, 0, 80, 85
1, 90240, Note_on_c, 1, 52, 85
1, 90240, Note_on_c, 1, 56, 85
1, 90240, Note_on_c, 1, 61, 85
1, 90358, Note_on_c, 0, 80, 0
1, 90358, Note_on_c, 0, 68, 0
1, 90358, Note_on_c, 0, 73, 0
1, 90358, Note_on_c, 0, 76, 0
1, 90358, Note_on_c, 1, 61, 0
1, 90358, Note_on_c, 1, 56, 0
1, 90358, Note_on_c, 1, 52, 0
1, 90480, Note_on_c, 0, 69, 85
1, 90480, Note_on_c, 0, 75, 85
1, 90480, Note_on_c, 0, 78, 85
1, 90480, Note_on_c, 1, 54, 85
1, 90480, Note_on_c, 1, 57, 85
1, 90480, Note_on_c, 1, 63, 85
1, 90598, Note_on_c, 0, 78, 0
1, 90598, Note_on_c, 0, 75, 0
1, 90598, Note_on_c, 0, 69, 0
1, 90598, Note_on_c, 1, 63, 0
1, 90598, Note_on_c, 1, 57, 0
1, 90598, Note_on_c, 1, 54, 0
1, 90720, Note_on_c, 0, 68, 85
1, 90720, Note_on_c, 0, 73, 85
1, 90720, Note_on_c, 0, 76, 85
1, 90720, Note_on_c, 1, 56, 85
1, 90720, Note_on_c, 1, 61, 85
1, 90720, Note_on_c, 1, 64, 85
1, 90838, Note_on_c, 0, 76, 0
1, 90838, Note_on_c, 0, 73, 0
1, 90838, Note_on_c, 0, 68, 0
1, 90838, Note_on_c, 1, 64, 0
1, 90838, Note_on_c, 1, 61, 0
1, 90838, Note_on_c, 1, 56, 0
1, 91080, Note_on_c, 0, 75, 85
1, 91080, Note_on_c, 1, 56, 85
1, 91080, Note_on_c, 1, 66, 85
1, 91152, Note_on_c, 0, 75, 0
1, 91170, Note_on_c, 0, 72, 85
1, 91198, Note_on_c, 1, 66, 0
1, 91198, Note_on_c, 1, 56, 0
1, 91199, Note_on_c, 0, 72, 0
1, 91200, Note_on_c, 0, 73, 85
1, 91200, Note_on_c, 1, 64, 85
1, 91200, Note_on_c, 1, 61, 85
1, 91318, Note_on_c, 0, 73, 0
1, 91320, Note_on_c, 0, 76, 85
1, 91320, Note_on_c, 0, 80, 85
1, 91438, Note_on_c, 0, 80, 0
1, 91438, Note_on_c, 0, 76, 0
1, 91438, Note_on_c, 1, 61, 0
1, 91438, Note_on_c, 1, 64, 0
1, 91440, Note_on_c, 0, 73, 85
1, 91440, Note_on_c, 0, 76, 85
1, 91558, Note_on_c, 0, 76, 0
1, 91558, Note_on_c, 0, 73, 0
1, 91560, Note_on_c, 0, 72, 85
1, 91560, Note_on_c, 1, 56, 85
1, 91560, Note_on_c, 1, 66, 85
1, 91632, Note_on_c, 0, 72, 0
1, 91650, Note_on_c, 0, 68, 85
1, 91678, Note_on_c, 1, 66, 0
1, 91678, Note_on_c, 1, 56, 0
1, 91679, Note_on_c, 0, 68, 0
1, 91680, Note_on_c, 0, 73, 85
1, 91680, Note_on_c, 1, 61, 85
1, 91680, Note_on_c, 1, 64, 85
1, 91798, Note_on_c, 0, 73, 0
1, 91798, Note_on_c, 1, 64, 0
1, 91798, Note_on_c, 1, 61, 0
1, 91800, Note_on_c, 0, 72, 85
1, 91800, Note_on_c, 0, 75, 85
1, 91848, Note_on_c, 0, 75, 0
1, 91848, Note_on_c, 0, 72, 0
1, 91920, Note_on_c, 0, 73, 85
1, 91920, Note_on_c, 0, 76, 85
1, 91968, Note_on_c, 0, 76, 0
1, 91968, Note_on_c, 0, 73, 0
1, 92040, Note_on_c, 0, 75, 48
1, 92040, Note_on_c, 1, 56, 48
1, 92040, Note_on_c, 1, 66, 48
1, 92112, Note_on_c, 0, 75, 0
1, 92130, Note_on_c, 0, 72, 48
1, 92158, Note_on_c, 1, 66, 0
1, 92158, Note_on_c, 1, 56, 0
1, 92159, Note_on_c, 0, 72, 0
1, 92160, Note_on_c, 0, 73, 48
1, 92160, Note_on_c, 1, 64, 48
1, 92160, Note_on_c, 1, 61, 48
1, 92278, Note_on_c, 0, 73, 0
1, 92280, Note_on_c, 0, 76, 48
1, 92280, Note_on_c, 0, 80, 48
1, 92398, Note_on_c, 0, 80, 0
1, 92398, Note_on_c, 0, 76, 0
1, 92398, Note_on_c, 1, 61, 0
1, 92398, Note_on_c, 1, 64, 0
1, 92400, Note_on_c, 0, 73, 48
1, 92400, Note_on_c, 0, 76, 48
1, 92518, Note_on_c, 0, 76, 0
1, 92518, Note_on_c, 0, 73, 0
1, 92520, Note_on_c, 0, 72, 48
1, 92520, Note_on_c, 1, 56, 48
1, 92520, Note_on_c, 1, 66, 48
1, 92592, Note_on_c, 0, 72, 0
1, 92610, Note_on_c, 0, 68, 48
1, 92638, Note_on_c, 1, 66, 0
1, 92638, Note_on_c, 1, 56, 0
1, 92639, Note_on_c, 0, 68, 0
1, 92640, Note_on_c, 0, 73, 48
1, 92640, Note_on_c, 1, 64, 48
1, 92640, Note_on_c, 1, 61, 48
1, 92736, Note_on_c, 1, 61, 0
1, 92736, Note_on_c, 1, 64, 0
1, 92758, Note_on_c, 0, 73, 0
1, 92880, Note_on_c, 0, 75, 41
1, 92880, Note_on_c, 0, 84, 41
1, 92880, Note_on_c, 1, 56, 41
1, 92976, Note_on_c, 1, 56, 0
1, 92998, Note_on_c, 0, 84, 0
1, 92998, Note_on_c, 0, 75, 0
1, 93120, Note_on_c, 0, 76, 34
1, 93120, Note_on_c, 0, 85, 34
1, 93120, Note_on_c, 1, 49, 34
1, 93312, Note_on_c, 1, 49, 0
1, 93358, Note_on_c, 0, 85, 0
1, 93358, Note_on_c, 0, 76, 0
1, 93368, End_track
0, 0, End_of_file