0, 0, Header, 0, 1, 240
1, 0, Start_track
1, 0, Tempo, 750000
1, 0, Note_on_c, 0, 75, 64
1, 120, Note_on_c, 1, 51, 64
1, 180, Note_on_c, 1, 51, 0
1, 240, Note_on_c, 0, 75, 0
1, 240, Note_on_c, 0, 70, 64
1, 240, Note_on_c, 1, 50, 64
1, 360, Note_on_c, 1, 50, 0
1, 360, Note_on_c, 1, 46, 64
1, 420, Note_on_c, 0, 70, 0
1, 420, Note_on_c, 0, 68, 64
1, 480, Note_on_c, 0, 68, 0
1, 480, Note_on_c, 0, 68, 64
1, 480, Note_on_c, 1, 46, 0
1, 600, Note_on_c, 1, 51, 64
1, 660, Note_on_c, 1, 51, 0
1, 720, Note_on_c, 0, 68, 0
1, 720, Note_on_c, 0, 67, 64
1, 720, Note_on_c, 1, 55, 64
1, 750, Note_on_c, 0, 67, 0
1, 750, Note_on_c, 0, 68, 64
1, 780, Note_on_c, 0, 68, 0
1, 780, Note_on_c, 0, 67, 64
1, 800, Note_on_c, 0, 67, 0
1, 800, Note_on_c, 0, 68, 64
1, 820, Note_on_c, 0, 68, 0
1, 820, Note_on_c, 0, 67, 64
1, 840, Note_on_c, 0, 67, 0
1, 840, Note_on_c, 0, 65, 64
1, 840, Note_on_c, 1, 55, 0
1, 840, Note_on_c, 1, 58, 64
1, 960, Note_on_c, 0, 65, 0
1, 960, Note_on_c, 0, 63, 64
1, 960, Note_on_c, 1, 58, 0
1, 960, Note_on_c, 1, 60, 64
1, 1080, Note_on_c, 0, 63, 0
1, 1080, Note_on_c, 0, 68, 64
1, 1140, Note_on_c, 0, 68, 0
1, 1200, Note_on_c, 0, 65, 64
1, 1200, Note_on_c, 1, 60, 0
1, 1200, Note_on_c, 1, 62, 64
1, 1320, Note_on_c, 0, 65, 0
1, 1320, Note_on_c, 0, 70, 64
1, 1380, Note_on_c, 0, 70, 0
1, 1440, Note_on_c, 0, 68, 64
1, 1440, Note_on_c, 1, 62, 0
1, 1560, Note_on_c, 1, 63, 64
1, 1620, Note_on_c, 1, 63, 0
1, 1680, Note_on_c, 0, 68, 0
1, 1680, Note_on_c, 0, 67, 64
1, 1680, Note_on_c, 1, 51, 64
1, 1710, Note_on_c, 0, 67, 0
1, 1710, Note_on_c, 0, 68, 64
1, 1740, Note_on_c, 0, 68, 0
1, 1740, Note_on_c, 0, 67, 64
1, 1760, Note_on_c, 0, 67, 0
1, 1760, Note_on_c, 0, 68, 64
1, 1780, Note_on_c, 0, 68, 0
1, 1780, Note_on_c, 0, 67, 64
1, 1800, Note_on_c, 0, 67, 0
1, 1800, Note_on_c, 0, 65, 64
1, 1800, Note_on_c, 1, 51, 0
1, 1800, Note_on_c, 1, 58, 64
1, 1920, Note_on_c, 0, 65, 0
1, 1920, Note_on_c, 0, 63, 64
1, 1920, Note_on_c, 1, 58, 0
1, 1920, Note_on_c, 1, 60, 64
1, 1983, Note_on_c, 0, 63, 0
1, 2010, Note_on_c, 0, 68, 64
1, 2040, Note_on_c, 0, 68, 0
1, 2040, Note_on_c, 0, 68, 64
1, 2070, Note_on_c, 0, 68, 0
1, 2070, Note_on_c, 0, 70, 64
1, 2100, Note_on_c, 0, 70, 0
1, 2100, Note_on_c, 0, 68, 64
1, 2120, Note_on_c, 0, 68, 0
1, 2120, Note_on_c, 0, 70, 64
1, 2140, Note_on_c, 0, 70, 0
1, 2140, Note_on_c, 0, 68, 64
1, 2160, Note_on_c, 0, 68, 0
1, 2160, Note_on_c, 0, 65, 64
1, 2160, Note_on_c, 1, 60, 0
1, 2160, Note_on_c, 1, 62, 64
1, 2223, Note_on_c, 0, 65, 0
1, 2250, Note_on_c, 0, 70, 64
1, 2280, Note_on_c, 0, 70, 0
1, 2280, Note_on_c, 0, 70, 64
1, 2310, Note_on_c, 0, 70, 0
1, 2310, Note_on_c, 0, 72, 64
1, 2340, Note_on_c, 0, 72, 0
1, 2340, Note_on_c, 0, 70, 64
1, 2360, Note_on_c, 0, 70, 0
1, 2360, Note_on_c, 0, 72, 64
1, 2380, Note_on_c, 0, 72, 0
1, 2380, Note_on_c, 0, 70, 64
1, 2400, Note_on_c, 0, 70, 0
1, 2400, Note_on_c, 0, 68, 64
1, 2400, Note_on_c, 1, 62, 0
1, 2400, Note_on_c, 1, 63, 64
1, 2520, Note_on_c, 0, 68, 0
1, 2520, Note_on_c, 0, 67, 64
1, 2610, Note_on_c, 0, 67, 0
1, 2610, Note_on_c, 0, 79, 64
1, 2640, Note_on_c, 0, 79, 0
1, 2640, Note_on_c, 0, 75, 64
1, 2640, Note_on_c, 1, 63, 0
1, 2700, Note_on_c, 0, 75, 0
1, 2760, Note_on_c, 1, 58, 64
1, 2760, Note_on_c, 1, 55, 64
1, 2820, Note_on_c, 1, 55, 0
1, 2820, Note_on_c, 1, 58, 0
1, 2850, Note_on_c, 0, 75, 64
1, 2880, Note_on_c, 0, 75, 0
1, 2880, Note_on_c, 0, 72, 64
1, 2940, Note_on_c, 0, 72, 0
1, 3000, Note_on_c, 1, 56, 64
1, 3000, Note_on_c, 1, 60, 64
1, 3060, Note_on_c, 1, 60, 0
1, 3060, Note_on_c, 1, 56, 0
1, 3090, Note_on_c, 0, 72, 64
1, 3120, Note_on_c, 0, 72, 0
1, 3120, Note_on_c, 0, 70, 64
1, 3210, Note_on_c, 0, 70, 0
1, 3210, Note_on_c, 0, 68, 64
1, 3240, Note_on_c, 0, 68, 0
1, 3240, Note_on_c, 0, 65, 64
1, 3240, Note_on_c, 1, 46, 64
1, 3240, Note_on_c, 1, 56, 64
1, 3330, Note_on_c, 0, 65, 0
1, 3330, Note_on_c, 0, 62, 64
1, 3360, Note_on_c, 0, 62, 0
1, 3360, Note_on_c, 0, 63, 64
1, 3360, Note_on_c, 1, 56, 0
1, 3360, Note_on_c, 1, 46, 0
1, 3480, Note_on_c, 0, 63, 0
1, 3480, Note_on_c, 1, 39, 64
1, 3540, Note_on_c, 1, 39, 0
1, 3600, Note_on_c, 1, 43, 72
1, 3720, Note_on_c, 1, 43, 0
1, 3720, Note_on_c, 1, 46, 80
1, 3840, Note_on_c, 0, 75, 80
1, 3840, Note_on_c, 1, 46, 0
1, 3960, Note_on_c, 1, 63, 80
1, 3960, Note_on_c, 1, 67, 80
1, 4020, Note_on_c, 0, 75, 0
1, 4020, Note_on_c, 0, 79, 80
1, 4020, Note_on_c, 1, 67, 0
1, 4020, Note_on_c, 1, 63, 0
1, 4050, Note_on_c, 0, 79, 0
1, 4050, Note_on_c, 0, 82, 80
1, 4080, Note_on_c, 0, 82, 0
1, 4080, Note_on_c, 0, 70, 80
1, 4080, Note_on_c, 1, 62, 80
1, 4080, Note_on_c, 1, 65, 80
1, 4200, Note_on_c, 0, 70, 0
1, 4200, Note_on_c, 0, 68, 80
1, 4200, Note_on_c, 1, 65, 0
1, 4200, Note_on_c, 1, 62, 0
1, 4200, Note_on_c, 1, 58, 80
1, 4200, Note_on_c, 1, 62, 80
1, 4260, Note_on_c, 0, 68, 0
1, 4260, Note_on_c, 0, 67, 80
1, 4280, Note_on_c, 0, 67, 0
1, 4280, Note_on_c, 0, 68, 80
1, 4300, Note_on_c, 0, 68, 0
1, 4300, Note_on_c, 0, 70, 80
1, 4320, Note_on_c, 0, 70, 0
1, 4320, Note_on_c, 0, 68, 80
1, 4320, Note_on_c, 1, 62, 0
1, 4320, Note_on_c, 1, 58, 0
1, 4440, Note_on_c, 1, 51, 80
1, 4500, Note_on_c, 1, 51, 0
1, 4560, Note_on_c, 0, 68, 0
1, 4560, Note_on_c, 0, 67, 80
1, 4560, Note_on_c, 1, 55, 80
1, 4590, Note_on_c, 0, 67, 0
1, 4590, Note_on_c, 0, 68, 80
1, 4620, Note_on_c, 0, 68, 0
1, 4620, Note_on_c, 0, 67, 80
1, 4640, Note_on_c, 0, 67, 0
1, 4640, Note_on_c, 0, 68, 80
1, 4660, Note_on_c, 0, 68, 0
1, 4660, Note_on_c, 0, 67, 80
1, 4680, Note_on_c, 0, 67, 0
1, 4680, Note_on_c, 0, 65, 80
1, 4680, Note_on_c, 1, 55, 0
1, 4680, Note_on_c, 1, 58, 80
1, 4800, Note_on_c, 0, 65, 0
1, 4800, Note_on_c, 0, 63, 80
1, 4800, Note_on_c, 1, 58, 0
1, 4800, Note_on_c, 1, 60, 80
1, 4920, Note_on_c, 0, 63, 0
1, 4920, Note_on_c, 0, 68, 88
1, 4980, Note_on_c, 0, 68, 0
1, 5040, Note_on_c, 0, 65, 80
1, 5040, Note_on_c, 1, 60, 0
1, 5040, Note_on_c, 1, 62, 80
1, 5160, Note_on_c, 0, 65, 0
1, 5160, Note_on_c, 0, 70, 88
1, 5220, Note_on_c, 0, 70, 0
1, 5280, Note_on_c, 0, 68, 80
1, 5280, Note_on_c, 1, 62, 0
1, 5400, Note_on_c, 1, 63, 80
1, 5460, Note_on_c, 1, 63, 0
1, 5520, Note_on_c, 0, 68, 0
1, 5520, Note_on_c, 0, 67, 80
1, 5520, Note_on_c, 1, 51, 80
1, 5550, Note_on_c, 0, 67, 0
1, 5550, Note_on_c, 0, 68, 80
1, 5580, Note_on_c, 0, 68, 0
1, 5580, Note_on_c, 0, 67, 80
1, 5600, Note_on_c, 0, 67, 0
1, 5600, Note_on_c, 0, 68, 80
1, 5620, Note_on_c, 0, 68, 0
1, 5620, Note_on_c, 0, 67, 80
1, 5640, Note_on_c, 0, 67, 0
1, 5640, Note_on_c, 0, 65, 80
1, 5640, Note_on_c, 1, 51, 0
1, 5640, Note_on_c, 1, 58, 80
1, 5760, Note_on_c, 0, 65, 0
1, 5760, Note_on_c, 0, 63, 80
1, 5760, Note_on_c, 1, 58, 0
1, 5760, Note_on_c, 1, 60, 80
1, 5820, Note_on_c, 0, 63, 0
1, 5820, Note_on_c, 0, 70, 80
1, 5850, Note_on_c, 0, 70, 0
1, 5880, Note_on_c, 0, 68, 80
1, 5910, Note_on_c, 0, 68, 0
1, 5940, Note_on_c, 0, 67, 80
1, 5970, Note_on_c, 0, 67, 0
1, 6000, Note_on_c, 0, 65, 80
1, 6000, Note_on_c, 1, 60, 0
1, 6000, Note_on_c, 1, 62, 80
1, 6060, Note_on_c, 0, 65, 0
1, 6060, Note_on_c, 0, 72, 80
1, 6120, Note_on_c, 0, 72, 0
1, 6120, Note_on_c, 0, 70, 80
1, 6180, Note_on_c, 0, 70, 0
1, 6180, Note_on_c, 0, 68, 80
1, 6210, Note_on_c, 0, 68, 0
1, 6210, Note_on_c, 0, 67, 80
1, 6225, Note_on_c, 0, 67, 0
1, 6225, Note_on_c, 0, 70, 80
1, 6240, Note_on_c, 0, 70, 0
1, 6240, Note_on_c, 0, 68, 80
1, 6240, Note_on_c, 1, 62, 0
1, 6240, Note_on_c, 1, 63, 80
1, 6360, Note_on_c, 0, 68, 0
1, 6360, Note_on_c, 0, 67, 80
1, 6420, Note_on_c, 0, 67, 0
1, 6420, Note_on_c, 0, 79, 80
1, 6480, Note_on_c, 0, 79, 0
1, 6480, Note_on_c, 0, 74, 80
1, 6480, Note_on_c, 1, 63, 0
1, 6510, Note_on_c, 0, 74, 0
1, 6510, Note_on_c, 0, 77, 80
1, 6540, Note_on_c, 0, 77, 0
1, 6540, Note_on_c, 0, 75, 80
1, 6570, Note_on_c, 0, 75, 0
1, 6600, Note_on_c, 1, 63, 80
1, 6600, Note_on_c, 1, 58, 80
1, 6600, Note_on_c, 1, 55, 80
1, 6660, Note_on_c, 0, 75, 80
1, 6660, Note_on_c, 1, 55, 0
1, 6660, Note_on_c, 1, 58, 0
1, 6660, Note_on_c, 1, 63, 0
1, 6720, Note_on_c, 0, 75, 0
1, 6720, Note_on_c, 0, 71, 80
1, 6750, Note_on_c, 0, 71, 0
1, 6750, Note_on_c, 0, 74, 80
1, 6780, Note_on_c, 0, 74, 0
1, 6780, Note_on_c, 0, 72, 80
1, 6822, Note_on_c, 0, 72, 0
1, 6840, Note_on_c, 1, 63, 80
1, 6840, Note_on_c, 1, 60, 80
1, 6840, Note_on_c, 1, 56, 80
1, 6900, Note_on_c, 0, 72, 80
1, 6924, Note_on_c, 1, 56, 0
1, 6924, Note_on_c, 1, 60, 0
1, 6924, Note_on_c, 1, 63, 0
1, 6960, Note_on_c, 0, 72, 0
1, 6960, Note_on_c, 0, 67, 80
1, 6990, Note_on_c, 0, 67, 0
1, 6990, Note_on_c, 0, 70, 80
1, 7020, Note_on_c, 0, 70, 0
1, 7020, Note_on_c, 0, 68, 80
1, 7080, Note_on_c, 0, 68, 0
1, 7080, Note_on_c, 1, 46, 80
1, 7080, Note_on_c, 1, 56, 80
1, 7140, Note_on_c, 0, 65, 80
1, 7170, Note_on_c, 0, 65, 0
1, 7170, Note_on_c, 0, 62, 80
1, 7200, Note_on_c, 0, 62, 0
1, 7200, Note_on_c, 0, 63, 80
1, 7200, Note_on_c, 1, 56, 0
1, 7200, Note_on_c, 1, 46, 0
1, 7200, Note_on_c, 1, 51, 80
1, 7200, Note_on_c, 1, 55, 80
1, 7284, Note_on_c, 0, 63, 0
1, 7284, Note_on_c, 1, 55, 0
1, 7284, Note_on_c, 1, 51, 0
1, 7320, Note_on_c, 0, 63, 80
1, 7320, Note_on_c, 1, 56, 80
1, 7320, Note_on_c, 1, 60, 80
1, 7404, Note_on_c, 0, 63, 0
1, 7404, Note_on_c, 1, 60, 0
1, 7404, Note_on_c, 1, 56, 0
1, 7440, Note_on_c, 0, 63, 80
1, 7440, Note_on_c, 1, 55, 80
1, 7440, Note_on_c, 1, 58, 80
1, 7560, Note_on_c, 0, 63, 0
1, 7560, Note_on_c, 0, 63, 80
1, 7560, Note_on_c, 1, 58, 0
1, 7560, Note_on_c, 1, 55, 0
1, 7560, Note_on_c, 1, 53, 80
1, 7560, Note_on_c, 1, 56, 80
1, 7680, Note_on_c, 0, 63, 0
1, 7680, Note_on_c, 0, 63, 80
1, 7680, Note_on_c, 1, 56, 0
1, 7680, Note_on_c, 1, 53, 0
1, 7680, Note_on_c, 1, 55, 80
1, 7680, Note_on_c, 1, 51, 80
1, 7752, Note_on_c, 0, 63, 0
1, 7752, Note_on_c, 1, 51, 0
1, 7752, Note_on_c, 1, 55, 0
1, 7800, Note_on_c, 0, 63, 80
1, 7800, Note_on_c, 1, 56, 80
1, 7800, Note_on_c, 1, 60, 80
1, 7890, Note_on_c, 0, 63, 0
1, 7890, Note_on_c, 0, 63, 80
1, 7920, Note_on_c, 0, 63, 0
1, 7920, Note_on_c, 0, 63, 80
1, 7920, Note_on_c, 1, 60, 0
1, 7920, Note_on_c, 1, 56, 0
1, 7920, Note_on_c, 1, 55, 80
1, 7920, Note_on_c, 1, 58, 80
1, 8010, Note_on_c, 0, 63, 0
1, 8010, Note_on_c, 0, 63, 80
1, 8040, Note_on_c, 0, 63, 0
1, 8040, Note_on_c, 0, 63, 80
1, 8040, Note_on_c, 1, 58, 0
1, 8040, Note_on_c, 1, 55, 0
1, 8040, Note_on_c, 1, 53, 80
1, 8040, Note_on_c, 1, 56, 80
1, 8130, Note_on_c, 0, 63, 0
1, 8130, Note_on_c, 0, 63, 80
1, 8160, Note_on_c, 0, 63, 0
1, 8160, Note_on_c, 0, 63, 80
1, 8160, Note_on_c, 1, 56, 0
1, 8160, Note_on_c, 1, 53, 0
1, 8160, Note_on_c, 1, 51, 80
1, 8160, Note_on_c, 1, 55, 80
1, 8232, Note_on_c, 0, 63, 0
1, 8232, Note_on_c, 1, 55, 0
1, 8232, Note_on_c, 1, 51, 0
1, 8280, Note_on_c, 0, 62, 80
1, 8280, Note_on_c, 1, 56, 80
1, 8280, Note_on_c, 1, 60, 80
1, 8310, Note_on_c, 0, 62, 0
1, 8310, Note_on_c, 0, 63, 80
1, 8340, Note_on_c, 0, 63, 0
1, 8340, Note_on_c, 0, 65, 80
1, 8370, Note_on_c, 0, 65, 0
1, 8370, Note_on_c, 0, 63, 80
1, 8400, Note_on_c, 0, 63, 0
1, 8400, Note_on_c, 0, 62, 80
1, 8400, Note_on_c, 1, 60, 0
1, 8400, Note_on_c, 1, 56, 0
1, 8400, Note_on_c, 1, 55, 80
1, 8400, Note_on_c, 1, 58, 80
1, 8430, Note_on_c, 0, 62, 0
1, 8430, Note_on_c, 0, 63, 80
1, 8460, Note_on_c, 0, 63, 0
1, 8460, Note_on_c, 0, 65, 80
1, 8490, Note_on_c, 0, 65, 0
1, 8490, Note_on_c, 0, 63, 80
1, 8520, Note_on_c, 0, 63, 0
1, 8520, Note_on_c, 0, 62, 80
1, 8520, Note_on_c, 1, 58, 0
1, 8520, Note_on_c, 1, 55, 0
1, 8520, Note_on_c, 1, 53, 80
1, 8520, Note_on_c, 1, 56, 80
1, 8550, Note_on_c, 0, 62, 0
1, 8550, Note_on_c, 0, 63, 80
1, 8580, Note_on_c, 0, 63, 0
1, 8580, Note_on_c, 0, 65, 80
1, 8610, Note_on_c, 0, 65, 0
1, 8610, Note_on_c, 0, 63, 80
1, 8640, Note_on_c, 0, 63, 0
1, 8640, Note_on_c, 0, 62, 80
1, 8640, Note_on_c, 1, 56, 0
1, 8640, Note_on_c, 1, 53, 0
1, 8640, Note_on_c, 1, 55, 80
1, 8640, Note_on_c, 1, 51, 80
1, 8670, Note_on_c, 0, 62, 0
1, 8670, Note_on_c, 0, 63, 80
1, 8700, Note_on_c, 0, 63, 0
1, 8700, Note_on_c, 0, 65, 80
1, 8730, Note_on_c, 0, 65, 0
1, 8730, Note_on_c, 0, 67, 80
1, 8760, Note_on_c, 0, 67, 0
1, 8760, Note_on_c, 0, 68, 80
1, 8790, Note_on_c, 0, 68, 0
1, 8790, Note_on_c, 0, 70, 80
1, 8820, Note_on_c, 0, 70, 0
1, 8820, Note_on_c, 0, 72, 80
1, 8850, Note_on_c, 0, 72, 0
1, 8850, Note_on_c, 0, 74, 80
1, 8880, Note_on_c, 0, 74, 0
1, 8880, Note_on_c, 0, 75, 80
1, 8880, Note_on_c, 1, 51, 0
1, 8880, Note_on_c, 1, 55, 0
1, 8910, Note_on_c, 0, 75, 0
1, 8910, Note_on_c, 0, 77, 80
1, 8940, Note_on_c, 0, 77, 0
1, 8940, Note_on_c, 0, 79, 80
1, 8970, Note_on_c, 0, 79, 0
1, 8970, Note_on_c, 0, 80, 80
1, 9000, Note_on_c, 0, 80, 0
1, 9000, Note_on_c, 0, 82, 80
1, 9030, Note_on_c, 0, 82, 0
1, 9030, Note_on_c, 0, 80, 80
1, 9060, Note_on_c, 0, 80, 0
1, 9060, Note_on_c, 0, 79, 80
1, 9090, Note_on_c, 0, 79, 0
1, 9090, Note_on_c, 0, 77, 80
1, 9120, Note_on_c, 0, 77, 0
1, 9120, Note_on_c, 0, 75, 80
1, 9120, Note_on_c, 1, 58, 80
1, 9120, Note_on_c, 1, 55, 80
1, 9120, Note_on_c, 1, 51, 80
1, 9150, Note_on_c, 0, 75, 0
1, 9150, Note_on_c, 0, 74, 80
1, 9180, Note_on_c, 0, 74, 0
1, 9180, Note_on_c, 0, 72, 80
1, 9210, Note_on_c, 0, 72, 0
1, 9210, Note_on_c, 0, 70, 80
1, 9240, Note_on_c, 0, 70, 0
1, 9240, Note_on_c, 0, 72, 80
1, 9270, Note_on_c, 0, 72, 0
1, 9270, Note_on_c, 0, 74, 80
1, 9300, Note_on_c, 0, 74, 0
1, 9300, Note_on_c, 0, 75, 80
1, 9330, Note_on_c, 0, 75, 0
1, 9330, Note_on_c, 0, 77, 80
1, 9360, Note_on_c, 0, 77, 0
1, 9360, Note_on_c, 0, 79, 80
1, 9360, Note_on_c, 1, 51, 0
1, 9360, Note_on_c, 1, 55, 0
1, 9360, Note_on_c, 1, 58, 0
1, 9390, Note_on_c, 0, 79, 0
1, 9390, Note_on_c, 0, 77, 80
1, 9420, Note_on_c, 0, 77, 0
1, 9420, Note_on_c, 0, 75, 80
1, 9450, Note_on_c, 0, 75, 0
1, 9450, Note_on_c, 0, 74, 80
1, 9480, Note_on_c, 0, 74, 0
1, 9480, Note_on_c, 0, 72, 80
1, 9510, Note_on_c, 0, 72, 0
1, 9510, Note_on_c, 0, 70, 80
1, 9540, Note_on_c, 0, 70, 0
1, 9540, Note_on_c, 0, 68, 80
1, 9570, Note_on_c, 0, 68, 0
1, 9570, Note_on_c, 0, 67, 80
1, 9600, Note_on_c, 0, 67, 0
1, 9600, Note_on_c, 0, 65, 80
1, 9600, Note_on_c, 1, 44, 80
1, 9600, Note_on_c, 1, 48, 80
1, 9600, Note_on_c, 1, 53, 80
1, 9630, Note_on_c, 0, 65, 0
1, 9630, Note_on_c, 0, 67, 80
1, 9660, Note_on_c, 0, 67, 0
1, 9660, Note_on_c, 0, 68, 80
1, 9690, Note_on_c, 0, 68, 0
1, 9690, Note_on_c, 0, 70, 80
1, 9720, Note_on_c, 0, 70, 0
1, 9720, Note_on_c, 0, 72, 80
1, 9750, Note_on_c, 0, 72, 0
1, 9750, Note_on_c, 0, 70, 80
1, 9780, Note_on_c, 0, 70, 0
1, 9780, Note_on_c, 0, 68, 80
1, 9810, Note_on_c, 0, 68, 0
1, 9810, Note_on_c, 0, 67, 80
1, 9840, Note_on_c, 0, 67, 0
1, 9840, Note_on_c, 0, 65, 80
1, 9840, Note_on_c, 1, 53, 0
1, 9840, Note_on_c, 1, 48, 0
1, 9840, Note_on_c, 1, 44, 0
1, 9870, Note_on_c, 0, 65, 0
1, 9870, Note_on_c, 0, 67, 80
1, 9900, Note_on_c, 0, 67, 0
1, 9900, Note_on_c, 0, 65, 80
1, 9930, Note_on_c, 0, 65, 0
1, 9930, Note_on_c, 0, 63, 80
1, 9960, Note_on_c, 0, 63, 0
1, 9960, Note_on_c, 0, 62, 80
1, 9960, Note_on_c, 1, 45, 80
1, 9960, Note_on_c, 1, 48, 80
1, 9960, Note_on_c, 1, 53, 80
1, 9990, Note_on_c, 0, 62, 0
1, 9990, Note_on_c, 0, 63, 80
1, 10020, Note_on_c, 0, 63, 0
1, 10020, Note_on_c, 0, 62, 80
1, 10020, Note_on_c, 1, 53, 0
1, 10020, Note_on_c, 1, 48, 0
1, 10020, Note_on_c, 1, 45, 0
1, 10050, Note_on_c, 0, 62, 0
1, 10050, Note_on_c, 0, 60, 80
1, 10080, Note_on_c, 0, 60, 0
1, 10080, Note_on_c, 0, 58, 80
1, 10080, Note_on_c, 1, 46, 80
1, 10080, Note_on_c, 1, 50, 80
1, 10080, Note_on_c, 1, 53, 80
1, 10140, Note_on_c, 0, 58, 0
1, 10140, Note_on_c, 0, 60, 80
1, 10170, Note_on_c, 0, 60, 0
1, 10170, Note_on_c, 0, 62, 80
1, 10200, Note_on_c, 0, 62, 0
1, 10200, Note_on_c, 0, 63, 80
1, 10230, Note_on_c, 0, 63, 0
1, 10230, Note_on_c, 0, 65, 80
1, 10260, Note_on_c, 0, 65, 0
1, 10260, Note_on_c, 0, 67, 80
1, 10290, Note_on_c, 0, 67, 0
1, 10290, Note_on_c, 0, 69, 80
1, 10320, Note_on_c, 0, 69, 0
1, 10320, Note_on_c, 0, 70, 80
1, 10320, Note_on_c, 1, 53, 0
1, 10320, Note_on_c, 1, 50, 0
1, 10320, Note_on_c, 1, 46, 0
1, 10320, Note_on_c, 1, 58, 80
1, 10365, Note_on_c, 0, 70, 0
1, 10365, Note_on_c, 1, 58, 0
1, 10410, Note_on_c, 0, 70, 80
1, 10410, Note_on_c, 1, 58, 80
1, 10440, Note_on_c, 0, 70, 0
1, 10440, Note_on_c, 0, 65, 80
1, 10440, Note_on_c, 1, 58, 0
1, 10440, Note_on_c, 1, 53, 80
1, 10485, Note_on_c, 0, 65, 0
1, 10485, Note_on_c, 1, 53, 0
1, 10530, Note_on_c, 0, 62, 80
1, 10530, Note_on_c, 1, 50, 80
1, 10560, Note_on_c, 0, 62, 0
1, 10560, Note_on_c, 0, 58, 80
1, 10560, Note_on_c, 1, 50, 0
1, 10560, Note_on_c, 1, 46, 80
1, 10644, Note_on_c, 0, 58, 0
1, 10644, Note_on_c, 1, 46, 0
1, 10800, Note_on_c, 0, 58, 80
1, 10800, Note_on_c, 1, 46, 80
1, 10845, Note_on_c, 0, 58, 0
1, 10845, Note_on_c, 1, 46, 0
1, 10890, Note_on_c, 0, 58, 80
1, 10890, Note_on_c, 1, 46, 80
1, 10920, Note_on_c, 0, 58, 0
1, 10920, Note_on_c, 0, 53, 80
1, 10920, Note_on_c, 1, 46, 0
1, 10920, Note_on_c, 1, 41, 80
1, 10965, Note_on_c, 0, 53, 0
1, 10965, Note_on_c, 1, 41, 0
1, 11010, Note_on_c, 0, 50, 80
1, 11010, Note_on_c, 1, 38, 80
1, 11040, Note_on_c, 0, 50, 0
1, 11040, Note_on_c, 0, 46, 80
1, 11040, Note_on_c, 1, 38, 0
1, 11040, Note_on_c, 1, 34, 80
1, 11160, Note_on_c, 0, 46, 0
1, 11160, Note_on_c, 1, 34, 0
1, 11520, Note_on_c, 0, 82, 80
1, 11640, Note_on_c, 1, 58, 80
1, 11640, Note_on_c, 1, 62, 80
1, 11688, Note_on_c, 1, 62, 0
1, 11688, Note_on_c, 1, 58, 0
1, 11760, Note_on_c, 0, 82, 0
1, 11760, Note_on_c, 0, 77, 80
1, 11760, Note_on_c, 1, 57, 80
1, 11760, Note_on_c, 1, 60, 80
1, 11880, Note_on_c, 1, 60, 0
1, 11880, Note_on_c, 1, 57, 0
1, 11880, Note_on_c, 1, 55, 80
1, 11880, Note_on_c, 1, 58, 80
1, 11928, Note_on_c, 1, 58, 0
1, 11928, Note_on_c, 1, 55, 0
1, 11940, Note_on_c, 0, 77, 0
1, 11940, Note_on_c, 0, 75, 80
1, 12000, Note_on_c, 0, 75, 0
1, 12000, Note_on_c, 0, 75, 80
1, 12120, Note_on_c, 1, 55, 80
1, 12120, Note_on_c, 1, 58, 80
1, 12168, Note_on_c, 1, 58, 0
1, 12168, Note_on_c, 1, 55, 0
1, 12240, Note_on_c, 0, 75, 0
1, 12240, Note_on_c, 0, 74, 80
1, 12240, Note_on_c, 1, 53, 80
1, 12240, Note_on_c, 1, 57, 80
1, 12270, Note_on_c, 0, 74, 0
1, 12270, Note_on_c, 0, 75, 80
1, 12300, Note_on_c, 0, 75, 0
1, 12300, Note_on_c, 0, 74, 80
1, 12320, Note_on_c, 0, 74, 0
1, 12320, Note_on_c, 0, 75, 80
1, 12340, Note_on_c, 0, 75, 0
1, 12340, Note_on_c, 0, 74, 80
1, 12360, Note_on_c, 0, 74, 0
1, 12360, Note_on_c, 0, 72, 80
1, 12360, Note_on_c, 1, 57, 0
1, 12360, Note_on_c, 1, 53, 0
1, 12360, Note_on_c, 1, 51, 80
1, 12360, Note_on_c, 1, 55, 80
1, 12480, Note_on_c, 0, 72, 0
1, 12480, Note_on_c, 0, 70, 80
1, 12480, Note_on_c, 1, 55, 0
1, 12480, Note_on_c, 1, 51, 0
1, 12480, Note_on_c, 1, 50, 80
1, 12480, Note_on_c, 1, 53, 80
1, 12540, Note_on_c, 0, 70, 0
1, 12600, Note_on_c, 0, 70, 56
1, 12684, Note_on_c, 0, 70, 0
1, 12720, Note_on_c, 0, 70, 56
1, 12720, Note_on_c, 1, 53, 0
1, 12720, Note_on_c, 1, 50, 0
1, 12804, Note_on_c, 0, 70, 0
1, 12840, Note_on_c, 0, 70, 56
1, 12840, Note_on_c, 1, 62, 56
1, 12840, Note_on_c, 1, 65, 56
1, 12924, Note_on_c, 0, 70, 0
1, 12960, Note_on_c, 0, 72, 56
1, 12960, Note_on_c, 1, 65, 0
1, 12960, Note_on_c, 1, 62, 0
1, 12960, Note_on_c, 1, 63, 56
1, 12960, Note_on_c, 1, 65, 56
1, 13020, Note_on_c, 0, 72, 0
1, 13020, Note_on_c, 0, 74, 56
1, 13080, Note_on_c, 0, 74, 0
1, 13080, Note_on_c, 0, 75, 56
1, 13080, Note_on_c, 1, 65, 0
1, 13080, Note_on_c, 1, 63, 0
1, 13080, Note_on_c, 1, 63, 56
1, 13080, Note_on_c, 1, 65, 56
1, 13140, Note_on_c, 0, 75, 0
1, 13140, Note_on_c, 0, 69, 56
1, 13200, Note_on_c, 0, 69, 0
1, 13200, Note_on_c, 0, 70, 56
1, 13200, Note_on_c, 1, 65, 0
1, 13200, Note_on_c, 1, 63, 0
1, 13200, Note_on_c, 1, 62, 56
1, 13260, Note_on_c, 0, 70, 0
1, 13260, Note_on_c, 1, 62, 0
1, 13260, Note_on_c, 1, 65, 56
1, 13320, Note_on_c, 0, 70, 56
1, 13320, Note_on_c, 1, 65, 0
1, 13320, Note_on_c, 1, 62, 56
1, 13380, Note_on_c, 0, 70, 0
1, 13380, Note_on_c, 1, 62, 0
1, 13380, Note_on_c, 1, 65, 56
1, 13440, Note_on_c, 0, 72, 56
1, 13440, Note_on_c, 1, 65, 0
1, 13440, Note_on_c, 1, 63, 56
1, 13500, Note_on_c, 0, 72, 0
1, 13500, Note_on_c, 0, 74, 58
1, 13500, Note_on_c, 1, 63, 0
1, 13500, Note_on_c, 1, 65, 58
1, 13560, Note_on_c, 0, 74, 0
1, 13560, Note_on_c, 0, 75, 59
1, 13560, Note_on_c, 1, 65, 0
1, 13560, Note_on_c, 1, 63, 59
1, 13620, Note_on_c, 0, 75, 0
1, 13620, Note_on_c, 0, 69, 61
1, 13620, Note_on_c, 1, 63, 0
1, 13620, Note_on_c, 1, 65, 61
1, 13680, Note_on_c, 0, 69, 0
1, 13680, Note_on_c, 0, 70, 62
1, 13680, Note_on_c, 1, 65, 0
1, 13680, Note_on_c, 1, 62, 62
1, 13740, Note_on_c, 0, 70, 0
1, 13740, Note_on_c, 0, 72, 64
1, 13740, Note_on_c, 1, 62, 0
1, 13740, Note_on_c, 1, 65, 64
1, 13800, Note_on_c, 0, 72, 0
1, 13800, Note_on_c, 0, 74, 65
1, 13800, Note_on_c, 1, 65, 0
1, 13800, Note_on_c, 1, 62, 65
1, 13860, Note_on_c, 0, 74, 0
1, 13860, Note_on_c, 0, 70, 67
1, 13860, Note_on_c, 1, 62, 0
1, 13860, Note_on_c, 1, 65, 67
1, 13920, Note_on_c, 0, 70, 0
1, 13920, Note_on_c, 0, 72, 68
1, 13920, Note_on_c, 1, 65, 0
1, 13920, Note_on_c, 1, 63, 68
1, 13980, Note_on_c, 0, 72, 0
1, 13980, Note_on_c, 0, 74, 70
1, 13980, Note_on_c, 1, 63, 0
1, 13980, Note_on_c, 1, 65, 70
1, 14040, Note_on_c, 0, 74, 0
1, 14040, Note_on_c, 0, 75, 71
1, 14040, Note_on_c, 1, 65, 0
1, 14040, Note_on_c, 1, 63, 71
1, 14100, Note_on_c, 0, 75, 0
1, 14100, Note_on_c, 0, 69, 73
1, 14100, Note_on_c, 1, 63, 0
1, 14100, Note_on_c, 1, 65, 73
1, 14160, Note_on_c, 0, 69, 0
1, 14160, Note_on_c, 0, 70, 74
1, 14160, Note_on_c, 1, 65, 0
1, 14160, Note_on_c, 1, 62, 74
1, 14220, Note_on_c, 0, 70, 0
1, 14220, Note_on_c, 0, 72, 76
1, 14220, Note_on_c, 1, 62, 0
1, 14220, Note_on_c, 1, 65, 76
1, 14280, Note_on_c, 0, 72, 0
1, 14280, Note_on_c, 0, 74, 77
1, 14280, Note_on_c, 1, 65, 0
1, 14280, Note_on_c, 1, 62, 77
1, 14340, Note_on_c, 0, 74, 0
1, 14340, Note_on_c, 0, 70, 79
1, 14340, Note_on_c, 1, 62, 0
1, 14340, Note_on_c, 1, 65, 79
1, 14400, Note_on_c, 0, 70, 0
1, 14400, Note_on_c, 0, 72, 80
1, 14400, Note_on_c, 1, 65, 0
1, 14400, Note_on_c, 1, 63, 80
1, 14460, Note_on_c, 0, 72, 0
1, 14460, Note_on_c, 0, 74, 80
1, 14460, Note_on_c, 1, 63, 0
1, 14460, Note_on_c, 1, 65, 80
1, 14520, Note_on_c, 0, 74, 0
1, 14520, Note_on_c, 0, 75, 80
1, 14520, Note_on_c, 1, 65, 0
1, 14520, Note_on_c, 1, 63, 80
1, 14580, Note_on_c, 0, 75, 0
1, 14580, Note_on_c, 0, 69, 80
1, 14580, Note_on_c, 1, 63, 0
1, 14580, Note_on_c, 1, 65, 80
1, 14640, Note_on_c, 0, 69, 0
1, 14640, Note_on_c, 0, 70, 80
1, 14640, Note_on_c, 1, 65, 0
1, 14640, Note_on_c, 1, 62, 80
1, 14700, Note_on_c, 0, 70, 0
1, 14700, Note_on_c, 1, 62, 0
1, 14700, Note_on_c, 1, 65, 80
1, 14760, Note_on_c, 0, 77, 80
1, 14760, Note_on_c, 1, 65, 0
1, 14760, Note_on_c, 1, 62, 80
1, 14820, Note_on_c, 0, 77, 0
1, 14820, Note_on_c, 1, 62, 0
1, 14820, Note_on_c, 1, 65, 80
1, 14880, Note_on_c, 0, 77, 80
1, 14880, Note_on_c, 0, 70, 80
1, 14880, Note_on_c, 1, 65, 0
1, 14880, Note_on_c, 1, 60, 80
1, 14880, Note_on_c, 1, 67, 80
1, 14940, Note_on_c, 0, 70, 0
1, 14940, Note_on_c, 0, 72, 80
1, 15000, Note_on_c, 0, 72, 0
1, 15000, Note_on_c, 0, 73, 80
1, 15060, Note_on_c, 0, 73, 0
1, 15060, Note_on_c, 0, 69, 80
1, 15120, Note_on_c, 0, 69, 0
1, 15120, Note_on_c, 0, 77, 0
1, 15120, Note_on_c, 0, 76, 80
1, 15120, Note_on_c, 0, 70, 80
1, 15180, Note_on_c, 0, 70, 0
1, 15180, Note_on_c, 0, 73, 80
1, 15240, Note_on_c, 0, 73, 0
1, 15240, Note_on_c, 0, 72, 80
1, 15300, Note_on_c, 0, 72, 0
1, 15300, Note_on_c, 0, 70, 80
1, 15360, Note_on_c, 0, 70, 0
1, 15360, Note_on_c, 0, 76, 0
1, 15360, Note_on_c, 0, 75, 80
1, 15360, Note_on_c, 1, 67, 0
1, 15360, Note_on_c, 1, 60, 0
1, 15360, Note_on_c, 1, 65, 80
1, 15360, Note_on_c, 1, 70, 80
1, 15420, Note_on_c, 0, 75, 0
1, 15420, Note_on_c, 0, 77, 78
1, 15480, Note_on_c, 0, 77, 0
1, 15480, Note_on_c, 0, 79, 77
1, 15540, Note_on_c, 0, 79, 0
1, 15540, Note_on_c, 0, 74, 75
1, 15600, Note_on_c, 0, 74, 0
1, 15600, Note_on_c, 0, 75, 74
1, 15600, Note_on_c, 1, 70, 0
1, 15600, Note_on_c, 1, 69, 74
1, 15660, Note_on_c, 0, 75, 0
1, 15660, Note_on_c, 0, 84, 72
1, 15720, Note_on_c, 0, 84, 0
1, 15720, Note_on_c, 0, 81, 71
1, 15780, Note_on_c, 0, 81, 0
1, 15780, Note_on_c, 0, 75, 69
1, 15840, Note_on_c, 0, 75, 0
1, 15840, Note_on_c, 0, 74, 68
1, 15840, Note_on_c, 1, 69, 0
1, 15840, Note_on_c, 1, 70, 68
1, 15900, Note_on_c, 0, 74, 0
1, 15900, Note_on_c, 0, 75, 66
1, 15960, Note_on_c, 0, 75, 0
1, 15960, Note_on_c, 0, 77, 65
1, 16020, Note_on_c, 0, 77, 0
1, 16020, Note_on_c, 0, 73, 63
1, 16080, Note_on_c, 0, 73, 0
1, 16080, Note_on_c, 0, 74, 62
1, 16140, Note_on_c, 0, 74, 0
1, 16140, Note_on_c, 0, 82, 60
1, 16200, Note_on_c, 0, 82, 0
1, 16200, Note_on_c, 0, 81, 59
1, 16260, Note_on_c, 0, 81, 0
1, 16260, Note_on_c, 0, 84, 57
1, 16320, Note_on_c, 0, 84, 0
1, 16320, Note_on_c, 0, 82, 56
1, 16320, Note_on_c, 1, 70, 0
1, 16320, Note_on_c, 1, 65, 0
1, 16320, Note_on_c, 1, 64, 56
1, 16320, Note_on_c, 1, 70, 56
1, 16380, Note_on_c, 0, 82, 0
1, 16380, Note_on_c, 0, 85, 56
1, 16440, Note_on_c, 0, 85, 0
1, 16440, Note_on_c, 0, 84, 56
1, 16500, Note_on_c, 0, 84, 0
1, 16500, Note_on_c, 0, 87, 56
1, 16560, Note_on_c, 0, 87, 0
1, 16560, Note_on_c, 0, 85, 56
1, 16620, Note_on_c, 0, 85, 0
1, 16680, Note_on_c, 0, 73, 56
1, 16740, Note_on_c, 0, 73, 0
1, 16800, Note_on_c, 0, 73, 56
1, 16800, Note_on_c, 1, 70, 0
1, 16800, Note_on_c, 1, 64, 0
1, 16800, Note_on_c, 1, 65, 56
1, 16800, Note_on_c, 1, 70, 56
1, 16830, Note_on_c, 0, 73, 0
1, 16830, Note_on_c, 0, 75, 56
1, 16860, Note_on_c, 0, 75, 0
1, 16860, Note_on_c, 0, 73, 56
1, 16880, Note_on_c, 0, 73, 0
1, 16880, Note_on_c, 0, 75, 56
1, 16900, Note_on_c, 0, 75, 0
1, 16900, Note_on_c, 0, 73, 56
1, 16920, Note_on_c, 0, 73, 0
1, 16920, Note_on_c, 0, 72, 56
1, 16920, Note_on_c, 1, 70, 0
1, 16920, Note_on_c, 1, 69, 56
1, 17040, Note_on_c, 0, 72, 0
1, 17040, Note_on_c, 1, 69, 0
1, 17040, Note_on_c, 1, 65, 0
1, 17220, Note_on_c, 0, 62, 80
1, 17250, Note_on_c, 0, 62, 0
1, 17250, Note_on_c, 0, 65, 80
1, 17280, Note_on_c, 0, 65, 0
1, 17280, Note_on_c, 0, 70, 80
1, 17280, Note_on_c, 1, 46, 80
1, 17280, Note_on_c, 1, 50, 80
1, 17280, Note_on_c, 1, 53, 80
1, 17280, Note_on_c, 1, 58, 80
1, 17364, Note_on_c, 1, 58, 0
1, 17364, Note_on_c, 1, 46, 0
1, 17364, Note_on_c, 1, 50, 0
1, 17364, Note_on_c, 1, 53, 0
1, 17460, Note_on_c, 0, 70, 0
1, 17460, Note_on_c, 0, 65, 80
1, 17490, Note_on_c, 0, 65, 0
1, 17490, Note_on_c, 0, 70, 80
1, 17520, Note_on_c, 0, 70, 0
1, 17520, Note_on_c, 0, 74, 80
1, 17520, Note_on_c, 1, 46, 80
1, 17520, Note_on_c, 1, 50, 80
1, 17520, Note_on_c, 1, 53, 80
1, 17520, Note_on_c, 1, 58, 80
1, 17604, Note_on_c, 1, 58, 0
1, 17604, Note_on_c, 1, 46, 0
1, 17604, Note_on_c, 1, 50, 0
1, 17604, Note_on_c, 1, 53, 0
1, 17700, Note_on_c, 0, 74, 0
1, 17700, Note_on_c, 0, 70, 80
1, 17730, Note_on_c, 0, 70, 0
1, 17730, Note_on_c, 0, 74, 80
1, 17760, Note_on_c, 0, 74, 0
1, 17760, Note_on_c, 0, 77, 80
1, 17760, Note_on_c, 1, 46, 80
1, 17760, Note_on_c, 1, 50, 80
1, 17760, Note_on_c, 1, 53, 80
1, 17760, Note_on_c, 1, 58, 80
1, 17820, Note_on_c, 0, 77, 0
1, 17820, Note_on_c, 1, 58, 0
1, 17820, Note_on_c, 1, 46, 0
1, 17820, Note_on_c, 1, 50, 0
1, 17820, Note_on_c, 1, 53, 0
1, 18120, Note_on_c, 0, 82, 56
1, 18200, Note_on_c, 0, 82, 0
1, 18200, Note_on_c, 0, 84, 56
1, 18220, Note_on_c, 0, 84, 0
1, 18220, Note_on_c, 0, 86, 56
1, 18240, Note_on_c, 0, 86, 0
1, 18240, Note_on_c, 0, 77, 56
1, 18240, Note_on_c, 1, 70, 56
1, 18240, Note_on_c, 1, 74, 56
1, 18300, Note_on_c, 0, 77, 0
1, 18300, Note_on_c, 1, 74, 0
1, 18300, Note_on_c, 1, 70, 0
1, 18360, Note_on_c, 0, 82, 56
1, 18440, Note_on_c, 0, 82, 0
1, 18440, Note_on_c, 0, 84, 56
1, 18460, Note_on_c, 0, 84, 0
1, 18460, Note_on_c, 0, 86, 56
1, 18480, Note_on_c, 0, 86, 0
1, 18480, Note_on_c, 0, 76, 56
1, 18480, Note_on_c, 1, 70, 56
1, 18480, Note_on_c, 1, 72, 56
1, 18540, Note_on_c, 0, 76, 0
1, 18540, Note_on_c, 1, 72, 0
1, 18540, Note_on_c, 1, 70, 0
1, 18600, Note_on_c, 0, 81, 56
1, 18680, Note_on_c, 0, 81, 0
1, 18680, Note_on_c, 0, 82, 56
1, 18700, Note_on_c, 0, 82, 0
1, 18700, Note_on_c, 0, 84, 56
1, 18720, Note_on_c, 0, 84, 0
1, 18720, Note_on_c, 0, 75, 56
1, 18720, Note_on_c, 1, 69, 56
1, 18720, Note_on_c, 1, 72, 56
1, 18840, Note_on_c, 1, 66, 56
1, 18960, Note_on_c, 1, 66, 0
1, 18960, Note_on_c, 1, 65, 56
1, 19080, Note_on_c, 0, 75, 0
1, 19080, Note_on_c, 0, 74, 56
1, 19080, Note_on_c, 1, 65, 0
1, 19080, Note_on_c, 1, 72, 0
1, 19080, Note_on_c, 1, 69, 0
1, 19080, Note_on_c, 1, 70, 56
1, 19200, Note_on_c, 0, 74, 0
1, 19200, Note_on_c, 0, 74, 56
1, 19200, Note_on_c, 1, 70, 0
1, 19200, Note_on_c, 1, 63, 56
1, 19200, Note_on_c, 1, 70, 56
1, 19290, Note_on_c, 0, 74, 0
1, 19290, Note_on_c, 0, 72, 56
1, 19320, Note_on_c, 0, 72, 0
1, 19320, Note_on_c, 0, 75, 56
1, 19410, Note_on_c, 0, 75, 0
1, 19410, Note_on_c, 0, 79, 56
1, 19440, Tempo, 857143
1, 19440, Note_on_c, 0, 79, 0
1, 19440, Note_on_c, 0, 77, 56
1, 19440, Note_on_c, 1, 70, 0
1, 19440, Note_on_c, 1, 63, 0
1, 19440, Note_on_c, 1, 65, 56
1, 19440, Note_on_c, 1, 69, 56
1, 19560, Note_on_c, 0, 77, 0
1, 19560, Note_on_c, 0, 72, 56
1, 19560, Note_on_c, 0, 75, 56
1, 19560, Note_on_c, 1, 69, 0
1, 19560, Note_on_c, 1, 65, 0
1, 19560, Note_on_c, 1, 66, 56
1, 19620, Note_on_c, 0, 75, 0
1, 19620, Note_on_c, 0, 72, 0
1, 19620, Note_on_c, 0, 74, 56
1, 19640, Note_on_c, 0, 74, 0
1, 19640, Note_on_c, 0, 75, 56
1, 19660, Note_on_c, 0, 75, 0
1, 19660, Note_on_c, 0, 77, 56
1, 19680, Tempo, 1000000
1, 19680, Note_on_c, 0, 77, 0
1, 19680, Note_on_c, 0, 72, 56
1, 19680, Note_on_c, 0, 75, 56
1, 19680, Note_on_c, 1, 66, 0
1, 19680, Note_on_c, 1, 67, 56
1, 19920, Tempo, 1200000
1, 19920, Note_on_c, 0, 75, 0
1, 19920, Note_on_c, 0, 72, 0
1, 19920, Note_on_c, 0, 70, 48
1, 19920, Note_on_c, 0, 74, 48
1, 19980, Note_on_c, 0, 74, 0
1, 19980, Note_on_c, 0, 70, 0
1, 19980, Note_on_c, 1, 67, 0
1, 20160, Tempo, 750000
1, 20520, Note_on_c, 0, 82, 56
1, 20600, Note_on_c, 0, 82, 0
1, 20600, Note_on_c, 0, 84, 56
1, 20620, Note_on_c, 0, 84, 0
1, 20620, Note_on_c, 0, 86, 56
1, 20640, Note_on_c, 0, 86, 0
1, 20640, Note_on_c, 0, 77, 56
1, 20640, Note_on_c, 1, 70, 56
1, 20640, Note_on_c, 1, 74, 56
1, 20700, Note_on_c, 0, 77, 0
1, 20700, Note_on_c, 1, 74, 0
1, 20700, Note_on_c, 1, 70, 0
1, 20760, Note_on_c, 0, 82, 56
1, 20840, Note_on_c, 0, 82, 0
1, 20840, Note_on_c, 0, 84, 56
1, 20860, Note_on_c, 0, 84, 0
1, 20860, Note_on_c, 0, 86, 56
1, 20880, Note_on_c, 0, 86, 0
1, 20880, Note_on_c, 0, 76, 56
1, 20880, Note_on_c, 1, 70, 56
1, 20880, Note_on_c, 1, 72, 56
1, 20940, Note_on_c, 0, 76, 0
1, 20940, Note_on_c, 1, 72, 0
1, 20940, Note_on_c, 1, 70, 0
1, 21000, Note_on_c, 0, 81, 56
1, 21080, Note_on_c, 0, 81, 0
1, 21080, Note_on_c, 0, 82, 56
1, 21100, Note_on_c, 0, 82, 0
1, 21100, Note_on_c, 0, 84, 56
1, 21120, Note_on_c, 0, 84, 0
1, 21120, Note_on_c, 0, 75, 56
1, 21120, Note_on_c, 1, 69, 56
1, 21120, Note_on_c, 1, 72, 56
1, 21240, Note_on_c, 1, 66, 56
1, 21360, Note_on_c, 1, 66, 0
1, 21360, Note_on_c, 1, 65, 56
1, 21480, Note_on_c, 0, 75, 0
1, 21480, Note_on_c, 0, 74, 56
1, 21480, Note_on_c, 1, 65, 0
1, 21480, Note_on_c, 1, 72, 0
1, 21480, Note_on_c, 1, 69, 0
1, 21480, Note_on_c, 1, 70, 56
1, 21600, Note_on_c, 0, 74, 0
1, 21600, Note_on_c, 0, 79, 56
1, 21600, Note_on_c, 1, 63, 56
1, 21720, Note_on_c, 1, 70, 0
1, 21720, Note_on_c, 1, 71, 56
1, 21840, Note_on_c, 1, 71, 0
1, 21840, Note_on_c, 1, 72, 56
1, 21960, Note_on_c, 0, 79, 0
1, 21960, Note_on_c, 0, 84, 56
1, 22080, Note_on_c, 0, 84, 0
1, 22080, Note_on_c, 0, 82, 56
1, 22080, Note_on_c, 1, 63, 0
1, 22080, Note_on_c, 1, 65, 56
1, 22200, Note_on_c, 1, 72, 0
1, 22200, Note_on_c, 1, 72, 56
1, 22320, Note_on_c, 1, 75, 56
1, 22440, Note_on_c, 0, 82, 0
1, 22440, Note_on_c, 0, 81, 48
1, 22470, Note_on_c, 0, 81, 0
1, 22470, Note_on_c, 0, 82, 48
1, 22500, Note_on_c, 0, 82, 0
1, 22500, Note_on_c, 0, 84, 48
1, 22530, Note_on_c, 0, 84, 0
1, 22530, Note_on_c, 0, 86, 48
1, 22560, Note_on_c, 0, 86, 0
1, 22560, Note_on_c, 0, 87, 48
1, 22608, Note_on_c, 0, 87, 0
1, 22680, Note_on_c, 0, 87, 40
1, 22710, Note_on_c, 0, 87, 0
1, 22710, Note_on_c, 0, 86, 40
1, 22740, Note_on_c, 0, 86, 0
1, 22740, Note_on_c, 0, 84, 40
1, 22770, Note_on_c, 0, 84, 0
1, 22770, Note_on_c, 0, 82, 40
1, 22800, Note_on_c, 0, 82, 0
1, 22800, Note_on_c, 0, 81, 40
1, 22860, Note_on_c, 0, 81, 0
1, 22920, Note_on_c, 0, 81, 32
1, 22950, Note_on_c, 0, 81, 0
1, 22950, Note_on_c, 0, 82, 32
1, 22980, Note_on_c, 0, 82, 0
1, 22980, Note_on_c, 0, 84, 32
1, 23010, Note_on_c, 0, 84, 0
1, 23010, Note_on_c, 0, 86, 32
1, 23040, Note_on_c, 0, 86, 0
1, 23040, Note_on_c, 0, 87, 32
1, 23160, Note_on_c, 0, 87, 0
1, 23160, Note_on_c, 1, 75, 0
1, 23160, Note_on_c, 1, 72, 0
1, 23160, Note_on_c, 1, 65, 0
1, 23520, Note_on_c, 0, 86, 80
1, 23520, Note_on_c, 1, 58, 80
1, 23520, Note_on_c, 1, 53, 80
1, 23520, Note_on_c, 1, 50, 80
1, 23520, Note_on_c, 1, 46, 80
1, 23550, Note_on_c, 0, 86, 0
1, 23550, Note_on_c, 0, 84, 80
1, 23580, Note_on_c, 0, 84, 0
1, 23580, Note_on_c, 0, 82, 80
1, 23610, Note_on_c, 0, 82, 0
1, 23610, Note_on_c, 0, 81, 80
1, 23640, Note_on_c, 0, 81, 0
1, 23640, Note_on_c, 0, 82, 80
1, 23670, Note_on_c, 0, 82, 0
1, 23670, Note_on_c, 0, 81, 80
1, 23700, Note_on_c, 0, 81, 0
1, 23700, Note_on_c, 0, 79, 80
1, 23730, Note_on_c, 0, 79, 0
1, 23730, Note_on_c, 0, 77, 80
1, 23760, Note_on_c, 0, 77, 0
1, 23760, Note_on_c, 0, 75, 80
1, 23760, Note_on_c, 1, 46, 0
1, 23760, Note_on_c, 1, 58, 0
1, 23760, Note_on_c, 1, 53, 0
1, 23760, Note_on_c, 1, 50, 0
1, 23790, Note_on_c, 0, 75, 0
1, 23790, Note_on_c, 0, 74, 80
1, 23820, Note_on_c, 0, 74, 0
1, 23820, Note_on_c, 0, 72, 80
1, 23850, Note_on_c, 0, 72, 0
1, 23850, Note_on_c, 0, 70, 80
1, 23880, Note_on_c, 0, 70, 0
1, 23880, Note_on_c, 0, 69, 80
1, 23910, Note_on_c, 0, 69, 0
1, 23910, Note_on_c, 0, 70, 80
1, 23940, Note_on_c, 0, 70, 0
1, 23940, Note_on_c, 0, 69, 80
1, 23970, Note_on_c, 0, 69, 0
1, 23970, Note_on_c, 0, 70, 80
1, 24000, Note_on_c, 0, 70, 0
1, 24000, Note_on_c, 0, 86, 80
1, 24000, Note_on_c, 1, 43, 80
1, 24000, Note_on_c, 1, 46, 80
1, 24000, Note_on_c, 1, 50, 80
1, 24000, Note_on_c, 1, 55, 80
1, 24030, Note_on_c, 0, 86, 0
1, 24030, Note_on_c, 0, 84, 80
1, 24060, Note_on_c, 0, 84, 0
1, 24060, Note_on_c, 0, 82, 80
1, 24090, Note_on_c, 0, 82, 0
1, 24090, Note_on_c, 0, 81, 80
1, 24120, Note_on_c, 0, 81, 0
1, 24120, Note_on_c, 0, 82, 80
1, 24150, Note_on_c, 0, 82, 0
1, 24150, Note_on_c, 0, 81, 80
1, 24180, Note_on_c, 0, 81, 0
1, 24180, Note_on_c, 0, 79, 80
1, 24210, Note_on_c, 0, 79, 0
1, 24210, Note_on_c, 0, 77, 80
1, 24240, Note_on_c, 0, 77, 0
1, 24240, Note_on_c, 0, 75, 80
1, 24240, Note_on_c, 1, 55, 0
1, 24240, Note_on_c, 1, 43, 0
1, 24240, Note_on_c, 1, 46, 0
1, 24240, Note_on_c, 1, 50, 0
1, 24270, Note_on_c, 0, 75, 0
1, 24270, Note_on_c, 0, 74, 80
1, 24300, Note_on_c, 0, 74, 0
1, 24300, Note_on_c, 0, 72, 80
1, 24330, Note_on_c, 0, 72, 0
1, 24330, Note_on_c, 0, 70, 80
1, 24360, Note_on_c, 0, 70, 0
1, 24360, Note_on_c, 0, 69, 80
1, 24390, Note_on_c, 0, 69, 0
1, 24390, Note_on_c, 0, 70, 80
1, 24420, Note_on_c, 0, 70, 0
1, 24420, Note_on_c, 0, 69, 80
1, 24450, Note_on_c, 0, 69, 0
1, 24450, Note_on_c, 0, 70, 80
1, 24480, Note_on_c, 0, 70, 0
1, 24480, Note_on_c, 0, 79, 80
1, 24480, Note_on_c, 1, 39, 80
1, 24480, Note_on_c, 1, 43, 80
1, 24480, Note_on_c, 1, 46, 80
1, 24480, Note_on_c, 1, 51, 80
1, 24510, Note_on_c, 0, 79, 0
1, 24510, Note_on_c, 0, 77, 80
1, 24540, Note_on_c, 0, 77, 0
1, 24540, Note_on_c, 0, 75, 80
1, 24570, Note_on_c, 0, 75, 0
1, 24570, Note_on_c, 0, 74, 80
1, 24600, Note_on_c, 0, 74, 0
1, 24600, Note_on_c, 0, 75, 80
1, 24630, Note_on_c, 0, 75, 0
1, 24630, Note_on_c, 0, 74, 80
1, 24660, Note_on_c, 0, 74, 0
1, 24660, Note_on_c, 0, 72, 80
1, 24690, Note_on_c, 0, 72, 0
1, 24690, Note_on_c, 0, 71, 80
1, 24720, Note_on_c, 0, 71, 0
1, 24720, Note_on_c, 0, 72, 80
1, 24720, Note_on_c, 1, 51, 0
1, 24720, Note_on_c, 1, 39, 0
1, 24720, Note_on_c, 1, 43, 0
1, 24720, Note_on_c, 1, 46, 0
1, 24750, Note_on_c, 0, 72, 0
1, 24750, Note_on_c, 0, 74, 80
1, 24780, Note_on_c, 0, 74, 0
1, 24780, Note_on_c, 0, 75, 80
1, 24810, Note_on_c, 0, 75, 0
1, 24810, Note_on_c, 0, 74, 80
1, 24840, Note_on_c, 0, 74, 0
1, 24840, Note_on_c, 0, 72, 80
1, 24870, Note_on_c, 0, 72, 0
1, 24870, Note_on_c, 0, 70, 80
1, 24900, Note_on_c, 0, 70, 0
1, 24900, Note_on_c, 0, 69, 80
1, 24930, Note_on_c, 0, 69, 0
1, 24930, Note_on_c, 0, 67, 80
1, 24960, Note_on_c, 0, 67, 0
1, 24960, Note_on_c, 0, 65, 80
1, 24960, Note_on_c, 1, 62, 80
1, 24960, Note_on_c, 1, 58, 80
1, 24960, Note_on_c, 1, 53, 80
1, 24984, Note_on_c, 0, 65, 0
1, 25020, Note_on_c, 0, 82, 80
1, 25044, Note_on_c, 0, 82, 0
1, 25080, Note_on_c, 0, 82, 80
1, 25104, Note_on_c, 0, 82, 0
1, 25140, Note_on_c, 0, 82, 80
1, 25164, Note_on_c, 0, 82, 0
1, 25200, Note_on_c, 0, 82, 80
1, 25200, Note_on_c, 1, 53, 0
1, 25200, Note_on_c, 1, 58, 0
1, 25200, Note_on_c, 1, 62, 0
1, 25230, Note_on_c, 0, 82, 0
1, 25230, Note_on_c, 0, 84, 80
1, 25260, Note_on_c, 0, 84, 0
1, 25260, Note_on_c, 0, 86, 80
1, 25290, Note_on_c, 0, 86, 0
1, 25290, Note_on_c, 0, 87, 80
1, 25320, Note_on_c, 0, 87, 0
1, 25320, Note_on_c, 0, 89, 80
1, 25356, Note_on_c, 0, 89, 0
1, 25440, Note_on_c, 0, 79, 80
1, 25440, Note_on_c, 1, 65, 80
1, 25440, Note_on_c, 1, 70, 80
1, 25500, Note_on_c, 0, 79, 0
1, 25500, Note_on_c, 0, 81, 80
1, 25500, Note_on_c, 1, 70, 0
1, 25500, Note_on_c, 1, 72, 80
1, 25530, Note_on_c, 0, 81, 0
1, 25530, Note_on_c, 0, 82, 80
1, 25530, Note_on_c, 1, 72, 0
1, 25530, Note_on_c, 1, 74, 80
1, 25560, Note_on_c, 0, 82, 0
1, 25560, Note_on_c, 0, 81, 80
1, 25560, Note_on_c, 1, 74, 0
1, 25560, Note_on_c, 1, 72, 80
1, 25590, Note_on_c, 0, 81, 0
1, 25590, Note_on_c, 0, 82, 80
1, 25590, Note_on_c, 1, 72, 0
1, 25590, Note_on_c, 1, 74, 80
1, 25620, Note_on_c, 0, 82, 0
1, 25620, Note_on_c, 0, 81, 80
1, 25620, Note_on_c, 1, 74, 0
1, 25620, Note_on_c, 1, 72, 80
1, 25650, Note_on_c, 0, 81, 0
1, 25650, Note_on_c, 0, 82, 80
1, 25650, Note_on_c, 1, 72, 0
1, 25650, Note_on_c, 1, 74, 80
1, 25680, Note_on_c, 0, 82, 0
1, 25680, Note_on_c, 0, 81, 80
1, 25680, Note_on_c, 1, 74, 0
1, 25680, Note_on_c, 1, 72, 80
1, 25710, Note_on_c, 0, 81, 0
1, 25710, Note_on_c, 0, 82, 80
1, 25710, Note_on_c, 1, 72, 0
1, 25710, Note_on_c, 1, 74, 80
1, 25740, Note_on_c, 0, 82, 0
1, 25740, Note_on_c, 0, 81, 80
1, 25740, Note_on_c, 1, 74, 0
1, 25740, Note_on_c, 1, 72, 80
1, 25760, Note_on_c, 0, 81, 0
1, 25760, Note_on_c, 0, 82, 80
1, 25760, Note_on_c, 1, 72, 0
1, 25760, Note_on_c, 1, 74, 80
1, 25780, Note_on_c, 0, 82, 0
1, 25780, Note_on_c, 0, 81, 80
1, 25780, Note_on_c, 1, 74, 0
1, 25780, Note_on_c, 1, 72, 80
1, 25800, Note_on_c, 0, 81, 0
1, 25800, Note_on_c, 0, 79, 80
1, 25800, Note_on_c, 1, 72, 0
1, 25800, Note_on_c, 1, 70, 80
1, 25860, Note_on_c, 0, 79, 0
1, 25860, Note_on_c, 0, 81, 80
1, 25860, Note_on_c, 1, 70, 0
1, 25860, Note_on_c, 1, 72, 80
1, 25920, Note_on_c, 0, 81, 0
1, 25920, Note_on_c, 0, 82, 80
1, 25920, Note_on_c, 1, 72, 0
1, 25920, Note_on_c, 1, 65, 0
1, 25920, Note_on_c, 1, 70, 80
1, 25920, Note_on_c, 1, 74, 80
1, 26028, Note_on_c, 0, 82, 0
1, 26028, Note_on_c, 1, 74, 0
1, 26028, Note_on_c, 1, 70, 0
1, 26040, Note_on_c, 0, 70, 80
1, 26040, Note_on_c, 0, 74, 80
1, 26040, Note_on_c, 0, 77, 80
1, 26040, Note_on_c, 1, 50, 80
1, 26040, Note_on_c, 1, 53, 80
1, 26040, Note_on_c, 1, 58, 80
1, 26100, Note_on_c, 0, 77, 0
1, 26100, Note_on_c, 0, 74, 0
1, 26100, Note_on_c, 0, 70, 0
1, 26100, Note_on_c, 1, 58, 0
1, 26100, Note_on_c, 1, 53, 0
1, 26100, Note_on_c, 1, 50, 0
1, 26160, Note_on_c, 0, 79, 80
1, 26160, Note_on_c, 0, 75, 80
1, 26160, Note_on_c, 0, 70, 80
1, 26160, Note_on_c, 1, 58, 80
1, 26160, Note_on_c, 1, 55, 80
1, 26160, Note_on_c, 1, 51, 80
1, 26220, Note_on_c, 0, 70, 0
1, 26220, Note_on_c, 0, 75, 0
1, 26220, Note_on_c, 0, 79, 0
1, 26220, Note_on_c, 1, 51, 0
1, 26220, Note_on_c, 1, 55, 0
1, 26220, Note_on_c, 1, 58, 0
1, 26280, Note_on_c, 0, 77, 80
1, 26280, Note_on_c, 1, 69, 80
1, 26310, Note_on_c, 0, 77, 0
1, 26310, Note_on_c, 0, 75, 80
1, 26340, Note_on_c, 0, 75, 0
1, 26340, Note_on_c, 0, 74, 80
1, 26370, Note_on_c, 0, 74, 0
1, 26370, Note_on_c, 0, 75, 80
1, 26400, Note_on_c, 0, 75, 0
1, 26400, Note_on_c, 0, 74, 80
1, 26400, Note_on_c, 1, 69, 0
1, 26400, Note_on_c, 1, 70, 80
1, 26508, Note_on_c, 0, 74, 0
1, 26508, Note_on_c, 1, 70, 0
1, 26520, Note_on_c, 0, 74, 80
1, 26520, Note_on_c, 0, 77, 80
1, 26520, Note_on_c, 0, 82, 80
1, 26520, Note_on_c, 1, 50, 80
1, 26520, Note_on_c, 1, 53, 80
1, 26520, Note_on_c, 1, 58, 80
1, 26580, Note_on_c, 0, 82, 0
1, 26580, Note_on_c, 0, 77, 0
1, 26580, Note_on_c, 0, 74, 0
1, 26580, Note_on_c, 1, 58, 0
1, 26580, Note_on_c, 1, 53, 0
1, 26580, Note_on_c, 1, 50, 0
1, 26640, Note_on_c, 0, 70, 80
1, 26640, Note_on_c, 0, 75, 80
1, 26640, Note_on_c, 0, 79, 80
1, 26640, Note_on_c, 1, 51, 80
1, 26640, Note_on_c, 1, 55, 80
1, 26640, Note_on_c, 1, 58, 80
1, 26700, Note_on_c, 0, 79, 0
1, 26700, Note_on_c, 0, 75, 0
1, 26700, Note_on_c, 0, 70, 0
1, 26700, Note_on_c, 1, 58, 0
1, 26700, Note_on_c, 1, 55, 0
1, 26700, Note_on_c, 1, 51, 0
1, 26760, Note_on_c, 0, 60, 80
1, 26760, Note_on_c, 0, 63, 80
1, 26760, Note_on_c, 0, 65, 80
1, 26760, Note_on_c, 0, 69, 80
1, 26760, Note_on_c, 1, 53, 80
1, 26760, Note_on_c, 1, 57, 80
1, 26820, Note_on_c, 0, 69, 0
1, 26820, Note_on_c, 0, 60, 0
1, 26820, Note_on_c, 0, 63, 0
1, 26820, Note_on_c, 0, 65, 0
1, 26820, Note_on_c, 1, 57, 0
1, 26820, Note_on_c, 1, 53, 0
1, 26880, Note_on_c, 0, 70, 80
1, 26880, Note_on_c, 0, 62, 80
1, 26880, Note_on_c, 0, 65, 80
1, 26880, Note_on_c, 1, 46, 80
1, 26880, Note_on_c, 1, 50, 80
1, 26880, Note_on_c, 1, 53, 80
1, 26880, Note_on_c, 1, 58, 80
1, 27048, Note_on_c, 0, 65, 0
1, 27048, Note_on_c, 0, 62, 0
1, 27048, Note_on_c, 0, 70, 0
1, 27048, Note_on_c, 1, 58, 0
1, 27048, Note_on_c, 1, 46, 0
1, 27048, Note_on_c, 1, 50, 0
1, 27048, Note_on_c, 1, 53, 0
1, 27330, Note_on_c, 0, 66, 80
1, 27360, Note_on_c, 0, 66, 0
1, 27360, Note_on_c, 0, 67, 88
1, 27468, Note_on_c, 0, 67, 0
1, 27480, Note_on_c, 0, 55, 80
1, 27480, Note_on_c, 1, 48, 80
1, 27480, Note_on_c, 1, 51, 80
1, 27540, Note_on_c, 0, 55, 0
1, 27540, Note_on_c, 1, 51, 0
1, 27540, Note_on_c, 1, 48, 0
1, 27600, Note_on_c, 0, 55, 80
1, 27600, Note_on_c, 1, 47, 80
1, 27600, Note_on_c, 1, 50, 80
1, 27720, Note_on_c, 0, 55, 0
1, 27720, Note_on_c, 0, 55, 80
1, 27720, Note_on_c, 1, 50, 0
1, 27720, Note_on_c, 1, 47, 0
1, 27720, Note_on_c, 1, 45, 80
1, 27720, Note_on_c, 1, 48, 80
1, 27840, Note_on_c, 0, 55, 0
1, 27840, Note_on_c, 0, 55, 80
1, 27840, Note_on_c, 1, 48, 0
1, 27840, Note_on_c, 1, 45, 0
1, 27840, Note_on_c, 1, 43, 80
1, 27840, Note_on_c, 1, 47, 80
1, 27900, Note_on_c, 0, 55, 0
1, 27900, Note_on_c, 1, 47, 0
1, 27900, Note_on_c, 1, 43, 0
1, 27960, Note_on_c, 0, 55, 80
1, 27960, Note_on_c, 1, 48, 80
1, 27960, Note_on_c, 1, 51, 80
1, 28020, Note_on_c, 1, 51, 0
1, 28020, Note_on_c, 1, 48, 0
1, 28050, Note_on_c, 0, 55, 0
1, 28050, Note_on_c, 0, 55, 80
1, 28080, Note_on_c, 0, 55, 0
1, 28080, Note_on_c, 0, 55, 80
1, 28080, Note_on_c, 1, 47, 80
1, 28080, Note_on_c, 1, 50, 80
1, 28170, Note_on_c, 0, 55, 0
1, 28170, Note_on_c, 0, 55, 80
1, 28200, Note_on_c, 0, 55, 0
1, 28200, Note_on_c, 0, 55, 80
1, 28200, Note_on_c, 1, 50, 0
1, 28200, Note_on_c, 1, 47, 0
1, 28200, Note_on_c, 1, 45, 80
1, 28200, Note_on_c, 1, 48, 80
1, 28290, Note_on_c, 0, 55, 0
1, 28290, Note_on_c, 0, 55, 80
1, 28320, Note_on_c, 0, 55, 0
1, 28320, Note_on_c, 0, 55, 80
1, 28320, Note_on_c, 1, 48, 0
1, 28320, Note_on_c, 1, 45, 0
1, 28320, Note_on_c, 1, 43, 80
1, 28320, Note_on_c, 1, 47, 80
1, 28380, Note_on_c, 0, 55, 0
1, 28380, Note_on_c, 1, 47, 0
1, 28380, Note_on_c, 1, 43, 0
1, 28440, Note_on_c, 0, 54, 80
1, 28440, Note_on_c, 1, 48, 80
1, 28440, Note_on_c, 1, 51, 80
1, 28470, Note_on_c, 0, 54, 0
1, 28470, Note_on_c, 0, 55, 80
1, 28500, Note_on_c, 0, 55, 0
1, 28500, Note_on_c, 0, 57, 80
1, 28530, Note_on_c, 0, 57, 0
1, 28530, Note_on_c, 0, 55, 80
1, 28560, Note_on_c, 0, 55, 0
1, 28560, Note_on_c, 0, 54, 80
1, 28560, Note_on_c, 1, 51, 0
1, 28560, Note_on_c, 1, 48, 0
1, 28560, Note_on_c, 1, 47, 80
1, 28560, Note_on_c, 1, 50, 80
1, 28590, Note_on_c, 0, 54, 0
1, 28590, Note_on_c, 0, 55, 80
1, 28620, Note_on_c, 0, 55, 0
1, 28620, Note_on_c, 0, 57, 80
1, 28650, Note_on_c, 0, 57, 0
1, 28650, Note_on_c, 0, 55, 80
1, 28680, Note_on_c, 0, 55, 0
1, 28680, Note_on_c, 0, 54, 80
1, 28680, Note_on_c, 1, 50, 0
1, 28680, Note_on_c, 1, 47, 0
1, 28680, Note_on_c, 1, 45, 80
1, 28680, Note_on_c, 1, 48, 80
1, 28710, Note_on_c, 0, 54, 0
1, 28710, Note_on_c, 0, 55, 80
1, 28740, Note_on_c, 0, 55, 0
1, 28740, Note_on_c, 0, 57, 80
1, 28770, Note_on_c, 0, 57, 0
1, 28770, Note_on_c, 0, 55, 80
1, 28800, Note_on_c, 0, 55, 0
1, 28800, Note_on_c, 0, 54, 78
1, 28800, Note_on_c, 1, 48, 0
1, 28800, Note_on_c, 1, 45, 0
1, 28800, Note_on_c, 1, 43, 78
1, 28800, Note_on_c, 1, 47, 78
1, 28830, Note_on_c, 0, 54, 0
1, 28830, Note_on_c, 0, 55, 77
1, 28860, Note_on_c, 0, 55, 0
1, 28860, Note_on_c, 0, 57, 75
1, 28890, Note_on_c, 0, 57, 0
1, 28890, Note_on_c, 0, 59, 74
1, 28920, Note_on_c, 0, 59, 0
1, 28920, Note_on_c, 0, 60, 72
1, 28920, Note_on_c, 1, 47, 0
1, 28920, Note_on_c, 1, 43, 0
1, 28950, Note_on_c, 0, 60, 0
1, 28950, Note_on_c, 0, 62, 71
1, 28980, Note_on_c, 0, 62, 0
1, 28980, Note_on_c, 0, 64, 70
1, 29010, Note_on_c, 0, 64, 0
1, 29010, Note_on_c, 0, 66, 68
1, 29040, Note_on_c, 0, 66, 0
1, 29040, Note_on_c, 0, 67, 67
1, 29040, Note_on_c, 1, 55, 67
1, 29088, Note_on_c, 0, 67, 0
1, 29088, Note_on_c, 1, 55, 0
1, 29100, Note_on_c, 0, 69, 64
1, 29100, Note_on_c, 1, 57, 64
1, 29130, Note_on_c, 0, 69, 0
1, 29130, Note_on_c, 0, 71, 63
1, 29130, Note_on_c, 1, 57, 0
1, 29130, Note_on_c, 1, 59, 63
1, 29160, Note_on_c, 0, 71, 0
1, 29160, Note_on_c, 0, 72, 61
1, 29160, Note_on_c, 1, 59, 0
1, 29160, Note_on_c, 1, 60, 61
1, 29190, Note_on_c, 0, 72, 0
1, 29190, Note_on_c, 0, 74, 60
1, 29190, Note_on_c, 1, 60, 0
1, 29190, Note_on_c, 1, 62, 60
1, 29220, Note_on_c, 0, 74, 0
1, 29220, Note_on_c, 0, 76, 59
1, 29220, Note_on_c, 1, 62, 0
1, 29220, Note_on_c, 1, 64, 59
1, 29250, Note_on_c, 0, 76, 0
1, 29250, Note_on_c, 0, 78, 57
1, 29250, Note_on_c, 1, 64, 0
1, 29250, Note_on_c, 1, 66, 57
1, 29280, Note_on_c, 0, 78, 0
1, 29280, Note_on_c, 0, 79, 56
1, 29280, Note_on_c, 1, 66, 0
1, 29280, Note_on_c, 1, 67, 56
1, 29328, Note_on_c, 0, 79, 0
1, 29328, Note_on_c, 1, 67, 0
1, 29400, Note_on_c, 0, 79, 56
1, 29400, Note_on_c, 1, 67, 56
1, 29484, Note_on_c, 0, 79, 0
1, 29484, Note_on_c, 1, 67, 0
1, 29520, Tempo, 800000
1, 29520, Note_on_c, 0, 79, 56
1, 29520, Note_on_c, 1, 67, 56
1, 29604, Note_on_c, 0, 79, 0
1, 29604, Note_on_c, 1, 67, 0
1, 29640, Note_on_c, 0, 79, 56
1, 29640, Note_on_c, 1, 67, 56
1, 29724, Note_on_c, 0, 79, 0
1, 29724, Note_on_c, 1, 67, 0
1, 29760, Tempo, 857143
1, 29760, Note_on_c, 0, 79, 56
1, 29760, Note_on_c, 1, 67, 56
1, 30000, Tempo, 923077
1, 30144, Note_on_c, 0, 79, 0
1, 30144, Note_on_c, 1, 67, 0
1, 30240, Tempo, 750000
1, 30240, Note_on_c, 0, 68, 80
1, 30240, Note_on_c, 0, 80, 80
1, 30360, Note_on_c, 1, 56, 80
1, 30360, Note_on_c, 1, 60, 80
1, 30408, Note_on_c, 1, 60, 0
1, 30408, Note_on_c, 1, 56, 0
1, 30480, Note_on_c, 0, 80, 0
1, 30480, Note_on_c, 0, 68, 0
1, 30480, Note_on_c, 0, 75, 80
1, 30480, Note_on_c, 1, 55, 80
1, 30480, Note_on_c, 1, 58, 80
1, 30600, Note_on_c, 1, 58, 0
1, 30600, Note_on_c, 1, 55, 0
1, 30600, Note_on_c, 1, 51, 80
1, 30600, Note_on_c, 1, 55, 80
1, 30660, Note_on_c, 0, 75, 0
1, 30660, Note_on_c, 0, 73, 80
1, 30720, Note_on_c, 0, 73, 0
1, 30720, Note_on_c, 0, 73, 80
1, 30720, Note_on_c, 1, 55, 0
1, 30720, Note_on_c, 1, 51, 0
1, 30840, Note_on_c, 1, 56, 80
1, 30888, Note_on_c, 1, 56, 0
1, 30960, Note_on_c, 0, 73, 0
1, 30960, Note_on_c, 0, 72, 80
1, 30960, Note_on_c, 1, 60, 80
1, 30990, Note_on_c, 0, 72, 0
1, 30990, Note_on_c, 0, 73, 80
1, 31020, Note_on_c, 0, 73, 0
1, 31020, Note_on_c, 0, 72, 80
1, 31040, Note_on_c, 0, 72, 0
1, 31040, Note_on_c, 0, 73, 80
1, 31060, Note_on_c, 0, 73, 0
1, 31060, Note_on_c, 0, 72, 80
1, 31080, Note_on_c, 0, 72, 0
1, 31080, Note_on_c, 0, 70, 80
1, 31080, Note_on_c, 1, 60, 0
1, 31080, Note_on_c, 1, 63, 80
1, 31200, Note_on_c, 0, 70, 0
1, 31200, Note_on_c, 0, 68, 80
1, 31200, Note_on_c, 1, 63, 0
1, 31200, Note_on_c, 1, 65, 80
1, 31320, Note_on_c, 0, 68, 0
1, 31320, Note_on_c, 0, 73, 88
1, 31380, Note_on_c, 0, 73, 0
1, 31440, Note_on_c, 0, 70, 80
1, 31440, Note_on_c, 1, 65, 0
1, 31440, Note_on_c, 1, 67, 80
1, 31560, Note_on_c, 0, 70, 0
1, 31560, Note_on_c, 0, 75, 88
1, 31620, Note_on_c, 0, 75, 0
1, 31680, Note_on_c, 0, 73, 80
1, 31680, Note_on_c, 1, 67, 0
1, 31800, Note_on_c, 1, 68, 80
1, 31848, Note_on_c, 1, 68, 0
1, 31920, Note_on_c, 0, 73, 0
1, 31920, Note_on_c, 0, 72, 80
1, 31920, Note_on_c, 1, 56, 80
1, 31950, Note_on_c, 0, 72, 0
1, 31950, Note_on_c, 0, 73, 80
1, 31980, Note_on_c, 0, 73, 0
1, 31980, Note_on_c, 0, 72, 80
1, 32000, Note_on_c, 0, 72, 0
1, 32000, Note_on_c, 0, 73, 80
1, 32020, Note_on_c, 0, 73, 0
1, 32020, Note_on_c, 0, 72, 80
1, 32040, Note_on_c, 0, 72, 0
1, 32040, Note_on_c, 0, 70, 80
1, 32040, Note_on_c, 1, 56, 0
1, 32040, Note_on_c, 1, 63, 80
1, 32160, Note_on_c, 0, 70, 0
1, 32160, Note_on_c, 0, 68, 80
1, 32160, Note_on_c, 1, 63, 0
1, 32160, Note_on_c, 1, 65, 80
1, 32220, Note_on_c, 0, 68, 0
1, 32220, Note_on_c, 0, 75, 80
1, 32250, Note_on_c, 0, 75, 0
1, 32280, Note_on_c, 0, 73, 80
1, 32310, Note_on_c, 0, 73, 0
1, 32340, Note_on_c, 0, 72, 80
1, 32370, Note_on_c, 0, 72, 0
1, 32400, Note_on_c, 0, 70, 80
1, 32400, Note_on_c, 1, 65, 0
1, 32400, Note_on_c, 1, 67, 80
1, 32460, Note_on_c, 0, 70, 0
1, 32460, Note_on_c, 0, 77, 80
1, 32520, Note_on_c, 0, 77, 0
1, 32520, Note_on_c, 0, 75, 80
1, 32580, Note_on_c, 0, 75, 0
1, 32580, Note_on_c, 0, 73, 80
1, 32610, Note_on_c, 0, 73, 0
1, 32610, Note_on_c, 0, 72, 80
1, 32625, Note_on_c, 0, 72, 0
1, 32625, Note_on_c, 0, 75, 80
1, 32640, Note_on_c, 0, 75, 0
1, 32640, Note_on_c, 0, 73, 80
1, 32640, Note_on_c, 1, 67, 0
1, 32760, Note_on_c, 1, 56, 80
1, 32820, Note_on_c, 1, 56, 0
1, 32880, Note_on_c, 0, 73, 0
1, 32880, Note_on_c, 0, 72, 80
1, 32880, Note_on_c, 1, 68, 80
1, 33000, Note_on_c, 0, 72, 0
1, 33000, Note_on_c, 0, 70, 80
1, 33000, Note_on_c, 1, 68, 0
1, 33000, Note_on_c, 1, 66, 80
1, 33120, Note_on_c, 0, 70, 0
1, 33120, Note_on_c, 0, 69, 80
1, 33120, Note_on_c, 1, 66, 0
1, 33120, Note_on_c, 1, 65, 80
1, 33180, Note_on_c, 0, 69, 0
1, 33180, Note_on_c, 0, 75, 80
1, 33210, Note_on_c, 0, 75, 0
1, 33240, Note_on_c, 0, 73, 80
1, 33270, Note_on_c, 0, 73, 0
1, 33300, Note_on_c, 0, 72, 80
1, 33330, Note_on_c, 0, 72, 0
1, 33360, Note_on_c, 0, 69, 80
1, 33360, Note_on_c, 1, 65, 0
1, 33360, Note_on_c, 1, 53, 80
1, 33420, Note_on_c, 0, 69, 0
1, 33420, Note_on_c, 0, 78, 80
1, 33480, Note_on_c, 0, 78, 0
1, 33480, Note_on_c, 0, 77, 80
1, 33540, Note_on_c, 0, 77, 0
1, 33540, Note_on_c, 0, 75, 80
1, 33600, Note_on_c, 0, 75, 0
1, 33600, Note_on_c, 0, 75, 80
1, 33600, Note_on_c, 0, 65, 80
1, 33600, Note_on_c, 1, 53, 0
1, 33600, Note_on_c, 1, 58, 80
1, 33660, Note_on_c, 0, 65, 0
1, 33660, Note_on_c, 0, 70, 80
1, 33690, Note_on_c, 0, 70, 0
1, 33720, Note_on_c, 0, 68, 80
1, 33750, Note_on_c, 0, 68, 0
1, 33780, Note_on_c, 0, 66, 80
1, 33810, Note_on_c, 0, 66, 0
1, 33840, Note_on_c, 0, 75, 0
1, 33840, Note_on_c, 0, 74, 80
1, 33840, Note_on_c, 0, 65, 80
1, 33900, Note_on_c, 0, 65, 0
1, 33900, Note_on_c, 0, 71, 80
1, 33960, Note_on_c, 0, 71, 0
1, 33960, Note_on_c, 0, 70, 80
1, 34020, Note_on_c, 0, 70, 0
1, 34020, Note_on_c, 0, 68, 80
1, 34080, Note_on_c, 0, 68, 0
1, 34080, Note_on_c, 0, 74, 0
1, 34080, Note_on_c, 0, 68, 80
1, 34080, Note_on_c, 0, 70, 80
1, 34080, Note_on_c, 1, 58, 0
1, 34080, Note_on_c, 1, 63, 80
1, 34140, Note_on_c, 0, 70, 0
1, 34140, Note_on_c, 0, 75, 80
1, 34176, Note_on_c, 0, 75, 0
1, 34200, Note_on_c, 0, 73, 80
1, 34236, Note_on_c, 0, 73, 0
1, 34260, Note_on_c, 0, 72, 80
1, 34296, Note_on_c, 0, 72, 0
1, 34320, Note_on_c, 0, 68, 0
1, 34320, Note_on_c, 0, 67, 80
1, 34320, Note_on_c, 0, 70, 80
1, 34380, Note_on_c, 0, 70, 0
1, 34380, Note_on_c, 0, 77, 80
1, 34440, Note_on_c, 0, 77, 0
1, 34440, Note_on_c, 0, 75, 80
1, 34500, Note_on_c, 0, 75, 0
1, 34500, Note_on_c, 0, 73, 80
1, 34560, Note_on_c, 0, 73, 0
1, 34560, Note_on_c, 0, 67, 0
1, 34560, Note_on_c, 0, 73, 80
1, 34560, Note_on_c, 0, 63, 80
1, 34560, Note_on_c, 1, 63, 0
1, 34560, Note_on_c, 1, 56, 80
1, 34620, Note_on_c, 0, 63, 0
1, 34620, Note_on_c, 0, 68, 80
1, 34656, Note_on_c, 0, 68, 0
1, 34680, Note_on_c, 0, 66, 80
1, 34716, Note_on_c, 0, 66, 0
1, 34740, Note_on_c, 0, 65, 80
1, 34776, Note_on_c, 0, 65, 0
1, 34800, Note_on_c, 0, 73, 0
1, 34800, Note_on_c, 0, 72, 80
1, 34800, Note_on_c, 0, 63, 80
1, 34860, Note_on_c, 0, 63, 0
1, 34860, Note_on_c, 0, 70, 80
1, 34920, Note_on_c, 0, 70, 0
1, 34920, Note_on_c, 0, 68, 80
1, 34980, Note_on_c, 0, 68, 0
1, 34980, Note_on_c, 0, 66, 80
1, 35040, Note_on_c, 0, 66, 0
1, 35040, Note_on_c, 0, 72, 0
1, 35040, Note_on_c, 0, 68, 80
1, 35040, Note_on_c, 0, 66, 80
1, 35040, Note_on_c, 1, 56, 0
1, 35040, Note_on_c, 1, 61, 80
1, 35100, Note_on_c, 0, 68, 0
1, 35100, Note_on_c, 0, 72, 80
1, 35142, Note_on_c, 0, 72, 0
1, 35160, Note_on_c, 0, 73, 80
1, 35202, Note_on_c, 0, 73, 0
1, 35220, Note_on_c, 0, 75, 80
1, 35262, Note_on_c, 0, 75, 0
1, 35280, Note_on_c, 0, 66, 0
1, 35280, Note_on_c, 0, 65, 80
1, 35280, Note_on_c, 0, 77, 80
1, 35340, Note_on_c, 0, 77, 0
1, 35340, Note_on_c, 0, 79, 80
1, 35364, Note_on_c, 0, 79, 0
1, 35400, Note_on_c, 0, 80, 80
1, 35424, Note_on_c, 0, 80, 0
1, 35460, Note_on_c, 0, 80, 80
1, 35484, Note_on_c, 0, 80, 0
1, 35520, Note_on_c, 0, 65, 0
1, 35520, Note_on_c, 0, 80, 80
1, 35520, Note_on_c, 0, 63, 80
1, 35520, Note_on_c, 1, 61, 0
1, 35520, Note_on_c, 1, 60, 80
1, 35580, Note_on_c, 0, 63, 0
1, 35580, Note_on_c, 0, 75, 80
1, 35622, Note_on_c, 0, 75, 0
1, 35640, Note_on_c, 0, 73, 80
1, 35682, Note_on_c, 0, 73, 0
1, 35700, Note_on_c, 0, 72, 80
1, 35742, Note_on_c, 0, 72, 0
1, 35760, Note_on_c, 0, 70, 80
1, 35820, Note_on_c, 0, 70, 0
1, 35820, Note_on_c, 0, 80, 0
1, 35820, Note_on_c, 0, 80, 80
1, 35820, Note_on_c, 0, 68, 80
1, 35880, Note_on_c, 0, 68, 0
1, 35880, Note_on_c, 0, 80, 0
1, 35880, Note_on_c, 0, 82, 80
1, 35880, Note_on_c, 0, 67, 80
1, 35940, Note_on_c, 0, 67, 0
1, 35940, Note_on_c, 0, 82, 0
1, 35940, Note_on_c, 0, 84, 80
1, 35940, Note_on_c, 0, 68, 80
1, 36000, Note_on_c, 0, 84, 0
1, 36000, Note_on_c, 0, 85, 80
1, 36000, Note_on_c, 1, 60, 0
1, 36000, Note_on_c, 1, 58, 80
1, 36060, Note_on_c, 0, 85, 0
1, 36060, Note_on_c, 0, 84, 80
1, 36090, Note_on_c, 0, 84, 0
1, 36120, Note_on_c, 0, 68, 0
1, 36120, Note_on_c, 0, 61, 80
1, 36120, Note_on_c, 0, 82, 80
1, 36150, Note_on_c, 0, 82, 0
1, 36180, Note_on_c, 0, 80, 80
1, 36210, Note_on_c, 0, 80, 0
1, 36240, Note_on_c, 0, 63, 80
1, 36240, Note_on_c, 0, 79, 80
1, 36300, Note_on_c, 0, 79, 0
1, 36300, Note_on_c, 0, 61, 0
1, 36300, Note_on_c, 0, 77, 80
1, 36360, Note_on_c, 0, 77, 0
1, 36360, Note_on_c, 0, 63, 0
1, 36360, Note_on_c, 0, 67, 80
1, 36360, Note_on_c, 0, 75, 80
1, 36420, Note_on_c, 0, 75, 0
1, 36420, Note_on_c, 0, 73, 80
1, 36450, Note_on_c, 0, 73, 0
1, 36450, Note_on_c, 0, 75, 80
1, 36480, Note_on_c, 0, 75, 0
1, 36480, Note_on_c, 0, 73, 80
1, 36480, Note_on_c, 1, 58, 0
1, 36480, Note_on_c, 1, 56, 80
1, 36510, Note_on_c, 0, 73, 0
1, 36510, Note_on_c, 0, 75, 80
1, 36540, Note_on_c, 0, 75, 0
1, 36540, Note_on_c, 0, 73, 80
1, 36570, Note_on_c, 0, 73, 0
1, 36570, Note_on_c, 0, 75, 80
1, 36600, Note_on_c, 0, 75, 0
1, 36600, Note_on_c, 0, 67, 0
1, 36600, Note_on_c, 0, 73, 80
1, 36600, Note_on_c, 0, 63, 80
1, 36630, Note_on_c, 0, 73, 0
1, 36630, Note_on_c, 0, 75, 80
1, 36660, Note_on_c, 0, 75, 0
1, 36660, Note_on_c, 0, 73, 80
1, 36680, Note_on_c, 0, 73, 0
1, 36680, Note_on_c, 0, 75, 80
1, 36700, Note_on_c, 0, 75, 0
1, 36700, Note_on_c, 0, 73, 80
1, 36720, Note_on_c, 0, 73, 0
1, 36720, Note_on_c, 0, 63, 0
1, 36720, Note_on_c, 0, 68, 80
1, 36720, Note_on_c, 0, 72, 80
1, 36780, Note_on_c, 0, 72, 0
1, 36780, Note_on_c, 0, 80, 80
1, 36840, Note_on_c, 0, 80, 0
1, 36840, Note_on_c, 0, 68, 0
1, 36840, Note_on_c, 0, 65, 80
1, 36840, Note_on_c, 0, 82, 80
1, 36900, Note_on_c, 0, 82, 0
1, 36900, Note_on_c, 0, 84, 80
1, 36960, Note_on_c, 0, 84, 0
1, 36960, Note_on_c, 0, 82, 80
1, 36960, Note_on_c, 1, 56, 0
1, 36960, Note_on_c, 1, 55, 80
1, 37020, Note_on_c, 0, 82, 0
1, 37020, Note_on_c, 0, 80, 80
1, 37056, Note_on_c, 0, 80, 0
1, 37080, Note_on_c, 0, 65, 0
1, 37080, Note_on_c, 0, 58, 80
1, 37080, Note_on_c, 0, 79, 80
1, 37116, Note_on_c, 0, 79, 0
1, 37140, Note_on_c, 0, 77, 80
1, 37176, Note_on_c, 0, 77, 0
1, 37200, Note_on_c, 0, 58, 0
1, 37200, Note_on_c, 0, 60, 80
1, 37200, Note_on_c, 0, 76, 80
1, 37260, Note_on_c, 0, 76, 0
1, 37260, Note_on_c, 0, 73, 80
1, 37320, Note_on_c, 0, 73, 0
1, 37320, Note_on_c, 0, 60, 0
1, 37320, Note_on_c, 0, 64, 80
1, 37320, Note_on_c, 0, 72, 80
1, 37380, Note_on_c, 0, 72, 0
1, 37380, Note_on_c, 0, 70, 80
1, 37410, Note_on_c, 0, 70, 0
1, 37410, Note_on_c, 0, 72, 80
1, 37440, Note_on_c, 0, 72, 0
1, 37440, Note_on_c, 0, 70, 80
1, 37440, Note_on_c, 1, 55, 0
1, 37440, Note_on_c, 1, 53, 80
1, 37470, Note_on_c, 0, 70, 0
1, 37470, Note_on_c, 0, 72, 80
1, 37500, Note_on_c, 0, 72, 0
1, 37500, Note_on_c, 0, 70, 80
1, 37530, Note_on_c, 0, 70, 0
1, 37530, Note_on_c, 0, 72, 80
1, 37560, Note_on_c, 0, 72, 0
1, 37560, Note_on_c, 0, 64, 0
1, 37560, Note_on_c, 0, 60, 80
1, 37560, Note_on_c, 0, 70, 80
1, 37590, Note_on_c, 0, 70, 0
1, 37590, Note_on_c, 0, 72, 80
1, 37620, Note_on_c, 0, 72, 0
1, 37620, Note_on_c, 0, 70, 80
1, 37640, Note_on_c, 0, 70, 0
1, 37640, Note_on_c, 0, 72, 80
1, 37660, Note_on_c, 0, 72, 0
1, 37660, Note_on_c, 0, 70, 80
1, 37680, Note_on_c, 0, 70, 0
1, 37680, Note_on_c, 0, 60, 0
1, 37680, Note_on_c, 0, 65, 80
1, 37680, Note_on_c, 0, 68, 80
1, 37740, Note_on_c, 0, 68, 0
1, 37740, Note_on_c, 0, 72, 80
1, 37800, Note_on_c, 0, 72, 0
1, 37800, Note_on_c, 0, 77, 80
1, 37860, Note_on_c, 0, 77, 0
1, 37860, Note_on_c, 0, 76, 80
1, 37920, Note_on_c, 0, 76, 0
1, 37920, Note_on_c, 0, 65, 0
1, 37920, Note_on_c, 0, 79, 80
1, 37920, Note_on_c, 1, 53, 0
1, 37920, Note_on_c, 1, 53, 80
1, 37920, Note_on_c, 1, 56, 80
1, 37980, Note_on_c, 0, 79, 0
1, 37980, Note_on_c, 0, 77, 80
1, 38040, Note_on_c, 0, 77, 0
1, 38040, Note_on_c, 0, 80, 80
1, 38100, Note_on_c, 0, 80, 0
1, 38100, Note_on_c, 0, 79, 80
1, 38160, Note_on_c, 0, 79, 0
1, 38160, Note_on_c, 0, 77, 80
1, 38220, Note_on_c, 0, 77, 0
1, 38220, Note_on_c, 0, 75, 80
1, 38250, Note_on_c, 0, 75, 0
1, 38280, Note_on_c, 0, 74, 80
1, 38280, Note_on_c, 1, 56, 0
1, 38280, Note_on_c, 1, 53, 0
1, 38280, Note_on_c, 1, 54, 80
1, 38280, Note_on_c, 1, 57, 80
1, 38310, Note_on_c, 0, 74, 0
1, 38340, Note_on_c, 0, 72, 80
1, 38370, Note_on_c, 0, 72, 0
1, 38400, Note_on_c, 0, 79, 80
1, 38400, Note_on_c, 1, 57, 0
1, 38400, Note_on_c, 1, 54, 0
1, 38400, Note_on_c, 1, 55, 80
1, 38400, Note_on_c, 1, 59, 80
1, 38442, Note_on_c, 1, 59, 0
1, 38460, Note_on_c, 1, 62, 80
1, 38490, Note_on_c, 1, 62, 0
1, 38502, Note_on_c, 1, 55, 0
1, 38520, Note_on_c, 1, 55, 80
1, 38520, Note_on_c, 1, 59, 80
1, 38550, Note_on_c, 1, 59, 0
1, 38580, Note_on_c, 1, 62, 80
1, 38610, Note_on_c, 1, 62, 0
1, 38622, Note_on_c, 1, 55, 0
1, 38640, Note_on_c, 0, 79, 0
1, 38640, Note_on_c, 0, 74, 80
1, 38640, Note_on_c, 1, 55, 80
1, 38640, Note_on_c, 1, 59, 80
1, 38682, Note_on_c, 1, 59, 0
1, 38700, Note_on_c, 1, 62, 80
1, 38742, Note_on_c, 1, 62, 0
1, 38742, Note_on_c, 1, 55, 0
1, 38760, Note_on_c, 1, 55, 80
1, 38760, Note_on_c, 1, 59, 80
1, 38802, Note_on_c, 1, 59, 0
1, 38820, Note_on_c, 0, 74, 0
1, 38820, Note_on_c, 0, 72, 80
1, 38820, Note_on_c, 1, 62, 80
1, 38862, Note_on_c, 1, 62, 0
1, 38862, Note_on_c, 1, 55, 0
1, 38880, Note_on_c, 0, 72, 0
1, 38880, Note_on_c, 0, 72, 80
1, 38880, Note_on_c, 1, 59, 80
1, 38880, Note_on_c, 1, 55, 80
1, 38922, Note_on_c, 1, 59, 0
1, 38940, Note_on_c, 1, 62, 80
1, 38970, Note_on_c, 1, 62, 0
1, 38982, Note_on_c, 1, 55, 0
1, 39000, Note_on_c, 1, 59, 80
1, 39000, Note_on_c, 1, 55, 80
1, 39030, Note_on_c, 1, 59, 0
1, 39060, Note_on_c, 1, 62, 80
1, 39090, Note_on_c, 1, 62, 0
1, 39102, Note_on_c, 1, 55, 0
1, 39120, Note_on_c, 0, 72, 0
1, 39120, Note_on_c, 0, 71, 80
1, 39120, Note_on_c, 1, 59, 80
1, 39120, Note_on_c, 1, 55, 80
1, 39150, Note_on_c, 0, 71, 0
1, 39150, Note_on_c, 0, 72, 80
1, 39162, Note_on_c, 1, 59, 0
1, 39180, Note_on_c, 0, 72, 0
1, 39180, Note_on_c, 0, 71, 80
1, 39180, Note_on_c, 1, 62, 80
1, 39200, Note_on_c, 0, 71, 0
1, 39200, Note_on_c, 0, 72, 80
1, 39220, Note_on_c, 0, 72, 0
1, 39220, Note_on_c, 0, 71, 80
1, 39222, Note_on_c, 1, 62, 0
1, 39222, Note_on_c, 1, 55, 0
1, 39240, Note_on_c, 0, 71, 0
1, 39240, Note_on_c, 0, 72, 80
1, 39240, Note_on_c, 1, 59, 80
1, 39240, Note_on_c, 1, 55, 80
1, 39270, Note_on_c, 0, 72, 0
1, 39270, Note_on_c, 0, 71, 80
1, 39282, Note_on_c, 1, 59, 0
1, 39300, Note_on_c, 0, 71, 0
1, 39300, Note_on_c, 0, 74, 80
1, 39300, Note_on_c, 1, 62, 80
1, 39330, Note_on_c, 0, 74, 0
1, 39330, Note_on_c, 0, 77, 80
1, 39342, Note_on_c, 1, 62, 0
1, 39342, Note_on_c, 1, 55, 0
1, 39360, Note_on_c, 0, 77, 0
1, 39360, Note_on_c, 0, 80, 80
1, 39360, Note_on_c, 1, 59, 80
1, 39360, Note_on_c, 1, 53, 80
1, 39402, Note_on_c, 1, 59, 0
1, 39420, Note_on_c, 1, 62, 80
1, 39444, Note_on_c, 1, 62, 0
1, 39462, Note_on_c, 1, 53, 0
1, 39480, Note_on_c, 1, 59, 80
1, 39480, Note_on_c, 1, 53, 80
1, 39504, Note_on_c, 1, 59, 0
1, 39540, Note_on_c, 1, 62, 80
1, 39564, Note_on_c, 1, 62, 0
1, 39582, Note_on_c, 1, 53, 0
1, 39600, Note_on_c, 0, 80, 0
1, 39600, Note_on_c, 0, 77, 80
1, 39600, Note_on_c, 1, 59, 80
1, 39600, Note_on_c, 1, 53, 80
1, 39642, Note_on_c, 1, 59, 0
1, 39660, Note_on_c, 1, 62, 80
1, 39702, Note_on_c, 1, 62, 0
1, 39702, Note_on_c, 1, 53, 0
1, 39720, Note_on_c, 1, 59, 80
1, 39720, Note_on_c, 1, 53, 80
1, 39762, Note_on_c, 1, 59, 0
1, 39780, Note_on_c, 0, 77, 0
1, 39780, Note_on_c, 0, 74, 80
1, 39780, Note_on_c, 1, 62, 80
1, 39822, Note_on_c, 1, 62, 0
1, 39822, Note_on_c, 1, 53, 0
1, 39840, Note_on_c, 0, 74, 0
1, 39840, Note_on_c, 0, 72, 80
1, 39840, Note_on_c, 1, 59, 80
1, 39840, Note_on_c, 1, 53, 80
1, 39900, Note_on_c, 1, 59, 0
1, 39900, Note_on_c, 1, 62, 80
1, 39924, Note_on_c, 1, 62, 0
1, 39960, Note_on_c, 1, 53, 0
1, 39960, Note_on_c, 1, 59, 80
1, 39960, Note_on_c, 1, 53, 80
1, 39984, Note_on_c, 1, 59, 0
1, 40020, Note_on_c, 1, 62, 80
1, 40044, Note_on_c, 1, 62, 0
1, 40080, Note_on_c, 0, 72, 0
1, 40080, Note_on_c, 0, 71, 80
1, 40080, Note_on_c, 1, 53, 0
1, 40080, Note_on_c, 1, 59, 80
1, 40080, Note_on_c, 1, 53, 80
1, 40110, Note_on_c, 0, 71, 0
1, 40110, Note_on_c, 0, 72, 80
1, 40140, Note_on_c, 0, 72, 0
1, 40140, Note_on_c, 0, 71, 80
1, 40140, Note_on_c, 1, 59, 0
1, 40140, Note_on_c, 1, 62, 80
1, 40170, Note_on_c, 0, 71, 0
1, 40170, Note_on_c, 0, 72, 80
1, 40200, Note_on_c, 0, 72, 0
1, 40200, Note_on_c, 0, 71, 80
1, 40200, Note_on_c, 1, 62, 0
1, 40200, Note_on_c, 1, 53, 0
1, 40200, Note_on_c, 1, 59, 80
1, 40200, Note_on_c, 1, 53, 80
1, 40220, Note_on_c, 0, 71, 0
1, 40220, Note_on_c, 0, 72, 80
1, 40240, Note_on_c, 0, 72, 0
1, 40240, Note_on_c, 0, 71, 80
1, 40260, Note_on_c, 0, 71, 0
1, 40260, Note_on_c, 0, 72, 80
1, 40260, Note_on_c, 1, 59, 0
1, 40260, Note_on_c, 1, 62, 80
1, 40290, Note_on_c, 0, 72, 0
1, 40290, Note_on_c, 0, 71, 80
1, 40320, Note_on_c, 0, 71, 0
1, 40320, Note_on_c, 0, 79, 80
1, 40320, Note_on_c, 1, 62, 0
1, 40320, Note_on_c, 1, 53, 0
1, 40320, Note_on_c, 1, 51, 80
1, 40380, Note_on_c, 1, 51, 0
1, 40380, Note_on_c, 1, 60, 80
1, 40440, Note_on_c, 1, 60, 0
1, 40440, Note_on_c, 1, 63, 80
1, 40500, Note_on_c, 0, 79, 0
1, 40500, Note_on_c, 0, 75, 80
1, 40500, Note_on_c, 1, 63, 0
1, 40500, Note_on_c, 1, 67, 80
1, 40560, Note_on_c, 0, 75, 0
1, 40560, Note_on_c, 0, 72, 80
1, 40560, Note_on_c, 1, 67, 0
1, 40560, Note_on_c, 1, 63, 56
1, 40620, Note_on_c, 0, 72, 0
1, 40620, Note_on_c, 1, 63, 0
1, 40620, Note_on_c, 1, 67, 56
1, 40680, Note_on_c, 0, 72, 56
1, 40680, Note_on_c, 1, 67, 0
1, 40680, Note_on_c, 1, 63, 56
1, 40740, Note_on_c, 1, 63, 0
1, 40740, Note_on_c, 1, 67, 56
1, 40800, Note_on_c, 0, 72, 0
1, 40800, Note_on_c, 0, 74, 56
1, 40800, Note_on_c, 1, 67, 0
1, 40800, Note_on_c, 1, 65, 56
1, 40860, Note_on_c, 0, 74, 0
1, 40860, Note_on_c, 0, 75, 58
1, 40860, Note_on_c, 1, 65, 0
1, 40860, Note_on_c, 1, 67, 58
1, 40920, Note_on_c, 0, 75, 0
1, 40920, Note_on_c, 0, 77, 59
1, 40920, Note_on_c, 1, 67, 0
1, 40920, Note_on_c, 1, 65, 59
1, 40980, Note_on_c, 0, 77, 0
1, 40980, Note_on_c, 0, 71, 61
1, 40980, Note_on_c, 1, 65, 0
1, 40980, Note_on_c, 1, 67, 61
1, 41040, Note_on_c, 0, 71, 0
1, 41040, Note_on_c, 0, 72, 62
1, 41040, Note_on_c, 1, 67, 0
1, 41040, Note_on_c, 1, 63, 62
1, 41100, Note_on_c, 0, 72, 0
1, 41100, Note_on_c, 1, 63, 0
1, 41100, Note_on_c, 1, 67, 64
1, 41160, Note_on_c, 0, 72, 65
1, 41160, Note_on_c, 1, 67, 0
1, 41160, Note_on_c, 1, 63, 65
1, 41220, Note_on_c, 0, 72, 0
1, 41220, Note_on_c, 1, 63, 0
1, 41220, Note_on_c, 1, 67, 67
1, 41280, Note_on_c, 0, 74, 68
1, 41280, Note_on_c, 1, 67, 0
1, 41280, Note_on_c, 1, 65, 68
1, 41340, Note_on_c, 0, 74, 0
1, 41340, Note_on_c, 0, 75, 70
1, 41340, Note_on_c, 1, 65, 0
1, 41340, Note_on_c, 1, 67, 70
1, 41370, Note_on_c, 0, 75, 0
1, 41370, Note_on_c, 1, 67, 0
1, 41400, Note_on_c, 0, 77, 71
1, 41400, Note_on_c, 1, 65, 71
1, 41430, Note_on_c, 0, 77, 0
1, 41430, Note_on_c, 1, 65, 0
1, 41460, Note_on_c, 0, 71, 73
1, 41460, Note_on_c, 1, 67, 73
1, 41490, Note_on_c, 0, 71, 0
1, 41490, Note_on_c, 1, 67, 0
1, 41520, Note_on_c, 0, 72, 74
1, 41520, Note_on_c, 1, 63, 74
1, 41580, Note_on_c, 0, 72, 0
1, 41580, Note_on_c, 0, 74, 76
1, 41580, Note_on_c, 1, 63, 0
1, 41580, Note_on_c, 1, 67, 76
1, 41640, Note_on_c, 0, 74, 0
1, 41640, Note_on_c, 0, 75, 77
1, 41640, Note_on_c, 1, 67, 0
1, 41640, Note_on_c, 1, 63, 77
1, 41700, Note_on_c, 0, 75, 0
1, 41700, Note_on_c, 0, 72, 79
1, 41700, Note_on_c, 1, 63, 0
1, 41700, Note_on_c, 1, 67, 79
1, 41760, Note_on_c, 0, 72, 0
1, 41760, Note_on_c, 0, 74, 80
1, 41760, Note_on_c, 1, 67, 0
1, 41760, Note_on_c, 1, 65, 80
1, 41820, Note_on_c, 0, 74, 0
1, 41820, Note_on_c, 0, 75, 80
1, 41820, Note_on_c, 1, 65, 0
1, 41820, Note_on_c, 1, 67, 80
1, 41850, Note_on_c, 0, 75, 0
1, 41850, Note_on_c, 1, 67, 0
1, 41880, Note_on_c, 0, 77, 80
1, 41880, Note_on_c, 1, 65, 80
1, 41910, Note_on_c, 0, 77, 0
1, 41910, Note_on_c, 1, 65, 0
1, 41940, Note_on_c, 0, 71, 80
1, 41940, Note_on_c, 1, 67, 80
1, 41970, Note_on_c, 0, 71, 0
1, 41970, Note_on_c, 1, 67, 0
1, 42000, Note_on_c, 0, 72, 80
1, 42000, Note_on_c, 1, 63, 80
1, 42060, Note_on_c, 0, 72, 0
1, 42060, Note_on_c, 0, 74, 80
1, 42060, Note_on_c, 1, 63, 0
1, 42060, Note_on_c, 1, 67, 80
1, 42120, Note_on_c, 0, 74, 0
1, 42120, Note_on_c, 0, 75, 80
1, 42120, Note_on_c, 1, 67, 0
1, 42120, Note_on_c, 1, 63, 80
1, 42180, Note_on_c, 0, 75, 0
1, 42180, Note_on_c, 0, 72, 80
1, 42180, Note_on_c, 1, 63, 0
1, 42180, Note_on_c, 1, 67, 80
1, 42240, Note_on_c, 0, 72, 0
1, 42240, Note_on_c, 0, 74, 80
1, 42240, Note_on_c, 1, 67, 0
1, 42240, Note_on_c, 1, 65, 80
1, 42300, Note_on_c, 0, 74, 0
1, 42300, Note_on_c, 0, 75, 80
1, 42300, Note_on_c, 1, 65, 0
1, 42300, Note_on_c, 1, 67, 80
1, 42360, Note_on_c, 0, 75, 0
1, 42360, Note_on_c, 0, 77, 80
1, 42360, Note_on_c, 1, 67, 0
1, 42360, Note_on_c, 1, 65, 80
1, 42420, Note_on_c, 0, 77, 0
1, 42420, Note_on_c, 0, 71, 80
1, 42420, Note_on_c, 1, 65, 0
1, 42420, Note_on_c, 1, 67, 80
1, 42480, Note_on_c, 0, 71, 0
1, 42480, Note_on_c, 0, 72, 80
1, 42480, Note_on_c, 1, 67, 0
1, 42480, Note_on_c, 1, 63, 80
1, 42540, Note_on_c, 0, 72, 0
1, 42540, Note_on_c, 1, 63, 0
1, 42540, Note_on_c, 1, 67, 80
1, 42600, Note_on_c, 0, 79, 80
1, 42600, Note_on_c, 1, 67, 0
1, 42600, Note_on_c, 1, 63, 80
1, 42660, Note_on_c, 1, 63, 0
1, 42660, Note_on_c, 1, 67, 80
1, 42720, Note_on_c, 0, 79, 0
1, 42720, Note_on_c, 0, 78, 80
1, 42720, Note_on_c, 0, 72, 80
1, 42720, Note_on_c, 1, 67, 0
1, 42720, Note_on_c, 1, 62, 80
1, 42720, Note_on_c, 1, 69, 80
1, 42780, Note_on_c, 0, 72, 0
1, 42780, Note_on_c, 0, 74, 80
1, 42780, Note_on_c, 1, 69, 0
1, 42780, Note_on_c, 1, 70, 80
1, 42810, Note_on_c, 0, 74, 0
1, 42810, Note_on_c, 1, 70, 0
1, 42840, Note_on_c, 0, 75, 80
1, 42840, Note_on_c, 1, 72, 80
1, 42870, Note_on_c, 0, 75, 0
1, 42870, Note_on_c, 1, 72, 0
1, 42900, Note_on_c, 0, 72, 80
1, 42900, Note_on_c, 1, 69, 80
1, 42930, Note_on_c, 0, 72, 0
1, 42930, Note_on_c, 0, 78, 0
1, 42930, Note_on_c, 1, 69, 0
1, 42960, Note_on_c, 0, 77, 80
1, 42960, Note_on_c, 0, 74, 80
1, 42960, Note_on_c, 1, 62, 0
1, 42960, Note_on_c, 1, 67, 80
1, 42960, Note_on_c, 1, 71, 80
1, 43020, Note_on_c, 0, 74, 0
1, 43020, Note_on_c, 0, 77, 0
1, 43020, Note_on_c, 0, 79, 80
1, 43020, Note_on_c, 0, 75, 80
1, 43080, Note_on_c, 0, 75, 0
1, 43080, Note_on_c, 0, 79, 0
1, 43080, Note_on_c, 0, 80, 80
1, 43080, Note_on_c, 0, 77, 80
1, 43140, Note_on_c, 0, 77, 0
1, 43140, Note_on_c, 0, 80, 0
1, 43140, Note_on_c, 0, 77, 80
1, 43140, Note_on_c, 0, 74, 80
1, 43200, Note_on_c, 0, 74, 0
1, 43200, Note_on_c, 0, 77, 0
1, 43200, Note_on_c, 0, 75, 80
1, 43200, Note_on_c, 0, 72, 80
1, 43200, Note_on_c, 1, 71, 0
1, 43200, Note_on_c, 1, 67, 0
1, 43200, Note_on_c, 1, 60, 80
1, 43260, Note_on_c, 0, 72, 0
1, 43260, Note_on_c, 0, 75, 0
1, 43260, Note_on_c, 0, 77, 80
1, 43260, Note_on_c, 0, 74, 80
1, 43290, Note_on_c, 0, 74, 0
1, 43290, Note_on_c, 0, 77, 0
1, 43320, Note_on_c, 0, 79, 80
1, 43320, Note_on_c, 0, 75, 80
1, 43350, Note_on_c, 0, 75, 0
1, 43350, Note_on_c, 0, 79, 0
1, 43380, Note_on_c, 0, 75, 80
1, 43380, Note_on_c, 0, 72, 80
1, 43410, Note_on_c, 0, 72, 0
1, 43410, Note_on_c, 0, 75, 0
1, 43440, Note_on_c, 0, 84, 80
1, 43440, Note_on_c, 0, 75, 80
1, 43440, Note_on_c, 1, 60, 0
1, 43440, Note_on_c, 1, 48, 80
1, 43440, Note_on_c, 1, 51, 80
1, 43500, Note_on_c, 1, 51, 0
1, 43500, Note_on_c, 1, 48, 0
1, 43500, Note_on_c, 1, 50, 80
1, 43500, Note_on_c, 1, 53, 80
1, 43530, Note_on_c, 1, 53, 0
1, 43530, Note_on_c, 1, 50, 0
1, 43560, Note_on_c, 1, 51, 80
1, 43560, Note_on_c, 1, 55, 80
1, 43590, Note_on_c, 1, 55, 0
1, 43590, Note_on_c, 1, 51, 0
1, 43620, Note_on_c, 1, 48, 80
1, 43620, Note_on_c, 1, 51, 80
1, 43650, Note_on_c, 1, 51, 0
1, 43650, Note_on_c, 1, 48, 0
1, 43680, Note_on_c, 0, 75, 0
1, 43680, Note_on_c, 0, 84, 0
1, 43680, Note_on_c, 1, 53, 80
1, 43680, Note_on_c, 1, 56, 80
1, 43800, Note_on_c, 0, 79, 80
1, 43830, Note_on_c, 0, 79, 0
1, 43830, Note_on_c, 0, 82, 80
1, 43860, Note_on_c, 0, 82, 0
1, 43860, Note_on_c, 0, 80, 80
1, 43890, Note_on_c, 0, 80, 0
1, 43920, Note_on_c, 0, 76, 80
1, 43920, Note_on_c, 1, 56, 0
1, 43920, Note_on_c, 1, 53, 0
1, 43950, Note_on_c, 0, 76, 0
1, 43950, Note_on_c, 0, 79, 80
1, 43980, Note_on_c, 0, 79, 0
1, 43980, Note_on_c, 0, 77, 80
1, 44010, Note_on_c, 0, 77, 0
1, 44040, Note_on_c, 0, 73, 80
1, 44070, Note_on_c, 0, 73, 0
1, 44070, Note_on_c, 0, 75, 80
1, 44100, Note_on_c, 0, 75, 0
1, 44100, Note_on_c, 0, 74, 80
1, 44130, Note_on_c, 0, 74, 0
1, 44160, Note_on_c, 0, 67, 80
1, 44280, Note_on_c, 1, 60, 80
1, 44280, Note_on_c, 1, 51, 80
1, 44400, Note_on_c, 0, 67, 0
1, 44400, Note_on_c, 0, 74, 80
1, 44400, Note_on_c, 1, 51, 0
1, 44400, Note_on_c, 1, 53, 80
1, 44430, Note_on_c, 0, 74, 0
1, 44430, Note_on_c, 0, 75, 80
1, 44460, Note_on_c, 0, 75, 0
1, 44460, Note_on_c, 0, 74, 80
1, 44490, Note_on_c, 0, 74, 0
1, 44490, Note_on_c, 0, 75, 80
1, 44520, Note_on_c, 0, 75, 0
1, 44520, Note_on_c, 0, 74, 80
1, 44520, Note_on_c, 1, 53, 0
1, 44520, Note_on_c, 1, 60, 0
1, 44520, Note_on_c, 1, 59, 80
1, 44520, Note_on_c, 1, 55, 80
1, 44540, Note_on_c, 0, 74, 0
1, 44540, Note_on_c, 0, 75, 80
1, 44560, Note_on_c, 0, 75, 0
1, 44560, Note_on_c, 0, 74, 80
1, 44580, Note_on_c, 0, 74, 0
1, 44580, Note_on_c, 0, 72, 80
1, 44610, Note_on_c, 0, 72, 0
1, 44610, Note_on_c, 0, 74, 80
1, 44640, Note_on_c, 0, 74, 0
1, 44640, Note_on_c, 1, 55, 0
1, 44640, Note_on_c, 1, 59, 0
1, 44640, Note_on_c, 1, 51, 80
1, 44640, Note_on_c, 1, 60, 80
1, 44760, Note_on_c, 0, 86, 80
1, 44760, Note_on_c, 1, 60, 0
1, 44760, Note_on_c, 1, 51, 0
1, 44790, Note_on_c, 0, 86, 0
1, 44790, Note_on_c, 0, 89, 80
1, 44820, Note_on_c, 0, 89, 0
1, 44820, Note_on_c, 0, 87, 80
1, 44850, Note_on_c, 0, 87, 0
1, 44880, Note_on_c, 0, 83, 80
1, 44910, Note_on_c, 0, 83, 0
1, 44910, Note_on_c, 0, 86, 80
1, 44940, Note_on_c, 0, 86, 0
1, 44940, Note_on_c, 0, 84, 80
1, 44970, Note_on_c, 0, 84, 0
1, 45000, Note_on_c, 0, 79, 80
1, 45000, Note_on_c, 1, 60, 80
1, 45000, Note_on_c, 1, 53, 80
1, 45030, Note_on_c, 0, 79, 0
1, 45030, Note_on_c, 0, 82, 80
1, 45060, Note_on_c, 0, 82, 0
1, 45060, Note_on_c, 0, 80, 80
1, 45120, Note_on_c, 0, 80, 0
1, 45120, Note_on_c, 0, 79, 80
1, 45120, Note_on_c, 1, 53, 0
1, 45120, Note_on_c, 1, 60, 0
1, 45120, Note_on_c, 1, 60, 80
1, 45120, Note_on_c, 1, 51, 80
1, 45160, Note_on_c, 0, 79, 0
1, 45160, Note_on_c, 0, 75, 80
1, 45200, Note_on_c, 0, 75, 0
1, 45200, Note_on_c, 0, 72, 80
1, 45240, Note_on_c, 0, 72, 0
1, 45240, Note_on_c, 0, 80, 80
1, 45240, Note_on_c, 1, 51, 0
1, 45240, Note_on_c, 1, 60, 0
1, 45240, Note_on_c, 1, 60, 80
1, 45240, Note_on_c, 1, 53, 80
1, 45280, Note_on_c, 0, 80, 0
1, 45280, Note_on_c, 0, 77, 80
1, 45320, Note_on_c, 0, 77, 0
1, 45320, Note_on_c, 0, 74, 80
1, 45360, Note_on_c, 0, 74, 0
1, 45360, Note_on_c, 0, 74, 79
1, 45360, Note_on_c, 1, 53, 0
1, 45360, Note_on_c, 1, 60, 0
1, 45360, Note_on_c, 1, 55, 80
1, 45360, Note_on_c, 1, 60, 80
1, 45390, Note_on_c, 0, 74, 0
1, 45390, Note_on_c, 0, 75, 77
1, 45420, Note_on_c, 0, 75, 0
1, 45420, Note_on_c, 0, 74, 75
1, 45450, Note_on_c, 0, 74, 0
1, 45450, Note_on_c, 0, 75, 73
1, 45480, Note_on_c, 0, 75, 0
1, 45480, Note_on_c, 0, 74, 71
1, 45480, Note_on_c, 1, 60, 0
1, 45480, Note_on_c, 1, 59, 80
1, 45500, Note_on_c, 0, 74, 0
1, 45500, Note_on_c, 0, 75, 70
1, 45520, Note_on_c, 0, 75, 0
1, 45520, Note_on_c, 0, 74, 69
1, 45540, Note_on_c, 0, 74, 0
1, 45540, Note_on_c, 0, 72, 67
1, 45570, Note_on_c, 0, 72, 0
1, 45570, Note_on_c, 0, 74, 66
1, 45600, Note_on_c, 0, 74, 0
1, 45600, Note_on_c, 0, 72, 56
1, 45600, Note_on_c, 1, 59, 0
1, 45600, Note_on_c, 1, 55, 0
1, 45720, Note_on_c, 1, 60, 56
1, 45720, Note_on_c, 1, 63, 56
1, 45780, Note_on_c, 1, 63, 0
1, 45780, Note_on_c, 1, 60, 0
1, 45840, Note_on_c, 0, 72, 0
1, 45840, Note_on_c, 0, 67, 56
1, 45840, Note_on_c, 1, 59, 56
1, 45840, Note_on_c, 1, 62, 56
1, 45960, Note_on_c, 1, 62, 0
1, 45960, Note_on_c, 1, 59, 0
1, 45960, Note_on_c, 1, 55, 56
1, 45960, Note_on_c, 1, 59, 56
1, 46020, Note_on_c, 0, 67, 0
1, 46020, Note_on_c, 0, 65, 56
1, 46080, Note_on_c, 0, 65, 0
1, 46080, Note_on_c, 0, 65, 56
1, 46080, Note_on_c, 1, 59, 0
1, 46080, Note_on_c, 1, 55, 0
1, 46080, Note_on_c, 1, 60, 56
1, 46200, Note_on_c, 1, 60, 0
1, 46200, Note_on_c, 1, 48, 56
1, 46260, Note_on_c, 1, 48, 0
1, 46320, Note_on_c, 0, 65, 0
1, 46320, Note_on_c, 0, 63, 62
1, 46340, Note_on_c, 0, 63, 0
1, 46340, Note_on_c, 0, 65, 64
1, 46360, Note_on_c, 0, 65, 0
1, 46360, Note_on_c, 0, 63, 65
1, 46380, Note_on_c, 0, 63, 0
1, 46380, Note_on_c, 0, 65, 67
1, 46410, Note_on_c, 0, 65, 0
1, 46410, Note_on_c, 0, 67, 69
1, 46440, Note_on_c, 0, 67, 0
1, 46440, Note_on_c, 0, 68, 71
1, 46470, Note_on_c, 0, 68, 0
1, 46470, Note_on_c, 0, 70, 73
1, 46500, Note_on_c, 0, 70, 0
1, 46500, Note_on_c, 0, 72, 76
1, 46530, Note_on_c, 0, 72, 0
1, 46530, Note_on_c, 0, 74, 78
1, 46560, Note_on_c, 0, 74, 0
1, 46560, Note_on_c, 0, 75, 80
1, 46560, Note_on_c, 1, 39, 80
1, 46560, Note_on_c, 1, 43, 80
1, 46560, Note_on_c, 1, 46, 80
1, 46560, Note_on_c, 1, 51, 80
1, 46680, Note_on_c, 1, 51, 0
1, 46680, Note_on_c, 1, 39, 0
1, 46680, Note_on_c, 1, 43, 0
1, 46680, Note_on_c, 1, 46, 0
1, 46680, Note_on_c, 1, 63, 80
1, 46680, Note_on_c, 1, 67, 80
1, 46740, Note_on_c, 1, 67, 0
1, 46740, Note_on_c, 1, 63, 0
1, 46800, Note_on_c, 0, 75, 0
1, 46800, Note_on_c, 0, 70, 80
1, 46800, Note_on_c, 1, 62, 80
1, 46800, Note_on_c, 1, 65, 80
1, 46920, Note_on_c, 1, 65, 0
1, 46920, Note_on_c, 1, 62, 0
1, 46920, Note_on_c, 1, 58, 80
1, 46920, Note_on_c, 1, 62, 80
1, 46980, Note_on_c, 0, 70, 0
1, 46980, Note_on_c, 0, 68, 80
1, 47040, Note_on_c, 0, 68, 0
1, 47040, Note_on_c, 0, 68, 80
1, 47040, Note_on_c, 1, 62, 0
1, 47040, Note_on_c, 1, 58, 0
1, 47160, Note_on_c, 1, 51, 80
1, 47220, Note_on_c, 1, 51, 0
1, 47280, Note_on_c, 0, 68, 0
1, 47280, Note_on_c, 0, 67, 80
1, 47280, Note_on_c, 1, 55, 80
1, 47310, Note_on_c, 0, 67, 0
1, 47310, Note_on_c, 0, 68, 80
1, 47340, Note_on_c, 0, 68, 0
1, 47340, Note_on_c, 0, 67, 80
1, 47360, Note_on_c, 0, 67, 0
1, 47360, Note_on_c, 0, 68, 80
1, 47380, Note_on_c, 0, 68, 0
1, 47380, Note_on_c, 0, 67, 80
1, 47400, Note_on_c, 0, 67, 0
1, 47400, Note_on_c, 0, 65, 80
1, 47400, Note_on_c, 1, 55, 0
1, 47400, Note_on_c, 1, 58, 80
1, 47520, Note_on_c, 0, 65, 0
1, 47520, Note_on_c, 0, 63, 80
1, 47520, Note_on_c, 1, 58, 0
1, 47520, Note_on_c, 1, 60, 80
1, 47640, Note_on_c, 0, 63, 0
1, 47640, Note_on_c, 0, 68, 80
1, 47712, Note_on_c, 0, 68, 0
1, 47760, Note_on_c, 0, 65, 80
1, 47760, Note_on_c, 1, 60, 0
1, 47760, Note_on_c, 1, 62, 80
1, 47880, Note_on_c, 0, 65, 0
1, 47880, Note_on_c, 0, 70, 80
1, 47952, Note_on_c, 0, 70, 0
1, 48000, Note_on_c, 0, 68, 80
1, 48000, Note_on_c, 1, 62, 0
1, 48120, Note_on_c, 1, 63, 80
1, 48180, Note_on_c, 1, 63, 0
1, 48240, Note_on_c, 0, 68, 0
1, 48240, Note_on_c, 0, 67, 80
1, 48240, Note_on_c, 1, 51, 80
1, 48270, Note_on_c, 0, 67, 0
1, 48270, Note_on_c, 0, 68, 80
1, 48300, Note_on_c, 0, 68, 0
1, 48300, Note_on_c, 0, 67, 80
1, 48320, Note_on_c, 0, 67, 0
1, 48320, Note_on_c, 0, 68, 80
1, 48340, Note_on_c, 0, 68, 0
1, 48340, Note_on_c, 0, 67, 80
1, 48360, Note_on_c, 0, 67, 0
1, 48360, Note_on_c, 0, 65, 80
1, 48360, Note_on_c, 1, 51, 0
1, 48360, Note_on_c, 1, 58, 80
1, 48480, Note_on_c, 0, 65, 0
1, 48480, Note_on_c, 0, 63, 80
1, 48480, Note_on_c, 1, 58, 0
1, 48480, Note_on_c, 1, 60, 80
1, 48570, Note_on_c, 0, 63, 0
1, 48570, Note_on_c, 0, 68, 80
1, 48600, Note_on_c, 0, 68, 0
1, 48600, Note_on_c, 0, 68, 80
1, 48630, Note_on_c, 0, 68, 0
1, 48630, Note_on_c, 0, 70, 80
1, 48660, Note_on_c, 0, 70, 0
1, 48660, Note_on_c, 0, 68, 80
1, 48680, Note_on_c, 0, 68, 0
1, 48680, Note_on_c, 0, 70, 80
1, 48700, Note_on_c, 0, 70, 0
1, 48700, Note_on_c, 0, 68, 80
1, 48720, Note_on_c, 0, 68, 0
1, 48720, Note_on_c, 0, 65, 80
1, 48720, Note_on_c, 1, 60, 0
1, 48720, Note_on_c, 1, 62, 80
1, 48810, Note_on_c, 0, 65, 0
1, 48810, Note_on_c, 0, 70, 80
1, 48840, Note_on_c, 0, 70, 0
1, 48840, Note_on_c, 0, 70, 80
1, 48870, Note_on_c, 0, 70, 0
1, 48870, Note_on_c, 0, 72, 80
1, 48900, Note_on_c, 0, 72, 0
1, 48900, Note_on_c, 0, 70, 80
1, 48920, Note_on_c, 0, 70, 0
1, 48920, Note_on_c, 0, 72, 80
1, 48940, Note_on_c, 0, 72, 0
1, 48940, Note_on_c, 0, 70, 80
1, 48960, Note_on_c, 0, 70, 0
1, 48960, Note_on_c, 0, 68, 80
1, 48960, Note_on_c, 1, 62, 0
1, 48960, Note_on_c, 1, 63, 80
1, 49080, Note_on_c, 0, 68, 0
1, 49080, Note_on_c, 0, 67, 80
1, 49170, Note_on_c, 0, 67, 0
1, 49170, Note_on_c, 0, 79, 80
1, 49200, Note_on_c, 0, 79, 0
1, 49200, Note_on_c, 0, 75, 80
1, 49200, Note_on_c, 1, 63, 0
1, 49272, Note_on_c, 0, 75, 0
1, 49320, Note_on_c, 1, 55, 80
1, 49320, Note_on_c, 1, 58, 80
1, 49380, Note_on_c, 1, 58, 0
1, 49380, Note_on_c, 1, 55, 0
1, 49410, Note_on_c, 0, 75, 80
1, 49440, Note_on_c, 0, 75, 0
1, 49440, Note_on_c, 0, 72, 80
1, 49512, Note_on_c, 0, 72, 0
1, 49560, Note_on_c, 1, 60, 80
1, 49560, Note_on_c, 1, 56, 80
1, 49620, Note_on_c, 1, 56, 0
1, 49620, Note_on_c, 1, 60, 0
1, 49650, Note_on_c, 0, 72, 80
1, 49680, Note_on_c, 0, 72, 0
1, 49680, Note_on_c, 0, 70, 80
1, 49770, Note_on_c, 0, 70, 0
1, 49770, Note_on_c, 0, 68, 80
1, 49800, Note_on_c, 0, 68, 0
1, 49800, Note_on_c, 0, 65, 80
1, 49800, Note_on_c, 1, 56, 80
1, 49800, Note_on_c, 1, 46, 80
1, 49860, Note_on_c, 1, 46, 0
1, 49860, Note_on_c, 1, 56, 0
1, 49890, Note_on_c, 0, 65, 0
1, 49890, Note_on_c, 0, 62, 80
1, 49920, Note_on_c, 0, 62, 0
1, 49920, Note_on_c, 0, 63, 80
1, 49992, Note_on_c, 0, 63, 0
1, 50040, Note_on_c, 1, 51, 56
1, 50040, Note_on_c, 1, 55, 56
1, 50100, Note_on_c, 0, 79, 56
1, 50100, Note_on_c, 1, 55, 0
1, 50100, Note_on_c, 1, 51, 0
1, 50160, Note_on_c, 0, 79, 0
1, 50160, Note_on_c, 0, 74, 56
1, 50190, Note_on_c, 0, 74, 0
1, 50190, Note_on_c, 0, 77, 56
1, 50220, Note_on_c, 0, 77, 0
1, 50220, Note_on_c, 0, 75, 56
1, 50244, Note_on_c, 0, 75, 0
1, 50280, Note_on_c, 1, 55, 56
1, 50280, Note_on_c, 1, 58, 56
1, 50340, Note_on_c, 0, 75, 56
1, 50340, Note_on_c, 1, 58, 0
1, 50340, Note_on_c, 1, 55, 0
1, 50400, Note_on_c, 0, 75, 0
1, 50400, Note_on_c, 0, 71, 56
1, 50430, Note_on_c, 0, 71, 0
1, 50430, Note_on_c, 0, 74, 57
1, 50460, Note_on_c, 0, 74, 0
1, 50460, Note_on_c, 0, 72, 57
1, 50520, Note_on_c, 0, 72, 0
1, 50520, Note_on_c, 1, 56, 58
1, 50520, Note_on_c, 1, 60, 58
1, 50580, Note_on_c, 0, 80, 59
1, 50580, Note_on_c, 1, 60, 0
1, 50580, Note_on_c, 1, 56, 0
1, 50640, Note_on_c, 0, 80, 0
1, 50640, Note_on_c, 0, 76, 60
1, 50670, Note_on_c, 0, 76, 0
1, 50670, Note_on_c, 0, 79, 61
1, 50700, Note_on_c, 0, 79, 0
1, 50700, Note_on_c, 0, 77, 61
1, 50724, Note_on_c, 0, 77, 0
1, 50760, Note_on_c, 1, 57, 62
1, 50760, Note_on_c, 1, 60, 62
1, 50820, Note_on_c, 0, 75, 63
1, 50880, Note_on_c, 0, 75, 0
1, 50880, Note_on_c, 0, 73, 64
1, 50880, Note_on_c, 1, 60, 0
1, 50880, Note_on_c, 1, 57, 0
1, 50910, Note_on_c, 0, 73, 0
1, 50910, Note_on_c, 0, 75, 65
1, 50940, Note_on_c, 0, 75, 0
1, 50940, Note_on_c, 0, 74, 65
1, 51000, Note_on_c, 0, 74, 0
1, 51000, Note_on_c, 1, 58, 66
1, 51000, Note_on_c, 1, 62, 66
1, 51060, Note_on_c, 0, 82, 67
1, 51120, Note_on_c, 0, 82, 0
1, 51120, Note_on_c, 0, 81, 68
1, 51120, Note_on_c, 1, 62, 0
1, 51120, Note_on_c, 1, 58, 0
1, 51150, Note_on_c, 0, 81, 0
1, 51150, Note_on_c, 0, 84, 69
1, 51180, Note_on_c, 0, 84, 0
1, 51180, Note_on_c, 0, 82, 69
1, 51204, Note_on_c, 0, 82, 0
1, 51240, Note_on_c, 1, 60, 70
1, 51240, Note_on_c, 1, 63, 70
1, 51300, Note_on_c, 0, 82, 71
1, 51360, Note_on_c, 0, 82, 0
1, 51360, Note_on_c, 0, 81, 72
1, 51360, Note_on_c, 1, 63, 0
1, 51360, Note_on_c, 1, 60, 0
1, 51390, Note_on_c, 0, 81, 0
1, 51390, Note_on_c, 0, 84, 71
1, 51420, Note_on_c, 0, 84, 0
1, 51420, Note_on_c, 0, 82, 71
1, 51444, Note_on_c, 0, 82, 0
1, 51480, Note_on_c, 1, 65, 70
1, 51480, Note_on_c, 1, 62, 70
1, 51540, Note_on_c, 0, 82, 69
1, 51600, Note_on_c, 0, 82, 0
1, 51600, Note_on_c, 0, 81, 68
1, 51600, Note_on_c, 1, 62, 0
1, 51600, Note_on_c, 1, 65, 0
1, 51630, Note_on_c, 0, 81, 0
1, 51630, Note_on_c, 0, 84, 67
1, 51660, Note_on_c, 0, 84, 0
1, 51660, Note_on_c, 0, 82, 67
1, 51684, Note_on_c, 0, 82, 0
1, 51720, Note_on_c, 1, 63, 66
1, 51720, Note_on_c, 1, 67, 66
1, 51780, Note_on_c, 0, 82, 65
1, 51840, Note_on_c, 0, 82, 0
1, 51840, Note_on_c, 0, 79, 64
1, 51840, Note_on_c, 1, 67, 0
1, 51840, Note_on_c, 1, 63, 0
1, 51870, Note_on_c, 0, 79, 0
1, 51870, Note_on_c, 0, 82, 63
1, 51900, Note_on_c, 0, 82, 0
1, 51900, Note_on_c, 0, 80, 63
1, 51924, Note_on_c, 0, 80, 0
1, 51960, Note_on_c, 1, 65, 62
1, 51960, Note_on_c, 1, 68, 62
1, 52020, Note_on_c, 0, 80, 61
1, 52080, Note_on_c, 0, 80, 0
1, 52080, Note_on_c, 0, 79, 60
1, 52080, Note_on_c, 1, 68, 0
1, 52080, Note_on_c, 1, 65, 0
1, 52110, Note_on_c, 0, 79, 0
1, 52110, Note_on_c, 0, 82, 59
1, 52140, Note_on_c, 0, 82, 0
1, 52140, Note_on_c, 0, 80, 59
1, 52164, Note_on_c, 0, 80, 0
1, 52200, Note_on_c, 1, 58, 58
1, 52200, Note_on_c, 1, 62, 58
1, 52200, Note_on_c, 1, 65, 58
1, 52200, Note_on_c, 1, 68, 58
1, 52260, Note_on_c, 0, 80, 57
1, 52320, Note_on_c, 0, 80, 0
1, 52320, Note_on_c, 0, 87, 56
1, 52320, Note_on_c, 1, 68, 0
1, 52320, Note_on_c, 1, 58, 0
1, 52320, Note_on_c, 1, 62, 0
1, 52320, Note_on_c, 1, 65, 0
1, 52350, Note_on_c, 0, 87, 0
1, 52350, Note_on_c, 0, 86, 57
1, 52380, Note_on_c, 0, 86, 0
1, 52380, Note_on_c, 0, 89, 58
1, 52404, Note_on_c, 0, 89, 0
1, 52440, Note_on_c, 1, 58, 60
1, 52440, Note_on_c, 1, 62, 60
1, 52440, Note_on_c, 1, 65, 60
1, 52440, Note_on_c, 1, 68, 60
1, 52500, Note_on_c, 0, 80, 62
1, 52560, Note_on_c, 0, 80, 0
1, 52560, Note_on_c, 0, 87, 64
1, 52560, Note_on_c, 1, 68, 0
1, 52560, Note_on_c, 1, 58, 0
1, 52560, Note_on_c, 1, 62, 0
1, 52560, Note_on_c, 1, 65, 0
1, 52590, Note_on_c, 0, 87, 0
1, 52590, Note_on_c, 0, 86, 65
1, 52620, Note_on_c, 0, 86, 0
1, 52620, Note_on_c, 0, 89, 66
1, 52650, Note_on_c, 0, 89, 0
1, 52680, Note_on_c, 1, 58, 68
1, 52680, Note_on_c, 1, 62, 68
1, 52680, Note_on_c, 1, 65, 68
1, 52680, Note_on_c, 1, 68, 68
1, 52740, Note_on_c, 0, 80, 70
1, 52800, Note_on_c, 0, 80, 0
1, 52800, Note_on_c, 0, 87, 72
1, 52800, Note_on_c, 1, 68, 0
1, 52800, Note_on_c, 1, 58, 0
1, 52800, Note_on_c, 1, 62, 0
1, 52800, Note_on_c, 1, 65, 0
1, 52830, Note_on_c, 0, 87, 0
1, 52830, Note_on_c, 0, 86, 73
1, 52860, Note_on_c, 0, 86, 0
1, 52860, Note_on_c, 0, 89, 74
1, 52902, Note_on_c, 0, 89, 0
1, 52920, Note_on_c, 1, 58, 76
1, 52920, Note_on_c, 1, 62, 76
1, 52920, Note_on_c, 1, 65, 76
1, 52920, Note_on_c, 1, 68, 76
1, 52980, Note_on_c, 0, 80, 78
1, 53040, Note_on_c, 0, 80, 0
1, 53040, Note_on_c, 0, 87, 88
1, 53040, Note_on_c, 1, 68, 0
1, 53040, Note_on_c, 1, 58, 0
1, 53040, Note_on_c, 1, 62, 0
1, 53040, Note_on_c, 1, 65, 0
1, 53040, Note_on_c, 1, 58, 88
1, 53040, Note_on_c, 1, 62, 88
1, 53040, Note_on_c, 1, 65, 88
1, 53040, Note_on_c, 1, 68, 88
1, 53080, Note_on_c, 0, 87, 0
1, 53080, Note_on_c, 0, 86, 88
1, 53120, Note_on_c, 0, 86, 0
1, 53120, Note_on_c, 0, 89, 88
1, 53160, Note_on_c, 0, 89, 0
1, 53160, Note_on_c, 0, 87, 88
1, 53200, Note_on_c, 0, 87, 0
1, 53200, Note_on_c, 0, 86, 88
1, 53240, Note_on_c, 0, 86, 0
1, 53240, Note_on_c, 0, 84, 88
1, 53280, Note_on_c, 0, 84, 0
1, 53280, Note_on_c, 0, 82, 88
1, 53320, Note_on_c, 0, 82, 0
1, 53320, Note_on_c, 0, 80, 88
1, 53360, Note_on_c, 0, 80, 0
1, 53360, Note_on_c, 0, 79, 88
1, 53400, Note_on_c, 0, 79, 0
1, 53400, Note_on_c, 0, 82, 88
1, 53440, Note_on_c, 0, 82, 0
1, 53440, Note_on_c, 0, 80, 88
1, 53480, Note_on_c, 0, 80, 0
1, 53480, Note_on_c, 0, 84, 88
1, 53520, Note_on_c, 0, 84, 0
1, 53520, Note_on_c, 0, 82, 88
1, 53550, Note_on_c, 0, 82, 0
1, 53550, Note_on_c, 0, 80, 88
1, 53580, Note_on_c, 0, 80, 0
1, 53580, Note_on_c, 0, 79, 88
1, 53610, Note_on_c, 0, 79, 0
1, 53610, Note_on_c, 0, 77, 88
1, 53640, Note_on_c, 0, 77, 0
1, 53640, Note_on_c, 0, 75, 88
1, 53670, Note_on_c, 0, 75, 0
1, 53670, Note_on_c, 0, 74, 88
1, 53700, Note_on_c, 0, 74, 0
1, 53700, Note_on_c, 0, 72, 88
1, 53730, Note_on_c, 0, 72, 0
1, 53730, Note_on_c, 0, 70, 88
1, 53760, Note_on_c, 0, 70, 0
1, 53760, Note_on_c, 0, 68, 88
1, 53760, Note_on_c, 1, 68, 0
1, 54240, Note_on_c, 1, 58, 0
1, 54240, Note_on_c, 1, 62, 0
1, 54240, Note_on_c, 1, 65, 0
1, 54300, Note_on_c, 0, 68, 0
1, 54300, Note_on_c, 0, 67, 79
1, 54330, Note_on_c, 0, 67, 0
1, 54330, Note_on_c, 0, 68, 76
1, 54360, Note_on_c, 0, 68, 0
1, 54360, Note_on_c, 0, 70, 74
1, 54390, Note_on_c, 0, 70, 0
1, 54390, Note_on_c, 0, 68, 71
1, 54420, Note_on_c, 0, 68, 0
1, 54420, Note_on_c, 0, 67, 69
1, 54450, Note_on_c, 0, 67, 0
1, 54450, Note_on_c, 0, 65, 66
1, 54480, Note_on_c, 0, 65, 0
1, 54480, Note_on_c, 0, 63, 56
1, 54540, Note_on_c, 0, 63, 0
1, 54600, Note_on_c, 0, 63, 56
1, 54600, Note_on_c, 1, 56, 56
1, 54600, Note_on_c, 1, 60, 56
1, 54720, Note_on_c, 0, 63, 0
1, 54720, Note_on_c, 0, 63, 56
1, 54720, Note_on_c, 1, 60, 0
1, 54720, Note_on_c, 1, 56, 0
1, 54720, Note_on_c, 1, 55, 56
1, 54720, Note_on_c, 1, 58, 56
1, 54840, Note_on_c, 0, 63, 0
1, 54840, Note_on_c, 0, 63, 56
1, 54840, Note_on_c, 1, 58, 0
1, 54840, Note_on_c, 1, 55, 0
1, 54840, Note_on_c, 1, 53, 56
1, 54840, Note_on_c, 1, 56, 56
1, 54960, Note_on_c, 0, 63, 0
1, 54960, Note_on_c, 0, 63, 56
1, 54960, Note_on_c, 1, 56, 0
1, 54960, Note_on_c, 1, 53, 0
1, 54960, Note_on_c, 1, 51, 56
1, 54960, Note_on_c, 1, 55, 56
1, 55008, Note_on_c, 0, 63, 0
1, 55008, Note_on_c, 1, 55, 0
1, 55008, Note_on_c, 1, 51, 0
1, 55080, Note_on_c, 0, 63, 56
1, 55080, Note_on_c, 1, 56, 56
1, 55080, Note_on_c, 1, 60, 56
1, 55170, Note_on_c, 0, 63, 0
1, 55170, Note_on_c, 0, 63, 56
1, 55200, Note_on_c, 0, 63, 0
1, 55200, Note_on_c, 0, 63, 56
1, 55200, Note_on_c, 1, 60, 0
1, 55200, Note_on_c, 1, 56, 0
1, 55200, Note_on_c, 1, 55, 56
1, 55200, Note_on_c, 1, 58, 56
1, 55290, Note_on_c, 0, 63, 0
1, 55290, Note_on_c, 0, 63, 56
1, 55320, Note_on_c, 0, 63, 0
1, 55320, Note_on_c, 0, 63, 56
1, 55320, Note_on_c, 1, 58, 0
1, 55320, Note_on_c, 1, 55, 0
1, 55320, Note_on_c, 1, 53, 56
1, 55320, Note_on_c, 1, 56, 56
1, 55410, Note_on_c, 0, 63, 0
1, 55410, Note_on_c, 0, 63, 56
1, 55440, Note_on_c, 0, 63, 0
1, 55440, Note_on_c, 0, 63, 56
1, 55440, Note_on_c, 1, 56, 0
1, 55440, Note_on_c, 1, 53, 0
1, 55440, Note_on_c, 1, 51, 56
1, 55440, Note_on_c, 1, 55, 56
1, 55488, Note_on_c, 0, 63, 0
1, 55488, Note_on_c, 1, 55, 0
1, 55488, Note_on_c, 1, 51, 0
1, 55560, Note_on_c, 0, 63, 59
1, 55560, Note_on_c, 0, 65, 59
1, 55560, Note_on_c, 1, 60, 59
1, 55650, Note_on_c, 0, 65, 0
1, 55650, Note_on_c, 0, 63, 0
1, 55650, Note_on_c, 0, 63, 61
1, 55650, Note_on_c, 0, 65, 61
1, 55680, Note_on_c, 0, 65, 0
1, 55680, Note_on_c, 0, 63, 0
1, 55680, Note_on_c, 0, 63, 62
1, 55680, Note_on_c, 0, 65, 62
1, 55680, Note_on_c, 1, 60, 0
1, 55680, Note_on_c, 1, 58, 62
1, 55770, Note_on_c, 0, 65, 0
1, 55770, Note_on_c, 0, 63, 0
1, 55770, Note_on_c, 0, 63, 64
1, 55770, Note_on_c, 0, 65, 64
1, 55800, Note_on_c, 0, 65, 0
1, 55800, Note_on_c, 0, 63, 0
1, 55800, Note_on_c, 0, 63, 65
1, 55800, Note_on_c, 0, 65, 65
1, 55800, Note_on_c, 1, 58, 0
1, 55800, Note_on_c, 1, 57, 65
1, 55890, Note_on_c, 0, 65, 0
1, 55890, Note_on_c, 0, 63, 0
1, 55890, Note_on_c, 0, 63, 67
1, 55890, Note_on_c, 0, 65, 67
1, 55920, Note_on_c, 0, 65, 0
1, 55920, Note_on_c, 0, 63, 0
1, 55920, Note_on_c, 0, 62, 68
1, 55920, Note_on_c, 0, 65, 68
1, 55920, Note_on_c, 1, 57, 0
1, 55920, Note_on_c, 1, 58, 68
1, 55980, Note_on_c, 0, 65, 0
1, 55980, Note_on_c, 0, 62, 0
1, 55980, Note_on_c, 1, 58, 0
1, 56040, Note_on_c, 0, 62, 71
1, 56040, Note_on_c, 0, 70, 71
1, 56040, Note_on_c, 1, 34, 71
1, 56040, Note_on_c, 1, 46, 71
1, 56130, Note_on_c, 0, 70, 0
1, 56130, Note_on_c, 0, 62, 0
1, 56130, Note_on_c, 0, 62, 73
1, 56130, Note_on_c, 0, 70, 73
1, 56160, Note_on_c, 0, 70, 0
1, 56160, Note_on_c, 0, 62, 0
1, 56160, Note_on_c, 0, 63, 74
1, 56160, Note_on_c, 0, 70, 74
1, 56160, Note_on_c, 1, 46, 0
1, 56160, Note_on_c, 1, 34, 0
1, 56160, Note_on_c, 1, 36, 74
1, 56160, Note_on_c, 1, 48, 74
1, 56250, Note_on_c, 0, 70, 0
1, 56250, Note_on_c, 0, 63, 0
1, 56250, Note_on_c, 0, 63, 76
1, 56250, Note_on_c, 0, 70, 76
1, 56280, Note_on_c, 0, 70, 0
1, 56280, Note_on_c, 0, 63, 0
1, 56280, Note_on_c, 0, 65, 77
1, 56280, Note_on_c, 0, 68, 77
1, 56280, Note_on_c, 1, 48, 0
1, 56280, Note_on_c, 1, 36, 0
1, 56280, Note_on_c, 1, 38, 77
1, 56280, Note_on_c, 1, 50, 77
1, 56370, Note_on_c, 0, 68, 0
1, 56370, Note_on_c, 0, 65, 0
1, 56370, Note_on_c, 0, 65, 79
1, 56370, Note_on_c, 0, 68, 79
1, 56400, Note_on_c, 0, 68, 0
1, 56400, Note_on_c, 0, 65, 0
1, 56400, Note_on_c, 0, 67, 80
1, 56400, Note_on_c, 1, 50, 0
1, 56400, Note_on_c, 1, 38, 0
1, 56400, Note_on_c, 1, 39, 80
1, 56400, Note_on_c, 1, 51, 80
1, 56430, Note_on_c, 0, 67, 0
1, 56430, Note_on_c, 0, 70, 80
1, 56460, Note_on_c, 0, 70, 0
1, 56460, Note_on_c, 0, 68, 80
1, 56490, Note_on_c, 0, 68, 0
1, 56490, Note_on_c, 0, 67, 80
1, 56520, Note_on_c, 0, 67, 0
1, 56520, Note_on_c, 0, 68, 80
1, 56550, Note_on_c, 0, 68, 0
1, 56550, Note_on_c, 0, 70, 80
1, 56580, Note_on_c, 0, 70, 0
1, 56580, Note_on_c, 0, 72, 80
1, 56610, Note_on_c, 0, 72, 0
1, 56610, Note_on_c, 0, 74, 80
1, 56640, Note_on_c, 0, 74, 0
1, 56640, Note_on_c, 0, 75, 80
1, 56640, Note_on_c, 1, 51, 0
1, 56640, Note_on_c, 1, 39, 0
1, 56670, Note_on_c, 0, 75, 0
1, 56670, Note_on_c, 0, 77, 80
1, 56700, Note_on_c, 0, 77, 0
1, 56700, Note_on_c, 0, 79, 80
1, 56730, Note_on_c, 0, 79, 0
1, 56730, Note_on_c, 0, 80, 80
1, 56760, Note_on_c, 0, 80, 0
1, 56760, Note_on_c, 0, 82, 80
1, 56790, Note_on_c, 0, 82, 0
1, 56790, Note_on_c, 0, 80, 80
1, 56820, Note_on_c, 0, 80, 0
1, 56820, Note_on_c, 0, 79, 80
1, 56850, Note_on_c, 0, 79, 0
1, 56850, Note_on_c, 0, 77, 80
1, 56880, Note_on_c, 0, 77, 0
1, 56880, Note_on_c, 0, 75, 80
1, 56880, Note_on_c, 1, 51, 80
1, 56880, Note_on_c, 1, 55, 80
1, 56880, Note_on_c, 1, 58, 80
1, 56910, Note_on_c, 0, 75, 0
1, 56910, Note_on_c, 0, 74, 80
1, 56940, Note_on_c, 0, 74, 0
1, 56940, Note_on_c, 0, 72, 80
1, 56970, Note_on_c, 0, 72, 0
1, 56970, Note_on_c, 0, 70, 80
1, 57000, Note_on_c, 0, 70, 0
1, 57000, Note_on_c, 0, 72, 80
1, 57030, Note_on_c, 0, 72, 0
1, 57030, Note_on_c, 0, 74, 80
1, 57060, Note_on_c, 0, 74, 0
1, 57060, Note_on_c, 0, 75, 80
1, 57090, Note_on_c, 0, 75, 0
1, 57090, Note_on_c, 0, 77, 80
1, 57120, Note_on_c, 0, 77, 0
1, 57120, Note_on_c, 0, 79, 80
1, 57120, Note_on_c, 1, 58, 0
1, 57120, Note_on_c, 1, 55, 0
1, 57120, Note_on_c, 1, 51, 0
1, 57150, Note_on_c, 0, 79, 0
1, 57150, Note_on_c, 0, 77, 80
1, 57180, Note_on_c, 0, 77, 0
1, 57180, Note_on_c, 0, 75, 80
1, 57210, Note_on_c, 0, 75, 0
1, 57210, Note_on_c, 0, 74, 80
1, 57240, Note_on_c, 0, 74, 0
1, 57240, Note_on_c, 0, 72, 80
1, 57270, Note_on_c, 0, 72, 0
1, 57270, Note_on_c, 0, 70, 80
1, 57300, Note_on_c, 0, 70, 0
1, 57300, Note_on_c, 0, 68, 80
1, 57330, Note_on_c, 0, 68, 0
1, 57330, Note_on_c, 0, 67, 80
1, 57360, Note_on_c, 0, 67, 0
1, 57360, Note_on_c, 0, 65, 80
1, 57360, Note_on_c, 1, 44, 80
1, 57360, Note_on_c, 1, 48, 80
1, 57360, Note_on_c, 1, 53, 80
1, 57390, Note_on_c, 0, 65, 0
1, 57390, Note_on_c, 0, 67, 80
1, 57420, Note_on_c, 0, 67, 0
1, 57420, Note_on_c, 0, 68, 80
1, 57450, Note_on_c, 0, 68, 0
1, 57450, Note_on_c, 0, 70, 80
1, 57480, Note_on_c, 0, 70, 0
1, 57480, Note_on_c, 0, 72, 80
1, 57510, Note_on_c, 0, 72, 0
1, 57510, Note_on_c, 0, 70, 80
1, 57540, Note_on_c, 0, 70, 0
1, 57540, Note_on_c, 0, 68, 80
1, 57570, Note_on_c, 0, 68, 0
1, 57570, Note_on_c, 0, 67, 80
1, 57600, Note_on_c, 0, 67, 0
1, 57600, Note_on_c, 0, 65, 80
1, 57600, Note_on_c, 1, 53, 0
1, 57600, Note_on_c, 1, 48, 0
1, 57600, Note_on_c, 1, 44, 0
1, 57630, Note_on_c, 0, 65, 0
1, 57630, Note_on_c, 0, 67, 80
1, 57660, Note_on_c, 0, 67, 0
1, 57660, Note_on_c, 0, 65, 80
1, 57690, Note_on_c, 0, 65, 0
1, 57690, Note_on_c, 0, 63, 80
1, 57720, Note_on_c, 0, 63, 0
1, 57720, Note_on_c, 0, 62, 80
1, 57720, Note_on_c, 1, 45, 80
1, 57720, Note_on_c, 1, 48, 80
1, 57720, Note_on_c, 1, 53, 80
1, 57750, Note_on_c, 0, 62, 0
1, 57750, Note_on_c, 0, 63, 80
1, 57768, Note_on_c, 1, 53, 0
1, 57768, Note_on_c, 1, 48, 0
1, 57768, Note_on_c, 1, 45, 0
1, 57780, Note_on_c, 0, 63, 0
1, 57780, Note_on_c, 0, 62, 80
1, 57810, Note_on_c, 0, 62, 0
1, 57810, Note_on_c, 0, 60, 80
1, 57840, Note_on_c, 0, 60, 0
1, 57840, Note_on_c, 0, 58, 80
1, 57840, Note_on_c, 1, 46, 80
1, 57840, Note_on_c, 1, 50, 80
1, 57840, Note_on_c, 1, 53, 80
1, 57900, Note_on_c, 0, 58, 0
1, 57900, Note_on_c, 0, 60, 80
1, 57930, Note_on_c, 0, 60, 0
1, 57930, Note_on_c, 0, 62, 80
1, 57960, Note_on_c, 0, 62, 0
1, 57960, Note_on_c, 0, 63, 80
1, 57990, Note_on_c, 0, 63, 0
1, 57990, Note_on_c, 0, 65, 80
1, 58020, Note_on_c, 0, 65, 0
1, 58020, Note_on_c, 0, 67, 80
1, 58050, Note_on_c, 0, 67, 0
1, 58050, Note_on_c, 0, 69, 80
1, 58080, Note_on_c, 0, 69, 0
1, 58080, Note_on_c, 0, 70, 80
1, 58080, Note_on_c, 1, 53, 0
1, 58080, Note_on_c, 1, 50, 0
1, 58080, Note_on_c, 1, 46, 0
1, 58140, Note_on_c, 0, 70, 0
1, 58140, Note_on_c, 0, 72, 80
1, 58170, Note_on_c, 0, 72, 0
1, 58170, Note_on_c, 0, 74, 80
1, 58200, Note_on_c, 0, 74, 0
1, 58200, Note_on_c, 0, 75, 80
1, 58230, Note_on_c, 0, 75, 0
1, 58230, Note_on_c, 0, 77, 80
1, 58260, Note_on_c, 0, 77, 0
1, 58260, Note_on_c, 0, 79, 80
1, 58290, Note_on_c, 0, 79, 0
1, 58290, Note_on_c, 0, 81, 80
1, 58320, Note_on_c, 0, 81, 0
1, 58320, Note_on_c, 0, 82, 80
1, 58320, Note_on_c, 1, 34, 80
1, 58320, Note_on_c, 1, 46, 80
1, 58380, Note_on_c, 0, 82, 0
1, 58380, Note_on_c, 1, 46, 0
1, 58380, Note_on_c, 1, 34, 0
1, 58440, Note_on_c, 0, 82, 80
1, 58440, Note_on_c, 1, 56, 80
1, 58440, Note_on_c, 1, 58, 80
1, 58440, Note_on_c, 1, 62, 80
1, 58440, Note_on_c, 1, 65, 80
1, 58470, Note_on_c, 0, 82, 0
1, 58470, Note_on_c, 0, 81, 80
1, 58500, Note_on_c, 0, 81, 0
1, 58500, Note_on_c, 0, 82, 80
1, 58530, Note_on_c, 0, 82, 0
1, 58530, Note_on_c, 0, 84, 80
1, 58560, Note_on_c, 0, 84, 0
1, 58560, Note_on_c, 0, 82, 80
1, 58560, Note_on_c, 1, 65, 0
1, 58560, Note_on_c, 1, 56, 0
1, 58560, Note_on_c, 1, 58, 0
1, 58560, Note_on_c, 1, 62, 0
1, 58560, Note_on_c, 1, 56, 80
1, 58560, Note_on_c, 1, 58, 80
1, 58560, Note_on_c, 1, 62, 80
1, 58560, Note_on_c, 1, 65, 80
1, 58590, Note_on_c, 0, 82, 0
1, 58590, Note_on_c, 0, 81, 80
1, 58620, Note_on_c, 0, 81, 0
1, 58620, Note_on_c, 0, 82, 80
1, 58650, Note_on_c, 0, 82, 0
1, 58650, Note_on_c, 0, 84, 80
1, 58680, Note_on_c, 0, 84, 0
1, 58680, Note_on_c, 0, 82, 80
1, 58680, Note_on_c, 1, 65, 0
1, 58680, Note_on_c, 1, 56, 0
1, 58680, Note_on_c, 1, 58, 0
1, 58680, Note_on_c, 1, 62, 0
1, 58680, Note_on_c, 1, 56, 80
1, 58680, Note_on_c, 1, 58, 80
1, 58680, Note_on_c, 1, 62, 80
1, 58680, Note_on_c, 1, 65, 80
1, 58710, Note_on_c, 0, 82, 0
1, 58710, Note_on_c, 0, 80, 80
1, 58740, Note_on_c, 0, 80, 0
1, 58740, Note_on_c, 0, 79, 80
1, 58770, Note_on_c, 0, 79, 0
1, 58770, Note_on_c, 0, 77, 80
1, 58800, Note_on_c, 0, 77, 0
1, 58800, Note_on_c, 0, 75, 80
1, 58800, Note_on_c, 1, 65, 0
1, 58800, Note_on_c, 1, 56, 0
1, 58800, Note_on_c, 1, 58, 0
1, 58800, Note_on_c, 1, 62, 0
1, 58800, Note_on_c, 1, 55, 80
1, 58800, Note_on_c, 1, 58, 80
1, 58800, Note_on_c, 1, 63, 80
1, 58860, Note_on_c, 0, 75, 0
1, 58860, Note_on_c, 1, 63, 0
1, 58860, Note_on_c, 1, 58, 0
1, 58860, Note_on_c, 1, 55, 0
1, 58920, Note_on_c, 0, 82, 56
1, 58920, Note_on_c, 1, 56, 56
1, 58920, Note_on_c, 1, 58, 56
1, 58920, Note_on_c, 1, 62, 56
1, 58920, Note_on_c, 1, 65, 56
1, 58950, Note_on_c, 0, 82, 0
1, 58950, Note_on_c, 0, 81, 56
1, 58980, Note_on_c, 0, 81, 0
1, 58980, Note_on_c, 0, 82, 56
1, 59010, Note_on_c, 0, 82, 0
1, 59010, Note_on_c, 0, 84, 56
1, 59040, Note_on_c, 0, 84, 0
1, 59040, Note_on_c, 0, 82, 56
1, 59040, Note_on_c, 1, 65, 0
1, 59040, Note_on_c, 1, 56, 0
1, 59040, Note_on_c, 1, 58, 0
1, 59040, Note_on_c, 1, 62, 0
1, 59040, Note_on_c, 1, 56, 56
1, 59040, Note_on_c, 1, 58, 56
1, 59040, Note_on_c, 1, 62, 56
1, 59040, Note_on_c, 1, 65, 56
1, 59070, Note_on_c, 0, 82, 0
1, 59070, Note_on_c, 0, 81, 56
1, 59100, Note_on_c, 0, 81, 0
1, 59100, Note_on_c, 0, 82, 56
1, 59130, Note_on_c, 0, 82, 0
1, 59130, Note_on_c, 0, 84, 56
1, 59160, Note_on_c, 0, 84, 0
1, 59160, Note_on_c, 0, 82, 56
1, 59160, Note_on_c, 1, 65, 0
1, 59160, Note_on_c, 1, 56, 0
1, 59160, Note_on_c, 1, 58, 0
1, 59160, Note_on_c, 1, 62, 0
1, 59160, Note_on_c, 1, 56, 56
1, 59160, Note_on_c, 1, 58, 56
1, 59160, Note_on_c, 1, 62, 56
1, 59160, Note_on_c, 1, 65, 56
1, 59190, Note_on_c, 0, 82, 0
1, 59190, Note_on_c, 0, 80, 56
1, 59220, Note_on_c, 0, 80, 0
1, 59220, Note_on_c, 0, 79, 56
1, 59250, Note_on_c, 0, 79, 0
1, 59250, Note_on_c, 0, 77, 56
1, 59280, Note_on_c, 0, 77, 0
1, 59280, Note_on_c, 0, 75, 56
1, 59280, Note_on_c, 1, 65, 0
1, 59280, Note_on_c, 1, 56, 0
1, 59280, Note_on_c, 1, 58, 0
1, 59280, Note_on_c, 1, 62, 0
1, 59280, Note_on_c, 1, 63, 56
1, 59280, Note_on_c, 1, 58, 56
1, 59280, Note_on_c, 1, 55, 56
1, 59340, Note_on_c, 0, 75, 0
1, 59340, Note_on_c, 1, 55, 0
1, 59340, Note_on_c, 1, 58, 0
1, 59340, Note_on_c, 1, 63, 0
1, 59400, Note_on_c, 0, 82, 80
1, 59400, Note_on_c, 1, 65, 80
1, 59400, Note_on_c, 1, 62, 80
1, 59400, Note_on_c, 1, 58, 80
1, 59400, Note_on_c, 1, 56, 80
1, 59430, Note_on_c, 0, 82, 0
1, 59430, Note_on_c, 0, 81, 80
1, 59460, Note_on_c, 0, 81, 0
1, 59460, Note_on_c, 0, 82, 80
1, 59490, Note_on_c, 0, 82, 0
1, 59490, Note_on_c, 0, 84, 80
1, 59520, Note_on_c, 0, 84, 0
1, 59520, Note_on_c, 0, 82, 80
1, 59520, Note_on_c, 1, 56, 0
1, 59520, Note_on_c, 1, 65, 0
1, 59520, Note_on_c, 1, 62, 0
1, 59520, Note_on_c, 1, 58, 0
1, 59520, Note_on_c, 1, 65, 80
1, 59520, Note_on_c, 1, 62, 80
1, 59520, Note_on_c, 1, 58, 80
1, 59520, Note_on_c, 1, 56, 80
1, 59550, Note_on_c, 0, 82, 0
1, 59550, Note_on_c, 0, 81, 80
1, 59580, Note_on_c, 0, 81, 0
1, 59580, Note_on_c, 0, 82, 80
1, 59610, Note_on_c, 0, 82, 0
1, 59610, Note_on_c, 0, 84, 80
1, 59640, Note_on_c, 0, 84, 0
1, 59640, Note_on_c, 0, 82, 80
1, 59640, Note_on_c, 1, 56, 0
1, 59640, Note_on_c, 1, 65, 0
1, 59640, Note_on_c, 1, 62, 0
1, 59640, Note_on_c, 1, 58, 0
1, 59640, Note_on_c, 1, 65, 80
1, 59640, Note_on_c, 1, 62, 80
1, 59640, Note_on_c, 1, 58, 80
1, 59640, Note_on_c, 1, 56, 80
1, 59670, Note_on_c, 0, 82, 0
1, 59670, Note_on_c, 0, 80, 80
1, 59700, Note_on_c, 0, 80, 0
1, 59700, Note_on_c, 0, 79, 80
1, 59730, Note_on_c, 0, 79, 0
1, 59730, Note_on_c, 0, 77, 80
1, 59760, Note_on_c, 0, 77, 0
1, 59760, Note_on_c, 0, 75, 80
1, 59760, Note_on_c, 1, 56, 0
1, 59760, Note_on_c, 1, 65, 0
1, 59760, Note_on_c, 1, 62, 0
1, 59760, Note_on_c, 1, 58, 0
1, 59760, Note_on_c, 1, 55, 80
1, 59760, Note_on_c, 1, 58, 80
1, 59760, Note_on_c, 1, 63, 80
1, 59820, Note_on_c, 0, 75, 0
1, 59820, Note_on_c, 0, 77, 80
1, 59850, Note_on_c, 0, 77, 0
1, 59850, Note_on_c, 0, 79, 80
1, 59880, Note_on_c, 0, 79, 0
1, 59880, Note_on_c, 0, 80, 80
1, 59910, Note_on_c, 0, 80, 0
1, 59910, Note_on_c, 0, 82, 80
1, 59940, Note_on_c, 0, 82, 0
1, 59940, Note_on_c, 0, 84, 80
1, 59970, Note_on_c, 0, 84, 0
1, 59970, Note_on_c, 0, 86, 80
1, 60000, Note_on_c, 0, 86, 0
1, 60000, Note_on_c, 0, 87, 80
1, 60000, Note_on_c, 1, 63, 0
1, 60000, Note_on_c, 1, 58, 0
1, 60000, Note_on_c, 1, 55, 0
1, 60030, Note_on_c, 0, 87, 0
1, 60030, Note_on_c, 0, 86, 80
1, 60060, Note_on_c, 0, 86, 0
1, 60060, Note_on_c, 0, 84, 80
1, 60090, Note_on_c, 0, 84, 0
1, 60090, Note_on_c, 0, 82, 80
1, 60120, Note_on_c, 0, 82, 0
1, 60120, Note_on_c, 0, 80, 80
1, 60150, Note_on_c, 0, 80, 0
1, 60150, Note_on_c, 0, 79, 80
1, 60180, Note_on_c, 0, 79, 0
1, 60180, Note_on_c, 0, 80, 80
1, 60210, Note_on_c, 0, 80, 0
1, 60210, Note_on_c, 0, 82, 80
1, 60240, Note_on_c, 0, 82, 0
1, 60240, Note_on_c, 0, 84, 80
1, 60240, Note_on_c, 1, 56, 80
1, 60240, Note_on_c, 1, 60, 80
1, 60240, Note_on_c, 1, 63, 80
1, 60270, Note_on_c, 0, 84, 0
1, 60270, Note_on_c, 0, 82, 80
1, 60300, Note_on_c, 0, 82, 0
1, 60300, Note_on_c, 0, 80, 80
1, 60330, Note_on_c, 0, 80, 0
1, 60330, Note_on_c, 0, 79, 80
1, 60360, Note_on_c, 0, 79, 0
1, 60360, Note_on_c, 0, 77, 80
1, 60390, Note_on_c, 0, 77, 0
1, 60390, Note_on_c, 0, 76, 80
1, 60420, Note_on_c, 0, 76, 0
1, 60420, Note_on_c, 0, 77, 80
1, 60450, Note_on_c, 0, 77, 0
1, 60450, Note_on_c, 0, 79, 80
1, 60480, Note_on_c, 0, 79, 0
1, 60480, Note_on_c, 0, 80, 80
1, 60480, Note_on_c, 1, 63, 0
1, 60480, Note_on_c, 1, 60, 0
1, 60480, Note_on_c, 1, 56, 0
1, 60510, Note_on_c, 0, 80, 0
1, 60510, Note_on_c, 0, 82, 80
1, 60540, Note_on_c, 0, 82, 0
1, 60540, Note_on_c, 0, 80, 80
1, 60570, Note_on_c, 0, 80, 0
1, 60570, Note_on_c, 0, 79, 80
1, 60600, Note_on_c, 0, 79, 0
1, 60600, Note_on_c, 0, 77, 80
1, 60600, Note_on_c, 1, 57, 80
1, 60600, Note_on_c, 1, 60, 80
1, 60600, Note_on_c, 1, 65, 80
1, 60630, Note_on_c, 0, 77, 0
1, 60630, Note_on_c, 0, 75, 80
1, 60660, Note_on_c, 0, 75, 0
1, 60660, Note_on_c, 0, 74, 80
1, 60660, Note_on_c, 1, 65, 0
1, 60660, Note_on_c, 1, 60, 0
1, 60660, Note_on_c, 1, 57, 0
1, 60690, Note_on_c, 0, 74, 0
1, 60690, Note_on_c, 0, 72, 80
1, 60720, Note_on_c, 0, 72, 0
1, 60720, Note_on_c, 0, 70, 80
1, 60720, Note_on_c, 1, 58, 80
1, 60720, Note_on_c, 1, 62, 80
1, 60720, Note_on_c, 1, 65, 80
1, 60750, Note_on_c, 0, 70, 0
1, 60750, Note_on_c, 0, 72, 80
1, 60780, Note_on_c, 0, 72, 0
1, 60780, Note_on_c, 0, 74, 80
1, 60810, Note_on_c, 0, 74, 0
1, 60810, Note_on_c, 0, 75, 80
1, 60840, Note_on_c, 0, 75, 0
1, 60840, Note_on_c, 0, 77, 80
1, 60840, Note_on_c, 1, 65, 0
1, 60840, Note_on_c, 1, 62, 0
1, 60840, Note_on_c, 1, 62, 80
1, 60870, Note_on_c, 0, 77, 0
1, 60870, Note_on_c, 0, 79, 80
1, 60900, Note_on_c, 0, 79, 0
1, 60900, Note_on_c, 0, 80, 80
1, 60930, Note_on_c, 0, 80, 0
1, 60930, Note_on_c, 0, 77, 80
1, 60960, Note_on_c, 0, 77, 0
1, 60960, Note_on_c, 0, 79, 80
1, 60960, Note_on_c, 1, 62, 0
1, 60960, Note_on_c, 1, 63, 80
1, 60990, Note_on_c, 0, 79, 0
1, 60990, Note_on_c, 0, 82, 80
1, 61020, Note_on_c, 0, 82, 0
1, 61020, Note_on_c, 0, 80, 80
1, 61050, Note_on_c, 0, 80, 0
1, 61050, Note_on_c, 0, 79, 80
1, 61080, Note_on_c, 0, 79, 0
1, 61080, Note_on_c, 0, 77, 80
1, 61080, Note_on_c, 1, 63, 0
1, 61080, Note_on_c, 1, 67, 80
1, 61110, Note_on_c, 0, 77, 0
1, 61110, Note_on_c, 0, 75, 80
1, 61140, Note_on_c, 0, 75, 0
1, 61140, Note_on_c, 0, 74, 80
1, 61170, Note_on_c, 0, 74, 0
1, 61170, Note_on_c, 0, 72, 80
1, 61200, Note_on_c, 0, 72, 0
1, 61200, Note_on_c, 0, 70, 56
1, 61200, Note_on_c, 1, 67, 0
1, 61200, Note_on_c, 1, 58, 0
1, 61200, Note_on_c, 1, 58, 56
1, 61230, Note_on_c, 0, 70, 0
1, 61230, Note_on_c, 0, 72, 56
1, 61260, Note_on_c, 0, 72, 0
1, 61260, Note_on_c, 0, 74, 56
1, 61290, Note_on_c, 0, 74, 0
1, 61290, Note_on_c, 0, 75, 56
1, 61320, Note_on_c, 0, 75, 0
1, 61320, Note_on_c, 0, 77, 56
1, 61320, Note_on_c, 1, 62, 56
1, 61350, Note_on_c, 0, 77, 0
1, 61350, Note_on_c, 0, 79, 56
1, 61380, Note_on_c, 0, 79, 0
1, 61380, Note_on_c, 0, 80, 56
1, 61410, Note_on_c, 0, 80, 0
1, 61410, Note_on_c, 0, 77, 56
1, 61440, Note_on_c, 0, 77, 0
1, 61440, Note_on_c, 0, 79, 56
1, 61440, Note_on_c, 1, 62, 0
1, 61440, Note_on_c, 1, 63, 56
1, 61470, Note_on_c, 0, 79, 0
1, 61470, Note_on_c, 0, 82, 56
1, 61500, Note_on_c, 0, 82, 0
1, 61500, Note_on_c, 0, 80, 56
1, 61530, Note_on_c, 0, 80, 0
1, 61530, Note_on_c, 0, 79, 56
1, 61560, Note_on_c, 0, 79, 0
1, 61560, Note_on_c, 0, 77, 56
1, 61560, Note_on_c, 1, 63, 0
1, 61560, Note_on_c, 1, 67, 56
1, 61590, Note_on_c, 0, 77, 0
1, 61590, Note_on_c, 0, 75, 56
1, 61620, Note_on_c, 0, 75, 0
1, 61620, Note_on_c, 0, 74, 56
1, 61650, Note_on_c, 0, 74, 0
1, 61650, Note_on_c, 0, 72, 56
1, 61680, Note_on_c, 0, 72, 0
1, 61680, Note_on_c, 0, 70, 80
1, 61680, Note_on_c, 1, 67, 0
1, 61680, Note_on_c, 1, 58, 0
1, 61680, Note_on_c, 1, 58, 80
1, 61710, Note_on_c, 0, 70, 0
1, 61710, Note_on_c, 0, 72, 80
1, 61740, Note_on_c, 0, 72, 0
1, 61740, Note_on_c, 0, 74, 80
1, 61770, Note_on_c, 0, 74, 0
1, 61770, Note_on_c, 0, 75, 80
1, 61800, Note_on_c, 0, 75, 0
1, 61800, Note_on_c, 0, 77, 80
1, 61800, Note_on_c, 1, 62, 80
1, 61830, Note_on_c, 0, 77, 0
1, 61830, Note_on_c, 0, 79, 80
1, 61860, Note_on_c, 0, 79, 0
1, 61860, Note_on_c, 0, 80, 80
1, 61890, Note_on_c, 0, 80, 0
1, 61890, Note_on_c, 0, 77, 80
1, 61920, Note_on_c, 0, 77, 0
1, 61920, Note_on_c, 0, 79, 80
1, 61920, Note_on_c, 1, 62, 0
1, 61920, Note_on_c, 1, 63, 80
1, 61950, Note_on_c, 0, 79, 0
1, 61950, Note_on_c, 0, 82, 80
1, 61980, Note_on_c, 0, 82, 0
1, 61980, Note_on_c, 0, 80, 80
1, 62010, Note_on_c, 0, 80, 0
1, 62010, Note_on_c, 0, 79, 80
1, 62040, Note_on_c, 0, 79, 0
1, 62040, Note_on_c, 0, 77, 80
1, 62040, Note_on_c, 1, 63, 0
1, 62040, Note_on_c, 1, 67, 80
1, 62070, Note_on_c, 0, 77, 0
1, 62070, Note_on_c, 0, 75, 80
1, 62100, Note_on_c, 0, 75, 0
1, 62100, Note_on_c, 0, 74, 80
1, 62130, Note_on_c, 0, 74, 0
1, 62130, Note_on_c, 0, 72, 80
1, 62160, Note_on_c, 0, 72, 0
1, 62160, Note_on_c, 0, 70, 80
1, 62160, Note_on_c, 1, 67, 0
1, 62160, Note_on_c, 1, 58, 0
1, 62160, Note_on_c, 1, 58, 80
1, 62160, Note_on_c, 1, 62, 80
1, 62220, Note_on_c, 0, 70, 0
1, 62220, Note_on_c, 0, 72, 80
1, 62250, Note_on_c, 0, 72, 0
1, 62250, Note_on_c, 0, 74, 80
1, 62280, Note_on_c, 0, 74, 0
1, 62280, Note_on_c, 0, 75, 80
1, 62310, Note_on_c, 0, 75, 0
1, 62310, Note_on_c, 0, 77, 80
1, 62340, Note_on_c, 0, 77, 0
1, 62340, Note_on_c, 0, 79, 80
1, 62370, Note_on_c, 0, 79, 0
1, 62370, Note_on_c, 0, 80, 80
1, 62400, Note_on_c, 0, 80, 0
1, 62400, Note_on_c, 0, 82, 80
1, 62400, Note_on_c, 1, 62, 0
1, 62400, Note_on_c, 1, 58, 0
1, 62400, Note_on_c, 1, 34, 80
1, 62400, Note_on_c, 1, 46, 80
1, 62460, Note_on_c, 0, 82, 0
1, 62460, Note_on_c, 1, 46, 0
1, 62460, Note_on_c, 1, 34, 0
1, 62520, Note_on_c, 0, 74, 80
1, 62520, Note_on_c, 0, 82, 80
1, 62520, Note_on_c, 1, 34, 80
1, 62520, Note_on_c, 1, 46, 80
1, 62580, Note_on_c, 0, 82, 0
1, 62580, Note_on_c, 0, 74, 0
1, 62580, Note_on_c, 1, 46, 0
1, 62580, Note_on_c, 1, 34, 0
1, 62640, Note_on_c, 0, 74, 80
1, 62640, Note_on_c, 0, 82, 80
1, 62640, Note_on_c, 1, 34, 80
1, 62640, Note_on_c, 1, 46, 80
1, 62880, Note_on_c, 0, 82, 0
1, 62880, Note_on_c, 0, 74, 0
1, 62880, Note_on_c, 1, 46, 0
1, 62880, Note_on_c, 1, 34, 0
1, 63060, Note_on_c, 0, 55, 80
1, 63090, Note_on_c, 0, 55, 0
1, 63090, Note_on_c, 0, 58, 80
1, 63120, Note_on_c, 0, 58, 0
1, 63120, Note_on_c, 0, 63, 80
1, 63120, Note_on_c, 1, 39, 80
1, 63120, Note_on_c, 1, 43, 80
1, 63120, Note_on_c, 1, 46, 80
1, 63120, Note_on_c, 1, 51, 80
1, 63180, Note_on_c, 1, 51, 0
1, 63180, Note_on_c, 1, 39, 0
1, 63180, Note_on_c, 1, 43, 0
1, 63180, Note_on_c, 1, 46, 0
1, 63210, Note_on_c, 0, 63, 0
1, 63300, Note_on_c, 0, 58, 80
1, 63330, Note_on_c, 0, 58, 0
1, 63330, Note_on_c, 0, 63, 80
1, 63360, Note_on_c, 0, 63, 0
1, 63360, Note_on_c, 0, 67, 80
1, 63360, Note_on_c, 1, 39, 80
1, 63360, Note_on_c, 1, 43, 80
1, 63360, Note_on_c, 1, 46, 80
1, 63360, Note_on_c, 1, 51, 80
1, 63459, Note_on_c, 1, 51, 0
1, 63459, Note_on_c, 1, 39, 0
1, 63459, Note_on_c, 1, 43, 0
1, 63459, Note_on_c, 1, 46, 0
1, 63540, Note_on_c, 0, 67, 0
1, 63540, Note_on_c, 0, 63, 80
1, 63570, Note_on_c, 0, 63, 0
1, 63570, Note_on_c, 0, 67, 80
1, 63600, Note_on_c, 0, 67, 0
1, 63600, Note_on_c, 0, 70, 80
1, 63600, Note_on_c, 1, 39, 80
1, 63600, Note_on_c, 1, 43, 80
1, 63600, Note_on_c, 1, 46, 80
1, 63600, Note_on_c, 1, 51, 80
1, 63660, Note_on_c, 0, 70, 0
1, 63660, Note_on_c, 1, 51, 0
1, 63660, Note_on_c, 1, 39, 0
1, 63660, Note_on_c, 1, 43, 0
1, 63660, Note_on_c, 1, 46, 0
1, 63960, Note_on_c, 0, 75, 56
1, 64040, Note_on_c, 0, 75, 0
1, 64040, Note_on_c, 0, 77, 56
1, 64060, Note_on_c, 0, 77, 0
1, 64060, Note_on_c, 0, 79, 56
1, 64080, Note_on_c, 0, 79, 0
1, 64080, Note_on_c, 0, 70, 56
1, 64080, Note_on_c, 1, 63, 56
1, 64080, Note_on_c, 1, 67, 56
1, 64140, Note_on_c, 0, 70, 0
1, 64140, Note_on_c, 1, 67, 0
1, 64140, Note_on_c, 1, 63, 0
1, 64200, Note_on_c, 0, 75, 56
1, 64280, Note_on_c, 0, 75, 0
1, 64280, Note_on_c, 0, 77, 56
1, 64300, Note_on_c, 0, 77, 0
1, 64300, Note_on_c, 0, 79, 56
1, 64320, Note_on_c, 0, 79, 0
1, 64320, Note_on_c, 0, 69, 56
1, 64320, Note_on_c, 1, 63, 56
1, 64320, Note_on_c, 1, 65, 56
1, 64380, Note_on_c, 0, 69, 0
1, 64380, Note_on_c, 1, 65, 0
1, 64380, Note_on_c, 1, 63, 0
1, 64440, Note_on_c, 0, 74, 56
1, 64520, Note_on_c, 0, 74, 0
1, 64520, Note_on_c, 0, 75, 56
1, 64540, Note_on_c, 0, 75, 0
1, 64540, Note_on_c, 0, 77, 56
1, 64560, Note_on_c, 0, 77, 0
1, 64560, Note_on_c, 0, 68, 56
1, 64560, Note_on_c, 1, 62, 56
1, 64560, Note_on_c, 1, 65, 56
1, 64680, Note_on_c, 1, 59, 56
1, 64800, Note_on_c, 1, 59, 0
1, 64800, Note_on_c, 1, 58, 56
1, 64920, Note_on_c, 0, 68, 0
1, 64920, Note_on_c, 0, 67, 56
1, 64920, Note_on_c, 1, 58, 0
1, 64920, Note_on_c, 1, 65, 0
1, 64920, Note_on_c, 1, 62, 0
1, 64920, Note_on_c, 1, 63, 56
1, 65040, Note_on_c, 0, 67, 0
1, 65040, Note_on_c, 0, 67, 56
1, 65040, Note_on_c, 1, 63, 0
1, 65040, Note_on_c, 1, 63, 56
1, 65040, Note_on_c, 1, 56, 56
1, 65130, Note_on_c, 0, 67, 0
1, 65130, Note_on_c, 0, 65, 56
1, 65160, Note_on_c, 0, 65, 0
1, 65160, Note_on_c, 0, 68, 56
1, 65250, Note_on_c, 0, 68, 0
1, 65250, Note_on_c, 0, 72, 56
1, 65280, Tempo, 857143
1, 65280, Note_on_c, 0, 72, 0
1, 65280, Note_on_c, 0, 70, 56
1, 65280, Note_on_c, 1, 56, 0
1, 65280, Note_on_c, 1, 63, 0
1, 65280, Note_on_c, 1, 62, 56
1, 65280, Note_on_c, 1, 58, 56
1, 65400, Note_on_c, 0, 70, 0
1, 65400, Note_on_c, 0, 68, 56
1, 65400, Note_on_c, 0, 65, 56
1, 65400, Note_on_c, 1, 58, 0
1, 65400, Note_on_c, 1, 62, 0
1, 65400, Note_on_c, 1, 59, 56
1, 65460, Note_on_c, 0, 65, 0
1, 65460, Note_on_c, 0, 68, 0
1, 65460, Note_on_c, 0, 67, 56
1, 65480, Note_on_c, 0, 67, 0
1, 65480, Note_on_c, 0, 68, 56
1, 65500, Note_on_c, 0, 68, 0
1, 65500, Note_on_c, 0, 70, 56
1, 65520, Tempo, 1000000
1, 65520, Note_on_c, 0, 70, 0
1, 65520, Note_on_c, 0, 68, 56
1, 65520, Note_on_c, 0, 65, 56
1, 65520, Note_on_c, 1, 59, 0
1, 65520, Note_on_c, 1, 60, 56
1, 65760, Tempo, 1200000
1, 65760, Note_on_c, 0, 65, 0
1, 65760, Note_on_c, 0, 68, 0
1, 65760, Note_on_c, 0, 67, 56
1, 65760, Note_on_c, 0, 63, 56
1, 65832, Note_on_c, 0, 63, 0
1, 65832, Note_on_c, 0, 67, 0
1, 65832, Note_on_c, 1, 60, 0
1, 66000, Tempo, 750000
1, 66360, Note_on_c, 0, 75, 56
1, 66440, Note_on_c, 0, 75, 0
1, 66440, Note_on_c, 0, 77, 56
1, 66460, Note_on_c, 0, 77, 0
1, 66460, Note_on_c, 0, 79, 56
1, 66480, Note_on_c, 0, 79, 0
1, 66480, Note_on_c, 0, 70, 56
1, 66480, Note_on_c, 1, 67, 56
1, 66480, Note_on_c, 1, 63, 56
1, 66540, Note_on_c, 0, 70, 0
1, 66540, Note_on_c, 1, 63, 0
1, 66540, Note_on_c, 1, 67, 0
1, 66600, Note_on_c, 0, 75, 56
1, 66680, Note_on_c, 0, 75, 0
1, 66680, Note_on_c, 0, 77, 56
1, 66700, Note_on_c, 0, 77, 0
1, 66700, Note_on_c, 0, 79, 56
1, 66720, Note_on_c, 0, 79, 0
1, 66720, Note_on_c, 0, 69, 56
1, 66720, Note_on_c, 1, 65, 56
1, 66720, Note_on_c, 1, 63, 56
1, 66780, Note_on_c, 0, 69, 0
1, 66780, Note_on_c, 1, 63, 0
1, 66780, Note_on_c, 1, 65, 0
1, 66840, Note_on_c, 0, 74, 56
1, 66920, Note_on_c, 0, 74, 0
1, 66920, Note_on_c, 0, 75, 56
1, 66940, Note_on_c, 0, 75, 0
1, 66940, Note_on_c, 0, 77, 56
1, 66960, Note_on_c, 0, 77, 0
1, 66960, Note_on_c, 0, 68, 56
1, 66960, Note_on_c, 1, 65, 56
1, 66960, Note_on_c, 1, 62, 56
1, 67080, Note_on_c, 1, 59, 56
1, 67200, Note_on_c, 1, 59, 0
1, 67200, Note_on_c, 1, 58, 56
1, 67320, Note_on_c, 0, 68, 0
1, 67320, Note_on_c, 0, 67, 56
1, 67320, Note_on_c, 1, 58, 0
1, 67320, Note_on_c, 1, 62, 0
1, 67320, Note_on_c, 1, 65, 0
1, 67320, Note_on_c, 1, 63, 56
1, 67440, Note_on_c, 0, 67, 0
1, 67440, Note_on_c, 0, 72, 56
1, 67440, Note_on_c, 1, 56, 56
1, 67560, Note_on_c, 1, 63, 0
1, 67560, Note_on_c, 1, 64, 56
1, 67680, Note_on_c, 1, 64, 0
1, 67680, Note_on_c, 1, 65, 56
1, 67800, Note_on_c, 0, 72, 0
1, 67800, Note_on_c, 0, 77, 56
1, 67920, Note_on_c, 0, 77, 0
1, 67920, Note_on_c, 0, 75, 56
1, 67920, Note_on_c, 1, 56, 0
1, 67920, Note_on_c, 1, 58, 56
1, 68040, Note_on_c, 1, 65, 0
1, 68040, Note_on_c, 1, 65, 56
1, 68160, Note_on_c, 1, 68, 56
1, 68280, Note_on_c, 0, 75, 0
1, 68280, Note_on_c, 0, 74, 56
1, 68310, Note_on_c, 0, 74, 0
1, 68310, Note_on_c, 0, 75, 56
1, 68340, Note_on_c, 0, 75, 0
1, 68340, Note_on_c, 0, 77, 56
1, 68370, Note_on_c, 0, 77, 0
1, 68370, Note_on_c, 0, 79, 56
1, 68400, Note_on_c, 0, 79, 0
1, 68400, Note_on_c, 0, 80, 56
1, 68460, Note_on_c, 0, 80, 0
1, 68520, Note_on_c, 0, 80, 56
1, 68550, Note_on_c, 0, 80, 0
1, 68550, Note_on_c, 0, 79, 56
1, 68580, Note_on_c, 0, 79, 0
1, 68580, Note_on_c, 0, 77, 56
1, 68610, Note_on_c, 0, 77, 0
1, 68610, Note_on_c, 0, 75, 56
1, 68640, Note_on_c, 0, 75, 0
1, 68640, Note_on_c, 0, 74, 56
1, 68700, Note_on_c, 0, 74, 0
1, 68760, Note_on_c, 0, 77, 48
1, 68760, Note_on_c, 1, 68, 0
1, 68760, Note_on_c, 1, 65, 0
1, 68760, Note_on_c, 1, 58, 0
1, 68760, Note_on_c, 1, 62, 48
1, 68790, Note_on_c, 0, 77, 0
1, 68790, Note_on_c, 0, 79, 48
1, 68790, Note_on_c, 1, 62, 0
1, 68790, Note_on_c, 1, 63, 48
1, 68820, Note_on_c, 0, 79, 0
1, 68820, Note_on_c, 0, 80, 48
1, 68820, Note_on_c, 1, 63, 0
1, 68820, Note_on_c, 1, 65, 48
1, 68850, Note_on_c, 0, 80, 0
1, 68850, Note_on_c, 0, 82, 48
1, 68850, Note_on_c, 1, 65, 0
1, 68850, Note_on_c, 1, 67, 48
1, 68880, Note_on_c, 0, 82, 0
1, 68880, Note_on_c, 0, 84, 48
1, 68880, Note_on_c, 1, 67, 0
1, 68880, Note_on_c, 1, 68, 48
1, 68940, Note_on_c, 0, 84, 0
1, 68940, Note_on_c, 1, 68, 0
1, 69000, Note_on_c, 0, 84, 40
1, 69000, Note_on_c, 1, 68, 40
1, 69030, Note_on_c, 0, 84, 0
1, 69030, Note_on_c, 0, 82, 40
1, 69030, Note_on_c, 1, 68, 0
1, 69030, Note_on_c, 1, 67, 40
1, 69060, Note_on_c, 0, 82, 0
1, 69060, Note_on_c, 0, 80, 40
1, 69060, Note_on_c, 1, 67, 0
1, 69060, Note_on_c, 1, 65, 40
1, 69090, Note_on_c, 0, 80, 0
1, 69090, Note_on_c, 0, 79, 40
1, 69090, Note_on_c, 1, 65, 0
1, 69090, Note_on_c, 1, 63, 40
1, 69120, Note_on_c, 0, 79, 0
1, 69120, Note_on_c, 0, 77, 40
1, 69120, Note_on_c, 1, 63, 0
1, 69120, Note_on_c, 1, 62, 40
1, 69180, Note_on_c, 0, 77, 0
1, 69180, Note_on_c, 1, 62, 0
1, 69240, Note_on_c, 0, 77, 32
1, 69240, Note_on_c, 1, 62, 32
1, 69270, Note_on_c, 0, 77, 0
1, 69270, Note_on_c, 0, 79, 32
1, 69270, Note_on_c, 1, 62, 0
1, 69270, Note_on_c, 1, 63, 32
1, 69300, Note_on_c, 0, 79, 0
1, 69300, Note_on_c, 0, 80, 32
1, 69300, Note_on_c, 1, 63, 0
1, 69300, Note_on_c, 1, 65, 32
1, 69330, Note_on_c, 0, 80, 0
1, 69330, Note_on_c, 0, 82, 32
1, 69330, Note_on_c, 1, 65, 0
1, 69330, Note_on_c, 1, 67, 32
1, 69360, Note_on_c, 0, 82, 0
1, 69360, Note_on_c, 0, 84, 32
1, 69360, Note_on_c, 1, 67, 0
1, 69360, Note_on_c, 1, 68, 32
1, 69420, Note_on_c, 0, 84, 0
1, 69420, Note_on_c, 1, 68, 0
1, 70320, Note_on_c, 0, 79, 88
1, 70320, Note_on_c, 1, 39, 88
1, 70320, Note_on_c, 1, 43, 88
1, 70320, Note_on_c, 1, 46, 88
1, 70320, Note_on_c, 1, 51, 88
1, 70350, Note_on_c, 0, 79, 0
1, 70350, Note_on_c, 0, 77, 88
1, 70380, Note_on_c, 0, 77, 0
1, 70380, Note_on_c, 0, 75, 88
1, 70410, Note_on_c, 0, 75, 0
1, 70410, Note_on_c, 0, 74, 88
1, 70440, Note_on_c, 0, 74, 0
1, 70440, Note_on_c, 0, 75, 88
1, 70470, Note_on_c, 0, 75, 0
1, 70470, Note_on_c, 0, 74, 88
1, 70500, Note_on_c, 0, 74, 0
1, 70500, Note_on_c, 0, 72, 88
1, 70530, Note_on_c, 0, 72, 0
1, 70530, Note_on_c, 0, 70, 88
1, 70560, Note_on_c, 0, 70, 0
1, 70560, Note_on_c, 0, 68, 88
1, 70560, Note_on_c, 1, 51, 0
1, 70560, Note_on_c, 1, 39, 0
1, 70560, Note_on_c, 1, 43, 0
1, 70560, Note_on_c, 1, 46, 0
1, 70590, Note_on_c, 0, 68, 0
1, 70590, Note_on_c, 0, 67, 88
1, 70620, Note_on_c, 0, 67, 0
1, 70620, Note_on_c, 0, 65, 88
1, 70650, Note_on_c, 0, 65, 0
1, 70650, Note_on_c, 0, 63, 88
1, 70680, Note_on_c, 0, 63, 0
1, 70680, Note_on_c, 0, 62, 88
1, 70710, Note_on_c, 0, 62, 0
1, 70710, Note_on_c, 0, 63, 88
1, 70740, Note_on_c, 0, 63, 0
1, 70740, Note_on_c, 0, 62, 88
1, 70770, Note_on_c, 0, 62, 0
1, 70770, Note_on_c, 0, 63, 88
1, 70800, Note_on_c, 0, 63, 0
1, 70800, Note_on_c, 0, 79, 88
1, 70800, Note_on_c, 1, 60, 88
1, 70800, Note_on_c, 1, 55, 88
1, 70800, Note_on_c, 1, 51, 88
1, 70800, Note_on_c, 1, 48, 88
1, 70830, Note_on_c, 0, 79, 0
1, 70830, Note_on_c, 0, 77, 88
1, 70860, Note_on_c, 0, 77, 0
1, 70860, Note_on_c, 0, 75, 88
1, 70890, Note_on_c, 0, 75, 0
1, 70890, Note_on_c, 0, 74, 88
1, 70920, Note_on_c, 0, 74, 0
1, 70920, Note_on_c, 0, 75, 88
1, 70950, Note_on_c, 0, 75, 0
1, 70950, Note_on_c, 0, 74, 88
1, 70980, Note_on_c, 0, 74, 0
1, 70980, Note_on_c, 0, 72, 88
1, 71010, Note_on_c, 0, 72, 0
1, 71010, Note_on_c, 0, 70, 88
1, 71040, Note_on_c, 0, 70, 0
1, 71040, Note_on_c, 0, 68, 88
1, 71040, Note_on_c, 1, 48, 0
1, 71040, Note_on_c, 1, 60, 0
1, 71040, Note_on_c, 1, 55, 0
1, 71040, Note_on_c, 1, 51, 0
1, 71070, Note_on_c, 0, 68, 0
1, 71070, Note_on_c, 0, 67, 88
1, 71100, Note_on_c, 0, 67, 0
1, 71100, Note_on_c, 0, 65, 88
1, 71130, Note_on_c, 0, 65, 0
1, 71130, Note_on_c, 0, 63, 88
1, 71160, Note_on_c, 0, 63, 0
1, 71160, Note_on_c, 0, 62, 88
1, 71190, Note_on_c, 0, 62, 0
1, 71190, Note_on_c, 0, 63, 88
1, 71220, Note_on_c, 0, 63, 0
1, 71220, Note_on_c, 0, 62, 88
1, 71250, Note_on_c, 0, 62, 0
1, 71250, Note_on_c, 0, 63, 88
1, 71280, Note_on_c, 0, 63, 0
1, 71280, Note_on_c, 0, 72, 88
1, 71280, Note_on_c, 1, 44, 88
1, 71280, Note_on_c, 1, 48, 88
1, 71280, Note_on_c, 1, 53, 88
1, 71310, Note_on_c, 0, 72, 0
1, 71310, Note_on_c, 0, 70, 88
1, 71340, Note_on_c, 0, 70, 0
1, 71340, Note_on_c, 0, 68, 88
1, 71370, Note_on_c, 0, 68, 0
1, 71370, Note_on_c, 0, 67, 88
1, 71400, Note_on_c, 0, 67, 0
1, 71400, Note_on_c, 0, 68, 88
1, 71430, Note_on_c, 0, 68, 0
1, 71430, Note_on_c, 0, 67, 88
1, 71460, Note_on_c, 0, 67, 0
1, 71460, Note_on_c, 0, 65, 88
1, 71490, Note_on_c, 0, 65, 0
1, 71490, Note_on_c, 0, 64, 88
1, 71520, Note_on_c, 0, 64, 0
1, 71520, Note_on_c, 0, 65, 88
1, 71520, Note_on_c, 1, 53, 0
1, 71520, Note_on_c, 1, 48, 0
1, 71520, Note_on_c, 1, 44, 0
1, 71550, Note_on_c, 0, 65, 0
1, 71550, Note_on_c, 0, 67, 88
1, 71580, Note_on_c, 0, 67, 0
1, 71580, Note_on_c, 0, 68, 88
1, 71610, Note_on_c, 0, 68, 0
1, 71610, Note_on_c, 0, 67, 88
1, 71640, Note_on_c, 0, 67, 0
1, 71640, Note_on_c, 0, 65, 88
1, 71670, Note_on_c, 0, 65, 0
1, 71670, Note_on_c, 0, 63, 88
1, 71700, Note_on_c, 0, 63, 0
1, 71700, Note_on_c, 0, 62, 88
1, 71730, Note_on_c, 0, 62, 0
1, 71730, Note_on_c, 0, 60, 88
1, 71760, Note_on_c, 0, 60, 0
1, 71760, Note_on_c, 0, 58, 88
1, 71760, Note_on_c, 1, 46, 88
1, 71760, Note_on_c, 1, 51, 88
1, 71760, Note_on_c, 1, 55, 88
1, 71820, Note_on_c, 0, 58, 0
1, 71820, Note_on_c, 0, 75, 88
1, 71850, Note_on_c, 0, 75, 0
1, 71880, Note_on_c, 0, 75, 88
1, 71910, Note_on_c, 0, 75, 0
1, 71940, Note_on_c, 0, 75, 88
1, 71970, Note_on_c, 0, 75, 0
1, 72000, Note_on_c, 0, 75, 88
1, 72000, Note_on_c, 1, 55, 0
1, 72000, Note_on_c, 1, 51, 0
1, 72000, Note_on_c, 1, 46, 0
1, 72030, Note_on_c, 0, 75, 0
1, 72030, Note_on_c, 0, 77, 88
1, 72060, Note_on_c, 0, 77, 0
1, 72060, Note_on_c, 0, 79, 88
1, 72090, Note_on_c, 0, 79, 0
1, 72090, Note_on_c, 0, 80, 88
1, 72120, Note_on_c, 0, 80, 0
1, 72120, Note_on_c, 0, 82, 88
1, 72180, Note_on_c, 0, 82, 0
1, 72240, Note_on_c, 0, 72, 88
1, 72240, Note_on_c, 1, 58, 88
1, 72240, Note_on_c, 1, 63, 88
1, 72300, Note_on_c, 0, 72, 0
1, 72300, Note_on_c, 0, 74, 88
1, 72300, Note_on_c, 1, 63, 0
1, 72300, Note_on_c, 1, 65, 88
1, 72330, Note_on_c, 0, 74, 0
1, 72330, Note_on_c, 0, 75, 88
1, 72330, Note_on_c, 1, 65, 0
1, 72330, Note_on_c, 1, 67, 88
1, 72360, Note_on_c, 0, 75, 0
1, 72360, Note_on_c, 0, 74, 88
1, 72360, Note_on_c, 1, 67, 0
1, 72360, Note_on_c, 1, 65, 88
1, 72390, Note_on_c, 0, 74, 0
1, 72390, Note_on_c, 0, 75, 88
1, 72390, Note_on_c, 1, 65, 0
1, 72390, Note_on_c, 1, 67, 88
1, 72420, Note_on_c, 0, 75, 0
1, 72420, Note_on_c, 0, 74, 88
1, 72420, Note_on_c, 1, 67, 0
1, 72420, Note_on_c, 1, 65, 88
1, 72450, Note_on_c, 0, 74, 0
1, 72450, Note_on_c, 0, 75, 88
1, 72450, Note_on_c, 1, 65, 0
1, 72450, Note_on_c, 1, 67, 88
1, 72480, Note_on_c, 0, 75, 0
1, 72480, Note_on_c, 0, 74, 88
1, 72480, Note_on_c, 1, 67, 0
1, 72480, Note_on_c, 1, 65, 88
1, 72510, Note_on_c, 0, 74, 0
1, 72510, Note_on_c, 0, 75, 88
1, 72510, Note_on_c, 1, 65, 0
1, 72510, Note_on_c, 1, 67, 88
1, 72540, Note_on_c, 0, 75, 0
1, 72540, Note_on_c, 0, 74, 88
1, 72540, Note_on_c, 1, 67, 0
1, 72540, Note_on_c, 1, 65, 88
1, 72560, Note_on_c, 0, 74, 0
1, 72560, Note_on_c, 0, 75, 88
1, 72560, Note_on_c, 1, 65, 0
1, 72560, Note_on_c, 1, 67, 88
1, 72580, Note_on_c, 0, 75, 0
1, 72580, Note_on_c, 0, 74, 88
1, 72580, Note_on_c, 1, 67, 0
1, 72580, Note_on_c, 1, 65, 88
1, 72600, Note_on_c, 0, 74, 0
1, 72600, Note_on_c, 0, 72, 88
1, 72600, Note_on_c, 1, 65, 0
1, 72600, Note_on_c, 1, 63, 88
1, 72660, Note_on_c, 0, 72, 0
1, 72660, Note_on_c, 0, 74, 88
1, 72660, Note_on_c, 1, 63, 0
1, 72660, Note_on_c, 1, 65, 88
1, 72720, Note_on_c, 0, 74, 0
1, 72720, Note_on_c, 0, 75, 88
1, 72720, Note_on_c, 1, 65, 0
1, 72720, Note_on_c, 1, 58, 0
1, 72720, Note_on_c, 1, 63, 88
1, 72720, Note_on_c, 1, 67, 88
1, 72828, Note_on_c, 0, 75, 0
1, 72828, Note_on_c, 1, 67, 0
1, 72828, Note_on_c, 1, 63, 0
1, 72840, Note_on_c, 0, 67, 88
1, 72840, Note_on_c, 0, 70, 88
1, 72840, Note_on_c, 1, 63, 88
1, 72840, Note_on_c, 1, 58, 88
1, 72840, Note_on_c, 1, 55, 88
1, 72900, Note_on_c, 0, 70, 0
1, 72900, Note_on_c, 0, 67, 0
1, 72900, Note_on_c, 1, 55, 0
1, 72900, Note_on_c, 1, 58, 0
1, 72900, Note_on_c, 1, 63, 0
1, 72960, Note_on_c, 0, 72, 88
1, 72960, Note_on_c, 0, 68, 88
1, 72960, Note_on_c, 1, 63, 88
1, 72960, Note_on_c, 1, 60, 88
1, 72960, Note_on_c, 1, 56, 88
1, 73020, Note_on_c, 0, 68, 0
1, 73020, Note_on_c, 0, 72, 0
1, 73020, Note_on_c, 1, 56, 0
1, 73020, Note_on_c, 1, 60, 0
1, 73020, Note_on_c, 1, 63, 0
1, 73080, Note_on_c, 0, 70, 88
1, 73080, Note_on_c, 1, 62, 88
1, 73110, Note_on_c, 0, 70, 0
1, 73110, Note_on_c, 0, 68, 88
1, 73140, Note_on_c, 0, 68, 0
1, 73140, Note_on_c, 0, 67, 88
1, 73170, Note_on_c, 0, 67, 0
1, 73170, Note_on_c, 0, 68, 88
1, 73200, Note_on_c, 0, 68, 0
1, 73200, Note_on_c, 0, 67, 88
1, 73200, Note_on_c, 1, 62, 0
1, 73200, Note_on_c, 1, 63, 88
1, 73296, Note_on_c, 0, 67, 0
1, 73296, Note_on_c, 1, 63, 0
1, 73320, Note_on_c, 0, 82, 91
1, 73320, Note_on_c, 0, 79, 91
1, 73320, Note_on_c, 0, 75, 91
1, 73320, Note_on_c, 1, 63, 91
1, 73320, Note_on_c, 1, 58, 91
1, 73320, Note_on_c, 1, 55, 91
1, 73380, Note_on_c, 0, 75, 0
1, 73380, Note_on_c, 0, 79, 0
1, 73380, Note_on_c, 0, 82, 0
1, 73380, Note_on_c, 1, 55, 0
1, 73380, Note_on_c, 1, 58, 0
1, 73380, Note_on_c, 1, 63, 0
1, 73440, Note_on_c, 0, 72, 94
1, 73440, Note_on_c, 0, 77, 94
1, 73440, Note_on_c, 0, 80, 94
1, 73440, Note_on_c, 1, 56, 94
1, 73440, Note_on_c, 1, 60, 94
1, 73440, Note_on_c, 1, 65, 94
1, 73500, Note_on_c, 0, 80, 0
1, 73500, Note_on_c, 0, 77, 0
1, 73500, Note_on_c, 0, 72, 0
1, 73500, Note_on_c, 1, 65, 0
1, 73500, Note_on_c, 1, 60, 0
1, 73500, Note_on_c, 1, 56, 0
1, 73560, Note_on_c, 0, 65, 97
1, 73560, Note_on_c, 0, 68, 97
1, 73560, Note_on_c, 0, 70, 97
1, 73560, Note_on_c, 0, 74, 97
1, 73560, Note_on_c, 1, 62, 97
1, 73560, Note_on_c, 1, 58, 97
1, 73620, Note_on_c, 0, 74, 0
1, 73620, Note_on_c, 0, 65, 0
1, 73620, Note_on_c, 0, 68, 0
1, 73620, Note_on_c, 0, 70, 0
1, 73620, Note_on_c, 1, 58, 0
1, 73620, Note_on_c, 1, 62, 0
1, 73680, Note_on_c, 0, 67, 100
1, 73680, Note_on_c, 0, 70, 100
1, 73680, Note_on_c, 0, 75, 100
1, 73680, Note_on_c, 1, 51, 100
1, 73680, Note_on_c, 1, 55, 100
1, 73680, Note_on_c, 1, 58, 100
1, 73680, Note_on_c, 1, 63, 100
1, 73872, Note_on_c, 0, 75, 0
1, 73872, Note_on_c, 0, 70, 0
1, 73872, Note_on_c, 0, 67, 0
1, 73872, Note_on_c, 1, 63, 0
1, 73872, Note_on_c, 1, 51, 0
1, 73872, Note_on_c, 1, 55, 0
1, 73872, Note_on_c, 1, 58, 0
1, 73882, End_track
0, 0, End_of_file