0, 0, Header, 0, 1, 240
1, 0, Start_track
1, 0, Tempo, 1111111
1, 0, Note_on_c, 0, 63, 64
1, 120, Note_on_c, 1, 60, 64
1, 240, Note_on_c, 0, 63, 0
1, 240, Note_on_c, 0, 63, 64
1, 240, Note_on_c, 1, 60, 0
1, 240, Note_on_c, 1, 58, 64
1, 360, Note_on_c, 1, 58, 0
1, 360, Note_on_c, 1, 56, 64
1, 480, Note_on_c, 0, 63, 0
1, 480, Note_on_c, 0, 63, 64
1, 480, Note_on_c, 1, 56, 0
1, 480, Note_on_c, 1, 55, 64
1, 600, Note_on_c, 1, 55, 0
1, 600, Note_on_c, 1, 53, 64
1, 720, Note_on_c, 0, 63, 0
1, 720, Note_on_c, 0, 62, 64
1, 720, Note_on_c, 1, 53, 0
1, 720, Note_on_c, 1, 51, 64
1, 780, Note_on_c, 0, 62, 0
1, 780, Note_on_c, 0, 63, 64
1, 810, Note_on_c, 0, 63, 0
1, 810, Note_on_c, 0, 65, 64
1, 840, Note_on_c, 0, 65, 0
1, 840, Note_on_c, 0, 63, 64
1, 840, Note_on_c, 1, 51, 0
1, 840, Note_on_c, 1, 49, 64
1, 860, Note_on_c, 0, 63, 0
1, 860, Note_on_c, 0, 65, 64
1, 880, Note_on_c, 0, 65, 0
1, 880, Note_on_c, 0, 63, 64
1, 900, Note_on_c, 0, 63, 0
1, 900, Note_on_c, 0, 65, 64
1, 920, Note_on_c, 0, 65, 0
1, 920, Note_on_c, 0, 63, 64
1, 940, Note_on_c, 0, 63, 0
1, 940, Note_on_c, 0, 65, 64
1, 960, Note_on_c, 0, 65, 0
1, 960, Note_on_c, 0, 63, 64
1, 960, Note_on_c, 1, 49, 0
1, 960, Note_on_c, 1, 48, 64
1, 1080, Note_on_c, 1, 48, 0
1, 1080, Note_on_c, 1, 46, 64
1, 1140, Note_on_c, 0, 63, 0
1, 1140, Note_on_c, 0, 65, 64
1, 1170, Note_on_c, 0, 65, 0
1, 1170, Note_on_c, 0, 67, 64
1, 1200, Note_on_c, 0, 67, 0
1, 1200, Note_on_c, 0, 68, 64
1, 1200, Note_on_c, 1, 46, 0
1, 1200, Note_on_c, 1, 44, 64
1, 1320, Note_on_c, 1, 44, 0
1, 1320, Note_on_c, 1, 48, 64
1, 1380, Note_on_c, 0, 68, 0
1, 1380, Note_on_c, 0, 67, 64
1, 1440, Note_on_c, 0, 67, 0
1, 1440, Note_on_c, 0, 67, 64
1, 1440, Note_on_c, 1, 48, 0
1, 1440, Note_on_c, 1, 49, 64
1, 1560, Note_on_c, 0, 67, 0
1, 1560, Note_on_c, 0, 65, 64
1, 1560, Note_on_c, 1, 49, 0
1, 1560, Note_on_c, 1, 61, 64
1, 1580, Note_on_c, 0, 65, 0
1, 1580, Note_on_c, 0, 67, 64
1, 1600, Note_on_c, 0, 67, 0
1, 1600, Note_on_c, 0, 65, 64
1, 1620, Note_on_c, 0, 65, 0
1, 1620, Note_on_c, 0, 63, 64
1, 1650, Note_on_c, 0, 63, 0
1, 1650, Note_on_c, 0, 65, 64
1, 1680, Note_on_c, 0, 65, 0
1, 1680, Note_on_c, 0, 63, 64
1, 1680, Note_on_c, 1, 61, 0
1, 1680, Note_on_c, 1, 60, 64
1, 1800, Note_on_c, 1, 60, 0
1, 1800, Note_on_c, 1, 58, 64
1, 1920, Note_on_c, 1, 58, 0
1, 1920, Note_on_c, 1, 60, 64
1, 1980, Note_on_c, 0, 63, 0
1, 1980, Note_on_c, 0, 65, 64
1, 2022, Note_on_c, 0, 65, 0
1, 2040, Note_on_c, 0, 67, 64
1, 2040, Note_on_c, 1, 60, 0
1, 2040, Note_on_c, 1, 56, 64
1, 2082, Note_on_c, 0, 67, 0
1, 2100, Note_on_c, 0, 68, 64
1, 2142, Note_on_c, 0, 68, 0
1, 2160, Note_on_c, 0, 63, 64
1, 2160, Note_on_c, 1, 56, 0
1, 2160, Note_on_c, 1, 58, 64
1, 2280, Note_on_c, 0, 63, 0
1, 2280, Note_on_c, 0, 61, 64
1, 2280, Note_on_c, 1, 58, 0
1, 2280, Note_on_c, 1, 51, 64
1, 2300, Note_on_c, 0, 61, 0
1, 2300, Note_on_c, 0, 63, 64
1, 2320, Note_on_c, 0, 63, 0
1, 2320, Note_on_c, 0, 61, 64
1, 2340, Note_on_c, 0, 61, 0
1, 2340, Note_on_c, 0, 60, 64
1, 2370, Note_on_c, 0, 60, 0
1, 2370, Note_on_c, 0, 61, 64
1, 2400, Note_on_c, 0, 61, 0
1, 2400, Note_on_c, 0, 60, 64
1, 2400, Note_on_c, 1, 51, 0
1, 2400, Note_on_c, 1, 56, 64
1, 2520, Note_on_c, 1, 56, 0
1, 2520, Note_on_c, 1, 51, 64
1, 2640, Note_on_c, 0, 60, 0
1, 2640, Note_on_c, 1, 51, 0
1, 2640, Note_on_c, 1, 48, 64
1, 2760, Note_on_c, 1, 48, 0
1, 2760, Note_on_c, 1, 44, 64
1, 2880, Note_on_c, 0, 65, 64
1, 2880, Note_on_c, 1, 44, 0
1, 3000, Note_on_c, 1, 61, 64
1, 3120, Note_on_c, 0, 65, 0
1, 3120, Note_on_c, 0, 65, 64
1, 3120, Note_on_c, 1, 61, 0
1, 3120, Note_on_c, 1, 60, 64
1, 3240, Note_on_c, 1, 60, 0
1, 3240, Note_on_c, 1, 58, 64
1, 3360, Note_on_c, 1, 58, 0
1, 3360, Note_on_c, 1, 57, 64
1, 3420, Note_on_c, 0, 65, 0
1, 3420, Note_on_c, 0, 69, 64
1, 3480, Note_on_c, 0, 69, 0
1, 3480, Note_on_c, 0, 72, 64
1, 3480, Note_on_c, 1, 57, 0
1, 3480, Note_on_c, 1, 53, 64
1, 3540, Note_on_c, 0, 72, 0
1, 3540, Note_on_c, 0, 75, 64
1, 3600, Note_on_c, 0, 75, 0
1, 3600, Note_on_c, 0, 75, 64
1, 3600, Note_on_c, 1, 53, 0
1, 3600, Note_on_c, 1, 58, 64
1, 3660, Note_on_c, 0, 75, 0
1, 3660, Note_on_c, 0, 73, 64
1, 3720, Note_on_c, 0, 73, 0
1, 3720, Note_on_c, 0, 72, 64
1, 3720, Note_on_c, 1, 58, 0
1, 3720, Note_on_c, 1, 46, 64
1, 3780, Note_on_c, 0, 72, 0
1, 3780, Note_on_c, 0, 73, 64
1, 3840, Note_on_c, 0, 73, 0
1, 3840, Note_on_c, 0, 73, 64
1, 3840, Note_on_c, 1, 46, 0
1, 3840, Note_on_c, 1, 58, 64
1, 3960, Note_on_c, 1, 58, 0
1, 3960, Note_on_c, 1, 56, 64
1, 4080, Note_on_c, 1, 56, 0
1, 4080, Note_on_c, 1, 55, 64
1, 4170, Note_on_c, 0, 73, 0
1, 4170, Note_on_c, 0, 70, 64
1, 4200, Note_on_c, 0, 70, 0
1, 4200, Note_on_c, 0, 72, 64
1, 4200, Note_on_c, 1, 55, 0
1, 4200, Note_on_c, 1, 63, 64
1, 4220, Note_on_c, 0, 72, 0
1, 4220, Note_on_c, 0, 70, 64
1, 4240, Note_on_c, 0, 70, 0
1, 4240, Note_on_c, 0, 72, 64
1, 4260, Note_on_c, 0, 72, 0
1, 4260, Note_on_c, 0, 70, 64
1, 4280, Note_on_c, 0, 70, 0
1, 4280, Note_on_c, 0, 72, 64
1, 4300, Note_on_c, 0, 72, 0
1, 4300, Note_on_c, 0, 70, 64
1, 4320, Note_on_c, 0, 70, 0
1, 4320, Note_on_c, 0, 72, 64
1, 4320, Note_on_c, 1, 63, 0
1, 4320, Note_on_c, 1, 56, 64
1, 4410, Note_on_c, 0, 72, 0
1, 4410, Note_on_c, 0, 68, 64
1, 4440, Note_on_c, 0, 68, 0
1, 4440, Note_on_c, 0, 70, 64
1, 4440, Note_on_c, 1, 56, 0
1, 4440, Note_on_c, 1, 60, 64
1, 4460, Note_on_c, 0, 70, 0
1, 4460, Note_on_c, 0, 68, 64
1, 4480, Note_on_c, 0, 68, 0
1, 4480, Note_on_c, 0, 70, 64
1, 4500, Note_on_c, 0, 70, 0
1, 4500, Note_on_c, 0, 68, 64
1, 4520, Note_on_c, 0, 68, 0
1, 4520, Note_on_c, 0, 70, 64
1, 4540, Note_on_c, 0, 70, 0
1, 4540, Note_on_c, 0, 68, 64
1, 4560, Note_on_c, 0, 68, 0
1, 4560, Note_on_c, 0, 65, 64
1, 4560, Note_on_c, 1, 60, 0
1, 4560, Note_on_c, 1, 61, 64
1, 4680, Note_on_c, 0, 65, 0
1, 4680, Note_on_c, 0, 77, 64
1, 4680, Note_on_c, 1, 61, 0
1, 4680, Note_on_c, 1, 49, 64
1, 4800, Note_on_c, 0, 77, 0
1, 4800, Note_on_c, 0, 75, 64
1, 4860, Note_on_c, 0, 75, 0
1, 4860, Note_on_c, 0, 73, 64
1, 4920, Note_on_c, 0, 73, 0
1, 4920, Note_on_c, 0, 72, 64
1, 4920, Note_on_c, 1, 49, 0
1, 4920, Note_on_c, 1, 50, 64
1, 4980, Note_on_c, 0, 72, 0
1, 4980, Note_on_c, 0, 70, 64
1, 5040, Note_on_c, 0, 70, 0
1, 5040, Note_on_c, 0, 68, 64
1, 5040, Note_on_c, 1, 50, 0
1, 5040, Note_on_c, 1, 51, 64
1, 5160, Note_on_c, 1, 51, 0
1, 5160, Note_on_c, 1, 39, 64
1, 5280, Note_on_c, 0, 68, 0
1, 5280, Note_on_c, 0, 67, 64
1, 5280, Note_on_c, 1, 39, 0
1, 5280, Note_on_c, 1, 51, 64
1, 5300, Note_on_c, 0, 67, 0
1, 5300, Note_on_c, 0, 68, 64
1, 5320, Note_on_c, 0, 68, 0
1, 5320, Note_on_c, 0, 67, 64
1, 5340, Note_on_c, 0, 67, 0
1, 5340, Note_on_c, 0, 68, 64
1, 5360, Note_on_c, 0, 68, 0
1, 5360, Note_on_c, 0, 67, 64
1, 5380, Note_on_c, 0, 67, 0
1, 5380, Note_on_c, 0, 68, 64
1, 5400, Note_on_c, 0, 68, 0
1, 5400, Note_on_c, 0, 67, 64
1, 5400, Note_on_c, 1, 51, 0
1, 5400, Note_on_c, 1, 55, 64
1, 5520, Note_on_c, 0, 67, 0
1, 5520, Note_on_c, 1, 55, 0
1, 5520, Note_on_c, 1, 58, 64
1, 5640, Note_on_c, 1, 58, 0
1, 5640, Note_on_c, 1, 63, 64
1, 5760, Note_on_c, 0, 69, 64
1, 5760, Note_on_c, 1, 63, 0
1, 5760, Note_on_c, 1, 51, 64
1, 5820, Note_on_c, 0, 69, 0
1, 5820, Note_on_c, 0, 70, 64
1, 5880, Note_on_c, 1, 51, 0
1, 5880, Note_on_c, 1, 63, 64
1, 5880, Note_on_c, 1, 67, 64
1, 6000, Note_on_c, 0, 70, 0
1, 6000, Note_on_c, 0, 69, 64
1, 6000, Note_on_c, 1, 67, 0
1, 6000, Note_on_c, 1, 63, 0
1, 6000, Note_on_c, 1, 62, 64
1, 6000, Note_on_c, 1, 65, 64
1, 6060, Note_on_c, 0, 69, 0
1, 6060, Note_on_c, 0, 70, 64
1, 6120, Note_on_c, 1, 65, 0
1, 6120, Note_on_c, 1, 62, 0
1, 6120, Note_on_c, 1, 60, 64
1, 6120, Note_on_c, 1, 63, 64
1, 6240, Note_on_c, 0, 70, 0
1, 6240, Note_on_c, 0, 69, 64
1, 6240, Note_on_c, 1, 63, 0
1, 6240, Note_on_c, 1, 60, 0
1, 6240, Note_on_c, 1, 58, 64
1, 6240, Note_on_c, 1, 62, 64
1, 6300, Note_on_c, 0, 69, 0
1, 6300, Note_on_c, 0, 70, 64
1, 6360, Note_on_c, 1, 62, 0
1, 6360, Note_on_c, 1, 58, 0
1, 6360, Note_on_c, 1, 56, 64
1, 6360, Note_on_c, 1, 60, 64
1, 6480, Note_on_c, 0, 70, 0
1, 6480, Note_on_c, 0, 69, 64
1, 6480, Note_on_c, 1, 60, 0
1, 6480, Note_on_c, 1, 56, 0
1, 6480, Note_on_c, 1, 55, 64
1, 6480, Note_on_c, 1, 58, 64
1, 6540, Note_on_c, 0, 69, 0
1, 6540, Note_on_c, 0, 70, 64
1, 6570, Note_on_c, 0, 70, 0
1, 6570, Note_on_c, 0, 72, 64
1, 6600, Note_on_c, 0, 72, 0
1, 6600, Note_on_c, 0, 70, 64
1, 6600, Note_on_c, 1, 58, 0
1, 6600, Note_on_c, 1, 55, 0
1, 6600, Note_on_c, 1, 53, 64
1, 6600, Note_on_c, 1, 56, 64
1, 6620, Note_on_c, 0, 70, 0
1, 6620, Note_on_c, 0, 72, 64
1, 6640, Note_on_c, 0, 72, 0
1, 6640, Note_on_c, 0, 70, 64
1, 6660, Note_on_c, 0, 70, 0
1, 6660, Note_on_c, 0, 72, 64
1, 6680, Note_on_c, 0, 72, 0
1, 6680, Note_on_c, 0, 70, 64
1, 6700, Note_on_c, 0, 70, 0
1, 6700, Note_on_c, 0, 72, 64
1, 6720, Note_on_c, 0, 72, 0
1, 6720, Note_on_c, 0, 70, 64
1, 6720, Note_on_c, 1, 56, 0
1, 6720, Note_on_c, 1, 53, 0
1, 6720, Note_on_c, 1, 51, 64
1, 6720, Note_on_c, 1, 55, 64
1, 6840, Note_on_c, 1, 55, 0
1, 6840, Note_on_c, 1, 51, 0
1, 6840, Note_on_c, 1, 50, 64
1, 6840, Note_on_c, 1, 53, 64
1, 6900, Note_on_c, 0, 70, 0
1, 6900, Note_on_c, 0, 72, 64
1, 6930, Note_on_c, 0, 72, 0
1, 6930, Note_on_c, 0, 74, 64
1, 6960, Note_on_c, 0, 74, 0
1, 6960, Note_on_c, 0, 75, 64
1, 6960, Note_on_c, 1, 53, 0
1, 6960, Note_on_c, 1, 50, 0
1, 6960, Note_on_c, 1, 48, 64
1, 6960, Note_on_c, 1, 51, 64
1, 6980, Note_on_c, 0, 75, 0
1, 6980, Note_on_c, 0, 77, 64
1, 7000, Note_on_c, 0, 77, 0
1, 7000, Note_on_c, 0, 75, 64
1, 7020, Note_on_c, 0, 75, 0
1, 7020, Note_on_c, 0, 77, 64
1, 7040, Note_on_c, 0, 77, 0
1, 7040, Note_on_c, 0, 75, 64
1, 7060, Note_on_c, 0, 75, 0
1, 7060, Note_on_c, 0, 77, 64
1, 7080, Note_on_c, 0, 77, 0
1, 7080, Note_on_c, 0, 75, 64
1, 7080, Note_on_c, 1, 51, 0
1, 7080, Note_on_c, 1, 48, 0
1, 7080, Note_on_c, 1, 46, 64
1, 7080, Note_on_c, 1, 49, 64
1, 7100, Note_on_c, 0, 75, 0
1, 7100, Note_on_c, 0, 77, 64
1, 7120, Note_on_c, 0, 77, 0
1, 7120, Note_on_c, 0, 75, 64
1, 7140, Note_on_c, 0, 75, 0
1, 7140, Note_on_c, 0, 77, 64
1, 7170, Note_on_c, 0, 77, 0
1, 7170, Note_on_c, 0, 79, 64
1, 7200, Note_on_c, 0, 79, 0
1, 7200, Note_on_c, 0, 80, 64
1, 7200, Note_on_c, 1, 49, 0
1, 7200, Note_on_c, 1, 46, 0
1, 7200, Note_on_c, 1, 44, 64
1, 7200, Note_on_c, 1, 48, 64
1, 7220, Note_on_c, 0, 80, 0
1, 7220, Note_on_c, 0, 82, 64
1, 7240, Note_on_c, 0, 82, 0
1, 7240, Note_on_c, 0, 80, 65
1, 7260, Note_on_c, 0, 80, 0
1, 7260, Note_on_c, 0, 82, 65
1, 7280, Note_on_c, 0, 82, 0
1, 7280, Note_on_c, 0, 80, 66
1, 7300, Note_on_c, 0, 80, 0
1, 7300, Note_on_c, 0, 82, 66
1, 7320, Note_on_c, 0, 82, 0
1, 7320, Note_on_c, 0, 80, 67
1, 7320, Note_on_c, 1, 48, 0
1, 7320, Note_on_c, 1, 44, 0
1, 7320, Note_on_c, 1, 43, 67
1, 7320, Note_on_c, 1, 46, 67
1, 7340, Note_on_c, 0, 80, 0
1, 7340, Note_on_c, 0, 82, 67
1, 7360, Note_on_c, 0, 82, 0
1, 7360, Note_on_c, 0, 80, 68
1, 7380, Note_on_c, 0, 80, 0
1, 7380, Note_on_c, 0, 82, 68
1, 7410, Note_on_c, 0, 82, 0
1, 7410, Note_on_c, 0, 84, 69
1, 7440, Note_on_c, 0, 84, 0
1, 7440, Note_on_c, 0, 84, 69
1, 7440, Note_on_c, 1, 46, 0
1, 7440, Note_on_c, 1, 43, 0
1, 7440, Note_on_c, 1, 41, 69
1, 7440, Note_on_c, 1, 44, 69
1, 7560, Note_on_c, 1, 44, 0
1, 7560, Note_on_c, 1, 41, 0
1, 7560, Note_on_c, 1, 39, 72
1, 7560, Note_on_c, 1, 43, 72
1, 7680, Note_on_c, 1, 43, 0
1, 7680, Note_on_c, 1, 39, 0
1, 7680, Note_on_c, 1, 38, 75
1, 7680, Note_on_c, 1, 41, 75
1, 7740, Note_on_c, 0, 84, 0
1, 7740, Note_on_c, 0, 84, 64
1, 7800, Note_on_c, 0, 84, 0
1, 7800, Note_on_c, 0, 82, 64
1, 7800, Note_on_c, 1, 41, 0
1, 7800, Note_on_c, 1, 38, 0
1, 7800, Note_on_c, 1, 62, 64
1, 7800, Note_on_c, 1, 65, 64
1, 7860, Note_on_c, 0, 82, 0
1, 7860, Note_on_c, 0, 80, 64
1, 7920, Note_on_c, 0, 80, 0
1, 7920, Note_on_c, 0, 79, 64
1, 7920, Note_on_c, 1, 65, 0
1, 7920, Note_on_c, 1, 62, 0
1, 7920, Note_on_c, 1, 63, 64
1, 7920, Note_on_c, 1, 67, 64
1, 7940, Note_on_c, 0, 79, 0
1, 7940, Note_on_c, 0, 80, 64
1, 7960, Note_on_c, 0, 80, 0
1, 7960, Note_on_c, 0, 79, 64
1, 7980, Note_on_c, 0, 79, 0
1, 7980, Note_on_c, 0, 77, 64
1, 8040, Note_on_c, 0, 77, 0
1, 8040, Note_on_c, 0, 79, 64
1, 8040, Note_on_c, 1, 67, 0
1, 8040, Note_on_c, 1, 63, 0
1, 8040, Note_on_c, 1, 62, 64
1, 8040, Note_on_c, 1, 65, 64
1, 8100, Note_on_c, 0, 79, 0
1, 8100, Note_on_c, 0, 82, 64
1, 8160, Note_on_c, 0, 82, 0
1, 8160, Note_on_c, 0, 82, 64
1, 8160, Note_on_c, 1, 65, 0
1, 8160, Note_on_c, 1, 62, 0
1, 8160, Note_on_c, 1, 60, 64
1, 8160, Note_on_c, 1, 63, 64
1, 8220, Note_on_c, 0, 82, 0
1, 8220, Note_on_c, 0, 80, 64
1, 8250, Note_on_c, 0, 80, 0
1, 8280, Note_on_c, 0, 80, 64
1, 8280, Note_on_c, 1, 63, 0
1, 8280, Note_on_c, 1, 60, 0
1, 8280, Note_on_c, 1, 58, 64
1, 8280, Note_on_c, 1, 62, 64
1, 8340, Note_on_c, 0, 80, 0
1, 8340, Note_on_c, 0, 79, 64
1, 8370, Note_on_c, 0, 79, 0
1, 8400, Note_on_c, 0, 79, 64
1, 8400, Note_on_c, 1, 62, 0
1, 8400, Note_on_c, 1, 58, 0
1, 8400, Note_on_c, 1, 56, 64
1, 8400, Note_on_c, 1, 60, 64
1, 8460, Note_on_c, 0, 79, 0
1, 8460, Note_on_c, 0, 77, 64
1, 8520, Note_on_c, 0, 77, 0
1, 8520, Note_on_c, 0, 77, 64
1, 8520, Note_on_c, 1, 60, 0
1, 8520, Note_on_c, 1, 56, 0
1, 8520, Note_on_c, 1, 57, 64
1, 8580, Note_on_c, 0, 77, 0
1, 8580, Note_on_c, 0, 75, 64
1, 8640, Note_on_c, 0, 75, 0
1, 8640, Note_on_c, 0, 75, 64
1, 8640, Note_on_c, 1, 57, 0
1, 8640, Note_on_c, 1, 58, 64
1, 8760, Note_on_c, 1, 58, 0
1, 8760, Note_on_c, 1, 46, 56
1, 8832, Note_on_c, 1, 46, 0
1, 8880, Note_on_c, 0, 75, 0
1, 8880, Note_on_c, 0, 74, 64
1, 8880, Note_on_c, 1, 58, 64
1, 8880, Note_on_c, 1, 62, 64
1, 8900, Note_on_c, 0, 74, 0
1, 8900, Note_on_c, 0, 75, 64
1, 8920, Note_on_c, 0, 75, 0
1, 8920, Note_on_c, 0, 74, 64
1, 8940, Note_on_c, 0, 74, 0
1, 8940, Note_on_c, 0, 75, 64
1, 8960, Note_on_c, 0, 75, 0
1, 8960, Note_on_c, 0, 74, 64
1, 8980, Note_on_c, 0, 74, 0
1, 8980, Note_on_c, 0, 75, 64
1, 9000, Note_on_c, 0, 75, 0
1, 9000, Note_on_c, 0, 74, 64
1, 9000, Note_on_c, 1, 62, 0
1, 9000, Note_on_c, 1, 58, 0
1, 9000, Note_on_c, 1, 60, 64
1, 9000, Note_on_c, 1, 63, 64
1, 9120, Note_on_c, 0, 74, 0
1, 9120, Note_on_c, 1, 63, 0
1, 9120, Note_on_c, 1, 60, 0
1, 9120, Note_on_c, 1, 62, 64
1, 9120, Note_on_c, 1, 65, 64
1, 9240, Note_on_c, 1, 65, 0
1, 9240, Note_on_c, 1, 62, 0
1, 9240, Note_on_c, 1, 63, 64
1, 9240, Note_on_c, 1, 67, 64
1, 9360, Note_on_c, 1, 67, 0
1, 9360, Note_on_c, 1, 63, 0
1, 9360, Note_on_c, 1, 65, 72
1, 9360, Note_on_c, 1, 68, 72
1, 9420, Note_on_c, 0, 70, 72
1, 9480, Note_on_c, 0, 70, 0
1, 9480, Note_on_c, 0, 72, 72
1, 9480, Note_on_c, 1, 68, 0
1, 9480, Note_on_c, 1, 65, 0
1, 9480, Note_on_c, 1, 62, 72
1, 9480, Note_on_c, 1, 65, 72
1, 9500, Note_on_c, 0, 72, 0
1, 9500, Note_on_c, 0, 70, 72
1, 9520, Note_on_c, 0, 70, 0
1, 9520, Note_on_c, 0, 69, 72
1, 9540, Note_on_c, 0, 69, 0
1, 9540, Note_on_c, 0, 70, 72
1, 9600, Note_on_c, 0, 70, 0
1, 9600, Note_on_c, 1, 65, 0
1, 9600, Note_on_c, 1, 62, 0
1, 9600, Note_on_c, 1, 63, 72
1, 9600, Note_on_c, 1, 67, 72
1, 9660, Note_on_c, 0, 82, 72
1, 9720, Note_on_c, 0, 82, 0
1, 9720, Note_on_c, 1, 67, 0
1, 9720, Note_on_c, 1, 63, 0
1, 9720, Note_on_c, 1, 67, 72
1, 9720, Note_on_c, 1, 70, 72
1, 9780, Note_on_c, 0, 75, 72
1, 9840, Note_on_c, 1, 70, 0
1, 9840, Note_on_c, 1, 67, 0
1, 9840, Note_on_c, 1, 65, 72
1, 9840, Note_on_c, 1, 68, 72
1, 9900, Note_on_c, 0, 75, 0
1, 9900, Note_on_c, 0, 74, 72
1, 9960, Note_on_c, 1, 68, 0
1, 9960, Note_on_c, 1, 65, 0
1, 9960, Note_on_c, 1, 63, 72
1, 9960, Note_on_c, 1, 67, 72
1, 10020, Note_on_c, 0, 74, 0
1, 10020, Note_on_c, 0, 72, 72
1, 10080, Note_on_c, 0, 72, 0
1, 10080, Note_on_c, 1, 67, 0
1, 10080, Note_on_c, 1, 63, 0
1, 10080, Note_on_c, 1, 62, 48
1, 10080, Note_on_c, 1, 65, 48
1, 10140, Note_on_c, 0, 70, 49
1, 10200, Note_on_c, 0, 70, 0
1, 10200, Note_on_c, 0, 72, 51
1, 10200, Note_on_c, 1, 65, 0
1, 10200, Note_on_c, 1, 62, 0
1, 10200, Note_on_c, 1, 65, 51
1, 10200, Note_on_c, 1, 68, 51
1, 10220, Note_on_c, 0, 72, 0
1, 10220, Note_on_c, 0, 70, 51
1, 10240, Note_on_c, 0, 70, 0
1, 10240, Note_on_c, 0, 69, 52
1, 10260, Note_on_c, 0, 69, 0
1, 10260, Note_on_c, 0, 70, 52
1, 10320, Note_on_c, 0, 70, 0
1, 10320, Note_on_c, 1, 68, 0
1, 10320, Note_on_c, 1, 65, 0
1, 10320, Note_on_c, 1, 63, 53
1, 10320, Note_on_c, 1, 67, 53
1, 10380, Note_on_c, 0, 82, 55
1, 10440, Note_on_c, 0, 82, 0
1, 10440, Note_on_c, 1, 67, 0
1, 10440, Note_on_c, 1, 63, 0
1, 10440, Note_on_c, 1, 67, 56
1, 10440, Note_on_c, 1, 70, 56
1, 10500, Note_on_c, 0, 75, 57
1, 10560, Note_on_c, 1, 70, 0
1, 10560, Note_on_c, 1, 67, 0
1, 10560, Note_on_c, 1, 65, 59
1, 10560, Note_on_c, 1, 68, 59
1, 10620, Note_on_c, 0, 75, 0
1, 10620, Note_on_c, 0, 74, 60
1, 10680, Note_on_c, 1, 68, 0
1, 10680, Note_on_c, 1, 65, 0
1, 10680, Note_on_c, 1, 63, 61
1, 10680, Note_on_c, 1, 67, 61
1, 10740, Note_on_c, 0, 74, 0
1, 10740, Note_on_c, 0, 72, 63
1, 10800, Note_on_c, 1, 67, 0
1, 10800, Note_on_c, 1, 63, 0
1, 10800, Note_on_c, 1, 62, 64
1, 10800, Note_on_c, 1, 65, 64
1, 10860, Note_on_c, 0, 72, 0
1, 10860, Note_on_c, 0, 71, 64
1, 10920, Note_on_c, 1, 65, 0
1, 10920, Note_on_c, 1, 62, 0
1, 10920, Note_on_c, 1, 65, 64
1, 10920, Note_on_c, 1, 68, 64
1, 10980, Note_on_c, 0, 71, 0
1, 10980, Note_on_c, 0, 74, 64
1, 11040, Note_on_c, 1, 68, 0
1, 11040, Note_on_c, 1, 65, 0
1, 11040, Note_on_c, 1, 63, 64
1, 11040, Note_on_c, 1, 67, 64
1, 11100, Note_on_c, 0, 74, 0
1, 11100, Note_on_c, 0, 72, 64
1, 11160, Note_on_c, 1, 67, 0
1, 11160, Note_on_c, 1, 63, 0
1, 11160, Note_on_c, 1, 62, 64
1, 11160, Note_on_c, 1, 65, 64
1, 11220, Note_on_c, 0, 72, 0
1, 11220, Note_on_c, 0, 74, 64
1, 11280, Note_on_c, 1, 65, 0
1, 11280, Note_on_c, 1, 62, 0
1, 11280, Note_on_c, 1, 60, 64
1, 11280, Note_on_c, 1, 63, 64
1, 11340, Note_on_c, 0, 74, 0
1, 11340, Note_on_c, 0, 75, 64
1, 11400, Note_on_c, 1, 63, 0
1, 11400, Note_on_c, 1, 60, 0
1, 11400, Note_on_c, 1, 63, 64
1, 11400, Note_on_c, 1, 66, 64
1, 11460, Note_on_c, 0, 75, 0
1, 11460, Note_on_c, 0, 69, 64
1, 11520, Note_on_c, 1, 66, 0
1, 11520, Note_on_c, 1, 63, 0
1, 11520, Note_on_c, 1, 62, 64
1, 11520, Note_on_c, 1, 65, 64
1, 11580, Note_on_c, 0, 69, 0
1, 11580, Note_on_c, 0, 70, 63
1, 11640, Note_on_c, 1, 65, 0
1, 11640, Note_on_c, 1, 62, 0
1, 11640, Note_on_c, 1, 60, 61
1, 11640, Note_on_c, 1, 63, 61
1, 11700, Note_on_c, 0, 70, 0
1, 11700, Note_on_c, 0, 68, 60
1, 11760, Note_on_c, 1, 63, 0
1, 11760, Note_on_c, 1, 60, 0
1, 11760, Note_on_c, 1, 58, 59
1, 11760, Note_on_c, 1, 62, 59
1, 11820, Note_on_c, 0, 68, 0
1, 11820, Note_on_c, 0, 67, 57
1, 11880, Note_on_c, 1, 62, 0
1, 11880, Note_on_c, 1, 58, 0
1, 11880, Note_on_c, 1, 56, 56
1, 11880, Note_on_c, 1, 60, 56
1, 11940, Note_on_c, 0, 67, 0
1, 11940, Note_on_c, 0, 65, 55
1, 12000, Note_on_c, 1, 60, 0
1, 12000, Note_on_c, 1, 56, 0
1, 12000, Note_on_c, 1, 55, 53
1, 12000, Note_on_c, 1, 58, 53
1, 12060, Note_on_c, 0, 65, 0
1, 12060, Note_on_c, 0, 63, 52
1, 12120, Note_on_c, 1, 58, 0
1, 12120, Note_on_c, 1, 55, 0
1, 12120, Note_on_c, 1, 58, 51
1, 12120, Note_on_c, 1, 61, 51
1, 12180, Note_on_c, 0, 63, 0
1, 12180, Note_on_c, 0, 64, 49
1, 12240, Note_on_c, 1, 61, 0
1, 12240, Note_on_c, 1, 58, 0
1, 12240, Note_on_c, 1, 56, 48
1, 12240, Note_on_c, 1, 60, 48
1, 12300, Note_on_c, 0, 64, 0
1, 12300, Note_on_c, 0, 65, 49
1, 12360, Note_on_c, 1, 60, 0
1, 12360, Note_on_c, 1, 56, 0
1, 12360, Note_on_c, 1, 55, 51
1, 12360, Note_on_c, 1, 58, 51
1, 12420, Note_on_c, 0, 65, 0
1, 12420, Note_on_c, 0, 67, 52
1, 12480, Note_on_c, 1, 58, 0
1, 12480, Note_on_c, 1, 55, 0
1, 12480, Note_on_c, 1, 53, 53
1, 12480, Note_on_c, 1, 56, 53
1, 12540, Note_on_c, 0, 67, 0
1, 12540, Note_on_c, 0, 68, 55
1, 12600, Note_on_c, 1, 56, 0
1, 12600, Note_on_c, 1, 53, 0
1, 12600, Note_on_c, 1, 51, 56
1, 12600, Note_on_c, 1, 54, 56
1, 12660, Note_on_c, 0, 68, 0
1, 12660, Note_on_c, 0, 71, 57
1, 12720, Note_on_c, 1, 54, 0
1, 12720, Note_on_c, 1, 51, 0
1, 12720, Note_on_c, 1, 50, 59
1, 12720, Note_on_c, 1, 53, 59
1, 12780, Note_on_c, 0, 71, 0
1, 12780, Note_on_c, 0, 70, 60
1, 12840, Note_on_c, 1, 53, 0
1, 12840, Note_on_c, 1, 50, 0
1, 12840, Note_on_c, 1, 63, 61
1, 12840, Note_on_c, 1, 66, 61
1, 12900, Note_on_c, 0, 70, 0
1, 12900, Note_on_c, 0, 69, 63
1, 12960, Note_on_c, 1, 66, 0
1, 12960, Note_on_c, 1, 63, 0
1, 12960, Note_on_c, 1, 62, 64
1, 12960, Note_on_c, 1, 65, 64
1, 13020, Note_on_c, 0, 69, 0
1, 13020, Note_on_c, 0, 70, 64
1, 13080, Note_on_c, 1, 65, 0
1, 13080, Note_on_c, 1, 62, 0
1, 13080, Note_on_c, 1, 51, 48
1, 13080, Note_on_c, 1, 54, 48
1, 13140, Note_on_c, 0, 70, 0
1, 13140, Note_on_c, 0, 71, 48
1, 13200, Note_on_c, 1, 54, 0
1, 13200, Note_on_c, 1, 51, 0
1, 13200, Note_on_c, 1, 50, 48
1, 13200, Note_on_c, 1, 53, 48
1, 13260, Note_on_c, 0, 71, 0
1, 13260, Note_on_c, 0, 70, 48
1, 13320, Note_on_c, 1, 53, 0
1, 13320, Note_on_c, 1, 50, 0
1, 13320, Note_on_c, 1, 66, 48
1, 13320, Note_on_c, 1, 63, 48
1, 13380, Note_on_c, 0, 70, 0
1, 13380, Note_on_c, 0, 69, 48
1, 13440, Note_on_c, 1, 63, 0
1, 13440, Note_on_c, 1, 66, 0
1, 13440, Note_on_c, 1, 65, 48
1, 13440, Note_on_c, 1, 62, 48
1, 13500, Note_on_c, 0, 69, 0
1, 13500, Note_on_c, 0, 70, 64
1, 13560, Note_on_c, 0, 70, 0
1, 13560, Note_on_c, 0, 68, 64
1, 13560, Note_on_c, 1, 62, 0
1, 13560, Note_on_c, 1, 65, 0
1, 13560, Note_on_c, 1, 60, 64
1, 13620, Note_on_c, 0, 68, 0
1, 13620, Note_on_c, 0, 75, 64
1, 13680, Note_on_c, 0, 75, 0
1, 13680, Note_on_c, 0, 74, 64
1, 13680, Note_on_c, 1, 60, 0
1, 13680, Note_on_c, 1, 58, 64
1, 13740, Note_on_c, 0, 74, 0
1, 13740, Note_on_c, 0, 67, 64
1, 13800, Note_on_c, 0, 67, 0
1, 13800, Note_on_c, 0, 65, 64
1, 13800, Note_on_c, 1, 58, 0
1, 13800, Note_on_c, 1, 56, 64
1, 13860, Note_on_c, 0, 65, 0
1, 13860, Note_on_c, 0, 72, 64
1, 13920, Note_on_c, 0, 72, 0
1, 13920, Note_on_c, 0, 70, 64
1, 13920, Note_on_c, 1, 56, 0
1, 13920, Note_on_c, 1, 55, 64
1, 13980, Note_on_c, 0, 70, 0
1, 13980, Note_on_c, 0, 63, 64
1, 14040, Note_on_c, 0, 63, 0
1, 14040, Note_on_c, 0, 62, 64
1, 14040, Note_on_c, 1, 55, 0
1, 14040, Note_on_c, 1, 53, 64
1, 14100, Note_on_c, 0, 62, 0
1, 14100, Note_on_c, 0, 68, 64
1, 14160, Note_on_c, 0, 68, 0
1, 14160, Note_on_c, 0, 67, 64
1, 14160, Note_on_c, 1, 53, 0
1, 14160, Note_on_c, 1, 51, 64
1, 14190, Note_on_c, 0, 67, 0
1, 14190, Note_on_c, 0, 65, 64
1, 14205, Note_on_c, 0, 65, 0
1, 14220, Note_on_c, 0, 63, 64
1, 14235, Note_on_c, 0, 63, 0
1, 14250, Note_on_c, 0, 62, 64
1, 14265, Note_on_c, 0, 62, 0
1, 14280, Note_on_c, 0, 60, 64
1, 14280, Note_on_c, 1, 51, 0
1, 14280, Note_on_c, 1, 43, 64
1, 14310, Note_on_c, 0, 60, 0
1, 14310, Note_on_c, 0, 58, 64
1, 14340, Note_on_c, 0, 58, 0
1, 14340, Note_on_c, 0, 56, 64
1, 14370, Note_on_c, 0, 56, 0
1, 14370, Note_on_c, 0, 55, 64
1, 14400, Note_on_c, 0, 55, 0
1, 14400, Note_on_c, 0, 53, 64
1, 14400, Note_on_c, 1, 43, 0
1, 14400, Note_on_c, 1, 44, 64
1, 14520, Note_on_c, 0, 53, 0
1, 14520, Note_on_c, 0, 72, 61
1, 14520, Note_on_c, 0, 68, 61
1, 14568, Note_on_c, 1, 44, 0
1, 14640, Note_on_c, 0, 68, 0
1, 14640, Note_on_c, 0, 72, 0
1, 14640, Note_on_c, 1, 46, 59
1, 14760, Note_on_c, 0, 67, 56
1, 14760, Note_on_c, 0, 70, 56
1, 14808, Note_on_c, 1, 46, 0
1, 14880, Note_on_c, 0, 70, 0
1, 14880, Note_on_c, 0, 67, 0
1, 14880, Note_on_c, 1, 34, 53
1, 15000, Note_on_c, 0, 56, 51
1, 15000, Note_on_c, 0, 62, 51
1, 15120, Note_on_c, 0, 62, 0
1, 15120, Note_on_c, 0, 56, 0
1, 15120, Note_on_c, 0, 55, 48
1, 15120, Note_on_c, 0, 63, 48
1, 15120, Note_on_c, 1, 34, 0
1, 15120, Note_on_c, 1, 39, 48
1, 15240, Note_on_c, 0, 63, 0
1, 15240, Note_on_c, 0, 55, 0
1, 15240, Note_on_c, 0, 68, 72
1, 15240, Note_on_c, 1, 39, 0
1, 15240, Note_on_c, 1, 60, 72
1, 15300, Note_on_c, 0, 68, 0
1, 15300, Note_on_c, 0, 75, 72
1, 15360, Note_on_c, 0, 75, 0
1, 15360, Note_on_c, 0, 74, 72
1, 15360, Note_on_c, 1, 60, 0
1, 15360, Note_on_c, 1, 58, 72
1, 15420, Note_on_c, 0, 74, 0
1, 15420, Note_on_c, 0, 67, 72
1, 15480, Note_on_c, 0, 67, 0
1, 15480, Note_on_c, 0, 65, 72
1, 15480, Note_on_c, 1, 58, 0
1, 15480, Note_on_c, 1, 56, 72
1, 15540, Note_on_c, 0, 65, 0
1, 15540, Note_on_c, 0, 72, 72
1, 15600, Note_on_c, 0, 72, 0
1, 15600, Note_on_c, 0, 70, 72
1, 15600, Note_on_c, 1, 56, 0
1, 15600, Note_on_c, 1, 55, 72
1, 15660, Note_on_c, 0, 70, 0
1, 15660, Note_on_c, 0, 63, 64
1, 15720, Note_on_c, 0, 63, 0
1, 15720, Note_on_c, 0, 75, 48
1, 15720, Note_on_c, 1, 55, 0
1, 15720, Note_on_c, 1, 60, 48
1, 15780, Note_on_c, 0, 75, 0
1, 15780, Note_on_c, 0, 80, 48
1, 15840, Note_on_c, 0, 80, 0
1, 15840, Note_on_c, 0, 79, 48
1, 15840, Note_on_c, 1, 60, 0
1, 15840, Note_on_c, 1, 58, 48
1, 15900, Note_on_c, 0, 79, 0
1, 15900, Note_on_c, 0, 74, 48
1, 15960, Note_on_c, 0, 74, 0
1, 15960, Note_on_c, 0, 72, 48
1, 15960, Note_on_c, 1, 58, 0
1, 15960, Note_on_c, 1, 68, 48
1, 16020, Note_on_c, 0, 72, 0
1, 16020, Note_on_c, 0, 84, 48
1, 16080, Note_on_c, 0, 84, 0
1, 16080, Note_on_c, 0, 82, 48
1, 16080, Note_on_c, 1, 68, 0
1, 16080, Note_on_c, 1, 67, 48
1, 16140, Note_on_c, 0, 82, 0
1, 16140, Note_on_c, 0, 75, 48
1, 16200, Note_on_c, 0, 75, 0
1, 16200, Note_on_c, 0, 80, 48
1, 16200, Note_on_c, 1, 67, 0
1, 16200, Note_on_c, 1, 65, 48
1, 16260, Note_on_c, 0, 80, 0
1, 16260, Note_on_c, 0, 74, 48
1, 16320, Note_on_c, 0, 74, 0
1, 16320, Note_on_c, 0, 79, 64
1, 16320, Note_on_c, 1, 65, 0
1, 16320, Note_on_c, 1, 63, 64
1, 16350, Note_on_c, 0, 79, 0
1, 16350, Note_on_c, 0, 77, 64
1, 16365, Note_on_c, 0, 77, 0
1, 16380, Note_on_c, 0, 75, 64
1, 16395, Note_on_c, 0, 75, 0
1, 16410, Note_on_c, 0, 74, 64
1, 16425, Note_on_c, 0, 74, 0
1, 16440, Note_on_c, 0, 72, 64
1, 16440, Note_on_c, 1, 63, 0
1, 16440, Note_on_c, 1, 55, 64
1, 16470, Note_on_c, 0, 72, 0
1, 16470, Note_on_c, 0, 70, 64
1, 16500, Note_on_c, 0, 70, 0
1, 16500, Note_on_c, 0, 68, 64
1, 16530, Note_on_c, 0, 68, 0
1, 16530, Note_on_c, 0, 67, 64
1, 16560, Note_on_c, 0, 67, 0
1, 16560, Note_on_c, 0, 65, 64
1, 16560, Note_on_c, 1, 55, 0
1, 16560, Note_on_c, 1, 56, 64
1, 16680, Note_on_c, 0, 65, 0
1, 16680, Note_on_c, 0, 84, 64
1, 16680, Note_on_c, 0, 80, 64
1, 16800, Tempo, 1176471
1, 16800, Note_on_c, 0, 80, 0
1, 16800, Note_on_c, 0, 84, 0
1, 16800, Note_on_c, 1, 56, 0
1, 16800, Note_on_c, 1, 58, 64
1, 16920, Note_on_c, 0, 82, 64
1, 16920, Note_on_c, 0, 79, 64
1, 17040, Tempo, 1250000
1, 17040, Note_on_c, 0, 79, 0
1, 17040, Note_on_c, 0, 82, 0
1, 17040, Note_on_c, 1, 58, 0
1, 17040, Note_on_c, 1, 46, 64
1, 17160, Note_on_c, 0, 56, 64
1, 17160, Note_on_c, 0, 62, 64
1, 17280, Tempo, 1333333
1, 17280, Note_on_c, 0, 62, 0
1, 17280, Note_on_c, 0, 56, 0
1, 17280, Note_on_c, 0, 56, 64
1, 17280, Note_on_c, 0, 62, 64
1, 17280, Note_on_c, 1, 46, 0
1, 17280, Note_on_c, 1, 51, 64
1, 17520, Note_on_c, 0, 62, 0
1, 17520, Note_on_c, 0, 56, 0
1, 17520, Note_on_c, 0, 55, 48
1, 17520, Note_on_c, 0, 63, 48
1, 17520, Note_on_c, 1, 51, 0
1, 17520, Note_on_c, 1, 39, 48
1, 17760, Note_on_c, 0, 63, 0
1, 17760, Note_on_c, 0, 55, 0
1, 17760, Note_on_c, 1, 39, 0
1, 18000, Tempo, 1111111
1, 18000, Note_on_c, 0, 69, 64
1, 18060, Note_on_c, 0, 69, 0
1, 18060, Note_on_c, 0, 70, 64
1, 18120, Note_on_c, 1, 67, 64
1, 18204, Note_on_c, 1, 67, 0
1, 18240, Note_on_c, 0, 70, 0
1, 18240, Note_on_c, 0, 69, 64
1, 18240, Note_on_c, 1, 65, 64
1, 18300, Note_on_c, 0, 69, 0
1, 18300, Note_on_c, 0, 70, 64
1, 18360, Note_on_c, 1, 65, 0
1, 18360, Note_on_c, 1, 63, 64
1, 18444, Note_on_c, 1, 63, 0
1, 18480, Note_on_c, 0, 70, 0
1, 18480, Note_on_c, 0, 69, 64
1, 18480, Note_on_c, 1, 62, 64
1, 18540, Note_on_c, 0, 69, 0
1, 18540, Note_on_c, 0, 70, 64
1, 18600, Note_on_c, 1, 62, 0
1, 18600, Note_on_c, 1, 60, 64
1, 18720, Note_on_c, 0, 70, 0
1, 18720, Note_on_c, 0, 69, 64
1, 18720, Note_on_c, 1, 60, 0
1, 18720, Note_on_c, 1, 58, 64
1, 18780, Note_on_c, 0, 69, 0
1, 18780, Note_on_c, 0, 70, 64
1, 18810, Note_on_c, 0, 70, 0
1, 18810, Note_on_c, 0, 72, 64
1, 18840, Note_on_c, 0, 72, 0
1, 18840, Note_on_c, 0, 70, 64
1, 18840, Note_on_c, 1, 58, 0
1, 18840, Note_on_c, 1, 56, 64
1, 18860, Note_on_c, 0, 70, 0
1, 18860, Note_on_c, 0, 72, 64
1, 18880, Note_on_c, 0, 72, 0
1, 18880, Note_on_c, 0, 70, 64
1, 18900, Note_on_c, 0, 70, 0
1, 18900, Note_on_c, 0, 72, 64
1, 18920, Note_on_c, 0, 72, 0
1, 18920, Note_on_c, 0, 70, 64
1, 18940, Note_on_c, 0, 70, 0
1, 18940, Note_on_c, 0, 72, 64
1, 18960, Note_on_c, 0, 72, 0
1, 18960, Note_on_c, 0, 70, 64
1, 18960, Note_on_c, 1, 56, 0
1, 18960, Note_on_c, 1, 55, 64
1, 19080, Note_on_c, 1, 55, 0
1, 19080, Note_on_c, 1, 53, 64
1, 19140, Note_on_c, 0, 70, 0
1, 19140, Note_on_c, 0, 72, 64
1, 19170, Note_on_c, 0, 72, 0
1, 19170, Note_on_c, 0, 74, 64
1, 19200, Note_on_c, 0, 74, 0
1, 19200, Note_on_c, 0, 75, 64
1, 19200, Note_on_c, 1, 53, 0
1, 19200, Note_on_c, 1, 51, 64
1, 19320, Note_on_c, 1, 51, 0
1, 19320, Note_on_c, 1, 55, 64
1, 19380, Note_on_c, 0, 75, 0
1, 19380, Note_on_c, 0, 74, 64
1, 19440, Note_on_c, 0, 74, 0
1, 19440, Note_on_c, 0, 74, 64
1, 19440, Note_on_c, 1, 55, 0
1, 19440, Note_on_c, 1, 56, 64
1, 19560, Note_on_c, 0, 74, 0
1, 19560, Note_on_c, 0, 72, 64
1, 19560, Note_on_c, 1, 56, 0
1, 19560, Note_on_c, 1, 68, 64
1, 19590, Note_on_c, 0, 72, 0
1, 19590, Note_on_c, 0, 74, 64
1, 19620, Note_on_c, 0, 74, 0
1, 19620, Note_on_c, 0, 72, 64
1, 19640, Note_on_c, 0, 72, 0
1, 19640, Note_on_c, 0, 74, 64
1, 19660, Note_on_c, 0, 74, 0
1, 19660, Note_on_c, 0, 72, 64
1, 19680, Note_on_c, 0, 72, 0
1, 19680, Note_on_c, 0, 70, 64
1, 19680, Note_on_c, 1, 68, 0
1, 19680, Note_on_c, 1, 67, 64
1, 19800, Note_on_c, 1, 67, 0
1, 19800, Note_on_c, 1, 65, 64
1, 19920, Note_on_c, 1, 65, 0
1, 19920, Note_on_c, 1, 67, 64
1, 19980, Note_on_c, 0, 70, 0
1, 19980, Note_on_c, 0, 72, 64
1, 20010, Note_on_c, 0, 72, 0
1, 20040, Note_on_c, 0, 74, 64
1, 20040, Note_on_c, 1, 67, 0
1, 20040, Note_on_c, 1, 63, 64
1, 20070, Note_on_c, 0, 74, 0
1, 20100, Note_on_c, 0, 75, 64
1, 20130, Note_on_c, 0, 75, 0
1, 20160, Note_on_c, 0, 70, 64
1, 20160, Note_on_c, 1, 63, 0
1, 20160, Note_on_c, 1, 65, 64
1, 20280, Note_on_c, 0, 70, 0
1, 20280, Note_on_c, 0, 68, 64
1, 20280, Note_on_c, 1, 65, 0
1, 20280, Note_on_c, 1, 58, 64
1, 20310, Note_on_c, 0, 68, 0
1, 20310, Note_on_c, 0, 70, 64
1, 20340, Note_on_c, 0, 70, 0
1, 20340, Note_on_c, 0, 68, 64
1, 20360, Note_on_c, 0, 68, 0
1, 20360, Note_on_c, 0, 70, 64
1, 20380, Note_on_c, 0, 70, 0
1, 20380, Note_on_c, 0, 68, 64
1, 20400, Note_on_c, 0, 68, 0
1, 20400, Note_on_c, 0, 67, 64
1, 20400, Note_on_c, 1, 58, 0
1, 20400, Note_on_c, 1, 63, 64
1, 20520, Note_on_c, 1, 63, 0
1, 20520, Note_on_c, 1, 58, 64
1, 20640, Note_on_c, 0, 67, 0
1, 20640, Note_on_c, 1, 58, 0
1, 20640, Note_on_c, 1, 55, 64
1, 20760, Note_on_c, 1, 55, 0
1, 20760, Note_on_c, 1, 51, 64
1, 20880, Note_on_c, 0, 73, 64
1, 20880, Note_on_c, 1, 51, 0
1, 21000, Note_on_c, 1, 63, 65
1, 21000, Note_on_c, 1, 67, 65
1, 21120, Note_on_c, 0, 73, 0
1, 21120, Note_on_c, 0, 73, 67
1, 21120, Note_on_c, 1, 67, 0
1, 21120, Note_on_c, 1, 63, 0
1, 21120, Note_on_c, 1, 67, 67
1, 21120, Note_on_c, 1, 70, 67
1, 21240, Note_on_c, 1, 70, 0
1, 21240, Note_on_c, 1, 67, 0
1, 21240, Note_on_c, 1, 68, 68
1, 21240, Note_on_c, 1, 72, 68
1, 21360, Note_on_c, 0, 73, 0
1, 21360, Note_on_c, 0, 73, 69
1, 21360, Note_on_c, 1, 72, 0
1, 21360, Note_on_c, 1, 68, 0
1, 21360, Note_on_c, 1, 67, 69
1, 21360, Note_on_c, 1, 70, 69
1, 21480, Note_on_c, 1, 70, 0
1, 21480, Note_on_c, 1, 67, 0
1, 21480, Note_on_c, 1, 65, 71
1, 21480, Note_on_c, 1, 68, 71
1, 21600, Note_on_c, 1, 68, 0
1, 21600, Note_on_c, 1, 65, 0
1, 21600, Note_on_c, 1, 64, 72
1, 21600, Note_on_c, 1, 67, 72
1, 21660, Note_on_c, 0, 73, 0
1, 21660, Note_on_c, 0, 72, 73
1, 21720, Note_on_c, 1, 67, 0
1, 21720, Note_on_c, 1, 64, 0
1, 21720, Note_on_c, 1, 65, 73
1, 21720, Note_on_c, 1, 68, 73
1, 21780, Note_on_c, 0, 72, 0
1, 21780, Note_on_c, 0, 73, 74
1, 21840, Note_on_c, 1, 68, 0
1, 21840, Note_on_c, 1, 65, 0
1, 21840, Note_on_c, 1, 64, 75
1, 21840, Note_on_c, 1, 67, 75
1, 21900, Note_on_c, 0, 73, 0
1, 21900, Note_on_c, 0, 72, 75
1, 21960, Note_on_c, 1, 67, 0
1, 21960, Note_on_c, 1, 64, 0
1, 21960, Note_on_c, 1, 65, 76
1, 21960, Note_on_c, 1, 68, 76
1, 22020, Note_on_c, 0, 72, 0
1, 22020, Note_on_c, 0, 71, 77
1, 22080, Note_on_c, 1, 68, 0
1, 22080, Note_on_c, 1, 65, 0
1, 22080, Note_on_c, 1, 64, 77
1, 22080, Note_on_c, 1, 67, 77
1, 22140, Note_on_c, 0, 71, 0
1, 22140, Note_on_c, 0, 72, 78
1, 22200, Note_on_c, 1, 67, 0
1, 22200, Note_on_c, 1, 64, 0
1, 22200, Note_on_c, 1, 60, 79
1, 22200, Note_on_c, 1, 64, 79
1, 22260, Note_on_c, 0, 72, 0
1, 22260, Note_on_c, 0, 82, 79
1, 22320, Note_on_c, 1, 64, 0
1, 22320, Note_on_c, 1, 60, 0
1, 22320, Note_on_c, 1, 65, 64
1, 22320, Note_on_c, 1, 68, 64
1, 22380, Note_on_c, 0, 82, 0
1, 22380, Note_on_c, 0, 80, 63
1, 22440, Note_on_c, 1, 68, 0
1, 22440, Note_on_c, 1, 65, 0
1, 22440, Note_on_c, 1, 67, 61
1, 22440, Note_on_c, 1, 70, 61
1, 22500, Note_on_c, 0, 80, 0
1, 22500, Note_on_c, 0, 79, 60
1, 22560, Note_on_c, 1, 70, 0
1, 22560, Note_on_c, 1, 67, 0
1, 22560, Note_on_c, 1, 68, 59
1, 22560, Note_on_c, 1, 72, 59
1, 22620, Note_on_c, 0, 79, 0
1, 22620, Note_on_c, 0, 77, 57
1, 22680, Note_on_c, 1, 72, 0
1, 22680, Note_on_c, 1, 68, 0
1, 22680, Note_on_c, 1, 70, 56
1, 22680, Note_on_c, 1, 73, 56
1, 22740, Note_on_c, 0, 77, 0
1, 22740, Note_on_c, 0, 76, 55
1, 22800, Note_on_c, 1, 73, 0
1, 22800, Note_on_c, 1, 70, 0
1, 22800, Note_on_c, 1, 68, 53
1, 22800, Note_on_c, 1, 72, 53
1, 22860, Note_on_c, 0, 76, 0
1, 22860, Note_on_c, 0, 77, 52
1, 22920, Note_on_c, 1, 72, 0
1, 22920, Note_on_c, 1, 68, 0
1, 22920, Note_on_c, 1, 67, 51
1, 22920, Note_on_c, 1, 70, 51
1, 22980, Note_on_c, 0, 77, 0
1, 22980, Note_on_c, 0, 79, 49
1, 23040, Note_on_c, 1, 70, 0
1, 23040, Note_on_c, 1, 67, 0
1, 23040, Note_on_c, 1, 65, 48
1, 23040, Note_on_c, 1, 68, 48
1, 23100, Note_on_c, 0, 79, 0
1, 23100, Note_on_c, 0, 80, 47
1, 23160, Note_on_c, 1, 68, 0
1, 23160, Note_on_c, 1, 65, 0
1, 23160, Note_on_c, 1, 63, 45
1, 23160, Note_on_c, 1, 66, 45
1, 23220, Note_on_c, 0, 80, 0
1, 23220, Note_on_c, 0, 71, 44
1, 23280, Note_on_c, 1, 66, 0
1, 23280, Note_on_c, 1, 63, 0
1, 23280, Note_on_c, 1, 62, 43
1, 23280, Note_on_c, 1, 65, 43
1, 23340, Note_on_c, 0, 71, 0
1, 23340, Note_on_c, 0, 70, 41
1, 23400, Note_on_c, 1, 65, 0
1, 23400, Note_on_c, 1, 62, 0
1, 23400, Note_on_c, 1, 63, 40
1, 23400, Note_on_c, 1, 66, 40
1, 23460, Note_on_c, 0, 70, 0
1, 23460, Note_on_c, 0, 69, 39
1, 23520, Note_on_c, 1, 66, 0
1, 23520, Note_on_c, 1, 63, 0
1, 23520, Note_on_c, 1, 62, 37
1, 23520, Note_on_c, 1, 65, 37
1, 23580, Note_on_c, 0, 69, 0
1, 23580, Note_on_c, 0, 70, 36
1, 23640, Note_on_c, 1, 65, 0
1, 23640, Note_on_c, 1, 62, 0
1, 23640, Note_on_c, 1, 58, 35
1, 23640, Note_on_c, 1, 62, 35
1, 23700, Note_on_c, 0, 70, 0
1, 23700, Note_on_c, 0, 80, 33
1, 23760, Note_on_c, 1, 62, 0
1, 23760, Note_on_c, 1, 58, 0
1, 23760, Note_on_c, 1, 63, 32
1, 23760, Note_on_c, 1, 66, 32
1, 23820, Note_on_c, 0, 80, 0
1, 23820, Note_on_c, 0, 78, 34
1, 23880, Note_on_c, 1, 66, 0
1, 23880, Note_on_c, 1, 63, 0
1, 23880, Note_on_c, 1, 65, 36
1, 23880, Note_on_c, 1, 68, 36
1, 23940, Note_on_c, 0, 78, 0
1, 23940, Note_on_c, 0, 77, 38
1, 24000, Note_on_c, 1, 68, 0
1, 24000, Note_on_c, 1, 65, 0
1, 24000, Note_on_c, 1, 66, 40
1, 24000, Note_on_c, 1, 70, 40
1, 24060, Note_on_c, 0, 77, 0
1, 24060, Note_on_c, 0, 75, 42
1, 24120, Note_on_c, 1, 70, 0
1, 24120, Note_on_c, 1, 66, 0
1, 24120, Note_on_c, 1, 68, 44
1, 24120, Note_on_c, 1, 71, 44
1, 24180, Note_on_c, 0, 75, 0
1, 24180, Note_on_c, 0, 74, 46
1, 24240, Note_on_c, 1, 71, 0
1, 24240, Note_on_c, 1, 68, 0
1, 24240, Note_on_c, 1, 66, 48
1, 24240, Note_on_c, 1, 70, 48
1, 24300, Note_on_c, 0, 74, 0
1, 24300, Note_on_c, 0, 75, 50
1, 24360, Note_on_c, 1, 70, 0
1, 24360, Note_on_c, 1, 66, 0
1, 24360, Note_on_c, 1, 65, 52
1, 24360, Note_on_c, 1, 68, 52
1, 24420, Note_on_c, 0, 75, 0
1, 24420, Note_on_c, 0, 77, 54
1, 24480, Note_on_c, 1, 68, 0
1, 24480, Note_on_c, 1, 65, 0
1, 24480, Note_on_c, 1, 63, 56
1, 24480, Note_on_c, 1, 66, 56
1, 24540, Note_on_c, 0, 77, 0
1, 24540, Note_on_c, 0, 78, 54
1, 24600, Note_on_c, 1, 66, 0
1, 24600, Note_on_c, 1, 63, 0
1, 24600, Note_on_c, 1, 61, 52
1, 24600, Note_on_c, 1, 64, 52
1, 24660, Note_on_c, 0, 78, 0
1, 24660, Note_on_c, 0, 69, 50
1, 24720, Note_on_c, 1, 64, 0
1, 24720, Note_on_c, 1, 61, 0
1, 24720, Note_on_c, 1, 60, 48
1, 24720, Note_on_c, 1, 63, 48
1, 24780, Note_on_c, 0, 69, 0
1, 24780, Note_on_c, 0, 68, 46
1, 24840, Note_on_c, 1, 63, 0
1, 24840, Note_on_c, 1, 60, 0
1, 24840, Note_on_c, 1, 61, 44
1, 24840, Note_on_c, 1, 64, 44
1, 24900, Note_on_c, 0, 68, 0
1, 24900, Note_on_c, 0, 67, 42
1, 24960, Note_on_c, 1, 64, 0
1, 24960, Note_on_c, 1, 61, 0
1, 24960, Note_on_c, 1, 60, 40
1, 24960, Note_on_c, 1, 63, 40
1, 25020, Note_on_c, 0, 67, 0
1, 25020, Note_on_c, 0, 68, 38
1, 25080, Note_on_c, 1, 63, 0
1, 25080, Note_on_c, 1, 60, 0
1, 25080, Note_on_c, 1, 68, 36
1, 25140, Note_on_c, 0, 68, 0
1, 25140, Note_on_c, 0, 78, 34
1, 25200, Note_on_c, 1, 61, 32
1, 25260, Note_on_c, 0, 78, 0
1, 25260, Note_on_c, 0, 77, 35
1, 25320, Note_on_c, 1, 68, 0
1, 25320, Note_on_c, 1, 69, 39
1, 25380, Note_on_c, 0, 77, 0
1, 25380, Note_on_c, 0, 77, 42
1, 25440, Note_on_c, 1, 69, 0
1, 25440, Note_on_c, 1, 70, 45
1, 25500, Note_on_c, 0, 77, 0
1, 25500, Note_on_c, 0, 77, 49
1, 25560, Note_on_c, 0, 77, 0
1, 25560, Note_on_c, 0, 82, 52
1, 25560, Note_on_c, 1, 61, 0
1, 25560, Note_on_c, 1, 61, 52
1, 25620, Note_on_c, 0, 82, 0
1, 25620, Note_on_c, 0, 77, 55
1, 25680, Note_on_c, 1, 61, 0
1, 25680, Note_on_c, 1, 60, 59
1, 25740, Note_on_c, 0, 77, 0
1, 25740, Note_on_c, 0, 75, 62
1, 25800, Note_on_c, 0, 75, 0
1, 25800, Note_on_c, 0, 84, 65
1, 25800, Note_on_c, 1, 70, 0
1, 25800, Note_on_c, 1, 69, 65
1, 25860, Note_on_c, 0, 84, 0
1, 25860, Note_on_c, 0, 75, 69
1, 25920, Note_on_c, 1, 60, 0
1, 25920, Note_on_c, 1, 58, 72
1, 25980, Note_on_c, 0, 75, 0
1, 25980, Note_on_c, 0, 74, 71
1, 26040, Note_on_c, 0, 74, 0
1, 26040, Note_on_c, 0, 82, 69
1, 26040, Note_on_c, 1, 69, 0
1, 26040, Note_on_c, 1, 68, 69
1, 26100, Note_on_c, 0, 82, 0
1, 26100, Note_on_c, 0, 74, 68
1, 26160, Note_on_c, 0, 74, 0
1, 26160, Note_on_c, 1, 68, 0
1, 26160, Note_on_c, 1, 67, 67
1, 26220, Note_on_c, 0, 75, 65
1, 26280, Note_on_c, 0, 75, 0
1, 26280, Note_on_c, 0, 82, 64
1, 26280, Note_on_c, 1, 67, 0
1, 26280, Note_on_c, 1, 66, 64
1, 26340, Note_on_c, 0, 82, 0
1, 26340, Note_on_c, 0, 75, 63
1, 26400, Note_on_c, 0, 75, 0
1, 26400, Note_on_c, 0, 73, 61
1, 26400, Note_on_c, 1, 58, 0
1, 26400, Note_on_c, 1, 56, 61
1, 26460, Note_on_c, 0, 73, 0
1, 26460, Note_on_c, 0, 72, 60
1, 26520, Note_on_c, 0, 72, 0
1, 26520, Note_on_c, 0, 80, 59
1, 26520, Note_on_c, 1, 66, 0
1, 26520, Note_on_c, 1, 66, 59
1, 26580, Note_on_c, 0, 80, 0
1, 26580, Note_on_c, 0, 72, 57
1, 26640, Note_on_c, 0, 72, 0
1, 26640, Note_on_c, 1, 66, 0
1, 26640, Note_on_c, 1, 65, 56
1, 26700, Note_on_c, 0, 73, 55
1, 26760, Note_on_c, 0, 73, 0
1, 26760, Note_on_c, 0, 77, 53
1, 26760, Note_on_c, 1, 65, 0
1, 26760, Note_on_c, 1, 61, 53
1, 26820, Note_on_c, 0, 77, 0
1, 26820, Note_on_c, 0, 68, 52
1, 26880, Note_on_c, 1, 61, 0
1, 26880, Note_on_c, 1, 63, 51
1, 26940, Note_on_c, 0, 68, 0
1, 26940, Note_on_c, 0, 66, 49
1, 27000, Note_on_c, 0, 66, 0
1, 27000, Note_on_c, 0, 75, 48
1, 27000, Note_on_c, 1, 63, 0
1, 27000, Note_on_c, 1, 60, 48
1, 27060, Note_on_c, 0, 75, 0
1, 27060, Note_on_c, 0, 66, 47
1, 27120, Note_on_c, 1, 60, 0
1, 27120, Note_on_c, 1, 61, 45
1, 27180, Note_on_c, 0, 66, 0
1, 27180, Note_on_c, 0, 65, 44
1, 27240, Note_on_c, 0, 65, 0
1, 27240, Note_on_c, 0, 73, 43
1, 27240, Note_on_c, 1, 56, 0
1, 27240, Note_on_c, 1, 55, 43
1, 27300, Note_on_c, 0, 73, 0
1, 27300, Note_on_c, 0, 65, 41
1, 27360, Note_on_c, 0, 65, 0
1, 27360, Note_on_c, 0, 65, 40
1, 27360, Note_on_c, 1, 55, 0
1, 27360, Note_on_c, 1, 61, 0
1, 27360, Note_on_c, 1, 56, 40
1, 27360, Note_on_c, 1, 61, 40
1, 27390, Note_on_c, 0, 65, 0
1, 27390, Note_on_c, 0, 66, 40
1, 27420, Note_on_c, 0, 66, 0
1, 27420, Note_on_c, 0, 65, 39
1, 27440, Note_on_c, 0, 65, 0
1, 27440, Note_on_c, 0, 66, 39
1, 27460, Note_on_c, 0, 66, 0
1, 27460, Note_on_c, 0, 65, 39
1, 27480, Note_on_c, 0, 65, 0
1, 27480, Note_on_c, 0, 66, 39
1, 27500, Note_on_c, 0, 66, 0
1, 27500, Note_on_c, 0, 65, 38
1, 27520, Note_on_c, 0, 65, 0
1, 27520, Note_on_c, 0, 66, 38
1, 27540, Note_on_c, 0, 66, 0
1, 27540, Note_on_c, 0, 65, 38
1, 27560, Note_on_c, 0, 65, 0
1, 27560, Note_on_c, 0, 66, 38
1, 27580, Note_on_c, 0, 66, 0
1, 27580, Note_on_c, 0, 65, 38
1, 27600, Note_on_c, 0, 65, 0
1, 27600, Note_on_c, 0, 63, 37
1, 27600, Note_on_c, 1, 61, 0
1, 27600, Note_on_c, 1, 60, 37
1, 27684, Note_on_c, 1, 60, 0
1, 27684, Note_on_c, 1, 56, 0
1, 27720, Note_on_c, 1, 58, 36
1, 27720, Note_on_c, 1, 61, 36
1, 27840, Note_on_c, 0, 63, 0
1, 27840, Note_on_c, 1, 61, 0
1, 27840, Note_on_c, 1, 58, 0
1, 27840, Note_on_c, 1, 60, 35
1, 27840, Note_on_c, 1, 63, 35
1, 27960, Note_on_c, 1, 63, 0
1, 27960, Note_on_c, 1, 60, 0
1, 27960, Note_on_c, 1, 61, 33
1, 27960, Note_on_c, 1, 65, 33
1, 28080, Note_on_c, 1, 65, 0
1, 28080, Note_on_c, 1, 61, 0
1, 28080, Note_on_c, 1, 63, 64
1, 28080, Note_on_c, 1, 66, 64
1, 28140, Note_on_c, 0, 68, 64
1, 28200, Note_on_c, 0, 68, 0
1, 28200, Note_on_c, 0, 70, 64
1, 28200, Note_on_c, 1, 66, 0
1, 28200, Note_on_c, 1, 63, 0
1, 28200, Note_on_c, 1, 60, 64
1, 28200, Note_on_c, 1, 63, 64
1, 28220, Note_on_c, 0, 70, 0
1, 28220, Note_on_c, 0, 68, 64
1, 28240, Note_on_c, 0, 68, 0
1, 28240, Note_on_c, 0, 67, 64
1, 28260, Note_on_c, 0, 67, 0
1, 28260, Note_on_c, 0, 68, 64
1, 28320, Note_on_c, 0, 68, 0
1, 28320, Note_on_c, 1, 63, 0
1, 28320, Note_on_c, 1, 60, 0
1, 28320, Note_on_c, 1, 61, 64
1, 28320, Note_on_c, 1, 65, 64
1, 28380, Note_on_c, 0, 80, 64
1, 28440, Note_on_c, 0, 80, 0
1, 28440, Note_on_c, 1, 65, 0
1, 28440, Note_on_c, 1, 61, 0
1, 28440, Note_on_c, 1, 65, 64
1, 28440, Note_on_c, 1, 68, 64
1, 28500, Note_on_c, 0, 73, 64
1, 28560, Note_on_c, 1, 68, 0
1, 28560, Note_on_c, 1, 65, 0
1, 28560, Note_on_c, 1, 63, 64
1, 28560, Note_on_c, 1, 66, 64
1, 28620, Note_on_c, 0, 73, 0
1, 28620, Note_on_c, 0, 72, 64
1, 28680, Note_on_c, 1, 66, 0
1, 28680, Note_on_c, 1, 63, 0
1, 28680, Note_on_c, 1, 61, 64
1, 28680, Note_on_c, 1, 65, 64
1, 28740, Note_on_c, 0, 72, 0
1, 28740, Note_on_c, 0, 70, 64
1, 28764, Note_on_c, 1, 65, 0
1, 28764, Note_on_c, 1, 61, 0
1, 28800, Note_on_c, 0, 70, 0
1, 28800, Note_on_c, 1, 63, 48
1, 28800, Note_on_c, 1, 60, 48
1, 28860, Note_on_c, 0, 68, 49
1, 28920, Note_on_c, 0, 68, 0
1, 28920, Note_on_c, 0, 70, 51
1, 28920, Note_on_c, 1, 60, 0
1, 28920, Note_on_c, 1, 63, 0
1, 28920, Note_on_c, 1, 66, 51
1, 28920, Note_on_c, 1, 63, 51
1, 28940, Note_on_c, 0, 70, 0
1, 28940, Note_on_c, 0, 68, 51
1, 28960, Note_on_c, 0, 68, 0
1, 28960, Note_on_c, 0, 67, 52
1, 28980, Note_on_c, 0, 67, 0
1, 28980, Note_on_c, 0, 68, 52
1, 29040, Note_on_c, 0, 68, 0
1, 29040, Note_on_c, 1, 63, 0
1, 29040, Note_on_c, 1, 66, 0
1, 29040, Note_on_c, 1, 65, 53
1, 29040, Note_on_c, 1, 61, 53
1, 29100, Note_on_c, 0, 80, 55
1, 29160, Note_on_c, 0, 80, 0
1, 29160, Note_on_c, 1, 61, 0
1, 29160, Note_on_c, 1, 65, 0
1, 29160, Note_on_c, 1, 68, 56
1, 29160, Note_on_c, 1, 65, 56
1, 29220, Note_on_c, 0, 73, 57
1, 29280, Note_on_c, 1, 65, 0
1, 29280, Note_on_c, 1, 68, 0
1, 29280, Note_on_c, 1, 66, 59
1, 29280, Note_on_c, 1, 63, 59
1, 29340, Note_on_c, 0, 73, 0
1, 29340, Note_on_c, 0, 72, 60
1, 29400, Note_on_c, 1, 63, 0
1, 29400, Note_on_c, 1, 66, 0
1, 29400, Note_on_c, 1, 65, 61
1, 29400, Note_on_c, 1, 61, 61
1, 29460, Note_on_c, 0, 72, 0
1, 29460, Note_on_c, 0, 70, 63
1, 29520, Note_on_c, 1, 61, 0
1, 29520, Note_on_c, 1, 65, 0
1, 29520, Note_on_c, 1, 60, 64
1, 29520, Note_on_c, 1, 63, 64
1, 29580, Note_on_c, 0, 70, 0
1, 29580, Note_on_c, 0, 68, 65
1, 29640, Note_on_c, 1, 63, 0
1, 29640, Note_on_c, 1, 60, 0
1, 29640, Note_on_c, 1, 61, 67
1, 29640, Note_on_c, 1, 64, 67
1, 29700, Note_on_c, 0, 68, 0
1, 29700, Note_on_c, 0, 67, 68
1, 29760, Note_on_c, 1, 64, 0
1, 29760, Note_on_c, 1, 61, 0
1, 29760, Note_on_c, 1, 60, 69
1, 29760, Note_on_c, 1, 63, 69
1, 29820, Note_on_c, 0, 67, 0
1, 29820, Note_on_c, 0, 68, 71
1, 29880, Note_on_c, 1, 63, 0
1, 29880, Note_on_c, 1, 60, 0
1, 29880, Note_on_c, 1, 58, 72
1, 29880, Note_on_c, 1, 61, 72
1, 29940, Note_on_c, 0, 68, 0
1, 29940, Note_on_c, 0, 66, 73
1, 30000, Note_on_c, 1, 61, 0
1, 30000, Note_on_c, 1, 58, 0
1, 30000, Note_on_c, 1, 56, 75
1, 30000, Note_on_c, 1, 60, 75
1, 30060, Note_on_c, 0, 66, 0
1, 30060, Note_on_c, 0, 65, 76
1, 30120, Note_on_c, 1, 60, 0
1, 30120, Note_on_c, 1, 56, 0
1, 30120, Note_on_c, 1, 54, 77
1, 30120, Note_on_c, 1, 58, 77
1, 30180, Note_on_c, 0, 65, 0
1, 30180, Note_on_c, 0, 63, 79
1, 30240, Note_on_c, 0, 63, 0
1, 30240, Note_on_c, 1, 58, 0
1, 30240, Note_on_c, 1, 54, 0
1, 30240, Note_on_c, 1, 53, 72
1, 30240, Note_on_c, 1, 56, 72
1, 30300, Note_on_c, 0, 61, 72
1, 30360, Note_on_c, 0, 61, 0
1, 30360, Note_on_c, 0, 68, 72
1, 30420, Note_on_c, 0, 68, 0
1, 30420, Note_on_c, 0, 65, 72
1, 30480, Note_on_c, 1, 56, 0
1, 30480, Note_on_c, 1, 53, 0
1, 30480, Note_on_c, 1, 54, 72
1, 30540, Note_on_c, 0, 65, 0
1, 30540, Note_on_c, 0, 63, 72
1, 30600, Note_on_c, 0, 63, 0
1, 30600, Note_on_c, 0, 70, 72
1, 30660, Note_on_c, 0, 70, 0
1, 30660, Note_on_c, 0, 66, 72
1, 30720, Note_on_c, 0, 66, 0
1, 30720, Note_on_c, 0, 65, 72
1, 30720, Note_on_c, 1, 54, 0
1, 30720, Note_on_c, 1, 56, 72
1, 30780, Note_on_c, 0, 65, 0
1, 30780, Note_on_c, 0, 63, 72
1, 30840, Note_on_c, 0, 63, 0
1, 30840, Note_on_c, 0, 66, 72
1, 30900, Note_on_c, 0, 66, 0
1, 30900, Note_on_c, 0, 60, 72
1, 30960, Note_on_c, 0, 60, 0
1, 30960, Note_on_c, 1, 56, 0
1, 30960, Note_on_c, 1, 53, 48
1, 31020, Note_on_c, 0, 61, 49
1, 31080, Note_on_c, 0, 61, 0
1, 31080, Note_on_c, 0, 68, 51
1, 31140, Note_on_c, 0, 68, 0
1, 31140, Note_on_c, 0, 65, 52
1, 31200, Note_on_c, 1, 53, 0
1, 31200, Note_on_c, 1, 54, 53
1, 31260, Note_on_c, 0, 65, 0
1, 31260, Note_on_c, 0, 63, 55
1, 31320, Note_on_c, 0, 63, 0
1, 31320, Note_on_c, 0, 70, 56
1, 31380, Note_on_c, 0, 70, 0
1, 31380, Note_on_c, 0, 66, 57
1, 31440, Note_on_c, 0, 66, 0
1, 31440, Note_on_c, 0, 65, 59
1, 31440, Note_on_c, 1, 54, 0
1, 31440, Note_on_c, 1, 56, 59
1, 31500, Note_on_c, 0, 65, 0
1, 31500, Note_on_c, 0, 63, 60
1, 31560, Note_on_c, 0, 63, 0
1, 31560, Note_on_c, 0, 66, 61
1, 31620, Note_on_c, 0, 66, 0
1, 31620, Note_on_c, 0, 60, 63
1, 31680, Note_on_c, 0, 60, 0
1, 31680, Note_on_c, 0, 61, 64
1, 31680, Note_on_c, 1, 56, 0
1, 31680, Note_on_c, 1, 49, 64
1, 31740, Note_on_c, 0, 61, 0
1, 31740, Note_on_c, 0, 77, 64
1, 31800, Note_on_c, 1, 53, 64
1, 31860, Note_on_c, 0, 77, 0
1, 31860, Note_on_c, 0, 73, 64
1, 31920, Note_on_c, 1, 53, 0
1, 31920, Note_on_c, 1, 56, 64
1, 31980, Note_on_c, 0, 73, 0
1, 31980, Note_on_c, 0, 68, 64
1, 32040, Note_on_c, 1, 56, 0
1, 32040, Note_on_c, 1, 61, 64
1, 32100, Note_on_c, 0, 68, 0
1, 32100, Note_on_c, 0, 65, 64
1, 32160, Note_on_c, 0, 65, 0
1, 32160, Note_on_c, 0, 68, 64
1, 32160, Note_on_c, 1, 61, 0
1, 32160, Note_on_c, 1, 49, 0
1, 32160, Note_on_c, 1, 48, 64
1, 32220, Note_on_c, 0, 68, 0
1, 32220, Note_on_c, 0, 66, 64
1, 32280, Note_on_c, 0, 66, 0
1, 32280, Note_on_c, 0, 75, 64
1, 32280, Note_on_c, 1, 56, 64
1, 32340, Note_on_c, 0, 75, 0
1, 32340, Note_on_c, 0, 66, 64
1, 32400, Note_on_c, 0, 66, 0
1, 32400, Note_on_c, 0, 65, 32
1, 32400, Note_on_c, 1, 56, 0
1, 32400, Note_on_c, 1, 48, 0
1, 32400, Note_on_c, 1, 49, 32
1, 32460, Note_on_c, 0, 65, 0
1, 32460, Note_on_c, 0, 77, 32
1, 32520, Note_on_c, 1, 53, 32
1, 32580, Note_on_c, 0, 77, 0
1, 32580, Note_on_c, 0, 73, 32
1, 32640, Note_on_c, 1, 53, 0
1, 32640, Note_on_c, 1, 56, 32
1, 32700, Note_on_c, 0, 73, 0
1, 32700, Note_on_c, 0, 68, 32
1, 32760, Note_on_c, 1, 56, 0
1, 32760, Note_on_c, 1, 61, 32
1, 32820, Note_on_c, 0, 68, 0
1, 32820, Note_on_c, 0, 65, 32
1, 32880, Note_on_c, 0, 65, 0
1, 32880, Note_on_c, 0, 68, 32
1, 32880, Note_on_c, 1, 61, 0
1, 32880, Note_on_c, 1, 49, 0
1, 32880, Note_on_c, 1, 48, 32
1, 32940, Note_on_c, 0, 68, 0
1, 32940, Note_on_c, 0, 66, 32
1, 33000, Note_on_c, 0, 66, 0
1, 33000, Note_on_c, 0, 75, 32
1, 33000, Note_on_c, 1, 56, 32
1, 33060, Note_on_c, 0, 75, 0
1, 33060, Note_on_c, 0, 66, 32
1, 33120, Note_on_c, 0, 66, 0
1, 33120, Note_on_c, 0, 65, 40
1, 33120, Note_on_c, 1, 56, 0
1, 33120, Note_on_c, 1, 48, 0
1, 33120, Note_on_c, 1, 49, 40
1, 33180, Note_on_c, 0, 65, 0
1, 33180, Note_on_c, 0, 77, 40
1, 33240, Note_on_c, 1, 53, 40
1, 33300, Note_on_c, 0, 77, 0
1, 33300, Note_on_c, 0, 75, 40
1, 33360, Note_on_c, 1, 53, 0
1, 33360, Note_on_c, 1, 55, 40
1, 33420, Note_on_c, 0, 75, 0
1, 33420, Note_on_c, 0, 73, 40
1, 33480, Note_on_c, 1, 55, 0
1, 33480, Note_on_c, 1, 57, 40
1, 33540, Note_on_c, 0, 73, 0
1, 33540, Note_on_c, 0, 72, 40
1, 33600, Note_on_c, 1, 57, 0
1, 33600, Note_on_c, 1, 58, 40
1, 33660, Note_on_c, 0, 72, 0
1, 33660, Note_on_c, 0, 70, 40
1, 33720, Note_on_c, 1, 58, 0
1, 33720, Note_on_c, 1, 61, 40
1, 33780, Note_on_c, 0, 70, 0
1, 33780, Note_on_c, 0, 68, 40
1, 33840, Note_on_c, 0, 68, 0
1, 33840, Note_on_c, 0, 67, 48
1, 33840, Note_on_c, 1, 49, 0
1, 33840, Note_on_c, 1, 51, 48
1, 33900, Note_on_c, 0, 67, 0
1, 33900, Note_on_c, 0, 79, 48
1, 33960, Note_on_c, 1, 61, 0
1, 33960, Note_on_c, 1, 55, 48
1, 34020, Note_on_c, 0, 79, 0
1, 34020, Note_on_c, 0, 77, 48
1, 34080, Note_on_c, 1, 55, 0
1, 34080, Note_on_c, 1, 56, 48
1, 34140, Note_on_c, 0, 77, 0
1, 34140, Note_on_c, 0, 75, 48
1, 34200, Note_on_c, 1, 56, 0
1, 34200, Note_on_c, 1, 58, 48
1, 34260, Note_on_c, 0, 75, 0
1, 34260, Note_on_c, 0, 73, 48
1, 34320, Note_on_c, 1, 58, 0
1, 34320, Note_on_c, 1, 60, 48
1, 34380, Note_on_c, 0, 73, 0
1, 34380, Note_on_c, 0, 72, 48
1, 34440, Note_on_c, 1, 60, 0
1, 34440, Note_on_c, 1, 63, 48
1, 34500, Note_on_c, 0, 72, 0
1, 34500, Note_on_c, 0, 70, 48
1, 34560, Note_on_c, 0, 70, 0
1, 34560, Note_on_c, 0, 68, 56
1, 34560, Note_on_c, 1, 51, 0
1, 34560, Note_on_c, 1, 53, 56
1, 34620, Note_on_c, 0, 68, 0
1, 34620, Note_on_c, 0, 80, 56
1, 34680, Note_on_c, 1, 63, 0
1, 34680, Note_on_c, 1, 56, 56
1, 34740, Note_on_c, 0, 80, 0
1, 34740, Note_on_c, 0, 79, 56
1, 34800, Note_on_c, 1, 56, 0
1, 34800, Note_on_c, 1, 58, 56
1, 34860, Note_on_c, 0, 79, 0
1, 34860, Note_on_c, 0, 77, 56
1, 34920, Note_on_c, 1, 58, 0
1, 34920, Note_on_c, 1, 60, 56
1, 34980, Note_on_c, 0, 77, 0
1, 34980, Note_on_c, 0, 75, 56
1, 35040, Note_on_c, 1, 60, 0
1, 35040, Note_on_c, 1, 61, 56
1, 35100, Note_on_c, 0, 75, 0
1, 35100, Note_on_c, 0, 73, 56
1, 35160, Note_on_c, 1, 61, 0
1, 35160, Note_on_c, 1, 65, 56
1, 35220, Note_on_c, 0, 73, 0
1, 35220, Note_on_c, 0, 72, 56
1, 35280, Note_on_c, 0, 72, 0
1, 35280, Note_on_c, 0, 70, 64
1, 35280, Note_on_c, 1, 53, 0
1, 35280, Note_on_c, 1, 55, 64
1, 35340, Note_on_c, 0, 70, 0
1, 35340, Note_on_c, 0, 82, 64
1, 35400, Note_on_c, 1, 65, 0
1, 35400, Note_on_c, 1, 58, 64
1, 35460, Note_on_c, 0, 82, 0
1, 35460, Note_on_c, 0, 80, 64
1, 35520, Note_on_c, 1, 58, 0
1, 35520, Note_on_c, 1, 60, 64
1, 35580, Note_on_c, 0, 80, 0
1, 35580, Note_on_c, 0, 79, 64
1, 35640, Note_on_c, 1, 60, 0
1, 35640, Note_on_c, 1, 62, 64
1, 35700, Note_on_c, 0, 79, 0
1, 35700, Note_on_c, 0, 77, 64
1, 35760, Note_on_c, 1, 62, 0
1, 35760, Note_on_c, 1, 63, 64
1, 35820, Note_on_c, 0, 77, 0
1, 35820, Note_on_c, 0, 75, 64
1, 35880, Note_on_c, 1, 63, 0
1, 35880, Note_on_c, 1, 67, 64
1, 35940, Note_on_c, 0, 75, 0
1, 35940, Note_on_c, 0, 73, 64
1, 36000, Note_on_c, 0, 73, 0
1, 36000, Note_on_c, 0, 72, 64
1, 36000, Note_on_c, 1, 67, 0
1, 36000, Note_on_c, 1, 55, 0
1, 36000, Note_on_c, 1, 56, 64
1, 36060, Note_on_c, 0, 72, 0
1, 36060, Note_on_c, 0, 75, 64
1, 36120, Note_on_c, 1, 56, 0
1, 36120, Note_on_c, 1, 68, 64
1, 36120, Note_on_c, 1, 72, 64
1, 36180, Note_on_c, 0, 75, 0
1, 36180, Note_on_c, 0, 75, 64
1, 36240, Note_on_c, 1, 72, 0
1, 36240, Note_on_c, 1, 68, 0
1, 36240, Note_on_c, 1, 67, 64
1, 36240, Note_on_c, 1, 70, 64
1, 36300, Note_on_c, 0, 75, 0
1, 36300, Note_on_c, 0, 75, 64
1, 36360, Note_on_c, 1, 70, 0
1, 36360, Note_on_c, 1, 67, 0
1, 36360, Note_on_c, 1, 65, 64
1, 36360, Note_on_c, 1, 68, 64
1, 36420, Note_on_c, 0, 75, 0
1, 36420, Note_on_c, 0, 75, 64
1, 36480, Note_on_c, 0, 75, 0
1, 36480, Note_on_c, 0, 75, 64
1, 36480, Note_on_c, 1, 68, 0
1, 36480, Note_on_c, 1, 65, 0
1, 36480, Note_on_c, 1, 63, 64
1, 36480, Note_on_c, 1, 67, 64
1, 36500, Note_on_c, 0, 75, 0
1, 36500, Note_on_c, 0, 77, 64
1, 36520, Note_on_c, 0, 77, 0
1, 36520, Note_on_c, 0, 75, 64
1, 36540, Note_on_c, 0, 75, 0
1, 36540, Note_on_c, 0, 77, 64
1, 36560, Note_on_c, 0, 77, 0
1, 36560, Note_on_c, 0, 75, 64
1, 36580, Note_on_c, 0, 75, 0
1, 36580, Note_on_c, 0, 77, 64
1, 36600, Note_on_c, 0, 77, 0
1, 36600, Note_on_c, 0, 75, 64
1, 36600, Note_on_c, 1, 67, 0
1, 36600, Note_on_c, 1, 63, 0
1, 36600, Note_on_c, 1, 61, 64
1, 36600, Note_on_c, 1, 65, 64
1, 36620, Note_on_c, 0, 75, 0
1, 36620, Note_on_c, 0, 77, 64
1, 36640, Note_on_c, 0, 77, 0
1, 36640, Note_on_c, 0, 75, 64
1, 36660, Note_on_c, 0, 75, 0
1, 36660, Note_on_c, 0, 77, 64
1, 36660, Note_on_c, 1, 65, 0
1, 36660, Note_on_c, 1, 61, 0
1, 36690, Note_on_c, 0, 77, 0
1, 36690, Note_on_c, 0, 79, 64
1, 36720, Note_on_c, 0, 79, 0
1, 36720, Note_on_c, 0, 80, 64
1, 36720, Note_on_c, 1, 60, 64
1, 36720, Note_on_c, 1, 63, 64
1, 36780, Note_on_c, 0, 80, 0
1, 36780, Note_on_c, 0, 80, 64
1, 36840, Note_on_c, 1, 63, 0
1, 36840, Note_on_c, 1, 60, 0
1, 36840, Note_on_c, 1, 58, 64
1, 36840, Note_on_c, 1, 61, 64
1, 36900, Note_on_c, 0, 80, 0
1, 36900, Note_on_c, 0, 80, 64
1, 36960, Note_on_c, 1, 61, 0
1, 36960, Note_on_c, 1, 58, 0
1, 36960, Note_on_c, 1, 56, 64
1, 36960, Note_on_c, 1, 60, 64
1, 37020, Note_on_c, 0, 80, 0
1, 37020, Note_on_c, 0, 80, 64
1, 37080, Note_on_c, 1, 60, 0
1, 37080, Note_on_c, 1, 56, 0
1, 37080, Note_on_c, 1, 55, 64
1, 37080, Note_on_c, 1, 58, 64
1, 37140, Note_on_c, 0, 80, 0
1, 37140, Note_on_c, 0, 80, 64
1, 37200, Note_on_c, 0, 80, 0
1, 37200, Note_on_c, 0, 80, 64
1, 37200, Note_on_c, 1, 58, 0
1, 37200, Note_on_c, 1, 55, 0
1, 37200, Note_on_c, 1, 53, 64
1, 37200, Note_on_c, 1, 56, 64
1, 37220, Note_on_c, 0, 80, 0
1, 37220, Note_on_c, 0, 82, 64
1, 37240, Note_on_c, 0, 82, 0
1, 37240, Note_on_c, 0, 80, 64
1, 37260, Note_on_c, 0, 80, 0
1, 37260, Note_on_c, 0, 82, 64
1, 37280, Note_on_c, 0, 82, 0
1, 37280, Note_on_c, 0, 80, 64
1, 37300, Note_on_c, 0, 80, 0
1, 37300, Note_on_c, 0, 82, 64
1, 37320, Note_on_c, 0, 82, 0
1, 37320, Note_on_c, 0, 80, 64
1, 37320, Note_on_c, 1, 56, 0
1, 37320, Note_on_c, 1, 53, 0
1, 37320, Note_on_c, 1, 51, 64
1, 37320, Note_on_c, 1, 55, 64
1, 37340, Note_on_c, 0, 80, 0
1, 37340, Note_on_c, 0, 82, 64
1, 37360, Note_on_c, 0, 82, 0
1, 37360, Note_on_c, 0, 80, 64
1, 37380, Note_on_c, 0, 80, 0
1, 37380, Note_on_c, 0, 82, 64
1, 37410, Note_on_c, 0, 82, 0
1, 37410, Note_on_c, 0, 84, 64
1, 37440, Note_on_c, 0, 84, 0
1, 37440, Note_on_c, 0, 85, 64
1, 37440, Note_on_c, 1, 55, 0
1, 37440, Note_on_c, 1, 51, 0
1, 37440, Note_on_c, 1, 49, 64
1, 37440, Note_on_c, 1, 53, 64
1, 37460, Note_on_c, 0, 85, 0
1, 37460, Note_on_c, 0, 87, 64
1, 37480, Note_on_c, 0, 87, 0
1, 37480, Note_on_c, 0, 85, 64
1, 37500, Note_on_c, 0, 85, 0
1, 37500, Note_on_c, 0, 87, 64
1, 37520, Note_on_c, 0, 87, 0
1, 37520, Note_on_c, 0, 85, 64
1, 37540, Note_on_c, 0, 85, 0
1, 37540, Note_on_c, 0, 87, 64
1, 37560, Note_on_c, 0, 87, 0
1, 37560, Note_on_c, 0, 85, 64
1, 37560, Note_on_c, 1, 53, 0
1, 37560, Note_on_c, 1, 49, 0
1, 37560, Note_on_c, 1, 48, 64
1, 37560, Note_on_c, 1, 51, 64
1, 37590, Note_on_c, 0, 85, 0
1, 37590, Note_on_c, 0, 84, 64
1, 37620, Note_on_c, 0, 84, 0
1, 37620, Note_on_c, 0, 85, 64
1, 37650, Note_on_c, 0, 85, 0
1, 37650, Note_on_c, 0, 87, 64
1, 37680, Note_on_c, 0, 87, 0
1, 37680, Note_on_c, 0, 89, 64
1, 37680, Note_on_c, 1, 51, 0
1, 37680, Note_on_c, 1, 48, 0
1, 37680, Note_on_c, 1, 46, 64
1, 37680, Note_on_c, 1, 49, 64
1, 37740, Note_on_c, 0, 89, 0
1, 37740, Note_on_c, 0, 89, 64
1, 37800, Note_on_c, 1, 49, 0
1, 37800, Note_on_c, 1, 46, 0
1, 37800, Note_on_c, 1, 44, 64
1, 37800, Note_on_c, 1, 48, 64
1, 37860, Note_on_c, 0, 89, 0
1, 37860, Note_on_c, 0, 89, 64
1, 37920, Note_on_c, 1, 48, 0
1, 37920, Note_on_c, 1, 44, 0
1, 37920, Note_on_c, 1, 43, 64
1, 37920, Note_on_c, 1, 46, 64
1, 37980, Note_on_c, 0, 89, 0
1, 37980, Note_on_c, 0, 89, 64
1, 38040, Note_on_c, 0, 89, 0
1, 38040, Note_on_c, 0, 87, 64
1, 38040, Note_on_c, 1, 46, 0
1, 38040, Note_on_c, 1, 43, 0
1, 38040, Note_on_c, 1, 67, 64
1, 38040, Note_on_c, 1, 70, 64
1, 38100, Note_on_c, 0, 87, 0
1, 38100, Note_on_c, 0, 85, 64
1, 38160, Note_on_c, 0, 85, 0
1, 38160, Note_on_c, 0, 84, 64
1, 38160, Note_on_c, 1, 70, 0
1, 38160, Note_on_c, 1, 67, 0
1, 38160, Note_on_c, 1, 68, 64
1, 38160, Note_on_c, 1, 72, 64
1, 38180, Note_on_c, 0, 84, 0
1, 38180, Note_on_c, 0, 85, 64
1, 38200, Note_on_c, 0, 85, 0
1, 38200, Note_on_c, 0, 84, 64
1, 38220, Note_on_c, 0, 84, 0
1, 38220, Note_on_c, 0, 82, 63
1, 38280, Note_on_c, 0, 82, 0
1, 38280, Note_on_c, 0, 84, 63
1, 38280, Note_on_c, 1, 72, 0
1, 38280, Note_on_c, 1, 68, 0
1, 38280, Note_on_c, 1, 67, 63
1, 38280, Note_on_c, 1, 70, 63
1, 38340, Note_on_c, 0, 84, 0
1, 38340, Note_on_c, 0, 87, 62
1, 38400, Note_on_c, 0, 87, 0
1, 38400, Note_on_c, 0, 87, 61
1, 38400, Note_on_c, 1, 70, 0
1, 38400, Note_on_c, 1, 67, 0
1, 38400, Note_on_c, 1, 65, 61
1, 38400, Note_on_c, 1, 68, 61
1, 38460, Note_on_c, 0, 87, 0
1, 38460, Note_on_c, 0, 85, 61
1, 38490, Note_on_c, 0, 85, 0
1, 38520, Note_on_c, 0, 85, 60
1, 38520, Note_on_c, 1, 68, 0
1, 38520, Note_on_c, 1, 65, 0
1, 38520, Note_on_c, 1, 63, 60
1, 38520, Note_on_c, 1, 67, 60
1, 38580, Note_on_c, 0, 85, 0
1, 38580, Note_on_c, 0, 84, 59
1, 38610, Note_on_c, 0, 84, 0
1, 38640, Note_on_c, 0, 84, 59
1, 38640, Note_on_c, 1, 67, 0
1, 38640, Note_on_c, 1, 63, 0
1, 38640, Note_on_c, 1, 61, 59
1, 38640, Note_on_c, 1, 65, 59
1, 38700, Note_on_c, 0, 84, 0
1, 38700, Note_on_c, 0, 82, 58
1, 38760, Note_on_c, 0, 82, 0
1, 38760, Note_on_c, 0, 82, 57
1, 38760, Note_on_c, 1, 65, 0
1, 38760, Note_on_c, 1, 61, 0
1, 38760, Note_on_c, 1, 60, 57
1, 38760, Note_on_c, 1, 63, 57
1, 38820, Note_on_c, 0, 82, 0
1, 38820, Note_on_c, 0, 80, 57
1, 38880, Note_on_c, 0, 80, 0
1, 38880, Note_on_c, 0, 80, 56
1, 38880, Note_on_c, 1, 63, 0
1, 38880, Note_on_c, 1, 60, 0
1, 38880, Note_on_c, 1, 63, 56
1, 39000, Note_on_c, 1, 63, 0
1, 39000, Note_on_c, 1, 51, 53
1, 39120, Note_on_c, 0, 80, 0
1, 39120, Note_on_c, 0, 79, 51
1, 39120, Note_on_c, 1, 51, 0
1, 39120, Note_on_c, 1, 63, 51
1, 39120, Note_on_c, 1, 67, 51
1, 39140, Note_on_c, 0, 79, 0
1, 39140, Note_on_c, 0, 80, 50
1, 39160, Note_on_c, 0, 80, 0
1, 39160, Note_on_c, 0, 79, 50
1, 39180, Note_on_c, 0, 79, 0
1, 39180, Note_on_c, 0, 80, 49
1, 39200, Note_on_c, 0, 80, 0
1, 39200, Note_on_c, 0, 79, 49
1, 39220, Note_on_c, 0, 79, 0
1, 39220, Note_on_c, 0, 80, 48
1, 39240, Note_on_c, 0, 80, 0
1, 39240, Note_on_c, 0, 79, 48
1, 39240, Note_on_c, 1, 67, 0
1, 39240, Note_on_c, 1, 63, 0
1, 39240, Note_on_c, 1, 65, 48
1, 39240, Note_on_c, 1, 68, 48
1, 39360, Note_on_c, 0, 79, 0
1, 39360, Note_on_c, 1, 68, 0
1, 39360, Note_on_c, 1, 65, 0
1, 39360, Note_on_c, 1, 67, 45
1, 39360, Note_on_c, 1, 70, 45
1, 39480, Note_on_c, 1, 70, 0
1, 39480, Note_on_c, 1, 67, 0
1, 39480, Note_on_c, 1, 68, 43
1, 39480, Note_on_c, 1, 72, 43
1, 39600, Note_on_c, 1, 72, 0
1, 39600, Note_on_c, 1, 68, 0
1, 39600, Note_on_c, 1, 70, 72
1, 39600, Note_on_c, 1, 73, 72
1, 39660, Note_on_c, 0, 75, 72
1, 39720, Note_on_c, 0, 75, 0
1, 39720, Note_on_c, 0, 77, 72
1, 39720, Note_on_c, 1, 73, 0
1, 39720, Note_on_c, 1, 70, 0
1, 39720, Note_on_c, 1, 67, 72
1, 39720, Note_on_c, 1, 70, 72
1, 39740, Note_on_c, 0, 77, 0
1, 39740, Note_on_c, 0, 75, 72
1, 39760, Note_on_c, 0, 75, 0
1, 39760, Note_on_c, 0, 74, 72
1, 39780, Note_on_c, 0, 74, 0
1, 39780, Note_on_c, 0, 75, 72
1, 39840, Note_on_c, 0, 75, 0
1, 39840, Note_on_c, 1, 70, 0
1, 39840, Note_on_c, 1, 67, 0
1, 39840, Note_on_c, 1, 68, 72
1, 39840, Note_on_c, 1, 72, 72
1, 39900, Note_on_c, 0, 87, 72
1, 39960, Note_on_c, 0, 87, 0
1, 39960, Note_on_c, 1, 72, 0
1, 39960, Note_on_c, 1, 68, 0
1, 39960, Note_on_c, 1, 72, 72
1, 39960, Note_on_c, 1, 75, 72
1, 40020, Note_on_c, 0, 80, 72
1, 40080, Note_on_c, 1, 75, 0
1, 40080, Note_on_c, 1, 72, 0
1, 40080, Note_on_c, 1, 70, 72
1, 40080, Note_on_c, 1, 73, 72
1, 40140, Note_on_c, 0, 80, 0
1, 40140, Note_on_c, 0, 79, 72
1, 40200, Note_on_c, 1, 73, 0
1, 40200, Note_on_c, 1, 70, 0
1, 40200, Note_on_c, 1, 68, 72
1, 40200, Note_on_c, 1, 72, 72
1, 40260, Note_on_c, 0, 79, 0
1, 40260, Note_on_c, 0, 77, 72
1, 40320, Note_on_c, 0, 77, 0
1, 40320, Note_on_c, 1, 72, 0
1, 40320, Note_on_c, 1, 68, 0
1, 40320, Note_on_c, 1, 67, 48
1, 40320, Note_on_c, 1, 70, 48
1, 40380, Note_on_c, 0, 75, 49
1, 40440, Note_on_c, 0, 75, 0
1, 40440, Note_on_c, 0, 77, 51
1, 40440, Note_on_c, 1, 70, 0
1, 40440, Note_on_c, 1, 67, 0
1, 40440, Note_on_c, 1, 70, 51
1, 40440, Note_on_c, 1, 73, 51
1, 40460, Note_on_c, 0, 77, 0
1, 40460, Note_on_c, 0, 75, 51
1, 40480, Note_on_c, 0, 75, 0
1, 40480, Note_on_c, 0, 74, 52
1, 40500, Note_on_c, 0, 74, 0
1, 40500, Note_on_c, 0, 75, 52
1, 40560, Note_on_c, 0, 75, 0
1, 40560, Note_on_c, 1, 73, 0
1, 40560, Note_on_c, 1, 70, 0
1, 40560, Note_on_c, 1, 68, 53
1, 40560, Note_on_c, 1, 72, 53
1, 40620, Note_on_c, 0, 87, 55
1, 40680, Note_on_c, 0, 87, 0
1, 40680, Note_on_c, 1, 72, 0
1, 40680, Note_on_c, 1, 68, 0
1, 40680, Note_on_c, 1, 72, 56
1, 40680, Note_on_c, 1, 75, 56
1, 40740, Note_on_c, 0, 80, 57
1, 40800, Note_on_c, 1, 75, 0
1, 40800, Note_on_c, 1, 72, 0
1, 40800, Note_on_c, 1, 70, 59
1, 40800, Note_on_c, 1, 73, 59
1, 40860, Note_on_c, 0, 80, 0
1, 40860, Note_on_c, 0, 79, 60
1, 40920, Note_on_c, 1, 73, 0
1, 40920, Note_on_c, 1, 70, 0
1, 40920, Note_on_c, 1, 68, 61
1, 40920, Note_on_c, 1, 72, 61
1, 40980, Note_on_c, 0, 79, 0
1, 40980, Note_on_c, 0, 77, 63
1, 41040, Note_on_c, 1, 72, 0
1, 41040, Note_on_c, 1, 68, 0
1, 41040, Note_on_c, 1, 67, 64
1, 41040, Note_on_c, 1, 70, 64
1, 41100, Note_on_c, 0, 77, 0
1, 41100, Note_on_c, 0, 76, 64
1, 41160, Note_on_c, 1, 70, 0
1, 41160, Note_on_c, 1, 67, 0
1, 41160, Note_on_c, 1, 70, 64
1, 41160, Note_on_c, 1, 73, 64
1, 41220, Note_on_c, 0, 76, 0
1, 41220, Note_on_c, 0, 79, 64
1, 41280, Note_on_c, 1, 73, 0
1, 41280, Note_on_c, 1, 70, 0
1, 41280, Note_on_c, 1, 68, 64
1, 41280, Note_on_c, 1, 72, 64
1, 41340, Note_on_c, 0, 79, 0
1, 41340, Note_on_c, 0, 77, 64
1, 41400, Note_on_c, 1, 72, 0
1, 41400, Note_on_c, 1, 68, 0
1, 41400, Note_on_c, 1, 67, 64
1, 41400, Note_on_c, 1, 70, 64
1, 41460, Note_on_c, 0, 77, 0
1, 41460, Note_on_c, 0, 79, 64
1, 41520, Note_on_c, 1, 70, 0
1, 41520, Note_on_c, 1, 67, 0
1, 41520, Note_on_c, 1, 65, 64
1, 41520, Note_on_c, 1, 68, 64
1, 41580, Note_on_c, 0, 79, 0
1, 41580, Note_on_c, 0, 80, 64
1, 41640, Note_on_c, 1, 68, 0
1, 41640, Note_on_c, 1, 65, 0
1, 41640, Note_on_c, 1, 68, 64
1, 41640, Note_on_c, 1, 71, 64
1, 41700, Note_on_c, 0, 80, 0
1, 41700, Note_on_c, 0, 74, 64
1, 41760, Note_on_c, 1, 71, 0
1, 41760, Note_on_c, 1, 68, 0
1, 41760, Note_on_c, 1, 67, 64
1, 41760, Note_on_c, 1, 70, 64
1, 41820, Note_on_c, 0, 74, 0
1, 41820, Note_on_c, 0, 75, 63
1, 41880, Note_on_c, 1, 70, 0
1, 41880, Note_on_c, 1, 67, 0
1, 41880, Note_on_c, 1, 65, 61
1, 41880, Note_on_c, 1, 68, 61
1, 41940, Note_on_c, 0, 75, 0
1, 41940, Note_on_c, 0, 73, 60
1, 42000, Note_on_c, 1, 68, 0
1, 42000, Note_on_c, 1, 65, 0
1, 42000, Note_on_c, 1, 63, 59
1, 42000, Note_on_c, 1, 67, 59
1, 42060, Note_on_c, 0, 73, 0
1, 42060, Note_on_c, 0, 72, 57
1, 42120, Note_on_c, 1, 67, 0
1, 42120, Note_on_c, 1, 63, 0
1, 42120, Note_on_c, 1, 61, 56
1, 42120, Note_on_c, 1, 65, 56
1, 42180, Note_on_c, 0, 72, 0
1, 42180, Note_on_c, 0, 70, 55
1, 42240, Note_on_c, 1, 65, 0
1, 42240, Note_on_c, 1, 61, 0
1, 42240, Note_on_c, 1, 60, 53
1, 42240, Note_on_c, 1, 63, 53
1, 42300, Note_on_c, 0, 70, 0
1, 42300, Note_on_c, 0, 68, 52
1, 42360, Note_on_c, 1, 63, 0
1, 42360, Note_on_c, 1, 60, 0
1, 42360, Note_on_c, 1, 63, 51
1, 42360, Note_on_c, 1, 66, 51
1, 42420, Note_on_c, 0, 68, 0
1, 42420, Note_on_c, 0, 69, 49
1, 42480, Note_on_c, 1, 66, 0
1, 42480, Note_on_c, 1, 63, 0
1, 42480, Note_on_c, 1, 61, 48
1, 42480, Note_on_c, 1, 65, 48
1, 42540, Note_on_c, 0, 69, 0
1, 42540, Note_on_c, 0, 70, 49
1, 42600, Note_on_c, 1, 65, 0
1, 42600, Note_on_c, 1, 61, 0
1, 42600, Note_on_c, 1, 60, 51
1, 42600, Note_on_c, 1, 63, 51
1, 42660, Note_on_c, 0, 70, 0
1, 42660, Note_on_c, 0, 72, 52
1, 42720, Note_on_c, 1, 63, 0
1, 42720, Note_on_c, 1, 60, 0
1, 42720, Note_on_c, 1, 58, 53
1, 42720, Note_on_c, 1, 61, 53
1, 42780, Note_on_c, 0, 72, 0
1, 42780, Note_on_c, 0, 73, 55
1, 42840, Note_on_c, 1, 61, 0
1, 42840, Note_on_c, 1, 58, 0
1, 42840, Note_on_c, 1, 56, 56
1, 42840, Note_on_c, 1, 59, 56
1, 42900, Note_on_c, 0, 73, 0
1, 42900, Note_on_c, 0, 76, 57
1, 42960, Note_on_c, 1, 59, 0
1, 42960, Note_on_c, 1, 56, 0
1, 42960, Note_on_c, 1, 55, 59
1, 42960, Note_on_c, 1, 58, 59
1, 43020, Note_on_c, 0, 76, 0
1, 43020, Note_on_c, 0, 75, 60
1, 43080, Note_on_c, 1, 58, 0
1, 43080, Note_on_c, 1, 55, 0
1, 43080, Note_on_c, 1, 68, 61
1, 43080, Note_on_c, 1, 71, 61
1, 43140, Note_on_c, 0, 75, 0
1, 43140, Note_on_c, 0, 74, 63
1, 43200, Note_on_c, 1, 71, 0
1, 43200, Note_on_c, 1, 68, 0
1, 43200, Note_on_c, 1, 67, 64
1, 43200, Note_on_c, 1, 70, 64
1, 43260, Note_on_c, 0, 74, 0
1, 43260, Note_on_c, 0, 75, 64
1, 43320, Note_on_c, 1, 70, 0
1, 43320, Note_on_c, 1, 67, 0
1, 43320, Note_on_c, 1, 56, 48
1, 43320, Note_on_c, 1, 59, 48
1, 43380, Note_on_c, 0, 75, 0
1, 43380, Note_on_c, 0, 76, 48
1, 43440, Note_on_c, 1, 59, 0
1, 43440, Note_on_c, 1, 56, 0
1, 43440, Note_on_c, 1, 55, 48
1, 43440, Note_on_c, 1, 58, 48
1, 43500, Note_on_c, 0, 76, 0
1, 43500, Note_on_c, 0, 75, 48
1, 43560, Note_on_c, 1, 58, 0
1, 43560, Note_on_c, 1, 55, 0
1, 43560, Note_on_c, 1, 68, 48
1, 43560, Note_on_c, 1, 71, 48
1, 43620, Note_on_c, 0, 75, 0
1, 43620, Note_on_c, 0, 74, 48
1, 43680, Note_on_c, 1, 71, 0
1, 43680, Note_on_c, 1, 68, 0
1, 43680, Note_on_c, 1, 67, 48
1, 43680, Note_on_c, 1, 70, 48
1, 43740, Note_on_c, 0, 74, 0
1, 43740, Note_on_c, 0, 75, 64
1, 43800, Note_on_c, 0, 75, 0
1, 43800, Note_on_c, 0, 73, 64
1, 43800, Note_on_c, 1, 70, 0
1, 43800, Note_on_c, 1, 67, 0
1, 43800, Note_on_c, 1, 65, 64
1, 43860, Note_on_c, 0, 73, 0
1, 43860, Note_on_c, 0, 80, 64
1, 43920, Note_on_c, 0, 80, 0
1, 43920, Note_on_c, 0, 79, 64
1, 43920, Note_on_c, 1, 65, 0
1, 43920, Note_on_c, 1, 63, 64
1, 43980, Note_on_c, 0, 79, 0
1, 43980, Note_on_c, 0, 72, 64
1, 44040, Note_on_c, 0, 72, 0
1, 44040, Note_on_c, 0, 70, 64
1, 44040, Note_on_c, 1, 63, 0
1, 44040, Note_on_c, 1, 61, 64
1, 44100, Note_on_c, 0, 70, 0
1, 44100, Note_on_c, 0, 77, 64
1, 44160, Note_on_c, 0, 77, 0
1, 44160, Note_on_c, 0, 75, 64
1, 44160, Note_on_c, 1, 61, 0
1, 44160, Note_on_c, 1, 60, 64
1, 44220, Note_on_c, 0, 75, 0
1, 44220, Note_on_c, 0, 68, 64
1, 44280, Note_on_c, 0, 68, 0
1, 44280, Note_on_c, 0, 67, 64
1, 44280, Note_on_c, 1, 60, 0
1, 44280, Note_on_c, 1, 58, 64
1, 44340, Note_on_c, 0, 67, 0
1, 44340, Note_on_c, 0, 73, 64
1, 44400, Note_on_c, 0, 73, 0
1, 44400, Note_on_c, 0, 72, 64
1, 44400, Note_on_c, 1, 58, 0
1, 44400, Note_on_c, 1, 56, 64
1, 44430, Note_on_c, 0, 72, 0
1, 44430, Note_on_c, 0, 70, 64
1, 44445, Note_on_c, 0, 70, 0
1, 44460, Note_on_c, 0, 68, 64
1, 44475, Note_on_c, 0, 68, 0
1, 44490, Note_on_c, 0, 67, 64
1, 44505, Note_on_c, 0, 67, 0
1, 44520, Note_on_c, 0, 65, 64
1, 44520, Note_on_c, 1, 56, 0
1, 44520, Note_on_c, 1, 48, 64
1, 44550, Note_on_c, 0, 65, 0
1, 44550, Note_on_c, 0, 63, 64
1, 44580, Note_on_c, 0, 63, 0
1, 44580, Note_on_c, 0, 61, 64
1, 44610, Note_on_c, 0, 61, 0
1, 44610, Note_on_c, 0, 60, 64
1, 44640, Note_on_c, 0, 60, 0
1, 44640, Note_on_c, 0, 58, 64
1, 44640, Note_on_c, 1, 48, 0
1, 44640, Note_on_c, 1, 49, 64
1, 44760, Note_on_c, 0, 58, 0
1, 44760, Note_on_c, 0, 73, 64
1, 44760, Note_on_c, 0, 77, 64
1, 44808, Note_on_c, 1, 49, 0
1, 44880, Note_on_c, 0, 77, 0
1, 44880, Note_on_c, 0, 73, 0
1, 44880, Note_on_c, 1, 51, 64
1, 45000, Note_on_c, 0, 72, 64
1, 45000, Note_on_c, 0, 75, 64
1, 45048, Note_on_c, 1, 51, 0
1, 45120, Note_on_c, 0, 75, 0
1, 45120, Note_on_c, 0, 72, 0
1, 45120, Note_on_c, 1, 39, 64
1, 45240, Note_on_c, 0, 61, 64
1, 45240, Note_on_c, 0, 67, 64
1, 45360, Note_on_c, 0, 67, 0
1, 45360, Note_on_c, 0, 61, 0
1, 45360, Note_on_c, 0, 60, 48
1, 45360, Note_on_c, 0, 68, 48
1, 45360, Note_on_c, 1, 39, 0
1, 45360, Note_on_c, 1, 44, 48
1, 45480, Note_on_c, 0, 68, 0
1, 45480, Note_on_c, 0, 60, 0
1, 45480, Note_on_c, 0, 73, 72
1, 45480, Note_on_c, 1, 44, 0
1, 45480, Note_on_c, 1, 65, 72
1, 45540, Note_on_c, 0, 73, 0
1, 45540, Note_on_c, 0, 80, 72
1, 45600, Note_on_c, 0, 80, 0
1, 45600, Note_on_c, 0, 79, 72
1, 45600, Note_on_c, 1, 65, 0
1, 45600, Note_on_c, 1, 63, 72
1, 45660, Note_on_c, 0, 79, 0
1, 45660, Note_on_c, 0, 72, 72
1, 45720, Note_on_c, 0, 72, 0
1, 45720, Note_on_c, 0, 70, 72
1, 45720, Note_on_c, 1, 63, 0
1, 45720, Note_on_c, 1, 61, 72
1, 45780, Note_on_c, 0, 70, 0
1, 45780, Note_on_c, 0, 77, 72
1, 45840, Note_on_c, 0, 77, 0
1, 45840, Note_on_c, 0, 75, 72
1, 45840, Note_on_c, 1, 61, 0
1, 45840, Note_on_c, 1, 60, 72
1, 45900, Note_on_c, 0, 75, 0
1, 45900, Note_on_c, 0, 68, 64
1, 45960, Note_on_c, 0, 68, 0
1, 45960, Note_on_c, 0, 80, 48
1, 45960, Note_on_c, 1, 60, 0
1, 45960, Note_on_c, 1, 65, 48
1, 46020, Note_on_c, 0, 80, 0
1, 46020, Note_on_c, 0, 85, 48
1, 46080, Note_on_c, 0, 85, 0
1, 46080, Note_on_c, 0, 84, 48
1, 46080, Note_on_c, 1, 65, 0
1, 46080, Note_on_c, 1, 63, 48
1, 46140, Note_on_c, 0, 84, 0
1, 46140, Note_on_c, 0, 79, 48
1, 46200, Note_on_c, 0, 79, 0
1, 46200, Note_on_c, 0, 77, 48
1, 46200, Note_on_c, 1, 63, 0
1, 46200, Note_on_c, 1, 73, 48
1, 46260, Note_on_c, 0, 77, 0
1, 46260, Note_on_c, 0, 89, 48
1, 46320, Note_on_c, 0, 89, 0
1, 46320, Note_on_c, 0, 87, 48
1, 46320, Note_on_c, 1, 73, 0
1, 46320, Note_on_c, 1, 72, 48
1, 46380, Note_on_c, 0, 87, 0
1, 46380, Note_on_c, 0, 80, 48
1, 46440, Note_on_c, 0, 80, 0
1, 46440, Note_on_c, 0, 85, 48
1, 46440, Note_on_c, 1, 72, 0
1, 46440, Note_on_c, 1, 70, 48
1, 46500, Note_on_c, 0, 85, 0
1, 46500, Note_on_c, 0, 79, 48
1, 46560, Note_on_c, 0, 79, 0
1, 46560, Note_on_c, 0, 84, 64
1, 46560, Note_on_c, 1, 70, 0
1, 46560, Note_on_c, 1, 68, 64
1, 46590, Note_on_c, 0, 84, 0
1, 46590, Note_on_c, 0, 82, 64
1, 46605, Note_on_c, 0, 82, 0
1, 46620, Note_on_c, 0, 80, 64
1, 46635, Note_on_c, 0, 80, 0
1, 46650, Note_on_c, 0, 79, 64
1, 46665, Note_on_c, 0, 79, 0
1, 46680, Note_on_c, 0, 77, 64
1, 46680, Note_on_c, 1, 68, 0
1, 46680, Note_on_c, 1, 60, 64
1, 46710, Note_on_c, 0, 77, 0
1, 46710, Note_on_c, 0, 75, 64
1, 46740, Note_on_c, 0, 75, 0
1, 46740, Note_on_c, 0, 73, 64
1, 46770, Note_on_c, 0, 73, 0
1, 46770, Note_on_c, 0, 72, 64
1, 46800, Note_on_c, 0, 72, 0
1, 46800, Note_on_c, 0, 70, 64
1, 46800, Note_on_c, 1, 60, 0
1, 46800, Note_on_c, 1, 61, 64
1, 46920, Note_on_c, 0, 70, 0
1, 46920, Note_on_c, 0, 85, 64
1, 46920, Note_on_c, 0, 89, 64
1, 47040, Tempo, 1176471
1, 47040, Note_on_c, 0, 89, 0
1, 47040, Note_on_c, 0, 85, 0
1, 47040, Note_on_c, 1, 61, 0
1, 47040, Note_on_c, 1, 63, 64
1, 47160, Note_on_c, 0, 84, 64
1, 47160, Note_on_c, 0, 87, 64
1, 47280, Tempo, 1250000
1, 47280, Note_on_c, 0, 87, 0
1, 47280, Note_on_c, 0, 84, 0
1, 47280, Note_on_c, 1, 63, 0
1, 47280, Note_on_c, 1, 51, 64
1, 47400, Note_on_c, 0, 61, 64
1, 47400, Note_on_c, 0, 67, 64
1, 47520, Tempo, 1333333
1, 47520, Note_on_c, 0, 67, 0
1, 47520, Note_on_c, 0, 61, 0
1, 47520, Note_on_c, 0, 61, 64
1, 47520, Note_on_c, 0, 67, 64
1, 47520, Note_on_c, 1, 51, 0
1, 47520, Note_on_c, 1, 56, 64
1, 47760, Note_on_c, 0, 67, 0
1, 47760, Note_on_c, 0, 61, 0
1, 47760, Note_on_c, 0, 60, 48
1, 47760, Note_on_c, 0, 68, 48
1, 47760, Note_on_c, 1, 56, 0
1, 47760, Note_on_c, 1, 44, 48
1, 48000, Note_on_c, 0, 68, 0
1, 48000, Note_on_c, 0, 60, 0
1, 48000, Note_on_c, 1, 44, 0
1, 48010, End_track
0, 0, End_of_file