0, 0, Header, 0, 1, 240
1, 0, Start_track
1, 0, Tempo, 333333
1, 360, Note_on_c, 0, 67, 43
1, 396, Note_on_c, 0, 67, 0
1, 480, Note_on_c, 0, 67, 47
1, 516, Note_on_c, 0, 67, 0
1, 600, Note_on_c, 0, 67, 52
1, 636, Note_on_c, 0, 67, 0
1, 720, Note_on_c, 0, 67, 56
1, 756, Note_on_c, 0, 67, 0
1, 840, Note_on_c, 0, 67, 61
1, 876, Note_on_c, 0, 67, 0
1, 960, Note_on_c, 0, 67, 72
1, 960, Note_on_c, 1, 39, 48
1, 960, Note_on_c, 1, 39, 48
1, 1080, Note_on_c, 1, 39, 0
1, 1080, Note_on_c, 1, 51, 48
1, 1116, Note_on_c, 1, 51, 0
1, 1200, Note_on_c, 0, 67, 0
1, 1200, Note_on_c, 0, 70, 64
1, 1200, Note_on_c, 1, 51, 48
1, 1236, Note_on_c, 0, 70, 0
1, 1236, Note_on_c, 1, 51, 0
1, 1320, Note_on_c, 0, 63, 64
1, 1320, Note_on_c, 1, 51, 48
1, 1356, Note_on_c, 0, 63, 0
1, 1356, Note_on_c, 1, 51, 0
1, 1440, Note_on_c, 0, 62, 64
1, 1440, Note_on_c, 1, 51, 48
1, 1560, Note_on_c, 0, 62, 0
1, 1560, Note_on_c, 0, 65, 64
1, 1560, Note_on_c, 1, 51, 0
1, 1560, Note_on_c, 1, 51, 48
1, 1596, Note_on_c, 0, 65, 0
1, 1596, Note_on_c, 1, 51, 0
1, 1680, Note_on_c, 0, 68, 64
1, 1680, Note_on_c, 1, 51, 48
1, 1716, Note_on_c, 0, 68, 0
1, 1716, Note_on_c, 1, 51, 0
1, 1800, Note_on_c, 0, 62, 64
1, 1800, Note_on_c, 1, 51, 48
1, 1836, Note_on_c, 0, 62, 0
1, 1836, Note_on_c, 1, 51, 0
1, 1920, Note_on_c, 0, 63, 72
1, 1920, Note_on_c, 1, 39, 0
1, 1920, Note_on_c, 1, 39, 48
1, 2040, Note_on_c, 0, 63, 0
1, 2040, Note_on_c, 0, 67, 64
1, 2040, Note_on_c, 1, 51, 48
1, 2076, Note_on_c, 0, 67, 0
1, 2076, Note_on_c, 1, 51, 0
1, 2160, Note_on_c, 0, 58, 64
1, 2160, Note_on_c, 1, 51, 48
1, 2196, Note_on_c, 0, 58, 0
1, 2196, Note_on_c, 1, 51, 0
1, 2280, Note_on_c, 0, 58, 64
1, 2280, Note_on_c, 1, 51, 48
1, 2316, Note_on_c, 0, 58, 0
1, 2316, Note_on_c, 1, 51, 0
1, 2400, Note_on_c, 0, 56, 64
1, 2400, Note_on_c, 1, 51, 48
1, 2436, Note_on_c, 0, 56, 0
1, 2436, Note_on_c, 1, 51, 0
1, 2520, Note_on_c, 0, 62, 64
1, 2520, Note_on_c, 1, 51, 48
1, 2544, Note_on_c, 1, 39, 0
1, 2556, Note_on_c, 0, 62, 0
1, 2556, Note_on_c, 1, 51, 0
1, 2640, Note_on_c, 0, 65, 64
1, 2640, Note_on_c, 1, 51, 48
1, 2676, Note_on_c, 0, 65, 0
1, 2676, Note_on_c, 1, 51, 0
1, 2760, Note_on_c, 0, 62, 64
1, 2760, Note_on_c, 1, 51, 48
1, 2796, Note_on_c, 0, 62, 0
1, 2796, Note_on_c, 1, 51, 0
1, 2880, Note_on_c, 0, 63, 72
1, 2880, Note_on_c, 1, 39, 48
1, 3000, Note_on_c, 0, 63, 0
1, 3000, Note_on_c, 0, 67, 64
1, 3000, Note_on_c, 1, 51, 48
1, 3036, Note_on_c, 0, 67, 0
1, 3036, Note_on_c, 1, 51, 0
1, 3120, Note_on_c, 0, 58, 64
1, 3120, Note_on_c, 1, 51, 48
1, 3156, Note_on_c, 0, 58, 0
1, 3156, Note_on_c, 1, 51, 0
1, 3240, Note_on_c, 0, 58, 64
1, 3240, Note_on_c, 1, 51, 48
1, 3276, Note_on_c, 0, 58, 0
1, 3276, Note_on_c, 1, 51, 0
1, 3360, Note_on_c, 0, 56, 64
1, 3360, Note_on_c, 1, 51, 48
1, 3480, Note_on_c, 0, 56, 0
1, 3480, Note_on_c, 0, 62, 60
1, 3480, Note_on_c, 1, 51, 0
1, 3480, Note_on_c, 1, 51, 44
1, 3516, Note_on_c, 0, 62, 0
1, 3516, Note_on_c, 1, 51, 0
1, 3600, Note_on_c, 0, 65, 56
1, 3600, Note_on_c, 1, 51, 40
1, 3636, Note_on_c, 0, 65, 0
1, 3636, Note_on_c, 1, 51, 0
1, 3720, Note_on_c, 0, 62, 52
1, 3720, Note_on_c, 1, 51, 36
1, 3756, Note_on_c, 0, 62, 0
1, 3756, Note_on_c, 1, 51, 0
1, 3840, Note_on_c, 0, 63, 48
1, 3840, Note_on_c, 1, 39, 0
1, 3840, Note_on_c, 1, 39, 32
1, 4080, Note_on_c, 0, 63, 0
1, 4080, Note_on_c, 1, 39, 0
1, 5160, Note_on_c, 0, 68, 43
1, 5196, Note_on_c, 0, 68, 0
1, 5280, Note_on_c, 0, 68, 47
1, 5316, Note_on_c, 0, 68, 0
1, 5400, Note_on_c, 0, 68, 51
1, 5436, Note_on_c, 0, 68, 0
1, 5520, Note_on_c, 0, 68, 55
1, 5556, Note_on_c, 0, 68, 0
1, 5640, Note_on_c, 0, 68, 60
1, 5676, Note_on_c, 0, 68, 0
1, 5760, Note_on_c, 0, 68, 72
1, 5760, Note_on_c, 1, 41, 48
1, 5880, Note_on_c, 1, 53, 48
1, 5916, Note_on_c, 1, 53, 0
1, 6000, Note_on_c, 0, 68, 0
1, 6000, Note_on_c, 0, 72, 64
1, 6000, Note_on_c, 1, 53, 48
1, 6036, Note_on_c, 0, 72, 0
1, 6036, Note_on_c, 1, 53, 0
1, 6120, Note_on_c, 0, 65, 64
1, 6120, Note_on_c, 1, 53, 48
1, 6156, Note_on_c, 0, 65, 0
1, 6156, Note_on_c, 1, 53, 0
1, 6240, Note_on_c, 0, 64, 64
1, 6240, Note_on_c, 1, 53, 48
1, 6360, Note_on_c, 0, 64, 0
1, 6360, Note_on_c, 0, 67, 64
1, 6360, Note_on_c, 1, 53, 0
1, 6360, Note_on_c, 1, 53, 48
1, 6396, Note_on_c, 0, 67, 0
1, 6396, Note_on_c, 1, 53, 0
1, 6480, Note_on_c, 0, 70, 64
1, 6480, Note_on_c, 1, 53, 48
1, 6516, Note_on_c, 0, 70, 0
1, 6516, Note_on_c, 1, 53, 0
1, 6600, Note_on_c, 0, 64, 64
1, 6600, Note_on_c, 1, 53, 48
1, 6636, Note_on_c, 0, 64, 0
1, 6636, Note_on_c, 1, 53, 0
1, 6720, Note_on_c, 0, 65, 72
1, 6720, Note_on_c, 1, 41, 0
1, 6720, Note_on_c, 1, 41, 48
1, 6840, Note_on_c, 0, 65, 0
1, 6840, Note_on_c, 0, 68, 64
1, 6840, Note_on_c, 1, 53, 48
1, 6876, Note_on_c, 0, 68, 0
1, 6876, Note_on_c, 1, 53, 0
1, 6960, Note_on_c, 0, 60, 64
1, 6960, Note_on_c, 1, 53, 48
1, 6996, Note_on_c, 0, 60, 0
1, 6996, Note_on_c, 1, 53, 0
1, 7080, Note_on_c, 0, 60, 64
1, 7080, Note_on_c, 1, 53, 48
1, 7116, Note_on_c, 0, 60, 0
1, 7116, Note_on_c, 1, 53, 0
1, 7200, Note_on_c, 0, 58, 64
1, 7200, Note_on_c, 1, 53, 48
1, 7236, Note_on_c, 0, 58, 0
1, 7236, Note_on_c, 1, 53, 0
1, 7320, Note_on_c, 0, 64, 64
1, 7320, Note_on_c, 1, 53, 48
1, 7344, Note_on_c, 1, 41, 0
1, 7356, Note_on_c, 0, 64, 0
1, 7356, Note_on_c, 1, 53, 0
1, 7440, Note_on_c, 0, 67, 64
1, 7440, Note_on_c, 1, 53, 48
1, 7476, Note_on_c, 0, 67, 0
1, 7476, Note_on_c, 1, 53, 0
1, 7560, Note_on_c, 0, 64, 64
1, 7560, Note_on_c, 1, 53, 48
1, 7596, Note_on_c, 0, 64, 0
1, 7596, Note_on_c, 1, 53, 0
1, 7680, Note_on_c, 0, 65, 72
1, 7680, Note_on_c, 1, 41, 48
1, 7800, Note_on_c, 0, 65, 0
1, 7800, Note_on_c, 0, 68, 64
1, 7800, Note_on_c, 1, 53, 48
1, 7836, Note_on_c, 0, 68, 0
1, 7836, Note_on_c, 1, 53, 0
1, 7920, Note_on_c, 0, 60, 64
1, 7920, Note_on_c, 1, 53, 48
1, 7956, Note_on_c, 0, 60, 0
1, 7956, Note_on_c, 1, 53, 0
1, 8040, Note_on_c, 0, 60, 64
1, 8040, Note_on_c, 1, 53, 48
1, 8076, Note_on_c, 0, 60, 0
1, 8076, Note_on_c, 1, 53, 0
1, 8160, Note_on_c, 0, 58, 64
1, 8160, Note_on_c, 1, 53, 48
1, 8280, Note_on_c, 0, 58, 0
1, 8280, Note_on_c, 0, 64, 60
1, 8280, Note_on_c, 1, 53, 0
1, 8280, Note_on_c, 1, 53, 44
1, 8316, Note_on_c, 0, 64, 0
1, 8316, Note_on_c, 1, 53, 0
1, 8400, Note_on_c, 0, 67, 56
1, 8400, Note_on_c, 1, 53, 40
1, 8436, Note_on_c, 0, 67, 0
1, 8436, Note_on_c, 1, 53, 0
1, 8520, Note_on_c, 0, 64, 52
1, 8520, Note_on_c, 1, 53, 36
1, 8556, Note_on_c, 0, 64, 0
1, 8556, Note_on_c, 1, 53, 0
1, 8640, Note_on_c, 0, 65, 48
1, 8640, Note_on_c, 1, 41, 0
1, 8640, Note_on_c, 1, 41, 32
1, 8880, Note_on_c, 0, 65, 0
1, 8880, Note_on_c, 1, 41, 0
1, 9960, Note_on_c, 1, 46, 88
1, 9960, Note_on_c, 1, 34, 88
1, 9984, Note_on_c, 1, 34, 0
1, 9984, Note_on_c, 1, 46, 0
1, 10080, Note_on_c, 1, 46, 88
1, 10080, Note_on_c, 1, 34, 88
1, 10104, Note_on_c, 1, 34, 0
1, 10104, Note_on_c, 1, 46, 0
1, 10200, Note_on_c, 1, 46, 88
1, 10200, Note_on_c, 1, 34, 88
1, 10224, Note_on_c, 1, 34, 0
1, 10224, Note_on_c, 1, 46, 0
1, 10320, Note_on_c, 1, 46, 88
1, 10320, Note_on_c, 1, 34, 88
1, 10344, Note_on_c, 1, 34, 0
1, 10344, Note_on_c, 1, 46, 0
1, 10440, Note_on_c, 0, 84, 80
1, 10440, Note_on_c, 1, 46, 88
1, 10440, Note_on_c, 1, 34, 88
1, 10464, Note_on_c, 1, 34, 0
1, 10464, Note_on_c, 1, 46, 0
1, 10500, Note_on_c, 0, 84, 0
1, 10500, Note_on_c, 0, 82, 80
1, 10560, Note_on_c, 0, 82, 0
1, 10560, Note_on_c, 0, 80, 80
1, 10560, Note_on_c, 1, 34, 96
1, 10560, Note_on_c, 1, 46, 96
1, 10620, Note_on_c, 0, 80, 0
1, 10620, Note_on_c, 0, 79, 80
1, 10680, Note_on_c, 0, 79, 0
1, 10680, Note_on_c, 0, 77, 80
1, 10740, Note_on_c, 0, 77, 0
1, 10740, Note_on_c, 0, 75, 80
1, 10800, Note_on_c, 0, 75, 0
1, 10800, Note_on_c, 0, 74, 80
1, 10800, Note_on_c, 1, 46, 0
1, 10800, Note_on_c, 1, 34, 0
1, 10800, Note_on_c, 1, 53, 80
1, 10836, Note_on_c, 1, 53, 0
1, 10860, Note_on_c, 0, 74, 0
1, 10860, Note_on_c, 0, 75, 80
1, 10920, Note_on_c, 0, 75, 0
1, 10920, Note_on_c, 0, 77, 80
1, 10920, Note_on_c, 1, 44, 80
1, 10956, Note_on_c, 1, 44, 0
1, 10980, Note_on_c, 0, 77, 0
1, 10980, Note_on_c, 0, 74, 80
1, 11040, Note_on_c, 0, 74, 0
1, 11040, Note_on_c, 0, 75, 80
1, 11040, Note_on_c, 1, 43, 80
1, 11100, Note_on_c, 0, 75, 0
1, 11100, Note_on_c, 0, 79, 80
1, 11160, Note_on_c, 0, 79, 0
1, 11160, Note_on_c, 0, 77, 80
1, 11160, Note_on_c, 1, 43, 0
1, 11160, Note_on_c, 1, 46, 80
1, 11196, Note_on_c, 1, 46, 0
1, 11220, Note_on_c, 0, 77, 0
1, 11220, Note_on_c, 0, 75, 80
1, 11280, Note_on_c, 0, 75, 0
1, 11280, Note_on_c, 0, 74, 80
1, 11280, Note_on_c, 1, 51, 80
1, 11316, Note_on_c, 1, 51, 0
1, 11340, Note_on_c, 0, 74, 0
1, 11340, Note_on_c, 0, 72, 80
1, 11400, Note_on_c, 0, 72, 0
1, 11400, Note_on_c, 0, 70, 80
1, 11400, Note_on_c, 1, 43, 80
1, 11436, Note_on_c, 1, 43, 0
1, 11460, Note_on_c, 0, 70, 0
1, 11460, Note_on_c, 0, 75, 80
1, 11520, Note_on_c, 0, 75, 0
1, 11520, Note_on_c, 0, 74, 80
1, 11520, Note_on_c, 1, 44, 80
1, 11580, Note_on_c, 0, 74, 0
1, 11580, Note_on_c, 0, 75, 80
1, 11640, Note_on_c, 0, 75, 0
1, 11640, Note_on_c, 0, 77, 80
1, 11640, Note_on_c, 1, 44, 0
1, 11640, Note_on_c, 1, 50, 80
1, 11676, Note_on_c, 1, 50, 0
1, 11700, Note_on_c, 0, 77, 0
1, 11700, Note_on_c, 0, 79, 80
1, 11760, Note_on_c, 0, 79, 0
1, 11760, Note_on_c, 0, 80, 80
1, 11760, Note_on_c, 1, 53, 80
1, 11796, Note_on_c, 1, 53, 0
1, 11820, Note_on_c, 0, 80, 0
1, 11820, Note_on_c, 0, 77, 80
1, 11880, Note_on_c, 0, 77, 0
1, 11880, Note_on_c, 0, 75, 80
1, 11880, Note_on_c, 1, 44, 80
1, 11916, Note_on_c, 1, 44, 0
1, 11940, Note_on_c, 0, 75, 0
1, 11940, Note_on_c, 0, 74, 80
1, 12000, Note_on_c, 0, 74, 0
1, 12000, Note_on_c, 0, 75, 80
1, 12000, Note_on_c, 1, 43, 80
1, 12060, Note_on_c, 0, 75, 0
1, 12060, Note_on_c, 0, 79, 80
1, 12120, Note_on_c, 0, 79, 0
1, 12120, Note_on_c, 0, 77, 80
1, 12120, Note_on_c, 1, 43, 0
1, 12120, Note_on_c, 1, 46, 80
1, 12156, Note_on_c, 1, 46, 0
1, 12180, Note_on_c, 0, 77, 0
1, 12180, Note_on_c, 0, 75, 80
1, 12240, Note_on_c, 0, 75, 0
1, 12240, Note_on_c, 0, 74, 80
1, 12240, Note_on_c, 1, 51, 80
1, 12276, Note_on_c, 1, 51, 0
1, 12300, Note_on_c, 0, 74, 0
1, 12300, Note_on_c, 0, 72, 80
1, 12360, Note_on_c, 0, 72, 0
1, 12360, Note_on_c, 0, 70, 80
1, 12360, Note_on_c, 1, 43, 80
1, 12396, Note_on_c, 1, 43, 0
1, 12420, Note_on_c, 0, 70, 0
1, 12420, Note_on_c, 0, 75, 80
1, 12480, Note_on_c, 0, 75, 0
1, 12480, Note_on_c, 0, 74, 64
1, 12480, Note_on_c, 1, 44, 64
1, 12540, Note_on_c, 0, 74, 0
1, 12540, Note_on_c, 0, 75, 65
1, 12600, Note_on_c, 0, 75, 0
1, 12600, Note_on_c, 0, 77, 66
1, 12600, Note_on_c, 1, 44, 0
1, 12600, Note_on_c, 1, 50, 66
1, 12636, Note_on_c, 1, 50, 0
1, 12660, Note_on_c, 0, 77, 0
1, 12660, Note_on_c, 0, 79, 67
1, 12720, Note_on_c, 0, 79, 0
1, 12720, Note_on_c, 0, 80, 68
1, 12720, Note_on_c, 1, 53, 68
1, 12756, Note_on_c, 1, 53, 0
1, 12780, Note_on_c, 0, 80, 0
1, 12780, Note_on_c, 0, 77, 69
1, 12840, Note_on_c, 0, 77, 0
1, 12840, Note_on_c, 0, 75, 70
1, 12840, Note_on_c, 1, 44, 70
1, 12876, Note_on_c, 1, 44, 0
1, 12900, Note_on_c, 0, 75, 0
1, 12900, Note_on_c, 0, 74, 71
1, 12960, Note_on_c, 0, 74, 0
1, 12960, Note_on_c, 0, 75, 72
1, 12960, Note_on_c, 1, 43, 72
1, 13020, Note_on_c, 0, 75, 0
1, 13020, Note_on_c, 0, 77, 73
1, 13080, Note_on_c, 0, 77, 0
1, 13080, Note_on_c, 0, 79, 74
1, 13080, Note_on_c, 1, 43, 0
1, 13080, Note_on_c, 1, 46, 74
1, 13116, Note_on_c, 1, 46, 0
1, 13140, Note_on_c, 0, 79, 0
1, 13140, Note_on_c, 0, 77, 75
1, 13200, Note_on_c, 0, 77, 0
1, 13200, Note_on_c, 0, 75, 76
1, 13200, Note_on_c, 1, 51, 76
1, 13236, Note_on_c, 1, 51, 0
1, 13260, Note_on_c, 0, 75, 0
1, 13260, Note_on_c, 0, 74, 77
1, 13320, Note_on_c, 0, 74, 0
1, 13320, Note_on_c, 0, 72, 78
1, 13320, Note_on_c, 1, 55, 78
1, 13356, Note_on_c, 1, 55, 0
1, 13380, Note_on_c, 0, 72, 0
1, 13380, Note_on_c, 0, 70, 79
1, 13440, Note_on_c, 0, 70, 0
1, 13440, Note_on_c, 0, 72, 80
1, 13440, Note_on_c, 1, 44, 80
1, 13500, Note_on_c, 0, 72, 0
1, 13500, Note_on_c, 0, 75, 80
1, 13560, Note_on_c, 0, 75, 0
1, 13560, Note_on_c, 0, 77, 80
1, 13560, Note_on_c, 1, 44, 0
1, 13560, Note_on_c, 1, 48, 80
1, 13596, Note_on_c, 1, 48, 0
1, 13620, Note_on_c, 0, 77, 0
1, 13620, Note_on_c, 0, 75, 80
1, 13680, Note_on_c, 0, 75, 0
1, 13680, Note_on_c, 0, 74, 80
1, 13680, Note_on_c, 1, 53, 80
1, 13716, Note_on_c, 1, 53, 0
1, 13740, Note_on_c, 0, 74, 0
1, 13740, Note_on_c, 0, 72, 80
1, 13800, Note_on_c, 0, 72, 0
1, 13800, Note_on_c, 0, 70, 80
1, 13800, Note_on_c, 1, 56, 80
1, 13836, Note_on_c, 1, 56, 0
1, 13860, Note_on_c, 0, 70, 0
1, 13860, Note_on_c, 0, 68, 80
1, 13920, Note_on_c, 0, 68, 0
1, 13920, Note_on_c, 0, 67, 80
1, 13920, Note_on_c, 1, 58, 88
1, 13956, Note_on_c, 1, 58, 0
1, 13980, Note_on_c, 0, 67, 0
1, 13980, Note_on_c, 0, 70, 80
1, 14040, Note_on_c, 0, 70, 0
1, 14040, Note_on_c, 0, 67, 80
1, 14040, Note_on_c, 1, 58, 80
1, 14076, Note_on_c, 1, 58, 0
1, 14100, Note_on_c, 0, 67, 0
1, 14100, Note_on_c, 0, 70, 80
1, 14160, Note_on_c, 0, 70, 0
1, 14160, Note_on_c, 0, 65, 80
1, 14160, Note_on_c, 1, 58, 80
1, 14196, Note_on_c, 1, 58, 0
1, 14220, Note_on_c, 0, 65, 0
1, 14220, Note_on_c, 0, 68, 80
1, 14280, Note_on_c, 0, 68, 0
1, 14280, Note_on_c, 0, 65, 80
1, 14280, Note_on_c, 1, 58, 80
1, 14316, Note_on_c, 1, 58, 0
1, 14340, Note_on_c, 0, 65, 0
1, 14340, Note_on_c, 0, 68, 80
1, 14400, Note_on_c, 0, 68, 0
1, 14400, Note_on_c, 0, 63, 80
1, 14400, Note_on_c, 1, 46, 88
1, 14436, Note_on_c, 1, 46, 0
1, 14460, Note_on_c, 0, 63, 0
1, 14460, Note_on_c, 0, 67, 80
1, 14520, Note_on_c, 0, 67, 0
1, 14520, Note_on_c, 0, 63, 80
1, 14520, Note_on_c, 1, 46, 80
1, 14556, Note_on_c, 1, 46, 0
1, 14580, Note_on_c, 0, 63, 0
1, 14580, Note_on_c, 0, 67, 80
1, 14640, Note_on_c, 0, 67, 0
1, 14640, Note_on_c, 0, 62, 80
1, 14640, Note_on_c, 1, 46, 80
1, 14676, Note_on_c, 1, 46, 0
1, 14700, Note_on_c, 0, 62, 0
1, 14700, Note_on_c, 0, 65, 80
1, 14760, Note_on_c, 0, 65, 0
1, 14760, Note_on_c, 0, 62, 80
1, 14760, Note_on_c, 1, 46, 80
1, 14796, Note_on_c, 1, 46, 0
1, 14820, Note_on_c, 0, 62, 0
1, 14820, Note_on_c, 0, 65, 80
1, 14880, Note_on_c, 0, 65, 0
1, 14880, Note_on_c, 0, 63, 80
1, 14880, Note_on_c, 1, 51, 80
1, 14916, Note_on_c, 1, 51, 0
1, 14940, Note_on_c, 0, 63, 0
1, 14940, Note_on_c, 0, 58, 80
1, 15000, Note_on_c, 0, 58, 0
1, 15000, Note_on_c, 0, 63, 80
1, 15000, Note_on_c, 1, 55, 80
1, 15036, Note_on_c, 1, 55, 0
1, 15060, Note_on_c, 0, 63, 0
1, 15060, Note_on_c, 0, 58, 80
1, 15120, Note_on_c, 0, 58, 0
1, 15120, Note_on_c, 0, 63, 80
1, 15120, Note_on_c, 1, 51, 80
1, 15156, Note_on_c, 1, 51, 0
1, 15180, Note_on_c, 0, 63, 0
1, 15180, Note_on_c, 0, 58, 80
1, 15240, Note_on_c, 0, 58, 0
1, 15240, Note_on_c, 0, 63, 80
1, 15240, Note_on_c, 1, 55, 80
1, 15276, Note_on_c, 1, 55, 0
1, 15300, Note_on_c, 0, 63, 0
1, 15300, Note_on_c, 0, 58, 80
1, 15360, Note_on_c, 0, 58, 0
1, 15360, Note_on_c, 0, 63, 80
1, 15360, Note_on_c, 1, 51, 80
1, 15600, Note_on_c, 0, 63, 0
1, 15600, Note_on_c, 1, 51, 0
1, 15720, Note_on_c, 0, 79, 49
1, 15840, Note_on_c, 0, 79, 0
1, 15840, Note_on_c, 0, 80, 52
1, 15876, Note_on_c, 0, 80, 0
1, 15960, Note_on_c, 0, 81, 56
1, 15996, Note_on_c, 0, 81, 0
1, 16080, Note_on_c, 0, 82, 59
1, 16116, Note_on_c, 0, 82, 0
1, 16200, Note_on_c, 0, 83, 62
1, 16236, Note_on_c, 0, 83, 0
1, 16320, Note_on_c, 0, 84, 64
1, 16320, Note_on_c, 1, 63, 64
1, 16440, Note_on_c, 0, 84, 0
1, 16440, Note_on_c, 0, 79, 64
1, 16440, Note_on_c, 1, 67, 64
1, 16560, Note_on_c, 0, 79, 0
1, 16560, Note_on_c, 1, 67, 0
1, 16560, Note_on_c, 1, 72, 64
1, 16680, Note_on_c, 0, 79, 64
1, 16680, Note_on_c, 1, 72, 0
1, 16680, Note_on_c, 1, 67, 64
1, 16800, Note_on_c, 0, 79, 0
1, 16800, Note_on_c, 0, 79, 64
1, 16800, Note_on_c, 1, 67, 0
1, 16800, Note_on_c, 1, 63, 0
1, 16800, Note_on_c, 1, 62, 64
1, 16920, Note_on_c, 0, 79, 0
1, 16920, Note_on_c, 0, 77, 64
1, 16920, Note_on_c, 1, 67, 64
1, 17040, Note_on_c, 0, 77, 0
1, 17040, Note_on_c, 0, 80, 64
1, 17040, Note_on_c, 1, 67, 0
1, 17040, Note_on_c, 1, 71, 64
1, 17160, Note_on_c, 0, 80, 0
1, 17160, Note_on_c, 0, 77, 64
1, 17160, Note_on_c, 1, 71, 0
1, 17160, Note_on_c, 1, 67, 64
1, 17280, Note_on_c, 0, 77, 0
1, 17280, Note_on_c, 0, 77, 64
1, 17280, Note_on_c, 1, 67, 0
1, 17280, Note_on_c, 1, 62, 0
1, 17280, Note_on_c, 1, 60, 64
1, 17400, Note_on_c, 0, 77, 0
1, 17400, Note_on_c, 0, 75, 64
1, 17400, Note_on_c, 1, 63, 64
1, 17520, Note_on_c, 0, 75, 0
1, 17520, Note_on_c, 1, 63, 0
1, 17520, Note_on_c, 1, 67, 64
1, 17640, Note_on_c, 0, 79, 64
1, 17640, Note_on_c, 1, 67, 0
1, 17640, Note_on_c, 1, 63, 64
1, 17760, Note_on_c, 0, 79, 0
1, 17760, Note_on_c, 0, 80, 64
1, 17760, Note_on_c, 1, 63, 0
1, 17760, Note_on_c, 1, 60, 0
1, 17760, Note_on_c, 1, 58, 64
1, 17880, Note_on_c, 0, 80, 0
1, 17880, Note_on_c, 0, 81, 64
1, 17880, Note_on_c, 1, 63, 64
1, 18000, Note_on_c, 0, 81, 0
1, 18000, Note_on_c, 0, 82, 64
1, 18000, Note_on_c, 1, 63, 0
1, 18000, Note_on_c, 1, 67, 64
1, 18120, Note_on_c, 0, 82, 0
1, 18120, Note_on_c, 0, 83, 64
1, 18120, Note_on_c, 1, 67, 0
1, 18120, Note_on_c, 1, 63, 64
1, 18210, Note_on_c, 0, 83, 0
1, 18210, Note_on_c, 0, 86, 64
1, 18240, Note_on_c, 0, 86, 0
1, 18240, Note_on_c, 0, 84, 64
1, 18240, Note_on_c, 1, 63, 0
1, 18240, Note_on_c, 1, 58, 0
1, 18240, Note_on_c, 1, 57, 64
1, 18300, Note_on_c, 0, 84, 0
1, 18300, Note_on_c, 0, 83, 66
1, 18360, Note_on_c, 0, 83, 0
1, 18360, Note_on_c, 0, 84, 68
1, 18360, Note_on_c, 1, 60, 64
1, 18420, Note_on_c, 0, 84, 0
1, 18420, Note_on_c, 0, 86, 70
1, 18480, Note_on_c, 0, 86, 0
1, 18480, Note_on_c, 0, 87, 72
1, 18480, Note_on_c, 1, 60, 0
1, 18480, Note_on_c, 1, 65, 64
1, 18600, Note_on_c, 1, 65, 0
1, 18600, Note_on_c, 1, 60, 64
1, 18720, Note_on_c, 1, 60, 0
1, 18720, Note_on_c, 1, 57, 0
1, 18720, Note_on_c, 1, 57, 64
1, 18780, Note_on_c, 0, 87, 0
1, 18780, Note_on_c, 0, 86, 50
1, 18840, Note_on_c, 0, 86, 0
1, 18840, Note_on_c, 0, 84, 52
1, 18840, Note_on_c, 1, 60, 64
1, 18900, Note_on_c, 0, 84, 0
1, 18900, Note_on_c, 0, 82, 54
1, 18960, Note_on_c, 0, 82, 0
1, 18960, Note_on_c, 0, 81, 56
1, 18960, Note_on_c, 1, 60, 0
1, 18960, Note_on_c, 1, 65, 64
1, 19020, Note_on_c, 0, 81, 0
1, 19020, Note_on_c, 0, 79, 58
1, 19080, Note_on_c, 0, 79, 0
1, 19080, Note_on_c, 0, 77, 60
1, 19080, Note_on_c, 1, 65, 0
1, 19080, Note_on_c, 1, 60, 64
1, 19140, Note_on_c, 0, 77, 0
1, 19140, Note_on_c, 0, 75, 62
1, 19200, Note_on_c, 0, 75, 0
1, 19200, Note_on_c, 0, 74, 72
1, 19200, Note_on_c, 1, 60, 0
1, 19200, Note_on_c, 1, 57, 0
1, 19200, Note_on_c, 1, 58, 72
1, 19260, Note_on_c, 0, 74, 0
1, 19260, Note_on_c, 1, 58, 0
1, 19320, Note_on_c, 0, 89, 56
1, 19320, Note_on_c, 1, 62, 56
1, 19440, Note_on_c, 1, 62, 0
1, 19440, Note_on_c, 1, 60, 56
1, 19560, Note_on_c, 0, 89, 0
1, 19560, Note_on_c, 0, 81, 56
1, 19560, Note_on_c, 1, 60, 0
1, 19560, Note_on_c, 1, 63, 56
1, 19680, Note_on_c, 1, 63, 0
1, 19680, Note_on_c, 1, 62, 56
1, 19800, Note_on_c, 0, 81, 0
1, 19800, Note_on_c, 0, 82, 56
1, 19800, Note_on_c, 1, 62, 0
1, 19800, Note_on_c, 1, 65, 56
1, 19920, Note_on_c, 1, 65, 0
1, 19920, Note_on_c, 1, 50, 56
1, 20040, Note_on_c, 0, 82, 0
1, 20040, Note_on_c, 0, 80, 56
1, 20040, Note_on_c, 1, 50, 0
1, 20040, Note_on_c, 1, 58, 56
1, 20160, Note_on_c, 1, 58, 0
1, 20160, Note_on_c, 1, 51, 56
1, 20280, Note_on_c, 0, 80, 0
1, 20280, Note_on_c, 0, 79, 56
1, 20280, Note_on_c, 1, 51, 0
1, 20280, Note_on_c, 1, 58, 56
1, 20400, Note_on_c, 1, 58, 0
1, 20400, Note_on_c, 1, 53, 56
1, 20520, Note_on_c, 0, 79, 0
1, 20520, Note_on_c, 0, 77, 56
1, 20520, Note_on_c, 1, 53, 0
1, 20520, Note_on_c, 1, 58, 56
1, 20640, Note_on_c, 1, 58, 0
1, 20640, Note_on_c, 1, 55, 56
1, 20760, Note_on_c, 0, 77, 0
1, 20760, Note_on_c, 0, 76, 56
1, 20760, Note_on_c, 1, 55, 0
1, 20760, Note_on_c, 1, 58, 56
1, 20880, Note_on_c, 1, 58, 0
1, 20880, Note_on_c, 1, 54, 56
1, 21000, Note_on_c, 0, 76, 0
1, 21000, Note_on_c, 0, 75, 56
1, 21000, Note_on_c, 1, 54, 0
1, 21000, Note_on_c, 1, 58, 56
1, 21120, Note_on_c, 1, 58, 0
1, 21120, Note_on_c, 1, 53, 48
1, 21240, Note_on_c, 0, 75, 0
1, 21240, Note_on_c, 0, 74, 50
1, 21240, Note_on_c, 1, 53, 0
1, 21240, Note_on_c, 1, 58, 50
1, 21360, Note_on_c, 1, 58, 0
1, 21360, Note_on_c, 1, 52, 52
1, 21480, Note_on_c, 0, 74, 0
1, 21480, Note_on_c, 0, 73, 54
1, 21480, Note_on_c, 1, 52, 0
1, 21480, Note_on_c, 1, 58, 54
1, 21600, Note_on_c, 1, 58, 0
1, 21600, Note_on_c, 1, 52, 56
1, 21720, Note_on_c, 0, 73, 0
1, 21720, Note_on_c, 0, 72, 55
1, 21720, Note_on_c, 1, 52, 0
1, 21720, Note_on_c, 1, 60, 55
1, 21840, Note_on_c, 1, 60, 0
1, 21840, Note_on_c, 1, 52, 54
1, 21960, Note_on_c, 0, 72, 0
1, 21960, Note_on_c, 0, 70, 53
1, 21960, Note_on_c, 1, 52, 0
1, 21960, Note_on_c, 1, 61, 53
1, 22080, Note_on_c, 1, 61, 0
1, 22080, Note_on_c, 1, 53, 52
1, 22200, Note_on_c, 0, 70, 0
1, 22200, Note_on_c, 0, 69, 51
1, 22200, Note_on_c, 1, 53, 0
1, 22200, Note_on_c, 1, 60, 51
1, 22320, Note_on_c, 1, 60, 0
1, 22320, Note_on_c, 1, 52, 50
1, 22440, Note_on_c, 0, 69, 0
1, 22440, Note_on_c, 0, 70, 49
1, 22440, Note_on_c, 1, 52, 0
1, 22440, Note_on_c, 1, 61, 49
1, 22560, Note_on_c, 1, 61, 0
1, 22560, Note_on_c, 1, 53, 48
1, 22680, Note_on_c, 0, 70, 0
1, 22680, Note_on_c, 0, 69, 47
1, 22680, Note_on_c, 1, 53, 0
1, 22680, Note_on_c, 1, 60, 47
1, 22800, Note_on_c, 1, 60, 0
1, 22800, Note_on_c, 1, 52, 46
1, 22920, Note_on_c, 0, 69, 0
1, 22920, Note_on_c, 0, 70, 45
1, 22920, Note_on_c, 1, 52, 0
1, 22920, Note_on_c, 1, 61, 45
1, 23040, Note_on_c, 0, 70, 0
1, 23040, Note_on_c, 0, 69, 44
1, 23040, Note_on_c, 1, 61, 0
1, 23040, Note_on_c, 1, 60, 44
1, 23040, Note_on_c, 1, 53, 44
1, 23160, Note_on_c, 0, 69, 0
1, 23160, Note_on_c, 0, 77, 56
1, 23196, Note_on_c, 0, 77, 0
1, 23280, Note_on_c, 0, 77, 56
1, 23280, Note_on_c, 1, 53, 0
1, 23280, Note_on_c, 1, 60, 0
1, 23316, Note_on_c, 0, 77, 0
1, 23400, Note_on_c, 0, 77, 88
1, 23436, Note_on_c, 0, 77, 0
1, 23520, Note_on_c, 0, 77, 56
1, 23556, Note_on_c, 0, 77, 0
1, 23640, Note_on_c, 0, 77, 56
1, 23676, Note_on_c, 0, 77, 0
1, 23760, Note_on_c, 0, 77, 56
1, 23796, Note_on_c, 0, 77, 0
1, 23880, Note_on_c, 0, 76, 88
1, 23880, Note_on_c, 0, 77, 88
1, 23916, Note_on_c, 0, 77, 0
1, 23916, Note_on_c, 0, 76, 0
1, 24000, Note_on_c, 0, 76, 56
1, 24000, Note_on_c, 0, 77, 56
1, 24036, Note_on_c, 0, 77, 0
1, 24036, Note_on_c, 0, 76, 0
1, 24120, Note_on_c, 0, 76, 56
1, 24120, Note_on_c, 0, 77, 56
1, 24156, Note_on_c, 0, 77, 0
1, 24156, Note_on_c, 0, 76, 0
1, 24240, Note_on_c, 0, 76, 56
1, 24240, Note_on_c, 0, 77, 56
1, 24276, Note_on_c, 0, 77, 0
1, 24276, Note_on_c, 0, 76, 0
1, 24360, Note_on_c, 0, 75, 88
1, 24360, Note_on_c, 0, 77, 88
1, 24360, Note_on_c, 1, 65, 88
1, 24396, Note_on_c, 0, 77, 0
1, 24396, Note_on_c, 0, 75, 0
1, 24480, Note_on_c, 0, 75, 56
1, 24480, Note_on_c, 0, 77, 56
1, 24480, Note_on_c, 1, 65, 0
1, 24480, Note_on_c, 1, 66, 80
1, 24516, Note_on_c, 0, 77, 0
1, 24516, Note_on_c, 0, 75, 0
1, 24600, Note_on_c, 0, 75, 56
1, 24600, Note_on_c, 0, 77, 56
1, 24600, Note_on_c, 1, 66, 0
1, 24600, Note_on_c, 1, 67, 80
1, 24636, Note_on_c, 0, 77, 0
1, 24636, Note_on_c, 0, 75, 0
1, 24720, Note_on_c, 0, 75, 56
1, 24720, Note_on_c, 0, 77, 56
1, 24720, Note_on_c, 1, 67, 0
1, 24720, Note_on_c, 1, 68, 80
1, 24756, Note_on_c, 0, 77, 0
1, 24756, Note_on_c, 0, 75, 0
1, 24840, Note_on_c, 0, 75, 88
1, 24840, Note_on_c, 0, 77, 88
1, 24840, Note_on_c, 1, 68, 0
1, 24840, Note_on_c, 1, 69, 88
1, 24876, Note_on_c, 0, 77, 0
1, 24876, Note_on_c, 0, 75, 0
1, 24960, Note_on_c, 0, 74, 56
1, 24960, Note_on_c, 0, 77, 56
1, 24960, Note_on_c, 1, 69, 0
1, 24960, Note_on_c, 1, 70, 80
1, 24996, Note_on_c, 0, 77, 0
1, 24996, Note_on_c, 0, 74, 0
1, 25080, Note_on_c, 0, 74, 56
1, 25080, Note_on_c, 0, 77, 56
1, 25116, Note_on_c, 0, 77, 0
1, 25116, Note_on_c, 0, 74, 0
1, 25200, Note_on_c, 0, 74, 56
1, 25200, Note_on_c, 0, 77, 56
1, 25236, Note_on_c, 0, 77, 0
1, 25236, Note_on_c, 0, 74, 0
1, 25320, Note_on_c, 0, 89, 80
1, 25320, Note_on_c, 0, 86, 80
1, 25320, Note_on_c, 0, 82, 80
1, 25320, Note_on_c, 0, 77, 80
1, 25320, Note_on_c, 1, 70, 0
1, 25320, Note_on_c, 1, 65, 80
1, 25320, Note_on_c, 1, 62, 80
1, 25320, Note_on_c, 1, 58, 80
1, 25356, Note_on_c, 0, 77, 0
1, 25356, Note_on_c, 0, 89, 0
1, 25356, Note_on_c, 0, 86, 0
1, 25356, Note_on_c, 0, 82, 0
1, 25356, Note_on_c, 1, 58, 0
1, 25356, Note_on_c, 1, 62, 0
1, 25356, Note_on_c, 1, 65, 0
1, 25440, Note_on_c, 0, 77, 80
1, 25440, Note_on_c, 0, 82, 80
1, 25440, Note_on_c, 0, 89, 80
1, 25440, Note_on_c, 0, 86, 80
1, 25440, Note_on_c, 1, 65, 80
1, 25440, Note_on_c, 1, 62, 80
1, 25440, Note_on_c, 1, 58, 80
1, 25476, Note_on_c, 0, 86, 0
1, 25476, Note_on_c, 0, 77, 0
1, 25476, Note_on_c, 0, 82, 0
1, 25476, Note_on_c, 0, 89, 0
1, 25476, Note_on_c, 1, 58, 0
1, 25476, Note_on_c, 1, 62, 0
1, 25476, Note_on_c, 1, 65, 0
1, 25560, Note_on_c, 0, 77, 80
1, 25560, Note_on_c, 0, 82, 80
1, 25560, Note_on_c, 0, 89, 80
1, 25560, Note_on_c, 0, 86, 80
1, 25560, Note_on_c, 1, 65, 80
1, 25560, Note_on_c, 1, 62, 80
1, 25560, Note_on_c, 1, 58, 80
1, 25596, Note_on_c, 0, 86, 0
1, 25596, Note_on_c, 0, 77, 0
1, 25596, Note_on_c, 0, 82, 0
1, 25596, Note_on_c, 0, 89, 0
1, 25596, Note_on_c, 1, 58, 0
1, 25596, Note_on_c, 1, 62, 0
1, 25596, Note_on_c, 1, 65, 0
1, 25680, Note_on_c, 0, 77, 80
1, 25680, Note_on_c, 0, 82, 80
1, 25680, Note_on_c, 0, 89, 80
1, 25680, Note_on_c, 0, 86, 80
1, 25680, Note_on_c, 1, 65, 80
1, 25680, Note_on_c, 1, 62, 80
1, 25680, Note_on_c, 1, 58, 80
1, 25716, Note_on_c, 0, 86, 0
1, 25716, Note_on_c, 0, 77, 0
1, 25716, Note_on_c, 0, 82, 0
1, 25716, Note_on_c, 0, 89, 0
1, 25716, Note_on_c, 1, 58, 0
1, 25716, Note_on_c, 1, 62, 0
1, 25716, Note_on_c, 1, 65, 0
1, 25800, Note_on_c, 0, 77, 80
1, 25800, Note_on_c, 0, 82, 80
1, 25800, Note_on_c, 0, 89, 80
1, 25800, Note_on_c, 0, 86, 80
1, 25800, Note_on_c, 1, 65, 80
1, 25800, Note_on_c, 1, 62, 80
1, 25800, Note_on_c, 1, 58, 80
1, 25836, Note_on_c, 0, 86, 0
1, 25836, Note_on_c, 0, 77, 0
1, 25836, Note_on_c, 0, 82, 0
1, 25836, Note_on_c, 0, 89, 0
1, 25836, Note_on_c, 1, 58, 0
1, 25836, Note_on_c, 1, 62, 0
1, 25836, Note_on_c, 1, 65, 0
1, 25920, Note_on_c, 0, 75, 88
1, 25920, Note_on_c, 0, 81, 88
1, 25920, Note_on_c, 1, 60, 88
1, 25920, Note_on_c, 1, 53, 88
1, 26160, Note_on_c, 0, 81, 0
1, 26160, Note_on_c, 0, 75, 0
1, 26160, Note_on_c, 0, 74, 72
1, 26160, Note_on_c, 0, 82, 72
1, 26160, Note_on_c, 1, 53, 0
1, 26160, Note_on_c, 1, 60, 0
1, 26160, Note_on_c, 1, 62, 72
1, 26160, Note_on_c, 1, 58, 72
1, 26196, Note_on_c, 0, 82, 0
1, 26196, Note_on_c, 0, 74, 0
1, 26196, Note_on_c, 1, 58, 0
1, 26196, Note_on_c, 1, 62, 0
1, 26280, Note_on_c, 0, 74, 72
1, 26280, Note_on_c, 0, 77, 72
1, 26280, Note_on_c, 1, 62, 72
1, 26280, Note_on_c, 1, 58, 72
1, 26316, Note_on_c, 0, 77, 0
1, 26316, Note_on_c, 0, 74, 0
1, 26316, Note_on_c, 1, 58, 0
1, 26316, Note_on_c, 1, 62, 0
1, 26400, Note_on_c, 0, 81, 80
1, 26400, Note_on_c, 0, 75, 80
1, 26400, Note_on_c, 1, 53, 80
1, 26400, Note_on_c, 1, 60, 80
1, 26640, Note_on_c, 0, 75, 0
1, 26640, Note_on_c, 0, 81, 0
1, 26640, Note_on_c, 0, 82, 64
1, 26640, Note_on_c, 0, 74, 64
1, 26640, Note_on_c, 1, 60, 0
1, 26640, Note_on_c, 1, 53, 0
1, 26640, Note_on_c, 1, 58, 64
1, 26640, Note_on_c, 1, 62, 64
1, 26676, Note_on_c, 0, 74, 0
1, 26676, Note_on_c, 0, 82, 0
1, 26676, Note_on_c, 1, 62, 0
1, 26676, Note_on_c, 1, 58, 0
1, 26760, Note_on_c, 0, 77, 64
1, 26760, Note_on_c, 0, 74, 64
1, 26760, Note_on_c, 1, 58, 64
1, 26760, Note_on_c, 1, 62, 64
1, 26796, Note_on_c, 0, 74, 0
1, 26796, Note_on_c, 0, 77, 0
1, 26796, Note_on_c, 1, 62, 0
1, 26796, Note_on_c, 1, 58, 0
1, 26880, Note_on_c, 0, 81, 72
1, 26880, Note_on_c, 0, 75, 72
1, 26880, Note_on_c, 1, 53, 72
1, 26880, Note_on_c, 1, 60, 72
1, 27120, Note_on_c, 0, 75, 0
1, 27120, Note_on_c, 0, 81, 0
1, 27120, Note_on_c, 0, 82, 88
1, 27120, Note_on_c, 0, 74, 88
1, 27120, Note_on_c, 1, 60, 0
1, 27120, Note_on_c, 1, 53, 0
1, 27120, Note_on_c, 1, 58, 88
1, 27120, Note_on_c, 1, 62, 88
1, 27240, Note_on_c, 0, 74, 0
1, 27240, Note_on_c, 0, 82, 0
1, 27240, Note_on_c, 0, 83, 88
1, 27240, Note_on_c, 0, 74, 88
1, 27240, Note_on_c, 1, 62, 0
1, 27240, Note_on_c, 1, 58, 0
1, 27240, Note_on_c, 1, 56, 88
1, 27240, Note_on_c, 1, 65, 88
1, 27360, Note_on_c, 0, 74, 0
1, 27360, Note_on_c, 0, 83, 0
1, 27360, Note_on_c, 0, 74, 80
1, 27360, Note_on_c, 0, 83, 80
1, 27360, Note_on_c, 1, 65, 0
1, 27360, Note_on_c, 1, 56, 0
1, 27360, Note_on_c, 1, 56, 80
1, 27360, Note_on_c, 1, 65, 80
1, 27840, Note_on_c, 0, 83, 0
1, 27840, Note_on_c, 0, 74, 0
1, 27840, Note_on_c, 0, 72, 72
1, 27840, Note_on_c, 0, 84, 72
1, 27840, Note_on_c, 1, 65, 0
1, 27840, Note_on_c, 1, 63, 72
1, 28080, Note_on_c, 0, 84, 0
1, 28080, Note_on_c, 0, 82, 64
1, 28080, Note_on_c, 1, 56, 0
1, 28080, Note_on_c, 1, 54, 64
1, 28320, Note_on_c, 0, 82, 0
1, 28320, Note_on_c, 0, 72, 0
1, 28320, Note_on_c, 0, 72, 56
1, 28320, Note_on_c, 0, 81, 56
1, 28320, Note_on_c, 1, 54, 0
1, 28320, Note_on_c, 1, 63, 0
1, 28320, Note_on_c, 1, 53, 56
1, 28320, Note_on_c, 1, 63, 56
1, 28800, Note_on_c, 0, 81, 0
1, 28800, Note_on_c, 0, 72, 0
1, 28800, Note_on_c, 0, 70, 48
1, 28800, Note_on_c, 0, 82, 48
1, 28800, Note_on_c, 1, 63, 0
1, 28800, Note_on_c, 1, 53, 0
1, 28800, Note_on_c, 1, 55, 48
1, 28800, Note_on_c, 1, 62, 48
1, 29520, Note_on_c, 0, 82, 0
1, 29520, Note_on_c, 0, 70, 0
1, 29520, Note_on_c, 0, 70, 48
1, 29520, Note_on_c, 0, 77, 48
1, 29520, Note_on_c, 1, 62, 0
1, 29520, Note_on_c, 1, 55, 0
1, 29520, Note_on_c, 1, 74, 48
1, 29760, Note_on_c, 0, 77, 0
1, 29760, Note_on_c, 0, 70, 0
1, 29760, Note_on_c, 0, 70, 48
1, 29760, Note_on_c, 0, 78, 48
1, 29760, Note_on_c, 1, 74, 0
1, 29760, Note_on_c, 1, 74, 48
1, 30240, Note_on_c, 0, 78, 0
1, 30240, Note_on_c, 0, 79, 48
1, 30240, Note_on_c, 1, 74, 0
1, 30240, Note_on_c, 1, 75, 48
1, 30480, Note_on_c, 0, 79, 0
1, 30480, Note_on_c, 0, 70, 0
1, 30480, Note_on_c, 0, 79, 72
1, 30480, Note_on_c, 0, 71, 72
1, 30480, Note_on_c, 1, 75, 0
1, 30480, Note_on_c, 1, 63, 72
1, 30480, Note_on_c, 1, 51, 72
1, 30720, Note_on_c, 0, 71, 0
1, 30720, Note_on_c, 0, 79, 0
1, 30720, Note_on_c, 0, 71, 72
1, 30720, Note_on_c, 0, 79, 72
1, 30720, Note_on_c, 1, 51, 0
1, 30720, Note_on_c, 1, 63, 0
1, 30720, Note_on_c, 1, 51, 72
1, 30720, Note_on_c, 1, 63, 72
1, 31200, Note_on_c, 0, 71, 0
1, 31200, Note_on_c, 0, 74, 48
1, 31320, Note_on_c, 0, 74, 0
1, 31320, Note_on_c, 0, 72, 52
1, 31440, Note_on_c, 0, 72, 0
1, 31440, Note_on_c, 0, 75, 56
1, 31560, Note_on_c, 0, 75, 0
1, 31560, Note_on_c, 0, 74, 60
1, 31680, Note_on_c, 0, 74, 0
1, 31680, Note_on_c, 0, 77, 72
1, 31800, Note_on_c, 0, 77, 0
1, 31800, Note_on_c, 0, 75, 70
1, 31920, Note_on_c, 0, 75, 0
1, 31920, Note_on_c, 0, 79, 0
1, 31920, Note_on_c, 0, 77, 64
1, 31920, Note_on_c, 0, 80, 64
1, 32040, Note_on_c, 0, 80, 0
1, 32040, Note_on_c, 0, 77, 0
1, 32040, Note_on_c, 0, 75, 64
1, 32040, Note_on_c, 0, 79, 64
1, 32160, Note_on_c, 0, 79, 0
1, 32160, Note_on_c, 0, 75, 0
1, 32160, Note_on_c, 0, 74, 72
1, 32160, Note_on_c, 0, 78, 72
1, 32280, Note_on_c, 0, 78, 0
1, 32280, Note_on_c, 0, 74, 0
1, 32280, Note_on_c, 0, 75, 70
1, 32280, Note_on_c, 0, 79, 70
1, 32316, Note_on_c, 0, 79, 0
1, 32316, Note_on_c, 0, 75, 0
1, 32400, Note_on_c, 0, 74, 68
1, 32400, Note_on_c, 0, 77, 68
1, 32436, Note_on_c, 0, 77, 0
1, 32436, Note_on_c, 0, 74, 0
1, 32520, Note_on_c, 0, 72, 66
1, 32520, Note_on_c, 0, 75, 66
1, 32556, Note_on_c, 0, 75, 0
1, 32556, Note_on_c, 0, 72, 0
1, 32640, Note_on_c, 0, 70, 48
1, 32640, Note_on_c, 0, 74, 48
1, 32640, Note_on_c, 1, 63, 0
1, 32640, Note_on_c, 1, 51, 0
1, 32640, Note_on_c, 1, 53, 48
1, 32640, Note_on_c, 1, 65, 48
1, 33000, Note_on_c, 0, 74, 0
1, 33000, Note_on_c, 0, 70, 0
1, 33000, Note_on_c, 0, 74, 48
1, 33000, Note_on_c, 0, 77, 48
1, 33120, Note_on_c, 0, 77, 0
1, 33120, Note_on_c, 0, 74, 0
1, 33120, Note_on_c, 0, 74, 48
1, 33120, Note_on_c, 0, 77, 48
1, 33120, Note_on_c, 1, 65, 0
1, 33120, Note_on_c, 1, 53, 0
1, 33120, Note_on_c, 1, 41, 48
1, 33120, Note_on_c, 1, 53, 48
1, 33240, Note_on_c, 0, 77, 0
1, 33240, Note_on_c, 0, 74, 0
1, 33240, Note_on_c, 0, 72, 48
1, 33240, Note_on_c, 0, 75, 48
1, 33276, Note_on_c, 0, 75, 0
1, 33276, Note_on_c, 0, 72, 0
1, 33360, Note_on_c, 0, 70, 48
1, 33360, Note_on_c, 0, 74, 48
1, 33396, Note_on_c, 0, 74, 0
1, 33396, Note_on_c, 0, 70, 0
1, 33480, Note_on_c, 0, 69, 48
1, 33480, Note_on_c, 0, 72, 48
1, 33516, Note_on_c, 0, 72, 0
1, 33516, Note_on_c, 0, 69, 0
1, 33600, Note_on_c, 0, 70, 72
1, 33600, Note_on_c, 1, 53, 0
1, 33600, Note_on_c, 1, 41, 0
1, 33660, Note_on_c, 0, 70, 0
1, 33660, Note_on_c, 0, 77, 72
1, 33720, Note_on_c, 0, 77, 0
1, 33720, Note_on_c, 0, 74, 72
1, 33780, Note_on_c, 0, 74, 0
1, 33780, Note_on_c, 0, 70, 72
1, 33840, Note_on_c, 0, 70, 0
1, 33840, Note_on_c, 0, 65, 72
1, 33900, Note_on_c, 0, 65, 0
1, 33900, Note_on_c, 0, 62, 72
1, 33960, Note_on_c, 0, 62, 0
1, 33960, Note_on_c, 0, 58, 72
1, 34020, Note_on_c, 0, 58, 0
1, 34020, Note_on_c, 0, 62, 72
1, 34080, Note_on_c, 0, 62, 0
1, 34080, Note_on_c, 0, 69, 72
1, 34140, Note_on_c, 0, 69, 0
1, 34140, Note_on_c, 0, 77, 72
1, 34200, Note_on_c, 0, 77, 0
1, 34200, Note_on_c, 0, 75, 72
1, 34260, Note_on_c, 0, 75, 0
1, 34260, Note_on_c, 0, 72, 72
1, 34320, Note_on_c, 0, 72, 0
1, 34320, Note_on_c, 0, 69, 72
1, 34380, Note_on_c, 0, 69, 0
1, 34380, Note_on_c, 0, 65, 72
1, 34440, Note_on_c, 0, 65, 0
1, 34440, Note_on_c, 0, 60, 72
1, 34500, Note_on_c, 0, 60, 0
1, 34500, Note_on_c, 0, 63, 72
1, 34560, Note_on_c, 0, 63, 0
1, 34560, Note_on_c, 0, 70, 48
1, 34620, Note_on_c, 0, 70, 0
1, 34620, Note_on_c, 0, 77, 48
1, 34680, Note_on_c, 0, 77, 0
1, 34680, Note_on_c, 0, 74, 48
1, 34740, Note_on_c, 0, 74, 0
1, 34740, Note_on_c, 0, 70, 48
1, 34800, Note_on_c, 0, 70, 0
1, 34800, Note_on_c, 0, 65, 48
1, 34860, Note_on_c, 0, 65, 0
1, 34860, Note_on_c, 0, 62, 48
1, 34920, Note_on_c, 0, 62, 0
1, 34920, Note_on_c, 0, 58, 48
1, 34980, Note_on_c, 0, 58, 0
1, 34980, Note_on_c, 0, 62, 48
1, 35040, Note_on_c, 0, 62, 0
1, 35040, Note_on_c, 0, 69, 48
1, 35100, Note_on_c, 0, 69, 0
1, 35100, Note_on_c, 0, 77, 48
1, 35160, Note_on_c, 0, 77, 0
1, 35160, Note_on_c, 0, 75, 48
1, 35220, Note_on_c, 0, 75, 0
1, 35220, Note_on_c, 0, 72, 48
1, 35280, Note_on_c, 0, 72, 0
1, 35280, Note_on_c, 0, 69, 48
1, 35340, Note_on_c, 0, 69, 0
1, 35340, Note_on_c, 0, 65, 48
1, 35400, Note_on_c, 0, 65, 0
1, 35400, Note_on_c, 0, 60, 48
1, 35460, Note_on_c, 0, 60, 0
1, 35460, Note_on_c, 0, 63, 48
1, 35520, Note_on_c, 0, 63, 0
1, 35520, Note_on_c, 0, 77, 48
1, 35580, Note_on_c, 0, 77, 0
1, 35580, Note_on_c, 0, 70, 48
1, 35640, Note_on_c, 0, 70, 0
1, 35640, Note_on_c, 0, 62, 48
1, 35700, Note_on_c, 0, 62, 0
1, 35700, Note_on_c, 0, 70, 48
1, 35760, Note_on_c, 0, 70, 0
1, 35760, Note_on_c, 0, 79, 48
1, 35820, Note_on_c, 0, 79, 0
1, 35820, Note_on_c, 0, 70, 48
1, 35880, Note_on_c, 0, 70, 0
1, 35880, Note_on_c, 0, 63, 48
1, 35940, Note_on_c, 0, 63, 0
1, 35940, Note_on_c, 0, 70, 48
1, 36000, Note_on_c, 0, 70, 0
1, 36000, Note_on_c, 0, 81, 48
1, 36060, Note_on_c, 0, 81, 0
1, 36060, Note_on_c, 0, 70, 48
1, 36120, Note_on_c, 0, 70, 0
1, 36120, Note_on_c, 0, 65, 48
1, 36180, Note_on_c, 0, 65, 0
1, 36180, Note_on_c, 0, 70, 48
1, 36240, Note_on_c, 0, 70, 0
1, 36240, Note_on_c, 0, 82, 48
1, 36300, Note_on_c, 0, 82, 0
1, 36300, Note_on_c, 0, 70, 48
1, 36360, Note_on_c, 0, 70, 0
1, 36360, Note_on_c, 0, 67, 48
1, 36420, Note_on_c, 0, 67, 0
1, 36420, Note_on_c, 0, 70, 48
1, 36480, Note_on_c, 0, 70, 0
1, 36480, Note_on_c, 0, 77, 80
1, 36540, Note_on_c, 0, 77, 0
1, 36540, Note_on_c, 0, 70, 80
1, 36600, Note_on_c, 0, 70, 0
1, 36600, Note_on_c, 0, 62, 80
1, 36660, Note_on_c, 0, 62, 0
1, 36660, Note_on_c, 0, 70, 80
1, 36720, Note_on_c, 0, 70, 0
1, 36720, Note_on_c, 0, 79, 80
1, 36780, Note_on_c, 0, 79, 0
1, 36780, Note_on_c, 0, 70, 80
1, 36840, Note_on_c, 0, 70, 0
1, 36840, Note_on_c, 0, 63, 80
1, 36900, Note_on_c, 0, 63, 0
1, 36900, Note_on_c, 0, 70, 80
1, 36960, Note_on_c, 0, 70, 0
1, 36960, Note_on_c, 0, 81, 80
1, 37020, Note_on_c, 0, 81, 0
1, 37020, Note_on_c, 0, 70, 80
1, 37080, Note_on_c, 0, 70, 0
1, 37080, Note_on_c, 0, 65, 80
1, 37140, Note_on_c, 0, 65, 0
1, 37140, Note_on_c, 0, 70, 80
1, 37200, Note_on_c, 0, 70, 0
1, 37200, Note_on_c, 0, 82, 80
1, 37260, Note_on_c, 0, 82, 0
1, 37260, Note_on_c, 0, 70, 80
1, 37320, Note_on_c, 0, 70, 0
1, 37320, Note_on_c, 0, 67, 80
1, 37380, Note_on_c, 0, 67, 0
1, 37380, Note_on_c, 0, 70, 80
1, 37440, Note_on_c, 0, 70, 0
1, 37440, Note_on_c, 0, 85, 72
1, 37500, Note_on_c, 0, 85, 0
1, 37500, Note_on_c, 0, 73, 73
1, 37560, Note_on_c, 0, 73, 0
1, 37560, Note_on_c, 0, 66, 74
1, 37620, Note_on_c, 0, 66, 0
1, 37620, Note_on_c, 0, 70, 75
1, 37680, Note_on_c, 0, 70, 0
1, 37680, Note_on_c, 0, 82, 76
1, 37740, Note_on_c, 0, 82, 0
1, 37740, Note_on_c, 0, 70, 77
1, 37800, Note_on_c, 0, 70, 0
1, 37800, Note_on_c, 0, 66, 78
1, 37860, Note_on_c, 0, 66, 0
1, 37860, Note_on_c, 0, 70, 79
1, 37920, Note_on_c, 0, 70, 0
1, 37920, Note_on_c, 0, 88, 80
1, 37980, Note_on_c, 0, 88, 0
1, 37980, Note_on_c, 0, 76, 81
1, 38040, Note_on_c, 0, 76, 0
1, 38040, Note_on_c, 0, 66, 82
1, 38100, Note_on_c, 0, 66, 0
1, 38100, Note_on_c, 0, 70, 83
1, 38160, Note_on_c, 0, 70, 0
1, 38160, Note_on_c, 0, 82, 84
1, 38220, Note_on_c, 0, 82, 0
1, 38220, Note_on_c, 0, 70, 85
1, 38280, Note_on_c, 0, 70, 0
1, 38280, Note_on_c, 0, 66, 86
1, 38340, Note_on_c, 0, 66, 0
1, 38340, Note_on_c, 0, 70, 87
1, 38400, Note_on_c, 0, 70, 0
1, 38400, Note_on_c, 0, 81, 88
1, 38460, Note_on_c, 0, 81, 0
1, 38460, Note_on_c, 0, 69, 88
1, 38520, Note_on_c, 1, 65, 88
1, 38580, Note_on_c, 1, 65, 0
1, 38580, Note_on_c, 1, 53, 88
1, 38616, Note_on_c, 0, 69, 0
1, 38640, Note_on_c, 0, 77, 88
1, 38688, Note_on_c, 0, 77, 0
1, 38700, Note_on_c, 0, 65, 88
1, 38736, Note_on_c, 1, 53, 0
1, 38760, Note_on_c, 1, 60, 88
1, 38808, Note_on_c, 1, 60, 0
1, 38820, Note_on_c, 1, 48, 88
1, 38856, Note_on_c, 0, 65, 0
1, 38880, Note_on_c, 0, 72, 88
1, 38940, Note_on_c, 0, 72, 0
1, 38940, Note_on_c, 0, 60, 88
1, 38976, Note_on_c, 1, 48, 0
1, 39000, Note_on_c, 1, 57, 88
1, 39048, Note_on_c, 1, 57, 0
1, 39060, Note_on_c, 1, 45, 88
1, 39096, Note_on_c, 0, 60, 0
1, 39120, Note_on_c, 0, 69, 88
1, 39168, Note_on_c, 0, 69, 0
1, 39180, Note_on_c, 0, 57, 88
1, 39216, Note_on_c, 1, 45, 0
1, 39240, Note_on_c, 1, 53, 96
1, 39288, Note_on_c, 1, 53, 0
1, 39300, Note_on_c, 1, 41, 96
1, 39336, Note_on_c, 0, 57, 0
1, 39348, Note_on_c, 1, 41, 0
1, 39360, Note_on_c, 1, 29, 96
1, 39720, Note_on_c, 1, 29, 0
1, 39720, Note_on_c, 1, 63, 88
1, 39756, Note_on_c, 1, 63, 0
1, 39840, Note_on_c, 1, 63, 64
1, 39876, Note_on_c, 1, 63, 0
1, 39960, Note_on_c, 1, 63, 64
1, 39996, Note_on_c, 1, 63, 0
1, 40080, Note_on_c, 1, 63, 64
1, 40116, Note_on_c, 1, 63, 0
1, 40200, Note_on_c, 0, 72, 80
1, 40200, Note_on_c, 1, 63, 80
1, 40236, Note_on_c, 1, 63, 0
1, 40296, Note_on_c, 0, 72, 0
1, 40320, Note_on_c, 0, 65, 72
1, 40320, Note_on_c, 1, 63, 64
1, 40356, Note_on_c, 1, 63, 0
1, 40440, Note_on_c, 0, 65, 0
1, 40440, Note_on_c, 0, 66, 72
1, 40440, Note_on_c, 1, 63, 64
1, 40476, Note_on_c, 1, 63, 0
1, 40560, Note_on_c, 0, 66, 0
1, 40560, Note_on_c, 0, 65, 72
1, 40560, Note_on_c, 1, 63, 64
1, 40596, Note_on_c, 0, 65, 0
1, 40596, Note_on_c, 1, 63, 0
1, 40680, Note_on_c, 0, 75, 88
1, 40680, Note_on_c, 1, 63, 80
1, 40716, Note_on_c, 0, 75, 0
1, 40716, Note_on_c, 1, 63, 0
1, 40800, Note_on_c, 0, 69, 72
1, 40800, Note_on_c, 1, 63, 64
1, 40836, Note_on_c, 1, 63, 0
1, 40920, Note_on_c, 0, 69, 0
1, 40920, Note_on_c, 0, 70, 72
1, 40920, Note_on_c, 1, 63, 64
1, 40956, Note_on_c, 1, 63, 0
1, 41040, Note_on_c, 0, 70, 0
1, 41040, Note_on_c, 0, 69, 72
1, 41040, Note_on_c, 1, 63, 64
1, 41076, Note_on_c, 0, 69, 0
1, 41076, Note_on_c, 1, 63, 0
1, 41160, Note_on_c, 0, 78, 88
1, 41160, Note_on_c, 1, 63, 80
1, 41196, Note_on_c, 0, 78, 0
1, 41196, Note_on_c, 1, 63, 0
1, 41280, Note_on_c, 0, 72, 72
1, 41280, Note_on_c, 1, 63, 64
1, 41316, Note_on_c, 1, 63, 0
1, 41400, Note_on_c, 0, 72, 0
1, 41400, Note_on_c, 0, 73, 72
1, 41400, Note_on_c, 1, 63, 64
1, 41436, Note_on_c, 1, 63, 0
1, 41520, Note_on_c, 0, 73, 0
1, 41520, Note_on_c, 0, 72, 72
1, 41520, Note_on_c, 1, 63, 64
1, 41556, Note_on_c, 0, 72, 0
1, 41556, Note_on_c, 1, 63, 0
1, 41640, Note_on_c, 0, 81, 88
1, 41640, Note_on_c, 1, 63, 80
1, 41676, Note_on_c, 0, 81, 0
1, 41676, Note_on_c, 1, 63, 0
1, 41760, Note_on_c, 0, 77, 80
1, 41760, Note_on_c, 1, 63, 80
1, 41880, Note_on_c, 0, 77, 0
1, 41880, Note_on_c, 0, 78, 80
1, 41880, Note_on_c, 1, 63, 0
1, 41880, Note_on_c, 1, 63, 80
1, 42000, Note_on_c, 0, 78, 0
1, 42000, Note_on_c, 0, 77, 80
1, 42000, Note_on_c, 1, 63, 0
1, 42000, Note_on_c, 1, 63, 80
1, 42036, Note_on_c, 0, 77, 0
1, 42036, Note_on_c, 1, 63, 0
1, 42120, Note_on_c, 0, 89, 80
1, 42120, Note_on_c, 1, 63, 80
1, 42156, Note_on_c, 0, 89, 0
1, 42156, Note_on_c, 1, 63, 0
1, 42240, Note_on_c, 1, 62, 80
1, 42276, Note_on_c, 1, 62, 0
1, 42360, Note_on_c, 0, 89, 80
1, 42360, Note_on_c, 0, 86, 80
1, 42396, Note_on_c, 0, 86, 0
1, 42396, Note_on_c, 0, 89, 0
1, 42480, Note_on_c, 1, 63, 80
1, 42516, Note_on_c, 1, 63, 0
1, 42600, Note_on_c, 0, 87, 80
1, 42600, Note_on_c, 0, 84, 80
1, 42636, Note_on_c, 0, 84, 0
1, 42636, Note_on_c, 0, 87, 0
1, 42720, Note_on_c, 1, 65, 80
1, 42756, Note_on_c, 1, 65, 0
1, 42840, Note_on_c, 0, 86, 80
1, 42840, Note_on_c, 0, 82, 80
1, 42876, Note_on_c, 0, 82, 0
1, 42876, Note_on_c, 0, 86, 0
1, 42960, Note_on_c, 1, 65, 80
1, 42996, Note_on_c, 1, 65, 0
1, 43080, Note_on_c, 0, 84, 80
1, 43080, Note_on_c, 0, 81, 80
1, 43116, Note_on_c, 0, 81, 0
1, 43116, Note_on_c, 0, 84, 0
1, 43200, Note_on_c, 0, 82, 80
1, 43200, Note_on_c, 1, 58, 80
1, 43320, Note_on_c, 0, 82, 0
1, 43320, Note_on_c, 0, 63, 64
1, 43440, Note_on_c, 0, 63, 0
1, 43440, Note_on_c, 0, 63, 64
1, 43440, Note_on_c, 1, 58, 0
1, 43476, Note_on_c, 0, 63, 0
1, 43560, Note_on_c, 0, 63, 64
1, 43596, Note_on_c, 0, 63, 0
1, 43680, Note_on_c, 0, 63, 64
1, 43716, Note_on_c, 0, 63, 0
1, 43800, Note_on_c, 0, 63, 64
1, 43836, Note_on_c, 0, 63, 0
1, 43920, Note_on_c, 0, 63, 64
1, 43956, Note_on_c, 0, 63, 0
1, 44040, Note_on_c, 0, 63, 72
1, 44040, Note_on_c, 1, 48, 88
1, 44076, Note_on_c, 0, 63, 0
1, 44160, Note_on_c, 0, 63, 64
1, 44160, Note_on_c, 1, 48, 0
1, 44160, Note_on_c, 1, 41, 72
1, 44196, Note_on_c, 0, 63, 0
1, 44280, Note_on_c, 0, 63, 64
1, 44280, Note_on_c, 1, 41, 0
1, 44280, Note_on_c, 1, 42, 72
1, 44316, Note_on_c, 0, 63, 0
1, 44400, Note_on_c, 0, 63, 64
1, 44400, Note_on_c, 1, 42, 0
1, 44400, Note_on_c, 1, 41, 72
1, 44436, Note_on_c, 0, 63, 0
1, 44436, Note_on_c, 1, 41, 0
1, 44520, Note_on_c, 0, 63, 72
1, 44520, Note_on_c, 1, 51, 80
1, 44556, Note_on_c, 0, 63, 0
1, 44556, Note_on_c, 1, 51, 0
1, 44640, Note_on_c, 0, 63, 64
1, 44640, Note_on_c, 1, 45, 72
1, 44676, Note_on_c, 0, 63, 0
1, 44760, Note_on_c, 0, 63, 64
1, 44760, Note_on_c, 1, 45, 0
1, 44760, Note_on_c, 1, 46, 72
1, 44796, Note_on_c, 0, 63, 0
1, 44880, Note_on_c, 0, 63, 64
1, 44880, Note_on_c, 1, 46, 0
1, 44880, Note_on_c, 1, 45, 72
1, 44916, Note_on_c, 0, 63, 0
1, 44916, Note_on_c, 1, 45, 0
1, 45000, Note_on_c, 0, 63, 72
1, 45000, Note_on_c, 1, 54, 88
1, 45036, Note_on_c, 0, 63, 0
1, 45036, Note_on_c, 1, 54, 0
1, 45120, Note_on_c, 0, 63, 64
1, 45120, Note_on_c, 1, 48, 72
1, 45156, Note_on_c, 0, 63, 0
1, 45240, Note_on_c, 0, 63, 64
1, 45240, Note_on_c, 1, 48, 0
1, 45240, Note_on_c, 1, 49, 72
1, 45276, Note_on_c, 0, 63, 0
1, 45360, Note_on_c, 0, 63, 64
1, 45360, Note_on_c, 1, 49, 0
1, 45360, Note_on_c, 1, 48, 72
1, 45396, Note_on_c, 0, 63, 0
1, 45396, Note_on_c, 1, 48, 0
1, 45480, Note_on_c, 0, 63, 72
1, 45480, Note_on_c, 1, 57, 88
1, 45516, Note_on_c, 0, 63, 0
1, 45516, Note_on_c, 1, 57, 0
1, 45600, Note_on_c, 0, 63, 64
1, 45600, Note_on_c, 1, 53, 72
1, 45636, Note_on_c, 0, 63, 0
1, 45720, Note_on_c, 0, 63, 64
1, 45720, Note_on_c, 1, 53, 0
1, 45720, Note_on_c, 1, 54, 72
1, 45756, Note_on_c, 0, 63, 0
1, 45840, Note_on_c, 0, 63, 64
1, 45840, Note_on_c, 1, 54, 0
1, 45840, Note_on_c, 1, 53, 72
1, 45876, Note_on_c, 0, 63, 0
1, 45876, Note_on_c, 1, 53, 0
1, 45960, Note_on_c, 0, 63, 72
1, 45960, Note_on_c, 1, 57, 88
1, 45996, Note_on_c, 0, 63, 0
1, 45996, Note_on_c, 1, 57, 0
1, 46080, Note_on_c, 0, 62, 80
1, 46080, Note_on_c, 1, 58, 80
1, 46140, Note_on_c, 0, 62, 0
1, 46140, Note_on_c, 0, 70, 80
1, 46200, Note_on_c, 0, 70, 0
1, 46200, Note_on_c, 0, 62, 80
1, 46200, Note_on_c, 1, 58, 0
1, 46200, Note_on_c, 1, 46, 80
1, 46260, Note_on_c, 0, 62, 0
1, 46260, Note_on_c, 0, 70, 80
1, 46320, Note_on_c, 0, 70, 0
1, 46320, Note_on_c, 0, 63, 80
1, 46320, Note_on_c, 1, 46, 0
1, 46320, Note_on_c, 1, 58, 80
1, 46380, Note_on_c, 0, 63, 0
1, 46380, Note_on_c, 0, 69, 80
1, 46440, Note_on_c, 0, 69, 0
1, 46440, Note_on_c, 0, 63, 80
1, 46440, Note_on_c, 1, 58, 0
1, 46440, Note_on_c, 1, 46, 80
1, 46500, Note_on_c, 0, 63, 0
1, 46500, Note_on_c, 0, 69, 80
1, 46560, Note_on_c, 0, 69, 0
1, 46560, Note_on_c, 0, 69, 80
1, 46560, Note_on_c, 1, 46, 0
1, 46560, Note_on_c, 1, 58, 80
1, 46620, Note_on_c, 0, 69, 0
1, 46620, Note_on_c, 0, 75, 80
1, 46680, Note_on_c, 0, 75, 0
1, 46680, Note_on_c, 0, 69, 80
1, 46680, Note_on_c, 1, 58, 0
1, 46680, Note_on_c, 1, 46, 80
1, 46740, Note_on_c, 0, 69, 0
1, 46740, Note_on_c, 0, 75, 80
1, 46800, Note_on_c, 0, 75, 0
1, 46800, Note_on_c, 0, 70, 80
1, 46800, Note_on_c, 1, 46, 0
1, 46800, Note_on_c, 1, 58, 80
1, 46860, Note_on_c, 0, 70, 0
1, 46860, Note_on_c, 0, 74, 80
1, 46920, Note_on_c, 0, 74, 0
1, 46920, Note_on_c, 0, 70, 80
1, 46920, Note_on_c, 1, 58, 0
1, 46920, Note_on_c, 1, 46, 80
1, 46980, Note_on_c, 0, 70, 0
1, 46980, Note_on_c, 0, 74, 80
1, 47040, Note_on_c, 0, 74, 0
1, 47040, Note_on_c, 0, 74, 80
1, 47040, Note_on_c, 1, 46, 0
1, 47040, Note_on_c, 1, 58, 80
1, 47100, Note_on_c, 0, 74, 0
1, 47100, Note_on_c, 0, 82, 80
1, 47160, Note_on_c, 0, 82, 0
1, 47160, Note_on_c, 0, 74, 80
1, 47160, Note_on_c, 1, 58, 0
1, 47160, Note_on_c, 1, 46, 80
1, 47220, Note_on_c, 0, 74, 0
1, 47220, Note_on_c, 0, 82, 80
1, 47280, Note_on_c, 0, 82, 0
1, 47280, Note_on_c, 0, 75, 80
1, 47280, Note_on_c, 1, 46, 0
1, 47280, Note_on_c, 1, 58, 80
1, 47340, Note_on_c, 0, 75, 0
1, 47340, Note_on_c, 0, 81, 80
1, 47400, Note_on_c, 0, 81, 0
1, 47400, Note_on_c, 0, 75, 80
1, 47400, Note_on_c, 1, 58, 0
1, 47400, Note_on_c, 1, 46, 80
1, 47460, Note_on_c, 0, 75, 0
1, 47460, Note_on_c, 0, 81, 80
1, 47520, Note_on_c, 0, 81, 0
1, 47520, Note_on_c, 0, 81, 80
1, 47520, Note_on_c, 1, 46, 0
1, 47520, Note_on_c, 1, 58, 80
1, 47580, Note_on_c, 0, 81, 0
1, 47580, Note_on_c, 0, 87, 80
1, 47640, Note_on_c, 0, 87, 0
1, 47640, Note_on_c, 0, 81, 80
1, 47640, Note_on_c, 1, 58, 0
1, 47640, Note_on_c, 1, 46, 80
1, 47700, Note_on_c, 0, 81, 0
1, 47700, Note_on_c, 0, 87, 80
1, 47760, Note_on_c, 0, 87, 0
1, 47760, Note_on_c, 0, 82, 80
1, 47760, Note_on_c, 1, 46, 0
1, 47760, Note_on_c, 1, 58, 80
1, 47820, Note_on_c, 0, 82, 0
1, 47820, Note_on_c, 0, 86, 80
1, 47880, Note_on_c, 0, 86, 0
1, 47880, Note_on_c, 0, 82, 80
1, 47940, Note_on_c, 0, 82, 0
1, 47940, Note_on_c, 0, 86, 80
1, 48000, Note_on_c, 0, 86, 0
1, 48000, Note_on_c, 0, 89, 80
1, 48000, Note_on_c, 0, 86, 80
1, 48000, Note_on_c, 0, 82, 80
1, 48000, Note_on_c, 0, 77, 80
1, 48000, Note_on_c, 1, 58, 0
1, 48000, Note_on_c, 1, 62, 80
1, 48000, Note_on_c, 1, 58, 80
1, 48000, Note_on_c, 1, 53, 80
1, 48000, Note_on_c, 1, 50, 80
1, 48036, Note_on_c, 0, 77, 0
1, 48036, Note_on_c, 0, 89, 0
1, 48036, Note_on_c, 0, 86, 0
1, 48036, Note_on_c, 0, 82, 0
1, 48036, Note_on_c, 1, 50, 0
1, 48036, Note_on_c, 1, 62, 0
1, 48036, Note_on_c, 1, 58, 0
1, 48036, Note_on_c, 1, 53, 0
1, 48240, Note_on_c, 0, 87, 80
1, 48240, Note_on_c, 0, 84, 80
1, 48240, Note_on_c, 0, 79, 80
1, 48240, Note_on_c, 1, 60, 80
1, 48240, Note_on_c, 1, 55, 80
1, 48240, Note_on_c, 1, 51, 80
1, 48294, Note_on_c, 0, 79, 0
1, 48294, Note_on_c, 0, 84, 0
1, 48294, Note_on_c, 0, 87, 0
1, 48294, Note_on_c, 1, 51, 0
1, 48294, Note_on_c, 1, 55, 0
1, 48294, Note_on_c, 1, 60, 0
1, 48480, Note_on_c, 0, 77, 80
1, 48480, Note_on_c, 0, 82, 80
1, 48480, Note_on_c, 0, 86, 80
1, 48480, Note_on_c, 1, 53, 80
1, 48480, Note_on_c, 1, 58, 80
1, 48480, Note_on_c, 1, 62, 80
1, 48552, Note_on_c, 0, 86, 0
1, 48552, Note_on_c, 0, 82, 0
1, 48552, Note_on_c, 0, 77, 0
1, 48552, Note_on_c, 1, 62, 0
1, 48552, Note_on_c, 1, 58, 0
1, 48552, Note_on_c, 1, 53, 0
1, 48720, Note_on_c, 0, 81, 80
1, 48720, Note_on_c, 0, 75, 80
1, 48720, Note_on_c, 0, 72, 80
1, 48720, Note_on_c, 1, 60, 80
1, 48720, Note_on_c, 1, 57, 80
1, 48720, Note_on_c, 1, 53, 80
1, 48960, Note_on_c, 0, 72, 0
1, 48960, Note_on_c, 0, 75, 0
1, 48960, Note_on_c, 0, 81, 0
1, 48960, Note_on_c, 0, 82, 80
1, 48960, Note_on_c, 0, 77, 80
1, 48960, Note_on_c, 0, 74, 80
1, 48960, Note_on_c, 1, 53, 0
1, 48960, Note_on_c, 1, 57, 0
1, 48960, Note_on_c, 1, 60, 0
1, 48960, Note_on_c, 1, 58, 80
1, 49020, Note_on_c, 1, 58, 0
1, 49020, Note_on_c, 1, 57, 80
1, 49080, Note_on_c, 1, 57, 0
1, 49080, Note_on_c, 1, 58, 80
1, 49140, Note_on_c, 1, 58, 0
1, 49140, Note_on_c, 1, 57, 80
1, 49200, Note_on_c, 0, 74, 0
1, 49200, Note_on_c, 0, 77, 0
1, 49200, Note_on_c, 0, 82, 0
1, 49200, Note_on_c, 1, 57, 0
1, 49200, Note_on_c, 1, 58, 80
1, 49260, Note_on_c, 1, 58, 0
1, 49260, Note_on_c, 1, 57, 80
1, 49320, Note_on_c, 0, 75, 80
1, 49320, Note_on_c, 0, 79, 80
1, 49320, Note_on_c, 1, 57, 0
1, 49320, Note_on_c, 1, 58, 80
1, 49380, Note_on_c, 1, 58, 0
1, 49380, Note_on_c, 1, 57, 80
1, 49440, Note_on_c, 0, 79, 0
1, 49440, Note_on_c, 0, 75, 0
1, 49440, Note_on_c, 0, 74, 80
1, 49440, Note_on_c, 0, 77, 80
1, 49440, Note_on_c, 1, 57, 0
1, 49440, Note_on_c, 1, 58, 80
1, 49500, Note_on_c, 1, 58, 0
1, 49500, Note_on_c, 1, 57, 80
1, 49560, Note_on_c, 0, 77, 0
1, 49560, Note_on_c, 0, 74, 0
1, 49560, Note_on_c, 0, 72, 80
1, 49560, Note_on_c, 0, 75, 80
1, 49560, Note_on_c, 1, 57, 0
1, 49560, Note_on_c, 1, 58, 80
1, 49596, Note_on_c, 0, 75, 0
1, 49596, Note_on_c, 0, 72, 0
1, 49620, Note_on_c, 1, 58, 0
1, 49620, Note_on_c, 1, 57, 80
1, 49680, Note_on_c, 0, 70, 80
1, 49680, Note_on_c, 0, 74, 80
1, 49680, Note_on_c, 1, 57, 0
1, 49680, Note_on_c, 1, 58, 80
1, 49716, Note_on_c, 0, 74, 0
1, 49716, Note_on_c, 0, 70, 0
1, 49740, Note_on_c, 1, 58, 0
1, 49740, Note_on_c, 1, 57, 80
1, 49800, Note_on_c, 0, 69, 80
1, 49800, Note_on_c, 0, 72, 80
1, 49800, Note_on_c, 1, 57, 0
1, 49800, Note_on_c, 1, 58, 80
1, 49836, Note_on_c, 0, 72, 0
1, 49836, Note_on_c, 0, 69, 0
1, 49860, Note_on_c, 1, 58, 0
1, 49860, Note_on_c, 1, 57, 80
1, 49920, Note_on_c, 0, 70, 80
1, 49920, Note_on_c, 1, 57, 0
1, 49920, Note_on_c, 1, 58, 80
1, 49980, Note_on_c, 0, 70, 0
1, 49980, Note_on_c, 0, 69, 80
1, 50040, Note_on_c, 0, 69, 0
1, 50040, Note_on_c, 0, 70, 80
1, 50100, Note_on_c, 0, 70, 0
1, 50100, Note_on_c, 0, 69, 80
1, 50160, Note_on_c, 0, 69, 0
1, 50160, Note_on_c, 0, 70, 80
1, 50160, Note_on_c, 1, 58, 0
1, 50220, Note_on_c, 0, 70, 0
1, 50220, Note_on_c, 0, 69, 80
1, 50280, Note_on_c, 0, 69, 0
1, 50280, Note_on_c, 0, 70, 80
1, 50280, Note_on_c, 1, 51, 80
1, 50280, Note_on_c, 1, 55, 80
1, 50340, Note_on_c, 0, 70, 0
1, 50340, Note_on_c, 0, 69, 80
1, 50400, Note_on_c, 0, 69, 0
1, 50400, Note_on_c, 0, 70, 80
1, 50400, Note_on_c, 1, 55, 0
1, 50400, Note_on_c, 1, 51, 0
1, 50400, Note_on_c, 1, 50, 80
1, 50400, Note_on_c, 1, 53, 80
1, 50460, Note_on_c, 0, 70, 0
1, 50460, Note_on_c, 0, 69, 80
1, 50520, Note_on_c, 0, 69, 0
1, 50520, Note_on_c, 0, 70, 80
1, 50520, Note_on_c, 1, 53, 0
1, 50520, Note_on_c, 1, 50, 0
1, 50520, Note_on_c, 1, 51, 80
1, 50520, Note_on_c, 1, 55, 80
1, 50556, Note_on_c, 1, 55, 0
1, 50556, Note_on_c, 1, 51, 0
1, 50580, Note_on_c, 0, 70, 0
1, 50580, Note_on_c, 0, 69, 80
1, 50640, Note_on_c, 0, 69, 0
1, 50640, Note_on_c, 0, 70, 80
1, 50640, Note_on_c, 1, 50, 80
1, 50640, Note_on_c, 1, 53, 80
1, 50676, Note_on_c, 1, 53, 0
1, 50676, Note_on_c, 1, 50, 0
1, 50700, Note_on_c, 0, 70, 0
1, 50700, Note_on_c, 0, 69, 80
1, 50760, Note_on_c, 0, 69, 0
1, 50760, Note_on_c, 0, 70, 80
1, 50760, Note_on_c, 1, 48, 80
1, 50760, Note_on_c, 1, 51, 80
1, 50796, Note_on_c, 1, 51, 0
1, 50796, Note_on_c, 1, 48, 0
1, 50820, Note_on_c, 0, 70, 0
1, 50820, Note_on_c, 0, 69, 80
1, 50880, Note_on_c, 0, 69, 0
1, 50880, Note_on_c, 0, 70, 80
1, 50880, Note_on_c, 1, 50, 80
1, 50880, Note_on_c, 1, 46, 80
1, 50952, Note_on_c, 0, 70, 0
1, 50952, Note_on_c, 1, 46, 0
1, 50952, Note_on_c, 1, 50, 0
1, 51120, Note_on_c, 0, 82, 80
1, 51120, Note_on_c, 0, 77, 80
1, 51120, Note_on_c, 0, 74, 80
1, 51120, Note_on_c, 1, 58, 80
1, 51120, Note_on_c, 1, 53, 80
1, 51120, Note_on_c, 1, 50, 80
1, 51120, Note_on_c, 1, 46, 80
1, 51264, Note_on_c, 0, 74, 0
1, 51264, Note_on_c, 0, 77, 0
1, 51264, Note_on_c, 0, 82, 0
1, 51264, Note_on_c, 1, 46, 0
1, 51264, Note_on_c, 1, 58, 0
1, 51264, Note_on_c, 1, 53, 0
1, 51264, Note_on_c, 1, 50, 0
1, 51720, Note_on_c, 0, 65, 48
1, 51756, Note_on_c, 0, 65, 0
1, 51840, Note_on_c, 0, 56, 48
1, 51840, Note_on_c, 1, 36, 32
1, 51840, Note_on_c, 1, 48, 32
1, 51960, Note_on_c, 0, 56, 0
1, 51960, Note_on_c, 0, 58, 48
1, 52080, Note_on_c, 0, 58, 0
1, 52080, Note_on_c, 0, 56, 48
1, 52116, Note_on_c, 0, 56, 0
1, 52128, Note_on_c, 1, 48, 0
1, 52128, Note_on_c, 1, 36, 0
1, 52200, Note_on_c, 0, 65, 48
1, 52236, Note_on_c, 0, 65, 0
1, 52320, Note_on_c, 0, 55, 48
1, 52320, Note_on_c, 1, 35, 32
1, 52320, Note_on_c, 1, 47, 32
1, 52440, Note_on_c, 0, 55, 0
1, 52440, Note_on_c, 0, 56, 48
1, 52560, Note_on_c, 0, 56, 0
1, 52560, Note_on_c, 0, 55, 48
1, 52596, Note_on_c, 0, 55, 0
1, 52680, Note_on_c, 0, 68, 48
1, 52680, Note_on_c, 1, 47, 0
1, 52680, Note_on_c, 1, 35, 0
1, 52680, Note_on_c, 1, 60, 48
1, 52800, Note_on_c, 0, 68, 0
1, 52800, Note_on_c, 0, 67, 48
1, 52800, Note_on_c, 1, 60, 0
1, 52800, Note_on_c, 1, 59, 48
1, 52920, Note_on_c, 0, 67, 0
1, 52920, Note_on_c, 0, 68, 48
1, 52920, Note_on_c, 1, 59, 0
1, 52920, Note_on_c, 1, 60, 48
1, 52956, Note_on_c, 0, 68, 0
1, 52956, Note_on_c, 1, 60, 0
1, 53040, Note_on_c, 0, 67, 48
1, 53040, Note_on_c, 1, 59, 48
1, 53076, Note_on_c, 0, 67, 0
1, 53076, Note_on_c, 1, 59, 0
1, 53160, Note_on_c, 0, 65, 48
1, 53160, Note_on_c, 1, 62, 48
1, 53196, Note_on_c, 0, 65, 0
1, 53196, Note_on_c, 1, 62, 0
1, 53280, Note_on_c, 0, 63, 48
1, 53280, Note_on_c, 1, 60, 48
1, 53400, Note_on_c, 0, 63, 0
1, 53400, Note_on_c, 0, 72, 48
1, 53436, Note_on_c, 0, 72, 0
1, 53520, Note_on_c, 0, 72, 48
1, 53520, Note_on_c, 1, 60, 0
1, 53556, Note_on_c, 0, 72, 0
1, 53640, Note_on_c, 0, 72, 72
1, 53640, Note_on_c, 1, 63, 72
1, 53676, Note_on_c, 0, 72, 0
1, 53760, Note_on_c, 0, 72, 48
1, 53760, Note_on_c, 1, 63, 0
1, 53760, Note_on_c, 1, 64, 48
1, 53796, Note_on_c, 0, 72, 0
1, 53880, Note_on_c, 0, 72, 48
1, 53880, Note_on_c, 1, 64, 0
1, 53880, Note_on_c, 1, 65, 48
1, 53916, Note_on_c, 0, 72, 0
1, 53916, Note_on_c, 1, 65, 0
1, 54000, Note_on_c, 0, 72, 48
1, 54000, Note_on_c, 1, 66, 48
1, 54036, Note_on_c, 0, 72, 0
1, 54036, Note_on_c, 1, 66, 0
1, 54120, Note_on_c, 0, 72, 48
1, 54120, Note_on_c, 1, 67, 48
1, 54156, Note_on_c, 0, 72, 0
1, 54156, Note_on_c, 1, 67, 0
1, 54240, Note_on_c, 0, 72, 48
1, 54240, Note_on_c, 1, 68, 48
1, 54276, Note_on_c, 0, 72, 0
1, 54360, Note_on_c, 0, 72, 48
1, 54396, Note_on_c, 0, 72, 0
1, 54480, Note_on_c, 0, 72, 48
1, 54516, Note_on_c, 0, 72, 0
1, 54600, Note_on_c, 0, 74, 72
1, 54600, Note_on_c, 0, 72, 72
1, 54600, Note_on_c, 1, 68, 0
1, 54600, Note_on_c, 1, 65, 72
1, 54636, Note_on_c, 0, 72, 0
1, 54636, Note_on_c, 0, 74, 0
1, 54720, Note_on_c, 0, 72, 48
1, 54720, Note_on_c, 0, 75, 48
1, 54720, Note_on_c, 1, 65, 0
1, 54720, Note_on_c, 1, 66, 48
1, 54756, Note_on_c, 0, 72, 0
1, 54840, Note_on_c, 0, 75, 0
1, 54840, Note_on_c, 0, 72, 48
1, 54840, Note_on_c, 0, 76, 48
1, 54840, Note_on_c, 1, 66, 0
1, 54840, Note_on_c, 1, 67, 48
1, 54876, Note_on_c, 0, 72, 0
1, 54960, Note_on_c, 0, 76, 0
1, 54960, Note_on_c, 0, 72, 48
1, 54960, Note_on_c, 0, 77, 48
1, 54960, Note_on_c, 1, 67, 0
1, 54960, Note_on_c, 1, 68, 48
1, 54996, Note_on_c, 0, 72, 0
1, 55080, Note_on_c, 0, 77, 0
1, 55080, Note_on_c, 0, 72, 48
1, 55080, Note_on_c, 0, 78, 48
1, 55080, Note_on_c, 1, 68, 0
1, 55080, Note_on_c, 1, 69, 48
1, 55116, Note_on_c, 0, 72, 0
1, 55200, Note_on_c, 0, 78, 0
1, 55200, Note_on_c, 0, 72, 48
1, 55200, Note_on_c, 0, 79, 48
1, 55200, Note_on_c, 1, 69, 0
1, 55200, Note_on_c, 1, 70, 48
1, 55236, Note_on_c, 0, 72, 0
1, 55320, Note_on_c, 0, 72, 48
1, 55356, Note_on_c, 0, 72, 0
1, 55440, Note_on_c, 0, 72, 48
1, 55476, Note_on_c, 0, 72, 0
1, 55560, Note_on_c, 0, 79, 0
1, 55560, Note_on_c, 0, 72, 72
1, 55560, Note_on_c, 0, 76, 72
1, 55560, Note_on_c, 1, 70, 0
1, 55560, Note_on_c, 1, 67, 72
1, 55596, Note_on_c, 0, 72, 0
1, 55680, Note_on_c, 0, 76, 0
1, 55680, Note_on_c, 0, 72, 48
1, 55680, Note_on_c, 0, 77, 48
1, 55680, Note_on_c, 1, 67, 0
1, 55680, Note_on_c, 1, 68, 48
1, 55716, Note_on_c, 0, 72, 0
1, 55800, Note_on_c, 0, 77, 0
1, 55800, Note_on_c, 0, 72, 48
1, 55800, Note_on_c, 0, 79, 48
1, 55800, Note_on_c, 1, 68, 0
1, 55800, Note_on_c, 1, 64, 48
1, 55836, Note_on_c, 0, 72, 0
1, 55920, Note_on_c, 0, 79, 0
1, 55920, Note_on_c, 0, 72, 48
1, 55920, Note_on_c, 0, 80, 48
1, 55920, Note_on_c, 1, 64, 0
1, 55920, Note_on_c, 1, 65, 48
1, 55956, Note_on_c, 0, 72, 0
1, 56040, Note_on_c, 0, 80, 0
1, 56040, Note_on_c, 0, 72, 48
1, 56040, Note_on_c, 0, 82, 48
1, 56040, Note_on_c, 1, 65, 0
1, 56040, Note_on_c, 1, 67, 48
1, 56076, Note_on_c, 0, 72, 0
1, 56160, Note_on_c, 0, 82, 0
1, 56160, Note_on_c, 0, 84, 48
1, 56160, Note_on_c, 0, 72, 48
1, 56160, Note_on_c, 1, 67, 0
1, 56160, Note_on_c, 1, 68, 48
1, 56196, Note_on_c, 0, 72, 0
1, 56280, Note_on_c, 0, 72, 48
1, 56316, Note_on_c, 0, 72, 0
1, 56400, Note_on_c, 0, 72, 48
1, 56436, Note_on_c, 0, 72, 0
1, 56520, Note_on_c, 0, 84, 0
1, 56520, Note_on_c, 0, 80, 48
1, 56520, Note_on_c, 0, 72, 48
1, 56520, Note_on_c, 1, 68, 0
1, 56520, Note_on_c, 1, 65, 48
1, 56556, Note_on_c, 0, 72, 0
1, 56640, Note_on_c, 0, 80, 0
1, 56640, Note_on_c, 0, 82, 48
1, 56640, Note_on_c, 0, 72, 48
1, 56640, Note_on_c, 1, 65, 0
1, 56640, Note_on_c, 1, 67, 48
1, 56676, Note_on_c, 0, 72, 0
1, 56760, Note_on_c, 0, 72, 48
1, 56796, Note_on_c, 0, 72, 0
1, 56880, Note_on_c, 0, 72, 48
1, 56916, Note_on_c, 0, 72, 0
1, 57000, Note_on_c, 0, 82, 0
1, 57000, Note_on_c, 0, 79, 48
1, 57000, Note_on_c, 0, 72, 48
1, 57000, Note_on_c, 1, 67, 0
1, 57000, Note_on_c, 1, 64, 48
1, 57036, Note_on_c, 0, 72, 0
1, 57120, Note_on_c, 0, 79, 0
1, 57120, Note_on_c, 0, 80, 48
1, 57120, Note_on_c, 0, 72, 48
1, 57120, Note_on_c, 1, 64, 0
1, 57120, Note_on_c, 1, 65, 48
1, 57156, Note_on_c, 0, 72, 0
1, 57240, Note_on_c, 0, 72, 48
1, 57360, Note_on_c, 0, 72, 0
1, 57360, Note_on_c, 0, 72, 48
1, 57480, Note_on_c, 0, 72, 0
1, 57480, Note_on_c, 0, 72, 48
1, 57600, Note_on_c, 0, 72, 0
1, 57600, Note_on_c, 0, 73, 48
1, 57720, Note_on_c, 0, 73, 0
1, 57720, Note_on_c, 0, 73, 48
1, 57840, Note_on_c, 0, 73, 0
1, 57840, Note_on_c, 0, 73, 48
1, 57960, Note_on_c, 0, 73, 0
1, 57960, Note_on_c, 0, 73, 48
1, 58080, Note_on_c, 0, 73, 0
1, 58080, Note_on_c, 0, 80, 0
1, 58080, Note_on_c, 0, 79, 48
1, 58080, Note_on_c, 0, 73, 48
1, 58080, Note_on_c, 1, 65, 0
1, 58080, Note_on_c, 1, 64, 48
1, 58116, Note_on_c, 0, 73, 0
1, 58200, Note_on_c, 0, 73, 48
1, 58320, Note_on_c, 0, 73, 0
1, 58320, Note_on_c, 0, 72, 48
1, 58320, Note_on_c, 1, 64, 0
1, 58320, Note_on_c, 1, 63, 48
1, 58356, Note_on_c, 0, 72, 0
1, 58440, Note_on_c, 0, 72, 48
1, 58560, Note_on_c, 0, 72, 0
1, 58560, Note_on_c, 0, 79, 0
1, 58560, Note_on_c, 0, 77, 48
1, 58560, Note_on_c, 0, 72, 48
1, 58560, Note_on_c, 1, 63, 0
1, 58560, Note_on_c, 1, 62, 48
1, 58596, Note_on_c, 0, 72, 0
1, 58680, Note_on_c, 0, 72, 48
1, 58800, Note_on_c, 0, 72, 0
1, 58800, Note_on_c, 0, 71, 48
1, 58800, Note_on_c, 1, 62, 0
1, 58800, Note_on_c, 1, 61, 48
1, 58920, Note_on_c, 0, 71, 0
1, 58920, Note_on_c, 0, 71, 48
1, 59040, Note_on_c, 0, 71, 0
1, 59040, Note_on_c, 0, 77, 0
1, 59040, Note_on_c, 0, 72, 80
1, 59040, Note_on_c, 0, 76, 80
1, 59040, Note_on_c, 1, 61, 0
1, 59040, Note_on_c, 1, 60, 72
1, 59100, Note_on_c, 1, 60, 0
1, 59100, Note_on_c, 1, 59, 72
1, 59160, Note_on_c, 1, 59, 0
1, 59160, Note_on_c, 1, 60, 72
1, 59220, Note_on_c, 1, 60, 0
1, 59220, Note_on_c, 1, 59, 72
1, 59280, Note_on_c, 0, 76, 0
1, 59280, Note_on_c, 0, 72, 0
1, 59280, Note_on_c, 1, 59, 0
1, 59280, Note_on_c, 1, 60, 72
1, 59340, Note_on_c, 1, 60, 0
1, 59340, Note_on_c, 1, 59, 72
1, 59400, Note_on_c, 0, 84, 80
1, 59400, Note_on_c, 0, 80, 80
1, 59400, Note_on_c, 1, 59, 0
1, 59400, Note_on_c, 1, 60, 72
1, 59436, Note_on_c, 0, 80, 0
1, 59436, Note_on_c, 0, 84, 0
1, 59460, Note_on_c, 1, 60, 0
1, 59460, Note_on_c, 1, 59, 72
1, 59520, Note_on_c, 0, 79, 80
1, 59520, Note_on_c, 0, 82, 80
1, 59520, Note_on_c, 1, 59, 0
1, 59520, Note_on_c, 1, 60, 72
1, 59556, Note_on_c, 0, 82, 0
1, 59556, Note_on_c, 0, 79, 0
1, 59580, Note_on_c, 1, 60, 0
1, 59580, Note_on_c, 1, 59, 72
1, 59640, Note_on_c, 0, 80, 80
1, 59640, Note_on_c, 0, 84, 80
1, 59640, Note_on_c, 1, 59, 0
1, 59640, Note_on_c, 1, 60, 72
1, 59676, Note_on_c, 0, 84, 0
1, 59676, Note_on_c, 0, 80, 0
1, 59700, Note_on_c, 1, 60, 0
1, 59700, Note_on_c, 1, 59, 72
1, 59760, Note_on_c, 0, 79, 80
1, 59760, Note_on_c, 0, 82, 80
1, 59760, Note_on_c, 1, 59, 0
1, 59760, Note_on_c, 1, 60, 72
1, 59796, Note_on_c, 0, 82, 0
1, 59796, Note_on_c, 0, 79, 0
1, 59820, Note_on_c, 1, 60, 0
1, 59820, Note_on_c, 1, 59, 72
1, 59880, Note_on_c, 0, 77, 80
1, 59880, Note_on_c, 0, 80, 80
1, 59880, Note_on_c, 1, 59, 0
1, 59880, Note_on_c, 1, 60, 72
1, 59916, Note_on_c, 0, 80, 0
1, 59916, Note_on_c, 0, 77, 0
1, 59940, Note_on_c, 1, 60, 0
1, 59940, Note_on_c, 1, 59, 72
1, 60000, Note_on_c, 0, 79, 80
1, 60000, Note_on_c, 0, 76, 80
1, 60000, Note_on_c, 1, 59, 0
1, 60000, Note_on_c, 1, 60, 64
1, 60060, Note_on_c, 1, 60, 0
1, 60060, Note_on_c, 1, 59, 63
1, 60120, Note_on_c, 0, 76, 0
1, 60120, Note_on_c, 0, 79, 0
1, 60120, Note_on_c, 1, 59, 0
1, 60120, Note_on_c, 1, 60, 62
1, 60180, Note_on_c, 1, 60, 0
1, 60180, Note_on_c, 1, 59, 61
1, 60240, Note_on_c, 1, 59, 0
1, 60240, Note_on_c, 1, 60, 60
1, 60300, Note_on_c, 1, 60, 0
1, 60300, Note_on_c, 1, 59, 59
1, 60360, Note_on_c, 0, 44, 56
1, 60360, Note_on_c, 0, 48, 56
1, 60360, Note_on_c, 1, 59, 0
1, 60360, Note_on_c, 1, 60, 58
1, 60420, Note_on_c, 1, 60, 0
1, 60420, Note_on_c, 1, 59, 57
1, 60480, Note_on_c, 0, 48, 0
1, 60480, Note_on_c, 0, 44, 0
1, 60480, Note_on_c, 0, 43, 56
1, 60480, Note_on_c, 0, 46, 56
1, 60480, Note_on_c, 1, 59, 0
1, 60480, Note_on_c, 1, 60, 56
1, 60516, Note_on_c, 0, 46, 0
1, 60516, Note_on_c, 0, 43, 0
1, 60540, Note_on_c, 1, 60, 0
1, 60540, Note_on_c, 1, 59, 55
1, 60600, Note_on_c, 0, 41, 56
1, 60600, Note_on_c, 0, 44, 56
1, 60600, Note_on_c, 1, 59, 0
1, 60600, Note_on_c, 1, 60, 54
1, 60636, Note_on_c, 0, 44, 0
1, 60636, Note_on_c, 0, 41, 0
1, 60660, Note_on_c, 1, 60, 0
1, 60660, Note_on_c, 1, 59, 53
1, 60720, Note_on_c, 0, 40, 56
1, 60720, Note_on_c, 0, 43, 56
1, 60720, Note_on_c, 1, 59, 0
1, 60720, Note_on_c, 1, 60, 52
1, 60756, Note_on_c, 0, 43, 0
1, 60756, Note_on_c, 0, 40, 0
1, 60780, Note_on_c, 1, 60, 0
1, 60780, Note_on_c, 1, 59, 51
1, 60840, Note_on_c, 0, 38, 56
1, 60840, Note_on_c, 0, 41, 56
1, 60840, Note_on_c, 1, 59, 0
1, 60840, Note_on_c, 1, 60, 50
1, 60876, Note_on_c, 0, 41, 0
1, 60876, Note_on_c, 0, 38, 0
1, 60900, Note_on_c, 1, 60, 0
1, 60900, Note_on_c, 1, 59, 49
1, 60960, Note_on_c, 0, 36, 56
1, 60960, Note_on_c, 0, 40, 56
1, 60960, Note_on_c, 1, 59, 0
1, 60960, Note_on_c, 1, 60, 56
1, 61080, Note_on_c, 0, 40, 0
1, 61080, Note_on_c, 0, 36, 0
1, 61080, Note_on_c, 1, 60, 0
1, 61320, Note_on_c, 0, 84, 48
1, 61356, Note_on_c, 0, 84, 0
1, 61440, Note_on_c, 0, 84, 48
1, 61476, Note_on_c, 0, 84, 0
1, 61560, Note_on_c, 0, 84, 48
1, 61596, Note_on_c, 0, 84, 0
1, 61680, Note_on_c, 0, 84, 48
1, 61716, Note_on_c, 0, 84, 0
1, 61800, Note_on_c, 0, 84, 48
1, 61824, Note_on_c, 0, 84, 0
1, 61880, Note_on_c, 0, 85, 48
1, 61920, Note_on_c, 0, 85, 0
1, 61920, Note_on_c, 0, 84, 48
1, 61920, Note_on_c, 1, 56, 40
1, 61920, Note_on_c, 1, 60, 40
1, 61980, Note_on_c, 0, 84, 0
1, 61980, Note_on_c, 0, 82, 48
1, 62040, Note_on_c, 0, 82, 0
1, 62040, Note_on_c, 0, 84, 48
1, 62040, Note_on_c, 1, 60, 0
1, 62040, Note_on_c, 1, 63, 40
1, 62100, Note_on_c, 0, 84, 0
1, 62100, Note_on_c, 0, 85, 48
1, 62160, Note_on_c, 0, 85, 0
1, 62160, Note_on_c, 0, 87, 48
1, 62160, Note_on_c, 1, 63, 0
1, 62160, Note_on_c, 1, 56, 0
1, 62160, Note_on_c, 1, 56, 40
1, 62160, Note_on_c, 1, 60, 40
1, 62280, Note_on_c, 0, 87, 0
1, 62280, Note_on_c, 0, 80, 48
1, 62280, Note_on_c, 1, 60, 0
1, 62280, Note_on_c, 1, 63, 40
1, 62400, Note_on_c, 0, 80, 0
1, 62400, Note_on_c, 0, 79, 48
1, 62400, Note_on_c, 1, 63, 0
1, 62400, Note_on_c, 1, 56, 0
1, 62400, Note_on_c, 1, 56, 40
1, 62400, Note_on_c, 1, 61, 40
1, 62400, Note_on_c, 1, 58, 40
1, 62520, Note_on_c, 0, 79, 0
1, 62520, Note_on_c, 0, 82, 48
1, 62520, Note_on_c, 1, 58, 0
1, 62520, Note_on_c, 1, 61, 0
1, 62520, Note_on_c, 1, 63, 40
1, 62556, Note_on_c, 0, 82, 0
1, 62640, Note_on_c, 0, 85, 48
1, 62640, Note_on_c, 1, 63, 0
1, 62640, Note_on_c, 1, 56, 0
1, 62640, Note_on_c, 1, 56, 40
1, 62640, Note_on_c, 1, 61, 40
1, 62640, Note_on_c, 1, 58, 40
1, 62676, Note_on_c, 0, 85, 0
1, 62760, Note_on_c, 0, 79, 48
1, 62760, Note_on_c, 1, 58, 0
1, 62760, Note_on_c, 1, 61, 0
1, 62760, Note_on_c, 1, 63, 40
1, 62796, Note_on_c, 0, 79, 0
1, 62880, Note_on_c, 0, 80, 48
1, 62880, Note_on_c, 1, 63, 0
1, 62880, Note_on_c, 1, 56, 0
1, 62880, Note_on_c, 1, 56, 40
1, 62880, Note_on_c, 1, 60, 40
1, 63000, Note_on_c, 0, 80, 0
1, 63000, Note_on_c, 0, 84, 48
1, 63000, Note_on_c, 1, 60, 0
1, 63000, Note_on_c, 1, 63, 40
1, 63120, Note_on_c, 0, 84, 0
1, 63120, Note_on_c, 0, 75, 48
1, 63120, Note_on_c, 1, 63, 0
1, 63120, Note_on_c, 1, 56, 0
1, 63120, Note_on_c, 1, 56, 40
1, 63120, Note_on_c, 1, 60, 40
1, 63240, Note_on_c, 0, 75, 0
1, 63240, Note_on_c, 0, 75, 48
1, 63240, Note_on_c, 1, 60, 0
1, 63240, Note_on_c, 1, 63, 40
1, 63360, Note_on_c, 0, 75, 0
1, 63360, Note_on_c, 0, 73, 48
1, 63360, Note_on_c, 1, 63, 0
1, 63360, Note_on_c, 1, 56, 0
1, 63360, Note_on_c, 1, 56, 40
1, 63360, Note_on_c, 1, 61, 40
1, 63360, Note_on_c, 1, 58, 40
1, 63480, Note_on_c, 0, 73, 0
1, 63480, Note_on_c, 0, 79, 48
1, 63480, Note_on_c, 1, 58, 0
1, 63480, Note_on_c, 1, 61, 0
1, 63480, Note_on_c, 1, 63, 40
1, 63516, Note_on_c, 0, 79, 0
1, 63600, Note_on_c, 0, 82, 48
1, 63600, Note_on_c, 1, 63, 0
1, 63600, Note_on_c, 1, 56, 0
1, 63600, Note_on_c, 1, 56, 40
1, 63600, Note_on_c, 1, 61, 40
1, 63600, Note_on_c, 1, 58, 40
1, 63636, Note_on_c, 0, 82, 0
1, 63720, Note_on_c, 0, 79, 48
1, 63720, Note_on_c, 1, 58, 0
1, 63720, Note_on_c, 1, 61, 0
1, 63720, Note_on_c, 1, 63, 40
1, 63756, Note_on_c, 0, 79, 0
1, 63840, Note_on_c, 0, 80, 48
1, 63840, Note_on_c, 1, 63, 0
1, 63840, Note_on_c, 1, 56, 0
1, 63840, Note_on_c, 1, 60, 40
1, 63840, Note_on_c, 1, 56, 40
1, 63900, Note_on_c, 0, 80, 0
1, 63900, Note_on_c, 0, 82, 48
1, 63912, Note_on_c, 1, 56, 0
1, 63912, Note_on_c, 1, 60, 0
1, 63960, Note_on_c, 0, 82, 0
1, 63960, Note_on_c, 0, 84, 48
1, 64020, Note_on_c, 0, 84, 0
1, 64020, Note_on_c, 0, 82, 48
1, 64080, Note_on_c, 0, 82, 0
1, 64080, Note_on_c, 0, 80, 48
1, 64140, Note_on_c, 0, 80, 0
1, 64140, Note_on_c, 0, 79, 48
1, 64200, Note_on_c, 0, 79, 0
1, 64200, Note_on_c, 0, 77, 48
1, 64260, Note_on_c, 0, 77, 0
1, 64260, Note_on_c, 0, 75, 48
1, 64320, Note_on_c, 0, 75, 0
1, 64320, Note_on_c, 0, 73, 48
1, 64320, Note_on_c, 1, 61, 40
1, 64320, Note_on_c, 1, 58, 40
1, 64320, Note_on_c, 1, 55, 40
1, 64320, Note_on_c, 1, 51, 40
1, 64380, Note_on_c, 0, 73, 0
1, 64380, Note_on_c, 0, 72, 48
1, 64392, Note_on_c, 1, 51, 0
1, 64392, Note_on_c, 1, 61, 0
1, 64392, Note_on_c, 1, 58, 0
1, 64392, Note_on_c, 1, 55, 0
1, 64440, Note_on_c, 0, 72, 0
1, 64440, Note_on_c, 0, 70, 48
1, 64500, Note_on_c, 0, 70, 0
1, 64500, Note_on_c, 0, 68, 48
1, 64560, Note_on_c, 0, 68, 0
1, 64560, Note_on_c, 0, 67, 48
1, 64620, Note_on_c, 0, 67, 0
1, 64620, Note_on_c, 0, 65, 48
1, 64680, Note_on_c, 0, 65, 0
1, 64680, Note_on_c, 0, 63, 48
1, 64740, Note_on_c, 0, 63, 0
1, 64740, Note_on_c, 0, 61, 48
1, 64800, Note_on_c, 0, 61, 0
1, 64800, Note_on_c, 0, 60, 48
1, 64800, Note_on_c, 1, 56, 40
1, 64800, Note_on_c, 1, 44, 40
1, 64860, Note_on_c, 0, 60, 0
1, 64860, Note_on_c, 0, 61, 48
1, 64920, Note_on_c, 0, 61, 0
1, 64920, Note_on_c, 0, 63, 48
1, 64920, Note_on_c, 1, 44, 0
1, 64920, Note_on_c, 1, 56, 0
1, 64980, Note_on_c, 0, 63, 0
1, 64980, Note_on_c, 0, 61, 48
1, 65040, Note_on_c, 0, 61, 0
1, 65040, Note_on_c, 0, 60, 48
1, 65100, Note_on_c, 0, 60, 0
1, 65100, Note_on_c, 0, 72, 48
1, 65160, Note_on_c, 0, 72, 0
1, 65160, Note_on_c, 0, 70, 48
1, 65160, Note_on_c, 1, 60, 40
1, 65160, Note_on_c, 1, 56, 40
1, 65196, Note_on_c, 1, 56, 0
1, 65196, Note_on_c, 1, 60, 0
1, 65220, Note_on_c, 0, 70, 0
1, 65220, Note_on_c, 0, 68, 48
1, 65280, Note_on_c, 0, 68, 0
1, 65280, Note_on_c, 0, 67, 48
1, 65280, Note_on_c, 1, 61, 40
1, 65280, Note_on_c, 1, 58, 40
1, 65340, Note_on_c, 0, 67, 0
1, 65340, Note_on_c, 0, 68, 48
1, 65352, Note_on_c, 1, 58, 0
1, 65352, Note_on_c, 1, 61, 0
1, 65400, Note_on_c, 0, 68, 0
1, 65400, Note_on_c, 0, 70, 48
1, 65460, Note_on_c, 0, 70, 0
1, 65460, Note_on_c, 0, 68, 48
1, 65520, Note_on_c, 0, 68, 0
1, 65520, Note_on_c, 0, 67, 48
1, 65580, Note_on_c, 0, 67, 0
1, 65580, Note_on_c, 0, 77, 48
1, 65640, Note_on_c, 0, 77, 0
1, 65640, Note_on_c, 0, 75, 48
1, 65640, Note_on_c, 1, 58, 40
1, 65640, Note_on_c, 1, 55, 40
1, 65676, Note_on_c, 1, 55, 0
1, 65676, Note_on_c, 1, 58, 0
1, 65700, Note_on_c, 0, 75, 0
1, 65700, Note_on_c, 0, 73, 48
1, 65760, Note_on_c, 0, 73, 0
1, 65760, Note_on_c, 0, 72, 48
1, 65760, Note_on_c, 1, 60, 40
1, 65760, Note_on_c, 1, 56, 40
1, 65820, Note_on_c, 0, 72, 0
1, 65820, Note_on_c, 0, 73, 48
1, 65832, Note_on_c, 1, 56, 0
1, 65832, Note_on_c, 1, 60, 0
1, 65880, Note_on_c, 0, 73, 0
1, 65880, Note_on_c, 0, 75, 48
1, 65940, Note_on_c, 0, 75, 0
1, 65940, Note_on_c, 0, 73, 48
1, 66000, Note_on_c, 0, 73, 0
1, 66000, Note_on_c, 0, 72, 48
1, 66060, Note_on_c, 0, 72, 0
1, 66060, Note_on_c, 0, 84, 48
1, 66120, Note_on_c, 0, 84, 0
1, 66120, Note_on_c, 0, 82, 48
1, 66120, Note_on_c, 1, 60, 40
1, 66120, Note_on_c, 1, 56, 40
1, 66156, Note_on_c, 1, 56, 0
1, 66156, Note_on_c, 1, 60, 0
1, 66180, Note_on_c, 0, 82, 0
1, 66180, Note_on_c, 0, 80, 48
1, 66240, Note_on_c, 0, 80, 0
1, 66240, Note_on_c, 0, 79, 48
1, 66240, Note_on_c, 1, 61, 40
1, 66240, Note_on_c, 1, 58, 40
1, 66300, Note_on_c, 0, 79, 0
1, 66300, Note_on_c, 0, 80, 48
1, 66312, Note_on_c, 1, 58, 0
1, 66312, Note_on_c, 1, 61, 0
1, 66360, Note_on_c, 0, 80, 0
1, 66360, Note_on_c, 0, 82, 48
1, 66420, Note_on_c, 0, 82, 0
1, 66420, Note_on_c, 0, 80, 48
1, 66480, Note_on_c, 0, 80, 0
1, 66480, Note_on_c, 0, 79, 48
1, 66540, Note_on_c, 0, 79, 0
1, 66540, Note_on_c, 0, 89, 48
1, 66600, Note_on_c, 0, 89, 0
1, 66600, Note_on_c, 0, 87, 48
1, 66600, Note_on_c, 1, 58, 40
1, 66600, Note_on_c, 1, 55, 40
1, 66636, Note_on_c, 1, 55, 0
1, 66636, Note_on_c, 1, 58, 0
1, 66660, Note_on_c, 0, 87, 0
1, 66660, Note_on_c, 0, 85, 48
1, 66720, Note_on_c, 0, 85, 0
1, 66720, Note_on_c, 0, 84, 48
1, 66720, Note_on_c, 1, 60, 40
1, 66720, Note_on_c, 1, 56, 40
1, 66780, Note_on_c, 0, 84, 0
1, 66780, Note_on_c, 0, 85, 48
1, 66792, Note_on_c, 1, 56, 0
1, 66792, Note_on_c, 1, 60, 0
1, 66840, Note_on_c, 0, 85, 0
1, 66840, Note_on_c, 0, 87, 48
1, 66900, Note_on_c, 0, 87, 0
1, 66900, Note_on_c, 0, 85, 48
1, 66960, Note_on_c, 0, 85, 0
1, 66960, Note_on_c, 0, 84, 48
1, 67020, Note_on_c, 0, 84, 0
1, 67020, Note_on_c, 0, 82, 48
1, 67080, Note_on_c, 0, 82, 0
1, 67080, Note_on_c, 0, 80, 48
1, 67080, Note_on_c, 1, 61, 40
1, 67080, Note_on_c, 1, 58, 40
1, 67116, Note_on_c, 1, 58, 0
1, 67116, Note_on_c, 1, 61, 0
1, 67140, Note_on_c, 0, 80, 0
1, 67140, Note_on_c, 0, 79, 48
1, 67200, Note_on_c, 0, 79, 0
1, 67200, Note_on_c, 0, 80, 48
1, 67200, Note_on_c, 1, 63, 40
1, 67200, Note_on_c, 1, 60, 40
1, 67260, Note_on_c, 0, 80, 0
1, 67260, Note_on_c, 0, 82, 48
1, 67272, Note_on_c, 1, 60, 0
1, 67272, Note_on_c, 1, 63, 0
1, 67320, Note_on_c, 0, 82, 0
1, 67320, Note_on_c, 0, 84, 48
1, 67380, Note_on_c, 0, 84, 0
1, 67380, Note_on_c, 0, 82, 48
1, 67440, Note_on_c, 0, 82, 0
1, 67440, Note_on_c, 0, 80, 48
1, 67500, Note_on_c, 0, 80, 0
1, 67500, Note_on_c, 0, 79, 48
1, 67560, Note_on_c, 0, 79, 0
1, 67560, Note_on_c, 0, 77, 48
1, 67560, Note_on_c, 1, 59, 40
1, 67560, Note_on_c, 1, 68, 40
1, 67596, Note_on_c, 1, 68, 0
1, 67596, Note_on_c, 1, 59, 0
1, 67620, Note_on_c, 0, 77, 0
1, 67620, Note_on_c, 0, 75, 48
1, 67680, Note_on_c, 0, 75, 0
1, 67680, Note_on_c, 0, 74, 48
1, 67680, Note_on_c, 1, 58, 40
1, 67680, Note_on_c, 1, 68, 40
1, 67740, Note_on_c, 0, 74, 0
1, 67740, Note_on_c, 0, 75, 48
1, 67800, Note_on_c, 0, 75, 0
1, 67800, Note_on_c, 0, 77, 48
1, 67860, Note_on_c, 0, 77, 0
1, 67860, Note_on_c, 0, 75, 48
1, 67920, Note_on_c, 0, 75, 0
1, 67920, Note_on_c, 0, 74, 48
1, 67980, Note_on_c, 0, 74, 0
1, 67980, Note_on_c, 0, 80, 48
1, 68040, Note_on_c, 0, 80, 0
1, 68040, Note_on_c, 0, 77, 48
1, 68040, Note_on_c, 1, 68, 0
1, 68040, Note_on_c, 1, 58, 0
1, 68040, Note_on_c, 1, 59, 40
1, 68040, Note_on_c, 1, 68, 40
1, 68100, Note_on_c, 0, 77, 0
1, 68100, Note_on_c, 0, 75, 48
1, 68160, Note_on_c, 0, 75, 0
1, 68160, Note_on_c, 0, 74, 48
1, 68160, Note_on_c, 1, 68, 0
1, 68160, Note_on_c, 1, 59, 0
1, 68160, Note_on_c, 1, 68, 40
1, 68160, Note_on_c, 1, 58, 40
1, 68220, Note_on_c, 0, 74, 0
1, 68220, Note_on_c, 0, 75, 48
1, 68280, Note_on_c, 0, 75, 0
1, 68280, Note_on_c, 0, 77, 48
1, 68340, Note_on_c, 0, 77, 0
1, 68340, Note_on_c, 0, 75, 48
1, 68400, Note_on_c, 0, 75, 0
1, 68400, Note_on_c, 0, 74, 48
1, 68460, Note_on_c, 0, 74, 0
1, 68460, Note_on_c, 0, 80, 48
1, 68520, Note_on_c, 0, 80, 0
1, 68520, Note_on_c, 0, 77, 48
1, 68520, Note_on_c, 1, 58, 0
1, 68520, Note_on_c, 1, 68, 0
1, 68520, Note_on_c, 1, 68, 40
1, 68520, Note_on_c, 1, 59, 40
1, 68580, Note_on_c, 0, 77, 0
1, 68580, Note_on_c, 0, 75, 48
1, 68640, Note_on_c, 0, 75, 0
1, 68640, Note_on_c, 0, 74, 48
1, 68640, Note_on_c, 1, 59, 0
1, 68640, Note_on_c, 1, 68, 0
1, 68640, Note_on_c, 1, 58, 40
1, 68640, Note_on_c, 1, 68, 40
1, 68700, Note_on_c, 0, 74, 0
1, 68700, Note_on_c, 0, 77, 48
1, 68760, Note_on_c, 0, 77, 0
1, 68760, Note_on_c, 0, 75, 48
1, 68820, Note_on_c, 0, 75, 0
1, 68820, Note_on_c, 0, 79, 48
1, 68880, Note_on_c, 0, 79, 0
1, 68880, Note_on_c, 0, 77, 48
1, 68940, Note_on_c, 0, 77, 0
1, 68940, Note_on_c, 0, 80, 48
1, 69000, Note_on_c, 0, 80, 0
1, 69000, Note_on_c, 0, 79, 48
1, 69060, Note_on_c, 0, 79, 0
1, 69060, Note_on_c, 0, 82, 48
1, 69120, Note_on_c, 0, 82, 0
1, 69120, Note_on_c, 0, 80, 48
1, 69120, Note_on_c, 1, 68, 0
1, 69120, Note_on_c, 1, 58, 0
1, 69120, Note_on_c, 1, 58, 40
1, 69120, Note_on_c, 1, 62, 40
1, 69180, Note_on_c, 0, 80, 0
1, 69180, Note_on_c, 0, 79, 48
1, 69240, Note_on_c, 0, 79, 0
1, 69240, Note_on_c, 0, 77, 48
1, 69300, Note_on_c, 0, 77, 0
1, 69300, Note_on_c, 0, 75, 48
1, 69360, Note_on_c, 0, 75, 0
1, 69360, Note_on_c, 0, 74, 48
1, 69420, Note_on_c, 0, 74, 0
1, 69420, Note_on_c, 0, 72, 48
1, 69480, Note_on_c, 0, 72, 0
1, 69480, Note_on_c, 0, 70, 48
1, 69540, Note_on_c, 0, 70, 0
1, 69540, Note_on_c, 0, 68, 48
1, 69600, Note_on_c, 0, 68, 0
1, 69600, Note_on_c, 0, 67, 48
1, 69600, Note_on_c, 1, 62, 0
1, 69600, Note_on_c, 1, 58, 0
1, 69600, Note_on_c, 1, 63, 40
1, 69600, Note_on_c, 1, 58, 40
1, 69600, Note_on_c, 1, 55, 40
1, 69600, Note_on_c, 1, 51, 40
1, 69660, Note_on_c, 0, 67, 0
1, 69660, Note_on_c, 0, 70, 48
1, 69672, Note_on_c, 1, 51, 0
1, 69672, Note_on_c, 1, 63, 0
1, 69672, Note_on_c, 1, 58, 0
1, 69672, Note_on_c, 1, 55, 0
1, 69720, Note_on_c, 0, 70, 0
1, 69720, Note_on_c, 0, 72, 48
1, 69780, Note_on_c, 0, 72, 0
1, 69780, Note_on_c, 0, 70, 48
1, 69840, Note_on_c, 0, 70, 0
1, 69840, Note_on_c, 0, 68, 48
1, 69900, Note_on_c, 0, 68, 0
1, 69900, Note_on_c, 0, 67, 48
1, 69960, Note_on_c, 0, 67, 0
1, 69960, Note_on_c, 0, 65, 48
1, 70020, Note_on_c, 0, 65, 0
1, 70020, Note_on_c, 0, 63, 48
1, 70080, Note_on_c, 0, 63, 0
1, 70080, Note_on_c, 0, 62, 48
1, 70080, Note_on_c, 1, 46, 40
1, 70080, Note_on_c, 1, 56, 40
1, 70140, Note_on_c, 0, 62, 0
1, 70140, Note_on_c, 0, 63, 48
1, 70152, Note_on_c, 1, 56, 0
1, 70152, Note_on_c, 1, 46, 0
1, 70200, Note_on_c, 0, 63, 0
1, 70200, Note_on_c, 0, 65, 48
1, 70260, Note_on_c, 0, 65, 0
1, 70260, Note_on_c, 0, 63, 48
1, 70320, Note_on_c, 0, 63, 0
1, 70320, Note_on_c, 0, 62, 48
1, 70380, Note_on_c, 0, 62, 0
1, 70380, Note_on_c, 0, 60, 48
1, 70440, Note_on_c, 0, 60, 0
1, 70440, Note_on_c, 0, 58, 48
1, 70500, Note_on_c, 0, 58, 0
1, 70500, Note_on_c, 0, 56, 48
1, 70560, Note_on_c, 0, 56, 0
1, 70560, Note_on_c, 0, 55, 48
1, 70560, Note_on_c, 1, 39, 40
1, 70560, Note_on_c, 1, 51, 40
1, 70620, Note_on_c, 0, 55, 0
1, 70620, Note_on_c, 0, 56, 48
1, 70680, Note_on_c, 0, 56, 0
1, 70680, Note_on_c, 0, 58, 48
1, 70704, Note_on_c, 1, 51, 0
1, 70704, Note_on_c, 1, 39, 0
1, 70740, Note_on_c, 0, 58, 0
1, 70740, Note_on_c, 0, 56, 48
1, 70800, Note_on_c, 0, 56, 0
1, 70800, Note_on_c, 0, 55, 48
1, 70860, Note_on_c, 0, 55, 0
1, 70860, Note_on_c, 0, 67, 48
1, 70920, Note_on_c, 0, 67, 0
1, 70920, Note_on_c, 0, 65, 48
1, 70920, Note_on_c, 1, 51, 40
1, 70920, Note_on_c, 1, 55, 40
1, 70956, Note_on_c, 1, 55, 0
1, 70956, Note_on_c, 1, 51, 0
1, 70980, Note_on_c, 0, 65, 0
1, 70980, Note_on_c, 0, 63, 48
1, 71040, Note_on_c, 0, 63, 0
1, 71040, Note_on_c, 0, 62, 48
1, 71040, Note_on_c, 1, 56, 40
1, 71040, Note_on_c, 1, 53, 40
1, 71100, Note_on_c, 0, 62, 0
1, 71100, Note_on_c, 0, 63, 48
1, 71112, Note_on_c, 1, 53, 0
1, 71112, Note_on_c, 1, 56, 0
1, 71160, Note_on_c, 0, 63, 0
1, 71160, Note_on_c, 0, 65, 48
1, 71220, Note_on_c, 0, 65, 0
1, 71220, Note_on_c, 0, 63, 48
1, 71280, Note_on_c, 0, 63, 0
1, 71280, Note_on_c, 0, 62, 48
1, 71340, Note_on_c, 0, 62, 0
1, 71340, Note_on_c, 0, 72, 48
1, 71400, Note_on_c, 0, 72, 0
1, 71400, Note_on_c, 0, 70, 48
1, 71400, Note_on_c, 1, 53, 40
1, 71400, Note_on_c, 1, 50, 40
1, 71436, Note_on_c, 1, 50, 0
1, 71436, Note_on_c, 1, 53, 0
1, 71460, Note_on_c, 0, 70, 0
1, 71460, Note_on_c, 0, 68, 48
1, 71520, Note_on_c, 0, 68, 0
1, 71520, Note_on_c, 0, 67, 48
1, 71520, Note_on_c, 1, 51, 40
1, 71520, Note_on_c, 1, 55, 40
1, 71580, Note_on_c, 0, 67, 0
1, 71580, Note_on_c, 0, 68, 48
1, 71592, Note_on_c, 1, 55, 0
1, 71592, Note_on_c, 1, 51, 0
1, 71640, Note_on_c, 0, 68, 0
1, 71640, Note_on_c, 0, 70, 48
1, 71700, Note_on_c, 0, 70, 0
1, 71700, Note_on_c, 0, 68, 48
1, 71760, Note_on_c, 0, 68, 0
1, 71760, Note_on_c, 0, 67, 48
1, 71820, Note_on_c, 0, 67, 0
1, 71820, Note_on_c, 0, 79, 48
1, 71880, Note_on_c, 0, 79, 0
1, 71880, Note_on_c, 0, 77, 48
1, 71880, Note_on_c, 1, 67, 40
1, 71880, Note_on_c, 1, 63, 40
1, 71916, Note_on_c, 1, 63, 0
1, 71916, Note_on_c, 1, 67, 0
1, 71940, Note_on_c, 0, 77, 0
1, 71940, Note_on_c, 0, 75, 48
1, 72000, Note_on_c, 0, 75, 0
1, 72000, Note_on_c, 0, 74, 48
1, 72000, Note_on_c, 1, 65, 40
1, 72000, Note_on_c, 1, 68, 40
1, 72060, Note_on_c, 0, 74, 0
1, 72060, Note_on_c, 0, 75, 48
1, 72072, Note_on_c, 1, 68, 0
1, 72072, Note_on_c, 1, 65, 0
1, 72120, Note_on_c, 0, 75, 0
1, 72120, Note_on_c, 0, 77, 48
1, 72180, Note_on_c, 0, 77, 0
1, 72180, Note_on_c, 0, 75, 48
1, 72240, Note_on_c, 0, 75, 0
1, 72240, Note_on_c, 0, 74, 48
1, 72300, Note_on_c, 0, 74, 0
1, 72300, Note_on_c, 0, 84, 48
1, 72360, Note_on_c, 0, 84, 0
1, 72360, Note_on_c, 0, 80, 48
1, 72420, Note_on_c, 0, 80, 0
1, 72420, Note_on_c, 0, 77, 48
1, 72480, Note_on_c, 0, 77, 0
1, 72480, Note_on_c, 0, 79, 48
1, 72540, Note_on_c, 0, 79, 0
1, 72540, Note_on_c, 0, 75, 48
1, 72600, Note_on_c, 0, 75, 0
1, 72600, Note_on_c, 0, 74, 48
1, 72660, Note_on_c, 0, 74, 0
1, 72660, Note_on_c, 0, 75, 48
1, 72720, Note_on_c, 0, 75, 0
1, 72720, Note_on_c, 0, 79, 48
1, 72780, Note_on_c, 0, 79, 0
1, 72780, Note_on_c, 0, 75, 48
1, 72840, Note_on_c, 0, 75, 0
1, 72840, Note_on_c, 0, 74, 48
1, 72900, Note_on_c, 0, 74, 0
1, 72900, Note_on_c, 0, 75, 48
1, 72960, Note_on_c, 0, 75, 0
1, 72960, Note_on_c, 0, 80, 48
1, 73020, Note_on_c, 0, 80, 0
1, 73020, Note_on_c, 0, 75, 48
1, 73080, Note_on_c, 0, 75, 0
1, 73080, Note_on_c, 0, 72, 48
1, 73140, Note_on_c, 0, 72, 0
1, 73140, Note_on_c, 0, 75, 48
1, 73200, Note_on_c, 0, 75, 0
1, 73200, Note_on_c, 0, 80, 48
1, 73260, Note_on_c, 0, 80, 0
1, 73260, Note_on_c, 0, 75, 48
1, 73320, Note_on_c, 0, 75, 0
1, 73320, Note_on_c, 0, 72, 48
1, 73380, Note_on_c, 0, 72, 0
1, 73380, Note_on_c, 0, 75, 48
1, 73440, Note_on_c, 0, 75, 0
1, 73440, Note_on_c, 0, 82, 48
1, 73500, Note_on_c, 0, 82, 0
1, 73500, Note_on_c, 0, 75, 48
1, 73560, Note_on_c, 0, 75, 0
1, 73560, Note_on_c, 0, 67, 48
1, 73620, Note_on_c, 0, 67, 0
1, 73620, Note_on_c, 0, 75, 48
1, 73680, Note_on_c, 0, 75, 0
1, 73680, Note_on_c, 0, 82, 48
1, 73740, Note_on_c, 0, 82, 0
1, 73740, Note_on_c, 0, 75, 48
1, 73800, Note_on_c, 0, 75, 0
1, 73800, Note_on_c, 0, 67, 48
1, 73860, Note_on_c, 0, 67, 0
1, 73860, Note_on_c, 0, 75, 48
1, 73920, Note_on_c, 0, 75, 0
1, 73920, Note_on_c, 0, 84, 48
1, 73980, Note_on_c, 0, 84, 0
1, 73980, Note_on_c, 0, 75, 48
1, 74040, Note_on_c, 0, 75, 0
1, 74040, Note_on_c, 0, 68, 48
1, 74100, Note_on_c, 0, 68, 0
1, 74100, Note_on_c, 0, 75, 48
1, 74160, Note_on_c, 0, 75, 0
1, 74160, Note_on_c, 0, 82, 48
1, 74220, Note_on_c, 0, 82, 0
1, 74220, Note_on_c, 0, 75, 48
1, 74280, Note_on_c, 0, 75, 0
1, 74280, Note_on_c, 0, 66, 48
1, 74340, Note_on_c, 0, 66, 0
1, 74340, Note_on_c, 0, 75, 48
1, 74400, Note_on_c, 0, 75, 0
1, 74400, Note_on_c, 0, 81, 48
1, 74460, Note_on_c, 0, 81, 0
1, 74460, Note_on_c, 0, 75, 48
1, 74520, Note_on_c, 0, 75, 0
1, 74520, Note_on_c, 0, 65, 48
1, 74580, Note_on_c, 0, 65, 0
1, 74580, Note_on_c, 0, 75, 48
1, 74640, Note_on_c, 0, 75, 0
1, 74640, Note_on_c, 0, 82, 48
1, 74700, Note_on_c, 0, 82, 0
1, 74700, Note_on_c, 0, 75, 48
1, 74760, Note_on_c, 0, 75, 0
1, 74760, Note_on_c, 0, 66, 48
1, 74820, Note_on_c, 0, 66, 0
1, 74820, Note_on_c, 0, 75, 48
1, 74880, Note_on_c, 0, 75, 0
1, 74880, Note_on_c, 0, 81, 48
1, 74940, Note_on_c, 0, 81, 0
1, 74940, Note_on_c, 0, 75, 48
1, 75000, Note_on_c, 0, 75, 0
1, 75000, Note_on_c, 0, 65, 48
1, 75060, Note_on_c, 0, 65, 0
1, 75060, Note_on_c, 0, 75, 48
1, 75120, Note_on_c, 0, 75, 0
1, 75120, Note_on_c, 0, 84, 48
1, 75180, Note_on_c, 0, 84, 0
1, 75180, Note_on_c, 0, 75, 48
1, 75240, Note_on_c, 0, 75, 0
1, 75240, Note_on_c, 0, 69, 48
1, 75300, Note_on_c, 0, 69, 0
1, 75300, Note_on_c, 0, 75, 48
1, 75360, Note_on_c, 0, 75, 0
1, 75360, Note_on_c, 0, 77, 48
1, 75420, Note_on_c, 0, 77, 0
1, 75420, Note_on_c, 0, 74, 48
1, 75480, Note_on_c, 0, 74, 0
1, 75480, Note_on_c, 0, 70, 48
1, 75540, Note_on_c, 0, 70, 0
1, 75540, Note_on_c, 0, 74, 48
1, 75600, Note_on_c, 0, 74, 0
1, 75600, Note_on_c, 0, 79, 48
1, 75660, Note_on_c, 0, 79, 0
1, 75660, Note_on_c, 0, 75, 48
1, 75720, Note_on_c, 0, 75, 0
1, 75720, Note_on_c, 0, 70, 48
1, 75780, Note_on_c, 0, 70, 0
1, 75780, Note_on_c, 0, 75, 48
1, 75840, Note_on_c, 0, 75, 0
1, 75840, Note_on_c, 0, 80, 48
1, 75900, Note_on_c, 0, 80, 0
1, 75900, Note_on_c, 0, 77, 48
1, 75960, Note_on_c, 0, 77, 0
1, 75960, Note_on_c, 0, 70, 48
1, 76020, Note_on_c, 0, 70, 0
1, 76020, Note_on_c, 0, 77, 48
1, 76080, Note_on_c, 0, 77, 0
1, 76080, Note_on_c, 0, 77, 48
1, 76140, Note_on_c, 0, 77, 0
1, 76140, Note_on_c, 0, 74, 48
1, 76200, Note_on_c, 0, 74, 0
1, 76200, Note_on_c, 0, 70, 48
1, 76260, Note_on_c, 0, 70, 0
1, 76260, Note_on_c, 0, 74, 48
1, 76320, Note_on_c, 0, 74, 0
1, 76320, Note_on_c, 0, 79, 48
1, 76380, Note_on_c, 0, 79, 0
1, 76380, Note_on_c, 0, 70, 48
1, 76440, Note_on_c, 0, 70, 0
1, 76440, Note_on_c, 0, 63, 48
1, 76500, Note_on_c, 0, 63, 0
1, 76500, Note_on_c, 0, 70, 48
1, 76560, Note_on_c, 0, 70, 0
1, 76560, Note_on_c, 0, 77, 48
1, 76620, Note_on_c, 0, 77, 0
1, 76620, Note_on_c, 0, 68, 48
1, 76680, Note_on_c, 0, 68, 0
1, 76680, Note_on_c, 0, 63, 48
1, 76740, Note_on_c, 0, 63, 0
1, 76740, Note_on_c, 0, 68, 48
1, 76800, Note_on_c, 0, 68, 0
1, 76800, Note_on_c, 0, 75, 48
1, 76860, Note_on_c, 0, 75, 0
1, 76860, Note_on_c, 0, 67, 48
1, 76920, Note_on_c, 0, 67, 0
1, 76920, Note_on_c, 0, 63, 48
1, 76980, Note_on_c, 0, 63, 0
1, 76980, Note_on_c, 0, 67, 48
1, 77040, Note_on_c, 0, 67, 0
1, 77040, Note_on_c, 0, 79, 48
1, 77100, Note_on_c, 0, 79, 0
1, 77100, Note_on_c, 0, 70, 48
1, 77160, Note_on_c, 0, 70, 0
1, 77160, Note_on_c, 0, 63, 48
1, 77220, Note_on_c, 0, 63, 0
1, 77220, Note_on_c, 0, 70, 48
1, 77280, Note_on_c, 0, 70, 0
1, 77280, Note_on_c, 0, 80, 48
1, 77340, Note_on_c, 0, 80, 0
1, 77340, Note_on_c, 0, 72, 48
1, 77400, Note_on_c, 0, 72, 0
1, 77400, Note_on_c, 0, 63, 48
1, 77460, Note_on_c, 0, 63, 0
1, 77460, Note_on_c, 0, 72, 48
1, 77520, Note_on_c, 0, 72, 0
1, 77520, Note_on_c, 0, 79, 48
1, 77580, Note_on_c, 0, 79, 0
1, 77580, Note_on_c, 0, 70, 48
1, 77640, Note_on_c, 0, 70, 0
1, 77640, Note_on_c, 0, 63, 48
1, 77700, Note_on_c, 0, 63, 0
1, 77700, Note_on_c, 0, 70, 48
1, 77760, Note_on_c, 0, 70, 0
1, 77760, Note_on_c, 0, 77, 48
1, 77820, Note_on_c, 0, 77, 0
1, 77820, Note_on_c, 0, 68, 48
1, 77880, Note_on_c, 0, 68, 0
1, 77880, Note_on_c, 0, 63, 48
1, 77940, Note_on_c, 0, 63, 0
1, 77940, Note_on_c, 0, 68, 48
1, 78000, Note_on_c, 0, 68, 0
1, 78000, Note_on_c, 0, 80, 48
1, 78060, Note_on_c, 0, 80, 0
1, 78060, Note_on_c, 0, 72, 48
1, 78120, Note_on_c, 0, 72, 0
1, 78120, Note_on_c, 0, 63, 48
1, 78180, Note_on_c, 0, 63, 0
1, 78180, Note_on_c, 0, 72, 48
1, 78240, Note_on_c, 0, 72, 0
1, 78240, Note_on_c, 0, 79, 48
1, 78300, Note_on_c, 0, 79, 0
1, 78300, Note_on_c, 0, 70, 48
1, 78360, Note_on_c, 0, 70, 0
1, 78360, Note_on_c, 0, 63, 48
1, 78420, Note_on_c, 0, 63, 0
1, 78420, Note_on_c, 0, 70, 48
1, 78480, Note_on_c, 0, 70, 0
1, 78480, Note_on_c, 0, 77, 48
1, 78540, Note_on_c, 0, 77, 0
1, 78540, Note_on_c, 0, 68, 48
1, 78600, Note_on_c, 0, 68, 0
1, 78600, Note_on_c, 0, 63, 48
1, 78660, Note_on_c, 0, 63, 0
1, 78660, Note_on_c, 0, 68, 48
1, 78720, Note_on_c, 0, 68, 0
1, 78720, Note_on_c, 0, 75, 48
1, 78780, Note_on_c, 0, 75, 0
1, 78780, Note_on_c, 0, 67, 48
1, 78840, Note_on_c, 0, 67, 0
1, 78840, Note_on_c, 0, 63, 48
1, 78900, Note_on_c, 0, 63, 0
1, 78900, Note_on_c, 0, 67, 48
1, 78960, Note_on_c, 0, 67, 0
1, 78960, Note_on_c, 0, 82, 48
1, 79020, Note_on_c, 0, 82, 0
1, 79020, Note_on_c, 0, 79, 48
1, 79080, Note_on_c, 0, 79, 0
1, 79080, Note_on_c, 0, 75, 48
1, 79140, Note_on_c, 0, 75, 0
1, 79140, Note_on_c, 0, 79, 48
1, 79200, Note_on_c, 0, 79, 0
1, 79200, Note_on_c, 0, 82, 48
1, 79260, Note_on_c, 0, 82, 0
1, 79260, Note_on_c, 0, 77, 48
1, 79320, Note_on_c, 0, 77, 0
1, 79320, Note_on_c, 0, 74, 48
1, 79380, Note_on_c, 0, 74, 0
1, 79380, Note_on_c, 0, 77, 48
1, 79440, Note_on_c, 0, 77, 0
1, 79440, Note_on_c, 0, 82, 48
1, 79500, Note_on_c, 0, 82, 0
1, 79500, Note_on_c, 0, 75, 48
1, 79560, Note_on_c, 0, 75, 0
1, 79560, Note_on_c, 0, 72, 48
1, 79620, Note_on_c, 0, 72, 0
1, 79620, Note_on_c, 0, 75, 48
1, 79680, Note_on_c, 0, 75, 0
1, 79680, Note_on_c, 0, 82, 48
1, 79740, Note_on_c, 0, 82, 0
1, 79740, Note_on_c, 0, 74, 48
1, 79800, Note_on_c, 0, 74, 0
1, 79800, Note_on_c, 0, 70, 48
1, 79860, Note_on_c, 0, 70, 0
1, 79860, Note_on_c, 0, 74, 48
1, 79920, Note_on_c, 0, 74, 0
1, 79920, Note_on_c, 0, 82, 48
1, 79980, Note_on_c, 0, 82, 0
1, 79980, Note_on_c, 0, 79, 48
1, 80040, Note_on_c, 0, 79, 0
1, 80040, Note_on_c, 0, 75, 48
1, 80100, Note_on_c, 0, 75, 0
1, 80100, Note_on_c, 0, 79, 48
1, 80160, Note_on_c, 0, 79, 0
1, 80160, Note_on_c, 0, 82, 48
1, 80220, Note_on_c, 0, 82, 0
1, 80220, Note_on_c, 0, 77, 48
1, 80280, Note_on_c, 0, 77, 0
1, 80280, Note_on_c, 0, 74, 48
1, 80340, Note_on_c, 0, 74, 0
1, 80340, Note_on_c, 0, 77, 48
1, 80400, Note_on_c, 0, 77, 0
1, 80400, Note_on_c, 0, 82, 48
1, 80460, Note_on_c, 0, 82, 0
1, 80460, Note_on_c, 0, 75, 48
1, 80520, Note_on_c, 0, 75, 0
1, 80520, Note_on_c, 0, 72, 48
1, 80580, Note_on_c, 0, 72, 0
1, 80580, Note_on_c, 0, 75, 48
1, 80640, Note_on_c, 0, 75, 0
1, 80640, Note_on_c, 0, 82, 48
1, 80700, Note_on_c, 0, 82, 0
1, 80700, Note_on_c, 0, 74, 48
1, 80760, Note_on_c, 0, 74, 0
1, 80760, Note_on_c, 0, 70, 48
1, 80820, Note_on_c, 0, 70, 0
1, 80820, Note_on_c, 0, 74, 48
1, 80880, Note_on_c, 0, 74, 0
1, 80880, Note_on_c, 0, 82, 48
1, 80940, Note_on_c, 0, 82, 0
1, 80940, Note_on_c, 0, 74, 48
1, 81000, Note_on_c, 0, 74, 0
1, 81000, Note_on_c, 0, 68, 48
1, 81060, Note_on_c, 0, 68, 0
1, 81060, Note_on_c, 0, 74, 48
1, 81120, Note_on_c, 0, 74, 0
1, 81120, Note_on_c, 0, 83, 48
1, 81180, Note_on_c, 0, 83, 0
1, 81180, Note_on_c, 0, 74, 49
1, 81240, Note_on_c, 0, 74, 0
1, 81240, Note_on_c, 0, 67, 50
1, 81300, Note_on_c, 0, 67, 0
1, 81300, Note_on_c, 0, 74, 51
1, 81360, Note_on_c, 0, 74, 0
1, 81360, Note_on_c, 0, 83, 52
1, 81420, Note_on_c, 0, 83, 0
1, 81420, Note_on_c, 0, 74, 53
1, 81480, Note_on_c, 0, 74, 0
1, 81480, Note_on_c, 0, 67, 54
1, 81540, Note_on_c, 0, 67, 0
1, 81540, Note_on_c, 0, 74, 55
1, 81600, Note_on_c, 0, 74, 0
1, 81600, Note_on_c, 0, 84, 56
1, 81660, Note_on_c, 0, 84, 0
1, 81660, Note_on_c, 0, 75, 57
1, 81720, Note_on_c, 0, 75, 0
1, 81720, Note_on_c, 0, 66, 58
1, 81780, Note_on_c, 0, 66, 0
1, 81780, Note_on_c, 0, 75, 59
1, 81840, Note_on_c, 0, 75, 0
1, 81840, Note_on_c, 0, 84, 60
1, 81900, Note_on_c, 0, 84, 0
1, 81900, Note_on_c, 0, 75, 61
1, 81960, Note_on_c, 0, 75, 0
1, 81960, Note_on_c, 0, 66, 62
1, 82020, Note_on_c, 0, 66, 0
1, 82020, Note_on_c, 0, 75, 63
1, 82080, Note_on_c, 0, 75, 0
1, 82080, Note_on_c, 0, 83, 64
1, 82140, Note_on_c, 0, 83, 0
1, 82140, Note_on_c, 0, 74, 65
1, 82200, Note_on_c, 0, 74, 0
1, 82200, Note_on_c, 0, 67, 66
1, 82260, Note_on_c, 0, 67, 0
1, 82260, Note_on_c, 0, 74, 67
1, 82320, Note_on_c, 0, 74, 0
1, 82320, Note_on_c, 0, 83, 68
1, 82380, Note_on_c, 0, 83, 0
1, 82380, Note_on_c, 0, 74, 69
1, 82440, Note_on_c, 0, 74, 0
1, 82440, Note_on_c, 0, 67, 70
1, 82500, Note_on_c, 0, 67, 0
1, 82500, Note_on_c, 0, 74, 71
1, 82560, Note_on_c, 0, 74, 0
1, 82560, Note_on_c, 0, 84, 72
1, 82620, Note_on_c, 0, 84, 0
1, 82620, Note_on_c, 0, 75, 73
1, 82680, Note_on_c, 0, 75, 0
1, 82680, Note_on_c, 0, 66, 74
1, 82740, Note_on_c, 0, 66, 0
1, 82740, Note_on_c, 0, 75, 75
1, 82800, Note_on_c, 0, 75, 0
1, 82800, Note_on_c, 0, 84, 76
1, 82860, Note_on_c, 0, 84, 0
1, 82860, Note_on_c, 0, 75, 77
1, 82920, Note_on_c, 0, 75, 0
1, 82920, Note_on_c, 0, 66, 78
1, 82980, Note_on_c, 0, 66, 0
1, 82980, Note_on_c, 0, 75, 79
1, 83040, Note_on_c, 0, 75, 0
1, 83040, Note_on_c, 0, 83, 88
1, 83100, Note_on_c, 0, 83, 0
1, 83100, Note_on_c, 0, 71, 88
1, 83160, Note_on_c, 1, 67, 88
1, 83220, Note_on_c, 1, 67, 0
1, 83220, Note_on_c, 1, 55, 88
1, 83256, Note_on_c, 0, 71, 0
1, 83280, Note_on_c, 0, 79, 88
1, 83328, Note_on_c, 0, 79, 0
1, 83340, Note_on_c, 0, 67, 88
1, 83376, Note_on_c, 1, 55, 0
1, 83400, Note_on_c, 1, 62, 88
1, 83448, Note_on_c, 1, 62, 0
1, 83460, Note_on_c, 1, 50, 88
1, 83496, Note_on_c, 0, 67, 0
1, 83520, Note_on_c, 0, 74, 88
1, 83568, Note_on_c, 0, 74, 0
1, 83580, Note_on_c, 0, 62, 88
1, 83616, Note_on_c, 1, 50, 0
1, 83640, Note_on_c, 1, 59, 88
1, 83688, Note_on_c, 1, 59, 0
1, 83700, Note_on_c, 1, 47, 88
1, 83736, Note_on_c, 0, 62, 0
1, 83760, Note_on_c, 0, 71, 88
1, 83808, Note_on_c, 0, 71, 0
1, 83820, Note_on_c, 0, 59, 88
1, 83856, Note_on_c, 1, 47, 0
1, 83880, Note_on_c, 1, 55, 88
1, 83928, Note_on_c, 1, 55, 0
1, 83940, Note_on_c, 1, 43, 88
1, 83976, Note_on_c, 0, 59, 0
1, 83988, Note_on_c, 1, 43, 0
1, 84000, Note_on_c, 1, 43, 88
1, 84000, Note_on_c, 1, 31, 88
1, 84480, Note_on_c, 1, 31, 0
1, 84480, Note_on_c, 1, 43, 0
1, 84840, Note_on_c, 0, 67, 88
1, 84876, Note_on_c, 0, 67, 0
1, 84960, Note_on_c, 0, 67, 72
1, 84996, Note_on_c, 0, 67, 0
1, 85080, Note_on_c, 0, 67, 72
1, 85116, Note_on_c, 0, 67, 0
1, 85200, Note_on_c, 0, 67, 72
1, 85236, Note_on_c, 0, 67, 0
1, 85320, Note_on_c, 0, 67, 88
1, 85320, Note_on_c, 0, 68, 88
1, 85356, Note_on_c, 0, 68, 0
1, 85356, Note_on_c, 0, 67, 0
1, 85440, Note_on_c, 0, 67, 72
1, 85440, Note_on_c, 0, 68, 72
1, 85476, Note_on_c, 0, 68, 0
1, 85476, Note_on_c, 0, 67, 0
1, 85560, Note_on_c, 0, 67, 72
1, 85560, Note_on_c, 0, 68, 72
1, 85596, Note_on_c, 0, 68, 0
1, 85596, Note_on_c, 0, 67, 0
1, 85680, Note_on_c, 0, 67, 72
1, 85680, Note_on_c, 0, 68, 72
1, 85716, Note_on_c, 0, 68, 0
1, 85716, Note_on_c, 0, 67, 0
1, 85800, Note_on_c, 0, 68, 88
1, 85800, Note_on_c, 0, 65, 88
1, 85800, Note_on_c, 1, 53, 88
1, 85836, Note_on_c, 0, 65, 0
1, 85836, Note_on_c, 0, 68, 0
1, 85920, Note_on_c, 0, 65, 72
1, 85920, Note_on_c, 0, 68, 72
1, 85920, Note_on_c, 1, 53, 0
1, 85920, Note_on_c, 1, 63, 72
1, 85956, Note_on_c, 0, 68, 0
1, 85956, Note_on_c, 0, 65, 0
1, 86040, Note_on_c, 0, 65, 72
1, 86040, Note_on_c, 0, 68, 72
1, 86040, Note_on_c, 1, 63, 0
1, 86040, Note_on_c, 1, 62, 72
1, 86076, Note_on_c, 0, 68, 0
1, 86076, Note_on_c, 0, 65, 0
1, 86160, Note_on_c, 0, 65, 72
1, 86160, Note_on_c, 0, 68, 72
1, 86160, Note_on_c, 1, 62, 0
1, 86160, Note_on_c, 1, 61, 72
1, 86196, Note_on_c, 0, 68, 0
1, 86196, Note_on_c, 0, 65, 0
1, 86280, Note_on_c, 0, 65, 72
1, 86280, Note_on_c, 0, 68, 72
1, 86280, Note_on_c, 1, 61, 0
1, 86280, Note_on_c, 1, 60, 72
1, 86316, Note_on_c, 0, 68, 0
1, 86316, Note_on_c, 0, 65, 0
1, 86400, Note_on_c, 0, 67, 72
1, 86400, Note_on_c, 0, 65, 72
1, 86400, Note_on_c, 1, 60, 0
1, 86400, Note_on_c, 1, 59, 72
1, 86640, Note_on_c, 0, 65, 0
1, 86640, Note_on_c, 0, 67, 0
1, 86640, Note_on_c, 1, 59, 0
1, 86760, Note_on_c, 0, 72, 88
1, 86796, Note_on_c, 0, 72, 0
1, 86880, Note_on_c, 0, 72, 72
1, 86916, Note_on_c, 0, 72, 0
1, 87000, Note_on_c, 0, 72, 72
1, 87036, Note_on_c, 0, 72, 0
1, 87120, Note_on_c, 0, 72, 72
1, 87156, Note_on_c, 0, 72, 0
1, 87240, Note_on_c, 0, 73, 88
1, 87240, Note_on_c, 0, 72, 88
1, 87276, Note_on_c, 0, 72, 0
1, 87276, Note_on_c, 0, 73, 0
1, 87360, Note_on_c, 0, 72, 72
1, 87360, Note_on_c, 0, 73, 72
1, 87396, Note_on_c, 0, 73, 0
1, 87396, Note_on_c, 0, 72, 0
1, 87480, Note_on_c, 0, 72, 72
1, 87480, Note_on_c, 0, 73, 72
1, 87516, Note_on_c, 0, 73, 0
1, 87516, Note_on_c, 0, 72, 0
1, 87600, Note_on_c, 0, 72, 72
1, 87600, Note_on_c, 0, 73, 72
1, 87636, Note_on_c, 0, 73, 0
1, 87636, Note_on_c, 0, 72, 0
1, 87720, Note_on_c, 0, 70, 88
1, 87720, Note_on_c, 0, 73, 88
1, 87720, Note_on_c, 1, 51, 88
1, 87756, Note_on_c, 0, 73, 0
1, 87756, Note_on_c, 0, 70, 0
1, 87840, Note_on_c, 0, 70, 72
1, 87840, Note_on_c, 0, 73, 72
1, 87840, Note_on_c, 1, 51, 0
1, 87840, Note_on_c, 1, 52, 72
1, 87876, Note_on_c, 0, 73, 0
1, 87876, Note_on_c, 0, 70, 0
1, 87960, Note_on_c, 0, 70, 72
1, 87960, Note_on_c, 0, 73, 72
1, 87960, Note_on_c, 1, 52, 0
1, 87960, Note_on_c, 1, 53, 72
1, 87996, Note_on_c, 0, 73, 0
1, 87996, Note_on_c, 0, 70, 0
1, 88080, Note_on_c, 0, 70, 72
1, 88080, Note_on_c, 0, 73, 72
1, 88080, Note_on_c, 1, 53, 0
1, 88080, Note_on_c, 1, 54, 72
1, 88116, Note_on_c, 0, 73, 0
1, 88116, Note_on_c, 0, 70, 0
1, 88200, Note_on_c, 0, 70, 72
1, 88200, Note_on_c, 0, 73, 72
1, 88200, Note_on_c, 1, 54, 0
1, 88200, Note_on_c, 1, 55, 72
1, 88236, Note_on_c, 0, 73, 0
1, 88236, Note_on_c, 0, 70, 0
1, 88320, Note_on_c, 0, 72, 72
1, 88320, Note_on_c, 0, 68, 72
1, 88320, Note_on_c, 1, 55, 0
1, 88320, Note_on_c, 1, 56, 72
1, 88560, Note_on_c, 0, 68, 0
1, 88560, Note_on_c, 0, 72, 0
1, 88560, Note_on_c, 1, 56, 0
1, 88680, Note_on_c, 0, 84, 80
1, 88680, Note_on_c, 0, 80, 80
1, 88680, Note_on_c, 0, 75, 80
1, 88680, Note_on_c, 1, 63, 88
1, 88680, Note_on_c, 1, 60, 88
1, 88680, Note_on_c, 1, 56, 88
1, 88716, Note_on_c, 0, 75, 0
1, 88716, Note_on_c, 0, 80, 0
1, 88716, Note_on_c, 0, 84, 0
1, 88716, Note_on_c, 1, 56, 0
1, 88716, Note_on_c, 1, 60, 0
1, 88716, Note_on_c, 1, 63, 0
1, 88800, Note_on_c, 0, 84, 88
1, 88800, Note_on_c, 0, 80, 88
1, 88800, Note_on_c, 0, 75, 88
1, 88800, Note_on_c, 1, 63, 88
1, 88800, Note_on_c, 1, 60, 88
1, 88800, Note_on_c, 1, 56, 88
1, 88836, Note_on_c, 0, 75, 0
1, 88836, Note_on_c, 0, 80, 0
1, 88836, Note_on_c, 0, 84, 0
1, 88836, Note_on_c, 1, 56, 0
1, 88836, Note_on_c, 1, 60, 0
1, 88836, Note_on_c, 1, 63, 0
1, 88920, Note_on_c, 0, 84, 88
1, 88920, Note_on_c, 0, 80, 88
1, 88920, Note_on_c, 0, 75, 88
1, 88920, Note_on_c, 1, 63, 88
1, 88920, Note_on_c, 1, 60, 88
1, 88920, Note_on_c, 1, 56, 88
1, 88956, Note_on_c, 0, 75, 0
1, 88956, Note_on_c, 0, 80, 0
1, 88956, Note_on_c, 0, 84, 0
1, 88956, Note_on_c, 1, 56, 0
1, 88956, Note_on_c, 1, 60, 0
1, 88956, Note_on_c, 1, 63, 0
1, 89040, Note_on_c, 0, 84, 88
1, 89040, Note_on_c, 0, 80, 88
1, 89040, Note_on_c, 0, 75, 88
1, 89040, Note_on_c, 1, 63, 88
1, 89040, Note_on_c, 1, 60, 88
1, 89040, Note_on_c, 1, 56, 88
1, 89076, Note_on_c, 0, 75, 0
1, 89076, Note_on_c, 0, 80, 0
1, 89076, Note_on_c, 0, 84, 0
1, 89076, Note_on_c, 1, 56, 0
1, 89076, Note_on_c, 1, 60, 0
1, 89076, Note_on_c, 1, 63, 0
1, 89160, Note_on_c, 0, 84, 88
1, 89160, Note_on_c, 0, 80, 88
1, 89160, Note_on_c, 0, 75, 88
1, 89160, Note_on_c, 1, 63, 88
1, 89160, Note_on_c, 1, 60, 88
1, 89160, Note_on_c, 1, 56, 88
1, 89196, Note_on_c, 0, 75, 0
1, 89196, Note_on_c, 0, 80, 0
1, 89196, Note_on_c, 0, 84, 0
1, 89196, Note_on_c, 1, 56, 0
1, 89196, Note_on_c, 1, 60, 0
1, 89196, Note_on_c, 1, 63, 0
1, 89280, Note_on_c, 0, 79, 88
1, 89280, Note_on_c, 0, 73, 88
1, 89280, Note_on_c, 1, 63, 88
1, 89280, Note_on_c, 1, 58, 88
1, 89520, Note_on_c, 0, 73, 0
1, 89520, Note_on_c, 0, 79, 0
1, 89520, Note_on_c, 0, 72, 80
1, 89520, Note_on_c, 0, 80, 80
1, 89520, Note_on_c, 1, 58, 0
1, 89520, Note_on_c, 1, 63, 0
1, 89520, Note_on_c, 1, 60, 80
1, 89520, Note_on_c, 1, 63, 80
1, 89640, Note_on_c, 0, 80, 0
1, 89640, Note_on_c, 0, 72, 0
1, 89640, Note_on_c, 0, 84, 80
1, 89640, Note_on_c, 0, 87, 80
1, 89640, Note_on_c, 1, 63, 0
1, 89640, Note_on_c, 1, 60, 0
1, 89676, Note_on_c, 0, 87, 0
1, 89676, Note_on_c, 0, 84, 0
1, 89760, Note_on_c, 0, 84, 80
1, 89760, Note_on_c, 0, 87, 80
1, 89796, Note_on_c, 0, 87, 0
1, 89796, Note_on_c, 0, 84, 0
1, 89880, Note_on_c, 0, 84, 80
1, 89880, Note_on_c, 0, 87, 80
1, 89916, Note_on_c, 0, 87, 0
1, 89916, Note_on_c, 0, 84, 0
1, 90000, Note_on_c, 0, 84, 80
1, 90000, Note_on_c, 0, 87, 80
1, 90036, Note_on_c, 0, 87, 0
1, 90036, Note_on_c, 0, 84, 0
1, 90120, Note_on_c, 0, 84, 80
1, 90120, Note_on_c, 0, 87, 80
1, 90156, Note_on_c, 0, 87, 0
1, 90156, Note_on_c, 0, 84, 0
1, 90240, Note_on_c, 0, 82, 80
1, 90240, Note_on_c, 0, 79, 80
1, 90240, Note_on_c, 1, 75, 80
1, 90480, Note_on_c, 0, 79, 0
1, 90480, Note_on_c, 0, 82, 0
1, 90480, Note_on_c, 0, 84, 48
1, 90480, Note_on_c, 0, 80, 48
1, 90480, Note_on_c, 1, 75, 0
1, 90480, Note_on_c, 1, 68, 48
1, 90516, Note_on_c, 0, 80, 0
1, 90516, Note_on_c, 0, 84, 0
1, 90516, Note_on_c, 1, 68, 0
1, 90600, Note_on_c, 0, 84, 48
1, 90600, Note_on_c, 0, 80, 48
1, 90636, Note_on_c, 0, 80, 0
1, 90636, Note_on_c, 0, 84, 0
1, 90720, Note_on_c, 0, 80, 48
1, 90720, Note_on_c, 0, 84, 48
1, 90756, Note_on_c, 0, 84, 0
1, 90756, Note_on_c, 0, 80, 0
1, 90840, Note_on_c, 0, 80, 48
1, 90840, Note_on_c, 0, 84, 48
1, 90876, Note_on_c, 0, 84, 0
1, 90876, Note_on_c, 0, 80, 0
1, 90960, Note_on_c, 0, 80, 48
1, 90960, Note_on_c, 0, 84, 48
1, 90996, Note_on_c, 0, 84, 0
1, 90996, Note_on_c, 0, 80, 0
1, 91080, Note_on_c, 0, 80, 48
1, 91080, Note_on_c, 0, 84, 48
1, 91116, Note_on_c, 0, 84, 0
1, 91116, Note_on_c, 0, 80, 0
1, 91200, Note_on_c, 0, 76, 48
1, 91200, Note_on_c, 0, 79, 48
1, 91200, Note_on_c, 1, 72, 48
1, 91440, Note_on_c, 0, 79, 0
1, 91440, Note_on_c, 0, 76, 0
1, 91440, Note_on_c, 0, 77, 32
1, 91440, Note_on_c, 0, 80, 32
1, 91440, Note_on_c, 1, 72, 0
1, 91440, Note_on_c, 1, 65, 32
1, 91560, Note_on_c, 0, 80, 0
1, 91560, Note_on_c, 0, 77, 0
1, 91560, Note_on_c, 1, 65, 0
1, 93000, Note_on_c, 0, 77, 80
1, 93000, Note_on_c, 0, 80, 80
1, 93000, Note_on_c, 1, 65, 80
1, 93036, Note_on_c, 0, 80, 0
1, 93036, Note_on_c, 0, 77, 0
1, 93036, Note_on_c, 1, 65, 0
1, 93120, Note_on_c, 0, 77, 80
1, 93120, Note_on_c, 0, 80, 80
1, 93120, Note_on_c, 1, 64, 80
1, 93156, Note_on_c, 0, 80, 0
1, 93156, Note_on_c, 0, 77, 0
1, 93240, Note_on_c, 0, 77, 80
1, 93240, Note_on_c, 0, 80, 80
1, 93240, Note_on_c, 1, 64, 0
1, 93240, Note_on_c, 1, 63, 80
1, 93276, Note_on_c, 0, 80, 0
1, 93276, Note_on_c, 0, 77, 0
1, 93360, Note_on_c, 0, 77, 80
1, 93360, Note_on_c, 0, 80, 80
1, 93360, Note_on_c, 1, 63, 0
1, 93360, Note_on_c, 1, 62, 80
1, 93396, Note_on_c, 0, 80, 0
1, 93396, Note_on_c, 0, 77, 0
1, 93480, Note_on_c, 0, 77, 80
1, 93480, Note_on_c, 0, 80, 80
1, 93480, Note_on_c, 1, 62, 0
1, 93480, Note_on_c, 1, 61, 80
1, 93516, Note_on_c, 0, 80, 0
1, 93516, Note_on_c, 0, 77, 0
1, 93600, Note_on_c, 0, 77, 80
1, 93600, Note_on_c, 0, 80, 80
1, 93600, Note_on_c, 1, 61, 0
1, 93600, Note_on_c, 1, 60, 80
1, 93720, Note_on_c, 1, 60, 0
1, 93720, Note_on_c, 1, 59, 80
1, 93840, Note_on_c, 0, 80, 0
1, 93840, Note_on_c, 0, 77, 0
1, 93840, Note_on_c, 0, 76, 80
1, 93840, Note_on_c, 0, 79, 80
1, 93840, Note_on_c, 1, 59, 0
1, 93840, Note_on_c, 1, 60, 80
1, 93876, Note_on_c, 0, 79, 0
1, 93876, Note_on_c, 0, 76, 0
1, 93876, Note_on_c, 1, 60, 0
1, 93960, Note_on_c, 0, 75, 80
1, 93960, Note_on_c, 0, 79, 80
1, 93960, Note_on_c, 1, 63, 80
1, 93996, Note_on_c, 0, 79, 0
1, 93996, Note_on_c, 0, 75, 0
1, 94080, Note_on_c, 0, 75, 80
1, 94080, Note_on_c, 0, 78, 80
1, 94080, Note_on_c, 1, 63, 0
1, 94080, Note_on_c, 1, 62, 80
1, 94116, Note_on_c, 0, 78, 0
1, 94116, Note_on_c, 0, 75, 0
1, 94200, Note_on_c, 0, 75, 80
1, 94200, Note_on_c, 0, 78, 80
1, 94200, Note_on_c, 1, 62, 0
1, 94200, Note_on_c, 1, 61, 80
1, 94236, Note_on_c, 0, 78, 0
1, 94236, Note_on_c, 0, 75, 0
1, 94320, Note_on_c, 0, 75, 80
1, 94320, Note_on_c, 0, 78, 80
1, 94320, Note_on_c, 1, 61, 0
1, 94320, Note_on_c, 1, 60, 80
1, 94356, Note_on_c, 0, 78, 0
1, 94356, Note_on_c, 0, 75, 0
1, 94440, Note_on_c, 0, 75, 80
1, 94440, Note_on_c, 0, 78, 80
1, 94440, Note_on_c, 1, 60, 0
1, 94440, Note_on_c, 1, 59, 80
1, 94476, Note_on_c, 0, 78, 0
1, 94476, Note_on_c, 0, 75, 0
1, 94560, Note_on_c, 0, 75, 80
1, 94560, Note_on_c, 0, 78, 80
1, 94560, Note_on_c, 1, 59, 0
1, 94560, Note_on_c, 1, 58, 80
1, 94680, Note_on_c, 1, 58, 0
1, 94680, Note_on_c, 1, 57, 80
1, 94800, Note_on_c, 0, 78, 0
1, 94800, Note_on_c, 0, 75, 0
1, 94800, Note_on_c, 0, 74, 80
1, 94800, Note_on_c, 0, 77, 80
1, 94800, Note_on_c, 1, 57, 0
1, 94800, Note_on_c, 1, 58, 80
1, 94836, Note_on_c, 0, 77, 0
1, 94836, Note_on_c, 0, 74, 0
1, 94836, Note_on_c, 1, 58, 0
1, 94920, Note_on_c, 0, 82, 80
1, 94920, Note_on_c, 1, 70, 80
1, 94920, Note_on_c, 1, 73, 80
1, 94956, Note_on_c, 0, 82, 0
1, 94956, Note_on_c, 1, 73, 0
1, 94956, Note_on_c, 1, 70, 0
1, 95040, Note_on_c, 0, 81, 80
1, 95040, Note_on_c, 1, 70, 80
1, 95040, Note_on_c, 1, 73, 80
1, 95076, Note_on_c, 1, 73, 0
1, 95076, Note_on_c, 1, 70, 0
1, 95160, Note_on_c, 0, 81, 0
1, 95160, Note_on_c, 0, 80, 80
1, 95160, Note_on_c, 1, 70, 80
1, 95160, Note_on_c, 1, 73, 80
1, 95196, Note_on_c, 1, 73, 0
1, 95196, Note_on_c, 1, 70, 0
1, 95280, Note_on_c, 0, 80, 0
1, 95280, Note_on_c, 0, 79, 80
1, 95280, Note_on_c, 1, 70, 80
1, 95280, Note_on_c, 1, 73, 80
1, 95316, Note_on_c, 1, 73, 0
1, 95316, Note_on_c, 1, 70, 0
1, 95400, Note_on_c, 0, 79, 0
1, 95400, Note_on_c, 0, 78, 80
1, 95400, Note_on_c, 1, 70, 80
1, 95400, Note_on_c, 1, 73, 80
1, 95436, Note_on_c, 1, 73, 0
1, 95436, Note_on_c, 1, 70, 0
1, 95520, Note_on_c, 0, 78, 0
1, 95520, Note_on_c, 0, 77, 80
1, 95520, Note_on_c, 1, 70, 80
1, 95520, Note_on_c, 1, 73, 80
1, 95640, Note_on_c, 0, 77, 0
1, 95640, Note_on_c, 0, 76, 80
1, 95760, Note_on_c, 0, 76, 0
1, 95760, Note_on_c, 0, 77, 80
1, 95760, Note_on_c, 1, 73, 0
1, 95760, Note_on_c, 1, 70, 0
1, 95760, Note_on_c, 1, 68, 80
1, 95760, Note_on_c, 1, 72, 80
1, 95796, Note_on_c, 0, 77, 0
1, 95796, Note_on_c, 1, 72, 0
1, 95796, Note_on_c, 1, 68, 0
1, 95880, Note_on_c, 0, 80, 80
1, 95880, Note_on_c, 1, 68, 80
1, 95880, Note_on_c, 1, 71, 80
1, 95916, Note_on_c, 1, 71, 0
1, 95916, Note_on_c, 1, 68, 0
1, 96000, Note_on_c, 0, 80, 0
1, 96000, Note_on_c, 0, 79, 80
1, 96000, Note_on_c, 1, 68, 80
1, 96000, Note_on_c, 1, 71, 80
1, 96036, Note_on_c, 1, 71, 0
1, 96036, Note_on_c, 1, 68, 0
1, 96120, Note_on_c, 0, 79, 0
1, 96120, Note_on_c, 0, 78, 80
1, 96120, Note_on_c, 1, 68, 80
1, 96120, Note_on_c, 1, 71, 80
1, 96156, Note_on_c, 1, 71, 0
1, 96156, Note_on_c, 1, 68, 0
1, 96240, Note_on_c, 0, 78, 0
1, 96240, Note_on_c, 0, 77, 80
1, 96240, Note_on_c, 1, 68, 80
1, 96240, Note_on_c, 1, 71, 80
1, 96276, Note_on_c, 1, 71, 0
1, 96276, Note_on_c, 1, 68, 0
1, 96360, Note_on_c, 0, 77, 0
1, 96360, Note_on_c, 0, 76, 80
1, 96360, Note_on_c, 1, 68, 80
1, 96360, Note_on_c, 1, 71, 80
1, 96396, Note_on_c, 1, 71, 0
1, 96396, Note_on_c, 1, 68, 0
1, 96480, Note_on_c, 0, 76, 0
1, 96480, Note_on_c, 0, 75, 80
1, 96480, Note_on_c, 1, 68, 80
1, 96480, Note_on_c, 1, 71, 80
1, 96600, Note_on_c, 0, 75, 0
1, 96600, Note_on_c, 0, 74, 80
1, 96720, Note_on_c, 0, 74, 0
1, 96720, Note_on_c, 0, 75, 80
1, 96720, Note_on_c, 1, 71, 0
1, 96720, Note_on_c, 1, 68, 0
1, 96720, Note_on_c, 1, 67, 80
1, 96720, Note_on_c, 1, 70, 80
1, 96756, Note_on_c, 0, 75, 0
1, 96756, Note_on_c, 1, 70, 0
1, 96756, Note_on_c, 1, 67, 0
1, 96840, Note_on_c, 0, 87, 48
1, 96960, Note_on_c, 0, 87, 0
1, 96960, Note_on_c, 0, 86, 48
1, 97080, Note_on_c, 0, 86, 0
1, 97080, Note_on_c, 0, 85, 48
1, 97200, Note_on_c, 0, 85, 0
1, 97200, Note_on_c, 0, 84, 48
1, 97320, Note_on_c, 0, 84, 0
1, 97320, Note_on_c, 0, 83, 48
1, 97440, Note_on_c, 0, 83, 0
1, 97440, Note_on_c, 0, 82, 48
1, 97440, Note_on_c, 1, 60, 48
1, 97440, Note_on_c, 1, 63, 48
1, 97728, Note_on_c, 1, 63, 0
1, 97728, Note_on_c, 1, 60, 0
1, 97776, Note_on_c, 0, 82, 0
1, 97800, Note_on_c, 1, 60, 48
1, 97815, Note_on_c, 1, 63, 48
1, 97830, Note_on_c, 1, 65, 48
1, 97845, Note_on_c, 1, 69, 48
1, 97860, Note_on_c, 0, 72, 48
1, 97875, Note_on_c, 0, 75, 48
1, 97890, Note_on_c, 0, 77, 48
1, 97905, Note_on_c, 0, 81, 48
1, 98400, Note_on_c, 0, 81, 0
1, 98400, Note_on_c, 0, 72, 0
1, 98400, Note_on_c, 0, 75, 0
1, 98400, Note_on_c, 0, 77, 0
1, 98400, Note_on_c, 1, 69, 0
1, 98400, Note_on_c, 1, 60, 0
1, 98400, Note_on_c, 1, 63, 0
1, 98400, Note_on_c, 1, 65, 0
1, 98760, Note_on_c, 0, 80, 48
1, 98880, Note_on_c, 0, 80, 0
1, 98880, Note_on_c, 0, 79, 48
1, 98916, Note_on_c, 0, 79, 0
1, 99000, Note_on_c, 0, 78, 48
1, 99036, Note_on_c, 0, 78, 0
1, 99120, Note_on_c, 0, 77, 48
1, 99156, Note_on_c, 0, 77, 0
1, 99240, Note_on_c, 0, 76, 48
1, 99276, Note_on_c, 0, 76, 0
1, 99360, Note_on_c, 0, 75, 48
1, 99360, Note_on_c, 1, 58, 48
1, 99360, Note_on_c, 1, 65, 48
1, 99360, Note_on_c, 1, 68, 48
1, 99840, Note_on_c, 0, 75, 0
1, 99840, Note_on_c, 0, 74, 48
1, 99840, Note_on_c, 1, 68, 0
1, 99840, Note_on_c, 1, 65, 0
1, 99840, Note_on_c, 1, 58, 0
1, 99960, Note_on_c, 0, 74, 0
1, 99960, Note_on_c, 0, 84, 48
1, 99996, Note_on_c, 0, 84, 0
1, 100080, Note_on_c, 0, 83, 48
1, 100116, Note_on_c, 0, 83, 0
1, 100200, Note_on_c, 0, 82, 48
1, 100236, Note_on_c, 0, 82, 0
1, 100320, Note_on_c, 0, 81, 48
1, 100440, Note_on_c, 0, 81, 0
1, 100440, Note_on_c, 0, 80, 48
1, 100560, Note_on_c, 0, 80, 0
1, 100560, Note_on_c, 0, 79, 48
1, 100680, Note_on_c, 0, 79, 0
1, 100680, Note_on_c, 0, 78, 48
1, 100800, Note_on_c, 0, 78, 0
1, 100800, Note_on_c, 0, 77, 48
1, 100920, Note_on_c, 0, 77, 0
1, 100920, Note_on_c, 0, 76, 48
1, 101040, Note_on_c, 0, 76, 0
1, 101040, Note_on_c, 0, 75, 48
1, 101040, Note_on_c, 1, 58, 48
1, 101040, Note_on_c, 1, 65, 48
1, 101040, Note_on_c, 1, 68, 48
1, 101520, Note_on_c, 0, 75, 0
1, 101520, Note_on_c, 0, 74, 48
1, 101640, Note_on_c, 0, 74, 0
1, 101640, Note_on_c, 0, 75, 48
1, 101760, Note_on_c, 0, 75, 0
1, 101760, Note_on_c, 0, 77, 48
1, 101880, Note_on_c, 0, 77, 0
1, 101880, Note_on_c, 0, 75, 48
1, 102000, Note_on_c, 0, 75, 0
1, 102000, Note_on_c, 0, 74, 48
1, 102120, Note_on_c, 0, 74, 0
1, 102120, Note_on_c, 0, 77, 48
1, 102240, Note_on_c, 0, 77, 0
1, 102240, Note_on_c, 0, 75, 48
1, 102360, Note_on_c, 0, 75, 0
1, 102360, Note_on_c, 0, 74, 48
1, 102480, Note_on_c, 0, 74, 0
1, 102480, Note_on_c, 0, 74, 32
1, 102960, Note_on_c, 0, 74, 0
1, 102960, Note_on_c, 1, 68, 0
1, 102960, Note_on_c, 1, 65, 0
1, 102960, Note_on_c, 1, 58, 0
1, 103320, Note_on_c, 0, 67, 43
1, 103356, Note_on_c, 0, 67, 0
1, 103440, Note_on_c, 0, 67, 47
1, 103476, Note_on_c, 0, 67, 0
1, 103560, Note_on_c, 0, 67, 52
1, 103596, Note_on_c, 0, 67, 0
1, 103680, Note_on_c, 0, 67, 56
1, 103716, Note_on_c, 0, 67, 0
1, 103800, Note_on_c, 0, 67, 61
1, 103836, Note_on_c, 0, 67, 0
1, 103920, Note_on_c, 0, 67, 72
1, 103920, Note_on_c, 1, 39, 48
1, 103920, Note_on_c, 1, 39, 48
1, 104040, Note_on_c, 1, 39, 0
1, 104040, Note_on_c, 1, 51, 48
1, 104076, Note_on_c, 1, 51, 0
1, 104160, Note_on_c, 0, 67, 0
1, 104160, Note_on_c, 0, 70, 64
1, 104160, Note_on_c, 1, 51, 48
1, 104196, Note_on_c, 0, 70, 0
1, 104196, Note_on_c, 1, 51, 0
1, 104280, Note_on_c, 0, 63, 64
1, 104280, Note_on_c, 1, 51, 48
1, 104316, Note_on_c, 0, 63, 0
1, 104316, Note_on_c, 1, 51, 0
1, 104400, Note_on_c, 0, 62, 64
1, 104400, Note_on_c, 1, 51, 48
1, 104520, Note_on_c, 0, 62, 0
1, 104520, Note_on_c, 0, 65, 64
1, 104520, Note_on_c, 1, 51, 0
1, 104520, Note_on_c, 1, 51, 48
1, 104556, Note_on_c, 0, 65, 0
1, 104556, Note_on_c, 1, 51, 0
1, 104640, Note_on_c, 0, 68, 64
1, 104640, Note_on_c, 1, 51, 48
1, 104676, Note_on_c, 0, 68, 0
1, 104676, Note_on_c, 1, 51, 0
1, 104760, Note_on_c, 0, 62, 64
1, 104760, Note_on_c, 1, 51, 48
1, 104796, Note_on_c, 0, 62, 0
1, 104796, Note_on_c, 1, 51, 0
1, 104880, Note_on_c, 0, 63, 72
1, 104880, Note_on_c, 1, 39, 0
1, 104880, Note_on_c, 1, 39, 48
1, 105000, Note_on_c, 0, 63, 0
1, 105000, Note_on_c, 0, 67, 64
1, 105000, Note_on_c, 1, 51, 48
1, 105036, Note_on_c, 0, 67, 0
1, 105036, Note_on_c, 1, 51, 0
1, 105120, Note_on_c, 0, 58, 64
1, 105120, Note_on_c, 1, 51, 48
1, 105156, Note_on_c, 0, 58, 0
1, 105156, Note_on_c, 1, 51, 0
1, 105240, Note_on_c, 0, 58, 64
1, 105240, Note_on_c, 1, 51, 48
1, 105276, Note_on_c, 0, 58, 0
1, 105276, Note_on_c, 1, 51, 0
1, 105360, Note_on_c, 0, 56, 64
1, 105360, Note_on_c, 1, 51, 48
1, 105396, Note_on_c, 0, 56, 0
1, 105396, Note_on_c, 1, 51, 0
1, 105480, Note_on_c, 0, 62, 64
1, 105480, Note_on_c, 1, 51, 48
1, 105504, Note_on_c, 1, 39, 0
1, 105516, Note_on_c, 0, 62, 0
1, 105516, Note_on_c, 1, 51, 0
1, 105600, Note_on_c, 0, 65, 64
1, 105600, Note_on_c, 1, 51, 48
1, 105636, Note_on_c, 0, 65, 0
1, 105636, Note_on_c, 1, 51, 0
1, 105720, Note_on_c, 0, 62, 64
1, 105720, Note_on_c, 1, 51, 48
1, 105756, Note_on_c, 0, 62, 0
1, 105756, Note_on_c, 1, 51, 0
1, 105840, Note_on_c, 0, 63, 72
1, 105840, Note_on_c, 1, 39, 48
1, 105960, Note_on_c, 0, 63, 0
1, 105960, Note_on_c, 0, 67, 64
1, 105960, Note_on_c, 1, 51, 48
1, 105996, Note_on_c, 0, 67, 0
1, 105996, Note_on_c, 1, 51, 0
1, 106080, Note_on_c, 0, 58, 64
1, 106080, Note_on_c, 1, 51, 48
1, 106116, Note_on_c, 0, 58, 0
1, 106116, Note_on_c, 1, 51, 0
1, 106200, Note_on_c, 0, 58, 64
1, 106200, Note_on_c, 1, 51, 48
1, 106236, Note_on_c, 0, 58, 0
1, 106236, Note_on_c, 1, 51, 0
1, 106320, Note_on_c, 0, 56, 64
1, 106320, Note_on_c, 1, 51, 48
1, 106440, Note_on_c, 0, 56, 0
1, 106440, Note_on_c, 0, 62, 60
1, 106440, Note_on_c, 1, 51, 0
1, 106440, Note_on_c, 1, 51, 44
1, 106476, Note_on_c, 0, 62, 0
1, 106476, Note_on_c, 1, 51, 0
1, 106560, Note_on_c, 0, 65, 56
1, 106560, Note_on_c, 1, 51, 40
1, 106596, Note_on_c, 0, 65, 0
1, 106596, Note_on_c, 1, 51, 0
1, 106680, Note_on_c, 0, 62, 52
1, 106680, Note_on_c, 1, 51, 36
1, 106716, Note_on_c, 0, 62, 0
1, 106716, Note_on_c, 1, 51, 0
1, 106800, Note_on_c, 0, 63, 48
1, 106800, Note_on_c, 1, 39, 0
1, 106800, Note_on_c, 1, 39, 32
1, 107040, Note_on_c, 0, 63, 0
1, 107040, Note_on_c, 1, 39, 0
1, 108120, Note_on_c, 0, 68, 41
1, 108156, Note_on_c, 0, 68, 0
1, 108240, Note_on_c, 0, 68, 46
1, 108276, Note_on_c, 0, 68, 0
1, 108360, Note_on_c, 0, 68, 51
1, 108396, Note_on_c, 0, 68, 0
1, 108480, Note_on_c, 0, 68, 55
1, 108516, Note_on_c, 0, 68, 0
1, 108600, Note_on_c, 0, 68, 60
1, 108624, Note_on_c, 0, 68, 0
1, 108680, Note_on_c, 0, 70, 63
1, 108720, Note_on_c, 0, 70, 0
1, 108720, Note_on_c, 0, 68, 72
1, 108720, Note_on_c, 1, 41, 48
1, 108780, Note_on_c, 0, 68, 0
1, 108780, Note_on_c, 0, 67, 64
1, 108840, Note_on_c, 0, 67, 0
1, 108840, Note_on_c, 0, 68, 64
1, 108840, Note_on_c, 1, 53, 48
1, 108876, Note_on_c, 1, 53, 0
1, 108900, Note_on_c, 0, 68, 0
1, 108900, Note_on_c, 0, 70, 64
1, 108960, Note_on_c, 0, 70, 0
1, 108960, Note_on_c, 0, 72, 64
1, 108960, Note_on_c, 1, 53, 48
1, 108996, Note_on_c, 0, 72, 0
1, 108996, Note_on_c, 1, 53, 0
1, 109080, Note_on_c, 0, 65, 64
1, 109080, Note_on_c, 1, 53, 48
1, 109116, Note_on_c, 0, 65, 0
1, 109116, Note_on_c, 1, 53, 0
1, 109200, Note_on_c, 0, 61, 72
1, 109200, Note_on_c, 0, 64, 64
1, 109320, Note_on_c, 0, 64, 0
1, 109320, Note_on_c, 0, 67, 64
1, 109320, Note_on_c, 1, 55, 48
1, 109356, Note_on_c, 0, 67, 0
1, 109356, Note_on_c, 1, 55, 0
1, 109440, Note_on_c, 0, 70, 64
1, 109440, Note_on_c, 1, 55, 48
1, 109476, Note_on_c, 0, 70, 0
1, 109476, Note_on_c, 1, 55, 0
1, 109560, Note_on_c, 0, 64, 64
1, 109560, Note_on_c, 1, 55, 48
1, 109596, Note_on_c, 0, 64, 0
1, 109596, Note_on_c, 1, 55, 0
1, 109680, Note_on_c, 0, 61, 0
1, 109680, Note_on_c, 0, 60, 64
1, 109680, Note_on_c, 0, 65, 72
1, 109680, Note_on_c, 1, 41, 0
1, 109680, Note_on_c, 1, 41, 48
1, 109800, Note_on_c, 0, 65, 0
1, 109800, Note_on_c, 0, 68, 64
1, 109800, Note_on_c, 1, 56, 48
1, 109836, Note_on_c, 0, 68, 0
1, 109836, Note_on_c, 1, 56, 0
1, 109920, Note_on_c, 0, 60, 0
1, 109920, Note_on_c, 0, 60, 64
1, 109920, Note_on_c, 1, 56, 48
1, 109956, Note_on_c, 0, 60, 0
1, 109956, Note_on_c, 1, 56, 0
1, 110040, Note_on_c, 0, 60, 64
1, 110040, Note_on_c, 1, 56, 48
1, 110076, Note_on_c, 0, 60, 0
1, 110076, Note_on_c, 1, 56, 0
1, 110160, Note_on_c, 0, 61, 72
1, 110160, Note_on_c, 0, 64, 64
1, 110196, Note_on_c, 0, 64, 0
1, 110280, Note_on_c, 0, 67, 64
1, 110280, Note_on_c, 1, 55, 48
1, 110316, Note_on_c, 0, 67, 0
1, 110316, Note_on_c, 1, 55, 0
1, 110400, Note_on_c, 0, 70, 64
1, 110400, Note_on_c, 1, 55, 48
1, 110436, Note_on_c, 0, 70, 0
1, 110436, Note_on_c, 1, 55, 0
1, 110520, Note_on_c, 0, 64, 64
1, 110520, Note_on_c, 1, 55, 48
1, 110556, Note_on_c, 0, 64, 0
1, 110556, Note_on_c, 1, 55, 0
1, 110640, Note_on_c, 0, 61, 0
1, 110640, Note_on_c, 0, 60, 64
1, 110640, Note_on_c, 0, 65, 64
1, 110640, Note_on_c, 1, 41, 0
1, 110640, Note_on_c, 1, 41, 48
1, 110760, Note_on_c, 0, 65, 0
1, 110760, Note_on_c, 0, 68, 64
1, 110760, Note_on_c, 1, 56, 48
1, 110796, Note_on_c, 0, 68, 0
1, 110796, Note_on_c, 1, 56, 0
1, 110880, Note_on_c, 0, 60, 0
1, 110880, Note_on_c, 0, 60, 64
1, 110880, Note_on_c, 1, 56, 48
1, 110916, Note_on_c, 0, 60, 0
1, 110916, Note_on_c, 1, 56, 0
1, 111000, Note_on_c, 0, 60, 64
1, 111000, Note_on_c, 1, 56, 48
1, 111036, Note_on_c, 0, 60, 0
1, 111036, Note_on_c, 1, 56, 0
1, 111120, Note_on_c, 0, 61, 72
1, 111120, Note_on_c, 0, 64, 64
1, 111240, Note_on_c, 0, 64, 0
1, 111240, Note_on_c, 0, 67, 60
1, 111240, Note_on_c, 1, 55, 44
1, 111276, Note_on_c, 0, 67, 0
1, 111276, Note_on_c, 1, 55, 0
1, 111360, Note_on_c, 0, 70, 56
1, 111360, Note_on_c, 1, 55, 40
1, 111396, Note_on_c, 0, 70, 0
1, 111396, Note_on_c, 1, 55, 0
1, 111480, Note_on_c, 0, 64, 52
1, 111480, Note_on_c, 1, 55, 36
1, 111516, Note_on_c, 0, 64, 0
1, 111516, Note_on_c, 1, 55, 0
1, 111600, Note_on_c, 0, 61, 0
1, 111600, Note_on_c, 0, 60, 48
1, 111600, Note_on_c, 0, 65, 48
1, 111600, Note_on_c, 1, 41, 0
1, 111600, Note_on_c, 1, 56, 32
1, 111600, Note_on_c, 1, 41, 32
1, 111840, Note_on_c, 0, 65, 0
1, 111840, Note_on_c, 0, 60, 0
1, 111840, Note_on_c, 1, 41, 0
1, 111840, Note_on_c, 1, 56, 0
1, 112920, Note_on_c, 1, 34, 80
1, 112920, Note_on_c, 1, 46, 80
1, 112956, Note_on_c, 1, 46, 0
1, 112956, Note_on_c, 1, 34, 0
1, 113040, Note_on_c, 1, 34, 88
1, 113040, Note_on_c, 1, 46, 88
1, 113076, Note_on_c, 1, 46, 0
1, 113076, Note_on_c, 1, 34, 0
1, 113160, Note_on_c, 1, 34, 88
1, 113160, Note_on_c, 1, 46, 88
1, 113196, Note_on_c, 1, 46, 0
1, 113196, Note_on_c, 1, 34, 0
1, 113280, Note_on_c, 1, 34, 88
1, 113280, Note_on_c, 1, 46, 88
1, 113316, Note_on_c, 1, 46, 0
1, 113316, Note_on_c, 1, 34, 0
1, 113400, Note_on_c, 0, 84, 80
1, 113400, Note_on_c, 1, 34, 88
1, 113400, Note_on_c, 1, 46, 88
1, 113436, Note_on_c, 1, 46, 0
1, 113436, Note_on_c, 1, 34, 0
1, 113460, Note_on_c, 0, 84, 0
1, 113460, Note_on_c, 0, 82, 80
1, 113520, Note_on_c, 0, 82, 0
1, 113520, Note_on_c, 0, 80, 80
1, 113520, Note_on_c, 1, 46, 96
1, 113520, Note_on_c, 1, 34, 96
1, 113580, Note_on_c, 0, 80, 0
1, 113580, Note_on_c, 0, 79, 80
1, 113640, Note_on_c, 0, 79, 0
1, 113640, Note_on_c, 0, 77, 80
1, 113700, Note_on_c, 0, 77, 0
1, 113700, Note_on_c, 0, 75, 80
1, 113760, Note_on_c, 0, 75, 0
1, 113760, Note_on_c, 0, 74, 80
1, 113760, Note_on_c, 1, 34, 0
1, 113760, Note_on_c, 1, 46, 0
1, 113760, Note_on_c, 1, 53, 80
1, 113796, Note_on_c, 1, 53, 0
1, 113820, Note_on_c, 0, 74, 0
1, 113820, Note_on_c, 0, 75, 80
1, 113880, Note_on_c, 0, 75, 0
1, 113880, Note_on_c, 0, 77, 80
1, 113880, Note_on_c, 1, 44, 80
1, 113916, Note_on_c, 1, 44, 0
1, 113940, Note_on_c, 0, 77, 0
1, 113940, Note_on_c, 0, 74, 80
1, 114000, Note_on_c, 0, 74, 0
1, 114000, Note_on_c, 0, 75, 80
1, 114000, Note_on_c, 1, 43, 80
1, 114060, Note_on_c, 0, 75, 0
1, 114060, Note_on_c, 0, 79, 80
1, 114120, Note_on_c, 0, 79, 0
1, 114120, Note_on_c, 0, 77, 80
1, 114120, Note_on_c, 1, 43, 0
1, 114120, Note_on_c, 1, 46, 80
1, 114156, Note_on_c, 1, 46, 0
1, 114180, Note_on_c, 0, 77, 0
1, 114180, Note_on_c, 0, 75, 80
1, 114240, Note_on_c, 0, 75, 0
1, 114240, Note_on_c, 0, 74, 80
1, 114240, Note_on_c, 1, 51, 80
1, 114276, Note_on_c, 1, 51, 0
1, 114300, Note_on_c, 0, 74, 0
1, 114300, Note_on_c, 0, 72, 80
1, 114360, Note_on_c, 0, 72, 0
1, 114360, Note_on_c, 0, 70, 80
1, 114360, Note_on_c, 1, 43, 80
1, 114396, Note_on_c, 1, 43, 0
1, 114420, Note_on_c, 0, 70, 0
1, 114420, Note_on_c, 0, 75, 80
1, 114480, Note_on_c, 0, 75, 0
1, 114480, Note_on_c, 0, 74, 80
1, 114480, Note_on_c, 1, 44, 80
1, 114540, Note_on_c, 0, 74, 0
1, 114540, Note_on_c, 0, 75, 80
1, 114600, Note_on_c, 0, 75, 0
1, 114600, Note_on_c, 0, 77, 80
1, 114600, Note_on_c, 1, 44, 0
1, 114600, Note_on_c, 1, 50, 80
1, 114636, Note_on_c, 1, 50, 0
1, 114660, Note_on_c, 0, 77, 0
1, 114660, Note_on_c, 0, 79, 80
1, 114720, Note_on_c, 0, 79, 0
1, 114720, Note_on_c, 0, 80, 80
1, 114720, Note_on_c, 1, 53, 80
1, 114756, Note_on_c, 1, 53, 0
1, 114780, Note_on_c, 0, 80, 0
1, 114780, Note_on_c, 0, 77, 80
1, 114840, Note_on_c, 0, 77, 0
1, 114840, Note_on_c, 0, 75, 80
1, 114840, Note_on_c, 1, 44, 80
1, 114876, Note_on_c, 1, 44, 0
1, 114900, Note_on_c, 0, 75, 0
1, 114900, Note_on_c, 0, 74, 80
1, 114960, Note_on_c, 0, 74, 0
1, 114960, Note_on_c, 0, 75, 80
1, 114960, Note_on_c, 1, 43, 80
1, 115020, Note_on_c, 0, 75, 0
1, 115020, Note_on_c, 0, 79, 80
1, 115080, Note_on_c, 0, 79, 0
1, 115080, Note_on_c, 0, 77, 80
1, 115080, Note_on_c, 1, 43, 0
1, 115080, Note_on_c, 1, 46, 80
1, 115116, Note_on_c, 1, 46, 0
1, 115140, Note_on_c, 0, 77, 0
1, 115140, Note_on_c, 0, 75, 80
1, 115200, Note_on_c, 0, 75, 0
1, 115200, Note_on_c, 0, 74, 80
1, 115200, Note_on_c, 1, 51, 80
1, 115236, Note_on_c, 1, 51, 0
1, 115260, Note_on_c, 0, 74, 0
1, 115260, Note_on_c, 0, 72, 80
1, 115320, Note_on_c, 0, 72, 0
1, 115320, Note_on_c, 0, 70, 80
1, 115320, Note_on_c, 1, 43, 80
1, 115356, Note_on_c, 1, 43, 0
1, 115380, Note_on_c, 0, 70, 0
1, 115380, Note_on_c, 0, 75, 80
1, 115440, Note_on_c, 0, 75, 0
1, 115440, Note_on_c, 0, 74, 64
1, 115440, Note_on_c, 1, 44, 64
1, 115500, Note_on_c, 0, 74, 0
1, 115500, Note_on_c, 0, 75, 65
1, 115560, Note_on_c, 0, 75, 0
1, 115560, Note_on_c, 0, 77, 66
1, 115560, Note_on_c, 1, 44, 0
1, 115560, Note_on_c, 1, 50, 66
1, 115596, Note_on_c, 1, 50, 0
1, 115620, Note_on_c, 0, 77, 0
1, 115620, Note_on_c, 0, 79, 67
1, 115680, Note_on_c, 0, 79, 0
1, 115680, Note_on_c, 0, 80, 68
1, 115680, Note_on_c, 1, 53, 68
1, 115716, Note_on_c, 1, 53, 0
1, 115740, Note_on_c, 0, 80, 0
1, 115740, Note_on_c, 0, 77, 69
1, 115800, Note_on_c, 0, 77, 0
1, 115800, Note_on_c, 0, 75, 70
1, 115800, Note_on_c, 1, 44, 70
1, 115836, Note_on_c, 1, 44, 0
1, 115860, Note_on_c, 0, 75, 0
1, 115860, Note_on_c, 0, 74, 71
1, 115920, Note_on_c, 0, 74, 0
1, 115920, Note_on_c, 0, 75, 72
1, 115920, Note_on_c, 1, 43, 72
1, 115980, Note_on_c, 0, 75, 0
1, 115980, Note_on_c, 0, 77, 73
1, 116040, Note_on_c, 0, 77, 0
1, 116040, Note_on_c, 0, 79, 74
1, 116040, Note_on_c, 1, 43, 0
1, 116040, Note_on_c, 1, 46, 74
1, 116076, Note_on_c, 1, 46, 0
1, 116100, Note_on_c, 0, 79, 0
1, 116100, Note_on_c, 0, 77, 75
1, 116160, Note_on_c, 0, 77, 0
1, 116160, Note_on_c, 0, 75, 76
1, 116160, Note_on_c, 1, 51, 76
1, 116196, Note_on_c, 1, 51, 0
1, 116220, Note_on_c, 0, 75, 0
1, 116220, Note_on_c, 0, 74, 77
1, 116280, Note_on_c, 0, 74, 0
1, 116280, Note_on_c, 0, 72, 78
1, 116280, Note_on_c, 1, 55, 78
1, 116316, Note_on_c, 1, 55, 0
1, 116340, Note_on_c, 0, 72, 0
1, 116340, Note_on_c, 0, 70, 79
1, 116400, Note_on_c, 0, 70, 0
1, 116400, Note_on_c, 0, 72, 80
1, 116400, Note_on_c, 1, 44, 80
1, 116460, Note_on_c, 0, 72, 0
1, 116460, Note_on_c, 0, 75, 80
1, 116520, Note_on_c, 0, 75, 0
1, 116520, Note_on_c, 0, 77, 80
1, 116520, Note_on_c, 1, 44, 0
1, 116520, Note_on_c, 1, 48, 80
1, 116556, Note_on_c, 1, 48, 0
1, 116580, Note_on_c, 0, 77, 0
1, 116580, Note_on_c, 0, 75, 80
1, 116640, Note_on_c, 0, 75, 0
1, 116640, Note_on_c, 0, 74, 80
1, 116640, Note_on_c, 1, 53, 80
1, 116676, Note_on_c, 1, 53, 0
1, 116700, Note_on_c, 0, 74, 0
1, 116700, Note_on_c, 0, 72, 80
1, 116760, Note_on_c, 0, 72, 0
1, 116760, Note_on_c, 0, 70, 80
1, 116760, Note_on_c, 1, 56, 80
1, 116796, Note_on_c, 1, 56, 0
1, 116820, Note_on_c, 0, 70, 0
1, 116820, Note_on_c, 0, 68, 80
1, 116880, Note_on_c, 0, 68, 0
1, 116880, Note_on_c, 0, 67, 80
1, 116880, Note_on_c, 1, 58, 80
1, 116916, Note_on_c, 1, 58, 0
1, 116940, Note_on_c, 0, 67, 0
1, 116940, Note_on_c, 0, 70, 80
1, 117000, Note_on_c, 0, 70, 0
1, 117000, Note_on_c, 0, 67, 80
1, 117000, Note_on_c, 1, 58, 80
1, 117036, Note_on_c, 1, 58, 0
1, 117060, Note_on_c, 0, 67, 0
1, 117060, Note_on_c, 0, 70, 80
1, 117120, Note_on_c, 0, 70, 0
1, 117120, Note_on_c, 0, 65, 80
1, 117120, Note_on_c, 1, 58, 80
1, 117156, Note_on_c, 1, 58, 0
1, 117180, Note_on_c, 0, 65, 0
1, 117180, Note_on_c, 0, 68, 80
1, 117240, Note_on_c, 0, 68, 0
1, 117240, Note_on_c, 0, 65, 80
1, 117240, Note_on_c, 1, 58, 80
1, 117276, Note_on_c, 1, 58, 0
1, 117300, Note_on_c, 0, 65, 0
1, 117300, Note_on_c, 0, 68, 80
1, 117360, Note_on_c, 0, 68, 0
1, 117360, Note_on_c, 0, 63, 80
1, 117360, Note_on_c, 1, 46, 80
1, 117396, Note_on_c, 1, 46, 0
1, 117420, Note_on_c, 0, 63, 0
1, 117420, Note_on_c, 0, 67, 80
1, 117480, Note_on_c, 0, 67, 0
1, 117480, Note_on_c, 0, 63, 80
1, 117480, Note_on_c, 1, 46, 80
1, 117516, Note_on_c, 1, 46, 0
1, 117540, Note_on_c, 0, 63, 0
1, 117540, Note_on_c, 0, 67, 80
1, 117600, Note_on_c, 0, 67, 0
1, 117600, Note_on_c, 0, 62, 80
1, 117600, Note_on_c, 1, 46, 80
1, 117636, Note_on_c, 1, 46, 0
1, 117660, Note_on_c, 0, 62, 0
1, 117660, Note_on_c, 0, 65, 80
1, 117720, Note_on_c, 0, 65, 0
1, 117720, Note_on_c, 0, 62, 80
1, 117720, Note_on_c, 1, 46, 80
1, 117756, Note_on_c, 1, 46, 0
1, 117780, Note_on_c, 0, 62, 0
1, 117780, Note_on_c, 0, 65, 80
1, 117840, Note_on_c, 0, 65, 0
1, 117840, Note_on_c, 0, 63, 80
1, 117840, Note_on_c, 1, 51, 80
1, 117876, Note_on_c, 1, 51, 0
1, 117900, Note_on_c, 0, 63, 0
1, 117900, Note_on_c, 0, 58, 80
1, 117960, Note_on_c, 0, 58, 0
1, 117960, Note_on_c, 0, 63, 80
1, 117960, Note_on_c, 1, 55, 80
1, 117996, Note_on_c, 1, 55, 0
1, 118020, Note_on_c, 0, 63, 0
1, 118020, Note_on_c, 0, 58, 80
1, 118080, Note_on_c, 0, 58, 0
1, 118080, Note_on_c, 0, 63, 80
1, 118080, Note_on_c, 1, 51, 80
1, 118116, Note_on_c, 1, 51, 0
1, 118140, Note_on_c, 0, 63, 0
1, 118140, Note_on_c, 0, 58, 80
1, 118200, Note_on_c, 0, 58, 0
1, 118200, Note_on_c, 0, 63, 80
1, 118200, Note_on_c, 1, 55, 80
1, 118236, Note_on_c, 1, 55, 0
1, 118260, Note_on_c, 0, 63, 0
1, 118260, Note_on_c, 0, 58, 80
1, 118320, Note_on_c, 0, 58, 0
1, 118320, Note_on_c, 0, 63, 80
1, 118320, Note_on_c, 1, 51, 80
1, 118560, Note_on_c, 0, 63, 0
1, 118560, Note_on_c, 1, 51, 0
1, 118680, Note_on_c, 0, 79, 48
1, 118800, Note_on_c, 0, 79, 0
1, 118800, Note_on_c, 0, 80, 48
1, 118836, Note_on_c, 0, 80, 0
1, 118920, Note_on_c, 0, 81, 52
1, 118956, Note_on_c, 0, 81, 0
1, 119040, Note_on_c, 0, 82, 56
1, 119076, Note_on_c, 0, 82, 0
1, 119160, Note_on_c, 0, 83, 60
1, 119196, Note_on_c, 0, 83, 0
1, 119280, Note_on_c, 0, 84, 64
1, 119280, Note_on_c, 1, 63, 56
1, 119400, Note_on_c, 0, 84, 0
1, 119400, Note_on_c, 0, 79, 64
1, 119400, Note_on_c, 1, 67, 56
1, 119520, Note_on_c, 0, 79, 0
1, 119520, Note_on_c, 1, 67, 0
1, 119520, Note_on_c, 1, 72, 56
1, 119640, Note_on_c, 0, 79, 64
1, 119640, Note_on_c, 1, 72, 0
1, 119640, Note_on_c, 1, 67, 56
1, 119760, Note_on_c, 0, 79, 0
1, 119760, Note_on_c, 0, 79, 64
1, 119760, Note_on_c, 1, 67, 0
1, 119760, Note_on_c, 1, 63, 0
1, 119760, Note_on_c, 1, 62, 56
1, 119880, Note_on_c, 0, 79, 0
1, 119880, Note_on_c, 0, 77, 64
1, 119880, Note_on_c, 1, 67, 56
1, 120000, Note_on_c, 0, 77, 0
1, 120000, Note_on_c, 0, 80, 64
1, 120000, Note_on_c, 1, 67, 0
1, 120000, Note_on_c, 1, 71, 56
1, 120120, Note_on_c, 0, 80, 0
1, 120120, Note_on_c, 0, 77, 64
1, 120120, Note_on_c, 1, 71, 0
1, 120120, Note_on_c, 1, 67, 56
1, 120240, Note_on_c, 0, 77, 0
1, 120240, Note_on_c, 0, 77, 64
1, 120240, Note_on_c, 1, 67, 0
1, 120240, Note_on_c, 1, 62, 0
1, 120240, Note_on_c, 1, 60, 56
1, 120360, Note_on_c, 0, 77, 0
1, 120360, Note_on_c, 0, 75, 64
1, 120360, Note_on_c, 1, 63, 56
1, 120480, Note_on_c, 0, 75, 0
1, 120480, Note_on_c, 1, 63, 0
1, 120480, Note_on_c, 1, 67, 56
1, 120600, Note_on_c, 0, 75, 64
1, 120600, Note_on_c, 1, 67, 0
1, 120600, Note_on_c, 1, 63, 56
1, 120720, Note_on_c, 0, 75, 0
1, 120720, Note_on_c, 0, 76, 64
1, 120720, Note_on_c, 1, 63, 0
1, 120720, Note_on_c, 1, 60, 0
1, 120720, Note_on_c, 1, 58, 56
1, 120756, Note_on_c, 0, 76, 0
1, 120840, Note_on_c, 0, 77, 64
1, 120840, Note_on_c, 1, 61, 56
1, 120876, Note_on_c, 0, 77, 0
1, 120960, Note_on_c, 0, 78, 64
1, 120960, Note_on_c, 1, 61, 0
1, 120960, Note_on_c, 1, 67, 56
1, 120996, Note_on_c, 0, 78, 0
1, 121080, Note_on_c, 0, 79, 64
1, 121080, Note_on_c, 1, 67, 0
1, 121080, Note_on_c, 1, 61, 56
1, 121116, Note_on_c, 0, 79, 0
1, 121200, Note_on_c, 0, 80, 64
1, 121200, Note_on_c, 1, 61, 0
1, 121200, Note_on_c, 1, 58, 0
1, 121200, Note_on_c, 1, 56, 56
1, 121320, Note_on_c, 0, 80, 0
1, 121320, Note_on_c, 0, 75, 64
1, 121320, Note_on_c, 1, 60, 56
1, 121440, Note_on_c, 0, 75, 0
1, 121440, Note_on_c, 1, 60, 0
1, 121440, Note_on_c, 1, 63, 56
1, 121560, Note_on_c, 0, 75, 64
1, 121560, Note_on_c, 1, 63, 0
1, 121560, Note_on_c, 1, 60, 56
1, 121680, Note_on_c, 0, 75, 0
1, 121680, Note_on_c, 0, 75, 64
1, 121680, Note_on_c, 1, 60, 0
1, 121680, Note_on_c, 1, 56, 0
1, 121680, Note_on_c, 1, 55, 56
1, 121800, Note_on_c, 0, 75, 0
1, 121800, Note_on_c, 0, 73, 64
1, 121800, Note_on_c, 1, 58, 56
1, 121920, Note_on_c, 0, 73, 0
1, 121920, Note_on_c, 0, 77, 64
1, 121920, Note_on_c, 1, 58, 0
1, 121920, Note_on_c, 1, 63, 56
1, 122040, Note_on_c, 0, 77, 0
1, 122040, Note_on_c, 0, 73, 64
1, 122040, Note_on_c, 1, 63, 0
1, 122040, Note_on_c, 1, 58, 56
1, 122160, Note_on_c, 0, 73, 0
1, 122160, Note_on_c, 0, 72, 64
1, 122160, Note_on_c, 1, 58, 0
1, 122160, Note_on_c, 1, 55, 0
1, 122160, Note_on_c, 1, 56, 64
1, 122196, Note_on_c, 0, 72, 0
1, 122196, Note_on_c, 1, 56, 0
1, 122280, Note_on_c, 0, 84, 64
1, 122280, Note_on_c, 1, 63, 64
1, 122400, Note_on_c, 1, 63, 0
1, 122400, Note_on_c, 1, 55, 64
1, 122520, Note_on_c, 0, 84, 0
1, 122520, Note_on_c, 0, 82, 64
1, 122520, Note_on_c, 1, 55, 0
1, 122520, Note_on_c, 1, 64, 64
1, 122640, Note_on_c, 1, 64, 0
1, 122640, Note_on_c, 1, 53, 64
1, 122760, Note_on_c, 0, 82, 0
1, 122760, Note_on_c, 0, 80, 63
1, 122760, Note_on_c, 1, 53, 0
1, 122760, Note_on_c, 1, 65, 63
1, 122880, Note_on_c, 1, 65, 0
1, 122880, Note_on_c, 1, 55, 62
1, 123000, Note_on_c, 0, 80, 0
1, 123000, Note_on_c, 0, 79, 61
1, 123000, Note_on_c, 1, 55, 0
1, 123000, Note_on_c, 1, 58, 61
1, 123120, Note_on_c, 1, 58, 0
1, 123120, Note_on_c, 1, 56, 60
1, 123240, Note_on_c, 0, 79, 0
1, 123240, Note_on_c, 0, 77, 59
1, 123240, Note_on_c, 1, 56, 0
1, 123240, Note_on_c, 1, 60, 59
1, 123360, Note_on_c, 1, 60, 0
1, 123360, Note_on_c, 1, 56, 58
1, 123480, Note_on_c, 0, 77, 0
1, 123480, Note_on_c, 0, 75, 57
1, 123480, Note_on_c, 1, 56, 0
1, 123480, Note_on_c, 1, 65, 57
1, 123600, Note_on_c, 1, 65, 0
1, 123600, Note_on_c, 1, 58, 56
1, 123720, Note_on_c, 0, 75, 0
1, 123720, Note_on_c, 0, 74, 55
1, 123720, Note_on_c, 1, 58, 0
1, 123720, Note_on_c, 1, 65, 55
1, 123840, Note_on_c, 1, 65, 0
1, 123840, Note_on_c, 1, 60, 54
1, 123960, Note_on_c, 0, 74, 0
1, 123960, Note_on_c, 0, 72, 53
1, 123960, Note_on_c, 1, 60, 0
1, 123960, Note_on_c, 1, 63, 53
1, 124080, Note_on_c, 1, 63, 0
1, 124080, Note_on_c, 1, 62, 52
1, 124200, Note_on_c, 0, 72, 0
1, 124200, Note_on_c, 0, 70, 51
1, 124200, Note_on_c, 1, 62, 0
1, 124200, Note_on_c, 1, 65, 51
1, 124320, Note_on_c, 1, 65, 0
1, 124320, Note_on_c, 1, 63, 50
1, 124440, Note_on_c, 0, 70, 0
1, 124440, Note_on_c, 0, 69, 49
1, 124440, Note_on_c, 1, 63, 0
1, 124440, Note_on_c, 1, 66, 49
1, 124560, Note_on_c, 1, 66, 0
1, 124560, Note_on_c, 1, 62, 48
1, 124680, Note_on_c, 0, 69, 0
1, 124680, Note_on_c, 0, 70, 47
1, 124680, Note_on_c, 1, 62, 0
1, 124680, Note_on_c, 1, 65, 47
1, 124800, Note_on_c, 1, 65, 0
1, 124800, Note_on_c, 1, 63, 46
1, 124920, Note_on_c, 0, 70, 0
1, 124920, Note_on_c, 0, 69, 45
1, 124920, Note_on_c, 1, 63, 0
1, 124920, Note_on_c, 1, 66, 45
1, 125040, Note_on_c, 1, 66, 0
1, 125040, Note_on_c, 1, 62, 44
1, 125160, Note_on_c, 0, 69, 0
1, 125160, Note_on_c, 0, 70, 43
1, 125160, Note_on_c, 1, 62, 0
1, 125160, Note_on_c, 1, 65, 43
1, 125280, Note_on_c, 1, 65, 0
1, 125280, Note_on_c, 1, 63, 42
1, 125400, Note_on_c, 0, 70, 0
1, 125400, Note_on_c, 0, 69, 41
1, 125400, Note_on_c, 1, 63, 0
1, 125400, Note_on_c, 1, 66, 41
1, 125520, Note_on_c, 0, 69, 0
1, 125520, Note_on_c, 0, 70, 40
1, 125520, Note_on_c, 1, 66, 0
1, 125520, Note_on_c, 1, 65, 40
1, 125520, Note_on_c, 1, 62, 40
1, 125640, Note_on_c, 0, 70, 0
1, 125640, Note_on_c, 0, 82, 56
1, 125676, Note_on_c, 0, 82, 0
1, 125760, Note_on_c, 0, 82, 56
1, 125760, Note_on_c, 1, 62, 0
1, 125760, Note_on_c, 1, 65, 0
1, 125796, Note_on_c, 0, 82, 0
1, 125880, Note_on_c, 0, 82, 88
1, 125916, Note_on_c, 0, 82, 0
1, 126000, Note_on_c, 0, 82, 56
1, 126036, Note_on_c, 0, 82, 0
1, 126120, Note_on_c, 0, 82, 56
1, 126156, Note_on_c, 0, 82, 0
1, 126240, Note_on_c, 0, 82, 56
1, 126276, Note_on_c, 0, 82, 0
1, 126360, Note_on_c, 0, 82, 88
1, 126360, Note_on_c, 0, 81, 88
1, 126396, Note_on_c, 0, 81, 0
1, 126396, Note_on_c, 0, 82, 0
1, 126480, Note_on_c, 0, 81, 56
1, 126480, Note_on_c, 0, 82, 56
1, 126516, Note_on_c, 0, 82, 0
1, 126516, Note_on_c, 0, 81, 0
1, 126600, Note_on_c, 0, 81, 56
1, 126600, Note_on_c, 0, 82, 56
1, 126636, Note_on_c, 0, 82, 0
1, 126636, Note_on_c, 0, 81, 0
1, 126720, Note_on_c, 0, 81, 56
1, 126720, Note_on_c, 0, 82, 56
1, 126756, Note_on_c, 0, 82, 0
1, 126756, Note_on_c, 0, 81, 0
1, 126840, Note_on_c, 0, 80, 88
1, 126840, Note_on_c, 0, 82, 88
1, 126840, Note_on_c, 1, 70, 88
1, 126876, Note_on_c, 0, 82, 0
1, 126876, Note_on_c, 0, 80, 0
1, 126960, Note_on_c, 0, 80, 56
1, 126960, Note_on_c, 0, 82, 56
1, 126960, Note_on_c, 1, 70, 0
1, 126960, Note_on_c, 1, 71, 56
1, 126996, Note_on_c, 0, 82, 0
1, 126996, Note_on_c, 0, 80, 0
1, 127080, Note_on_c, 0, 80, 56
1, 127080, Note_on_c, 0, 82, 56
1, 127080, Note_on_c, 1, 71, 0
1, 127080, Note_on_c, 1, 72, 56
1, 127116, Note_on_c, 0, 82, 0
1, 127116, Note_on_c, 0, 80, 0
1, 127200, Note_on_c, 0, 80, 56
1, 127200, Note_on_c, 0, 82, 56
1, 127200, Note_on_c, 1, 72, 0
1, 127200, Note_on_c, 1, 73, 56
1, 127236, Note_on_c, 0, 82, 0
1, 127236, Note_on_c, 0, 80, 0
1, 127320, Note_on_c, 0, 80, 88
1, 127320, Note_on_c, 0, 82, 88
1, 127320, Note_on_c, 1, 73, 0
1, 127320, Note_on_c, 1, 74, 56
1, 127356, Note_on_c, 0, 82, 0
1, 127356, Note_on_c, 0, 80, 0
1, 127440, Note_on_c, 0, 82, 56
1, 127440, Note_on_c, 0, 79, 56
1, 127440, Note_on_c, 1, 74, 0
1, 127440, Note_on_c, 1, 75, 56
1, 127476, Note_on_c, 0, 79, 0
1, 127476, Note_on_c, 0, 82, 0
1, 127560, Note_on_c, 0, 82, 56
1, 127560, Note_on_c, 0, 79, 56
1, 127596, Note_on_c, 0, 79, 0
1, 127596, Note_on_c, 0, 82, 0
1, 127680, Note_on_c, 0, 82, 56
1, 127680, Note_on_c, 0, 79, 56
1, 127716, Note_on_c, 0, 79, 0
1, 127716, Note_on_c, 0, 82, 0
1, 127800, Note_on_c, 0, 70, 88
1, 127800, Note_on_c, 0, 75, 88
1, 127800, Note_on_c, 0, 79, 88
1, 127800, Note_on_c, 1, 75, 0
1, 127800, Note_on_c, 1, 63, 88
1, 127800, Note_on_c, 1, 58, 88
1, 127800, Note_on_c, 1, 55, 88
1, 127800, Note_on_c, 1, 51, 88
1, 127836, Note_on_c, 0, 79, 0
1, 127836, Note_on_c, 0, 75, 0
1, 127836, Note_on_c, 0, 70, 0
1, 127836, Note_on_c, 1, 51, 0
1, 127836, Note_on_c, 1, 63, 0
1, 127836, Note_on_c, 1, 58, 0
1, 127836, Note_on_c, 1, 55, 0
1, 127920, Note_on_c, 0, 79, 88
1, 127920, Note_on_c, 0, 75, 88
1, 127920, Note_on_c, 0, 70, 88
1, 127920, Note_on_c, 1, 63, 88
1, 127920, Note_on_c, 1, 58, 88
1, 127920, Note_on_c, 1, 55, 88
1, 127920, Note_on_c, 1, 51, 88
1, 127956, Note_on_c, 0, 70, 0
1, 127956, Note_on_c, 0, 75, 0
1, 127956, Note_on_c, 0, 79, 0
1, 127956, Note_on_c, 1, 51, 0
1, 127956, Note_on_c, 1, 63, 0
1, 127956, Note_on_c, 1, 58, 0
1, 127956, Note_on_c, 1, 55, 0
1, 128040, Note_on_c, 0, 79, 88
1, 128040, Note_on_c, 0, 75, 88
1, 128040, Note_on_c, 0, 70, 88
1, 128040, Note_on_c, 1, 63, 88
1, 128040, Note_on_c, 1, 58, 88
1, 128040, Note_on_c, 1, 55, 88
1, 128040, Note_on_c, 1, 51, 88
1, 128076, Note_on_c, 0, 70, 0
1, 128076, Note_on_c, 0, 75, 0
1, 128076, Note_on_c, 0, 79, 0
1, 128076, Note_on_c, 1, 51, 0
1, 128076, Note_on_c, 1, 63, 0
1, 128076, Note_on_c, 1, 58, 0
1, 128076, Note_on_c, 1, 55, 0
1, 128160, Note_on_c, 0, 79, 88
1, 128160, Note_on_c, 0, 75, 88
1, 128160, Note_on_c, 0, 70, 88
1, 128160, Note_on_c, 1, 63, 88
1, 128160, Note_on_c, 1, 58, 88
1, 128160, Note_on_c, 1, 55, 88
1, 128160, Note_on_c, 1, 51, 88
1, 128196, Note_on_c, 0, 70, 0
1, 128196, Note_on_c, 0, 75, 0
1, 128196, Note_on_c, 0, 79, 0
1, 128196, Note_on_c, 1, 51, 0
1, 128196, Note_on_c, 1, 63, 0
1, 128196, Note_on_c, 1, 58, 0
1, 128196, Note_on_c, 1, 55, 0
1, 128280, Note_on_c, 0, 79, 88
1, 128280, Note_on_c, 0, 75, 88
1, 128280, Note_on_c, 0, 70, 88
1, 128280, Note_on_c, 1, 63, 88
1, 128280, Note_on_c, 1, 58, 88
1, 128280, Note_on_c, 1, 55, 88
1, 128280, Note_on_c, 1, 51, 88
1, 128316, Note_on_c, 0, 70, 0
1, 128316, Note_on_c, 0, 75, 0
1, 128316, Note_on_c, 0, 79, 0
1, 128316, Note_on_c, 1, 51, 0
1, 128316, Note_on_c, 1, 63, 0
1, 128316, Note_on_c, 1, 58, 0
1, 128316, Note_on_c, 1, 55, 0
1, 128400, Note_on_c, 0, 68, 88
1, 128400, Note_on_c, 0, 70, 88
1, 128400, Note_on_c, 0, 74, 88
1, 128400, Note_on_c, 1, 62, 88
1, 128400, Note_on_c, 1, 58, 88
1, 128400, Note_on_c, 1, 56, 88
1, 128400, Note_on_c, 1, 53, 88
1, 128640, Note_on_c, 0, 74, 0
1, 128640, Note_on_c, 0, 70, 0
1, 128640, Note_on_c, 0, 68, 0
1, 128640, Note_on_c, 0, 67, 72
1, 128640, Note_on_c, 0, 70, 72
1, 128640, Note_on_c, 0, 75, 72
1, 128640, Note_on_c, 1, 53, 0
1, 128640, Note_on_c, 1, 62, 0
1, 128640, Note_on_c, 1, 58, 0
1, 128640, Note_on_c, 1, 56, 0
1, 128640, Note_on_c, 1, 55, 72
1, 128640, Note_on_c, 1, 58, 72
1, 128640, Note_on_c, 1, 63, 72
1, 128676, Note_on_c, 0, 75, 0
1, 128676, Note_on_c, 0, 70, 0
1, 128676, Note_on_c, 0, 67, 0
1, 128676, Note_on_c, 1, 63, 0
1, 128676, Note_on_c, 1, 58, 0
1, 128676, Note_on_c, 1, 55, 0
1, 128760, Note_on_c, 0, 75, 72
1, 128760, Note_on_c, 0, 79, 72
1, 128796, Note_on_c, 0, 79, 0
1, 128796, Note_on_c, 0, 75, 0
1, 128880, Note_on_c, 0, 74, 80
1, 128880, Note_on_c, 0, 77, 80
1, 128880, Note_on_c, 0, 80, 80
1, 128880, Note_on_c, 1, 65, 80
1, 128880, Note_on_c, 1, 58, 80
1, 129120, Note_on_c, 0, 80, 0
1, 129120, Note_on_c, 0, 77, 0
1, 129120, Note_on_c, 0, 74, 0
1, 129120, Note_on_c, 0, 75, 64
1, 129120, Note_on_c, 0, 79, 64
1, 129120, Note_on_c, 1, 58, 0
1, 129120, Note_on_c, 1, 65, 0
1, 129120, Note_on_c, 1, 70, 64
1, 129120, Note_on_c, 1, 63, 64
1, 129156, Note_on_c, 0, 79, 0
1, 129156, Note_on_c, 0, 75, 0
1, 129156, Note_on_c, 1, 63, 0
1, 129156, Note_on_c, 1, 70, 0
1, 129240, Note_on_c, 0, 82, 64
1, 129240, Note_on_c, 0, 79, 64
1, 129276, Note_on_c, 0, 79, 0
1, 129276, Note_on_c, 0, 82, 0
1, 129360, Note_on_c, 0, 77, 72
1, 129360, Note_on_c, 0, 80, 72
1, 129360, Note_on_c, 0, 86, 72
1, 129360, Note_on_c, 1, 65, 72
1, 129360, Note_on_c, 1, 58, 72
1, 129600, Note_on_c, 0, 86, 0
1, 129600, Note_on_c, 0, 80, 0
1, 129600, Note_on_c, 0, 77, 0
1, 129600, Note_on_c, 0, 79, 88
1, 129600, Note_on_c, 0, 87, 88
1, 129600, Note_on_c, 1, 58, 0
1, 129600, Note_on_c, 1, 65, 0
1, 129600, Note_on_c, 1, 67, 88
1, 129600, Note_on_c, 1, 63, 88
1, 129636, Note_on_c, 0, 87, 0
1, 129636, Note_on_c, 0, 79, 0
1, 129636, Note_on_c, 1, 63, 0
1, 129636, Note_on_c, 1, 67, 0
1, 129720, Note_on_c, 0, 79, 88
1, 129720, Note_on_c, 0, 88, 88
1, 129720, Note_on_c, 1, 61, 88
1, 129720, Note_on_c, 1, 70, 88
1, 129756, Note_on_c, 0, 88, 0
1, 129756, Note_on_c, 0, 79, 0
1, 129756, Note_on_c, 1, 70, 0
1, 129756, Note_on_c, 1, 61, 0
1, 129840, Note_on_c, 0, 79, 88
1, 129840, Note_on_c, 0, 88, 88
1, 129840, Note_on_c, 1, 61, 88
1, 129840, Note_on_c, 1, 70, 88
1, 130320, Note_on_c, 0, 88, 0
1, 130320, Note_on_c, 0, 79, 0
1, 130320, Note_on_c, 0, 77, 56
1, 130320, Note_on_c, 0, 89, 56
1, 130320, Note_on_c, 1, 70, 0
1, 130320, Note_on_c, 1, 68, 56
1, 130560, Note_on_c, 0, 89, 0
1, 130560, Note_on_c, 0, 87, 56
1, 130560, Note_on_c, 1, 61, 0
1, 130560, Note_on_c, 1, 60, 56
1, 130800, Note_on_c, 0, 87, 0
1, 130800, Note_on_c, 0, 77, 0
1, 130800, Note_on_c, 0, 77, 56
1, 130800, Note_on_c, 0, 86, 56
1, 130800, Note_on_c, 1, 60, 0
1, 130800, Note_on_c, 1, 68, 0
1, 130800, Note_on_c, 1, 68, 56
1, 130800, Note_on_c, 1, 58, 56
1, 131280, Note_on_c, 0, 86, 0
1, 131280, Note_on_c, 0, 77, 0
1, 131280, Note_on_c, 0, 75, 56
1, 131280, Note_on_c, 0, 87, 56
1, 131280, Note_on_c, 1, 58, 0
1, 131280, Note_on_c, 1, 68, 0
1, 131280, Note_on_c, 1, 60, 56
1, 131280, Note_on_c, 1, 67, 56
1, 132000, Note_on_c, 0, 87, 0
1, 132000, Note_on_c, 0, 75, 0
1, 132000, Note_on_c, 0, 75, 48
1, 132000, Note_on_c, 0, 83, 48
1, 132000, Note_on_c, 1, 67, 0
1, 132000, Note_on_c, 1, 60, 0
1, 132000, Note_on_c, 1, 79, 48
1, 132240, Note_on_c, 0, 83, 0
1, 132240, Note_on_c, 0, 75, 0
1, 132240, Note_on_c, 0, 75, 48
1, 132240, Note_on_c, 0, 83, 48
1, 132240, Note_on_c, 1, 79, 0
1, 132240, Note_on_c, 1, 79, 48
1, 132720, Note_on_c, 0, 83, 0
1, 132720, Note_on_c, 0, 75, 0
1, 132720, Note_on_c, 0, 75, 48
1, 132720, Note_on_c, 0, 84, 48
1, 132720, Note_on_c, 1, 79, 0
1, 132720, Note_on_c, 1, 80, 48
1, 132960, Note_on_c, 0, 84, 0
1, 132960, Note_on_c, 0, 75, 0
1, 132960, Note_on_c, 0, 76, 80
1, 132960, Note_on_c, 0, 84, 80
1, 132960, Note_on_c, 1, 80, 0
1, 132960, Note_on_c, 1, 56, 80
1, 132960, Note_on_c, 1, 68, 80
1, 133200, Note_on_c, 0, 84, 0
1, 133200, Note_on_c, 0, 76, 0
1, 133200, Note_on_c, 0, 76, 80
1, 133200, Note_on_c, 0, 84, 80
1, 133200, Note_on_c, 1, 68, 0
1, 133200, Note_on_c, 1, 56, 0
1, 133200, Note_on_c, 1, 56, 80
1, 133200, Note_on_c, 1, 68, 80
1, 133680, Note_on_c, 0, 76, 0
1, 133680, Note_on_c, 0, 79, 64
1, 133800, Note_on_c, 0, 79, 0
1, 133800, Note_on_c, 0, 77, 66
1, 133920, Note_on_c, 0, 77, 0
1, 133920, Note_on_c, 0, 80, 68
1, 134040, Note_on_c, 0, 80, 0
1, 134040, Note_on_c, 0, 79, 70
1, 134160, Note_on_c, 0, 79, 0
1, 134160, Note_on_c, 0, 82, 72
1, 134280, Note_on_c, 0, 82, 0
1, 134280, Note_on_c, 0, 80, 74
1, 134400, Note_on_c, 0, 80, 0
1, 134400, Note_on_c, 0, 84, 0
1, 134400, Note_on_c, 0, 85, 76
1, 134400, Note_on_c, 0, 82, 76
1, 134436, Note_on_c, 0, 82, 0
1, 134436, Note_on_c, 0, 85, 0
1, 134520, Note_on_c, 0, 84, 78
1, 134520, Note_on_c, 0, 80, 78
1, 134556, Note_on_c, 0, 80, 0
1, 134556, Note_on_c, 0, 84, 0
1, 134640, Note_on_c, 0, 79, 80
1, 134640, Note_on_c, 0, 83, 80
1, 134760, Note_on_c, 0, 83, 0
1, 134760, Note_on_c, 0, 79, 0
1, 134760, Note_on_c, 0, 80, 80
1, 134760, Note_on_c, 0, 84, 80
1, 134880, Note_on_c, 0, 84, 0
1, 134880, Note_on_c, 0, 80, 0
1, 134880, Note_on_c, 0, 79, 80
1, 134880, Note_on_c, 0, 82, 80
1, 135000, Note_on_c, 0, 82, 0
1, 135000, Note_on_c, 0, 79, 0
1, 135000, Note_on_c, 0, 77, 80
1, 135000, Note_on_c, 0, 80, 80
1, 135120, Note_on_c, 0, 80, 0
1, 135120, Note_on_c, 0, 77, 0
1, 135120, Note_on_c, 0, 75, 80
1, 135120, Note_on_c, 0, 79, 80
1, 135120, Note_on_c, 1, 68, 0
1, 135120, Note_on_c, 1, 56, 0
1, 135120, Note_on_c, 1, 58, 80
1, 135120, Note_on_c, 1, 70, 80
1, 135480, Note_on_c, 0, 79, 0
1, 135480, Note_on_c, 0, 75, 0
1, 135480, Note_on_c, 0, 82, 80
1, 135480, Note_on_c, 0, 79, 80
1, 135600, Note_on_c, 0, 79, 0
1, 135600, Note_on_c, 0, 82, 0
1, 135600, Note_on_c, 0, 79, 80
1, 135600, Note_on_c, 0, 82, 80
1, 135720, Note_on_c, 0, 82, 0
1, 135720, Note_on_c, 0, 79, 0
1, 135720, Note_on_c, 0, 77, 80
1, 135720, Note_on_c, 0, 80, 80
1, 135756, Note_on_c, 0, 80, 0
1, 135756, Note_on_c, 0, 77, 0
1, 135840, Note_on_c, 0, 75, 80
1, 135840, Note_on_c, 0, 79, 80
1, 135876, Note_on_c, 0, 79, 0
1, 135876, Note_on_c, 0, 75, 0
1, 135960, Note_on_c, 0, 74, 80
1, 135960, Note_on_c, 0, 77, 80
1, 135996, Note_on_c, 0, 77, 0
1, 135996, Note_on_c, 0, 74, 0
1, 136080, Note_on_c, 0, 75, 80
1, 136080, Note_on_c, 1, 70, 0
1, 136080, Note_on_c, 1, 58, 0
1, 136140, Note_on_c, 0, 75, 0
1, 136140, Note_on_c, 0, 79, 80
1, 136200, Note_on_c, 0, 79, 0
1, 136200, Note_on_c, 0, 75, 80
1, 136260, Note_on_c, 0, 75, 0
1, 136260, Note_on_c, 0, 70, 80
1, 136320, Note_on_c, 0, 70, 0
1, 136320, Note_on_c, 0, 67, 80
1, 136380, Note_on_c, 0, 67, 0
1, 136380, Note_on_c, 0, 63, 80
1, 136440, Note_on_c, 0, 63, 0
1, 136440, Note_on_c, 1, 51, 80
1, 136500, Note_on_c, 1, 51, 0
1, 136500, Note_on_c, 1, 63, 80
1, 136560, Note_on_c, 0, 74, 80
1, 136560, Note_on_c, 1, 63, 0
1, 136620, Note_on_c, 0, 74, 0
1, 136620, Note_on_c, 0, 80, 80
1, 136680, Note_on_c, 0, 80, 0
1, 136680, Note_on_c, 0, 77, 80
1, 136740, Note_on_c, 0, 77, 0
1, 136740, Note_on_c, 0, 74, 80
1, 136800, Note_on_c, 0, 74, 0
1, 136800, Note_on_c, 0, 70, 80
1, 136860, Note_on_c, 0, 70, 0
1, 136860, Note_on_c, 0, 68, 80
1, 136920, Note_on_c, 0, 68, 0
1, 136920, Note_on_c, 1, 62, 80
1, 136980, Note_on_c, 1, 62, 0
1, 136980, Note_on_c, 1, 65, 80
1, 137040, Note_on_c, 0, 75, 80
1, 137040, Note_on_c, 1, 65, 0
1, 137100, Note_on_c, 0, 75, 0
1, 137100, Note_on_c, 0, 79, 80
1, 137160, Note_on_c, 0, 79, 0
1, 137160, Note_on_c, 0, 75, 80
1, 137220, Note_on_c, 0, 75, 0
1, 137220, Note_on_c, 0, 70, 80
1, 137280, Note_on_c, 0, 70, 0
1, 137280, Note_on_c, 0, 67, 80
1, 137340, Note_on_c, 0, 67, 0
1, 137340, Note_on_c, 0, 63, 80
1, 137400, Note_on_c, 0, 63, 0
1, 137400, Note_on_c, 1, 51, 80
1, 137460, Note_on_c, 1, 51, 0
1, 137460, Note_on_c, 1, 63, 80
1, 137520, Note_on_c, 0, 74, 80
1, 137520, Note_on_c, 1, 63, 0
1, 137580, Note_on_c, 0, 74, 0
1, 137580, Note_on_c, 0, 80, 80
1, 137640, Note_on_c, 0, 80, 0
1, 137640, Note_on_c, 0, 77, 80
1, 137700, Note_on_c, 0, 77, 0
1, 137700, Note_on_c, 0, 74, 80
1, 137760, Note_on_c, 0, 74, 0
1, 137760, Note_on_c, 0, 70, 80
1, 137820, Note_on_c, 0, 70, 0
1, 137820, Note_on_c, 0, 68, 80
1, 137880, Note_on_c, 0, 68, 0
1, 137880, Note_on_c, 1, 62, 80
1, 137940, Note_on_c, 1, 62, 0
1, 137940, Note_on_c, 1, 65, 80
1, 138000, Note_on_c, 0, 82, 80
1, 138000, Note_on_c, 1, 65, 0
1, 138060, Note_on_c, 0, 82, 0
1, 138060, Note_on_c, 0, 75, 80
1, 138120, Note_on_c, 0, 75, 0
1, 138120, Note_on_c, 0, 67, 80
1, 138180, Note_on_c, 0, 67, 0
1, 138180, Note_on_c, 0, 75, 80
1, 138240, Note_on_c, 0, 75, 0
1, 138240, Note_on_c, 0, 84, 80
1, 138300, Note_on_c, 0, 84, 0
1, 138300, Note_on_c, 0, 75, 80
1, 138360, Note_on_c, 0, 75, 0
1, 138360, Note_on_c, 0, 68, 80
1, 138420, Note_on_c, 0, 68, 0
1, 138420, Note_on_c, 0, 75, 80
1, 138480, Note_on_c, 0, 75, 0
1, 138480, Note_on_c, 0, 86, 80
1, 138540, Note_on_c, 0, 86, 0
1, 138540, Note_on_c, 0, 75, 80
1, 138600, Note_on_c, 0, 75, 0
1, 138600, Note_on_c, 0, 70, 80
1, 138660, Note_on_c, 0, 70, 0
1, 138660, Note_on_c, 0, 75, 80
1, 138720, Note_on_c, 0, 75, 0
1, 138720, Note_on_c, 0, 87, 80
1, 138780, Note_on_c, 0, 87, 0
1, 138780, Note_on_c, 0, 75, 80
1, 138840, Note_on_c, 0, 75, 0
1, 138840, Note_on_c, 0, 72, 80
1, 138900, Note_on_c, 0, 72, 0
1, 138900, Note_on_c, 0, 75, 80
1, 138960, Note_on_c, 0, 75, 0
1, 138960, Note_on_c, 0, 82, 80
1, 139020, Note_on_c, 0, 82, 0
1, 139020, Note_on_c, 0, 75, 80
1, 139080, Note_on_c, 0, 75, 0
1, 139080, Note_on_c, 0, 67, 80
1, 139140, Note_on_c, 0, 67, 0
1, 139140, Note_on_c, 0, 75, 80
1, 139200, Note_on_c, 0, 75, 0
1, 139200, Note_on_c, 0, 84, 80
1, 139260, Note_on_c, 0, 84, 0
1, 139260, Note_on_c, 0, 75, 80
1, 139320, Note_on_c, 0, 75, 0
1, 139320, Note_on_c, 0, 68, 80
1, 139380, Note_on_c, 0, 68, 0
1, 139380, Note_on_c, 0, 75, 80
1, 139440, Note_on_c, 0, 75, 0
1, 139440, Note_on_c, 0, 86, 80
1, 139500, Note_on_c, 0, 86, 0
1, 139500, Note_on_c, 0, 75, 80
1, 139560, Note_on_c, 0, 75, 0
1, 139560, Note_on_c, 0, 70, 80
1, 139620, Note_on_c, 0, 70, 0
1, 139620, Note_on_c, 0, 75, 80
1, 139680, Note_on_c, 0, 75, 0
1, 139680, Note_on_c, 0, 87, 80
1, 139740, Note_on_c, 0, 87, 0
1, 139740, Note_on_c, 0, 75, 80
1, 139800, Note_on_c, 0, 75, 0
1, 139800, Note_on_c, 0, 72, 80
1, 139860, Note_on_c, 0, 72, 0
1, 139860, Note_on_c, 0, 75, 80
1, 139920, Note_on_c, 0, 75, 0
1, 139920, Note_on_c, 0, 85, 80
1, 139980, Note_on_c, 0, 85, 0
1, 139980, Note_on_c, 0, 75, 80
1, 140040, Note_on_c, 0, 75, 0
1, 140040, Note_on_c, 0, 67, 80
1, 140100, Note_on_c, 0, 67, 0
1, 140100, Note_on_c, 0, 75, 80
1, 140160, Note_on_c, 0, 75, 0
1, 140160, Note_on_c, 0, 84, 80
1, 140220, Note_on_c, 0, 84, 0
1, 140220, Note_on_c, 0, 75, 80
1, 140280, Note_on_c, 0, 75, 0
1, 140280, Note_on_c, 0, 68, 80
1, 140340, Note_on_c, 0, 68, 0
1, 140340, Note_on_c, 0, 75, 80
1, 140400, Note_on_c, 0, 75, 0
1, 140400, Note_on_c, 0, 82, 80
1, 140460, Note_on_c, 0, 82, 0
1, 140460, Note_on_c, 0, 72, 80
1, 140520, Note_on_c, 0, 72, 0
1, 140520, Note_on_c, 0, 64, 80
1, 140580, Note_on_c, 0, 64, 0
1, 140580, Note_on_c, 0, 72, 80
1, 140640, Note_on_c, 0, 72, 0
1, 140640, Note_on_c, 0, 80, 80
1, 140700, Note_on_c, 0, 80, 0
1, 140700, Note_on_c, 0, 72, 80
1, 140760, Note_on_c, 0, 72, 0
1, 140760, Note_on_c, 0, 65, 80
1, 140820, Note_on_c, 0, 65, 0
1, 140820, Note_on_c, 0, 72, 80
1, 140880, Note_on_c, 0, 72, 0
1, 140880, Note_on_c, 0, 76, 80
1, 140940, Note_on_c, 0, 76, 0
1, 140940, Note_on_c, 0, 72, 80
1, 141000, Note_on_c, 0, 72, 0
1, 141000, Note_on_c, 0, 67, 80
1, 141060, Note_on_c, 0, 67, 0
1, 141060, Note_on_c, 0, 72, 80
1, 141120, Note_on_c, 0, 72, 0
1, 141120, Note_on_c, 0, 77, 80
1, 141180, Note_on_c, 0, 77, 0
1, 141180, Note_on_c, 0, 72, 80
1, 141240, Note_on_c, 0, 72, 0
1, 141240, Note_on_c, 0, 68, 80
1, 141300, Note_on_c, 0, 68, 0
1, 141300, Note_on_c, 0, 72, 80
1, 141360, Note_on_c, 0, 72, 0
1, 141360, Note_on_c, 0, 84, 80
1, 141420, Note_on_c, 0, 84, 0
1, 141420, Note_on_c, 0, 75, 80
1, 141480, Note_on_c, 0, 75, 0
1, 141480, Note_on_c, 0, 69, 80
1, 141540, Note_on_c, 0, 69, 0
1, 141540, Note_on_c, 0, 75, 80
1, 141600, Note_on_c, 0, 75, 0
1, 141600, Note_on_c, 0, 87, 80
1, 141660, Note_on_c, 0, 87, 0
1, 141660, Note_on_c, 0, 75, 80
1, 141720, Note_on_c, 0, 75, 0
1, 141720, Note_on_c, 0, 69, 80
1, 141780, Note_on_c, 0, 69, 0
1, 141780, Note_on_c, 0, 75, 80
1, 141840, Note_on_c, 0, 75, 0
1, 141840, Note_on_c, 0, 86, 80
1, 141900, Note_on_c, 0, 86, 0
1, 141900, Note_on_c, 0, 74, 81
1, 141960, Note_on_c, 0, 74, 0
1, 141960, Note_on_c, 0, 70, 82
1, 142020, Note_on_c, 0, 70, 0
1, 142020, Note_on_c, 0, 58, 83
1, 142080, Note_on_c, 0, 58, 0
1, 142080, Note_on_c, 0, 82, 84
1, 142140, Note_on_c, 0, 82, 0
1, 142140, Note_on_c, 0, 70, 85
1, 142200, Note_on_c, 1, 65, 86
1, 142260, Note_on_c, 1, 65, 0
1, 142260, Note_on_c, 1, 53, 86
1, 142296, Note_on_c, 0, 70, 0
1, 142320, Note_on_c, 0, 77, 88
1, 142380, Note_on_c, 0, 77, 0
1, 142380, Note_on_c, 0, 65, 89
1, 142416, Note_on_c, 1, 53, 0
1, 142440, Note_on_c, 1, 62, 90
1, 142488, Note_on_c, 1, 62, 0
1, 142500, Note_on_c, 1, 50, 91
1, 142536, Note_on_c, 0, 65, 0
1, 142560, Note_on_c, 0, 74, 92
1, 142608, Note_on_c, 0, 74, 0
1, 142620, Note_on_c, 0, 62, 93
1, 142656, Note_on_c, 1, 50, 0
1, 142680, Note_on_c, 1, 58, 94
1, 142728, Note_on_c, 1, 58, 0
1, 142740, Note_on_c, 1, 46, 95
1, 142776, Note_on_c, 0, 62, 0
1, 142788, Note_on_c, 1, 46, 0
1, 142800, Note_on_c, 1, 34, 96
1, 142800, Note_on_c, 1, 46, 96
1, 143160, Note_on_c, 1, 46, 0
1, 143160, Note_on_c, 1, 34, 0
1, 143160, Note_on_c, 1, 56, 56
1, 143196, Note_on_c, 1, 56, 0
1, 143280, Note_on_c, 1, 56, 56
1, 143316, Note_on_c, 1, 56, 0
1, 143400, Note_on_c, 1, 56, 56
1, 143436, Note_on_c, 1, 56, 0
1, 143520, Note_on_c, 1, 56, 56
1, 143556, Note_on_c, 1, 56, 0
1, 143640, Note_on_c, 0, 65, 88
1, 143640, Note_on_c, 1, 56, 88
1, 143676, Note_on_c, 1, 56, 0
1, 143760, Note_on_c, 0, 65, 0
1, 143760, Note_on_c, 0, 58, 56
1, 143760, Note_on_c, 1, 56, 56
1, 143796, Note_on_c, 1, 56, 0
1, 143880, Note_on_c, 0, 58, 0
1, 143880, Note_on_c, 0, 59, 56
1, 143880, Note_on_c, 1, 56, 56
1, 143916, Note_on_c, 1, 56, 0
1, 144000, Note_on_c, 0, 59, 0
1, 144000, Note_on_c, 0, 58, 56
1, 144000, Note_on_c, 1, 56, 56
1, 144036, Note_on_c, 0, 58, 0
1, 144036, Note_on_c, 1, 56, 0
1, 144120, Note_on_c, 0, 68, 88
1, 144120, Note_on_c, 1, 56, 88
1, 144156, Note_on_c, 0, 68, 0
1, 144156, Note_on_c, 1, 56, 0
1, 144240, Note_on_c, 0, 62, 56
1, 144240, Note_on_c, 1, 56, 56
1, 144276, Note_on_c, 1, 56, 0
1, 144360, Note_on_c, 0, 62, 0
1, 144360, Note_on_c, 0, 63, 56
1, 144360, Note_on_c, 1, 56, 56
1, 144396, Note_on_c, 1, 56, 0
1, 144480, Note_on_c, 0, 63, 0
1, 144480, Note_on_c, 0, 62, 56
1, 144480, Note_on_c, 1, 56, 56
1, 144516, Note_on_c, 0, 62, 0
1, 144516, Note_on_c, 1, 56, 0
1, 144600, Note_on_c, 0, 71, 88
1, 144600, Note_on_c, 1, 56, 88
1, 144636, Note_on_c, 0, 71, 0
1, 144636, Note_on_c, 1, 56, 0
1, 144720, Note_on_c, 0, 65, 56
1, 144720, Note_on_c, 1, 56, 56
1, 144756, Note_on_c, 1, 56, 0
1, 144840, Note_on_c, 0, 65, 0
1, 144840, Note_on_c, 0, 66, 56
1, 144840, Note_on_c, 1, 56, 56
1, 144876, Note_on_c, 1, 56, 0
1, 144960, Note_on_c, 0, 66, 0
1, 144960, Note_on_c, 0, 65, 56
1, 144960, Note_on_c, 1, 56, 56
1, 144996, Note_on_c, 0, 65, 0
1, 144996, Note_on_c, 1, 56, 0
1, 145080, Note_on_c, 0, 74, 88
1, 145080, Note_on_c, 1, 56, 88
1, 145116, Note_on_c, 0, 74, 0
1, 145116, Note_on_c, 1, 56, 0
1, 145200, Note_on_c, 0, 70, 56
1, 145200, Note_on_c, 1, 56, 56
1, 145236, Note_on_c, 1, 56, 0
1, 145320, Note_on_c, 0, 70, 0
1, 145320, Note_on_c, 0, 71, 56
1, 145320, Note_on_c, 1, 56, 56
1, 145356, Note_on_c, 1, 56, 0
1, 145440, Note_on_c, 0, 71, 0
1, 145440, Note_on_c, 0, 70, 56
1, 145440, Note_on_c, 1, 56, 56
1, 145476, Note_on_c, 0, 70, 0
1, 145476, Note_on_c, 1, 56, 0
1, 145560, Note_on_c, 0, 82, 88
1, 145560, Note_on_c, 1, 56, 88
1, 145596, Note_on_c, 0, 82, 0
1, 145596, Note_on_c, 1, 56, 0
1, 145680, Note_on_c, 1, 55, 56
1, 145716, Note_on_c, 1, 55, 0
1, 145800, Note_on_c, 0, 79, 56
1, 145800, Note_on_c, 0, 82, 56
1, 145836, Note_on_c, 0, 82, 0
1, 145836, Note_on_c, 0, 79, 0
1, 145920, Note_on_c, 1, 56, 56
1, 145956, Note_on_c, 1, 56, 0
1, 146040, Note_on_c, 0, 77, 56
1, 146040, Note_on_c, 0, 80, 56
1, 146076, Note_on_c, 0, 80, 0
1, 146076, Note_on_c, 0, 77, 0
1, 146160, Note_on_c, 1, 58, 56
1, 146196, Note_on_c, 1, 58, 0
1, 146280, Note_on_c, 0, 75, 56
1, 146280, Note_on_c, 0, 79, 56
1, 146316, Note_on_c, 0, 79, 0
1, 146316, Note_on_c, 0, 75, 0
1, 146400, Note_on_c, 1, 46, 56
1, 146436, Note_on_c, 1, 46, 0
1, 146520, Note_on_c, 0, 74, 56
1, 146520, Note_on_c, 0, 77, 56
1, 146556, Note_on_c, 0, 77, 0
1, 146556, Note_on_c, 0, 74, 0
1, 146640, Note_on_c, 0, 75, 56
1, 146640, Note_on_c, 1, 51, 56
1, 146760, Note_on_c, 0, 75, 0
1, 146760, Note_on_c, 0, 68, 56
1, 146796, Note_on_c, 0, 68, 0
1, 146880, Note_on_c, 0, 68, 56
1, 146880, Note_on_c, 1, 51, 0
1, 146916, Note_on_c, 0, 68, 0
1, 147000, Note_on_c, 0, 68, 56
1, 147036, Note_on_c, 0, 68, 0
1, 147120, Note_on_c, 0, 68, 56
1, 147156, Note_on_c, 0, 68, 0
1, 147240, Note_on_c, 0, 68, 56
1, 147276, Note_on_c, 0, 68, 0
1, 147360, Note_on_c, 0, 68, 56
1, 147396, Note_on_c, 0, 68, 0
1, 147480, Note_on_c, 0, 68, 56
1, 147480, Note_on_c, 1, 53, 88
1, 147516, Note_on_c, 0, 68, 0
1, 147516, Note_on_c, 1, 53, 0
1, 147600, Note_on_c, 0, 68, 40
1, 147600, Note_on_c, 1, 46, 56
1, 147632, Note_on_c, 0, 68, 0
1, 147640, Note_on_c, 0, 70, 40
1, 147672, Note_on_c, 0, 70, 0
1, 147680, Note_on_c, 0, 68, 40
1, 147712, Note_on_c, 0, 68, 0
1, 147720, Note_on_c, 0, 70, 40
1, 147720, Note_on_c, 1, 46, 0
1, 147720, Note_on_c, 1, 47, 56
1, 147752, Note_on_c, 0, 70, 0
1, 147760, Note_on_c, 0, 68, 40
1, 147792, Note_on_c, 0, 68, 0
1, 147800, Note_on_c, 0, 70, 40
1, 147832, Note_on_c, 0, 70, 0
1, 147840, Note_on_c, 0, 68, 40
1, 147840, Note_on_c, 1, 47, 0
1, 147840, Note_on_c, 1, 46, 56
1, 147872, Note_on_c, 0, 68, 0
1, 147876, Note_on_c, 1, 46, 0
1, 147880, Note_on_c, 0, 70, 40
1, 147912, Note_on_c, 0, 70, 0
1, 147920, Note_on_c, 0, 68, 40
1, 147952, Note_on_c, 0, 68, 0
1, 147960, Note_on_c, 0, 70, 40
1, 147960, Note_on_c, 1, 56, 88
1, 147992, Note_on_c, 0, 70, 0
1, 147996, Note_on_c, 1, 56, 0
1, 148000, Note_on_c, 0, 68, 40
1, 148032, Note_on_c, 0, 68, 0
1, 148040, Note_on_c, 0, 70, 40
1, 148072, Note_on_c, 0, 70, 0
1, 148080, Note_on_c, 0, 68, 40
1, 148080, Note_on_c, 1, 50, 56
1, 148112, Note_on_c, 0, 68, 0
1, 148120, Note_on_c, 0, 70, 40
1, 148152, Note_on_c, 0, 70, 0
1, 148160, Note_on_c, 0, 68, 40
1, 148192, Note_on_c, 0, 68, 0
1, 148200, Note_on_c, 0, 70, 40
1, 148200, Note_on_c, 1, 50, 0
1, 148200, Note_on_c, 1, 51, 56
1, 148232, Note_on_c, 0, 70, 0
1, 148240, Note_on_c, 0, 68, 40
1, 148272, Note_on_c, 0, 68, 0
1, 148280, Note_on_c, 0, 70, 40
1, 148312, Note_on_c, 0, 70, 0
1, 148320, Note_on_c, 0, 68, 40
1, 148320, Note_on_c, 1, 51, 0
1, 148320, Note_on_c, 1, 50, 56
1, 148352, Note_on_c, 0, 68, 0
1, 148356, Note_on_c, 1, 50, 0
1, 148360, Note_on_c, 0, 70, 40
1, 148392, Note_on_c, 0, 70, 0
1, 148400, Note_on_c, 0, 68, 40
1, 148432, Note_on_c, 0, 68, 0
1, 148440, Note_on_c, 0, 70, 40
1, 148440, Note_on_c, 1, 59, 88
1, 148472, Note_on_c, 0, 70, 0
1, 148476, Note_on_c, 1, 59, 0
1, 148480, Note_on_c, 0, 68, 40
1, 148512, Note_on_c, 0, 68, 0
1, 148520, Note_on_c, 0, 70, 40
1, 148552, Note_on_c, 0, 70, 0
1, 148560, Note_on_c, 0, 68, 40
1, 148560, Note_on_c, 1, 53, 56
1, 148592, Note_on_c, 0, 68, 0
1, 148600, Note_on_c, 0, 70, 41
1, 148632, Note_on_c, 0, 70, 0
1, 148640, Note_on_c, 0, 68, 43
1, 148672, Note_on_c, 0, 68, 0
1, 148680, Note_on_c, 0, 70, 44
1, 148680, Note_on_c, 1, 53, 0
1, 148680, Note_on_c, 1, 54, 56
1, 148712, Note_on_c, 0, 70, 0
1, 148720, Note_on_c, 0, 68, 45
1, 148752, Note_on_c, 0, 68, 0
1, 148760, Note_on_c, 0, 70, 47
1, 148792, Note_on_c, 0, 70, 0
1, 148800, Note_on_c, 0, 68, 48
1, 148800, Note_on_c, 1, 54, 0
1, 148800, Note_on_c, 1, 53, 56
1, 148832, Note_on_c, 0, 68, 0
1, 148836, Note_on_c, 1, 53, 0
1, 148840, Note_on_c, 0, 70, 49
1, 148872, Note_on_c, 0, 70, 0
1, 148880, Note_on_c, 0, 68, 51
1, 148912, Note_on_c, 0, 68, 0
1, 148920, Note_on_c, 0, 70, 52
1, 148920, Note_on_c, 1, 62, 88
1, 148952, Note_on_c, 0, 70, 0
1, 148956, Note_on_c, 1, 62, 0
1, 148960, Note_on_c, 0, 68, 53
1, 148992, Note_on_c, 0, 68, 0
1, 149000, Note_on_c, 0, 70, 55
1, 149032, Note_on_c, 0, 70, 0
1, 149040, Note_on_c, 0, 68, 56
1, 149040, Note_on_c, 1, 58, 56
1, 149072, Note_on_c, 0, 68, 0
1, 149080, Note_on_c, 0, 70, 58
1, 149112, Note_on_c, 0, 70, 0
1, 149120, Note_on_c, 0, 68, 60
1, 149152, Note_on_c, 0, 68, 0
1, 149160, Note_on_c, 0, 70, 62
1, 149160, Note_on_c, 1, 58, 0
1, 149160, Note_on_c, 1, 59, 56
1, 149192, Note_on_c, 0, 70, 0
1, 149200, Note_on_c, 0, 68, 64
1, 149232, Note_on_c, 0, 68, 0
1, 149240, Note_on_c, 0, 70, 66
1, 149272, Note_on_c, 0, 70, 0
1, 149280, Note_on_c, 0, 68, 68
1, 149280, Note_on_c, 1, 59, 0
1, 149280, Note_on_c, 1, 58, 56
1, 149312, Note_on_c, 0, 68, 0
1, 149316, Note_on_c, 1, 58, 0
1, 149320, Note_on_c, 0, 70, 70
1, 149352, Note_on_c, 0, 70, 0
1, 149360, Note_on_c, 0, 68, 72
1, 149392, Note_on_c, 0, 68, 0
1, 149400, Note_on_c, 0, 70, 74
1, 149400, Note_on_c, 1, 62, 88
1, 149432, Note_on_c, 0, 70, 0
1, 149436, Note_on_c, 1, 62, 0
1, 149440, Note_on_c, 0, 68, 76
1, 149472, Note_on_c, 0, 68, 0
1, 149480, Note_on_c, 0, 70, 78
1, 149512, Note_on_c, 0, 70, 0
1, 149520, Note_on_c, 0, 67, 80
1, 149520, Note_on_c, 1, 63, 80
1, 149580, Note_on_c, 0, 67, 0
1, 149580, Note_on_c, 0, 75, 80
1, 149640, Note_on_c, 0, 75, 0
1, 149640, Note_on_c, 0, 67, 80
1, 149640, Note_on_c, 1, 63, 0
1, 149640, Note_on_c, 1, 51, 80
1, 149700, Note_on_c, 0, 67, 0
1, 149700, Note_on_c, 0, 75, 80
1, 149760, Note_on_c, 0, 75, 0
1, 149760, Note_on_c, 0, 68, 80
1, 149760, Note_on_c, 1, 51, 0
1, 149760, Note_on_c, 1, 63, 80
1, 149820, Note_on_c, 0, 68, 0
1, 149820, Note_on_c, 0, 74, 80
1, 149880, Note_on_c, 0, 74, 0
1, 149880, Note_on_c, 0, 68, 80
1, 149880, Note_on_c, 1, 63, 0
1, 149880, Note_on_c, 1, 51, 80
1, 149940, Note_on_c, 0, 68, 0
1, 149940, Note_on_c, 0, 74, 80
1, 150000, Note_on_c, 0, 74, 0
1, 150000, Note_on_c, 0, 74, 80
1, 150000, Note_on_c, 1, 51, 0
1, 150000, Note_on_c, 1, 63, 80
1, 150060, Note_on_c, 0, 74, 0
1, 150060, Note_on_c, 0, 80, 80
1, 150120, Note_on_c, 0, 80, 0
1, 150120, Note_on_c, 0, 74, 80
1, 150120, Note_on_c, 1, 63, 0
1, 150120, Note_on_c, 1, 51, 80
1, 150180, Note_on_c, 0, 74, 0
1, 150180, Note_on_c, 0, 80, 80
1, 150240, Note_on_c, 0, 80, 0
1, 150240, Note_on_c, 0, 75, 80
1, 150240, Note_on_c, 1, 51, 0
1, 150240, Note_on_c, 1, 63, 80
1, 150300, Note_on_c, 0, 75, 0
1, 150300, Note_on_c, 0, 79, 80
1, 150360, Note_on_c, 0, 79, 0
1, 150360, Note_on_c, 0, 75, 80
1, 150360, Note_on_c, 1, 63, 0
1, 150360, Note_on_c, 1, 51, 80
1, 150420, Note_on_c, 0, 75, 0
1, 150420, Note_on_c, 0, 79, 80
1, 150480, Note_on_c, 0, 79, 0
1, 150480, Note_on_c, 0, 80, 80
1, 150480, Note_on_c, 1, 51, 0
1, 150480, Note_on_c, 1, 63, 80
1, 150540, Note_on_c, 0, 80, 0
1, 150540, Note_on_c, 0, 84, 80
1, 150600, Note_on_c, 0, 84, 0
1, 150600, Note_on_c, 0, 80, 80
1, 150600, Note_on_c, 1, 63, 0
1, 150600, Note_on_c, 1, 51, 80
1, 150660, Note_on_c, 0, 80, 0
1, 150660, Note_on_c, 0, 84, 80
1, 150720, Note_on_c, 0, 84, 0
1, 150720, Note_on_c, 0, 79, 80
1, 150720, Note_on_c, 1, 51, 0
1, 150720, Note_on_c, 1, 63, 80
1, 150780, Note_on_c, 0, 79, 0
1, 150780, Note_on_c, 0, 82, 80
1, 150840, Note_on_c, 0, 82, 0
1, 150840, Note_on_c, 0, 79, 80
1, 150840, Note_on_c, 1, 63, 0
1, 150840, Note_on_c, 1, 51, 80
1, 150900, Note_on_c, 0, 79, 0
1, 150900, Note_on_c, 0, 82, 80
1, 150960, Note_on_c, 0, 82, 0
1, 150960, Note_on_c, 0, 80, 80
1, 150960, Note_on_c, 1, 51, 0
1, 150960, Note_on_c, 1, 63, 80
1, 151020, Note_on_c, 0, 80, 0
1, 151020, Note_on_c, 0, 86, 80
1, 151080, Note_on_c, 0, 86, 0
1, 151080, Note_on_c, 0, 80, 80
1, 151080, Note_on_c, 1, 63, 0
1, 151080, Note_on_c, 1, 51, 80
1, 151140, Note_on_c, 0, 80, 0
1, 151140, Note_on_c, 0, 86, 80
1, 151200, Note_on_c, 0, 86, 0
1, 151200, Note_on_c, 0, 79, 80
1, 151200, Note_on_c, 1, 51, 0
1, 151200, Note_on_c, 1, 63, 80
1, 151260, Note_on_c, 0, 79, 0
1, 151260, Note_on_c, 0, 87, 80
1, 151320, Note_on_c, 0, 87, 0
1, 151320, Note_on_c, 0, 79, 80
1, 151320, Note_on_c, 1, 63, 0
1, 151320, Note_on_c, 1, 51, 80
1, 151380, Note_on_c, 0, 79, 0
1, 151380, Note_on_c, 0, 87, 80
1, 151440, Note_on_c, 0, 87, 0
1, 151440, Note_on_c, 0, 84, 80
1, 151440, Note_on_c, 0, 80, 80
1, 151440, Note_on_c, 1, 51, 0
1, 151440, Note_on_c, 1, 63, 80
1, 151440, Note_on_c, 1, 56, 80
1, 151560, Note_on_c, 0, 80, 0
1, 151560, Note_on_c, 0, 84, 0
1, 151560, Note_on_c, 1, 56, 0
1, 151560, Note_on_c, 1, 63, 0
1, 151920, Note_on_c, 0, 65, 80
1, 151920, Note_on_c, 0, 68, 80
1, 151920, Note_on_c, 0, 74, 80
1, 151920, Note_on_c, 1, 46, 80
1, 151920, Note_on_c, 1, 58, 80
1, 152160, Note_on_c, 0, 74, 0
1, 152160, Note_on_c, 0, 68, 0
1, 152160, Note_on_c, 0, 65, 0
1, 152160, Note_on_c, 1, 58, 0
1, 152160, Note_on_c, 1, 46, 0
1, 152400, Note_on_c, 0, 67, 80
1, 152400, Note_on_c, 0, 70, 80
1, 152400, Note_on_c, 0, 75, 80
1, 152400, Note_on_c, 1, 63, 80
1, 152460, Note_on_c, 1, 63, 0
1, 152460, Note_on_c, 1, 62, 80
1, 152520, Note_on_c, 1, 62, 0
1, 152520, Note_on_c, 1, 63, 80
1, 152580, Note_on_c, 1, 63, 0
1, 152580, Note_on_c, 1, 62, 80
1, 152640, Note_on_c, 0, 75, 0
1, 152640, Note_on_c, 0, 70, 0
1, 152640, Note_on_c, 0, 67, 0
1, 152640, Note_on_c, 1, 62, 0
1, 152640, Note_on_c, 1, 63, 80
1, 152700, Note_on_c, 1, 63, 0
1, 152700, Note_on_c, 1, 62, 80
1, 152760, Note_on_c, 0, 80, 80
1, 152760, Note_on_c, 0, 84, 80
1, 152760, Note_on_c, 1, 62, 0
1, 152760, Note_on_c, 1, 63, 80
1, 152820, Note_on_c, 1, 63, 0
1, 152820, Note_on_c, 1, 62, 80
1, 152880, Note_on_c, 0, 84, 0
1, 152880, Note_on_c, 0, 80, 0
1, 152880, Note_on_c, 0, 79, 80
1, 152880, Note_on_c, 0, 82, 80
1, 152880, Note_on_c, 1, 62, 0
1, 152880, Note_on_c, 1, 63, 80
1, 152916, Note_on_c, 0, 82, 0
1, 152916, Note_on_c, 0, 79, 0
1, 152940, Note_on_c, 1, 63, 0
1, 152940, Note_on_c, 1, 62, 80
1, 153000, Note_on_c, 0, 77, 80
1, 153000, Note_on_c, 0, 80, 80
1, 153000, Note_on_c, 1, 62, 0
1, 153000, Note_on_c, 1, 63, 80
1, 153036, Note_on_c, 0, 80, 0
1, 153036, Note_on_c, 0, 77, 0
1, 153060, Note_on_c, 1, 63, 0
1, 153060, Note_on_c, 1, 62, 80
1, 153120, Note_on_c, 0, 75, 80
1, 153120, Note_on_c, 0, 79, 80
1, 153120, Note_on_c, 1, 62, 0
1, 153120, Note_on_c, 1, 63, 80
1, 153156, Note_on_c, 0, 79, 0
1, 153156, Note_on_c, 0, 75, 0
1, 153180, Note_on_c, 1, 63, 0
1, 153180, Note_on_c, 1, 62, 80
1, 153240, Note_on_c, 0, 74, 80
1, 153240, Note_on_c, 0, 77, 80
1, 153240, Note_on_c, 1, 62, 0
1, 153240, Note_on_c, 1, 63, 80
1, 153276, Note_on_c, 0, 77, 0
1, 153276, Note_on_c, 0, 74, 0
1, 153300, Note_on_c, 1, 63, 0
1, 153300, Note_on_c, 1, 62, 80
1, 153360, Note_on_c, 0, 75, 80
1, 153360, Note_on_c, 1, 62, 0
1, 153360, Note_on_c, 1, 63, 80
1, 153420, Note_on_c, 0, 75, 0
1, 153420, Note_on_c, 0, 74, 80
1, 153480, Note_on_c, 0, 74, 0
1, 153480, Note_on_c, 0, 75, 80
1, 153540, Note_on_c, 0, 75, 0
1, 153540, Note_on_c, 0, 74, 80
1, 153600, Note_on_c, 0, 74, 0
1, 153600, Note_on_c, 0, 75, 80
1, 153600, Note_on_c, 1, 63, 0
1, 153660, Note_on_c, 0, 75, 0
1, 153660, Note_on_c, 0, 74, 80
1, 153720, Note_on_c, 0, 74, 0
1, 153720, Note_on_c, 0, 75, 80
1, 153720, Note_on_c, 1, 56, 80
1, 153720, Note_on_c, 1, 60, 80
1, 153780, Note_on_c, 0, 75, 0
1, 153780, Note_on_c, 0, 74, 80
1, 153840, Note_on_c, 0, 74, 0
1, 153840, Note_on_c, 0, 75, 80
1, 153840, Note_on_c, 1, 60, 0
1, 153840, Note_on_c, 1, 56, 0
1, 153840, Note_on_c, 1, 55, 80
1, 153840, Note_on_c, 1, 58, 80
1, 153900, Note_on_c, 0, 75, 0
1, 153900, Note_on_c, 0, 74, 80
1, 153960, Note_on_c, 0, 74, 0
1, 153960, Note_on_c, 0, 75, 80
1, 153960, Note_on_c, 1, 58, 0
1, 153960, Note_on_c, 1, 55, 0
1, 153960, Note_on_c, 1, 56, 80
1, 153960, Note_on_c, 1, 60, 80
1, 153996, Note_on_c, 1, 60, 0
1, 153996, Note_on_c, 1, 56, 0
1, 154020, Note_on_c, 0, 75, 0
1, 154020, Note_on_c, 0, 74, 80
1, 154080, Note_on_c, 0, 74, 0
1, 154080, Note_on_c, 0, 75, 80
1, 154080, Note_on_c, 1, 55, 80
1, 154080, Note_on_c, 1, 58, 80
1, 154116, Note_on_c, 1, 58, 0
1, 154116, Note_on_c, 1, 55, 0
1, 154140, Note_on_c, 0, 75, 0
1, 154140, Note_on_c, 0, 74, 80
1, 154200, Note_on_c, 0, 74, 0
1, 154200, Note_on_c, 0, 75, 80
1, 154200, Note_on_c, 1, 53, 80
1, 154200, Note_on_c, 1, 56, 80
1, 154236, Note_on_c, 1, 56, 0
1, 154236, Note_on_c, 1, 53, 0
1, 154260, Note_on_c, 0, 75, 0
1, 154260, Note_on_c, 0, 74, 80
1, 154320, Note_on_c, 0, 74, 0
1, 154320, Note_on_c, 0, 75, 80
1, 154320, Note_on_c, 1, 55, 80
1, 154320, Note_on_c, 1, 51, 80
1, 154440, Note_on_c, 0, 75, 0
1, 154440, Note_on_c, 1, 51, 0
1, 154440, Note_on_c, 1, 55, 0
1, 154800, Note_on_c, 0, 87, 96
1, 154800, Note_on_c, 0, 82, 96
1, 154800, Note_on_c, 0, 79, 96
1, 154800, Note_on_c, 1, 51, 96
1, 154800, Note_on_c, 1, 46, 96
1, 154800, Note_on_c, 1, 43, 96
1, 154800, Note_on_c, 1, 39, 96
1, 155040, Note_on_c, 0, 79, 0
1, 155040, Note_on_c, 0, 82, 0
1, 155040, Note_on_c, 0, 87, 0
1, 155040, Note_on_c, 1, 39, 0
1, 155040, Note_on_c, 1, 51, 0
1, 155040, Note_on_c, 1, 46, 0
1, 155040, Note_on_c, 1, 43, 0
1, 155280, Note_on_c, 0, 55, 96
1, 155280, Note_on_c, 0, 58, 96
1, 155280, Note_on_c, 0, 63, 96
1, 155280, Note_on_c, 1, 51, 96
1, 155280, Note_on_c, 1, 46, 96
1, 155280, Note_on_c, 1, 43, 96
1, 155280, Note_on_c, 1, 39, 96
1, 155520, Note_on_c, 0, 63, 0
1, 155520, Note_on_c, 0, 58, 0
1, 155520, Note_on_c, 0, 55, 0
1, 155520, Note_on_c, 1, 39, 0
1, 155520, Note_on_c, 1, 51, 0
1, 155520, Note_on_c, 1, 46, 0
1, 155520, Note_on_c, 1, 43, 0
1, 155530, End_track
0, 0, End_of_file