0, 0, Header, 0, 1, 240
1, 0, Start_track
1, 0, Tempo, 500000
1, 360, Note_on_c, 0, 67, 80
1, 408, Note_on_c, 0, 67, 0
1, 480, Note_on_c, 0, 67, 88
1, 480, Note_on_c, 1, 52, 72
1, 510, Note_on_c, 1, 52, 0
1, 540, Note_on_c, 1, 59, 72
1, 600, Note_on_c, 1, 59, 0
1, 600, Note_on_c, 1, 55, 72
1, 660, Note_on_c, 0, 67, 0
1, 660, Note_on_c, 0, 69, 80
1, 660, Note_on_c, 1, 55, 0
1, 660, Note_on_c, 1, 59, 72
1, 720, Note_on_c, 0, 69, 0
1, 720, Note_on_c, 0, 71, 80
1, 720, Note_on_c, 1, 59, 0
1, 720, Note_on_c, 1, 52, 72
1, 768, Note_on_c, 0, 71, 0
1, 780, Note_on_c, 1, 52, 0
1, 780, Note_on_c, 1, 59, 72
1, 840, Note_on_c, 0, 76, 80
1, 840, Note_on_c, 1, 59, 0
1, 840, Note_on_c, 1, 55, 72
1, 900, Note_on_c, 0, 76, 0
1, 900, Note_on_c, 1, 55, 0
1, 900, Note_on_c, 1, 59, 72
1, 960, Note_on_c, 0, 75, 80
1, 960, Note_on_c, 1, 59, 0
1, 960, Note_on_c, 1, 54, 64
1, 984, Note_on_c, 1, 54, 0
1, 1020, Note_on_c, 1, 59, 64
1, 1080, Note_on_c, 0, 75, 0
1, 1080, Note_on_c, 0, 78, 64
1, 1080, Note_on_c, 1, 59, 0
1, 1080, Note_on_c, 1, 57, 64
1, 1140, Note_on_c, 1, 57, 0
1, 1140, Note_on_c, 1, 59, 64
1, 1164, Note_on_c, 0, 78, 0
1, 1200, Note_on_c, 1, 59, 0
1, 1200, Note_on_c, 1, 54, 64
1, 1224, Note_on_c, 1, 54, 0
1, 1260, Note_on_c, 1, 59, 64
1, 1320, Note_on_c, 0, 71, 80
1, 1320, Note_on_c, 1, 59, 0
1, 1320, Note_on_c, 1, 57, 64
1, 1380, Note_on_c, 1, 57, 0
1, 1380, Note_on_c, 1, 59, 64
1, 1440, Note_on_c, 0, 71, 0
1, 1440, Note_on_c, 0, 76, 80
1, 1440, Note_on_c, 1, 59, 0
1, 1440, Note_on_c, 1, 52, 72
1, 1488, Note_on_c, 0, 76, 0
1, 1500, Note_on_c, 1, 52, 0
1, 1500, Note_on_c, 1, 59, 72
1, 1560, Note_on_c, 0, 76, 80
1, 1560, Note_on_c, 1, 59, 0
1, 1560, Note_on_c, 1, 55, 72
1, 1620, Note_on_c, 1, 55, 0
1, 1620, Note_on_c, 1, 59, 72
1, 1680, Note_on_c, 0, 76, 0
1, 1680, Note_on_c, 0, 78, 80
1, 1680, Note_on_c, 1, 59, 0
1, 1680, Note_on_c, 1, 51, 72
1, 1728, Note_on_c, 0, 78, 0
1, 1740, Note_on_c, 1, 51, 0
1, 1740, Note_on_c, 1, 59, 72
1, 1800, Note_on_c, 0, 78, 80
1, 1800, Note_on_c, 1, 59, 0
1, 1800, Note_on_c, 1, 54, 72
1, 1860, Note_on_c, 1, 54, 0
1, 1860, Note_on_c, 1, 59, 72
1, 1920, Note_on_c, 0, 78, 0
1, 1920, Note_on_c, 0, 81, 80
1, 1920, Note_on_c, 1, 59, 0
1, 1920, Note_on_c, 1, 52, 72
1, 1980, Note_on_c, 1, 52, 0
1, 1980, Note_on_c, 1, 59, 72
1, 2040, Note_on_c, 0, 81, 0
1, 2040, Note_on_c, 0, 79, 72
1, 2040, Note_on_c, 1, 59, 0
1, 2040, Note_on_c, 1, 55, 72
1, 2072, Note_on_c, 0, 79, 0
1, 2080, Note_on_c, 0, 81, 72
1, 2100, Note_on_c, 1, 55, 0
1, 2100, Note_on_c, 1, 59, 72
1, 2112, Note_on_c, 0, 81, 0
1, 2120, Note_on_c, 0, 79, 72
1, 2152, Note_on_c, 0, 79, 0
1, 2160, Note_on_c, 0, 78, 72
1, 2160, Note_on_c, 1, 59, 0
1, 2160, Note_on_c, 1, 47, 72
1, 2208, Note_on_c, 0, 78, 0
1, 2220, Note_on_c, 1, 47, 0
1, 2220, Note_on_c, 1, 59, 72
1, 2280, Note_on_c, 0, 78, 80
1, 2280, Note_on_c, 1, 59, 0
1, 2280, Note_on_c, 1, 51, 72
1, 2340, Note_on_c, 1, 51, 0
1, 2340, Note_on_c, 1, 59, 72
1, 2376, Note_on_c, 0, 78, 0
1, 2400, Note_on_c, 0, 79, 88
1, 2400, Note_on_c, 1, 59, 0
1, 2400, Note_on_c, 1, 52, 72
1, 2424, Note_on_c, 1, 52, 0
1, 2460, Note_on_c, 1, 59, 72
1, 2520, Note_on_c, 1, 59, 0
1, 2520, Note_on_c, 1, 55, 72
1, 2580, Note_on_c, 0, 79, 0
1, 2580, Note_on_c, 0, 81, 80
1, 2580, Note_on_c, 1, 55, 0
1, 2580, Note_on_c, 1, 59, 72
1, 2640, Note_on_c, 0, 81, 0
1, 2640, Note_on_c, 0, 83, 80
1, 2640, Note_on_c, 1, 59, 0
1, 2640, Note_on_c, 1, 52, 72
1, 2664, Note_on_c, 1, 52, 0
1, 2688, Note_on_c, 0, 83, 0
1, 2700, Note_on_c, 1, 59, 72
1, 2760, Note_on_c, 0, 83, 80
1, 2760, Note_on_c, 1, 59, 0
1, 2760, Note_on_c, 1, 55, 72
1, 2820, Note_on_c, 1, 55, 0
1, 2820, Note_on_c, 1, 59, 72
1, 2844, Note_on_c, 0, 83, 0
1, 2880, Note_on_c, 0, 81, 88
1, 2880, Note_on_c, 1, 59, 0
1, 2880, Note_on_c, 1, 48, 64
1, 2940, Note_on_c, 1, 48, 0
1, 2940, Note_on_c, 1, 57, 64
1, 3000, Note_on_c, 0, 81, 0
1, 3000, Note_on_c, 0, 84, 72
1, 3000, Note_on_c, 1, 57, 0
1, 3000, Note_on_c, 1, 52, 64
1, 3060, Note_on_c, 1, 52, 0
1, 3060, Note_on_c, 1, 57, 64
1, 3084, Note_on_c, 0, 84, 0
1, 3120, Note_on_c, 1, 57, 0
1, 3120, Note_on_c, 1, 48, 64
1, 3180, Note_on_c, 1, 48, 0
1, 3180, Note_on_c, 1, 57, 64
1, 3240, Note_on_c, 0, 81, 80
1, 3240, Note_on_c, 1, 57, 0
1, 3240, Note_on_c, 1, 52, 64
1, 3300, Note_on_c, 1, 52, 0
1, 3300, Note_on_c, 1, 57, 64
1, 3360, Note_on_c, 0, 81, 0
1, 3360, Note_on_c, 0, 78, 80
1, 3360, Note_on_c, 1, 57, 0
1, 3360, Note_on_c, 1, 50, 64
1, 3408, Note_on_c, 0, 78, 0
1, 3420, Note_on_c, 1, 50, 0
1, 3420, Note_on_c, 1, 60, 66
1, 3480, Note_on_c, 0, 78, 80
1, 3480, Note_on_c, 1, 60, 0
1, 3480, Note_on_c, 1, 57, 68
1, 3528, Note_on_c, 0, 78, 0
1, 3540, Note_on_c, 1, 57, 0
1, 3540, Note_on_c, 1, 60, 70
1, 3600, Note_on_c, 0, 79, 80
1, 3600, Note_on_c, 1, 60, 0
1, 3600, Note_on_c, 1, 50, 72
1, 3660, Note_on_c, 0, 79, 0
1, 3660, Note_on_c, 0, 78, 80
1, 3660, Note_on_c, 1, 50, 0
1, 3660, Note_on_c, 1, 60, 74
1, 3720, Note_on_c, 0, 78, 0
1, 3720, Note_on_c, 0, 76, 80
1, 3720, Note_on_c, 1, 60, 0
1, 3720, Note_on_c, 1, 57, 76
1, 3780, Note_on_c, 0, 76, 0
1, 3780, Note_on_c, 0, 74, 80
1, 3780, Note_on_c, 1, 57, 0
1, 3780, Note_on_c, 1, 60, 78
1, 3840, Note_on_c, 0, 74, 0
1, 3840, Note_on_c, 0, 79, 80
1, 3840, Note_on_c, 1, 60, 0
1, 3840, Note_on_c, 1, 55, 85
1, 3840, Note_on_c, 1, 59, 85
1, 4080, Note_on_c, 0, 79, 0
1, 4080, Note_on_c, 1, 59, 0
1, 4080, Note_on_c, 1, 55, 0
1, 4080, Note_on_c, 1, 43, 64
1, 4200, Note_on_c, 0, 83, 72
1, 4284, Note_on_c, 0, 83, 0
1, 4320, Note_on_c, 0, 83, 80
1, 4320, Note_on_c, 1, 43, 0
1, 4320, Note_on_c, 1, 59, 64
1, 4380, Note_on_c, 1, 59, 0
1, 4380, Note_on_c, 1, 67, 64
1, 4440, Note_on_c, 1, 67, 0
1, 4440, Note_on_c, 1, 62, 64
1, 4500, Note_on_c, 0, 83, 0
1, 4500, Note_on_c, 0, 84, 72
1, 4500, Note_on_c, 1, 62, 0
1, 4500, Note_on_c, 1, 67, 64
1, 4560, Note_on_c, 0, 84, 0
1, 4560, Note_on_c, 0, 86, 72
1, 4560, Note_on_c, 1, 67, 0
1, 4560, Note_on_c, 1, 59, 64
1, 4608, Note_on_c, 0, 86, 0
1, 4620, Note_on_c, 1, 59, 0
1, 4620, Note_on_c, 1, 67, 64
1, 4680, Note_on_c, 0, 86, 72
1, 4680, Note_on_c, 1, 67, 0
1, 4680, Note_on_c, 1, 62, 64
1, 4740, Note_on_c, 1, 62, 0
1, 4740, Note_on_c, 1, 67, 64
1, 4764, Note_on_c, 0, 86, 0
1, 4800, Note_on_c, 0, 86, 72
1, 4800, Note_on_c, 1, 67, 0
1, 4800, Note_on_c, 1, 60, 64
1, 4860, Note_on_c, 1, 60, 0
1, 4860, Note_on_c, 1, 67, 64
1, 4920, Note_on_c, 0, 86, 0
1, 4920, Note_on_c, 0, 76, 64
1, 4920, Note_on_c, 1, 67, 0
1, 4920, Note_on_c, 1, 64, 64
1, 4980, Note_on_c, 1, 64, 0
1, 4980, Note_on_c, 1, 67, 64
1, 4992, Note_on_c, 0, 76, 0
1, 5040, Note_on_c, 1, 67, 0
1, 5040, Note_on_c, 1, 60, 64
1, 5100, Note_on_c, 1, 60, 0
1, 5100, Note_on_c, 1, 67, 64
1, 5160, Note_on_c, 0, 76, 64
1, 5160, Note_on_c, 1, 67, 0
1, 5160, Note_on_c, 1, 64, 64
1, 5220, Note_on_c, 1, 64, 0
1, 5220, Note_on_c, 1, 67, 64
1, 5280, Note_on_c, 0, 76, 0
1, 5280, Note_on_c, 0, 81, 64
1, 5280, Note_on_c, 1, 67, 0
1, 5280, Note_on_c, 1, 57, 56
1, 5340, Note_on_c, 1, 57, 0
1, 5340, Note_on_c, 1, 66, 56
1, 5400, Note_on_c, 1, 66, 0
1, 5400, Note_on_c, 1, 60, 56
1, 5460, Note_on_c, 0, 81, 0
1, 5460, Note_on_c, 0, 83, 64
1, 5460, Note_on_c, 1, 60, 0
1, 5460, Note_on_c, 1, 66, 56
1, 5520, Note_on_c, 0, 83, 0
1, 5520, Note_on_c, 0, 84, 64
1, 5520, Note_on_c, 1, 66, 0
1, 5520, Note_on_c, 1, 57, 56
1, 5568, Note_on_c, 0, 84, 0
1, 5580, Note_on_c, 1, 57, 0
1, 5580, Note_on_c, 1, 66, 56
1, 5640, Note_on_c, 0, 84, 64
1, 5640, Note_on_c, 1, 66, 0
1, 5640, Note_on_c, 1, 60, 56
1, 5700, Note_on_c, 1, 60, 0
1, 5700, Note_on_c, 1, 66, 56
1, 5724, Note_on_c, 0, 84, 0
1, 5760, Note_on_c, 0, 84, 72
1, 5760, Note_on_c, 1, 66, 0
1, 5760, Note_on_c, 1, 59, 56
1, 5820, Note_on_c, 1, 59, 0
1, 5820, Note_on_c, 1, 66, 56
1, 5880, Note_on_c, 0, 84, 0
1, 5880, Note_on_c, 0, 75, 64
1, 5880, Note_on_c, 1, 66, 0
1, 5880, Note_on_c, 1, 63, 56
1, 5940, Note_on_c, 1, 63, 0
1, 5940, Note_on_c, 1, 66, 56
1, 5952, Note_on_c, 0, 75, 0
1, 6000, Note_on_c, 1, 66, 0
1, 6000, Note_on_c, 1, 57, 56
1, 6060, Note_on_c, 1, 57, 0
1, 6060, Note_on_c, 1, 63, 56
1, 6120, Note_on_c, 0, 71, 72
1, 6120, Note_on_c, 1, 63, 0
1, 6120, Note_on_c, 1, 59, 56
1, 6180, Note_on_c, 1, 59, 0
1, 6180, Note_on_c, 1, 63, 56
1, 6240, Note_on_c, 0, 71, 0
1, 6240, Note_on_c, 0, 76, 72
1, 6240, Note_on_c, 1, 63, 0
1, 6240, Note_on_c, 1, 55, 64
1, 6288, Note_on_c, 0, 76, 0
1, 6300, Note_on_c, 1, 55, 0
1, 6300, Note_on_c, 1, 64, 64
1, 6360, Note_on_c, 0, 76, 72
1, 6360, Note_on_c, 1, 64, 0
1, 6360, Note_on_c, 1, 59, 64
1, 6420, Note_on_c, 1, 59, 0
1, 6420, Note_on_c, 1, 64, 64
1, 6480, Note_on_c, 0, 76, 0
1, 6480, Note_on_c, 0, 78, 72
1, 6480, Note_on_c, 1, 64, 0
1, 6480, Note_on_c, 1, 51, 64
1, 6528, Note_on_c, 0, 78, 0
1, 6540, Note_on_c, 1, 51, 0
1, 6540, Note_on_c, 1, 59, 64
1, 6600, Note_on_c, 0, 78, 72
1, 6600, Note_on_c, 1, 59, 0
1, 6600, Note_on_c, 1, 54, 64
1, 6660, Note_on_c, 1, 54, 0
1, 6660, Note_on_c, 1, 59, 64
1, 6720, Note_on_c, 0, 78, 0
1, 6720, Note_on_c, 0, 81, 72
1, 6720, Note_on_c, 1, 59, 0
1, 6720, Note_on_c, 1, 52, 64
1, 6780, Note_on_c, 1, 52, 0
1, 6780, Note_on_c, 1, 59, 64
1, 6840, Note_on_c, 0, 81, 0
1, 6840, Note_on_c, 0, 79, 72
1, 6840, Note_on_c, 1, 59, 0
1, 6840, Note_on_c, 1, 55, 64
1, 6880, Note_on_c, 0, 79, 0
1, 6880, Note_on_c, 0, 81, 72
1, 6900, Note_on_c, 1, 55, 0
1, 6900, Note_on_c, 1, 59, 64
1, 6920, Note_on_c, 0, 81, 0
1, 6920, Note_on_c, 0, 79, 72
1, 6960, Note_on_c, 0, 79, 0
1, 6960, Note_on_c, 0, 78, 72
1, 6960, Note_on_c, 1, 59, 0
1, 6960, Note_on_c, 1, 47, 64
1, 7008, Note_on_c, 0, 78, 0
1, 7020, Note_on_c, 1, 47, 0
1, 7020, Note_on_c, 1, 59, 64
1, 7080, Note_on_c, 0, 83, 72
1, 7080, Note_on_c, 1, 59, 0
1, 7080, Note_on_c, 1, 51, 64
1, 7140, Note_on_c, 1, 51, 0
1, 7140, Note_on_c, 1, 59, 64
1, 7164, Note_on_c, 0, 83, 0
1, 7200, Note_on_c, 0, 76, 72
1, 7200, Note_on_c, 1, 59, 0
1, 7200, Note_on_c, 1, 48, 64
1, 7248, Note_on_c, 0, 76, 0
1, 7260, Note_on_c, 1, 48, 0
1, 7260, Note_on_c, 1, 59, 65
1, 7320, Note_on_c, 0, 76, 74
1, 7320, Note_on_c, 1, 59, 0
1, 7320, Note_on_c, 1, 55, 66
1, 7380, Note_on_c, 1, 55, 0
1, 7380, Note_on_c, 1, 59, 67
1, 7440, Note_on_c, 0, 76, 0
1, 7440, Note_on_c, 0, 84, 76
1, 7440, Note_on_c, 1, 59, 0
1, 7440, Note_on_c, 1, 48, 68
1, 7488, Note_on_c, 0, 84, 0
1, 7500, Note_on_c, 1, 48, 0
1, 7500, Note_on_c, 1, 57, 69
1, 7560, Note_on_c, 0, 84, 78
1, 7560, Note_on_c, 1, 57, 0
1, 7560, Note_on_c, 1, 55, 70
1, 7620, Note_on_c, 1, 55, 0
1, 7620, Note_on_c, 1, 57, 71
1, 7680, Note_on_c, 0, 84, 0
1, 7680, Note_on_c, 0, 75, 96
1, 7680, Note_on_c, 1, 57, 0
1, 7680, Note_on_c, 1, 47, 80
1, 7740, Note_on_c, 1, 47, 0
1, 7740, Note_on_c, 1, 57, 64
1, 7800, Note_on_c, 1, 57, 0
1, 7800, Note_on_c, 1, 54, 64
1, 7860, Note_on_c, 1, 54, 0
1, 7860, Note_on_c, 1, 57, 64
1, 7920, Note_on_c, 0, 75, 0
1, 7920, Note_on_c, 0, 76, 80
1, 7920, Note_on_c, 1, 57, 0
1, 7920, Note_on_c, 1, 48, 64
1, 7968, Note_on_c, 0, 76, 0
1, 7980, Note_on_c, 1, 48, 0
1, 7980, Note_on_c, 1, 55, 64
1, 8040, Note_on_c, 0, 76, 80
1, 8040, Note_on_c, 1, 55, 0
1, 8040, Note_on_c, 1, 52, 64
1, 8100, Note_on_c, 1, 52, 0
1, 8100, Note_on_c, 1, 55, 64
1, 8160, Note_on_c, 0, 76, 0
1, 8160, Note_on_c, 0, 78, 80
1, 8160, Note_on_c, 1, 55, 0
1, 8160, Note_on_c, 1, 45, 64
1, 8208, Note_on_c, 0, 78, 0
1, 8220, Note_on_c, 1, 45, 0
1, 8220, Note_on_c, 1, 57, 64
1, 8280, Note_on_c, 0, 78, 80
1, 8280, Note_on_c, 1, 57, 0
1, 8280, Note_on_c, 1, 48, 64
1, 8340, Note_on_c, 1, 48, 0
1, 8340, Note_on_c, 1, 57, 64
1, 8400, Note_on_c, 0, 78, 0
1, 8400, Note_on_c, 0, 76, 80
1, 8400, Note_on_c, 1, 57, 0
1, 8400, Note_on_c, 1, 47, 64
1, 8460, Note_on_c, 0, 76, 0
1, 8460, Note_on_c, 0, 75, 80
1, 8460, Note_on_c, 1, 47, 0
1, 8460, Note_on_c, 1, 57, 64
1, 8520, Note_on_c, 0, 75, 0
1, 8520, Note_on_c, 0, 73, 80
1, 8520, Note_on_c, 1, 57, 0
1, 8520, Note_on_c, 1, 54, 64
1, 8580, Note_on_c, 0, 73, 0
1, 8580, Note_on_c, 0, 71, 80
1, 8580, Note_on_c, 1, 54, 0
1, 8580, Note_on_c, 1, 57, 64
1, 8640, Note_on_c, 0, 71, 0
1, 8640, Note_on_c, 0, 76, 80
1, 8640, Note_on_c, 1, 57, 0
1, 8640, Note_on_c, 1, 52, 80
1, 8640, Note_on_c, 1, 55, 80
1, 8856, Note_on_c, 0, 76, 0
1, 8856, Note_on_c, 1, 55, 0
1, 8856, Note_on_c, 1, 52, 0
1, 8880, Note_on_c, 1, 40, 64
1, 9000, Note_on_c, 0, 80, 80
1, 9120, Note_on_c, 0, 80, 0
1, 9120, Note_on_c, 0, 80, 80
1, 9120, Note_on_c, 1, 40, 0
1, 9120, Note_on_c, 1, 64, 80
1, 9120, Note_on_c, 1, 68, 80
1, 9300, Note_on_c, 0, 80, 0
1, 9300, Note_on_c, 0, 81, 80
1, 9360, Note_on_c, 0, 81, 0
1, 9360, Note_on_c, 0, 83, 80
1, 9360, Note_on_c, 1, 68, 0
1, 9360, Note_on_c, 1, 64, 0
1, 9408, Note_on_c, 0, 83, 0
1, 9480, Note_on_c, 0, 76, 80
1, 9480, Note_on_c, 1, 68, 80
1, 9480, Note_on_c, 1, 71, 80
1, 9528, Note_on_c, 1, 71, 0
1, 9528, Note_on_c, 1, 68, 0
1, 9564, Note_on_c, 0, 76, 0
1, 9600, Note_on_c, 0, 75, 80
1, 9600, Note_on_c, 1, 66, 85
1, 9600, Note_on_c, 1, 69, 85
1, 9720, Note_on_c, 0, 75, 0
1, 9720, Note_on_c, 0, 78, 72
1, 9840, Note_on_c, 0, 78, 0
1, 9840, Note_on_c, 1, 69, 0
1, 9840, Note_on_c, 1, 66, 0
1, 9840, Note_on_c, 1, 57, 64
1, 9900, Note_on_c, 0, 59, 64
1, 9960, Note_on_c, 0, 59, 0
1, 9960, Note_on_c, 0, 61, 64
1, 10020, Note_on_c, 0, 61, 0
1, 10020, Note_on_c, 0, 63, 64
1, 10080, Note_on_c, 0, 63, 0
1, 10080, Note_on_c, 0, 64, 64
1, 10080, Note_on_c, 1, 57, 0
1, 10080, Note_on_c, 1, 56, 64
1, 10140, Note_on_c, 0, 64, 0
1, 10140, Note_on_c, 0, 66, 66
1, 10200, Note_on_c, 0, 66, 0
1, 10200, Note_on_c, 0, 68, 68
1, 10260, Note_on_c, 0, 68, 0
1, 10260, Note_on_c, 0, 69, 70
1, 10320, Note_on_c, 0, 69, 0
1, 10320, Note_on_c, 0, 71, 72
1, 10320, Note_on_c, 1, 56, 0
1, 10380, Note_on_c, 0, 71, 0
1, 10380, Note_on_c, 0, 73, 74
1, 10440, Note_on_c, 0, 73, 0
1, 10440, Note_on_c, 0, 75, 76
1, 10440, Note_on_c, 1, 68, 76
1, 10488, Note_on_c, 1, 68, 0
1, 10500, Note_on_c, 0, 75, 0
1, 10500, Note_on_c, 0, 76, 78
1, 10560, Note_on_c, 0, 76, 0
1, 10560, Note_on_c, 0, 71, 80
1, 10560, Note_on_c, 1, 66, 85
1, 10680, Note_on_c, 0, 71, 0
1, 10680, Note_on_c, 0, 69, 80
1, 10680, Note_on_c, 1, 66, 0
1, 10680, Note_on_c, 1, 59, 85
1, 10720, Note_on_c, 0, 69, 0
1, 10720, Note_on_c, 0, 71, 80
1, 10760, Note_on_c, 0, 71, 0
1, 10760, Note_on_c, 0, 69, 80
1, 10800, Note_on_c, 0, 69, 0
1, 10800, Note_on_c, 0, 68, 80
1, 10800, Note_on_c, 1, 59, 0
1, 10800, Note_on_c, 1, 64, 85
1, 10848, Note_on_c, 0, 68, 0
1, 10920, Note_on_c, 0, 80, 80
1, 11040, Note_on_c, 0, 80, 0
1, 11040, Note_on_c, 0, 80, 80
1, 11040, Note_on_c, 1, 64, 0
1, 11040, Note_on_c, 1, 64, 85
1, 11040, Note_on_c, 1, 68, 85
1, 11100, Note_on_c, 0, 80, 0
1, 11100, Note_on_c, 0, 82, 80
1, 11130, Note_on_c, 0, 82, 0
1, 11130, Note_on_c, 0, 80, 80
1, 11160, Note_on_c, 0, 80, 0
1, 11160, Note_on_c, 0, 79, 80
1, 11190, Note_on_c, 0, 79, 0
1, 11190, Note_on_c, 0, 80, 80
1, 11220, Note_on_c, 0, 80, 0
1, 11220, Note_on_c, 0, 82, 80
1, 11280, Note_on_c, 0, 82, 0
1, 11280, Note_on_c, 0, 83, 80
1, 11280, Note_on_c, 1, 68, 0
1, 11280, Note_on_c, 1, 64, 0
1, 11328, Note_on_c, 0, 83, 0
1, 11400, Note_on_c, 0, 72, 80
1, 11400, Note_on_c, 1, 63, 85
1, 11400, Note_on_c, 1, 66, 85
1, 11448, Note_on_c, 0, 72, 0
1, 11448, Note_on_c, 1, 66, 0
1, 11448, Note_on_c, 1, 63, 0
1, 11520, Note_on_c, 0, 73, 80
1, 11520, Note_on_c, 1, 64, 85
1, 11520, Note_on_c, 1, 68, 85
1, 11580, Note_on_c, 0, 73, 0
1, 11580, Note_on_c, 0, 75, 80
1, 11610, Note_on_c, 0, 75, 0
1, 11610, Note_on_c, 0, 73, 80
1, 11640, Note_on_c, 0, 73, 0
1, 11640, Note_on_c, 0, 72, 80
1, 11670, Note_on_c, 0, 72, 0
1, 11670, Note_on_c, 0, 73, 80
1, 11700, Note_on_c, 0, 73, 0
1, 11700, Note_on_c, 0, 76, 80
1, 11760, Note_on_c, 0, 76, 0
1, 11760, Note_on_c, 0, 80, 80
1, 11760, Note_on_c, 1, 68, 0
1, 11760, Note_on_c, 1, 64, 0
1, 11808, Note_on_c, 0, 80, 0
1, 11880, Note_on_c, 0, 70, 80
1, 11880, Note_on_c, 1, 64, 85
1, 11880, Note_on_c, 1, 66, 85
1, 11952, Note_on_c, 0, 70, 0
1, 11952, Note_on_c, 1, 66, 0
1, 11952, Note_on_c, 1, 64, 0
1, 12000, Note_on_c, 0, 71, 80
1, 12000, Note_on_c, 1, 63, 85
1, 12000, Note_on_c, 1, 66, 85
1, 12120, Note_on_c, 0, 71, 0
1, 12120, Note_on_c, 0, 76, 80
1, 12120, Note_on_c, 1, 66, 0
1, 12120, Note_on_c, 1, 63, 0
1, 12120, Note_on_c, 1, 64, 85
1, 12168, Note_on_c, 1, 64, 0
1, 12180, Note_on_c, 0, 76, 0
1, 12180, Note_on_c, 0, 73, 80
1, 12240, Note_on_c, 0, 73, 0
1, 12240, Note_on_c, 0, 75, 80
1, 12240, Note_on_c, 1, 66, 85
1, 12288, Note_on_c, 1, 66, 0
1, 12300, Note_on_c, 0, 75, 0
1, 12300, Note_on_c, 0, 71, 80
1, 12360, Note_on_c, 0, 71, 0
1, 12360, Note_on_c, 0, 73, 80
1, 12360, Note_on_c, 1, 54, 85
1, 12408, Note_on_c, 1, 54, 0
1, 12420, Note_on_c, 0, 73, 0
1, 12420, Note_on_c, 0, 70, 80
1, 12480, Note_on_c, 0, 70, 0
1, 12480, Note_on_c, 0, 71, 80
1, 12480, Note_on_c, 1, 59, 85
1, 12720, Note_on_c, 0, 71, 0
1, 12720, Note_on_c, 1, 59, 0
1, 12720, Note_on_c, 1, 47, 64
1, 12816, Note_on_c, 1, 47, 0
1, 12840, Note_on_c, 0, 78, 80
1, 12888, Note_on_c, 0, 78, 0
1, 12960, Note_on_c, 0, 78, 80
1, 12960, Note_on_c, 1, 59, 72
1, 12960, Note_on_c, 1, 63, 72
1, 13140, Note_on_c, 0, 78, 0
1, 13140, Note_on_c, 0, 80, 80
1, 13200, Note_on_c, 0, 80, 0
1, 13200, Note_on_c, 0, 81, 80
1, 13200, Note_on_c, 1, 63, 0
1, 13200, Note_on_c, 1, 59, 0
1, 13260, Note_on_c, 0, 81, 0
1, 13260, Note_on_c, 0, 78, 80
1, 13320, Note_on_c, 0, 78, 0
1, 13320, Note_on_c, 0, 76, 80
1, 13320, Note_on_c, 1, 57, 72
1, 13320, Note_on_c, 1, 59, 72
1, 13368, Note_on_c, 1, 59, 0
1, 13368, Note_on_c, 1, 57, 0
1, 13380, Note_on_c, 0, 76, 0
1, 13380, Note_on_c, 0, 75, 80
1, 13440, Note_on_c, 0, 75, 0
1, 13440, Note_on_c, 0, 76, 80
1, 13440, Note_on_c, 1, 56, 72
1, 13440, Note_on_c, 1, 59, 72
1, 13500, Note_on_c, 0, 76, 0
1, 13500, Note_on_c, 0, 75, 80
1, 13560, Note_on_c, 0, 75, 0
1, 13560, Note_on_c, 0, 76, 80
1, 13620, Note_on_c, 0, 76, 0
1, 13620, Note_on_c, 0, 75, 80
1, 13680, Note_on_c, 0, 75, 0
1, 13680, Note_on_c, 0, 76, 80
1, 13680, Note_on_c, 1, 59, 0
1, 13680, Note_on_c, 1, 56, 0
1, 13740, Note_on_c, 0, 76, 0
1, 13740, Note_on_c, 0, 83, 80
1, 13800, Note_on_c, 0, 83, 0
1, 13800, Note_on_c, 0, 81, 80
1, 13800, Note_on_c, 1, 68, 56
1, 13800, Note_on_c, 1, 71, 56
1, 13848, Note_on_c, 1, 71, 0
1, 13848, Note_on_c, 1, 68, 0
1, 13860, Note_on_c, 0, 81, 0
1, 13860, Note_on_c, 0, 80, 80
1, 13920, Note_on_c, 0, 80, 0
1, 13920, Note_on_c, 0, 78, 64
1, 13920, Note_on_c, 1, 69, 56
1, 13920, Note_on_c, 1, 73, 56
1, 14100, Note_on_c, 0, 78, 0
1, 14100, Note_on_c, 0, 80, 64
1, 14160, Note_on_c, 0, 80, 0
1, 14160, Note_on_c, 0, 81, 64
1, 14160, Note_on_c, 1, 73, 0
1, 14160, Note_on_c, 1, 69, 0
1, 14220, Note_on_c, 0, 81, 0
1, 14220, Note_on_c, 0, 78, 64
1, 14280, Note_on_c, 0, 78, 0
1, 14280, Note_on_c, 0, 76, 64
1, 14280, Note_on_c, 1, 57, 56
1, 14280, Note_on_c, 1, 59, 56
1, 14340, Note_on_c, 0, 76, 0
1, 14340, Note_on_c, 0, 75, 64
1, 14400, Note_on_c, 0, 75, 0
1, 14400, Note_on_c, 0, 76, 64
1, 14400, Note_on_c, 1, 59, 0
1, 14400, Note_on_c, 1, 57, 0
1, 14400, Note_on_c, 1, 56, 56
1, 14400, Note_on_c, 1, 59, 56
1, 14460, Note_on_c, 0, 76, 0
1, 14460, Note_on_c, 0, 75, 64
1, 14520, Note_on_c, 0, 75, 0
1, 14520, Note_on_c, 0, 76, 64
1, 14580, Note_on_c, 0, 76, 0
1, 14580, Note_on_c, 0, 75, 64
1, 14640, Note_on_c, 0, 75, 0
1, 14640, Note_on_c, 0, 76, 64
1, 14640, Note_on_c, 1, 59, 0
1, 14640, Note_on_c, 1, 56, 0
1, 14700, Note_on_c, 0, 76, 0
1, 14700, Note_on_c, 0, 83, 64
1, 14760, Note_on_c, 0, 83, 0
1, 14760, Note_on_c, 0, 81, 64
1, 14760, Note_on_c, 1, 68, 64
1, 14760, Note_on_c, 1, 71, 64
1, 14820, Note_on_c, 0, 81, 0
1, 14820, Note_on_c, 0, 80, 64
1, 14880, Note_on_c, 0, 80, 0
1, 14880, Note_on_c, 0, 78, 64
1, 14880, Note_on_c, 1, 71, 0
1, 14880, Note_on_c, 1, 68, 0
1, 14880, Note_on_c, 1, 69, 64
1, 14880, Note_on_c, 1, 73, 64
1, 14940, Note_on_c, 0, 78, 0
1, 14940, Note_on_c, 0, 80, 64
1, 15000, Note_on_c, 0, 80, 0
1, 15000, Note_on_c, 0, 81, 64
1, 15060, Note_on_c, 0, 81, 0
1, 15060, Note_on_c, 0, 80, 64
1, 15120, Note_on_c, 0, 80, 0
1, 15120, Note_on_c, 0, 78, 64
1, 15120, Note_on_c, 1, 73, 0
1, 15120, Note_on_c, 1, 69, 0
1, 15180, Note_on_c, 0, 78, 0
1, 15180, Note_on_c, 0, 76, 64
1, 15240, Note_on_c, 0, 76, 0
1, 15240, Note_on_c, 0, 75, 64
1, 15240, Note_on_c, 1, 58, 64
1, 15240, Note_on_c, 1, 61, 64
1, 15300, Note_on_c, 0, 75, 0
1, 15300, Note_on_c, 0, 73, 64
1, 15336, Note_on_c, 1, 61, 0
1, 15336, Note_on_c, 1, 58, 0
1, 15360, Note_on_c, 0, 73, 0
1, 15360, Note_on_c, 0, 71, 64
1, 15360, Note_on_c, 1, 59, 64
1, 15420, Note_on_c, 0, 71, 0
1, 15420, Note_on_c, 0, 70, 66
1, 15480, Note_on_c, 0, 70, 0
1, 15480, Note_on_c, 0, 71, 68
1, 15540, Note_on_c, 0, 71, 0
1, 15540, Note_on_c, 0, 73, 70
1, 15600, Note_on_c, 0, 73, 0
1, 15600, Note_on_c, 0, 71, 72
1, 15600, Note_on_c, 1, 59, 0
1, 15660, Note_on_c, 0, 71, 0
1, 15660, Note_on_c, 0, 69, 74
1, 15720, Note_on_c, 0, 69, 0
1, 15720, Note_on_c, 0, 68, 76
1, 15780, Note_on_c, 0, 68, 0
1, 15780, Note_on_c, 0, 66, 78
1, 15840, Note_on_c, 0, 66, 0
1, 15840, Note_on_c, 0, 68, 80
1, 15840, Note_on_c, 1, 52, 72
1, 15840, Note_on_c, 1, 59, 72
1, 15900, Note_on_c, 0, 68, 0
1, 15900, Note_on_c, 0, 69, 80
1, 15930, Note_on_c, 0, 69, 0
1, 15930, Note_on_c, 0, 68, 80
1, 15960, Note_on_c, 0, 68, 0
1, 15960, Note_on_c, 0, 66, 80
1, 15990, Note_on_c, 0, 66, 0
1, 15990, Note_on_c, 0, 68, 80
1, 16020, Note_on_c, 0, 68, 0
1, 16020, Note_on_c, 0, 69, 80
1, 16080, Note_on_c, 0, 69, 0
1, 16080, Note_on_c, 0, 71, 80
1, 16080, Note_on_c, 1, 59, 0
1, 16080, Note_on_c, 1, 52, 0
1, 16128, Note_on_c, 0, 71, 0
1, 16200, Note_on_c, 0, 64, 80
1, 16200, Note_on_c, 1, 56, 72
1, 16200, Note_on_c, 1, 59, 72
1, 16248, Note_on_c, 0, 64, 0
1, 16248, Note_on_c, 1, 59, 0
1, 16248, Note_on_c, 1, 56, 0
1, 16320, Note_on_c, 0, 63, 80
1, 16320, Note_on_c, 1, 54, 72
1, 16320, Note_on_c, 1, 57, 72
1, 16416, Note_on_c, 1, 57, 0
1, 16416, Note_on_c, 1, 54, 0
1, 16440, Note_on_c, 0, 63, 0
1, 16440, Note_on_c, 0, 66, 80
1, 16560, Note_on_c, 0, 66, 0
1, 16560, Note_on_c, 1, 45, 72
1, 16620, Note_on_c, 0, 59, 80
1, 16680, Note_on_c, 0, 59, 0
1, 16680, Note_on_c, 0, 61, 80
1, 16740, Note_on_c, 0, 61, 0
1, 16740, Note_on_c, 0, 63, 80
1, 16800, Note_on_c, 0, 63, 0
1, 16800, Note_on_c, 0, 64, 80
1, 16800, Note_on_c, 1, 45, 0
1, 16800, Note_on_c, 1, 44, 72
1, 16860, Note_on_c, 0, 64, 0
1, 16860, Note_on_c, 0, 66, 80
1, 16920, Note_on_c, 0, 66, 0
1, 16920, Note_on_c, 0, 68, 80
1, 16980, Note_on_c, 0, 68, 0
1, 16980, Note_on_c, 0, 69, 80
1, 17040, Note_on_c, 0, 69, 0
1, 17040, Note_on_c, 0, 71, 80
1, 17040, Note_on_c, 1, 44, 0
1, 17100, Note_on_c, 0, 71, 0
1, 17100, Note_on_c, 0, 73, 80
1, 17160, Note_on_c, 0, 73, 0
1, 17160, Note_on_c, 0, 75, 80
1, 17160, Note_on_c, 1, 68, 85
1, 17220, Note_on_c, 0, 75, 0
1, 17220, Note_on_c, 0, 76, 80
1, 17280, Note_on_c, 0, 76, 0
1, 17280, Note_on_c, 0, 71, 80
1, 17280, Note_on_c, 1, 68, 0
1, 17280, Note_on_c, 1, 66, 85
1, 17400, Note_on_c, 0, 71, 0
1, 17400, Note_on_c, 0, 69, 80
1, 17400, Note_on_c, 1, 66, 0
1, 17400, Note_on_c, 1, 59, 85
1, 17440, Note_on_c, 0, 69, 0
1, 17440, Note_on_c, 0, 71, 80
1, 17480, Note_on_c, 0, 71, 0
1, 17480, Note_on_c, 0, 69, 80
1, 17520, Note_on_c, 0, 69, 0
1, 17520, Note_on_c, 0, 68, 80
1, 17520, Note_on_c, 1, 59, 0
1, 17520, Note_on_c, 1, 64, 64
1, 17580, Note_on_c, 0, 68, 0
1, 17580, Note_on_c, 0, 71, 64
1, 17640, Note_on_c, 0, 71, 0
1, 17640, Note_on_c, 0, 73, 64
1, 17700, Note_on_c, 0, 73, 0
1, 17700, Note_on_c, 0, 75, 64
1, 17760, Note_on_c, 0, 75, 0
1, 17760, Note_on_c, 0, 76, 64
1, 17760, Note_on_c, 1, 64, 0
1, 17820, Note_on_c, 0, 76, 0
1, 17820, Note_on_c, 0, 78, 64
1, 17880, Note_on_c, 0, 78, 0
1, 17880, Note_on_c, 0, 80, 64
1, 17940, Note_on_c, 0, 80, 0
1, 17940, Note_on_c, 0, 81, 64
1, 18000, Note_on_c, 0, 81, 0
1, 18000, Note_on_c, 0, 83, 64
1, 18060, Note_on_c, 0, 83, 0
1, 18060, Note_on_c, 0, 80, 64
1, 18084, Note_on_c, 0, 80, 0
1, 18120, Note_on_c, 0, 78, 64
1, 18144, Note_on_c, 0, 78, 0
1, 18180, Note_on_c, 0, 76, 64
1, 18204, Note_on_c, 0, 76, 0
1, 18240, Note_on_c, 1, 57, 64
1, 18288, Note_on_c, 1, 57, 0
1, 18360, Note_on_c, 0, 85, 64
1, 18408, Note_on_c, 0, 85, 0
1, 18480, Note_on_c, 1, 69, 64
1, 18528, Note_on_c, 1, 69, 0
1, 18600, Note_on_c, 0, 87, 64
1, 18648, Note_on_c, 0, 87, 0
1, 18720, Note_on_c, 0, 88, 64
1, 18720, Note_on_c, 1, 68, 64
1, 18780, Note_on_c, 0, 88, 0
1, 18780, Note_on_c, 0, 83, 64
1, 18840, Note_on_c, 0, 83, 0
1, 18840, Note_on_c, 0, 85, 64
1, 18840, Note_on_c, 1, 68, 0
1, 18840, Note_on_c, 1, 69, 64
1, 18888, Note_on_c, 1, 69, 0
1, 18900, Note_on_c, 0, 85, 0
1, 18900, Note_on_c, 0, 81, 64
1, 18960, Note_on_c, 0, 81, 0
1, 18960, Note_on_c, 0, 80, 64
1, 18960, Note_on_c, 1, 71, 64
1, 19008, Note_on_c, 1, 71, 0
1, 19020, Note_on_c, 0, 80, 0
1, 19020, Note_on_c, 0, 76, 64
1, 19080, Note_on_c, 0, 76, 0
1, 19080, Note_on_c, 0, 78, 64
1, 19080, Note_on_c, 1, 59, 64
1, 19140, Note_on_c, 0, 78, 0
1, 19140, Note_on_c, 0, 75, 64
1, 19200, Note_on_c, 0, 75, 0
1, 19200, Note_on_c, 0, 76, 64
1, 19200, Note_on_c, 1, 59, 0
1, 19200, Note_on_c, 1, 64, 64
1, 19440, Note_on_c, 0, 76, 0
1, 19440, Note_on_c, 1, 64, 0
1, 19440, Note_on_c, 1, 52, 48
1, 19536, Note_on_c, 1, 52, 0
1, 19560, Note_on_c, 0, 67, 64
1, 19680, Note_on_c, 0, 67, 0
1, 19680, Note_on_c, 0, 67, 88
1, 19680, Note_on_c, 1, 52, 72
1, 19710, Note_on_c, 1, 52, 0
1, 19740, Note_on_c, 1, 59, 72
1, 19800, Note_on_c, 1, 59, 0
1, 19800, Note_on_c, 1, 55, 72
1, 19860, Note_on_c, 0, 67, 0
1, 19860, Note_on_c, 0, 69, 80
1, 19860, Note_on_c, 1, 55, 0
1, 19860, Note_on_c, 1, 59, 72
1, 19920, Note_on_c, 0, 69, 0
1, 19920, Note_on_c, 0, 71, 80
1, 19920, Note_on_c, 1, 59, 0
1, 19920, Note_on_c, 1, 52, 72
1, 19968, Note_on_c, 0, 71, 0
1, 19980, Note_on_c, 1, 52, 0
1, 19980, Note_on_c, 1, 59, 72
1, 20040, Note_on_c, 0, 76, 80
1, 20040, Note_on_c, 1, 59, 0
1, 20040, Note_on_c, 1, 55, 72
1, 20100, Note_on_c, 0, 76, 0
1, 20100, Note_on_c, 1, 55, 0
1, 20100, Note_on_c, 1, 59, 72
1, 20160, Note_on_c, 0, 75, 80
1, 20160, Note_on_c, 1, 59, 0
1, 20160, Note_on_c, 1, 54, 64
1, 20184, Note_on_c, 1, 54, 0
1, 20220, Note_on_c, 1, 59, 64
1, 20280, Note_on_c, 0, 75, 0
1, 20280, Note_on_c, 0, 78, 64
1, 20280, Note_on_c, 1, 59, 0
1, 20280, Note_on_c, 1, 57, 64
1, 20340, Note_on_c, 1, 57, 0
1, 20340, Note_on_c, 1, 59, 64
1, 20364, Note_on_c, 0, 78, 0
1, 20400, Note_on_c, 1, 59, 0
1, 20400, Note_on_c, 1, 54, 64
1, 20424, Note_on_c, 1, 54, 0
1, 20460, Note_on_c, 1, 59, 64
1, 20520, Note_on_c, 0, 71, 80
1, 20520, Note_on_c, 1, 59, 0
1, 20520, Note_on_c, 1, 57, 64
1, 20580, Note_on_c, 1, 57, 0
1, 20580, Note_on_c, 1, 59, 64
1, 20640, Note_on_c, 0, 71, 0
1, 20640, Note_on_c, 0, 76, 80
1, 20640, Note_on_c, 1, 59, 0
1, 20640, Note_on_c, 1, 52, 72
1, 20688, Note_on_c, 0, 76, 0
1, 20700, Note_on_c, 1, 52, 0
1, 20700, Note_on_c, 1, 59, 72
1, 20760, Note_on_c, 0, 76, 80
1, 20760, Note_on_c, 1, 59, 0
1, 20760, Note_on_c, 1, 55, 72
1, 20820, Note_on_c, 1, 55, 0
1, 20820, Note_on_c, 1, 59, 72
1, 20880, Note_on_c, 0, 76, 0
1, 20880, Note_on_c, 0, 78, 80
1, 20880, Note_on_c, 1, 59, 0
1, 20880, Note_on_c, 1, 51, 72
1, 20928, Note_on_c, 0, 78, 0
1, 20940, Note_on_c, 1, 51, 0
1, 20940, Note_on_c, 1, 59, 72
1, 21000, Note_on_c, 0, 78, 80
1, 21000, Note_on_c, 1, 59, 0
1, 21000, Note_on_c, 1, 54, 72
1, 21060, Note_on_c, 1, 54, 0
1, 21060, Note_on_c, 1, 59, 72
1, 21120, Note_on_c, 0, 78, 0
1, 21120, Note_on_c, 0, 81, 80
1, 21120, Note_on_c, 1, 59, 0
1, 21120, Note_on_c, 1, 52, 72
1, 21180, Note_on_c, 1, 52, 0
1, 21180, Note_on_c, 1, 59, 72
1, 21240, Note_on_c, 0, 81, 0
1, 21240, Note_on_c, 0, 79, 72
1, 21240, Note_on_c, 1, 59, 0
1, 21240, Note_on_c, 1, 55, 72
1, 21272, Note_on_c, 0, 79, 0
1, 21280, Note_on_c, 0, 81, 72
1, 21300, Note_on_c, 1, 55, 0
1, 21300, Note_on_c, 1, 59, 72
1, 21312, Note_on_c, 0, 81, 0
1, 21320, Note_on_c, 0, 79, 72
1, 21352, Note_on_c, 0, 79, 0
1, 21360, Note_on_c, 0, 78, 72
1, 21360, Note_on_c, 1, 59, 0
1, 21360, Note_on_c, 1, 47, 72
1, 21408, Note_on_c, 0, 78, 0
1, 21420, Note_on_c, 1, 47, 0
1, 21420, Note_on_c, 1, 59, 72
1, 21480, Note_on_c, 0, 78, 80
1, 21480, Note_on_c, 1, 59, 0
1, 21480, Note_on_c, 1, 51, 72
1, 21540, Note_on_c, 1, 51, 0
1, 21540, Note_on_c, 1, 59, 72
1, 21576, Note_on_c, 0, 78, 0
1, 21600, Note_on_c, 0, 79, 88
1, 21600, Note_on_c, 1, 59, 0
1, 21600, Note_on_c, 1, 52, 72
1, 21624, Note_on_c, 1, 52, 0
1, 21660, Note_on_c, 1, 59, 72
1, 21720, Note_on_c, 1, 59, 0
1, 21720, Note_on_c, 1, 55, 72
1, 21780, Note_on_c, 0, 79, 0
1, 21780, Note_on_c, 0, 81, 80
1, 21780, Note_on_c, 1, 55, 0
1, 21780, Note_on_c, 1, 59, 72
1, 21840, Note_on_c, 0, 81, 0
1, 21840, Note_on_c, 0, 83, 80
1, 21840, Note_on_c, 1, 59, 0
1, 21840, Note_on_c, 1, 52, 72
1, 21864, Note_on_c, 1, 52, 0
1, 21888, Note_on_c, 0, 83, 0
1, 21900, Note_on_c, 1, 59, 72
1, 21960, Note_on_c, 0, 83, 80
1, 21960, Note_on_c, 1, 59, 0
1, 21960, Note_on_c, 1, 55, 72
1, 22008, Note_on_c, 0, 83, 0
1, 22020, Note_on_c, 1, 55, 0
1, 22020, Note_on_c, 1, 59, 72
1, 22080, Note_on_c, 0, 81, 80
1, 22080, Note_on_c, 1, 59, 0
1, 22080, Note_on_c, 1, 48, 64
1, 22140, Note_on_c, 1, 48, 0
1, 22140, Note_on_c, 1, 57, 64
1, 22188, Note_on_c, 0, 81, 0
1, 22200, Note_on_c, 0, 84, 80
1, 22200, Note_on_c, 1, 57, 0
1, 22200, Note_on_c, 1, 52, 64
1, 22260, Note_on_c, 1, 52, 0
1, 22260, Note_on_c, 1, 57, 64
1, 22320, Note_on_c, 1, 57, 0
1, 22320, Note_on_c, 1, 48, 64
1, 22380, Note_on_c, 1, 48, 0
1, 22380, Note_on_c, 1, 57, 64
1, 22440, Note_on_c, 0, 84, 0
1, 22440, Note_on_c, 0, 81, 80
1, 22440, Note_on_c, 1, 57, 0
1, 22440, Note_on_c, 1, 52, 64
1, 22500, Note_on_c, 1, 52, 0
1, 22500, Note_on_c, 1, 57, 64
1, 22560, Note_on_c, 1, 57, 0
1, 22560, Note_on_c, 1, 50, 64
1, 22620, Note_on_c, 1, 50, 0
1, 22620, Note_on_c, 1, 60, 66
1, 22680, Note_on_c, 0, 81, 0
1, 22680, Note_on_c, 0, 78, 80
1, 22680, Note_on_c, 1, 60, 0
1, 22680, Note_on_c, 1, 57, 68
1, 22728, Note_on_c, 0, 78, 0
1, 22740, Note_on_c, 1, 57, 0
1, 22740, Note_on_c, 1, 60, 70
1, 22800, Note_on_c, 0, 79, 80
1, 22800, Note_on_c, 1, 60, 0
1, 22800, Note_on_c, 1, 50, 72
1, 22860, Note_on_c, 0, 79, 0
1, 22860, Note_on_c, 0, 78, 80
1, 22860, Note_on_c, 1, 50, 0
1, 22860, Note_on_c, 1, 60, 74
1, 22920, Note_on_c, 0, 78, 0
1, 22920, Note_on_c, 0, 76, 80
1, 22920, Note_on_c, 1, 60, 0
1, 22920, Note_on_c, 1, 57, 76
1, 22980, Note_on_c, 0, 76, 0
1, 22980, Note_on_c, 0, 74, 80
1, 22980, Note_on_c, 1, 57, 0
1, 22980, Note_on_c, 1, 60, 78
1, 23040, Note_on_c, 0, 74, 0
1, 23040, Note_on_c, 0, 79, 80
1, 23040, Note_on_c, 1, 60, 0
1, 23040, Note_on_c, 1, 59, 85
1, 23040, Note_on_c, 1, 55, 85
1, 23280, Note_on_c, 0, 79, 0
1, 23280, Note_on_c, 1, 55, 0
1, 23280, Note_on_c, 1, 59, 0
1, 23280, Note_on_c, 1, 43, 64
1, 23376, Note_on_c, 1, 43, 0
1, 23400, Note_on_c, 0, 83, 72
1, 23484, Note_on_c, 0, 83, 0
1, 23520, Note_on_c, 0, 83, 80
1, 23520, Note_on_c, 1, 59, 64
1, 23580, Note_on_c, 1, 59, 0
1, 23580, Note_on_c, 1, 67, 64
1, 23640, Note_on_c, 1, 67, 0
1, 23640, Note_on_c, 1, 62, 64
1, 23700, Note_on_c, 0, 83, 0
1, 23700, Note_on_c, 0, 84, 72
1, 23700, Note_on_c, 1, 62, 0
1, 23700, Note_on_c, 1, 67, 64
1, 23760, Note_on_c, 0, 84, 0
1, 23760, Note_on_c, 0, 86, 72
1, 23760, Note_on_c, 1, 67, 0
1, 23760, Note_on_c, 1, 59, 64
1, 23808, Note_on_c, 0, 86, 0
1, 23820, Note_on_c, 1, 59, 0
1, 23820, Note_on_c, 1, 67, 64
1, 23880, Note_on_c, 0, 86, 72
1, 23880, Note_on_c, 1, 67, 0
1, 23880, Note_on_c, 1, 62, 64
1, 23940, Note_on_c, 1, 62, 0
1, 23940, Note_on_c, 1, 67, 64
1, 23964, Note_on_c, 0, 86, 0
1, 24000, Note_on_c, 0, 86, 72
1, 24000, Note_on_c, 1, 67, 0
1, 24000, Note_on_c, 1, 60, 64
1, 24060, Note_on_c, 1, 60, 0
1, 24060, Note_on_c, 1, 67, 64
1, 24120, Note_on_c, 0, 86, 0
1, 24120, Note_on_c, 0, 76, 64
1, 24120, Note_on_c, 1, 67, 0
1, 24120, Note_on_c, 1, 64, 64
1, 24180, Note_on_c, 1, 64, 0
1, 24180, Note_on_c, 1, 67, 64
1, 24192, Note_on_c, 0, 76, 0
1, 24240, Note_on_c, 1, 67, 0
1, 24240, Note_on_c, 1, 60, 64
1, 24300, Note_on_c, 1, 60, 0
1, 24300, Note_on_c, 1, 67, 64
1, 24360, Note_on_c, 0, 76, 64
1, 24360, Note_on_c, 1, 67, 0
1, 24360, Note_on_c, 1, 64, 64
1, 24420, Note_on_c, 1, 64, 0
1, 24420, Note_on_c, 1, 67, 64
1, 24480, Note_on_c, 0, 76, 0
1, 24480, Note_on_c, 0, 81, 64
1, 24480, Note_on_c, 1, 67, 0
1, 24480, Note_on_c, 1, 57, 56
1, 24540, Note_on_c, 1, 57, 0
1, 24540, Note_on_c, 1, 66, 56
1, 24600, Note_on_c, 1, 66, 0
1, 24600, Note_on_c, 1, 60, 56
1, 24660, Note_on_c, 0, 81, 0
1, 24660, Note_on_c, 0, 83, 64
1, 24660, Note_on_c, 1, 60, 0
1, 24660, Note_on_c, 1, 66, 56
1, 24720, Note_on_c, 0, 83, 0
1, 24720, Note_on_c, 0, 84, 64
1, 24720, Note_on_c, 1, 66, 0
1, 24720, Note_on_c, 1, 57, 56
1, 24768, Note_on_c, 0, 84, 0
1, 24780, Note_on_c, 1, 57, 0
1, 24780, Note_on_c, 1, 66, 56
1, 24840, Note_on_c, 0, 84, 64
1, 24840, Note_on_c, 1, 66, 0
1, 24840, Note_on_c, 1, 60, 56
1, 24900, Note_on_c, 1, 60, 0
1, 24900, Note_on_c, 1, 66, 56
1, 24924, Note_on_c, 0, 84, 0
1, 24960, Note_on_c, 0, 84, 72
1, 24960, Note_on_c, 1, 66, 0
1, 24960, Note_on_c, 1, 59, 56
1, 25020, Note_on_c, 1, 59, 0
1, 25020, Note_on_c, 1, 66, 56
1, 25080, Note_on_c, 0, 84, 0
1, 25080, Note_on_c, 0, 75, 64
1, 25080, Note_on_c, 1, 66, 0
1, 25080, Note_on_c, 1, 63, 56
1, 25140, Note_on_c, 1, 63, 0
1, 25140, Note_on_c, 1, 66, 56
1, 25152, Note_on_c, 0, 75, 0
1, 25200, Note_on_c, 1, 66, 0
1, 25200, Note_on_c, 1, 57, 56
1, 25260, Note_on_c, 1, 57, 0
1, 25260, Note_on_c, 1, 63, 56
1, 25320, Note_on_c, 0, 71, 72
1, 25320, Note_on_c, 1, 63, 0
1, 25320, Note_on_c, 1, 59, 56
1, 25380, Note_on_c, 1, 59, 0
1, 25380, Note_on_c, 1, 63, 56
1, 25440, Note_on_c, 0, 71, 0
1, 25440, Note_on_c, 0, 76, 72
1, 25440, Note_on_c, 1, 63, 0
1, 25440, Note_on_c, 1, 55, 64
1, 25488, Note_on_c, 0, 76, 0
1, 25500, Note_on_c, 1, 55, 0
1, 25500, Note_on_c, 1, 64, 64
1, 25560, Note_on_c, 0, 76, 72
1, 25560, Note_on_c, 1, 64, 0
1, 25560, Note_on_c, 1, 59, 64
1, 25620, Note_on_c, 1, 59, 0
1, 25620, Note_on_c, 1, 64, 64
1, 25680, Note_on_c, 0, 76, 0
1, 25680, Note_on_c, 0, 78, 72
1, 25680, Note_on_c, 1, 64, 0
1, 25680, Note_on_c, 1, 51, 64
1, 25728, Note_on_c, 0, 78, 0
1, 25740, Note_on_c, 1, 51, 0
1, 25740, Note_on_c, 1, 59, 64
1, 25800, Note_on_c, 0, 78, 72
1, 25800, Note_on_c, 1, 59, 0
1, 25800, Note_on_c, 1, 54, 64
1, 25860, Note_on_c, 1, 54, 0
1, 25860, Note_on_c, 1, 59, 64
1, 25920, Note_on_c, 0, 78, 0
1, 25920, Note_on_c, 0, 81, 72
1, 25920, Note_on_c, 1, 59, 0
1, 25920, Note_on_c, 1, 52, 64
1, 25980, Note_on_c, 1, 52, 0
1, 25980, Note_on_c, 1, 59, 64
1, 26040, Note_on_c, 0, 81, 0
1, 26040, Note_on_c, 0, 79, 72
1, 26040, Note_on_c, 1, 59, 0
1, 26040, Note_on_c, 1, 55, 64
1, 26080, Note_on_c, 0, 79, 0
1, 26080, Note_on_c, 0, 81, 72
1, 26100, Note_on_c, 1, 55, 0
1, 26100, Note_on_c, 1, 59, 64
1, 26120, Note_on_c, 0, 81, 0
1, 26120, Note_on_c, 0, 79, 72
1, 26160, Note_on_c, 0, 79, 0
1, 26160, Note_on_c, 0, 78, 72
1, 26160, Note_on_c, 1, 59, 0
1, 26160, Note_on_c, 1, 47, 64
1, 26208, Note_on_c, 0, 78, 0
1, 26220, Note_on_c, 1, 47, 0
1, 26220, Note_on_c, 1, 59, 64
1, 26280, Note_on_c, 0, 83, 72
1, 26280, Note_on_c, 1, 59, 0
1, 26280, Note_on_c, 1, 51, 64
1, 26340, Note_on_c, 1, 51, 0
1, 26340, Note_on_c, 1, 59, 64
1, 26364, Note_on_c, 0, 83, 0
1, 26400, Note_on_c, 0, 76, 72
1, 26400, Note_on_c, 1, 59, 0
1, 26400, Note_on_c, 1, 48, 64
1, 26448, Note_on_c, 0, 76, 0
1, 26460, Note_on_c, 1, 48, 0
1, 26460, Note_on_c, 1, 59, 65
1, 26520, Note_on_c, 0, 76, 74
1, 26520, Note_on_c, 1, 59, 0
1, 26520, Note_on_c, 1, 55, 66
1, 26580, Note_on_c, 1, 55, 0
1, 26580, Note_on_c, 1, 59, 67
1, 26640, Note_on_c, 0, 76, 0
1, 26640, Note_on_c, 0, 84, 76
1, 26640, Note_on_c, 1, 59, 0
1, 26640, Note_on_c, 1, 48, 68
1, 26688, Note_on_c, 0, 84, 0
1, 26700, Note_on_c, 1, 48, 0
1, 26700, Note_on_c, 1, 57, 69
1, 26760, Note_on_c, 0, 84, 78
1, 26760, Note_on_c, 1, 57, 0
1, 26760, Note_on_c, 1, 55, 70
1, 26820, Note_on_c, 1, 55, 0
1, 26820, Note_on_c, 1, 57, 71
1, 26880, Note_on_c, 0, 84, 0
1, 26880, Note_on_c, 0, 75, 96
1, 26880, Note_on_c, 1, 57, 0
1, 26880, Note_on_c, 1, 47, 80
1, 26940, Note_on_c, 1, 47, 0
1, 26940, Note_on_c, 1, 57, 64
1, 27000, Note_on_c, 1, 57, 0
1, 27000, Note_on_c, 1, 54, 64
1, 27060, Note_on_c, 1, 54, 0
1, 27060, Note_on_c, 1, 57, 64
1, 27120, Note_on_c, 0, 75, 0
1, 27120, Note_on_c, 0, 76, 80
1, 27120, Note_on_c, 1, 57, 0
1, 27120, Note_on_c, 1, 48, 64
1, 27168, Note_on_c, 0, 76, 0
1, 27180, Note_on_c, 1, 48, 0
1, 27180, Note_on_c, 1, 55, 64
1, 27240, Note_on_c, 0, 76, 80
1, 27240, Note_on_c, 1, 55, 0
1, 27240, Note_on_c, 1, 52, 64
1, 27300, Note_on_c, 1, 52, 0
1, 27300, Note_on_c, 1, 55, 64
1, 27360, Note_on_c, 0, 76, 0
1, 27360, Note_on_c, 0, 78, 80
1, 27360, Note_on_c, 1, 55, 0
1, 27360, Note_on_c, 1, 45, 64
1, 27408, Note_on_c, 0, 78, 0
1, 27420, Note_on_c, 1, 45, 0
1, 27420, Note_on_c, 1, 57, 64
1, 27480, Note_on_c, 0, 78, 80
1, 27480, Note_on_c, 1, 57, 0
1, 27480, Note_on_c, 1, 48, 64
1, 27540, Note_on_c, 1, 48, 0
1, 27540, Note_on_c, 1, 57, 64
1, 27600, Note_on_c, 0, 78, 0
1, 27600, Note_on_c, 0, 76, 80
1, 27600, Note_on_c, 1, 57, 0
1, 27600, Note_on_c, 1, 47, 64
1, 27660, Note_on_c, 0, 76, 0
1, 27660, Note_on_c, 0, 75, 80
1, 27660, Note_on_c, 1, 47, 0
1, 27660, Note_on_c, 1, 57, 64
1, 27720, Note_on_c, 0, 75, 0
1, 27720, Note_on_c, 0, 73, 80
1, 27720, Note_on_c, 1, 57, 0
1, 27720, Note_on_c, 1, 54, 64
1, 27780, Note_on_c, 0, 73, 0
1, 27780, Note_on_c, 0, 71, 80
1, 27780, Note_on_c, 1, 54, 0
1, 27780, Note_on_c, 1, 57, 64
1, 27840, Note_on_c, 0, 71, 0
1, 27840, Note_on_c, 0, 76, 80
1, 27840, Note_on_c, 1, 57, 0
1, 27840, Note_on_c, 1, 55, 80
1, 27840, Note_on_c, 1, 52, 80
1, 28056, Note_on_c, 0, 76, 0
1, 28056, Note_on_c, 1, 52, 0
1, 28056, Note_on_c, 1, 55, 0
1, 28080, Note_on_c, 1, 40, 64
1, 28176, Note_on_c, 1, 40, 0
1, 28200, Note_on_c, 0, 83, 80
1, 28320, Note_on_c, 0, 83, 0
1, 28320, Note_on_c, 0, 83, 80
1, 28320, Note_on_c, 1, 59, 72
1, 28380, Note_on_c, 0, 83, 0
1, 28380, Note_on_c, 0, 86, 80
1, 28380, Note_on_c, 1, 59, 0
1, 28380, Note_on_c, 1, 67, 72
1, 28440, Note_on_c, 0, 86, 0
1, 28440, Note_on_c, 0, 84, 80
1, 28440, Note_on_c, 1, 67, 0
1, 28440, Note_on_c, 1, 62, 72
1, 28500, Note_on_c, 0, 84, 0
1, 28500, Note_on_c, 0, 88, 80
1, 28500, Note_on_c, 1, 62, 0
1, 28500, Note_on_c, 1, 67, 72
1, 28560, Note_on_c, 0, 88, 0
1, 28560, Note_on_c, 0, 86, 80
1, 28560, Note_on_c, 1, 67, 0
1, 28560, Note_on_c, 1, 59, 72
1, 28608, Note_on_c, 0, 86, 0
1, 28620, Note_on_c, 1, 59, 0
1, 28620, Note_on_c, 1, 67, 72
1, 28680, Note_on_c, 0, 86, 80
1, 28680, Note_on_c, 1, 67, 0
1, 28680, Note_on_c, 1, 62, 72
1, 28740, Note_on_c, 1, 62, 0
1, 28740, Note_on_c, 1, 67, 72
1, 28800, Note_on_c, 0, 86, 0
1, 28800, Note_on_c, 0, 86, 72
1, 28800, Note_on_c, 1, 67, 0
1, 28800, Note_on_c, 1, 60, 72
1, 28860, Note_on_c, 0, 86, 0
1, 28860, Note_on_c, 0, 76, 80
1, 28860, Note_on_c, 1, 60, 0
1, 28860, Note_on_c, 1, 67, 72
1, 28920, Note_on_c, 0, 76, 0
1, 28920, Note_on_c, 0, 75, 80
1, 28920, Note_on_c, 1, 67, 0
1, 28920, Note_on_c, 1, 64, 72
1, 28980, Note_on_c, 0, 75, 0
1, 28980, Note_on_c, 0, 76, 80
1, 28980, Note_on_c, 1, 64, 0
1, 28980, Note_on_c, 1, 67, 72
1, 29040, Note_on_c, 0, 76, 0
1, 29040, Note_on_c, 0, 75, 80
1, 29040, Note_on_c, 1, 67, 0
1, 29040, Note_on_c, 1, 60, 72
1, 29100, Note_on_c, 0, 75, 0
1, 29100, Note_on_c, 0, 76, 80
1, 29100, Note_on_c, 1, 60, 0
1, 29100, Note_on_c, 1, 67, 72
1, 29160, Note_on_c, 0, 76, 0
1, 29160, Note_on_c, 0, 75, 80
1, 29160, Note_on_c, 1, 67, 0
1, 29160, Note_on_c, 1, 64, 72
1, 29220, Note_on_c, 0, 75, 0
1, 29220, Note_on_c, 0, 76, 80
1, 29220, Note_on_c, 1, 64, 0
1, 29220, Note_on_c, 1, 67, 72
1, 29280, Note_on_c, 0, 76, 0
1, 29280, Note_on_c, 0, 81, 80
1, 29280, Note_on_c, 1, 67, 0
1, 29280, Note_on_c, 1, 57, 72
1, 29340, Note_on_c, 0, 81, 0
1, 29340, Note_on_c, 0, 83, 80
1, 29340, Note_on_c, 1, 57, 0
1, 29340, Note_on_c, 1, 66, 72
1, 29370, Note_on_c, 0, 83, 0
1, 29370, Note_on_c, 0, 81, 80
1, 29400, Note_on_c, 0, 81, 0
1, 29400, Note_on_c, 0, 80, 80
1, 29400, Note_on_c, 1, 66, 0
1, 29400, Note_on_c, 1, 60, 72
1, 29430, Note_on_c, 0, 80, 0
1, 29430, Note_on_c, 0, 81, 80
1, 29460, Note_on_c, 0, 81, 0
1, 29460, Note_on_c, 0, 83, 80
1, 29460, Note_on_c, 1, 60, 0
1, 29460, Note_on_c, 1, 66, 72
1, 29520, Note_on_c, 0, 83, 0
1, 29520, Note_on_c, 0, 84, 80
1, 29520, Note_on_c, 1, 66, 0
1, 29520, Note_on_c, 1, 57, 72
1, 29568, Note_on_c, 0, 84, 0
1, 29580, Note_on_c, 1, 57, 0
1, 29580, Note_on_c, 1, 66, 72
1, 29640, Note_on_c, 0, 84, 80
1, 29640, Note_on_c, 1, 66, 0
1, 29640, Note_on_c, 1, 60, 72
1, 29700, Note_on_c, 1, 60, 0
1, 29700, Note_on_c, 1, 66, 72
1, 29724, Note_on_c, 0, 84, 0
1, 29760, Note_on_c, 0, 84, 80
1, 29760, Note_on_c, 1, 66, 0
1, 29760, Note_on_c, 1, 59, 72
1, 29820, Note_on_c, 1, 59, 0
1, 29820, Note_on_c, 1, 66, 72
1, 29880, Note_on_c, 1, 66, 0
1, 29880, Note_on_c, 1, 62, 72
1, 29940, Note_on_c, 1, 62, 0
1, 29940, Note_on_c, 1, 66, 72
1, 30000, Note_on_c, 0, 84, 0
1, 30000, Note_on_c, 0, 74, 80
1, 30000, Note_on_c, 1, 66, 0
1, 30000, Note_on_c, 1, 59, 72
1, 30048, Note_on_c, 0, 74, 0
1, 30060, Note_on_c, 1, 59, 0
1, 30060, Note_on_c, 1, 66, 72
1, 30120, Note_on_c, 0, 74, 80
1, 30120, Note_on_c, 1, 66, 0
1, 30120, Note_on_c, 1, 62, 72
1, 30180, Note_on_c, 1, 62, 0
1, 30180, Note_on_c, 1, 66, 72
1, 30240, Note_on_c, 0, 74, 0
1, 30240, Note_on_c, 0, 79, 80
1, 30240, Note_on_c, 1, 66, 0
1, 30240, Note_on_c, 1, 55, 72
1, 30300, Note_on_c, 0, 79, 0
1, 30300, Note_on_c, 0, 78, 80
1, 30300, Note_on_c, 1, 55, 0
1, 30300, Note_on_c, 1, 64, 72
1, 30360, Note_on_c, 0, 78, 0
1, 30360, Note_on_c, 0, 81, 80
1, 30360, Note_on_c, 1, 64, 0
1, 30360, Note_on_c, 1, 59, 72
1, 30420, Note_on_c, 0, 81, 0
1, 30420, Note_on_c, 0, 79, 80
1, 30420, Note_on_c, 1, 59, 0
1, 30420, Note_on_c, 1, 64, 72
1, 30480, Note_on_c, 0, 79, 0
1, 30480, Note_on_c, 0, 83, 80
1, 30480, Note_on_c, 1, 64, 0
1, 30480, Note_on_c, 1, 55, 72
1, 30528, Note_on_c, 0, 83, 0
1, 30540, Note_on_c, 1, 55, 0
1, 30540, Note_on_c, 1, 64, 72
1, 30600, Note_on_c, 0, 83, 80
1, 30600, Note_on_c, 1, 64, 0
1, 30600, Note_on_c, 1, 59, 72
1, 30660, Note_on_c, 1, 59, 0
1, 30660, Note_on_c, 1, 64, 72
1, 30720, Note_on_c, 0, 83, 0
1, 30720, Note_on_c, 0, 83, 80
1, 30720, Note_on_c, 1, 64, 0
1, 30720, Note_on_c, 1, 57, 72
1, 30780, Note_on_c, 0, 83, 0
1, 30780, Note_on_c, 0, 72, 80
1, 30780, Note_on_c, 1, 57, 0
1, 30780, Note_on_c, 1, 64, 72
1, 30840, Note_on_c, 0, 72, 0
1, 30840, Note_on_c, 0, 71, 80
1, 30840, Note_on_c, 1, 64, 0
1, 30840, Note_on_c, 1, 60, 72
1, 30900, Note_on_c, 0, 71, 0
1, 30900, Note_on_c, 0, 72, 80
1, 30900, Note_on_c, 1, 60, 0
1, 30900, Note_on_c, 1, 64, 72
1, 30960, Note_on_c, 0, 72, 0
1, 30960, Note_on_c, 0, 74, 80
1, 30960, Note_on_c, 1, 64, 0
1, 30960, Note_on_c, 1, 57, 72
1, 31020, Note_on_c, 0, 74, 0
1, 31020, Note_on_c, 0, 72, 80
1, 31020, Note_on_c, 1, 57, 0
1, 31020, Note_on_c, 1, 64, 72
1, 31080, Note_on_c, 0, 72, 0
1, 31080, Note_on_c, 0, 71, 80
1, 31080, Note_on_c, 1, 64, 0
1, 31080, Note_on_c, 1, 60, 72
1, 31140, Note_on_c, 0, 71, 0
1, 31140, Note_on_c, 0, 72, 80
1, 31140, Note_on_c, 1, 60, 0
1, 31140, Note_on_c, 1, 64, 72
1, 31200, Note_on_c, 0, 72, 0
1, 31200, Note_on_c, 0, 78, 80
1, 31200, Note_on_c, 1, 64, 0
1, 31200, Note_on_c, 1, 54, 72
1, 31260, Note_on_c, 0, 78, 0
1, 31260, Note_on_c, 0, 79, 80
1, 31260, Note_on_c, 1, 54, 0
1, 31260, Note_on_c, 1, 62, 72
1, 31290, Note_on_c, 0, 79, 0
1, 31290, Note_on_c, 0, 78, 80
1, 31320, Note_on_c, 0, 78, 0
1, 31320, Note_on_c, 0, 76, 80
1, 31320, Note_on_c, 1, 62, 0
1, 31320, Note_on_c, 1, 57, 72
1, 31350, Note_on_c, 0, 76, 0
1, 31350, Note_on_c, 0, 78, 80
1, 31380, Note_on_c, 0, 78, 0
1, 31380, Note_on_c, 0, 79, 80
1, 31380, Note_on_c, 1, 57, 0
1, 31380, Note_on_c, 1, 62, 72
1, 31440, Note_on_c, 0, 79, 0
1, 31440, Note_on_c, 0, 81, 80
1, 31440, Note_on_c, 1, 62, 0
1, 31440, Note_on_c, 1, 54, 72
1, 31488, Note_on_c, 0, 81, 0
1, 31500, Note_on_c, 1, 54, 0
1, 31500, Note_on_c, 1, 62, 72
1, 31560, Note_on_c, 0, 81, 80
1, 31560, Note_on_c, 1, 62, 0
1, 31560, Note_on_c, 1, 57, 72
1, 31620, Note_on_c, 1, 57, 0
1, 31620, Note_on_c, 1, 62, 72
1, 31632, Note_on_c, 0, 81, 0
1, 31680, Note_on_c, 0, 81, 80
1, 31680, Note_on_c, 1, 62, 0
1, 31680, Note_on_c, 1, 55, 72
1, 31740, Note_on_c, 1, 55, 0
1, 31740, Note_on_c, 1, 62, 72
1, 31800, Note_on_c, 0, 81, 0
1, 31800, Note_on_c, 0, 71, 80
1, 31800, Note_on_c, 1, 62, 0
1, 31800, Note_on_c, 1, 59, 72
1, 31848, Note_on_c, 0, 71, 0
1, 31860, Note_on_c, 1, 59, 0
1, 31860, Note_on_c, 1, 62, 72
1, 31920, Note_on_c, 0, 79, 80
1, 31920, Note_on_c, 1, 62, 0
1, 31920, Note_on_c, 1, 47, 72
1, 31968, Note_on_c, 0, 79, 0
1, 31980, Note_on_c, 1, 47, 0
1, 31980, Note_on_c, 1, 55, 72
1, 32040, Note_on_c, 0, 74, 80
1, 32040, Note_on_c, 1, 55, 0
1, 32040, Note_on_c, 1, 50, 72
1, 32088, Note_on_c, 0, 74, 0
1, 32100, Note_on_c, 1, 50, 0
1, 32100, Note_on_c, 1, 55, 72
1, 32160, Note_on_c, 0, 76, 80
1, 32160, Note_on_c, 1, 55, 0
1, 32160, Note_on_c, 1, 48, 72
1, 32220, Note_on_c, 1, 48, 0
1, 32220, Note_on_c, 1, 55, 72
1, 32280, Note_on_c, 0, 76, 0
1, 32280, Note_on_c, 0, 69, 80
1, 32280, Note_on_c, 1, 55, 0
1, 32280, Note_on_c, 1, 52, 72
1, 32340, Note_on_c, 1, 52, 0
1, 32340, Note_on_c, 1, 55, 72
1, 32400, Note_on_c, 0, 69, 0
1, 32400, Note_on_c, 0, 72, 80
1, 32400, Note_on_c, 1, 55, 0
1, 32400, Note_on_c, 1, 50, 72
1, 32460, Note_on_c, 1, 50, 0
1, 32460, Note_on_c, 1, 60, 72
1, 32520, Note_on_c, 0, 72, 0
1, 32520, Note_on_c, 0, 66, 80
1, 32520, Note_on_c, 1, 60, 0
1, 32520, Note_on_c, 1, 57, 72
1, 32580, Note_on_c, 1, 57, 0
1, 32580, Note_on_c, 1, 60, 72
1, 32640, Note_on_c, 0, 66, 0
1, 32640, Note_on_c, 0, 69, 80
1, 32640, Note_on_c, 1, 60, 0
1, 32640, Note_on_c, 1, 55, 85
1, 32640, Note_on_c, 1, 60, 85
1, 32880, Note_on_c, 0, 69, 0
1, 32880, Note_on_c, 0, 67, 72
1, 32880, Note_on_c, 1, 60, 0
1, 32880, Note_on_c, 1, 55, 0
1, 32880, Note_on_c, 1, 55, 72
1, 32880, Note_on_c, 1, 59, 72
1, 32928, Note_on_c, 0, 67, 0
1, 33000, Note_on_c, 0, 67, 80
1, 33048, Note_on_c, 0, 67, 0
1, 33120, Note_on_c, 0, 67, 88
1, 33120, Note_on_c, 1, 59, 0
1, 33120, Note_on_c, 1, 55, 0
1, 33120, Note_on_c, 1, 52, 72
1, 33150, Note_on_c, 1, 52, 0
1, 33180, Note_on_c, 1, 59, 72
1, 33240, Note_on_c, 1, 59, 0
1, 33240, Note_on_c, 1, 55, 72
1, 33300, Note_on_c, 0, 67, 0
1, 33300, Note_on_c, 0, 69, 80
1, 33300, Note_on_c, 1, 55, 0
1, 33300, Note_on_c, 1, 59, 72
1, 33360, Note_on_c, 0, 69, 0
1, 33360, Note_on_c, 0, 71, 80
1, 33360, Note_on_c, 1, 59, 0
1, 33360, Note_on_c, 1, 52, 72
1, 33408, Note_on_c, 0, 71, 0
1, 33420, Note_on_c, 1, 52, 0
1, 33420, Note_on_c, 1, 59, 72
1, 33480, Note_on_c, 0, 76, 80
1, 33480, Note_on_c, 1, 59, 0
1, 33480, Note_on_c, 1, 55, 72
1, 33540, Note_on_c, 0, 76, 0
1, 33540, Note_on_c, 1, 55, 0
1, 33540, Note_on_c, 1, 59, 72
1, 33600, Note_on_c, 0, 75, 80
1, 33600, Note_on_c, 1, 59, 0
1, 33600, Note_on_c, 1, 54, 64
1, 33624, Note_on_c, 1, 54, 0
1, 33660, Note_on_c, 1, 59, 64
1, 33720, Note_on_c, 0, 75, 0
1, 33720, Note_on_c, 0, 78, 64
1, 33720, Note_on_c, 1, 59, 0
1, 33720, Note_on_c, 1, 57, 64
1, 33780, Note_on_c, 1, 57, 0
1, 33780, Note_on_c, 1, 59, 64
1, 33804, Note_on_c, 0, 78, 0
1, 33840, Note_on_c, 1, 59, 0
1, 33840, Note_on_c, 1, 54, 64
1, 33864, Note_on_c, 1, 54, 0
1, 33900, Note_on_c, 1, 59, 64
1, 33960, Note_on_c, 0, 71, 80
1, 33960, Note_on_c, 1, 59, 0
1, 33960, Note_on_c, 1, 57, 64
1, 34008, Note_on_c, 0, 71, 0
1, 34020, Note_on_c, 1, 57, 0
1, 34020, Note_on_c, 1, 59, 64
1, 34080, Note_on_c, 1, 59, 0
1, 34080, Note_on_c, 1, 52, 72
1, 34140, Note_on_c, 1, 52, 0
1, 34140, Note_on_c, 1, 59, 72
1, 34200, Note_on_c, 0, 76, 80
1, 34200, Note_on_c, 1, 59, 0
1, 34200, Note_on_c, 1, 55, 72
1, 34248, Note_on_c, 0, 76, 0
1, 34260, Note_on_c, 1, 55, 0
1, 34260, Note_on_c, 1, 59, 72
1, 34320, Note_on_c, 1, 59, 0
1, 34320, Note_on_c, 1, 51, 72
1, 34380, Note_on_c, 1, 51, 0
1, 34380, Note_on_c, 1, 59, 72
1, 34440, Note_on_c, 0, 78, 80
1, 34440, Note_on_c, 1, 59, 0
1, 34440, Note_on_c, 1, 54, 72
1, 34500, Note_on_c, 1, 54, 0
1, 34500, Note_on_c, 1, 59, 72
1, 34548, Note_on_c, 0, 78, 0
1, 34560, Note_on_c, 0, 81, 80
1, 34560, Note_on_c, 1, 59, 0
1, 34560, Note_on_c, 1, 52, 64
1, 34620, Note_on_c, 1, 52, 0
1, 34620, Note_on_c, 1, 59, 64
1, 34680, Note_on_c, 0, 81, 0
1, 34680, Note_on_c, 0, 79, 72
1, 34680, Note_on_c, 1, 59, 0
1, 34680, Note_on_c, 1, 55, 64
1, 34720, Note_on_c, 0, 79, 0
1, 34720, Note_on_c, 0, 81, 72
1, 34740, Note_on_c, 1, 55, 0
1, 34740, Note_on_c, 1, 59, 64
1, 34760, Note_on_c, 0, 81, 0
1, 34760, Note_on_c, 0, 79, 72
1, 34800, Note_on_c, 0, 79, 0
1, 34800, Note_on_c, 0, 78, 72
1, 34800, Note_on_c, 1, 59, 0
1, 34800, Note_on_c, 1, 47, 64
1, 34848, Note_on_c, 0, 78, 0
1, 34860, Note_on_c, 1, 47, 0
1, 34860, Note_on_c, 1, 59, 64
1, 34920, Note_on_c, 0, 83, 72
1, 34920, Note_on_c, 1, 59, 0
1, 34920, Note_on_c, 1, 51, 64
1, 34980, Note_on_c, 1, 51, 0
1, 34980, Note_on_c, 1, 59, 64
1, 35004, Note_on_c, 0, 83, 0
1, 35040, Note_on_c, 0, 76, 72
1, 35040, Note_on_c, 1, 59, 0
1, 35040, Note_on_c, 1, 48, 64
1, 35088, Note_on_c, 0, 76, 0
1, 35100, Note_on_c, 1, 48, 0
1, 35100, Note_on_c, 1, 59, 65
1, 35160, Note_on_c, 0, 76, 74
1, 35160, Note_on_c, 1, 59, 0
1, 35160, Note_on_c, 1, 55, 66
1, 35220, Note_on_c, 1, 55, 0
1, 35220, Note_on_c, 1, 59, 67
1, 35280, Note_on_c, 0, 76, 0
1, 35280, Note_on_c, 0, 84, 76
1, 35280, Note_on_c, 1, 59, 0
1, 35280, Note_on_c, 1, 48, 68
1, 35328, Note_on_c, 0, 84, 0
1, 35340, Note_on_c, 1, 48, 0
1, 35340, Note_on_c, 1, 57, 69
1, 35400, Note_on_c, 0, 84, 78
1, 35400, Note_on_c, 1, 57, 0
1, 35400, Note_on_c, 1, 55, 70
1, 35460, Note_on_c, 1, 55, 0
1, 35460, Note_on_c, 1, 57, 71
1, 35520, Note_on_c, 0, 84, 0
1, 35520, Note_on_c, 0, 75, 96
1, 35520, Note_on_c, 1, 57, 0
1, 35520, Note_on_c, 1, 47, 80
1, 35580, Note_on_c, 1, 47, 0
1, 35580, Note_on_c, 1, 57, 64
1, 35640, Note_on_c, 1, 57, 0
1, 35640, Note_on_c, 1, 54, 64
1, 35700, Note_on_c, 1, 54, 0
1, 35700, Note_on_c, 1, 57, 64
1, 35760, Note_on_c, 0, 75, 0
1, 35760, Note_on_c, 0, 76, 80
1, 35760, Note_on_c, 1, 57, 0
1, 35760, Note_on_c, 1, 48, 64
1, 35808, Note_on_c, 0, 76, 0
1, 35820, Note_on_c, 1, 48, 0
1, 35820, Note_on_c, 1, 55, 64
1, 35880, Note_on_c, 0, 76, 80
1, 35880, Note_on_c, 1, 55, 0
1, 35880, Note_on_c, 1, 52, 64
1, 35940, Note_on_c, 1, 52, 0
1, 35940, Note_on_c, 1, 55, 64
1, 36000, Note_on_c, 0, 76, 0
1, 36000, Note_on_c, 0, 78, 80
1, 36000, Note_on_c, 1, 55, 0
1, 36000, Note_on_c, 1, 45, 64
1, 36048, Note_on_c, 0, 78, 0
1, 36060, Note_on_c, 1, 45, 0
1, 36060, Note_on_c, 1, 57, 64
1, 36120, Note_on_c, 0, 78, 80
1, 36120, Note_on_c, 1, 57, 0
1, 36120, Note_on_c, 1, 48, 64
1, 36180, Note_on_c, 1, 48, 0
1, 36180, Note_on_c, 1, 57, 64
1, 36240, Note_on_c, 0, 78, 0
1, 36240, Note_on_c, 0, 76, 80
1, 36240, Note_on_c, 1, 57, 0
1, 36240, Note_on_c, 1, 47, 64
1, 36300, Note_on_c, 0, 76, 0
1, 36300, Note_on_c, 0, 75, 80
1, 36300, Note_on_c, 1, 47, 0
1, 36300, Note_on_c, 1, 57, 64
1, 36360, Note_on_c, 0, 75, 0
1, 36360, Note_on_c, 0, 73, 80
1, 36360, Note_on_c, 1, 57, 0
1, 36360, Note_on_c, 1, 54, 64
1, 36420, Note_on_c, 0, 73, 0
1, 36420, Note_on_c, 0, 71, 80
1, 36420, Note_on_c, 1, 54, 0
1, 36420, Note_on_c, 1, 57, 64
1, 36480, Note_on_c, 0, 71, 0
1, 36480, Note_on_c, 0, 76, 80
1, 36480, Note_on_c, 1, 57, 0
1, 36480, Note_on_c, 1, 55, 80
1, 36480, Note_on_c, 1, 52, 80
1, 36696, Note_on_c, 0, 76, 0
1, 36696, Note_on_c, 1, 52, 0
1, 36696, Note_on_c, 1, 55, 0
1, 36720, Note_on_c, 1, 40, 64
1, 36840, Note_on_c, 0, 80, 80
1, 36960, Note_on_c, 0, 80, 0
1, 36960, Note_on_c, 0, 80, 80
1, 36960, Note_on_c, 1, 40, 0
1, 36960, Note_on_c, 1, 64, 72
1, 37020, Note_on_c, 1, 64, 0
1, 37020, Note_on_c, 1, 71, 72
1, 37080, Note_on_c, 1, 71, 0
1, 37080, Note_on_c, 1, 68, 72
1, 37140, Note_on_c, 0, 80, 0
1, 37140, Note_on_c, 0, 81, 80
1, 37140, Note_on_c, 1, 68, 0
1, 37140, Note_on_c, 1, 71, 72
1, 37200, Note_on_c, 0, 81, 0
1, 37200, Note_on_c, 0, 83, 80
1, 37200, Note_on_c, 1, 71, 0
1, 37200, Note_on_c, 1, 64, 72
1, 37248, Note_on_c, 0, 83, 0
1, 37260, Note_on_c, 1, 64, 0
1, 37260, Note_on_c, 1, 71, 72
1, 37320, Note_on_c, 0, 76, 80
1, 37320, Note_on_c, 1, 71, 0
1, 37320, Note_on_c, 1, 68, 72
1, 37380, Note_on_c, 1, 68, 0
1, 37380, Note_on_c, 1, 71, 72
1, 37392, Note_on_c, 0, 76, 0
1, 37440, Note_on_c, 0, 75, 80
1, 37440, Note_on_c, 1, 71, 0
1, 37440, Note_on_c, 1, 59, 72
1, 37500, Note_on_c, 1, 59, 0
1, 37500, Note_on_c, 1, 69, 72
1, 37560, Note_on_c, 0, 75, 0
1, 37560, Note_on_c, 0, 78, 80
1, 37560, Note_on_c, 1, 69, 0
1, 37560, Note_on_c, 1, 66, 72
1, 37620, Note_on_c, 1, 66, 0
1, 37620, Note_on_c, 1, 69, 72
1, 37632, Note_on_c, 0, 78, 0
1, 37680, Note_on_c, 1, 69, 0
1, 37680, Note_on_c, 1, 59, 72
1, 37740, Note_on_c, 1, 59, 0
1, 37740, Note_on_c, 1, 69, 72
1, 37800, Note_on_c, 0, 71, 80
1, 37800, Note_on_c, 1, 69, 0
1, 37800, Note_on_c, 1, 66, 72
1, 37860, Note_on_c, 1, 66, 0
1, 37860, Note_on_c, 1, 69, 72
1, 37920, Note_on_c, 0, 71, 0
1, 37920, Note_on_c, 0, 75, 80
1, 37920, Note_on_c, 1, 69, 0
1, 37920, Note_on_c, 1, 64, 72
1, 37980, Note_on_c, 0, 75, 0
1, 37980, Note_on_c, 0, 76, 80
1, 37980, Note_on_c, 1, 64, 0
1, 37980, Note_on_c, 1, 71, 72
1, 38040, Note_on_c, 0, 76, 0
1, 38040, Note_on_c, 0, 75, 80
1, 38040, Note_on_c, 1, 71, 0
1, 38040, Note_on_c, 1, 68, 72
1, 38100, Note_on_c, 0, 75, 0
1, 38100, Note_on_c, 0, 76, 80
1, 38100, Note_on_c, 1, 68, 0
1, 38100, Note_on_c, 1, 71, 72
1, 38160, Note_on_c, 0, 76, 0
1, 38160, Note_on_c, 0, 77, 80
1, 38160, Note_on_c, 1, 71, 0
1, 38160, Note_on_c, 1, 63, 72
1, 38220, Note_on_c, 0, 77, 0
1, 38220, Note_on_c, 0, 78, 80
1, 38220, Note_on_c, 1, 63, 0
1, 38220, Note_on_c, 1, 71, 72
1, 38280, Note_on_c, 0, 78, 0
1, 38280, Note_on_c, 0, 77, 80
1, 38280, Note_on_c, 1, 71, 0
1, 38280, Note_on_c, 1, 66, 72
1, 38340, Note_on_c, 0, 77, 0
1, 38340, Note_on_c, 0, 78, 80
1, 38340, Note_on_c, 1, 66, 0
1, 38340, Note_on_c, 1, 71, 72
1, 38400, Note_on_c, 0, 78, 0
1, 38400, Note_on_c, 0, 81, 80
1, 38400, Note_on_c, 1, 71, 0
1, 38400, Note_on_c, 1, 64, 72
1, 38460, Note_on_c, 1, 64, 0
1, 38460, Note_on_c, 1, 71, 72
1, 38520, Note_on_c, 0, 81, 0
1, 38520, Note_on_c, 0, 80, 80
1, 38520, Note_on_c, 1, 71, 0
1, 38520, Note_on_c, 1, 68, 72
1, 38560, Note_on_c, 0, 80, 0
1, 38560, Note_on_c, 0, 81, 80
1, 38580, Note_on_c, 1, 68, 0
1, 38580, Note_on_c, 1, 71, 72
1, 38600, Note_on_c, 0, 81, 0
1, 38600, Note_on_c, 0, 80, 80
1, 38640, Note_on_c, 0, 80, 0
1, 38640, Note_on_c, 0, 78, 80
1, 38640, Note_on_c, 1, 71, 0
1, 38640, Note_on_c, 1, 59, 72
1, 38688, Note_on_c, 0, 78, 0
1, 38700, Note_on_c, 1, 59, 0
1, 38700, Note_on_c, 1, 71, 72
1, 38760, Note_on_c, 0, 78, 80
1, 38760, Note_on_c, 1, 71, 0
1, 38760, Note_on_c, 1, 63, 72
1, 38820, Note_on_c, 1, 63, 0
1, 38820, Note_on_c, 1, 71, 72
1, 38880, Note_on_c, 0, 78, 0
1, 38880, Note_on_c, 0, 79, 80
1, 38880, Note_on_c, 1, 71, 0
1, 38880, Note_on_c, 1, 64, 72
1, 38940, Note_on_c, 0, 79, 0
1, 38940, Note_on_c, 0, 80, 80
1, 38940, Note_on_c, 1, 64, 0
1, 38940, Note_on_c, 1, 71, 72
1, 39000, Note_on_c, 0, 80, 0
1, 39000, Note_on_c, 0, 79, 80
1, 39000, Note_on_c, 1, 71, 0
1, 39000, Note_on_c, 1, 68, 72
1, 39060, Note_on_c, 0, 79, 0
1, 39060, Note_on_c, 0, 80, 80
1, 39060, Note_on_c, 1, 68, 0
1, 39060, Note_on_c, 1, 71, 72
1, 39120, Note_on_c, 0, 80, 0
1, 39120, Note_on_c, 0, 82, 80
1, 39120, Note_on_c, 1, 71, 0
1, 39120, Note_on_c, 1, 64, 72
1, 39168, Note_on_c, 0, 82, 0
1, 39180, Note_on_c, 1, 64, 0
1, 39180, Note_on_c, 1, 73, 72
1, 39240, Note_on_c, 0, 82, 80
1, 39240, Note_on_c, 1, 73, 0
1, 39240, Note_on_c, 1, 66, 72
1, 39300, Note_on_c, 1, 66, 0
1, 39300, Note_on_c, 1, 73, 72
1, 39312, Note_on_c, 0, 82, 0
1, 39360, Note_on_c, 0, 83, 80
1, 39360, Note_on_c, 1, 73, 0
1, 39360, Note_on_c, 1, 63, 72
1, 39420, Note_on_c, 1, 63, 0
1, 39420, Note_on_c, 1, 71, 72
1, 39480, Note_on_c, 1, 71, 0
1, 39480, Note_on_c, 1, 66, 72
1, 39540, Note_on_c, 1, 66, 0
1, 39540, Note_on_c, 1, 71, 72
1, 39600, Note_on_c, 1, 71, 0
1, 39600, Note_on_c, 1, 63, 72
1, 39660, Note_on_c, 1, 63, 0
1, 39660, Note_on_c, 1, 71, 72
1, 39720, Note_on_c, 0, 83, 0
1, 39720, Note_on_c, 0, 78, 80
1, 39720, Note_on_c, 1, 71, 0
1, 39720, Note_on_c, 1, 66, 72
1, 39780, Note_on_c, 1, 66, 0
1, 39780, Note_on_c, 1, 71, 72
1, 39840, Note_on_c, 0, 78, 0
1, 39840, Note_on_c, 0, 78, 80
1, 39840, Note_on_c, 1, 71, 0
1, 39840, Note_on_c, 1, 64, 85
1, 39900, Note_on_c, 0, 78, 0
1, 39900, Note_on_c, 0, 76, 80
1, 39960, Note_on_c, 0, 76, 0
1, 39960, Note_on_c, 0, 80, 80
1, 40020, Note_on_c, 0, 80, 0
1, 40020, Note_on_c, 0, 76, 80
1, 40080, Note_on_c, 0, 76, 0
1, 40080, Note_on_c, 0, 75, 80
1, 40080, Note_on_c, 1, 64, 0
1, 40140, Note_on_c, 0, 75, 0
1, 40140, Note_on_c, 0, 73, 80
1, 40200, Note_on_c, 0, 73, 0
1, 40200, Note_on_c, 0, 71, 80
1, 40200, Note_on_c, 1, 66, 85
1, 40260, Note_on_c, 0, 71, 0
1, 40260, Note_on_c, 0, 70, 80
1, 40320, Note_on_c, 0, 70, 0
1, 40320, Note_on_c, 0, 71, 80
1, 40320, Note_on_c, 1, 66, 0
1, 40320, Note_on_c, 1, 59, 85
1, 40560, Note_on_c, 0, 71, 0
1, 40560, Note_on_c, 1, 59, 0
1, 40560, Note_on_c, 1, 47, 64
1, 40656, Note_on_c, 1, 47, 0
1, 40680, Note_on_c, 0, 78, 80
1, 40800, Note_on_c, 0, 78, 0
1, 40800, Note_on_c, 0, 77, 80
1, 40800, Note_on_c, 1, 59, 72
1, 40860, Note_on_c, 0, 77, 0
1, 40860, Note_on_c, 0, 78, 80
1, 40860, Note_on_c, 1, 59, 0
1, 40860, Note_on_c, 1, 69, 72
1, 40920, Note_on_c, 0, 78, 0
1, 40920, Note_on_c, 0, 77, 80
1, 40920, Note_on_c, 1, 69, 0
1, 40920, Note_on_c, 1, 66, 72
1, 40980, Note_on_c, 0, 77, 0
1, 40980, Note_on_c, 0, 78, 80
1, 40980, Note_on_c, 1, 66, 0
1, 40980, Note_on_c, 1, 69, 72
1, 41040, Note_on_c, 0, 78, 0
1, 41040, Note_on_c, 0, 81, 80
1, 41040, Note_on_c, 1, 69, 0
1, 41040, Note_on_c, 1, 59, 72
1, 41088, Note_on_c, 0, 81, 0
1, 41100, Note_on_c, 1, 59, 0
1, 41100, Note_on_c, 1, 69, 72
1, 41160, Note_on_c, 0, 75, 80
1, 41160, Note_on_c, 1, 69, 0
1, 41160, Note_on_c, 1, 66, 72
1, 41220, Note_on_c, 1, 66, 0
1, 41220, Note_on_c, 1, 69, 72
1, 41232, Note_on_c, 0, 75, 0
1, 41280, Note_on_c, 0, 76, 80
1, 41280, Note_on_c, 1, 69, 0
1, 41280, Note_on_c, 1, 59, 72
1, 41340, Note_on_c, 1, 59, 0
1, 41340, Note_on_c, 1, 68, 72
1, 41400, Note_on_c, 1, 68, 0
1, 41400, Note_on_c, 1, 64, 72
1, 41460, Note_on_c, 0, 76, 0
1, 41460, Note_on_c, 0, 80, 80
1, 41460, Note_on_c, 1, 64, 0
1, 41460, Note_on_c, 1, 68, 72
1, 41520, Note_on_c, 0, 80, 0
1, 41520, Note_on_c, 0, 83, 80
1, 41520, Note_on_c, 1, 68, 0
1, 41520, Note_on_c, 1, 59, 72
1, 41568, Note_on_c, 0, 83, 0
1, 41580, Note_on_c, 1, 59, 0
1, 41580, Note_on_c, 1, 68, 56
1, 41640, Note_on_c, 0, 83, 64
1, 41640, Note_on_c, 1, 68, 0
1, 41640, Note_on_c, 1, 64, 56
1, 41700, Note_on_c, 1, 64, 0
1, 41700, Note_on_c, 1, 68, 56
1, 41760, Note_on_c, 0, 83, 0
1, 41760, Note_on_c, 0, 77, 64
1, 41760, Note_on_c, 1, 68, 0
1, 41760, Note_on_c, 1, 59, 56
1, 41820, Note_on_c, 0, 77, 0
1, 41820, Note_on_c, 0, 78, 64
1, 41820, Note_on_c, 1, 59, 0
1, 41820, Note_on_c, 1, 69, 56
1, 41880, Note_on_c, 0, 78, 0
1, 41880, Note_on_c, 0, 77, 64
1, 41880, Note_on_c, 1, 69, 0
1, 41880, Note_on_c, 1, 66, 56
1, 41940, Note_on_c, 0, 77, 0
1, 41940, Note_on_c, 0, 78, 64
1, 41940, Note_on_c, 1, 66, 0
1, 41940, Note_on_c, 1, 69, 56
1, 42000, Note_on_c, 0, 78, 0
1, 42000, Note_on_c, 0, 81, 64
1, 42000, Note_on_c, 1, 69, 0
1, 42000, Note_on_c, 1, 59, 56
1, 42048, Note_on_c, 0, 81, 0
1, 42060, Note_on_c, 1, 59, 0
1, 42060, Note_on_c, 1, 69, 56
1, 42120, Note_on_c, 0, 75, 64
1, 42120, Note_on_c, 1, 69, 0
1, 42120, Note_on_c, 1, 66, 56
1, 42180, Note_on_c, 1, 66, 0
1, 42180, Note_on_c, 1, 69, 56
1, 42192, Note_on_c, 0, 75, 0
1, 42240, Note_on_c, 0, 76, 64
1, 42240, Note_on_c, 1, 69, 0
1, 42240, Note_on_c, 1, 59, 56
1, 42300, Note_on_c, 1, 59, 0
1, 42300, Note_on_c, 1, 68, 56
1, 42360, Note_on_c, 1, 68, 0
1, 42360, Note_on_c, 1, 64, 56
1, 42420, Note_on_c, 0, 76, 0
1, 42420, Note_on_c, 0, 80, 64
1, 42420, Note_on_c, 1, 64, 0
1, 42420, Note_on_c, 1, 68, 56
1, 42480, Note_on_c, 0, 80, 0
1, 42480, Note_on_c, 0, 83, 64
1, 42480, Note_on_c, 1, 68, 0
1, 42480, Note_on_c, 1, 59, 56
1, 42528, Note_on_c, 0, 83, 0
1, 42540, Note_on_c, 1, 59, 0
1, 42540, Note_on_c, 1, 68, 72
1, 42600, Note_on_c, 0, 83, 80
1, 42600, Note_on_c, 1, 68, 0
1, 42600, Note_on_c, 1, 64, 72
1, 42660, Note_on_c, 1, 64, 0
1, 42660, Note_on_c, 1, 68, 72
1, 42720, Note_on_c, 0, 83, 0
1, 42720, Note_on_c, 0, 81, 80
1, 42720, Note_on_c, 1, 68, 0
1, 42720, Note_on_c, 1, 59, 72
1, 42768, Note_on_c, 0, 81, 0
1, 42780, Note_on_c, 1, 59, 0
1, 42780, Note_on_c, 1, 66, 72
1, 42840, Note_on_c, 0, 81, 80
1, 42840, Note_on_c, 1, 66, 0
1, 42840, Note_on_c, 1, 63, 72
1, 42900, Note_on_c, 1, 63, 0
1, 42900, Note_on_c, 1, 66, 72
1, 42960, Note_on_c, 0, 81, 0
1, 42960, Note_on_c, 0, 80, 80
1, 42960, Note_on_c, 1, 66, 0
1, 42960, Note_on_c, 1, 59, 72
1, 43008, Note_on_c, 0, 80, 0
1, 43020, Note_on_c, 1, 59, 0
1, 43020, Note_on_c, 1, 68, 72
1, 43080, Note_on_c, 0, 80, 80
1, 43080, Note_on_c, 1, 68, 0
1, 43080, Note_on_c, 1, 64, 72
1, 43140, Note_on_c, 1, 64, 0
1, 43140, Note_on_c, 1, 68, 72
1, 43200, Note_on_c, 0, 80, 0
1, 43200, Note_on_c, 0, 78, 80
1, 43200, Note_on_c, 1, 68, 0
1, 43200, Note_on_c, 1, 59, 85
1, 43260, Note_on_c, 0, 78, 0
1, 43260, Note_on_c, 0, 83, 80
1, 43284, Note_on_c, 0, 83, 0
1, 43320, Note_on_c, 0, 82, 80
1, 43344, Note_on_c, 0, 82, 0
1, 43380, Note_on_c, 0, 80, 80
1, 43404, Note_on_c, 0, 80, 0
1, 43440, Note_on_c, 0, 78, 80
1, 43440, Note_on_c, 1, 59, 0
1, 43500, Note_on_c, 0, 78, 0
1, 43500, Note_on_c, 0, 76, 80
1, 43560, Note_on_c, 0, 76, 0
1, 43560, Note_on_c, 0, 75, 80
1, 43620, Note_on_c, 0, 75, 0
1, 43620, Note_on_c, 0, 73, 80
1, 43680, Note_on_c, 0, 73, 0
1, 43680, Note_on_c, 0, 71, 80
1, 43680, Note_on_c, 1, 47, 85
1, 43740, Note_on_c, 0, 71, 0
1, 43740, Note_on_c, 0, 71, 80
1, 43764, Note_on_c, 0, 71, 0
1, 43800, Note_on_c, 0, 70, 80
1, 43824, Note_on_c, 0, 70, 0
1, 43860, Note_on_c, 0, 68, 80
1, 43884, Note_on_c, 0, 68, 0
1, 43920, Note_on_c, 0, 66, 80
1, 43920, Note_on_c, 1, 47, 0
1, 43980, Note_on_c, 0, 66, 0
1, 43980, Note_on_c, 0, 64, 80
1, 44040, Note_on_c, 0, 64, 0
1, 44040, Note_on_c, 0, 63, 80
1, 44100, Note_on_c, 0, 63, 0
1, 44100, Note_on_c, 0, 61, 80
1, 44160, Note_on_c, 0, 61, 0
1, 44160, Note_on_c, 0, 59, 80
1, 44160, Note_on_c, 1, 35, 85
1, 44448, Note_on_c, 1, 35, 0
1, 44520, Note_on_c, 0, 59, 0
1, 44520, Note_on_c, 0, 80, 80
1, 44640, Note_on_c, 0, 80, 0
1, 44640, Note_on_c, 0, 80, 80
1, 44640, Note_on_c, 1, 64, 72
1, 44700, Note_on_c, 1, 64, 0
1, 44700, Note_on_c, 1, 71, 72
1, 44760, Note_on_c, 1, 71, 0
1, 44760, Note_on_c, 1, 68, 72
1, 44820, Note_on_c, 0, 80, 0
1, 44820, Note_on_c, 0, 81, 80
1, 44820, Note_on_c, 1, 68, 0
1, 44820, Note_on_c, 1, 71, 72
1, 44880, Note_on_c, 0, 81, 0
1, 44880, Note_on_c, 0, 83, 80
1, 44880, Note_on_c, 1, 71, 0
1, 44880, Note_on_c, 1, 64, 72
1, 44928, Note_on_c, 0, 83, 0
1, 44940, Note_on_c, 1, 64, 0
1, 44940, Note_on_c, 1, 71, 72
1, 45000, Note_on_c, 0, 76, 80
1, 45000, Note_on_c, 1, 71, 0
1, 45000, Note_on_c, 1, 68, 72
1, 45060, Note_on_c, 1, 68, 0
1, 45060, Note_on_c, 1, 71, 72
1, 45072, Note_on_c, 0, 76, 0
1, 45120, Note_on_c, 0, 75, 80
1, 45120, Note_on_c, 1, 71, 0
1, 45120, Note_on_c, 1, 59, 72
1, 45180, Note_on_c, 1, 59, 0
1, 45180, Note_on_c, 1, 69, 72
1, 45240, Note_on_c, 0, 75, 0
1, 45240, Note_on_c, 0, 78, 80
1, 45240, Note_on_c, 1, 69, 0
1, 45240, Note_on_c, 1, 66, 72
1, 45300, Note_on_c, 1, 66, 0
1, 45300, Note_on_c, 1, 69, 72
1, 45312, Note_on_c, 0, 78, 0
1, 45360, Note_on_c, 1, 69, 0
1, 45360, Note_on_c, 1, 59, 72
1, 45420, Note_on_c, 1, 59, 0
1, 45420, Note_on_c, 1, 69, 72
1, 45480, Note_on_c, 0, 71, 80
1, 45480, Note_on_c, 1, 69, 0
1, 45480, Note_on_c, 1, 66, 72
1, 45540, Note_on_c, 1, 66, 0
1, 45540, Note_on_c, 1, 69, 72
1, 45600, Note_on_c, 0, 71, 0
1, 45600, Note_on_c, 0, 75, 80
1, 45600, Note_on_c, 1, 69, 0
1, 45600, Note_on_c, 1, 64, 72
1, 45660, Note_on_c, 0, 75, 0
1, 45660, Note_on_c, 0, 76, 80
1, 45660, Note_on_c, 1, 64, 0
1, 45660, Note_on_c, 1, 71, 72
1, 45720, Note_on_c, 0, 76, 0
1, 45720, Note_on_c, 0, 75, 80
1, 45720, Note_on_c, 1, 71, 0
1, 45720, Note_on_c, 1, 68, 72
1, 45780, Note_on_c, 0, 75, 0
1, 45780, Note_on_c, 0, 76, 80
1, 45780, Note_on_c, 1, 68, 0
1, 45780, Note_on_c, 1, 71, 72
1, 45840, Note_on_c, 0, 76, 0
1, 45840, Note_on_c, 0, 77, 80
1, 45840, Note_on_c, 1, 71, 0
1, 45840, Note_on_c, 1, 63, 72
1, 45900, Note_on_c, 0, 77, 0
1, 45900, Note_on_c, 0, 78, 80
1, 45900, Note_on_c, 1, 63, 0
1, 45900, Note_on_c, 1, 71, 72
1, 45960, Note_on_c, 0, 78, 0
1, 45960, Note_on_c, 0, 77, 80
1, 45960, Note_on_c, 1, 71, 0
1, 45960, Note_on_c, 1, 66, 72
1, 46020, Note_on_c, 0, 77, 0
1, 46020, Note_on_c, 0, 78, 80
1, 46020, Note_on_c, 1, 66, 0
1, 46020, Note_on_c, 1, 71, 72
1, 46080, Note_on_c, 0, 78, 0
1, 46080, Note_on_c, 0, 81, 80
1, 46080, Note_on_c, 1, 71, 0
1, 46080, Note_on_c, 1, 64, 72
1, 46140, Note_on_c, 1, 64, 0
1, 46140, Note_on_c, 1, 71, 72
1, 46200, Note_on_c, 0, 81, 0
1, 46200, Note_on_c, 0, 80, 80
1, 46200, Note_on_c, 1, 71, 0
1, 46200, Note_on_c, 1, 68, 72
1, 46240, Note_on_c, 0, 80, 0
1, 46240, Note_on_c, 0, 81, 80
1, 46260, Note_on_c, 1, 68, 0
1, 46260, Note_on_c, 1, 71, 72
1, 46280, Note_on_c, 0, 81, 0
1, 46280, Note_on_c, 0, 80, 80
1, 46320, Note_on_c, 0, 80, 0
1, 46320, Note_on_c, 0, 78, 80
1, 46320, Note_on_c, 1, 71, 0
1, 46320, Note_on_c, 1, 59, 72
1, 46368, Note_on_c, 0, 78, 0
1, 46380, Note_on_c, 1, 59, 0
1, 46380, Note_on_c, 1, 71, 72
1, 46440, Note_on_c, 0, 78, 80
1, 46440, Note_on_c, 1, 71, 0
1, 46440, Note_on_c, 1, 63, 72
1, 46500, Note_on_c, 1, 63, 0
1, 46500, Note_on_c, 1, 71, 72
1, 46560, Note_on_c, 0, 78, 0
1, 46560, Note_on_c, 0, 80, 80
1, 46560, Note_on_c, 1, 71, 0
1, 46560, Note_on_c, 1, 64, 72
1, 46608, Note_on_c, 0, 80, 0
1, 46620, Note_on_c, 1, 64, 0
1, 46620, Note_on_c, 1, 71, 72
1, 46680, Note_on_c, 0, 80, 80
1, 46680, Note_on_c, 1, 71, 0
1, 46680, Note_on_c, 1, 68, 72
1, 46740, Note_on_c, 1, 68, 0
1, 46740, Note_on_c, 1, 71, 72
1, 46800, Note_on_c, 0, 80, 0
1, 46800, Note_on_c, 0, 81, 80
1, 46800, Note_on_c, 1, 71, 0
1, 46800, Note_on_c, 1, 61, 72
1, 46848, Note_on_c, 0, 81, 0
1, 46860, Note_on_c, 1, 61, 0
1, 46860, Note_on_c, 1, 69, 72
1, 46920, Note_on_c, 0, 81, 80
1, 46920, Note_on_c, 1, 69, 0
1, 46920, Note_on_c, 1, 64, 72
1, 46980, Note_on_c, 1, 64, 0
1, 46980, Note_on_c, 1, 69, 72
1, 47040, Note_on_c, 0, 81, 0
1, 47040, Note_on_c, 0, 83, 80
1, 47040, Note_on_c, 1, 69, 0
1, 47040, Note_on_c, 1, 56, 72
1, 47100, Note_on_c, 1, 56, 0
1, 47100, Note_on_c, 1, 64, 72
1, 47160, Note_on_c, 1, 64, 0
1, 47160, Note_on_c, 1, 59, 72
1, 47220, Note_on_c, 1, 59, 0
1, 47220, Note_on_c, 1, 64, 72
1, 47280, Note_on_c, 0, 83, 0
1, 47280, Note_on_c, 0, 85, 80
1, 47280, Note_on_c, 1, 64, 0
1, 47280, Note_on_c, 1, 56, 72
1, 47340, Note_on_c, 0, 85, 0
1, 47340, Note_on_c, 0, 83, 80
1, 47340, Note_on_c, 1, 56, 0
1, 47340, Note_on_c, 1, 64, 72
1, 47364, Note_on_c, 0, 83, 0
1, 47400, Note_on_c, 0, 81, 80
1, 47400, Note_on_c, 1, 64, 0
1, 47400, Note_on_c, 1, 59, 72
1, 47424, Note_on_c, 0, 81, 0
1, 47460, Note_on_c, 0, 80, 80
1, 47460, Note_on_c, 1, 59, 0
1, 47460, Note_on_c, 1, 64, 72
1, 47484, Note_on_c, 0, 80, 0
1, 47520, Note_on_c, 0, 78, 80
1, 47520, Note_on_c, 1, 64, 0
1, 47520, Note_on_c, 1, 57, 72
1, 47568, Note_on_c, 0, 78, 0
1, 47580, Note_on_c, 1, 57, 0
1, 47580, Note_on_c, 1, 66, 72
1, 47640, Note_on_c, 0, 78, 80
1, 47640, Note_on_c, 1, 66, 0
1, 47640, Note_on_c, 1, 61, 72
1, 47688, Note_on_c, 0, 78, 0
1, 47700, Note_on_c, 1, 61, 0
1, 47700, Note_on_c, 1, 66, 72
1, 47760, Note_on_c, 0, 76, 80
1, 47760, Note_on_c, 1, 66, 0
1, 47760, Note_on_c, 1, 59, 72
1, 47820, Note_on_c, 0, 76, 0
1, 47820, Note_on_c, 0, 75, 80
1, 47820, Note_on_c, 1, 59, 0
1, 47820, Note_on_c, 1, 69, 72
1, 47880, Note_on_c, 0, 75, 0
1, 47880, Note_on_c, 0, 73, 80
1, 47880, Note_on_c, 1, 69, 0
1, 47880, Note_on_c, 1, 66, 72
1, 47940, Note_on_c, 0, 73, 0
1, 47940, Note_on_c, 0, 71, 80
1, 47940, Note_on_c, 1, 66, 0
1, 47940, Note_on_c, 1, 69, 72
1, 48000, Note_on_c, 0, 71, 0
1, 48000, Note_on_c, 0, 76, 80
1, 48000, Note_on_c, 1, 69, 0
1, 48000, Note_on_c, 1, 64, 80
1, 48000, Note_on_c, 1, 68, 80
1, 48192, Note_on_c, 0, 76, 0
1, 48192, Note_on_c, 1, 68, 0
1, 48192, Note_on_c, 1, 64, 0
1, 48240, Note_on_c, 1, 52, 64
1, 48336, Note_on_c, 1, 52, 0
1, 48360, Note_on_c, 0, 67, 80
1, 48456, Note_on_c, 0, 67, 0
1, 48480, Note_on_c, 0, 67, 88
1, 48480, Note_on_c, 1, 52, 72
1, 48510, Note_on_c, 1, 52, 0
1, 48540, Note_on_c, 1, 59, 72
1, 48600, Note_on_c, 1, 59, 0
1, 48600, Note_on_c, 1, 55, 72
1, 48660, Note_on_c, 0, 67, 0
1, 48660, Note_on_c, 0, 69, 80
1, 48660, Note_on_c, 1, 55, 0
1, 48660, Note_on_c, 1, 59, 72
1, 48720, Note_on_c, 0, 69, 0
1, 48720, Note_on_c, 0, 71, 80
1, 48720, Note_on_c, 1, 59, 0
1, 48720, Note_on_c, 1, 52, 72
1, 48768, Note_on_c, 0, 71, 0
1, 48780, Note_on_c, 1, 52, 0
1, 48780, Note_on_c, 1, 59, 72
1, 48840, Note_on_c, 0, 76, 80
1, 48840, Note_on_c, 1, 59, 0
1, 48840, Note_on_c, 1, 55, 72
1, 48900, Note_on_c, 0, 76, 0
1, 48900, Note_on_c, 1, 55, 0
1, 48900, Note_on_c, 1, 59, 72
1, 48960, Note_on_c, 0, 75, 80
1, 48960, Note_on_c, 1, 59, 0
1, 48960, Note_on_c, 1, 54, 64
1, 48984, Note_on_c, 1, 54, 0
1, 49020, Note_on_c, 1, 59, 64
1, 49080, Note_on_c, 0, 75, 0
1, 49080, Note_on_c, 0, 78, 64
1, 49080, Note_on_c, 1, 59, 0
1, 49080, Note_on_c, 1, 57, 64
1, 49140, Note_on_c, 1, 57, 0
1, 49140, Note_on_c, 1, 59, 64
1, 49164, Note_on_c, 0, 78, 0
1, 49200, Note_on_c, 1, 59, 0
1, 49200, Note_on_c, 1, 54, 64
1, 49224, Note_on_c, 1, 54, 0
1, 49260, Note_on_c, 1, 59, 64
1, 49320, Note_on_c, 0, 71, 80
1, 49320, Note_on_c, 1, 59, 0
1, 49320, Note_on_c, 1, 57, 64
1, 49380, Note_on_c, 1, 57, 0
1, 49380, Note_on_c, 1, 59, 64
1, 49440, Note_on_c, 0, 71, 0
1, 49440, Note_on_c, 0, 76, 80
1, 49440, Note_on_c, 1, 59, 0
1, 49440, Note_on_c, 1, 52, 72
1, 49488, Note_on_c, 0, 76, 0
1, 49500, Note_on_c, 1, 52, 0
1, 49500, Note_on_c, 1, 59, 72
1, 49560, Note_on_c, 0, 76, 80
1, 49560, Note_on_c, 1, 59, 0
1, 49560, Note_on_c, 1, 55, 72
1, 49620, Note_on_c, 1, 55, 0
1, 49620, Note_on_c, 1, 59, 72
1, 49680, Note_on_c, 0, 76, 0
1, 49680, Note_on_c, 0, 78, 80
1, 49680, Note_on_c, 1, 59, 0
1, 49680, Note_on_c, 1, 51, 72
1, 49728, Note_on_c, 0, 78, 0
1, 49740, Note_on_c, 1, 51, 0
1, 49740, Note_on_c, 1, 59, 72
1, 49800, Note_on_c, 0, 78, 80
1, 49800, Note_on_c, 1, 59, 0
1, 49800, Note_on_c, 1, 54, 72
1, 49860, Note_on_c, 1, 54, 0
1, 49860, Note_on_c, 1, 59, 72
1, 49920, Note_on_c, 0, 78, 0
1, 49920, Note_on_c, 0, 81, 80
1, 49920, Note_on_c, 1, 59, 0
1, 49920, Note_on_c, 1, 52, 72
1, 49980, Note_on_c, 1, 52, 0
1, 49980, Note_on_c, 1, 59, 72
1, 50040, Note_on_c, 0, 81, 0
1, 50040, Note_on_c, 0, 79, 72
1, 50040, Note_on_c, 1, 59, 0
1, 50040, Note_on_c, 1, 55, 72
1, 50072, Note_on_c, 0, 79, 0
1, 50080, Note_on_c, 0, 81, 72
1, 50100, Note_on_c, 1, 55, 0
1, 50100, Note_on_c, 1, 59, 72
1, 50112, Note_on_c, 0, 81, 0
1, 50120, Note_on_c, 0, 79, 72
1, 50152, Note_on_c, 0, 79, 0
1, 50160, Note_on_c, 0, 78, 72
1, 50160, Note_on_c, 1, 59, 0
1, 50160, Note_on_c, 1, 47, 72
1, 50208, Note_on_c, 0, 78, 0
1, 50220, Note_on_c, 1, 47, 0
1, 50220, Note_on_c, 1, 59, 72
1, 50280, Note_on_c, 0, 78, 80
1, 50280, Note_on_c, 1, 59, 0
1, 50280, Note_on_c, 1, 51, 72
1, 50340, Note_on_c, 1, 51, 0
1, 50340, Note_on_c, 1, 59, 72
1, 50376, Note_on_c, 0, 78, 0
1, 50400, Note_on_c, 0, 79, 88
1, 50400, Note_on_c, 1, 59, 0
1, 50400, Note_on_c, 1, 52, 72
1, 50424, Note_on_c, 1, 52, 0
1, 50460, Note_on_c, 1, 59, 72
1, 50520, Note_on_c, 1, 59, 0
1, 50520, Note_on_c, 1, 55, 72
1, 50580, Note_on_c, 0, 79, 0
1, 50580, Note_on_c, 0, 81, 80
1, 50580, Note_on_c, 1, 55, 0
1, 50580, Note_on_c, 1, 59, 72
1, 50640, Note_on_c, 0, 81, 0
1, 50640, Note_on_c, 0, 83, 80
1, 50640, Note_on_c, 1, 59, 0
1, 50640, Note_on_c, 1, 52, 72
1, 50664, Note_on_c, 1, 52, 0
1, 50688, Note_on_c, 0, 83, 0
1, 50700, Note_on_c, 1, 59, 72
1, 50760, Note_on_c, 0, 83, 80
1, 50760, Note_on_c, 1, 59, 0
1, 50760, Note_on_c, 1, 55, 72
1, 50820, Note_on_c, 1, 55, 0
1, 50820, Note_on_c, 1, 59, 72
1, 50844, Note_on_c, 0, 83, 0
1, 50880, Note_on_c, 0, 81, 88
1, 50880, Note_on_c, 1, 59, 0
1, 50880, Note_on_c, 1, 48, 64
1, 50940, Note_on_c, 1, 48, 0
1, 50940, Note_on_c, 1, 57, 64
1, 51000, Note_on_c, 0, 81, 0
1, 51000, Note_on_c, 0, 84, 72
1, 51000, Note_on_c, 1, 57, 0
1, 51000, Note_on_c, 1, 52, 64
1, 51060, Note_on_c, 1, 52, 0
1, 51060, Note_on_c, 1, 57, 64
1, 51084, Note_on_c, 0, 84, 0
1, 51120, Note_on_c, 1, 57, 0
1, 51120, Note_on_c, 1, 48, 64
1, 51180, Note_on_c, 1, 48, 0
1, 51180, Note_on_c, 1, 57, 64
1, 51240, Note_on_c, 0, 81, 80
1, 51240, Note_on_c, 1, 57, 0
1, 51240, Note_on_c, 1, 52, 64
1, 51300, Note_on_c, 1, 52, 0
1, 51300, Note_on_c, 1, 57, 64
1, 51360, Note_on_c, 0, 81, 0
1, 51360, Note_on_c, 0, 78, 80
1, 51360, Note_on_c, 1, 57, 0
1, 51360, Note_on_c, 1, 50, 64
1, 51408, Note_on_c, 0, 78, 0
1, 51420, Note_on_c, 1, 50, 0
1, 51420, Note_on_c, 1, 60, 66
1, 51480, Note_on_c, 0, 78, 80
1, 51480, Note_on_c, 1, 60, 0
1, 51480, Note_on_c, 1, 57, 68
1, 51528, Note_on_c, 0, 78, 0
1, 51540, Note_on_c, 1, 57, 0
1, 51540, Note_on_c, 1, 60, 70
1, 51600, Note_on_c, 0, 79, 80
1, 51600, Note_on_c, 1, 60, 0
1, 51600, Note_on_c, 1, 50, 72
1, 51660, Note_on_c, 0, 79, 0
1, 51660, Note_on_c, 0, 78, 80
1, 51660, Note_on_c, 1, 50, 0
1, 51660, Note_on_c, 1, 60, 74
1, 51720, Note_on_c, 0, 78, 0
1, 51720, Note_on_c, 0, 76, 80
1, 51720, Note_on_c, 1, 60, 0
1, 51720, Note_on_c, 1, 57, 76
1, 51780, Note_on_c, 0, 76, 0
1, 51780, Note_on_c, 0, 74, 80
1, 51780, Note_on_c, 1, 57, 0
1, 51780, Note_on_c, 1, 60, 78
1, 51840, Note_on_c, 0, 74, 0
1, 51840, Note_on_c, 0, 79, 80
1, 51840, Note_on_c, 1, 60, 0
1, 51840, Note_on_c, 1, 59, 85
1, 51840, Note_on_c, 1, 55, 85
1, 52080, Note_on_c, 0, 79, 0
1, 52080, Note_on_c, 1, 55, 0
1, 52080, Note_on_c, 1, 59, 0
1, 52080, Note_on_c, 1, 43, 64
1, 52176, Note_on_c, 1, 43, 0
1, 52200, Note_on_c, 0, 67, 80
1, 52284, Note_on_c, 0, 67, 0
1, 52320, Note_on_c, 0, 67, 80
1, 52320, Note_on_c, 1, 52, 72
1, 52380, Note_on_c, 0, 67, 0
1, 52380, Note_on_c, 0, 69, 80
1, 52380, Note_on_c, 1, 52, 0
1, 52380, Note_on_c, 1, 59, 72
1, 52410, Note_on_c, 0, 69, 0
1, 52410, Note_on_c, 0, 67, 80
1, 52440, Note_on_c, 0, 67, 0
1, 52440, Note_on_c, 0, 66, 80
1, 52440, Note_on_c, 1, 59, 0
1, 52440, Note_on_c, 1, 55, 72
1, 52470, Note_on_c, 0, 66, 0
1, 52470, Note_on_c, 0, 67, 80
1, 52500, Note_on_c, 0, 67, 0
1, 52500, Note_on_c, 0, 69, 80
1, 52500, Note_on_c, 1, 55, 0
1, 52500, Note_on_c, 1, 59, 72
1, 52560, Note_on_c, 0, 69, 0
1, 52560, Note_on_c, 0, 71, 80
1, 52560, Note_on_c, 1, 59, 0
1, 52560, Note_on_c, 1, 52, 72
1, 52608, Note_on_c, 0, 71, 0
1, 52620, Note_on_c, 1, 52, 0
1, 52620, Note_on_c, 1, 59, 72
1, 52680, Note_on_c, 0, 76, 80
1, 52680, Note_on_c, 1, 59, 0
1, 52680, Note_on_c, 1, 55, 72
1, 52740, Note_on_c, 1, 55, 0
1, 52740, Note_on_c, 1, 59, 72
1, 52752, Note_on_c, 0, 76, 0
1, 52800, Note_on_c, 0, 75, 80
1, 52800, Note_on_c, 1, 59, 0
1, 52800, Note_on_c, 1, 54, 72
1, 52860, Note_on_c, 1, 54, 0
1, 52860, Note_on_c, 1, 59, 72
1, 52920, Note_on_c, 0, 75, 0
1, 52920, Note_on_c, 0, 83, 96
1, 52920, Note_on_c, 1, 59, 0
1, 52920, Note_on_c, 1, 57, 72
1, 52980, Note_on_c, 1, 57, 0
1, 52980, Note_on_c, 1, 59, 72
1, 53040, Note_on_c, 1, 59, 0
1, 53040, Note_on_c, 1, 54, 72
1, 53100, Note_on_c, 1, 54, 0
1, 53100, Note_on_c, 1, 59, 72
1, 53160, Note_on_c, 0, 83, 0
1, 53160, Note_on_c, 0, 78, 80
1, 53160, Note_on_c, 1, 59, 0
1, 53160, Note_on_c, 1, 57, 72
1, 53220, Note_on_c, 0, 78, 0
1, 53220, Note_on_c, 0, 75, 80
1, 53220, Note_on_c, 1, 57, 0
1, 53220, Note_on_c, 1, 59, 72
1, 53280, Note_on_c, 0, 75, 0
1, 53280, Note_on_c, 0, 83, 88
1, 53280, Note_on_c, 1, 59, 0
1, 53280, Note_on_c, 1, 52, 72
1, 53340, Note_on_c, 1, 52, 0
1, 53340, Note_on_c, 1, 59, 72
1, 53400, Note_on_c, 0, 83, 0
1, 53400, Note_on_c, 0, 79, 80
1, 53400, Note_on_c, 1, 59, 0
1, 53400, Note_on_c, 1, 55, 72
1, 53460, Note_on_c, 0, 79, 0
1, 53460, Note_on_c, 0, 76, 80
1, 53460, Note_on_c, 1, 55, 0
1, 53460, Note_on_c, 1, 59, 72
1, 53520, Note_on_c, 0, 76, 0
1, 53520, Note_on_c, 0, 84, 88
1, 53520, Note_on_c, 1, 59, 0
1, 53520, Note_on_c, 1, 51, 72
1, 53580, Note_on_c, 1, 51, 0
1, 53580, Note_on_c, 1, 59, 72
1, 53640, Note_on_c, 0, 84, 0
1, 53640, Note_on_c, 0, 81, 80
1, 53640, Note_on_c, 1, 59, 0
1, 53640, Note_on_c, 1, 54, 72
1, 53700, Note_on_c, 0, 81, 0
1, 53700, Note_on_c, 0, 78, 80
1, 53700, Note_on_c, 1, 54, 0
1, 53700, Note_on_c, 1, 59, 72
1, 53760, Note_on_c, 0, 78, 0
1, 53760, Note_on_c, 0, 81, 80
1, 53760, Note_on_c, 1, 59, 0
1, 53760, Note_on_c, 1, 52, 72
1, 53820, Note_on_c, 1, 52, 0
1, 53820, Note_on_c, 1, 59, 72
1, 53880, Note_on_c, 0, 81, 0
1, 53880, Note_on_c, 0, 79, 80
1, 53880, Note_on_c, 1, 59, 0
1, 53880, Note_on_c, 1, 55, 72
1, 53920, Note_on_c, 0, 79, 0
1, 53920, Note_on_c, 0, 81, 80
1, 53940, Note_on_c, 1, 55, 0
1, 53940, Note_on_c, 1, 59, 72
1, 53960, Note_on_c, 0, 81, 0
1, 53960, Note_on_c, 0, 79, 80
1, 54000, Note_on_c, 0, 79, 0
1, 54000, Note_on_c, 0, 78, 80
1, 54000, Note_on_c, 1, 59, 0
1, 54000, Note_on_c, 1, 47, 72
1, 54048, Note_on_c, 0, 78, 0
1, 54060, Note_on_c, 1, 47, 0
1, 54060, Note_on_c, 1, 59, 72
1, 54120, Note_on_c, 0, 78, 80
1, 54120, Note_on_c, 1, 59, 0
1, 54120, Note_on_c, 1, 51, 72
1, 54180, Note_on_c, 1, 51, 0
1, 54180, Note_on_c, 1, 59, 72
1, 54192, Note_on_c, 0, 78, 0
1, 54240, Note_on_c, 0, 79, 80
1, 54240, Note_on_c, 1, 59, 0
1, 54240, Note_on_c, 1, 52, 72
1, 54300, Note_on_c, 0, 79, 0
1, 54300, Note_on_c, 0, 81, 80
1, 54300, Note_on_c, 1, 52, 0
1, 54300, Note_on_c, 1, 59, 72
1, 54330, Note_on_c, 0, 81, 0
1, 54330, Note_on_c, 0, 79, 80
1, 54360, Note_on_c, 0, 79, 0
1, 54360, Note_on_c, 0, 78, 80
1, 54360, Note_on_c, 1, 59, 0
1, 54360, Note_on_c, 1, 55, 72
1, 54390, Note_on_c, 0, 78, 0
1, 54390, Note_on_c, 0, 79, 80
1, 54420, Note_on_c, 0, 79, 0
1, 54420, Note_on_c, 0, 81, 80
1, 54420, Note_on_c, 1, 55, 0
1, 54420, Note_on_c, 1, 59, 72
1, 54480, Note_on_c, 0, 81, 0
1, 54480, Note_on_c, 0, 83, 80
1, 54480, Note_on_c, 1, 59, 0
1, 54480, Note_on_c, 1, 52, 72
1, 54528, Note_on_c, 0, 83, 0
1, 54540, Note_on_c, 1, 52, 0
1, 54540, Note_on_c, 1, 59, 72
1, 54600, Note_on_c, 0, 83, 80
1, 54600, Note_on_c, 1, 59, 0
1, 54600, Note_on_c, 1, 55, 72
1, 54660, Note_on_c, 1, 55, 0
1, 54660, Note_on_c, 1, 59, 72
1, 54672, Note_on_c, 0, 83, 0
1, 54720, Note_on_c, 0, 81, 80
1, 54720, Note_on_c, 1, 59, 0
1, 54720, Note_on_c, 1, 48, 72
1, 54780, Note_on_c, 0, 81, 0
1, 54780, Note_on_c, 0, 84, 80
1, 54780, Note_on_c, 1, 48, 0
1, 54780, Note_on_c, 1, 57, 72
1, 54840, Note_on_c, 0, 84, 0
1, 54840, Note_on_c, 0, 88, 80
1, 54840, Note_on_c, 1, 57, 0
1, 54840, Note_on_c, 1, 52, 72
1, 54900, Note_on_c, 0, 88, 0
1, 54900, Note_on_c, 0, 86, 80
1, 54900, Note_on_c, 1, 52, 0
1, 54900, Note_on_c, 1, 57, 72
1, 54960, Note_on_c, 0, 86, 0
1, 54960, Note_on_c, 0, 84, 80
1, 54960, Note_on_c, 1, 57, 0
1, 54960, Note_on_c, 1, 48, 72
1, 55020, Note_on_c, 0, 84, 0
1, 55020, Note_on_c, 0, 83, 80
1, 55020, Note_on_c, 1, 48, 0
1, 55020, Note_on_c, 1, 57, 72
1, 55080, Note_on_c, 0, 83, 0
1, 55080, Note_on_c, 0, 81, 80
1, 55080, Note_on_c, 1, 57, 0
1, 55080, Note_on_c, 1, 52, 72
1, 55140, Note_on_c, 0, 81, 0
1, 55140, Note_on_c, 0, 79, 80
1, 55140, Note_on_c, 1, 52, 0
1, 55140, Note_on_c, 1, 57, 72
1, 55200, Note_on_c, 0, 79, 0
1, 55200, Note_on_c, 0, 78, 80
1, 55200, Note_on_c, 1, 57, 0
1, 55200, Note_on_c, 1, 50, 72
1, 55248, Note_on_c, 0, 78, 0
1, 55260, Note_on_c, 1, 50, 0
1, 55260, Note_on_c, 1, 60, 72
1, 55320, Note_on_c, 0, 81, 80
1, 55320, Note_on_c, 1, 60, 0
1, 55320, Note_on_c, 1, 57, 72
1, 55368, Note_on_c, 0, 81, 0
1, 55380, Note_on_c, 1, 57, 0
1, 55380, Note_on_c, 1, 60, 72
1, 55440, Note_on_c, 0, 84, 80
1, 55440, Note_on_c, 1, 60, 0
1, 55440, Note_on_c, 1, 50, 72
1, 55500, Note_on_c, 1, 50, 0
1, 55500, Note_on_c, 1, 60, 72
1, 55560, Note_on_c, 0, 84, 0
1, 55560, Note_on_c, 0, 81, 80
1, 55560, Note_on_c, 1, 60, 0
1, 55560, Note_on_c, 1, 57, 72
1, 55620, Note_on_c, 0, 81, 0
1, 55620, Note_on_c, 0, 78, 80
1, 55620, Note_on_c, 1, 57, 0
1, 55620, Note_on_c, 1, 60, 72
1, 55680, Note_on_c, 0, 78, 0
1, 55680, Note_on_c, 0, 79, 80
1, 55680, Note_on_c, 1, 60, 0
1, 55680, Note_on_c, 1, 55, 85
1, 55680, Note_on_c, 1, 59, 85
1, 55920, Note_on_c, 0, 79, 0
1, 55920, Note_on_c, 1, 59, 0
1, 55920, Note_on_c, 1, 55, 0
1, 55920, Note_on_c, 1, 43, 64
1, 56016, Note_on_c, 1, 43, 0
1, 56040, Note_on_c, 0, 83, 80
1, 56160, Note_on_c, 0, 83, 0
1, 56160, Note_on_c, 0, 83, 80
1, 56160, Note_on_c, 1, 59, 72
1, 56220, Note_on_c, 1, 59, 0
1, 56220, Note_on_c, 1, 67, 72
1, 56280, Note_on_c, 0, 83, 0
1, 56280, Note_on_c, 0, 84, 80
1, 56280, Note_on_c, 1, 67, 0
1, 56280, Note_on_c, 1, 62, 72
1, 56340, Note_on_c, 1, 62, 0
1, 56340, Note_on_c, 1, 67, 72
1, 56400, Note_on_c, 0, 84, 0
1, 56400, Note_on_c, 0, 85, 80
1, 56400, Note_on_c, 1, 67, 0
1, 56400, Note_on_c, 1, 59, 72
1, 56460, Note_on_c, 1, 59, 0
1, 56460, Note_on_c, 1, 67, 72
1, 56520, Note_on_c, 0, 85, 0
1, 56520, Note_on_c, 0, 86, 80
1, 56520, Note_on_c, 1, 67, 0
1, 56520, Note_on_c, 1, 62, 72
1, 56580, Note_on_c, 1, 62, 0
1, 56580, Note_on_c, 1, 67, 72
1, 56640, Note_on_c, 0, 86, 0
1, 56640, Note_on_c, 0, 86, 80
1, 56640, Note_on_c, 1, 67, 0
1, 56640, Note_on_c, 1, 60, 72
1, 56700, Note_on_c, 1, 60, 0
1, 56700, Note_on_c, 1, 67, 72
1, 56760, Note_on_c, 0, 86, 0
1, 56760, Note_on_c, 0, 76, 80
1, 56760, Note_on_c, 1, 67, 0
1, 56760, Note_on_c, 1, 64, 72
1, 56808, Note_on_c, 0, 76, 0
1, 56820, Note_on_c, 1, 64, 0
1, 56820, Note_on_c, 1, 67, 72
1, 56880, Note_on_c, 0, 77, 80
1, 56880, Note_on_c, 1, 67, 0
1, 56880, Note_on_c, 1, 60, 72
1, 56940, Note_on_c, 0, 77, 0
1, 56940, Note_on_c, 0, 78, 80
1, 56940, Note_on_c, 1, 60, 0
1, 56940, Note_on_c, 1, 67, 72
1, 57000, Note_on_c, 0, 78, 0
1, 57000, Note_on_c, 0, 79, 80
1, 57000, Note_on_c, 1, 67, 0
1, 57000, Note_on_c, 1, 64, 72
1, 57060, Note_on_c, 0, 79, 0
1, 57060, Note_on_c, 0, 80, 80
1, 57060, Note_on_c, 1, 64, 0
1, 57060, Note_on_c, 1, 67, 72
1, 57120, Note_on_c, 0, 80, 0
1, 57120, Note_on_c, 0, 81, 80
1, 57120, Note_on_c, 1, 67, 0
1, 57120, Note_on_c, 1, 57, 72
1, 57180, Note_on_c, 0, 81, 0
1, 57180, Note_on_c, 0, 83, 80
1, 57180, Note_on_c, 1, 57, 0
1, 57180, Note_on_c, 1, 66, 72
1, 57210, Note_on_c, 0, 83, 0
1, 57210, Note_on_c, 0, 81, 80
1, 57240, Note_on_c, 0, 81, 0
1, 57240, Note_on_c, 0, 80, 80
1, 57240, Note_on_c, 1, 66, 0
1, 57240, Note_on_c, 1, 60, 72
1, 57270, Note_on_c, 0, 80, 0
1, 57270, Note_on_c, 0, 81, 80
1, 57300, Note_on_c, 0, 81, 0
1, 57300, Note_on_c, 0, 83, 80
1, 57300, Note_on_c, 1, 60, 0
1, 57300, Note_on_c, 1, 66, 72
1, 57360, Note_on_c, 0, 83, 0
1, 57360, Note_on_c, 0, 84, 80
1, 57360, Note_on_c, 1, 66, 0
1, 57360, Note_on_c, 1, 57, 72
1, 57408, Note_on_c, 0, 84, 0
1, 57420, Note_on_c, 1, 57, 0
1, 57420, Note_on_c, 1, 66, 72
1, 57480, Note_on_c, 0, 84, 80
1, 57480, Note_on_c, 1, 66, 0
1, 57480, Note_on_c, 1, 60, 72
1, 57540, Note_on_c, 1, 60, 0
1, 57540, Note_on_c, 1, 66, 72
1, 57552, Note_on_c, 0, 84, 0
1, 57600, Note_on_c, 0, 84, 80
1, 57600, Note_on_c, 1, 66, 0
1, 57600, Note_on_c, 1, 59, 72
1, 57660, Note_on_c, 1, 59, 0
1, 57660, Note_on_c, 1, 66, 72
1, 57720, Note_on_c, 1, 66, 0
1, 57720, Note_on_c, 1, 63, 72
1, 57780, Note_on_c, 1, 63, 0
1, 57780, Note_on_c, 1, 66, 72
1, 57840, Note_on_c, 0, 84, 0
1, 57840, Note_on_c, 0, 75, 80
1, 57840, Note_on_c, 1, 66, 0
1, 57840, Note_on_c, 1, 57, 72
1, 57888, Note_on_c, 0, 75, 0
1, 57900, Note_on_c, 1, 57, 0
1, 57900, Note_on_c, 1, 63, 72
1, 57960, Note_on_c, 0, 71, 80
1, 57960, Note_on_c, 1, 63, 0
1, 57960, Note_on_c, 1, 59, 72
1, 58020, Note_on_c, 1, 59, 0
1, 58020, Note_on_c, 1, 63, 72
1, 58080, Note_on_c, 0, 71, 0
1, 58080, Note_on_c, 0, 76, 80
1, 58080, Note_on_c, 1, 63, 0
1, 58080, Note_on_c, 1, 55, 72
1, 58128, Note_on_c, 0, 76, 0
1, 58140, Note_on_c, 1, 55, 0
1, 58140, Note_on_c, 1, 64, 72
1, 58200, Note_on_c, 0, 76, 80
1, 58200, Note_on_c, 1, 64, 0
1, 58200, Note_on_c, 1, 59, 72
1, 58260, Note_on_c, 1, 59, 0
1, 58260, Note_on_c, 1, 64, 72
1, 58320, Note_on_c, 0, 76, 0
1, 58320, Note_on_c, 0, 78, 80
1, 58320, Note_on_c, 1, 64, 0
1, 58320, Note_on_c, 1, 51, 72
1, 58368, Note_on_c, 0, 78, 0
1, 58380, Note_on_c, 1, 51, 0
1, 58380, Note_on_c, 1, 59, 72
1, 58440, Note_on_c, 0, 78, 80
1, 58440, Note_on_c, 1, 59, 0
1, 58440, Note_on_c, 1, 54, 72
1, 58500, Note_on_c, 1, 54, 0
1, 58500, Note_on_c, 1, 59, 72
1, 58560, Note_on_c, 0, 78, 0
1, 58560, Note_on_c, 0, 81, 80
1, 58560, Note_on_c, 1, 59, 0
1, 58560, Note_on_c, 1, 52, 72
1, 58620, Note_on_c, 1, 52, 0
1, 58620, Note_on_c, 1, 59, 72
1, 58680, Note_on_c, 0, 81, 0
1, 58680, Note_on_c, 0, 79, 80
1, 58680, Note_on_c, 1, 59, 0
1, 58680, Note_on_c, 1, 55, 72
1, 58720, Note_on_c, 0, 79, 0
1, 58720, Note_on_c, 0, 81, 80
1, 58740, Note_on_c, 1, 55, 0
1, 58740, Note_on_c, 1, 59, 72
1, 58760, Note_on_c, 0, 81, 0
1, 58760, Note_on_c, 0, 79, 80
1, 58800, Note_on_c, 0, 79, 0
1, 58800, Note_on_c, 0, 78, 80
1, 58800, Note_on_c, 1, 59, 0
1, 58800, Note_on_c, 1, 47, 72
1, 58848, Note_on_c, 0, 78, 0
1, 58860, Note_on_c, 1, 47, 0
1, 58860, Note_on_c, 1, 59, 72
1, 58920, Note_on_c, 0, 83, 80
1, 58920, Note_on_c, 1, 59, 0
1, 58920, Note_on_c, 1, 51, 72
1, 58980, Note_on_c, 1, 51, 0
1, 58980, Note_on_c, 1, 59, 72
1, 59040, Note_on_c, 0, 83, 0
1, 59040, Note_on_c, 0, 76, 80
1, 59040, Note_on_c, 1, 59, 0
1, 59040, Note_on_c, 1, 48, 72
1, 59088, Note_on_c, 0, 76, 0
1, 59100, Note_on_c, 1, 48, 0
1, 59100, Note_on_c, 1, 59, 73
1, 59160, Note_on_c, 0, 76, 84
1, 59160, Note_on_c, 1, 59, 0
1, 59160, Note_on_c, 1, 55, 74
1, 59220, Note_on_c, 1, 55, 0
1, 59220, Note_on_c, 1, 59, 75
1, 59280, Note_on_c, 0, 76, 0
1, 59280, Note_on_c, 0, 84, 88
1, 59280, Note_on_c, 1, 59, 0
1, 59280, Note_on_c, 1, 48, 76
1, 59328, Note_on_c, 0, 84, 0
1, 59340, Note_on_c, 1, 48, 0
1, 59340, Note_on_c, 1, 57, 77
1, 59400, Note_on_c, 0, 84, 92
1, 59400, Note_on_c, 1, 57, 0
1, 59400, Note_on_c, 1, 55, 78
1, 59460, Note_on_c, 1, 55, 0
1, 59460, Note_on_c, 1, 57, 79
1, 59520, Note_on_c, 0, 84, 0
1, 59520, Note_on_c, 0, 75, 96
1, 59520, Note_on_c, 1, 57, 0
1, 59520, Note_on_c, 1, 47, 80
1, 59580, Note_on_c, 1, 47, 0
1, 59580, Note_on_c, 1, 57, 72
1, 59640, Note_on_c, 1, 57, 0
1, 59640, Note_on_c, 1, 54, 72
1, 59700, Note_on_c, 1, 54, 0
1, 59700, Note_on_c, 1, 57, 72
1, 59760, Note_on_c, 0, 75, 0
1, 59760, Note_on_c, 0, 76, 80
1, 59760, Note_on_c, 1, 57, 0
1, 59760, Note_on_c, 1, 48, 72
1, 59808, Note_on_c, 0, 76, 0
1, 59820, Note_on_c, 1, 48, 0
1, 59820, Note_on_c, 1, 55, 72
1, 59880, Note_on_c, 0, 76, 80
1, 59880, Note_on_c, 1, 55, 0
1, 59880, Note_on_c, 1, 52, 72
1, 59940, Note_on_c, 1, 52, 0
1, 59940, Note_on_c, 1, 55, 72
1, 60000, Note_on_c, 0, 76, 0
1, 60000, Note_on_c, 0, 78, 80
1, 60000, Note_on_c, 1, 55, 0
1, 60000, Note_on_c, 1, 45, 72
1, 60048, Note_on_c, 0, 78, 0
1, 60060, Note_on_c, 1, 45, 0
1, 60060, Note_on_c, 1, 54, 72
1, 60120, Note_on_c, 0, 78, 80
1, 60120, Note_on_c, 1, 54, 0
1, 60120, Note_on_c, 1, 48, 72
1, 60168, Note_on_c, 0, 78, 0
1, 60180, Note_on_c, 1, 48, 0
1, 60180, Note_on_c, 1, 54, 72
1, 60240, Note_on_c, 0, 76, 80
1, 60240, Note_on_c, 1, 54, 0
1, 60240, Note_on_c, 1, 47, 72
1, 60300, Note_on_c, 0, 76, 0
1, 60300, Note_on_c, 0, 75, 80
1, 60300, Note_on_c, 1, 47, 0
1, 60300, Note_on_c, 1, 57, 72
1, 60360, Note_on_c, 0, 75, 0
1, 60360, Note_on_c, 0, 73, 80
1, 60360, Note_on_c, 1, 57, 0
1, 60360, Note_on_c, 1, 54, 72
1, 60420, Note_on_c, 0, 73, 0
1, 60420, Note_on_c, 0, 71, 80
1, 60420, Note_on_c, 1, 54, 0
1, 60420, Note_on_c, 1, 57, 72
1, 60480, Note_on_c, 0, 71, 0
1, 60480, Note_on_c, 0, 76, 80
1, 60480, Note_on_c, 1, 57, 0
1, 60480, Note_on_c, 1, 52, 85
1, 60480, Note_on_c, 1, 55, 85
1, 60720, Note_on_c, 0, 76, 0
1, 60720, Note_on_c, 1, 55, 0
1, 60720, Note_on_c, 1, 52, 0
1, 60720, Note_on_c, 1, 40, 64
1, 60816, Note_on_c, 1, 40, 0
1, 60840, Note_on_c, 0, 83, 80
1, 60960, Note_on_c, 0, 83, 0
1, 60960, Note_on_c, 0, 83, 72
1, 60960, Note_on_c, 1, 59, 72
1, 61020, Note_on_c, 0, 83, 0
1, 61020, Note_on_c, 0, 84, 75
1, 61020, Note_on_c, 1, 59, 0
1, 61020, Note_on_c, 1, 67, 72
1, 61044, Note_on_c, 0, 84, 0
1, 61080, Note_on_c, 0, 86, 78
1, 61080, Note_on_c, 1, 67, 0
1, 61080, Note_on_c, 1, 62, 72
1, 61104, Note_on_c, 0, 86, 0
1, 61140, Note_on_c, 0, 86, 81
1, 61140, Note_on_c, 1, 62, 0
1, 61140, Note_on_c, 1, 67, 72
1, 61164, Note_on_c, 0, 86, 0
1, 61200, Note_on_c, 0, 86, 84
1, 61200, Note_on_c, 1, 67, 0
1, 61200, Note_on_c, 1, 59, 72
1, 61260, Note_on_c, 0, 86, 0
1, 61260, Note_on_c, 0, 86, 87
1, 61260, Note_on_c, 1, 59, 0
1, 61260, Note_on_c, 1, 67, 72
1, 61320, Note_on_c, 0, 86, 0
1, 61320, Note_on_c, 0, 86, 90
1, 61320, Note_on_c, 1, 67, 0
1, 61320, Note_on_c, 1, 62, 72
1, 61380, Note_on_c, 0, 86, 0
1, 61380, Note_on_c, 0, 86, 93
1, 61380, Note_on_c, 1, 62, 0
1, 61380, Note_on_c, 1, 67, 72
1, 61440, Note_on_c, 0, 86, 0
1, 61440, Note_on_c, 0, 86, 96
1, 61440, Note_on_c, 1, 67, 0
1, 61440, Note_on_c, 1, 60, 72
1, 61500, Note_on_c, 1, 60, 0
1, 61500, Note_on_c, 1, 67, 72
1, 61560, Note_on_c, 0, 86, 0
1, 61560, Note_on_c, 0, 76, 80
1, 61560, Note_on_c, 1, 67, 0
1, 61560, Note_on_c, 1, 64, 72
1, 61608, Note_on_c, 0, 76, 0
1, 61620, Note_on_c, 1, 64, 0
1, 61620, Note_on_c, 1, 67, 72
1, 61680, Note_on_c, 1, 67, 0
1, 61680, Note_on_c, 1, 60, 72
1, 61740, Note_on_c, 1, 60, 0
1, 61740, Note_on_c, 1, 67, 72
1, 61800, Note_on_c, 0, 76, 80
1, 61800, Note_on_c, 1, 67, 0
1, 61800, Note_on_c, 1, 64, 72
1, 61860, Note_on_c, 1, 64, 0
1, 61860, Note_on_c, 1, 67, 72
1, 61920, Note_on_c, 0, 76, 0
1, 61920, Note_on_c, 0, 81, 72
1, 61920, Note_on_c, 1, 67, 0
1, 61920, Note_on_c, 1, 57, 72
1, 61980, Note_on_c, 0, 81, 0
1, 61980, Note_on_c, 0, 83, 75
1, 61980, Note_on_c, 1, 57, 0
1, 61980, Note_on_c, 1, 66, 72
1, 62004, Note_on_c, 0, 83, 0
1, 62040, Note_on_c, 0, 84, 78
1, 62040, Note_on_c, 1, 66, 0
1, 62040, Note_on_c, 1, 60, 72
1, 62064, Note_on_c, 0, 84, 0
1, 62100, Note_on_c, 0, 84, 81
1, 62100, Note_on_c, 1, 60, 0
1, 62100, Note_on_c, 1, 66, 72
1, 62124, Note_on_c, 0, 84, 0
1, 62160, Note_on_c, 0, 84, 84
1, 62160, Note_on_c, 1, 66, 0
1, 62160, Note_on_c, 1, 57, 72
1, 62220, Note_on_c, 0, 84, 0
1, 62220, Note_on_c, 0, 84, 87
1, 62220, Note_on_c, 1, 57, 0
1, 62220, Note_on_c, 1, 66, 72
1, 62280, Note_on_c, 0, 84, 0
1, 62280, Note_on_c, 0, 84, 90
1, 62280, Note_on_c, 1, 66, 0
1, 62280, Note_on_c, 1, 60, 72
1, 62340, Note_on_c, 0, 84, 0
1, 62340, Note_on_c, 0, 84, 93
1, 62340, Note_on_c, 1, 60, 0
1, 62340, Note_on_c, 1, 66, 72
1, 62400, Note_on_c, 0, 84, 0
1, 62400, Note_on_c, 0, 84, 96
1, 62400, Note_on_c, 1, 66, 0
1, 62400, Note_on_c, 1, 59, 72
1, 62460, Note_on_c, 1, 59, 0
1, 62460, Note_on_c, 1, 66, 72
1, 62520, Note_on_c, 0, 84, 0
1, 62520, Note_on_c, 0, 75, 80
1, 62520, Note_on_c, 1, 66, 0
1, 62520, Note_on_c, 1, 63, 72
1, 62568, Note_on_c, 0, 75, 0
1, 62580, Note_on_c, 1, 63, 0
1, 62580, Note_on_c, 1, 66, 72
1, 62640, Note_on_c, 1, 66, 0
1, 62640, Note_on_c, 1, 57, 72
1, 62700, Note_on_c, 1, 57, 0
1, 62700, Note_on_c, 1, 63, 72
1, 62760, Note_on_c, 0, 71, 80
1, 62760, Note_on_c, 1, 63, 0
1, 62760, Note_on_c, 1, 59, 72
1, 62820, Note_on_c, 1, 59, 0
1, 62820, Note_on_c, 1, 63, 72
1, 62880, Note_on_c, 0, 71, 0
1, 62880, Note_on_c, 0, 75, 80
1, 62880, Note_on_c, 1, 63, 0
1, 62880, Note_on_c, 1, 55, 72
1, 62940, Note_on_c, 0, 75, 0
1, 62940, Note_on_c, 0, 76, 80
1, 62940, Note_on_c, 1, 55, 0
1, 62940, Note_on_c, 1, 64, 72
1, 63000, Note_on_c, 0, 76, 0
1, 63000, Note_on_c, 0, 75, 80
1, 63000, Note_on_c, 1, 64, 0
1, 63000, Note_on_c, 1, 59, 72
1, 63060, Note_on_c, 0, 75, 0
1, 63060, Note_on_c, 0, 76, 80
1, 63060, Note_on_c, 1, 59, 0
1, 63060, Note_on_c, 1, 64, 72
1, 63120, Note_on_c, 0, 76, 0
1, 63120, Note_on_c, 0, 78, 80
1, 63120, Note_on_c, 1, 64, 0
1, 63120, Note_on_c, 1, 51, 72
1, 63168, Note_on_c, 0, 78, 0
1, 63180, Note_on_c, 1, 51, 0
1, 63180, Note_on_c, 1, 59, 72
1, 63240, Note_on_c, 0, 78, 80
1, 63240, Note_on_c, 1, 59, 0
1, 63240, Note_on_c, 1, 54, 72
1, 63300, Note_on_c, 1, 54, 0
1, 63300, Note_on_c, 1, 59, 72
1, 63360, Note_on_c, 0, 78, 0
1, 63360, Note_on_c, 0, 81, 80
1, 63360, Note_on_c, 1, 59, 0
1, 63360, Note_on_c, 1, 52, 72
1, 63420, Note_on_c, 1, 52, 0
1, 63420, Note_on_c, 1, 59, 72
1, 63480, Note_on_c, 0, 81, 0
1, 63480, Note_on_c, 0, 79, 80
1, 63480, Note_on_c, 1, 59, 0
1, 63480, Note_on_c, 1, 55, 72
1, 63520, Note_on_c, 0, 79, 0
1, 63520, Note_on_c, 0, 81, 80
1, 63540, Note_on_c, 1, 55, 0
1, 63540, Note_on_c, 1, 59, 72
1, 63560, Note_on_c, 0, 81, 0
1, 63560, Note_on_c, 0, 79, 80
1, 63600, Note_on_c, 0, 79, 0
1, 63600, Note_on_c, 0, 78, 80
1, 63600, Note_on_c, 1, 59, 0
1, 63600, Note_on_c, 1, 47, 72
1, 63648, Note_on_c, 0, 78, 0
1, 63660, Note_on_c, 1, 47, 0
1, 63660, Note_on_c, 1, 59, 72
1, 63720, Note_on_c, 0, 83, 80
1, 63720, Note_on_c, 1, 59, 0
1, 63720, Note_on_c, 1, 51, 72
1, 63780, Note_on_c, 1, 51, 0
1, 63780, Note_on_c, 1, 59, 72
1, 63840, Note_on_c, 1, 59, 0
1, 63840, Note_on_c, 1, 48, 72
1, 63900, Note_on_c, 1, 48, 0
1, 63900, Note_on_c, 1, 59, 72
1, 63960, Note_on_c, 0, 83, 0
1, 63960, Note_on_c, 0, 76, 80
1, 63960, Note_on_c, 1, 59, 0
1, 63960, Note_on_c, 1, 55, 72
1, 64020, Note_on_c, 1, 55, 0
1, 64020, Note_on_c, 1, 59, 72
1, 64080, Note_on_c, 1, 59, 0
1, 64080, Note_on_c, 1, 48, 72
1, 64140, Note_on_c, 1, 48, 0
1, 64140, Note_on_c, 1, 57, 72
1, 64200, Note_on_c, 0, 76, 0
1, 64200, Note_on_c, 0, 84, 80
1, 64200, Note_on_c, 1, 57, 0
1, 64200, Note_on_c, 1, 55, 72
1, 64260, Note_on_c, 1, 55, 0
1, 64260, Note_on_c, 1, 57, 72
1, 64320, Note_on_c, 0, 84, 0
1, 64320, Note_on_c, 0, 75, 80
1, 64320, Note_on_c, 1, 57, 0
1, 64320, Note_on_c, 1, 47, 72
1, 64368, Note_on_c, 0, 75, 0
1, 64380, Note_on_c, 1, 47, 0
1, 64380, Note_on_c, 1, 57, 72
1, 64440, Note_on_c, 0, 75, 80
1, 64440, Note_on_c, 1, 57, 0
1, 64440, Note_on_c, 1, 54, 72
1, 64500, Note_on_c, 1, 54, 0
1, 64500, Note_on_c, 1, 57, 72
1, 64560, Note_on_c, 0, 75, 0
1, 64560, Note_on_c, 0, 76, 80
1, 64560, Note_on_c, 1, 57, 0
1, 64560, Note_on_c, 1, 48, 72
1, 64608, Note_on_c, 0, 76, 0
1, 64620, Note_on_c, 1, 48, 0
1, 64620, Note_on_c, 1, 55, 72
1, 64680, Note_on_c, 0, 76, 80
1, 64680, Note_on_c, 1, 55, 0
1, 64680, Note_on_c, 1, 52, 72
1, 64740, Note_on_c, 1, 52, 0
1, 64740, Note_on_c, 1, 55, 72
1, 64800, Note_on_c, 0, 76, 0
1, 64800, Note_on_c, 1, 55, 0
1, 64800, Note_on_c, 1, 45, 80
1, 64800, Note_on_c, 1, 57, 80
1, 64848, Note_on_c, 1, 57, 0
1, 64848, Note_on_c, 1, 45, 0
1, 64920, Note_on_c, 0, 69, 84
1, 64920, Note_on_c, 0, 78, 84
1, 64968, Note_on_c, 0, 78, 0
1, 64968, Note_on_c, 0, 69, 0
1, 65040, Note_on_c, 1, 47, 88
1, 65040, Note_on_c, 1, 59, 88
1, 65088, Note_on_c, 1, 59, 0
1, 65088, Note_on_c, 1, 47, 0
1, 65160, Note_on_c, 0, 66, 92
1, 65160, Note_on_c, 0, 75, 92
1, 65208, Note_on_c, 0, 75, 0
1, 65208, Note_on_c, 0, 66, 0
1, 65280, Note_on_c, 0, 64, 96
1, 65280, Note_on_c, 0, 76, 96
1, 65280, Note_on_c, 1, 40, 96
1, 65280, Note_on_c, 1, 52, 96
1, 65520, Note_on_c, 0, 76, 0
1, 65520, Note_on_c, 0, 64, 0
1, 65520, Note_on_c, 1, 52, 0
1, 65520, Note_on_c, 1, 40, 0
1, 65530, End_track
0, 0, End_of_file