0, 0, Header, 0, 1, 96
1, 0, Start_track
1, 0, Tempo, 500000
1, 192, Note_on_c, 0, 75, 79
1, 259, Note_on_c, 0, 75, 0
1, 264, Note_on_c, 0, 75, 79
1, 287, Note_on_c, 0, 75, 0
1, 288, Note_on_c, 0, 75, 95
1, 384, Note_on_c, 0, 75, 0
1, 384, Note_on_c, 1, 60, 79
1, 384, Note_on_c, 1, 56, 79
1, 473, Note_on_c, 1, 60, 0
1, 473, Note_on_c, 1, 56, 0
1, 480, Note_on_c, 0, 80, 79
1, 547, Note_on_c, 0, 80, 0
1, 552, Note_on_c, 0, 80, 79
1, 575, Note_on_c, 0, 80, 0
1, 576, Note_on_c, 0, 80, 95
1, 672, Note_on_c, 0, 80, 0
1, 672, Note_on_c, 1, 63, 79
1, 672, Note_on_c, 1, 60, 79
1, 761, Note_on_c, 1, 63, 0
1, 761, Note_on_c, 1, 60, 0
1, 768, Note_on_c, 0, 72, 79
1, 768, Note_on_c, 0, 68, 79
1, 768, Note_on_c, 1, 65, 79
1, 835, Note_on_c, 0, 72, 0
1, 835, Note_on_c, 0, 68, 0
1, 835, Note_on_c, 1, 65, 0
1, 840, Note_on_c, 0, 72, 79
1, 840, Note_on_c, 0, 68, 79
1, 840, Note_on_c, 1, 65, 79
1, 863, Note_on_c, 0, 72, 0
1, 863, Note_on_c, 0, 68, 0
1, 863, Note_on_c, 1, 65, 0
1, 864, Note_on_c, 0, 72, 95
1, 864, Note_on_c, 0, 68, 95
1, 864, Note_on_c, 1, 65, 79
1, 953, Note_on_c, 1, 65, 0
1, 960, Note_on_c, 0, 72, 0
1, 960, Note_on_c, 0, 68, 0
1, 960, Note_on_c, 0, 73, 79
1, 960, Note_on_c, 0, 70, 79
1, 960, Note_on_c, 1, 61, 79
1, 999, Note_on_c, 0, 73, 0
1, 999, Note_on_c, 0, 70, 0
1, 1049, Note_on_c, 1, 61, 0
1, 1056, Note_on_c, 0, 77, 79
1, 1056, Note_on_c, 0, 73, 79
1, 1056, Note_on_c, 1, 58, 79
1, 1095, Note_on_c, 0, 77, 0
1, 1095, Note_on_c, 0, 73, 0
1, 1145, Note_on_c, 1, 58, 0
1, 1152, Note_on_c, 0, 70, 79
1, 1152, Note_on_c, 0, 67, 79
1, 1152, Note_on_c, 1, 63, 79
1, 1329, Note_on_c, 0, 70, 0
1, 1329, Note_on_c, 0, 67, 0
1, 1329, Note_on_c, 1, 63, 0
1, 1344, Note_on_c, 0, 63, 79
1, 1344, Note_on_c, 1, 61, 79
1, 1411, Note_on_c, 0, 63, 0
1, 1416, Note_on_c, 0, 63, 79
1, 1433, Note_on_c, 1, 61, 0
1, 1439, Note_on_c, 0, 63, 0
1, 1440, Note_on_c, 0, 68, 79
1, 1440, Note_on_c, 1, 63, 79
1, 1440, Note_on_c, 1, 60, 79
1, 1479, Note_on_c, 0, 68, 0
1, 1529, Note_on_c, 1, 63, 0
1, 1529, Note_on_c, 1, 60, 0
1, 1536, Note_on_c, 0, 68, 79
1, 1536, Note_on_c, 1, 61, 79
1, 1536, Note_on_c, 1, 58, 79
1, 1575, Note_on_c, 0, 68, 0
1, 1625, Note_on_c, 1, 61, 0
1, 1625, Note_on_c, 1, 58, 0
1, 1632, Note_on_c, 0, 68, 79
1, 1632, Note_on_c, 1, 60, 79
1, 1632, Note_on_c, 1, 56, 79
1, 1671, Note_on_c, 0, 68, 0
1, 1721, Note_on_c, 1, 60, 0
1, 1721, Note_on_c, 1, 56, 0
1, 1728, Note_on_c, 0, 70, 79
1, 1728, Note_on_c, 1, 58, 79
1, 1728, Note_on_c, 1, 55, 79
1, 1817, Note_on_c, 0, 70, 0
1, 1817, Note_on_c, 1, 58, 0
1, 1817, Note_on_c, 1, 55, 0
1, 1824, Note_on_c, 1, 56, 79
1, 1824, Note_on_c, 1, 53, 79
1, 1913, Note_on_c, 1, 56, 0
1, 1913, Note_on_c, 1, 53, 0
1, 1920, Note_on_c, 0, 70, 79
1, 1920, Note_on_c, 1, 55, 79
1, 1920, Note_on_c, 1, 51, 79
1, 1987, Note_on_c, 0, 70, 0
1, 1992, Note_on_c, 0, 70, 79
1, 2009, Note_on_c, 1, 55, 0
1, 2009, Note_on_c, 1, 51, 0
1, 2015, Note_on_c, 0, 70, 0
1, 2016, Note_on_c, 0, 72, 79
1, 2016, Note_on_c, 1, 56, 79
1, 2055, Note_on_c, 0, 72, 0
1, 2105, Note_on_c, 1, 56, 0
1, 2112, Note_on_c, 0, 72, 81
1, 2112, Note_on_c, 1, 53, 79
1, 2151, Note_on_c, 0, 72, 0
1, 2201, Note_on_c, 1, 53, 0
1, 2208, Note_on_c, 0, 74, 84
1, 2208, Note_on_c, 0, 68, 84
1, 2208, Note_on_c, 1, 58, 79
1, 2297, Note_on_c, 0, 74, 0
1, 2297, Note_on_c, 0, 68, 0
1, 2297, Note_on_c, 1, 58, 0
1, 2304, Note_on_c, 0, 75, 87
1, 2304, Note_on_c, 0, 67, 87
1, 2304, Note_on_c, 1, 51, 79
1, 2393, Note_on_c, 0, 75, 0
1, 2393, Note_on_c, 0, 67, 0
1, 2393, Note_on_c, 1, 51, 0
1, 2496, Note_on_c, 0, 75, 79
1, 2563, Note_on_c, 0, 75, 0
1, 2568, Note_on_c, 0, 75, 79
1, 2591, Note_on_c, 0, 75, 0
1, 2592, Note_on_c, 0, 75, 95
1, 2688, Note_on_c, 0, 75, 0
1, 2688, Note_on_c, 1, 60, 79
1, 2688, Note_on_c, 1, 56, 79
1, 2777, Note_on_c, 1, 60, 0
1, 2777, Note_on_c, 1, 56, 0
1, 2784, Note_on_c, 0, 80, 79
1, 2851, Note_on_c, 0, 80, 0
1, 2856, Note_on_c, 0, 80, 79
1, 2879, Note_on_c, 0, 80, 0
1, 2880, Note_on_c, 0, 80, 95
1, 2976, Note_on_c, 0, 80, 0
1, 2976, Note_on_c, 1, 63, 79
1, 2976, Note_on_c, 1, 60, 79
1, 3065, Note_on_c, 1, 63, 0
1, 3065, Note_on_c, 1, 60, 0
1, 3072, Note_on_c, 0, 72, 79
1, 3072, Note_on_c, 0, 68, 79
1, 3072, Note_on_c, 1, 65, 79
1, 3139, Note_on_c, 0, 72, 0
1, 3139, Note_on_c, 0, 68, 0
1, 3139, Note_on_c, 1, 65, 0
1, 3144, Note_on_c, 0, 72, 79
1, 3144, Note_on_c, 0, 68, 79
1, 3144, Note_on_c, 1, 65, 79
1, 3167, Note_on_c, 0, 72, 0
1, 3167, Note_on_c, 0, 68, 0
1, 3167, Note_on_c, 1, 65, 0
1, 3168, Note_on_c, 0, 72, 95
1, 3168, Note_on_c, 0, 68, 95
1, 3168, Note_on_c, 1, 65, 79
1, 3257, Note_on_c, 1, 65, 0
1, 3264, Note_on_c, 0, 72, 0
1, 3264, Note_on_c, 0, 68, 0
1, 3264, Note_on_c, 0, 73, 79
1, 3264, Note_on_c, 0, 70, 79
1, 3264, Note_on_c, 1, 61, 79
1, 3303, Note_on_c, 0, 73, 0
1, 3303, Note_on_c, 0, 70, 0
1, 3353, Note_on_c, 1, 61, 0
1, 3360, Note_on_c, 0, 77, 79
1, 3360, Note_on_c, 0, 73, 79
1, 3360, Note_on_c, 1, 58, 79
1, 3399, Note_on_c, 0, 77, 0
1, 3399, Note_on_c, 0, 73, 0
1, 3449, Note_on_c, 1, 58, 0
1, 3456, Note_on_c, 0, 70, 79
1, 3456, Note_on_c, 0, 67, 79
1, 3456, Note_on_c, 1, 63, 79
1, 3633, Note_on_c, 0, 70, 0
1, 3633, Note_on_c, 0, 67, 0
1, 3633, Note_on_c, 1, 63, 0
1, 3648, Note_on_c, 0, 63, 79
1, 3648, Note_on_c, 1, 61, 79
1, 3715, Note_on_c, 0, 63, 0
1, 3720, Note_on_c, 0, 63, 79
1, 3737, Note_on_c, 1, 61, 0
1, 3743, Note_on_c, 0, 63, 0
1, 3744, Note_on_c, 0, 68, 79
1, 3744, Note_on_c, 1, 63, 79
1, 3744, Note_on_c, 1, 60, 79
1, 3783, Note_on_c, 0, 68, 0
1, 3833, Note_on_c, 1, 63, 0
1, 3833, Note_on_c, 1, 60, 0
1, 3840, Note_on_c, 0, 68, 79
1, 3840, Note_on_c, 1, 61, 79
1, 3840, Note_on_c, 1, 58, 79
1, 3879, Note_on_c, 0, 68, 0
1, 3929, Note_on_c, 1, 61, 0
1, 3929, Note_on_c, 1, 58, 0
1, 3936, Note_on_c, 0, 68, 79
1, 3936, Note_on_c, 1, 60, 79
1, 3936, Note_on_c, 1, 56, 79
1, 3975, Note_on_c, 0, 68, 0
1, 4025, Note_on_c, 1, 60, 0
1, 4025, Note_on_c, 1, 56, 0
1, 4032, Note_on_c, 0, 70, 79
1, 4032, Note_on_c, 1, 58, 79
1, 4032, Note_on_c, 1, 55, 79
1, 4121, Note_on_c, 0, 70, 0
1, 4121, Note_on_c, 1, 58, 0
1, 4121, Note_on_c, 1, 55, 0
1, 4128, Note_on_c, 1, 56, 79
1, 4128, Note_on_c, 1, 53, 79
1, 4217, Note_on_c, 1, 56, 0
1, 4217, Note_on_c, 1, 53, 0
1, 4224, Note_on_c, 0, 70, 79
1, 4224, Note_on_c, 1, 55, 79
1, 4224, Note_on_c, 1, 51, 79
1, 4291, Note_on_c, 0, 70, 0
1, 4296, Note_on_c, 0, 70, 79
1, 4313, Note_on_c, 1, 55, 0
1, 4313, Note_on_c, 1, 51, 0
1, 4319, Note_on_c, 0, 70, 0
1, 4320, Note_on_c, 0, 72, 79
1, 4320, Note_on_c, 1, 56, 79
1, 4359, Note_on_c, 0, 72, 0
1, 4409, Note_on_c, 1, 56, 0
1, 4416, Note_on_c, 0, 72, 81
1, 4416, Note_on_c, 1, 53, 79
1, 4455, Note_on_c, 0, 72, 0
1, 4505, Note_on_c, 1, 53, 0
1, 4512, Note_on_c, 0, 74, 84
1, 4512, Note_on_c, 0, 68, 84
1, 4512, Note_on_c, 1, 58, 79
1, 4601, Note_on_c, 0, 74, 0
1, 4601, Note_on_c, 0, 68, 0
1, 4601, Note_on_c, 1, 58, 0
1, 4608, Note_on_c, 0, 75, 87
1, 4608, Note_on_c, 0, 67, 87
1, 4608, Note_on_c, 1, 51, 79
1, 4697, Note_on_c, 0, 75, 0
1, 4697, Note_on_c, 0, 67, 0
1, 4697, Note_on_c, 1, 51, 0
1, 4800, Note_on_c, 0, 75, 79
1, 4867, Note_on_c, 0, 75, 0
1, 4872, Note_on_c, 0, 75, 79
1, 4895, Note_on_c, 0, 75, 0
1, 4896, Note_on_c, 0, 75, 95
1, 4992, Note_on_c, 0, 75, 0
1, 4992, Note_on_c, 0, 75, 79
1, 5081, Note_on_c, 0, 75, 0
1, 5088, Note_on_c, 0, 77, 79
1, 5088, Note_on_c, 1, 75, 79
1, 5088, Note_on_c, 1, 69, 64
1, 5155, Note_on_c, 0, 77, 0
1, 5160, Note_on_c, 0, 77, 79
1, 5177, Note_on_c, 1, 69, 0
1, 5183, Note_on_c, 0, 77, 0
1, 5184, Note_on_c, 0, 77, 95
1, 5184, Note_on_c, 1, 70, 64
1, 5273, Note_on_c, 1, 75, 0
1, 5280, Note_on_c, 0, 77, 0
1, 5280, Note_on_c, 0, 82, 79
1, 5280, Note_on_c, 1, 74, 79
1, 5361, Note_on_c, 1, 70, 0
1, 5369, Note_on_c, 0, 82, 0
1, 5369, Note_on_c, 1, 74, 0
1, 5376, Note_on_c, 0, 75, 79
1, 5376, Note_on_c, 1, 73, 79
1, 5376, Note_on_c, 1, 67, 64
1, 5443, Note_on_c, 0, 75, 0
1, 5448, Note_on_c, 0, 75, 79
1, 5465, Note_on_c, 1, 67, 0
1, 5471, Note_on_c, 0, 75, 0
1, 5472, Note_on_c, 0, 75, 95
1, 5472, Note_on_c, 1, 68, 64
1, 5561, Note_on_c, 1, 73, 0
1, 5568, Note_on_c, 0, 75, 0
1, 5568, Note_on_c, 0, 80, 79
1, 5568, Note_on_c, 1, 72, 79
1, 5649, Note_on_c, 1, 68, 0
1, 5657, Note_on_c, 0, 80, 0
1, 5657, Note_on_c, 1, 72, 0
1, 5664, Note_on_c, 0, 72, 79
1, 5731, Note_on_c, 0, 72, 0
1, 5736, Note_on_c, 0, 72, 79
1, 5759, Note_on_c, 0, 72, 0
1, 5760, Note_on_c, 0, 72, 95
1, 5760, Note_on_c, 1, 68, 79
1, 5760, Note_on_c, 1, 65, 79
1, 5856, Note_on_c, 0, 72, 0
1, 5856, Note_on_c, 0, 73, 81
1, 5945, Note_on_c, 0, 73, 0
1, 5952, Note_on_c, 0, 74, 84
1, 6025, Note_on_c, 1, 68, 0
1, 6025, Note_on_c, 1, 65, 0
1, 6041, Note_on_c, 0, 74, 0
1, 6048, Note_on_c, 0, 75, 87
1, 6048, Note_on_c, 1, 67, 79
1, 6048, Note_on_c, 1, 63, 79
1, 6137, Note_on_c, 0, 75, 0
1, 6137, Note_on_c, 1, 67, 0
1, 6137, Note_on_c, 1, 63, 0
1, 6144, Note_on_c, 0, 75, 87
1, 6233, Note_on_c, 0, 75, 0
1, 6240, Note_on_c, 0, 77, 87
1, 6240, Note_on_c, 1, 68, 79
1, 6240, Note_on_c, 1, 62, 79
1, 6240, Note_on_c, 1, 58, 79
1, 6307, Note_on_c, 0, 77, 0
1, 6312, Note_on_c, 0, 79, 87
1, 6335, Note_on_c, 0, 79, 0
1, 6336, Note_on_c, 0, 75, 87
1, 6336, Note_on_c, 1, 68, 0
1, 6336, Note_on_c, 1, 62, 0
1, 6336, Note_on_c, 1, 58, 0
1, 6336, Note_on_c, 1, 67, 79
1, 6336, Note_on_c, 1, 63, 79
1, 6425, Note_on_c, 0, 75, 0
1, 6425, Note_on_c, 1, 67, 0
1, 6425, Note_on_c, 1, 63, 0
1, 6432, Note_on_c, 0, 75, 87
1, 6521, Note_on_c, 0, 75, 0
1, 6528, Note_on_c, 0, 82, 87
1, 6528, Note_on_c, 1, 68, 79
1, 6528, Note_on_c, 1, 62, 79
1, 6528, Note_on_c, 1, 58, 79
1, 6595, Note_on_c, 0, 82, 0
1, 6600, Note_on_c, 0, 82, 87
1, 6624, Note_on_c, 0, 82, 0
1, 6624, Note_on_c, 0, 75, 87
1, 6624, Note_on_c, 1, 68, 0
1, 6624, Note_on_c, 1, 62, 0
1, 6624, Note_on_c, 1, 58, 0
1, 6624, Note_on_c, 1, 67, 79
1, 6624, Note_on_c, 1, 63, 79
1, 6713, Note_on_c, 0, 75, 0
1, 6713, Note_on_c, 1, 67, 0
1, 6713, Note_on_c, 1, 63, 0
1, 6720, Note_on_c, 0, 75, 87
1, 6809, Note_on_c, 0, 75, 0
1, 6816, Note_on_c, 0, 82, 87
1, 6816, Note_on_c, 1, 68, 79
1, 6816, Note_on_c, 1, 62, 79
1, 6816, Note_on_c, 1, 58, 79
1, 6883, Note_on_c, 0, 82, 0
1, 6888, Note_on_c, 0, 82, 87
1, 6912, Note_on_c, 0, 82, 0
1, 6912, Note_on_c, 0, 75, 87
1, 6912, Note_on_c, 1, 68, 0
1, 6912, Note_on_c, 1, 62, 0
1, 6912, Note_on_c, 1, 58, 0
1, 6912, Note_on_c, 1, 67, 79
1, 6912, Note_on_c, 1, 63, 79
1, 7001, Note_on_c, 0, 75, 0
1, 7001, Note_on_c, 1, 67, 0
1, 7001, Note_on_c, 1, 63, 0
1, 7104, Note_on_c, 0, 63, 87
1, 7104, Note_on_c, 0, 60, 87
1, 7171, Note_on_c, 0, 63, 0
1, 7171, Note_on_c, 0, 60, 0
1, 7176, Note_on_c, 0, 63, 87
1, 7176, Note_on_c, 0, 60, 87
1, 7199, Note_on_c, 0, 63, 0
1, 7199, Note_on_c, 0, 60, 0
1, 7200, Note_on_c, 0, 63, 103
1, 7200, Note_on_c, 0, 60, 103
1, 7296, Note_on_c, 0, 63, 0
1, 7296, Note_on_c, 0, 60, 0
1, 7296, Note_on_c, 1, 56, 79
1, 7296, Note_on_c, 1, 44, 79
1, 7385, Note_on_c, 1, 56, 0
1, 7385, Note_on_c, 1, 44, 0
1, 7392, Note_on_c, 0, 84, 87
1, 7392, Note_on_c, 0, 80, 87
1, 7459, Note_on_c, 0, 84, 0
1, 7459, Note_on_c, 0, 80, 0
1, 7464, Note_on_c, 0, 84, 87
1, 7464, Note_on_c, 0, 80, 87
1, 7487, Note_on_c, 0, 84, 0
1, 7487, Note_on_c, 0, 80, 0
1, 7488, Note_on_c, 0, 84, 103
1, 7488, Note_on_c, 0, 80, 103
1, 7584, Note_on_c, 0, 84, 0
1, 7584, Note_on_c, 0, 80, 0
1, 7680, Note_on_c, 0, 72, 87
1, 7680, Note_on_c, 0, 69, 87
1, 7680, Note_on_c, 1, 66, 79
1, 7680, Note_on_c, 1, 63, 79
1, 7747, Note_on_c, 0, 72, 0
1, 7747, Note_on_c, 0, 69, 0
1, 7747, Note_on_c, 1, 66, 0
1, 7747, Note_on_c, 1, 63, 0
1, 7752, Note_on_c, 0, 72, 87
1, 7752, Note_on_c, 0, 69, 87
1, 7752, Note_on_c, 1, 66, 79
1, 7752, Note_on_c, 1, 63, 79
1, 7775, Note_on_c, 0, 72, 0
1, 7775, Note_on_c, 0, 69, 0
1, 7775, Note_on_c, 1, 66, 0
1, 7775, Note_on_c, 1, 63, 0
1, 7776, Note_on_c, 0, 72, 103
1, 7776, Note_on_c, 0, 69, 103
1, 7776, Note_on_c, 1, 66, 79
1, 7776, Note_on_c, 1, 63, 79
1, 7872, Note_on_c, 0, 72, 0
1, 7872, Note_on_c, 0, 69, 0
1, 7872, Note_on_c, 0, 73, 87
1, 7872, Note_on_c, 0, 70, 87
1, 7872, Note_on_c, 1, 66, 0
1, 7872, Note_on_c, 1, 63, 0
1, 7872, Note_on_c, 1, 65, 79
1, 7872, Note_on_c, 1, 61, 79
1, 7961, Note_on_c, 0, 73, 0
1, 7961, Note_on_c, 0, 70, 0
1, 7961, Note_on_c, 1, 65, 0
1, 7961, Note_on_c, 1, 61, 0
1, 7968, Note_on_c, 0, 70, 87
1, 7968, Note_on_c, 0, 67, 87
1, 7968, Note_on_c, 1, 63, 79
1, 7968, Note_on_c, 1, 61, 79
1, 8035, Note_on_c, 0, 70, 0
1, 8035, Note_on_c, 0, 67, 0
1, 8035, Note_on_c, 1, 63, 0
1, 8035, Note_on_c, 1, 61, 0
1, 8040, Note_on_c, 0, 70, 87
1, 8040, Note_on_c, 0, 67, 87
1, 8040, Note_on_c, 1, 63, 79
1, 8040, Note_on_c, 1, 61, 79
1, 8063, Note_on_c, 0, 70, 0
1, 8063, Note_on_c, 0, 67, 0
1, 8063, Note_on_c, 1, 63, 0
1, 8063, Note_on_c, 1, 61, 0
1, 8064, Note_on_c, 0, 70, 103
1, 8064, Note_on_c, 0, 67, 103
1, 8064, Note_on_c, 1, 63, 79
1, 8064, Note_on_c, 1, 61, 64
1, 8160, Note_on_c, 0, 70, 0
1, 8160, Note_on_c, 0, 67, 0
1, 8160, Note_on_c, 0, 72, 87
1, 8160, Note_on_c, 0, 68, 87
1, 8160, Note_on_c, 1, 61, 0
1, 8160, Note_on_c, 1, 60, 64
1, 8241, Note_on_c, 1, 63, 0
1, 8249, Note_on_c, 0, 72, 0
1, 8249, Note_on_c, 0, 68, 0
1, 8249, Note_on_c, 1, 60, 0
1, 8256, Note_on_c, 0, 75, 87
1, 8256, Note_on_c, 0, 72, 87
1, 8323, Note_on_c, 0, 75, 0
1, 8323, Note_on_c, 0, 72, 0
1, 8328, Note_on_c, 0, 75, 87
1, 8328, Note_on_c, 0, 72, 87
1, 8351, Note_on_c, 0, 75, 0
1, 8351, Note_on_c, 0, 72, 0
1, 8352, Note_on_c, 0, 75, 87
1, 8352, Note_on_c, 0, 72, 87
1, 8448, Note_on_c, 0, 75, 0
1, 8448, Note_on_c, 0, 72, 0
1, 8448, Note_on_c, 0, 77, 87
1, 8448, Note_on_c, 0, 73, 87
1, 8537, Note_on_c, 0, 77, 0
1, 8537, Note_on_c, 0, 73, 0
1, 8544, Note_on_c, 0, 67, 87
1, 8544, Note_on_c, 0, 61, 87
1, 8544, Note_on_c, 1, 58, 79
1, 8544, Note_on_c, 1, 51, 79
1, 8583, Note_on_c, 0, 67, 0
1, 8583, Note_on_c, 0, 61, 0
1, 8633, Note_on_c, 1, 58, 0
1, 8633, Note_on_c, 1, 51, 0
1, 8640, Note_on_c, 0, 68, 87
1, 8640, Note_on_c, 0, 60, 87
1, 8640, Note_on_c, 1, 56, 79
1, 8640, Note_on_c, 1, 44, 79
1, 8729, Note_on_c, 0, 68, 0
1, 8729, Note_on_c, 0, 60, 0
1, 8729, Note_on_c, 1, 56, 0
1, 8729, Note_on_c, 1, 44, 0
1, 8832, Note_on_c, 0, 75, 79
1, 8899, Note_on_c, 0, 75, 0
1, 8904, Note_on_c, 0, 75, 79
1, 8927, Note_on_c, 0, 75, 0
1, 8928, Note_on_c, 0, 75, 95
1, 9024, Note_on_c, 0, 75, 0
1, 9024, Note_on_c, 0, 75, 79
1, 9113, Note_on_c, 0, 75, 0
1, 9120, Note_on_c, 0, 77, 79
1, 9120, Note_on_c, 1, 75, 79
1, 9120, Note_on_c, 1, 69, 64
1, 9187, Note_on_c, 0, 77, 0
1, 9192, Note_on_c, 0, 77, 79
1, 9209, Note_on_c, 1, 69, 0
1, 9215, Note_on_c, 0, 77, 0
1, 9216, Note_on_c, 0, 77, 95
1, 9216, Note_on_c, 1, 70, 64
1, 9305, Note_on_c, 1, 75, 0
1, 9312, Note_on_c, 0, 77, 0
1, 9312, Note_on_c, 0, 82, 79
1, 9312, Note_on_c, 1, 74, 79
1, 9393, Note_on_c, 1, 70, 0
1, 9401, Note_on_c, 0, 82, 0
1, 9401, Note_on_c, 1, 74, 0
1, 9408, Note_on_c, 0, 75, 79
1, 9408, Note_on_c, 1, 73, 79
1, 9408, Note_on_c, 1, 67, 64
1, 9475, Note_on_c, 0, 75, 0
1, 9480, Note_on_c, 0, 75, 79
1, 9497, Note_on_c, 1, 67, 0
1, 9503, Note_on_c, 0, 75, 0
1, 9504, Note_on_c, 0, 75, 95
1, 9504, Note_on_c, 1, 68, 64
1, 9593, Note_on_c, 1, 73, 0
1, 9600, Note_on_c, 0, 75, 0
1, 9600, Note_on_c, 0, 80, 79
1, 9600, Note_on_c, 1, 72, 79
1, 9681, Note_on_c, 1, 68, 0
1, 9689, Note_on_c, 0, 80, 0
1, 9689, Note_on_c, 1, 72, 0
1, 9696, Note_on_c, 0, 72, 79
1, 9763, Note_on_c, 0, 72, 0
1, 9768, Note_on_c, 0, 72, 79
1, 9791, Note_on_c, 0, 72, 0
1, 9792, Note_on_c, 0, 72, 95
1, 9792, Note_on_c, 1, 68, 79
1, 9792, Note_on_c, 1, 65, 79
1, 9888, Note_on_c, 0, 72, 0
1, 9888, Note_on_c, 0, 73, 81
1, 9977, Note_on_c, 0, 73, 0
1, 9984, Note_on_c, 0, 74, 84
1, 10057, Note_on_c, 1, 68, 0
1, 10057, Note_on_c, 1, 65, 0
1, 10073, Note_on_c, 0, 74, 0
1, 10080, Note_on_c, 0, 75, 87
1, 10080, Note_on_c, 1, 67, 79
1, 10080, Note_on_c, 1, 63, 79
1, 10169, Note_on_c, 0, 75, 0
1, 10169, Note_on_c, 1, 67, 0
1, 10169, Note_on_c, 1, 63, 0
1, 10176, Note_on_c, 0, 75, 87
1, 10265, Note_on_c, 0, 75, 0
1, 10272, Note_on_c, 0, 77, 87
1, 10272, Note_on_c, 1, 68, 79
1, 10272, Note_on_c, 1, 62, 79
1, 10272, Note_on_c, 1, 58, 79
1, 10339, Note_on_c, 0, 77, 0
1, 10344, Note_on_c, 0, 79, 87
1, 10367, Note_on_c, 0, 79, 0
1, 10368, Note_on_c, 0, 75, 87
1, 10368, Note_on_c, 1, 68, 0
1, 10368, Note_on_c, 1, 62, 0
1, 10368, Note_on_c, 1, 58, 0
1, 10368, Note_on_c, 1, 67, 79
1, 10368, Note_on_c, 1, 63, 79
1, 10457, Note_on_c, 0, 75, 0
1, 10457, Note_on_c, 1, 67, 0
1, 10457, Note_on_c, 1, 63, 0
1, 10464, Note_on_c, 0, 75, 87
1, 10553, Note_on_c, 0, 75, 0
1, 10560, Note_on_c, 0, 82, 87
1, 10560, Note_on_c, 1, 68, 79
1, 10560, Note_on_c, 1, 62, 79
1, 10560, Note_on_c, 1, 58, 79
1, 10627, Note_on_c, 0, 82, 0
1, 10632, Note_on_c, 0, 82, 87
1, 10656, Note_on_c, 0, 82, 0
1, 10656, Note_on_c, 0, 75, 87
1, 10656, Note_on_c, 1, 68, 0
1, 10656, Note_on_c, 1, 62, 0
1, 10656, Note_on_c, 1, 58, 0
1, 10656, Note_on_c, 1, 67, 79
1, 10656, Note_on_c, 1, 63, 79
1, 10745, Note_on_c, 0, 75, 0
1, 10745, Note_on_c, 1, 67, 0
1, 10745, Note_on_c, 1, 63, 0
1, 10752, Note_on_c, 0, 75, 87
1, 10841, Note_on_c, 0, 75, 0
1, 10848, Note_on_c, 0, 82, 87
1, 10848, Note_on_c, 1, 68, 79
1, 10848, Note_on_c, 1, 62, 79
1, 10848, Note_on_c, 1, 58, 79
1, 10915, Note_on_c, 0, 82, 0
1, 10920, Note_on_c, 0, 82, 87
1, 10944, Note_on_c, 0, 82, 0
1, 10944, Note_on_c, 0, 75, 87
1, 10944, Note_on_c, 1, 68, 0
1, 10944, Note_on_c, 1, 62, 0
1, 10944, Note_on_c, 1, 58, 0
1, 10944, Note_on_c, 1, 67, 79
1, 10944, Note_on_c, 1, 63, 79
1, 11033, Note_on_c, 0, 75, 0
1, 11033, Note_on_c, 1, 67, 0
1, 11033, Note_on_c, 1, 63, 0
1, 11136, Note_on_c, 0, 63, 87
1, 11136, Note_on_c, 0, 60, 87
1, 11203, Note_on_c, 0, 63, 0
1, 11203, Note_on_c, 0, 60, 0
1, 11208, Note_on_c, 0, 63, 87
1, 11208, Note_on_c, 0, 60, 87
1, 11231, Note_on_c, 0, 63, 0
1, 11231, Note_on_c, 0, 60, 0
1, 11232, Note_on_c, 0, 63, 103
1, 11232, Note_on_c, 0, 60, 103
1, 11328, Note_on_c, 0, 63, 0
1, 11328, Note_on_c, 0, 60, 0
1, 11328, Note_on_c, 1, 56, 79
1, 11328, Note_on_c, 1, 44, 79
1, 11417, Note_on_c, 1, 56, 0
1, 11417, Note_on_c, 1, 44, 0
1, 11424, Note_on_c, 0, 84, 87
1, 11424, Note_on_c, 0, 80, 87
1, 11491, Note_on_c, 0, 84, 0
1, 11491, Note_on_c, 0, 80, 0
1, 11496, Note_on_c, 0, 84, 87
1, 11496, Note_on_c, 0, 80, 87
1, 11519, Note_on_c, 0, 84, 0
1, 11519, Note_on_c, 0, 80, 0
1, 11520, Note_on_c, 0, 84, 103
1, 11520, Note_on_c, 0, 80, 103
1, 11616, Note_on_c, 0, 84, 0
1, 11616, Note_on_c, 0, 80, 0
1, 11712, Note_on_c, 0, 72, 87
1, 11712, Note_on_c, 0, 69, 87
1, 11712, Note_on_c, 1, 66, 79
1, 11712, Note_on_c, 1, 63, 79
1, 11779, Note_on_c, 0, 72, 0
1, 11779, Note_on_c, 0, 69, 0
1, 11779, Note_on_c, 1, 66, 0
1, 11779, Note_on_c, 1, 63, 0
1, 11784, Note_on_c, 0, 72, 87
1, 11784, Note_on_c, 0, 69, 87
1, 11784, Note_on_c, 1, 66, 79
1, 11784, Note_on_c, 1, 63, 79
1, 11807, Note_on_c, 0, 72, 0
1, 11807, Note_on_c, 0, 69, 0
1, 11807, Note_on_c, 1, 66, 0
1, 11807, Note_on_c, 1, 63, 0
1, 11808, Note_on_c, 0, 72, 103
1, 11808, Note_on_c, 0, 69, 103
1, 11808, Note_on_c, 1, 66, 79
1, 11808, Note_on_c, 1, 63, 79
1, 11904, Note_on_c, 0, 72, 0
1, 11904, Note_on_c, 0, 69, 0
1, 11904, Note_on_c, 0, 73, 87
1, 11904, Note_on_c, 0, 70, 87
1, 11904, Note_on_c, 1, 66, 0
1, 11904, Note_on_c, 1, 63, 0
1, 11904, Note_on_c, 1, 65, 79
1, 11904, Note_on_c, 1, 61, 79
1, 11993, Note_on_c, 0, 73, 0
1, 11993, Note_on_c, 0, 70, 0
1, 11993, Note_on_c, 1, 65, 0
1, 11993, Note_on_c, 1, 61, 0
1, 12000, Note_on_c, 0, 70, 87
1, 12000, Note_on_c, 0, 67, 87
1, 12000, Note_on_c, 1, 63, 79
1, 12000, Note_on_c, 1, 61, 79
1, 12067, Note_on_c, 0, 70, 0
1, 12067, Note_on_c, 0, 67, 0
1, 12067, Note_on_c, 1, 63, 0
1, 12067, Note_on_c, 1, 61, 0
1, 12072, Note_on_c, 0, 70, 87
1, 12072, Note_on_c, 0, 67, 87
1, 12072, Note_on_c, 1, 63, 79
1, 12072, Note_on_c, 1, 61, 79
1, 12095, Note_on_c, 0, 70, 0
1, 12095, Note_on_c, 0, 67, 0
1, 12095, Note_on_c, 1, 63, 0
1, 12095, Note_on_c, 1, 61, 0
1, 12096, Note_on_c, 0, 70, 103
1, 12096, Note_on_c, 0, 67, 103
1, 12096, Note_on_c, 1, 63, 79
1, 12096, Note_on_c, 1, 61, 64
1, 12192, Note_on_c, 0, 70, 0
1, 12192, Note_on_c, 0, 67, 0
1, 12192, Note_on_c, 0, 72, 87
1, 12192, Note_on_c, 0, 68, 87
1, 12192, Note_on_c, 1, 61, 0
1, 12192, Note_on_c, 1, 60, 64
1, 12273, Note_on_c, 1, 63, 0
1, 12281, Note_on_c, 0, 72, 0
1, 12281, Note_on_c, 0, 68, 0
1, 12281, Note_on_c, 1, 60, 0
1, 12288, Note_on_c, 0, 75, 87
1, 12288, Note_on_c, 0, 72, 87
1, 12355, Note_on_c, 0, 75, 0
1, 12355, Note_on_c, 0, 72, 0
1, 12360, Note_on_c, 0, 75, 87
1, 12360, Note_on_c, 0, 72, 87
1, 12383, Note_on_c, 0, 75, 0
1, 12383, Note_on_c, 0, 72, 0
1, 12384, Note_on_c, 0, 75, 87
1, 12384, Note_on_c, 0, 72, 87
1, 12480, Note_on_c, 0, 75, 0
1, 12480, Note_on_c, 0, 72, 0
1, 12480, Note_on_c, 0, 77, 87
1, 12480, Note_on_c, 0, 73, 87
1, 12569, Note_on_c, 0, 77, 0
1, 12569, Note_on_c, 0, 73, 0
1, 12576, Note_on_c, 0, 67, 87
1, 12576, Note_on_c, 0, 61, 87
1, 12576, Note_on_c, 1, 58, 79
1, 12576, Note_on_c, 1, 51, 79
1, 12615, Note_on_c, 0, 67, 0
1, 12615, Note_on_c, 0, 61, 0
1, 12665, Note_on_c, 1, 58, 0
1, 12665, Note_on_c, 1, 51, 0
1, 12672, Note_on_c, 0, 68, 87
1, 12672, Note_on_c, 0, 60, 87
1, 12672, Note_on_c, 1, 56, 79
1, 12672, Note_on_c, 1, 44, 79
1, 12761, Note_on_c, 0, 68, 0
1, 12761, Note_on_c, 0, 60, 0
1, 12761, Note_on_c, 1, 56, 0
1, 12761, Note_on_c, 1, 44, 0
1, 12864, Note_on_c, 0, 72, 87
1, 12912, Note_on_c, 0, 72, 0
1, 12912, Note_on_c, 0, 73, 87
1, 12957, Note_on_c, 0, 73, 0
1, 12960, Note_on_c, 0, 77, 87
1, 12960, Note_on_c, 1, 56, 68
1, 13005, Note_on_c, 0, 77, 0
1, 13005, Note_on_c, 1, 56, 0
1, 13008, Note_on_c, 0, 75, 87
1, 13008, Note_on_c, 1, 63, 68
1, 13053, Note_on_c, 0, 75, 0
1, 13053, Note_on_c, 1, 63, 0
1, 13056, Note_on_c, 0, 73, 87
1, 13056, Note_on_c, 1, 60, 68
1, 13101, Note_on_c, 0, 73, 0
1, 13101, Note_on_c, 1, 60, 0
1, 13104, Note_on_c, 0, 72, 87
1, 13104, Note_on_c, 1, 63, 68
1, 13149, Note_on_c, 0, 72, 0
1, 13149, Note_on_c, 1, 63, 0
1, 13152, Note_on_c, 0, 72, 87
1, 13152, Note_on_c, 1, 56, 68
1, 13197, Note_on_c, 1, 56, 0
1, 13200, Note_on_c, 1, 63, 68
1, 13241, Note_on_c, 0, 72, 0
1, 13245, Note_on_c, 1, 63, 0
1, 13248, Note_on_c, 0, 72, 103
1, 13248, Note_on_c, 1, 56, 68
1, 13293, Note_on_c, 1, 56, 0
1, 13296, Note_on_c, 1, 63, 68
1, 13341, Note_on_c, 1, 63, 0
1, 13344, Note_on_c, 1, 60, 68
1, 13389, Note_on_c, 1, 60, 0
1, 13392, Note_on_c, 1, 63, 68
1, 13437, Note_on_c, 1, 63, 0
1, 13440, Note_on_c, 0, 72, 0
1, 13440, Note_on_c, 0, 79, 87
1, 13440, Note_on_c, 1, 56, 68
1, 13485, Note_on_c, 0, 79, 0
1, 13485, Note_on_c, 1, 56, 0
1, 13488, Note_on_c, 0, 80, 87
1, 13488, Note_on_c, 1, 63, 68
1, 13533, Note_on_c, 0, 80, 0
1, 13533, Note_on_c, 1, 63, 0
1, 13536, Note_on_c, 0, 84, 87
1, 13536, Note_on_c, 1, 56, 68
1, 13581, Note_on_c, 0, 84, 0
1, 13581, Note_on_c, 1, 56, 0
1, 13584, Note_on_c, 0, 80, 87
1, 13584, Note_on_c, 1, 63, 68
1, 13629, Note_on_c, 0, 80, 0
1, 13629, Note_on_c, 1, 63, 0
1, 13632, Note_on_c, 0, 79, 87
1, 13632, Note_on_c, 1, 60, 68
1, 13677, Note_on_c, 0, 79, 0
1, 13677, Note_on_c, 1, 60, 0
1, 13680, Note_on_c, 0, 77, 87
1, 13680, Note_on_c, 1, 63, 68
1, 13725, Note_on_c, 0, 77, 0
1, 13725, Note_on_c, 1, 63, 0
1, 13728, Note_on_c, 0, 75, 87
1, 13728, Note_on_c, 1, 56, 68
1, 13773, Note_on_c, 1, 56, 0
1, 13776, Note_on_c, 1, 63, 68
1, 13817, Note_on_c, 0, 75, 0
1, 13821, Note_on_c, 1, 63, 0
1, 13824, Note_on_c, 0, 75, 95
1, 13824, Note_on_c, 1, 56, 68
1, 13869, Note_on_c, 1, 56, 0
1, 13872, Note_on_c, 1, 63, 68
1, 13917, Note_on_c, 1, 63, 0
1, 13920, Note_on_c, 1, 60, 68
1, 13965, Note_on_c, 1, 60, 0
1, 13968, Note_on_c, 1, 63, 68
1, 14013, Note_on_c, 1, 63, 0
1, 14016, Note_on_c, 0, 75, 0
1, 14016, Note_on_c, 0, 79, 84
1, 14016, Note_on_c, 1, 56, 68
1, 14061, Note_on_c, 0, 79, 0
1, 14061, Note_on_c, 1, 56, 0
1, 14064, Note_on_c, 0, 80, 85
1, 14064, Note_on_c, 1, 63, 68
1, 14109, Note_on_c, 0, 80, 0
1, 14109, Note_on_c, 1, 63, 0
1, 14112, Note_on_c, 0, 84, 87
1, 14112, Note_on_c, 1, 56, 68
1, 14157, Note_on_c, 0, 84, 0
1, 14157, Note_on_c, 1, 56, 0
1, 14160, Note_on_c, 0, 80, 87
1, 14160, Note_on_c, 1, 62, 68
1, 14205, Note_on_c, 0, 80, 0
1, 14205, Note_on_c, 1, 62, 0
1, 14208, Note_on_c, 0, 79, 87
1, 14208, Note_on_c, 1, 58, 68
1, 14253, Note_on_c, 0, 79, 0
1, 14253, Note_on_c, 1, 58, 0
1, 14256, Note_on_c, 0, 77, 87
1, 14256, Note_on_c, 1, 62, 68
1, 14301, Note_on_c, 0, 77, 0
1, 14301, Note_on_c, 1, 62, 0
1, 14304, Note_on_c, 0, 75, 87
1, 14304, Note_on_c, 1, 56, 68
1, 14349, Note_on_c, 0, 75, 0
1, 14349, Note_on_c, 1, 56, 0
1, 14352, Note_on_c, 0, 74, 87
1, 14352, Note_on_c, 1, 62, 68
1, 14397, Note_on_c, 0, 74, 0
1, 14397, Note_on_c, 1, 62, 0
1, 14400, Note_on_c, 0, 82, 87
1, 14400, Note_on_c, 1, 55, 68
1, 14445, Note_on_c, 1, 55, 0
1, 14448, Note_on_c, 1, 63, 68
1, 14493, Note_on_c, 1, 63, 0
1, 14496, Note_on_c, 1, 58, 68
1, 14541, Note_on_c, 1, 58, 0
1, 14544, Note_on_c, 1, 63, 68
1, 14577, Note_on_c, 0, 82, 0
1, 14589, Note_on_c, 1, 63, 0
1, 14592, Note_on_c, 0, 80, 87
1, 14592, Note_on_c, 1, 55, 68
1, 14637, Note_on_c, 0, 80, 0
1, 14637, Note_on_c, 1, 55, 0
1, 14640, Note_on_c, 0, 79, 87
1, 14640, Note_on_c, 1, 63, 68
1, 14685, Note_on_c, 0, 79, 0
1, 14685, Note_on_c, 1, 63, 0
1, 14688, Note_on_c, 0, 79, 87
1, 14688, Note_on_c, 1, 56, 68
1, 14736, Note_on_c, 0, 79, 0
1, 14736, Note_on_c, 0, 77, 87
1, 14777, Note_on_c, 1, 56, 0
1, 14781, Note_on_c, 0, 77, 0
1, 14784, Note_on_c, 0, 75, 87
1, 14832, Note_on_c, 0, 75, 0
1, 14832, Note_on_c, 0, 77, 87
1, 14877, Note_on_c, 0, 77, 0
1, 14880, Note_on_c, 0, 74, 87
1, 14880, Note_on_c, 1, 58, 68
1, 14928, Note_on_c, 0, 74, 0
1, 14928, Note_on_c, 0, 77, 87
1, 14969, Note_on_c, 1, 58, 0
1, 14973, Note_on_c, 0, 77, 0
1, 14976, Note_on_c, 0, 75, 87
1, 14976, Note_on_c, 1, 51, 73
1, 15065, Note_on_c, 0, 75, 0
1, 15065, Note_on_c, 1, 51, 0
1, 15168, Note_on_c, 0, 72, 87
1, 15216, Note_on_c, 0, 72, 0
1, 15216, Note_on_c, 0, 73, 87
1, 15261, Note_on_c, 0, 73, 0
1, 15264, Note_on_c, 0, 77, 87
1, 15264, Note_on_c, 1, 56, 68
1, 15309, Note_on_c, 0, 77, 0
1, 15309, Note_on_c, 1, 56, 0
1, 15312, Note_on_c, 0, 75, 87
1, 15312, Note_on_c, 1, 63, 68
1, 15357, Note_on_c, 0, 75, 0
1, 15357, Note_on_c, 1, 63, 0
1, 15360, Note_on_c, 0, 73, 87
1, 15360, Note_on_c, 1, 60, 68
1, 15405, Note_on_c, 0, 73, 0
1, 15405, Note_on_c, 1, 60, 0
1, 15408, Note_on_c, 0, 72, 87
1, 15408, Note_on_c, 1, 63, 68
1, 15453, Note_on_c, 0, 72, 0
1, 15453, Note_on_c, 1, 63, 0
1, 15456, Note_on_c, 0, 72, 87
1, 15456, Note_on_c, 1, 56, 68
1, 15501, Note_on_c, 1, 56, 0
1, 15504, Note_on_c, 1, 63, 68
1, 15545, Note_on_c, 0, 72, 0
1, 15549, Note_on_c, 1, 63, 0
1, 15552, Note_on_c, 0, 72, 103
1, 15552, Note_on_c, 1, 56, 68
1, 15597, Note_on_c, 1, 56, 0
1, 15600, Note_on_c, 1, 63, 68
1, 15645, Note_on_c, 1, 63, 0
1, 15648, Note_on_c, 1, 60, 68
1, 15693, Note_on_c, 1, 60, 0
1, 15696, Note_on_c, 1, 63, 68
1, 15741, Note_on_c, 1, 63, 0
1, 15744, Note_on_c, 0, 72, 0
1, 15744, Note_on_c, 0, 79, 87
1, 15744, Note_on_c, 1, 56, 68
1, 15789, Note_on_c, 0, 79, 0
1, 15789, Note_on_c, 1, 56, 0
1, 15792, Note_on_c, 0, 80, 87
1, 15792, Note_on_c, 1, 63, 68
1, 15837, Note_on_c, 0, 80, 0
1, 15837, Note_on_c, 1, 63, 0
1, 15840, Note_on_c, 0, 84, 87
1, 15840, Note_on_c, 1, 56, 68
1, 15885, Note_on_c, 0, 84, 0
1, 15885, Note_on_c, 1, 56, 0
1, 15888, Note_on_c, 0, 80, 87
1, 15888, Note_on_c, 1, 63, 68
1, 15933, Note_on_c, 0, 80, 0
1, 15933, Note_on_c, 1, 63, 0
1, 15936, Note_on_c, 0, 79, 87
1, 15936, Note_on_c, 1, 60, 68
1, 15981, Note_on_c, 0, 79, 0
1, 15981, Note_on_c, 1, 60, 0
1, 15984, Note_on_c, 0, 77, 87
1, 15984, Note_on_c, 1, 63, 68
1, 16029, Note_on_c, 0, 77, 0
1, 16029, Note_on_c, 1, 63, 0
1, 16032, Note_on_c, 0, 75, 87
1, 16032, Note_on_c, 1, 56, 68
1, 16077, Note_on_c, 1, 56, 0
1, 16080, Note_on_c, 1, 63, 68
1, 16121, Note_on_c, 0, 75, 0
1, 16125, Note_on_c, 1, 63, 0
1, 16128, Note_on_c, 0, 75, 95
1, 16128, Note_on_c, 1, 56, 68
1, 16173, Note_on_c, 1, 56, 0
1, 16176, Note_on_c, 1, 63, 68
1, 16221, Note_on_c, 1, 63, 0
1, 16224, Note_on_c, 1, 60, 68
1, 16269, Note_on_c, 1, 60, 0
1, 16272, Note_on_c, 1, 63, 68
1, 16317, Note_on_c, 1, 63, 0
1, 16320, Note_on_c, 0, 75, 0
1, 16320, Note_on_c, 0, 79, 84
1, 16320, Note_on_c, 1, 56, 68
1, 16365, Note_on_c, 0, 79, 0
1, 16365, Note_on_c, 1, 56, 0
1, 16368, Note_on_c, 0, 80, 85
1, 16368, Note_on_c, 1, 63, 68
1, 16413, Note_on_c, 0, 80, 0
1, 16413, Note_on_c, 1, 63, 0
1, 16416, Note_on_c, 0, 84, 87
1, 16416, Note_on_c, 1, 56, 68
1, 16461, Note_on_c, 0, 84, 0
1, 16461, Note_on_c, 1, 56, 0
1, 16464, Note_on_c, 0, 80, 87
1, 16464, Note_on_c, 1, 62, 68
1, 16509, Note_on_c, 0, 80, 0
1, 16509, Note_on_c, 1, 62, 0
1, 16512, Note_on_c, 0, 79, 87
1, 16512, Note_on_c, 1, 58, 68
1, 16557, Note_on_c, 0, 79, 0
1, 16557, Note_on_c, 1, 58, 0
1, 16560, Note_on_c, 0, 77, 87
1, 16560, Note_on_c, 1, 62, 68
1, 16605, Note_on_c, 0, 77, 0
1, 16605, Note_on_c, 1, 62, 0
1, 16608, Note_on_c, 0, 75, 87
1, 16608, Note_on_c, 1, 56, 68
1, 16653, Note_on_c, 0, 75, 0
1, 16653, Note_on_c, 1, 56, 0
1, 16656, Note_on_c, 0, 74, 87
1, 16656, Note_on_c, 1, 62, 68
1, 16701, Note_on_c, 0, 74, 0
1, 16701, Note_on_c, 1, 62, 0
1, 16704, Note_on_c, 0, 82, 87
1, 16704, Note_on_c, 1, 55, 68
1, 16749, Note_on_c, 1, 55, 0
1, 16752, Note_on_c, 1, 63, 68
1, 16797, Note_on_c, 1, 63, 0
1, 16800, Note_on_c, 1, 58, 68
1, 16845, Note_on_c, 1, 58, 0
1, 16848, Note_on_c, 1, 63, 68
1, 16881, Note_on_c, 0, 82, 0
1, 16893, Note_on_c, 1, 63, 0
1, 16896, Note_on_c, 0, 80, 87
1, 16896, Note_on_c, 1, 55, 68
1, 16941, Note_on_c, 0, 80, 0
1, 16941, Note_on_c, 1, 55, 0
1, 16944, Note_on_c, 0, 79, 87
1, 16944, Note_on_c, 1, 63, 68
1, 16989, Note_on_c, 0, 79, 0
1, 16989, Note_on_c, 1, 63, 0
1, 16992, Note_on_c, 0, 79, 87
1, 16992, Note_on_c, 1, 56, 68
1, 17040, Note_on_c, 0, 79, 0
1, 17040, Note_on_c, 0, 77, 87
1, 17081, Note_on_c, 1, 56, 0
1, 17085, Note_on_c, 0, 77, 0
1, 17088, Note_on_c, 0, 75, 87
1, 17136, Note_on_c, 0, 75, 0
1, 17136, Note_on_c, 0, 77, 87
1, 17181, Note_on_c, 0, 77, 0
1, 17184, Note_on_c, 0, 74, 87
1, 17184, Note_on_c, 1, 58, 68
1, 17232, Note_on_c, 0, 74, 0
1, 17232, Note_on_c, 0, 77, 87
1, 17273, Note_on_c, 1, 58, 0
1, 17277, Note_on_c, 0, 77, 0
1, 17280, Note_on_c, 0, 75, 87
1, 17280, Note_on_c, 1, 51, 73
1, 17369, Note_on_c, 0, 75, 0
1, 17369, Note_on_c, 1, 51, 0
1, 17472, Note_on_c, 0, 77, 79
1, 17520, Note_on_c, 0, 77, 0
1, 17520, Note_on_c, 0, 75, 79
1, 17565, Note_on_c, 0, 75, 0
1, 17568, Note_on_c, 0, 75, 79
1, 17568, Note_on_c, 1, 63, 79
1, 17616, Note_on_c, 0, 75, 0
1, 17616, Note_on_c, 0, 73, 79
1, 17657, Note_on_c, 1, 63, 0
1, 17661, Note_on_c, 0, 73, 0
1, 17664, Note_on_c, 0, 73, 79
1, 17664, Note_on_c, 1, 67, 79
1, 17712, Note_on_c, 0, 73, 0
1, 17712, Note_on_c, 0, 75, 79
1, 17753, Note_on_c, 1, 67, 0
1, 17757, Note_on_c, 0, 75, 0
1, 17760, Note_on_c, 0, 72, 79
1, 17760, Note_on_c, 1, 68, 79
1, 17808, Note_on_c, 0, 72, 0
1, 17808, Note_on_c, 0, 73, 79
1, 17849, Note_on_c, 1, 68, 0
1, 17853, Note_on_c, 0, 73, 0
1, 17856, Note_on_c, 0, 70, 79
1, 17856, Note_on_c, 1, 67, 79
1, 17945, Note_on_c, 1, 67, 0
1, 17952, Note_on_c, 1, 63, 79
1, 18033, Note_on_c, 0, 70, 0
1, 18041, Note_on_c, 1, 63, 0
1, 18048, Note_on_c, 0, 72, 79
1, 18096, Note_on_c, 0, 72, 0
1, 18096, Note_on_c, 0, 70, 79
1, 18141, Note_on_c, 0, 70, 0
1, 18144, Note_on_c, 0, 70, 79
1, 18144, Note_on_c, 1, 53, 64
1, 18192, Note_on_c, 0, 70, 0
1, 18192, Note_on_c, 0, 68, 80
1, 18237, Note_on_c, 0, 68, 0
1, 18240, Note_on_c, 0, 67, 81
1, 18240, Note_on_c, 1, 62, 79
1, 18288, Note_on_c, 0, 67, 0
1, 18288, Note_on_c, 0, 68, 83
1, 18329, Note_on_c, 1, 62, 0
1, 18333, Note_on_c, 0, 68, 0
1, 18336, Note_on_c, 0, 67, 84
1, 18336, Note_on_c, 1, 62, 79
1, 18384, Note_on_c, 0, 67, 0
1, 18384, Note_on_c, 0, 68, 85
1, 18409, Note_on_c, 1, 53, 0
1, 18432, Note_on_c, 0, 72, 87
1, 18432, Note_on_c, 1, 51, 64
1, 18521, Note_on_c, 1, 62, 0
1, 18528, Note_on_c, 0, 72, 0
1, 18528, Note_on_c, 0, 68, 0
1, 18528, Note_on_c, 0, 70, 83
1, 18528, Note_on_c, 0, 67, 83
1, 18528, Note_on_c, 1, 63, 79
1, 18609, Note_on_c, 1, 51, 0
1, 18617, Note_on_c, 0, 70, 0
1, 18617, Note_on_c, 0, 67, 0
1, 18617, Note_on_c, 1, 63, 0
1, 18624, Note_on_c, 0, 72, 79
1, 18672, Note_on_c, 0, 72, 0
1, 18672, Note_on_c, 0, 73, 79
1, 18717, Note_on_c, 0, 73, 0
1, 18720, Note_on_c, 0, 77, 79
1, 18720, Note_on_c, 1, 56, 68
1, 18765, Note_on_c, 0, 77, 0
1, 18765, Note_on_c, 1, 56, 0
1, 18768, Note_on_c, 0, 75, 79
1, 18768, Note_on_c, 1, 63, 68
1, 18813, Note_on_c, 0, 75, 0
1, 18813, Note_on_c, 1, 63, 0
1, 18816, Note_on_c, 0, 73, 79
1, 18816, Note_on_c, 1, 60, 68
1, 18861, Note_on_c, 0, 73, 0
1, 18861, Note_on_c, 1, 60, 0
1, 18864, Note_on_c, 0, 72, 79
1, 18864, Note_on_c, 1, 63, 68
1, 18909, Note_on_c, 0, 72, 0
1, 18909, Note_on_c, 1, 63, 0
1, 18912, Note_on_c, 0, 72, 79
1, 18912, Note_on_c, 1, 56, 68
1, 18957, Note_on_c, 1, 56, 0
1, 18960, Note_on_c, 1, 63, 68
1, 19001, Note_on_c, 0, 72, 0
1, 19005, Note_on_c, 1, 63, 0
1, 19008, Note_on_c, 0, 72, 95
1, 19008, Note_on_c, 1, 56, 68
1, 19053, Note_on_c, 1, 56, 0
1, 19056, Note_on_c, 1, 63, 68
1, 19101, Note_on_c, 1, 63, 0
1, 19104, Note_on_c, 1, 60, 68
1, 19149, Note_on_c, 1, 60, 0
1, 19152, Note_on_c, 1, 63, 68
1, 19197, Note_on_c, 1, 63, 0
1, 19200, Note_on_c, 0, 72, 0
1, 19200, Note_on_c, 0, 79, 79
1, 19200, Note_on_c, 1, 56, 68
1, 19245, Note_on_c, 1, 56, 0
1, 19248, Note_on_c, 0, 79, 0
1, 19248, Note_on_c, 0, 80, 79
1, 19248, Note_on_c, 1, 63, 68
1, 19293, Note_on_c, 0, 80, 0
1, 19293, Note_on_c, 1, 63, 0
1, 19296, Note_on_c, 0, 84, 79
1, 19296, Note_on_c, 1, 48, 68
1, 19341, Note_on_c, 0, 84, 0
1, 19341, Note_on_c, 1, 48, 0
1, 19344, Note_on_c, 0, 80, 79
1, 19344, Note_on_c, 1, 56, 68
1, 19389, Note_on_c, 0, 80, 0
1, 19389, Note_on_c, 1, 56, 0
1, 19392, Note_on_c, 0, 79, 79
1, 19392, Note_on_c, 1, 51, 68
1, 19437, Note_on_c, 0, 79, 0
1, 19437, Note_on_c, 1, 51, 0
1, 19440, Note_on_c, 0, 77, 79
1, 19440, Note_on_c, 1, 56, 68
1, 19485, Note_on_c, 0, 77, 0
1, 19485, Note_on_c, 1, 56, 0
1, 19488, Note_on_c, 0, 75, 79
1, 19488, Note_on_c, 1, 48, 68
1, 19533, Note_on_c, 1, 48, 0
1, 19536, Note_on_c, 1, 56, 68
1, 19577, Note_on_c, 0, 75, 0
1, 19581, Note_on_c, 1, 56, 0
1, 19584, Note_on_c, 0, 75, 95
1, 19584, Note_on_c, 1, 48, 68
1, 19629, Note_on_c, 1, 48, 0
1, 19632, Note_on_c, 1, 56, 68
1, 19677, Note_on_c, 1, 56, 0
1, 19680, Note_on_c, 1, 51, 68
1, 19725, Note_on_c, 1, 51, 0
1, 19728, Note_on_c, 1, 56, 68
1, 19773, Note_on_c, 1, 56, 0
1, 19776, Note_on_c, 0, 75, 0
1, 19776, Note_on_c, 0, 73, 79
1, 19776, Note_on_c, 1, 48, 68
1, 19821, Note_on_c, 1, 48, 0
1, 19824, Note_on_c, 0, 73, 0
1, 19824, Note_on_c, 0, 72, 79
1, 19824, Note_on_c, 1, 56, 68
1, 19869, Note_on_c, 0, 72, 0
1, 19869, Note_on_c, 1, 56, 0
1, 19872, Note_on_c, 0, 72, 79
1, 19872, Note_on_c, 1, 49, 68
1, 19920, Note_on_c, 0, 72, 0
1, 19920, Note_on_c, 0, 70, 79
1, 19961, Note_on_c, 1, 49, 0
1, 19965, Note_on_c, 0, 70, 0
1, 19968, Note_on_c, 0, 68, 79
1, 20016, Note_on_c, 0, 68, 0
1, 20016, Note_on_c, 0, 70, 79
1, 20061, Note_on_c, 0, 70, 0
1, 20064, Note_on_c, 0, 67, 79
1, 20064, Note_on_c, 1, 51, 68
1, 20112, Note_on_c, 0, 67, 0
1, 20112, Note_on_c, 0, 70, 79
1, 20153, Note_on_c, 1, 51, 0
1, 20157, Note_on_c, 0, 70, 0
1, 20160, Note_on_c, 0, 68, 79
1, 20160, Note_on_c, 1, 56, 68
1, 20160, Note_on_c, 1, 44, 68
1, 20249, Note_on_c, 0, 68, 0
1, 20249, Note_on_c, 1, 56, 0
1, 20249, Note_on_c, 1, 44, 0
1, 20352, Note_on_c, 0, 77, 79
1, 20400, Note_on_c, 0, 77, 0
1, 20400, Note_on_c, 0, 75, 79
1, 20445, Note_on_c, 0, 75, 0
1, 20448, Note_on_c, 0, 75, 79
1, 20448, Note_on_c, 1, 63, 79
1, 20496, Note_on_c, 0, 75, 0
1, 20496, Note_on_c, 0, 73, 79
1, 20537, Note_on_c, 1, 63, 0
1, 20541, Note_on_c, 0, 73, 0
1, 20544, Note_on_c, 0, 73, 79
1, 20544, Note_on_c, 1, 67, 79
1, 20592, Note_on_c, 0, 73, 0
1, 20592, Note_on_c, 0, 75, 79
1, 20633, Note_on_c, 1, 67, 0
1, 20637, Note_on_c, 0, 75, 0
1, 20640, Note_on_c, 0, 72, 79
1, 20640, Note_on_c, 1, 68, 79
1, 20688, Note_on_c, 0, 72, 0
1, 20688, Note_on_c, 0, 73, 79
1, 20729, Note_on_c, 1, 68, 0
1, 20733, Note_on_c, 0, 73, 0
1, 20736, Note_on_c, 0, 70, 79
1, 20736, Note_on_c, 1, 67, 79
1, 20825, Note_on_c, 1, 67, 0
1, 20832, Note_on_c, 1, 63, 79
1, 20913, Note_on_c, 0, 70, 0
1, 20921, Note_on_c, 1, 63, 0
1, 20928, Note_on_c, 0, 72, 79
1, 20976, Note_on_c, 0, 72, 0
1, 20976, Note_on_c, 0, 70, 79
1, 21021, Note_on_c, 0, 70, 0
1, 21024, Note_on_c, 0, 70, 79
1, 21024, Note_on_c, 1, 53, 64
1, 21072, Note_on_c, 0, 70, 0
1, 21072, Note_on_c, 0, 68, 80
1, 21117, Note_on_c, 0, 68, 0
1, 21120, Note_on_c, 0, 67, 81
1, 21120, Note_on_c, 1, 62, 79
1, 21168, Note_on_c, 0, 67, 0
1, 21168, Note_on_c, 0, 68, 83
1, 21209, Note_on_c, 1, 62, 0
1, 21213, Note_on_c, 0, 68, 0
1, 21216, Note_on_c, 0, 67, 84
1, 21216, Note_on_c, 1, 62, 79
1, 21264, Note_on_c, 0, 67, 0
1, 21264, Note_on_c, 0, 68, 85
1, 21289, Note_on_c, 1, 53, 0
1, 21312, Note_on_c, 0, 72, 87
1, 21312, Note_on_c, 1, 51, 64
1, 21401, Note_on_c, 1, 62, 0
1, 21408, Note_on_c, 0, 72, 0
1, 21408, Note_on_c, 0, 68, 0
1, 21408, Note_on_c, 0, 70, 83
1, 21408, Note_on_c, 0, 67, 83
1, 21408, Note_on_c, 1, 63, 79
1, 21489, Note_on_c, 1, 51, 0
1, 21497, Note_on_c, 0, 70, 0
1, 21497, Note_on_c, 0, 67, 0
1, 21497, Note_on_c, 1, 63, 0
1, 21504, Note_on_c, 0, 72, 79
1, 21552, Note_on_c, 0, 72, 0
1, 21552, Note_on_c, 0, 73, 79
1, 21597, Note_on_c, 0, 73, 0
1, 21600, Note_on_c, 0, 77, 79
1, 21600, Note_on_c, 1, 56, 68
1, 21645, Note_on_c, 0, 77, 0
1, 21645, Note_on_c, 1, 56, 0
1, 21648, Note_on_c, 0, 75, 79
1, 21648, Note_on_c, 1, 63, 68
1, 21693, Note_on_c, 0, 75, 0
1, 21693, Note_on_c, 1, 63, 0
1, 21696, Note_on_c, 0, 73, 79
1, 21696, Note_on_c, 1, 60, 68
1, 21741, Note_on_c, 0, 73, 0
1, 21741, Note_on_c, 1, 60, 0
1, 21744, Note_on_c, 0, 72, 79
1, 21744, Note_on_c, 1, 63, 68
1, 21789, Note_on_c, 0, 72, 0
1, 21789, Note_on_c, 1, 63, 0
1, 21792, Note_on_c, 0, 72, 79
1, 21792, Note_on_c, 1, 56, 68
1, 21837, Note_on_c, 1, 56, 0
1, 21840, Note_on_c, 1, 63, 68
1, 21881, Note_on_c, 0, 72, 0
1, 21885, Note_on_c, 1, 63, 0
1, 21888, Note_on_c, 0, 72, 95
1, 21888, Note_on_c, 1, 56, 68
1, 21933, Note_on_c, 1, 56, 0
1, 21936, Note_on_c, 1, 63, 68
1, 21981, Note_on_c, 1, 63, 0
1, 21984, Note_on_c, 1, 60, 68
1, 22029, Note_on_c, 1, 60, 0
1, 22032, Note_on_c, 1, 63, 68
1, 22077, Note_on_c, 1, 63, 0
1, 22080, Note_on_c, 0, 72, 0
1, 22080, Note_on_c, 0, 79, 79
1, 22080, Note_on_c, 1, 56, 68
1, 22125, Note_on_c, 1, 56, 0
1, 22128, Note_on_c, 0, 79, 0
1, 22128, Note_on_c, 0, 80, 79
1, 22128, Note_on_c, 1, 63, 68
1, 22173, Note_on_c, 0, 80, 0
1, 22173, Note_on_c, 1, 63, 0
1, 22176, Note_on_c, 0, 84, 79
1, 22176, Note_on_c, 1, 48, 68
1, 22221, Note_on_c, 0, 84, 0
1, 22221, Note_on_c, 1, 48, 0
1, 22224, Note_on_c, 0, 80, 79
1, 22224, Note_on_c, 1, 56, 68
1, 22269, Note_on_c, 0, 80, 0
1, 22269, Note_on_c, 1, 56, 0
1, 22272, Note_on_c, 0, 79, 79
1, 22272, Note_on_c, 1, 51, 68
1, 22317, Note_on_c, 0, 79, 0
1, 22317, Note_on_c, 1, 51, 0
1, 22320, Note_on_c, 0, 77, 79
1, 22320, Note_on_c, 1, 56, 68
1, 22365, Note_on_c, 0, 77, 0
1, 22365, Note_on_c, 1, 56, 0
1, 22368, Note_on_c, 0, 75, 79
1, 22368, Note_on_c, 1, 48, 68
1, 22413, Note_on_c, 1, 48, 0
1, 22416, Note_on_c, 1, 56, 68
1, 22457, Note_on_c, 0, 75, 0
1, 22461, Note_on_c, 1, 56, 0
1, 22464, Note_on_c, 0, 75, 95
1, 22464, Note_on_c, 1, 48, 68
1, 22509, Note_on_c, 1, 48, 0
1, 22512, Note_on_c, 1, 56, 68
1, 22557, Note_on_c, 1, 56, 0
1, 22560, Note_on_c, 1, 51, 68
1, 22605, Note_on_c, 1, 51, 0
1, 22608, Note_on_c, 1, 56, 68
1, 22653, Note_on_c, 1, 56, 0
1, 22656, Note_on_c, 0, 75, 0
1, 22656, Note_on_c, 0, 73, 79
1, 22656, Note_on_c, 1, 48, 68
1, 22701, Note_on_c, 1, 48, 0
1, 22704, Note_on_c, 0, 73, 0
1, 22704, Note_on_c, 0, 72, 79
1, 22704, Note_on_c, 1, 56, 68
1, 22749, Note_on_c, 0, 72, 0
1, 22749, Note_on_c, 1, 56, 0
1, 22752, Note_on_c, 0, 72, 79
1, 22752, Note_on_c, 1, 49, 68
1, 22800, Note_on_c, 0, 72, 0
1, 22800, Note_on_c, 0, 70, 79
1, 22841, Note_on_c, 1, 49, 0
1, 22845, Note_on_c, 0, 70, 0
1, 22848, Note_on_c, 0, 68, 79
1, 22896, Note_on_c, 0, 68, 0
1, 22896, Note_on_c, 0, 70, 79
1, 22941, Note_on_c, 0, 70, 0
1, 22944, Note_on_c, 0, 67, 79
1, 22944, Note_on_c, 1, 51, 68
1, 22992, Note_on_c, 0, 67, 0
1, 22992, Note_on_c, 0, 70, 79
1, 23033, Note_on_c, 1, 51, 0
1, 23037, Note_on_c, 0, 70, 0
1, 23040, Note_on_c, 0, 68, 79
1, 23040, Note_on_c, 1, 56, 68
1, 23040, Note_on_c, 1, 44, 68
1, 23129, Note_on_c, 0, 68, 0
1, 23129, Note_on_c, 1, 56, 0
1, 23129, Note_on_c, 1, 44, 0
1, 23232, Note_on_c, 0, 75, 79
1, 23299, Note_on_c, 0, 75, 0
1, 23304, Note_on_c, 0, 75, 79
1, 23327, Note_on_c, 0, 75, 0
1, 23328, Note_on_c, 0, 75, 95
1, 23424, Note_on_c, 0, 75, 0
1, 23424, Note_on_c, 1, 60, 79
1, 23424, Note_on_c, 1, 56, 79
1, 23513, Note_on_c, 1, 60, 0
1, 23513, Note_on_c, 1, 56, 0
1, 23520, Note_on_c, 0, 80, 79
1, 23587, Note_on_c, 0, 80, 0
1, 23592, Note_on_c, 0, 80, 79
1, 23615, Note_on_c, 0, 80, 0
1, 23616, Note_on_c, 0, 80, 95
1, 23712, Note_on_c, 0, 80, 0
1, 23712, Note_on_c, 1, 63, 79
1, 23712, Note_on_c, 1, 60, 79
1, 23801, Note_on_c, 1, 63, 0
1, 23801, Note_on_c, 1, 60, 0
1, 23808, Note_on_c, 0, 72, 79
1, 23808, Note_on_c, 0, 68, 79
1, 23808, Note_on_c, 1, 65, 79
1, 23875, Note_on_c, 0, 72, 0
1, 23875, Note_on_c, 0, 68, 0
1, 23875, Note_on_c, 1, 65, 0
1, 23880, Note_on_c, 0, 72, 79
1, 23880, Note_on_c, 0, 68, 79
1, 23880, Note_on_c, 1, 65, 79
1, 23903, Note_on_c, 0, 72, 0
1, 23903, Note_on_c, 0, 68, 0
1, 23903, Note_on_c, 1, 65, 0
1, 23904, Note_on_c, 0, 72, 95
1, 23904, Note_on_c, 0, 68, 95
1, 23904, Note_on_c, 1, 65, 79
1, 23993, Note_on_c, 1, 65, 0
1, 24000, Note_on_c, 0, 72, 0
1, 24000, Note_on_c, 0, 68, 0
1, 24000, Note_on_c, 0, 73, 79
1, 24000, Note_on_c, 0, 70, 79
1, 24000, Note_on_c, 1, 61, 79
1, 24039, Note_on_c, 0, 73, 0
1, 24039, Note_on_c, 0, 70, 0
1, 24089, Note_on_c, 1, 61, 0
1, 24096, Note_on_c, 0, 77, 79
1, 24096, Note_on_c, 0, 73, 79
1, 24096, Note_on_c, 1, 58, 79
1, 24135, Note_on_c, 0, 77, 0
1, 24135, Note_on_c, 0, 73, 0
1, 24185, Note_on_c, 1, 58, 0
1, 24192, Note_on_c, 0, 70, 79
1, 24192, Note_on_c, 0, 67, 79
1, 24192, Note_on_c, 1, 63, 79
1, 24369, Note_on_c, 0, 70, 0
1, 24369, Note_on_c, 0, 67, 0
1, 24369, Note_on_c, 1, 63, 0
1, 24384, Note_on_c, 0, 63, 79
1, 24384, Note_on_c, 1, 61, 79
1, 24451, Note_on_c, 0, 63, 0
1, 24456, Note_on_c, 0, 63, 79
1, 24473, Note_on_c, 1, 61, 0
1, 24479, Note_on_c, 0, 63, 0
1, 24480, Note_on_c, 0, 68, 79
1, 24480, Note_on_c, 1, 63, 79
1, 24480, Note_on_c, 1, 60, 79
1, 24519, Note_on_c, 0, 68, 0
1, 24569, Note_on_c, 1, 63, 0
1, 24569, Note_on_c, 1, 60, 0
1, 24576, Note_on_c, 0, 68, 79
1, 24576, Note_on_c, 1, 61, 79
1, 24576, Note_on_c, 1, 58, 79
1, 24615, Note_on_c, 0, 68, 0
1, 24665, Note_on_c, 1, 61, 0
1, 24665, Note_on_c, 1, 58, 0
1, 24672, Note_on_c, 0, 68, 79
1, 24672, Note_on_c, 1, 60, 79
1, 24672, Note_on_c, 1, 56, 79
1, 24711, Note_on_c, 0, 68, 0
1, 24761, Note_on_c, 1, 60, 0
1, 24761, Note_on_c, 1, 56, 0
1, 24768, Note_on_c, 0, 70, 79
1, 24768, Note_on_c, 1, 58, 79
1, 24768, Note_on_c, 1, 55, 79
1, 24857, Note_on_c, 0, 70, 0
1, 24857, Note_on_c, 1, 58, 0
1, 24857, Note_on_c, 1, 55, 0
1, 24864, Note_on_c, 1, 56, 79
1, 24864, Note_on_c, 1, 53, 79
1, 24953, Note_on_c, 1, 56, 0
1, 24953, Note_on_c, 1, 53, 0
1, 24960, Note_on_c, 0, 70, 79
1, 24960, Note_on_c, 1, 55, 79
1, 24960, Note_on_c, 1, 51, 79
1, 25027, Note_on_c, 0, 70, 0
1, 25032, Note_on_c, 0, 70, 79
1, 25049, Note_on_c, 1, 55, 0
1, 25049, Note_on_c, 1, 51, 0
1, 25055, Note_on_c, 0, 70, 0
1, 25056, Note_on_c, 0, 72, 79
1, 25056, Note_on_c, 1, 56, 79
1, 25095, Note_on_c, 0, 72, 0
1, 25145, Note_on_c, 1, 56, 0
1, 25152, Note_on_c, 0, 72, 81
1, 25152, Note_on_c, 1, 53, 79
1, 25191, Note_on_c, 0, 72, 0
1, 25241, Note_on_c, 1, 53, 0
1, 25248, Note_on_c, 0, 74, 84
1, 25248, Note_on_c, 0, 68, 84
1, 25248, Note_on_c, 1, 58, 79
1, 25337, Note_on_c, 0, 74, 0
1, 25337, Note_on_c, 0, 68, 0
1, 25337, Note_on_c, 1, 58, 0
1, 25344, Note_on_c, 0, 75, 87
1, 25344, Note_on_c, 0, 67, 87
1, 25344, Note_on_c, 1, 51, 79
1, 25433, Note_on_c, 0, 75, 0
1, 25433, Note_on_c, 0, 67, 0
1, 25433, Note_on_c, 1, 51, 0
1, 25536, Note_on_c, 0, 75, 79
1, 25603, Note_on_c, 0, 75, 0
1, 25608, Note_on_c, 0, 75, 79
1, 25631, Note_on_c, 0, 75, 0
1, 25632, Note_on_c, 0, 75, 95
1, 25728, Note_on_c, 0, 75, 0
1, 25728, Note_on_c, 1, 60, 79
1, 25728, Note_on_c, 1, 56, 79
1, 25817, Note_on_c, 1, 60, 0
1, 25817, Note_on_c, 1, 56, 0
1, 25824, Note_on_c, 0, 80, 79
1, 25891, Note_on_c, 0, 80, 0
1, 25896, Note_on_c, 0, 80, 79
1, 25919, Note_on_c, 0, 80, 0
1, 25920, Note_on_c, 0, 80, 95
1, 26016, Note_on_c, 0, 80, 0
1, 26016, Note_on_c, 1, 63, 79
1, 26016, Note_on_c, 1, 60, 79
1, 26105, Note_on_c, 1, 63, 0
1, 26105, Note_on_c, 1, 60, 0
1, 26112, Note_on_c, 0, 72, 79
1, 26112, Note_on_c, 0, 68, 79
1, 26112, Note_on_c, 1, 65, 79
1, 26179, Note_on_c, 0, 72, 0
1, 26179, Note_on_c, 0, 68, 0
1, 26179, Note_on_c, 1, 65, 0
1, 26184, Note_on_c, 0, 72, 79
1, 26184, Note_on_c, 0, 68, 79
1, 26184, Note_on_c, 1, 65, 79
1, 26207, Note_on_c, 0, 72, 0
1, 26207, Note_on_c, 0, 68, 0
1, 26207, Note_on_c, 1, 65, 0
1, 26208, Note_on_c, 0, 72, 95
1, 26208, Note_on_c, 0, 68, 95
1, 26208, Note_on_c, 1, 65, 79
1, 26297, Note_on_c, 1, 65, 0
1, 26304, Note_on_c, 0, 72, 0
1, 26304, Note_on_c, 0, 68, 0
1, 26304, Note_on_c, 0, 73, 79
1, 26304, Note_on_c, 0, 70, 79
1, 26304, Note_on_c, 1, 61, 79
1, 26343, Note_on_c, 0, 73, 0
1, 26343, Note_on_c, 0, 70, 0
1, 26393, Note_on_c, 1, 61, 0
1, 26400, Note_on_c, 0, 77, 79
1, 26400, Note_on_c, 0, 73, 79
1, 26400, Note_on_c, 1, 58, 79
1, 26439, Note_on_c, 0, 77, 0
1, 26439, Note_on_c, 0, 73, 0
1, 26489, Note_on_c, 1, 58, 0
1, 26496, Note_on_c, 0, 70, 79
1, 26496, Note_on_c, 0, 67, 79
1, 26496, Note_on_c, 1, 63, 79
1, 26673, Note_on_c, 0, 70, 0
1, 26673, Note_on_c, 0, 67, 0
1, 26673, Note_on_c, 1, 63, 0
1, 26688, Note_on_c, 0, 63, 79
1, 26688, Note_on_c, 1, 61, 79
1, 26755, Note_on_c, 0, 63, 0
1, 26760, Note_on_c, 0, 63, 79
1, 26777, Note_on_c, 1, 61, 0
1, 26783, Note_on_c, 0, 63, 0
1, 26784, Note_on_c, 0, 68, 79
1, 26784, Note_on_c, 1, 63, 79
1, 26784, Note_on_c, 1, 60, 79
1, 26823, Note_on_c, 0, 68, 0
1, 26873, Note_on_c, 1, 63, 0
1, 26873, Note_on_c, 1, 60, 0
1, 26880, Note_on_c, 0, 68, 79
1, 26880, Note_on_c, 1, 61, 79
1, 26880, Note_on_c, 1, 58, 79
1, 26919, Note_on_c, 0, 68, 0
1, 26969, Note_on_c, 1, 61, 0
1, 26969, Note_on_c, 1, 58, 0
1, 26976, Note_on_c, 0, 68, 79
1, 26976, Note_on_c, 1, 60, 79
1, 26976, Note_on_c, 1, 56, 79
1, 27015, Note_on_c, 0, 68, 0
1, 27065, Note_on_c, 1, 60, 0
1, 27065, Note_on_c, 1, 56, 0
1, 27072, Note_on_c, 0, 70, 79
1, 27072, Note_on_c, 1, 58, 79
1, 27072, Note_on_c, 1, 55, 79
1, 27161, Note_on_c, 0, 70, 0
1, 27161, Note_on_c, 1, 58, 0
1, 27161, Note_on_c, 1, 55, 0
1, 27168, Note_on_c, 1, 56, 79
1, 27168, Note_on_c, 1, 53, 79
1, 27257, Note_on_c, 1, 56, 0
1, 27257, Note_on_c, 1, 53, 0
1, 27264, Note_on_c, 0, 70, 79
1, 27264, Note_on_c, 1, 55, 79
1, 27264, Note_on_c, 1, 51, 79
1, 27331, Note_on_c, 0, 70, 0
1, 27336, Note_on_c, 0, 70, 79
1, 27353, Note_on_c, 1, 55, 0
1, 27353, Note_on_c, 1, 51, 0
1, 27359, Note_on_c, 0, 70, 0
1, 27360, Note_on_c, 0, 72, 79
1, 27360, Note_on_c, 1, 56, 79
1, 27399, Note_on_c, 0, 72, 0
1, 27449, Note_on_c, 1, 56, 0
1, 27456, Note_on_c, 0, 72, 81
1, 27456, Note_on_c, 1, 53, 79
1, 27495, Note_on_c, 0, 72, 0
1, 27545, Note_on_c, 1, 53, 0
1, 27552, Note_on_c, 0, 74, 84
1, 27552, Note_on_c, 0, 68, 84
1, 27552, Note_on_c, 1, 58, 79
1, 27641, Note_on_c, 0, 74, 0
1, 27641, Note_on_c, 0, 68, 0
1, 27641, Note_on_c, 1, 58, 0
1, 27648, Note_on_c, 0, 75, 87
1, 27648, Note_on_c, 0, 67, 87
1, 27648, Note_on_c, 1, 51, 79
1, 27737, Note_on_c, 0, 75, 0
1, 27737, Note_on_c, 0, 67, 0
1, 27737, Note_on_c, 1, 51, 0
1, 27840, Note_on_c, 0, 75, 87
1, 27907, Note_on_c, 0, 75, 0
1, 27912, Note_on_c, 0, 75, 79
1, 27935, Note_on_c, 0, 75, 0
1, 27936, Note_on_c, 0, 75, 95
1, 28032, Note_on_c, 0, 75, 0
1, 28032, Note_on_c, 0, 75, 79
1, 28121, Note_on_c, 0, 75, 0
1, 28128, Note_on_c, 0, 77, 79
1, 28128, Note_on_c, 1, 75, 79
1, 28128, Note_on_c, 1, 69, 79
1, 28195, Note_on_c, 0, 77, 0
1, 28200, Note_on_c, 0, 77, 79
1, 28217, Note_on_c, 1, 69, 0
1, 28223, Note_on_c, 0, 77, 0
1, 28224, Note_on_c, 0, 77, 95
1, 28224, Note_on_c, 1, 70, 79
1, 28313, Note_on_c, 1, 75, 0
1, 28320, Note_on_c, 0, 77, 0
1, 28320, Note_on_c, 0, 82, 79
1, 28320, Note_on_c, 1, 74, 79
1, 28401, Note_on_c, 1, 70, 0
1, 28409, Note_on_c, 0, 82, 0
1, 28409, Note_on_c, 1, 74, 0
1, 28416, Note_on_c, 0, 75, 79
1, 28416, Note_on_c, 1, 73, 79
1, 28416, Note_on_c, 1, 67, 79
1, 28483, Note_on_c, 0, 75, 0
1, 28488, Note_on_c, 0, 75, 79
1, 28505, Note_on_c, 1, 67, 0
1, 28511, Note_on_c, 0, 75, 0
1, 28512, Note_on_c, 0, 75, 79
1, 28512, Note_on_c, 1, 68, 79
1, 28601, Note_on_c, 1, 73, 0
1, 28608, Note_on_c, 0, 75, 0
1, 28608, Note_on_c, 0, 80, 79
1, 28608, Note_on_c, 1, 72, 79
1, 28689, Note_on_c, 1, 68, 0
1, 28697, Note_on_c, 0, 80, 0
1, 28697, Note_on_c, 1, 72, 0
1, 28704, Note_on_c, 0, 72, 79
1, 28771, Note_on_c, 0, 72, 0
1, 28776, Note_on_c, 0, 72, 79
1, 28799, Note_on_c, 0, 72, 0
1, 28800, Note_on_c, 0, 72, 95
1, 28800, Note_on_c, 1, 68, 79
1, 28800, Note_on_c, 1, 65, 79
1, 28896, Note_on_c, 0, 72, 0
1, 28896, Note_on_c, 0, 73, 81
1, 28985, Note_on_c, 0, 73, 0
1, 28992, Note_on_c, 0, 74, 84
1, 29065, Note_on_c, 1, 68, 0
1, 29065, Note_on_c, 1, 65, 0
1, 29081, Note_on_c, 0, 74, 0
1, 29088, Note_on_c, 0, 75, 87
1, 29088, Note_on_c, 1, 67, 79
1, 29088, Note_on_c, 1, 63, 79
1, 29177, Note_on_c, 0, 75, 0
1, 29177, Note_on_c, 1, 67, 0
1, 29177, Note_on_c, 1, 63, 0
1, 29184, Note_on_c, 0, 75, 87
1, 29273, Note_on_c, 0, 75, 0
1, 29280, Note_on_c, 0, 77, 87
1, 29280, Note_on_c, 1, 68, 79
1, 29280, Note_on_c, 1, 62, 79
1, 29280, Note_on_c, 1, 58, 79
1, 29347, Note_on_c, 0, 77, 0
1, 29352, Note_on_c, 0, 79, 87
1, 29375, Note_on_c, 0, 79, 0
1, 29376, Note_on_c, 0, 75, 87
1, 29376, Note_on_c, 1, 68, 0
1, 29376, Note_on_c, 1, 62, 0
1, 29376, Note_on_c, 1, 58, 0
1, 29376, Note_on_c, 1, 67, 79
1, 29376, Note_on_c, 1, 63, 79
1, 29465, Note_on_c, 0, 75, 0
1, 29465, Note_on_c, 1, 67, 0
1, 29465, Note_on_c, 1, 63, 0
1, 29472, Note_on_c, 0, 75, 87
1, 29561, Note_on_c, 0, 75, 0
1, 29568, Note_on_c, 0, 82, 87
1, 29568, Note_on_c, 1, 68, 79
1, 29568, Note_on_c, 1, 62, 79
1, 29568, Note_on_c, 1, 58, 79
1, 29635, Note_on_c, 0, 82, 0
1, 29640, Note_on_c, 0, 82, 87
1, 29664, Note_on_c, 0, 82, 0
1, 29664, Note_on_c, 0, 75, 87
1, 29664, Note_on_c, 1, 68, 0
1, 29664, Note_on_c, 1, 62, 0
1, 29664, Note_on_c, 1, 58, 0
1, 29664, Note_on_c, 1, 67, 79
1, 29664, Note_on_c, 1, 63, 79
1, 29753, Note_on_c, 0, 75, 0
1, 29753, Note_on_c, 1, 67, 0
1, 29753, Note_on_c, 1, 63, 0
1, 29760, Note_on_c, 0, 75, 87
1, 29849, Note_on_c, 0, 75, 0
1, 29856, Note_on_c, 0, 82, 87
1, 29856, Note_on_c, 1, 68, 79
1, 29856, Note_on_c, 1, 62, 79
1, 29856, Note_on_c, 1, 58, 79
1, 29923, Note_on_c, 0, 82, 0
1, 29928, Note_on_c, 0, 82, 87
1, 29945, Note_on_c, 1, 68, 0
1, 29945, Note_on_c, 1, 62, 0
1, 29945, Note_on_c, 1, 58, 0
1, 29951, Note_on_c, 0, 82, 0
1, 29952, Note_on_c, 0, 75, 87
1, 29952, Note_on_c, 1, 67, 79
1, 29952, Note_on_c, 1, 63, 79
1, 30041, Note_on_c, 0, 75, 0
1, 30041, Note_on_c, 1, 67, 0
1, 30041, Note_on_c, 1, 63, 0
1, 30144, Note_on_c, 0, 63, 79
1, 30144, Note_on_c, 0, 60, 79
1, 30211, Note_on_c, 0, 63, 0
1, 30211, Note_on_c, 0, 60, 0
1, 30216, Note_on_c, 0, 63, 79
1, 30216, Note_on_c, 0, 60, 79
1, 30239, Note_on_c, 0, 63, 0
1, 30239, Note_on_c, 0, 60, 0
1, 30240, Note_on_c, 0, 63, 95
1, 30240, Note_on_c, 0, 60, 95
1, 30336, Note_on_c, 0, 63, 0
1, 30336, Note_on_c, 0, 60, 0
1, 30336, Note_on_c, 1, 56, 79
1, 30336, Note_on_c, 1, 44, 79
1, 30425, Note_on_c, 1, 56, 0
1, 30425, Note_on_c, 1, 44, 0
1, 30432, Note_on_c, 0, 84, 79
1, 30432, Note_on_c, 0, 80, 79
1, 30499, Note_on_c, 0, 84, 0
1, 30499, Note_on_c, 0, 80, 0
1, 30504, Note_on_c, 0, 84, 79
1, 30504, Note_on_c, 0, 80, 79
1, 30527, Note_on_c, 0, 84, 0
1, 30527, Note_on_c, 0, 80, 0
1, 30528, Note_on_c, 0, 84, 95
1, 30528, Note_on_c, 0, 80, 95
1, 30624, Note_on_c, 0, 84, 0
1, 30624, Note_on_c, 0, 80, 0
1, 30720, Note_on_c, 0, 72, 79
1, 30720, Note_on_c, 0, 69, 79
1, 30720, Note_on_c, 1, 66, 79
1, 30720, Note_on_c, 1, 63, 79
1, 30787, Note_on_c, 0, 72, 0
1, 30787, Note_on_c, 0, 69, 0
1, 30787, Note_on_c, 1, 66, 0
1, 30787, Note_on_c, 1, 63, 0
1, 30792, Note_on_c, 0, 72, 79
1, 30792, Note_on_c, 0, 69, 79
1, 30792, Note_on_c, 1, 66, 79
1, 30792, Note_on_c, 1, 63, 79
1, 30815, Note_on_c, 0, 72, 0
1, 30815, Note_on_c, 0, 69, 0
1, 30815, Note_on_c, 1, 66, 0
1, 30815, Note_on_c, 1, 63, 0
1, 30816, Note_on_c, 0, 72, 95
1, 30816, Note_on_c, 0, 69, 95
1, 30816, Note_on_c, 1, 66, 79
1, 30816, Note_on_c, 1, 63, 79
1, 30912, Note_on_c, 0, 72, 0
1, 30912, Note_on_c, 0, 69, 0
1, 30912, Note_on_c, 0, 73, 79
1, 30912, Note_on_c, 0, 70, 79
1, 30912, Note_on_c, 1, 66, 0
1, 30912, Note_on_c, 1, 63, 0
1, 30912, Note_on_c, 1, 65, 79
1, 30912, Note_on_c, 1, 61, 79
1, 31001, Note_on_c, 0, 73, 0
1, 31001, Note_on_c, 0, 70, 0
1, 31001, Note_on_c, 1, 65, 0
1, 31001, Note_on_c, 1, 61, 0
1, 31008, Note_on_c, 0, 70, 79
1, 31008, Note_on_c, 0, 67, 79
1, 31008, Note_on_c, 1, 63, 79
1, 31008, Note_on_c, 1, 61, 79
1, 31075, Note_on_c, 0, 70, 0
1, 31075, Note_on_c, 0, 67, 0
1, 31075, Note_on_c, 1, 63, 0
1, 31075, Note_on_c, 1, 61, 0
1, 31080, Note_on_c, 0, 70, 79
1, 31080, Note_on_c, 0, 67, 79
1, 31080, Note_on_c, 1, 63, 79
1, 31080, Note_on_c, 1, 61, 79
1, 31103, Note_on_c, 0, 70, 0
1, 31103, Note_on_c, 0, 67, 0
1, 31103, Note_on_c, 1, 63, 0
1, 31103, Note_on_c, 1, 61, 0
1, 31104, Note_on_c, 0, 70, 95
1, 31104, Note_on_c, 0, 67, 95
1, 31104, Note_on_c, 1, 63, 79
1, 31104, Note_on_c, 1, 61, 79
1, 31200, Note_on_c, 0, 70, 0
1, 31200, Note_on_c, 0, 67, 0
1, 31200, Note_on_c, 0, 72, 79
1, 31200, Note_on_c, 0, 68, 79
1, 31200, Note_on_c, 1, 61, 0
1, 31200, Note_on_c, 1, 60, 79
1, 31281, Note_on_c, 1, 63, 0
1, 31289, Note_on_c, 0, 72, 0
1, 31289, Note_on_c, 0, 68, 0
1, 31289, Note_on_c, 1, 60, 0
1, 31296, Note_on_c, 0, 75, 79
1, 31296, Note_on_c, 0, 72, 79
1, 31363, Note_on_c, 0, 75, 0
1, 31363, Note_on_c, 0, 72, 0
1, 31368, Note_on_c, 0, 75, 79
1, 31368, Note_on_c, 0, 72, 79
1, 31391, Note_on_c, 0, 75, 0
1, 31391, Note_on_c, 0, 72, 0
1, 31392, Note_on_c, 0, 75, 95
1, 31392, Note_on_c, 0, 72, 95
1, 31488, Note_on_c, 0, 75, 0
1, 31488, Note_on_c, 0, 72, 0
1, 31488, Note_on_c, 0, 77, 79
1, 31488, Note_on_c, 0, 73, 79
1, 31577, Note_on_c, 0, 77, 0
1, 31577, Note_on_c, 0, 73, 0
1, 31584, Note_on_c, 0, 67, 79
1, 31584, Note_on_c, 0, 61, 79
1, 31584, Note_on_c, 1, 58, 79
1, 31584, Note_on_c, 1, 51, 79
1, 31623, Note_on_c, 0, 67, 0
1, 31623, Note_on_c, 0, 61, 0
1, 31673, Note_on_c, 1, 58, 0
1, 31673, Note_on_c, 1, 51, 0
1, 31680, Note_on_c, 0, 68, 79
1, 31680, Note_on_c, 0, 60, 79
1, 31680, Note_on_c, 1, 56, 79
1, 31680, Note_on_c, 1, 44, 79
1, 31769, Note_on_c, 0, 68, 0
1, 31769, Note_on_c, 0, 60, 0
1, 31769, Note_on_c, 1, 56, 0
1, 31769, Note_on_c, 1, 44, 0
1, 31872, Note_on_c, 0, 75, 87
1, 31939, Note_on_c, 0, 75, 0
1, 31944, Note_on_c, 0, 75, 79
1, 31967, Note_on_c, 0, 75, 0
1, 31968, Note_on_c, 0, 75, 95
1, 32064, Note_on_c, 0, 75, 0
1, 32064, Note_on_c, 0, 75, 79
1, 32153, Note_on_c, 0, 75, 0
1, 32160, Note_on_c, 0, 77, 79
1, 32160, Note_on_c, 1, 75, 79
1, 32160, Note_on_c, 1, 69, 79
1, 32227, Note_on_c, 0, 77, 0
1, 32232, Note_on_c, 0, 77, 79
1, 32249, Note_on_c, 1, 69, 0
1, 32255, Note_on_c, 0, 77, 0
1, 32256, Note_on_c, 0, 77, 95
1, 32256, Note_on_c, 1, 70, 79
1, 32345, Note_on_c, 1, 75, 0
1, 32352, Note_on_c, 0, 77, 0
1, 32352, Note_on_c, 0, 82, 79
1, 32352, Note_on_c, 1, 74, 79
1, 32433, Note_on_c, 1, 70, 0
1, 32441, Note_on_c, 0, 82, 0
1, 32441, Note_on_c, 1, 74, 0
1, 32448, Note_on_c, 0, 75, 79
1, 32448, Note_on_c, 1, 73, 79
1, 32448, Note_on_c, 1, 67, 79
1, 32515, Note_on_c, 0, 75, 0
1, 32520, Note_on_c, 0, 75, 79
1, 32537, Note_on_c, 1, 67, 0
1, 32543, Note_on_c, 0, 75, 0
1, 32544, Note_on_c, 0, 75, 79
1, 32544, Note_on_c, 1, 68, 79
1, 32633, Note_on_c, 1, 73, 0
1, 32640, Note_on_c, 0, 75, 0
1, 32640, Note_on_c, 0, 80, 79
1, 32640, Note_on_c, 1, 72, 79
1, 32721, Note_on_c, 1, 68, 0
1, 32729, Note_on_c, 0, 80, 0
1, 32729, Note_on_c, 1, 72, 0
1, 32736, Note_on_c, 0, 72, 79
1, 32803, Note_on_c, 0, 72, 0
1, 32808, Note_on_c, 0, 72, 79
1, 32831, Note_on_c, 0, 72, 0
1, 32832, Note_on_c, 0, 72, 95
1, 32832, Note_on_c, 1, 68, 79
1, 32832, Note_on_c, 1, 65, 79
1, 32928, Note_on_c, 0, 72, 0
1, 32928, Note_on_c, 0, 73, 81
1, 33017, Note_on_c, 0, 73, 0
1, 33024, Note_on_c, 0, 74, 84
1, 33097, Note_on_c, 1, 68, 0
1, 33097, Note_on_c, 1, 65, 0
1, 33113, Note_on_c, 0, 74, 0
1, 33120, Note_on_c, 0, 75, 87
1, 33120, Note_on_c, 1, 67, 79
1, 33120, Note_on_c, 1, 63, 79
1, 33209, Note_on_c, 0, 75, 0
1, 33209, Note_on_c, 1, 67, 0
1, 33209, Note_on_c, 1, 63, 0
1, 33216, Note_on_c, 0, 75, 87
1, 33305, Note_on_c, 0, 75, 0
1, 33312, Note_on_c, 0, 77, 87
1, 33312, Note_on_c, 1, 68, 79
1, 33312, Note_on_c, 1, 62, 79
1, 33312, Note_on_c, 1, 58, 79
1, 33379, Note_on_c, 0, 77, 0
1, 33384, Note_on_c, 0, 79, 87
1, 33407, Note_on_c, 0, 79, 0
1, 33408, Note_on_c, 0, 75, 87
1, 33408, Note_on_c, 1, 68, 0
1, 33408, Note_on_c, 1, 62, 0
1, 33408, Note_on_c, 1, 58, 0
1, 33408, Note_on_c, 1, 67, 79
1, 33408, Note_on_c, 1, 63, 79
1, 33497, Note_on_c, 0, 75, 0
1, 33497, Note_on_c, 1, 67, 0
1, 33497, Note_on_c, 1, 63, 0
1, 33504, Note_on_c, 0, 75, 87
1, 33593, Note_on_c, 0, 75, 0
1, 33600, Note_on_c, 0, 82, 87
1, 33600, Note_on_c, 1, 68, 79
1, 33600, Note_on_c, 1, 62, 79
1, 33600, Note_on_c, 1, 58, 79
1, 33667, Note_on_c, 0, 82, 0
1, 33672, Note_on_c, 0, 82, 87
1, 33696, Note_on_c, 0, 82, 0
1, 33696, Note_on_c, 0, 75, 87
1, 33696, Note_on_c, 1, 68, 0
1, 33696, Note_on_c, 1, 62, 0
1, 33696, Note_on_c, 1, 58, 0
1, 33696, Note_on_c, 1, 67, 79
1, 33696, Note_on_c, 1, 63, 79
1, 33785, Note_on_c, 0, 75, 0
1, 33785, Note_on_c, 1, 67, 0
1, 33785, Note_on_c, 1, 63, 0
1, 33792, Note_on_c, 0, 75, 87
1, 33881, Note_on_c, 0, 75, 0
1, 33888, Note_on_c, 0, 82, 87
1, 33888, Note_on_c, 1, 68, 79
1, 33888, Note_on_c, 1, 62, 79
1, 33888, Note_on_c, 1, 58, 79
1, 33955, Note_on_c, 0, 82, 0
1, 33960, Note_on_c, 0, 82, 87
1, 33977, Note_on_c, 1, 68, 0
1, 33977, Note_on_c, 1, 62, 0
1, 33977, Note_on_c, 1, 58, 0
1, 33983, Note_on_c, 0, 82, 0
1, 33984, Note_on_c, 0, 75, 87
1, 33984, Note_on_c, 1, 67, 79
1, 33984, Note_on_c, 1, 63, 79
1, 34073, Note_on_c, 0, 75, 0
1, 34073, Note_on_c, 1, 67, 0
1, 34073, Note_on_c, 1, 63, 0
1, 34176, Note_on_c, 0, 63, 79
1, 34176, Note_on_c, 0, 60, 79
1, 34243, Note_on_c, 0, 63, 0
1, 34243, Note_on_c, 0, 60, 0
1, 34248, Note_on_c, 0, 63, 79
1, 34248, Note_on_c, 0, 60, 79
1, 34271, Note_on_c, 0, 63, 0
1, 34271, Note_on_c, 0, 60, 0
1, 34272, Note_on_c, 0, 63, 95
1, 34272, Note_on_c, 0, 60, 95
1, 34368, Note_on_c, 0, 63, 0
1, 34368, Note_on_c, 0, 60, 0
1, 34368, Note_on_c, 1, 56, 79
1, 34368, Note_on_c, 1, 44, 79
1, 34457, Note_on_c, 1, 56, 0
1, 34457, Note_on_c, 1, 44, 0
1, 34464, Note_on_c, 0, 84, 79
1, 34464, Note_on_c, 0, 80, 79
1, 34531, Note_on_c, 0, 84, 0
1, 34531, Note_on_c, 0, 80, 0
1, 34536, Note_on_c, 0, 84, 79
1, 34536, Note_on_c, 0, 80, 79
1, 34559, Note_on_c, 0, 84, 0
1, 34559, Note_on_c, 0, 80, 0
1, 34560, Note_on_c, 0, 84, 95
1, 34560, Note_on_c, 0, 80, 95
1, 34656, Note_on_c, 0, 84, 0
1, 34656, Note_on_c, 0, 80, 0
1, 34752, Note_on_c, 0, 72, 79
1, 34752, Note_on_c, 0, 69, 79
1, 34752, Note_on_c, 1, 66, 79
1, 34752, Note_on_c, 1, 63, 79
1, 34819, Note_on_c, 0, 72, 0
1, 34819, Note_on_c, 0, 69, 0
1, 34819, Note_on_c, 1, 66, 0
1, 34819, Note_on_c, 1, 63, 0
1, 34824, Note_on_c, 0, 72, 79
1, 34824, Note_on_c, 0, 69, 79
1, 34824, Note_on_c, 1, 66, 79
1, 34824, Note_on_c, 1, 63, 79
1, 34847, Note_on_c, 0, 72, 0
1, 34847, Note_on_c, 0, 69, 0
1, 34847, Note_on_c, 1, 66, 0
1, 34847, Note_on_c, 1, 63, 0
1, 34848, Note_on_c, 0, 72, 95
1, 34848, Note_on_c, 0, 69, 95
1, 34848, Note_on_c, 1, 66, 79
1, 34848, Note_on_c, 1, 63, 79
1, 34944, Note_on_c, 0, 72, 0
1, 34944, Note_on_c, 0, 69, 0
1, 34944, Note_on_c, 0, 73, 79
1, 34944, Note_on_c, 0, 70, 79
1, 34944, Note_on_c, 1, 66, 0
1, 34944, Note_on_c, 1, 63, 0
1, 34944, Note_on_c, 1, 65, 79
1, 34944, Note_on_c, 1, 61, 79
1, 35033, Note_on_c, 0, 73, 0
1, 35033, Note_on_c, 0, 70, 0
1, 35033, Note_on_c, 1, 65, 0
1, 35033, Note_on_c, 1, 61, 0
1, 35040, Note_on_c, 0, 70, 79
1, 35040, Note_on_c, 0, 67, 79
1, 35040, Note_on_c, 1, 63, 79
1, 35040, Note_on_c, 1, 61, 79
1, 35107, Note_on_c, 0, 70, 0
1, 35107, Note_on_c, 0, 67, 0
1, 35107, Note_on_c, 1, 63, 0
1, 35107, Note_on_c, 1, 61, 0
1, 35112, Note_on_c, 0, 70, 79
1, 35112, Note_on_c, 0, 67, 79
1, 35112, Note_on_c, 1, 63, 79
1, 35112, Note_on_c, 1, 61, 79
1, 35135, Note_on_c, 0, 70, 0
1, 35135, Note_on_c, 0, 67, 0
1, 35135, Note_on_c, 1, 63, 0
1, 35135, Note_on_c, 1, 61, 0
1, 35136, Note_on_c, 0, 70, 95
1, 35136, Note_on_c, 0, 67, 95
1, 35136, Note_on_c, 1, 63, 79
1, 35136, Note_on_c, 1, 61, 79
1, 35232, Note_on_c, 0, 70, 0
1, 35232, Note_on_c, 0, 67, 0
1, 35232, Note_on_c, 0, 72, 79
1, 35232, Note_on_c, 0, 68, 79
1, 35232, Note_on_c, 1, 61, 0
1, 35232, Note_on_c, 1, 60, 79
1, 35313, Note_on_c, 1, 63, 0
1, 35321, Note_on_c, 0, 72, 0
1, 35321, Note_on_c, 0, 68, 0
1, 35321, Note_on_c, 1, 60, 0
1, 35328, Note_on_c, 0, 75, 79
1, 35328, Note_on_c, 0, 72, 79
1, 35395, Note_on_c, 0, 75, 0
1, 35395, Note_on_c, 0, 72, 0
1, 35400, Note_on_c, 0, 75, 79
1, 35400, Note_on_c, 0, 72, 79
1, 35423, Note_on_c, 0, 75, 0
1, 35423, Note_on_c, 0, 72, 0
1, 35424, Note_on_c, 0, 75, 95
1, 35424, Note_on_c, 0, 72, 95
1, 35520, Note_on_c, 0, 75, 0
1, 35520, Note_on_c, 0, 72, 0
1, 35520, Note_on_c, 0, 77, 79
1, 35520, Note_on_c, 0, 73, 79
1, 35609, Note_on_c, 0, 77, 0
1, 35609, Note_on_c, 0, 73, 0
1, 35616, Note_on_c, 0, 67, 79
1, 35616, Note_on_c, 0, 61, 79
1, 35616, Note_on_c, 1, 58, 79
1, 35616, Note_on_c, 1, 51, 79
1, 35655, Note_on_c, 0, 67, 0
1, 35655, Note_on_c, 0, 61, 0
1, 35705, Note_on_c, 1, 58, 0
1, 35705, Note_on_c, 1, 51, 0
1, 35712, Note_on_c, 0, 68, 79
1, 35712, Note_on_c, 0, 60, 79
1, 35712, Note_on_c, 1, 56, 79
1, 35712, Note_on_c, 1, 44, 79
1, 35801, Note_on_c, 0, 68, 0
1, 35801, Note_on_c, 0, 60, 0
1, 35801, Note_on_c, 1, 56, 0
1, 35801, Note_on_c, 1, 44, 0
1, 35904, Note_on_c, 1, 56, 4
1, 35904, Note_on_c, 1, 44, 4
1, 35993, Note_on_c, 1, 56, 0
1, 35993, Note_on_c, 1, 44, 0
1, 36003, End_track
0, 0, End_of_file