0, 0, Header, 0, 1, 96
1, 0, Start_track
1, 0, Tempo, 1052631
1, 264, Note_on_c, 0, 55, 64
1, 276, Note_on_c, 0, 55, 0
1, 276, Note_on_c, 0, 60, 64
1, 288, Note_on_c, 0, 60, 0
1, 288, Note_on_c, 0, 63, 64
1, 355, Note_on_c, 0, 63, 0
1, 360, Note_on_c, 0, 62, 64
1, 383, Note_on_c, 0, 62, 0
1, 384, Note_on_c, 0, 60, 64
1, 384, Note_on_c, 1, 51, 64
1, 384, Note_on_c, 1, 48, 64
1, 429, Note_on_c, 0, 60, 0
1, 432, Note_on_c, 0, 59, 64
1, 432, Note_on_c, 1, 51, 0
1, 432, Note_on_c, 1, 48, 0
1, 432, Note_on_c, 1, 53, 64
1, 432, Note_on_c, 1, 50, 64
1, 452, Note_on_c, 0, 59, 0
1, 452, Note_on_c, 1, 53, 0
1, 452, Note_on_c, 1, 50, 0
1, 480, Note_on_c, 0, 80, 64
1, 480, Note_on_c, 0, 71, 64
1, 500, Note_on_c, 0, 80, 0
1, 500, Note_on_c, 0, 71, 0
1, 552, Note_on_c, 0, 59, 64
1, 564, Note_on_c, 0, 59, 0
1, 564, Note_on_c, 0, 62, 64
1, 576, Note_on_c, 0, 62, 0
1, 576, Note_on_c, 0, 65, 64
1, 643, Note_on_c, 0, 65, 0
1, 648, Note_on_c, 0, 63, 64
1, 671, Note_on_c, 0, 63, 0
1, 672, Note_on_c, 0, 62, 64
1, 672, Note_on_c, 1, 53, 64
1, 672, Note_on_c, 1, 50, 64
1, 717, Note_on_c, 0, 62, 0
1, 720, Note_on_c, 0, 60, 64
1, 720, Note_on_c, 1, 53, 0
1, 720, Note_on_c, 1, 50, 0
1, 720, Note_on_c, 1, 55, 64
1, 720, Note_on_c, 1, 51, 64
1, 740, Note_on_c, 0, 60, 0
1, 740, Note_on_c, 1, 55, 0
1, 740, Note_on_c, 1, 51, 0
1, 768, Note_on_c, 0, 79, 64
1, 768, Note_on_c, 0, 75, 64
1, 788, Note_on_c, 0, 79, 0
1, 788, Note_on_c, 0, 75, 0
1, 840, Note_on_c, 0, 60, 64
1, 852, Note_on_c, 0, 60, 0
1, 852, Note_on_c, 0, 63, 64
1, 864, Note_on_c, 0, 63, 0
1, 864, Note_on_c, 0, 67, 64
1, 931, Note_on_c, 0, 67, 0
1, 936, Note_on_c, 0, 63, 64
1, 959, Note_on_c, 0, 63, 0
1, 960, Note_on_c, 0, 72, 64
1, 960, Note_on_c, 1, 60, 64
1, 960, Note_on_c, 1, 51, 64
1, 1005, Note_on_c, 0, 72, 0
1, 1005, Note_on_c, 1, 60, 0
1, 1005, Note_on_c, 1, 51, 0
1, 1008, Note_on_c, 0, 70, 64
1, 1008, Note_on_c, 1, 60, 64
1, 1008, Note_on_c, 1, 53, 64
1, 1053, Note_on_c, 0, 70, 0
1, 1056, Note_on_c, 0, 68, 64
1, 1062, Note_on_c, 0, 68, 0
1, 1062, Note_on_c, 0, 70, 64
1, 1068, Note_on_c, 0, 70, 0
1, 1068, Note_on_c, 0, 68, 64
1, 1097, Note_on_c, 1, 60, 0
1, 1097, Note_on_c, 1, 53, 0
1, 1102, Note_on_c, 0, 68, 0
1, 1104, Note_on_c, 0, 68, 64
1, 1104, Note_on_c, 1, 60, 64
1, 1104, Note_on_c, 1, 51, 64
1, 1110, Note_on_c, 0, 68, 0
1, 1110, Note_on_c, 0, 67, 64
1, 1116, Note_on_c, 0, 67, 0
1, 1116, Note_on_c, 0, 65, 64
1, 1122, Note_on_c, 0, 65, 0
1, 1122, Note_on_c, 0, 67, 64
1, 1128, Note_on_c, 0, 67, 0
1, 1128, Note_on_c, 0, 67, 64
1, 1138, Note_on_c, 0, 67, 0
1, 1140, Note_on_c, 0, 68, 64
1, 1149, Note_on_c, 1, 60, 0
1, 1149, Note_on_c, 1, 51, 0
1, 1152, Note_on_c, 0, 68, 0
1, 1152, Note_on_c, 0, 67, 64
1, 1152, Note_on_c, 1, 59, 64
1, 1152, Note_on_c, 1, 50, 64
1, 1200, Note_on_c, 0, 67, 0
1, 1200, Note_on_c, 0, 65, 64
1, 1206, Note_on_c, 0, 65, 0
1, 1206, Note_on_c, 0, 67, 64
1, 1212, Note_on_c, 0, 67, 0
1, 1212, Note_on_c, 0, 65, 64
1, 1234, Note_on_c, 0, 65, 0
1, 1236, Note_on_c, 0, 62, 64
1, 1241, Note_on_c, 1, 59, 0
1, 1241, Note_on_c, 1, 50, 0
1, 1248, Note_on_c, 0, 62, 0
1, 1248, Note_on_c, 0, 63, 64
1, 1248, Note_on_c, 1, 60, 64
1, 1248, Note_on_c, 1, 48, 64
1, 1282, Note_on_c, 0, 63, 0
1, 1284, Note_on_c, 0, 60, 64
1, 1293, Note_on_c, 1, 60, 0
1, 1293, Note_on_c, 1, 48, 0
1, 1296, Note_on_c, 0, 60, 0
1, 1296, Note_on_c, 0, 67, 64
1, 1296, Note_on_c, 0, 59, 64
1, 1296, Note_on_c, 1, 55, 64
1, 1296, Note_on_c, 1, 43, 64
1, 1316, Note_on_c, 0, 67, 0
1, 1316, Note_on_c, 0, 59, 0
1, 1335, Note_on_c, 1, 55, 0
1, 1335, Note_on_c, 1, 43, 0
1, 1416, Note_on_c, 0, 58, 64
1, 1428, Note_on_c, 0, 58, 0
1, 1428, Note_on_c, 0, 63, 64
1, 1440, Note_on_c, 0, 63, 0
1, 1440, Note_on_c, 0, 67, 64
1, 1507, Note_on_c, 0, 67, 0
1, 1512, Note_on_c, 0, 65, 64
1, 1535, Note_on_c, 0, 65, 0
1, 1536, Note_on_c, 0, 63, 64
1, 1536, Note_on_c, 1, 55, 64
1, 1536, Note_on_c, 1, 51, 64
1, 1581, Note_on_c, 0, 63, 0
1, 1584, Note_on_c, 0, 62, 64
1, 1584, Note_on_c, 1, 55, 0
1, 1584, Note_on_c, 1, 51, 0
1, 1584, Note_on_c, 1, 56, 64
1, 1584, Note_on_c, 1, 53, 64
1, 1604, Note_on_c, 0, 62, 0
1, 1629, Note_on_c, 1, 56, 0
1, 1629, Note_on_c, 1, 53, 0
1, 1632, Note_on_c, 0, 80, 64
1, 1632, Note_on_c, 0, 74, 64
1, 1652, Note_on_c, 0, 80, 0
1, 1652, Note_on_c, 0, 74, 0
1, 1704, Note_on_c, 0, 62, 64
1, 1712, Note_on_c, 0, 62, 0
1, 1712, Note_on_c, 0, 65, 64
1, 1720, Note_on_c, 0, 65, 0
1, 1720, Note_on_c, 0, 68, 64
1, 1728, Note_on_c, 0, 72, 64
1, 1795, Note_on_c, 0, 72, 0
1, 1795, Note_on_c, 0, 68, 0
1, 1800, Note_on_c, 0, 70, 64
1, 1800, Note_on_c, 0, 67, 64
1, 1823, Note_on_c, 0, 70, 0
1, 1823, Note_on_c, 0, 67, 0
1, 1824, Note_on_c, 0, 68, 64
1, 1824, Note_on_c, 0, 65, 64
1, 1824, Note_on_c, 1, 58, 64
1, 1824, Note_on_c, 1, 50, 64
1, 1869, Note_on_c, 0, 68, 0
1, 1869, Note_on_c, 0, 65, 0
1, 1872, Note_on_c, 0, 67, 64
1, 1872, Note_on_c, 0, 63, 64
1, 1872, Note_on_c, 1, 50, 0
1, 1872, Note_on_c, 1, 51, 64
1, 1892, Note_on_c, 0, 67, 0
1, 1892, Note_on_c, 0, 63, 0
1, 1920, Note_on_c, 0, 82, 64
1, 1920, Note_on_c, 0, 79, 64
1, 1940, Note_on_c, 0, 82, 0
1, 1940, Note_on_c, 0, 79, 0
1, 1961, Note_on_c, 1, 58, 0
1, 1961, Note_on_c, 1, 51, 0
1, 1992, Note_on_c, 0, 63, 64
1, 2004, Note_on_c, 0, 63, 0
1, 2004, Note_on_c, 0, 67, 64
1, 2016, Note_on_c, 0, 67, 0
1, 2016, Note_on_c, 0, 75, 65
1, 2083, Note_on_c, 0, 75, 0
1, 2088, Note_on_c, 0, 74, 65
1, 2111, Note_on_c, 0, 74, 0
1, 2112, Note_on_c, 0, 72, 65
1, 2112, Note_on_c, 1, 67, 65
1, 2112, Note_on_c, 1, 63, 65
1, 2157, Note_on_c, 0, 72, 0
1, 2157, Note_on_c, 1, 67, 0
1, 2157, Note_on_c, 1, 63, 0
1, 2160, Note_on_c, 0, 72, 65
1, 2160, Note_on_c, 1, 65, 65
1, 2160, Note_on_c, 1, 62, 65
1, 2208, Note_on_c, 0, 72, 0
1, 2208, Note_on_c, 0, 70, 65
1, 2249, Note_on_c, 1, 65, 0
1, 2249, Note_on_c, 1, 62, 0
1, 2253, Note_on_c, 0, 70, 0
1, 2256, Note_on_c, 0, 68, 65
1, 2256, Note_on_c, 1, 63, 65
1, 2256, Note_on_c, 1, 60, 65
1, 2301, Note_on_c, 0, 68, 0
1, 2301, Note_on_c, 1, 63, 0
1, 2301, Note_on_c, 1, 60, 0
1, 2304, Note_on_c, 0, 67, 65
1, 2304, Note_on_c, 1, 62, 65
1, 2304, Note_on_c, 1, 58, 65
1, 2310, Note_on_c, 0, 67, 0
1, 2310, Note_on_c, 0, 70, 65
1, 2316, Note_on_c, 0, 70, 0
1, 2316, Note_on_c, 0, 68, 65
1, 2350, Note_on_c, 0, 68, 0
1, 2352, Note_on_c, 0, 67, 65
1, 2393, Note_on_c, 1, 62, 0
1, 2393, Note_on_c, 1, 58, 0
1, 2397, Note_on_c, 0, 67, 0
1, 2400, Note_on_c, 0, 65, 65
1, 2400, Note_on_c, 1, 60, 65
1, 2400, Note_on_c, 1, 56, 65
1, 2445, Note_on_c, 0, 65, 0
1, 2445, Note_on_c, 1, 60, 0
1, 2445, Note_on_c, 1, 56, 0
1, 2448, Note_on_c, 0, 70, 85
1, 2448, Note_on_c, 1, 65, 85
1, 2448, Note_on_c, 1, 62, 85
1, 2448, Note_on_c, 1, 58, 85
1, 2448, Note_on_c, 1, 56, 85
1, 2515, Note_on_c, 0, 70, 0
1, 2520, Note_on_c, 0, 72, 85
1, 2532, Note_on_c, 0, 72, 0
1, 2532, Note_on_c, 0, 70, 85
1, 2537, Note_on_c, 1, 65, 0
1, 2537, Note_on_c, 1, 62, 0
1, 2537, Note_on_c, 1, 58, 0
1, 2537, Note_on_c, 1, 56, 0
1, 2544, Note_on_c, 0, 70, 0
1, 2544, Note_on_c, 0, 72, 85
1, 2544, Note_on_c, 1, 63, 85
1, 2544, Note_on_c, 1, 58, 85
1, 2544, Note_on_c, 1, 55, 85
1, 2556, Note_on_c, 0, 72, 0
1, 2556, Note_on_c, 0, 70, 85
1, 2568, Note_on_c, 0, 70, 0
1, 2568, Note_on_c, 0, 68, 85
1, 2580, Note_on_c, 0, 68, 0
1, 2580, Note_on_c, 0, 67, 85
1, 2589, Note_on_c, 1, 63, 0
1, 2589, Note_on_c, 1, 58, 0
1, 2589, Note_on_c, 1, 55, 0
1, 2592, Note_on_c, 0, 67, 0
1, 2592, Note_on_c, 0, 67, 85
1, 2592, Note_on_c, 1, 60, 85
1, 2592, Note_on_c, 1, 56, 64
1, 2615, Note_on_c, 0, 67, 0
1, 2616, Note_on_c, 0, 65, 85
1, 2637, Note_on_c, 1, 60, 0
1, 2637, Note_on_c, 1, 56, 0
1, 2639, Note_on_c, 0, 65, 0
1, 2640, Note_on_c, 0, 63, 85
1, 2640, Note_on_c, 1, 55, 85
1, 2640, Note_on_c, 1, 46, 64
1, 2685, Note_on_c, 0, 63, 0
1, 2685, Note_on_c, 1, 55, 0
1, 2688, Note_on_c, 0, 62, 85
1, 2688, Note_on_c, 1, 53, 85
1, 2694, Note_on_c, 0, 62, 0
1, 2694, Note_on_c, 0, 63, 85
1, 2700, Note_on_c, 0, 63, 0
1, 2700, Note_on_c, 0, 62, 85
1, 2722, Note_on_c, 0, 62, 0
1, 2724, Note_on_c, 0, 63, 85
1, 2729, Note_on_c, 1, 46, 0
1, 2733, Note_on_c, 1, 53, 0
1, 2736, Note_on_c, 0, 63, 0
1, 2736, Note_on_c, 0, 63, 65
1, 2736, Note_on_c, 1, 39, 85
1, 2759, Note_on_c, 1, 39, 0
1, 2760, Note_on_c, 1, 51, 85
1, 2783, Note_on_c, 1, 51, 0
1, 2784, Note_on_c, 1, 43, 85
1, 2807, Note_on_c, 1, 43, 0
1, 2808, Note_on_c, 1, 51, 85
1, 2825, Note_on_c, 0, 63, 0
1, 2831, Note_on_c, 1, 51, 0
1, 2832, Note_on_c, 0, 67, 65
1, 2832, Note_on_c, 0, 63, 65
1, 2832, Note_on_c, 1, 39, 85
1, 2855, Note_on_c, 1, 39, 0
1, 2856, Note_on_c, 1, 51, 85
1, 2877, Note_on_c, 0, 67, 0
1, 2877, Note_on_c, 0, 63, 0
1, 2879, Note_on_c, 1, 51, 0
1, 2880, Note_on_c, 0, 65, 65
1, 2880, Note_on_c, 0, 63, 64
1, 2880, Note_on_c, 1, 44, 85
1, 2903, Note_on_c, 1, 44, 0
1, 2904, Note_on_c, 1, 56, 85
1, 2927, Note_on_c, 1, 56, 0
1, 2928, Note_on_c, 1, 48, 85
1, 2951, Note_on_c, 1, 48, 0
1, 2952, Note_on_c, 1, 56, 85
1, 2969, Note_on_c, 0, 65, 0
1, 2969, Note_on_c, 0, 63, 0
1, 2975, Note_on_c, 1, 56, 0
1, 2976, Note_on_c, 0, 72, 65
1, 2976, Note_on_c, 0, 68, 65
1, 2976, Note_on_c, 0, 63, 64
1, 2976, Note_on_c, 1, 44, 85
1, 2999, Note_on_c, 1, 44, 0
1, 3000, Note_on_c, 1, 56, 85
1, 3021, Note_on_c, 0, 72, 0
1, 3021, Note_on_c, 0, 68, 0
1, 3021, Note_on_c, 0, 63, 0
1, 3023, Note_on_c, 1, 56, 0
1, 3024, Note_on_c, 0, 72, 65
1, 3024, Note_on_c, 0, 68, 65
1, 3024, Note_on_c, 0, 62, 64
1, 3024, Note_on_c, 1, 46, 85
1, 3047, Note_on_c, 1, 46, 0
1, 3048, Note_on_c, 1, 58, 85
1, 3069, Note_on_c, 0, 72, 0
1, 3069, Note_on_c, 0, 68, 0
1, 3071, Note_on_c, 1, 58, 0
1, 3072, Note_on_c, 0, 70, 65
1, 3072, Note_on_c, 0, 67, 65
1, 3072, Note_on_c, 1, 50, 85
1, 3095, Note_on_c, 1, 50, 0
1, 3096, Note_on_c, 1, 58, 85
1, 3117, Note_on_c, 0, 70, 0
1, 3117, Note_on_c, 0, 67, 0
1, 3119, Note_on_c, 1, 58, 0
1, 3120, Note_on_c, 0, 68, 65
1, 3120, Note_on_c, 0, 65, 65
1, 3120, Note_on_c, 1, 46, 85
1, 3143, Note_on_c, 1, 46, 0
1, 3144, Note_on_c, 1, 58, 85
1, 3157, Note_on_c, 0, 62, 0
1, 3165, Note_on_c, 0, 68, 0
1, 3165, Note_on_c, 0, 65, 0
1, 3167, Note_on_c, 1, 58, 0
1, 3168, Note_on_c, 0, 67, 65
1, 3168, Note_on_c, 0, 65, 64
1, 3168, Note_on_c, 1, 48, 85
1, 3176, Note_on_c, 0, 67, 0
1, 3176, Note_on_c, 0, 68, 65
1, 3184, Note_on_c, 0, 68, 0
1, 3184, Note_on_c, 0, 70, 65
1, 3191, Note_on_c, 1, 48, 0
1, 3192, Note_on_c, 0, 70, 0
1, 3192, Note_on_c, 0, 68, 65
1, 3192, Note_on_c, 1, 60, 85
1, 3215, Note_on_c, 1, 60, 0
1, 3216, Note_on_c, 1, 59, 85
1, 3239, Note_on_c, 1, 59, 0
1, 3240, Note_on_c, 1, 60, 85
1, 3257, Note_on_c, 0, 65, 0
1, 3259, Note_on_c, 0, 68, 0
1, 3263, Note_on_c, 1, 60, 0
1, 3264, Note_on_c, 0, 67, 65
1, 3264, Note_on_c, 0, 63, 64
1, 3264, Note_on_c, 1, 48, 85
1, 3287, Note_on_c, 1, 48, 0
1, 3288, Note_on_c, 1, 60, 85
1, 3309, Note_on_c, 0, 67, 0
1, 3309, Note_on_c, 0, 63, 0
1, 3311, Note_on_c, 1, 60, 0
1, 3312, Note_on_c, 0, 70, 92
1, 3312, Note_on_c, 0, 63, 92
1, 3312, Note_on_c, 0, 61, 64
1, 3312, Note_on_c, 1, 43, 92
1, 3335, Note_on_c, 1, 43, 0
1, 3336, Note_on_c, 1, 51, 92
1, 3359, Note_on_c, 1, 51, 0
1, 3360, Note_on_c, 1, 46, 92
1, 3383, Note_on_c, 1, 46, 0
1, 3384, Note_on_c, 1, 51, 92
1, 3407, Note_on_c, 1, 51, 0
1, 3408, Note_on_c, 1, 43, 92
1, 3431, Note_on_c, 1, 43, 0
1, 3432, Note_on_c, 1, 51, 92
1, 3445, Note_on_c, 0, 70, 0
1, 3445, Note_on_c, 0, 63, 0
1, 3445, Note_on_c, 0, 61, 0
1, 3455, Note_on_c, 1, 51, 0
1, 3456, Note_on_c, 0, 70, 92
1, 3456, Note_on_c, 0, 63, 64
1, 3456, Note_on_c, 0, 60, 64
1, 3456, Note_on_c, 1, 44, 92
1, 3479, Note_on_c, 1, 44, 0
1, 3480, Note_on_c, 1, 56, 92
1, 3503, Note_on_c, 1, 56, 0
1, 3504, Note_on_c, 1, 51, 92
1, 3523, Note_on_c, 0, 70, 0
1, 3527, Note_on_c, 1, 51, 0
1, 3528, Note_on_c, 0, 68, 92
1, 3528, Note_on_c, 1, 56, 92
1, 3551, Note_on_c, 0, 68, 0
1, 3551, Note_on_c, 1, 56, 0
1, 3552, Note_on_c, 0, 67, 92
1, 3552, Note_on_c, 1, 44, 92
1, 3575, Note_on_c, 0, 67, 0
1, 3575, Note_on_c, 1, 44, 0
1, 3576, Note_on_c, 0, 65, 92
1, 3576, Note_on_c, 1, 56, 92
1, 3589, Note_on_c, 0, 63, 0
1, 3589, Note_on_c, 0, 60, 0
1, 3599, Note_on_c, 0, 65, 0
1, 3599, Note_on_c, 1, 56, 0
1, 3600, Note_on_c, 0, 63, 92
1, 3600, Note_on_c, 0, 58, 64
1, 3600, Note_on_c, 1, 46, 92
1, 3623, Note_on_c, 1, 46, 0
1, 3624, Note_on_c, 1, 55, 92
1, 3647, Note_on_c, 1, 55, 0
1, 3648, Note_on_c, 1, 51, 92
1, 3671, Note_on_c, 1, 51, 0
1, 3672, Note_on_c, 1, 55, 92
1, 3689, Note_on_c, 0, 63, 0
1, 3689, Note_on_c, 0, 58, 0
1, 3695, Note_on_c, 1, 55, 0
1, 3696, Note_on_c, 0, 67, 92
1, 3696, Note_on_c, 0, 62, 64
1, 3696, Note_on_c, 1, 46, 92
1, 3708, Note_on_c, 0, 67, 0
1, 3708, Note_on_c, 0, 65, 92
1, 3719, Note_on_c, 1, 46, 0
1, 3720, Note_on_c, 1, 55, 92
1, 3731, Note_on_c, 0, 65, 0
1, 3732, Note_on_c, 0, 63, 92
1, 3741, Note_on_c, 0, 62, 0
1, 3743, Note_on_c, 1, 55, 0
1, 3744, Note_on_c, 0, 63, 0
1, 3744, Note_on_c, 0, 63, 92
1, 3744, Note_on_c, 1, 55, 92
1, 3744, Note_on_c, 1, 51, 92
1, 3789, Note_on_c, 0, 63, 0
1, 3789, Note_on_c, 1, 55, 0
1, 3789, Note_on_c, 1, 51, 0
1, 3840, Note_on_c, 0, 58, 65
1, 3840, Note_on_c, 0, 55, 65
1, 3860, Note_on_c, 0, 58, 0
1, 3860, Note_on_c, 0, 55, 0
1, 3888, Note_on_c, 0, 55, 65
1, 3888, Note_on_c, 0, 51, 65
1, 3908, Note_on_c, 0, 55, 0
1, 3908, Note_on_c, 0, 51, 0
1, 4008, Note_on_c, 0, 55, 78
1, 4020, Note_on_c, 0, 55, 0
1, 4020, Note_on_c, 0, 60, 78
1, 4032, Note_on_c, 0, 60, 0
1, 4032, Note_on_c, 0, 63, 78
1, 4099, Note_on_c, 0, 63, 0
1, 4104, Note_on_c, 0, 62, 78
1, 4127, Note_on_c, 0, 62, 0
1, 4128, Note_on_c, 0, 60, 78
1, 4128, Note_on_c, 1, 51, 78
1, 4128, Note_on_c, 1, 48, 78
1, 4173, Note_on_c, 0, 60, 0
1, 4176, Note_on_c, 0, 59, 78
1, 4176, Note_on_c, 1, 51, 0
1, 4176, Note_on_c, 1, 48, 0
1, 4176, Note_on_c, 1, 53, 78
1, 4176, Note_on_c, 1, 50, 78
1, 4221, Note_on_c, 0, 59, 0
1, 4221, Note_on_c, 1, 53, 0
1, 4221, Note_on_c, 1, 50, 0
1, 4224, Note_on_c, 0, 74, 78
1, 4224, Note_on_c, 1, 62, 78
1, 4230, Note_on_c, 0, 77, 78
1, 4230, Note_on_c, 1, 65, 78
1, 4236, Note_on_c, 0, 80, 78
1, 4236, Note_on_c, 1, 68, 78
1, 4242, Note_on_c, 0, 83, 78
1, 4242, Note_on_c, 1, 71, 78
1, 4282, Note_on_c, 0, 83, 0
1, 4282, Note_on_c, 0, 80, 0
1, 4282, Note_on_c, 0, 77, 0
1, 4282, Note_on_c, 0, 74, 0
1, 4282, Note_on_c, 1, 71, 0
1, 4282, Note_on_c, 1, 68, 0
1, 4282, Note_on_c, 1, 65, 0
1, 4282, Note_on_c, 1, 62, 0
1, 4296, Note_on_c, 0, 59, 78
1, 4308, Note_on_c, 0, 59, 0
1, 4308, Note_on_c, 0, 62, 78
1, 4320, Note_on_c, 0, 62, 0
1, 4320, Note_on_c, 0, 65, 78
1, 4387, Note_on_c, 0, 65, 0
1, 4392, Note_on_c, 0, 63, 78
1, 4415, Note_on_c, 0, 63, 0
1, 4416, Note_on_c, 0, 62, 78
1, 4416, Note_on_c, 1, 53, 78
1, 4461, Note_on_c, 0, 62, 0
1, 4461, Note_on_c, 1, 53, 0
1, 4464, Note_on_c, 0, 60, 78
1, 4464, Note_on_c, 1, 55, 78
1, 4464, Note_on_c, 1, 51, 78
1, 4509, Note_on_c, 0, 60, 0
1, 4509, Note_on_c, 1, 55, 0
1, 4509, Note_on_c, 1, 51, 0
1, 4512, Note_on_c, 1, 63, 78
1, 4518, Note_on_c, 0, 79, 78
1, 4518, Note_on_c, 1, 67, 78
1, 4524, Note_on_c, 0, 84, 78
1, 4524, Note_on_c, 1, 72, 78
1, 4530, Note_on_c, 0, 87, 78
1, 4530, Note_on_c, 1, 75, 78
1, 4570, Note_on_c, 0, 87, 0
1, 4570, Note_on_c, 0, 84, 0
1, 4570, Note_on_c, 0, 79, 0
1, 4570, Note_on_c, 1, 75, 0
1, 4570, Note_on_c, 1, 72, 0
1, 4570, Note_on_c, 1, 67, 0
1, 4570, Note_on_c, 1, 63, 0
1, 4584, Note_on_c, 0, 60, 78
1, 4596, Note_on_c, 0, 60, 0
1, 4596, Note_on_c, 0, 63, 78
1, 4608, Note_on_c, 0, 63, 0
1, 4608, Note_on_c, 0, 67, 78
1, 4675, Note_on_c, 0, 67, 0
1, 4680, Note_on_c, 0, 63, 78
1, 4703, Note_on_c, 0, 63, 0
1, 4704, Note_on_c, 0, 72, 78
1, 4704, Note_on_c, 1, 60, 78
1, 4704, Note_on_c, 1, 51, 78
1, 4749, Note_on_c, 0, 72, 0
1, 4749, Note_on_c, 1, 60, 0
1, 4749, Note_on_c, 1, 51, 0
1, 4752, Note_on_c, 0, 70, 78
1, 4752, Note_on_c, 1, 60, 78
1, 4752, Note_on_c, 1, 53, 78
1, 4797, Note_on_c, 0, 70, 0
1, 4800, Note_on_c, 0, 68, 78
1, 4806, Note_on_c, 0, 68, 0
1, 4806, Note_on_c, 0, 70, 78
1, 4812, Note_on_c, 0, 70, 0
1, 4812, Note_on_c, 0, 68, 78
1, 4841, Note_on_c, 1, 60, 0
1, 4841, Note_on_c, 1, 53, 0
1, 4846, Note_on_c, 0, 68, 0
1, 4848, Note_on_c, 0, 68, 78
1, 4848, Note_on_c, 1, 60, 78
1, 4848, Note_on_c, 1, 51, 78
1, 4854, Note_on_c, 0, 68, 0
1, 4854, Note_on_c, 0, 67, 78
1, 4860, Note_on_c, 0, 67, 0
1, 4860, Note_on_c, 0, 65, 78
1, 4866, Note_on_c, 0, 65, 0
1, 4866, Note_on_c, 0, 67, 78
1, 4872, Note_on_c, 0, 67, 0
1, 4872, Note_on_c, 0, 67, 78
1, 4882, Note_on_c, 0, 67, 0
1, 4884, Note_on_c, 0, 68, 78
1, 4893, Note_on_c, 1, 60, 0
1, 4893, Note_on_c, 1, 51, 0
1, 4896, Note_on_c, 0, 68, 0
1, 4896, Note_on_c, 0, 67, 78
1, 4896, Note_on_c, 1, 59, 78
1, 4896, Note_on_c, 1, 50, 78
1, 4941, Note_on_c, 0, 67, 0
1, 4944, Note_on_c, 0, 65, 78
1, 4950, Note_on_c, 0, 65, 0
1, 4950, Note_on_c, 0, 67, 78
1, 4956, Note_on_c, 0, 67, 0
1, 4956, Note_on_c, 0, 65, 78
1, 4967, Note_on_c, 0, 65, 0
1, 4968, Note_on_c, 0, 63, 78
1, 4980, Note_on_c, 0, 63, 0
1, 4980, Note_on_c, 0, 62, 78
1, 4985, Note_on_c, 1, 59, 0
1, 4985, Note_on_c, 1, 50, 0
1, 4992, Note_on_c, 0, 62, 0
1, 4992, Note_on_c, 0, 65, 78
1, 4992, Note_on_c, 1, 60, 78
1, 4992, Note_on_c, 1, 48, 78
1, 5004, Note_on_c, 0, 65, 0
1, 5004, Note_on_c, 0, 63, 78
1, 5016, Note_on_c, 0, 63, 0
1, 5016, Note_on_c, 0, 62, 78
1, 5028, Note_on_c, 0, 62, 0
1, 5028, Note_on_c, 0, 60, 78
1, 5037, Note_on_c, 1, 60, 0
1, 5037, Note_on_c, 1, 48, 0
1, 5040, Note_on_c, 0, 60, 0
1, 5040, Note_on_c, 0, 67, 78
1, 5040, Note_on_c, 0, 59, 78
1, 5040, Note_on_c, 1, 55, 78
1, 5040, Note_on_c, 1, 43, 78
1, 5060, Note_on_c, 0, 67, 0
1, 5060, Note_on_c, 0, 59, 0
1, 5079, Note_on_c, 1, 55, 0
1, 5079, Note_on_c, 1, 43, 0
1, 5160, Note_on_c, 0, 58, 78
1, 5172, Note_on_c, 0, 58, 0
1, 5172, Note_on_c, 0, 63, 78
1, 5184, Note_on_c, 0, 63, 0
1, 5184, Note_on_c, 0, 67, 78
1, 5251, Note_on_c, 0, 67, 0
1, 5256, Note_on_c, 0, 65, 78
1, 5279, Note_on_c, 0, 65, 0
1, 5280, Note_on_c, 0, 63, 78
1, 5280, Note_on_c, 1, 55, 78
1, 5280, Note_on_c, 1, 51, 78
1, 5325, Note_on_c, 0, 63, 0
1, 5328, Note_on_c, 0, 62, 78
1, 5328, Note_on_c, 1, 55, 0
1, 5328, Note_on_c, 1, 51, 0
1, 5328, Note_on_c, 1, 56, 78
1, 5328, Note_on_c, 1, 53, 78
1, 5348, Note_on_c, 0, 62, 0
1, 5373, Note_on_c, 1, 56, 0
1, 5373, Note_on_c, 1, 53, 0
1, 5376, Note_on_c, 0, 80, 78
1, 5388, Note_on_c, 0, 80, 0
1, 5388, Note_on_c, 0, 79, 78
1, 5400, Note_on_c, 0, 79, 0
1, 5400, Note_on_c, 0, 82, 78
1, 5412, Note_on_c, 0, 82, 0
1, 5412, Note_on_c, 0, 80, 78
1, 5424, Note_on_c, 0, 80, 0
1, 5424, Note_on_c, 0, 84, 78
1, 5436, Note_on_c, 0, 84, 0
1, 5436, Note_on_c, 0, 82, 78
1, 5448, Note_on_c, 0, 82, 0
1, 5448, Note_on_c, 0, 80, 78
1, 5460, Note_on_c, 0, 80, 0
1, 5460, Note_on_c, 0, 79, 78
1, 5472, Note_on_c, 0, 79, 0
1, 5472, Note_on_c, 0, 77, 78
1, 5484, Note_on_c, 0, 77, 0
1, 5484, Note_on_c, 0, 75, 78
1, 5496, Note_on_c, 0, 75, 0
1, 5496, Note_on_c, 0, 74, 78
1, 5508, Note_on_c, 0, 74, 0
1, 5508, Note_on_c, 0, 72, 78
1, 5520, Note_on_c, 0, 72, 0
1, 5520, Note_on_c, 0, 70, 78
1, 5532, Note_on_c, 0, 70, 0
1, 5532, Note_on_c, 0, 68, 78
1, 5544, Note_on_c, 0, 68, 0
1, 5544, Note_on_c, 0, 67, 78
1, 5556, Note_on_c, 0, 67, 0
1, 5556, Note_on_c, 0, 65, 78
1, 5568, Note_on_c, 0, 65, 0
1, 5568, Note_on_c, 0, 63, 78
1, 5568, Note_on_c, 1, 53, 78
1, 5568, Note_on_c, 1, 46, 78
1, 5580, Note_on_c, 0, 63, 0
1, 5580, Note_on_c, 0, 62, 78
1, 5592, Note_on_c, 0, 62, 0
1, 5592, Note_on_c, 0, 65, 78
1, 5604, Note_on_c, 0, 65, 0
1, 5604, Note_on_c, 0, 68, 78
1, 5613, Note_on_c, 1, 53, 0
1, 5613, Note_on_c, 1, 46, 0
1, 5616, Note_on_c, 0, 68, 0
1, 5616, Note_on_c, 0, 67, 78
1, 5616, Note_on_c, 0, 63, 78
1, 5616, Note_on_c, 1, 51, 78
1, 5661, Note_on_c, 0, 67, 0
1, 5661, Note_on_c, 0, 63, 0
1, 5661, Note_on_c, 1, 51, 0
1, 5664, Note_on_c, 0, 82, 78
1, 5664, Note_on_c, 0, 79, 78
1, 5684, Note_on_c, 0, 82, 0
1, 5684, Note_on_c, 0, 79, 0
1, 5712, Note_on_c, 0, 63, 78
1, 5718, Note_on_c, 0, 63, 0
1, 5718, Note_on_c, 0, 65, 78
1, 5724, Note_on_c, 0, 65, 0
1, 5724, Note_on_c, 0, 67, 78
1, 5730, Note_on_c, 0, 67, 0
1, 5730, Note_on_c, 0, 68, 78
1, 5736, Note_on_c, 0, 68, 0
1, 5736, Note_on_c, 0, 70, 78
1, 5742, Note_on_c, 0, 70, 0
1, 5742, Note_on_c, 0, 72, 78
1, 5748, Note_on_c, 0, 72, 0
1, 5748, Note_on_c, 0, 74, 78
1, 5754, Note_on_c, 0, 74, 0
1, 5754, Note_on_c, 0, 75, 78
1, 5760, Note_on_c, 0, 75, 0
1, 5760, Note_on_c, 0, 74, 78
1, 5768, Note_on_c, 0, 74, 0
1, 5768, Note_on_c, 0, 75, 78
1, 5776, Note_on_c, 0, 75, 0
1, 5776, Note_on_c, 0, 77, 78
1, 5784, Note_on_c, 0, 77, 0
1, 5784, Note_on_c, 0, 75, 78
1, 5829, Note_on_c, 0, 75, 0
1, 5832, Note_on_c, 0, 74, 78
1, 5855, Note_on_c, 0, 74, 0
1, 5856, Note_on_c, 0, 72, 78
1, 5856, Note_on_c, 1, 67, 78
1, 5856, Note_on_c, 1, 63, 78
1, 5901, Note_on_c, 0, 72, 0
1, 5901, Note_on_c, 1, 67, 0
1, 5901, Note_on_c, 1, 63, 0
1, 5904, Note_on_c, 0, 72, 78
1, 5904, Note_on_c, 1, 65, 78
1, 5904, Note_on_c, 1, 62, 78
1, 5952, Note_on_c, 0, 72, 0
1, 5952, Note_on_c, 0, 70, 78
1, 5975, Note_on_c, 0, 70, 0
1, 5976, Note_on_c, 0, 68, 78
1, 5988, Note_on_c, 0, 68, 0
1, 5988, Note_on_c, 0, 70, 78
1, 5993, Note_on_c, 1, 65, 0
1, 5993, Note_on_c, 1, 62, 0
1, 6000, Note_on_c, 0, 70, 0
1, 6000, Note_on_c, 0, 74, 78
1, 6000, Note_on_c, 1, 63, 78
1, 6000, Note_on_c, 1, 60, 78
1, 6012, Note_on_c, 0, 74, 0
1, 6012, Note_on_c, 0, 72, 78
1, 6024, Note_on_c, 0, 72, 0
1, 6024, Note_on_c, 0, 70, 78
1, 6036, Note_on_c, 0, 70, 0
1, 6036, Note_on_c, 0, 68, 78
1, 6045, Note_on_c, 1, 63, 0
1, 6045, Note_on_c, 1, 60, 0
1, 6048, Note_on_c, 0, 68, 0
1, 6048, Note_on_c, 0, 68, 78
1, 6048, Note_on_c, 1, 62, 78
1, 6048, Note_on_c, 1, 58, 78
1, 6096, Note_on_c, 0, 68, 0
1, 6096, Note_on_c, 0, 67, 78
1, 6102, Note_on_c, 0, 67, 0
1, 6102, Note_on_c, 0, 68, 78
1, 6108, Note_on_c, 0, 68, 0
1, 6108, Note_on_c, 0, 67, 78
1, 6119, Note_on_c, 0, 67, 0
1, 6120, Note_on_c, 0, 63, 78
1, 6132, Note_on_c, 0, 63, 0
1, 6132, Note_on_c, 0, 65, 78
1, 6137, Note_on_c, 1, 62, 0
1, 6137, Note_on_c, 1, 58, 0
1, 6144, Note_on_c, 0, 65, 0
1, 6144, Note_on_c, 0, 70, 78
1, 6144, Note_on_c, 1, 60, 78
1, 6144, Note_on_c, 1, 56, 78
1, 6156, Note_on_c, 0, 70, 0
1, 6156, Note_on_c, 0, 68, 78
1, 6168, Note_on_c, 0, 68, 0
1, 6168, Note_on_c, 0, 67, 78
1, 6180, Note_on_c, 0, 67, 0
1, 6180, Note_on_c, 0, 65, 78
1, 6189, Note_on_c, 1, 60, 0
1, 6189, Note_on_c, 1, 56, 0
1, 6192, Note_on_c, 0, 65, 0
1, 6192, Note_on_c, 0, 70, 85
1, 6192, Note_on_c, 1, 65, 85
1, 6192, Note_on_c, 1, 62, 85
1, 6192, Note_on_c, 1, 58, 85
1, 6192, Note_on_c, 1, 56, 85
1, 6215, Note_on_c, 0, 70, 0
1, 6216, Note_on_c, 0, 69, 85
1, 6228, Note_on_c, 0, 69, 0
1, 6228, Note_on_c, 0, 70, 85
1, 6240, Note_on_c, 0, 70, 0
1, 6240, Note_on_c, 0, 69, 85
1, 6252, Note_on_c, 0, 69, 0
1, 6252, Note_on_c, 0, 70, 85
1, 6264, Note_on_c, 0, 70, 0
1, 6264, Note_on_c, 0, 69, 85
1, 6276, Note_on_c, 0, 69, 0
1, 6276, Note_on_c, 0, 70, 85
1, 6281, Note_on_c, 1, 65, 0
1, 6281, Note_on_c, 1, 62, 0
1, 6281, Note_on_c, 1, 58, 0
1, 6281, Note_on_c, 1, 56, 0
1, 6288, Note_on_c, 0, 70, 0
1, 6288, Note_on_c, 0, 72, 85
1, 6288, Note_on_c, 1, 63, 85
1, 6288, Note_on_c, 1, 58, 85
1, 6288, Note_on_c, 1, 56, 85
1, 6300, Note_on_c, 0, 72, 0
1, 6300, Note_on_c, 0, 70, 85
1, 6312, Note_on_c, 0, 70, 0
1, 6312, Note_on_c, 0, 68, 85
1, 6324, Note_on_c, 0, 68, 0
1, 6324, Note_on_c, 0, 67, 85
1, 6333, Note_on_c, 1, 63, 0
1, 6333, Note_on_c, 1, 58, 0
1, 6333, Note_on_c, 1, 56, 0
1, 6336, Note_on_c, 0, 67, 0
1, 6336, Note_on_c, 0, 67, 85
1, 6336, Note_on_c, 1, 60, 85
1, 6336, Note_on_c, 1, 56, 64
1, 6348, Note_on_c, 0, 67, 0
1, 6348, Note_on_c, 0, 65, 85
1, 6360, Note_on_c, 0, 65, 0
1, 6360, Note_on_c, 0, 68, 85
1, 6372, Note_on_c, 0, 68, 0
1, 6372, Note_on_c, 0, 65, 85
1, 6381, Note_on_c, 1, 60, 0
1, 6381, Note_on_c, 1, 56, 0
1, 6384, Note_on_c, 0, 65, 0
1, 6384, Note_on_c, 0, 65, 85
1, 6384, Note_on_c, 1, 55, 85
1, 6384, Note_on_c, 1, 46, 64
1, 6396, Note_on_c, 0, 65, 0
1, 6396, Note_on_c, 0, 63, 85
1, 6408, Note_on_c, 0, 63, 0
1, 6408, Note_on_c, 0, 67, 85
1, 6420, Note_on_c, 0, 67, 0
1, 6420, Note_on_c, 0, 63, 85
1, 6429, Note_on_c, 1, 55, 0
1, 6432, Note_on_c, 0, 63, 0
1, 6432, Note_on_c, 0, 63, 85
1, 6432, Note_on_c, 1, 53, 85
1, 6444, Note_on_c, 0, 63, 0
1, 6444, Note_on_c, 0, 62, 85
1, 6456, Note_on_c, 0, 62, 0
1, 6456, Note_on_c, 0, 65, 85
1, 6468, Note_on_c, 0, 65, 0
1, 6468, Note_on_c, 0, 62, 85
1, 6473, Note_on_c, 1, 46, 0
1, 6477, Note_on_c, 1, 53, 0
1, 6480, Note_on_c, 0, 62, 0
1, 6480, Note_on_c, 0, 63, 65
1, 6480, Note_on_c, 1, 39, 65
1, 6503, Note_on_c, 1, 39, 0
1, 6504, Note_on_c, 1, 51, 65
1, 6527, Note_on_c, 1, 51, 0
1, 6528, Note_on_c, 1, 43, 65
1, 6551, Note_on_c, 1, 43, 0
1, 6552, Note_on_c, 1, 51, 65
1, 6569, Note_on_c, 0, 63, 0
1, 6575, Note_on_c, 1, 51, 0
1, 6576, Note_on_c, 0, 67, 65
1, 6576, Note_on_c, 0, 63, 65
1, 6576, Note_on_c, 1, 39, 65
1, 6599, Note_on_c, 1, 39, 0
1, 6600, Note_on_c, 1, 51, 65
1, 6621, Note_on_c, 0, 67, 0
1, 6621, Note_on_c, 0, 63, 0
1, 6623, Note_on_c, 1, 51, 0
1, 6624, Note_on_c, 0, 65, 65
1, 6624, Note_on_c, 0, 63, 64
1, 6624, Note_on_c, 1, 44, 65
1, 6647, Note_on_c, 1, 44, 0
1, 6648, Note_on_c, 1, 56, 65
1, 6671, Note_on_c, 1, 56, 0
1, 6672, Note_on_c, 1, 48, 65
1, 6695, Note_on_c, 1, 48, 0
1, 6696, Note_on_c, 1, 56, 65
1, 6713, Note_on_c, 0, 65, 0
1, 6713, Note_on_c, 0, 63, 0
1, 6719, Note_on_c, 1, 56, 0
1, 6720, Note_on_c, 0, 72, 65
1, 6720, Note_on_c, 0, 68, 65
1, 6720, Note_on_c, 0, 63, 64
1, 6720, Note_on_c, 1, 44, 65
1, 6743, Note_on_c, 1, 44, 0
1, 6744, Note_on_c, 1, 56, 65
1, 6765, Note_on_c, 0, 72, 0
1, 6765, Note_on_c, 0, 68, 0
1, 6765, Note_on_c, 0, 63, 0
1, 6767, Note_on_c, 1, 56, 0
1, 6768, Note_on_c, 0, 72, 85
1, 6768, Note_on_c, 0, 68, 85
1, 6768, Note_on_c, 0, 62, 85
1, 6768, Note_on_c, 1, 46, 85
1, 6791, Note_on_c, 1, 46, 0
1, 6792, Note_on_c, 1, 58, 85
1, 6813, Note_on_c, 0, 72, 0
1, 6813, Note_on_c, 0, 68, 0
1, 6815, Note_on_c, 1, 58, 0
1, 6816, Note_on_c, 0, 70, 85
1, 6816, Note_on_c, 0, 67, 85
1, 6816, Note_on_c, 1, 50, 85
1, 6839, Note_on_c, 1, 50, 0
1, 6840, Note_on_c, 1, 58, 85
1, 6861, Note_on_c, 0, 70, 0
1, 6861, Note_on_c, 0, 67, 0
1, 6863, Note_on_c, 1, 58, 0
1, 6864, Note_on_c, 0, 68, 85
1, 6864, Note_on_c, 0, 65, 85
1, 6864, Note_on_c, 1, 46, 85
1, 6887, Note_on_c, 1, 46, 0
1, 6888, Note_on_c, 1, 58, 85
1, 6901, Note_on_c, 0, 62, 0
1, 6909, Note_on_c, 0, 68, 0
1, 6909, Note_on_c, 0, 65, 0
1, 6911, Note_on_c, 1, 58, 0
1, 6912, Note_on_c, 0, 67, 85
1, 6912, Note_on_c, 0, 65, 85
1, 6912, Note_on_c, 1, 48, 85
1, 6920, Note_on_c, 0, 67, 0
1, 6920, Note_on_c, 0, 68, 85
1, 6928, Note_on_c, 0, 68, 0
1, 6928, Note_on_c, 0, 70, 85
1, 6935, Note_on_c, 1, 48, 0
1, 6936, Note_on_c, 0, 70, 0
1, 6936, Note_on_c, 0, 68, 85
1, 6936, Note_on_c, 1, 60, 85
1, 6959, Note_on_c, 1, 60, 0
1, 6960, Note_on_c, 1, 59, 85
1, 6983, Note_on_c, 1, 59, 0
1, 6984, Note_on_c, 1, 60, 85
1, 7001, Note_on_c, 0, 65, 0
1, 7003, Note_on_c, 0, 68, 0
1, 7007, Note_on_c, 1, 60, 0
1, 7008, Note_on_c, 0, 67, 85
1, 7008, Note_on_c, 0, 63, 85
1, 7008, Note_on_c, 1, 48, 85
1, 7031, Note_on_c, 1, 48, 0
1, 7032, Note_on_c, 1, 60, 85
1, 7053, Note_on_c, 0, 67, 0
1, 7053, Note_on_c, 0, 63, 0
1, 7055, Note_on_c, 1, 60, 0
1, 7056, Note_on_c, 0, 70, 92
1, 7056, Note_on_c, 0, 63, 92
1, 7056, Note_on_c, 0, 61, 85
1, 7056, Note_on_c, 1, 43, 92
1, 7068, Note_on_c, 1, 43, 0
1, 7068, Note_on_c, 1, 51, 92
1, 7080, Note_on_c, 1, 51, 0
1, 7080, Note_on_c, 1, 46, 92
1, 7092, Note_on_c, 1, 46, 0
1, 7092, Note_on_c, 1, 51, 92
1, 7104, Note_on_c, 1, 51, 0
1, 7104, Note_on_c, 1, 43, 92
1, 7116, Note_on_c, 1, 43, 0
1, 7116, Note_on_c, 1, 51, 92
1, 7128, Note_on_c, 1, 51, 0
1, 7128, Note_on_c, 1, 46, 92
1, 7140, Note_on_c, 1, 46, 0
1, 7140, Note_on_c, 1, 51, 92
1, 7152, Note_on_c, 1, 51, 0
1, 7152, Note_on_c, 1, 43, 92
1, 7164, Note_on_c, 1, 43, 0
1, 7164, Note_on_c, 1, 51, 92
1, 7176, Note_on_c, 1, 51, 0
1, 7176, Note_on_c, 1, 46, 92
1, 7188, Note_on_c, 1, 46, 0
1, 7188, Note_on_c, 1, 51, 92
1, 7189, Note_on_c, 0, 70, 0
1, 7189, Note_on_c, 0, 63, 0
1, 7189, Note_on_c, 0, 61, 0
1, 7200, Note_on_c, 0, 70, 92
1, 7200, Note_on_c, 0, 63, 85
1, 7200, Note_on_c, 0, 60, 85
1, 7200, Note_on_c, 1, 51, 0
1, 7200, Note_on_c, 1, 44, 92
1, 7212, Note_on_c, 1, 44, 0
1, 7212, Note_on_c, 1, 56, 92
1, 7224, Note_on_c, 1, 56, 0
1, 7224, Note_on_c, 1, 51, 92
1, 7236, Note_on_c, 1, 51, 0
1, 7236, Note_on_c, 1, 56, 92
1, 7248, Note_on_c, 1, 56, 0
1, 7248, Note_on_c, 1, 44, 92
1, 7260, Note_on_c, 1, 44, 0
1, 7260, Note_on_c, 1, 56, 92
1, 7267, Note_on_c, 0, 70, 0
1, 7272, Note_on_c, 0, 68, 92
1, 7272, Note_on_c, 1, 56, 0
1, 7272, Note_on_c, 1, 51, 92
1, 7284, Note_on_c, 1, 51, 0
1, 7284, Note_on_c, 1, 56, 92
1, 7295, Note_on_c, 0, 68, 0
1, 7296, Note_on_c, 0, 67, 92
1, 7296, Note_on_c, 1, 56, 0
1, 7296, Note_on_c, 1, 44, 92
1, 7308, Note_on_c, 1, 44, 0
1, 7308, Note_on_c, 1, 56, 92
1, 7319, Note_on_c, 0, 67, 0
1, 7320, Note_on_c, 0, 65, 92
1, 7320, Note_on_c, 1, 56, 0
1, 7320, Note_on_c, 1, 51, 92
1, 7332, Note_on_c, 1, 51, 0
1, 7332, Note_on_c, 1, 56, 92
1, 7333, Note_on_c, 0, 63, 0
1, 7333, Note_on_c, 0, 60, 0
1, 7343, Note_on_c, 0, 65, 0
1, 7344, Note_on_c, 0, 63, 92
1, 7344, Note_on_c, 0, 58, 85
1, 7344, Note_on_c, 1, 56, 0
1, 7344, Note_on_c, 1, 46, 92
1, 7356, Note_on_c, 1, 46, 0
1, 7356, Note_on_c, 1, 55, 92
1, 7368, Note_on_c, 1, 55, 0
1, 7368, Note_on_c, 1, 51, 92
1, 7380, Note_on_c, 1, 51, 0
1, 7380, Note_on_c, 1, 55, 92
1, 7392, Note_on_c, 1, 55, 0
1, 7392, Note_on_c, 1, 46, 92
1, 7404, Note_on_c, 1, 46, 0
1, 7404, Note_on_c, 1, 55, 92
1, 7416, Note_on_c, 1, 55, 0
1, 7416, Note_on_c, 1, 51, 92
1, 7428, Note_on_c, 1, 51, 0
1, 7428, Note_on_c, 1, 55, 92
1, 7433, Note_on_c, 0, 63, 0
1, 7433, Note_on_c, 0, 58, 0
1, 7440, Note_on_c, 0, 67, 92
1, 7440, Note_on_c, 0, 62, 85
1, 7440, Note_on_c, 1, 55, 0
1, 7440, Note_on_c, 1, 46, 92
1, 7452, Note_on_c, 0, 67, 0
1, 7452, Note_on_c, 0, 65, 92
1, 7452, Note_on_c, 1, 46, 0
1, 7452, Note_on_c, 1, 56, 92
1, 7464, Note_on_c, 1, 56, 0
1, 7464, Note_on_c, 1, 53, 92
1, 7475, Note_on_c, 0, 65, 0
1, 7476, Note_on_c, 0, 63, 92
1, 7476, Note_on_c, 1, 53, 0
1, 7476, Note_on_c, 1, 56, 92
1, 7485, Note_on_c, 0, 62, 0
1, 7488, Note_on_c, 0, 63, 0
1, 7488, Note_on_c, 0, 63, 92
1, 7488, Note_on_c, 0, 63, 85
1, 7488, Note_on_c, 1, 56, 0
1, 7488, Note_on_c, 1, 55, 92
1, 7488, Note_on_c, 1, 51, 92
1, 7533, Note_on_c, 0, 63, 0
1, 7533, Note_on_c, 0, 63, 0
1, 7533, Note_on_c, 1, 55, 0
1, 7533, Note_on_c, 1, 51, 0
1, 7584, Note_on_c, 0, 58, 58
1, 7584, Note_on_c, 0, 55, 58
1, 7584, Note_on_c, 0, 55, 85
1, 7604, Note_on_c, 0, 58, 0
1, 7604, Note_on_c, 0, 55, 0
1, 7629, Note_on_c, 0, 55, 0
1, 7632, Note_on_c, 0, 55, 58
1, 7632, Note_on_c, 0, 51, 58
1, 7632, Note_on_c, 0, 51, 85
1, 7652, Note_on_c, 0, 55, 0
1, 7652, Note_on_c, 0, 51, 0
1, 7677, Note_on_c, 0, 51, 0
1, 7752, Note_on_c, 0, 70, 78
1, 7764, Note_on_c, 0, 70, 0
1, 7764, Note_on_c, 0, 75, 78
1, 7776, Note_on_c, 0, 75, 0
1, 7776, Note_on_c, 0, 79, 78
1, 7843, Note_on_c, 0, 79, 0
1, 7848, Note_on_c, 0, 77, 78
1, 7871, Note_on_c, 0, 77, 0
1, 7872, Note_on_c, 0, 75, 78
1, 7872, Note_on_c, 1, 67, 78
1, 7872, Note_on_c, 1, 63, 78
1, 7917, Note_on_c, 0, 75, 0
1, 7920, Note_on_c, 0, 74, 78
1, 7920, Note_on_c, 1, 67, 0
1, 7920, Note_on_c, 1, 63, 0
1, 7920, Note_on_c, 1, 68, 78
1, 7920, Note_on_c, 1, 65, 78
1, 7965, Note_on_c, 0, 74, 0
1, 7965, Note_on_c, 1, 68, 0
1, 7965, Note_on_c, 1, 65, 0
1, 7968, Note_on_c, 0, 80, 78
1, 7968, Note_on_c, 0, 77, 78
1, 7988, Note_on_c, 0, 80, 0
1, 7988, Note_on_c, 0, 77, 0
1, 8016, Note_on_c, 0, 58, 78
1, 8020, Note_on_c, 0, 58, 0
1, 8020, Note_on_c, 0, 60, 78
1, 8024, Note_on_c, 0, 60, 0
1, 8024, Note_on_c, 0, 62, 78
1, 8028, Note_on_c, 0, 62, 0
1, 8028, Note_on_c, 0, 63, 78
1, 8031, Note_on_c, 0, 63, 0
1, 8031, Note_on_c, 0, 65, 78
1, 8034, Note_on_c, 0, 65, 0
1, 8034, Note_on_c, 0, 67, 78
1, 8037, Note_on_c, 0, 67, 0
1, 8037, Note_on_c, 0, 68, 78
1, 8040, Note_on_c, 0, 68, 0
1, 8040, Note_on_c, 0, 70, 78
1, 8043, Note_on_c, 0, 70, 0
1, 8043, Note_on_c, 0, 72, 78
1, 8046, Note_on_c, 0, 72, 0
1, 8046, Note_on_c, 0, 74, 78
1, 8049, Note_on_c, 0, 74, 0
1, 8049, Note_on_c, 0, 75, 78
1, 8052, Note_on_c, 0, 75, 0
1, 8052, Note_on_c, 0, 77, 78
1, 8055, Note_on_c, 0, 77, 0
1, 8055, Note_on_c, 0, 79, 78
1, 8058, Note_on_c, 0, 79, 0
1, 8058, Note_on_c, 0, 80, 78
1, 8061, Note_on_c, 0, 80, 0
1, 8061, Note_on_c, 0, 82, 78
1, 8064, Note_on_c, 0, 82, 0
1, 8064, Note_on_c, 0, 84, 78
1, 8064, Note_on_c, 0, 80, 78
1, 8131, Note_on_c, 0, 84, 0
1, 8131, Note_on_c, 0, 80, 0
1, 8136, Note_on_c, 0, 82, 78
1, 8136, Note_on_c, 0, 79, 78
1, 8159, Note_on_c, 0, 82, 0
1, 8159, Note_on_c, 0, 79, 0
1, 8160, Note_on_c, 0, 80, 78
1, 8160, Note_on_c, 0, 77, 78
1, 8160, Note_on_c, 1, 70, 78
1, 8160, Note_on_c, 1, 62, 78
1, 8205, Note_on_c, 0, 80, 0
1, 8205, Note_on_c, 0, 77, 0
1, 8208, Note_on_c, 0, 79, 78
1, 8208, Note_on_c, 0, 75, 78
1, 8208, Note_on_c, 1, 62, 0
1, 8208, Note_on_c, 1, 63, 78
1, 8228, Note_on_c, 0, 79, 0
1, 8228, Note_on_c, 0, 75, 0
1, 8256, Note_on_c, 0, 82, 78
1, 8256, Note_on_c, 0, 79, 78
1, 8276, Note_on_c, 0, 82, 0
1, 8276, Note_on_c, 0, 79, 0
1, 8297, Note_on_c, 1, 70, 0
1, 8297, Note_on_c, 1, 63, 0
1, 8352, Note_on_c, 0, 67, 78
1, 8352, Note_on_c, 0, 63, 78
1, 8352, Note_on_c, 1, 51, 64
1, 8372, Note_on_c, 0, 67, 0
1, 8372, Note_on_c, 0, 63, 0
1, 8376, Note_on_c, 1, 61, 78
1, 8399, Note_on_c, 1, 61, 0
1, 8400, Note_on_c, 0, 82, 78
1, 8400, Note_on_c, 0, 79, 78
1, 8400, Note_on_c, 1, 58, 78
1, 8420, Note_on_c, 0, 82, 0
1, 8420, Note_on_c, 0, 79, 0
1, 8423, Note_on_c, 1, 58, 0
1, 8424, Note_on_c, 1, 61, 78
1, 8447, Note_on_c, 1, 61, 0
1, 8448, Note_on_c, 1, 58, 78
1, 8471, Note_on_c, 1, 58, 0
1, 8472, Note_on_c, 1, 61, 78
1, 8485, Note_on_c, 1, 51, 0
1, 8495, Note_on_c, 1, 61, 0
1, 8496, Note_on_c, 0, 67, 78
1, 8496, Note_on_c, 0, 60, 78
1, 8496, Note_on_c, 1, 52, 64
1, 8516, Note_on_c, 0, 67, 0
1, 8516, Note_on_c, 0, 60, 0
1, 8520, Note_on_c, 1, 60, 78
1, 8543, Note_on_c, 1, 60, 0
1, 8544, Note_on_c, 0, 82, 78
1, 8544, Note_on_c, 0, 79, 78
1, 8544, Note_on_c, 1, 59, 78
1, 8564, Note_on_c, 0, 82, 0
1, 8564, Note_on_c, 0, 79, 0
1, 8567, Note_on_c, 1, 59, 0
1, 8568, Note_on_c, 1, 60, 78
1, 8591, Note_on_c, 1, 60, 0
1, 8592, Note_on_c, 1, 55, 78
1, 8615, Note_on_c, 1, 55, 0
1, 8616, Note_on_c, 1, 60, 78
1, 8629, Note_on_c, 1, 52, 0
1, 8639, Note_on_c, 1, 60, 0
1, 8640, Note_on_c, 0, 68, 78
1, 8640, Note_on_c, 0, 65, 78
1, 8640, Note_on_c, 1, 53, 64
1, 8660, Note_on_c, 0, 68, 0
1, 8660, Note_on_c, 0, 65, 0
1, 8664, Note_on_c, 1, 60, 78
1, 8687, Note_on_c, 1, 60, 0
1, 8688, Note_on_c, 0, 80, 78
1, 8688, Note_on_c, 0, 77, 78
1, 8688, Note_on_c, 1, 59, 78
1, 8708, Note_on_c, 0, 80, 0
1, 8708, Note_on_c, 0, 77, 0
1, 8711, Note_on_c, 1, 59, 0
1, 8712, Note_on_c, 1, 60, 78
1, 8735, Note_on_c, 1, 60, 0
1, 8736, Note_on_c, 1, 56, 78
1, 8759, Note_on_c, 1, 56, 0
1, 8760, Note_on_c, 1, 60, 78
1, 8773, Note_on_c, 1, 53, 0
1, 8783, Note_on_c, 1, 60, 0
1, 8784, Note_on_c, 0, 68, 78
1, 8784, Note_on_c, 0, 65, 78
1, 8784, Note_on_c, 1, 53, 64
1, 8808, Note_on_c, 1, 62, 78
1, 8829, Note_on_c, 0, 68, 0
1, 8829, Note_on_c, 0, 65, 0
1, 8831, Note_on_c, 1, 62, 0
1, 8832, Note_on_c, 0, 80, 78
1, 8832, Note_on_c, 0, 77, 78
1, 8832, Note_on_c, 1, 59, 78
1, 8855, Note_on_c, 1, 59, 0
1, 8856, Note_on_c, 1, 62, 78
1, 8877, Note_on_c, 0, 80, 0
1, 8877, Note_on_c, 0, 77, 0
1, 8879, Note_on_c, 1, 62, 0
1, 8880, Note_on_c, 0, 80, 78
1, 8880, Note_on_c, 0, 77, 78
1, 8880, Note_on_c, 1, 59, 78
1, 8903, Note_on_c, 1, 59, 0
1, 8904, Note_on_c, 1, 62, 78
1, 8917, Note_on_c, 1, 53, 0
1, 8925, Note_on_c, 0, 80, 0
1, 8925, Note_on_c, 0, 77, 0
1, 8927, Note_on_c, 1, 62, 0
1, 8928, Note_on_c, 0, 79, 78
1, 8928, Note_on_c, 1, 51, 64
1, 8952, Note_on_c, 1, 60, 78
1, 8975, Note_on_c, 1, 60, 0
1, 8976, Note_on_c, 1, 55, 78
1, 8999, Note_on_c, 1, 55, 0
1, 9000, Note_on_c, 1, 60, 78
1, 9023, Note_on_c, 1, 60, 0
1, 9024, Note_on_c, 0, 79, 0
1, 9024, Note_on_c, 0, 77, 78
1, 9024, Note_on_c, 1, 51, 78
1, 9036, Note_on_c, 0, 77, 0
1, 9036, Note_on_c, 0, 75, 78
1, 9047, Note_on_c, 1, 51, 0
1, 9048, Note_on_c, 0, 75, 0
1, 9048, Note_on_c, 0, 74, 78
1, 9048, Note_on_c, 1, 60, 78
1, 9060, Note_on_c, 0, 74, 0
1, 9060, Note_on_c, 0, 72, 78
1, 9061, Note_on_c, 1, 51, 0
1, 9071, Note_on_c, 1, 60, 0
1, 9072, Note_on_c, 0, 72, 0
1, 9072, Note_on_c, 0, 77, 78
1, 9072, Note_on_c, 0, 74, 78
1, 9072, Note_on_c, 1, 47, 64
1, 9096, Note_on_c, 1, 55, 78
1, 9119, Note_on_c, 1, 55, 0
1, 9120, Note_on_c, 1, 50, 78
1, 9143, Note_on_c, 1, 50, 0
1, 9144, Note_on_c, 1, 55, 78
1, 9161, Note_on_c, 0, 77, 0
1, 9161, Note_on_c, 0, 74, 0
1, 9161, Note_on_c, 1, 47, 0
1, 9167, Note_on_c, 1, 55, 0
1, 9168, Note_on_c, 0, 77, 78
1, 9168, Note_on_c, 1, 48, 78
1, 9168, Note_on_c, 1, 48, 64
1, 9180, Note_on_c, 0, 77, 0
1, 9180, Note_on_c, 0, 75, 78
1, 9191, Note_on_c, 1, 48, 0
1, 9192, Note_on_c, 0, 75, 0
1, 9192, Note_on_c, 0, 74, 78
1, 9192, Note_on_c, 1, 55, 78
1, 9204, Note_on_c, 0, 74, 0
1, 9204, Note_on_c, 0, 72, 78
1, 9213, Note_on_c, 1, 48, 0
1, 9215, Note_on_c, 1, 55, 0
1, 9216, Note_on_c, 0, 72, 0
1, 9216, Note_on_c, 0, 71, 78
1, 9216, Note_on_c, 1, 43, 78
1, 9239, Note_on_c, 1, 43, 0
1, 9240, Note_on_c, 1, 55, 78
1, 9261, Note_on_c, 0, 71, 0
1, 9263, Note_on_c, 1, 55, 0
1, 9264, Note_on_c, 0, 79, 78
1, 9264, Note_on_c, 0, 71, 78
1, 9264, Note_on_c, 1, 50, 78
1, 9287, Note_on_c, 1, 50, 0
1, 9288, Note_on_c, 1, 55, 78
1, 9309, Note_on_c, 0, 79, 0
1, 9309, Note_on_c, 0, 71, 0
1, 9311, Note_on_c, 1, 55, 0
1, 9312, Note_on_c, 0, 79, 78
1, 9312, Note_on_c, 0, 71, 78
1, 9312, Note_on_c, 1, 47, 78
1, 9335, Note_on_c, 1, 47, 0
1, 9336, Note_on_c, 1, 50, 78
1, 9357, Note_on_c, 0, 79, 0
1, 9357, Note_on_c, 0, 71, 0
1, 9359, Note_on_c, 1, 50, 0
1, 9360, Note_on_c, 0, 79, 78
1, 9360, Note_on_c, 0, 71, 78
1, 9360, Note_on_c, 1, 43, 78
1, 9405, Note_on_c, 0, 79, 0
1, 9405, Note_on_c, 0, 71, 0
1, 9405, Note_on_c, 1, 43, 0
1, 9480, Note_on_c, 0, 55, 78
1, 9492, Note_on_c, 0, 55, 0
1, 9492, Note_on_c, 0, 60, 78
1, 9504, Note_on_c, 0, 60, 0
1, 9504, Note_on_c, 0, 63, 78
1, 9571, Note_on_c, 0, 63, 0
1, 9576, Note_on_c, 0, 62, 78
1, 9599, Note_on_c, 0, 62, 0
1, 9600, Note_on_c, 0, 60, 78
1, 9600, Note_on_c, 1, 51, 78
1, 9600, Note_on_c, 1, 48, 78
1, 9645, Note_on_c, 0, 60, 0
1, 9648, Note_on_c, 0, 59, 78
1, 9648, Note_on_c, 1, 51, 0
1, 9648, Note_on_c, 1, 48, 0
1, 9648, Note_on_c, 1, 53, 78
1, 9648, Note_on_c, 1, 50, 78
1, 9682, Note_on_c, 0, 59, 0
1, 9684, Note_on_c, 0, 80, 78
1, 9693, Note_on_c, 1, 53, 0
1, 9693, Note_on_c, 1, 50, 0
1, 9696, Note_on_c, 0, 80, 0
1, 9696, Note_on_c, 0, 80, 78
1, 9708, Note_on_c, 0, 80, 0
1, 9708, Note_on_c, 0, 79, 78
1, 9720, Note_on_c, 0, 79, 0
1, 9720, Note_on_c, 0, 79, 78
1, 9732, Note_on_c, 0, 79, 0
1, 9732, Note_on_c, 0, 77, 78
1, 9744, Note_on_c, 0, 77, 0
1, 9744, Note_on_c, 0, 77, 78
1, 9756, Note_on_c, 0, 77, 0
1, 9756, Note_on_c, 0, 75, 78
1, 9768, Note_on_c, 0, 75, 0
1, 9768, Note_on_c, 0, 75, 78
1, 9780, Note_on_c, 0, 75, 0
1, 9780, Note_on_c, 0, 74, 78
1, 9792, Note_on_c, 0, 74, 0
1, 9792, Note_on_c, 0, 74, 78
1, 9804, Note_on_c, 0, 74, 0
1, 9804, Note_on_c, 0, 72, 78
1, 9816, Note_on_c, 0, 72, 0
1, 9816, Note_on_c, 0, 72, 78
1, 9828, Note_on_c, 0, 72, 0
1, 9828, Note_on_c, 0, 71, 78
1, 9840, Note_on_c, 0, 71, 0
1, 9840, Note_on_c, 0, 71, 78
1, 9852, Note_on_c, 0, 71, 0
1, 9852, Note_on_c, 0, 68, 78
1, 9864, Note_on_c, 0, 68, 0
1, 9864, Note_on_c, 0, 67, 78
1, 9876, Note_on_c, 0, 67, 0
1, 9876, Note_on_c, 0, 65, 78
1, 9888, Note_on_c, 0, 65, 0
1, 9888, Note_on_c, 0, 63, 78
1, 9888, Note_on_c, 1, 53, 78
1, 9888, Note_on_c, 1, 50, 78
1, 9900, Note_on_c, 0, 63, 0
1, 9900, Note_on_c, 0, 62, 78
1, 9912, Note_on_c, 0, 62, 0
1, 9912, Note_on_c, 0, 60, 78
1, 9924, Note_on_c, 0, 60, 0
1, 9924, Note_on_c, 0, 59, 78
1, 9936, Note_on_c, 0, 59, 0
1, 9936, Note_on_c, 0, 60, 78
1, 9936, Note_on_c, 1, 53, 0
1, 9936, Note_on_c, 1, 50, 0
1, 9936, Note_on_c, 1, 55, 78
1, 9936, Note_on_c, 1, 51, 78
1, 9948, Note_on_c, 0, 60, 0
1, 9948, Note_on_c, 0, 55, 78
1, 9960, Note_on_c, 0, 55, 0
1, 9960, Note_on_c, 0, 63, 78
1, 9972, Note_on_c, 0, 63, 0
1, 9972, Note_on_c, 0, 60, 78
1, 9981, Note_on_c, 1, 55, 0
1, 9981, Note_on_c, 1, 51, 0
1, 9984, Note_on_c, 0, 60, 0
1, 9984, Note_on_c, 0, 67, 78
1, 9996, Note_on_c, 0, 67, 0
1, 9996, Note_on_c, 0, 63, 78
1, 10008, Note_on_c, 0, 63, 0
1, 10008, Note_on_c, 0, 72, 78
1, 10020, Note_on_c, 0, 72, 0
1, 10020, Note_on_c, 0, 67, 78
1, 10032, Note_on_c, 0, 67, 0
1, 10032, Note_on_c, 0, 75, 78
1, 10044, Note_on_c, 0, 75, 0
1, 10044, Note_on_c, 0, 72, 78
1, 10056, Note_on_c, 0, 72, 0
1, 10056, Note_on_c, 0, 79, 78
1, 10068, Note_on_c, 0, 79, 0
1, 10068, Note_on_c, 0, 75, 78
1, 10080, Note_on_c, 0, 75, 0
1, 10080, Note_on_c, 0, 84, 78
1, 10114, Note_on_c, 0, 84, 0
1, 10116, Note_on_c, 0, 79, 78
1, 10128, Note_on_c, 0, 79, 0
1, 10128, Note_on_c, 0, 84, 78
1, 10140, Note_on_c, 0, 84, 0
1, 10140, Note_on_c, 0, 79, 78
1, 10152, Note_on_c, 0, 79, 0
1, 10152, Note_on_c, 0, 84, 78
1, 10164, Note_on_c, 0, 84, 0
1, 10164, Note_on_c, 0, 79, 78
1, 10176, Note_on_c, 0, 79, 0
1, 10176, Note_on_c, 0, 84, 85
1, 10176, Note_on_c, 1, 72, 85
1, 10176, Note_on_c, 1, 63, 85
1, 10188, Note_on_c, 0, 84, 0
1, 10188, Note_on_c, 0, 79, 85
1, 10200, Note_on_c, 0, 79, 0
1, 10200, Note_on_c, 0, 84, 85
1, 10212, Note_on_c, 0, 84, 0
1, 10212, Note_on_c, 0, 79, 85
1, 10221, Note_on_c, 1, 72, 0
1, 10221, Note_on_c, 1, 63, 0
1, 10224, Note_on_c, 0, 79, 0
1, 10224, Note_on_c, 0, 82, 85
1, 10224, Note_on_c, 1, 72, 85
1, 10224, Note_on_c, 1, 65, 85
1, 10269, Note_on_c, 0, 82, 0
1, 10272, Note_on_c, 0, 80, 85
1, 10278, Note_on_c, 0, 80, 0
1, 10278, Note_on_c, 0, 82, 85
1, 10284, Note_on_c, 0, 82, 0
1, 10284, Note_on_c, 0, 80, 85
1, 10313, Note_on_c, 1, 72, 0
1, 10313, Note_on_c, 1, 65, 0
1, 10318, Note_on_c, 0, 80, 0
1, 10320, Note_on_c, 0, 80, 85
1, 10320, Note_on_c, 1, 72, 85
1, 10320, Note_on_c, 1, 63, 85
1, 10326, Note_on_c, 0, 80, 0
1, 10326, Note_on_c, 0, 79, 85
1, 10332, Note_on_c, 0, 79, 0
1, 10332, Note_on_c, 0, 77, 85
1, 10338, Note_on_c, 0, 77, 0
1, 10338, Note_on_c, 0, 79, 85
1, 10344, Note_on_c, 0, 79, 0
1, 10344, Note_on_c, 0, 79, 85
1, 10354, Note_on_c, 0, 79, 0
1, 10356, Note_on_c, 0, 80, 85
1, 10365, Note_on_c, 1, 72, 0
1, 10365, Note_on_c, 1, 63, 0
1, 10368, Note_on_c, 0, 80, 0
1, 10368, Note_on_c, 0, 79, 85
1, 10368, Note_on_c, 1, 71, 85
1, 10368, Note_on_c, 1, 62, 85
1, 10413, Note_on_c, 0, 79, 0
1, 10416, Note_on_c, 0, 77, 85
1, 10422, Note_on_c, 0, 77, 0
1, 10422, Note_on_c, 0, 79, 85
1, 10428, Note_on_c, 0, 79, 0
1, 10428, Note_on_c, 0, 77, 85
1, 10439, Note_on_c, 0, 77, 0
1, 10440, Note_on_c, 0, 75, 85
1, 10452, Note_on_c, 0, 75, 0
1, 10452, Note_on_c, 0, 74, 85
1, 10457, Note_on_c, 1, 71, 0
1, 10457, Note_on_c, 1, 62, 0
1, 10464, Note_on_c, 0, 74, 0
1, 10464, Note_on_c, 0, 77, 85
1, 10464, Note_on_c, 1, 72, 85
1, 10464, Note_on_c, 1, 60, 85
1, 10476, Note_on_c, 0, 77, 0
1, 10476, Note_on_c, 0, 75, 85
1, 10488, Note_on_c, 0, 75, 0
1, 10488, Note_on_c, 0, 74, 85
1, 10500, Note_on_c, 0, 74, 0
1, 10500, Note_on_c, 0, 72, 85
1, 10509, Note_on_c, 1, 72, 0
1, 10509, Note_on_c, 1, 60, 0
1, 10512, Note_on_c, 0, 72, 0
1, 10512, Note_on_c, 0, 79, 85
1, 10512, Note_on_c, 0, 71, 85
1, 10512, Note_on_c, 1, 67, 85
1, 10512, Note_on_c, 1, 55, 85
1, 10557, Note_on_c, 0, 79, 0
1, 10557, Note_on_c, 0, 71, 0
1, 10601, Note_on_c, 1, 67, 0
1, 10601, Note_on_c, 1, 55, 0
1, 10632, Note_on_c, 0, 71, 78
1, 10644, Note_on_c, 0, 71, 0
1, 10644, Note_on_c, 0, 74, 78
1, 10656, Note_on_c, 0, 74, 0
1, 10656, Note_on_c, 0, 77, 78
1, 10656, Note_on_c, 0, 74, 78
1, 10723, Note_on_c, 0, 77, 0
1, 10723, Note_on_c, 0, 74, 0
1, 10728, Note_on_c, 0, 75, 78
1, 10728, Note_on_c, 0, 72, 78
1, 10751, Note_on_c, 0, 75, 0
1, 10751, Note_on_c, 0, 72, 0
1, 10752, Note_on_c, 0, 74, 78
1, 10752, Note_on_c, 0, 71, 78
1, 10752, Note_on_c, 1, 65, 78
1, 10797, Note_on_c, 0, 74, 0
1, 10797, Note_on_c, 0, 71, 0
1, 10797, Note_on_c, 1, 65, 0
1, 10800, Note_on_c, 0, 79, 78
1, 10800, Note_on_c, 0, 75, 78
1, 10800, Note_on_c, 1, 63, 78
1, 10867, Note_on_c, 0, 79, 0
1, 10867, Note_on_c, 0, 75, 0
1, 10872, Note_on_c, 0, 77, 78
1, 10872, Note_on_c, 0, 74, 78
1, 10889, Note_on_c, 1, 63, 0
1, 10895, Note_on_c, 0, 77, 0
1, 10895, Note_on_c, 0, 74, 0
1, 10896, Note_on_c, 0, 75, 78
1, 10896, Note_on_c, 0, 72, 78
1, 10896, Note_on_c, 1, 68, 78
1, 10941, Note_on_c, 0, 75, 0
1, 10941, Note_on_c, 0, 72, 0
1, 10941, Note_on_c, 1, 68, 0
1, 10944, Note_on_c, 1, 65, 78
1, 10956, Note_on_c, 0, 73, 78
1, 10968, Note_on_c, 0, 73, 0
1, 10968, Note_on_c, 0, 72, 78
1, 10980, Note_on_c, 0, 72, 0
1, 10980, Note_on_c, 0, 73, 78
1, 10992, Note_on_c, 0, 73, 0
1, 10992, Note_on_c, 0, 75, 78
1, 11004, Note_on_c, 0, 75, 0
1, 11004, Note_on_c, 0, 73, 78
1, 11016, Note_on_c, 0, 73, 0
1, 11016, Note_on_c, 0, 77, 78
1, 11028, Note_on_c, 0, 77, 0
1, 11028, Note_on_c, 0, 75, 78
1, 11033, Note_on_c, 1, 65, 0
1, 11040, Note_on_c, 0, 75, 0
1, 11040, Note_on_c, 0, 79, 78
1, 11052, Note_on_c, 0, 79, 0
1, 11052, Note_on_c, 0, 77, 78
1, 11064, Note_on_c, 0, 77, 0
1, 11064, Note_on_c, 0, 75, 78
1, 11076, Note_on_c, 0, 75, 0
1, 11076, Note_on_c, 0, 73, 78
1, 11088, Note_on_c, 0, 73, 0
1, 11088, Note_on_c, 0, 72, 78
1, 11088, Note_on_c, 1, 63, 78
1, 11088, Note_on_c, 1, 55, 64
1, 11133, Note_on_c, 0, 72, 0
1, 11136, Note_on_c, 0, 74, 78
1, 11142, Note_on_c, 0, 74, 0
1, 11142, Note_on_c, 0, 72, 78
1, 11148, Note_on_c, 0, 72, 0
1, 11148, Note_on_c, 0, 71, 78
1, 11154, Note_on_c, 0, 71, 0
1, 11154, Note_on_c, 0, 72, 78
1, 11160, Note_on_c, 0, 72, 0
1, 11160, Note_on_c, 0, 74, 78
1, 11177, Note_on_c, 1, 63, 0
1, 11183, Note_on_c, 0, 74, 0
1, 11184, Note_on_c, 0, 71, 78
1, 11184, Note_on_c, 1, 62, 78
1, 11221, Note_on_c, 1, 55, 0
1, 11229, Note_on_c, 0, 71, 0
1, 11229, Note_on_c, 1, 62, 0
1, 11232, Note_on_c, 0, 79, 78
1, 11232, Note_on_c, 1, 39, 78
1, 11255, Note_on_c, 1, 39, 0
1, 11256, Note_on_c, 1, 48, 78
1, 11279, Note_on_c, 1, 48, 0
1, 11280, Note_on_c, 1, 43, 78
1, 11299, Note_on_c, 0, 79, 0
1, 11303, Note_on_c, 1, 43, 0
1, 11304, Note_on_c, 0, 77, 78
1, 11304, Note_on_c, 1, 48, 78
1, 11316, Note_on_c, 0, 77, 0
1, 11316, Note_on_c, 0, 75, 78
1, 11327, Note_on_c, 1, 48, 0
1, 11328, Note_on_c, 0, 75, 0
1, 11328, Note_on_c, 0, 74, 78
1, 11328, Note_on_c, 1, 39, 78
1, 11340, Note_on_c, 0, 74, 0
1, 11340, Note_on_c, 0, 72, 78
1, 11351, Note_on_c, 1, 39, 0
1, 11352, Note_on_c, 0, 72, 0
1, 11352, Note_on_c, 0, 71, 78
1, 11352, Note_on_c, 1, 48, 78
1, 11364, Note_on_c, 0, 71, 0
1, 11364, Note_on_c, 0, 72, 78
1, 11375, Note_on_c, 1, 48, 0
1, 11376, Note_on_c, 0, 72, 0
1, 11376, Note_on_c, 0, 72, 78
1, 11376, Note_on_c, 1, 41, 78
1, 11399, Note_on_c, 1, 41, 0
1, 11400, Note_on_c, 1, 48, 78
1, 11423, Note_on_c, 1, 48, 0
1, 11424, Note_on_c, 1, 44, 78
1, 11443, Note_on_c, 0, 72, 0
1, 11447, Note_on_c, 1, 44, 0
1, 11448, Note_on_c, 0, 70, 78
1, 11448, Note_on_c, 1, 48, 78
1, 11460, Note_on_c, 0, 70, 0
1, 11460, Note_on_c, 0, 68, 78
1, 11471, Note_on_c, 1, 48, 0
1, 11472, Note_on_c, 0, 68, 0
1, 11472, Note_on_c, 0, 67, 78
1, 11472, Note_on_c, 1, 41, 78
1, 11484, Note_on_c, 0, 67, 0
1, 11484, Note_on_c, 0, 68, 78
1, 11495, Note_on_c, 1, 41, 0
1, 11496, Note_on_c, 0, 68, 0
1, 11496, Note_on_c, 0, 67, 78
1, 11496, Note_on_c, 1, 48, 78
1, 11508, Note_on_c, 0, 67, 0
1, 11508, Note_on_c, 0, 68, 78
1, 11519, Note_on_c, 1, 48, 0
1, 11520, Note_on_c, 0, 68, 0
1, 11520, Note_on_c, 0, 68, 78
1, 11520, Note_on_c, 0, 65, 85
1, 11520, Note_on_c, 0, 62, 85
1, 11520, Note_on_c, 0, 59, 85
1, 11520, Note_on_c, 1, 43, 78
1, 11543, Note_on_c, 1, 43, 0
1, 11544, Note_on_c, 1, 55, 78
1, 11567, Note_on_c, 1, 55, 0
1, 11568, Note_on_c, 1, 47, 78
1, 11587, Note_on_c, 0, 68, 0
1, 11591, Note_on_c, 1, 47, 0
1, 11592, Note_on_c, 0, 67, 78
1, 11592, Note_on_c, 1, 55, 78
1, 11609, Note_on_c, 0, 65, 0
1, 11609, Note_on_c, 0, 62, 0
1, 11609, Note_on_c, 0, 59, 0
1, 11615, Note_on_c, 0, 67, 0
1, 11615, Note_on_c, 1, 55, 0
1, 11616, Note_on_c, 0, 65, 78
1, 11616, Note_on_c, 0, 62, 85
1, 11616, Note_on_c, 1, 43, 78
1, 11639, Note_on_c, 1, 43, 0
1, 11640, Note_on_c, 1, 55, 78
1, 11661, Note_on_c, 0, 65, 0
1, 11661, Note_on_c, 0, 62, 0
1, 11663, Note_on_c, 1, 55, 0
1, 11664, Note_on_c, 0, 65, 78
1, 11664, Note_on_c, 0, 62, 85
1, 11664, Note_on_c, 1, 44, 78
1, 11687, Note_on_c, 1, 44, 0
1, 11688, Note_on_c, 1, 56, 78
1, 11711, Note_on_c, 1, 56, 0
1, 11712, Note_on_c, 1, 55, 78
1, 11735, Note_on_c, 1, 55, 0
1, 11736, Note_on_c, 1, 56, 78
1, 11753, Note_on_c, 0, 65, 0
1, 11753, Note_on_c, 0, 62, 0
1, 11759, Note_on_c, 1, 56, 0
1, 11760, Note_on_c, 0, 63, 78
1, 11760, Note_on_c, 0, 60, 85
1, 11760, Note_on_c, 1, 44, 78
1, 11783, Note_on_c, 1, 44, 0
1, 11784, Note_on_c, 1, 56, 78
1, 11805, Note_on_c, 0, 63, 0
1, 11805, Note_on_c, 0, 60, 0
1, 11807, Note_on_c, 1, 56, 0
1, 11808, Note_on_c, 0, 62, 78
1, 11808, Note_on_c, 0, 56, 85
1, 11808, Note_on_c, 1, 41, 78
1, 11831, Note_on_c, 1, 41, 0
1, 11832, Note_on_c, 1, 53, 78
1, 11855, Note_on_c, 1, 53, 0
1, 11856, Note_on_c, 1, 44, 78
1, 11875, Note_on_c, 0, 62, 0
1, 11879, Note_on_c, 1, 44, 0
1, 11880, Note_on_c, 0, 63, 78
1, 11880, Note_on_c, 1, 53, 78
1, 11903, Note_on_c, 0, 63, 0
1, 11903, Note_on_c, 1, 53, 0
1, 11904, Note_on_c, 0, 65, 78
1, 11904, Note_on_c, 1, 41, 78
1, 11927, Note_on_c, 1, 41, 0
1, 11928, Note_on_c, 1, 53, 78
1, 11941, Note_on_c, 0, 56, 0
1, 11949, Note_on_c, 0, 65, 0
1, 11951, Note_on_c, 1, 53, 0
1, 11952, Note_on_c, 0, 60, 78
1, 11952, Note_on_c, 0, 55, 85
1, 11952, Note_on_c, 1, 43, 78
1, 11975, Note_on_c, 1, 43, 0
1, 11976, Note_on_c, 1, 51, 78
1, 11999, Note_on_c, 1, 51, 0
1, 12000, Note_on_c, 1, 48, 78
1, 12019, Note_on_c, 0, 60, 0
1, 12023, Note_on_c, 1, 48, 0
1, 12024, Note_on_c, 0, 62, 78
1, 12024, Note_on_c, 1, 51, 78
1, 12041, Note_on_c, 0, 55, 0
1, 12047, Note_on_c, 0, 62, 0
1, 12047, Note_on_c, 1, 51, 0
1, 12048, Note_on_c, 0, 59, 78
1, 12048, Note_on_c, 0, 53, 85
1, 12048, Note_on_c, 1, 43, 78
1, 12093, Note_on_c, 0, 59, 0
1, 12093, Note_on_c, 0, 53, 0
1, 12093, Note_on_c, 1, 43, 0
1, 12096, Note_on_c, 0, 60, 78
1, 12096, Note_on_c, 0, 51, 85
1, 12096, Note_on_c, 1, 44, 78
1, 12096, Note_on_c, 1, 32, 78
1, 12229, Note_on_c, 0, 60, 0
1, 12229, Note_on_c, 0, 51, 0
1, 12229, Note_on_c, 1, 44, 0
1, 12229, Note_on_c, 1, 32, 0
1, 12288, Note_on_c, 0, 63, 85
1, 12300, Note_on_c, 0, 63, 0
1, 12300, Note_on_c, 0, 62, 85
1, 12312, Note_on_c, 0, 62, 0
1, 12312, Note_on_c, 0, 65, 85
1, 12324, Note_on_c, 0, 65, 0
1, 12324, Note_on_c, 0, 63, 85
1, 12336, Note_on_c, 0, 63, 0
1, 12336, Note_on_c, 0, 67, 85
1, 12348, Note_on_c, 0, 67, 0
1, 12348, Note_on_c, 0, 65, 85
1, 12360, Note_on_c, 0, 65, 0
1, 12360, Note_on_c, 0, 63, 85
1, 12372, Note_on_c, 0, 63, 0
1, 12372, Note_on_c, 0, 62, 85
1, 12384, Note_on_c, 0, 62, 0
1, 12384, Note_on_c, 0, 60, 85
1, 12396, Note_on_c, 0, 60, 0
1, 12396, Note_on_c, 0, 59, 85
1, 12408, Note_on_c, 0, 59, 0
1, 12408, Note_on_c, 0, 62, 85
1, 12420, Note_on_c, 0, 62, 0
1, 12420, Note_on_c, 0, 60, 85
1, 12432, Note_on_c, 0, 60, 0
1, 12432, Note_on_c, 0, 63, 85
1, 12444, Note_on_c, 0, 63, 0
1, 12444, Note_on_c, 0, 62, 85
1, 12456, Note_on_c, 0, 62, 0
1, 12456, Note_on_c, 0, 60, 85
1, 12468, Note_on_c, 0, 60, 0
1, 12468, Note_on_c, 0, 58, 85
1, 12480, Note_on_c, 0, 58, 0
1, 12480, Note_on_c, 0, 56, 85
1, 12492, Note_on_c, 0, 56, 0
1, 12492, Note_on_c, 0, 55, 85
1, 12504, Note_on_c, 0, 55, 0
1, 12504, Note_on_c, 0, 58, 85
1, 12516, Note_on_c, 0, 58, 0
1, 12516, Note_on_c, 0, 56, 85
1, 12528, Note_on_c, 0, 56, 0
1, 12528, Note_on_c, 0, 60, 85
1, 12540, Note_on_c, 0, 60, 0
1, 12540, Note_on_c, 0, 58, 85
1, 12552, Note_on_c, 0, 58, 0
1, 12552, Note_on_c, 0, 56, 85
1, 12564, Note_on_c, 0, 56, 0
1, 12564, Note_on_c, 0, 55, 85
1, 12576, Note_on_c, 0, 55, 0
1, 12576, Note_on_c, 0, 54, 85
1, 12600, Note_on_c, 0, 51, 85
1, 12623, Note_on_c, 0, 51, 0
1, 12624, Note_on_c, 0, 50, 85
1, 12624, Note_on_c, 1, 44, 85
1, 12624, Note_on_c, 1, 32, 85
1, 12630, Note_on_c, 0, 50, 0
1, 12630, Note_on_c, 0, 51, 85
1, 12636, Note_on_c, 0, 51, 0
1, 12636, Note_on_c, 0, 50, 85
1, 12647, Note_on_c, 0, 50, 0
1, 12648, Note_on_c, 0, 48, 85
1, 12665, Note_on_c, 0, 54, 0
1, 12669, Note_on_c, 1, 44, 0
1, 12669, Note_on_c, 1, 32, 0
1, 12671, Note_on_c, 0, 48, 0
1, 12672, Note_on_c, 0, 55, 85
1, 12672, Note_on_c, 0, 50, 85
1, 12672, Note_on_c, 0, 47, 85
1, 12672, Note_on_c, 1, 31, 85
1, 12684, Note_on_c, 1, 31, 0
1, 12684, Note_on_c, 1, 43, 85
1, 12696, Note_on_c, 1, 43, 0
1, 12696, Note_on_c, 1, 42, 85
1, 12708, Note_on_c, 1, 42, 0
1, 12708, Note_on_c, 1, 43, 85
1, 12720, Note_on_c, 1, 43, 0
1, 12720, Note_on_c, 1, 42, 85
1, 12732, Note_on_c, 1, 42, 0
1, 12732, Note_on_c, 1, 43, 85
1, 12744, Note_on_c, 1, 43, 0
1, 12744, Note_on_c, 1, 42, 85
1, 12756, Note_on_c, 1, 42, 0
1, 12756, Note_on_c, 1, 43, 85
1, 12761, Note_on_c, 0, 50, 0
1, 12761, Note_on_c, 0, 47, 0
1, 12768, Note_on_c, 0, 53, 85
1, 12768, Note_on_c, 1, 43, 0
1, 12768, Note_on_c, 1, 31, 85
1, 12774, Note_on_c, 0, 53, 0
1, 12774, Note_on_c, 0, 51, 85
1, 12774, Note_on_c, 0, 48, 85
1, 12780, Note_on_c, 1, 31, 0
1, 12780, Note_on_c, 1, 43, 85
1, 12792, Note_on_c, 1, 43, 0
1, 12792, Note_on_c, 1, 42, 85
1, 12804, Note_on_c, 1, 42, 0
1, 12804, Note_on_c, 1, 43, 85
1, 12805, Note_on_c, 0, 55, 0
1, 12813, Note_on_c, 0, 51, 0
1, 12813, Note_on_c, 0, 48, 0
1, 12816, Note_on_c, 0, 55, 85
1, 12816, Note_on_c, 0, 50, 85
1, 12816, Note_on_c, 0, 47, 85
1, 12816, Note_on_c, 1, 43, 0
1, 12816, Note_on_c, 1, 31, 85
1, 12828, Note_on_c, 1, 31, 0
1, 12828, Note_on_c, 1, 43, 85
1, 12840, Note_on_c, 1, 43, 0
1, 12840, Note_on_c, 1, 42, 85
1, 12852, Note_on_c, 1, 42, 0
1, 12852, Note_on_c, 1, 43, 85
1, 12864, Note_on_c, 1, 43, 0
1, 12864, Note_on_c, 1, 42, 85
1, 12876, Note_on_c, 1, 42, 0
1, 12876, Note_on_c, 1, 43, 85
1, 12888, Note_on_c, 1, 43, 0
1, 12888, Note_on_c, 1, 42, 85
1, 12900, Note_on_c, 1, 42, 0
1, 12900, Note_on_c, 1, 43, 85
1, 12905, Note_on_c, 0, 50, 0
1, 12905, Note_on_c, 0, 47, 0
1, 12912, Note_on_c, 0, 53, 85
1, 12912, Note_on_c, 1, 43, 0
1, 12912, Note_on_c, 1, 31, 85
1, 12918, Note_on_c, 0, 53, 0
1, 12918, Note_on_c, 0, 51, 85
1, 12918, Note_on_c, 0, 48, 85
1, 12924, Note_on_c, 1, 31, 0
1, 12924, Note_on_c, 1, 43, 85
1, 12936, Note_on_c, 1, 43, 0
1, 12936, Note_on_c, 1, 42, 85
1, 12948, Note_on_c, 1, 42, 0
1, 12948, Note_on_c, 1, 43, 85
1, 12949, Note_on_c, 0, 55, 0
1, 12957, Note_on_c, 0, 51, 0
1, 12957, Note_on_c, 0, 48, 0
1, 12960, Note_on_c, 0, 55, 85
1, 12960, Note_on_c, 0, 50, 85
1, 12960, Note_on_c, 0, 47, 85
1, 12960, Note_on_c, 1, 43, 0
1, 12960, Note_on_c, 1, 31, 85
1, 13005, Note_on_c, 0, 55, 0
1, 13005, Note_on_c, 0, 50, 0
1, 13005, Note_on_c, 0, 47, 0
1, 13005, Note_on_c, 1, 31, 0
1, 13008, Note_on_c, 0, 55, 85
1, 13008, Note_on_c, 0, 50, 85
1, 13008, Note_on_c, 0, 47, 85
1, 13008, Note_on_c, 1, 43, 85
1, 13008, Note_on_c, 1, 31, 85
1, 13053, Note_on_c, 0, 55, 0
1, 13053, Note_on_c, 0, 50, 0
1, 13053, Note_on_c, 0, 47, 0
1, 13053, Note_on_c, 1, 43, 0
1, 13053, Note_on_c, 1, 31, 0
1, 13056, Note_on_c, 0, 55, 85
1, 13056, Note_on_c, 0, 50, 85
1, 13056, Note_on_c, 0, 47, 85
1, 13056, Note_on_c, 1, 43, 85
1, 13056, Note_on_c, 1, 31, 85
1, 13101, Note_on_c, 0, 55, 0
1, 13101, Note_on_c, 0, 50, 0
1, 13101, Note_on_c, 0, 47, 0
1, 13101, Note_on_c, 1, 43, 0
1, 13101, Note_on_c, 1, 31, 0
1, 13104, Note_on_c, 0, 55, 85
1, 13104, Note_on_c, 0, 47, 85
1, 13104, Note_on_c, 1, 43, 85
1, 13104, Note_on_c, 1, 31, 85
1, 13237, Note_on_c, 0, 55, 0
1, 13237, Note_on_c, 0, 47, 0
1, 13237, Note_on_c, 1, 43, 0
1, 13237, Note_on_c, 1, 31, 0
1, 13248, Tempo, 428571
1, 13440, Note_on_c, 0, 58, 78
1, 13529, Note_on_c, 0, 58, 0
1, 13536, Note_on_c, 0, 63, 78
1, 13548, Note_on_c, 0, 63, 0
1, 13548, Note_on_c, 0, 62, 78
1, 13560, Note_on_c, 0, 62, 0
1, 13560, Note_on_c, 0, 63, 78
1, 13632, Note_on_c, 0, 63, 0
1, 13632, Note_on_c, 0, 67, 78
1, 13632, Note_on_c, 1, 51, 78
1, 13632, Note_on_c, 1, 39, 78
1, 13671, Note_on_c, 1, 51, 0
1, 13671, Note_on_c, 1, 39, 0
1, 13721, Note_on_c, 0, 67, 0
1, 13728, Note_on_c, 0, 60, 78
1, 13728, Note_on_c, 1, 56, 78
1, 13728, Note_on_c, 1, 44, 78
1, 13767, Note_on_c, 1, 56, 0
1, 13767, Note_on_c, 1, 44, 0
1, 13817, Note_on_c, 0, 60, 0
1, 13824, Note_on_c, 0, 68, 78
1, 13824, Note_on_c, 1, 53, 78
1, 13824, Note_on_c, 1, 41, 78
1, 13863, Note_on_c, 1, 53, 0
1, 13863, Note_on_c, 1, 41, 0
1, 13872, Note_on_c, 0, 68, 0
1, 13872, Note_on_c, 0, 65, 78
1, 13917, Note_on_c, 0, 65, 0
1, 13920, Note_on_c, 0, 63, 78
1, 13920, Note_on_c, 1, 58, 78
1, 13920, Note_on_c, 1, 46, 78
1, 13932, Note_on_c, 0, 63, 0
1, 13932, Note_on_c, 0, 65, 78
1, 13944, Note_on_c, 0, 65, 0
1, 13944, Note_on_c, 0, 63, 78
1, 13959, Note_on_c, 1, 58, 0
1, 13959, Note_on_c, 1, 46, 0
1, 13968, Note_on_c, 0, 63, 0
1, 13968, Note_on_c, 0, 62, 78
1, 14013, Note_on_c, 0, 62, 0
1, 14016, Note_on_c, 0, 72, 78
1, 14016, Note_on_c, 1, 56, 78
1, 14016, Note_on_c, 1, 44, 78
1, 14055, Note_on_c, 1, 56, 0
1, 14055, Note_on_c, 1, 44, 0
1, 14064, Note_on_c, 0, 72, 0
1, 14064, Note_on_c, 0, 70, 78
1, 14109, Note_on_c, 0, 70, 0
1, 14112, Note_on_c, 0, 70, 78
1, 14112, Note_on_c, 1, 55, 78
1, 14112, Note_on_c, 1, 43, 78
1, 14151, Note_on_c, 1, 55, 0
1, 14151, Note_on_c, 1, 43, 0
1, 14201, Note_on_c, 0, 70, 0
1, 14208, Note_on_c, 0, 68, 78
1, 14208, Note_on_c, 1, 56, 78
1, 14208, Note_on_c, 1, 44, 78
1, 14220, Note_on_c, 0, 68, 0
1, 14220, Note_on_c, 0, 70, 78
1, 14232, Note_on_c, 0, 70, 0
1, 14232, Note_on_c, 0, 68, 78
1, 14247, Note_on_c, 1, 56, 0
1, 14247, Note_on_c, 1, 44, 0
1, 14256, Note_on_c, 0, 68, 0
1, 14256, Note_on_c, 0, 67, 78
1, 14301, Note_on_c, 0, 67, 0
1, 14304, Note_on_c, 0, 65, 78
1, 14304, Note_on_c, 1, 57, 78
1, 14304, Note_on_c, 1, 45, 78
1, 14316, Note_on_c, 0, 65, 0
1, 14316, Note_on_c, 0, 67, 78
1, 14328, Note_on_c, 0, 67, 0
1, 14328, Note_on_c, 0, 65, 78
1, 14343, Note_on_c, 1, 57, 0
1, 14343, Note_on_c, 1, 45, 0
1, 14352, Note_on_c, 0, 65, 0
1, 14352, Note_on_c, 0, 63, 78
1, 14397, Note_on_c, 0, 63, 0
1, 14400, Note_on_c, 0, 63, 78
1, 14400, Note_on_c, 1, 58, 78
1, 14439, Note_on_c, 1, 58, 0
1, 14496, Note_on_c, 0, 63, 0
1, 14496, Note_on_c, 0, 62, 78
1, 14496, Note_on_c, 1, 46, 78
1, 14508, Note_on_c, 0, 62, 0
1, 14508, Note_on_c, 0, 63, 78
1, 14520, Note_on_c, 0, 63, 0
1, 14520, Note_on_c, 0, 62, 78
1, 14535, Note_on_c, 1, 46, 0
1, 14585, Note_on_c, 0, 62, 0
1, 14592, Note_on_c, 0, 58, 78
1, 14681, Note_on_c, 0, 58, 0
1, 14688, Note_on_c, 0, 63, 78
1, 14700, Note_on_c, 0, 63, 0
1, 14700, Note_on_c, 0, 62, 78
1, 14712, Note_on_c, 0, 62, 0
1, 14712, Note_on_c, 0, 63, 78
1, 14777, Note_on_c, 0, 63, 0
1, 14784, Note_on_c, 0, 67, 78
1, 14784, Note_on_c, 1, 51, 78
1, 14784, Note_on_c, 1, 39, 78
1, 14823, Note_on_c, 1, 51, 0
1, 14823, Note_on_c, 1, 39, 0
1, 14873, Note_on_c, 0, 67, 0
1, 14880, Note_on_c, 0, 60, 78
1, 14880, Note_on_c, 1, 56, 78
1, 14880, Note_on_c, 1, 44, 78
1, 14919, Note_on_c, 1, 56, 0
1, 14919, Note_on_c, 1, 44, 0
1, 14969, Note_on_c, 0, 60, 0
1, 14976, Note_on_c, 0, 68, 78
1, 14976, Note_on_c, 1, 53, 78
1, 14976, Note_on_c, 1, 41, 78
1, 15015, Note_on_c, 1, 53, 0
1, 15015, Note_on_c, 1, 41, 0
1, 15024, Note_on_c, 0, 68, 0
1, 15024, Note_on_c, 0, 65, 78
1, 15069, Note_on_c, 0, 65, 0
1, 15072, Note_on_c, 0, 63, 78
1, 15072, Note_on_c, 1, 58, 78
1, 15072, Note_on_c, 1, 46, 78
1, 15084, Note_on_c, 0, 63, 0
1, 15084, Note_on_c, 0, 65, 78
1, 15096, Note_on_c, 0, 65, 0
1, 15096, Note_on_c, 0, 63, 78
1, 15111, Note_on_c, 1, 58, 0
1, 15111, Note_on_c, 1, 46, 0
1, 15120, Note_on_c, 0, 63, 0
1, 15120, Note_on_c, 0, 62, 78
1, 15165, Note_on_c, 0, 62, 0
1, 15168, Note_on_c, 0, 74, 78
1, 15168, Note_on_c, 1, 56, 78
1, 15168, Note_on_c, 1, 44, 78
1, 15207, Note_on_c, 1, 56, 0
1, 15207, Note_on_c, 1, 44, 0
1, 15216, Note_on_c, 0, 74, 0
1, 15216, Note_on_c, 0, 70, 78
1, 15261, Note_on_c, 0, 70, 0
1, 15264, Note_on_c, 0, 75, 78
1, 15264, Note_on_c, 1, 55, 78
1, 15264, Note_on_c, 1, 43, 78
1, 15303, Note_on_c, 1, 55, 0
1, 15303, Note_on_c, 1, 43, 0
1, 15312, Note_on_c, 0, 75, 0
1, 15312, Note_on_c, 0, 70, 78
1, 15357, Note_on_c, 0, 70, 0
1, 15360, Note_on_c, 0, 72, 78
1, 15360, Note_on_c, 1, 56, 78
1, 15360, Note_on_c, 1, 44, 78
1, 15399, Note_on_c, 1, 56, 0
1, 15399, Note_on_c, 1, 44, 0
1, 15408, Note_on_c, 0, 72, 0
1, 15408, Note_on_c, 0, 65, 78
1, 15453, Note_on_c, 0, 65, 0
1, 15456, Note_on_c, 0, 68, 78
1, 15456, Note_on_c, 1, 58, 78
1, 15456, Note_on_c, 1, 46, 78
1, 15495, Note_on_c, 1, 58, 0
1, 15495, Note_on_c, 1, 46, 0
1, 15504, Note_on_c, 0, 68, 0
1, 15504, Note_on_c, 0, 62, 78
1, 15549, Note_on_c, 0, 62, 0
1, 15552, Note_on_c, 0, 63, 78
1, 15552, Note_on_c, 1, 51, 78
1, 15591, Note_on_c, 1, 51, 0
1, 15641, Note_on_c, 0, 63, 0
1, 15648, Note_on_c, 1, 39, 78
1, 15687, Note_on_c, 1, 39, 0
1, 15744, Note_on_c, 0, 58, 78
1, 15833, Note_on_c, 0, 58, 0
1, 15840, Note_on_c, 0, 63, 78
1, 15852, Note_on_c, 0, 63, 0
1, 15852, Note_on_c, 0, 62, 78
1, 15864, Note_on_c, 0, 62, 0
1, 15864, Note_on_c, 0, 63, 78
1, 15936, Note_on_c, 0, 63, 0
1, 15936, Note_on_c, 0, 67, 78
1, 15936, Note_on_c, 1, 51, 78
1, 15936, Note_on_c, 1, 39, 78
1, 15975, Note_on_c, 1, 51, 0
1, 15975, Note_on_c, 1, 39, 0
1, 16025, Note_on_c, 0, 67, 0
1, 16032, Note_on_c, 0, 60, 78
1, 16032, Note_on_c, 1, 56, 78
1, 16032, Note_on_c, 1, 44, 78
1, 16071, Note_on_c, 1, 56, 0
1, 16071, Note_on_c, 1, 44, 0
1, 16121, Note_on_c, 0, 60, 0
1, 16128, Note_on_c, 0, 68, 78
1, 16128, Note_on_c, 1, 53, 78
1, 16128, Note_on_c, 1, 41, 78
1, 16167, Note_on_c, 1, 53, 0
1, 16167, Note_on_c, 1, 41, 0
1, 16176, Note_on_c, 0, 68, 0
1, 16176, Note_on_c, 0, 65, 78
1, 16221, Note_on_c, 0, 65, 0
1, 16224, Note_on_c, 0, 63, 78
1, 16224, Note_on_c, 1, 58, 78
1, 16224, Note_on_c, 1, 46, 78
1, 16236, Note_on_c, 0, 63, 0
1, 16236, Note_on_c, 0, 65, 78
1, 16248, Note_on_c, 0, 65, 0
1, 16248, Note_on_c, 0, 63, 78
1, 16263, Note_on_c, 1, 58, 0
1, 16263, Note_on_c, 1, 46, 0
1, 16272, Note_on_c, 0, 63, 0
1, 16272, Note_on_c, 0, 62, 78
1, 16317, Note_on_c, 0, 62, 0
1, 16320, Note_on_c, 0, 72, 78
1, 16320, Note_on_c, 1, 56, 78
1, 16320, Note_on_c, 1, 44, 78
1, 16359, Note_on_c, 1, 56, 0
1, 16359, Note_on_c, 1, 44, 0
1, 16368, Note_on_c, 0, 72, 0
1, 16368, Note_on_c, 0, 70, 78
1, 16413, Note_on_c, 0, 70, 0
1, 16416, Note_on_c, 0, 70, 78
1, 16416, Note_on_c, 1, 55, 78
1, 16416, Note_on_c, 1, 43, 78
1, 16455, Note_on_c, 1, 55, 0
1, 16455, Note_on_c, 1, 43, 0
1, 16505, Note_on_c, 0, 70, 0
1, 16512, Note_on_c, 0, 68, 78
1, 16512, Note_on_c, 1, 56, 78
1, 16512, Note_on_c, 1, 44, 78
1, 16524, Note_on_c, 0, 68, 0
1, 16524, Note_on_c, 0, 70, 78
1, 16536, Note_on_c, 0, 70, 0
1, 16536, Note_on_c, 0, 68, 78
1, 16551, Note_on_c, 1, 56, 0
1, 16551, Note_on_c, 1, 44, 0
1, 16560, Note_on_c, 0, 68, 0
1, 16560, Note_on_c, 0, 67, 78
1, 16605, Note_on_c, 0, 67, 0
1, 16608, Note_on_c, 0, 65, 78
1, 16608, Note_on_c, 1, 57, 78
1, 16608, Note_on_c, 1, 45, 78
1, 16620, Note_on_c, 0, 65, 0
1, 16620, Note_on_c, 0, 67, 78
1, 16632, Note_on_c, 0, 67, 0
1, 16632, Note_on_c, 0, 65, 78
1, 16647, Note_on_c, 1, 57, 0
1, 16647, Note_on_c, 1, 45, 0
1, 16656, Note_on_c, 0, 65, 0
1, 16656, Note_on_c, 0, 63, 78
1, 16701, Note_on_c, 0, 63, 0
1, 16704, Note_on_c, 0, 63, 78
1, 16704, Note_on_c, 1, 58, 78
1, 16743, Note_on_c, 1, 58, 0
1, 16800, Note_on_c, 0, 63, 0
1, 16800, Note_on_c, 0, 62, 78
1, 16800, Note_on_c, 1, 46, 78
1, 16812, Note_on_c, 0, 62, 0
1, 16812, Note_on_c, 0, 63, 78
1, 16824, Note_on_c, 0, 63, 0
1, 16824, Note_on_c, 0, 62, 78
1, 16839, Note_on_c, 1, 46, 0
1, 16889, Note_on_c, 0, 62, 0
1, 16896, Note_on_c, 0, 58, 78
1, 16985, Note_on_c, 0, 58, 0
1, 16992, Note_on_c, 0, 63, 78
1, 17004, Note_on_c, 0, 63, 0
1, 17004, Note_on_c, 0, 62, 78
1, 17016, Note_on_c, 0, 62, 0
1, 17016, Note_on_c, 0, 63, 78
1, 17081, Note_on_c, 0, 63, 0
1, 17088, Note_on_c, 0, 67, 78
1, 17088, Note_on_c, 1, 51, 78
1, 17088, Note_on_c, 1, 39, 78
1, 17127, Note_on_c, 1, 51, 0
1, 17127, Note_on_c, 1, 39, 0
1, 17177, Note_on_c, 0, 67, 0
1, 17184, Note_on_c, 0, 60, 78
1, 17184, Note_on_c, 1, 56, 78
1, 17184, Note_on_c, 1, 44, 78
1, 17223, Note_on_c, 1, 56, 0
1, 17223, Note_on_c, 1, 44, 0
1, 17273, Note_on_c, 0, 60, 0
1, 17280, Note_on_c, 0, 68, 78
1, 17280, Note_on_c, 1, 53, 78
1, 17280, Note_on_c, 1, 41, 78
1, 17319, Note_on_c, 1, 53, 0
1, 17319, Note_on_c, 1, 41, 0
1, 17328, Note_on_c, 0, 68, 0
1, 17328, Note_on_c, 0, 65, 78
1, 17373, Note_on_c, 0, 65, 0
1, 17376, Note_on_c, 0, 63, 78
1, 17376, Note_on_c, 1, 58, 78
1, 17376, Note_on_c, 1, 46, 78
1, 17388, Note_on_c, 0, 63, 0
1, 17388, Note_on_c, 0, 65, 78
1, 17400, Note_on_c, 0, 65, 0
1, 17400, Note_on_c, 0, 63, 78
1, 17415, Note_on_c, 1, 58, 0
1, 17415, Note_on_c, 1, 46, 0
1, 17424, Note_on_c, 0, 63, 0
1, 17424, Note_on_c, 0, 62, 78
1, 17469, Note_on_c, 0, 62, 0
1, 17472, Note_on_c, 0, 74, 78
1, 17472, Note_on_c, 1, 56, 78
1, 17472, Note_on_c, 1, 44, 78
1, 17511, Note_on_c, 1, 56, 0
1, 17511, Note_on_c, 1, 44, 0
1, 17520, Note_on_c, 0, 74, 0
1, 17520, Note_on_c, 0, 70, 78
1, 17565, Note_on_c, 0, 70, 0
1, 17568, Note_on_c, 0, 75, 78
1, 17568, Note_on_c, 1, 55, 78
1, 17568, Note_on_c, 1, 43, 78
1, 17607, Note_on_c, 1, 55, 0
1, 17607, Note_on_c, 1, 43, 0
1, 17616, Note_on_c, 0, 75, 0
1, 17616, Note_on_c, 0, 70, 78
1, 17661, Note_on_c, 0, 70, 0
1, 17664, Note_on_c, 0, 72, 78
1, 17664, Note_on_c, 1, 56, 78
1, 17664, Note_on_c, 1, 44, 78
1, 17703, Note_on_c, 1, 56, 0
1, 17703, Note_on_c, 1, 44, 0
1, 17712, Note_on_c, 0, 72, 0
1, 17712, Note_on_c, 0, 65, 78
1, 17757, Note_on_c, 0, 65, 0
1, 17760, Note_on_c, 0, 68, 78
1, 17760, Note_on_c, 1, 58, 78
1, 17760, Note_on_c, 1, 46, 78
1, 17799, Note_on_c, 1, 58, 0
1, 17799, Note_on_c, 1, 46, 0
1, 17808, Note_on_c, 0, 68, 0
1, 17808, Note_on_c, 0, 62, 78
1, 17853, Note_on_c, 0, 62, 0
1, 17856, Note_on_c, 0, 63, 78
1, 17856, Note_on_c, 1, 51, 78
1, 17895, Note_on_c, 1, 51, 0
1, 17945, Note_on_c, 0, 63, 0
1, 17952, Note_on_c, 1, 39, 78
1, 17991, Note_on_c, 1, 39, 0
1, 18048, Note_on_c, 0, 79, 78
1, 18048, Note_on_c, 1, 63, 78
1, 18096, Note_on_c, 0, 79, 0
1, 18096, Note_on_c, 0, 72, 78
1, 18137, Note_on_c, 1, 63, 0
1, 18141, Note_on_c, 0, 72, 0
1, 18144, Note_on_c, 0, 72, 78
1, 18144, Note_on_c, 1, 62, 78
1, 18192, Note_on_c, 0, 72, 0
1, 18192, Note_on_c, 0, 71, 78
1, 18233, Note_on_c, 1, 62, 0
1, 18237, Note_on_c, 0, 71, 0
1, 18240, Note_on_c, 0, 77, 78
1, 18240, Note_on_c, 1, 55, 78
1, 18288, Note_on_c, 0, 77, 0
1, 18288, Note_on_c, 0, 74, 78
1, 18329, Note_on_c, 1, 55, 0
1, 18333, Note_on_c, 0, 74, 0
1, 18336, Note_on_c, 0, 75, 78
1, 18336, Note_on_c, 1, 60, 78
1, 18384, Note_on_c, 0, 75, 0
1, 18384, Note_on_c, 0, 72, 78
1, 18425, Note_on_c, 1, 60, 0
1, 18429, Note_on_c, 0, 72, 0
1, 18432, Note_on_c, 0, 70, 78
1, 18432, Note_on_c, 1, 53, 78
1, 18480, Note_on_c, 0, 70, 0
1, 18480, Note_on_c, 0, 69, 78
1, 18521, Note_on_c, 1, 53, 0
1, 18525, Note_on_c, 0, 69, 0
1, 18528, Note_on_c, 0, 75, 78
1, 18528, Note_on_c, 1, 57, 78
1, 18576, Note_on_c, 0, 75, 0
1, 18576, Note_on_c, 0, 72, 78
1, 18617, Note_on_c, 1, 57, 0
1, 18621, Note_on_c, 0, 72, 0
1, 18624, Note_on_c, 0, 74, 78
1, 18624, Note_on_c, 1, 58, 78
1, 18672, Note_on_c, 0, 74, 0
1, 18672, Note_on_c, 0, 70, 78
1, 18713, Note_on_c, 1, 58, 0
1, 18717, Note_on_c, 0, 70, 0
1, 18720, Note_on_c, 0, 69, 78
1, 18720, Note_on_c, 1, 51, 78
1, 18768, Note_on_c, 0, 69, 0
1, 18768, Note_on_c, 0, 67, 78
1, 18813, Note_on_c, 0, 67, 0
1, 18816, Note_on_c, 0, 79, 78
1, 18864, Note_on_c, 0, 79, 0
1, 18864, Note_on_c, 0, 75, 78
1, 18897, Note_on_c, 1, 51, 0
1, 18909, Note_on_c, 0, 75, 0
1, 18912, Note_on_c, 0, 74, 78
1, 18912, Note_on_c, 1, 52, 78
1, 18960, Note_on_c, 0, 74, 0
1, 18960, Note_on_c, 0, 72, 78
1, 19001, Note_on_c, 1, 52, 0
1, 19005, Note_on_c, 0, 72, 0
1, 19008, Note_on_c, 0, 70, 78
1, 19008, Note_on_c, 1, 53, 78
1, 19097, Note_on_c, 1, 53, 0
1, 19104, Note_on_c, 0, 70, 0
1, 19104, Note_on_c, 0, 69, 78
1, 19104, Note_on_c, 1, 41, 78
1, 19116, Note_on_c, 0, 69, 0
1, 19116, Note_on_c, 0, 70, 78
1, 19128, Note_on_c, 0, 70, 0
1, 19128, Note_on_c, 0, 69, 78
1, 19193, Note_on_c, 0, 69, 0
1, 19193, Note_on_c, 1, 41, 0
1, 19200, Note_on_c, 0, 77, 78
1, 19289, Note_on_c, 0, 77, 0
1, 19296, Note_on_c, 0, 82, 78
1, 19341, Note_on_c, 0, 82, 0
1, 19344, Note_on_c, 0, 84, 78
1, 19389, Note_on_c, 0, 84, 0
1, 19392, Note_on_c, 0, 86, 78
1, 19392, Note_on_c, 1, 58, 78
1, 19437, Note_on_c, 0, 86, 0
1, 19440, Note_on_c, 0, 82, 78
1, 19481, Note_on_c, 1, 58, 0
1, 19485, Note_on_c, 0, 82, 0
1, 19488, Note_on_c, 0, 81, 78
1, 19488, Note_on_c, 1, 63, 78
1, 19533, Note_on_c, 0, 81, 0
1, 19533, Note_on_c, 1, 63, 0
1, 19536, Note_on_c, 0, 79, 78
1, 19536, Note_on_c, 1, 65, 78
1, 19581, Note_on_c, 0, 79, 0
1, 19581, Note_on_c, 1, 65, 0
1, 19584, Note_on_c, 0, 87, 78
1, 19584, Note_on_c, 1, 67, 78
1, 19629, Note_on_c, 0, 87, 0
1, 19629, Note_on_c, 1, 67, 0
1, 19632, Note_on_c, 0, 84, 78
1, 19632, Note_on_c, 1, 63, 78
1, 19677, Note_on_c, 0, 84, 0
1, 19677, Note_on_c, 1, 63, 0
1, 19680, Note_on_c, 0, 82, 78
1, 19680, Note_on_c, 1, 62, 78
1, 19725, Note_on_c, 0, 82, 0
1, 19725, Note_on_c, 1, 62, 0
1, 19728, Note_on_c, 0, 81, 78
1, 19728, Note_on_c, 1, 60, 78
1, 19773, Note_on_c, 0, 81, 0
1, 19773, Note_on_c, 1, 60, 0
1, 19776, Note_on_c, 0, 89, 78
1, 19776, Note_on_c, 1, 63, 78
1, 19824, Note_on_c, 0, 89, 0
1, 19824, Note_on_c, 0, 81, 78
1, 19865, Note_on_c, 1, 63, 0
1, 19869, Note_on_c, 0, 81, 0
1, 19872, Note_on_c, 0, 82, 78
1, 19872, Note_on_c, 1, 62, 78
1, 19920, Note_on_c, 0, 82, 0
1, 19920, Note_on_c, 0, 77, 78
1, 19961, Note_on_c, 1, 62, 0
1, 19965, Note_on_c, 0, 77, 0
1, 19968, Note_on_c, 0, 79, 78
1, 19968, Note_on_c, 1, 63, 78
1, 20016, Note_on_c, 0, 79, 0
1, 20016, Note_on_c, 0, 72, 78
1, 20057, Note_on_c, 1, 63, 0
1, 20061, Note_on_c, 0, 72, 0
1, 20064, Note_on_c, 0, 75, 78
1, 20064, Note_on_c, 1, 65, 78
1, 20112, Note_on_c, 0, 75, 0
1, 20112, Note_on_c, 0, 69, 78
1, 20153, Note_on_c, 1, 65, 0
1, 20157, Note_on_c, 0, 69, 0
1, 20160, Note_on_c, 0, 72, 78
1, 20256, Note_on_c, 0, 72, 0
1, 20256, Note_on_c, 0, 70, 78
1, 20256, Note_on_c, 1, 58, 78
1, 20268, Note_on_c, 0, 70, 0
1, 20268, Note_on_c, 0, 72, 78
1, 20280, Note_on_c, 0, 72, 0
1, 20280, Note_on_c, 0, 70, 78
1, 20301, Note_on_c, 1, 58, 0
1, 20304, Note_on_c, 1, 55, 78
1, 20349, Note_on_c, 1, 55, 0
1, 20352, Note_on_c, 1, 56, 78
1, 20397, Note_on_c, 1, 56, 0
1, 20400, Note_on_c, 1, 53, 78
1, 20433, Note_on_c, 0, 70, 0
1, 20445, Note_on_c, 1, 53, 0
1, 20448, Note_on_c, 0, 70, 78
1, 20448, Note_on_c, 1, 52, 64
1, 20460, Note_on_c, 0, 70, 0
1, 20460, Note_on_c, 0, 72, 78
1, 20472, Note_on_c, 0, 72, 0
1, 20472, Note_on_c, 0, 70, 78
1, 20484, Note_on_c, 0, 70, 0
1, 20484, Note_on_c, 0, 72, 78
1, 20496, Note_on_c, 0, 72, 0
1, 20496, Note_on_c, 0, 70, 78
1, 20508, Note_on_c, 0, 70, 0
1, 20508, Note_on_c, 0, 72, 78
1, 20515, Note_on_c, 0, 72, 0
1, 20520, Note_on_c, 0, 69, 78
1, 20532, Note_on_c, 0, 69, 0
1, 20532, Note_on_c, 0, 70, 78
1, 20544, Note_on_c, 0, 70, 0
1, 20544, Note_on_c, 0, 79, 78
1, 20544, Note_on_c, 1, 61, 78
1, 20592, Note_on_c, 0, 79, 0
1, 20592, Note_on_c, 0, 70, 78
1, 20625, Note_on_c, 1, 52, 0
1, 20633, Note_on_c, 1, 61, 0
1, 20637, Note_on_c, 0, 70, 0
1, 20640, Note_on_c, 0, 70, 78
1, 20640, Note_on_c, 1, 60, 78
1, 20640, Note_on_c, 1, 53, 64
1, 20688, Note_on_c, 0, 70, 0
1, 20688, Note_on_c, 0, 69, 78
1, 20729, Note_on_c, 1, 60, 0
1, 20729, Note_on_c, 1, 53, 0
1, 20733, Note_on_c, 0, 69, 0
1, 20736, Note_on_c, 0, 68, 78
1, 20736, Note_on_c, 1, 50, 64
1, 20748, Note_on_c, 0, 68, 0
1, 20748, Note_on_c, 0, 70, 78
1, 20760, Note_on_c, 0, 70, 0
1, 20760, Note_on_c, 0, 68, 78
1, 20772, Note_on_c, 0, 68, 0
1, 20772, Note_on_c, 0, 70, 78
1, 20784, Note_on_c, 0, 70, 0
1, 20784, Note_on_c, 0, 68, 78
1, 20796, Note_on_c, 0, 68, 0
1, 20796, Note_on_c, 0, 70, 78
1, 20803, Note_on_c, 0, 70, 0
1, 20808, Note_on_c, 0, 67, 78
1, 20820, Note_on_c, 0, 67, 0
1, 20820, Note_on_c, 0, 68, 78
1, 20832, Note_on_c, 0, 68, 0
1, 20832, Note_on_c, 0, 77, 78
1, 20832, Note_on_c, 1, 59, 78
1, 20880, Note_on_c, 0, 77, 0
1, 20880, Note_on_c, 0, 68, 78
1, 20913, Note_on_c, 1, 50, 0
1, 20921, Note_on_c, 1, 59, 0
1, 20925, Note_on_c, 0, 68, 0
1, 20928, Note_on_c, 0, 68, 78
1, 20928, Note_on_c, 1, 58, 78
1, 20928, Note_on_c, 1, 51, 64
1, 20976, Note_on_c, 0, 68, 0
1, 20976, Note_on_c, 0, 67, 78
1, 21017, Note_on_c, 1, 58, 0
1, 21017, Note_on_c, 1, 51, 0
1, 21021, Note_on_c, 0, 67, 0
1, 21024, Note_on_c, 0, 67, 78
1, 21024, Note_on_c, 1, 60, 78
1, 21024, Note_on_c, 1, 56, 64
1, 21036, Note_on_c, 0, 67, 0
1, 21036, Note_on_c, 0, 68, 78
1, 21048, Note_on_c, 0, 68, 0
1, 21048, Note_on_c, 0, 67, 78
1, 21072, Note_on_c, 0, 67, 0
1, 21072, Note_on_c, 0, 65, 78
1, 21117, Note_on_c, 0, 65, 0
1, 21120, Note_on_c, 0, 72, 78
1, 21157, Note_on_c, 1, 60, 0
1, 21168, Note_on_c, 0, 72, 0
1, 21168, Note_on_c, 0, 68, 78
1, 21201, Note_on_c, 1, 56, 0
1, 21213, Note_on_c, 0, 68, 0
1, 21216, Note_on_c, 0, 65, 78
1, 21216, Note_on_c, 1, 57, 64
1, 21264, Note_on_c, 0, 65, 0
1, 21264, Note_on_c, 0, 63, 78
1, 21305, Note_on_c, 1, 57, 0
1, 21309, Note_on_c, 0, 63, 0
1, 21312, Note_on_c, 0, 63, 78
1, 21312, Note_on_c, 1, 58, 78
1, 21312, Note_on_c, 1, 58, 64
1, 21401, Note_on_c, 1, 58, 0
1, 21401, Note_on_c, 1, 58, 0
1, 21408, Note_on_c, 0, 63, 0
1, 21408, Note_on_c, 0, 62, 78
1, 21408, Note_on_c, 1, 46, 78
1, 21420, Note_on_c, 0, 62, 0
1, 21420, Note_on_c, 0, 63, 78
1, 21432, Note_on_c, 0, 63, 0
1, 21432, Note_on_c, 0, 62, 78
1, 21497, Note_on_c, 0, 62, 0
1, 21497, Note_on_c, 1, 46, 0
1, 21504, Note_on_c, 0, 58, 78
1, 21593, Note_on_c, 0, 58, 0
1, 21600, Note_on_c, 0, 63, 78
1, 21696, Note_on_c, 1, 51, 78
1, 21733, Note_on_c, 0, 63, 0
1, 21744, Note_on_c, 0, 67, 78
1, 21792, Note_on_c, 1, 51, 0
1, 21792, Note_on_c, 1, 56, 78
1, 21833, Note_on_c, 0, 67, 0
1, 21840, Note_on_c, 0, 60, 78
1, 21881, Note_on_c, 1, 56, 0
1, 21888, Note_on_c, 1, 53, 78
1, 21933, Note_on_c, 0, 60, 0
1, 21936, Note_on_c, 0, 68, 78
1, 21977, Note_on_c, 1, 53, 0
1, 21984, Note_on_c, 1, 58, 78
1, 22025, Note_on_c, 0, 68, 0
1, 22032, Note_on_c, 0, 62, 78
1, 22073, Note_on_c, 1, 58, 0
1, 22080, Note_on_c, 1, 56, 78
1, 22121, Note_on_c, 0, 62, 0
1, 22128, Note_on_c, 0, 72, 78
1, 22169, Note_on_c, 1, 56, 0
1, 22176, Note_on_c, 1, 55, 78
1, 22221, Note_on_c, 0, 72, 0
1, 22224, Note_on_c, 0, 70, 78
1, 22265, Note_on_c, 1, 55, 0
1, 22269, Note_on_c, 0, 70, 0
1, 22272, Note_on_c, 0, 68, 78
1, 22272, Note_on_c, 1, 56, 78
1, 22317, Note_on_c, 0, 68, 0
1, 22320, Note_on_c, 0, 67, 78
1, 22361, Note_on_c, 1, 56, 0
1, 22365, Note_on_c, 0, 67, 0
1, 22368, Note_on_c, 0, 65, 78
1, 22368, Note_on_c, 1, 57, 78
1, 22413, Note_on_c, 0, 65, 0
1, 22416, Note_on_c, 0, 63, 78
1, 22457, Note_on_c, 1, 57, 0
1, 22461, Note_on_c, 0, 63, 0
1, 22464, Note_on_c, 0, 63, 78
1, 22464, Note_on_c, 1, 58, 78
1, 22553, Note_on_c, 0, 63, 0
1, 22553, Note_on_c, 1, 58, 0
1, 22560, Note_on_c, 0, 62, 78
1, 22560, Note_on_c, 1, 46, 78
1, 22572, Note_on_c, 0, 62, 0
1, 22572, Note_on_c, 0, 63, 78
1, 22584, Note_on_c, 0, 63, 0
1, 22584, Note_on_c, 0, 62, 78
1, 22649, Note_on_c, 0, 62, 0
1, 22649, Note_on_c, 1, 46, 0
1, 22656, Note_on_c, 0, 58, 78
1, 22676, Note_on_c, 0, 58, 0
1, 22704, Note_on_c, 0, 58, 78
1, 22752, Note_on_c, 0, 58, 0
1, 22752, Note_on_c, 0, 63, 78
1, 22772, Note_on_c, 0, 63, 0
1, 22800, Note_on_c, 0, 63, 78
1, 22848, Note_on_c, 0, 63, 0
1, 22848, Note_on_c, 0, 67, 78
1, 22848, Note_on_c, 1, 51, 78
1, 22868, Note_on_c, 0, 67, 0
1, 22868, Note_on_c, 1, 51, 0
1, 22896, Note_on_c, 0, 67, 78
1, 22896, Note_on_c, 1, 51, 78
1, 22944, Note_on_c, 0, 67, 0
1, 22944, Note_on_c, 0, 60, 78
1, 22944, Note_on_c, 1, 51, 0
1, 22944, Note_on_c, 1, 56, 78
1, 22964, Note_on_c, 0, 60, 0
1, 22964, Note_on_c, 1, 56, 0
1, 22992, Note_on_c, 0, 60, 78
1, 22992, Note_on_c, 1, 56, 78
1, 23040, Note_on_c, 0, 60, 0
1, 23040, Note_on_c, 0, 68, 78
1, 23040, Note_on_c, 1, 56, 0
1, 23040, Note_on_c, 1, 53, 78
1, 23060, Note_on_c, 0, 68, 0
1, 23060, Note_on_c, 1, 53, 0
1, 23088, Note_on_c, 0, 68, 78
1, 23088, Note_on_c, 1, 53, 78
1, 23136, Note_on_c, 0, 68, 0
1, 23136, Note_on_c, 0, 62, 78
1, 23136, Note_on_c, 1, 53, 0
1, 23136, Note_on_c, 1, 58, 78
1, 23156, Note_on_c, 0, 62, 0
1, 23156, Note_on_c, 1, 58, 0
1, 23184, Note_on_c, 0, 62, 78
1, 23184, Note_on_c, 1, 58, 78
1, 23229, Note_on_c, 0, 62, 0
1, 23229, Note_on_c, 1, 58, 0
1, 23232, Note_on_c, 0, 74, 78
1, 23232, Note_on_c, 1, 56, 78
1, 23280, Note_on_c, 0, 74, 0
1, 23280, Note_on_c, 0, 70, 78
1, 23321, Note_on_c, 1, 56, 0
1, 23325, Note_on_c, 0, 70, 0
1, 23328, Note_on_c, 0, 75, 78
1, 23328, Note_on_c, 1, 55, 78
1, 23376, Note_on_c, 0, 75, 0
1, 23376, Note_on_c, 0, 70, 78
1, 23417, Note_on_c, 1, 55, 0
1, 23421, Note_on_c, 0, 70, 0
1, 23424, Note_on_c, 0, 72, 78
1, 23424, Note_on_c, 1, 56, 78
1, 23472, Note_on_c, 0, 72, 0
1, 23472, Note_on_c, 0, 65, 78
1, 23513, Note_on_c, 1, 56, 0
1, 23517, Note_on_c, 0, 65, 0
1, 23520, Note_on_c, 0, 68, 78
1, 23520, Note_on_c, 1, 58, 78
1, 23568, Note_on_c, 0, 68, 0
1, 23568, Note_on_c, 0, 62, 78
1, 23609, Note_on_c, 1, 58, 0
1, 23613, Note_on_c, 0, 62, 0
1, 23616, Note_on_c, 0, 63, 78
1, 23616, Note_on_c, 1, 51, 78
1, 23705, Note_on_c, 0, 63, 0
1, 23705, Note_on_c, 1, 51, 0
1, 23712, Note_on_c, 1, 39, 78
1, 23801, Note_on_c, 1, 39, 0
1, 23808, Note_on_c, 0, 79, 78
1, 23808, Note_on_c, 1, 63, 78
1, 23856, Note_on_c, 0, 79, 0
1, 23856, Note_on_c, 0, 72, 78
1, 23897, Note_on_c, 1, 63, 0
1, 23901, Note_on_c, 0, 72, 0
1, 23904, Note_on_c, 0, 72, 78
1, 23904, Note_on_c, 1, 62, 78
1, 23952, Note_on_c, 0, 72, 0
1, 23952, Note_on_c, 0, 71, 78
1, 23993, Note_on_c, 1, 62, 0
1, 23997, Note_on_c, 0, 71, 0
1, 24000, Note_on_c, 0, 77, 78
1, 24000, Note_on_c, 1, 55, 78
1, 24048, Note_on_c, 0, 77, 0
1, 24048, Note_on_c, 0, 74, 78
1, 24089, Note_on_c, 1, 55, 0
1, 24093, Note_on_c, 0, 74, 0
1, 24096, Note_on_c, 0, 75, 78
1, 24096, Note_on_c, 1, 60, 78
1, 24144, Note_on_c, 0, 75, 0
1, 24144, Note_on_c, 0, 72, 78
1, 24185, Note_on_c, 1, 60, 0
1, 24189, Note_on_c, 0, 72, 0
1, 24192, Note_on_c, 0, 70, 78
1, 24192, Note_on_c, 1, 53, 78
1, 24240, Note_on_c, 0, 70, 0
1, 24240, Note_on_c, 0, 69, 78
1, 24281, Note_on_c, 1, 53, 0
1, 24285, Note_on_c, 0, 69, 0
1, 24288, Note_on_c, 0, 75, 78
1, 24288, Note_on_c, 1, 57, 78
1, 24336, Note_on_c, 0, 75, 0
1, 24336, Note_on_c, 0, 72, 78
1, 24377, Note_on_c, 1, 57, 0
1, 24381, Note_on_c, 0, 72, 0
1, 24384, Note_on_c, 0, 74, 78
1, 24384, Note_on_c, 1, 58, 78
1, 24432, Note_on_c, 0, 74, 0
1, 24432, Note_on_c, 0, 70, 78
1, 24473, Note_on_c, 1, 58, 0
1, 24477, Note_on_c, 0, 70, 0
1, 24480, Note_on_c, 0, 69, 78
1, 24480, Note_on_c, 1, 51, 78
1, 24528, Note_on_c, 0, 69, 0
1, 24528, Note_on_c, 0, 67, 78
1, 24573, Note_on_c, 0, 67, 0
1, 24576, Note_on_c, 0, 79, 78
1, 24624, Note_on_c, 0, 79, 0
1, 24624, Note_on_c, 0, 75, 78
1, 24657, Note_on_c, 1, 51, 0
1, 24669, Note_on_c, 0, 75, 0
1, 24672, Note_on_c, 0, 74, 78
1, 24672, Note_on_c, 1, 52, 78
1, 24720, Note_on_c, 0, 74, 0
1, 24720, Note_on_c, 0, 72, 78
1, 24761, Note_on_c, 1, 52, 0
1, 24765, Note_on_c, 0, 72, 0
1, 24768, Note_on_c, 0, 70, 78
1, 24768, Note_on_c, 1, 53, 78
1, 24857, Note_on_c, 1, 53, 0
1, 24864, Note_on_c, 0, 70, 0
1, 24864, Note_on_c, 0, 69, 78
1, 24864, Note_on_c, 1, 41, 78
1, 24876, Note_on_c, 0, 69, 0
1, 24876, Note_on_c, 0, 70, 78
1, 24888, Note_on_c, 0, 70, 0
1, 24888, Note_on_c, 0, 69, 78
1, 24953, Note_on_c, 0, 69, 0
1, 24953, Note_on_c, 1, 41, 0
1, 24960, Note_on_c, 0, 77, 78
1, 25049, Note_on_c, 0, 77, 0
1, 25056, Note_on_c, 0, 82, 78
1, 25101, Note_on_c, 0, 82, 0
1, 25104, Note_on_c, 0, 84, 78
1, 25149, Note_on_c, 0, 84, 0
1, 25152, Note_on_c, 0, 86, 78
1, 25152, Note_on_c, 1, 58, 78
1, 25197, Note_on_c, 0, 86, 0
1, 25200, Note_on_c, 0, 82, 78
1, 25241, Note_on_c, 1, 58, 0
1, 25245, Note_on_c, 0, 82, 0
1, 25248, Note_on_c, 0, 81, 78
1, 25248, Note_on_c, 1, 63, 78
1, 25293, Note_on_c, 0, 81, 0
1, 25293, Note_on_c, 1, 63, 0
1, 25296, Note_on_c, 0, 79, 78
1, 25296, Note_on_c, 1, 65, 78
1, 25341, Note_on_c, 0, 79, 0
1, 25341, Note_on_c, 1, 65, 0
1, 25344, Note_on_c, 0, 87, 78
1, 25344, Note_on_c, 1, 67, 78
1, 25389, Note_on_c, 0, 87, 0
1, 25389, Note_on_c, 1, 67, 0
1, 25392, Note_on_c, 0, 84, 78
1, 25392, Note_on_c, 1, 63, 78
1, 25437, Note_on_c, 0, 84, 0
1, 25437, Note_on_c, 1, 63, 0
1, 25440, Note_on_c, 0, 82, 78
1, 25440, Note_on_c, 1, 62, 78
1, 25485, Note_on_c, 0, 82, 0
1, 25485, Note_on_c, 1, 62, 0
1, 25488, Note_on_c, 0, 81, 78
1, 25488, Note_on_c, 1, 60, 78
1, 25533, Note_on_c, 0, 81, 0
1, 25533, Note_on_c, 1, 60, 0
1, 25536, Note_on_c, 0, 89, 78
1, 25536, Note_on_c, 1, 63, 78
1, 25584, Note_on_c, 0, 89, 0
1, 25584, Note_on_c, 0, 81, 78
1, 25625, Note_on_c, 1, 63, 0
1, 25629, Note_on_c, 0, 81, 0
1, 25632, Note_on_c, 0, 82, 78
1, 25632, Note_on_c, 1, 62, 78
1, 25680, Note_on_c, 0, 82, 0
1, 25680, Note_on_c, 0, 77, 78
1, 25721, Note_on_c, 1, 62, 0
1, 25725, Note_on_c, 0, 77, 0
1, 25728, Note_on_c, 0, 79, 78
1, 25728, Note_on_c, 1, 63, 78
1, 25776, Note_on_c, 0, 79, 0
1, 25776, Note_on_c, 0, 72, 78
1, 25817, Note_on_c, 1, 63, 0
1, 25821, Note_on_c, 0, 72, 0
1, 25824, Note_on_c, 0, 75, 78
1, 25824, Note_on_c, 1, 65, 78
1, 25872, Note_on_c, 0, 75, 0
1, 25872, Note_on_c, 0, 69, 78
1, 25913, Note_on_c, 1, 65, 0
1, 25917, Note_on_c, 0, 69, 0
1, 25920, Note_on_c, 0, 72, 78
1, 26016, Note_on_c, 0, 72, 0
1, 26016, Note_on_c, 0, 70, 78
1, 26016, Note_on_c, 1, 58, 78
1, 26028, Note_on_c, 0, 70, 0
1, 26028, Note_on_c, 0, 72, 78
1, 26040, Note_on_c, 0, 72, 0
1, 26040, Note_on_c, 0, 70, 78
1, 26061, Note_on_c, 1, 58, 0
1, 26064, Note_on_c, 1, 55, 78
1, 26109, Note_on_c, 1, 55, 0
1, 26112, Note_on_c, 1, 56, 78
1, 26157, Note_on_c, 1, 56, 0
1, 26160, Note_on_c, 1, 53, 78
1, 26193, Note_on_c, 0, 70, 0
1, 26205, Note_on_c, 1, 53, 0
1, 26208, Note_on_c, 0, 70, 78
1, 26208, Note_on_c, 1, 52, 64
1, 26220, Note_on_c, 0, 70, 0
1, 26220, Note_on_c, 0, 72, 78
1, 26232, Note_on_c, 0, 72, 0
1, 26232, Note_on_c, 0, 70, 78
1, 26244, Note_on_c, 0, 70, 0
1, 26244, Note_on_c, 0, 72, 78
1, 26256, Note_on_c, 0, 72, 0
1, 26256, Note_on_c, 0, 70, 78
1, 26268, Note_on_c, 0, 70, 0
1, 26268, Note_on_c, 0, 72, 78
1, 26275, Note_on_c, 0, 72, 0
1, 26280, Note_on_c, 0, 69, 78
1, 26292, Note_on_c, 0, 69, 0
1, 26292, Note_on_c, 0, 70, 78
1, 26304, Note_on_c, 0, 70, 0
1, 26304, Note_on_c, 0, 79, 78
1, 26304, Note_on_c, 1, 61, 78
1, 26352, Note_on_c, 0, 79, 0
1, 26352, Note_on_c, 0, 70, 78
1, 26385, Note_on_c, 1, 52, 0
1, 26393, Note_on_c, 1, 61, 0
1, 26397, Note_on_c, 0, 70, 0
1, 26400, Note_on_c, 0, 70, 78
1, 26400, Note_on_c, 1, 60, 78
1, 26400, Note_on_c, 1, 53, 64
1, 26448, Note_on_c, 0, 70, 0
1, 26448, Note_on_c, 0, 69, 78
1, 26489, Note_on_c, 1, 60, 0
1, 26489, Note_on_c, 1, 53, 0
1, 26493, Note_on_c, 0, 69, 0
1, 26496, Note_on_c, 0, 68, 78
1, 26496, Note_on_c, 1, 50, 64
1, 26508, Note_on_c, 0, 68, 0
1, 26508, Note_on_c, 0, 70, 78
1, 26520, Note_on_c, 0, 70, 0
1, 26520, Note_on_c, 0, 68, 78
1, 26532, Note_on_c, 0, 68, 0
1, 26532, Note_on_c, 0, 70, 78
1, 26544, Note_on_c, 0, 70, 0
1, 26544, Note_on_c, 0, 68, 78
1, 26556, Note_on_c, 0, 68, 0
1, 26556, Note_on_c, 0, 70, 78
1, 26563, Note_on_c, 0, 70, 0
1, 26568, Note_on_c, 0, 67, 78
1, 26580, Note_on_c, 0, 67, 0
1, 26580, Note_on_c, 0, 68, 78
1, 26592, Note_on_c, 0, 68, 0
1, 26592, Note_on_c, 0, 77, 78
1, 26592, Note_on_c, 1, 59, 78
1, 26640, Note_on_c, 0, 77, 0
1, 26640, Note_on_c, 0, 68, 78
1, 26673, Note_on_c, 1, 50, 0
1, 26681, Note_on_c, 1, 59, 0
1, 26685, Note_on_c, 0, 68, 0
1, 26688, Note_on_c, 0, 68, 78
1, 26688, Note_on_c, 1, 58, 78
1, 26688, Note_on_c, 1, 51, 64
1, 26736, Note_on_c, 0, 68, 0
1, 26736, Note_on_c, 0, 67, 78
1, 26777, Note_on_c, 1, 58, 0
1, 26777, Note_on_c, 1, 51, 0
1, 26781, Note_on_c, 0, 67, 0
1, 26784, Note_on_c, 0, 67, 78
1, 26784, Note_on_c, 1, 60, 78
1, 26784, Note_on_c, 1, 56, 64
1, 26796, Note_on_c, 0, 67, 0
1, 26796, Note_on_c, 0, 68, 78
1, 26808, Note_on_c, 0, 68, 0
1, 26808, Note_on_c, 0, 67, 78
1, 26832, Note_on_c, 0, 67, 0
1, 26832, Note_on_c, 0, 65, 78
1, 26877, Note_on_c, 0, 65, 0
1, 26880, Note_on_c, 0, 72, 78
1, 26917, Note_on_c, 1, 60, 0
1, 26928, Note_on_c, 0, 72, 0
1, 26928, Note_on_c, 0, 68, 78
1, 26961, Note_on_c, 1, 56, 0
1, 26973, Note_on_c, 0, 68, 0
1, 26976, Note_on_c, 0, 65, 78
1, 26976, Note_on_c, 1, 57, 64
1, 27024, Note_on_c, 0, 65, 0
1, 27024, Note_on_c, 0, 63, 78
1, 27065, Note_on_c, 1, 57, 0
1, 27069, Note_on_c, 0, 63, 0
1, 27072, Note_on_c, 0, 63, 78
1, 27072, Note_on_c, 1, 58, 78
1, 27072, Note_on_c, 1, 58, 64
1, 27161, Note_on_c, 1, 58, 0
1, 27161, Note_on_c, 1, 58, 0
1, 27168, Note_on_c, 0, 63, 0
1, 27168, Note_on_c, 0, 62, 78
1, 27168, Note_on_c, 1, 46, 78
1, 27180, Note_on_c, 0, 62, 0
1, 27180, Note_on_c, 0, 63, 78
1, 27192, Note_on_c, 0, 63, 0
1, 27192, Note_on_c, 0, 62, 78
1, 27257, Note_on_c, 0, 62, 0
1, 27257, Note_on_c, 1, 46, 0
1, 27264, Note_on_c, 0, 58, 78
1, 27353, Note_on_c, 0, 58, 0
1, 27360, Note_on_c, 0, 63, 78
1, 27456, Note_on_c, 1, 51, 78
1, 27493, Note_on_c, 0, 63, 0
1, 27504, Note_on_c, 0, 67, 78
1, 27552, Note_on_c, 1, 51, 0
1, 27552, Note_on_c, 1, 56, 78
1, 27593, Note_on_c, 0, 67, 0
1, 27600, Note_on_c, 0, 60, 78
1, 27641, Note_on_c, 1, 56, 0
1, 27648, Note_on_c, 1, 53, 78
1, 27693, Note_on_c, 0, 60, 0
1, 27696, Note_on_c, 0, 68, 78
1, 27737, Note_on_c, 1, 53, 0
1, 27744, Note_on_c, 1, 58, 78
1, 27785, Note_on_c, 0, 68, 0
1, 27792, Note_on_c, 0, 62, 78
1, 27833, Note_on_c, 1, 58, 0
1, 27840, Note_on_c, 1, 56, 78
1, 27881, Note_on_c, 0, 62, 0
1, 27888, Note_on_c, 0, 72, 78
1, 27929, Note_on_c, 1, 56, 0
1, 27936, Note_on_c, 1, 55, 78
1, 27981, Note_on_c, 0, 72, 0
1, 27984, Note_on_c, 0, 70, 78
1, 28025, Note_on_c, 1, 55, 0
1, 28029, Note_on_c, 0, 70, 0
1, 28032, Note_on_c, 0, 68, 78
1, 28032, Note_on_c, 1, 56, 78
1, 28077, Note_on_c, 0, 68, 0
1, 28080, Note_on_c, 0, 67, 78
1, 28121, Note_on_c, 1, 56, 0
1, 28125, Note_on_c, 0, 67, 0
1, 28128, Note_on_c, 0, 65, 78
1, 28128, Note_on_c, 1, 57, 78
1, 28173, Note_on_c, 0, 65, 0
1, 28176, Note_on_c, 0, 63, 78
1, 28217, Note_on_c, 1, 57, 0
1, 28221, Note_on_c, 0, 63, 0
1, 28224, Note_on_c, 0, 63, 78
1, 28224, Note_on_c, 1, 58, 78
1, 28313, Note_on_c, 0, 63, 0
1, 28313, Note_on_c, 1, 58, 0
1, 28320, Note_on_c, 0, 62, 78
1, 28320, Note_on_c, 1, 46, 78
1, 28332, Note_on_c, 0, 62, 0
1, 28332, Note_on_c, 0, 63, 78
1, 28344, Note_on_c, 0, 63, 0
1, 28344, Note_on_c, 0, 62, 78
1, 28409, Note_on_c, 0, 62, 0
1, 28409, Note_on_c, 1, 46, 0
1, 28416, Note_on_c, 0, 58, 78
1, 28436, Note_on_c, 0, 58, 0
1, 28464, Note_on_c, 0, 58, 78
1, 28512, Note_on_c, 0, 58, 0
1, 28512, Note_on_c, 0, 63, 78
1, 28532, Note_on_c, 0, 63, 0
1, 28560, Note_on_c, 0, 63, 78
1, 28608, Note_on_c, 0, 63, 0
1, 28608, Note_on_c, 0, 67, 78
1, 28608, Note_on_c, 1, 51, 78
1, 28628, Note_on_c, 0, 67, 0
1, 28628, Note_on_c, 1, 51, 0
1, 28656, Note_on_c, 0, 67, 78
1, 28656, Note_on_c, 1, 51, 78
1, 28704, Note_on_c, 0, 67, 0
1, 28704, Note_on_c, 0, 60, 78
1, 28704, Note_on_c, 1, 51, 0
1, 28704, Note_on_c, 1, 56, 78
1, 28724, Note_on_c, 0, 60, 0
1, 28724, Note_on_c, 1, 56, 0
1, 28752, Note_on_c, 0, 60, 78
1, 28752, Note_on_c, 1, 56, 78
1, 28800, Note_on_c, 0, 60, 0
1, 28800, Note_on_c, 0, 68, 78
1, 28800, Note_on_c, 1, 56, 0
1, 28800, Note_on_c, 1, 53, 78
1, 28820, Note_on_c, 0, 68, 0
1, 28820, Note_on_c, 1, 53, 0
1, 28848, Note_on_c, 0, 68, 78
1, 28848, Note_on_c, 1, 53, 78
1, 28896, Note_on_c, 0, 68, 0
1, 28896, Note_on_c, 0, 62, 78
1, 28896, Note_on_c, 1, 53, 0
1, 28896, Note_on_c, 1, 58, 78
1, 28916, Note_on_c, 0, 62, 0
1, 28916, Note_on_c, 1, 58, 0
1, 28944, Note_on_c, 0, 62, 78
1, 28944, Note_on_c, 1, 58, 78
1, 28989, Note_on_c, 0, 62, 0
1, 28989, Note_on_c, 1, 58, 0
1, 28992, Note_on_c, 0, 74, 78
1, 28992, Note_on_c, 1, 56, 78
1, 29040, Note_on_c, 0, 74, 0
1, 29040, Note_on_c, 0, 70, 78
1, 29081, Note_on_c, 1, 56, 0
1, 29085, Note_on_c, 0, 70, 0
1, 29088, Note_on_c, 0, 75, 78
1, 29088, Note_on_c, 1, 55, 78
1, 29136, Note_on_c, 0, 75, 0
1, 29136, Note_on_c, 0, 70, 78
1, 29177, Note_on_c, 1, 55, 0
1, 29181, Note_on_c, 0, 70, 0
1, 29184, Note_on_c, 0, 72, 78
1, 29184, Note_on_c, 1, 56, 78
1, 29232, Note_on_c, 0, 72, 0
1, 29232, Note_on_c, 0, 65, 78
1, 29273, Note_on_c, 1, 56, 0
1, 29277, Note_on_c, 0, 65, 0
1, 29280, Note_on_c, 0, 68, 78
1, 29280, Note_on_c, 1, 58, 78
1, 29328, Note_on_c, 0, 68, 0
1, 29328, Note_on_c, 0, 62, 78
1, 29369, Note_on_c, 1, 58, 0
1, 29373, Note_on_c, 0, 62, 0
1, 29376, Note_on_c, 0, 63, 78
1, 29376, Note_on_c, 1, 51, 78
1, 29465, Note_on_c, 0, 63, 0
1, 29465, Note_on_c, 1, 51, 0
1, 29472, Note_on_c, 1, 39, 78
1, 29561, Note_on_c, 1, 39, 0
1, 29568, Note_on_c, 0, 63, 78
1, 29657, Note_on_c, 0, 63, 0
1, 29664, Note_on_c, 0, 72, 78
1, 29760, Note_on_c, 1, 63, 78
1, 29760, Note_on_c, 1, 56, 78
1, 29841, Note_on_c, 0, 72, 0
1, 29849, Note_on_c, 1, 63, 0
1, 29849, Note_on_c, 1, 56, 0
1, 29856, Note_on_c, 0, 75, 78
1, 29856, Note_on_c, 1, 63, 78
1, 29856, Note_on_c, 1, 58, 78
1, 29879, Note_on_c, 0, 75, 0
1, 29880, Note_on_c, 0, 73, 78
1, 29903, Note_on_c, 0, 73, 0
1, 29904, Note_on_c, 0, 72, 78
1, 29927, Note_on_c, 0, 72, 0
1, 29928, Note_on_c, 0, 73, 78
1, 29945, Note_on_c, 1, 63, 0
1, 29945, Note_on_c, 1, 58, 0
1, 29951, Note_on_c, 0, 73, 0
1, 29952, Note_on_c, 0, 70, 78
1, 29952, Note_on_c, 1, 63, 78
1, 29952, Note_on_c, 1, 55, 78
1, 29991, Note_on_c, 0, 70, 0
1, 30048, Note_on_c, 0, 70, 78
1, 30087, Note_on_c, 0, 70, 0
1, 30129, Note_on_c, 1, 63, 0
1, 30129, Note_on_c, 1, 55, 0
1, 30144, Note_on_c, 0, 73, 78
1, 30144, Note_on_c, 1, 63, 78
1, 30144, Note_on_c, 1, 56, 78
1, 30167, Note_on_c, 0, 73, 0
1, 30168, Note_on_c, 0, 72, 78
1, 30191, Note_on_c, 0, 72, 0
1, 30192, Note_on_c, 0, 70, 78
1, 30215, Note_on_c, 0, 70, 0
1, 30216, Note_on_c, 0, 72, 78
1, 30233, Note_on_c, 1, 63, 0
1, 30233, Note_on_c, 1, 56, 0
1, 30239, Note_on_c, 0, 72, 0
1, 30240, Note_on_c, 0, 68, 78
1, 30240, Note_on_c, 1, 65, 78
1, 30240, Note_on_c, 1, 61, 78
1, 30240, Note_on_c, 1, 61, 64
1, 30329, Note_on_c, 0, 68, 0
1, 30336, Note_on_c, 0, 77, 78
1, 30417, Note_on_c, 1, 65, 0
1, 30417, Note_on_c, 1, 61, 0
1, 30417, Note_on_c, 1, 61, 0
1, 30425, Note_on_c, 0, 77, 0
1, 30432, Note_on_c, 0, 75, 78
1, 30432, Note_on_c, 1, 68, 64
1, 30432, Note_on_c, 1, 60, 64
1, 30521, Note_on_c, 0, 75, 0
1, 30521, Note_on_c, 1, 68, 0
1, 30521, Note_on_c, 1, 60, 0
1, 30528, Note_on_c, 0, 73, 78
1, 30528, Note_on_c, 1, 67, 64
1, 30528, Note_on_c, 1, 58, 64
1, 30540, Note_on_c, 0, 73, 0
1, 30540, Note_on_c, 0, 75, 78
1, 30552, Note_on_c, 0, 75, 0
1, 30552, Note_on_c, 0, 73, 78
1, 30617, Note_on_c, 0, 73, 0
1, 30617, Note_on_c, 1, 67, 0
1, 30617, Note_on_c, 1, 58, 0
1, 30624, Note_on_c, 0, 72, 78
1, 30624, Note_on_c, 1, 68, 64
1, 30624, Note_on_c, 1, 56, 64
1, 30713, Note_on_c, 0, 72, 0
1, 30713, Note_on_c, 1, 68, 0
1, 30713, Note_on_c, 1, 56, 0
1, 30720, Note_on_c, 0, 63, 78
1, 30809, Note_on_c, 0, 63, 0
1, 30816, Note_on_c, 0, 72, 78
1, 30912, Note_on_c, 1, 63, 64
1, 30912, Note_on_c, 1, 56, 64
1, 30993, Note_on_c, 0, 72, 0
1, 31001, Note_on_c, 1, 63, 0
1, 31001, Note_on_c, 1, 56, 0
1, 31008, Note_on_c, 0, 75, 78
1, 31008, Note_on_c, 1, 63, 64
1, 31008, Note_on_c, 1, 58, 64
1, 31031, Note_on_c, 0, 75, 0
1, 31032, Note_on_c, 0, 73, 78
1, 31055, Note_on_c, 0, 73, 0
1, 31056, Note_on_c, 0, 72, 78
1, 31079, Note_on_c, 0, 72, 0
1, 31080, Note_on_c, 0, 73, 78
1, 31097, Note_on_c, 1, 63, 0
1, 31097, Note_on_c, 1, 58, 0
1, 31103, Note_on_c, 0, 73, 0
1, 31104, Note_on_c, 0, 70, 78
1, 31104, Note_on_c, 1, 63, 64
1, 31104, Note_on_c, 1, 55, 64
1, 31143, Note_on_c, 0, 70, 0
1, 31200, Note_on_c, 0, 70, 78
1, 31239, Note_on_c, 0, 70, 0
1, 31281, Note_on_c, 1, 63, 0
1, 31281, Note_on_c, 1, 55, 0
1, 31296, Note_on_c, 0, 73, 78
1, 31296, Note_on_c, 1, 63, 64
1, 31296, Note_on_c, 1, 56, 64
1, 31319, Note_on_c, 0, 73, 0
1, 31320, Note_on_c, 0, 72, 78
1, 31343, Note_on_c, 0, 72, 0
1, 31344, Note_on_c, 0, 70, 78
1, 31367, Note_on_c, 0, 70, 0
1, 31368, Note_on_c, 0, 72, 78
1, 31385, Note_on_c, 1, 63, 0
1, 31385, Note_on_c, 1, 56, 0
1, 31391, Note_on_c, 0, 72, 0
1, 31392, Note_on_c, 0, 68, 78
1, 31392, Note_on_c, 1, 65, 78
1, 31392, Note_on_c, 1, 53, 78
1, 31481, Note_on_c, 0, 68, 0
1, 31488, Note_on_c, 0, 80, 78
1, 31569, Note_on_c, 1, 65, 0
1, 31569, Note_on_c, 1, 53, 0
1, 31577, Note_on_c, 0, 80, 0
1, 31584, Note_on_c, 0, 74, 78
1, 31584, Note_on_c, 0, 68, 78
1, 31584, Note_on_c, 1, 65, 78
1, 31584, Note_on_c, 1, 58, 78
1, 31623, Note_on_c, 0, 74, 0
1, 31623, Note_on_c, 0, 68, 0
1, 31673, Note_on_c, 1, 65, 0
1, 31673, Note_on_c, 1, 58, 0
1, 31680, Note_on_c, 0, 75, 78
1, 31680, Note_on_c, 0, 67, 78
1, 31680, Note_on_c, 1, 63, 78
1, 31680, Note_on_c, 1, 51, 78
1, 31769, Note_on_c, 0, 75, 0
1, 31769, Note_on_c, 0, 67, 0
1, 31769, Note_on_c, 1, 63, 0
1, 31769, Note_on_c, 1, 51, 0
1, 31872, Note_on_c, 0, 63, 78
1, 31961, Note_on_c, 0, 63, 0
1, 31968, Note_on_c, 0, 72, 78
1, 32064, Note_on_c, 1, 63, 78
1, 32064, Note_on_c, 1, 56, 78
1, 32145, Note_on_c, 0, 72, 0
1, 32153, Note_on_c, 1, 63, 0
1, 32153, Note_on_c, 1, 56, 0
1, 32160, Note_on_c, 0, 75, 78
1, 32160, Note_on_c, 1, 63, 78
1, 32160, Note_on_c, 1, 58, 78
1, 32183, Note_on_c, 0, 75, 0
1, 32184, Note_on_c, 0, 73, 78
1, 32207, Note_on_c, 0, 73, 0
1, 32208, Note_on_c, 0, 72, 78
1, 32231, Note_on_c, 0, 72, 0
1, 32232, Note_on_c, 0, 73, 78
1, 32249, Note_on_c, 1, 63, 0
1, 32249, Note_on_c, 1, 58, 0
1, 32255, Note_on_c, 0, 73, 0
1, 32256, Note_on_c, 0, 70, 78
1, 32256, Note_on_c, 1, 63, 78
1, 32256, Note_on_c, 1, 55, 78
1, 32295, Note_on_c, 0, 70, 0
1, 32352, Note_on_c, 0, 70, 78
1, 32391, Note_on_c, 0, 70, 0
1, 32433, Note_on_c, 1, 63, 0
1, 32433, Note_on_c, 1, 55, 0
1, 32448, Note_on_c, 0, 73, 78
1, 32448, Note_on_c, 1, 63, 78
1, 32448, Note_on_c, 1, 56, 78
1, 32471, Note_on_c, 0, 73, 0
1, 32472, Note_on_c, 0, 72, 78
1, 32495, Note_on_c, 0, 72, 0
1, 32496, Note_on_c, 0, 70, 78
1, 32519, Note_on_c, 0, 70, 0
1, 32520, Note_on_c, 0, 72, 78
1, 32537, Note_on_c, 1, 63, 0
1, 32537, Note_on_c, 1, 56, 0
1, 32543, Note_on_c, 0, 72, 0
1, 32544, Note_on_c, 0, 68, 78
1, 32544, Note_on_c, 1, 65, 78
1, 32544, Note_on_c, 1, 61, 78
1, 32544, Note_on_c, 1, 61, 64
1, 32633, Note_on_c, 0, 68, 0
1, 32640, Note_on_c, 0, 77, 78
1, 32721, Note_on_c, 1, 65, 0
1, 32721, Note_on_c, 1, 61, 0
1, 32721, Note_on_c, 1, 61, 0
1, 32729, Note_on_c, 0, 77, 0
1, 32736, Note_on_c, 0, 75, 78
1, 32736, Note_on_c, 1, 68, 64
1, 32736, Note_on_c, 1, 60, 64
1, 32825, Note_on_c, 0, 75, 0
1, 32825, Note_on_c, 1, 68, 0
1, 32825, Note_on_c, 1, 60, 0
1, 32832, Note_on_c, 0, 73, 78
1, 32832, Note_on_c, 1, 67, 64
1, 32832, Note_on_c, 1, 58, 64
1, 32844, Note_on_c, 0, 73, 0
1, 32844, Note_on_c, 0, 75, 78
1, 32856, Note_on_c, 0, 75, 0
1, 32856, Note_on_c, 0, 73, 78
1, 32921, Note_on_c, 0, 73, 0
1, 32921, Note_on_c, 1, 67, 0
1, 32921, Note_on_c, 1, 58, 0
1, 32928, Note_on_c, 0, 72, 78
1, 32928, Note_on_c, 1, 68, 64
1, 32928, Note_on_c, 1, 56, 64
1, 33017, Note_on_c, 0, 72, 0
1, 33017, Note_on_c, 1, 68, 0
1, 33017, Note_on_c, 1, 56, 0
1, 33024, Note_on_c, 0, 63, 78
1, 33113, Note_on_c, 0, 63, 0
1, 33120, Note_on_c, 0, 72, 78
1, 33216, Note_on_c, 1, 63, 64
1, 33216, Note_on_c, 1, 56, 64
1, 33297, Note_on_c, 0, 72, 0
1, 33305, Note_on_c, 1, 63, 0
1, 33305, Note_on_c, 1, 56, 0
1, 33312, Note_on_c, 0, 75, 78
1, 33312, Note_on_c, 1, 63, 64
1, 33312, Note_on_c, 1, 58, 64
1, 33335, Note_on_c, 0, 75, 0
1, 33336, Note_on_c, 0, 73, 78
1, 33359, Note_on_c, 0, 73, 0
1, 33360, Note_on_c, 0, 72, 78
1, 33383, Note_on_c, 0, 72, 0
1, 33384, Note_on_c, 0, 73, 78
1, 33401, Note_on_c, 1, 63, 0
1, 33401, Note_on_c, 1, 58, 0
1, 33407, Note_on_c, 0, 73, 0
1, 33408, Note_on_c, 0, 70, 78
1, 33408, Note_on_c, 1, 63, 64
1, 33408, Note_on_c, 1, 55, 64
1, 33447, Note_on_c, 0, 70, 0
1, 33504, Note_on_c, 0, 70, 78
1, 33543, Note_on_c, 0, 70, 0
1, 33585, Note_on_c, 1, 63, 0
1, 33585, Note_on_c, 1, 55, 0
1, 33600, Note_on_c, 0, 73, 78
1, 33600, Note_on_c, 1, 63, 64
1, 33600, Note_on_c, 1, 56, 64
1, 33623, Note_on_c, 0, 73, 0
1, 33624, Note_on_c, 0, 72, 78
1, 33647, Note_on_c, 0, 72, 0
1, 33648, Note_on_c, 0, 70, 78
1, 33671, Note_on_c, 0, 70, 0
1, 33672, Note_on_c, 0, 72, 78
1, 33689, Note_on_c, 1, 63, 0
1, 33689, Note_on_c, 1, 56, 0
1, 33695, Note_on_c, 0, 72, 0
1, 33696, Note_on_c, 0, 68, 78
1, 33696, Note_on_c, 1, 65, 78
1, 33696, Note_on_c, 1, 53, 78
1, 33785, Note_on_c, 0, 68, 0
1, 33792, Note_on_c, 0, 80, 78
1, 33873, Note_on_c, 1, 65, 0
1, 33873, Note_on_c, 1, 53, 0
1, 33881, Note_on_c, 0, 80, 0
1, 33888, Note_on_c, 0, 74, 78
1, 33888, Note_on_c, 0, 68, 78
1, 33888, Note_on_c, 1, 65, 78
1, 33888, Note_on_c, 1, 58, 78
1, 33927, Note_on_c, 0, 74, 0
1, 33927, Note_on_c, 0, 68, 0
1, 33977, Note_on_c, 1, 65, 0
1, 33977, Note_on_c, 1, 58, 0
1, 33984, Note_on_c, 0, 75, 78
1, 33984, Note_on_c, 0, 67, 78
1, 33984, Note_on_c, 1, 63, 78
1, 33984, Note_on_c, 1, 51, 78
1, 34023, Note_on_c, 0, 75, 0
1, 34023, Note_on_c, 0, 67, 0
1, 34073, Note_on_c, 1, 63, 0
1, 34073, Note_on_c, 1, 51, 0
1, 34176, Note_on_c, 0, 77, 78
1, 34199, Note_on_c, 0, 77, 0
1, 34200, Note_on_c, 0, 75, 78
1, 34223, Note_on_c, 0, 75, 0
1, 34224, Note_on_c, 0, 74, 78
1, 34247, Note_on_c, 0, 74, 0
1, 34248, Note_on_c, 0, 75, 78
1, 34271, Note_on_c, 0, 75, 0
1, 34272, Note_on_c, 0, 79, 78
1, 34272, Note_on_c, 1, 73, 78
1, 34272, Note_on_c, 1, 63, 64
1, 34368, Note_on_c, 0, 79, 0
1, 34368, Note_on_c, 0, 75, 78
1, 34449, Note_on_c, 1, 73, 0
1, 34457, Note_on_c, 0, 75, 0
1, 34464, Note_on_c, 0, 82, 78
1, 34464, Note_on_c, 1, 72, 78
1, 34487, Note_on_c, 0, 82, 0
1, 34488, Note_on_c, 0, 80, 78
1, 34511, Note_on_c, 0, 80, 0
1, 34512, Note_on_c, 0, 79, 78
1, 34535, Note_on_c, 0, 79, 0
1, 34536, Note_on_c, 0, 80, 78
1, 34537, Note_on_c, 1, 63, 0
1, 34553, Note_on_c, 1, 72, 0
1, 34559, Note_on_c, 0, 80, 0
1, 34560, Note_on_c, 0, 82, 78
1, 34560, Note_on_c, 1, 67, 78
1, 34560, Note_on_c, 1, 63, 64
1, 34649, Note_on_c, 0, 82, 0
1, 34656, Note_on_c, 0, 75, 78
1, 34737, Note_on_c, 1, 67, 0
1, 34745, Note_on_c, 0, 75, 0
1, 34752, Note_on_c, 0, 85, 78
1, 34752, Note_on_c, 1, 68, 78
1, 34775, Note_on_c, 0, 85, 0
1, 34776, Note_on_c, 0, 84, 78
1, 34799, Note_on_c, 0, 84, 0
1, 34800, Note_on_c, 0, 82, 78
1, 34823, Note_on_c, 0, 82, 0
1, 34824, Note_on_c, 0, 84, 78
1, 34841, Note_on_c, 1, 68, 0
1, 34847, Note_on_c, 0, 84, 0
1, 34848, Note_on_c, 0, 85, 78
1, 34848, Note_on_c, 1, 70, 78
1, 34937, Note_on_c, 0, 85, 0
1, 34937, Note_on_c, 1, 70, 0
1, 34944, Note_on_c, 0, 82, 78
1, 34944, Note_on_c, 1, 67, 78
1, 35011, Note_on_c, 0, 82, 0
1, 35016, Note_on_c, 0, 85, 78
1, 35033, Note_on_c, 1, 67, 0
1, 35039, Note_on_c, 0, 85, 0
1, 35040, Note_on_c, 0, 84, 78
1, 35040, Note_on_c, 1, 68, 78
1, 35107, Note_on_c, 0, 84, 0
1, 35112, Note_on_c, 0, 80, 78
1, 35113, Note_on_c, 1, 63, 0
1, 35129, Note_on_c, 1, 68, 0
1, 35135, Note_on_c, 0, 80, 0
1, 35136, Note_on_c, 0, 87, 78
1, 35136, Note_on_c, 1, 67, 78
1, 35136, Note_on_c, 1, 63, 64
1, 35175, Note_on_c, 0, 87, 0
1, 35225, Note_on_c, 1, 67, 0
1, 35225, Note_on_c, 1, 63, 0
1, 35328, Note_on_c, 0, 63, 78
1, 35417, Note_on_c, 0, 63, 0
1, 35424, Note_on_c, 0, 72, 78
1, 35520, Note_on_c, 1, 63, 78
1, 35520, Note_on_c, 1, 56, 78
1, 35601, Note_on_c, 0, 72, 0
1, 35609, Note_on_c, 1, 63, 0
1, 35609, Note_on_c, 1, 56, 0
1, 35616, Note_on_c, 0, 75, 78
1, 35616, Note_on_c, 1, 63, 78
1, 35616, Note_on_c, 1, 58, 78
1, 35639, Note_on_c, 0, 75, 0
1, 35640, Note_on_c, 0, 73, 78
1, 35663, Note_on_c, 0, 73, 0
1, 35664, Note_on_c, 0, 72, 78
1, 35687, Note_on_c, 0, 72, 0
1, 35688, Note_on_c, 0, 73, 78
1, 35705, Note_on_c, 1, 63, 0
1, 35705, Note_on_c, 1, 58, 0
1, 35711, Note_on_c, 0, 73, 0
1, 35712, Note_on_c, 0, 70, 78
1, 35712, Note_on_c, 1, 63, 78
1, 35712, Note_on_c, 1, 55, 78
1, 35751, Note_on_c, 0, 70, 0
1, 35808, Note_on_c, 0, 70, 78
1, 35847, Note_on_c, 0, 70, 0
1, 35889, Note_on_c, 1, 63, 0
1, 35889, Note_on_c, 1, 55, 0
1, 35904, Note_on_c, 0, 73, 78
1, 35904, Note_on_c, 1, 63, 78
1, 35904, Note_on_c, 1, 56, 78
1, 35927, Note_on_c, 0, 73, 0
1, 35928, Note_on_c, 0, 72, 78
1, 35951, Note_on_c, 0, 72, 0
1, 35952, Note_on_c, 0, 70, 78
1, 35975, Note_on_c, 0, 70, 0
1, 35976, Note_on_c, 0, 72, 78
1, 35993, Note_on_c, 1, 63, 0
1, 35993, Note_on_c, 1, 56, 0
1, 35999, Note_on_c, 0, 72, 0
1, 36000, Note_on_c, 0, 68, 78
1, 36000, Note_on_c, 1, 61, 78
1, 36089, Note_on_c, 0, 68, 0
1, 36096, Note_on_c, 0, 77, 78
1, 36177, Note_on_c, 1, 61, 0
1, 36185, Note_on_c, 0, 77, 0
1, 36192, Note_on_c, 0, 75, 78
1, 36192, Note_on_c, 0, 70, 85
1, 36192, Note_on_c, 1, 60, 78
1, 36215, Note_on_c, 0, 70, 0
1, 36216, Note_on_c, 0, 68, 85
1, 36239, Note_on_c, 0, 68, 0
1, 36240, Note_on_c, 0, 67, 85
1, 36263, Note_on_c, 0, 67, 0
1, 36264, Note_on_c, 0, 68, 85
1, 36281, Note_on_c, 0, 75, 0
1, 36281, Note_on_c, 1, 60, 0
1, 36287, Note_on_c, 0, 68, 0
1, 36288, Note_on_c, 0, 75, 78
1, 36288, Note_on_c, 0, 65, 85
1, 36288, Note_on_c, 1, 58, 78
1, 36377, Note_on_c, 0, 75, 0
1, 36377, Note_on_c, 0, 65, 0
1, 36384, Note_on_c, 0, 74, 78
1, 36384, Note_on_c, 0, 70, 85
1, 36473, Note_on_c, 0, 74, 0
1, 36473, Note_on_c, 0, 70, 0
1, 36480, Note_on_c, 0, 79, 78
1, 36480, Note_on_c, 0, 68, 85
1, 36503, Note_on_c, 0, 79, 0
1, 36504, Note_on_c, 0, 77, 78
1, 36527, Note_on_c, 0, 77, 0
1, 36528, Note_on_c, 0, 75, 78
1, 36551, Note_on_c, 0, 75, 0
1, 36552, Note_on_c, 0, 77, 78
1, 36553, Note_on_c, 1, 58, 0
1, 36569, Note_on_c, 0, 68, 0
1, 36575, Note_on_c, 0, 77, 0
1, 36576, Note_on_c, 0, 70, 78
1, 36576, Note_on_c, 0, 68, 85
1, 36576, Note_on_c, 1, 63, 78
1, 36665, Note_on_c, 0, 70, 0
1, 36672, Note_on_c, 0, 75, 78
1, 36672, Note_on_c, 0, 68, 0
1, 36672, Note_on_c, 0, 67, 85
1, 36753, Note_on_c, 1, 63, 0
1, 36761, Note_on_c, 0, 75, 0
1, 36761, Note_on_c, 0, 67, 0
1, 36768, Note_on_c, 0, 73, 78
1, 36768, Note_on_c, 0, 67, 85
1, 36768, Note_on_c, 1, 53, 78
1, 36791, Note_on_c, 1, 53, 0
1, 36792, Note_on_c, 1, 51, 78
1, 36815, Note_on_c, 1, 51, 0
1, 36816, Note_on_c, 1, 50, 78
1, 36839, Note_on_c, 1, 50, 0
1, 36840, Note_on_c, 1, 51, 78
1, 36857, Note_on_c, 0, 73, 0
1, 36857, Note_on_c, 0, 67, 0
1, 36863, Note_on_c, 1, 51, 0
1, 36864, Note_on_c, 0, 73, 78
1, 36864, Note_on_c, 0, 68, 85
1, 36864, Note_on_c, 1, 44, 78
1, 36953, Note_on_c, 0, 73, 0
1, 36953, Note_on_c, 1, 44, 0
1, 36960, Note_on_c, 0, 72, 78
1, 36960, Note_on_c, 1, 56, 78
1, 37041, Note_on_c, 0, 68, 0
1, 37049, Note_on_c, 0, 72, 0
1, 37049, Note_on_c, 1, 56, 0
1, 37056, Note_on_c, 0, 73, 78
1, 37056, Note_on_c, 1, 56, 78
1, 37056, Note_on_c, 1, 54, 64
1, 37079, Note_on_c, 0, 73, 0
1, 37080, Note_on_c, 0, 72, 78
1, 37103, Note_on_c, 0, 72, 0
1, 37104, Note_on_c, 0, 70, 78
1, 37127, Note_on_c, 0, 70, 0
1, 37128, Note_on_c, 0, 72, 78
1, 37145, Note_on_c, 1, 54, 0
1, 37151, Note_on_c, 0, 72, 0
1, 37152, Note_on_c, 0, 73, 78
1, 37152, Note_on_c, 1, 53, 64
1, 37241, Note_on_c, 0, 73, 0
1, 37241, Note_on_c, 1, 53, 0
1, 37248, Note_on_c, 0, 75, 78
1, 37248, Note_on_c, 1, 51, 64
1, 37337, Note_on_c, 0, 75, 0
1, 37337, Note_on_c, 1, 51, 0
1, 37344, Note_on_c, 0, 79, 78
1, 37344, Note_on_c, 1, 49, 64
1, 37367, Note_on_c, 0, 79, 0
1, 37368, Note_on_c, 0, 77, 78
1, 37391, Note_on_c, 0, 77, 0
1, 37392, Note_on_c, 0, 75, 78
1, 37415, Note_on_c, 0, 75, 0
1, 37416, Note_on_c, 0, 77, 78
1, 37417, Note_on_c, 1, 56, 0
1, 37433, Note_on_c, 1, 49, 0
1, 37439, Note_on_c, 0, 77, 0
1, 37440, Note_on_c, 0, 75, 78
1, 37440, Note_on_c, 1, 56, 78
1, 37440, Note_on_c, 1, 48, 64
1, 37529, Note_on_c, 0, 75, 0
1, 37536, Note_on_c, 0, 80, 78
1, 37617, Note_on_c, 1, 48, 0
1, 37625, Note_on_c, 0, 80, 0
1, 37632, Note_on_c, 0, 79, 78
1, 37632, Note_on_c, 1, 49, 64
1, 37655, Note_on_c, 0, 79, 0
1, 37656, Note_on_c, 0, 77, 78
1, 37679, Note_on_c, 0, 77, 0
1, 37680, Note_on_c, 0, 75, 78
1, 37703, Note_on_c, 0, 75, 0
1, 37704, Note_on_c, 0, 77, 78
1, 37721, Note_on_c, 1, 49, 0
1, 37727, Note_on_c, 0, 77, 0
1, 37728, Note_on_c, 0, 75, 78
1, 37728, Note_on_c, 1, 51, 64
1, 37817, Note_on_c, 0, 75, 0
1, 37817, Note_on_c, 1, 56, 0
1, 37824, Note_on_c, 0, 68, 78
1, 37824, Note_on_c, 1, 60, 78
1, 37913, Note_on_c, 0, 68, 0
1, 37913, Note_on_c, 1, 60, 0
1, 37920, Note_on_c, 0, 67, 78
1, 37920, Note_on_c, 1, 58, 78
1, 37932, Note_on_c, 0, 67, 0
1, 37932, Note_on_c, 0, 68, 78
1, 37944, Note_on_c, 0, 68, 0
1, 37944, Note_on_c, 0, 67, 78
1, 37993, Note_on_c, 1, 51, 0
1, 38009, Note_on_c, 0, 67, 0
1, 38009, Note_on_c, 1, 58, 0
1, 38016, Note_on_c, 0, 68, 78
1, 38016, Note_on_c, 1, 56, 78
1, 38016, Note_on_c, 1, 56, 64
1, 38105, Note_on_c, 0, 68, 0
1, 38105, Note_on_c, 1, 56, 0
1, 38105, Note_on_c, 1, 56, 0
1, 38112, Note_on_c, 1, 44, 78
1, 38201, Note_on_c, 1, 44, 0
1, 38208, Note_on_c, 0, 77, 78
1, 38231, Note_on_c, 0, 77, 0
1, 38232, Note_on_c, 0, 75, 78
1, 38255, Note_on_c, 0, 75, 0
1, 38256, Note_on_c, 0, 74, 78
1, 38279, Note_on_c, 0, 74, 0
1, 38280, Note_on_c, 0, 75, 78
1, 38303, Note_on_c, 0, 75, 0
1, 38304, Note_on_c, 0, 79, 78
1, 38304, Note_on_c, 1, 73, 78
1, 38304, Note_on_c, 1, 63, 64
1, 38400, Note_on_c, 0, 79, 0
1, 38400, Note_on_c, 0, 75, 78
1, 38481, Note_on_c, 1, 73, 0
1, 38489, Note_on_c, 0, 75, 0
1, 38496, Note_on_c, 0, 82, 78
1, 38496, Note_on_c, 1, 72, 78
1, 38519, Note_on_c, 0, 82, 0
1, 38520, Note_on_c, 0, 80, 78
1, 38543, Note_on_c, 0, 80, 0
1, 38544, Note_on_c, 0, 79, 78
1, 38567, Note_on_c, 0, 79, 0
1, 38568, Note_on_c, 0, 80, 78
1, 38569, Note_on_c, 1, 63, 0
1, 38585, Note_on_c, 1, 72, 0
1, 38591, Note_on_c, 0, 80, 0
1, 38592, Note_on_c, 0, 82, 78
1, 38592, Note_on_c, 1, 67, 78
1, 38592, Note_on_c, 1, 63, 64
1, 38681, Note_on_c, 0, 82, 0
1, 38688, Note_on_c, 0, 75, 78
1, 38769, Note_on_c, 1, 67, 0
1, 38777, Note_on_c, 0, 75, 0
1, 38784, Note_on_c, 0, 85, 78
1, 38784, Note_on_c, 1, 68, 78
1, 38807, Note_on_c, 0, 85, 0
1, 38808, Note_on_c, 0, 84, 78
1, 38831, Note_on_c, 0, 84, 0
1, 38832, Note_on_c, 0, 82, 78
1, 38855, Note_on_c, 0, 82, 0
1, 38856, Note_on_c, 0, 84, 78
1, 38873, Note_on_c, 1, 68, 0
1, 38879, Note_on_c, 0, 84, 0
1, 38880, Note_on_c, 0, 85, 78
1, 38880, Note_on_c, 1, 70, 78
1, 38969, Note_on_c, 0, 85, 0
1, 38969, Note_on_c, 1, 70, 0
1, 38976, Note_on_c, 0, 82, 78
1, 38976, Note_on_c, 1, 67, 78
1, 39043, Note_on_c, 0, 82, 0
1, 39048, Note_on_c, 0, 85, 78
1, 39065, Note_on_c, 1, 67, 0
1, 39071, Note_on_c, 0, 85, 0
1, 39072, Note_on_c, 0, 84, 78
1, 39072, Note_on_c, 1, 68, 78
1, 39139, Note_on_c, 0, 84, 0
1, 39144, Note_on_c, 0, 80, 78
1, 39145, Note_on_c, 1, 63, 0
1, 39161, Note_on_c, 1, 68, 0
1, 39167, Note_on_c, 0, 80, 0
1, 39168, Note_on_c, 0, 87, 78
1, 39168, Note_on_c, 1, 67, 78
1, 39168, Note_on_c, 1, 63, 64
1, 39207, Note_on_c, 0, 87, 0
1, 39257, Note_on_c, 1, 67, 0
1, 39257, Note_on_c, 1, 63, 0
1, 39360, Note_on_c, 0, 63, 78
1, 39449, Note_on_c, 0, 63, 0
1, 39456, Note_on_c, 0, 72, 78
1, 39552, Note_on_c, 1, 63, 78
1, 39552, Note_on_c, 1, 56, 78
1, 39633, Note_on_c, 0, 72, 0
1, 39641, Note_on_c, 1, 63, 0
1, 39641, Note_on_c, 1, 56, 0
1, 39648, Note_on_c, 0, 75, 78
1, 39648, Note_on_c, 1, 63, 78
1, 39648, Note_on_c, 1, 58, 78
1, 39671, Note_on_c, 0, 75, 0
1, 39672, Note_on_c, 0, 73, 78
1, 39695, Note_on_c, 0, 73, 0
1, 39696, Note_on_c, 0, 72, 78
1, 39719, Note_on_c, 0, 72, 0
1, 39720, Note_on_c, 0, 73, 78
1, 39737, Note_on_c, 1, 63, 0
1, 39737, Note_on_c, 1, 58, 0
1, 39743, Note_on_c, 0, 73, 0
1, 39744, Note_on_c, 0, 70, 78
1, 39744, Note_on_c, 1, 63, 78
1, 39744, Note_on_c, 1, 55, 78
1, 39783, Note_on_c, 0, 70, 0
1, 39840, Note_on_c, 0, 70, 78
1, 39879, Note_on_c, 0, 70, 0
1, 39921, Note_on_c, 1, 63, 0
1, 39921, Note_on_c, 1, 55, 0
1, 39936, Note_on_c, 0, 73, 78
1, 39936, Note_on_c, 1, 63, 78
1, 39936, Note_on_c, 1, 56, 78
1, 39959, Note_on_c, 0, 73, 0
1, 39960, Note_on_c, 0, 72, 78
1, 39983, Note_on_c, 0, 72, 0
1, 39984, Note_on_c, 0, 70, 78
1, 40007, Note_on_c, 0, 70, 0
1, 40008, Note_on_c, 0, 72, 78
1, 40025, Note_on_c, 1, 63, 0
1, 40025, Note_on_c, 1, 56, 0
1, 40031, Note_on_c, 0, 72, 0
1, 40032, Note_on_c, 0, 68, 78
1, 40032, Note_on_c, 1, 61, 78
1, 40121, Note_on_c, 0, 68, 0
1, 40128, Note_on_c, 0, 77, 78
1, 40209, Note_on_c, 1, 61, 0
1, 40217, Note_on_c, 0, 77, 0
1, 40224, Note_on_c, 0, 75, 78
1, 40224, Note_on_c, 0, 70, 85
1, 40224, Note_on_c, 1, 60, 78
1, 40247, Note_on_c, 0, 70, 0
1, 40248, Note_on_c, 0, 68, 85
1, 40271, Note_on_c, 0, 68, 0
1, 40272, Note_on_c, 0, 67, 85
1, 40295, Note_on_c, 0, 67, 0
1, 40296, Note_on_c, 0, 68, 85
1, 40313, Note_on_c, 0, 75, 0
1, 40313, Note_on_c, 1, 60, 0
1, 40319, Note_on_c, 0, 68, 0
1, 40320, Note_on_c, 0, 75, 78
1, 40320, Note_on_c, 0, 65, 85
1, 40320, Note_on_c, 1, 58, 78
1, 40409, Note_on_c, 0, 75, 0
1, 40409, Note_on_c, 0, 65, 0
1, 40416, Note_on_c, 0, 74, 78
1, 40416, Note_on_c, 0, 70, 85
1, 40505, Note_on_c, 0, 74, 0
1, 40505, Note_on_c, 0, 70, 0
1, 40512, Note_on_c, 0, 79, 78
1, 40512, Note_on_c, 0, 68, 85
1, 40535, Note_on_c, 0, 79, 0
1, 40536, Note_on_c, 0, 77, 78
1, 40559, Note_on_c, 0, 77, 0
1, 40560, Note_on_c, 0, 75, 78
1, 40583, Note_on_c, 0, 75, 0
1, 40584, Note_on_c, 0, 77, 78
1, 40585, Note_on_c, 1, 58, 0
1, 40601, Note_on_c, 0, 68, 0
1, 40607, Note_on_c, 0, 77, 0
1, 40608, Note_on_c, 0, 70, 78
1, 40608, Note_on_c, 0, 68, 85
1, 40608, Note_on_c, 1, 63, 78
1, 40697, Note_on_c, 0, 70, 0
1, 40704, Note_on_c, 0, 75, 78
1, 40704, Note_on_c, 0, 68, 0
1, 40704, Note_on_c, 0, 67, 85
1, 40785, Note_on_c, 1, 63, 0
1, 40793, Note_on_c, 0, 75, 0
1, 40793, Note_on_c, 0, 67, 0
1, 40800, Note_on_c, 0, 73, 78
1, 40800, Note_on_c, 0, 67, 85
1, 40800, Note_on_c, 1, 53, 78
1, 40823, Note_on_c, 1, 53, 0
1, 40824, Note_on_c, 1, 51, 78
1, 40847, Note_on_c, 1, 51, 0
1, 40848, Note_on_c, 1, 50, 78
1, 40871, Note_on_c, 1, 50, 0
1, 40872, Note_on_c, 1, 51, 78
1, 40889, Note_on_c, 0, 73, 0
1, 40889, Note_on_c, 0, 67, 0
1, 40895, Note_on_c, 1, 51, 0
1, 40896, Note_on_c, 0, 73, 78
1, 40896, Note_on_c, 0, 68, 85
1, 40896, Note_on_c, 1, 44, 78
1, 40985, Note_on_c, 0, 73, 0
1, 40985, Note_on_c, 1, 44, 0
1, 40992, Note_on_c, 0, 72, 78
1, 40992, Note_on_c, 1, 56, 78
1, 41073, Note_on_c, 0, 68, 0
1, 41081, Note_on_c, 0, 72, 0
1, 41081, Note_on_c, 1, 56, 0
1, 41088, Note_on_c, 0, 73, 78
1, 41088, Note_on_c, 1, 56, 78
1, 41088, Note_on_c, 1, 54, 64
1, 41111, Note_on_c, 0, 73, 0
1, 41112, Note_on_c, 0, 72, 78
1, 41135, Note_on_c, 0, 72, 0
1, 41136, Note_on_c, 0, 70, 78
1, 41159, Note_on_c, 0, 70, 0
1, 41160, Note_on_c, 0, 72, 78
1, 41177, Note_on_c, 1, 54, 0
1, 41183, Note_on_c, 0, 72, 0
1, 41184, Note_on_c, 0, 73, 78
1, 41184, Note_on_c, 1, 53, 64
1, 41273, Note_on_c, 0, 73, 0
1, 41273, Note_on_c, 1, 53, 0
1, 41280, Note_on_c, 0, 75, 78
1, 41280, Note_on_c, 1, 51, 64
1, 41369, Note_on_c, 0, 75, 0
1, 41369, Note_on_c, 1, 51, 0
1, 41376, Note_on_c, 0, 79, 78
1, 41376, Note_on_c, 1, 49, 64
1, 41399, Note_on_c, 0, 79, 0
1, 41400, Note_on_c, 0, 77, 78
1, 41423, Note_on_c, 0, 77, 0
1, 41424, Note_on_c, 0, 75, 78
1, 41447, Note_on_c, 0, 75, 0
1, 41448, Note_on_c, 0, 77, 78
1, 41449, Note_on_c, 1, 56, 0
1, 41465, Note_on_c, 1, 49, 0
1, 41471, Note_on_c, 0, 77, 0
1, 41472, Note_on_c, 0, 75, 78
1, 41472, Note_on_c, 1, 56, 78
1, 41472, Note_on_c, 1, 48, 64
1, 41561, Note_on_c, 0, 75, 0
1, 41568, Note_on_c, 0, 80, 78
1, 41649, Note_on_c, 1, 48, 0
1, 41657, Note_on_c, 0, 80, 0
1, 41664, Note_on_c, 0, 79, 78
1, 41664, Note_on_c, 1, 49, 64
1, 41687, Note_on_c, 0, 79, 0
1, 41688, Note_on_c, 0, 77, 78
1, 41711, Note_on_c, 0, 77, 0
1, 41712, Note_on_c, 0, 75, 78
1, 41735, Note_on_c, 0, 75, 0
1, 41736, Note_on_c, 0, 77, 78
1, 41753, Note_on_c, 1, 49, 0
1, 41759, Note_on_c, 0, 77, 0
1, 41760, Note_on_c, 0, 75, 78
1, 41760, Note_on_c, 1, 51, 64
1, 41849, Note_on_c, 0, 75, 0
1, 41849, Note_on_c, 1, 56, 0
1, 41856, Note_on_c, 0, 68, 78
1, 41856, Note_on_c, 1, 60, 78
1, 41945, Note_on_c, 0, 68, 0
1, 41945, Note_on_c, 1, 60, 0
1, 41952, Note_on_c, 0, 67, 78
1, 41952, Note_on_c, 1, 58, 78
1, 41964, Note_on_c, 0, 67, 0
1, 41964, Note_on_c, 0, 68, 78
1, 41976, Note_on_c, 0, 68, 0
1, 41976, Note_on_c, 0, 67, 78
1, 42025, Note_on_c, 1, 51, 0
1, 42041, Note_on_c, 0, 67, 0
1, 42041, Note_on_c, 1, 58, 0
1, 42048, Note_on_c, 0, 68, 78
1, 42048, Note_on_c, 1, 56, 78
1, 42137, Note_on_c, 0, 68, 0
1, 42137, Note_on_c, 1, 56, 0
1, 42144, Note_on_c, 1, 44, 78
1, 42233, Note_on_c, 1, 44, 0
1, 42240, Note_on_c, 0, 58, 78
1, 42329, Note_on_c, 0, 58, 0
1, 42336, Note_on_c, 0, 63, 78
1, 42348, Note_on_c, 0, 63, 0
1, 42348, Note_on_c, 0, 62, 78
1, 42360, Note_on_c, 0, 62, 0
1, 42360, Note_on_c, 0, 63, 78
1, 42432, Note_on_c, 0, 63, 0
1, 42432, Note_on_c, 0, 67, 78
1, 42432, Note_on_c, 1, 51, 78
1, 42432, Note_on_c, 1, 39, 78
1, 42471, Note_on_c, 1, 51, 0
1, 42471, Note_on_c, 1, 39, 0
1, 42521, Note_on_c, 0, 67, 0
1, 42528, Note_on_c, 0, 60, 78
1, 42528, Note_on_c, 1, 56, 78
1, 42528, Note_on_c, 1, 44, 78
1, 42567, Note_on_c, 1, 56, 0
1, 42567, Note_on_c, 1, 44, 0
1, 42617, Note_on_c, 0, 60, 0
1, 42624, Note_on_c, 0, 68, 78
1, 42624, Note_on_c, 1, 53, 78
1, 42624, Note_on_c, 1, 41, 78
1, 42663, Note_on_c, 1, 53, 0
1, 42663, Note_on_c, 1, 41, 0
1, 42672, Note_on_c, 0, 68, 0
1, 42672, Note_on_c, 0, 65, 78
1, 42717, Note_on_c, 0, 65, 0
1, 42720, Note_on_c, 0, 63, 78
1, 42720, Note_on_c, 1, 58, 78
1, 42720, Note_on_c, 1, 46, 78
1, 42732, Note_on_c, 0, 63, 0
1, 42732, Note_on_c, 0, 65, 78
1, 42744, Note_on_c, 0, 65, 0
1, 42744, Note_on_c, 0, 63, 78
1, 42759, Note_on_c, 1, 58, 0
1, 42759, Note_on_c, 1, 46, 0
1, 42768, Note_on_c, 0, 63, 0
1, 42768, Note_on_c, 0, 62, 78
1, 42813, Note_on_c, 0, 62, 0
1, 42816, Note_on_c, 0, 72, 78
1, 42816, Note_on_c, 1, 56, 78
1, 42816, Note_on_c, 1, 44, 78
1, 42855, Note_on_c, 1, 56, 0
1, 42855, Note_on_c, 1, 44, 0
1, 42864, Note_on_c, 0, 72, 0
1, 42864, Note_on_c, 0, 70, 78
1, 42909, Note_on_c, 0, 70, 0
1, 42912, Note_on_c, 0, 70, 78
1, 42912, Note_on_c, 1, 55, 78
1, 42912, Note_on_c, 1, 43, 78
1, 42951, Note_on_c, 1, 55, 0
1, 42951, Note_on_c, 1, 43, 0
1, 43001, Note_on_c, 0, 70, 0
1, 43008, Note_on_c, 0, 68, 78
1, 43008, Note_on_c, 1, 56, 78
1, 43008, Note_on_c, 1, 44, 78
1, 43020, Note_on_c, 0, 68, 0
1, 43020, Note_on_c, 0, 70, 78
1, 43032, Note_on_c, 0, 70, 0
1, 43032, Note_on_c, 0, 68, 78
1, 43047, Note_on_c, 1, 56, 0
1, 43047, Note_on_c, 1, 44, 0
1, 43056, Note_on_c, 0, 68, 0
1, 43056, Note_on_c, 0, 67, 78
1, 43101, Note_on_c, 0, 67, 0
1, 43104, Note_on_c, 0, 65, 78
1, 43104, Note_on_c, 1, 57, 78
1, 43104, Note_on_c, 1, 45, 78
1, 43116, Note_on_c, 0, 65, 0
1, 43116, Note_on_c, 0, 67, 78
1, 43128, Note_on_c, 0, 67, 0
1, 43128, Note_on_c, 0, 65, 78
1, 43143, Note_on_c, 1, 57, 0
1, 43143, Note_on_c, 1, 45, 0
1, 43152, Note_on_c, 0, 65, 0
1, 43152, Note_on_c, 0, 63, 78
1, 43197, Note_on_c, 0, 63, 0
1, 43200, Note_on_c, 0, 63, 78
1, 43200, Note_on_c, 1, 58, 78
1, 43239, Note_on_c, 1, 58, 0
1, 43296, Note_on_c, 0, 63, 0
1, 43296, Note_on_c, 0, 62, 78
1, 43296, Note_on_c, 1, 46, 78
1, 43308, Note_on_c, 0, 62, 0
1, 43308, Note_on_c, 0, 63, 78
1, 43320, Note_on_c, 0, 63, 0
1, 43320, Note_on_c, 0, 62, 78
1, 43335, Note_on_c, 1, 46, 0
1, 43385, Note_on_c, 0, 62, 0
1, 43392, Note_on_c, 0, 58, 78
1, 43481, Note_on_c, 0, 58, 0
1, 43488, Note_on_c, 0, 63, 78
1, 43500, Note_on_c, 0, 63, 0
1, 43500, Note_on_c, 0, 62, 78
1, 43512, Note_on_c, 0, 62, 0
1, 43512, Note_on_c, 0, 63, 78
1, 43577, Note_on_c, 0, 63, 0
1, 43584, Note_on_c, 0, 67, 78
1, 43584, Note_on_c, 1, 51, 78
1, 43584, Note_on_c, 1, 39, 78
1, 43623, Note_on_c, 1, 51, 0
1, 43623, Note_on_c, 1, 39, 0
1, 43673, Note_on_c, 0, 67, 0
1, 43680, Note_on_c, 0, 60, 78
1, 43680, Note_on_c, 1, 56, 78
1, 43680, Note_on_c, 1, 44, 78
1, 43719, Note_on_c, 1, 56, 0
1, 43719, Note_on_c, 1, 44, 0
1, 43769, Note_on_c, 0, 60, 0
1, 43776, Note_on_c, 0, 68, 78
1, 43776, Note_on_c, 1, 53, 78
1, 43776, Note_on_c, 1, 41, 78
1, 43815, Note_on_c, 1, 53, 0
1, 43815, Note_on_c, 1, 41, 0
1, 43824, Note_on_c, 0, 68, 0
1, 43824, Note_on_c, 0, 65, 78
1, 43869, Note_on_c, 0, 65, 0
1, 43872, Note_on_c, 0, 63, 78
1, 43872, Note_on_c, 1, 58, 78
1, 43872, Note_on_c, 1, 46, 78
1, 43884, Note_on_c, 0, 63, 0
1, 43884, Note_on_c, 0, 65, 78
1, 43896, Note_on_c, 0, 65, 0
1, 43896, Note_on_c, 0, 63, 78
1, 43911, Note_on_c, 1, 58, 0
1, 43911, Note_on_c, 1, 46, 0
1, 43920, Note_on_c, 0, 63, 0
1, 43920, Note_on_c, 0, 62, 78
1, 43965, Note_on_c, 0, 62, 0
1, 43968, Note_on_c, 0, 74, 78
1, 43968, Note_on_c, 1, 56, 78
1, 43968, Note_on_c, 1, 44, 78
1, 44007, Note_on_c, 1, 56, 0
1, 44007, Note_on_c, 1, 44, 0
1, 44016, Note_on_c, 0, 74, 0
1, 44016, Note_on_c, 0, 70, 78
1, 44061, Note_on_c, 0, 70, 0
1, 44064, Note_on_c, 0, 75, 78
1, 44064, Note_on_c, 1, 55, 78
1, 44064, Note_on_c, 1, 43, 78
1, 44103, Note_on_c, 1, 55, 0
1, 44103, Note_on_c, 1, 43, 0
1, 44112, Note_on_c, 0, 75, 0
1, 44112, Note_on_c, 0, 70, 78
1, 44157, Note_on_c, 0, 70, 0
1, 44160, Note_on_c, 0, 72, 78
1, 44160, Note_on_c, 1, 56, 78
1, 44160, Note_on_c, 1, 44, 78
1, 44199, Note_on_c, 1, 56, 0
1, 44199, Note_on_c, 1, 44, 0
1, 44208, Note_on_c, 0, 72, 0
1, 44208, Note_on_c, 0, 65, 78
1, 44253, Note_on_c, 0, 65, 0
1, 44256, Note_on_c, 0, 68, 78
1, 44256, Note_on_c, 1, 58, 78
1, 44256, Note_on_c, 1, 46, 78
1, 44295, Note_on_c, 1, 58, 0
1, 44295, Note_on_c, 1, 46, 0
1, 44304, Note_on_c, 0, 68, 0
1, 44304, Note_on_c, 0, 62, 78
1, 44349, Note_on_c, 0, 62, 0
1, 44352, Note_on_c, 0, 63, 78
1, 44352, Note_on_c, 1, 51, 78
1, 44391, Note_on_c, 1, 51, 0
1, 44441, Note_on_c, 0, 63, 0
1, 44448, Note_on_c, 1, 39, 78
1, 44487, Note_on_c, 1, 39, 0
1, 44544, Note_on_c, 0, 58, 78
1, 44633, Note_on_c, 0, 58, 0
1, 44640, Note_on_c, 0, 63, 78
1, 44652, Note_on_c, 0, 63, 0
1, 44652, Note_on_c, 0, 62, 78
1, 44664, Note_on_c, 0, 62, 0
1, 44664, Note_on_c, 0, 63, 78
1, 44736, Note_on_c, 0, 63, 0
1, 44736, Note_on_c, 0, 67, 78
1, 44736, Note_on_c, 1, 51, 78
1, 44736, Note_on_c, 1, 39, 78
1, 44775, Note_on_c, 1, 51, 0
1, 44775, Note_on_c, 1, 39, 0
1, 44825, Note_on_c, 0, 67, 0
1, 44832, Note_on_c, 0, 60, 78
1, 44832, Note_on_c, 1, 56, 78
1, 44832, Note_on_c, 1, 44, 78
1, 44871, Note_on_c, 1, 56, 0
1, 44871, Note_on_c, 1, 44, 0
1, 44921, Note_on_c, 0, 60, 0
1, 44928, Note_on_c, 0, 68, 78
1, 44928, Note_on_c, 1, 53, 78
1, 44928, Note_on_c, 1, 41, 78
1, 44967, Note_on_c, 1, 53, 0
1, 44967, Note_on_c, 1, 41, 0
1, 44976, Note_on_c, 0, 68, 0
1, 44976, Note_on_c, 0, 65, 78
1, 45021, Note_on_c, 0, 65, 0
1, 45024, Note_on_c, 0, 63, 78
1, 45024, Note_on_c, 1, 58, 78
1, 45024, Note_on_c, 1, 46, 78
1, 45036, Note_on_c, 0, 63, 0
1, 45036, Note_on_c, 0, 65, 78
1, 45048, Note_on_c, 0, 65, 0
1, 45048, Note_on_c, 0, 63, 78
1, 45063, Note_on_c, 1, 58, 0
1, 45063, Note_on_c, 1, 46, 0
1, 45072, Note_on_c, 0, 63, 0
1, 45072, Note_on_c, 0, 62, 78
1, 45117, Note_on_c, 0, 62, 0
1, 45120, Note_on_c, 0, 72, 78
1, 45120, Note_on_c, 1, 56, 78
1, 45120, Note_on_c, 1, 44, 78
1, 45159, Note_on_c, 1, 56, 0
1, 45159, Note_on_c, 1, 44, 0
1, 45168, Note_on_c, 0, 72, 0
1, 45168, Note_on_c, 0, 70, 78
1, 45213, Note_on_c, 0, 70, 0
1, 45216, Note_on_c, 0, 70, 78
1, 45216, Note_on_c, 1, 55, 78
1, 45216, Note_on_c, 1, 43, 78
1, 45255, Note_on_c, 1, 55, 0
1, 45255, Note_on_c, 1, 43, 0
1, 45305, Note_on_c, 0, 70, 0
1, 45312, Note_on_c, 0, 68, 78
1, 45312, Note_on_c, 1, 56, 78
1, 45312, Note_on_c, 1, 44, 78
1, 45324, Note_on_c, 0, 68, 0
1, 45324, Note_on_c, 0, 70, 78
1, 45336, Note_on_c, 0, 70, 0
1, 45336, Note_on_c, 0, 68, 78
1, 45351, Note_on_c, 1, 56, 0
1, 45351, Note_on_c, 1, 44, 0
1, 45360, Note_on_c, 0, 68, 0
1, 45360, Note_on_c, 0, 67, 78
1, 45405, Note_on_c, 0, 67, 0
1, 45408, Note_on_c, 0, 65, 78
1, 45408, Note_on_c, 1, 57, 78
1, 45408, Note_on_c, 1, 45, 78
1, 45420, Note_on_c, 0, 65, 0
1, 45420, Note_on_c, 0, 67, 78
1, 45432, Note_on_c, 0, 67, 0
1, 45432, Note_on_c, 0, 65, 78
1, 45447, Note_on_c, 1, 57, 0
1, 45447, Note_on_c, 1, 45, 0
1, 45456, Note_on_c, 0, 65, 0
1, 45456, Note_on_c, 0, 63, 78
1, 45501, Note_on_c, 0, 63, 0
1, 45504, Note_on_c, 0, 63, 78
1, 45504, Note_on_c, 1, 58, 78
1, 45543, Note_on_c, 1, 58, 0
1, 45600, Note_on_c, 0, 63, 0
1, 45600, Note_on_c, 0, 62, 78
1, 45600, Note_on_c, 1, 46, 78
1, 45612, Note_on_c, 0, 62, 0
1, 45612, Note_on_c, 0, 63, 78
1, 45624, Note_on_c, 0, 63, 0
1, 45624, Note_on_c, 0, 62, 78
1, 45639, Note_on_c, 1, 46, 0
1, 45689, Note_on_c, 0, 62, 0
1, 45696, Note_on_c, 0, 58, 78
1, 45785, Note_on_c, 0, 58, 0
1, 45792, Note_on_c, 0, 63, 78
1, 45804, Note_on_c, 0, 63, 0
1, 45804, Note_on_c, 0, 62, 78
1, 45816, Note_on_c, 0, 62, 0
1, 45816, Note_on_c, 0, 63, 78
1, 45881, Note_on_c, 0, 63, 0
1, 45888, Note_on_c, 0, 67, 78
1, 45888, Note_on_c, 1, 51, 78
1, 45888, Note_on_c, 1, 39, 78
1, 45927, Note_on_c, 1, 51, 0
1, 45927, Note_on_c, 1, 39, 0
1, 45977, Note_on_c, 0, 67, 0
1, 45984, Note_on_c, 0, 60, 78
1, 45984, Note_on_c, 1, 56, 78
1, 45984, Note_on_c, 1, 44, 78
1, 46023, Note_on_c, 1, 56, 0
1, 46023, Note_on_c, 1, 44, 0
1, 46073, Note_on_c, 0, 60, 0
1, 46080, Note_on_c, 0, 68, 78
1, 46080, Note_on_c, 1, 53, 78
1, 46080, Note_on_c, 1, 41, 78
1, 46119, Note_on_c, 1, 53, 0
1, 46119, Note_on_c, 1, 41, 0
1, 46128, Note_on_c, 0, 68, 0
1, 46128, Note_on_c, 0, 65, 78
1, 46173, Note_on_c, 0, 65, 0
1, 46176, Note_on_c, 0, 63, 78
1, 46176, Note_on_c, 1, 58, 78
1, 46176, Note_on_c, 1, 46, 78
1, 46188, Note_on_c, 0, 63, 0
1, 46188, Note_on_c, 0, 65, 78
1, 46200, Note_on_c, 0, 65, 0
1, 46200, Note_on_c, 0, 63, 78
1, 46215, Note_on_c, 1, 58, 0
1, 46215, Note_on_c, 1, 46, 0
1, 46224, Note_on_c, 0, 63, 0
1, 46224, Note_on_c, 0, 62, 78
1, 46269, Note_on_c, 0, 62, 0
1, 46272, Note_on_c, 0, 74, 78
1, 46272, Note_on_c, 1, 56, 78
1, 46272, Note_on_c, 1, 44, 78
1, 46311, Note_on_c, 1, 56, 0
1, 46311, Note_on_c, 1, 44, 0
1, 46320, Note_on_c, 0, 74, 0
1, 46320, Note_on_c, 0, 70, 78
1, 46365, Note_on_c, 0, 70, 0
1, 46368, Note_on_c, 0, 75, 78
1, 46368, Note_on_c, 1, 55, 78
1, 46368, Note_on_c, 1, 43, 78
1, 46407, Note_on_c, 1, 55, 0
1, 46407, Note_on_c, 1, 43, 0
1, 46416, Note_on_c, 0, 75, 0
1, 46416, Note_on_c, 0, 70, 78
1, 46461, Note_on_c, 0, 70, 0
1, 46464, Note_on_c, 0, 72, 78
1, 46464, Note_on_c, 1, 56, 78
1, 46464, Note_on_c, 1, 44, 78
1, 46503, Note_on_c, 1, 56, 0
1, 46503, Note_on_c, 1, 44, 0
1, 46512, Note_on_c, 0, 72, 0
1, 46512, Note_on_c, 0, 65, 78
1, 46557, Note_on_c, 0, 65, 0
1, 46560, Note_on_c, 0, 68, 78
1, 46560, Note_on_c, 1, 58, 78
1, 46560, Note_on_c, 1, 46, 78
1, 46599, Note_on_c, 1, 58, 0
1, 46599, Note_on_c, 1, 46, 0
1, 46608, Note_on_c, 0, 68, 0
1, 46608, Note_on_c, 0, 62, 78
1, 46653, Note_on_c, 0, 62, 0
1, 46656, Note_on_c, 0, 63, 78
1, 46656, Note_on_c, 1, 51, 78
1, 46695, Note_on_c, 1, 51, 0
1, 46745, Note_on_c, 0, 63, 0
1, 46752, Note_on_c, 1, 39, 78
1, 46791, Note_on_c, 1, 39, 0
1, 46848, Note_on_c, 0, 79, 78
1, 46848, Note_on_c, 1, 63, 78
1, 46896, Note_on_c, 0, 79, 0
1, 46896, Note_on_c, 0, 72, 78
1, 46937, Note_on_c, 1, 63, 0
1, 46941, Note_on_c, 0, 72, 0
1, 46944, Note_on_c, 0, 72, 78
1, 46944, Note_on_c, 1, 62, 78
1, 46992, Note_on_c, 0, 72, 0
1, 46992, Note_on_c, 0, 71, 78
1, 47033, Note_on_c, 1, 62, 0
1, 47037, Note_on_c, 0, 71, 0
1, 47040, Note_on_c, 0, 77, 78
1, 47040, Note_on_c, 1, 55, 78
1, 47088, Note_on_c, 0, 77, 0
1, 47088, Note_on_c, 0, 74, 78
1, 47129, Note_on_c, 1, 55, 0
1, 47133, Note_on_c, 0, 74, 0
1, 47136, Note_on_c, 0, 75, 78
1, 47136, Note_on_c, 1, 60, 78
1, 47184, Note_on_c, 0, 75, 0
1, 47184, Note_on_c, 0, 72, 78
1, 47225, Note_on_c, 1, 60, 0
1, 47229, Note_on_c, 0, 72, 0
1, 47232, Note_on_c, 0, 70, 78
1, 47232, Note_on_c, 1, 53, 78
1, 47280, Note_on_c, 0, 70, 0
1, 47280, Note_on_c, 0, 69, 78
1, 47321, Note_on_c, 1, 53, 0
1, 47325, Note_on_c, 0, 69, 0
1, 47328, Note_on_c, 0, 75, 78
1, 47328, Note_on_c, 1, 57, 78
1, 47376, Note_on_c, 0, 75, 0
1, 47376, Note_on_c, 0, 72, 78
1, 47417, Note_on_c, 1, 57, 0
1, 47421, Note_on_c, 0, 72, 0
1, 47424, Note_on_c, 0, 74, 78
1, 47424, Note_on_c, 1, 58, 78
1, 47472, Note_on_c, 0, 74, 0
1, 47472, Note_on_c, 0, 70, 78
1, 47513, Note_on_c, 1, 58, 0
1, 47517, Note_on_c, 0, 70, 0
1, 47520, Note_on_c, 0, 69, 78
1, 47520, Note_on_c, 1, 51, 78
1, 47568, Note_on_c, 0, 69, 0
1, 47568, Note_on_c, 0, 67, 78
1, 47613, Note_on_c, 0, 67, 0
1, 47616, Note_on_c, 0, 79, 78
1, 47664, Note_on_c, 0, 79, 0
1, 47664, Note_on_c, 0, 75, 78
1, 47697, Note_on_c, 1, 51, 0
1, 47709, Note_on_c, 0, 75, 0
1, 47712, Note_on_c, 0, 74, 78
1, 47712, Note_on_c, 1, 52, 78
1, 47760, Note_on_c, 0, 74, 0
1, 47760, Note_on_c, 0, 72, 78
1, 47801, Note_on_c, 1, 52, 0
1, 47805, Note_on_c, 0, 72, 0
1, 47808, Note_on_c, 0, 70, 78
1, 47808, Note_on_c, 1, 53, 78
1, 47897, Note_on_c, 1, 53, 0
1, 47904, Note_on_c, 0, 70, 0
1, 47904, Note_on_c, 0, 69, 78
1, 47904, Note_on_c, 1, 41, 78
1, 47916, Note_on_c, 0, 69, 0
1, 47916, Note_on_c, 0, 70, 78
1, 47928, Note_on_c, 0, 70, 0
1, 47928, Note_on_c, 0, 69, 78
1, 47993, Note_on_c, 0, 69, 0
1, 47993, Note_on_c, 1, 41, 0
1, 48000, Note_on_c, 0, 77, 78
1, 48089, Note_on_c, 0, 77, 0
1, 48096, Note_on_c, 0, 82, 78
1, 48141, Note_on_c, 0, 82, 0
1, 48144, Note_on_c, 0, 84, 78
1, 48189, Note_on_c, 0, 84, 0
1, 48192, Note_on_c, 0, 86, 78
1, 48192, Note_on_c, 1, 58, 78
1, 48237, Note_on_c, 0, 86, 0
1, 48240, Note_on_c, 0, 82, 78
1, 48281, Note_on_c, 1, 58, 0
1, 48285, Note_on_c, 0, 82, 0
1, 48288, Note_on_c, 0, 81, 78
1, 48288, Note_on_c, 1, 63, 78
1, 48333, Note_on_c, 0, 81, 0
1, 48333, Note_on_c, 1, 63, 0
1, 48336, Note_on_c, 0, 79, 78
1, 48336, Note_on_c, 1, 65, 78
1, 48381, Note_on_c, 0, 79, 0
1, 48381, Note_on_c, 1, 65, 0
1, 48384, Note_on_c, 0, 87, 78
1, 48384, Note_on_c, 1, 67, 78
1, 48429, Note_on_c, 0, 87, 0
1, 48429, Note_on_c, 1, 67, 0
1, 48432, Note_on_c, 0, 84, 78
1, 48432, Note_on_c, 1, 63, 78
1, 48477, Note_on_c, 0, 84, 0
1, 48477, Note_on_c, 1, 63, 0
1, 48480, Note_on_c, 0, 82, 78
1, 48480, Note_on_c, 1, 62, 78
1, 48525, Note_on_c, 0, 82, 0
1, 48525, Note_on_c, 1, 62, 0
1, 48528, Note_on_c, 0, 81, 78
1, 48528, Note_on_c, 1, 60, 78
1, 48573, Note_on_c, 0, 81, 0
1, 48573, Note_on_c, 1, 60, 0
1, 48576, Note_on_c, 0, 89, 78
1, 48576, Note_on_c, 1, 63, 78
1, 48624, Note_on_c, 0, 89, 0
1, 48624, Note_on_c, 0, 81, 78
1, 48665, Note_on_c, 1, 63, 0
1, 48669, Note_on_c, 0, 81, 0
1, 48672, Note_on_c, 0, 82, 78
1, 48672, Note_on_c, 1, 62, 78
1, 48720, Note_on_c, 0, 82, 0
1, 48720, Note_on_c, 0, 77, 78
1, 48761, Note_on_c, 1, 62, 0
1, 48765, Note_on_c, 0, 77, 0
1, 48768, Note_on_c, 0, 79, 78
1, 48768, Note_on_c, 1, 63, 78
1, 48816, Note_on_c, 0, 79, 0
1, 48816, Note_on_c, 0, 72, 78
1, 48857, Note_on_c, 1, 63, 0
1, 48861, Note_on_c, 0, 72, 0
1, 48864, Note_on_c, 0, 75, 78
1, 48864, Note_on_c, 1, 65, 78
1, 48912, Note_on_c, 0, 75, 0
1, 48912, Note_on_c, 0, 69, 78
1, 48953, Note_on_c, 1, 65, 0
1, 48957, Note_on_c, 0, 69, 0
1, 48960, Note_on_c, 0, 72, 78
1, 49056, Note_on_c, 0, 72, 0
1, 49056, Note_on_c, 0, 70, 78
1, 49056, Note_on_c, 1, 58, 78
1, 49068, Note_on_c, 0, 70, 0
1, 49068, Note_on_c, 0, 72, 78
1, 49080, Note_on_c, 0, 72, 0
1, 49080, Note_on_c, 0, 70, 78
1, 49101, Note_on_c, 1, 58, 0
1, 49104, Note_on_c, 1, 55, 78
1, 49149, Note_on_c, 1, 55, 0
1, 49152, Note_on_c, 1, 56, 78
1, 49197, Note_on_c, 1, 56, 0
1, 49200, Note_on_c, 1, 53, 78
1, 49233, Note_on_c, 0, 70, 0
1, 49245, Note_on_c, 1, 53, 0
1, 49248, Note_on_c, 0, 70, 78
1, 49248, Note_on_c, 1, 52, 64
1, 49260, Note_on_c, 0, 70, 0
1, 49260, Note_on_c, 0, 72, 78
1, 49272, Note_on_c, 0, 72, 0
1, 49272, Note_on_c, 0, 70, 78
1, 49284, Note_on_c, 0, 70, 0
1, 49284, Note_on_c, 0, 72, 78
1, 49296, Note_on_c, 0, 72, 0
1, 49296, Note_on_c, 0, 70, 78
1, 49308, Note_on_c, 0, 70, 0
1, 49308, Note_on_c, 0, 72, 78
1, 49315, Note_on_c, 0, 72, 0
1, 49320, Note_on_c, 0, 69, 78
1, 49332, Note_on_c, 0, 69, 0
1, 49332, Note_on_c, 0, 70, 78
1, 49344, Note_on_c, 0, 70, 0
1, 49344, Note_on_c, 0, 79, 78
1, 49344, Note_on_c, 1, 61, 78
1, 49389, Note_on_c, 0, 79, 0
1, 49392, Note_on_c, 0, 70, 78
1, 49425, Note_on_c, 1, 52, 0
1, 49433, Note_on_c, 1, 61, 0
1, 49437, Note_on_c, 0, 70, 0
1, 49440, Note_on_c, 0, 70, 78
1, 49440, Note_on_c, 1, 60, 78
1, 49440, Note_on_c, 1, 53, 64
1, 49485, Note_on_c, 0, 70, 0
1, 49488, Note_on_c, 0, 69, 78
1, 49529, Note_on_c, 1, 60, 0
1, 49529, Note_on_c, 1, 53, 0
1, 49533, Note_on_c, 0, 69, 0
1, 49536, Note_on_c, 0, 68, 78
1, 49536, Note_on_c, 1, 50, 64
1, 49548, Note_on_c, 0, 68, 0
1, 49548, Note_on_c, 0, 70, 78
1, 49560, Note_on_c, 0, 70, 0
1, 49560, Note_on_c, 0, 68, 78
1, 49572, Note_on_c, 0, 68, 0
1, 49572, Note_on_c, 0, 70, 78
1, 49584, Note_on_c, 0, 70, 0
1, 49584, Note_on_c, 0, 68, 78
1, 49596, Note_on_c, 0, 68, 0
1, 49596, Note_on_c, 0, 70, 78
1, 49603, Note_on_c, 0, 70, 0
1, 49608, Note_on_c, 0, 67, 78
1, 49620, Note_on_c, 0, 67, 0
1, 49620, Note_on_c, 0, 68, 78
1, 49632, Note_on_c, 0, 68, 0
1, 49632, Note_on_c, 0, 77, 78
1, 49632, Note_on_c, 1, 59, 78
1, 49677, Note_on_c, 0, 77, 0
1, 49680, Note_on_c, 0, 68, 78
1, 49713, Note_on_c, 1, 50, 0
1, 49721, Note_on_c, 1, 59, 0
1, 49725, Note_on_c, 0, 68, 0
1, 49728, Note_on_c, 0, 68, 78
1, 49728, Note_on_c, 1, 58, 78
1, 49728, Note_on_c, 1, 51, 64
1, 49773, Note_on_c, 0, 68, 0
1, 49776, Note_on_c, 0, 67, 78
1, 49817, Note_on_c, 1, 58, 0
1, 49817, Note_on_c, 1, 51, 0
1, 49821, Note_on_c, 0, 67, 0
1, 49824, Note_on_c, 0, 67, 78
1, 49824, Note_on_c, 1, 60, 78
1, 49824, Note_on_c, 1, 56, 64
1, 49836, Note_on_c, 0, 67, 0
1, 49836, Note_on_c, 0, 68, 78
1, 49848, Note_on_c, 0, 68, 0
1, 49848, Note_on_c, 0, 67, 78
1, 49872, Note_on_c, 0, 67, 0
1, 49872, Note_on_c, 0, 65, 78
1, 49917, Note_on_c, 0, 65, 0
1, 49920, Note_on_c, 0, 72, 78
1, 49957, Note_on_c, 1, 60, 0
1, 49968, Note_on_c, 0, 72, 0
1, 49968, Note_on_c, 0, 68, 78
1, 50001, Note_on_c, 1, 56, 0
1, 50013, Note_on_c, 0, 68, 0
1, 50016, Note_on_c, 0, 65, 78
1, 50016, Note_on_c, 1, 57, 64
1, 50064, Note_on_c, 0, 65, 0
1, 50064, Note_on_c, 0, 63, 78
1, 50105, Note_on_c, 1, 57, 0
1, 50109, Note_on_c, 0, 63, 0
1, 50112, Note_on_c, 0, 63, 78
1, 50112, Note_on_c, 1, 58, 78
1, 50112, Note_on_c, 1, 58, 64
1, 50201, Note_on_c, 1, 58, 0
1, 50201, Note_on_c, 1, 58, 0
1, 50208, Note_on_c, 0, 63, 0
1, 50208, Note_on_c, 0, 62, 78
1, 50208, Note_on_c, 1, 46, 78
1, 50220, Note_on_c, 0, 62, 0
1, 50220, Note_on_c, 0, 63, 78
1, 50232, Note_on_c, 0, 63, 0
1, 50232, Note_on_c, 0, 62, 78
1, 50297, Note_on_c, 0, 62, 0
1, 50297, Note_on_c, 1, 46, 0
1, 50304, Note_on_c, 0, 58, 78
1, 50393, Note_on_c, 0, 58, 0
1, 50400, Note_on_c, 0, 63, 78
1, 50496, Note_on_c, 1, 51, 78
1, 50533, Note_on_c, 0, 63, 0
1, 50544, Note_on_c, 0, 67, 78
1, 50592, Note_on_c, 1, 51, 0
1, 50592, Note_on_c, 1, 56, 78
1, 50633, Note_on_c, 0, 67, 0
1, 50640, Note_on_c, 0, 60, 78
1, 50681, Note_on_c, 1, 56, 0
1, 50688, Note_on_c, 1, 53, 78
1, 50733, Note_on_c, 0, 60, 0
1, 50736, Note_on_c, 0, 68, 78
1, 50777, Note_on_c, 1, 53, 0
1, 50784, Note_on_c, 1, 58, 78
1, 50825, Note_on_c, 0, 68, 0
1, 50832, Note_on_c, 0, 62, 78
1, 50873, Note_on_c, 1, 58, 0
1, 50880, Note_on_c, 1, 56, 78
1, 50921, Note_on_c, 0, 62, 0
1, 50928, Note_on_c, 0, 72, 78
1, 50969, Note_on_c, 1, 56, 0
1, 50976, Note_on_c, 1, 55, 78
1, 51021, Note_on_c, 0, 72, 0
1, 51024, Note_on_c, 0, 70, 78
1, 51065, Note_on_c, 1, 55, 0
1, 51069, Note_on_c, 0, 70, 0
1, 51072, Note_on_c, 0, 68, 78
1, 51072, Note_on_c, 1, 56, 78
1, 51117, Note_on_c, 0, 68, 0
1, 51120, Note_on_c, 0, 67, 78
1, 51161, Note_on_c, 1, 56, 0
1, 51165, Note_on_c, 0, 67, 0
1, 51168, Note_on_c, 0, 65, 78
1, 51168, Note_on_c, 1, 57, 78
1, 51213, Note_on_c, 0, 65, 0
1, 51216, Note_on_c, 0, 63, 78
1, 51257, Note_on_c, 1, 57, 0
1, 51261, Note_on_c, 0, 63, 0
1, 51264, Note_on_c, 0, 63, 78
1, 51264, Note_on_c, 1, 58, 78
1, 51353, Note_on_c, 0, 63, 0
1, 51353, Note_on_c, 1, 58, 0
1, 51360, Note_on_c, 0, 62, 78
1, 51360, Note_on_c, 1, 46, 78
1, 51372, Note_on_c, 0, 62, 0
1, 51372, Note_on_c, 0, 63, 78
1, 51384, Note_on_c, 0, 63, 0
1, 51384, Note_on_c, 0, 62, 78
1, 51449, Note_on_c, 0, 62, 0
1, 51449, Note_on_c, 1, 46, 0
1, 51456, Note_on_c, 0, 58, 78
1, 51476, Note_on_c, 0, 58, 0
1, 51504, Note_on_c, 0, 58, 78
1, 51552, Note_on_c, 0, 58, 0
1, 51552, Note_on_c, 0, 63, 78
1, 51572, Note_on_c, 0, 63, 0
1, 51600, Note_on_c, 0, 63, 78
1, 51648, Note_on_c, 0, 63, 0
1, 51648, Note_on_c, 0, 67, 78
1, 51648, Note_on_c, 1, 51, 78
1, 51668, Note_on_c, 0, 67, 0
1, 51668, Note_on_c, 1, 51, 0
1, 51696, Note_on_c, 0, 67, 78
1, 51696, Note_on_c, 1, 51, 78
1, 51744, Note_on_c, 0, 67, 0
1, 51744, Note_on_c, 0, 60, 78
1, 51744, Note_on_c, 1, 51, 0
1, 51744, Note_on_c, 1, 56, 78
1, 51764, Note_on_c, 0, 60, 0
1, 51764, Note_on_c, 1, 56, 0
1, 51792, Note_on_c, 0, 60, 78
1, 51792, Note_on_c, 1, 56, 78
1, 51840, Note_on_c, 0, 60, 0
1, 51840, Note_on_c, 0, 68, 78
1, 51840, Note_on_c, 1, 56, 0
1, 51840, Note_on_c, 1, 53, 78
1, 51860, Note_on_c, 0, 68, 0
1, 51860, Note_on_c, 1, 53, 0
1, 51888, Note_on_c, 0, 68, 78
1, 51888, Note_on_c, 1, 53, 78
1, 51936, Note_on_c, 0, 68, 0
1, 51936, Note_on_c, 0, 62, 78
1, 51936, Note_on_c, 1, 53, 0
1, 51936, Note_on_c, 1, 58, 78
1, 51956, Note_on_c, 0, 62, 0
1, 51956, Note_on_c, 1, 58, 0
1, 51984, Note_on_c, 0, 62, 78
1, 51984, Note_on_c, 1, 58, 78
1, 52029, Note_on_c, 0, 62, 0
1, 52029, Note_on_c, 1, 58, 0
1, 52032, Note_on_c, 0, 74, 78
1, 52032, Note_on_c, 1, 56, 78
1, 52080, Note_on_c, 0, 74, 0
1, 52080, Note_on_c, 0, 70, 78
1, 52121, Note_on_c, 1, 56, 0
1, 52125, Note_on_c, 0, 70, 0
1, 52128, Note_on_c, 0, 75, 78
1, 52128, Note_on_c, 1, 55, 78
1, 52176, Note_on_c, 0, 75, 0
1, 52176, Note_on_c, 0, 70, 78
1, 52217, Note_on_c, 1, 55, 0
1, 52221, Note_on_c, 0, 70, 0
1, 52224, Note_on_c, 0, 72, 78
1, 52224, Note_on_c, 1, 56, 78
1, 52272, Note_on_c, 0, 72, 0
1, 52272, Note_on_c, 0, 65, 78
1, 52313, Note_on_c, 1, 56, 0
1, 52317, Note_on_c, 0, 65, 0
1, 52320, Note_on_c, 0, 68, 78
1, 52320, Note_on_c, 1, 58, 78
1, 52368, Note_on_c, 0, 68, 0
1, 52368, Note_on_c, 0, 62, 78
1, 52409, Note_on_c, 1, 58, 0
1, 52413, Note_on_c, 0, 62, 0
1, 52416, Note_on_c, 0, 63, 78
1, 52416, Note_on_c, 1, 51, 78
1, 52505, Note_on_c, 0, 63, 0
1, 52505, Note_on_c, 1, 51, 0
1, 52512, Note_on_c, 1, 39, 78
1, 52601, Note_on_c, 1, 39, 0
1, 52608, Note_on_c, 0, 79, 78
1, 52608, Note_on_c, 1, 63, 78
1, 52656, Note_on_c, 0, 79, 0
1, 52656, Note_on_c, 0, 72, 78
1, 52697, Note_on_c, 1, 63, 0
1, 52701, Note_on_c, 0, 72, 0
1, 52704, Note_on_c, 0, 72, 78
1, 52704, Note_on_c, 1, 62, 78
1, 52752, Note_on_c, 0, 72, 0
1, 52752, Note_on_c, 0, 71, 78
1, 52793, Note_on_c, 1, 62, 0
1, 52797, Note_on_c, 0, 71, 0
1, 52800, Note_on_c, 0, 77, 78
1, 52800, Note_on_c, 1, 55, 78
1, 52848, Note_on_c, 0, 77, 0
1, 52848, Note_on_c, 0, 74, 78
1, 52889, Note_on_c, 1, 55, 0
1, 52893, Note_on_c, 0, 74, 0
1, 52896, Note_on_c, 0, 75, 78
1, 52896, Note_on_c, 1, 60, 78
1, 52944, Note_on_c, 0, 75, 0
1, 52944, Note_on_c, 0, 72, 78
1, 52985, Note_on_c, 1, 60, 0
1, 52989, Note_on_c, 0, 72, 0
1, 52992, Note_on_c, 0, 70, 78
1, 52992, Note_on_c, 1, 53, 78
1, 53040, Note_on_c, 0, 70, 0
1, 53040, Note_on_c, 0, 69, 78
1, 53081, Note_on_c, 1, 53, 0
1, 53085, Note_on_c, 0, 69, 0
1, 53088, Note_on_c, 0, 75, 78
1, 53088, Note_on_c, 1, 57, 78
1, 53136, Note_on_c, 0, 75, 0
1, 53136, Note_on_c, 0, 72, 78
1, 53177, Note_on_c, 1, 57, 0
1, 53181, Note_on_c, 0, 72, 0
1, 53184, Note_on_c, 0, 74, 78
1, 53184, Note_on_c, 1, 58, 78
1, 53232, Note_on_c, 0, 74, 0
1, 53232, Note_on_c, 0, 70, 78
1, 53273, Note_on_c, 1, 58, 0
1, 53277, Note_on_c, 0, 70, 0
1, 53280, Note_on_c, 0, 69, 78
1, 53280, Note_on_c, 1, 51, 78
1, 53328, Note_on_c, 0, 69, 0
1, 53328, Note_on_c, 0, 67, 78
1, 53373, Note_on_c, 0, 67, 0
1, 53376, Note_on_c, 0, 79, 78
1, 53424, Note_on_c, 0, 79, 0
1, 53424, Note_on_c, 0, 75, 78
1, 53457, Note_on_c, 1, 51, 0
1, 53469, Note_on_c, 0, 75, 0
1, 53472, Note_on_c, 0, 74, 78
1, 53472, Note_on_c, 1, 52, 78
1, 53520, Note_on_c, 0, 74, 0
1, 53520, Note_on_c, 0, 72, 78
1, 53561, Note_on_c, 1, 52, 0
1, 53565, Note_on_c, 0, 72, 0
1, 53568, Note_on_c, 0, 70, 78
1, 53568, Note_on_c, 1, 53, 78
1, 53657, Note_on_c, 1, 53, 0
1, 53664, Note_on_c, 0, 70, 0
1, 53664, Note_on_c, 0, 69, 78
1, 53664, Note_on_c, 1, 41, 78
1, 53676, Note_on_c, 0, 69, 0
1, 53676, Note_on_c, 0, 70, 78
1, 53688, Note_on_c, 0, 70, 0
1, 53688, Note_on_c, 0, 69, 78
1, 53753, Note_on_c, 0, 69, 0
1, 53753, Note_on_c, 1, 41, 0
1, 53760, Note_on_c, 0, 77, 78
1, 53849, Note_on_c, 0, 77, 0
1, 53856, Note_on_c, 0, 82, 78
1, 53901, Note_on_c, 0, 82, 0
1, 53904, Note_on_c, 0, 84, 78
1, 53949, Note_on_c, 0, 84, 0
1, 53952, Note_on_c, 0, 86, 78
1, 53952, Note_on_c, 1, 58, 78
1, 53997, Note_on_c, 0, 86, 0
1, 54000, Note_on_c, 0, 82, 78
1, 54041, Note_on_c, 1, 58, 0
1, 54045, Note_on_c, 0, 82, 0
1, 54048, Note_on_c, 0, 81, 78
1, 54048, Note_on_c, 1, 63, 78
1, 54093, Note_on_c, 0, 81, 0
1, 54093, Note_on_c, 1, 63, 0
1, 54096, Note_on_c, 0, 79, 78
1, 54096, Note_on_c, 1, 65, 78
1, 54141, Note_on_c, 0, 79, 0
1, 54141, Note_on_c, 1, 65, 0
1, 54144, Note_on_c, 0, 87, 78
1, 54144, Note_on_c, 1, 67, 78
1, 54189, Note_on_c, 0, 87, 0
1, 54189, Note_on_c, 1, 67, 0
1, 54192, Note_on_c, 0, 84, 78
1, 54192, Note_on_c, 1, 63, 78
1, 54237, Note_on_c, 0, 84, 0
1, 54237, Note_on_c, 1, 63, 0
1, 54240, Note_on_c, 0, 82, 78
1, 54240, Note_on_c, 1, 62, 78
1, 54285, Note_on_c, 0, 82, 0
1, 54285, Note_on_c, 1, 62, 0
1, 54288, Note_on_c, 0, 81, 78
1, 54288, Note_on_c, 1, 60, 78
1, 54333, Note_on_c, 0, 81, 0
1, 54333, Note_on_c, 1, 60, 0
1, 54336, Note_on_c, 0, 89, 78
1, 54336, Note_on_c, 1, 63, 78
1, 54384, Note_on_c, 0, 89, 0
1, 54384, Note_on_c, 0, 81, 78
1, 54425, Note_on_c, 1, 63, 0
1, 54429, Note_on_c, 0, 81, 0
1, 54432, Note_on_c, 0, 82, 78
1, 54432, Note_on_c, 1, 62, 78
1, 54480, Note_on_c, 0, 82, 0
1, 54480, Note_on_c, 0, 77, 78
1, 54521, Note_on_c, 1, 62, 0
1, 54525, Note_on_c, 0, 77, 0
1, 54528, Note_on_c, 0, 79, 78
1, 54528, Note_on_c, 1, 63, 78
1, 54576, Note_on_c, 0, 79, 0
1, 54576, Note_on_c, 0, 72, 78
1, 54617, Note_on_c, 1, 63, 0
1, 54621, Note_on_c, 0, 72, 0
1, 54624, Note_on_c, 0, 75, 78
1, 54624, Note_on_c, 1, 65, 78
1, 54672, Note_on_c, 0, 75, 0
1, 54672, Note_on_c, 0, 69, 78
1, 54713, Note_on_c, 1, 65, 0
1, 54717, Note_on_c, 0, 69, 0
1, 54720, Note_on_c, 0, 72, 78
1, 54816, Note_on_c, 0, 72, 0
1, 54816, Note_on_c, 0, 70, 78
1, 54816, Note_on_c, 1, 58, 78
1, 54828, Note_on_c, 0, 70, 0
1, 54828, Note_on_c, 0, 72, 78
1, 54840, Note_on_c, 0, 72, 0
1, 54840, Note_on_c, 0, 70, 78
1, 54861, Note_on_c, 1, 58, 0
1, 54864, Note_on_c, 1, 55, 78
1, 54909, Note_on_c, 1, 55, 0
1, 54912, Note_on_c, 1, 56, 78
1, 54957, Note_on_c, 1, 56, 0
1, 54960, Note_on_c, 1, 53, 78
1, 54993, Note_on_c, 0, 70, 0
1, 55005, Note_on_c, 1, 53, 0
1, 55008, Note_on_c, 0, 70, 78
1, 55008, Note_on_c, 1, 52, 64
1, 55020, Note_on_c, 0, 70, 0
1, 55020, Note_on_c, 0, 72, 78
1, 55032, Note_on_c, 0, 72, 0
1, 55032, Note_on_c, 0, 70, 78
1, 55044, Note_on_c, 0, 70, 0
1, 55044, Note_on_c, 0, 72, 78
1, 55056, Note_on_c, 0, 72, 0
1, 55056, Note_on_c, 0, 70, 78
1, 55068, Note_on_c, 0, 70, 0
1, 55068, Note_on_c, 0, 72, 78
1, 55075, Note_on_c, 0, 72, 0
1, 55080, Note_on_c, 0, 69, 78
1, 55092, Note_on_c, 0, 69, 0
1, 55092, Note_on_c, 0, 70, 78
1, 55104, Note_on_c, 0, 70, 0
1, 55104, Note_on_c, 0, 79, 78
1, 55104, Note_on_c, 1, 61, 78
1, 55149, Note_on_c, 0, 79, 0
1, 55152, Note_on_c, 0, 70, 78
1, 55185, Note_on_c, 1, 52, 0
1, 55193, Note_on_c, 1, 61, 0
1, 55197, Note_on_c, 0, 70, 0
1, 55200, Note_on_c, 0, 70, 78
1, 55200, Note_on_c, 1, 60, 78
1, 55200, Note_on_c, 1, 53, 64
1, 55245, Note_on_c, 0, 70, 0
1, 55248, Note_on_c, 0, 69, 78
1, 55289, Note_on_c, 1, 60, 0
1, 55289, Note_on_c, 1, 53, 0
1, 55293, Note_on_c, 0, 69, 0
1, 55296, Note_on_c, 0, 68, 78
1, 55296, Note_on_c, 1, 50, 64
1, 55308, Note_on_c, 0, 68, 0
1, 55308, Note_on_c, 0, 70, 78
1, 55320, Note_on_c, 0, 70, 0
1, 55320, Note_on_c, 0, 68, 78
1, 55332, Note_on_c, 0, 68, 0
1, 55332, Note_on_c, 0, 70, 78
1, 55344, Note_on_c, 0, 70, 0
1, 55344, Note_on_c, 0, 68, 78
1, 55356, Note_on_c, 0, 68, 0
1, 55356, Note_on_c, 0, 70, 78
1, 55363, Note_on_c, 0, 70, 0
1, 55368, Note_on_c, 0, 67, 78
1, 55380, Note_on_c, 0, 67, 0
1, 55380, Note_on_c, 0, 68, 78
1, 55392, Note_on_c, 0, 68, 0
1, 55392, Note_on_c, 0, 77, 78
1, 55392, Note_on_c, 1, 59, 78
1, 55437, Note_on_c, 0, 77, 0
1, 55440, Note_on_c, 0, 68, 78
1, 55473, Note_on_c, 1, 50, 0
1, 55481, Note_on_c, 1, 59, 0
1, 55485, Note_on_c, 0, 68, 0
1, 55488, Note_on_c, 0, 68, 78
1, 55488, Note_on_c, 1, 58, 78
1, 55488, Note_on_c, 1, 51, 64
1, 55533, Note_on_c, 0, 68, 0
1, 55536, Note_on_c, 0, 67, 78
1, 55577, Note_on_c, 1, 58, 0
1, 55577, Note_on_c, 1, 51, 0
1, 55581, Note_on_c, 0, 67, 0
1, 55584, Note_on_c, 0, 67, 78
1, 55584, Note_on_c, 1, 60, 78
1, 55584, Note_on_c, 1, 56, 64
1, 55596, Note_on_c, 0, 67, 0
1, 55596, Note_on_c, 0, 68, 78
1, 55608, Note_on_c, 0, 68, 0
1, 55608, Note_on_c, 0, 67, 78
1, 55632, Note_on_c, 0, 67, 0
1, 55632, Note_on_c, 0, 65, 78
1, 55677, Note_on_c, 0, 65, 0
1, 55680, Note_on_c, 0, 72, 78
1, 55717, Note_on_c, 1, 60, 0
1, 55728, Note_on_c, 0, 72, 0
1, 55728, Note_on_c, 0, 68, 78
1, 55761, Note_on_c, 1, 56, 0
1, 55773, Note_on_c, 0, 68, 0
1, 55776, Note_on_c, 0, 65, 78
1, 55776, Note_on_c, 1, 57, 64
1, 55824, Note_on_c, 0, 65, 0
1, 55824, Note_on_c, 0, 63, 78
1, 55865, Note_on_c, 1, 57, 0
1, 55869, Note_on_c, 0, 63, 0
1, 55872, Note_on_c, 0, 63, 78
1, 55872, Note_on_c, 1, 58, 78
1, 55872, Note_on_c, 1, 58, 64
1, 55961, Note_on_c, 1, 58, 0
1, 55961, Note_on_c, 1, 58, 0
1, 55968, Note_on_c, 0, 63, 0
1, 55968, Note_on_c, 0, 62, 78
1, 55968, Note_on_c, 1, 46, 78
1, 55980, Note_on_c, 0, 62, 0
1, 55980, Note_on_c, 0, 63, 78
1, 55992, Note_on_c, 0, 63, 0
1, 55992, Note_on_c, 0, 62, 78
1, 56057, Note_on_c, 0, 62, 0
1, 56057, Note_on_c, 1, 46, 0
1, 56064, Note_on_c, 0, 58, 78
1, 56153, Note_on_c, 0, 58, 0
1, 56160, Note_on_c, 0, 63, 78
1, 56256, Note_on_c, 1, 51, 78
1, 56293, Note_on_c, 0, 63, 0
1, 56304, Note_on_c, 0, 67, 78
1, 56352, Note_on_c, 1, 51, 0
1, 56352, Note_on_c, 1, 56, 78
1, 56393, Note_on_c, 0, 67, 0
1, 56400, Note_on_c, 0, 60, 78
1, 56441, Note_on_c, 1, 56, 0
1, 56448, Note_on_c, 1, 53, 78
1, 56493, Note_on_c, 0, 60, 0
1, 56496, Note_on_c, 0, 68, 78
1, 56537, Note_on_c, 1, 53, 0
1, 56544, Note_on_c, 1, 58, 78
1, 56585, Note_on_c, 0, 68, 0
1, 56592, Note_on_c, 0, 62, 78
1, 56633, Note_on_c, 1, 58, 0
1, 56640, Note_on_c, 1, 56, 78
1, 56681, Note_on_c, 0, 62, 0
1, 56688, Note_on_c, 0, 72, 78
1, 56729, Note_on_c, 1, 56, 0
1, 56736, Note_on_c, 1, 55, 78
1, 56781, Note_on_c, 0, 72, 0
1, 56784, Note_on_c, 0, 70, 78
1, 56825, Note_on_c, 1, 55, 0
1, 56829, Note_on_c, 0, 70, 0
1, 56832, Note_on_c, 0, 68, 78
1, 56832, Note_on_c, 1, 56, 78
1, 56877, Note_on_c, 0, 68, 0
1, 56880, Note_on_c, 0, 67, 78
1, 56921, Note_on_c, 1, 56, 0
1, 56925, Note_on_c, 0, 67, 0
1, 56928, Note_on_c, 0, 65, 78
1, 56928, Note_on_c, 1, 57, 78
1, 56973, Note_on_c, 0, 65, 0
1, 56976, Note_on_c, 0, 63, 78
1, 57017, Note_on_c, 1, 57, 0
1, 57021, Note_on_c, 0, 63, 0
1, 57024, Note_on_c, 0, 63, 78
1, 57024, Note_on_c, 1, 58, 78
1, 57113, Note_on_c, 0, 63, 0
1, 57113, Note_on_c, 1, 58, 0
1, 57120, Note_on_c, 0, 62, 78
1, 57120, Note_on_c, 1, 46, 78
1, 57132, Note_on_c, 0, 62, 0
1, 57132, Note_on_c, 0, 63, 78
1, 57144, Note_on_c, 0, 63, 0
1, 57144, Note_on_c, 0, 62, 78
1, 57209, Note_on_c, 0, 62, 0
1, 57209, Note_on_c, 1, 46, 0
1, 57216, Note_on_c, 0, 58, 78
1, 57236, Note_on_c, 0, 58, 0
1, 57264, Note_on_c, 0, 58, 78
1, 57312, Note_on_c, 0, 58, 0
1, 57312, Note_on_c, 0, 63, 78
1, 57332, Note_on_c, 0, 63, 0
1, 57360, Note_on_c, 0, 63, 78
1, 57408, Note_on_c, 0, 63, 0
1, 57408, Note_on_c, 0, 67, 78
1, 57408, Note_on_c, 1, 51, 78
1, 57428, Note_on_c, 0, 67, 0
1, 57428, Note_on_c, 1, 51, 0
1, 57456, Note_on_c, 0, 67, 78
1, 57456, Note_on_c, 1, 51, 78
1, 57504, Note_on_c, 0, 67, 0
1, 57504, Note_on_c, 0, 60, 78
1, 57504, Note_on_c, 1, 51, 0
1, 57504, Note_on_c, 1, 56, 78
1, 57524, Note_on_c, 0, 60, 0
1, 57524, Note_on_c, 1, 56, 0
1, 57552, Note_on_c, 0, 60, 78
1, 57552, Note_on_c, 1, 56, 78
1, 57600, Note_on_c, 0, 60, 0
1, 57600, Note_on_c, 0, 68, 78
1, 57600, Note_on_c, 1, 56, 0
1, 57600, Note_on_c, 1, 53, 78
1, 57620, Note_on_c, 0, 68, 0
1, 57620, Note_on_c, 1, 53, 0
1, 57648, Note_on_c, 0, 68, 78
1, 57648, Note_on_c, 1, 53, 78
1, 57696, Note_on_c, 0, 68, 0
1, 57696, Note_on_c, 0, 62, 78
1, 57696, Note_on_c, 1, 53, 0
1, 57696, Note_on_c, 1, 58, 78
1, 57716, Note_on_c, 0, 62, 0
1, 57716, Note_on_c, 1, 58, 0
1, 57744, Note_on_c, 0, 62, 78
1, 57744, Note_on_c, 1, 58, 78
1, 57789, Note_on_c, 0, 62, 0
1, 57789, Note_on_c, 1, 58, 0
1, 57792, Note_on_c, 0, 74, 78
1, 57792, Note_on_c, 1, 56, 78
1, 57840, Note_on_c, 0, 74, 0
1, 57840, Note_on_c, 0, 70, 78
1, 57881, Note_on_c, 1, 56, 0
1, 57885, Note_on_c, 0, 70, 0
1, 57888, Note_on_c, 0, 75, 78
1, 57888, Note_on_c, 1, 55, 78
1, 57936, Note_on_c, 0, 75, 0
1, 57936, Note_on_c, 0, 70, 78
1, 57977, Note_on_c, 1, 55, 0
1, 57981, Note_on_c, 0, 70, 0
1, 57984, Note_on_c, 0, 72, 78
1, 57984, Note_on_c, 1, 56, 78
1, 58032, Note_on_c, 0, 72, 0
1, 58032, Note_on_c, 0, 65, 78
1, 58073, Note_on_c, 1, 56, 0
1, 58077, Note_on_c, 0, 65, 0
1, 58080, Note_on_c, 0, 68, 78
1, 58080, Note_on_c, 1, 58, 78
1, 58128, Note_on_c, 0, 68, 0
1, 58128, Note_on_c, 0, 62, 78
1, 58169, Note_on_c, 1, 58, 0
1, 58173, Note_on_c, 0, 62, 0
1, 58176, Note_on_c, 0, 63, 78
1, 58176, Note_on_c, 1, 51, 78
1, 58265, Note_on_c, 1, 51, 0
1, 58272, Note_on_c, 1, 39, 78
1, 58353, Note_on_c, 0, 63, 0
1, 58449, Note_on_c, 1, 39, 0
1, 58459, End_track
0, 0, End_of_file