0, 0, Header, 0, 1, 384
1, 0, Start_track
1, 0, Tempo, 500000
1, 0, Note_on_c, 0, 74, 100
1, 0, Note_on_c, 1, 59, 100
1, 0, Note_on_c, 1, 55, 100
1, 256, Note_on_c, 0, 74, 0
1, 256, Note_on_c, 1, 59, 0
1, 256, Note_on_c, 1, 55, 0
1, 384, Note_on_c, 0, 79, 100
1, 468, Note_on_c, 0, 79, 0
1, 512, Note_on_c, 0, 74, 100
1, 596, Note_on_c, 0, 74, 0
1, 640, Note_on_c, 0, 71, 100
1, 724, Note_on_c, 0, 71, 0
1, 768, Note_on_c, 0, 74, 100
1, 768, Note_on_c, 1, 62, 100
1, 768, Note_on_c, 1, 59, 100
1, 852, Note_on_c, 0, 74, 0
1, 896, Note_on_c, 0, 71, 100
1, 980, Note_on_c, 0, 71, 0
1, 1024, Note_on_c, 0, 67, 100
1, 1024, Note_on_c, 1, 62, 0
1, 1024, Note_on_c, 1, 59, 0
1, 1108, Note_on_c, 0, 67, 0
1, 1152, Note_on_c, 0, 67, 100
1, 1152, Note_on_c, 1, 60, 100
1, 1152, Note_on_c, 1, 57, 100
1, 1236, Note_on_c, 0, 67, 0
1, 1280, Note_on_c, 0, 66, 100
1, 1364, Note_on_c, 0, 66, 0
1, 1408, Note_on_c, 0, 62, 100
1, 1408, Note_on_c, 1, 60, 0
1, 1408, Note_on_c, 1, 57, 0
1, 1492, Note_on_c, 0, 62, 0
1, 1536, Note_on_c, 0, 72, 100
1, 1536, Note_on_c, 0, 69, 100
1, 1536, Note_on_c, 1, 54, 100
1, 1792, Note_on_c, 0, 72, 0
1, 1792, Note_on_c, 0, 69, 0
1, 1792, Note_on_c, 1, 54, 0
1, 1920, Note_on_c, 0, 71, 100
1, 1920, Note_on_c, 0, 67, 100
1, 1920, Note_on_c, 1, 55, 100
1, 2176, Note_on_c, 0, 71, 0
1, 2176, Note_on_c, 0, 67, 0
1, 2176, Note_on_c, 1, 55, 0
1, 2304, Note_on_c, 0, 64, 100
1, 2304, Note_on_c, 1, 48, 100
1, 2388, Note_on_c, 0, 64, 0
1, 2432, Note_on_c, 0, 68, 100
1, 2516, Note_on_c, 0, 68, 0
1, 2560, Note_on_c, 0, 69, 100
1, 2644, Note_on_c, 0, 69, 0
1, 2688, Note_on_c, 0, 71, 100
1, 2772, Note_on_c, 0, 71, 0
1, 2816, Note_on_c, 0, 72, 100
1, 2900, Note_on_c, 0, 72, 0
1, 2944, Note_on_c, 0, 74, 100
1, 3028, Note_on_c, 0, 74, 0
1, 3072, Note_on_c, 0, 76, 100
1, 3156, Note_on_c, 0, 76, 0
1, 3200, Note_on_c, 0, 72, 100
1, 3284, Note_on_c, 0, 72, 0
1, 3328, Note_on_c, 0, 69, 100
1, 3332, Note_on_c, 1, 48, 0
1, 3412, Note_on_c, 0, 69, 0
1, 3456, Note_on_c, 0, 67, 100
1, 3456, Note_on_c, 1, 50, 100
1, 3712, Note_on_c, 1, 50, 0
1, 3840, Note_on_c, 1, 62, 100
1, 3924, Note_on_c, 1, 62, 0
1, 3968, Note_on_c, 0, 67, 0
1, 3968, Note_on_c, 1, 64, 100
1, 4052, Note_on_c, 1, 64, 0
1, 4096, Note_on_c, 1, 62, 100
1, 4180, Note_on_c, 1, 62, 0
1, 4224, Note_on_c, 0, 66, 100
1, 4224, Note_on_c, 1, 60, 100
1, 4308, Note_on_c, 1, 60, 0
1, 4352, Note_on_c, 1, 59, 100
1, 4436, Note_on_c, 1, 59, 0
1, 4480, Note_on_c, 0, 66, 0
1, 4480, Note_on_c, 1, 57, 100
1, 4564, Note_on_c, 1, 57, 0
1, 4608, Note_on_c, 0, 74, 100
1, 4608, Note_on_c, 1, 59, 100
1, 4608, Note_on_c, 1, 55, 100
1, 4864, Note_on_c, 0, 74, 0
1, 4864, Note_on_c, 1, 59, 0
1, 4864, Note_on_c, 1, 55, 0
1, 4992, Note_on_c, 0, 79, 100
1, 5076, Note_on_c, 0, 79, 0
1, 5120, Note_on_c, 0, 74, 100
1, 5204, Note_on_c, 0, 74, 0
1, 5248, Note_on_c, 0, 71, 100
1, 5332, Note_on_c, 0, 71, 0
1, 5376, Note_on_c, 0, 74, 100
1, 5376, Note_on_c, 1, 62, 100
1, 5376, Note_on_c, 1, 59, 100
1, 5460, Note_on_c, 0, 74, 0
1, 5504, Note_on_c, 0, 71, 100
1, 5588, Note_on_c, 0, 71, 0
1, 5632, Note_on_c, 0, 67, 100
1, 5632, Note_on_c, 1, 62, 0
1, 5632, Note_on_c, 1, 59, 0
1, 5716, Note_on_c, 0, 67, 0
1, 5760, Note_on_c, 0, 67, 100
1, 5760, Note_on_c, 1, 60, 100
1, 5760, Note_on_c, 1, 57, 100
1, 5844, Note_on_c, 0, 67, 0
1, 5888, Note_on_c, 0, 66, 100
1, 5972, Note_on_c, 0, 66, 0
1, 6016, Note_on_c, 0, 62, 100
1, 6016, Note_on_c, 1, 60, 0
1, 6016, Note_on_c, 1, 57, 0
1, 6100, Note_on_c, 0, 62, 0
1, 6144, Note_on_c, 0, 72, 100
1, 6144, Note_on_c, 0, 69, 100
1, 6144, Note_on_c, 1, 54, 100
1, 6400, Note_on_c, 0, 72, 0
1, 6400, Note_on_c, 0, 69, 0
1, 6400, Note_on_c, 1, 54, 0
1, 6528, Note_on_c, 0, 71, 100
1, 6528, Note_on_c, 0, 67, 100
1, 6528, Note_on_c, 1, 55, 100
1, 6784, Note_on_c, 0, 71, 0
1, 6784, Note_on_c, 0, 67, 0
1, 6784, Note_on_c, 1, 55, 0
1, 6912, Note_on_c, 0, 72, 100
1, 6996, Note_on_c, 0, 72, 0
1, 7040, Note_on_c, 0, 71, 100
1, 7124, Note_on_c, 0, 71, 0
1, 7168, Note_on_c, 0, 67, 100
1, 7252, Note_on_c, 0, 67, 0
1, 7296, Note_on_c, 0, 79, 100
1, 7296, Note_on_c, 0, 73, 100
1, 7296, Note_on_c, 1, 64, 100
1, 7552, Note_on_c, 0, 79, 0
1, 7552, Note_on_c, 0, 73, 0
1, 7552, Note_on_c, 1, 64, 0
1, 7680, Note_on_c, 0, 78, 100
1, 7680, Note_on_c, 0, 74, 100
1, 7680, Note_on_c, 1, 62, 100
1, 7936, Note_on_c, 0, 78, 0
1, 7936, Note_on_c, 0, 74, 0
1, 7936, Note_on_c, 1, 62, 0
1, 8064, Note_on_c, 0, 71, 100
1, 8064, Note_on_c, 1, 67, 100
1, 8148, Note_on_c, 0, 71, 0
1, 8192, Note_on_c, 0, 76, 100
1, 8276, Note_on_c, 0, 76, 0
1, 8320, Note_on_c, 0, 75, 100
1, 8404, Note_on_c, 0, 75, 0
1, 8448, Note_on_c, 0, 78, 100
1, 8532, Note_on_c, 0, 78, 0
1, 8576, Note_on_c, 0, 76, 100
1, 8660, Note_on_c, 0, 76, 0
1, 8704, Note_on_c, 0, 79, 100
1, 8788, Note_on_c, 0, 79, 0
1, 8832, Note_on_c, 0, 83, 100
1, 8916, Note_on_c, 0, 83, 0
1, 8960, Note_on_c, 0, 79, 100
1, 9044, Note_on_c, 0, 79, 0
1, 9088, Note_on_c, 0, 76, 100
1, 9092, Note_on_c, 1, 67, 0
1, 9172, Note_on_c, 0, 76, 0
1, 9216, Note_on_c, 0, 74, 100
1, 9300, Note_on_c, 0, 74, 0
1, 9344, Note_on_c, 0, 73, 100
1, 9428, Note_on_c, 0, 73, 0
1, 9472, Note_on_c, 0, 76, 100
1, 9556, Note_on_c, 0, 76, 0
1, 9600, Note_on_c, 0, 81, 100
1, 9600, Note_on_c, 1, 67, 100
1, 9600, Note_on_c, 1, 61, 100
1, 9856, Note_on_c, 0, 81, 0
1, 9856, Note_on_c, 1, 67, 0
1, 9856, Note_on_c, 1, 61, 0
1, 9984, Note_on_c, 1, 66, 100
1, 9984, Note_on_c, 1, 62, 100
1, 10112, Note_on_c, 0, 78, 100
1, 10196, Note_on_c, 0, 78, 0
1, 10240, Note_on_c, 0, 74, 100
1, 10240, Note_on_c, 1, 66, 0
1, 10240, Note_on_c, 1, 62, 0
1, 10324, Note_on_c, 0, 74, 0
1, 10368, Note_on_c, 0, 73, 100
1, 10452, Note_on_c, 0, 73, 0
1, 10496, Note_on_c, 0, 69, 100
1, 10580, Note_on_c, 0, 69, 0
1, 10624, Note_on_c, 0, 76, 100
1, 10708, Note_on_c, 0, 76, 0
1, 10752, Note_on_c, 0, 81, 100
1, 10752, Note_on_c, 1, 67, 100
1, 10752, Note_on_c, 1, 61, 100
1, 11008, Note_on_c, 0, 81, 0
1, 11008, Note_on_c, 1, 67, 0
1, 11008, Note_on_c, 1, 61, 0
1, 11136, Note_on_c, 1, 66, 100
1, 11136, Note_on_c, 1, 62, 100
1, 11264, Note_on_c, 0, 78, 100
1, 11348, Note_on_c, 0, 78, 0
1, 11392, Note_on_c, 0, 74, 100
1, 11392, Note_on_c, 1, 66, 0
1, 11392, Note_on_c, 1, 62, 0
1, 11476, Note_on_c, 0, 74, 0
1, 11520, Note_on_c, 0, 74, 100
1, 11604, Note_on_c, 0, 74, 0
1, 11648, Note_on_c, 0, 73, 100
1, 11732, Note_on_c, 0, 73, 0
1, 11776, Note_on_c, 0, 76, 100
1, 11860, Note_on_c, 0, 76, 0
1, 11904, Note_on_c, 0, 81, 100
1, 11904, Note_on_c, 1, 61, 100
1, 11904, Note_on_c, 1, 55, 100
1, 12160, Note_on_c, 0, 81, 0
1, 12160, Note_on_c, 1, 61, 0
1, 12160, Note_on_c, 1, 55, 0
1, 12288, Note_on_c, 1, 62, 100
1, 12288, Note_on_c, 1, 54, 100
1, 12416, Note_on_c, 0, 78, 100
1, 12500, Note_on_c, 0, 78, 0
1, 12544, Note_on_c, 0, 74, 100
1, 12544, Note_on_c, 1, 62, 0
1, 12544, Note_on_c, 1, 54, 0
1, 12628, Note_on_c, 0, 74, 0
1, 12672, Note_on_c, 0, 73, 100
1, 12756, Note_on_c, 0, 73, 0
1, 12800, Note_on_c, 0, 69, 100
1, 12884, Note_on_c, 0, 69, 0
1, 12928, Note_on_c, 0, 76, 100
1, 13012, Note_on_c, 0, 76, 0
1, 13056, Note_on_c, 0, 81, 100
1, 13056, Note_on_c, 1, 61, 100
1, 13056, Note_on_c, 1, 55, 100
1, 13312, Note_on_c, 0, 81, 0
1, 13312, Note_on_c, 1, 61, 0
1, 13312, Note_on_c, 1, 55, 0
1, 13440, Note_on_c, 1, 62, 100
1, 13440, Note_on_c, 1, 54, 100
1, 13568, Note_on_c, 0, 78, 100
1, 13652, Note_on_c, 0, 78, 0
1, 13696, Note_on_c, 0, 74, 100
1, 13696, Note_on_c, 1, 62, 0
1, 13696, Note_on_c, 1, 54, 0
1, 13780, Note_on_c, 0, 74, 0
1, 13824, Note_on_c, 0, 72, 100
1, 13824, Note_on_c, 1, 55, 100
1, 13908, Note_on_c, 0, 72, 0
1, 13952, Note_on_c, 0, 71, 100
1, 14036, Note_on_c, 0, 71, 0
1, 14080, Note_on_c, 0, 82, 100
1, 14080, Note_on_c, 1, 55, 0
1, 14164, Note_on_c, 0, 82, 0
1, 14208, Note_on_c, 0, 83, 100
1, 14292, Note_on_c, 0, 83, 0
1, 14336, Note_on_c, 0, 79, 100
1, 14420, Note_on_c, 0, 79, 0
1, 14464, Note_on_c, 0, 76, 100
1, 14548, Note_on_c, 0, 76, 0
1, 14592, Note_on_c, 0, 79, 100
1, 14592, Note_on_c, 1, 67, 100
1, 14592, Note_on_c, 1, 57, 100
1, 14676, Note_on_c, 0, 79, 0
1, 14720, Note_on_c, 0, 76, 100
1, 14804, Note_on_c, 0, 76, 0
1, 14848, Note_on_c, 0, 73, 100
1, 14848, Note_on_c, 1, 67, 0
1, 14848, Note_on_c, 1, 57, 0
1, 14932, Note_on_c, 0, 73, 0
1, 14976, Note_on_c, 0, 73, 100
1, 14976, Note_on_c, 1, 60, 100
1, 14976, Note_on_c, 1, 67, 100
1, 15488, Note_on_c, 0, 73, 0
1, 15488, Note_on_c, 1, 60, 0
1, 15488, Note_on_c, 1, 67, 0
1, 15744, Note_on_c, 0, 74, 100
1, 15744, Note_on_c, 1, 66, 100
1, 16000, Note_on_c, 0, 74, 0
1, 16000, Note_on_c, 1, 66, 0
1, 16128, Note_on_c, 0, 74, 100
1, 16128, Note_on_c, 1, 59, 100
1, 16128, Note_on_c, 1, 55, 100
1, 16384, Note_on_c, 0, 74, 0
1, 16384, Note_on_c, 1, 59, 0
1, 16384, Note_on_c, 1, 55, 0
1, 16512, Note_on_c, 0, 79, 100
1, 16596, Note_on_c, 0, 79, 0
1, 16640, Note_on_c, 0, 74, 100
1, 16724, Note_on_c, 0, 74, 0
1, 16768, Note_on_c, 0, 71, 100
1, 16852, Note_on_c, 0, 71, 0
1, 16896, Note_on_c, 0, 74, 100
1, 16896, Note_on_c, 1, 62, 100
1, 16896, Note_on_c, 1, 59, 100
1, 16980, Note_on_c, 0, 74, 0
1, 17024, Note_on_c, 0, 71, 100
1, 17108, Note_on_c, 0, 71, 0
1, 17152, Note_on_c, 0, 67, 100
1, 17152, Note_on_c, 1, 62, 0
1, 17152, Note_on_c, 1, 59, 0
1, 17236, Note_on_c, 0, 67, 0
1, 17280, Note_on_c, 0, 67, 100
1, 17280, Note_on_c, 1, 60, 100
1, 17280, Note_on_c, 1, 57, 100
1, 17364, Note_on_c, 0, 67, 0
1, 17408, Note_on_c, 0, 66, 100
1, 17492, Note_on_c, 0, 66, 0
1, 17536, Note_on_c, 0, 62, 100
1, 17536, Note_on_c, 1, 60, 0
1, 17536, Note_on_c, 1, 57, 0
1, 17620, Note_on_c, 0, 62, 0
1, 17664, Note_on_c, 0, 72, 100
1, 17664, Note_on_c, 0, 69, 100
1, 17664, Note_on_c, 1, 54, 100
1, 17920, Note_on_c, 0, 72, 0
1, 17920, Note_on_c, 0, 69, 0
1, 17920, Note_on_c, 1, 54, 0
1, 18048, Note_on_c, 0, 71, 100
1, 18048, Note_on_c, 0, 67, 100
1, 18048, Note_on_c, 1, 55, 100
1, 18304, Note_on_c, 0, 71, 0
1, 18304, Note_on_c, 0, 67, 0
1, 18304, Note_on_c, 1, 55, 0
1, 18432, Note_on_c, 0, 64, 100
1, 18432, Note_on_c, 1, 48, 100
1, 18516, Note_on_c, 0, 64, 0
1, 18560, Note_on_c, 0, 68, 100
1, 18644, Note_on_c, 0, 68, 0
1, 18688, Note_on_c, 0, 69, 100
1, 18772, Note_on_c, 0, 69, 0
1, 18816, Note_on_c, 0, 71, 100
1, 18900, Note_on_c, 0, 71, 0
1, 18944, Note_on_c, 0, 72, 100
1, 19028, Note_on_c, 0, 72, 0
1, 19072, Note_on_c, 0, 74, 100
1, 19156, Note_on_c, 0, 74, 0
1, 19200, Note_on_c, 0, 76, 100
1, 19284, Note_on_c, 0, 76, 0
1, 19328, Note_on_c, 0, 72, 100
1, 19412, Note_on_c, 0, 72, 0
1, 19456, Note_on_c, 0, 69, 100
1, 19460, Note_on_c, 1, 48, 0
1, 19540, Note_on_c, 0, 69, 0
1, 19584, Note_on_c, 0, 67, 100
1, 19584, Note_on_c, 1, 50, 100
1, 19840, Note_on_c, 1, 50, 0
1, 19968, Note_on_c, 1, 62, 100
1, 20052, Note_on_c, 1, 62, 0
1, 20096, Note_on_c, 0, 67, 0
1, 20096, Note_on_c, 1, 64, 100
1, 20180, Note_on_c, 1, 64, 0
1, 20224, Note_on_c, 1, 62, 100
1, 20308, Note_on_c, 1, 62, 0
1, 20352, Note_on_c, 0, 66, 100
1, 20352, Note_on_c, 1, 60, 100
1, 20436, Note_on_c, 1, 60, 0
1, 20480, Note_on_c, 1, 59, 100
1, 20564, Note_on_c, 1, 59, 0
1, 20608, Note_on_c, 0, 66, 0
1, 20608, Note_on_c, 1, 57, 100
1, 20692, Note_on_c, 1, 57, 0
1, 20736, Note_on_c, 0, 74, 100
1, 20736, Note_on_c, 1, 59, 100
1, 20736, Note_on_c, 1, 55, 100
1, 20992, Note_on_c, 0, 74, 0
1, 20992, Note_on_c, 1, 59, 0
1, 20992, Note_on_c, 1, 55, 0
1, 21120, Note_on_c, 0, 79, 100
1, 21204, Note_on_c, 0, 79, 0
1, 21248, Note_on_c, 0, 74, 100
1, 21332, Note_on_c, 0, 74, 0
1, 21376, Note_on_c, 0, 71, 100
1, 21460, Note_on_c, 0, 71, 0
1, 21504, Note_on_c, 0, 74, 100
1, 21504, Note_on_c, 1, 62, 100
1, 21504, Note_on_c, 1, 59, 100
1, 21588, Note_on_c, 0, 74, 0
1, 21632, Note_on_c, 0, 71, 100
1, 21716, Note_on_c, 0, 71, 0
1, 21760, Note_on_c, 0, 67, 100
1, 21760, Note_on_c, 1, 62, 0
1, 21760, Note_on_c, 1, 59, 0
1, 21844, Note_on_c, 0, 67, 0
1, 21888, Note_on_c, 0, 67, 100
1, 21888, Note_on_c, 1, 60, 100
1, 21888, Note_on_c, 1, 57, 100
1, 21972, Note_on_c, 0, 67, 0
1, 22016, Note_on_c, 0, 66, 100
1, 22100, Note_on_c, 0, 66, 0
1, 22144, Note_on_c, 0, 62, 100
1, 22144, Note_on_c, 1, 60, 0
1, 22144, Note_on_c, 1, 57, 0
1, 22228, Note_on_c, 0, 62, 0
1, 22272, Note_on_c, 0, 72, 100
1, 22272, Note_on_c, 0, 69, 100
1, 22272, Note_on_c, 1, 54, 100
1, 22528, Note_on_c, 0, 72, 0
1, 22528, Note_on_c, 0, 69, 0
1, 22528, Note_on_c, 1, 54, 0
1, 22656, Note_on_c, 0, 71, 100
1, 22656, Note_on_c, 0, 67, 100
1, 22656, Note_on_c, 1, 55, 100
1, 22912, Note_on_c, 0, 71, 0
1, 22912, Note_on_c, 0, 67, 0
1, 22912, Note_on_c, 1, 55, 0
1, 23040, Note_on_c, 0, 72, 100
1, 23124, Note_on_c, 0, 72, 0
1, 23168, Note_on_c, 0, 71, 100
1, 23252, Note_on_c, 0, 71, 0
1, 23296, Note_on_c, 0, 67, 100
1, 23380, Note_on_c, 0, 67, 0
1, 23424, Note_on_c, 0, 79, 100
1, 23424, Note_on_c, 0, 73, 100
1, 23424, Note_on_c, 1, 64, 100
1, 23680, Note_on_c, 0, 79, 0
1, 23680, Note_on_c, 0, 73, 0
1, 23680, Note_on_c, 1, 64, 0
1, 23808, Note_on_c, 0, 78, 100
1, 23808, Note_on_c, 0, 74, 100
1, 23808, Note_on_c, 1, 62, 100
1, 24064, Note_on_c, 0, 78, 0
1, 24064, Note_on_c, 0, 74, 0
1, 24064, Note_on_c, 1, 62, 0
1, 24192, Note_on_c, 0, 71, 100
1, 24192, Note_on_c, 1, 67, 100
1, 24276, Note_on_c, 0, 71, 0
1, 24320, Note_on_c, 0, 76, 100
1, 24404, Note_on_c, 0, 76, 0
1, 24448, Note_on_c, 0, 75, 100
1, 24532, Note_on_c, 0, 75, 0
1, 24576, Note_on_c, 0, 78, 100
1, 24660, Note_on_c, 0, 78, 0
1, 24704, Note_on_c, 0, 76, 100
1, 24788, Note_on_c, 0, 76, 0
1, 24832, Note_on_c, 0, 79, 100
1, 24916, Note_on_c, 0, 79, 0
1, 24960, Note_on_c, 0, 83, 100
1, 25044, Note_on_c, 0, 83, 0
1, 25088, Note_on_c, 0, 79, 100
1, 25172, Note_on_c, 0, 79, 0
1, 25216, Note_on_c, 0, 76, 100
1, 25220, Note_on_c, 1, 67, 0
1, 25300, Note_on_c, 0, 76, 0
1, 25344, Note_on_c, 0, 74, 100
1, 25428, Note_on_c, 0, 74, 0
1, 25472, Note_on_c, 0, 73, 100
1, 25556, Note_on_c, 0, 73, 0
1, 25600, Note_on_c, 0, 76, 100
1, 25684, Note_on_c, 0, 76, 0
1, 25728, Note_on_c, 0, 81, 100
1, 25728, Note_on_c, 1, 67, 100
1, 25728, Note_on_c, 1, 61, 100
1, 25984, Note_on_c, 0, 81, 0
1, 25984, Note_on_c, 1, 67, 0
1, 25984, Note_on_c, 1, 61, 0
1, 26112, Note_on_c, 1, 66, 100
1, 26112, Note_on_c, 1, 62, 100
1, 26240, Note_on_c, 0, 78, 100
1, 26324, Note_on_c, 0, 78, 0
1, 26368, Note_on_c, 0, 74, 100
1, 26368, Note_on_c, 1, 66, 0
1, 26368, Note_on_c, 1, 62, 0
1, 26452, Note_on_c, 0, 74, 0
1, 26496, Note_on_c, 0, 73, 100
1, 26580, Note_on_c, 0, 73, 0
1, 26624, Note_on_c, 0, 69, 100
1, 26708, Note_on_c, 0, 69, 0
1, 26752, Note_on_c, 0, 76, 100
1, 26836, Note_on_c, 0, 76, 0
1, 26880, Note_on_c, 0, 81, 100
1, 26880, Note_on_c, 1, 67, 100
1, 26880, Note_on_c, 1, 61, 100
1, 27136, Note_on_c, 0, 81, 0
1, 27136, Note_on_c, 1, 67, 0
1, 27136, Note_on_c, 1, 61, 0
1, 27264, Note_on_c, 1, 66, 100
1, 27264, Note_on_c, 1, 62, 100
1, 27392, Note_on_c, 0, 78, 100
1, 27476, Note_on_c, 0, 78, 0
1, 27520, Note_on_c, 0, 74, 100
1, 27520, Note_on_c, 1, 66, 0
1, 27520, Note_on_c, 1, 62, 0
1, 27604, Note_on_c, 0, 74, 0
1, 27648, Note_on_c, 0, 74, 100
1, 27732, Note_on_c, 0, 74, 0
1, 27776, Note_on_c, 0, 73, 100
1, 27860, Note_on_c, 0, 73, 0
1, 27904, Note_on_c, 0, 76, 100
1, 27988, Note_on_c, 0, 76, 0
1, 28032, Note_on_c, 0, 81, 100
1, 28032, Note_on_c, 1, 61, 100
1, 28032, Note_on_c, 1, 55, 100
1, 28288, Note_on_c, 0, 81, 0
1, 28288, Note_on_c, 1, 61, 0
1, 28288, Note_on_c, 1, 55, 0
1, 28416, Note_on_c, 1, 62, 100
1, 28416, Note_on_c, 1, 54, 100
1, 28544, Note_on_c, 0, 78, 100
1, 28628, Note_on_c, 0, 78, 0
1, 28672, Note_on_c, 0, 74, 100
1, 28672, Note_on_c, 1, 62, 0
1, 28672, Note_on_c, 1, 54, 0
1, 28756, Note_on_c, 0, 74, 0
1, 28800, Note_on_c, 0, 73, 100
1, 28884, Note_on_c, 0, 73, 0
1, 28928, Note_on_c, 0, 69, 100
1, 29012, Note_on_c, 0, 69, 0
1, 29056, Note_on_c, 0, 76, 100
1, 29140, Note_on_c, 0, 76, 0
1, 29184, Note_on_c, 0, 81, 100
1, 29184, Note_on_c, 1, 61, 100
1, 29184, Note_on_c, 1, 55, 100
1, 29440, Note_on_c, 0, 81, 0
1, 29440, Note_on_c, 1, 61, 0
1, 29440, Note_on_c, 1, 55, 0
1, 29568, Note_on_c, 1, 62, 100
1, 29568, Note_on_c, 1, 54, 100
1, 29696, Note_on_c, 0, 78, 100
1, 29780, Note_on_c, 0, 78, 0
1, 29824, Note_on_c, 0, 74, 100
1, 29824, Note_on_c, 1, 62, 0
1, 29824, Note_on_c, 1, 54, 0
1, 29908, Note_on_c, 0, 74, 0
1, 29952, Note_on_c, 0, 72, 100
1, 29952, Note_on_c, 1, 55, 100
1, 30036, Note_on_c, 0, 72, 0
1, 30080, Note_on_c, 0, 71, 100
1, 30164, Note_on_c, 0, 71, 0
1, 30208, Note_on_c, 0, 82, 100
1, 30208, Note_on_c, 1, 55, 0
1, 30292, Note_on_c, 0, 82, 0
1, 30336, Note_on_c, 0, 83, 100
1, 30420, Note_on_c, 0, 83, 0
1, 30464, Note_on_c, 0, 79, 100
1, 30548, Note_on_c, 0, 79, 0
1, 30592, Note_on_c, 0, 76, 100
1, 30676, Note_on_c, 0, 76, 0
1, 30720, Note_on_c, 0, 79, 100
1, 30720, Note_on_c, 1, 67, 100
1, 30720, Note_on_c, 1, 57, 100
1, 30804, Note_on_c, 0, 79, 0
1, 30848, Note_on_c, 0, 76, 100
1, 30932, Note_on_c, 0, 76, 0
1, 30976, Note_on_c, 0, 73, 100
1, 30976, Note_on_c, 1, 67, 0
1, 30976, Note_on_c, 1, 57, 0
1, 31060, Note_on_c, 0, 73, 0
1, 31104, Note_on_c, 0, 73, 100
1, 31104, Note_on_c, 1, 60, 100
1, 31104, Note_on_c, 1, 67, 100
1, 31616, Note_on_c, 0, 73, 0
1, 31616, Note_on_c, 1, 60, 0
1, 31616, Note_on_c, 1, 67, 0
1, 31872, Note_on_c, 0, 74, 100
1, 31872, Note_on_c, 1, 66, 100
1, 32128, Note_on_c, 0, 74, 0
1, 32128, Note_on_c, 1, 66, 0
1, 32256, Note_on_c, 0, 74, 100
1, 32256, Note_on_c, 1, 62, 100
1, 32288, Note_on_c, 0, 74, 0
1, 32304, Note_on_c, 0, 76, 100
1, 32336, Note_on_c, 0, 76, 0
1, 32340, Note_on_c, 1, 62, 0
1, 32352, Note_on_c, 0, 74, 100
1, 32384, Note_on_c, 0, 74, 0
1, 32384, Note_on_c, 1, 66, 100
1, 32400, Note_on_c, 0, 72, 100
1, 32432, Note_on_c, 0, 72, 0
1, 32448, Note_on_c, 0, 74, 100
1, 32468, Note_on_c, 1, 66, 0
1, 32512, Note_on_c, 1, 69, 100
1, 32576, Note_on_c, 0, 74, 0
1, 32596, Note_on_c, 1, 69, 0
1, 32640, Note_on_c, 0, 86, 100
1, 32640, Note_on_c, 1, 62, 100
1, 32724, Note_on_c, 0, 86, 0
1, 32724, Note_on_c, 1, 62, 0
1, 32768, Note_on_c, 0, 81, 100
1, 32768, Note_on_c, 1, 66, 100
1, 32852, Note_on_c, 0, 81, 0
1, 32852, Note_on_c, 1, 66, 0
1, 32896, Note_on_c, 0, 78, 100
1, 32896, Note_on_c, 1, 69, 100
1, 32980, Note_on_c, 0, 78, 0
1, 32980, Note_on_c, 1, 69, 0
1, 33024, Note_on_c, 0, 81, 100
1, 33024, Note_on_c, 1, 62, 100
1, 33108, Note_on_c, 0, 81, 0
1, 33108, Note_on_c, 1, 62, 0
1, 33152, Note_on_c, 0, 78, 100
1, 33152, Note_on_c, 1, 66, 100
1, 33236, Note_on_c, 0, 78, 0
1, 33236, Note_on_c, 1, 66, 0
1, 33280, Note_on_c, 0, 74, 100
1, 33280, Note_on_c, 1, 69, 100
1, 33364, Note_on_c, 0, 74, 0
1, 33364, Note_on_c, 1, 69, 0
1, 33408, Note_on_c, 0, 74, 100
1, 33408, Note_on_c, 1, 64, 100
1, 33492, Note_on_c, 1, 64, 0
1, 33536, Note_on_c, 1, 67, 100
1, 33620, Note_on_c, 1, 67, 0
1, 33664, Note_on_c, 1, 69, 100
1, 33748, Note_on_c, 1, 69, 0
1, 33792, Note_on_c, 1, 64, 100
1, 33876, Note_on_c, 1, 64, 0
1, 33920, Note_on_c, 0, 74, 0
1, 33920, Note_on_c, 1, 67, 100
1, 34004, Note_on_c, 1, 67, 0
1, 34048, Note_on_c, 1, 69, 100
1, 34132, Note_on_c, 1, 69, 0
1, 34176, Note_on_c, 0, 73, 100
1, 34176, Note_on_c, 1, 64, 100
1, 34192, Note_on_c, 0, 73, 0
1, 34200, Note_on_c, 0, 74, 100
1, 34216, Note_on_c, 0, 74, 0
1, 34224, Note_on_c, 0, 73, 100
1, 34240, Note_on_c, 0, 73, 0
1, 34248, Note_on_c, 0, 74, 100
1, 34260, Note_on_c, 1, 64, 0
1, 34264, Note_on_c, 0, 74, 0
1, 34272, Note_on_c, 0, 73, 100
1, 34288, Note_on_c, 0, 73, 0
1, 34296, Note_on_c, 0, 74, 100
1, 34304, Note_on_c, 1, 67, 100
1, 34312, Note_on_c, 0, 74, 0
1, 34320, Note_on_c, 0, 73, 100
1, 34336, Note_on_c, 0, 73, 0
1, 34344, Note_on_c, 0, 74, 100
1, 34360, Note_on_c, 0, 74, 0
1, 34368, Note_on_c, 0, 73, 100
1, 34384, Note_on_c, 0, 73, 0
1, 34388, Note_on_c, 1, 67, 0
1, 34392, Note_on_c, 0, 74, 100
1, 34408, Note_on_c, 0, 74, 0
1, 34416, Note_on_c, 0, 73, 100
1, 34432, Note_on_c, 0, 73, 0
1, 34432, Note_on_c, 1, 69, 100
1, 34440, Note_on_c, 0, 74, 100
1, 34456, Note_on_c, 0, 74, 0
1, 34464, Note_on_c, 0, 73, 100
1, 34480, Note_on_c, 0, 73, 0
1, 34488, Note_on_c, 0, 74, 100
1, 34504, Note_on_c, 0, 74, 0
1, 34512, Note_on_c, 0, 73, 100
1, 34516, Note_on_c, 1, 69, 0
1, 34528, Note_on_c, 0, 73, 0
1, 34536, Note_on_c, 0, 74, 100
1, 34552, Note_on_c, 0, 74, 0
1, 34560, Note_on_c, 1, 66, 100
1, 34644, Note_on_c, 1, 66, 0
1, 34688, Note_on_c, 1, 69, 100
1, 34772, Note_on_c, 1, 69, 0
1, 34816, Note_on_c, 1, 72, 100
1, 34900, Note_on_c, 1, 72, 0
1, 34944, Note_on_c, 0, 74, 100
1, 35028, Note_on_c, 0, 74, 0
1, 35072, Note_on_c, 0, 78, 100
1, 35156, Note_on_c, 0, 78, 0
1, 35200, Note_on_c, 0, 81, 100
1, 35284, Note_on_c, 0, 81, 0
1, 35328, Note_on_c, 0, 84, 100
1, 35412, Note_on_c, 0, 84, 0
1, 35456, Note_on_c, 0, 81, 100
1, 35540, Note_on_c, 0, 81, 0
1, 35584, Note_on_c, 0, 78, 100
1, 35668, Note_on_c, 0, 78, 0
1, 35712, Note_on_c, 0, 72, 100
1, 35712, Note_on_c, 1, 55, 100
1, 35796, Note_on_c, 1, 55, 0
1, 35840, Note_on_c, 1, 62, 100
1, 35924, Note_on_c, 1, 62, 0
1, 35968, Note_on_c, 0, 72, 0
1, 35968, Note_on_c, 1, 67, 100
1, 36052, Note_on_c, 1, 67, 0
1, 36096, Note_on_c, 0, 71, 100
1, 36096, Note_on_c, 1, 55, 100
1, 36128, Note_on_c, 0, 71, 0
1, 36144, Note_on_c, 0, 72, 100
1, 36176, Note_on_c, 0, 72, 0
1, 36180, Note_on_c, 1, 55, 0
1, 36192, Note_on_c, 0, 71, 100
1, 36224, Note_on_c, 0, 71, 0
1, 36224, Note_on_c, 1, 62, 100
1, 36240, Note_on_c, 0, 69, 100
1, 36272, Note_on_c, 0, 69, 0
1, 36288, Note_on_c, 0, 71, 100
1, 36308, Note_on_c, 1, 62, 0
1, 36352, Note_on_c, 1, 67, 100
1, 36416, Note_on_c, 0, 71, 0
1, 36436, Note_on_c, 1, 67, 0
1, 36480, Note_on_c, 0, 79, 100
1, 36480, Note_on_c, 1, 59, 100
1, 36564, Note_on_c, 1, 59, 0
1, 36608, Note_on_c, 1, 62, 100
1, 36692, Note_on_c, 1, 62, 0
1, 36736, Note_on_c, 0, 79, 0
1, 36736, Note_on_c, 1, 67, 100
1, 36820, Note_on_c, 1, 67, 0
1, 36864, Note_on_c, 0, 75, 100
1, 36864, Note_on_c, 1, 60, 100
1, 36948, Note_on_c, 1, 60, 0
1, 36992, Note_on_c, 0, 75, 0
1, 36992, Note_on_c, 1, 64, 100
1, 37056, Note_on_c, 0, 76, 100
1, 37076, Note_on_c, 1, 64, 0
1, 37120, Note_on_c, 1, 67, 100
1, 37184, Note_on_c, 0, 76, 0
1, 37204, Note_on_c, 1, 67, 0
1, 37248, Note_on_c, 0, 76, 100
1, 37248, Note_on_c, 1, 60, 100
1, 37332, Note_on_c, 1, 60, 0
1, 37376, Note_on_c, 1, 64, 100
1, 37460, Note_on_c, 1, 64, 0
1, 37504, Note_on_c, 0, 76, 0
1, 37504, Note_on_c, 1, 67, 100
1, 37588, Note_on_c, 1, 67, 0
1, 37632, Note_on_c, 0, 79, 100
1, 37632, Note_on_c, 1, 60, 100
1, 37716, Note_on_c, 1, 60, 0
1, 37760, Note_on_c, 1, 64, 100
1, 37844, Note_on_c, 1, 64, 0
1, 37888, Note_on_c, 0, 79, 0
1, 37888, Note_on_c, 1, 67, 100
1, 37972, Note_on_c, 1, 67, 0
1, 38016, Note_on_c, 0, 73, 100
1, 38016, Note_on_c, 1, 59, 100
1, 38100, Note_on_c, 1, 59, 0
1, 38144, Note_on_c, 0, 73, 0
1, 38144, Note_on_c, 1, 62, 100
1, 38208, Note_on_c, 0, 74, 100
1, 38228, Note_on_c, 1, 62, 0
1, 38272, Note_on_c, 1, 67, 100
1, 38336, Note_on_c, 0, 74, 0
1, 38356, Note_on_c, 1, 67, 0
1, 38400, Note_on_c, 0, 74, 100
1, 38400, Note_on_c, 1, 59, 100
1, 38484, Note_on_c, 1, 59, 0
1, 38528, Note_on_c, 1, 62, 100
1, 38612, Note_on_c, 1, 62, 0
1, 38656, Note_on_c, 0, 74, 0
1, 38656, Note_on_c, 1, 67, 100
1, 38740, Note_on_c, 1, 67, 0
1, 38784, Note_on_c, 0, 86, 100
1, 38784, Note_on_c, 1, 59, 100
1, 38868, Note_on_c, 0, 86, 0
1, 38868, Note_on_c, 1, 59, 0
1, 38912, Note_on_c, 0, 83, 100
1, 38912, Note_on_c, 1, 62, 100
1, 38996, Note_on_c, 0, 83, 0
1, 38996, Note_on_c, 1, 62, 0
1, 39040, Note_on_c, 0, 79, 100
1, 39040, Note_on_c, 1, 67, 100
1, 39124, Note_on_c, 0, 79, 0
1, 39124, Note_on_c, 1, 67, 0
1, 39144, Note_on_c, 0, 78, 100
1, 39160, Note_on_c, 0, 78, 0
1, 39168, Note_on_c, 0, 76, 100
1, 39168, Note_on_c, 1, 60, 100
1, 39200, Note_on_c, 0, 76, 0
1, 39216, Note_on_c, 0, 78, 100
1, 39248, Note_on_c, 0, 78, 0
1, 39252, Note_on_c, 1, 60, 0
1, 39264, Note_on_c, 0, 76, 100
1, 39296, Note_on_c, 0, 76, 0
1, 39296, Note_on_c, 1, 64, 100
1, 39312, Note_on_c, 0, 74, 100
1, 39344, Note_on_c, 0, 74, 0
1, 39360, Note_on_c, 0, 76, 100
1, 39380, Note_on_c, 1, 64, 0
1, 39424, Note_on_c, 1, 67, 100
1, 39508, Note_on_c, 1, 67, 0
1, 39552, Note_on_c, 1, 60, 100
1, 39636, Note_on_c, 1, 60, 0
1, 39680, Note_on_c, 1, 64, 100
1, 39764, Note_on_c, 1, 64, 0
1, 39808, Note_on_c, 1, 67, 100
1, 39872, Note_on_c, 0, 76, 0
1, 39892, Note_on_c, 1, 67, 0
1, 39936, Note_on_c, 0, 79, 100
1, 39936, Note_on_c, 1, 60, 100
1, 40020, Note_on_c, 0, 79, 0
1, 40020, Note_on_c, 1, 60, 0
1, 40064, Note_on_c, 0, 78, 100
1, 40064, Note_on_c, 1, 64, 100
1, 40148, Note_on_c, 0, 78, 0
1, 40148, Note_on_c, 1, 64, 0
1, 40192, Note_on_c, 0, 76, 100
1, 40192, Note_on_c, 1, 67, 100
1, 40276, Note_on_c, 0, 76, 0
1, 40276, Note_on_c, 1, 67, 0
1, 40296, Note_on_c, 0, 76, 100
1, 40312, Note_on_c, 0, 76, 0
1, 40320, Note_on_c, 0, 74, 100
1, 40320, Note_on_c, 1, 59, 100
1, 40404, Note_on_c, 1, 59, 0
1, 40448, Note_on_c, 1, 62, 100
1, 40532, Note_on_c, 1, 62, 0
1, 40576, Note_on_c, 1, 67, 100
1, 40660, Note_on_c, 1, 67, 0
1, 40704, Note_on_c, 1, 59, 100
1, 40788, Note_on_c, 1, 59, 0
1, 40832, Note_on_c, 0, 74, 0
1, 40832, Note_on_c, 1, 62, 100
1, 40916, Note_on_c, 1, 62, 0
1, 40960, Note_on_c, 1, 67, 100
1, 41044, Note_on_c, 1, 67, 0
1, 41088, Note_on_c, 0, 78, 100
1, 41088, Note_on_c, 1, 59, 100
1, 41172, Note_on_c, 0, 78, 0
1, 41172, Note_on_c, 1, 59, 0
1, 41216, Note_on_c, 0, 79, 100
1, 41216, Note_on_c, 1, 62, 100
1, 41300, Note_on_c, 0, 79, 0
1, 41300, Note_on_c, 1, 62, 0
1, 41344, Note_on_c, 0, 83, 100
1, 41344, Note_on_c, 1, 67, 100
1, 41428, Note_on_c, 0, 83, 0
1, 41428, Note_on_c, 1, 67, 0
1, 41472, Note_on_c, 0, 75, 100
1, 41472, Note_on_c, 1, 60, 100
1, 41556, Note_on_c, 0, 75, 0
1, 41600, Note_on_c, 0, 76, 100
1, 41684, Note_on_c, 0, 76, 0
1, 41728, Note_on_c, 0, 79, 100
1, 41728, Note_on_c, 1, 60, 0
1, 41812, Note_on_c, 0, 79, 0
1, 41856, Note_on_c, 0, 71, 100
1, 41940, Note_on_c, 0, 71, 0
1, 41984, Note_on_c, 0, 72, 100
1, 42068, Note_on_c, 0, 72, 0
1, 42112, Note_on_c, 0, 76, 100
1, 42196, Note_on_c, 0, 76, 0
1, 42240, Note_on_c, 0, 68, 100
1, 42324, Note_on_c, 0, 68, 0
1, 42368, Note_on_c, 0, 69, 100
1, 42452, Note_on_c, 0, 69, 0
1, 42496, Note_on_c, 0, 72, 100
1, 42580, Note_on_c, 0, 72, 0
1, 42624, Note_on_c, 0, 67, 100
1, 42624, Note_on_c, 1, 50, 100
1, 42880, Note_on_c, 1, 50, 0
1, 43008, Note_on_c, 1, 62, 100
1, 43092, Note_on_c, 1, 62, 0
1, 43136, Note_on_c, 0, 67, 0
1, 43136, Note_on_c, 1, 64, 100
1, 43220, Note_on_c, 1, 64, 0
1, 43264, Note_on_c, 1, 62, 100
1, 43348, Note_on_c, 1, 62, 0
1, 43392, Note_on_c, 0, 66, 100
1, 43392, Note_on_c, 1, 60, 100
1, 43408, Note_on_c, 0, 66, 0
1, 43416, Note_on_c, 0, 69, 100
1, 43432, Note_on_c, 0, 69, 0
1, 43440, Note_on_c, 0, 66, 100
1, 43456, Note_on_c, 0, 66, 0
1, 43464, Note_on_c, 0, 67, 100
1, 43476, Note_on_c, 1, 60, 0
1, 43480, Note_on_c, 0, 67, 0
1, 43488, Note_on_c, 0, 66, 100
1, 43504, Note_on_c, 0, 66, 0
1, 43512, Note_on_c, 0, 67, 100
1, 43520, Note_on_c, 1, 59, 100
1, 43528, Note_on_c, 0, 67, 0
1, 43536, Note_on_c, 0, 66, 100
1, 43552, Note_on_c, 0, 66, 0
1, 43560, Note_on_c, 0, 67, 100
1, 43576, Note_on_c, 0, 67, 0
1, 43584, Note_on_c, 0, 66, 100
1, 43600, Note_on_c, 0, 66, 0
1, 43604, Note_on_c, 1, 59, 0
1, 43608, Note_on_c, 0, 67, 100
1, 43624, Note_on_c, 0, 67, 0
1, 43632, Note_on_c, 0, 66, 100
1, 43648, Note_on_c, 0, 66, 0
1, 43648, Note_on_c, 1, 57, 100
1, 43656, Note_on_c, 0, 67, 100
1, 43672, Note_on_c, 0, 67, 0
1, 43680, Note_on_c, 0, 66, 100
1, 43696, Note_on_c, 0, 66, 0
1, 43704, Note_on_c, 0, 67, 100
1, 43720, Note_on_c, 0, 67, 0
1, 43728, Note_on_c, 0, 66, 100
1, 43732, Note_on_c, 1, 57, 0
1, 43744, Note_on_c, 0, 66, 0
1, 43752, Note_on_c, 0, 67, 100
1, 43768, Note_on_c, 0, 67, 0
1, 43776, Note_on_c, 0, 74, 100
1, 43776, Note_on_c, 1, 59, 100
1, 43776, Note_on_c, 1, 55, 100
1, 44032, Note_on_c, 0, 74, 0
1, 44032, Note_on_c, 1, 59, 0
1, 44032, Note_on_c, 1, 55, 0
1, 44160, Note_on_c, 0, 79, 100
1, 44244, Note_on_c, 0, 79, 0
1, 44288, Note_on_c, 0, 74, 100
1, 44372, Note_on_c, 0, 74, 0
1, 44416, Note_on_c, 0, 71, 100
1, 44500, Note_on_c, 0, 71, 0
1, 44544, Note_on_c, 0, 74, 100
1, 44544, Note_on_c, 1, 62, 100
1, 44544, Note_on_c, 1, 59, 100
1, 44628, Note_on_c, 0, 74, 0
1, 44672, Note_on_c, 0, 71, 100
1, 44756, Note_on_c, 0, 71, 0
1, 44800, Note_on_c, 0, 67, 100
1, 44800, Note_on_c, 1, 62, 0
1, 44800, Note_on_c, 1, 59, 0
1, 44884, Note_on_c, 0, 67, 0
1, 44928, Note_on_c, 0, 67, 100
1, 44928, Note_on_c, 1, 60, 100
1, 44928, Note_on_c, 1, 57, 100
1, 45012, Note_on_c, 0, 67, 0
1, 45056, Note_on_c, 0, 66, 100
1, 45140, Note_on_c, 0, 66, 0
1, 45184, Note_on_c, 0, 62, 100
1, 45184, Note_on_c, 1, 60, 0
1, 45184, Note_on_c, 1, 57, 0
1, 45268, Note_on_c, 0, 62, 0
1, 45312, Note_on_c, 0, 72, 100
1, 45312, Note_on_c, 0, 69, 100
1, 45312, Note_on_c, 1, 54, 100
1, 45568, Note_on_c, 0, 72, 0
1, 45568, Note_on_c, 0, 69, 0
1, 45568, Note_on_c, 1, 54, 0
1, 45696, Note_on_c, 0, 71, 100
1, 45696, Note_on_c, 0, 67, 100
1, 45696, Note_on_c, 1, 55, 100
1, 45952, Note_on_c, 0, 71, 0
1, 45952, Note_on_c, 0, 67, 0
1, 45952, Note_on_c, 1, 55, 0
1, 46080, Note_on_c, 0, 64, 100
1, 46080, Note_on_c, 1, 48, 100
1, 46164, Note_on_c, 0, 64, 0
1, 46208, Note_on_c, 0, 68, 100
1, 46292, Note_on_c, 0, 68, 0
1, 46336, Note_on_c, 0, 69, 100
1, 46420, Note_on_c, 0, 69, 0
1, 46464, Note_on_c, 0, 71, 100
1, 46548, Note_on_c, 0, 71, 0
1, 46592, Note_on_c, 0, 72, 100
1, 46676, Note_on_c, 0, 72, 0
1, 46720, Note_on_c, 0, 74, 100
1, 46804, Note_on_c, 0, 74, 0
1, 46848, Note_on_c, 0, 76, 100
1, 46932, Note_on_c, 0, 76, 0
1, 46976, Note_on_c, 0, 72, 100
1, 47060, Note_on_c, 0, 72, 0
1, 47104, Note_on_c, 0, 69, 100
1, 47108, Note_on_c, 1, 48, 0
1, 47188, Note_on_c, 0, 69, 0
1, 47232, Note_on_c, 0, 67, 100
1, 47232, Note_on_c, 1, 50, 100
1, 47488, Note_on_c, 1, 50, 0
1, 47616, Note_on_c, 1, 45, 100
1, 47744, Note_on_c, 0, 67, 0
1, 47872, Note_on_c, 1, 45, 0
1, 48000, Note_on_c, 0, 66, 100
1, 48000, Note_on_c, 1, 38, 100
1, 48256, Note_on_c, 0, 66, 0
1, 48256, Note_on_c, 1, 38, 0
1, 48384, Note_on_c, 1, 55, 100
1, 48468, Note_on_c, 1, 55, 0
1, 48512, Note_on_c, 1, 54, 100
1, 48596, Note_on_c, 1, 54, 0
1, 48640, Note_on_c, 1, 50, 100
1, 48724, Note_on_c, 1, 50, 0
1, 48768, Note_on_c, 1, 60, 100
1, 48768, Note_on_c, 1, 54, 100
1, 48768, Note_on_c, 1, 45, 100
1, 49024, Note_on_c, 1, 60, 0
1, 49024, Note_on_c, 1, 54, 0
1, 49024, Note_on_c, 1, 45, 0
1, 49152, Note_on_c, 1, 59, 100
1, 49152, Note_on_c, 1, 55, 100
1, 49152, Note_on_c, 1, 43, 100
1, 49408, Note_on_c, 1, 59, 0
1, 49408, Note_on_c, 1, 55, 0
1, 49408, Note_on_c, 1, 43, 0
1, 49536, Note_on_c, 0, 67, 100
1, 49620, Note_on_c, 0, 67, 0
1, 49664, Note_on_c, 0, 66, 100
1, 49748, Note_on_c, 0, 66, 0
1, 49792, Note_on_c, 0, 62, 100
1, 49876, Note_on_c, 0, 62, 0
1, 49920, Note_on_c, 0, 72, 100
1, 49920, Note_on_c, 0, 66, 100
1, 49920, Note_on_c, 1, 57, 100
1, 50176, Note_on_c, 0, 72, 0
1, 50176, Note_on_c, 0, 66, 0
1, 50176, Note_on_c, 1, 57, 0
1, 50304, Note_on_c, 0, 71, 100
1, 50304, Note_on_c, 0, 67, 100
1, 50304, Note_on_c, 1, 55, 100
1, 50560, Note_on_c, 0, 71, 0
1, 50560, Note_on_c, 0, 67, 0
1, 50560, Note_on_c, 1, 55, 0
1, 50688, Note_on_c, 0, 79, 100
1, 50772, Note_on_c, 0, 79, 0
1, 50816, Note_on_c, 0, 78, 100
1, 50900, Note_on_c, 0, 78, 0
1, 50944, Note_on_c, 0, 74, 100
1, 51028, Note_on_c, 0, 74, 0
1, 51072, Tempo, 500000
1, 51072, Note_on_c, 0, 69, 100
1, 51072, Note_on_c, 0, 84, 100
1, 51072, Note_on_c, 0, 78, 100
1, 51328, Note_on_c, 0, 69, 0
1, 51328, Note_on_c, 0, 84, 0
1, 51328, Note_on_c, 0, 78, 0
1, 51456, Note_on_c, 0, 67, 100
1, 51456, Note_on_c, 0, 83, 100
1, 51456, Note_on_c, 0, 79, 100
1, 51712, Note_on_c, 0, 67, 0
1, 51712, Note_on_c, 0, 83, 0
1, 51712, Note_on_c, 0, 79, 0
1, 51840, Tempo, 500000
1, 51840, Note_on_c, 0, 67, 100
1, 51924, Note_on_c, 0, 67, 0
1, 51968, Note_on_c, 0, 66, 100
1, 52052, Note_on_c, 0, 66, 0
1, 52096, Note_on_c, 0, 62, 100
1, 52180, Note_on_c, 0, 62, 0
1, 52224, Tempo, 1000000
1, 52224, Note_on_c, 0, 76, 100
1, 52224, Note_on_c, 0, 72, 100
1, 52224, Note_on_c, 1, 54, 100
1, 52480, Note_on_c, 0, 76, 0
1, 52480, Note_on_c, 0, 72, 0
1, 52480, Note_on_c, 1, 54, 0
1, 52608, Note_on_c, 0, 74, 100
1, 52608, Note_on_c, 0, 71, 100
1, 52608, Note_on_c, 1, 55, 100
1, 52864, Note_on_c, 0, 74, 0
1, 52864, Note_on_c, 0, 71, 0
1, 52864, Note_on_c, 1, 55, 0
1, 52992, Tempo, 500000
1, 52992, Note_on_c, 0, 68, 100
1, 52992, Note_on_c, 1, 48, 100
1, 53076, Note_on_c, 0, 68, 0
1, 53120, Note_on_c, 0, 69, 100
1, 53204, Note_on_c, 0, 69, 0
1, 53248, Note_on_c, 0, 72, 100
1, 53248, Note_on_c, 1, 48, 0
1, 53332, Note_on_c, 0, 72, 0
1, 53376, Note_on_c, 0, 76, 100
1, 53460, Note_on_c, 0, 76, 0
1, 53504, Note_on_c, 0, 72, 100
1, 53588, Note_on_c, 0, 72, 0
1, 53632, Note_on_c, 0, 69, 100
1, 53716, Note_on_c, 0, 69, 0
1, 53760, Note_on_c, 0, 72, 100
1, 53760, Note_on_c, 1, 50, 100
1, 53844, Note_on_c, 0, 72, 0
1, 53888, Note_on_c, 0, 69, 100
1, 53972, Note_on_c, 0, 69, 0
1, 54016, Note_on_c, 0, 66, 100
1, 54016, Note_on_c, 1, 50, 0
1, 54100, Note_on_c, 0, 66, 0
1, 54144, Note_on_c, 0, 66, 100
1, 54144, Note_on_c, 0, 60, 100
1, 54144, Note_on_c, 1, 52, 100
1, 54656, Note_on_c, 0, 66, 0
1, 54656, Note_on_c, 0, 60, 0
1, 54656, Note_on_c, 1, 52, 0
1, 54912, Note_on_c, 0, 67, 100
1, 54912, Note_on_c, 0, 59, 100
1, 55168, Note_on_c, 0, 67, 0
1, 55168, Note_on_c, 0, 59, 0
1, 55296, Note_on_c, 0, 79, 100
1, 55380, Note_on_c, 0, 79, 0
1, 55424, Note_on_c, 0, 78, 100
1, 55508, Note_on_c, 0, 78, 0
1, 55552, Note_on_c, 0, 81, 100
1, 55636, Note_on_c, 0, 81, 0
1, 55680, Note_on_c, 0, 86, 100
1, 55680, Note_on_c, 1, 72, 100
1, 55680, Note_on_c, 1, 66, 100
1, 55936, Note_on_c, 0, 86, 0
1, 55936, Note_on_c, 1, 72, 0
1, 55936, Note_on_c, 1, 66, 0
1, 56064, Note_on_c, 1, 71, 100
1, 56064, Note_on_c, 1, 67, 100
1, 56192, Note_on_c, 0, 83, 100
1, 56276, Note_on_c, 0, 83, 0
1, 56320, Note_on_c, 0, 79, 100
1, 56320, Note_on_c, 1, 71, 0
1, 56320, Note_on_c, 1, 67, 0
1, 56404, Note_on_c, 0, 79, 0
1, 56448, Note_on_c, 0, 78, 100
1, 56532, Note_on_c, 0, 78, 0
1, 56576, Note_on_c, 0, 74, 100
1, 56660, Note_on_c, 0, 74, 0
1, 56704, Note_on_c, 0, 81, 100
1, 56788, Note_on_c, 0, 81, 0
1, 56832, Note_on_c, 0, 86, 100
1, 56832, Note_on_c, 1, 72, 100
1, 56832, Note_on_c, 1, 66, 100
1, 57088, Note_on_c, 0, 86, 0
1, 57088, Note_on_c, 1, 72, 0
1, 57088, Note_on_c, 1, 66, 0
1, 57216, Note_on_c, 1, 71, 100
1, 57216, Note_on_c, 1, 67, 100
1, 57344, Note_on_c, 0, 83, 100
1, 57428, Note_on_c, 0, 83, 0
1, 57472, Note_on_c, 0, 79, 100
1, 57472, Note_on_c, 1, 71, 0
1, 57472, Note_on_c, 1, 67, 0
1, 57556, Note_on_c, 0, 79, 0
1, 57600, Note_on_c, 0, 79, 100
1, 57684, Note_on_c, 0, 79, 0
1, 57728, Note_on_c, 0, 78, 100
1, 57812, Note_on_c, 0, 78, 0
1, 57856, Note_on_c, 0, 81, 100
1, 57940, Note_on_c, 0, 81, 0
1, 57984, Note_on_c, 0, 86, 100
1, 57984, Note_on_c, 1, 66, 100
1, 57984, Note_on_c, 1, 60, 100
1, 58240, Note_on_c, 0, 86, 0
1, 58240, Note_on_c, 1, 66, 0
1, 58240, Note_on_c, 1, 60, 0
1, 58368, Note_on_c, 1, 67, 100
1, 58368, Note_on_c, 1, 59, 100
1, 58496, Note_on_c, 0, 83, 100
1, 58580, Note_on_c, 0, 83, 0
1, 58624, Note_on_c, 0, 79, 100
1, 58624, Note_on_c, 1, 67, 0
1, 58624, Note_on_c, 1, 59, 0
1, 58708, Note_on_c, 0, 79, 0
1, 58752, Note_on_c, 0, 78, 100
1, 58836, Note_on_c, 0, 78, 0
1, 58880, Note_on_c, 0, 74, 100
1, 58964, Note_on_c, 0, 74, 0
1, 59008, Note_on_c, 0, 81, 100
1, 59092, Note_on_c, 0, 81, 0
1, 59136, Note_on_c, 0, 86, 100
1, 59136, Note_on_c, 1, 66, 100
1, 59136, Note_on_c, 1, 60, 100
1, 59392, Note_on_c, 0, 86, 0
1, 59392, Note_on_c, 1, 66, 0
1, 59392, Note_on_c, 1, 60, 0
1, 59520, Note_on_c, 1, 59, 100
1, 59520, Note_on_c, 1, 67, 100
1, 59648, Note_on_c, 0, 83, 100
1, 59732, Note_on_c, 0, 83, 0
1, 59776, Note_on_c, 0, 79, 100
1, 59776, Note_on_c, 1, 59, 0
1, 59776, Note_on_c, 1, 67, 0
1, 59860, Note_on_c, 0, 79, 0
1, 59904, Note_on_c, 0, 76, 100
1, 59904, Note_on_c, 1, 60, 100
1, 59904, Note_on_c, 1, 67, 100
1, 59988, Note_on_c, 0, 76, 0
1, 60032, Note_on_c, 0, 78, 100
1, 60116, Note_on_c, 0, 78, 0
1, 60160, Note_on_c, 0, 79, 100
1, 60160, Note_on_c, 1, 60, 0
1, 60244, Note_on_c, 0, 79, 0
1, 60288, Note_on_c, 0, 74, 100
1, 60288, Note_on_c, 1, 59, 100
1, 60372, Note_on_c, 0, 74, 0
1, 60416, Note_on_c, 0, 78, 100
1, 60416, Note_on_c, 1, 67, 0
1, 60500, Note_on_c, 0, 78, 0
1, 60544, Note_on_c, 0, 79, 100
1, 60544, Note_on_c, 1, 59, 0
1, 60628, Note_on_c, 0, 79, 0
1, 60672, Note_on_c, 0, 72, 100
1, 60672, Note_on_c, 1, 66, 100
1, 60672, Note_on_c, 1, 57, 100
1, 60756, Note_on_c, 0, 72, 0
1, 60800, Note_on_c, 0, 79, 100
1, 60884, Note_on_c, 0, 79, 0
1, 60928, Note_on_c, 0, 81, 100
1, 60928, Note_on_c, 1, 66, 0
1, 60928, Note_on_c, 1, 57, 0
1, 61012, Note_on_c, 0, 81, 0
1, 61056, Note_on_c, 0, 71, 100
1, 61056, Note_on_c, 1, 55, 100
1, 61056, Note_on_c, 1, 67, 100
1, 61140, Note_on_c, 0, 71, 0
1, 61184, Note_on_c, 0, 83, 100
1, 61268, Note_on_c, 0, 83, 0
1, 61312, Note_on_c, 0, 81, 100
1, 61312, Note_on_c, 1, 55, 0
1, 61312, Note_on_c, 1, 67, 0
1, 61396, Note_on_c, 0, 81, 0
1, 61440, Note_on_c, 0, 79, 100
1, 61524, Note_on_c, 0, 79, 0
1, 61568, Note_on_c, 0, 78, 100
1, 61652, Note_on_c, 0, 78, 0
1, 61696, Note_on_c, 0, 76, 100
1, 61780, Note_on_c, 0, 76, 0
1, 61824, Note_on_c, 0, 74, 100
1, 61908, Note_on_c, 0, 74, 0
1, 61952, Note_on_c, 0, 72, 100
1, 62036, Note_on_c, 0, 72, 0
1, 62080, Note_on_c, 0, 71, 100
1, 62164, Note_on_c, 0, 71, 0
1, 62208, Note_on_c, 0, 69, 100
1, 62208, Note_on_c, 1, 60, 100
1, 62208, Note_on_c, 1, 48, 100
1, 62292, Note_on_c, 0, 69, 0
1, 62336, Note_on_c, 0, 72, 100
1, 62420, Note_on_c, 0, 72, 0
1, 62464, Note_on_c, 0, 76, 100
1, 62464, Note_on_c, 1, 60, 0
1, 62464, Note_on_c, 1, 48, 0
1, 62548, Note_on_c, 0, 76, 0
1, 62592, Note_on_c, 0, 67, 100
1, 62592, Note_on_c, 1, 59, 100
1, 62592, Note_on_c, 1, 50, 100
1, 62848, Note_on_c, 0, 67, 0
1, 62848, Note_on_c, 1, 59, 0
1, 62848, Note_on_c, 1, 50, 0
1, 62976, Note_on_c, 0, 66, 100
1, 62976, Note_on_c, 1, 57, 100
1, 62976, Note_on_c, 1, 50, 100
1, 63232, Note_on_c, 0, 66, 0
1, 63232, Note_on_c, 1, 57, 0
1, 63232, Note_on_c, 1, 50, 0
1, 63360, Note_on_c, 0, 66, 100
1, 63360, Note_on_c, 0, 60, 100
1, 63360, Note_on_c, 1, 55, 100
1, 63616, Note_on_c, 1, 55, 0
1, 63744, Note_on_c, 1, 50, 100
1, 63872, Note_on_c, 0, 66, 0
1, 63872, Note_on_c, 0, 60, 0
1, 64000, Note_on_c, 1, 50, 0
1, 64128, Note_on_c, 0, 67, 100
1, 64128, Note_on_c, 0, 59, 100
1, 64128, Note_on_c, 1, 47, 100
1, 64384, Note_on_c, 0, 67, 0
1, 64384, Note_on_c, 0, 59, 0
1, 64384, Note_on_c, 1, 47, 0
1, 64512, Note_on_c, 0, 74, 100
1, 64512, Note_on_c, 1, 62, 100
1, 64544, Note_on_c, 0, 74, 0
1, 64560, Note_on_c, 0, 76, 100
1, 64592, Note_on_c, 0, 76, 0
1, 64596, Note_on_c, 1, 62, 0
1, 64608, Note_on_c, 0, 74, 100
1, 64640, Note_on_c, 0, 74, 0
1, 64640, Note_on_c, 1, 66, 100
1, 64656, Note_on_c, 0, 72, 100
1, 64688, Note_on_c, 0, 72, 0
1, 64704, Note_on_c, 0, 74, 100
1, 64724, Note_on_c, 1, 66, 0
1, 64768, Note_on_c, 1, 69, 100
1, 64832, Note_on_c, 0, 74, 0
1, 64852, Note_on_c, 1, 69, 0
1, 64896, Note_on_c, 0, 86, 100
1, 64896, Note_on_c, 1, 62, 100
1, 64980, Note_on_c, 0, 86, 0
1, 64980, Note_on_c, 1, 62, 0
1, 65024, Note_on_c, 0, 81, 100
1, 65024, Note_on_c, 1, 66, 100
1, 65108, Note_on_c, 0, 81, 0
1, 65108, Note_on_c, 1, 66, 0
1, 65152, Note_on_c, 0, 78, 100
1, 65152, Note_on_c, 1, 69, 100
1, 65236, Note_on_c, 0, 78, 0
1, 65236, Note_on_c, 1, 69, 0
1, 65280, Note_on_c, 0, 81, 100
1, 65280, Note_on_c, 1, 62, 100
1, 65364, Note_on_c, 0, 81, 0
1, 65364, Note_on_c, 1, 62, 0
1, 65408, Note_on_c, 0, 78, 100
1, 65408, Note_on_c, 1, 66, 100
1, 65492, Note_on_c, 0, 78, 0
1, 65492, Note_on_c, 1, 66, 0
1, 65536, Note_on_c, 0, 74, 100
1, 65536, Note_on_c, 1, 69, 100
1, 65620, Note_on_c, 0, 74, 0
1, 65620, Note_on_c, 1, 69, 0
1, 65664, Note_on_c, 0, 74, 100
1, 65664, Note_on_c, 1, 64, 100
1, 65748, Note_on_c, 1, 64, 0
1, 65792, Note_on_c, 1, 67, 100
1, 65876, Note_on_c, 1, 67, 0
1, 65920, Note_on_c, 1, 69, 100
1, 66004, Note_on_c, 1, 69, 0
1, 66048, Note_on_c, 1, 64, 100
1, 66132, Note_on_c, 1, 64, 0
1, 66176, Note_on_c, 0, 74, 0
1, 66176, Note_on_c, 1, 67, 100
1, 66260, Note_on_c, 1, 67, 0
1, 66304, Note_on_c, 1, 69, 100
1, 66388, Note_on_c, 1, 69, 0
1, 66432, Note_on_c, 0, 73, 100
1, 66432, Note_on_c, 1, 64, 100
1, 66448, Note_on_c, 0, 73, 0
1, 66456, Note_on_c, 0, 74, 100
1, 66472, Note_on_c, 0, 74, 0
1, 66480, Note_on_c, 0, 73, 100
1, 66496, Note_on_c, 0, 73, 0
1, 66504, Note_on_c, 0, 74, 100
1, 66516, Note_on_c, 1, 64, 0
1, 66520, Note_on_c, 0, 74, 0
1, 66528, Note_on_c, 0, 73, 100
1, 66544, Note_on_c, 0, 73, 0
1, 66552, Note_on_c, 0, 74, 100
1, 66560, Note_on_c, 1, 67, 100
1, 66568, Note_on_c, 0, 74, 0
1, 66576, Note_on_c, 0, 73, 100
1, 66592, Note_on_c, 0, 73, 0
1, 66600, Note_on_c, 0, 74, 100
1, 66616, Note_on_c, 0, 74, 0
1, 66624, Note_on_c, 0, 73, 100
1, 66640, Note_on_c, 0, 73, 0
1, 66644, Note_on_c, 1, 67, 0
1, 66648, Note_on_c, 0, 74, 100
1, 66664, Note_on_c, 0, 74, 0
1, 66672, Note_on_c, 0, 73, 100
1, 66688, Note_on_c, 0, 73, 0
1, 66688, Note_on_c, 1, 69, 100
1, 66696, Note_on_c, 0, 74, 100
1, 66712, Note_on_c, 0, 74, 0
1, 66720, Note_on_c, 0, 73, 100
1, 66736, Note_on_c, 0, 73, 0
1, 66744, Note_on_c, 0, 74, 100
1, 66760, Note_on_c, 0, 74, 0
1, 66768, Note_on_c, 0, 73, 100
1, 66772, Note_on_c, 1, 69, 0
1, 66784, Note_on_c, 0, 73, 0
1, 66792, Note_on_c, 0, 74, 100
1, 66808, Note_on_c, 0, 74, 0
1, 66816, Note_on_c, 1, 66, 100
1, 66900, Note_on_c, 1, 66, 0
1, 66944, Note_on_c, 1, 69, 100
1, 67028, Note_on_c, 1, 69, 0
1, 67072, Note_on_c, 1, 72, 100
1, 67156, Note_on_c, 1, 72, 0
1, 67200, Note_on_c, 0, 74, 100
1, 67284, Note_on_c, 0, 74, 0
1, 67328, Note_on_c, 0, 78, 100
1, 67412, Note_on_c, 0, 78, 0
1, 67456, Note_on_c, 0, 81, 100
1, 67540, Note_on_c, 0, 81, 0
1, 67584, Note_on_c, 0, 84, 100
1, 67668, Note_on_c, 0, 84, 0
1, 67712, Note_on_c, 0, 81, 100
1, 67796, Note_on_c, 0, 81, 0
1, 67840, Note_on_c, 0, 78, 100
1, 67924, Note_on_c, 0, 78, 0
1, 67968, Note_on_c, 0, 72, 100
1, 67968, Note_on_c, 1, 55, 100
1, 68052, Note_on_c, 1, 55, 0
1, 68096, Note_on_c, 1, 62, 100
1, 68180, Note_on_c, 1, 62, 0
1, 68224, Note_on_c, 0, 72, 0
1, 68224, Note_on_c, 1, 67, 100
1, 68308, Note_on_c, 1, 67, 0
1, 68352, Note_on_c, 0, 71, 100
1, 68352, Note_on_c, 1, 55, 100
1, 68384, Note_on_c, 0, 71, 0
1, 68400, Note_on_c, 0, 72, 100
1, 68432, Note_on_c, 0, 72, 0
1, 68436, Note_on_c, 1, 55, 0
1, 68448, Note_on_c, 0, 71, 100
1, 68480, Note_on_c, 0, 71, 0
1, 68480, Note_on_c, 1, 62, 100
1, 68496, Note_on_c, 0, 69, 100
1, 68528, Note_on_c, 0, 69, 0
1, 68544, Note_on_c, 0, 71, 100
1, 68564, Note_on_c, 1, 62, 0
1, 68608, Note_on_c, 1, 67, 100
1, 68672, Note_on_c, 0, 71, 0
1, 68692, Note_on_c, 1, 67, 0
1, 68736, Note_on_c, 0, 79, 100
1, 68736, Note_on_c, 1, 59, 100
1, 68820, Note_on_c, 1, 59, 0
1, 68864, Note_on_c, 1, 62, 100
1, 68948, Note_on_c, 1, 62, 0
1, 68992, Note_on_c, 0, 79, 0
1, 68992, Note_on_c, 1, 67, 100
1, 69076, Note_on_c, 1, 67, 0
1, 69120, Note_on_c, 0, 75, 100
1, 69120, Note_on_c, 1, 60, 100
1, 69204, Note_on_c, 1, 60, 0
1, 69248, Note_on_c, 0, 75, 0
1, 69248, Note_on_c, 1, 64, 100
1, 69312, Note_on_c, 0, 76, 100
1, 69332, Note_on_c, 1, 64, 0
1, 69376, Note_on_c, 1, 67, 100
1, 69440, Note_on_c, 0, 76, 0
1, 69460, Note_on_c, 1, 67, 0
1, 69504, Note_on_c, 0, 76, 100
1, 69504, Note_on_c, 1, 60, 100
1, 69588, Note_on_c, 1, 60, 0
1, 69632, Note_on_c, 1, 64, 100
1, 69716, Note_on_c, 1, 64, 0
1, 69760, Note_on_c, 0, 76, 0
1, 69760, Note_on_c, 1, 67, 100
1, 69844, Note_on_c, 1, 67, 0
1, 69888, Note_on_c, 0, 79, 100
1, 69888, Note_on_c, 1, 60, 100
1, 69972, Note_on_c, 1, 60, 0
1, 70016, Note_on_c, 1, 64, 100
1, 70100, Note_on_c, 1, 64, 0
1, 70144, Note_on_c, 0, 79, 0
1, 70144, Note_on_c, 1, 67, 100
1, 70228, Note_on_c, 1, 67, 0
1, 70272, Note_on_c, 0, 73, 100
1, 70272, Note_on_c, 1, 59, 100
1, 70356, Note_on_c, 1, 59, 0
1, 70400, Note_on_c, 0, 73, 0
1, 70400, Note_on_c, 1, 62, 100
1, 70464, Note_on_c, 0, 74, 100
1, 70484, Note_on_c, 1, 62, 0
1, 70528, Note_on_c, 1, 67, 100
1, 70592, Note_on_c, 0, 74, 0
1, 70612, Note_on_c, 1, 67, 0
1, 70656, Note_on_c, 0, 74, 100
1, 70656, Note_on_c, 1, 59, 100
1, 70740, Note_on_c, 1, 59, 0
1, 70784, Note_on_c, 1, 62, 100
1, 70868, Note_on_c, 1, 62, 0
1, 70912, Note_on_c, 0, 74, 0
1, 70912, Note_on_c, 1, 67, 100
1, 70996, Note_on_c, 1, 67, 0
1, 71040, Note_on_c, 0, 86, 100
1, 71040, Note_on_c, 1, 59, 100
1, 71124, Note_on_c, 0, 86, 0
1, 71124, Note_on_c, 1, 59, 0
1, 71168, Note_on_c, 0, 83, 100
1, 71168, Note_on_c, 1, 62, 100
1, 71252, Note_on_c, 0, 83, 0
1, 71252, Note_on_c, 1, 62, 0
1, 71296, Note_on_c, 0, 79, 100
1, 71296, Note_on_c, 1, 67, 100
1, 71380, Note_on_c, 0, 79, 0
1, 71380, Note_on_c, 1, 67, 0
1, 71400, Note_on_c, 0, 78, 100
1, 71416, Note_on_c, 0, 78, 0
1, 71424, Note_on_c, 0, 76, 100
1, 71424, Note_on_c, 1, 60, 100
1, 71456, Note_on_c, 0, 76, 0
1, 71472, Note_on_c, 0, 78, 100
1, 71504, Note_on_c, 0, 78, 0
1, 71508, Note_on_c, 1, 60, 0
1, 71520, Note_on_c, 0, 76, 100
1, 71552, Note_on_c, 0, 76, 0
1, 71552, Note_on_c, 1, 64, 100
1, 71568, Note_on_c, 0, 74, 100
1, 71600, Note_on_c, 0, 74, 0
1, 71616, Note_on_c, 0, 76, 100
1, 71636, Note_on_c, 1, 64, 0
1, 71680, Note_on_c, 1, 67, 100
1, 71764, Note_on_c, 1, 67, 0
1, 71808, Note_on_c, 1, 60, 100
1, 71892, Note_on_c, 1, 60, 0
1, 71936, Note_on_c, 1, 64, 100
1, 72020, Note_on_c, 1, 64, 0
1, 72064, Note_on_c, 1, 67, 100
1, 72128, Note_on_c, 0, 76, 0
1, 72148, Note_on_c, 1, 67, 0
1, 72192, Note_on_c, 0, 79, 100
1, 72192, Note_on_c, 1, 60, 100
1, 72276, Note_on_c, 0, 79, 0
1, 72276, Note_on_c, 1, 60, 0
1, 72320, Note_on_c, 0, 78, 100
1, 72320, Note_on_c, 1, 64, 100
1, 72404, Note_on_c, 0, 78, 0
1, 72404, Note_on_c, 1, 64, 0
1, 72448, Note_on_c, 0, 76, 100
1, 72448, Note_on_c, 1, 67, 100
1, 72532, Note_on_c, 0, 76, 0
1, 72532, Note_on_c, 1, 67, 0
1, 72552, Note_on_c, 0, 76, 100
1, 72568, Note_on_c, 0, 76, 0
1, 72576, Note_on_c, 0, 74, 100
1, 72576, Note_on_c, 1, 59, 100
1, 72660, Note_on_c, 1, 59, 0
1, 72704, Note_on_c, 1, 62, 100
1, 72788, Note_on_c, 1, 62, 0
1, 72832, Note_on_c, 1, 67, 100
1, 72916, Note_on_c, 1, 67, 0
1, 72960, Note_on_c, 1, 59, 100
1, 73044, Note_on_c, 1, 59, 0
1, 73088, Note_on_c, 0, 74, 0
1, 73088, Note_on_c, 1, 62, 100
1, 73172, Note_on_c, 1, 62, 0
1, 73216, Note_on_c, 1, 67, 100
1, 73300, Note_on_c, 1, 67, 0
1, 73344, Note_on_c, 0, 78, 100
1, 73344, Note_on_c, 1, 59, 100
1, 73428, Note_on_c, 0, 78, 0
1, 73428, Note_on_c, 1, 59, 0
1, 73472, Note_on_c, 0, 79, 100
1, 73472, Note_on_c, 1, 62, 100
1, 73556, Note_on_c, 0, 79, 0
1, 73556, Note_on_c, 1, 62, 0
1, 73600, Note_on_c, 0, 83, 100
1, 73600, Note_on_c, 1, 67, 100
1, 73684, Note_on_c, 0, 83, 0
1, 73684, Note_on_c, 1, 67, 0
1, 73728, Note_on_c, 0, 75, 100
1, 73728, Note_on_c, 1, 60, 100
1, 73812, Note_on_c, 0, 75, 0
1, 73856, Note_on_c, 0, 76, 100
1, 73940, Note_on_c, 0, 76, 0
1, 73984, Note_on_c, 0, 79, 100
1, 73984, Note_on_c, 1, 60, 0
1, 74068, Note_on_c, 0, 79, 0
1, 74112, Note_on_c, 0, 71, 100
1, 74196, Note_on_c, 0, 71, 0
1, 74240, Note_on_c, 0, 72, 100
1, 74324, Note_on_c, 0, 72, 0
1, 74368, Note_on_c, 0, 76, 100
1, 74452, Note_on_c, 0, 76, 0
1, 74496, Note_on_c, 0, 68, 100
1, 74580, Note_on_c, 0, 68, 0
1, 74624, Note_on_c, 0, 69, 100
1, 74708, Note_on_c, 0, 69, 0
1, 74752, Note_on_c, 0, 72, 100
1, 74836, Note_on_c, 0, 72, 0
1, 74880, Note_on_c, 0, 67, 100
1, 74880, Note_on_c, 1, 50, 100
1, 75136, Note_on_c, 1, 50, 0
1, 75264, Note_on_c, 1, 62, 100
1, 75348, Note_on_c, 1, 62, 0
1, 75392, Note_on_c, 0, 67, 0
1, 75392, Note_on_c, 1, 64, 100
1, 75476, Note_on_c, 1, 64, 0
1, 75520, Note_on_c, 1, 62, 100
1, 75604, Note_on_c, 1, 62, 0
1, 75648, Note_on_c, 0, 66, 100
1, 75648, Note_on_c, 1, 60, 100
1, 75664, Note_on_c, 0, 66, 0
1, 75672, Note_on_c, 0, 69, 100
1, 75688, Note_on_c, 0, 69, 0
1, 75696, Note_on_c, 0, 66, 100
1, 75712, Note_on_c, 0, 66, 0
1, 75720, Note_on_c, 0, 67, 100
1, 75732, Note_on_c, 1, 60, 0
1, 75736, Note_on_c, 0, 67, 0
1, 75744, Note_on_c, 0, 66, 100
1, 75760, Note_on_c, 0, 66, 0
1, 75768, Note_on_c, 0, 67, 100
1, 75776, Note_on_c, 1, 59, 100
1, 75784, Note_on_c, 0, 67, 0
1, 75792, Note_on_c, 0, 66, 100
1, 75808, Note_on_c, 0, 66, 0
1, 75816, Note_on_c, 0, 67, 100
1, 75832, Note_on_c, 0, 67, 0
1, 75840, Note_on_c, 0, 66, 100
1, 75856, Note_on_c, 0, 66, 0
1, 75860, Note_on_c, 1, 59, 0
1, 75864, Note_on_c, 0, 67, 100
1, 75880, Note_on_c, 0, 67, 0
1, 75888, Note_on_c, 0, 66, 100
1, 75904, Note_on_c, 0, 66, 0
1, 75904, Note_on_c, 1, 57, 100
1, 75912, Note_on_c, 0, 67, 100
1, 75928, Note_on_c, 0, 67, 0
1, 75936, Note_on_c, 0, 66, 100
1, 75952, Note_on_c, 0, 66, 0
1, 75960, Note_on_c, 0, 67, 100
1, 75976, Note_on_c, 0, 67, 0
1, 75984, Note_on_c, 0, 66, 100
1, 75988, Note_on_c, 1, 57, 0
1, 76000, Note_on_c, 0, 66, 0
1, 76008, Note_on_c, 0, 67, 100
1, 76024, Note_on_c, 0, 67, 0
1, 76032, Note_on_c, 0, 74, 100
1, 76032, Note_on_c, 1, 59, 100
1, 76032, Note_on_c, 1, 55, 100
1, 76288, Note_on_c, 0, 74, 0
1, 76288, Note_on_c, 1, 59, 0
1, 76288, Note_on_c, 1, 55, 0
1, 76416, Note_on_c, 0, 79, 100
1, 76500, Note_on_c, 0, 79, 0
1, 76544, Note_on_c, 0, 74, 100
1, 76628, Note_on_c, 0, 74, 0
1, 76672, Note_on_c, 0, 71, 100
1, 76756, Note_on_c, 0, 71, 0
1, 76800, Note_on_c, 0, 74, 100
1, 76800, Note_on_c, 1, 62, 100
1, 76800, Note_on_c, 1, 59, 100
1, 76884, Note_on_c, 0, 74, 0
1, 76928, Note_on_c, 0, 71, 100
1, 77012, Note_on_c, 0, 71, 0
1, 77056, Note_on_c, 0, 67, 100
1, 77056, Note_on_c, 1, 62, 0
1, 77056, Note_on_c, 1, 59, 0
1, 77140, Note_on_c, 0, 67, 0
1, 77184, Note_on_c, 0, 67, 100
1, 77184, Note_on_c, 1, 60, 100
1, 77184, Note_on_c, 1, 57, 100
1, 77268, Note_on_c, 0, 67, 0
1, 77312, Note_on_c, 0, 66, 100
1, 77396, Note_on_c, 0, 66, 0
1, 77440, Note_on_c, 0, 62, 100
1, 77440, Note_on_c, 1, 60, 0
1, 77440, Note_on_c, 1, 57, 0
1, 77524, Note_on_c, 0, 62, 0
1, 77568, Note_on_c, 0, 72, 100
1, 77568, Note_on_c, 0, 69, 100
1, 77568, Note_on_c, 1, 54, 100
1, 77824, Note_on_c, 0, 72, 0
1, 77824, Note_on_c, 0, 69, 0
1, 77824, Note_on_c, 1, 54, 0
1, 77952, Note_on_c, 0, 71, 100
1, 77952, Note_on_c, 0, 67, 100
1, 77952, Note_on_c, 1, 55, 100
1, 78208, Note_on_c, 0, 71, 0
1, 78208, Note_on_c, 0, 67, 0
1, 78208, Note_on_c, 1, 55, 0
1, 78336, Note_on_c, 0, 64, 100
1, 78336, Note_on_c, 1, 48, 100
1, 78420, Note_on_c, 0, 64, 0
1, 78464, Note_on_c, 0, 68, 100
1, 78548, Note_on_c, 0, 68, 0
1, 78592, Note_on_c, 0, 69, 100
1, 78676, Note_on_c, 0, 69, 0
1, 78720, Note_on_c, 0, 71, 100
1, 78804, Note_on_c, 0, 71, 0
1, 78848, Note_on_c, 0, 72, 100
1, 78932, Note_on_c, 0, 72, 0
1, 78976, Note_on_c, 0, 74, 100
1, 79060, Note_on_c, 0, 74, 0
1, 79104, Note_on_c, 0, 76, 100
1, 79188, Note_on_c, 0, 76, 0
1, 79232, Note_on_c, 0, 72, 100
1, 79316, Note_on_c, 0, 72, 0
1, 79360, Note_on_c, 0, 69, 100
1, 79364, Note_on_c, 1, 48, 0
1, 79444, Note_on_c, 0, 69, 0
1, 79488, Note_on_c, 0, 67, 100
1, 79488, Note_on_c, 1, 50, 100
1, 79744, Note_on_c, 1, 50, 0
1, 79872, Note_on_c, 1, 45, 100
1, 80000, Note_on_c, 0, 67, 0
1, 80128, Note_on_c, 1, 45, 0
1, 80256, Note_on_c, 0, 66, 100
1, 80256, Note_on_c, 1, 38, 100
1, 80512, Note_on_c, 0, 66, 0
1, 80512, Note_on_c, 1, 38, 0
1, 80640, Note_on_c, 1, 55, 100
1, 80724, Note_on_c, 1, 55, 0
1, 80768, Note_on_c, 1, 54, 100
1, 80852, Note_on_c, 1, 54, 0
1, 80896, Note_on_c, 1, 50, 100
1, 80980, Note_on_c, 1, 50, 0
1, 81024, Note_on_c, 1, 60, 100
1, 81024, Note_on_c, 1, 54, 100
1, 81024, Note_on_c, 1, 45, 100
1, 81280, Note_on_c, 1, 60, 0
1, 81280, Note_on_c, 1, 54, 0
1, 81280, Note_on_c, 1, 45, 0
1, 81408, Note_on_c, 1, 59, 100
1, 81408, Note_on_c, 1, 55, 100
1, 81408, Note_on_c, 1, 43, 100
1, 81664, Note_on_c, 1, 59, 0
1, 81664, Note_on_c, 1, 55, 0
1, 81664, Note_on_c, 1, 43, 0
1, 81792, Note_on_c, 0, 67, 100
1, 81876, Note_on_c, 0, 67, 0
1, 81920, Note_on_c, 0, 66, 100
1, 82004, Note_on_c, 0, 66, 0
1, 82048, Note_on_c, 0, 62, 100
1, 82132, Note_on_c, 0, 62, 0
1, 82176, Note_on_c, 0, 72, 100
1, 82176, Note_on_c, 0, 66, 100
1, 82176, Note_on_c, 1, 57, 100
1, 82432, Note_on_c, 0, 72, 0
1, 82432, Note_on_c, 0, 66, 0
1, 82432, Note_on_c, 1, 57, 0
1, 82560, Note_on_c, 0, 71, 100
1, 82560, Note_on_c, 0, 67, 100
1, 82560, Note_on_c, 1, 55, 100
1, 82816, Note_on_c, 0, 71, 0
1, 82816, Note_on_c, 0, 67, 0
1, 82816, Note_on_c, 1, 55, 0
1, 82944, Note_on_c, 0, 79, 100
1, 83028, Note_on_c, 0, 79, 0
1, 83072, Note_on_c, 0, 78, 100
1, 83156, Note_on_c, 0, 78, 0
1, 83200, Note_on_c, 0, 74, 100
1, 83284, Note_on_c, 0, 74, 0
1, 83328, Note_on_c, 0, 69, 100
1, 83328, Note_on_c, 0, 84, 100
1, 83328, Note_on_c, 0, 78, 100
1, 83584, Note_on_c, 0, 69, 0
1, 83584, Note_on_c, 0, 84, 0
1, 83584, Note_on_c, 0, 78, 0
1, 83712, Note_on_c, 0, 67, 100
1, 83712, Note_on_c, 0, 83, 100
1, 83712, Note_on_c, 0, 79, 100
1, 83968, Note_on_c, 0, 67, 0
1, 83968, Note_on_c, 0, 83, 0
1, 83968, Note_on_c, 0, 79, 0
1, 84096, Note_on_c, 0, 67, 100
1, 84180, Note_on_c, 0, 67, 0
1, 84224, Note_on_c, 0, 66, 100
1, 84308, Note_on_c, 0, 66, 0
1, 84352, Note_on_c, 0, 62, 100
1, 84436, Note_on_c, 0, 62, 0
1, 84480, Tempo, 1000000
1, 84480, Note_on_c, 0, 76, 100
1, 84480, Note_on_c, 0, 72, 100
1, 84480, Note_on_c, 1, 54, 100
1, 84736, Note_on_c, 0, 76, 0
1, 84736, Note_on_c, 0, 72, 0
1, 84736, Note_on_c, 1, 54, 0
1, 84864, Note_on_c, 0, 74, 100
1, 84864, Note_on_c, 0, 71, 100
1, 84864, Note_on_c, 1, 55, 100
1, 85120, Note_on_c, 0, 74, 0
1, 85120, Note_on_c, 0, 71, 0
1, 85120, Note_on_c, 1, 55, 0
1, 85248, Tempo, 500000
1, 85248, Note_on_c, 0, 68, 100
1, 85248, Note_on_c, 1, 48, 100
1, 85332, Note_on_c, 0, 68, 0
1, 85376, Note_on_c, 0, 69, 100
1, 85460, Note_on_c, 0, 69, 0
1, 85504, Note_on_c, 0, 72, 100
1, 85504, Note_on_c, 1, 48, 0
1, 85588, Note_on_c, 0, 72, 0
1, 85632, Note_on_c, 0, 76, 100
1, 85716, Note_on_c, 0, 76, 0
1, 85760, Note_on_c, 0, 72, 100
1, 85844, Note_on_c, 0, 72, 0
1, 85888, Note_on_c, 0, 69, 100
1, 85972, Note_on_c, 0, 69, 0
1, 86016, Note_on_c, 0, 72, 100
1, 86016, Note_on_c, 1, 50, 100
1, 86100, Note_on_c, 0, 72, 0
1, 86144, Note_on_c, 0, 69, 100
1, 86228, Note_on_c, 0, 69, 0
1, 86272, Note_on_c, 0, 66, 100
1, 86272, Note_on_c, 1, 50, 0
1, 86356, Note_on_c, 0, 66, 0
1, 86400, Note_on_c, 0, 66, 100
1, 86400, Note_on_c, 0, 60, 100
1, 86400, Note_on_c, 1, 52, 100
1, 86912, Note_on_c, 0, 66, 0
1, 86912, Note_on_c, 0, 60, 0
1, 86912, Note_on_c, 1, 52, 0
1, 87168, Note_on_c, 0, 67, 100
1, 87168, Note_on_c, 0, 59, 100
1, 87424, Note_on_c, 0, 67, 0
1, 87424, Note_on_c, 0, 59, 0
1, 87552, Note_on_c, 0, 79, 100
1, 87636, Note_on_c, 0, 79, 0
1, 87680, Note_on_c, 0, 78, 100
1, 87764, Note_on_c, 0, 78, 0
1, 87808, Note_on_c, 0, 81, 100
1, 87892, Note_on_c, 0, 81, 0
1, 87936, Note_on_c, 0, 86, 100
1, 87936, Note_on_c, 1, 72, 100
1, 87936, Note_on_c, 1, 66, 100
1, 88192, Note_on_c, 0, 86, 0
1, 88192, Note_on_c, 1, 72, 0
1, 88192, Note_on_c, 1, 66, 0
1, 88320, Note_on_c, 1, 71, 100
1, 88320, Note_on_c, 1, 67, 100
1, 88448, Note_on_c, 0, 83, 100
1, 88532, Note_on_c, 0, 83, 0
1, 88576, Note_on_c, 0, 79, 100
1, 88576, Note_on_c, 1, 71, 0
1, 88576, Note_on_c, 1, 67, 0
1, 88660, Note_on_c, 0, 79, 0
1, 88704, Note_on_c, 0, 78, 100
1, 88788, Note_on_c, 0, 78, 0
1, 88832, Note_on_c, 0, 74, 100
1, 88916, Note_on_c, 0, 74, 0
1, 88960, Note_on_c, 0, 81, 100
1, 89044, Note_on_c, 0, 81, 0
1, 89088, Note_on_c, 0, 86, 100
1, 89088, Note_on_c, 1, 72, 100
1, 89088, Note_on_c, 1, 66, 100
1, 89344, Note_on_c, 0, 86, 0
1, 89344, Note_on_c, 1, 72, 0
1, 89344, Note_on_c, 1, 66, 0
1, 89472, Note_on_c, 1, 71, 100
1, 89472, Note_on_c, 1, 67, 100
1, 89600, Note_on_c, 0, 83, 100
1, 89684, Note_on_c, 0, 83, 0
1, 89728, Note_on_c, 0, 79, 100
1, 89728, Note_on_c, 1, 71, 0
1, 89728, Note_on_c, 1, 67, 0
1, 89812, Note_on_c, 0, 79, 0
1, 89856, Note_on_c, 0, 79, 100
1, 89940, Note_on_c, 0, 79, 0
1, 89984, Note_on_c, 0, 78, 100
1, 90068, Note_on_c, 0, 78, 0
1, 90112, Note_on_c, 0, 81, 100
1, 90196, Note_on_c, 0, 81, 0
1, 90240, Note_on_c, 0, 86, 100
1, 90240, Note_on_c, 1, 66, 100
1, 90240, Note_on_c, 1, 60, 100
1, 90496, Note_on_c, 0, 86, 0
1, 90496, Note_on_c, 1, 66, 0
1, 90496, Note_on_c, 1, 60, 0
1, 90624, Note_on_c, 1, 67, 100
1, 90624, Note_on_c, 1, 59, 100
1, 90752, Note_on_c, 0, 83, 100
1, 90836, Note_on_c, 0, 83, 0
1, 90880, Note_on_c, 0, 79, 100
1, 90880, Note_on_c, 1, 67, 0
1, 90880, Note_on_c, 1, 59, 0
1, 90964, Note_on_c, 0, 79, 0
1, 91008, Note_on_c, 0, 78, 100
1, 91092, Note_on_c, 0, 78, 0
1, 91136, Note_on_c, 0, 74, 100
1, 91220, Note_on_c, 0, 74, 0
1, 91264, Note_on_c, 0, 81, 100
1, 91348, Note_on_c, 0, 81, 0
1, 91392, Note_on_c, 0, 86, 100
1, 91392, Note_on_c, 1, 66, 100
1, 91392, Note_on_c, 1, 60, 100
1, 91648, Note_on_c, 0, 86, 0
1, 91648, Note_on_c, 1, 66, 0
1, 91648, Note_on_c, 1, 60, 0
1, 91776, Note_on_c, 1, 59, 100
1, 91776, Note_on_c, 1, 67, 100
1, 91904, Note_on_c, 0, 83, 100
1, 91988, Note_on_c, 0, 83, 0
1, 92032, Note_on_c, 0, 79, 100
1, 92032, Note_on_c, 1, 59, 0
1, 92032, Note_on_c, 1, 67, 0
1, 92116, Note_on_c, 0, 79, 0
1, 92160, Note_on_c, 0, 76, 100
1, 92160, Note_on_c, 1, 60, 100
1, 92160, Note_on_c, 1, 67, 100
1, 92244, Note_on_c, 0, 76, 0
1, 92288, Note_on_c, 0, 78, 100
1, 92372, Note_on_c, 0, 78, 0
1, 92416, Note_on_c, 0, 79, 100
1, 92416, Note_on_c, 1, 60, 0
1, 92500, Note_on_c, 0, 79, 0
1, 92544, Note_on_c, 0, 74, 100
1, 92544, Note_on_c, 1, 59, 100
1, 92628, Note_on_c, 0, 74, 0
1, 92672, Note_on_c, 0, 78, 100
1, 92672, Note_on_c, 1, 67, 0
1, 92756, Note_on_c, 0, 78, 0
1, 92800, Note_on_c, 0, 79, 100
1, 92800, Note_on_c, 1, 59, 0
1, 92884, Note_on_c, 0, 79, 0
1, 92928, Note_on_c, 0, 72, 100
1, 92928, Note_on_c, 1, 66, 100
1, 92928, Note_on_c, 1, 57, 100
1, 93012, Note_on_c, 0, 72, 0
1, 93056, Note_on_c, 0, 79, 100
1, 93140, Note_on_c, 0, 79, 0
1, 93184, Note_on_c, 0, 81, 100
1, 93184, Note_on_c, 1, 66, 0
1, 93184, Note_on_c, 1, 57, 0
1, 93268, Note_on_c, 0, 81, 0
1, 93312, Note_on_c, 0, 71, 100
1, 93312, Note_on_c, 1, 55, 100
1, 93312, Note_on_c, 1, 67, 100
1, 93396, Note_on_c, 0, 71, 0
1, 93440, Note_on_c, 0, 83, 100
1, 93524, Note_on_c, 0, 83, 0
1, 93568, Note_on_c, 0, 81, 100
1, 93568, Note_on_c, 1, 55, 0
1, 93568, Note_on_c, 1, 67, 0
1, 93652, Note_on_c, 0, 81, 0
1, 93696, Note_on_c, 0, 79, 100
1, 93780, Note_on_c, 0, 79, 0
1, 93824, Note_on_c, 0, 78, 100
1, 93908, Note_on_c, 0, 78, 0
1, 93952, Note_on_c, 0, 76, 100
1, 94036, Note_on_c, 0, 76, 0
1, 94080, Note_on_c, 0, 74, 100
1, 94164, Note_on_c, 0, 74, 0
1, 94208, Note_on_c, 0, 72, 100
1, 94292, Note_on_c, 0, 72, 0
1, 94336, Note_on_c, 0, 71, 100
1, 94420, Note_on_c, 0, 71, 0
1, 94464, Note_on_c, 0, 69, 100
1, 94464, Note_on_c, 1, 60, 100
1, 94464, Note_on_c, 1, 48, 100
1, 94548, Note_on_c, 0, 69, 0
1, 94592, Note_on_c, 0, 72, 100
1, 94676, Note_on_c, 0, 72, 0
1, 94720, Note_on_c, 0, 76, 100
1, 94720, Note_on_c, 1, 60, 0
1, 94720, Note_on_c, 1, 48, 0
1, 94804, Note_on_c, 0, 76, 0
1, 94848, Note_on_c, 0, 67, 100
1, 94848, Note_on_c, 1, 59, 100
1, 94848, Note_on_c, 1, 50, 100
1, 95104, Note_on_c, 0, 67, 0
1, 95104, Note_on_c, 1, 59, 0
1, 95104, Note_on_c, 1, 50, 0
1, 95232, Note_on_c, 0, 66, 100
1, 95232, Note_on_c, 1, 57, 100
1, 95232, Note_on_c, 1, 50, 100
1, 95488, Note_on_c, 0, 66, 0
1, 95488, Note_on_c, 1, 57, 0
1, 95488, Note_on_c, 1, 50, 0
1, 95616, Note_on_c, 0, 66, 100
1, 95616, Note_on_c, 0, 60, 100
1, 95616, Note_on_c, 1, 55, 100
1, 95872, Note_on_c, 1, 55, 0
1, 96000, Note_on_c, 1, 50, 100
1, 96128, Note_on_c, 0, 66, 0
1, 96128, Note_on_c, 0, 60, 0
1, 96256, Note_on_c, 1, 50, 0
1, 96384, Note_on_c, 0, 67, 100
1, 96384, Note_on_c, 0, 59, 100
1, 96384, Note_on_c, 1, 47, 100
1, 96640, Note_on_c, 0, 67, 0
1, 96640, Note_on_c, 0, 59, 0
1, 96640, Note_on_c, 1, 47, 0
1, 96768, Tempo, 600000
1, 97920, Note_on_c, 0, 74, 100
1, 97920, Note_on_c, 1, 58, 100
1, 97920, Note_on_c, 1, 55, 100
1, 98176, Note_on_c, 1, 58, 0
1, 98176, Note_on_c, 1, 55, 0
1, 98304, Note_on_c, 1, 70, 100
1, 98304, Note_on_c, 1, 67, 100
1, 98432, Note_on_c, 0, 74, 0
1, 98560, Note_on_c, 1, 70, 0
1, 98560, Note_on_c, 1, 67, 0
1, 98664, Note_on_c, 0, 77, 100
1, 98680, Note_on_c, 0, 77, 0
1, 98688, Note_on_c, 0, 75, 100
1, 98688, Note_on_c, 1, 69, 100
1, 98688, Note_on_c, 1, 66, 100
1, 98944, Note_on_c, 0, 75, 0
1, 98944, Note_on_c, 1, 69, 0
1, 98944, Note_on_c, 1, 66, 0
1, 99072, Note_on_c, 0, 74, 100
1, 99072, Note_on_c, 1, 70, 100
1, 99072, Note_on_c, 1, 67, 100
1, 99200, Note_on_c, 0, 74, 0
1, 99264, Note_on_c, 0, 82, 100
1, 99328, Note_on_c, 1, 70, 0
1, 99328, Note_on_c, 1, 67, 0
1, 99392, Note_on_c, 0, 82, 0
1, 99456, Note_on_c, 0, 81, 100
1, 99584, Note_on_c, 0, 81, 0
1, 99648, Note_on_c, 0, 79, 100
1, 99776, Note_on_c, 0, 79, 0
1, 99840, Note_on_c, 0, 78, 100
1, 99968, Note_on_c, 0, 78, 0
1, 100032, Note_on_c, 0, 79, 100
1, 100160, Note_on_c, 0, 79, 0
1, 100224, Note_on_c, 0, 74, 100
1, 100224, Note_on_c, 1, 57, 100
1, 100224, Note_on_c, 1, 54, 100
1, 100480, Note_on_c, 1, 57, 0
1, 100480, Note_on_c, 1, 54, 0
1, 100608, Note_on_c, 1, 69, 100
1, 100608, Note_on_c, 1, 66, 100
1, 100736, Note_on_c, 0, 74, 0
1, 100864, Note_on_c, 1, 69, 0
1, 100864, Note_on_c, 1, 66, 0
1, 100968, Note_on_c, 0, 77, 100
1, 100984, Note_on_c, 0, 77, 0
1, 100992, Note_on_c, 0, 75, 100
1, 100992, Note_on_c, 1, 70, 100
1, 100992, Note_on_c, 1, 67, 100
1, 101248, Note_on_c, 0, 75, 0
1, 101248, Note_on_c, 1, 70, 0
1, 101248, Note_on_c, 1, 67, 0
1, 101376, Note_on_c, 0, 74, 100
1, 101376, Note_on_c, 1, 69, 100
1, 101376, Note_on_c, 1, 66, 100
1, 101504, Note_on_c, 0, 74, 0
1, 101568, Note_on_c, 0, 84, 100
1, 101632, Note_on_c, 1, 69, 0
1, 101632, Note_on_c, 1, 66, 0
1, 101696, Note_on_c, 0, 84, 0
1, 101760, Note_on_c, 0, 81, 100
1, 101888, Note_on_c, 0, 81, 0
1, 101952, Note_on_c, 0, 78, 100
1, 102080, Note_on_c, 0, 78, 0
1, 102144, Note_on_c, 0, 74, 100
1, 102272, Note_on_c, 0, 74, 0
1, 102336, Note_on_c, 0, 72, 100
1, 102464, Note_on_c, 0, 72, 0
1, 102528, Note_on_c, 0, 70, 100
1, 102544, Note_on_c, 0, 70, 0
1, 102552, Note_on_c, 0, 72, 100
1, 102568, Note_on_c, 0, 72, 0
1, 102576, Note_on_c, 0, 70, 100
1, 102592, Note_on_c, 0, 70, 0
1, 102600, Note_on_c, 0, 72, 100
1, 102616, Note_on_c, 0, 72, 0
1, 102624, Note_on_c, 0, 70, 100
1, 102640, Note_on_c, 0, 70, 0
1, 102648, Note_on_c, 0, 72, 100
1, 102664, Note_on_c, 0, 72, 0
1, 102672, Note_on_c, 0, 70, 100
1, 102688, Note_on_c, 0, 70, 0
1, 102696, Note_on_c, 0, 72, 100
1, 102712, Note_on_c, 0, 72, 0
1, 102720, Note_on_c, 0, 70, 100
1, 102736, Note_on_c, 0, 70, 0
1, 102744, Note_on_c, 0, 72, 100
1, 102760, Note_on_c, 0, 72, 0
1, 102768, Note_on_c, 0, 70, 100
1, 102784, Note_on_c, 0, 70, 0
1, 102792, Note_on_c, 0, 72, 100
1, 102808, Note_on_c, 0, 72, 0
1, 102816, Note_on_c, 0, 70, 100
1, 102832, Note_on_c, 0, 70, 0
1, 102840, Note_on_c, 0, 72, 100
1, 102856, Note_on_c, 0, 72, 0
1, 102864, Note_on_c, 0, 70, 100
1, 102880, Note_on_c, 0, 70, 0
1, 102888, Note_on_c, 0, 72, 100
1, 102904, Note_on_c, 0, 72, 0
1, 102912, Note_on_c, 0, 70, 100
1, 102912, Note_on_c, 1, 62, 100
1, 102912, Note_on_c, 1, 55, 100
1, 102928, Note_on_c, 0, 70, 0
1, 102936, Note_on_c, 0, 72, 100
1, 102952, Note_on_c, 0, 72, 0
1, 102960, Note_on_c, 0, 70, 100
1, 102976, Note_on_c, 0, 70, 0
1, 102984, Note_on_c, 0, 72, 100
1, 103000, Note_on_c, 0, 72, 0
1, 103008, Note_on_c, 0, 70, 100
1, 103024, Note_on_c, 0, 70, 0
1, 103032, Note_on_c, 0, 72, 100
1, 103048, Note_on_c, 0, 72, 0
1, 103056, Note_on_c, 0, 70, 100
1, 103072, Note_on_c, 0, 70, 0
1, 103080, Note_on_c, 0, 72, 100
1, 103096, Note_on_c, 0, 72, 0
1, 103104, Note_on_c, 0, 70, 100
1, 103120, Note_on_c, 0, 70, 0
1, 103128, Note_on_c, 0, 72, 100
1, 103144, Note_on_c, 0, 72, 0
1, 103152, Note_on_c, 0, 70, 100
1, 103168, Note_on_c, 0, 70, 0
1, 103168, Note_on_c, 1, 62, 0
1, 103168, Note_on_c, 1, 55, 0
1, 103176, Note_on_c, 0, 72, 100
1, 103192, Note_on_c, 0, 72, 0
1, 103200, Note_on_c, 0, 69, 100
1, 103232, Note_on_c, 0, 69, 0
1, 103248, Note_on_c, 0, 70, 100
1, 103280, Note_on_c, 0, 70, 0
1, 103296, Note_on_c, 0, 69, 100
1, 103296, Note_on_c, 1, 62, 100
1, 103296, Note_on_c, 1, 54, 100
1, 103552, Note_on_c, 0, 69, 0
1, 103552, Note_on_c, 1, 62, 0
1, 103552, Note_on_c, 1, 54, 0
1, 103680, Note_on_c, 0, 72, 100
1, 103696, Note_on_c, 0, 72, 0
1, 103704, Note_on_c, 0, 74, 100
1, 103720, Note_on_c, 0, 74, 0
1, 103728, Note_on_c, 0, 72, 100
1, 103744, Note_on_c, 0, 72, 0
1, 103752, Note_on_c, 0, 74, 100
1, 103768, Note_on_c, 0, 74, 0
1, 103776, Note_on_c, 0, 72, 100
1, 103792, Note_on_c, 0, 72, 0
1, 103800, Note_on_c, 0, 74, 100
1, 103816, Note_on_c, 0, 74, 0
1, 103824, Note_on_c, 0, 72, 100
1, 103840, Note_on_c, 0, 72, 0
1, 103848, Note_on_c, 0, 74, 100
1, 103864, Note_on_c, 0, 74, 0
1, 103872, Note_on_c, 0, 72, 100
1, 103888, Note_on_c, 0, 72, 0
1, 103896, Note_on_c, 0, 74, 100
1, 103912, Note_on_c, 0, 74, 0
1, 103920, Note_on_c, 0, 72, 100
1, 103936, Note_on_c, 0, 72, 0
1, 103944, Note_on_c, 0, 74, 100
1, 103960, Note_on_c, 0, 74, 0
1, 103968, Note_on_c, 0, 72, 100
1, 103984, Note_on_c, 0, 72, 0
1, 103992, Note_on_c, 0, 74, 100
1, 104008, Note_on_c, 0, 74, 0
1, 104016, Note_on_c, 0, 72, 100
1, 104032, Note_on_c, 0, 72, 0
1, 104040, Note_on_c, 0, 74, 100
1, 104056, Note_on_c, 0, 74, 0
1, 104064, Note_on_c, 0, 72, 100
1, 104064, Note_on_c, 1, 62, 100
1, 104064, Note_on_c, 1, 54, 100
1, 104080, Note_on_c, 0, 72, 0
1, 104088, Note_on_c, 0, 74, 100
1, 104104, Note_on_c, 0, 74, 0
1, 104112, Note_on_c, 0, 72, 100
1, 104128, Note_on_c, 0, 72, 0
1, 104136, Note_on_c, 0, 74, 100
1, 104152, Note_on_c, 0, 74, 0
1, 104160, Note_on_c, 0, 72, 100
1, 104176, Note_on_c, 0, 72, 0
1, 104184, Note_on_c, 0, 74, 100
1, 104200, Note_on_c, 0, 74, 0
1, 104208, Note_on_c, 0, 72, 100
1, 104224, Note_on_c, 0, 72, 0
1, 104232, Note_on_c, 0, 74, 100
1, 104248, Note_on_c, 0, 74, 0
1, 104256, Note_on_c, 0, 72, 100
1, 104272, Note_on_c, 0, 72, 0
1, 104280, Note_on_c, 0, 74, 100
1, 104296, Note_on_c, 0, 74, 0
1, 104304, Note_on_c, 0, 72, 100
1, 104320, Note_on_c, 0, 72, 0
1, 104320, Note_on_c, 1, 62, 0
1, 104320, Note_on_c, 1, 54, 0
1, 104328, Note_on_c, 0, 74, 100
1, 104344, Note_on_c, 0, 74, 0
1, 104352, Note_on_c, 0, 70, 100
1, 104384, Note_on_c, 0, 70, 0
1, 104400, Note_on_c, 0, 72, 100
1, 104432, Note_on_c, 0, 72, 0
1, 104448, Note_on_c, 0, 70, 100
1, 104448, Note_on_c, 1, 62, 100
1, 104448, Note_on_c, 1, 55, 100
1, 104704, Note_on_c, 0, 70, 0
1, 104704, Note_on_c, 1, 62, 0
1, 104704, Note_on_c, 1, 55, 0
1, 104832, Note_on_c, 0, 67, 100
1, 104832, Note_on_c, 1, 51, 100
1, 104960, Note_on_c, 0, 67, 0
1, 105024, Note_on_c, 0, 79, 100
1, 105088, Note_on_c, 1, 51, 0
1, 105152, Note_on_c, 0, 79, 0
1, 105216, Note_on_c, 0, 77, 100
1, 105344, Note_on_c, 0, 77, 0
1, 105408, Note_on_c, 0, 75, 100
1, 105536, Note_on_c, 0, 75, 0
1, 105600, Note_on_c, 0, 74, 100
1, 105600, Note_on_c, 1, 67, 100
1, 105600, Note_on_c, 1, 63, 100
1, 105728, Note_on_c, 0, 74, 0
1, 105792, Note_on_c, 0, 73, 100
1, 105856, Note_on_c, 1, 67, 0
1, 105856, Note_on_c, 1, 63, 0
1, 105920, Note_on_c, 0, 73, 0
1, 105984, Note_on_c, 0, 73, 100
1, 105984, Note_on_c, 1, 67, 100
1, 105984, Note_on_c, 1, 62, 100
1, 106496, Note_on_c, 0, 73, 0
1, 106496, Note_on_c, 1, 67, 0
1, 106496, Note_on_c, 1, 62, 0
1, 106752, Note_on_c, 0, 74, 100
1, 106752, Note_on_c, 1, 66, 100
1, 107008, Note_on_c, 0, 74, 0
1, 107008, Note_on_c, 1, 66, 0
1, 107136, Note_on_c, 0, 74, 100
1, 107136, Note_on_c, 1, 58, 100
1, 107136, Note_on_c, 1, 55, 100
1, 107392, Note_on_c, 1, 58, 0
1, 107392, Note_on_c, 1, 55, 0
1, 107520, Note_on_c, 1, 70, 100
1, 107520, Note_on_c, 1, 67, 100
1, 107648, Note_on_c, 0, 74, 0
1, 107776, Note_on_c, 1, 70, 0
1, 107776, Note_on_c, 1, 67, 0
1, 107880, Note_on_c, 0, 77, 100
1, 107896, Note_on_c, 0, 77, 0
1, 107904, Note_on_c, 0, 75, 100
1, 107904, Note_on_c, 1, 69, 100
1, 107904, Note_on_c, 1, 66, 100
1, 108160, Note_on_c, 0, 75, 0
1, 108160, Note_on_c, 1, 69, 0
1, 108160, Note_on_c, 1, 66, 0
1, 108288, Note_on_c, 0, 74, 100
1, 108288, Note_on_c, 1, 70, 100
1, 108288, Note_on_c, 1, 67, 100
1, 108416, Note_on_c, 0, 74, 0
1, 108480, Note_on_c, 0, 82, 100
1, 108544, Note_on_c, 1, 70, 0
1, 108544, Note_on_c, 1, 67, 0
1, 108608, Note_on_c, 0, 82, 0
1, 108672, Note_on_c, 0, 81, 100
1, 108800, Note_on_c, 0, 81, 0
1, 108864, Note_on_c, 0, 79, 100
1, 108992, Note_on_c, 0, 79, 0
1, 109056, Note_on_c, 0, 78, 100
1, 109184, Note_on_c, 0, 78, 0
1, 109248, Note_on_c, 0, 79, 100
1, 109376, Note_on_c, 0, 79, 0
1, 109440, Note_on_c, 0, 74, 100
1, 109440, Note_on_c, 1, 57, 100
1, 109440, Note_on_c, 1, 54, 100
1, 109696, Note_on_c, 1, 57, 0
1, 109696, Note_on_c, 1, 54, 0
1, 109824, Note_on_c, 1, 69, 100
1, 109824, Note_on_c, 1, 66, 100
1, 109952, Note_on_c, 0, 74, 0
1, 110080, Note_on_c, 1, 69, 0
1, 110080, Note_on_c, 1, 66, 0
1, 110184, Note_on_c, 0, 77, 100
1, 110200, Note_on_c, 0, 77, 0
1, 110208, Note_on_c, 0, 75, 100
1, 110208, Note_on_c, 1, 70, 100
1, 110208, Note_on_c, 1, 67, 100
1, 110464, Note_on_c, 0, 75, 0
1, 110464, Note_on_c, 1, 70, 0
1, 110464, Note_on_c, 1, 67, 0
1, 110592, Note_on_c, 0, 74, 100
1, 110592, Note_on_c, 1, 69, 100
1, 110592, Note_on_c, 1, 66, 100
1, 110720, Note_on_c, 0, 74, 0
1, 110784, Note_on_c, 0, 84, 100
1, 110848, Note_on_c, 1, 69, 0
1, 110848, Note_on_c, 1, 66, 0
1, 110912, Note_on_c, 0, 84, 0
1, 110976, Note_on_c, 0, 81, 100
1, 111104, Note_on_c, 0, 81, 0
1, 111168, Note_on_c, 0, 78, 100
1, 111296, Note_on_c, 0, 78, 0
1, 111360, Note_on_c, 0, 74, 100
1, 111488, Note_on_c, 0, 74, 0
1, 111552, Note_on_c, 0, 72, 100
1, 111680, Note_on_c, 0, 72, 0
1, 111744, Note_on_c, 0, 70, 100
1, 111760, Note_on_c, 0, 70, 0
1, 111768, Note_on_c, 0, 72, 100
1, 111784, Note_on_c, 0, 72, 0
1, 111792, Note_on_c, 0, 70, 100
1, 111808, Note_on_c, 0, 70, 0
1, 111816, Note_on_c, 0, 72, 100
1, 111832, Note_on_c, 0, 72, 0
1, 111840, Note_on_c, 0, 70, 100
1, 111856, Note_on_c, 0, 70, 0
1, 111864, Note_on_c, 0, 72, 100
1, 111880, Note_on_c, 0, 72, 0
1, 111888, Note_on_c, 0, 70, 100
1, 111904, Note_on_c, 0, 70, 0
1, 111912, Note_on_c, 0, 72, 100
1, 111928, Note_on_c, 0, 72, 0
1, 111936, Note_on_c, 0, 70, 100
1, 111952, Note_on_c, 0, 70, 0
1, 111960, Note_on_c, 0, 72, 100
1, 111976, Note_on_c, 0, 72, 0
1, 111984, Note_on_c, 0, 70, 100
1, 112000, Note_on_c, 0, 70, 0
1, 112008, Note_on_c, 0, 72, 100
1, 112024, Note_on_c, 0, 72, 0
1, 112032, Note_on_c, 0, 70, 100
1, 112048, Note_on_c, 0, 70, 0
1, 112056, Note_on_c, 0, 72, 100
1, 112072, Note_on_c, 0, 72, 0
1, 112080, Note_on_c, 0, 70, 100
1, 112096, Note_on_c, 0, 70, 0
1, 112104, Note_on_c, 0, 72, 100
1, 112120, Note_on_c, 0, 72, 0
1, 112128, Note_on_c, 0, 70, 100
1, 112128, Note_on_c, 1, 62, 100
1, 112128, Note_on_c, 1, 55, 100
1, 112144, Note_on_c, 0, 70, 0
1, 112152, Note_on_c, 0, 72, 100
1, 112168, Note_on_c, 0, 72, 0
1, 112176, Note_on_c, 0, 70, 100
1, 112192, Note_on_c, 0, 70, 0
1, 112200, Note_on_c, 0, 72, 100
1, 112216, Note_on_c, 0, 72, 0
1, 112224, Note_on_c, 0, 70, 100
1, 112240, Note_on_c, 0, 70, 0
1, 112248, Note_on_c, 0, 72, 100
1, 112264, Note_on_c, 0, 72, 0
1, 112272, Note_on_c, 0, 70, 100
1, 112288, Note_on_c, 0, 70, 0
1, 112296, Note_on_c, 0, 72, 100
1, 112312, Note_on_c, 0, 72, 0
1, 112320, Note_on_c, 0, 70, 100
1, 112336, Note_on_c, 0, 70, 0
1, 112344, Note_on_c, 0, 72, 100
1, 112360, Note_on_c, 0, 72, 0
1, 112368, Note_on_c, 0, 70, 100
1, 112384, Note_on_c, 0, 70, 0
1, 112384, Note_on_c, 1, 62, 0
1, 112384, Note_on_c, 1, 55, 0
1, 112392, Note_on_c, 0, 72, 100
1, 112408, Note_on_c, 0, 72, 0
1, 112416, Note_on_c, 0, 69, 100
1, 112448, Note_on_c, 0, 69, 0
1, 112464, Note_on_c, 0, 70, 100
1, 112496, Note_on_c, 0, 70, 0
1, 112512, Note_on_c, 0, 69, 100
1, 112512, Note_on_c, 1, 62, 100
1, 112512, Note_on_c, 1, 54, 100
1, 112768, Note_on_c, 0, 69, 0
1, 112768, Note_on_c, 1, 62, 0
1, 112768, Note_on_c, 1, 54, 0
1, 112896, Note_on_c, 0, 72, 100
1, 112912, Note_on_c, 0, 72, 0
1, 112920, Note_on_c, 0, 74, 100
1, 112936, Note_on_c, 0, 74, 0
1, 112944, Note_on_c, 0, 72, 100
1, 112960, Note_on_c, 0, 72, 0
1, 112968, Note_on_c, 0, 74, 100
1, 112984, Note_on_c, 0, 74, 0
1, 112992, Note_on_c, 0, 72, 100
1, 113008, Note_on_c, 0, 72, 0
1, 113016, Note_on_c, 0, 74, 100
1, 113032, Note_on_c, 0, 74, 0
1, 113040, Note_on_c, 0, 72, 100
1, 113056, Note_on_c, 0, 72, 0
1, 113064, Note_on_c, 0, 74, 100
1, 113080, Note_on_c, 0, 74, 0
1, 113088, Note_on_c, 0, 72, 100
1, 113104, Note_on_c, 0, 72, 0
1, 113112, Note_on_c, 0, 74, 100
1, 113128, Note_on_c, 0, 74, 0
1, 113136, Note_on_c, 0, 72, 100
1, 113152, Note_on_c, 0, 72, 0
1, 113160, Note_on_c, 0, 74, 100
1, 113176, Note_on_c, 0, 74, 0
1, 113184, Note_on_c, 0, 72, 100
1, 113200, Note_on_c, 0, 72, 0
1, 113208, Note_on_c, 0, 74, 100
1, 113224, Note_on_c, 0, 74, 0
1, 113232, Note_on_c, 0, 72, 100
1, 113248, Note_on_c, 0, 72, 0
1, 113256, Note_on_c, 0, 74, 100
1, 113272, Note_on_c, 0, 74, 0
1, 113280, Note_on_c, 0, 72, 100
1, 113280, Note_on_c, 1, 62, 100
1, 113280, Note_on_c, 1, 54, 100
1, 113296, Note_on_c, 0, 72, 0
1, 113304, Note_on_c, 0, 74, 100
1, 113320, Note_on_c, 0, 74, 0
1, 113328, Note_on_c, 0, 72, 100
1, 113344, Note_on_c, 0, 72, 0
1, 113352, Note_on_c, 0, 74, 100
1, 113368, Note_on_c, 0, 74, 0
1, 113376, Note_on_c, 0, 72, 100
1, 113392, Note_on_c, 0, 72, 0
1, 113400, Note_on_c, 0, 74, 100
1, 113416, Note_on_c, 0, 74, 0
1, 113424, Note_on_c, 0, 72, 100
1, 113440, Note_on_c, 0, 72, 0
1, 113448, Note_on_c, 0, 74, 100
1, 113464, Note_on_c, 0, 74, 0
1, 113472, Note_on_c, 0, 72, 100
1, 113488, Note_on_c, 0, 72, 0
1, 113496, Note_on_c, 0, 74, 100
1, 113512, Note_on_c, 0, 74, 0
1, 113520, Note_on_c, 0, 72, 100
1, 113536, Note_on_c, 0, 72, 0
1, 113536, Note_on_c, 1, 62, 0
1, 113536, Note_on_c, 1, 54, 0
1, 113544, Note_on_c, 0, 74, 100
1, 113560, Note_on_c, 0, 74, 0
1, 113568, Note_on_c, 0, 70, 100
1, 113600, Note_on_c, 0, 70, 0
1, 113616, Note_on_c, 0, 72, 100
1, 113648, Note_on_c, 0, 72, 0
1, 113664, Note_on_c, 0, 70, 100
1, 113664, Note_on_c, 1, 62, 100
1, 113664, Note_on_c, 1, 55, 100
1, 113920, Note_on_c, 0, 70, 0
1, 113920, Note_on_c, 1, 62, 0
1, 113920, Note_on_c, 1, 55, 0
1, 114048, Note_on_c, 0, 67, 100
1, 114048, Note_on_c, 1, 51, 100
1, 114176, Note_on_c, 0, 67, 0
1, 114240, Note_on_c, 0, 79, 100
1, 114304, Note_on_c, 1, 51, 0
1, 114368, Note_on_c, 0, 79, 0
1, 114432, Note_on_c, 0, 77, 100
1, 114560, Note_on_c, 0, 77, 0
1, 114624, Note_on_c, 0, 75, 100
1, 114752, Note_on_c, 0, 75, 0
1, 114816, Note_on_c, 0, 74, 100
1, 114816, Note_on_c, 1, 67, 100
1, 114816, Note_on_c, 1, 63, 100
1, 114944, Note_on_c, 0, 74, 0
1, 115008, Note_on_c, 0, 73, 100
1, 115072, Note_on_c, 1, 67, 0
1, 115072, Note_on_c, 1, 63, 0
1, 115136, Note_on_c, 0, 73, 0
1, 115200, Note_on_c, 0, 73, 100
1, 115200, Note_on_c, 1, 67, 100
1, 115200, Note_on_c, 1, 62, 100
1, 115712, Note_on_c, 0, 73, 0
1, 115712, Note_on_c, 1, 67, 0
1, 115712, Note_on_c, 1, 62, 0
1, 115968, Note_on_c, 0, 74, 100
1, 115968, Note_on_c, 1, 66, 100
1, 116224, Note_on_c, 0, 74, 0
1, 116224, Note_on_c, 1, 66, 0
1, 116352, Note_on_c, 0, 62, 100
1, 116352, Note_on_c, 0, 65, 100
1, 116352, Note_on_c, 1, 46, 100
1, 116480, Note_on_c, 1, 46, 0
1, 116544, Note_on_c, 1, 58, 100
1, 116672, Note_on_c, 1, 58, 0
1, 116736, Note_on_c, 1, 46, 100
1, 116864, Note_on_c, 0, 62, 0
1, 116864, Note_on_c, 0, 65, 0
1, 116864, Note_on_c, 1, 46, 0
1, 116928, Note_on_c, 1, 58, 100
1, 117056, Note_on_c, 1, 58, 0
1, 117096, Note_on_c, 0, 69, 100
1, 117112, Note_on_c, 0, 69, 0
1, 117120, Note_on_c, 0, 67, 100
1, 117120, Note_on_c, 0, 63, 100
1, 117120, Note_on_c, 1, 46, 100
1, 117248, Note_on_c, 1, 46, 0
1, 117312, Note_on_c, 1, 58, 100
1, 117376, Note_on_c, 0, 67, 0
1, 117376, Note_on_c, 0, 63, 0
1, 117440, Note_on_c, 1, 58, 0
1, 117504, Note_on_c, 0, 65, 100
1, 117504, Note_on_c, 0, 62, 100
1, 117504, Note_on_c, 1, 46, 100
1, 117632, Note_on_c, 1, 46, 0
1, 117696, Note_on_c, 1, 58, 100
1, 117760, Note_on_c, 0, 65, 0
1, 117760, Note_on_c, 0, 62, 0
1, 117824, Note_on_c, 1, 58, 0
1, 117888, Note_on_c, 1, 46, 100
1, 118016, Note_on_c, 1, 46, 0
1, 118080, Note_on_c, 1, 58, 100
1, 118208, Note_on_c, 1, 58, 0
1, 118248, Note_on_c, 0, 77, 100
1, 118264, Note_on_c, 0, 77, 0
1, 118272, Note_on_c, 0, 75, 100
1, 118272, Note_on_c, 0, 69, 100
1, 118272, Note_on_c, 1, 46, 100
1, 118400, Note_on_c, 1, 46, 0
1, 118464, Note_on_c, 1, 58, 100
1, 118528, Note_on_c, 0, 75, 0
1, 118528, Note_on_c, 0, 69, 0
1, 118592, Note_on_c, 1, 58, 0
1, 118656, Note_on_c, 0, 74, 100
1, 118656, Note_on_c, 0, 70, 100
1, 118656, Note_on_c, 1, 46, 100
1, 118784, Note_on_c, 1, 46, 0
1, 118848, Note_on_c, 1, 58, 100
1, 118912, Note_on_c, 0, 74, 0
1, 118912, Note_on_c, 0, 70, 0
1, 118976, Note_on_c, 1, 58, 0
1, 119040, Note_on_c, 1, 46, 100
1, 119168, Note_on_c, 1, 46, 0
1, 119232, Note_on_c, 1, 58, 100
1, 119360, Note_on_c, 1, 58, 0
1, 119400, Note_on_c, 0, 81, 100
1, 119416, Note_on_c, 0, 81, 0
1, 119424, Note_on_c, 0, 79, 100
1, 119424, Note_on_c, 0, 75, 100
1, 119424, Note_on_c, 1, 46, 100
1, 119552, Note_on_c, 1, 46, 0
1, 119616, Note_on_c, 1, 58, 100
1, 119680, Note_on_c, 0, 79, 0
1, 119680, Note_on_c, 0, 75, 0
1, 119744, Note_on_c, 1, 58, 0
1, 119808, Note_on_c, 0, 77, 100
1, 119808, Note_on_c, 0, 74, 100
1, 119808, Note_on_c, 1, 46, 100
1, 119936, Note_on_c, 1, 46, 0
1, 120000, Note_on_c, 1, 58, 100
1, 120064, Note_on_c, 0, 77, 0
1, 120064, Note_on_c, 0, 74, 0
1, 120128, Note_on_c, 1, 58, 0
1, 120192, Note_on_c, 1, 46, 100
1, 120320, Note_on_c, 1, 46, 0
1, 120384, Note_on_c, 1, 58, 100
1, 120512, Note_on_c, 1, 58, 0
1, 120576, Note_on_c, 0, 82, 100
1, 120576, Note_on_c, 1, 58, 100
1, 120576, Note_on_c, 1, 50, 100
1, 120704, Note_on_c, 0, 82, 0
1, 120768, Note_on_c, 0, 81, 100
1, 120832, Note_on_c, 1, 58, 0
1, 120832, Note_on_c, 1, 50, 0
1, 120896, Note_on_c, 0, 81, 0
1, 120960, Note_on_c, 0, 81, 100
1, 120960, Note_on_c, 1, 51, 100
1, 120960, Note_on_c, 1, 58, 100
1, 121088, Note_on_c, 0, 81, 0
1, 121152, Note_on_c, 0, 79, 100
1, 121216, Note_on_c, 1, 51, 0
1, 121280, Note_on_c, 0, 79, 0
1, 121344, Note_on_c, 0, 79, 100
1, 121344, Note_on_c, 1, 55, 100
1, 121472, Note_on_c, 0, 79, 0
1, 121536, Note_on_c, 0, 77, 100
1, 121600, Note_on_c, 1, 55, 0
1, 121664, Note_on_c, 0, 77, 0
1, 121728, Note_on_c, 0, 77, 100
1, 121728, Note_on_c, 1, 58, 100
1, 121856, Note_on_c, 0, 77, 0
1, 121920, Note_on_c, 0, 75, 100
1, 121984, Note_on_c, 1, 58, 0
1, 121988, Note_on_c, 1, 58, 0
1, 122048, Note_on_c, 0, 75, 0
1, 122112, Note_on_c, 0, 75, 100
1, 122112, Note_on_c, 1, 57, 100
1, 122144, Note_on_c, 0, 75, 0
1, 122160, Note_on_c, 0, 77, 100
1, 122192, Note_on_c, 0, 77, 0
1, 122208, Note_on_c, 0, 75, 100
1, 122240, Note_on_c, 0, 75, 0
1, 122256, Note_on_c, 0, 74, 100
1, 122288, Note_on_c, 0, 74, 0
1, 122304, Note_on_c, 0, 75, 100
1, 122496, Note_on_c, 1, 65, 100
1, 122816, Note_on_c, 0, 75, 0
1, 122856, Note_on_c, 0, 77, 100
1, 122872, Note_on_c, 0, 77, 0
1, 122880, Note_on_c, 0, 75, 100
1, 122880, Note_on_c, 1, 58, 100
1, 123008, Note_on_c, 0, 75, 0
1, 123008, Note_on_c, 1, 65, 0
1, 123072, Note_on_c, 0, 74, 100
1, 123136, Note_on_c, 1, 58, 0
1, 123140, Note_on_c, 1, 57, 0
1, 123200, Note_on_c, 0, 74, 0
1, 123240, Note_on_c, 0, 75, 100
1, 123256, Note_on_c, 0, 75, 0
1, 123264, Note_on_c, 0, 74, 100
1, 123264, Note_on_c, 1, 63, 100
1, 123264, Note_on_c, 1, 51, 100
1, 123392, Note_on_c, 0, 74, 0
1, 123456, Note_on_c, 0, 72, 100
1, 123520, Note_on_c, 1, 63, 0
1, 123520, Note_on_c, 1, 51, 0
1, 123584, Note_on_c, 0, 72, 0
1, 123624, Note_on_c, 0, 74, 100
1, 123640, Note_on_c, 0, 74, 0
1, 123648, Note_on_c, 0, 72, 100
1, 123648, Note_on_c, 1, 62, 100
1, 123648, Note_on_c, 1, 53, 100
1, 123776, Note_on_c, 0, 72, 0
1, 123840, Note_on_c, 0, 70, 100
1, 123904, Note_on_c, 1, 62, 0
1, 123904, Note_on_c, 1, 53, 0
1, 123968, Note_on_c, 0, 70, 0
1, 124008, Note_on_c, 0, 72, 100
1, 124024, Note_on_c, 0, 72, 0
1, 124032, Note_on_c, 0, 70, 100
1, 124032, Note_on_c, 1, 60, 100
1, 124032, Note_on_c, 1, 53, 100
1, 124160, Note_on_c, 0, 70, 0
1, 124224, Note_on_c, 0, 69, 100
1, 124288, Note_on_c, 1, 60, 0
1, 124288, Note_on_c, 1, 53, 0
1, 124352, Note_on_c, 0, 69, 0
1, 124392, Note_on_c, 0, 69, 100
1, 124408, Note_on_c, 0, 69, 0
1, 124416, Note_on_c, 0, 70, 100
1, 124416, Note_on_c, 1, 58, 100
1, 124672, Note_on_c, 1, 58, 0
1, 124800, Note_on_c, 1, 62, 100
1, 124928, Note_on_c, 0, 70, 0
1, 124928, Note_on_c, 1, 62, 0
1, 124992, Note_on_c, 1, 60, 100
1, 125120, Note_on_c, 1, 60, 0
1, 125184, Note_on_c, 1, 58, 100
1, 125312, Note_on_c, 1, 58, 0
1, 125376, Note_on_c, 1, 57, 100
1, 125504, Note_on_c, 1, 57, 0
1, 125568, Note_on_c, 0, 74, 100
1, 125568, Note_on_c, 1, 58, 100
1, 125568, Note_on_c, 1, 55, 100
1, 125824, Note_on_c, 1, 58, 0
1, 125824, Note_on_c, 1, 55, 0
1, 125952, Note_on_c, 1, 70, 100
1, 125952, Note_on_c, 1, 67, 100
1, 126080, Note_on_c, 0, 74, 0
1, 126208, Note_on_c, 1, 70, 0
1, 126208, Note_on_c, 1, 67, 0
1, 126312, Note_on_c, 0, 77, 100
1, 126328, Note_on_c, 0, 77, 0
1, 126336, Note_on_c, 0, 75, 100
1, 126336, Note_on_c, 1, 69, 100
1, 126336, Note_on_c, 1, 66, 100
1, 126592, Note_on_c, 0, 75, 0
1, 126592, Note_on_c, 1, 69, 0
1, 126592, Note_on_c, 1, 66, 0
1, 126720, Note_on_c, 0, 74, 100
1, 126720, Note_on_c, 1, 70, 100
1, 126720, Note_on_c, 1, 67, 100
1, 126848, Note_on_c, 0, 74, 0
1, 126912, Note_on_c, 0, 82, 100
1, 126976, Note_on_c, 1, 70, 0
1, 126976, Note_on_c, 1, 67, 0
1, 127040, Note_on_c, 0, 82, 0
1, 127104, Note_on_c, 0, 81, 100
1, 127232, Note_on_c, 0, 81, 0
1, 127296, Note_on_c, 0, 79, 100
1, 127424, Note_on_c, 0, 79, 0
1, 127488, Note_on_c, 0, 78, 100
1, 127616, Note_on_c, 0, 78, 0
1, 127680, Note_on_c, 0, 79, 100
1, 127808, Note_on_c, 0, 79, 0
1, 127872, Note_on_c, 0, 74, 100
1, 127872, Note_on_c, 1, 57, 100
1, 127872, Note_on_c, 1, 54, 100
1, 128128, Note_on_c, 1, 57, 0
1, 128128, Note_on_c, 1, 54, 0
1, 128256, Note_on_c, 1, 69, 100
1, 128256, Note_on_c, 1, 66, 100
1, 128384, Note_on_c, 0, 74, 0
1, 128512, Note_on_c, 1, 69, 0
1, 128512, Note_on_c, 1, 66, 0
1, 128616, Note_on_c, 0, 77, 100
1, 128632, Note_on_c, 0, 77, 0
1, 128640, Note_on_c, 0, 75, 100
1, 128640, Note_on_c, 1, 70, 100
1, 128640, Note_on_c, 1, 67, 100
1, 128896, Note_on_c, 0, 75, 0
1, 128896, Note_on_c, 1, 70, 0
1, 128896, Note_on_c, 1, 67, 0
1, 129024, Note_on_c, 0, 74, 100
1, 129024, Note_on_c, 1, 69, 100
1, 129024, Note_on_c, 1, 66, 100
1, 129152, Note_on_c, 0, 74, 0
1, 129216, Note_on_c, 0, 84, 100
1, 129280, Note_on_c, 1, 69, 0
1, 129280, Note_on_c, 1, 66, 0
1, 129344, Note_on_c, 0, 84, 0
1, 129408, Note_on_c, 0, 81, 100
1, 129536, Note_on_c, 0, 81, 0
1, 129600, Note_on_c, 0, 78, 100
1, 129728, Note_on_c, 0, 78, 0
1, 129792, Note_on_c, 0, 74, 100
1, 129920, Note_on_c, 0, 74, 0
1, 129984, Note_on_c, 0, 72, 100
1, 130112, Note_on_c, 0, 72, 0
1, 130176, Note_on_c, 0, 70, 100
1, 130192, Note_on_c, 0, 70, 0
1, 130200, Note_on_c, 0, 72, 100
1, 130216, Note_on_c, 0, 72, 0
1, 130224, Note_on_c, 0, 70, 100
1, 130240, Note_on_c, 0, 70, 0
1, 130248, Note_on_c, 0, 72, 100
1, 130264, Note_on_c, 0, 72, 0
1, 130272, Note_on_c, 0, 70, 100
1, 130288, Note_on_c, 0, 70, 0
1, 130296, Note_on_c, 0, 72, 100
1, 130312, Note_on_c, 0, 72, 0
1, 130320, Note_on_c, 0, 70, 100
1, 130336, Note_on_c, 0, 70, 0
1, 130344, Note_on_c, 0, 72, 100
1, 130360, Note_on_c, 0, 72, 0
1, 130368, Note_on_c, 0, 70, 100
1, 130384, Note_on_c, 0, 70, 0
1, 130392, Note_on_c, 0, 72, 100
1, 130408, Note_on_c, 0, 72, 0
1, 130416, Note_on_c, 0, 70, 100
1, 130432, Note_on_c, 0, 70, 0
1, 130440, Note_on_c, 0, 72, 100
1, 130456, Note_on_c, 0, 72, 0
1, 130464, Note_on_c, 0, 70, 100
1, 130480, Note_on_c, 0, 70, 0
1, 130488, Note_on_c, 0, 72, 100
1, 130504, Note_on_c, 0, 72, 0
1, 130512, Note_on_c, 0, 70, 100
1, 130528, Note_on_c, 0, 70, 0
1, 130536, Note_on_c, 0, 72, 100
1, 130552, Note_on_c, 0, 72, 0
1, 130560, Note_on_c, 0, 70, 100
1, 130560, Note_on_c, 1, 62, 100
1, 130560, Note_on_c, 1, 55, 100
1, 130576, Note_on_c, 0, 70, 0
1, 130584, Note_on_c, 0, 72, 100
1, 130600, Note_on_c, 0, 72, 0
1, 130608, Note_on_c, 0, 70, 100
1, 130624, Note_on_c, 0, 70, 0
1, 130632, Note_on_c, 0, 72, 100
1, 130648, Note_on_c, 0, 72, 0
1, 130656, Note_on_c, 0, 70, 100
1, 130672, Note_on_c, 0, 70, 0
1, 130680, Note_on_c, 0, 72, 100
1, 130696, Note_on_c, 0, 72, 0
1, 130704, Note_on_c, 0, 70, 100
1, 130720, Note_on_c, 0, 70, 0
1, 130728, Note_on_c, 0, 72, 100
1, 130744, Note_on_c, 0, 72, 0
1, 130752, Note_on_c, 0, 70, 100
1, 130768, Note_on_c, 0, 70, 0
1, 130776, Note_on_c, 0, 72, 100
1, 130792, Note_on_c, 0, 72, 0
1, 130800, Note_on_c, 0, 70, 100
1, 130816, Note_on_c, 0, 70, 0
1, 130816, Note_on_c, 1, 62, 0
1, 130816, Note_on_c, 1, 55, 0
1, 130824, Note_on_c, 0, 72, 100
1, 130840, Note_on_c, 0, 72, 0
1, 130848, Note_on_c, 0, 69, 100
1, 130880, Note_on_c, 0, 69, 0
1, 130896, Note_on_c, 0, 70, 100
1, 130928, Note_on_c, 0, 70, 0
1, 130944, Note_on_c, 0, 69, 100
1, 130944, Note_on_c, 1, 62, 100
1, 130944, Note_on_c, 1, 54, 100
1, 131200, Note_on_c, 0, 69, 0
1, 131200, Note_on_c, 1, 62, 0
1, 131200, Note_on_c, 1, 54, 0
1, 131328, Note_on_c, 0, 72, 100
1, 131344, Note_on_c, 0, 72, 0
1, 131352, Note_on_c, 0, 74, 100
1, 131368, Note_on_c, 0, 74, 0
1, 131376, Note_on_c, 0, 72, 100
1, 131392, Note_on_c, 0, 72, 0
1, 131400, Note_on_c, 0, 74, 100
1, 131416, Note_on_c, 0, 74, 0
1, 131424, Note_on_c, 0, 72, 100
1, 131440, Note_on_c, 0, 72, 0
1, 131448, Note_on_c, 0, 74, 100
1, 131464, Note_on_c, 0, 74, 0
1, 131472, Note_on_c, 0, 72, 100
1, 131488, Note_on_c, 0, 72, 0
1, 131496, Note_on_c, 0, 74, 100
1, 131512, Note_on_c, 0, 74, 0
1, 131520, Note_on_c, 0, 72, 100
1, 131536, Note_on_c, 0, 72, 0
1, 131544, Note_on_c, 0, 74, 100
1, 131560, Note_on_c, 0, 74, 0
1, 131568, Note_on_c, 0, 72, 100
1, 131584, Note_on_c, 0, 72, 0
1, 131592, Note_on_c, 0, 74, 100
1, 131608, Note_on_c, 0, 74, 0
1, 131616, Note_on_c, 0, 72, 100
1, 131632, Note_on_c, 0, 72, 0
1, 131640, Note_on_c, 0, 74, 100
1, 131656, Note_on_c, 0, 74, 0
1, 131664, Note_on_c, 0, 72, 100
1, 131680, Note_on_c, 0, 72, 0
1, 131688, Note_on_c, 0, 74, 100
1, 131704, Note_on_c, 0, 74, 0
1, 131712, Note_on_c, 0, 72, 100
1, 131712, Note_on_c, 1, 62, 100
1, 131712, Note_on_c, 1, 54, 100
1, 131728, Note_on_c, 0, 72, 0
1, 131736, Note_on_c, 0, 74, 100
1, 131752, Note_on_c, 0, 74, 0
1, 131760, Note_on_c, 0, 72, 100
1, 131776, Note_on_c, 0, 72, 0
1, 131784, Note_on_c, 0, 74, 100
1, 131800, Note_on_c, 0, 74, 0
1, 131808, Note_on_c, 0, 72, 100
1, 131824, Note_on_c, 0, 72, 0
1, 131832, Note_on_c, 0, 74, 100
1, 131848, Note_on_c, 0, 74, 0
1, 131856, Note_on_c, 0, 72, 100
1, 131872, Note_on_c, 0, 72, 0
1, 131880, Note_on_c, 0, 74, 100
1, 131896, Note_on_c, 0, 74, 0
1, 131904, Note_on_c, 0, 72, 100
1, 131920, Note_on_c, 0, 72, 0
1, 131928, Note_on_c, 0, 74, 100
1, 131944, Note_on_c, 0, 74, 0
1, 131952, Note_on_c, 0, 72, 100
1, 131968, Note_on_c, 0, 72, 0
1, 131968, Note_on_c, 1, 62, 0
1, 131968, Note_on_c, 1, 54, 0
1, 131976, Note_on_c, 0, 74, 100
1, 131992, Note_on_c, 0, 74, 0
1, 132000, Note_on_c, 0, 70, 100
1, 132032, Note_on_c, 0, 70, 0
1, 132048, Note_on_c, 0, 72, 100
1, 132080, Note_on_c, 0, 72, 0
1, 132096, Note_on_c, 0, 70, 100
1, 132096, Note_on_c, 1, 62, 100
1, 132096, Note_on_c, 1, 55, 100
1, 132352, Note_on_c, 0, 70, 0
1, 132352, Note_on_c, 1, 62, 0
1, 132352, Note_on_c, 1, 55, 0
1, 132480, Note_on_c, 0, 70, 100
1, 132480, Note_on_c, 1, 60, 100
1, 132480, Note_on_c, 1, 48, 100
1, 132496, Note_on_c, 0, 70, 0
1, 132504, Note_on_c, 0, 72, 100
1, 132520, Note_on_c, 0, 72, 0
1, 132528, Note_on_c, 0, 70, 100
1, 132544, Note_on_c, 0, 70, 0
1, 132552, Note_on_c, 0, 72, 100
1, 132568, Note_on_c, 0, 72, 0
1, 132576, Note_on_c, 0, 70, 100
1, 132592, Note_on_c, 0, 70, 0
1, 132600, Note_on_c, 0, 72, 100
1, 132616, Note_on_c, 0, 72, 0
1, 132624, Note_on_c, 0, 70, 100
1, 132640, Note_on_c, 0, 70, 0
1, 132648, Note_on_c, 0, 72, 100
1, 132664, Note_on_c, 0, 72, 0
1, 132672, Note_on_c, 0, 69, 100
1, 132736, Note_on_c, 1, 60, 0
1, 132736, Note_on_c, 1, 48, 0
1, 132800, Note_on_c, 0, 69, 0
1, 132864, Note_on_c, 0, 69, 100
1, 132864, Note_on_c, 1, 58, 100
1, 132864, Note_on_c, 1, 50, 100
1, 132880, Note_on_c, 0, 69, 0
1, 132888, Note_on_c, 0, 70, 100
1, 132904, Note_on_c, 0, 70, 0
1, 132912, Note_on_c, 0, 69, 100
1, 132928, Note_on_c, 0, 69, 0
1, 132936, Note_on_c, 0, 70, 100
1, 132952, Note_on_c, 0, 70, 0
1, 132960, Note_on_c, 0, 69, 100
1, 132976, Note_on_c, 0, 69, 0
1, 132984, Note_on_c, 0, 70, 100
1, 133000, Note_on_c, 0, 70, 0
1, 133008, Note_on_c, 0, 69, 100
1, 133024, Note_on_c, 0, 69, 0
1, 133032, Note_on_c, 0, 70, 100
1, 133048, Note_on_c, 0, 70, 0
1, 133056, Note_on_c, 0, 67, 100
1, 133120, Note_on_c, 1, 58, 0
1, 133120, Note_on_c, 1, 50, 0
1, 133184, Note_on_c, 0, 67, 0
1, 133248, Note_on_c, 0, 67, 100
1, 133248, Note_on_c, 1, 57, 100
1, 133248, Note_on_c, 1, 50, 100
1, 133264, Note_on_c, 0, 67, 0
1, 133272, Note_on_c, 0, 69, 100
1, 133288, Note_on_c, 0, 69, 0
1, 133296, Note_on_c, 0, 67, 100
1, 133312, Note_on_c, 0, 67, 0
1, 133320, Note_on_c, 0, 69, 100
1, 133336, Note_on_c, 0, 69, 0
1, 133344, Note_on_c, 0, 67, 100
1, 133360, Note_on_c, 0, 67, 0
1, 133368, Note_on_c, 0, 69, 100
1, 133384, Note_on_c, 0, 69, 0
1, 133392, Note_on_c, 0, 67, 100
1, 133408, Note_on_c, 0, 67, 0
1, 133416, Note_on_c, 0, 69, 100
1, 133432, Note_on_c, 0, 69, 0
1, 133440, Note_on_c, 0, 66, 100
1, 133504, Note_on_c, 1, 57, 0
1, 133504, Note_on_c, 1, 50, 0
1, 133568, Note_on_c, 0, 66, 0
1, 133608, Note_on_c, 0, 66, 100
1, 133624, Note_on_c, 0, 66, 0
1, 133632, Note_on_c, 0, 67, 100
1, 133632, Note_on_c, 1, 55, 100
1, 133888, Note_on_c, 1, 55, 0
1, 134016, Note_on_c, 1, 50, 100
1, 134144, Note_on_c, 0, 67, 0
1, 134272, Note_on_c, 1, 50, 0
1, 134400, Note_on_c, 1, 43, 100
1, 134656, Note_on_c, 1, 43, 0
1, 134784, Note_on_c, 0, 62, 100
1, 134784, Note_on_c, 0, 65, 100
1, 134784, Note_on_c, 1, 46, 100
1, 134912, Note_on_c, 1, 46, 0
1, 134976, Note_on_c, 1, 58, 100
1, 135104, Note_on_c, 1, 58, 0
1, 135168, Note_on_c, 1, 46, 100
1, 135296, Note_on_c, 0, 62, 0
1, 135296, Note_on_c, 0, 65, 0
1, 135296, Note_on_c, 1, 46, 0
1, 135360, Note_on_c, 1, 58, 100
1, 135488, Note_on_c, 1, 58, 0
1, 135528, Note_on_c, 0, 69, 100
1, 135544, Note_on_c, 0, 69, 0
1, 135552, Note_on_c, 0, 67, 100
1, 135552, Note_on_c, 0, 63, 100
1, 135552, Note_on_c, 1, 46, 100
1, 135680, Note_on_c, 1, 46, 0
1, 135744, Note_on_c, 1, 58, 100
1, 135808, Note_on_c, 0, 67, 0
1, 135808, Note_on_c, 0, 63, 0
1, 135872, Note_on_c, 1, 58, 0
1, 135936, Note_on_c, 0, 65, 100
1, 135936, Note_on_c, 0, 62, 100
1, 135936, Note_on_c, 1, 46, 100
1, 136064, Note_on_c, 1, 46, 0
1, 136128, Note_on_c, 1, 58, 100
1, 136192, Note_on_c, 0, 65, 0
1, 136192, Note_on_c, 0, 62, 0
1, 136256, Note_on_c, 1, 58, 0
1, 136320, Note_on_c, 1, 46, 100
1, 136448, Note_on_c, 1, 46, 0
1, 136512, Note_on_c, 1, 58, 100
1, 136640, Note_on_c, 1, 58, 0
1, 136680, Note_on_c, 0, 77, 100
1, 136696, Note_on_c, 0, 77, 0
1, 136704, Note_on_c, 0, 75, 100
1, 136704, Note_on_c, 0, 69, 100
1, 136704, Note_on_c, 1, 46, 100
1, 136832, Note_on_c, 1, 46, 0
1, 136896, Note_on_c, 1, 58, 100
1, 136960, Note_on_c, 0, 75, 0
1, 136960, Note_on_c, 0, 69, 0
1, 137024, Note_on_c, 1, 58, 0
1, 137088, Note_on_c, 0, 74, 100
1, 137088, Note_on_c, 0, 70, 100
1, 137088, Note_on_c, 1, 46, 100
1, 137216, Note_on_c, 1, 46, 0
1, 137280, Note_on_c, 1, 58, 100
1, 137344, Note_on_c, 0, 74, 0
1, 137344, Note_on_c, 0, 70, 0
1, 137408, Note_on_c, 1, 58, 0
1, 137472, Note_on_c, 1, 46, 100
1, 137600, Note_on_c, 1, 46, 0
1, 137664, Note_on_c, 1, 58, 100
1, 137792, Note_on_c, 1, 58, 0
1, 137832, Note_on_c, 0, 81, 100
1, 137848, Note_on_c, 0, 81, 0
1, 137856, Note_on_c, 0, 79, 100
1, 137856, Note_on_c, 0, 75, 100
1, 137856, Note_on_c, 1, 46, 100
1, 137984, Note_on_c, 1, 46, 0
1, 138048, Note_on_c, 1, 58, 100
1, 138112, Note_on_c, 0, 79, 0
1, 138112, Note_on_c, 0, 75, 0
1, 138176, Note_on_c, 1, 58, 0
1, 138240, Note_on_c, 0, 77, 100
1, 138240, Note_on_c, 0, 74, 100
1, 138240, Note_on_c, 1, 46, 100
1, 138368, Note_on_c, 1, 46, 0
1, 138432, Note_on_c, 1, 58, 100
1, 138496, Note_on_c, 0, 77, 0
1, 138496, Note_on_c, 0, 74, 0
1, 138560, Note_on_c, 1, 58, 0
1, 138624, Note_on_c, 1, 46, 100
1, 138752, Note_on_c, 1, 46, 0
1, 138816, Note_on_c, 1, 58, 100
1, 138944, Note_on_c, 1, 58, 0
1, 139008, Note_on_c, 0, 82, 100
1, 139008, Note_on_c, 1, 58, 100
1, 139008, Note_on_c, 1, 50, 100
1, 139136, Note_on_c, 0, 82, 0
1, 139200, Note_on_c, 0, 81, 100
1, 139264, Note_on_c, 1, 58, 0
1, 139264, Note_on_c, 1, 50, 0
1, 139328, Note_on_c, 0, 81, 0
1, 139392, Note_on_c, 0, 81, 100
1, 139392, Note_on_c, 1, 51, 100
1, 139392, Note_on_c, 1, 58, 100
1, 139520, Note_on_c, 0, 81, 0
1, 139584, Note_on_c, 0, 79, 100
1, 139648, Note_on_c, 1, 51, 0
1, 139712, Note_on_c, 0, 79, 0
1, 139776, Note_on_c, 0, 79, 100
1, 139776, Note_on_c, 1, 55, 100
1, 139904, Note_on_c, 0, 79, 0
1, 139968, Note_on_c, 0, 77, 100
1, 140032, Note_on_c, 1, 55, 0
1, 140096, Note_on_c, 0, 77, 0
1, 140160, Note_on_c, 0, 77, 100
1, 140160, Note_on_c, 1, 58, 100
1, 140288, Note_on_c, 0, 77, 0
1, 140352, Note_on_c, 0, 75, 100
1, 140416, Note_on_c, 1, 58, 0
1, 140420, Note_on_c, 1, 58, 0
1, 140480, Note_on_c, 0, 75, 0
1, 140544, Note_on_c, 0, 75, 100
1, 140544, Note_on_c, 1, 57, 100
1, 140576, Note_on_c, 0, 75, 0
1, 140592, Note_on_c, 0, 77, 100
1, 140624, Note_on_c, 0, 77, 0
1, 140640, Note_on_c, 0, 75, 100
1, 140672, Note_on_c, 0, 75, 0
1, 140688, Note_on_c, 0, 74, 100
1, 140720, Note_on_c, 0, 74, 0
1, 140736, Note_on_c, 0, 75, 100
1, 140928, Note_on_c, 1, 65, 100
1, 141248, Note_on_c, 0, 75, 0
1, 141288, Note_on_c, 0, 77, 100
1, 141304, Note_on_c, 0, 77, 0
1, 141312, Note_on_c, 0, 75, 100
1, 141312, Note_on_c, 1, 58, 100
1, 141440, Note_on_c, 0, 75, 0
1, 141440, Note_on_c, 1, 65, 0
1, 141504, Note_on_c, 0, 74, 100
1, 141568, Note_on_c, 1, 58, 0
1, 141572, Note_on_c, 1, 57, 0
1, 141632, Note_on_c, 0, 74, 0
1, 141672, Note_on_c, 0, 75, 100
1, 141688, Note_on_c, 0, 75, 0
1, 141696, Note_on_c, 0, 74, 100
1, 141696, Note_on_c, 1, 63, 100
1, 141696, Note_on_c, 1, 51, 100
1, 141824, Note_on_c, 0, 74, 0
1, 141888, Note_on_c, 0, 72, 100
1, 141952, Note_on_c, 1, 63, 0
1, 141952, Note_on_c, 1, 51, 0
1, 142016, Note_on_c, 0, 72, 0
1, 142056, Note_on_c, 0, 74, 100
1, 142072, Note_on_c, 0, 74, 0
1, 142080, Note_on_c, 0, 72, 100
1, 142080, Note_on_c, 1, 62, 100
1, 142080, Note_on_c, 1, 53, 100
1, 142208, Note_on_c, 0, 72, 0
1, 142272, Note_on_c, 0, 70, 100
1, 142336, Note_on_c, 1, 62, 0
1, 142336, Note_on_c, 1, 53, 0
1, 142400, Note_on_c, 0, 70, 0
1, 142440, Note_on_c, 0, 72, 100
1, 142456, Note_on_c, 0, 72, 0
1, 142464, Note_on_c, 0, 70, 100
1, 142464, Note_on_c, 1, 60, 100
1, 142464, Note_on_c, 1, 53, 100
1, 142592, Note_on_c, 0, 70, 0
1, 142656, Note_on_c, 0, 69, 100
1, 142720, Note_on_c, 1, 60, 0
1, 142720, Note_on_c, 1, 53, 0
1, 142784, Note_on_c, 0, 69, 0
1, 142824, Note_on_c, 0, 69, 100
1, 142840, Note_on_c, 0, 69, 0
1, 142848, Note_on_c, 0, 70, 100
1, 142848, Note_on_c, 1, 58, 100
1, 143104, Note_on_c, 1, 58, 0
1, 143232, Note_on_c, 1, 62, 100
1, 143360, Note_on_c, 0, 70, 0
1, 143360, Note_on_c, 1, 62, 0
1, 143424, Note_on_c, 1, 60, 100
1, 143552, Note_on_c, 1, 60, 0
1, 143616, Note_on_c, 1, 58, 100
1, 143744, Note_on_c, 1, 58, 0
1, 143808, Note_on_c, 1, 57, 100
1, 143936, Note_on_c, 1, 57, 0
1, 144000, Note_on_c, 0, 74, 100
1, 144000, Note_on_c, 1, 58, 100
1, 144000, Note_on_c, 1, 55, 100
1, 144256, Note_on_c, 1, 58, 0
1, 144256, Note_on_c, 1, 55, 0
1, 144384, Note_on_c, 1, 70, 100
1, 144384, Note_on_c, 1, 67, 100
1, 144512, Note_on_c, 0, 74, 0
1, 144640, Note_on_c, 1, 70, 0
1, 144640, Note_on_c, 1, 67, 0
1, 144744, Note_on_c, 0, 77, 100
1, 144760, Note_on_c, 0, 77, 0
1, 144768, Note_on_c, 0, 75, 100
1, 144768, Note_on_c, 1, 69, 100
1, 144768, Note_on_c, 1, 66, 100
1, 145024, Note_on_c, 0, 75, 0
1, 145024, Note_on_c, 1, 69, 0
1, 145024, Note_on_c, 1, 66, 0
1, 145152, Note_on_c, 0, 74, 100
1, 145152, Note_on_c, 1, 70, 100
1, 145152, Note_on_c, 1, 67, 100
1, 145280, Note_on_c, 0, 74, 0
1, 145344, Note_on_c, 0, 82, 100
1, 145408, Note_on_c, 1, 70, 0
1, 145408, Note_on_c, 1, 67, 0
1, 145472, Note_on_c, 0, 82, 0
1, 145536, Note_on_c, 0, 81, 100
1, 145664, Note_on_c, 0, 81, 0
1, 145728, Note_on_c, 0, 79, 100
1, 145856, Note_on_c, 0, 79, 0
1, 145920, Note_on_c, 0, 78, 100
1, 146048, Note_on_c, 0, 78, 0
1, 146112, Note_on_c, 0, 79, 100
1, 146240, Note_on_c, 0, 79, 0
1, 146304, Note_on_c, 0, 74, 100
1, 146304, Note_on_c, 1, 57, 100
1, 146304, Note_on_c, 1, 54, 100
1, 146560, Note_on_c, 1, 57, 0
1, 146560, Note_on_c, 1, 54, 0
1, 146688, Note_on_c, 1, 69, 100
1, 146688, Note_on_c, 1, 66, 100
1, 146816, Note_on_c, 0, 74, 0
1, 146944, Note_on_c, 1, 69, 0
1, 146944, Note_on_c, 1, 66, 0
1, 147048, Note_on_c, 0, 77, 100
1, 147064, Note_on_c, 0, 77, 0
1, 147072, Note_on_c, 0, 75, 100
1, 147072, Note_on_c, 1, 70, 100
1, 147072, Note_on_c, 1, 67, 100
1, 147328, Note_on_c, 0, 75, 0
1, 147328, Note_on_c, 1, 70, 0
1, 147328, Note_on_c, 1, 67, 0
1, 147456, Note_on_c, 0, 74, 100
1, 147456, Note_on_c, 1, 69, 100
1, 147456, Note_on_c, 1, 66, 100
1, 147584, Note_on_c, 0, 74, 0
1, 147648, Note_on_c, 0, 84, 100
1, 147712, Note_on_c, 1, 69, 0
1, 147712, Note_on_c, 1, 66, 0
1, 147776, Note_on_c, 0, 84, 0
1, 147840, Note_on_c, 0, 81, 100
1, 147968, Note_on_c, 0, 81, 0
1, 148032, Note_on_c, 0, 78, 100
1, 148160, Note_on_c, 0, 78, 0
1, 148224, Note_on_c, 0, 74, 100
1, 148352, Note_on_c, 0, 74, 0
1, 148416, Note_on_c, 0, 72, 100
1, 148544, Note_on_c, 0, 72, 0
1, 148608, Note_on_c, 0, 70, 100
1, 148624, Note_on_c, 0, 70, 0
1, 148632, Note_on_c, 0, 72, 100
1, 148648, Note_on_c, 0, 72, 0
1, 148656, Note_on_c, 0, 70, 100
1, 148672, Note_on_c, 0, 70, 0
1, 148680, Note_on_c, 0, 72, 100
1, 148696, Note_on_c, 0, 72, 0
1, 148704, Note_on_c, 0, 70, 100
1, 148720, Note_on_c, 0, 70, 0
1, 148728, Note_on_c, 0, 72, 100
1, 148744, Note_on_c, 0, 72, 0
1, 148752, Note_on_c, 0, 70, 100
1, 148768, Note_on_c, 0, 70, 0
1, 148776, Note_on_c, 0, 72, 100
1, 148792, Note_on_c, 0, 72, 0
1, 148800, Note_on_c, 0, 70, 100
1, 148816, Note_on_c, 0, 70, 0
1, 148824, Note_on_c, 0, 72, 100
1, 148840, Note_on_c, 0, 72, 0
1, 148848, Note_on_c, 0, 70, 100
1, 148864, Note_on_c, 0, 70, 0
1, 148872, Note_on_c, 0, 72, 100
1, 148888, Note_on_c, 0, 72, 0
1, 148896, Note_on_c, 0, 70, 100
1, 148912, Note_on_c, 0, 70, 0
1, 148920, Note_on_c, 0, 72, 100
1, 148936, Note_on_c, 0, 72, 0
1, 148944, Note_on_c, 0, 70, 100
1, 148960, Note_on_c, 0, 70, 0
1, 148968, Note_on_c, 0, 72, 100
1, 148984, Note_on_c, 0, 72, 0
1, 148992, Note_on_c, 0, 70, 100
1, 148992, Note_on_c, 1, 62, 100
1, 148992, Note_on_c, 1, 55, 100
1, 149008, Note_on_c, 0, 70, 0
1, 149016, Note_on_c, 0, 72, 100
1, 149032, Note_on_c, 0, 72, 0
1, 149040, Note_on_c, 0, 70, 100
1, 149056, Note_on_c, 0, 70, 0
1, 149064, Note_on_c, 0, 72, 100
1, 149080, Note_on_c, 0, 72, 0
1, 149088, Note_on_c, 0, 70, 100
1, 149104, Note_on_c, 0, 70, 0
1, 149112, Note_on_c, 0, 72, 100
1, 149128, Note_on_c, 0, 72, 0
1, 149136, Note_on_c, 0, 70, 100
1, 149152, Note_on_c, 0, 70, 0
1, 149160, Note_on_c, 0, 72, 100
1, 149176, Note_on_c, 0, 72, 0
1, 149184, Note_on_c, 0, 70, 100
1, 149200, Note_on_c, 0, 70, 0
1, 149208, Note_on_c, 0, 72, 100
1, 149224, Note_on_c, 0, 72, 0
1, 149232, Note_on_c, 0, 70, 100
1, 149248, Note_on_c, 0, 70, 0
1, 149248, Note_on_c, 1, 62, 0
1, 149248, Note_on_c, 1, 55, 0
1, 149256, Note_on_c, 0, 72, 100
1, 149272, Note_on_c, 0, 72, 0
1, 149280, Note_on_c, 0, 69, 100
1, 149312, Note_on_c, 0, 69, 0
1, 149328, Note_on_c, 0, 70, 100
1, 149360, Note_on_c, 0, 70, 0
1, 149376, Note_on_c, 0, 69, 100
1, 149376, Note_on_c, 1, 62, 100
1, 149376, Note_on_c, 1, 54, 100
1, 149632, Note_on_c, 0, 69, 0
1, 149632, Note_on_c, 1, 62, 0
1, 149632, Note_on_c, 1, 54, 0
1, 149760, Note_on_c, 0, 72, 100
1, 149776, Note_on_c, 0, 72, 0
1, 149784, Note_on_c, 0, 74, 100
1, 149800, Note_on_c, 0, 74, 0
1, 149808, Note_on_c, 0, 72, 100
1, 149824, Note_on_c, 0, 72, 0
1, 149832, Note_on_c, 0, 74, 100
1, 149848, Note_on_c, 0, 74, 0
1, 149856, Note_on_c, 0, 72, 100
1, 149872, Note_on_c, 0, 72, 0
1, 149880, Note_on_c, 0, 74, 100
1, 149896, Note_on_c, 0, 74, 0
1, 149904, Note_on_c, 0, 72, 100
1, 149920, Note_on_c, 0, 72, 0
1, 149928, Note_on_c, 0, 74, 100
1, 149944, Note_on_c, 0, 74, 0
1, 149952, Note_on_c, 0, 72, 100
1, 149968, Note_on_c, 0, 72, 0
1, 149976, Note_on_c, 0, 74, 100
1, 149992, Note_on_c, 0, 74, 0
1, 150000, Note_on_c, 0, 72, 100
1, 150016, Note_on_c, 0, 72, 0
1, 150024, Note_on_c, 0, 74, 100
1, 150040, Note_on_c, 0, 74, 0
1, 150048, Note_on_c, 0, 72, 100
1, 150064, Note_on_c, 0, 72, 0
1, 150072, Note_on_c, 0, 74, 100
1, 150088, Note_on_c, 0, 74, 0
1, 150096, Note_on_c, 0, 72, 100
1, 150112, Note_on_c, 0, 72, 0
1, 150120, Note_on_c, 0, 74, 100
1, 150136, Note_on_c, 0, 74, 0
1, 150144, Note_on_c, 0, 72, 100
1, 150144, Note_on_c, 1, 62, 100
1, 150144, Note_on_c, 1, 54, 100
1, 150160, Note_on_c, 0, 72, 0
1, 150168, Note_on_c, 0, 74, 100
1, 150184, Note_on_c, 0, 74, 0
1, 150192, Note_on_c, 0, 72, 100
1, 150208, Note_on_c, 0, 72, 0
1, 150216, Note_on_c, 0, 74, 100
1, 150232, Note_on_c, 0, 74, 0
1, 150240, Note_on_c, 0, 72, 100
1, 150256, Note_on_c, 0, 72, 0
1, 150264, Note_on_c, 0, 74, 100
1, 150280, Note_on_c, 0, 74, 0
1, 150288, Note_on_c, 0, 72, 100
1, 150304, Note_on_c, 0, 72, 0
1, 150312, Note_on_c, 0, 74, 100
1, 150328, Note_on_c, 0, 74, 0
1, 150336, Note_on_c, 0, 72, 100
1, 150352, Note_on_c, 0, 72, 0
1, 150360, Note_on_c, 0, 74, 100
1, 150376, Note_on_c, 0, 74, 0
1, 150384, Note_on_c, 0, 72, 100
1, 150400, Note_on_c, 0, 72, 0
1, 150400, Note_on_c, 1, 62, 0
1, 150400, Note_on_c, 1, 54, 0
1, 150408, Note_on_c, 0, 74, 100
1, 150424, Note_on_c, 0, 74, 0
1, 150432, Note_on_c, 0, 70, 100
1, 150464, Note_on_c, 0, 70, 0
1, 150480, Note_on_c, 0, 72, 100
1, 150512, Note_on_c, 0, 72, 0
1, 150528, Note_on_c, 0, 70, 100
1, 150528, Note_on_c, 1, 62, 100
1, 150528, Note_on_c, 1, 55, 100
1, 150784, Note_on_c, 0, 70, 0
1, 150784, Note_on_c, 1, 62, 0
1, 150784, Note_on_c, 1, 55, 0
1, 150912, Note_on_c, 0, 70, 100
1, 150912, Note_on_c, 1, 60, 100
1, 150912, Note_on_c, 1, 48, 100
1, 150928, Note_on_c, 0, 70, 0
1, 150936, Note_on_c, 0, 72, 100
1, 150952, Note_on_c, 0, 72, 0
1, 150960, Note_on_c, 0, 70, 100
1, 150976, Note_on_c, 0, 70, 0
1, 150984, Note_on_c, 0, 72, 100
1, 151000, Note_on_c, 0, 72, 0
1, 151008, Note_on_c, 0, 70, 100
1, 151024, Note_on_c, 0, 70, 0
1, 151032, Note_on_c, 0, 72, 100
1, 151048, Note_on_c, 0, 72, 0
1, 151056, Note_on_c, 0, 70, 100
1, 151072, Note_on_c, 0, 70, 0
1, 151080, Note_on_c, 0, 72, 100
1, 151096, Note_on_c, 0, 72, 0
1, 151104, Note_on_c, 0, 69, 100
1, 151168, Note_on_c, 1, 60, 0
1, 151168, Note_on_c, 1, 48, 0
1, 151232, Note_on_c, 0, 69, 0
1, 151296, Note_on_c, 0, 69, 100
1, 151296, Note_on_c, 1, 58, 100
1, 151296, Note_on_c, 1, 50, 100
1, 151312, Note_on_c, 0, 69, 0
1, 151320, Note_on_c, 0, 70, 100
1, 151336, Note_on_c, 0, 70, 0
1, 151344, Note_on_c, 0, 69, 100
1, 151360, Note_on_c, 0, 69, 0
1, 151368, Note_on_c, 0, 70, 100
1, 151384, Note_on_c, 0, 70, 0
1, 151392, Note_on_c, 0, 69, 100
1, 151408, Note_on_c, 0, 69, 0
1, 151416, Note_on_c, 0, 70, 100
1, 151432, Note_on_c, 0, 70, 0
1, 151440, Note_on_c, 0, 69, 100
1, 151456, Note_on_c, 0, 69, 0
1, 151464, Note_on_c, 0, 70, 100
1, 151480, Note_on_c, 0, 70, 0
1, 151488, Note_on_c, 0, 67, 100
1, 151552, Note_on_c, 1, 58, 0
1, 151552, Note_on_c, 1, 50, 0
1, 151616, Note_on_c, 0, 67, 0
1, 151680, Note_on_c, 0, 67, 100
1, 151680, Note_on_c, 1, 57, 100
1, 151680, Note_on_c, 1, 50, 100
1, 151696, Note_on_c, 0, 67, 0
1, 151704, Note_on_c, 0, 69, 100
1, 151720, Note_on_c, 0, 69, 0
1, 151728, Note_on_c, 0, 67, 100
1, 151744, Note_on_c, 0, 67, 0
1, 151752, Note_on_c, 0, 69, 100
1, 151768, Note_on_c, 0, 69, 0
1, 151776, Note_on_c, 0, 67, 100
1, 151792, Note_on_c, 0, 67, 0
1, 151800, Note_on_c, 0, 69, 100
1, 151816, Note_on_c, 0, 69, 0
1, 151824, Note_on_c, 0, 67, 100
1, 151840, Note_on_c, 0, 67, 0
1, 151848, Note_on_c, 0, 69, 100
1, 151864, Note_on_c, 0, 69, 0
1, 151872, Note_on_c, 0, 66, 100
1, 151936, Note_on_c, 1, 57, 0
1, 151936, Note_on_c, 1, 50, 0
1, 152000, Note_on_c, 0, 66, 0
1, 152040, Note_on_c, 0, 66, 100
1, 152056, Note_on_c, 0, 66, 0
1, 152064, Note_on_c, 0, 67, 100
1, 152064, Note_on_c, 1, 55, 100
1, 152320, Note_on_c, 1, 55, 0
1, 152448, Note_on_c, 1, 50, 100
1, 152576, Note_on_c, 0, 67, 0
1, 152704, Note_on_c, 1, 50, 0
1, 152832, Note_on_c, 1, 43, 100
1, 153088, Note_on_c, 1, 43, 0
1, 153098, End_track
0, 0, End_of_file