0, 0, Header, 0, 1, 96
1, 0, Start_track
1, 0, Tempo, 1000000
1, 0, Note_on_c, 0, 57, 82
1, 0, Note_on_c, 1, 41, 82
1, 6, Note_on_c, 1, 45, 82
1, 12, Note_on_c, 0, 60, 82
1, 12, Note_on_c, 1, 48, 82
1, 18, Note_on_c, 1, 53, 82
1, 24, Note_on_c, 0, 65, 82
1, 45, Note_on_c, 1, 53, 0
1, 45, Note_on_c, 1, 48, 0
1, 45, Note_on_c, 1, 45, 0
1, 45, Note_on_c, 1, 41, 0
1, 67, Note_on_c, 0, 65, 0
1, 67, Note_on_c, 0, 60, 0
1, 67, Note_on_c, 0, 57, 0
1, 72, Note_on_c, 0, 60, 82
1, 95, Note_on_c, 0, 60, 0
1, 96, Note_on_c, 0, 70, 76
1, 119, Note_on_c, 0, 70, 0
1, 120, Note_on_c, 0, 69, 76
1, 143, Note_on_c, 0, 69, 0
1, 144, Note_on_c, 0, 67, 76
1, 167, Note_on_c, 0, 67, 0
1, 168, Note_on_c, 0, 65, 76
1, 191, Note_on_c, 0, 65, 0
1, 192, Note_on_c, 0, 64, 76
1, 192, Note_on_c, 1, 58, 70
1, 192, Note_on_c, 1, 55, 70
1, 192, Note_on_c, 1, 48, 70
1, 212, Note_on_c, 0, 64, 0
1, 212, Note_on_c, 1, 58, 0
1, 212, Note_on_c, 1, 55, 0
1, 212, Note_on_c, 1, 48, 0
1, 240, Note_on_c, 0, 65, 76
1, 260, Note_on_c, 0, 65, 0
1, 288, Note_on_c, 0, 67, 76
1, 308, Note_on_c, 0, 67, 0
1, 336, Note_on_c, 0, 69, 76
1, 356, Note_on_c, 0, 69, 0
1, 384, Note_on_c, 0, 64, 82
1, 384, Note_on_c, 1, 52, 82
1, 390, Note_on_c, 1, 55, 82
1, 396, Note_on_c, 0, 67, 82
1, 396, Note_on_c, 1, 58, 82
1, 402, Note_on_c, 1, 60, 82
1, 408, Note_on_c, 0, 70, 82
1, 429, Note_on_c, 1, 60, 0
1, 429, Note_on_c, 1, 58, 0
1, 429, Note_on_c, 1, 55, 0
1, 429, Note_on_c, 1, 52, 0
1, 451, Note_on_c, 0, 70, 0
1, 451, Note_on_c, 0, 67, 0
1, 451, Note_on_c, 0, 64, 0
1, 456, Note_on_c, 0, 67, 82
1, 479, Note_on_c, 0, 67, 0
1, 480, Note_on_c, 0, 76, 76
1, 503, Note_on_c, 0, 76, 0
1, 504, Note_on_c, 0, 74, 76
1, 527, Note_on_c, 0, 74, 0
1, 528, Note_on_c, 0, 72, 76
1, 551, Note_on_c, 0, 72, 0
1, 552, Note_on_c, 0, 70, 76
1, 575, Note_on_c, 0, 70, 0
1, 576, Note_on_c, 0, 69, 76
1, 576, Note_on_c, 1, 60, 82
1, 576, Note_on_c, 1, 53, 82
1, 596, Note_on_c, 0, 69, 0
1, 596, Note_on_c, 1, 60, 0
1, 596, Note_on_c, 1, 53, 0
1, 624, Note_on_c, 0, 70, 74
1, 644, Note_on_c, 0, 70, 0
1, 672, Note_on_c, 0, 72, 73
1, 692, Note_on_c, 0, 72, 0
1, 720, Note_on_c, 0, 73, 71
1, 740, Note_on_c, 0, 73, 0
1, 768, Note_on_c, 0, 74, 70
1, 768, Note_on_c, 1, 65, 61
1, 768, Note_on_c, 1, 58, 61
1, 835, Note_on_c, 0, 74, 0
1, 840, Note_on_c, 0, 76, 70
1, 863, Note_on_c, 0, 76, 0
1, 864, Note_on_c, 0, 79, 70
1, 887, Note_on_c, 0, 79, 0
1, 888, Note_on_c, 0, 77, 70
1, 911, Note_on_c, 0, 77, 0
1, 912, Note_on_c, 0, 76, 70
1, 935, Note_on_c, 0, 76, 0
1, 936, Note_on_c, 0, 74, 70
1, 959, Note_on_c, 0, 74, 0
1, 960, Note_on_c, 0, 72, 86
1, 960, Note_on_c, 1, 58, 0
1, 960, Note_on_c, 1, 57, 61
1, 1005, Note_on_c, 1, 65, 0
1, 1005, Note_on_c, 1, 57, 0
1, 1008, Note_on_c, 0, 72, 0
1, 1008, Note_on_c, 0, 72, 70
1, 1053, Note_on_c, 0, 72, 0
1, 1056, Note_on_c, 0, 70, 70
1, 1063, Note_on_c, 0, 70, 0
1, 1063, Note_on_c, 0, 72, 70
1, 1070, Note_on_c, 0, 72, 0
1, 1070, Note_on_c, 0, 70, 70
1, 1077, Note_on_c, 0, 70, 0
1, 1077, Note_on_c, 0, 72, 70
1, 1084, Note_on_c, 0, 72, 0
1, 1084, Note_on_c, 0, 70, 70
1, 1091, Note_on_c, 0, 70, 0
1, 1091, Note_on_c, 0, 69, 70
1, 1098, Note_on_c, 0, 69, 0
1, 1098, Note_on_c, 0, 70, 70
1, 1104, Note_on_c, 0, 70, 0
1, 1104, Note_on_c, 0, 69, 70
1, 1149, Note_on_c, 0, 69, 0
1, 1152, Note_on_c, 0, 67, 70
1, 1152, Note_on_c, 1, 58, 82
1, 1152, Note_on_c, 1, 46, 61
1, 1197, Note_on_c, 0, 67, 0
1, 1200, Note_on_c, 0, 69, 71
1, 1212, Note_on_c, 0, 69, 0
1, 1212, Note_on_c, 0, 67, 71
1, 1224, Note_on_c, 0, 67, 0
1, 1224, Note_on_c, 0, 66, 72
1, 1236, Note_on_c, 0, 66, 0
1, 1236, Note_on_c, 0, 67, 72
1, 1248, Note_on_c, 0, 67, 0
1, 1248, Note_on_c, 0, 70, 73
1, 1293, Note_on_c, 0, 70, 0
1, 1296, Note_on_c, 0, 74, 74
1, 1329, Note_on_c, 1, 58, 0
1, 1329, Note_on_c, 1, 46, 0
1, 1341, Note_on_c, 0, 74, 0
1, 1344, Note_on_c, 0, 65, 76
1, 1344, Note_on_c, 1, 57, 82
1, 1344, Note_on_c, 1, 48, 61
1, 1440, Note_on_c, 1, 57, 0
1, 1440, Note_on_c, 1, 55, 82
1, 1477, Note_on_c, 0, 65, 0
1, 1488, Note_on_c, 0, 64, 71
1, 1494, Note_on_c, 0, 64, 0
1, 1494, Note_on_c, 0, 65, 71
1, 1500, Note_on_c, 0, 65, 0
1, 1500, Note_on_c, 0, 64, 71
1, 1521, Note_on_c, 1, 48, 0
1, 1529, Note_on_c, 1, 55, 0
1, 1533, Note_on_c, 0, 64, 0
1, 1536, Note_on_c, 0, 57, 76
1, 1536, Note_on_c, 1, 41, 82
1, 1542, Note_on_c, 1, 45, 82
1, 1548, Note_on_c, 0, 60, 76
1, 1548, Note_on_c, 1, 48, 82
1, 1554, Note_on_c, 1, 53, 82
1, 1560, Note_on_c, 0, 65, 76
1, 1603, Note_on_c, 0, 65, 0
1, 1603, Note_on_c, 0, 60, 0
1, 1603, Note_on_c, 0, 57, 0
1, 1608, Note_on_c, 0, 60, 76
1, 1629, Note_on_c, 1, 53, 0
1, 1629, Note_on_c, 1, 48, 0
1, 1629, Note_on_c, 1, 45, 0
1, 1629, Note_on_c, 1, 41, 0
1, 1631, Note_on_c, 0, 60, 0
1, 1632, Note_on_c, 0, 70, 76
1, 1655, Note_on_c, 0, 70, 0
1, 1656, Note_on_c, 0, 69, 76
1, 1679, Note_on_c, 0, 69, 0
1, 1680, Note_on_c, 0, 67, 76
1, 1703, Note_on_c, 0, 67, 0
1, 1704, Note_on_c, 0, 65, 76
1, 1727, Note_on_c, 0, 65, 0
1, 1728, Note_on_c, 0, 64, 76
1, 1728, Note_on_c, 1, 58, 70
1, 1728, Note_on_c, 1, 48, 61
1, 1762, Note_on_c, 0, 64, 0
1, 1764, Note_on_c, 0, 60, 77
1, 1773, Note_on_c, 1, 58, 0
1, 1776, Note_on_c, 0, 60, 0
1, 1776, Note_on_c, 0, 65, 77
1, 1776, Note_on_c, 1, 57, 70
1, 1810, Note_on_c, 0, 65, 0
1, 1812, Note_on_c, 0, 60, 78
1, 1821, Note_on_c, 1, 57, 0
1, 1824, Note_on_c, 0, 60, 0
1, 1824, Note_on_c, 0, 67, 79
1, 1824, Note_on_c, 1, 55, 70
1, 1858, Note_on_c, 0, 67, 0
1, 1860, Note_on_c, 0, 60, 80
1, 1869, Note_on_c, 1, 55, 0
1, 1872, Note_on_c, 0, 60, 0
1, 1872, Note_on_c, 0, 69, 80
1, 1872, Note_on_c, 1, 53, 70
1, 1906, Note_on_c, 0, 69, 0
1, 1908, Note_on_c, 0, 60, 81
1, 1917, Note_on_c, 1, 53, 0
1, 1920, Note_on_c, 0, 60, 0
1, 1920, Note_on_c, 0, 70, 98
1, 1920, Note_on_c, 1, 55, 70
1, 1920, Note_on_c, 1, 52, 70
1, 1992, Note_on_c, 0, 70, 0
1, 1992, Note_on_c, 0, 67, 76
1, 2015, Note_on_c, 0, 67, 0
1, 2016, Note_on_c, 0, 76, 76
1, 2039, Note_on_c, 0, 76, 0
1, 2040, Note_on_c, 0, 74, 76
1, 2063, Note_on_c, 0, 74, 0
1, 2064, Note_on_c, 0, 72, 76
1, 2087, Note_on_c, 0, 72, 0
1, 2088, Note_on_c, 0, 70, 76
1, 2097, Note_on_c, 1, 55, 0
1, 2097, Note_on_c, 1, 52, 0
1, 2097, Note_on_c, 1, 48, 0
1, 2111, Note_on_c, 0, 70, 0
1, 2112, Note_on_c, 0, 69, 76
1, 2112, Note_on_c, 1, 53, 70
1, 2112, Note_on_c, 1, 41, 70
1, 2132, Note_on_c, 0, 69, 0
1, 2151, Note_on_c, 1, 53, 0
1, 2151, Note_on_c, 1, 41, 0
1, 2160, Note_on_c, 0, 70, 76
1, 2180, Note_on_c, 0, 70, 0
1, 2208, Note_on_c, 0, 72, 76
1, 2228, Note_on_c, 0, 72, 0
1, 2256, Note_on_c, 0, 73, 76
1, 2276, Note_on_c, 0, 73, 0
1, 2304, Note_on_c, 1, 58, 70
1, 2304, Note_on_c, 1, 46, 70
1, 2304, Note_on_c, 1, 58, 61
1, 2328, Note_on_c, 0, 73, 76
1, 2351, Note_on_c, 0, 73, 0
1, 2352, Note_on_c, 0, 74, 76
1, 2375, Note_on_c, 0, 74, 0
1, 2376, Note_on_c, 0, 76, 77
1, 2393, Note_on_c, 1, 58, 0
1, 2393, Note_on_c, 1, 46, 0
1, 2393, Note_on_c, 1, 58, 0
1, 2399, Note_on_c, 0, 76, 0
1, 2400, Note_on_c, 0, 77, 77
1, 2423, Note_on_c, 0, 77, 0
1, 2424, Note_on_c, 0, 78, 78
1, 2447, Note_on_c, 0, 78, 0
1, 2448, Note_on_c, 0, 79, 78
1, 2471, Note_on_c, 0, 79, 0
1, 2472, Note_on_c, 0, 81, 79
1, 2495, Note_on_c, 0, 81, 0
1, 2496, Note_on_c, 0, 82, 79
1, 2519, Note_on_c, 0, 82, 0
1, 2520, Note_on_c, 0, 83, 80
1, 2543, Note_on_c, 0, 83, 0
1, 2544, Note_on_c, 0, 84, 80
1, 2567, Note_on_c, 0, 84, 0
1, 2568, Note_on_c, 0, 85, 81
1, 2591, Note_on_c, 0, 85, 0
1, 2592, Note_on_c, 0, 86, 97
1, 2592, Note_on_c, 1, 70, 70
1, 2592, Note_on_c, 1, 58, 70
1, 2616, Note_on_c, 0, 86, 0
1, 2616, Note_on_c, 0, 81, 82
1, 2639, Note_on_c, 0, 81, 0
1, 2640, Note_on_c, 0, 82, 82
1, 2663, Note_on_c, 0, 82, 0
1, 2664, Note_on_c, 0, 79, 81
1, 2681, Note_on_c, 1, 70, 0
1, 2681, Note_on_c, 1, 58, 0
1, 2687, Note_on_c, 0, 79, 0
1, 2688, Note_on_c, 0, 77, 81
1, 2688, Note_on_c, 1, 69, 70
1, 2688, Note_on_c, 1, 60, 70
1, 2821, Note_on_c, 0, 77, 0
1, 2832, Note_on_c, 0, 79, 78
1, 2855, Note_on_c, 0, 79, 0
1, 2856, Note_on_c, 0, 77, 78
1, 2879, Note_on_c, 0, 77, 0
1, 2880, Note_on_c, 0, 76, 77
1, 2880, Note_on_c, 1, 69, 0
1, 2880, Note_on_c, 1, 67, 70
1, 2969, Note_on_c, 0, 76, 0
1, 2969, Note_on_c, 1, 67, 0
1, 2969, Note_on_c, 1, 60, 0
1, 3072, Note_on_c, 0, 79, 76
1, 3072, Note_on_c, 1, 60, 61
1, 3095, Note_on_c, 1, 60, 0
1, 3096, Note_on_c, 1, 67, 61
1, 3119, Note_on_c, 1, 67, 0
1, 3120, Note_on_c, 1, 64, 61
1, 3143, Note_on_c, 1, 64, 0
1, 3144, Note_on_c, 1, 67, 61
1, 3161, Note_on_c, 0, 79, 0
1, 3167, Note_on_c, 1, 67, 0
1, 3168, Note_on_c, 0, 77, 76
1, 3168, Note_on_c, 1, 60, 61
1, 3191, Note_on_c, 0, 77, 0
1, 3191, Note_on_c, 1, 60, 0
1, 3192, Note_on_c, 0, 76, 76
1, 3192, Note_on_c, 1, 67, 61
1, 3215, Note_on_c, 0, 76, 0
1, 3215, Note_on_c, 1, 67, 0
1, 3216, Note_on_c, 0, 74, 76
1, 3216, Note_on_c, 1, 64, 61
1, 3239, Note_on_c, 0, 74, 0
1, 3239, Note_on_c, 1, 64, 0
1, 3240, Note_on_c, 0, 72, 76
1, 3240, Note_on_c, 1, 67, 61
1, 3263, Note_on_c, 0, 72, 0
1, 3263, Note_on_c, 1, 67, 0
1, 3264, Note_on_c, 0, 72, 76
1, 3264, Note_on_c, 1, 62, 61
1, 3287, Note_on_c, 1, 62, 0
1, 3288, Note_on_c, 1, 67, 61
1, 3311, Note_on_c, 1, 67, 0
1, 3312, Note_on_c, 1, 65, 61
1, 3335, Note_on_c, 1, 65, 0
1, 3336, Note_on_c, 1, 67, 61
1, 3359, Note_on_c, 1, 67, 0
1, 3360, Note_on_c, 0, 72, 0
1, 3360, Note_on_c, 0, 71, 76
1, 3360, Note_on_c, 1, 62, 61
1, 3366, Note_on_c, 0, 71, 0
1, 3366, Note_on_c, 0, 72, 76
1, 3372, Note_on_c, 0, 72, 0
1, 3372, Note_on_c, 0, 71, 76
1, 3383, Note_on_c, 1, 62, 0
1, 3384, Note_on_c, 1, 67, 61
1, 3407, Note_on_c, 1, 67, 0
1, 3408, Note_on_c, 1, 65, 61
1, 3427, Note_on_c, 0, 71, 0
1, 3431, Note_on_c, 1, 65, 0
1, 3432, Note_on_c, 0, 71, 76
1, 3432, Note_on_c, 1, 67, 61
1, 3455, Note_on_c, 0, 71, 0
1, 3455, Note_on_c, 1, 67, 0
1, 3456, Note_on_c, 0, 72, 76
1, 3456, Note_on_c, 1, 60, 61
1, 3479, Note_on_c, 0, 72, 0
1, 3479, Note_on_c, 1, 60, 0
1, 3480, Note_on_c, 0, 74, 76
1, 3480, Note_on_c, 1, 67, 61
1, 3503, Note_on_c, 0, 74, 0
1, 3503, Note_on_c, 1, 67, 0
1, 3504, Note_on_c, 0, 76, 77
1, 3504, Note_on_c, 1, 64, 61
1, 3527, Note_on_c, 0, 76, 0
1, 3527, Note_on_c, 1, 64, 0
1, 3528, Note_on_c, 0, 77, 78
1, 3528, Note_on_c, 1, 67, 61
1, 3551, Note_on_c, 0, 77, 0
1, 3551, Note_on_c, 1, 67, 0
1, 3552, Note_on_c, 0, 79, 79
1, 3552, Note_on_c, 1, 60, 61
1, 3575, Note_on_c, 0, 79, 0
1, 3575, Note_on_c, 1, 60, 0
1, 3576, Note_on_c, 0, 81, 80
1, 3576, Note_on_c, 1, 67, 61
1, 3599, Note_on_c, 0, 81, 0
1, 3599, Note_on_c, 1, 67, 0
1, 3600, Note_on_c, 0, 83, 81
1, 3600, Note_on_c, 1, 64, 61
1, 3623, Note_on_c, 0, 83, 0
1, 3623, Note_on_c, 1, 64, 0
1, 3624, Note_on_c, 0, 84, 82
1, 3624, Note_on_c, 1, 67, 61
1, 3647, Note_on_c, 0, 84, 0
1, 3647, Note_on_c, 1, 67, 0
1, 3648, Note_on_c, 0, 84, 97
1, 3648, Note_on_c, 1, 62, 61
1, 3671, Note_on_c, 1, 62, 0
1, 3672, Note_on_c, 0, 84, 0
1, 3672, Note_on_c, 0, 83, 80
1, 3672, Note_on_c, 1, 67, 61
1, 3695, Note_on_c, 0, 83, 0
1, 3695, Note_on_c, 1, 67, 0
1, 3696, Note_on_c, 0, 81, 79
1, 3696, Note_on_c, 1, 65, 61
1, 3719, Note_on_c, 0, 81, 0
1, 3719, Note_on_c, 1, 65, 0
1, 3720, Note_on_c, 0, 79, 79
1, 3720, Note_on_c, 1, 67, 61
1, 3743, Note_on_c, 0, 79, 0
1, 3743, Note_on_c, 1, 67, 0
1, 3744, Note_on_c, 0, 79, 94
1, 3744, Note_on_c, 1, 62, 61
1, 3767, Note_on_c, 1, 62, 0
1, 3768, Note_on_c, 0, 79, 0
1, 3768, Note_on_c, 0, 77, 77
1, 3768, Note_on_c, 1, 67, 61
1, 3791, Note_on_c, 0, 77, 0
1, 3791, Note_on_c, 1, 67, 0
1, 3792, Note_on_c, 0, 76, 76
1, 3792, Note_on_c, 1, 65, 61
1, 3815, Note_on_c, 0, 76, 0
1, 3815, Note_on_c, 1, 65, 0
1, 3816, Note_on_c, 0, 74, 76
1, 3816, Note_on_c, 1, 67, 61
1, 3839, Note_on_c, 0, 74, 0
1, 3839, Note_on_c, 1, 67, 0
1, 3840, Note_on_c, 0, 79, 76
1, 3840, Note_on_c, 1, 60, 61
1, 3863, Note_on_c, 1, 60, 0
1, 3864, Note_on_c, 1, 67, 61
1, 3887, Note_on_c, 1, 67, 0
1, 3888, Note_on_c, 1, 64, 61
1, 3907, Note_on_c, 0, 79, 0
1, 3911, Note_on_c, 1, 64, 0
1, 3912, Note_on_c, 0, 81, 76
1, 3912, Note_on_c, 1, 67, 61
1, 3924, Note_on_c, 0, 81, 0
1, 3924, Note_on_c, 0, 79, 76
1, 3935, Note_on_c, 1, 67, 0
1, 3936, Note_on_c, 0, 79, 0
1, 3936, Note_on_c, 0, 77, 76
1, 3936, Note_on_c, 1, 60, 61
1, 3959, Note_on_c, 0, 77, 0
1, 3959, Note_on_c, 1, 60, 0
1, 3960, Note_on_c, 0, 76, 76
1, 3960, Note_on_c, 1, 67, 61
1, 3983, Note_on_c, 0, 76, 0
1, 3983, Note_on_c, 1, 67, 0
1, 3984, Note_on_c, 0, 74, 76
1, 3984, Note_on_c, 1, 64, 61
1, 4007, Note_on_c, 0, 74, 0
1, 4007, Note_on_c, 1, 64, 0
1, 4008, Note_on_c, 0, 72, 76
1, 4008, Note_on_c, 1, 67, 61
1, 4031, Note_on_c, 0, 72, 0
1, 4031, Note_on_c, 1, 67, 0
1, 4032, Note_on_c, 0, 72, 76
1, 4032, Note_on_c, 1, 62, 61
1, 4055, Note_on_c, 1, 62, 0
1, 4056, Note_on_c, 1, 67, 61
1, 4079, Note_on_c, 1, 67, 0
1, 4080, Note_on_c, 1, 65, 61
1, 4103, Note_on_c, 1, 65, 0
1, 4104, Note_on_c, 1, 67, 61
1, 4127, Note_on_c, 1, 67, 0
1, 4128, Note_on_c, 0, 72, 0
1, 4128, Note_on_c, 0, 71, 76
1, 4128, Note_on_c, 1, 62, 61
1, 4134, Note_on_c, 0, 71, 0
1, 4134, Note_on_c, 0, 72, 76
1, 4140, Note_on_c, 0, 72, 0
1, 4140, Note_on_c, 0, 71, 76
1, 4151, Note_on_c, 1, 62, 0
1, 4152, Note_on_c, 1, 67, 61
1, 4175, Note_on_c, 1, 67, 0
1, 4176, Note_on_c, 1, 65, 61
1, 4195, Note_on_c, 0, 71, 0
1, 4199, Note_on_c, 1, 65, 0
1, 4200, Note_on_c, 0, 77, 76
1, 4200, Note_on_c, 1, 67, 61
1, 4223, Note_on_c, 0, 77, 0
1, 4223, Note_on_c, 1, 67, 0
1, 4224, Note_on_c, 0, 76, 76
1, 4224, Note_on_c, 1, 60, 61
1, 4234, Note_on_c, 0, 76, 0
1, 4247, Note_on_c, 1, 60, 0
1, 4248, Note_on_c, 0, 77, 76
1, 4248, Note_on_c, 1, 67, 61
1, 4258, Note_on_c, 0, 77, 0
1, 4271, Note_on_c, 1, 67, 0
1, 4272, Note_on_c, 0, 79, 77
1, 4272, Note_on_c, 1, 64, 61
1, 4282, Note_on_c, 0, 79, 0
1, 4295, Note_on_c, 1, 64, 0
1, 4296, Note_on_c, 0, 81, 78
1, 4296, Note_on_c, 1, 67, 61
1, 4306, Note_on_c, 0, 81, 0
1, 4319, Note_on_c, 1, 67, 0
1, 4320, Note_on_c, 0, 83, 79
1, 4320, Note_on_c, 1, 60, 61
1, 4330, Note_on_c, 0, 83, 0
1, 4343, Note_on_c, 1, 60, 0
1, 4344, Note_on_c, 0, 84, 79
1, 4344, Note_on_c, 1, 67, 61
1, 4354, Note_on_c, 0, 84, 0
1, 4367, Note_on_c, 1, 67, 0
1, 4368, Note_on_c, 0, 83, 80
1, 4368, Note_on_c, 1, 64, 61
1, 4378, Note_on_c, 0, 83, 0
1, 4391, Note_on_c, 1, 64, 0
1, 4392, Note_on_c, 0, 84, 81
1, 4392, Note_on_c, 1, 67, 61
1, 4402, Note_on_c, 0, 84, 0
1, 4415, Note_on_c, 1, 67, 0
1, 4416, Note_on_c, 0, 84, 98
1, 4416, Note_on_c, 1, 62, 61
1, 4439, Note_on_c, 1, 62, 0
1, 4440, Note_on_c, 0, 84, 0
1, 4440, Note_on_c, 0, 83, 85
1, 4440, Note_on_c, 1, 67, 61
1, 4463, Note_on_c, 0, 83, 0
1, 4463, Note_on_c, 1, 67, 0
1, 4464, Note_on_c, 0, 81, 88
1, 4464, Note_on_c, 1, 65, 61
1, 4487, Note_on_c, 0, 81, 0
1, 4487, Note_on_c, 1, 65, 0
1, 4488, Note_on_c, 0, 79, 91
1, 4488, Note_on_c, 1, 67, 61
1, 4511, Note_on_c, 0, 79, 0
1, 4511, Note_on_c, 1, 67, 0
1, 4512, Note_on_c, 0, 79, 110
1, 4512, Note_on_c, 1, 62, 61
1, 4535, Note_on_c, 1, 62, 0
1, 4536, Note_on_c, 0, 79, 0
1, 4536, Note_on_c, 0, 81, 98
1, 4536, Note_on_c, 1, 67, 61
1, 4548, Note_on_c, 0, 81, 0
1, 4548, Note_on_c, 0, 79, 99
1, 4559, Note_on_c, 1, 67, 0
1, 4560, Note_on_c, 0, 79, 0
1, 4560, Note_on_c, 0, 79, 101
1, 4560, Note_on_c, 1, 65, 61
1, 4572, Note_on_c, 0, 79, 0
1, 4572, Note_on_c, 0, 77, 102
1, 4583, Note_on_c, 1, 65, 0
1, 4584, Note_on_c, 0, 77, 0
1, 4584, Note_on_c, 0, 76, 104
1, 4584, Note_on_c, 1, 67, 61
1, 4596, Note_on_c, 0, 76, 0
1, 4596, Note_on_c, 0, 74, 106
1, 4607, Note_on_c, 1, 67, 0
1, 4608, Note_on_c, 0, 74, 0
1, 4608, Note_on_c, 0, 76, 76
1, 4608, Note_on_c, 1, 60, 61
1, 4631, Note_on_c, 0, 76, 0
1, 4631, Note_on_c, 1, 60, 0
1, 4632, Note_on_c, 0, 77, 76
1, 4632, Note_on_c, 1, 67, 62
1, 4655, Note_on_c, 0, 77, 0
1, 4655, Note_on_c, 1, 67, 0
1, 4656, Note_on_c, 0, 76, 77
1, 4656, Note_on_c, 1, 64, 63
1, 4679, Note_on_c, 0, 76, 0
1, 4679, Note_on_c, 1, 64, 0
1, 4680, Note_on_c, 0, 77, 78
1, 4680, Note_on_c, 1, 67, 64
1, 4703, Note_on_c, 0, 77, 0
1, 4703, Note_on_c, 1, 67, 0
1, 4704, Note_on_c, 0, 79, 79
1, 4704, Note_on_c, 1, 60, 65
1, 4727, Note_on_c, 0, 79, 0
1, 4727, Note_on_c, 1, 60, 0
1, 4728, Note_on_c, 0, 81, 79
1, 4728, Note_on_c, 1, 67, 66
1, 4751, Note_on_c, 0, 81, 0
1, 4751, Note_on_c, 1, 67, 0
1, 4752, Note_on_c, 0, 79, 80
1, 4752, Note_on_c, 1, 64, 67
1, 4775, Note_on_c, 0, 79, 0
1, 4775, Note_on_c, 1, 64, 0
1, 4776, Note_on_c, 0, 81, 81
1, 4776, Note_on_c, 1, 67, 68
1, 4799, Note_on_c, 0, 81, 0
1, 4799, Note_on_c, 1, 67, 0
1, 4800, Note_on_c, 0, 82, 98
1, 4800, Note_on_c, 0, 70, 98
1, 4800, Note_on_c, 1, 52, 70
1, 4823, Note_on_c, 1, 52, 0
1, 4824, Note_on_c, 1, 60, 70
1, 4847, Note_on_c, 1, 60, 0
1, 4848, Note_on_c, 1, 55, 70
1, 4871, Note_on_c, 1, 55, 0
1, 4872, Note_on_c, 1, 60, 70
1, 4895, Note_on_c, 1, 60, 0
1, 4896, Note_on_c, 1, 52, 70
1, 4919, Note_on_c, 1, 52, 0
1, 4920, Note_on_c, 1, 60, 70
1, 4943, Note_on_c, 1, 60, 0
1, 4944, Note_on_c, 1, 55, 70
1, 4967, Note_on_c, 1, 55, 0
1, 4968, Note_on_c, 1, 60, 70
1, 4991, Note_on_c, 1, 60, 0
1, 4992, Note_on_c, 0, 82, 0
1, 4992, Note_on_c, 0, 70, 0
1, 4992, Note_on_c, 1, 53, 70
1, 5015, Note_on_c, 1, 53, 0
1, 5016, Note_on_c, 0, 81, 82
1, 5016, Note_on_c, 1, 60, 70
1, 5039, Note_on_c, 0, 81, 0
1, 5039, Note_on_c, 1, 60, 0
1, 5040, Note_on_c, 0, 80, 82
1, 5040, Note_on_c, 1, 57, 70
1, 5063, Note_on_c, 0, 80, 0
1, 5063, Note_on_c, 1, 57, 0
1, 5064, Note_on_c, 0, 81, 82
1, 5064, Note_on_c, 1, 60, 70
1, 5087, Note_on_c, 0, 81, 0
1, 5087, Note_on_c, 1, 60, 0
1, 5088, Note_on_c, 1, 52, 70
1, 5111, Note_on_c, 1, 52, 0
1, 5112, Note_on_c, 0, 79, 82
1, 5112, Note_on_c, 1, 61, 70
1, 5135, Note_on_c, 0, 79, 0
1, 5135, Note_on_c, 1, 61, 0
1, 5136, Note_on_c, 0, 78, 82
1, 5136, Note_on_c, 1, 55, 70
1, 5159, Note_on_c, 0, 78, 0
1, 5159, Note_on_c, 1, 55, 0
1, 5160, Note_on_c, 0, 79, 82
1, 5160, Note_on_c, 1, 61, 70
1, 5183, Note_on_c, 0, 79, 0
1, 5183, Note_on_c, 1, 61, 0
1, 5184, Note_on_c, 1, 50, 70
1, 5207, Note_on_c, 1, 50, 0
1, 5208, Note_on_c, 0, 78, 82
1, 5208, Note_on_c, 1, 60, 70
1, 5231, Note_on_c, 0, 78, 0
1, 5231, Note_on_c, 1, 60, 0
1, 5232, Note_on_c, 0, 79, 82
1, 5232, Note_on_c, 1, 57, 70
1, 5238, Note_on_c, 0, 79, 0
1, 5238, Note_on_c, 0, 78, 82
1, 5244, Note_on_c, 0, 78, 0
1, 5244, Note_on_c, 0, 76, 82
1, 5250, Note_on_c, 0, 76, 0
1, 5250, Note_on_c, 0, 78, 82
1, 5255, Note_on_c, 1, 57, 0
1, 5256, Note_on_c, 1, 60, 70
1, 5277, Note_on_c, 0, 78, 0
1, 5279, Note_on_c, 1, 60, 0
1, 5280, Note_on_c, 1, 55, 70
1, 5303, Note_on_c, 1, 55, 0
1, 5304, Note_on_c, 0, 77, 82
1, 5304, Note_on_c, 1, 62, 70
1, 5327, Note_on_c, 0, 77, 0
1, 5327, Note_on_c, 1, 62, 0
1, 5328, Note_on_c, 0, 79, 82
1, 5328, Note_on_c, 1, 59, 70
1, 5334, Note_on_c, 0, 79, 0
1, 5334, Note_on_c, 0, 77, 82
1, 5340, Note_on_c, 0, 77, 0
1, 5340, Note_on_c, 0, 76, 82
1, 5346, Note_on_c, 0, 76, 0
1, 5346, Note_on_c, 0, 77, 82
1, 5351, Note_on_c, 1, 59, 0
1, 5352, Note_on_c, 1, 62, 70
1, 5373, Note_on_c, 0, 77, 0
1, 5375, Note_on_c, 1, 62, 0
1, 5376, Note_on_c, 1, 48, 70
1, 5399, Note_on_c, 1, 48, 0
1, 5400, Note_on_c, 0, 76, 82
1, 5400, Note_on_c, 1, 60, 70
1, 5423, Note_on_c, 0, 76, 0
1, 5423, Note_on_c, 1, 60, 0
1, 5424, Note_on_c, 0, 77, 85
1, 5424, Note_on_c, 1, 52, 70
1, 5447, Note_on_c, 0, 77, 0
1, 5447, Note_on_c, 1, 52, 0
1, 5448, Note_on_c, 0, 79, 88
1, 5448, Note_on_c, 1, 60, 70
1, 5471, Note_on_c, 0, 79, 0
1, 5471, Note_on_c, 1, 60, 0
1, 5472, Note_on_c, 0, 79, 92
1, 5472, Note_on_c, 1, 53, 70
1, 5495, Note_on_c, 0, 79, 0
1, 5495, Note_on_c, 1, 53, 0
1, 5496, Note_on_c, 0, 69, 95
1, 5496, Note_on_c, 1, 62, 70
1, 5519, Note_on_c, 0, 69, 0
1, 5519, Note_on_c, 1, 62, 0
1, 5520, Note_on_c, 0, 77, 99
1, 5520, Note_on_c, 1, 57, 70
1, 5543, Note_on_c, 0, 77, 0
1, 5543, Note_on_c, 1, 57, 0
1, 5544, Note_on_c, 0, 74, 102
1, 5544, Note_on_c, 1, 62, 70
1, 5567, Note_on_c, 0, 74, 0
1, 5567, Note_on_c, 1, 62, 0
1, 5568, Note_on_c, 0, 72, 106
1, 5568, Note_on_c, 1, 55, 70
1, 5591, Note_on_c, 1, 55, 0
1, 5592, Note_on_c, 1, 64, 70
1, 5615, Note_on_c, 1, 64, 0
1, 5616, Note_on_c, 1, 60, 70
1, 5639, Note_on_c, 1, 60, 0
1, 5640, Note_on_c, 1, 64, 70
1, 5657, Note_on_c, 0, 72, 0
1, 5663, Note_on_c, 1, 64, 0
1, 5664, Note_on_c, 0, 72, 94
1, 5664, Note_on_c, 1, 55, 70
1, 5671, Note_on_c, 0, 72, 0
1, 5671, Note_on_c, 0, 71, 93
1, 5678, Note_on_c, 0, 71, 0
1, 5678, Note_on_c, 0, 72, 92
1, 5685, Note_on_c, 0, 72, 0
1, 5685, Note_on_c, 0, 71, 91
1, 5687, Note_on_c, 1, 55, 0
1, 5688, Note_on_c, 1, 65, 70
1, 5692, Note_on_c, 0, 71, 0
1, 5692, Note_on_c, 0, 72, 91
1, 5699, Note_on_c, 0, 72, 0
1, 5699, Note_on_c, 0, 71, 90
1, 5706, Note_on_c, 0, 71, 0
1, 5706, Note_on_c, 0, 72, 89
1, 5711, Note_on_c, 1, 65, 0
1, 5712, Note_on_c, 1, 62, 70
1, 5713, Note_on_c, 0, 72, 0
1, 5713, Note_on_c, 0, 71, 88
1, 5720, Note_on_c, 0, 71, 0
1, 5720, Note_on_c, 0, 72, 88
1, 5727, Note_on_c, 0, 72, 0
1, 5727, Note_on_c, 0, 71, 87
1, 5734, Note_on_c, 0, 71, 0
1, 5734, Note_on_c, 0, 69, 86
1, 5735, Note_on_c, 1, 62, 0
1, 5736, Note_on_c, 1, 65, 70
1, 5748, Note_on_c, 0, 69, 0
1, 5748, Note_on_c, 0, 71, 85
1, 5759, Note_on_c, 1, 65, 0
1, 5760, Note_on_c, 0, 71, 0
1, 5760, Note_on_c, 1, 48, 70
1, 5783, Note_on_c, 1, 48, 0
1, 5784, Note_on_c, 0, 84, 82
1, 5784, Note_on_c, 1, 60, 70
1, 5807, Note_on_c, 0, 84, 0
1, 5807, Note_on_c, 1, 60, 0
1, 5808, Note_on_c, 0, 88, 85
1, 5808, Note_on_c, 1, 52, 70
1, 5831, Note_on_c, 0, 88, 0
1, 5831, Note_on_c, 1, 52, 0
1, 5832, Note_on_c, 0, 84, 88
1, 5832, Note_on_c, 1, 60, 70
1, 5855, Note_on_c, 0, 84, 0
1, 5855, Note_on_c, 1, 60, 0
1, 5856, Note_on_c, 0, 83, 92
1, 5856, Note_on_c, 1, 53, 70
1, 5879, Note_on_c, 0, 83, 0
1, 5879, Note_on_c, 1, 53, 0
1, 5880, Note_on_c, 0, 81, 95
1, 5880, Note_on_c, 1, 60, 70
1, 5903, Note_on_c, 0, 81, 0
1, 5903, Note_on_c, 1, 60, 0
1, 5904, Note_on_c, 0, 79, 99
1, 5904, Note_on_c, 1, 57, 70
1, 5927, Note_on_c, 0, 79, 0
1, 5927, Note_on_c, 1, 57, 0
1, 5928, Note_on_c, 0, 77, 102
1, 5928, Note_on_c, 1, 60, 70
1, 5951, Note_on_c, 0, 77, 0
1, 5951, Note_on_c, 1, 60, 0
1, 5952, Note_on_c, 0, 76, 106
1, 5952, Note_on_c, 1, 55, 70
1, 5975, Note_on_c, 1, 55, 0
1, 5976, Note_on_c, 1, 64, 70
1, 5999, Note_on_c, 1, 64, 0
1, 6000, Note_on_c, 1, 60, 70
1, 6023, Note_on_c, 1, 60, 0
1, 6024, Note_on_c, 1, 64, 70
1, 6041, Note_on_c, 0, 76, 0
1, 6047, Note_on_c, 1, 64, 0
1, 6048, Note_on_c, 0, 76, 106
1, 6048, Note_on_c, 1, 55, 70
1, 6055, Note_on_c, 0, 76, 0
1, 6055, Note_on_c, 0, 74, 104
1, 6062, Note_on_c, 0, 74, 0
1, 6062, Note_on_c, 0, 76, 103
1, 6069, Note_on_c, 0, 76, 0
1, 6069, Note_on_c, 0, 74, 101
1, 6071, Note_on_c, 1, 55, 0
1, 6072, Note_on_c, 1, 65, 70
1, 6076, Note_on_c, 0, 74, 0
1, 6076, Note_on_c, 0, 76, 100
1, 6083, Note_on_c, 0, 76, 0
1, 6083, Note_on_c, 0, 74, 98
1, 6090, Note_on_c, 0, 74, 0
1, 6090, Note_on_c, 0, 76, 97
1, 6095, Note_on_c, 1, 65, 0
1, 6096, Note_on_c, 1, 62, 70
1, 6097, Note_on_c, 0, 76, 0
1, 6097, Note_on_c, 0, 74, 95
1, 6104, Note_on_c, 0, 74, 0
1, 6104, Note_on_c, 0, 76, 94
1, 6111, Note_on_c, 0, 76, 0
1, 6111, Note_on_c, 0, 74, 92
1, 6118, Note_on_c, 0, 74, 0
1, 6118, Note_on_c, 0, 72, 91
1, 6119, Note_on_c, 1, 62, 0
1, 6120, Note_on_c, 1, 65, 70
1, 6132, Note_on_c, 0, 72, 0
1, 6132, Note_on_c, 0, 74, 88
1, 6143, Note_on_c, 1, 65, 0
1, 6144, Note_on_c, 0, 74, 0
1, 6144, Note_on_c, 0, 72, 82
1, 6144, Note_on_c, 1, 64, 70
1, 6144, Note_on_c, 1, 60, 70
1, 6189, Note_on_c, 0, 72, 0
1, 6192, Note_on_c, 0, 76, 70
1, 6192, Note_on_c, 0, 72, 70
1, 6212, Note_on_c, 0, 76, 0
1, 6212, Note_on_c, 0, 72, 0
1, 6233, Note_on_c, 1, 64, 0
1, 6233, Note_on_c, 1, 60, 0
1, 6240, Note_on_c, 0, 76, 70
1, 6240, Note_on_c, 0, 72, 70
1, 6260, Note_on_c, 0, 76, 0
1, 6260, Note_on_c, 0, 72, 0
1, 6288, Note_on_c, 0, 76, 70
1, 6288, Note_on_c, 0, 72, 70
1, 6308, Note_on_c, 0, 76, 0
1, 6308, Note_on_c, 0, 72, 0
1, 6336, Note_on_c, 0, 72, 70
1, 6336, Note_on_c, 0, 77, 64
1, 6342, Note_on_c, 0, 77, 0
1, 6342, Note_on_c, 0, 76, 64
1, 6348, Note_on_c, 0, 76, 0
1, 6348, Note_on_c, 0, 74, 64
1, 6354, Note_on_c, 0, 74, 0
1, 6354, Note_on_c, 0, 76, 64
1, 6381, Note_on_c, 0, 72, 0
1, 6381, Note_on_c, 0, 76, 0
1, 6384, Note_on_c, 0, 79, 70
1, 6384, Note_on_c, 0, 76, 70
1, 6429, Note_on_c, 0, 79, 0
1, 6429, Note_on_c, 0, 76, 0
1, 6432, Note_on_c, 0, 76, 70
1, 6432, Note_on_c, 0, 72, 70
1, 6477, Note_on_c, 0, 76, 0
1, 6477, Note_on_c, 0, 72, 0
1, 6480, Note_on_c, 0, 72, 70
1, 6480, Note_on_c, 0, 69, 70
1, 6525, Note_on_c, 0, 72, 0
1, 6525, Note_on_c, 0, 69, 0
1, 6528, Note_on_c, 0, 69, 70
1, 6528, Note_on_c, 0, 65, 70
1, 6624, Note_on_c, 1, 53, 82
1, 6624, Note_on_c, 1, 41, 82
1, 6647, Note_on_c, 0, 69, 0
1, 6647, Note_on_c, 0, 65, 0
1, 6648, Note_on_c, 0, 69, 82
1, 6648, Note_on_c, 0, 65, 82
1, 6658, Note_on_c, 0, 69, 0
1, 6658, Note_on_c, 0, 65, 0
1, 6672, Note_on_c, 0, 71, 82
1, 6672, Note_on_c, 0, 67, 82
1, 6682, Note_on_c, 0, 71, 0
1, 6682, Note_on_c, 0, 67, 0
1, 6696, Note_on_c, 0, 72, 82
1, 6696, Note_on_c, 0, 69, 82
1, 6706, Note_on_c, 0, 72, 0
1, 6706, Note_on_c, 0, 69, 0
1, 6713, Note_on_c, 1, 53, 0
1, 6713, Note_on_c, 1, 41, 0
1, 6720, Note_on_c, 0, 72, 70
1, 6720, Note_on_c, 0, 69, 70
1, 6720, Note_on_c, 1, 55, 82
1, 6720, Note_on_c, 1, 43, 82
1, 6744, Note_on_c, 0, 72, 0
1, 6744, Note_on_c, 0, 69, 0
1, 6744, Note_on_c, 0, 71, 68
1, 6744, Note_on_c, 0, 67, 68
1, 6767, Note_on_c, 0, 71, 0
1, 6767, Note_on_c, 0, 67, 0
1, 6768, Note_on_c, 0, 69, 67
1, 6768, Note_on_c, 0, 65, 67
1, 6778, Note_on_c, 0, 69, 0
1, 6778, Note_on_c, 0, 65, 0
1, 6792, Note_on_c, 0, 67, 66
1, 6792, Note_on_c, 0, 64, 66
1, 6802, Note_on_c, 0, 67, 0
1, 6802, Note_on_c, 0, 64, 0
1, 6809, Note_on_c, 1, 55, 0
1, 6809, Note_on_c, 1, 43, 0
1, 6816, Note_on_c, 0, 67, 65
1, 6816, Note_on_c, 0, 64, 65
1, 6816, Note_on_c, 1, 55, 82
1, 6816, Note_on_c, 1, 43, 82
1, 6840, Note_on_c, 0, 67, 0
1, 6840, Note_on_c, 0, 64, 0
1, 6840, Note_on_c, 0, 65, 64
1, 6840, Note_on_c, 0, 62, 64
1, 6863, Note_on_c, 0, 65, 0
1, 6863, Note_on_c, 0, 62, 0
1, 6864, Note_on_c, 0, 64, 63
1, 6864, Note_on_c, 0, 60, 63
1, 6874, Note_on_c, 0, 64, 0
1, 6874, Note_on_c, 0, 60, 0
1, 6888, Note_on_c, 0, 62, 62
1, 6888, Note_on_c, 0, 59, 62
1, 6898, Note_on_c, 0, 62, 0
1, 6898, Note_on_c, 0, 59, 0
1, 6905, Note_on_c, 1, 55, 0
1, 6905, Note_on_c, 1, 43, 0
1, 6912, Note_on_c, 1, 48, 82
1, 6912, Note_on_c, 1, 36, 82
1, 6960, Note_on_c, 0, 72, 61
1, 6975, Note_on_c, 0, 72, 0
1, 6976, Note_on_c, 0, 76, 61
1, 6991, Note_on_c, 0, 76, 0
1, 6992, Note_on_c, 0, 84, 61
1, 7001, Note_on_c, 1, 48, 0
1, 7001, Note_on_c, 1, 36, 0
1, 7007, Note_on_c, 0, 84, 0
1, 7008, Note_on_c, 0, 72, 61
1, 7023, Note_on_c, 0, 72, 0
1, 7024, Note_on_c, 0, 76, 61
1, 7039, Note_on_c, 0, 76, 0
1, 7040, Note_on_c, 0, 84, 61
1, 7055, Note_on_c, 0, 84, 0
1, 7056, Note_on_c, 0, 72, 61
1, 7071, Note_on_c, 0, 72, 0
1, 7072, Note_on_c, 0, 76, 61
1, 7087, Note_on_c, 0, 76, 0
1, 7088, Note_on_c, 0, 84, 61
1, 7103, Note_on_c, 0, 84, 0
1, 7104, Note_on_c, 0, 72, 61
1, 7119, Note_on_c, 0, 72, 0
1, 7120, Note_on_c, 0, 76, 61
1, 7135, Note_on_c, 0, 76, 0
1, 7136, Note_on_c, 0, 84, 61
1, 7151, Note_on_c, 0, 84, 0
1, 7152, Note_on_c, 0, 76, 61
1, 7167, Note_on_c, 0, 76, 0
1, 7168, Note_on_c, 0, 79, 61
1, 7183, Note_on_c, 0, 79, 0
1, 7184, Note_on_c, 0, 88, 61
1, 7199, Note_on_c, 0, 88, 0
1, 7200, Note_on_c, 0, 72, 61
1, 7215, Note_on_c, 0, 72, 0
1, 7216, Note_on_c, 0, 76, 61
1, 7231, Note_on_c, 0, 76, 0
1, 7232, Note_on_c, 0, 84, 61
1, 7247, Note_on_c, 0, 84, 0
1, 7248, Note_on_c, 0, 69, 61
1, 7263, Note_on_c, 0, 69, 0
1, 7264, Note_on_c, 0, 72, 61
1, 7279, Note_on_c, 0, 72, 0
1, 7280, Note_on_c, 0, 81, 61
1, 7295, Note_on_c, 0, 81, 0
1, 7296, Note_on_c, 0, 65, 70
1, 7392, Note_on_c, 1, 53, 82
1, 7392, Note_on_c, 1, 41, 82
1, 7415, Note_on_c, 0, 65, 0
1, 7416, Note_on_c, 0, 72, 82
1, 7416, Note_on_c, 0, 69, 82
1, 7426, Note_on_c, 0, 72, 0
1, 7426, Note_on_c, 0, 69, 0
1, 7431, Note_on_c, 1, 53, 0
1, 7431, Note_on_c, 1, 41, 0
1, 7440, Note_on_c, 0, 71, 82
1, 7440, Note_on_c, 0, 67, 82
1, 7450, Note_on_c, 0, 71, 0
1, 7450, Note_on_c, 0, 67, 0
1, 7464, Note_on_c, 0, 69, 82
1, 7464, Note_on_c, 0, 65, 82
1, 7474, Note_on_c, 0, 69, 0
1, 7474, Note_on_c, 0, 65, 0
1, 7488, Note_on_c, 0, 69, 82
1, 7488, Note_on_c, 0, 65, 82
1, 7488, Note_on_c, 1, 55, 82
1, 7488, Note_on_c, 1, 43, 82
1, 7512, Note_on_c, 0, 69, 0
1, 7512, Note_on_c, 0, 65, 0
1, 7512, Note_on_c, 0, 67, 81
1, 7512, Note_on_c, 0, 64, 81
1, 7527, Note_on_c, 1, 55, 0
1, 7527, Note_on_c, 1, 43, 0
1, 7535, Note_on_c, 0, 67, 0
1, 7535, Note_on_c, 0, 64, 0
1, 7536, Note_on_c, 0, 65, 80
1, 7536, Note_on_c, 0, 62, 80
1, 7546, Note_on_c, 0, 65, 0
1, 7546, Note_on_c, 0, 62, 0
1, 7560, Note_on_c, 0, 64, 79
1, 7560, Note_on_c, 0, 60, 79
1, 7570, Note_on_c, 0, 64, 0
1, 7570, Note_on_c, 0, 60, 0
1, 7584, Note_on_c, 0, 64, 79
1, 7584, Note_on_c, 1, 53, 82
1, 7584, Note_on_c, 1, 43, 82
1, 7608, Note_on_c, 0, 64, 0
1, 7608, Note_on_c, 0, 62, 78
1, 7629, Note_on_c, 1, 53, 0
1, 7629, Note_on_c, 1, 43, 0
1, 7631, Note_on_c, 0, 62, 0
1, 7632, Note_on_c, 0, 60, 77
1, 7642, Note_on_c, 0, 60, 0
1, 7656, Note_on_c, 0, 59, 76
1, 7656, Note_on_c, 0, 53, 76
1, 7666, Note_on_c, 0, 59, 0
1, 7666, Note_on_c, 0, 53, 0
1, 7680, Note_on_c, 1, 59, 76
1, 7680, Note_on_c, 1, 53, 76
1, 7680, Note_on_c, 1, 48, 76
1, 7872, Note_on_c, 1, 59, 0
1, 7872, Note_on_c, 1, 53, 0
1, 7872, Note_on_c, 1, 36, 70
1, 7878, Note_on_c, 1, 40, 70
1, 7884, Note_on_c, 1, 43, 70
1, 7890, Note_on_c, 1, 52, 70
1, 7896, Note_on_c, 1, 55, 70
1, 7902, Note_on_c, 1, 60, 70
1, 7991, Note_on_c, 1, 60, 0
1, 7991, Note_on_c, 1, 55, 0
1, 7991, Note_on_c, 1, 52, 0
1, 7991, Note_on_c, 1, 48, 0
1, 7991, Note_on_c, 1, 43, 0
1, 7991, Note_on_c, 1, 40, 0
1, 7991, Note_on_c, 1, 36, 0
1, 8064, Note_on_c, 0, 57, 82
1, 8064, Note_on_c, 1, 41, 82
1, 8070, Note_on_c, 1, 45, 82
1, 8076, Note_on_c, 0, 60, 82
1, 8076, Note_on_c, 1, 48, 82
1, 8082, Note_on_c, 1, 53, 82
1, 8088, Note_on_c, 0, 65, 82
1, 8109, Note_on_c, 1, 53, 0
1, 8109, Note_on_c, 1, 48, 0
1, 8109, Note_on_c, 1, 45, 0
1, 8109, Note_on_c, 1, 41, 0
1, 8131, Note_on_c, 0, 65, 0
1, 8131, Note_on_c, 0, 60, 0
1, 8131, Note_on_c, 0, 57, 0
1, 8136, Note_on_c, 0, 60, 82
1, 8159, Note_on_c, 0, 60, 0
1, 8160, Note_on_c, 0, 70, 76
1, 8183, Note_on_c, 0, 70, 0
1, 8184, Note_on_c, 0, 69, 76
1, 8207, Note_on_c, 0, 69, 0
1, 8208, Note_on_c, 0, 67, 76
1, 8231, Note_on_c, 0, 67, 0
1, 8232, Note_on_c, 0, 65, 76
1, 8255, Note_on_c, 0, 65, 0
1, 8256, Note_on_c, 0, 64, 76
1, 8256, Note_on_c, 1, 58, 70
1, 8256, Note_on_c, 1, 55, 70
1, 8256, Note_on_c, 1, 48, 70
1, 8276, Note_on_c, 0, 64, 0
1, 8276, Note_on_c, 1, 58, 0
1, 8276, Note_on_c, 1, 55, 0
1, 8276, Note_on_c, 1, 48, 0
1, 8304, Note_on_c, 0, 65, 76
1, 8324, Note_on_c, 0, 65, 0
1, 8352, Note_on_c, 0, 67, 76
1, 8372, Note_on_c, 0, 67, 0
1, 8400, Note_on_c, 0, 69, 76
1, 8420, Note_on_c, 0, 69, 0
1, 8448, Note_on_c, 0, 64, 82
1, 8448, Note_on_c, 1, 52, 82
1, 8454, Note_on_c, 1, 55, 82
1, 8460, Note_on_c, 0, 67, 82
1, 8460, Note_on_c, 1, 58, 82
1, 8466, Note_on_c, 1, 60, 82
1, 8472, Note_on_c, 0, 70, 82
1, 8493, Note_on_c, 1, 60, 0
1, 8493, Note_on_c, 1, 58, 0
1, 8493, Note_on_c, 1, 55, 0
1, 8493, Note_on_c, 1, 52, 0
1, 8515, Note_on_c, 0, 70, 0
1, 8515, Note_on_c, 0, 67, 0
1, 8515, Note_on_c, 0, 64, 0
1, 8520, Note_on_c, 0, 67, 82
1, 8543, Note_on_c, 0, 67, 0
1, 8544, Note_on_c, 0, 76, 76
1, 8567, Note_on_c, 0, 76, 0
1, 8568, Note_on_c, 0, 74, 76
1, 8591, Note_on_c, 0, 74, 0
1, 8592, Note_on_c, 0, 72, 76
1, 8615, Note_on_c, 0, 72, 0
1, 8616, Note_on_c, 0, 70, 76
1, 8639, Note_on_c, 0, 70, 0
1, 8640, Note_on_c, 0, 69, 76
1, 8640, Note_on_c, 1, 60, 82
1, 8640, Note_on_c, 1, 53, 82
1, 8660, Note_on_c, 0, 69, 0
1, 8660, Note_on_c, 1, 60, 0
1, 8660, Note_on_c, 1, 53, 0
1, 8688, Note_on_c, 0, 70, 74
1, 8708, Note_on_c, 0, 70, 0
1, 8736, Note_on_c, 0, 72, 73
1, 8756, Note_on_c, 0, 72, 0
1, 8784, Note_on_c, 0, 73, 71
1, 8804, Note_on_c, 0, 73, 0
1, 8832, Note_on_c, 0, 74, 70
1, 8832, Note_on_c, 1, 65, 61
1, 8832, Note_on_c, 1, 58, 61
1, 8899, Note_on_c, 0, 74, 0
1, 8904, Note_on_c, 0, 76, 70
1, 8927, Note_on_c, 0, 76, 0
1, 8928, Note_on_c, 0, 79, 70
1, 8951, Note_on_c, 0, 79, 0
1, 8952, Note_on_c, 0, 77, 70
1, 8975, Note_on_c, 0, 77, 0
1, 8976, Note_on_c, 0, 76, 70
1, 8999, Note_on_c, 0, 76, 0
1, 9000, Note_on_c, 0, 74, 70
1, 9023, Note_on_c, 0, 74, 0
1, 9024, Note_on_c, 0, 72, 86
1, 9024, Note_on_c, 1, 58, 0
1, 9024, Note_on_c, 1, 57, 61
1, 9069, Note_on_c, 1, 65, 0
1, 9069, Note_on_c, 1, 57, 0
1, 9072, Note_on_c, 0, 72, 0
1, 9072, Note_on_c, 0, 72, 70
1, 9117, Note_on_c, 0, 72, 0
1, 9120, Note_on_c, 0, 70, 70
1, 9127, Note_on_c, 0, 70, 0
1, 9127, Note_on_c, 0, 72, 70
1, 9134, Note_on_c, 0, 72, 0
1, 9134, Note_on_c, 0, 70, 70
1, 9141, Note_on_c, 0, 70, 0
1, 9141, Note_on_c, 0, 72, 70
1, 9148, Note_on_c, 0, 72, 0
1, 9148, Note_on_c, 0, 70, 70
1, 9155, Note_on_c, 0, 70, 0
1, 9155, Note_on_c, 0, 69, 70
1, 9162, Note_on_c, 0, 69, 0
1, 9162, Note_on_c, 0, 70, 70
1, 9168, Note_on_c, 0, 70, 0
1, 9168, Note_on_c, 0, 69, 70
1, 9213, Note_on_c, 0, 69, 0
1, 9216, Note_on_c, 0, 67, 70
1, 9216, Note_on_c, 1, 58, 82
1, 9216, Note_on_c, 1, 46, 61
1, 9261, Note_on_c, 0, 67, 0
1, 9264, Note_on_c, 0, 69, 71
1, 9276, Note_on_c, 0, 69, 0
1, 9276, Note_on_c, 0, 67, 71
1, 9288, Note_on_c, 0, 67, 0
1, 9288, Note_on_c, 0, 66, 72
1, 9300, Note_on_c, 0, 66, 0
1, 9300, Note_on_c, 0, 67, 72
1, 9312, Note_on_c, 0, 67, 0
1, 9312, Note_on_c, 0, 70, 73
1, 9357, Note_on_c, 0, 70, 0
1, 9360, Note_on_c, 0, 74, 74
1, 9393, Note_on_c, 1, 58, 0
1, 9393, Note_on_c, 1, 46, 0
1, 9405, Note_on_c, 0, 74, 0
1, 9408, Note_on_c, 0, 65, 76
1, 9408, Note_on_c, 1, 57, 82
1, 9408, Note_on_c, 1, 48, 61
1, 9504, Note_on_c, 1, 57, 0
1, 9504, Note_on_c, 1, 55, 82
1, 9541, Note_on_c, 0, 65, 0
1, 9552, Note_on_c, 0, 64, 71
1, 9558, Note_on_c, 0, 64, 0
1, 9558, Note_on_c, 0, 65, 71
1, 9564, Note_on_c, 0, 65, 0
1, 9564, Note_on_c, 0, 64, 71
1, 9585, Note_on_c, 1, 48, 0
1, 9593, Note_on_c, 1, 55, 0
1, 9597, Note_on_c, 0, 64, 0
1, 9600, Note_on_c, 0, 57, 76
1, 9600, Note_on_c, 1, 41, 82
1, 9606, Note_on_c, 1, 45, 82
1, 9612, Note_on_c, 0, 60, 76
1, 9612, Note_on_c, 1, 48, 82
1, 9618, Note_on_c, 1, 53, 82
1, 9624, Note_on_c, 0, 65, 76
1, 9667, Note_on_c, 0, 65, 0
1, 9667, Note_on_c, 0, 60, 0
1, 9667, Note_on_c, 0, 57, 0
1, 9672, Note_on_c, 0, 60, 76
1, 9693, Note_on_c, 1, 53, 0
1, 9693, Note_on_c, 1, 48, 0
1, 9693, Note_on_c, 1, 45, 0
1, 9693, Note_on_c, 1, 41, 0
1, 9695, Note_on_c, 0, 60, 0
1, 9696, Note_on_c, 0, 70, 76
1, 9719, Note_on_c, 0, 70, 0
1, 9720, Note_on_c, 0, 69, 76
1, 9743, Note_on_c, 0, 69, 0
1, 9744, Note_on_c, 0, 67, 76
1, 9767, Note_on_c, 0, 67, 0
1, 9768, Note_on_c, 0, 65, 76
1, 9791, Note_on_c, 0, 65, 0
1, 9792, Note_on_c, 0, 64, 76
1, 9792, Note_on_c, 1, 58, 70
1, 9792, Note_on_c, 1, 48, 61
1, 9826, Note_on_c, 0, 64, 0
1, 9828, Note_on_c, 0, 60, 77
1, 9837, Note_on_c, 1, 58, 0
1, 9840, Note_on_c, 0, 60, 0
1, 9840, Note_on_c, 0, 65, 77
1, 9840, Note_on_c, 1, 57, 70
1, 9874, Note_on_c, 0, 65, 0
1, 9876, Note_on_c, 0, 60, 78
1, 9885, Note_on_c, 1, 57, 0
1, 9888, Note_on_c, 0, 60, 0
1, 9888, Note_on_c, 0, 67, 79
1, 9888, Note_on_c, 1, 55, 70
1, 9922, Note_on_c, 0, 67, 0
1, 9924, Note_on_c, 0, 60, 80
1, 9933, Note_on_c, 1, 55, 0
1, 9936, Note_on_c, 0, 60, 0
1, 9936, Note_on_c, 0, 69, 80
1, 9936, Note_on_c, 1, 53, 70
1, 9970, Note_on_c, 0, 69, 0
1, 9972, Note_on_c, 0, 60, 81
1, 9981, Note_on_c, 1, 53, 0
1, 9984, Note_on_c, 0, 60, 0
1, 9984, Note_on_c, 0, 70, 98
1, 9984, Note_on_c, 1, 55, 70
1, 9984, Note_on_c, 1, 52, 70
1, 10056, Note_on_c, 0, 70, 0
1, 10056, Note_on_c, 0, 67, 76
1, 10079, Note_on_c, 0, 67, 0
1, 10080, Note_on_c, 0, 76, 76
1, 10103, Note_on_c, 0, 76, 0
1, 10104, Note_on_c, 0, 74, 76
1, 10127, Note_on_c, 0, 74, 0
1, 10128, Note_on_c, 0, 72, 76
1, 10151, Note_on_c, 0, 72, 0
1, 10152, Note_on_c, 0, 70, 76
1, 10161, Note_on_c, 1, 55, 0
1, 10161, Note_on_c, 1, 52, 0
1, 10161, Note_on_c, 1, 48, 0
1, 10175, Note_on_c, 0, 70, 0
1, 10176, Note_on_c, 0, 69, 76
1, 10176, Note_on_c, 1, 53, 70
1, 10176, Note_on_c, 1, 41, 70
1, 10196, Note_on_c, 0, 69, 0
1, 10215, Note_on_c, 1, 53, 0
1, 10215, Note_on_c, 1, 41, 0
1, 10224, Note_on_c, 0, 70, 76
1, 10244, Note_on_c, 0, 70, 0
1, 10272, Note_on_c, 0, 72, 76
1, 10292, Note_on_c, 0, 72, 0
1, 10320, Note_on_c, 0, 73, 76
1, 10340, Note_on_c, 0, 73, 0
1, 10368, Note_on_c, 1, 58, 70
1, 10368, Note_on_c, 1, 46, 70
1, 10368, Note_on_c, 1, 58, 61
1, 10392, Note_on_c, 0, 73, 76
1, 10415, Note_on_c, 0, 73, 0
1, 10416, Note_on_c, 0, 74, 76
1, 10439, Note_on_c, 0, 74, 0
1, 10440, Note_on_c, 0, 76, 77
1, 10457, Note_on_c, 1, 58, 0
1, 10457, Note_on_c, 1, 46, 0
1, 10457, Note_on_c, 1, 58, 0
1, 10463, Note_on_c, 0, 76, 0
1, 10464, Note_on_c, 0, 77, 77
1, 10487, Note_on_c, 0, 77, 0
1, 10488, Note_on_c, 0, 78, 78
1, 10511, Note_on_c, 0, 78, 0
1, 10512, Note_on_c, 0, 79, 78
1, 10535, Note_on_c, 0, 79, 0
1, 10536, Note_on_c, 0, 81, 79
1, 10559, Note_on_c, 0, 81, 0
1, 10560, Note_on_c, 0, 82, 79
1, 10583, Note_on_c, 0, 82, 0
1, 10584, Note_on_c, 0, 83, 80
1, 10607, Note_on_c, 0, 83, 0
1, 10608, Note_on_c, 0, 84, 80
1, 10631, Note_on_c, 0, 84, 0
1, 10632, Note_on_c, 0, 85, 81
1, 10655, Note_on_c, 0, 85, 0
1, 10656, Note_on_c, 0, 86, 97
1, 10656, Note_on_c, 1, 70, 70
1, 10656, Note_on_c, 1, 58, 70
1, 10680, Note_on_c, 0, 86, 0
1, 10680, Note_on_c, 0, 81, 82
1, 10703, Note_on_c, 0, 81, 0
1, 10704, Note_on_c, 0, 82, 82
1, 10727, Note_on_c, 0, 82, 0
1, 10728, Note_on_c, 0, 79, 81
1, 10745, Note_on_c, 1, 70, 0
1, 10745, Note_on_c, 1, 58, 0
1, 10751, Note_on_c, 0, 79, 0
1, 10752, Note_on_c, 0, 77, 81
1, 10752, Note_on_c, 1, 69, 70
1, 10752, Note_on_c, 1, 60, 70
1, 10885, Note_on_c, 0, 77, 0
1, 10896, Note_on_c, 0, 79, 78
1, 10919, Note_on_c, 0, 79, 0
1, 10920, Note_on_c, 0, 77, 78
1, 10943, Note_on_c, 0, 77, 0
1, 10944, Note_on_c, 0, 76, 77
1, 10944, Note_on_c, 1, 69, 0
1, 10944, Note_on_c, 1, 67, 70
1, 11033, Note_on_c, 0, 76, 0
1, 11033, Note_on_c, 1, 67, 0
1, 11033, Note_on_c, 1, 60, 0
1, 11136, Note_on_c, 0, 79, 76
1, 11136, Note_on_c, 1, 60, 61
1, 11159, Note_on_c, 1, 60, 0
1, 11160, Note_on_c, 1, 67, 61
1, 11183, Note_on_c, 1, 67, 0
1, 11184, Note_on_c, 1, 64, 61
1, 11207, Note_on_c, 1, 64, 0
1, 11208, Note_on_c, 1, 67, 61
1, 11225, Note_on_c, 0, 79, 0
1, 11231, Note_on_c, 1, 67, 0
1, 11232, Note_on_c, 0, 77, 76
1, 11232, Note_on_c, 1, 60, 61
1, 11255, Note_on_c, 0, 77, 0
1, 11255, Note_on_c, 1, 60, 0
1, 11256, Note_on_c, 0, 76, 76
1, 11256, Note_on_c, 1, 67, 61
1, 11279, Note_on_c, 0, 76, 0
1, 11279, Note_on_c, 1, 67, 0
1, 11280, Note_on_c, 0, 74, 76
1, 11280, Note_on_c, 1, 64, 61
1, 11303, Note_on_c, 0, 74, 0
1, 11303, Note_on_c, 1, 64, 0
1, 11304, Note_on_c, 0, 72, 76
1, 11304, Note_on_c, 1, 67, 61
1, 11327, Note_on_c, 0, 72, 0
1, 11327, Note_on_c, 1, 67, 0
1, 11328, Note_on_c, 0, 72, 76
1, 11328, Note_on_c, 1, 62, 61
1, 11351, Note_on_c, 1, 62, 0
1, 11352, Note_on_c, 1, 67, 61
1, 11375, Note_on_c, 1, 67, 0
1, 11376, Note_on_c, 1, 65, 61
1, 11399, Note_on_c, 1, 65, 0
1, 11400, Note_on_c, 1, 67, 61
1, 11423, Note_on_c, 1, 67, 0
1, 11424, Note_on_c, 0, 72, 0
1, 11424, Note_on_c, 0, 71, 76
1, 11424, Note_on_c, 1, 62, 61
1, 11430, Note_on_c, 0, 71, 0
1, 11430, Note_on_c, 0, 72, 76
1, 11436, Note_on_c, 0, 72, 0
1, 11436, Note_on_c, 0, 71, 76
1, 11447, Note_on_c, 1, 62, 0
1, 11448, Note_on_c, 1, 67, 61
1, 11471, Note_on_c, 1, 67, 0
1, 11472, Note_on_c, 1, 65, 61
1, 11491, Note_on_c, 0, 71, 0
1, 11495, Note_on_c, 1, 65, 0
1, 11496, Note_on_c, 0, 71, 76
1, 11496, Note_on_c, 1, 67, 61
1, 11519, Note_on_c, 0, 71, 0
1, 11519, Note_on_c, 1, 67, 0
1, 11520, Note_on_c, 0, 72, 76
1, 11520, Note_on_c, 1, 60, 61
1, 11543, Note_on_c, 0, 72, 0
1, 11543, Note_on_c, 1, 60, 0
1, 11544, Note_on_c, 0, 74, 76
1, 11544, Note_on_c, 1, 67, 61
1, 11567, Note_on_c, 0, 74, 0
1, 11567, Note_on_c, 1, 67, 0
1, 11568, Note_on_c, 0, 76, 77
1, 11568, Note_on_c, 1, 64, 61
1, 11591, Note_on_c, 0, 76, 0
1, 11591, Note_on_c, 1, 64, 0
1, 11592, Note_on_c, 0, 77, 78
1, 11592, Note_on_c, 1, 67, 61
1, 11615, Note_on_c, 0, 77, 0
1, 11615, Note_on_c, 1, 67, 0
1, 11616, Note_on_c, 0, 79, 79
1, 11616, Note_on_c, 1, 60, 61
1, 11639, Note_on_c, 0, 79, 0
1, 11639, Note_on_c, 1, 60, 0
1, 11640, Note_on_c, 0, 81, 80
1, 11640, Note_on_c, 1, 67, 61
1, 11663, Note_on_c, 0, 81, 0
1, 11663, Note_on_c, 1, 67, 0
1, 11664, Note_on_c, 0, 83, 81
1, 11664, Note_on_c, 1, 64, 61
1, 11687, Note_on_c, 0, 83, 0
1, 11687, Note_on_c, 1, 64, 0
1, 11688, Note_on_c, 0, 84, 82
1, 11688, Note_on_c, 1, 67, 61
1, 11711, Note_on_c, 0, 84, 0
1, 11711, Note_on_c, 1, 67, 0
1, 11712, Note_on_c, 0, 84, 97
1, 11712, Note_on_c, 1, 62, 61
1, 11735, Note_on_c, 1, 62, 0
1, 11736, Note_on_c, 0, 84, 0
1, 11736, Note_on_c, 0, 83, 80
1, 11736, Note_on_c, 1, 67, 61
1, 11759, Note_on_c, 0, 83, 0
1, 11759, Note_on_c, 1, 67, 0
1, 11760, Note_on_c, 0, 81, 79
1, 11760, Note_on_c, 1, 65, 61
1, 11783, Note_on_c, 0, 81, 0
1, 11783, Note_on_c, 1, 65, 0
1, 11784, Note_on_c, 0, 79, 79
1, 11784, Note_on_c, 1, 67, 61
1, 11807, Note_on_c, 0, 79, 0
1, 11807, Note_on_c, 1, 67, 0
1, 11808, Note_on_c, 0, 79, 94
1, 11808, Note_on_c, 1, 62, 61
1, 11831, Note_on_c, 1, 62, 0
1, 11832, Note_on_c, 0, 79, 0
1, 11832, Note_on_c, 0, 77, 77
1, 11832, Note_on_c, 1, 67, 61
1, 11855, Note_on_c, 0, 77, 0
1, 11855, Note_on_c, 1, 67, 0
1, 11856, Note_on_c, 0, 76, 76
1, 11856, Note_on_c, 1, 65, 61
1, 11879, Note_on_c, 0, 76, 0
1, 11879, Note_on_c, 1, 65, 0
1, 11880, Note_on_c, 0, 74, 76
1, 11880, Note_on_c, 1, 67, 61
1, 11903, Note_on_c, 0, 74, 0
1, 11903, Note_on_c, 1, 67, 0
1, 11904, Note_on_c, 0, 79, 76
1, 11904, Note_on_c, 1, 60, 61
1, 11927, Note_on_c, 1, 60, 0
1, 11928, Note_on_c, 1, 67, 61
1, 11951, Note_on_c, 1, 67, 0
1, 11952, Note_on_c, 1, 64, 61
1, 11971, Note_on_c, 0, 79, 0
1, 11975, Note_on_c, 1, 64, 0
1, 11976, Note_on_c, 0, 81, 76
1, 11976, Note_on_c, 1, 67, 61
1, 11988, Note_on_c, 0, 81, 0
1, 11988, Note_on_c, 0, 79, 76
1, 11999, Note_on_c, 1, 67, 0
1, 12000, Note_on_c, 0, 79, 0
1, 12000, Note_on_c, 0, 77, 76
1, 12000, Note_on_c, 1, 60, 61
1, 12023, Note_on_c, 0, 77, 0
1, 12023, Note_on_c, 1, 60, 0
1, 12024, Note_on_c, 0, 76, 76
1, 12024, Note_on_c, 1, 67, 61
1, 12047, Note_on_c, 0, 76, 0
1, 12047, Note_on_c, 1, 67, 0
1, 12048, Note_on_c, 0, 74, 76
1, 12048, Note_on_c, 1, 64, 61
1, 12071, Note_on_c, 0, 74, 0
1, 12071, Note_on_c, 1, 64, 0
1, 12072, Note_on_c, 0, 72, 76
1, 12072, Note_on_c, 1, 67, 61
1, 12095, Note_on_c, 0, 72, 0
1, 12095, Note_on_c, 1, 67, 0
1, 12096, Note_on_c, 0, 72, 76
1, 12096, Note_on_c, 1, 62, 61
1, 12119, Note_on_c, 1, 62, 0
1, 12120, Note_on_c, 1, 67, 61
1, 12143, Note_on_c, 1, 67, 0
1, 12144, Note_on_c, 1, 65, 61
1, 12167, Note_on_c, 1, 65, 0
1, 12168, Note_on_c, 1, 67, 61
1, 12191, Note_on_c, 1, 67, 0
1, 12192, Note_on_c, 0, 72, 0
1, 12192, Note_on_c, 0, 71, 76
1, 12192, Note_on_c, 1, 62, 61
1, 12198, Note_on_c, 0, 71, 0
1, 12198, Note_on_c, 0, 72, 76
1, 12204, Note_on_c, 0, 72, 0
1, 12204, Note_on_c, 0, 71, 76
1, 12215, Note_on_c, 1, 62, 0
1, 12216, Note_on_c, 1, 67, 61
1, 12239, Note_on_c, 1, 67, 0
1, 12240, Note_on_c, 1, 65, 61
1, 12259, Note_on_c, 0, 71, 0
1, 12263, Note_on_c, 1, 65, 0
1, 12264, Note_on_c, 0, 77, 76
1, 12264, Note_on_c, 1, 67, 61
1, 12287, Note_on_c, 0, 77, 0
1, 12287, Note_on_c, 1, 67, 0
1, 12288, Note_on_c, 0, 76, 76
1, 12288, Note_on_c, 1, 60, 61
1, 12298, Note_on_c, 0, 76, 0
1, 12311, Note_on_c, 1, 60, 0
1, 12312, Note_on_c, 0, 77, 76
1, 12312, Note_on_c, 1, 67, 61
1, 12322, Note_on_c, 0, 77, 0
1, 12335, Note_on_c, 1, 67, 0
1, 12336, Note_on_c, 0, 79, 77
1, 12336, Note_on_c, 1, 64, 61
1, 12346, Note_on_c, 0, 79, 0
1, 12359, Note_on_c, 1, 64, 0
1, 12360, Note_on_c, 0, 81, 78
1, 12360, Note_on_c, 1, 67, 61
1, 12370, Note_on_c, 0, 81, 0
1, 12383, Note_on_c, 1, 67, 0
1, 12384, Note_on_c, 0, 83, 79
1, 12384, Note_on_c, 1, 60, 61
1, 12394, Note_on_c, 0, 83, 0
1, 12407, Note_on_c, 1, 60, 0
1, 12408, Note_on_c, 0, 84, 79
1, 12408, Note_on_c, 1, 67, 61
1, 12418, Note_on_c, 0, 84, 0
1, 12431, Note_on_c, 1, 67, 0
1, 12432, Note_on_c, 0, 83, 80
1, 12432, Note_on_c, 1, 64, 61
1, 12442, Note_on_c, 0, 83, 0
1, 12455, Note_on_c, 1, 64, 0
1, 12456, Note_on_c, 0, 84, 81
1, 12456, Note_on_c, 1, 67, 61
1, 12466, Note_on_c, 0, 84, 0
1, 12479, Note_on_c, 1, 67, 0
1, 12480, Note_on_c, 0, 84, 98
1, 12480, Note_on_c, 1, 62, 61
1, 12503, Note_on_c, 1, 62, 0
1, 12504, Note_on_c, 0, 84, 0
1, 12504, Note_on_c, 0, 83, 85
1, 12504, Note_on_c, 1, 67, 61
1, 12527, Note_on_c, 0, 83, 0
1, 12527, Note_on_c, 1, 67, 0
1, 12528, Note_on_c, 0, 81, 88
1, 12528, Note_on_c, 1, 65, 61
1, 12551, Note_on_c, 0, 81, 0
1, 12551, Note_on_c, 1, 65, 0
1, 12552, Note_on_c, 0, 79, 91
1, 12552, Note_on_c, 1, 67, 61
1, 12575, Note_on_c, 0, 79, 0
1, 12575, Note_on_c, 1, 67, 0
1, 12576, Note_on_c, 0, 79, 110
1, 12576, Note_on_c, 1, 62, 61
1, 12599, Note_on_c, 1, 62, 0
1, 12600, Note_on_c, 0, 79, 0
1, 12600, Note_on_c, 0, 81, 98
1, 12600, Note_on_c, 1, 67, 61
1, 12612, Note_on_c, 0, 81, 0
1, 12612, Note_on_c, 0, 79, 99
1, 12623, Note_on_c, 1, 67, 0
1, 12624, Note_on_c, 0, 79, 0
1, 12624, Note_on_c, 0, 79, 101
1, 12624, Note_on_c, 1, 65, 61
1, 12636, Note_on_c, 0, 79, 0
1, 12636, Note_on_c, 0, 77, 102
1, 12647, Note_on_c, 1, 65, 0
1, 12648, Note_on_c, 0, 77, 0
1, 12648, Note_on_c, 0, 76, 104
1, 12648, Note_on_c, 1, 67, 61
1, 12660, Note_on_c, 0, 76, 0
1, 12660, Note_on_c, 0, 74, 106
1, 12671, Note_on_c, 1, 67, 0
1, 12672, Note_on_c, 0, 74, 0
1, 12672, Note_on_c, 0, 76, 76
1, 12672, Note_on_c, 1, 60, 61
1, 12695, Note_on_c, 0, 76, 0
1, 12695, Note_on_c, 1, 60, 0
1, 12696, Note_on_c, 0, 77, 76
1, 12696, Note_on_c, 1, 67, 62
1, 12719, Note_on_c, 0, 77, 0
1, 12719, Note_on_c, 1, 67, 0
1, 12720, Note_on_c, 0, 76, 77
1, 12720, Note_on_c, 1, 64, 63
1, 12743, Note_on_c, 0, 76, 0
1, 12743, Note_on_c, 1, 64, 0
1, 12744, Note_on_c, 0, 77, 78
1, 12744, Note_on_c, 1, 67, 64
1, 12767, Note_on_c, 0, 77, 0
1, 12767, Note_on_c, 1, 67, 0
1, 12768, Note_on_c, 0, 79, 79
1, 12768, Note_on_c, 1, 60, 65
1, 12791, Note_on_c, 0, 79, 0
1, 12791, Note_on_c, 1, 60, 0
1, 12792, Note_on_c, 0, 81, 79
1, 12792, Note_on_c, 1, 67, 66
1, 12815, Note_on_c, 0, 81, 0
1, 12815, Note_on_c, 1, 67, 0
1, 12816, Note_on_c, 0, 79, 80
1, 12816, Note_on_c, 1, 64, 67
1, 12839, Note_on_c, 0, 79, 0
1, 12839, Note_on_c, 1, 64, 0
1, 12840, Note_on_c, 0, 81, 81
1, 12840, Note_on_c, 1, 67, 68
1, 12863, Note_on_c, 0, 81, 0
1, 12863, Note_on_c, 1, 67, 0
1, 12864, Note_on_c, 0, 82, 98
1, 12864, Note_on_c, 0, 70, 98
1, 12864, Note_on_c, 1, 52, 70
1, 12887, Note_on_c, 1, 52, 0
1, 12888, Note_on_c, 1, 60, 70
1, 12911, Note_on_c, 1, 60, 0
1, 12912, Note_on_c, 1, 55, 70
1, 12935, Note_on_c, 1, 55, 0
1, 12936, Note_on_c, 1, 60, 70
1, 12959, Note_on_c, 1, 60, 0
1, 12960, Note_on_c, 1, 52, 70
1, 12983, Note_on_c, 1, 52, 0
1, 12984, Note_on_c, 1, 60, 70
1, 13007, Note_on_c, 1, 60, 0
1, 13008, Note_on_c, 1, 55, 70
1, 13031, Note_on_c, 1, 55, 0
1, 13032, Note_on_c, 1, 60, 70
1, 13055, Note_on_c, 1, 60, 0
1, 13056, Note_on_c, 0, 82, 0
1, 13056, Note_on_c, 0, 70, 0
1, 13056, Note_on_c, 1, 53, 70
1, 13079, Note_on_c, 1, 53, 0
1, 13080, Note_on_c, 0, 81, 82
1, 13080, Note_on_c, 1, 60, 70
1, 13103, Note_on_c, 0, 81, 0
1, 13103, Note_on_c, 1, 60, 0
1, 13104, Note_on_c, 0, 80, 82
1, 13104, Note_on_c, 1, 57, 70
1, 13127, Note_on_c, 0, 80, 0
1, 13127, Note_on_c, 1, 57, 0
1, 13128, Note_on_c, 0, 81, 82
1, 13128, Note_on_c, 1, 60, 70
1, 13151, Note_on_c, 0, 81, 0
1, 13151, Note_on_c, 1, 60, 0
1, 13152, Note_on_c, 1, 52, 70
1, 13175, Note_on_c, 1, 52, 0
1, 13176, Note_on_c, 0, 79, 82
1, 13176, Note_on_c, 1, 61, 70
1, 13199, Note_on_c, 0, 79, 0
1, 13199, Note_on_c, 1, 61, 0
1, 13200, Note_on_c, 0, 78, 82
1, 13200, Note_on_c, 1, 55, 70
1, 13223, Note_on_c, 0, 78, 0
1, 13223, Note_on_c, 1, 55, 0
1, 13224, Note_on_c, 0, 79, 82
1, 13224, Note_on_c, 1, 61, 70
1, 13247, Note_on_c, 0, 79, 0
1, 13247, Note_on_c, 1, 61, 0
1, 13248, Note_on_c, 1, 50, 70
1, 13271, Note_on_c, 1, 50, 0
1, 13272, Note_on_c, 0, 78, 82
1, 13272, Note_on_c, 1, 60, 70
1, 13295, Note_on_c, 0, 78, 0
1, 13295, Note_on_c, 1, 60, 0
1, 13296, Note_on_c, 0, 79, 82
1, 13296, Note_on_c, 1, 57, 70
1, 13302, Note_on_c, 0, 79, 0
1, 13302, Note_on_c, 0, 78, 82
1, 13308, Note_on_c, 0, 78, 0
1, 13308, Note_on_c, 0, 76, 82
1, 13314, Note_on_c, 0, 76, 0
1, 13314, Note_on_c, 0, 78, 82
1, 13319, Note_on_c, 1, 57, 0
1, 13320, Note_on_c, 1, 60, 70
1, 13341, Note_on_c, 0, 78, 0
1, 13343, Note_on_c, 1, 60, 0
1, 13344, Note_on_c, 1, 55, 70
1, 13367, Note_on_c, 1, 55, 0
1, 13368, Note_on_c, 0, 77, 82
1, 13368, Note_on_c, 1, 62, 70
1, 13391, Note_on_c, 0, 77, 0
1, 13391, Note_on_c, 1, 62, 0
1, 13392, Note_on_c, 0, 79, 82
1, 13392, Note_on_c, 1, 59, 70
1, 13398, Note_on_c, 0, 79, 0
1, 13398, Note_on_c, 0, 77, 82
1, 13404, Note_on_c, 0, 77, 0
1, 13404, Note_on_c, 0, 76, 82
1, 13410, Note_on_c, 0, 76, 0
1, 13410, Note_on_c, 0, 77, 82
1, 13415, Note_on_c, 1, 59, 0
1, 13416, Note_on_c, 1, 62, 70
1, 13437, Note_on_c, 0, 77, 0
1, 13439, Note_on_c, 1, 62, 0
1, 13440, Note_on_c, 1, 48, 70
1, 13463, Note_on_c, 1, 48, 0
1, 13464, Note_on_c, 0, 76, 82
1, 13464, Note_on_c, 1, 60, 70
1, 13487, Note_on_c, 0, 76, 0
1, 13487, Note_on_c, 1, 60, 0
1, 13488, Note_on_c, 0, 77, 85
1, 13488, Note_on_c, 1, 52, 70
1, 13511, Note_on_c, 0, 77, 0
1, 13511, Note_on_c, 1, 52, 0
1, 13512, Note_on_c, 0, 79, 88
1, 13512, Note_on_c, 1, 60, 70
1, 13535, Note_on_c, 0, 79, 0
1, 13535, Note_on_c, 1, 60, 0
1, 13536, Note_on_c, 0, 79, 92
1, 13536, Note_on_c, 1, 53, 70
1, 13559, Note_on_c, 0, 79, 0
1, 13559, Note_on_c, 1, 53, 0
1, 13560, Note_on_c, 0, 69, 95
1, 13560, Note_on_c, 1, 62, 70
1, 13583, Note_on_c, 0, 69, 0
1, 13583, Note_on_c, 1, 62, 0
1, 13584, Note_on_c, 0, 77, 99
1, 13584, Note_on_c, 1, 57, 70
1, 13607, Note_on_c, 0, 77, 0
1, 13607, Note_on_c, 1, 57, 0
1, 13608, Note_on_c, 0, 74, 102
1, 13608, Note_on_c, 1, 62, 70
1, 13631, Note_on_c, 0, 74, 0
1, 13631, Note_on_c, 1, 62, 0
1, 13632, Note_on_c, 0, 72, 106
1, 13632, Note_on_c, 1, 55, 70
1, 13655, Note_on_c, 1, 55, 0
1, 13656, Note_on_c, 1, 64, 70
1, 13679, Note_on_c, 1, 64, 0
1, 13680, Note_on_c, 1, 60, 70
1, 13703, Note_on_c, 1, 60, 0
1, 13704, Note_on_c, 1, 64, 70
1, 13721, Note_on_c, 0, 72, 0
1, 13727, Note_on_c, 1, 64, 0
1, 13728, Note_on_c, 0, 72, 94
1, 13728, Note_on_c, 1, 55, 70
1, 13735, Note_on_c, 0, 72, 0
1, 13735, Note_on_c, 0, 71, 93
1, 13742, Note_on_c, 0, 71, 0
1, 13742, Note_on_c, 0, 72, 92
1, 13749, Note_on_c, 0, 72, 0
1, 13749, Note_on_c, 0, 71, 91
1, 13751, Note_on_c, 1, 55, 0
1, 13752, Note_on_c, 1, 65, 70
1, 13756, Note_on_c, 0, 71, 0
1, 13756, Note_on_c, 0, 72, 91
1, 13763, Note_on_c, 0, 72, 0
1, 13763, Note_on_c, 0, 71, 90
1, 13770, Note_on_c, 0, 71, 0
1, 13770, Note_on_c, 0, 72, 89
1, 13775, Note_on_c, 1, 65, 0
1, 13776, Note_on_c, 1, 62, 70
1, 13777, Note_on_c, 0, 72, 0
1, 13777, Note_on_c, 0, 71, 88
1, 13784, Note_on_c, 0, 71, 0
1, 13784, Note_on_c, 0, 72, 88
1, 13791, Note_on_c, 0, 72, 0
1, 13791, Note_on_c, 0, 71, 87
1, 13798, Note_on_c, 0, 71, 0
1, 13798, Note_on_c, 0, 69, 86
1, 13799, Note_on_c, 1, 62, 0
1, 13800, Note_on_c, 1, 65, 70
1, 13812, Note_on_c, 0, 69, 0
1, 13812, Note_on_c, 0, 71, 85
1, 13823, Note_on_c, 1, 65, 0
1, 13824, Note_on_c, 0, 71, 0
1, 13824, Note_on_c, 1, 48, 70
1, 13847, Note_on_c, 1, 48, 0
1, 13848, Note_on_c, 0, 84, 82
1, 13848, Note_on_c, 1, 60, 70
1, 13871, Note_on_c, 0, 84, 0
1, 13871, Note_on_c, 1, 60, 0
1, 13872, Note_on_c, 0, 88, 85
1, 13872, Note_on_c, 1, 52, 70
1, 13895, Note_on_c, 0, 88, 0
1, 13895, Note_on_c, 1, 52, 0
1, 13896, Note_on_c, 0, 84, 88
1, 13896, Note_on_c, 1, 60, 70
1, 13919, Note_on_c, 0, 84, 0
1, 13919, Note_on_c, 1, 60, 0
1, 13920, Note_on_c, 0, 83, 92
1, 13920, Note_on_c, 1, 53, 70
1, 13943, Note_on_c, 0, 83, 0
1, 13943, Note_on_c, 1, 53, 0
1, 13944, Note_on_c, 0, 81, 95
1, 13944, Note_on_c, 1, 60, 70
1, 13967, Note_on_c, 0, 81, 0
1, 13967, Note_on_c, 1, 60, 0
1, 13968, Note_on_c, 0, 79, 99
1, 13968, Note_on_c, 1, 57, 70
1, 13991, Note_on_c, 0, 79, 0
1, 13991, Note_on_c, 1, 57, 0
1, 13992, Note_on_c, 0, 77, 102
1, 13992, Note_on_c, 1, 60, 70
1, 14015, Note_on_c, 0, 77, 0
1, 14015, Note_on_c, 1, 60, 0
1, 14016, Note_on_c, 0, 76, 106
1, 14016, Note_on_c, 1, 55, 70
1, 14039, Note_on_c, 1, 55, 0
1, 14040, Note_on_c, 1, 64, 70
1, 14063, Note_on_c, 1, 64, 0
1, 14064, Note_on_c, 1, 60, 70
1, 14087, Note_on_c, 1, 60, 0
1, 14088, Note_on_c, 1, 64, 70
1, 14105, Note_on_c, 0, 76, 0
1, 14111, Note_on_c, 1, 64, 0
1, 14112, Note_on_c, 0, 76, 106
1, 14112, Note_on_c, 1, 55, 70
1, 14119, Note_on_c, 0, 76, 0
1, 14119, Note_on_c, 0, 74, 104
1, 14126, Note_on_c, 0, 74, 0
1, 14126, Note_on_c, 0, 76, 103
1, 14133, Note_on_c, 0, 76, 0
1, 14133, Note_on_c, 0, 74, 101
1, 14135, Note_on_c, 1, 55, 0
1, 14136, Note_on_c, 1, 65, 70
1, 14140, Note_on_c, 0, 74, 0
1, 14140, Note_on_c, 0, 76, 100
1, 14147, Note_on_c, 0, 76, 0
1, 14147, Note_on_c, 0, 74, 98
1, 14154, Note_on_c, 0, 74, 0
1, 14154, Note_on_c, 0, 76, 97
1, 14159, Note_on_c, 1, 65, 0
1, 14160, Note_on_c, 1, 62, 70
1, 14161, Note_on_c, 0, 76, 0
1, 14161, Note_on_c, 0, 74, 95
1, 14168, Note_on_c, 0, 74, 0
1, 14168, Note_on_c, 0, 76, 94
1, 14175, Note_on_c, 0, 76, 0
1, 14175, Note_on_c, 0, 74, 92
1, 14182, Note_on_c, 0, 74, 0
1, 14182, Note_on_c, 0, 72, 91
1, 14183, Note_on_c, 1, 62, 0
1, 14184, Note_on_c, 1, 65, 70
1, 14196, Note_on_c, 0, 72, 0
1, 14196, Note_on_c, 0, 74, 88
1, 14207, Note_on_c, 1, 65, 0
1, 14208, Note_on_c, 0, 74, 0
1, 14208, Note_on_c, 0, 72, 82
1, 14208, Note_on_c, 1, 64, 70
1, 14208, Note_on_c, 1, 60, 70
1, 14253, Note_on_c, 0, 72, 0
1, 14256, Note_on_c, 0, 76, 70
1, 14256, Note_on_c, 0, 72, 70
1, 14276, Note_on_c, 0, 76, 0
1, 14276, Note_on_c, 0, 72, 0
1, 14297, Note_on_c, 1, 64, 0
1, 14297, Note_on_c, 1, 60, 0
1, 14304, Note_on_c, 0, 76, 70
1, 14304, Note_on_c, 0, 72, 70
1, 14324, Note_on_c, 0, 76, 0
1, 14324, Note_on_c, 0, 72, 0
1, 14352, Note_on_c, 0, 76, 70
1, 14352, Note_on_c, 0, 72, 70
1, 14372, Note_on_c, 0, 76, 0
1, 14372, Note_on_c, 0, 72, 0
1, 14400, Note_on_c, 0, 72, 70
1, 14400, Note_on_c, 0, 77, 64
1, 14406, Note_on_c, 0, 77, 0
1, 14406, Note_on_c, 0, 76, 64
1, 14412, Note_on_c, 0, 76, 0
1, 14412, Note_on_c, 0, 74, 64
1, 14418, Note_on_c, 0, 74, 0
1, 14418, Note_on_c, 0, 76, 64
1, 14445, Note_on_c, 0, 72, 0
1, 14445, Note_on_c, 0, 76, 0
1, 14448, Note_on_c, 0, 79, 70
1, 14448, Note_on_c, 0, 76, 70
1, 14493, Note_on_c, 0, 79, 0
1, 14493, Note_on_c, 0, 76, 0
1, 14496, Note_on_c, 0, 76, 70
1, 14496, Note_on_c, 0, 72, 70
1, 14541, Note_on_c, 0, 76, 0
1, 14541, Note_on_c, 0, 72, 0
1, 14544, Note_on_c, 0, 72, 70
1, 14544, Note_on_c, 0, 69, 70
1, 14589, Note_on_c, 0, 72, 0
1, 14589, Note_on_c, 0, 69, 0
1, 14592, Note_on_c, 0, 69, 70
1, 14592, Note_on_c, 0, 65, 70
1, 14688, Note_on_c, 1, 53, 82
1, 14688, Note_on_c, 1, 41, 82
1, 14711, Note_on_c, 0, 69, 0
1, 14711, Note_on_c, 0, 65, 0
1, 14712, Note_on_c, 0, 69, 82
1, 14712, Note_on_c, 0, 65, 82
1, 14722, Note_on_c, 0, 69, 0
1, 14722, Note_on_c, 0, 65, 0
1, 14736, Note_on_c, 0, 71, 82
1, 14736, Note_on_c, 0, 67, 82
1, 14746, Note_on_c, 0, 71, 0
1, 14746, Note_on_c, 0, 67, 0
1, 14760, Note_on_c, 0, 72, 82
1, 14760, Note_on_c, 0, 69, 82
1, 14770, Note_on_c, 0, 72, 0
1, 14770, Note_on_c, 0, 69, 0
1, 14777, Note_on_c, 1, 53, 0
1, 14777, Note_on_c, 1, 41, 0
1, 14784, Note_on_c, 0, 72, 70
1, 14784, Note_on_c, 0, 69, 70
1, 14784, Note_on_c, 1, 55, 82
1, 14784, Note_on_c, 1, 43, 82
1, 14808, Note_on_c, 0, 72, 0
1, 14808, Note_on_c, 0, 69, 0
1, 14808, Note_on_c, 0, 71, 68
1, 14808, Note_on_c, 0, 67, 68
1, 14831, Note_on_c, 0, 71, 0
1, 14831, Note_on_c, 0, 67, 0
1, 14832, Note_on_c, 0, 69, 67
1, 14832, Note_on_c, 0, 65, 67
1, 14842, Note_on_c, 0, 69, 0
1, 14842, Note_on_c, 0, 65, 0
1, 14856, Note_on_c, 0, 67, 66
1, 14856, Note_on_c, 0, 64, 66
1, 14866, Note_on_c, 0, 67, 0
1, 14866, Note_on_c, 0, 64, 0
1, 14873, Note_on_c, 1, 55, 0
1, 14873, Note_on_c, 1, 43, 0
1, 14880, Note_on_c, 0, 67, 65
1, 14880, Note_on_c, 0, 64, 65
1, 14880, Note_on_c, 1, 55, 82
1, 14880, Note_on_c, 1, 43, 82
1, 14904, Note_on_c, 0, 67, 0
1, 14904, Note_on_c, 0, 64, 0
1, 14904, Note_on_c, 0, 65, 64
1, 14904, Note_on_c, 0, 62, 64
1, 14927, Note_on_c, 0, 65, 0
1, 14927, Note_on_c, 0, 62, 0
1, 14928, Note_on_c, 0, 64, 63
1, 14928, Note_on_c, 0, 60, 63
1, 14938, Note_on_c, 0, 64, 0
1, 14938, Note_on_c, 0, 60, 0
1, 14952, Note_on_c, 0, 62, 62
1, 14952, Note_on_c, 0, 59, 62
1, 14962, Note_on_c, 0, 62, 0
1, 14962, Note_on_c, 0, 59, 0
1, 14969, Note_on_c, 1, 55, 0
1, 14969, Note_on_c, 1, 43, 0
1, 14976, Note_on_c, 1, 48, 82
1, 14976, Note_on_c, 1, 36, 82
1, 15024, Note_on_c, 0, 72, 61
1, 15039, Note_on_c, 0, 72, 0
1, 15040, Note_on_c, 0, 76, 61
1, 15055, Note_on_c, 0, 76, 0
1, 15056, Note_on_c, 0, 84, 61
1, 15065, Note_on_c, 1, 48, 0
1, 15065, Note_on_c, 1, 36, 0
1, 15071, Note_on_c, 0, 84, 0
1, 15072, Note_on_c, 0, 72, 61
1, 15087, Note_on_c, 0, 72, 0
1, 15088, Note_on_c, 0, 76, 61
1, 15103, Note_on_c, 0, 76, 0
1, 15104, Note_on_c, 0, 84, 61
1, 15119, Note_on_c, 0, 84, 0
1, 15120, Note_on_c, 0, 72, 61
1, 15135, Note_on_c, 0, 72, 0
1, 15136, Note_on_c, 0, 76, 61
1, 15151, Note_on_c, 0, 76, 0
1, 15152, Note_on_c, 0, 84, 61
1, 15167, Note_on_c, 0, 84, 0
1, 15168, Note_on_c, 0, 72, 61
1, 15183, Note_on_c, 0, 72, 0
1, 15184, Note_on_c, 0, 76, 61
1, 15199, Note_on_c, 0, 76, 0
1, 15200, Note_on_c, 0, 84, 61
1, 15215, Note_on_c, 0, 84, 0
1, 15216, Note_on_c, 0, 76, 61
1, 15231, Note_on_c, 0, 76, 0
1, 15232, Note_on_c, 0, 79, 61
1, 15247, Note_on_c, 0, 79, 0
1, 15248, Note_on_c, 0, 88, 61
1, 15263, Note_on_c, 0, 88, 0
1, 15264, Note_on_c, 0, 72, 61
1, 15279, Note_on_c, 0, 72, 0
1, 15280, Note_on_c, 0, 76, 61
1, 15295, Note_on_c, 0, 76, 0
1, 15296, Note_on_c, 0, 84, 61
1, 15311, Note_on_c, 0, 84, 0
1, 15312, Note_on_c, 0, 69, 61
1, 15327, Note_on_c, 0, 69, 0
1, 15328, Note_on_c, 0, 72, 61
1, 15343, Note_on_c, 0, 72, 0
1, 15344, Note_on_c, 0, 81, 61
1, 15359, Note_on_c, 0, 81, 0
1, 15360, Note_on_c, 0, 65, 70
1, 15456, Note_on_c, 1, 53, 82
1, 15456, Note_on_c, 1, 41, 82
1, 15479, Note_on_c, 0, 65, 0
1, 15480, Note_on_c, 0, 72, 82
1, 15480, Note_on_c, 0, 69, 82
1, 15490, Note_on_c, 0, 72, 0
1, 15490, Note_on_c, 0, 69, 0
1, 15495, Note_on_c, 1, 53, 0
1, 15495, Note_on_c, 1, 41, 0
1, 15504, Note_on_c, 0, 71, 82
1, 15504, Note_on_c, 0, 67, 82
1, 15514, Note_on_c, 0, 71, 0
1, 15514, Note_on_c, 0, 67, 0
1, 15528, Note_on_c, 0, 69, 82
1, 15528, Note_on_c, 0, 65, 82
1, 15538, Note_on_c, 0, 69, 0
1, 15538, Note_on_c, 0, 65, 0
1, 15552, Note_on_c, 0, 69, 82
1, 15552, Note_on_c, 0, 65, 82
1, 15552, Note_on_c, 1, 55, 82
1, 15552, Note_on_c, 1, 43, 82
1, 15576, Note_on_c, 0, 69, 0
1, 15576, Note_on_c, 0, 65, 0
1, 15576, Note_on_c, 0, 67, 81
1, 15576, Note_on_c, 0, 64, 81
1, 15591, Note_on_c, 1, 55, 0
1, 15591, Note_on_c, 1, 43, 0
1, 15599, Note_on_c, 0, 67, 0
1, 15599, Note_on_c, 0, 64, 0
1, 15600, Note_on_c, 0, 65, 80
1, 15600, Note_on_c, 0, 62, 80
1, 15610, Note_on_c, 0, 65, 0
1, 15610, Note_on_c, 0, 62, 0
1, 15624, Note_on_c, 0, 64, 79
1, 15624, Note_on_c, 0, 60, 79
1, 15634, Note_on_c, 0, 64, 0
1, 15634, Note_on_c, 0, 60, 0
1, 15648, Note_on_c, 0, 64, 79
1, 15648, Note_on_c, 1, 53, 82
1, 15648, Note_on_c, 1, 43, 82
1, 15672, Note_on_c, 0, 64, 0
1, 15672, Note_on_c, 0, 62, 78
1, 15693, Note_on_c, 1, 53, 0
1, 15693, Note_on_c, 1, 43, 0
1, 15695, Note_on_c, 0, 62, 0
1, 15696, Note_on_c, 0, 60, 77
1, 15706, Note_on_c, 0, 60, 0
1, 15720, Note_on_c, 0, 59, 76
1, 15720, Note_on_c, 0, 53, 76
1, 15730, Note_on_c, 0, 59, 0
1, 15730, Note_on_c, 0, 53, 0
1, 15744, Note_on_c, 1, 59, 76
1, 15744, Note_on_c, 1, 53, 76
1, 15744, Note_on_c, 1, 48, 76
1, 15936, Note_on_c, 1, 59, 0
1, 15936, Note_on_c, 1, 53, 0
1, 15936, Note_on_c, 1, 36, 70
1, 15942, Note_on_c, 1, 40, 70
1, 15948, Note_on_c, 1, 43, 70
1, 15954, Note_on_c, 1, 52, 70
1, 15960, Note_on_c, 1, 55, 70
1, 15966, Note_on_c, 1, 60, 70
1, 16055, Note_on_c, 1, 60, 0
1, 16055, Note_on_c, 1, 55, 0
1, 16055, Note_on_c, 1, 52, 0
1, 16055, Note_on_c, 1, 48, 0
1, 16055, Note_on_c, 1, 43, 0
1, 16055, Note_on_c, 1, 40, 0
1, 16055, Note_on_c, 1, 36, 0
1, 16128, Note_on_c, 0, 64, 82
1, 16128, Note_on_c, 1, 48, 82
1, 16134, Note_on_c, 1, 52, 82
1, 16140, Note_on_c, 0, 67, 82
1, 16140, Note_on_c, 1, 55, 82
1, 16146, Note_on_c, 1, 60, 82
1, 16152, Note_on_c, 0, 72, 82
1, 16195, Note_on_c, 0, 72, 0
1, 16195, Note_on_c, 0, 67, 0
1, 16195, Note_on_c, 0, 64, 0
1, 16200, Note_on_c, 0, 67, 82
1, 16221, Note_on_c, 1, 60, 0
1, 16221, Note_on_c, 1, 55, 0
1, 16221, Note_on_c, 1, 52, 0
1, 16221, Note_on_c, 1, 48, 0
1, 16223, Note_on_c, 0, 67, 0
1, 16224, Note_on_c, 0, 77, 76
1, 16247, Note_on_c, 0, 77, 0
1, 16248, Note_on_c, 0, 76, 76
1, 16271, Note_on_c, 0, 76, 0
1, 16272, Note_on_c, 0, 74, 76
1, 16295, Note_on_c, 0, 74, 0
1, 16296, Note_on_c, 0, 72, 76
1, 16319, Note_on_c, 0, 72, 0
1, 16320, Note_on_c, 0, 79, 76
1, 16320, Note_on_c, 1, 60, 61
1, 16343, Note_on_c, 1, 60, 0
1, 16344, Note_on_c, 1, 70, 61
1, 16359, Note_on_c, 0, 79, 0
1, 16367, Note_on_c, 1, 70, 0
1, 16368, Note_on_c, 1, 67, 61
1, 16391, Note_on_c, 1, 67, 0
1, 16392, Note_on_c, 1, 70, 61
1, 16415, Note_on_c, 1, 70, 0
1, 16416, Note_on_c, 1, 60, 61
1, 16439, Note_on_c, 1, 60, 0
1, 16440, Note_on_c, 1, 70, 61
1, 16463, Note_on_c, 1, 70, 0
1, 16464, Note_on_c, 1, 67, 61
1, 16487, Note_on_c, 1, 67, 0
1, 16488, Note_on_c, 1, 70, 61
1, 16511, Note_on_c, 1, 70, 0
1, 16512, Note_on_c, 0, 77, 76
1, 16512, Note_on_c, 1, 60, 61
1, 16535, Note_on_c, 1, 60, 0
1, 16536, Note_on_c, 1, 69, 61
1, 16559, Note_on_c, 1, 69, 0
1, 16560, Note_on_c, 1, 65, 61
1, 16579, Note_on_c, 0, 77, 0
1, 16583, Note_on_c, 1, 65, 0
1, 16584, Note_on_c, 0, 72, 76
1, 16584, Note_on_c, 1, 69, 61
1, 16607, Note_on_c, 0, 72, 0
1, 16607, Note_on_c, 1, 69, 0
1, 16608, Note_on_c, 0, 82, 76
1, 16608, Note_on_c, 1, 60, 61
1, 16631, Note_on_c, 0, 82, 0
1, 16631, Note_on_c, 1, 60, 0
1, 16632, Note_on_c, 0, 81, 76
1, 16632, Note_on_c, 1, 69, 61
1, 16655, Note_on_c, 0, 81, 0
1, 16655, Note_on_c, 1, 69, 0
1, 16656, Note_on_c, 0, 79, 76
1, 16656, Note_on_c, 1, 65, 61
1, 16679, Note_on_c, 0, 79, 0
1, 16679, Note_on_c, 1, 65, 0
1, 16680, Note_on_c, 0, 77, 76
1, 16680, Note_on_c, 1, 69, 61
1, 16703, Note_on_c, 0, 77, 0
1, 16703, Note_on_c, 1, 69, 0
1, 16704, Note_on_c, 0, 84, 76
1, 16704, Note_on_c, 1, 60, 61
1, 16727, Note_on_c, 1, 60, 0
1, 16728, Note_on_c, 1, 67, 61
1, 16743, Note_on_c, 0, 84, 0
1, 16751, Note_on_c, 1, 67, 0
1, 16752, Note_on_c, 1, 64, 61
1, 16775, Note_on_c, 1, 64, 0
1, 16776, Note_on_c, 1, 67, 61
1, 16799, Note_on_c, 1, 67, 0
1, 16800, Note_on_c, 1, 60, 61
1, 16823, Note_on_c, 1, 60, 0
1, 16824, Note_on_c, 1, 67, 61
1, 16847, Note_on_c, 1, 67, 0
1, 16848, Note_on_c, 1, 64, 61
1, 16871, Note_on_c, 1, 64, 0
1, 16872, Note_on_c, 1, 67, 61
1, 16895, Note_on_c, 1, 67, 0
1, 16896, Note_on_c, 0, 86, 76
1, 16896, Note_on_c, 1, 57, 61
1, 16902, Note_on_c, 0, 86, 0
1, 16902, Note_on_c, 0, 84, 76
1, 16908, Note_on_c, 0, 84, 0
1, 16908, Note_on_c, 0, 82, 76
1, 16914, Note_on_c, 0, 82, 0
1, 16914, Note_on_c, 0, 84, 76
1, 16919, Note_on_c, 1, 57, 0
1, 16920, Note_on_c, 1, 63, 61
1, 16943, Note_on_c, 1, 63, 0
1, 16944, Note_on_c, 1, 60, 61
1, 16967, Note_on_c, 1, 60, 0
1, 16968, Note_on_c, 1, 63, 61
1, 16991, Note_on_c, 1, 63, 0
1, 16992, Note_on_c, 1, 57, 61
1, 17015, Note_on_c, 1, 57, 0
1, 17016, Note_on_c, 1, 63, 61
1, 17039, Note_on_c, 1, 63, 0
1, 17040, Note_on_c, 1, 60, 61
1, 17059, Note_on_c, 0, 84, 0
1, 17063, Note_on_c, 1, 60, 0
1, 17064, Note_on_c, 0, 82, 76
1, 17064, Note_on_c, 1, 63, 61
1, 17072, Note_on_c, 0, 82, 0
1, 17072, Note_on_c, 0, 81, 76
1, 17080, Note_on_c, 0, 81, 0
1, 17080, Note_on_c, 0, 79, 76
1, 17087, Note_on_c, 1, 63, 0
1, 17088, Note_on_c, 0, 79, 0
1, 17088, Note_on_c, 0, 78, 76
1, 17088, Note_on_c, 1, 57, 61
1, 17111, Note_on_c, 0, 78, 0
1, 17111, Note_on_c, 1, 57, 0
1, 17112, Note_on_c, 0, 75, 76
1, 17112, Note_on_c, 1, 63, 61
1, 17135, Note_on_c, 0, 75, 0
1, 17135, Note_on_c, 1, 63, 0
1, 17136, Note_on_c, 0, 74, 76
1, 17136, Note_on_c, 1, 60, 61
1, 17159, Note_on_c, 0, 74, 0
1, 17159, Note_on_c, 1, 60, 0
1, 17160, Note_on_c, 0, 72, 76
1, 17160, Note_on_c, 1, 63, 61
1, 17183, Note_on_c, 0, 72, 0
1, 17183, Note_on_c, 1, 63, 0
1, 17184, Note_on_c, 0, 70, 76
1, 17184, Note_on_c, 1, 57, 61
1, 17207, Note_on_c, 0, 70, 0
1, 17207, Note_on_c, 1, 57, 0
1, 17208, Note_on_c, 0, 69, 76
1, 17208, Note_on_c, 1, 63, 61
1, 17231, Note_on_c, 0, 69, 0
1, 17231, Note_on_c, 1, 63, 0
1, 17232, Note_on_c, 0, 67, 76
1, 17232, Note_on_c, 1, 60, 61
1, 17255, Note_on_c, 0, 67, 0
1, 17255, Note_on_c, 1, 60, 0
1, 17256, Note_on_c, 0, 66, 76
1, 17256, Note_on_c, 1, 63, 61
1, 17279, Note_on_c, 0, 66, 0
1, 17279, Note_on_c, 1, 63, 0
1, 17280, Note_on_c, 0, 66, 76
1, 17280, Note_on_c, 1, 58, 61
1, 17286, Note_on_c, 0, 66, 0
1, 17286, Note_on_c, 0, 67, 76
1, 17300, Note_on_c, 0, 67, 0
1, 17303, Note_on_c, 1, 58, 0
1, 17304, Note_on_c, 1, 67, 61
1, 17327, Note_on_c, 1, 67, 0
1, 17328, Note_on_c, 0, 69, 77
1, 17328, Note_on_c, 1, 62, 61
1, 17334, Note_on_c, 0, 69, 0
1, 17334, Note_on_c, 0, 70, 77
1, 17348, Note_on_c, 0, 70, 0
1, 17351, Note_on_c, 1, 62, 0
1, 17352, Note_on_c, 1, 67, 61
1, 17375, Note_on_c, 1, 67, 0
1, 17376, Note_on_c, 0, 73, 79
1, 17376, Note_on_c, 1, 58, 61
1, 17382, Note_on_c, 0, 73, 0
1, 17382, Note_on_c, 0, 74, 79
1, 17396, Note_on_c, 0, 74, 0
1, 17399, Note_on_c, 1, 58, 0
1, 17400, Note_on_c, 1, 67, 61
1, 17423, Note_on_c, 1, 67, 0
1, 17424, Note_on_c, 0, 78, 80
1, 17424, Note_on_c, 1, 62, 61
1, 17430, Note_on_c, 0, 78, 0
1, 17430, Note_on_c, 0, 79, 80
1, 17444, Note_on_c, 0, 79, 0
1, 17447, Note_on_c, 1, 62, 0
1, 17448, Note_on_c, 1, 67, 61
1, 17471, Note_on_c, 1, 67, 0
1, 17472, Note_on_c, 0, 81, 82
1, 17472, Note_on_c, 1, 58, 61
1, 17478, Note_on_c, 0, 81, 0
1, 17478, Note_on_c, 0, 82, 82
1, 17495, Note_on_c, 1, 58, 0
1, 17496, Note_on_c, 1, 67, 62
1, 17517, Note_on_c, 0, 82, 0
1, 17519, Note_on_c, 1, 67, 0
1, 17520, Note_on_c, 1, 62, 63
1, 17543, Note_on_c, 1, 62, 0
1, 17544, Note_on_c, 1, 67, 64
1, 17567, Note_on_c, 1, 67, 0
1, 17568, Note_on_c, 1, 58, 65
1, 17591, Note_on_c, 1, 58, 0
1, 17592, Note_on_c, 1, 67, 66
1, 17615, Note_on_c, 1, 67, 0
1, 17616, Note_on_c, 1, 62, 67
1, 17639, Note_on_c, 1, 62, 0
1, 17640, Note_on_c, 1, 67, 68
1, 17663, Note_on_c, 1, 67, 0
1, 17664, Note_on_c, 0, 86, 98
1, 17664, Note_on_c, 1, 58, 70
1, 17687, Note_on_c, 1, 58, 0
1, 17688, Note_on_c, 1, 67, 70
1, 17711, Note_on_c, 1, 67, 0
1, 17712, Note_on_c, 0, 86, 0
1, 17712, Note_on_c, 0, 86, 82
1, 17712, Note_on_c, 1, 64, 70
1, 17735, Note_on_c, 1, 64, 0
1, 17736, Note_on_c, 1, 67, 70
1, 17759, Note_on_c, 1, 67, 0
1, 17760, Note_on_c, 1, 58, 70
1, 17783, Note_on_c, 1, 58, 0
1, 17784, Note_on_c, 1, 67, 70
1, 17805, Note_on_c, 0, 86, 0
1, 17807, Note_on_c, 1, 67, 0
1, 17808, Note_on_c, 0, 84, 79
1, 17808, Note_on_c, 1, 64, 70
1, 17820, Note_on_c, 0, 84, 0
1, 17820, Note_on_c, 0, 82, 78
1, 17831, Note_on_c, 1, 64, 0
1, 17832, Note_on_c, 0, 82, 0
1, 17832, Note_on_c, 0, 81, 77
1, 17832, Note_on_c, 1, 67, 70
1, 17844, Note_on_c, 0, 81, 0
1, 17844, Note_on_c, 0, 79, 76
1, 17855, Note_on_c, 1, 67, 0
1, 17856, Note_on_c, 0, 79, 0
1, 17856, Note_on_c, 0, 84, 98
1, 17856, Note_on_c, 1, 57, 70
1, 17879, Note_on_c, 1, 57, 0
1, 17880, Note_on_c, 1, 65, 70
1, 17903, Note_on_c, 1, 65, 0
1, 17904, Note_on_c, 0, 84, 0
1, 17904, Note_on_c, 0, 84, 82
1, 17904, Note_on_c, 1, 60, 70
1, 17927, Note_on_c, 1, 60, 0
1, 17928, Note_on_c, 1, 65, 70
1, 17951, Note_on_c, 1, 65, 0
1, 17952, Note_on_c, 1, 57, 70
1, 17975, Note_on_c, 1, 57, 0
1, 17976, Note_on_c, 1, 65, 70
1, 17997, Note_on_c, 0, 84, 0
1, 17999, Note_on_c, 1, 65, 0
1, 18000, Note_on_c, 0, 82, 79
1, 18000, Note_on_c, 1, 60, 70
1, 18012, Note_on_c, 0, 82, 0
1, 18012, Note_on_c, 0, 81, 78
1, 18023, Note_on_c, 1, 60, 0
1, 18024, Note_on_c, 0, 81, 0
1, 18024, Note_on_c, 0, 79, 77
1, 18024, Note_on_c, 1, 65, 70
1, 18036, Note_on_c, 0, 79, 0
1, 18036, Note_on_c, 0, 77, 76
1, 18047, Note_on_c, 1, 65, 0
1, 18048, Note_on_c, 0, 77, 0
1, 18048, Note_on_c, 0, 84, 76
1, 18048, Note_on_c, 1, 52, 70
1, 18071, Note_on_c, 1, 52, 0
1, 18072, Note_on_c, 0, 84, 0
1, 18072, Note_on_c, 0, 82, 76
1, 18072, Note_on_c, 1, 60, 68
1, 18095, Note_on_c, 0, 82, 0
1, 18095, Note_on_c, 1, 60, 0
1, 18096, Note_on_c, 0, 82, 76
1, 18096, Note_on_c, 1, 55, 67
1, 18119, Note_on_c, 1, 55, 0
1, 18120, Note_on_c, 0, 82, 0
1, 18120, Note_on_c, 0, 81, 76
1, 18120, Note_on_c, 1, 60, 66
1, 18143, Note_on_c, 0, 81, 0
1, 18143, Note_on_c, 1, 60, 0
1, 18144, Note_on_c, 0, 81, 76
1, 18144, Note_on_c, 1, 53, 65
1, 18167, Note_on_c, 1, 53, 0
1, 18168, Note_on_c, 1, 60, 64
1, 18189, Note_on_c, 0, 81, 0
1, 18191, Note_on_c, 1, 60, 0
1, 18192, Note_on_c, 1, 57, 63
1, 18215, Note_on_c, 1, 57, 0
1, 18216, Note_on_c, 1, 60, 62
1, 18239, Note_on_c, 1, 60, 0
1, 18240, Note_on_c, 0, 84, 70
1, 18240, Note_on_c, 1, 52, 61
1, 18263, Note_on_c, 1, 52, 0
1, 18264, Note_on_c, 0, 84, 0
1, 18264, Note_on_c, 0, 82, 70
1, 18264, Note_on_c, 1, 60, 61
1, 18287, Note_on_c, 0, 82, 0
1, 18287, Note_on_c, 1, 60, 0
1, 18288, Note_on_c, 0, 82, 70
1, 18288, Note_on_c, 1, 55, 61
1, 18311, Note_on_c, 1, 55, 0
1, 18312, Note_on_c, 0, 82, 0
1, 18312, Note_on_c, 0, 81, 70
1, 18312, Note_on_c, 1, 60, 61
1, 18335, Note_on_c, 0, 81, 0
1, 18335, Note_on_c, 1, 60, 0
1, 18336, Note_on_c, 0, 81, 70
1, 18336, Note_on_c, 1, 53, 61
1, 18359, Note_on_c, 1, 53, 0
1, 18360, Note_on_c, 1, 60, 61
1, 18381, Note_on_c, 0, 81, 0
1, 18383, Note_on_c, 1, 60, 0
1, 18384, Note_on_c, 1, 57, 61
1, 18407, Note_on_c, 1, 57, 0
1, 18408, Note_on_c, 1, 60, 61
1, 18431, Note_on_c, 1, 60, 0
1, 18432, Note_on_c, 0, 84, 70
1, 18432, Note_on_c, 1, 52, 61
1, 18438, Note_on_c, 0, 84, 0
1, 18438, Note_on_c, 0, 86, 70
1, 18444, Note_on_c, 0, 86, 0
1, 18444, Note_on_c, 0, 84, 70
1, 18455, Note_on_c, 0, 84, 0
1, 18455, Note_on_c, 1, 52, 0
1, 18456, Note_on_c, 0, 82, 70
1, 18456, Note_on_c, 1, 60, 61
1, 18479, Note_on_c, 0, 82, 0
1, 18479, Note_on_c, 1, 60, 0
1, 18480, Note_on_c, 0, 82, 70
1, 18480, Note_on_c, 1, 55, 61
1, 18486, Note_on_c, 0, 82, 0
1, 18486, Note_on_c, 0, 84, 70
1, 18492, Note_on_c, 0, 84, 0
1, 18492, Note_on_c, 0, 82, 70
1, 18503, Note_on_c, 0, 82, 0
1, 18503, Note_on_c, 1, 55, 0
1, 18504, Note_on_c, 0, 81, 70
1, 18504, Note_on_c, 1, 60, 61
1, 18527, Note_on_c, 0, 81, 0
1, 18527, Note_on_c, 1, 60, 0
1, 18528, Note_on_c, 0, 81, 86
1, 18528, Note_on_c, 1, 53, 61
1, 18551, Note_on_c, 1, 53, 0
1, 18552, Note_on_c, 1, 60, 62
1, 18575, Note_on_c, 1, 60, 0
1, 18576, Note_on_c, 0, 81, 0
1, 18576, Note_on_c, 1, 57, 63
1, 18599, Note_on_c, 1, 57, 0
1, 18600, Note_on_c, 1, 60, 64
1, 18623, Note_on_c, 1, 60, 0
1, 18624, Note_on_c, 0, 81, 70
1, 18624, Note_on_c, 1, 58, 66
1, 18630, Note_on_c, 0, 81, 0
1, 18630, Note_on_c, 0, 82, 70
1, 18636, Note_on_c, 0, 82, 0
1, 18636, Note_on_c, 0, 81, 70
1, 18647, Note_on_c, 0, 81, 0
1, 18647, Note_on_c, 1, 58, 0
1, 18648, Note_on_c, 0, 79, 70
1, 18648, Note_on_c, 1, 67, 67
1, 18671, Note_on_c, 0, 79, 0
1, 18671, Note_on_c, 1, 67, 0
1, 18672, Note_on_c, 0, 79, 70
1, 18672, Note_on_c, 1, 62, 68
1, 18678, Note_on_c, 0, 79, 0
1, 18678, Note_on_c, 0, 81, 70
1, 18684, Note_on_c, 0, 81, 0
1, 18684, Note_on_c, 0, 79, 70
1, 18695, Note_on_c, 0, 79, 0
1, 18695, Note_on_c, 1, 62, 0
1, 18696, Note_on_c, 0, 77, 70
1, 18696, Note_on_c, 1, 67, 69
1, 18719, Note_on_c, 0, 77, 0
1, 18719, Note_on_c, 1, 67, 0
1, 18720, Note_on_c, 0, 77, 70
1, 18720, Note_on_c, 1, 59, 71
1, 18743, Note_on_c, 1, 59, 0
1, 18744, Note_on_c, 1, 67, 72
1, 18765, Note_on_c, 0, 77, 0
1, 18767, Note_on_c, 1, 67, 0
1, 18768, Note_on_c, 1, 62, 73
1, 18791, Note_on_c, 1, 62, 0
1, 18792, Note_on_c, 1, 67, 74
1, 18815, Note_on_c, 1, 67, 0
1, 18816, Note_on_c, 0, 77, 82
1, 18816, Note_on_c, 1, 60, 76
1, 18822, Note_on_c, 0, 77, 0
1, 18822, Note_on_c, 0, 79, 82
1, 18828, Note_on_c, 0, 79, 0
1, 18828, Note_on_c, 0, 77, 82
1, 18839, Note_on_c, 0, 77, 0
1, 18839, Note_on_c, 1, 60, 0
1, 18840, Note_on_c, 0, 76, 82
1, 18840, Note_on_c, 1, 67, 76
1, 18863, Note_on_c, 0, 76, 0
1, 18863, Note_on_c, 1, 67, 0
1, 18864, Note_on_c, 0, 74, 82
1, 18864, Note_on_c, 1, 64, 76
1, 18870, Note_on_c, 0, 74, 0
1, 18870, Note_on_c, 0, 76, 82
1, 18876, Note_on_c, 0, 76, 0
1, 18876, Note_on_c, 0, 74, 82
1, 18887, Note_on_c, 0, 74, 0
1, 18887, Note_on_c, 1, 64, 0
1, 18888, Note_on_c, 0, 72, 82
1, 18888, Note_on_c, 1, 67, 76
1, 18911, Note_on_c, 0, 72, 0
1, 18911, Note_on_c, 1, 67, 0
1, 18912, Note_on_c, 0, 72, 98
1, 18912, Note_on_c, 1, 60, 76
1, 18935, Note_on_c, 1, 60, 0
1, 18936, Note_on_c, 1, 67, 76
1, 18959, Note_on_c, 1, 67, 0
1, 18960, Note_on_c, 0, 72, 0
1, 18960, Note_on_c, 0, 72, 82
1, 18960, Note_on_c, 1, 64, 76
1, 18983, Note_on_c, 1, 64, 0
1, 18984, Note_on_c, 1, 67, 76
1, 18987, Note_on_c, 0, 72, 0
1, 18990, Note_on_c, 0, 74, 82
1, 18996, Note_on_c, 0, 74, 0
1, 18996, Note_on_c, 0, 72, 82
1, 19002, Note_on_c, 0, 72, 0
1, 19002, Note_on_c, 0, 71, 82
1, 19007, Note_on_c, 1, 67, 0
1, 19008, Note_on_c, 0, 71, 0
1, 19008, Note_on_c, 0, 72, 98
1, 19008, Note_on_c, 1, 60, 76
1, 19031, Note_on_c, 1, 60, 0
1, 19032, Note_on_c, 1, 62, 74
1, 19055, Note_on_c, 1, 62, 0
1, 19056, Note_on_c, 1, 58, 72
1, 19079, Note_on_c, 1, 58, 0
1, 19080, Note_on_c, 1, 60, 70
1, 19103, Note_on_c, 1, 60, 0
1, 19104, Note_on_c, 0, 72, 0
1, 19104, Note_on_c, 1, 57, 68
1, 19127, Note_on_c, 1, 57, 0
1, 19128, Note_on_c, 1, 58, 66
1, 19151, Note_on_c, 1, 58, 0
1, 19152, Note_on_c, 1, 55, 64
1, 19175, Note_on_c, 1, 55, 0
1, 19176, Note_on_c, 1, 57, 62
1, 19199, Note_on_c, 1, 57, 0
1, 19200, Note_on_c, 0, 72, 76
1, 19200, Note_on_c, 1, 53, 61
1, 19223, Note_on_c, 1, 53, 0
1, 19224, Note_on_c, 1, 60, 61
1, 19247, Note_on_c, 1, 60, 0
1, 19248, Note_on_c, 1, 57, 61
1, 19271, Note_on_c, 1, 57, 0
1, 19272, Note_on_c, 1, 60, 61
1, 19289, Note_on_c, 0, 72, 0
1, 19295, Note_on_c, 1, 60, 0
1, 19296, Note_on_c, 0, 70, 76
1, 19296, Note_on_c, 1, 53, 61
1, 19319, Note_on_c, 0, 70, 0
1, 19319, Note_on_c, 1, 53, 0
1, 19320, Note_on_c, 0, 69, 76
1, 19320, Note_on_c, 1, 60, 61
1, 19343, Note_on_c, 0, 69, 0
1, 19343, Note_on_c, 1, 60, 0
1, 19344, Note_on_c, 0, 67, 76
1, 19344, Note_on_c, 1, 57, 61
1, 19367, Note_on_c, 0, 67, 0
1, 19367, Note_on_c, 1, 57, 0
1, 19368, Note_on_c, 0, 65, 76
1, 19368, Note_on_c, 1, 60, 61
1, 19391, Note_on_c, 0, 65, 0
1, 19391, Note_on_c, 1, 60, 0
1, 19392, Note_on_c, 0, 65, 76
1, 19392, Note_on_c, 1, 55, 61
1, 19415, Note_on_c, 1, 55, 0
1, 19416, Note_on_c, 1, 60, 61
1, 19439, Note_on_c, 1, 60, 0
1, 19440, Note_on_c, 1, 58, 61
1, 19463, Note_on_c, 1, 58, 0
1, 19464, Note_on_c, 1, 60, 61
1, 19487, Note_on_c, 1, 60, 0
1, 19488, Note_on_c, 0, 65, 0
1, 19488, Note_on_c, 0, 64, 76
1, 19488, Note_on_c, 1, 55, 61
1, 19494, Note_on_c, 0, 64, 0
1, 19494, Note_on_c, 0, 65, 76
1, 19500, Note_on_c, 0, 65, 0
1, 19500, Note_on_c, 0, 64, 76
1, 19511, Note_on_c, 1, 55, 0
1, 19512, Note_on_c, 1, 60, 61
1, 19535, Note_on_c, 1, 60, 0
1, 19536, Note_on_c, 1, 58, 61
1, 19555, Note_on_c, 0, 64, 0
1, 19559, Note_on_c, 1, 58, 0
1, 19560, Note_on_c, 0, 64, 76
1, 19560, Note_on_c, 1, 60, 61
1, 19583, Note_on_c, 0, 64, 0
1, 19583, Note_on_c, 1, 60, 0
1, 19584, Note_on_c, 0, 65, 76
1, 19584, Note_on_c, 1, 53, 61
1, 19607, Note_on_c, 0, 65, 0
1, 19607, Note_on_c, 1, 53, 0
1, 19608, Note_on_c, 0, 67, 76
1, 19608, Note_on_c, 1, 60, 61
1, 19631, Note_on_c, 0, 67, 0
1, 19631, Note_on_c, 1, 60, 0
1, 19632, Note_on_c, 0, 69, 77
1, 19632, Note_on_c, 1, 57, 61
1, 19655, Note_on_c, 0, 69, 0
1, 19655, Note_on_c, 1, 57, 0
1, 19656, Note_on_c, 0, 70, 78
1, 19656, Note_on_c, 1, 60, 61
1, 19679, Note_on_c, 0, 70, 0
1, 19679, Note_on_c, 1, 60, 0
1, 19680, Note_on_c, 0, 72, 79
1, 19680, Note_on_c, 1, 53, 61
1, 19703, Note_on_c, 0, 72, 0
1, 19703, Note_on_c, 1, 53, 0
1, 19704, Note_on_c, 0, 74, 79
1, 19704, Note_on_c, 1, 60, 61
1, 19727, Note_on_c, 0, 74, 0
1, 19727, Note_on_c, 1, 60, 0
1, 19728, Note_on_c, 0, 76, 80
1, 19728, Note_on_c, 1, 57, 61
1, 19751, Note_on_c, 0, 76, 0
1, 19751, Note_on_c, 1, 57, 0
1, 19752, Note_on_c, 0, 77, 81
1, 19752, Note_on_c, 1, 60, 61
1, 19775, Note_on_c, 0, 77, 0
1, 19775, Note_on_c, 1, 60, 0
1, 19776, Note_on_c, 0, 77, 98
1, 19776, Note_on_c, 1, 55, 61
1, 19799, Note_on_c, 1, 55, 0
1, 19800, Note_on_c, 0, 77, 0
1, 19800, Note_on_c, 0, 76, 81
1, 19800, Note_on_c, 1, 60, 61
1, 19823, Note_on_c, 0, 76, 0
1, 19823, Note_on_c, 1, 60, 0
1, 19824, Note_on_c, 0, 74, 80
1, 19824, Note_on_c, 1, 58, 61
1, 19847, Note_on_c, 0, 74, 0
1, 19847, Note_on_c, 1, 58, 0
1, 19848, Note_on_c, 0, 72, 79
1, 19848, Note_on_c, 1, 60, 61
1, 19871, Note_on_c, 0, 72, 0
1, 19871, Note_on_c, 1, 60, 0
1, 19872, Note_on_c, 0, 72, 79
1, 19872, Note_on_c, 1, 55, 61
1, 19895, Note_on_c, 0, 72, 0
1, 19895, Note_on_c, 1, 55, 0
1, 19896, Note_on_c, 0, 70, 78
1, 19896, Note_on_c, 1, 60, 61
1, 19919, Note_on_c, 0, 70, 0
1, 19919, Note_on_c, 1, 60, 0
1, 19920, Note_on_c, 0, 69, 77
1, 19920, Note_on_c, 1, 58, 61
1, 19943, Note_on_c, 0, 69, 0
1, 19943, Note_on_c, 1, 58, 0
1, 19944, Note_on_c, 0, 67, 76
1, 19944, Note_on_c, 1, 60, 61
1, 19967, Note_on_c, 0, 67, 0
1, 19967, Note_on_c, 1, 60, 0
1, 19968, Note_on_c, 0, 84, 92
1, 19968, Note_on_c, 1, 53, 61
1, 19991, Note_on_c, 1, 53, 0
1, 19992, Note_on_c, 1, 60, 61
1, 20015, Note_on_c, 1, 60, 0
1, 20016, Note_on_c, 1, 57, 61
1, 20039, Note_on_c, 1, 57, 0
1, 20040, Note_on_c, 0, 84, 0
1, 20040, Note_on_c, 0, 86, 76
1, 20040, Note_on_c, 1, 60, 61
1, 20052, Note_on_c, 0, 86, 0
1, 20052, Note_on_c, 0, 84, 76
1, 20063, Note_on_c, 1, 60, 0
1, 20064, Note_on_c, 0, 84, 0
1, 20064, Note_on_c, 0, 82, 76
1, 20064, Note_on_c, 1, 53, 61
1, 20087, Note_on_c, 0, 82, 0
1, 20087, Note_on_c, 1, 53, 0
1, 20088, Note_on_c, 0, 81, 76
1, 20088, Note_on_c, 1, 60, 61
1, 20111, Note_on_c, 0, 81, 0
1, 20111, Note_on_c, 1, 60, 0
1, 20112, Note_on_c, 0, 79, 76
1, 20112, Note_on_c, 1, 57, 61
1, 20135, Note_on_c, 0, 79, 0
1, 20135, Note_on_c, 1, 57, 0
1, 20136, Note_on_c, 0, 77, 76
1, 20136, Note_on_c, 1, 60, 61
1, 20159, Note_on_c, 0, 77, 0
1, 20159, Note_on_c, 1, 60, 0
1, 20160, Note_on_c, 0, 77, 76
1, 20160, Note_on_c, 1, 55, 61
1, 20183, Note_on_c, 1, 55, 0
1, 20184, Note_on_c, 1, 60, 61
1, 20207, Note_on_c, 1, 60, 0
1, 20208, Note_on_c, 1, 58, 61
1, 20231, Note_on_c, 1, 58, 0
1, 20232, Note_on_c, 1, 60, 61
1, 20255, Note_on_c, 1, 60, 0
1, 20256, Note_on_c, 0, 77, 0
1, 20256, Note_on_c, 0, 76, 76
1, 20256, Note_on_c, 1, 55, 61
1, 20262, Note_on_c, 0, 76, 0
1, 20262, Note_on_c, 0, 77, 76
1, 20268, Note_on_c, 0, 77, 0
1, 20268, Note_on_c, 0, 76, 76
1, 20279, Note_on_c, 1, 55, 0
1, 20280, Note_on_c, 1, 60, 61
1, 20303, Note_on_c, 1, 60, 0
1, 20304, Note_on_c, 1, 58, 61
1, 20323, Note_on_c, 0, 76, 0
1, 20327, Note_on_c, 1, 58, 0
1, 20328, Note_on_c, 0, 82, 76
1, 20328, Note_on_c, 1, 60, 61
1, 20351, Note_on_c, 0, 82, 0
1, 20351, Note_on_c, 1, 60, 0
1, 20352, Note_on_c, 0, 81, 76
1, 20352, Note_on_c, 1, 53, 61
1, 20362, Note_on_c, 0, 81, 0
1, 20375, Note_on_c, 1, 53, 0
1, 20376, Note_on_c, 0, 82, 76
1, 20376, Note_on_c, 1, 60, 61
1, 20386, Note_on_c, 0, 82, 0
1, 20399, Note_on_c, 1, 60, 0
1, 20400, Note_on_c, 0, 84, 77
1, 20400, Note_on_c, 1, 57, 61
1, 20410, Note_on_c, 0, 84, 0
1, 20423, Note_on_c, 1, 57, 0
1, 20424, Note_on_c, 0, 86, 78
1, 20424, Note_on_c, 1, 60, 61
1, 20434, Note_on_c, 0, 86, 0
1, 20447, Note_on_c, 1, 60, 0
1, 20448, Note_on_c, 0, 88, 79
1, 20448, Note_on_c, 1, 53, 61
1, 20458, Note_on_c, 0, 88, 0
1, 20471, Note_on_c, 1, 53, 0
1, 20472, Note_on_c, 0, 89, 79
1, 20472, Note_on_c, 1, 60, 61
1, 20482, Note_on_c, 0, 89, 0
1, 20495, Note_on_c, 1, 60, 0
1, 20496, Note_on_c, 0, 88, 80
1, 20496, Note_on_c, 1, 57, 61
1, 20506, Note_on_c, 0, 88, 0
1, 20519, Note_on_c, 1, 57, 0
1, 20520, Note_on_c, 0, 89, 81
1, 20520, Note_on_c, 1, 60, 61
1, 20530, Note_on_c, 0, 89, 0
1, 20543, Note_on_c, 1, 60, 0
1, 20544, Note_on_c, 0, 89, 98
1, 20544, Note_on_c, 1, 55, 61
1, 20567, Note_on_c, 1, 55, 0
1, 20568, Note_on_c, 0, 89, 0
1, 20568, Note_on_c, 0, 88, 81
1, 20568, Note_on_c, 1, 60, 61
1, 20591, Note_on_c, 0, 88, 0
1, 20591, Note_on_c, 1, 60, 0
1, 20592, Note_on_c, 0, 86, 80
1, 20592, Note_on_c, 1, 58, 61
1, 20615, Note_on_c, 0, 86, 0
1, 20615, Note_on_c, 1, 58, 0
1, 20616, Note_on_c, 0, 84, 79
1, 20616, Note_on_c, 1, 60, 61
1, 20639, Note_on_c, 0, 84, 0
1, 20639, Note_on_c, 1, 60, 0
1, 20640, Note_on_c, 0, 84, 95
1, 20640, Note_on_c, 1, 55, 61
1, 20663, Note_on_c, 1, 55, 0
1, 20664, Note_on_c, 0, 84, 0
1, 20664, Note_on_c, 0, 86, 78
1, 20664, Note_on_c, 1, 60, 61
1, 20676, Note_on_c, 0, 86, 0
1, 20676, Note_on_c, 0, 84, 77
1, 20687, Note_on_c, 1, 60, 0
1, 20688, Note_on_c, 0, 84, 0
1, 20688, Note_on_c, 0, 84, 77
1, 20688, Note_on_c, 1, 58, 61
1, 20700, Note_on_c, 0, 84, 0
1, 20700, Note_on_c, 0, 82, 77
1, 20711, Note_on_c, 1, 58, 0
1, 20712, Note_on_c, 0, 82, 0
1, 20712, Note_on_c, 0, 81, 76
1, 20712, Note_on_c, 1, 60, 61
1, 20724, Note_on_c, 0, 81, 0
1, 20724, Note_on_c, 0, 79, 76
1, 20735, Note_on_c, 1, 60, 0
1, 20736, Note_on_c, 0, 79, 0
1, 20736, Note_on_c, 0, 81, 76
1, 20736, Note_on_c, 1, 53, 61
1, 20736, Note_on_c, 1, 53, 61
1, 20759, Note_on_c, 0, 81, 0
1, 20759, Note_on_c, 1, 53, 0
1, 20759, Note_on_c, 1, 53, 0
1, 20760, Note_on_c, 0, 82, 76
1, 20760, Note_on_c, 1, 60, 62
1, 20760, Note_on_c, 1, 60, 61
1, 20783, Note_on_c, 0, 82, 0
1, 20783, Note_on_c, 1, 60, 0
1, 20783, Note_on_c, 1, 60, 0
1, 20784, Note_on_c, 0, 81, 77
1, 20784, Note_on_c, 1, 57, 63
1, 20784, Note_on_c, 1, 57, 61
1, 20807, Note_on_c, 0, 81, 0
1, 20807, Note_on_c, 1, 57, 0
1, 20807, Note_on_c, 1, 57, 0
1, 20808, Note_on_c, 0, 82, 78
1, 20808, Note_on_c, 1, 60, 64
1, 20808, Note_on_c, 1, 60, 61
1, 20831, Note_on_c, 0, 82, 0
1, 20831, Note_on_c, 1, 60, 0
1, 20831, Note_on_c, 1, 60, 0
1, 20832, Note_on_c, 0, 84, 79
1, 20832, Note_on_c, 1, 53, 65
1, 20832, Note_on_c, 1, 53, 61
1, 20855, Note_on_c, 0, 84, 0
1, 20855, Note_on_c, 1, 53, 0
1, 20855, Note_on_c, 1, 53, 0
1, 20856, Note_on_c, 0, 86, 79
1, 20856, Note_on_c, 1, 60, 66
1, 20856, Note_on_c, 1, 60, 61
1, 20879, Note_on_c, 0, 86, 0
1, 20879, Note_on_c, 1, 60, 0
1, 20879, Note_on_c, 1, 60, 0
1, 20880, Note_on_c, 0, 84, 80
1, 20880, Note_on_c, 1, 57, 67
1, 20880, Note_on_c, 1, 57, 61
1, 20903, Note_on_c, 0, 84, 0
1, 20903, Note_on_c, 1, 57, 0
1, 20903, Note_on_c, 1, 57, 0
1, 20904, Note_on_c, 0, 86, 81
1, 20904, Note_on_c, 1, 60, 68
1, 20904, Note_on_c, 1, 60, 61
1, 20927, Note_on_c, 0, 86, 0
1, 20927, Note_on_c, 1, 60, 0
1, 20927, Note_on_c, 1, 60, 0
1, 20928, Note_on_c, 0, 87, 98
1, 20928, Note_on_c, 0, 75, 98
1, 20928, Note_on_c, 1, 57, 70
1, 20951, Note_on_c, 1, 57, 0
1, 20952, Note_on_c, 1, 65, 70
1, 20975, Note_on_c, 1, 65, 0
1, 20976, Note_on_c, 1, 60, 70
1, 20999, Note_on_c, 1, 60, 0
1, 21000, Note_on_c, 1, 65, 70
1, 21023, Note_on_c, 1, 65, 0
1, 21024, Note_on_c, 1, 57, 70
1, 21047, Note_on_c, 1, 57, 0
1, 21048, Note_on_c, 1, 65, 70
1, 21071, Note_on_c, 1, 65, 0
1, 21072, Note_on_c, 1, 60, 70
1, 21095, Note_on_c, 1, 60, 0
1, 21096, Note_on_c, 1, 65, 71
1, 21119, Note_on_c, 1, 65, 0
1, 21120, Note_on_c, 0, 87, 0
1, 21120, Note_on_c, 0, 75, 0
1, 21120, Note_on_c, 1, 58, 71
1, 21143, Note_on_c, 1, 58, 0
1, 21144, Note_on_c, 0, 86, 82
1, 21144, Note_on_c, 1, 65, 72
1, 21167, Note_on_c, 0, 86, 0
1, 21167, Note_on_c, 1, 65, 0
1, 21168, Note_on_c, 0, 85, 82
1, 21168, Note_on_c, 1, 62, 72
1, 21191, Note_on_c, 0, 85, 0
1, 21191, Note_on_c, 1, 62, 0
1, 21192, Note_on_c, 0, 86, 82
1, 21192, Note_on_c, 1, 65, 73
1, 21215, Note_on_c, 0, 86, 0
1, 21215, Note_on_c, 1, 65, 0
1, 21216, Note_on_c, 1, 57, 73
1, 21239, Note_on_c, 1, 57, 0
1, 21240, Note_on_c, 0, 84, 82
1, 21240, Note_on_c, 1, 66, 74
1, 21263, Note_on_c, 0, 84, 0
1, 21263, Note_on_c, 1, 66, 0
1, 21264, Note_on_c, 0, 83, 82
1, 21264, Note_on_c, 1, 60, 74
1, 21287, Note_on_c, 0, 83, 0
1, 21287, Note_on_c, 1, 60, 0
1, 21288, Note_on_c, 0, 84, 82
1, 21288, Note_on_c, 1, 66, 75
1, 21311, Note_on_c, 0, 84, 0
1, 21311, Note_on_c, 1, 66, 0
1, 21312, Note_on_c, 1, 55, 75
1, 21335, Note_on_c, 1, 55, 0
1, 21336, Note_on_c, 0, 83, 82
1, 21336, Note_on_c, 1, 65, 76
1, 21359, Note_on_c, 0, 83, 0
1, 21359, Note_on_c, 1, 65, 0
1, 21360, Note_on_c, 0, 84, 81
1, 21360, Note_on_c, 1, 62, 73
1, 21366, Note_on_c, 0, 84, 0
1, 21366, Note_on_c, 0, 83, 81
1, 21372, Note_on_c, 0, 83, 0
1, 21372, Note_on_c, 0, 81, 81
1, 21378, Note_on_c, 0, 81, 0
1, 21378, Note_on_c, 0, 83, 81
1, 21383, Note_on_c, 1, 62, 0
1, 21384, Note_on_c, 1, 65, 71
1, 21405, Note_on_c, 0, 83, 0
1, 21407, Note_on_c, 1, 65, 0
1, 21408, Note_on_c, 1, 60, 69
1, 21431, Note_on_c, 1, 60, 0
1, 21432, Note_on_c, 0, 82, 78
1, 21432, Note_on_c, 1, 67, 67
1, 21455, Note_on_c, 0, 82, 0
1, 21455, Note_on_c, 1, 67, 0
1, 21456, Note_on_c, 0, 84, 77
1, 21456, Note_on_c, 1, 64, 65
1, 21462, Note_on_c, 0, 84, 0
1, 21462, Note_on_c, 0, 82, 77
1, 21468, Note_on_c, 0, 82, 0
1, 21468, Note_on_c, 0, 81, 77
1, 21474, Note_on_c, 0, 81, 0
1, 21474, Note_on_c, 0, 82, 77
1, 21479, Note_on_c, 1, 64, 0
1, 21480, Note_on_c, 1, 67, 63
1, 21501, Note_on_c, 0, 82, 0
1, 21503, Note_on_c, 1, 67, 0
1, 21504, Note_on_c, 1, 53, 61
1, 21527, Note_on_c, 1, 53, 0
1, 21528, Note_on_c, 0, 81, 76
1, 21528, Note_on_c, 1, 65, 61
1, 21551, Note_on_c, 0, 81, 0
1, 21551, Note_on_c, 1, 65, 0
1, 21552, Note_on_c, 0, 82, 77
1, 21552, Note_on_c, 1, 57, 61
1, 21575, Note_on_c, 0, 82, 0
1, 21575, Note_on_c, 1, 57, 0
1, 21576, Note_on_c, 0, 84, 78
1, 21576, Note_on_c, 1, 65, 61
1, 21599, Note_on_c, 0, 84, 0
1, 21599, Note_on_c, 1, 65, 0
1, 21600, Note_on_c, 0, 84, 79
1, 21600, Note_on_c, 1, 58, 61
1, 21623, Note_on_c, 0, 84, 0
1, 21623, Note_on_c, 1, 58, 0
1, 21624, Note_on_c, 0, 74, 80
1, 21624, Note_on_c, 1, 67, 61
1, 21647, Note_on_c, 0, 74, 0
1, 21647, Note_on_c, 1, 67, 0
1, 21648, Note_on_c, 0, 82, 81
1, 21648, Note_on_c, 1, 62, 61
1, 21671, Note_on_c, 0, 82, 0
1, 21671, Note_on_c, 1, 62, 0
1, 21672, Note_on_c, 0, 79, 82
1, 21672, Note_on_c, 1, 67, 61
1, 21695, Note_on_c, 0, 79, 0
1, 21695, Note_on_c, 1, 67, 0
1, 21696, Note_on_c, 0, 77, 82
1, 21696, Note_on_c, 1, 60, 61
1, 21719, Note_on_c, 1, 60, 0
1, 21720, Note_on_c, 1, 69, 61
1, 21743, Note_on_c, 1, 69, 0
1, 21744, Note_on_c, 1, 65, 61
1, 21767, Note_on_c, 1, 65, 0
1, 21768, Note_on_c, 1, 69, 61
1, 21785, Note_on_c, 0, 77, 0
1, 21791, Note_on_c, 1, 69, 0
1, 21792, Note_on_c, 0, 77, 78
1, 21792, Note_on_c, 1, 60, 61
1, 21799, Note_on_c, 0, 77, 0
1, 21799, Note_on_c, 0, 76, 78
1, 21806, Note_on_c, 0, 76, 0
1, 21806, Note_on_c, 0, 77, 78
1, 21813, Note_on_c, 0, 77, 0
1, 21813, Note_on_c, 0, 76, 78
1, 21815, Note_on_c, 1, 60, 0
1, 21816, Note_on_c, 1, 67, 61
1, 21820, Note_on_c, 0, 76, 0
1, 21820, Note_on_c, 0, 77, 78
1, 21827, Note_on_c, 0, 77, 0
1, 21827, Note_on_c, 0, 76, 77
1, 21834, Note_on_c, 0, 76, 0
1, 21834, Note_on_c, 0, 77, 77
1, 21839, Note_on_c, 1, 67, 0
1, 21840, Note_on_c, 1, 64, 61
1, 21841, Note_on_c, 0, 77, 0
1, 21841, Note_on_c, 0, 76, 77
1, 21848, Note_on_c, 0, 76, 0
1, 21848, Note_on_c, 0, 77, 77
1, 21855, Note_on_c, 0, 77, 0
1, 21855, Note_on_c, 0, 76, 77
1, 21862, Note_on_c, 0, 76, 0
1, 21862, Note_on_c, 0, 74, 76
1, 21863, Note_on_c, 1, 64, 0
1, 21864, Note_on_c, 1, 67, 61
1, 21876, Note_on_c, 0, 74, 0
1, 21876, Note_on_c, 0, 76, 76
1, 21887, Note_on_c, 1, 67, 0
1, 21888, Note_on_c, 0, 76, 0
1, 21888, Note_on_c, 1, 57, 61
1, 21911, Note_on_c, 1, 57, 0
1, 21912, Note_on_c, 0, 84, 76
1, 21912, Note_on_c, 1, 65, 61
1, 21935, Note_on_c, 0, 84, 0
1, 21935, Note_on_c, 1, 65, 0
1, 21936, Note_on_c, 0, 81, 76
1, 21936, Note_on_c, 1, 60, 61
1, 21959, Note_on_c, 0, 81, 0
1, 21959, Note_on_c, 1, 60, 0
1, 21960, Note_on_c, 0, 77, 77
1, 21960, Note_on_c, 1, 65, 61
1, 21983, Note_on_c, 0, 77, 0
1, 21983, Note_on_c, 1, 65, 0
1, 21984, Note_on_c, 0, 75, 78
1, 21984, Note_on_c, 1, 58, 61
1, 22007, Note_on_c, 0, 75, 0
1, 22007, Note_on_c, 1, 58, 0
1, 22008, Note_on_c, 0, 74, 79
1, 22008, Note_on_c, 1, 65, 61
1, 22031, Note_on_c, 0, 74, 0
1, 22031, Note_on_c, 1, 65, 0
1, 22032, Note_on_c, 0, 85, 80
1, 22032, Note_on_c, 1, 62, 61
1, 22055, Note_on_c, 1, 62, 0
1, 22056, Note_on_c, 0, 85, 0
1, 22056, Note_on_c, 0, 86, 81
1, 22056, Note_on_c, 1, 65, 61
1, 22079, Note_on_c, 0, 86, 0
1, 22079, Note_on_c, 1, 65, 0
1, 22080, Note_on_c, 0, 77, 82
1, 22080, Note_on_c, 1, 60, 61
1, 22103, Note_on_c, 1, 60, 0
1, 22104, Note_on_c, 1, 69, 61
1, 22127, Note_on_c, 1, 69, 0
1, 22128, Note_on_c, 1, 65, 61
1, 22151, Note_on_c, 1, 65, 0
1, 22152, Note_on_c, 1, 69, 61
1, 22169, Note_on_c, 0, 77, 0
1, 22175, Note_on_c, 1, 69, 0
1, 22176, Note_on_c, 0, 81, 82
1, 22176, Note_on_c, 1, 60, 61
1, 22183, Note_on_c, 0, 81, 0
1, 22183, Note_on_c, 0, 79, 81
1, 22190, Note_on_c, 0, 79, 0
1, 22190, Note_on_c, 0, 81, 81
1, 22197, Note_on_c, 0, 81, 0
1, 22197, Note_on_c, 0, 79, 80
1, 22199, Note_on_c, 1, 60, 0
1, 22200, Note_on_c, 1, 64, 61
1, 22204, Note_on_c, 0, 79, 0
1, 22204, Note_on_c, 0, 81, 80
1, 22211, Note_on_c, 0, 81, 0
1, 22211, Note_on_c, 0, 79, 80
1, 22218, Note_on_c, 0, 79, 0
1, 22218, Note_on_c, 0, 81, 79
1, 22223, Note_on_c, 1, 64, 0
1, 22224, Note_on_c, 1, 60, 61
1, 22225, Note_on_c, 0, 81, 0
1, 22225, Note_on_c, 0, 79, 79
1, 22232, Note_on_c, 0, 79, 0
1, 22232, Note_on_c, 0, 81, 79
1, 22239, Note_on_c, 0, 81, 0
1, 22239, Note_on_c, 0, 79, 78
1, 22246, Note_on_c, 0, 79, 0
1, 22246, Note_on_c, 0, 77, 78
1, 22247, Note_on_c, 1, 60, 0
1, 22248, Note_on_c, 1, 64, 61
1, 22260, Note_on_c, 0, 77, 0
1, 22260, Note_on_c, 0, 79, 77
1, 22271, Note_on_c, 1, 64, 0
1, 22272, Note_on_c, 0, 79, 0
1, 22272, Note_on_c, 0, 77, 76
1, 22272, Note_on_c, 1, 65, 61
1, 22272, Note_on_c, 1, 53, 61
1, 22317, Note_on_c, 0, 77, 0
1, 22320, Note_on_c, 0, 69, 70
1, 22320, Note_on_c, 0, 65, 70
1, 22340, Note_on_c, 0, 69, 0
1, 22340, Note_on_c, 0, 65, 0
1, 22361, Note_on_c, 1, 65, 0
1, 22361, Note_on_c, 1, 53, 0
1, 22368, Note_on_c, 0, 69, 70
1, 22368, Note_on_c, 0, 65, 70
1, 22388, Note_on_c, 0, 69, 0
1, 22388, Note_on_c, 0, 65, 0
1, 22416, Note_on_c, 0, 69, 70
1, 22416, Note_on_c, 0, 65, 70
1, 22436, Note_on_c, 0, 69, 0
1, 22436, Note_on_c, 0, 65, 0
1, 22464, Note_on_c, 0, 65, 70
1, 22464, Note_on_c, 0, 70, 82
1, 22470, Note_on_c, 0, 70, 0
1, 22470, Note_on_c, 0, 69, 82
1, 22476, Note_on_c, 0, 69, 0
1, 22476, Note_on_c, 0, 67, 82
1, 22482, Note_on_c, 0, 67, 0
1, 22482, Note_on_c, 0, 69, 82
1, 22509, Note_on_c, 0, 65, 0
1, 22509, Note_on_c, 0, 69, 0
1, 22512, Note_on_c, 0, 72, 70
1, 22512, Note_on_c, 0, 69, 70
1, 22557, Note_on_c, 0, 72, 0
1, 22557, Note_on_c, 0, 69, 0
1, 22560, Note_on_c, 0, 69, 70
1, 22560, Note_on_c, 0, 65, 70
1, 22605, Note_on_c, 0, 69, 0
1, 22605, Note_on_c, 0, 65, 0
1, 22608, Note_on_c, 0, 65, 70
1, 22608, Note_on_c, 0, 62, 70
1, 22653, Note_on_c, 0, 65, 0
1, 22653, Note_on_c, 0, 62, 0
1, 22656, Note_on_c, 0, 62, 70
1, 22656, Note_on_c, 0, 58, 70
1, 22752, Note_on_c, 1, 46, 82
1, 22752, Note_on_c, 1, 34, 82
1, 22775, Note_on_c, 0, 62, 0
1, 22775, Note_on_c, 0, 58, 0
1, 22776, Note_on_c, 0, 62, 82
1, 22776, Note_on_c, 0, 58, 82
1, 22786, Note_on_c, 0, 62, 0
1, 22786, Note_on_c, 0, 58, 0
1, 22800, Note_on_c, 0, 64, 81
1, 22800, Note_on_c, 0, 60, 81
1, 22810, Note_on_c, 0, 64, 0
1, 22810, Note_on_c, 0, 60, 0
1, 22824, Note_on_c, 0, 65, 80
1, 22824, Note_on_c, 0, 62, 80
1, 22834, Note_on_c, 0, 65, 0
1, 22834, Note_on_c, 0, 62, 0
1, 22841, Note_on_c, 1, 46, 0
1, 22841, Note_on_c, 1, 34, 0
1, 22848, Note_on_c, 0, 65, 80
1, 22848, Note_on_c, 0, 62, 80
1, 22848, Note_on_c, 1, 48, 82
1, 22848, Note_on_c, 1, 36, 82
1, 22872, Note_on_c, 0, 65, 0
1, 22872, Note_on_c, 0, 62, 0
1, 22872, Note_on_c, 0, 64, 79
1, 22872, Note_on_c, 0, 60, 79
1, 22895, Note_on_c, 0, 64, 0
1, 22895, Note_on_c, 0, 60, 0
1, 22896, Note_on_c, 0, 62, 79
1, 22896, Note_on_c, 0, 58, 79
1, 22906, Note_on_c, 0, 62, 0
1, 22906, Note_on_c, 0, 58, 0
1, 22920, Note_on_c, 0, 60, 78
1, 22920, Note_on_c, 0, 57, 78
1, 22930, Note_on_c, 0, 60, 0
1, 22930, Note_on_c, 0, 57, 0
1, 22937, Note_on_c, 1, 48, 0
1, 22937, Note_on_c, 1, 36, 0
1, 22944, Note_on_c, 0, 60, 78
1, 22944, Note_on_c, 0, 57, 78
1, 22944, Note_on_c, 1, 48, 82
1, 22944, Note_on_c, 1, 36, 82
1, 22968, Note_on_c, 0, 60, 0
1, 22968, Note_on_c, 0, 57, 0
1, 22968, Note_on_c, 0, 58, 77
1, 22968, Note_on_c, 0, 55, 77
1, 22991, Note_on_c, 0, 58, 0
1, 22991, Note_on_c, 0, 55, 0
1, 22992, Note_on_c, 0, 57, 77
1, 22992, Note_on_c, 0, 53, 77
1, 23002, Note_on_c, 0, 57, 0
1, 23002, Note_on_c, 0, 53, 0
1, 23016, Note_on_c, 0, 55, 76
1, 23016, Note_on_c, 0, 52, 76
1, 23026, Note_on_c, 0, 55, 0
1, 23026, Note_on_c, 0, 52, 0
1, 23033, Note_on_c, 1, 48, 0
1, 23033, Note_on_c, 1, 36, 0
1, 23040, Note_on_c, 1, 41, 82
1, 23040, Note_on_c, 1, 29, 82
1, 23088, Note_on_c, 0, 65, 76
1, 23103, Note_on_c, 0, 65, 0
1, 23104, Note_on_c, 0, 69, 76
1, 23119, Note_on_c, 0, 69, 0
1, 23120, Note_on_c, 0, 77, 76
1, 23129, Note_on_c, 1, 41, 0
1, 23129, Note_on_c, 1, 29, 0
1, 23135, Note_on_c, 0, 77, 0
1, 23136, Note_on_c, 0, 65, 76
1, 23151, Note_on_c, 0, 65, 0
1, 23152, Note_on_c, 0, 69, 76
1, 23167, Note_on_c, 0, 69, 0
1, 23168, Note_on_c, 0, 77, 76
1, 23183, Note_on_c, 0, 77, 0
1, 23184, Note_on_c, 0, 65, 76
1, 23199, Note_on_c, 0, 65, 0
1, 23200, Note_on_c, 0, 69, 76
1, 23215, Note_on_c, 0, 69, 0
1, 23216, Note_on_c, 0, 77, 76
1, 23231, Note_on_c, 0, 77, 0
1, 23232, Note_on_c, 0, 65, 76
1, 23247, Note_on_c, 0, 65, 0
1, 23248, Note_on_c, 0, 69, 76
1, 23263, Note_on_c, 0, 69, 0
1, 23264, Note_on_c, 0, 77, 76
1, 23279, Note_on_c, 0, 77, 0
1, 23280, Note_on_c, 0, 69, 76
1, 23295, Note_on_c, 0, 69, 0
1, 23296, Note_on_c, 0, 72, 76
1, 23311, Note_on_c, 0, 72, 0
1, 23312, Note_on_c, 0, 81, 76
1, 23327, Note_on_c, 0, 81, 0
1, 23328, Note_on_c, 0, 65, 76
1, 23343, Note_on_c, 0, 65, 0
1, 23344, Note_on_c, 0, 69, 76
1, 23359, Note_on_c, 0, 69, 0
1, 23360, Note_on_c, 0, 77, 76
1, 23375, Note_on_c, 0, 77, 0
1, 23376, Note_on_c, 0, 62, 76
1, 23391, Note_on_c, 0, 62, 0
1, 23392, Note_on_c, 0, 65, 76
1, 23407, Note_on_c, 0, 65, 0
1, 23408, Note_on_c, 0, 74, 76
1, 23423, Note_on_c, 0, 74, 0
1, 23424, Note_on_c, 0, 58, 70
1, 23520, Note_on_c, 1, 46, 82
1, 23520, Note_on_c, 1, 34, 82
1, 23543, Note_on_c, 0, 58, 0
1, 23544, Note_on_c, 0, 77, 82
1, 23544, Note_on_c, 0, 74, 82
1, 23567, Note_on_c, 0, 77, 0
1, 23567, Note_on_c, 0, 74, 0
1, 23568, Note_on_c, 0, 76, 82
1, 23568, Note_on_c, 0, 72, 82
1, 23591, Note_on_c, 0, 76, 0
1, 23591, Note_on_c, 0, 72, 0
1, 23592, Note_on_c, 0, 74, 82
1, 23592, Note_on_c, 0, 70, 82
1, 23609, Note_on_c, 1, 46, 0
1, 23609, Note_on_c, 1, 34, 0
1, 23615, Note_on_c, 0, 74, 0
1, 23615, Note_on_c, 0, 70, 0
1, 23616, Note_on_c, 0, 74, 82
1, 23616, Note_on_c, 0, 70, 82
1, 23616, Note_on_c, 1, 48, 82
1, 23616, Note_on_c, 1, 36, 82
1, 23640, Note_on_c, 0, 74, 0
1, 23640, Note_on_c, 0, 70, 0
1, 23640, Note_on_c, 0, 72, 81
1, 23640, Note_on_c, 0, 69, 81
1, 23663, Note_on_c, 0, 72, 0
1, 23663, Note_on_c, 0, 69, 0
1, 23664, Note_on_c, 0, 70, 80
1, 23664, Note_on_c, 0, 67, 80
1, 23674, Note_on_c, 0, 70, 0
1, 23674, Note_on_c, 0, 67, 0
1, 23688, Note_on_c, 0, 69, 79
1, 23688, Note_on_c, 0, 65, 79
1, 23698, Note_on_c, 0, 69, 0
1, 23698, Note_on_c, 0, 65, 0
1, 23705, Note_on_c, 1, 48, 0
1, 23705, Note_on_c, 1, 36, 0
1, 23712, Note_on_c, 0, 69, 79
1, 23712, Note_on_c, 1, 58, 76
1, 23712, Note_on_c, 1, 48, 76
1, 23736, Note_on_c, 0, 69, 0
1, 23736, Note_on_c, 0, 67, 78
1, 23757, Note_on_c, 1, 58, 0
1, 23757, Note_on_c, 1, 48, 0
1, 23759, Note_on_c, 0, 67, 0
1, 23760, Note_on_c, 0, 65, 77
1, 23770, Note_on_c, 0, 65, 0
1, 23784, Note_on_c, 0, 64, 76
1, 23784, Note_on_c, 0, 58, 76
1, 23794, Note_on_c, 0, 64, 0
1, 23794, Note_on_c, 0, 58, 0
1, 23808, Note_on_c, 1, 64, 76
1, 23808, Note_on_c, 1, 58, 76
1, 23808, Note_on_c, 1, 53, 76
1, 24000, Note_on_c, 1, 64, 0
1, 24000, Note_on_c, 1, 58, 0
1, 24000, Note_on_c, 1, 41, 70
1, 24006, Note_on_c, 1, 45, 70
1, 24012, Note_on_c, 1, 48, 70
1, 24018, Note_on_c, 1, 57, 70
1, 24024, Note_on_c, 1, 60, 70
1, 24030, Note_on_c, 1, 65, 70
1, 24141, Note_on_c, 1, 65, 0
1, 24141, Note_on_c, 1, 60, 0
1, 24141, Note_on_c, 1, 57, 0
1, 24141, Note_on_c, 1, 53, 0
1, 24141, Note_on_c, 1, 48, 0
1, 24141, Note_on_c, 1, 45, 0
1, 24141, Note_on_c, 1, 41, 0
1, 24192, Note_on_c, 0, 64, 82
1, 24192, Note_on_c, 1, 48, 82
1, 24198, Note_on_c, 1, 52, 82
1, 24204, Note_on_c, 0, 67, 82
1, 24204, Note_on_c, 1, 55, 82
1, 24210, Note_on_c, 1, 60, 82
1, 24216, Note_on_c, 0, 72, 82
1, 24259, Note_on_c, 0, 72, 0
1, 24259, Note_on_c, 0, 67, 0
1, 24259, Note_on_c, 0, 64, 0
1, 24264, Note_on_c, 0, 67, 82
1, 24285, Note_on_c, 1, 60, 0
1, 24285, Note_on_c, 1, 55, 0
1, 24285, Note_on_c, 1, 52, 0
1, 24285, Note_on_c, 1, 48, 0
1, 24287, Note_on_c, 0, 67, 0
1, 24288, Note_on_c, 0, 77, 76
1, 24311, Note_on_c, 0, 77, 0
1, 24312, Note_on_c, 0, 76, 76
1, 24335, Note_on_c, 0, 76, 0
1, 24336, Note_on_c, 0, 74, 76
1, 24359, Note_on_c, 0, 74, 0
1, 24360, Note_on_c, 0, 72, 76
1, 24383, Note_on_c, 0, 72, 0
1, 24384, Note_on_c, 0, 79, 76
1, 24384, Note_on_c, 1, 60, 61
1, 24407, Note_on_c, 1, 60, 0
1, 24408, Note_on_c, 1, 70, 61
1, 24423, Note_on_c, 0, 79, 0
1, 24431, Note_on_c, 1, 70, 0
1, 24432, Note_on_c, 1, 67, 61
1, 24455, Note_on_c, 1, 67, 0
1, 24456, Note_on_c, 1, 70, 61
1, 24479, Note_on_c, 1, 70, 0
1, 24480, Note_on_c, 1, 60, 61
1, 24503, Note_on_c, 1, 60, 0
1, 24504, Note_on_c, 1, 70, 61
1, 24527, Note_on_c, 1, 70, 0
1, 24528, Note_on_c, 1, 67, 61
1, 24551, Note_on_c, 1, 67, 0
1, 24552, Note_on_c, 1, 70, 61
1, 24575, Note_on_c, 1, 70, 0
1, 24576, Note_on_c, 0, 77, 76
1, 24576, Note_on_c, 1, 60, 61
1, 24599, Note_on_c, 1, 60, 0
1, 24600, Note_on_c, 1, 69, 61
1, 24623, Note_on_c, 1, 69, 0
1, 24624, Note_on_c, 1, 65, 61
1, 24643, Note_on_c, 0, 77, 0
1, 24647, Note_on_c, 1, 65, 0
1, 24648, Note_on_c, 0, 72, 76
1, 24648, Note_on_c, 1, 69, 61
1, 24671, Note_on_c, 0, 72, 0
1, 24671, Note_on_c, 1, 69, 0
1, 24672, Note_on_c, 0, 82, 76
1, 24672, Note_on_c, 1, 60, 61
1, 24695, Note_on_c, 0, 82, 0
1, 24695, Note_on_c, 1, 60, 0
1, 24696, Note_on_c, 0, 81, 76
1, 24696, Note_on_c, 1, 69, 61
1, 24719, Note_on_c, 0, 81, 0
1, 24719, Note_on_c, 1, 69, 0
1, 24720, Note_on_c, 0, 79, 76
1, 24720, Note_on_c, 1, 65, 61
1, 24743, Note_on_c, 0, 79, 0
1, 24743, Note_on_c, 1, 65, 0
1, 24744, Note_on_c, 0, 77, 76
1, 24744, Note_on_c, 1, 69, 61
1, 24767, Note_on_c, 0, 77, 0
1, 24767, Note_on_c, 1, 69, 0
1, 24768, Note_on_c, 0, 84, 76
1, 24768, Note_on_c, 1, 60, 61
1, 24791, Note_on_c, 1, 60, 0
1, 24792, Note_on_c, 1, 67, 61
1, 24807, Note_on_c, 0, 84, 0
1, 24815, Note_on_c, 1, 67, 0
1, 24816, Note_on_c, 1, 64, 61
1, 24839, Note_on_c, 1, 64, 0
1, 24840, Note_on_c, 1, 67, 61
1, 24863, Note_on_c, 1, 67, 0
1, 24864, Note_on_c, 1, 60, 61
1, 24887, Note_on_c, 1, 60, 0
1, 24888, Note_on_c, 1, 67, 61
1, 24911, Note_on_c, 1, 67, 0
1, 24912, Note_on_c, 1, 64, 61
1, 24935, Note_on_c, 1, 64, 0
1, 24936, Note_on_c, 1, 67, 61
1, 24959, Note_on_c, 1, 67, 0
1, 24960, Note_on_c, 0, 86, 76
1, 24960, Note_on_c, 1, 57, 61
1, 24966, Note_on_c, 0, 86, 0
1, 24966, Note_on_c, 0, 84, 76
1, 24972, Note_on_c, 0, 84, 0
1, 24972, Note_on_c, 0, 82, 76
1, 24978, Note_on_c, 0, 82, 0
1, 24978, Note_on_c, 0, 84, 76
1, 24983, Note_on_c, 1, 57, 0
1, 24984, Note_on_c, 1, 63, 61
1, 25007, Note_on_c, 1, 63, 0
1, 25008, Note_on_c, 1, 60, 61
1, 25031, Note_on_c, 1, 60, 0
1, 25032, Note_on_c, 1, 63, 61
1, 25055, Note_on_c, 1, 63, 0
1, 25056, Note_on_c, 1, 57, 61
1, 25079, Note_on_c, 1, 57, 0
1, 25080, Note_on_c, 1, 63, 61
1, 25103, Note_on_c, 1, 63, 0
1, 25104, Note_on_c, 1, 60, 61
1, 25123, Note_on_c, 0, 84, 0
1, 25127, Note_on_c, 1, 60, 0
1, 25128, Note_on_c, 0, 82, 76
1, 25128, Note_on_c, 1, 63, 61
1, 25136, Note_on_c, 0, 82, 0
1, 25136, Note_on_c, 0, 81, 76
1, 25144, Note_on_c, 0, 81, 0
1, 25144, Note_on_c, 0, 79, 76
1, 25151, Note_on_c, 1, 63, 0
1, 25152, Note_on_c, 0, 79, 0
1, 25152, Note_on_c, 0, 78, 76
1, 25152, Note_on_c, 1, 57, 61
1, 25175, Note_on_c, 0, 78, 0
1, 25175, Note_on_c, 1, 57, 0
1, 25176, Note_on_c, 0, 75, 76
1, 25176, Note_on_c, 1, 63, 61
1, 25199, Note_on_c, 0, 75, 0
1, 25199, Note_on_c, 1, 63, 0
1, 25200, Note_on_c, 0, 74, 76
1, 25200, Note_on_c, 1, 60, 61
1, 25223, Note_on_c, 0, 74, 0
1, 25223, Note_on_c, 1, 60, 0
1, 25224, Note_on_c, 0, 72, 76
1, 25224, Note_on_c, 1, 63, 61
1, 25247, Note_on_c, 0, 72, 0
1, 25247, Note_on_c, 1, 63, 0
1, 25248, Note_on_c, 0, 70, 76
1, 25248, Note_on_c, 1, 57, 61
1, 25271, Note_on_c, 0, 70, 0
1, 25271, Note_on_c, 1, 57, 0
1, 25272, Note_on_c, 0, 69, 76
1, 25272, Note_on_c, 1, 63, 61
1, 25295, Note_on_c, 0, 69, 0
1, 25295, Note_on_c, 1, 63, 0
1, 25296, Note_on_c, 0, 67, 76
1, 25296, Note_on_c, 1, 60, 61
1, 25319, Note_on_c, 0, 67, 0
1, 25319, Note_on_c, 1, 60, 0
1, 25320, Note_on_c, 0, 66, 76
1, 25320, Note_on_c, 1, 63, 61
1, 25343, Note_on_c, 0, 66, 0
1, 25343, Note_on_c, 1, 63, 0
1, 25344, Note_on_c, 0, 66, 76
1, 25344, Note_on_c, 1, 58, 61
1, 25350, Note_on_c, 0, 66, 0
1, 25350, Note_on_c, 0, 67, 76
1, 25364, Note_on_c, 0, 67, 0
1, 25367, Note_on_c, 1, 58, 0
1, 25368, Note_on_c, 1, 67, 61
1, 25391, Note_on_c, 1, 67, 0
1, 25392, Note_on_c, 0, 69, 77
1, 25392, Note_on_c, 1, 62, 61
1, 25398, Note_on_c, 0, 69, 0
1, 25398, Note_on_c, 0, 70, 77
1, 25412, Note_on_c, 0, 70, 0
1, 25415, Note_on_c, 1, 62, 0
1, 25416, Note_on_c, 1, 67, 61
1, 25439, Note_on_c, 1, 67, 0
1, 25440, Note_on_c, 0, 73, 79
1, 25440, Note_on_c, 1, 58, 61
1, 25446, Note_on_c, 0, 73, 0
1, 25446, Note_on_c, 0, 74, 79
1, 25460, Note_on_c, 0, 74, 0
1, 25463, Note_on_c, 1, 58, 0
1, 25464, Note_on_c, 1, 67, 61
1, 25487, Note_on_c, 1, 67, 0
1, 25488, Note_on_c, 0, 78, 80
1, 25488, Note_on_c, 1, 62, 61
1, 25494, Note_on_c, 0, 78, 0
1, 25494, Note_on_c, 0, 79, 80
1, 25508, Note_on_c, 0, 79, 0
1, 25511, Note_on_c, 1, 62, 0
1, 25512, Note_on_c, 1, 67, 61
1, 25535, Note_on_c, 1, 67, 0
1, 25536, Note_on_c, 0, 81, 82
1, 25536, Note_on_c, 1, 58, 61
1, 25542, Note_on_c, 0, 81, 0
1, 25542, Note_on_c, 0, 82, 82
1, 25559, Note_on_c, 1, 58, 0
1, 25560, Note_on_c, 1, 67, 62
1, 25581, Note_on_c, 0, 82, 0
1, 25583, Note_on_c, 1, 67, 0
1, 25584, Note_on_c, 1, 62, 63
1, 25607, Note_on_c, 1, 62, 0
1, 25608, Note_on_c, 1, 67, 64
1, 25631, Note_on_c, 1, 67, 0
1, 25632, Note_on_c, 1, 58, 65
1, 25655, Note_on_c, 1, 58, 0
1, 25656, Note_on_c, 1, 67, 66
1, 25679, Note_on_c, 1, 67, 0
1, 25680, Note_on_c, 1, 62, 67
1, 25703, Note_on_c, 1, 62, 0
1, 25704, Note_on_c, 1, 67, 68
1, 25727, Note_on_c, 1, 67, 0
1, 25728, Note_on_c, 0, 86, 98
1, 25728, Note_on_c, 1, 58, 70
1, 25751, Note_on_c, 1, 58, 0
1, 25752, Note_on_c, 1, 67, 70
1, 25775, Note_on_c, 1, 67, 0
1, 25776, Note_on_c, 0, 86, 0
1, 25776, Note_on_c, 0, 86, 82
1, 25776, Note_on_c, 1, 64, 70
1, 25799, Note_on_c, 1, 64, 0
1, 25800, Note_on_c, 1, 67, 70
1, 25823, Note_on_c, 1, 67, 0
1, 25824, Note_on_c, 1, 58, 70
1, 25847, Note_on_c, 1, 58, 0
1, 25848, Note_on_c, 1, 67, 70
1, 25869, Note_on_c, 0, 86, 0
1, 25871, Note_on_c, 1, 67, 0
1, 25872, Note_on_c, 0, 84, 79
1, 25872, Note_on_c, 1, 64, 70
1, 25884, Note_on_c, 0, 84, 0
1, 25884, Note_on_c, 0, 82, 78
1, 25895, Note_on_c, 1, 64, 0
1, 25896, Note_on_c, 0, 82, 0
1, 25896, Note_on_c, 0, 81, 77
1, 25896, Note_on_c, 1, 67, 70
1, 25908, Note_on_c, 0, 81, 0
1, 25908, Note_on_c, 0, 79, 76
1, 25919, Note_on_c, 1, 67, 0
1, 25920, Note_on_c, 0, 79, 0
1, 25920, Note_on_c, 0, 84, 98
1, 25920, Note_on_c, 1, 57, 70
1, 25943, Note_on_c, 1, 57, 0
1, 25944, Note_on_c, 1, 65, 70
1, 25967, Note_on_c, 1, 65, 0
1, 25968, Note_on_c, 0, 84, 0
1, 25968, Note_on_c, 0, 84, 82
1, 25968, Note_on_c, 1, 60, 70
1, 25991, Note_on_c, 1, 60, 0
1, 25992, Note_on_c, 1, 65, 70
1, 26015, Note_on_c, 1, 65, 0
1, 26016, Note_on_c, 1, 57, 70
1, 26039, Note_on_c, 1, 57, 0
1, 26040, Note_on_c, 1, 65, 70
1, 26061, Note_on_c, 0, 84, 0
1, 26063, Note_on_c, 1, 65, 0
1, 26064, Note_on_c, 0, 82, 79
1, 26064, Note_on_c, 1, 60, 70
1, 26076, Note_on_c, 0, 82, 0
1, 26076, Note_on_c, 0, 81, 78
1, 26087, Note_on_c, 1, 60, 0
1, 26088, Note_on_c, 0, 81, 0
1, 26088, Note_on_c, 0, 79, 77
1, 26088, Note_on_c, 1, 65, 70
1, 26100, Note_on_c, 0, 79, 0
1, 26100, Note_on_c, 0, 77, 76
1, 26111, Note_on_c, 1, 65, 0
1, 26112, Note_on_c, 0, 77, 0
1, 26112, Note_on_c, 0, 84, 76
1, 26112, Note_on_c, 1, 52, 70
1, 26135, Note_on_c, 1, 52, 0
1, 26136, Note_on_c, 0, 84, 0
1, 26136, Note_on_c, 0, 82, 76
1, 26136, Note_on_c, 1, 60, 68
1, 26159, Note_on_c, 0, 82, 0
1, 26159, Note_on_c, 1, 60, 0
1, 26160, Note_on_c, 0, 82, 76
1, 26160, Note_on_c, 1, 55, 67
1, 26183, Note_on_c, 1, 55, 0
1, 26184, Note_on_c, 0, 82, 0
1, 26184, Note_on_c, 0, 81, 76
1, 26184, Note_on_c, 1, 60, 66
1, 26207, Note_on_c, 0, 81, 0
1, 26207, Note_on_c, 1, 60, 0
1, 26208, Note_on_c, 0, 81, 76
1, 26208, Note_on_c, 1, 53, 65
1, 26231, Note_on_c, 1, 53, 0
1, 26232, Note_on_c, 1, 60, 64
1, 26253, Note_on_c, 0, 81, 0
1, 26255, Note_on_c, 1, 60, 0
1, 26256, Note_on_c, 1, 57, 63
1, 26279, Note_on_c, 1, 57, 0
1, 26280, Note_on_c, 1, 60, 62
1, 26303, Note_on_c, 1, 60, 0
1, 26304, Note_on_c, 0, 84, 70
1, 26304, Note_on_c, 1, 52, 61
1, 26327, Note_on_c, 1, 52, 0
1, 26328, Note_on_c, 0, 84, 0
1, 26328, Note_on_c, 0, 82, 70
1, 26328, Note_on_c, 1, 60, 61
1, 26351, Note_on_c, 0, 82, 0
1, 26351, Note_on_c, 1, 60, 0
1, 26352, Note_on_c, 0, 82, 70
1, 26352, Note_on_c, 1, 55, 61
1, 26375, Note_on_c, 1, 55, 0
1, 26376, Note_on_c, 0, 82, 0
1, 26376, Note_on_c, 0, 81, 70
1, 26376, Note_on_c, 1, 60, 61
1, 26399, Note_on_c, 0, 81, 0
1, 26399, Note_on_c, 1, 60, 0
1, 26400, Note_on_c, 0, 81, 70
1, 26400, Note_on_c, 1, 53, 61
1, 26423, Note_on_c, 1, 53, 0
1, 26424, Note_on_c, 1, 60, 61
1, 26445, Note_on_c, 0, 81, 0
1, 26447, Note_on_c, 1, 60, 0
1, 26448, Note_on_c, 1, 57, 61
1, 26471, Note_on_c, 1, 57, 0
1, 26472, Note_on_c, 1, 60, 61
1, 26495, Note_on_c, 1, 60, 0
1, 26496, Note_on_c, 0, 84, 70
1, 26496, Note_on_c, 1, 52, 61
1, 26502, Note_on_c, 0, 84, 0
1, 26502, Note_on_c, 0, 86, 70
1, 26508, Note_on_c, 0, 86, 0
1, 26508, Note_on_c, 0, 84, 70
1, 26519, Note_on_c, 0, 84, 0
1, 26519, Note_on_c, 1, 52, 0
1, 26520, Note_on_c, 0, 82, 70
1, 26520, Note_on_c, 1, 60, 61
1, 26543, Note_on_c, 0, 82, 0
1, 26543, Note_on_c, 1, 60, 0
1, 26544, Note_on_c, 0, 82, 70
1, 26544, Note_on_c, 1, 55, 61
1, 26550, Note_on_c, 0, 82, 0
1, 26550, Note_on_c, 0, 84, 70
1, 26556, Note_on_c, 0, 84, 0
1, 26556, Note_on_c, 0, 82, 70
1, 26567, Note_on_c, 0, 82, 0
1, 26567, Note_on_c, 1, 55, 0
1, 26568, Note_on_c, 0, 81, 70
1, 26568, Note_on_c, 1, 60, 61
1, 26591, Note_on_c, 0, 81, 0
1, 26591, Note_on_c, 1, 60, 0
1, 26592, Note_on_c, 0, 81, 86
1, 26592, Note_on_c, 1, 53, 61
1, 26615, Note_on_c, 1, 53, 0
1, 26616, Note_on_c, 1, 60, 62
1, 26639, Note_on_c, 1, 60, 0
1, 26640, Note_on_c, 0, 81, 0
1, 26640, Note_on_c, 1, 57, 63
1, 26663, Note_on_c, 1, 57, 0
1, 26664, Note_on_c, 1, 60, 64
1, 26687, Note_on_c, 1, 60, 0
1, 26688, Note_on_c, 0, 81, 70
1, 26688, Note_on_c, 1, 58, 66
1, 26694, Note_on_c, 0, 81, 0
1, 26694, Note_on_c, 0, 82, 70
1, 26700, Note_on_c, 0, 82, 0
1, 26700, Note_on_c, 0, 81, 70
1, 26711, Note_on_c, 0, 81, 0
1, 26711, Note_on_c, 1, 58, 0
1, 26712, Note_on_c, 0, 79, 70
1, 26712, Note_on_c, 1, 67, 67
1, 26735, Note_on_c, 0, 79, 0
1, 26735, Note_on_c, 1, 67, 0
1, 26736, Note_on_c, 0, 79, 70
1, 26736, Note_on_c, 1, 62, 68
1, 26742, Note_on_c, 0, 79, 0
1, 26742, Note_on_c, 0, 81, 70
1, 26748, Note_on_c, 0, 81, 0
1, 26748, Note_on_c, 0, 79, 70
1, 26759, Note_on_c, 0, 79, 0
1, 26759, Note_on_c, 1, 62, 0
1, 26760, Note_on_c, 0, 77, 70
1, 26760, Note_on_c, 1, 67, 69
1, 26783, Note_on_c, 0, 77, 0
1, 26783, Note_on_c, 1, 67, 0
1, 26784, Note_on_c, 0, 77, 70
1, 26784, Note_on_c, 1, 59, 71
1, 26807, Note_on_c, 1, 59, 0
1, 26808, Note_on_c, 1, 67, 72
1, 26829, Note_on_c, 0, 77, 0
1, 26831, Note_on_c, 1, 67, 0
1, 26832, Note_on_c, 1, 62, 73
1, 26855, Note_on_c, 1, 62, 0
1, 26856, Note_on_c, 1, 67, 74
1, 26879, Note_on_c, 1, 67, 0
1, 26880, Note_on_c, 0, 77, 82
1, 26880, Note_on_c, 1, 60, 76
1, 26886, Note_on_c, 0, 77, 0
1, 26886, Note_on_c, 0, 79, 82
1, 26892, Note_on_c, 0, 79, 0
1, 26892, Note_on_c, 0, 77, 82
1, 26903, Note_on_c, 0, 77, 0
1, 26903, Note_on_c, 1, 60, 0
1, 26904, Note_on_c, 0, 76, 82
1, 26904, Note_on_c, 1, 67, 76
1, 26927, Note_on_c, 0, 76, 0
1, 26927, Note_on_c, 1, 67, 0
1, 26928, Note_on_c, 0, 74, 82
1, 26928, Note_on_c, 1, 64, 76
1, 26934, Note_on_c, 0, 74, 0
1, 26934, Note_on_c, 0, 76, 82
1, 26940, Note_on_c, 0, 76, 0
1, 26940, Note_on_c, 0, 74, 82
1, 26951, Note_on_c, 0, 74, 0
1, 26951, Note_on_c, 1, 64, 0
1, 26952, Note_on_c, 0, 72, 82
1, 26952, Note_on_c, 1, 67, 76
1, 26975, Note_on_c, 0, 72, 0
1, 26975, Note_on_c, 1, 67, 0
1, 26976, Note_on_c, 0, 72, 98
1, 26976, Note_on_c, 1, 60, 76
1, 26999, Note_on_c, 1, 60, 0
1, 27000, Note_on_c, 1, 67, 76
1, 27023, Note_on_c, 1, 67, 0
1, 27024, Note_on_c, 0, 72, 0
1, 27024, Note_on_c, 0, 72, 82
1, 27024, Note_on_c, 1, 64, 76
1, 27047, Note_on_c, 1, 64, 0
1, 27048, Note_on_c, 1, 67, 76
1, 27051, Note_on_c, 0, 72, 0
1, 27054, Note_on_c, 0, 74, 82
1, 27060, Note_on_c, 0, 74, 0
1, 27060, Note_on_c, 0, 72, 82
1, 27066, Note_on_c, 0, 72, 0
1, 27066, Note_on_c, 0, 71, 82
1, 27071, Note_on_c, 1, 67, 0
1, 27072, Note_on_c, 0, 71, 0
1, 27072, Note_on_c, 0, 72, 98
1, 27072, Note_on_c, 1, 60, 76
1, 27095, Note_on_c, 1, 60, 0
1, 27096, Note_on_c, 1, 62, 74
1, 27119, Note_on_c, 1, 62, 0
1, 27120, Note_on_c, 1, 58, 72
1, 27143, Note_on_c, 1, 58, 0
1, 27144, Note_on_c, 1, 60, 70
1, 27167, Note_on_c, 1, 60, 0
1, 27168, Note_on_c, 0, 72, 0
1, 27168, Note_on_c, 1, 57, 68
1, 27191, Note_on_c, 1, 57, 0
1, 27192, Note_on_c, 1, 58, 66
1, 27215, Note_on_c, 1, 58, 0
1, 27216, Note_on_c, 1, 55, 64
1, 27239, Note_on_c, 1, 55, 0
1, 27240, Note_on_c, 1, 57, 62
1, 27263, Note_on_c, 1, 57, 0
1, 27264, Note_on_c, 0, 72, 76
1, 27264, Note_on_c, 1, 53, 61
1, 27287, Note_on_c, 1, 53, 0
1, 27288, Note_on_c, 1, 60, 61
1, 27311, Note_on_c, 1, 60, 0
1, 27312, Note_on_c, 1, 57, 61
1, 27335, Note_on_c, 1, 57, 0
1, 27336, Note_on_c, 1, 60, 61
1, 27353, Note_on_c, 0, 72, 0
1, 27359, Note_on_c, 1, 60, 0
1, 27360, Note_on_c, 0, 70, 76
1, 27360, Note_on_c, 1, 53, 61
1, 27383, Note_on_c, 0, 70, 0
1, 27383, Note_on_c, 1, 53, 0
1, 27384, Note_on_c, 0, 69, 76
1, 27384, Note_on_c, 1, 60, 61
1, 27407, Note_on_c, 0, 69, 0
1, 27407, Note_on_c, 1, 60, 0
1, 27408, Note_on_c, 0, 67, 76
1, 27408, Note_on_c, 1, 57, 61
1, 27431, Note_on_c, 0, 67, 0
1, 27431, Note_on_c, 1, 57, 0
1, 27432, Note_on_c, 0, 65, 76
1, 27432, Note_on_c, 1, 60, 61
1, 27455, Note_on_c, 0, 65, 0
1, 27455, Note_on_c, 1, 60, 0
1, 27456, Note_on_c, 0, 65, 76
1, 27456, Note_on_c, 1, 55, 61
1, 27479, Note_on_c, 1, 55, 0
1, 27480, Note_on_c, 1, 60, 61
1, 27503, Note_on_c, 1, 60, 0
1, 27504, Note_on_c, 1, 58, 61
1, 27527, Note_on_c, 1, 58, 0
1, 27528, Note_on_c, 1, 60, 61
1, 27551, Note_on_c, 1, 60, 0
1, 27552, Note_on_c, 0, 65, 0
1, 27552, Note_on_c, 0, 64, 76
1, 27552, Note_on_c, 1, 55, 61
1, 27558, Note_on_c, 0, 64, 0
1, 27558, Note_on_c, 0, 65, 76
1, 27564, Note_on_c, 0, 65, 0
1, 27564, Note_on_c, 0, 64, 76
1, 27575, Note_on_c, 1, 55, 0
1, 27576, Note_on_c, 1, 60, 61
1, 27599, Note_on_c, 1, 60, 0
1, 27600, Note_on_c, 1, 58, 61
1, 27619, Note_on_c, 0, 64, 0
1, 27623, Note_on_c, 1, 58, 0
1, 27624, Note_on_c, 0, 64, 76
1, 27624, Note_on_c, 1, 60, 61
1, 27647, Note_on_c, 0, 64, 0
1, 27647, Note_on_c, 1, 60, 0
1, 27648, Note_on_c, 0, 65, 76
1, 27648, Note_on_c, 1, 53, 61
1, 27671, Note_on_c, 0, 65, 0
1, 27671, Note_on_c, 1, 53, 0
1, 27672, Note_on_c, 0, 67, 76
1, 27672, Note_on_c, 1, 60, 61
1, 27695, Note_on_c, 0, 67, 0
1, 27695, Note_on_c, 1, 60, 0
1, 27696, Note_on_c, 0, 69, 77
1, 27696, Note_on_c, 1, 57, 61
1, 27719, Note_on_c, 0, 69, 0
1, 27719, Note_on_c, 1, 57, 0
1, 27720, Note_on_c, 0, 70, 78
1, 27720, Note_on_c, 1, 60, 61
1, 27743, Note_on_c, 0, 70, 0
1, 27743, Note_on_c, 1, 60, 0
1, 27744, Note_on_c, 0, 72, 79
1, 27744, Note_on_c, 1, 53, 61
1, 27767, Note_on_c, 0, 72, 0
1, 27767, Note_on_c, 1, 53, 0
1, 27768, Note_on_c, 0, 74, 79
1, 27768, Note_on_c, 1, 60, 61
1, 27791, Note_on_c, 0, 74, 0
1, 27791, Note_on_c, 1, 60, 0
1, 27792, Note_on_c, 0, 76, 80
1, 27792, Note_on_c, 1, 57, 61
1, 27815, Note_on_c, 0, 76, 0
1, 27815, Note_on_c, 1, 57, 0
1, 27816, Note_on_c, 0, 77, 81
1, 27816, Note_on_c, 1, 60, 61
1, 27839, Note_on_c, 0, 77, 0
1, 27839, Note_on_c, 1, 60, 0
1, 27840, Note_on_c, 0, 77, 98
1, 27840, Note_on_c, 1, 55, 61
1, 27863, Note_on_c, 1, 55, 0
1, 27864, Note_on_c, 0, 77, 0
1, 27864, Note_on_c, 0, 76, 81
1, 27864, Note_on_c, 1, 60, 61
1, 27887, Note_on_c, 0, 76, 0
1, 27887, Note_on_c, 1, 60, 0
1, 27888, Note_on_c, 0, 74, 80
1, 27888, Note_on_c, 1, 58, 61
1, 27911, Note_on_c, 0, 74, 0
1, 27911, Note_on_c, 1, 58, 0
1, 27912, Note_on_c, 0, 72, 79
1, 27912, Note_on_c, 1, 60, 61
1, 27935, Note_on_c, 0, 72, 0
1, 27935, Note_on_c, 1, 60, 0
1, 27936, Note_on_c, 0, 72, 79
1, 27936, Note_on_c, 1, 55, 61
1, 27959, Note_on_c, 0, 72, 0
1, 27959, Note_on_c, 1, 55, 0
1, 27960, Note_on_c, 0, 70, 78
1, 27960, Note_on_c, 1, 60, 61
1, 27983, Note_on_c, 0, 70, 0
1, 27983, Note_on_c, 1, 60, 0
1, 27984, Note_on_c, 0, 69, 77
1, 27984, Note_on_c, 1, 58, 61
1, 28007, Note_on_c, 0, 69, 0
1, 28007, Note_on_c, 1, 58, 0
1, 28008, Note_on_c, 0, 67, 76
1, 28008, Note_on_c, 1, 60, 61
1, 28031, Note_on_c, 0, 67, 0
1, 28031, Note_on_c, 1, 60, 0
1, 28032, Note_on_c, 0, 84, 92
1, 28032, Note_on_c, 1, 53, 61
1, 28055, Note_on_c, 1, 53, 0
1, 28056, Note_on_c, 1, 60, 61
1, 28079, Note_on_c, 1, 60, 0
1, 28080, Note_on_c, 1, 57, 61
1, 28103, Note_on_c, 1, 57, 0
1, 28104, Note_on_c, 0, 84, 0
1, 28104, Note_on_c, 0, 86, 76
1, 28104, Note_on_c, 1, 60, 61
1, 28116, Note_on_c, 0, 86, 0
1, 28116, Note_on_c, 0, 84, 76
1, 28127, Note_on_c, 1, 60, 0
1, 28128, Note_on_c, 0, 84, 0
1, 28128, Note_on_c, 0, 82, 76
1, 28128, Note_on_c, 1, 53, 61
1, 28151, Note_on_c, 0, 82, 0
1, 28151, Note_on_c, 1, 53, 0
1, 28152, Note_on_c, 0, 81, 76
1, 28152, Note_on_c, 1, 60, 61
1, 28175, Note_on_c, 0, 81, 0
1, 28175, Note_on_c, 1, 60, 0
1, 28176, Note_on_c, 0, 79, 76
1, 28176, Note_on_c, 1, 57, 61
1, 28199, Note_on_c, 0, 79, 0
1, 28199, Note_on_c, 1, 57, 0
1, 28200, Note_on_c, 0, 77, 76
1, 28200, Note_on_c, 1, 60, 61
1, 28223, Note_on_c, 0, 77, 0
1, 28223, Note_on_c, 1, 60, 0
1, 28224, Note_on_c, 0, 77, 76
1, 28224, Note_on_c, 1, 55, 61
1, 28247, Note_on_c, 1, 55, 0
1, 28248, Note_on_c, 1, 60, 61
1, 28271, Note_on_c, 1, 60, 0
1, 28272, Note_on_c, 1, 58, 61
1, 28295, Note_on_c, 1, 58, 0
1, 28296, Note_on_c, 1, 60, 61
1, 28319, Note_on_c, 1, 60, 0
1, 28320, Note_on_c, 0, 77, 0
1, 28320, Note_on_c, 0, 76, 76
1, 28320, Note_on_c, 1, 55, 61
1, 28326, Note_on_c, 0, 76, 0
1, 28326, Note_on_c, 0, 77, 76
1, 28332, Note_on_c, 0, 77, 0
1, 28332, Note_on_c, 0, 76, 76
1, 28343, Note_on_c, 1, 55, 0
1, 28344, Note_on_c, 1, 60, 61
1, 28367, Note_on_c, 1, 60, 0
1, 28368, Note_on_c, 1, 58, 61
1, 28387, Note_on_c, 0, 76, 0
1, 28391, Note_on_c, 1, 58, 0
1, 28392, Note_on_c, 0, 82, 76
1, 28392, Note_on_c, 1, 60, 61
1, 28415, Note_on_c, 0, 82, 0
1, 28415, Note_on_c, 1, 60, 0
1, 28416, Note_on_c, 0, 81, 76
1, 28416, Note_on_c, 1, 53, 61
1, 28426, Note_on_c, 0, 81, 0
1, 28439, Note_on_c, 1, 53, 0
1, 28440, Note_on_c, 0, 82, 76
1, 28440, Note_on_c, 1, 60, 61
1, 28450, Note_on_c, 0, 82, 0
1, 28463, Note_on_c, 1, 60, 0
1, 28464, Note_on_c, 0, 84, 77
1, 28464, Note_on_c, 1, 57, 61
1, 28474, Note_on_c, 0, 84, 0
1, 28487, Note_on_c, 1, 57, 0
1, 28488, Note_on_c, 0, 86, 78
1, 28488, Note_on_c, 1, 60, 61
1, 28498, Note_on_c, 0, 86, 0
1, 28511, Note_on_c, 1, 60, 0
1, 28512, Note_on_c, 0, 88, 79
1, 28512, Note_on_c, 1, 53, 61
1, 28522, Note_on_c, 0, 88, 0
1, 28535, Note_on_c, 1, 53, 0
1, 28536, Note_on_c, 0, 89, 79
1, 28536, Note_on_c, 1, 60, 61
1, 28546, Note_on_c, 0, 89, 0
1, 28559, Note_on_c, 1, 60, 0
1, 28560, Note_on_c, 0, 88, 80
1, 28560, Note_on_c, 1, 57, 61
1, 28570, Note_on_c, 0, 88, 0
1, 28583, Note_on_c, 1, 57, 0
1, 28584, Note_on_c, 0, 89, 81
1, 28584, Note_on_c, 1, 60, 61
1, 28594, Note_on_c, 0, 89, 0
1, 28607, Note_on_c, 1, 60, 0
1, 28608, Note_on_c, 0, 89, 98
1, 28608, Note_on_c, 1, 55, 61
1, 28631, Note_on_c, 1, 55, 0
1, 28632, Note_on_c, 0, 89, 0
1, 28632, Note_on_c, 0, 88, 81
1, 28632, Note_on_c, 1, 60, 61
1, 28655, Note_on_c, 0, 88, 0
1, 28655, Note_on_c, 1, 60, 0
1, 28656, Note_on_c, 0, 86, 80
1, 28656, Note_on_c, 1, 58, 61
1, 28679, Note_on_c, 0, 86, 0
1, 28679, Note_on_c, 1, 58, 0
1, 28680, Note_on_c, 0, 84, 79
1, 28680, Note_on_c, 1, 60, 61
1, 28703, Note_on_c, 0, 84, 0
1, 28703, Note_on_c, 1, 60, 0
1, 28704, Note_on_c, 0, 84, 95
1, 28704, Note_on_c, 1, 55, 61
1, 28727, Note_on_c, 1, 55, 0
1, 28728, Note_on_c, 0, 84, 0
1, 28728, Note_on_c, 0, 86, 78
1, 28728, Note_on_c, 1, 60, 61
1, 28740, Note_on_c, 0, 86, 0
1, 28740, Note_on_c, 0, 84, 77
1, 28751, Note_on_c, 1, 60, 0
1, 28752, Note_on_c, 0, 84, 0
1, 28752, Note_on_c, 0, 84, 77
1, 28752, Note_on_c, 1, 58, 61
1, 28764, Note_on_c, 0, 84, 0
1, 28764, Note_on_c, 0, 82, 77
1, 28775, Note_on_c, 1, 58, 0
1, 28776, Note_on_c, 0, 82, 0
1, 28776, Note_on_c, 0, 81, 76
1, 28776, Note_on_c, 1, 60, 61
1, 28788, Note_on_c, 0, 81, 0
1, 28788, Note_on_c, 0, 79, 76
1, 28799, Note_on_c, 1, 60, 0
1, 28800, Note_on_c, 0, 79, 0
1, 28800, Note_on_c, 0, 81, 76
1, 28800, Note_on_c, 1, 53, 61
1, 28800, Note_on_c, 1, 53, 61
1, 28823, Note_on_c, 0, 81, 0
1, 28823, Note_on_c, 1, 53, 0
1, 28823, Note_on_c, 1, 53, 0
1, 28824, Note_on_c, 0, 82, 76
1, 28824, Note_on_c, 1, 60, 62
1, 28824, Note_on_c, 1, 60, 61
1, 28847, Note_on_c, 0, 82, 0
1, 28847, Note_on_c, 1, 60, 0
1, 28847, Note_on_c, 1, 60, 0
1, 28848, Note_on_c, 0, 81, 77
1, 28848, Note_on_c, 1, 57, 63
1, 28848, Note_on_c, 1, 57, 61
1, 28871, Note_on_c, 0, 81, 0
1, 28871, Note_on_c, 1, 57, 0
1, 28871, Note_on_c, 1, 57, 0
1, 28872, Note_on_c, 0, 82, 78
1, 28872, Note_on_c, 1, 60, 64
1, 28872, Note_on_c, 1, 60, 61
1, 28895, Note_on_c, 0, 82, 0
1, 28895, Note_on_c, 1, 60, 0
1, 28895, Note_on_c, 1, 60, 0
1, 28896, Note_on_c, 0, 84, 79
1, 28896, Note_on_c, 1, 53, 65
1, 28896, Note_on_c, 1, 53, 61
1, 28919, Note_on_c, 0, 84, 0
1, 28919, Note_on_c, 1, 53, 0
1, 28919, Note_on_c, 1, 53, 0
1, 28920, Note_on_c, 0, 86, 79
1, 28920, Note_on_c, 1, 60, 66
1, 28920, Note_on_c, 1, 60, 61
1, 28943, Note_on_c, 0, 86, 0
1, 28943, Note_on_c, 1, 60, 0
1, 28943, Note_on_c, 1, 60, 0
1, 28944, Note_on_c, 0, 84, 80
1, 28944, Note_on_c, 1, 57, 67
1, 28944, Note_on_c, 1, 57, 61
1, 28967, Note_on_c, 0, 84, 0
1, 28967, Note_on_c, 1, 57, 0
1, 28967, Note_on_c, 1, 57, 0
1, 28968, Note_on_c, 0, 86, 81
1, 28968, Note_on_c, 1, 60, 68
1, 28968, Note_on_c, 1, 60, 61
1, 28991, Note_on_c, 0, 86, 0
1, 28991, Note_on_c, 1, 60, 0
1, 28991, Note_on_c, 1, 60, 0
1, 28992, Note_on_c, 0, 87, 98
1, 28992, Note_on_c, 0, 75, 98
1, 28992, Note_on_c, 1, 57, 70
1, 29015, Note_on_c, 1, 57, 0
1, 29016, Note_on_c, 1, 65, 70
1, 29039, Note_on_c, 1, 65, 0
1, 29040, Note_on_c, 1, 60, 70
1, 29063, Note_on_c, 1, 60, 0
1, 29064, Note_on_c, 1, 65, 70
1, 29087, Note_on_c, 1, 65, 0
1, 29088, Note_on_c, 1, 57, 70
1, 29111, Note_on_c, 1, 57, 0
1, 29112, Note_on_c, 1, 65, 70
1, 29135, Note_on_c, 1, 65, 0
1, 29136, Note_on_c, 1, 60, 70
1, 29159, Note_on_c, 1, 60, 0
1, 29160, Note_on_c, 1, 65, 71
1, 29183, Note_on_c, 1, 65, 0
1, 29184, Note_on_c, 0, 87, 0
1, 29184, Note_on_c, 0, 75, 0
1, 29184, Note_on_c, 1, 58, 71
1, 29207, Note_on_c, 1, 58, 0
1, 29208, Note_on_c, 0, 86, 82
1, 29208, Note_on_c, 1, 65, 72
1, 29231, Note_on_c, 0, 86, 0
1, 29231, Note_on_c, 1, 65, 0
1, 29232, Note_on_c, 0, 85, 82
1, 29232, Note_on_c, 1, 62, 72
1, 29255, Note_on_c, 0, 85, 0
1, 29255, Note_on_c, 1, 62, 0
1, 29256, Note_on_c, 0, 86, 82
1, 29256, Note_on_c, 1, 65, 73
1, 29279, Note_on_c, 0, 86, 0
1, 29279, Note_on_c, 1, 65, 0
1, 29280, Note_on_c, 1, 57, 73
1, 29303, Note_on_c, 1, 57, 0
1, 29304, Note_on_c, 0, 84, 82
1, 29304, Note_on_c, 1, 66, 74
1, 29327, Note_on_c, 0, 84, 0
1, 29327, Note_on_c, 1, 66, 0
1, 29328, Note_on_c, 0, 83, 82
1, 29328, Note_on_c, 1, 60, 74
1, 29351, Note_on_c, 0, 83, 0
1, 29351, Note_on_c, 1, 60, 0
1, 29352, Note_on_c, 0, 84, 82
1, 29352, Note_on_c, 1, 66, 75
1, 29375, Note_on_c, 0, 84, 0
1, 29375, Note_on_c, 1, 66, 0
1, 29376, Note_on_c, 1, 55, 75
1, 29399, Note_on_c, 1, 55, 0
1, 29400, Note_on_c, 0, 83, 82
1, 29400, Note_on_c, 1, 65, 76
1, 29423, Note_on_c, 0, 83, 0
1, 29423, Note_on_c, 1, 65, 0
1, 29424, Note_on_c, 0, 84, 81
1, 29424, Note_on_c, 1, 62, 73
1, 29430, Note_on_c, 0, 84, 0
1, 29430, Note_on_c, 0, 83, 81
1, 29436, Note_on_c, 0, 83, 0
1, 29436, Note_on_c, 0, 81, 81
1, 29442, Note_on_c, 0, 81, 0
1, 29442, Note_on_c, 0, 83, 81
1, 29447, Note_on_c, 1, 62, 0
1, 29448, Note_on_c, 1, 65, 71
1, 29469, Note_on_c, 0, 83, 0
1, 29471, Note_on_c, 1, 65, 0
1, 29472, Note_on_c, 1, 60, 69
1, 29495, Note_on_c, 1, 60, 0
1, 29496, Note_on_c, 0, 82, 78
1, 29496, Note_on_c, 1, 67, 67
1, 29519, Note_on_c, 0, 82, 0
1, 29519, Note_on_c, 1, 67, 0
1, 29520, Note_on_c, 0, 84, 77
1, 29520, Note_on_c, 1, 64, 65
1, 29526, Note_on_c, 0, 84, 0
1, 29526, Note_on_c, 0, 82, 77
1, 29532, Note_on_c, 0, 82, 0
1, 29532, Note_on_c, 0, 81, 77
1, 29538, Note_on_c, 0, 81, 0
1, 29538, Note_on_c, 0, 82, 77
1, 29543, Note_on_c, 1, 64, 0
1, 29544, Note_on_c, 1, 67, 63
1, 29565, Note_on_c, 0, 82, 0
1, 29567, Note_on_c, 1, 67, 0
1, 29568, Note_on_c, 1, 53, 61
1, 29591, Note_on_c, 1, 53, 0
1, 29592, Note_on_c, 0, 81, 76
1, 29592, Note_on_c, 1, 65, 61
1, 29615, Note_on_c, 0, 81, 0
1, 29615, Note_on_c, 1, 65, 0
1, 29616, Note_on_c, 0, 82, 77
1, 29616, Note_on_c, 1, 57, 61
1, 29639, Note_on_c, 0, 82, 0
1, 29639, Note_on_c, 1, 57, 0
1, 29640, Note_on_c, 0, 84, 78
1, 29640, Note_on_c, 1, 65, 61
1, 29663, Note_on_c, 0, 84, 0
1, 29663, Note_on_c, 1, 65, 0
1, 29664, Note_on_c, 0, 84, 79
1, 29664, Note_on_c, 1, 58, 61
1, 29687, Note_on_c, 0, 84, 0
1, 29687, Note_on_c, 1, 58, 0
1, 29688, Note_on_c, 0, 74, 80
1, 29688, Note_on_c, 1, 67, 61
1, 29711, Note_on_c, 0, 74, 0
1, 29711, Note_on_c, 1, 67, 0
1, 29712, Note_on_c, 0, 82, 81
1, 29712, Note_on_c, 1, 62, 61
1, 29735, Note_on_c, 0, 82, 0
1, 29735, Note_on_c, 1, 62, 0
1, 29736, Note_on_c, 0, 79, 82
1, 29736, Note_on_c, 1, 67, 61
1, 29759, Note_on_c, 0, 79, 0
1, 29759, Note_on_c, 1, 67, 0
1, 29760, Note_on_c, 0, 77, 82
1, 29760, Note_on_c, 1, 60, 61
1, 29783, Note_on_c, 1, 60, 0
1, 29784, Note_on_c, 1, 69, 61
1, 29807, Note_on_c, 1, 69, 0
1, 29808, Note_on_c, 1, 65, 61
1, 29831, Note_on_c, 1, 65, 0
1, 29832, Note_on_c, 1, 69, 61
1, 29849, Note_on_c, 0, 77, 0
1, 29855, Note_on_c, 1, 69, 0
1, 29856, Note_on_c, 0, 77, 78
1, 29856, Note_on_c, 1, 60, 61
1, 29863, Note_on_c, 0, 77, 0
1, 29863, Note_on_c, 0, 76, 78
1, 29870, Note_on_c, 0, 76, 0
1, 29870, Note_on_c, 0, 77, 78
1, 29877, Note_on_c, 0, 77, 0
1, 29877, Note_on_c, 0, 76, 78
1, 29879, Note_on_c, 1, 60, 0
1, 29880, Note_on_c, 1, 67, 61
1, 29884, Note_on_c, 0, 76, 0
1, 29884, Note_on_c, 0, 77, 78
1, 29891, Note_on_c, 0, 77, 0
1, 29891, Note_on_c, 0, 76, 77
1, 29898, Note_on_c, 0, 76, 0
1, 29898, Note_on_c, 0, 77, 77
1, 29903, Note_on_c, 1, 67, 0
1, 29904, Note_on_c, 1, 64, 61
1, 29905, Note_on_c, 0, 77, 0
1, 29905, Note_on_c, 0, 76, 77
1, 29912, Note_on_c, 0, 76, 0
1, 29912, Note_on_c, 0, 77, 77
1, 29919, Note_on_c, 0, 77, 0
1, 29919, Note_on_c, 0, 76, 77
1, 29926, Note_on_c, 0, 76, 0
1, 29926, Note_on_c, 0, 74, 76
1, 29927, Note_on_c, 1, 64, 0
1, 29928, Note_on_c, 1, 67, 61
1, 29940, Note_on_c, 0, 74, 0
1, 29940, Note_on_c, 0, 76, 76
1, 29951, Note_on_c, 1, 67, 0
1, 29952, Note_on_c, 0, 76, 0
1, 29952, Note_on_c, 1, 57, 61
1, 29975, Note_on_c, 1, 57, 0
1, 29976, Note_on_c, 0, 84, 76
1, 29976, Note_on_c, 1, 65, 61
1, 29999, Note_on_c, 0, 84, 0
1, 29999, Note_on_c, 1, 65, 0
1, 30000, Note_on_c, 0, 81, 76
1, 30000, Note_on_c, 1, 60, 61
1, 30023, Note_on_c, 0, 81, 0
1, 30023, Note_on_c, 1, 60, 0
1, 30024, Note_on_c, 0, 77, 77
1, 30024, Note_on_c, 1, 65, 61
1, 30047, Note_on_c, 0, 77, 0
1, 30047, Note_on_c, 1, 65, 0
1, 30048, Note_on_c, 0, 75, 78
1, 30048, Note_on_c, 1, 58, 61
1, 30071, Note_on_c, 0, 75, 0
1, 30071, Note_on_c, 1, 58, 0
1, 30072, Note_on_c, 0, 74, 79
1, 30072, Note_on_c, 1, 65, 61
1, 30095, Note_on_c, 0, 74, 0
1, 30095, Note_on_c, 1, 65, 0
1, 30096, Note_on_c, 0, 85, 80
1, 30096, Note_on_c, 1, 62, 61
1, 30119, Note_on_c, 1, 62, 0
1, 30120, Note_on_c, 0, 85, 0
1, 30120, Note_on_c, 0, 86, 81
1, 30120, Note_on_c, 1, 65, 61
1, 30143, Note_on_c, 0, 86, 0
1, 30143, Note_on_c, 1, 65, 0
1, 30144, Note_on_c, 0, 77, 82
1, 30144, Note_on_c, 1, 60, 61
1, 30167, Note_on_c, 1, 60, 0
1, 30168, Note_on_c, 1, 69, 61
1, 30191, Note_on_c, 1, 69, 0
1, 30192, Note_on_c, 1, 65, 61
1, 30215, Note_on_c, 1, 65, 0
1, 30216, Note_on_c, 1, 69, 61
1, 30233, Note_on_c, 0, 77, 0
1, 30239, Note_on_c, 1, 69, 0
1, 30240, Note_on_c, 0, 81, 82
1, 30240, Note_on_c, 1, 60, 61
1, 30247, Note_on_c, 0, 81, 0
1, 30247, Note_on_c, 0, 79, 81
1, 30254, Note_on_c, 0, 79, 0
1, 30254, Note_on_c, 0, 81, 81
1, 30261, Note_on_c, 0, 81, 0
1, 30261, Note_on_c, 0, 79, 80
1, 30263, Note_on_c, 1, 60, 0
1, 30264, Note_on_c, 1, 64, 61
1, 30268, Note_on_c, 0, 79, 0
1, 30268, Note_on_c, 0, 81, 80
1, 30275, Note_on_c, 0, 81, 0
1, 30275, Note_on_c, 0, 79, 80
1, 30282, Note_on_c, 0, 79, 0
1, 30282, Note_on_c, 0, 81, 79
1, 30287, Note_on_c, 1, 64, 0
1, 30288, Note_on_c, 1, 60, 61
1, 30289, Note_on_c, 0, 81, 0
1, 30289, Note_on_c, 0, 79, 79
1, 30296, Note_on_c, 0, 79, 0
1, 30296, Note_on_c, 0, 81, 79
1, 30303, Note_on_c, 0, 81, 0
1, 30303, Note_on_c, 0, 79, 78
1, 30310, Note_on_c, 0, 79, 0
1, 30310, Note_on_c, 0, 77, 78
1, 30311, Note_on_c, 1, 60, 0
1, 30312, Note_on_c, 1, 64, 61
1, 30324, Note_on_c, 0, 77, 0
1, 30324, Note_on_c, 0, 79, 77
1, 30335, Note_on_c, 1, 64, 0
1, 30336, Note_on_c, 0, 79, 0
1, 30336, Note_on_c, 0, 77, 76
1, 30336, Note_on_c, 1, 65, 61
1, 30336, Note_on_c, 1, 53, 61
1, 30381, Note_on_c, 0, 77, 0
1, 30384, Note_on_c, 0, 69, 70
1, 30384, Note_on_c, 0, 65, 70
1, 30404, Note_on_c, 0, 69, 0
1, 30404, Note_on_c, 0, 65, 0
1, 30425, Note_on_c, 1, 65, 0
1, 30425, Note_on_c, 1, 53, 0
1, 30432, Note_on_c, 0, 69, 70
1, 30432, Note_on_c, 0, 65, 70
1, 30452, Note_on_c, 0, 69, 0
1, 30452, Note_on_c, 0, 65, 0
1, 30480, Note_on_c, 0, 69, 70
1, 30480, Note_on_c, 0, 65, 70
1, 30500, Note_on_c, 0, 69, 0
1, 30500, Note_on_c, 0, 65, 0
1, 30528, Note_on_c, 0, 65, 70
1, 30528, Note_on_c, 0, 70, 82
1, 30534, Note_on_c, 0, 70, 0
1, 30534, Note_on_c, 0, 69, 82
1, 30540, Note_on_c, 0, 69, 0
1, 30540, Note_on_c, 0, 67, 82
1, 30546, Note_on_c, 0, 67, 0
1, 30546, Note_on_c, 0, 69, 82
1, 30573, Note_on_c, 0, 65, 0
1, 30573, Note_on_c, 0, 69, 0
1, 30576, Note_on_c, 0, 72, 70
1, 30576, Note_on_c, 0, 69, 70
1, 30621, Note_on_c, 0, 72, 0
1, 30621, Note_on_c, 0, 69, 0
1, 30624, Note_on_c, 0, 69, 70
1, 30624, Note_on_c, 0, 65, 70
1, 30669, Note_on_c, 0, 69, 0
1, 30669, Note_on_c, 0, 65, 0
1, 30672, Note_on_c, 0, 65, 70
1, 30672, Note_on_c, 0, 62, 70
1, 30717, Note_on_c, 0, 65, 0
1, 30717, Note_on_c, 0, 62, 0
1, 30720, Note_on_c, 0, 62, 70
1, 30720, Note_on_c, 0, 58, 70
1, 30816, Note_on_c, 1, 46, 82
1, 30816, Note_on_c, 1, 34, 82
1, 30839, Note_on_c, 0, 62, 0
1, 30839, Note_on_c, 0, 58, 0
1, 30840, Note_on_c, 0, 62, 82
1, 30840, Note_on_c, 0, 58, 82
1, 30850, Note_on_c, 0, 62, 0
1, 30850, Note_on_c, 0, 58, 0
1, 30864, Note_on_c, 0, 64, 81
1, 30864, Note_on_c, 0, 60, 81
1, 30874, Note_on_c, 0, 64, 0
1, 30874, Note_on_c, 0, 60, 0
1, 30888, Note_on_c, 0, 65, 80
1, 30888, Note_on_c, 0, 62, 80
1, 30898, Note_on_c, 0, 65, 0
1, 30898, Note_on_c, 0, 62, 0
1, 30905, Note_on_c, 1, 46, 0
1, 30905, Note_on_c, 1, 34, 0
1, 30912, Note_on_c, 0, 65, 80
1, 30912, Note_on_c, 0, 62, 80
1, 30912, Note_on_c, 1, 48, 82
1, 30912, Note_on_c, 1, 36, 82
1, 30936, Note_on_c, 0, 65, 0
1, 30936, Note_on_c, 0, 62, 0
1, 30936, Note_on_c, 0, 64, 79
1, 30936, Note_on_c, 0, 60, 79
1, 30959, Note_on_c, 0, 64, 0
1, 30959, Note_on_c, 0, 60, 0
1, 30960, Note_on_c, 0, 62, 79
1, 30960, Note_on_c, 0, 58, 79
1, 30970, Note_on_c, 0, 62, 0
1, 30970, Note_on_c, 0, 58, 0
1, 30984, Note_on_c, 0, 60, 78
1, 30984, Note_on_c, 0, 57, 78
1, 30994, Note_on_c, 0, 60, 0
1, 30994, Note_on_c, 0, 57, 0
1, 31001, Note_on_c, 1, 48, 0
1, 31001, Note_on_c, 1, 36, 0
1, 31008, Note_on_c, 0, 60, 78
1, 31008, Note_on_c, 0, 57, 78
1, 31008, Note_on_c, 1, 48, 82
1, 31008, Note_on_c, 1, 36, 82
1, 31032, Note_on_c, 0, 60, 0
1, 31032, Note_on_c, 0, 57, 0
1, 31032, Note_on_c, 0, 58, 77
1, 31032, Note_on_c, 0, 55, 77
1, 31055, Note_on_c, 0, 58, 0
1, 31055, Note_on_c, 0, 55, 0
1, 31056, Note_on_c, 0, 57, 77
1, 31056, Note_on_c, 0, 53, 77
1, 31066, Note_on_c, 0, 57, 0
1, 31066, Note_on_c, 0, 53, 0
1, 31080, Note_on_c, 0, 55, 76
1, 31080, Note_on_c, 0, 52, 76
1, 31090, Note_on_c, 0, 55, 0
1, 31090, Note_on_c, 0, 52, 0
1, 31097, Note_on_c, 1, 48, 0
1, 31097, Note_on_c, 1, 36, 0
1, 31104, Note_on_c, 1, 41, 82
1, 31104, Note_on_c, 1, 29, 82
1, 31152, Note_on_c, 0, 65, 76
1, 31167, Note_on_c, 0, 65, 0
1, 31168, Note_on_c, 0, 69, 76
1, 31183, Note_on_c, 0, 69, 0
1, 31184, Note_on_c, 0, 77, 76
1, 31193, Note_on_c, 1, 41, 0
1, 31193, Note_on_c, 1, 29, 0
1, 31199, Note_on_c, 0, 77, 0
1, 31200, Note_on_c, 0, 65, 76
1, 31215, Note_on_c, 0, 65, 0
1, 31216, Note_on_c, 0, 69, 76
1, 31231, Note_on_c, 0, 69, 0
1, 31232, Note_on_c, 0, 77, 76
1, 31247, Note_on_c, 0, 77, 0
1, 31248, Note_on_c, 0, 65, 76
1, 31263, Note_on_c, 0, 65, 0
1, 31264, Note_on_c, 0, 69, 76
1, 31279, Note_on_c, 0, 69, 0
1, 31280, Note_on_c, 0, 77, 76
1, 31295, Note_on_c, 0, 77, 0
1, 31296, Note_on_c, 0, 65, 76
1, 31311, Note_on_c, 0, 65, 0
1, 31312, Note_on_c, 0, 69, 76
1, 31327, Note_on_c, 0, 69, 0
1, 31328, Note_on_c, 0, 77, 76
1, 31343, Note_on_c, 0, 77, 0
1, 31344, Note_on_c, 0, 69, 76
1, 31359, Note_on_c, 0, 69, 0
1, 31360, Note_on_c, 0, 72, 76
1, 31375, Note_on_c, 0, 72, 0
1, 31376, Note_on_c, 0, 81, 76
1, 31391, Note_on_c, 0, 81, 0
1, 31392, Note_on_c, 0, 65, 76
1, 31407, Note_on_c, 0, 65, 0
1, 31408, Note_on_c, 0, 69, 76
1, 31423, Note_on_c, 0, 69, 0
1, 31424, Note_on_c, 0, 77, 76
1, 31439, Note_on_c, 0, 77, 0
1, 31440, Note_on_c, 0, 62, 76
1, 31455, Note_on_c, 0, 62, 0
1, 31456, Note_on_c, 0, 65, 76
1, 31471, Note_on_c, 0, 65, 0
1, 31472, Note_on_c, 0, 74, 76
1, 31487, Note_on_c, 0, 74, 0
1, 31488, Note_on_c, 0, 58, 70
1, 31584, Note_on_c, 1, 46, 82
1, 31584, Note_on_c, 1, 34, 82
1, 31607, Note_on_c, 0, 58, 0
1, 31608, Note_on_c, 0, 77, 82
1, 31608, Note_on_c, 0, 74, 82
1, 31631, Note_on_c, 0, 77, 0
1, 31631, Note_on_c, 0, 74, 0
1, 31632, Note_on_c, 0, 76, 82
1, 31632, Note_on_c, 0, 72, 82
1, 31655, Note_on_c, 0, 76, 0
1, 31655, Note_on_c, 0, 72, 0
1, 31656, Note_on_c, 0, 74, 82
1, 31656, Note_on_c, 0, 70, 82
1, 31673, Note_on_c, 1, 46, 0
1, 31673, Note_on_c, 1, 34, 0
1, 31679, Note_on_c, 0, 74, 0
1, 31679, Note_on_c, 0, 70, 0
1, 31680, Note_on_c, 0, 74, 82
1, 31680, Note_on_c, 0, 70, 82
1, 31680, Note_on_c, 1, 48, 82
1, 31680, Note_on_c, 1, 36, 82
1, 31704, Note_on_c, 0, 74, 0
1, 31704, Note_on_c, 0, 70, 0
1, 31704, Note_on_c, 0, 72, 81
1, 31704, Note_on_c, 0, 69, 81
1, 31727, Note_on_c, 0, 72, 0
1, 31727, Note_on_c, 0, 69, 0
1, 31728, Note_on_c, 0, 70, 80
1, 31728, Note_on_c, 0, 67, 80
1, 31738, Note_on_c, 0, 70, 0
1, 31738, Note_on_c, 0, 67, 0
1, 31752, Note_on_c, 0, 69, 79
1, 31752, Note_on_c, 0, 65, 79
1, 31762, Note_on_c, 0, 69, 0
1, 31762, Note_on_c, 0, 65, 0
1, 31769, Note_on_c, 1, 48, 0
1, 31769, Note_on_c, 1, 36, 0
1, 31776, Note_on_c, 0, 69, 79
1, 31776, Note_on_c, 1, 58, 76
1, 31776, Note_on_c, 1, 48, 76
1, 31800, Note_on_c, 0, 69, 0
1, 31800, Note_on_c, 0, 67, 78
1, 31821, Note_on_c, 1, 58, 0
1, 31821, Note_on_c, 1, 48, 0
1, 31823, Note_on_c, 0, 67, 0
1, 31824, Note_on_c, 0, 65, 77
1, 31834, Note_on_c, 0, 65, 0
1, 31848, Note_on_c, 0, 64, 76
1, 31848, Note_on_c, 0, 58, 76
1, 31858, Note_on_c, 0, 64, 0
1, 31858, Note_on_c, 0, 58, 0
1, 31872, Note_on_c, 1, 64, 76
1, 31872, Note_on_c, 1, 58, 76
1, 31872, Note_on_c, 1, 53, 76
1, 32064, Note_on_c, 1, 64, 0
1, 32064, Note_on_c, 1, 58, 0
1, 32064, Note_on_c, 1, 41, 70
1, 32070, Note_on_c, 1, 45, 70
1, 32076, Note_on_c, 1, 48, 70
1, 32082, Note_on_c, 1, 57, 70
1, 32088, Note_on_c, 1, 60, 70
1, 32094, Note_on_c, 1, 65, 70
1, 32205, Note_on_c, 1, 65, 0
1, 32205, Note_on_c, 1, 60, 0
1, 32205, Note_on_c, 1, 57, 0
1, 32205, Note_on_c, 1, 53, 0
1, 32205, Note_on_c, 1, 48, 0
1, 32205, Note_on_c, 1, 45, 0
1, 32205, Note_on_c, 1, 41, 0
1, 32256, Note_on_c, 1, 41, 0
1, 32301, Note_on_c, 1, 41, 0
1, 32311, End_track
0, 0, End_of_file